<svg id="其他" xmlns="http://www.w3.org/2000/svg" xmlns:xlink="http://www.w3.org/1999/xlink" viewBox="0 0 22 22"><defs><style>.cls-1,.cls-2,.cls-3,.cls-4,.cls-5,.cls-6,.cls-7,.cls-8{fill-rule:evenodd;}.cls-1{fill:url(#新建渐变色板_1);}.cls-2{fill:url(#linear-gradient);}.cls-3{fill:#221e1f;}.cls-4{fill:#040000;}.cls-5{fill:#bac6d1;}.cls-6{fill:#616161;}.cls-7{fill:url(#linear-gradient-2);}.cls-8{fill:#fff;}.cls-9{fill:#90a4ae;}</style><linearGradient id="新建渐变色板_1" x1="11" y1="0.51" x2="11" y2="39.41" gradientUnits="userSpaceOnUse"><stop offset="0" stop-color="#211d1e"/><stop offset="0.55" stop-color="#58595b"/><stop offset="1" stop-color="#abb6be"/></linearGradient><linearGradient id="linear-gradient" x1="11.21" y1="9.19" x2="11.21" y2="22.8" gradientUnits="userSpaceOnUse"><stop offset="0" stop-color="#fff"/><stop offset="1" stop-color="#cfd8dc"/></linearGradient><linearGradient id="linear-gradient-2" x1="-4.17" y1="5.58" x2="18.21" y2="3.23" gradientUnits="userSpaceOnUse"><stop offset="0" stop-color="#bfd7b1"/><stop offset="0.36" stop-color="#cfd1d2"/><stop offset="1" stop-color="#fff"/></linearGradient></defs><title>画板 25</title><g id="软驱"><path d="M1.3,22A1.25,1.25,0,0,1,.05,20.75V1.25A1.25,1.25,0,0,1,1.3,0H2.9L3,.29l2.15,0V0H19.94l2,2V20.77A1.22,1.22,0,0,1,20.7,22Z"/><path class="cls-1" d="M21.45,20.77a.73.73,0,0,1-.75.72H1.3a.75.75,0,0,1-.75-.75V1.25A.75.75,0,0,1,1.3.51H2.59a.58.58,0,0,0,.53.32H16.76a.58.58,0,0,0,.53-.32h2.44l1.72,1.67Z"/><path class="cls-2" d="M3.69,9.48h15a.77.77,0,0,1,.77.76V21.49H2.93V10.24A.76.76,0,0,1,3.69,9.48Z"/><path class="cls-3" d="M3.36,8a.55.55,0,0,1-.55-.55V.75a.59.59,0,0,0,.24.08V7.48A.55.55,0,0,0,3.6,8Z"/><path class="cls-4" d="M3.55,9.4H18.63a.78.78,0,0,1,.48.19.77.77,0,0,0-.24-.06H3.79a.77.77,0,0,0-.76.76V21.5H2.78V10.16A.77.77,0,0,1,3.55,9.4Z"/><path class="cls-5" d="M19,9.54a.76.76,0,0,1,.62.75v9h0v.82h0v1.42H19.4V10.18A.76.76,0,0,0,19,9.54Z"/><path class="cls-6" d="M17.24.6l0,6.93a.56.56,0,0,1-.55.55l-13,0a.55.55,0,0,1-.49-.3,1.85,1.85,0,0,0,.48.16l12.79,0A.54.54,0,0,0,17,7.41L17,.8a.57.57,0,0,0,.26-.2Zm-.55.24h0Z"/><path class="cls-3" d="M5.71.51H16.62V6.84a.77.77,0,0,1-.77.77H6.49a.78.78,0,0,1-.77-.77V.51Zm7,.76a.52.52,0,0,0-.52.52v5a.52.52,0,0,0,.52.52h2.12a.52.52,0,0,0,.52-.52v-5a.52.52,0,0,0-.52-.52Z"/><path class="cls-7" d="M5.69.5H16.61V6.75a.78.78,0,0,1-.78.77H6.47a.78.78,0,0,1-.77-.77V.5Zm7.05.68a.52.52,0,0,0-.52.52v5a.52.52,0,0,0,.52.52h2.12a.52.52,0,0,0,.52-.52v-5a.52.52,0,0,0-.52-.52Z"/><path class="cls-8" d="M5.69.51H16.61V.6H5.77V6.83a.76.76,0,0,0,.16.46.76.76,0,0,1-.24-.55V.5Zm9.59.89a.51.51,0,0,1,.09.29v5a.52.52,0,0,1-.52.52H12.74a.52.52,0,0,1-.35-.13.52.52,0,0,0,.43.23h2.11a.52.52,0,0,0,.52-.52v-5A.52.52,0,0,0,15.29,1.4Z"/><rect class="cls-9" x="5.9" y="12.62" width="10.53" height="0.78"/><rect class="cls-9" x="5.9" y="17.03" width="10.53" height="0.78"/></g></svg>