<?xml version="1.0" encoding="iso-8859-1"?>
<!-- Generator: Adobe Illustrator 21.0.0, SVG Export Plug-In . SVG Version: 6.00 Build 0)  -->
<svg version="1.1" id="&#x5176;&#x4ED6;" xmlns="http://www.w3.org/2000/svg" xmlns:xlink="http://www.w3.org/1999/xlink" x="0px"
	 y="0px" viewBox="0 0 22 22" style="enable-background:new 0 0 22 22;" xml:space="preserve">
<title>画板 25</title>
<g id="&#x8033;&#x9EA6;">
	<g id="_22">
		
			<linearGradient id="SVGID_1_" gradientUnits="userSpaceOnUse" x1="14.43" y1="2.45" x2="7.44" y2="23.95" gradientTransform="matrix(1 0 0 -1 0 24)">
			<stop  offset="0" style="stop-color:#4DD0E1"/>
			<stop  offset="0.94" style="stop-color:#1976D2"/>
		</linearGradient>
		<path style="fill:url(#SVGID_1_);" d="M11,21.75C5.063,21.75,0.25,16.937,0.25,11S5.063,0.25,11,0.25S21.75,5.063,21.75,11
			C21.744,16.935,16.935,21.744,11,21.75z"/>
		<path style="fill:#455A64;" d="M11,0.5c5.799,0,10.5,4.701,10.5,10.5S16.799,21.5,11,21.5S0.5,16.799,0.5,11S5.201,0.5,11,0.5
			 M11,0C4.925,0,0,4.925,0,11s4.925,11,11,11s11-4.925,11-11S17.075,0,11,0z"/>
		<path style="opacity:0.2;enable-background:new    ;" d="M17.12,12.25c0.014-1.416-0.946-2.658-2.32-3
			c-0.045-0.617-0.193-1.222-0.44-1.79C13.78,6.134,12.446,5.3,11,5.36C9.547,5.305,8.211,6.153,7.64,7.49
			C7.393,8.058,7.245,8.663,7.2,9.28c-1.625,0.465-2.564,2.16-2.099,3.784c0.366,1.276,1.512,2.171,2.839,2.216V9.57
			c0.019-0.606,0.151-1.203,0.39-1.76C8.75,6.72,9.835,6.033,11,6.12c1.165-0.087,2.25,0.6,2.67,1.69
			c0.239,0.557,0.371,1.154,0.39,1.76v5.74c0.284-0.001,0.567-0.041,0.84-0.12c-0.025,0.173-0.098,0.336-0.21,0.47
			c-0.144,0.147-0.345,0.224-0.55,0.21h-1.42c-0.138-0.187-0.357-0.298-0.59-0.3h-1.48c-0.414,0-0.75,0.336-0.75,0.75l0,0
			c0,0.414,0.336,0.75,0.75,0.75h1.48c0.293-0.001,0.559-0.173,0.68-0.44h1.33c0.424,0.004,0.831-0.17,1.12-0.48
			c0.301-0.372,0.454-0.842,0.43-1.32l0,0C16.577,14.272,17.117,13.298,17.12,12.25z"/>
		
			<linearGradient id="SVGID_2_" gradientUnits="userSpaceOnUse" x1="11.051" y1="19.0732" x2="11.051" y2="7.36" gradientTransform="matrix(1 0 0 -1 0 24)">
			<stop  offset="0.38" style="stop-color:#FFFFFF"/>
			<stop  offset="1" style="stop-color:#CCCCCC"/>
		</linearGradient>
		<path style="fill:url(#SVGID_2_);" d="M17.12,11.81c0.014-1.416-0.946-2.658-2.32-3c-0.045-0.617-0.193-1.222-0.44-1.79
			C13.777,5.698,12.443,4.869,11,4.93C9.549,4.874,8.214,5.716,7.64,7.05C7.392,7.621,7.243,8.229,7.2,8.85
			c-1.625,0.465-2.564,2.16-2.099,3.784c0.366,1.276,1.512,2.171,2.839,2.216V9.13c0.019-0.606,0.151-1.203,0.39-1.76
			C8.753,6.284,9.837,5.602,11,5.69c1.165-0.087,2.25,0.6,2.67,1.69c0.239,0.557,0.371,1.154,0.39,1.76v5.74
			c0.284-0.001,0.567-0.041,0.84-0.12c-0.025,0.173-0.098,0.336-0.21,0.47c-0.144,0.147-0.345,0.224-0.55,0.21h-1.42
			c-0.138-0.187-0.357-0.298-0.59-0.3h-1.48c-0.414,0-0.75,0.336-0.75,0.75l0,0c0,0.414,0.336,0.75,0.75,0.75h1.48
			c0.293-0.001,0.559-0.173,0.68-0.44h1.33c0.424,0.004,0.831-0.17,1.12-0.48c0.301-0.372,0.454-0.842,0.43-1.32l0,0
			C16.58,13.84,17.12,12.862,17.12,11.81z"/>
		<ellipse style="opacity:0.24;fill:#FFFFFF;enable-background:new    ;" cx="10.94" cy="7.3" rx="7.93" ry="5.96"/>
	</g>
</g>
</svg>
