<svg xmlns="http://www.w3.org/2000/svg" xmlns:xlink="http://www.w3.org/1999/xlink" viewBox="0 0 22 22"><defs><style>.cls-1{fill:none;}.cls-2{fill:#455a64;}.cls-3{fill:#263238;}.cls-4{fill:url(#linear-gradient);}.cls-5{fill:url(#linear-gradient-2);}.cls-6{clip-path:url(#clip-path);}.cls-7{opacity:0.4;}.cls-8{opacity:0.7;fill:url(#linear-gradient-3);}.cls-9{opacity:0.8;fill:url(#linear-gradient-4);}.cls-10{opacity:0.12;isolation:isolate;fill:url(#linear-gradient-5);}.cls-11{fill:url(#linear-gradient-6);}.cls-12{opacity:0.2;fill:url(#radial-gradient);}.cls-13{opacity:0.6;fill:url(#linear-gradient-7);}.cls-14{fill:#1d272b;}.cls-15{fill:url(#linear-gradient-8);}</style><linearGradient id="linear-gradient" x1="11.07" y1="21.21" x2="11.07" y2="18.68" gradientUnits="userSpaceOnUse"><stop offset="0" stop-color="#455a64"/><stop offset="1" stop-color="#263238"/></linearGradient><linearGradient id="linear-gradient-2" x1="11" y1="2.34" x2="11" y2="16.18" gradientUnits="userSpaceOnUse"><stop offset="0" stop-color="#b3e5fc"/><stop offset="1" stop-color="#0288d1"/></linearGradient><clipPath id="clip-path"><rect id="rect3008" class="cls-1" x="1.82" y="2.34" width="18.36" height="13.84"/></clipPath><linearGradient id="linear-gradient-3" x1="14.5" y1="10.52" x2="25.47" y2="-0.45" gradientUnits="userSpaceOnUse"><stop offset="0" stop-color="#00698c"/><stop offset="1" stop-color="#00698c" stop-opacity="0"/></linearGradient><linearGradient id="linear-gradient-4" x1="9.95" y1="15.07" x2="20.92" y2="4.1" xlink:href="#linear-gradient-3"/><linearGradient id="linear-gradient-5" x1="-428.43" y1="993.43" x2="-428.43" y2="1003.55" gradientTransform="matrix(0.71, 0.71, 0.71, -0.71, -389.78, 1018.74)" gradientUnits="userSpaceOnUse"><stop offset="0"/><stop offset="1" stop-opacity="0"/></linearGradient><linearGradient id="linear-gradient-6" x1="-951.15" y1="1004.36" x2="-944.55" y2="1004.36" gradientTransform="translate(24.71 -2294.6) rotate(-45) scale(1.72 1.61)" gradientUnits="userSpaceOnUse"><stop offset="0" stop-color="#d7e866"/><stop offset="0.69" stop-color="#a4c33a"/><stop offset="1" stop-color="#7a9525" stop-opacity="0"/></linearGradient><radialGradient id="radial-gradient" cx="-949.68" cy="1002.47" r="4.88" gradientTransform="translate(24.71 -2294.6) rotate(-45) scale(1.72 1.61)" gradientUnits="userSpaceOnUse"><stop offset="0" stop-color="#b0ff04"/><stop offset="0.56" stop-color="#5ac306"/><stop offset="0.74" stop-color="#13a400"/></radialGradient><linearGradient id="linear-gradient-7" x1="9.8" y1="13.27" x2="19.71" y2="3.36" gradientUnits="userSpaceOnUse"><stop offset="0" stop-color="#fff"/><stop offset="1" stop-color="#fff" stop-opacity="0"/></linearGradient><linearGradient id="linear-gradient-8" x1="11" y1="1.44" x2="11" y2="17.6" xlink:href="#linear-gradient"/></defs><title>画板 25</title><g id="控制面板"><g id="显示"><g id="_22" data-name="22"><path class="cls-2" d="M5.06,20.81a.74.74,0,0,1-.77-.71v-.62L7.56,18h.56v-.11H.25V1.19h21.5V17.85H13.88V18h.57l3.4,1.52v.62a.74.74,0,0,1-.77.71Z"/><path class="cls-3" d="M21.5,1.44V17.6H13.63v.61h.76l3.21,1.44v.46a.49.49,0,0,1-.52.46h-12a.49.49,0,0,1-.52-.46v-.46l3.08-1.44h.76V17.6H.5V1.44h21m.5-.5H0V18.1H6.67L4.32,19.19,4,19.33v.78a1,1,0,0,0,1,1h12a1,1,0,0,0,1-1v-.78l-.3-.13L15.36,18.1H22V.94Z"/><polygon class="cls-4" points="4.54 19.64 7.62 18.21 14.39 18.21 17.59 19.64 4.54 19.64"/><g id="rect3008-2" data-name="rect3008"><rect class="cls-5" x="1.82" y="2.34" width="18.36" height="13.84"/></g><g class="cls-6"><g class="cls-7"><path class="cls-8" d="M16.05,7.8a1,1,0,0,1-1-1V-6.89h-.71a1,1,0,0,0-1,1V8.81a1,1,0,0,0,1,1h18.4a1,1,0,0,0,1-1v-1Z"/><path class="cls-9" d="M11.5,12.35a1,1,0,0,1-1-1V-2.34H9.83a1,1,0,0,0-1,1V13.36a1,1,0,0,0,1,1h18.4a1,1,0,0,0,1-1v-1Z"/></g></g><g id="layer4"><path id="path4238" class="cls-10" d="M11.32,8.25,9.75,6.68a.13.13,0,0,0-.23.09v6.63a.13.13,0,0,0,.13.14H16.3a.13.13,0,0,0,.13-.14.13.13,0,0,0,0-.09l-1.57-1.57,4.94-8.54Z"/><path id="path3288-2" class="cls-11" d="M16.4,13.31H9.75V6.67l1.66,1.66,8.36-5.12-5,8.44Z"/><path id="path3288-2-2" data-name="path3288-2" class="cls-12" d="M16.4,13.31H9.75V6.67l1.66,1.66,8.36-5.12-5,8.44Z"/><path id="path4200" class="cls-13" d="M19.68,3.32,11.32,8.64l.11.11,8.14-5.32-5.25,8.21.11.11ZM9.91,7v6.13H16l-1.61-1.61-.11.11L15.66,13h-5.6V7.42l1.34,1.34.11-.11Z"/></g><rect class="cls-14" x="8.38" y="17.43" width="5.25" height="1.57"/><path class="cls-15" d="M.5,1.44V17.6h21V1.44ZM20.18,15.78H1.82v-13H20.18Z"/><path class="cls-2" d="M17.07,19.64H4.54v.46a.49.49,0,0,0,.52.46h12a.49.49,0,0,0,.52-.46v-.46Z"/></g></g></g></svg>