<svg id="其他" xmlns="http://www.w3.org/2000/svg" xmlns:xlink="http://www.w3.org/1999/xlink" viewBox="0 0 22 22"><defs><style>.cls-1{fill:#1b5e20;}.cls-2{fill:url(#linear-gradient);}.cls-3,.cls-7{fill:#fff;}.cls-3{opacity:0.24;}.cls-3,.cls-4,.cls-5,.cls-7,.cls-8{isolation:isolate;}.cls-4{fill:#33691e;}.cls-5{fill:#dcedc8;}.cls-6{fill:#657b83;}.cls-7{opacity:0.31;}.cls-8{fill:#073642;opacity:0.65;}</style><linearGradient id="linear-gradient" x1="6.38" y1="16.46" x2="15.45" y2="0.91" gradientUnits="userSpaceOnUse"><stop offset="0.24" stop-color="#689f38"/><stop offset="0.94" stop-color="#8bc34a"/></linearGradient></defs><title>画板 25</title><g id="U盘"><g id="_22" data-name="22"><polygon class="cls-1" points="16.44 0 5.56 0 5.31 0 5.31 0.25 5.31 16.77 5.31 17.02 5.56 17.02 6.95 17.02 6.95 21.75 6.95 22 7.2 22 14.8 22 15.05 22 15.05 21.75 15.05 17.02 16.44 17.02 16.69 17.02 16.69 16.77 16.69 0.25 16.69 0 16.44 0"/><rect class="cls-2" x="5.75" y="0.5" width="10.5" height="16.07"/><rect class="cls-3" x="6.85" y="0.5" width="3.08" height="16.07"/><path id="path1334" class="cls-4" d="M8.22,7.82a.82.82,0,0,0,.55.74v.83a1.13,1.13,0,0,0,.38.77h0l1.55,1.26a.49.49,0,0,1,.13.29v.72a1,1,0,0,0-.8,1,1.1,1.1,0,0,0,1.17,1,1.1,1.1,0,0,0,1.17-1,1,1,0,0,0-.8-1v-.71h0s0,0,0,0V10.52a.47.47,0,0,1,.13-.29l.77-.63.54-.44L13.25,9l.05,0h0v0h0a1.12,1.12,0,0,0,.38-.77V7.39h.52V5.78H12.46V7.39H13v.77a.46.46,0,0,1-.13.29l-1.23,1V5h.81L11.24,3.1,10,5h.84v5.71l-1.23-1a.49.49,0,0,1-.13-.29V8.57a.82.82,0,0,0,.57-.75A.89.89,0,0,0,9.16,7,.88.88,0,0,0,8.22,7.82Z"/><path id="path1334-2" data-name="path1334" class="cls-5" d="M8,7.66a.82.82,0,0,0,.56.74v.83a1.13,1.13,0,0,0,.38.77H9l1.55,1.26a.49.49,0,0,1,.13.29v.72a1,1,0,0,0-.8,1,1.1,1.1,0,0,0,1.17,1,1.1,1.1,0,0,0,1.17-1,1,1,0,0,0-.8-1v-.71h0V10.36a.47.47,0,0,1,.13-.29l.77-.63L12.83,9,13,8.86l.05,0h0v0h0A1.13,1.13,0,0,0,13.5,8V7.22H14V5.61h-1.8V7.22h.52V8a.47.47,0,0,1-.13.29l-1.23,1V4.82h.81L11,2.93,9.8,4.82h.84v5.71l-1.23-1a.49.49,0,0,1-.13-.29V8.4a.82.82,0,0,0,.57-.75.89.89,0,0,0-.94-.82A.88.88,0,0,0,8,7.66Z"/><rect class="cls-6" x="7.38" y="17.03" width="7.24" height="4.55"/><rect id="rect3765" class="cls-7" x="8.35" y="17.03" width="2.65" height="4.55"/><rect id="rect3767" class="cls-8" x="11.88" y="18.86" width="1.77" height="1.78"/><rect id="rect3769" class="cls-8" x="8.35" y="18.86" width="1.77" height="1.78"/></g></g></svg>