<svg id="其他" xmlns="http://www.w3.org/2000/svg" xmlns:xlink="http://www.w3.org/1999/xlink" viewBox="0 0 22 22"><defs><style>.cls-1{fill:#616161;}.cls-2{fill:#263238;}.cls-3,.cls-9{fill:#e0e0e0;}.cls-4{fill:#9e9e9e;opacity:0.25;}.cls-4,.cls-5,.cls-9{isolation:isolate;}.cls-5{fill:#fff;opacity:0.45;}.cls-6{fill:url(#linear-gradient);}.cls-7{fill:url(#linear-gradient-2);}.cls-8{fill:#949494;}.cls-9{opacity:0.86;}.cls-10{fill:#a5a5a5;}</style><linearGradient id="linear-gradient" x1="-3323" y1="2578.12" x2="-3323" y2="2577.16" gradientTransform="translate(3332.43 -2561.31)" gradientUnits="userSpaceOnUse"><stop offset="0" stop-color="#455a64"/><stop offset="0.21" stop-color="#36474f"/><stop offset="1"/></linearGradient><linearGradient id="linear-gradient-2" x1="-3312.96" y1="2578.12" x2="-3312.96" y2="2577.16" gradientTransform="translate(3332.43 -2561.31)" gradientUnits="userSpaceOnUse"><stop offset="0" stop-color="#38a3e7"/><stop offset="1" stop-color="#1976d2"/></linearGradient></defs><title>画板 25</title><g id="光驱"><path class="cls-1" d="M9.41,22a8.25,8.25,0,0,1-6.78-3.6H0V14.91l.22-1.37L2.45,0H19l2.79,13.53L22,14.82V18.4h-5.8A8.25,8.25,0,0,1,9.41,22Z"/><g id="g4"><g id="g6"><path id="path10" class="cls-2" d="M.5,14.91v3h21v-3Z"/><polygon class="cls-3" points="21.25 13.63 18.55 0.5 2.88 0.5 0.71 13.63 21.25 13.63"/><polygon class="cls-4" points="21.25 13.63 18.55 0.5 13.04 0.5 9.85 13.63 21.25 13.63"/><polygon class="cls-3" points="0.71 13.63 0.5 14.91 21.5 14.91 21.25 13.63 0.71 13.63"/><polygon class="cls-5" points="4.17 13.63 4.84 0.5 3.61 0.5 1.47 13.63 4.17 13.63"/></g><g id="g12"><path id="path14" class="cls-6" d="M17,16.81H1.83v-1H17v1Z"/><path id="path16" class="cls-7" d="M18.77,16.81h1.4v-1h-1.4Z"/></g></g><path class="cls-3" d="M9.41,21.32a7.67,7.67,0,0,0,7.29-5.47H15.51a6.49,6.49,0,0,1-8,4l-.09.24L5.25,19.6l.5-.59a6.78,6.78,0,0,1-1-.82l-.7.45L3,17.49,3.87,17a6.71,6.71,0,0,1-.58-1.18H2.11A7.68,7.68,0,0,0,9.41,21.32Z"/><path class="cls-8" d="M16.88,15.85H16.7a7.69,7.69,0,0,1-7.29,5.47,7.67,7.67,0,0,1-7.29-5.47H1.93A7.85,7.85,0,0,0,9.41,21.5,7.85,7.85,0,0,0,16.88,15.85Z"/><path class="cls-8" d="M6.16,15.85H3.3A7.54,7.54,0,0,0,3.88,17Z"/><path class="cls-8" d="M7.51,16.41,4.78,18.19a6.78,6.78,0,0,0,1,.82l2-2.43Z"/><path class="cls-8" d="M9.41,17a3.34,3.34,0,0,1-.89-.12l-1,3a6.46,6.46,0,0,0,1.94.3,6.54,6.54,0,0,0,6.11-4.3H12A3.42,3.42,0,0,1,9.41,17Z"/><path class="cls-3" d="M5.25,19.6l2.13.49.09-.24A6.54,6.54,0,0,1,5.75,19Z"/><path class="cls-9" d="M5.25,19.6l2.13.49.09-.24A6.54,6.54,0,0,1,5.75,19Z"/><path class="cls-8" d="M7.78,16.57,5.75,19a6.49,6.49,0,0,0,1.71.84l1-3A2.66,2.66,0,0,1,7.78,16.57Z"/><path class="cls-9" d="M7.78,16.57,5.75,19a6.49,6.49,0,0,0,1.71.84l1-3A2.66,2.66,0,0,1,7.78,16.57Z"/><path class="cls-3" d="M3,17.49l1.09,1.15.7-.45A6.44,6.44,0,0,1,3.88,17Z"/><path class="cls-9" d="M3,17.49l1.09,1.15.7-.45A6.44,6.44,0,0,1,3.88,17Z"/><path class="cls-8" d="M4.77,18.19,7.5,16.41a3.63,3.63,0,0,1-.65-.56h-.7L3.87,17A7.27,7.27,0,0,0,4.77,18.19Z"/><path class="cls-9" d="M4.77,18.19,7.5,16.41a3.63,3.63,0,0,1-.65-.56h-.7L3.87,17A7.27,7.27,0,0,0,4.77,18.19Z"/><path class="cls-10" d="M7.51,16.41l.27.17a3.43,3.43,0,0,0,.73.3,3.4,3.4,0,0,0,3.44-1h-.53a3.07,3.07,0,0,1-4,0H6.86A3.68,3.68,0,0,0,7.51,16.41Z"/><path class="cls-3" d="M9.41,16.6a3,3,0,0,0,2-.75h-4A3.09,3.09,0,0,0,9.41,16.6Z"/></g></svg>