<?xml version="1.0" encoding="utf-8"?>
<!-- Generator: Adobe Illustrator 21.0.0, SVG Export Plug-In . SVG Version: 6.00 Build 0)  -->
<svg version="1.1" id="图层_1" xmlns="http://www.w3.org/2000/svg" xmlns:xlink="http://www.w3.org/1999/xlink" x="0px" y="0px"
	 viewBox="0 0 22 22" style="enable-background:new 0 0 22 22;" xml:space="preserve">
<style type="text/css">
	.st0{fill:#263238;}
	.st1{fill:#E0E0E0;}
	.st2{opacity:0.25;fill:#9E9E9E;enable-background:new    ;}
	.st3{fill:#455A64;}
	.st4{opacity:0.45;fill:#FFFFFF;enable-background:new    ;}
	.st5{fill:url(#path14_1_);}
	.st6{fill:url(#path16_1_);}
	.st7{fill:#616161;}
</style>
<title>画板 25</title>
<g id="开始菜单应用图标">
	<g id="硬盘">
		<g id="_22">
			<g id="g4">
				<g id="g6">
					<path id="path10" class="st0" d="M0.5,17.1v3.2h21v-3.2H0.5z"/>
					<polygon class="st1" points="21.2,15.8 18.5,1.7 2.9,1.7 0.7,15.8 					"/>
					<polygon class="st2" points="21.2,15.8 18.5,1.7 13.1,1.7 9.8,15.8 					"/>
					<polygon class="st3" points="0.7,15.8 0.5,17.1 21.5,17.1 21.2,15.8 					"/>
					<polygon class="st4" points="4.1,15.8 4.8,1.7 3.6,1.7 1.5,15.8 					"/>
				</g>
				<g id="g12">
					
						<linearGradient id="path14_1_" gradientUnits="userSpaceOnUse" x1="-2178.8599" y1="4219.5801" x2="-2178.8599" y2="4218.6201" gradientTransform="matrix(1 0 0 1 2185.95 -4200.3101)">
						<stop  offset="0" style="stop-color:#455A64"/>
						<stop  offset="0.21" style="stop-color:#36474F"/>
						<stop  offset="1" style="stop-color:#000000"/>
					</linearGradient>
					<path id="path14" class="st5" d="M12,19.3H2.2v-1H12V19.3z"/>
					
						<linearGradient id="path16_1_" gradientUnits="userSpaceOnUse" x1="-2168.1799" y1="4219.5801" x2="-2168.1799" y2="4218.6201" gradientTransform="matrix(1 0 0 1 2185.95 -4200.3101)">
						<stop  offset="0" style="stop-color:#38A3E7"/>
						<stop  offset="1" style="stop-color:#1976D2"/>
					</linearGradient>
					<path id="path16" class="st6" d="M17,19.3h1.5v-1H17V19.3z"/>
				</g>
				<path class="st7" d="M18.5,1.7l2.7,14.1l0.3,1.4v3.2h-21v-3.2l0.2-1.4l2.2-14h0.8L13,1.7l0,0L18.5,1.7 M18.9,1.2h-6.2l0,0h-9
					H2.4L2.4,1.6l-2.2,14L0,17.1v3.8h22v-3.8l-0.3-1.4L19,1.6L18.9,1.2L18.9,1.2z"/>
			</g>
		</g>
	</g>
</g>
</svg>
