<svg xmlns="http://www.w3.org/2000/svg" xmlns:xlink="http://www.w3.org/1999/xlink" viewBox="0 0 22 22"><defs><style>.cls-1{fill:#263238;}.cls-2{fill:#64c4f9;}.cls-3{fill:#47b5f8;}.cls-4{fill:#455a64;}.cls-5{fill:#87d2fb;}.cls-6{fill:url(#linear-gradient);}.cls-7{fill:url(#linear-gradient-2);}.cls-8{fill:#01579b;}</style><linearGradient id="linear-gradient" x1="-2178.87" y1="-3427.58" x2="-2178.87" y2="-3426.62" gradientTransform="matrix(1, 0, 0, -1, 2185.95, -3408.31)" gradientUnits="userSpaceOnUse"><stop offset="0" stop-color="#455a64"/><stop offset="0.21" stop-color="#36474f"/><stop offset="1"/></linearGradient><linearGradient id="linear-gradient-2" x1="-2168.14" y1="-3427.58" x2="-2168.14" y2="-3426.62" gradientTransform="matrix(1, 0, 0, -1, 2185.95, -3408.31)" gradientUnits="userSpaceOnUse"><stop offset="0" stop-color="#38a3e7"/><stop offset="1" stop-color="#1976d2"/></linearGradient></defs><title>画板 25</title><g id="开始菜单应用图标"><g id="备份硬盘"><g id="_22" data-name="22"><g id="g4"><g id="g6"><path id="path10" class="cls-1" d="M.5,17.15v3.18h21V17.15Z"/><polygon class="cls-2" points="21.24 15.76 18.53 1.68 2.86 1.73 0.7 15.76 21.24 15.76"/><polygon class="cls-3" points="21.24 15.76 18.53 1.68 13.05 1.68 9.82 15.76 21.24 15.76"/><polygon class="cls-4" points="0.7 15.76 0.5 17.15 21.5 17.15 21.24 15.76 0.7 15.76"/><polygon class="cls-5" points="4.14 15.76 4.84 1.73 3.6 1.73 1.47 15.76 4.14 15.76"/></g><g id="g12"><path id="path14" class="cls-6" d="M12,19.27H2.18v-1H12Z"/><path id="path16" class="cls-7" d="M17,19.27h1.54v-1H17Z"/></g><path class="cls-8" d="M18.53,1.68l2.71,14.09.26,1.38v3.18H.5V17.15l.2-1.38,2.15-14h.75L13,1.7v0h5.48m.41-.5H12.65v0l-9,0H2.43l-.06.42-2.15,14L0,17.07v3.75H22V17.06l-.26-1.38L19,1.58l-.08-.41Z"/></g></g></g></g></svg>