<?xml version="1.0" encoding="iso-8859-1"?>
<!-- Generator: Adobe Illustrator 21.0.0, SVG Export Plug-In . SVG Version: 6.00 Build 0)  -->
<svg version="1.1" id="&#x56FE;&#x5C42;_1" xmlns="http://www.w3.org/2000/svg" xmlns:xlink="http://www.w3.org/1999/xlink" x="0px"
	 y="0px" viewBox="0 0 22 22" style="enable-background:new 0 0 22 22;" xml:space="preserve">
<title>画板 25</title>
<g id="&#x5F00;&#x59CB;&#x83DC;&#x5355;&#x5E94;&#x7528;&#x56FE;&#x6807;">
	<g id="&#x5907;&#x4EFD;&#x786C;&#x76D8;">
		<g id="_22">
			<g id="g4">
				<g id="g6">
					<path id="path10" style="fill:#263238;" d="M0.5,17.15v3.18h21v-3.18H0.5z"/>
					<polygon style="fill:#64C4F9;" points="21.24,15.76 18.53,1.68 2.86,1.73 0.7,15.76 					"/>
					<polygon style="fill:#47B5F8;" points="21.24,15.76 18.53,1.68 13.05,1.68 9.82,15.76 					"/>
					<polygon style="fill:#455A64;" points="0.7,15.76 0.5,17.15 21.5,17.15 21.24,15.76 					"/>
					<polygon style="fill:#87D2FB;" points="4.14,15.76 4.84,1.73 3.6,1.73 1.47,15.76 					"/>
				</g>
				<g id="g12">
					
						<linearGradient id="path14_1_" gradientUnits="userSpaceOnUse" x1="-2178.8599" y1="3827.5801" x2="-2178.8599" y2="3826.6201" gradientTransform="matrix(1 0 0 1 2185.95 -3808.3101)">
						<stop  offset="0" style="stop-color:#455A64"/>
						<stop  offset="0.21" style="stop-color:#36474F"/>
						<stop  offset="1" style="stop-color:#000000"/>
					</linearGradient>
					<path id="path14" style="fill:url(#path14_1_);" d="M12,19.27H2.18v-1H12V19.27z"/>
					
						<linearGradient id="path16_1_" gradientUnits="userSpaceOnUse" x1="-2168.1799" y1="3827.5801" x2="-2168.1799" y2="3826.6201" gradientTransform="matrix(1 0 0 1 2185.95 -3808.3101)">
						<stop  offset="0" style="stop-color:#38A3E7"/>
						<stop  offset="1" style="stop-color:#1976D2"/>
					</linearGradient>
					<path id="path16" style="fill:url(#path16_1_);" d="M17,19.27h1.54v-1H17V19.27z"/>
				</g>
				<path style="fill:#01579B;" d="M18.53,1.68l2.71,14.09l0.26,1.38v3.18h-21v-3.18l0.2-1.38l2.15-14H3.6L13,1.7l0,0h5.48
					 M18.89,1.2h-6.24l0,0h-9H2.43L2.37,1.62l-2.15,14L0,17.07v3.75h22v-3.76l-0.26-1.38L19,1.58l-0.08-0.41L18.89,1.2z"/>
			</g>
		</g>
	</g>
</g>
</svg>
