<svg id="其他" xmlns="http://www.w3.org/2000/svg" xmlns:xlink="http://www.w3.org/1999/xlink" viewBox="0 0 22 22"><defs><style>.cls-1{fill:none;}.cls-2{fill:#01579b;}.cls-3{fill:#0288d1;}.cls-4{fill:url(#radial-gradient);}.cls-5{opacity:0.7;}.cls-5,.cls-7{isolation:isolate;}.cls-6{fill:#fff;}.cls-7{fill:#f5f5f5;}.cls-8{stroke:#263238;stroke-miterlimit:10;stroke-width:0.5px;fill:url(#radial-gradient-2);}.cls-9{clip-path:url(#clip-path);}.cls-10{fill:url(#radial-gradient-3);}.cls-11{fill:url(#radial-gradient-4);}</style><radialGradient id="radial-gradient" cx="22.99" cy="10.43" r="9.16" gradientTransform="translate(-10.97 1.03) scale(0.96)" gradientUnits="userSpaceOnUse"><stop offset="0" stop-color="#4dd0e1"/><stop offset="0.39" stop-color="#40bee7"/><stop offset="0.61" stop-color="#3fbde7"/><stop offset="0.66" stop-color="#44c4e8"/><stop offset="0.75" stop-color="#2cbee8"/><stop offset="1" stop-color="#2196f3"/></radialGradient><radialGradient id="radial-gradient-2" cx="15.12" cy="7.67" r="6.42" gradientUnits="userSpaceOnUse"><stop offset="0" stop-color="#607d8b"/><stop offset="0.35" stop-color="#607d8b"/><stop offset="0.6" stop-color="#607d8b"/><stop offset="1" stop-color="#455a64"/></radialGradient><clipPath id="clip-path"><path class="cls-1" d="M12.38,2.55h0V12.5a2.4,2.4,0,0,0-.59-.07c-1,0-1.75.57-1.75,1.27S10.82,15,11.79,15s1.75-.57,1.75-1.27h0V7l6.58-1.35v5a2.41,2.41,0,0,0-.59-.07c-1,0-1.75.57-1.75,1.27s.78,1.27,1.75,1.27,1.75-.57,1.75-1.27h0V.72Zm7.73,2L13.52,5.91v-2l6.58-1.35Z"/></clipPath><radialGradient id="radial-gradient-3" cx="-218.84" cy="66.64" r="1.51" gradientTransform="translate(296.64 -58.52) scale(1.3 1.08)" gradientUnits="userSpaceOnUse"><stop offset="0.37" stop-color="#5f7b8a"/><stop offset="1" stop-color="#455a64" stop-opacity="0"/></radialGradient><radialGradient id="radial-gradient-4" cx="-213.13" cy="65.25" r="1.51" gradientTransform="translate(296.64 -58.78) scale(1.3 1.08)" xlink:href="#radial-gradient-3"/></defs><title>画板 25</title><g id="光盘-音乐"><path class="cls-2" d="M11,22A11,11,0,1,1,22,11,11,11,0,0,1,11,22Zm0-11.9a.9.9,0,1,0,.9.9A.9.9,0,0,0,11,10.1Z"/><path class="cls-3" d="M11,.5A10.5,10.5,0,1,0,21.5,11,10.5,10.5,0,0,0,11,.5Zm0,20.69A10.19,10.19,0,1,1,21.19,11,10.2,10.2,0,0,1,11,21.19Z"/><path class="cls-4" d="M11,2.25A8.75,8.75,0,1,0,19.75,11,8.76,8.76,0,0,0,11,2.25Zm0,11.81A3.06,3.06,0,1,1,14.06,11,3.07,3.07,0,0,1,11,14.06Z"/><g class="cls-5"><path class="cls-6" d="M14.05,11.2l5.37.35h.31a8.79,8.79,0,0,0-.56-3.66l-5.31,2A3.07,3.07,0,0,1,14.05,11.2Z"/><path class="cls-6" d="M7.95,10.8l-5.37-.35H2.27a8.79,8.79,0,0,0,.56,3.66l5.31-2A3.07,3.07,0,0,1,7.95,10.8Z"/></g><g class="cls-5"><path class="cls-6" d="M13.65,9.46,18.3,6.75l.25-.18A8.8,8.8,0,0,0,16,3.85L12.76,8.5A3.08,3.08,0,0,1,13.65,9.46Z"/><path class="cls-6" d="M8.35,12.54,3.7,15.25l-.25.18A8.81,8.81,0,0,0,6,18.15L9.24,13.5A3.08,3.08,0,0,1,8.35,12.54Z"/></g><path class="cls-7" d="M11,.81A10.19,10.19,0,1,0,21.19,11,10.21,10.21,0,0,0,11,.81Zm0,18.94A8.75,8.75,0,1,1,19.75,11,8.76,8.76,0,0,1,11,19.75Z"/><path class="cls-3" d="M11,7.94A3.06,3.06,0,1,0,14.06,11,3.07,3.07,0,0,0,11,7.94Zm0,5.81A2.75,2.75,0,1,1,13.75,11,2.75,2.75,0,0,1,11,13.75Z"/><path class="cls-7" d="M11,8.25A2.75,2.75,0,1,0,13.75,11,2.75,2.75,0,0,0,11,8.25Zm0,4.15A1.4,1.4,0,1,1,12.4,11,1.4,1.4,0,0,1,11,12.4Z"/><path class="cls-8" d="M12.38,2.55h0V12.5a2.4,2.4,0,0,0-.59-.07c-1,0-1.75.57-1.75,1.27S10.82,15,11.79,15s1.75-.57,1.75-1.27h0V7l6.58-1.35v5a2.41,2.41,0,0,0-.59-.07c-1,0-1.75.57-1.75,1.27s.78,1.27,1.75,1.27,1.75-.57,1.75-1.27h0V.72Zm7.73,2L13.52,5.91v-2l6.58-1.35Z"/><g class="cls-9"><ellipse class="cls-10" cx="11.68" cy="13.26" rx="1.62" ry="1.32"/><ellipse class="cls-11" cx="19.12" cy="11.5" rx="1.62" ry="1.32"/></g></g></svg>