<svg id="其他" xmlns="http://www.w3.org/2000/svg" xmlns:xlink="http://www.w3.org/1999/xlink" viewBox="0 0 22 22"><defs><style>.cls-1{fill:#221e1f;}.cls-2{fill:url(#linear-gradient);}.cls-3{fill:url(#linear-gradient-2);}.cls-4{font-size:1.14px;fill:#bbbdbf;font-family:Arial-Black, Arial;}.cls-5{font-size:0.77px;letter-spacing:0em;}.cls-6{font-size:1.38px;fill:#a6a8ab;font-family:BankGothicBT-Medium, BankGothic Md BT;}.cls-7{fill:#fff;}</style><linearGradient id="linear-gradient" x1="11.03" y1="5.56" x2="11.03" y2="16.71" gradientUnits="userSpaceOnUse"><stop offset="0" stop-color="#6c6e70"/><stop offset="0" stop-color="#67696b"/><stop offset="0" stop-color="#535455"/><stop offset="0" stop-color="#434444"/><stop offset="0" stop-color="#383839"/><stop offset="0" stop-color="#323232"/><stop offset="0" stop-color="#303030"/><stop offset="1" stop-color="#303030"/></linearGradient><linearGradient id="linear-gradient-2" x1="12.6" y1="13.76" x2="12.6" y2="6.49" gradientUnits="userSpaceOnUse"><stop offset="0.01" stop-color="#6c6e70"/><stop offset="0.01" stop-color="#595b5c"/><stop offset="0.01" stop-color="#444546"/><stop offset="0.01" stop-color="#343535"/><stop offset="0.02" stop-color="#29292a"/><stop offset="0.02" stop-color="#232323"/><stop offset="0.03" stop-color="#212121"/><stop offset="1" stop-color="#212121"/></linearGradient></defs><title>画板 25</title><g id="内存卡"><path d="M4.1,17.78,0,15.58V5.08a.86.86,0,0,1,.86-.86H21.14a.86.86,0,0,1,.86.86V7.2l-.07.12a2,2,0,0,0-.27.8l0,.17a3,3,0,0,0,0,.35,2.06,2.06,0,0,0,.25.8l0,.1,0,.09v7.29a.86.86,0,0,1-.86.86Z"/><path class="cls-1" d="M21.35,9.85h0a2.5,2.5,0,0,1-.1-.35v0c0-.08,0-.17,0-.25h0a2.7,2.7,0,0,1-.08-.52v0c0-.08,0-.16,0-.24v0c0-.08,0-.17,0-.25h0V8.06a2.52,2.52,0,0,1,.34-1V6.41a.36.36,0,0,0-.36-.36H.86a.36.36,0,0,0-.36.36v8.87l3.73,2H21.14a.36.36,0,0,0,.36-.36V10.19h0A2.31,2.31,0,0,1,21.35,9.85Z"/><path class="cls-1" d="M21.47,9.69h0a2.51,2.51,0,0,1-.32-1v0h0a2.43,2.43,0,0,1,0-.34V8.22c0-.08,0-.16,0-.24V8c0-.08,0-.16,0-.25h0a2.51,2.51,0,0,1,.36-1V5.08a.36.36,0,0,0-.36-.36H.86a.36.36,0,0,0-.36.36V14.3l3.73,2.08H21.14c.2,0,.36-.07.36-.27V9.75h0Z"/><path class="cls-2" d="M21.22,9.74a2.36,2.36,0,0,1-.15-.31h0v0h0a2.66,2.66,0,0,1-.18-1v-.1c0-.08,0-.16,0-.24V8c0-.08,0-.16,0-.25h0a2.51,2.51,0,0,1,.35-1V5.84a.35.35,0,0,0-.35-.36H1.17a.35.35,0,0,0-.35.36v8.88l3.41,2H20.9a.35.35,0,0,0,.35-.36V9.8h0Z"/><rect class="cls-3" x="5.21" y="6.49" width="14.79" height="7.32" rx="0.43" ry="0.43"/><text class="cls-4" transform="translate(2.1 14.43) scale(0.95 1)">32<tspan class="cls-5" x="1.52" y="0">GB</tspan></text><text class="cls-4" transform="translate(11.34 8.06) scale(0.95 1)">TOTAL 32<tspan class="cls-5" x="6.15" y="0">GB</tspan></text><text class="cls-6" transform="translate(6.87 12.97) scale(0.98 1)">MEMORY</text><text class="cls-6" transform="translate(14.31 12.95) scale(0.98 1)">STICK</text><polygon class="cls-7" points="1.25 13.99 1.51 13.78 1.77 13.56 1.77 13.99 1.77 14.42 1.51 14.21 1.25 13.99"/><path class="cls-7" d="M2.88,6.6A1.46,1.46,0,1,0,4.34,8.06,1.46,1.46,0,0,0,2.88,6.6Zm.5.4a.19.19,0,1,1-.2.19A.2.2,0,0,1,3.38,7ZM1.89,8.25a.19.19,0,1,1,.2-.19A.19.19,0,0,1,1.89,8.25Zm.15,0a.27.27,0,0,0,0-.45,1.11,1.11,0,0,1,.38-.48l.14.24A.55.55,0,0,0,2.31,8a.6.6,0,0,0,.24.48l-.14.24A1,1,0,0,1,2,8.29Zm.73-.59.11-.11h0l0,.14,0,.1-.07.1L2.9,8,3,8.07l0,0,.06,0,.06-.09.1,0L3.3,8h0L3.23,8h0l-.08.05v.11l0,.09-.08.08v.07H3L3,8.29l0,0H3l-.09.07h0v0H2.81l.07-.07L3,8.21l-.06,0-.06,0-.08,0H2.67l0,.07v.1H2.5l0,0,0,0,0-.06,0-.11L2.48,8l.06-.1,0-.09.09-.06h0l.1-.11h0l0,.07Zm.6,1.42a.19.19,0,1,1,.2-.19A.2.2,0,0,1,3.38,9.11Zm.09-.45a.23.23,0,0,0-.12,0,.25.25,0,0,0-.24.23.84.84,0,0,1-.61-.06l.13-.24a.68.68,0,0,0,.54,0,.66.66,0,0,0,.26-.43h.29A.83.83,0,0,1,3.47,8.66Zm0-.66a.58.58,0,0,0-.81-.46L2.51,7.3a.84.84,0,0,1,.6-.06.3.3,0,0,0,.14.19.28.28,0,0,0,.23,0A.81.81,0,0,1,3.73,8Z"/></g></svg>