<svg xmlns="http://www.w3.org/2000/svg" xmlns:xlink="http://www.w3.org/1999/xlink" viewBox="0 0 22 22"><defs><style>.cls-1{fill:#040000;}.cls-2{fill:url(#linear-gradient);}.cls-3{fill:url(#linear-gradient-2);}.cls-4{fill:#1c2938;}.cls-5{fill:#090c0f;}.cls-6{fill:#ececde;}.cls-7{fill:url(#linear-gradient-3);}.cls-12,.cls-8{fill:none;stroke-miterlimit:10;stroke-width:0.5px;}.cls-8{stroke:#000;}.cls-9{fill:#bdbdb2;}.cls-10{fill:#fff;}.cls-11{fill:#8f9396;}.cls-12{stroke:#8f9396;}</style><linearGradient id="linear-gradient" x1="11" y1="10.96" x2="11" y2="4.81" gradientUnits="userSpaceOnUse"><stop offset="0" stop-color="#455a64"/><stop offset="1" stop-color="#607d8b"/></linearGradient><linearGradient id="linear-gradient-2" x1="11" y1="17.11" x2="11" y2="10.96" gradientUnits="userSpaceOnUse"><stop offset="0" stop-color="#1a1a1a"/><stop offset="1" stop-color="#263238"/></linearGradient><linearGradient id="linear-gradient-3" x1="19.51" y1="13.44" x2="19.58" y2="11.03" gradientUnits="userSpaceOnUse"><stop offset="0.24" stop-color="#689f38"/><stop offset="0.94" stop-color="#8bc34a"/></linearGradient></defs><title>画板 25</title><g id="开始菜单应用图标"><g id="打印机"><g id="_22" data-name="22"><polygon class="cls-1" points="17.46 4.81 17.46 2.79 15.09 0.5 4.54 0.5 4.54 4.81 0.85 4.81 0.85 10.96 0.85 17.11 3.62 17.11 3.62 21.5 18.38 21.5 18.38 17.11 21.15 17.11 21.15 10.96 21.15 4.81 17.46 4.81"/><rect class="cls-2" x="0.85" y="4.81" width="20.3" height="6.15"/><rect class="cls-3" x="0.85" y="10.96" width="20.3" height="6.15"/><rect class="cls-4" x="3.62" y="6.96" width="14.77" height="1.85"/><rect class="cls-4" x="3.62" y="13.5" width="14.77" height="8"/><rect class="cls-5" x="3.62" y="13.5" width="14.77" height="0.8"/><rect class="cls-6" x="4.54" y="14.3" width="12.92" height="6.15"/><circle class="cls-7" cx="19.54" cy="12.5" r="1.04"/><polygon class="cls-8" points="0.85 4.81 0.85 10.96 0.85 17.11 3.62 17.11 3.62 21.5 18.38 21.5 18.38 17.11 21.15 17.11 21.15 10.96 21.15 4.81 0.85 4.81"/><polygon class="cls-6" points="15.09 2.67 15.09 0.5 4.54 0.5 4.54 7.88 17.46 7.88 17.46 2.79 17.33 2.67 15.09 2.67"/><polygon class="cls-9" points="17.46 5.24 15.09 2.78 15.17 1.3 17.46 2.79 17.46 5.24"/><polygon class="cls-10" points="17.46 2.78 15.09 0.5 15.09 2.78 17.46 2.78"/><rect class="cls-11" x="6.08" y="2.35" width="8" height="0.62"/><rect class="cls-11" x="6.08" y="4.19" width="8" height="0.62"/><rect class="cls-11" x="6.08" y="6.04" width="8" height="0.62"/><polygon class="cls-12" points="15.09 0.5 4.54 0.5 4.54 7.88 17.46 7.88 17.46 5.24 17.46 2.79 15.09 0.5"/></g></g></g></svg>