<?xml version="1.0" encoding="utf-8"?>
<!-- Generator: Adobe Illustrator 24.0.0, SVG Export Plug-In . SVG Version: 6.00 Build 0)  -->
<svg version="1.1" id="图层_1" xmlns="http://www.w3.org/2000/svg" xmlns:xlink="http://www.w3.org/1999/xlink" x="0px" y="0px"
	 viewBox="0 0 16 16" style="enable-background:new 0 0 16 16;" xml:space="preserve">
<style type="text/css">
	.st0{opacity:0.75;fill:#202020;}
</style>
<path class="st0" d="M12.4,4.7c-0.2-0.4-0.7-0.8-1.4-1.3V1.8c0.3-0.2,0.5-0.5,0.5-0.8c0-0.5-0.3-0.9-0.8-1c-0.1,0-0.1,0-0.2,0
	s-0.1,0-0.2,0C9.9,0.1,9.6,0.4,9.5,0.8l-2,1.4c-0.1,0-0.3-0.1-0.4-0.1C5.5,1.8,5,2.2,4.8,2.6c0,0.1,0,0.1-0.1,0.2l-1.7,8.4
	c-0.2,1.2,0.5,2.5,1.6,2.9l0.6,0.2c0.3,0.1,0.6,0.2,1,0.2c0.9,0,1.7-0.5,2.2-1.3l1.6-3V15H9.5C9.2,15,9,15.2,9,15.5S9.2,16,9.5,16h2
	c0.3,0,0.5-0.2,0.5-0.5S11.8,15,11.5,15H11V8.3l1.4-2.7c0,0,0,0,0,0c0,0,0,0,0,0C12.5,5.3,12.6,5,12.4,4.7z M11.5,5.1L11.5,5.1
	c-0.1,0-0.2,0.1-0.5,0.1V4.6C11.4,4.9,11.5,5.1,11.5,5.1z M8.5,10.9c-0.6,0-1.4-0.2-2-0.5c-0.7-0.3-1.5-0.7-2-1l0.4-2.2
	c0.5,0.4,1.3,0.9,2.2,1.2C8,8.8,8.9,8.9,9.5,8.9L8.5,10.9z M5.5,4.2C6.1,4.6,7,5,8.1,5.5C8.8,5.7,9.5,5.9,10,6v1.9c0,0-0.1,0-0.1,0
	C9,7.9,8.1,7.8,7.5,7.5C6.8,7.3,5.9,6.8,5.2,6.2c0,0-0.1,0-0.1,0L5.5,4.2z M9.6,1.4C9.7,1.6,9.8,1.7,10,1.8V3
	C9.7,2.9,9.5,2.7,9.2,2.6l-0.1,0C8.8,2.5,8.6,2.5,8.4,2.4c-0.1,0-0.1,0-0.2-0.1L9.6,1.4z M6.9,3.1c0.4,0.1,0.7,0.2,1.2,0.3
	c0.2,0.1,0.5,0.1,0.8,0.2C9.3,3.8,9.7,3.9,10,4.1V5C9.6,4.9,9.1,4.8,8.5,4.5C6.4,3.8,5.9,3.2,5.8,3C6,3,6.3,3,6.9,3.1z M5.7,13.3
	l-0.6-0.2c-0.7-0.2-1.1-1-1-1.7l0.2-0.9c0.6,0.3,1.3,0.7,1.9,0.9c0.2,0.1,1,0.3,1.9,0.5l-0.4,0.8C7.2,13.4,6.4,13.6,5.7,13.3z"/>
</svg>
