<?xml version="1.0" encoding="utf-8"?>
<!-- Generator: Adobe Illustrator 24.0.0, SVG Export Plug-In . SVG Version: 6.00 Build 0)  -->
<svg version="1.1" id="图层_1" xmlns="http://www.w3.org/2000/svg" xmlns:xlink="http://www.w3.org/1999/xlink" x="0px" y="0px"
	 viewBox="0 0 16 16" style="enable-background:new 0 0 16 16;" xml:space="preserve">
<style type="text/css">
	.st0{opacity:0.75;fill:#202020;}
</style>
<path class="st0" d="M15.5,15H15V2.9c0.6-0.2,1-0.8,1-1.4C16,0.7,15.3,0,14.5,0S13,0.7,13,1.5c0,0.7,0.4,1.2,1,1.4v2.8l-2-1.2
	c0-0.2,0-0.4-0.1-0.6c-0.1-0.4-0.4-1.7-1.2-1.9c0,0-0.1,0-0.1,0c0,0,0,0-0.1,0c0,0,0,0,0,0c0,0,0,0,0,0L2.1,3.2C0.9,3.5,0,4.5,0,5.7
	v0.6c0,1.2,0.9,2.2,2.1,2.5l8.3,1.2c0,0,0,0,0.1,0c0,0,0,0,0,0c0,0,0,0,0,0c0,0,0,0,0,0c0.1,0,0.1,0,0.2,0c0.8-0.2,1.1-1.2,1.2-2.4
	L14,6.3V15h-0.5c-0.3,0-0.5,0.2-0.5,0.5s0.2,0.5,0.5,0.5h2c0.3,0,0.5-0.2,0.5-0.5S15.8,15,15.5,15z M4.2,8.1C4.1,7.5,4,6.6,4,6
	c0-0.6,0.1-1.5,0.2-2.1l2.2-0.3C6.2,4.3,6,5.2,6,6s0.2,1.7,0.4,2.4L4.2,8.1z M7.5,8.4C7.2,7.8,7,6.8,7,6c0-0.8,0.2-1.8,0.5-2.4
	c0-0.1,0-0.1,0-0.2l1.8-0.3C9.1,4,9,5.1,9,6c0,0.9,0.1,2,0.3,2.8L7.5,8.6C7.5,8.5,7.5,8.5,7.5,8.4z M1,6.3V5.7C1,5,1.5,4.3,2.3,4.2
	l0.9-0.1C3,4.7,3,5.5,3,6c0,0.5,0,1.3,0.2,1.9L2.3,7.8C1.5,7.7,1,7,1,6.3z M10.5,9L10.5,9C10.4,8.9,10,8.5,10,6c0-2.5,0.4-2.9,0.5-3
	l0,0c0,0,0.2,0.2,0.4,1.1C11,4.5,11,5.2,11,6C11,8.6,10.6,9,10.5,9z M12,6.9c0-0.3,0-0.6,0-0.9c0-0.3,0-0.6,0-0.9L13.5,6L12,6.9z"/>
</svg>
