<?xml version="1.0" encoding="utf-8"?>
<!-- Generator: Adobe Illustrator 24.0.0, SVG Export Plug-In . SVG Version: 6.00 Build 0)  -->
<svg version="1.1" id="图层_2_1_" xmlns="http://www.w3.org/2000/svg" xmlns:xlink="http://www.w3.org/1999/xlink" x="0px"
	 y="0px" viewBox="0 0 16 16" style="enable-background:new 0 0 16 16;" xml:space="preserve">
<style type="text/css">
	.st0{opacity:0.75;}
	.st1{fill:#1F2022;}
</style>
<g class="st0">
	<path class="st1" d="M7.8,6c0,0-1.5,2.3-1.5,3.3c0,2.3,3,2.3,3,0C9.3,8.3,7.8,6,7.8,6z"/>
	<path class="st1" d="M0.9,12.6c0,1.8,2.5,1.8,2.5,0c0-0.7-1.2-2.6-1.2-2.6S0.9,11.8,0.9,12.6z"/>
	<path class="st1" d="M4.9,14.6c0,1.8,2.5,1.8,2.5,0c0-0.7-1.2-2.6-1.2-2.6S4.9,13.8,4.9,14.6z"/>
	<path class="st1" d="M8.9,14.6c0,1.8,2.5,1.8,2.5,0c0-0.7-1.2-2.6-1.2-2.6S8.9,13.8,8.9,14.6z"/>
	<path class="st1" d="M12.7,12.6c0,1.8,2.5,1.8,2.5,0C15.3,11.9,14,10,14,10S12.7,11.8,12.7,12.6z"/>
	<path class="st1" d="M16,6.5c0-1.4-0.9-2.6-2.3-3.2C13.3,1.4,11.6,0,9.5,0C7.8,0,6.4,0.9,5.6,2.3C5.1,2,4.5,1.9,3.9,1.9
		C1.8,1.9,0,3.7,0,5.8c0,2.1,1.8,3.9,3.9,3.9c0.3,0,0.5-0.2,0.5-0.5S4.2,8.7,3.9,8.7C2.3,8.7,1,7.4,1,5.8c0-1.6,1.3-2.9,2.9-2.9
		c0.6,0,1.2,0.2,1.6,0.5c0,0,0,0,0.1,0c0,0,0,0,0.1,0c0,0,0,0,0,0c0,0,0.1,0,0.1,0c0,0,0.1,0,0.1,0c0,0,0.1,0,0.1,0c0,0,0.1,0,0.1,0
		c0,0,0.1,0,0.1-0.1c0,0,0.1,0,0.1-0.1c0,0,0,0,0,0c0,0,0,0,0-0.1c0,0,0,0,0-0.1C6.8,1.8,8,1,9.5,1c1.7,0,3,1.1,3.3,2.8
		c0,0,0,0.1,0,0.1c0,0,0,0,0,0.1C12.9,4,12.9,4,13,4.1c0,0,0,0,0,0c0,0,0.1,0.1,0.1,0.1c0,0,0,0,0,0C14.3,4.5,15,5.4,15,6.5
		c0,1.4-1.1,2.6-2.5,2.6c-0.3,0-0.5,0.2-0.5,0.5s0.2,0.5,0.5,0.5C14.4,10.1,16,8.5,16,6.5z"/>
</g>
</svg>
