<?xml version="1.0" encoding="utf-8"?>
<!-- Generator: Adobe Illustrator 24.0.0, SVG Export Plug-In . SVG Version: 6.00 Build 0)  -->
<svg version="1.1" id="图层_2_1_" xmlns="http://www.w3.org/2000/svg" xmlns:xlink="http://www.w3.org/1999/xlink" x="0px"
	 y="0px" viewBox="0 0 16 16" style="enable-background:new 0 0 16 16;" xml:space="preserve">
<style type="text/css">
	.st0{opacity:0.75;}
	.st1{fill:#1F2022;}
</style>
<g class="st0">
	<path class="st1" d="M3.5,10C4,10,4.6,9.9,5.1,9.6C6,10.5,7.2,11,8.5,11c1.1,0,2.2-0.4,3.1-1.2c0.3,0.1,0.6,0.2,0.9,0.2
		c2,0,3.5-1.5,3.5-3.5c0-2-1.5-3.5-3.5-3.5h-0.1c-0.9-1.3-2.4-2-3.9-2C6.9,1,5.4,1.8,4.4,3.1C4.1,3.1,3.8,3,3.5,3C1.5,3,0,4.5,0,6.5
		C0,8.5,1.5,10,3.5,10z M3.5,4c0.3,0,0.6,0.1,0.9,0.2c0,0,0.1,0,0.1,0c0,0,0,0,0,0c0,0,0,0,0,0c0.1,0,0.2,0,0.2-0.1c0,0,0,0,0,0
		C4.9,4.1,5,4,5,4c0,0,0,0,0,0c0.8-1.2,2-2,3.5-2c1.2,0,2.3,0.5,3,1.4c0,0,0,0.1,0,0.1C11.5,3.8,11.7,4,12,4h0.5
		C13.9,4,15,5.1,15,6.5S13.9,9,12.5,9c-0.2,0-0.5-0.1-0.8-0.2c0,0,0,0-0.1,0c0,0-0.1,0-0.1,0c0,0-0.1,0-0.1,0c0,0-0.1,0-0.1,0
		c0,0-0.1,0-0.1,0.1c0,0,0,0,0,0C10.4,9.6,9.4,10,8.5,10c-1.1,0-2.2-0.5-2.9-1.3c0,0,0,0,0,0c0,0-0.1,0-0.1-0.1c0,0-0.1,0-0.1,0
		c0,0-0.1,0-0.1,0c0,0-0.1,0-0.1,0c0,0-0.1,0-0.1,0c0,0-0.1,0-0.1,0c0,0,0,0-0.1,0C4.5,8.8,4,9,3.5,9C2.1,9,1,7.9,1,6.5S2.1,4,3.5,4
		z"/>
	<path class="st1" d="M2,14c0,1.4,2,1.4,2,0c0-0.6-1-2-1-2S2,13.4,2,14z"/>
	<path class="st1" d="M7,15c0,1.4,2,1.4,2,0c0-0.6-1-2-1-2S7,14.4,7,15z"/>
	<path class="st1" d="M12,14c0,1.4,2,1.4,2,0c0-0.6-1-2-1-2S12,13.4,12,14z"/>
	<path class="st1" d="M5.5,12C5.2,12,5,12.2,5,12.5v2C5,14.8,5.2,15,5.5,15S6,14.8,6,14.5v-2C6,12.2,5.8,12,5.5,12z"/>
	<path class="st1" d="M10.5,12c-0.3,0-0.5,0.2-0.5,0.5v2c0,0.3,0.2,0.5,0.5,0.5s0.5-0.2,0.5-0.5v-2C11,12.2,10.8,12,10.5,12z"/>
	<path class="st1" d="M2,10.5C2,10.2,1.8,10,1.5,10S1,10.2,1,10.5v2C1,12.8,1.2,13,1.5,13S2,12.8,2,12.5V10.5z"/>
	<path class="st1" d="M14.5,10c-0.3,0-0.5,0.2-0.5,0.5v2c0,0.3,0.2,0.5,0.5,0.5s0.5-0.2,0.5-0.5v-2C15,10.2,14.8,10,14.5,10z"/>
</g>
</svg>
