<?xml version="1.0" encoding="utf-8"?>
<!-- Generator: Adobe Illustrator 24.0.0, SVG Export Plug-In . SVG Version: 6.00 Build 0)  -->
<svg version="1.1" id="图层_1" xmlns="http://www.w3.org/2000/svg" xmlns:xlink="http://www.w3.org/1999/xlink" x="0px" y="0px"
	 viewBox="0 0 16 16" style="enable-background:new 0 0 16 16;" xml:space="preserve">
<style type="text/css">
	.st0{opacity:0.75;}
	.st1{fill:#1F2022;}
</style>
<g class="st0">
	<path class="st1" d="M10.4,10.4c-0.1,0-0.2,0-0.3,0c-0.1,0-0.2,0.1-0.3,0.2l-1.5,1.3l0.4-2c0-0.1,0-0.1,0-0.2c0-0.1,0-0.1,0-0.2
		s0-0.2-0.1-0.3C8.5,9.1,8.4,9,8.2,9C8.1,9,8,9.1,7.9,9C7.8,9.2,7.8,9.3,7.8,9.4c0,0.1,0,0.1,0,0.2c0,0,0,0.1,0,0.2l0.3,2l-1.5-1.3
		c-0.1-0.1-0.2-0.1-0.3-0.2c-0.1-0.1-0.2-0.1-0.3-0.1s-0.2,0-0.3,0.1c-0.1,0.1-0.1,0.2-0.1,0.4s0,0.3,0.2,0.4
		c0.2,0.1,0.4,0.2,0.6,0.3L8,12l-1.6,0.7C6,12.8,5.8,12.9,5.7,13c-0.1,0.1-0.1,0.2-0.1,0.3c0,0.2,0,0.3,0.1,0.4
		c0.1,0.1,0.2,0.1,0.3,0.1s0.1,0,0.2-0.1c0.1-0.1,0.2-0.1,0.3-0.2L8,12.2l-0.4,2c0,0.1,0,0.1,0,0.2c0,0.1,0,0.1,0,0.2
		c0,0.2,0.1,0.3,0.2,0.4c0.1,0.1,0.2,0.1,0.3,0.1c0.1,0,0.2,0,0.3-0.1c0.1-0.1,0.1-0.2,0.1-0.4c0-0.1,0-0.1,0-0.2c0-0.1,0-0.2,0-0.3
		l-0.3-2l1.5,1.3c0.1,0.1,0.2,0.1,0.3,0.2c0.1,0.1,0.2,0.1,0.3,0.1c0.1,0,0.2,0,0.3,0c0.1,0,0.1-0.1,0.1-0.4c0-0.1,0-0.2-0.1-0.3
		c-0.1-0.1-0.3-0.2-0.7-0.4L8.3,12l1.6-0.6c0.4-0.1,0.7-0.2,0.8-0.3c0.1-0.1,0.1-0.2,0.1-0.3c0-0.1,0-0.2-0.1-0.3
		C10.6,10.4,10.5,10.4,10.4,10.4z"/>
	<path class="st1" d="M13.7,4.3C13.2,2.3,11.6,1,9.5,1C7.8,1,6.4,1.9,5.6,3.3C5.1,3,4.5,2.9,3.9,2.9C1.8,2.9,0,4.7,0,6.8
		c0,2.1,1.8,3.9,3.9,3.9c0.3,0,0.5-0.2,0.5-0.5S4.2,9.7,3.9,9.7C2.3,9.7,1,8.4,1,6.8c0-1.6,1.3-2.9,2.9-2.9c0.6,0,1.2,0.2,1.6,0.5
		c0,0,0,0,0.1,0c0,0,0,0,0.1,0c0,0,0,0,0,0c0,0,0.1,0,0.1,0c0,0,0.1,0,0.1,0c0,0,0.1,0,0.1,0c0,0,0.1,0,0.1,0c0,0,0.1,0,0.1-0.1
		c0,0,0.1,0,0.1-0.1c0,0,0,0,0,0c0,0,0,0,0-0.1c0,0,0,0,0-0.1C6.8,2.8,8,2,9.5,2c1.7,0,3,1.1,3.3,2.8c0,0.2,0.3,0.4,0.5,0.4
		c0,0,0,0,0,0C14.4,5.6,15,6.4,15,7.5c0,1.4-1.1,2.6-2.5,2.6c-0.3,0-0.5,0.2-0.5,0.5s0.2,0.5,0.5,0.5c1.9,0,3.5-1.6,3.5-3.6
		C16,6,15.1,4.8,13.7,4.3z"/>
</g>
</svg>
