<?xml version="1.0" encoding="utf-8"?>
<!-- Generator: Adobe Illustrator 24.0.0, SVG Export Plug-In . SVG Version: 6.00 Build 0)  -->
<svg version="1.1" id="图层_1" xmlns="http://www.w3.org/2000/svg" xmlns:xlink="http://www.w3.org/1999/xlink" x="0px" y="0px"
	 viewBox="0 0 16 16" style="enable-background:new 0 0 16 16;" xml:space="preserve">
<style type="text/css">
	.st0{opacity:0.75;}
	.st1{fill:#1F2022;}
</style>
<g class="st0">
	<path class="st1" d="M15,13c0.1,0,0.1-0.1,0.1-0.2c0-0.1,0-0.2-0.1-0.3c0-0.1-0.1-0.1-0.2-0.1c-0.1,0-0.1,0-0.2,0
		c-0.1,0-0.2,0.1-0.3,0.2l-1.1,1l1.2-0.5C14.7,13,14.9,12.9,15,13z"/>
	<path class="st1" d="M14.6,14.8c0.1,0.1,0.1,0.1,0.2,0.1c0.1,0,0.1,0,0.2,0s0.1-0.1,0.1-0.3c0-0.1-0.1-0.1-0.1-0.2
		c-0.1-0.1-0.3-0.2-0.6-0.3l-1.2-0.5l1.1,1C14.4,14.7,14.5,14.8,14.6,14.8z"/>
	<path class="st1" d="M13.5,11.9c0-0.1,0-0.2,0-0.2c0-0.1-0.1-0.2-0.1-0.3c-0.1-0.1-0.2-0.1-0.3-0.1c-0.1,0-0.2,0-0.3,0.1
		c-0.1,0.1-0.1,0.2-0.1,0.3v0.1c0,0.1,0,0.1,0,0.2l0.3,1.4l-1.1-1c0-0.1-0.1-0.2-0.2-0.2c0-0.1-0.1-0.1-0.2-0.1s-0.1,0-0.2,0.1
		c-0.1,0.1-0.1,0.2-0.1,0.3s0.1,0.2,0.2,0.3c0.1,0.1,0.2,0.1,0.4,0.2l1.2,0.5L11.8,14c-0.3,0.1-0.4,0.2-0.5,0.3
		c-0.1,0.1-0.1,0.2-0.1,0.3c0,0.2,0,0.3,0.1,0.3c0.1,0.1,0.1,0.1,0.2,0.1c0,0,0.1-0.1,0.2-0.1c0,0,0.1-0.1,0.2-0.1l1.1-1l-0.3,1.5
		c0,0.1,0,0.2,0,0.2v0.1c0,0.1,0,0.3,0.1,0.3c0,0.1,0.1,0.1,0.2,0.1s0.2,0,0.4-0.3c0.1,0,0.1-0.2,0.1-0.3c0,0,0,0,0-0.1
		c0-0.1,0-0.1,0-0.2l-0.3-1.5l0.3-1.5C13.5,12,13.5,12,13.5,11.9z"/>
	<path class="st1" d="M3.5,11.9c0-0.1,0-0.2,0-0.2c0-0.1-0.1-0.2-0.1-0.3c-0.1-0.1-0.2-0.1-0.3-0.1c-0.1,0-0.2,0-0.3,0.1
		c-0.1,0.1-0.1,0.2-0.1,0.3v0.1c0,0.1,0,0.1,0,0.2l0.1,1.5L1.6,14c-0.3,0.1-0.4,0.2-0.5,0.3C1,14.4,1,14.5,1,14.6
		c0,0.2,0,0.3,0.3,0.3C1.4,15,1.5,15,1.5,15s0.1-0.1,0.2-0.1c0,0,0.1-0.1,0.2-0.1l1.1-1l-0.3,1.5c0,0.1,0,0.2,0,0.2v0.1
		c0,0.1,0,0.3,0.1,0.3C2.8,16,2.9,16,3,16s0.2,0,0.3-0.3c0.1,0,0.1-0.2,0.1-0.3c0,0,0,0,0-0.1c0-0.1,0-0.1,0-0.2l-0.3-1.5l1.1,1
		c0.1,0.1,0.2,0.2,0.3,0.2c0.1,0.1,0.1,0.1,0.2,0.1c0.1,0,0.1,0,0.2,0C5,14.9,5,14.8,5,14.6c0-0.1,0-0.1,0-0.2
		c-0.1-0.1-0.3-0.2-0.6-0.3l-1.2-0.5l0.3-1.5C3.5,12,3.5,12,3.5,11.9z"/>
	<path class="st1" d="M1.5,12.3c0-0.1-0.1-0.1-0.2-0.1c-0.1,0-0.1,0-0.2,0.1C1,12.4,1,12.5,1,12.6c0,0.2,0.1,0.3,0.2,0.2
		c0.1,0.1,0.2,0.1,0.4,0.2l1.2,0.5l-1.1-1C1.7,12.4,1.5,12.4,1.5,12.3z"/>
	<path class="st1" d="M4.8,12.4c-0.1,0-0.1,0-0.2,0c-0.1,0-0.2,0.1-0.3,0.2l-1.1,1l1.2-0.5c0.3-0.1,0.5-0.2,0.5-0.3
		C5,12.8,5,12.7,5,12.6c0,0,0-0.1,0-0.1C5,12.4,4.9,12.4,4.8,12.4z"/>
	<polygon class="st1" points="7.8,10 7.8,10 7.7,10 	"/>
	<path class="st1" d="M6.5,8.8c0-0.1-0.1-0.1-0.2-0.1c-0.1,0-0.1,0-0.2,0.1C6,8.9,6,9,6,9.1c0,0.1,0.1,0.2,0.2,0.3
		c0.1,0,0.3,0.1,0.4,0.2L7.7,10l-1-1C6.7,8.9,6.6,8.8,6.5,8.8z"/>
	<path class="st1" d="M9.9,9.3C10,9.3,10,9.2,10,9.1C10,9,9.9,8.9,9.9,8.8c0-0.1-0.1-0.1-0.2-0.1c-0.1,0-0.1,0-0.2,0
		S9.3,8.8,9.2,8.9l-1.1,1l0.3-1.4c0-0.1,0-0.1,0-0.2c0-0.1,0-0.2,0-0.2c0-0.1-0.1-0.2-0.1-0.3C8.2,7.7,8.1,7.7,8,7.7s-0.2,0-0.2,0.1
		C7.7,7.9,7.7,8,7.7,8.1v0.1c0,0.1,0,0.1,0,0.2L7.8,10l0.1,0l-1.3,0.4c-0.3,0.1-0.4,0.2-0.5,0.3C6,10.8,6,10.9,6,11
		c0,0.2,0,0.3,0.3,0.1c0.1,0.1,0.2,0.1,0.2,0.1s0.1-0.1,0.2-0.1c0,0,0.1-0.1,0.2-0.1L8,10l-0.3,1.5c0,0.1,0,0.2,0,0.2v0.1
		c0,0.1,0,0.3,0.1,0.3c0,0.1,0.1,0.1,0.2,0.1s0.2,0,0.3-0.1c0.1,0,0.1-0.2,0.1-0.3c0,0,0,0,0-0.1c0-0.1,0-0.1,0-0.2L8.1,10l1.3-0.4
		C9.7,9.4,9.9,9.4,9.9,9.3z"/>
	<path class="st1" d="M9.5,11.2c0.1,0.1,0.1,0.1,0.2,0.1c0.1,0,0.1,0,0.2,0c0.1,0,0.1-0.1,0.1-0.3c0,0,0-0.1-0.1-0.2
		c-0.1-0.1-0.3-0.2-0.6-0.3L8.1,10l1.1,1C9.3,11.1,9.4,11.2,9.5,11.2z"/>
	<circle class="st1" cx="4.5" cy="10.5" r="0.5"/>
	<circle class="st1" cx="11.5" cy="10.5" r="0.5"/>
	<circle class="st1" cx="6.5" cy="13.5" r="0.5"/>
	<circle class="st1" cx="9.5" cy="13.5" r="0.5"/>
	<circle class="st1" cx="8" cy="15.5" r="0.5"/>
	<path class="st1" d="M5.9,3.5C6,3.5,6,3.5,5.9,3.5c0.1,0,0.1-0.1,0.2-0.1c0,0,0.1,0,0.1-0.1c0,0,0,0,0,0c0,0,0,0,0-0.1
		c0,0,0,0,0-0.1C6.8,1.8,8,1,9.5,1c1.6,0,2.8,1,3.2,2.4c0,0.1,0,0.3,0.1,0.4c0.1,0.2,0.3,0.4,0.5,0.4c0,0,0.1,0,0.1,0
		c0,0,0.1,0,0.1,0C14.4,4.6,15,5.5,15,6.5c0,1.4-1.1,2.6-2.5,2.6c-0.3,0-0.5,0.2-0.5,0.5s0.2,0.5,0.5,0.5c1.9,0,3.5-1.6,3.5-3.6
		c0-1.5-0.9-2.8-2.3-3.3C13.2,1.3,11.5,0,9.5,0C7.8,0,6.4,0.9,5.6,2.3C5.1,2,4.5,1.9,3.9,1.9C1.8,1.9,0,3.7,0,5.8
		c0,2.1,1.8,3.9,3.9,3.9c0.3,0,0.5-0.2,0.5-0.5S4.2,8.7,3.9,8.7C2.3,8.7,1,7.4,1,5.8c0-1.6,1.3-2.9,2.9-2.9c0.6,0,1.2,0.2,1.6,0.5
		c0,0,0,0,0.1,0c0,0,0,0,0.1,0c0,0,0,0,0,0c0,0,0.1,0,0.1,0C5.8,3.5,5.8,3.5,5.9,3.5C5.9,3.5,5.9,3.5,5.9,3.5z"/>
</g>
</svg>
