<?xml version="1.0" encoding="utf-8"?>
<!-- Generator: Adobe Illustrator 24.0.0, SVG Export Plug-In . SVG Version: 6.00 Build 0)  -->
<svg version="1.1" id="图层_1" xmlns="http://www.w3.org/2000/svg" xmlns:xlink="http://www.w3.org/1999/xlink" x="0px" y="0px"
	 viewBox="0 0 16 16" style="enable-background:new 0 0 16 16;" xml:space="preserve">
<style type="text/css">
	.st0{opacity:0.75;fill:#1F2022;enable-background:new    ;}
</style>
<path class="st0" d="M11.5,6.3L14,7.5c0.1,0,0.1,0,0.2,0c0.2,0,0.4-0.1,0.5-0.3c0.1-0.2,0-0.5-0.2-0.7l-1.8-0.9l1.6-0.9
	c0.2-0.1,0.3-0.4,0.2-0.7S14,3.7,13.8,3.9l-1.7,0.9l0.2-2c0-0.3-0.2-0.5-0.4-0.5c-0.3,0-0.5,0.2-0.5,0.4L11,5.4L8,7.1V3.7l2.2-1.6
	c0.2-0.2,0.3-0.5,0.1-0.7S9.8,1.1,9.6,1.3L8,2.4V0.5C8,0.2,7.8,0,7.5,0S7,0.2,7,0.5v1.9L5.4,1.3C5.2,1.1,4.9,1.2,4.7,1.4
	S4.6,1.9,4.8,2.1L7,3.7v3.5L4.1,5.3L3.8,2.6c0-0.3-0.3-0.5-0.5-0.4C3,2.2,2.8,2.5,2.8,2.8L3,4.7l-1.6-1C1.1,3.5,0.8,3.6,0.7,3.8
	C0.5,4.1,0.6,4.4,0.8,4.5l1.7,1L0.7,6.3C0.4,6.5,0.3,6.8,0.4,7s0.3,0.3,0.5,0.3c0.1,0,0.1,0,0.2,0l2.4-1.1l3,1.8l-3,1.7L1,8.5
	c-0.2-0.1-0.5,0-0.7,0.2C0.2,9,0.3,9.3,0.6,9.5l1.8,0.9l-1.7,0.9c-0.2,0.1-0.3,0.4-0.2,0.7c0.1,0.2,0.3,0.3,0.4,0.3s0.2,0,0.2-0.1
	l1.7-0.9l-0.2,2c0,0.3,0.2,0.5,0.4,0.5c0,0,0,0,0.1,0c0.3,0,0.5-0.2,0.5-0.4L4,10.6l3-1.7v3.5L4.8,14c-0.2,0.2-0.3,0.5-0.1,0.7
	c0.1,0.1,0.3,0.2,0.4,0.2s0.2,0,0.3-0.1L7,13.6v1.9C7,15.8,7.2,16,7.5,16S8,15.8,8,15.5v-1.9l1.6,1.1c0.2,0.2,0.5,0.1,0.7-0.1
	c0.2-0.2,0.1-0.5-0.1-0.7L8,12.3V8.9l2.9,1.8l0.3,2.7c0,0.3,0.2,0.4,0.5,0.4c0,0,0,0,0.1,0c0.3,0,0.5-0.3,0.4-0.5l-0.2-2l1.6,1
	c0.1,0,0.2,0.1,0.3,0.1c0.2,0,0.3-0.1,0.4-0.2c0.1-0.2,0.1-0.5-0.2-0.7l-1.7-1l1.8-0.8c0.3-0.1,0.4-0.4,0.3-0.7
	c-0.1-0.3-0.4-0.4-0.7-0.3l-2.4,1.1L8.5,8L11.5,6.3z"/>
</svg>
