<?xml version="1.0" encoding="utf-8"?>
<!-- Generator: Adobe Illustrator 24.0.0, SVG Export Plug-In . SVG Version: 6.00 Build 0)  -->
<svg version="1.1" id="图层_1" xmlns="http://www.w3.org/2000/svg" xmlns:xlink="http://www.w3.org/1999/xlink" x="0px" y="0px"
	 viewBox="0 0 16 16" style="enable-background:new 0 0 16 16;" xml:space="preserve">
<style type="text/css">
	.st0{opacity:0.75;}
	.st1{fill:#1F2022;}
</style>
<g id="图层_3" class="st0">
	<path class="st1" d="M12,5c-1.9,0-3.5,1-3.9,2.3C7.7,6,6.1,5,4.1,5C1.8,5,0,6.3,0,8s1.8,3,4.1,3c2,0,3.6-1,4-2.3
		C8.5,10,10.1,11,12,11c2.2,0,4-1.3,4-3S14.2,5,12,5z M4.1,10C2.4,10,1,9.1,1,8s1.4-2,3.1-2c1.7,0,3.1,0.9,3.1,2S5.8,10,4.1,10z
		 M12,10c-1.6,0-3-0.9-3-2s1.4-2,3-2s3,0.9,3,2S13.6,10,12,10z"/>
	<circle class="st1" cx="2" cy="2" r="1"/>
	<circle class="st1" cx="14" cy="2" r="1"/>
	<circle class="st1" cx="2" cy="14" r="1"/>
	<circle class="st1" cx="14" cy="14" r="1"/>
	<circle class="st1" cx="6" cy="13" r="1"/>
	<circle class="st1" cx="10" cy="13" r="1"/>
	<circle class="st1" cx="6" cy="3" r="1"/>
	<circle class="st1" cx="10" cy="3" r="1"/>
</g>
</svg>
