<?xml version="1.0" encoding="utf-8"?>
<!-- Generator: Adobe Illustrator 21.0.0, SVG Export Plug-In . SVG Version: 6.00 Build 0)  -->
<svg version="1.1" xmlns="http://www.w3.org/2000/svg" xmlns:xlink="http://www.w3.org/1999/xlink" x="0px" y="0px"
	 viewBox="0 0 16 16" style="enable-background:new 0 0 16 16;" xml:space="preserve">
<style type="text/css">
	.st0{opacity:0.75;}
	.st1{fill:#1F2022;}
	.st2{display:none;opacity:0.75;}
	.st3{display:inline;}
</style>
<g id="svg7384" inkscape:version="0.48.4 r9939" sodipodi:docname="airplane-mode-symbolic.svg" xmlns:cc="http://creativecommons.org/ns#" xmlns:dc="http://purl.org/dc/elements/1.1/" xmlns:inkscape="http://www.inkscape.org/namespaces/inkscape" xmlns:rdf="http://www.w3.org/1999/02/22-rdf-syntax-ns#" xmlns:sodipodi="http://sodipodi.sourceforge.net/DTD/sodipodi-0.dtd" xmlns:svg="http://www.w3.org/2000/svg" class="st0">
	
		<sodipodi:namedview  bordercolor="#666666" borderopacity="1" gridtolerance="10" guidetolerance="10" id="namedview88" inkscape:bbox-nodes="false" inkscape:bbox-paths="true" inkscape:current-layer="layer9" inkscape:cx="444.57857" inkscape:cy="-152.37756" inkscape:guide-bbox="true" inkscape:object-nodes="false" inkscape:object-paths="false" inkscape:pageopacity="1" inkscape:pageshadow="2" inkscape:snap-bbox="true" inkscape:snap-bbox-midpoints="false" inkscape:snap-global="true" inkscape:snap-grids="true" inkscape:snap-nodes="true" inkscape:snap-others="false" inkscape:snap-to-guides="true" inkscape:window-height="702" inkscape:window-maximized="1" inkscape:window-width="1366" inkscape:window-x="0" inkscape:window-y="27" inkscape:zoom="1" objecttolerance="10" pagecolor="#3a3b39" showborder="false" showgrid="false" showguides="true">
		
			<inkscape:grid  empspacing="2" enabled="true" id="grid4866" originx="80.005251px" originy="100.04889px" snapvisiblegridlinesonly="true" spacingx="1px" spacingy="1px" type="xygrid" visible="true">
			</inkscape:grid>
		
			<inkscape:grid  color="#000000" empcolor="#000000" empopacity="0" empspacing="4" enabled="true" id="grid5968" opacity="0.1254902" originx="80.005251px" originy="100.04889px" snapvisiblegridlinesonly="true" spacingx="0.5px" spacingy="0.5px" type="xygrid" visible="true">
			</inkscape:grid>
	</sodipodi:namedview>
	<title  id="title9167">Gnome Symbolic Icon Theme</title>
	<g id="layer9" transform="translate(-160.99495,-317.04889)" inkscape:groupmode="layer" inkscape:label="status">
		<path id="rect13090-4-6-0-6" inkscape:connector-curvature="0" class="st1" d="M172.4,319.5l-5.9,5.9c-1.3,1.3-1.9,2.8-1.3,3.4
			s2.1,0,3.4-1.3l5.9-5.9c1.3-1.3,1.9-2.8,1.3-3.4S173.7,318.2,172.4,319.5z"/>
		<path id="path13094-9-3-5-6" inkscape:connector-curvature="0" sodipodi:nodetypes="ccccccc" class="st1" d="M164,319.5l-1.2,1.3
			l5.9,4.5l4.5,6l1.3-1.2l-2.6-7.9L164,319.5z"/>
		<path id="path13100-6-3-1-2" inkscape:connector-curvature="0" sodipodi:nodetypes="ccccccc" class="st1" d="M167.3,326.7
			l-4.6-0.3l-0.7,0.7l2.8,2.1l2.1,2.8l0.7-0.7L167.3,326.7z"/>
	</g>
	<g id="layer10" transform="translate(-160.99495,-317.04889)" inkscape:groupmode="layer" inkscape:label="devices">
	</g>
	<g id="layer11" transform="translate(-160.99495,-317.04889)" inkscape:groupmode="layer" inkscape:label="apps">
	</g>
	<g id="layer13" transform="translate(-160.99495,-317.04889)" inkscape:groupmode="layer" inkscape:label="places">
	</g>
	<g id="layer14" transform="translate(-160.99495,-317.04889)" inkscape:groupmode="layer" inkscape:label="mimetypes">
	</g>
	<g id="layer15" transform="translate(-160.99495,-317.04889)" inkscape:groupmode="layer" inkscape:label="emblems">
	</g>
	<g id="g71291" transform="translate(-160.99495,-317.04889)" inkscape:groupmode="layer" inkscape:label="emotes">
	</g>
	<g id="g4953" transform="translate(-160.99495,-317.04889)" inkscape:groupmode="layer" inkscape:label="categories">
	</g>
	<g id="layer12" transform="translate(-160.99495,-317.04889)" inkscape:groupmode="layer" inkscape:label="actions">
	</g>
</g>
<g id="svg7384_x5F_复制" inkscape:version="0.48.4 r9939" sodipodi:docname="airplane-mode-symbolic.svg" xmlns:cc="http://creativecommons.org/ns#" xmlns:dc="http://purl.org/dc/elements/1.1/" xmlns:inkscape="http://www.inkscape.org/namespaces/inkscape" xmlns:rdf="http://www.w3.org/1999/02/22-rdf-syntax-ns#" xmlns:sodipodi="http://sodipodi.sourceforge.net/DTD/sodipodi-0.dtd" xmlns:svg="http://www.w3.org/2000/svg" class="st2">
	
		<sodipodi:namedview  bordercolor="#666666" borderopacity="1" gridtolerance="10" guidetolerance="10" id="namedview88" inkscape:bbox-nodes="false" inkscape:bbox-paths="true" inkscape:current-layer="layer9" inkscape:cx="444.57857" inkscape:cy="-152.37756" inkscape:guide-bbox="true" inkscape:object-nodes="false" inkscape:object-paths="false" inkscape:pageopacity="1" inkscape:pageshadow="2" inkscape:snap-bbox="true" inkscape:snap-bbox-midpoints="false" inkscape:snap-global="true" inkscape:snap-grids="true" inkscape:snap-nodes="true" inkscape:snap-others="false" inkscape:snap-to-guides="true" inkscape:window-height="702" inkscape:window-maximized="1" inkscape:window-width="1366" inkscape:window-x="0" inkscape:window-y="27" inkscape:zoom="1" objecttolerance="10" pagecolor="#3a3b39" showborder="false" showgrid="false" showguides="true">
		
			<inkscape:grid  empspacing="2" enabled="true" id="grid4866" originx="80.005251px" originy="100.04889px" snapvisiblegridlinesonly="true" spacingx="1px" spacingy="1px" type="xygrid" visible="true">
			</inkscape:grid>
		
			<inkscape:grid  color="#000000" empcolor="#000000" empopacity="0" empspacing="4" enabled="true" id="grid5968" opacity="0.1254902" originx="80.005251px" originy="100.04889px" snapvisiblegridlinesonly="true" spacingx="0.5px" spacingy="0.5px" type="xygrid" visible="true">
			</inkscape:grid>
	</sodipodi:namedview>
	<title  id="title9167">Gnome Symbolic Icon Theme</title>
	<g class="st3">
		<path class="st1" d="M14,2c-0.1,0.4-0.4,1.1-1.2,1.9l-2,2l-0.4,0.4l0.2,0.6l1.9,5.7l0,0l-3-3.9L8.7,7.9L7.9,8.7L6.8,9.8
			c-0.3,0.3-0.6,0.5-0.9,0.8l-0.5,0.3l0,0.6l0.1,1.3l-0.9-1.2l-0.1-0.1l-0.1-0.1l-1.2-0.9l1.3,0.1l0.6,0l0.3-0.5
			c0.2-0.4,0.5-0.7,0.8-1L7.3,8l0.8-0.8L7.2,6.5L3.3,3.6l0,0L9,5.5l0.6,0.2L10,5.3l2.1-2.1C12.9,2.4,13.6,2.1,14,2 M14.2,1
			c-0.7,0-1.8,0.6-2.7,1.5L9.3,4.5L3,2.4L1.8,3.7l4.8,3.6L5.5,8.4C5.1,8.7,4.8,9.1,4.6,9.5L1.7,9.3L1,10l2.8,2.1L5.9,15l0.7-0.7
			l-0.2-2.9c0.4-0.2,0.7-0.5,1.1-0.9l1.1-1.1l3.6,4.8l1.3-1.2l-2.1-6.3l2-2c1.3-1.3,1.9-2.8,1.3-3.4C14.6,1,14.4,1,14.2,1L14.2,1z"
			/>
	</g>
	
		<g id="layer10_1_" transform="translate(-160.99495,-317.04889)" inkscape:groupmode="layer" inkscape:label="devices" class="st3">
	</g>
	<g id="layer11_1_" transform="translate(-160.99495,-317.04889)" inkscape:groupmode="layer" inkscape:label="apps" class="st3">
	</g>
	<g id="layer13_1_" transform="translate(-160.99495,-317.04889)" inkscape:groupmode="layer" inkscape:label="places" class="st3">
	</g>
	
		<g id="layer14_1_" transform="translate(-160.99495,-317.04889)" inkscape:groupmode="layer" inkscape:label="mimetypes" class="st3">
	</g>
	
		<g id="layer15_1_" transform="translate(-160.99495,-317.04889)" inkscape:groupmode="layer" inkscape:label="emblems" class="st3">
	</g>
	<g id="g71291_1_" transform="translate(-160.99495,-317.04889)" inkscape:groupmode="layer" inkscape:label="emotes" class="st3">
	</g>
	
		<g id="g4953_1_" transform="translate(-160.99495,-317.04889)" inkscape:groupmode="layer" inkscape:label="categories" class="st3">
	</g>
	
		<g id="layer12_1_" transform="translate(-160.99495,-317.04889)" inkscape:groupmode="layer" inkscape:label="actions" class="st3">
	</g>
</g>
</svg>
