<?xml version="1.0" encoding="utf-8"?>
<!-- Generator: Adobe Illustrator 24.0.0, SVG Export Plug-In . SVG Version: 6.00 Build 0)  -->
<svg version="1.1" id="图层_1" xmlns="http://www.w3.org/2000/svg" xmlns:xlink="http://www.w3.org/1999/xlink" x="0px" y="0px"
	 viewBox="0 0 16 16" style="enable-background:new 0 0 16 16;" xml:space="preserve">
<style type="text/css">
	.st0{opacity:0.75;}
	.st1{fill:#1F2022;}
</style>
<g class="st0">
	<rect x="11" y="9" class="st1" width="1" height="3"/>
	<rect x="11" y="13" class="st1" width="1" height="1"/>
	<path class="st1" d="M11.5,7C9,7,7,9,7,11.5S9,16,11.5,16s4.5-2,4.5-4.5S14,7,11.5,7z M11.5,15c-2,0-3.5-1.5-3.5-3.5S9.5,8,11.5,8
		S15,9.5,15,11.5S13.5,15,11.5,15z"/>
	<rect x="4" class="st1" width="1" height="1"/>
	<rect x="11" class="st1" width="1" height="1"/>
	<path class="st1" d="M2,13V5h12v2h1V3c0-1.1-0.9-2-2-2h-1v1h-1V1H5v1H4V1H3C1.9,1,1,1.9,1,3v10c0,1.1,0.9,2,2,2h4v-1H3
		C2.4,14,2,13.6,2,13z"/>
</g>
</svg>
