<?xml version="1.0" encoding="utf-8"?>
<!-- Generator: Adobe Illustrator 24.0.0, SVG Export Plug-In . SVG Version: 6.00 Build 0)  -->
<svg version="1.1" id="图层_1" xmlns="http://www.w3.org/2000/svg" xmlns:xlink="http://www.w3.org/1999/xlink" x="0px" y="0px"
	 viewBox="0 0 16 16" style="enable-background:new 0 0 16 16;" xml:space="preserve">
<style type="text/css">
	.st0{opacity:0.75;}
	.st1{fill:#1F2022;}
	.st2{fill:none;stroke:#1F2022;stroke-linecap:round;stroke-miterlimit:10;}
</style>
<g id="图层_2_1_" class="st0">
	<g>
		<path class="st1" d="M5,2.7v10.7l-1.7-2L3,11H2.5H2c-0.6,0-1-0.4-1-1V6c0-0.6,0.4-1,1-1h0.5H3l0.3-0.3L5,2.7 M5.5,0.8
			C5.4,0.8,5.2,0.9,5.1,1L2.5,4H2C0.9,4,0,4.9,0,6v4c0,1.1,0.9,2,2,2h0.5l2.6,3c0.1,0.1,0.2,0.2,0.4,0.2C5.8,15.2,6,15,6,14.7V1.3
			C6,1,5.8,0.8,5.5,0.8L5.5,0.8z"/>
	</g>
	<path class="st1" d="M6,6v1c0.5,0,1,0.4,1,0.9V8c0,0.5-0.4,1-0.9,1H6v1c1.1,0,2-0.9,2-2S7.1,6,6,6z"/>
	<path class="st2" d="M10,4.6c0.9,0.8,1.5,2,1.5,3.4c0,1.3-0.6,2.5-1.5,3.3"/>
	<path class="st2" d="M13,2.4c1.5,1.4,2.5,3.3,2.5,5.6c0,2.2-1,4.2-2.5,5.6"/>
</g>
<g id="图层_3" class="st0">
	<line class="st2" x1="7" y1="5" x2="12" y2="1"/>
	<line class="st2" x1="7" y1="11" x2="12" y2="15"/>
</g>
</svg>
