<?xml version="1.0" encoding="utf-8"?>
<!-- Generator: Adobe Illustrator 24.0.0, SVG Export Plug-In . SVG Version: 6.00 Build 0)  -->
<svg version="1.1" id="图层_1" xmlns="http://www.w3.org/2000/svg" xmlns:xlink="http://www.w3.org/1999/xlink" x="0px" y="0px"
	 viewBox="0 0 16 16" enable-background="new 0 0 16 16" xml:space="preserve">
<g id="图层_2_1_" opacity="0.3">
	<path fill="#1F2022" d="M11.1,15.3c-0.2,0-0.4-0.1-0.5-0.3c-0.1-0.3,0-0.5,0.3-0.7c2.4-1,4.1-3.6,4.1-6.3c0-2.7-1.7-5.3-4.2-6.4
		c-0.3-0.1-0.4-0.4-0.2-0.7c0.1-0.3,0.4-0.4,0.7-0.2C14.1,2,16,4.9,16,8c0,3.2-1.9,6.1-4.7,7.3C11.2,15.3,11.2,15.3,11.1,15.3z"/>
</g>
<g id="图层_3" opacity="0.75">
	<g>
		<path fill="#1F2022" d="M5,2.7v10.7l-1.7-2L3,11H2.5H2c-0.6,0-1-0.4-1-1V6c0-0.6,0.4-1,1-1h0.5H3l0.3-0.3L5,2.7 M5.5,0.8
			C5.4,0.8,5.2,0.9,5.1,1L2.5,4H2C0.9,4,0,4.9,0,6v4c0,1.1,0.9,2,2,2h0.5l2.6,3c0.1,0.1,0.2,0.2,0.4,0.2C5.8,15.2,6,15,6,14.7V1.3
			C6,1,5.8,0.8,5.5,0.8L5.5,0.8z"/>
	</g>
	<path fill="#1F2022" d="M6,6v1c0.5,0,1,0.4,1,0.9V8c0,0.5-0.4,1-0.9,1H6v1c1.1,0,2-0.9,2-2S7.1,6,6,6z"/>
	<path fill="#1F2022" d="M8,12.9c-0.2,0-0.4-0.2-0.5-0.4c-0.1-0.3,0.1-0.5,0.4-0.6C9.7,11.5,11,9.8,11,8c0-1.9-1.3-3.4-3.1-3.9
		C7.6,4,7.4,3.7,7.5,3.5C7.6,3.2,7.9,3,8.1,3.1C10.4,3.7,12,5.7,12,8c0,2.3-1.6,4.3-3.9,4.9C8.1,12.9,8,12.9,8,12.9z"/>
</g>
</svg>
