<?xml version="1.0" encoding="utf-8"?>
<!-- Generator: Adobe Illustrator 24.0.0, SVG Export Plug-In . SVG Version: 6.00 Build 0)  -->
<svg version="1.1" id="图层_2" xmlns="http://www.w3.org/2000/svg" xmlns:xlink="http://www.w3.org/1999/xlink" x="0px" y="0px"
	 viewBox="0 0 16 16" style="enable-background:new 0 0 16 16;" xml:space="preserve">
<style type="text/css">
	.st0{fill:#808080;}
	.st1{fill:none;stroke:#808080;stroke-linecap:round;stroke-miterlimit:10;}
</style>
<g>
	<path class="st0" d="M5,2.7v10.7l-1.7-2L3,11H2.5H2c-0.6,0-1-0.4-1-1V6c0-0.6,0.4-1,1-1h0.5H3l0.3-0.3L5,2.7 M5.5,0.8
		C5.4,0.8,5.2,0.9,5.1,1L2.5,4H2C0.9,4,0,4.9,0,6v4c0,1.1,0.9,2,2,2h0.5l2.6,3c0.1,0.1,0.2,0.2,0.4,0.2C5.8,15.2,6,15,6,14.7V1.3
		C6,1,5.8,0.8,5.5,0.8L5.5,0.8z"/>
</g>
<path class="st0" d="M6,6v1c0.5,0,1,0.4,1,0.9C7,7.9,7,8,7,8c0,0.5-0.4,1-0.9,1C6.1,9,6,9,6,9v1c1.1,0,2-0.9,2-2S7.1,6,6,6z"/>
<path class="st1" d="M8,3.6c2,0.5,3.5,2.2,3.5,4.4c0,2.1-1.5,3.9-3.5,4.4"/>
<path class="st1" d="M11,1.1c2.6,1.2,4.5,3.8,4.5,6.9c0,3-1.8,5.7-4.4,6.8"/>
</svg>
