<?xml version="1.0" encoding="utf-8"?>
<!-- Generator: Adobe Illustrator 25.0.0, SVG Export Plug-In . SVG Version: 6.00 Build 0)  -->
<svg version="1.1" id="图层_2_1_" xmlns="http://www.w3.org/2000/svg" xmlns:xlink="http://www.w3.org/1999/xlink" x="0px"
	 y="0px" viewBox="0 0 16 16" style="enable-background:new 0 0 16 16;" xml:space="preserve">
<style type="text/css">
	.st0{opacity:0.75;fill:#1F2022;enable-background:new    ;}
</style>
<path class="st0" d="M8.3,8l4-3.1c0.5-0.4,0.5-1.3-0.1-1.6L8.5,1C8.4,0.9,8.2,0.8,8,0.8c-0.5,0-1,0.4-1,1V7L2.9,3.8
	C2.7,3.6,2.4,3.7,2.2,3.9C2,4.1,2.1,4.4,2.3,4.6L6.7,8l-4.4,3.5C2.1,11.7,2,12,2.2,12.2c0.1,0.1,0.2,0.2,0.4,0.2
	c0.1,0,0.2,0,0.3-0.1L7,9.1v5.1c0,0.6,0.5,1,1,1c0.2,0,0.4,0,0.5-0.2l3.7-2.3c0.6-0.4,0.6-1.2,0.1-1.6L8.3,8z M8,1.8l3.7,2.3L8,7
	V1.8z M8,14.2V9l3.7,2.9L8,14.2z"/>
</svg>
