<?xml version="1.0" encoding="utf-8"?>
<!-- Generator: Adobe Illustrator 21.0.0, SVG Export Plug-In . SVG Version: 6.00 Build 0)  -->
<svg version="1.1"
	 id="svg7384" inkscape:export-filename="/home/sam/dev/RESOURCES/gnome-icon-theme-symbolic/src/gnome-stencils.png" inkscape:export-xdpi="90" inkscape:export-ydpi="90" inkscape:version="0.48.4 r9939" sodipodi:docname="checkbox-mixed-symbolic.svg" xmlns:cc="http://creativecommons.org/ns#" xmlns:dc="http://purl.org/dc/elements/1.1/" xmlns:inkscape="http://www.inkscape.org/namespaces/inkscape" xmlns:rdf="http://www.w3.org/1999/02/22-rdf-syntax-ns#" xmlns:sodipodi="http://sodipodi.sourceforge.net/DTD/sodipodi-0.dtd" xmlns:svg="http://www.w3.org/2000/svg" opacity="0.8"
	 xmlns="http://www.w3.org/2000/svg" xmlns:xlink="http://www.w3.org/1999/xlink" x="0px" y="0px" viewBox="0 0 16 16"
	 style="enable-background:new 0 0 16 16;" xml:space="preserve">
<style type="text/css">
	.st0{fill:#1F2022;}
	.st1{fill:none;stroke:#1F2022;stroke-linecap:round;stroke-miterlimit:10;}
</style>
<g id="layer9" transform="translate(-401.00015,-357)" inkscape:groupmode="layer" inkscape:label="status">
	<path id="rect9618-8" inkscape:connector-curvature="0" class="st0" d="M404.5,358c-1.4,0-2.5,1.1-2.5,2.5v9.1
		c0,1.4,1.1,2.5,2.5,2.5h9.1c1.4,0,2.5-1.1,2.5-2.5v-9.1c0-1.4-1.1-2.5-2.5-2.5H404.5z M404.5,359h9.1c0.8,0,1.5,0.6,1.5,1.5v9.1
		c0,0.8-0.6,1.5-1.5,1.5h-9.1c-0.8,0-1.5-0.6-1.5-1.5v-9.1C403,359.6,403.6,359,404.5,359z"/>
	<line class="st1" x1="405" y1="365.5" x2="413" y2="365.5"/>
</g>
</svg>
