<?xml version="1.0" encoding="utf-8"?>
<!-- Generator: Adobe Illustrator 21.0.0, SVG Export Plug-In . SVG Version: 6.00 Build 0)  -->
<svg version="1.1" id="图层_2" opacity="0.8" xmlns="http://www.w3.org/2000/svg" xmlns:xlink="http://www.w3.org/1999/xlink"
	 x="0px" y="0px" viewBox="0 0 16 16" style="enable-background:new 0 0 16 16;" xml:space="preserve">
<style type="text/css">
	.st0{fill:#1F2022;}
	.st1{fill:none;stroke:#1F2022;stroke-linecap:round;stroke-miterlimit:10;}
</style>
<g>
	<path class="st0" d="M11,14.4c-0.7,0.1-1.3-0.4-1.3-1.1c0-0.1,0-0.2,0-0.3H6.3c0.1,0.7-0.4,1.3-1.1,1.4c-0.1,0-0.2,0-0.3,0l0,0
		c-0.5,0-0.5,0.6,0,0.6H11c0.2,0,0.4-0.1,0.4-0.3c0-0.2-0.1-0.4-0.3-0.4C11.1,14.3,11,14.3,11,14.4z"/>
	<path class="st0" d="M13.5,2C14.3,2,15,2.7,15,3.5v6c0,0.8-0.7,1.5-1.5,1.5h-11C1.7,11,1,10.3,1,9.5v-6C1,2.7,1.7,2,2.5,2H13.5
		 M13.5,1h-11C1.1,1,0,2.1,0,3.5v6C0,10.9,1.1,12,2.5,12h11c1.4,0,2.5-1.1,2.5-2.5v-6C16,2.1,14.9,1,13.5,1z"/>
</g>
<circle class="st0" cx="6" cy="5" r="1"/>
<circle class="st0" cx="10" cy="5" r="1"/>
<path class="st1" d="M2.8,9.4C4.2,8.8,6,8.5,8,8.5c1.9,0,3.6,0.3,5,0.8"/>
</svg>
