<svg id="图层_15" data-name="图层 15" xmlns="http://www.w3.org/2000/svg" viewBox="0 0 16 16"><defs><style>.cls-1{fill:gray;}.cls-2{fill:#61a232;}</style></defs><title>dropboxstatus-busy</title><path class="cls-1" d="M7.5,9.61v5.1L3.66,13.35A1,1,0,0,1,3,12.4V10.31l-1-.5v2.6a2,2,0,0,0,1.32,1.88L7.5,15.81h1V9.61Z"/><path class="cls-1" d="M8.5,9.61v5.1l3.84-1.36A1,1,0,0,0,13,12.4V10.31l1-.5v2.6a2,2,0,0,1-1.32,1.88L8.5,15.81h-1V9.61Z"/><path class="cls-1" d="M13,6.31l1.64,2.46a1,1,0,0,1-.28,1.39L11,12.36a1,1,0,0,1-1.38-.28L8,9.61Zm.8,3.1-1.1-1.7L9.4,9.91l1.1,1.7Z"/><path class="cls-1" d="M8,9.61,6.35,12.08A1,1,0,0,1,5,12.36l-3.33-2.2a1,1,0,0,1-.28-1.39L3,6.31Zm-2.5,2,1.1-1.7L3.3,7.71,2.2,9.41Z"/><path class="cls-1" d="M8,3.11,9.65.64A1,1,0,0,1,11,.36l3.33,2.2a1,1,0,0,1,.28,1.38L13,6.41Zm2.5-2L9.4,2.81,12.7,5l1.1-1.7Z"/><path class="cls-1" d="M3,6.41,1.36,3.94a1,1,0,0,1,.28-1.38L5,.36A1,1,0,0,1,6.35.64L8,3.11Zm-.8-3,1.1,1.7,3.3-2.2L5.5,1.21Z"/><path class="cls-2" d="M6.62,6.76h0l-.34.34L6.18,7l-.27-.27-.7-.7.35-.36L6,6.15l.26.26.33.33Z"/><polygon class="cls-2" points="7.33 6.06 6.61 6.78 6.27 7.12 6.18 7.03 5.91 6.76 6.04 6.63 6.27 6.41 6.52 6.15 6.97 5.7 7.33 6.06"/><path class="cls-2" d="M10,6.31A1.89,1.89,0,0,1,8,8.06v-.5A1.39,1.39,0,0,0,9.5,6.31,1.39,1.39,0,0,0,8,5.06,1.42,1.42,0,0,0,6.52,6.15a.41.41,0,0,0,0,.16.91.91,0,0,0,.1.43,0,0,0,0,0,0,0h0l-.34.34L6.18,7A1.12,1.12,0,0,1,6,6.63a1.12,1.12,0,0,1,0-.32.86.86,0,0,1,0-.16A1.92,1.92,0,0,1,8,4.56,1.89,1.89,0,0,1,10,6.31Z"/></svg>