<?xml version="1.0" encoding="utf-8"?>
<!-- Generator: Adobe Illustrator 24.0.0, SVG Export Plug-In . SVG Version: 6.00 Build 0)  -->
<svg version="1.1" id="图层_1" xmlns="http://www.w3.org/2000/svg" xmlns:xlink="http://www.w3.org/1999/xlink" x="0px" y="0px"
	 viewBox="0 0 16 16" style="enable-background:new 0 0 16 16;" xml:space="preserve">
<style type="text/css">
	.st0{opacity:0.75;fill:#1F2022;enable-background:new    ;}
</style>
<title>b-文件夹</title>
<path class="st0" d="M13.5,4h-4C8.8,4.1,8.2,3.7,8,3.1C7.5,2,7,1,5.7,1H2C0.9,1.1,0.1,1.9,0,3v9.8C-0.1,14,0.8,14.9,2,15
	c0,0,0,0,0,0h12c1.1,0,2-1,2-2.1V6C15.9,4.8,14.8,3.9,13.5,4C13.5,4,13.5,4,13.5,4z M15,12.9c0,0.6-0.4,1.1-1,1.1H2
	c-0.6-0.1-1-0.6-1-1.1V3c0-0.7,0.8-1,1-1h3.7C6.2,2,6.5,2.2,7,3.4c0.4,1,1.4,1.7,2.5,1.6h4C14,5,15,5.2,15,6V12.9z"/>
</svg>
