<?xml version="1.0" encoding="utf-8"?>
<!-- Generator: Adobe Illustrator 24.0.0, SVG Export Plug-In . SVG Version: 6.00 Build 0)  -->
<svg version="1.1" id="网络" xmlns="http://www.w3.org/2000/svg" xmlns:xlink="http://www.w3.org/1999/xlink" x="0px" y="0px"
	 viewBox="0 0 16 16" style="enable-background:new 0 0 16 16;" xml:space="preserve">
<style type="text/css">
	.st0{fill:#808080;}
	.st1{opacity:0.3;fill:#808080;enable-background:new    ;}
</style>
<title>gnome-netstatus-tx</title>
<g id="发送接收">
	<g id="_16">
		<path class="st0" d="M13,6h0.9c0.6,0,1-0.4,1-1c0-0.2-0.1-0.5-0.2-0.6l-2.9-3.4c-0.4-0.4-1-0.5-1.4-0.1c0,0-0.1,0.1-0.1,0.1
			L7.4,4.4C7,4.8,7.1,5.4,7.5,5.8C7.7,5.9,7.9,6,8.1,6H9v2c0,0.6,0.4,1,1,1h2c0.6,0,1-0.4,1-1V6z M10,8V5H8.1L11,1.6L13.9,5H12v3H10
			z"/>
		<path class="st1" d="M6,7H4C3.4,7,3,7.4,3,8v2H2.1c-0.6,0-1,0.4-1,1c0,0.2,0.1,0.5,0.2,0.6l2.9,3.4c0.4,0.4,1,0.5,1.4,0.1
			c0,0,0.1-0.1,0.1-0.1l2.9-3.4c0.4-0.4,0.3-1.1-0.1-1.4C8.3,10.1,8.1,10,7.9,10H7V8C7,7.4,6.6,7,6,7z M6,8v3h1.9L5,14.4L2.1,11H4V8
			H6z"/>
	</g>
</g>
</svg>
