<?xml version="1.0" encoding="utf-8"?>
<!-- Generator: Adobe Illustrator 25.0.0, SVG Export Plug-In . SVG Version: 6.00 Build 0)  -->
<svg version="1.1" id="图层_1" xmlns="http://www.w3.org/2000/svg" xmlns:xlink="http://www.w3.org/1999/xlink" x="0px" y="0px"
	 viewBox="0 0 16 16" style="enable-background:new 0 0 16 16;" xml:space="preserve">
<style type="text/css">
	.st0{display:none;}
	.st1{display:inline;}
	.st2{fill:#808080;}
	.st3{opacity:0.75;fill:#1F2022;enable-background:new    ;}
	.st4{opacity:0.75;}
	.st5{fill:#1F2022;}
	.st6{fill:#E40000;}
</style>
<g id="图层_1_1_" class="st0">
	<g id="图层_2_1_" class="st1">
		<path class="st2" d="M13,4c0.6,0,1,0.4,1,1v6c0,0.6-0.4,1-1,1H2c-0.6,0-1-0.4-1-1V5c0-0.6,0.4-1,1-1H13 M13,3H2C0.9,3,0,3.9,0,5v6
			c0,1.1,0.9,2,2,2h11c1.1,0,2-0.9,2-2V5C15,3.9,14.1,3,13,3L13,3z"/>
		<path class="st2" d="M15,5h0.5C15.8,5,16,5.2,16,5.5l0,0v5c0,0.3-0.2,0.5-0.5,0.5l0,0H15l0,0V5L15,5z"/>
		<polygon class="st2" points="11,7 7,7 9.7,1 2.9,9.1 7,9 4.3,15 		"/>
	</g>
</g>
<g id="图层_2_2_">
	<path class="st3" d="M15,5h0.5C15.8,5,16,5.2,16,5.5l0,0v5c0,0.3-0.2,0.5-0.5,0.5l0,0H15l0,0V5L15,5z"/>
	<g class="st4">
		<path class="st5" d="M13,3h-2.2l-0.4,1H13c0.6,0,1,0.4,1,1v6c0,0.6-0.4,1-1,1H8.9L8,13h5c1.1,0,2-0.9,2-2V5C15,3.9,14.1,3,13,3z"
			/>
		<path class="st5" d="M2,12c-0.6,0-1-0.4-1-1V5c0-0.6,0.4-1,1-1h5.2L8,3H2C0.9,3,0,3.9,0,5v6c0,1.1,0.9,2,2,2h3.3l0.5-1H2z"/>
	</g>
	<polygon class="st3" points="12.1,7 8.1,7 10.8,1 4,9.1 8.1,9 5.4,15 	"/>
	<path class="st6" d="M3,5L3,5c0.6,0,1,0.5,1,1.2v3.6C4,10.5,3.6,11,3,11l0,0c-0.6,0-1-0.5-1-1.2V6.2C2,5.5,2.4,5,3,5z"/>
</g>
</svg>
