<?xml version="1.0" encoding="utf-8"?>
<!-- Generator: Adobe Illustrator 24.0.0, SVG Export Plug-In . SVG Version: 6.00 Build 0)  -->
<svg version="1.1" id="图层_18" xmlns="http://www.w3.org/2000/svg" xmlns:xlink="http://www.w3.org/1999/xlink" x="0px" y="0px"
	 viewBox="0 0 16 16" style="enable-background:new 0 0 16 16;" xml:space="preserve">
<style type="text/css">
	.st0{fill:#808080;}
	.st1{display:none;fill:#808080;}
	.st2{fill:none;stroke:#808080;stroke-linecap:round;stroke-miterlimit:10;}
</style>
<title>gpm-mouse-000</title>
<path class="st0" d="M5,7H1C0.4,7,0,7.4,0,8v7c0,0.6,0.4,1,1,1h4c0.6,0,1-0.4,1-1V8C6,7.4,5.6,7,5,7z M5,15H1V8h4V15z"/>
<rect x="10" y="1" class="st0" width="1" height="3"/>
<path class="st1" d="M12,0.2V6H9V0.2C6.6,0.9,5,3,5,5.5V6h1V5.5C6,4,6.8,2.6,8,1.8V6c0,0.6,0.4,1,1,1h3c0.6,0,1-0.4,1-1V1.8
	c1.2,0.8,2,2.2,2,3.7v4.8c0,2.6-2,4.7-4.6,4.7c0,0-0.1,0-0.1,0C9,15,7.8,14.3,7,13.3v1.4c2.3,1.9,5.8,1.6,7.7-0.7
	c0.8-1,1.3-2.2,1.3-3.5v-5C16,3,14.4,0.9,12,0.2z"/>
<path class="st2" d="M7.3,14.3c2.1,1.8,5.2,1.5,7-0.7c0.7-0.9,1.2-2.1,1.2-3.3V5.7c0-2.3-0.8-4.4-3-5l0,3.8c0,0.6-0.4,1-1,1h-2
	c-0.6,0-1-0.4-1-1l0-3.8c-2.2,0.6-3,2.7-3,5"/>
<path class="st0" d="M4,8H2C1.4,8,1,7.6,1,7v0c0-0.5,0.4-1,1-1h2c0.5,0,1,0.4,1,1v0C5,7.6,4.6,8,4,8z"/>
</svg>
