<?xml version="1.0" encoding="utf-8"?>
<!-- Generator: Adobe Illustrator 25.0.0, SVG Export Plug-In . SVG Version: 6.00 Build 0)  -->
<svg version="1.1" id="图层_2_1_" xmlns="http://www.w3.org/2000/svg" xmlns:xlink="http://www.w3.org/1999/xlink" x="0px"
	 y="0px" viewBox="0 0 16 16" style="enable-background:new 0 0 16 16;" xml:space="preserve">
<style type="text/css">
	.st0{opacity:0.75;fill:#1F2022;enable-background:new    ;}
	.st1{opacity:0.75;fill:none;stroke:#1F2022;stroke-linecap:round;stroke-miterlimit:10;enable-background:new    ;}
	.st2{fill:#E40000;}
</style>
<path class="st0" d="M7.5,1C11.1,1,14,3.6,14,6.7s-2.9,5.7-6.5,5.7c-0.5,0-1.1-0.1-1.6-0.2l-0.4-0.1l-0.4,0.3L3,14v-2.7v-0.5
	l-0.3-0.3C1.6,9.6,1,8.2,1,6.7C1,3.6,3.9,1,7.5,1 M7.5,0C3.4,0,0,3,0,6.7c0,1.7,0.7,3.4,2,4.5V15c0,0.3,0.2,0.5,0.5,0.5
	c0.1,0,0.2,0,0.3-0.1l2.9-2.2c0.6,0.1,1.2,0.2,1.8,0.2c4.1,0,7.5-3,7.5-6.7S11.6,0,7.5,0L7.5,0z"/>
<line class="st1" x1="4.5" y1="8.5" x2="8.5" y2="8.5"/>
<line class="st1" x1="4.5" y1="6.5" x2="11.5" y2="6.5"/>
<circle class="st2" cx="13" cy="4" r="3"/>
</svg>
