<?xml version="1.0" encoding="utf-8"?>
<!-- Generator: Adobe Illustrator 24.0.0, SVG Export Plug-In . SVG Version: 6.00 Build 0)  -->
<svg version="1.1" id="图层_1" xmlns="http://www.w3.org/2000/svg" xmlns:xlink="http://www.w3.org/1999/xlink" x="0px" y="0px"
	 viewBox="0 0 16 16" style="enable-background:new 0 0 16 16;" xml:space="preserve">
<style type="text/css">
	.st0{opacity:0.75;fill:#1F2022;enable-background:new    ;}
	.st1{fill:#FF1A00;}
</style>
<path class="st0" d="M14,6.4V11c0,0.6-0.4,1-1,1H2c-0.6,0-1-0.4-1-1V4c0-0.6,0.4-1,1-1h7.6c0-0.2,0-0.3-0.1-0.5c0-0.2,0-0.3,0.1-0.5
	H2C0.9,2,0,2.9,0,4v7c0,1.1,0.9,2,2,2h1v2.5c0,0.1,0.1,0.3,0.3,0.3c0.1,0,0.1,0,0.2-0.1L6.7,13H13c1.1,0,2-0.9,2-2V6.2
	C14.7,6.3,14.3,6.4,14,6.4z"/>
<circle class="st1" cx="13.5" cy="2.5" r="2.5"/>
</svg>
