<?xml version="1.0" encoding="utf-8"?>
<!-- Generator: Adobe Illustrator 25.0.0, SVG Export Plug-In . SVG Version: 6.00 Build 0)  -->
<svg version="1.1" id="图层_1" xmlns="http://www.w3.org/2000/svg" xmlns:xlink="http://www.w3.org/1999/xlink" x="0px" y="0px"
	 viewBox="0 0 16 16" style="enable-background:new 0 0 16 16;" xml:space="preserve">
<style type="text/css">
	.st0{opacity:0.75;fill:#1F2022;enable-background:new    ;}
</style>
<path class="st0" d="M5,1v2h1c1.7,0,3,0.6,3.8,1.6c0.8,0.9,1.2,2.1,1.6,3.3c0.4,1.1,0.7,2.2,1.2,3c0.5,0.7,1.2,1.2,2.4,1.2h1v1h-1
	c-1.5,0-2.6-0.7-3.2-1.6c-0.7-0.9-1-2.1-1.4-3.2C10,7,9.6,6,9,5.2C8.4,4.5,7.5,4,6,4H5v2C4.2,5.6,3.4,5.2,2.7,4.8
	C1.9,4.4,1.1,4,0.4,3.5C1.1,3,1.9,2.6,2.7,2.2S4.2,1.4,5,1z M16,3v1h-1c-1.2,0-1.9,0.4-2.4,1.2c-0.3,0.4-0.5,0.8-0.7,1.3
	c-0.2-0.4-0.3-0.8-0.5-1.2c0.1-0.2,0.2-0.4,0.4-0.7C12.4,3.7,13.5,3,15,3H16z M9.8,9.5c0.1,0.4,0.3,0.8,0.5,1.2
	c-0.2,0.3-0.3,0.5-0.5,0.7C9,12.4,7.7,13,6,13H5v2c-0.8-0.4-1.6-0.8-2.3-1.2c-0.8-0.4-1.5-0.9-2.3-1.3c0.7-0.4,1.5-0.9,2.3-1.3
	C3.5,10.8,4.2,10.4,5,10v2h1c1.5,0,2.4-0.5,3-1.2C9.3,10.4,9.6,10,9.8,9.5L9.8,9.5z"/>
</svg>
