<?xml version="1.0" encoding="utf-8"?>
<!-- Generator: Adobe Illustrator 24.0.0, SVG Export Plug-In . SVG Version: 6.00 Build 0)  -->
<svg version="1.1" id="图层_2_1_" xmlns="http://www.w3.org/2000/svg" xmlns:xlink="http://www.w3.org/1999/xlink" x="0px"
	 y="0px" viewBox="0 0 16 16" style="enable-background:new 0 0 16 16;" xml:space="preserve">
<style type="text/css">
	.st0{opacity:0.75;fill:#1F2022;}
</style>
<path class="st0" d="M16,7c0-3.3-2.7-6-6-6H6C2.7,1,0,3.7,0,7c0,3.3,2.7,6,6,6c0.3,0,0.5-0.2,0.5-0.5S6.3,12,6,12c-2.7,0-5-2.3-5-5
	c0-2.7,2.3-5,5-5h4c2.7,0,5,2.3,5,5c0,2.7-2.3,5-5,5H9.7l0.9-0.9c0.2-0.2,0.2-0.5,0-0.7s-0.5-0.2-0.7,0l-1.8,1.8
	C8,12.3,8,12.4,8,12.6c0,0.2,0,0.3,0.1,0.5l1.8,1.8C10,15,10.2,15,10.3,15s0.3,0,0.4-0.1c0.2-0.2,0.2-0.5,0-0.7L9.5,13H10
	C13.3,13,16,10.3,16,7z"/>
</svg>
