<?xml version="1.0" encoding="utf-8"?>
<!-- Generator: Adobe Illustrator 24.0.0, SVG Export Plug-In . SVG Version: 6.00 Build 0)  -->
<svg version="1.1" id="图层_2_1_" xmlns="http://www.w3.org/2000/svg" xmlns:xlink="http://www.w3.org/1999/xlink" x="0px"
	 y="0px" viewBox="0 0 16 16" style="enable-background:new 0 0 16 16;" xml:space="preserve">
<style type="text/css">
	.st0{opacity:0.75;}
	.st1{fill:#1F2022;}
</style>
<g class="st0">
	<path class="st1" d="M4.7,11h-3l1.6-1.1c0.2-0.2,0.3-0.5,0.1-0.7C3.3,9,2.9,8.9,2.7,9.1l-2.3,1.6C0.1,10.9,0,11.2,0,11.5
		s0.2,0.6,0.4,0.8l2.3,1.6C2.8,14,2.9,14,3,14c0.2,0,0.3-0.1,0.4-0.2c0.2-0.2,0.1-0.5-0.1-0.7L1.7,12h3c0.9,0,1.8-0.2,2.5-0.7
		l-0.5-0.9C6.1,10.8,5.4,11,4.7,11z"/>
	<path class="st1" d="M9.5,7.5C9.5,5,7.5,3,5,3H1.7l1.6-1.1c0.2-0.2,0.3-0.5,0.1-0.7C3.3,1,2.9,0.9,2.7,1.1L0.4,2.7
		C0.1,2.9,0,3.2,0,3.5s0.2,0.6,0.4,0.8l2.3,1.6C2.8,6,2.9,6,3,6c0.2,0,0.3-0.1,0.4-0.2c0.2-0.2,0.1-0.5-0.1-0.7L1.7,4H5
		c1.9,0,3.5,1.6,3.5,3.5c0,2.5,2,4.5,4.5,4.5h3v-1h-3C11.1,11,9.5,9.4,9.5,7.5z"/>
	<path class="st1" d="M13.2,3c-1,0-1.9,0.3-2.5,0.8l0.6,0.8C11.9,4.1,12.7,4,13.2,4H16V3H13.2z"/>
</g>
</svg>
