<?xml version="1.0" encoding="utf-8"?>
<!-- Generator: Adobe Illustrator 24.0.0, SVG Export Plug-In . SVG Version: 6.00 Build 0)  -->
<svg version="1.1" id="图层_2_1_" xmlns="http://www.w3.org/2000/svg" xmlns:xlink="http://www.w3.org/1999/xlink" x="0px"
	 y="0px" viewBox="0 0 16 16" style="enable-background:new 0 0 16 16;" xml:space="preserve">
<style type="text/css">
	.st0{opacity:0.75;}
	.st1{fill:#1F2022;}
</style>
<g class="st0">
	<path class="st1" d="M14.3,0.8c-0.5-0.2-1-0.1-1.3,0.2L1,12.9c-0.3,0.3-0.4,0.8-0.2,1.3S1.4,15,1.9,15H2h4h1.5
		C7.8,15,8,14.8,8,14.5S7.8,14,7.5,14H6V9.4l7.7-7.7c0-0.1,0.1,0,0.2,0c0,0,0.1,0.1,0.1,0.2V7c0,0.3,0.2,0.5,0.5,0.5S15,7.3,15,7
		V1.9C15,1.4,14.7,1,14.3,0.8z"/>
	<path class="st1" d="M15,11v-0.5C15,9.1,13.9,8,12.5,8S10,9.1,10,10.5V11c-0.6,0-1,0.4-1,1v3c0,0.6,0.4,1,1,1h5c0.6,0,1-0.4,1-1v-3
		C16,11.4,15.6,11,15,11z M11,10.5C11,9.7,11.7,9,12.5,9S14,9.7,14,10.5V11h-3V10.5z M15,15h-5v-3h5V15z"/>
</g>
</svg>
