<?xml version="1.0" encoding="utf-8"?>
<!-- Generator: Adobe Illustrator 24.0.0, SVG Export Plug-In . SVG Version: 6.00 Build 0)  -->
<svg version="1.1" id="图层_2_1_" xmlns="http://www.w3.org/2000/svg" xmlns:xlink="http://www.w3.org/1999/xlink" x="0px"
	 y="0px" viewBox="0 0 16 16" style="enable-background:new 0 0 16 16;" xml:space="preserve">
<style type="text/css">
	.st0{opacity:0.75;}
	.st1{fill:#1F2022;}
	.st2{fill:none;stroke:#1F2022;stroke-miterlimit:10;}
	.st3{opacity:0.3;}
</style>
<g id="图层_3" class="st0">
	<g>
		<path class="st1" d="M15,13v2h-3v-2H15 M15,12h-3c-0.6,0-1,0.4-1,1v2c0,0.6,0.4,1,1,1h3c0.6,0,1-0.4,1-1v-2C16,12.4,15.6,12,15,12
			L15,12z"/>
		<path class="st2" d="M12.5,12v-0.5c0-0.6,0.4-1,1-1l0,0c0.6,0,1,0.4,1,1V12"/>
	</g>
</g>
<g class="st0">
	<path class="st1" d="M8.1,14l1.4-1.4C9.1,12.2,8.6,12,8,12c-0.6,0-1.1,0.2-1.4,0.6L8.1,14z"/>
	<path class="st1" d="M8,9c-1.4,0-2.7,0.6-3.6,1.6l0.7,0.7C5.9,10.5,6.9,10,8,10c1.1,0,2.2,0.5,2.9,1.2l0.7-0.7C10.7,9.6,9.5,9,8,9z
		"/>
	<path class="st1" d="M8,6C5.8,6,3.7,7,2.2,8.5L3,9.2C4.2,7.8,6,7,8,7c2,0,3.8,0.8,5,2.1l0.7-0.7C12.3,6.9,10.3,6,8,6z"/>
</g>
<g id="图层_3_1_" class="st3">
	<path class="st1" d="M0.1,6.4l0.7,0.7C2.6,5.2,5.2,4,8,4c2.8,0,5.4,1.2,7.2,3.1l0.7-0.7C13.9,4.3,11.1,3,8,3C4.9,3,2.1,4.3,0.1,6.4
		z"/>
</g>
</svg>
