<?xml version="1.0" encoding="utf-8"?>
<!-- Generator: Adobe Illustrator 24.0.0, SVG Export Plug-In . SVG Version: 6.00 Build 0)  -->
<svg version="1.1" id="图层_3" xmlns="http://www.w3.org/2000/svg" xmlns:xlink="http://www.w3.org/1999/xlink" x="0px" y="0px"
	 viewBox="0 0 16 16" style="enable-background:new 0 0 16 16;" xml:space="preserve">
<style type="text/css">
	.st0{opacity:0.3;}
	.st1{fill:#1F2022;}
</style>
<g class="st0">
	<path class="st1" d="M8,14l1.4-1.4C9,12.2,8.5,12,8,12c-0.6,0-1.1,0.2-1.4,0.6L8,14z"/>
	<path class="st1" d="M8,9c-1.4,0-2.7,0.6-3.6,1.6l0.7,0.7C5.8,10.5,6.8,10,8,10c1.1,0,2.2,0.5,2.9,1.2l0.7-0.7C10.6,9.6,9.4,9,8,9z
		"/>
	<path class="st1" d="M8,6C5.7,6,3.6,7,2.2,8.5l0.7,0.7C4.2,7.8,6,7,8,7c2,0,3.8,0.8,5,2.1l0.7-0.7C12.2,6.9,10.2,6,8,6z"/>
	<path class="st1" d="M0,6.4l0.7,0.7C2.5,5.2,5.1,4,8,4c2.8,0,5.4,1.2,7.2,3.1l0.7-0.7C13.9,4.3,11.1,3,8,3C4.8,3,2,4.3,0,6.4z"/>
</g>
</svg>
