<?xml version="1.0" encoding="utf-8"?>
<!-- Generator: Adobe Illustrator 24.0.0, SVG Export Plug-In . SVG Version: 6.00 Build 0)  -->
<svg version="1.1" id="图层_2_1_" xmlns="http://www.w3.org/2000/svg" xmlns:xlink="http://www.w3.org/1999/xlink" x="0px"
	 y="0px" viewBox="0 0 16 16" style="enable-background:new 0 0 16 16;" xml:space="preserve">
<style type="text/css">
	.st0{opacity:0.75;enable-background:new    ;}
	.st1{fill:#1F2022;}
	.st2{opacity:0.3;}
</style>
<g class="st0">
	<path class="st1" d="M8,12c0.6,0,1,0.4,1,1c0,0.5-0.4,1-1,1s-1-0.4-1-1c0-0.3,0.1-0.5,0.3-0.7C7.5,12.1,7.7,12,8,12L8,12 M8,11
		c-1.1,0-2,0.9-2,2s0.9,2,2,2l0,0l0,0c1.1,0,2-0.9,2-2S9.1,11,8,11L8,11z"/>
</g>
<g class="st2">
	<path class="st1" d="M4.6,9.3c-0.2,0.2-0.2,0.5,0,0.7c0.1,0.1,0.2,0.2,0.4,0.2c0.1,0,0.2,0,0.3-0.1C6,9.4,7,9,8,9s2,0.4,2.8,1.1
		c0.2,0.2,0.5,0.2,0.7,0s0.2-0.5,0-0.7C9.5,7.6,6.5,7.6,4.6,9.3z"/>
	<path class="st1" d="M8,5C5.9,5,4,5.8,2.5,7.2c-0.2,0.2-0.2,0.5,0,0.7s0.5,0.2,0.7,0C4.5,6.7,6.2,6,8,6s3.6,0.7,5,2
		c0.1,0.1,0.2,0.1,0.3,0.1s0.3-0.1,0.4-0.2c0.2-0.2,0.2-0.5,0-0.7C12.1,5.8,10.1,5,8,5z"/>
	<path class="st1" d="M15.8,3.9C13.7,2,11,1,8,1C5.2,1,2.4,2,0.3,3.8C0.1,4,0,4.3,0.2,4.5s0.5,0.2,0.7,0.1C2.9,2.9,5.4,2,8,2
		c2.7,0,5.2,0.9,7.2,2.7c0.1,0.1,0.2,0.1,0.3,0.1s0.3-0.1,0.4-0.2C16.1,4.4,16,4.1,15.8,3.9z"/>
</g>
</svg>
