<?xml version="1.0" encoding="utf-8"?>
<!-- Generator: Adobe Illustrator 24.0.0, SVG Export Plug-In . SVG Version: 6.00 Build 0)  -->
<svg version="1.1" id="图层_1" xmlns="http://www.w3.org/2000/svg" xmlns:xlink="http://www.w3.org/1999/xlink" x="0px" y="0px"
	 viewBox="0 0 16 16" style="enable-background:new 0 0 16 16;" xml:space="preserve">
<style type="text/css">
	.st0{opacity:0.75;}
	.st1{fill:none;stroke:#1F2022;stroke-linecap:round;stroke-miterlimit:10;}
	.st2{opacity:0.75;fill:#1F2022;}
</style>
<g id="图层_2_1_" class="st0">
	<path class="st1" d="M8,14.5L8,14.5c-0.8,0-1.5-0.7-1.5-1.5s0.7-1.5,1.5-1.5"/>
	<path class="st1" d="M4.9,9.7C5.7,9,6.8,8.5,8,8.5c0.5,0,1,0.1,1.4,0.2"/>
	<path class="st1" d="M2.8,7.6C4.2,6.3,6,5.5,8,5.5c1.5,0,2.8,0.4,4,1.1"/>
	<path class="st1" d="M0.6,4.2c2-1.7,4.6-2.7,7.4-2.7c2.9,0,5.5,1,7.5,2.8"/>
</g>
<path class="st2" d="M15,11v-0.5C15,9.1,13.9,8,12.5,8S10,9.1,10,10.5V11c-0.6,0-1,0.4-1,1v3c0,0.6,0.4,1,1,1h5c0.6,0,1-0.4,1-1v-3
	C16,11.4,15.6,11,15,11z M11,10.5C11,9.7,11.7,9,12.5,9S14,9.7,14,10.5V11h-3V10.5z M15,15h-5v-3h5V15z"/>
</svg>
