<?xml version="1.0" encoding="utf-8"?>
<!-- Generator: Adobe Illustrator 25.0.0, SVG Export Plug-In . SVG Version: 6.00 Build 0)  -->
<svg version="1.1"
	 id="svg7384" inkscape:export-filename="/home/sam/dev/RESOURCES/gnome-icon-theme-symbolic/src/gnome-stencils.png" inkscape:export-xdpi="90" inkscape:export-ydpi="90" xmlns:cc="http://creativecommons.org/ns#" xmlns:dc="http://purl.org/dc/elements/1.1/" xmlns:inkscape="http://www.inkscape.org/namespaces/inkscape" xmlns:rdf="http://www.w3.org/1999/02/22-rdf-syntax-ns#" xmlns:sodipodi="http://sodipodi.sourceforge.net/DTD/sodipodi-0.dtd" xmlns:svg="http://www.w3.org/2000/svg"
	 xmlns="http://www.w3.org/2000/svg" xmlns:xlink="http://www.w3.org/1999/xlink" x="0px" y="0px" viewBox="0 0 16 16"
	 style="enable-background:new 0 0 16 16;" xml:space="preserve">
<style type="text/css">
	.st0{opacity:0.75;fill:#1F2022;enable-background:new    ;}
	.st1{opacity:0.35;clip-path:url(#SVGID_2_);fill:#1F2022;enable-background:new    ;}
	.st2{opacity:0.35;fill:#1F2022;enable-background:new    ;}
</style>
<sodipodi:namedview  bordercolor="#666666" borderopacity="1" gridtolerance="10" guidetolerance="10" id="namedview88" inkscape:bbox-nodes="false" inkscape:bbox-paths="true" inkscape:current-layer="layer9" inkscape:cx="-173.72294" inkscape:cy="-12.068952" inkscape:guide-bbox="true" inkscape:object-nodes="false" inkscape:object-paths="false" inkscape:pageopacity="1" inkscape:pageshadow="2" inkscape:snap-bbox="true" inkscape:snap-bbox-midpoints="false" inkscape:snap-global="true" inkscape:snap-grids="true" inkscape:snap-nodes="true" inkscape:snap-others="false" inkscape:snap-to-guides="true" inkscape:window-height="1374" inkscape:window-maximized="1" inkscape:window-width="2560" inkscape:window-x="0" inkscape:window-y="27" inkscape:zoom="1" objecttolerance="10" pagecolor="#3a3b39" showborder="false" showgrid="false" showguides="true">
	
		<inkscape:grid  dotted="false" empspacing="2" enabled="true" id="grid4866" originx="60.000002px" originy="-40px" snapvisiblegridlinesonly="true" spacingx="1px" spacingy="1px" type="xygrid" visible="true">
		</inkscape:grid>
</sodipodi:namedview>
<g id="layer9" transform="translate(-181.0002,-177)" inkscape:groupmode="layer" inkscape:label="status">
	<path id="path19592-2" inkscape:connector-curvature="0" sodipodi:nodetypes="cccccsccccccsccccsssss" class="st0" d="M188.8,182
		c1.6-0.1,3.1,1.2,3.2,2.8c0,1.4-0.4,1.9-1.6,2.8c-0.2,0.1-0.3,0.3-0.4,0.3c0,0.1,0,0,0,0c0,0.5-0.5,1-1,1s-1-0.5-1-1
		s0.2-0.9,0.5-1.3c0.2-0.3,0.5-0.5,0.7-0.7s0.5-0.4,0.7-0.7c0.1-0.1,0.1-0.3,0.1-0.4l0,0c0-0.6-0.5-1-1.1-0.9s-1,0.4-0.9,1h-2
		C185.9,183.3,187.2,182.1,188.8,182L188.8,182z M189,190c0.6,0,1,0.4,1,1s-0.4,1-1,1s-1-0.4-1-1S188.5,190,189,190z"/>
	<g>
		<g>
			<defs>
				<rect id="SVGID_1_" x="182" y="178" width="14" height="5"/>
			</defs>
			<clipPath id="SVGID_2_">
				<use xlink:href="#SVGID_1_"  style="overflow:visible;"/>
			</clipPath>
			<path id="path14835" inkscape:connector-curvature="0" class="st1" d="M181.5,182.7c0.1,0.5,0.6,0.9,1.2,0.8
				c0.2,0,0.4-0.1,0.5-0.2l0.1-0.1c3.2-3,8.3-3,11.5,0c0.3,0.4,1,0.6,1.4,0.3c0.5-0.3,0.6-0.9,0.3-1.3c-0.1-0.1-0.2-0.2-0.3-0.3
				c-4-3.7-10.4-3.7-14.3,0C181.6,182,181.4,182.4,181.5,182.7L181.5,182.7z"/>
		</g>
	</g>
	<path id="path14861" inkscape:connector-curvature="0" sodipodi:nodetypes="ccccc" class="st2" d="M186,187h1c0-0.3,0.1-0.7,0.5-1
		H186V187z"/>
	<path id="path15371" inkscape:connector-curvature="0" sodipodi:nodetypes="ccccc" class="st2" d="M184,185h1
		c0-0.7,0.1-1.7,0.7-2.2c-0.6,0.2-1.2,0.7-1.7,1.2V185z"/>
	<path id="path15375" inkscape:connector-curvature="0" sodipodi:nodetypes="ccccc" class="st2" d="M194,185h-1
		c0-0.7-0.1-1.7-0.7-2.2c0.6,0.2,1.2,0.7,1.7,1.2V185z"/>
</g>
<g id="layer10" transform="translate(-181.0002,-177)" inkscape:groupmode="layer" inkscape:label="devices">
</g>
<g id="layer11" transform="translate(-181.0002,-177)" inkscape:groupmode="layer" inkscape:label="apps">
</g>
<g id="layer13" transform="translate(-181.0002,-177)" inkscape:groupmode="layer" inkscape:label="places">
</g>
<g id="layer14" transform="translate(-181.0002,-177)" inkscape:groupmode="layer" inkscape:label="mimetypes">
</g>
<g id="layer15" transform="translate(-181.0002,-177)" inkscape:groupmode="layer" inkscape:label="emblems">
</g>
<g id="g71291" transform="translate(-181.0002,-177)" inkscape:groupmode="layer" inkscape:label="emotes">
</g>
<g id="g4953" transform="translate(-181.0002,-177)" inkscape:groupmode="layer" inkscape:label="categories">
</g>
<g id="layer12" transform="translate(-181.0002,-177)" inkscape:groupmode="layer" inkscape:label="actions">
</g>
</svg>
