<?xml version="1.0" encoding="utf-8"?>
<!-- Generator: Adobe Illustrator 25.0.0, SVG Export Plug-In . SVG Version: 6.00 Build 0)  -->
<svg version="1.1"
	 id="svg7384" xmlns:cc="http://creativecommons.org/ns#" xmlns:dc="http://purl.org/dc/elements/1.1/" xmlns:inkscape="http://www.inkscape.org/namespaces/inkscape" xmlns:rdf="http://www.w3.org/1999/02/22-rdf-syntax-ns#" xmlns:sodipodi="http://sodipodi.sourceforge.net/DTD/sodipodi-0.dtd" xmlns:svg="http://www.w3.org/2000/svg"
	 xmlns="http://www.w3.org/2000/svg" xmlns:xlink="http://www.w3.org/1999/xlink" x="0px" y="0px" viewBox="0 0 16 16"
	 style="enable-background:new 0 0 16 16;" xml:space="preserve">
<style type="text/css">
	.st0{opacity:0.75;}
	.st1{fill:#1F2022;}
</style>
<sodipodi:namedview  bordercolor="#666666" borderopacity="1" gridtolerance="10" guidetolerance="10" id="namedview88" inkscape:bbox-nodes="false" inkscape:bbox-paths="true" inkscape:current-layer="layer9" inkscape:cx="-5.1397284" inkscape:cy="-3.11893" inkscape:guide-bbox="true" inkscape:object-nodes="false" inkscape:object-paths="false" inkscape:pageopacity="1" inkscape:pageshadow="2" inkscape:snap-bbox="true" inkscape:snap-bbox-midpoints="false" inkscape:snap-global="true" inkscape:snap-grids="true" inkscape:snap-nodes="false" inkscape:snap-others="false" inkscape:snap-to-guides="true" inkscape:window-height="1408" inkscape:window-maximized="1" inkscape:window-width="2560" inkscape:window-x="0" inkscape:window-y="0" inkscape:zoom="1" objecttolerance="10" pagecolor="#3a3b39" showborder="false" showgrid="false" showguides="true">
	
		<inkscape:grid  empspacing="2" enabled="true" id="grid4866" originx="140px" originy="180px" snapvisiblegridlinesonly="true" spacingx="1px" spacingy="1px" type="xygrid" visible="true">
		</inkscape:grid>
</sodipodi:namedview>
<g id="layer10" transform="translate(-101.0002,-397)" inkscape:groupmode="layer" inkscape:label="devices">
</g>
<g id="layer11" transform="translate(-101.0002,-397)" inkscape:groupmode="layer" inkscape:label="apps">
</g>
<g id="layer13" transform="translate(-101.0002,-397)" inkscape:groupmode="layer" inkscape:label="places">
</g>
<g id="layer14" transform="translate(-101.0002,-397)" inkscape:groupmode="layer" inkscape:label="mimetypes">
</g>
<g id="layer15" transform="translate(-101.0002,-397)" inkscape:groupmode="layer" inkscape:label="emblems">
</g>
<g id="g71291" transform="translate(-101.0002,-397)" inkscape:groupmode="layer" inkscape:label="emotes">
</g>
<g id="g4953" transform="translate(-101.0002,-397)" inkscape:groupmode="layer" inkscape:label="categories">
</g>
<g class="st0">
	<g id="layer9" transform="translate(-101.0002,-397)" inkscape:groupmode="layer" inkscape:label="status">
		<path id="path5284" inkscape:connector-curvature="0" class="st1" d="M109,398c0.3,0,0.5,0.1,0.7,0.2s0.3,0.3,0.4,0.5
			c0.2,0.4,0.4,0.8,0.6,1.2s0.3,0.9,0.5,1.2c0.2,0.3,0.3,0.6,0.4,0.6c0,0,0.3,0.1,0.7,0.2c0.4,0,0.9,0,1.4,0.1c0.5,0,1,0,1.4,0.1
			c0.2,0,0.4,0.1,0.6,0.2s0.4,0.3,0.5,0.5s0,0.5,0,0.7s-0.2,0.4-0.4,0.5c-0.3,0.3-0.6,0.6-1,0.9s-0.8,0.6-1.1,0.8s-0.5,0.5-0.5,0.5
			s0,0.3,0.1,0.7s0.2,0.8,0.4,1.3s0.3,0.9,0.3,1.3c0,0.2,0,0.4,0,0.6s-0.2,0.4-0.4,0.6c-0.2,0.2-0.4,0.2-0.7,0.2
			c-0.2,0-0.4-0.1-0.6-0.2c-0.4-0.2-0.8-0.4-1.2-0.7s-0.8-0.5-1.1-0.7c-0.3-0.2-0.6-0.3-0.7-0.3c0,0-0.3,0.1-0.6,0.3
			c-0.3,0.2-0.7,0.5-1.1,0.7c-0.4,0.3-0.8,0.5-1.2,0.7c-0.2,0.1-0.4,0.2-0.6,0.2s-0.5,0-0.7-0.2s-0.3-0.4-0.4-0.6c0-0.2,0-0.4,0-0.6
			c0-0.4,0.2-0.9,0.3-1.3c0.1-0.4,0.3-0.9,0.3-1.3c0.1-0.4,0.1-0.7,0.1-0.7s-0.2-0.3-0.5-0.5s-0.7-0.5-1.1-0.8s-0.8-0.6-1.1-0.9
			c-0.1-0.2-0.2-0.3-0.3-0.5c-0.1-0.2-0.1-0.4-0.1-0.7s0.3-0.4,0.5-0.5s0.4-0.2,0.6-0.2c0.4-0.1,0.9-0.1,1.4-0.2
			c0.5,0,0.9,0,1.3-0.1s0.7-0.1,0.7-0.1s0.2-0.2,0.3-0.6c0.2-0.3,0.3-0.8,0.5-1.2c0.2-0.4,0.3-0.9,0.6-1.2c0.1-0.2,0.2-0.4,0.4-0.5
			C108.5,398.1,108.7,398,109,398L109,398z M109,399c0,0-0.1,0.1-0.2,0.3c-0.2,0.3-0.3,0.6-0.5,1s-0.3,0.9-0.5,1.3s-0.3,0.7-0.7,1
			c-0.4,0.3-0.8,0.3-1.2,0.3c-0.4,0-0.9,0.1-1.4,0.1s-0.9,0.1-1.2,0.1c-0.1,0-0.3,0.1-0.3,0.1s0.1,0.2,0.2,0.3
			c0.2,0.2,0.5,0.5,0.9,0.8s0.8,0.6,1.1,0.9c0.3,0.3,0.6,0.5,0.8,0.9c0.1,0.4,0.1,0.8,0,1.2c-0.1,0.4-0.3,0.9-0.4,1.3
			s-0.2,0.8-0.3,1.1c0,0.1,0,0.2,0,0.3c0.1,0,0.2,0,0.3-0.1c0.3-0.1,0.6-0.3,1-0.6c0.4-0.2,0.8-0.5,1.2-0.8c0.4-0.2,0.7-0.4,1.2-0.4
			c0.4,0,0.8,0.2,1.2,0.4c0.4,0.2,0.8,0.5,1.2,0.7c0.4,0.2,0.8,0.5,1.1,0.6c0.1,0.1,0.2,0.1,0.3,0.1c0-0.1,0-0.2,0-0.3
			c0-0.3-0.1-0.7-0.3-1.1c-0.1-0.4-0.3-0.9-0.4-1.3s-0.2-0.8-0.1-1.2c0.1-0.4,0.4-0.6,0.8-0.9c0.3-0.3,0.7-0.6,1.1-0.9
			s0.7-0.6,0.9-0.8c0.1-0.1,0.2-0.2,0.2-0.3c0,0-0.2-0.1-0.3-0.1c-0.3-0.1-0.7-0.1-1.2-0.1s-0.9,0-1.4-0.1c-0.4,0-0.8,0-1.2-0.3
			c-0.4-0.3-0.5-0.6-0.7-1s-0.3-0.8-0.5-1.3c-0.2-0.4-0.3-0.8-0.5-1.1C109.1,399.1,109,399,109,399L109,399z"/>
		<path id="path5286" inkscape:connector-curvature="0" class="st1" d="M109,398.5c0.9,0,1.4,3.1,2.2,3.7c0.8,0.5,4,0,4.3,0.9
			c0.3,0.8-2.7,2.3-2.9,3.1c-0.3,0.9,1.2,3.7,0.5,4.2s-3.1-1.7-4-1.7l0,0L109,398.5z"/>
	</g>
	<g id="layer12" transform="translate(-101.0002,-397)" inkscape:groupmode="layer" inkscape:label="actions">
	</g>
</g>
</svg>
