<?xml version="1.0" encoding="utf-8"?>
<!-- Generator: Adobe Illustrator 21.0.0, SVG Export Plug-In . SVG Version: 6.00 Build 0)  -->
<svg version="1.1" id="图层_2" xmlns="http://www.w3.org/2000/svg" xmlns:xlink="http://www.w3.org/1999/xlink" x="0px" y="0px"
	 viewBox="0 0 16 16" style="enable-background:new 0 0 16 16;" xml:space="preserve">
<style type="text/css">
	.st0{opacity:0.75;}
	.st1{fill:#1F2022;}
</style>
<g id="_16" class="st0">
	<path id="_16-2" class="st1" d="M11,6H3C1.9,6,1,6.9,1,8v6c0,1.1,0.9,2,2,2h10c1.1,0,2-0.9,2-2V8c0-1.1-0.9-2-2-2H11z M13,15H3
		c-0.6,0-1-0.4-1-1V8c0-0.6,0.4-1,1-1h10c0.6,0,1,0.4,1,1v6C14,14.6,13.6,15,13,15z"/>
	<path class="st1" d="M4,6.4V5c0-2.2,1.8-4,4-4s4,1.8,4,4v1.4c0,0.2,0,0.4-0.1,0.6H13V5c0-2.8-2.2-5-5-5S3,2.2,3,5v2h1.1
		C4,6.8,4,6.6,4,6.4z"/>
	<path class="st1" d="M8,9L8,9c0.6,0,1,0.4,1,1v2c0,0.6-0.4,1-1,1l0,0c-0.6,0-1-0.4-1-1v-2C7,9.4,7.4,9,8,9z"/>
</g>
</svg>
