<?xml version="1.0" encoding="utf-8"?>
<!-- Generator: Adobe Illustrator 24.0.0, SVG Export Plug-In . SVG Version: 6.00 Build 0)  -->
<svg version="1.1" id="图层_1" xmlns="http://www.w3.org/2000/svg" xmlns:xlink="http://www.w3.org/1999/xlink" x="0px" y="0px"
	 viewBox="0 0 16 16" style="enable-background:new 0 0 16 16;" xml:space="preserve">
<style type="text/css">
	.st0{opacity:0.75;fill:#1F2022;}
</style>
<path class="st0" d="M13,2h-1.1c-0.2-1.1-1.2-2-2.4-2h-3C5.3,0,4.3,0.9,4.1,2H3C1.9,2,1,2.9,1,4v10c0,1.1,0.9,2,2,2h10
	c1.1,0,2-0.9,2-2V4C15,2.9,14.1,2,13,2z M6.5,1h3c0.7,0,1.2,0.4,1.4,1H10H6H5.1C5.3,1.4,5.8,1,6.5,1z M5,3h1h4h1h1v2H9.8L8,7.3
	L6,5.3L4,7V3H5z M14,14c0,0.6-0.4,1-1,1H3c-0.6,0-1-0.4-1-1V4c0-0.6,0.4-1,1-1v6l3-2.4L8,8.7L10.2,6H13V3c0.6,0,1,0.4,1,1V14z"/>
</svg>
