<?xml version="1.0" encoding="utf-8"?>
<!-- Generator: Adobe Illustrator 24.0.0, SVG Export Plug-In . SVG Version: 6.00 Build 0)  -->
<svg version="1.1" id="图层_1" xmlns="http://www.w3.org/2000/svg" xmlns:xlink="http://www.w3.org/1999/xlink" x="0px" y="0px"
	 viewBox="0 0 16 16" style="enable-background:new 0 0 16 16;" xml:space="preserve">
<style type="text/css">
	.st0{opacity:0.3;fill:#1F2022;}
	.st1{opacity:0.75;}
	.st2{fill:#1F2022;}
</style>
<path class="st0" d="M14,3.5v9c0,0.8-0.7,1.5-1.5,1.5S11,13.3,11,12.5v-9C11,2.1,9.9,1,8.5,1C7.1,1,6,2.1,6,3.5v9
	C6,13.3,5.3,14,4.5,14S3,13.3,3,12.5V6h1V5h1V3H4V1H3v2H2V1H1v2H0v2h1v1h1v6.5C2,13.9,3.1,15,4.5,15S7,13.9,7,12.5v-9
	C7,2.7,7.7,2,8.5,2S10,2.7,10,3.5v9c0,1.4,1.1,2.5,2.5,2.5s2.5-1.1,2.5-2.5v-9H14z"/>
<g id="图层_8" class="st1">
	<path class="st2" d="M4.5,9L4.5,9C3.7,9,3,8.3,3,7.5l0,0C3,6.7,3.7,6,4.5,6l0,0C5.3,6,6,6.7,6,7.5l0,0C6,8.3,5.3,9,4.5,9z"/>
	<path class="st2" d="M8.5,9L8.5,9C7.7,9,7,8.3,7,7.5l0,0C7,6.7,7.7,6,8.5,6l0,0C9.3,6,10,6.7,10,7.5l0,0C10,8.3,9.3,9,8.5,9z"/>
	<path class="st2" d="M12.5,9L12.5,9C11.7,9,11,8.3,11,7.5l0,0C11,6.7,11.7,6,12.5,6l0,0C13.3,6,14,6.7,14,7.5l0,0
		C14,8.3,13.3,9,12.5,9z"/>
</g>
</svg>
