<?xml version="1.0" encoding="utf-8"?>
<!-- Generator: Adobe Illustrator 24.0.0, SVG Export Plug-In . SVG Version: 6.00 Build 0)  -->
<svg version="1.1" id="图层_3" xmlns="http://www.w3.org/2000/svg" xmlns:xlink="http://www.w3.org/1999/xlink" x="0px" y="0px"
	 viewBox="0 0 16 16" style="enable-background:new 0 0 16 16;" xml:space="preserve">
<style type="text/css">
	.st0{opacity:0.75;}
	.st1{fill:#1F2022;}
</style>
<g class="st0">
	<path class="st1" d="M16,12.7c0-1.4-1-2.6-2.3-3C13.1,8.1,11.6,7,9.8,7c-1.6,0-3,0.9-3.7,2.3C5.6,9.1,5.2,9,4.7,9
		C2.6,9,1,10.5,1,12.5C1,14.4,2.7,16,4.7,16h7.8c0.1,0,0.2,0,0.3-0.1C14.6,15.8,16,14.4,16,12.7z M12.7,14.9c-0.1,0-0.2,0-0.3,0.1
		H4.7C3.2,15,2,13.9,2,12.5C2,11.1,3.2,10,4.7,10c0.5,0,1.1,0.1,1.5,0.4c0.2,0.1,0.5,0.1,0.7-0.2C7,10.1,7,9.9,6.9,9.8
		C7.5,8.7,8.6,8,9.8,8c1.5,0,2.8,1,3.1,2.4c0.1,0.2,0.3,0.4,0.5,0.4c0,0,0.1,0,0.1,0c0.1,0,0.1,0,0.1-0.1c0.8,0.4,1.3,1.1,1.3,2
		C15,13.9,13.9,14.9,12.7,14.9z"/>
	<path class="st1" d="M2.5,8.7C3.1,8.9,3.6,9,4.2,9C4.8,9,5.4,8.8,6,8.6c1.1-0.5,1.9-1.4,2.4-2.5c0.9-2.3-0.3-4.9-2.6-5.8
		c0,0,0,0,0,0C5.4,0.1,5.1,0,4.7,0C4.5,0,4.4,0.1,4.3,0.2c-0.1,0.1-0.1,0.3,0,0.5c0.4,0.9,0.4,1.8,0.1,2.7C3.7,4.9,2.2,5.8,0.6,5.6
		c-0.2,0-0.4,0.1-0.5,0.2C0,5.9,0,6.1,0,6.3C0.5,7.3,1.4,8.2,2.5,8.7z M5.3,3.8C5.6,2.9,5.6,2,5.4,1.2c1.8,0.7,2.7,2.8,2,4.5
		c-0.3,0.9-1,1.6-1.8,2C4.7,8.1,3.8,8.1,2.9,7.7C2.3,7.5,1.8,7.1,1.4,6.6C3.1,6.5,4.6,5.4,5.3,3.8z"/>
</g>
</svg>
