<svg xmlns="http://www.w3.org/2000/svg" xmlns:xlink="http://www.w3.org/1999/xlink" viewBox="0 0 256 256"><defs><style>.cls-1{opacity:0.08;}.cls-2{opacity:0.1;}.cls-3{opacity:0.2;}.cls-4{fill:url(#未命名的渐变_86);}.cls-5{fill:url(#未命名的渐变_75);}.cls-6{fill:none;stroke-miterlimit:10;stroke-width:4.68px;stroke:url(#未命名的渐变_9);}.cls-7{fill:#02ded3;}.cls-8{fill:url(#未命名的渐变_6);}.cls-9{fill:url(#未命名的渐变_6-2);}.cls-10{fill:url(#未命名的渐变_6-3);}.cls-11{fill:url(#未命名的渐变_5);}.cls-12,.cls-13{opacity:0.7;}.cls-12{fill:url(#未命名的渐变_4);}.cls-13{fill:url(#未命名的渐变_4-2);}</style><linearGradient id="未命名的渐变_86" x1="128" y1="248" x2="128" y2="8" gradientUnits="userSpaceOnUse"><stop offset="0" stop-color="#dae1e4"/><stop offset="1" stop-color="#f3f4fa"/></linearGradient><linearGradient id="未命名的渐变_75" x1="126.5" y1="239" x2="126.5" y2="15" gradientUnits="userSpaceOnUse"><stop offset="0" stop-color="#cfd8dc"/><stop offset="1" stop-color="#ebecf2"/></linearGradient><radialGradient id="未命名的渐变_9" cx="128" cy="127.99" r="83.47" gradientUnits="userSpaceOnUse"><stop offset="0" stop-color="#00faf0"/><stop offset="0.23" stop-color="#0085b7"/><stop offset="0.34" stop-color="#00c6d7"/><stop offset="0.43" stop-color="#00fff2"/><stop offset="0.63" stop-color="#0093be"/><stop offset="0.8" stop-color="#00efea"/><stop offset="0.83" stop-color="#00fff2"/><stop offset="1" stop-color="#0097c0"/></radialGradient><linearGradient id="未命名的渐变_6" x1="128" y1="59.86" x2="128" y2="196.47" gradientUnits="userSpaceOnUse"><stop offset="0" stop-color="#0085b7"/><stop offset="0.55" stop-color="#00c6d7"/><stop offset="1" stop-color="#00fff2"/></linearGradient><linearGradient id="未命名的渐变_6-2" x1="128" y1="179.7" x2="128" y2="76.19" xlink:href="#未命名的渐变_6"/><linearGradient id="未命名的渐变_6-3" x1="128" y1="88.74" x2="128" y2="167.34" xlink:href="#未命名的渐变_6"/><linearGradient id="未命名的渐变_5" x1="128" y1="152.43" x2="128" y2="103.81" gradientUnits="userSpaceOnUse"><stop offset="0" stop-color="#0085b7"/><stop offset="0.55" stop-color="#00c6d7"/><stop offset="1" stop-color="#00fff2"/></linearGradient><linearGradient id="未命名的渐变_4" x1="58.61" y1="128" x2="128" y2="128" gradientUnits="userSpaceOnUse"><stop offset="0" stop-color="#fff" stop-opacity="0.1"/><stop offset="1" stop-color="#fff"/></linearGradient><linearGradient id="未命名的渐变_4-2" x1="193.55" y1="128" x2="134.42" y2="128" xlink:href="#未命名的渐变_4"/></defs><title>256</title><g id="底板_复制"><g id="浅灰色"><g id="_256" data-name="256"><g class="cls-1"><path d="M130,254c-41.5,0-78.15-10.87-95.64-28.36S6,171.52,6,130,16.88,51.83,34.36,34.36,88.5,6,130,6s78.15,10.87,95.64,28.36S254,88.48,254,130s-10.85,78.17-28.33,95.64S171.5,254,130,254Z"/></g><g class="cls-2"><path d="M130,252c-41,0-77.1-10.64-94.23-27.77-37-37-37-151.47,0-188.46C52.9,18.64,89,8,130,8s77.1,10.64,94.23,27.77c37,37,37,151.47,0,188.46C207.1,241.36,171,252,130,252Z"/></g><g class="cls-3"><path d="M128,250c-41,0-77.1-10.64-94.23-27.77-37-37-37-151.47,0-188.46C50.9,16.64,87,6,128,6s77.1,10.64,94.23,27.77c37,37,37,151.47,0,188.46C205.1,239.36,169,250,128,250Z"/></g><g id="_256-2" data-name="256"><circle class="cls-4" cx="128" cy="128" r="131.26"/></g><path class="cls-5" d="M126.5,239c-38.44,0-71.83-9.52-87.16-24.84S14.5,165.44,14.5,127,24,55.17,39.34,39.84,88.06,15,126.5,15s71.83,9.52,87.16,24.84S238.5,88.56,238.5,127s-9.52,71.83-24.84,87.16S164.94,239,126.5,239Z"/></g></g></g><g id="生物识别"><g id="_256-3" data-name="256"><polygon class="cls-6" points="128 47 47 87 47 170 128 209 209 170 209 87 128 47"/><circle id="_6" data-name="6" class="cls-7" cx="47" cy="87" r="8"/><circle id="_5" data-name="5" class="cls-7" cx="47" cy="170" r="8"/><circle id="_4" data-name="4" class="cls-7" cx="128" cy="209" r="8"/><circle id="_3" data-name="3" class="cls-7" cx="209" cy="170" r="8"/><circle id="_2" data-name="2" class="cls-7" cx="209" cy="87" r="8"/><circle id="_1" data-name="1" class="cls-7" cx="128" cy="47" r="8"/><polygon class="cls-8" points="128 58 58 93 58 163 128 198 198 163 198 93 128 58"/><polygon class="cls-9" points="128 74 74 101 74 155 128 182 182 155 182 101 128 74"/><polygon class="cls-10" points="128 87 87 107.5 87 148.5 128 169 169 148.5 169 107.5 128 87"/><polygon class="cls-11" points="128 102 102 115 102 141 128 154 154 141 154 115 128 102"/><polygon class="cls-12" points="128 128 58.61 93.31 58.61 162.69 128 128"/><polygon class="cls-13" points="128 128 197.39 93.31 197.39 162.69 128 128"/></g></g></svg>