<?xml version="1.0" encoding="iso-8859-1"?>
<!-- Generator: Adobe Illustrator 21.0.0, SVG Export Plug-In . SVG Version: 6.00 Build 0)  -->
<svg version="1.0" id="&#x56FE;&#x5C42;_1" xmlns="http://www.w3.org/2000/svg" xmlns:xlink="http://www.w3.org/1999/xlink" x="0px"
	 y="0px" width="256px" height="256px" viewBox="0 0 256 256" enable-background="new 0 0 256 256" xml:space="preserve">
<title>刻录</title>
<g id="&#x5E95;&#x677F;_&#x590D;&#x5236;">
	<g id="&#x4E2D;&#x7070;&#x8272;">
		<g id="_256">
			<g opacity="8.000000e-02">
				<path d="M130,254c-41.5,0-78.2-10.9-95.6-28.4S6,171.5,6,130s10.9-78.2,28.4-95.6S88.5,6,130,6s78.1,10.9,95.6,28.4
					S254,88.5,254,130s-10.9,78.2-28.3,95.6S171.5,254,130,254z"/>
			</g>
			<g opacity="0.1">
				<path d="M130,252c-41,0-77.1-10.6-94.2-27.8c-37-37-37-151.5,0-188.5C52.9,18.6,89,8,130,8s77.1,10.6,94.2,27.8
					c37,37,37,151.5,0,188.5C207.1,241.4,171,252,130,252z"/>
			</g>
			<g opacity="0.2">
				<path d="M128,250c-41,0-77.1-10.6-94.2-27.8c-37-37-37-151.5,0-188.5C50.9,16.6,87,6,128,6s77.1,10.6,94.2,27.8
					c37,37,37,151.5,0,188.5C205.1,239.4,169,250,128,250z"/>
			</g>
			<g id="_256-2">
				
					<linearGradient id="SVGID_1_" gradientUnits="userSpaceOnUse" x1="128" y1="-3986.0251" x2="128" y2="-3746.0127" gradientTransform="matrix(1 0 0 -1 0 -3738.0005)">
					<stop  offset="1.000000e-02" style="stop-color:#6D7375"/>
					<stop  offset="1" style="stop-color:#BEBEC4"/>
				</linearGradient>
				<path fill="url(#SVGID_1_)" d="M220.8,220.8c-36.3,36.3-149.4,36.3-185.6,0s-36.3-149.4,0-185.6s149.4-36.3,185.6,0
					S257.1,184.6,220.8,220.8z"/>
			</g>
			
				<linearGradient id="SVGID_2_" gradientUnits="userSpaceOnUse" x1="128" y1="-3978.0002" x2="128" y2="-3754.0002" gradientTransform="matrix(1 0 0 -1 0 -3738.0005)">
				<stop  offset="1.000000e-02" style="stop-color:#797F82"/>
				<stop  offset="1" style="stop-color:#C9C9CF"/>
			</linearGradient>
			<path fill="url(#SVGID_2_)" d="M128,240c-38.4,0-71.8-9.5-87.2-24.8S16,166.4,16,128s9.5-71.8,24.8-87.2S89.6,16,128,16
				s71.8,9.5,87.2,24.8S240,89.6,240,128s-9.5,71.8-24.8,87.2S166.4,240,128,240z"/>
		</g>
	</g>
</g>
<g id="&#x523B;&#x5F55;">
	<path fill="#5F6466" d="M125.5,218c-48.6,0-88-39.4-88-88s39.4-88,88-88s88,39.4,88,88l0,0C213.4,178.6,174,217.9,125.5,218
		 M125.5,121.7c-4.6,0-8.3,3.7-8.3,8.3s3.7,8.3,8.3,8.3s8.3-3.7,8.3-8.3l0,0C133.8,125.4,130.1,121.7,125.5,121.7"/>
	<path fill="#065493" d="M128.7,218c-48.6,0-88-39.4-88-88s39.4-88,88-88s88,39.4,88,88C216.6,178.6,177.2,217.9,128.7,218
		 M128.7,121.7c-4.6,0-8.3,3.7-8.3,8.3s3.7,8.3,8.3,8.3s8.3-3.7,8.3-8.3l0,0C137,125.4,133.3,121.7,128.7,121.7"/>
	<path fill="#1580C3" d="M128.7,44.8c-47,0-85.2,38.1-85.2,85.2s38.1,85.2,85.2,85.2c47,0,85.1-38.1,85.1-85.2
		C213.8,83,175.7,44.8,128.7,44.8L128.7,44.8 M128.7,212.7C83,212.7,46,175.7,46,130s37-82.7,82.7-82.7s82.7,37,82.7,82.7
		C211.3,175.6,174.3,212.6,128.7,212.7"/>
	<g>
		<g>
			<g>
				<defs>
					<path id="SVGID_3_" d="M103.9,130c0-13.7,11.1-24.8,24.8-24.8s24.8,11.1,24.8,24.8s-11.1,24.8-24.8,24.8S103.9,143.7,103.9,130
						 M57.9,130c0,39.1,31.7,70.8,70.8,70.8s70.8-31.7,70.8-70.8s-31.7-70.8-70.8-70.8l0,0C89.6,59.2,57.9,90.9,57.9,130"/>
				</defs>
				<clipPath id="SVGID_4_">
					<use xlink:href="#SVGID_3_"  overflow="visible"/>
				</clipPath>
				<g clip-path="url(#SVGID_4_)">
					<rect x="57.9" y="59.2" fill="#2EA7E0" width="141.6" height="141.6"/>
				</g>
			</g>
		</g>
	</g>
	<g opacity="0.6">
		<path fill="#FFFFFF" d="M153.4,131.6l43.4,2.9l2.5-0.1c0.6-10.1-1-20.2-4.5-29.6l-43,16.4C153.1,124.5,153.6,128.1,153.4,131.6"/>
		<path fill="#FFFFFF" d="M104,128.4l-43.5-2.9l-2.5,0.1c-0.6,10.1,0.9,20.2,4.5,29.6l43-16.4C104.3,135.5,103.8,131.9,104,128.4"/>
	</g>
	<g opacity="0.6">
		<path fill="#FFFFFF" d="M150.1,117.5l37.6-21.9l2-1.5c-5.1-8.7-12.1-16.2-20.3-22L143,109.7C145.9,111.8,148.3,114.5,150.1,117.5"
			/>
		<path fill="#FFFFFF" d="M107.3,142.5l-37.6,21.9l-2,1.5c5.1,8.7,12.1,16.2,20.3,22l26.5-37.6C111.6,148.2,109.1,145.5,107.3,142.5
			"/>
	</g>
	<path fill="#F6F5F5" d="M128.7,47.3C83,47.3,46,84.3,46,130s37,82.7,82.7,82.7s82.7-37,82.7-82.7C211.3,84.4,174.3,47.4,128.7,47.3
		 M128.7,201c-39.2,0-71-31.8-71-71s31.8-71,71-71s71,31.8,71,71S167.9,201,128.7,201"/>
	<path fill="#1580C3" d="M128.7,105.2c-13.7,0-24.8,11.1-24.8,24.9c0,13.7,11.1,24.8,24.9,24.8s24.8-11.1,24.8-24.9
		C153.5,116.3,142.4,105.2,128.7,105.2 M128.7,152.3c-12.3,0-22.2-10-22.2-22.3s10-22.2,22.3-22.2s22.2,10,22.2,22.3
		C151,142.3,141,152.3,128.7,152.3"/>
	<path fill="#F6F5F5" d="M128.7,107.7c-12.3,0-22.3,10-22.3,22.3s10,22.3,22.3,22.3s22.3-10,22.3-22.3
		C150.9,117.7,141,107.7,128.7,107.7 M128.7,141.4c-6.3,0-11.4-5.1-11.4-11.4s5.1-11.4,11.4-11.4s11.4,5.1,11.4,11.4
		C140,136.3,134.9,141.4,128.7,141.4"/>
	<path opacity="0.2" enable-background="new    " d="M170.7,211.6c-7.5,0.7-15.6-2.8-20-5.9c-10.9-7.6-11.3-19.6-1.3-28.7
		c6.4-5.8,17.8-9.9,22.2-16.4c4.6,4.4,8.8,9.9,9.4,15.4c0.4,3.4-1,6.8-3.7,9c-3,2.6-7.6,3.9-11.1,6.2s-5.8,5.2-6.3,8.2
		C159,204.7,163.8,209.1,170.7,211.6z"/>
	<path opacity="0.2" enable-background="new    " d="M174.7,102.8c-2.7,3.4-1.8,9.9-0.6,13.6c1.4,4.4,3.8,8.5,6.9,12
		c4.4,5.2,10.1,8.9,14.9,13.6s9.4,9.1,12.8,14.8c6.3,10.1,6.8,22.6,1.3,33.2c-3.7,7.2-10.4,14.1-18.4,16.6
		c-8.9,2.7-18.3,1.7-27.4,1.7c4.3,0,9.4-3.6,12.6-6.3c6.2-5.3,10-12.7,9.6-20.8c-0.3-7.6-4.1-14.6-10.3-19
		c-6-4.1-12.1-6.9-15.8-13.5c-5-8.9-4.2-20.6,0.4-29.7c3.1-6.1,8-10.4,13-15C174,103.7,174.4,103.3,174.7,102.8z"/>
	<path fill="#FF7900" d="M173.4,211.5c-7,0.6-14.6-3-18.8-6c-10.3-7.5-10.8-19.2-1.4-28.1c5.9-5.6,16.3-9.5,20.4-15.8
		c4.4,4.3,8.8,9.7,9.4,15.1c0.4,3.3-0.9,6.5-3.4,8.7c-2.8,2.6-7.2,3.8-10.4,5.9s-5.4,5-5.9,7.9C162.4,204.5,166.8,209,173.4,211.5z"
		/>
	<path fill="#FF7900" d="M179,99.8c-2.8,3-2.5,8.7-0.5,14.1c1.6,4.5,4,8.7,6.9,12.4c4.4,5.3,10.1,9.2,15,14s9.5,9.4,12.9,15.3
		c6.3,10.3,6.9,23.2,1.5,34c-3.6,7.3-10.4,14.4-18.4,16.9c-8.9,2.7-18.3,1.7-27.4,1.6c4.3,0,9.4-3.6,12.6-6.4
		c6.2-5.4,9.9-13,9.5-21.3c-0.3-7.8-4.2-15-10.5-19.6c-6.1-4.3-12.2-7.2-15.9-13.9c-5-9.2-4.4-21.2,0.2-30.4
		c3.1-6.3,6.3-9.8,10.9-14.8C176.8,100.9,177.9,100.3,179,99.8z"/>
	<path fill="#FF3C00" d="M171.7,211.6c-7.1,0.6-14.8-3.1-19.1-6.3c-10.5-7.8-11-19.9-1.6-29c6-5.8,16.9-9.8,21.1-16.2
		c4.5,4.5,8.5,10.1,9.2,15.6c0.4,3.4-0.9,6.7-3.4,9c-2.8,2.6-7.2,3.9-10.5,6.1s-5.5,5.2-5.9,8.2
		C160.5,204.3,165.1,208.9,171.7,211.6z"/>
	<path fill="#E60012" d="M159.3,190.6c3.2-1.7,7.2-2.4,10.9-3.2c2.4-0.4,4.7-1.1,6.9-2.1c-2.8,2.2-6.7,3.4-9.7,5.4
		c-3.3,2.2-5.5,5.2-5.9,8.2c-0.9,5.4,3.8,10,10.4,12.7c-0.8,0.1-1.7,0.1-2.5,0.1c-2.8-0.5-5.5-1.7-7.8-3.3c-3.1-1.9-5.5-4.4-6.5-7.2
		C153.5,197,155.4,192.5,159.3,190.6z"/>
	<path fill="#FF5B00" d="M151,176.3c6-5.8,16.8-9.8,21-16.2c0.2,0.6,0.4,1.2,0.5,1.8c0.6,2.5,1,5.1,0.3,7.6
		c-1.2,4.3-5.8,8.2-11.8,10.2c-4.6,1.5-9.4,2.1-14.2,1.7C148,179.5,149.4,177.8,151,176.3z"/>
	<path fill="#FF3C00" d="M175.9,101.7c-2.5,3.5-1.5,10-0.3,13.7c1.5,4.4,3.9,8.5,7,12.1c4.5,5.2,10.1,8.9,15,13.5s9.5,9.1,13,14.8
		c6.4,10,7.2,22.6,2.1,33.4c-3.5,7.3-9.9,14.4-17.8,16.9c-8.6,2.8-18,2-26.9,2.1c4.3-0.1,9.2-3.7,12.2-6.5c6-5.4,9.5-12.9,8.9-21.1
		c-0.5-7.6-4.4-14.7-10.6-19.1c-6-4.1-12.1-6.8-15.9-13.4c-5.1-8.9-4.7-20.8-0.4-29.9c2.9-6.2,7.6-10.6,12.4-15.3
		C175.2,102.6,175.6,102.2,175.9,101.7z"/>
	<path fill="#E60012" d="M161.7,119.7c-1,6-1.1,11.6,1.6,17.3c5.4,11.1,17.8,13.4,26.8,20.5c4.3,3.3,7.7,7.5,10.1,12.4
		c5.8,12.1,2.6,27.6-9.7,34.2c-6,3.1-12.7,4.4-19.4,3.6c3.4-1.3,6.5-3.3,9.1-5.9c6-5.4,9.5-12.9,8.9-21.1
		c-0.5-7.6-4.4-14.7-10.6-19.1c-6-4.1-12.1-6.8-15.9-13.4C158,140,157,128,161.7,119.7z"/>
	<path fill="#FF5B00" d="M175.9,101.7c-2.5,3.5-1.5,10-0.3,13.7c1.5,4.4,3.9,8.5,7,12.1c4.5,5.2,10.1,8.9,15,13.5s9.5,9.1,13,14.8
		c4.5,7.3,6.3,15.9,4.9,24.4c-0.2-3.8-1-7.5-2.4-11.1c-3.4-9.2-10.2-16.8-19-21.2c-7.8-4-17.1-6.4-22.3-14.1
		c-6.1-9.2-3.2-22,3.1-31.1C175.3,102.4,175.6,102.1,175.9,101.7z"/>
</g>
</svg>
