<?xml version="1.0" encoding="iso-8859-1"?>
<!-- Generator: Adobe Illustrator 21.0.0, SVG Export Plug-In . SVG Version: 6.00 Build 0)  -->
<svg version="1.0" id="&#x56FE;&#x5C42;_1" xmlns="http://www.w3.org/2000/svg" xmlns:xlink="http://www.w3.org/1999/xlink" x="0px"
	 y="0px" width="256px" height="256px" viewBox="0 0 256 256" enable-background="new 0 0 256 256" xml:space="preserve">
<title>256</title>
<g id="&#x5E95;&#x677F;_&#x590D;&#x5236;">
	<g id="&#x5929;&#x84DD;&#x8272;">
		<g id="_256">
			<g opacity="8.000000e-02">
				<path d="M130,254c-41.5,0-78.2-10.9-95.6-28.4S6,171.5,6,130s10.9-78.2,28.4-95.6S88.5,6,130,6s78.1,10.9,95.6,28.4
					S254,88.5,254,130s-10.9,78.2-28.3,95.6S171.5,254,130,254z"/>
			</g>
			<g opacity="0.1">
				<path d="M130,252c-41,0-77.1-10.6-94.2-27.8c-37-37-37-151.5,0-188.5C52.9,18.6,89,8,130,8s77.1,10.6,94.2,27.8
					c37,37,37,151.5,0,188.5C207.1,241.4,171,252,130,252z"/>
			</g>
			<g opacity="0.2">
				<path d="M128,250c-41,0-77.1-10.6-94.2-27.8c-37-37-37-151.5,0-188.5C50.9,16.6,87,6,128,6s77.1,10.6,94.2,27.8
					c37,37,37,151.5,0,188.5C205.1,239.4,169,250,128,250z"/>
			</g>
			<g id="_256-2">
				
					<linearGradient id="SVGID_1_" gradientUnits="userSpaceOnUse" x1="128" y1="4244.0254" x2="128" y2="4004.0127" gradientTransform="matrix(1 0 0 1 0 -3996.0005)">
					<stop  offset="0" style="stop-color:#289AD8"/>
					<stop  offset="1" style="stop-color:#84D5F9"/>
				</linearGradient>
				<path fill="url(#SVGID_1_)" d="M220.8,220.8c-36.3,36.3-149.4,36.3-185.6,0s-36.3-149.4,0-185.6s149.4-36.3,185.6,0
					S257.1,184.6,220.8,220.8z"/>
			</g>
			
				<linearGradient id="SVGID_2_" gradientUnits="userSpaceOnUse" x1="128" y1="4236" x2="128" y2="4012.0002" gradientTransform="matrix(1 0 0 1 0 -3996.0005)">
				<stop  offset="0" style="stop-color:#0288D1"/>
				<stop  offset="1" style="stop-color:#4FC3F7"/>
			</linearGradient>
			<path fill="url(#SVGID_2_)" d="M128,240c-38.4,0-71.8-9.5-87.2-24.8S16,166.4,16,128s9.5-71.8,24.8-87.2S89.6,16,128,16
				s71.8,9.5,87.2,24.8S240,89.6,240,128s-9.5,71.8-24.8,87.2S166.4,240,128,240z"/>
		</g>
	</g>
</g>
<g id="&#x9E92;&#x9E9F;&#x5929;&#x6C14;">
	<path opacity="0.4" fill="#E6E8F7" enable-background="new    " d="M158.8,71.2c0-13-10.5-23.5-23.5-23.5l0,0h-0.1
		c-9-15.2-28.7-20.2-43.9-11.2C82.8,41.6,77,50.4,75.8,60.3h-0.2c-9.5,0-17.2,7.7-17.2,17.3c0,9.5,7.7,17.2,17.2,17.2h62v-0.1
		C149.7,93.4,158.8,83.3,158.8,71.2z"/>
	<path opacity="0.9" fill="#F8E069" enable-background="new    " d="M168.8,47.6l6.6-6.1l3.8,8.2c2.5,5.5,8.8,8.1,14.4,6l8.4-3.1
		l0.3,9c0.2,6,5,10.8,11.1,11.1l9,0.3l-3.1,8.4c-2.1,5.6,0.5,11.9,6,14.4l8.2,3.8l-6.1,6.6c-4.1,4.4-4.1,11.2,0,15.7l6.1,6.6
		l-8.2,3.8c-5.5,2.5-8.1,8.8-6,14.4l3.1,8.4l-9,0.3c-6,0.2-10.8,5-11.1,11.1l-0.3,9l-8.4-3.1c-5.6-2.1-11.9,0.5-14.4,6l-3.8,8.2
		l-6.6-6.1c-4.4-4.1-11.2-4.1-15.6,0l-6.6,6.1l-3.8-8.2c-2.5-5.5-8.8-8.1-14.4-6l-8.4,3.1l-0.3-9c-0.2-6-5-10.8-11.1-11.1l-9-0.3
		l3.1-8.4c2.1-5.6-0.5-11.9-6-14.4l-8.2-3.8l6.1-6.6c4.1-4.4,4.1-11.2,0-15.7l-6.1-6.6l8.2-3.8c5.5-2.5,8.1-8.8,6-14.4L99.6,73
		l9-0.3c6-0.2,10.8-5,11.1-11.1l0.3-9l8.4,3.1c5.6,2.1,11.9-0.5,14.4-6l3.8-8.2l6.6,6.1C157.6,51.7,164.4,51.7,168.8,47.6z"/>
	<path fill="#FDD03B" d="M161,171c-31.5,0-57-25.5-57-57s25.5-57,57-57s57,25.5,57,57S192.5,171,161,171z"/>
	<path fill="#FCE800" d="M161,58c30.9,0,56,25.1,56,56s-25.1,56-56,56s-56-25.1-56-56S130.1,58,161,58 M161,56c-32,0-58,26-58,58
		s26,58,58,58s58-26,58-58S193,56,161,56z"/>
	
		<radialGradient id="SVGID_3_" cx="161" cy="4110" r="43.5" gradientTransform="matrix(1 0 0 1 0 -3996.0005)" gradientUnits="userSpaceOnUse">
		<stop  offset="0" style="stop-color:#FFD12C"/>
		<stop  offset="0.25" style="stop-color:#FEC929"/>
		<stop  offset="0.63" style="stop-color:#FAB420"/>
		<stop  offset="0.99" style="stop-color:#F59916"/>
	</radialGradient>
	<circle fill="url(#SVGID_3_)" cx="161" cy="114" r="43.5"/>
	<g>
		<g>
			<defs>
				<path id="SVGID_4_" d="M128,240c-38.4,0-71.8-9.5-87.2-24.8S16,166.4,16,128s9.5-71.8,24.8-87.2S89.6,16,128,16
					s71.8,9.5,87.2,24.8S240,89.6,240,128s-9.5,71.8-24.8,87.2S166.4,240,128,240z"/>
			</defs>
			<clipPath id="SVGID_5_">
				<use xlink:href="#SVGID_4_"  overflow="visible"/>
			</clipPath>
			<g clip-path="url(#SVGID_5_)">
				<path opacity="0.3" fill="#E6E8F7" enable-background="new    " d="M22.6,192.2c0-23.9,19.4-43.3,43.3-43.3H66
					c10.7-18,30.1-29,51-28.9c30.5,0,55.6,22.8,58.5,52h0.3c17.6,0.3,31.5,14.8,31.2,32.3c-0.3,17.1-14.1,30.9-31.2,31.2H61.5v-0.2
					C39.4,233.1,22.6,214.4,22.6,192.2z"/>
				
					<linearGradient id="SVGID_6_" gradientUnits="userSpaceOnUse" x1="109.055" y1="4233.1216" x2="137.345" y2="4134.3213" gradientTransform="matrix(1 0 0 1 0 -3996.0005)">
					<stop  offset="6.000000e-02" style="stop-color:#E3E7F5"/>
					<stop  offset="1" style="stop-color:#FFFFFF"/>
				</linearGradient>
				<path fill="url(#SVGID_6_)" d="M64.6,245.2v-0.1l-0.9-0.1c-23.3-2.4-40.2-23.2-37.8-46.4c2.2-21.6,20.4-38.1,42.2-38h0.6L69,160
					c10.5-17.6,29.5-28.4,50.1-28.4c29.9,0,54.6,22,57.5,51.1l0.1,0.9h1.2c17-0.3,31,13.2,31.3,30.2S196,245,179,245.3
					c-0.4,0-0.7,0-1.1,0L64.6,245.2z"/>
				<path fill="#D0E2F1" d="M119.1,132.6c14.1,0,27.7,5.2,38.2,14.6c10.3,9.2,16.9,21.9,18.3,35.7l0.2,1.8h1.8h0.3
					c16.4,0.3,29.5,13.9,29.2,30.3c-0.3,16-13.2,28.9-29.2,29.2H65.6l0,0l-1.8-0.2c-22.7-2.3-39.3-22.6-37-45.3
					c2.1-21.2,20-37.2,41.2-37.2h1.2l0.6-1C80.2,143.3,98.9,132.6,119.1,132.6 M119.1,130.7c-20.9-0.1-40.3,10.9-50.9,28.9h-0.1
					c-23.9,0.3-43.1,19.9-42.9,43.8c0.2,21.9,16.7,40.1,38.4,42.6v0.2h114.3c17.6-0.3,31.5-14.8,31.2-32.3
					c-0.3-17.1-14.1-30.9-31.2-31.2h-0.3C174.7,153.4,149.6,130.7,119.1,130.7L119.1,130.7z"/>
			</g>
		</g>
	</g>
</g>
</svg>
