<svg xmlns="http://www.w3.org/2000/svg" xmlns:xlink="http://www.w3.org/1999/xlink" viewBox="0 0 256 256"><defs><style>.cls-1{opacity:0.08;}.cls-2{opacity:0.1;}.cls-3{opacity:0.2;}.cls-4{fill:url(#未命名的渐变_132);}.cls-5{fill:url(#未命名的渐变_115);}.cls-6{fill-rule:evenodd;fill:url(#未命名的渐变_31);}.cls-11,.cls-12,.cls-7{fill:none;stroke-linecap:round;stroke-miterlimit:10;}.cls-7{stroke:#1b579e;stroke-width:13.56px;}.cls-8{fill:#c3d0d8;}.cls-9{fill:url(#未命名的渐变_19);}.cls-10{fill:#adbcc4;}.cls-11,.cls-12{stroke:#909496;}.cls-11{stroke-width:5.04px;}.cls-12{stroke-width:4.99px;}</style><linearGradient id="未命名的渐变_132" x1="128" y1="248" x2="128" y2="8" gradientUnits="userSpaceOnUse"><stop offset="0.01" stop-color="#6d7375"/><stop offset="1" stop-color="#bebec4"/></linearGradient><linearGradient id="未命名的渐变_115" x1="128" y1="240" x2="128" y2="16" gradientUnits="userSpaceOnUse"><stop offset="0.01" stop-color="#797f82"/><stop offset="1" stop-color="#c9c9cf"/></linearGradient><linearGradient id="未命名的渐变_31" x1="-417.62" y1="306.4" x2="-417.62" y2="307.75" gradientTransform="translate(52469.99 -24352.78) scale(125.33 79.64)" gradientUnits="userSpaceOnUse"><stop offset="0" stop-color="#4399fe"/><stop offset="1" stop-color="#4376fe"/></linearGradient><linearGradient id="未命名的渐变_19" x1="128.5" y1="357" x2="128.5" y2="288" gradientTransform="matrix(1, 0, 0, -1, 0, 488)" gradientUnits="userSpaceOnUse"><stop offset="0" stop-color="#fff"/><stop offset="0.8" stop-color="#d1eaff"/><stop offset="1" stop-color="#e7f4ff"/></linearGradient></defs><title>256</title><g id="底板_复制"><g id="中灰色"><g id="_256" data-name="256"><g class="cls-1"><path d="M130,254c-41.5,0-78.15-10.87-95.64-28.36S6,171.52,6,130,16.88,51.83,34.36,34.36,88.5,6,130,6s78.15,10.87,95.64,28.36S254,88.48,254,130s-10.85,78.17-28.33,95.64S171.5,254,130,254Z"/></g><g class="cls-2"><path d="M130,252c-41,0-77.1-10.64-94.23-27.77-37-37-37-151.47,0-188.46C52.9,18.64,89,8,130,8s77.1,10.64,94.23,27.77c37,37,37,151.47,0,188.46C207.1,241.36,171,252,130,252Z"/></g><g class="cls-3"><path d="M128,250c-41,0-77.1-10.64-94.23-27.77-37-37-37-151.47,0-188.46C50.9,16.64,87,6,128,6s77.1,10.64,94.23,27.77c37,37,37,151.47,0,188.46C205.1,239.36,169,250,128,250Z"/></g><g id="_256-2" data-name="256"><circle class="cls-4" cx="128" cy="128" r="131.26"/></g><path class="cls-5" d="M128,240c-38.44,0-71.83-9.52-87.16-24.84S16,166.44,16,128s9.52-71.83,24.84-87.16S89.56,16,128,16s71.83,9.52,87.16,24.84S240,89.56,240,128s-9.52,71.83-24.84,87.16S166.44,240,128,240Z"/></g></g></g><g id="图层_28" data-name="图层 28"><g id="_256-3" data-name="256"><path id="形状结合" class="cls-6" d="M73.23,156h0C59.29,155.33,48,143.28,48,128.55c0-13.39,9.29-24.77,21.91-26.78,0-29.46,22.57-52.89,50.46-52.89,19.91,0,37.17,12,45.8,30.13,1.33,0,3.32-.67,5.32-.67,19.91,0,36.51,17.41,36.51,38.83,0,20.75-15.27,37.49-35.19,38.83H73.23Z"/><line class="cls-7" x1="75.12" y1="130.71" x2="180.88" y2="130.71"/><path class="cls-8" d="M148,207H90.16A12.19,12.19,0,0,1,78,194.79V131H178v46Z"/><path class="cls-9" d="M152.23,200H91.8a6.78,6.78,0,0,1-6.8-6.76V131h87v48.71Z"/><path class="cls-10" d="M148,207V183.78a6.79,6.79,0,0,1,6.78-6.78H178Z"/><line class="cls-11" x1="96.5" y1="179.5" x2="129.5" y2="179.5"/><line class="cls-12" x1="96.5" y1="163.5" x2="158.5" y2="163.5"/><line class="cls-12" x1="96.5" y1="147.5" x2="158.5" y2="147.5"/></g></g></svg>