<svg xmlns="http://www.w3.org/2000/svg" xmlns:xlink="http://www.w3.org/1999/xlink" viewBox="0 0 256 256"><defs><style>.cls-1{opacity:0.08;}.cls-2{opacity:0.1;}.cls-3{opacity:0.2;}.cls-4{fill:url(#未命名的渐变_86);}.cls-5{fill:url(#未命名的渐变_75);}.cls-6{fill:#0c0d10;}.cls-7{opacity:0.9;fill:url(#未命名的渐变_69);}.cls-8{fill:#333233;}.cls-9{fill:url(#未命名的渐变_85);}.cls-10{fill:#fff;}.cls-11{opacity:0.3;fill:url(#未命名的渐变_84);}.cls-12{opacity:0.26;fill:url(#未命名的渐变_84-2);}.cls-13{opacity:0.6;fill:url(#未命名的渐变_158);}.cls-14{fill:url(#未命名的渐变_45);}.cls-15{fill:url(#未命名的渐变_81);}.cls-16{opacity:0.8;fill:url(#未命名的渐变_150);}.cls-17{fill:url(#未命名的渐变_153);}.cls-18{fill:none;}.cls-19{fill:url(#未命名的渐变_78);}.cls-20{fill:url(#未命名的渐变_77);}</style><linearGradient id="未命名的渐变_86" x1="128" y1="248" x2="128" y2="8" gradientUnits="userSpaceOnUse"><stop offset="0" stop-color="#dae1e4"/><stop offset="1" stop-color="#f3f4fa"/></linearGradient><linearGradient id="未命名的渐变_75" x1="126.5" y1="239" x2="126.5" y2="15" gradientUnits="userSpaceOnUse"><stop offset="0" stop-color="#cfd8dc"/><stop offset="1" stop-color="#ebecf2"/></linearGradient><linearGradient id="未命名的渐变_69" x1="71.91" y1="405.62" x2="175.64" y2="301.89" gradientTransform="matrix(1, 0, 0, -1, 0, 488)" gradientUnits="userSpaceOnUse"><stop offset="0" stop-color="#fff" stop-opacity="0.4"/><stop offset="0.48" stop-color="#fff" stop-opacity="0.2"/><stop offset="1" stop-color="#fff" stop-opacity="0.3"/></linearGradient><linearGradient id="未命名的渐变_85" x1="62.47" y1="98.78" x2="188.59" y2="171.6" gradientUnits="userSpaceOnUse"><stop offset="0" stop-color="#6c7ba3" stop-opacity="0.3"/><stop offset="0.53" stop-color="#313030" stop-opacity="0"/><stop offset="0.88" stop-color="#5d6785" stop-opacity="0.22"/><stop offset="1" stop-color="#6c7ba3" stop-opacity="0.3"/></linearGradient><radialGradient id="未命名的渐变_84" cx="81.49" cy="115.98" r="51.61" gradientTransform="translate(0 -15.25) scale(1 1.13)" gradientUnits="userSpaceOnUse"><stop offset="0" stop-color="#6c7ba3" stop-opacity="0.8"/><stop offset="0.73" stop-color="#6c7ba3" stop-opacity="0"/></radialGradient><radialGradient id="未命名的渐变_84-2" cx="-882.47" cy="366.74" r="51.61" gradientTransform="translate(-717 543.96) rotate(180) scale(1 1.07)" xlink:href="#未命名的渐变_84"/><radialGradient id="未命名的渐变_158" cx="123.61" cy="134.08" r="27.58" gradientUnits="userSpaceOnUse"><stop offset="0" stop-color="#ff7761"/><stop offset="0.7" stop-color="#ff7761"/><stop offset="0.97" stop-color="#ff7761" stop-opacity="0"/></radialGradient><linearGradient id="未命名的渐变_45" x1="154.85" y1="132.22" x2="168.06" y2="38.21" gradientUnits="userSpaceOnUse"><stop offset="0" stop-color="#f94141"/><stop offset="1" stop-color="#ffbdab"/></linearGradient><linearGradient id="未命名的渐变_81" x1="112.11" y1="114.18" x2="135.1" y2="153.99" gradientUnits="userSpaceOnUse"><stop offset="0" stop-color="#ff7272"/><stop offset="0.97" stop-color="#fc624f"/></linearGradient><radialGradient id="未命名的渐变_150" cx="123.61" cy="134.51" fx="140.79849941860803" fy="150.22565081875842" r="23.29" gradientUnits="userSpaceOnUse"><stop offset="0" stop-color="#ff7272" stop-opacity="0"/><stop offset="0.33" stop-color="#ff7a79" stop-opacity="0.01"/><stop offset="0.58" stop-color="#ff9490" stop-opacity="0.05"/><stop offset="0.8" stop-color="#ffc1b7" stop-opacity="0.11"/><stop offset="1" stop-color="#ffffed" stop-opacity="0.2"/><stop offset="1" stop-color="#ffffed" stop-opacity="0.2"/></radialGradient><radialGradient id="未命名的渐变_153" cx="120.84" cy="128.48" r="18.03" gradientUnits="userSpaceOnUse"><stop offset="0" stop-color="#fff" stop-opacity="0.3"/><stop offset="0.22" stop-color="#fff" stop-opacity="0.26"/><stop offset="0.59" stop-color="#fff" stop-opacity="0.15"/><stop offset="1" stop-color="#fff" stop-opacity="0"/></radialGradient><linearGradient id="未命名的渐变_78" x1="156.47" y1="71.32" x2="217" y2="71.32" gradientUnits="userSpaceOnUse"><stop offset="0" stop-color="#ff7c74"/><stop offset="1" stop-color="#fc5151"/></linearGradient><radialGradient id="未命名的渐变_77" cx="166.17" cy="50.17" r="15.87" gradientUnits="userSpaceOnUse"><stop offset="0" stop-color="#fff" stop-opacity="0.2"/><stop offset="1" stop-color="#fff" stop-opacity="0"/></radialGradient></defs><title>256</title><g id="底板_复制"><g id="浅灰色"><g id="_256" data-name="256"><g class="cls-1"><path d="M130,254c-41.5,0-78.15-10.87-95.64-28.36S6,171.52,6,130,16.88,51.83,34.36,34.36,88.5,6,130,6s78.15,10.87,95.64,28.36S254,88.48,254,130s-10.85,78.17-28.33,95.64S171.5,254,130,254Z"/></g><g class="cls-2"><path d="M130,252c-41,0-77.1-10.64-94.23-27.77-37-37-37-151.47,0-188.46C52.9,18.64,89,8,130,8s77.1,10.64,94.23,27.77c37,37,37,151.47,0,188.46C207.1,241.36,171,252,130,252Z"/></g><g class="cls-3"><path d="M128,250c-41,0-77.1-10.64-94.23-27.77-37-37-37-151.47,0-188.46C50.9,16.64,87,6,128,6s77.1,10.64,94.23,27.77c37,37,37,151.47,0,188.46C205.1,239.36,169,250,128,250Z"/></g><g id="_256-2" data-name="256"><circle class="cls-4" cx="128" cy="128" r="131.26"/></g><path class="cls-5" d="M126.5,239c-38.44,0-71.83-9.52-87.16-24.84S14.5,165.44,14.5,127,24,55.17,39.34,39.84,88.06,15,126.5,15s71.83,9.52,87.16,24.84S238.5,88.56,238.5,127s-9.52,71.83-24.84,87.16S164.94,239,126.5,239Z"/></g></g></g><g id="麒麟音乐"><g id="_128" data-name="128"><path class="cls-6" d="M123.61,210.69a76.61,76.61,0,1,1,76.6-76.61v0A76.6,76.6,0,0,1,123.61,210.69Z"/><path class="cls-7" d="M123.61,207.62a73.5,73.5,0,1,1,18-2.24A72.8,72.8,0,0,1,123.61,207.62Zm.31-146A73.11,73.11,0,0,0,106,63.86a72.3,72.3,0,1,0,17.91-2.23Z"/><path class="cls-8" d="M123.64,93.12a41,41,0,1,0,41,41h0A41,41,0,0,0,123.64,93.12Zm0-32.58a73.54,73.54,0,1,1-73.58,73.54,73.54,73.54,0,0,1,73.58-73.54Z"/><path class="cls-9" d="M123.64,93.12a41,41,0,1,0,41,41h0A41,41,0,0,0,123.64,93.12Zm0-32.58a73.54,73.54,0,1,1-73.58,73.54,73.54,73.54,0,0,1,73.58-73.54Z"/><g class="cls-3"><path d="M123.63,62.11V62h-.06a361.1,361.1,0,1,1,.06.08Zm0,143.34a71.33,71.33,0,1,1,0-142.66h0a71.33,71.33,0,0,1,0,142.66Z"/><path d="M123.63,64.63h0a69.49,69.49,0,1,0,69.48,69.51A69.49,69.49,0,0,0,123.61,64.63Zm0,138.3a68.81,68.81,0,1,1,68.81-68.81A68.81,68.81,0,0,1,123.63,202.93Z"/><path d="M123.63,67.18a66.94,66.94,0,1,0,66.9,67A67,67,0,0,0,123.63,67.18Zm0,133.22a66.29,66.29,0,1,1,66.28-66.28A66.28,66.28,0,0,1,123.63,200.4Z"/><path d="M123.63,69.7A64.42,64.42,0,1,0,188,134.14,64.44,64.44,0,0,0,123.63,69.7Zm0,128.16a63.74,63.74,0,1,1,0-127.48h0a63.74,63.74,0,0,1,0,127.48Z"/><path d="M123.63,72.22h-.08a61.86,61.86,0,1,0,.08,0Zm0,123.12a61.22,61.22,0,1,1,61.21-61.22A61.22,61.22,0,0,1,123.63,195.34Z"/><path d="M123.63,74.75h0A59.37,59.37,0,1,0,183,134.14,59.37,59.37,0,0,0,123.61,74.75Zm0,118.06a58.69,58.69,0,1,1,58.69-58.69A58.69,58.69,0,0,1,123.63,192.81Z"/><path d="M123.63,77.29a56.83,56.83,0,1,0,56.81,56.85A56.85,56.85,0,0,0,123.63,77.29Zm0,113a56.15,56.15,0,1,1,0-112.3h0a56.15,56.15,0,0,1,0,112.3Z"/><path d="M123.63,79.81h0a54.31,54.31,0,1,0,54.3,54.33A54.32,54.32,0,0,0,123.61,79.81Zm0,107.94a53.63,53.63,0,1,1,53.62-53.63A53.63,53.63,0,0,1,123.63,187.75Z"/><path d="M123.63,82.34h0a51.78,51.78,0,1,0,51.78,51.8A51.78,51.78,0,0,0,123.61,82.34Zm-.12,102.88a51.1,51.1,0,1,1,51.16-51.1v.06A51.1,51.1,0,0,1,123.51,185.22Z"/><path d="M123.63,84.88h0a49.24,49.24,0,1,0,49.24,49.26A49.24,49.24,0,0,0,123.61,84.88Zm0,97.82a48.58,48.58,0,1,1,48.58-48.58A48.58,48.58,0,0,1,123.63,182.7Z"/><path d="M123.63,87.41h0a46.71,46.71,0,1,0,46.71,46.73A46.71,46.71,0,0,0,123.61,87.41Zm0,92.75a46,46,0,1,1,46-46A46,46,0,0,1,123.63,180.16Z"/><path d="M123.63,89.93h0a44.19,44.19,0,1,0,44.19,44.21A44.18,44.18,0,0,0,123.61,89.93Zm0,87.7a43.51,43.51,0,1,1,43.51-43.51A43.52,43.52,0,0,1,123.63,177.63Z"/></g><path class="cls-10" d="M158.85,134.06a35.24,35.24,0,1,1-35.26-35.22h0a35.22,35.22,0,0,1,35.22,35.22"/><path class="cls-11" d="M82.26,134.1a41.28,41.28,0,0,1,31.3-40l-3.92-32.72A74,74,0,0,0,59.05,170.62l26-21.73A41.25,41.25,0,0,1,82.26,134.1Z"/><path class="cls-12" d="M164.7,134.18a41.28,41.28,0,0,1-31.31,40l3.93,32.72A74,74,0,0,0,187.91,97.66L162,119.39A41.21,41.21,0,0,1,164.7,134.18Z"/><circle class="cls-13" cx="123.61" cy="134.08" r="27.58"/><path class="cls-14" d="M180.94,44a40.56,40.56,0,0,0-27-10.68,3.46,3.46,0,0,0-3.45,2.94l-11.3,80.57a22.91,22.91,0,1,0,7.56,22.63,2.07,2.07,0,0,0,.15-.34L156.3,70s9.57-2.77,17.1,2.33a28.54,28.54,0,0,0,13.47,5.2c8.42.72,20.71-.11,30.13-8.59,0,0-20.21-5.34-31.49-19.71A40.49,40.49,0,0,0,180.94,44Z"/><circle class="cls-15" cx="123.61" cy="134.08" r="22.98"/><circle class="cls-16" cx="123.61" cy="134.51" r="23.15"/><circle class="cls-17" cx="120.84" cy="128.48" r="18.16"/><rect class="cls-18" x="100.29" y="111.2" width="46.54" height="46.52"/><path class="cls-19" d="M206.5,64.93q-16,10.42-26.93,3.82-11.67-7-23.1,1.18c1.26-.32,10-2.34,16.93,2.38a28.54,28.54,0,0,0,13.47,5.2c8.42.72,20.71-.11,30.13-8.59A69.81,69.81,0,0,1,206.5,64.93Z"/><path class="cls-20" d="M180.54,54.55a18.75,18.75,0,0,0,.79-10.15c-.14-.13-.26-.28-.39-.41a40.5,40.5,0,0,0-20.31-10,18.22,18.22,0,0,0-8.81,10.15c-3.25,9,.54,18.55,8.47,21.43S177.29,63.5,180.54,54.55Z"/></g></g></svg>