<svg xmlns="http://www.w3.org/2000/svg" xmlns:xlink="http://www.w3.org/1999/xlink" viewBox="0 0 256 256"><defs><style>.cls-1{fill:none;}.cls-2{opacity:0.08;}.cls-3{opacity:0.1;}.cls-4,.cls-9{opacity:0.2;}.cls-5{fill:url(#未命名的渐变_86);}.cls-6{fill:url(#未命名的渐变_75);}.cls-7{fill:url(#未命名的渐变_141);}.cls-8{clip-path:url(#clip-path);}.cls-9{fill:#7d96ff;}.cls-10{fill:#e7eced;}.cls-11{fill:#b0b7bc;}.cls-12{fill:url(#未命名的渐变_15);}.cls-13{fill:url(#未命名的渐变_107);}.cls-14{fill:url(#未命名的渐变_15-2);}</style><linearGradient id="未命名的渐变_86" x1="128" y1="248" x2="128" y2="8" gradientUnits="userSpaceOnUse"><stop offset="0" stop-color="#dae1e4"/><stop offset="1" stop-color="#f3f4fa"/></linearGradient><linearGradient id="未命名的渐变_75" x1="126.5" y1="239" x2="126.5" y2="15" gradientUnits="userSpaceOnUse"><stop offset="0" stop-color="#cfd8dc"/><stop offset="1" stop-color="#ebecf2"/></linearGradient><linearGradient id="未命名的渐变_141" x1="128" y1="183" x2="128" y2="40" gradientUnits="userSpaceOnUse"><stop offset="0" stop-color="#3d01a1"/><stop offset="1" stop-color="#6d03c4"/></linearGradient><clipPath id="clip-path"><path id="SVGID" class="cls-1" d="M72.09,40H183.91A19.09,19.09,0,0,1,203,59.09V183.75a0,0,0,0,1,0,0H53a0,0,0,0,1,0,0V59.09A19.09,19.09,0,0,1,72.09,40Z"/></clipPath><linearGradient id="未命名的渐变_15" x1="74.88" y1="126.87" x2="181.13" y2="126.87" gradientUnits="userSpaceOnUse"><stop offset="0" stop-color="#009ffb"/><stop offset="1" stop-color="#8c59ff" stop-opacity="0.9"/></linearGradient><linearGradient id="未命名的渐变_107" x1="74.88" y1="108.74" x2="181.13" y2="108.74" gradientUnits="userSpaceOnUse"><stop offset="0" stop-color="#4ef09c" stop-opacity="0.9"/><stop offset="1" stop-color="#e9ff85"/></linearGradient><linearGradient id="未命名的渐变_15-2" x1="74.88" y1="90.95" x2="181.13" y2="90.95" xlink:href="#未命名的渐变_15"/></defs><title>256</title><g id="底板_复制"><g id="浅灰色"><g id="_256" data-name="256"><g class="cls-2"><path d="M130,254c-41.5,0-78.15-10.87-95.64-28.36S6,171.52,6,130,16.88,51.83,34.36,34.36,88.5,6,130,6s78.15,10.87,95.64,28.36S254,88.48,254,130s-10.85,78.17-28.33,95.64S171.5,254,130,254Z"/></g><g class="cls-3"><path d="M130,252c-41,0-77.1-10.64-94.23-27.77-37-37-37-151.47,0-188.46C52.9,18.64,89,8,130,8s77.1,10.64,94.23,27.77c37,37,37,151.47,0,188.46C207.1,241.36,171,252,130,252Z"/></g><g class="cls-4"><path d="M128,250c-41,0-77.1-10.64-94.23-27.77-37-37-37-151.47,0-188.46C50.9,16.64,87,6,128,6s77.1,10.64,94.23,27.77c37,37,37,151.47,0,188.46C205.1,239.36,169,250,128,250Z"/></g><g id="_256-2" data-name="256"><circle class="cls-5" cx="128" cy="128" r="131.26"/></g><path class="cls-6" d="M126.5,239c-38.44,0-71.83-9.52-87.16-24.84S14.5,165.44,14.5,127,24,55.17,39.34,39.84,88.06,15,126.5,15s71.83,9.52,87.16,24.84S238.5,88.56,238.5,127s-9.52,71.83-24.84,87.16S164.94,239,126.5,239Z"/></g></g></g><g id="图层_18" data-name="图层 18"><g id="_256-3" data-name="256"><path class="cls-7" d="M203,183H53V59.11A19.1,19.1,0,0,1,72.11,40H183.89A19.1,19.1,0,0,1,203,59.11Z"/><g class="cls-8"><rect class="cls-9" x="98.9" y="48.7" width="113.8" height="226.6" transform="translate(171.79 -62.19) rotate(47.96)"/></g><path class="cls-10" d="M53,183H203a0,0,0,0,1,0,0v12.83A19.17,19.17,0,0,1,183.83,215H72.17A19.17,19.17,0,0,1,53,195.83V183A0,0,0,0,1,53,183Z"/><circle class="cls-11" cx="128" cy="199" r="11"/><path class="cls-12" d="M120.74,90.35l-41.8,29.09a9.47,9.47,0,0,0,0,15.55l40,27.83a15.86,15.86,0,0,0,18.14,0l40-27.83a9.47,9.47,0,0,0,0-15.55l-41.8-29.09A12.7,12.7,0,0,0,120.74,90.35Z"/><path class="cls-13" d="M120.74,72.21l-41.8,29.1a9.47,9.47,0,0,0,0,15.55l40,27.83a15.86,15.86,0,0,0,18.14,0l40-27.83a9.47,9.47,0,0,0,0-15.55l-41.8-29.1A12.73,12.73,0,0,0,120.74,72.21Z"/><path class="cls-14" d="M118.93,55.35l-40,27.83a9.47,9.47,0,0,0,0,15.55l40,27.83a15.89,15.89,0,0,0,18.14,0l40-27.83a9.47,9.47,0,0,0,0-15.55l-40-27.83A15.86,15.86,0,0,0,118.93,55.35Z"/></g></g></svg>