<svg xmlns="http://www.w3.org/2000/svg" xmlns:xlink="http://www.w3.org/1999/xlink" viewBox="0 0 256 256"><defs><style>.cls-1{fill:none;}.cls-2{opacity:0.08;}.cls-3{opacity:0.1;}.cls-4{opacity:0.2;}.cls-5{fill:url(#未命名的渐变_147);}.cls-6{fill:url(#未命名的渐变_125);}.cls-7,.cls-9{fill:#fff;isolation:isolate;}.cls-7{opacity:0.65;}.cls-8{clip-path:url(#clip-path);}.cls-9{opacity:0.8;}</style><linearGradient id="未命名的渐变_147" x1="128" y1="248" x2="128" y2="8" gradientUnits="userSpaceOnUse"><stop offset="0" stop-color="#c1822f"/><stop offset="1" stop-color="#ead968"/></linearGradient><linearGradient id="未命名的渐变_125" x1="128" y1="240" x2="128" y2="16" gradientUnits="userSpaceOnUse"><stop offset="0" stop-color="#b1771c"/><stop offset="1" stop-color="#e5c956"/></linearGradient><clipPath id="clip-path"><path id="SVGID" class="cls-1" d="M129,199.6l63.22-35.71a1.53,1.53,0,0,0,.78-1.41V93.81a1.53,1.53,0,0,0-1.5-1.54,1.62,1.62,0,0,0-.8.21l-59,33.31A5.3,5.3,0,0,0,129,130.4Z"/></clipPath></defs><title>256</title><g id="底板_复制"><g id="棕色"><g id="_256" data-name="256"><g class="cls-2"><path d="M130,254c-41.5,0-78.15-10.87-95.64-28.36S6,171.52,6,130,16.88,51.83,34.36,34.36,88.5,6,130,6s78.15,10.87,95.64,28.36S254,88.48,254,130s-10.85,78.17-28.33,95.64S171.5,254,130,254Z"/></g><g class="cls-3"><path d="M130,252c-41,0-77.1-10.64-94.23-27.77-37-37-37-151.47,0-188.46C52.9,18.64,89,8,130,8s77.1,10.64,94.23,27.77c37,37,37,151.47,0,188.46C207.1,241.36,171,252,130,252Z"/></g><g class="cls-4"><path d="M128,250c-41,0-77.1-10.64-94.23-27.77-37-37-37-151.47,0-188.46C50.9,16.64,87,6,128,6s77.1,10.64,94.23,27.77c37,37,37,151.47,0,188.46C205.1,239.36,169,250,128,250Z"/></g><g id="_256-2" data-name="256"><circle class="cls-5" cx="128" cy="128" r="131.26"/></g><path class="cls-6" d="M128,240c-38.44,0-71.83-9.52-87.16-24.84S16,166.44,16,128s9.52-71.83,24.84-87.16S89.56,16,128,16s71.83,9.52,87.16,24.84S240,89.56,240,128s-9.52,71.83-24.84,87.16S166.44,240,128,240Z"/></g></g></g><g id="外部控制器"><g id="_256-3" data-name="256"><path class="cls-7" d="M63,96.4v61.85a9.06,9.06,0,0,0,4.69,8l55.73,30.88a9.55,9.55,0,0,0,9.16,0l55.73-31a9.06,9.06,0,0,0,4.69-8V96.4a9,9,0,0,0-4.69-8l-55.73-31a9.5,9.5,0,0,0-9.16,0L67.69,88.51A9,9,0,0,0,63,96.4Z"/><g class="cls-8"><path class="cls-9" d="M65,96.46v61.73a9.05,9.05,0,0,0,4.61,7.95L124.49,197a9.26,9.26,0,0,0,9,0l54.88-30.89a9.06,9.06,0,0,0,4.62-7.95V96.46a9,9,0,0,0-4.62-7.95L133.5,57.59a9.26,9.26,0,0,0-9,0l-54.88,31A9,9,0,0,0,65,96.46Z"/></g></g></g></svg>