<svg xmlns="http://www.w3.org/2000/svg" xmlns:xlink="http://www.w3.org/1999/xlink" viewBox="0 0 256 256"><defs><style>.cls-1{opacity:0.08;}.cls-2{opacity:0.1;}.cls-3{opacity:0.2;}.cls-4{fill:url(#未命名的渐变_36);}.cls-5{fill:url(#未命名的渐变_12);}.cls-6{fill:#fff;}</style><linearGradient id="未命名的渐变_36" x1="128" y1="248" x2="128" y2="8" gradientUnits="userSpaceOnUse"><stop offset="0" stop-color="#289ad8"/><stop offset="1" stop-color="#84d5f9"/></linearGradient><linearGradient id="未命名的渐变_12" x1="128" y1="240" x2="128" y2="16" gradientUnits="userSpaceOnUse"><stop offset="0" stop-color="#0288d1"/><stop offset="1" stop-color="#4fc3f7"/></linearGradient></defs><title>256</title><g id="底板_复制"><g id="天蓝色"><g id="_256" data-name="256"><g class="cls-1"><path d="M130,254c-41.5,0-78.15-10.87-95.64-28.36S6,171.52,6,130,16.88,51.83,34.36,34.36,88.5,6,130,6s78.15,10.87,95.64,28.36S254,88.48,254,130s-10.85,78.17-28.33,95.64S171.5,254,130,254Z"/></g><g class="cls-2"><path d="M130,252c-41,0-77.1-10.64-94.23-27.77-37-37-37-151.47,0-188.46C52.9,18.64,89,8,130,8s77.1,10.64,94.23,27.77c37,37,37,151.47,0,188.46C207.1,241.36,171,252,130,252Z"/></g><g class="cls-3"><path d="M128,250c-41,0-77.1-10.64-94.23-27.77-37-37-37-151.47,0-188.46C50.9,16.64,87,6,128,6s77.1,10.64,94.23,27.77c37,37,37,151.47,0,188.46C205.1,239.36,169,250,128,250Z"/></g><g id="_256-2" data-name="256"><circle class="cls-4" cx="128" cy="128" r="131.26"/></g><path class="cls-5" d="M128,240c-38.44,0-71.83-9.52-87.16-24.84S16,166.44,16,128s9.52-71.83,24.84-87.16S89.56,16,128,16s71.83,9.52,87.16,24.84S240,89.56,240,128s-9.52,71.83-24.84,87.16S166.44,240,128,240Z"/></g></g></g><g id="图层_31" data-name="图层 31"><g id="_256-3" data-name="256"><polygon class="cls-6" points="128 114.72 111.06 97.9 90.01 97.9 98.08 105.91 117.47 125.18 128 135.63 138.53 125.18 157.61 106.22 165.99 97.9 144.94 97.9 128 114.72"/><path class="cls-6" d="M167.32,97.9c-.19-.26-.37-.52-.56-.77l-.77.77-8.38,8.32a35.52,35.52,0,0,1,6.28,20.2,36.16,36.16,0,0,1-72.31,0,35.56,35.56,0,0,1,6.5-20.51L90,97.9l-1.07-1.06c-.27.35-.53.7-.79,1.06a48.13,48.13,0,0,0-9.33,28.52,48.92,48.92,0,0,0,97.83,0A48.13,48.13,0,0,0,167.32,97.9Z"/><polygon class="cls-6" points="90.01 97.9 111.06 97.9 108.92 95.77 99.7 86.61 94.05 81 73 81 88.94 96.84 90.01 97.9"/><polygon class="cls-6" points="146.88 95.97 144.94 97.9 165.99 97.9 166.76 97.13 183 81 161.95 81 156.08 86.83 146.88 95.97"/></g></g></svg>