<svg xmlns="http://www.w3.org/2000/svg" xmlns:xlink="http://www.w3.org/1999/xlink" viewBox="0 0 256 256"><defs><style>.cls-1{opacity:0.08;}.cls-2{opacity:0.1;}.cls-3{opacity:0.2;}.cls-4{fill:url(#未命名的渐变_86);}.cls-5{fill:url(#未命名的渐变_75);}.cls-11,.cls-12,.cls-13,.cls-14,.cls-15,.cls-16,.cls-17,.cls-18,.cls-6,.cls-7,.cls-8,.cls-9{fill-rule:evenodd;}.cls-6{fill:url(#未命名的渐变_113);}.cls-7{fill:url(#未命名的渐变_124);}.cls-8{fill:url(#未命名的渐变_113-2);}.cls-9{fill:url(#未命名的渐变_122);}.cls-10{fill:url(#未命名的渐变_121);}.cls-11{fill:url(#未命名的渐变_113-3);}.cls-12{fill:#fff;}.cls-13{fill:#f1f4ff;}.cls-14{fill:#d3e2f3;opacity:0.8;isolation:isolate;}.cls-15{fill:#5b7aff;}.cls-16{fill:#5978fc;}.cls-17{fill:url(#未命名的渐变_106);}.cls-18{fill:url(#未命名的渐变_106-2);}.cls-19{fill:url(#未命名的渐变_116);}</style><linearGradient id="未命名的渐变_86" x1="128" y1="248" x2="128" y2="8" gradientUnits="userSpaceOnUse"><stop offset="0" stop-color="#dae1e4"/><stop offset="1" stop-color="#f3f4fa"/></linearGradient><linearGradient id="未命名的渐变_75" x1="126.5" y1="239" x2="126.5" y2="15" gradientUnits="userSpaceOnUse"><stop offset="0" stop-color="#cfd8dc"/><stop offset="1" stop-color="#ebecf2"/></linearGradient><linearGradient id="未命名的渐变_113" x1="-328.2" y1="293.77" x2="-327.45" y2="292.17" gradientTransform="matrix(109.13, 0, 0, -108.98, 35898.8, 32017.8)" gradientUnits="userSpaceOnUse"><stop offset="0" stop-color="#8af7ff"/><stop offset="1" stop-color="#4848ff"/></linearGradient><linearGradient id="未命名的渐变_124" x1="-328.32" y1="293.25" x2="-327.14" y2="292.25" gradientTransform="matrix(109.13, 0, 0, -108.99, 35899.08, 32021.53)" gradientUnits="userSpaceOnUse"><stop offset="0" stop-color="#8adaff"/><stop offset="1" stop-color="#4848ff"/></linearGradient><linearGradient id="未命名的渐变_113-2" x1="-326.56" y1="295.45" x2="-325.77" y2="292.8" gradientTransform="matrix(67.75, 0, 0, -79.69, 22163.02, 23466.42)" xlink:href="#未命名的渐变_113"/><linearGradient id="未命名的渐变_122" x1="51.79" y1="232.8" x2="93.4" y2="93.06" gradientUnits="userSpaceOnUse"><stop offset="0" stop-color="#fff" stop-opacity="0"/><stop offset="1" stop-color="#fefefe"/></linearGradient><linearGradient id="未命名的渐变_121" x1="-324.85" y1="299.4" x2="-323.25" y2="299.32" gradientTransform="matrix(52.14, 0, 0, -13.61, 16981.98, 4239.08)" gradientUnits="userSpaceOnUse"><stop offset="0" stop-color="#c0e2ff"/><stop offset="1" stop-color="#fff" stop-opacity="0"/></linearGradient><linearGradient id="未命名的渐变_113-3" x1="-325.64" y1="293.48" x2="-325.93" y2="292.29" gradientTransform="matrix(67.75, 0, 0, -79.69, 22163.03, 23466.43)" xlink:href="#未命名的渐变_113"/><linearGradient id="未命名的渐变_106" x1="-322.02" y1="293.36" x2="-323.05" y2="294.72" gradientTransform="matrix(45.53, 0, 0, -50.18, 14815.79, 14871.26)" gradientUnits="userSpaceOnUse"><stop offset="0" stop-color="#bacbff"/><stop offset="1" stop-color="#fff"/></linearGradient><linearGradient id="未命名的渐变_106-2" x1="167.77" y1="174.84" x2="127.04" y2="135.49" gradientTransform="matrix(1, 0, 0, 1, 0, 0)" xlink:href="#未命名的渐变_106"/><linearGradient id="未命名的渐变_116" x1="126.52" y1="94.3" x2="128.25" y2="141.69" gradientUnits="userSpaceOnUse"><stop offset="0" stop-color="#6da8fd"/><stop offset="1" stop-color="#5364ff"/></linearGradient></defs><title>256</title><g id="底板_复制"><g id="浅灰色"><g id="_256" data-name="256"><g class="cls-1"><path d="M130,254c-41.5,0-78.15-10.87-95.64-28.36S6,171.52,6,130,16.88,51.83,34.36,34.36,88.5,6,130,6s78.15,10.87,95.64,28.36S254,88.48,254,130s-10.85,78.17-28.33,95.64S171.5,254,130,254Z"/></g><g class="cls-2"><path d="M130,252c-41,0-77.1-10.64-94.23-27.77-37-37-37-151.47,0-188.46C52.9,18.64,89,8,130,8s77.1,10.64,94.23,27.77c37,37,37,151.47,0,188.46C207.1,241.36,171,252,130,252Z"/></g><g class="cls-3"><path d="M128,250c-41,0-77.1-10.64-94.23-27.77-37-37-37-151.47,0-188.46C50.9,16.64,87,6,128,6s77.1,10.64,94.23,27.77c37,37,37,151.47,0,188.46C205.1,239.36,169,250,128,250Z"/></g><g id="_256-2" data-name="256"><circle class="cls-4" cx="128" cy="128" r="131.26"/></g><path class="cls-5" d="M126.5,239c-38.44,0-71.83-9.52-87.16-24.84S14.5,165.44,14.5,127,24,55.17,39.34,39.84,88.06,15,126.5,15s71.83,9.52,87.16,24.84S238.5,88.56,238.5,127s-9.52,71.83-24.84,87.16S164.94,239,126.5,239Z"/></g></g></g><g id="U盘启动"><g id="_256-3" data-name="256"><path id="Fill-1" class="cls-6" d="M128,220h0a87,87,0,0,1-87-87V46H215v87a87,87,0,0,1-87,87"/><path id="Fill-1-2" data-name="Fill-1" class="cls-7" d="M157,46V82h7.32v48.82a31.3,31.3,0,0,1-31.3,31.3H123a31.3,31.3,0,0,1-31.3-31.3V82H99V46H41v87a87,87,0,0,0,174,0V46Z"/><path id="Fill-3" class="cls-8" d="M149,157.53a31.21,31.21,0,0,1-15.88,4.31h-10a31.29,31.29,0,0,1-31.35-31.22V81.91h7.34V46H41v86.8a86.66,86.66,0,0,0,2.47,20.51A87.53,87.53,0,0,0,149,157.53"/><path class="cls-9" d="M42,46H41c1.14,67.49,35.4,121.64,77.46,121.64a48.73,48.73,0,0,0,20.44-4.34,46.59,46.59,0,0,1-19.59,3.95C77.33,167.26,43.25,113.32,42,46Z"/><path id="路径-8" class="cls-10" d="M43.59,154.22c20.94,19,52.55,24.41,82.76,16.12l-.53-1.3c-32.69,10.22-64.75.45-82.61-16.66Z"/><path id="Fill-5" class="cls-11" d="M41,46h0v86.8a86.75,86.75,0,0,0,2.47,20.52,87.89,87.89,0,0,0,105.64,4.31c-.05,0-.19,0-.24,0-9.33,6.45-19.62,10-30.41,10C76.4,167.64,42.14,113.49,41,46Z"/><polygon id="Fill-5-2" data-name="Fill-5" class="cls-12" points="98.74 81.59 157.26 81.59 157.26 46 98.74 46 98.74 81.59"/><polygon id="Fill-5备份-2" class="cls-13" points="121.14 81.23 157.26 81.59 157.26 46 104.09 46 121.14 81.23"/><polygon id="Fill-5备份" class="cls-14" points="98.74 81.98 157.26 81.98 157.26 78.43 98.74 80.61 98.74 81.98"/><polygon id="Fill-7" class="cls-15" points="109.81 68.94 120.88 68.94 120.88 57.86 109.81 57.86 109.81 68.94"/><polygon id="Fill-8" class="cls-16" points="135.12 68.94 146.19 68.94 146.19 57.86 135.12 57.86 135.12 68.94"/><path id="path-8" class="cls-17" d="M123,163.85a31.33,31.33,0,0,1-31.37-31.28v-51h72.76v51A31.33,31.33,0,0,1,133,163.85Z"/><path class="cls-18" d="M133,158.31H123A31.32,31.32,0,0,1,91.62,127v5.54A31.33,31.33,0,0,0,123,163.85h10a31.33,31.33,0,0,0,31.37-31.28V127A31.32,31.32,0,0,1,133,158.31Z"/><path class="cls-19" d="M140.65,113.23a3.16,3.16,0,1,0-6.32,0,3.12,3.12,0,0,0,1.58,2.68v.48c0,1.28-4.15,3.3-6.33,4.53V103.74h3.17L128,94.25l-4.75,9.49h3.17v20.44a12.19,12.19,0,0,1-7.91-11h1.58V106.9h-6.33v6.33h1.59a15.33,15.33,0,0,0,10.57,14.15l.5.17v5a4.75,4.75,0,1,0,3.16,0v-8l.71-.36c1.2-.6,8.78-3.8,8.78-7.74v-.48A3.12,3.12,0,0,0,140.65,113.23Z"/></g></g></svg>