<svg xmlns="http://www.w3.org/2000/svg" xmlns:xlink="http://www.w3.org/1999/xlink" viewBox="0 0 256 256"><defs><style>.cls-1{opacity:0.08;}.cls-1,.cls-2,.cls-3{isolation:isolate;}.cls-2{opacity:0.1;}.cls-3{opacity:0.2;}.cls-4{fill:url(#未命名的渐变_110);}.cls-5{fill:#f2f2f2;}.cls-6{fill:#e6e6e6;}.cls-7{fill:#ccc;}.cls-8{fill:#fff;}.cls-9{fill:none;}.cls-10{fill:url(#未命名的渐变_99);}</style><linearGradient id="未命名的渐变_110" x1="128" y1="398" x2="128" y2="638" gradientTransform="matrix(1, 0, 0, -1, 0, 646)" gradientUnits="userSpaceOnUse"><stop offset="0" stop-color="#f94974"/><stop offset="1" stop-color="#c877fb"/></linearGradient><linearGradient id="未命名的渐变_99" x1="188" y1="322" x2="70" y2="322" gradientTransform="matrix(1, 0, 0, -1, 0, 488)" gradientUnits="userSpaceOnUse"><stop offset="0.03" stop-color="#fff"/><stop offset="1" stop-color="#e6e6e6"/></linearGradient></defs><title>256</title><g id="圆"><g id="_256" data-name="256"><path class="cls-1" d="M130,254A124,124,0,1,1,254,130,124,124,0,0,1,130,254Z"/><path class="cls-2" d="M130,252A122,122,0,1,1,252,130,122,122,0,0,1,130,252Z"/><path class="cls-3" d="M128,250A122,122,0,1,1,250,128,122,122,0,0,1,128,250Z"/><path class="cls-4" d="M128,8A120,120,0,1,0,248,128,120,120,0,0,0,128,8Z"/></g></g><g id="录音"><g id="_256-2" data-name="256"><path class="cls-5" d="M129,53a30.12,30.12,0,0,0-3.91.29,29,29,0,0,0-16.28,7.78,26.59,26.59,0,0,0-8.31,19.17v41.52c0,15,12.82,27.24,28.5,27.24a30.12,30.12,0,0,0,3.91-.29,29,29,0,0,0,16.28-7.78,26.59,26.59,0,0,0,8.31-19.17V80.24C157.5,65.26,144.68,53,129,53Z"/><path class="cls-6" d="M119.21,61.53a27.64,27.64,0,0,1,5.88-8.24,29,29,0,0,0-16.28,7.78A27.6,27.6,0,0,1,119.21,61.53Z"/><path class="cls-6" d="M138.79,140.47a27.64,27.64,0,0,1-5.88,8.24,29,29,0,0,0,16.28-7.78A27.6,27.6,0,0,1,138.79,140.47Z"/><path class="cls-7" d="M157.5,80.24c0-15-12.82-27.24-28.5-27.24a30.12,30.12,0,0,0-3.91.29,27.64,27.64,0,0,0-5.88,8.24c12.57,2.83,22,13.65,22,26.5v41.51a25.93,25.93,0,0,1-2.42,10.93,27.6,27.6,0,0,0,10.4.46,26.59,26.59,0,0,0,8.31-19.17Z"/><path class="cls-8" d="M116.79,114V72.46a25.93,25.93,0,0,1,2.42-10.93,27.6,27.6,0,0,0-10.4-.46,26.59,26.59,0,0,0-8.31,19.17v41.52c0,15,12.82,27.24,28.5,27.24a30.12,30.12,0,0,0,3.91-.29,27.64,27.64,0,0,0,5.88-8.24C126.22,137.64,116.79,126.82,116.79,114Z"/><path class="cls-5" d="M116.79,114c0,12.85,9.43,23.67,22,26.5a25.93,25.93,0,0,0,2.42-10.93V88c0-12.85-9.43-23.67-22-26.5a25.93,25.93,0,0,0-2.42,10.93Z"/><path class="cls-9" d="M129.5,162.42A50,50,0,0,0,176.94,128H82.06A50,50,0,0,0,129.5,162.42Z"/><path class="cls-10" d="M188,127H176a49.33,49.33,0,0,1-94,0H70a61.12,61.12,0,0,0,54.63,45.83,5.64,5.64,0,0,0-.12,1.16v25a6,6,0,0,0,12,0V174a5.8,5.8,0,0,0-.18-1.44A61.19,61.19,0,0,0,188,127Z"/></g></g></svg>