<?xml version="1.0" encoding="iso-8859-1"?>
<!-- Generator: Adobe Illustrator 21.0.0, SVG Export Plug-In . SVG Version: 6.00 Build 0)  -->
<svg version="1.1" id="&#x56FE;&#x5C42;_1" xmlns="http://www.w3.org/2000/svg" xmlns:xlink="http://www.w3.org/1999/xlink" x="0px"
	 y="0px" viewBox="0 0 256 256" style="enable-background:new 0 0 256 256;" xml:space="preserve">
<title>256</title>
<g id="&#x5E95;&#x677F;_&#x590D;&#x5236;">
	<g id="&#x84DD;&#x8272;">
		<g id="_256">
			<g style="opacity:0.08;">
				<path d="M130,254c-41.5,0-78.15-10.87-95.64-28.36S6,171.52,6,130s10.88-78.17,28.36-95.64S88.5,6,130,6
					s78.15,10.87,95.64,28.36S254,88.48,254,130s-10.85,78.17-28.33,95.64S171.5,254,130,254z"/>
			</g>
			<g style="opacity:0.1;">
				<path d="M130,252c-41,0-77.1-10.64-94.23-27.77c-37-37-37-151.47,0-188.46C52.9,18.64,89,8,130,8s77.1,10.64,94.23,27.77
					c37,37,37,151.47,0,188.46C207.1,241.36,171,252,130,252z"/>
			</g>
			<g style="opacity:0.2;">
				<path d="M128,250c-41,0-77.1-10.64-94.23-27.77c-37-37-37-151.47,0-188.46C50.9,16.64,87,6,128,6s77.1,10.64,94.23,27.77
					c37,37,37,151.47,0,188.46C205.1,239.36,169,250,128,250z"/>
			</g>
			<g id="_256-2">
				
					<linearGradient id="SVGID_1_" gradientUnits="userSpaceOnUse" x1="128.0031" y1="7.9925" x2="128.0031" y2="247.9975" gradientTransform="matrix(1 0 0 -1 0 256)">
					<stop  offset="0" style="stop-color:#4676AD"/>
					<stop  offset="1" style="stop-color:#96BEFF"/>
				</linearGradient>
				<path style="fill:url(#SVGID_1_);" d="M220.82,220.82c-36.25,36.25-149.38,36.25-185.63,0s-36.25-149.38,0-185.63
					s149.38-36.25,185.63,0S257.06,184.57,220.82,220.82z"/>
			</g>
			
				<linearGradient id="SVGID_2_" gradientUnits="userSpaceOnUse" x1="128" y1="16" x2="128" y2="240" gradientTransform="matrix(1 0 0 -1 0 256)">
				<stop  offset="0" style="stop-color:#3A6BA1"/>
				<stop  offset="1" style="stop-color:#78ABFF"/>
			</linearGradient>
			<path style="fill:url(#SVGID_2_);" d="M128,240c-38.44,0-71.83-9.52-87.16-24.84S16,166.44,16,128s9.52-71.83,24.84-87.16
				S89.56,16,128,16s71.83,9.52,87.16,24.84S240,89.56,240,128s-9.52,71.83-24.84,87.16S166.44,240,128,240z"/>
		</g>
	</g>
</g>
<g id="gnome-help-&#x84DD;&#x8272;">
	<g id="_256-3">
		<path style="fill:#1F4C8C;" d="M133.41,163.83c-0.38-13.94,2.75-27.48,16-37.07c14-10.85,27.51-24.42,26.09-40.4
			c-0.33-15.42-18.42-27.52-37.92-29.26c-21.94-3-48.51,4.44-55.86,21.46C78,86.83,81.5,101.67,94,101.67c7.32,0,10.68-4.7,11.23-9
			c0.42-3.25-0.93-6.15-1.72-8.83c-0.91-3.06,2.95-9,7.16-11.41c2.42-1.323,5.026-2.274,7.73-2.82c12.62-3,25.19,3.64,30.44,11.74
			s-0.52,20.34-8.82,32.29s-17.21,25.49-17.18,39.89c0,5.49-0.49,7.34-0.15,9.55C123,164.87,128.89,164.66,133.41,163.83z
			 M127.65,182.59c-12.05-0.64-20.4,12.92-13.17,21.59c6.48,9.54,24.64,7.17,27.73-3.63C145.45,192.14,137.69,182.46,127.65,182.59z
			"/>
		
			<linearGradient id="SVGID_3_" gradientUnits="userSpaceOnUse" x1="80.3116" y1="127.996" x2="175.6029" y2="127.996" gradientTransform="matrix(1 0 0 -1 0 256)">
			<stop  offset="0" style="stop-color:#E2F4FB"/>
			<stop  offset="1" style="stop-color:#F9F9F9"/>
		</linearGradient>
		<path style="fill:url(#SVGID_3_);" d="M133.41,158.53c-0.38-13.94,2.75-27.48,16-37.07c14-10.85,27.51-24.42,26.09-40.4
			c-0.33-15.42-18.42-27.52-37.92-29.26c-21.94-3-48.51,4.44-55.86,21.46C78,81.53,81.5,96.37,94,96.37c7.32,0,10.68-4.7,11.23-9
			c0.42-3.25-0.93-6.15-1.72-8.83c-0.91-3.06,2.95-9,7.16-11.41c2.42-1.323,5.026-2.274,7.73-2.82c12.62-3,25.19,3.64,30.44,11.74
			s-0.52,20.34-8.82,32.29s-17.21,25.49-17.18,39.89c0,5.49-0.49,7.34-0.15,9.55C123,159.57,128.89,159.36,133.41,158.53z
			 M127.65,177.29c-12.05-0.64-20.4,12.92-13.17,21.59c6.48,9.54,24.64,7.17,27.73-3.63C145.45,186.84,137.69,177.16,127.65,177.29z
			"/>
	</g>
</g>
</svg>
