<?xml version="1.0" encoding="iso-8859-1"?>
<!-- Generator: Adobe Illustrator 21.0.0, SVG Export Plug-In . SVG Version: 6.00 Build 0)  -->
<svg version="1.0" id="&#x56FE;&#x5C42;_1" xmlns="http://www.w3.org/2000/svg" xmlns:xlink="http://www.w3.org/1999/xlink" x="0px"
	 y="0px" width="256px" height="256px" viewBox="0 0 256 256" enable-background="new 0 0 256 256" xml:space="preserve">
<title>256</title>
<g>
	<g id="&#x5E95;&#x677F;_&#x590D;&#x5236;">
		<g id="&#x6DF1;&#x7070;&#x8272;">
			<g id="_256">
				<g opacity="8.000000e-02">
					<path d="M130,254c-41.5,0-78.2-10.9-95.6-28.4S6,171.5,6,130s10.9-78.2,28.4-95.6S88.5,6,130,6s78.1,10.9,95.6,28.4
						S254,88.5,254,130s-10.9,78.2-28.3,95.6S171.5,254,130,254z"/>
				</g>
				<g opacity="0.1">
					<path d="M130,252c-41,0-77.1-10.6-94.2-27.8c-37-37-37-151.5,0-188.5C52.9,18.6,89,8,130,8s77.1,10.6,94.2,27.8
						c37,37,37,151.5,0,188.5C207.1,241.4,171,252,130,252z"/>
				</g>
				<g opacity="0.2">
					<path d="M128,250c-41,0-77.1-10.6-94.2-27.8c-37-37-37-151.5,0-188.5C50.9,16.6,87,6,128,6s77.1,10.6,94.2,27.8
						c37,37,37,151.5,0,188.5C205.1,239.4,169,250,128,250z"/>
				</g>
				<g id="_256-2">
					
						<linearGradient id="SVGID_1_" gradientUnits="userSpaceOnUse" x1="128" y1="4243.9951" x2="128" y2="4003.9824" gradientTransform="matrix(1 0 0 1 0 -3995.9702)">
						<stop  offset="0" style="stop-color:#000000"/>
						<stop  offset="1" style="stop-color:#34484F"/>
					</linearGradient>
					<path fill="url(#SVGID_1_)" d="M220.8,220.8c-36.3,36.3-149.4,36.3-185.6,0s-36.3-149.4,0-185.6s149.4-36.3,185.6,0
						S257.1,184.6,220.8,220.8z"/>
				</g>
				
					<linearGradient id="SVGID_2_" gradientUnits="userSpaceOnUse" x1="128" y1="4235.9702" x2="128" y2="4011.97" gradientTransform="matrix(1 0 0 1 0 -3995.9702)">
					<stop  offset="0" style="stop-color:#0A1317"/>
					<stop  offset="1" style="stop-color:#425B63"/>
				</linearGradient>
				<path fill="url(#SVGID_2_)" d="M128,240c-38.4,0-71.8-9.5-87.2-24.8S16,166.4,16,128s9.5-71.8,24.8-87.2S89.6,16,128,16
					s71.8,9.5,87.2,24.8S240,89.6,240,128s-9.5,71.8-24.8,87.2S166.4,240,128,240z"/>
			</g>
		</g>
	</g>
	<g id="&#x9E92;&#x9E9F;&#x5F71;&#x97F3;-&#x6DF1;&#x7070;&#x8272;">
		<g id="_256-3">
			<g id="_64">
				
					<linearGradient id="SVGID_3_" gradientUnits="userSpaceOnUse" x1="71.0517" y1="4211.1812" x2="211.2317" y2="4013.0513" gradientTransform="matrix(1 0 0 1 0 -3995.9702)">
					<stop  offset="0" style="stop-color:#4DD0E1"/>
					<stop  offset="0.94" style="stop-color:#1976D2"/>
				</linearGradient>
				<path fill="url(#SVGID_3_)" d="M137,42.5c-43.9,0-79.5,35.6-79.5,79.5v79.5H137c43.9,0,79.5-35.6,79.5-79.5S180.9,42.5,137,42.5
					z"/>
				
					<linearGradient id="SVGID_4_" gradientUnits="userSpaceOnUse" x1="55.5" y1="4117.9702" x2="218.5" y2="4117.9702" gradientTransform="matrix(1 0 0 1 0 -3995.9702)">
					<stop  offset="6.000000e-02" style="stop-color:#BA68C8"/>
					<stop  offset="1" style="stop-color:#03A9F4"/>
				</linearGradient>
				<path fill="url(#SVGID_4_)" d="M55.5,203.5V122c0-45,36.5-81.5,81.5-81.5S218.5,77,218.5,122S182,203.5,137,203.5H55.5z"/>
				<path fill="#212C30" d="M137,42.5c43.9,0,79.5,35.6,79.5,79.5s-35.6,79.5-79.5,79.5H57.5V122C57.5,78.1,93.1,42.5,137,42.5
					 M137,38.5c-46.1,0-83.5,37.4-83.5,83.5v83.5H137c46.1,0,83.5-37.4,83.5-83.5S183.1,38.5,137,38.5z"/>
				<g>
					
						<radialGradient id="SVGID_5_" cx="29.79" cy="4026.53" r="168.65" gradientTransform="matrix(1 0 0 1 0 -3995.9702)" gradientUnits="userSpaceOnUse">
						<stop  offset="0" style="stop-color:#F9DEFF"/>
						<stop  offset="0.94" style="stop-color:#1976D2;stop-opacity:0"/>
					</radialGradient>
					<path fill="url(#SVGID_5_)" d="M137,42.5c-43.9,0-79.5,35.6-79.5,79.5v79.5H137c43.9,0,79.5-35.6,79.5-79.5
						S180.9,42.5,137,42.5z"/>
				</g>
				<g opacity="0.2">
					<path fill="#FFFFFF" d="M137,187.5c-35.6,0-64.5-28.9-64.5-64.5s28.9-64.5,64.5-64.5s64.5,28.9,64.5,64.5
						S172.6,187.5,137,187.5z"/>
				</g>
				
					<radialGradient id="SVGID_6_" cx="137" cy="4118.9702" r="58.87" gradientTransform="matrix(1 0 0 1 0.13 -3995.8501)" gradientUnits="userSpaceOnUse">
					<stop  offset="0" style="stop-color:#455A64"/>
					<stop  offset="1" style="stop-color:#263238"/>
				</radialGradient>
				<circle fill="url(#SVGID_6_)" cx="137" cy="123" r="58.8"/>
				
					<linearGradient id="SVGID_7_" gradientUnits="userSpaceOnUse" x1="158.0011" y1="4155.9893" x2="120.7411" y2="4102.5391" gradientTransform="matrix(1 0 0 1 0 -3995.9702)">
					<stop  offset="0.34" style="stop-color:#999999"/>
					<stop  offset="1" style="stop-color:#E6E6E6"/>
				</linearGradient>
				<polygon fill="url(#SVGID_7_)" points="167,123 119,92 119,154 				"/>
				
					<linearGradient id="SVGID_8_" gradientUnits="userSpaceOnUse" x1="117.2802" y1="4086.5698" x2="145.5202" y2="4138.3398" gradientTransform="matrix(1 0 0 1 0 -3995.9702)">
					<stop  offset="0.38" style="stop-color:#FFFFFF"/>
					<stop  offset="1" style="stop-color:#CCCCCC"/>
				</linearGradient>
				<polygon fill="url(#SVGID_8_)" points="123,99 160,123 123,147 				"/>
				<g opacity="0.25">
					<g>
						<g>
							<defs>
								<path id="SVGID_9_" d="M137,42.5c-43.9,0-79.5,35.6-79.5,79.5v79.5H137c43.9,0,79.5-35.6,79.5-79.5S180.9,42.5,137,42.5z"/>
							</defs>
							<clipPath id="SVGID_10_">
								<use xlink:href="#SVGID_9_"  overflow="visible"/>
							</clipPath>
							<g clip-path="url(#SVGID_10_)">
								
									<linearGradient id="SVGID_11_" gradientUnits="userSpaceOnUse" x1="2.4631" y1="4189.5151" x2="174.5231" y2="3994.885" gradientTransform="matrix(1 0 0 1 0 -3995.9702)">
									<stop  offset="0" style="stop-color:#FFFFFF"/>
									<stop  offset="0.94" style="stop-color:#FFFFFF;stop-opacity:0"/>
								</linearGradient>
								<path fill="url(#SVGID_11_)" d="M65.7,212.4c0,0,38.3-124,157.8-150.6S116.3-3,116.3-3L3.2,50.4L2.6,180.1L33,227
									L65.7,212.4z"/>
							</g>
						</g>
					</g>
				</g>
			</g>
		</g>
	</g>
</g>
</svg>
