<svg xmlns="http://www.w3.org/2000/svg" xmlns:xlink="http://www.w3.org/1999/xlink" viewBox="0 0 256 256"><defs><style>.cls-1{opacity:0.08;}.cls-2{opacity:0.1;}.cls-3{opacity:0.2;}.cls-4{fill:url(#未命名的渐变_138);}.cls-5{fill:url(#未命名的渐变_102);}.cls-6{fill:url(#未命名的渐变_102-2);}.cls-7{fill:#c6f7e3;}.cls-8{fill:#0c160e;}.cls-9{fill:#2e2e30;}.cls-10{opacity:0.24;}.cls-11{fill:#e6e6e6;}.cls-12{fill:#3b3b39;}.cls-13{fill:#898989;}.cls-14{fill:#e0e0e0;}.cls-15{fill:#ff6118;}.cls-16{opacity:0.68;}.cls-17{fill:none;stroke:#000;stroke-linecap:round;stroke-linejoin:round;stroke-width:6px;}</style><linearGradient id="未命名的渐变_138" x1="128" y1="248" x2="128" y2="8" gradientUnits="userSpaceOnUse"><stop offset="0" stop-color="#51f2c0"/><stop offset="1" stop-color="#5fe4f9"/></linearGradient><linearGradient id="未命名的渐变_102" x1="67.62" y1="23.41" x2="188.38" y2="232.59" gradientUnits="userSpaceOnUse"><stop offset="0" stop-color="#45d3ff"/><stop offset="1" stop-color="#3bebad"/></linearGradient><linearGradient id="未命名的渐变_102-2" x1="128" y1="78" x2="128" y2="178" xlink:href="#未命名的渐变_102"/></defs><title>256</title><g id="底板_复制"><g id="蓝绿黄色_复制"><g id="_256" data-name="256"><g class="cls-1"><path d="M130,254c-41.5,0-78.15-10.87-95.64-28.36S6,171.52,6,130,16.88,51.83,34.36,34.36,88.5,6,130,6s78.15,10.87,95.64,28.36S254,88.48,254,130s-10.85,78.17-28.33,95.64S171.5,254,130,254Z"/></g><g class="cls-2"><path d="M130,252c-41,0-77.1-10.64-94.23-27.77-37-37-37-151.47,0-188.46C52.9,18.64,89,8,130,8s77.1,10.64,94.23,27.77c37,37,37,151.47,0,188.46C207.1,241.36,171,252,130,252Z"/></g><g class="cls-3"><path d="M128,250c-41,0-77.1-10.64-94.23-27.77-37-37-37-151.47,0-188.46C50.9,16.64,87,6,128,6s77.1,10.64,94.23,27.77c37,37,37,151.47,0,188.46C205.1,239.36,169,250,128,250Z"/></g><g id="_256-2" data-name="256"><circle class="cls-4" cx="128" cy="128" r="131.26"/></g><path class="cls-5" d="M128,240c-38.44,0-71.83-9.52-87.16-24.84S16,166.44,16,128s9.52-71.83,24.84-87.16S89.56,16,128,16s71.83,9.52,87.16,24.84S240,89.56,240,128s-9.52,71.83-24.84,87.16S166.44,240,128,240Z"/></g></g></g><g id="截图"><g id="_256-3" data-name="256"><circle class="cls-6" cx="128" cy="128" r="50"/><circle class="cls-6" cx="128" cy="128" r="50"/><circle class="cls-6" cx="128" cy="128" r="43.02"/><circle class="cls-6" cx="128" cy="128" r="43.02"/><circle class="cls-6" cx="128" cy="128" r="40.7"/><circle class="cls-6" cx="128" cy="128" r="40.7"/><path class="cls-6" d="M168.7,127.67a40.7,40.7,0,0,0-81.4,0Z"/><path class="cls-6" d="M168.7,127.67a40.7,40.7,0,0,0-81.4,0Z"/><circle class="cls-6" cx="128" cy="128" r="31.4"/><circle class="cls-6" cx="128" cy="128" r="31.4"/><circle class="cls-6" cx="128" cy="128" r="20.93"/><circle class="cls-6" cx="128" cy="128" r="20.93"/><circle class="cls-6" cx="122.19" cy="119.86" r="6.98"/><circle class="cls-6" cx="122.19" cy="119.86" r="6.98"/><circle class="cls-7" cx="128" cy="128" r="50"/><circle class="cls-8" cx="128" cy="128" r="43.02"/><circle class="cls-9" cx="128" cy="128" r="40.7"/><g class="cls-10"><path class="cls-11" d="M168.7,127.67a40.7,40.7,0,0,0-81.4,0Z"/></g><circle class="cls-12" cx="128" cy="128" r="31.4"/><circle class="cls-13" cx="128" cy="128" r="20.93"/><circle class="cls-14" cx="122.19" cy="119.86" r="6.98"/><path class="cls-15" d="M193.5,98a9,9,0,1,1-9-9A9,9,0,0,1,193.5,98Z"/><g class="cls-16"><path class="cls-17" d="M36.5,95V72a12,12,0,0,1,12-12h23"/><path class="cls-17" d="M219.5,95V72a12,12,0,0,0-12-12h-23"/><path class="cls-17" d="M36.5,161v23a12,12,0,0,0,12,12h23"/><path class="cls-17" d="M219.5,161v23a12,12,0,0,1-12,12h-23"/></g></g></g></svg>