<svg xmlns="http://www.w3.org/2000/svg" xmlns:xlink="http://www.w3.org/1999/xlink" viewBox="0 0 256 256"><defs><style>.cls-1{opacity:0.08;}.cls-2{opacity:0.1;}.cls-3{opacity:0.2;}.cls-4{fill:url(#未命名的渐变_36);}.cls-5{fill:url(#未命名的渐变_12);}.cls-6{fill:#f2f2f2;}.cls-7{fill:url(#未命名的渐变_170);}.cls-8{fill:#fff;}.cls-9{fill:url(#linear-gradient);}</style><linearGradient id="未命名的渐变_36" x1="128" y1="248" x2="128" y2="8" gradientUnits="userSpaceOnUse"><stop offset="0" stop-color="#289ad8"/><stop offset="1" stop-color="#84d5f9"/></linearGradient><linearGradient id="未命名的渐变_12" x1="128" y1="240" x2="128" y2="16" gradientUnits="userSpaceOnUse"><stop offset="0" stop-color="#0288d1"/><stop offset="1" stop-color="#4fc3f7"/></linearGradient><linearGradient id="未命名的渐变_170" x1="128" y1="177" x2="226" y2="177" gradientUnits="userSpaceOnUse"><stop offset="0" stop-color="#ea3250"/><stop offset="1" stop-color="#fcb472"/></linearGradient><linearGradient id="linear-gradient" x1="164.11" y1="177" x2="189.89" y2="177" gradientUnits="userSpaceOnUse"><stop offset="0" stop-color="#e50a45"/><stop offset="1" stop-color="#fcb472"/></linearGradient></defs><title>256</title><g id="底板_复制"><g id="天蓝色"><g id="_256" data-name="256"><g class="cls-1"><path d="M130,254c-41.5,0-78.15-10.87-95.64-28.36S6,171.52,6,130,16.88,51.83,34.36,34.36,88.5,6,130,6s78.15,10.87,95.64,28.36S254,88.48,254,130s-10.85,78.17-28.33,95.64S171.5,254,130,254Z"/></g><g class="cls-2"><path d="M130,252c-41,0-77.1-10.64-94.23-27.77-37-37-37-151.47,0-188.46C52.9,18.64,89,8,130,8s77.1,10.64,94.23,27.77c37,37,37,151.47,0,188.46C207.1,241.36,171,252,130,252Z"/></g><g class="cls-3"><path d="M128,250c-41,0-77.1-10.64-94.23-27.77-37-37-37-151.47,0-188.46C50.9,16.64,87,6,128,6s77.1,10.64,94.23,27.77c37,37,37,151.47,0,188.46C205.1,239.36,169,250,128,250Z"/></g><g id="_256-2" data-name="256"><circle class="cls-4" cx="128" cy="128" r="131.26"/></g><path class="cls-5" d="M128,240c-38.44,0-71.83-9.52-87.16-24.84S16,166.44,16,128s9.52-71.83,24.84-87.16S89.56,16,128,16s71.83,9.52,87.16,24.84S240,89.56,240,128s-9.52,71.83-24.84,87.16S166.44,240,128,240Z"/></g></g></g><g id="图层_43" data-name="图层 43"><g id="_256-3" data-name="256"><rect class="cls-6" x="65" y="101" width="137" height="16" rx="7.93"/><rect class="cls-6" x="65" y="137" width="137" height="16" rx="7.93"/><rect class="cls-6" x="65" y="173" width="137" height="16" rx="7.93"/><rect class="cls-6" x="65" y="65" width="137" height="16" rx="7.93"/><path class="cls-7" d="M225.84,168.15c0-4.37-2.8-6.6-7.44-7A10,10,0,0,1,209,149c1.76-8.26,1.36-9.43-6.16-13.73L198,132.54a10,10,0,0,0-14.31,1.24c-5.52,4.46-8,4.38-13.28,0a10,10,0,0,0-14.31-1.4l-8,4.54a7.89,7.89,0,0,0-3.93,9.84c2.49,8.26-1.11,13.54-9.75,14.45-3.59.42-6,2.4-6.15,5.71a159.89,159.89,0,0,0,0,19.58c0,4.22,2.71,6.36,7.2,6.78a10,10,0,0,1,9.89,10.1,9.79,9.79,0,0,1-.14,1.8c-1.61,8.67-1.61,9.58,6.39,14,1.69,1,3.36,2.07,5.12,3a9.51,9.51,0,0,0,12.87-1.73c6.15-5.45,8-5.37,14.47,0q1.89,1.29,3.84,2.46a7.6,7.6,0,0,0,8-.1c4.52-2.84,8.92-5.54,13-8.64a7.56,7.56,0,0,0,.72-6.53c-3-7.43,1.76-14,10.08-14.79a5.54,5.54,0,0,0,5.91-5.36A175.93,175.93,0,0,0,225.84,168.15Zm-48.66,29.74H177a20.54,20.54,0,1,1,.18,0Z"/><path class="cls-8" d="M201,177a24,24,0,0,1-23.92,24H177a24,24,0,0,1,0-48h.08A24,24,0,0,1,201,177Z"/><path class="cls-9" d="M189,171.92l-11.7,12-2.53,2.6a3,3,0,0,1-4.33,0L165,180.94a3.21,3.21,0,0,1,0-4.44,3,3,0,0,1,4.33,0l3.27,3.36,12.07-12.38a3,3,0,0,1,4.33,0A3.21,3.21,0,0,1,189,171.92Z"/></g></g></svg>