<svg xmlns="http://www.w3.org/2000/svg" xmlns:xlink="http://www.w3.org/1999/xlink" viewBox="0 0 256 256"><defs><style>.cls-1{opacity:0.08;}.cls-2{opacity:0.1;}.cls-3{opacity:0.2;}.cls-4{fill:url(#未命名的渐变_86);}.cls-5{fill:url(#未命名的渐变_75);}.cls-6{fill:#484a32;}.cls-7{fill:#8e6f34;}.cls-8{fill:#ddab65;}.cls-10,.cls-11,.cls-9{opacity:0.9;}.cls-9{fill:url(#未命名的渐变_38);}.cls-10{fill:url(#未命名的渐变_38-2);}.cls-11{fill:url(#未命名的渐变_38-3);}.cls-12,.cls-13,.cls-14{fill:none;stroke-linecap:round;stroke-miterlimit:10;stroke-width:2.93px;}.cls-12{stroke:url(#未命名的渐变_37);}.cls-13{stroke:url(#未命名的渐变_37-2);}.cls-14{stroke:url(#未命名的渐变_37-3);}.cls-15{fill:url(#未命名的渐变_34);}.cls-16{fill:url(#未命名的渐变_33);}.cls-17{opacity:0.3;}.cls-18{fill:#261302;}</style><linearGradient id="未命名的渐变_86" x1="128" y1="248" x2="128" y2="8" gradientUnits="userSpaceOnUse"><stop offset="0" stop-color="#dae1e4"/><stop offset="1" stop-color="#f3f4fa"/></linearGradient><linearGradient id="未命名的渐变_75" x1="126.5" y1="239" x2="126.5" y2="15" gradientUnits="userSpaceOnUse"><stop offset="0" stop-color="#cfd8dc"/><stop offset="1" stop-color="#ebecf2"/></linearGradient><linearGradient id="未命名的渐变_38" x1="128" y1="45.83" x2="128" y2="105.99" gradientUnits="userSpaceOnUse"><stop offset="0" stop-color="#009acc"/><stop offset="0.22" stop-color="#009ece"/><stop offset="0.44" stop-color="#00abd5"/><stop offset="0.68" stop-color="#00c0e0"/><stop offset="0.91" stop-color="#00ddf0"/><stop offset="1" stop-color="#00eaf7"/></linearGradient><linearGradient id="未命名的渐变_38-2" x1="97.92" y1="83.37" x2="97.92" y2="126.92" xlink:href="#未命名的渐变_38"/><linearGradient id="未命名的渐变_38-3" x1="158.08" y1="75.17" x2="158.08" y2="135.83" xlink:href="#未命名的渐变_38"/><linearGradient id="未命名的渐变_37" x1="-13.48" y1="6.48" x2="49.41" y2="6.48" gradientTransform="matrix(0.45, -0.89, -0.89, -0.45, 126.02, 158.6)" gradientUnits="userSpaceOnUse"><stop offset="0" stop-color="#fff" stop-opacity="0"/><stop offset="0.12" stop-color="#fff" stop-opacity="0.02"/><stop offset="0.24" stop-color="#fffefe" stop-opacity="0.07"/><stop offset="0.37" stop-color="#fffcfe" stop-opacity="0.15"/><stop offset="0.5" stop-color="#fff9fd" stop-opacity="0.26"/><stop offset="0.63" stop-color="#fff6fc" stop-opacity="0.41"/><stop offset="0.76" stop-color="#fff3fa" stop-opacity="0.59"/><stop offset="0.89" stop-color="#ffeef9" stop-opacity="0.8"/><stop offset="1" stop-color="#ffeaf7"/></linearGradient><linearGradient id="未命名的渐变_37-2" x1="66.37" y1="90.58" x2="129.47" y2="90.58" gradientTransform="matrix(1, 0, 0, 1, 0, 0)" xlink:href="#未命名的渐变_37"/><linearGradient id="未命名的渐变_37-3" x1="-617.63" y1="90.58" x2="-554.53" y2="90.58" gradientTransform="matrix(-1, 0, 0, 1, -428, 0)" xlink:href="#未命名的渐变_37"/><linearGradient id="未命名的渐变_34" x1="128" y1="169.55" x2="193" y2="169.55" gradientUnits="userSpaceOnUse"><stop offset="0" stop-color="#ba8349"/><stop offset="1" stop-color="#bf8b4e"/></linearGradient><linearGradient id="未命名的渐变_33" x1="63" y1="169.55" x2="128" y2="169.55" gradientUnits="userSpaceOnUse"><stop offset="0" stop-color="#c48c53"/><stop offset="1" stop-color="#c9975a"/></linearGradient></defs><title>256</title><g id="底板_复制"><g id="浅灰色"><g id="_256" data-name="256"><g class="cls-1"><path d="M130,254c-41.5,0-78.15-10.87-95.64-28.36S6,171.52,6,130,16.88,51.83,34.36,34.36,88.5,6,130,6s78.15,10.87,95.64,28.36S254,88.48,254,130s-10.85,78.17-28.33,95.64S171.5,254,130,254Z"/></g><g class="cls-2"><path d="M130,252c-41,0-77.1-10.64-94.23-27.77-37-37-37-151.47,0-188.46C52.9,18.64,89,8,130,8s77.1,10.64,94.23,27.77c37,37,37,151.47,0,188.46C207.1,241.36,171,252,130,252Z"/></g><g class="cls-3"><path d="M128,250c-41,0-77.1-10.64-94.23-27.77-37-37-37-151.47,0-188.46C50.9,16.64,87,6,128,6s77.1,10.64,94.23,27.77c37,37,37,151.47,0,188.46C205.1,239.36,169,250,128,250Z"/></g><g id="_256-2" data-name="256"><circle class="cls-4" cx="128" cy="128" r="131.26"/></g><path class="cls-5" d="M126.5,239c-38.44,0-71.83-9.52-87.16-24.84S14.5,165.44,14.5,127,24,55.17,39.34,39.84,88.06,15,126.5,15s71.83,9.52,87.16,24.84S238.5,88.56,238.5,127s-9.52,71.83-24.84,87.16S164.94,239,126.5,239Z"/></g></g></g><g id="图层_29" data-name="图层 29"><g id="_256-3" data-name="256"><polygon class="cls-6" points="63.44 139.74 128 139.74 128 69.3 63.44 96.7 63.44 139.74"/><polygon class="cls-7" points="192.56 147.56 128 147.56 128 69.3 192.56 96.7 192.56 147.56"/><polygon class="cls-8" points="128 69.3 153.44 69.3 218 98.65 192.56 96.7 128 69.3"/><polygon class="cls-8" points="128 69.3 63.44 96.7 38 98.65 100.61 69.3 128 69.3"/><polygon class="cls-9" points="128 45.83 67.84 75.17 128 105.99 188.16 75.17 128 45.83"/><polygon class="cls-10" points="128 131.91 67.84 131.91 67.84 75.17 128 105.99 128 131.91"/><polygon class="cls-11" points="128 135.83 188.16 135.83 188.16 75.17 128 105.99 128 135.83"/><line class="cls-12" x1="128" y1="105.99" x2="128.51" y2="173.27"/><line class="cls-13" x1="128" y1="105.99" x2="67.84" y2="75.17"/><line class="cls-14" x1="128" y1="105.99" x2="188.16" y2="75.17"/><polygon class="cls-15" points="128 210.17 193 180.22 193 130.91 128 128.92 128 210.17"/><polygon class="cls-16" points="63 179.84 128 210.17 128 128.92 63 129.91 63 179.84"/><polygon class="cls-8" points="63.44 96.7 128 129.96 104.52 157.35 41.91 124.09 63.44 96.7"/><polygon class="cls-8" points="128 129.96 192.56 96.7 214.09 124.09 155.39 157.35 128 129.96"/><g class="cls-17"><polygon class="cls-18" points="103.35 176.72 128 180.83 152.65 176.72 128 201.37 103.35 176.72"/><polygon class="cls-18" points="139.74 182.29 116.26 182.29 116.26 147.08 128 150.99 139.74 147.08 139.74 182.29"/></g></g></g></svg>