<svg xmlns="http://www.w3.org/2000/svg" xmlns:xlink="http://www.w3.org/1999/xlink" viewBox="0 0 256 256"><defs><style>.cls-1{opacity:0.08;}.cls-2{opacity:0.1;}.cls-3{opacity:0.2;}.cls-4{fill:url(#未命名的渐变_86);}.cls-5{fill:url(#未命名的渐变_75);}.cls-6{fill:url(#未命名的渐变_751);}.cls-7{fill:url(#未命名的渐变_756);}.cls-8{fill:url(#未命名的渐变_269);}</style><linearGradient id="未命名的渐变_86" x1="128" y1="248" x2="128" y2="8" gradientUnits="userSpaceOnUse"><stop offset="0" stop-color="#dae1e4"/><stop offset="1" stop-color="#f3f4fa"/></linearGradient><linearGradient id="未命名的渐变_75" x1="126.5" y1="239" x2="126.5" y2="15" gradientUnits="userSpaceOnUse"><stop offset="0" stop-color="#cfd8dc"/><stop offset="1" stop-color="#ebecf2"/></linearGradient><linearGradient id="未命名的渐变_751" x1="1662.87" y1="-899.47" x2="1662.87" y2="-1034.65" gradientTransform="matrix(-0.71, 0.71, 0.71, 0.71, 1969.85, -376.5)" gradientUnits="userSpaceOnUse"><stop offset="0" stop-color="#a05bf7"/><stop offset="0.79" stop-color="#e967f5"/><stop offset="1" stop-color="#f5affa"/></linearGradient><linearGradient id="未命名的渐变_756" x1="1567.26" y1="-940.53" x2="1655.57" y2="-943.05" gradientTransform="matrix(-0.71, 0.71, 0.71, 0.71, 1969.85, -376.5)" gradientUnits="userSpaceOnUse"><stop offset="0" stop-color="#21e8fa"/><stop offset="1" stop-color="#96fad5"/></linearGradient><linearGradient id="未命名的渐变_269" x1="83.43" y1="144.85" x2="178.99" y2="56.85" gradientUnits="userSpaceOnUse"><stop offset="0.03" stop-opacity="0"/><stop offset="0.72" stop-opacity="0.15"/><stop offset="0.92" stop-opacity="0"/></linearGradient></defs><title>256</title><g id="底板_复制"><g id="浅灰色"><g id="_256" data-name="256"><g class="cls-1"><path d="M130,254c-41.5,0-78.15-10.87-95.64-28.36S6,171.52,6,130,16.88,51.83,34.36,34.36,88.5,6,130,6s78.15,10.87,95.64,28.36S254,88.48,254,130s-10.85,78.17-28.33,95.64S171.5,254,130,254Z"/></g><g class="cls-2"><path d="M130,252c-41,0-77.1-10.64-94.23-27.77-37-37-37-151.47,0-188.46C52.9,18.64,89,8,130,8s77.1,10.64,94.23,27.77c37,37,37,151.47,0,188.46C207.1,241.36,171,252,130,252Z"/></g><g class="cls-3"><path d="M128,250c-41,0-77.1-10.64-94.23-27.77-37-37-37-151.47,0-188.46C50.9,16.64,87,6,128,6s77.1,10.64,94.23,27.77c37,37,37,151.47,0,188.46C205.1,239.36,169,250,128,250Z"/></g><g id="_256-2" data-name="256"><circle class="cls-4" cx="128" cy="128" r="131.26"/></g><path class="cls-5" d="M126.5,239c-38.44,0-71.83-9.52-87.16-24.84S14.5,165.44,14.5,127,24,55.17,39.34,39.84,88.06,15,126.5,15s71.83,9.52,87.16,24.84S238.5,88.56,238.5,127s-9.52,71.83-24.84,87.16S164.94,239,126.5,239Z"/></g></g></g><g id="服务与支持"><path class="cls-6" d="M130.45,208.49,160,178.81a61.07,61.07,0,0,0,0-86.1L130,62.58a51.06,51.06,0,0,0-72.43,0h0a51.58,51.58,0,0,0,0,72.73Z"/><circle class="cls-7" cx="162.88" cy="98.49" r="50.98"/><path class="cls-8" d="M213.85,98.49A51,51,0,0,0,128.13,61.2a51,51,0,0,0-71,1.38h0a51.58,51.58,0,0,0,0,72.73L130,208.49l29.55-29.68a60.69,60.69,0,0,0,16.58-31.1A51,51,0,0,0,213.85,98.49Z"/></g></svg>