<svg xmlns="http://www.w3.org/2000/svg" xmlns:xlink="http://www.w3.org/1999/xlink" viewBox="0 0 256 256"><defs><style>.cls-1{opacity:0.08;}.cls-2{opacity:0.1;}.cls-3,.cls-8{opacity:0.2;}.cls-4{fill:url(#未命名的渐变_80);}.cls-5{fill:url(#未命名的渐变_219);}.cls-6{fill:#d2a7b4;}.cls-7{fill:url(#未命名的渐变_169);}.cls-8{fill:#fff;}.cls-9{fill:#8c7a8a;}.cls-10{fill:#797791;}.cls-11{fill:url(#未命名的渐变_119);}</style><linearGradient id="未命名的渐变_80" x1="128" y1="248" x2="128" y2="8" gradientUnits="userSpaceOnUse"><stop offset="0" stop-color="#766f87"/><stop offset="1" stop-color="#b78c91"/></linearGradient><linearGradient id="未命名的渐变_219" x1="126.5" y1="239" x2="126.5" y2="15" gradientUnits="userSpaceOnUse"><stop offset="0" stop-color="#585c75"/><stop offset="0.67" stop-color="#8e747e"/><stop offset="1" stop-color="#a37e81"/></linearGradient><linearGradient id="未命名的渐变_169" x1="-151.54" y1="-115.96" x2="-151.54" y2="-213.46" gradientTransform="translate(107.62 362.69) rotate(45)" gradientUnits="userSpaceOnUse"><stop offset="0" stop-color="#cba7b4"/><stop offset="1" stop-color="#cab4c6"/></linearGradient><linearGradient id="未命名的渐变_119" x1="-151.54" y1="-242.46" x2="-151.54" y2="-290.46" gradientTransform="translate(107.62 362.69) rotate(45)" gradientUnits="userSpaceOnUse"><stop offset="0" stop-color="#fe8591"/><stop offset="1" stop-color="#ff7946"/></linearGradient></defs><title>256</title><g id="底板_复制"><g id="紫灰"><g id="_256" data-name="256"><g class="cls-1"><path d="M130,254c-41.5,0-78.15-10.87-95.64-28.36S6,171.52,6,130,16.88,51.83,34.36,34.36,88.5,6,130,6s78.15,10.87,95.64,28.36S254,88.48,254,130s-10.85,78.17-28.33,95.64S171.5,254,130,254Z"/></g><g class="cls-2"><path d="M130,252c-41,0-77.1-10.64-94.23-27.77-37-37-37-151.47,0-188.46C52.9,18.64,89,8,130,8s77.1,10.64,94.23,27.77c37,37,37,151.47,0,188.46C207.1,241.36,171,252,130,252Z"/></g><g class="cls-3"><path d="M128,250c-41,0-77.1-10.64-94.23-27.77-37-37-37-151.47,0-188.46C50.9,16.64,87,6,128,6s77.1,10.64,94.23,27.77c37,37,37,151.47,0,188.46C205.1,239.36,169,250,128,250Z"/></g><g id="_256-2" data-name="256"><circle class="cls-4" cx="128" cy="128" r="131.26"/></g><path class="cls-5" d="M126.5,239c-38.44,0-71.83-9.52-87.16-24.84S14.5,165.44,14.5,127,24,55.17,39.34,39.84,88.06,15,126.5,15s71.83,9.52,87.16,24.84S238.5,88.56,238.5,127s-9.52,71.83-24.84,87.16S164.94,239,126.5,239Z"/></g></g></g><g id="外部控制器"><g id="_256-3" data-name="256"><rect class="cls-6" x="161.31" y="64.31" width="12" height="48.75" transform="translate(111.72 -92.33) rotate(45)"/><path class="cls-7" d="M154.46,107.66l-3.06-3.06L116.75,70a16,16,0,0,0-22.63,0L47.81,116.27a16,16,0,0,0,0,22.62l34.65,34.65,3.06,3.07,31.59,31.58a16,16,0,0,0,22.62,0l46.32-46.31a16,16,0,0,0,0-22.63Z"/><path class="cls-8" d="M154.57,107.55l-3.06-3.06h0L82.57,173.43h0l3.06,3.07,31.59,31.58a16,16,0,0,0,22.62,0l46.32-46.32a16,16,0,0,0,0-22.62Z"/><circle class="cls-9" cx="98.37" cy="111.67" r="16.25"/><circle class="cls-10" cx="144.33" cy="157.63" r="16.25"/><circle class="cls-11" cx="188.88" cy="67.12" r="24"/></g></g></svg>