<?xml version="1.0" encoding="iso-8859-1"?>
<!-- Generator: Adobe Illustrator 21.0.0, SVG Export Plug-In . SVG Version: 6.00 Build 0)  -->
<svg version="1.1" id="&#x56FE;&#x5C42;_1" xmlns="http://www.w3.org/2000/svg" xmlns:xlink="http://www.w3.org/1999/xlink" x="0px"
	 y="0px" viewBox="0 0 256 256" style="enable-background:new 0 0 256 256;" xml:space="preserve">
<title>256</title>
<g id="&#x5E95;&#x677F;_&#x590D;&#x5236;">
	<g id="&#x4E2D;&#x7070;&#x8272;">
		<g id="_256">
			<g style="opacity:0.08;">
				<path d="M130,254c-41.5,0-78.15-10.87-95.64-28.36S6,171.52,6,130s10.88-78.17,28.36-95.64S88.5,6,130,6
					s78.15,10.87,95.64,28.36S254,88.48,254,130s-10.85,78.17-28.33,95.64S171.5,254,130,254z"/>
			</g>
			<g style="opacity:0.1;">
				<path d="M130,252c-41,0-77.1-10.64-94.23-27.77c-37-37-37-151.47,0-188.46C52.9,18.64,89,8,130,8s77.1,10.64,94.23,27.77
					c37,37,37,151.47,0,188.46C207.1,241.36,171,252,130,252z"/>
			</g>
			<g style="opacity:0.2;">
				<path d="M128,250c-41,0-77.1-10.64-94.23-27.77c-37-37-37-151.47,0-188.46C50.9,16.64,87,6,128,6s77.1,10.64,94.23,27.77
					c37,37,37,151.47,0,188.46C205.1,239.36,169,250,128,250z"/>
			</g>
			<g id="_256-2">
				
					<linearGradient id="SVGID_1_" gradientUnits="userSpaceOnUse" x1="128.0031" y1="7.9925" x2="128.0031" y2="247.9975" gradientTransform="matrix(1 0 0 -1 0 256)">
					<stop  offset="0.01" style="stop-color:#6D7375"/>
					<stop  offset="1" style="stop-color:#BEBEC4"/>
				</linearGradient>
				<path style="fill:url(#SVGID_1_);" d="M220.82,220.82c-36.25,36.25-149.38,36.25-185.63,0s-36.25-149.38,0-185.63
					s149.38-36.25,185.63,0S257.06,184.57,220.82,220.82z"/>
			</g>
			
				<linearGradient id="SVGID_2_" gradientUnits="userSpaceOnUse" x1="128" y1="16" x2="128" y2="240" gradientTransform="matrix(1 0 0 -1 0 256)">
				<stop  offset="0.01" style="stop-color:#797F82"/>
				<stop  offset="1" style="stop-color:#C9C9CF"/>
			</linearGradient>
			<path style="fill:url(#SVGID_2_);" d="M128,240c-38.44,0-71.83-9.52-87.16-24.84S16,166.44,16,128s9.52-71.83,24.84-87.16
				S89.56,16,128,16s71.83,9.52,87.16,24.84S240,89.56,240,128s-9.52,71.83-24.84,87.16S166.44,240,128,240z"/>
		</g>
	</g>
</g>
<g id="_130">
	<g id="_256-3">
		<g id="_256-3-2">
			<path style="opacity:0.5;fill:#FFFFFF;enable-background:new    ;" d="M200.66,138.25v-16.57l-2.34-0.76l-17.7-5.78l-4.72-11.4
				l9.1-19.18l-11.72-11.69L171.09,74l-16.6,8.43l-11.4-4.73l-7.17-20h-16.54l-0.77,2.3l-5.78,17.66l-11.4,4.72l-19.22-9
				L70.52,85.06l1.11,2.19l8.43,16.61l-4.72,11.4l-20,7.16V139l2.34,0.76l17.7,5.78l4.72,11.4L71,176.11l11.69,11.7l2.22-1.13
				l16.6-8.43l11.4,4.72l7.16,20h16.54l0.76-2.34l5.78-17.7l11.4-4.72l19.21,9.08l11.69-11.7l-1.11-2.19l-8.43-16.6l4.72-11.4
				L200.66,138.25z M128,153.49c-12.791,0.006-23.164-10.359-23.17-23.15c-0.006-12.791,10.359-23.164,23.15-23.17
				c12.791-0.006,23.164,10.359,23.17,23.15l0,0l0,0c0.011,12.785-10.345,23.159-23.13,23.17
				C128.013,153.49,128.007,153.49,128,153.49z"/>
			
				<linearGradient id="SVGID_3_" gradientUnits="userSpaceOnUse" x1="128.005" y1="-476.29" x2="128.005" y2="-331" gradientTransform="matrix(1 0 0 -1 0 -278)">
				<stop  offset="0" style="stop-color:#313C42"/>
				<stop  offset="1" style="stop-color:#161D21"/>
			</linearGradient>
			<path style="fill:url(#SVGID_3_);" d="M200.66,133.6v-16.54l-2.34-0.76l-17.7-5.78l-4.72-11.4l9.1-19.21l-11.72-11.7l-2.19,1.11
				l-16.6,8.43L143.09,73l-7.17-20h-16.54l-0.76,2.34l-5.78,17.7l-11.4,4.72l-19.22-9.08L70.53,80.4l1.11,2.19l8.43,16.61
				l-4.72,11.4l-20,7.16v16.54l2.34,0.76l17.7,5.78l4.72,11.4L71,171.45l11.69,11.7l2.19-1.15l16.6-8.43l11.4,4.72l7.16,20h16.54
				l0.76-2.34l5.78-17.7l11.4-4.72l19.26,9.11L185.47,171l-1.11-2.19l-8.43-16.6l4.72-11.4L200.66,133.6z M128,148.84
				c-12.791,0-23.16-10.369-23.16-23.16s10.369-23.16,23.16-23.16c12.791,0,23.16,10.369,23.16,23.16S140.791,148.84,128,148.84
				L128,148.84z"/>
		</g>
	</g>
</g>
</svg>
