<?xml version="1.0" encoding="utf-8"?>
<!-- Generator: Adobe Illustrator 21.0.0, SVG Export Plug-In . SVG Version: 6.00 Build 0)  -->
<svg version="1.1" id="图层_39" xmlns="http://www.w3.org/2000/svg" xmlns:xlink="http://www.w3.org/1999/xlink" x="0px" y="0px"
	 viewBox="0 0 256 256" style="enable-background:new 0 0 256 256;" xml:space="preserve">
<style type="text/css">
	.st0{opacity:0.1;enable-background:new    ;}
	.st1{opacity:0.08;enable-background:new    ;}
	.st2{opacity:0.2;enable-background:new    ;}
	.st3{fill:#F57F17;}
	.st4{fill:url(#SVGID_1_);}
	.st5{fill:url(#rect2990_1_);}
	.st6{opacity:0.25;fill:#FDEFBA;enable-background:new    ;}
	.st7{opacity:0.1;fill:#E65100;enable-background:new    ;}
	.st8{opacity:0.05;fill:#E65100;enable-background:new    ;}
	.st9{opacity:0.39;}
</style>
<title>0256folder-system</title>
<g id="_256">
	<polygon class="st0" points="6,238 6,70.1 22,70.1 22,22.1 25.9,22 79.5,22 95.5,38 238,38 238,70 254,70 254,106.8 254,106.8 
		254,238 	"/>
	<polygon class="st1" points="4,240 4,68.1 20,68.1 20,20 80,20 96,36 240,36 240,68 256,68 256,108.8 256,108.8 256,240 	"/>
	<polygon class="st2" points="4,236 4,68.1 20,68.1 20,20 23.9,20 77.5,20 93.5,36 236,36 236,68 252,68 252,104.8 252,104.8 
		252,236 	"/>
	<polygon class="st3" points="6,234 6,70.1 22,70.1 22,22 77,22 93,38 234,38 234,70 250,70 250,102.8 250,102.8 250,234 	"/>
	
		<linearGradient id="SVGID_1_" gradientUnits="userSpaceOnUse" x1="128" y1="637.9905" x2="128" y2="698" gradientTransform="matrix(1 0 0 -1 0 722)">
		<stop  offset="0" style="stop-color:#F57C00"/>
		<stop  offset="0.16" style="stop-color:#F58F09"/>
		<stop  offset="0.36" style="stop-color:#F59D11"/>
		<stop  offset="0.6" style="stop-color:#F5A515"/>
		<stop  offset="0.99" style="stop-color:#F5A816"/>
	</linearGradient>
	<path class="st4" d="M232,40H92L76,24H24v52c0.1,4.4,3.6,7.9,8,8h192c4.2,0,8,0.4,8-4V40z"/>
	
		<linearGradient id="rect2990_1_" gradientUnits="userSpaceOnUse" x1="128" y1="650" x2="128" y2="490" gradientTransform="matrix(1 0 0 -1 0 722)">
		<stop  offset="0" style="stop-color:#FADD60"/>
		<stop  offset="0.99" style="stop-color:#F5A816"/>
	</linearGradient>
	<polyline id="rect2990" class="st5" points="248,72 248,232 8,232 8,72 	"/>
	<path id="rect3004" class="st6" d="M8,72v31c0-10.6,7.1-20,16-20h208c8.9,0,16,9.4,16,20V72H8z"/>
	<path id="path3801" class="st7" d="M24,24v20c0-8,3.6-12,7.3-12h41.5c2.8,0,6.5,0.1,13,3.9c2.1,1.2,4.2,2.6,6.2,4.1L76,24H24z"/>
	<polygon class="st7" points="92,40 232,40 232,52 103.5,52 	"/>
	<rect x="24" y="65" class="st8" width="208" height="7"/>
</g>
<g id="_256-2">
	<g class="st9">
		<path class="st3" d="M128.4,176.1c-14,0-25.3-11.4-25.2-25.3c0-14,11.4-25.3,25.3-25.2c13.9,0,25.2,11.3,25.2,25.3
			C153.7,164.8,142.3,176.1,128.4,176.1z M128.4,131.5c-10.7,0-19.3,8.7-19.2,19.4c0,10.7,8.7,19.3,19.4,19.2
			c10.6,0,19.2-8.7,19.2-19.3C147.7,140.1,139,131.5,128.4,131.5L128.4,131.5z"/>
	</g>
	<g class="st9">
		<path class="st3" d="M141.8,207l-14.5-12.5L115.5,207l-16.8-5.9v-18.9l-18.1-0.6L72,165.7l12.8-14.4l-12.7-12.1l8.2-20.8l18.2,3
			L98,104l16.2-9l13,13.5l13.6-13.3l19.2,7.4v17.9l18.8,1.1l5.1,18.6l-13.1,12.3l13.3,11.4l-7.5,19h-18.1l0.1,17.1L141.8,207z
			 M104.7,196.8l9.1,3.2l13.1-13.9l16,13.8l9.6-4.1l-0.1-19.1h20l4.4-11.2l-15.1-12.9l15.4-14.4l-3-11L154,126v-19.4l-11.8-4.5
			l-15.2,15l-14-14.6l-9,5l0.7,20.9L84.1,125l-5,12.6l14,13.3l-13.9,15.6l4.9,9.2l20.5,0.7L104.7,196.8z"/>
	</g>
</g>
</svg>
