<?xml version="1.0" encoding="utf-8"?>
<!-- Generator: Adobe Illustrator 21.0.0, SVG Export Plug-In . SVG Version: 6.00 Build 0)  -->
<svg version="1.1" id="图层_39" xmlns="http://www.w3.org/2000/svg" xmlns:xlink="http://www.w3.org/1999/xlink" x="0px" y="0px"
	 viewBox="0 0 256 256" style="enable-background:new 0 0 256 256;" xml:space="preserve">
<style type="text/css">
	.st0{opacity:0.1;enable-background:new    ;}
	.st1{opacity:0.08;enable-background:new    ;}
	.st2{opacity:0.2;enable-background:new    ;}
	.st3{fill:#F57F17;}
	.st4{fill:url(#SVGID_1_);}
	.st5{fill:url(#rect2990_1_);}
	.st6{opacity:0.25;fill:#FDEFBA;enable-background:new    ;}
	.st7{opacity:0.1;fill:#E65100;enable-background:new    ;}
	.st8{opacity:0.05;fill:#E65100;enable-background:new    ;}
	.st9{fill:#F57F17;fill-opacity:0.39;}
</style>
<title>0256folder-templates</title>
<g id="_256">
	<polygon class="st0" points="6,238 6,70.1 22,70.1 22,22.1 25.9,22 79.5,22 95.5,38 238,38 238,70 254,70 254,106.8 254,106.8 
		254,238 	"/>
	<polygon class="st1" points="4,240 4,68.1 20,68.1 20,20 80,20 96,36 240,36 240,68 256,68 256,108.8 256,108.8 256,240 	"/>
	<polygon class="st2" points="4,236 4,68.1 20,68.1 20,20 23.9,20 77.5,20 93.5,36 236,36 236,68 252,68 252,104.8 252,104.8 
		252,236 	"/>
	<polygon class="st3" points="6,234 6,70.1 22,70.1 22,22 77,22 93,38 234,38 234,70 250,70 250,102.8 250,102.8 250,234 	"/>
	
		<linearGradient id="SVGID_1_" gradientUnits="userSpaceOnUse" x1="128" y1="-1386.0095" x2="128" y2="-1326" gradientTransform="matrix(1 0 0 -1 0 -1302)">
		<stop  offset="0" style="stop-color:#F57C00"/>
		<stop  offset="0.16" style="stop-color:#F58F09"/>
		<stop  offset="0.36" style="stop-color:#F59D11"/>
		<stop  offset="0.6" style="stop-color:#F5A515"/>
		<stop  offset="0.99" style="stop-color:#F5A816"/>
	</linearGradient>
	<path class="st4" d="M232,40H92L76,24H24v52c0.1,4.4,3.6,7.9,8,8h192c4.2,0,8,0.4,8-4V40z"/>
	
		<linearGradient id="rect2990_1_" gradientUnits="userSpaceOnUse" x1="128" y1="-1374" x2="128" y2="-1534" gradientTransform="matrix(1 0 0 -1 0 -1302)">
		<stop  offset="0" style="stop-color:#FADD60"/>
		<stop  offset="0.99" style="stop-color:#F5A816"/>
	</linearGradient>
	<polyline id="rect2990" class="st5" points="248,72 248,232 8,232 8,72 	"/>
	<path id="rect3004" class="st6" d="M8,72v31c0-10.6,7.1-20,16-20h208c8.9,0,16,9.4,16,20V72H8z"/>
	<path id="path3801" class="st7" d="M24,24v20c0-8,3.6-12,7.3-12h41.5c2.8,0,6.5,0.1,13,3.9c2.1,1.2,4.2,2.6,6.2,4.1L76,24H24z"/>
	<polygon class="st7" points="92,40 232,40 232,52 103.5,52 	"/>
	<rect x="24" y="65" class="st8" width="208" height="7"/>
</g>
<g id="gnome-fs-loading-icon">
	<rect x="176" y="127" class="st9" width="8" height="20"/>
	<rect x="176" y="155" class="st9" width="8" height="20"/>
	<rect x="72" y="127" class="st9" width="8" height="20"/>
	<rect x="72" y="155" class="st9" width="8" height="20"/>
	<rect x="104" y="95" class="st9" width="20" height="8"/>
	<rect x="132" y="95" class="st9" width="20" height="8"/>
	<rect x="104" y="199" class="st9" width="20" height="8"/>
	<rect x="132" y="199" class="st9" width="20" height="8"/>
	<polygon class="st9" points="72,119 83.2,119 83.2,106.2 96,106.2 96,95 72,95 	"/>
	<polygon class="st9" points="160,95 160,106.2 172.8,106.2 172.8,119 184,119 184,95 	"/>
	<polygon class="st9" points="172.8,195.8 160,195.8 160,207 184,207 184,183 172.8,183 	"/>
	<polygon class="st9" points="83.2,183 72,183 72,207 96,207 96,195.8 83.2,195.8 	"/>
</g>
</svg>
