<?xml version="1.0" encoding="utf-8"?>
<!-- Generator: Adobe Illustrator 17.1.0, SVG Export Plug-In . SVG Version: 6.00 Build 0)  -->
<!DOCTYPE svg PUBLIC "-//W3C//DTD SVG 1.1//EN" "http://www.w3.org/Graphics/SVG/1.1/DTD/svg11.dtd">
<svg version="1.1"
	 id="svg2" xmlns:dc="http://purl.org/dc/elements/1.1/" xmlns:cc="http://creativecommons.org/ns#" xmlns:rdf="http://www.w3.org/1999/02/22-rdf-syntax-ns#" xmlns:svg="http://www.w3.org/2000/svg" xmlns:sodipodi="http://sodipodi.sourceforge.net/DTD/sodipodi-0.dtd" xmlns:inkscape="http://www.inkscape.org/namespaces/inkscape" inkscape:export-filename="/media/Data/Main/Visuals/Icons/Numix/Desktop/repos/numix-wiki/Gjorgi/Numix-folders/48/New/folder-144.png" inkscape:export-ydpi="270" inkscape:export-xdpi="270" sodipodi:docname="user-home.svg" inkscape:version="0.48.4 r9939"
	 xmlns="http://www.w3.org/2000/svg" xmlns:xlink="http://www.w3.org/1999/xlink" x="0px" y="0px" width="256px" height="256px"
	 viewBox="0 0 256 256" enable-background="new 0 0 256 256" xml:space="preserve">
<sodipodi:namedview  id="base" inkscape:cx="35.66124" inkscape:cy="21.321632" showguides="true" showgrid="true" bordercolor="#666666" borderopacity="1.0" inkscape:zoom="5.6530318" pagecolor="#ffffff" inkscape:window-maximized="1" inkscape:current-layer="layer1" inkscape:window-x="0" inkscape:window-height="1023" inkscape:window-width="1920" inkscape:window-y="28" inkscape:pageopacity="0.0" inkscape:document-units="px" inkscape:pageshadow="2" inkscape:guide-bbox="true">
	<inkscape:grid  type="xygrid" visible="true" enabled="true" id="grid2985" empspacing="5" snapvisiblegridlinesonly="true">
		</inkscape:grid>
</sodipodi:namedview>
<polygon opacity="0.1" enable-background="new    " points="6,238 6,70.1 22,70.1 22,22.1 25.9,22 79.5,22 95.4,38 237.9,38 
	237.9,62.9 238.1,62.9 238.1,70.1 254,70.1 254,106.8 254,106.8 254,238 "/>
<polygon opacity="8.000000e-002" enable-background="new    " points="4,240 4,68.1 20,68.1 20,20.2 25.9,20 80.4,20 96.3,36 
	239.9,36 239.9,60.9 240.1,60.9 240.1,68.1 256,68.1 256,108.8 256,108.8 256,240 "/>
<polygon opacity="0.2" enable-background="new    " points="4,236 4,68.1 20,68.1 20,20.1 23.9,20 77.5,20 93.4,36 235.9,36 
	235.9,60.9 236.1,60.9 236.1,68.1 252,68.1 252,104.8 252,104.8 252,236 "/>
<polygon fill="#F57F17" points="6,234 6,70.1 22,70.1 22,22.1 24,22 76.7,22 92.6,38 233.9,38 233.9,62.9 234.1,62.9 234.1,70.1 
	250,70.1 250,102.8 250,102.8 250,234 "/>
<g>
	
		<linearGradient id="SVGID_1_" gradientUnits="userSpaceOnUse" x1="128" y1="340.0095" x2="128" y2="280" gradientTransform="matrix(1 0 0 1 0 -256)">
		<stop  offset="0" style="stop-color:#F57C00"/>
		<stop  offset="0.1638" style="stop-color:#F58F09"/>
		<stop  offset="0.3598" style="stop-color:#F59D11"/>
		<stop  offset="0.5982" style="stop-color:#F5A515"/>
		<stop  offset="0.9946" style="stop-color:#F5A816"/>
	</linearGradient>
	<path fill="url(#SVGID_1_)" d="M232,40H91.8L75.9,24H24v16v16v20c0,4.4,3.8,8,8,8h192c4.2,0,8,0.4,8-4C232,72.1,232,40,232,40z"/>
	
		<linearGradient id="rect2990_1_" gradientUnits="userSpaceOnUse" x1="128" y1="328" x2="128" y2="488" gradientTransform="matrix(1 0 0 1 0 -256)">
		<stop  offset="0" style="stop-color:#FADD60"/>
		<stop  offset="0.9946" style="stop-color:#F5A816"/>
	</linearGradient>
	<polyline id="rect2990_2_" fill="url(#rect2990_1_)" points="248,72 248,232 8,232 8,72 	"/>
	<path id="rect3004_1_" inkscape:connector-curvature="0" opacity="0.25" fill="#FDEFBA" enable-background="new    " d="M8,72v30.7
		c0-10.6,7.1-19.2,16-19.2h208c8.9,0,16,8.6,16,19.2V72H8z"/>
	<path id="path3801_1_" inkscape:connector-curvature="0" opacity="0.1" fill="#E65100" enable-background="new    " d="M24,24
		c0,0,0,4,0,12v8c0-8,3.6-12,7.3-12h41.5c2.8,0,6.5,0.1,13,3.9c1.8,1.1,3.8,2.4,6,4.1L75.9,24H24z"/>
	<polygon opacity="0.1" fill="#E65100" enable-background="new    " points="91.8,40 232,40 232,52 103.8,52 	"/>
	<rect x="24" y="64.9" opacity="5.000000e-002" fill="#E65100" enable-background="new    " width="208.1" height="7.1"/>
</g>
<g enable-background="new    ">
	<path fill="#F57F17" fill-opacity="0.39" d="M173.5,179.9V98.3h-91v115.5h57.1L173.5,179.9z M164.8,106.7V180h-25.2v25.5H91.2
		v-98.7H164.8z"/>
	<rect x="97.8" y="180" fill="#F57F17" fill-opacity="0.39" width="35.9" height="6.8"/>
	<rect x="97.8" y="160.5" fill="#F57F17" fill-opacity="0.39" width="60.3" height="6.8"/>
	<rect x="97.8" y="140.7" fill="#F57F17" fill-opacity="0.39" width="60.3" height="6.8"/>
	<rect x="97.8" y="120.8" fill="#F57F17" fill-opacity="0.39" width="60.3" height="6.8"/>
</g>
</svg>
