<?xml version="1.0" encoding="utf-8"?>
<!-- Generator: Adobe Illustrator 21.0.0, SVG Export Plug-In . SVG Version: 6.00 Build 0)  -->
<svg version="1.1" id="图层_39" xmlns="http://www.w3.org/2000/svg" xmlns:xlink="http://www.w3.org/1999/xlink" x="0px" y="0px"
	 viewBox="0 0 256 256" style="enable-background:new 0 0 256 256;" xml:space="preserve">
<style type="text/css">
	.st0{opacity:0.39;}
	.st1{fill:#F57F17;}
	.st2{opacity:0.1;enable-background:new    ;}
	.st3{opacity:0.08;enable-background:new    ;}
	.st4{opacity:0.2;enable-background:new    ;}
	.st5{fill:url(#SVGID_1_);}
	.st6{fill:url(#rect2990_1_);}
	.st7{opacity:0.25;fill:#FDEFBA;enable-background:new    ;}
	.st8{opacity:0.1;fill:#E65100;enable-background:new    ;}
	.st9{opacity:0.05;fill:#E65100;enable-background:new    ;}
</style>
<symbol  id="新建符号_5" viewBox="-117.9 -98.2 235.8 196.4">
	<g class="st0">
		<path class="st1" d="M29.3,5.8c28.7,0,52-23.3,52-52s-23.3-52-52-52s-52,23.3-52,52S0.6,5.8,29.3,5.8z M-5.1-46.4
			c0-19.2,15.5-34.7,34.7-34.7s34.7,15.5,34.7,34.7S48.8-11.7,29.6-11.7h-0.1C10.4-11.7-5.1-27.3-5.1-46.4L-5.1-46.4z"/>
		<path class="st1" d="M65,0.4l-1-0.6l-1,0.8c-20.1,14.5-47.2,14.5-67.3,0l-1-0.8l-1,0.6c-32.3,15.9-53,52-53,91.6v6.2h15.5v-6
			c0-30.9,14.5-59.1,37.9-74c10.8,5.9,23,9,35.3,9.1s24.4-3.1,35.1-9.1c23.4,14.9,37.9,43.2,37.9,74v6h15.5V92
			C118.1,52.4,97.3,16.3,65,0.4z"/>
		<path class="st1" d="M-37.8,12.9l0.6-0.6c3.8-4.2,8.1-8,12.7-11.3l8.1-5.8l-9.7,2.2c-3.8,0.9-7.8,1.3-11.7,1.4
			c-10.8,0.1-21.4-3.3-30.3-9.5l-1-0.6l-1,0.6c-29,14.1-47.8,46-47.8,81.3v5.6h14.5v-5.6c0-27.2,12.9-52,33.9-65.1
			c9.4,5.1,20,7.8,30.7,7.9L-37.8,12.9z"/>
		<path class="st1" d="M-39.6-5.4h1.8c7.4,0.1,14.8-1.7,21.4-5l2.6-1.2l-2-2c-2.9-2.8-5.4-5.9-7.5-9.3l-0.8-1.4l-1.6,0.6
			c-4.2,1.8-8.7,2.6-13.3,2.4c-17-0.7-30.5-15-29.7-31.5c0.6-16.7,14.9-29.6,32.1-29c5,0.2,9.9,1.6,14.3,4l1.4,0.8l1-1.4
			c2.5-3.1,5.4-5.8,8.5-8.3l2.2-1.6l-2.4-1.6c-7.3-4.8-15.8-7.6-24.6-8.1C-62.4-99-84-79.1-85-53.6c-0.4,12.3,4.1,24.3,12.5,33.3
			C-63.8-11.3-52.1-6-39.6-5.4z"/>
	</g>
</symbol>
<title>0256folder-publicshare</title>
<g id="_256">
	<polygon class="st2" points="6,238 6,70.1 22,70.1 22,22.1 25.9,22 79.5,22 95.5,38 238,38 238,70 254,70 254,106.8 254,106.8 
		254,238 	"/>
	<polygon class="st3" points="4,240 4,68.1 20,68.1 20,20 80,20 96,36 240,36 240,68 256,68 256,108.8 256,108.8 256,240 	"/>
	<polygon class="st4" points="4,236 4,68.1 20,68.1 20,20 23.9,20 77.5,20 93.5,36 236,36 236,68 252,68 252,104.8 252,104.8 
		252,236 	"/>
	<polygon class="st1" points="6,234 6,70.1 22,70.1 22,22 77,22 93,38 234,38 234,70 250,70 250,102.8 250,102.8 250,234 	"/>
	
		<linearGradient id="SVGID_1_" gradientUnits="userSpaceOnUse" x1="128" y1="-1386.0095" x2="128" y2="-1326" gradientTransform="matrix(1 0 0 -1 0 -1302)">
		<stop  offset="0" style="stop-color:#F57C00"/>
		<stop  offset="0.16" style="stop-color:#F58F09"/>
		<stop  offset="0.36" style="stop-color:#F59D11"/>
		<stop  offset="0.6" style="stop-color:#F5A515"/>
		<stop  offset="0.99" style="stop-color:#F5A816"/>
	</linearGradient>
	<path class="st5" d="M232,40H92L76,24H24v52c0.1,4.4,3.6,7.9,8,8h192c4.2,0,8,0.4,8-4V40z"/>
	
		<linearGradient id="rect2990_1_" gradientUnits="userSpaceOnUse" x1="128" y1="-1374" x2="128" y2="-1534" gradientTransform="matrix(1 0 0 -1 0 -1302)">
		<stop  offset="0" style="stop-color:#FADD60"/>
		<stop  offset="0.99" style="stop-color:#F5A816"/>
	</linearGradient>
	<polyline id="rect2990" class="st6" points="248,72 248,232 8,232 8,72 	"/>
	<path id="rect3004" class="st7" d="M8,72v31c0-10.6,7.1-20,16-20h208c8.9,0,16,9.4,16,20V72H8z"/>
	<path id="path3801" class="st8" d="M24,24v20c0-8,3.6-12,7.3-12h41.5c2.8,0,6.5,0.1,13,3.9c2.1,1.2,4.2,2.6,6.2,4.1L76,24H24z"/>
	<polygon class="st8" points="92,40 232,40 232,52 103.5,52 	"/>
	<rect x="24" y="65" class="st9" width="208" height="7"/>
</g>
<use xlink:href="#新建符号_5"  width="235.8" height="196.4" id="新建符号_5-3" x="-117.9" y="-98.2" transform="matrix(0.51 0 0 0.51 128.129 151.082)" style="overflow:visible;"/>
</svg>
