<?xml version="1.0" encoding="utf-8"?>
<!-- Generator: Adobe Illustrator 17.1.0, SVG Export Plug-In . SVG Version: 6.00 Build 0)  -->
<!DOCTYPE svg PUBLIC "-//W3C//DTD SVG 1.1//EN" "http://www.w3.org/Graphics/SVG/1.1/DTD/svg11.dtd">
<svg version="1.1"
	 id="svg2" xmlns:sodipodi="http://sodipodi.sourceforge.net/DTD/sodipodi-0.dtd" xmlns:cc="http://creativecommons.org/ns#" xmlns:dc="http://purl.org/dc/elements/1.1/" xmlns:inkscape="http://www.inkscape.org/namespaces/inkscape" xmlns:rdf="http://www.w3.org/1999/02/22-rdf-syntax-ns#" xmlns:svg="http://www.w3.org/2000/svg" inkscape:export-ydpi="270" sodipodi:docname="user-home.svg" inkscape:version="0.48.4 r9939" inkscape:export-xdpi="270" inkscape:export-filename="/media/Data/Main/Visuals/Icons/Numix/Desktop/repos/numix-wiki/Gjorgi/Numix-folders/48/New/folder-144.png"
	 xmlns="http://www.w3.org/2000/svg" xmlns:xlink="http://www.w3.org/1999/xlink" x="0px" y="0px" width="256px" height="256px"
	 viewBox="0 0 256 256" enable-background="new 0 0 256 256" xml:space="preserve">
<sodipodi:namedview  id="base" inkscape:window-maximized="1" inkscape:cx="35.66124" borderopacity="1.0" inkscape:cy="21.321632" showgrid="true" pagecolor="#ffffff" inkscape:zoom="5.6530318" showguides="true" bordercolor="#666666" inkscape:pageshadow="2" inkscape:document-units="px" inkscape:current-layer="layer1" inkscape:window-height="1023" inkscape:pageopacity="0.0" inkscape:window-x="0" inkscape:window-y="28" inkscape:guide-bbox="true" inkscape:window-width="1920">
	<inkscape:grid  type="xygrid" enabled="true" visible="true" id="grid2985" snapvisiblegridlinesonly="true" empspacing="5">
		</inkscape:grid>
</sodipodi:namedview>
<polygon opacity="0.1" enable-background="new    " points="6,238 6,70.1 22,70.1 22,22 25.9,22 79.5,22 95.4,38 237.9,38 
	237.9,70.1 254,70.1 254,106.8 254,106.8 254,238 "/>
<polygon opacity="8.000000e-002" enable-background="new    " points="4,240 4,68.1 20,68.1 20,20.2 25.9,20 80.4,20 96.3,36 
	239.9,36 239.9,68.1 256,68.1 256,108.8 256,108.8 256,240 "/>
<polygon opacity="0.2" enable-background="new    " points="4,236 4,68.1 20,68.1 20,20.1 23.9,20 77.5,20 93.4,36 235.9,36 
	235.9,68.1 252,68.1 252,104.8 252,104.8 252,236 "/>
<polygon fill="#F57F17" points="6.4,234 6.4,70.1 22.4,70.1 22.4,22 77.1,22 93,38 234.3,38 234.3,62.3 234.3,70.2 250.4,70.1 
	250.4,102.8 250.4,102.8 250.4,234 "/>
<g>
	
		<linearGradient id="SVGID_1_" gradientUnits="userSpaceOnUse" x1="128" y1="-82.0095" x2="128" y2="-22" gradientTransform="matrix(1 0 0 -1 0 2)">
		<stop  offset="0" style="stop-color:#F57C00"/>
		<stop  offset="0.1638" style="stop-color:#F58F09"/>
		<stop  offset="0.3598" style="stop-color:#F59D11"/>
		<stop  offset="0.5982" style="stop-color:#F5A515"/>
		<stop  offset="0.9946" style="stop-color:#F5A816"/>
	</linearGradient>
	<path fill="url(#SVGID_1_)" d="M232,40H91.8L75.9,24H24v16v16v20c0,4.4,3.8,8,8,8h192c4.2,0,8,0.4,8-4C232,72.1,232,40,232,40z"/>
	
		<linearGradient id="rect2990_1_" gradientUnits="userSpaceOnUse" x1="128" y1="-70" x2="128" y2="-230" gradientTransform="matrix(1 0 0 -1 0 2)">
		<stop  offset="0" style="stop-color:#FADD60"/>
		<stop  offset="0.9946" style="stop-color:#F5A816"/>
	</linearGradient>
	<polyline id="rect2990_2_" fill="url(#rect2990_1_)" points="248,72 248,232 8,232 8,72 	"/>
	<path id="rect3004_1_" inkscape:connector-curvature="0" opacity="0.25" fill="#FDEFBA" enable-background="new    " d="M8,72v30.7
		c0-10.6,7.1-19.2,16-19.2h208c8.9,0,16,8.6,16,19.2V72H8z"/>
	<path id="path3801_1_" inkscape:connector-curvature="0" opacity="0.1" fill="#E65100" enable-background="new    " d="M24,24
		c0,0,0,4,0,12v8c0-8,3.6-12,7.3-12h41.5c2.8,0,6.5,0.1,13,3.9c1.8,1.1,3.8,2.4,6,4.1L75.9,24H24z"/>
	<polygon opacity="0.1" fill="#E65100" enable-background="new    " points="91.8,40 232,40 232,52 103.8,52 	"/>
	<rect x="24" y="64.9" opacity="5.000000e-002" fill="#E65100" enable-background="new    " width="208" height="7.1"/>
</g>
<path fill="#F57F17" fill-opacity="0.39" d="M168.2,174.3c0.1-0.3,0.3-0.5,0.4-0.8c0.2-0.5,0.5-1,0.7-1.4c0,0,0-0.1,0.1-0.1
	c1.2-2.6,2.1-5.4,2.9-8.1H183v-21.7h-10.8c-1.1-4.5-2.9-8.8-5.3-12.6l7.7-7.7l-15.4-15.4l-7.7,7.7c-3.9-2.4-8.2-4.2-12.9-5.4h0.1V98
	H117v10.8h0.1c-4.6,1.1-9,3-12.9,5.4l-7.7-7.7l-15.1,15.4l7.7,7.7c-2.3,3.8-4.1,8.1-5.3,12.6H73v21.7h10.8c1.1,4.5,2.9,8.8,5.3,12.7
	l0,0l-7.7,7.7l15.4,15.4l7.7-7.7c3.9,2.4,8.2,4.2,12.7,5.3V208h21.7v-10.8l0,0l0,0c4.6-1.1,8.8-2.9,12.7-5.3l7.7,7.7l15.4-15.4
	l-7.7-7.7l0,0c0.3-0.5,0.5-0.9,0.8-1.3C167.9,175,168.1,174.7,168.2,174.3z M128,187.7c-19.2,0-34.7-15.6-34.7-34.7
	s15.6-34.7,34.7-34.7c3.8,0,7.5,0.6,10.9,1.7l0,0c13.9,4.6,23.8,17.6,23.8,33c0,1,0,1.9-0.1,2.8v0.1c-0.2,2.8-0.8,5.5-1.6,8
	c0,0.1-0.1,0.1-0.1,0.2c-0.6,1.6-1.2,3.3-2,4.7c0,0.1-0.1,0.2-0.1,0.3c-0.4,0.8-0.8,1.4-1.2,2.2c0,0.1-0.1,0.1-0.1,0.2
	c-0.5,0.7-0.9,1.3-1.3,2l-0.1,0.1c-0.5,0.7-1,1.3-1.5,1.9c-0.1,0.1-0.2,0.2-0.3,0.3c-1.1,1.2-2.2,2.4-3.4,3.4
	c-0.1,0.1-0.2,0.2-0.3,0.3c-0.6,0.5-1.2,1.1-1.9,1.4c-0.1,0.1-0.2,0.1-0.3,0.2c-0.6,0.5-1.2,0.9-1.8,1.2c-0.1,0.1-0.2,0.1-0.3,0.2
	c-0.7,0.4-1.3,0.8-2,1.1c-0.2,0.1-0.3,0.2-0.5,0.3c-0.7,0.4-1.4,0.7-2.1,1c-0.1,0-0.2,0.1-0.3,0.1c-0.7,0.3-1.3,0.5-2,0.8
	C135.7,187,131.9,187.7,128,187.7z"/>
</svg>
