<?xml version="1.0" encoding="utf-8"?>
<!-- Generator: Adobe Illustrator 21.0.0, SVG Export Plug-In . SVG Version: 6.00 Build 0)  -->
<svg version="1.1" id="图层_39" xmlns="http://www.w3.org/2000/svg" xmlns:xlink="http://www.w3.org/1999/xlink" x="0px" y="0px"
	 viewBox="0 0 256 256" style="enable-background:new 0 0 256 256;" xml:space="preserve">
<style type="text/css">
	.st0{opacity:0.1;enable-background:new    ;}
	.st1{opacity:0.08;enable-background:new    ;}
	.st2{opacity:0.2;enable-background:new    ;}
	.st3{fill:#F57F17;}
	.st4{fill:url(#SVGID_1_);}
	.st5{fill:url(#rect2990_1_);}
	.st6{opacity:0.25;fill:#FDEFBA;enable-background:new    ;}
	.st7{opacity:0.1;fill:#E65100;enable-background:new    ;}
	.st8{opacity:0.05;fill:#E65100;enable-background:new    ;}
	.st9{opacity:0.39;fill:#F57F17;enable-background:new    ;}
</style>
<title>network256</title>
<g id="_256">
	<polygon class="st0" points="6,238 6,70.1 22,70.1 22,22.1 25.9,22 79.5,22 95.5,38 238,38 238,70 254,70 254,106.8 254,106.8 
		254,238 	"/>
	<polygon class="st1" points="4,240 4,68.1 20,68.1 20,20 80,20 96,36 240,36 240,68 256,68 256,108.8 256,108.8 256,240 	"/>
	<polygon class="st2" points="4,236 4,68.1 20,68.1 20,20 23.9,20 77.5,20 93.5,36 236,36 236,68 252,68 252,104.8 252,104.8 
		252,236 	"/>
	<polygon class="st3" points="6,234 6,70.1 22,70.1 22,22 77,22 93,38 234,38 234,70 250,70 250,102.8 250,102.8 250,234 	"/>
	
		<linearGradient id="SVGID_1_" gradientUnits="userSpaceOnUse" x1="128" y1="66.7105" x2="128" y2="126.72" gradientTransform="matrix(1 0 0 -1 0 150.72)">
		<stop  offset="0" style="stop-color:#F57C00"/>
		<stop  offset="0.16" style="stop-color:#F58F09"/>
		<stop  offset="0.36" style="stop-color:#F59D11"/>
		<stop  offset="0.6" style="stop-color:#F5A515"/>
		<stop  offset="0.99" style="stop-color:#F5A816"/>
	</linearGradient>
	<path class="st4" d="M232,40H92L76,24H24v52c0.1,4.4,3.6,7.9,8,8h192c4.2,0,8,0.4,8-4V40z"/>
	
		<linearGradient id="rect2990_1_" gradientUnits="userSpaceOnUse" x1="128" y1="78.72" x2="128" y2="-81.28" gradientTransform="matrix(1 0 0 -1 0 150.72)">
		<stop  offset="0" style="stop-color:#FADD60"/>
		<stop  offset="0.99" style="stop-color:#F5A816"/>
	</linearGradient>
	<polyline id="rect2990" class="st5" points="248,72 248,232 8,232 8,72 	"/>
	<path id="rect3004" class="st6" d="M8,72v31c0-10.6,7.1-20,16-20h208c8.9,0,16,9.4,16,20V72H8z"/>
	<path id="path3801" class="st7" d="M24,24v20c0-8,3.6-12,7.3-12h41.5c2.8,0,6.5,0.1,13,3.9c2.1,1.2,4.2,2.6,6.2,4.1L76,24H24z"/>
	<polygon class="st7" points="92,40 232,40 232,52 103.5,52 	"/>
	<rect x="24" y="65" class="st8" width="208" height="7"/>
</g>
<g id="网络">
	<path class="st9" d="M91.4,108.8c0.7,0.4,1.2,0.9,1.6,1.6c0.3,0.6,0.9,1,1.6,1h1.8l2.6-0.8l-0.6,1.4c0,0-13.7,6.4-10.9,10.1
		s1.8,4.7,1.8,5.9c0,1.2,0.8,0.2,0.8,0.2l0.8-2.1l1.2-1.6l1.2-1.8l0.4-1l1.6-2.8l2-1.2l1.8,1.2c0,0,0.8,0.3,0.6,1s-0.3,1.8-0.3,1.8
		s0.3,0.8,1,0.8c0.6-0.1,1.1-0.3,1.6-0.6l0.8,1.4l0.6,2.6l1.6,1.6l0.8,1.8l-0.8,1.6l0.8,0.6l1.8,2l0.3,1l-2.9-0.2c0,0-0.3-0.8-1-0.8
		s-3.1-0.2-3.1-0.2l-1.4,0.4l-0.8,1c0,0-1,1.6-1.6,1.6c-0.7-0.1-1.4-0.2-2.1-0.3c-0.7-0.2-1.5,0.1-1.8,0.8c-0.6,1.2,1,1.8,1,1.8
		l-2.8,0.8l-0.8,0.4c0,0-2,0.8-2,1.4v0.6l-0.6,1.6v1l-1.4,1.2l-1.4,1l-0.6,1.2v2c-0.1,0.5-0.2,1.1-0.2,1.6v2.1c0,0-0.6,0.6-1-0.6
		l-0.4-1.2l-0.6-1.4c0,0,0.6-0.2-0.2-0.8c-0.5-0.4-1-0.6-1.6-0.8c-0.3-0.3-0.7-0.4-1.2-0.3c-0.8,0,1,0.2-0.8,0l-1.8-0.2l-1.4,1.2v1
		c0,0-0.3,7,1.6,8h0.8l1.2-1.8l1,0.4v0.8l-0.2,1.3v0.8l1,1l0.6,1.8c0.8,1.4,0.3,1.8,1,2.1c0.5,0.4,0.9,0.9,1.2,1.4l0.8,0.3l1.2,0.4
		l0.6,0.2l0.2,0.9l0.2,0.7l0.8,1h2.3c0,0,0,0.4,1,0.8s0.2,0.2,1,0.3s2.1,0.4,2.1,0.4l1.4-0.2l1,1.4c0.4,0,0.7,0.3,0.8,0.6
		c0.2,0.6-1,0,0.2,0.6s0,0.2,1.2,0.6s-0.4,0.4,1.1,0.4c0.8-0.1,1.6,0,2.4,0.2c0.6,0.2,1,1.6,1,1.6l1.2,1.4l0.2,1.8
		c0,0-0.6,0.4,0.8,0.4h1.3c1.1,0-0.2-0.4,1,0l1.2,0.3c0,0,1.8,1.4,2.4,1.4c0.8-0.1,1.6-0.1,2.4,0c0.6,0.2,1,1.1,2.1,1.4
		s1.6,0,2.4,0.6l0.8,0.6l0.2,2.1l-0.6,1.2l-1.6,0.6l-0.2,2l-0.8,2v1c0,0,1,0.8-0.8,1l-1.8,0.2l-0.8,0.8c-0.1,0.3-0.2,0.6-0.4,0.8
		c-0.3,0.6-0.8,1.6-0.8,1.6l0.2,1.8v1.2l-0.6,1c0,0-0.6,0.3,1,1.3s2.8,1,3.2,1.6c0.3,0.5,0.8,0.9,1.3,1.2l-2.2-0.4l-1.3-0.4
		l-2.2-0.6l-4.3-2.3c0,0-6.4-5.3-8.4-9.6c-1.1-1.6-2.7-2.8-4.5-3.6c0,0-7.1-6.5-7.7-8.1l-0.3-1.1v-0.5l-0.3-0.3v-0.6l-0.2-0.4l0.1-2
		l0.1-1.3l0.1-0.7l-0.1-0.5c0,0-0.4-0.3-0.4-0.4S84,172,84,172l-0.1-0.3l1.1-1l-0.3-0.8l0.2-0.4l0.6-0.4c0.1-0.2,0.3-0.4,0.4-0.6
		c0-0.2-0.6-0.6-0.6-0.6L85,168l-0.3,0.8h-0.3c0,0-0.4-0.2-0.4-0.3s-0.3-0.4-0.3-0.4l-0.4-0.2c0,0-0.4-0.1-0.4-0.3s-0.6-0.4-0.6-0.6
		c-0.1-0.2-0.2-0.4-0.3-0.6l-0.4-0.2c-0.2-0.3-0.4-0.6-0.6-1c-0.1-0.2-0.2-0.4-0.3-0.5c-0.2-0.3-0.4-0.5-0.6-0.8
		c-0.1-0.2-0.2-0.5-0.3-0.7h-0.4l-1-0.4l-0.6-0.8l-0.7-0.8c-0.2-0.3-0.3-0.5-0.4-0.8c0-0.2-0.3-0.4-0.3-0.4h-0.7l-0.6-0.5l-1.6-2.2
		l-0.3-1l-0.3-1.1l-0.2-1.8v-1.2l-0.7-8.4C72.3,143.9,74.7,123.3,91.4,108.8z"/>
	<path class="st9" d="M154.5,101.8l1.8,1.4l0.9,0.4l0.6,0.7l0.1,0.7c0.1,0.3,0.1,0.6,0.1,0.9c-0.1,0.4-0.2,0.8-0.2,1.2
		c0.3,0.5,0.6,1.1,0.8,1.6c0,0.2,0.1,1-0.1,1.2s-1.2,0.7-1.3,0.4s-0.7-0.9-0.9-0.9c-0.3-0.2-0.5-0.4-0.7-0.6l1.4-0.2l-0.2-0.9
		c-0.4-0.1-0.8-0.3-1.3-0.3c-0.3-0.1-1.3-0.6-1.3-0.6l-1.1-0.3c0,0-1.8-0.4-2-0.6s-0.9-0.3-0.9-0.3h-1.5c-0.3,0.1-0.6,0.3-0.9,0.5
		c-0.3,0.4-0.6,0.8-1,1.2c0,0-0.1,1.2-0.1,1.3c-0.1,0.4-0.2,0.8-0.3,1.2c0,0.5-0.1,1.3-0.1,1.4v0.4l-0.2,0.8l-0.6,0.4l-0.8,0.6
		c0,0-0.7,0.5-0.7,0.7c0,0.5,0.1,1,0.3,1.4c0.3,0.5,0.2,1.1,0.5,1.3s0.5,0.6,0.8,0.7s0.1,0.2,0.5,0.2s0.7,0.1,0.9-0.1
		s0.6-0.1,0.8-0.3s-0.2-0.1,0.2-0.3s0.3-0.3,0.6-0.1c0.3,0.2,0.5,0.5,0.7,0.8s0.4,0.6,0.6,0.9c0.3,0.2,0.5,0.6,0.6,0.9l0.5,0.6
		c0,0,0.1,0.1,0.4,0.1c0.3,0,0.6,0,0.9-0.1l0.2-0.4c0,0,0.3,0.1,0.4-0.1c0.1-0.1,0.1-0.3,0.1-0.4c-0.1-0.2-0.2-0.5-0.3-0.7
		s-0.3-0.6-0.3-0.6l0.1-0.6l0.3-0.4l0.1-0.4V116l-0.4-0.2l-0.6-0.4c0,0-0.3,0.1-0.3-0.4l-0.1-0.3l-0.8-0.2l-0.6-0.3l0.6-0.4
		c0.4-0.6,0.4-0.8,0.4-1s-0.1-0.7-0.1-0.7c-0.2-0.1-0.4-0.3-0.4-0.6c0-0.2-0.1-0.5-0.1-0.7l0.1-0.3c0.1-0.2,0.2-0.3,0.4-0.3
		s0.5,0.3,0.7,0.3s0.3,0,0.5,0.1c0.1,0.1,0.2,0.2,0.2,0.4c0,0.2,0,0.4-0.1,0.6l0.3-0.5v0.6l-0.1,0.7v0.7l0.4,0.7l0.3,0.6l0.6,0.6
		c0.2,0.1,0.4,0.3,0.6,0.4l0.5,0.3l0.3,0.1l0.4-0.4c0,0,0.6,0.1,0.6-0.1l0.1-0.2c0,0,0.7-0.1,0.9-0.1h0.5c0,0,0.3,0.5,0.1,0.5
		s-0.3,0.2-0.7,0.4s-0.6,0-0.7,0.2s-0.4,0.6-0.4,0.6l0.4,0.1h0.3l0.4,0.4c0,0,0.1,0.1,0,0.3s0.3,0.2-0.1,0.3
		c-0.3,0.1-0.5,0.1-0.8-0.1c0,0-0.1-0.4-0.4-0.3c-0.1,0.2-0.2,0.4-0.3,0.6v0.6l0.4,0.9c0,0,0.2,0.2,0,0.3c-0.3,0.2-0.6,0.5-0.8,0.8
		c-0.1,0.2-0.2,0.3-0.4,0.3c-0.3,0-0.6,0-0.9,0.1l-0.7,0.2c-0.4,0.1-0.6,0.2-1.2,0.3c-0.6,0.1-1.2,0.1-1.8,0.1c-0.2,0-0.5,0-0.7-0.1
		s-0.1,0-0.3-0.4s-0.6-0.6-0.6-0.9c0-0.2,0-0.4-0.1-0.6c-0.1-0.3-0.1-0.6-0.3-0.6h-0.4c0,0-0.7,0.5-0.6,0.7s-0.1,0,0.5,0.4
		c0.4,0.3,0.7,0.6,0.8,1.1l-0.1,0.6l-1.2,0.6l-0.8,0.3l-0.1,0.5c0,0.2-0.1,0.3-0.2,0.4c-0.2,0.2-0.4,0.4-0.6,0.6
		c0,0-0.4,0.1-0.4,0.4s-0.4,0.9-0.4,0.9c-0.3,0-0.5,0-0.7,0.2c-0.3,0.3,0.1,0.3-0.7,0.6l-0.8,0.3l-0.9-0.1l-0.5,0.2
		c0,0-0.7,0.1-0.8,0.3s-0.4,0.7-0.4,0.7s-0.2,0.4,0,0.4s0.4,0,0.9,0.1c0.3,0.1,0.5,0.1,0.7,0.3c0.2,0.1,0.4,0.2,0.5,0.4l1,0.9
		l0.6,1.2l-0.1,0.9l-1.1,0.4h-3.5c-0.2,0-0.9-0.1-0.9-0.1l-0.6,0.1l-0.4,0.4l-0.3,0.1c0.2,0.3,0.3,0.7,0.4,1.1v0.6l-0.1,0.6
		l-0.3,0.6l-0.4,0.6l0.1,0.4c0,0-0.1,0.3,0.1,0.3s0.7-0.1,0.7,0.1c-0.1,0.3-0.2,0.6-0.4,0.9l0.9,0.2c0,0-0.1-0.1,0.4,0.1
		c0.3,0,0.6,0.1,0.9,0.2l0.6,0.4l0.2,0.4l0.2-0.4c0.4,0,0.8-0.1,1.1-0.2c0.2-0.1,0.4-0.1,0.6-0.1h0.8c0.1,0,0.3,0,0.4-0.1l0.1-0.2
		c0.4-0.1,0.7-0.3,1.1-0.5c0.2-0.1,0.3-0.6,0.3-0.6s0.3-0.2,0.3-0.3c0-0.2-0.1-0.4-0.2-0.6v-0.4l0.3-0.3c0,0,0.1-0.1,0.4-0.4
		l0.3-0.3c0,0-0.1-0.1,0.3-0.3s0.6-0.4,0.8-0.4s-0.2,0.2,0.2,0s0.4-0.3,0.4-0.6s0.1-1.2,0.1-1.2l0.3-0.5l0.9,0.1l0.5,0.1
		c0,0,0.5,0.1,0.6-0.1c0.1-0.1,0.2-0.3,0.4-0.3l0.7-0.4c0,0-0.1-0.1,0.3-0.1h1.8c0.2,0.1,0.4,0.2,0.5,0.3c0.1,0.2,0.4,0.6,0.4,0.6
		l0.3,0.4h0.3c0.3,0.3,0.7,0.5,1.2,0.6c0.6,0.2,1.1,0.4,1.1,0.4c0.1,0.2,0.2,0.4,0.3,0.5c0.2,0.2,0.4,0.4,0.6,0.6
		c0.2,0.1,0.4,0.2,0.4,0.4c0.1,0.2,0.4,0.5,0.4,0.5l0.3,0.4l0.2-0.4V135l-0.1-0.3c0,0-0.4-0.3,0.1-0.3h0.6l-0.4-0.6l-0.4-0.2
		l-0.6-0.4l-0.3-0.3l-0.3-0.1l-0.3-0.2l-0.4-0.3c0,0-0.6-0.1-0.6-0.4l-0.1-0.2l-0.6-0.1c0,0-0.6-0.4-0.6-0.5c0-0.2-0.1-0.5-0.1-0.7
		l-0.5-0.1c0-0.2,0.1-0.4,0.1-0.6c0-0.2,0.1-0.3,0.2-0.4l1.2-0.1l0.3,0.6l0.4,0.3l0.6,0.3l0.3,0.4l0.3,0.3c0.1,0.1,0.3,0.2,0.4,0.2
		l0.6,0.2c0,0,0.4,0.4,0.6,0.4s0.4,0.2,0.6,0.3l-0.2,0.2c0.1,0.1,0.2,0.3,0.4,0.4c0.3,0.2,0.5,0.4,0.5,0.7s0.2,0.6,0.4,0.9
		c0.2,0.1,0.5,0.2,0.6,0.4c0.3,0.3,0.3,0.7,0.6,0.9s0.6,0,0.6,0.3c0.1,0.2,0.1,0.4,0.1,0.6c0.1,0.1,0.3,0.1,0.4,0.1
		c0.2,0,0.5-0.4,0.5-0.4s0.4-0.6,0.1-0.6s-0.6-0.1-0.6-0.3v-1.2l0.3-0.6l0.4-0.5l0.5,0.2l0.5-0.3l0.6,0.6l-0.2,0.7
		c0.1,0.3,0.2,0.6,0.3,0.8c0.2,0.3,0.4,0.6,0.6,0.8l0.9,0.8l1.3,0.3l0.3-0.1l1.9-0.4h0.4c0.2,0,1.1,1.5,1.1,1.5v2.2
		c0,0-0.6,0.6-0.9,0.6c-0.3,0.1-0.7,0.2-1,0.3l-1.5,0.4l-1-0.1l-1.8-0.1l-2-0.1h-1c-0.2,0-0.4,0.2-0.6,0.7c-0.1,0.3-0.3,0.5-0.6,0.7
		c0,0,0,0.3-0.3,0.3s-0.4,0.1-0.6-0.1c-0.5-0.2-1-0.3-1.5-0.4l-1.2-0.8l-0.6-0.5l-0.6-0.1h-1.7l-1.2-0.1l0.2-1.9l0.2,0.5l-0.4-1.3
		l-0.5-0.4l-1.3-0.3l-0.8,0.1l-1,0.3l-1.1,0.4l-0.6,0.2l-3,0.5l-1.1,0.4c0,0-0.4,0.3-0.6,0.4c-0.3,0.1-0.6,0.1-0.9,0.1
		c0,0-0.5-0.1-0.8-0.2c-0.4-0.1-0.8-0.1-1.2-0.1c-0.3,0-0.7,0-1,0c-0.2,0.1-0.4,0.1-0.5,0.4s-0.8,1-0.8,1s-0.3,0.4-0.5,0.5
		c-0.2,0.2-0.3,0.5-0.5,0.7l-0.7,1.2l-0.4,0.6l0.1,0.6v0.4c-0.1,0.1-0.3,0.3-0.4,0.4c-0.2,0.1-0.6,0.3-0.6,0.3
		c-0.2,0.1-0.4,0.2-0.5,0.3c-0.3,0.2-0.3,0.3-0.4,0.4S134,147,134,147c-0.2,0.2-0.4,0.4-0.6,0.6c-0.2,0.3-0.6,0.6-0.6,0.8
		c-0.1,0.2-0.3,0.3-0.6,0.4c-0.2,0.3-0.4,0.6-0.6,1c-0.1,0.1-0.6,1-0.6,1l-0.4,1.5l-0.1,0.7c0.1,0.2,0.1,0.3,0.3,0.4
		c0.2,0.3,0.3,0.6,0.4,0.9v0.6c0,0-0.2,0.5-0.3,0.7c0,0.4,0,0.7,0.1,1.1v0.5c0,0.2-0.1,0.3-0.3,0.4c-0.2,0.2-0.3,0.4-0.4,0.6
		l0.4,0.8l0.3,0.5v0.4l0.3,0.6l0.4,0.4c0.2,0.1,0.5,0.2,0.7,0.4l0.3,0.2c0,0,0.6,0.6,0.6,0.9s0.3,0.6,0.3,0.6l0.6,0.6
		c0.1,0.2,0.2,0.5,0.4,0.6c0.4,0.3,0.7,0.4,0.9,0.6c0.4,0.3,0.7,0.5,1.2,0.6c0.2,0.1,0.5,0.1,0.7,0.2c0.2,0-0.3-0.6,1,0.1
		c0.7,0.3,1.4,0.6,2.1,0.9l0.9,0.4c0,0,1.4,0.1,1.6-0.1c0.2-0.1,0.4-0.1,0.6-0.1h1c0.3,0,1.6-0.2,1.6-0.2l1.4-0.5
		c0,0,0.4-0.3,0.6-0.4s0.7-0.4,0.9-0.5c0.3-0.1,0.7-0.1,1.1-0.1c0,0,0-0.3,0.4,0c0.2,0.1,0.4,0.3,0.4,0.6c0.1,0.2,0.1,0.6,0.4,0.6
		l0.9,0.3c0.4,0,0.8,0,1.2,0c0.3,0.1,0.6,0.1,0.9,0.1l0.3,0.4l0.1,0.8v0.7c0,0.2,0,0.4,0,0.5c0.1,0.2,0.2,0.5,0.4,0.7
		c-0.2,0.2-0.3,0.4-0.6,0.6c-0.2,0.2-0.5,0.4-0.6,0.6l1.3,1.2l0.7,0.7l0.6,0.6c0,0.1,0.1,0.3,0.1,0.4c0,0.3,0,0.6,0,0.9
		c0.1,0.3,0.1,0.6,0.1,0.9c0,0.2,0.1,0.5,0.1,0.7s-0.2,1.1-0.2,1.1l-0.1,0.6l-0.4,1.1l-0.4,0.5l-0.6,0.6l-0.4,0.7l-0.1,1l-0.4,0.6
		c0.1,0.3,0.1,0.6,0.1,0.8c0.1,0.4,0.3,0.9,0.5,1.3l0.1,1.3c-0.1,0.5-0.3,1-0.3,1.4c0,0.3-0.3,0.6-0.3,0.9s-0.1,1-0.1,1l0.1,1l0.3,1
		l-0.3,0.9c-0.1,0.4-0.2,0.8-0.2,1.2c0,0.3,0.6,0.8,0.8,0.8c0.5,0,0.9-0.1,1.4-0.3c0.3-0.2,1.2-0.4,1.4-0.6s0.4,0.1,0.9-0.3
		s1.3-1,1.3-1l0.9-0.6c0.2-0.2,1-1.2,1-1.2c0.3-0.3,0.7-0.6,1.1-0.9c0.4-0.3,0-0.1,0.4-0.3s1.9-1.4,1.9-1.4l1.4-1.4
		c0,0,1.3-1.6,1.4-1.9c0.5-0.7,1-1.3,1.5-1.9c0.2-0.1,1.8-1.1,2.1-1.4c0.4-0.8,0.7-1.6,1-2.4c0.2-0.2,1.2-2.4,1.2-2.4l0.9-2.6
		l1.5-3.9l1.5-2.7c0.3-0.5,0.6-1,0.9-1.5l1.6-3.1l0.6-2.3l0.2-2h-0.9l-1,0.9l-0.9-0.3l-0.9,0.1l1-1.3l-0.3-1l-0.8-0.6l-1.1-1.6v-1.6
		l-1.2-1.9l-0.7-3c0,0-1.3-1.4-1.2-1.8s0.4-1.4,0.4-1.4l0.7,0.4c0,0,0.5,1.4,0.8,1.5s0.6,0.8,0.7,1s0.2,0.8,0.3,1l0.7,1.3
		c0,0,0.4,1.2,0.6,1.4c0.3,0.5,0.5,0.9,0.6,1.4c0.1,0.6,0.3,2.2,0.3,2.4s0.5,2.1,0.5,2.1s0.6-0.2,0.7-0.3c0.1-0.2,0.2-0.3,0.3-0.4
		c0.4-0.4,0.7-0.7,1.2-1l0.4-1.4c0.1-0.3,0.2-0.6,0.3-0.9c0.2-0.5,0.5-0.9,0.6-1.4c0-0.4,0-0.8,0-1.2c0.2-0.5,0.3-0.9,0.4-1.4
		c0-0.2,0.1-0.9,0.1-0.9l-0.1-1.6l0.7-0.9l0.4-1C183.8,144,181.2,115.9,154.5,101.8z"/>
</g>
</svg>
