<?xml version="1.0" encoding="utf-8"?>
<!-- Generator: Adobe Illustrator 18.0.0, SVG Export Plug-In . SVG Version: 6.00 Build 0)  -->
<!DOCTYPE svg PUBLIC "-//W3C//DTD SVG 1.1//EN" "http://www.w3.org/Graphics/SVG/1.1/DTD/svg11.dtd">
<svg version="1.1" id="图层_1" xmlns="http://www.w3.org/2000/svg" xmlns:xlink="http://www.w3.org/1999/xlink" x="0px" y="0px"
	 viewBox="0 0 256 256" enable-background="new 0 0 256 256" xml:space="preserve">
<g opacity="8.000000e-002">
	<polygon fill="#040000" points="91.7,141.5 79.4,107.6 47.7,132.4 68.5,135.1 	"/>
	<polygon fill="#040000" points="141.7,219 141.7,218.8 141.5,219 	"/>
	<polygon fill="#040000" points="135.4,156.4 136.4,156.8 136.4,156.2 	"/>
	<polygon fill="#040000" points="136.4,156.8 167.3,169.9 176,147.8 135.4,156.4 	"/>
	<polygon fill="#040000" points="86.4,167.3 135.4,156.4 91.7,141.5 	"/>
	<polygon fill="#040000" points="47.7,132.4 53.8,174.6 68.5,135.1 	"/>
	<polygon fill="#040000" points="68.5,135.1 53.8,174.6 91.7,141.5 	"/>
	<polygon fill="#040000" points="53.8,174.6 86.4,167.3 91.7,141.5 	"/>
	<polygon fill="#040000" points="86.6,68.3 86.8,68.5 86.8,68.3 	"/>
	<polygon fill="#040000" points="79.4,107.6 105.2,108.6 105.8,90.7 	"/>
	<polygon fill="#040000" points="134.8,130.8 105.2,108.6 91.7,141.5 	"/>
	<polygon fill="#040000" points="87,68.1 86.6,68.3 86.8,68.3 	"/>
	<polygon fill="#040000" points="91.7,141.5 105.2,108.6 79.4,107.6 	"/>
	<polygon fill="#040000" points="141.3,231.9 141.5,219 141.5,219 130.2,212.3 	"/>
	<polygon fill="#040000" points="109.8,231.5 141.3,231.9 130.2,212.3 	"/>
	<polygon fill="#040000" points="130.2,212.3 141.5,219 141.7,218.8 150,188.1 	"/>
	<polygon fill="#040000" points="180.2,229.2 203.6,207.1 174.6,210.5 	"/>
	<polygon fill="#040000" points="149.4,247.6 181.8,247.6 180.2,229.2 159.8,234.1 181,246.2 159.8,234.1 180.2,229.2 174.6,210.5 	
		"/>
	<polygon fill="#040000" points="141.7,218.8 165.5,199.4 150,188.1 	"/>
	<polygon fill="#040000" points="203.6,207.1 191.7,182.5 174.6,210.5 	"/>
	<polygon fill="#040000" points="25.3,239.3 56,239.3 36.8,225.4 	"/>
	<polygon fill="#040000" points="130.6,13.6 100.3,44.9 115.5,38.9 	"/>
	<polygon fill="#040000" points="104,24.3 73.5,55.6 92.9,43.5 	"/>
	<polygon fill="#040000" points="165.9,199.4 174.6,210.5 191.7,182.5 150,188.1 	"/>
	<polygon fill="#040000" points="115.5,38.9 100.3,44.9 117.9,52.2 	"/>
	<polygon fill="#040000" points="96.1,44.3 104,24.5 92.9,43.7 	"/>
	<polygon fill="#040000" points="117.9,52.2 130.6,13.6 115.5,38.9 	"/>
	<polygon fill="#040000" points="47.3,212.5 36.8,225.4 60,210.9 40.8,196.6 	"/>
	<polygon fill="#040000" points="48.3,102 47.7,132.4 79.4,107.6 	"/>
	<polygon fill="#040000" points="56,239.3 60,210.9 36.8,225.4 	"/>
	<polygon fill="#040000" points="191.7,182.5 190.3,152.8 167.3,169.9 	"/>
	<polygon fill="#040000" points="150,188.1 191.7,182.5 167.3,169.9 	"/>
	<polygon fill="#040000" points="167.3,169.9 190.3,152.8 176,147.8 	"/>
	<polygon fill="#040000" points="190.3,152.8 214.3,138.7 205.4,132 	"/>
	<polygon fill="#040000" points="133.2,176.8 150,188.1 167.3,169.9 	"/>
	<polygon fill="#040000" points="188.5,141.1 176,147.8 190.3,152.8 205.4,132 	"/>
	<polygon fill="#040000" points="116.1,185.7 133.2,176.8 86.4,167.3 	"/>
	<polygon fill="#040000" points="135.4,156.4 133.2,176.8 167.3,169.9 	"/>
	<polygon fill="#040000" points="135.4,156.4 86.4,167.3 133.2,176.8 	"/>
	<polygon fill="#040000" points="233.7,119.3 251,97.3 222.6,106.2 233.5,119.7 	"/>
	<polygon fill="#040000" points="227.6,141.3 245.6,134.7 233.5,119.7 	"/>
	<polygon fill="#040000" points="233.5,119.7 214.1,138.7 227.6,141.3 	"/>
	<polygon fill="#040000" points="205.4,132 214.3,138.7 222.6,106.2 	"/>
	<polygon fill="#040000" points="233.5,119.7 233.5,119.7 245.6,134.7 251,97.3 	"/>
	<polygon fill="#040000" points="222.6,106.2 214.1,138.7 233.5,119.7 	"/>
	<polygon fill="#040000" points="92.9,195 116.1,185.7 86.4,167.3 	"/>
	<polygon fill="#040000" points="79.4,107.6 48.7,70.3 48.3,102 	"/>
	<polygon fill="#040000" points="73.7,54.6 48.7,70.3 76.1,77 	"/>
	<polygon fill="#040000" points="76.1,77 48.7,70.3 79.4,107.6 	"/>
	<polygon fill="#040000" points="48.3,102 48.7,70.3 36.8,95.9 48.1,102 	"/>
	<polygon fill="#040000" points="79.4,107.6 86.8,68.5 86.6,68.3 73.7,54.6 76.1,77 	"/>
	<polygon fill="#040000" points="86.8,68.5 92.9,43.5 73.7,54.6 86.6,68.3 	"/>
	<polygon fill="#040000" points="36.8,95.9 19.7,125.2 48.1,102 	"/>
	<polygon fill="#040000" points="48.3,102 48.1,102 19.7,125.2 47.7,132.4 	"/>
	<polygon fill="#040000" points="60,210.9 72.5,191.5 53.8,174.6 	"/>
	<polygon fill="#040000" points="72.5,191.5 92.9,195 86.4,167.3 	"/>
	<polygon fill="#040000" points="40.8,196.6 60,210.9 53.8,174.6 	"/>
	<polygon fill="#040000" points="53.8,174.6 72.5,191.5 86.4,167.3 	"/>
	<polygon fill="#040000" points="19.7,125.2 35.8,165.5 47.7,132.4 	"/>
	<polygon fill="#040000" points="35.8,165.5 40.8,196.6 53.8,174.6 	"/>
	<polygon fill="#040000" points="47.7,132.4 35.8,165.5 53.8,174.6 	"/>
	<polygon fill="#040000" points="176,147.8 134.8,130.8 135.4,156.4 	"/>
	<polygon fill="#040000" points="135.4,156.4 135.4,156.4 134.8,130.8 91.7,141.5 	"/>
	<polygon fill="#040000" points="86.8,68.5 79.4,107.6 105.8,90.7 	"/>
	<polygon fill="#040000" points="86.8,68.5 105.8,90.7 125,81.2 86.8,68.3 	"/>
	<polygon fill="#040000" points="105.2,108.6 125,81.2 105.8,90.7 	"/>
	<polygon fill="#040000" points="86.8,68.5 125,81.2 117.9,52.2 	"/>
	<polygon fill="#040000" points="117.9,52.2 100.3,44.9 92.9,43.5 86.8,68.5 	"/>
</g>
<g opacity="0.1">
	<polygon fill="#040000" points="87.8,139.5 75.5,105.6 43.7,130.4 64.6,133.2 	"/>
	<polygon fill="#040000" points="137.7,217.1 137.7,216.9 137.5,217.1 	"/>
	<polygon fill="#040000" points="131.4,154.4 132.4,154.8 132.4,154.2 	"/>
	<polygon fill="#040000" points="132.4,154.8 163.3,167.9 172.1,145.9 131.4,154.4 	"/>
	<polygon fill="#040000" points="82.4,165.3 131.4,154.4 87.8,139.5 	"/>
	<polygon fill="#040000" points="43.7,130.4 49.9,172.6 64.6,133.2 	"/>
	<polygon fill="#040000" points="64.6,133.2 49.9,172.6 87.8,139.5 	"/>
	<polygon fill="#040000" points="49.9,172.6 82.4,165.3 87.8,139.5 	"/>
	<polygon fill="#040000" points="82.6,66.3 82.8,66.5 82.8,66.3 	"/>
	<polygon fill="#040000" points="75.5,105.6 101.2,106.6 101.8,88.7 	"/>
	<polygon fill="#040000" points="130.8,128.8 101.2,106.6 87.8,139.5 	"/>
	<polygon fill="#040000" points="83,66.1 82.6,66.3 82.8,66.3 	"/>
	<polygon fill="#040000" points="87.8,139.5 101.2,106.6 75.5,105.6 	"/>
	<polygon fill="#040000" points="137.3,230 137.5,217.1 137.5,217.1 126.2,210.3 	"/>
	<polygon fill="#040000" points="105.8,229.6 137.3,230 126.2,210.3 	"/>
	<polygon fill="#040000" points="126.2,210.3 137.5,217.1 137.7,216.9 146.1,186.1 	"/>
	<polygon fill="#040000" points="176.2,227.2 199.6,205.2 170.7,208.5 	"/>
	<polygon fill="#040000" points="145.5,245.6 177.8,245.6 176.2,227.2 155.8,232.1 177,244.2 155.8,232.1 176.2,227.2 170.7,208.5 	
		"/>
	<polygon fill="#040000" points="137.7,216.9 161.5,197.4 146.1,186.1 	"/>
	<polygon fill="#040000" points="199.6,205.2 187.7,180.6 170.7,208.5 	"/>
	<polygon fill="#040000" points="21.3,237.3 52.1,237.3 32.8,223.4 	"/>
	<polygon fill="#040000" points="126.6,11.6 96.3,42.9 111.6,37 	"/>
	<polygon fill="#040000" points="100.1,22.3 69.5,53.6 89,41.5 	"/>
	<polygon fill="#040000" points="161.9,197.4 170.7,208.5 187.7,180.6 146.1,186.1 	"/>
	<polygon fill="#040000" points="111.6,37 96.3,42.9 113.9,50.3 	"/>
	<polygon fill="#040000" points="92.1,42.3 100.1,22.5 89,41.7 	"/>
	<polygon fill="#040000" points="113.9,50.3 126.6,11.6 111.6,37 	"/>
	<polygon fill="#040000" points="43.3,210.5 32.8,223.4 56,208.9 36.8,194.6 	"/>
	<polygon fill="#040000" points="44.3,100 43.7,130.4 75.5,105.6 	"/>
	<polygon fill="#040000" points="52.1,237.3 56,208.9 32.8,223.4 	"/>
	<polygon fill="#040000" points="187.7,180.6 186.3,150.8 163.3,167.9 	"/>
	<polygon fill="#040000" points="146.1,186.1 187.7,180.6 163.3,167.9 	"/>
	<polygon fill="#040000" points="163.3,167.9 186.3,150.8 172.1,145.9 	"/>
	<polygon fill="#040000" points="186.3,150.8 210.3,136.7 201.4,130 	"/>
	<polygon fill="#040000" points="129.2,174.8 146.1,186.1 163.3,167.9 	"/>
	<polygon fill="#040000" points="184.6,139.1 172.1,145.9 186.3,150.8 201.4,130 	"/>
	<polygon fill="#040000" points="112.2,183.7 129.2,174.8 82.4,165.3 	"/>
	<polygon fill="#040000" points="131.4,154.4 129.2,174.8 163.3,167.9 	"/>
	<polygon fill="#040000" points="131.4,154.4 82.4,165.3 129.2,174.8 	"/>
	<polygon fill="#040000" points="229.8,117.3 247,95.3 218.7,104.2 229.6,117.7 	"/>
	<polygon fill="#040000" points="223.6,139.3 241.7,132.8 229.6,117.7 	"/>
	<polygon fill="#040000" points="229.6,117.7 210.1,136.7 223.6,139.3 	"/>
	<polygon fill="#040000" points="201.4,130 210.3,136.7 218.7,104.2 	"/>
	<polygon fill="#040000" points="229.6,117.7 229.6,117.7 241.7,132.8 247,95.3 	"/>
	<polygon fill="#040000" points="218.7,104.2 210.1,136.7 229.6,117.7 	"/>
	<polygon fill="#040000" points="89,193.1 112.2,183.7 82.4,165.3 	"/>
	<polygon fill="#040000" points="75.5,105.6 44.7,68.3 44.3,100 	"/>
	<polygon fill="#040000" points="69.7,52.6 44.7,68.3 72.1,75 	"/>
	<polygon fill="#040000" points="72.1,75 44.7,68.3 75.5,105.6 	"/>
	<polygon fill="#040000" points="44.3,100 44.7,68.3 32.8,93.9 44.1,100 	"/>
	<polygon fill="#040000" points="75.5,105.6 82.8,66.5 82.6,66.3 69.7,52.6 72.1,75 	"/>
	<polygon fill="#040000" points="82.8,66.5 89,41.5 69.7,52.6 82.6,66.3 	"/>
	<polygon fill="#040000" points="32.8,93.9 15.8,123.2 44.1,100 	"/>
	<polygon fill="#040000" points="44.3,100 44.1,100 15.8,123.2 43.7,130.4 	"/>
	<polygon fill="#040000" points="56,208.9 68.5,189.5 49.9,172.6 	"/>
	<polygon fill="#040000" points="68.5,189.5 89,193.1 82.4,165.3 	"/>
	<polygon fill="#040000" points="36.8,194.6 56,208.9 49.9,172.6 	"/>
	<polygon fill="#040000" points="49.9,172.6 68.5,189.5 82.4,165.3 	"/>
	<polygon fill="#040000" points="15.8,123.2 31.8,163.5 43.7,130.4 	"/>
	<polygon fill="#040000" points="31.8,163.5 36.8,194.6 49.9,172.6 	"/>
	<polygon fill="#040000" points="43.7,130.4 31.8,163.5 49.9,172.6 	"/>
	<polygon fill="#040000" points="172.1,145.9 130.8,128.8 131.4,154.4 	"/>
	<polygon fill="#040000" points="131.4,154.4 131.4,154.4 130.8,128.8 87.8,139.5 	"/>
	<polygon fill="#040000" points="82.8,66.5 75.5,105.6 101.8,88.7 	"/>
	<polygon fill="#040000" points="82.8,66.5 101.8,88.7 121.1,79.2 82.8,66.3 	"/>
	<polygon fill="#040000" points="101.2,106.6 121.1,79.2 101.8,88.7 	"/>
	<polygon fill="#040000" points="82.8,66.5 121.1,79.2 113.9,50.3 	"/>
	<polygon fill="#040000" points="113.9,50.3 96.3,42.9 89,41.5 82.8,66.5 	"/>
</g>
<g opacity="0.2">
	<polygon fill="#040000" points="83.8,137.5 71.5,103.6 39.8,128.4 60.6,131.2 	"/>
	<polygon fill="#040000" points="133.8,215.1 133.8,214.9 133.6,215.1 	"/>
	<polygon fill="#040000" points="127.4,152.4 128.4,152.8 128.4,152.2 	"/>
	<polygon fill="#040000" points="128.4,152.8 159.4,165.9 168.1,143.9 127.4,152.4 	"/>
	<polygon fill="#040000" points="78.4,163.3 127.4,152.4 83.8,137.5 	"/>
	<polygon fill="#040000" points="39.8,128.4 45.9,170.6 60.6,131.2 	"/>
	<polygon fill="#040000" points="60.6,131.2 45.9,170.6 83.8,137.5 	"/>
	<polygon fill="#040000" points="45.9,170.6 78.4,163.3 83.8,137.5 	"/>
	<polygon fill="#040000" points="78.6,64.3 78.8,64.5 78.8,64.3 	"/>
	<polygon fill="#040000" points="71.5,103.6 97.3,104.6 97.9,86.7 	"/>
	<polygon fill="#040000" points="126.8,126.8 97.3,104.6 83.8,137.5 	"/>
	<polygon fill="#040000" points="79,64.1 78.6,64.3 78.8,64.3 	"/>
	<polygon fill="#040000" points="83.8,137.5 97.3,104.6 71.5,103.6 	"/>
	<polygon fill="#040000" points="133.4,228 133.6,215.1 133.6,215.1 122.3,208.3 	"/>
	<polygon fill="#040000" points="101.8,227.6 133.4,228 122.3,208.3 	"/>
	<polygon fill="#040000" points="122.3,208.3 133.6,215.1 133.8,214.9 142.1,184.1 	"/>
	<polygon fill="#040000" points="172.3,225.2 195.7,203.2 166.7,206.5 	"/>
	<polygon fill="#040000" points="141.5,243.6 173.8,243.6 172.3,225.2 151.8,230.2 173,242.3 151.8,230.2 172.3,225.2 166.7,206.5 	
		"/>
	<polygon fill="#040000" points="133.8,214.9 157.6,195.4 142.1,184.1 	"/>
	<polygon fill="#040000" points="195.7,203.2 183.8,178.6 166.7,206.5 	"/>
	<polygon fill="#040000" points="17.3,235.3 48.1,235.3 28.9,221.4 	"/>
	<polygon fill="#040000" points="122.7,9.6 92.3,40.9 107.6,35 	"/>
	<polygon fill="#040000" points="96.1,20.3 65.5,51.6 85,39.5 	"/>
	<polygon fill="#040000" points="158,195.4 166.7,206.5 183.8,178.6 142.1,184.1 	"/>
	<polygon fill="#040000" points="107.6,35 92.3,40.9 110,48.3 	"/>
	<polygon fill="#040000" points="88.2,40.3 96.1,20.5 85,39.7 	"/>
	<polygon fill="#040000" points="110,48.3 122.7,9.6 107.6,35 	"/>
	<polygon fill="#040000" points="39.4,208.5 28.9,221.4 52.1,206.9 32.8,192.7 	"/>
	<polygon fill="#040000" points="40.4,98.1 39.8,128.4 71.5,103.6 	"/>
	<polygon fill="#040000" points="48.1,235.3 52.1,206.9 28.9,221.4 	"/>
	<polygon fill="#040000" points="183.8,178.6 182.4,148.8 159.4,165.9 	"/>
	<polygon fill="#040000" points="142.1,184.1 183.8,178.6 159.4,165.9 	"/>
	<polygon fill="#040000" points="159.4,165.9 182.4,148.8 168.1,143.9 	"/>
	<polygon fill="#040000" points="182.4,148.8 206.4,134.7 197.4,128 	"/>
	<polygon fill="#040000" points="125.2,172.8 142.1,184.1 159.4,165.9 	"/>
	<polygon fill="#040000" points="180.6,137.1 168.1,143.9 182.4,148.8 197.4,128 	"/>
	<polygon fill="#040000" points="108.2,181.8 125.2,172.8 78.4,163.3 	"/>
	<polygon fill="#040000" points="127.4,152.4 125.2,172.8 159.4,165.9 	"/>
	<polygon fill="#040000" points="127.4,152.4 78.4,163.3 125.2,172.8 	"/>
	<polygon fill="#040000" points="225.8,115.3 243.1,93.3 214.7,102.2 225.6,115.7 	"/>
	<polygon fill="#040000" points="219.7,137.3 237.7,130.8 225.6,115.7 	"/>
	<polygon fill="#040000" points="225.6,115.7 206.2,134.7 219.7,137.3 	"/>
	<polygon fill="#040000" points="197.4,128 206.4,134.7 214.7,102.2 	"/>
	<polygon fill="#040000" points="225.6,115.7 225.6,115.7 237.7,130.8 243.1,93.3 	"/>
	<polygon fill="#040000" points="214.7,102.2 206.2,134.7 225.6,115.7 	"/>
	<polygon fill="#040000" points="85,191.1 108.2,181.8 78.4,163.3 	"/>
	<polygon fill="#040000" points="71.5,103.6 40.8,66.3 40.4,98.1 	"/>
	<polygon fill="#040000" points="65.7,50.6 40.8,66.3 68.1,73.1 	"/>
	<polygon fill="#040000" points="68.1,73.1 40.8,66.3 71.5,103.6 	"/>
	<polygon fill="#040000" points="40.4,98.1 40.8,66.3 28.9,91.9 40.2,98.1 	"/>
	<polygon fill="#040000" points="71.5,103.6 78.8,64.5 78.6,64.3 65.7,50.6 68.1,73.1 	"/>
	<polygon fill="#040000" points="78.8,64.5 85,39.5 65.7,50.6 78.6,64.3 	"/>
	<polygon fill="#040000" points="28.9,91.9 11.8,121.3 40.2,98.1 	"/>
	<polygon fill="#040000" points="40.4,98.1 40.2,98.1 11.8,121.3 39.8,128.4 	"/>
	<polygon fill="#040000" points="52.1,206.9 64.6,187.5 45.9,170.6 	"/>
	<polygon fill="#040000" points="64.6,187.5 85,191.1 78.4,163.3 	"/>
	<polygon fill="#040000" points="32.8,192.7 52.1,206.9 45.9,170.6 	"/>
	<polygon fill="#040000" points="45.9,170.6 64.6,187.5 78.4,163.3 	"/>
	<polygon fill="#040000" points="11.8,121.3 27.9,161.5 39.8,128.4 	"/>
	<polygon fill="#040000" points="27.9,161.5 32.8,192.7 45.9,170.6 	"/>
	<polygon fill="#040000" points="39.8,128.4 27.9,161.5 45.9,170.6 	"/>
	<polygon fill="#040000" points="168.1,143.9 126.8,126.8 127.4,152.4 	"/>
	<polygon fill="#040000" points="127.4,152.4 127.4,152.4 126.8,126.8 83.8,137.5 	"/>
	<polygon fill="#040000" points="78.8,64.5 71.5,103.6 97.9,86.7 	"/>
	<polygon fill="#040000" points="78.8,64.5 97.9,86.7 117.1,77.2 78.8,64.3 	"/>
	<polygon fill="#040000" points="97.3,104.6 117.1,77.2 97.9,86.7 	"/>
	<polygon fill="#040000" points="78.8,64.5 117.1,77.2 110,48.3 	"/>
	<polygon fill="#040000" points="110,48.3 92.3,40.9 85,39.5 78.8,64.5 	"/>
</g>
<g>
	<polygon fill="#AFD9E9" points="78,135.5 65.3,101.6 32.2,126.4 53.8,129.2 	"/>
	<polygon fill="none" points="130,213.1 130,212.9 129.8,213.1 	"/>
	<polygon fill="none" stroke="#231815" stroke-width="0.8829" points="123.5,150.4 124.5,150.8 124.5,150.2 	"/>
	<polygon fill="#1E95D4" points="124.5,150.8 156.6,163.9 165.9,141.9 123.5,150.4 	"/>
	<polygon fill="#AFD9E9" points="72.5,161.3 123.5,150.4 78,135.5 	"/>
	<polygon fill="#1E95D4" points="32.2,126.4 38.6,168.7 53.8,129.2 	"/>
	<polygon fill="#1888CA" points="53.8,129.2 38.6,168.7 78,135.5 	"/>
	<polygon fill="#1E95D4" points="38.6,168.7 72.5,161.3 78,135.5 	"/>
	<polygon fill="none" stroke="#231815" stroke-width="0.8829" points="72.7,62.4 72.9,62.5 73.1,62.4 	"/>
	<polygon fill="#0A5DA4" points="65.3,101.6 92.1,102.6 92.7,84.8 	"/>
	<polygon fill="#1888CA" points="122.9,124.8 92.1,102.6 78,135.5 	"/>
	<polygon fill="none" stroke="#231815" stroke-width="0.8829" points="73.1,62.2 72.7,62.4 73.1,62.4 	"/>
	<polygon fill="#1E95D4" points="78,135.5 92.1,102.6 65.3,101.6 	"/>
	<polygon fill="#0A5DA4" points="129.6,226 129.8,213.1 129.8,213.1 118.1,206.4 	"/>
	<polygon fill="#00417A" points="96.7,225.6 129.6,226 118.1,206.4 	"/>
	<polygon fill="#00417A" points="118.1,206.4 129.8,213.1 130,212.9 138.7,182.2 	"/>
	<polygon fill="#0A5DA4" points="170.1,223.2 194.5,201.2 164.3,204.6 	"/>
	<polygon fill="#00417A" points="137.9,241.7 171.7,241.7 170.1,223.2 148.9,228.2 170.9,240.3 148.9,228.2 170.1,223.2 
		164.3,204.6 	"/>
	<polygon fill="#0A5DA4" points="130,212.9 154.8,193.5 138.7,182.2 	"/>
	<polygon fill="#00417A" points="194.5,201.2 182.2,176.6 164.3,204.6 	"/>
	<polygon fill="#00417A" points="8.8,233.3 41,233.3 20.7,219.4 	"/>
	<polygon fill="#1888CA" points="118.7,7.6 87,38.9 102.8,33 	"/>
	<polygon fill="#1888CA" points="90.7,18.3 59.2,49.7 79.4,37.6 	"/>
	<polygon fill="#1888CA" points="155.2,193.5 164.3,204.6 182.2,176.6 138.7,182.2 	"/>
	<polygon fill="#1E95D4" points="102.8,33 87,38.9 105.2,46.3 	"/>
	<polygon fill="#AFD9E9" points="82.4,38.4 90.7,18.5 79.2,37.8 	"/>
	<polygon fill="#AFD9E9" points="105.2,46.3 118.5,7.6 102.8,33 	"/>
	<polygon fill="#1888CA" points="31.8,206.5 20.7,219.4 45.1,205 25.1,190.7 	"/>
	<polygon fill="#1E95D4" points="32.8,96.1 32.2,126.4 65.3,101.6 	"/>
	<polygon fill="#0A5DA4" points="41,233.3 45.1,205 20.7,219.4 	"/>
	<polygon fill="#0A5DA4" points="182.2,176.6 180.6,146.8 156.6,163.9 	"/>
	<polygon fill="#1E95D4" points="138.7,182.2 182.2,176.6 156.6,163.9 	"/>
	<polygon fill="#1888CA" points="156.6,163.9 180.6,146.8 165.9,141.9 	"/>
	<polygon fill="#1888CA" points="180.6,146.8 205.6,132.8 196.5,126 	"/>
	<polygon fill="#0A5DA4" points="121.3,170.8 138.7,182.2 156.6,163.9 	"/>
	<polygon fill="#1E95D4" points="178.8,135.1 165.9,141.9 180.6,146.8 196.5,126 	"/>
	<polygon fill="#00417A" points="103.4,179.8 121.3,170.8 72.5,161.3 	"/>
	<polygon fill="#1888CA" points="123.5,150.4 121.3,170.8 156.6,163.9 	"/>
	<polygon fill="#0A5DA4" points="123.5,150.4 72.5,161.3 121.3,170.8 	"/>
	<polygon fill="#AFD9E9" points="225.8,113.3 243.7,91.3 214.3,100.2 225.6,113.7 	"/>
	<polygon fill="#1888CA" points="219.5,135.3 238.3,128.8 225.6,113.7 	"/>
	<polygon fill="#0A5DA4" points="225.6,113.7 205.4,132.8 219.5,135.3 	"/>
	<polygon fill="#1E95D4" points="196.5,126 205.6,132.8 214.3,100.2 	"/>
	<polygon fill="#1E95D4" points="225.6,113.7 225.6,113.7 238.3,128.8 243.9,91.3 	"/>
	<polygon fill="#1888CA" points="214.3,100.2 205.4,132.8 225.6,113.7 	"/>
	<polygon fill="#1888CA" points="79.2,189.1 103.4,179.8 72.5,161.3 	"/>
	<polygon fill="#1888CA" points="65.3,101.6 33.4,64.3 32.8,96.1 	"/>
	<polygon fill="#1888CA" points="59.2,48.7 33.4,64.3 61.8,71.1 	"/>
	<polygon fill="#1E95D4" points="61.8,71.1 33.4,64.3 65.3,101.6 	"/>
	<polygon fill="#1E95D4" points="32.8,96.1 33.4,64.3 20.9,89.9 32.6,96.1 	"/>
	<polygon fill="#0A5DA4" points="65.3,101.6 72.9,62.5 72.7,62.4 59.2,48.7 61.8,71.1 	"/>
	<polygon fill="#1E95D4" points="72.9,62.5 79.4,37.6 59.2,48.7 72.7,62.4 	"/>
	<polygon fill="#0A5DA4" points="20.9,89.9 3.1,119.3 32.6,96.1 	"/>
	<polygon fill="#1888CA" points="32.8,96.1 32.6,96.1 3.1,119.3 32.2,126.4 	"/>
	<polygon fill="#00417A" points="45.1,205 58,185.5 38.6,168.7 	"/>
	<polygon fill="#1E95D4" points="58,185.5 79.2,189.1 72.5,161.3 	"/>
	<polygon fill="#0A5DA4" points="25.1,190.7 45.1,205 38.6,168.7 	"/>
	<polygon fill="#0A5DA4" points="38.6,168.7 58,185.5 72.5,161.3 	"/>
	<polygon fill="#0A5DA4" points="3.1,119.3 19.7,159.5 32.2,126.4 	"/>
	<polygon fill="#1E95D4" points="19.7,159.5 25.1,190.7 38.6,168.7 	"/>
	<polygon fill="#1888CA" points="32.2,126.4 19.7,159.5 38.6,168.7 	"/>
	<polygon fill="#AFD9E9" points="165.9,141.9 122.9,124.8 123.5,150.4 	"/>
	<polygon fill="#1E95D4" points="123.5,150.4 123.5,150.4 122.9,124.8 78,135.5 	"/>
	<polygon fill="#1888CA" points="72.9,62.5 65.3,101.6 92.7,84.8 	"/>
	<polygon fill="#1E95D4" points="72.9,62.5 92.7,84.8 112.8,75.2 73.1,62.4 	"/>
	<polygon fill="#AFD9E9" points="92.1,102.6 112.8,75.2 92.7,84.8 	"/>
	<polygon fill="#AFD9E9" points="72.9,62.5 112.8,75.2 105.2,46.3 	"/>
	<polygon fill="#1888CA" points="105.2,46.3 87,38.9 79.4,37.6 72.9,62.5 	"/>
</g>
</svg>
