<?xml version="1.0" encoding="utf-8"?>
<!-- Generator: Adobe Illustrator 21.0.0, SVG Export Plug-In . SVG Version: 6.00 Build 0)  -->
<svg version="1.1" id="svg2" xmlns="http://www.w3.org/2000/svg" xmlns:xlink="http://www.w3.org/1999/xlink" x="0px" y="0px"
	 viewBox="0 0 256 256" style="enable-background:new 0 0 256 256;" xml:space="preserve">
<style type="text/css">
	.st0{fill:#FFFFFF;}
</style>
<title>画板 1</title>
<polygon class="st0" points="77.6,64.4 77.7,64.3 77.8,64.3 109.8,47.7 77.6,64.3 "/>
<polygon class="st0" points="101.4,231.5 134.1,232 134.3,218.6 134.5,218.5 159.3,198.5 143.4,187 122.7,211.7 "/>
<polygon class="st0" points="237,107.8 247.9,93.8 218.7,102.9 200.7,129.4 183.2,138.7 170.3,145.7 127.5,128.3 96.7,105.5 
	117.2,77.3 109.8,47.7 77.8,64.3 77.7,64.3 77.6,64.4 77.6,64.3 109.8,47.7 123.1,8 91.6,40.2 87.1,39.4 95.3,19.1 84.1,38.8 
	84,38.8 95.4,18.9 66,48.9 64,50 38.1,66.1 25.7,92.3 8,122.4 24.6,163.7 29.9,195.8 36.7,212 25.6,225.3 13.6,239.4 45.7,239.4 
	49.9,210.4 62.7,190.4 84,194.1 108.1,184.6 125.8,175.4 143.4,187 159.7,198.5 168.8,210 142.5,247.9 176.1,248 174.5,229 
	198.8,206.5 186.5,181.4 185,150.7 209.8,136.3 209.8,136.3 209.9,136.4 209.9,136.4 223.7,138.9 242.6,132.2 248,93.8 "/>
</svg>
