<?xml version="1.0" encoding="utf-8"?>
<!-- Generator: Adobe Illustrator 21.0.0, SVG Export Plug-In . SVG Version: 6.00 Build 0)  -->
<svg version="1.1" id="图层_39" xmlns="http://www.w3.org/2000/svg" xmlns:xlink="http://www.w3.org/1999/xlink" x="0px" y="0px"
	 viewBox="0 0 256 256" style="enable-background:new 0 0 256 256;" xml:space="preserve">
<style type="text/css">
	.st0{opacity:0.08;enable-background:new    ;}
	.st1{opacity:0.1;enable-background:new    ;}
	.st2{opacity:0.2;enable-background:new    ;}
	.st3{fill:url(#SVGID_1_);}
	.st4{fill:#212121;}
	.st5{fill:url(#rect3008_1_);}
	.st6{fill:url(#SVGID_2_);}
	.st7{fill:#01579B;}
	.st8{opacity:0.4;fill:url(#SVGID_3_);enable-background:new    ;}
	.st9{opacity:0.4;fill:url(#SVGID_4_);enable-background:new    ;}
	.st10{fill:url(#SVGID_5_);}
	.st11{opacity:0.23;fill:#EEE8D5;enable-background:new    ;}
	.st12{fill:#1D272B;}
	.st13{fill:#03A9F4;}
	.st14{fill:#606061;stroke:#5F5F60;stroke-miterlimit:10;}
	.st15{fill:url(#SVGID_6_);}
	.st16{opacity:0.3;fill:#5E7B88;enable-background:new    ;}
	.st17{fill:#5E7B88;}
	.st18{fill:#536B75;}
	.st19{fill:#CED7DB;}
	.st20{opacity:0.65;fill:url(#SVGID_7_);enable-background:new    ;}
	.st21{fill:url(#SVGID_8_);}
	.st22{fill:#445962;}
	.st23{fill:#EA7C1F;stroke:#F57F17;stroke-miterlimit:10;}
	.st24{fill:url(#SVGID_9_);}
	.st25{fill:url(#rect2990_1_);}
	.st26{opacity:0.25;fill:#FDEFBA;enable-background:new    ;}
	.st27{opacity:0.1;fill:#E65100;enable-background:new    ;}
	.st28{opacity:0.05;fill:#E65100;enable-background:new    ;}
</style>
<title>0256user-desktop</title>
<g id="_256">
	<rect x="5" y="37.1" class="st0" width="249.9" height="185.8"/>
	<rect x="7" y="39.1" class="st1" width="245.9" height="181.8"/>
	<rect x="5" y="37.1" class="st2" width="245.9" height="181.8"/>
	<polygon points="247,39.1 9,39.1 7,39.1 7,41.1 7,214.9 7,216.9 9,216.9 247,216.9 249,216.9 249,214.9 249,41.1 249,39.1 	"/>
	
		<linearGradient id="SVGID_1_" gradientUnits="userSpaceOnUse" x1="127.95" y1="2366.8201" x2="127.95" y2="2542.6199" gradientTransform="matrix(1 0 0 1 0 -2326.72)">
		<stop  offset="0" style="stop-color:#455A64"/>
		<stop  offset="1" style="stop-color:#263238"/>
	</linearGradient>
	<rect x="8" y="40.1" class="st3" width="239.9" height="175.8"/>
	<path class="st4" d="M247,41.1v173.8H9V41.1H247 M249,39.1H7v177.8h242V39.1z"/>
	<path class="st0" d="M228.3,190.6V63.4H31.9v127.2H228.3z"/>
	<path class="st1" d="M230.3,192.6V61.3H29.8v131.3H230.3z"/>
	
		<linearGradient id="rect3008_1_" gradientUnits="userSpaceOnUse" x1="127.95" y1="2382.9199" x2="127.95" y2="2520.3201" gradientTransform="matrix(1 0 0 1 0 -2326.72)">
		<stop  offset="0" style="stop-color:#B3E5FC"/>
		<stop  offset="1" style="stop-color:#0288D1"/>
	</linearGradient>
	<rect id="rect3008" x="24.6" y="56.2" class="st5" width="206.7" height="137.4"/>
	<g id="rect3008-2">
		
			<linearGradient id="SVGID_2_" gradientUnits="userSpaceOnUse" x1="127.95" y1="2517.3201" x2="127.95" y2="2385.9199" gradientTransform="matrix(1 0 0 1 0 -2326.72)">
			<stop  offset="0" style="stop-color:#026AB5"/>
			<stop  offset="1" style="stop-color:#4FC3F7"/>
		</linearGradient>
		<rect x="27.6" y="59.2" class="st6" width="200.7" height="131.4"/>
		<path class="st7" d="M225.3,62.2v125.4H30.6V62.2H225.3 M231.3,56.2H24.6v137.4h206.7V56.2z"/>
	</g>
	
		<linearGradient id="SVGID_3_" gradientUnits="userSpaceOnUse" x1="34.7" y1="2390.97" x2="221.3" y2="2390.97" gradientTransform="matrix(1 0 0 1 0 -2326.72)">
		<stop  offset="0" style="stop-color:#FFFFFF"/>
		<stop  offset="1" style="stop-color:#4FC3F7"/>
	</linearGradient>
	<rect x="34.7" y="62.2" class="st8" width="186.6" height="4.1"/>
	
		<linearGradient id="SVGID_4_" gradientUnits="userSpaceOnUse" x1="-3420.0701" y1="2505.1299" x2="-3294.4702" y2="2505.1299" gradientTransform="matrix(6.123234e-17 -1 1 6.123234e-17 -2472.48 -3232.3701)">
		<stop  offset="0" style="stop-color:#0288D1"/>
		<stop  offset="1" style="stop-color:#FFFFFF"/>
	</linearGradient>
	<rect x="30.6" y="62.1" class="st9" width="4.1" height="125.6"/>
	
		<radialGradient id="SVGID_5_" cx="150.6949" cy="2452.04" r="111.68" gradientTransform="matrix(0.98 0 0 1 -23.63 -2326.72)" gradientUnits="userSpaceOnUse">
		<stop  offset="0" style="stop-color:#B3E5FC"/>
		<stop  offset="1" style="stop-color:#0288D1"/>
	</radialGradient>
	<rect x="30.6" y="168.7" class="st10" width="194.7" height="19"/>
	<path id="rect3008-0" class="st11" d="M155.8,56.2L99.6,193.6h131.7V56.2H155.8z"/>
	<circle class="st12" cx="127.5" cy="204.2" r="6.4"/>
	<circle class="st13" cx="127.5" cy="204.7" r="4.9"/>
	<path class="st1" d="M189.8,126.9L189.8,126.9l-6.4-0.1v0.1H189.8z"/>
	<polygon class="st2" points="171.4,158.3 171.4,132.5 169.5,132.5 169.4,130.8 169.4,125.5 178.3,125.5 178.3,122.4 193.7,122.4 
		193.7,125.5 202.5,125.5 202.5,130.2 202.6,130.5 202.6,132.5 200.6,132.5 200.6,158.3 	"/>
	<path class="st2" d="M189.2,126.4L189.2,126.4l-6.4-0.1v0.1H189.2z"/>
	<path class="st14" d="M172.8,156.8V131h-1.9v-4.1h8.8v-3.1h12.5v3.1h8.8v4.1h-1.9v25.8H172.8z M189.8,126.9v-1.3h-7.5v1.3H189.8z"
		/>
	
		<linearGradient id="SVGID_6_" gradientUnits="userSpaceOnUse" x1="-2029.2999" y1="-2253.8701" x2="-2003.4999" y2="-2253.8701" gradientTransform="matrix(1 0 0 -1 2202.3999 -2110.27)">
		<stop  offset="0.05" style="stop-color:#CED7DB"/>
		<stop  offset="0.1" style="stop-color:#C4CDD2"/>
		<stop  offset="0.27" style="stop-color:#A7B5BC"/>
		<stop  offset="0.41" style="stop-color:#94A6B0"/>
		<stop  offset="0.51" style="stop-color:#8DA1AB"/>
		<stop  offset="1" style="stop-color:#CED7DB"/>
	</linearGradient>
	<rect x="173.1" y="130.7" class="st15" width="25.8" height="25.8"/>
	<rect x="173.1" y="130.7" class="st16" width="25.8" height="1.2"/>
	<rect x="194" y="135.7" class="st17" width="2.3" height="19"/>
	<rect x="188.3" y="135.7" class="st17" width="2.3" height="19"/>
	<rect x="181.4" y="135.7" class="st17" width="2.3" height="19"/>
	<rect x="175.7" y="135.7" class="st17" width="2.3" height="19"/>
	<rect x="194" y="135.2" class="st18" width="2.3" height="0.5"/>
	<rect x="188.3" y="135.2" class="st18" width="2.3" height="0.5"/>
	<rect x="181.4" y="135.2" class="st18" width="2.3" height="0.5"/>
	<rect x="175.7" y="135.2" class="st18" width="2.3" height="0.5"/>
	<rect x="194" y="154.4" class="st19" width="2.3" height="0.2"/>
	<rect x="188.3" y="154.4" class="st19" width="2.3" height="0.2"/>
	<rect x="181.4" y="154.4" class="st19" width="2.3" height="0.2"/>
	<rect x="175.7" y="154.4" class="st19" width="2.3" height="0.2"/>
	<rect x="171.2" y="127.2" class="st17" width="29.6" height="3.5"/>
	
		<linearGradient id="SVGID_7_" gradientUnits="userSpaceOnUse" x1="-2031.2" y1="-2239.1201" x2="-2001.5999" y2="-2239.1201" gradientTransform="matrix(1 0 0 -1 2202.3999 -2110.27)">
		<stop  offset="0.05" style="stop-color:#5E7B88"/>
		<stop  offset="0.25" style="stop-color:#5E7B88"/>
		<stop  offset="0.51" style="stop-color:#445962"/>
		<stop  offset="0.74" style="stop-color:#5E7B88"/>
		<stop  offset="1" style="stop-color:#5E7B88"/>
	</linearGradient>
	<rect x="171.2" y="127.2" class="st20" width="29.6" height="3.3"/>
	<polygon class="st17" points="180,124.2 180,127.2 181.9,127.2 181.9,125.1 190.1,125.1 190.1,127.2 192,127.2 192,124.2 	"/>
	
		<linearGradient id="SVGID_8_" gradientUnits="userSpaceOnUse" x1="-2022.37" y1="-2235.97" x2="-2010.42" y2="-2235.97" gradientTransform="matrix(1 0 0 -1 2202.3999 -2110.27)">
		<stop  offset="0.05" style="stop-color:#445962"/>
		<stop  offset="0.13" style="stop-color:#4D646E"/>
		<stop  offset="0.29" style="stop-color:#5A7581"/>
		<stop  offset="0.4" style="stop-color:#5E7B88"/>
		<stop  offset="0.61" style="stop-color:#5E7B88"/>
		<stop  offset="1" style="stop-color:#445962"/>
	</linearGradient>
	<polygon class="st21" points="180,124.2 180,127.2 181.9,127.2 181.9,125.1 190.1,125.1 190.1,127.2 192,127.2 192,124.2 	"/>
	<rect x="181.9" y="125.1" class="st22" width="8.1" height="0.3"/>
	<rect x="171.2" y="130.5" class="st22" width="29.6" height="0.3"/>
	<polygon class="st2" points="168.1,110.6 168.1,85.5 170.2,85.5 170.2,79 179.7,79 181.8,81.1 201.8,81.1 201.8,85.5 203.9,85.5 
		203.9,110.6 	"/>
	<polygon class="st23" points="169.5,109.1 169.5,86.9 171.7,86.9 171.7,80.4 179.1,80.4 181.2,82.6 200.3,82.6 200.3,86.9 
		202.5,86.9 202.5,109.1 	"/>
	
		<linearGradient id="SVGID_9_" gradientUnits="userSpaceOnUse" x1="-3326.9287" y1="-238.62" x2="-3326.9287" y2="-242.6731" gradientTransform="matrix(2 0 0 2 6839.8999 566.0699)">
		<stop  offset="0" style="stop-color:#F57C00"/>
		<stop  offset="0.16" style="stop-color:#F58F09"/>
		<stop  offset="0.36" style="stop-color:#F59D11"/>
		<stop  offset="0.6" style="stop-color:#F5A515"/>
		<stop  offset="0.99" style="stop-color:#F5A816"/>
	</linearGradient>
	<path class="st24" d="M200,82.9h-18.9l-2.1-2.2h-7v7c-0.1,0.5,0.3,1,0.9,1.1h0.1h26c0.6,0,1.1,0.1,1.1-0.5
		C200,87.2,200,82.9,200,82.9z"/>
	
		<linearGradient id="rect2990_1_" gradientUnits="userSpaceOnUse" x1="-3326.95" y1="-239.435" x2="-3326.95" y2="-228.635" gradientTransform="matrix(2 0 0 2 6839.8999 566.0699)">
		<stop  offset="0" style="stop-color:#FADD60"/>
		<stop  offset="0.99" style="stop-color:#F5A816"/>
	</linearGradient>
	<polyline id="rect2990" class="st25" points="202.2,87.2 202.2,108.8 169.8,108.8 169.8,87.2 	"/>
	<path id="rect3004" class="st26" d="M169.8,87.2v4.2c-0.1-1.3,0.9-2.5,2.2-2.6h28c1.3,0.1,2.3,1.3,2.2,2.6v-4.1h-32.4L169.8,87.2
		L169.8,87.2z"/>
	<path id="path3801" class="st27" d="M172,80.7v2.7c0-1.1,0.5-1.7,1-1.7h5.6c0.6,0,1.2,0.2,1.8,0.5c0.3,0.2,0.6,0.4,0.9,0.5
		l-2.2-2.2H172V80.7z"/>
	<polygon class="st27" points="181.1,82.9 200,82.9 200,84.5 182.8,84.5 	"/>
	<rect x="172" y="86.2" class="st28" width="28.1" height="1"/>
</g>
</svg>
