<?xml version="1.0" encoding="utf-8"?>
<!-- Generator: Adobe Illustrator 21.0.0, SVG Export Plug-In . SVG Version: 6.00 Build 0)  -->
<svg version="1.1" id="svg" xmlns="http://www.w3.org/2000/svg" xmlns:xlink="http://www.w3.org/1999/xlink" x="0px" y="0px"
	 viewBox="0 0 256 256" style="enable-background:new 0 0 256 256;" xml:space="preserve">
<style type="text/css">
	.st0{opacity:0.2;fill:#040000;enable-background:new    ;}
	.st1{opacity:0.08;fill:#040000;enable-background:new    ;}
	.st2{opacity:0.1;fill:#040000;enable-background:new    ;}
	.st3{fill:#5C4037;}
	.st4{fill:url(#SVGID_1_);}
	.st5{opacity:0.3;fill:#DA706F;enable-background:new    ;}
	.st6{fill:#AE1F24;}
	.st7{fill:#720914;}
	.st8{fill:#F8CACE;}
	.st9{opacity:0.65;fill:url(#SVGID_2_);enable-background:new    ;}
	.st10{fill:url(#SVGID_3_);}
</style>
<path class="st0" d="M28,252V60H13.5V26h66V4h97v22h66v34H228v192H28z M154.1,26v-5h-52.4v5H154.1z"/>
<path class="st1" d="M28,256V64H13.5V26h66V4h101v22h66v38H232v192H28z M154.1,26v-1h-48.4v1H154.1z"/>
<path class="st2" d="M30,254V62H15.5V28h66V6h97v22h66v34H230v192H30z M156.1,28v-5h-52.4v5H156.1z"/>
<path class="st3" d="M30,250V58H15.5V28h66V6h93v22h66v30H226v192H30z M156.1,28v-9H99.8v9H156.1z"/>
<linearGradient id="SVGID_1_" gradientUnits="userSpaceOnUse" x1="32" y1="-1767.28" x2="224" y2="-1767.28" gradientTransform="matrix(1 0 0 -1 0 -1615.28)">
	<stop  offset="0" style="stop-color:#F8CACE"/>
	<stop  offset="0.48" style="stop-color:#DA706F"/>
	<stop  offset="0.49" style="stop-color:#DA706F"/>
	<stop  offset="0.52" style="stop-color:#DA706F"/>
	<stop  offset="1" style="stop-color:#F8CACE"/>
</linearGradient>
<rect x="32" y="56" class="st4" width="192" height="192"/>
<rect x="32" y="56" class="st5" width="192" height="9.1"/>
<rect x="187" y="92" class="st6" width="17" height="140"/>
<rect x="187" y="89" class="st7" width="17" height="3"/>
<rect x="187" y="230" class="st8" width="17" height="2"/>
<rect x="142" y="92" class="st6" width="17" height="140"/>
<rect x="142" y="89" class="st7" width="17" height="3"/>
<rect x="142" y="230" class="st8" width="17" height="2"/>
<rect x="97" y="92" class="st6" width="17" height="140"/>
<rect x="97" y="89" class="st7" width="17" height="3"/>
<rect x="97" y="230" class="st8" width="17" height="2"/>
<rect x="52" y="92" class="st6" width="17" height="140"/>
<rect x="52" y="89" class="st7" width="17" height="3"/>
<rect x="52" y="230" class="st8" width="17" height="2"/>
<rect x="17.5" y="30" class="st6" width="221" height="26"/>
<linearGradient id="SVGID_2_" gradientUnits="userSpaceOnUse" x1="17.5" y1="-1657.28" x2="238.5" y2="-1657.28" gradientTransform="matrix(1 0 0 -1 0 -1615.28)">
	<stop  offset="0.05" style="stop-color:#DA706F"/>
	<stop  offset="0.25" style="stop-color:#DA706F"/>
	<stop  offset="0.51" style="stop-color:#AE1F24"/>
	<stop  offset="0.74" style="stop-color:#DA706F"/>
	<stop  offset="1" style="stop-color:#DA706F"/>
</linearGradient>
<rect x="17.5" y="30" class="st9" width="221" height="24"/>
<linearGradient id="SVGID_3_" gradientUnits="userSpaceOnUse" x1="83.5" y1="-1634.28" x2="172.5" y2="-1634.28" gradientTransform="matrix(1 0 0 -1 0 -1615.28)">
	<stop  offset="0.05" style="stop-color:#AE1F24"/>
	<stop  offset="0.25" style="stop-color:#DA706F"/>
	<stop  offset="0.51" style="stop-color:#DA706F"/>
	<stop  offset="0.74" style="stop-color:#DA706F"/>
	<stop  offset="1" style="stop-color:#AE1F24"/>
</linearGradient>
<polygon class="st10" points="83.5,8 83.5,30 97.8,30 97.8,15.1 158.1,15.1 158.1,30 172.5,30 172.5,8 "/>
<rect x="97.8" y="15" class="st7" width="60.5" height="2"/>
<rect x="17.5" y="54" class="st7" width="221" height="2"/>
</svg>
