<?xml version="1.0" encoding="utf-8"?>
<!-- Generator: Adobe Illustrator 21.0.0, SVG Export Plug-In . SVG Version: 6.00 Build 0)  -->
<svg version="1.1" id="图层_39" xmlns="http://www.w3.org/2000/svg" xmlns:xlink="http://www.w3.org/1999/xlink" x="0px" y="0px"
	 viewBox="0 0 256 256" style="enable-background:new 0 0 256 256;" xml:space="preserve">
<style type="text/css">
	.st0{fill:url(#SVGID_1_);}
	.st1{opacity:0.2;enable-background:new    ;}
	.st2{opacity:0.08;enable-background:new    ;}
	.st3{opacity:0.1;enable-background:new    ;}
	.st4{fill:#F57F17;}
	.st5{fill:url(#SVGID_2_);}
</style>
<title>user-bookmarks256</title>
<radialGradient id="SVGID_1_" cx="128.0423" cy="662.89" r="117.0417" gradientTransform="matrix(1 0 0 1 0 -535.23)" gradientUnits="userSpaceOnUse">
	<stop  offset="0" style="stop-color:#FFFF00"/>
	<stop  offset="0.06" style="stop-color:#FFFC09"/>
	<stop  offset="0.34" style="stop-color:#FDEF2E"/>
	<stop  offset="0.6" style="stop-color:#FBE54A"/>
	<stop  offset="0.83" style="stop-color:#FADF5A"/>
	<stop  offset="1" style="stop-color:#FADD60"/>
</radialGradient>
<path class="st0" d="M247.7,102c0.4-0.4,0.4-1,0-1.4c-0.2-0.2-0.4-0.3-0.6-0.3L166,88.5c-0.3,0-0.6-0.3-0.8-0.6l-36.4-73.8
	c-0.2-0.5-0.8-0.7-1.3-0.4c-0.2,0.1-0.4,0.3-0.4,0.4L90.8,87.9c-0.1,0.3-0.4,0.5-0.8,0.6L8.9,100.3c-0.5,0.1-0.9,0.6-0.8,1.1
	c0,0.2,0.1,0.4,0.3,0.5L67,159.5c0.2,0.2,0.3,0.6,0.3,0.9l-13.8,81.1c-0.1,0.5,0.3,1.1,0.8,1.2c0.2,0,0.4,0,0.6-0.1l72.6-38.3
	c0.3-0.2,0.6-0.2,0.9,0l72.6,38.3c0.5,0.3,1.1,0.1,1.4-0.4c0.1-0.2,0.1-0.4,0.1-0.6l-13.9-81.1c-0.1-0.3,0.1-0.7,0.3-0.9L247.7,102z
	"/>
<path class="st1" d="M201.6,246.6c-0.8,0-1.6-0.2-2.3-0.6L128,208.5L56.8,246c-2.4,1.3-5.5,0.4-6.8-2.1c-0.5-1-0.7-2.1-0.5-3.2
	l13.6-79.5L5.5,104.9c-2-1.9-2-5.1-0.1-7.1c0.8-0.8,1.8-1.3,2.9-1.5l79.6-11.6l35.6-72.4c1.2-2.5,4.2-3.5,6.7-2.3
	c1,0.5,1.8,1.3,2.3,2.3l35.6,72.4l79.6,11.6c2.7,0.4,4.6,2.9,4.2,5.7c-0.2,1.1-0.7,2.1-1.5,2.9l-57.6,56.3l13.6,79.5
	c0.5,2.7-1.4,5.3-4.1,5.8C202.1,246.6,201.8,246.6,201.6,246.6L201.6,246.6z"/>
<path class="st2" d="M203.6,250.5c-1.1,0-2.3-0.3-3.3-0.8L130,212.6l-70.3,37.1c-3.4,1.8-7.7,0.5-9.5-2.9c-0.7-1.4-1-2.9-0.7-4.5
	L63,163.8L6.1,108.2c-2.8-2.7-2.8-7.1-0.1-9.9c1.1-1.1,2.5-1.8,4-2l78.6-11.5l35.1-71.4c1.7-3.5,5.9-4.9,9.4-3.2
	c1.4,0.7,2.5,1.8,3.2,3.2l35.2,71.4L250,96.3c3.8,0.6,6.5,4.1,5.9,7.9c-0.2,1.5-0.9,2.9-2,4L197,163.8l13.4,78.5
	c0.7,3.8-1.9,7.4-5.7,8.1C204.3,250.5,203.9,250.5,203.6,250.5L203.6,250.5z"/>
<path class="st3" d="M203.6,248.5c-0.8,0-1.6-0.2-2.3-0.6L130,210.4l-71.2,37.5c-2.4,1.3-5.5,0.4-6.8-2.1c-0.5-1-0.7-2.1-0.5-3.2
	l13.6-79.5L7.5,106.8c-2-1.9-2-5.1-0.1-7.1c0.8-0.8,1.8-1.3,2.9-1.5l79.6-11.6l35.6-72.4c1.2-2.5,4.2-3.5,6.7-2.3
	c1,0.5,1.8,1.3,2.3,2.3l35.6,72.4l79.6,11.6c2.7,0.4,4.6,2.9,4.2,5.7c-0.2,1.1-0.7,2.1-1.5,2.9l-57.6,56.3l13.6,79.5
	c0.5,2.7-1.4,5.3-4.1,5.8C204.1,248.5,203.8,248.5,203.6,248.5L203.6,248.5z"/>
<path class="st4" d="M201.6,244.6c-0.5,0-1-0.1-1.4-0.4l-72.2-38l-72.2,38c-1.5,0.8-3.3,0.2-4.1-1.2c-0.3-0.6-0.4-1.3-0.3-1.9
	l13.8-80.6l-58.3-57c-1.2-1.2-1.2-3.1-0.1-4.2c0.5-0.5,1.1-0.8,1.7-0.9l80.7-11.8l36.1-73.3c0.7-1.5,2.5-2.1,4-1.4
	c0.6,0.3,1.1,0.8,1.4,1.4l36.1,73.3l80.7,11.8c1.6,0.2,2.8,1.8,2.5,3.4c-0.1,0.7-0.4,1.3-0.9,1.7l-58.4,57.1l13.8,80.6
	c0.3,1.6-0.8,3.2-2.4,3.5C201.9,244.6,201.7,244.6,201.6,244.6L201.6,244.6z"/>
<radialGradient id="SVGID_2_" cx="128.0423" cy="662.87" r="117.305" gradientTransform="matrix(1 0 0 1 0 -534.72)" gradientUnits="userSpaceOnUse">
	<stop  offset="0" style="stop-color:#FFFF00"/>
	<stop  offset="0.06" style="stop-color:#FFFC09"/>
	<stop  offset="0.34" style="stop-color:#FDEF2E"/>
	<stop  offset="0.6" style="stop-color:#FBE54A"/>
	<stop  offset="0.83" style="stop-color:#FADF5A"/>
	<stop  offset="1" style="stop-color:#FADD60"/>
</radialGradient>
<path class="st5" d="M247.7,102c0.4-0.4,0.4-1,0-1.4c-0.2-0.2-0.4-0.3-0.6-0.3L166,88.5c-0.3,0-0.6-0.3-0.8-0.6l-36.4-73.8
	c-0.2-0.5-0.8-0.7-1.3-0.4c-0.2,0.1-0.4,0.3-0.4,0.4L90.8,87.9c-0.1,0.3-0.4,0.5-0.8,0.6L8.9,100.3c-0.5,0.1-0.9,0.6-0.8,1.1
	c0,0.2,0.1,0.4,0.3,0.5L67,159.5c0.2,0.2,0.3,0.6,0.3,0.9l-13.8,81.1c-0.1,0.5,0.3,1.1,0.8,1.2c0.2,0,0.4,0,0.6-0.1l72.6-38.3
	c0.3-0.2,0.6-0.2,0.9,0l72.6,38.3c0.5,0.3,1.1,0.1,1.4-0.4c0.1-0.2,0.1-0.4,0.1-0.6l-13.9-81.1c-0.1-0.3,0.1-0.7,0.3-0.9L247.7,102z
	"/>
</svg>
