<?xml version="1.0" encoding="utf-8"?>
<!-- Generator: Adobe Illustrator 17.1.0, SVG Export Plug-In . SVG Version: 6.00 Build 0)  -->
<!DOCTYPE svg PUBLIC "-//W3C//DTD SVG 1.1//EN" "http://www.w3.org/Graphics/SVG/1.1/DTD/svg11.dtd">
<svg version="1.1" id="图层_1" xmlns="http://www.w3.org/2000/svg" xmlns:xlink="http://www.w3.org/1999/xlink" x="0px" y="0px"
	 width="256px" height="256px" viewBox="0 0 256 256" enable-background="new 0 0 256 256" xml:space="preserve">
<path opacity="8.000000e-002" fill="#040000" d="M43.4,256l-1.2-1.9c-0.2-0.4-24.3-40.1-24.3-91c0-50.4,20.6-98,20.8-98.5l1-2.4
	l8.6,0l1.2-4.7l-30-4.9L25.6,15l64.4,10.4l3.6-22.4l99,16l-3.6,22.4l64.4,10.4l-6.1,37.6l-18-2.9c5.2,16.4,12.7,45.5,12.7,76.5
	c0,46.6-19.7,83.1-23.7,90c-0.4,0.6-0.6,1-0.6,1l-1.2,1.9l-2.2,0H43.4z M163.2,37.3l0.3-1.6l-47.2-7.6l-0.3,1.6L163.2,37.3z"/>
<path opacity="9.999999e-002" fill="#040000" d="M44.5,254l-0.6-1c-0.2-0.4-24-39.6-24-89.9c0-50,20.4-97.2,20.6-97.7l0.5-1.2l8.1,0
	l0.9-0.5l2-7.9L21.9,51l5.4-33.6l64.4,10.4l3.6-22.4l95.1,15.4l-3.6,22.4l64.4,10.4l-5.4,33.6l-19.2-3.1c5.5,16.8,13.6,46.8,13.6,79
	c0,46.1-19.5,82.2-23.4,89c-0.4,0.6-0.5,0.9-0.5,0.9l-0.6,1l-1.1,0H44.5z M164.8,39.6l0.9-5.6l-51.2-8.3l-0.9,5.6L164.8,39.6z"/>
<path opacity="0.2" fill="#040000" d="M42.5,252l-0.6-1c-0.2-0.4-24-39.6-24-89.9c0-50,20.4-97.2,20.6-97.7l0.5-1.2l8.1,0l0.9-0.5
	l2-7.9L19.9,49l5.4-33.6l64.4,10.4l3.6-22.4l95.1,15.4l-3.6,22.4l64.4,10.4l-5.4,33.6l-19.2-3.1c5.5,16.8,13.6,46.8,13.6,79
	c0,46.1-19.5,82.2-23.4,89c-0.4,0.6-0.5,0.9-0.5,0.9l-0.6,1l-1.1,0H42.5z M162.8,37.6l0.9-5.6l-51.2-8.3l-0.9,5.6L162.8,37.6z"/>
<path fill="#606061" d="M182.5,42.8l3.6-22.4L95,5.7l-3.6,22.4L26.9,17.6l-4.8,29.7l30.4,4.9L49.8,63l-2.1,1.2l-7.3,0
	c0,0-20.5,46.8-20.5,96.9c0,50.3,23.7,88.9,23.7,88.9h168.8c0,0,0.2-0.3,0.5-0.9c3.5-6,23.2-42.1,23.2-88c0-33.4-8.6-64.3-14.5-81.5
	l20.5,3.3l4.8-29.7L182.5,42.8z M166,30.4l-1.5,9.5L109.4,31l1.5-9.5L166,30.4z"/>
<g>
	<polygon fill="#9E9E9E" points="165.8,68.4 89.9,32.3 58.8,48.8 60.9,68.6 70.4,78.7 118.1,73.6 	"/>
	<polygon fill="#E0E0E0" points="100.1,52.9 94.4,56 90.7,67.3 82.8,61.5 80.7,54 81.2,50.1 90.6,51.5 	"/>
	<polygon fill="#E0E0E0" points="119.5,56.6 119,56.5 118.5,60.5 119.8,66.3 119.8,66.3 120.2,66.6 128.6,57.9 	"/>
	<polygon fill="#E0E0E0" points="138.2,66.6 137.8,66.7 139.1,65 142.2,62.3 142.2,62.3 142.5,62.2 144.1,65.5 	"/>
	<polygon fill="#E0E0E0" points="97.2,66.2 96.2,66.1 100.5,60.7 110.5,53.3 110.5,53.3 111.6,53.2 116.1,67.2 	"/>
	<polygon fill="#E0E0E0" points="45.2,68 51.5,64.4 54.1,54 64.5,57.8 68.4,63.9 68.4,67.3 56.8,67.7 	"/>
	<polygon fill="#9E9E9E" points="56.8,67.7 57.5,67.6 57.3,62.1 54.7,54.2 54.7,54.2 54.1,54 51.5,64.4 45.2,68 	"/>
	<polygon fill="#E0E0E0" points="81.4,56.8 78.8,58.9 76.3,58.5 74.4,61.3 73.7,65 73,67.9 74.6,66.4 78.1,63 81.9,60.4 	"/>
	<path fill="#E0E0E0" d="M60.6,47.3l2.2,4.5c0,0,0,1.5,2.1,1.9c2.1,0.4,13.6,0.8,13.6,0.8l2.5-4.8L60.6,47.3z"/>
</g>
<linearGradient id="SVGID_1_" gradientUnits="userSpaceOnUse" x1="21.941" y1="157.0859" x2="234.106" y2="157.0859">
	<stop  offset="4.838710e-002" style="stop-color:#CED7DB"/>
	<stop  offset="0.1017" style="stop-color:#C4CDD2"/>
	<stop  offset="0.2688" style="stop-color:#A7B5BC"/>
	<stop  offset="0.4093" style="stop-color:#94A6B0"/>
	<stop  offset="0.5054" style="stop-color:#8DA1AB"/>
	<stop  offset="1" style="stop-color:#CED7DB"/>
</linearGradient>
<path fill="url(#SVGID_1_)" d="M214.3,66.2L128,66.2l-86.3,0c0,0-19.8,44.6-19.8,94.9c0,50.3,22.8,86.9,22.8,86.9H128h83.3
	c0,0,22.8-36.6,22.8-86.9C234.1,110.8,214.3,66.2,214.3,66.2z"/>
<path opacity="0.3" fill="#5E7B88" d="M38.2,75.2h179.7c-2-5.3-3.3-8.5-3.5-9H41.7C41.5,66.7,40.1,69.9,38.2,75.2z"/>
<path opacity="0.45" fill="#5E7B88" d="M134.7,66.2l85.9,16.7c-1.4-4-2.6-7.3-3.6-9.9l-65.5-6.9L134.7,66.2z"/>
<polygon opacity="0.33" fill="#263137" points="59.5,51.8 134.3,66.2 151.5,66.2 59.4,51.3 "/>
<g>
	
		<rect x="25.1" y="37.2" transform="matrix(0.9871 0.1599 -0.1599 0.9871 9.7668 -20.8541)" fill="#5E7B88" width="218.8" height="26.1"/>
	
		<linearGradient id="SVGID_2_" gradientUnits="userSpaceOnUse" x1="27.8146" y1="48.0514" x2="246.6107" y2="48.0514" gradientTransform="matrix(0.9871 0.1599 -0.1599 0.9871 6.8896 -20.0469)">
		<stop  offset="4.838710e-002" style="stop-color:#5E7B88"/>
		<stop  offset="0.2473" style="stop-color:#5E7B88"/>
		<stop  offset="0.5054" style="stop-color:#445962"/>
		<stop  offset="0.7419" style="stop-color:#5E7B88"/>
		<stop  offset="1" style="stop-color:#5E7B88"/>
	</linearGradient>
	<polygon opacity="0.65" fill="url(#SVGID_2_)" points="240.7,78.7 24.7,43.7 28.6,19.9 244.6,54.9 	"/>
	<polygon fill="#5E7B88" points="96.6,8 93,30.3 107.1,32.6 109.5,17.5 168.6,27 166.1,42.2 180.2,44.5 183.8,22.1 	"/>
	
		<linearGradient id="SVGID_3_" gradientUnits="userSpaceOnUse" x1="93.0846" y1="24.6523" x2="181.3875" y2="24.6523" gradientTransform="matrix(0.9871 0.1599 -0.1599 0.9871 6.8896 -20.0469)">
		<stop  offset="4.838710e-002" style="stop-color:#445962"/>
		<stop  offset="0.1347" style="stop-color:#4D646E"/>
		<stop  offset="0.2908" style="stop-color:#5A7581"/>
		<stop  offset="0.3978" style="stop-color:#5E7B88"/>
		<stop  offset="0.6129" style="stop-color:#5E7B88"/>
		<stop  offset="1" style="stop-color:#445962"/>
	</linearGradient>
	<polygon fill="url(#SVGID_3_)" points="96.6,8 93,30.3 107.1,32.6 109.5,17.5 168.6,27 166.1,42.2 180.2,44.5 183.8,22.1 	"/>
	
		<rect x="109" y="21.9" transform="matrix(0.9871 0.1599 -0.1599 0.9871 5.4518 -21.9177)" fill="#445962" width="59.8" height="2.1"/>
	
		<rect x="23.2" y="61.2" transform="matrix(0.9871 0.1599 -0.1599 0.9871 11.6444 -20.3969)" fill="#445962" width="218.8" height="2"/>
</g>
<g>
	<g>
		<path fill="#5E7B88" d="M72.2,234H55.4c0,0-15-35.1-15-76.8s15-66.8,15-66.8h16.8c0,0-15,18.3-15,66.8S72.2,234,72.2,234z"/>
		<path fill="#CED7DB" d="M54.7,232.3c0.4,1.1,0.7,1.7,0.7,1.7h16.8c0,0-0.3-0.6-0.8-1.7H54.7z"/>
		<path fill="#536B75" d="M70,93.7c1.3-2.3,2.2-3.4,2.2-3.4H55.4c0,0-0.7,1.2-1.8,3.4H70z"/>
	</g>
	<g>
		<path fill="#5E7B88" d="M114.3,234H97.4c0,0-11-35.1-11-76.8s11-66.8,11-66.8h16.8c0,0-11,18.3-11,66.8S114.3,234,114.3,234z"/>
		<path fill="#CED7DB" d="M96.9,232.3c0.3,1.1,0.5,1.7,0.5,1.7h16.8c0,0-0.2-0.6-0.6-1.7H96.9z"/>
		<path fill="#536B75" d="M112.7,93.7c1-2.3,1.6-3.4,1.6-3.4H97.4c0,0-0.5,1.2-1.3,3.4H112.7z"/>
	</g>
	<g>
		<path fill="#5E7B88" d="M183.8,234h16.8c0,0,15-35.1,15-76.8s-15-66.8-15-66.8h-16.8c0,0,15,18.3,15,66.8S183.8,234,183.8,234z"/>
		<path fill="#CED7DB" d="M201.3,232.3c-0.4,1.1-0.7,1.7-0.7,1.7h-16.8c0,0,0.3-0.6,0.8-1.7H201.3z"/>
		<path fill="#536B75" d="M186,93.7c-1.3-2.3-2.2-3.4-2.2-3.4h16.8c0,0,0.7,1.2,1.8,3.4H186z"/>
	</g>
	<g>
		<path fill="#5E7B88" d="M141.8,234h16.8c0,0,11-35.1,11-76.8s-11-66.8-11-66.8h-16.8c0,0,11,18.3,11,66.8S141.8,234,141.8,234z"/>
		<path fill="#CED7DB" d="M159.1,232.3c-0.3,1.1-0.5,1.7-0.5,1.7h-16.8c0,0,0.2-0.6,0.6-1.7H159.1z"/>
		<path fill="#536B75" d="M143.4,93.7c-1-2.3-1.6-3.4-1.6-3.4h16.8c0,0,0.5,1.2,1.3,3.4H143.4z"/>
	</g>
</g>
</svg>
