<?xml version="1.0" encoding="utf-8"?>
<!-- Generator: Adobe Illustrator 17.1.0, SVG Export Plug-In . SVG Version: 6.00 Build 0)  -->
<!DOCTYPE svg PUBLIC "-//W3C//DTD SVG 1.1//EN" "http://www.w3.org/Graphics/SVG/1.1/DTD/svg11.dtd">
<svg version="1.1" id="图层_1" xmlns="http://www.w3.org/2000/svg" xmlns:xlink="http://www.w3.org/1999/xlink" x="0px" y="0px"
	 width="256px" height="256px" viewBox="0 0 256 256" enable-background="new 0 0 256 256" xml:space="preserve">
<path opacity="8.000000e-002" fill="#040000" enable-background="new    " d="M28.4,256V64.8h-14v-5.9v-2V26.7h65.4V4h100.5v22.7
	h65.4v28.2v2v8h-14.1V256H28.4z M154,26.7V25h-48v1.7H154z"/>
<path opacity="9.999999e-002" fill="#040000" enable-background="new    " d="M30.4,254V62.8h-14v-3.9v-2V28.7h65.4V6h96.5v22.7
	h65.4v26.2v2v6h-14.1V254H30.4z M156,28.7V23h-52v5.7H156z"/>
<path opacity="0.2" fill="#040000" enable-background="new    " d="M28.4,252V60.8h-14v-3.9v-2V26.7h65.4V4h96.5v22.7h65.4v26.2v2v6
	h-14.1V252H28.4z M154,26.7V21h-52v5.7H154z"/>
<path fill="#616161" d="M239.6,52.9V28.7h-65.4V6H81.8v22.7H16.3v26.2v2v1.9h14.1V250h195.2V58.8h14.1v-4L239.6,52.9z M156,19v9.7
	h-56V19H156z"/>
<g>
	
		<linearGradient id="SVGID_1_" gradientUnits="userSpaceOnUse" x1="32.4" y1="105.6" x2="223.6" y2="105.6" gradientTransform="matrix(1 0 0 -1 0 258)">
		<stop  offset="4.838710e-002" style="stop-color:#CED7DB"/>
		<stop  offset="0.1017" style="stop-color:#C4CDD2"/>
		<stop  offset="0.2688" style="stop-color:#A7B5BC"/>
		<stop  offset="0.4093" style="stop-color:#94A6B0"/>
		<stop  offset="0.5054" style="stop-color:#8DA1AB"/>
		<stop  offset="1" style="stop-color:#CED7DB"/>
	</linearGradient>
	<rect x="32.4" y="56.8" fill="url(#SVGID_1_)" width="191.2" height="191.2"/>
	<rect x="32.4" y="56.8" opacity="0.3" fill="#5E7B88" enable-background="new    " width="191.2" height="9"/>
	<g>
		<rect x="187.3" y="93.4" fill="#5E7B88" width="16.9" height="140.6"/>
		<rect x="145.2" y="93.4" fill="#5E7B88" width="16.9" height="140.6"/>
		<rect x="94" y="93.4" fill="#5E7B88" width="16.9" height="140.6"/>
		<rect x="51.8" y="93.4" fill="#5E7B88" width="16.9" height="140.6"/>
		<rect x="187.3" y="90" fill="#536B75" width="16.9" height="3.4"/>
		<rect x="145.2" y="90" fill="#536B75" width="16.9" height="3.4"/>
		<rect x="94" y="90" fill="#536B75" width="16.9" height="3.4"/>
		<rect x="51.8" y="90" fill="#536B75" width="16.9" height="3.4"/>
		<rect x="187.3" y="232.3" fill="#CED7DB" width="16.9" height="1.7"/>
		<rect x="145.2" y="232.3" fill="#CED7DB" width="16.9" height="1.7"/>
		<rect x="94" y="232.3" fill="#CED7DB" width="16.9" height="1.7"/>
		<rect x="51.8" y="232.3" fill="#CED7DB" width="16.9" height="1.7"/>
	</g>
</g>
<rect x="18.3" y="30.7" fill="#5E7B88" width="219.3" height="26.1"/>
<linearGradient id="SVGID_2_" gradientUnits="userSpaceOnUse" x1="18.3" y1="215.2" x2="237.6" y2="215.2" gradientTransform="matrix(1 0 0 -1 0 258)">
	<stop  offset="4.838710e-002" style="stop-color:#5E7B88"/>
	<stop  offset="0.2473" style="stop-color:#5E7B88"/>
	<stop  offset="0.5054" style="stop-color:#445962"/>
	<stop  offset="0.7419" style="stop-color:#5E7B88"/>
	<stop  offset="1" style="stop-color:#5E7B88"/>
</linearGradient>
<rect x="18.3" y="30.7" opacity="0.65" fill="url(#SVGID_2_)" enable-background="new    " width="219.3" height="24.2"/>
<polygon fill="#5E7B88" points="83.8,8 83.8,30.7 98,30.7 98,15.3 158,15.3 158,30.7 172.3,30.7 172.3,8 "/>
<linearGradient id="SVGID_3_" gradientUnits="userSpaceOnUse" x1="83.8" y1="238.65" x2="172.3" y2="238.65" gradientTransform="matrix(1 0 0 -1 0 258)">
	<stop  offset="4.838710e-002" style="stop-color:#445962"/>
	<stop  offset="0.1347" style="stop-color:#4D646E"/>
	<stop  offset="0.2908" style="stop-color:#5A7581"/>
	<stop  offset="0.3978" style="stop-color:#5E7B88"/>
	<stop  offset="0.6129" style="stop-color:#5E7B88"/>
	<stop  offset="1" style="stop-color:#445962"/>
</linearGradient>
<polygon fill="url(#SVGID_3_)" points="83.8,8 83.8,30.7 98,30.7 98,15.3 158,15.3 158,30.7 172.3,30.7 172.3,8 "/>
<rect x="98" y="14.9" fill="#445962" width="60" height="2.1"/>
<rect x="18.4" y="54.9" fill="#445962" width="219.3" height="2"/>
</svg>
