<?xml version="1.0" encoding="iso-8859-1"?>
<!-- Generator: Adobe Illustrator 21.0.0, SVG Export Plug-In . SVG Version: 6.00 Build 0)  -->
<svg version="1.1" id="&#x5176;&#x4ED6;" xmlns="http://www.w3.org/2000/svg" xmlns:xlink="http://www.w3.org/1999/xlink" x="0px"
	 y="0px" viewBox="0 0 256 256" style="enable-background:new 0 0 256 256;" xml:space="preserve">
<title>画板 18</title>
<g id="&#x5783;&#x573E;&#x6876;-&#x7A7A;">
	<g id="_256">
		<path style="opacity:0.1;fill:#040000;enable-background:new    ;" d="M31.35,255V63.8h-14V29.7h65.4V7h96.5v22.7h65.4v34.2h-14.1
			V255H31.35z M157,29.7V24h-52v5.7H157z"/>
		<path style="opacity:0.2;fill:#040000;enable-background:new    ;" d="M29.35,253V61.8h-14V27.7h65.4V5h96.5v22.7h65.4v34.2h-14.1
			V253H29.35z M155,27.7V22h-52v5.7H155z"/>
		<path style="fill:#616161;" d="M240.55,53.9V29.7h-65.4V7h-92.4v22.7h-65.5v30.1h14.1V251h195.2V59.8h14.1v-4L240.55,53.9z
			 M157,20v9.7h-56V20H157z"/>
		
			<linearGradient id="SVGID_1_" gradientUnits="userSpaceOnUse" x1="-2169.0498" y1="2728.3899" x2="-1977.8499" y2="2728.3899" gradientTransform="matrix(1 0 0 1 2202.3999 -2574.99)">
			<stop  offset="0.05" style="stop-color:#CED7DB"/>
			<stop  offset="0.1" style="stop-color:#C4CDD2"/>
			<stop  offset="0.27" style="stop-color:#A7B5BC"/>
			<stop  offset="0.41" style="stop-color:#94A6B0"/>
			<stop  offset="0.51" style="stop-color:#8DA1AB"/>
			<stop  offset="1" style="stop-color:#CED7DB"/>
		</linearGradient>
		<rect x="33.35" y="57.8" style="fill:url(#SVGID_1_);" width="191.2" height="191.2"/>
		<rect x="33.35" y="57.8" style="opacity:0.3;fill:#5E7B88;enable-background:new    ;" width="191.2" height="9"/>
		<rect x="188.25" y="94.4" style="fill:#5E7B88;" width="16.9" height="140.6"/>
		<rect x="146.15" y="94.4" style="fill:#5E7B88;" width="16.9" height="140.6"/>
		<rect x="94.95" y="94.4" style="fill:#5E7B88;" width="16.9" height="140.6"/>
		<rect x="52.75" y="94.4" style="fill:#5E7B88;" width="16.9" height="140.6"/>
		<rect x="188.25" y="91" style="fill:#536B75;" width="16.9" height="3.4"/>
		<rect x="146.15" y="91" style="fill:#536B75;" width="16.9" height="3.4"/>
		<rect x="94.95" y="91" style="fill:#536B75;" width="16.9" height="3.4"/>
		<rect x="52.75" y="91" style="fill:#536B75;" width="16.9" height="3.4"/>
		<rect x="188.25" y="233.3" style="fill:#CED7DB;" width="16.9" height="1.7"/>
		<rect x="146.15" y="233.3" style="fill:#CED7DB;" width="16.9" height="1.7"/>
		<rect x="94.95" y="233.3" style="fill:#CED7DB;" width="16.9" height="1.7"/>
		<rect x="52.75" y="233.3" style="fill:#CED7DB;" width="16.9" height="1.7"/>
		<rect x="19.25" y="31.7" style="fill:#5E7B88;" width="219.3" height="26.1"/>
		
			<linearGradient id="SVGID_2_" gradientUnits="userSpaceOnUse" x1="-2183.1499" y1="2618.79" x2="-1963.8499" y2="2618.79" gradientTransform="matrix(1 0 0 1 2202.3999 -2574.99)">
			<stop  offset="0.05" style="stop-color:#5E7B88"/>
			<stop  offset="0.25" style="stop-color:#5E7B88"/>
			<stop  offset="0.51" style="stop-color:#445962"/>
			<stop  offset="0.74" style="stop-color:#5E7B88"/>
			<stop  offset="1" style="stop-color:#5E7B88"/>
		</linearGradient>
		<rect x="19.25" y="31.7" style="opacity:0.65;fill:url(#SVGID_2_);enable-background:new    ;" width="219.3" height="24.2"/>
		<polygon style="fill:#5E7B88;" points="84.75,9 84.75,31.7 98.95,31.7 98.95,16.3 158.95,16.3 158.95,31.7 173.25,31.7 173.25,9 
					"/>
		
			<linearGradient id="SVGID_3_" gradientUnits="userSpaceOnUse" x1="-2117.6499" y1="2595.3401" x2="-2029.1499" y2="2595.3401" gradientTransform="matrix(1 0 0 1 2202.3999 -2574.99)">
			<stop  offset="0.05" style="stop-color:#445962"/>
			<stop  offset="0.13" style="stop-color:#4D646E"/>
			<stop  offset="0.29" style="stop-color:#5A7581"/>
			<stop  offset="0.4" style="stop-color:#5E7B88"/>
			<stop  offset="0.61" style="stop-color:#5E7B88"/>
			<stop  offset="1" style="stop-color:#445962"/>
		</linearGradient>
		<polygon style="fill:url(#SVGID_3_);" points="84.75,9 84.75,31.7 98.95,31.7 98.95,16.3 158.95,16.3 158.95,31.7 173.25,31.7 
			173.25,9 		"/>
		<rect x="98.95" y="15.9" style="fill:#445962;" width="60" height="2.1"/>
		<rect x="19.35" y="55.9" style="fill:#445962;" width="219.3" height="2"/>
	</g>
</g>
</svg>
