<?xml version="1.0" encoding="utf-8"?>
<!-- Generator: Adobe Illustrator 21.0.0, SVG Export Plug-In . SVG Version: 6.00 Build 0)  -->
<svg version="1.1" id="图层_1" xmlns="http://www.w3.org/2000/svg" xmlns:xlink="http://www.w3.org/1999/xlink" x="0px" y="0px"
	 viewBox="0 0 16 16" style="enable-background:new 0 0 16 16;" xml:space="preserve">
<style type="text/css">
	.st0{fill:#FFFFFF;}
</style>
<path class="st0" d="M14,6.2l-1.1,1.7l-1.3,0.6l-0.8,0.4l-2.9-1l-2-1.6l1.4-1.7l-0.5-2L7.7,0L5.5,2.2L5.1,2.1h0.2l0.5-1.4L3.7,2.8
	L2,3.8L1.1,5.5L0,7.5l1,2.7l0.5,2.1l0.4,1l-0.8,0.8l-0.8,1h2.2l0.3-1.9l0.8-1.4l1.5,0.4l1.5-0.7l1.2-0.6L9,11.6l-1.4,1.7l-1.4,1.2
	h2.2v-0.8l1.7-1.2l0.6,0.7l-1.8,2.4h2.3l-0.1-1.2l1.6-1.5l-0.8-1.6l-0.2-1.9l1.8-1l0.8,0.1l1.3-0.4L16,5.6L14,6.2z M8,9.6L8,9.6
	l2.2,0.9L8,9.6z"/>
</svg>
