<svg id="显示桌面" xmlns="http://www.w3.org/2000/svg" xmlns:xlink="http://www.w3.org/1999/xlink" viewBox="0 0 16 16"><defs><style>.cls-1{opacity:0.08;}.cls-2{opacity:0.1;}.cls-3{fill:url(#linear-gradient);}.cls-4{fill:#212121;}.cls-5{fill:url(#linear-gradient-2);}.cls-6{fill:url(#未命名的渐变_39);}.cls-7{fill:#01579b;}.cls-8,.cls-9{opacity:0.4;}.cls-8{fill:url(#linear-gradient-3);}.cls-9{fill:url(#linear-gradient-4);}.cls-10{fill:url(#未命名的渐变_15);}.cls-11{fill:#eee8d5;opacity:0.23;}.cls-11,.cls-14{isolation:isolate;}.cls-12{fill:#1d272b;}.cls-13{fill:#03a9f4;}.cls-14{opacity:0.2;}.cls-15{fill:#005e61;stroke:#005e61;stroke-miterlimit:10;stroke-width:0.5px;}.cls-16{fill:url(#未命名的渐变_6);}.cls-17{fill:url(#未命名的渐变_5);}.cls-18{fill:url(#未命名的渐变_4);}.cls-19{fill:#666;}</style><linearGradient id="linear-gradient" x1="8" y1="2.27" x2="8" y2="13.73" gradientUnits="userSpaceOnUse"><stop offset="0" stop-color="#455a64"/><stop offset="1" stop-color="#263238"/></linearGradient><linearGradient id="linear-gradient-2" x1="8" y1="3.47" x2="8" y2="12.14" gradientUnits="userSpaceOnUse"><stop offset="0" stop-color="#b3e5fc"/><stop offset="1" stop-color="#0288d1"/></linearGradient><linearGradient id="未命名的渐变_39" x1="8" y1="11.89" x2="8" y2="3.72" gradientUnits="userSpaceOnUse"><stop offset="0" stop-color="#026ab5"/><stop offset="1" stop-color="#4fc3f7"/></linearGradient><linearGradient id="linear-gradient-3" x1="2.02" y1="4.14" x2="13.98" y2="4.14" gradientUnits="userSpaceOnUse"><stop offset="0" stop-color="#fff"/><stop offset="1" stop-color="#4fc3f7"/></linearGradient><linearGradient id="linear-gradient-4" x1="-1450.97" y1="554.9" x2="-1443.63" y2="554.9" gradientTransform="translate(-552.76 -1439.37) rotate(-90)" gradientUnits="userSpaceOnUse"><stop offset="0" stop-color="#0288d1"/><stop offset="1" stop-color="#fff"/></linearGradient><radialGradient id="未命名的渐变_15" cx="27.1" cy="-1.61" r="7.04" gradientTransform="translate(-18.09 10.2) scale(0.96 0.89)" xlink:href="#linear-gradient-2"/><linearGradient id="未命名的渐变_6" x1="-2194.4" y1="-1866.01" x2="-2194.4" y2="-1861.54" gradientTransform="translate(2202.4 1872.01)" gradientUnits="userSpaceOnUse"><stop offset="0" stop-color="#4cb56d"/><stop offset="0.24" stop-color="#4bb56f"/><stop offset="0.41" stop-color="#48b476"/><stop offset="0.55" stop-color="#44b181"/><stop offset="0.68" stop-color="#3ead90"/><stop offset="0.79" stop-color="#36a99f"/></linearGradient><linearGradient id="未命名的渐变_5" x1="-2193.28" y1="-1866.01" x2="-2193.28" y2="-1861.54" gradientTransform="translate(2202.4 1872.01)" gradientUnits="userSpaceOnUse"><stop offset="0" stop-color="#3b8ecb"/><stop offset="0.15" stop-color="#3a92c7"/><stop offset="0.42" stop-color="#389bbc"/><stop offset="0.78" stop-color="#36a7a4"/><stop offset="0.84" stop-color="#36a99f"/></linearGradient><linearGradient id="未命名的渐变_4" x1="-2194.4" y1="-1865.21" x2="-2194.4" y2="-1862.35" gradientTransform="translate(2202.4 1872.01)" gradientUnits="userSpaceOnUse"><stop offset="0" stop-color="#f7f8f8"/><stop offset="0.29" stop-color="#efefef"/><stop offset="0.61" stop-color="#e8e8e8"/><stop offset="1" stop-color="#e6e6e5"/></linearGradient></defs><title>画板 26</title><g id="_22" data-name="22"><path class="cls-1" d="M14.32,11.94v-8H1.94v8Z"/><path class="cls-2" d="M14.45,12.07V3.8H1.81v8.28Z"/><rect class="cls-3" x="0.25" y="2.27" width="15.5" height="11.46"/><path class="cls-4" d="M15.5,2.52v11H.5v-11h15M16,2H0V14H16V2Z"/><rect id="rect3008" class="cls-5" x="1.48" y="3.47" width="13.03" height="8.66"/><g id="rect3008-2" data-name="rect3008"><rect class="cls-6" x="1.73" y="3.72" width="12.53" height="8.16"/><path class="cls-7" d="M14,4v7.66H2V4H14m.5-.5h-13v8.66h13V3.47Z"/></g><rect class="cls-8" x="2.02" y="4.01" width="11.97" height="0.26"/><rect class="cls-9" x="2.02" y="4.27" width="0.26" height="7.34"/><rect class="cls-10" x="2.02" y="10.54" width="11.97" height="1.06"/><path id="rect3008-0" class="cls-11" d="M9.75,3.47,6.21,12.14h8.3V3.47Z"/><circle class="cls-12" cx="7.97" cy="12.81" r="0.4"/><circle class="cls-13" cx="7.97" cy="12.83" r="0.31"/><circle class="cls-14" cx="8" cy="8.23" r="2.95"/><path class="cls-15" d="M8,10.51a2.28,2.28,0,1,1,2.28-2.28A2.28,2.28,0,0,1,8,10.51Z"/><circle class="cls-16" cx="8" cy="8.23" r="2.24"/><path class="cls-17" d="M10.24,8.23A2.24,2.24,0,0,0,8,6v4.48A2.24,2.24,0,0,0,10.24,8.23Z"/><circle class="cls-18" cx="8" cy="8.23" r="1.43"/><path class="cls-19" d="M8.83,8.22,8,7.49a.06.06,0,0,0-.06,0l-.79.74a0,0,0,0,0,0,.08h.25a0,0,0,0,1,0,0v.6a0,0,0,0,0,0,0h.92a0,0,0,0,0,0,0v-.6a0,0,0,0,1,0,0H8.8A0,0,0,0,0,8.83,8.22Z"/></g></svg>