<?xml version="1.0" encoding="utf-8"?>
<!-- Generator: Adobe Illustrator 21.0.0, SVG Export Plug-In . SVG Version: 6.00 Build 0)  -->
<svg version="1.1" id="图层_1" xmlns="http://www.w3.org/2000/svg" xmlns:xlink="http://www.w3.org/1999/xlink" x="0px" y="0px"
	 viewBox="0 0 8 8" style="enable-background:new 0 0 8 8;" xml:space="preserve">
<style type="text/css">
	.st0{fill:#1080C3;}
</style>
<g id="stock_video-conferencing_复制">
	<g id="_14">
		<path class="st0" d="M4,0C1.8,0,0,1.8,0,4s1.8,4,4,4s4-1.8,4-4S6.2,0,4,0z M4,7C2.3,7,1,5.7,1,4s1.3-3,3-3s3,1.3,3,3S5.7,7,4,7z"
			/>
		<circle class="st0" cx="2.8" cy="2.8" r="0.8"/>
		<path class="st0" d="M2.5,4H2c0,1.1,0.9,2,2,2V5.5C3.2,5.5,2.5,4.8,2.5,4z"/>
	</g>
</g>
</svg>
