<?xml version="1.0" encoding="utf-8"?>
<!-- Generator: Adobe Illustrator 21.0.0, SVG Export Plug-In . SVG Version: 6.00 Build 0)  -->
<svg version="1.1" id="图层_1" xmlns="http://www.w3.org/2000/svg" xmlns:xlink="http://www.w3.org/1999/xlink" x="0px" y="0px"
	 viewBox="0 0 8 8" style="enable-background:new 0 0 8 8;" xml:space="preserve">
<style type="text/css">
	.st0{fill:#D32F2F;}
</style>
<g>
	<path class="st0" d="M6,1.1c0.7,0,1.4,0.2,1.4,1.7c0,1.2-2,2.9-3.4,4c-1.4-1-3.4-2.8-3.4-4c0-1.5,0.7-1.7,1.4-1.7
		c1,0,1.5,1.1,1.5,1.1L4,3.5l0.5-1.3C4.5,2.2,5,1.1,6,1.1 M6,0.5C4.6,0.5,4,2,4,2S3.4,0.5,2,0.5S0,1.4,0,2.8c0,2,4,4.7,4,4.7
		s4-2.6,4-4.7C8,1.4,7.4,0.5,6,0.5L6,0.5z"/>
</g>
</svg>
