<?xml version="1.0" encoding="utf-8"?>
<!-- Generator: Adobe Illustrator 21.0.0, SVG Export Plug-In . SVG Version: 6.00 Build 0)  -->
<svg version="1.1" id="图层_2" xmlns="http://www.w3.org/2000/svg" xmlns:xlink="http://www.w3.org/1999/xlink" x="0px" y="0px"
	 viewBox="0 0 16 16" style="enable-background:new 0 0 16 16;" xml:space="preserve">
<style type="text/css">
	.st0{opacity:0.75;fill:#1F2022;}
</style>
<path id="path3908" class="st0" d="M10.1,8 M9.2,4.7C9.1,4.3,9,3.9,9,3.5C9,1.6,10.6,0,12.5,0l0,0c0.4,0,0.8,0.1,1.2,0.2l-1.9,1.9
	c-0.4,0.4-0.4,1,0,1.4l0.7,0.7c0.4,0.4,1,0.4,1.4,0l1.9-1.9C15.9,2.7,16,3.1,16,3.5C16,5.4,14.4,7,12.5,7c-0.4,0-0.8-0.1-1.2-0.2
	 M11.3,6.8l-4.6,4.6C6.9,11.7,7,12.1,7,12.5C7,14.4,5.4,16,3.5,16c-0.4,0-0.9-0.1-1.2-0.3l2-2c0.4-0.4,0.4-1,0-1.4l-0.7-0.7
	c-0.2-0.2-0.5-0.3-0.7-0.3s-0.5,0.1-0.7,0.3l-2,2C0.1,13.2,0,12.9,0,12.5C0,10.6,1.6,9,3.5,9c0.4,0,0.8,0.1,1.2,0.2l4.6-4.6"/>
</svg>
