<?xml version="1.0" encoding="utf-8"?>
<!-- Generator: Adobe Illustrator 24.0.0, SVG Export Plug-In . SVG Version: 6.00 Build 0)  -->
<svg version="1.1" id="图层_45" xmlns="http://www.w3.org/2000/svg" xmlns:xlink="http://www.w3.org/1999/xlink" x="0px" y="0px"
	 viewBox="0 0 96 96" enable-background="new 0 0 96 96" xml:space="preserve">
<title>96</title>
<g id="_96">
	<path fill="#557ADB" d="M16.8,79.1c17.2,17.2,45,17.2,62.2,0c0,0,0,0,0,0L47.9,48L16.8,79.1z"/>
	<path fill="#E25060" d="M16.9,16.9c-17.2,17.2-17.2,45,0,62.2L48,48L16.9,16.9z"/>
	<path fill="#ECD17A" d="M16.8,16.9C34-0.3,61.8-0.3,79,16.9c0,0,0,0,0,0L47.9,48L16.8,16.9z"/>
	<path fill="#66B24C" d="M79.1,16.9c17.2,17.2,17.2,45,0,62.2L48,48L79.1,16.9z"/>
	<path opacity="0.3" fill="#7EC03E" enable-background="new    " d="M48,4c0,24.3,19.7,44,44,44C92,23.7,72.3,4,48,4z"/>
	<path opacity="0.3" fill="#804AB6" enable-background="new    " d="M4,48c0,24.3,19.7,44,44,44C48,67.7,28.3,48,4,48z"/>
	<path opacity="0.3" fill="#2B72AE" enable-background="new    " d="M92,48c-24.3,0-44,19.7-44,44C72.3,92,92,72.3,92,48z"/>
	<path opacity="0.3" fill="#E8BE3C" enable-background="new    " d="M48,4C23.7,4,4,23.7,4,48C28.3,48,48,28.3,48,4z"/>
	<g opacity="0.1">
		<circle fill="#FFFFFF" cx="48" cy="48" r="32"/>
	</g>
	<g opacity="0.1">
		<circle fill="#FFFFFF" cx="48" cy="48" r="18"/>
	</g>
</g>
</svg>
