<?xml version="1.0" encoding="utf-8"?>
<!-- Generator: Adobe Illustrator 21.0.0, SVG Export Plug-In . SVG Version: 6.00 Build 0)  -->
<svg version="1.1" id="图层_15" xmlns="http://www.w3.org/2000/svg" xmlns:xlink="http://www.w3.org/1999/xlink" x="0px" y="0px"
	 viewBox="0 0 32 32" style="enable-background:new 0 0 32 32;" xml:space="preserve">
<style type="text/css">
	.st0{fill:#FFFFFF;}
</style>
<title>32</title>
<g id="_32">
	<polygon class="st0" points="25,20 25,26.3 16.5,28.9 16.5,17.3 15.5,17.3 15.5,28.9 7,26.3 7,20 6,20 6,27 15.5,30 16.5,30 26,27 
		26,20 	"/>
	<path class="st0" d="M16,8.4L18.9,2l10,4.5L26,12.9L16,8.4z M19.4,3.3l-2,4.6l8.2,3.7l2-4.6L19.4,3.3z"/>
	<path class="st0" d="M6,12.9L3.1,6.5l10-4.5L16,8.4L6,12.9z M4.4,7l2,4.6l8.2-3.7l-2-4.6L4.4,7z"/>
	<path class="st0" d="M26,12.8l2.9,6.4l-10,4.5L16,17.3L26,12.8z M27.5,18.7l-2-4.6l-8.2,3.7l2,4.6L27.5,18.7z"/>
	<path class="st0" d="M16,17.3l-2.9,6.4l-10-4.5L6,12.8L16,17.3z M12.6,22.4l2-4.6l-8.2-3.7l-2,4.6L12.6,22.4z"/>
	<rect x="12.4" y="11.7" transform="matrix(0.7244 -0.6894 0.6894 0.7244 -5.5233 12.5141)" class="st0" width="1" height="3"/>
	<rect x="12.8" y="12.7" transform="matrix(0.7244 -0.6894 0.6894 0.7244 -5.1579 13.4751)" class="st0" width="3" height="1"/>
	<path class="st0" d="M16,10c-1.7,0-3,1.3-3,3c0,0.2,0,0.3,0,0.5h1c0-0.2,0-0.3,0-0.5c0-1.1,0.9-2,2-2s2,0.9,2,2s-0.9,2-2,2
		c-0.4,0-0.7-0.1-1-0.3v1.1c1.6,0.6,3.3-0.2,3.9-1.8s-0.2-3.3-1.8-3.9C16.7,10.1,16.4,10,16,10z"/>
</g>
</svg>
