<?xml version="1.0" encoding="utf-8"?>
<!-- Generator: Adobe Illustrator 21.0.0, SVG Export Plug-In . SVG Version: 6.00 Build 0)  -->
<svg version="1.1" id="有线网络" xmlns="http://www.w3.org/2000/svg" xmlns:xlink="http://www.w3.org/1999/xlink" x="0px"
	 y="0px" viewBox="0 0 48 48" style="enable-background:new 0 0 48 48;" xml:space="preserve">
<style type="text/css">
	.st0{fill:#FFFFFF;}
	.st1{fill:#EA572A;}
</style>
<title>48</title>
<g id="_48">
	<polygon class="st0" points="5,13 29,13 29,11 3,11 3,37 22,37 22,43 15,43 15,45 27,45 27,43 24,43 24,37 24,37 24,35 5,35 	"/>
	<rect x="32" y="9" class="st0" width="13" height="2"/>
	<rect x="34" y="3" class="st0" width="2" height="6"/>
	<rect x="40" y="3" class="st0" width="2" height="6"/>
	<rect x="37" y="14" class="st0" width="2" height="6"/>
	<polygon class="st0" points="43,9 43,23 41,23 35,23 33,23 33,9 31,9 31,25 33,25 37,25 39,25 43,25 45,25 45,9 	"/>
	<rect x="28.2" y="34.2" transform="matrix(0.7071 -0.7071 0.7071 0.7071 -14.5488 35.2011)" class="st1" width="14" height="2"/>
	<rect x="34.2" y="28.2" transform="matrix(0.7071 -0.7071 0.7071 0.7071 -14.5488 35.2011)" class="st1" width="2" height="14"/>
	<path class="st1" d="M35,25c-5.5,0-10,4.5-10,10s4.5,10,10,10s10-4.5,10-10S40.5,25,35,25z M35,43c-4.4,0-8-3.6-8-8s3.6-8,8-8
		s8,3.6,8,8S39.4,43,35,43z"/>
</g>
</svg>
