<?xml version="1.0" encoding="utf-8"?>
<!-- Generator: Adobe Illustrator 21.0.0, SVG Export Plug-In . SVG Version: 6.00 Build 0)  -->
<svg version="1.1" id="图层_1" xmlns="http://www.w3.org/2000/svg" xmlns:xlink="http://www.w3.org/1999/xlink" x="0px" y="0px"
	 viewBox="0 0 48 48" style="enable-background:new 0 0 48 48;" xml:space="preserve">
<style type="text/css">
	.st0{fill:#FFFFFF;}
	.st1{fill:none;stroke:#FFFFFF;stroke-width:2;stroke-miterlimit:10;}
</style>
<g id="_48">
	<rect x="7" y="3" class="st0" width="34" height="2"/>
	<rect x="7" y="43" class="st0" width="34" height="2"/>
	<path class="st1" d="M12,4c-0.9,9.5-0.2,11.6,6.8,16.7c3.6,2.6,3.1,4.2,0.1,6.6C8.4,35.7,10.7,40.1,12,44h24
		c1.9-5.2,1.8-8.1-8.6-17.8c-1.6-1.5-0.9-3.2,2.2-6.1C37.2,13.2,36.4,8.6,36,4H12z"/>
	<polygon class="st0" points="16.5,12 31.5,12 24,20 	"/>
	<path class="st0" d="M11,43.5c0-6.3,7.5-8,13-8c5.8,0,12.7,1.8,13.2,8"/>
</g>
</svg>
