<?xml version="1.0" encoding="utf-8"?>
<!-- Generator: Adobe Illustrator 21.0.0, SVG Export Plug-In . SVG Version: 6.00 Build 0)  -->
<svg version="1.1" id="图层_19" xmlns="http://www.w3.org/2000/svg" xmlns:xlink="http://www.w3.org/1999/xlink" x="0px" y="0px"
	 viewBox="0 0 32 32" style="enable-background:new 0 0 32 32;" xml:space="preserve">
<style type="text/css">
	.st0{fill:#FFFFFF;}
</style>
<title>32</title>
<g id="_32">
	<path class="st0" d="M11,2H5v1H2v27h12V3h-3V2z M13,4v25H3V4H13z"/>
	<rect id="_20" x="4" y="25" class="st0" width="8" height="3"/>
	<rect id="_40" x="4" y="20" class="st0" width="8" height="8"/>
	<rect id="_60" x="4" y="14" class="st0" width="8" height="14"/>
	<rect id="_80" x="4" y="10" class="st0" width="8" height="18"/>
	<rect id="_100" x="4" y="5" class="st0" width="8" height="23"/>
	<path class="st0" d="M27,3h-8c-1.7,0-3,1.3-3,3v21c0,1.7,1.3,3,3,3h8c1.7,0,3-1.3,3-3V6C30,4.3,28.7,3,27,3z M29,27
		c0,1.1-0.9,2-2,2h-8c-1.1,0-2-0.9-2-2v-3h12V27z M29,23H17V8h12V23z M17,7V6c0-1.1,0.9-2,2-2h8c1.1,0,2,0.9,2,2v1H17z"/>
	<circle class="st0" cx="23" cy="26.5" r="1.5"/>
</g>
</svg>
