<?xml version="1.0" encoding="utf-8"?>
<!-- Generator: Adobe Illustrator 21.0.0, SVG Export Plug-In . SVG Version: 6.00 Build 0)  -->
<svg version="1.1" id="键盘充电" xmlns="http://www.w3.org/2000/svg" xmlns:xlink="http://www.w3.org/1999/xlink" x="0px"
	 y="0px" viewBox="0 0 32 32" style="enable-background:new 0 0 32 32;" xml:space="preserve">
<style type="text/css">
	.st0{fill:#FFFFFF;}
</style>
<title>32</title>
<g id="_32">
	<path class="st0" d="M11,2H6v1H2v27h13V3h-4V2z M14,4v25H3V4H14z"/>
	<rect id="_60" x="4" y="14" class="st0" width="9" height="14"/>
	<rect id="_80" x="4" y="10" class="st0" width="9" height="18"/>
	<rect id="_100" x="4" y="5" class="st0" width="9" height="23"/>
	<path class="st0" d="M17,2v28h13V2H17z M29,29H18V3h11V29z"/>
	<rect x="26" y="7" class="st0" width="1" height="17"/>
	<rect x="20" y="6" class="st0" width="1" height="1"/>
	<rect x="20" y="9" class="st0" width="1" height="1"/>
	<rect x="20" y="12" class="st0" width="1" height="1"/>
	<rect x="20" y="15" class="st0" width="1" height="1"/>
	<rect x="20" y="18" class="st0" width="1" height="1"/>
	<rect x="20" y="21" class="st0" width="1" height="1"/>
	<rect x="20" y="24" class="st0" width="1" height="1"/>
	<rect x="23" y="6" class="st0" width="1" height="1"/>
	<rect x="23" y="9" class="st0" width="1" height="1"/>
	<rect x="23" y="12" class="st0" width="1" height="1"/>
	<rect x="23" y="15" class="st0" width="1" height="1"/>
	<rect x="23" y="18" class="st0" width="1" height="1"/>
	<rect x="23" y="21" class="st0" width="1" height="1"/>
	<rect x="23" y="24" class="st0" width="1" height="1"/>
</g>
</svg>
