<?xml version="1.0" encoding="utf-8"?>
<!-- Generator: Adobe Illustrator 21.0.0, SVG Export Plug-In . SVG Version: 6.00 Build 0)  -->
<svg version="1.1" id="zim" xmlns="http://www.w3.org/2000/svg" xmlns:xlink="http://www.w3.org/1999/xlink" x="0px" y="0px"
	 viewBox="0 0 32 32" style="enable-background:new 0 0 32 32;" xml:space="preserve">
<style type="text/css">
	.st0{fill:#FFFFFF;}
</style>
<title>32</title>
<path id="_32" class="st0" d="M26,14.5c-0.3,0-0.7,0-1,0.1V7h-7.6c0.1-0.3,0.1-0.7,0.1-1c0-2.2-1.8-4-4-4s-4,1.8-4,4
	c0,0.3,0,0.7,0.1,1H2v9.3c1.2-1.1,3.1-1,4.2,0.2s1,3.1-0.2,4.2c-1.1,1-2.9,1-4,0V30h9.3c-1.1-1.2-1-3.1,0.2-4.2s3.1-1,4.2,0.2
	c1,1.1,1,2.9,0,4H25v-7.6c0.3,0.1,0.7,0.1,1,0.1c2.2,0,4-1.8,4-4S28.2,14.5,26,14.5z M26,21.5c-0.7,0-1.5-0.3-2-0.8V29h-6.6
	c0.1-0.3,0.1-0.7,0.1-1c0-2.2-1.8-4-4-4s-4,1.8-4,4c0,0.3,0,0.7,0.1,1H3v-6.6c0.3,0.1,0.7,0.1,1,0.1c2.2,0,4-1.8,4-4s-1.8-4-4-4
	c-0.3,0-0.7,0-1,0.1V8h8.3c-1.1-1.2-1-3.1,0.2-4.2s3.1-1,4.2,0.2c1,1.1,1,2.9,0,4H24v8.3c1.2-1.1,3.1-1,4.2,0.2s1,3.1-0.2,4.2
	C27.5,21.2,26.8,21.5,26,21.5z"/>
</svg>
