<?xml version="1.0" encoding="utf-8"?>
<!-- Generator: Adobe Illustrator 21.0.0, SVG Export Plug-In . SVG Version: 6.00 Build 0)  -->
<svg version="1.1" id="address-book-new" xmlns="http://www.w3.org/2000/svg" xmlns:xlink="http://www.w3.org/1999/xlink" x="0px"
	 y="0px" viewBox="0 0 14 14" style="enable-background:new 0 0 14 14;" xml:space="preserve">
<style type="text/css">
	.st0{fill:#7F8080;}
	.st1{fill:none;stroke:#7F8080;stroke-miterlimit:10;}
</style>
<title>14</title>
<g id="_14">
	<path class="st0" d="M12,1v12H4V1H12 M13,0H3v14h10V0z"/>
	<path class="st0" d="M3,2v1H2V2H3 M4,1H1v3h3V1z"/>
	<path class="st0" d="M3,6v1H2V6H3 M4,5H1v3h3V5z"/>
	<path class="st0" d="M3,10v1H2v-1H3 M4,9H1v3h3V9z"/>
	<path class="st1" d="M8,6.8C6.6,6.9,5.5,8.1,5.5,9.5h5.1C10.6,8.1,9.4,6.9,8,6.8z"/>
	<ellipse class="st1" cx="8" cy="5.7" rx="1.2" ry="1.2"/>
</g>
</svg>
