<svg id="bookmark_add" data-name="bookmark add" xmlns="http://www.w3.org/2000/svg" viewBox="0 0 16 16"><defs><style>.cls-1{fill:#1f2022;opacity:0.75;}</style></defs><title>bookmark-new-symbolic</title><rect class="cls-1" x="3" y="4" width="3" height="1"/><rect class="cls-1" x="3" y="6" width="3" height="1"/><rect class="cls-1" x="3" y="8" width="3" height="1"/><rect class="cls-1" x="3" y="10" width="3" height="1"/><path class="cls-1" d="M13,11v2H11v1h2v2h1V14h2V13H14V11Z"/><polygon class="cls-1" points="10 2 10 8 11.5 9 13 8 13 2 10 2"/><path class="cls-1" d="M2,13a1,1,0,0,1-1-1V3A1,1,0,0,1,2,2H14a1,1,0,0,1,1,1v7h1V3a2,2,0,0,0-2-2H2A2,2,0,0,0,0,3v9a2,2,0,0,0,2,2H9V13Z"/></svg>