<?xml version="1.0" encoding="iso-8859-1"?>
<!-- Generator: Adobe Illustrator 24.0.0, SVG Export Plug-In . SVG Version: 6.00 Build 0)  -->
<svg version="1.1" id="&#x56FE;&#x5C42;_9" xmlns="http://www.w3.org/2000/svg" xmlns:xlink="http://www.w3.org/1999/xlink" x="0px"
	 y="0px" viewBox="0 0 16 16" style="enable-background:new 0 0 16 16;" xml:space="preserve">
<title>16</title>
<g id="_16">
	<rect x="3" y="4" style="fill:#808080;" width="3" height="1"/>
	<rect x="3" y="6" style="fill:#808080;" width="3" height="1"/>
	<rect x="3" y="8" style="fill:#808080;" width="3" height="1"/>
	<rect x="3" y="10" style="fill:#808080;" width="3" height="1"/>
	<polygon style="fill:#808080;" points="10,3 10,8 11.5,9 13,8 13,3 	"/>
	<path style="fill:none;stroke:#808080;stroke-linecap:round;stroke-miterlimit:10;" d="M14.5,9.5v-5c0-1.105-0.895-2-2-2h-9
		c-1.105,0-2,0.895-2,2v7c0,1.105,0.895,2,2,2h5"/>
	<line style="fill:none;stroke:#808080;stroke-linecap:round;stroke-miterlimit:10;" x1="10.5" y1="13.5" x2="14.5" y2="13.5"/>
	<line style="fill:none;stroke:#808080;stroke-linecap:round;stroke-miterlimit:10;" x1="12.5" y1="11.5" x2="12.5" y2="15.5"/>
</g>
</svg>
