<?xml version="1.0" encoding="iso-8859-1"?>
<!-- Generator: Adobe Illustrator 24.0.0, SVG Export Plug-In . SVG Version: 6.00 Build 0)  -->
<svg version="1.1" id="&#x56FE;&#x5C42;_10" xmlns="http://www.w3.org/2000/svg" xmlns:xlink="http://www.w3.org/1999/xlink"
	 x="0px" y="0px" viewBox="0 0 16 16" style="enable-background:new 0 0 16 16;" xml:space="preserve">
<title>16</title>
<g id="_16">
	<path style="fill:#808080;" d="M12.15,7.85l-3.44,3.44c-0.389,0.392-1.022,0.395-1.414,0.006c-0.002-0.002-0.004-0.004-0.006-0.006
		L3.85,7.85C3.657,7.653,3.66,7.336,3.857,7.143C3.951,7.051,4.078,6.999,4.21,7H6V2c0-0.552,0.448-1,1-1h2c0.552,0,1,0.448,1,1v5
		h1.79c0.276-0.002,0.501,0.221,0.503,0.497C12.294,7.629,12.242,7.756,12.15,7.85z"/>
	<path style="fill:none;stroke:#808080;stroke-linecap:round;stroke-miterlimit:10;" d="M1.5,9v3.5c0,0.552,0.448,1,1,1h11
		c0.552,0,1-0.448,1-1V9"/>
</g>
</svg>
