<?xml version="1.0" encoding="iso-8859-1"?>
<!-- Generator: Adobe Illustrator 24.0.0, SVG Export Plug-In . SVG Version: 6.00 Build 0)  -->
<svg version="1.1" id="&#x56FE;&#x5C42;_14" xmlns="http://www.w3.org/2000/svg" xmlns:xlink="http://www.w3.org/1999/xlink"
	 x="0px" y="0px" viewBox="0 0 16 16" style="enable-background:new 0 0 16 16;" xml:space="preserve">
<title>16</title>
<path id="_16" style="fill:#808080;" d="M14,1.27l-0.51,0.49c-0.21-0.127-0.463-0.164-0.7-0.1c-0.392,0.006-0.76,0.19-1,0.5
	l-1.6,1.58l-0.9-0.89c-0.096-0.108-0.227-0.178-0.37-0.2c-0.265-0.011-0.489,0.195-0.5,0.459c0,0.004,0,0.007,0,0.011l0,0
	c-0.007,0.157,0.064,0.307,0.19,0.4l0.91,0.9l-6.19,6c-0.388,0.301-0.55,0.81-0.41,1.28v0.6L1,14.24l0.7,0.69l1.92-1.88h0.51
	c0.479,0.089,0.971-0.06,1.32-0.4l6.15-6l0.91,0.89c0.194,0.196,0.511,0.197,0.707,0.003c0.001-0.001,0.002-0.002,0.003-0.003
	c0.191-0.194,0.191-0.506,0-0.7l0,0l-0.91-0.89l1.61-1.58c0.491-0.418,0.621-1.124,0.31-1.69l0.5-0.49
	C15.42,1.49,14.61,0.71,14,1.27z M10.19,4.93l0.71,0.69L7.46,9H6L10.19,4.93z"/>
</svg>
