<?xml version="1.0" encoding="utf-8"?>
<!-- Generator: Adobe Illustrator 23.0.3, SVG Export Plug-In . SVG Version: 6.00 Build 0)  -->
<svg version="1.1"
	 id="svg7384" xmlns:cc="http://creativecommons.org/ns#" xmlns:dc="http://purl.org/dc/elements/1.1/" xmlns:osb="http://www.openswatchbook.org/uri/2009/osb" xmlns:rdf="http://www.w3.org/1999/02/22-rdf-syntax-ns#" xmlns:svg="http://www.w3.org/2000/svg"
	 xmlns="http://www.w3.org/2000/svg" xmlns:xlink="http://www.w3.org/1999/xlink" x="0px" y="0px" viewBox="0 0 16 16"
	 style="enable-background:new 0 0 16 16;" xml:space="preserve">
<style type="text/css">
	.st0{fill:#808080;}
	.st1{fill:none;stroke:#808080;stroke-miterlimit:10;}
</style>
<g id="layer9" transform="translate(-373.00021,227)">
</g>
<g id="layer2" transform="translate(-132.00001,-140)">
</g>
<g id="layer4" transform="translate(-132.00001,-140)">
</g>
<g id="g1812" transform="translate(-132.00001,-140)">
</g>
<g id="g6217" transform="translate(-132.00001,-140)">
</g>
<g id="layer3" transform="translate(-132.00001,-140)">
</g>
<g id="g1833" transform="translate(-132.00001,-140)">
</g>
<g>
	<path class="st0" d="M13,10v2h-2v1h2v2h1v-2h2v-1h-2v-2H13z"/>
</g>
<g>
	<path class="st0" d="M8,1c1.7,0,3,1.3,3,3S9.7,7,8,7S5,5.7,5,4S6.3,1,8,1 M8,0C5.8,0,4,1.8,4,4s1.8,4,4,4s4-1.8,4-4S10.2,0,8,0L8,0
		z"/>
</g>
<path class="st1" d="M0.4,15c1-3.2,4.1-5.5,7.6-5.5c1.1,0,2.1,0.2,3,0.6"/>
</svg>
