<?xml version="1.0" encoding="utf-8"?>
<!-- Generator: Adobe Illustrator 24.0.0, SVG Export Plug-In . SVG Version: 6.00 Build 0)  -->
<svg version="1.1" id="图层_2_1_" xmlns="http://www.w3.org/2000/svg" xmlns:xlink="http://www.w3.org/1999/xlink" x="0px"
	 y="0px" viewBox="0 0 16 16" style="enable-background:new 0 0 16 16;" xml:space="preserve">
<style type="text/css">
	.st0{opacity:0.75;fill:#1F2022;enable-background:new    ;}
</style>
<path class="st0" d="M10,4H5.2l2.5-1.6C8,2.3,8.1,2,7.9,1.7S7.5,1.4,7.2,1.6l-4,2.5C3.1,4.2,3,4.3,3,4.5s0.1,0.3,0.2,0.4l4,2.5
	c0.1,0.1,0.2,0.1,0.3,0.1c0.2,0,0.3-0.1,0.4-0.2C8.1,7,8,6.7,7.8,6.6L5.2,5H10c2.2,0,4,1.8,4,4s-1.8,4-4,4H1.5C1.2,13,1,13.2,1,13.5
	S1.2,14,1.5,14H10c2.8,0,5-2.2,5-5S12.8,4,10,4z"/>
</svg>
