<?xml version="1.0" encoding="utf-8"?>
<!-- Generator: Adobe Illustrator 24.0.0, SVG Export Plug-In . SVG Version: 6.00 Build 0)  -->
<svg version="1.1" id="保存" xmlns="http://www.w3.org/2000/svg" xmlns:xlink="http://www.w3.org/1999/xlink" x="0px" y="0px"
	 viewBox="0 0 16 16" style="enable-background:new 0 0 16 16;" xml:space="preserve">
<style type="text/css">
	.st0{opacity:0.75;fill:#1F2022;enable-background:new    ;}
</style>
<path class="st0" d="M13,1H3C1.9,1,1,1.9,1,3v10c0,1.1,0.9,2,2,2h10c1.1,0,2-0.9,2-2V3C15,1.9,14.1,1,13,1z M7,14v-2H5v2H4
	c-0.6,0-1-0.4-1-1v-3h10v3c0,0.6-0.4,1-1,1H7z M14,8H2V3c0-0.6,0.4-1,1-1h10c0.6,0,1,0.4,1,1V8z"/>
</svg>
