<?xml version="1.0" encoding="iso-8859-1"?>
<!-- Generator: Adobe Illustrator 24.0.0, SVG Export Plug-In . SVG Version: 6.00 Build 0)  -->
<svg version="1.1" id="&#x56FE;&#x5C42;_17" xmlns="http://www.w3.org/2000/svg" xmlns:xlink="http://www.w3.org/1999/xlink"
	 x="0px" y="0px" viewBox="0 0 16 16" style="enable-background:new 0 0 16 16;" xml:space="preserve">
<title>16</title>
<g id="_16">
	<line style="fill:none;stroke:#808080;stroke-linecap:round;stroke-miterlimit:10;" x1="8.5" y1="13.5" x2="14.5" y2="13.5"/>
	<line style="fill:none;stroke:#808080;stroke-linecap:round;stroke-miterlimit:10;" x1="10.5" y1="11.5" x2="14.5" y2="11.5"/>
	<line style="fill:none;stroke:#808080;stroke-linecap:round;stroke-miterlimit:10;" x1="12.5" y1="9.5" x2="14.5" y2="9.5"/>
	<polygon style="fill:#808080;" points="3.49,10.48 5.5,12.54 1.86,14.31 	"/>
	<g>
		<path style="fill:#808080;" d="M12.52,2L14,3.48l-9,8.78c-0.299,0.192-0.613,0.36-0.94,0.5c-0.476,0.238-0.963,0.451-1.46,0.64
			c0.185-0.478,0.395-0.945,0.63-1.4l0,0v-0.06c0.106-0.338,0.268-0.656,0.48-0.94L12.52,2 M12.52,1c-0.252,0-0.493,0.101-0.67,0.28
			L3,10.37c-0.259,0.344-0.465,0.725-0.61,1.13c-0.406,0.827-0.74,1.686-1,2.57L1,15l0.93-0.31c0.88-0.27,1.739-0.604,2.57-1
			c0.392-0.174,0.77-0.377,1.13-0.61l9.09-8.9c0.367-0.367,0.368-0.962,0.001-1.329c0,0,0,0-0.001-0.001l-1.54-1.58
			C13.005,1.096,12.767,0.999,12.52,1z"/>
	</g>
</g>
</svg>
