<?xml version="1.0" encoding="utf-8"?>
<!-- Generator: Adobe Illustrator 21.0.0, SVG Export Plug-In . SVG Version: 6.00 Build 0)  -->
<svg version="1.1" id="文档" xmlns="http://www.w3.org/2000/svg" xmlns:xlink="http://www.w3.org/1999/xlink" x="0px" y="0px"
	 viewBox="0 0 14 14" style="enable-background:new 0 0 14 14;" xml:space="preserve">
<style type="text/css">
	.st0{fill:none;stroke:#808080;stroke-miterlimit:10;}
	.st1{fill:#61A232;}
</style>
<title>14</title>
<g id="_14">
	<line class="st0" x1="9.5" y1="1" x2="9.5" y2="4"/>
	<line class="st0" x1="12" y1="3.5" x2="9" y2="3.5"/>
	<polyline class="st0" points="7,13.5 1.5,13.5 1.5,0.5 9.5,0.5 12.5,3.5 12.5,7 	"/>
	<path class="st1" d="M9.7,8c1,0,1.9,0.8,1.9,1.8s-0.8,1.9-1.8,1.9c-1,0-1.9-0.8-1.9-1.9c0,0,0,0,0,0C7.9,8.8,8.7,8,9.7,8 M9.7,7.3
		c-1.4,0-2.6,1.2-2.6,2.6s1.2,2.6,2.6,2.6s2.6-1.2,2.6-2.6S11.1,7.3,9.7,7.3C9.7,7.3,9.7,7.3,9.7,7.3z"/>
	<rect x="11.7" y="11.1" transform="matrix(0.7071 -0.7071 0.7071 0.7071 -5.0041 12.0862)" class="st1" width="0.7" height="1.9"/>
</g>
</svg>
