<?xml version="1.0" encoding="iso-8859-1"?>
<!-- Generator: Adobe Illustrator 24.0.0, SVG Export Plug-In . SVG Version: 6.00 Build 0)  -->
<svg version="1.1" id="d" xmlns="http://www.w3.org/2000/svg" xmlns:xlink="http://www.w3.org/1999/xlink" x="0px" y="0px"
	 viewBox="0 0 16 16" style="enable-background:new 0 0 16 16;" xml:space="preserve">
<title>16</title>
<g id="_16">
	<path style="fill:#808080;" d="M8,2c3.314,0,6,2.686,6,6s-2.686,6-6,6s-6-2.686-6-6S4.686,2,8,2 M8,1C4.134,1,1,4.134,1,8
		s3.134,7,7,7s7-3.134,7-7S11.866,1,8,1z"/>
	<path style="fill:#808080;" d="M11.5,9h-4C7.224,9,7,8.776,7,8.5v-5C7,3.224,7.224,3,7.5,3S8,3.224,8,3.5V8h3.5
		C11.776,8,12,8.224,12,8.5S11.776,9,11.5,9z"/>
</g>
</svg>
