<?xml version="1.0" encoding="iso-8859-1"?>
<!-- Generator: Adobe Illustrator 24.0.0, SVG Export Plug-In . SVG Version: 6.00 Build 0)  -->
<svg version="1.1" id="&#x56FE;&#x5C42;_22" xmlns="http://www.w3.org/2000/svg" xmlns:xlink="http://www.w3.org/1999/xlink"
	 x="0px" y="0px" viewBox="0 0 16 16" style="enable-background:new 0 0 16 16;" xml:space="preserve">
<title>16</title>
<g id="_16">
	<path style="fill:none;stroke:#808080;stroke-linecap:round;stroke-miterlimit:10;" d="M6.5,12.5h-3c-1.105,0-2-0.895-2-2v-3
		c0-1.105,0.895-2,2-2h9c1.105,0,2,0.895,2,2v3c0,0.743-0.412,1.425-1.07,1.77"/>
	<path style="fill:none;stroke:#808080;stroke-miterlimit:10;" d="M3.5,5.8V3.5c0-1.105,0.895-2,2-2h5c1.105,0,2,0.895,2,2v2.3"/>
	<line style="fill:none;stroke:#808080;stroke-linecap:round;stroke-miterlimit:10;" x1="5.5" y1="3.5" x2="10.5" y2="3.5"/>
	<line style="fill:none;stroke:#808080;stroke-linecap:round;stroke-miterlimit:10;" x1="10.5" y1="7.5" x2="12.5" y2="7.5"/>
	<path style="fill:none;stroke:#808080;stroke-linecap:round;stroke-miterlimit:10;" d="M7,14.5H5.5
		c-0.518,0.034-0.966-0.358-1-0.876c-0.003-0.041-0.003-0.083,0-0.124v-1"/>
	<path style="fill:#808080;" d="M11,10c1.105,0,2,0.895,2,2s-0.895,2-2,2s-2-0.895-2-2S9.895,10,11,10 M11,9c-1.657,0-3,1.343-3,3
		s1.343,3,3,3s3-1.343,3-3S12.657,9,11,9z"/>
	<line style="fill:none;stroke:#808080;stroke-linecap:round;stroke-miterlimit:10;" x1="13.5" y1="13.5" x2="14.99" y2="14.5"/>
</g>
</svg>
