<svg id="粘贴" xmlns="http://www.w3.org/2000/svg" viewBox="0 0 16 16"><defs><style>.cls-1{opacity:0.75;}.cls-2{fill:#1f2022;}</style></defs><title>edit-paste-symbolic</title><g class="cls-1"><path class="cls-2" d="M1,2V14a2,2,0,0,0,2,2H13a2,2,0,0,0,2-2V2ZM14,14a1,1,0,0,1-1,1H3a1,1,0,0,1-1-1V3H14Z"/></g><g class="cls-1"><path class="cls-2" d="M13,3v7a2,2,0,0,1-2,2H5a2,2,0,0,1-2-2V3H4v7a1,1,0,0,0,1,1h6a1,1,0,0,0,1-1V3Z"/></g><g class="cls-1"><path class="cls-2" d="M11,2H10A1,1,0,0,0,9,1H7A1,1,0,0,0,6,2H5A2,2,0,0,1,7,0H9A2,2,0,0,1,11,2Z"/></g><g class="cls-1"><polygon class="cls-2" points="11 5 5 5 5 6 11 6 11 5 11 5"/></g><g class="cls-1"><polygon class="cls-2" points="11 8 5 8 5 9 11 9 11 8 11 8"/></g></svg>