<svg id="剪刀" xmlns="http://www.w3.org/2000/svg" viewBox="0 0 16 16"><defs><style>.cls-1{fill:#1f2022;opacity:0.75;}</style></defs><title>edit-cut-symbolic</title><path class="cls-1" d="M13,10a3,3,0,0,0-1.83.61L9.5,9.47a1.51,1.51,0,0,0-.42-1A6.66,6.66,0,0,0,12.4,6.8c2-2.1,2.2-6.8,2.2-6.8L8,7.66,1.4,0s.1,4.7,2.2,6.8A6.66,6.66,0,0,0,6.92,8.48a1.51,1.51,0,0,0-.42,1L4.83,10.61A3,3,0,0,0,3,10a3,3,0,0,0,0,6,3,3,0,0,0,3-3,3,3,0,0,0-.48-1.65l1.33-.91A1.54,1.54,0,0,0,8,11a1.52,1.52,0,0,0,1.14-.56l1.34.91A3,3,0,0,0,10,13a3,3,0,1,0,3-3ZM3,15a2,2,0,1,1,2-2A2,2,0,0,1,3,15Zm5-5a.5.5,0,1,1,.5-.5A.47.47,0,0,1,8,10Zm5,5a2,2,0,1,1,2-2A2,2,0,0,1,13,15Z"/></svg>