<?xml version="1.0" encoding="iso-8859-1"?>
<!-- Generator: Adobe Illustrator 24.0.0, SVG Export Plug-In . SVG Version: 6.00 Build 0)  -->
<svg version="1.1" id="&#x56FE;&#x5C42;_33" xmlns="http://www.w3.org/2000/svg" xmlns:xlink="http://www.w3.org/1999/xlink"
	 x="0px" y="0px" viewBox="0 0 16 16" style="enable-background:new 0 0 16 16;" xml:space="preserve">
<title>16</title>
<path id="_16" style="fill:#808080;" d="M12.38,9.75c-0.58-0.004-1.145,0.182-1.61,0.53l-1.46-1C9.301,8.951,9.169,8.637,8.94,8.4
	c1.082-0.184,2.091-0.669,2.91-1.4c1.75-1.89,1.92-6,1.92-6L8,7.7L2.22,1c0,0,0.09,4.11,1.93,6c0.815,0.741,1.825,1.234,2.91,1.42
	C6.833,8.654,6.702,8.964,6.69,9.29l-1.46,1c-1.143-0.878-2.782-0.663-3.66,0.48s-0.663,2.782,0.48,3.66s2.782,0.663,3.66-0.48
	c0.673-0.877,0.722-2.082,0.12-3.01L7,10.14c0.248,0.299,0.612,0.477,1,0.49c0.391-0.01,0.757-0.193,1-0.5l1.17,0.8
	c-0.801,1.212-0.468,2.843,0.744,3.644c1.212,0.801,2.843,0.468,3.644-0.744c0.801-1.212,0.468-2.843-0.744-3.644
	C13.388,9.904,12.89,9.753,12.38,9.75z M3.63,14.13c-0.966,0-1.75-0.784-1.75-1.75s0.784-1.75,1.75-1.75s1.75,0.784,1.75,1.75l0,0
	C5.38,13.346,4.596,14.13,3.63,14.13z M8,9.75c-0.243,0-0.44-0.197-0.44-0.44c0-0.243,0.197-0.44,0.44-0.44
	c0.243,0,0.439,0.197,0.44,0.44c0.011,0.228-0.162,0.424-0.39,0.44H8z M12.38,14.13c-0.966,0-1.75-0.784-1.75-1.75
	s0.784-1.75,1.75-1.75s1.75,0.784,1.75,1.75l0,0C14.13,13.346,13.346,14.13,12.38,14.13z"/>
</svg>
