<?xml version="1.0" encoding="iso-8859-1"?>
<!-- Generator: Adobe Illustrator 24.0.0, SVG Export Plug-In . SVG Version: 6.00 Build 0)  -->
<svg version="1.1" id="e" xmlns="http://www.w3.org/2000/svg" xmlns:xlink="http://www.w3.org/1999/xlink" x="0px" y="0px"
	 viewBox="0 0 16 16" style="enable-background:new 0 0 16 16;" xml:space="preserve">
<title>16</title>
<g id="_16">
	<path style="fill:#808080;" d="M10,10.33l1,1.79H9.08c-0.237,0-0.43,0.193-0.43,0.43c0,0,0,0,0,0l0,0c0,0.237,0.193,0.43,0.43,0.43
		c0,0,0,0,0,0h2.23c0.387-0.005,0.695-0.323,0.69-0.71c0,0,0,0,0,0l0,0c0.002-0.124-0.032-0.246-0.1-0.35l-1.19-2
		c-0.109-0.188-0.346-0.258-0.54-0.16l0,0C9.97,9.874,9.895,10.125,10,10.33z"/>
	<path style="fill:#808080;" d="M4.32,12.89L4.32,12.89C4.434,12.961,4.566,12.999,4.7,13h2.24c0.237,0,0.43-0.193,0.43-0.43l0,0
		l0,0c0-0.237-0.193-0.43-0.43-0.43l0,0H5l1-1.84c0.159-0.172,0.159-0.438,0-0.61C5.803,9.568,5.544,9.629,5.422,9.827
		C5.421,9.828,5.421,9.829,5.42,9.83l0,0l-1.3,2.07c-0.224,0.329-0.138,0.776,0.19,1L4.32,12.89z"/>
	<path style="fill:#808080;" d="M6.37,8.94c0.173,0.155,0.438,0.14,0.593-0.032C6.977,8.893,6.989,8.877,7,8.86V8.8l0,0L8,7
		l1.06,1.79C9.133,8.92,9.271,9.001,9.42,9c0.232,0,0.42-0.188,0.42-0.42l0,0l0,0c0-0.081-0.02-0.16-0.06-0.23l-1.18-2
		C8.417,6.022,8.003,5.904,7.675,6.087C7.673,6.088,7.672,6.089,7.67,6.09H7.6C7.514,6.156,7.436,6.234,7.37,6.32l-1.14,2
		C6.109,8.532,6.169,8.801,6.37,8.94z"/>
	<path style="fill:#808080;" d="M14.5,3H12V2.5C12,1.672,11.328,1,10.5,1h-5C4.672,1,4,1.672,4,2.5V3H1.5C1.224,3,1,3.224,1,3.5
		S1.224,4,1.5,4H2v9.5C2,14.881,3.119,16,4.5,16h7c1.381,0,2.5-1.119,2.5-2.5V4h0.5C14.776,4,15,3.776,15,3.5S14.776,3,14.5,3z
		 M5,2.5C5,2.224,5.224,2,5.5,2h5C10.776,2,11,2.224,11,2.5V3H5V2.5z M13,13.5c0,0.828-0.672,1.5-1.5,1.5h-7
		C3.672,15,3,14.328,3,13.5V4h10V13.5z"/>
</g>
</svg>
