<?xml version="1.0" encoding="iso-8859-1"?>
<!-- Generator: Adobe Illustrator 24.0.0, SVG Export Plug-In . SVG Version: 6.00 Build 0)  -->
<svg version="1.1" id="&#x56FE;&#x5C42;_35" xmlns="http://www.w3.org/2000/svg" xmlns:xlink="http://www.w3.org/1999/xlink"
	 x="0px" y="0px" viewBox="0 0 16 16" style="enable-background:new 0 0 16 16;" xml:space="preserve">
<title>16</title>
<g id="_16">
	<rect x="10" y="8" style="fill:#808080;" width="5" height="1"/>
	<rect x="10" y="6" style="fill:#808080;" width="5" height="1"/>
	<path style="fill:#808080;" d="M12.4,11.7c0.424-0.528,0.792-1.097,1.1-1.7h-1.1c-0.175,0.371-0.411,0.709-0.7,1
		c-0.181,0.281-0.419,0.519-0.7,0.7c-0.984,0.821-2.219,1.28-3.5,1.3C4.474,12.973,2.027,10.526,2,7.5
		C2.027,4.474,4.474,2.027,7.5,2c2.053,0.05,3.922,1.194,4.9,3h1.1C12.119,1.686,8.314,0.119,5,1.5S0.119,6.686,1.5,10
		c1.009,2.422,3.376,4,6,4c1.543-0.031,3.028-0.596,4.2-1.6l2.6,2.6l0.7-0.7L12.4,11.7z"/>
</g>
</svg>
