<?xml version="1.0" encoding="iso-8859-1"?>
<!-- Generator: Adobe Illustrator 24.0.0, SVG Export Plug-In . SVG Version: 6.00 Build 0)  -->
<svg version="1.1" id="e" xmlns="http://www.w3.org/2000/svg" xmlns:xlink="http://www.w3.org/1999/xlink" x="0px" y="0px"
	 viewBox="0 0 16 16" style="enable-background:new 0 0 16 16;" xml:space="preserve">
<title>16</title>
<g id="_16">
	<path style="fill:#808080;" d="M5,6.79L3.44,8.94C3.269,9.164,2.949,9.206,2.725,9.035C2.689,9.008,2.657,8.976,2.63,8.94
		L1.09,6.79C0.93,6.565,0.982,6.253,1.207,6.093C1.293,6.032,1.395,5.999,1.5,6h3.09c0.276-0.001,0.501,0.221,0.503,0.497
		C5.093,6.602,5.061,6.705,5,6.79z"/>
	<path style="fill:none;stroke:#808080;stroke-linecap:round;stroke-miterlimit:10;" d="M3,6.25C3.521,3.942,5.639,2.354,8,2.5
		c1.046,0.001,2.076,0.259,3,0.75"/>
	<path style="fill:#808080;" d="M12.64,3.08L14,4.38l-7.1,7.1c-0.174,0.174-0.377,0.316-0.6,0.42l-1.81,0.69l0.86-2l0,0l0,0
		c0.051-0.124,0.121-0.239,0.21-0.34l7.1-7.09 M12.66,2.1C12.421,2.062,12.178,2.136,12,2.3L4.84,9.46
		c-0.205,0.207-0.362,0.456-0.46,0.73L3,13.36c-0.083,0.258,0.059,0.534,0.316,0.617C3.363,13.991,3.411,13.999,3.46,14
		c0.09,0,3.17-1.18,3.17-1.18c0.338-0.154,0.646-0.368,0.91-0.63L14.73,5c0.351-0.336,0.362-0.894,0.026-1.244
		c-0.008-0.009-0.017-0.017-0.026-0.026L13.28,2.3C13.122,2.11,12.887,2,12.64,2L12.66,2.1z"/>
</g>
</svg>
