<?xml version="1.0" encoding="iso-8859-1"?>
<!-- Generator: Adobe Illustrator 24.0.0, SVG Export Plug-In . SVG Version: 6.00 Build 0)  -->
<svg version="1.1" id="f" xmlns="http://www.w3.org/2000/svg" xmlns:xlink="http://www.w3.org/1999/xlink" x="0px" y="0px"
	 viewBox="0 0 16 16" style="enable-background:new 0 0 16 16;" xml:space="preserve">
<title>16</title>
<g id="_16">
	<path style="fill:none;stroke:#808080;stroke-miterlimit:10;" d="M3,9.5H2.5c-0.552,0-1-0.448-1-1v-6c0-0.552,0.448-1,1-1h2.67
		L7,3.5h3.5c0.552,0,1,0.448,1,1V7"/>
	<path style="fill:none;stroke:#808080;stroke-miterlimit:10;" d="M4.5,7.5v6c0,0.552,0.448,1,1,1h8c0.552,0,1-0.448,1-1v-4
		c0-0.552-0.448-1-1-1H10l-2-2H5.5C4.948,6.5,4.5,6.948,4.5,7.5z"/>
</g>
</svg>
