<?xml version="1.0" encoding="iso-8859-1"?>
<!-- Generator: Adobe Illustrator 24.0.0, SVG Export Plug-In . SVG Version: 6.00 Build 0)  -->
<svg version="1.1" id="f" xmlns="http://www.w3.org/2000/svg" xmlns:xlink="http://www.w3.org/1999/xlink" x="0px" y="0px"
	 viewBox="0 0 16 16" style="enable-background:new 0 0 16 16;" xml:space="preserve">
<title>16</title>
<g id="_16">
	<path style="fill:none;stroke:#808080;stroke-linecap:round;stroke-miterlimit:10;" d="M14.5,8.5V6.43
		c-0.101-1.048-0.949-1.866-2-1.93H9.22c-0.72,0-1.05,0.11-1.25-0.37C7.63,3.29,7.19,2.5,6.11,2.5h-3
		C2.271,2.579,1.6,3.233,1.5,4.07v7.72c-0.022,0.919,0.702,1.683,1.62,1.71H9.5"/>
	<path style="fill:#808080;" d="M15.5,11H13V8.5C13,8.224,12.776,8,12.5,8S12,8.224,12,8.5V11H9.5C9.224,11,9,11.224,9,11.5
		S9.224,12,9.5,12H12v2.5c0,0.276,0.224,0.5,0.5,0.5s0.5-0.224,0.5-0.5V12h2.5c0.276,0,0.5-0.224,0.5-0.5S15.776,11,15.5,11z"/>
</g>
</svg>
