<?xml version="1.0" encoding="utf-8"?>
<!-- Generator: Adobe Illustrator 23.0.3, SVG Export Plug-In . SVG Version: 6.00 Build 0)  -->
<svg version="1.1"
	 id="svg7384" xmlns:cc="http://creativecommons.org/ns#" xmlns:dc="http://purl.org/dc/elements/1.1/" xmlns:osb="http://www.openswatchbook.org/uri/2009/osb" xmlns:rdf="http://www.w3.org/1999/02/22-rdf-syntax-ns#" xmlns:svg="http://www.w3.org/2000/svg"
	 xmlns="http://www.w3.org/2000/svg" xmlns:xlink="http://www.w3.org/1999/xlink" x="0px" y="0px" viewBox="0 0 16 16"
	 style="enable-background:new 0 0 16 16;" xml:space="preserve">
<style type="text/css">
	.st0{fill-rule:evenodd;clip-rule:evenodd;fill:#808080;}
</style>
<g id="layer9" transform="translate(-353.00021,227)">
</g>
<g id="layer2" transform="translate(-112.00001,-140)">
</g>
<g id="layer4" transform="translate(-112.00001,-140)">
</g>
<g id="g1812" transform="translate(-112.00001,-140)">
</g>
<g id="g6217" transform="translate(-112.00001,-140)">
</g>
<g id="layer3" transform="translate(-112.00001,-140)">
</g>
<g id="g1833" transform="translate(-112.00001,-140)">
</g>
<g id="layer1" transform="translate(-112.00001,-140)">
	<path id="path7092-6" class="st0" d="M119.4,143l-3.6,9.3H115v0.7h2.8v-0.7h-1.1l0.8-2.2h4.2l0.8,2.2h-1.1v0.7h3.6v-0.7h-1
		l-3.6-9.3H119.4z M119.7,144.6l1.8,4.8h-3.7L119.7,144.6z M112.8,146.1l-0.6,0.8l2,1.6l-2,1.6l0.6,0.8l3-2.4L112.8,146.1z
		 M127.2,146.1l-3,2.4l3,2.4l0.6-0.8l-2-1.6l2-1.6L127.2,146.1z"/>
</g>
</svg>
