<?xml version="1.0" encoding="utf-8"?>
<!-- Generator: Adobe Illustrator 21.0.0, SVG Export Plug-In . SVG Version: 6.00 Build 0)  -->
<svg version="1.1" id="文字编辑" xmlns="http://www.w3.org/2000/svg" xmlns:xlink="http://www.w3.org/1999/xlink" x="0px"
	 y="0px" viewBox="0 0 14 14" style="enable-background:new 0 0 14 14;" xml:space="preserve">
<style type="text/css">
	.st0{fill:#808080;}
	.st1{fill:none;stroke:#808080;stroke-miterlimit:10;}
</style>
<title>14</title>
<g id="_14">
	<path class="st0" d="M8,1c1.7,0,3,1.3,3,3c0,0.9-0.4,1.7-1,2.3L9.1,7l0.9,0.8c1.2,1.1,1.4,3,0.3,4.2c-0.6,0.6-1.4,1-2.2,1H3V1H8
		 M8,0H2v14h6c2.2,0,4-1.8,4-4c0-1.1-0.5-2.2-1.4-3c1.7-1.5,1.8-4,0.4-5.6C10.2,0.5,9.1,0,8,0z"/>
	<line class="st1" x1="2.5" y1="7" x2="9.6" y2="7"/>
</g>
</svg>
