<?xml version="1.0" encoding="utf-8"?>
<!-- Generator: Adobe Illustrator 23.0.3, SVG Export Plug-In . SVG Version: 6.00 Build 0)  -->
<svg version="1.1" id="文字编辑" xmlns="http://www.w3.org/2000/svg" xmlns:xlink="http://www.w3.org/1999/xlink" x="0px"
	 y="0px" viewBox="0 0 16 16" style="enable-background:new 0 0 16 16;" xml:space="preserve">
<style type="text/css">
	.st0{fill:#808080;}
</style>
<title>16</title>
<path class="st0" d="M6.9,14c-0.6,0-1.3,0-1.9-0.1c-0.6,0-1.3-0.1-2-0.3V2.3c0.5-0.1,1.1-0.2,1.8-0.2C5.4,2,6,2,6.6,2
	c0.7,0,1.4,0.1,2,0.2c0.6,0.1,1.2,0.3,1.6,0.5c0.5,0.3,0.8,0.6,1,1c0.3,0.4,0.4,0.9,0.4,1.6c0,0.9-0.5,1.7-1.4,2.2
	c0.7,0.3,1.3,0.7,1.5,1.1c0.3,0.5,0.4,1,0.4,1.6c0,1.2-0.5,2.2-1.4,2.8C10,13.7,8.7,14,6.9,14z M5.6,8.7v3c0.2,0,0.4,0,0.6,0.1
	c0.2,0,0.5,0,0.7,0c0.8,0,1.4-0.1,1.9-0.3s0.7-0.6,0.7-1.3c0-0.5-0.2-0.9-0.6-1.1C8.6,8.9,8,8.7,7.2,8.7H5.6z M5.6,6.7h1.3
	c0.8,0,1.4-0.1,1.7-0.3c0.3-0.2,0.5-0.6,0.5-1c0-0.5-0.2-0.8-0.5-1C8.2,4.2,7.7,4.1,7,4.1c-0.2,0-0.5,0-0.7,0c-0.3,0-0.5,0-0.7,0
	L5.6,6.7z"/>
</svg>
