<?xml version="1.0" encoding="utf-8"?>
<!-- Generator: Adobe Illustrator 24.0.0, SVG Export Plug-In . SVG Version: 6.00 Build 0)  -->
<svg version="1.1" id="图层_2_1_" opacity="0.8" xmlns="http://www.w3.org/2000/svg" xmlns:xlink="http://www.w3.org/1999/xlink"
	 x="0px" y="0px" viewBox="0 0 16 16" style="enable-background:new 0 0 16 16;" xml:space="preserve">
<style type="text/css">
	.st0{fill:#1F2022;}
</style>
<path class="st0" d="M12,8c0.6-0.6,1-1.5,1-2.5c0-2-1.5-3.5-3.5-3.5H5H4.6H3v12h1.6H5h4.5c2,0,3.5-1.5,3.5-3.5C13,9.5,12.6,8.6,12,8
	z M9.5,4C10.3,4,11,4.7,11,5.5S10.3,7,9.5,7H5V4H9.5z M9.5,12H5V9h4.5c0.8,0,1.5,0.7,1.5,1.5C11,11.3,10.3,12,9.5,12z"/>
</svg>
