<?xml version="1.0" encoding="utf-8"?>
<!-- Generator: Adobe Illustrator 21.0.0, SVG Export Plug-In . SVG Version: 6.00 Build 0)  -->
<svg version="1.1" id="gtk-about" xmlns="http://www.w3.org/2000/svg" xmlns:xlink="http://www.w3.org/1999/xlink" x="0px" y="0px"
	 viewBox="0 0 14 14" style="enable-background:new 0 0 14 14;" xml:space="preserve">
<style type="text/css">
	.st0{fill:#808080;}
</style>
<title>14</title>
<g id="_14">
	<path class="st0" d="M4.4,5.8c0-0.9,0.1-1.6,0.7-2c0.4-0.3,1-0.5,1.5-0.5c0.6,0,1.1,0.2,1.5,0.5c0.5,0.4,0.7,0.9,0.7,1.5
		c0,0.7-0.4,1.4-0.9,1.8C7.6,7.4,7.3,7.7,7.1,8C7,8.3,6.9,8.7,6.9,9H6c0-0.4,0.1-0.8,0.2-1.2C6.4,7.4,6.7,7,7,6.8l0.1-0.1
		c0.6-0.5,0.8-0.9,0.7-1.3c0-0.7-0.5-1.2-1.2-1.3c0,0-0.1,0-0.1,0c-0.9,0-1.4,0.6-1.4,1.7H4.4z"/>
	<rect x="6" y="10" class="st0" width="1" height="1"/>
	<path class="st0" d="M7,0C3.1,0,0,3.1,0,7s3.1,7,7,7s7-3.1,7-7S10.9,0,7,0z M7,13c-3.3,0-6-2.7-6-6s2.7-6,6-6s6,2.7,6,6
		S10.3,13,7,13z"/>
</g>
</svg>
