<?xml version="1.0" encoding="iso-8859-1"?>
<!-- Generator: Adobe Illustrator 24.0.0, SVG Export Plug-In . SVG Version: 6.00 Build 0)  -->
<svg version="1.1" id="&#x56FE;&#x5C42;_1" xmlns="http://www.w3.org/2000/svg" xmlns:xlink="http://www.w3.org/1999/xlink" x="0px"
	 y="0px" viewBox="0 0 16 16" style="enable-background:new 0 0 16 16;" xml:space="preserve">
<title>16</title>
<g id="h">
	<g id="_16">
		<g id="path67">
			<path style="fill:#808080;" d="M8,2.73c0.21,0.48,0.43,1,0.57,1.44c0.22,0.79,0.579,1.535,1.06,2.2
				c0.665,0.481,1.41,0.84,2.2,1.06c0.39,0.14,1,0.36,1.44,0.57c-0.48,0.21-1,0.43-1.44,0.57c-0.79,0.22-1.535,0.579-2.2,1.06
				c-0.481,0.665-0.84,1.41-1.06,2.2c-0.14,0.39-0.36,1-0.57,1.44c-0.21-0.48-0.43-1-0.57-1.44c-0.22-0.79-0.579-1.535-1.06-2.2
				c-0.665-0.481-1.41-0.84-2.2-1.06C3.78,8.43,3.17,8.21,2.73,8c0.48-0.21,1-0.43,1.44-0.57c0.79-0.22,1.535-0.579,2.2-1.06
				c0.481-0.665,0.84-1.41,1.06-2.2C7.57,3.78,7.79,3.17,8,2.73 M8,1C7.28,1,6.17,5.15,5.66,5.66S1,7.28,1,8s4.15,1.83,4.66,2.34
				S7.28,15,8,15s1.83-4.15,2.34-4.66S15,8.72,15,8s-4.15-1.83-4.66-2.34S8.72,1,8,1z"/>
		</g>
	</g>
</g>
</svg>
