<?xml version="1.0" encoding="utf-8"?>
<!-- Generator: Adobe Illustrator 21.0.0, SVG Export Plug-In . SVG Version: 6.00 Build 0)  -->
<svg version="1.1" id="im-message-new" xmlns="http://www.w3.org/2000/svg" xmlns:xlink="http://www.w3.org/1999/xlink" x="0px"
	 y="0px" viewBox="0 0 14 14" style="enable-background:new 0 0 14 14;" xml:space="preserve">
<style type="text/css">
	.st0{fill:#808080;}
</style>
<title>14</title>
<g id="_14">
	<rect x="3" y="4" class="st0" width="7" height="1"/>
	<rect x="3" y="7" class="st0" width="5" height="1"/>
	<path class="st0" d="M6.8,1c3.2,0,5.8,2.2,5.8,4.9s-2.6,4.9-5.8,4.9c-0.5,0-0.9-0.1-1.4-0.1l-0.4-0.1l-0.4,0.3l-1.8,1.3V9.4
		L2.5,9.1C1.6,8.3,1,7.1,1,5.9C1,3.2,3.6,1,6.8,1 M6.8,0C3,0,0,2.6,0,5.9c0,1.5,0.7,3,1.8,4V14l3.3-2.4c0.5,0.1,1.1,0.2,1.6,0.2
		c3.7,0,6.8-2.6,6.8-5.9S10.5,0,6.8,0z"/>
</g>
</svg>
