<?xml version="1.0" encoding="iso-8859-1"?>
<!-- Generator: Adobe Illustrator 24.0.0, SVG Export Plug-In . SVG Version: 6.00 Build 0)  -->
<svg version="1.1" id="i" xmlns="http://www.w3.org/2000/svg" xmlns:xlink="http://www.w3.org/1999/xlink" x="0px" y="0px"
	 viewBox="0 0 16 16" style="enable-background:new 0 0 16 16;" xml:space="preserve">
<title>16</title>
<g id="_16">
	<circle style="fill:#808080;" cx="12" cy="5" r="1"/>
	<path style="fill:#808080;" d="M8.22,6.94L6.5,9L5.42,8.28C5.192,8.125,4.881,8.184,4.725,8.412C4.724,8.415,4.722,8.417,4.72,8.42
		L3,11h10L9.77,7c-0.332-0.442-0.959-0.53-1.4-0.199C8.315,6.842,8.265,6.889,8.22,6.94z"/>
	<path style="fill:#808080;" d="M7,12h4c0.276,0,0.5,0.224,0.5,0.5c0,0.108-0.035,0.213-0.1,0.3l-2,2.67
		c-0.175,0.221-0.495,0.258-0.716,0.084C8.653,15.529,8.625,15.501,8.6,15.47l-2-2.67c-0.166-0.221-0.121-0.534,0.1-0.7
		C6.787,12.035,6.892,12,7,12z"/>
	<path style="fill:none;stroke:#808080;stroke-linecap:round;stroke-miterlimit:10;" d="M12.5,13.5L12.5,13.5c1.105,0,2-0.895,2-2
		v-7c0-1.105-0.895-2-2-2h-9c-1.105,0-2,0.895-2,2v7c0,1.105,0.895,2,2,2h2"/>
</g>
</svg>
