<?xml version="1.0" encoding="utf-8"?>
<!-- Generator: Adobe Illustrator 24.0.0, SVG Export Plug-In . SVG Version: 6.00 Build 0)  -->
<svg version="1.1" id="图层_2" opacity="0.8" xmlns="http://www.w3.org/2000/svg" xmlns:xlink="http://www.w3.org/1999/xlink"
	 x="0px" y="0px" viewBox="0 0 16 16" style="enable-background:new 0 0 16 16;" xml:space="preserve">
<style type="text/css">
	.st0{fill:#1F2022;}
	.st1{fill:none;stroke:#000000;stroke-linecap:round;stroke-linejoin:round;stroke-miterlimit:10;}
</style>
<path class="st0" d="M10,10H15c0.4,0,0.6,0.5,0.4,0.8l-2.5,3.6c-0.2,0.3-0.6,0.3-0.8,0l-2.5-3.6C9.3,10.5,9.6,10,10,10z"/>
<g>
	<polyline class="st1" points="0.5,8.5 2.5,2.5 4.5,8.5 	"/>
	<line class="st1" x1="1.4" y1="6.5" x2="3.5" y2="6.5"/>
</g>
<g>
	<line class="st1" x1="5.5" y1="2.5" x2="5.5" y2="8.5"/>
	<path class="st1" d="M6.7,5.5H8c0.8,0,1.5,0.7,1.5,1.5v0c0,0.8-0.7,1.5-1.5,1.5H5.5"/>
	<path class="st1" d="M5.5,2.5H8c0.8,0,1.5,0.7,1.5,1.5v0c0,0.8-0.7,1.5-1.5,1.5H5.5"/>
</g>
<path class="st1" d="M15.2,7c-0.4,0.9-1.2,1.5-2.2,1.5c-1.4,0-2.5-1.3-2.5-3s1.1-3,2.5-3c0.9,0,1.7,0.6,2.2,1.5"/>
</svg>
