<?xml version="1.0" encoding="iso-8859-1"?>
<!-- Generator: Adobe Illustrator 24.0.0, SVG Export Plug-In . SVG Version: 6.00 Build 0)  -->
<svg version="1.1" id="i" xmlns="http://www.w3.org/2000/svg" xmlns:xlink="http://www.w3.org/1999/xlink" x="0px" y="0px"
	 viewBox="0 0 16 16" style="enable-background:new 0 0 16 16;" xml:space="preserve">
<title>16</title>
<g id="_16">
	<path style="fill:#808080;" d="M11.84,15.06l-2-2.8c-0.255-0.361-0.169-0.86,0.192-1.115c0.148-0.104,0.327-0.156,0.508-0.145h3.92
		c0.442-0.003,0.802,0.353,0.805,0.794c0.001,0.167-0.05,0.329-0.145,0.466l-2,2.8c-0.265,0.353-0.767,0.425-1.12,0.16
		C11.939,15.175,11.885,15.121,11.84,15.06z"/>
	<path style="fill:none;stroke:#808080;stroke-linecap:round;stroke-miterlimit:10;" d="M14.5,8.93V3.5c0-1.105-0.895-2-2-2h-9
		c-1.105,0-2,0.895-2,2v9c0,1.105,0.895,2,2,2h5"/>
	<path style="fill:#808080;" d="M12,6c0-0.552-0.448-1-1-1H4C3.448,5,3,5.448,3,6v6c0,0.552,0.448,1,1,1h2c0.552,0,1-0.448,1-1v-2
		c0-0.552,0.448-1,1-1h3c0.552,0,1-0.448,1-1V6z"/>
	<line style="fill:none;stroke:#808080;stroke-linecap:round;stroke-miterlimit:10;" x1="3.5" y1="3.5" x2="12.5" y2="3.5"/>
</g>
</svg>
