<?xml version="1.0" encoding="iso-8859-1"?>
<!-- Generator: Adobe Illustrator 24.0.0, SVG Export Plug-In . SVG Version: 6.00 Build 0)  -->
<svg version="1.1" id="m" xmlns="http://www.w3.org/2000/svg" xmlns:xlink="http://www.w3.org/1999/xlink" x="0px" y="0px"
	 viewBox="0 0 16 16" style="enable-background:new 0 0 16 16;" xml:space="preserve">
<title>16</title>
<g id="_16">
	<path style="fill:#EA572A;" d="M11.5,9c1.381,0,2.5,1.119,2.5,2.5S12.881,14,11.5,14S9,12.881,9,11.5
		C9.016,10.126,10.126,9.016,11.5,9 M11.5,8C9.567,8,8,9.567,8,11.5S9.567,15,11.5,15s3.5-1.567,3.5-3.5
		C14.978,9.576,13.424,8.022,11.5,8z"/>
	<rect x="11" y="10" style="fill:#EA572A;" width="1" height="2"/>
	<rect x="11" y="12.5" style="fill:#EA572A;" width="1" height="1"/>
	<path style="fill:none;stroke:#808080;stroke-miterlimit:10;" d="M1.7,3.63l5.73,4c0.343,0.238,0.797,0.238,1.14,0L14.5,3.5"/>
	<line style="fill:none;stroke:#808080;stroke-miterlimit:10;" x1="6.76" y1="7.22" x2="2.04" y2="11.87"/>
	<path style="fill:none;stroke:#808080;stroke-linecap:round;stroke-miterlimit:10;" d="M6.5,12.5h-3c-1.105,0-2-0.895-2-2v-6
		c0-1.105,0.895-2,2-2h9c1.105,0,2,0.895,2,2v3"/>
</g>
</svg>
