<?xml version="1.0" encoding="utf-8"?>
<!-- Generator: Adobe Illustrator 23.0.3, SVG Export Plug-In . SVG Version: 6.00 Build 0)  -->
<svg version="1.1" id="方向" xmlns="http://www.w3.org/2000/svg" xmlns:xlink="http://www.w3.org/1999/xlink" x="0px" y="0px"
	 viewBox="0 0 16 16" style="enable-background:new 0 0 16 16;" xml:space="preserve">
<style type="text/css">
	.st0{fill:#808080;}
</style>
<path class="st0" d="M2,7c0,0,0,0,0,1.5C2,11.2,4.1,13,7.5,13H12v2l4-2.5L12,10v2H7.5C6.4,12,3,11.8,3,8.5C3,7,3,7,3,7"/>
<path class="st0" d="M14,9c0,0,0,0,0-1.5C14,4.8,11.9,3,8.5,3H4V1L0,3.5L4,6V4h4.5C9.6,4,13,4.2,13,7.5C13,9,13,9,13,9"/>
</svg>
