<?xml version="1.0" encoding="utf-8"?>
<!-- Generator: Adobe Illustrator 21.0.0, SVG Export Plug-In . SVG Version: 6.00 Build 0)  -->
<svg version="1.1" id="media-playlist-shuffle" xmlns="http://www.w3.org/2000/svg" xmlns:xlink="http://www.w3.org/1999/xlink"
	 x="0px" y="0px" viewBox="0 0 14 14" style="enable-background:new 0 0 14 14;" xml:space="preserve">
<style type="text/css">
	.st0{fill:none;stroke:#808080;stroke-miterlimit:10;}
	.st1{fill:#EA572A;}
</style>
<title>14</title>
<g id="_16">
	<path class="st0" d="M6.1,6.8L6.1,6.8c0-1.9,1.6-3.5,3.5-3.5c0.1,0,0.1,0,0.2,0h3.4"/>
	<path class="st0" d="M13.2,10.2H9.8c-0.7,0-1.4-0.2-2-0.6"/>
	<path class="st0" d="M6.1,6.8L6.1,6.8c0,1.9-1.6,3.5-3.6,3.5c0,0-0.1,0-0.1,0H0"/>
	<path class="st0" d="M0,3.3h2.5c0.7,0,1.4,0.2,2,0.6"/>
	<line class="st0" x1="13.6" y1="10.5" x2="11.8" y2="8.7"/>
	<line class="st0" x1="11.8" y1="11.8" x2="13.6" y2="9.9"/>
	<line class="st0" x1="13.6" y1="3.6" x2="11.8" y2="1.7"/>
	<line class="st0" x1="11.8" y1="4.8" x2="13.6" y2="3"/>
</g>
<rect x="3.1" y="8.1" transform="matrix(0.7071 -0.7071 0.7071 0.7071 -6.4009 5.5534)" class="st1" width="0.8" height="4.9"/>
<rect x="1.1" y="10.1" transform="matrix(0.7071 -0.7071 0.7071 0.7071 -6.3959 5.5513)" class="st1" width="4.9" height="0.8"/>
<path class="st1" d="M3.5,14C1.6,14,0,12.4,0,10.5S1.6,7,3.5,7S7,8.6,7,10.5S5.4,14,3.5,14z M3.5,7.8C2,7.8,0.8,9,0.8,10.5
	s1.2,2.7,2.7,2.7s2.7-1.2,2.7-2.7l0,0C6.2,9,5,7.8,3.5,7.8z"/>
</svg>
