<?xml version="1.0" encoding="utf-8"?>
<!-- Generator: Adobe Illustrator 24.0.0, SVG Export Plug-In . SVG Version: 6.00 Build 0)  -->
<svg version="1.1" id="图层_2_1_" xmlns="http://www.w3.org/2000/svg" xmlns:xlink="http://www.w3.org/1999/xlink" x="0px"
	 y="0px" viewBox="0 0 16 16" style="enable-background:new 0 0 16 16;" xml:space="preserve">
<style type="text/css">
	.st0{opacity:0.75;fill:#1F2022;}
</style>
<path class="st0" d="M14.3,7.6L6.8,2.1C6.6,2,6.4,2,6.3,2.1C6.1,2.1,6,2.3,6,2.5v2L2.8,2.1C2.6,2,2.4,2,2.3,2.1C2.1,2.1,2,2.3,2,2.5
	v11c0,0.2,0.1,0.4,0.3,0.4C2.3,14,2.4,14,2.5,14c0.1,0,0.2,0,0.3-0.1L6,11.6v1.9c0,0.2,0.1,0.4,0.3,0.4C6.3,14,6.4,14,6.5,14
	c0.1,0,0.2,0,0.3-0.1l7.5-5.5c0.1-0.1,0.2-0.2,0.2-0.4S14.4,7.7,14.3,7.6z M3,12.5v-9l3,2.2v4.6L3,12.5z M7,12.5v-9L13.2,8L7,12.5z"
	/>
</svg>
