<?xml version="1.0" encoding="utf-8"?>
<!-- Generator: Adobe Illustrator 21.0.0, SVG Export Plug-In . SVG Version: 6.00 Build 0)  -->
<svg version="1.1" id="结" xmlns="http://www.w3.org/2000/svg" xmlns:xlink="http://www.w3.org/1999/xlink" x="0px" y="0px"
	 viewBox="0 0 14 14" style="enable-background:new 0 0 14 14;" xml:space="preserve">
<style type="text/css">
	.st0{fill:#808080;}
	.st1{fill:none;stroke:#808080;stroke-miterlimit:10;}
	.st2{fill:#61A232;}
	.st3{fill:none;stroke:#61A232;stroke-width:2;stroke-miterlimit:10;}
</style>
<title>14</title>
<g id="_14">
	<path class="st0" d="M9,1v3H5V1H9 M10,0H4v5h6V0z"/>
	<path class="st0" d="M5,11v2H3v-2H5 M6,10H2v4h4V10z"/>
	<path class="st0" d="M11,11v2H9v-2H11 M12,10H8v4h4V10z"/>
	<line class="st1" x1="0" y1="11.5" x2="3" y2="11.5"/>
	<line class="st1" x1="11" y1="11.5" x2="14" y2="11.5"/>
	<line class="st1" x1="10" y1="2.5" x2="14" y2="2.5"/>
	<line class="st1" x1="10" y1="2.5" x2="14" y2="2.5"/>
	<polygon class="st2" points="4.5,7 7,10 9.5,7 	"/>
	<line class="st3" x1="7" y1="5" x2="7" y2="7"/>
</g>
</svg>
