<?xml version="1.0" encoding="iso-8859-1"?>
<!-- Generator: Adobe Illustrator 24.0.0, SVG Export Plug-In . SVG Version: 6.00 Build 0)  -->
<svg version="1.1" id="&#x56FE;&#x5C42;_1" xmlns="http://www.w3.org/2000/svg" xmlns:xlink="http://www.w3.org/1999/xlink" x="0px"
	 y="0px" viewBox="0 0 16 16" style="enable-background:new 0 0 16 16;" xml:space="preserve">
<title>16</title>
<g id="n">
	<g id="_16">
		<path style="fill:#808080;" d="M8,7.31c0.271-0.002,0.531,0.107,0.72,0.3l1.19,1.23c0.381,0.389,0.381,1.011,0,1.4l-1.2,1.19
			c-0.389,0.392-1.022,0.395-1.414,0.006c-0.002-0.002-0.004-0.004-0.006-0.006L6.1,10.24c-0.381-0.389-0.381-1.011,0-1.4l1.18-1.23
			C7.469,7.417,7.729,7.308,8,7.31 M8,6.31C7.461,6.312,6.945,6.532,6.57,6.92l-1.2,1.22c-0.769,0.779-0.769,2.031,0,2.81l1.2,1.19
			c0.78,0.775,2.04,0.775,2.82,0L10.61,11c0.769-0.779,0.769-2.031,0-2.81L9.43,6.92C9.055,6.532,8.539,6.312,8,6.31z"/>
		<line style="fill:none;stroke:#808080;stroke-linecap:round;stroke-miterlimit:10;" x1="9.77" y1="7.87" x2="14.5" y2="3.5"/>
		<line style="fill:none;stroke:#808080;stroke-linecap:round;stroke-miterlimit:10;" x1="6.22" y1="7.89" x2="1.5" y2="3.5"/>
	</g>
</g>
</svg>
