<?xml version="1.0" encoding="utf-8"?>
<!-- Generator: Adobe Illustrator 21.0.0, SVG Export Plug-In . SVG Version: 6.00 Build 0)  -->
<svg version="1.1" id="object-straighten" xmlns="http://www.w3.org/2000/svg" xmlns:xlink="http://www.w3.org/1999/xlink" x="0px"
	 y="0px" viewBox="0 0 14 14" style="enable-background:new 0 0 14 14;" xml:space="preserve">
<style type="text/css">
	.st0{fill:#808080;}
</style>
<title>14</title>
<g id="_14">
	<path class="st0" d="M3,2v11H2V2H3 M4,1H1v13h3V1z"/>
	<path class="st0" d="M7,2v11H6V2H7 M8,1H5v13h3V1z"/>
	<path class="st0" d="M1,8v6h3V8H1z M2.5,11.5C2.2,11.5,2,11.3,2,11s0.2-0.5,0.5-0.5S3,10.7,3,11S2.8,11.5,2.5,11.5z"/>
	<path class="st0" d="M5,8v6h3V8H5z M6.5,11.5C6.2,11.5,6,11.3,6,11s0.2-0.5,0.5-0.5S7,10.7,7,11S6.8,11.5,6.5,11.5z"/>
	<path class="st0" d="M10.1,1.8l1.9,10.8l-1,0.2L9.2,2L10.1,1.8 M11,0.7L8,1.2L10.3,14l3-0.5L11,0.7z"/>
	<path class="st0" d="M9.2,8.1l1,5.9l3-0.5l-1-5.9L9.2,8.1z M11.3,11.3c-0.3,0-0.5-0.1-0.6-0.4s0.1-0.5,0.4-0.6
		c0.3,0,0.5,0.1,0.6,0.4C11.8,11,11.6,11.2,11.3,11.3C11.3,11.3,11.3,11.3,11.3,11.3z"/>
</g>
</svg>
