<?xml version="1.0" encoding="iso-8859-1"?>
<!-- Generator: Adobe Illustrator 24.0.0, SVG Export Plug-In . SVG Version: 6.00 Build 0)  -->
<svg version="1.1" id="O" xmlns="http://www.w3.org/2000/svg" xmlns:xlink="http://www.w3.org/1999/xlink" x="0px" y="0px"
	 viewBox="0 0 16 16" style="enable-background:new 0 0 16 16;" xml:space="preserve">
<title>16</title>
<g id="_16">
	<path style="fill:#808080;" d="M7.08,1.62L4,6.22C3.845,6.449,3.905,6.76,4.134,6.914C4.221,6.973,4.325,7.003,4.43,7h6.14
		c0.276,0.009,0.507-0.208,0.516-0.484C11.089,6.411,11.059,6.307,11,6.22l-3.08-4.6C7.76,1.388,7.443,1.33,7.211,1.489
		C7.16,1.525,7.115,1.569,7.08,1.62z"/>
	<path style="fill:none;stroke:#808080;stroke-linecap:round;stroke-miterlimit:10;" d="M1.5,10.5c0,1.657,1.343,3,3,3l0,0
		c1.657,0,3-1.343,3-3v-7"/>
	<path style="fill:none;stroke:#808080;stroke-linecap:round;stroke-miterlimit:10;" d="M13.5,10.5c0,1.657-1.343,3-3,3l0,0
		c-1.657,0-3-1.343-3-3v-7"/>
</g>
</svg>
