<?xml version="1.0" encoding="iso-8859-1"?>
<!-- Generator: Adobe Illustrator 24.0.0, SVG Export Plug-In . SVG Version: 6.00 Build 0)  -->
<svg version="1.1" id="&#x56FE;&#x5C42;_1" xmlns="http://www.w3.org/2000/svg" xmlns:xlink="http://www.w3.org/1999/xlink" x="0px"
	 y="0px" viewBox="0 0 16 16" style="enable-background:new 0 0 16 16;" xml:space="preserve">
<title>16</title>
<g id="s">
	<g id="_16">
		<path style="fill:none;stroke:#808080;stroke-linecap:round;stroke-linejoin:round;" d="M8.31,11.41L4.83,14
			c-0.2,0.19-0.517,0.181-0.707-0.019C4.007,13.858,3.96,13.685,4,13.52L5,9.5C5.035,9.304,4.948,9.107,4.78,9l-3.2-2.61
			C1.365,6.217,1.33,5.903,1.503,5.687C1.599,5.567,1.746,5.498,1.9,5.5h3.89c0.219,0.001,0.414-0.141,0.48-0.35l1.28-3.93
			c0-0.276,0.224-0.5,0.5-0.5c0.276,0,0.5,0.224,0.5,0.5l1.45,4c0.072,0.198,0.259,0.33,0.47,0.33h3.74
			c0.276,0.003,0.498,0.229,0.495,0.505C14.704,6.199,14.64,6.336,14.53,6.43L11,9.38"/>
		<line style="fill:none;stroke:#808080;stroke-linecap:round;stroke-miterlimit:10;" x1="13.5" y1="11.5" x2="13.5" y2="15.5"/>
		<line style="fill:none;stroke:#808080;stroke-linecap:round;stroke-miterlimit:10;" x1="15.5" y1="13.5" x2="11.5" y2="13.5"/>
	</g>
</g>
</svg>
