<?xml version="1.0" encoding="iso-8859-1"?>
<!-- Generator: Adobe Illustrator 24.0.0, SVG Export Plug-In . SVG Version: 6.00 Build 0)  -->
<svg version="1.1" id="s" xmlns="http://www.w3.org/2000/svg" xmlns:xlink="http://www.w3.org/1999/xlink" x="0px" y="0px"
	 viewBox="0 0 16 16" style="enable-background:new 0 0 16 16;" xml:space="preserve">
<title>16</title>
<g id="_16">
	<path style="fill:none;stroke:#808080;stroke-linecap:round;stroke-miterlimit:10;" d="M7.5,1.5L1.9,5.7
		C1.648,5.889,1.5,6.185,1.5,6.5v7"/>
	<path style="fill:#808080;" d="M9,4.46c0.208,0.001,0.411,0.068,0.58,0.19l4,2.86c0.265,0.189,0.422,0.495,0.42,0.82V13
		c0,0.552-0.448,1-1,1H5c-0.552,0-1-0.448-1-1V8.33C3.998,8.005,4.155,7.699,4.42,7.51l4-2.86C8.589,4.528,8.792,4.461,9,4.46
		 M9,3.46C8.582,3.463,8.174,3.592,7.83,3.83l-4,2.87C3.307,7.078,2.997,7.685,3,8.33V13c0,1.105,0.895,2,2,2h8c1.105,0,2-0.895,2-2
		V8.33c0.003-0.645-0.307-1.252-0.83-1.63l-4-2.87C9.826,3.592,9.418,3.463,9,3.46z"/>
	<polyline style="fill:none;stroke:#808080;stroke-miterlimit:10;" points="14,14 9,10.3 4,14 	"/>
	<line style="fill:none;stroke:#808080;stroke-miterlimit:10;" x1="8.1" y1="11.1" x2="3.4" y2="7.3"/>
	<line style="fill:none;stroke:#808080;stroke-miterlimit:10;" x1="14.6" y1="7.3" x2="9.9" y2="11.1"/>
</g>
</svg>
