<?xml version="1.0" encoding="utf-8"?>
<!-- Generator: Adobe Illustrator 21.0.0, SVG Export Plug-In . SVG Version: 6.00 Build 0)  -->
<svg version="1.1" id="方向" xmlns="http://www.w3.org/2000/svg" xmlns:xlink="http://www.w3.org/1999/xlink" x="0px" y="0px"
	 viewBox="0 0 14 14" style="enable-background:new 0 0 14 14;" xml:space="preserve">
<style type="text/css">
	.st0{fill:#808080;}
</style>
<title>14</title>
<g id="_14">
	<polygon class="st0" points="4,13 4,8 2.2,9.7 1.5,8.9 3.8,6.7 3.8,6.7 4.5,6 4.5,6 4.5,6 5.2,6.7 5.2,6.7 7.5,8.9 6.8,9.7 5,8 
		5,13 	"/>
	<polygon class="st0" points="10,1 10,7 11.8,5.3 12.5,6.1 10.2,8.3 10.2,8.3 9.5,9 9.5,9 9.5,9 8.8,8.3 8.8,8.3 6.5,6.1 7.2,5.3 
		9,7 9,1 	"/>
</g>
</svg>
