<?xml version="1.0" encoding="iso-8859-1"?>
<!-- Generator: Adobe Illustrator 24.0.0, SVG Export Plug-In . SVG Version: 6.00 Build 0)  -->
<svg version="1.1" id="s" xmlns="http://www.w3.org/2000/svg" xmlns:xlink="http://www.w3.org/1999/xlink" x="0px" y="0px"
	 viewBox="0 0 16 16" style="enable-background:new 0 0 16 16;" xml:space="preserve">
<title>16</title>
<g id="_16">
	<path style="fill:#808080;" d="M13.82,8l-0.53,3.16c-0.079,0.489-0.505,0.846-1,0.84h-2.7l-0.72-1.29
		c-0.272-0.48-0.883-0.649-1.363-0.377c-0.157,0.089-0.288,0.22-0.377,0.377L6.41,12H3.69c-0.495,0.006-0.921-0.351-1-0.84L2.18,8
		H13.82 M14.41,7H1.59C1.314,7.002,1.092,7.227,1.094,7.504c0,0.026,0.002,0.051,0.006,0.076l0.62,3.75
		c0.163,0.974,1.012,1.684,2,1.67h2.69c0.364,0.003,0.701-0.192,0.88-0.51L8,11.2l0.71,1.29c0.179,0.318,0.516,0.513,0.88,0.51h2.72
		c0.988,0.014,1.837-0.696,2-1.67l0.62-3.75c0.045-0.273-0.14-0.53-0.413-0.574C14.482,7,14.446,6.998,14.41,7z"/>
	<polyline style="fill:none;stroke:#808080;stroke-linecap:round;stroke-linejoin:round;" points="6,3.5 5.07,3.5 1.5,7.5 	"/>
	<polyline style="fill:none;stroke:#808080;stroke-linecap:round;stroke-linejoin:round;" points="10,3.5 10.93,3.5 14.5,7.5 	"/>
</g>
</svg>
