<?xml version="1.0" encoding="utf-8"?>
<!-- Generator: Adobe Illustrator 21.0.0, SVG Export Plug-In . SVG Version: 6.00 Build 0)  -->
<svg version="1.1" id="gtk-spell-check" xmlns="http://www.w3.org/2000/svg" xmlns:xlink="http://www.w3.org/1999/xlink" x="0px"
	 y="0px" viewBox="0 0 14 14" style="enable-background:new 0 0 14 14;" xml:space="preserve">
<style type="text/css">
	.st0{fill:#808080;}
	.st1{fill:none;stroke:#61A232;stroke-width:0.5;stroke-miterlimit:10;}
</style>
<title>16</title>
<path class="st0" d="M0,9.6L3.3,1h1.2L8,9.6H6.7L5.7,7H2.2L1.3,9.6H0z M2.5,6.1h2.9L4.5,3.7C4.2,3,4,2.4,3.9,1.9
	C3.8,2.5,3.6,3,3.4,3.5L2.5,6.1z"/>
<path class="st0" d="M9.8,9.6h-1V1h1.1v3.1c0.4-0.5,1-0.9,1.7-0.8c0.4,0,0.7,0.1,1.1,0.2c0.3,0.1,0.6,0.4,0.8,0.7
	c0.2,0.3,0.4,0.6,0.5,1s0.2,0.8,0.2,1.3C14.3,7.4,14,8.3,13.4,9c-0.5,0.6-1.2,0.9-1.9,0.9S10.1,9.6,9.8,9V9.6z M9.8,6.4
	c0,0.5,0.1,1.1,0.3,1.6c0.4,0.7,1.3,1,2,0.6c0.2-0.1,0.4-0.2,0.5-0.4C13,7.7,13.1,7,13.1,6.4c0.1-0.6-0.1-1.3-0.5-1.8
	C12.4,4.3,11.9,4,11.5,4c-0.5,0-0.9,0.2-1.2,0.6C9.9,5.2,9.7,5.8,9.8,6.4L9.8,6.4z"/>
<polyline class="st1" points="0,13 2,11 4,13 6,11 8,13 10,11 12,13 14,11 "/>
</svg>
