<?xml version="1.0" encoding="iso-8859-1"?>
<!-- Generator: Adobe Illustrator 24.0.0, SVG Export Plug-In . SVG Version: 6.00 Build 0)  -->
<svg version="1.1" id="s" xmlns="http://www.w3.org/2000/svg" xmlns:xlink="http://www.w3.org/1999/xlink" x="0px" y="0px"
	 viewBox="0 0 16 16" style="enable-background:new 0 0 16 16;" xml:space="preserve">
<title>16</title>
<g id="_16">
	<path style="fill:#808080;" d="M10,2v1H6V2H10 M10,1H6C5.448,1,5,1.448,5,2v1c0,0.552,0.448,1,1,1h4c0.552,0,1-0.448,1-1V2
		C11,1.448,10.552,1,10,1z"/>
	<path style="fill:none;stroke:#808080;stroke-miterlimit:10;" d="M5,2.5H3.5c-0.552,0-1,0.448-1,1v10c0,0.552,0.448,1,1,1h9
		c0.552,0,1-0.448,1-1v-10c0-0.552-0.448-1-1-1H11"/>
	<line style="fill:none;stroke:#808080;stroke-linecap:round;stroke-miterlimit:10;" x1="7.5" y1="12.5" x2="11.5" y2="12.5"/>
	<line style="fill:none;stroke:#808080;stroke-linecap:round;stroke-miterlimit:10;" x1="7.5" y1="9.5" x2="11.5" y2="9.5"/>
	<line style="fill:none;stroke:#808080;stroke-linecap:round;stroke-miterlimit:10;" x1="7.5" y1="6.5" x2="11.5" y2="6.5"/>
	<circle style="fill:#808080;" cx="5" cy="6" r="1"/>
	<circle style="fill:#808080;" cx="5" cy="9" r="1"/>
	<circle style="fill:#808080;" cx="5" cy="12" r="1"/>
</g>
</svg>
