<?xml version="1.0" encoding="iso-8859-1"?>
<!-- Generator: Adobe Illustrator 24.0.0, SVG Export Plug-In . SVG Version: 6.00 Build 0)  -->
<svg version="1.1" id="s" xmlns="http://www.w3.org/2000/svg" xmlns:xlink="http://www.w3.org/1999/xlink" x="0px" y="0px"
	 viewBox="0 0 16 16" style="enable-background:new 0 0 16 16;" xml:space="preserve">
<title>16</title>
<g id="_16">
	<path style="fill:#808080;" d="M13,2c0.552,0,1,0.448,1,1v10c0,0.552-0.448,1-1,1H3c-0.552,0-1-0.448-1-1V3c0-0.552,0.448-1,1-1H13
		 M13,1H3C1.895,1,1,1.895,1,3v10c0,1.105,0.895,2,2,2h10c1.105,0,2-0.895,2-2V3C15,1.895,14.105,1,13,1z"/>
	<path style="fill:#808080;" d="M8,4c2.209,0,4,1.791,4,4s-1.791,4-4,4s-4-1.791-4-4S5.791,4,8,4 M8,3C5.239,3,3,5.239,3,8
		s2.239,5,5,5s5-2.239,5-5S10.761,3,8,3z"/>
	<path style="fill:none;stroke:#808080;stroke-linecap:round;stroke-miterlimit:10;" d="M5.5,8.5c0,1.105,0.895,2,2,2"/>
</g>
</svg>
