<?xml version="1.0" encoding="iso-8859-1"?>
<!-- Generator: Adobe Illustrator 24.0.0, SVG Export Plug-In . SVG Version: 6.00 Build 0)  -->
<svg version="1.1" id="s" xmlns="http://www.w3.org/2000/svg" xmlns:xlink="http://www.w3.org/1999/xlink" x="0px" y="0px"
	 viewBox="0 0 16 16" style="enable-background:new 0 0 16 16;" xml:space="preserve">
<title>16</title>
<g id="_16">
	<g id="_16-2">
		<path style="fill:#808080;" d="M12,7c0.552,0,1,0.448,1,1v5c0,0.552-0.448,1-1,1H4c-0.552,0-1-0.448-1-1V8c0-0.552,0.448-1,1-1H12
			 M12,6H4C2.895,6,2,6.895,2,8v5c0,1.105,0.895,2,2,2h8c1.105,0,2-0.895,2-2V8C14,6.895,13.105,6,12,6z"/>
	</g>
	<path style="fill:none;stroke:#808080;stroke-miterlimit:10;" d="M11.5,6.5V5c0-1.933-1.567-3.5-3.5-3.5S4.5,3.067,4.5,5v1.5"/>
	
		<line style="fill:none;stroke:#808080;stroke-width:2;stroke-linecap:round;stroke-miterlimit:10;" x1="8" y1="9.5" x2="8" y2="11.5"/>
</g>
</svg>
