<?xml version="1.0" encoding="utf-8"?>
<!-- Generator: Adobe Illustrator 21.0.0, SVG Export Plug-In . SVG Version: 6.00 Build 0)  -->
<svg version="1.1" id="视图" xmlns="http://www.w3.org/2000/svg" xmlns:xlink="http://www.w3.org/1999/xlink" x="0px" y="0px"
	 viewBox="0 0 14 14" style="enable-background:new 0 0 14 14;" xml:space="preserve">
<style type="text/css">
	.st0{fill:#808080;}
</style>
<title>14</title>
<g id="_14">
	<polygon class="st0" points="4,4 4,10 9,7 	"/>
	<rect y="2" class="st0" width="1" height="10"/>
	<path class="st0" d="M0,0v3h4V0H0z M3,2H1V1h2V2z"/>
	<path class="st0" d="M3,0v3h4V0H3z M6,2H4V1h2V2z"/>
	<path class="st0" d="M6,0v3h4V0H6z M9,2H7V1h2V2z"/>
	<path class="st0" d="M0,11v3h4v-3H0z M3,13H1v-1h2V13z"/>
	<path class="st0" d="M3,11v3h4v-3H3z M6,13H4v-1h2V13z"/>
	<path class="st0" d="M6,11v3h4v-3H6z M9,13H7v-1h2V13z"/>
	<rect x="12" y="2" class="st0" width="1" height="10"/>
	<path class="st0" d="M9,0v3h4V0H9z M12,2h-2V1h2V2z"/>
	<path class="st0" d="M9,11v3h4v-3H9z M12,13h-2v-1h2V13z"/>
</g>
</svg>
