<?xml version="1.0" encoding="iso-8859-1"?>
<!-- Generator: Adobe Illustrator 24.0.0, SVG Export Plug-In . SVG Version: 6.00 Build 0)  -->
<svg version="1.1" id="v" xmlns="http://www.w3.org/2000/svg" xmlns:xlink="http://www.w3.org/1999/xlink" x="0px" y="0px"
	 viewBox="0 0 16 16" style="enable-background:new 0 0 16 16;" xml:space="preserve">
<title>16</title>
<g id="_16">
	<path style="fill:#808080;" d="M13,3v3h-3V3H13 M6,3v3H3V3H6 M13,10v3h-3v-3H13 M6,10v3H3v-3H6 M13,2h-3C9.448,2,9,2.448,9,3v3
		c0,0.552,0.448,1,1,1h3c0.552,0,1-0.448,1-1V3C14,2.448,13.552,2,13,2z M6,2H3C2.448,2,2,2.448,2,3v3c0,0.552,0.448,1,1,1h3
		c0.552,0,1-0.448,1-1V3C7,2.448,6.552,2,6,2z M13,9h-3c-0.552,0-1,0.448-1,1v3c0,0.552,0.448,1,1,1h3c0.552,0,1-0.448,1-1v-3
		C14,9.448,13.552,9,13,9z M6,9H3c-0.552,0-1,0.448-1,1v3c0,0.552,0.448,1,1,1h3c0.552,0,1-0.448,1-1v-3C7,9.448,6.552,9,6,9z"/>
</g>
</svg>
