<?xml version="1.0" encoding="iso-8859-1"?>
<!-- Generator: Adobe Illustrator 24.0.0, SVG Export Plug-In . SVG Version: 6.00 Build 0)  -->
<svg version="1.1" id="v" xmlns="http://www.w3.org/2000/svg" xmlns:xlink="http://www.w3.org/1999/xlink" x="0px" y="0px"
	 viewBox="0 0 16 16" style="enable-background:new 0 0 16 16;" xml:space="preserve">
<title>16</title>
<g id="_16">
	<line style="fill:none;stroke:#808080;stroke-linecap:round;stroke-miterlimit:10;" x1="3.5" y1="14.5" x2="12.5" y2="14.5"/>
	<line style="fill:none;stroke:#808080;stroke-linecap:round;stroke-miterlimit:10;" x1="3.5" y1="12.5" x2="12.5" y2="12.5"/>
	<line style="fill:none;stroke:#808080;stroke-linecap:round;stroke-miterlimit:10;" x1="3.5" y1="4.5" x2="12.5" y2="4.5"/>
	<line style="fill:none;stroke:#808080;stroke-linecap:round;stroke-miterlimit:10;" x1="3.5" y1="2.5" x2="12.5" y2="2.5"/>
	<path style="fill:#808080;" d="M12.5,7C13.328,7,14,7.672,14,8.5S13.328,10,12.5,10h-9C2.672,10,2,9.328,2,8.5S2.672,7,3.5,7H12.5
		 M12.5,6h-9C2.119,6,1,7.119,1,8.5S2.119,11,3.5,11h9c1.381,0,2.5-1.119,2.5-2.5S13.881,6,12.5,6z"/>
</g>
</svg>
