<?xml version="1.0" encoding="utf-8"?>
<!-- Generator: Adobe Illustrator 24.0.0, SVG Export Plug-In . SVG Version: 6.00 Build 0)  -->
<svg version="1.1" id="gtk-media-stop" xmlns="http://www.w3.org/2000/svg" xmlns:xlink="http://www.w3.org/1999/xlink" x="0px"
	 y="0px" viewBox="0 0 16 16" style="enable-background:new 0 0 16 16;" xml:space="preserve">
<style type="text/css">
	.st0{opacity:0.75;}
	.st1{fill:#1F2022;}
</style>
<g class="st0">
	<path class="st1" d="M11,4c0.6,0,1,0.4,1,1v6c0,0.6-0.4,1-1,1H5c-0.6,0-1-0.4-1-1V5c0-0.6,0.4-1,1-1H11 M11,3H5C3.9,3,3,3.9,3,5v6
		c0,1.1,0.9,2,2,2h6c1.1,0,2-0.9,2-2V5C13,3.9,12.1,3,11,3L11,3z"/>
</g>
</svg>
