<?xml version="1.0" encoding="iso-8859-1"?>
<!-- Generator: Adobe Illustrator 24.0.0, SVG Export Plug-In . SVG Version: 6.00 Build 0)  -->
<svg version="1.1" id="w" xmlns="http://www.w3.org/2000/svg" xmlns:xlink="http://www.w3.org/1999/xlink" x="0px" y="0px"
	 viewBox="0 0 16 16" style="enable-background:new 0 0 16 16;" xml:space="preserve">
<title>16</title>
<g id="_16">
	<path style="fill:#808080;" d="M11,4c0.552,0,1,0.448,1,1v6c0,0.552-0.448,1-1,1H5c-0.552,0-1-0.448-1-1V5c0-0.552,0.448-1,1-1H11
		 M11,3H5C3.895,3,3,3.895,3,5v6c0,1.105,0.895,2,2,2h6c1.105,0,2-0.895,2-2V5C13,3.895,12.105,3,11,3z"/>
</g>
</svg>
