<svg id="gtk-zoom-out" xmlns="http://www.w3.org/2000/svg" viewBox="0 0 16 16"><defs><style>.cls-1{fill:#1f2022;opacity:0.75;isolation:isolate;}</style></defs><title>zoom-out-symbolic</title><rect class="cls-1" x="5" y="7" width="5" height="1"/><path class="cls-1" d="M12.4,11.7A6.26,6.26,0,0,0,14,7.5,6.5,6.5,0,1,0,7.5,14a6.26,6.26,0,0,0,4.2-1.6L14.3,15l.7-.7ZM7.5,13A5.55,5.55,0,0,1,2,7.5,5.55,5.55,0,0,1,7.5,2,5.55,5.55,0,0,1,13,7.5,5.39,5.39,0,0,1,11.7,11a4.62,4.62,0,0,1-.7.7A5.6,5.6,0,0,1,7.5,13Z"/></svg>