<?xml version="1.0" encoding="utf-8"?>
<!-- Generator: Adobe Illustrator 21.0.0, SVG Export Plug-In . SVG Version: 6.00 Build 0)  -->
<svg version="1.1" id="缩放" xmlns="http://www.w3.org/2000/svg" xmlns:xlink="http://www.w3.org/1999/xlink" x="0px" y="0px"
	 viewBox="0 0 14 14" style="enable-background:new 0 0 14 14;" xml:space="preserve">
<style type="text/css">
	.st0{fill:#808080;}
	.st1{fill:none;stroke:#2196F3;stroke-miterlimit:10;}
	.st2{fill:#2196F3;}
</style>
<title>14</title>
<g id="_14">
	<polygon class="st0" points="3,1 2,1 1,1 1,2 1,3 2,3 2,2 3,2 	"/>
	<rect x="4" y="1" class="st0" width="2" height="1"/>
	<rect x="8" y="1" class="st0" width="2" height="1"/>
	<polygon class="st0" points="11,1 12,1 13,1 13,2 13,3 12,3 12,2 11,2 	"/>
	<rect x="1" y="5" class="st0" width="1" height="2"/>
	<rect x="12" y="4" class="st0" width="1" height="2"/>
	<rect x="12" y="8" class="st0" width="1" height="2"/>
	<polygon class="st0" points="11,13 12,13 13,13 13,12 13,11 12,11 12,12 11,12 	"/>
	<g>
		<path class="st0" d="M5,9v3H2V9H5 M6,8H1v5h5V8L6,8z"/>
	</g>
	<rect x="7" y="12" class="st0" width="2" height="1"/>
	<line class="st1" x1="10" y1="4" x2="7" y2="7"/>
	<polygon class="st2" points="11,3 7,3 11,7 	"/>
</g>
</svg>
