<?xml version="1.0" encoding="utf-8"?>
<!-- Generator: Adobe Illustrator 23.0.3, SVG Export Plug-In . SVG Version: 6.00 Build 0)  -->
<svg version="1.1" id="gtk-zoom-100" xmlns="http://www.w3.org/2000/svg" xmlns:xlink="http://www.w3.org/1999/xlink" x="0px"
	 y="0px" viewBox="0 0 16 16" style="enable-background:new 0 0 16 16;" xml:space="preserve">
<style type="text/css">
	.st0{fill:#808080;}
</style>
<title>16</title>
<g>
	<path class="st0" d="M6,2C4.7,2,3.8,2,3.1,2.4C2.7,2.6,2.4,3,2.2,3.4C2.1,3.8,2,4.3,2,5v6c0,0.7,0.1,1.2,0.2,1.6
		c0.2,0.4,0.5,0.8,0.8,1C3.8,14,4.7,14,6,14h4c1.3,0,2.2,0,2.9-0.4c0.4-0.2,0.7-0.6,0.8-1c0.2-0.4,0.2-1,0.2-1.6V5
		c0-0.7-0.1-1.2-0.2-1.6c-0.2-0.4-0.4-0.8-0.8-1C12.2,2,11.3,2,10,2L6,2L6,2z M6,3h4c1.3,0,2.1,0.1,2.5,0.3c0.2,0.1,0.3,0.2,0.4,0.5
		S13,4.4,13,5v6c0,0.6-0.1,1-0.2,1.3c-0.1,0.3-0.2,0.4-0.4,0.5C12.1,12.9,11.3,13,10,13H6c-1.3,0-2.1-0.1-2.5-0.3
		c-0.2-0.1-0.3-0.2-0.4-0.5C3.1,12,3,11.6,3,11V5c0-0.6,0.1-1,0.2-1.3c0.1-0.3,0.2-0.4,0.4-0.5C3.9,3.1,4.7,3,6,3z"/>
	<path class="st0" d="M6.1,6.2C6.3,6.2,6.5,6.1,6.6,6C6.8,5.9,7,5.8,7.2,5.7c0.2-0.1,0.3-0.2,0.5-0.3C7.8,5.3,8,5.1,8.1,5H9v6H8V6.3
		C7.6,6.7,7,6.9,6.5,7.1L6.1,6.2z"/>
</g>
</svg>
