<?xml version="1.0" encoding="utf-8"?>
<!-- Generator: Adobe Illustrator 21.0.0, SVG Export Plug-In . SVG Version: 6.00 Build 0)  -->
<svg version="1.1" id="有线网络" xmlns="http://www.w3.org/2000/svg" xmlns:xlink="http://www.w3.org/1999/xlink" x="0px"
	 y="0px" viewBox="0 0 32 32" style="enable-background:new 0 0 32 32;" xml:space="preserve">
<style type="text/css">
	.st0{fill:#FFFFFF;}
	.st1{fill:#EA572A;}
</style>
<title>32</title>
<g id="_32">
	<polygon class="st0" points="3,9 20,9 20,8 2,8 2,25 15,25 15,29 10,29 10,30 18,30 18,29 16,29 16,25 16,25 16,24 3,24 	"/>
	<rect x="23" y="2" class="st0" width="1" height="4"/>
	<rect x="27" y="2" class="st0" width="1" height="4"/>
	<polygon class="st0" points="29,6 29,15 22,15 22,6 21,6 21,16 22,16 25,16 26,16 29,16 30,16 30,6 	"/>
	<rect x="21" y="6" class="st0" width="9" height="1"/>
	<rect x="25" y="9" class="st0" width="1" height="4"/>
	<rect x="23" y="20" class="st1" width="1" height="5"/>
	<rect x="23" y="26" class="st1" width="1" height="1"/>
	<path class="st1" d="M23.5,17c-3.6,0-6.5,2.9-6.5,6.5s2.9,6.5,6.5,6.5s6.5-2.9,6.5-6.5S27.1,17,23.5,17z M23.5,29
		c-3,0-5.5-2.5-5.5-5.5s2.5-5.5,5.5-5.5s5.5,2.5,5.5,5.5S26.5,29,23.5,29z"/>
</g>
</svg>
