<?xml version="1.0" encoding="utf-8"?>
<!-- Generator: Adobe Illustrator 21.0.0, SVG Export Plug-In . SVG Version: 6.00 Build 0)  -->
<svg version="1.1" id="有线网络" xmlns="http://www.w3.org/2000/svg" xmlns:xlink="http://www.w3.org/1999/xlink" x="0px"
	 y="0px" viewBox="0 0 32 32" style="enable-background:new 0 0 32 32;" xml:space="preserve">
<style type="text/css">
	.st0{opacity:0.2;}
	.st1{fill:#FFFFFF;}
</style>
<title>32</title>
<g id="_32">
	<g class="st0">
		<polygon class="st1" points="3,9 20,9 20,8 2,8 2,25 15,25 15,29 10,29 10,30 21,30 21,29 16,29 16,25 24,25 24,24 3,24 		"/>
		<rect x="23" y="2" class="st1" width="1" height="4"/>
		<rect x="27" y="2" class="st1" width="1" height="4"/>
		<polygon class="st1" points="29,6 29,15 22,15 22,6 21,6 21,16 22,16 25,16 25,30 26,30 26,16 29,16 30,16 30,6 		"/>
		<rect x="21" y="6" class="st1" width="9" height="1"/>
		<rect x="28" y="17" class="st1" width="1" height="8"/>
		<rect x="27" y="24" class="st1" width="2" height="1"/>
		<rect x="25" y="9" class="st1" width="1" height="4"/>
	</g>
	<rect x="5" y="14" class="st1" width="4" height="4"/>
	<rect x="14" y="14" class="st1" width="4" height="4"/>
	<rect x="23" y="14" class="st1" width="4" height="4"/>
</g>
</svg>
