<?xml version="1.0" encoding="utf-8"?>
<!-- Generator: Adobe Illustrator 21.0.0, SVG Export Plug-In . SVG Version: 6.00 Build 0)  -->
<svg version="1.1" id="图层_25" xmlns="http://www.w3.org/2000/svg" xmlns:xlink="http://www.w3.org/1999/xlink" x="0px" y="0px"
	 viewBox="0 0 32 32" style="enable-background:new 0 0 32 32;" xml:space="preserve">
<style type="text/css">
	.st0{fill:#FFFFFF;}
</style>
<title>32</title>
<g id="_32">
	<rect x="25" y="20" class="st0" width="3" height="1"/>
	<path class="st0" d="M29,23v-2h-1v2h-3v-2h-1v2h-1v5h7v-5H29z M29,27h-5v-3h5V27z"/>
	<path class="st0" d="M16,28c-1.6,0-2.9-1.3-2.9-2.9s1.3-2.9,2.9-2.9s2.9,1.3,2.9,2.9S17.6,28,16,28z M16,23.1
		c-1.1,0-1.9,0.9-1.9,1.9s0.8,2,1.9,2s1.9-0.9,1.9-1.9S17.1,23.1,16,23.1L16,23.1z"/>
	<path class="st0" d="M11.3,19.9c2.6-2.5,6.8-2.5,9.4,0l0.7-0.7c-3-2.9-7.8-2.9-10.8,0L11.3,19.9z"/>
	<path class="st0" d="M7,15.7c5-4.9,13-4.9,18,0l0.7-0.7c-5.4-5.3-14-5.3-19.4,0L7,15.7z"/>
	<path class="st0" d="M2.7,11.5c7.4-7.3,19.2-7.3,26.5,0l0.7-0.7c-7.8-7.7-20.2-7.7-28,0L2.7,11.5z"/>
</g>
</svg>
