<?xml version="1.0" encoding="utf-8"?>
<!-- Generator: Adobe Illustrator 21.0.0, SVG Export Plug-In . SVG Version: 6.00 Build 0)  -->
<svg version="1.1" id="图层_1" xmlns="http://www.w3.org/2000/svg" xmlns:xlink="http://www.w3.org/1999/xlink" x="0px" y="0px"
	 viewBox="0 0 32 32" style="enable-background:new 0 0 32 32;" xml:space="preserve">
<style type="text/css">
	.st0{fill:#FFFFFF;}
	.st1{fill:none;stroke:#FFFFFF;stroke-miterlimit:10;}
</style>
<g id="_32">
	<rect x="5" y="2" class="st0" width="23" height="1"/>
	<rect x="5" y="29" class="st0" width="23" height="1"/>
	<path class="st1" d="M8,2.5c-0.6,6.4,0.2,7.9,5,11.3c2.4,1.7,2.1,2.8,0,4.4C6,23.8,7.3,27,8.2,29.5h16.5c1.3-3.5,1.1-5.6-6-12
		c-1.1-1-0.6-2.1,1.5-4.1c5.2-4.6,5-7.9,4.8-10.9H8z"/>
	<polygon class="st0" points="11.4,8 21.4,8 16.4,13 	"/>
	<path class="st0" d="M7.7,29c0-4.2,5.1-5.4,8.8-5.4c3.9,0,8.6,1.2,8.9,5.4"/>
</g>
</svg>
