<?xml version="1.0" encoding="utf-8"?>
<!-- Generator: Adobe Illustrator 21.0.0, SVG Export Plug-In . SVG Version: 6.00 Build 0)  -->
<svg version="1.1" id="图层_15" xmlns="http://www.w3.org/2000/svg" xmlns:xlink="http://www.w3.org/1999/xlink" x="0px" y="0px"
	 viewBox="0 0 48 48" style="enable-background:new 0 0 48 48;" xml:space="preserve">
<style type="text/css">
	.st0{fill:#FFFFFF;}
</style>
<title>48</title>
<g id="_48">
	<rect x="35" y="26" class="st0" width="3" height="14"/>
	<rect x="35" y="43" class="st0" width="3" height="2"/>
	<path class="st0" d="M43.7,11.8L29.2,3L24,11.6l14.5,8.8L24.2,29h-0.4L9.5,20.3L24,11.6L18.8,3L4.3,11.8l5.2,8.5l-5.2,8.5L9,31.7
		V41l14,4h2l8-2.3v-2.1l-8,2.3V30.8l4.2,6.9l3.8-2.3V33l-3.1,1.9l-3.1-5.1L37.9,23l3.1,5.2l-1,0.6v2.3l3.7-2.3l-5.2-8.5L43.7,11.8z
		 M7,12.5l11.1-6.7l3.1,5.1l-11.1,6.7L7,12.5z M7,28.2l3.1-5.2l11.1,6.7l-3.1,5.1L7,28.2z M23,42.8l-12-3.4v-6.5l7.8,4.7l4.2-6.9
		V42.8z M37.9,17.6l-11.1-6.7l3.1-5.1L41,12.5L37.9,17.6z"/>
</g>
</svg>
