<?xml version="1.0" encoding="utf-8"?>
<!-- Generator: Adobe Illustrator 21.0.0, SVG Export Plug-In . SVG Version: 6.00 Build 0)  -->
<svg version="1.1" id="图层_15" xmlns="http://www.w3.org/2000/svg" xmlns:xlink="http://www.w3.org/1999/xlink" x="0px" y="0px"
	 viewBox="0 0 48 48" style="enable-background:new 0 0 48 48;" xml:space="preserve">
<style type="text/css">
	.st0{fill:#FFFFFF;}
</style>
<title>48</title>
<g id="_48">
	<polygon class="st0" points="23,29 23,42.8 11,39.4 11,31 9,31 9,41 23,45 25,45 25,29 	"/>
	<polygon class="st0" points="25,29 25,42.8 37,39.4 37,31 39,31 39,41 25,45 23,45 23,29 	"/>
	<path class="st0" d="M38.5,20.3l5.2,8.5l-14.5,8.8L24,29.1L38.5,20.3z M41,28.2L37.9,23l-11.1,6.8l3.1,5.1L41,28.2z"/>
	<path class="st0" d="M24,29.1l-5.2,8.6L4.3,28.9l5.2-8.6L24,29.1z M18.1,34.9l3.1-5.1L10.1,23L7,28.2L18.1,34.9z"/>
	<path class="st0" d="M24,11.6L29.2,3l14.5,8.8l-5.2,8.5L24,11.6z M29.9,5.8l-3.1,5.1l11.1,6.7l3.1-5.1L29.9,5.8z"/>
	<path class="st0" d="M9.5,20.4l-5.2-8.6L18.8,3l5.2,8.6L9.5,20.4z M7,12.5l3.1,5.1l11.1-6.7l-3.1-5.1L7,12.5z"/>
</g>
</svg>
