<?xml version="1.0" encoding="utf-8"?>
<!-- Generator: Adobe Illustrator 21.0.0, SVG Export Plug-In . SVG Version: 6.00 Build 0)  -->
<svg version="1.1" id="信息" xmlns="http://www.w3.org/2000/svg" xmlns:xlink="http://www.w3.org/1999/xlink" x="0px" y="0px"
	 viewBox="0 0 48 48" style="enable-background:new 0 0 48 48;" xml:space="preserve">
<style type="text/css">
	.st0{fill:#FFFFFF;}
</style>
<title>48</title>
<g id="_48">
	<rect x="12" y="18" class="st0" width="23" height="2"/>
	<rect x="12" y="24" class="st0" width="13" height="2"/>
	<path class="st0" d="M9,45V32.8c-3.6-3-5.7-7.5-5.8-12.1C3.2,10.9,12.4,3,23.7,3s20.5,7.9,20.5,17.7S35,38.4,23.7,38.4
		c-1.7,0-3.4-0.2-5-0.6L9,45z M23.7,4.9C13.5,4.9,5.2,12,5.2,20.7c0.1,4.3,2,8.3,5.2,11l0.6,0.5v9l7.2-5.4l0.4,0.1
		c1.6,0.4,3.3,0.6,5,0.6c10.2,0,18.5-7.1,18.5-15.8S33.9,4.9,23.7,4.9z"/>
	<circle class="st0" cx="38" cy="10.2" r="7"/>
</g>
</svg>
