<?xml version="1.0" encoding="utf-8"?>
<!-- Generator: Adobe Illustrator 21.0.0, SVG Export Plug-In . SVG Version: 6.00 Build 0)  -->
<svg version="1.1" id="图层_25" xmlns="http://www.w3.org/2000/svg" xmlns:xlink="http://www.w3.org/1999/xlink" x="0px" y="0px"
	 viewBox="0 0 48 48" style="enable-background:new 0 0 48 48;" xml:space="preserve">
<style type="text/css">
	.st0{fill:#FFFFFF;}
	.st1{opacity:0.2;fill:#FFFFFF;enable-background:new    ;}
</style>
<title>48</title>
<g id="_48">
	<rect x="37" y="27" class="st0" width="4" height="2"/>
	<path class="st0" d="M43,32v-3h-2v3h-4v-3h-2v3h-2v9h12v-9H43z M43,39h-8v-5h8V39z"/>
	<path class="st0" d="M24,40.8c-2.5,0-4.6-2-4.6-4.5s2-4.6,4.5-4.6s4.6,2,4.6,4.6l0,0C28.5,38.8,26.5,40.8,24,40.8z M24,33.8
		c-1.4,0-2.5,1.1-2.5,2.5s1.1,2.5,2.5,2.5s2.5-1.1,2.5-2.5l0,0C26.5,34.9,25.4,33.8,24,33.8z"/>
	<path class="st0" d="M16.9,29.8c3.5-3.9,9.6-4.2,13.5-0.6c0.2,0.2,0.4,0.4,0.6,0.6l1.4-1.4c-4.3-4.7-11.6-5-16.3-0.7
		c-0.2,0.2-0.5,0.4-0.7,0.7L16.9,29.8z"/>
	<path class="st0" d="M10.7,23.6c7-7.4,18.6-7.7,26-0.7c0.2,0.2,0.5,0.4,0.7,0.7l1.4-1.4C31,14,18.1,13.7,9.9,21.5
		c-0.2,0.2-0.5,0.4-0.7,0.7L10.7,23.6z"/>
	<path class="st1" d="M4.4,17.3C14.9,6.5,32.1,6.2,42.9,16.7c0.2,0.2,0.4,0.4,0.7,0.7L45,16C33.8,4.3,15.3,4,3.7,15.2
		c-0.2,0.2-0.4,0.4-0.7,0.7L4.4,17.3z"/>
</g>
</svg>
