<?xml version="1.0" encoding="utf-8"?>
<!-- Generator: Adobe Illustrator 21.0.0, SVG Export Plug-In . SVG Version: 6.00 Build 0)  -->
<svg version="1.1" id="图层_23" xmlns="http://www.w3.org/2000/svg" xmlns:xlink="http://www.w3.org/1999/xlink" x="0px" y="0px"
	 viewBox="0 0 48 48" style="enable-background:new 0 0 48 48;" xml:space="preserve">
<style type="text/css">
	.st0{fill:#FFFFFF;}
	.st1{fill:none;stroke:#FFFFFF;stroke-width:2;stroke-miterlimit:10;}
</style>
<title>48</title>
<g id="_48">
	<rect x="18" y="33" class="st0" width="12" height="2"/>
	<rect x="16" y="39" class="st0" width="15" height="2"/>
	<polygon class="st0" points="15.1,45 24,18.8 22.1,18.1 13,45 	"/>
	<polygon class="st0" points="31.9,36 25.9,18.1 24,18.8 29.8,36 	"/>
	<rect x="37" y="30" class="st0" width="4" height="2"/>
	<path class="st0" d="M43,36v-4h-2v4h-4v-4h-2v4h-2v9h12v-9H43z M43,43h-8v-5h8V43z"/>
	<circle class="st1" cx="24" cy="15.3" r="3"/>
	<path class="st0" d="M18,18.9c-1.3-2.2-1.3-5,0-7.2V8.6c-3.7,3.3-4,9-0.7,12.7c0.2,0.2,0.5,0.5,0.7,0.7V18.9z"/>
	<path class="st0" d="M30,8.6v3.1c1.3,2.2,1.3,5,0,7.2V22c3.7-3.3,4-9,0.7-12.7C30.5,9,30.2,8.8,30,8.6z"/>
	<path class="st0" d="M13,22.2c-2.7-4.2-2.7-9.6,0-13.8V5.1c-5.3,5.7-5.3,14.6,0,20.3V22.2z"/>
	<path class="st0" d="M35,5.1v3.3c2.7,4.2,2.7,9.6,0,13.8v3.3C40.3,19.7,40.3,10.8,35,5.1z"/>
	<path class="st0" d="M7,23.7C4.3,18.4,4.3,12.1,7,6.8V3c-5.3,7.3-5.3,17.2,0,24.6V23.7z"/>
	<path class="st0" d="M41,3v3.8c2.7,5.3,2.7,11.6,0,16.9v3.8C46.3,20.2,46.3,10.3,41,3z"/>
</g>
</svg>
