<?xml version="1.0" encoding="utf-8"?>
<!-- Generator: Adobe Illustrator 21.0.0, SVG Export Plug-In . SVG Version: 6.00 Build 0)  -->
<svg version="1.1" id="有线网络" xmlns="http://www.w3.org/2000/svg" xmlns:xlink="http://www.w3.org/1999/xlink" x="0px"
	 y="0px" viewBox="0 0 48 48" style="enable-background:new 0 0 48 48;" xml:space="preserve">
<style type="text/css">
	.st0{opacity:0.2;}
	.st1{fill:#FFFFFF;}
</style>
<title>48</title>
<g id="_48">
	<g class="st0">
		<polygon class="st1" points="5,13 29,13 29,11 3,11 3,37 22,37 22,43 15,43 15,45 31,45 31,43 24,43 24,37 35,37 35,35 5,35 		"/>
		<rect x="32" y="9" class="st1" width="13" height="2"/>
		<rect x="41" y="29" class="st1" width="2" height="8"/>
		<rect x="34" y="3" class="st1" width="2" height="6"/>
		<rect x="40" y="3" class="st1" width="2" height="6"/>
		<rect x="37" y="14" class="st1" width="2" height="6"/>
		<polygon class="st1" points="43,9 43,23 41,23 35,23 33,23 33,9 31,9 31,25 33,25 37,25 37,45 39,45 39,25 43,25 45,25 45,9 		"/>
	</g>
	<rect x="7" y="21" class="st1" width="6" height="6"/>
	<rect x="21" y="21" class="st1" width="6" height="6"/>
	<rect x="35" y="21" class="st1" width="6" height="6"/>
</g>
</svg>
