<?xml version="1.0" encoding="utf-8"?>
<!-- Generator: Adobe Illustrator 21.0.0, SVG Export Plug-In . SVG Version: 6.00 Build 0)  -->
<svg version="1.1" id="图层_18" xmlns="http://www.w3.org/2000/svg" xmlns:xlink="http://www.w3.org/1999/xlink" x="0px" y="0px"
	 viewBox="0 0 48 48" style="enable-background:new 0 0 48 48;" xml:space="preserve">
<style type="text/css">
	.st0{fill:#FFFFFF;}
</style>
<title>48</title>
<g id="_48">
	<path class="st0" d="M14,23v-2H7v2H3v22h15V23H14z M16,43H5V25h11V43z"/>
	<rect id="_20" x="6" y="39" class="st0" width="9" height="3"/>
	<rect id="_40" x="6" y="34.5" class="st0" width="9" height="7.5"/>
	<rect id="_60" x="6" y="32" class="st0" width="9" height="10"/>
	<rect x="29" y="7" class="st0" width="3" height="8"/>
	<path class="st0" d="M34,3.2V18h-7V3.2c-6.3,1-11,6.4-11,12.8v5h2v-5c0-4.5,2.8-8.6,7-10.2V20h11V5.8c4.2,1.6,7,5.7,7,10.2v16
		c0,6.1-4.9,11-11,11h-3c-3.6,0-6.9-1.8-9-4.7v3c2.4,2.3,5.6,3.7,9,3.7h3c7.2,0,13-5.8,13-13V16C45,9.6,40.3,4.2,34,3.2z"/>
</g>
</svg>
