<?xml version="1.0" encoding="utf-8"?>
<!-- Generator: Adobe Illustrator 21.0.0, SVG Export Plug-In . SVG Version: 6.00 Build 0)  -->
<svg version="1.1" id="zim" xmlns="http://www.w3.org/2000/svg" xmlns:xlink="http://www.w3.org/1999/xlink" x="0px" y="0px"
	 viewBox="0 0 48 48" style="enable-background:new 0 0 48 48;" xml:space="preserve">
<style type="text/css">
	.st0{fill:#FFFFFF;}
</style>
<title>48</title>
<path id="_48" class="st0" d="M39,21.5c-0.4,0-0.7,0-1.1,0.1H38V10H26.4v0.1c0.1-0.4,0.1-0.7,0.1-1.1c0-3.3-2.7-6-6-6s-6,2.7-6,6
	c0,0.4,0,0.7,0.1,1.1V10H3v14.9c1.4-1.7,4-1.8,5.6-0.4c1.7,1.4,1.8,4,0.4,5.6s-4,1.8-5.6,0.4c-0.1-0.1-0.3-0.3-0.4-0.4V45h14.9
	c-1.7-1.4-1.8-4-0.4-5.6c1.4-1.7,4-1.8,5.6-0.4c1.7,1.4,1.8,4,0.4,5.6c-0.1,0.1-0.3,0.3-0.4,0.4H38V33.4h-0.1
	c0.4,0.1,0.7,0.1,1.1,0.1c3.3,0,6-2.7,6-6S42.3,21.5,39,21.5z M39,31.5c-1.2,0-2.2-0.5-3-1.4V43h-9.6v0.1c0.1-0.4,0.1-0.7,0.1-1.1
	c0-3.3-2.7-6-6-6s-6,2.7-6,6c0,0.4,0,0.7,0.1,1.1V43H5v-9.6H4.9c0.4,0.1,0.7,0.1,1.1,0.1c3.3,0,6-2.7,6-6s-2.7-6-6-6
	c-0.4,0-0.7,0-1.1,0.1H5V12h12.9c-1.7-1.4-1.8-4-0.4-5.6c1.4-1.7,4-1.8,5.6-0.4s1.8,4,0.4,5.6c-0.1,0.1-0.3,0.3-0.4,0.4H36v12.9
	c1.4-1.7,4-1.8,5.6-0.4c1.7,1.4,1.8,4,0.4,5.6C41.3,31,40.2,31.5,39,31.5z M37.1,33.2l-0.2-0.1L37.1,33.2z M26.1,44.2l0.1-0.2
	L26.1,44.2z M14.9,44.2L14.8,44L14.9,44.2z M3.9,33.2l0.2,0.1L3.9,33.2z M3.9,22l0.2-0.1L3.9,22z M14.9,11l0.1,0.2L14.9,11z
	 M26.2,11l-0.1,0.2L26.2,11z M37.1,21.8l-0.2,0.1L37.1,21.8z"/>
</svg>
