<svg id="window-restore-symbolic" xmlns="http://www.w3.org/2000/svg" viewBox="0 0 16 16"><defs><style>.cls-1{fill:#1f2022;opacity:0.75;}</style></defs><title>window-restore-symbolic</title><path class="cls-1" d="M8.54,5H5A2.68,2.68,0,0,0,3,7.5v3A2.48,2.48,0,0,0,5.46,13h3A2.68,2.68,0,0,0,11,11V7.5A2.48,2.48,0,0,0,8.54,5Zm0,7h-3A1.54,1.54,0,0,1,4,10.5v-3A1.51,1.51,0,0,1,5,6.1.87.87,0,0,1,5.5,6h3A1.54,1.54,0,0,1,10,7.5v3a.87.87,0,0,1-.1.5A1.42,1.42,0,0,1,8.5,12Z"/><path class="cls-1" d="M13,5.5v3A2.42,2.42,0,0,1,11,11V9.9a1.42,1.42,0,0,0,1-1.4v-3A1.54,1.54,0,0,0,10.5,4h-3A1.51,1.51,0,0,0,6.1,5H5A2.68,2.68,0,0,1,7.5,3h3A2.48,2.48,0,0,1,13,5.5Z"/></svg>