<?xml version="1.0" encoding="utf-8"?>
<!-- Generator: Adobe Illustrator 21.0.0, SVG Export Plug-In . SVG Version: 6.00 Build 0)  -->
<svg version="1.1" id="图层_39" xmlns="http://www.w3.org/2000/svg" xmlns:xlink="http://www.w3.org/1999/xlink" x="0px" y="0px"
	 viewBox="0 0 64 64" style="enable-background:new 0 0 64 64;" xml:space="preserve">
<style type="text/css">
	.st0{opacity:0.1;enable-background:new    ;}
	.st1{opacity:0.08;enable-background:new    ;}
	.st2{opacity:0.2;enable-background:new    ;}
	.st3{fill:#F57F17;}
	.st4{fill:url(#SVGID_1_);}
	.st5{fill:url(#rect2990_1_);}
	.st6{opacity:0.25;fill:#FDEFBA;enable-background:new    ;}
	.st7{opacity:0.1;fill:#E65100;enable-background:new    ;}
	.st8{opacity:0.05;fill:#E65100;enable-background:new    ;}
	.st9{fill:#F57F17;fill-opacity:0.39;}
</style>
<title>folder-saved-search64</title>
<g id="_64">
	<polygon class="st0" points="3,59 3,18 6.5,18 6.5,6.5 21.5,6.5 25.5,10.5 59.5,10.5 59.5,18 63,18 63,59 	"/>
	<polygon class="st1" points="2,60 2,17 5.5,17 5.5,6 22.5,6 26,9.5 60.5,9.5 60.5,17 64,17 64,60 	"/>
	<polygon class="st2" points="2,58 2,17 5.5,17 5.5,6 21,6 24.5,9.5 58.5,9.5 58.5,17 62,17 62,58 	"/>
	<polygon class="st3" points="3,57 3,18 6.5,18 6.5,7 20.5,7 24,10.5 57.5,10.5 57.5,18 61,18 61,57 	"/>
	
		<linearGradient id="SVGID_1_" gradientUnits="userSpaceOnUse" x1="-840" y1="481.54" x2="-840" y2="488.47" gradientTransform="matrix(2 0 0 -2 1712 984.44)">
		<stop  offset="0" style="stop-color:#F57C00"/>
		<stop  offset="0.16" style="stop-color:#F58F09"/>
		<stop  offset="0.36" style="stop-color:#F59D11"/>
		<stop  offset="0.6" style="stop-color:#F5A515"/>
		<stop  offset="0.99" style="stop-color:#F5A816"/>
	</linearGradient>
	<path class="st4" d="M57,11H23.5L20,7.5H7v12c0,1.1,0.9,1.9,1.9,1.9l0,0h46.2c1,0,1.9,0.1,1.9-0.9V11z"/>
	
		<linearGradient id="rect2990_1_" gradientUnits="userSpaceOnUse" x1="-840" y1="482.97" x2="-840" y2="463.97" gradientTransform="matrix(2 0 0 -2 1712 984.44)">
		<stop  offset="0" style="stop-color:#FADD60"/>
		<stop  offset="0.99" style="stop-color:#F5A816"/>
	</linearGradient>
	<polyline id="rect2990" class="st5" points="60.5,18.5 60.5,56.5 3.5,56.5 3.5,18.5 	"/>
	<path id="rect3004" class="st6" d="M3.5,18.5v8c0-2.7,1.7-5,3.8-5h49.4c2.1,0,3.8,2.3,3.8,5v-8H3.5z"/>
	<path id="path3801" class="st7" d="M7,7.7V11c0-1.7,1.1-1.7,2.1-1.7h10.3c0.9-0.1,1.9,0.2,2.6,0.7c0.5,0.3,0.9,0.7,1.5,1L20,7.5H7
		V7.7z"/>
	<polygon class="st7" points="23.5,11 57,11 57,14 26.5,14 	"/>
	<rect x="7" y="16.5" class="st8" width="50" height="2"/>
</g>
<path class="st9" d="M29.7,27c-2.3,1-4.2,2.9-5.1,5.3c-1.5,3.5-1,7.5,1.2,10.6L19,49.8l0,0l2.2,2.2l0,0l6.8-6.8
	c3,2.2,6.9,2.7,10.4,1.3c2.6-1,4.7-3,5.7-5.6c2.3-5.4-0.2-11.7-5.6-14.1C35.7,25.7,32.5,25.7,29.7,27z M34.4,44.6
	c-4.4,0-7.9-3.5-7.9-7.9s3.5-7.9,7.9-7.9s7.9,3.5,7.9,7.9C42.3,41,38.7,44.5,34.4,44.6L34.4,44.6z"/>
</svg>
