<?xml version="1.0" encoding="utf-8"?>
<!-- Generator: Adobe Illustrator 21.0.0, SVG Export Plug-In . SVG Version: 6.00 Build 0)  -->
<svg version="1.1" id="图层_39" xmlns="http://www.w3.org/2000/svg" xmlns:xlink="http://www.w3.org/1999/xlink" x="0px" y="0px"
	 viewBox="0 0 64 64" style="enable-background:new 0 0 64 64;" xml:space="preserve">
<style type="text/css">
	.st0{opacity:0.1;enable-background:new    ;}
	.st1{opacity:0.08;enable-background:new    ;}
	.st2{opacity:0.2;enable-background:new    ;}
	.st3{fill:#F57F17;}
	.st4{fill:url(#SVGID_1_);}
	.st5{fill:url(#rect2990_1_);}
	.st6{opacity:0.25;fill:#FDEFBA;enable-background:new    ;}
	.st7{opacity:0.1;fill:#E65100;enable-background:new    ;}
	.st8{opacity:0.05;fill:#E65100;enable-background:new    ;}
	.st9{opacity:0.39;fill:#F57F17;enable-background:new    ;}
</style>
<title>folder-recent64</title>
<g id="_64">
	<polygon class="st0" points="3,59 3,18 6.5,18 6.5,6.5 21.5,6.5 25.5,10.5 59.5,10.5 59.5,18 63,18 63,59 	"/>
	<polygon class="st1" points="2,60 2,17 5.5,17 5.5,6 22.5,6 26,9.5 60.5,9.5 60.5,17 64,17 64,60 	"/>
	<polygon class="st2" points="2,58 2,17 5.5,17 5.5,6 21,6 24.5,9.5 58.5,9.5 58.5,17 62,17 62,58 	"/>
	<polygon class="st3" points="3,57 3,18 6.5,18 6.5,7 20.5,7 24,10.5 57.5,10.5 57.5,18 61,18 61,57 	"/>
	
		<linearGradient id="SVGID_1_" gradientUnits="userSpaceOnUse" x1="-840" y1="481.54" x2="-840" y2="488.47" gradientTransform="matrix(2 0 0 -2 1712 984.44)">
		<stop  offset="0" style="stop-color:#F57C00"/>
		<stop  offset="0.16" style="stop-color:#F58F09"/>
		<stop  offset="0.36" style="stop-color:#F59D11"/>
		<stop  offset="0.6" style="stop-color:#F5A515"/>
		<stop  offset="0.99" style="stop-color:#F5A816"/>
	</linearGradient>
	<path class="st4" d="M57,11H23.5L20,7.5H7v12c0,1.1,0.9,1.9,1.9,1.9l0,0h46.2c1,0,1.9,0.1,1.9-0.9V11z"/>
	
		<linearGradient id="rect2990_1_" gradientUnits="userSpaceOnUse" x1="-840" y1="482.97" x2="-840" y2="463.97" gradientTransform="matrix(2 0 0 -2 1712 984.44)">
		<stop  offset="0" style="stop-color:#FADD60"/>
		<stop  offset="0.99" style="stop-color:#F5A816"/>
	</linearGradient>
	<polyline id="rect2990" class="st5" points="60.5,18.5 60.5,56.5 3.5,56.5 3.5,18.5 	"/>
	<path id="rect3004" class="st6" d="M3.5,18.5v8c0-2.7,1.7-5,3.8-5h49.4c2.1,0,3.8,2.3,3.8,5v-8H3.5z"/>
	<path id="path3801" class="st7" d="M7,7.7V11c0-1.7,1.1-1.7,2.1-1.7h10.3c0.9-0.1,1.9,0.2,2.6,0.7c0.5,0.3,0.9,0.7,1.5,1L20,7.5H7
		V7.7z"/>
	<polygon class="st7" points="23.5,11 57,11 57,14 26.5,14 	"/>
	<rect x="7" y="16.5" class="st8" width="50" height="2"/>
</g>
<g id="recent">
	<polygon class="st9" points="36.5,43.2 31,40 31,31.2 32.9,31.2 32.9,38.9 37.5,41.5 	"/>
	<path class="st9" d="M32,26c-3.1,0-6.1,1.1-8.5,3.1L20.4,26v7.9h7.9L25,30.6c4.6-3.9,11.5-3.3,15.3,1.3s3.3,11.5-1.3,15.3
		S27.6,50.6,23.7,46c-1.6-2-2.6-4.4-2.6-7c0-0.8,0.1-1.5,0.2-2.3h-2.2c0,0.8-0.1,1.5-0.1,2.3c0,7.2,5.8,13,13,13s13-5.8,13-13
		S39.2,26,32,26z"/>
</g>
</svg>
