<?xml version="1.0" encoding="UTF-8"?>
<svg width="65px" height="64px" viewBox="0 0 65 64" version="1.1" xmlns="http://www.w3.org/2000/svg" xmlns:xlink="http://www.w3.org/1999/xlink">
    <!-- Generator: Sketch 64 (93537) - https://sketch.com -->
    <title>100-晴-SunnyClear</title>
    <desc>Created with Sketch.</desc>
    <g id="100-晴-SunnyClear" stroke="none" stroke-width="1" fill="none" fill-rule="evenodd" transform="translate(1.000000, 0.000000)">
        <g transform="translate(3.000000, 3.000000)" fill-rule="nonzero">
            <circle id="椭圆形" fill="#FFC819" cx="29" cy="29" r="13.76"></circle>
            <path d="M9.71,30.44 L1.47,30.44 C0.702348863,30.3767391 0.111552458,29.7352533 0.111552458,28.965 C0.111552458,28.1947467 0.702348863,27.5532609 1.47,27.49 L9.71,27.49 C10.2659608,27.4441841 10.8004526,27.7148704 11.0925096,28.1901536 C11.3845667,28.6654368 11.3845667,29.2645632 11.0925096,29.7398464 C10.8004526,30.2151296 10.2659608,30.4858159 9.71,30.44 L9.71,30.44 Z" id="路径" fill="#FFE317"></path>
            <path d="M56.53,30.51 L48.53,30.51 C47.7623489,30.4467391 47.1715525,29.8052533 47.1715525,29.035 C47.1715525,28.2647467 47.7623489,27.6232609 48.53,27.56 L56.53,27.56 C57.2976511,27.6232609 57.8884475,28.2647467 57.8884475,29.035 C57.8884475,29.8052533 57.2976511,30.4467391 56.53,30.51 L56.53,30.51 Z" id="路径" fill="#FFE317"></path>
            <path d="M29,58 C28.1865079,58 27.5254966,57.3434735 27.52,56.53 L27.52,48.41 C27.4741841,47.8540392 27.7448704,47.3195474 28.2201536,47.0274904 C28.6954368,46.7354333 29.2945632,46.7354333 29.7698464,47.0274904 C30.2451296,47.3195474 30.5158159,47.8540392 30.47,48.41 L30.47,56.53 C30.47,56.9198682 30.3151254,57.2937685 30.039447,57.569447 C29.7637685,57.8451254 29.3898682,58 29,58 Z" id="路径" fill="#FFE317"></path>
            <path d="M29,11.07 C28.6083929,11.07 28.2329692,10.9137625 27.9570015,10.6359175 C27.6810337,10.3580724 27.527336,9.98159799 27.53,9.59 L27.53,1.47 C27.5932609,0.702348863 28.2347467,0.111552458 29.005,0.111552458 C29.7752533,0.111552458 30.4167391,0.702348863 30.48,1.47 L30.48,9.59 C30.48,10.4073814 29.8173814,11.07 29,11.07 L29,11.07 Z" id="路径" fill="#FFE317"></path>
            <line x1="9.56" y1="9.52" x2="15.35" y2="15.31" id="路径" fill="#FFE317"></line>
            <path d="M15.35,16.78 C14.9734731,16.7719721 14.6148418,16.6177607 14.35,16.35 L8.56,10.56 C7.98286245,9.98562386 7.98062388,9.05213757 8.55500002,8.47500002 C9.12937615,7.89786246 10.0628624,7.89562387 10.64,8.47 L16.43,14.26 C16.7090915,14.5361174 16.8661359,14.9124024 16.8661359,15.305 C16.8661359,15.6975976 16.7090915,16.0738826 16.43,16.35 C16.1464184,16.6387278 15.7544296,16.7947974 15.35,16.78 L15.35,16.78 Z" id="路径" fill="#FFE317"></path>
            <line x1="42.77" y1="42.81" x2="48.44" y2="48.48" id="路径" fill="#FFE317"></line>
            <path d="M48.44,50 C48.0634731,49.9919721 47.7048418,49.8377607 47.44,49.57 L41.77,43.9 C41.3966574,43.5284438 41.2498976,42.9859358 41.3850034,42.4768336 C41.5201093,41.9677313 41.916555,41.5693796 42.4250034,41.4318336 C42.9334518,41.2942875 43.4766575,41.4384438 43.85,41.81 L49.52,47.48 C49.7990915,47.7561174 49.9561359,48.1324024 49.9561359,48.525 C49.9561359,48.9175976 49.7990915,49.2938826 49.52,49.57 C49.2364184,49.8587278 48.8444296,50.0147974 48.44,50 Z" id="路径" fill="#FFE317"></path>
            <line x1="9.52" y1="48.44" x2="15.25" y2="42.71" id="路径" fill="#FFE317"></line>
            <path d="M9.51,49.92 C8.92266355,49.8993156 8.40321378,49.5330705 8.18644306,48.9868083 C7.96967234,48.4405461 8.09665711,47.8177794 8.51,47.4 L14.24,41.67 C14.8143761,41.0928625 15.7478624,41.0906239 16.325,41.665 C16.9021375,42.2393762 16.9043761,43.1728624 16.33,43.75 L10.6,49.48 C10.312316,49.7698415 9.91827802,49.9289027 9.51,49.92 L9.51,49.92 Z" id="路径" fill="#FFE317"></path>
            <line x1="42.69" y1="15.35" x2="48.48" y2="9.56" id="路径" fill="#FFE317"></line>
            <path d="M42.69,16.83 C42.3127504,16.8162348 41.9550197,16.6588332 41.69,16.39 C41.4115025,16.115601 41.2546951,15.7409676 41.2546951,15.35 C41.2546951,14.9590324 41.4115025,14.584399 41.69,14.31 L47.48,8.52 C47.8515562,8.14665743 48.3940642,7.99989755 48.9031664,8.1350034 C49.4122687,8.27010924 49.8106205,8.66655502 49.9481665,9.17500343 C50.0857125,9.68345183 49.9415562,10.2266575 49.57,10.6 L43.78,16.39 C43.492316,16.6798415 43.098278,16.8389027 42.69,16.83 Z" id="路径" fill="#FFE317"></path>
        </g>
    </g>
</svg>