<?xml version="1.0" encoding="utf-8"?>
<!-- Generator: Adobe Illustrator 24.0.0, SVG Export Plug-In . SVG Version: 6.00 Build 0)  -->
<svg version="1.1" id="图层_2_1_" xmlns="http://www.w3.org/2000/svg" xmlns:xlink="http://www.w3.org/1999/xlink" x="0px"
	 y="0px" viewBox="0 0 16 16" style="enable-background:new 0 0 16 16;" xml:space="preserve">
<style type="text/css">
	.st0{opacity:0.75;}
	.st1{fill:#1F2022;}
</style>
<g class="st0">
	<path class="st1" d="M8,5c1.7,0,3,1.3,3,3s-1.3,3-3,3S5,9.7,5,8S6.3,5,8,5 M8,4C5.8,4,4,5.8,4,8s1.8,4,4,4s4-1.8,4-4S10.2,4,8,4
		L8,4z"/>
	<path class="st1" d="M2.3,1.9c-0.2-0.2-0.5-0.2-0.7,0s-0.2,0.5,0,0.7L2.8,4c0.1,0.1,0.2,0.1,0.4,0.1s0.3,0,0.4-0.1
		c0.2-0.2,0.2-0.5,0-0.7L2.3,1.9z"/>
	<path class="st1" d="M12.8,4c0.1,0,0.2,0,0.3-0.1l1.3-1.2c0.2-0.2,0.2-0.5,0-0.7c-0.2-0.2-0.5-0.2-0.7,0l-1.3,1.2
		c-0.2,0.2-0.2,0.5,0,0.7C12.5,3.9,12.7,4,12.8,4z"/>
	<path class="st1" d="M2.8,11.3l-1.3,1.3c-0.2,0.2-0.2,0.5,0,0.7c0.1,0.1,0.2,0.1,0.4,0.1s0.3,0,0.4-0.1l1.3-1.3
		c0.2-0.2,0.2-0.5,0-0.7S3,11.2,2.8,11.3z"/>
	<path class="st1" d="M13.1,11.4c-0.2-0.2-0.5-0.2-0.7,0c-0.2,0.2-0.2,0.5,0,0.7l1.3,1.2c0.1,0.1,0.2,0.1,0.3,0.1
		c0.1,0,0.3-0.1,0.4-0.2c0.2-0.2,0.2-0.5,0-0.7L13.1,11.4z"/>
	<path class="st1" d="M7.5,0C7.2,0,7,0.2,7,0.5v1.6c0,0.3,0.2,0.5,0.5,0.5S8,2.4,8,2.1V0.5C8,0.2,7.8,0,7.5,0z"/>
	<path class="st1" d="M7.5,13.4c-0.3,0-0.5,0.2-0.5,0.5v1.6C7,15.8,7.2,16,7.5,16S8,15.8,8,15.5v-1.6C8,13.6,7.8,13.4,7.5,13.4z"/>
	<path class="st1" d="M2.6,8.5C2.6,8.2,2.4,8,2.1,8H0.5C0.2,8,0,8.2,0,8.5S0.2,9,0.5,9h1.6C2.4,9,2.6,8.8,2.6,8.5z"/>
	<path class="st1" d="M15.5,8h-1.6c-0.3,0-0.5,0.2-0.5,0.5S13.6,9,13.9,9h1.6C15.8,9,16,8.8,16,8.5S15.8,8,15.5,8z"/>
</g>
</svg>
