<?xml version="1.0" encoding="UTF-8"?>
<svg width="64px" height="64px" viewBox="0 0 64 64" version="1.1" xmlns="http://www.w3.org/2000/svg" xmlns:xlink="http://www.w3.org/1999/xlink">
    <!-- Generator: Sketch 64 (93537) - https://sketch.com -->
    <title>104-阴-Overcast</title>
    <desc>Created with Sketch.</desc>
    <g id="104-阴-Overcast" stroke="none" stroke-width="1" fill="none" fill-rule="evenodd">
        <g transform="translate(2.000000, 12.000000)" fill-rule="nonzero">
            <g id="锁屏title_深" transform="translate(9.000000, 10.000000)" fill="#8C8C8C">
                <g id="锁屏title">
                    <g id="编组-2">
                        <g id="天气图标">
                            <g id="天气_样式1">
                                <g id="天气">
                                    <path d="M8.79,30 C3.93,30 0,26.36 0,21.87 C0,17.38 3.93,13.73 8.79,13.73 L8.79,13.73 C8.79,13.58 8.79,13.43 8.79,13.28 C8.79,6 15.22,0 23.14,0 C28.2965791,-0.0733809193 33.1062069,2.59017882 35.78,7 C36.3500298,6.92289706 36.9247923,6.88613899 37.5,6.89 C44.4,6.89 50,12.07 50,18.45 C50,24.83 44.4,30 37.5,30 L8.79,30 Z" id="路径"></path>
                                </g>
                            </g>
                        </g>
                    </g>
                </g>
            </g>
            <g id="锁屏title_深-2" opacity="0.95" fill="#DBDBDB">
                <g id="锁屏title-2">
                    <g id="编组-2-2">
                        <g id="天气图标-2">
                            <g id="天气_样式1-2">
                                <g id="天气-2">
                                    <path d="M9.79,33 C6.62047949,33.107627 3.64455579,31.4781241 2.02790907,28.7497735 C0.411262354,26.0214228 0.411262354,22.6285772 2.02790907,19.9002265 C3.64455579,17.1718759 6.62047949,15.542373 9.79,15.65 L9.79,15.65 C9.79,15.49 9.79,15.33 9.79,15.17 C9.88079169,8.63827092 14.3598343,2.98713303 20.6982576,1.40722233 C27.036681,-0.17268837 33.6441157,2.71504238 36.79,8.44 C37.3600298,8.36289706 37.9347923,8.32613899 38.51,8.33 C43.000658,8.20396008 47.2050252,10.5283373 49.4864833,14.3983302 C51.7679414,18.268323 51.7659941,23.0724285 49.4813993,26.9405705 C47.1968046,30.8087125 42.9905544,33.1296805 38.5,33 L9.79,33 Z" id="路径-2"></path>
                                </g>
                            </g>
                        </g>
                    </g>
                </g>
            </g>
        </g>
    </g>
</svg>