<?xml version="1.0" encoding="utf-8"?>
<!-- Generator: Adobe Illustrator 21.0.0, SVG Export Plug-In . SVG Version: 6.00 Build 0)  -->
<svg version="1.1" id="图层_1" opacity="0.8" xmlns="http://www.w3.org/2000/svg" xmlns:xlink="http://www.w3.org/1999/xlink"
	 x="0px" y="0px" viewBox="0 0 16 16" style="enable-background:new 0 0 16 16;" xml:space="preserve">
<style type="text/css">
	.st0{fill:none;stroke:#202020;stroke-linecap:round;stroke-miterlimit:10;}
	.st1{fill:none;stroke:#202020;stroke-width:0.5;stroke-linecap:round;stroke-linejoin:round;stroke-miterlimit:10;}
	.st2{fill:none;stroke:#202020;stroke-linecap:round;stroke-linejoin:round;stroke-miterlimit:10;}
	.st3{fill:#202020;}
</style>
<g id="图层_5">
	<path class="st0" d="M10.5,9.5L2.2,8.3c-1-0.2-1.7-1-1.7-2V5.7c0-1,0.7-1.8,1.7-2l8.3-1.2"/>
	<path class="st0" d="M7,8.6C6.7,7.9,6.5,6.9,6.5,6S6.7,4.1,7,3.4"/>
	<path class="st0" d="M3.8,8.4C3.6,7.8,3.5,6.7,3.5,6s0.1-1.8,0.3-2.4"/>
	<path class="st0" d="M11.5,6c0,2.5-0.4,3.5-1,3.5s-1-1-1-3.5s0.4-3.5,1-3.5c0.4,0,0.7,0.5,0.9,1.5C11.5,4.5,11.5,5.2,11.5,6z"/>
</g>
<g id="图层_6">
	<polyline class="st1" points="11.5,4.5 14,6 11.5,7.5 11.5,4.5 	"/>
	<line class="st2" x1="14.5" y1="2.5" x2="14.5" y2="15.5"/>
	<line class="st2" x1="13.5" y1="15.5" x2="15.5" y2="15.5"/>
	<circle class="st3" cx="14.5" cy="1.5" r="1.5"/>
</g>
</svg>
