<?xml version="1.0" encoding="UTF-8"?>
<svg width="64px" height="64px" viewBox="0 0 64 64" version="1.1" xmlns="http://www.w3.org/2000/svg" xmlns:xlink="http://www.w3.org/1999/xlink">
    <!-- Generator: Sketch 64 (93537) - https://sketch.com -->
    <title>212-龙卷风-Tornado</title>
    <desc>Created with Sketch.</desc>
    <g id="212-龙卷风-Tornado" stroke="none" stroke-width="1" fill="none" fill-rule="evenodd">
        <g transform="translate(5.000000, 6.000000)" fill="#FFFFFF" fill-rule="nonzero" id="路径">
            <path d="M51.92,4 L2.08,4 C1.53584636,4.02178375 1.00634004,3.82072652 0.613781927,3.4432668 C0.221223814,3.06580707 -6.41555545e-07,2.54458932 -6.41555545e-07,2 C-6.41555545e-07,1.45541068 0.221223814,0.934192928 0.613781927,0.556733204 C1.00634004,0.17927348 1.53584636,-0.0217837541 2.08,0 L51.92,0 C52.4641536,-0.0217837541 52.99366,0.17927348 53.3862181,0.556733204 C53.7787762,0.934192928 53.9999994,1.45541068 53.9999994,2 C53.9999994,2.54458932 53.7787762,3.06580707 53.3862181,3.4432668 C52.99366,3.82072652 52.4641536,4.02178375 51.92,4 Z"></path>
            <path d="M47.91,12 L8.09,12 C6.9854305,12 6.09,11.1045695 6.09,10 C6.09,8.8954305 6.9854305,8 8.09,8 L47.91,8 C49.0145695,8 49.91,8.8954305 49.91,10 C49.91,11.1045695 49.0145695,12 47.91,12 Z"></path>
            <path d="M45.41,20 L14.59,20 C13.4854305,20 12.59,19.1045695 12.59,18 C12.59,16.8954305 13.4854305,16 14.59,16 L45.41,16 C46.5145695,16 47.41,16.8954305 47.41,18 C47.41,19.1045695 46.5145695,20 45.41,20 Z"></path>
            <path d="M41.47,28 L18.53,28 C17.4254305,28 16.53,27.1045695 16.53,26 L16.53,26 C16.5571333,24.9150049 17.4446657,24.0496608 18.53,24.0499999 L41.47,24.0499999 C42.5553343,24.0496608 43.4428667,24.9150049 43.47,26 L43.47,26 C43.47,27.1045695 42.5745695,28 41.47,28 Z" opacity="0.9"></path>
            <path d="M34.08,36 L17.92,36 C16.8875538,36.0169063 16.0326421,35.2020685 16,34.17 L16,33.83 C16.0326421,32.7979315 16.8875538,31.9830937 17.92,32 L34.08,32 C35.1124462,31.9830937 35.9673579,32.7979315 36,33.83 L36,34.17 C35.9673579,35.2020685 35.1124462,36.0169063 34.08,36 L34.08,36 Z" opacity="0.63"></path>
            <path d="M27.14,44.0000272 L16.86,44.0000272 C16.3693473,44.0026593 15.8977349,43.8102951 15.5489156,43.4652266 C15.2000964,43.1201581 15.002645,42.6506527 15,42.16 L15,41.84 C15.002645,41.3493473 15.2000964,40.8798419 15.5489156,40.5347734 C15.8977349,40.1897049 16.3693473,39.9973407 16.86,39.9999728 L27.14,39.9999728 C27.6306527,39.9973407 28.1022651,40.1897049 28.4510844,40.5347734 C28.7999036,40.8798419 28.997355,41.3493473 29,41.84 L29,42.16 C28.997355,42.6506527 28.7999036,43.1201581 28.4510844,43.4652266 C28.1022651,43.8102951 27.6306527,44.0026593 27.14,44.0000272 L27.14,44.0000272 Z" opacity="0.45"></path>
            <path d="M19.34,52 L14.66,52 C13.5554305,52 12.66,51.1045695 12.66,50 C12.66,48.8954305 13.5554305,48 14.66,48 L19.34,48 C20.4445695,48 21.34,48.8954305 21.34,50 C21.34,51.1045695 20.4445695,52 19.34,52 Z" opacity="0.3"></path>
        </g>
    </g>
</svg>