<?xml version="1.0" encoding="UTF-8"?>
<svg width="64px" height="64px" viewBox="0 0 64 64" version="1.1" xmlns="http://www.w3.org/2000/svg" xmlns:xlink="http://www.w3.org/1999/xlink">
    <!-- Generator: Sketch 64 (93537) - https://sketch.com -->
    <title>213-热带风暴Tropical Storm</title>
    <desc>Created with Sketch.</desc>
    <g id="213-热带风暴Tropical-Storm" stroke="none" stroke-width="1" fill="none" fill-rule="evenodd">
        <g transform="translate(5.000000, 5.000000)" fill="#FFFFFF" fill-rule="nonzero">
            <g id="编组" opacity="0.95">
                <path d="M54,25.07 C46,8.16 30.76,7.66 27.61,7.75 C27.4067982,7.7396572 27.2032018,7.7396572 27,7.75 C23.5825879,7.75766392 20.2284237,8.67212226 17.28,10.4 C18.4587032,6.08818297 21.2139922,2.37639476 25,-2.66453526e-15 C14.4121867,4.4980022 7.58185291,14.9369632 7.7,26.44 C7.7,26.63 7.7,26.81 7.7,27 C7.70052439,30.4030965 8.6083693,33.7445181 10.33,36.68 C6.03336463,35.4785885 2.34585289,32.7049228 0,28.91 C8,45.84 23.23,46.34 26.38,46.25 C26.59,46.25 26.79,46.25 27,46.25 C31.0032613,46.2658612 34.9104168,45.0241064 38.17,42.7 C37.4309103,47.321826 34.7861671,51.4213593 30.88,54 C40.5633191,49.4801451 46.6069165,39.6095922 46.23,28.93 L46.23,28.99 C46.6385273,24.9179128 45.7345241,20.8218672 43.65,17.3 C47.953153,18.4987236 51.6478626,21.2724332 54,25.07 Z M27,42 C18.7157288,42 12,35.2842712 12,27 C12,18.7157288 18.7157288,12 27,12 C35.2842712,12 42,18.7157288 42,27 C42,35.2842712 35.2842712,42 27,42 L27,42 Z" id="形状"></path>
            </g>
            <path d="M27,16 C20.9248678,16 16,20.9248678 16,27 C16,33.0751322 20.9248678,38 27,38 C33.0751322,38 38,33.0751322 38,27 C38,24.0826186 36.8410748,21.2847256 34.7781746,19.2218254 C32.7152744,17.1589252 29.9173814,16 27,16 Z M27,34 L27,34 C23.1340068,34 20,30.8659932 20,27 C20,23.1340068 23.1340068,20 27,20 C30.8659932,20 34,23.1340068 34,27 C34,30.8659932 30.8659932,34 27,34 Z" id="形状"></path>
            <path d="M27,31 C24.790861,31 23,29.209139 23,27 C23,24.790861 24.790861,23 27,23 L27,23 C29.209139,23 31,24.790861 31,27 C31,29.209139 29.209139,31 27,31 Z" id="路径" opacity="0.7"></path>
        </g>
    </g>
</svg>