<?xml version="1.0" encoding="utf-8"?>
<!-- Generator: Adobe Illustrator 24.0.0, SVG Export Plug-In . SVG Version: 6.00 Build 0)  -->
<svg version="1.1" id="图层_2_1_" xmlns="http://www.w3.org/2000/svg" xmlns:xlink="http://www.w3.org/1999/xlink" x="0px"
	 y="0px" viewBox="0 0 16 16" style="enable-background:new 0 0 16 16;" xml:space="preserve">
<style type="text/css">
	.st0{opacity:0.75;}
	.st1{fill:#1F2022;}
</style>
<g class="st0">
	<path class="st1" d="M7,13.3c0,2.3,3,2.3,3,0c0-1-1.5-3.3-1.5-3.3S7,12.3,7,13.3z"/>
	<path class="st1" d="M13.7,4.5C13.3,2.5,11.6,1,9.5,1C7.8,1,6.3,2,5.6,3.5C5.1,3.3,4.5,3,3.9,3C1.7,3,0,4.9,0,7.2
		c0,2.3,1.7,4.2,3.9,4.2c0.3,0,0.5-0.2,0.5-0.5s-0.2-0.5-0.5-0.5C2.3,10.4,1,9,1,7.2S2.3,4,3.9,4c0.6,0,1.3,0.4,1.6,0.7
		C5.7,4.9,6,4.8,6.2,4.6c0.1-0.1,0.1-0.2,0.1-0.3C6.8,2.9,8.1,2,9.5,2c1.7,0,3,1.3,3.3,3c0,0,0,0.1,0,0.1c0,0,0,0,0,0.1
		c0,0.1,0.1,0.1,0.1,0.1c0,0,0,0,0,0c0,0,0.1,0.1,0.1,0.1c0,0,0,0,0,0C14.3,5.7,15,6.7,15,7.9c0,1.5-1.2,2.8-2.5,2.8
		c-0.3,0-0.5,0.2-0.5,0.5s0.2,0.5,0.5,0.5c1.9,0,3.5-1.7,3.5-3.8C16,6.3,15.1,5.1,13.7,4.5z"/>
</g>
</svg>
