<?xml version="1.0" encoding="UTF-8"?>
<svg width="64px" height="64px" viewBox="0 0 64 64" version="1.1" xmlns="http://www.w3.org/2000/svg" xmlns:xlink="http://www.w3.org/1999/xlink">
    <!-- Generator: Sketch 64 (93537) - https://sketch.com -->
    <title>300-阵雨-Shower Rain</title>
    <desc>Created with Sketch.</desc>
    <g id="300-阵雨-Shower-Rain" stroke="none" stroke-width="1" fill="none" fill-rule="evenodd">
        <g transform="translate(4.000000, 4.000000)" fill-rule="nonzero">
            <g id="天气">
                <path d="M-3.71457103e-06,13.4999963 C-3.71457103e-06,20.9558441 6.04415588,26.9999963 13.4999963,26.9999963 C20.9558441,26.9999963 26.9999963,20.9558441 26.9999963,13.4999963 C26.9999963,6.04415588 20.9558441,-3.71457103e-06 13.4999963,-3.71457103e-06 C9.9187639,-0.00265571937 6.48344284,1.41880879 3.95112581,3.95112581 C1.41880879,6.48344284 -0.00265571937,9.9187639 -3.71457103e-06,13.4999963 L-3.71457103e-06,13.4999963 Z" id="路径" fill="#FFC819"></path>
                <path d="M14,38 C10.8304795,38.107627 7.85455579,36.4781241 6.23790907,33.7497735 C4.62126235,31.0214228 4.62126235,27.6285772 6.23790907,24.9002265 C7.85455579,22.1718759 10.8304795,20.542373 14,20.65 L14,20.65 C14,20.49 14,20.33 14,20.17 C14.1315299,12.2269604 20.6666518,5.88865251 28.61,6 C33.9362903,5.96523612 38.8658594,8.81054208 41.5,13.44 C45.0774417,12.9675677 48.6884465,14.0234969 51.447741,16.3489162 C54.2070356,18.6743354 55.859494,22.0542353 56,25.66 C55.8849588,32.5876219 50.1776818,38.1113707 43.25,38 L14,38 Z" id="路径-2" fill="#FFFFFF"></path>
            </g>
            <path d="M21.83,56.000028 C21.5529856,55.9991292 21.2808819,55.9267978 21.04,55.79 C20.7080873,55.6066512 20.4670098,55.2939381 20.3741519,54.9262967 C20.281294,54.5586552 20.3449617,54.1689704 20.55,53.85 L29.18,40.67 C29.6429587,40.0048861 30.5380846,39.8050036 31.24,40.21 C31.574199,40.3911837 31.8173103,40.7039742 31.9104048,41.0725524 C32.0034993,41.4411306 31.9380785,41.8318493 31.73,42.15 L23.11,55.33 C22.8210659,55.7520326 22.3414538,56.0030795 21.83,56.000028 L21.83,56.000028 Z" id="路径" fill="#3DD0FF"></path>
            <path d="M14.5,50.49 C14.2223676,50.4939645 13.9490173,50.4213017 13.71,50.28 C13.3780873,50.0966512 13.1370098,49.7839381 13.0441519,49.4162967 C12.951294,49.0486552 13.0149617,48.6589704 13.22,48.34 L18.22,40.67 C18.6865773,40.003471 19.5850412,39.8038124 20.29,40.21 C20.6219127,40.3933488 20.8629902,40.7060619 20.9558481,41.0737033 C21.048706,41.4413448 20.9850383,41.8310296 20.78,42.15 L15.78,49.82 C15.4910659,50.2420326 15.0114538,50.4930795 14.5,50.49 L14.5,50.49 Z" id="路径" fill="#3DD0FF"></path>
            <path d="M35.49,50.49 C35.2153571,50.4952963 34.9448596,50.4224701 34.71,50.28 C34.3741267,50.1005864 34.1288542,49.7885794 34.0338185,49.4198406 C33.9387827,49.0511018 34.0026893,48.6594095 34.21,48.34 L39.21,40.67 C39.6765773,40.003471 40.5750412,39.8038124 41.28,40.21 C41.6119127,40.3933488 41.8529902,40.7060619 41.9458481,41.0737033 C42.038706,41.4413448 41.9750383,41.8310296 41.77,42.15 L36.77,49.82 C36.4810659,50.2420326 36.0014538,50.4930795 35.49,50.49 Z" id="路径" fill="#3DD0FF"></path>
        </g>
    </g>
</svg>