<?xml version="1.0" encoding="UTF-8"?>
<svg width="65px" height="64px" viewBox="0 0 65 64" version="1.1" xmlns="http://www.w3.org/2000/svg" xmlns:xlink="http://www.w3.org/1999/xlink">
    <!-- Generator: Sketch 64 (93537) - https://sketch.com -->
    <title>301-强阵雨-Heavy Shower Rain</title>
    <desc>Created with Sketch.</desc>
    <g id="301-强阵雨-Heavy-Shower-Rain" stroke="none" stroke-width="1" fill="none" fill-rule="evenodd" transform="translate(1.000000, 0.000000)">
        <g transform="translate(4.000000, 4.000000)" fill-rule="nonzero">
            <path d="M5.5,51 C5.2168209,51.0014481 4.93917096,50.9216237 4.7,50.77 C4.36297179,50.558002 4.12405771,50.220706 4.03589819,49.8324289 C3.94773867,49.4441519 4.0175678,49.0367547 4.23,48.7 L9.23,40.75 C9.67182781,40.0485984 10.5985984,39.8381722 11.3,40.28 C12.0014016,40.7218278 12.2118278,41.6485984 11.77,42.35 L6.77,50.35 C6.4821664,50.7656014 6.00545099,51.0095896 5.5,51 L5.5,51 Z" id="路径" fill="#3DD0FF"></path>
            <path d="M23.49,51 C23.2068209,51.0014481 22.929171,50.9216237 22.69,50.77 C22.3529718,50.558002 22.1140577,50.220706 22.0258982,49.8324289 C21.9377387,49.4441519 22.0075678,49.0367547 22.22,48.7 L27.22,40.75 C27.5058125,40.2962727 28.0119747,40.0294905 28.5478203,40.0501477 C29.0836659,40.0708049 29.5677872,40.3757632 29.8178203,40.8501477 C30.0678535,41.3245322 30.0458125,41.8962727 29.76,42.35 L24.76,50.35 C24.4721664,50.7656014 23.995451,51.0095896 23.49,51 L23.49,51 Z" id="路径" fill="#3DD0FF"></path>
            <path d="M29.29,56 C29.0072762,55.9982231 28.7304979,55.9186493 28.49,55.77 C28.1496519,55.5612447 27.9065751,55.2254129 27.8146038,54.8368812 C27.7226326,54.4483496 27.7893571,54.0391831 28,53.7 L36.21,40.7 C36.6518278,39.9985984 37.5785984,39.7881722 38.28,40.23 C38.9814016,40.6718278 39.1918278,41.5985984 38.75,42.3 L30.54,55.3 C30.2675911,55.7287249 29.7978816,55.9917622 29.29,56 L29.29,56 Z" id="路径" fill="#3DD0FF"></path>
            <path d="M11.29,56 C11.0072762,55.9982231 10.7304979,55.9186493 10.49,55.77 C10.1496519,55.5612447 9.90657511,55.2254129 9.81460385,54.8368812 C9.72263259,54.4483496 9.78935714,54.0391831 10,53.7 L18.21,40.7 C18.6518278,39.9985984 19.5785984,39.7881723 20.28,40.2300001 C20.9814016,40.6718278 21.1918278,41.5985984 20.75,42.3 L12.54,55.3 C12.2675911,55.7287249 11.7978816,55.9917622 11.29,56 L11.29,56 Z" id="路径" fill="#3DD0FF"></path>
            <path d="M41.49,51 C41.2068209,51.0014481 40.929171,50.9216237 40.69,50.77 C40.3529718,50.558002 40.1140577,50.220706 40.0258982,49.8324289 C39.9377387,49.4441519 40.0075678,49.0367547 40.22,48.7 L45.22,40.75 C45.6618278,40.0485984 46.5885983,39.8381723 47.29,40.2800001 C47.9914016,40.7218279 48.2018277,41.6485984 47.76,42.35 L42.76,50.35 C42.4721664,50.7656014 41.995451,51.0095896 41.49,51 L41.49,51 Z" id="路径" fill="#3DD0FF"></path>
            <g id="天气">
                <path d="M-3.71457103e-06,13.4999963 C-3.71457103e-06,20.9558441 6.04415588,26.9999963 13.4999963,26.9999963 C20.9558441,26.9999963 26.9999963,20.9558441 26.9999963,13.4999963 C26.9999963,6.04415588 20.9558441,-3.71457103e-06 13.4999963,-3.71457103e-06 C9.9187639,-0.00265571937 6.48344284,1.41880879 3.95112581,3.95112581 C1.41880879,6.48344284 -0.00265571937,9.9187639 -3.71457103e-06,13.4999963 L-3.71457103e-06,13.4999963 Z" id="路径" fill="#FFC819"></path>
                <path d="M14,38 C10.8304795,38.107627 7.85455579,36.4781241 6.23790907,33.7497735 C4.62126235,31.0214228 4.62126235,27.6285772 6.23790907,24.9002265 C7.85455579,22.1718759 10.8304795,20.542373 14,20.65 L14,20.65 C14,20.49 14,20.33 14,20.17 C14.1315299,12.2269604 20.6666518,5.88865251 28.61,6 C33.9362903,5.96523612 38.8658594,8.81054208 41.5,13.44 C45.0774417,12.9675677 48.6884465,14.0234969 51.447741,16.3489162 C54.2070356,18.6743354 55.859494,22.0542353 56,25.66 C55.8849588,32.5876219 50.1776818,38.1113707 43.25,38 L14,38 Z" id="路径-2" fill="#FFFFFF"></path>
            </g>
        </g>
    </g>
</svg>