<?xml version="1.0" encoding="utf-8"?>
<!-- Generator: Adobe Illustrator 21.0.0, SVG Export Plug-In . SVG Version: 6.00 Build 0)  -->
<svg version="1.1" id="图层_2_1_" opacity="0.8" xmlns="http://www.w3.org/2000/svg" xmlns:xlink="http://www.w3.org/1999/xlink"
	 x="0px" y="0px" viewBox="0 0 16 16" style="enable-background:new 0 0 16 16;" xml:space="preserve">
<style type="text/css">
	.st0{fill:#1F2022;}
	.st1{fill:none;stroke:#1F2022;stroke-linecap:round;stroke-miterlimit:10;}
</style>
<path class="st0" d="M7.8,6c0,0-1.5,2.3-1.5,3.3c0,2.3,3,2.3,3,0C9.3,8.3,7.8,6,7.8,6z"/>
<path class="st0" d="M2.2,10c0,0-1.3,1.8-1.3,2.6c0,1.8,2.5,1.8,2.5,0C3.4,11.9,2.2,10,2.2,10z"/>
<path class="st0" d="M6.2,12c0,0-1.3,1.8-1.3,2.6c0,1.8,2.5,1.8,2.5,0C7.4,13.9,6.2,12,6.2,12z"/>
<path class="st0" d="M10.2,12c0,0-1.3,1.8-1.3,2.6c0,1.8,2.5,1.8,2.5,0C11.4,13.9,10.2,12,10.2,12z"/>
<path class="st0" d="M14,10c0,0-1.3,1.8-1.3,2.6c0,1.8,2.5,1.8,2.5,0C15.3,11.9,14,10,14,10z"/>
<g id="云_2_">
	<path class="st1" d="M3.9,9.2C2,9.2,0.5,7.6,0.5,5.8S2,2.4,3.9,2.4c0.7,0,1.4,0.2,1.9,0.6"/>
	<path class="st1" d="M13.3,3.7c1.3,0.4,2.2,1.4,2.2,2.8c0,1.7-1.4,3.1-3,3.1"/>
	<path class="st1" d="M5.8,3c0.6-1.5,2-2.5,3.7-2.5c1.9,0,3.5,1.3,3.8,3.2"/>
</g>
</svg>
