<?xml version="1.0" encoding="utf-8"?>
<!-- Generator: Adobe Illustrator 24.0.0, SVG Export Plug-In . SVG Version: 6.00 Build 0)  -->
<svg version="1.1" id="图层_2_1_" xmlns="http://www.w3.org/2000/svg" xmlns:xlink="http://www.w3.org/1999/xlink" x="0px"
	 y="0px" viewBox="0 0 16 16" style="enable-background:new 0 0 16 16;" xml:space="preserve">
<style type="text/css">
	.st0{opacity:0.75;}
	.st1{fill:#1F2022;}
</style>
<g class="st0">
	<path class="st1" d="M12,13.2c0,1.4,2,1.4,2,0c0-0.6-1-2-1-2S12,12.6,12,13.2z"/>
	<path class="st1" d="M2,13c0,1.4,2,1.4,2,0c0-0.6-1-2-1-2S2,12.4,2,13z"/>
	<path class="st1" d="M13.7,3.2C13.2,1.3,11.5,0,9.5,0C7.8,0,6.4,0.9,5.6,2.3C5.1,2,4.5,1.9,3.9,1.9C1.8,1.9,0,3.7,0,5.8
		c0,2.1,1.8,3.9,3.9,3.9c0.3,0,0.5-0.2,0.5-0.5S4.2,8.7,3.9,8.7C2.3,8.7,1,7.4,1,5.8c0-1.6,1.3-2.9,2.9-2.9c0.6,0,1.2,0.2,1.6,0.5
		c0,0,0,0,0.1,0c0,0,0,0,0.1,0c0,0,0,0,0,0c0,0,0.1,0,0.1,0c0,0,0.1,0,0.1,0c0,0,0.1,0,0.1,0c0,0,0.1,0,0.1,0c0,0,0.1,0,0.1-0.1
		c0,0,0.1,0,0.1-0.1c0,0,0,0,0,0c0,0,0,0,0-0.1c0,0,0,0,0-0.1C6.8,1.8,8,1,9.5,1c1.6,0,2.8,1,3.2,2.4c0,0.1,0,0.3,0.1,0.4
		c0.1,0.2,0.3,0.4,0.5,0.4c0,0,0.1,0,0.1,0c0,0,0.1,0,0.1,0C14.4,4.6,15,5.5,15,6.5c0,1.4-1.1,2.6-2.5,2.6c-0.3,0-0.5,0.2-0.5,0.5
		s0.2,0.5,0.5,0.5c1.9,0,3.5-1.6,3.5-3.6C16,5,15.1,3.7,13.7,3.2z"/>
	<polygon class="st1" points="8.8,9 6.5,9 5.5,14.5 8.3,11 10.5,11 11.5,6 9,6 	"/>
</g>
</svg>
