<?xml version="1.0" encoding="utf-8"?>
<!-- Generator: Adobe Illustrator 21.0.0, SVG Export Plug-In . SVG Version: 6.00 Build 0)  -->
<svg version="1.1" id="图层_2_1_" opacity="0.8" xmlns="http://www.w3.org/2000/svg" xmlns:xlink="http://www.w3.org/1999/xlink"
	 x="0px" y="0px" viewBox="0 0 16 16" style="enable-background:new 0 0 16 16;" xml:space="preserve">
<style type="text/css">
	.st0{fill:#1F2022;}
	.st1{fill:none;stroke:#1F2022;stroke-linecap:round;stroke-miterlimit:10;}
</style>
<path class="st0" d="M13,11.2c0,0-1,1.4-1,2c0,1.4,2,1.4,2,0C14,12.6,13,11.2,13,11.2z"/>
<path class="st0" d="M3,11c0,0-1,1.4-1,2c0,1.4,2,1.4,2,0C4,12.4,3,11,3,11z"/>
<g id="云_2_">
	<path class="st1" d="M3.9,9.2C2,9.2,0.5,7.6,0.5,5.8S2,2.4,3.9,2.4c0.7,0,1.4,0.2,1.9,0.6"/>
	<path class="st1" d="M13.2,3.5c1.3,0.4,2.3,1.6,2.3,3c0,1.7-1.4,3.1-3,3.1"/>
	<path class="st1" d="M5.8,3c0.6-1.5,2-2.5,3.7-2.5c1.9,0,3.5,1.3,3.8,3.2"/>
</g>
<polygon class="st0" points="9,6 8.8,9 6.5,9 5.5,14.5 8.3,11 10.5,11 11.5,6 "/>
</svg>
