<?xml version="1.0" encoding="utf-8"?>
<!-- Generator: Adobe Illustrator 21.0.0, SVG Export Plug-In . SVG Version: 6.00 Build 0)  -->
<svg version="1.1" id="图层_2_1_" opacity="0.8" xmlns="http://www.w3.org/2000/svg" xmlns:xlink="http://www.w3.org/1999/xlink"
	 x="0px" y="0px" viewBox="0 0 16 16" style="enable-background:new 0 0 16 16;" xml:space="preserve">
<style type="text/css">
	.st0{fill:#1F2022;enable-background:new    ;}
	.st1{fill:none;stroke:#1F2022;stroke-linecap:round;stroke-miterlimit:10;}
</style>
<circle class="st0" cx="3" cy="12" r="1"/>
<circle class="st0" cx="13" cy="12" r="1"/>
<circle class="st0" cx="11" cy="15" r="1"/>
<circle class="st0" cx="5" cy="15" r="1"/>
<circle class="st0" cx="8" cy="13" r="1"/>
<g>
	<path class="st1" d="M5.2,9C4.7,9.3,4.1,9.5,3.5,9.5c-1.7,0-3-1.3-3-3s1.3-3,3-3c0.4,0,0.8,0.1,1.1,0.2"/>
	<path class="st1" d="M12.2,3.5c0.2,0,0.1,0,0.3,0c1.7,0,3,1.3,3,3s-1.3,3-3,3c-0.3,0-0.7-0.1-1-0.2"/>
	<path class="st1" d="M11.5,9.3c-0.8,0.7-1.9,1.2-3,1.2C7.2,10.5,6,9.9,5.2,9"/>
	<path class="st1" d="M4.6,3.7c0.8-1.3,2.2-2.2,3.9-2.2c1.6,0,2.9,0.8,3.7,2"/>
</g>
</svg>
