<?xml version="1.0" encoding="UTF-8"?>
<svg width="65px" height="64px" viewBox="0 0 65 64" version="1.1" xmlns="http://www.w3.org/2000/svg" xmlns:xlink="http://www.w3.org/1999/xlink">
    <!-- Generator: Sketch 64 (93537) - https://sketch.com -->
    <title>306-中雨-Moderate Rain</title>
    <desc>Created with Sketch.</desc>
    <g id="306-中雨-Moderate-Rain" stroke="none" stroke-width="1" fill="none" fill-rule="evenodd" transform="translate(1.000000, 0.000000)">
        <g transform="translate(4.000000, 5.000000)" fill-rule="nonzero" id="路径">
            <path d="M9.84,35 C4.50291472,35.0947508 0.0985206038,30.847017 0,25.51 C0.0420686109,22.9434804 1.10283505,20.4989924 2.94856816,18.7151589 C4.79430128,16.9313253 7.27353839,15.9545294 9.84,16 L9.84,16 C9.84,15.83 9.84,15.65 9.84,15.48 C9.84,6.94 17,-8.8817842e-16 25.92,-8.8817842e-16 C31.7641997,-0.0449928159 37.1778656,3.06710041 40.08,8.14 C40.7163707,8.05254254 41.3576737,8.00578087 42,8 C49.5922265,7.8662234 55.8576985,13.9079285 56,21.5 C55.9342953,25.1469225 54.4222375,28.6183033 51.7965951,31.1501727 C49.1709528,33.6820421 45.6469005,35.0669103 42,35 L9.84,35 Z" fill="#FFFFFF"></path>
            <path d="M20.55,55.0000228 C20.2650377,55.0015361 19.9850307,54.9254848 19.74,54.78 C19.3920336,54.5784104 19.1410812,54.2439022 19.0448793,53.8534355 C18.9486774,53.4629689 19.0155096,53.0501659 19.23,52.71 L28.13,38.71 C28.5974101,38.0072207 29.5324829,37.79211 30.26,38.22 C30.6079664,38.4215896 30.8589188,38.7560978 30.9551207,39.1465645 C31.0513226,39.5370311 30.9844904,39.9498341 30.77,40.29 L21.87,54.29 C21.5786657,54.7349745 21.0818583,55.0021967 20.55,55.0000228 L20.55,55.0000228 Z" fill="#3DD0FF"></path>
            <path d="M13.5,49.0000125 C13.2214842,49.0004292 12.9482043,48.9243259 12.71,48.78 C12.0290313,48.3581879 11.8111364,47.468821 12.22,46.78 L17.22,38.78 C17.6544925,38.0771501 18.5755809,37.8580562 19.28,38.29 C19.9563456,38.7151588 20.173217,39.6003484 19.77,40.29 L14.77,48.29 C14.5002556,48.7327839 14.0184738,49.0021264 13.5,49.0000125 L13.5,49.0000125 Z" fill="#3DD0FF"></path>
            <path d="M34.49,49.0000125 C34.2114842,49.0004292 33.9382043,48.9243259 33.7,48.78 C33.0190313,48.3581879 32.8011364,47.468821 33.21,46.78 L38.21,38.78 C38.6444925,38.0771501 39.5655809,37.8580562 40.27,38.29 C40.9463456,38.7151588 41.163217,39.6003484 40.76,40.29 L35.76,48.29 C35.4902556,48.7327839 35.0084738,49.0021264 34.49,49.0000125 L34.49,49.0000125 Z" fill="#3DD0FF"></path>
        </g>
    </g>
</svg>