<?xml version="1.0" encoding="utf-8"?>
<!-- Generator: Adobe Illustrator 21.0.0, SVG Export Plug-In . SVG Version: 6.00 Build 0)  -->
<svg version="1.1" id="图层_2_1_" opacity="0.8" xmlns="http://www.w3.org/2000/svg" xmlns:xlink="http://www.w3.org/1999/xlink"
	 x="0px" y="0px" viewBox="0 0 16 16" style="enable-background:new 0 0 16 16;" xml:space="preserve">
<style type="text/css">
	.st0{fill:none;stroke:#1F2022;stroke-linecap:round;stroke-miterlimit:10;}
	.st1{fill:#1F2022;enable-background:new    ;}
</style>
<g>
	<path class="st0" d="M5.2,9C4.7,9.3,4.1,9.5,3.5,9.5c-1.7,0-3-1.3-3-3s1.3-3,3-3c0.4,0,0.8,0.1,1.1,0.2"/>
	<path class="st0" d="M12,3.5c0.2,0,0.3,0,0.5,0c1.7,0,3,1.3,3,3s-1.3,3-3,3c-0.3,0-0.7-0.1-1-0.2"/>
	<path class="st0" d="M11.5,9.3c-0.8,0.7-1.9,1.2-3,1.2C7.2,10.5,6,9.9,5.2,9"/>
	<path class="st0" d="M4.6,3.7c0.8-1.3,2.2-2.2,3.9-2.2c1.6,0,2.9,0.8,3.7,2"/>
</g>
<path class="st1" d="M4.9,12c0,0-1,1.4-1,2c0,1.4,2,1.4,2,0C5.9,13.4,4.9,12,4.9,12z"/>
<path class="st1" d="M1.8,11c0,0-1,1.4-1,2c0,1.4,2,1.4,2,0C2.8,12.4,1.8,11,1.8,11z"/>
<path class="st1" d="M14,11c0,0-1,1.4-1,2c0,1.4,2,1.4,2,0C15,12.4,14,11,14,11z"/>
<path class="st1" d="M11,12c0,0-1,1.4-1,2c0,1.4,2,1.4,2,0C12,13.4,11,12,11,12z"/>
<path class="st1" d="M8,13c0,0-1,1.4-1,2c0,1.4,2,1.4,2,0C9,14.4,8,13,8,13z"/>
</svg>
