<?xml version="1.0" encoding="UTF-8"?>
<svg width="64px" height="64px" viewBox="0 0 64 64" version="1.1" xmlns="http://www.w3.org/2000/svg" xmlns:xlink="http://www.w3.org/1999/xlink">
    <!-- Generator: Sketch 64 (93537) - https://sketch.com -->
    <title>310-暴雨-Storm</title>
    <desc>Created with Sketch.</desc>
    <g id="310-暴雨-Storm" stroke="none" stroke-width="1" fill="none" fill-rule="evenodd">
        <g transform="translate(2.000000, 5.000000)" fill-rule="nonzero" id="路径">
            <path d="M13.84,33 C8.41,33 4,29 4,24.05 C4,19.1 8.41,15.11 13.84,15.11 L13.84,15.11 C13.84,14.94 13.84,14.78 13.84,14.61 C13.84,6.54 21,0 29.92,0 C35.6581681,-0.10223602 41.0308199,2.80795037 44.08,7.67 C44.7168014,7.58925809 45.3581008,7.54917688 46,7.55 C53.73,7.55 60,13.25 60,20.28 C60,27.31 53.73,33 46,33 L13.84,33 Z" fill="#FFFFFF"></path>
            <path d="M48,38.57 L44.75,44.38 C44.4186291,44.9626604 43.6776604,45.1663708 43.095,44.835 C42.5123396,44.5036291 42.3086292,43.7626604 42.64,43.18 L45.89,37.37 C46.2213709,36.7873396 46.9623396,36.5836292 47.545,36.915 C48.1276604,37.2463709 48.3313708,37.9873396 48,38.57 L48,38.57 Z" fill="#3DD0FF"></path>
            <path d="M37.72,38.57 C36.63,40.51 35.55,42.45 34.46,44.38 C34.0969554,44.8897002 33.4071351,45.0420681 32.8631759,44.7327074 C32.3192167,44.4233468 32.0975272,43.7525846 32.35,43.18 C33.44,41.24 34.52,39.3 35.61,37.37 C35.9413709,36.7873396 36.6823396,36.5836292 37.265,36.915 C37.8476604,37.2463709 38.0513708,37.9873396 37.72,38.57 L37.72,38.57 Z" fill="#3DD0FF"></path>
            <path d="M25.92,38.57 L22.67,44.38 C22.3386291,44.9626604 21.5976604,45.1663708 21.015,44.835 C20.4323396,44.5036291 20.2286292,43.7626604 20.56,43.18 L23.81,37.37 C24.1413709,36.7873396 24.8823396,36.5836292 25.465,36.915 C26.0476604,37.2463709 26.2513708,37.9873396 25.92,38.57 L25.92,38.57 Z" fill="#3DD0FF"></path>
            <path d="M14.55,38.57 L11.3,44.38 C10.9686291,44.9626604 10.2276604,45.1663708 9.64500001,44.835 C9.0623396,44.5036291 8.85862916,43.7626604 9.19,43.18 L12.44,37.37 C12.7713708,36.7873396 13.5123396,36.5836292 14.095,36.915 C14.6776604,37.2463708 14.8813708,37.9873396 14.55,38.57 Z" fill="#3DD0FF"></path>
            <path d="M39.42,45.6 L36.17,51.41 C35.8386291,51.9926604 35.0976604,52.1963708 34.515,51.865 C33.9323396,51.5336291 33.7286292,50.7926604 34.06,50.21 L37.31,44.39 C37.6692851,43.8648544 38.3718366,43.7040197 38.9238065,44.0205522 C39.4757765,44.3370848 39.6917884,45.0246786 39.42,45.6 L39.42,45.6 Z" fill="#3DD0FF"></path>
            <path d="M51.33,45.6 L48.08,51.41 C47.7118614,51.8967181 47.0388949,52.0331187 46.5102942,51.7281567 C45.9816935,51.4231948 45.7629194,50.7723285 46,50.21 L49.25,44.39 C49.6307376,43.931644 50.2868725,43.8153764 50.8019243,44.1149979 C51.3169761,44.4146194 51.5402401,45.0424604 51.33,45.6 L51.33,45.6 Z" fill="#3DD0FF"></path>
            <path d="M5.52,45.6 L2.27,51.41 C1.93862914,51.9926604 1.19766042,52.1963708 0.61500002,51.865 C0.0323396226,51.5336291 -0.171370823,50.7926604 0.16,50.21 L3.42,44.39 C3.75413229,43.810101 4.495101,43.6108678 5.07499997,43.945 C5.65489894,44.2791323 5.85413224,45.020101 5.52,45.6 L5.52,45.6 Z" fill="#3DD0FF"></path>
            <path d="M4.1,40.61 C3.7309121,41.1072338 3.04785602,41.2490859 2.51130281,40.939929 C1.9747496,40.6307722 1.75491633,39.9686838 2,39.4 L5.26,33.59 C5.62304455,33.0802998 6.31286495,32.9279319 6.85682413,33.2372926 C7.40078331,33.5466532 7.62247284,34.2174154 7.37,34.79 L4.1,40.61 Z" fill="#3DD0FF"></path>
            <path d="M57.84,34.79 L54.58,40.61 C54.3638543,40.9851289 53.9639986,41.2164499 53.5310546,41.2168271 C53.0981107,41.2172035 52.6978529,40.9865788 52.4810546,40.6118267 C52.2642563,40.2370746 52.2638543,39.7751289 52.48,39.4 L55.73,33.59 C56.0613709,33.0073397 56.8023396,32.8036293 57.3849999,33.1350001 C57.9676603,33.4663709 58.1713708,34.2073396 57.84,34.79 L57.84,34.79 Z" fill="#3DD0FF"></path>
            <path d="M28.7,45.43 C27.61,47.37 26.53,49.31 25.44,51.24 C25.0975835,51.8226604 24.3476604,52.0174165 23.765,51.675 C23.1823396,51.3325835 22.9875835,50.5826604 23.33,50 C24.42,48.06 25.5,46.12 26.59,44.19 C26.9324166,43.6073396 27.6823396,43.4125835 28.265,43.7550001 C28.8476604,44.0974166 29.0424165,44.8473396 28.7,45.43 L28.7,45.43 Z" fill="#3DD0FF"></path>
            <path d="M17.28,45 C16.19,46.94 15.11,48.88 14.02,50.81 C13.6569554,51.3197002 12.9671351,51.4720681 12.4231759,51.1627074 C11.8792167,50.8533468 11.6575272,50.1825846 11.91,49.61 C13,47.67 14.08,45.73 15.17,43.8 C15.5330446,43.2902998 16.2228649,43.1379319 16.7668241,43.4472926 C17.3107833,43.7566532 17.5324728,44.4274154 17.28,45 Z" fill="#3DD0FF"></path>
        </g>
    </g>
</svg>