<?xml version="1.0" encoding="UTF-8"?>
<svg width="64px" height="64px" viewBox="0 0 64 64" version="1.1" xmlns="http://www.w3.org/2000/svg" xmlns:xlink="http://www.w3.org/1999/xlink">
    <!-- Generator: Sketch 64 (93537) - https://sketch.com -->
    <title>313-冻雨-Freezing Rain</title>
    <desc>Created with Sketch.</desc>
    <g id="313-冻雨-Freezing-Rain" stroke="none" stroke-width="1" fill="none" fill-rule="evenodd">
        <g transform="translate(4.000000, 7.000000)" fill-rule="nonzero">
            <path d="M9.84,35 C4.50291472,35.0947508 0.0985206038,30.847017 0,25.51 C0.0420686109,22.9434804 1.10283505,20.4989924 2.94856816,18.7151589 C4.79430128,16.9313253 7.27353839,15.9545294 9.84,16 L9.84,16 C9.84,15.83 9.84,15.65 9.84,15.48 C9.84,6.94 17,-8.8817842e-16 25.92,-8.8817842e-16 C31.7641997,-0.0449928159 37.1778656,3.06710041 40.08,8.14 C40.7163707,8.05254254 41.3576737,8.00578087 42,8 C49.5922265,7.8662234 55.8576985,13.9079285 56,21.5 C55.9342953,25.1469225 54.4222375,28.6183033 51.7965951,31.1501727 C49.1709528,33.6820421 45.6469005,35.0669103 42,35 L9.84,35 Z" id="路径" fill="#FFFFFF"></path>
            <g id="编组" opacity="0.9" transform="translate(8.000000, 38.000000)" fill="#3DD0FF">
                <path d="M2.42,9.00000144 C1.90809439,8.99900629 1.4351997,8.72632308 1.17790498,8.28377617 C0.920610268,7.84122926 0.917600655,7.29535706 1.17,6.85 L4.32,0.77 C4.49249437,0.430689102 4.79484702,0.175532971 5.15832667,0.0625341177 C5.52180631,-0.0504647353 5.91553151,-0.0117058645 6.25,0.17 C6.95442411,0.568505249 7.21192879,1.45645241 6.83,2.17 L3.68,8.25 C3.42988968,8.712696 2.94596787,9.00074469 2.42,9.00000144 L2.42,9.00000144 Z" id="路径"></path>
            </g>
            <g id="编组" opacity="0.9" transform="translate(35.000000, 38.000000)" fill="#3DD0FF">
                <path d="M2.42,9.00000144 C1.90809439,8.99900629 1.4351997,8.72632308 1.17790498,8.28377617 C0.920610268,7.84122926 0.917600655,7.29535706 1.17,6.85 L4.32,0.77 C4.49249437,0.430689102 4.79484702,0.175532971 5.15832667,0.0625341177 C5.52180631,-0.0504647353 5.91553151,-0.0117058645 6.25,0.17 C6.95442411,0.568505249 7.21192879,1.45645241 6.83,2.17 L3.68,8.25 C3.42988968,8.712696 2.94596787,9.00074469 2.42,9.00000144 L2.42,9.00000144 Z" id="路径"></path>
            </g>
            <polygon id="路径" fill="#3EC4EE" points="27.57 38.12 28.46 45 23.35 49.67 22.46 42.83"></polygon>
        </g>
    </g>
</svg>