<?xml version="1.0" encoding="utf-8"?>
<!-- Generator: Adobe Illustrator 24.0.0, SVG Export Plug-In . SVG Version: 6.00 Build 0)  -->
<svg version="1.1" id="图层_2_1_" xmlns="http://www.w3.org/2000/svg" xmlns:xlink="http://www.w3.org/1999/xlink" x="0px"
	 y="0px" viewBox="0 0 16 16" style="enable-background:new 0 0 16 16;" xml:space="preserve">
<style type="text/css">
	.st0{opacity:0.75;}
	.st1{fill:#1F2022;}
</style>
<g class="st0">
	<path class="st1" d="M16,6.5c0-2-1.5-3.5-3.5-3.5h-0.1c-0.9-1.3-2.4-2-3.9-2C6.9,1,5.4,1.8,4.4,3.1C4.1,3.1,3.8,3,3.5,3
		C1.5,3,0,4.5,0,6.5c0,2,1.5,3.5,3.5,3.5C4,10,4.6,9.9,5.1,9.6C6,10.5,7.2,11,8.5,11c1.1,0,2.2-0.4,3.1-1.2c0.3,0.1,0.6,0.2,0.9,0.2
		C14.5,10,16,8.5,16,6.5z M12.5,9c-0.2,0-0.5-0.1-0.8-0.2c0,0,0,0-0.1,0c0,0-0.1,0-0.1,0c0,0-0.1,0-0.1,0c0,0-0.1,0-0.1,0
		c0,0-0.1,0-0.1,0.1c0,0,0,0,0,0C10.4,9.6,9.4,10,8.5,10c-1.1,0-2.2-0.5-2.9-1.3c0,0,0,0,0,0c0,0-0.1,0-0.1-0.1c0,0-0.1,0-0.1,0
		c0,0-0.1,0-0.1,0c0,0-0.1,0-0.1,0c0,0-0.1,0-0.1,0c0,0-0.1,0-0.1,0c0,0,0,0-0.1,0C4.5,8.8,4,9,3.5,9C2.1,9,1,7.9,1,6.5S2.1,4,3.5,4
		c0.3,0,0.6,0.1,0.9,0.2c0,0,0.1,0,0.1,0c0,0,0,0,0,0c0,0,0,0,0,0c0.1,0,0.2,0,0.2-0.1c0,0,0,0,0,0C4.9,4.1,5,4,5,4c0,0,0,0,0,0
		c0.8-1.2,2-2,3.5-2c1.2,0,2.3,0.5,3,1.4c0,0,0,0.1,0,0.1C11.5,3.8,11.7,4,12,4h0.5C13.9,4,15,5.1,15,6.5S13.9,9,12.5,9z"/>
	<path class="st1" d="M3.9,14c0,1.4,2,1.4,2,0c0-0.6-1-2-1-2S3.9,13.4,3.9,14z"/>
	<path class="st1" d="M0.8,13c0,1.4,2,1.4,2,0c0-0.6-1-2-1-2S0.8,12.4,0.8,13z"/>
	<path class="st1" d="M13,13c0,1.4,2,1.4,2,0c0-0.6-1-2-1-2S13,12.4,13,13z"/>
	<path class="st1" d="M10,14c0,1.4,2,1.4,2,0c0-0.6-1-2-1-2S10,13.4,10,14z"/>
	<path class="st1" d="M7,15c0,1.4,2,1.4,2,0c0-0.6-1-2-1-2S7,14.4,7,15z"/>
</g>
</svg>
