<?xml version="1.0" encoding="utf-8"?>
<!-- Generator: Adobe Illustrator 21.0.0, SVG Export Plug-In . SVG Version: 6.00 Build 0)  -->
<svg version="1.1" id="图层_1" opacity="0.8" xmlns="http://www.w3.org/2000/svg" xmlns:xlink="http://www.w3.org/1999/xlink"
	 x="0px" y="0px" viewBox="0 0 16 16" style="enable-background:new 0 0 16 16;" xml:space="preserve">
<style type="text/css">
	.st0{fill:#1F2022;}
	.st1{fill:none;stroke:#1F2022;stroke-linecap:round;stroke-miterlimit:10;}
</style>
<g id="图层_5">
	<g>
		<path class="st0" d="M9.9,11.4L8.3,12l1.6,0.6c0.4,0.2,0.6,0.3,0.7,0.4s0.1,0.2,0.1,0.3c0,0.3,0,0.4-0.1,0.4s-0.2,0-0.3,0
			s-0.2,0-0.3-0.1s-0.2-0.1-0.3-0.2l-1.5-1.3l0.3,2c0,0.1,0,0.2,0,0.3s0,0.1,0,0.2c0,0.2,0,0.3-0.1,0.4s-0.2,0.1-0.3,0.1
			c-0.1,0-0.2,0-0.3-0.1s-0.2-0.2-0.2-0.4c0-0.1,0-0.1,0-0.2c0-0.1,0-0.1,0-0.2l0.4-2l-1.5,1.3c-0.1,0.1-0.2,0.1-0.3,0.2
			S6.1,13.8,6,13.8s-0.2,0-0.3-0.1s-0.1-0.2-0.1-0.4c0-0.1,0-0.2,0.1-0.3s0.3-0.2,0.7-0.3L8,12l-1.6-0.6c-0.2-0.1-0.4-0.2-0.6-0.3
			s-0.2-0.2-0.2-0.4s0-0.3,0.1-0.4c0.1-0.1,0.2-0.1,0.3-0.1s0.2,0,0.3,0.1s0.2,0.1,0.3,0.2l1.5,1.3l-0.3-2c0-0.1,0-0.2,0-0.2
			c0-0.1,0-0.1,0-0.2c0-0.1,0-0.2,0.1-0.4C8,9.1,8.1,9,8.2,9c0.2,0,0.3,0.1,0.4,0.2c0.1,0.1,0.1,0.2,0.1,0.3s0,0.1,0,0.2
			c0,0.1,0,0.1,0,0.2l-0.4,2l1.5-1.3c0.1-0.1,0.2-0.2,0.3-0.2s0.2,0,0.3,0s0.2,0,0.3,0.1s0.1,0.2,0.1,0.3s0,0.2-0.1,0.3
			C10.6,11.2,10.3,11.3,9.9,11.4z"/>
	</g>
</g>
<g id="图层_3">
	<g id="云_2_">
		<path class="st1" d="M3.9,10.2c-1.9,0-3.4-1.6-3.4-3.4S2,3.4,3.9,3.4c0.7,0,1.4,0.2,1.9,0.6"/>
		<path class="st1" d="M13.4,4.7c1.3,0.4,2.1,1.4,2.1,2.8c0,1.7-1.4,3.1-3,3.1"/>
		<path class="st1" d="M5.8,4c0.6-1.5,2-2.5,3.7-2.5c1.9,0,3.5,1.3,3.8,3.2"/>
	</g>
</g>
</svg>
