<?xml version="1.0" encoding="UTF-8"?>
<svg width="65px" height="64px" viewBox="0 0 65 64" version="1.1" xmlns="http://www.w3.org/2000/svg" xmlns:xlink="http://www.w3.org/1999/xlink">
    <!-- Generator: Sketch 64 (93537) - https://sketch.com -->
    <title>401-中雪-Moderate Snow</title>
    <desc>Created with Sketch.</desc>
    <g id="401-中雪-Moderate-Snow" stroke="none" stroke-width="1" fill="none" fill-rule="evenodd" transform="translate(1.000000, 0.000000)">
        <g transform="translate(4.000000, 3.000000)" fill="#FFFFFF" fill-rule="nonzero" id="路径">
            <path d="M9.84,35 C4.50291472,35.0947508 0.0985206038,30.847017 0,25.51 C0.0420686109,22.9434804 1.10283505,20.4989924 2.94856816,18.7151589 C4.79430128,16.9313253 7.27353839,15.9545294 9.84,16 L9.84,16 C9.84,15.83 9.84,15.65 9.84,15.48 C9.84,6.94 17,-1.33226763e-15 25.92,-1.33226763e-15 C31.7641997,-0.0449928159 37.1778656,3.06710041 40.08,8.14 C40.7163707,8.05254254 41.3576737,8.00578087 42,8 C49.5922265,7.8662234 55.8576985,13.9079285 56,21.5 C55.9342953,25.1469225 54.4222375,28.6183033 51.7965951,31.1501727 C49.1709528,33.6820421 45.6469005,35.0669103 42,35 L9.84,35 Z"></path>
            <path d="M40.3,42.29 L38.78,42.29 L39.78,41.29 C40.0152457,41.0079073 39.9964964,40.5929587 39.7367689,40.3332311 C39.4770413,40.0735036 39.0620927,40.0547543 38.78,40.29 L37.68,41.38 L37.68,39.7 C37.7122296,39.4317947 37.587257,39.1689801 37.3588822,39.0246963 C37.1305074,38.8804126 36.8394926,38.8804126 36.6111178,39.0246963 C36.382743,39.1689801 36.2577704,39.4317947 36.29,39.7 L36.29,41.4 L35.16,40.28 C34.8779073,40.0447543 34.4629587,40.0635036 34.2032311,40.3232311 C33.9435036,40.5829587 33.9247543,40.9979073 34.16,41.28 L35.16,42.28 L33.7,42.28 C33.3101868,42.2908323 32.9998495,42.6100363 32.9999999,43 C32.9999999,43.1856515 33.0737498,43.3636993 33.2050253,43.4949747 C33.3363007,43.6262502 33.5143485,43.7 33.7,43.7 L35.37,43.7 L34.13,44.95 C33.8554444,45.2267978 33.8554444,45.6732022 34.13,45.95 C34.2640969,46.0868456 34.4484245,46.1627452 34.64,46.16 C34.8271704,46.1703891 35.0084401,46.092702 35.13,45.95 L36.29,44.79 L36.29,46.3 C36.2577704,46.5682053 36.382743,46.8310199 36.6111178,46.9753037 C36.8394926,47.1195874 37.1305074,47.1195874 37.3588822,46.9753037 C37.587257,46.8310199 37.7122296,46.5682053 37.68,46.3 L37.68,44.81 L38.81,45.94 C38.9471733,46.0783894 39.1351938,46.1543207 39.33,46.15 C39.513725,46.1572448 39.6906287,46.0798494 39.81,45.94 C40.0845556,45.6632022 40.0845556,45.2167978 39.81,44.94 L38.57,43.69 L40.3,43.69 C40.678452,43.6798067 40.9843627,43.3782662 41.0000715,43 C41.0026771,42.8126219 40.9301108,42.6319943 40.7985441,42.4985481 C40.6669774,42.3651018 40.4873972,42.2899809 40.3,42.29 Z"></path>
            <path d="M28.21,51.7 L26.5,51.7 L27.63,50.57 C27.848768,50.371778 27.9405906,50.069185 27.8688732,49.7828146 C27.7971559,49.4964441 27.5735559,49.2728441 27.2871854,49.2011268 C27.000815,49.1294094 26.698222,49.221232 26.5,49.44 L25.27,50.67 L25.27,48.79 C25.2646074,48.3559483 24.9140517,48.0053926 24.48,48 C24.0476053,48.0054738 23.6999654,48.3575706 23.7,48.79 L23.7,50.7 L22.43,49.44 C22.231778,49.221232 21.929185,49.1294094 21.6428146,49.2011268 C21.3564441,49.2728441 21.1328441,49.4964441 21.0611268,49.7828146 C20.9894094,50.069185 21.081232,50.371778 21.3,50.57 L22.43,51.7 L20.79,51.7 C20.3639407,51.7151028 20.0205288,52.0541677 20,52.48 C20.0053926,52.9140517 20.3559483,53.2646074 20.79,53.27 L22.67,53.27 L21.27,54.67 C20.9584934,54.982262 20.9584934,55.487738 21.27,55.8 C21.4218903,55.9566694 21.6318178,56.043536 21.85,56.04 C22.0600662,56.0466236 22.2619923,55.9585105 22.4,55.8 L23.7,54.5 L23.7,56.21 C23.6659043,56.5116091 23.807626,56.8060823 24.0646125,56.9676017 C24.321599,57.129121 24.648401,57.129121 24.9053875,56.9676017 C25.162374,56.8060823 25.3040957,56.5116091 25.27,56.21 L25.27,54.54 L26.54,55.8 C26.6918903,55.9566694 26.9018178,56.043536 27.12,56.04 C27.3300662,56.0466236 27.5319923,55.9585105 27.67,55.8 C27.970953,55.4834479 27.970953,54.9865521 27.67,54.67 L26.26,53.27 L28.21,53.27 C28.6376767,53.249841 28.979841,52.9076767 29,52.48 C28.9945262,52.0476053 28.6424294,51.6999654 28.21,51.7 Z"></path>
            <path d="M19.47,40.47 L18.38,40.47 L19.13,39.72 C19.3371068,39.5101318 19.3348682,39.1721068 19.125,38.965 C18.9151318,38.7578932 18.5771068,38.7601318 18.37,38.97 L17.53,39.81 L17.53,38.53 C17.53,38.2372891 17.2927109,38 17,38 C16.7072891,38 16.47,38.2372891 16.47,38.53 L16.47,39.81 L15.63,39 C15.4228932,38.7901318 15.0848682,38.7878932 14.875,38.995 C14.6651318,39.2021068 14.6628932,39.5401318 14.87,39.75 L15.62,40.5 L14.53,40.5 C14.2372891,40.5 14,40.7372891 14,41.03 C14,41.3227109 14.2372891,41.56 14.53,41.56 L15.81,41.56 L14.87,42.5 C14.7704629,42.5994132 14.714533,42.7343208 14.714533,42.875 C14.714533,43.0156792 14.7704629,43.1505868 14.87,43.25 C14.9747044,43.3451227 15.1087894,43.4015795 15.25,43.41 C15.3908485,43.4000456 15.5244514,43.3437918 15.63,43.25 L16.47,42.41 L16.47,43.5 C16.47,43.7927109 16.7072891,44.03 17,44.03 C17.2927109,44.03 17.53,43.7927109 17.53,43.5 L17.53,42.38 L18.37,43.22 C18.4747044,43.3151227 18.6087894,43.3715795 18.75,43.38 C18.8898574,43.3660265 19.0222692,43.3102741 19.13,43.22 C19.2295371,43.1205868 19.285467,42.9856792 19.285467,42.845 C19.285467,42.7043208 19.2295371,42.5694132 19.13,42.47 L18.19,41.53 L19.47,41.53 C19.6105647,41.53 19.7453723,41.4741609 19.8447666,41.3747666 C19.9441609,41.2753723 20,41.1405647 20,41 C19.9896926,40.7116664 19.7583336,40.4803074 19.47,40.47 L19.47,40.47 Z"></path>
        </g>
    </g>
</svg>