<?xml version="1.0" encoding="utf-8"?>
<!-- Generator: Adobe Illustrator 24.0.0, SVG Export Plug-In . SVG Version: 6.00 Build 0)  -->
<svg version="1.1" id="图层_1" xmlns="http://www.w3.org/2000/svg" xmlns:xlink="http://www.w3.org/1999/xlink" x="0px" y="0px"
	 viewBox="0 0 16 16" style="enable-background:new 0 0 16 16;" xml:space="preserve">
<style type="text/css">
	.st0{opacity:0.75;}
	.st1{fill:#1F2022;}
</style>
<g class="st0">
	<path class="st1" d="M3.5,11.9c0-0.1,0-0.2,0-0.2c0-0.1-0.1-0.2-0.1-0.3c-0.1-0.1-0.2-0.1-0.3-0.1c-0.1,0-0.2,0-0.3,0.1
		c-0.1,0.1-0.1,0.2-0.1,0.3v0.1c0,0.1,0,0.1,0,0.2l0.1,1.5L1.6,14c-0.3,0.1-0.4,0.2-0.5,0.3C1,14.4,1,14.5,1,14.6
		c0,0.2,0,0.3,0.3,0.3C1.4,15,1.5,15,1.5,15s0.1-0.1,0.2-0.1c0,0,0.1-0.1,0.2-0.1l1.1-1l-0.3,1.5c0,0.1,0,0.2,0,0.2v0.1
		c0,0.1,0,0.3,0.1,0.3C2.8,16,2.9,16,3,16s0.2,0,0.3-0.3c0.1,0,0.1-0.2,0.1-0.3c0,0,0,0,0-0.1c0-0.1,0-0.1,0-0.2l-0.3-1.5l1.1,1
		c0.1,0.1,0.2,0.2,0.3,0.2c0.1,0.1,0.1,0.1,0.2,0.1c0.1,0,0.1,0,0.2,0C5,14.9,5,14.8,5,14.6c0-0.1,0-0.1,0-0.2
		c-0.1-0.1-0.3-0.2-0.6-0.3l-1.2-0.5l0.3-1.5C3.5,12,3.5,12,3.5,11.9z"/>
	<path class="st1" d="M1.5,12.3c0-0.1-0.1-0.1-0.2-0.1c-0.1,0-0.1,0-0.2,0.1C1,12.4,1,12.5,1,12.6c0,0.2,0.1,0.3,0.2,0.2
		c0.1,0.1,0.2,0.1,0.4,0.2l1.2,0.5l-1.1-1C1.7,12.4,1.5,12.4,1.5,12.3z"/>
	<path class="st1" d="M4.8,12.4c-0.1,0-0.1,0-0.2,0c-0.1,0-0.2,0.1-0.3,0.2l-1.1,1l1.2-0.5c0.3-0.1,0.5-0.2,0.5-0.3
		C5,12.8,5,12.7,5,12.6c0,0,0-0.1,0-0.1C5,12.4,4.9,12.4,4.8,12.4z"/>
	<path class="st1" d="M14.6,14.8c0.1,0.1,0.1,0.1,0.2,0.1c0.1,0,0.1,0,0.2,0s0.1-0.1,0.1-0.3c0-0.1-0.1-0.1-0.1-0.2
		c-0.1-0.1-0.3-0.2-0.6-0.3l-1.2-0.5l1.1,1C14.4,14.7,14.5,14.8,14.6,14.8z"/>
	<path class="st1" d="M13.5,11.9c0-0.1,0-0.2,0-0.2c0-0.1-0.1-0.2-0.1-0.3c-0.1-0.1-0.2-0.1-0.3-0.1c-0.1,0-0.2,0-0.3,0.1
		c-0.1,0.1-0.1,0.2-0.1,0.3v0.1c0,0.1,0,0.1,0,0.2l0.3,1.4l-1.1-1c0-0.1-0.1-0.2-0.2-0.2c0-0.1-0.1-0.1-0.2-0.1s-0.1,0-0.2,0.1
		c-0.1,0.1-0.1,0.2-0.1,0.3s0.1,0.2,0.2,0.3c0.1,0.1,0.2,0.1,0.4,0.2l1.2,0.5L11.8,14c-0.3,0.1-0.4,0.2-0.5,0.3
		c-0.1,0.1-0.1,0.2-0.1,0.3c0,0.2,0,0.3,0.1,0.3c0.1,0.1,0.1,0.1,0.2,0.1c0,0,0.1-0.1,0.2-0.1c0,0,0.1-0.1,0.2-0.1l1.1-1l-0.3,1.5
		c0,0.1,0,0.2,0,0.2v0.1c0,0.1,0,0.3,0.1,0.3c0,0.1,0.1,0.1,0.2,0.1s0.2,0,0.4-0.3c0.1,0,0.1-0.2,0.1-0.3c0,0,0,0,0-0.1
		c0-0.1,0-0.1,0-0.2l-0.3-1.5l0.3-1.5C13.5,12,13.5,12,13.5,11.9z"/>
	<path class="st1" d="M15,13c0.1,0,0.1-0.1,0.1-0.2c0-0.1,0-0.2-0.1-0.3c0-0.1-0.1-0.1-0.2-0.1c-0.1,0-0.1,0-0.2,0
		c-0.1,0-0.2,0.1-0.3,0.2l-1.1,1l1.2-0.5C14.7,13,14.9,12.9,15,13z"/>
	<path class="st1" d="M9.7,12.2c0.1,0.1,0.1,0.1,0.2,0.1c0.1,0,0.1,0,0.2,0c0.1,0,0.1-0.1,0.1-0.3c0-0.1-0.1-0.1-0.1-0.2
		c-0.1-0.1-0.3-0.2-0.6-0.3L8.3,11l1.1,1C9.5,12.1,9.6,12.2,9.7,12.2z"/>
	<path class="st1" d="M8.6,9.3c0-0.1,0-0.2,0-0.2c0-0.1-0.1-0.2-0.1-0.3C8.4,8.7,8.3,8.7,8.2,8.7C8.1,8.7,8,8.7,8,8.8
		C7.9,8.9,7.9,9,7.9,9.1v0.1c0,0.1,0,0.1,0,0.2L8,10.9l-1.1-1c0-0.1-0.1-0.2-0.2-0.2c0-0.1-0.1-0.1-0.2-0.1s-0.1,0-0.2,0.1
		C6.2,9.8,6.2,9.9,6.2,10s0.1,0.2,0.2,0.3c0.1,0.1,0.2,0.1,0.4,0.2L8,11l-1,0.2c-0.3,0.1-0.4,0.2-0.5,0.3s-0.1,0.2-0.1,0.3
		c0,0.2,0,0.3,0.1,0.3c0.1,0.1,0.2,0.1,0.2,0.1s0.1-0.1,0.2-0.1c0,0,0.1-0.1,0.2-0.1l1.1-1l-0.3,1.5c0,0.1,0,0.2,0,0.2v0.1
		c0,0.1,0,0.3,0.1,0.3c0,0.1,0.1,0.1,0.2,0.1c0.1,0,0.2,0,0.3-0.1c0.1,0,0.1-0.2,0.1-0.3c0,0,0,0,0-0.1c0-0.1,0-0.1,0-0.2L8.3,11
		l0.3-1.5C8.6,9.4,8.6,9.4,8.6,9.3z"/>
	<path class="st1" d="M10.1,10.4c0.1,0,0.1-0.1,0.1-0.2c0-0.1-0.1-0.2-0.1-0.3c0-0.1-0.1-0.1-0.2-0.1c-0.1,0-0.1,0-0.2,0
		c-0.1,0-0.2,0.1-0.3,0.2l-1.1,1l1.3-0.4C9.9,10.4,10.1,10.4,10.1,10.4z"/>
	<path class="st1" d="M6.2,3.2C6.2,3.2,6.3,3.2,6.2,3.2C6.8,1.8,8,1,9.5,1c1.7,0,3,1.1,3.3,2.8c0,0,0,0.1,0,0.1c0,0,0,0,0,0.1
		C12.9,4,12.9,4,13,4.1c0,0,0,0,0,0c0,0,0.1,0.1,0.1,0.1c0,0,0,0,0,0C14.3,4.5,15,5.4,15,6.5c0,1.4-1.1,2.6-2.5,2.6
		c-0.3,0-0.5,0.2-0.5,0.5s0.2,0.5,0.5,0.5c1.9,0,3.5-1.6,3.5-3.6c0-1.4-0.9-2.6-2.3-3.2C13.3,1.4,11.6,0,9.5,0
		C7.8,0,6.4,0.9,5.6,2.3C5.1,2,4.5,1.9,3.9,1.9C1.8,1.9,0,3.7,0,5.8c0,2.1,1.8,3.9,3.9,3.9c0.3,0,0.5-0.2,0.5-0.5S4.2,8.7,3.9,8.7
		C2.3,8.7,1,7.4,1,5.8c0-1.6,1.3-2.9,2.9-2.9c0.6,0,1.2,0.2,1.6,0.5c0,0,0,0,0.1,0c0,0,0,0,0.1,0c0,0,0,0,0,0c0,0,0.1,0,0.1,0
		c0,0,0.1,0,0.1,0c0,0,0.1,0,0.1,0c0,0,0.1,0,0.1,0c0,0,0.1,0,0.1-0.1C6.1,3.4,6.1,3.4,6.2,3.2C6.2,3.3,6.2,3.3,6.2,3.2
		C6.2,3.3,6.2,3.3,6.2,3.2z"/>
</g>
</svg>
