<?xml version="1.0" encoding="utf-8"?>
<!-- Generator: Adobe Illustrator 21.0.0, SVG Export Plug-In . SVG Version: 6.00 Build 0)  -->
<svg version="1.1" id="图层_1" opacity="0.8" xmlns="http://www.w3.org/2000/svg" xmlns:xlink="http://www.w3.org/1999/xlink"
	 x="0px" y="0px" viewBox="0 0 16 16" style="enable-background:new 0 0 16 16;" xml:space="preserve">
<style type="text/css">
	.st0{fill:#1F2022;}
	.st1{fill:none;stroke:#1F2022;stroke-linecap:round;stroke-miterlimit:10;}
</style>
<g id="图层_5_x5F_复制_x5F_2">
	<g>
		<path class="st0" d="M14.4,13.1l-1.2,0.5l1.2,0.5c0.3,0.1,0.5,0.2,0.6,0.3c0,0.1,0.1,0.1,0.1,0.2c0,0.2,0,0.3-0.1,0.3
			s-0.1,0-0.2,0c-0.1,0-0.1,0-0.2-0.1c-0.1,0-0.2-0.1-0.3-0.2l-1.1-1l0.3,1.5c0,0.1,0,0.1,0,0.2s0,0.1,0,0.1c0,0.1,0,0.3-0.1,0.3
			C13.2,16,13.1,16,13,16s-0.2,0-0.2-0.1c-0.1,0-0.1-0.2-0.1-0.3v-0.1c0,0,0-0.1,0-0.2l0.3-1.5l-1.1,1c-0.1,0-0.2,0.1-0.2,0.1
			c-0.1,0-0.2,0.1-0.2,0.1c-0.1,0-0.1,0-0.2-0.1c-0.1,0-0.1-0.1-0.1-0.3c0-0.1,0-0.2,0.1-0.3s0.2-0.2,0.5-0.3l1.2-0.5L11.8,13
			c-0.2-0.1-0.3-0.1-0.4-0.2c-0.1-0.1-0.2-0.2-0.2-0.3s0-0.2,0.1-0.3s0.1-0.1,0.2-0.1c0.1,0,0.2,0,0.2,0.1c0.1,0,0.2,0.1,0.2,0.2
			l1.1,1L12.7,12c0-0.1,0-0.1,0-0.2v-0.1c0-0.1,0-0.2,0.1-0.3s0.2-0.1,0.3-0.1s0.2,0,0.3,0.1c0,0.1,0.1,0.2,0.1,0.3c0,0,0,0.1,0,0.2
			c0,0.1,0,0.1,0,0.2l-0.3,1.5l1.1-1c0.1-0.1,0.2-0.2,0.3-0.2s0.1,0,0.2,0c0.1,0,0.2,0,0.2,0.1c0.1,0.1,0.1,0.2,0.1,0.3
			s0,0.2-0.1,0.2C14.9,12.9,14.7,13,14.4,13.1z"/>
	</g>
</g>
<g id="图层_5_x5F_复制2_x5F_2">
	<g>
		<path class="st0" d="M4.4,13.1l-1.2,0.5l1.2,0.5c0.3,0.1,0.5,0.2,0.6,0.3c0,0.1,0,0.1,0,0.2c0,0.2,0,0.3-0.1,0.3s-0.1,0-0.2,0
			s-0.1,0-0.2-0.1c-0.1,0-0.2-0.1-0.3-0.2l-1.1-1l0.3,1.5c0,0.1,0,0.1,0,0.2s0,0.1,0,0.1c0,0.1,0,0.3-0.1,0.3C3.2,16,3.1,16,3,16
			s-0.2,0-0.2-0.1c-0.1,0-0.1-0.2-0.1-0.3v-0.1c0,0,0-0.1,0-0.2L3,13.8l-1.1,1c-0.1,0-0.2,0.1-0.2,0.1c-0.1,0-0.2,0.1-0.2,0.1
			s-0.1,0-0.2-0.1C1,14.9,1,14.8,1,14.6c0-0.1,0-0.2,0.1-0.3s0.2-0.2,0.5-0.3l1.2-0.5L1.6,13c-0.2-0.1-0.3-0.1-0.4-0.2
			c-0.1,0.1-0.2,0-0.2-0.2c0-0.1,0-0.2,0.1-0.3s0.1-0.1,0.2-0.1s0.2,0,0.2,0.1s0.2,0.1,0.2,0.2l1.1,1L2.7,12c0-0.1,0-0.1,0-0.2v-0.1
			c0-0.1,0-0.2,0.1-0.3s0.2-0.1,0.3-0.1s0.2,0,0.3,0.1c0,0.1,0.1,0.2,0.1,0.3c0,0,0,0.1,0,0.2c0,0.1,0,0.1,0,0.2l-0.3,1.5l1.1-1
			c0.1-0.1,0.2-0.2,0.3-0.2c0.1,0,0.1,0,0.2,0s0.2,0,0.2,0.1c0-0.1,0,0,0,0.1s0,0.2-0.1,0.2C4.9,12.9,4.7,13,4.4,13.1z"/>
	</g>
</g>
<g id="图层_5_x5F_复制">
	<g>
		<path class="st0" d="M9.4,9.6L8.1,10l1.2,0.5c0.3,0.1,0.5,0.2,0.6,0.3C10,10.9,10,11,10,11c0,0.2,0,0.3-0.1,0.3s-0.1,0-0.2,0
			c-0.1,0-0.1,0-0.2-0.1c-0.1,0-0.2-0.1-0.3-0.2l-1.1-1l0.3,1.5c0,0.1,0,0.1,0,0.2s0,0.1,0,0.1c0,0.1,0,0.3-0.1,0.3
			c-0.1,0.1-0.2,0.1-0.3,0.1c-0.1,0-0.2,0-0.2-0.1c-0.1,0-0.1-0.2-0.1-0.3v-0.1c0,0,0-0.1,0-0.2L8,10l-1.1,1c-0.1,0-0.2,0.1-0.2,0.1
			c-0.1,0-0.2,0.1-0.2,0.1s-0.1,0-0.2-0.1C6,11.3,6,11.2,6,11c0-0.1,0-0.2,0.1-0.3s0.2-0.2,0.5-0.3L7.9,10L6.6,9.6
			C6.5,9.5,6.3,9.4,6.2,9.4C6.1,9.3,6,9.2,6,9.1C6,9,6,8.9,6.1,8.8s0.1-0.1,0.2-0.1s0.2,0,0.2,0.1c0.1,0,0.2,0.1,0.2,0.2l1.1,1
			L7.7,8.4c0-0.1,0-0.1,0-0.2V8.1c0-0.1,0-0.2,0.1-0.3c0-0.1,0.1-0.1,0.2-0.1c0.1,0,0.2,0,0.3,0.1c0,0.1,0.1,0.2,0.1,0.3
			c0,0,0,0.1,0,0.2c0,0.1,0,0.1,0,0.2L8.1,9.9l1.1-1c0.1-0.1,0.2-0.2,0.3-0.2s0.1,0,0.2,0c0.1,0,0.2,0,0.2,0.1S10,9,10,9.1
			s0,0.2-0.1,0.2C9.9,9.4,9.7,9.4,9.4,9.6z"/>
	</g>
	<circle class="st0" cx="4.5" cy="10.5" r="0.5"/>
	<circle class="st0" cx="11.5" cy="10.5" r="0.5"/>
	<circle class="st0" cx="6.5" cy="13.5" r="0.5"/>
	<circle class="st0" cx="9.5" cy="13.5" r="0.5"/>
	<circle class="st0" cx="8" cy="15.5" r="0.5"/>
</g>
<g id="图层_3">
	<g id="云_2_">
		<path class="st1" d="M3.9,9.2C2,9.2,0.5,7.6,0.5,5.8S2,2.4,3.9,2.4c0.7,0,1.4,0.2,1.9,0.6"/>
		<path class="st1" d="M13.2,3.5c1.3,0.4,2.3,1.6,2.3,3c0,1.7-1.4,3.1-3,3.1"/>
		<path class="st1" d="M5.8,3c0.6-1.5,2-2.5,3.7-2.5c1.9,0,3.5,1.3,3.8,3.2"/>
	</g>
</g>
</svg>
