<?xml version="1.0" encoding="UTF-8"?>
<svg width="65px" height="64px" viewBox="0 0 65 64" version="1.1" xmlns="http://www.w3.org/2000/svg" xmlns:xlink="http://www.w3.org/1999/xlink">
    <!-- Generator: Sketch 64 (93537) - https://sketch.com -->
    <title>402-大雪-Heavy Snow</title>
    <desc>Created with Sketch.</desc>
    <g id="402-大雪-Heavy-Snow" stroke="none" stroke-width="1" fill="none" fill-rule="evenodd" transform="translate(1.000000, 0.000000)">
        <g transform="translate(4.000000, 3.000000)" fill="#FFFFFF" fill-rule="nonzero" id="路径">
            <path d="M9.84,35 C4.50291472,35.0947508 0.0985206038,30.847017 0,25.51 C0.0420686109,22.9434804 1.10283505,20.4989924 2.94856816,18.7151589 C4.79430128,16.9313253 7.27353839,15.9545294 9.84,16 L9.84,16 C9.84,15.83 9.84,15.65 9.84,15.48 C9.84,6.94 17,-1.33226763e-15 25.92,-1.33226763e-15 C31.7641997,-0.0449928159 37.1778656,3.06710041 40.08,8.14 C40.7163707,8.05254254 41.3576737,8.00578087 42,8 C49.5922265,7.8662234 55.8576985,13.9079285 56,21.5 C55.9342953,25.1469225 54.4222375,28.6183033 51.7965951,31.1501727 C49.1709528,33.6820421 45.6469005,35.0669103 42,35 L9.84,35 Z"></path>
            <path d="M22.21,51.7 L20.5,51.7 L21.63,50.57 C21.848768,50.371778 21.9405906,50.069185 21.8688732,49.7828146 C21.7971559,49.4964441 21.5735559,49.2728441 21.2871854,49.2011268 C21.000815,49.1294094 20.698222,49.221232 20.5,49.44 L19.27,50.67 L19.27,48.79 C19.2646074,48.3559483 18.9140517,48.0053926 18.48,48 C18.0476053,48.0054738 17.6999654,48.3575706 17.7,48.79 L17.7,50.7 L16.43,49.44 C16.231778,49.221232 15.929185,49.1294094 15.6428146,49.2011268 C15.3564441,49.2728441 15.1328441,49.4964441 15.0611268,49.7828146 C14.9894094,50.069185 15.081232,50.371778 15.3,50.57 L16.43,51.7 L14.79,51.7 C14.3639407,51.7151028 14.0205288,52.0541677 14,52.48 C14.0053926,52.9140517 14.3559483,53.2646074 14.79,53.27 L16.67,53.27 L15.27,54.67 C14.9584934,54.982262 14.9584934,55.487738 15.27,55.8 C15.4218903,55.9566694 15.6318178,56.043536 15.85,56.04 C16.0600662,56.0466236 16.2619923,55.9585105 16.4,55.8 L17.7,54.5 L17.7,56.21 C17.6659043,56.5116091 17.807626,56.8060823 18.0646125,56.9676017 C18.321599,57.129121 18.648401,57.129121 18.9053875,56.9676017 C19.162374,56.8060823 19.3040957,56.5116091 19.27,56.21 L19.27,54.54 L20.54,55.8 C20.6918903,55.9566694 20.9018178,56.043536 21.12,56.04 C21.3300662,56.0466236 21.5319923,55.9585105 21.67,55.8 C21.970953,55.4834479 21.970953,54.9865521 21.67,54.67 L20.26,53.27 L22.21,53.27 C22.6376767,53.249841 22.979841,52.9076767 23,52.48 C22.9945262,52.0476053 22.6424294,51.6999654 22.21,51.7 Z"></path>
            <path d="M38.21,51.7 L36.5,51.7 L37.63,50.57 C37.9163901,50.2539251 37.9044445,49.7687513 37.6028466,49.4671534 C37.3012487,49.1655555 36.8160749,49.1536099 36.5,49.44 L35.27,50.67 L35.27,48.79 C35.2646074,48.3559483 34.9140517,48.0053926 34.48,48 C34.0476053,48.0054738 33.6999654,48.3575706 33.7,48.79 L33.7,50.7 L32.43,49.44 C32.231778,49.221232 31.929185,49.1294094 31.6428146,49.2011268 C31.3564441,49.2728441 31.1328441,49.4964441 31.0611268,49.7828146 C30.9894094,50.069185 31.081232,50.371778 31.3,50.57 L32.43,51.7 L30.79,51.7 C30.3639407,51.7151028 30.0205288,52.0541677 30,52.48 C30.0053926,52.9140517 30.3559483,53.2646074 30.79,53.27 L32.67,53.27 L31.27,54.67 C30.9584934,54.982262 30.9584934,55.487738 31.27,55.8 C31.4218903,55.9566694 31.6318178,56.043536 31.85,56.04 C32.0600662,56.0466236 32.2619923,55.9585105 32.4,55.8 L33.7,54.5 L33.7,56.21 C33.6659043,56.5116091 33.807626,56.8060823 34.0646125,56.9676017 C34.321599,57.129121 34.648401,57.129121 34.9053875,56.9676017 C35.162374,56.8060823 35.3040957,56.5116091 35.27,56.21 L35.27,54.54 L36.54,55.8 C36.6918903,55.9566694 36.9018178,56.043536 37.12,56.04 C37.3300662,56.0466236 37.5319923,55.9585105 37.67,55.8 C37.970953,55.4834479 37.970953,54.9865521 37.67,54.67 L36.26,53.27 L38.26,53.27 C38.6876767,53.249841 39.029841,52.9076767 39.05,52.48 C39.0476917,52.2632628 38.9564338,52.0569939 38.7976012,51.9095064 C38.6387685,51.762019 38.4263142,51.6862694 38.21,51.7 Z"></path>
            <path d="M14.38,40.88 L13.1,40.88 L14,40 C14.2430053,39.7569947 14.2430053,39.3630053 14,39.12 C13.7569947,38.8769947 13.3630053,38.8769947 13.12,39.12 L12.12,40.12 L12.12,38.62 C12.12,38.2775835 11.8424165,38 11.5,38 C11.1575835,38 10.88,38.2775835 10.88,38.62 L10.88,40.11 L9.88,39.11 C9.63423328,38.8669947 9.23800531,38.8692333 8.99500003,39.115 C8.75199476,39.3607667 8.75423332,39.7569947 9,40 L9.88,40.87 L8.62,40.87 C8.27758346,40.87 8,41.1475835 8,41.49 C8,41.8324165 8.27758346,42.11 8.62,42.11 L10.11,42.11 L9,43.21 C8.88020709,43.3250264 8.8124926,43.4839235 8.8124926,43.65 C8.8124926,43.8160765 8.88020709,43.9749736 9,44.09 C9.11973428,44.2017654 9.27626191,44.2657995 9.44,44.27 C9.60335813,44.2640144 9.75928563,44.2002259 9.88,44.09 L10.88,43.09 L10.88,44.37 C10.88,44.7124165 11.1575835,44.99 11.5,44.99 C11.8424165,44.99 12.12,44.7124165 12.12,44.37 L12.12,43.1 L13.12,44.1 C13.2407144,44.2102259 13.3966419,44.2740144 13.56,44.28 C13.7221414,44.2685954 13.8763554,44.2055079 14,44.1 C14.1197929,43.9849736 14.1875074,43.8260765 14.1875074,43.66 C14.1875074,43.4939235 14.1197929,43.3350264 14,43.22 L12.91,42.13 L14.4,42.13 C14.7384999,42.1191219 15.0056372,41.8386277 15,41.5 C14.9895923,41.1619883 14.7180117,40.8904077 14.38,40.88 Z"></path>
            <path d="M29.38,40.88 L28.1,40.88 L29,40 C29.2430053,39.7569947 29.2430053,39.3630053 29,39.12 C28.7569947,38.8769947 28.3630053,38.8769947 28.12,39.12 L27.12,40.12 L27.12,38.62 C27.12,38.2775835 26.8424165,38 26.5,38 C26.1575835,38 25.88,38.2775835 25.88,38.62 L25.88,40.11 L24.88,39.11 C24.6342333,38.8669947 24.2380053,38.8692333 23.995,39.115 C23.7519947,39.3607667 23.7542333,39.7569947 24,40 L24.88,40.87 L23.62,40.87 C23.2775835,40.87 23,41.1475835 23,41.49 C23,41.8324165 23.2775835,42.11 23.62,42.11 L25.11,42.11 L24,43.21 C23.8802071,43.3250264 23.8124926,43.4839235 23.8124926,43.65 C23.8124926,43.8160765 23.8802071,43.9749736 24,44.09 C24.1197343,44.2017654 24.2762619,44.2657995 24.44,44.27 C24.6033581,44.2640144 24.7592856,44.2002259 24.88,44.09 L25.88,43.09 L25.88,44.37 C25.88,44.7124165 26.1575835,44.99 26.5,44.99 C26.8424165,44.99 27.12,44.7124165 27.12,44.37 L27.12,43.1 L28.12,44.1 C28.2407144,44.2102259 28.3966419,44.2740144 28.56,44.28 C28.7221414,44.2685954 28.8763554,44.2055079 29,44.1 C29.1197929,43.9849736 29.1875074,43.8260765 29.1875074,43.66 C29.1875074,43.4939235 29.1197929,43.3350264 29,43.22 L27.91,42.13 L29.4,42.13 C29.7384999,42.1191219 30.0056372,41.8386277 30,41.5 C29.9895923,41.1619883 29.7180117,40.8904077 29.38,40.88 Z"></path>
            <path d="M44.38,40.88 L43.1,40.88 L44,40 C44.2430053,39.7569947 44.2430053,39.3630053 44,39.12 C43.7569947,38.8769947 43.3630053,38.8769947 43.12,39.12 L42.12,40.12 L42.12,38.62 C42.12,38.2775835 41.8424165,38 41.5,38 C41.1575835,38 40.88,38.2775835 40.88,38.62 L40.88,40.11 L39.88,39.11 C39.7210168,38.9528031 39.4902468,38.8923638 39.2746187,38.9514488 C39.0589906,39.0105339 38.8912636,39.1801669 38.8346187,39.3964488 C38.7779738,39.6127307 38.8410168,39.8428031 39,40 L39.88,40.87 L38.62,40.87 C38.2775835,40.87 38,41.1475835 38,41.49 C38,41.8324165 38.2775835,42.11 38.62,42.11 L40.11,42.11 L39,43.21 C38.8802071,43.3250264 38.8124926,43.4839235 38.8124926,43.65 C38.8124926,43.8160765 38.8802071,43.9749736 39,44.09 C39.1197343,44.2017654 39.2762619,44.2657995 39.44,44.27 C39.6033581,44.2640144 39.7592856,44.2002259 39.88,44.09 L40.88,43.09 L40.88,44.37 C40.88,44.7124165 41.1575835,44.99 41.5,44.99 C41.8424165,44.99 42.12,44.7124165 42.12,44.37 L42.12,43.1 L43.12,44.1 C43.2407144,44.2102259 43.3966419,44.2740144 43.56,44.28 C43.7221414,44.2685954 43.8763554,44.2055079 44,44.1 C44.1197929,43.9849736 44.1875074,43.8260765 44.1875074,43.66 C44.1875074,43.4939235 44.1197929,43.3350264 44,43.22 L42.91,42.13 L44.4,42.13 C44.7384999,42.1191219 45.0056372,41.8386277 45,41.5 C44.9895923,41.1619883 44.7180117,40.8904077 44.38,40.88 Z"></path>
        </g>
    </g>
</svg>