<?xml version="1.0" encoding="utf-8"?>
<!-- Generator: Adobe Illustrator 24.0.0, SVG Export Plug-In . SVG Version: 6.00 Build 0)  -->
<svg version="1.1" id="图层_1" xmlns="http://www.w3.org/2000/svg" xmlns:xlink="http://www.w3.org/1999/xlink" x="0px" y="0px"
	 viewBox="0 0 16 16" style="enable-background:new 0 0 16 16;" xml:space="preserve">
<style type="text/css">
	.st0{opacity:0.75;}
	.st1{fill:#1F2022;}
</style>
<g class="st0">
	<path class="st1" d="M15,12c0.1,0,0.1-0.1,0.1-0.2c0-0.1,0-0.2-0.1-0.3c0-0.1-0.1-0.1-0.2-0.1c-0.1,0-0.1,0-0.2,0
		c-0.1,0-0.2,0.1-0.3,0.2l-1.1,1l1.2-0.5C14.7,12,14.9,11.9,15,12z"/>
	<path class="st1" d="M14.6,13.8c0.1,0.1,0.1,0.1,0.2,0.1c0.1,0,0.1,0,0.2,0s0.1-0.1,0.1-0.3c0-0.1-0.1-0.1-0.1-0.2
		c-0.1-0.1-0.3-0.2-0.6-0.3l-1.2-0.5l1.1,1C14.4,13.7,14.5,13.8,14.6,13.8z"/>
	<path class="st1" d="M13.5,10.9c0-0.1,0-0.2,0-0.2c0-0.1-0.1-0.2-0.1-0.3c-0.1-0.1-0.2-0.1-0.3-0.1c-0.1,0-0.2,0-0.3,0.1
		c-0.1,0.1-0.1,0.2-0.1,0.3v0.1c0,0.1,0,0.1,0,0.2l0.3,1.4l-1.1-1c0-0.1-0.1-0.2-0.2-0.2c0-0.1-0.1-0.1-0.2-0.1s-0.1,0-0.2,0.1
		c-0.1,0.1-0.1,0.2-0.1,0.3s0.1,0.2,0.2,0.3c0.1,0.1,0.2,0.1,0.4,0.2l1.2,0.5L11.8,13c-0.3,0.1-0.4,0.2-0.5,0.3
		c-0.1,0.1-0.1,0.2-0.1,0.3c0,0.2,0,0.3,0.1,0.3c0.1,0.1,0.1,0.1,0.2,0.1c0,0,0.1-0.1,0.2-0.1c0,0,0.1-0.1,0.2-0.1l1.1-1l-0.3,1.5
		c0,0.1,0,0.2,0,0.2v0.1c0,0.1,0,0.3,0.1,0.3c0,0.1,0.1,0.1,0.2,0.1s0.2,0,0.4-0.3c0.1,0,0.1-0.2,0.1-0.3c0,0,0,0,0-0.1
		c0-0.1,0-0.1,0-0.2l-0.3-1.5l0.3-1.5C13.5,11,13.5,11,13.5,10.9z"/>
	<path class="st1" d="M1.5,11.3c0-0.1-0.1-0.1-0.2-0.1c-0.1,0-0.1,0-0.2,0.1C1,11.4,1,11.5,1,11.6c0,0.2,0.1,0.3,0.2,0.2
		c0.1,0.1,0.2,0.1,0.4,0.2l1.2,0.5l-1.1-1C1.7,11.4,1.5,11.4,1.5,11.3z"/>
	<path class="st1" d="M4.8,11.4c-0.1,0-0.1,0-0.2,0c-0.1,0-0.2,0.1-0.3,0.2l-1.1,1l1.2-0.5c0.3-0.1,0.5-0.2,0.5-0.3
		C5,11.8,5,11.7,5,11.6c0,0,0-0.1,0-0.1C5,11.4,4.9,11.4,4.8,11.4z"/>
	<path class="st1" d="M3.5,10.9c0-0.1,0-0.2,0-0.2c0-0.1-0.1-0.2-0.1-0.3c-0.1-0.1-0.2-0.1-0.3-0.1c-0.1,0-0.2,0-0.3,0.1
		c-0.1,0.1-0.1,0.2-0.1,0.3v0.1c0,0.1,0,0.1,0,0.2l0.1,1.5L1.6,13c-0.3,0.1-0.4,0.2-0.5,0.3C1,13.4,1,13.5,1,13.6
		c0,0.2,0,0.3,0.3,0.3C1.4,14,1.5,14,1.5,14s0.1-0.1,0.2-0.1c0,0,0.1-0.1,0.2-0.1l1.1-1l-0.3,1.5c0,0.1,0,0.2,0,0.2v0.1
		c0,0.1,0,0.3,0.1,0.3C2.8,15,2.9,15,3,15s0.2,0,0.3-0.3c0.1,0,0.1-0.2,0.1-0.3c0,0,0,0,0-0.1c0-0.1,0-0.1,0-0.2l-0.3-1.5l1.1,1
		c0.1,0.1,0.2,0.2,0.3,0.2c0.1,0.1,0.1,0.1,0.2,0.1c0.1,0,0.1,0,0.2,0C5,13.9,5,13.8,5,13.6c0-0.1,0-0.1,0-0.2
		c-0.1-0.1-0.3-0.2-0.6-0.3l-1.2-0.5l0.3-1.5C3.5,11,3.5,11,3.5,10.9z"/>
	<circle class="st1" cx="6.5" cy="13.5" r="0.5"/>
	<circle class="st1" cx="9.5" cy="13.5" r="0.5"/>
	<circle class="st1" cx="7.5" cy="15.5" r="0.5"/>
	<path class="st1" d="M10.9,7.8C11,7.8,11,7.6,11,7.5c0-0.2,0-0.3-0.1-0.4c-0.1-0.1-0.3-0.2-0.4-0.2S10.3,7,10.2,7
		c-0.1,0-0.3,0.1-0.4,0.3L8.1,8.8l0.4-2.4c0.1,0,0.1-0.1,0.1-0.2c0,0,0-0.1,0-0.2S8.5,5.8,8.4,5.6c0-0.1-0.2-0.2-0.4-0.2
		c-0.1,0-0.2,0.1-0.4,0.2C7.5,5.7,7.4,5.9,7.4,6s0.1,0.1,0.1,0.2c0,0.1,0,0.2,0,0.3l0.4,2.3L6.2,7.3C6.1,7.2,6,7.1,5.9,7
		C5.7,7,5.6,6.9,5.5,6.9S5.3,7,5.2,7.1C5.1,7.2,5,7.3,5,7.5s0.1,0.3,0.3,0.4C5.5,8,5.7,8.1,5.9,8.2l2,0.7L6,9.6
		C5.6,9.8,5.3,9.9,5.2,10C5.1,10.1,5,10.3,5,10.4c0,0.2,0,0.3,0.1,0.4c0.1,0.1,0.1,0.1,0.3,0.1c0.2,0,0.2,0,0.4-0.1
		c0.2-0.1,0.3-0.1,0.4-0.2l1.7-1.5l-0.4,2.3c0,0.1,0,0.2,0,0.3c-0.1,0.1-0.1,0.1-0.1,0.2c0,0.3,0,0.4,0.2,0.5
		c0.2,0.1,0.3,0.1,0.4,0.1c0.2,0,0.3,0,0.4-0.1c0.1-0.1,0.2-0.3,0.2-0.5c0,0,0-0.1,0-0.2c0-0.1-0.1-0.2-0.1-0.3L8.1,9.1l1.7,1.5
		c0.2,0.1,0.3,0.1,0.4,0.2c0.1,0.1,0.2,0.1,0.3,0.1s0.2-0.1,0.3-0.1c0.1-0.1,0.2-0.2,0.2-0.5c0-0.1,0-0.2-0.1-0.3
		c0-0.1-0.3-0.2-0.8-0.4L8.2,8.9l1.9-0.7C10.5,8.1,10.8,7.9,10.9,7.8z"/>
	<path class="st1" d="M3.9,9.7c0.3,0,0.5-0.2,0.5-0.5S4.2,8.7,3.9,8.7C2.3,8.7,1,7.4,1,5.8c0-1.6,1.3-2.9,2.9-2.9
		c0.6,0,1.2,0.2,1.6,0.5c0,0,0,0,0.1,0c0,0,0,0,0.1,0c0,0,0,0,0,0c0,0,0.1,0,0.1,0c0,0,0.1,0,0.1,0c0,0,0.1,0,0.1,0c0,0,0.1,0,0.1,0
		c0,0,0.1,0,0.1-0.1c0,0,0.1,0,0.1-0.1c0,0,0,0,0,0c0,0,0,0,0-0.1c0,0,0,0,0-0.1C6.8,1.8,8,1,9.5,1c1.6,0,2.8,1,3.2,2.4
		c0,0.1,0,0.3,0.1,0.4c0.1,0.2,0.3,0.4,0.5,0.4c0,0,0.1,0,0.1,0c0,0,0.1,0,0.1,0C14.4,4.6,15,5.5,15,6.5c0,1.4-1.1,2.6-2.5,2.6
		c-0.3,0-0.5,0.2-0.5,0.5s0.2,0.5,0.5,0.5c1.9,0,3.5-1.6,3.5-3.6c0-1.5-0.9-2.8-2.3-3.3C13.2,1.3,11.5,0,9.5,0
		C7.8,0,6.4,0.9,5.6,2.3C5.1,2,4.5,1.9,3.9,1.9C1.8,1.9,0,3.7,0,5.8C0,7.9,1.8,9.7,3.9,9.7z"/>
</g>
</svg>
