<?xml version="1.0" encoding="UTF-8"?>
<svg width="65px" height="64px" viewBox="0 0 65 64" version="1.1" xmlns="http://www.w3.org/2000/svg" xmlns:xlink="http://www.w3.org/1999/xlink">
    <!-- Generator: Sketch 64 (93537) - https://sketch.com -->
    <title>404-雨夹雪-Sleet</title>
    <desc>Created with Sketch.</desc>
    <g id="404-雨夹雪-Sleet" stroke="none" stroke-width="1" fill="none" fill-rule="evenodd" transform="translate(0.000000, 0.000000)">
        <g transform="translate(4.000000, 8.000000)" fill-rule="nonzero">
            <path d="M9.84,35 C4.50291472,35.0947508 0.0985206038,30.847017 0,25.51 C0.0420686109,22.9434804 1.10283505,20.4989924 2.94856816,18.7151589 C4.79430128,16.9313253 7.27353839,15.9545294 9.84,16 L9.84,16 C9.84,15.83 9.84,15.65 9.84,15.48 C9.84,6.94 17,-8.8817842e-16 25.92,-8.8817842e-16 C31.7641997,-0.0449928159 37.1778656,3.06710041 40.08,8.14 C40.7163707,8.05254254 41.3576737,8.00578087 42,8 C49.5922265,7.8662234 55.8576985,13.9079285 56,21.5 C55.9342953,25.1469225 54.4222375,28.6183033 51.7965951,31.1501727 C49.1709528,33.6820421 45.6469005,35.0669103 42,35 L9.84,35 Z" id="路径" fill="#FFFFFF"></path>
            <g id="编组" opacity="0.9" transform="translate(8.000000, 38.000000)" fill="#3DD0FF">
                <path d="M2.42,10.0000085 C2.18325169,10.0008698 1.95104793,9.935021 1.75,9.81 C1.03769903,9.32251633 0.787208978,8.38848561 1.16,7.61 L4.32,0.86 C4.46264628,0.496120671 4.75705122,0.21265543 5.12606878,0.0838836761 C5.49508635,-0.0448880777 5.90193358,-0.00613062808 6.24,0.19 C6.95600998,0.674849423 7.20732043,1.61193924 6.83,2.39 L3.67,9.14 C3.45623134,9.64552341 2.96853636,9.98105756 2.42,10.0000085 Z" id="路径"></path>
            </g>
            <g id="编组" opacity="0.9" transform="translate(36.000000, 38.000000)" fill="#3DD0FF">
                <path d="M1.42,10 C1.18347127,9.99928877 0.951691012,9.93356004 0.75,9.81 C0.0413034286,9.31953997 -0.204783997,8.38610491 0.17,7.61 L3.32,0.86 C3.46492614,0.495533764 3.76119677,0.212115744 4.13172819,0.0834856687 C4.5022596,-0.0451444065 4.91041482,-0.00626800762 5.25,0.19 C5.95869657,0.68046003 6.204784,1.61389509 5.83,2.39 L2.68,9.14 C2.46472752,9.64873733 1.97220291,9.98490492 1.42,10 Z" id="路径"></path>
            </g>
            <path d="M29.21,41.7 L27.5,41.7 L28.63,40.57 C28.9163901,40.2539251 28.9044445,39.7687513 28.6028466,39.4671534 C28.3012487,39.1655555 27.8160749,39.1536099 27.5,39.44 L26.27,40.67 L26.27,38.79 C26.2646074,38.3559483 25.9140517,38.0053926 25.48,38 C25.0476053,38.0054738 24.6999654,38.3575706 24.7,38.79 L24.7,40.7 L23.43,39.44 C23.231778,39.221232 22.929185,39.1294094 22.6428146,39.2011268 C22.3564441,39.2728441 22.1328441,39.4964441 22.0611268,39.7828146 C21.9894094,40.069185 22.081232,40.371778 22.3,40.57 L23.43,41.7 L21.79,41.7 C21.3639407,41.7151028 21.0205288,42.0541677 21,42.48 C21.0053926,42.9140517 21.3559483,43.2646074 21.79,43.27 L23.67,43.27 L22.27,44.67 C21.9584934,44.982262 21.9584934,45.487738 22.27,45.8 C22.4218903,45.9566694 22.6318178,46.043536 22.85,46.04 C23.0600662,46.0466236 23.2619923,45.9585105 23.4,45.8 L24.7,44.5 L24.7,46.21 C24.6659043,46.5116091 24.807626,46.8060823 25.0646125,46.9676017 C25.321599,47.129121 25.648401,47.129121 25.9053875,46.9676017 C26.162374,46.8060823 26.3040957,46.5116091 26.27,46.21 L26.27,44.54 L27.54,45.8 C27.6918903,45.9566694 27.9018178,46.043536 28.12,46.04 C28.3300662,46.0466236 28.5319923,45.9585105 28.67,45.8 C28.970953,45.4834479 28.970953,44.9865521 28.67,44.67 L27.26,43.27 L29.21,43.27 C29.6376767,43.249841 29.979841,42.9076767 30,42.48 C29.9945262,42.0476053 29.6424294,41.6999654 29.21,41.7 Z" id="路径" fill="#FFFFFF"></path>
        </g>
    </g>
</svg>