<?xml version="1.0" encoding="UTF-8"?>
<svg width="64px" height="64px" viewBox="0 0 64 64" version="1.1" xmlns="http://www.w3.org/2000/svg" xmlns:xlink="http://www.w3.org/1999/xlink">
    <!-- Generator: Sketch 64 (93537) - https://sketch.com -->
    <title>405-雨雪天气-Rain And Snow</title>
    <desc>Created with Sketch.</desc>
    <g id="405-雨雪天气-Rain-And-Snow" stroke="none" stroke-width="1" fill="none" fill-rule="evenodd" transform="translate(0.000000, 0.000000)">
        <g transform="translate(5.000000, 5.000000)" fill-rule="nonzero" id="路径">
            <path d="M52,44.46 C52,49.1544204 48.1944204,52.96 43.5,52.96 C38.8055796,52.96 35,49.1544204 35,44.46 C35,39.73 43.5,27 43.5,27 C43.5,27 52,39.73 52,44.46 Z" fill="#4DD4FF"></path>
            <path d="M8.79,50.33 C7.4,51.72 5.79,52.33 5.22,51.78 L5.22,51.78 C4.63,51.2 5.28,49.6 6.67,48.21 L51.21,3.67 C52.6,2.28 54.21,1.67 54.78,2.22 L54.78,2.22 C55.37,2.8 54.72,4.4 53.33,5.79 L8.79,50.33 Z" fill="#FFFFFF" opacity="0.8"></path>
            <path d="M13,-6.40750417e-05 C12.7015362,-0.00317646712 12.4139383,0.11186273 12.2,0.32 C11.98158,0.511866296 11.8574704,0.789287821 11.86,1.08 L11.86,3.88 L10.58,2.67 C10.1252946,2.24077233 9.41470538,2.24077233 8.96,2.67 C8.75530156,2.86784141 8.63970885,3.14032005 8.63970885,3.425 C8.63970885,3.70967995 8.75530156,3.98215859 8.96,4.18 L8.96,4.18 L11.85,7 L11.85,11.17 L8.05,9 L7,5.28 C6.89439963,4.89219856 6.58909902,4.59071421 6.2,4.49 C5.80164027,4.38446017 5.37708011,4.49439093 5.08,4.78 C4.78403402,5.04612513 4.67406675,5.46242979 4.8,5.84 L5.27,7.5 L2.71,6.1 C2.16997496,5.83601432 1.51787378,6.01620017 1.19,6.52 C1.03761463,6.76400867 0.990952507,7.05947498 1.06072589,7.33856853 C1.13049928,7.61766207 1.31071471,7.85640899 1.56,8 L4.12,9.4 L2.37,9.84 C2.08758613,9.90409428 1.84274464,10.0789232 1.69044408,10.3252364 C1.53814353,10.5715497 1.49114501,10.8687089 1.56,11.15 L1.56,11.15 C1.74306869,11.741877 2.36210743,12.0823483 2.96,11.92 L6.96,10.92 L10.72,13 L6.91,15.09 L3,14.08 C2.41553136,13.948711 1.82816808,14.2880765 1.65,14.86 C1.50288033,15.4333727 1.84026729,16.0193605 2.41,16.18 L4.16,16.62 L1.56,18 C1.09769051,18.2231932 0.861767436,18.7455943 1,19.24 C1.14422616,19.7242695 1.59485229,20.0519976 2.1,20.04 C2.29837167,20.0388545 2.49367,19.9908865 2.67,19.9 L5.22,18.5 L4.75,20.16 C4.61964763,20.54052 4.72996862,20.9621038 5.03,21.23 C5.32808897,21.5138475 5.753405,21.6201766 6.15,21.51 C6.5423832,21.4151272 6.85019928,21.1111588 6.95,20.72 L8.05,17 L11.86,14.91 L11.86,19.27 L9,22 C8.66560622,22.2956848 8.56767383,22.7771857 8.76,23.18 C9.02345231,23.7557786 9.69995327,24.0139171 10.28,23.76 C10.4046234,23.7057938 10.5194882,23.6314695 10.62,23.54 L11.9,22.32 L11.9,24.94 C11.9,25.5696046 12.4103954,26.08 13.04,26.08 C13.6696046,26.08 14.18,25.5696046 14.18,24.94 L14.18,22.3 L15.45,23.52 C15.910337,23.9348157 16.609663,23.9348157 17.07,23.52 C17.2746984,23.3221586 17.3902912,23.0496799 17.3902912,22.765 C17.3902912,22.4803201 17.2746984,22.2078414 17.07,22.01 L17.07,22.01 L14.18,19.27 L14.18,14.88 L18.18,17.06 L19.24,20.81 C19.3365603,21.2050181 19.6449819,21.5134397 20.04,21.61 C20.439748,21.7178628 20.8668624,21.6120291 21.17,21.33 C21.4570111,21.0500356 21.5614971,20.6320915 21.44,20.25 L20.97,18.59 L23.35,19.9 C23.890452,20.1592915 24.5393497,19.9799909 24.87,19.48 C25.0193747,19.2267367 25.0557132,18.9224446 24.9701778,18.6411284 C24.8846425,18.3598122 24.6850711,18.1272494 24.42,18 L22,16.71 L23.75,16.27 C24.1351053,16.1747348 24.4400923,15.8811848 24.55,15.5 C24.6481762,15.1386614 24.5362623,14.7527515 24.26,14.5 C23.9681695,14.2195879 23.552145,14.1099088 23.16,14.21 L19.21,15.21 L15.21,13.03 L19.21,10.85 L23.15,11.85 C23.7456137,12.0188264 24.3671052,11.6814452 24.55,11.09 C24.6256228,10.8113552 24.5854281,10.5139752 24.4385456,10.2654049 C24.2916631,10.0168345 24.0505604,9.83817286 23.77,9.77 L23.77,9.77 L22,9.29 L24.42,8 C24.7703668,7.81740001 24.9901021,7.45509451 24.9901021,7.06 C24.9901021,6.66490549 24.7703668,6.30259999 24.42,6.12 C24.0616291,5.9243583 23.6283709,5.9243583 23.27,6.12 L20.9,7.41 L21.37,5.75 C21.4940479,5.17063742 21.128167,4.59950619 20.55,4.47 C19.9722349,4.30975586 19.3690859,4.62444229 19.17,5.19 L18.11,8.94 L14.11,11.12 L14.11,7 L17,4.2 C17.2152504,4.01016696 17.3385622,3.73700058 17.3385622,3.45 C17.3385622,3.16299942 17.2152504,2.88983304 17,2.7 L17,2.7 C16.544779,2.28186518 15.845221,2.28186518 15.39,2.7 L14.13,3.88 L14.13,1.08 C14.1350608,0.790868922 14.0147125,0.513703207 13.8,0.32 C13.5837488,0.115450883 13.297664,0.00101696587 13,-6.40750417e-05" fill="#FFFFFF"></path>
        </g>
    </g>
</svg>