<?xml version="1.0" encoding="utf-8"?>
<!-- Generator: Adobe Illustrator 24.0.0, SVG Export Plug-In . SVG Version: 6.00 Build 0)  -->
<svg version="1.1" id="图层_1" xmlns="http://www.w3.org/2000/svg" xmlns:xlink="http://www.w3.org/1999/xlink" x="0px" y="0px"
	 viewBox="0 0 16 16" style="enable-background:new 0 0 16 16;" xml:space="preserve">
<style type="text/css">
	.st0{opacity:0.75;}
	.st1{fill:#1F2022;}
</style>
<g class="st0">
	<path class="st1" d="M10.3,10.6L8.7,10l1.5-0.6c0.4-0.1,0.6-0.2,0.7-0.3C11,9,11,8.9,11,8.8c0-0.1,0-0.2-0.1-0.3
		c-0.1-0.1-0.2-0.1-0.3-0.1c-0.1,0-0.2,0-0.3,0c-0.1,0-0.2,0.1-0.3,0.2L8.6,9.9l0.4-2c0-0.1,0-0.1,0-0.2c0-0.1,0-0.1,0-0.2
		c0,0,0-0.2-0.1-0.3C8.8,7.1,8.7,7,8.5,7C8.4,7,8.3,7.1,8.2,7.3C8.1,7.4,8.1,7.5,8.1,7.6c0,0.1,0,0.1,0,0.2c0,0,0,0.1,0,0.2l0.3,2
		L7,8.7C6.9,8.6,6.8,8.5,6.7,8.5C6.6,8.4,6.5,8.4,6.4,8.4c-0.1,0-0.2,0-0.3,0.1C6,8.5,6,8.6,6,8.8s0.1,0.3,0.2,0.4
		c0.2,0,0.4,0.1,0.6,0.2L8.3,10l-1.6,0.7c-0.3,0.1-0.5,0.2-0.6,0.3C6,11.1,6,11.2,6,11.3c0,0.1,0,0.2,0.1,0.3
		c0.1,0.1,0.2,0.1,0.3,0.1c0.1,0,0.2,0,0.3-0.1c0.1-0.1,0.2-0.1,0.3-0.2l1.4-1.2L8,12.1c0,0.1,0,0.1,0,0.2c0,0.1,0,0.1,0,0.2
		c0,0.2,0.1,0.3,0.2,0.4C8.3,13,8.4,13,8.5,13s0.2,0,0.4-0.1C9,12.8,9,12.7,9,12.5c0-0.1,0-0.1,0-0.2c0-0.1,0-0.2,0-0.3l-0.3-1.9
		l1.4,1.3c0.1,0.1,0.2,0.2,0.3,0.2c0.1,0.1,0.2,0.1,0.3,0.1c0.1,0,0.2,0,0.3,0s0.1-0.2,0.1-0.4c0-0.1,0-0.2-0.1-0.3
		S10.7,10.8,10.3,10.6z"/>
	<path class="st1" d="M1,13.6c0,1.8,2.5,1.8,2.5,0c0-0.7-1.2-2.6-1.2-2.6S1,12.8,1,13.6z"/>
	<path class="st1" d="M12.5,13.6c0,1.8,2.5,1.8,2.5,0c0-0.7-1.2-2.6-1.2-2.6S12.5,12.8,12.5,13.6z"/>
	<path class="st1" d="M16,6.5c0-1.5-0.9-2.8-2.3-3.3C13.2,1.3,11.5,0,9.5,0C7.8,0,6.4,0.9,5.6,2.3C5.1,2,4.5,1.9,3.9,1.9
		C1.8,1.9,0,3.7,0,5.8c0,2.1,1.8,3.9,3.9,3.9c0.3,0,0.5-0.2,0.5-0.5S4.2,8.7,3.9,8.7C2.3,8.7,1,7.4,1,5.8c0-1.6,1.3-2.9,2.9-2.9
		c0.6,0,1.2,0.2,1.6,0.5c0,0,0,0,0.1,0c0,0,0,0,0.1,0c0,0,0,0,0,0c0,0,0.1,0,0.1,0c0,0,0.1,0,0.1,0c0,0,0.1,0,0.1,0c0,0,0.1,0,0.1,0
		c0,0,0.1,0,0.1-0.1c0,0,0.1,0,0.1-0.1c0,0,0,0,0,0c0,0,0,0,0-0.1c0,0,0,0,0-0.1C6.8,1.8,8,1,9.5,1c1.6,0,2.8,1,3.2,2.4
		c0,0.1,0,0.3,0.1,0.4c0.1,0.2,0.3,0.4,0.5,0.4c0,0,0.1,0,0.1,0c0,0,0.1,0,0.1,0C14.4,4.6,15,5.5,15,6.5c0,1.4-1.1,2.6-2.5,2.6
		c-0.3,0-0.5,0.2-0.5,0.5s0.2,0.5,0.5,0.5C14.4,10.1,16,8.5,16,6.5z"/>
</g>
</svg>
