<?xml version="1.0" encoding="UTF-8"?>
<svg width="64px" height="64px" viewBox="0 0 64 64" version="1.1" xmlns="http://www.w3.org/2000/svg" xmlns:xlink="http://www.w3.org/1999/xlink">
    <!-- Generator: Sketch 64 (93537) - https://sketch.com -->
    <title>408-小到中雪-Light to moderate snow</title>
    <desc>Created with Sketch.</desc>
    <g id="408-小到中雪-Light-to-moderate-snow" stroke="none" stroke-width="1" fill="none" fill-rule="evenodd">
        <g transform="translate(4.000000, 3.000000)" fill="#FFFFFF" fill-rule="nonzero" id="路径">
            <path d="M9.84,35 C4.50291472,35.0947508 0.0985206038,30.847017 0,25.51 C0.0420686109,22.9434804 1.10283505,20.4989924 2.94856816,18.7151589 C4.79430128,16.9313253 7.27353839,15.9545294 9.84,16 L9.84,16 C9.84,15.83 9.84,15.65 9.84,15.48 C9.84,6.94 17,-1.33226763e-15 25.92,-1.33226763e-15 C31.7641997,-0.0449928159 37.1778656,3.06710041 40.08,8.14 C40.7163707,8.05254254 41.3576737,8.00578087 42,8 C49.5922265,7.8662234 55.8576985,13.9079285 56,21.5 C55.9342953,25.1469225 54.4222375,28.6183033 51.7965951,31.1501727 C49.1709528,33.6820421 45.6469005,35.0669103 42,35 L9.84,35 Z"></path>
            <path d="M40.3,41.29 L38.78,41.29 L39.78,40.29 C40.0152457,40.0079073 39.9964964,39.5929587 39.7367689,39.3332311 C39.4770413,39.0735036 39.0620927,39.0547543 38.78,39.29 L37.68,40.38 L37.68,38.7 C37.7122296,38.4317947 37.587257,38.1689801 37.3588822,38.0246963 C37.1305074,37.8804126 36.8394926,37.8804126 36.6111178,38.0246963 C36.382743,38.1689801 36.2577704,38.4317947 36.29,38.7 L36.29,40.4 L35.16,39.28 C34.8779073,39.0447543 34.4629587,39.0635036 34.2032311,39.3232311 C33.9435036,39.5829587 33.9247543,39.9979073 34.16,40.28 L35.16,41.28 L33.7,41.28 C33.3101868,41.2908323 32.9998495,41.6100363 32.9999999,42 C32.9999999,42.1856515 33.0737498,42.3636993 33.2050253,42.4949747 C33.3363007,42.6262502 33.5143485,42.7 33.7,42.7 L35.37,42.7 L34.13,43.95 C33.8554444,44.2267978 33.8554444,44.6732022 34.13,44.95 C34.2640969,45.0868456 34.4484245,45.1627452 34.64,45.16 C34.8271704,45.1703891 35.0084401,45.092702 35.13,44.95 L36.29,43.79 L36.29,45.3 C36.2577704,45.5682053 36.382743,45.8310199 36.6111178,45.9753037 C36.8394926,46.1195874 37.1305074,46.1195874 37.3588822,45.9753037 C37.587257,45.8310199 37.7122296,45.5682053 37.68,45.3 L37.68,43.81 L38.81,44.94 C38.9471733,45.0783894 39.1351938,45.1543207 39.33,45.15 C39.513725,45.1572448 39.6906287,45.0798494 39.81,44.94 C40.0845556,44.6632022 40.0845556,44.2167978 39.81,43.94 L38.57,42.69 L40.3,42.69 C40.678452,42.6798067 40.9843627,42.3782662 41.0000715,42 C41.0026771,41.8126219 40.9301108,41.6319943 40.7985441,41.4985481 C40.6669774,41.3651018 40.4873972,41.2899809 40.3,41.29 Z"></path>
            <path d="M28.21,51.7 L26.5,51.7 L27.63,50.57 C27.848768,50.371778 27.9405906,50.069185 27.8688732,49.7828146 C27.7971559,49.4964441 27.5735559,49.2728441 27.2871854,49.2011268 C27.000815,49.1294094 26.698222,49.221232 26.5,49.44 L25.27,50.67 L25.27,48.79 C25.2646074,48.3559483 24.9140517,48.0053926 24.48,48 C24.0476053,48.0054738 23.6999654,48.3575706 23.7,48.79 L23.7,50.7 L22.43,49.44 C22.231778,49.221232 21.929185,49.1294094 21.6428146,49.2011268 C21.3564441,49.2728441 21.1328441,49.4964441 21.0611268,49.7828146 C20.9894094,50.069185 21.081232,50.371778 21.3,50.57 L22.43,51.7 L20.79,51.7 C20.3639407,51.7151028 20.0205288,52.0541677 20,52.48 C20.0053926,52.9140517 20.3559483,53.2646074 20.79,53.27 L22.67,53.27 L21.27,54.67 C20.9584934,54.982262 20.9584934,55.487738 21.27,55.8 C21.4218903,55.9566694 21.6318178,56.043536 21.85,56.04 C22.0600662,56.0466236 22.2619923,55.9585105 22.4,55.8 L23.7,54.5 L23.7,56.21 C23.6659043,56.5116091 23.807626,56.8060823 24.0646125,56.9676017 C24.321599,57.129121 24.648401,57.129121 24.9053875,56.9676017 C25.162374,56.8060823 25.3040957,56.5116091 25.27,56.21 L25.27,54.54 L26.54,55.8 C26.6918903,55.9566694 26.9018178,56.043536 27.12,56.04 C27.3300662,56.0466236 27.5319923,55.9585105 27.67,55.8 C27.970953,55.4834479 27.970953,54.9865521 27.67,54.67 L26.26,53.27 L28.21,53.27 C28.6376767,53.249841 28.979841,52.9076767 29,52.48 C28.9945262,52.0476053 28.6424294,51.6999654 28.21,51.7 Z"></path>
            <path d="M18.47,40.47 L17.38,40.47 L18.13,39.72 C18.3371068,39.5101318 18.3348682,39.1721068 18.125,38.965 C17.9151318,38.7578932 17.5771068,38.7601318 17.37,38.97 L16.53,39.81 L16.53,38.53 C16.53,38.2372891 16.2927109,38 16,38 C15.7072891,38 15.47,38.2372891 15.47,38.53 L15.47,39.81 L14.63,39 C14.4228932,38.7901318 14.0848682,38.7878932 13.875,38.995 C13.6651318,39.2021068 13.6628932,39.5401318 13.87,39.75 L14.62,40.5 L13.53,40.5 C13.2372891,40.5 13,40.7372891 13,41.03 C13,41.3227109 13.2372891,41.56 13.53,41.56 L14.81,41.56 L13.87,42.5 C13.7704629,42.5994132 13.714533,42.7343208 13.714533,42.875 C13.714533,43.0156792 13.7704629,43.1505868 13.87,43.25 C13.9747044,43.3451227 14.1087894,43.4015795 14.25,43.41 C14.3908485,43.4000456 14.5244514,43.3437918 14.63,43.25 L15.47,42.41 L15.47,43.5 C15.47,43.7927109 15.7072891,44.03 16,44.03 C16.2927109,44.03 16.53,43.7927109 16.53,43.5 L16.53,42.38 L17.37,43.22 C17.4747044,43.3151227 17.6087894,43.3715795 17.75,43.38 C17.8898574,43.3660265 18.0222692,43.3102741 18.13,43.22 C18.2295371,43.1205868 18.285467,42.9856792 18.285467,42.845 C18.285467,42.7043208 18.2295371,42.5694132 18.13,42.47 L17.19,41.53 L18.47,41.53 C18.6105647,41.53 18.7453723,41.4741609 18.8447666,41.3747666 C18.9441609,41.2753723 19,41.1405647 19,41 C18.9896926,40.7116664 18.7583336,40.4803074 18.47,40.47 Z"></path>
        </g>
    </g>
</svg>