<?xml version="1.0" encoding="UTF-8"?>
<svg width="65px" height="64px" viewBox="0 0 65 64" version="1.1" xmlns="http://www.w3.org/2000/svg" xmlns:xlink="http://www.w3.org/1999/xlink">
    <!-- Generator: Sketch 64 (93537) - https://sketch.com -->
    <title>409-中到大雪-Moderate to heavy snow</title>
    <desc>Created with Sketch.</desc>
    <g id="409-中到大雪-Moderate-to-heavy-snow" stroke="none" stroke-width="1" fill="none" fill-rule="evenodd" transform="translate(0.000000, 0.000000)">
        <g transform="translate(4.000000, 3.000000)" fill="#FFFFFF" fill-rule="nonzero" id="路径">
            <path d="M9.84,35.5 C7.27524203,35.5454853 4.79750098,34.5700561 2.95205559,32.7883761 C1.10661019,31.0066961 0.0446926039,28.5647719 0,26 C0.0985206038,20.662983 4.50291472,16.4152492 9.84,16.51 L9.84,16.51 C9.84,16.34 9.84,16.16 9.84,15.99 C9.84,7.43 17.04,0.49 25.92,0.49 C31.7641997,0.445007184 37.1778656,3.55710041 40.08,8.63 C40.7167988,8.54923108 41.3581,8.50914977 42,8.51 C49.5883964,8.3761855 55.8522564,14.411862 56,22 C55.9342953,25.6469225 54.4222375,29.1183033 51.7965951,31.6501727 C49.1709528,34.1820421 45.6469005,35.5669103 42,35.5 L9.84,35.5 Z"></path>
            <path d="M22.21,52.2 L20.5,52.2 L21.63,51.07 C21.848768,50.871778 21.9405906,50.569185 21.8688732,50.2828146 C21.7971559,49.9964441 21.5735559,49.7728441 21.2871854,49.7011268 C21.000815,49.6294094 20.698222,49.721232 20.5,49.94 L19.27,51.17 L19.27,49.29 C19.2646074,48.8559483 18.9140517,48.5053926 18.48,48.5 C18.0476053,48.5054738 17.6999654,48.8575706 17.7,49.29 L17.7,51.2 L16.43,49.94 C16.231778,49.721232 15.929185,49.6294094 15.6428146,49.7011268 C15.3564441,49.7728441 15.1328441,49.9964441 15.0611268,50.2828146 C14.9894094,50.569185 15.081232,50.871778 15.3,51.07 L16.43,52.2 L14.79,52.2 C14.3565233,52.2157472 14.0102936,52.5663595 14,53 C14.0053926,53.4340517 14.3559483,53.7846074 14.79,53.79 L16.67,53.79 L15.27,55.19 C14.9584934,55.502262 14.9584934,56.007738 15.27,56.32 C15.4218903,56.4766694 15.6318178,56.563536 15.85,56.56 C16.0600662,56.5666236 16.2619923,56.4785105 16.4,56.32 L17.7,55 L17.7,56.71 C17.6659043,57.0116091 17.807626,57.3060823 18.0646125,57.4676017 C18.321599,57.629121 18.648401,57.629121 18.9053875,57.4676017 C19.162374,57.3060823 19.3040957,57.0116091 19.27,56.71 L19.27,55 L20.54,56.26 C20.6918903,56.4166694 20.9018178,56.503536 21.12,56.5 C21.3300662,56.5066236 21.5319923,56.4185105 21.67,56.26 C21.970953,55.9434479 21.970953,55.4465521 21.67,55.13 L20.26,53.73 L22.21,53.73 C22.6167125,53.7133067 22.9512997,53.4041312 23.0000634,53 C23.0026742,52.7887517 22.9206244,52.5852335 22.7721798,52.4349099 C22.6237353,52.2845863 22.4212652,52.1999831 22.21,52.2 L22.21,52.2 Z"></path>
            <path d="M38.21,52.2 L36.5,52.2 L37.63,51.07 C37.9163901,50.7539251 37.9044445,50.2687513 37.6028466,49.9671534 C37.3012487,49.6655555 36.8160749,49.6536099 36.5,49.94 L35.27,51.17 L35.27,49.29 C35.2646074,48.8559483 34.9140517,48.5053926 34.48,48.5 C34.0476053,48.5054738 33.6999654,48.8575706 33.7,49.29 L33.7,51.2 L32.43,49.94 C32.231778,49.721232 31.929185,49.6294094 31.6428146,49.7011268 C31.3564441,49.7728441 31.1328441,49.9964441 31.0611268,50.2828146 C30.9894094,50.569185 31.081232,50.871778 31.3,51.07 L32.43,52.2 L30.79,52.2 C30.3565233,52.2157472 30.0102936,52.5663595 30,53 C30.0053926,53.4340517 30.3559483,53.7846074 30.79,53.79 L32.67,53.79 L31.27,55.19 C30.9584934,55.502262 30.9584934,56.007738 31.27,56.32 C31.4218903,56.4766694 31.6318178,56.563536 31.85,56.56 C32.0600662,56.5666236 32.2619923,56.4785105 32.4,56.32 L33.7,55 L33.7,56.71 C33.6659043,57.0116091 33.807626,57.3060823 34.0646125,57.4676017 C34.321599,57.629121 34.648401,57.629121 34.9053875,57.4676017 C35.162374,57.3060823 35.3040957,57.0116091 35.27,56.71 L35.27,55 L36.54,56.26 C36.6918903,56.4166694 36.9018178,56.503536 37.12,56.5 C37.3300662,56.5066236 37.5319923,56.4185105 37.67,56.26 C37.970953,55.9434479 37.970953,55.4465521 37.67,55.13 L36.26,53.73 L38.26,53.73 C38.6473651,53.6903738 38.9551075,53.3867901 39.0000634,53 C39.0026742,52.7887517 38.9206244,52.5852335 38.7721798,52.4349099 C38.6237353,52.2845863 38.4212652,52.1999831 38.21,52.2 L38.21,52.2 Z"></path>
            <path d="M14.38,41.38 L13.1,41.38 L13.98,40.51 C14.0997929,40.3949736 14.1675074,40.2360765 14.1675074,40.07 C14.1675074,39.9039235 14.0997929,39.7450264 13.98,39.63 C13.8680649,39.504699 13.7080173,39.4330649 13.54,39.4330649 C13.3719827,39.4330649 13.2119351,39.504699 13.1,39.63 L12.1,40.63 L12.1,39.12 C12.1,38.7775835 11.8224165,38.5 11.48,38.5 C11.1375835,38.5 10.86,38.7775835 10.86,39.12 L10.86,40.61 L9.86,39.61 C9.74806493,39.484699 9.58801728,39.4130649 9.42,39.4130649 C9.25198272,39.4130649 9.09193507,39.484699 8.98,39.61 C8.86020709,39.7250264 8.7924926,39.8839235 8.7924926,40.05 C8.7924926,40.2160765 8.86020709,40.3749736 8.98,40.49 L9.86,41.36 L8.62,41.36 C8.27758346,41.36 8,41.6375835 8,41.98 C8,42.3224165 8.27758346,42.6 8.62,42.6 L10.11,42.6 L9,43.71 C8.88020709,43.8250264 8.8124926,43.9839235 8.8124926,44.15 C8.8124926,44.3160765 8.88020709,44.4749736 9,44.59 C9.11973428,44.7017654 9.27626191,44.7657995 9.44,44.77 C9.60335813,44.7640144 9.75928563,44.7002259 9.88,44.59 L10.88,43.59 L10.88,44.87 C10.88,45.2124165 11.1575835,45.49 11.5,45.49 C11.8424165,45.49 12.12,45.2124165 12.12,44.87 L12.12,43.6 L13.12,44.6 C13.2407144,44.7102259 13.3966419,44.7740144 13.56,44.78 C13.7221414,44.7685954 13.8763554,44.7055079 14,44.6 C14.1197929,44.4849736 14.1875074,44.3260765 14.1875074,44.16 C14.1875074,43.9939235 14.1197929,43.8350264 14,43.72 L12.91,42.63 L14.4,42.63 C14.7384999,42.6191219 15.0056372,42.3386277 15,42 C14.9895923,41.6619883 14.7180117,41.3904077 14.38,41.38 Z"></path>
            <path d="M29.38,41.38 L28.1,41.38 L28.98,40.51 C29.0997929,40.3949736 29.1675074,40.2360765 29.1675074,40.07 C29.1675074,39.9039235 29.0997929,39.7450264 28.98,39.63 C28.8680649,39.504699 28.7080173,39.4330649 28.54,39.4330649 C28.3719827,39.4330649 28.2119351,39.504699 28.1,39.63 L27.1,40.63 L27.1,39.12 C27.1,38.7775835 26.8224165,38.5 26.48,38.5 C26.1375835,38.5 25.86,38.7775835 25.86,39.12 L25.86,40.61 L24.86,39.61 C24.7480649,39.484699 24.5880173,39.4130649 24.42,39.4130649 C24.2519827,39.4130649 24.0919351,39.484699 23.98,39.61 C23.8602071,39.7250264 23.7924926,39.8839235 23.7924926,40.05 C23.7924926,40.2160765 23.8602071,40.3749736 23.98,40.49 L24.86,41.36 L23.62,41.36 C23.2775835,41.36 23,41.6375835 23,41.98 C23,42.3224165 23.2775835,42.6 23.62,42.6 L25.11,42.6 L24,43.71 C23.8802071,43.8250264 23.8124926,43.9839235 23.8124926,44.15 C23.8124926,44.3160765 23.8802071,44.4749736 24,44.59 C24.1197343,44.7017654 24.2762619,44.7657995 24.44,44.77 C24.6033581,44.7640144 24.7592856,44.7002259 24.88,44.59 L25.88,43.59 L25.88,44.87 C25.88,45.2124165 26.1575835,45.49 26.5,45.49 C26.8424165,45.49 27.12,45.2124165 27.12,44.87 L27.12,43.6 L28.12,44.6 C28.2407144,44.7102259 28.3966419,44.7740144 28.56,44.78 C28.7221414,44.7685954 28.8763554,44.7055079 29,44.6 C29.1197929,44.4849736 29.1875074,44.3260765 29.1875074,44.16 C29.1875074,43.9939235 29.1197929,43.8350264 29,43.72 L27.91,42.63 L29.4,42.63 C29.7384999,42.6191219 30.0056372,42.3386277 30,42 C29.9895923,41.6619883 29.7180117,41.3904077 29.38,41.38 Z"></path>
            <path d="M44.38,41.38 L43.1,41.38 L43.98,40.51 C44.0997929,40.3949736 44.1675074,40.2360765 44.1675074,40.07 C44.1675074,39.9039235 44.0997929,39.7450264 43.98,39.63 C43.8680649,39.504699 43.7080173,39.4330649 43.54,39.4330649 C43.3719827,39.4330649 43.2119351,39.504699 43.1,39.63 L42.1,40.63 L42.1,39.12 C42.1,38.7775835 41.8224165,38.5 41.48,38.5 C41.1375835,38.5 40.86,38.7775835 40.86,39.12 L40.86,40.61 L39.86,39.61 C39.7480649,39.484699 39.5880173,39.4130649 39.42,39.4130649 C39.2519827,39.4130649 39.0919351,39.484699 38.98,39.61 C38.8602071,39.7250264 38.7924926,39.8839235 38.7924926,40.05 C38.7924926,40.2160765 38.8602071,40.3749736 38.98,40.49 L39.86,41.36 L38.62,41.36 C38.2775835,41.36 38,41.6375835 38,41.98 C38,42.3224165 38.2775835,42.6 38.62,42.6 L40.11,42.6 L39,43.71 C38.8802071,43.8250264 38.8124926,43.9839235 38.8124926,44.15 C38.8124926,44.3160765 38.8802071,44.4749736 39,44.59 C39.1197343,44.7017654 39.2762619,44.7657995 39.44,44.77 C39.6033581,44.7640144 39.7592856,44.7002259 39.88,44.59 L40.88,43.59 L40.88,44.87 C40.88,45.2124165 41.1575835,45.49 41.5,45.49 C41.8424165,45.49 42.12,45.2124165 42.12,44.87 L42.12,43.6 L43.12,44.6 C43.2407144,44.7102259 43.3966419,44.7740144 43.56,44.78 C43.7221414,44.7685954 43.8763554,44.7055079 44,44.6 C44.1197929,44.4849736 44.1875074,44.3260765 44.1875074,44.16 C44.1875074,43.9939235 44.1197929,43.8350264 44,43.72 L42.91,42.63 L44.4,42.63 C44.7384999,42.6191219 45.0056372,42.3386277 45,42 C44.9895923,41.6619883 44.7180117,41.3904077 44.38,41.38 Z"></path>
        </g>
    </g>
</svg>