<?xml version="1.0" encoding="UTF-8"?>
<svg width="64px" height="64px" viewBox="0 0 64 64" version="1.1" xmlns="http://www.w3.org/2000/svg" xmlns:xlink="http://www.w3.org/1999/xlink">
    <!-- Generator: Sketch 64 (93537) - https://sketch.com -->
    <title>410-大到暴雪-Heavy snow to snowstorm</title>
    <desc>Created with Sketch.</desc>
    <g id="410-大到暴雪-Heavy-snow-to-snowstorm" stroke="none" stroke-width="1" fill="none" fill-rule="evenodd" transform="translate(0.000000, 0.000000)">
        <g transform="translate(7.000000, 3.000000)" fill="#FFFFFF" fill-rule="nonzero" id="路径">
            <path d="M30,4.93 L27.67,4.93 L29.17,3.42 C29.3715659,3.2225066 29.4851531,2.9521922 29.4851531,2.67 C29.4851531,2.3878078 29.3715659,2.1174934 29.17,1.92 C28.7536943,1.51086848 28.0863057,1.51086848 27.67,1.92 L26,3.56 L26,1.05 C26,0.470101013 25.529899,-8.8817842e-16 24.95,-8.8817842e-16 C24.370101,-8.8817842e-16 23.9,0.470101013 23.9,1.05 L23.9,3.6 L22.24,1.92 C21.8202941,1.50967093 21.1497059,1.50967093 20.73,1.92 C20.3208685,2.3363057 20.3208685,3.0036943 20.73,3.42 L22.24,4.93 L20.05,4.93 C19.4713533,4.95115842 19.0102378,5.42105711 19,6 C19.0363635,6.55582124 19.4930669,6.99077684 20.05,7 L22.56,7 L20.69,8.9 C20.3869503,9.20834587 20.2992385,9.66876757 20.4676947,10.0669368 C20.636151,10.4651061 21.0276708,10.722776 21.46,10.72 C21.7401672,10.7343452 22.0106991,10.6157559 22.19,10.4 L23.93,8.67 L23.93,11 C24.0161769,11.5043507 24.4533398,11.8731526 24.965,11.8731526 C25.4766602,11.8731526 25.9138231,11.5043507 26,11 L26,8.71 L27.68,10.4 C27.885909,10.6079356 28.167384,10.7234125 28.46,10.72 C28.7398769,10.7327715 29.0097384,10.614476 29.19,10.4 C29.5991315,9.9836943 29.5991315,9.3163057 29.19,8.9 L27.35,7 L30,7 C30.5318336,6.95349629 30.9534963,6.53183356 31.0000657,6 C31.0062524,5.43337614 30.5657518,4.96204051 30,4.93 Z"></path>
            <path d="M34.9,25.86 L30.34,25.86 L33.34,22.86 C34.045737,22.013722 33.9894893,20.768876 33.2103067,19.9896933 C32.431124,19.2105107 31.186278,19.154263 30.34,19.86 L27.05,23.15 L27.05,18.15 C27.1041302,17.3669808 26.7170847,16.6191326 26.0465597,16.2111554 C25.3760347,15.8031782 24.5339653,15.8031782 23.8634403,16.2111554 C23.1929153,16.6191326 22.8058698,17.3669808 22.86,18.15 L22.86,23.26 L19.48,19.88 C18.633722,19.174263 17.388876,19.2305107 16.6096933,20.0096933 C15.8305107,20.788876 15.774263,22.033722 16.48,22.88 L19.48,25.88 L15.1,25.88 C13.950247,25.9218055 13.0309057,26.8499024 13,28 C13.0108484,29.1552746 13.9447254,30.0891516 15.1,30.1 L20.1,30.1 L16.36,33.84 C15.5522934,34.6769025 15.5522934,36.0030975 16.36,36.84 C16.7697628,37.2516432 17.3292472,37.4790465 17.91,37.47 C18.4672426,37.4934572 19.0047649,37.2615126 19.37,36.84 L22.84,33.37 L22.84,37.9 C22.7858698,38.6830192 23.1729153,39.4308674 23.8434403,39.8388446 C24.5139653,40.2468218 25.3560347,40.2468218 26.0265597,39.8388446 C26.6970847,39.4308674 27.0841302,38.6830192 27.03,37.9 L27.03,33.43 L30.41,36.81 C30.8204102,37.2206686 31.3794632,37.4478966 31.96,37.44 C32.5175173,37.4649501 33.0556626,37.2327367 33.42,36.81 C34.2277066,35.9730975 34.2277066,34.6469025 33.42,33.81 L29.7,30.05 L34.9,30.05 C36.0240098,30.0106874 36.9336182,29.1227364 37.0000954,28 C37.0053294,27.4377336 36.7870682,26.8963817 36.3932364,26.4950484 C35.9994046,26.0937151 35.4622669,25.8652794 34.9,25.86 Z"></path>
            <path d="M11,14.93 L8.67,14.93 L10.17,13.42 C10.3715659,13.2225066 10.4851531,12.9521922 10.4851531,12.67 C10.4851531,12.3878078 10.3715659,12.1174934 10.17,11.92 C9.7536943,11.5108685 9.0863057,11.5108685 8.67,11.92 L7,13.56 L7,11.05 C7,10.6748711 6.79987115,10.3282377 6.47500001,10.1406733 C6.15012888,9.95310884 5.74987112,9.95310884 5.42499999,10.1406733 C5.10012885,10.3282377 4.89999998,10.6748711 4.9,11.05 L4.9,13.6 L3.21,11.92 C2.79029412,11.5096709 2.11970588,11.5096709 1.7,11.92 C1.29086848,12.3363057 1.29086848,13.0036943 1.7,13.42 L3.21,14.93 L1.05,14.93 C0.471353303,14.9511584 0.0102377628,15.4210571 8.8817842e-16,16 C0.036363507,16.5558212 0.493066888,16.9907768 1.05,17 L3.56,17 L1.69,18.9 C1.38695033,19.2083459 1.29923849,19.6687676 1.46769473,20.0669368 C1.63615096,20.4651061 2.02767076,20.722776 2.46,20.72 C2.74016717,20.7343452 3.01069905,20.6157559 3.19,20.4 L4.93,18.67 L4.93,21 C4.93,21.5716147 5.39338528,22.035 5.965,22.035 C6.53661472,22.035 7,21.5716147 7,21 L7,18.71 L8.68,20.4 C8.88590903,20.6079356 9.16738405,20.7234125 9.46,20.72 C9.73987694,20.7327715 10.0097384,20.614476 10.19,20.4 C10.5991315,19.9836943 10.5991315,19.3163057 10.19,18.9 L8.35,17 L11,17 C11.5318336,16.9534963 11.9534963,16.5318336 12.0000657,16 C12.0062524,15.4333761 11.5657518,14.9620405 11,14.93 L11,14.93 Z"></path>
            <path d="M49,14.93 L46.67,14.93 L48.17,13.42 C48.3715659,13.2225066 48.4851531,12.9521922 48.4851531,12.67 C48.4851531,12.3878078 48.3715659,12.1174934 48.17,11.92 C47.7536943,11.5108685 47.0863057,11.5108685 46.67,11.92 L45,13.56 L45,11.05 C45,10.470101 44.529899,10 43.95,10 C43.370101,10 42.9,10.470101 42.9,11.05 L42.9,13.6 L41.21,11.92 C40.7902941,11.5096709 40.1197059,11.5096709 39.7,11.92 C39.2908685,12.3363057 39.2908685,13.0036943 39.7,13.42 L41.21,14.93 L39.05,14.93 C38.4713533,14.9511584 38.0102378,15.4210571 38,16 C38.0092232,16.5569331 38.4441788,17.0136365 39,17.05 L41.51,17.05 L39.69,18.9 C39.3869503,19.2083459 39.2992385,19.6687676 39.4676947,20.0669368 C39.636151,20.4651061 40.0276708,20.722776 40.46,20.72 C40.7401672,20.7343452 41.0106991,20.6157559 41.19,20.4 L42.93,18.67 L42.93,21 C42.93,21.5716147 43.3933853,22.035 43.965,22.035 C44.5366147,22.035 45,21.5716147 45,21 L45,18.71 L46.68,20.4 C46.885909,20.6079356 47.167384,20.7234125 47.46,20.72 C47.7398769,20.7327715 48.0097384,20.614476 48.19,20.4 C48.5991315,19.9836943 48.5991315,19.3163057 48.19,18.9 L46.35,17 L49,17 C49.5318336,16.9534963 49.9534963,16.5318336 50.0000657,16 C50.0062524,15.4333761 49.5657518,14.9620405 49,14.93 L49,14.93 Z"></path>
            <path d="M49,39.93 L46.67,39.93 L48.17,38.42 C48.3715659,38.2225066 48.4851531,37.9521922 48.4851531,37.67 C48.4851531,37.3878078 48.3715659,37.1174934 48.17,36.92 C47.7536943,36.5108685 47.0863057,36.5108685 46.67,36.92 L45,38.56 L45,36.05 C45,35.470101 44.529899,35 43.95,35 C43.370101,35 42.9,35.470101 42.9,36.05 L42.9,38.6 L41.21,36.92 C40.7902941,36.5096709 40.1197059,36.5096709 39.7,36.92 C39.2908685,37.3363057 39.2908685,38.0036943 39.7,38.42 L41.21,39.93 L39.05,39.93 C38.5163158,39.9725145 38.0925145,40.3963158 38.05,40.93 C38.0592232,41.4869331 38.4941788,41.9436365 39.05,41.98 L41.56,41.98 L39.69,43.9 C39.3869503,44.2083459 39.2992385,44.6687676 39.4676947,45.0669368 C39.636151,45.4651061 40.0276708,45.722776 40.46,45.72 C40.7401672,45.7343452 41.0106991,45.6157559 41.19,45.4 L42.93,43.67 L42.93,46 C42.8596341,46.4118169 43.0401068,46.8261679 43.3895664,47.0551276 C43.7390259,47.2840873 44.1909741,47.2840873 44.5404336,47.0551276 C44.8898932,46.8261679 45.0703659,46.4118169 45,46 L45,43.71 L46.68,45.4 C46.885909,45.6079356 47.167384,45.7234125 47.46,45.72 C47.7398769,45.7327715 48.0097384,45.614476 48.19,45.4 C48.5991315,44.9836943 48.5991315,44.3163057 48.19,43.9 L46.35,42 L49,42 C49.5318336,41.9534963 49.9534963,41.5318336 50.0000657,41 C50.0062524,40.4333761 49.5657518,39.9620405 49,39.93 L49,39.93 Z"></path>
            <path d="M30,48.93 L27.67,48.93 L29.17,47.42 C29.3715659,47.2225066 29.4851531,46.9521922 29.4851531,46.67 C29.4851531,46.3878078 29.3715659,46.1174934 29.17,45.92 C28.7536943,45.5108685 28.0863057,45.5108685 27.67,45.92 L26,47.56 L26,45.05 C26,44.470101 25.529899,44 24.95,44 C24.370101,44 23.9,44.470101 23.9,45.05 L23.9,47.6 L22.21,45.92 C21.7902941,45.5096709 21.1197059,45.5096709 20.7,45.92 C20.2908685,46.3363057 20.2908685,47.0036943 20.7,47.42 L22.21,48.93 L20.05,48.93 C19.4713533,48.9511584 19.0102378,49.4210571 19,50 C19.0363635,50.5558212 19.4930669,50.9907768 20.05,51 L22.56,51 L20.69,52.9 C20.3869503,53.2083459 20.2992385,53.6687676 20.4676947,54.0669368 C20.636151,54.4651061 21.0276708,54.722776 21.46,54.72 C21.7401672,54.7343452 22.0106991,54.6157559 22.19,54.4 L23.93,52.67 L23.93,55 C23.8596341,55.4118169 24.0401068,55.8261679 24.3895664,56.0551276 C24.7390259,56.2840873 25.1909741,56.2840873 25.5404336,56.0551276 C25.8898932,55.8261679 26.0703659,55.4118169 26,55 L26,52.71 L27.68,54.4 C27.885909,54.6079356 28.167384,54.7234125 28.46,54.72 C28.7398769,54.7327715 29.0097384,54.614476 29.19,54.4 C29.5991315,53.9836943 29.5991315,53.3163057 29.19,52.9 L27.35,51 L30,51 C30.5318336,50.9534963 30.9534963,50.5318336 31.0000657,50 C31.0062524,49.4333761 30.5657518,48.9620405 30,48.93 L30,48.93 Z"></path>
            <path d="M11,39.93 L8.67,39.93 L10.17,38.42 C10.3715659,38.2225066 10.4851531,37.9521922 10.4851531,37.67 C10.4851531,37.3878078 10.3715659,37.1174934 10.17,36.92 C9.7536943,36.5108685 9.0863057,36.5108685 8.67,36.92 L7,38.56 L7,36.05 C7,35.470101 6.52989899,35 5.95,35 C5.37010101,35 4.9,35.470101 4.9,36.05 L4.9,38.6 L3.21,36.92 C2.79029412,36.5096709 2.11970588,36.5096709 1.7,36.92 C1.29086848,37.3363057 1.29086848,38.0036943 1.7,38.42 L3.21,39.93 L1.05,39.93 C0.471353303,39.9511584 0.0102377628,40.4210571 8.8817842e-16,41 C0.036363507,41.5558212 0.493066888,41.9907768 1.05,42 L3.56,42 L1.69,43.9 C1.38695033,44.2083459 1.29923849,44.6687676 1.46769473,45.0669368 C1.63615096,45.4651061 2.02767076,45.722776 2.46,45.72 C2.74016717,45.7343452 3.01069905,45.6157559 3.19,45.4 L4.93,43.67 L4.93,46 C4.85963406,46.4118169 5.04010679,46.8261679 5.38956636,47.0551276 C5.73902593,47.2840873 6.19097407,47.2840873 6.54043364,47.0551276 C6.88989321,46.8261679 7.07036594,46.4118169 7,46 L7,43.71 L8.68,45.4 C8.88590903,45.6079356 9.16738405,45.7234125 9.46,45.72 C9.73987694,45.7327715 10.0097384,45.614476 10.19,45.4 C10.5991315,44.9836943 10.5991315,44.3163057 10.19,43.9 L8.35,42 L11,42 C11.5318336,41.9534963 11.9534963,41.5318336 12.0000657,41 C12.0062524,40.4333761 11.5657518,39.9620405 11,39.93 L11,39.93 Z"></path>
        </g>
    </g>
</svg>