<?xml version="1.0" encoding="utf-8"?>
<!-- Generator: Adobe Illustrator 21.0.0, SVG Export Plug-In . SVG Version: 6.00 Build 0)  -->
<svg version="1.1" id="图层_1" opacity="0.8" xmlns="http://www.w3.org/2000/svg" xmlns:xlink="http://www.w3.org/1999/xlink"
	 x="0px" y="0px" viewBox="0 0 16 16" style="enable-background:new 0 0 16 16;" xml:space="preserve">
<style type="text/css">
	.st0{fill:#1F2022;}
	.st1{fill:none;stroke:#1F2022;stroke-linecap:round;stroke-miterlimit:10;}
</style>
<g id="图层_5_x5F_复制_x5F_2">
	<g>
		<path class="st0" d="M14.4,12.1l-1.2,0.5l1.2,0.5c0.3,0.1,0.5,0.2,0.6,0.3c0,0.1,0.1,0.1,0.1,0.2c0,0.2,0,0.3-0.1,0.3
			s-0.1,0-0.2,0c-0.1,0-0.1,0-0.2-0.1c-0.1,0-0.2-0.1-0.3-0.2l-1.1-1l0.3,1.5c0,0.1,0,0.1,0,0.2s0,0.1,0,0.1c0,0.1,0,0.3-0.1,0.3
			C13.2,15,13.1,15,13,15s-0.2,0-0.2-0.1c-0.1,0-0.1-0.2-0.1-0.3v-0.1c0,0,0-0.1,0-0.2l0.3-1.5l-1.1,1c-0.1,0-0.2,0.1-0.2,0.1
			c-0.1,0-0.2,0.1-0.2,0.1c-0.1,0-0.1,0-0.2-0.1c-0.1,0-0.1-0.1-0.1-0.3c0-0.1,0-0.2,0.1-0.3s0.2-0.2,0.5-0.3l1.2-0.5L11.8,12
			c-0.2-0.1-0.3-0.1-0.4-0.2c-0.1-0.1-0.2-0.2-0.2-0.3s0-0.2,0.1-0.3s0.1-0.1,0.2-0.1c0.1,0,0.2,0,0.2,0.1c0.1,0,0.2,0.1,0.2,0.2
			l1.1,1L12.7,11c0-0.1,0-0.1,0-0.2v-0.1c0-0.1,0-0.2,0.1-0.3s0.2-0.1,0.3-0.1s0.2,0,0.3,0.1c0,0.1,0.1,0.2,0.1,0.3c0,0,0,0.1,0,0.2
			c0,0.1,0,0.1,0,0.2l-0.3,1.5l1.1-1c0.1-0.1,0.2-0.2,0.3-0.2s0.1,0,0.2,0c0.1,0,0.2,0,0.2,0.1c0.1,0.1,0.1,0.2,0.1,0.3
			s0,0.2-0.1,0.2C14.9,11.9,14.7,12,14.4,12.1z"/>
	</g>
</g>
<g id="图层_5_x5F_复制2_x5F_2">
	<g>
		<path class="st0" d="M4.4,12.1l-1.2,0.5l1.2,0.5c0.3,0.1,0.5,0.2,0.6,0.3c0,0.1,0,0.1,0,0.2c0,0.2,0,0.3-0.1,0.3s-0.1,0-0.2,0
			s-0.1,0-0.2-0.1c-0.1,0-0.2-0.1-0.3-0.2l-1.1-1l0.3,1.5c0,0.1,0,0.1,0,0.2s0,0.1,0,0.1c0,0.1,0,0.3-0.1,0.3C3.2,15,3.1,15,3,15
			s-0.2,0-0.2-0.1c-0.1,0-0.1-0.2-0.1-0.3v-0.1c0,0,0-0.1,0-0.2L3,12.8l-1.1,1c-0.1,0-0.2,0.1-0.2,0.1c-0.1,0-0.2,0.1-0.2,0.1
			s-0.1,0-0.2-0.1C1,13.9,1,13.8,1,13.6c0-0.1,0-0.2,0.1-0.3s0.2-0.2,0.5-0.3l1.2-0.5L1.6,12c-0.2-0.1-0.3-0.1-0.4-0.2
			c-0.1,0.1-0.2,0-0.2-0.2c0-0.1,0-0.2,0.1-0.3s0.1-0.1,0.2-0.1s0.2,0,0.2,0.1s0.2,0.1,0.2,0.2l1.1,1L2.7,11c0-0.1,0-0.1,0-0.2v-0.1
			c0-0.1,0-0.2,0.1-0.3s0.2-0.1,0.3-0.1s0.2,0,0.3,0.1c0,0.1,0.1,0.2,0.1,0.3c0,0,0,0.1,0,0.2c0,0.1,0,0.1,0,0.2l-0.3,1.5l1.1-1
			c0.1-0.1,0.2-0.2,0.3-0.2c0.1,0,0.1,0,0.2,0s0.2,0,0.2,0.1c0-0.1,0,0,0,0.1s0,0.2-0.1,0.2C4.9,11.9,4.7,12,4.4,12.1z"/>
	</g>
	<circle class="st0" cx="6.5" cy="13.5" r="0.5"/>
	<circle class="st0" cx="9.5" cy="13.5" r="0.5"/>
	<circle class="st0" cx="7.5" cy="15.5" r="0.5"/>
</g>
<g id="图层_5_x5F_复制">
	<g>
		<path class="st0" d="M10.1,8.2L8.2,8.9l1.9,0.7c0.5,0.2,0.8,0.3,0.8,0.4c0.1,0.1,0.1,0.2,0.1,0.3c0,0.3-0.1,0.4-0.2,0.5
			c-0.1,0-0.2,0.1-0.3,0.1s-0.2,0-0.3-0.1s-0.2-0.1-0.4-0.2L8.1,9.1l0.4,2.3c0,0.1,0.1,0.2,0.1,0.3s0,0.2,0,0.2
			c0,0.2-0.1,0.4-0.2,0.5c-0.1,0.1-0.2,0.1-0.4,0.1c-0.1,0-0.2,0-0.4-0.1s-0.2-0.2-0.2-0.5c0-0.1,0-0.1,0.1-0.2c0-0.1,0-0.2,0-0.3
			l0.4-2.3l-1.7,1.5c-0.1,0.1-0.2,0.1-0.4,0.2s-0.2,0.1-0.4,0.1s-0.2,0-0.3-0.1S5,10.6,5,10.4c0-0.1,0.1-0.3,0.2-0.4
			C5.3,9.9,5.6,9.8,6,9.6l1.9-0.7l-2-0.7C5.7,8.1,5.5,8,5.3,7.9C5.1,7.8,5,7.7,5,7.5s0.1-0.3,0.2-0.4C5.3,7,5.4,6.9,5.5,6.9
			S5.7,7,5.9,7C6,7.1,6.1,7.2,6.2,7.3l1.7,1.5L7.5,6.5c0-0.1,0-0.2,0-0.3c0-0.1-0.1-0.1-0.1-0.2s0.1-0.3,0.2-0.4
			C7.8,5.5,7.9,5.4,8,5.4c0.2,0,0.4,0.1,0.4,0.2C8.5,5.8,8.6,5.9,8.6,6s0,0.2,0,0.2c0,0.1,0,0.2-0.1,0.2L8.1,8.8l1.7-1.5
			C9.9,7.1,10.1,7,10.2,7c0.1,0,0.2-0.1,0.3-0.1s0.3,0.1,0.4,0.2C11,7.2,11,7.3,11,7.5c0,0.1,0,0.3-0.1,0.3
			C10.8,7.9,10.5,8.1,10.1,8.2z"/>
	</g>
</g>
<g id="图层_3">
	<g id="云_2_">
		<path class="st1" d="M3.9,9.2C2,9.2,0.5,7.6,0.5,5.8S2,2.4,3.9,2.4c0.7,0,1.4,0.2,1.9,0.6"/>
		<path class="st1" d="M13.2,3.5c1.3,0.4,2.3,1.6,2.3,3c0,1.7-1.4,3.1-3,3.1"/>
		<path class="st1" d="M5.8,3c0.6-1.5,2-2.5,3.7-2.5c1.9,0,3.5,1.3,3.8,3.2"/>
	</g>
</g>
</svg>
