<?xml version="1.0" encoding="UTF-8"?>
<svg width="65px" height="64px" viewBox="0 0 65 64" version="1.1" xmlns="http://www.w3.org/2000/svg" xmlns:xlink="http://www.w3.org/1999/xlink">
    <!-- Generator: Sketch 64 (93537) - https://sketch.com -->
    <title>499-雪-snow</title>
    <desc>Created with Sketch.</desc>
    <g id="499-雪-snow" stroke="none" stroke-width="1" fill="none" fill-rule="evenodd" transform="translate(1.000000, 0.000000)">
        <g transform="translate(7.000000, 5.000000)" fill="#FFFFFF" fill-rule="nonzero" id="路径">
            <path d="M47.92,30.44 L37.51,33.21 L26.67,27 L37.51,20.8 L47.92,23.56 C47.992965,23.5703938 48.067035,23.5703938 48.14,23.56 C48.5770527,23.5822793 48.9579883,23.2652765 49.0154834,22.8314496 C49.0729785,22.3976227 48.7877682,21.9923355 48.36,21.9 L39.59,19.6 L47.35,15.15 C47.7495271,14.9152512 47.8874103,14.4037493 47.66,14 C47.4213969,13.5991702 46.9067499,13.4616352 46.5,13.69 L38.69,18.16 L41,9.47 C41.146028,9.16614494 41.0986795,8.80470488 40.8793122,8.54871651 C40.6599448,8.29272813 40.3100221,8.19057678 39.9873855,8.28834041 C39.6647489,8.38610404 39.4303813,8.66530397 39.39,9 L36.6,19.36 L25.82,25.54 L25.82,13.12 L33.44,5.56 C33.6032794,5.40515971 33.6957527,5.19002375 33.6957527,4.965 C33.6957527,4.73997625 33.6032794,4.52484029 33.44,4.37 C33.2834065,4.20617012 33.0666313,4.11349804 32.84,4.11349804 C32.6133687,4.11349804 32.3965935,4.20617012 32.24,4.37 L25.82,10.74 L25.82,1.84 C25.82,1.37055796 25.439442,0.99 24.97,0.99 C24.500558,0.99 24.12,1.37055796 24.12,1.84 L24.12,10.84 L17.7,4.42 C17.3636193,4.12105619 16.8525278,4.13610131 16.5343146,4.45431458 C16.2161013,4.77252784 16.2010562,5.28361933 16.5,5.62 L24.12,13.18 L24.12,25.54 L13.29,19.33 L10.5,9 C10.3734609,8.54613208 9.90526761,8.27859306 9.45,8.4 C9.01681562,8.52194529 8.75374731,8.96039247 8.85,9.4 L11.2,18.1 L3.44,13.69 C3.03325008,13.4616352 2.5186031,13.5991702 2.28,14 C2.1680117,14.193471 2.13776049,14.4236007 2.1959436,14.6394413 C2.25412671,14.8552819 2.39594438,15.0390278 2.59,15.15 L10.4,19.63 L1.63,22 C1.18793076,22.113371 0.911400572,22.5523078 1,23 C1.10020021,23.369321 1.43735117,23.62424 1.82,23.62 L2.04,23.62 L12.45,20.85 L23.27,27 L12.48,33.18 L2.07,30.41 C1.77148485,30.3141647 1.44445234,30.3904365 1.21913251,30.6084426 C0.993812683,30.8264488 0.906794994,31.1507874 0.9927314,31.4523013 C1.07866781,31.7538152 1.32360318,31.9835418 1.63,32.05 L10.4,34.38 L2.6,38.85 C2.27646288,39.0422871 2.11789794,39.4244453 2.21026613,39.7892997 C2.30263433,40.1541541 2.62394103,40.4148258 3,40.43 C3.15016264,40.428976 3.29779201,40.3912103 3.43,40.32 L11.18,35.88 L8.84,44.57 C8.73833468,45.0104789 9.00349969,45.4524205 9.44,45.57 L9.66,45.57 C10.035171,45.5864166 10.376655,45.3546954 10.5,45 L13.29,34.65 L24.12,28.44 L24.12,40.83 L16.5,48.39 C16.3418382,48.5476136 16.2529376,48.7617128 16.2529376,48.985 C16.2529376,49.2082872 16.3418382,49.4223864 16.5,49.58 C16.8317062,49.9105604 17.3682938,49.9105604 17.7,49.58 L24.12,43.21 L24.12,52.16 C24.12,52.629442 24.500558,53.01 24.97,53.01 C25.439442,53.01 25.82,52.629442 25.82,52.16 L25.82,43.27 L32.24,49.64 C32.3995939,49.7986162 32.6149963,49.8883672 32.84,49.89 C33.067634,49.8868161 33.2856038,49.7974843 33.45,49.64 C33.6081618,49.4823864 33.6970624,49.2682872 33.6970624,49.045 C33.6970624,48.8217128 33.6081618,48.6076136 33.45,48.45 L25.82,40.88 L25.82,28.46 L36.61,34.65 L39.4,45 C39.5261608,45.4291574 39.9633485,45.6870981 40.4,45.59 C40.8340018,45.4680661 41.1001904,45.0316912 41.01,44.59 L38.7,35.84 L46.51,40.31 C46.6390744,40.3800162 46.7831755,40.4177569 46.93,40.42 C47.311464,40.4175756 47.6445922,40.1613115 47.7447669,39.7932277 C47.8449416,39.4251438 47.6876246,39.0354042 47.36,38.84 L39.6,34.4 L48.37,32.07 C48.8031844,31.9480547 49.0662527,31.5096075 48.97,31.07 C48.8520468,30.6075466 48.3835545,30.3264512 47.92,30.44 Z"></path>
        </g>
    </g>
</svg>