<?xml version="1.0" encoding="UTF-8"?>
<svg width="64px" height="64px" viewBox="0 0 64 64" version="1.1" xmlns="http://www.w3.org/2000/svg" xmlns:xlink="http://www.w3.org/1999/xlink">
    <!-- Generator: Sketch 64 (93537) - https://sketch.com -->
    <title>501-雾-Foggy</title>
    <desc>Created with Sketch.</desc>
    <g id="501-雾-Foggy" stroke="none" stroke-width="1" fill="none" fill-rule="evenodd">
        <g transform="translate(4.000000, 6.000000)" fill-rule="nonzero">
            <path d="M9.84,35 C4.50291472,35.0947508 0.0985206038,30.847017 0,25.51 C0.0420686109,22.9434804 1.10283505,20.4989924 2.94856816,18.7151589 C4.79430128,16.9313253 7.27353839,15.9545294 9.84,16 L9.84,16 C9.84,15.83 9.84,15.65 9.84,15.48 C9.84,6.94 17,-8.8817842e-16 25.92,-8.8817842e-16 C31.7641997,-0.0449928159 37.1778656,3.06710041 40.08,8.14 C40.7163707,8.05254254 41.3576737,8.00578087 42,8 C49.5922265,7.8662234 55.8576985,13.9079285 56,21.5 C55.9342953,25.1469225 54.4222375,28.6183033 51.7965951,31.1501727 C49.1709528,33.6820421 45.6469005,35.0669103 42,35 L9.84,35 Z" id="路径" fill="#FFFFFF"></path>
            <g id="编组" opacity="0.9" transform="translate(8.000000, 40.000000)" fill="#3DD0FF">
                <path d="M37.53,3 L2.47,3 C1.64157288,3 0.97,2.32842712 0.97,1.5 C0.97,0.671572875 1.64157288,0 2.47,0 L37.53,0 C38.3584271,0 39.03,0.671572875 39.03,1.5 C39.03,2.32842712 38.3584271,3 37.53,3 Z" id="路径"></path>
            </g>
            <g id="编组" opacity="0.9" transform="translate(8.000000, 48.000000)" fill="#3DD0FF">
                <path d="M37.53,3 L2.47,3 C1.64157288,3 0.97,2.32842712 0.97,1.5 C0.97,0.671572875 1.64157288,0 2.47,0 L37.53,0 C38.3584271,0 39.03,0.671572875 39.03,1.5 C39.03,2.32842712 38.3584271,3 37.53,3 Z" id="路径"></path>
            </g>
        </g>
    </g>
</svg>