<?xml version="1.0" encoding="UTF-8"?>
<svg width="65px" height="64px" viewBox="0 0 65 64" version="1.1" xmlns="http://www.w3.org/2000/svg" xmlns:xlink="http://www.w3.org/1999/xlink">
    <!-- Generator: Sketch 64 (93537) - https://sketch.com -->
    <title>502-霾-Haze</title>
    <desc>Created with Sketch.</desc>
    <g id="502-霾-Haze" stroke="none" stroke-width="1" fill="none" fill-rule="evenodd" transform="translate(0.000000, 0.000000)">
        <g transform="translate(4.000000, 6.000000)" fill-rule="nonzero">
            <path d="M9.84,35.5 C7.27524203,35.5454853 4.79750098,34.5700561 2.95205559,32.7883761 C1.10661019,31.0066961 0.0446926039,28.5647719 0,26 C0.0985206038,20.662983 4.50291472,16.4152492 9.84,16.51 L9.84,16.51 C9.84,16.34 9.84,16.16 9.84,15.99 C9.84,7.43 17.04,0.49 25.92,0.49 C31.7641997,0.445007184 37.1778656,3.55710041 40.08,8.63 C40.7167988,8.54923108 41.3581,8.50914977 42,8.51 C49.5883964,8.3761855 55.8522564,14.411862 56,22 C55.9342953,25.6469225 54.4222375,29.1183033 51.7965951,31.6501727 C49.1709528,34.1820421 45.6469005,35.5669103 42,35.5 L9.84,35.5 Z" id="路径" fill="#FFFFFF"></path>
            <g id="编组" opacity="0.9" transform="translate(8.000000, 40.000000)" fill="#A1A1A1">
                <path d="M37.53,3.5 L2.47,3.5 C1.64157288,3.5 0.97,2.82842712 0.97,2 C0.97,1.17157288 1.64157288,0.5 2.47,0.5 L37.53,0.5 C38.3584271,0.5 39.03,1.17157288 39.03,2 C39.03,2.82842712 38.3584271,3.5 37.53,3.5 Z" id="路径"></path>
            </g>
            <g id="编组" opacity="0.9" transform="translate(8.000000, 48.000000)" fill="#A1A1A1">
                <path d="M37.53,3.5 L2.47,3.5 C1.64157288,3.5 0.97,2.82842712 0.97,2 C0.97,1.17157288 1.64157288,0.5 2.47,0.5 L37.53,0.5 C38.3584271,0.5 39.03,1.17157288 39.03,2 C39.03,2.82842712 38.3584271,3.5 37.53,3.5 L37.53,3.5 Z" id="路径"></path>
            </g>
        </g>
    </g>
</svg>