<?xml version="1.0" encoding="utf-8"?>
<!-- Generator: Adobe Illustrator 21.0.0, SVG Export Plug-In . SVG Version: 6.00 Build 0)  -->
<svg version="1.1" id="图层_1" opacity="0.8" xmlns="http://www.w3.org/2000/svg" xmlns:xlink="http://www.w3.org/1999/xlink"
	 x="0px" y="0px" viewBox="0 0 16 16" style="enable-background:new 0 0 16 16;" xml:space="preserve">
<style type="text/css">
	.st0{fill:#1F2022;}
</style>
<g id="图层_3">
	<g>
		<path class="st0" d="M4.1,5c1.7,0,3.1,1.1,3.1,2.5S5.8,10,4.1,10S1,8.9,1,7.5S2.4,5,4.1,5 M4.1,4C1.8,4,0,5.6,0,7.5S1.8,11,4.1,11
			s4.1-1.6,4.1-3.5S6.4,4,4.1,4L4.1,4z"/>
	</g>
	<g>
		<path class="st0" d="M12,5c1.7,0,3,1.1,3,2.5S13.7,10,12,10S9,8.9,9,7.5S10.3,5,12,5 M12,4C9.8,4,8,5.6,8,7.5S9.8,11,12,11
			s4-1.6,4-3.5S14.2,4,12,4L12,4z"/>
	</g>
</g>
</svg>
