<?xml version="1.0" encoding="UTF-8"?>
<svg width="64px" height="64px" viewBox="0 0 64 64" version="1.1" xmlns="http://www.w3.org/2000/svg" xmlns:xlink="http://www.w3.org/1999/xlink">
    <!-- Generator: Sketch 64 (93537) - https://sketch.com -->
    <title>508-强沙尘暴-Sandstorm</title>
    <desc>Created with Sketch.</desc>
    <g id="508-强沙尘暴-Sandstorm" stroke="none" stroke-width="1" fill="none" fill-rule="evenodd">
        <g transform="translate(7.000000, 4.000000)" fill-rule="nonzero">
            <path d="M9,1 C7.91738219,1.05691593 7.07722188,1.96602091 7.10568966,3.04975996 C7.13415744,4.13349901 8.02088712,4.99724185 9.105,4.99724185 C10.1891129,4.99724185 11.0758426,4.13349901 11.1043103,3.04975996 C11.1327781,1.96602091 10.2926178,1.05691593 9.21,1 L9,1 Z" id="路径" fill="#D6C8B1"></path>
            <path d="M38,4.00002554 L37.79,4.00002554 C37.2616655,3.95223435 36.7766381,3.688003 36.45,3.27 C35.819634,2.41048328 35.9741077,1.20763127 36.8011998,0.535285437 C37.6282919,-0.137060395 38.8373394,-0.0426191509 39.55,0.75 C39.8847522,1.15539988 40.0464131,1.67630744 40,2.2 C39.896916,3.22580259 39.0309561,4.0051665 38,4.00002554 Z" id="路径" fill="#D6C8B1"></path>
            <path d="M46,12.07 C46.038336,13.1646361 46.9500244,14.024801 48.0450385,13.9994645 C49.1400526,13.9741279 50.0109814,13.0727166 49.9986478,11.9774788 C49.9863142,10.882241 49.095307,10.0006711 48,10 C47.4794317,10.0127241 46.9843512,10.2279765 46.62,10.6 C46.228911,10.9899731 46.0063149,11.5177412 46,12.07 L46,12.07 Z" id="路径" fill="#D6C8B1"></path>
            <path d="M42,27.07 C42.038336,28.1646361 42.9500244,29.024801 44.0450385,28.9994645 C45.1400526,28.9741279 46.0109814,28.0727166 45.9986478,26.9774788 C45.9863142,25.882241 45.095307,25.0006711 44,25 C43.4794317,25.0127241 42.9843512,25.2279765 42.62,25.6 C42.228911,25.9899731 42.0063149,26.5177412 42,27.07 L42,27.07 Z" id="路径" fill="#D6C8B1"></path>
            <path d="M2,11 C0.8954305,11 0,10.1045695 0,9 C0,7.8954305 0.8954305,7 2,7 L2.2,7 C2.72712468,7.0592095 3.20913798,7.32539595 3.54,7.74 C4.02442684,8.33711445 4.12364731,9.15907223 3.79522312,9.85430785 C3.46679893,10.5495435 2.76888845,10.9949425 2,11 Z" id="路径" fill="#D6C8B1"></path>
            <path d="M5,38.18 C3.8954305,38.18 3,37.2845695 3,36.18 C3,35.0754305 3.8954305,34.18 5,34.18 L5.21,34.18 C5.73712468,34.2392095 6.21913798,34.5053959 6.55,34.92 C7.03553897,35.5185174 7.1339779,36.3427667 6.80304458,37.0387942 C6.47211127,37.7348217 5.77069424,38.1787714 5,38.18 L5,38.18 Z" id="路径" fill="#D6C8B1"></path>
            <path d="M31,9 C30.9336977,9.00985751 30.8663023,9.00985751 30.8,9 C30.2741516,8.9595687 29.7887672,8.70238741 29.46,8.29 C28.7669762,7.44978883 28.8736665,6.20951377 29.7,5.5 C30.1164764,5.14876221 30.6582168,4.98262849 31.2,5.04 C32.286042,5.14564589 33.0869639,6.10230261 33,7.19 L33,7.19 C32.9017384,8.21976607 32.034433,9.0046775 31,9 Z" id="路径" fill="#D6C8B1"></path>
            <path d="M16.51,8 L16.36,8 C15.5371933,7.91958817 14.9345706,7.18858661 15.0125929,6.36554986 C15.0906152,5.5425131 15.8198638,4.93777035 16.6431236,5.01340242 C17.4663835,5.08903449 18.0732412,5.81652401 18,6.64 L18,6.64 C17.9278677,7.40949415 17.2828655,7.99822099 16.51,8 Z" id="路径" fill="#D6C8B1"></path>
            <path d="M41.51,37 L41.36,37 C40.5371933,36.9195882 39.9345706,36.1885866 40.0125929,35.3655499 C40.0906152,34.5425131 40.8198638,33.9377703 41.6431236,34.0134024 C42.4663835,34.0890345 43.0732412,34.816524 43,35.64 L43,35.64 C42.9278677,36.4094941 42.2828655,36.998221 41.51,37 L41.51,37 Z" id="路径" fill="#D6C8B1"></path>
            <path d="M3.51,28 L3.36,28 C2.53719327,27.9195882 1.93457061,27.1885866 2.01259289,26.3655499 C2.09061517,25.5425131 2.81986379,24.9377703 3.64312363,25.0134024 C4.46638347,25.0890345 5.07324122,25.816524 5,26.64 L5,26.64 C4.92786774,27.4094941 4.28286554,27.998221 3.51,28 L3.51,28 Z" id="路径" fill="#D6C8B1"></path>
            <path d="M23.51,4 L23.36,4 C22.5371933,3.91958817 21.9345706,3.18858661 22.0125929,2.36554986 C22.0906152,1.5425131 22.8198638,0.937770347 23.6431236,1.01340242 C24.4663835,1.08903449 25.0732412,1.81652401 25,2.64 L25,2.64 C24.9278677,3.40949415 24.2828655,3.99822099 23.51,4 L23.51,4 Z" id="路径" fill="#D6C8B1"></path>
            <path d="M14,18 C14,19.1045695 14.8954305,20 16,20 C17.1045695,20 18,19.1045695 18,18 C18,16.8954305 17.1045695,16 16,16 C14.8954305,16 14,16.8954305 14,18 Z" id="路径" fill="#D6C8B1"></path>
            <path d="M23.51,27.9 C22.8762089,27.8426781 22.3907926,27.311378 22.3907926,26.675 C22.3907926,26.038622 22.8762089,25.5073219 23.51,25.45 C26.1621224,25.4985513 28.804138,25.1100196 31.33,24.3 C33.45,23.53 33.92,22.75 33.92,22.5 C33.92,22.25 33.45,21.5 31.33,20.71 C28.8034888,19.9037255 26.1615455,19.5185829 23.51,19.57 C22.8306898,19.57 22.28,19.0193102 22.28,18.34 C22.28,17.6606898 22.8306898,17.11 23.51,17.11 C26.434814,17.0616549 29.3474758,17.4975404 32.13,18.4 C35.62,19.65 36.34,21.32 36.34,22.5 C36.34,23.68 35.61,25.36 32.13,26.61 C29.3486301,27.5173562 26.4351437,27.9533652 23.51,27.9 Z" id="路径" fill="#FFFFFF"></path>
            <path d="M23,27.9 C18.3128934,27.9887131 13.6511981,27.1914072 9.26,25.55 C5.26,23.89 3,21.55 3,18.95 C3,16.35 5.23,14.01 9.26,12.36 C13.6505401,10.7151842 18.3122556,9.91448201 23,10 C27.6877444,9.91448201 32.3494599,10.7151842 36.74,12.36 C40.78,14 43,16.36 43,19 C43,21.64 40.78,23.94 36.74,25.6 C32.345516,27.2243705 27.6839202,28.0046958 23,27.9 L23,27.9 Z M23,12.46 C18.6251128,12.3726249 14.2728127,13.1087505 10.17,14.63 C7.17,15.85 5.43,17.47 5.43,18.95 C5.43,20.43 7.2,22.05 10.17,23.27 C14.2728127,24.7912495 18.6251128,25.5273751 23,25.44 C27.3748872,25.5273751 31.7271873,24.7912495 35.83,23.27 C38.83,22.05 40.57,20.44 40.57,18.95 C40.57,17.46 38.8,15.85 35.83,14.63 C31.7271873,13.1087505 27.3748872,12.3726249 23,12.46 L23,12.46 Z M23,54 C20.8581693,54.0423588 18.7368152,53.5762777 16.81,52.64 C14.88,51.64 13.81,50.2 13.81,48.64 C13.81,48.2077086 14.0406247,47.8082549 14.415,47.5921092 C14.7893753,47.3759635 15.2506247,47.3759635 15.625,47.5921092 C15.9993753,47.8082549 16.23,48.2077086 16.23,48.64 C16.23,49.26 16.86,49.95 17.91,50.5 C19.5037836,51.2344883 21.2458404,51.5904292 23,51.54 C24.7539428,51.5763741 26.492548,51.2067494 28.08,50.46 C29.13,49.91 29.75,49.22 29.75,48.6 C29.7081892,48.1396052 29.9301917,47.6951263 30.3233867,47.4520025 C30.7165817,47.2088787 31.2134183,47.2088787 31.6066133,47.4520025 C31.9998083,47.6951263 32.2218108,48.1396052 32.18,48.6 C32.18,50.2 31.12,51.6 29.18,52.6 C27.2596045,53.5485521 25.1416972,54.028337 23,54 L23,54 Z M23,45.74 C20.037742,45.7947297 17.0920935,45.2856891 14.32,44.24 C11.64,43.14 10.17,41.54 10.17,39.73 C10.17,39.0617355 10.7117355,38.52 11.38,38.52 C12.0482645,38.52 12.59,39.0617355 12.59,39.73 C12.59,40.43 13.59,41.31 15.24,41.97 C17.7219312,42.8883013 20.3541567,43.332659 23,43.28 C25.643878,43.3413096 28.2758707,42.9071665 30.76,42 C32.37,41.34 33.41,40.46 33.41,39.76 C33.41,39.0917355 33.9517355,38.55 34.62,38.55 C35.2882645,38.55 35.83,39.0917355 35.83,39.76 C35.83,41.57 34.35,43.17 31.68,44.27 C28.9057301,45.3047567 25.9602791,45.803583 23,45.74 Z M23,37.46 C19.5881233,37.5211428 16.1953747,36.93759 13,35.74 C10,34.49 8.28,32.69 8.28,30.67 C8.28,30.0017355 8.82173545,29.46 9.49,29.46 C10.1582645,29.46 10.7,30.0017355 10.7,30.67 C10.7,31.58 11.93,32.67 13.91,33.47 C16.8178845,34.5431155 19.9010458,35.0620635 23,35 C26.1056543,35.0645705 29.1958316,34.5455836 32.11,33.47 C34.11,32.65 35.32,31.58 35.32,30.67 C35.2781892,30.2096052 35.5001917,29.7651263 35.8933867,29.5220025 C36.2865817,29.2788787 36.7834183,29.2788787 37.1766133,29.5220025 C37.5698083,29.7651263 37.7918108,30.2096052 37.75,30.67 C37.75,32.67 36.07,34.49 33.03,35.74 C29.8245826,36.9389901 26.4217493,37.5225268 23,37.46 L23,37.46 Z" id="形状" stroke="#FFFFFF" stroke-width="0.6" fill="#FFFFFF" opacity="0.95"></path>
        </g>
    </g>
</svg>