<?xml version="1.0" encoding="UTF-8"?>
<svg width="65px" height="64px" viewBox="0 0 65 64" version="1.1" xmlns="http://www.w3.org/2000/svg" xmlns:xlink="http://www.w3.org/1999/xlink">
    <!-- Generator: Sketch 64 (93537) - https://sketch.com -->
    <title>509-浓雾-Dense fog</title>
    <desc>Created with Sketch.</desc>
    <g id="509-浓雾-Dense-fog" stroke="none" stroke-width="1" fill="none" fill-rule="evenodd" transform="translate(0.000000, 0.000000)">
        <g transform="translate(4.000000, 4.000000)" fill-rule="nonzero">
            <path d="M9.84,34 C4.41,34 0,29.87 0,24.78 C0,19.69 4.41,15.57 9.84,15.57 L9.84,15.57 C9.84,15.4 9.84,15.23 9.84,15.05 C9.84,6.74 17.04,0.05 25.92,0.05 C31.7114697,-0.0216752433 37.1043898,2.99089524 40.08,7.96 C40.7155111,7.85915238 41.3568185,7.79902981 42,7.78 C49.73,7.78 56,13.65 56,20.89 C56,28.13 49.73,34 42,34 L9.84,34 Z" id="路径" fill="#FFFFFF"></path>
            <g id="编组" opacity="0.9" transform="translate(7.000000, 38.000000)" fill="#3DD0FF">
                <path d="M41.53,3 L2.47,3 C1.64157288,3 0.97,2.32842712 0.97,1.5 C0.97,0.671572875 1.64157288,0 2.47,0 L41.53,0 C42.3584271,0 43.03,0.671572875 43.03,1.5 C43.03,2.32842712 42.3584271,3 41.53,3 Z" id="路径"></path>
            </g>
            <g id="编组" opacity="0.9" transform="translate(7.000000, 45.000000)" fill="#3DD0FF">
                <path d="M41.53,3 L2.47,3 C1.64157288,3 0.97,2.32842712 0.97,1.5 C0.97,0.671572875 1.64157288,0 2.47,0 L41.53,0 C42.3584271,0 43.03,0.671572875 43.03,1.5 C43.03,2.32842712 42.3584271,3 41.53,3 Z" id="路径"></path>
            </g>
            <g id="编组" opacity="0.9" transform="translate(7.000000, 52.000000)" fill="#3DD0FF">
                <path d="M41.53,3 L2.47,3 C1.64157288,3 0.97,2.32842712 0.97,1.5 C0.97,0.671572875 1.64157288,-7.10542736e-15 2.47,-7.10542736e-15 L41.53,-7.10542736e-15 C42.3584271,-7.10542736e-15 43.03,0.671572875 43.03,1.5 C43.03,2.32842712 42.3584271,3 41.53,3 L41.53,3 Z" id="路径"></path>
            </g>
        </g>
    </g>
</svg>