<?xml version="1.0" encoding="utf-8"?>
<!-- Generator: Adobe Illustrator 21.0.0, SVG Export Plug-In . SVG Version: 6.00 Build 0)  -->
<svg version="1.1" id="图层_1" opacity="0.8" xmlns="http://www.w3.org/2000/svg" xmlns:xlink="http://www.w3.org/1999/xlink"
	 x="0px" y="0px" viewBox="0 0 16 16" style="enable-background:new 0 0 16 16;" xml:space="preserve">
<style type="text/css">
	.st0{display:none;}
	.st1{display:inline;fill:#808080;}
	.st2{display:inline;}
	.st3{fill:none;stroke:#808080;stroke-linecap:round;stroke-miterlimit:10;}
	.st4{fill:#1F2022;}
	.st5{display:none;fill:#1F2022;}
</style>
<g id="图层_2_1_" class="st0">
	<path class="st1" d="M7.8,6c0,0-1.5,2.3-1.5,3.3c0,2.3,3,2.3,3,0C9.3,8.3,7.8,6,7.8,6z"/>
	<path class="st1" d="M2.2,10c0,0-1.3,1.8-1.3,2.6c0,1.8,2.5,1.8,2.5,0C3.4,11.9,2.2,10,2.2,10z"/>
	<path class="st1" d="M6.2,12c0,0-1.3,1.8-1.3,2.6c0,1.8,2.5,1.8,2.5,0C7.4,13.9,6.2,12,6.2,12z"/>
	<path class="st1" d="M10.2,12c0,0-1.3,1.8-1.3,2.6c0,1.8,2.5,1.8,2.5,0C11.4,13.9,10.2,12,10.2,12z"/>
	<path class="st1" d="M14,10c0,0-1.3,1.8-1.3,2.6c0,1.8,2.5,1.8,2.5,0C15.3,11.9,14,10,14,10z"/>
	<path class="st1" d="M8,12c0,0-1,1.4-1,2c0,1.4,2,1.4,2,0C9,13.4,8,12,8,12z"/>
	<path class="st1" d="M5,12c0,0-1,1.4-1,2c0,1.4,2,1.4,2,0C6,13.4,5,12,5,12z"/>
	<path class="st1" d="M11,12c0,0-1,1.4-1,2c0,1.4,2,1.4,2,0C12,13.4,11,12,11,12z"/>
	<g id="云_2_" class="st2">
		<path class="st3" d="M3.9,9.2C2,9.2,0.5,7.6,0.5,5.8S2,2.4,3.9,2.4c0.7,0,1.4,0.2,1.9,0.6"/>
		<path class="st3" d="M13.2,3.5c1.3,0.4,2.3,1.6,2.3,3c0,1.7-1.4,3.1-3,3.1"/>
		<path class="st3" d="M5.8,3c0.6-1.5,2-2.5,3.7-2.5c1.9,0,3.5,1.3,3.8,3.2"/>
	</g>
</g>
<g id="图层_3">
	<g>
		<path class="st4" d="M4.1,6c1.7,0,3.1,0.9,3.1,2s-1.4,2-3.1,2S1,9.1,1,8S2.4,6,4.1,6 M4.1,5C1.8,5,0,6.3,0,8s1.8,3,4.1,3
			s4.1-1.3,4.1-3S6.4,5,4.1,5L4.1,5z"/>
	</g>
	<g>
		<path class="st4" d="M12,6c1.6,0,3,0.9,3,2s-1.4,2-3,2S9,9.1,9,8S10.4,6,12,6 M12,5C9.8,5,8,6.3,8,8s1.8,3,4,3s4-1.3,4-3
			S14.2,5,12,5L12,5z"/>
	</g>
	<circle class="st4" cx="2" cy="2" r="1"/>
	<circle class="st4" cx="14" cy="2" r="1"/>
	<circle class="st4" cx="2" cy="14" r="1"/>
	<circle class="st4" cx="14" cy="14" r="1"/>
	<circle class="st5" cx="6" cy="13" r="1"/>
	<circle class="st4" cx="8" cy="13" r="1"/>
	<circle class="st4" cx="8" cy="3" r="1"/>
	<circle class="st5" cx="10" cy="3" r="1"/>
</g>
</svg>
