<?xml version="1.0" encoding="UTF-8"?>
<svg width="64px" height="64px" viewBox="0 0 64 64" version="1.1" xmlns="http://www.w3.org/2000/svg" xmlns:xlink="http://www.w3.org/1999/xlink">
    <!-- Generator: Sketch 64 (93537) - https://sketch.com -->
    <title>513-严重霾-Severe haze</title>
    <desc>Created with Sketch.</desc>
    <g id="513-严重霾-Severe-haze" stroke="none" stroke-width="1" fill="none" fill-rule="evenodd" opacity="0.9">
        <g transform="translate(6.000000, 10.000000)" fill="#A1A1A1" fill-rule="nonzero" id="编组">
            <g transform="translate(0.000000, 20.000000)">
                <path d="M49.53,3.5 L2.47,3.5 C1.64157288,3.5 0.97,2.82842712 0.97,2 C0.97,1.17157288 1.64157288,0.5 2.47,0.5 L49.53,0.5 C50.3584271,0.5 51.03,1.17157288 51.03,2 C51.03,2.82842712 50.3584271,3.5 49.53,3.5 Z" id="路径"></path>
            </g>
            <g transform="translate(0.000000, 10.000000)">
                <path d="M49.53,3.5 L2.47,3.5 C1.64157288,3.5 0.97,2.82842712 0.97,2 C0.97,1.17157288 1.64157288,0.5 2.47,0.5 L49.53,0.5 C50.3584271,0.5 51.03,1.17157288 51.03,2 C51.03,2.82842712 50.3584271,3.5 49.53,3.5 Z" id="路径"></path>
            </g>
            <g transform="translate(0.000000, 30.000000)">
                <path d="M49.53,3.5 L2.47,3.5 C1.64157288,3.5 0.97,2.82842712 0.97,2 C0.97,1.17157288 1.64157288,0.5 2.47,0.5 L49.53,0.5 C50.3584271,0.5 51.03,1.17157288 51.03,2 C51.03,2.82842712 50.3584271,3.5 49.53,3.5 Z" id="路径"></path>
            </g>
            <g transform="translate(0.000000, 40.000000)">
                <path d="M49.53,3.5 L2.47,3.5 C1.64157288,3.5 0.97,2.82842712 0.97,2 C0.97,1.17157288 1.64157288,0.5 2.47,0.5 L49.53,0.5 C50.3584271,0.5 51.03,1.17157288 51.03,2 C51.03,2.82842712 50.3584271,3.5 49.53,3.5 Z" id="路径"></path>
            </g>
            <g>
                <path d="M49.53,3.5 L2.47,3.5 C1.64157288,3.5 0.97,2.82842712 0.97,2 C0.97,1.17157288 1.64157288,0.5 2.47,0.5 L49.53,0.5 C50.3584271,0.5 51.03,1.17157288 51.03,2 C51.03,2.82842712 50.3584271,3.5 49.53,3.5 Z" id="路径"></path>
            </g>
        </g>
    </g>
</svg>