<?xml version="1.0" encoding="utf-8"?>
<!-- Generator: Adobe Illustrator 21.0.0, SVG Export Plug-In . SVG Version: 6.00 Build 0)  -->
<svg version="1.1" id="云" opacity="0.8" xmlns="http://www.w3.org/2000/svg" xmlns:xlink="http://www.w3.org/1999/xlink" x="0px"
	 y="0px" viewBox="0 0 16 16" style="enable-background:new 0 0 16 16;" xml:space="preserve">
<style type="text/css">
	.st0{fill:none;stroke:#1F2022;stroke-linecap:round;stroke-miterlimit:10;}
</style>
<g id="_16">
	<path class="st0" d="M0.5,12.5c1.1,0.6,2.3,1,3.5,1c1.4,0,2.8-0.4,4-1c1.3-0.6,2.6-0.9,4-1c1.4,0,1.7,0.4,3.5,1"/>
	<path class="st0" d="M0.5,9.5c1.1,0.6,2.3,1,3.5,1c1.4,0,2.8-0.4,4-1c1.3-0.6,2.6-0.9,4-1c1.4,0,1.7,0.4,3.5,1"/>
	<path class="st0" d="M0.5,6.5c1.1,0.6,2.3,1,3.5,1c1.4,0,2.8-0.4,4-1s2.6-1,4-1s1.7,0.4,3.5,1"/>
	<path class="st0" d="M0.5,3.5c1.1,0.6,2.3,1,3.5,1c1.4,0,2.8-0.4,4-1s2.6-1,4-1c1.5,0.1,1.7,0.4,3.5,1"/>
</g>
</svg>
