<?xml version="1.0" encoding="UTF-8"?>
<svg width="65px" height="64px" viewBox="0 0 65 64" version="1.1" xmlns="http://www.w3.org/2000/svg" xmlns:xlink="http://www.w3.org/1999/xlink">
    <!-- Generator: Sketch 64 (93537) - https://sketch.com -->
    <title>515-特强浓雾-Extra heavy fog</title>
    <desc>Created with Sketch.</desc>
    <g id="515-特强浓雾-Extra-heavy-fog" stroke="none" stroke-width="1" fill="none" fill-rule="evenodd" transform="translate(0.000000, 0.000000)" opacity="0.9">
        <g transform="translate(6.000000, 11.000000)" fill="#3DD0FF" fill-rule="nonzero" id="编组">
            <g transform="translate(0.000000, 20.000000)">
                <path d="M49.53,3 L2.47,3 C1.64157288,3 0.97,2.32842712 0.97,1.5 C0.97,0.671572875 1.64157288,0 2.47,0 L49.53,0 C50.3584271,0 51.03,0.671572875 51.03,1.5 C51.03,2.32842712 50.3584271,3 49.53,3 Z" id="路径"></path>
            </g>
            <g transform="translate(0.000000, 10.000000)">
                <path d="M49.53,3 L2.47,3 C1.64157288,3 0.97,2.32842712 0.97,1.5 C0.97,0.671572875 1.64157288,0 2.47,0 L49.53,0 C50.3584271,0 51.03,0.671572875 51.03,1.5 C51.03,2.32842712 50.3584271,3 49.53,3 Z" id="路径"></path>
            </g>
            <g transform="translate(0.000000, 30.000000)">
                <path d="M49.53,3 L2.47,3 C1.64157288,3 0.97,2.32842712 0.97,1.5 C0.97,0.671572875 1.64157288,0 2.47,0 L49.53,0 C50.3584271,0 51.03,0.671572875 51.03,1.5 C51.03,2.32842712 50.3584271,3 49.53,3 Z" id="路径"></path>
            </g>
            <g transform="translate(0.000000, 40.000000)">
                <path d="M49.53,3 L2.47,3 C1.64157288,3 0.97,2.32842712 0.97,1.5 C0.97,0.671572875 1.64157288,-7.10542736e-15 2.47,-7.10542736e-15 L49.53,-7.10542736e-15 C50.3584271,-7.10542736e-15 51.03,0.671572875 51.03,1.5 C51.03,2.32842712 50.3584271,3 49.53,3 L49.53,3 Z" id="路径"></path>
            </g>
            <g>
                <path d="M49.53,3 L2.47,3 C1.64157288,3 0.97,2.32842712 0.97,1.5 C0.97,0.671572875 1.64157288,0 2.47,0 L49.53,0 C50.3584271,0 51.03,0.671572875 51.03,1.5 C51.03,2.32842712 50.3584271,3 49.53,3 Z" id="路径"></path>
            </g>
        </g>
    </g>
</svg>