<?xml version="1.0" encoding="UTF-8"?>
<svg width="65px" height="64px" viewBox="0 0 65 64" version="1.1" xmlns="http://www.w3.org/2000/svg" xmlns:xlink="http://www.w3.org/1999/xlink">
    <!-- Generator: Sketch 64 (93537) - https://sketch.com -->
    <title>900-热-Hot</title>
    <desc>Created with Sketch.</desc>
    <g id="900-热-Hot" stroke="none" stroke-width="1" fill="none" fill-rule="evenodd" transform="translate(1.000000, 0.000000)">
        <g transform="translate(15.000000, 3.000000)" fill-rule="nonzero">
            <path d="M26,6 C25.348304,6 24.82,6.528304 24.82,7.18 L24.82,9.55 C24.82,10.201696 25.348304,10.73 26,10.73 C26.651696,10.73 27.18,10.201696 27.18,9.55 L27.18,7.18 C27.18,6.528304 26.651696,6 26,6 Z M26,27.27 C25.348304,27.27 24.82,27.798304 24.82,28.45 L24.82,30.82 C24.82,31.471696 25.348304,32 26,32 C26.651696,32 27.18,31.471696 27.18,30.82 L27.18,28.45 C27.18,27.798304 26.651696,27.27 26,27.27 Z" id="形状" fill="#F6BB42"></path>
            <path d="M16.81,9.81 C16.5883312,10.0313427 16.4637716,10.3317435 16.4637716,10.645 C16.4637716,10.9582565 16.5883312,11.2586573 16.81,11.48 L18.48,13.15 C18.9411578,13.6111578 19.6888422,13.6111577 20.15,13.15 C20.6111577,12.6888422 20.6111578,11.9411578 20.15,11.48 L18.48,9.81 C18.2586573,9.58833122 17.9582565,9.46377155 17.645,9.46377155 C17.3317435,9.46377155 17.0313427,9.58833122 16.81,9.81 Z M31.81,24.81 C31.5883312,25.0313427 31.4637716,25.3317435 31.4637716,25.645 C31.4637716,25.9582565 31.5883312,26.2586573 31.81,26.48 L33.48,28.15 C33.7013427,28.3716688 34.0017435,28.4962284 34.315,28.4962284 C34.6282565,28.4962284 34.9286573,28.3716688 35.15,28.15 C35.3741575,27.929988 35.5004422,27.6290889 35.5004422,27.315 C35.5004422,27.0009111 35.3741575,26.700012 35.15,26.48 L33.48,24.81 C33.0133365,24.3854504 32.2952775,24.4030715 31.85,24.85 L31.81,24.81 Z" id="形状" fill="#FFCE54"></path>
            <path d="M13,19 C13,19.651696 13.528304,20.18 14.18,20.18 L16.55,20.18 C17.201696,20.18 17.73,19.651696 17.73,19 C17.73,18.348304 17.201696,17.82 16.55,17.82 L14.18,17.82 C13.528304,17.82 13,18.348304 13,19 Z M34.27,19 C34.27,19.651696 34.798304,20.18 35.45,20.18 L37.82,20.18 C38.471696,20.18 39,19.651696 39,19 C39,18.348304 38.471696,17.82 37.82,17.82 L35.45,17.82 C34.798304,17.82 34.27,18.348304 34.27,19 L34.27,19 Z" id="形状" fill="#F6BB42"></path>
            <path d="M16.81,28.19 C17.0313427,28.4116688 17.3317435,28.5362284 17.645,28.5362284 C17.9582565,28.5362284 18.2586573,28.4116688 18.48,28.19 L20.15,26.52 C20.6111578,26.0588422 20.6111578,25.3111578 20.15,24.85 C19.6888422,24.3888422 18.9411578,24.3888422 18.48,24.85 L16.81,26.52 C16.5883312,26.7413427 16.4637716,27.0417435 16.4637716,27.355 C16.4637716,27.6682565 16.5883312,27.9686573 16.81,28.19 Z M31.81,13.19 C32.0313427,13.4116688 32.3317435,13.5362284 32.645,13.5362284 C32.9582565,13.5362284 33.2586573,13.4116688 33.48,13.19 L35.15,11.52 C35.3741575,11.299988 35.5004422,10.9990889 35.5004422,10.685 C35.5004422,10.3709111 35.3741575,10.070012 35.15,9.85 C34.9286573,9.62833122 34.6282565,9.50377155 34.315,9.50377155 C34.0017435,9.50377155 33.7013427,9.62833122 33.48,9.85 L31.81,11.52 C31.3854504,11.9866635 31.4030715,12.7047225 31.85,13.15 L31.81,13.19 Z M26,24.91 C22.7359971,24.91 20.09,22.2640029 20.09,19 C20.09,15.7359971 22.7359971,13.09 26,13.09 C29.2640029,13.09 31.91,15.7359971 31.91,19 C31.904495,22.2617199 29.2617199,24.904495 26,24.91 Z" id="形状" fill="#FFCE54"></path>
            <path d="M26,11.9099929 C22.0843011,11.9099929 18.91,15.0843011 18.91,19 C18.91,22.9156989 22.0843011,26.09 26,26.09 C29.9156989,26.09 33.0900071,22.9156989 33.0900071,19 C33.0926589,17.1188012 32.3465328,15.3138867 31.0163231,13.9836769 C29.6861133,12.6534672 27.8811988,11.9073411 26,11.9099929 Z M26,23.73 C23.3876931,23.73 21.27,21.6123069 21.27,19 C21.27,16.3876931 23.3876931,14.27 26,14.27 C28.6123069,14.27 30.73,16.3876931 30.73,19 C30.7244994,21.610025 28.610025,23.7244994 26,23.73 L26,23.73 Z" id="形状" fill="#F6BB42"></path>
            <path d="M9,2.5 C10.9622886,2.53287946 12.5278395,4.14763348 12.5,6.11 L12.5,43.11 L13.31,43.86 C14.7155628,45.1410175 15.5115306,46.9582956 15.5001236,48.86 C15.5001236,52.4498509 12.5898509,55.36 9,55.36 C5.41014913,55.36 2.49987644,52.4498509 2.49987644,48.86 C2.48846939,46.9582956 3.28443724,45.1410175 4.69,43.86 L5.5,43.11 L5.5,6.11 C5.47216046,4.14763348 7.03771145,2.53287946 9,2.5 M9,0 C7.3936744,0.0131963288 5.85854168,0.664681016 4.73302374,1.81083346 C3.60750579,2.9569859 2.98401476,4.50369974 3,6.11 L3,42 C1.08352802,43.7447427 -0.00614091034,46.2182912 -2.58161334e-05,48.81 C-2.58161334e-05,52.0253903 1.71539025,54.9965336 4.49999996,56.6042287 C7.28460967,58.2119239 10.7153903,58.2119239 13.5,56.6042287 C16.2846097,54.9965336 18.0000258,52.0253903 18.0000258,48.81 C18.0061409,46.2182912 16.916472,43.7447427 15,42 L15,6.11 C15.0159852,4.50369974 14.3924942,2.9569859 13.2669763,1.81083346 C12.1414583,0.664681016 10.6063256,0.0131963288 9,0 Z" id="形状" fill="#F5F7FA"></path>
            <path d="M8.78,49.67 C8.01307633,49.5181327 7.47035686,48.8312534 7.5,48.05 L7.5,16.24 C7.46957319,15.4564085 8.01154138,14.7662459 8.78,14.61 C9.21607469,14.5452742 9.65854401,14.6756571 9.98984129,14.9665053 C10.3211386,15.2573535 10.5077164,15.6792154 10.5,16.12 L10.5,48.17 C10.504752,48.6090501 10.3168967,49.028138 9.98598214,49.3167262 C9.65506763,49.6053144 9.21432385,49.7344235 8.78,49.67 L8.78,49.67 Z" id="路径" fill="#DA4453"></path>
            <path d="M9.13,51.09 C8.12981437,51.1103257 7.21693132,50.5229378 6.82094399,49.6042548 C6.42495666,48.6855718 6.62474008,47.6185823 7.3262783,46.9054003 C8.02781652,46.1922183 9.09137308,45.9748995 10.0164495,46.3557119 C10.9415259,46.7365242 11.5438601,47.6396153 11.54,48.64 C11.5453262,49.2844826 11.2944033,49.9046824 10.8424359,50.3641513 C10.3904686,50.8236201 9.77448294,51.0847174 9.13,51.09 Z" id="路径" fill="#ED5564"></path>
            <path d="M9,44.26 C7.14062736,44.2275169 5.44619748,45.3225673 4.71202538,47.0311671 C3.97785329,48.7397668 4.34970497,50.7226824 5.65304432,52.0491923 C6.95638367,53.3757021 8.9324395,53.7824346 10.65371,53.0784816 C12.3749804,52.3745286 13.4997163,50.6996563 13.5,48.84 C13.5106555,47.6359032 13.0425249,46.4768952 12.1986011,45.6179683 C11.3546774,44.7590415 10.2040976,44.2705621 9,44.26 L9,44.26 Z M9,50.37 C8.37858781,50.3821869 7.81155319,50.0172404 7.56525696,49.4465918 C7.31896073,48.8759433 7.44235202,48.2130038 7.87746858,47.7691849 C8.31258515,47.325366 8.97295152,47.1888727 9.5483649,47.4238217 C10.1237783,47.6587708 10.4998805,48.2184683 10.5,48.84 C10.5055697,49.6756158 9.83556225,50.3590234 9,50.37 L9,50.37 Z" id="形状" fill="#DA4453"></path>
        </g>
    </g>
</svg>