<?xml version="1.0" encoding="UTF-8"?>
<svg width="65px" height="64px" viewBox="0 0 65 64" version="1.1" xmlns="http://www.w3.org/2000/svg" xmlns:xlink="http://www.w3.org/1999/xlink">
    <!-- Generator: Sketch 64 (93537) - https://sketch.com -->
    <title>901-冷-Cold</title>
    <desc>Created with Sketch.</desc>
    <g id="901-冷-Cold" stroke="none" stroke-width="1" fill="none" fill-rule="evenodd" transform="translate(1.000000, 0.000000)">
        <g transform="translate(15.000000, 3.000000)" fill-rule="nonzero">
            <path d="M25,5.99999405 C24.7254381,5.99908901 24.4608365,6.10278424 24.26,6.29 C24.0837524,6.48351852 23.9904057,6.73842668 24,6.99999405 L24,9.59 L22.83,8.47 C22.4183181,8.06859552 21.7616819,8.06859552 21.35,8.47 C20.9817458,8.85629829 20.9817458,9.46370171 21.35,9.85 L21.35,9.85 L24,12.41 L24,16.27 L20.51,14.34 L19.51,10.88 C19.4207952,10.5201625 19.1398375,10.2392048 18.78,10.15 C18.4241427,10.0612496 18.0475638,10.1591601 17.78,10.41 C17.5144992,10.66927 17.4144056,11.0542452 17.52,11.41 L17.95,12.95 L15.61,11.65 C15.1176109,11.4117772 14.5248652,11.5792922 14.23,12.04 C13.9600694,12.5079645 14.110614,13.1057152 14.57,13.39 L16.91,14.68 L15.31,15.09 C15.0491542,15.1493915 14.8229813,15.3108228 14.6820407,15.538207 C14.5411001,15.7655913 14.4971445,16.0399672 14.56,16.3 L14.56,16.3 C14.6299802,16.5582964 14.8005686,16.7777673 15.0336085,16.9093221 C15.2666484,17.0408769 15.5426939,17.073538 15.8,16.999994 L19.42,16.07 L22.91,17.999994 L19.42,19.93 L15.8,18.999994 C15.5399542,18.9270961 15.2614769,18.9624748 15.0279217,19.0980874 C14.7943666,19.2337001 14.6255941,19.4580149 14.56,19.72 C14.4258633,20.2465249 14.7366922,20.7838149 15.26,20.93 L16.86,21.34 L14.52,22.63 C14.1049838,22.8399157 13.8894714,23.3082407 14,23.76 C14.1206641,24.2092179 14.5351312,24.5159235 15,24.499994 C15.181608,24.5019301 15.3606659,24.4571656 15.52,24.37 L17.86,23.07 L17.43,24.61 C17.3244056,24.9657548 17.4244992,25.35073 17.69,25.61 C17.9536722,25.8678237 18.3323941,25.9700787 18.69,25.88 C19.0524902,25.7891152 19.3340552,25.5036931 19.42,25.14 L20.42,21.68 L24,19.73 L24,23.73 L21.3,26.29 C21.0127947,26.5753076 20.9259407,27.0056298 21.08,27.38 C21.1936443,27.6349562 21.4041309,27.8341676 21.6649517,27.9336172 C21.9257725,28.0330669 22.2154578,28.0245686 22.47,27.91 C22.582517,27.8587771 22.6869519,27.7913998 22.78,27.71 L24,26.59 L24,28.999994 C24,29.5522847 24.4477153,29.999994 25,29.999994 C25.5522847,29.999994 26,29.5522847 26,28.999994 L26,26.58 L27.17,27.71 C27.5877307,28.0962501 28.2322693,28.0962501 28.65,27.71 C29.0311429,27.3211565 29.0311429,26.6988435 28.65,26.31 L28.65,26.31 L26,23.76 L26,19.76 L29.64,21.76 L30.64,25.22 C30.7276076,25.5863516 31.0136484,25.8723924 31.38,25.96 C31.7358573,26.0487504 32.1124362,25.9508399 32.38,25.7 C32.6419438,25.4386011 32.7381156,25.0539138 32.63,24.7 L32.2,23.17 L34.39,24.38 C34.8928066,24.645805 35.5154702,24.4803419 35.82,23.999994 C36.088144,23.5294668 35.9329813,22.9309822 35.47,22.65 L33.29,21.45 L34.89,21.04 C35.2484817,20.9574571 35.5327003,20.6847608 35.63,20.33 C35.7330973,19.9723944 35.6290731,19.5871196 35.36,19.33 C35.0906431,19.0824324 34.7158295,18.9849809 34.36,19.07 L30.73,19.999994 L27.08,17.999994 L30.73,15.999994 L34.34,16.92 C34.8887587,17.0758294 35.4615446,16.7650154 35.63,16.22 C35.6967762,15.9627189 35.6583746,15.6894383 35.5232779,15.4605245 C35.3881813,15.2316107 35.1675067,15.0659011 34.91,14.999994 L34.91,14.999994 L33.31,14.59 L35.49,13.39 C35.8033105,13.2124388 35.9969483,12.880127 35.9969483,12.52 C35.9969483,12.159873 35.8033105,11.8275612 35.49,11.65 C35.1763316,11.4880742 34.8036684,11.4880742 34.49,11.65 L32.3,12.86 L32.73,11.33 C32.8422031,10.79821 32.5091246,10.2741665 31.98,10.15 C31.7241083,10.0656961 31.4450252,10.0882135 31.2059595,10.2124523 C30.9668938,10.3366912 30.7880738,10.5521392 30.71,10.81 L29.71,14.28 L26.07,16.28 L26.07,12.41 L28.72,9.88 C29.0946537,9.49240338 29.0946537,8.87759662 28.72,8.49 L28.72,8.49 C28.3041991,8.09885122 27.6558009,8.09885122 27.24,8.49 L26,9.59 L26,6.99999405 C25.9962642,6.73129373 25.8845357,6.47539928 25.69,6.29 C25.5062113,6.10765924 25.2588682,6.00370344 25,5.99999405" id="路径" fill="#FFFFFF"></path>
            <path d="M9,2.5 C10.9622886,2.53287946 12.5278395,4.14763348 12.5,6.11 L12.5,43.11 L13.31,43.86 C14.7155628,45.1410175 15.5115306,46.9582956 15.5001236,48.86 C15.5001236,52.4498509 12.5898509,55.36 9,55.36 C5.41014913,55.36 2.49987644,52.4498509 2.49987644,48.86 C2.48846939,46.9582956 3.28443724,45.1410175 4.69,43.86 L5.5,43.11 L5.5,6.11 C5.47216046,4.14763348 7.03771145,2.53287946 9,2.5 M9,0 C7.3936744,0.0131963288 5.85854168,0.664681016 4.73302374,1.81083346 C3.60750579,2.9569859 2.98401476,4.50369974 3,6.11 L3,42 C1.08352802,43.7447427 -0.00614091034,46.2182912 -2.58161334e-05,48.81 C-2.58161334e-05,53.7805627 4.02943725,57.81 9,57.81 C13.9705627,57.81 18.0000258,53.7805627 18.0000258,48.81 C18.0061409,46.2182912 16.916472,43.7447427 15,42 L15,6.11 C15.0159852,4.50369974 14.3924942,2.9569859 13.2669763,1.81083346 C12.1414583,0.664681016 10.6063256,0.0131963288 9,0 Z" id="形状" fill="#F5F7FA"></path>
            <path d="M8.78,49.67 C8.01307633,49.5181327 7.47035686,48.8312534 7.5,48.05 L7.5,36.24 C7.46957319,35.4564085 8.01154138,34.7662459 8.78,34.61 C9.21607469,34.5452742 9.65854401,34.6756571 9.98984129,34.9665053 C10.3211386,35.2573535 10.5077164,35.6792154 10.5,36.12 L10.5,48.17 C10.504752,48.6090501 10.3168967,49.028138 9.98598214,49.3167262 C9.65506763,49.6053144 9.21432385,49.7344235 8.78,49.67 L8.78,49.67 Z" id="路径" fill="#14B8F5"></path>
            <path d="M9.13,51.09 C8.12981437,51.1103257 7.21693132,50.5229378 6.82094399,49.6042548 C6.42495666,48.6855718 6.62474008,47.6185823 7.3262783,46.9054003 C8.02781652,46.1922183 9.09137308,45.9748995 10.0164495,46.3557119 C10.9415259,46.7365242 11.5438601,47.6396153 11.54,48.64 C11.5453262,49.2844826 11.2944033,49.9046824 10.8424359,50.3641513 C10.3904686,50.8236201 9.77448294,51.0847174 9.13,51.09 Z" id="路径" fill="#3DD0FF"></path>
            <path d="M9,44.26 C7.14062736,44.2275169 5.44619748,45.3225673 4.71202538,47.0311671 C3.97785329,48.7397668 4.34970497,50.7226824 5.65304432,52.0491923 C6.95638367,53.3757021 8.9324395,53.7824346 10.65371,53.0784816 C12.3749804,52.3745286 13.4997163,50.6996563 13.5,48.84 C13.5106555,47.6359032 13.0425249,46.4768952 12.1986011,45.6179683 C11.3546774,44.7590415 10.2040976,44.2705621 9,44.26 L9,44.26 Z M9,50.37 C8.37858781,50.3821869 7.81155319,50.0172404 7.56525696,49.4465918 C7.31896073,48.8759433 7.44235202,48.2130038 7.87746858,47.7691849 C8.31258515,47.325366 8.97295152,47.1888727 9.5483649,47.4238217 C10.1237783,47.6587708 10.4998805,48.2184683 10.5,48.84 C10.5055697,49.6756158 9.83556225,50.3590234 9,50.37 L9,50.37 Z" id="形状" fill="#14B8F5"></path>
        </g>
    </g>
</svg>