<?xml version="1.0" encoding="utf-8"?>
<!-- Generator: Adobe Illustrator 21.0.0, SVG Export Plug-In . SVG Version: 6.00 Build 0)  -->
<svg version="1.1" id="图层_5" opacity="0.8" xmlns="http://www.w3.org/2000/svg" xmlns:xlink="http://www.w3.org/1999/xlink"
	 x="0px" y="0px" viewBox="0 0 16 16" style="enable-background:new 0 0 16 16;" xml:space="preserve">
<style type="text/css">
	.st0{fill:none;stroke:#1F2022;stroke-linecap:round;stroke-miterlimit:10;}
	.st1{fill:none;stroke:#1F2022;stroke-miterlimit:10;}
	.st2{fill:#1F2022;}
</style>
<path class="st0" d="M9.5,8.8c1.2,0.6,2,1.8,2,3.2c0,1.9-1.6,3.5-3.5,3.5S4.5,13.9,4.5,12c0-1.4,0.8-2.6,2-3.2"/>
<path class="st1" d="M6.5,9V2c0-0.8,0.7-1.5,1.5-1.5l0,0c0.8,0,1.5,0.7,1.5,1.5v7"/>
<rect x="6.8" y="1" class="st2" width="2.5" height="6"/>
<line class="st0" x1="3" y1="4.5" x2="4.5" y2="4.5"/>
<line class="st0" x1="3.5" y1="6.5" x2="4.5" y2="6.5"/>
<line class="st0" x1="2.5" y1="2.5" x2="4.5" y2="2.5"/>
</svg>
