<?xml version="1.0" encoding="utf-8"?>
<!-- Generator: Adobe Illustrator 24.0.0, SVG Export Plug-In . SVG Version: 6.00 Build 0)  -->
<svg version="1.1" id="图层_1" opacity="0.8" xmlns="http://www.w3.org/2000/svg" xmlns:xlink="http://www.w3.org/1999/xlink"
	 x="0px" y="0px" viewBox="0 0 16 16" style="enable-background:new 0 0 16 16;" xml:space="preserve">
<style type="text/css">
	.st0{fill:#1F2022;}
	.st1{fill:none;stroke:#1F2022;stroke-linecap:round;stroke-miterlimit:10;}
</style>
<path class="st0" d="M8,1c2.6,0,5,1.4,6.2,3.8C14.7,5.8,15,6.9,15,8c0,3.9-3.1,7-7,7s-7-3.1-7-7c0-2.7,1.5-5.1,3.8-6.2
	C5.8,1.3,6.9,1,8,1 M8,0C6.8,0,5.6,0.3,4.4,0.9C1.7,2.2,0,5,0,8c0,4.4,3.6,8,8,8s8-3.6,8-8c0-1.3-0.3-2.6-0.9-3.7
	C13.7,1.6,10.9,0,8,0L8,0z"/>
<path class="st0" d="M4.7,1.8C3.5,2.4,2.5,3.4,1.9,4.6C1.6,4.6,1.2,4.5,1,4.3C0.7,4.2,0.6,4.1,0.5,3.9c-0.7-0.8-0.6-2.1,0.2-2.8l0,0
	l0.8-0.6c0.8-0.7,2.1-0.6,2.8,0.2l0,0c0,0,0.1,0.1,0.1,0.2C4.6,1.1,4.7,1.5,4.7,1.8z"/>
<path class="st0" d="M16,2.6c0,0.5-0.2,0.9-0.5,1.3c-0.1,0.1-0.3,0.3-0.4,0.4c-0.3,0.2-0.6,0.3-0.9,0.3c-0.7-1.2-1.7-2.2-2.9-2.8
	c0-0.3,0.1-0.7,0.3-0.9c0-0.1,0.1-0.1,0.1-0.1c0.7-0.8,2-1,2.8-0.2l0,0l0.8,0.6C15.7,1.5,16,2.1,16,2.6z"/>
<polyline class="st1" points="11.5,12 7.5,8 7.5,3.5 "/>
</svg>
