<?xml version="1.0" encoding="utf-8"?>
<!-- Generator: Adobe Illustrator 24.0.0, SVG Export Plug-In . SVG Version: 6.00 Build 0)  -->
<svg version="1.1" id="图层_1" opacity="0.8" xmlns="http://www.w3.org/2000/svg" xmlns:xlink="http://www.w3.org/1999/xlink"
	 x="0px" y="0px" viewBox="0 0 16 16" style="enable-background:new 0 0 16 16;" xml:space="preserve">
<style type="text/css">
	.st0{fill:#1F2022;}
</style>
<rect x="11" y="9" class="st0" width="1" height="3"/>
<rect x="11" y="13" class="st0" width="1" height="1"/>
<g>
	<g>
		<path class="st0" d="M11.5,8c2,0,3.5,1.5,3.5,3.5S13.5,15,11.5,15S8,13.5,8,11.5S9.5,8,11.5,8 M11.5,7C9,7,7,9,7,11.5
			S9,16,11.5,16s4.5-2,4.5-4.5S14,7,11.5,7L11.5,7z"/>
	</g>
</g>
<path class="st0" d="M14,3c0-0.6-0.4-1-1-1H3C2.4,2,2,2.4,2,3v2h12V3z"/>
<rect x="4" class="st0" width="1" height="1"/>
<rect x="11" class="st0" width="1" height="1"/>
<rect x="5" y="1" class="st0" width="6" height="1"/>
<path class="st0" d="M3,14c-0.6,0-1-0.4-1-1V2h2V1H3C1.9,1,1,1.9,1,3v10c0,1.1,0.9,2,2,2h4v-1H3z"/>
<path class="st0" d="M13,2h1v5h1V3c0-1.1-0.9-2-2-2h-1v1H13z"/>
<path class="st0" d="M14,3V2h-1C13.6,2,14,2.4,14,3z"/>
<path class="st0" d="M3,2H2v1C2,2.4,2.4,2,3,2z"/>
</svg>
