<?xml version="1.0" encoding="utf-8"?>
<!-- Generator: Adobe Illustrator 24.0.0, SVG Export Plug-In . SVG Version: 6.00 Build 0)  -->
<svg version="1.1" id="图层_1" xmlns="http://www.w3.org/2000/svg" xmlns:xlink="http://www.w3.org/1999/xlink" x="0px" y="0px"
	 viewBox="0 0 16 16" style="enable-background:new 0 0 16 16;" xml:space="preserve">
<style type="text/css">
	.st0{opacity:0.75;}
	.st1{fill:#1F2022;}
</style>
<title>appointment-soon-symbolic</title>
<g class="st0">
	<rect x="4" class="st1" width="1" height="1"/>
	<rect x="11" class="st1" width="1" height="1"/>
	<path class="st1" d="M2,13V5h12v4h1V3c0-1.1-0.9-2-2-2h-1v1h-1V1H5v1H4V1H3C1.9,1,1,1.9,1,3v10c0,1.1,0.9,2,2,2h3v-1H3
		C2.4,14,2,13.6,2,13z"/>
	<path class="st1" d="M11.5,8L7,16h9L11.5,8z M12,15h-1v-1h1V15z M11,13v-3h1v3H11z"/>
</g>
</svg>
