<?xml version="1.0" encoding="utf-8"?>
<!-- Generator: Adobe Illustrator 24.0.0, SVG Export Plug-In . SVG Version: 6.00 Build 0)  -->
<svg version="1.1" xmlns="http://www.w3.org/2000/svg" xmlns:xlink="http://www.w3.org/1999/xlink" x="0px" y="0px"
	 viewBox="0 0 16 16" style="enable-background:new 0 0 16 16;" xml:space="preserve">
<style type="text/css">
	.st0{opacity:0.75;fill:none;stroke:#1F2022;stroke-miterlimit:10;}
	.st1{opacity:0.3;fill:none;stroke:#1F2022;stroke-miterlimit:10;enable-background:new    ;}
	.st2{opacity:0.75;}
	.st3{fill:#1F2022;}
	.st4{fill:none;stroke:#1F2022;stroke-miterlimit:10;}
</style>
<g id="图层_2_1_">
	<path class="st0" d="M14.5,12.5C12,10.3,11.8,6.5,14,4c0.2-0.2,0.3-0.4,0.5-0.5"/>
	<path class="st1" d="M15.6,10.7c-1.5-1.6-1.4-4,0.1-5.6"/>
</g>
<g id="图层_3">
	<g id="_16" class="st2">
		<g>
			<path class="st3" d="M5.5,1C6.9,1,8,2.3,8,4v4c0,1.7-1.1,3-2.5,3S3,9.7,3,8V4C3,2.3,4.1,1,5.5,1 M5.5,0C3.6,0,2,1.8,2,4v4
				c0,2.2,1.6,4,3.5,4S9,10.2,9,8V4C9,1.8,7.4,0,5.5,0L5.5,0z"/>
		</g>
		<path class="st4" d="M10.5,6v2.4c0,2.8-2.2,5.1-4.9,5.1l0,0H5.5c-2.7,0.1-4.9-2.2-5-5l0,0V6"/>
		<rect x="5" y="13" class="st3" width="1" height="2"/>
		<rect x="3" y="15" class="st3" width="5" height="1"/>
		<rect x="4" y="5" class="st3" width="3" height="1"/>
		<rect x="4" y="7" class="st3" width="3" height="1"/>
	</g>
</g>
</svg>
