<?xml version="1.0" encoding="utf-8"?>
<!-- Generator: Adobe Illustrator 24.0.0, SVG Export Plug-In . SVG Version: 6.00 Build 0)  -->
<svg version="1.1" xmlns="http://www.w3.org/2000/svg" xmlns:xlink="http://www.w3.org/1999/xlink" x="0px" y="0px"
	 viewBox="0 0 16 16" style="enable-background:new 0 0 16 16;" xml:space="preserve">
<style type="text/css">
	.st0{display:none;}
	.st1{display:inline;}
	.st2{fill:#808080;}
	.st3{display:inline;fill:#47C405;}
	.st4{display:inline;fill:#808080;}
	.st5{fill:#47C405;}
	.st6{opacity:0.75;}
	.st7{fill:#1F2022;}
	.st8{fill:#229B00;}
</style>
<g id="图层_2_1_" class="st0">
	<g class="st1">
		<path class="st2" d="M15,5h0.5C15.8,5,16,5.2,16,5.5l0,0v5c0,0.3-0.2,0.5-0.5,0.5l0,0H15l0,0V5L15,5z"/>
		<path class="st2" d="M13,3h-2.1l-0.5,1H13c0.6,0,1,0.4,1,1v6c0,0.6-0.4,1-1,1H9l-0.8,1H13c1.1,0,2-0.9,2-2V5C15,3.9,14.1,3,13,3z"
			/>
		<path class="st2" d="M2,12c-0.6,0-1-0.4-1-1V5c0-0.6,0.4-1,1-1h5.2L8,3H2C0.9,3,0,3.9,0,5v6c0,1.1,0.9,2,2,2h3.3l0.4-1H2z"/>
	</g>
	<path class="st3" d="M9.8,11H11c0.6,0,1-0.4,1-1V8.3L9.8,11z"/>
	<polygon class="st4" points="12.1,7 8.1,7 10.8,1 4,9 8,9 5.4,15 	"/>
	<g class="st1">
		<path class="st5" d="M11,5h-1L9.5,6H12C12,5.4,11.6,5,11,5z"/>
	</g>
	<g class="st1">
		<path class="st5" d="M6.2,5H3C2.4,5,2,5.4,2,6v4c0,0.6,0.4,1,1,1h3.1l0.4-1H2.3L6.2,5z"/>
	</g>
</g>
<g id="图层_3">
	<g class="st6">
		<path class="st7" d="M5.2,12H2c-0.6,0-1-0.4-1-1V5c0-0.6,0.4-1,1-1h4.3l0.8-1H2C0.9,3,0,3.9,0,5v6c0,1.1,0.9,2,2,2h2.8L5.2,12z"/>
		<polygon class="st7" points="11.5,7 7.5,7 10,1 3.5,9 7.5,9 5,15 		"/>
		<path class="st7" d="M13,3h-2.8L9.8,4H13c0.6,0,1,0.4,1,1v6c0,0.6-0.4,1-1,1H8.7l-0.8,1H13c1.1,0,2-0.9,2-2V5C15,3.9,14.1,3,13,3z
			"/>
		<path class="st7" d="M15,5h0.5C15.8,5,16,5.2,16,5.5l0,0v5c0,0.3-0.2,0.5-0.5,0.5l0,0H15l0,0V5L15,5z"/>
	</g>
	<g>
		<polygon class="st8" points="11,5 9.4,5 9,6 11,6 		"/>
		<polygon class="st8" points="5.5,5 2,5 2,9.3 		"/>
		<polygon class="st8" points="9.6,11 11,11 11,9.2 		"/>
		<polygon class="st8" points="6,10 2,10 2,11 5.6,11 		"/>
	</g>
</g>
</svg>
