<?xml version="1.0" encoding="utf-8"?>
<!-- Generator: Adobe Illustrator 24.0.0, SVG Export Plug-In . SVG Version: 6.00 Build 0)  -->
<svg version="1.1" xmlns="http://www.w3.org/2000/svg" xmlns:xlink="http://www.w3.org/1999/xlink" x="0px" y="0px"
	 viewBox="0 0 16 16" style="enable-background:new 0 0 16 16;" xml:space="preserve">
<style type="text/css">
	.st0{display:none;}
	.st1{display:inline;fill:#808080;}
	.st2{fill:#808080;}
</style>
<g id="充电" class="st0">
	<title>battery-full-charging</title>
	<path class="st1" d="M12,4.5c0.6,0,1,0.4,1,1v5c0,0.6-0.4,1-1,1H3c-0.6,0-1-0.4-1-1v-5c0-0.6,0.4-1,1-1H12 M12,3.5H3
		c-1.1,0-2,0.9-2,2v5c0,1.1,0.9,2,2,2h9c1.1,0,2-0.9,2-2v-5C14,4.4,13.1,3.5,12,3.5z"/>
	<path class="st1" d="M14,5.5h0.5C14.8,5.5,15,5.7,15,6v4c0,0.3-0.2,0.5-0.5,0.5h0H14l0,0V5.5L14,5.5z"/>
	<path class="st1" d="M6,8.5l2.5-3H4c-0.6,0-1,0.4-1,1v3c0,0.6,0.4,1,1,1h2.5l0.7-2H6z"/>
	<path class="st1" d="M11,5.5H8.5l-0.7,2H9l-2.5,3H11c0.6,0,1-0.4,1-1v-3C12,5.9,11.6,5.5,11,5.5z"/>
</g>
<g id="图层_2">
	<path class="st2" d="M12,5c0.6,0,1,0.4,1,1v5c0,0.6-0.4,1-1,1H3c-0.6,0-1-0.4-1-1V6c0-0.6,0.4-1,1-1H12 M12,4H3C1.9,4,1,4.9,1,6v5
		c0,1.1,0.9,2,2,2h9c1.1,0,2-0.9,2-2V6C14,4.9,13.1,4,12,4z"/>
	<path class="st2" d="M14,6h0.5C14.8,6,15,6.2,15,6.5l0,0v4c0,0.3-0.2,0.5-0.5,0.5l0,0H14l0,0V6L14,6z"/>
	<path class="st2" d="M6,9l2.5-3H4C3.4,6,3,6.4,3,7v3c0,0.6,0.4,1,1,1h2.5l0.7-2H6z"/>
	<path class="st2" d="M11,6H8.5L7.8,8H9l-2.5,3H11c0.6,0,1-0.4,1-1V7C12,6.4,11.6,6,11,6z"/>
</g>
</svg>
