<?xml version="1.0" encoding="utf-8"?>
<!-- Generator: Adobe Illustrator 24.0.0, SVG Export Plug-In . SVG Version: 6.00 Build 0)  -->
<svg version="1.1" id="图层_3" xmlns="http://www.w3.org/2000/svg" xmlns:xlink="http://www.w3.org/1999/xlink" x="0px" y="0px"
	 viewBox="0 0 16 16" style="enable-background:new 0 0 16 16;" xml:space="preserve">
<style type="text/css">
	.st0{opacity:0.75;}
	.st1{fill:#1F2022;}
	.st2{opacity:0.75;fill:#1F2022;}
</style>
<g id="图层_2_4_" class="st0">
	<path class="st1" d="M13,4c0.6,0,1,0.4,1,1v6c0,0.6-0.4,1-1,1H2c-0.6,0-1-0.4-1-1V5c0-0.6,0.4-1,1-1H13 M13,3H2C0.9,3,0,3.9,0,5v6
		c0,1.1,0.9,2,2,2h11c1.1,0,2-0.9,2-2V5C15,3.9,14.1,3,13,3L13,3z"/>
	<path class="st1" d="M15,5h0.5C15.8,5,16,5.2,16,5.5l0,0v5c0,0.3-0.2,0.5-0.5,0.5l0,0H15l0,0V5L15,5z"/>
</g>
<path class="st2" d="M2,5h11v6H2V5z"/>
</svg>
