<?xml version="1.0" encoding="utf-8"?>
<!-- Generator: Adobe Illustrator 24.0.0, SVG Export Plug-In . SVG Version: 6.00 Build 0)  -->
<svg version="1.1" id="图层_15" xmlns="http://www.w3.org/2000/svg" xmlns:xlink="http://www.w3.org/1999/xlink" x="0px" y="0px"
	 viewBox="0 0 16 16" style="enable-background:new 0 0 16 16;" xml:space="preserve">
<style type="text/css">
	.st0{fill:#808080;}
	.st1{fill:#61A232;}
</style>
<title>busy2</title>
<path class="st0" d="M7,9.6V15l-3.5-1.6c-0.4-0.1-0.5-0.5-0.5-1v-2.1L2,9.8v2.6c0,0.8,0.5,1.6,1.2,1.9L7,16h1l0-6.4H7z"/>
<path class="st0" d="M8,9.6V15l4.2-1.7c0.4-0.1,0.8-0.5,0.8-0.9v-2.1l1-0.5v2.6c0,0.8-0.6,1.6-1.4,1.9L8,16H7V9.6H8z"/>
<path class="st0" d="M13,6.3l1.6,2.5c0.3,0.5,0.2,1.1-0.3,1.4c0,0,0,0,0,0L11,12.4c-0.5,0.3-1.1,0.2-1.4-0.3L8,9.6L13,6.3z
	 M13.8,9.4l-1.1-1.7L9.4,9.9l1.1,1.7L13.8,9.4z"/>
<path class="st0" d="M8,9.6l-1.7,2.5C6,12.5,5.5,12.6,5,12.4l-3.3-2.2C1.2,9.9,1.1,9.2,1.4,8.8c0,0,0,0,0,0L3,6.3L8,9.6z M5.5,11.6
	l1.1-1.7L3.3,7.7L2.2,9.4L5.5,11.6z"/>
<path class="st0" d="M8,3.1l1.6-2.5C10,0.2,10.5,0.1,11,0.4l3.3,2.2c0.5,0.3,0.6,0.9,0.3,1.4L13,6.4L8,3.1z M10.5,1.1L9.4,2.8
	L12.7,5l1.1-1.7L10.5,1.1z"/>
<path class="st0" d="M3,6.4L1.4,3.9C1.1,3.5,1.2,2.9,1.6,2.6L5,0.4c0.5-0.3,1-0.2,1.3,0.3L8,3.1L3,6.4z M2.2,3.4l1.1,1.7l3.3-2.2
	L5.5,1.2L2.2,3.4z"/>
<path class="st1" d="M6.6,6.8L6.6,6.8L6.3,7.1L6.2,7L5.9,6.7L5.2,6l0.3-0.4L6,6.2l0.3,0.3L6.6,6.8L6.6,6.8z"/>
<polygon class="st1" points="7.3,6.1 6.6,6.8 6.3,7.1 6.2,7 5.9,6.8 6,6.6 6.3,6.4 6.5,6.2 7,5.7 "/>
<path class="st1" d="M10,6.3c-0.1,1-1,1.8-2,1.8V7.6c0.8,0.1,1.4-0.5,1.5-1.3C9.4,5.6,8.8,5,8,5.1C7.3,5,6.7,5.5,6.5,6.2
	c0,0.1,0,0.1,0,0.2c0,0.1,0,0.3,0.1,0.4l0,0l0,0L6.3,7.1L6.2,7C6.1,6.9,6,6.8,6,6.6c0-0.1,0-0.2,0-0.3c0-0.1,0-0.1,0-0.2
	c0.2-1,1-1.6,2-1.6C9,4.5,9.9,5.3,10,6.3z"/>
</svg>
