<?xml version="1.0" encoding="utf-8"?>
<!-- Generator: Adobe Illustrator 24.0.0, SVG Export Plug-In . SVG Version: 6.00 Build 0)  -->
<svg version="1.1" id="call-start" xmlns="http://www.w3.org/2000/svg" xmlns:xlink="http://www.w3.org/1999/xlink" x="0px" y="0px"
	 viewBox="0 0 16 16" style="enable-background:new 0 0 16 16;" xml:space="preserve">
<style type="text/css">
	.st0{opacity:0.75;fill:#1F2022;}
</style>
<path class="st0" d="M13.2,1.9l0.6,0.6L14,2.7c0.3,1.7-0.2,3.6-1.4,4.8l-5.1,5.2c-1,1-2.3,1.5-3.7,1.5c-0.4,0-0.8,0-1.1-0.1
	l-0.1-0.2L2,13.3l0,0l2.6-2.6l0,0L4.9,11l0,0c0.8,0.9,2.2,0.9,3.1,0l2.8-3l0.1-0.1c0.9-0.8,0.9-2.2,0-3.1l-0.3-0.3L13.2,1.9
	L13.2,1.9 M13.2,1c-0.3,0-0.5,0.2-0.6,0.4L10,4.1C9.7,4.4,9.7,5,10,5.3l0.3,0.3c0.5,0.5,0.5,1.3,0,1.8l-3,2.9
	c-0.5,0.5-1.3,0.5-1.8,0L5.1,9.9C4.9,9.7,4.8,9.7,4.5,9.7S4.1,9.8,3.9,10l-2.6,2.6c-0.3,0.3-0.3,0.9,0,1.2l0.6,0.6l0.3,0.3
	c0.5,0.1,1,0.2,1.6,0.2c1.6,0,3.1-0.6,4.3-1.7L13.3,8c1.6-1.6,2.1-3.8,1.6-5.9l-0.3-0.3L14,1.2C13.7,1.1,13.5,1,13.2,1L13.2,1z"/>
</svg>
