<?xml version="1.0" encoding="utf-8"?>
<!-- Generator: Adobe Illustrator 24.0.0, SVG Export Plug-In . SVG Version: 6.00 Build 0)  -->
<svg version="1.1" id="图层_2_1_" opacity="0.8" xmlns="http://www.w3.org/2000/svg" xmlns:xlink="http://www.w3.org/1999/xlink"
	 x="0px" y="0px" viewBox="0 0 16 16" style="enable-background:new 0 0 16 16;" xml:space="preserve">
<style type="text/css">
	.st0{fill:none;stroke:#1F2022;stroke-miterlimit:10;}
	.st1{fill:#1F2022;}
</style>
<path class="st0" d="M5,14.5H3.5c-1.1,0-2-0.9-2-2v-9c0-1.1,0.9-2,2-2h9c1.1,0,2,0.9,2,2V10"/>
<path class="st0" d="M5.5,7V6c0-1.4,1.1-2.5,2.5-2.5l0,0c1.4,0,2.5,1.1,2.5,2.5v1"/>
<g id="图层_3">
</g>
<path class="st1" d="M11.5,8L7,16h9L11.5,8z M12,15h-1v-1h1V15z M11,13v-3h1v3H11z"/>
<path class="st1" d="M8,12H6c-0.6,0-1-0.4-1-1V8c0-0.6,0.4-1,1-1h4c0.6,0,1,0.4,1,1l0,0h1l0,0c0-1.1-0.9-2-2-2H6C4.9,6,4,6.9,4,8v3
	c0,1.1,0.9,2,2,2h2V12z"/>
</svg>
