<?xml version="1.0" encoding="utf-8"?>
<!-- Generator: Adobe Illustrator 24.0.0, SVG Export Plug-In . SVG Version: 6.00 Build 0)  -->
<svg version="1.1" id="图层_1" xmlns="http://www.w3.org/2000/svg" xmlns:xlink="http://www.w3.org/1999/xlink" x="0px" y="0px"
	 viewBox="0 0 16 16" style="enable-background:new 0 0 16 16;" xml:space="preserve">
<style type="text/css">
	.st0{opacity:0.75;}
	.st1{fill:#1F2022;}
	.st2{fill:none;stroke:#1F2022;stroke-miterlimit:10;}
</style>
<g id="图层_2_1_" class="st0">
	<g>
		<path class="st1" d="M13,2c0.6,0,1,0.4,1,1v10c0,0.6-0.4,1-1,1H3c-0.6,0-1-0.4-1-1V3c0-0.6,0.4-1,1-1H13 M13,1H3C1.9,1,1,1.9,1,3
			v10c0,1.1,0.9,2,2,2h10c1.1,0,2-0.9,2-2V3C15,1.9,14.1,1,13,1L13,1z"/>
	</g>
	<g>
		<path class="st1" d="M10,7c0.6,0,1,0.4,1,1v3c0,0.6-0.4,1-1,1H6c-0.6,0-1-0.4-1-1V8c0-0.6,0.4-1,1-1H10 M10,6H6C4.9,6,4,6.9,4,8v3
			c0,1.1,0.9,2,2,2h4c1.1,0,2-0.9,2-2V8C12,6.9,11.1,6,10,6L10,6z"/>
	</g>
	<path class="st2" d="M5.5,7V6c0-1.4,1.1-2.5,2.5-2.5l0,0c1.4,0,2.5,1.1,2.5,2.5v1"/>
</g>
</svg>
