<?xml version="1.0" encoding="utf-8"?>
<!-- Generator: Adobe Illustrator 21.0.0, SVG Export Plug-In . SVG Version: 6.00 Build 0)  -->
<svg version="1.1"
	 id="svg7384" inkscape:export-filename="/home/sam/dev/RESOURCES/gnome-icon-theme-symbolic/src/gnome-stencils.png" inkscape:export-xdpi="90" inkscape:export-ydpi="90" inkscape:version="0.48.4 r9939" sodipodi:docname="checkbox-symbolic.svg" xmlns:cc="http://creativecommons.org/ns#" xmlns:dc="http://purl.org/dc/elements/1.1/" xmlns:inkscape="http://www.inkscape.org/namespaces/inkscape" xmlns:rdf="http://www.w3.org/1999/02/22-rdf-syntax-ns#" xmlns:sodipodi="http://sodipodi.sourceforge.net/DTD/sodipodi-0.dtd" xmlns:svg="http://www.w3.org/2000/svg" opacity="0.8"
	 xmlns="http://www.w3.org/2000/svg" xmlns:xlink="http://www.w3.org/1999/xlink" x="0px" y="0px" viewBox="0 0 16 16"
	 style="enable-background:new 0 0 16 16;" xml:space="preserve">
<style type="text/css">
	.st0{fill:#1F2022;}
</style>
<path id="rect9618-8" inkscape:connector-curvature="0" class="st0" d="M3.5,1C2.1,1,1,2.1,1,3.5v9.1C1,13.9,2.1,15,3.5,15h9.1
	c1.4,0,2.5-1.1,2.5-2.5V3.5C15,2.1,13.9,1,12.5,1H3.5z M3.5,2h9.1C13.4,2,14,2.6,14,3.5v9.1c0,0.8-0.6,1.5-1.5,1.5H3.5
	C2.6,14,2,13.4,2,12.5V3.5C2,2.6,2.6,2,3.5,2z"/>
</svg>
