<?xml version="1.0" encoding="utf-8"?>
<!-- Generator: Adobe Illustrator 24.0.0, SVG Export Plug-In . SVG Version: 6.00 Build 0)  -->
<svg version="1.1" id="信息" opacity="0.8" xmlns="http://www.w3.org/2000/svg" xmlns:xlink="http://www.w3.org/1999/xlink"
	 x="0px" y="0px" viewBox="0 0 16 16" style="enable-background:new 0 0 16 16;" xml:space="preserve">
<style type="text/css">
	.st0{fill:#0F79BA;}
	.st1{fill:#1F2022;}
</style>
<g>
	<path class="st0" d="M7,9C6.9,8.4,7,7.7,7.3,7.1C7.5,6.8,7.7,6.5,8,6.2l0.7-0.7C9,5.2,9,5.2,9.1,5.1c0.2-0.3,0.2-0.7,0-1.1
		C8.9,3.7,8.6,3.4,8.3,3.3C8.1,3.2,7.9,3.2,7.7,3.2c-0.4,0-0.9,0.1-1.2,0.4C6.1,3.9,5.9,4.5,6,5H5C4.9,4.2,5.2,3.4,5.8,2.8
		C6.4,2.4,7,2.2,7.7,2.2c0.3,0,0.7,0.1,1,0.2c0.6,0.2,1,0.7,1.3,1.2c0.3,0.6,0.3,1.3,0,1.9C9.9,5.8,9.7,6,9.5,6.2
		C9.3,6.3,9.1,6.6,8.8,6.9C8.6,7.1,8.4,7.4,8.2,7.6C8,8,7.9,8.5,8,9H7z"/>
	<rect x="7" y="10" class="st0" width="1" height="1"/>
</g>
<path class="st1" d="M7.5,1C11.1,1,14,3.6,14,6.7s-2.9,5.7-6.5,5.7c-0.5,0-1.1-0.1-1.6-0.2l-0.4-0.1l-0.4,0.3L3,14v-2.7v-0.5
	l-0.3-0.3C1.6,9.6,1,8.2,1,6.7C1,3.6,3.9,1,7.5,1 M7.5,0C3.4,0,0,3,0,6.7c0,1.7,0.7,3.4,2,4.5V15c0,0.3,0.2,0.5,0.5,0.5
	c0.1,0,0.2,0,0.3-0.1l2.9-2.2c0.6,0.1,1.2,0.2,1.8,0.2c4.1,0,7.5-3,7.5-6.7S11.6,0,7.5,0L7.5,0z"/>
</svg>
