<?xml version="1.0" encoding="utf-8"?>
<!-- Generator: Adobe Illustrator 24.0.0, SVG Export Plug-In . SVG Version: 6.00 Build 0)  -->
<svg version="1.1" id="图层_1" opacity="0.8" xmlns="http://www.w3.org/2000/svg" xmlns:xlink="http://www.w3.org/1999/xlink"
	 x="0px" y="0px" viewBox="0 0 16 16" style="enable-background:new 0 0 16 16;" xml:space="preserve">
<style type="text/css">
	.st0{fill:none;stroke:#1F2022;stroke-miterlimit:10;}
	.st1{fill:#1F2022;}
</style>
<path class="st0" d="M5.5,6.5v-1c0-1.1,0.9-2,2-2l0,0c1.1,0,2,0.9,2,2v1"/>
<path class="st1" d="M10,7v3H5V7H10 M10,6H5C4.4,6,4,6.4,4,7v3c0,0.6,0.4,1,1,1h5c0.6,0,1-0.4,1-1V7C11,6.4,10.6,6,10,6L10,6z"/>
<path class="st1" d="M7.5,1C11.1,1,14,3.6,14,6.7s-2.9,5.7-6.5,5.7c-0.5,0-1.1-0.1-1.6-0.2l-0.4-0.1l-0.4,0.3L3,14v-2.7v-0.5
	l-0.3-0.3C1.6,9.6,1,8.2,1,6.7C1,3.6,3.9,1,7.5,1 M7.5,0C3.4,0,0,3,0,6.7c0,1.7,0.7,3.4,2,4.5V15c0,0.3,0.2,0.5,0.5,0.5
	c0.1,0,0.2,0,0.3-0.1l2.9-2.2c0.6,0.1,1.2,0.2,1.8,0.2c4.1,0,7.5-3,7.5-6.7S11.6,0,7.5,0L7.5,0z"/>
</svg>
