<?xml version="1.0" encoding="utf-8"?>
<!-- Generator: Adobe Illustrator 24.0.0, SVG Export Plug-In . SVG Version: 6.00 Build 0)  -->
<svg version="1.1" id="图层_2" xmlns="http://www.w3.org/2000/svg" xmlns:xlink="http://www.w3.org/1999/xlink" x="0px" y="0px"
	 viewBox="0 0 16 16" style="enable-background:new 0 0 16 16;" xml:space="preserve">
<style type="text/css">
	.st0{fill:#808080;}
	.st1{fill:none;stroke:#808080;stroke-linecap:round;stroke-miterlimit:10;}
	.st2{fill:#47C405;}
</style>
<path class="st0" d="M5,7H1C0.4,7,0,7.4,0,8v7c0,0.6,0.4,1,1,1h4c0.6,0,1-0.4,1-1V8C6,7.4,5.6,7,5,7z M5,15H1V8h4V15z"/>
<rect x="10" y="1" class="st0" width="1" height="3"/>
<path class="st1" d="M7.3,14.3c2.1,1.8,5.2,1.5,7-0.7c0.7-0.9,1.2-2.1,1.2-3.3V5.7c0-2.3-0.8-4.4-3-5l0,3.8c0,0.6-0.4,1-1,1h-2
	c-0.6,0-1-0.4-1-1l0-3.8c-2.2,0.6-3,2.7-3,5"/>
<path class="st0" d="M4,8H2C1.4,8,1,7.6,1,7v0c0-0.5,0.4-1,1-1h2c0.5,0,1,0.4,1,1v0C5,7.6,4.6,8,4,8z"/>
<rect id="_20_1_" x="2" y="10" class="st2" width="2" height="4"/>
</svg>
