<?xml version="1.0" encoding="utf-8"?>
<!-- Generator: Adobe Illustrator 24.0.0, SVG Export Plug-In . SVG Version: 6.00 Build 0)  -->
<svg version="1.1" id="附件" xmlns="http://www.w3.org/2000/svg" xmlns:xlink="http://www.w3.org/1999/xlink" x="0px" y="0px"
	 viewBox="0 0 16 16" style="enable-background:new 0 0 16 16;" xml:space="preserve">
<style type="text/css">
	.st0{opacity:0.75;fill:#1F2022;}
</style>
<path class="st0" d="M7.5,0C5,0,3,2,3,4.5V12c0,0.3,0.2,0.5,0.5,0.5S4,12.3,4,12V4.5C4,2.6,5.6,1,7.5,1S11,2.6,11,4.5v2v5v1
	c0,1.4-1.1,2.5-2.5,2.5C7.1,15,6,13.9,6,12.5v-1v-5v-1C6,4.7,6.7,4,7.5,4S9,4.7,9,5.5V12c0,0.3,0.2,0.5,0.5,0.5S10,12.3,10,12V5.5
	C10,4.1,8.9,3,7.5,3C6.1,3,5,4.1,5,5.5v1v5v1c0,2,1.5,3.5,3.5,3.5c2,0,3.5-1.5,3.5-3.5v-1v-5v-2C12,2,10,0,7.5,0z"/>
</svg>
