<?xml version="1.0" encoding="utf-8"?>
<!-- Generator: Adobe Illustrator 24.0.0, SVG Export Plug-In . SVG Version: 6.00 Build 0)  -->
<svg version="1.1" xmlns="http://www.w3.org/2000/svg" xmlns:xlink="http://www.w3.org/1999/xlink" x="0px" y="0px"
	 viewBox="0 0 16 16" style="enable-background:new 0 0 16 16;" xml:space="preserve">
<style type="text/css">
	.st0{opacity:0.75;}
	.st1{fill:none;stroke:#1F2022;stroke-miterlimit:10;}
	.st2{fill:#268BD2;}
</style>
<g id="邮件" class="st0">
	<path class="st1" d="M2.5,2.5h11c1.1,0,2,0.9,2,2v7c0,1.1-0.9,2-2,2h-11c-1.1,0-2-0.9-2-2v-7C0.5,3.4,1.4,2.5,2.5,2.5z"/>
	<line class="st1" x1="7.1" y1="8.2" x2="1" y2="13"/>
	<line class="st1" x1="15" y1="13" x2="8.5" y2="8.2"/>
	<polyline class="st1" points="15,4 8,8.8 1,4 	"/>
</g>
<g id="图层_2">
	<polygon class="st2" points="13,9 16,9 16,11 13,11 13,13 10,10 12.9,7 	"/>
</g>
</svg>
