<?xml version="1.0" encoding="utf-8"?>
<!-- Generator: Adobe Illustrator 24.0.0, SVG Export Plug-In . SVG Version: 6.00 Build 0)  -->
<svg version="1.1" id="图层_1" xmlns="http://www.w3.org/2000/svg" xmlns:xlink="http://www.w3.org/1999/xlink" x="0px" y="0px"
	 viewBox="0 0 16 16" style="enable-background:new 0 0 16 16;" xml:space="preserve">
<style type="text/css">
	.st0{opacity:0.75;fill:#1F2022;}
	.st1{fill:#268BD2;}
</style>
<path class="st0" d="M13.5,2h-11C1.1,2,0,3.1,0,4.5v7C0,12.9,1.1,14,2.5,14h11c1.4,0,2.5-1.1,2.5-2.5v-7C16,3.1,14.9,2,13.5,2z
	 M9.5,8.3L15,4.6v6.9c0,0.3-0.1,0.5-0.2,0.7L9.5,8.3z M2.5,3h11c0.5,0,0.9,0.2,1.2,0.6L8,8.2L1.3,3.6C1.6,3.2,2,3,2.5,3z M1.2,12.2
	C1.1,12,1,11.8,1,11.5V4.6l5.3,3.6L1.2,12.2z M2.5,13c-0.2,0-0.4,0-0.6-0.1l5.2-4.1L8,9.4l0.7-0.5l5.4,4C13.9,13,13.7,13,13.5,13
	H2.5z"/>
<polygon class="st1" points="13,9 16,9 16,11 13,11 13,13 10,10 12.9,7 "/>
</svg>
