<?xml version="1.0" encoding="utf-8"?>
<!-- Generator: Adobe Illustrator 24.0.0, SVG Export Plug-In . SVG Version: 6.00 Build 0)  -->
<svg version="1.1" id="图层_1" xmlns="http://www.w3.org/2000/svg" xmlns:xlink="http://www.w3.org/1999/xlink" x="0px" y="0px"
	 viewBox="0 0 16 16" style="enable-background:new 0 0 16 16;" xml:space="preserve">
<style type="text/css">
	.st0{opacity:0.75;}
	.st1{fill:#1F2022;}
</style>
<g class="st0">
	<path class="st1" d="M6.5,8.3C7,8.2,7.4,7.9,8,7.6c0,0,0,0,0,0V13h1V6H7.6L7.5,6.3C7.4,6.6,7.4,6.7,7.3,6.8C7,7.1,6.6,7.2,6.3,7.3
		L6.5,8.3z"/>
	<path class="st1" d="M10,3H9.5l1.1-1.1c0.2-0.2,0.2-0.5,0-0.7s-0.5-0.2-0.7,0L8.1,2.9C8,3.1,8,3.2,8,3.4c0,0.2,0,0.3,0.1,0.5
		l1.8,1.8c0.1,0.1,0.2,0.1,0.4,0.1s0.3,0,0.4-0.1c0.2-0.2,0.2-0.5,0-0.7L9.7,4H10c2.7,0,5,2.3,5,5c0,2.7-2.3,5-5,5H6
		c-2.7,0-5-2.3-5-5c0-2.7,2.3-5,5-5c0.3,0,0.5-0.2,0.5-0.5S6.3,3,6,3C2.7,3,0,5.7,0,9c0,3.3,2.7,6,6,6h4c3.3,0,6-2.7,6-6
		C16,5.7,13.3,3,10,3z"/>
</g>
</svg>
