<?xml version="1.0" encoding="utf-8"?>
<!-- Generator: Adobe Illustrator 24.0.0, SVG Export Plug-In . SVG Version: 6.00 Build 0)  -->
<svg version="1.1" id="图层_2_1_" opacity="0.8" xmlns="http://www.w3.org/2000/svg" xmlns:xlink="http://www.w3.org/1999/xlink"
	 x="0px" y="0px" viewBox="0 0 16 16" style="enable-background:new 0 0 16 16;" xml:space="preserve">
<style type="text/css">
	.st0{fill:none;stroke:#1F2022;stroke-miterlimit:10;}
	.st1{fill:none;stroke:#1F2022;stroke-linecap:round;stroke-miterlimit:10;}
</style>
<path class="st0" d="M0.8,3.5H5c2.2,0,4,1.8,4,4l0,0"/>
<path class="st0" d="M7,10.9c-0.7,0.4-1.5,0.6-2.3,0.6H0.8"/>
<path class="st0" d="M16,11.5h-3c-2.2,0-4-1.8-4-4l0,0"/>
<path class="st0" d="M11,4.2c0.6-0.5,1.4-0.7,2.2-0.7H16"/>
<path class="st1" d="M3,9.5l-2.3,1.6c-0.3,0.2-0.3,0.6,0,0.8L3,13.5"/>
<path class="st1" d="M3,1.5L0.7,3.1c-0.3,0.2-0.3,0.6,0,0.8L3,5.5"/>
</svg>
