<?xml version="1.0" encoding="utf-8"?>
<!-- Generator: Adobe Illustrator 24.0.0, SVG Export Plug-In . SVG Version: 6.00 Build 0)  -->
<svg version="1.1" id="图层_1" xmlns="http://www.w3.org/2000/svg" xmlns:xlink="http://www.w3.org/1999/xlink" x="0px" y="0px"
	 viewBox="0 0 16 16" style="enable-background:new 0 0 16 16;" xml:space="preserve">
<style type="text/css">
	.st0{fill:#268BD2;}
	.st1{opacity:0.1;fill:#268BD2;enable-background:new    ;}
	.st2{opacity:0.75;}
	.st3{fill:#1F2022;}
	.st4{fill:none;stroke:#1F2022;stroke-linecap:round;stroke-miterlimit:10;}
</style>
<g id="麦克风">
	<title>microphone-sensitivity-low</title>
	<g id="_16">
		<circle class="st0" cx="15" cy="9" r="1"/>
		<circle class="st1" cx="15" cy="6" r="1"/>
		<circle class="st1" cx="15" cy="3" r="1"/>
	</g>
</g>
<g id="_16_1_" class="st2">
	<path class="st3" d="M7,12c-2.2,0-4-1.8-4-4V4c0-2.2,1.8-4,4-4s4,1.8,4,4v4C11,10.2,9.2,12,7,12z M7,1C5.3,1,4,2.3,4,4v4
		c0,1.7,1.3,3,3,3s3-1.3,3-3V4C10,2.3,8.7,1,7,1z"/>
	<rect x="6" y="13" class="st3" width="2" height="2"/>
	<path class="st4" d="M12.6,6.5V8c0,3-2.5,5.5-5.5,5.5l0,0C4,13.5,1.5,11,1.5,8V6.5"/>
	<line class="st4" x1="4.5" y1="15.5" x2="9.5" y2="15.5"/>
	<line class="st4" x1="6.5" y1="7.5" x2="7.5" y2="7.5"/>
	<line class="st4" x1="6.5" y1="5.5" x2="7.5" y2="5.5"/>
</g>
</svg>
