<?xml version="1.0" encoding="utf-8"?>
<!-- Generator: Adobe Illustrator 24.0.0, SVG Export Plug-In . SVG Version: 6.00 Build 0)  -->
<svg version="1.1" id="图层_2" opacity="0.8" xmlns="http://www.w3.org/2000/svg" xmlns:xlink="http://www.w3.org/1999/xlink"
	 x="0px" y="0px" viewBox="0 0 16 16" style="enable-background:new 0 0 16 16;" xml:space="preserve">
<style type="text/css">
	.st0{fill:none;stroke:#1F2022;stroke-linecap:round;stroke-miterlimit:10;}
	.st1{fill:#1F2022;}
	.st2{fill:none;stroke:#1F2022;stroke-miterlimit:10;}
</style>
<path class="st0" d="M7.5,14.5H1.9c-0.6,0-0.9-0.8-0.5-1.2L13.3,1.4c0.4-0.4,1.2-0.1,1.2,0.5V7"/>
<path class="st1" d="M10,5l-9.1,9.1c0,0,0.7,0.9,1.1,0.9h6v-4c0-0.5,0.5-1,1.1-1C9.2,9.3,9.5,8.6,10,8.1V5z"/>
<g id="图层_1_2_">
	<g>
		<path class="st1" d="M15,12v3h-5v-3H15 M15,11h-5c-0.6,0-1,0.4-1,1v3c0,0.6,0.4,1,1,1h5c0.6,0,1-0.4,1-1v-3C16,11.4,15.6,11,15,11
			L15,11z"/>
		<path class="st2" d="M10.5,11.3v-0.8c0-1.1,0.9-2,2-2l0,0c1.1,0,2,0.9,2,2v0.8"/>
	</g>
</g>
</svg>
