<?xml version="1.0" encoding="utf-8"?>
<!-- Generator: Adobe Illustrator 24.0.0, SVG Export Plug-In . SVG Version: 6.00 Build 0)  -->
<svg version="1.1" id="图层_1" xmlns="http://www.w3.org/2000/svg" xmlns:xlink="http://www.w3.org/1999/xlink" x="0px" y="0px"
	 viewBox="0 0 16 16" style="enable-background:new 0 0 16 16;" xml:space="preserve">
<style type="text/css">
	.st0{fill:#268BD2;}
	
		.st1{opacity:0.3;fill:none;stroke:#1F2022;stroke-linecap:round;stroke-linejoin:round;stroke-miterlimit:10;enable-background:new    ;}
</style>
<g id="图层_1_2_">
	<g id="图层_1_1_">
		<path class="st0" d="M7,10C6.9,9.4,7,8.7,7.3,8.1C7.5,7.8,7.7,7.5,8,7.2l0.7-0.7C8.9,6.2,9,6.2,9,6.1C9.1,5.7,9.1,5.3,9,5
			C8.8,4.7,8.6,4.4,8.2,4.3C8,4.2,7.8,4.2,7.6,4.2c-0.4,0-0.9,0.1-1.2,0.4C6.1,4.9,5.9,5.5,6,6H5C4.9,5.2,5.2,4.4,5.8,3.8
			C6.4,3.4,7,3.2,7.7,3.2c0.3,0,0.7,0.1,1,0.2C9.3,3.6,9.7,4,10,4.6s0.3,1.3,0,1.9C9.9,6.8,9.7,7,9.5,7.2C9.3,7.3,9.1,7.6,8.8,7.9
			C8.6,8.1,8.4,8.4,8.2,8.6C8,9,7.9,9.5,8,10H7z"/>
		<rect x="7" y="11" class="st0" width="1" height="1"/>
	</g>
</g>
<path class="st1" d="M5.8,9.6l-4.1,4.1c-0.4,0.4-0.1,0.8,0.3,0.8h11.6c0.5,0,0.9-0.4,0.9-0.9V2c0-0.4-0.5-0.6-0.8-0.4L11.3,4"/>
</svg>
