<?xml version="1.0" encoding="utf-8"?>
<!-- Generator: Adobe Illustrator 24.0.0, SVG Export Plug-In . SVG Version: 6.00 Build 0)  -->
<svg version="1.1" id="图层_1" xmlns="http://www.w3.org/2000/svg" xmlns:xlink="http://www.w3.org/1999/xlink" x="0px" y="0px"
	 viewBox="0 0 16 16" style="enable-background:new 0 0 16 16;" xml:space="preserve">
<style type="text/css">
	.st0{opacity:0.75;}
	.st1{fill:#1F2022;enable-background:new    ;}
	
		.st2{opacity:0.3;fill:none;stroke:#1F2022;stroke-linecap:round;stroke-linejoin:round;stroke-miterlimit:10;enable-background:new    ;}
</style>
<g class="st0">
	<path class="st1" d="M12,6h1c0.6,0,1,0.4,1,1v1c0,0.6-0.4,1-1,1h-1c-0.6,0-1-0.4-1-1V7C11,6.4,11.4,6,12,6z"/>
	<path class="st1" d="M8,6h1c0.6,0,1,0.4,1,1v1c0,0.6-0.4,1-1,1H8C7.4,9,7,8.6,7,8V7C7,6.4,7.4,6,8,6z"/>
	<path class="st1" d="M4,6h1c0.6,0,1,0.4,1,1v1c0,0.6-0.4,1-1,1H4C3.4,9,3,8.6,3,8V7C3,6.4,3.4,6,4,6z"/>
</g>
<path class="st2" d="M5.8,9.6l-4.1,4.1c-0.4,0.4-0.1,0.8,0.3,0.8h11.6c0.5,0,0.9-0.4,0.9-0.9V2c0-0.4-0.5-0.6-0.8-0.4l-3.1,3.1"/>
</svg>
