<?xml version="1.0" encoding="utf-8"?>
<!-- Generator: Adobe Illustrator 24.0.0, SVG Export Plug-In . SVG Version: 6.00 Build 0)  -->
<svg version="1.1" id="图层_1" xmlns="http://www.w3.org/2000/svg" xmlns:xlink="http://www.w3.org/1999/xlink" x="0px" y="0px"
	 viewBox="0 0 16 16" style="enable-background:new 0 0 16 16;" xml:space="preserve">
<style type="text/css">
	.st0{opacity:0.75;}
	.st1{fill:#1F2022;}
	.st2{fill:none;stroke:#1F2022;stroke-miterlimit:10;}
</style>
<g id="有线网络" class="st0">
	<title>network-vpn</title>
	<path class="st1" d="M1,6c0-0.6,0.4-1,1-1h8V4H2C0.9,4,0,4.9,0,6v5c0,1.1,0.9,2,2,2h5v2H4v1h4v-1l0,0v-2l0,0v-1H2c-0.6,0-1-0.4-1-1
		V6z"/>
	<rect x="12" y="1" class="st1" width="1" height="2"/>
	<rect x="14" y="1" class="st1" width="1" height="2"/>
	<path class="st1" d="M15,3v3c0,0.6-0.4,1-1,1h-1c-0.6,0-1-0.4-1-1V3h-1v3c0,1.1,0.9,2,2,2h1c1.1,0,2-0.9,2-2V3H15z"/>
	<rect x="13" y="4" class="st1" width="1" height="2"/>
</g>
<g class="st0">
	<path class="st1" d="M15,12v3h-5v-3H15 M15,11h-5c-0.6,0-1,0.4-1,1v3c0,0.6,0.4,1,1,1h5c0.6,0,1-0.4,1-1v-3C16,11.4,15.6,11,15,11
		L15,11z"/>
	<path class="st2" d="M10.5,11.3v-0.8c0-1.1,0.9-2,2-2l0,0c1.1,0,2,0.9,2,2v0.8"/>
</g>
</svg>
