<?xml version="1.0" encoding="utf-8"?>
<!-- Generator: Adobe Illustrator 24.0.0, SVG Export Plug-In . SVG Version: 6.00 Build 0)  -->
<svg version="1.1" xmlns="http://www.w3.org/2000/svg" xmlns:xlink="http://www.w3.org/1999/xlink" x="0px" y="0px"
	 viewBox="0 0 16 16" style="enable-background:new 0 0 16 16;" xml:space="preserve">
<style type="text/css">
	.st0{opacity:0.8;}
	.st1{fill:#1F2022;}
	.st2{fill:none;stroke:#1F2022;stroke-miterlimit:10;}
	.st3{opacity:0.75;}
</style>
<g id="图层_1" class="st0">
	<g>
		<path class="st1" d="M15,12v3h-5v-3H15 M15,11h-5c-0.6,0-1,0.4-1,1v3c0,0.6,0.4,1,1,1h5c0.6,0,1-0.4,1-1v-3C16,11.4,15.6,11,15,11
			L15,11z"/>
		<path class="st2" d="M10.5,11.3v-0.8c0-1.1,0.9-2,2-2l0,0c1.1,0,2,0.9,2,2v0.8"/>
	</g>
</g>
<g id="图层_2" class="st3">
	<g>
		<path class="st1" d="M9.1,10c0.2-1.7,1.7-3,3.4-3c1,0,1.9,0.4,2.5,1.1V1.9c0-0.9-1.1-1.3-1.7-0.7L1.2,13.3C0.6,13.9,1,15,1.9,15H8
			v-4C8,10.5,8.5,10,9.1,10L9.1,10z"/>
	</g>
</g>
</svg>
