<?xml version="1.0" encoding="utf-8"?>
<!-- Generator: Adobe Illustrator 24.0.0, SVG Export Plug-In . SVG Version: 6.00 Build 0)  -->
<svg version="1.1" id="图层_2_1_" opacity="0.8" xmlns="http://www.w3.org/2000/svg" xmlns:xlink="http://www.w3.org/1999/xlink"
	 x="0px" y="0px" viewBox="0 0 16 16" style="enable-background:new 0 0 16 16;" xml:space="preserve">
<style type="text/css">
	.st0{fill:#1F2022;}
</style>
<g>
	<g>
		<polygon class="st0" points="4.9,8.6 4.9,6.2 3.3,8.6 		"/>
		<path class="st0" d="M7.5,2H2C0.9,2,0,2.9,0,4v8c0,1.1,0.9,2,2,2h5.5V2z M7.1,9.8H6.3v1.4H4.9V9.8H2V8.6l3.1-4.5h1.2v4.5h0.9v1.2
			H7.1z"/>
	</g>
	<path class="st0" d="M14,2H7.3v12H14c1.1,0,2-0.9,2-2V4C16,2.9,15.1,2,14,2z M14.5,10.3c-0.3,0.3-0.7,0.6-1.3,0.8s-1.2,0.3-1.7,0.3
		c-0.7,0-1.4-0.2-2-0.5s-1-0.8-1.3-1.3C8,9,7.9,8.4,7.9,7.7s0.2-1.4,0.5-2s0.8-1,1.4-1.3c0.5-0.2,1-0.4,1.7-0.4
		c0.9,0,1.6,0.2,2.1,0.6c0.5,0.4,0.8,0.9,1,1.5L13,6.4c-0.1-0.4-0.3-0.6-0.6-0.8s-0.6-0.3-1-0.3c-0.6,0-1.1,0.2-1.5,0.6
		s-0.6,1-0.6,1.8s0.2,1.5,0.6,1.9c0.4,0.4,0.9,0.6,1.5,0.6c0.3,0,0.6-0.1,0.9-0.2c0.3-0.1,0.6-0.3,0.8-0.4v-1h-1.7V7.4h3.1V10.3z"/>
</g>
</svg>
