<?xml version="1.0" encoding="utf-8"?>
<!-- Generator: Adobe Illustrator 24.0.0, SVG Export Plug-In . SVG Version: 6.00 Build 0)  -->
<svg version="1.1" xmlns="http://www.w3.org/2000/svg" xmlns:xlink="http://www.w3.org/1999/xlink" x="0px" y="0px"
	 viewBox="0 0 16 16" style="enable-background:new 0 0 16 16;" xml:space="preserve">
<style type="text/css">
	.st0{display:none;}
	.st1{display:inline;fill:#EA572A;}
	.st2{display:inline;fill:#808080;}
	.st3{display:inline;fill:none;stroke:#808080;stroke-miterlimit:10;}
	.st4{fill:#808080;}
	.st5{fill:none;stroke:#808080;stroke-miterlimit:10;}
	.st6{fill:#47C405;}
</style>
<g id="图层_19" class="st0">
	<title>phone-battery-good</title>
	<rect id="_20" x="2" y="10" class="st1" width="2" height="4"/>
	<rect id="_40" x="2" y="10" class="st2" width="2" height="4"/>
	<rect id="_60" x="2" y="7" class="st2" width="2" height="7"/>
	<circle class="st2" cx="11.9" cy="13.4" r="0.8"/>
	<path class="st2" d="M15,1H9C8.4,1,8,1.4,8,2v13c0,0.6,0.4,1,1,1h6c0.6,0,1-0.4,1-1V2C16,1.4,15.6,1,15,1z M15,14.5
		c0,0.3-0.2,0.5-0.5,0.5h-5C9.2,15,9,14.8,9,14.5V12h6V14.5z M9,11V2.5C9,2.2,9.2,2,9.5,2h5C14.8,2,15,2.2,15,2.5V11H9z"/>
	<path class="st3" d="M1,1.5h4c0.3,0,0.5,0.2,0.5,0.5v13c0,0.3-0.2,0.5-0.5,0.5H1c-0.3,0-0.5-0.2-0.5-0.5V2C0.5,1.7,0.7,1.5,1,1.5z"
		/>
	<path class="st2" d="M2,0h2c0.3,0,0.5,0.2,0.5,0.5V1l0,0h-3l0,0V0.5C1.5,0.2,1.7,0,2,0z"/>
</g>
<g id="图层_2">
	<circle class="st4" cx="12" cy="13.5" r="1"/>
	<path class="st4" d="M15,1H9C8.4,1,8,1.4,8,2v13c0,0.6,0.4,1,1,1h6c0.6,0,1-0.4,1-1V2C16,1.4,15.6,1,15,1z M15,14.5
		c0,0.3-0.2,0.5-0.5,0.5h-5C9.2,15,9,14.8,9,14.5V12h6V14.5z M9,11V2.5C9,2.2,9.2,2,9.5,2h5C14.8,2,15,2.2,15,2.5V11H9z"/>
	<path class="st5" d="M1,1.5h4c0.3,0,0.5,0.2,0.5,0.5v13c0,0.3-0.2,0.5-0.5,0.5H1c-0.3,0-0.5-0.2-0.5-0.5V2C0.5,1.7,0.7,1.5,1,1.5z"
		/>
	<path class="st4" d="M1.5,0h3C4.8,0,5,0.2,5,0.5V1l0,0H1l0,0V0.5C1,0.2,1.2,0,1.5,0z"/>
	<rect id="_80" x="2" y="5" class="st6" width="2" height="9"/>
</g>
</svg>
