<?xml version="1.0" encoding="utf-8"?>
<!-- Generator: Adobe Illustrator 24.0.0, SVG Export Plug-In . SVG Version: 6.00 Build 0)  -->
<svg version="1.1" id="图层_1" opacity="0.8" xmlns="http://www.w3.org/2000/svg" xmlns:xlink="http://www.w3.org/1999/xlink"
	 x="0px" y="0px" viewBox="0 0 16 16" style="enable-background:new 0 0 16 16;" xml:space="preserve">
<style type="text/css">
	.st0{display:none;}
	.st1{display:inline;fill:none;stroke:#808080;stroke-linecap:round;stroke-linejoin:round;stroke-miterlimit:10;}
	.st2{display:inline;fill:none;stroke:#808080;stroke-linecap:round;stroke-miterlimit:10;}
	.st3{fill:none;stroke:#1F2022;stroke-linecap:round;stroke-linejoin:round;stroke-miterlimit:10;}
</style>
<g id="图层_2_1_" class="st0">
	<path class="st1" d="M1,5.3c0-0.1,0.1-0.1,0.1-0.2C2.2,2.4,4.9,0.5,8,0.5c3.4,0,6.4,2.3,7.2,5.5"/>
	<path class="st1" d="M15,10.7c-1.1,2.8-3.8,4.8-7,4.8c-3.5,0-6.4-2.3-7.2-5.5"/>
	<polyline class="st2" points="0.5,3 0.5,5.5 3,5.5 	"/>
	<polyline class="st2" points="13,10.5 15.5,10.5 15.5,13 	"/>
</g>
<g id="图层_3">
	<path class="st3" d="M6,15.2C2.8,14.4,0.5,11.4,0.5,8"/>
	<path class="st3" d="M15.5,8c0,3.4-2.3,6.3-5.5,7.2"/>
	<path class="st3" d="M1.1,5C2.3,2.3,4.9,0.5,8,0.5s5.7,1.8,6.9,4.5"/>
</g>
</svg>
