<?xml version="1.0" encoding="utf-8"?>
<!-- Generator: Adobe Illustrator 24.0.0, SVG Export Plug-In . SVG Version: 6.00 Build 0)  -->
<svg version="1.1" id="图层_1" opacity="0.8" xmlns="http://www.w3.org/2000/svg" xmlns:xlink="http://www.w3.org/1999/xlink"
	 x="0px" y="0px" viewBox="0 0 16 16" style="enable-background:new 0 0 16 16;" xml:space="preserve">
<style type="text/css">
	.st0{fill:none;stroke:#1F2022;stroke-linecap:round;stroke-linejoin:round;stroke-miterlimit:10;}
	.st1{fill:none;stroke:#1F2022;stroke-linecap:round;stroke-miterlimit:10;}
	.st2{fill:#1F2022;}
</style>
<g id="图层_2_1_">
	<path class="st0" d="M1,5.3c0-0.1,0.1-0.1,0.1-0.2C2.2,2.4,4.9,0.5,8,0.5c3.4,0,6.4,2.3,7.2,5.5"/>
	<path class="st0" d="M15,10.7c-1.1,2.8-3.8,4.8-7,4.8c-3.5,0-6.4-2.3-7.2-5.5"/>
	<polyline class="st1" points="0.5,3 0.5,5.5 3,5.5 	"/>
	<polyline class="st1" points="13,10.5 15.5,10.5 15.5,13 	"/>
</g>
<g id="图层_3_x5F_复制">
	<g>
		<path class="st2" d="M10,7c0.6,0,1,0.4,1,1v3c0,0.6-0.4,1-1,1H6c-0.6,0-1-0.4-1-1V8c0-0.6,0.4-1,1-1H10 M10,6H6C4.9,6,4,6.9,4,8v3
			c0,1.1,0.9,2,2,2h4c1.1,0,2-0.9,2-2V8C12,6.9,11.1,6,10,6L10,6z"/>
	</g>
	<path class="st1" d="M5.5,6.5V6c0-1.4,1.1-2.5,2.5-2.5l0,0c0.8,0,1.5,0.4,2,1"/>
	<path class="st2" d="M8,8L8,8c0.6,0,1,0.4,1,1v1c0,0.6-0.4,1-1,1l0,0c-0.6,0-1-0.4-1-1V9C7,8.4,7.4,8,8,8z"/>
</g>
</svg>
