<?xml version="1.0" encoding="utf-8"?>
<!-- Generator: Adobe Illustrator 24.0.0, SVG Export Plug-In . SVG Version: 6.00 Build 0)  -->
<svg version="1.1" id="图层_2_1_" opacity="0.8" xmlns="http://www.w3.org/2000/svg" xmlns:xlink="http://www.w3.org/1999/xlink"
	 x="0px" y="0px" viewBox="0 0 16 16" style="enable-background:new 0 0 16 16;" xml:space="preserve">
<style type="text/css">
	.st0{fill:#1F2022;}
	.st1{fill:none;stroke:#1F2022;stroke-miterlimit:10;}
</style>
<polygon class="st0" points="8,12.4 8,0.9 10.3,5.4 15.1,5.9 11.2,10.1 12.2,15.3 "/>
<path id="_16-2_1_" class="st1" d="M7.6,1.2l-1.5,4c0,0.2-0.2,0.3-0.4,0.3H1.3C0.8,5.5,0.6,6.1,1,6.4l3.7,3.4
	c0.1,0.1,0.2,0.3,0.1,0.5l-1,4.4c-0.1,0.5,0.4,0.8,0.8,0.5l3.2-2.4c0.2-0.1,0.4-0.1,0.6,0l3.4,2.5c0.4,0.3,0.9-0.1,0.8-0.5l-1-4.5
	c0-0.2,0-0.3,0.1-0.5l3.5-3.4c0.3-0.3,0.1-0.9-0.4-0.9h-4.2c-0.2,0-0.4-0.1-0.5-0.3l-1.6-4C8.3,0.8,7.7,0.8,7.6,1.2z"/>
</svg>
