<?xml version="1.0" encoding="utf-8"?>
<!-- Generator: Adobe Illustrator 24.0.0, SVG Export Plug-In . SVG Version: 6.00 Build 0)  -->
<svg version="1.1" id="图层_2_1_" xmlns="http://www.w3.org/2000/svg" xmlns:xlink="http://www.w3.org/1999/xlink" x="0px"
	 y="0px" viewBox="0 0 16 16" style="enable-background:new 0 0 16 16;" xml:space="preserve">
<style type="text/css">
	.st0{opacity:0.75;fill:none;stroke:#1F2022;stroke-miterlimit:10;}
	.st1{opacity:0.75;fill:none;stroke:#1F2022;stroke-linecap:round;stroke-miterlimit:10;}
</style>
<path class="st0" d="M12.2,7.8l-4.1,4.5c-0.1,0.1-0.2,0.1-0.3,0l-4-4.5c-0.1-0.1,0-0.3,0.1-0.3h2.4c0.1,0,0.2-0.1,0.2-0.2V1.7
	c0-0.1,0.1-0.2,0.2-0.2h2.6c0.1,0,0.2,0.1,0.2,0.2v5.6c0,0.1,0.1,0.2,0.2,0.2h2.4C12.2,7.5,12.3,7.7,12.2,7.8z"/>
<path class="st1" d="M0.5,8.5v4c0,1.1,0.9,2,2,2h11c1.1,0,2-0.9,2-2v-4"/>
</svg>
