<?xml version="1.0" encoding="utf-8"?>
<!-- Generator: Adobe Illustrator 24.0.0, SVG Export Plug-In . SVG Version: 6.00 Build 0)  -->
<svg version="1.1" id="表-1" xmlns="http://www.w3.org/2000/svg" xmlns:xlink="http://www.w3.org/1999/xlink" x="0px" y="0px"
	 viewBox="0 0 16 16" style="enable-background:new 0 0 16 16;" xml:space="preserve">
<style type="text/css">
	.st0{opacity:0.75;}
	.st1{fill:#1F2022;}
</style>
<title>16</title>
<g id="_16" class="st0">
	<path class="st1" d="M8,0C5.1,0,2.5,1.5,1.1,4h1.2C4.5,0.8,8.9,0.1,12,2.3s3.9,6.6,1.7,9.8S7.1,16,4,13.8C2.1,12.4,1,10.3,1,8H0
		c0,4.4,3.6,8,8,8s8-3.6,8-8S12.4,0,8,0z"/>
	<rect x="7" y="2" class="st1" width="1" height="1"/>
	<rect x="2" y="8" class="st1" width="1" height="1"/>
	<rect x="13" y="8" class="st1" width="1" height="1"/>
	<rect x="7" y="13" class="st1" width="1" height="1"/>
	<rect x="7" y="4" class="st1" width="1" height="5"/>
	<rect x="7" y="8" class="st1" width="5" height="1"/>
	<polygon class="st1" points="4.5,4.5 1,4.5 1,1 2,1 2,3.5 4.5,3.5 	"/>
</g>
</svg>
