<?xml version="1.0" encoding="utf-8"?>
<!-- Generator: Adobe Illustrator 24.0.0, SVG Export Plug-In . SVG Version: 6.00 Build 0)  -->
<svg version="1.1" id="图层_1" xmlns="http://www.w3.org/2000/svg" xmlns:xlink="http://www.w3.org/1999/xlink" x="0px" y="0px"
	 viewBox="0 0 16 16" style="enable-background:new 0 0 16 16;" xml:space="preserve">
<style type="text/css">
	.st0{opacity:0.75;}
	.st1{fill:#1F2022;}
	.st2{fill:none;stroke:#1F2022;stroke-miterlimit:10;}
</style>
<g id="图层_2_1_" class="st0">
	<g>
		<path class="st1" d="M13,3c0.6,0,1,0.4,1,1v10c0,0.6-0.4,1-1,1H3c-0.6,0-1-0.4-1-1V4c0-0.6,0.4-1,1-1H13 M13,2H3C1.9,2,1,2.9,1,4
			v10c0,1.1,0.9,2,2,2h10c1.1,0,2-0.9,2-2V4C15,2.9,14.1,2,13,2L13,2z"/>
	</g>
	<path class="st2" d="M4.5,3V2.5c0-1.1,0.9-2,2-2h3c1.1,0,2,0.9,2,2V3"/>
	<polyline class="st2" points="6,2.5 3.5,2.5 3.5,8 6,6 8,8 10,5.5 12.5,5.5 12.5,2.5 10,2.5 	"/>
</g>
</svg>
