<?xml version="1.0" encoding="utf-8"?>
<!-- Generator: Adobe Illustrator 24.0.0, SVG Export Plug-In . SVG Version: 6.00 Build 0)  -->
<svg version="1.1" id="图层_2_1_" xmlns="http://www.w3.org/2000/svg" xmlns:xlink="http://www.w3.org/1999/xlink" x="0px"
	 y="0px" viewBox="0 0 16 16" style="enable-background:new 0 0 16 16;" xml:space="preserve">
<style type="text/css">
	.st0{opacity:0.75;}
	.st1{fill:#1F2022;}
	.st2{fill:none;stroke:#1F2022;stroke-miterlimit:10;}
	.st3{fill:none;stroke:#E40000;stroke-width:2;stroke-miterlimit:10;}
	.st4{fill:#E40000;}
</style>
<g class="st0">
	<path class="st1" d="M13,3c0.6,0,1,0.4,1,1v10c0,0.6-0.4,1-1,1H3c-0.6,0-1-0.4-1-1V4c0-0.6,0.4-1,1-1H13 M13,2H3C1.9,2,1,2.9,1,4
		v10c0,1.1,0.9,2,2,2h10c1.1,0,2-0.9,2-2V4C15,2.9,14.1,2,13,2L13,2z"/>
	<path class="st2" d="M12.5,2.6v7.9c0,1.1-0.9,2-2,2h-5c-1.1,0-2-0.9-2-2V2.6"/>
	<path class="st2" d="M4.5,3V2.5c0-1.1,0.9-2,2-2h3c1.1,0,2,0.9,2,2V3"/>
</g>
<line class="st3" x1="8" y1="4" x2="8" y2="9"/>
<circle class="st4" cx="8" cy="11" r="1"/>
</svg>
