<?xml version="1.0" encoding="utf-8"?>
<!-- Generator: Adobe Illustrator 24.0.0, SVG Export Plug-In . SVG Version: 6.00 Build 0)  -->
<svg version="1.1" id="图层_2_1_" xmlns="http://www.w3.org/2000/svg" xmlns:xlink="http://www.w3.org/1999/xlink" x="0px"
	 y="0px" viewBox="0 0 16 16" style="enable-background:new 0 0 16 16;" xml:space="preserve">
<style type="text/css">
	.st0{opacity:0.75;fill:#1F2022;}
	.st1{fill:none;stroke:#E40000;stroke-width:2;stroke-miterlimit:10;}
	.st2{fill:#E40000;}
</style>
<path class="st0" d="M13,2h-1.1c-0.2-1.1-1.2-2-2.4-2h-3C5.3,0,4.3,0.9,4.1,2H3C1.9,2,1,2.9,1,4v10c0,1.1,0.9,2,2,2h10
	c1.1,0,2-0.9,2-2V4C15,2.9,14.1,2,13,2z M4,3h1h6h1v7.5c0,0.8-0.7,1.5-1.5,1.5h-5C4.7,12,4,11.3,4,10.5V3z M6.5,1h3
	c0.7,0,1.2,0.4,1.4,1H5.1C5.3,1.4,5.8,1,6.5,1z M14,14c0,0.6-0.4,1-1,1H3c-0.6,0-1-0.4-1-1V4c0-0.6,0.4-1,1-1v7.5
	C3,11.9,4.1,13,5.5,13h5c1.4,0,2.5-1.1,2.5-2.5V3c0.6,0,1,0.4,1,1V14z"/>
<line class="st1" x1="8" y1="4" x2="8" y2="9"/>
<circle class="st2" cx="8" cy="11" r="1"/>
</svg>
