<?xml version="1.0" encoding="utf-8"?>
<!-- Generator: Adobe Illustrator 24.0.0, SVG Export Plug-In . SVG Version: 6.00 Build 0)  -->
<svg version="1.1" id="图层_1" xmlns="http://www.w3.org/2000/svg" xmlns:xlink="http://www.w3.org/1999/xlink" x="0px" y="0px"
	 viewBox="0 0 16 16" style="enable-background:new 0 0 16 16;" xml:space="preserve">
<style type="text/css">
	.st0{opacity:0.3;}
	.st1{fill:none;stroke:#1F2022;stroke-miterlimit:10;}
	.st2{fill:#1F2022;}
	.st3{opacity:0.75;}
</style>
<g id="图层_6" class="st0">
	<path class="st1" d="M6.5,12.5v-9c0-1.1,0.9-2,2-2l0,0c1.1,0,2,0.9,2,2v9"/>
	<path class="st1" d="M14.5,3.5v9c0,1.1-0.9,2-2,2l0,0c-1.1,0-2-0.9-2-2v-9"/>
	<path class="st1" d="M6.5,3.5v9c0,1.1-0.9,2-2,2l0,0c-1.1,0-2-0.9-2-2V6"/>
	<g id="图层_7">
		<rect x="1" y="3" class="st2" width="3" height="3"/>
		<rect y="3" class="st2" width="5" height="2"/>
		<rect x="1" y="1" class="st2" width="1" height="2"/>
		<rect x="3" y="1" class="st2" width="1" height="2"/>
	</g>
</g>
<g id="图层_8" class="st3">
	<path class="st2" d="M4.5,9L4.5,9C3.7,9,3,8.3,3,7.5l0,0C3,6.7,3.7,6,4.5,6l0,0C5.3,6,6,6.7,6,7.5l0,0C6,8.3,5.3,9,4.5,9z"/>
	<path class="st2" d="M8.5,9L8.5,9C7.7,9,7,8.3,7,7.5l0,0C7,6.7,7.7,6,8.5,6l0,0C9.3,6,10,6.7,10,7.5l0,0C10,8.3,9.3,9,8.5,9z"/>
	<path class="st2" d="M12.5,9L12.5,9C11.7,9,11,8.3,11,7.5l0,0C11,6.7,11.7,6,12.5,6l0,0C13.3,6,14,6.7,14,7.5l0,0
		C14,8.3,13.3,9,12.5,9z"/>
</g>
</svg>
