<?xml version="1.0" encoding="utf-8"?>
<!-- Generator: Adobe Illustrator 24.0.0, SVG Export Plug-In . SVG Version: 6.00 Build 0)  -->
<svg version="1.1" xmlns="http://www.w3.org/2000/svg" xmlns:xlink="http://www.w3.org/1999/xlink" x="0px" y="0px"
	 viewBox="0 0 16 16" style="enable-background:new 0 0 16 16;" xml:space="preserve">
<style type="text/css">
	.st0{fill:#E40000;}
	.st1{fill:none;stroke:#E40000;stroke-miterlimit:10;}
	.st2{fill:none;stroke:#1F2022;stroke-linecap:round;stroke-miterlimit:10;}
	.st3{fill:none;stroke:#1F2022;stroke-miterlimit:10;}
</style>
<g id="图层_2_1_">
	<path class="st0" d="M13,11c1.1,0,2,0.9,2,2s-0.9,2-2,2s-2-0.9-2-2S11.9,11,13,11 M13,10c-1.7,0-3,1.3-3,3s1.3,3,3,3s3-1.3,3-3
		S14.7,10,13,10L13,10z"/>
	<line class="st1" x1="11.2" y1="11.5" x2="14.9" y2="15.1"/>
</g>
<g id="图层_3">
	<path class="st2" d="M10,15.5H2.9c-1.4,0-2.4-1.5-1.8-2.8C2.2,10.1,4.9,8.5,8,8.5c1.4,0,2.7,0.3,3.8,0.9"/>
	<path class="st3" d="M8,0.5c-2.2,0-4,1.8-4,4s1.8,4,4,4s4-1.8,4-4S10.2,0.5,8,0.5L8,0.5z"/>
</g>
</svg>
