<?xml version="1.0" encoding="utf-8"?>
<!-- Generator: Adobe Illustrator 24.0.0, SVG Export Plug-In . SVG Version: 6.00 Build 0)  -->
<svg version="1.1" id="图层_2" xmlns="http://www.w3.org/2000/svg" xmlns:xlink="http://www.w3.org/1999/xlink" x="0px" y="0px"
	 viewBox="0 0 16 16" style="enable-background:new 0 0 16 16;" xml:space="preserve">
<style type="text/css">
	.st0{opacity:0.75;}
	.st1{fill:none;stroke:#1F2022;stroke-miterlimit:10;}
	.st2{fill:none;stroke:#1F2022;stroke-linecap:round;stroke-miterlimit:10;}
	.st3{fill:#1F2022;}
</style>
<g class="st0">
	<circle class="st1" cx="8" cy="4" r="3.5"/>
	<path class="st2" d="M10.5,9.5h-6c-1.7,0-3,1.3-3,3v1.2c0,1,0.8,1.8,1.8,1.8h6.2"/>
</g>
<g id="图层_2_1_" class="st0">
	<path class="st3" d="M13,11c1.1,0,2,0.9,2,2s-0.9,2-2,2s-2-0.9-2-2S11.9,11,13,11 M13,10c-1.7,0-3,1.3-3,3s1.3,3,3,3s3-1.3,3-3
		S14.7,10,13,10L13,10z"/>
	<line class="st1" x1="11.2" y1="11.5" x2="14.9" y2="15.1"/>
</g>
</svg>
