<?xml version="1.0" encoding="utf-8"?>
<!-- Generator: Adobe Illustrator 24.0.0, SVG Export Plug-In . SVG Version: 6.00 Build 0)  -->
<svg version="1.1" id="图层_1" xmlns="http://www.w3.org/2000/svg" xmlns:xlink="http://www.w3.org/1999/xlink" x="0px" y="0px"
	 viewBox="0 0 16 16" style="enable-background:new 0 0 16 16;" xml:space="preserve">
<style type="text/css">
	.st0{opacity:0.75;fill:#1F2022;}
</style>
<path class="st0" d="M15.5,7.5C15.2,7.5,15,7.7,15,8c0,3.8-3.2,7-7,7c-3.8,0-7-3.2-7-7c0-3.8,3.2-7,7-7c2,0,4.1,1,5.4,2.5h-1.9v1H15
	V1h-1v1.7C12.5,1,10.3,0,8,0C3.6,0,0,3.6,0,8s3.6,8,8,8s8-3.6,8-8C16,7.7,15.8,7.5,15.5,7.5z"/>
</svg>
