<?xml version="1.0" encoding="utf-8"?>
<!-- Generator: Adobe Illustrator 24.0.0, SVG Export Plug-In . SVG Version: 6.00 Build 0)  -->
<svg version="1.1" id="表-1" xmlns="http://www.w3.org/2000/svg" xmlns:xlink="http://www.w3.org/1999/xlink" x="0px" y="0px"
	 viewBox="0 0 16 16" style="enable-background:new 0 0 16 16;" xml:space="preserve">
<style type="text/css">
	.st0{opacity:0.75;fill:#1F2022;}
</style>
<path class="st0" d="M8,0C5.7,0,3.5,1,2,2.7V1H1v3.5h3.5v-1H2.6C3.9,2,6,1,8,1c3.8,0,7,3.2,7,7c0,3.8-3.2,7-7,7c-3.8,0-7-3.2-7-7
	c0-0.3-0.2-0.5-0.5-0.5S0,7.7,0,8c0,4.4,3.6,8,8,8s8-3.6,8-8S12.4,0,8,0z"/>
</svg>
