<?xml version="1.0" encoding="utf-8"?>
<!-- Generator: Adobe Illustrator 24.0.0, SVG Export Plug-In . SVG Version: 6.00 Build 0)  -->
<svg version="1.1" id="图层_2_1_" xmlns="http://www.w3.org/2000/svg" xmlns:xlink="http://www.w3.org/1999/xlink" x="0px"
	 y="0px" viewBox="0 0 16 16" style="enable-background:new 0 0 16 16;" xml:space="preserve">
<style type="text/css">
	.st0{opacity:0.75;}
	.st1{fill:#1F2022;}
	.st2{fill:none;stroke:#1F2022;stroke-linecap:round;stroke-miterlimit:10;}
</style>
<g class="st0">
	<path class="st1" d="M5.5,10c0,0-1.5,2.3-1.5,3.3c0,2.3,3,2.3,3,0C7,12.3,5.5,10,5.5,10z"/>
	<path class="st1" d="M11.5,5c0,0-1.5,2.3-1.5,3.3c0,2.3,3,2.3,3,0C13,7.3,11.5,5,11.5,5z"/>
	<path class="st1" d="M9,11c0,0-1,1.4-1,2c0,1.4,2,1.4,2,0C10,12.4,9,11,9,11z"/>
	<path class="st1" d="M8,7c0,0-1,1.4-1,2c0,1.4,2,1.4,2,0C9,8.4,8,7,8,7z"/>
	<g id="云_2_">
		<path class="st2" d="M3.9,10.9c-1.9,0-3.4-1.7-3.4-3.7S2,3.5,3.9,3.5c0.7,0,1.4,0.2,1.9,0.6"/>
		<path class="st2" d="M13.3,4.9c1.3,0.4,2.2,1.5,2.2,3c0,1.8-1.4,3.3-3,3.3"/>
		<path class="st2" d="M5.8,4.2c0.6-1.6,2-2.7,3.7-2.7c1.9,0,3.5,1.4,3.8,3.4"/>
	</g>
</g>
</svg>
