<?xml version="1.0" encoding="utf-8"?>
<!-- Generator: Adobe Illustrator 24.0.0, SVG Export Plug-In . SVG Version: 6.00 Build 0)  -->
<svg version="1.1" id="图层_2_1_" opacity="0.8" xmlns="http://www.w3.org/2000/svg" xmlns:xlink="http://www.w3.org/1999/xlink"
	 x="0px" y="0px" viewBox="0 0 16 16" style="enable-background:new 0 0 16 16;" xml:space="preserve">
<style type="text/css">
	.st0{fill:none;stroke:#1F2022;stroke-linecap:round;stroke-miterlimit:10;}
	.st1{fill:none;stroke:#1F2022;stroke-linecap:round;stroke-linejoin:round;stroke-miterlimit:10;}
</style>
<g id="云_2_">
	<path class="st0" d="M3.9,10.9c-1.9,0-3.4-1.7-3.4-3.7S2,3.5,3.9,3.5c0.7,0,1.4,0.2,1.9,0.6"/>
	<path class="st0" d="M13.2,4.7c1.3,0.4,2.3,1.7,2.3,3.2c0,1.8-1.4,3.3-3,3.3"/>
	<path class="st0" d="M5.8,4.2c0.6-1.6,2-2.7,3.7-2.7c1.9,0,3.5,1.4,3.8,3.4"/>
</g>
<polygon class="st1" points="9,6.5 8.8,9.5 6.5,9.5 5.5,15 8.3,11.5 10.5,11.5 11.5,6.5 "/>
</svg>
