<?xml version="1.0" encoding="utf-8"?>
<!-- Generator: Adobe Illustrator 24.0.0, SVG Export Plug-In . SVG Version: 6.00 Build 0)  -->
<svg version="1.1" id="图层_3" opacity="0.8" xmlns="http://www.w3.org/2000/svg" xmlns:xlink="http://www.w3.org/1999/xlink"
	 x="0px" y="0px" viewBox="0 0 16 16" style="enable-background:new 0 0 16 16;" xml:space="preserve">
<style type="text/css">
	.st0{fill:none;stroke:#1F2022;stroke-linecap:round;stroke-miterlimit:10;}
	.st1{fill:none;stroke:#1F2022;stroke-linecap:round;stroke-linejoin:round;stroke-miterlimit:10;}
</style>
<g id="云_3_">
	<path class="st0" d="M4.7,15.5c-1.7,0-3.2-1.3-3.2-3s1.4-3,3.2-3C5.4,9.5,6,9.7,6.5,10"/>
	<path class="st0" d="M13.4,10.1c1.2,0.3,2.1,1.4,2.1,2.6c0,1.5-1.3,2.7-2.8,2.7"/>
	<path class="st0" d="M6.4,9.7C7,8.4,8.3,7.5,9.8,7.5c1.8,0,3.2,1.2,3.6,2.8"/>
	<line class="st0" x1="4.7" y1="15.5" x2="12.5" y2="15.5"/>
</g>
<path class="st1" d="M5.6,0.7C5.3,0.6,5,0.5,4.7,0.5c0.4,0.9,0.5,2,0.1,3.1C4.1,5.3,2.3,6.3,0.5,6.1C0.9,7,1.7,7.8,2.7,8.2
	C4.8,9,7.1,8,7.9,5.9S7.6,1.5,5.6,0.7z"/>
</svg>
