<?xml version="1.0" encoding="utf-8"?>
<!-- Generator: Adobe Illustrator 21.0.0, SVG Export Plug-In . SVG Version: 6.00 Build 0)  -->
<svg version="1.1" id="图层_1" opacity="0.8" xmlns="http://www.w3.org/2000/svg" xmlns:xlink="http://www.w3.org/1999/xlink"
	 x="0px" y="0px" viewBox="0 0 16 16" style="enable-background:new 0 0 16 16;" xml:space="preserve">
<style type="text/css">
	.st0{fill:#1F2022;}
</style>
<path class="st0" d="M13.4,4c-0.7,0-1.4,0.3-1.8,0.9c-0.5,0.5,0.3,1.2,0.8,0.6c0.4-0.5,1.2-0.7,1.8-0.4c0.6,0.3,0.9,1,0.8,1.7
	C14.8,7.5,14.2,8,13.5,8h-12C0.7,8,0,8.7,0,9.5C0,10.3,0.7,11,1.5,11h9c0.2,0,0.4,0.2,0.5,0.4c0.1,0.2-0.1,0.5-0.3,0.6
	c-0.2,0.1-0.5,0.1-0.6-0.1c-0.4-0.5-1.2,0.1-0.8,0.6c0.4,0.5,1.2,0.7,1.8,0.4c0.6-0.3,0.9-1,0.8-1.7c-0.2-0.6-0.7-1.1-1.3-1.1
	c-0.1,0-0.1,0-0.2,0h-9v0C1.2,10,1,9.8,1,9.5c0,0,0,0,0,0C1,9.2,1.2,9,1.5,9h12c0,0,0.1,0,0.1,0c1.1,0,2.1-0.8,2.3-1.9
	c0.3-1.1-0.3-2.3-1.3-2.8C14.3,4.1,13.8,4,13.4,4L13.4,4z M8.7,4c-0.5-0.1-1,0.1-1.3,0.5C6.9,5,7.7,5.7,8.1,5.2
	C8.3,5,8.5,4.9,8.7,5.1C8.9,5.2,9.1,5.4,9,5.6C9,5.8,8.7,6,8.5,6h-5c-0.7,0-0.7,1,0,1h5c0.1,0,0.1,0,0.2,0C9.3,6.9,9.8,6.5,10,5.8
	C10.2,5,9.7,4.2,8.9,4C8.8,4,8.8,4,8.7,4L8.7,4z"/>
</svg>
