<?xml version="1.0" encoding="utf-8"?>
<!-- Generator: Adobe Illustrator 24.0.0, SVG Export Plug-In . SVG Version: 6.00 Build 0)  -->
<svg version="1.1" id="图层_2_1_" xmlns="http://www.w3.org/2000/svg" xmlns:xlink="http://www.w3.org/1999/xlink" x="0px"
	 y="0px" viewBox="0 0 16 16" style="enable-background:new 0 0 16 16;" xml:space="preserve">
<style type="text/css">
	.st0{opacity:0.75;}
	.st1{fill:#1F2022;}
</style>
<g class="st0">
	<path class="st1" d="M2.7,5.1C2.8,5.2,3,5.2,3.1,5.2s0.3,0,0.4-0.1c0.2-0.2,0.2-0.5,0-0.7L2.2,3C2,2.9,1.6,2.9,1.4,3
		s-0.2,0.5,0,0.7L2.7,5.1z"/>
	<path class="st1" d="M10.6,5.2c0.1,0,0.3,0,0.4-0.1l1.3-1.3c0.2-0.2,0.2-0.5,0-0.7s-0.5-0.2-0.7,0l-1.3,1.3c-0.2,0.2-0.2,0.5,0,0.7
		C10.3,5.2,10.5,5.2,10.6,5.2z"/>
	<path class="st1" d="M6.5,3C6.8,3,7,2.8,7,2.5V0.9c0-0.3-0.2-0.5-0.5-0.5S6,0.6,6,0.9v1.6C6,2.8,6.2,3,6.5,3z"/>
	<path class="st1" d="M16,11.7c0-1.4-1-2.6-2.3-3c-0.6-1.4-1.8-2.4-3.3-2.6c-0.7-1.3-2-2-3.5-2C4.7,4,3,5.7,3,7.9c0,0.2,0,0.3,0,0.5
		C2.9,8.5,2.7,8.5,2.6,8.6c0,0,0-0.1,0-0.1C2.6,8.2,2.4,8,2.1,8H0.5C0.2,8,0,8.2,0,8.5S0.2,9,0.5,9h1.6C1.4,9.6,1,10.5,1,11.5
		C1,13.4,2.7,15,4.7,15h7.8c0.1,0,0.2,0,0.3-0.1C14.6,14.8,16,13.4,16,11.7z M4,7.9C4,6.3,5.3,5,6.9,5c0.9,0,1.7,0.4,2.2,1.1
		c-1.3,0.2-2.4,1-3.1,2.2C5.6,8.1,5.2,8,4.7,8C4.5,8,4.2,8,4,8.1C4,8,4,8,4,7.9z M12.7,13.9c-0.1,0-0.2,0-0.3,0.1H4.7
		C3.2,14,2,12.9,2,11.5c0-1.1,0.6-1.9,1.6-2.3c0,0,0.1,0,0.1,0c0,0,0,0,0.1,0C4.1,9.1,4.4,9,4.7,9c0.5,0,1.1,0.1,1.5,0.4
		c0.2,0.1,0.5,0.1,0.7-0.2C7,9.1,7,8.9,6.9,8.8C7.5,7.7,8.6,7,9.8,7c1.5,0,2.8,1,3.1,2.4c0.1,0.2,0.3,0.4,0.5,0.4c0,0,0.1,0,0.1,0
		c0.1,0,0.1,0,0.1-0.1c0.8,0.4,1.3,1.1,1.3,2C15,12.9,13.9,13.9,12.7,13.9z"/>
</g>
</svg>
