<?xml version="1.0" encoding="utf-8"?>
<!-- Generator: Adobe Illustrator 21.0.0, SVG Export Plug-In . SVG Version: 6.00 Build 0)  -->
<svg version="1.1" id="图层_2" xmlns="http://www.w3.org/2000/svg" xmlns:xlink="http://www.w3.org/1999/xlink" x="0px" y="0px"
	 viewBox="0 0 16 16" style="enable-background:new 0 0 16 16;" xml:space="preserve">
<style type="text/css">
	.st0{opacity:0.75;}
	.st1{fill:#1F2022;}
	.st2{fill:#E50000;}
</style>
<g class="st0">
	<path class="st1" d="M7,9.6V15l-3.5-1.6c-0.4-0.1-0.5-0.5-0.5-1v-2.1L2,9.8v2.6c0,0.8,0.5,1.6,1.2,1.9L7,16h1V9.6H7z"/>
	<path class="st1" d="M8,9.6l-1.7,2.5C6,12.5,5.5,12.6,5,12.4l-3.3-2.2c-0.5-0.3-0.6-1-0.3-1.4l0,0L3,6.3L8,9.6z M5.5,11.6l1.1-1.7
		L3.3,7.7L2.2,9.4L5.5,11.6z"/>
	<path class="st1" d="M8,3.1l1.6-2.5C10,0.2,10.5,0.1,11,0.4l3.3,2.2c0.5,0.3,0.6,0.9,0.3,1.4L13,6.4L8,3.1z M10.5,1.1L9.4,2.8
		L12.7,5l1.1-1.7L10.5,1.1z"/>
	<path class="st1" d="M3,6.4L1.4,3.9c-0.3-0.4-0.2-1,0.2-1.3L5,0.4c0.5-0.3,1-0.2,1.3,0.3L8,3.1L3,6.4z M2.2,3.4l1.1,1.7l3.3-2.2
		L5.5,1.2L2.2,3.4z"/>
	<polygon class="st1" points="11,13.8 8,15 8,9.6 7,9.6 7,16 8,16 11,14.9 	"/>
	<path class="st1" d="M11,11.3l-0.5,0.3L9.4,9.9l3.3-2.2L13.5,9h1.1c0-0.1,0-0.1-0.1-0.2L13,6.3L8,9.6l1.6,2.5
		c0.3,0.5,0.9,0.6,1.4,0.3V11.3z"/>
</g>
<g>
	<rect x="12" y="9" class="st2" width="1" height="5"/>
	<rect x="12" y="15" class="st2" width="1" height="1"/>
</g>
</svg>
