<?xml version="1.0" encoding="utf-8"?>
<!-- Generator: Adobe Illustrator 21.0.0, SVG Export Plug-In . SVG Version: 6.00 Build 0)  -->
<svg version="1.1" xmlns="http://www.w3.org/2000/svg" xmlns:xlink="http://www.w3.org/1999/xlink" x="0px" y="0px"
	 viewBox="0 0 16 16" style="enable-background:new 0 0 16 16;" xml:space="preserve">
<style type="text/css">
	.st0{display:none;opacity:0.75;}
	.st1{display:inline;}
	.st2{fill:#1F2022;}
	.st3{opacity:0.75;}
	.st4{fill:none;stroke:#1F2022;stroke-linecap:round;stroke-miterlimit:10;}
</style>
<g id="图层_3" class="st0">
	<g class="st1">
		<path class="st2" d="M14,3c0.6,0,1,0.4,1,1v9c0,0.6-0.4,1-1,1H2c-0.6,0-1-0.4-1-1V4c0-0.6,0.4-1,1-1H14 M14,2H2C0.9,2,0,2.9,0,4v9
			c0,1.1,0.9,2,2,2h12c1.1,0,2-0.9,2-2V4C16,2.9,15.1,2,14,2L14,2z"/>
	</g>
	<g class="st1">
		<circle class="st2" cx="13" cy="5" r="1"/>
	</g>
	<g class="st1">
		<path class="st2" d="M8,6c1.7,0,3,1.3,3,3s-1.3,3-3,3s-3-1.3-3-3S6.3,6,8,6 M8,5C5.8,5,4,6.8,4,9s1.8,4,4,4s4-1.8,4-4S10.2,5,8,5
			L8,5z"/>
	</g>
</g>
<g id="图层_2" class="st3">
	<g id="rect4911">
		<path class="st2" d="M5.5,1h5C10.8,1,11,1.2,11,1.5l0,0C11,1.8,10.8,2,10.5,2h-5C5.2,2,5,1.8,5,1.5l0,0C5,1.2,5.2,1,5.5,1z"/>
	</g>
	<path class="st4" d="M9.5,4l3.6,7.7c0.5,1.1-0.1,2.5-1.3,2.7c-0.1,0-0.2,0-0.3,0h-7c-0.1,0-0.2,0-0.3,0c-1.2-0.2-1.8-1.6-1.3-2.7
		L6.5,4"/>
	<line class="st4" x1="6.5" y1="4" x2="6.5" y2="1.5"/>
	<line class="st4" x1="9.5" y1="4" x2="9.5" y2="1.5"/>
	<path class="st2" d="M9.7,8H6.3l-1.8,3.6C4.3,12.3,4.8,13,5.5,13h5c0.7,0,1.2-0.7,0.9-1.4L9.7,8z"/>
</g>
</svg>
