<svg id="图层_45" data-name="图层 45" xmlns="http://www.w3.org/2000/svg" viewBox="0 0 96 96"><defs><style>.cls-1{fill:#557adb;}.cls-2{fill:#e25060;}.cls-3{fill:#ecd17a;}.cls-4{fill:#66b24c;}.cls-5{fill:#7ec03e;}.cls-5,.cls-6,.cls-7,.cls-8{opacity:0.3;}.cls-6{fill:#804ab6;}.cls-7{fill:#2b72ae;}.cls-8{fill:#e8be3c;}.cls-9{opacity:0.1;}.cls-10{fill:#fff;}</style></defs><title>96</title><g id="_96" data-name="96"><path class="cls-1" d="M16.77,79.11a44,44,0,0,0,62.23,0L47.89,48Z"/><path class="cls-2" d="M16.89,16.89a44,44,0,0,0,0,62.22L48,48Z"/><path class="cls-3" d="M16.77,16.89a44,44,0,0,1,62.23,0L47.89,48Z"/><path class="cls-4" d="M79.11,16.89a44,44,0,0,1,0,62.22L48,48Z"/><path class="cls-5" d="M48,4A44,44,0,0,0,92,48,44,44,0,0,0,48,4Z"/><path class="cls-6" d="M4,48A44,44,0,0,0,48,92,44,44,0,0,0,4,48Z"/><path class="cls-7" d="M92,48A44,44,0,0,0,48,92,44,44,0,0,0,92,48Z"/><path class="cls-8" d="M48,4A44,44,0,0,0,4,48,44,44,0,0,0,48,4Z"/><g class="cls-9"><circle class="cls-10" cx="48" cy="48" r="32"/></g><g class="cls-9"><circle class="cls-10" cx="48" cy="48" r="18"/></g></g></svg>