<?xml version="1.0" encoding="utf-8"?>
<!-- Generator: Adobe Illustrator 16.0.0, SVG Export Plug-In . SVG Version: 6.00 Build 0)  -->
<!DOCTYPE svg PUBLIC "-//W3C//DTD SVG 1.1//EN" "http://www.w3.org/Graphics/SVG/1.1/DTD/svg11.dtd">
<svg version="1.1" id="图层_1" xmlns="http://www.w3.org/2000/svg" xmlns:xlink="http://www.w3.org/1999/xlink" x="0px" y="0px"
	 width="512px" height="512px" viewBox="0 0 512 512" enable-background="new 0 0 512 512" xml:space="preserve">
<polygon opacity="0.08" enable-background="new    " points="68.2,512 68.2,8 451.801,8 451.801,369.913 309.714,512 "/>
<polygon opacity="0.1" enable-background="new    " points="72.2,508 72.2,12 447.801,12 447.801,368.256 308.057,508 "/>
<polygon opacity="0.2" enable-background="new    " points="68.2,504 68.2,8 443.801,8 443.801,364.256 304.058,504 "/>
<polygon fill="#3E2723" points="72.199,500 72.199,12 438.793,12 438.793,362.602 301.771,500 "/>
<g>
	<g>
		
			<linearGradient id="SVGID_1_" gradientUnits="userSpaceOnUse" x1="297.1116" y1="334.0994" x2="297.1115" y2="-149.9006" gradientTransform="matrix(1 0 0 -1 -41.6001 348.0991)">
			<stop  offset="0" style="stop-color:#785548"/>
			<stop  offset="1" style="stop-color:#9F9E9F"/>
		</linearGradient>
		<polygon fill="url(#SVGID_1_)" points="74.201,498 74.201,14 436.823,14 436.823,361.686 302.021,498 		"/>
		<polygon fill="#795548" fill-opacity="0.7" points="436.823,361.875 436.823,356.014 293.261,356.014 293.261,498 300.698,498 		
			"/>
		<path opacity="0.39" fill="#FFFFFF" enable-background="new    " d="M300.508,361.875l136.314,0.189L300.698,498L300.508,361.875z
			"/>
	</g>
	<path fill="#FFFFFF" d="M203.772,107.302h-12.289v157.174h-9.265V107.302h-12.226v157.174h-9.265V107.302h-12.226v157.174h-9.264
		V107.302h-12.227v157.174h-3.214v66.582h84.133v-66.582h-4.159V107.302z M195.705,311.711h-59.681v-38.6h59.681V311.711z"/>
	<g>
		<rect x="74.106" y="14" opacity="0.8" fill="#FFFFFF" enable-background="new    " width="362.78" height="92.767"/>
		<g enable-background="new    ">
			<path fill="#5D4037" d="M175.822,36.766c-7.972,0-13.738,2.096-17.299,6.302c-3.561,4.222-5.325,9.973-5.325,17.268
				c0,3.545,0.44,6.775,1.323,9.658c0.882,2.883,2.206,5.373,3.938,7.452c1.765,2.095,3.971,3.702,6.586,4.853
				c2.646,1.15,5.735,1.717,9.232,1.717c1.922,0,3.529-0.032,4.884-0.095c1.355-0.079,2.553-0.205,3.593-0.425V58.351h17.11v35.795
				c-2.049,0.756-5.325,1.576-9.863,2.442c-4.568,0.866-10.146,1.308-16.826,1.308c-5.703,0-10.871-0.835-15.535-2.505
				c-4.632-1.67-8.602-4.097-11.91-7.295c-3.277-3.198-5.83-7.137-7.626-11.801c-1.796-4.647-2.71-9.973-2.71-15.96
				c0-6.05,1.009-11.407,2.993-16.055c1.954-4.663,4.664-8.618,8.099-11.848c3.466-3.23,7.499-5.688,12.163-7.358
				c4.632-1.67,9.579-2.505,14.873-2.505c3.592,0,6.806,0.236,9.705,0.677c2.898,0.457,5.388,0.977,7.468,1.576
				c2.08,0.583,3.813,1.197,5.168,1.828c1.354,0.614,2.332,1.103,2.898,1.45l-4.947,13.045c-2.331-1.182-5.01-2.206-8.066-3.072
				C182.723,37.192,179.415,36.766,175.822,36.766z"/>
			<path fill="#5D4037" d="M269.502,35.506c-2.363,2.3-5.136,5.278-8.351,8.933c-3.214,3.64-6.553,7.625-10.019,11.942
				c-3.403,4.301-6.807,8.76-10.21,13.345c-3.34,4.601-6.365,8.98-9.012,13.156h38.82v13.66h-59.869v-9.705
				c2.048-3.545,4.537-7.484,7.499-11.833c2.994-4.348,6.082-8.728,9.296-13.155c3.245-4.412,6.522-8.681,9.831-12.825
				c3.34-4.144,6.428-7.846,9.296-11.107h-34.157V24.241h56.875V35.506z"/>
			<path fill="#5D4037" d="M282.768,24.241h17.142v72.301h-17.142V24.241z"/>
			<path fill="#5D4037" d="M340.306,23.406c11.375,0,20.072,1.906,26.154,5.688c6.081,3.797,9.138,10.005,9.138,18.623
				c0,8.697-3.088,14.967-9.265,18.827c-6.112,3.86-14.936,5.798-26.342,5.798h-5.357v24.2h-17.142V25.281
				c3.719-0.693,7.688-1.182,11.848-1.45C333.5,23.548,337.156,23.406,340.306,23.406z M341.441,37.286
				c-1.261,0-2.489,0.032-3.687,0.11c-1.229,0.063-2.237,0.126-3.12,0.205v20.86h5.357c5.924,0,10.398-0.756,13.423-2.3
				c2.962-1.528,4.475-4.38,4.475-8.555c0-2.017-0.378-3.671-1.135-4.995c-0.756-1.323-1.891-2.395-3.309-3.183
				c-1.418-0.803-3.183-1.355-5.199-1.67C346.167,37.444,343.899,37.286,341.441,37.286z"/>
		</g>
	</g>
</g>
</svg>
