<?xml version="1.0" encoding="utf-8"?>
<!-- Generator: Adobe Illustrator 16.0.0, SVG Export Plug-In . SVG Version: 6.00 Build 0)  -->
<!DOCTYPE svg PUBLIC "-//W3C//DTD SVG 1.1//EN" "http://www.w3.org/Graphics/SVG/1.1/DTD/svg11.dtd">
<svg version="1.1" id="图层_1" xmlns="http://www.w3.org/2000/svg" xmlns:xlink="http://www.w3.org/1999/xlink" x="0px" y="0px"
	 width="512px" height="512px" viewBox="0 0 512 512" enable-background="new 0 0 512 512" xml:space="preserve">
<rect x="68.199" y="8" opacity="0.2" width="374.594" height="496"/>
<rect x="68.199" y="8" opacity="0.08" width="382.594" height="504"/>
<rect x="72.199" y="12" opacity="0.1" width="374.594" height="496"/>
<rect x="72.199" y="12" fill="#E65100" width="366.594" height="488"/>
<g>
	
		<linearGradient id="SVGID_1_" gradientUnits="userSpaceOnUse" x1="297.0959" y1="-149.9001" x2="297.0959" y2="334.0999" gradientTransform="matrix(1 0 0 -1 -41.6001 348.0991)">
		<stop  offset="0" style="stop-color:#EE6F0B"/>
		<stop  offset="1" style="stop-color:#FFB74D"/>
	</linearGradient>
	<rect x="74.199" y="14" fill="url(#SVGID_1_)" width="362.594" height="484"/>
	<g opacity="0.8">
		<rect x="121.397" y="144.07" fill="#FFFFFF" width="38.713" height="194.014"/>
		<rect x="185.927" y="240.875" fill="#FFFFFF" width="38.735" height="97.007"/>
		<rect x="250.275" y="280.398" fill="#FFFFFF" width="38.713" height="58.092"/>
		<g>
			<path fill="#FFFFFF" d="M302.897,109.791l0.406,77.246l77.223-0.405c0.203,42.742-34.279,77.426-77.043,77.628
				c-42.742,0.203-77.425-34.279-77.628-77.02C225.652,144.677,260.133,109.994,302.897,109.791z"/>
			<path fill="#FFFFFF" d="M311.967,100.923c42.766-0.203,77.449,34.279,77.652,77.021l-77.246,0.405L311.967,100.923z"/>
		</g>
	</g>
</g>
</svg>
