<?xml version="1.0" encoding="utf-8"?>
<!-- Generator: Adobe Illustrator 16.0.0, SVG Export Plug-In . SVG Version: 6.00 Build 0)  -->
<!DOCTYPE svg PUBLIC "-//W3C//DTD SVG 1.1//EN" "http://www.w3.org/Graphics/SVG/1.1/DTD/svg11.dtd">
<svg version="1.1" id="图层_1" xmlns="http://www.w3.org/2000/svg" xmlns:xlink="http://www.w3.org/1999/xlink" x="0px" y="0px"
	 width="512px" height="512px" viewBox="0 0 512 512" enable-background="new 0 0 512 512" xml:space="preserve">
<polygon opacity="0.08" enable-background="new    " points="68.2,512 68.2,8 451.801,8 451.801,369.913 309.714,512 "/>
<polygon opacity="0.1" enable-background="new    " points="72.2,508 72.2,12 447.801,12 447.801,368.256 308.057,508 "/>
<polygon opacity="0.2" enable-background="new    " points="68.2,504 68.2,8 443.801,8 443.801,364.256 304.058,504 "/>
<polygon fill="#3E2723" points="72.199,500 72.199,12 438.793,12 438.793,362.602 301.771,500 "/>
<g>
	<g>
		
			<linearGradient id="SVGID_1_" gradientUnits="userSpaceOnUse" x1="297.1116" y1="334.0994" x2="297.1115" y2="-149.9006" gradientTransform="matrix(1 0 0 -1 -41.6001 348.0991)">
			<stop  offset="0" style="stop-color:#785548"/>
			<stop  offset="1" style="stop-color:#9F9E9F"/>
		</linearGradient>
		<polygon fill="url(#SVGID_1_)" points="74.201,498 74.201,14 436.823,14 436.823,361.686 302.021,498 		"/>
		<polygon fill="#795548" fill-opacity="0.7" points="436.823,361.875 436.823,356.014 293.261,356.014 293.261,498 300.698,498 		
			"/>
		<path opacity="0.39" fill="#FFFFFF" enable-background="new    " d="M300.508,361.875l136.314,0.189L300.698,498L300.508,361.875z
			"/>
	</g>
	<path fill="#FFFFFF" d="M203.772,107.302h-12.289v157.174h-9.265V107.302h-12.226v157.174h-9.265V107.302h-12.226v157.174h-9.264
		V107.302h-12.227v157.174h-3.214v66.582h84.133v-66.582h-4.159V107.302z M195.705,311.711h-59.681v-38.6h59.681V311.711z"/>
	<g>
		<rect x="74.106" y="14" opacity="0.8" fill="#FFFFFF" enable-background="new    " width="362.78" height="92.767"/>
		<g enable-background="new    ">
			<path fill="#5D4037" d="M164.069,97.487c-4.159,0-8.319-0.126-12.447-0.378c-4.159-0.236-8.444-0.804-12.919-1.717V25.281
				c3.529-0.615,7.373-1.087,11.533-1.402c4.159-0.315,8.066-0.473,11.627-0.473c4.853,0,9.296,0.331,13.36,0.993
				c4.065,0.662,7.563,1.796,10.493,3.387c2.898,1.607,5.199,3.703,6.838,6.318c1.67,2.615,2.489,5.83,2.489,9.642
				c0,5.782-2.931,10.335-8.792,13.676c4.821,1.733,8.13,4.096,9.895,7.09c1.733,2.994,2.615,6.365,2.615,10.115
				c0,7.594-2.898,13.297-8.729,17.11C184.235,95.565,175.57,97.487,164.069,97.487z M155.403,52.616h8.351
				c5.263,0,9.044-0.63,11.313-1.922s3.403-3.356,3.403-6.208c0-2.931-1.198-4.979-3.529-6.16
				c-2.332-1.182-5.767-1.765-10.336-1.765c-1.449,0-3.024,0.016-4.694,0.047c-1.702,0.031-3.183,0.126-4.507,0.252V52.616z
				 M155.403,65.031v18.686c1.229,0.126,2.584,0.236,4.065,0.299c1.449,0.079,3.057,0.11,4.821,0.11
				c5.136,0,9.264-0.693,12.415-2.08c3.15-1.402,4.727-3.971,4.727-7.72c0-3.34-1.324-5.719-3.971-7.153
				c-2.615-1.418-6.396-2.143-11.313-2.143H155.403z"/>
			<path fill="#5D4037" d="M266.194,35.506c-2.332,2.3-5.104,5.278-8.318,8.933c-3.246,3.64-6.554,7.625-10.02,11.942
				c-3.435,4.301-6.838,8.76-10.21,13.345c-3.371,4.601-6.364,8.98-9.012,13.156h38.789v13.66h-59.837v-9.705
				c2.017-3.545,4.537-7.484,7.499-11.833c2.963-4.348,6.051-8.728,9.265-13.155c3.245-4.412,6.522-8.681,9.831-12.825
				c3.34-4.144,6.428-7.846,9.296-11.107h-34.157V24.241h56.875V35.506z"/>
			<path fill="#5D4037" d="M279.491,24.241h17.142v72.301h-17.142V24.241z"/>
			<path fill="#5D4037" d="M337.029,23.406c11.344,0,20.041,1.906,26.154,5.688c6.05,3.797,9.106,10.005,9.106,18.623
				c0,8.697-3.057,14.967-9.232,18.827c-6.145,3.86-14.937,5.798-26.343,5.798h-5.389v24.2h-17.11V25.281
				c3.719-0.693,7.657-1.182,11.849-1.45C330.223,23.548,333.878,23.406,337.029,23.406z M338.132,37.286
				c-1.229,0-2.489,0.032-3.687,0.11c-1.198,0.063-2.237,0.126-3.12,0.205v20.86h5.389c5.924,0,10.398-0.756,13.392-2.3
				c2.993-1.528,4.506-4.38,4.506-8.555c0-2.017-0.378-3.671-1.166-4.995c-0.756-1.323-1.858-2.395-3.309-3.183
				c-1.386-0.803-3.15-1.355-5.199-1.67C342.89,37.444,340.621,37.286,338.132,37.286z"/>
		</g>
	</g>
</g>
</svg>
