<?xml version="1.0" encoding="utf-8"?>
<!-- Generator: Adobe Illustrator 21.0.0, SVG Export Plug-In . SVG Version: 6.00 Build 0)  -->
<svg version="1.1" id="图层_1" xmlns="http://www.w3.org/2000/svg" xmlns:xlink="http://www.w3.org/1999/xlink" x="0px" y="0px"
	 viewBox="0 0 512 512" style="enable-background:new 0 0 512 512;" xml:space="preserve">
<style type="text/css">
	.st0{opacity:0.08;enable-background:new    ;}
	.st1{opacity:0.1;enable-background:new    ;}
	.st2{opacity:0.2;enable-background:new    ;}
	.st3{fill:#3E2723;}
	.st4{fill:url(#SVGID_1_);}
	.st5{fill:#795548;fill-opacity:0.7;}
	.st6{opacity:0.39;fill:#FFFFFF;enable-background:new    ;}
	.st7{fill:#FFFFFF;}
	.st8{opacity:0.8;fill:#FFFFFF;enable-background:new    ;}
	.st9{enable-background:new    ;}
	.st10{fill:#5D4037;}
</style>
<polygon class="st0" points="68.2,512 68.2,8 451.8,8 451.8,369.9 309.7,512 "/>
<polygon class="st1" points="72.2,508 72.2,12 447.8,12 447.8,368.3 308.1,508 "/>
<polygon class="st2" points="68.2,504 68.2,8 443.8,8 443.8,364.3 304.1,504 "/>
<polygon class="st3" points="72.2,500 72.2,12 438.8,12 438.8,362.6 301.8,500 "/>
<g>
	<g>
		
			<linearGradient id="SVGID_1_" gradientUnits="userSpaceOnUse" x1="297.1001" y1="80.0991" x2="297.1001" y2="-403.9009" gradientTransform="matrix(1 0 0 -1 -41.6001 94.0991)">
			<stop  offset="0" style="stop-color:#785548"/>
			<stop  offset="1" style="stop-color:#9F9E9F"/>
		</linearGradient>
		<polygon class="st4" points="74.2,498 74.2,14 436.8,14 436.8,361.7 302,498 		"/>
		<polygon class="st5" points="436.8,361.9 436.8,356 293.3,356 293.3,498 300.7,498 		"/>
		<path class="st6" d="M300.5,361.9l136.3,0.2L300.7,498L300.5,361.9z"/>
	</g>
	<path class="st7" d="M203.8,107.3h-12.3v157.2h-9.3V107.3H170v157.2h-9.3V107.3h-12.2v157.2h-9.3V107.3H127v157.2h-3.2v66.6h84.1
		v-66.6h-4.2L203.8,107.3L203.8,107.3z M195.7,311.7H136v-38.6h59.7V311.7z"/>
	<g>
		<rect x="74.1" y="14" class="st8" width="362.8" height="92.8"/>
		<g class="st9">
			<path class="st10" d="M167.3,98c-12.4,0-21.8-3.3-28.3-9.8s-9.7-15.8-9.7-27.9c0-6,1-11.3,3-16s4.7-8.7,8.1-11.9
				c3.5-3.2,7.6-5.7,12.3-7.4s9.9-2.5,15.5-2.5c3.2,0,6.1,0.2,8.8,0.7c2.6,0.5,4.9,1,6.9,1.6s3.6,1.2,4.9,1.8
				c1.3,0.6,2.3,1.1,2.9,1.5l-4.9,13.2c-2.3-1.2-5.1-2.2-8.2-3C175.5,37.5,172,37,168,37c-2.6,0-5.2,0.4-7.7,1.3
				c-2.6,0.8-4.8,2.2-6.7,4c-2,1.8-3.5,4.2-4.7,7.2s-1.8,6.5-1.8,10.6c0,3.3,0.4,6.5,1.2,9.3c0.8,2.9,2,5.4,3.7,7.5s4,3.7,6.7,4.9
				c2.8,1.2,6.2,1.8,10.1,1.8c2.5,0,4.7-0.1,6.7-0.4s3.7-0.6,5.3-1c1.5-0.4,2.9-0.8,4.1-1.3s2.2-0.9,3.2-1.4l4.7,13
				c-2.4,1.4-5.8,2.6-10.2,3.8C178.2,97.4,173.1,98,167.3,98z"/>
			<path class="st10" d="M226.6,23.4c11.4,0,20.1,1.9,26.1,5.7c6.1,3.8,9.1,10,9.1,18.6c0,8.7-3.1,15-9.2,18.8
				c-6.1,3.9-14.9,5.8-26.4,5.8h-5.4v24.2h-17.1V25.3c3.7-0.7,7.7-1.2,11.8-1.5C219.8,23.5,223.5,23.4,226.6,23.4z M227.7,37.3
				c-1.3,0-2.5,0-3.7,0.1s-2.3,0.1-3.1,0.2v20.9h5.4c6,0,10.4-0.8,13.4-2.3s4.5-4.4,4.5-8.6c0-2-0.4-3.7-1.2-5s-1.9-2.4-3.3-3.2
				c-1.4-0.8-3.2-1.4-5.2-1.7S230.2,37.3,227.7,37.3z"/>
			<path class="st10" d="M274.5,24.2h17.1v72.3h-17.1V24.2L274.5,24.2z"/>
			<path class="st10" d="M381.7,60.3c0,6.2-1,11.6-2.9,16.3c-2,4.7-4.6,8.6-8,11.8c-3.4,3.2-7.4,5.5-12,7.1s-9.6,2.4-15,2.4
				c-5.2,0-10.1-0.8-14.7-2.4s-8.6-4-12.1-7.1c-3.4-3.2-6.1-7.1-8.1-11.8c-2-4.7-3-10.1-3-16.3s1-11.6,3.1-16.3s4.8-8.6,8.3-11.8
				s7.5-5.6,12.1-7.2c4.5-1.6,9.4-2.4,14.4-2.4c5.2,0,10.1,0.8,14.7,2.4s8.6,4,12.1,7.2c3.4,3.2,6.1,7.2,8.1,11.8
				C380.7,48.7,381.7,54.1,381.7,60.3z M323.6,60.3c0,3.5,0.5,6.8,1.4,9.6c0.9,2.9,2.2,5.3,4,7.4c1.7,2.1,3.8,3.6,6.3,4.8
				c2.5,1.1,5.4,1.7,8.6,1.7c3.1,0,6-0.6,8.5-1.7s4.6-2.7,6.4-4.8c1.7-2,3-4.5,3.9-7.4c0.9-2.8,1.4-6,1.4-9.6s-0.5-6.8-1.4-9.6
				s-2.2-5.4-3.9-7.4c-1.7-2-3.8-3.6-6.4-4.8c-2.5-1.1-5.4-1.7-8.5-1.7c-3.2,0-6.1,0.6-8.6,1.7c-2.5,1.2-4.6,2.7-6.3,4.8
				c-1.8,2.1-3.1,4.5-4,7.4C324,53.7,323.6,56.9,323.6,60.3z"/>
		</g>
	</g>
</g>
</svg>
