<?xml version="1.0" encoding="utf-8"?>
<!-- Generator: Adobe Illustrator 16.0.0, SVG Export Plug-In . SVG Version: 6.00 Build 0)  -->
<!DOCTYPE svg PUBLIC "-//W3C//DTD SVG 1.1//EN" "http://www.w3.org/Graphics/SVG/1.1/DTD/svg11.dtd">
<svg version="1.1" id="图层_1" xmlns="http://www.w3.org/2000/svg" xmlns:xlink="http://www.w3.org/1999/xlink" x="0px" y="0px"
	 width="512px" height="512px" viewBox="0 0 512 512" enable-background="new 0 0 512 512" xml:space="preserve">
<g id="surface1">
	<polygon opacity="0.2" enable-background="new    " points="69,504 69,8 443,8 443,364.407 303.406,504 	"/>
	<polygon opacity="0.08" enable-background="new    " points="69,512 69,8 451,8 451,370.064 309.065,512 	"/>
	<polygon opacity="0.1" enable-background="new    " points="73,508 73,12 447,12 447,368.407 307.406,508 	"/>
	<g>
		
			<linearGradient id="SVGID_1_" gradientUnits="userSpaceOnUse" x1="464.0012" y1="-1705.9512" x2="464.0012" y2="-1217.9512" gradientTransform="matrix(1 0 0 -1 -208.0005 -1205.9512)">
			<stop  offset="0" style="stop-color:#512DA8"/>
			<stop  offset="0.008" style="stop-color:#D32F2F"/>
			<stop  offset="0.3041" style="stop-color:#E33932"/>
			<stop  offset="0.6579" style="stop-color:#F04035"/>
			<stop  offset="1" style="stop-color:#F44336"/>
		</linearGradient>
		<path fill="url(#SVGID_1_)" d="M301.75,500L439,362.75V12H73v488H301.75z"/>
		<polygon fill="#B71C1C" fill-opacity="0.3922" points="294.125,355.125 294.125,500 301.75,500 439,362.75 439,355.125 		"/>
		<path fill="#FFFFFF" fill-opacity="0.3922" d="M301.75,362.75h137.135L301.75,500V362.75z"/>
		<g opacity="0.8">
			<path fill="#FFFFFF" d="M188.386,215.718c7.863,0.353,16.503,5.365,22.937,9.654c18.824,12.506,33.897,33.293,30.915,57.118
				c2.802-4.52,2.982-11.142,2.982-16.384c0-16.733-8.997-33.947-20.377-45.623c-3.751-3.936-7.74-8.397-12.687-10.78l56.054-66.365
				l13.467-15.903c1.011-1.253,4.462-4.051,3.689-5.896c-0.657-1.668-3.87-2.744-5.423-3.459c-1.726-0.772-4.823-2.44-6.787-1.726
				c-1.906,0.715-3.574,3.517-4.881,5.062l-10.312,12.037l-48.486,56.888l-14.358,16.799
				C192.856,209.819,189.877,212.505,188.386,215.718z"/>
			<path fill="#FFFFFF" d="M156.637,235.134c19.243-20.492,36.276-43.363,54.747-64.631l23.29-27.579
				c5.361-6.134,11.737-12.391,16.026-19.362c-2.802-0.83-9.178-1.368-11.856,0c-2.859,1.43-5.242,5.365-7.329,7.748l-13.282,15.069
				c-1.906,2.325-4.228,5.899-6.91,7.329c-3.932,1.964-11.022,1.191-15.312,1.307l-15.665,1.253
				c-11.676,0.834-25.02,0.834-30.8,13.405c-4.643,10.008-3.928,24.362-4.404,35.266c-0.953,22.875-1.729,46.104,0.415,68.925
				c0.892,9.826-0.177,22.267,4.827,31.025c4.881,8.578,14.297,10.436,23.171,11.257c17.214,1.61,37.829,1.134,51.707-10.961
				c16.499-14.347,14.178-39.966-0.834-54.078C208.048,235.61,177.963,227.813,156.637,235.134z"/>
			<path fill="#FFFFFF" d="M214.658,318.232c3.159,1.381,8.459,0.904,11.914,0.904l21.622,0.41c27.402,0,54.451-1.726,81.788-2.975
				c12.99-0.591,27.641-1.067,33.006-15.545c3.459-9.187,2.802-20.92,3.459-30.566c1.545-22.394,2.137-45.335,0.058-67.667
				c-1.011-10.427,0.238-23.475-4.289-33.121c-6.976-15.012-28.117-13.882-41.995-14.239c-3.459-0.119-9.835-2.145-12.99-0.596
				c-2.383,1.13-3.813,7.325-4.946,9.65l-12.268,27.106c-14.535,32.102-28.117,64.985-43.844,96.5
				C240.035,300.304,229.017,315.734,214.658,318.232z"/>
		</g>
		<g>
			<path fill="#B71C1C" d="M437,14v347.922L300.922,498H195H75V14H437 M439,12H73v488h122h106.75L439,362.75V12L439,12z"/>
		</g>
	</g>
</g>
</svg>
