<?xml version="1.0" encoding="utf-8"?>
<!-- Generator: Adobe Illustrator 21.0.0, SVG Export Plug-In . SVG Version: 6.00 Build 0)  -->
<svg version="1.1" id="图层_1" xmlns="http://www.w3.org/2000/svg" xmlns:xlink="http://www.w3.org/1999/xlink" x="0px" y="0px"
	 viewBox="0 0 512 512" style="enable-background:new 0 0 512 512;" xml:space="preserve">
<style type="text/css">
	.st0{opacity:0.08;enable-background:new    ;}
	.st1{opacity:0.1;enable-background:new    ;}
	.st2{opacity:0.2;enable-background:new    ;}
	.st3{fill:#2D2183;}
	.st4{fill:url(#SVGID_1_);}
	.st5{fill:#5A4096;fill-opacity:0.3922;}
	.st6{fill:#FFFFFF;fill-opacity:0.3922;}
	.st7{opacity:0.8;fill:#FFFFFF;enable-background:new    ;}
</style>
<polygon class="st0" points="69.7,512 69.7,12 450.3,12 450.3,371 309.3,512 "/>
<polygon class="st0" points="73.7,508 73.7,16 446.3,16 446.3,369.4 307.7,508 "/>
<polygon class="st1" points="73.7,508 73.7,16 446.3,16 446.3,369.4 307.7,508 "/>
<polygon class="st2" points="69.7,504 69.7,12 442.3,12 442.3,365.4 303.7,504 "/>
<polygon class="st3" points="73.7,500 73.7,16 438.3,16 438.3,363.7 302,500 "/>
<g>
	<g>
		
			<linearGradient id="SVGID_1_" gradientUnits="userSpaceOnUse" x1="297.6001" y1="-400.9004" x2="297.6001" y2="75.0996" gradientTransform="matrix(1 0 0 -1 -41.6001 95.0996)">
			<stop  offset="0" style="stop-color:#4A3591"/>
			<stop  offset="8.000000e-03" style="stop-color:#4C3591"/>
			<stop  offset="0.1976" style="stop-color:#6A4498"/>
			<stop  offset="0.4086" style="stop-color:#82529E"/>
			<stop  offset="0.6159" style="stop-color:#965EA3"/>
			<stop  offset="0.8158" style="stop-color:#A165A7"/>
			<stop  offset="1" style="stop-color:#A567A8"/>
		</linearGradient>
		<polygon class="st4" points="77.7,496 77.7,20 434.3,20 434.3,362.1 300.4,496 		"/>
	</g>
	<polygon class="st5" points="434.3,362.1 434.3,356.4 293.1,356.4 293.1,496 300.4,496 	"/>
	<path class="st6" d="M300.2,362.1l134.1,0.2L300.4,496L300.2,362.1z"/>
</g>
<path class="st7" d="M185.6,133.8L185.6,133.8v59.9h-0.2v18.4h0.2v87.7c-3.2-0.8-6.3-1.2-9.9-1.2c-16.1,0-29.2,9.5-29.2,21.2
	s13.1,21.2,29.2,21.2s29.2-9.5,29.2-21.2l0,0V208.4l109.9-22.6v83.7c-3.2-0.8-6.3-1.2-9.9-1.2c-16.1,0-29.2,9.5-29.2,21.2
	s13.1,21.2,29.2,21.2s29.2-9.5,29.2-21.2l0,0V129.3v-26L185.6,133.8z M314.5,167.2l-109.9,22.6v-33.9l109.9-22.6V167.2z"/>
</svg>
