<?xml version="1.0" encoding="utf-8"?>
<!-- Generator: Adobe Illustrator 21.0.0, SVG Export Plug-In . SVG Version: 6.00 Build 0)  -->
<svg version="1.1" id="图层_1" xmlns="http://www.w3.org/2000/svg" xmlns:xlink="http://www.w3.org/1999/xlink" x="0px" y="0px"
	 viewBox="0 0 512 512" style="enable-background:new 0 0 512 512;" xml:space="preserve">
<style type="text/css">
	.st0{opacity:0.2;enable-background:new    ;}
	.st1{opacity:0.08;enable-background:new    ;}
	.st2{opacity:0.1;enable-background:new    ;}
	.st3{fill:url(#SVGID_1_);}
	.st4{fill:#B71C1C;fill-opacity:0.3922;}
	.st5{fill:#FFFFFF;fill-opacity:0.3922;}
	.st6{opacity:0.8;}
	.st7{fill:#FFFFFF;}
	.st8{fill:#B71C1C;}
</style>
<g id="surface1">
	<polygon class="st0" points="69,504 69,8 443,8 443,364.4 303.4,504 	"/>
	<polygon class="st1" points="69,512 69,8 451,8 451,370.1 309.1,512 	"/>
	<polygon class="st2" points="73,508 73,12 447,12 447,368.4 307.4,508 	"/>
	<g>
		
			<linearGradient id="SVGID_1_" gradientUnits="userSpaceOnUse" x1="422.4004" y1="2331.9609" x2="422.4004" y2="1843.9609" gradientTransform="matrix(1 0 0 1 -166.4004 -1831.9609)">
			<stop  offset="0" style="stop-color:#512DA8"/>
			<stop  offset="8.000000e-03" style="stop-color:#D32F2F"/>
			<stop  offset="0.3041" style="stop-color:#E33932"/>
			<stop  offset="0.6579" style="stop-color:#F04035"/>
			<stop  offset="1" style="stop-color:#F44336"/>
		</linearGradient>
		<path class="st3" d="M301.8,500L439,362.8V12H73v488H301.8z"/>
		<polygon class="st4" points="294.1,355.1 294.1,500 301.8,500 439,362.8 439,355.1 		"/>
		<path class="st5" d="M301.8,362.8h137.1L301.8,500V362.8z"/>
		<g class="st6">
			<path class="st7" d="M242.8,116.3c0,0,7,64.8-42.6,150.3s-64.2,74-69.4,71.1c-5.2-3-12-12.6,10.1-31.9
				c22-19.2,30.6-18.9,30.6-18.9s-20.1,12.2-27.9,24.1c-7.9,11.9-14.2,19.2-12.3,22.6c1.8,3.3,24.4-13.6,33.7-28.1
				c14.8-22.9,42.8-65.6,55.9-106.3C233.8,158.5,242.8,116.3,242.8,116.3z"/>
			<path class="st7" d="M365.1,266.2c0,0-1.1,3-14.2,1.9c-13-1.1-63.8-17-91-49.6s-29.5-77.4-31.3-100.7c-1.9-23.3,8.5-16.8,10-13.9
				c2.3,2,3.5,8.3,3.5,8.3s-0.8-9.5-4.9-13.6c-4.1-4.1-7.7-4.1-11.9,2.9c-4.1,7-6,26.6-2.6,45.5s17.2,62.2,34.4,82.1
				c17.2,20,51.5,37.4,76.9,42.6C359.2,277,365.1,266.3,365.1,266.2L365.1,266.2L365.1,266.2z"/>
			<path class="st7" d="M199.8,274.7c0,0,49.3-15.9,95.9-20.3c46.6-4.5,62.7,0.4,66.8,3.7c4.1,3.3,4.1,7,4.1,7s5.2-5.2,1.8-10.4
				c-2.9-5.5-7.4-9.9-44.3-8.8c-36.9,1.1-39.6,2.6-73.5,8.9C216.6,261.1,199.8,274.7,199.8,274.7z"/>
		</g>
		<g>
			<path class="st8" d="M437,14v347.9L300.9,498H195H75V14H437 M439,12H73v488h122h106.8L439,362.8V12L439,12z"/>
		</g>
	</g>
</g>
</svg>
