<?xml version="1.0" encoding="utf-8"?>
<!-- Generator: Adobe Illustrator 16.0.0, SVG Export Plug-In . SVG Version: 6.00 Build 0)  -->
<!DOCTYPE svg PUBLIC "-//W3C//DTD SVG 1.1//EN" "http://www.w3.org/Graphics/SVG/1.1/DTD/svg11.dtd">
<svg version="1.1" id="图层_1" xmlns="http://www.w3.org/2000/svg" xmlns:xlink="http://www.w3.org/1999/xlink" x="0px" y="0px"
	 width="512px" height="512px" viewBox="0 0 512 512" enable-background="new 0 0 512 512" xml:space="preserve">
<polygon opacity="0.08" enable-background="new    " points="68.2,512 68.2,8 451.801,8 451.801,369.913 309.714,512 "/>
<polygon opacity="0.1" enable-background="new    " points="72.2,508 72.2,12 447.801,12 447.801,368.256 308.057,508 "/>
<polygon opacity="0.2" enable-background="new    " points="68.2,504 68.2,8 443.801,8 443.801,364.256 304.058,504 "/>
<polygon fill="#3E2723" points="72.199,500 72.199,12 438.793,12 438.793,362.602 301.771,500 "/>
<g>
	<g>
		
			<linearGradient id="SVGID_1_" gradientUnits="userSpaceOnUse" x1="297.0852" y1="334.0994" x2="297.0852" y2="-149.9006" gradientTransform="matrix(1 0 0 -1 -41.6001 348.0991)">
			<stop  offset="0" style="stop-color:#785548"/>
			<stop  offset="1" style="stop-color:#9F9E9F"/>
		</linearGradient>
		<polygon fill="url(#SVGID_1_)" points="74.165,498 74.165,14 436.806,14 436.806,361.695 301.986,498 		"/>
		<polygon fill="#795548" fill-opacity="0.7" points="436.806,361.875 436.806,356.023 293.23,356.023 293.23,498 300.681,498 		"/>
		<path opacity="0.39" fill="#FFFFFF" enable-background="new    " d="M300.478,361.875l136.35,0.18L300.681,498L300.478,361.875z"
			/>
	</g>
	<path fill="#FFFFFF" d="M203.741,107.304h-12.244v157.181h-9.318V107.304H169.98v157.181h-9.273V107.304h-12.199v157.181h-9.296
		V107.304H126.99v157.181h-3.196v66.577h84.133v-66.577h-4.186V107.304z M195.683,311.706h-59.69v-38.601h59.69V311.706z"/>
	<g>
		<g>
			<rect x="74.165" y="14" opacity="0.8" fill="#FFFFFF" enable-background="new    " width="362.662" height="92.73"/>
			<g enable-background="new    ">
				<path fill="#5D4037" d="M231.784,35.483c-2.363,2.307-5.131,5.278-8.35,8.946c-3.264,3.635-6.551,7.597-10.016,11.929
					c-3.467,4.299-6.842,8.755-10.219,13.347c-3.377,4.591-6.348,8.969-9.004,13.144h38.781v13.662H173.13v-9.723
					c2.07-3.545,4.547-7.45,7.541-11.816c2.992-4.344,6.076-8.722,9.271-13.156c3.219-4.4,6.482-8.676,9.836-12.829
					c3.354-4.13,6.416-7.833,9.273-11.085h-34.166V24.229h56.898V35.483z"/>
				<path fill="#5D4037" d="M245.087,24.229h17.082v72.283h-17.082V24.229z"/>
				<path fill="#5D4037" d="M302.548,23.408c11.389,0,20.076,1.891,26.086,5.683c6.145,3.781,9.184,9.994,9.184,18.614
					c0,8.688-3.084,14.956-9.273,18.805c-6.1,3.86-14.922,5.807-26.355,5.807h-5.334v24.196h-17.152V25.276
					c3.736-0.709,7.699-1.193,11.84-1.452C295.728,23.531,299.374,23.408,302.548,23.408z M303.652,37.261
					c-1.238,0-2.432,0.045-3.646,0.124c-1.238,0.068-2.273,0.124-3.15,0.203v20.853h5.334c5.965,0,10.42-0.765,13.436-2.318
					c2.994-1.508,4.502-4.355,4.502-8.53c0-2.014-0.404-3.668-1.148-4.985c-0.764-1.351-1.867-2.419-3.309-3.196
					c-1.418-0.799-3.15-1.351-5.244-1.654C308.378,37.441,306.15,37.261,303.652,37.261z"/>
			</g>
		</g>
	</g>
</g>
</svg>
