<?xml version="1.0" encoding="utf-8"?>
<!-- Generator: Adobe Illustrator 16.0.0, SVG Export Plug-In . SVG Version: 6.00 Build 0)  -->
<!DOCTYPE svg PUBLIC "-//W3C//DTD SVG 1.1//EN" "http://www.w3.org/Graphics/SVG/1.1/DTD/svg11.dtd">
<svg version="1.1" id="图层_1" xmlns="http://www.w3.org/2000/svg" xmlns:xlink="http://www.w3.org/1999/xlink" x="0px" y="0px"
	 width="512px" height="512px" viewBox="0 0 512 512" enable-background="new 0 0 512 512" xml:space="preserve">
<rect x="68.199" y="8" opacity="0.2" width="374.594" height="496"/>
<rect x="68.199" y="8" opacity="0.08" width="382.594" height="504"/>
<rect x="72.199" y="12" opacity="0.1" width="374.594" height="496"/>
<rect x="72.199" y="12" fill="#0D47A1" width="366.594" height="488"/>
<g>
	
		<linearGradient id="SVGID_1_" gradientUnits="userSpaceOnUse" x1="297.0969" y1="-149.9001" x2="297.0969" y2="334.0999" gradientTransform="matrix(1 0 0 -1 -41.6001 348.0991)">
		<stop  offset="0" style="stop-color:#1976D2"/>
		<stop  offset="0.0226" style="stop-color:#1C79D3"/>
		<stop  offset="0.2859" style="stop-color:#3B93E2"/>
		<stop  offset="0.5416" style="stop-color:#52A6ED"/>
		<stop  offset="0.7843" style="stop-color:#5FB1F4"/>
		<stop  offset="1" style="stop-color:#64B5F6"/>
	</linearGradient>
	<rect x="74.179" y="14" fill="url(#SVGID_1_)" width="362.635" height="484"/>
	<path fill="#64B5F6" d="M381.538,219.697c0,69.572-56.47,126.042-126.042,126.042c-69.571,0-126.041-56.47-126.041-126.042
		s56.47-126.042,126.041-126.042C325.069,93.655,381.538,150.125,381.538,219.697z"/>
	<path fill="#FFFFFF" fill-opacity="0.8" d="M172.807,124.725c0,0,2.611,1.385,3.623,3.624c0.829,2.206,3.624,2.206,3.624,2.206
		h4.03l5.871-1.792l-1.418,3.209c0,0-30.855,14.304-24.62,22.787c6.277,8.475,4.047,10.68,4.047,13.326
		c0,2.612,1.824,0.381,1.824,0.381l1.824-4.826l2.612-3.624l2.611-4.03l0.83-2.238l3.623-6.236l4.437-2.62l4.03,2.62
		c0,0,1.799,0.788,1.393,2.206c-0.381,1.418-0.787,4.03-0.787,4.03s0.787,1.824,2.205,1.824s3.624-1.418,3.624-1.418l1.824,3.217
		l1.418,5.863l3.624,3.623l1.824,4.03l-1.824,3.624l1.824,1.418l4.046,4.444l0.788,2.206l-6.658-0.382c0,0-0.813-1.824-2.206-1.824
		c-1.418,0-7.049-0.406-7.049-0.406l-3.259,0.813l-1.782,2.206c0,0-2.247,3.624-3.665,3.624c-1.377,0-4.818-0.788-4.818-0.788
		s-2.611-0.813-4.029,1.799c-1.418,2.646,2.205,4.03,2.205,4.03l-6.235,1.833l-1.841,0.82c0,0-4.437,1.791-4.437,3.209
		s0,1.418,0,1.418l-1.394,3.624v2.206l-3.242,2.645l-3.217,2.206l-1.418,2.62v4.445c0,0-0.406,2.206-0.406,3.624s0,4.852,0,4.852
		s-1.418,1.418-2.206-1.418c-0.813-2.621-0.813-2.621-0.813-2.621l-1.418-3.243c0,0,1.418-0.381-0.382-1.799
		c-1.824-1.418-3.648-1.824-3.648-1.824s-0.788-0.788-2.629-0.788c-1.782,0,2.248,0.381-1.782,0
		c-4.047-0.406-4.047-0.406-4.047-0.406l-3.242,2.612v2.205c0,0-0.788,15.756,3.624,17.961h1.824l2.628-4.03l2.231,0.813v1.799
		l-0.406,3.243v1.799l2.205,2.239l1.418,4.029c1.824,3.218,0.813,4.039,2.206,4.826c1.418,0.813,2.637,3.242,2.637,3.242l1.8,0.788
		c0,0,1.418,0.406,2.611,0.821c1.418,0.406,1.418,0.406,1.418,0.406l0.423,2.015l0.407,1.608l1.799,2.206c0,0-1.393,0,1.824,0
		c3.218,0,3.218,0,3.218,0s0,0.821,2.23,1.832c2.206,0.788,0.406,0.407,2.206,0.788c1.824,0.406,4.858,0.813,4.858,0.813
		c3.201-0.407,3.201-0.407,3.201-0.407l2.247,3.243c0,0,1.377,0,1.8,1.393c0.406,1.418-2.206,0,0.406,1.418s0,0.406,2.612,1.418
		c2.611,1.012-0.788,0.813,2.611,0.813c3.441,0,4.03,0,5.448,0.382c1.418,0.406,2.247,3.648,2.247,3.648
		c2.612,3.218,2.612,3.218,2.612,3.218l0.406,4.029c0,0-1.418,0.829,1.8,0.829c3.242,0,0.813,0,3.242,0c2.404,0-0.406-0.829,2.205,0
		c2.612,0.788,2.612,0.788,2.612,0.788s4.047,3.242,5.465,3.242s4.03-0.406,5.448,0c1.418,0.381,2.205,2.612,4.817,3.217
		c2.653,0.407,3.648,0,5.448,1.418c1.824,1.418,1.824,1.418,1.824,1.418l0.423,4.818l-1.418,2.612l-3.624,1.418l-0.423,4.452
		l-1.824,4.437v2.206c0,0,2.247,1.824-1.8,2.23c-4.029,0.382-4.029,0.382-4.029,0.382l-1.824,1.824c0,0,0,0.397-0.813,1.841
		c-0.787,1.377-1.799,3.599-1.799,3.599l0.406,4.055v2.612l-1.418,2.206c0,0-1.235,0.63,2.206,2.836
		c3.623,2.205,6.459,2.205,7.271,3.623c0.788,1.418,3.035,2.612,3.035,2.612l-4.859-1.012l-3.018-0.995l-5.042-1.393l-9.677-5.042
		c0,0-14.521-11.908-18.973-21.585c0,0-3.807-5.646-10.266-8.085c0,0-15.955-14.511-17.373-18.135l-0.588-2.43v-1.193l-0.605-0.631
		v-1.377l-0.406-1.012l0.224-4.428l0.183-3.043l0.198-1.601l-0.198-1.235c0,0-0.813-0.788-0.813-1.012
		c0-0.183-0.605-2.015-0.605-2.015l-0.183-0.598l2.43-2.015l-0.631-1.832l0.407-1.004l1.418-1.012c0,0,0.813-1.194,0.813-1.385
		c0-0.406-1.418-1.418-1.418-1.418l-0.589,0.19l-0.631,1.824h-0.787c0,0-0.829-0.406-0.829-0.597c0-0.224-0.788-1.012-0.788-1.012
		l-1.012-0.406c0,0-0.813-0.224-0.995-0.597c-0.224-0.415-1.235-1.012-1.235-1.228c0-0.19-0.788-1.418-0.788-1.418l-1.012-0.382
		c0,0-1.219-1.824-1.219-2.238c0-0.191-0.605-1.194-0.605-1.194s-1.418-1.608-1.418-1.833c0-0.183-0.605-1.601-0.605-1.601h-0.995
		l-2.205-0.821l-1.418-1.8l-1.617-1.824c0,0-0.813-1.418-0.813-1.799c0-0.406-0.605-0.821-0.605-0.821h-1.012h-0.589l-1.418-1.194
		l-3.623-5.041l-0.631-2.239l-0.605-2.421l-0.406-4.039v-2.611l-1.601-18.749C129.637,203.759,135.085,157.372,172.807,124.725z"/>
	<path fill="#FFFFFF" fill-opacity="0.8" d="M315.167,108.97l4.047,3.25l2.007,1.003l1.418,1.608l0.224,1.609
		c0,0,0.382,1.608,0.183,2.015c-0.183,0.406-0.406,2.612-0.406,2.612s1.824,3.25,1.824,3.656c0,0.382,0.199,2.206-0.208,2.621
		c-0.381,0.183-2.628,1.601-2.811,1.003c-0.224-0.597-1.601-2.015-2.023-2.015c-0.406-0.224-1.601-1.418-1.601-1.418l3.218-0.407
		l-0.406-2.023c0,0-2.206-0.788-2.812-0.788c-0.63-0.216-2.836-1.418-2.836-1.418l-2.43-0.597c0,0-4.029-1.004-4.436-1.228
		c-0.382-0.19-2.023-0.788-2.023-0.788h-3.4c0,0-1.642,0.788-2.023,1.194c-0.207,0.415-2.23,2.62-2.23,2.62
		s-0.183,2.612-0.183,3.027c0,0.407-0.604,1.418-0.604,2.612c0,1.228-0.225,2.836-0.225,3.243c0,0.415,0,1.011,0,1.011l-0.406,1.8
		l-1.393,0.813l-1.824,1.418c0,0-1.601,1.202-1.601,1.608c0,0.415,0,2.016,0.589,3.218c0.605,1.228,0.423,2.421,1.21,3.026
		c0.813,0.63,1.22,1.418,1.825,1.634c0.588,0.19,0.182,0.382,1.193,0.382c0.813,0,1.643,0.215,2.023-0.191
		c0.406-0.19,1.418-0.19,1.824-0.82c0.406-0.598-0.406-0.191,0.406-0.598c0.788-0.19,0.788-0.787,1.418-0.19
		c0.788,0.597,1.394,1.418,1.601,1.8c0.199,0.406,0.788,1.418,1.418,2.015c0.788,0.406,1.394,2.015,1.394,2.015l1.235,1.228
		c0,0,0.183,0.19,0.995,0.19c0.787,0,2.023-0.19,2.023-0.19l0.406-0.813c0,0,0.787,0.216,1.012-0.19
		c0.182-0.415,0.182-1.012,0.182-1.012s-0.406-1.228-0.813-1.609c-0.183-0.407-0.605-1.418-0.605-1.418l0.225-1.418l0.787-0.813
		l0.225-1.012v-1.194l-0.813-0.415l-1.418-0.788c0,0-0.787,0.191-0.787-0.82c-0.224-0.813-0.224-0.813-0.224-0.813l-1.8-0.381
		l-1.235-0.63l1.418-1.012c0.829-1.385,1.012-1.791,1.012-2.206c0-0.406-0.183-1.601-0.183-1.601s-0.829-0.224-0.829-1.235
		c-0.183-1.003-0.183-1.601-0.183-1.601l0.183-0.788c0,0,0.199-0.63,0.829-0.63c0.381,0,1.194,0.63,1.601,0.63
		s1.193,0.183,1.193,0.183s0.423,0.191,0.423,0.821c0,0.382-0.198,1.385-0.198,1.385l0.787-1.194v1.418l-0.182,1.609v1.608
		l0.787,1.601l0.813,1.235c0,0,1.012,1.003,1.418,1.418c0.406,0.183,1.418,1.003,1.418,1.003l1.194,0.598l0.829,0.19l0.788-0.788
		c0,0,1.418,0.191,1.418-0.215c0.183-0.415,0.183-0.415,0.183-0.415s1.642-0.19,2.023-0.19c0.406,0,1.219,0,1.219,0
		s0.605,1.202,0.199,1.202c-0.407,0-0.605,0.406-1.617,0.821c-0.995,0.183-1.418,0-1.601,0.407
		c-0.224,0.406-0.813,1.418-0.813,1.418l0.813,0.19h0.605l0.813,0.821c0,0,0.183,0.183,0,0.788
		c-0.224,0.598,0.788,0.406-0.224,0.598c-1.194,0.215-1.8-0.191-1.8-0.191s-0.207-1.011-0.813-0.597
		c-0.406,0.406-0.605,1.418-0.605,1.418v1.385l0.788,2.015c0,0,0.423,0.415,0,0.631c-0.365,0.19-1.783,1.799-1.783,1.799
		s-0.224,0.598-0.829,0.598c-0.406,0-1.012,0-2.007,0.224c-0.788,0.183-0.788,0.183-1.617,0.406
		c-0.813,0.19-1.418,0.381-2.611,0.597c-1.236,0.191-3.441,0.191-4.254,0.191c-0.788,0-1.012,0-1.394-0.191
		c-0.406-0.215-0.207,0-0.813-0.82c-0.605-0.788-1.194-1.418-1.194-2.016c0-0.406,0-0.597-0.224-1.418
		c-0.183-0.787-0.183-1.385-0.788-1.385c-0.813,0-0.813,0-0.813,0s-1.617,1.194-1.418,1.609c0.207,0.406-0.199,0,1.219,1.003
		c1.394,1.012,1.8,2.43,1.8,2.43l-0.183,1.385l-2.629,1.418l-1.824,0.597l-0.182,1.235c0,0,0,0.407-0.407,1.003
		c-0.423,0.597-1.418,1.418-1.418,1.418s-0.829,0.19-1.011,0.788c-0.199,0.414-0.83,2.015-0.83,2.015s-0.787-0.183-1.6,0.415
		c-0.788,0.597,0.224,0.597-1.601,1.418c-1.841,0.787-1.841,0.787-1.841,0.787l-2.007-0.19l-1.194,0.406c0,0-1.617,0.19-1.841,0.605
		c-0.183,0.406-0.995,1.601-0.995,1.601s-0.381,0.82,0,0.82c0.406,0.191,0.995,0,2.007,0.191c0.829,0.224,1.012,0.224,1.642,0.597
		c0.605,0.224,1.194,0.821,1.194,0.821l2.206,2.015l1.235,2.62l-0.224,2.016l-2.389,0.82c0,0-1.418,0-2.023,0
		c-0.406,0-0.224,0-2.653,0c-2.388,0-2.794,0-3.201,0c-0.423,0-2.022-0.224-2.022-0.224l-1.418,0.224l-1.012,0.788l-0.589,0.216
		c0,0,0.813,1.799,0.813,2.43c0,0.597,0,1.385,0,1.385l-0.224,1.227l-0.589,1.418l-0.829,1.385l0.224,0.821
		c0,0-0.224,0.597,0.183,0.597c0.423,0,1.617-0.183,1.617,0.224c0,0.381-1.012,2.015-1.012,2.015l2.022,0.382
		c0,0-0.198-0.191,0.995,0.215c1.236,0.191,2.023,0.605,2.023,0.605l1.418,1.004l0.406,0.82l0.406-0.82c0,0,2.206-0.191,2.629-0.406
		c0.406-0.191,1.418-0.191,1.418-0.191h1.783c0,0,0.423,0.191,0.829-0.224c0.183-0.373,0.183-0.373,0.183-0.373
		s2.023-0.821,2.43-1.228c0.406-0.19,0.604-1.418,0.604-1.418s0.631-0.381,0.631-0.788c0-0.415-0.423-1.418-0.423-1.418v-0.821
		l0.605-0.788c0,0,0.182-0.224,0.813-0.82c0.605-0.598,0.605-0.598,0.605-0.598s-0.225-0.19,0.604-0.597
		c0.813-0.224,1.418-0.821,1.825-0.821c0.381,0-0.407,0.406,0.381,0c0.813-0.414,0.995-0.787,0.995-1.418
		c0-0.381,0.224-2.62,0.224-2.62l0.788-1.194l2.023,0.191l1.012,0.215c0,0,1.219,0.191,1.418-0.215
		c0.207-0.415,0.813-0.788,0.813-0.788l1.601-0.821c0,0-0.183-0.19,0.605-0.19c0.813,0,2.022,0,2.611,0c0.406,0,1.418,0,1.418,0
		s0.829,0.382,1.236,0.788c0.182,0.414,0.787,1.418,0.787,1.418l0.589,0.82h0.63c0.788,0.598,1.211,1.012,2.629,1.385
		c1.418,0.415,2.413,0.821,2.413,0.821s0.382,0.821,0.788,1.194c0.423,0.414,0.829,0.82,1.418,1.235
		c0.423,0.183,0.829,0.597,1.012,1.003c0.198,0.415,0.829,1.203,0.829,1.203l0.787,0.813l0.407-0.813v-1.418l-0.199-0.788
		c0,0-0.813-0.605,0.199-0.605c0.813,0,1.418,0,1.418,0l-0.83-1.228l-0.995-0.406l-1.418-1.012l-0.604-0.597l-0.605-0.19
		l-0.589-0.406l-0.829-0.598c0,0-1.418-0.224-1.418-0.82c-0.183-0.415-0.183-0.415-0.183-0.415l-1.418-0.183
		c0,0-1.418-0.82-1.418-1.202c0-0.406-0.183-1.634-0.183-1.634l-1.211-0.19c0,0,0.199-0.821,0.199-1.418
		c0-0.415,0.406-1.012,0.406-1.012l2.612-0.19l0.605,1.418l1.012,0.605l1.418,0.597l0.589,0.821l0.605,0.597
		c0,0,0.224,0.19,1.011,0.406c0.813,0.19,1.418,0.382,1.418,0.382s0.813,0.82,1.418,0.82c0.589,0.183,0.813,0.406,1.418,0.598
		c-0.423,0.406-0.423,0.406-0.423,0.406s0.199,0.414,0.83,0.82c0.588,0.382,1.193,1.194,1.193,1.609
		c0,0.406,0.406,1.791,0.813,2.015c0.382,0.19,0.605,0.19,1.394,1.012c0.813,0.788,0.813,1.601,1.418,2.015
		c0.813,0.191,1.418,0,1.418,0.788c0.183,0.821,0.183,1.418,0.183,1.418s0.63,0.216,1.053,0.216c0.381,0,1.194-0.813,1.194-0.813
		s0.813-1.203,0.183-1.418c-0.365-0.191-1.377-0.191-1.377-0.605c0-0.406,0-2.612,0-2.612l0.589-1.418l0.788-1.194l1.235,0.373
		l1.194-0.787l1.235,1.418l-0.407,1.608c0,0,0.184,1.012,0.788,1.799c0.406,0.813,1.418,1.825,1.418,1.825l2.007,1.824l2.836,0.788
		l0.605-0.183l4.213-0.821c0,0,0.63,0,1.012,0c0.406,0,2.43,3.433,2.43,3.433s0,1.418,0,2.206c0,0.821,0,2.836,0,2.836
		s-1.418,1.418-2.023,1.418c-0.589,0-2.206,0.788-2.206,0.788l-3.425,0.82l-2.206-0.19l-4.03-0.224c0,0-4.046-0.183-4.452-0.183
		s-1.824,0-2.23,0c-0.423,0-1.012,0.406-1.418,1.601c-0.382,1.202-1.211,1.608-1.211,1.608s0,0.597-0.813,0.597
		c-0.788,0-0.788,0.224-1.394-0.183c-0.63-0.415-3.424-1.011-3.424-1.011l-2.612-1.825l-1.418-1.203l-1.418-0.19h-4.047
		l-2.612-0.216l0.406-4.221l0.382,1.194l-0.788-2.803l-1.219-0.821l-2.811-0.597l-1.824,0.19l-2.43,0.598l-2.389,0.82l-1.418,0.406
		l-6.883,1.194l-2.413,1.012c0,0-1.011,0.597-1.393,0.821c-0.406,0.19-2.023,0.19-2.023,0.19s-1.219-0.19-1.824-0.415
		c-0.589-0.19-2.007-0.19-2.612-0.19s-1.824-0.183-2.23,0c-0.381,0.19-0.788,0.19-1.211,0.821c-0.406,0.597-1.824,2.205-1.824,2.205
		s-0.787,0.821-1.193,1.203c-0.183,0.407-1.194,1.633-1.194,1.633l-1.642,2.621l-1.012,1.194l0.224,1.418v1.012
		c0,0-0.605,0.598-1.012,0.813c-0.406,0.191-1.219,0.605-1.219,0.605s-0.605,0.183-1.211,0.788c-0.589,0.406-0.589,0.63-0.995,1.003
		c-0.423,0.415-1.841,1.418-1.841,1.418s-0.788,0.598-1.376,1.228c-0.407,0.605-1.236,1.393-1.418,1.8
		c-0.225,0.406-0.83,0.82-1.236,1.011c-0.381,0.215-1.193,1.825-1.376,2.231c-0.224,0.381-1.418,2.206-1.418,2.206l-0.829,3.441
		l-0.183,1.601c0,0,0.183,0.605,0.589,1.012c0.423,0.406,0.829,2.015,0.829,2.015v1.418c0,0-0.406,1.203-0.63,1.609
		c-0.199,0.406,0.224,2.429,0.224,2.429v1.194c0,0,0,0.407-0.605,1.012c-0.63,0.598-0.813,1.418-0.813,1.418l0.813,1.824
		l0.605,1.194v0.821l0.787,1.385c0,0,0.407,0.414,0.813,0.82c0.406,0.191,0.604,0.191,1.418,0.821
		c0.787,0.381,0.787,0.381,0.787,0.381s1.235,1.418,1.235,2.015c0,0.406,0.788,1.228,0.788,1.228l1.418,1.418
		c0,0,0.207,0.787,0.995,1.385c0.829,0.63,1.617,1.012,2.023,1.418c0.406,0.224,1.601,1.227,2.612,1.418
		c0.829,0.19,1.235,0.414,1.642,0.414c0.382,0-0.63-1.235,2.206,0.183s4.635,2.023,4.635,2.023l2.007,0.813
		c0,0,3.259,0.19,3.624-0.216c0.423-0.19,1.012-0.19,1.418-0.19c0.423,0,1.418,0,2.247,0c0.788,0,3.624-0.406,3.624-0.406
		l3.217-1.202c0,0,0.995-0.598,1.418-0.821c0.406-0.183,1.601-1.003,2.007-1.194c0.406-0.224,2.43-0.224,2.43-0.224s0-0.597,0.788,0
		c0.813,0.63,0.813,0.821,1.012,1.235c0.224,0.406,0.224,1.418,0.813,1.418c0.605,0.183,2.023,0.598,2.023,0.598
		s2.006-0.225,2.611,0c0.605,0.19,2.023,0.19,2.023,0.19l0.589,0.813l0.224,1.8v1.642c0,0-0.224,0.597,0,1.194
		c0.183,0.597,0.788,1.608,0.788,1.608s-0.788,1.228-1.194,1.418s-1.418,1.418-1.418,1.418l2.836,2.62l1.601,1.601l1.194,1.418
		c0,0,0.224,0.58,0.224,1.012c0,0.406-0.224,1.418,0,2.007c0.199,0.397,0.199,2.023,0.199,2.023s0.207,1.194,0.207,1.625
		c0,0.397-0.406,2.405-0.406,2.405l-0.224,1.418l-0.788,2.429l-0.995,1.194l-1.418,1.418l-1.012,1.617l-0.199,2.205l-0.813,1.394
		c0,0,0.183,1.244,0.183,1.849c0,0.59,1.235,2.795,1.235,2.795l-0.224,1.841c0,0-0.788,2.612-0.788,3.201
		c0,0.63-0.589,1.442-0.589,2.023c0,0.406-0.224,2.255-0.224,2.255l0.224,2.206l0.788,2.222l-0.788,2.008
		c0,0-0.423,1.616-0.423,2.604c0,0.813,1.418,1.808,1.8,1.808c0.406,0,2.247-0.183,3.035-0.763c0.813-0.432,2.836-1.045,3.242-1.244
		s0.788,0.199,2.007-0.788c1.21-0.804,3.035-2.247,3.035-2.247s1.418-0.995,2.006-1.377c0.423-0.431,2.43-2.652,2.43-2.652
		s1.394-1.377,2.405-2.008c0.995-0.604,0-0.198,0.995-0.813c1.053-0.58,4.27-3.233,4.27-3.233l3.201-3.201
		c0,0,2.836-3.648,3.259-4.229c0.406-0.631,3.019-4.03,3.425-4.254c0.382-0.208,4.03-2.612,4.818-3.218
		c0.829-0.589,1.84-4.867,2.247-5.448c0.381-0.406,2.612-5.448,2.612-5.448l2.022-5.829l3.425-8.698l3.4-6.054
		c0,0,1.418-2.611,2.023-3.399c0.406-0.821,3.648-7.057,3.648-7.057l1.21-5.266l0.406-4.444h-2.022l-2.231,2.015l-2.022-0.597
		l-2.008,0.224l2.231-2.836l-0.605-2.206l-1.824-1.418l-2.43-3.623v-3.657l-2.612-4.221l-1.601-6.65c0,0-3.034-3.242-2.612-4.03
		c0.184-0.82,0.996-3.25,0.996-3.25l1.616,0.82c0,0,1.194,3.218,1.8,3.434c0.63,0.19,1.418,1.799,1.625,2.205
		c0.199,0.415,0.382,1.833,0.788,2.239c0.224,0.381,1.617,3.026,1.617,3.026s1.011,2.612,1.219,3.209
		c0.199,0.415,1.21,2.023,1.418,3.217c0.199,1.228,0.788,5.042,0.788,5.448c0,0.414,1.012,4.635,1.012,4.635
		s1.418-0.381,1.616-0.787c0.208-0.407,0.208-0.598,0.63-1.012c0.184-0.406,2.612-2.231,2.612-2.231l1.012-3.217
		c0,0,0.589-1.418,0.788-2.015c0.207-0.598,1.418-2.836,1.418-3.218c0-0.406-0.199-2.015,0-2.646
		c0.207-0.381,0.813-2.803,0.813-3.217c0-0.406,0.183-2.016,0.183-2.016l-0.183-3.623l1.601-2.016l0.829-2.238
		C381.356,203.974,375.485,140.638,315.167,108.97z"/>
</g>
</svg>
