<?xml version="1.0" encoding="utf-8"?>
<!-- Generator: Adobe Illustrator 16.0.0, SVG Export Plug-In . SVG Version: 6.00 Build 0)  -->
<!DOCTYPE svg PUBLIC "-//W3C//DTD SVG 1.1//EN" "http://www.w3.org/Graphics/SVG/1.1/DTD/svg11.dtd">
<svg version="1.1" id="图层_1" xmlns="http://www.w3.org/2000/svg" xmlns:xlink="http://www.w3.org/1999/xlink" x="0px" y="0px"
	 width="512px" height="512px" viewBox="0 0 512 512" enable-background="new 0 0 512 512" xml:space="preserve">
<polygon opacity="0.08" enable-background="new    " points="68.2,512 68.2,8 451.801,8 451.801,369.913 309.714,512 "/>
<polygon opacity="0.1" enable-background="new    " points="72.2,508 72.2,12 447.801,12 447.801,368.256 308.057,508 "/>
<polygon opacity="0.2" enable-background="new    " points="68.2,504 68.2,8 443.801,8 443.801,364.256 304.058,504 "/>
<g>
	<polygon fill="#445962" points="72.22,500 72.22,12 437.812,12 437.812,362.75 300.562,500 	"/>
</g>
<g>
	<g>
		<g>
			<g>
				<g>
					<g>
						
							<linearGradient id="SVGID_1_" gradientUnits="userSpaceOnUse" x1="379.7991" y1="1257.7" x2="379.799" y2="1741.7009" gradientTransform="matrix(1 0 0 1 -124.7998 -1243.7012)">
							<stop  offset="0" style="stop-color:#F6F5F5"/>
							<stop  offset="0.341" style="stop-color:#F1F2F3"/>
							<stop  offset="0.6434" style="stop-color:#E7EAEB"/>
							<stop  offset="0.9302" style="stop-color:#D5DBDF"/>
							<stop  offset="1" style="stop-color:#CFD7DB"/>
						</linearGradient>
						<polygon fill="url(#SVGID_1_)" points="73.689,498 73.689,14 436.31,14 436.31,361.875 300.185,498 						"/>
					</g>
					<polygon fill="#455963" fill-opacity="0.7" points="436.31,361.875 436.31,356.013 292.718,356.013 292.718,498 300.185,498 
											"/>
					<path fill="#8DA1AC" d="M299.997,361.875l136.346,0.221L300.185,498L299.997,361.875z"/>
				</g>
			</g>
		</g>
	</g>
	<text transform="matrix(1 0 0 1 118.8586 173.4216)"><tspan x="0" y="0" fill="#607D8B" font-family="'Ubuntu-Regular'" font-size="86.5803">1</tspan><tspan x="0" y="74.213" fill="#607D8B" font-family="'Ubuntu-Regular'" font-size="86.5803">10</tspan><tspan x="0" y="148.427" fill="#607D8B" font-family="'Ubuntu-Regular'" font-size="86.5803">101</tspan></text>
</g>
</svg>
