<?xml version="1.0" encoding="utf-8"?>
<!-- Generator: Adobe Illustrator 21.0.0, SVG Export Plug-In . SVG Version: 6.00 Build 0)  -->
<svg version="1.1" id="图层_1" xmlns="http://www.w3.org/2000/svg" xmlns:xlink="http://www.w3.org/1999/xlink" x="0px" y="0px"
	 viewBox="0 0 512 512" style="enable-background:new 0 0 512 512;" xml:space="preserve">
<style type="text/css">
	.st0{opacity:0.2;enable-background:new    ;}
	.st1{opacity:0.08;enable-background:new    ;}
	.st2{opacity:0.1;enable-background:new    ;}
	.st3{fill:url(#SVGID_1_);}
	.st4{fill:#EE6F0B;fill-opacity:0.3922;}
	.st5{fill:#FFFFFF;fill-opacity:0.3922;}
	.st6{fill:#EE6F0B;}
	.st7{opacity:0.8;}
	.st8{fill:#FFFFFF;}
</style>
<g id="surface1">
	<polygon class="st0" points="69,504 69,8 443,8 443,364.4 303.4,504 	"/>
	<polygon class="st1" points="69,512 69,8 451,8 451,370.1 309.1,512 	"/>
	<polygon class="st2" points="73,508 73,12 447,12 447,368.4 307.4,508 	"/>
	<g>
		
			<linearGradient id="SVGID_1_" gradientUnits="userSpaceOnUse" x1="464.0005" y1="-1959.9512" x2="464.0005" y2="-1471.9512" gradientTransform="matrix(1 0 0 -1 -208.0005 -1459.9512)">
			<stop  offset="0" style="stop-color:#F57C00"/>
			<stop  offset="0.099" style="stop-color:#F78B0C"/>
			<stop  offset="0.3289" style="stop-color:#FAA823"/>
			<stop  offset="0.5576" style="stop-color:#FDBC33"/>
			<stop  offset="0.7827" style="stop-color:#FEC93D"/>
			<stop  offset="1" style="stop-color:#FFCD40"/>
		</linearGradient>
		<path class="st3" d="M301.8,500L439,362.8V12H73v488H301.8z"/>
		<polygon class="st4" points="294.1,355.1 294.1,500 301.8,500 439,362.8 439,355.1 		"/>
		<path class="st5" d="M301.8,362.8h137.1L301.8,500V362.8z"/>
		<g>
			<path class="st6" d="M437,14v347.9L300.9,498H195H75V14H437 M439,12H73v488h122h106.8L439,362.8V12L439,12z"/>
		</g>
	</g>
</g>
<g class="st7">
	<path class="st8" d="M223,283c0,0-9.6,5.3,6.8,7.1c20,2.2,30.1,1.9,52.1-2.1c0,0,5.7,3.4,13.8,6.3C246.5,314.4,184.4,293.2,223,283
		"/>
	<path class="st8" d="M217,256.9c0,0-10.8,7.6,5.7,9.1c21.3,2.1,38.1,2.3,67.2-3c0,0,4.1,3.9,10.3,6
		C240.7,285.5,174.4,270.3,217,256.9"/>
	<path class="st8" d="M267.7,212.7c12.1,13.2-3.2,25.1-3.2,25.1s30.8-15.1,16.7-34c-13.2-17.6-23.4-26.3,31.5-56.5
		C312.6,147.4,226.6,167.8,267.7,212.7"/>
	<path class="st8" d="M332.7,302.3c0,0,7.1,5.6-7.8,9.9c-28.4,8.1-118.1,10.6-143.1,0.3c-8.9-3.6,7.8-8.9,13.2-9.9
		c5.5-1.2,8.6-0.9,8.6-0.9c-9.9-6.7-64.5,13-27.6,18.7C276.3,335.8,358.8,313.4,332.7,302.3"/>
	<path class="st8" d="M227.6,229.9c0,0-45.7,10.2-16.2,13.9c12.4,1.6,37.2,1.2,60.4-0.6c18.8-1.5,37.8-4.7,37.8-4.7
		s-6.7,2.7-11.5,5.8c-46.4,11.6-136,6.1-110.2-5.7C209.9,228.8,227.6,229.9,227.6,229.9"/>
	<path class="st8" d="M309.5,273.3c47.1-23.2,25.3-45.5,10.2-42.5c-3.7,0.7-5.4,1.4-5.4,1.4s1.3-2.1,4-2.9
		c30.1-10.1,53.2,29.5-9.8,45.3C308.6,274.5,309.3,273.9,309.5,273.3"/>
	<path class="st8" d="M281.1,98.8c0,0,26.1,24.7-24.8,62.8c-40.8,30.5-9.3,47.9,0,67.9c-23.8-20.4-41.3-38.3-29.6-55
		C244,149.9,291.7,138.1,281.1,98.8"/>
	<path class="st8" d="M232.3,336.3c45.2,2.7,114.7-1.6,116.4-21.8c0,0-3.2,7.7-37.5,13.8c-38.6,6.8-86.3,6-114.5,1.6
		C196.8,329.9,202.6,334.5,232.3,336.3"/>
</g>
</svg>
