<?xml version="1.0" encoding="utf-8"?>
<!-- Generator: Adobe Illustrator 16.0.0, SVG Export Plug-In . SVG Version: 6.00 Build 0)  -->
<!DOCTYPE svg PUBLIC "-//W3C//DTD SVG 1.1//EN" "http://www.w3.org/Graphics/SVG/1.1/DTD/svg11.dtd">
<svg version="1.1" id="图层_1" xmlns="http://www.w3.org/2000/svg" xmlns:xlink="http://www.w3.org/1999/xlink" x="0px" y="0px"
	 width="512px" height="512px" viewBox="0 0 512 512" enable-background="new 0 0 512 512" xml:space="preserve">
<polygon opacity="0.08" enable-background="new    " points="68.2,512 68.2,8 451.801,8 451.801,369.913 309.714,512 "/>
<polygon opacity="0.1" enable-background="new    " points="72.2,508 72.2,12 447.801,12 447.801,368.256 308.057,508 "/>
<polygon opacity="0.2" enable-background="new    " points="68.2,504 68.2,8 443.801,8 443.801,364.256 304.058,504 "/>
<polygon fill="#E65100" points="72.199,500 72.199,12 438.793,12 438.793,362.598 301.776,500 "/>
<g>
	<g>
		<g>
			
				<linearGradient id="SVGID_1_" gradientUnits="userSpaceOnUse" x1="297.0959" y1="-149.9001" x2="297.0959" y2="334.0999" gradientTransform="matrix(1 0 0 -1 -41.6001 348.0991)">
				<stop  offset="0" style="stop-color:#EE6F0B"/>
				<stop  offset="1" style="stop-color:#FFB74D"/>
			</linearGradient>
			<polygon fill="url(#SVGID_1_)" points="74.185,498 74.185,14 436.807,14 436.807,361.875 300.682,498 			"/>
		</g>
		<polygon fill="#E65100" fill-opacity="0.3922" points="436.807,361.875 436.807,356.013 293.214,356.013 293.214,498 300.682,498 
					"/>
		<path fill="#FFFFFF" fill-opacity="0.3922" d="M300.462,361.875l136.345,0.189L300.682,498L300.462,361.875z"/>
	</g>
	<g opacity="0.8">
		<rect x="121.388" y="200.321" fill="#FFFFFF" width="38.727" height="194.01"/>
		<rect x="185.921" y="297.121" fill="#FFFFFF" width="38.727" height="96.989"/>
		<rect x="250.266" y="336.635" fill="#FFFFFF" width="38.726" height="58.105"/>
		<g>
			<path fill="#FFFFFF" d="M302.888,166.037l0.41,77.232l77.231-0.409c0.221,42.76-34.283,77.452-77.043,77.642
				c-42.728,0.221-77.421-34.283-77.642-77.012C225.656,200.92,260.128,166.227,302.888,166.037z"/>
			<path fill="#FFFFFF" d="M311.963,157.152c42.76-0.189,77.452,34.284,77.642,77.042l-77.232,0.41L311.963,157.152z"/>
		</g>
	</g>
	<g>
		<rect x="74.091" y="14" opacity="0.8" fill="#FFFFFF" enable-background="new    " width="362.811" height="92.767"/>
		<g enable-background="new    ">
			<path fill="#E64A19" d="M216.739,59.816c0,6.176-0.977,11.627-2.899,16.323c-1.953,4.695-4.6,8.634-7.972,11.785
				c-3.372,3.151-7.373,5.546-12.037,7.122c-4.632,1.638-9.642,2.426-14.967,2.426c-5.199,0-10.115-0.788-14.715-2.426
				c-4.632-1.576-8.634-3.97-12.1-7.122c-3.435-3.151-6.145-7.09-8.098-11.785c-1.985-4.695-2.994-10.146-2.994-16.323
				c0-6.208,1.04-11.659,3.088-16.338c2.048-4.695,4.821-8.634,8.287-11.848c3.498-3.198,7.5-5.593,12.1-7.184
				c4.569-1.607,9.358-2.411,14.432-2.411c5.199,0,10.083,0.804,14.715,2.411c4.601,1.591,8.634,3.986,12.068,7.184
				c3.435,3.214,6.145,7.153,8.13,11.848C215.762,48.157,216.739,53.608,216.739,59.816z M158.665,59.816
				c0,3.529,0.441,6.744,1.355,9.58c0.914,2.867,2.237,5.293,3.97,7.373c1.702,2.048,3.813,3.624,6.302,4.727
				c2.489,1.135,5.357,1.702,8.571,1.702c3.151,0,5.987-0.567,8.507-1.702c2.521-1.103,4.633-2.678,6.365-4.727
				c1.733-2.08,3.025-4.506,3.939-7.373c0.913-2.836,1.386-6.05,1.386-9.58c0-3.561-0.473-6.774-1.386-9.642
				c-0.914-2.899-2.206-5.373-3.939-7.42c-1.732-2.048-3.844-3.64-6.365-4.758c-2.521-1.103-5.356-1.67-8.507-1.67
				c-3.214,0-6.082,0.583-8.571,1.733c-2.489,1.15-4.601,2.742-6.302,4.79c-1.733,2.064-3.057,4.522-3.97,7.389
				C159.106,53.135,158.665,56.35,158.665,59.816z"/>
			<path fill="#E64A19" d="M297.689,59.816c0,6.239-1.04,11.722-3.088,16.386s-4.979,8.508-8.729,11.564
				c-3.75,3.056-8.351,5.356-13.77,6.9c-5.42,1.513-11.502,2.269-18.245,2.269c-3.057,0-6.648-0.126-10.745-0.378
				c-4.096-0.22-8.13-0.725-12.1-1.512V24.65c3.97-0.693,8.066-1.166,12.352-1.418c4.286-0.236,7.973-0.362,11.029-0.362
				c6.554,0,12.446,0.693,17.771,2.096c5.294,1.386,9.831,3.576,13.676,6.57c3.781,2.993,6.712,6.822,8.76,11.47
				S297.689,53.262,297.689,59.816z M248.155,82.756c0.819,0.063,1.733,0.126,2.805,0.157c1.039,0.032,2.3,0.032,3.781,0.032
				c8.57,0,14.904-2.017,19.063-6.113c4.128-4.127,6.176-9.799,6.176-17.016c0-7.594-1.953-13.329-5.924-17.22
				c-3.938-3.892-10.209-5.845-18.78-5.845c-1.134,0-2.363,0.016-3.592,0.047c-1.261,0.047-2.427,0.126-3.529,0.268V82.756z"/>
			<path fill="#E64A19" d="M334.808,22.87c11.344,0,20.041,1.906,26.122,5.688c6.082,3.797,9.106,10.005,9.106,18.623
				c0,8.697-3.057,14.967-9.201,18.812c-6.176,3.876-14.936,5.798-26.374,5.798h-5.388v24.2h-17.11V24.745
				c3.75-0.693,7.657-1.182,11.848-1.45C328.002,23.012,331.657,22.87,334.808,22.87z M335.879,36.75
				c-1.229,0-2.458,0.032-3.655,0.11c-1.197,0.063-2.269,0.126-3.15,0.205v20.86h5.388c5.956,0,10.398-0.756,13.393-2.3
				c3.024-1.544,4.537-4.38,4.537-8.54c0-2.032-0.409-3.687-1.197-5.01c-0.757-1.323-1.828-2.395-3.277-3.183
				c-1.418-0.803-3.151-1.355-5.23-1.67C340.669,36.908,338.401,36.75,335.879,36.75z"/>
		</g>
	</g>
</g>
</svg>
