<?xml version="1.0" encoding="utf-8"?>
<!-- Generator: Adobe Illustrator 16.0.0, SVG Export Plug-In . SVG Version: 6.00 Build 0)  -->
<!DOCTYPE svg PUBLIC "-//W3C//DTD SVG 1.1//EN" "http://www.w3.org/Graphics/SVG/1.1/DTD/svg11.dtd">
<svg version="1.1" id="图层_1" xmlns="http://www.w3.org/2000/svg" xmlns:xlink="http://www.w3.org/1999/xlink" x="0px" y="0px"
	 width="512px" height="512px" viewBox="0 0 512 512" enable-background="new 0 0 512 512" xml:space="preserve">
<g id="surface1">
	<polygon opacity="0.2" enable-background="new    " points="69,504 69,8 443,8 443,364.407 303.406,504 	"/>
	<polygon opacity="0.08" enable-background="new    " points="69,512 69,8 451,8 451,370.064 309.065,512 	"/>
	<polygon opacity="0.1" enable-background="new    " points="73,508 73,12 447,12 447,368.407 307.406,508 	"/>
	<g>
		
			<linearGradient id="SVGID_1_" gradientUnits="userSpaceOnUse" x1="464.0012" y1="-1705.9512" x2="464.0012" y2="-1217.9512" gradientTransform="matrix(1 0 0 -1 -208.0005 -1205.9512)">
			<stop  offset="0" style="stop-color:#F57C00"/>
			<stop  offset="0.099" style="stop-color:#F78B0C"/>
			<stop  offset="0.3289" style="stop-color:#FAA823"/>
			<stop  offset="0.5576" style="stop-color:#FDBC33"/>
			<stop  offset="0.7827" style="stop-color:#FEC93D"/>
			<stop  offset="1" style="stop-color:#FFCD40"/>
		</linearGradient>
		<path fill="url(#SVGID_1_)" d="M301.75,500L439,362.75V12H73v488H301.75z"/>
		<polygon fill="#EE6F0B" fill-opacity="0.3922" points="294.125,355.125 294.125,500 301.75,500 439,362.75 439,355.125 		"/>
		<path fill="#FFFFFF" fill-opacity="0.3922" d="M301.75,362.75h137.135L301.75,500V362.75z"/>
		<g>
			<path fill="#EE6F0B" d="M437,14v347.922L300.922,498H195H75V14H437 M439,12H73v488h122h106.75L439,362.75V12L439,12z"/>
		</g>
	</g>
</g>
<g opacity="0.8">
	<path fill="#FFFFFF" d="M223.027,282.967c0,0-9.622,5.333,6.82,7.124c19.958,2.169,30.113,1.873,52.068-2.087
		c0,0,5.719,3.394,13.787,6.343C246.527,314.362,184.426,293.188,223.027,282.967"/>
	<path fill="#FFFFFF" d="M216.98,256.904c0,0-10.78,7.6,5.661,9.145c21.33,2.087,38.092,2.268,67.162-3.032
		c0,0,4.051,3.896,10.337,5.982C240.718,285.53,174.418,270.313,216.98,256.904"/>
	<path fill="#FFFFFF" d="M267.709,212.707c12.086,13.163-3.246,25.11-3.246,25.11s30.796-15.135,16.68-33.959
		c-13.195-17.6-23.352-26.293,31.478-56.468C312.62,147.389,226.601,167.787,267.709,212.707"/>
	<path fill="#FFFFFF" d="M332.694,302.268c0,0,7.148,5.604-7.83,9.86c-28.389,8.134-118.13,10.607-143.092,0.304
		c-8.907-3.64,7.838-8.85,13.196-9.86c5.513-1.166,8.611-0.928,8.611-0.928c-9.95-6.672-64.451,13.048-27.608,18.709
		C276.254,335.783,358.757,313.442,332.694,302.268"/>
	<path fill="#FFFFFF" d="M227.62,229.92c0,0-45.701,10.222-16.154,13.944c12.424,1.635,37.238,1.249,60.441-0.625
		c18.824-1.463,37.829-4.651,37.829-4.651s-6.672,2.654-11.47,5.842c-46.375,11.552-135.969,6.105-110.201-5.694
		C209.922,228.762,227.62,229.92,227.62,229.92"/>
	<path fill="#FFFFFF" d="M309.523,273.263c47.147-23.179,25.349-45.511,10.156-42.504c-3.723,0.715-5.357,1.396-5.357,1.396
		s1.307-2.087,4.018-2.95c30.114-10.065,53.228,29.547-9.77,45.306C308.57,274.512,309.342,273.888,309.523,273.263"/>
	<path fill="#FFFFFF" d="M281.143,98.751c0,0,26.121,24.748-24.756,62.84c-40.804,30.533-9.326,47.927,0,67.853
		c-23.795-20.402-41.338-38.306-29.637-54.985C243.971,149.948,291.685,138.096,281.143,98.751"/>
	<path fill="#FFFFFF" d="M232.262,336.26c45.216,2.703,114.704-1.586,116.429-21.807c0,0-3.188,7.683-37.468,13.787
		c-38.635,6.82-86.258,6.048-114.465,1.644C196.759,329.884,202.568,334.469,232.262,336.26"/>
</g>
</svg>
