<?xml version="1.0" encoding="utf-8"?>
<!-- Generator: Adobe Illustrator 16.0.0, SVG Export Plug-In . SVG Version: 6.00 Build 0)  -->
<!DOCTYPE svg PUBLIC "-//W3C//DTD SVG 1.1//EN" "http://www.w3.org/Graphics/SVG/1.1/DTD/svg11.dtd">
<svg version="1.1" id="图层_1" xmlns="http://www.w3.org/2000/svg" xmlns:xlink="http://www.w3.org/1999/xlink" x="0px" y="0px"
	 width="512px" height="512px" viewBox="0 0 512 512" enable-background="new 0 0 512 512" xml:space="preserve">
<g id="surface1">
	<polygon opacity="0.2" enable-background="new    " points="69,504 69,8 443,8 443,364.407 303.406,504 	"/>
	<polygon opacity="0.08" enable-background="new    " points="69,512 69,8 451,8 451,370.064 309.065,512 	"/>
	<polygon opacity="0.1" enable-background="new    " points="73,508 73,12 447,12 447,368.407 307.406,508 	"/>
</g>
<linearGradient id="SVGID_1_" gradientUnits="userSpaceOnUse" x1="422.4006" y1="2053.9609" x2="422.4006" y2="1565.9609" gradientTransform="matrix(1 0 0 1 -166.4004 -1553.9609)">
	<stop  offset="0" style="stop-color:#455A64"/>
	<stop  offset="0.0238" style="stop-color:#465C66"/>
	<stop  offset="0.3557" style="stop-color:#556E7A"/>
	<stop  offset="0.6835" style="stop-color:#5D7987"/>
	<stop  offset="1" style="stop-color:#607D8B"/>
</linearGradient>
<path fill="url(#SVGID_1_)" d="M301.75,500L439,362.75V12H73v488H301.75z"/>
<polygon fill="#263238" fill-opacity="0.3922" points="294.125,355.125 294.125,500 301.75,500 439,362.75 439,355.125 "/>
<path fill="#FFFFFF" fill-opacity="0.3922" d="M301.75,362.75h137.135L301.75,500V362.75z"/>
<g opacity="0.8">
	<path fill="#FFFFFF" d="M208.672,126.482c-35.06,0-79.199,33.154-78.78,84.5c0.354,49.71,16.885,76.636,29.547,107.111
		l37.501-15.578c-8.611-17.519-19.868-34.847-23.861-43.549c-11.142-24.271-14.922-35.208-13.969-53.703
		c0.863-17.871,6.82-28.799,17.781-39.374c10.928-10.542,26.12-15.875,44.172-13.373c26.063,3.574,39.793,18.167,46.408,31.482
		c3.722-0.534,7.534-0.982,11.766-0.953c3.271,0,6.582,0.238,9.827,0.953C282.063,156.329,247.57,126.482,208.672,126.482z
		 M224.58,174.763c-15.974-1.04-39.227,6.733-39.078,31.157c0.082,23.081,14.56,40.385,31.748,47.328
		c-0.361-5.809,0.033-12.243,0.953-18.734c-9.325-5.062-14.986-14.091-15.874-26.688c-1.076-14.001,12.834-28.146,34.937-20.969
		c3.574,1.134,3.698-5.033-0.295-8.282C234.341,176.521,229.879,175.124,224.58,174.763z M279.237,193.201
		c-2.802,0-5.456,0.09-7.953,0.329c0.648,2.473,1.125,4.975,1.281,6.968c1.603-0.086,3.36-0.058,5.062,0
		c4.7,0.238,9.055,0.986,13.048,2.235c0.148-2.621,0.058-5.123,0-7.625C286.886,193.916,283.049,193.233,279.237,193.201z
		 M271.612,210.357c-2.506,10.755-10.041,23.951-25.438,27.641c-0.361,2.235-0.715,4.322-0.624,5.719
		c0.181,2.95,0.805,7.058,2.53,11.438c26.358-4.823,37.673-23.319,41.313-42.266c-3.518-1.397-7.543-2.292-12.391-2.531
		C275.12,210.267,273.246,210.209,271.612,210.357z M228.064,238.326c-0.542,4.914-0.92,9.802-0.624,14.297
		c0.057,1.076,0.114,2.087,0.295,3.188c1.964,0.271,3.78,0.92,5.719,0.953c1.668,0,3.222-0.238,4.766-0.328
		c-1.544-4.379-2.621-8.545-2.859-12.062c-0.09-1.52-0.114-3.311,0-5.094C232.829,239.156,230.323,238.77,228.064,238.326z"/>
	<path fill="#CFD8DC" d="M353.334,126.63c12.694,30.414,29.489,57.22,29.851,106.963c0.386,51.345-43.967,84.557-79.052,84.557
		c-42.447,0-79.8-35.595-81.755-65.051c-1.792-26.597,7.739-65.289,56.974-65.022c23.499,0.152,47.928,20.431,48.042,50.635
		c0.181,32.587-40.984,35.799-51.345,27.493c-3.994-3.221-3.879-9.621-0.362-8.463c22.16,7.148,35.833-6.968,34.822-20.969
		c-1.372-19.087-12.752-30.41-33.154-31.33c-29.423-1.397-37.648,26.983-36.9,38.544c0.92,14.026,13.221,42.857,51.526,48.1
		c18.076,2.507,33.088-2.859,43.991-13.4c10.937-10.575,17.132-21.479,18.02-39.35c0.929-18.463-3.122-29.309-14.265-53.581
		c-3.993-8.697-15.102-26.121-23.737-43.638l37.377-15.488"/>
</g>
<g>
	<path fill="#263238" d="M437,14v347.922L300.922,498H195H75V14H437 M439,12H73v488h122h106.75L439,362.75V12L439,12z"/>
</g>
</svg>
