<?xml version="1.0" encoding="utf-8"?>
<!-- Generator: Adobe Illustrator 16.0.0, SVG Export Plug-In . SVG Version: 6.00 Build 0)  -->
<!DOCTYPE svg PUBLIC "-//W3C//DTD SVG 1.1//EN" "http://www.w3.org/Graphics/SVG/1.1/DTD/svg11.dtd">
<svg version="1.1" id="图层_1" xmlns="http://www.w3.org/2000/svg" xmlns:xlink="http://www.w3.org/1999/xlink" x="0px" y="0px"
	 width="512px" height="512px" viewBox="0 0 512 512" enable-background="new 0 0 512 512" xml:space="preserve">
<polygon opacity="0.08" enable-background="new    " points="68.2,512 68.2,8 451.801,8 451.801,369.913 309.714,512 "/>
<polygon opacity="0.1" enable-background="new    " points="72.2,508 72.2,12 447.801,12 447.801,368.256 308.057,508 "/>
<polygon opacity="0.2" enable-background="new    " points="68.2,504 68.2,8 443.801,8 443.801,364.256 304.058,504 "/>
<polygon fill="#455A64" points="72.199,500 72.199,12 438.793,12 438.793,362.597 301.776,500 "/>
<g>
	<g>
		<g>
			
				<linearGradient id="SVGID_1_" gradientUnits="userSpaceOnUse" x1="297.0959" y1="334.0994" x2="297.0959" y2="-149.9006" gradientTransform="matrix(1 0 0 -1 -41.6001 348.0991)">
				<stop  offset="0" style="stop-color:#90A4AE"/>
				<stop  offset="0.1378" style="stop-color:#849AA5"/>
				<stop  offset="0.4226" style="stop-color:#708A97"/>
				<stop  offset="0.7096" style="stop-color:#64808E"/>
				<stop  offset="1" style="stop-color:#607D8B"/>
			</linearGradient>
			<polygon fill="url(#SVGID_1_)" points="74.182,498 74.182,14 436.811,14 436.811,361.875 300.686,498 			"/>
		</g>
		<polygon fill="#455A64" fill-opacity="0.39" points="436.811,361.875 436.811,356.023 293.213,356.023 293.213,498 300.686,498 		
			"/>
		<path fill="#FFFFFF" fill-opacity="0.39" d="M300.461,361.875l136.35,0.18L300.686,498L300.461,361.875z"/>
	</g>
	<path opacity="0.8" fill="#FFFFFF" enable-background="new    " d="M340.164,264.666c0.225-0.597,0.629-1.014,0.855-1.609
		c0.404-1.002,0.99-2.015,1.395-3.027c0,0,0-0.18,0.18-0.18c2.611-5.458,4.457-11.322,6.078-17.151h22.777v-45.78h-22.777
		c-2.432-9.487-6.078-18.557-11.119-26.626l16.16-16.138l-32.455-32.456l-16.16,16.138c-8.283-5.042-17.332-8.89-27.234-11.31h0.225
		v-22.789h-45.792v22.789h0.18c-9.633,2.419-18.951,6.268-27.234,11.31l-16.127-16.138l-31.836,32.456l16.126,16.138
		c-4.839,8.069-8.677,17.139-11.085,26.626h-22.8v45.78h22.8c2.408,9.453,6.043,18.535,11.085,26.807l0,0l-16.126,16.16
		l32.467,32.433l16.126-16.115c8.26,5.042,17.331,8.869,26.829,11.074v22.8h45.792v-22.8l0,0l0,0
		c9.678-2.408,18.545-6.032,26.783-11.074l16.16,16.115l32.455-32.433l-16.16-16.16l0,0c0.631-0.991,1.035-1.801,1.666-2.825
		C339.578,266.084,339.985,265.487,340.164,264.666z M255.479,292.89c-40.513,0-73.205-32.861-73.205-73.195
		s32.872-73.194,73.205-73.194c8.058,0,15.767,1.193,23.015,3.624l0,0c29.213,9.678,50.191,37.115,50.191,69.571
		c0,2.025,0,4.04-0.182,5.863v0.191c-0.404,5.863-1.619,11.501-3.465,16.948c0,0.191-0.18,0.191-0.18,0.383
		c-1.217,3.432-2.611,6.865-4.232,9.892c0,0.191-0.225,0.416-0.225,0.596c-0.811,1.609-1.576,3.027-2.611,4.637
		c0,0.226-0.225,0.226-0.225,0.405c-0.99,1.418-1.756,2.836-2.791,4.254l-0.225,0.191c-0.99,1.418-2.025,2.836-3.197,4.039
		c-0.18,0.181-0.404,0.406-0.584,0.608c-2.252,2.61-4.637,5.042-7.293,7.271c-0.18,0.18-0.404,0.382-0.586,0.607
		c-1.215,0.99-2.654,2.205-4.051,3.016c-0.18,0.18-0.404,0.18-0.586,0.405c-1.215,1.013-2.609,1.8-3.871,2.61
		c-0.18,0.181-0.359,0.181-0.584,0.406c-1.441,0.81-2.791,1.619-4.232,2.408c-0.404,0.202-0.584,0.404-0.99,0.629
		c-1.439,0.789-3.016,1.373-4.457,2.004c-0.18,0-0.404,0.203-0.584,0.203c-1.441,0.607-2.836,1.012-4.277,1.598
		C271.83,291.472,263.74,292.89,255.479,292.89z"/>
</g>
</svg>
