<?xml version="1.0" encoding="utf-8"?>
<!-- Generator: Adobe Illustrator 21.0.0, SVG Export Plug-In . SVG Version: 6.00 Build 0)  -->
<svg version="1.1" id="图层_1" xmlns="http://www.w3.org/2000/svg" xmlns:xlink="http://www.w3.org/1999/xlink" x="0px" y="0px"
	 viewBox="0 0 512 512" style="enable-background:new 0 0 512 512;" xml:space="preserve">
<style type="text/css">
	.st0{opacity:0.08;enable-background:new    ;}
	.st1{opacity:0.1;enable-background:new    ;}
	.st2{opacity:0.2;enable-background:new    ;}
	.st3{fill:#AE2124;}
	.st4{fill:url(#SVGID_1_);}
	.st5{fill:#AE2124;fill-opacity:0.3922;}
	.st6{fill:#FFFFFF;fill-opacity:0.3922;}
	.st7{opacity:0.8;enable-background:new    ;}
	.st8{fill:#FFFFFF;}
	.st9{opacity:0.8;fill:#FFFFFF;enable-background:new    ;}
	.st10{enable-background:new    ;}
	.st11{fill:#E64A19;}
</style>
<polygon class="st0" points="68.2,512 68.2,8 451.8,8 451.8,369.9 309.7,512 "/>
<polygon class="st1" points="72.2,508 72.2,12 447.8,12 447.8,368.3 308.1,508 "/>
<polygon class="st2" points="68.2,504 68.2,8 443.8,8 443.8,364.3 304.1,504 "/>
<polygon class="st3" points="72.2,500 72.2,12 438.8,12 438.8,362.6 301.8,500 "/>
<g>
	<g>
		<g>
			
				<linearGradient id="SVGID_1_" gradientUnits="userSpaceOnUse" x1="338.6997" y1="-822.8013" x2="338.6997" y2="-338.8013" gradientTransform="matrix(1 0 0 -1 -83.1997 -324.8013)">
				<stop  offset="0" style="stop-color:#C7312F"/>
				<stop  offset="0.1635" style="stop-color:#D9412C"/>
				<stop  offset="0.3476" style="stop-color:#E74E29"/>
				<stop  offset="0.5725" style="stop-color:#EA552A"/>
				<stop  offset="0.9516" style="stop-color:#EA582B"/>
			</linearGradient>
			<polygon class="st4" points="74.2,498 74.2,14 436.8,14 436.8,361.9 300.7,498 			"/>
		</g>
		<polygon class="st5" points="436.8,361.9 436.8,356 293.2,356 293.2,498 300.7,498 		"/>
		<path class="st6" d="M300.5,361.9l136.3,0.2L300.7,498L300.5,361.9z"/>
	</g>
	<g class="st7">
		<g>
			<path class="st8" d="M301.1,152.2c0.6,0.2,1.4,0.2,2,0.4C302.5,152.4,301.7,152.2,301.1,152.2z"/>
			<path class="st8" d="M296,151.4c0.8,0,1.4,0.2,2.2,0.2C297.4,151.6,296.8,151.6,296,151.4z"/>
			<path class="st8" d="M305.9,152.9c0.6,0.2,1.2,0.2,1.9,0.4C307.1,153.1,306.5,152.9,305.9,152.9z"/>
			<path class="st8" d="M310.7,153.7c0.6,0.2,1.2,0.2,1.6,0.4C311.8,154,311.4,153.7,310.7,153.7z"/>
			<path class="st8" d="M290.8,150.7c0.8,0,1.6,0.2,2.4,0.2C292.4,150.9,291.6,150.7,290.8,150.7z"/>
			<path class="st8" d="M319.8,155.8c0.4,0.2,0.8,0.2,1.4,0.4C320.6,156,320.2,155.8,319.8,155.8z"/>
			<path class="st8" d="M315.4,154.8c0.4,0.2,1,0.2,1.4,0.4C316.4,155,315.8,154.8,315.4,154.8z"/>
			<path class="st8" d="M147.4,177.7L147.4,177.7L147.4,177.7z"/>
			<path class="st8" d="M263,148.9c1.2,0,2.6,0,3.8,0C265.6,148.9,264.2,148.9,263,148.9z"/>
			<path class="st8" d="M324.1,156.8c0.4,0.2,0.8,0.2,1.2,0.4C324.9,157,324.5,157,324.1,156.8z"/>
			<path class="st8" d="M285.6,150.1c0.8,0,1.6,0.2,2.4,0.2C287.4,150.3,286.6,150.3,285.6,150.1z"/>
			<path class="st8" d="M244.2,148.9c1.2,0,2.4,0,3.8,0C246.8,148.9,245.4,148.9,244.2,148.9z"/>
			<path class="st8" d="M274.7,149.3c1,0,2,0.2,3,0.2C276.7,149.5,275.7,149.3,274.7,149.3z"/>
			<path class="st8" d="M280.3,149.7c1,0,1.8,0.2,2.8,0.2C282.1,149.9,281.1,149.7,280.3,149.7z"/>
			<path class="st8" d="M349.1,166.3c0,0,0.2,0,0.2,0.2C349.3,166.3,349.1,166.3,349.1,166.3z"/>
			<path class="st8" d="M358.8,172.7L358.8,172.7L358.8,172.7z"/>
			<path class="st8" d="M351.9,167.7C351.9,167.7,351.9,167.9,351.9,167.7C351.9,167.9,351.9,167.7,351.9,167.7z"/>
			<path class="st8" d="M354.3,169.3C354.5,169.3,354.5,169.3,354.3,169.3C354.5,169.3,354.5,169.3,354.3,169.3z"/>
			<path class="st8" d="M328.3,158c0.4,0,0.6,0.2,1,0.2C328.9,158.2,328.5,158,328.3,158z"/>
			<path class="st8" d="M360.6,174.3L360.6,174.3L360.6,174.3z"/>
			<path class="st8" d="M255.5,148.7c-1.8,0-3.8,0-5.6,0C251.7,148.7,253.7,148.7,255.5,148.7z"/>
			<path class="st8" d="M356.7,170.9L356.7,170.9L356.7,170.9z"/>
			<path class="st8" d="M339.6,161.8c0.2,0,0.4,0.2,0.6,0.2C340,162.1,339.8,161.8,339.6,161.8z"/>
			<path class="st8" d="M255.5,148.7c1.8,0,3.8,0,5.6,0C259.3,148.7,257.3,148.7,255.5,148.7z"/>
			<path class="st8" d="M332.1,159.2c0.2,0,0.6,0.2,0.8,0.2C332.7,159.4,332.5,159.2,332.1,159.2z"/>
			<path class="st8" d="M336,160.4c0.2,0,0.4,0.2,0.6,0.2C336.4,160.6,336.2,160.6,336,160.4z"/>
			<path class="st8" d="M343,163.2c0.2,0,0.4,0.2,0.4,0.2C343.2,163.4,343,163.2,343,163.2z"/>
			<path class="st8" d="M346.1,164.7c0.2,0,0.2,0.2,0.4,0.2C346.4,164.9,346.2,164.7,346.1,164.7z"/>
			<path class="st8" d="M269,149.1c1,0,2.2,0,3.2,0.2C271.3,149.1,270,149.1,269,149.1z"/>
			<path class="st8" d="M161.7,166.3c0.2,0,0.2-0.2,0.4-0.2C161.9,166.3,161.7,166.3,161.7,166.3z"/>
			<path class="st8" d="M158.9,167.9c0,0,0.2,0,0.2-0.2C159.1,167.7,159.1,167.9,158.9,167.9z"/>
			<path class="st8" d="M156.5,169.5C156.5,169.3,156.7,169.3,156.5,169.5C156.7,169.3,156.5,169.3,156.5,169.5z"/>
			<path class="st8" d="M164.6,164.9c0.2,0,0.2-0.2,0.4-0.2C164.7,164.7,164.6,164.9,164.6,164.9z"/>
			<path class="st8" d="M170.8,162.1c0.2,0,0.4-0.2,0.6-0.2C171.2,161.8,171,162.1,170.8,162.1z"/>
			<path class="st8" d="M167.6,163.4c0.2,0,0.4-0.2,0.6-0.2C168,163.2,167.8,163.4,167.6,163.4z"/>
			<path class="st8" d="M238.8,149.1c1,0,2.2,0,3.2-0.2C241,149.1,239.7,149.1,238.8,149.1z"/>
			<path class="st8" d="M255.5,223.9c-61.3,0-110.9-16.7-110.9-37.5v33.9c0,20.8,49.6,37.5,110.9,37.5s110.9-16.7,110.9-37.5l0,0
				v-33.9C366.4,207,316.8,223.9,255.5,223.9z"/>
			<path class="st8" d="M144.6,185.2v1.2C144.6,186,144.6,185.6,144.6,185.2L144.6,185.2z"/>
			<path class="st8" d="M174.2,160.8c0.2,0,0.6-0.2,0.8-0.2C174.8,160.6,174.6,160.6,174.2,160.8z"/>
			<path class="st8" d="M152.3,172.7L152.3,172.7L152.3,172.7z"/>
			<path class="st8" d="M366.4,185.2c0,0.4,0,0.8,0,1.2V185.2L366.4,185.2z"/>
			<path class="st8" d="M148.8,176.2L148.8,176.2L148.8,176.2z"/>
			<path class="st8" d="M150.4,174.3L150.4,174.3L150.4,174.3z"/>
			<path class="st8" d="M154.3,171.1C154.3,170.9,154.3,170.9,154.3,171.1C154.3,170.9,154.3,170.9,154.3,171.1z"/>
			<path class="st8" d="M217.8,150.9c0.8,0,1.6-0.2,2.4-0.2C219.4,150.7,218.6,150.9,217.8,150.9z"/>
			<path class="st8" d="M212.8,151.7c0.8-0.2,1.4-0.2,2.2-0.2C214.2,151.6,213.6,151.6,212.8,151.7z"/>
			<path class="st8" d="M222.8,150.3c0.8,0,1.6-0.2,2.6-0.2C224.4,150.3,223.6,150.3,222.8,150.3z"/>
			<path class="st8" d="M177.9,159.4c0.2,0,0.6-0.2,0.8-0.2C178.5,159.2,178.3,159.4,177.9,159.4z"/>
			<path class="st8" d="M233.3,149.5c1,0,2-0.2,3-0.2C235.3,149.3,234.3,149.5,233.3,149.5z"/>
			<path class="st8" d="M207.9,152.4c0.6-0.2,1.4-0.2,2-0.4C209.3,152.2,208.5,152.4,207.9,152.4z"/>
			<path class="st8" d="M228.1,149.9c1,0,1.8-0.2,2.8-0.2C229.9,149.7,228.9,149.9,228.1,149.9z"/>
			<path class="st8" d="M185.7,157.2c0.4-0.2,0.8-0.2,1.2-0.4C186.5,157,186.1,157,185.7,157.2z"/>
			<path class="st8" d="M181.7,158.2c0.4-0.2,0.6-0.2,1-0.4C182.5,158,182.1,158.2,181.7,158.2z"/>
			<path class="st8" d="M189.7,156c0.4-0.2,1-0.2,1.4-0.4C190.7,155.8,190.4,156,189.7,156z"/>
			<path class="st8" d="M194.2,155c0.6-0.2,1-0.2,1.6-0.4C195.2,154.8,194.6,155,194.2,155z"/>
			<path class="st8" d="M198.6,154.2c0.6-0.2,1.2-0.2,1.8-0.4C199.6,153.7,199.2,154,198.6,154.2z"/>
			<path class="st8" d="M203.3,153.1c0.6-0.2,1.2-0.2,1.8-0.4C204.4,152.9,203.9,153.1,203.3,153.1z"/>
		</g>
		<g>
			<path class="st8" d="M301.1,191.5c0.6,0.2,1.4,0.2,2,0.4C302.5,191.7,301.7,191.7,301.1,191.5z"/>
			<path class="st8" d="M296,190.9c0.8,0,1.4,0.2,2.2,0.2C297.4,190.9,296.8,190.9,296,190.9z"/>
			<path class="st8" d="M305.9,192.3c0.6,0.2,1.2,0.2,1.9,0.4C307.1,192.5,306.5,192.5,305.9,192.3z"/>
			<path class="st8" d="M310.7,193.1c0.6,0.2,1.2,0.2,1.6,0.4C311.8,193.3,311.4,193.3,310.7,193.1z"/>
			<path class="st8" d="M290.8,190c0.8,0,1.6,0.2,2.4,0.2C292.4,190.3,291.6,190.3,290.8,190z"/>
			<path class="st8" d="M319.8,195.1c0.4,0.2,0.8,0.2,1.4,0.4C320.6,195.3,320.2,195.3,319.8,195.1z"/>
			<path class="st8" d="M315.4,194.1c0.4,0.2,1,0.2,1.4,0.4C316.4,194.3,315.8,194.3,315.4,194.1z"/>
			<path class="st8" d="M147.4,217.3L147.4,217.3L147.4,217.3z"/>
			<path class="st8" d="M263,188.2c1.2,0,2.6,0,3.8,0C265.6,188.2,264.2,188.2,263,188.2z"/>
			<path class="st8" d="M324.1,196.3c0.4,0.2,0.8,0.2,1.2,0.4C324.9,196.5,324.5,196.3,324.1,196.3z"/>
			<path class="st8" d="M285.6,189.7c0.8,0,1.6,0.2,2.4,0.2C287.4,189.7,286.6,189.7,285.6,189.7z"/>
			<path class="st8" d="M244.2,188.4c1.2,0,2.4,0,3.8,0C246.8,188.2,245.4,188.2,244.2,188.4z"/>
			<path class="st8" d="M274.7,188.6c1,0,2,0.2,3,0.2C276.7,188.9,275.7,188.9,274.7,188.6z"/>
			<path class="st8" d="M280.3,189.1c1,0,1.8,0.2,2.8,0.2C282.1,189.2,281.1,189.2,280.3,189.1z"/>
			<path class="st8" d="M349.1,205.6c0,0,0.2,0,0.2,0.2C349.3,205.6,349.1,205.6,349.1,205.6z"/>
			<path class="st8" d="M358.8,212.1L358.8,212.1L358.8,212.1z"/>
			<path class="st8" d="M351.9,207.2L351.9,207.2L351.9,207.2z"/>
			<path class="st8" d="M354.3,208.8C354.5,208.8,354.5,208.8,354.3,208.8C354.5,208.8,354.5,208.8,354.3,208.8z"/>
			<path class="st8" d="M328.3,197.3c0.4,0,0.6,0.2,1,0.2C328.9,197.5,328.5,197.5,328.3,197.3z"/>
			<path class="st8" d="M360.6,213.6L360.6,213.6L360.6,213.6z"/>
			<path class="st8" d="M255.5,188.2c-1.8,0-3.8,0-5.6,0C251.7,188.2,253.7,188.2,255.5,188.2z"/>
			<path class="st8" d="M356.7,210.4L356.7,210.4L356.7,210.4z"/>
			<path class="st8" d="M339.6,201.2c0.2,0,0.4,0.2,0.6,0.2C340,201.4,339.8,201.4,339.6,201.2z"/>
			<path class="st8" d="M255.5,188.2c1.8,0,3.8,0,5.6,0C259.3,188.2,257.3,188.2,255.5,188.2z"/>
			<path class="st8" d="M332.1,198.5c0.2,0,0.6,0.2,0.8,0.2C332.7,198.7,332.5,198.7,332.1,198.5z"/>
			<path class="st8" d="M336,199.9c0.2,0,0.4,0.2,0.6,0.2C336.4,200.1,336.2,199.9,336,199.9z"/>
			<path class="st8" d="M343,202.6c0.2,0,0.4,0.2,0.4,0.2C343.2,202.8,343,202.8,343,202.6z"/>
			<path class="st8" d="M346.1,204.2c0.2,0,0.2,0.2,0.4,0.2C346.4,204.2,346.2,204.2,346.1,204.2z"/>
			<path class="st8" d="M269,188.4c1,0,2.2,0,3.2,0.2C271.3,188.4,270,188.4,269,188.4z"/>
			<path class="st8" d="M161.7,205.8c0.2,0,0.2-0.2,0.4-0.2C161.9,205.6,161.7,205.6,161.7,205.8z"/>
			<path class="st8" d="M158.9,207.2c0,0,0.2,0,0.2-0.2C159.1,207.2,159.1,207.2,158.9,207.2z"/>
			<path class="st8" d="M156.5,208.8C156.5,208.8,156.7,208.8,156.5,208.8C156.7,208.8,156.5,208.8,156.5,208.8z"/>
			<path class="st8" d="M164.6,204.2c0.2,0,0.2-0.2,0.4-0.2C164.7,204.2,164.6,204.2,164.6,204.2z"/>
			<path class="st8" d="M170.8,201.6c0.2,0,0.4-0.2,0.6-0.2C171.2,201.4,171,201.4,170.8,201.6z"/>
			<path class="st8" d="M167.6,202.8c0.2,0,0.4-0.2,0.6-0.2C168,202.8,167.8,202.8,167.6,202.8z"/>
			<path class="st8" d="M238.8,188.6c1,0,2.2,0,3.2-0.2C241,188.4,239.7,188.4,238.8,188.6z"/>
			<path class="st8" d="M255.5,263.3c-61.3,0-110.9-16.7-110.9-37.5v33.9c0,20.7,49.6,37.5,110.9,37.5s110.9-16.8,110.9-37.5l0,0
				v-33.9C366.4,246.5,316.8,263.3,255.5,263.3z"/>
			<path class="st8" d="M144.6,224.6v1.2C144.6,225.4,144.6,224.9,144.6,224.6L144.6,224.6z"/>
			<path class="st8" d="M174.2,200.1c0.2,0,0.6-0.2,0.8-0.2C174.8,199.9,174.6,200.1,174.2,200.1z"/>
			<path class="st8" d="M152.3,212.1L152.3,212.1L152.3,212.1z"/>
			<path class="st8" d="M366.4,224.6c0,0.4,0,0.8,0,1.2V224.6L366.4,224.6z"/>
			<path class="st8" d="M148.8,215.5L148.8,215.5L148.8,215.5z"/>
			<path class="st8" d="M150.4,213.9C150.4,213.6,150.4,213.6,150.4,213.9C150.4,213.6,150.4,213.6,150.4,213.9z"/>
			<path class="st8" d="M154.3,210.4L154.3,210.4L154.3,210.4z"/>
			<path class="st8" d="M217.8,190.5c0.8,0,1.6-0.2,2.4-0.2C219.4,190.3,218.6,190.3,217.8,190.5z"/>
			<path class="st8" d="M212.8,191.1c0.8-0.2,1.4-0.2,2.2-0.2C214.2,190.9,213.6,190.9,212.8,191.1z"/>
			<path class="st8" d="M222.8,189.9c0.8,0,1.6-0.2,2.6-0.2C224.4,189.7,223.6,189.7,222.8,189.9z"/>
			<path class="st8" d="M177.9,198.9c0.2,0,0.6-0.2,0.8-0.2C178.5,198.7,178.3,198.7,177.9,198.9z"/>
			<path class="st8" d="M233.3,188.9c1,0,2-0.2,3-0.2C235.3,188.9,234.3,188.9,233.3,188.9z"/>
			<path class="st8" d="M207.9,191.9c0.6-0.2,1.4-0.2,2-0.4C209.3,191.7,208.5,191.7,207.9,191.9z"/>
			<path class="st8" d="M228.1,189.2c0.8,0,1.8-0.2,2.8-0.2C229.9,189.2,228.9,189.2,228.1,189.2z"/>
			<path class="st8" d="M185.7,196.5c0.4-0.2,0.8-0.2,1.2-0.4C186.5,196.3,186.1,196.5,185.7,196.5z"/>
			<path class="st8" d="M181.7,197.7c0.4-0.2,0.6-0.2,1-0.4C182.5,197.5,182.1,197.5,181.7,197.7z"/>
			<path class="st8" d="M189.7,195.5c0.4-0.2,1-0.2,1.4-0.4C190.7,195.3,190.4,195.3,189.7,195.5z"/>
			<path class="st8" d="M194.2,194.5c0.6-0.2,1-0.2,1.6-0.4C195.2,194.3,194.6,194.3,194.2,194.5z"/>
			<path class="st8" d="M198.6,193.5c0.6-0.2,1.2-0.2,1.8-0.4C199.6,193.3,199.2,193.3,198.6,193.5z"/>
			<path class="st8" d="M203.3,192.7c0.6-0.2,1.2-0.2,1.8-0.4C204.4,192.5,203.9,192.5,203.3,192.7z"/>
		</g>
		<g>
			<path class="st8" d="M301.1,230.8c0.6,0.2,1.4,0.2,2,0.4C302.5,231,301.7,231,301.1,230.8z"/>
			<path class="st8" d="M296,230.2c0.8,0,1.4,0.2,2.2,0.2C297.4,230.4,296.8,230.2,296,230.2z"/>
			<path class="st8" d="M305.9,231.6c0.6,0.2,1.2,0.2,1.9,0.4C307.1,231.8,306.5,231.8,305.9,231.6z"/>
			<path class="st8" d="M310.7,232.6c0.6,0.2,1.2,0.2,1.6,0.4C311.8,232.8,311.4,232.6,310.7,232.6z"/>
			<path class="st8" d="M290.8,229.6c0.8,0,1.6,0.2,2.4,0.2C292.4,229.8,291.6,229.6,290.8,229.6z"/>
			<path class="st8" d="M319.8,234.6c0.4,0.2,0.8,0.2,1.4,0.4C320.6,234.8,320.2,234.6,319.8,234.6z"/>
			<path class="st8" d="M315.4,233.4c0.4,0.2,1,0.2,1.4,0.4C316.4,233.8,315.8,233.6,315.4,233.4z"/>
			<path class="st8" d="M147.4,256.6L147.4,256.6L147.4,256.6z"/>
			<path class="st8" d="M263,227.6c1.2,0,2.6,0,3.8,0C265.6,227.8,264.2,227.8,263,227.6z"/>
			<path class="st8" d="M324.1,235.6c0.4,0.2,0.8,0.2,1.2,0.4C324.9,235.8,324.5,235.8,324.1,235.6z"/>
			<path class="st8" d="M285.6,229c0.8,0,1.6,0.2,2.4,0.2C287.4,229.2,286.6,229,285.6,229z"/>
			<path class="st8" d="M244.2,227.8c1.2,0,2.4,0,3.8,0C246.8,227.8,245.4,227.8,244.2,227.8z"/>
			<path class="st8" d="M274.7,228.2c1,0,2,0.2,3,0.2C276.7,228.2,275.7,228.2,274.7,228.2z"/>
			<path class="st8" d="M280.3,228.6c1,0,1.8,0.2,2.8,0.2C282.1,228.6,281.1,228.6,280.3,228.6z"/>
			<path class="st8" d="M349.1,244.9c0,0,0.2,0,0.2,0.2C349.3,245.1,349.1,245.1,349.1,244.9z"/>
			<path class="st8" d="M358.8,251.4L358.8,251.4L358.8,251.4z"/>
			<path class="st8" d="M351.9,246.5L351.9,246.5L351.9,246.5z"/>
			<path class="st8" d="M354.3,248.2C354.5,248.2,354.5,248.2,354.3,248.2C354.5,248.2,354.5,248.2,354.3,248.2z"/>
			<path class="st8" d="M328.3,236.9c0.4,0,0.6,0.2,1,0.2C328.9,237.1,328.5,236.9,328.3,236.9z"/>
			<path class="st8" d="M360.6,253.2L360.6,253.2L360.6,253.2z"/>
			<path class="st8" d="M255.5,227.6c-1.8,0-3.8,0-5.6,0C251.7,227.6,253.7,227.6,255.5,227.6z"/>
			<path class="st8" d="M356.7,249.7L356.7,249.7L356.7,249.7z"/>
			<path class="st8" d="M339.6,240.7c0.2,0,0.4,0.2,0.6,0.2C340,240.9,339.8,240.7,339.6,240.7z"/>
			<path class="st8" d="M255.5,227.6c1.8,0,3.8,0,5.6,0C259.3,227.6,257.3,227.6,255.5,227.6z"/>
			<path class="st8" d="M332.1,238.1c0.2,0,0.6,0.2,0.8,0.2C332.7,238.2,332.5,238.1,332.1,238.1z"/>
			<path class="st8" d="M336,239.3c0.2,0,0.4,0.2,0.6,0.2C336.4,239.5,336.2,239.5,336,239.3z"/>
			<path class="st8" d="M343,242.1c0.2,0,0.4,0.2,0.4,0.2C343.2,242.1,343,242.1,343,242.1z"/>
			<path class="st8" d="M346.1,243.5c0.2,0,0.2,0.2,0.4,0.2C346.4,243.7,346.2,243.5,346.1,243.5z"/>
			<path class="st8" d="M269,227.8c1,0,2.2,0,3.2,0.2C271.3,228,270,228,269,227.8z"/>
			<path class="st8" d="M161.7,245.1c0.2,0,0.2-0.2,0.4-0.2C161.9,245.1,161.7,245.1,161.7,245.1z"/>
			<path class="st8" d="M158.9,246.7c0,0,0.2,0,0.2-0.2C159.1,246.5,159.1,246.5,158.9,246.7z"/>
			<path class="st8" d="M156.5,248.2C156.5,248.2,156.7,248.2,156.5,248.2C156.7,248.2,156.5,248.2,156.5,248.2z"/>
			<path class="st8" d="M164.6,243.7c0.2,0,0.2-0.2,0.4-0.2C164.7,243.5,164.6,243.7,164.6,243.7z"/>
			<path class="st8" d="M170.8,240.9c0.2,0,0.4-0.2,0.6-0.2C171.2,240.7,171,240.9,170.8,240.9z"/>
			<path class="st8" d="M167.6,242.3c0.2,0,0.4-0.2,0.6-0.2C168,242.1,167.8,242.1,167.6,242.3z"/>
			<path class="st8" d="M238.8,228c1,0,2.2,0,3.2-0.2C241,228,239.7,228,238.8,228z"/>
			<path class="st8" d="M255.5,302.8c-61.3,0-110.9-16.8-110.9-37.6v33.9c0,20.7,49.6,37.5,110.9,37.5s110.9-16.8,110.9-37.5l0,0
				v-33.9C366.4,285.9,316.8,302.8,255.5,302.8z"/>
			<path class="st8" d="M144.6,264.1v1.2C144.6,264.9,144.6,264.5,144.6,264.1L144.6,264.1z"/>
			<path class="st8" d="M174.2,239.5c0.2,0,0.6-0.2,0.8-0.2C174.8,239.5,174.6,239.5,174.2,239.5z"/>
			<path class="st8" d="M152.3,251.6C152.3,251.4,152.3,251.4,152.3,251.6C152.3,251.4,152.3,251.4,152.3,251.6z"/>
			<path class="st8" d="M366.4,264.1c0,0.4,0,0.8,0,1.2V264.1L366.4,264.1z"/>
			<path class="st8" d="M148.8,255C148.8,254.8,148.8,254.8,148.8,255C148.8,254.8,148.8,254.8,148.8,255z"/>
			<path class="st8" d="M150.4,253.2L150.4,253.2L150.4,253.2z"/>
			<path class="st8" d="M154.3,249.7L154.3,249.7L154.3,249.7z"/>
			<path class="st8" d="M217.8,229.8c0.8,0,1.6-0.2,2.4-0.2C219.4,229.6,218.6,229.8,217.8,229.8z"/>
			<path class="st8" d="M212.8,230.4c0.8-0.2,1.4-0.2,2.2-0.2C214.2,230.2,213.6,230.4,212.8,230.4z"/>
			<path class="st8" d="M222.8,229.2c0.8,0,1.6-0.2,2.6-0.2C224.4,229,223.6,229.2,222.8,229.2z"/>
			<path class="st8" d="M177.9,238.2c0.2,0,0.6-0.2,0.8-0.2C178.5,238.1,178.3,238.2,177.9,238.2z"/>
			<path class="st8" d="M233.3,228.4c1,0,2-0.2,3-0.2C235.3,228.2,234.3,228.2,233.3,228.4z"/>
			<path class="st8" d="M207.9,231.2c0.6-0.2,1.4-0.2,2-0.4C209.3,231,208.5,231,207.9,231.2z"/>
			<path class="st8" d="M228.1,228.8c0.8,0,1.8-0.2,2.8-0.2C229.9,228.6,228.9,228.6,228.1,228.8z"/>
			<path class="st8" d="M185.7,236.1c0.4-0.2,0.8-0.2,1.2-0.4C186.5,235.6,186.1,235.8,185.7,236.1z"/>
			<path class="st8" d="M181.7,237.1c0.4-0.2,0.6-0.2,1-0.4C182.5,236.9,182.1,237.1,181.7,237.1z"/>
			<path class="st8" d="M189.7,234.8c0.4-0.2,1-0.2,1.4-0.4C190.7,234.6,190.4,234.8,189.7,234.8z"/>
			<path class="st8" d="M194.2,233.8c0.6-0.2,1-0.2,1.6-0.4C195.2,233.6,194.6,233.8,194.2,233.8z"/>
			<path class="st8" d="M198.6,232.8c0.6-0.2,1.2-0.2,1.8-0.4C199.6,232.6,199.2,232.8,198.6,232.8z"/>
			<path class="st8" d="M203.3,232c0.6-0.2,1.2-0.2,1.8-0.4C204.4,231.8,203.9,231.8,203.3,232z"/>
		</g>
		<path class="st8" d="M255.5,142.9c61.3,0,110.9,16.8,110.9,37.5s-49.7,37.5-110.9,37.5c-61.3,0-110.9-16.8-110.9-37.5
			C144.5,159.7,194.2,142.9,255.5,142.9z"/>
	</g>
	<g>
		<rect x="74.1" y="14" class="st9" width="362.8" height="92.8"/>
		<g class="st10">
			<path class="st11" d="M215.8,59.8c0,6.2-1,11.6-2.9,16.3s-4.6,8.6-7.9,11.8c-3.4,3.2-7.4,5.5-12,7.1c-4.7,1.6-9.6,2.4-15,2.4
				c-5.2,0-10.1-0.8-14.7-2.4c-4.6-1.6-8.6-4-12.1-7.1c-3.4-3.2-6.1-7.1-8.1-11.8c-2-4.7-3-10.1-3-16.3s1-11.6,3.1-16.3
				s4.8-8.6,8.3-11.8s7.5-5.6,12.1-7.2s9.4-2.4,14.4-2.4c5.2,0,10.1,0.8,14.7,2.4c4.6,1.6,8.6,4,12.1,7.2c3.4,3.2,6.1,7.2,8.1,11.8
				C214.8,48.2,215.8,53.6,215.8,59.8z M157.7,59.8c0,3.5,0.5,6.8,1.4,9.6c0.9,2.9,2.2,5.3,3.9,7.4s3.8,3.6,6.3,4.8
				c2.5,1.1,5.4,1.7,8.6,1.7c3.2,0,6-0.6,8.5-1.7c2.6-1.1,4.7-2.7,6.4-4.8c1.7-2,3-4.5,3.9-7.4c0.9-2.8,1.4-6,1.4-9.6
				s-0.5-6.8-1.4-9.6c-0.9-2.9-2.2-5.4-3.9-7.4s-3.8-3.6-6.4-4.8c-2.5-1.1-5.4-1.7-8.5-1.7c-3.2,0-6.1,0.6-8.6,1.7s-4.6,2.7-6.3,4.8
				s-3,4.5-3.9,7.4C158.1,53.2,157.7,56.3,157.7,59.8z"/>
			<path class="st11" d="M296.7,59.8c0,6.3-1,11.7-3.1,16.4c-2,4.7-5,8.5-8.7,11.6s-8.4,5.4-13.8,6.9S259.6,97,252.8,97
				c-3.1,0-6.6-0.1-10.7-0.4c-4.1-0.2-8.1-0.7-12.1-1.5V24.6c3.9-0.7,8.1-1.2,12.4-1.4c4.3-0.2,7.9-0.4,11-0.4
				c6.6,0,12.4,0.7,17.8,2.1c5.3,1.4,9.8,3.6,13.7,6.6c3.8,3,6.7,6.8,8.8,11.5C295.6,47.7,296.7,53.3,296.7,59.8z M247.1,82.8
				c0.8,0.1,1.7,0.1,2.8,0.2c1,0,2.3,0,3.8,0c8.6,0,14.9-2,19.1-6.1c4.1-4.1,6.2-9.8,6.2-17c0-7.6-2-13.3-5.9-17.2
				s-10.2-5.8-18.8-5.8c-1.1,0-2.4,0-3.6,0c-1.3,0-2.4,0.1-3.5,0.3L247.1,82.8L247.1,82.8z"/>
			<path class="st11" d="M336.3,97c-4.2,0-8.3-0.1-12.5-0.4c-4.1-0.2-8.4-0.8-12.9-1.7V24.7c3.5-0.6,7.3-1.1,11.5-1.4
				s8.1-0.5,11.7-0.5c4.9,0,9.3,0.3,13.4,1c4,0.7,7.6,1.8,10.5,3.4s5.2,3.7,6.9,6.3s2.5,5.8,2.5,9.6c0,5.8-2.9,10.3-8.8,13.7
				c4.8,1.7,8.1,4.1,9.9,7.1c1.7,3,2.6,6.4,2.6,10.1c0,7.6-2.9,13.3-8.7,17.1C356.5,95,347.8,97,336.3,97z M327.6,52.1h8.4
				c5.2,0,9-0.6,11.3-1.9s3.4-3.4,3.4-6.2c0-2.9-1.2-5-3.5-6.2c-2.4-1.2-5.8-1.8-10.3-1.8c-1.5,0-3,0-4.7,0s-3.2,0.1-4.5,0.3
				L327.6,52.1L327.6,52.1z M327.6,64.5v18.7c1.3,0.1,2.6,0.2,4.1,0.3c1.5,0.1,3.1,0.1,4.8,0.1c5.1,0,9.2-0.7,12.4-2.1
				c3.2-1.4,4.7-4,4.7-7.7c0-3.3-1.3-5.7-3.9-7.2c-2.6-1.4-6.4-2.1-11.3-2.1L327.6,64.5L327.6,64.5z"/>
		</g>
	</g>
</g>
</svg>
