<?xml version="1.0" encoding="utf-8"?>
<!-- Generator: Adobe Illustrator 21.0.0, SVG Export Plug-In . SVG Version: 6.00 Build 0)  -->
<svg version="1.1" id="图层_1" xmlns="http://www.w3.org/2000/svg" xmlns:xlink="http://www.w3.org/1999/xlink" x="0px" y="0px"
	 viewBox="0 0 512 512" style="enable-background:new 0 0 512 512;" xml:space="preserve">
<style type="text/css">
	.st0{opacity:0.08;enable-background:new    ;}
	.st1{opacity:0.1;enable-background:new    ;}
	.st2{opacity:0.2;enable-background:new    ;}
	.st3{fill:#0D47A1;}
	.st4{fill:url(#SVGID_1_);}
	.st5{fill:#2196F3;fill-opacity:0.7;}
	.st6{opacity:0.39;fill:#FFFFFF;enable-background:new    ;}
	.st7{opacity:0.8;}
	.st8{opacity:0.8;fill:url(#SVGID_2_);enable-background:new    ;}
	.st9{opacity:0.8;fill:url(#SVGID_3_);enable-background:new    ;}
	.st10{opacity:0.8;fill:url(#SVGID_4_);enable-background:new    ;}
	.st11{fill:url(#SVGID_5_);}
	.st12{fill:url(#SVGID_6_);}
	.st13{fill:url(#SVGID_7_);}
	.st14{fill:url(#SVGID_8_);}
	.st15{opacity:0.8;fill:#FFFFFF;enable-background:new    ;}
	.st16{fill:#1976D2;}
</style>
<polygon class="st0" points="68.2,512 68.2,8 451.8,8 451.8,369.9 309.7,512 "/>
<polygon class="st1" points="72.2,508 72.2,12 447.8,12 447.8,368.3 308.1,508 "/>
<polygon class="st2" points="68.2,504 68.2,8 443.8,8 443.8,364.3 304.1,504 "/>
<polygon class="st3" points="72.2,500 72.2,12 438.8,12 438.8,362.6 301.8,500 "/>
<g>
	<g>
		<g>
			<g>
				
					<linearGradient id="SVGID_1_" gradientUnits="userSpaceOnUse" x1="255.65" y1="776" x2="255.65" y2="292" gradientTransform="matrix(1 0 0 1 0 -278)">
					<stop  offset="0" style="stop-color:#3F51B5"/>
					<stop  offset="1" style="stop-color:#64B5F6"/>
				</linearGradient>
				<polygon class="st4" points="74.3,498 74.3,14 437,14 437,361.9 300.8,498 				"/>
			</g>
			<polygon class="st5" points="437,361.9 437,356 293.4,356 293.4,498 300.8,498 			"/>
			<path class="st6" d="M300.7,361.9l136.3,0.2L300.8,498L300.7,361.9z"/>
		</g>
		<g class="st7">
			
				<linearGradient id="SVGID_2_" gradientUnits="userSpaceOnUse" x1="128.1" y1="457.1" x2="383" y2="457.1" gradientTransform="matrix(1 0 0 1 0 -278)">
				<stop  offset="0" style="stop-color:#F6F5F5"/>
				<stop  offset="0.341" style="stop-color:#F1F2F3"/>
				<stop  offset="0.6434" style="stop-color:#E7EAEB"/>
				<stop  offset="0.9302" style="stop-color:#D5DBDF"/>
				<stop  offset="1" style="stop-color:#CFD7DB"/>
			</linearGradient>
			<rect x="128.1" y="172.8" class="st8" width="254.9" height="12.6"/>
			
				<linearGradient id="SVGID_3_" gradientUnits="userSpaceOnUse" x1="128.1" y1="417.7" x2="383" y2="417.7" gradientTransform="matrix(1 0 0 1 0 -278)">
				<stop  offset="0" style="stop-color:#F6F5F5"/>
				<stop  offset="0.341" style="stop-color:#F1F2F3"/>
				<stop  offset="0.6434" style="stop-color:#E7EAEB"/>
				<stop  offset="0.9302" style="stop-color:#D5DBDF"/>
				<stop  offset="1" style="stop-color:#CFD7DB"/>
			</linearGradient>
			<rect x="128.1" y="133.4" class="st9" width="254.9" height="12.6"/>
			
				<linearGradient id="SVGID_4_" gradientUnits="userSpaceOnUse" x1="249.7" y1="554.45" x2="382.8" y2="554.45" gradientTransform="matrix(1 0 0 1 0 -278)">
				<stop  offset="0" style="stop-color:#F6F5F5"/>
				<stop  offset="0.341" style="stop-color:#F1F2F3"/>
				<stop  offset="0.6434" style="stop-color:#E7EAEB"/>
				<stop  offset="0.9302" style="stop-color:#D5DBDF"/>
				<stop  offset="1" style="stop-color:#CFD7DB"/>
			</linearGradient>
			<rect x="249.7" y="209.9" class="st10" width="133.1" height="133.1"/>
			<g class="st7">
				
					<linearGradient id="SVGID_5_" gradientUnits="userSpaceOnUse" x1="128.1" y1="496.5" x2="238.8" y2="496.5" gradientTransform="matrix(1 0 0 1 0 -278)">
					<stop  offset="0" style="stop-color:#F6F5F5"/>
					<stop  offset="0.341" style="stop-color:#F1F2F3"/>
					<stop  offset="0.6434" style="stop-color:#E7EAEB"/>
					<stop  offset="0.9302" style="stop-color:#D5DBDF"/>
					<stop  offset="1" style="stop-color:#CFD7DB"/>
				</linearGradient>
				<rect x="128.1" y="212.2" class="st11" width="110.7" height="12.6"/>
				
					<linearGradient id="SVGID_6_" gradientUnits="userSpaceOnUse" x1="128.1" y1="535.9" x2="238.8" y2="535.9" gradientTransform="matrix(1 0 0 1 0 -278)">
					<stop  offset="0" style="stop-color:#F6F5F5"/>
					<stop  offset="0.341" style="stop-color:#F1F2F3"/>
					<stop  offset="0.6434" style="stop-color:#E7EAEB"/>
					<stop  offset="0.9302" style="stop-color:#D5DBDF"/>
					<stop  offset="1" style="stop-color:#CFD7DB"/>
				</linearGradient>
				<rect x="128.1" y="251.6" class="st12" width="110.7" height="12.6"/>
				
					<linearGradient id="SVGID_7_" gradientUnits="userSpaceOnUse" x1="128.1" y1="575.4" x2="238.8" y2="575.4" gradientTransform="matrix(1 0 0 1 0 -278)">
					<stop  offset="0" style="stop-color:#F6F5F5"/>
					<stop  offset="0.341" style="stop-color:#F1F2F3"/>
					<stop  offset="0.6434" style="stop-color:#E7EAEB"/>
					<stop  offset="0.9302" style="stop-color:#D5DBDF"/>
					<stop  offset="1" style="stop-color:#CFD7DB"/>
				</linearGradient>
				<rect x="128.1" y="291.1" class="st13" width="110.7" height="12.6"/>
				
					<linearGradient id="SVGID_8_" gradientUnits="userSpaceOnUse" x1="128.1" y1="614.8" x2="238.8" y2="614.8" gradientTransform="matrix(1 0 0 1 0 -278)">
					<stop  offset="0" style="stop-color:#F6F5F5"/>
					<stop  offset="0.341" style="stop-color:#F1F2F3"/>
					<stop  offset="0.6434" style="stop-color:#E7EAEB"/>
					<stop  offset="0.9302" style="stop-color:#D5DBDF"/>
					<stop  offset="1" style="stop-color:#CFD7DB"/>
				</linearGradient>
				<rect x="128.1" y="330.5" class="st14" width="110.7" height="12.6"/>
			</g>
		</g>
	</g>
	<g>
		<rect x="74" y="14" class="st15" width="362.8" height="92.8"/>
	</g>
	<g>
		<path class="st16" d="M182.4,23.3c11.4,0,20.2,1.9,26.2,5.8s9.1,9.9,9.1,18c0,5.1-1.2,9.2-3.7,12.4s-6,5.7-10.6,7.5
			c1.5,1.8,3.1,3.9,4.8,6.2c1.7,2.3,3.4,4.8,5,7.3c1.7,2.5,3.2,5.2,4.8,7.9c1.5,2.7,3,5.4,4.3,8.1h-19.1c-1.4-2.4-2.8-4.8-4.2-7.2
			c-1.4-2.5-2.9-4.8-4.4-7.1c-1.5-2.3-3-4.5-4.5-6.5c-1.5-2.1-2.9-3.9-4.4-5.6h-8.5v26.4h-17.1V25.2c3.7-0.7,7.6-1.2,11.6-1.5
			C175.7,23.5,179.3,23.3,182.4,23.3z M183.4,37.2c-1.2,0-2.4,0-3.3,0.1c-1,0.1-1.9,0.1-2.8,0.2v19.6h4.8c6.4,0,11-0.8,13.8-2.3
			s4.2-4.1,4.2-7.8c0-3.5-1.4-6-4.2-7.6C193,37.9,188.9,37.2,183.4,37.2z"/>
		<path class="st16" d="M288.7,24.1V38h-23v58.4h-17.1V38h-23V24.1H288.7z"/>
		<path class="st16" d="M299.7,96.4V24.1h51v13.7h-33.8v15.1H347v13.6h-30.1v29.8L299.7,96.4L299.7,96.4z"/>
	</g>
</g>
</svg>
