<?xml version="1.0" encoding="utf-8"?>
<!-- Generator: Adobe Illustrator 21.0.0, SVG Export Plug-In . SVG Version: 6.00 Build 0)  -->
<svg version="1.1" id="图层_1" xmlns="http://www.w3.org/2000/svg" xmlns:xlink="http://www.w3.org/1999/xlink" x="0px" y="0px"
	 viewBox="0 0 512 512" style="enable-background:new 0 0 512 512;" xml:space="preserve">
<style type="text/css">
	.st0{opacity:0.2;enable-background:new    ;}
	.st1{opacity:0.08;enable-background:new    ;}
	.st2{opacity:0.1;enable-background:new    ;}
	.st3{fill:#1B5E20;}
	.st4{fill:url(#SVGID_1_);}
	.st5{opacity:0.8;fill:#FFFFFF;enable-background:new    ;}
	.st6{fill:#388E3C;}
</style>
<rect x="68.2" y="8" class="st0" width="374.6" height="496"/>
<rect x="68.2" y="8" class="st1" width="382.6" height="504"/>
<rect x="72.2" y="12" class="st2" width="374.6" height="496"/>
<rect x="72.2" y="12" class="st3" width="366.6" height="488"/>
<g>
	
		<linearGradient id="SVGID_1_" gradientUnits="userSpaceOnUse" x1="338.7002" y1="1600.8008" x2="338.7002" y2="1116.8008" gradientTransform="matrix(1 0 0 1 -83.2002 -1102.8008)">
		<stop  offset="0" style="stop-color:#388E3C"/>
		<stop  offset="0.0757" style="stop-color:#43953E"/>
		<stop  offset="0.3246" style="stop-color:#62A943"/>
		<stop  offset="0.5665" style="stop-color:#79B747"/>
		<stop  offset="0.796" style="stop-color:#86C049"/>
		<stop  offset="1" style="stop-color:#8BC34A"/>
	</linearGradient>
	<rect x="74.2" y="14" class="st4" width="362.6" height="484"/>
	<path class="st5" d="M264.8,167.7v-0.4h-18.5v0.4H126.4v233.5h258.1V167.7H264.8z M145,237.1h57.6v37.3H145V237.1z M145,293h57.6
		v37.3H145V293z M221.8,293H366v37.3H221.8V293z M221.8,274.4v-37.3H366v37.3H221.8z M366,186.5v32.1H221.8v-32.1H366z M202.6,186.5
		v32.1H145v-32.1H202.6z M145,349h57.6v33.5H145V349z M221.8,382.5V349H366v33.5H221.8z"/>
	<g>
		<rect x="74.1" y="14" class="st5" width="362.8" height="92.8"/>
	</g>
	<g>
		<path class="st6" d="M229,59.8c0,6.2-0.9,11.6-2.9,16.3s-4.6,8.6-7.9,11.8c-3.4,3.2-7.4,5.5-12,7.1c-4.7,1.6-9.6,2.4-15,2.4
			c-5.2,0-10.1-0.8-14.7-2.4c-4.6-1.6-8.6-4-12.1-7.1c-3.5-3.2-6.2-7.1-8.1-11.8c-2-4.7-3-10.1-3-16.3s1-11.6,3.1-16.3
			c2-4.7,4.8-8.6,8.3-11.8s7.5-5.6,12.1-7.2s9.4-2.4,14.4-2.4c5.2,0,10.1,0.8,14.7,2.4c4.6,1.6,8.6,4,12.1,7.2s6.2,7.2,8.1,11.8
			C228,48.2,229,53.6,229,59.8z M170.9,59.8c0,3.5,0.5,6.8,1.4,9.6c0.9,2.9,2.2,5.3,4,7.3c1.7,2.1,3.8,3.6,6.3,4.8
			c2.5,1.1,5.4,1.7,8.6,1.7c3.2,0,6-0.6,8.5-1.7s4.7-2.7,6.4-4.8c1.7-2,3-4.5,4-7.3c0.9-2.9,1.4-6.1,1.4-9.6s-0.5-6.8-1.4-9.6
			c-0.9-2.9-2.2-5.4-4-7.4c-1.7-2-3.8-3.6-6.4-4.8c-2.5-1.1-5.4-1.7-8.5-1.7c-3.2,0-6.1,0.6-8.6,1.7s-4.6,2.7-6.3,4.8s-3,4.5-4,7.4
			C171.4,53.2,170.9,56.3,170.9,59.8z"/>
		<path class="st6" d="M297.2,23.7v13.9h-22.9V96h-17.1V37.6h-22.9V23.7C234.1,23.7,297.2,23.7,297.2,23.7z"/>
		<path class="st6" d="M328.9,83.6c2.4,0,4.4-0.2,6-0.6s2.8-0.9,3.8-1.6c0.9-0.7,1.6-1.4,2-2.3s0.6-1.9,0.6-3c0-2.4-1.1-4.3-3.5-5.9
			c-2.3-1.6-6.4-3.2-12-5.1c-2.5-0.8-5-1.8-7.5-2.9c-2.5-1.1-4.7-2.4-6.7-4.1c-2-1.6-3.6-3.6-4.9-6c-1.3-2.3-1.8-5.2-1.8-8.5
			s0.6-6.3,2-9c1.3-2.7,3.2-5,5.6-6.8s5.4-3.3,8.8-4.3c3.5-1,7.3-1.5,11.7-1.5c5.1,0,9.6,0.5,13.3,1.6c3.7,1,6.8,2.2,9.2,3.4
			l-4.9,12.8c-2.1-1.1-4.5-2-7.1-2.8s-5.7-1.2-9.4-1.2c-4.1,0-7,0.5-8.8,1.6s-2.7,2.7-2.7,4.9c0,1.3,0.4,2.4,1,3.3
			c0.7,0.9,1.6,1.7,2.8,2.5c1.2,0.7,2.6,1.4,4.2,2s3.3,1.2,5.2,1.8c3.9,1.4,7.4,2.8,10.3,4.1c3,1.4,5.4,2.9,7.3,4.7s3.4,3.9,4.3,6.4
			c0.9,2.4,1.4,5.4,1.4,8.9c0,6.7-2.5,12-7.5,15.7s-12.5,5.6-22.5,5.6c-3.3,0-6.4-0.2-9.1-0.6s-5.1-0.9-7.2-1.4
			c-2.1-0.6-3.8-1.2-5.4-1.8c-1.5-0.6-2.8-1.2-3.8-1.8l4.8-12.9c2.3,1.2,5.1,2.2,8.4,3.2C320,83.1,324.1,83.6,328.9,83.6z"/>
	</g>
</g>
</svg>
