<?xml version="1.0" encoding="utf-8"?>
<!-- Generator: Adobe Illustrator 21.0.0, SVG Export Plug-In . SVG Version: 6.00 Build 0)  -->
<svg version="1.1"
	 id="svg2" inkscape:version="0.48.4 r9939" sodipodi:docname="computer.svg" xmlns:cc="http://creativecommons.org/ns#" xmlns:dc="http://purl.org/dc/elements/1.1/" xmlns:inkscape="http://www.inkscape.org/namespaces/inkscape" xmlns:rdf="http://www.w3.org/1999/02/22-rdf-syntax-ns#" xmlns:sodipodi="http://sodipodi.sourceforge.net/DTD/sodipodi-0.dtd" xmlns:svg="http://www.w3.org/2000/svg"
	 xmlns="http://www.w3.org/2000/svg" xmlns:xlink="http://www.w3.org/1999/xlink" x="0px" y="0px" viewBox="0 0 512 512"
	 style="enable-background:new 0 0 512 512;" xml:space="preserve">
<style type="text/css">
	.st0{opacity:0.2;enable-background:new    ;}
	.st1{opacity:0.08;enable-background:new    ;}
	.st2{opacity:0.1;enable-background:new    ;}
	.st3{fill:#01579B;}
	.st4{fill:#0288D1;}
	.st5{fill:url(#SVGID_1_);}
	.st6{opacity:0.7;enable-background:new    ;}
	.st7{fill:#FFFFFF;}
	.st8{fill:#F5F5F5;}
	.st9{fill:none;}
</style>
<g>
	<path class="st0" d="M256,504c-66.2,0-128.5-25.8-175.4-72.6C33.8,384.5,8,322.2,8,256S33.8,127.5,80.6,80.6
		C127.5,33.8,189.8,8,256,8s128.5,25.8,175.4,72.6C478.2,127.5,504,189.8,504,256s-25.8,128.5-72.6,175.4S322.2,504,256,504z
		 M256,229.7c-14.5,0-26.3,11.8-26.3,26.3s11.8,26.3,26.3,26.3s26.3-11.8,26.3-26.3S270.5,229.7,256,229.7z"/>
	<path class="st1" d="M260,512c-67.3,0-130.6-26.2-178.2-73.8S8,327.3,8,260S34.2,129.4,81.8,81.8S192.7,8,260,8
		s130.6,26.2,178.2,73.8S512,192.7,512,260s-26.2,130.6-73.8,178.2S327.3,512,260,512z M260,237.7c-12.3,0-22.3,10-22.3,22.3
		c0,12.3,10,22.3,22.3,22.3c12.3,0,22.3-10,22.3-22.3C282.3,247.7,272.3,237.7,260,237.7z"/>
	<path class="st2" d="M260,508c-66.2,0-128.5-25.8-175.4-72.6C37.8,388.5,12,326.2,12,260S37.8,131.5,84.6,84.6
		C131.5,37.8,193.8,12,260,12s128.5,25.8,175.4,72.6C482.2,131.5,508,193.8,508,260s-25.8,128.5-72.6,175.4S326.2,508,260,508z
		 M260,233.7c-14.5,0-26.3,11.8-26.3,26.3s11.8,26.3,26.3,26.3s26.3-11.8,26.3-26.3S274.5,233.7,260,233.7z"/>
	<path class="st3" d="M256,500c-65.2,0-126.4-25.4-172.5-71.5S12,321.2,12,256S37.4,129.6,83.5,83.5S190.8,12,256,12
		s126.4,25.4,172.5,71.5S500,190.8,500,256s-25.4,126.4-71.5,172.5S321.2,500,256,500z M256,225.7c-16.7,0-30.3,13.6-30.3,30.3
		s13.6,30.3,30.3,30.3s30.3-13.6,30.3-30.3S272.7,225.7,256,225.7z"/>
	<path class="st4" d="M256,14C122.3,14,14,122.3,14,256s108.3,242,242,242s242-108.3,242-242S389.7,14,256,14z M256,490.9
		C126.5,490.9,21.1,385.5,21.1,256S126.5,21.1,256,21.1S490.9,126.5,490.9,256S385.5,490.9,256,490.9z"/>
	
		<radialGradient id="SVGID_1_" cx="256.05" cy="534.05" r="201.75" gradientTransform="matrix(1 0 0 1 0 -278)" gradientUnits="userSpaceOnUse">
		<stop  offset="0" style="stop-color:#4DD0E1"/>
		<stop  offset="0.3925" style="stop-color:#40BEE7"/>
		<stop  offset="0.6129" style="stop-color:#3FBDE7"/>
		<stop  offset="0.6613" style="stop-color:#44C4E8"/>
		<stop  offset="0.7527" style="stop-color:#2CBEE8"/>
		<stop  offset="1" style="stop-color:#2196F3"/>
	</radialGradient>
	<path class="st5" d="M256,54.3C144.8,54.3,54.3,144.8,54.3,256S144.8,457.8,256,457.8S457.8,367.2,457.8,256S367.2,54.3,256,54.3z
		 M256,326.6c-38.9,0-70.6-31.7-70.6-70.6s31.7-70.6,70.6-70.6s70.6,31.7,70.6,70.6S294.9,326.6,256,326.6z"/>
	<g class="st6">
		<path class="st7" d="M326.4,260.6l123.8,8.2l7.1-0.2c1.8-28.9-2.7-57.6-12.9-84.4L322,230.9C325.5,240.3,327.1,250.5,326.4,260.6z
			"/>
		<path class="st7" d="M185.6,251.4l-123.8-8.2l-7.1,0.2c-1.8,28.9,2.7,57.6,12.9,84.4L190,281.1
			C186.5,271.7,184.9,261.5,185.6,251.4z"/>
	</g>
	<g class="st6">
		<path class="st7" d="M317,220.5L424.2,158l5.7-4.2c-14.7-24.9-34.5-46.3-57.9-62.7l-75.4,107.2C304.8,204.1,311.8,211.7,317,220.5
			z"/>
		<path class="st7" d="M195,291.5L87.8,354l-5.7,4.2c14.7,24.9,34.5,46.3,57.9,62.7l75.4-107.2C207.2,307.9,200.2,300.3,195,291.5z"
			/>
	</g>
	<path class="st8" d="M256,21C126.4,21,21,126.4,21,256s105.4,235,235,235s235-105.4,235-235S385.6,21,256,21z M256,457.8
		c-111.2,0-201.8-90.5-201.8-201.8S144.8,54.2,256,54.2S457.8,144.8,457.8,256S367.2,457.8,256,457.8z"/>
	<path class="st4" d="M256,185.5c-38.8,0-70.5,31.7-70.5,70.5s31.7,70.5,70.5,70.5s70.5-31.7,70.5-70.5S294.8,185.5,256,185.5z
		 M256,319.3c-34.9,0-63.3-28.4-63.3-63.3s28.4-63.3,63.3-63.3s63.3,28.4,63.3,63.3S290.9,319.3,256,319.3z"/>
	<path class="st8" d="M256,192.8c-34.9,0-63.3,28.4-63.3,63.3s28.4,63.3,63.3,63.3s63.3-28.4,63.3-63.3S290.9,192.8,256,192.8z
		 M256,288.3c-17.8,0-32.3-14.5-32.3-32.3s14.5-32.3,32.3-32.3s32.3,14.5,32.3,32.3S273.8,288.3,256,288.3z"/>
</g>
<rect class="st9" width="512" height="512"/>
</svg>
