<?xml version="1.0" encoding="utf-8"?>
<!-- Generator: Adobe Illustrator 21.0.0, SVG Export Plug-In . SVG Version: 6.00 Build 0)  -->
<svg version="1.1" id="图层_1" xmlns="http://www.w3.org/2000/svg" xmlns:xlink="http://www.w3.org/1999/xlink" x="0px" y="0px"
	 viewBox="0 0 512 512" style="enable-background:new 0 0 512 512;" xml:space="preserve">
<style type="text/css">
	.st0{opacity:0.08;enable-background:new    ;}
	.st1{opacity:0.1;enable-background:new    ;}
	.st2{opacity:0.2;enable-background:new    ;}
	.st3{fill:#E65100;}
	.st4{fill:url(#SVGID_1_);}
	.st5{fill:#E65100;fill-opacity:0.3922;}
	.st6{fill:#FFFFFF;fill-opacity:0.3922;}
	.st7{opacity:0.8;}
	.st8{fill:#FFFFFF;}
	.st9{opacity:0.8;fill:#FFFFFF;enable-background:new    ;}
	.st10{enable-background:new    ;}
	.st11{fill:#E64A19;}
</style>
<polygon class="st0" points="68.2,512 68.2,8 451.8,8 451.8,369.9 309.7,512 "/>
<polygon class="st1" points="72.2,508 72.2,12 447.8,12 447.8,368.3 308.1,508 "/>
<polygon class="st2" points="68.2,504 68.2,8 443.8,8 443.8,364.3 304.1,504 "/>
<polygon class="st3" points="72.2,500 72.2,12 438.8,12 438.8,362.6 301.8,500 "/>
<g>
	<g>
		<g>
			
				<linearGradient id="SVGID_1_" gradientUnits="userSpaceOnUse" x1="297.1001" y1="-403.9009" x2="297.1001" y2="80.0991" gradientTransform="matrix(1 0 0 -1 -41.6001 94.0991)">
				<stop  offset="0" style="stop-color:#EE6F0B"/>
				<stop  offset="1" style="stop-color:#FFB74D"/>
			</linearGradient>
			<polygon class="st4" points="74.2,498 74.2,14 436.8,14 436.8,361.9 300.7,498 			"/>
		</g>
		<polygon class="st5" points="436.8,361.9 436.8,356 293.2,356 293.2,498 300.7,498 		"/>
		<path class="st6" d="M300.5,361.9l136.3,0.2L300.7,498L300.5,361.9z"/>
	</g>
	<g class="st7">
		<rect x="121.4" y="200.3" class="st8" width="38.7" height="194"/>
		<rect x="185.9" y="297.1" class="st8" width="38.7" height="97"/>
		<rect x="250.3" y="336.6" class="st8" width="38.7" height="58.1"/>
		<g>
			<path class="st8" d="M302.9,166l0.4,77.2l77.2-0.4c0.2,42.8-34.3,77.5-77,77.6c-42.7,0.2-77.4-34.3-77.6-77
				C225.7,200.9,260.1,166.2,302.9,166z"/>
			<path class="st8" d="M312,157.2c42.8-0.2,77.5,34.3,77.6,77l-77.2,0.4L312,157.2z"/>
		</g>
	</g>
	<g>
		<rect x="74.1" y="14" class="st9" width="362.8" height="92.8"/>
		<g class="st10">
			<path class="st11" d="M216.7,59.8c0,6.2-1,11.6-2.9,16.3c-2,4.7-4.6,8.6-8,11.8c-3.4,3.2-7.4,5.5-12,7.1s-9.6,2.4-15,2.4
				c-5.2,0-10.1-0.8-14.7-2.4c-4.6-1.6-8.6-4-12.1-7.1c-3.4-3.2-6.1-7.1-8.1-11.8c-2-4.7-3-10.1-3-16.3s1-11.7,3.1-16.3
				c2-4.7,4.8-8.6,8.3-11.8s7.5-5.6,12.1-7.2s9.4-2.4,14.4-2.4c5.2,0,10.1,0.8,14.7,2.4c4.6,1.6,8.6,4,12.1,7.2
				c3.4,3.2,6.1,7.2,8.1,11.8C215.8,48.2,216.7,53.6,216.7,59.8z M158.7,59.8c0,3.5,0.4,6.7,1.4,9.6c0.9,2.9,2.2,5.3,4,7.4
				c1.7,2,3.8,3.6,6.3,4.7s5.4,1.7,8.6,1.7c3.2,0,6-0.6,8.5-1.7s4.6-2.7,6.4-4.7c1.7-2.1,3-4.5,3.9-7.4c0.9-2.8,1.4-6,1.4-9.6
				s-0.5-6.8-1.4-9.6c-0.9-2.9-2.2-5.4-3.9-7.4s-3.8-3.6-6.4-4.8c-2.5-1.1-5.4-1.7-8.5-1.7c-3.2,0-6.1,0.6-8.6,1.7s-4.6,2.7-6.3,4.8
				s-3.1,4.5-4,7.4C159.1,53.1,158.7,56.3,158.7,59.8z"/>
			<path class="st11" d="M297.7,59.8c0,6.2-1,11.7-3.1,16.4s-5,8.5-8.7,11.6s-8.4,5.4-13.8,6.9S260.6,97,253.9,97
				c-3.1,0-6.6-0.1-10.7-0.4C239,96.3,235,95.8,231,95V24.6c4-0.7,8.1-1.2,12.4-1.4c4.3-0.2,8-0.4,11-0.4c6.6,0,12.4,0.7,17.8,2.1
				c5.3,1.4,9.8,3.6,13.7,6.6c3.8,3,6.7,6.8,8.8,11.5S297.7,53.3,297.7,59.8z M248.2,82.8c0.8,0.1,1.7,0.1,2.8,0.2c1,0,2.3,0,3.8,0
				c8.6,0,14.9-2,19.1-6.1c4.1-4.1,6.2-9.8,6.2-17c0-7.6-2-13.3-5.9-17.2s-10.2-5.8-18.8-5.8c-1.1,0-2.4,0-3.6,0
				c-1.3,0-2.4,0.1-3.5,0.3L248.2,82.8L248.2,82.8z"/>
			<path class="st11" d="M334.8,22.9c11.3,0,20,1.9,26.1,5.7s9.1,10,9.1,18.6c0,8.7-3.1,15-9.2,18.8c-6.2,3.9-14.9,5.8-26.4,5.8H329
				V96h-17V24.7c3.8-0.7,7.7-1.2,11.8-1.5C328,23,331.7,22.9,334.8,22.9z M335.9,36.8c-1.2,0-2.5,0-3.7,0.1s-2.3,0.1-3.1,0.2V58h5.4
				c6,0,10.4-0.8,13.4-2.3s4.5-4.4,4.5-8.5c0-2-0.4-3.7-1.2-5c-0.8-1.3-1.8-2.4-3.3-3.2c-1.4-0.8-3.2-1.4-5.2-1.7
				C340.7,36.9,338.4,36.8,335.9,36.8z"/>
		</g>
	</g>
</g>
</svg>
