<?xml version="1.0" encoding="utf-8"?>
<!-- Generator: Adobe Illustrator 16.0.0, SVG Export Plug-In . SVG Version: 6.00 Build 0)  -->
<!DOCTYPE svg PUBLIC "-//W3C//DTD SVG 1.1//EN" "http://www.w3.org/Graphics/SVG/1.1/DTD/svg11.dtd">
<svg version="1.1" id="图层_1" xmlns="http://www.w3.org/2000/svg" xmlns:xlink="http://www.w3.org/1999/xlink" x="0px" y="0px"
	 width="512px" height="512px" viewBox="0 0 512 512" enable-background="new 0 0 512 512" xml:space="preserve">
<polygon opacity="0.08" enable-background="new    " points="68.2,512 68.2,8 451.801,8 451.801,369.913 309.714,512 "/>
<polygon opacity="0.1" enable-background="new    " points="72.2,508 72.2,12 447.801,12 447.801,368.256 308.057,508 "/>
<polygon opacity="0.2" enable-background="new    " points="68.2,504 68.2,8 443.801,8 443.801,364.256 304.058,504 "/>
<g>
	<polygon fill="#445962" points="72.22,500 72.22,12 437.812,12 437.812,362.75 300.562,500 	"/>
</g>
<g>
	<g>
		<g>
			
				<linearGradient id="SVGID_1_" gradientUnits="userSpaceOnUse" x1="338.2151" y1="-84.801" x2="338.2151" y2="-568.8015" gradientTransform="matrix(1 0 0 -1 -83.1997 -70.8013)">
				<stop  offset="0" style="stop-color:#F6F5F5"/>
				<stop  offset="0.341" style="stop-color:#F1F2F3"/>
				<stop  offset="0.6434" style="stop-color:#E7EAEB"/>
				<stop  offset="0.9302" style="stop-color:#D5DBDF"/>
				<stop  offset="1" style="stop-color:#CFD7DB"/>
			</linearGradient>
			<polygon fill="url(#SVGID_1_)" points="73.696,498 73.696,14 436.336,14 436.336,361.875 300.189,498 			"/>
		</g>
		<polygon fill="#455963" fill-opacity="0.7" points="436.336,361.875 436.336,356.023 292.739,356.023 292.739,498 300.189,498 		
			"/>
		<path fill="#8DA1AC" d="M299.987,361.875l136.35,0.225L300.189,498L299.987,361.875z"/>
	</g>
	<text transform="matrix(1 0 0 1 91.4534 276.0935)" fill="#607D8B" font-family="'Ubuntu-Regular'" font-size="136.9361">ASCII</text>
</g>
</svg>
