<?xml version="1.0" encoding="utf-8"?>
<!-- Generator: Adobe Illustrator 16.0.0, SVG Export Plug-In . SVG Version: 6.00 Build 0)  -->
<!DOCTYPE svg PUBLIC "-//W3C//DTD SVG 1.1//EN" "http://www.w3.org/Graphics/SVG/1.1/DTD/svg11.dtd">
<svg version="1.1" id="图层_1" xmlns="http://www.w3.org/2000/svg" xmlns:xlink="http://www.w3.org/1999/xlink" x="0px" y="0px"
	 width="512px" height="512px" viewBox="0 0 512 512" enable-background="new 0 0 512 512" xml:space="preserve">
<polygon opacity="0.08" enable-background="new    " points="68.2,512 68.2,8 451.801,8 451.801,369.913 309.714,512 "/>
<polygon opacity="0.1" enable-background="new    " points="72.2,508 72.2,12 447.801,12 447.801,368.256 308.057,508 "/>
<polygon opacity="0.2" enable-background="new    " points="68.2,504 68.2,8 443.801,8 443.801,364.256 304.058,504 "/>
<polygon fill="#01579B" points="72.199,500 72.199,12 438.793,12 438.793,362.597 301.776,500 "/>
<g>
	<g>
		<g>
			<g>
				
					<linearGradient id="SVGID_1_" gradientUnits="userSpaceOnUse" x1="338.6653" y1="-568.8005" x2="338.6653" y2="-84.801" gradientTransform="matrix(1 0 0 -1 -83.2002 -70.8013)">
					<stop  offset="0" style="stop-color:#2196F3"/>
					<stop  offset="0.5828" style="stop-color:#3DBAE8"/>
					<stop  offset="1" style="stop-color:#4DD0E1"/>
				</linearGradient>
				<polygon fill="url(#SVGID_1_)" points="74.154,498 74.154,14 436.776,14 436.776,361.875 300.651,498 				"/>
			</g>
			<polygon fill="#01579B" fill-opacity="0.39" points="436.776,361.875 436.776,356.013 293.183,356.013 293.183,498 300.651,498 
							"/>
			<path fill="#FFFFFF" fill-opacity="0.3922" d="M300.461,361.875l136.346,0.189L300.651,498L300.461,361.875z"/>
		</g>
		<g>
			<path opacity="0.8" fill="#FFFFFF" enable-background="new    " d="M319.809,182.99c14.148,0,25.618,11.47,25.618,25.634
				c0,14.148-11.47,25.618-25.618,25.618s-25.618-11.47-25.618-25.618C294.191,194.46,305.66,182.99,319.809,182.99z"/>
			<path opacity="0.8" fill="#FFFFFF" enable-background="new    " d="M129.423,155.182v165.351h252.115V155.182H129.423z
				 M363.357,173.316v129.066l0,0l-58.483-41.53l-41.783,25.587l-53.599-64.723l-61.918,80.666V173.316H363.357z"/>
		</g>
	</g>
	<g>
		<rect x="74.091" y="14" opacity="0.8" fill="#FFFFFF" enable-background="new    " width="362.811" height="92.767"/>
		<g enable-background="new    ">
			<path fill="#0288D1" d="M170.827,22.87c11.407,0,20.104,1.906,26.154,5.688c6.112,3.797,9.138,10.005,9.138,18.623
				c0,8.697-3.088,14.968-9.264,18.828c-6.113,3.86-14.937,5.798-26.343,5.798h-5.357v24.2h-17.142V24.745
				c3.719-0.693,7.688-1.182,11.849-1.45C164.022,23.011,167.677,22.87,170.827,22.87z M171.962,36.75
				c-1.261,0-2.458,0.031-3.655,0.11c-1.261,0.063-2.269,0.126-3.151,0.205v20.86h5.357c5.924,0,10.398-0.756,13.423-2.3
				c2.962-1.528,4.475-4.38,4.475-8.555c0-2.017-0.378-3.671-1.134-4.995c-0.757-1.323-1.891-2.395-3.277-3.183
				c-1.449-0.803-3.214-1.355-5.23-1.67C176.689,36.908,174.42,36.75,171.962,36.75z"/>
			<path fill="#0288D1" d="M269.771,96.006c-4.916-8.271-10.21-16.449-15.882-24.515c-5.734-8.067-11.784-15.676-18.275-22.845
				v47.36h-16.89V23.705h13.928c2.457,2.3,5.104,5.121,8.066,8.46c2.898,3.325,5.86,6.901,8.949,10.682
				c3.024,3.797,6.05,7.72,9.012,11.801c3.024,4.065,5.86,7.972,8.444,11.722V23.705h17.079v72.301H269.771z"/>
			<path fill="#0288D1" d="M338.841,36.23c-7.94,0-13.738,2.096-17.268,6.302c-3.592,4.222-5.356,9.973-5.356,17.268
				c0,3.545,0.441,6.775,1.323,9.658c0.882,2.883,2.206,5.373,3.971,7.453c1.765,2.095,3.97,3.702,6.554,4.853
				c2.646,1.15,5.735,1.717,9.264,1.717c1.891,0,3.529-0.032,4.854-0.095c1.386-0.079,2.583-0.205,3.592-0.425V57.815h17.142v35.796
				c-2.08,0.756-5.356,1.576-9.895,2.442c-4.537,0.866-10.146,1.308-16.826,1.308c-5.672,0-10.84-0.835-15.503-2.505
				c-4.664-1.67-8.634-4.096-11.911-7.294s-5.861-7.137-7.626-11.801c-1.827-4.648-2.71-9.973-2.71-15.96
				c0-6.05,1.009-11.407,2.962-16.055c1.954-4.664,4.664-8.618,8.13-11.848c3.467-3.23,7.5-5.688,12.163-7.358
				c4.601-1.67,9.579-2.505,14.873-2.505c3.592,0,6.807,0.236,9.705,0.677c2.899,0.457,5.357,0.977,7.437,1.576
				c2.08,0.583,3.845,1.197,5.168,1.828c1.387,0.614,2.332,1.103,2.898,1.449l-4.915,13.045c-2.332-1.182-5.042-2.206-8.066-3.072
				C345.774,36.656,342.434,36.23,338.841,36.23z"/>
		</g>
	</g>
</g>
</svg>
