<?xml version="1.0" encoding="utf-8"?>
<!-- Generator: Adobe Illustrator 16.0.0, SVG Export Plug-In . SVG Version: 6.00 Build 0)  -->
<!DOCTYPE svg PUBLIC "-//W3C//DTD SVG 1.1//EN" "http://www.w3.org/Graphics/SVG/1.1/DTD/svg11.dtd">
<svg version="1.1" id="图层_1" xmlns="http://www.w3.org/2000/svg" xmlns:xlink="http://www.w3.org/1999/xlink" x="0px" y="0px"
	 width="512px" height="512px" viewBox="0 0 512 512" enable-background="new 0 0 512 512" xml:space="preserve">
<polygon opacity="0.08" points="68.2,512 68.2,8 451.801,8 451.801,369.913 309.714,512 "/>
<polygon opacity="0.1" points="72.2,508 72.2,12 447.801,12 447.801,368.256 308.057,508 "/>
<polygon opacity="0.2" points="68.2,504 68.2,8 443.801,8 443.801,364.256 304.058,504 "/>
<polygon fill="#AE2124" points="72.199,500 72.199,12 438.793,12 438.793,362.598 301.801,500 "/>
<g>
	<g>
		<g>
			
				<linearGradient id="SVGID_1_" gradientUnits="userSpaceOnUse" x1="297.0957" y1="916.9004" x2="297.0957" y2="432.9004" gradientTransform="matrix(1 0 0 1 -41.6001 -418.9004)">
				<stop  offset="0" style="stop-color:#C7312F"/>
				<stop  offset="0.1635" style="stop-color:#D9412C"/>
				<stop  offset="0.3476" style="stop-color:#E74E29"/>
				<stop  offset="0.5725" style="stop-color:#EA552A"/>
				<stop  offset="0.9516" style="stop-color:#EA582B"/>
			</linearGradient>
			<polygon fill="url(#SVGID_1_)" points="74.199,498 74.199,14 436.793,14 436.793,361.875 300.668,498 			"/>
		</g>
		<polygon fill="#AE2124" fill-opacity="0.3922" points="436.793,361.875 436.793,356.021 293.218,356.021 293.218,498 300.668,498 
					"/>
		<path fill="#FFFFFF" fill-opacity="0.3922" d="M300.465,361.875l136.328,0.203L300.668,498L300.465,361.875z"/>
	</g>
	<g opacity="0.8" enable-background="new    ">
		<g>
			<path fill="#FFFFFF" d="M301.074,132.189c0.609,0.199,1.418,0.199,2.027,0.381C302.492,132.388,301.684,132.189,301.074,132.189z
				"/>
			<path fill="#FFFFFF" d="M296.032,131.376c0.809,0,1.418,0.203,2.227,0.203C297.45,131.58,296.841,131.58,296.032,131.376z"/>
			<path fill="#FFFFFF" d="M305.913,132.977c0.605,0.199,1.215,0.199,1.824,0.402C307.128,133.176,306.519,132.977,305.913,132.977z
				"/>
			<path fill="#FFFFFF" d="M310.751,133.785c0.609,0.203,1.215,0.203,1.621,0.402C311.767,133.988,311.36,133.785,310.751,133.785z"
				/>
			<path fill="#FFFFFF" d="M290.788,130.771c0.813,0,1.621,0.199,2.43,0.199C292.409,130.97,291.601,130.771,290.788,130.771z"/>
			<path fill="#FFFFFF" d="M319.844,135.813c0.382,0.199,0.788,0.199,1.397,0.402C320.632,136.012,320.226,135.813,319.844,135.813z
				"/>
			<path fill="#FFFFFF" d="M315.391,134.797c0.402,0.203,1.012,0.203,1.418,0.406C316.402,135,315.793,134.797,315.391,134.797z"/>
			<path fill="#FFFFFF" d="M147.416,157.779L147.416,157.779L147.416,157.779z"/>
			<path fill="#FFFFFF" d="M262.967,128.947c1.195,0,2.613,0,3.828,0C265.58,128.947,264.162,128.947,262.967,128.947z"/>
			<path fill="#FFFFFF" d="M324.077,136.824c0.402,0.199,0.809,0.199,1.189,0.406C324.886,137.023,324.479,137.023,324.077,136.824z
				"/>
			<path fill="#FFFFFF" d="M285.543,130.162c0.809,0,1.621,0.203,2.434,0.203C287.367,130.365,286.559,130.365,285.543,130.162z"/>
			<path fill="#FFFFFF" d="M244.221,128.947c1.192,0,2.407,0,3.825,0C246.831,128.947,245.413,128.947,244.221,128.947z"/>
			<path fill="#FFFFFF" d="M274.651,129.353c1.011,0,2.022,0.199,3.034,0.199C276.674,129.552,275.662,129.353,274.651,129.353z"/>
			<path fill="#FFFFFF" d="M280.298,129.755c1.012,0,1.824,0.203,2.836,0.203C282.122,129.958,281.11,129.755,280.298,129.755z"/>
			<path fill="#FFFFFF" d="M349.082,146.298c0,0,0.203,0,0.203,0.203C349.285,146.298,349.082,146.298,349.082,146.298z"/>
			<path fill="#FFFFFF" d="M358.759,152.737L358.759,152.737L358.759,152.737z"/>
			<path fill="#FFFFFF" d="M351.894,147.695C351.894,147.695,351.894,147.895,351.894,147.695
				C351.894,147.895,351.894,147.695,351.894,147.695z"/>
			<path fill="#FFFFFF" d="M354.327,149.313C354.53,149.313,354.53,149.313,354.327,149.313
				C354.53,149.313,354.53,149.313,354.327,149.313z"/>
			<path fill="#FFFFFF" d="M328.31,138.019c0.402,0,0.605,0.199,1.012,0.199C328.915,138.217,328.509,138.019,328.31,138.019z"/>
			<path fill="#FFFFFF" d="M360.559,154.354L360.559,154.354L360.559,154.354z"/>
			<path fill="#FFFFFF" d="M255.496,128.744c-1.801,0-3.827,0-5.649,0C251.669,128.744,253.695,128.744,255.496,128.744z"/>
			<path fill="#FFFFFF" d="M356.735,150.938L356.735,150.938L356.735,150.938z"/>
			<path fill="#FFFFFF" d="M339.604,141.866c0.182,0,0.406,0.199,0.588,0.199C340.011,142.065,339.786,141.866,339.604,141.866z"/>
			<path fill="#FFFFFF" d="M255.496,128.744c1.822,0,3.85,0,5.646,0C259.346,128.744,257.318,128.744,255.496,128.744z"/>
			<path fill="#FFFFFF" d="M332.133,139.229c0.203,0,0.609,0.208,0.813,0.208C332.742,139.437,332.539,139.229,332.133,139.229z"/>
			<path fill="#FFFFFF" d="M335.96,140.448c0.203,0,0.406,0.199,0.609,0.199C336.366,140.647,336.163,140.647,335.96,140.448z"/>
			<path fill="#FFFFFF" d="M343.028,143.259c0.199,0,0.406,0.204,0.406,0.204C343.228,143.462,343.028,143.259,343.028,143.259z"/>
			<path fill="#FFFFFF" d="M346.043,144.677c0.203,0,0.203,0.204,0.406,0.204C346.449,144.88,346.246,144.677,346.043,144.677z"/>
			<path fill="#FFFFFF" d="M269.021,129.146c0.995,0,2.206,0,3.222,0.208C271.227,129.146,270.016,129.146,269.021,129.146z"/>
			<path fill="#FFFFFF" d="M161.73,146.298c0.203,0,0.203-0.204,0.406-0.204C161.933,146.298,161.73,146.298,161.73,146.298z"/>
			<path fill="#FFFFFF" d="M158.894,147.895c0,0,0.203,0,0.203-0.199C159.097,147.695,159.097,147.895,158.894,147.895z"/>
			<path fill="#FFFFFF" d="M156.485,149.52C156.485,149.313,156.688,149.313,156.485,149.52
				C156.688,149.313,156.485,149.313,156.485,149.52z"/>
			<path fill="#FFFFFF" d="M164.543,144.88c0.203,0,0.203-0.204,0.406-0.204C164.746,144.677,164.543,144.88,164.543,144.88z"/>
			<path fill="#FFFFFF" d="M170.802,142.065c0.201,0,0.404-0.199,0.607-0.199C171.206,141.866,171.002,142.065,170.802,142.065z"/>
			<path fill="#FFFFFF" d="M167.582,143.462c0.203,0,0.404-0.204,0.607-0.204C167.986,143.259,167.785,143.462,167.582,143.462z"/>
			<path fill="#FFFFFF" d="M238.773,129.146c0.991,0,2.206,0,3.219-0.199C240.979,129.146,239.764,129.146,238.773,129.146z"/>
			<path fill="#FFFFFF" d="M255.496,203.962c-61.311,0-110.917-16.721-110.917-37.498v33.874c0,20.776,49.606,37.518,110.917,37.518
				c61.313,0,110.917-16.742,110.917-37.518l0,0v-33.874C366.413,187.038,316.809,203.962,255.496,203.962z"/>
			<path fill="#FFFFFF" d="M144.58,165.25v1.215C144.58,166.063,144.58,165.656,144.58,165.25L144.58,165.25z"/>
			<path fill="#FFFFFF" d="M174.222,140.854c0.203,0,0.607-0.208,0.811-0.208C174.83,140.647,174.626,140.647,174.222,140.854z"/>
			<path fill="#FFFFFF" d="M152.254,152.737L152.254,152.737L152.254,152.737z"/>
			<path fill="#FFFFFF" d="M366.413,165.25c0,0.406,0,0.813,0,1.215V165.25L366.413,165.25z"/>
			<path fill="#FFFFFF" d="M148.811,156.178L148.811,156.178L148.811,156.178z"/>
			<path fill="#FFFFFF" d="M150.432,154.354L150.432,154.354L150.432,154.354z"/>
			<path fill="#FFFFFF" d="M154.259,151.137C154.259,150.938,154.259,150.938,154.259,151.137
				C154.259,150.938,154.259,150.938,154.259,151.137z"/>
			<path fill="#FFFFFF" d="M217.795,130.97c0.811,0,1.599-0.199,2.409-0.199C219.394,130.771,218.606,130.97,217.795,130.97z"/>
			<path fill="#FFFFFF" d="M212.754,131.783c0.811-0.203,1.395-0.203,2.206-0.203C214.149,131.58,213.564,131.58,212.754,131.783z"
				/>
			<path fill="#FFFFFF" d="M222.837,130.365c0.811,0,1.598-0.203,2.612-0.203C224.436,130.365,223.648,130.365,222.837,130.365z"/>
			<path fill="#FFFFFF" d="M177.869,139.437c0.201,0,0.584-0.208,0.788-0.208C178.453,139.229,178.273,139.437,177.869,139.437z"/>
			<path fill="#FFFFFF" d="M233.327,129.552c0.989,0,2.003-0.199,3.017-0.199C235.33,129.353,234.316,129.552,233.327,129.552z"/>
			<path fill="#FFFFFF" d="M207.916,132.388c0.607-0.199,1.395-0.199,2.002-0.406C209.311,132.189,208.523,132.388,207.916,132.388z
				"/>
			<path fill="#FFFFFF" d="M228.082,129.958c0.991,0,1.802-0.203,2.813-0.203C229.884,129.755,228.87,129.958,228.082,129.958z"/>
			<path fill="#FFFFFF" d="M185.723,137.23c0.404-0.207,0.811-0.207,1.215-0.406C186.534,137.023,186.127,137.023,185.723,137.23z"
				/>
			<path fill="#FFFFFF" d="M181.693,138.217c0.406-0.199,0.609-0.199,1.014-0.406C182.504,138.019,182.1,138.217,181.693,138.217z"
				/>
			<path fill="#FFFFFF" d="M189.751,136.012c0.406-0.199,1.014-0.199,1.418-0.406C190.765,135.813,190.359,136.012,189.751,136.012z
				"/>
			<path fill="#FFFFFF" d="M194.186,135c0.607-0.203,1.014-0.203,1.621-0.406C195.199,134.797,194.592,135,194.186,135z"/>
			<path fill="#FFFFFF" d="M198.62,134.188c0.607-0.199,1.215-0.199,1.822-0.402C199.634,133.785,199.227,133.988,198.62,134.188z"
				/>
			<path fill="#FFFFFF" d="M203.278,133.176c0.587-0.199,1.194-0.199,1.802-0.406C204.472,132.977,203.865,133.176,203.278,133.176z
				"/>
		</g>
		<g>
			<path fill="#FFFFFF" d="M301.074,171.506c0.609,0.204,1.418,0.204,2.027,0.407C302.492,171.71,301.684,171.71,301.074,171.506z"
				/>
			<path fill="#FFFFFF" d="M296.032,170.897c0.809,0,1.418,0.208,2.227,0.208C297.45,170.897,296.841,170.897,296.032,170.897z"/>
			<path fill="#FFFFFF" d="M305.913,172.315c0.605,0.208,1.215,0.208,1.824,0.406C307.128,172.522,306.519,172.522,305.913,172.315z
				"/>
			<path fill="#FFFFFF" d="M310.751,173.103c0.609,0.208,1.215,0.208,1.621,0.406C311.767,173.31,311.36,173.31,310.751,173.103z"/>
			<path fill="#FFFFFF" d="M290.788,170.088c0.813,0,1.621,0.204,2.43,0.204C292.409,170.292,291.601,170.292,290.788,170.088z"/>
			<path fill="#FFFFFF" d="M319.844,175.13c0.382,0.203,0.788,0.203,1.397,0.406C320.632,175.333,320.226,175.333,319.844,175.13z"
				/>
			<path fill="#FFFFFF" d="M315.391,174.119c0.402,0.203,1.012,0.203,1.418,0.402C316.402,174.322,315.793,174.322,315.391,174.119z
				"/>
			<path fill="#FFFFFF" d="M147.416,197.324L147.416,197.324L147.416,197.324z"/>
			<path fill="#FFFFFF" d="M262.967,168.269c1.195,0,2.613,0,3.828,0C265.58,168.269,264.162,168.269,262.967,168.269z"/>
			<path fill="#FFFFFF" d="M324.077,176.345c0.402,0.204,0.809,0.204,1.189,0.407C324.886,176.548,324.479,176.345,324.077,176.345z
				"/>
			<path fill="#FFFFFF" d="M285.543,169.687c0.809,0,1.621,0.199,2.434,0.199C287.367,169.687,286.559,169.687,285.543,169.687z"/>
			<path fill="#FFFFFF" d="M244.221,168.467c1.192,0,2.407,0,3.825,0C246.831,168.269,245.413,168.269,244.221,168.467z"/>
			<path fill="#FFFFFF" d="M274.651,168.67c1.011,0,2.022,0.204,3.034,0.204C276.674,168.874,275.662,168.874,274.651,168.67z"/>
			<path fill="#FFFFFF" d="M280.298,169.077c1.012,0,1.824,0.203,2.836,0.203C282.122,169.28,281.11,169.28,280.298,169.077z"/>
			<path fill="#FFFFFF" d="M349.082,185.62c0,0,0.203,0,0.203,0.203C349.285,185.62,349.082,185.62,349.082,185.62z"/>
			<path fill="#FFFFFF" d="M358.759,192.08L358.759,192.08L358.759,192.08z"/>
			<path fill="#FFFFFF" d="M351.894,187.241L351.894,187.241L351.894,187.241z"/>
			<path fill="#FFFFFF" d="M354.327,188.837C354.53,188.837,354.53,188.837,354.327,188.837
				C354.53,188.837,354.53,188.837,354.327,188.837z"/>
			<path fill="#FFFFFF" d="M328.31,177.356c0.402,0,0.605,0.208,1.012,0.208C328.915,177.564,328.509,177.564,328.31,177.356z"/>
			<path fill="#FFFFFF" d="M360.559,193.676L360.559,193.676L360.559,193.676z"/>
			<path fill="#FFFFFF" d="M255.496,168.269c-1.801,0-3.827,0-5.649,0C251.669,168.269,253.695,168.269,255.496,168.269z"/>
			<path fill="#FFFFFF" d="M356.735,190.458L356.735,190.458L356.735,190.458z"/>
			<path fill="#FFFFFF" d="M339.604,181.188c0.182,0,0.406,0.199,0.588,0.199C340.011,181.387,339.786,181.387,339.604,181.188z"/>
			<path fill="#FFFFFF" d="M255.496,168.269c1.822,0,3.85,0,5.646,0C259.346,168.269,257.318,168.269,255.496,168.269z"/>
			<path fill="#FFFFFF" d="M332.133,178.551c0.203,0,0.609,0.203,0.813,0.203C332.742,178.754,332.539,178.754,332.133,178.551z"/>
			<path fill="#FFFFFF" d="M335.96,179.969c0.203,0,0.406,0.203,0.609,0.203C336.366,180.172,336.163,179.969,335.96,179.969z"/>
			<path fill="#FFFFFF" d="M343.028,182.605c0.199,0,0.406,0.199,0.406,0.199C343.228,182.805,343.028,182.805,343.028,182.605z"/>
			<path fill="#FFFFFF" d="M346.043,184.202c0.203,0,0.203,0.203,0.406,0.203C346.449,184.202,346.246,184.202,346.043,184.202z"/>
			<path fill="#FFFFFF" d="M269.021,168.467c0.995,0,2.206,0,3.222,0.203C271.227,168.467,270.016,168.467,269.021,168.467z"/>
			<path fill="#FFFFFF" d="M161.73,185.823c0.203,0,0.203-0.203,0.406-0.203C161.933,185.62,161.73,185.62,161.73,185.823z"/>
			<path fill="#FFFFFF" d="M158.894,187.241c0,0,0.203,0,0.203-0.203C159.097,187.241,159.097,187.241,158.894,187.241z"/>
			<path fill="#FFFFFF" d="M156.485,188.837C156.485,188.837,156.688,188.837,156.485,188.837
				C156.688,188.837,156.485,188.837,156.485,188.837z"/>
			<path fill="#FFFFFF" d="M164.543,184.202c0.203,0,0.203-0.203,0.406-0.203C164.746,184.202,164.543,184.202,164.543,184.202z"/>
			<path fill="#FFFFFF" d="M170.802,181.59c0.201,0,0.404-0.203,0.607-0.203C171.206,181.387,171.002,181.387,170.802,181.59z"/>
			<path fill="#FFFFFF" d="M167.582,182.805c0.203,0,0.404-0.199,0.607-0.199C167.986,182.805,167.785,182.805,167.582,182.805z"/>
			<path fill="#FFFFFF" d="M238.773,168.67c0.991,0,2.206,0,3.219-0.203C240.979,168.467,239.764,168.467,238.773,168.67z"/>
			<path fill="#FFFFFF" d="M255.496,243.305c-61.311,0-110.917-16.742-110.917-37.518v33.874c0,20.776,49.606,37.518,110.917,37.518
				c61.313,0,110.917-16.741,110.917-37.518l0,0v-33.874C366.413,226.563,316.809,243.305,255.496,243.305z"/>
			<path fill="#FFFFFF" d="M144.58,204.572v1.215C144.58,205.38,144.58,204.978,144.58,204.572L144.58,204.572z"/>
			<path fill="#FFFFFF" d="M174.222,180.172c0.203,0,0.607-0.203,0.811-0.203C174.83,179.969,174.626,180.172,174.222,180.172z"/>
			<path fill="#FFFFFF" d="M152.254,192.08L152.254,192.08L152.254,192.08z"/>
			<path fill="#FFFFFF" d="M366.413,204.572c0,0.406,0,0.809,0,1.215V204.572L366.413,204.572z"/>
			<path fill="#FFFFFF" d="M148.811,195.5L148.811,195.5L148.811,195.5z"/>
			<path fill="#FFFFFF" d="M150.432,193.879C150.432,193.676,150.432,193.676,150.432,193.879
				C150.432,193.676,150.432,193.676,150.432,193.879z"/>
			<path fill="#FFFFFF" d="M154.259,190.458L154.259,190.458L154.259,190.458z"/>
			<path fill="#FFFFFF" d="M217.795,170.495c0.811,0,1.599-0.203,2.409-0.203C219.394,170.292,218.606,170.292,217.795,170.495z"/>
			<path fill="#FFFFFF" d="M212.754,171.104c0.811-0.208,1.395-0.208,2.206-0.208C214.149,170.897,213.564,170.897,212.754,171.104z
				"/>
			<path fill="#FFFFFF" d="M222.837,169.885c0.811,0,1.598-0.199,2.612-0.199C224.436,169.687,223.648,169.687,222.837,169.885z"/>
			<path fill="#FFFFFF" d="M177.869,178.957c0.201,0,0.584-0.203,0.788-0.203C178.453,178.754,178.273,178.754,177.869,178.957z"/>
			<path fill="#FFFFFF" d="M233.327,168.874c0.989,0,2.003-0.204,3.017-0.204C235.33,168.874,234.316,168.874,233.327,168.874z"/>
			<path fill="#FFFFFF" d="M207.916,171.913c0.607-0.203,1.395-0.203,2.002-0.407C209.311,171.71,208.523,171.71,207.916,171.913z"
				/>
			<path fill="#FFFFFF" d="M228.082,169.28c0.788,0,1.802-0.203,2.813-0.203C229.884,169.28,228.87,169.28,228.082,169.28z"/>
			<path fill="#FFFFFF" d="M185.723,176.548c0.404-0.204,0.811-0.204,1.215-0.402C186.534,176.345,186.127,176.548,185.723,176.548z
				"/>
			<path fill="#FFFFFF" d="M181.693,177.763c0.406-0.199,0.609-0.199,1.014-0.406C182.504,177.564,182.1,177.564,181.693,177.763z"
				/>
			<path fill="#FFFFFF" d="M189.751,175.537c0.406-0.203,1.014-0.203,1.418-0.406C190.765,175.333,190.359,175.333,189.751,175.537z
				"/>
			<path fill="#FFFFFF" d="M194.186,174.521c0.607-0.199,1.014-0.199,1.621-0.402C195.199,174.322,194.592,174.322,194.186,174.521z
				"/>
			<path fill="#FFFFFF" d="M198.62,173.509c0.607-0.199,1.215-0.199,1.822-0.406C199.634,173.31,199.227,173.31,198.62,173.509z"/>
			<path fill="#FFFFFF" d="M203.278,172.721c0.587-0.199,1.194-0.199,1.802-0.406C204.472,172.522,203.865,172.522,203.278,172.721z
				"/>
		</g>
		<g>
			<path fill="#FFFFFF" d="M301.074,210.828c0.609,0.203,1.418,0.203,2.027,0.402C302.492,211.031,301.684,211.031,301.074,210.828z
				"/>
			<path fill="#FFFFFF" d="M296.032,210.219c0.809,0,1.418,0.203,2.227,0.203C297.45,210.422,296.841,210.219,296.032,210.219z"/>
			<path fill="#FFFFFF" d="M305.913,211.637c0.605,0.203,1.215,0.203,1.824,0.406C307.128,211.84,306.519,211.84,305.913,211.637z"
				/>
			<path fill="#FFFFFF" d="M310.751,212.648c0.609,0.207,1.215,0.207,1.621,0.406C311.767,212.855,311.36,212.648,310.751,212.648z"
				/>
			<path fill="#FFFFFF" d="M290.788,209.613c0.813,0,1.621,0.199,2.43,0.199C292.409,209.813,291.601,209.613,290.788,209.613z"/>
			<path fill="#FFFFFF" d="M319.844,214.655c0.382,0.199,0.788,0.199,1.397,0.406C320.632,214.854,320.226,214.655,319.844,214.655z
				"/>
			<path fill="#FFFFFF" d="M315.391,213.436c0.402,0.208,1.012,0.208,1.418,0.406C316.402,213.842,315.793,213.644,315.391,213.436z
				"/>
			<path fill="#FFFFFF" d="M147.416,236.646L147.416,236.646L147.416,236.646z"/>
			<path fill="#FFFFFF" d="M262.967,207.606c1.195,0,2.613,0,3.828,0C265.58,207.814,264.162,207.814,262.967,207.606z"/>
			<path fill="#FFFFFF" d="M324.077,215.667c0.402,0.203,0.809,0.203,1.189,0.406C324.886,215.87,324.479,215.87,324.077,215.667z"
				/>
			<path fill="#FFFFFF" d="M285.543,209.004c0.809,0,1.621,0.203,2.434,0.203C287.367,209.207,286.559,209.004,285.543,209.004z"/>
			<path fill="#FFFFFF" d="M244.221,207.814c1.192,0,2.407,0,3.825,0C246.831,207.814,245.413,207.814,244.221,207.814z"/>
			<path fill="#FFFFFF" d="M274.651,208.195c1.011,0,2.022,0.199,3.034,0.199C276.674,208.195,275.662,208.195,274.651,208.195z"/>
			<path fill="#FFFFFF" d="M280.298,208.602c1.012,0,1.824,0.199,2.836,0.199C282.122,208.602,281.11,208.602,280.298,208.602z"/>
			<path fill="#FFFFFF" d="M349.082,224.938c0,0,0.203,0,0.203,0.207C349.285,225.145,349.082,225.145,349.082,224.938z"/>
			<path fill="#FFFFFF" d="M358.759,231.397L358.759,231.397L358.759,231.397z"/>
			<path fill="#FFFFFF" d="M351.894,226.563L351.894,226.563L351.894,226.563z"/>
			<path fill="#FFFFFF" d="M354.327,228.18C354.53,228.18,354.53,228.18,354.327,228.18C354.53,228.18,354.53,228.18,354.327,228.18
				z"/>
			<path fill="#FFFFFF" d="M328.31,216.881c0.402,0,0.605,0.204,1.012,0.204C328.915,217.085,328.509,216.881,328.31,216.881z"/>
			<path fill="#FFFFFF" d="M360.559,233.221L360.559,233.221L360.559,233.221z"/>
			<path fill="#FFFFFF" d="M255.496,207.606c-1.801,0-3.827,0-5.649,0C251.669,207.606,253.695,207.606,255.496,207.606z"/>
			<path fill="#FFFFFF" d="M356.735,229.78L356.735,229.78L356.735,229.78z"/>
			<path fill="#FFFFFF" d="M339.604,220.708c0.182,0,0.406,0.203,0.588,0.203C340.011,220.912,339.786,220.708,339.604,220.708z"/>
			<path fill="#FFFFFF" d="M255.496,207.606c1.822,0,3.85,0,5.646,0C259.346,207.606,257.318,207.606,255.496,207.606z"/>
			<path fill="#FFFFFF" d="M332.133,218.096c0.203,0,0.609,0.183,0.813,0.183C332.742,218.279,332.539,218.096,332.133,218.096z"/>
			<path fill="#FFFFFF" d="M335.96,219.291c0.203,0,0.406,0.203,0.609,0.203C336.366,219.494,336.163,219.494,335.96,219.291z"/>
			<path fill="#FFFFFF" d="M343.028,222.126c0.199,0,0.406,0.203,0.406,0.203C343.228,222.126,343.028,222.126,343.028,222.126z"/>
			<path fill="#FFFFFF" d="M346.043,223.52c0.203,0,0.203,0.207,0.406,0.207C346.449,223.727,346.246,223.52,346.043,223.52z"/>
			<path fill="#FFFFFF" d="M269.021,207.814c0.995,0,2.206,0,3.222,0.199C271.227,208.013,270.016,208.013,269.021,207.814z"/>
			<path fill="#FFFFFF" d="M161.73,225.145c0.203,0,0.203-0.207,0.406-0.207C161.933,225.145,161.73,225.145,161.73,225.145z"/>
			<path fill="#FFFFFF" d="M158.894,226.762c0,0,0.203,0,0.203-0.199C159.097,226.563,159.097,226.563,158.894,226.762z"/>
			<path fill="#FFFFFF" d="M156.485,228.18C156.485,228.18,156.688,228.18,156.485,228.18
				C156.688,228.18,156.485,228.18,156.485,228.18z"/>
			<path fill="#FFFFFF" d="M164.543,223.727c0.203,0,0.203-0.207,0.406-0.207C164.746,223.52,164.543,223.727,164.543,223.727z"/>
			<path fill="#FFFFFF" d="M170.802,220.912c0.201,0,0.404-0.203,0.607-0.203C171.206,220.708,171.002,220.912,170.802,220.912z"/>
			<path fill="#FFFFFF" d="M167.582,222.33c0.203,0,0.404-0.203,0.607-0.203C167.986,222.126,167.785,222.126,167.582,222.33z"/>
			<path fill="#FFFFFF" d="M238.773,208.013c0.991,0,2.206,0,3.219-0.199C240.979,208.013,239.764,208.013,238.773,208.013z"/>
			<path fill="#FFFFFF" d="M255.496,282.83c-61.311,0-110.917-16.746-110.917-37.519v33.874c0,20.771,49.606,37.518,110.917,37.518
				c61.313,0,110.917-16.746,110.917-37.518l0,0v-33.874C366.413,265.881,316.809,282.83,255.496,282.83z"/>
			<path fill="#FFFFFF" d="M144.58,244.092v1.219C144.58,244.905,144.58,244.499,144.58,244.092L144.58,244.092z"/>
			<path fill="#FFFFFF" d="M174.222,219.494c0.203,0,0.607-0.203,0.811-0.203C174.83,219.494,174.626,219.494,174.222,219.494z"/>
			<path fill="#FFFFFF" d="M152.254,231.604C152.254,231.397,152.254,231.397,152.254,231.604
				C152.254,231.397,152.254,231.397,152.254,231.604z"/>
			<path fill="#FFFFFF" d="M366.413,244.092c0,0.407,0,0.813,0,1.219V244.092L366.413,244.092z"/>
			<path fill="#FFFFFF" d="M148.811,235.021C148.811,234.822,148.811,234.822,148.811,235.021
				C148.811,234.822,148.811,234.822,148.811,235.021z"/>
			<path fill="#FFFFFF" d="M150.432,233.221L150.432,233.221L150.432,233.221z"/>
			<path fill="#FFFFFF" d="M154.259,229.78L154.259,229.78L154.259,229.78z"/>
			<path fill="#FFFFFF" d="M217.795,209.813c0.811,0,1.599-0.199,2.409-0.199C219.394,209.613,218.606,209.813,217.795,209.813z"/>
			<path fill="#FFFFFF" d="M212.754,210.422c0.811-0.203,1.395-0.203,2.206-0.203C214.149,210.219,213.564,210.422,212.754,210.422z
				"/>
			<path fill="#FFFFFF" d="M222.837,209.207c0.811,0,1.598-0.203,2.612-0.203C224.436,209.004,223.648,209.207,222.837,209.207z"/>
			<path fill="#FFFFFF" d="M177.869,218.279c0.201,0,0.584-0.183,0.788-0.183C178.453,218.096,178.273,218.279,177.869,218.279z"/>
			<path fill="#FFFFFF" d="M233.327,208.395c0.989,0,2.003-0.199,3.017-0.199C235.33,208.195,234.316,208.195,233.327,208.395z"/>
			<path fill="#FFFFFF" d="M207.916,211.23c0.607-0.199,1.395-0.199,2.002-0.402C209.311,211.031,208.523,211.031,207.916,211.23z"
				/>
			<path fill="#FFFFFF" d="M228.082,208.801c0.788,0,1.802-0.199,2.813-0.199C229.884,208.602,228.87,208.602,228.082,208.801z"/>
			<path fill="#FFFFFF" d="M185.723,216.073c0.404-0.203,0.811-0.203,1.215-0.406C186.534,215.667,186.127,215.87,185.723,216.073z"
				/>
			<path fill="#FFFFFF" d="M181.693,217.085c0.406-0.204,0.609-0.204,1.014-0.407C182.504,216.881,182.1,217.085,181.693,217.085z"
				/>
			<path fill="#FFFFFF" d="M189.751,214.854c0.406-0.199,1.014-0.199,1.418-0.402C190.765,214.655,190.359,214.854,189.751,214.854z
				"/>
			<path fill="#FFFFFF" d="M194.186,213.842c0.607-0.199,1.014-0.199,1.621-0.406C195.199,213.644,194.592,213.842,194.186,213.842z
				"/>
			<path fill="#FFFFFF" d="M198.62,212.855c0.607-0.207,1.215-0.207,1.822-0.406C199.634,212.648,199.227,212.855,198.62,212.855z"
				/>
			<path fill="#FFFFFF" d="M203.278,212.043c0.587-0.203,1.194-0.203,1.802-0.406C204.472,211.84,203.865,211.84,203.278,212.043z"
				/>
		</g>
		<path fill="#FFFFFF" d="M255.496,122.894c61.263,0,110.917,16.808,110.917,37.518c0,20.706-49.654,37.518-110.917,37.518
			c-61.242,0-110.917-16.813-110.917-37.518C144.58,139.702,194.254,122.894,255.496,122.894z"/>
	</g>
</g>
</svg>
