<?xml version="1.0" encoding="utf-8"?>
<!-- Generator: Adobe Illustrator 21.0.0, SVG Export Plug-In . SVG Version: 6.00 Build 0)  -->
<svg version="1.1"
	 id="svg2" inkscape:version="0.48.4 r9939" sodipodi:docname="computer.svg" xmlns:cc="http://creativecommons.org/ns#" xmlns:dc="http://purl.org/dc/elements/1.1/" xmlns:inkscape="http://www.inkscape.org/namespaces/inkscape" xmlns:rdf="http://www.w3.org/1999/02/22-rdf-syntax-ns#" xmlns:sodipodi="http://sodipodi.sourceforge.net/DTD/sodipodi-0.dtd" xmlns:svg="http://www.w3.org/2000/svg"
	 xmlns="http://www.w3.org/2000/svg" xmlns:xlink="http://www.w3.org/1999/xlink" x="0px" y="0px" viewBox="0 0 512 512"
	 style="enable-background:new 0 0 512 512;" xml:space="preserve">
<style type="text/css">
	.st0{opacity:0.08;enable-background:new    ;}
	.st1{opacity:0.1;enable-background:new    ;}
	.st2{opacity:0.2;enable-background:new    ;}
	.st3{fill:#0D47A1;}
	.st4{fill:url(#SVGID_1_);}
	.st5{fill:#2196F3;fill-opacity:0.7;}
	.st6{opacity:0.39;fill:#FFFFFF;enable-background:new    ;}
	.st7{opacity:0.8;}
	.st8{opacity:0.8;fill:url(#SVGID_2_);enable-background:new    ;}
	.st9{opacity:0.8;fill:url(#SVGID_3_);enable-background:new    ;}
	.st10{opacity:0.8;fill:url(#SVGID_4_);enable-background:new    ;}
	.st11{fill:url(#SVGID_5_);}
	.st12{fill:url(#SVGID_6_);}
	.st13{fill:url(#SVGID_7_);}
	.st14{fill:url(#SVGID_8_);}
	.st15{opacity:0.8;fill:#FFFFFF;enable-background:new    ;}
	.st16{fill:#1976D2;}
	.st17{fill:url(#SVGID_9_);}
</style>
<polygon class="st0" points="68.2,512 68.2,8 451.8,8 451.8,369.9 451.8,512 "/>
<polygon class="st1" points="72.2,508 72.2,12 447.8,12 447.8,368.3 447.8,508 "/>
<polygon class="st2" points="68.2,504 68.2,8 443.8,8 443.8,364.3 443.8,504 "/>
<polygon class="st3" points="72.2,500 72.2,12 438.8,12 438.8,362.6 438.8,500 "/>
<g>
	<g>
		<g>
			<g>
				
					<linearGradient id="SVGID_1_" gradientUnits="userSpaceOnUse" x1="157" y1="-61.5" x2="157" y2="-46.5" gradientTransform="matrix(1 0 0 -1 0 258)">
					<stop  offset="0" style="stop-color:#3F51B5"/>
					<stop  offset="1" style="stop-color:#64B5F6"/>
				</linearGradient>
				<polygon class="st4" points="151.4,319.5 151.4,304.5 162.6,304.5 162.6,315.3 158.4,319.5 				"/>
			</g>
			<polygon class="st5" points="162.6,315.3 162.6,315.1 158.2,315.1 158.2,319.5 158.4,319.5 			"/>
			<path class="st6" d="M158.4,315.3h4.2l-4.2,4.2V315.3z"/>
		</g>
		<g class="st7">
			
				<linearGradient id="SVGID_2_" gradientUnits="userSpaceOnUse" x1="153.047" y1="-51.6" x2="160.947" y2="-51.6" gradientTransform="matrix(1 0 0 -1 0 258)">
				<stop  offset="0" style="stop-color:#F6F5F5"/>
				<stop  offset="0.341" style="stop-color:#F1F2F3"/>
				<stop  offset="0.6434" style="stop-color:#E7EAEB"/>
				<stop  offset="0.9302" style="stop-color:#D5DBDF"/>
				<stop  offset="1" style="stop-color:#CFD7DB"/>
			</linearGradient>
			<rect x="153" y="309.4" class="st8" width="7.9" height="0.4"/>
			
				<linearGradient id="SVGID_3_" gradientUnits="userSpaceOnUse" x1="153.047" y1="-50.4" x2="160.947" y2="-50.4" gradientTransform="matrix(1 0 0 -1 0 258)">
				<stop  offset="0" style="stop-color:#F6F5F5"/>
				<stop  offset="0.341" style="stop-color:#F1F2F3"/>
				<stop  offset="0.6434" style="stop-color:#E7EAEB"/>
				<stop  offset="0.9302" style="stop-color:#D5DBDF"/>
				<stop  offset="1" style="stop-color:#CFD7DB"/>
			</linearGradient>
			<rect x="153" y="308.2" class="st9" width="7.9" height="0.4"/>
			
				<linearGradient id="SVGID_4_" gradientUnits="userSpaceOnUse" x1="156.816" y1="-54.65" x2="160.941" y2="-54.65" gradientTransform="matrix(1 0 0 -1 0 258)">
				<stop  offset="0" style="stop-color:#F6F5F5"/>
				<stop  offset="0.341" style="stop-color:#F1F2F3"/>
				<stop  offset="0.6434" style="stop-color:#E7EAEB"/>
				<stop  offset="0.9302" style="stop-color:#D5DBDF"/>
				<stop  offset="1" style="stop-color:#CFD7DB"/>
			</linearGradient>
			<rect x="156.8" y="310.6" class="st10" width="4.1" height="4.1"/>
			<g class="st7">
				
					<linearGradient id="SVGID_5_" gradientUnits="userSpaceOnUse" x1="153.047" y1="-52.8" x2="156.479" y2="-52.8" gradientTransform="matrix(1 0 0 -1 0 258)">
					<stop  offset="0" style="stop-color:#F6F5F5"/>
					<stop  offset="0.341" style="stop-color:#F1F2F3"/>
					<stop  offset="0.6434" style="stop-color:#E7EAEB"/>
					<stop  offset="0.9302" style="stop-color:#D5DBDF"/>
					<stop  offset="1" style="stop-color:#CFD7DB"/>
				</linearGradient>
				<rect x="153" y="310.6" class="st11" width="3.4" height="0.4"/>
				
					<linearGradient id="SVGID_6_" gradientUnits="userSpaceOnUse" x1="153.047" y1="-54.1" x2="156.479" y2="-54.1" gradientTransform="matrix(1 0 0 -1 0 258)">
					<stop  offset="0" style="stop-color:#F6F5F5"/>
					<stop  offset="0.341" style="stop-color:#F1F2F3"/>
					<stop  offset="0.6434" style="stop-color:#E7EAEB"/>
					<stop  offset="0.9302" style="stop-color:#D5DBDF"/>
					<stop  offset="1" style="stop-color:#CFD7DB"/>
				</linearGradient>
				<rect x="153" y="311.9" class="st12" width="3.4" height="0.4"/>
				
					<linearGradient id="SVGID_7_" gradientUnits="userSpaceOnUse" x1="153.047" y1="-55.3" x2="156.479" y2="-55.3" gradientTransform="matrix(1 0 0 -1 0 258)">
					<stop  offset="0" style="stop-color:#F6F5F5"/>
					<stop  offset="0.341" style="stop-color:#F1F2F3"/>
					<stop  offset="0.6434" style="stop-color:#E7EAEB"/>
					<stop  offset="0.9302" style="stop-color:#D5DBDF"/>
					<stop  offset="1" style="stop-color:#CFD7DB"/>
				</linearGradient>
				<rect x="153" y="313.1" class="st13" width="3.4" height="0.4"/>
				
					<linearGradient id="SVGID_8_" gradientUnits="userSpaceOnUse" x1="153.047" y1="-56.5" x2="156.479" y2="-56.5" gradientTransform="matrix(1 0 0 -1 0 258)">
					<stop  offset="0" style="stop-color:#F6F5F5"/>
					<stop  offset="0.341" style="stop-color:#F1F2F3"/>
					<stop  offset="0.6434" style="stop-color:#E7EAEB"/>
					<stop  offset="0.9302" style="stop-color:#D5DBDF"/>
					<stop  offset="1" style="stop-color:#CFD7DB"/>
				</linearGradient>
				<rect x="153" y="314.3" class="st14" width="3.4" height="0.4"/>
			</g>
		</g>
	</g>
	<g>
		<rect x="151.4" y="304.5" class="st15" width="11.2" height="2.9"/>
		<g>
			<path class="st16" d="M156.1,305.9c0,0.2,0,0.4-0.1,0.5s-0.1,0.3-0.2,0.4c-0.1,0.1-0.2,0.2-0.4,0.2s-0.3,0.1-0.5,0.1
				s-0.3,0-0.5-0.1s-0.3-0.1-0.4-0.2c-0.1-0.1-0.2-0.2-0.3-0.4c-0.1-0.1-0.1-0.3-0.1-0.5s0-0.4,0.1-0.5s0.1-0.3,0.3-0.4
				c0.1-0.1,0.2-0.2,0.4-0.2c0.1,0,0.3-0.1,0.4-0.1c0.2,0,0.3,0,0.5,0.1c0.1,0,0.3,0.1,0.4,0.2c0.1,0.1,0.2,0.2,0.3,0.4
				C156.1,305.6,156.1,305.7,156.1,305.9z M154.3,305.9c0,0.1,0,0.2,0,0.3s0.1,0.2,0.1,0.2c0.1,0.1,0.1,0.1,0.2,0.1s0.2,0.1,0.3,0.1
				s0.2,0,0.3-0.1c0.1,0,0.1-0.1,0.2-0.1c0.1-0.1,0.1-0.1,0.1-0.2s0-0.2,0-0.3s0-0.2,0-0.3s-0.1-0.2-0.1-0.2
				c-0.1-0.1-0.1-0.1-0.2-0.1c-0.1,0-0.2-0.1-0.3-0.1s-0.2,0-0.3,0.1s-0.1,0.1-0.2,0.1c-0.1,0.1-0.1,0.1-0.1,0.2
				S154.3,305.8,154.3,305.9z"/>
			<path class="st16" d="M158.5,305.9c0,0.2,0,0.4-0.1,0.5s-0.2,0.3-0.3,0.4s-0.3,0.2-0.4,0.2s-0.4,0.1-0.6,0.1c-0.1,0-0.2,0-0.3,0
				s-0.3,0-0.4,0v-2.2c0.1,0,0.3,0,0.4,0s0.2,0,0.3,0c0.2,0,0.4,0,0.6,0.1s0.3,0.1,0.4,0.2s0.2,0.2,0.3,0.4
				C158.5,305.6,158.5,305.7,158.5,305.9z M157,306.6C157,306.6,157.1,306.6,157,306.6c0.1,0,0.2,0,0.2,0c0.3,0,0.5-0.1,0.6-0.2
				s0.2-0.3,0.2-0.5s-0.1-0.4-0.2-0.5s-0.3-0.2-0.6-0.2h-0.1H157V306.6L157,306.6z"/>
			<path class="st16" d="M160.6,304.8v0.4h-0.7v1.8h-0.5v-1.8h-0.7v-0.4H160.6z"/>
		</g>
	</g>
</g>
<g>
	<g>
		<g>
			<g>
				
					<linearGradient id="SVGID_9_" gradientUnits="userSpaceOnUse" x1="255.65" y1="-240" x2="255.65" y2="244" gradientTransform="matrix(1 0 0 -1 0 258)">
					<stop  offset="0" style="stop-color:#3F51B5"/>
					<stop  offset="1" style="stop-color:#64B5F6"/>
				</linearGradient>
				<polygon class="st17" points="74.3,498 74.3,14 437,14 437,361.9 437,498 				"/>
			</g>
		</g>
	</g>
</g>
<path class="st15" d="M319.4,124.8c-6.7,0-12.7,4.5-15.9,9.5h-63.4c0,0-15.4-1.2-28.9,5.2s-27.8,20.9-27.8,45.2s14.3,38.9,27.8,45.2
	c6.3,3,12.6,4.3,17.6,5.1v3.8l-24.9,23.5c-0.7-0.2-1.4-0.5-2.3-0.5c-5,0-9.1,3.8-9.1,8.6c0,4.8,4,8.6,9.1,8.6c5,0,9-3.8,9-8.6
	c0-0.8-0.3-1.4-0.5-2.1l24.9-23.5h30v-8.6h9c0,0,9.6,0.2,18.7,4.5c9.2,4.4,17.6,11.2,17.6,29.7s-8.3,25.4-17.6,29.7
	c-9.1,4.3-20.9,5.2-20.9,5.2h-63.4c-3.1-5.1-9.2-9.2-15.9-9.2c-10,0-18.2,7.7-18.2,17.1s8.1,17.1,18.2,17.1c6.7,0,12.7-4.4,15.9-9.5
	h63.4c0,0,15.4,1.2,28.9-5.2c13.5-6.3,27.8-20.9,27.8-45.2s-14.2-38.9-27.8-45.2c-13.4-6.4-26.6-6.2-26.6-6.2h-9v-2.7l24.9-23.5
	c0.7,0.2,1.4,0.5,2.3,0.5c5,0,9.1-3.8,9.1-8.6c0-4.7-4.1-8.6-9.1-8.6s-9.1,3.8-9.1,8.6c0,0.8,0.3,1.4,0.6,2.2l-25,23.5h-30v7.2
	c-3-0.7-6.3-1.6-9.6-3.2c-9.2-4.3-17.6-11.2-17.6-29.7s8.3-25.3,17.6-29.7c9.1-4.4,20.9-5.2,20.9-5.2h63.4c3.2,5.1,9.2,9.2,15.9,9.2
	c10,0,18.2-7.7,18.2-17.1C337.6,132.5,329.5,124.8,319.4,124.8z"/>
<path d="M451.8,271.5"/>
</svg>
