<?xml version="1.0" encoding="utf-8"?>
<!-- Generator: Adobe Illustrator 16.0.0, SVG Export Plug-In . SVG Version: 6.00 Build 0)  -->
<!DOCTYPE svg PUBLIC "-//W3C//DTD SVG 1.1//EN" "http://www.w3.org/Graphics/SVG/1.1/DTD/svg11.dtd">
<svg version="1.1" id="图层_1" xmlns="http://www.w3.org/2000/svg" xmlns:xlink="http://www.w3.org/1999/xlink" x="0px" y="0px"
	 width="512px" height="512px" viewBox="0 0 512 512" enable-background="new 0 0 512 512" xml:space="preserve">
<polygon opacity="0.08" enable-background="new    " points="68.2,512 68.2,8 451.801,8 451.801,369.913 309.714,512 "/>
<polygon opacity="0.1" enable-background="new    " points="72.2,508 72.2,12 447.801,12 447.801,368.256 308.057,508 "/>
<polygon opacity="0.2" enable-background="new    " points="68.2,504 68.2,8 443.801,8 443.801,364.256 304.058,504 "/>
<polygon fill="#0D47A1" points="72.199,500 72.199,12 438.793,12 438.793,362.62 301.754,500 "/>
<g>
	<g>
		<g>
			<g>
				
					<linearGradient id="SVGID_1_" gradientUnits="userSpaceOnUse" x1="338.6956" y1="1322.8005" x2="338.6955" y2="838.8005" gradientTransform="matrix(1 0 0 1 -83.2002 -824.8008)">
					<stop  offset="0" style="stop-color:#1976D2"/>
					<stop  offset="0.0226" style="stop-color:#1C79D3"/>
					<stop  offset="0.2859" style="stop-color:#3B93E2"/>
					<stop  offset="0.5416" style="stop-color:#52A6ED"/>
					<stop  offset="0.7843" style="stop-color:#5FB1F4"/>
					<stop  offset="1" style="stop-color:#64B5F6"/>
				</linearGradient>
				<polygon fill="url(#SVGID_1_)" points="74.185,498 74.185,14 436.807,14 436.807,361.875 300.682,498 				"/>
			</g>
			<polygon fill="#0D47A1" fill-opacity="0.39" points="436.807,361.875 436.807,356.013 293.214,356.013 293.214,498 300.682,498 
							"/>
			<path fill="#FFFFFF" fill-opacity="0.45" d="M300.493,361.875l136.345,0.189L300.682,498L300.493,361.875z"/>
		</g>
		<g>
			<path fill="#64B5F6" d="M368.146,240.134c0,62.186-50.479,112.666-112.649,112.666c-62.202,0-112.682-50.479-112.682-112.666
				c0-62.17,50.479-112.65,112.682-112.65C317.666,127.484,368.146,177.964,368.146,240.134z"/>
			<path fill="#FFFFFF" fill-opacity="0.8" d="M181.573,155.261c0,0,2.332,1.229,3.246,3.214c0.725,1.969,3.245,1.969,3.245,1.969
				h3.593l5.262-1.607l-1.292,2.868c0,0-27.54,12.793-21.994,20.371c5.608,7.579,3.592,9.548,3.592,11.911
				c0,2.332,1.639,0.347,1.639,0.347l1.639-4.301l2.332-3.23l2.363-3.639l0.725-1.985l3.214-5.562l3.971-2.332l3.623,2.332
				c0,0,1.607,0.693,1.229,1.954c-0.315,1.276-0.693,3.608-0.693,3.608s0.693,1.654,1.954,1.654c1.291,0,3.276-1.276,3.276-1.276
				l1.639,2.883l1.261,5.247l3.214,3.23l1.639,3.608l-1.639,3.23l1.639,1.276l3.624,3.97l0.692,1.97l-5.955-0.347
				c0,0-0.693-1.654-1.954-1.654c-1.26,0-6.302-0.362-6.302-0.362l-2.931,0.74l-1.575,1.954c0,0-1.985,3.246-3.277,3.246
				c-1.229,0-4.285-0.693-4.285-0.693s-2.363-0.725-3.624,1.607c-1.26,2.363,1.954,3.608,1.954,3.608l-5.577,1.639l-1.639,0.725
				c0,0-3.971,1.623-3.971,2.883c0,1.276,0,1.276,0,1.276l-1.229,3.23v1.969l-2.899,2.363l-2.898,1.954l-1.229,2.363v3.971
				c0,0-0.378,1.969-0.378,3.245c0,1.261,0,4.317,0,4.317s-1.292,1.276-1.985-1.261c-0.725-2.348-0.725-2.348-0.725-2.348
				l-1.26-2.915c0,0,1.26-0.331-0.347-1.607c-1.639-1.229-3.277-1.607-3.277-1.607s-0.693-0.693-2.332-0.693
				c-1.606,0,1.985,0.331-1.606,0c-3.624-0.378-3.624-0.378-3.624-0.378l-2.899,2.332v1.954c0,0-0.661,14.085,3.277,16.07h1.639
				l2.332-3.608l1.984,0.725v1.623l-0.378,2.915v1.607l1.954,2.001l1.292,3.607c1.639,2.868,0.693,3.593,1.953,4.286
				c1.261,0.725,2.363,2.915,2.363,2.915l1.607,0.693c0,0,1.261,0.377,2.332,0.725c1.292,0.378,1.292,0.378,1.292,0.378l0.409,1.796
				l0.378,1.449l1.576,1.954c0,0-1.229,0,1.638,0c2.899,0,2.899,0,2.899,0s0,0.756,1.985,1.67c1.985,0.661,0.409,0.378,1.985,0.661
				c1.638,0.41,4.316,0.725,4.316,0.725c2.867-0.346,2.867-0.346,2.867-0.346l2.017,2.898c0,0,1.229,0,1.576,1.229
				c0.378,1.293-1.954,0,0.378,1.293c2.363,1.26,0,0.378,2.363,1.26c2.332,0.914-0.756,0.725,2.3,0.725c3.057,0,3.593,0,4.885,0.348
				c1.26,0.346,1.985,3.276,1.985,3.276c2.331,2.868,2.331,2.868,2.331,2.868l0.378,3.592c0,0-1.26,0.725,1.607,0.725
				c2.931,0,0.725,0,2.931,0c2.143,0-0.378-0.725,1.953,0c2.332,0.693,2.332,0.693,2.332,0.693s3.593,2.93,4.884,2.93
				c1.261,0,3.624-0.409,4.885,0c1.26,0.348,1.953,2.301,4.285,2.868c2.363,0.378,3.246,0,4.853,1.261
				c1.67,1.26,1.67,1.26,1.67,1.26l0.347,4.285l-1.26,2.363l-3.246,1.261l-0.378,4.002l-1.67,4.002v1.922
				c0,0,2.017,1.67-1.576,2.017c-3.592,0.315-3.592,0.315-3.592,0.315l-1.639,1.638c0,0,0,0.41-0.725,1.639
				c-0.693,1.229-1.607,3.277-1.607,3.277l0.379,3.592v2.332l-1.261,1.954c0,0-1.135,0.567,1.953,2.552
				c3.215,1.954,5.735,1.954,6.491,3.184c0.693,1.322,2.71,2.395,2.71,2.395l-4.348-0.914l-2.71-0.914l-4.475-1.229l-8.666-4.506
				c0,0-12.981-10.65-16.983-19.253c0,0-3.372-5.073-9.139-7.216c0,0-14.273-13.014-15.534-16.26l-0.536-2.174v-1.072l-0.566-0.566
				v-1.229l-0.315-0.914l0.188-4.002l0.189-2.679l0.157-1.449l-0.157-1.071c0,0-0.756-0.693-0.756-0.883
				c0-0.157-0.536-1.827-0.536-1.827l-0.157-0.505l2.143-1.827l-0.567-1.638l0.378-0.914l1.261-0.883c0,0,0.725-1.071,0.725-1.26
				c0-0.348-1.261-1.261-1.261-1.261l-0.535,0.188l-0.567,1.639h-0.693c0,0-0.725-0.378-0.725-0.566
				c0-0.189-0.693-0.883-0.693-0.883l-0.913-0.378c0,0-0.726-0.189-0.883-0.536c-0.221-0.346-1.135-0.882-1.135-1.103
				c0-0.157-0.692-1.261-0.692-1.261l-0.883-0.314c0,0-1.134-1.639-1.134-2.002c0-0.156-0.536-1.055-0.536-1.055
				s-1.261-1.449-1.261-1.639c0-0.174-0.535-1.449-0.535-1.449h-0.883l-1.984-0.757l-1.292-1.575l-1.418-1.639
				c0,0-0.726-1.276-0.726-1.623c0-0.378-0.566-0.725-0.566-0.725h-0.883h-0.504l-1.261-1.071l-3.245-4.49l-0.599-2.001
				l-0.505-2.174l-0.378-3.608v-2.347l-1.449-16.748C143.004,225.876,147.857,184.408,181.573,155.261z"/>
			<path fill="#FFFFFF" fill-opacity="0.8" d="M308.875,141.144l3.623,2.915l1.796,0.898l1.229,1.434l0.221,1.45
				c0,0,0.347,1.45,0.188,1.812c-0.188,0.378-0.409,2.332-0.409,2.332s1.639,2.915,1.639,3.277c0,0.331,0.188,1.954-0.158,2.332
				c-0.378,0.173-2.363,1.434-2.552,0.882c-0.158-0.551-1.418-1.812-1.796-1.812c-0.379-0.205-1.45-1.26-1.45-1.26l2.899-0.394
				l-0.378-1.812c0,0-1.954-0.693-2.521-0.693c-0.535-0.158-2.552-1.229-2.552-1.229l-2.143-0.551c0,0-3.593-0.898-3.971-1.103
				c-0.347-0.173-1.828-0.693-1.828-0.693h-3.024c0,0-1.481,0.693-1.828,1.072c-0.157,0.378-1.984,2.347-1.984,2.347
				s-0.158,2.332-0.158,2.694c0,0.378-0.535,1.292-0.535,2.348c0,1.087-0.221,2.537-0.221,2.915s0,0.898,0,0.898l-0.347,1.576
				l-1.261,0.756l-1.606,1.276c0,0-1.418,1.056-1.418,1.434c0,0.378,0,1.812,0.535,2.883c0.504,1.071,0.347,2.127,1.04,2.679
				c0.725,0.551,1.071,1.26,1.639,1.481c0.567,0.157,0.157,0.331,1.071,0.331c0.725,0,1.449,0.221,1.796-0.173
				c0.378-0.157,1.292-0.157,1.67-0.709c0.347-0.551-0.378-0.189,0.347-0.551c0.693-0.173,0.693-0.693,1.292-0.173
				c0.693,0.536,1.261,1.276,1.418,1.607c0.189,0.378,0.725,1.276,1.292,1.828c0.693,0.378,1.261,1.812,1.261,1.812l1.071,1.103
				c0,0,0.157,0.157,0.882,0.157s1.796-0.157,1.796-0.157l0.41-0.725c0,0,0.662,0.189,0.882-0.173
				c0.189-0.378,0.189-0.898,0.189-0.898s-0.409-1.103-0.693-1.434c-0.221-0.378-0.599-1.276-0.599-1.276l0.221-1.26l0.662-0.741
				l0.22-0.882v-1.118l-0.787-0.378l-1.261-0.725c0,0-0.693,0.173-0.693-0.725c-0.188-0.709-0.188-0.709-0.188-0.709l-1.607-0.363
				l-1.103-0.567l1.26-0.898c0.725-1.229,0.914-1.607,0.914-1.954c0-0.347-0.189-1.45-0.189-1.45s-0.725-0.189-0.725-1.103
				c-0.157-0.882-0.157-1.434-0.157-1.434l0.157-0.693c0,0,0.189-0.567,0.725-0.567c0.379,0,1.072,0.567,1.45,0.567
				c0.347,0,1.04,0.173,1.04,0.173s0.378,0.142,0.378,0.725c0,0.346-0.158,1.229-0.158,1.229l0.693-1.055v1.276l-0.188,1.434v1.434
				l0.725,1.449l0.693,1.103c0,0,0.882,0.882,1.292,1.26c0.409,0.142,1.292,0.867,1.292,0.867l1.071,0.551l0.692,0.173l0.726-0.725
				c0,0,1.292,0.173,1.292-0.205c0.188-0.378,0.188-0.378,0.188-0.378s1.449-0.158,1.828-0.158c0.347,0,1.071,0,1.071,0
				s0.535,1.056,0.188,1.056c-0.378,0-0.567,0.378-1.48,0.725c-0.914,0.173-1.261,0-1.418,0.363
				c-0.189,0.378-0.725,1.292-0.725,1.292l0.725,0.189h0.504l0.756,0.725c0,0,0.158,0.158,0,0.693
				c-0.22,0.536,0.662,0.378-0.22,0.536c-1.04,0.22-1.576-0.158-1.576-0.158s-0.188-0.914-0.756-0.52
				c-0.378,0.378-0.567,1.261-0.567,1.261v1.245l0.756,1.812c0,0,0.315,0.378,0,0.583c-0.347,0.158-1.606,1.591-1.606,1.591
				s-0.221,0.52-0.757,0.52c-0.314,0-0.851,0-1.827,0.189c-0.662,0.173-0.662,0.173-1.387,0.378c-0.725,0.173-1.26,0.315-2.363,0.52
				c-1.071,0.173-3.057,0.173-3.718,0.173c-0.757,0-0.914,0-1.323-0.173c-0.347-0.205-0.189,0-0.693-0.725
				c-0.536-0.725-1.104-1.26-1.104-1.812c0-0.378,0-0.536-0.221-1.276c-0.157-0.693-0.157-1.229-0.661-1.229
				c-0.757,0-0.757,0-0.757,0s-1.386,1.087-1.229,1.45c0.157,0.362-0.157,0,1.071,0.882c1.229,0.898,1.639,2.174,1.639,2.174
				l-0.221,1.261l-2.332,1.276l-1.606,0.52l-0.189,1.087c0,0,0,0.378-0.347,0.898c-0.378,0.52-1.292,1.26-1.292,1.26
				s-0.725,0.173-0.882,0.725c-0.189,0.378-0.725,1.78-0.725,1.78s-0.725-0.173-1.45,0.378c-0.692,0.551,0.189,0.551-1.449,1.276
				c-1.606,0.693-1.606,0.693-1.606,0.693l-1.828-0.142l-1.071,0.347c0,0-1.418,0.173-1.607,0.551
				c-0.188,0.362-0.913,1.434-0.913,1.434s-0.347,0.725,0,0.725c0.378,0.158,0.913,0,1.796,0.158
				c0.725,0.221,0.914,0.221,1.48,0.551c0.536,0.221,1.072,0.741,1.072,0.741l1.953,1.765l1.135,2.348l-0.221,1.812l-2.143,0.725
				c0,0-1.261,0-1.797,0c-0.409,0-0.252,0-2.363,0c-2.143,0-2.521,0-2.898,0s-1.796-0.205-1.796-0.205l-1.261,0.205l-0.914,0.725
				l-0.535,0.173c0,0,0.756,1.623,0.756,2.158c0,0.552,0,1.245,0,1.245l-0.221,1.134l-0.535,1.261l-0.725,1.245l0.221,0.709
				c0,0-0.221,0.551,0.188,0.551c0.347,0,1.387-0.173,1.387,0.205c0,0.347-0.851,1.812-0.851,1.812l1.827,0.347
				c0,0-0.188-0.157,0.851,0.205c1.071,0.11,1.797,0.488,1.797,0.488l1.229,0.882l0.409,0.74l0.379-0.74c0,0,1.953-0.158,2.3-0.362
				c0.41-0.158,1.292-0.158,1.292-0.158h1.607c0,0,0.378,0.158,0.725-0.221c0.157-0.315,0.157-0.315,0.157-0.315
				s1.828-0.709,2.174-1.087c0.379-0.173,0.536-1.276,0.536-1.276s0.567-0.347,0.567-0.693s-0.378-1.26-0.378-1.26v-0.756
				l0.535-0.693c0,0,0.189-0.205,0.725-0.725c0.567-0.551,0.567-0.551,0.567-0.551s-0.221-0.158,0.504-0.536
				c0.757-0.205,1.292-0.725,1.639-0.725s-0.347,0.378,0.347,0c0.725-0.378,0.914-0.693,0.914-1.26c0-0.362,0.221-2.348,0.221-2.348
				l0.661-1.071l1.797,0.173l0.945,0.205c0,0,1.071,0.173,1.229-0.205c0.189-0.362,0.725-0.693,0.725-0.693l1.449-0.74
				c0,0-0.157-0.173,0.567-0.173c0.693,0,1.796,0,2.363,0c0.347,0,1.229,0,1.229,0s0.725,0.347,1.071,0.693
				c0.188,0.362,0.725,1.26,0.725,1.26l0.567,0.725h0.535c0.725,0.552,1.04,0.93,2.332,1.261c1.26,0.394,2.174,0.725,2.174,0.725
				s0.347,0.725,0.662,1.071c0.378,0.378,0.725,0.725,1.26,1.103c0.379,0.157,0.726,0.536,0.914,0.898
				c0.221,0.362,0.757,1.087,0.757,1.087l0.661,0.725l0.41-0.725v-1.276l-0.158-0.693c0,0-0.725-0.536,0.158-0.536
				c0.725,0,1.292,0,1.292,0l-0.726-1.103l-0.913-0.362l-1.229-0.914l-0.566-0.536l-0.567-0.173l-0.536-0.362l-0.725-0.536
				c0,0-1.229-0.205-1.229-0.725c-0.221-0.362-0.221-0.362-0.221-0.362l-1.261-0.189c0,0-1.229-0.709-1.229-1.056
				c0-0.378-0.221-1.481-0.221-1.481l-1.04-0.142c0,0,0.157-0.709,0.157-1.261c0-0.378,0.379-0.898,0.379-0.898l2.331-0.173
				l0.505,1.245l0.882,0.536l1.292,0.552l0.536,0.725l0.599,0.551c0,0,0.188,0.158,0.882,0.378c0.693,0.173,1.229,0.331,1.229,0.331
				s0.757,0.725,1.292,0.725c0.536,0.189,0.726,0.378,1.292,0.567c-0.409,0.331-0.409,0.331-0.409,0.331s0.188,0.378,0.725,0.725
				s1.071,1.071,1.071,1.449c0,0.363,0.378,1.607,0.725,1.812c0.347,0.173,0.536,0.173,1.261,0.882
				c0.661,0.693,0.661,1.45,1.229,1.828c0.725,0.173,1.261,0,1.261,0.693c0.221,0.725,0.221,1.26,0.221,1.26
				s0.567,0.205,0.882,0.205c0.347,0,1.071-0.709,1.071-0.709s0.757-1.103,0.221-1.308c-0.347-0.173-1.26-0.173-1.26-0.551
				c0-0.362,0-2.332,0-2.332l0.535-1.276l0.725-1.056l1.071,0.331l1.071-0.678l1.104,1.261l-0.347,1.418
				c0,0,0.157,0.898,0.661,1.607c0.41,0.725,1.261,1.654,1.261,1.654l1.827,1.638l2.553,0.693l0.567-0.173l3.75-0.725
				c0,0,0.566,0,0.882,0c0.378,0,2.174,3.072,2.174,3.072s0,1.26,0,1.954c0,0.725,0,2.537,0,2.537s-1.26,1.26-1.796,1.26
				c-0.567,0-1.985,0.693-1.985,0.693l-3.024,0.741l-1.985-0.189l-3.592-0.189c0,0-3.624-0.189-4.002-0.189s-1.639,0-1.985,0
				s-0.882,0.378-1.229,1.45c-0.41,1.071-1.104,1.434-1.104,1.434s0,0.551-0.693,0.551c-0.756,0-0.756,0.205-1.292-0.173
				c-0.535-0.378-3.056-0.898-3.056-0.898l-2.363-1.607l-1.292-1.071l-1.261-0.158h-3.592l-2.363-0.221l0.409-3.765l0.347,1.071
				l-0.756-2.521l-1.071-0.709l-2.521-0.551l-1.606,0.173l-2.111,0.551l-2.206,0.709l-1.292,0.378l-6.081,1.056l-2.206,0.914
				c0,0-0.914,0.536-1.229,0.709c-0.347,0.173-1.828,0.173-1.828,0.173s-1.071-0.173-1.606-0.347
				c-0.536-0.158-1.828-0.158-2.363-0.158c-0.536,0-1.639-0.189-1.985,0c-0.347,0.158-0.725,0.158-1.071,0.709
				c-0.379,0.551-1.639,1.985-1.639,1.985s-0.662,0.725-1.071,1.071c-0.158,0.347-1.071,1.434-1.071,1.434l-1.45,2.348l-0.913,1.103
				l0.221,1.261v0.898c0,0-0.567,0.536-0.883,0.725c-0.409,0.158-1.135,0.552-1.135,0.552s-0.535,0.157-1.071,0.677
				c-0.504,0.378-0.504,0.583-0.882,0.898c-0.41,0.378-1.67,1.261-1.67,1.261s-0.693,0.551-1.229,1.103
				c-0.347,0.552-1.103,1.245-1.26,1.623c-0.189,0.378-0.757,0.709-1.135,0.882c-0.283,0.205-1.071,1.654-1.197,2.032
				c-0.189,0.299-1.292,1.954-1.292,1.954l-0.725,3.057l-0.157,1.434c0,0,0.157,0.551,0.535,0.898s0.725,1.828,0.725,1.828v1.261
				c0,0-0.378,1.071-0.567,1.449c-0.157,0.347,0.189,2.159,0.189,2.159v1.071c0,0,0,0.378-0.535,0.882
				c-0.567,0.551-0.726,1.276-0.726,1.276l0.726,1.639l0.535,1.071v0.725l0.693,1.229c0,0,0.378,0.395,0.725,0.741
				c0.378,0.188,0.567,0.188,1.323,0.74c0.693,0.347,0.693,0.347,0.693,0.347s1.103,1.261,1.103,1.813
				c0,0.377,0.693,1.103,0.693,1.103l1.261,1.261c0,0,0.221,0.693,0.882,1.244c0.726,0.567,1.481,0.898,1.828,1.26
				c0.378,0.189,1.418,1.072,2.332,1.245c0.725,0.189,1.103,0.378,1.48,0.378c0.315,0-0.567-1.103,1.954,0.174
				c2.552,1.275,4.159,1.812,4.159,1.812l1.827,0.726c0,0,2.931,0.188,3.215-0.189c0.347-0.189,0.882-0.189,1.229-0.189
				s1.292,0,2.017,0c0.693,0,3.214-0.378,3.214-0.378l2.868-1.056c0,0,0.913-0.551,1.291-0.725c0.379-0.174,1.418-0.883,1.828-1.056
				c0.378-0.221,2.143-0.221,2.143-0.221s0-0.536,0.725,0c0.725,0.552,0.725,0.725,0.914,1.103c0.221,0.379,0.221,1.276,0.725,1.276
				c0.536,0.173,1.796,0.536,1.796,0.536s1.828-0.189,2.332,0c0.599,0.173,1.827,0.173,1.827,0.173l0.567,0.726l0.158,1.638v1.45
				c0,0-0.158,0.566,0,1.07c0.188,0.505,0.756,1.45,0.756,1.45s-0.756,1.071-1.135,1.229c-0.409,0.157-1.26,1.261-1.26,1.261
				l2.521,2.332l1.449,1.449l1.104,1.292c0,0,0.188,0.536,0.188,0.882c0,0.347-0.188,1.261,0,1.797
				c0.158,0.409,0.158,1.827,0.158,1.827s0.188,1.071,0.188,1.449s-0.347,2.144-0.347,2.144l-0.188,1.26l-0.788,2.174l-0.851,1.072
				l-1.292,1.26l-0.883,1.449l-0.157,1.954l-0.756,1.229c0,0,0.221,1.134,0.221,1.67c0,0.535,1.071,2.521,1.071,2.521l-0.189,1.638
				c0,0-0.693,2.363-0.693,2.899c0,0.567-0.567,1.261-0.567,1.827c0,0.348-0.188,1.954-0.188,1.954l0.188,1.985l0.662,1.953
				l-0.662,1.828c0,0-0.378,1.418-0.378,2.332c0,0.693,1.292,1.607,1.639,1.607c0.378,0,1.985-0.189,2.741-0.693
				c0.662-0.379,2.458-0.883,2.867-1.104c0.379-0.189,0.726,0.221,1.797-0.693c1.071-0.725,2.71-1.953,2.71-1.953
				s1.292-0.914,1.827-1.261c0.315-0.409,2.111-2.427,2.111-2.427s1.261-1.229,2.143-1.795c0.914-0.568,0-0.158,0.914-0.662
				c0.882-0.536,3.75-2.931,3.75-2.931l2.93-2.868c0,0,2.521-3.245,2.899-3.781c0.378-0.598,2.679-3.623,3.057-3.844
				c0.347-0.157,3.592-2.301,4.316-2.867c0.693-0.567,1.639-4.349,1.954-4.885c0.347-0.346,2.363-4.852,2.363-4.852l1.827-5.231
				l3.025-7.782l3.057-5.42c0,0,1.229-2.348,1.796-3.041c0.378-0.725,3.277-6.318,3.277-6.318l1.103-4.647l0.347-3.97h-1.796
				l-2.017,1.812l-1.828-0.551l-1.765,0.205l2.017-2.537l-0.566-1.954l-1.607-1.276l-2.174-3.23v-3.261l-2.332-3.766l-1.449-5.956
				c0,0-2.71-2.915-2.332-3.592c0.157-0.741,0.882-2.915,0.882-2.915l1.45,0.709c0,0,1.071,2.883,1.606,3.057
				c0.599,0.173,1.261,1.623,1.481,1.954c0.188,0.394,0.347,1.654,0.693,2.001c0.188,0.347,1.418,2.71,1.418,2.71
				s0.913,2.332,1.103,2.883c0.188,0.378,1.071,1.828,1.292,2.883c0.188,1.103,0.693,4.506,0.693,4.884
				c0,0.362,0.882,4.144,0.882,4.144s1.261-0.347,1.418-0.677c0.221-0.394,0.221-0.552,0.599-0.914
				c0.189-0.362,2.332-1.985,2.332-1.985l0.914-2.883c0,0,0.566-1.26,0.661-1.812c0.221-0.551,1.292-2.537,1.292-2.883
				c0-0.378-0.157-1.828,0-2.379c0.189-0.331,0.725-2.505,0.725-2.867c0-0.378,0.158-1.828,0.158-1.828l-0.158-3.23l1.418-1.812
				l0.725-1.985C367.989,226.096,362.758,169.472,308.875,141.144z"/>
		</g>
	</g>
	<g>
		<rect x="74.091" y="14" opacity="0.8" fill="#FFFFFF" enable-background="new    " width="362.811" height="92.767"/>
		<g enable-background="new    ">
			<path fill="#1976D2" d="M222.284,59.8c0,6.192-0.978,11.643-2.899,16.338c-1.953,4.695-4.601,8.634-7.972,11.785
				c-3.372,3.151-7.374,5.546-12.037,7.121c-4.632,1.639-9.643,2.426-14.968,2.426c-5.199,0-10.114-0.788-14.715-2.426
				c-4.633-1.575-8.634-3.97-12.101-7.121c-3.435-3.151-6.145-7.09-8.098-11.785c-1.985-4.695-2.994-10.146-2.994-16.338
				s1.04-11.627,3.089-16.322c2.048-4.695,4.82-8.634,8.287-11.848c3.497-3.198,7.499-5.593,12.1-7.185
				c4.569-1.607,9.358-2.41,14.432-2.41c5.199,0,10.084,0.803,14.716,2.41c4.601,1.591,8.634,3.986,12.068,7.185
				c3.435,3.214,6.145,7.153,8.13,11.848C221.307,48.173,222.284,53.608,222.284,59.8z M164.21,59.8
				c0,3.545,0.441,6.759,1.355,9.595c0.913,2.868,2.237,5.31,3.97,7.358c1.702,2.064,3.813,3.639,6.303,4.742
				c2.489,1.134,5.356,1.702,8.57,1.702c3.151,0,5.987-0.567,8.508-1.702c2.521-1.103,4.632-2.678,6.365-4.742
				c1.733-2.048,3.025-4.49,3.938-7.358c0.914-2.836,1.387-6.05,1.387-9.595s-0.473-6.759-1.387-9.642
				c-0.913-2.883-2.205-5.357-3.938-7.405c-1.733-2.048-3.844-3.639-6.365-4.758c-2.521-1.103-5.356-1.67-8.508-1.67
				c-3.214,0-6.081,0.583-8.57,1.733c-2.489,1.15-4.601,2.741-6.303,4.79c-1.732,2.064-3.057,4.521-3.97,7.405
				C164.652,53.151,164.21,56.334,164.21,59.8z"/>
			<path fill="#1976D2" d="M290.504,23.705v13.88h-22.971V95.99h-17.142V37.585h-22.94v-13.88H290.504z"/>
			<path fill="#1976D2" d="M347.349,23.705h17.142V95.99h-17.142V65.33h-28.737v30.66H301.47V23.705h17.142v27.65h28.737V23.705z"/>
		</g>
	</g>
</g>
</svg>
