<?xml version="1.0" encoding="utf-8"?>
<!-- Generator: Adobe Illustrator 16.0.0, SVG Export Plug-In . SVG Version: 6.00 Build 0)  -->
<!DOCTYPE svg PUBLIC "-//W3C//DTD SVG 1.1//EN" "http://www.w3.org/Graphics/SVG/1.1/DTD/svg11.dtd">
<svg version="1.1" id="图层_1" xmlns="http://www.w3.org/2000/svg" xmlns:xlink="http://www.w3.org/1999/xlink" x="0px" y="0px"
	 width="512px" height="512px" viewBox="0 0 512 512" enable-background="new 0 0 512 512" xml:space="preserve">
<g id="surface1">
	<polygon opacity="0.2" enable-background="new    " points="69,504 69,8 443,8 443,364.407 303.406,504 	"/>
	<polygon opacity="0.08" enable-background="new    " points="69,512 69,8 451,8 451,370.064 309.065,512 	"/>
	<polygon opacity="0.1" enable-background="new    " points="73,508 73,12 447,12 447,368.407 307.406,508 	"/>
	<g>
		
			<linearGradient id="SVGID_1_" gradientUnits="userSpaceOnUse" x1="588.801" y1="2711.9219" x2="588.801" y2="2223.9219" gradientTransform="matrix(1 0 0 1 -332.8008 -2211.9219)">
			<stop  offset="0" style="stop-color:#F57C00"/>
			<stop  offset="0.099" style="stop-color:#F78B0C"/>
			<stop  offset="0.3289" style="stop-color:#FAA823"/>
			<stop  offset="0.5576" style="stop-color:#FDBC33"/>
			<stop  offset="0.7827" style="stop-color:#FEC93D"/>
			<stop  offset="1" style="stop-color:#FFCD40"/>
		</linearGradient>
		<path fill="url(#SVGID_1_)" d="M301.75,500L439,362.75V12H73v488H301.75z"/>
		<polygon fill="#EE6F0B" fill-opacity="0.3922" points="294.125,355.125 294.125,500 301.75,500 439,362.75 439,355.125 		"/>
		<path fill="#FFFFFF" fill-opacity="0.3922" d="M301.75,362.75h137.135L301.75,500V362.75z"/>
		<g>
			<path fill="#B71C1C" fill-opacity="0.1961" d="M73,12v122h366V12H73z"/>
			<g>
				<path fill="#FFE0B2" d="M205.871,89.955c0,4.137-0.601,8.102-1.82,11.795c-1.126,3.644-3.069,6.873-5.871,9.683
					c-2.601,2.769-6.084,4.975-10.365,6.672c-4.293,1.549-9.465,2.358-15.636,2.358c-6.434,0-11.737-0.715-16.026-2.239
					c-4.293-1.487-7.917-3.307-10.895-5.452l7.202-13.545c2.601,1.471,5.401,2.9,8.438,4.272c3.188,1.43,6.344,2.087,9.684,2.087
					c4.863,0,8.813-1.109,11.737-3.459c3.028-2.391,4.584-6.787,4.584-13.167V47.002h-31.657V32.85h50.643v57.105"/>
				<path fill="#FFE0B2" d="M270.363,118.627l-4.502-19.814h-25.232l-4.293,19.806h-19.592c4.499-16.885,9.025-32.308,13.635-46.132
					c4.614-13.968,9.03-27.185,13.286-39.645h20.521c4.453,12.51,8.933,25.891,13.278,40.031
					c4.552,14.096,8.808,29.313,13.048,45.754H270.363 M253.474,49.468c-1.052,3.221-2.001,6.343-2.93,9.264
					c-0.772,2.859-1.606,5.719-2.437,8.64c-0.719,2.708-1.434,5.571-2.14,8.422c-0.604,2.859-1.204,5.83-1.824,8.878h18.563
					c-0.657-3.041-1.249-6.019-1.915-8.878c-0.566-2.859-1.273-5.723-2.104-8.422c-0.727-2.929-1.522-5.789-2.419-8.64
					C255.433,55.819,254.509,52.688,253.474,49.468"/>
				<path fill="#FFE0B2" d="M324.657,31.864c5.391,0,10.319,0.53,14.658,1.643c4.404,1.101,8.2,2.859,11.355,5.123
					c3.188,2.321,5.587,5.292,7.196,8.874c1.76,3.521,2.598,7.658,2.598,12.448c0,5.004-1.109,9.564-3.369,13.644
					c-2.269,4.022-5.948,7.128-11.166,9.264c1.759,2.408,3.582,5.065,5.514,8.044c1.964,2.859,3.845,5.924,5.652,9.17
					c1.824,3.098,3.591,6.286,5.192,9.535c1.742,3.155,3.255,6.167,4.463,9.026h-19.795c-2.31-5.542-5.062-10.846-8.24-15.96
					c-3.032-5.123-6.345-10.39-9.918-15.64h-9.794v31.601h-18.801V34.078c1.824-0.386,3.756-0.715,5.967-0.953
					c2.201-0.386,4.461-0.596,6.672-0.715c2.284-0.202,4.402-0.325,6.425-0.386C321.355,31.864,323.114,31.864,324.657,31.864
					 M341.338,59.833c0-4.527-1.586-7.834-4.618-9.987c-3.023-2.087-7.066-3.188-12.07-3.188c-0.715,0-1.553,0.065-2.588,0.123
					c-1.052,0-2.087,0.152-3.064,0.329v25.763h4.101c6.409,0,11.076-1.101,13.936-3.315C339.907,67.22,341.338,63.97,341.338,59.833
					"/>
			</g>
		</g>
		<g opacity="0.8">
			<path fill="#FFFFFF" d="M230.685,298.414c0,0-7.391,4.043,5.25,5.423c15.313,1.677,23.109,1.446,39.965-1.603
				c0,0,4.404,2.638,10.607,4.947C248.733,322.473,201.015,306.285,230.685,298.414"/>
			<path fill="#FFFFFF" d="M226.03,278.341c0,0-8.276,5.825,4.353,7.091c16.379,1.594,29.255,1.734,51.592-2.383
				c0,0,3.098,2.975,7.912,4.585C244.263,300.32,193.324,288.645,226.03,278.341"/>
			<path fill="#FFFFFF" d="M264.99,244.39c9.295,10.131-2.496,19.292-2.496,19.292s23.653-11.553,12.81-26.034
				c-10.131-13.521-17.938-20.25,24.182-43.421C299.483,194.228,233.417,209.893,264.99,244.39"/>
			<path fill="#FFFFFF" d="M314.911,313.253c0,0,5.474,4.224-6.015,7.511c-21.807,6.312-90.719,8.158-109.909,0.295
				c-6.84-2.857,6.017-6.803,10.133-7.625c4.229-0.887,6.608-0.715,6.608-0.715c-7.621-5.127-49.505,10.049-21.211,14.412
				C271.546,338.922,334.929,321.766,314.911,313.253"/>
			<path fill="#FFFFFF" d="M234.201,257.605c0,0-35.099,7.918-12.396,10.785c9.531,1.189,28.59,0.887,46.403-0.484
				c14.478-1.191,29.078-3.641,29.078-3.641s-5.118,2.069-8.816,4.469c-35.627,8.875-104.424,4.759-84.655-4.354
				C220.612,256.715,234.201,257.605,234.201,257.605"/>
			<path fill="#FFFFFF" d="M297.1,290.971c36.219-17.871,19.479-35.028,7.806-32.707c-2.857,0.596-4.101,1.076-4.101,1.076
				s1.011-1.605,3.098-2.264c23.105-7.69,40.854,22.752-7.51,34.798C296.393,291.857,296.985,291.381,297.1,290.971"/>
			<path fill="#FFFFFF" d="M275.301,156.875c0,0,20.073,19.009-19.005,48.256c-31.334,23.475-7.153,36.868,0,52.122
				c-18.286-15.599-31.745-29.423-22.752-42.237C246.76,196.195,283.403,187.083,275.301,156.875"/>
			<path fill="#FFFFFF" d="M237.768,339.283c34.731,2.137,88.104-1.135,89.421-16.745c0,0-2.448,5.899-28.774,10.616
				c-29.66,5.291-66.24,4.634-87.915,1.306C210.48,334.387,214.958,337.902,237.768,339.283"/>
		</g>
		<g>
			<path fill="#EE6F0B" d="M437,14v347.922L300.922,498H195H75V14H437 M439,12H73v488h122h106.75L439,362.75V12L439,12z"/>
		</g>
	</g>
</g>
</svg>
