<?xml version="1.0" encoding="utf-8"?>
<!-- Generator: Adobe Illustrator 21.0.0, SVG Export Plug-In . SVG Version: 6.00 Build 0)  -->
<svg version="1.1" id="图层_1" xmlns="http://www.w3.org/2000/svg" xmlns:xlink="http://www.w3.org/1999/xlink" x="0px" y="0px"
	 viewBox="0 0 512 512" style="enable-background:new 0 0 512 512;" xml:space="preserve">
<style type="text/css">
	.st0{opacity:0.08;enable-background:new    ;}
	.st1{opacity:0.1;enable-background:new    ;}
	.st2{opacity:0.2;enable-background:new    ;}
	.st3{fill:#3E2723;}
	.st4{fill:url(#SVGID_1_);}
	.st5{fill:#795548;fill-opacity:0.7;}
	.st6{opacity:0.39;fill:#FFFFFF;enable-background:new    ;}
	.st7{fill:#FFFFFF;}
	.st8{opacity:0.8;fill:#FFFFFF;enable-background:new    ;}
	.st9{enable-background:new    ;}
	.st10{fill:#5D4037;}
</style>
<polygon class="st0" points="68.2,512 68.2,8 451.8,8 451.8,369.9 309.7,512 "/>
<polygon class="st1" points="72.2,508 72.2,12 447.8,12 447.8,368.3 308.1,508 "/>
<polygon class="st2" points="68.2,504 68.2,8 443.8,8 443.8,364.3 304.1,504 "/>
<polygon class="st3" points="72.2,500 72.2,12 438.8,12 438.8,362.6 301.8,500 "/>
<g>
	<g>
		
			<linearGradient id="SVGID_1_" gradientUnits="userSpaceOnUse" x1="297.1001" y1="80.0991" x2="297.1001" y2="-403.9009" gradientTransform="matrix(1 0 0 -1 -41.6001 94.0991)">
			<stop  offset="0" style="stop-color:#785548"/>
			<stop  offset="1" style="stop-color:#9F9E9F"/>
		</linearGradient>
		<polygon class="st4" points="74.2,498 74.2,14 436.8,14 436.8,361.7 302,498 		"/>
		<polygon class="st5" points="436.8,361.9 436.8,356 293.3,356 293.3,498 300.7,498 		"/>
		<path class="st6" d="M300.5,361.9l136.3,0.2L300.7,498L300.5,361.9z"/>
	</g>
	<path class="st7" d="M203.8,107.3h-12.3v157.2h-9.3V107.3H170v157.2h-9.3V107.3h-12.2v157.2h-9.3V107.3H127v157.2h-3.2v66.6h84.1
		v-66.6h-4.2L203.8,107.3L203.8,107.3z M195.7,311.7H136v-38.6h59.7V311.7z"/>
	<g>
		<rect x="74.1" y="14" class="st8" width="362.8" height="92.8"/>
		<g class="st9">
			<path class="st10" d="M215.3,24.2v13.9h-22.9v58.4h-17.1V38.1h-22.9V24.2C152.3,24.2,215.3,24.2,215.3,24.2z"/>
			<path class="st10" d="M268.3,96.5c-0.8-2.5-1.7-5.1-2.7-7.7c-0.9-2.6-2-5.3-2.9-7.9H233c-0.9,2.6-1.9,5.3-2.9,7.9
				c-0.9,2.6-1.8,5.2-2.6,7.7h-17.8c2.9-7.8,5.6-15,8.2-21.6c2.6-6.6,5-12.8,7.5-18.7c2.5-5.8,4.9-11.4,7.3-16.6
				c2.4-5.2,4.9-10.4,7.4-15.4h16.2c2.5,5,5,10.1,7.4,15.4c2.4,5.2,4.9,10.8,7.3,16.6s5,12.1,7.6,18.7s5.3,13.8,8.2,21.6
				C286.7,96.5,268.3,96.5,268.3,96.5z M247.8,40.6c-0.4,1-0.9,2.5-1.7,4.3c-0.7,1.8-1.6,3.9-2.5,6.3c-0.9,2.4-2,5-3.1,7.8
				c-1.1,2.9-2.3,5.8-3.5,9h21.7c-1.1-3.1-2.3-6.1-3.3-9c-1.1-2.9-2.1-5.5-3.1-7.8c-0.9-2.4-1.8-4.5-2.6-6.3
				C248.8,43.1,248.2,41.7,247.8,40.6z"/>
			<path class="st10" d="M318.7,23.4c11.4,0,20.2,1.9,26.3,5.8c6,3.9,9.1,9.9,9.1,18c0,5.1-1.2,9.2-3.7,12.4s-6,5.6-10.6,7.5
				c1.5,1.8,3.2,3.9,4.8,6.2c1.7,2.3,3.4,4.8,5,7.3s3.2,5.2,4.8,7.9c1.5,2.7,3,5.4,4.3,8.1h-19.2c-1.4-2.4-2.8-4.8-4.3-7.2
				c-1.4-2.4-2.9-4.8-4.4-7.1c-1.5-2.3-3-4.5-4.5-6.5s-2.9-3.9-4.3-5.6h-8.5v26.4h-17.1V25.3c3.7-0.7,7.6-1.2,11.5-1.5
				C312,23.5,315.6,23.4,318.7,23.4z M319.7,37.3c-1.3,0-2.4,0-3.3,0.1c-1,0.1-2,0.1-2.8,0.2v19.6h4.9c6.4,0,11-0.8,13.9-2.3
				c2.8-1.5,4.2-4.1,4.2-7.8c0-3.5-1.4-6.1-4.2-7.6C329.4,38,325.2,37.3,319.7,37.3z"/>
		</g>
	</g>
</g>
</svg>
