<?xml version="1.0" encoding="utf-8"?>
<!-- Generator: Adobe Illustrator 16.0.0, SVG Export Plug-In . SVG Version: 6.00 Build 0)  -->
<!DOCTYPE svg PUBLIC "-//W3C//DTD SVG 1.1//EN" "http://www.w3.org/Graphics/SVG/1.1/DTD/svg11.dtd">
<svg version="1.1" id="图层_1" xmlns="http://www.w3.org/2000/svg" xmlns:xlink="http://www.w3.org/1999/xlink" x="0px" y="0px"
	 width="512px" height="512px" viewBox="0 0 512 512" enable-background="new 0 0 512 512" xml:space="preserve">
<polygon opacity="0.08" points="68.2,512 68.2,8 451.801,8 451.801,369.913 309.714,512 "/>
<polygon opacity="0.1" points="72.2,508 72.2,12 447.801,12 447.801,368.256 308.057,508 "/>
<polygon opacity="0.2" points="68.2,504 68.2,8 443.801,8 443.801,364.256 304.058,504 "/>
<polygon fill="#5F7B89" points="72.199,500 72.199,12 438.793,12 438.793,362.602 301.771,500 "/>
<g>
	<g>
		<g>
			
				<linearGradient id="SVGID_1_" gradientUnits="userSpaceOnUse" x1="297.0967" y1="432.8994" x2="297.0966" y2="916.9004" gradientTransform="matrix(1 0 0 1 -41.6001 -418.9004)">
				<stop  offset="0" style="stop-color:#F6F5F5"/>
				<stop  offset="0.341" style="stop-color:#F1F2F3"/>
				<stop  offset="0.6434" style="stop-color:#E7EAEB"/>
				<stop  offset="0.9302" style="stop-color:#D5DBDF"/>
				<stop  offset="1" style="stop-color:#CFD7DB"/>
			</linearGradient>
			<polygon fill="url(#SVGID_1_)" points="74.179,498 74.179,14 436.813,14 436.813,361.875 300.672,498 			"/>
		</g>
		<polygon fill="#455963" fill-opacity="0.7" points="436.813,361.875 436.813,356.021 293.217,356.021 293.217,498 300.672,498 		
			"/>
		<path fill="#8DA1AC" d="M300.465,361.875l136.349,0.183L300.672,498L300.465,361.875z"/>
	</g>
	<g>
		<rect x="120.972" y="161.626" opacity="0.8" fill="#5F7B89" enable-background="new    " width="268.85" height="13.301"/>
		<rect x="120.972" y="120.065" opacity="0.8" fill="#5F7B89" enable-background="new    " width="268.85" height="13.326"/>
		<rect x="249.26" y="200.732" opacity="0.8" fill="#5F7B89" enable-background="new    " width="140.337" height="140.362"/>
		<g opacity="0.8">
			<rect x="120.972" y="203.153" fill="#5F7B89" width="116.787" height="13.326"/>
			<rect x="120.972" y="244.723" fill="#5F7B89" width="116.787" height="13.301"/>
			<rect x="120.972" y="286.433" fill="#5F7B89" width="116.787" height="13.317"/>
			<rect x="120.972" y="328.001" fill="#5F7B89" width="116.787" height="13.301"/>
		</g>
	</g>
</g>
</svg>
