<?xml version="1.0" encoding="utf-8"?>
<!-- Generator: Adobe Illustrator 16.0.0, SVG Export Plug-In . SVG Version: 6.00 Build 0)  -->
<!DOCTYPE svg PUBLIC "-//W3C//DTD SVG 1.1//EN" "http://www.w3.org/Graphics/SVG/1.1/DTD/svg11.dtd">
<svg version="1.1" id="图层_1" xmlns="http://www.w3.org/2000/svg" xmlns:xlink="http://www.w3.org/1999/xlink" x="0px" y="0px"
	 width="512px" height="512px" viewBox="0 0 512 512" enable-background="new 0 0 512 512" xml:space="preserve">
<polygon opacity="0.08" enable-background="new    " points="68.2,512 68.2,8 451.801,8 451.801,369.913 309.714,512 "/>
<polygon opacity="0.1" enable-background="new    " points="72.2,508 72.2,12 447.801,12 447.801,368.256 308.057,508 "/>
<polygon opacity="0.2" enable-background="new    " points="68.2,504 68.2,8 443.801,8 443.801,364.256 304.058,504 "/>
<polygon fill="#3E2723" points="72.199,500 72.199,12 438.793,12 438.793,362.602 301.771,500 "/>
<g>
	<g>
		
			<linearGradient id="SVGID_1_" gradientUnits="userSpaceOnUse" x1="297.1116" y1="334.0994" x2="297.1115" y2="-149.9006" gradientTransform="matrix(1 0 0 -1 -41.6001 348.0991)">
			<stop  offset="0" style="stop-color:#785548"/>
			<stop  offset="1" style="stop-color:#9F9E9F"/>
		</linearGradient>
		<polygon fill="url(#SVGID_1_)" points="74.201,498 74.201,14 436.823,14 436.823,361.686 302.021,498 		"/>
		<polygon fill="#795548" fill-opacity="0.7" points="436.823,361.875 436.823,356.014 293.261,356.014 293.261,498 300.698,498 		
			"/>
		<path opacity="0.39" fill="#FFFFFF" enable-background="new    " d="M300.508,361.875l136.314,0.189L300.698,498L300.508,361.875z
			"/>
	</g>
	<path fill="#FFFFFF" d="M203.772,107.302h-12.289v157.174h-9.265V107.302h-12.226v157.174h-9.265V107.302h-12.226v157.174h-9.264
		V107.302h-12.227v157.174h-3.214v66.582h84.133v-66.582h-4.159V107.302z M195.705,311.711h-59.681v-38.6h59.681V311.711z"/>
	<g>
		<rect x="74.106" y="14" opacity="0.8" fill="#FFFFFF" enable-background="new    " width="362.78" height="92.767"/>
		<g enable-background="new    ">
			<path fill="#5D4037" d="M135.646,84.142c2.395,0,4.412-0.189,5.987-0.567c1.575-0.41,2.836-0.945,3.781-1.576
				c0.945-0.693,1.606-1.45,1.985-2.363c0.347-0.914,0.535-1.922,0.535-3.025c0-2.363-1.166-4.333-3.529-5.893
				c-2.331-1.56-6.365-3.246-12.068-5.058c-2.489-0.835-4.979-1.796-7.468-2.867s-4.727-2.442-6.681-4.065
				c-1.984-1.639-3.592-3.624-4.853-5.956c-1.229-2.332-1.858-5.167-1.858-8.492c0-3.34,0.661-6.349,1.984-9.027
				c1.324-2.679,3.183-4.963,5.578-6.838c2.426-1.875,5.356-3.324,8.791-4.333s7.342-1.513,11.659-1.513
				c5.104,0,9.548,0.52,13.266,1.576c3.75,1.04,6.807,2.19,9.232,3.435l-4.947,12.84c-2.111-1.056-4.475-1.969-7.09-2.773
				c-2.584-0.803-5.703-1.197-9.358-1.197c-4.128,0-7.059,0.536-8.854,1.623c-1.796,1.072-2.679,2.726-2.679,4.947
				c0,1.324,0.315,2.442,0.978,3.34c0.661,0.898,1.575,1.717,2.804,2.458c1.198,0.725,2.584,1.387,4.16,1.97
				c1.575,0.599,3.309,1.213,5.23,1.828c3.938,1.402,7.373,2.772,10.304,4.127s5.389,2.931,7.311,4.743
				c1.954,1.812,3.403,3.938,4.349,6.365c0.945,2.442,1.418,5.389,1.418,8.854c0,6.743-2.489,11.974-7.468,15.692
				c-4.979,3.75-12.479,5.609-22.499,5.609c-3.371,0-6.428-0.189-9.138-0.567c-2.71-0.378-5.104-0.882-7.185-1.418
				s-3.876-1.166-5.389-1.796c-1.48-0.599-2.741-1.197-3.781-1.765l4.854-12.919c2.269,1.198,5.041,2.237,8.381,3.183
				C126.729,83.638,130.794,84.142,135.646,84.142z"/>
			<path fill="#5D4037" d="M224.695,24.241h17.11v72.316h-17.11V65.866h-28.77v30.691h-17.142V24.241h17.142v27.65h28.77V24.241z"/>
			<path fill="#5D4037" d="M310.434,96.557c-0.819-2.521-1.732-5.104-2.71-7.751c-0.977-2.647-1.953-5.294-2.898-7.909h-29.746
				c-0.945,2.615-1.922,5.262-2.898,7.909c-0.945,2.647-1.828,5.231-2.679,7.751h-17.803c2.868-7.814,5.609-14.999,8.161-21.616
				c2.553-6.601,5.073-12.825,7.531-18.67s4.916-11.391,7.279-16.637c2.395-5.247,4.884-10.383,7.437-15.393h16.228
				c2.521,5.01,4.979,10.146,7.405,15.393c2.426,5.247,4.884,10.792,7.342,16.637s4.979,12.069,7.563,18.67
				c2.584,6.617,5.294,13.802,8.161,21.616H310.434z M289.89,40.627c-0.41,1.04-0.945,2.473-1.702,4.285
				c-0.725,1.812-1.575,3.892-2.521,6.255c-0.945,2.379-1.985,4.979-3.151,7.831c-1.134,2.852-2.332,5.829-3.529,8.964h21.742
				c-1.134-3.135-2.269-6.128-3.371-8.996c-1.104-2.852-2.111-5.467-3.12-7.831c-0.977-2.379-1.827-4.458-2.584-6.271
				C290.929,43.069,290.33,41.651,289.89,40.627z"/>
			<path fill="#5D4037" d="M360.851,23.406c11.407,0,20.167,1.938,26.248,5.798c6.082,3.86,9.106,9.863,9.106,17.993
				c0,5.073-1.197,9.201-3.655,12.368c-2.457,3.167-5.986,5.641-10.587,7.452c1.513,1.812,3.119,3.876,4.789,6.208
				c1.702,2.332,3.372,4.743,5.042,7.326c1.639,2.521,3.214,5.168,4.758,7.909c1.544,2.742,2.962,5.451,4.285,8.098h-19.158
				c-1.418-2.395-2.804-4.79-4.254-7.216c-1.418-2.426-2.898-4.79-4.411-7.09s-2.962-4.475-4.475-6.522
				c-1.449-2.048-2.898-3.907-4.38-5.578h-8.477v26.406h-17.109V25.281c3.749-0.693,7.594-1.182,11.563-1.45
				C354.139,23.548,357.699,23.406,360.851,23.406z M361.86,37.286c-1.261,0-2.396,0.032-3.341,0.11
				c-1.008,0.063-1.953,0.126-2.836,0.205v19.615h4.853c6.429,0,11.029-0.772,13.833-2.3c2.773-1.528,4.191-4.144,4.191-7.83
				c0-3.545-1.449-6.066-4.254-7.563S367.342,37.286,361.86,37.286z"/>
		</g>
	</g>
</g>
</svg>
