<?xml version="1.0" encoding="utf-8"?>
<!-- Generator: Adobe Illustrator 21.0.0, SVG Export Plug-In . SVG Version: 6.00 Build 0)  -->
<svg version="1.1" id="图层_1" xmlns="http://www.w3.org/2000/svg" xmlns:xlink="http://www.w3.org/1999/xlink" x="0px" y="0px"
	 viewBox="0 0 512 512" style="enable-background:new 0 0 512 512;" xml:space="preserve">
<style type="text/css">
	.st0{opacity:0.2;enable-background:new    ;}
	.st1{opacity:0.08;enable-background:new    ;}
	.st2{opacity:0.1;enable-background:new    ;}
	.st3{fill:url(#SVGID_1_);}
	.st4{fill:#673AB7;fill-opacity:0.3922;}
	.st5{fill:#FFFFFF;fill-opacity:0.3922;}
	.st6{opacity:0.8;fill:#FFFFFF;enable-background:new    ;}
	.st7{fill:#311B92;}
</style>
<g id="surface1">
	<polygon class="st0" points="69,504 69,8 443,8 443,364.4 303.4,504 	"/>
	<polygon class="st1" points="69,512 69,8 451,8 451,370.1 309.1,512 	"/>
	<polygon class="st2" points="73,508 73,12 447,12 447,368.4 307.4,508 	"/>
	
		<linearGradient id="SVGID_1_" gradientUnits="userSpaceOnUse" x1="464.0005" y1="-1575.9512" x2="464.0005" y2="-1087.9512" gradientTransform="matrix(1 0 0 -1 -208.0005 -1075.9512)">
		<stop  offset="0" style="stop-color:#512DA8"/>
		<stop  offset="8.000000e-03" style="stop-color:#532EA8"/>
		<stop  offset="0.2103" style="stop-color:#7843B4"/>
		<stop  offset="0.4127" style="stop-color:#9553BD"/>
		<stop  offset="0.6129" style="stop-color:#A95FC3"/>
		<stop  offset="0.8099" style="stop-color:#B666C7"/>
		<stop  offset="1" style="stop-color:#BA68C8"/>
	</linearGradient>
	<path class="st3" d="M301.8,500L439,362.8V12H73v488H301.8z"/>
	<polygon class="st4" points="294.1,355.1 294.1,500 301.8,500 439,362.8 439,355.1 	"/>
	<path class="st5" d="M301.8,362.8h137.1L301.8,500V362.8z"/>
	<path class="st6" d="M362.8,217.9c0-58.8-48-106.8-106.8-106.8s-106.7,48-106.7,106.8S197.2,324.6,256,324.6
		C314.8,324.6,362.8,276.7,362.8,217.9z M176,217.9c0-44.4,35.7-80.1,80-80.1c44.4,0,80,35.7,80,80.1S300.3,298,256,298
		S176,262.3,176,217.9z M301.8,217.9l-76.3-45.8v91.5L301.8,217.9z"/>
	<g>
		<path class="st7" d="M437,14v347.9L300.9,498H195H75V14H437 M439,12H73v488h122h106.8L439,362.8V12L439,12z"/>
	</g>
</g>
</svg>
