<?xml version="1.0" encoding="utf-8"?>
<!-- Generator: Adobe Illustrator 21.0.0, SVG Export Plug-In . SVG Version: 6.00 Build 0)  -->
<svg version="1.1"
	 id="svg2" inkscape:version="0.48.4 r9939" sodipodi:docname="computer.svg" xmlns:cc="http://creativecommons.org/ns#" xmlns:dc="http://purl.org/dc/elements/1.1/" xmlns:inkscape="http://www.inkscape.org/namespaces/inkscape" xmlns:rdf="http://www.w3.org/1999/02/22-rdf-syntax-ns#" xmlns:sodipodi="http://sodipodi.sourceforge.net/DTD/sodipodi-0.dtd" xmlns:svg="http://www.w3.org/2000/svg"
	 xmlns="http://www.w3.org/2000/svg" xmlns:xlink="http://www.w3.org/1999/xlink" x="0px" y="0px" viewBox="0 0 512 512"
	 style="enable-background:new 0 0 512 512;" xml:space="preserve">
<style type="text/css">
	.st0{opacity:0.08;enable-background:new    ;}
	.st1{opacity:0.1;enable-background:new    ;}
	.st2{opacity:0.2;enable-background:new    ;}
	.st3{fill:#0D47A1;}
	.st4{fill:url(#SVGID_1_);}
	.st5{fill:#2196F3;fill-opacity:0.7;}
	.st6{opacity:0.39;fill:#FFFFFF;enable-background:new    ;}
	.st7{opacity:0.8;}
	.st8{opacity:0.8;fill:url(#SVGID_2_);enable-background:new    ;}
	.st9{opacity:0.8;fill:url(#SVGID_3_);enable-background:new    ;}
	.st10{opacity:0.8;fill:url(#SVGID_4_);enable-background:new    ;}
	.st11{fill:url(#SVGID_5_);}
	.st12{fill:url(#SVGID_6_);}
	.st13{fill:url(#SVGID_7_);}
	.st14{fill:url(#SVGID_8_);}
	.st15{opacity:0.8;fill:#FFFFFF;enable-background:new    ;}
	.st16{fill:#1976D2;}
	.st17{fill:url(#SVGID_9_);}
</style>
<polygon class="st0" points="68.2,512 68.2,8 451.8,8 451.8,369.9 309.7,512 "/>
<polygon class="st1" points="72.2,508 72.2,12 447.8,12 447.8,368.3 308.1,508 "/>
<polygon class="st2" points="68.2,504 68.2,8 443.8,8 443.8,364.3 304.1,504 "/>
<polygon class="st3" points="72.2,500 72.2,12 438.8,12 438.8,362.6 301.8,500 "/>
<g>
	<g>
		<g>
			<g>
				
					<linearGradient id="SVGID_1_" gradientUnits="userSpaceOnUse" x1="157" y1="-61.5" x2="157" y2="-46.5" gradientTransform="matrix(1 0 0 -1 0 258)">
					<stop  offset="0" style="stop-color:#3F51B5"/>
					<stop  offset="1" style="stop-color:#64B5F6"/>
				</linearGradient>
				<polygon class="st4" points="151.4,319.5 151.4,304.5 162.6,304.5 162.6,315.3 158.4,319.5 				"/>
			</g>
			<polygon class="st5" points="162.6,315.3 162.6,315.1 158.2,315.1 158.2,319.5 158.4,319.5 			"/>
			<path class="st6" d="M158.4,315.3h4.2l-4.2,4.2V315.3z"/>
		</g>
		<g class="st7">
			
				<linearGradient id="SVGID_2_" gradientUnits="userSpaceOnUse" x1="153.047" y1="-51.6" x2="160.947" y2="-51.6" gradientTransform="matrix(1 0 0 -1 0 258)">
				<stop  offset="0" style="stop-color:#F6F5F5"/>
				<stop  offset="0.341" style="stop-color:#F1F2F3"/>
				<stop  offset="0.6434" style="stop-color:#E7EAEB"/>
				<stop  offset="0.9302" style="stop-color:#D5DBDF"/>
				<stop  offset="1" style="stop-color:#CFD7DB"/>
			</linearGradient>
			<rect x="153" y="309.4" class="st8" width="7.9" height="0.4"/>
			
				<linearGradient id="SVGID_3_" gradientUnits="userSpaceOnUse" x1="153.047" y1="-50.4" x2="160.947" y2="-50.4" gradientTransform="matrix(1 0 0 -1 0 258)">
				<stop  offset="0" style="stop-color:#F6F5F5"/>
				<stop  offset="0.341" style="stop-color:#F1F2F3"/>
				<stop  offset="0.6434" style="stop-color:#E7EAEB"/>
				<stop  offset="0.9302" style="stop-color:#D5DBDF"/>
				<stop  offset="1" style="stop-color:#CFD7DB"/>
			</linearGradient>
			<rect x="153" y="308.2" class="st9" width="7.9" height="0.4"/>
			
				<linearGradient id="SVGID_4_" gradientUnits="userSpaceOnUse" x1="156.816" y1="-54.65" x2="160.941" y2="-54.65" gradientTransform="matrix(1 0 0 -1 0 258)">
				<stop  offset="0" style="stop-color:#F6F5F5"/>
				<stop  offset="0.341" style="stop-color:#F1F2F3"/>
				<stop  offset="0.6434" style="stop-color:#E7EAEB"/>
				<stop  offset="0.9302" style="stop-color:#D5DBDF"/>
				<stop  offset="1" style="stop-color:#CFD7DB"/>
			</linearGradient>
			<rect x="156.8" y="310.6" class="st10" width="4.1" height="4.1"/>
			<g class="st7">
				
					<linearGradient id="SVGID_5_" gradientUnits="userSpaceOnUse" x1="153.047" y1="-52.8" x2="156.479" y2="-52.8" gradientTransform="matrix(1 0 0 -1 0 258)">
					<stop  offset="0" style="stop-color:#F6F5F5"/>
					<stop  offset="0.341" style="stop-color:#F1F2F3"/>
					<stop  offset="0.6434" style="stop-color:#E7EAEB"/>
					<stop  offset="0.9302" style="stop-color:#D5DBDF"/>
					<stop  offset="1" style="stop-color:#CFD7DB"/>
				</linearGradient>
				<rect x="153" y="310.6" class="st11" width="3.4" height="0.4"/>
				
					<linearGradient id="SVGID_6_" gradientUnits="userSpaceOnUse" x1="153.047" y1="-54.1" x2="156.479" y2="-54.1" gradientTransform="matrix(1 0 0 -1 0 258)">
					<stop  offset="0" style="stop-color:#F6F5F5"/>
					<stop  offset="0.341" style="stop-color:#F1F2F3"/>
					<stop  offset="0.6434" style="stop-color:#E7EAEB"/>
					<stop  offset="0.9302" style="stop-color:#D5DBDF"/>
					<stop  offset="1" style="stop-color:#CFD7DB"/>
				</linearGradient>
				<rect x="153" y="311.9" class="st12" width="3.4" height="0.4"/>
				
					<linearGradient id="SVGID_7_" gradientUnits="userSpaceOnUse" x1="153.047" y1="-55.3" x2="156.479" y2="-55.3" gradientTransform="matrix(1 0 0 -1 0 258)">
					<stop  offset="0" style="stop-color:#F6F5F5"/>
					<stop  offset="0.341" style="stop-color:#F1F2F3"/>
					<stop  offset="0.6434" style="stop-color:#E7EAEB"/>
					<stop  offset="0.9302" style="stop-color:#D5DBDF"/>
					<stop  offset="1" style="stop-color:#CFD7DB"/>
				</linearGradient>
				<rect x="153" y="313.1" class="st13" width="3.4" height="0.4"/>
				
					<linearGradient id="SVGID_8_" gradientUnits="userSpaceOnUse" x1="153.047" y1="-56.5" x2="156.479" y2="-56.5" gradientTransform="matrix(1 0 0 -1 0 258)">
					<stop  offset="0" style="stop-color:#F6F5F5"/>
					<stop  offset="0.341" style="stop-color:#F1F2F3"/>
					<stop  offset="0.6434" style="stop-color:#E7EAEB"/>
					<stop  offset="0.9302" style="stop-color:#D5DBDF"/>
					<stop  offset="1" style="stop-color:#CFD7DB"/>
				</linearGradient>
				<rect x="153" y="314.3" class="st14" width="3.4" height="0.4"/>
			</g>
		</g>
	</g>
	<g>
		<rect x="151.4" y="304.5" class="st15" width="11.2" height="2.9"/>
		<g>
			<path class="st16" d="M156.1,305.9c0,0.2,0,0.4-0.1,0.5s-0.1,0.3-0.2,0.4c-0.1,0.1-0.2,0.2-0.4,0.2s-0.3,0.1-0.5,0.1
				s-0.3,0-0.5-0.1s-0.3-0.1-0.4-0.2c-0.1-0.1-0.2-0.2-0.3-0.4c-0.1-0.1-0.1-0.3-0.1-0.5s0-0.4,0.1-0.5s0.1-0.3,0.3-0.4
				c0.1-0.1,0.2-0.2,0.4-0.2c0.1,0,0.3-0.1,0.4-0.1c0.2,0,0.3,0,0.5,0.1c0.1,0,0.3,0.1,0.4,0.2c0.1,0.1,0.2,0.2,0.3,0.4
				C156.1,305.6,156.1,305.7,156.1,305.9z M154.3,305.9c0,0.1,0,0.2,0,0.3s0.1,0.2,0.1,0.2c0.1,0.1,0.1,0.1,0.2,0.1s0.2,0.1,0.3,0.1
				s0.2,0,0.3-0.1c0.1,0,0.1-0.1,0.2-0.1c0.1-0.1,0.1-0.1,0.1-0.2s0-0.2,0-0.3s0-0.2,0-0.3s-0.1-0.2-0.1-0.2
				c-0.1-0.1-0.1-0.1-0.2-0.1c-0.1,0-0.2-0.1-0.3-0.1s-0.2,0-0.3,0.1s-0.1,0.1-0.2,0.1c-0.1,0.1-0.1,0.1-0.1,0.2
				S154.3,305.8,154.3,305.9z"/>
			<path class="st16" d="M158.5,305.9c0,0.2,0,0.4-0.1,0.5s-0.2,0.3-0.3,0.4s-0.3,0.2-0.4,0.2s-0.4,0.1-0.6,0.1c-0.1,0-0.2,0-0.3,0
				s-0.3,0-0.4,0v-2.2c0.1,0,0.3,0,0.4,0s0.2,0,0.3,0c0.2,0,0.4,0,0.6,0.1s0.3,0.1,0.4,0.2s0.2,0.2,0.3,0.4
				C158.5,305.6,158.5,305.7,158.5,305.9z M157,306.6C157,306.6,157.1,306.6,157,306.6c0.1,0,0.2,0,0.2,0c0.3,0,0.5-0.1,0.6-0.2
				s0.2-0.3,0.2-0.5s-0.1-0.4-0.2-0.5s-0.3-0.2-0.6-0.2h-0.1H157V306.6L157,306.6z"/>
			<path class="st16" d="M160.6,304.8v0.4h-0.7v1.8h-0.5v-1.8h-0.7v-0.4H160.6z"/>
		</g>
	</g>
</g>
<g>
	<g>
		<g>
			<g>
				
					<linearGradient id="SVGID_9_" gradientUnits="userSpaceOnUse" x1="255.65" y1="-240" x2="255.65" y2="244" gradientTransform="matrix(1 0 0 -1 0 258)">
					<stop  offset="0" style="stop-color:#3F51B5"/>
					<stop  offset="1" style="stop-color:#64B5F6"/>
				</linearGradient>
				<polygon class="st17" points="74.3,498 74.3,14 437,14 437,361.9 300.8,498 				"/>
			</g>
			<polygon class="st5" points="437,361.9 437,356 293.4,356 293.4,498 300.8,498 			"/>
			<path class="st6" d="M300.7,361.9l136.3,0.2L300.8,498L300.7,361.9z"/>
		</g>
	</g>
	<g>
		<rect x="74" y="14" class="st15" width="362.8" height="92.8"/>
	</g>
</g>
<g>
	<polygon class="st15" points="174.8,153.1 236.3,153.1 236.3,138.1 159.7,138 159.7,214.7 174.8,214.7 	"/>
	<polygon class="st15" points="274.6,138.1 274.6,153.1 336.2,153.1 336.2,214.7 351.3,214.7 351.3,138 	"/>
	<polygon class="st15" points="351.3,253 336.2,253 336.2,314.5 274.6,314.5 274.6,329.6 351.3,329.6 	"/>
	<polygon class="st15" points="174.8,314.5 174.8,253 159.7,253 159.7,329.6 236.3,329.6 236.3,314.5 	"/>
</g>
<g>
	<g>
		<path class="st16" d="M206,60.7c0,6.3-0.9,11.8-2.8,16.6c-1.9,4.8-4.4,8.8-7.7,12s-7.1,5.6-11.6,7.3c-4.5,1.6-9.3,2.4-14.5,2.4
			c-5,0-9.8-0.8-14.2-2.4c-4.5-1.6-8.3-4-11.7-7.3c-3.3-3.2-5.9-7.2-7.8-12c-1.9-4.8-2.9-10.3-2.9-16.6s1-11.8,3-16.6s4.6-8.8,8-12
			s7.2-5.7,11.7-7.3c4.4-1.6,9.1-2.4,13.9-2.4c5,0,9.8,0.8,14.2,2.4c4.5,1.6,8.3,4.1,11.7,7.3c3.3,3.3,5.9,7.3,7.8,12
			C205,48.9,206,54.4,206,60.7z M149.9,60.7c0,3.6,0.4,6.9,1.3,9.8c0.9,2.9,2.2,5.4,3.8,7.5c1.7,2.1,3.7,3.7,6.1,4.8
			c2.4,1.1,5.2,1.7,8.3,1.7c3,0,5.8-0.6,8.2-1.7s4.5-2.7,6.1-4.8c1.7-2.1,2.9-4.6,3.8-7.5c0.9-2.9,1.3-6.1,1.3-9.8s-0.4-6.9-1.3-9.8
			c-0.9-2.9-2.2-5.4-3.8-7.5c-1.7-2.1-3.7-3.7-6.1-4.8c-2.4-1.1-5.2-1.7-8.2-1.7c-3.1,0-5.9,0.6-8.3,1.7c-2.4,1.2-4.4,2.8-6.1,4.9
			c-1.7,2.1-2.9,4.6-3.8,7.5C150.3,53.9,149.9,57.2,149.9,60.7z"/>
		<path class="st16" d="M284.1,60.7c0,6.4-1,11.9-3,16.6c-2,4.7-4.8,8.7-8.4,11.8c-3.6,3.1-8.1,5.4-13.3,7
			c-5.2,1.6-11.1,2.3-17.6,2.3c-3,0-6.4-0.1-10.4-0.4c-4-0.2-7.8-0.8-11.7-1.5V25c3.8-0.7,7.8-1.2,11.9-1.4
			c4.1-0.2,7.7-0.4,10.7-0.4c6.3,0,12,0.7,17.1,2.1s9.5,3.6,13.2,6.7c3.7,3,6.5,6.9,8.5,11.7C283.1,48.4,284.1,54,284.1,60.7z
			 M236.3,84c0.8,0.1,1.7,0.1,2.7,0.2c1,0,2.2,0.1,3.7,0.1c8.3,0,14.4-2.1,18.4-6.3c4-4.2,6-9.9,6-17.3c0-7.7-1.9-13.5-5.7-17.5
			c-3.8-4-9.9-5.9-18.1-5.9c-1.1,0-2.3,0-3.5,0.1c-1.2,0-2.3,0.1-3.4,0.3L236.3,84L236.3,84z"/>
		<path class="st16" d="M317.4,24c1.3,2.3,2.7,5.2,4.4,8.6c1.7,3.4,3.4,7.1,5.2,11.1c1.8,4,3.6,8.1,5.4,12.2c1.8,4.2,3.4,8.1,5,11.8
			c1.6-3.7,3.2-7.6,5-11.8s3.6-8.3,5.4-12.2c1.8-4,3.5-7.7,5.2-11.1s3.1-6.3,4.4-8.6h15.1c0.7,4.9,1.4,10.3,2,16.4
			c0.6,6,1.1,12.3,1.6,18.9c0.5,6.5,0.9,13.1,1.3,19.7c0.4,6.6,0.7,12.8,1,18.5h-16.1c-0.2-7.1-0.5-14.9-0.8-23.3
			c-0.4-8.4-0.9-16.9-1.6-25.4c-1.3,3-2.7,6.3-4.3,9.9c-1.6,3.6-3.1,7.2-4.6,10.8c-1.5,3.6-3,7-4.4,10.3s-2.6,6.1-3.6,8.4h-11.6
			c-1-2.3-2.2-5.1-3.6-8.4s-2.9-6.7-4.4-10.3c-1.5-3.6-3.1-7.2-4.6-10.8c-1.6-3.6-3-6.9-4.3-9.9c-0.7,8.6-1.2,17-1.6,25.4
			s-0.6,16.2-0.8,23.3H296c0.3-5.8,0.6-12,1-18.5c0.4-6.6,0.8-13.1,1.3-19.7c0.5-6.5,1-12.8,1.6-18.9c0.6-6,1.3-11.5,2-16.4
			C301.9,24,317.4,24,317.4,24z"/>
	</g>
</g>
</svg>
