<?xml version="1.0" encoding="utf-8"?>
<!-- Generator: Adobe Illustrator 16.0.0, SVG Export Plug-In . SVG Version: 6.00 Build 0)  -->
<!DOCTYPE svg PUBLIC "-//W3C//DTD SVG 1.1//EN" "http://www.w3.org/Graphics/SVG/1.1/DTD/svg11.dtd">
<svg version="1.1" id="图层_1" xmlns="http://www.w3.org/2000/svg" xmlns:xlink="http://www.w3.org/1999/xlink" x="0px" y="0px"
	 width="512px" height="512px" viewBox="0 0 512 512" enable-background="new 0 0 512 512" xml:space="preserve">
<g id="surface1">
	<polygon opacity="0.2" enable-background="new    " points="69,504 69,8 443,8 443,364.407 303.406,504 	"/>
	<polygon opacity="0.08" enable-background="new    " points="69,512 69,8 451,8 451,370.064 309.065,512 	"/>
	<polygon opacity="0.1" enable-background="new    " points="73,508 73,12 447,12 447,368.407 307.406,508 	"/>
	<g>
		
			<linearGradient id="SVGID_1_" gradientUnits="userSpaceOnUse" x1="422.4006" y1="2053.9609" x2="422.4006" y2="1565.9609" gradientTransform="matrix(1 0 0 1 -166.4004 -1553.9609)">
			<stop  offset="0" style="stop-color:#F57C00"/>
			<stop  offset="0.099" style="stop-color:#F78B0C"/>
			<stop  offset="0.3289" style="stop-color:#FAA823"/>
			<stop  offset="0.5576" style="stop-color:#FDBC33"/>
			<stop  offset="0.7827" style="stop-color:#FEC93D"/>
			<stop  offset="1" style="stop-color:#FFCD40"/>
		</linearGradient>
		<path fill="url(#SVGID_1_)" d="M301.75,500L439,362.75V12H73v488H301.75z"/>
		<polygon fill="#EE6F0B" fill-opacity="0.3922" points="294.125,355.125 294.125,500 301.75,500 439,362.75 439,355.125 		"/>
		<path fill="#FFFFFF" fill-opacity="0.3922" d="M301.75,362.75h137.135L301.75,500V362.75z"/>
		<path opacity="0.8" fill="#FFFFFF" d="M256,103.492c-8.282,0-15.25,4.766-18.405,11.466c-6.318-4.347-15.073-5.123-22.283-1.163
			c-7.087,3.845-10.838,11.38-10.123,18.647c-7.687-0.686-15.611,2.921-19.72,9.679c-4.108,6.762-3.278,15.102,1.249,21.059
			c-7.087,3.007-12.029,9.65-12.029,17.485c0,7.863,4.942,14.445,12.029,17.481c-4.527,5.99-5.357,14.272-1.249,21.092
			c4.108,6.762,12.033,10.304,19.72,9.622c-0.715,7.321,3.036,14.798,10.123,18.701c3.221,1.758,6.733,2.44,10.188,2.44v82.24
			l30.5-28.956l30.5,28.956v-82.24c3.451,0,6.968-0.682,10.188-2.44c7.083-3.903,10.838-11.38,10.123-18.701
			c7.69,0.682,15.611-2.859,19.72-9.622c4.108-6.82,3.278-15.102-1.249-21.092c7.083-3.036,12.029-9.618,12.029-17.481
			c0-7.834-4.946-14.478-12.029-17.485c4.527-5.957,5.357-14.297,1.249-21.059c-4.108-6.758-12.029-10.365-19.72-9.679
			c0.715-7.268-3.04-14.802-10.123-18.647c-7.214-3.96-15.965-3.184-22.283,1.163C271.25,108.257,264.282,103.492,256,103.492z
			 M256,132.114c28.06,0,50.812,21.626,50.812,48.252c0,26.63-22.752,48.19-50.812,48.19s-50.812-21.561-50.812-48.19
			C205.189,153.74,227.941,132.114,256,132.114z M256,141.797c-22.456,0-40.688,17.243-40.688,38.569
			c0,21.265,18.232,38.569,40.688,38.569s40.688-17.304,40.688-38.569C296.689,159.04,278.456,141.797,256,141.797z"/>
		<g>
			<path fill="#EE6F0B" d="M437,14v347.922L300.922,498H195H75V14H437 M439,12H73v488h122h106.75L439,362.75V12L439,12z"/>
		</g>
	</g>
</g>
</svg>
