<?xml version="1.0" encoding="utf-8"?>
<!-- Generator: Adobe Illustrator 21.0.0, SVG Export Plug-In . SVG Version: 6.00 Build 0)  -->
<svg version="1.1" id="图层_1" xmlns="http://www.w3.org/2000/svg" xmlns:xlink="http://www.w3.org/1999/xlink" x="0px" y="0px"
	 viewBox="0 0 512 512" style="enable-background:new 0 0 512 512;" xml:space="preserve">
<style type="text/css">
	.st0{opacity:0.2;enable-background:new    ;}
	.st1{opacity:0.08;enable-background:new    ;}
	.st2{opacity:0.1;enable-background:new    ;}
	.st3{fill:url(#SVGID_1_);}
	.st4{fill:#B71C1C;fill-opacity:0.3922;}
	.st5{fill:#FFFFFF;fill-opacity:0.3922;}
	.st6{opacity:0.8;fill:#FFFFFF;enable-background:new    ;}
	.st7{fill:#B71C1C;}
</style>
<g id="surface1">
	<polygon class="st0" points="69,504 69,8 443,8 443,364.4 303.4,504 	"/>
	<polygon class="st1" points="69,512 69,8 451,8 451,370.1 309.1,512 	"/>
	<polygon class="st2" points="73,508 73,12 447,12 447,368.4 307.4,508 	"/>
	<g>
		
			<linearGradient id="SVGID_1_" gradientUnits="userSpaceOnUse" x1="505.6006" y1="2660.9414" x2="505.6006" y2="2172.9414" gradientTransform="matrix(1 0 0 1 -249.6006 -2160.9414)">
			<stop  offset="0" style="stop-color:#512DA8"/>
			<stop  offset="8.000000e-03" style="stop-color:#D32F2F"/>
			<stop  offset="0.3041" style="stop-color:#E33932"/>
			<stop  offset="0.6579" style="stop-color:#F04035"/>
			<stop  offset="1" style="stop-color:#F44336"/>
		</linearGradient>
		<path class="st3" d="M301.8,500L439,362.8V12H73v488H301.8z"/>
		<polygon class="st4" points="294.1,355.1 294.1,500 301.8,500 439,362.8 439,355.1 		"/>
		<path class="st5" d="M301.8,362.8h137.1L301.8,500V362.8z"/>
		<path class="st6" d="M195,312V199.5l-21.8,18.2l-18.9-37.3l44.6-36.2h26.5c17.3,10.8,46.2,9.2,61,0h25.4l45.8,34.5l-18.8,37.2
			L317,196.7V312H195L195,312z"/>
		<g>
			<path class="st7" d="M437,14v347.9L300.9,498H195H75V14H437 M439,12H73v488h122h106.8L439,362.8V12L439,12z"/>
		</g>
	</g>
</g>
</svg>
