<?xml version="1.0" encoding="utf-8"?>
<!-- Generator: Adobe Illustrator 21.0.0, SVG Export Plug-In . SVG Version: 6.00 Build 0)  -->
<svg version="1.1" id="图层_1" xmlns="http://www.w3.org/2000/svg" xmlns:xlink="http://www.w3.org/1999/xlink" x="0px" y="0px"
	 viewBox="0 0 512 512" style="enable-background:new 0 0 512 512;" xml:space="preserve">
<style type="text/css">
	.st0{opacity:0.08;enable-background:new    ;}
	.st1{opacity:0.1;enable-background:new    ;}
	.st2{opacity:0.2;enable-background:new    ;}
	.st3{fill:#AE2124;}
	.st4{fill:url(#SVGID_1_);}
	.st5{fill:#AE2124;fill-opacity:0.3922;}
	.st6{fill:#FFFFFF;fill-opacity:0.3922;}
	.st7{opacity:0.8;enable-background:new    ;}
	.st8{fill:#FFFFFF;}
</style>
<polygon class="st0" points="68.2,512 68.2,8 451.8,8 451.8,369.9 309.7,512 "/>
<polygon class="st1" points="72.2,508 72.2,12 447.8,12 447.8,368.3 308.1,508 "/>
<polygon class="st2" points="68.2,504 68.2,8 443.8,8 443.8,364.3 304.1,504 "/>
<polygon class="st3" points="72.2,500 72.2,12 438.8,12 438.8,362.6 301.8,500 "/>
<g>
	<g>
		<g>
			
				<linearGradient id="SVGID_1_" gradientUnits="userSpaceOnUse" x1="297.1001" y1="1194.9004" x2="297.1001" y2="710.9004" gradientTransform="matrix(1 0 0 1 -41.6001 -696.9004)">
				<stop  offset="0" style="stop-color:#C7312F"/>
				<stop  offset="0.1635" style="stop-color:#D9412C"/>
				<stop  offset="0.3476" style="stop-color:#E74E29"/>
				<stop  offset="0.5725" style="stop-color:#EA552A"/>
				<stop  offset="0.9516" style="stop-color:#EA582B"/>
			</linearGradient>
			<polygon class="st4" points="74.2,498 74.2,14 436.8,14 436.8,361.9 300.7,498 			"/>
		</g>
		<polygon class="st5" points="436.8,361.9 436.8,356 293.2,356 293.2,498 300.7,498 		"/>
		<path class="st6" d="M300.5,361.9l136.3,0.2L300.7,498L300.5,361.9z"/>
	</g>
	<g class="st7">
		<g>
			<path class="st8" d="M301.1,132.2c0.6,0.2,1.4,0.2,2,0.4C302.5,132.4,301.7,132.2,301.1,132.2z"/>
			<path class="st8" d="M296,131.4c0.8,0,1.4,0.2,2.2,0.2C297.5,131.6,296.8,131.6,296,131.4z"/>
			<path class="st8" d="M305.9,133c0.6,0.2,1.2,0.2,1.8,0.4C307.1,133.2,306.5,133,305.9,133z"/>
			<path class="st8" d="M310.8,133.8c0.6,0.2,1.2,0.2,1.6,0.4C311.8,134,311.4,133.8,310.8,133.8z"/>
			<path class="st8" d="M290.8,130.8c0.8,0,1.6,0.2,2.4,0.2C292.4,131,291.6,130.8,290.8,130.8z"/>
			<path class="st8" d="M319.8,135.8c0.4,0.2,0.8,0.2,1.4,0.4C320.6,136,320.2,135.8,319.8,135.8z"/>
			<path class="st8" d="M315.4,134.8c0.4,0.2,1,0.2,1.4,0.4C316.4,135,315.8,134.8,315.4,134.8z"/>
			<path class="st8" d="M147.4,157.8L147.4,157.8L147.4,157.8z"/>
			<path class="st8" d="M263,128.9c1.2,0,2.6,0,3.8,0C265.6,128.9,264.2,128.9,263,128.9z"/>
			<path class="st8" d="M324.1,136.8c0.4,0.2,0.8,0.2,1.2,0.4C324.9,137,324.5,137,324.1,136.8z"/>
			<path class="st8" d="M285.5,130.2c0.8,0,1.6,0.2,2.4,0.2C287.4,130.4,286.6,130.4,285.5,130.2z"/>
			<path class="st8" d="M244.2,128.9c1.2,0,2.4,0,3.8,0C246.8,128.9,245.4,128.9,244.2,128.9z"/>
			<path class="st8" d="M274.7,129.4c1,0,2,0.2,3,0.2C276.7,129.6,275.7,129.4,274.7,129.4z"/>
			<path class="st8" d="M280.3,129.8c1,0,1.8,0.2,2.8,0.2C282.1,130,281.1,129.8,280.3,129.8z"/>
			<path class="st8" d="M349.1,146.3c0,0,0.2,0,0.2,0.2C349.3,146.3,349.1,146.3,349.1,146.3z"/>
			<path class="st8" d="M358.8,152.7L358.8,152.7L358.8,152.7z"/>
			<path class="st8" d="M351.9,147.7C351.9,147.7,351.9,147.9,351.9,147.7C351.9,147.9,351.9,147.7,351.9,147.7z"/>
			<path class="st8" d="M354.3,149.3C354.5,149.3,354.5,149.3,354.3,149.3C354.5,149.3,354.5,149.3,354.3,149.3z"/>
			<path class="st8" d="M328.3,138c0.4,0,0.6,0.2,1,0.2C328.9,138.2,328.5,138,328.3,138z"/>
			<path class="st8" d="M360.6,154.4L360.6,154.4L360.6,154.4z"/>
			<path class="st8" d="M255.5,128.7c-1.8,0-3.8,0-5.6,0C251.7,128.7,253.7,128.7,255.5,128.7z"/>
			<path class="st8" d="M356.7,150.9L356.7,150.9L356.7,150.9z"/>
			<path class="st8" d="M339.6,141.9c0.2,0,0.4,0.2,0.6,0.2C340,142.1,339.8,141.9,339.6,141.9z"/>
			<path class="st8" d="M255.5,128.7c1.8,0,3.9,0,5.6,0C259.3,128.7,257.3,128.7,255.5,128.7z"/>
			<path class="st8" d="M332.1,139.2c0.2,0,0.6,0.2,0.8,0.2C332.7,139.4,332.5,139.2,332.1,139.2z"/>
			<path class="st8" d="M336,140.4c0.2,0,0.4,0.2,0.6,0.2C336.4,140.6,336.2,140.6,336,140.4z"/>
			<path class="st8" d="M343,143.3c0.2,0,0.4,0.2,0.4,0.2C343.2,143.5,343,143.3,343,143.3z"/>
			<path class="st8" d="M346,144.7c0.2,0,0.2,0.2,0.4,0.2C346.4,144.9,346.2,144.7,346,144.7z"/>
			<path class="st8" d="M269,129.1c1,0,2.2,0,3.2,0.2C271.2,129.1,270,129.1,269,129.1z"/>
			<path class="st8" d="M161.7,146.3c0.2,0,0.2-0.2,0.4-0.2C161.9,146.3,161.7,146.3,161.7,146.3z"/>
			<path class="st8" d="M158.9,147.9c0,0,0.2,0,0.2-0.2C159.1,147.7,159.1,147.9,158.9,147.9z"/>
			<path class="st8" d="M156.5,149.5C156.5,149.3,156.7,149.3,156.5,149.5C156.7,149.3,156.5,149.3,156.5,149.5z"/>
			<path class="st8" d="M164.5,144.9c0.2,0,0.2-0.2,0.4-0.2C164.7,144.7,164.5,144.9,164.5,144.9z"/>
			<path class="st8" d="M170.8,142.1c0.2,0,0.4-0.2,0.6-0.2C171.2,141.9,171,142.1,170.8,142.1z"/>
			<path class="st8" d="M167.6,143.5c0.2,0,0.4-0.2,0.6-0.2C168,143.3,167.8,143.5,167.6,143.5z"/>
			<path class="st8" d="M238.8,129.1c1,0,2.2,0,3.2-0.2C241,129.1,239.8,129.1,238.8,129.1z"/>
			<path class="st8" d="M255.5,204c-61.3,0-110.9-16.7-110.9-37.5v33.9c0,20.8,49.6,37.5,110.9,37.5s110.9-16.7,110.9-37.5l0,0
				v-33.9C366.4,187,316.8,204,255.5,204z"/>
			<path class="st8" d="M144.6,165.3v1.2C144.6,166.1,144.6,165.7,144.6,165.3L144.6,165.3z"/>
			<path class="st8" d="M174.2,140.9c0.2,0,0.6-0.2,0.8-0.2C174.8,140.6,174.6,140.6,174.2,140.9z"/>
			<path class="st8" d="M152.3,152.7L152.3,152.7L152.3,152.7z"/>
			<path class="st8" d="M366.4,165.3c0,0.4,0,0.8,0,1.2V165.3L366.4,165.3z"/>
			<path class="st8" d="M148.8,156.2L148.8,156.2L148.8,156.2z"/>
			<path class="st8" d="M150.4,154.4L150.4,154.4L150.4,154.4z"/>
			<path class="st8" d="M154.3,151.1C154.3,150.9,154.3,150.9,154.3,151.1C154.3,150.9,154.3,150.9,154.3,151.1z"/>
			<path class="st8" d="M217.8,131c0.8,0,1.6-0.2,2.4-0.2C219.4,130.8,218.6,131,217.8,131z"/>
			<path class="st8" d="M212.8,131.8c0.8-0.2,1.4-0.2,2.2-0.2C214.1,131.6,213.6,131.6,212.8,131.8z"/>
			<path class="st8" d="M222.8,130.4c0.8,0,1.6-0.2,2.6-0.2C224.4,130.4,223.6,130.4,222.8,130.4z"/>
			<path class="st8" d="M177.9,139.4c0.2,0,0.6-0.2,0.8-0.2C178.5,139.2,178.3,139.4,177.9,139.4z"/>
			<path class="st8" d="M233.3,129.6c1,0,2-0.2,3-0.2C235.3,129.4,234.3,129.6,233.3,129.6z"/>
			<path class="st8" d="M207.9,132.4c0.6-0.2,1.4-0.2,2-0.4C209.3,132.2,208.5,132.4,207.9,132.4z"/>
			<path class="st8" d="M228.1,130c1,0,1.8-0.2,2.8-0.2C229.9,129.8,228.9,130,228.1,130z"/>
			<path class="st8" d="M185.7,137.2c0.4-0.2,0.8-0.2,1.2-0.4C186.5,137,186.1,137,185.7,137.2z"/>
			<path class="st8" d="M181.7,138.2c0.4-0.2,0.6-0.2,1-0.4C182.5,138,182.1,138.2,181.7,138.2z"/>
			<path class="st8" d="M189.8,136c0.4-0.2,1-0.2,1.4-0.4C190.8,135.8,190.4,136,189.8,136z"/>
			<path class="st8" d="M194.2,135c0.6-0.2,1-0.2,1.6-0.4C195.2,134.8,194.6,135,194.2,135z"/>
			<path class="st8" d="M198.6,134.2c0.6-0.2,1.2-0.2,1.8-0.4C199.6,133.8,199.2,134,198.6,134.2z"/>
			<path class="st8" d="M203.3,133.2c0.6-0.2,1.2-0.2,1.8-0.4C204.5,133,203.9,133.2,203.3,133.2z"/>
		</g>
		<g>
			<path class="st8" d="M301.1,171.5c0.6,0.2,1.4,0.2,2,0.4C302.5,171.7,301.7,171.7,301.1,171.5z"/>
			<path class="st8" d="M296,170.9c0.8,0,1.4,0.2,2.2,0.2C297.5,170.9,296.8,170.9,296,170.9z"/>
			<path class="st8" d="M305.9,172.3c0.6,0.2,1.2,0.2,1.8,0.4C307.1,172.5,306.5,172.5,305.9,172.3z"/>
			<path class="st8" d="M310.8,173.1c0.6,0.2,1.2,0.2,1.6,0.4C311.8,173.3,311.4,173.3,310.8,173.1z"/>
			<path class="st8" d="M290.8,170.1c0.8,0,1.6,0.2,2.4,0.2C292.4,170.3,291.6,170.3,290.8,170.1z"/>
			<path class="st8" d="M319.8,175.1c0.4,0.2,0.8,0.2,1.4,0.4C320.6,175.3,320.2,175.3,319.8,175.1z"/>
			<path class="st8" d="M315.4,174.1c0.4,0.2,1,0.2,1.4,0.4C316.4,174.3,315.8,174.3,315.4,174.1z"/>
			<path class="st8" d="M147.4,197.3L147.4,197.3L147.4,197.3z"/>
			<path class="st8" d="M263,168.3c1.2,0,2.6,0,3.8,0C265.6,168.3,264.2,168.3,263,168.3z"/>
			<path class="st8" d="M324.1,176.3c0.4,0.2,0.8,0.2,1.2,0.4C324.9,176.5,324.5,176.3,324.1,176.3z"/>
			<path class="st8" d="M285.5,169.7c0.8,0,1.6,0.2,2.4,0.2C287.4,169.7,286.6,169.7,285.5,169.7z"/>
			<path class="st8" d="M244.2,168.5c1.2,0,2.4,0,3.8,0C246.8,168.3,245.4,168.3,244.2,168.5z"/>
			<path class="st8" d="M274.7,168.7c1,0,2,0.2,3,0.2C276.7,168.9,275.7,168.9,274.7,168.7z"/>
			<path class="st8" d="M280.3,169.1c1,0,1.8,0.2,2.8,0.2C282.1,169.3,281.1,169.3,280.3,169.1z"/>
			<path class="st8" d="M349.1,185.6c0,0,0.2,0,0.2,0.2C349.3,185.6,349.1,185.6,349.1,185.6z"/>
			<path class="st8" d="M358.8,192.1L358.8,192.1L358.8,192.1z"/>
			<path class="st8" d="M351.9,187.2L351.9,187.2L351.9,187.2z"/>
			<path class="st8" d="M354.3,188.8C354.5,188.8,354.5,188.8,354.3,188.8C354.5,188.8,354.5,188.8,354.3,188.8z"/>
			<path class="st8" d="M328.3,177.4c0.4,0,0.6,0.2,1,0.2C328.9,177.6,328.5,177.6,328.3,177.4z"/>
			<path class="st8" d="M360.6,193.7L360.6,193.7L360.6,193.7z"/>
			<path class="st8" d="M255.5,168.3c-1.8,0-3.8,0-5.6,0C251.7,168.3,253.7,168.3,255.5,168.3z"/>
			<path class="st8" d="M356.7,190.5L356.7,190.5L356.7,190.5z"/>
			<path class="st8" d="M339.6,181.2c0.2,0,0.4,0.2,0.6,0.2C340,181.4,339.8,181.4,339.6,181.2z"/>
			<path class="st8" d="M255.5,168.3c1.8,0,3.9,0,5.6,0C259.3,168.3,257.3,168.3,255.5,168.3z"/>
			<path class="st8" d="M332.1,178.6c0.2,0,0.6,0.2,0.8,0.2C332.7,178.8,332.5,178.8,332.1,178.6z"/>
			<path class="st8" d="M336,180c0.2,0,0.4,0.2,0.6,0.2C336.4,180.2,336.2,180,336,180z"/>
			<path class="st8" d="M343,182.6c0.2,0,0.4,0.2,0.4,0.2C343.2,182.8,343,182.8,343,182.6z"/>
			<path class="st8" d="M346,184.2c0.2,0,0.2,0.2,0.4,0.2C346.4,184.2,346.2,184.2,346,184.2z"/>
			<path class="st8" d="M269,168.5c1,0,2.2,0,3.2,0.2C271.2,168.5,270,168.5,269,168.5z"/>
			<path class="st8" d="M161.7,185.8c0.2,0,0.2-0.2,0.4-0.2C161.9,185.6,161.7,185.6,161.7,185.8z"/>
			<path class="st8" d="M158.9,187.2c0,0,0.2,0,0.2-0.2C159.1,187.2,159.1,187.2,158.9,187.2z"/>
			<path class="st8" d="M156.5,188.8C156.5,188.8,156.7,188.8,156.5,188.8C156.7,188.8,156.5,188.8,156.5,188.8z"/>
			<path class="st8" d="M164.5,184.2c0.2,0,0.2-0.2,0.4-0.2C164.7,184.2,164.5,184.2,164.5,184.2z"/>
			<path class="st8" d="M170.8,181.6c0.2,0,0.4-0.2,0.6-0.2C171.2,181.4,171,181.4,170.8,181.6z"/>
			<path class="st8" d="M167.6,182.8c0.2,0,0.4-0.2,0.6-0.2C168,182.8,167.8,182.8,167.6,182.8z"/>
			<path class="st8" d="M238.8,168.7c1,0,2.2,0,3.2-0.2C241,168.5,239.8,168.5,238.8,168.7z"/>
			<path class="st8" d="M255.5,243.3c-61.3,0-110.9-16.7-110.9-37.5v33.9c0,20.8,49.6,37.5,110.9,37.5s110.9-16.7,110.9-37.5l0,0
				v-33.9C366.4,226.6,316.8,243.3,255.5,243.3z"/>
			<path class="st8" d="M144.6,204.6v1.2C144.6,205.4,144.6,205,144.6,204.6L144.6,204.6z"/>
			<path class="st8" d="M174.2,180.2c0.2,0,0.6-0.2,0.8-0.2C174.8,180,174.6,180.2,174.2,180.2z"/>
			<path class="st8" d="M152.3,192.1L152.3,192.1L152.3,192.1z"/>
			<path class="st8" d="M366.4,204.6c0,0.4,0,0.8,0,1.2V204.6L366.4,204.6z"/>
			<path class="st8" d="M148.8,195.5L148.8,195.5L148.8,195.5z"/>
			<path class="st8" d="M150.4,193.9C150.4,193.7,150.4,193.7,150.4,193.9C150.4,193.7,150.4,193.7,150.4,193.9z"/>
			<path class="st8" d="M154.3,190.5L154.3,190.5L154.3,190.5z"/>
			<path class="st8" d="M217.8,170.5c0.8,0,1.6-0.2,2.4-0.2C219.4,170.3,218.6,170.3,217.8,170.5z"/>
			<path class="st8" d="M212.8,171.1c0.8-0.2,1.4-0.2,2.2-0.2C214.1,170.9,213.6,170.9,212.8,171.1z"/>
			<path class="st8" d="M222.8,169.9c0.8,0,1.6-0.2,2.6-0.2C224.4,169.7,223.6,169.7,222.8,169.9z"/>
			<path class="st8" d="M177.9,179c0.2,0,0.6-0.2,0.8-0.2C178.5,178.8,178.3,178.8,177.9,179z"/>
			<path class="st8" d="M233.3,168.9c1,0,2-0.2,3-0.2C235.3,168.9,234.3,168.9,233.3,168.9z"/>
			<path class="st8" d="M207.9,171.9c0.6-0.2,1.4-0.2,2-0.4C209.3,171.7,208.5,171.7,207.9,171.9z"/>
			<path class="st8" d="M228.1,169.3c0.8,0,1.8-0.2,2.8-0.2C229.9,169.3,228.9,169.3,228.1,169.3z"/>
			<path class="st8" d="M185.7,176.5c0.4-0.2,0.8-0.2,1.2-0.4C186.5,176.3,186.1,176.5,185.7,176.5z"/>
			<path class="st8" d="M181.7,177.8c0.4-0.2,0.6-0.2,1-0.4C182.5,177.6,182.1,177.6,181.7,177.8z"/>
			<path class="st8" d="M189.8,175.5c0.4-0.2,1-0.2,1.4-0.4C190.8,175.3,190.4,175.3,189.8,175.5z"/>
			<path class="st8" d="M194.2,174.5c0.6-0.2,1-0.2,1.6-0.4C195.2,174.3,194.6,174.3,194.2,174.5z"/>
			<path class="st8" d="M198.6,173.5c0.6-0.2,1.2-0.2,1.8-0.4C199.6,173.3,199.2,173.3,198.6,173.5z"/>
			<path class="st8" d="M203.3,172.7c0.6-0.2,1.2-0.2,1.8-0.4C204.5,172.5,203.9,172.5,203.3,172.7z"/>
		</g>
		<g>
			<path class="st8" d="M301.1,210.8c0.6,0.2,1.4,0.2,2,0.4C302.5,211,301.7,211,301.1,210.8z"/>
			<path class="st8" d="M296,210.2c0.8,0,1.4,0.2,2.2,0.2C297.5,210.4,296.8,210.2,296,210.2z"/>
			<path class="st8" d="M305.9,211.6c0.6,0.2,1.2,0.2,1.8,0.4C307.1,211.8,306.5,211.8,305.9,211.6z"/>
			<path class="st8" d="M310.8,212.6c0.6,0.2,1.2,0.2,1.6,0.4C311.8,212.9,311.4,212.6,310.8,212.6z"/>
			<path class="st8" d="M290.8,209.6c0.8,0,1.6,0.2,2.4,0.2C292.4,209.8,291.6,209.6,290.8,209.6z"/>
			<path class="st8" d="M319.8,214.7c0.4,0.2,0.8,0.2,1.4,0.4C320.6,214.9,320.2,214.7,319.8,214.7z"/>
			<path class="st8" d="M315.4,213.4c0.4,0.2,1,0.2,1.4,0.4C316.4,213.8,315.8,213.6,315.4,213.4z"/>
			<path class="st8" d="M147.4,236.6L147.4,236.6L147.4,236.6z"/>
			<path class="st8" d="M263,207.6c1.2,0,2.6,0,3.8,0C265.6,207.8,264.2,207.8,263,207.6z"/>
			<path class="st8" d="M324.1,215.7c0.4,0.2,0.8,0.2,1.2,0.4C324.9,215.9,324.5,215.9,324.1,215.7z"/>
			<path class="st8" d="M285.5,209c0.8,0,1.6,0.2,2.4,0.2C287.4,209.2,286.6,209,285.5,209z"/>
			<path class="st8" d="M244.2,207.8c1.2,0,2.4,0,3.8,0C246.8,207.8,245.4,207.8,244.2,207.8z"/>
			<path class="st8" d="M274.7,208.2c1,0,2,0.2,3,0.2C276.7,208.2,275.7,208.2,274.7,208.2z"/>
			<path class="st8" d="M280.3,208.6c1,0,1.8,0.2,2.8,0.2C282.1,208.6,281.1,208.6,280.3,208.6z"/>
			<path class="st8" d="M349.1,224.9c0,0,0.2,0,0.2,0.2C349.3,225.1,349.1,225.1,349.1,224.9z"/>
			<path class="st8" d="M358.8,231.4L358.8,231.4L358.8,231.4z"/>
			<path class="st8" d="M351.9,226.6L351.9,226.6L351.9,226.6z"/>
			<path class="st8" d="M354.3,228.2C354.5,228.2,354.5,228.2,354.3,228.2C354.5,228.2,354.5,228.2,354.3,228.2z"/>
			<path class="st8" d="M328.3,216.9c0.4,0,0.6,0.2,1,0.2C328.9,217.1,328.5,216.9,328.3,216.9z"/>
			<path class="st8" d="M360.6,233.2L360.6,233.2L360.6,233.2z"/>
			<path class="st8" d="M255.5,207.6c-1.8,0-3.8,0-5.6,0C251.7,207.6,253.7,207.6,255.5,207.6z"/>
			<path class="st8" d="M356.7,229.8L356.7,229.8L356.7,229.8z"/>
			<path class="st8" d="M339.6,220.7c0.2,0,0.4,0.2,0.6,0.2C340,220.9,339.8,220.7,339.6,220.7z"/>
			<path class="st8" d="M255.5,207.6c1.8,0,3.9,0,5.6,0C259.3,207.6,257.3,207.6,255.5,207.6z"/>
			<path class="st8" d="M332.1,218.1c0.2,0,0.6,0.2,0.8,0.2C332.7,218.3,332.5,218.1,332.1,218.1z"/>
			<path class="st8" d="M336,219.3c0.2,0,0.4,0.2,0.6,0.2C336.4,219.5,336.2,219.5,336,219.3z"/>
			<path class="st8" d="M343,222.1c0.2,0,0.4,0.2,0.4,0.2C343.2,222.1,343,222.1,343,222.1z"/>
			<path class="st8" d="M346,223.5c0.2,0,0.2,0.2,0.4,0.2C346.4,223.7,346.2,223.5,346,223.5z"/>
			<path class="st8" d="M269,207.8c1,0,2.2,0,3.2,0.2C271.2,208,270,208,269,207.8z"/>
			<path class="st8" d="M161.7,225.1c0.2,0,0.2-0.2,0.4-0.2C161.9,225.1,161.7,225.1,161.7,225.1z"/>
			<path class="st8" d="M158.9,226.8c0,0,0.2,0,0.2-0.2C159.1,226.6,159.1,226.6,158.9,226.8z"/>
			<path class="st8" d="M156.5,228.2C156.5,228.2,156.7,228.2,156.5,228.2C156.7,228.2,156.5,228.2,156.5,228.2z"/>
			<path class="st8" d="M164.5,223.7c0.2,0,0.2-0.2,0.4-0.2C164.7,223.5,164.5,223.7,164.5,223.7z"/>
			<path class="st8" d="M170.8,220.9c0.2,0,0.4-0.2,0.6-0.2C171.2,220.7,171,220.9,170.8,220.9z"/>
			<path class="st8" d="M167.6,222.3c0.2,0,0.4-0.2,0.6-0.2C168,222.1,167.8,222.1,167.6,222.3z"/>
			<path class="st8" d="M238.8,208c1,0,2.2,0,3.2-0.2C241,208,239.8,208,238.8,208z"/>
			<path class="st8" d="M255.5,282.8c-61.3,0-110.9-16.7-110.9-37.5v33.9c0,20.8,49.6,37.5,110.9,37.5s110.9-16.7,110.9-37.5l0,0
				v-33.9C366.4,265.9,316.8,282.8,255.5,282.8z"/>
			<path class="st8" d="M144.6,244.1v1.2C144.6,244.9,144.6,244.5,144.6,244.1L144.6,244.1z"/>
			<path class="st8" d="M174.2,219.5c0.2,0,0.6-0.2,0.8-0.2C174.8,219.5,174.6,219.5,174.2,219.5z"/>
			<path class="st8" d="M152.3,231.6C152.3,231.4,152.3,231.4,152.3,231.6C152.3,231.4,152.3,231.4,152.3,231.6z"/>
			<path class="st8" d="M366.4,244.1c0,0.4,0,0.8,0,1.2V244.1L366.4,244.1z"/>
			<path class="st8" d="M148.8,235C148.8,234.8,148.8,234.8,148.8,235C148.8,234.8,148.8,234.8,148.8,235z"/>
			<path class="st8" d="M150.4,233.2L150.4,233.2L150.4,233.2z"/>
			<path class="st8" d="M154.3,229.8L154.3,229.8L154.3,229.8z"/>
			<path class="st8" d="M217.8,209.8c0.8,0,1.6-0.2,2.4-0.2C219.4,209.6,218.6,209.8,217.8,209.8z"/>
			<path class="st8" d="M212.8,210.4c0.8-0.2,1.4-0.2,2.2-0.2C214.1,210.2,213.6,210.4,212.8,210.4z"/>
			<path class="st8" d="M222.8,209.2c0.8,0,1.6-0.2,2.6-0.2C224.4,209,223.6,209.2,222.8,209.2z"/>
			<path class="st8" d="M177.9,218.3c0.2,0,0.6-0.2,0.8-0.2C178.5,218.1,178.3,218.3,177.9,218.3z"/>
			<path class="st8" d="M233.3,208.4c1,0,2-0.2,3-0.2C235.3,208.2,234.3,208.2,233.3,208.4z"/>
			<path class="st8" d="M207.9,211.2c0.6-0.2,1.4-0.2,2-0.4C209.3,211,208.5,211,207.9,211.2z"/>
			<path class="st8" d="M228.1,208.8c0.8,0,1.8-0.2,2.8-0.2C229.9,208.6,228.9,208.6,228.1,208.8z"/>
			<path class="st8" d="M185.7,216.1c0.4-0.2,0.8-0.2,1.2-0.4C186.5,215.7,186.1,215.9,185.7,216.1z"/>
			<path class="st8" d="M181.7,217.1c0.4-0.2,0.6-0.2,1-0.4C182.5,216.9,182.1,217.1,181.7,217.1z"/>
			<path class="st8" d="M189.8,214.9c0.4-0.2,1-0.2,1.4-0.4C190.8,214.7,190.4,214.9,189.8,214.9z"/>
			<path class="st8" d="M194.2,213.8c0.6-0.2,1-0.2,1.6-0.4C195.2,213.6,194.6,213.8,194.2,213.8z"/>
			<path class="st8" d="M198.6,212.9c0.6-0.2,1.2-0.2,1.8-0.4C199.6,212.6,199.2,212.9,198.6,212.9z"/>
			<path class="st8" d="M203.3,212c0.6-0.2,1.2-0.2,1.8-0.4C204.5,211.8,203.9,211.8,203.3,212z"/>
		</g>
		<path class="st8" d="M255.5,122.9c61.3,0,110.9,16.8,110.9,37.5s-49.7,37.5-110.9,37.5s-110.9-16.8-110.9-37.5
			S194.3,122.9,255.5,122.9z"/>
	</g>
</g>
</svg>
