<?xml version="1.0" encoding="utf-8"?>
<!-- Generator: Adobe Illustrator 16.0.0, SVG Export Plug-In . SVG Version: 6.00 Build 0)  -->
<!DOCTYPE svg PUBLIC "-//W3C//DTD SVG 1.1//EN" "http://www.w3.org/Graphics/SVG/1.1/DTD/svg11.dtd">
<svg version="1.1" id="图层_1" xmlns="http://www.w3.org/2000/svg" xmlns:xlink="http://www.w3.org/1999/xlink" x="0px" y="0px"
	 width="512px" height="512px" viewBox="0 0 512 512" enable-background="new 0 0 512 512" xml:space="preserve">
<polygon opacity="0.08" enable-background="new    " points="68.2,512 68.2,8 451.801,8 451.801,369.913 309.714,512 "/>
<polygon opacity="0.1" enable-background="new    " points="72.2,508 72.2,12 447.801,12 447.801,368.256 308.057,508 "/>
<polygon opacity="0.2" enable-background="new    " points="68.2,504 68.2,8 443.801,8 443.801,364.256 304.058,504 "/>
<polygon fill="#3E2723" points="72.199,500 72.199,12 438.793,12 438.793,362.602 301.771,500 "/>
<g>
	<g>
		
			<linearGradient id="SVGID_1_" gradientUnits="userSpaceOnUse" x1="297.1116" y1="334.0994" x2="297.1115" y2="-149.9006" gradientTransform="matrix(1 0 0 -1 -41.6001 348.0991)">
			<stop  offset="0" style="stop-color:#785548"/>
			<stop  offset="1" style="stop-color:#9F9E9F"/>
		</linearGradient>
		<polygon fill="url(#SVGID_1_)" points="74.201,498 74.201,14 436.823,14 436.823,361.686 302.021,498 		"/>
		<polygon fill="#795548" fill-opacity="0.7" points="436.823,361.875 436.823,356.014 293.261,356.014 293.261,498 300.698,498 		
			"/>
		<path opacity="0.39" fill="#FFFFFF" enable-background="new    " d="M300.508,361.875l136.314,0.189L300.698,498L300.508,361.875z
			"/>
	</g>
	<path fill="#FFFFFF" d="M203.772,107.302h-12.289v157.174h-9.265V107.302h-12.226v157.174h-9.265V107.302h-12.226v157.174h-9.264
		V107.302h-12.227v157.174h-3.214v66.582h84.133v-66.582h-4.159V107.302z M195.705,311.711h-59.681v-38.6h59.681V311.711z"/>
	<g>
		<rect x="74.106" y="14" opacity="0.8" fill="#FFFFFF" enable-background="new    " width="362.78" height="92.767"/>
		<g enable-background="new    ">
			<path fill="#5D4037" d="M169.205,82.567v13.975h-50.857V24.241h17.142v58.326H169.205z"/>
			<path fill="#5D4037" d="M235.849,35.506c-2.332,2.3-5.136,5.278-8.35,8.933c-3.246,3.64-6.555,7.625-9.989,11.942
				c-3.466,4.301-6.869,8.76-10.209,13.345c-3.403,4.601-6.397,8.98-9.044,13.156h38.789v13.66h-59.838v-9.705
				c2.048-3.545,4.537-7.484,7.499-11.833c2.994-4.348,6.082-8.728,9.296-13.155c3.214-4.412,6.491-8.681,9.831-12.825
				c3.341-4.144,6.429-7.846,9.265-11.107h-34.157V24.241h56.907V35.506z"/>
			<path fill="#5D4037" d="M320.297,60.336c0,6.192-0.977,11.643-2.899,16.338c-1.953,4.695-4.601,8.618-7.972,11.785
				c-3.372,3.167-7.374,5.546-12.037,7.137c-4.632,1.607-9.643,2.411-14.968,2.411c-5.23,0-10.114-0.804-14.746-2.411
				c-4.601-1.591-8.635-3.97-12.069-7.137c-3.435-3.167-6.145-7.09-8.098-11.785c-2.017-4.695-2.993-10.146-2.993-16.338
				s1.039-11.627,3.088-16.322c2.048-4.695,4.82-8.634,8.287-11.848c3.465-3.198,7.499-5.593,12.099-7.184
				c4.538-1.607,9.358-2.411,14.432-2.411c5.168,0,10.084,0.804,14.685,2.411c4.632,1.591,8.634,3.986,12.1,7.184
				c3.435,3.214,6.145,7.153,8.13,11.848C319.288,48.709,320.297,54.144,320.297,60.336z M262.192,60.336
				c0,3.545,0.473,6.759,1.387,9.595c0.914,2.867,2.206,5.309,3.97,7.357c1.702,2.064,3.781,3.64,6.303,4.758
				c2.458,1.103,5.356,1.67,8.57,1.67c3.151,0,5.987-0.567,8.508-1.67c2.521-1.119,4.633-2.694,6.365-4.758
				c1.702-2.048,3.025-4.49,3.939-7.357c0.913-2.836,1.386-6.05,1.386-9.595s-0.473-6.759-1.386-9.642
				c-0.914-2.883-2.237-5.357-3.939-7.405c-1.732-2.048-3.844-3.64-6.365-4.758c-2.521-1.103-5.356-1.67-8.508-1.67
				c-3.214,0-6.112,0.583-8.57,1.733c-2.521,1.15-4.601,2.742-6.303,4.79c-1.764,2.064-3.056,4.522-3.97,7.405
				C262.664,53.688,262.192,56.87,262.192,60.336z"/>
			<path fill="#5D4037" d="M357.416,23.406c11.344,0,20.041,1.906,26.122,5.688c6.082,3.797,9.106,10.005,9.106,18.623
				c0,8.697-3.057,14.967-9.201,18.827c-6.176,3.86-14.936,5.798-26.374,5.798h-5.389v24.2h-17.109V25.281
				c3.749-0.693,7.656-1.182,11.848-1.45C350.61,23.548,354.265,23.406,357.416,23.406z M358.488,37.286
				c-1.229,0-2.458,0.032-3.655,0.11c-1.197,0.063-2.269,0.126-3.151,0.205v20.86h5.389c5.955,0,10.398-0.756,13.392-2.3
				c3.025-1.528,4.538-4.38,4.538-8.555c0-2.017-0.41-3.671-1.197-4.995c-0.757-1.323-1.828-2.395-3.277-3.183
				c-1.418-0.803-3.151-1.355-5.23-1.67C363.278,37.444,361.008,37.286,358.488,37.286z"/>
		</g>
	</g>
</g>
</svg>
