<?xml version="1.0" encoding="utf-8"?>
<!-- Generator: Adobe Illustrator 21.0.0, SVG Export Plug-In . SVG Version: 6.00 Build 0)  -->
<svg version="1.1" id="图层_1" xmlns="http://www.w3.org/2000/svg" xmlns:xlink="http://www.w3.org/1999/xlink" x="0px" y="0px"
	 viewBox="0 0 512 512" style="enable-background:new 0 0 512 512;" xml:space="preserve">
<style type="text/css">
	.st0{opacity:0.08;enable-background:new    ;}
	.st1{opacity:0.1;enable-background:new    ;}
	.st2{opacity:0.2;enable-background:new    ;}
	.st3{fill:#3E2723;}
	.st4{fill:url(#SVGID_1_);}
	.st5{fill:#795548;fill-opacity:0.7;}
	.st6{opacity:0.39;fill:#FFFFFF;enable-background:new    ;}
	.st7{fill:#FFFFFF;}
	.st8{opacity:0.8;fill:#FFFFFF;enable-background:new    ;}
	.st9{enable-background:new    ;}
	.st10{fill:#5D4037;}
</style>
<polygon class="st0" points="68.2,512 68.2,8 451.8,8 451.8,369.9 309.7,512 "/>
<polygon class="st1" points="72.2,508 72.2,12 447.8,12 447.8,368.3 308.1,508 "/>
<polygon class="st2" points="68.2,504 68.2,8 443.8,8 443.8,364.3 304.1,504 "/>
<polygon class="st3" points="72.2,500 72.2,12 438.8,12 438.8,362.6 301.8,500 "/>
<g>
	<g>
		
			<linearGradient id="SVGID_1_" gradientUnits="userSpaceOnUse" x1="297.1001" y1="80.0991" x2="297.1001" y2="-403.9009" gradientTransform="matrix(1 0 0 -1 -41.6001 94.0991)">
			<stop  offset="0" style="stop-color:#785548"/>
			<stop  offset="1" style="stop-color:#9F9E9F"/>
		</linearGradient>
		<polygon class="st4" points="74.2,498 74.2,14 436.8,14 436.8,361.7 302,498 		"/>
		<polygon class="st5" points="436.8,361.9 436.8,356 293.3,356 293.3,498 300.7,498 		"/>
		<path class="st6" d="M300.5,361.9l136.3,0.2L300.7,498L300.5,361.9z"/>
	</g>
	<path class="st7" d="M203.8,107.3h-12.3v157.2h-9.3V107.3H170v157.2h-9.3V107.3h-12.2v157.2h-9.3V107.3H127v157.2h-3.2v66.6h84.1
		v-66.6h-4.2L203.8,107.3L203.8,107.3z M195.7,311.7H136v-38.6h59.7V311.7z"/>
	<g>
		<rect x="74.1" y="14" class="st8" width="362.8" height="92.8"/>
		<g class="st9">
			<path class="st10" d="M206.5,24.2v13.9h-23v58.4h-17.1V38.1h-23V24.2C143.5,24.2,206.5,24.2,206.5,24.2z"/>
			<path class="st10" d="M263.4,24.2h17.1v72.3h-17.1V65.9h-28.7v30.7h-17.1V24.2h17.1v27.6h28.7V24.2L263.4,24.2z"/>
			<path class="st10" d="M349.2,96.5c-0.9-2.5-1.8-5.1-2.7-7.7c-1-2.6-2-5.3-2.9-7.9h-29.7c-1,2.6-2,5.3-2.9,7.9s-1.9,5.2-2.7,7.7
				h-17.8c2.8-7.8,5.6-15,8.1-21.6c2.6-6.6,5.1-12.8,7.6-18.7s4.9-11.4,7.2-16.6c2.4-5.2,4.9-10.4,7.4-15.4h16.3
				c2.5,5,5,10.1,7.4,15.4c2.5,5.2,4.9,10.8,7.4,16.6s5,12.1,7.5,18.7c2.6,6.6,5.3,13.8,8.2,21.6C367.5,96.5,349.2,96.5,349.2,96.5z
				 M328.6,40.6c-0.4,1-0.9,2.5-1.7,4.3c-0.8,1.8-1.6,3.9-2.5,6.3c-0.9,2.4-2,5-3.2,7.8c-1.2,2.9-2.3,5.8-3.5,9h21.7
				c-1.2-3.1-2.3-6.1-3.4-9s-2.1-5.5-3.1-7.8c-1-2.4-1.8-4.5-2.6-6.3C329.6,43.1,329.1,41.7,328.6,40.6z"/>
		</g>
	</g>
</g>
</svg>
