<?xml version="1.0" encoding="utf-8"?>
<!-- Generator: Adobe Illustrator 21.0.0, SVG Export Plug-In . SVG Version: 6.00 Build 0)  -->
<svg version="1.1" id="图层_1" xmlns="http://www.w3.org/2000/svg" xmlns:xlink="http://www.w3.org/1999/xlink" x="0px" y="0px"
	 viewBox="0 0 512 512" style="enable-background:new 0 0 512 512;" xml:space="preserve">
<style type="text/css">
	.st0{opacity:0.08;enable-background:new    ;}
	.st1{opacity:0.1;enable-background:new    ;}
	.st2{opacity:0.2;enable-background:new    ;}
	.st3{fill:#455A64;}
	.st4{fill:url(#SVGID_1_);}
	.st5{fill:#455A64;fill-opacity:0.39;}
	.st6{fill:#FFFFFF;fill-opacity:0.39;}
	.st7{opacity:0.8;}
	.st8{fill:#FFFFFF;}
</style>
<polygon class="st0" points="68.2,512 68.2,8 451.8,8 451.8,369.9 309.7,512 "/>
<polygon class="st1" points="72.2,508 72.2,12 447.8,12 447.8,368.3 308.1,508 "/>
<polygon class="st2" points="68.2,504 68.2,8 443.8,8 443.8,364.3 304.1,504 "/>
<polygon class="st3" points="72.2,500 72.2,12 438.8,12 438.8,362.6 301.8,500 "/>
<g>
	<g>
		<g>
			
				<linearGradient id="SVGID_1_" gradientUnits="userSpaceOnUse" x1="297.1001" y1="710.9004" x2="297.1001" y2="1194.9004" gradientTransform="matrix(1 0 0 1 -41.6001 -696.9004)">
				<stop  offset="0" style="stop-color:#90A4AE"/>
				<stop  offset="0.1378" style="stop-color:#849AA5"/>
				<stop  offset="0.4226" style="stop-color:#708A97"/>
				<stop  offset="0.7096" style="stop-color:#64808E"/>
				<stop  offset="1" style="stop-color:#607D8B"/>
			</linearGradient>
			<polygon class="st4" points="74.2,498 74.2,14 436.8,14 436.8,361.9 300.7,498 			"/>
		</g>
		<polygon class="st5" points="436.8,361.9 436.8,356 293.2,356 293.2,498 300.7,498 		"/>
		<path class="st6" d="M300.5,361.9l136.4,0.2L300.7,498L300.5,361.9z"/>
	</g>
	<g class="st7">
		<g>
			<polygon class="st8" points="212.7,236.4 158.3,200.4 207.1,185.6 			"/>
		</g>
		<polygon class="st8" points="250.9,295.7 272.4,295.7 272.4,277.6 251,277.6 240.2,286.7 		"/>
		<g>
			<polygon class="st8" points="284.3,214.7 338.2,177.3 333.6,228.2 			"/>
			<g>
				<polygon class="st8" points="334.7,214.5 322.5,196.5 307.3,207 319.2,224.1 333.6,228.2 				"/>
				<polygon class="st8" points="376.5,275 339.4,221.3 338.2,235 323.9,231 355.9,277.6 277.9,277.6 277.7,295.7 362.4,295.7 
					362.4,295.7 362.4,295.7 				"/>
			</g>
			<g>
				<polygon class="st8" points="193.2,189.9 181.1,207.2 196.4,217.3 208.7,199.7 207.1,185.6 				"/>
				<polygon class="st8" points="269.6,120.1 241.2,120.1 198,182.8 211.7,178.8 213.4,192.9 255.5,131.8 304.3,202.6 319.4,192.3 
									"/>
				<polygon class="st8" points="155.1,277.6 193.4,221.7 178.1,211.6 134.5,275 134.5,275 134.5,275 144.2,288.9 148.8,295.7 
					242.6,295.7 231.9,286.7 242.6,277.6 				"/>
			</g>
		</g>
		<g>
			<polygon class="st8" points="279.3,254 279.3,319.3 240.2,286.7 			"/>
		</g>
		<polygon class="st8" points="178.1,211.6 186.3,199.7 206.1,204.2 192,223.9 		"/>
		<polygon class="st8" points="296.8,191.9 309.5,210.2 325.1,200.1 312.2,181.8 		"/>
		<rect x="267.6" y="277.6" class="st8" width="13.3" height="18.2"/>
	</g>
</g>
</svg>
