<?xml version="1.0" encoding="utf-8"?>
<!-- Generator: Adobe Illustrator 21.0.0, SVG Export Plug-In . SVG Version: 6.00 Build 0)  -->
<svg version="1.1" id="图层_1" xmlns="http://www.w3.org/2000/svg" xmlns:xlink="http://www.w3.org/1999/xlink" x="0px" y="0px"
	 viewBox="0 0 512 512" style="enable-background:new 0 0 512 512;" xml:space="preserve">
<style type="text/css">
	.st0{opacity:0.08;enable-background:new    ;}
	.st1{opacity:0.1;enable-background:new    ;}
	.st2{opacity:0.2;enable-background:new    ;}
	.st3{fill:#0D47A1;}
	.st4{fill:url(#SVGID_1_);}
	.st5{fill:#0D47A1;fill-opacity:0.39;}
	.st6{fill:#FFFFFF;fill-opacity:0.45;}
	.st7{fill:#64B5F6;}
	.st8{fill:#FFFFFF;fill-opacity:0.8;}
	.st9{opacity:0.8;fill:#FFFFFF;enable-background:new    ;}
	.st10{enable-background:new    ;}
	.st11{fill:#1976D2;}
</style>
<polygon class="st0" points="68.2,512 68.2,8 451.8,8 451.8,369.9 309.7,512 "/>
<polygon class="st1" points="72.2,508 72.2,12 447.8,12 447.8,368.3 308.1,508 "/>
<polygon class="st2" points="68.2,504 68.2,8 443.8,8 443.8,364.3 304.1,504 "/>
<polygon class="st3" points="72.2,500 72.2,12 438.8,12 438.8,362.6 301.8,500 "/>
<g>
	<g>
		<g>
			<g>
				
					<linearGradient id="SVGID_1_" gradientUnits="userSpaceOnUse" x1="338.7002" y1="1600.8008" x2="338.7002" y2="1116.8008" gradientTransform="matrix(1 0 0 1 -83.2002 -1102.8008)">
					<stop  offset="0" style="stop-color:#1976D2"/>
					<stop  offset="0.0226" style="stop-color:#1C79D3"/>
					<stop  offset="0.2859" style="stop-color:#3B93E2"/>
					<stop  offset="0.5416" style="stop-color:#52A6ED"/>
					<stop  offset="0.7843" style="stop-color:#5FB1F4"/>
					<stop  offset="1" style="stop-color:#64B5F6"/>
				</linearGradient>
				<polygon class="st4" points="74.2,498 74.2,14 436.8,14 436.8,361.9 300.7,498 				"/>
			</g>
			<polygon class="st5" points="436.8,361.9 436.8,356 293.2,356 293.2,498 300.7,498 			"/>
			<path class="st6" d="M300.5,361.9l136.3,0.2L300.7,498L300.5,361.9z"/>
		</g>
		<g>
			<path class="st7" d="M368.1,240.1c0,62.2-50.5,112.7-112.6,112.7c-62.2,0-112.7-50.5-112.7-112.7s50.5-112.7,112.7-112.7
				C317.7,127.5,368.1,178,368.1,240.1z"/>
			<path class="st8" d="M181.6,155.3c0,0,2.3,1.2,3.2,3.2c0.7,2,3.2,2,3.2,2h3.6l5.3-1.6l-1.3,2.9c0,0-27.5,12.8-22,20.4
				c5.6,7.6,3.6,9.5,3.6,11.9c0,2.3,1.6,0.3,1.6,0.3l1.6-4.3l2.3-3.2l2.4-3.6l0.7-2l3.2-5.6l4-2.3l3.6,2.3c0,0,1.6,0.7,1.2,2
				c-0.3,1.3-0.7,3.6-0.7,3.6s0.7,1.7,2,1.7s3.3-1.3,3.3-1.3l1.6,2.9l1.3,5.2l3.2,3.2l1.6,3.6l-1.6,3.2l1.6,1.3l3.6,4l0.7,2l-6-0.3
				c0,0-0.7-1.7-2-1.7s-6.3-0.4-6.3-0.4l-2.9,0.7l-1.6,2c0,0-2,3.2-3.3,3.2c-1.2,0-4.3-0.7-4.3-0.7s-2.4-0.7-3.6,1.6
				c-1.3,2.4,2,3.6,2,3.6l-5.6,1.6l-1.6,0.7c0,0-4,1.6-4,2.9c0,1.3,0,1.3,0,1.3l-1.2,3.2v2l-2.9,2.4l-2.9,2l-1.2,2.4v4
				c0,0-0.4,2-0.4,3.2c0,1.3,0,4.3,0,4.3s-1.3,1.3-2-1.3c-0.7-2.3-0.7-2.3-0.7-2.3l-1.3-2.9c0,0,1.3-0.3-0.3-1.6
				c-1.6-1.2-3.3-1.6-3.3-1.6s-0.7-0.7-2.3-0.7s2,0.3-1.6,0c-3.6-0.4-3.6-0.4-3.6-0.4l-2.9,2.3v2c0,0-0.7,14.1,3.3,16.1h1.6l2.3-3.6
				l2,0.7v1.6l-0.4,2.9v1.6l2,2l1.3,3.6c1.6,2.9,0.7,3.6,2,4.3c1.3,0.7,2.4,2.9,2.4,2.9l1.6,0.7c0,0,1.3,0.4,2.3,0.7
				c1.3,0.4,1.3,0.4,1.3,0.4l0.4,1.8l0.4,1.4l1.6,2c0,0-1.2,0,1.6,0c2.9,0,2.9,0,2.9,0s0,0.8,2,1.7c2,0.7,0.4,0.4,2,0.7
				c1.6,0.4,4.3,0.7,4.3,0.7c2.9-0.3,2.9-0.3,2.9-0.3l2,2.9c0,0,1.2,0,1.6,1.2c0.4,1.3-2,0,0.4,1.3s0,0.4,2.4,1.3
				c2.3,0.9-0.8,0.7,2.3,0.7s3.6,0,4.9,0.3c1.3,0.3,2,3.3,2,3.3c2.3,2.9,2.3,2.9,2.3,2.9l0.4,3.6c0,0-1.3,0.7,1.6,0.7
				c2.9,0,0.7,0,2.9,0c2.1,0-0.4-0.7,2,0c2.3,0.7,2.3,0.7,2.3,0.7s3.6,2.9,4.9,2.9c1.3,0,3.6-0.4,4.9,0c1.3,0.3,2,2.3,4.3,2.9
				c2.4,0.4,3.2,0,4.9,1.3s1.7,1.3,1.7,1.3l0.3,4.3l-1.3,2.4l-3.2,1.3l-0.4,4l-1.7,4v1.9c0,0,2,1.7-1.6,2s-3.6,0.3-3.6,0.3l-1.6,1.6
				c0,0,0,0.4-0.7,1.6s-1.6,3.3-1.6,3.3l0.4,3.6v2.3l-1.3,2c0,0-1.1,0.6,2,2.6c3.2,2,5.7,2,6.5,3.2c0.7,1.3,2.7,2.4,2.7,2.4
				l-4.3-0.9l-2.7-0.9l-4.5-1.2l-8.7-4.5c0,0-13-10.6-17-19.3c0,0-3.4-5.1-9.1-7.2c0,0-14.3-13-15.5-16.3l-0.5-2.2V297l-0.6-0.6V295
				l-0.3-0.9l0.2-4l0.2-2.7l0.2-1.4l-0.2-1.1c0,0-0.8-0.7-0.8-0.9c0-0.2-0.5-1.8-0.5-1.8l-0.2-0.5l2.1-1.8l-0.6-1.6l0.4-0.9l1.3-0.9
				c0,0,0.7-1.1,0.7-1.3c0-0.3-1.3-1.3-1.3-1.3l-0.5,0.2l-0.6,1.6h-0.7c0,0-0.7-0.4-0.7-0.6s-0.7-0.9-0.7-0.9l-0.9-0.4
				c0,0-0.7-0.2-0.9-0.5s-1.1-0.9-1.1-1.1s-0.7-1.3-0.7-1.3l-0.9-0.3c0,0-1.1-1.6-1.1-2c0-0.2-0.5-1.1-0.5-1.1s-1.3-1.4-1.3-1.6
				s-0.5-1.4-0.5-1.4h-0.9l-2-0.8l-1.3-1.6l-1.4-1.6c0,0-0.7-1.3-0.7-1.6c0-0.4-0.6-0.7-0.6-0.7h-0.9H150l-1.3-1.1l-3.2-4.5l-0.6-2
				l-0.5-2.2l-0.4-3.6v-2.3l-1.4-16.7C143,225.9,147.9,184.4,181.6,155.3z"/>
			<path class="st8" d="M308.9,141.1l3.6,2.9l1.8,0.9l1.2,1.4l0.2,1.4c0,0,0.3,1.4,0.2,1.8c-0.2,0.4-0.4,2.3-0.4,2.3
				s1.6,2.9,1.6,3.3c0,0.3,0.2,2-0.2,2.3c-0.4,0.2-2.4,1.4-2.6,0.9c-0.2-0.6-1.4-1.8-1.8-1.8c-0.4-0.2-1.5-1.3-1.5-1.3l2.9-0.4
				l-0.4-1.8c0,0-2-0.7-2.5-0.7c-0.5-0.2-2.6-1.2-2.6-1.2l-2.1-0.6c0,0-3.6-0.9-4-1.1c-0.3-0.2-1.8-0.7-1.8-0.7h-3
				c0,0-1.5,0.7-1.8,1.1c-0.2,0.4-2,2.3-2,2.3s-0.2,2.3-0.2,2.7s-0.5,1.3-0.5,2.3c0,1.1-0.2,2.5-0.2,2.9s0,0.9,0,0.9l-0.3,1.6
				l-1.3,0.8l-1.6,1.3c0,0-1.4,1.1-1.4,1.4s0,1.8,0.5,2.9c0.5,1.1,0.3,2.1,1,2.7c0.7,0.6,1.1,1.3,1.6,1.5c0.6,0.2,0.2,0.3,1.1,0.3
				c0.7,0,1.4,0.2,1.8-0.2c0.4-0.2,1.3-0.2,1.7-0.7c0.3-0.6-0.4-0.2,0.3-0.6c0.7-0.2,0.7-0.7,1.3-0.2c0.7,0.5,1.3,1.3,1.4,1.6
				c0.2,0.4,0.7,1.3,1.3,1.8c0.7,0.4,1.3,1.8,1.3,1.8l1.1,1.1c0,0,0.2,0.2,0.9,0.2s1.8-0.2,1.8-0.2l0.4-0.7c0,0,0.7,0.2,0.9-0.2
				c0.2-0.4,0.2-0.9,0.2-0.9s-0.4-1.1-0.7-1.4c-0.2-0.4-0.6-1.3-0.6-1.3l0.2-1.3l0.7-0.7l0.2-0.9v-1.1l-0.8-0.4l-1.3-0.7
				c0,0-0.7,0.2-0.7-0.7c-0.2-0.7-0.2-0.7-0.2-0.7l-1.6-0.4l-1.1-0.6l1.3-0.9c0.7-1.2,0.9-1.6,0.9-2s-0.2-1.4-0.2-1.4
				s-0.7-0.2-0.7-1.1c-0.2-0.9-0.2-1.4-0.2-1.4l0.2-0.7c0,0,0.2-0.6,0.7-0.6c0.4,0,1.1,0.6,1.5,0.6c0.3,0,1,0.2,1,0.2
				s0.4,0.1,0.4,0.7c0,0.3-0.2,1.2-0.2,1.2l0.7-1.1v1.3l-0.2,1.4v1.4l0.7,1.4l0.7,1.1c0,0,0.9,0.9,1.3,1.3c0.4,0.1,1.3,0.9,1.3,0.9
				l1.1,0.6l0.7,0.2l0.7-0.7c0,0,1.3,0.2,1.3-0.2c0.2-0.4,0.2-0.4,0.2-0.4s1.4-0.2,1.8-0.2c0.3,0,1.1,0,1.1,0s0.5,1.1,0.2,1.1
				c-0.4,0-0.6,0.4-1.5,0.7c-0.9,0.2-1.3,0-1.4,0.4c-0.2,0.4-0.7,1.3-0.7,1.3l0.7,0.2h0.5l0.8,0.7c0,0,0.2,0.2,0,0.7
				s0.7,0.4-0.2,0.5c-1,0.2-1.6-0.2-1.6-0.2s-0.2-0.9-0.8-0.5c-0.4,0.4-0.6,1.3-0.6,1.3v1.2l0.8,1.8c0,0,0.3,0.4,0,0.6
				c-0.3,0.2-1.6,1.6-1.6,1.6s-0.2,0.5-0.8,0.5c-0.3,0-0.9,0-1.8,0.2c-0.7,0.2-0.7,0.2-1.4,0.4c-0.7,0.2-1.3,0.3-2.4,0.5
				s-3.1,0.2-3.7,0.2c-0.8,0-0.9,0-1.3-0.2c-0.3-0.2-0.2,0-0.7-0.7s-1.1-1.3-1.1-1.8c0-0.4,0-0.5-0.2-1.3c-0.2-0.7-0.2-1.2-0.7-1.2
				c-0.8,0-0.8,0-0.8,0s-1.4,1.1-1.2,1.4c0.2,0.4-0.2,0,1.1,0.9c1.2,0.9,1.6,2.2,1.6,2.2l-0.2,1.3l-2.3,1.3l-1.6,0.5l-0.2,1.1
				c0,0,0,0.4-0.3,0.9c-0.4,0.5-1.3,1.3-1.3,1.3s-0.7,0.2-0.9,0.7c-0.2,0.4-0.7,1.8-0.7,1.8s-0.7-0.2-1.5,0.4
				c-0.7,0.6,0.2,0.6-1.4,1.3s-1.6,0.7-1.6,0.7l-1.8-0.1l-1.1,0.3c0,0-1.4,0.2-1.6,0.6c-0.2,0.4-0.9,1.4-0.9,1.4s-0.3,0.7,0,0.7
				c0.4,0.2,0.9,0,1.8,0.2c0.7,0.2,0.9,0.2,1.5,0.6c0.5,0.2,1.1,0.7,1.1,0.7l2,1.8l1.1,2.3l-0.2,1.8l-2.1,0.7c0,0-1.3,0-1.8,0
				c-0.4,0-0.3,0-2.4,0s-2.5,0-2.9,0s-1.8-0.2-1.8-0.2l-1.3,0.2l-0.9,0.7l-0.5,0.2c0,0,0.8,1.6,0.8,2.2c0,0.6,0,1.2,0,1.2l-0.2,1.1
				l-0.5,1.3l-0.7,1.2l0.2,0.7c0,0-0.2,0.6,0.2,0.6c0.3,0,1.4-0.2,1.4,0.2c0,0.3-0.9,1.8-0.9,1.8l1.8,0.3c0,0-0.2-0.2,0.9,0.2
				c1.1,0.1,1.8,0.5,1.8,0.5l1.2,0.9l0.4,0.7l0.4-0.7c0,0,2-0.2,2.3-0.4c0.4-0.2,1.3-0.2,1.3-0.2h1.6c0,0,0.4,0.2,0.7-0.2
				c0.2-0.3,0.2-0.3,0.2-0.3s1.8-0.7,2.2-1.1c0.4-0.2,0.5-1.3,0.5-1.3s0.6-0.3,0.6-0.7s-0.4-1.3-0.4-1.3v-0.8l0.5-0.7
				c0,0,0.2-0.2,0.7-0.7c0.6-0.6,0.6-0.6,0.6-0.6s-0.2-0.2,0.5-0.5c0.8-0.2,1.3-0.7,1.6-0.7s-0.3,0.4,0.3,0c0.7-0.4,0.9-0.7,0.9-1.3
				c0-0.4,0.2-2.3,0.2-2.3l0.7-1.1l1.8,0.2l0.9,0.2c0,0,1.1,0.2,1.2-0.2c0.2-0.4,0.7-0.7,0.7-0.7l1.4-0.7c0,0-0.2-0.2,0.6-0.2
				c0.7,0,1.8,0,2.4,0c0.3,0,1.2,0,1.2,0s0.7,0.3,1.1,0.7c0.2,0.4,0.7,1.3,0.7,1.3l0.6,0.7h0.5c0.7,0.6,1,0.9,2.3,1.3
				c1.3,0.4,2.2,0.7,2.2,0.7s0.3,0.7,0.7,1.1c0.4,0.4,0.7,0.7,1.3,1.1c0.4,0.2,0.7,0.5,0.9,0.9c0.2,0.4,0.8,1.1,0.8,1.1l0.7,0.7
				l0.4-0.7v-1.3l-0.2-0.7c0,0-0.7-0.5,0.2-0.5c0.7,0,1.3,0,1.3,0l-0.7-1.1l-0.9-0.4l-1.2-0.9l-0.6-0.5l-0.6-0.2l-0.5-0.4l-0.7-0.5
				c0,0-1.2-0.2-1.2-0.7c-0.2-0.4-0.2-0.4-0.2-0.4L312,201c0,0-1.2-0.7-1.2-1.1c0-0.4-0.2-1.5-0.2-1.5l-1-0.1c0,0,0.2-0.7,0.2-1.3
				c0-0.4,0.4-0.9,0.4-0.9l2.3-0.2l0.5,1.2l0.9,0.5l1.3,0.6l0.5,0.7l0.6,0.6c0,0,0.2,0.2,0.9,0.4c0.7,0.2,1.2,0.3,1.2,0.3
				s0.8,0.7,1.3,0.7c0.5,0.2,0.7,0.4,1.3,0.6c-0.4,0.3-0.4,0.3-0.4,0.3s0.2,0.4,0.7,0.7s1.1,1.1,1.1,1.4c0,0.4,0.4,1.6,0.7,1.8
				c0.3,0.2,0.5,0.2,1.3,0.9c0.7,0.7,0.7,1.4,1.2,1.8c0.7,0.2,1.3,0,1.3,0.7c0.2,0.7,0.2,1.3,0.2,1.3s0.6,0.2,0.9,0.2
				s1.1-0.7,1.1-0.7s0.8-1.1,0.2-1.3c-0.3-0.2-1.3-0.2-1.3-0.6c0-0.4,0-2.3,0-2.3l0.5-1.3l0.7-1.1l1.1,0.3l1.1-0.7l1.1,1.3l-0.3,1.4
				c0,0,0.2,0.9,0.7,1.6c0.4,0.7,1.3,1.7,1.3,1.7l1.8,1.6l2.6,0.7l0.6-0.2l3.8-0.7c0,0,0.6,0,0.9,0c0.4,0,2.2,3.1,2.2,3.1s0,1.3,0,2
				s0,2.5,0,2.5s-1.3,1.3-1.8,1.3c-0.6,0-2,0.7-2,0.7l-3,0.7l-2-0.2l-3.6-0.2c0,0-3.6-0.2-4-0.2s-1.6,0-2,0s-0.9,0.4-1.2,1.4
				c-0.4,1.1-1.1,1.4-1.1,1.4s0,0.6-0.7,0.6c-0.8,0-0.8,0.2-1.3-0.2s-3.1-0.9-3.1-0.9l-2.4-1.6l-1.3-1.1l-1.3-0.2h-3.6l-2.4-0.2
				l0.4-3.8l0.3,1.1l-0.8-2.5l-1.1-0.7l-2.5-0.6l-1.6,0.2l-2.1,0.6l-2.2,0.7l-1.3,0.4l-6.1,1.1l-2.2,0.9c0,0-0.9,0.5-1.2,0.7
				c-0.3,0.2-1.8,0.2-1.8,0.2s-1.1-0.2-1.6-0.3c-0.5-0.2-1.8-0.2-2.4-0.2c-0.5,0-1.6-0.2-2,0c-0.3,0.2-0.7,0.2-1.1,0.7
				c-0.4,0.6-1.6,2-1.6,2s-0.7,0.7-1.1,1.1c-0.2,0.3-1.1,1.4-1.1,1.4l-1.5,2.3l-0.9,1.1l0.2,1.3v0.9c0,0-0.6,0.5-0.9,0.7
				c-0.4,0.2-1.1,0.6-1.1,0.6s-0.5,0.2-1.1,0.7c-0.5,0.4-0.5,0.6-0.9,0.9c-0.4,0.4-1.7,1.3-1.7,1.3s-0.7,0.6-1.2,1.1
				c-0.3,0.6-1.1,1.2-1.3,1.6c-0.2,0.4-0.8,0.7-1.1,0.9c-0.3,0.2-1.1,1.7-1.2,2c-0.2,0.3-1.3,2-1.3,2l-0.7,3.1l-0.2,1.4
				c0,0,0.2,0.6,0.5,0.9s0.7,1.8,0.7,1.8v1.3c0,0-0.4,1.1-0.6,1.4c-0.2,0.3,0.2,2.2,0.2,2.2v1.1c0,0,0,0.4-0.5,0.9
				c-0.6,0.6-0.7,1.3-0.7,1.3l0.7,1.6l0.5,1.1v0.7l0.7,1.2c0,0,0.4,0.4,0.7,0.7c0.4,0.2,0.6,0.2,1.3,0.7c0.7,0.3,0.7,0.3,0.7,0.3
				s1.1,1.3,1.1,1.8c0,0.4,0.7,1.1,0.7,1.1l1.3,1.3c0,0,0.2,0.7,0.9,1.2c0.7,0.6,1.5,0.9,1.8,1.3c0.4,0.2,1.4,1.1,2.3,1.2
				c0.7,0.2,1.1,0.4,1.5,0.4c0.3,0-0.6-1.1,2,0.2c2.6,1.3,4.2,1.8,4.2,1.8l1.8,0.7c0,0,2.9,0.2,3.2-0.2c0.3-0.2,0.9-0.2,1.2-0.2
				s1.3,0,2,0s3.2-0.4,3.2-0.4l2.9-1.1c0,0,0.9-0.6,1.3-0.7c0.4-0.2,1.4-0.9,1.8-1.1s2.1-0.2,2.1-0.2s0-0.5,0.7,0
				c0.7,0.6,0.7,0.7,0.9,1.1c0.2,0.4,0.2,1.3,0.7,1.3c0.5,0.2,1.8,0.5,1.8,0.5s1.8-0.2,2.3,0c0.6,0.2,1.8,0.2,1.8,0.2l0.6,0.7
				l0.2,1.6v1.5c0,0-0.2,0.6,0,1.1s0.8,1.5,0.8,1.5s-0.8,1.1-1.1,1.2c-0.4,0.2-1.3,1.3-1.3,1.3l2.5,2.3l1.4,1.4l1.1,1.3
				c0,0,0.2,0.5,0.2,0.9c0,0.3-0.2,1.3,0,1.8c0.2,0.4,0.2,1.8,0.2,1.8s0.2,1.1,0.2,1.4s-0.3,2.1-0.3,2.1l-0.2,1.3l-0.8,2.2l-0.9,1.1
				l-1.3,1.3l-0.9,1.4l-0.2,2l-0.8,1.2c0,0,0.2,1.1,0.2,1.7c0,0.5,1.1,2.5,1.1,2.5l-0.2,1.6c0,0-0.7,2.4-0.7,2.9
				c0,0.6-0.6,1.3-0.6,1.8c0,0.3-0.2,2-0.2,2l0.2,2l0.7,2l-0.7,1.8c0,0-0.4,1.4-0.4,2.3c0,0.7,1.3,1.6,1.6,1.6c0.4,0,2-0.2,2.7-0.7
				c0.7-0.4,2.5-0.9,2.9-1.1s0.7,0.2,1.8-0.7c1.1-0.7,2.7-2,2.7-2s1.3-0.9,1.8-1.3c0.3-0.4,2.1-2.4,2.1-2.4s1.3-1.2,2.1-1.8
				c0.9-0.6,0-0.2,0.9-0.7s3.8-2.9,3.8-2.9l2.9-2.9c0,0,2.5-3.2,2.9-3.8c0.4-0.6,2.7-3.6,3.1-3.8c0.3-0.2,3.6-2.3,4.3-2.9
				c0.7-0.6,1.6-4.3,2-4.9c0.3-0.3,2.4-4.9,2.4-4.9l1.8-5.2l3-7.8l3.1-5.4c0,0,1.2-2.3,1.8-3c0.4-0.7,3.3-6.3,3.3-6.3l1.1-4.6l0.3-4
				h-1.8l-2,1.8l-1.8-0.6l-1.8,0.2l2-2.5l-0.6-2l-1.6-1.3l-2.2-3.2V243l-2.3-3.8l-1.4-6c0,0-2.7-2.9-2.3-3.6
				c0.2-0.7,0.9-2.9,0.9-2.9l1.5,0.7c0,0,1.1,2.9,1.6,3.1c0.6,0.2,1.3,1.6,1.5,2s0.3,1.7,0.7,2c0.2,0.3,1.4,2.7,1.4,2.7
				s0.9,2.3,1.1,2.9c0.2,0.4,1.1,1.8,1.3,2.9c0.2,1.1,0.7,4.5,0.7,4.9s0.9,4.1,0.9,4.1s1.3-0.3,1.4-0.7c0.2-0.4,0.2-0.6,0.6-0.9
				c0.2-0.4,2.3-2,2.3-2l0.9-2.9c0,0,0.6-1.3,0.7-1.8c0.2-0.6,1.3-2.5,1.3-2.9s-0.2-1.8,0-2.4c0.2-0.3,0.7-2.5,0.7-2.9
				s0.2-1.8,0.2-1.8l-0.2-3.2l1.4-1.8l0.7-2C368,226.1,362.8,169.5,308.9,141.1z"/>
		</g>
	</g>
	<g>
		<rect x="74.1" y="14" class="st9" width="362.8" height="92.8"/>
		<g class="st10">
			<path class="st11" d="M222.3,59.8c0,6.2-1,11.6-2.9,16.3c-2,4.7-4.6,8.6-8,11.8c-3.4,3.2-7.4,5.5-12,7.1s-9.6,2.4-15,2.4
				c-5.2,0-10.1-0.8-14.7-2.4c-4.6-1.6-8.6-4-12.1-7.1c-3.4-3.2-6.1-7.1-8.1-11.8c-2-4.7-3-10.1-3-16.3s1-11.6,3.1-16.3
				c2-4.7,4.8-8.6,8.3-11.8s7.5-5.6,12.1-7.2s9.4-2.4,14.4-2.4c5.2,0,10.1,0.8,14.7,2.4c4.6,1.6,8.6,4,12.1,7.2
				c3.4,3.2,6.1,7.2,8.1,11.8S222.3,53.6,222.3,59.8z M164.2,59.8c0,3.5,0.4,6.8,1.4,9.6c0.9,2.9,2.2,5.3,4,7.4
				c1.7,2.1,3.8,3.6,6.3,4.7s5.4,1.7,8.6,1.7c3.2,0,6-0.6,8.5-1.7s4.6-2.7,6.4-4.7c1.7-2,3-4.5,3.9-7.4c0.9-2.8,1.4-6,1.4-9.6
				s-0.5-6.8-1.4-9.6c-0.9-2.9-2.2-5.4-3.9-7.4s-3.8-3.6-6.4-4.8c-2.5-1.1-5.4-1.7-8.5-1.7c-3.2,0-6.1,0.6-8.6,1.7
				c-2.5,1.2-4.6,2.7-6.3,4.8s-3.1,4.5-4,7.4C164.7,53.2,164.2,56.3,164.2,59.8z"/>
			<path class="st11" d="M290.5,23.7v13.9h-23V96h-17.1V37.6h-22.9V23.7H290.5z"/>
			<path class="st11" d="M347.3,23.7h17.1V96h-17.1V65.3h-28.7V96h-17.1V23.7h17.1v27.6h28.7V23.7z"/>
		</g>
	</g>
</g>
</svg>
