<?xml version="1.0" encoding="utf-8"?>
<!-- Generator: Adobe Illustrator 21.0.0, SVG Export Plug-In . SVG Version: 6.00 Build 0)  -->
<svg version="1.1" id="图层_1" xmlns="http://www.w3.org/2000/svg" xmlns:xlink="http://www.w3.org/1999/xlink" x="0px" y="0px"
	 viewBox="0 0 512 512" style="enable-background:new 0 0 512 512;" xml:space="preserve">
<style type="text/css">
	.st0{opacity:0.2;enable-background:new    ;}
	.st1{opacity:0.1;enable-background:new    ;}
	.st2{fill:#3D2723;}
	.st3{fill:url(#SVGID_1_);}
	.st4{fill:#5D4037;fill-opacity:0.3922;}
	.st5{fill:#FFFFFF;fill-opacity:0.3922;}
	.st6{opacity:0.8;}
	.st7{fill:#FFFFFF;}
</style>
<polygon class="st0" points="68.2,504 68.2,8 443.8,8 443.8,364.3 304.1,504 "/>
<polygon class="st0" points="68.2,504 68.2,8 443.8,8 443.8,364.3 304.1,504 "/>
<polygon class="st1" points="68.2,512 68.2,8 451.8,8 451.8,369.9 309.7,512 "/>
<polygon class="st1" points="72.2,508 72.2,12 447.8,12 447.8,368.3 308.1,508 "/>
<polygon class="st2" points="72.2,500 72.2,12 439.8,12 439.8,362.6 302.4,500 "/>
<g>
	
		<linearGradient id="SVGID_1_" gradientUnits="userSpaceOnUse" x1="411.8701" y1="-518.6299" x2="411.8701" y2="-34.6299" gradientTransform="matrix(1 0 0 -1 -155.8701 -20.6299)">
		<stop  offset="0" style="stop-color:#785548"/>
		<stop  offset="1" style="stop-color:#9F9E9F"/>
	</linearGradient>
	<polygon class="st3" points="74.7,498 74.7,14 437.3,14 437.3,361.9 301.2,498 	"/>
</g>
<polygon class="st4" points="437.3,361.9 437.3,356 293.7,356 293.7,498 301.2,498 "/>
<path class="st5" d="M301,361.9l136.3,0.2L301.2,498L301,361.9z"/>
<g class="st6">
	<path class="st7" d="M201.2,233.9V14h-12.8v219.9h-9.7V14H166v219.9h-9.7V14h-12.8v219.9h-9.7V14H121v219.9h-3.4v69.6h87.9v-69.6
		H201.2z M192.8,283.2h-62.4V243h62.4L192.8,283.2L192.8,283.2z"/>
	<rect x="142.3" y="247.4" class="st7" width="38.6" height="24.4"/>
</g>
</svg>
