<?xml version="1.0" encoding="utf-8"?>
<!-- Generator: Adobe Illustrator 21.0.0, SVG Export Plug-In . SVG Version: 6.00 Build 0)  -->
<svg version="1.1" id="图层_1" xmlns="http://www.w3.org/2000/svg" xmlns:xlink="http://www.w3.org/1999/xlink" x="0px" y="0px"
	 viewBox="0 0 512 512" style="enable-background:new 0 0 512 512;" xml:space="preserve">
<style type="text/css">
	.st0{opacity:0.08;enable-background:new    ;}
	.st1{opacity:0.1;enable-background:new    ;}
	.st2{opacity:0.2;enable-background:new    ;}
	.st3{fill:#3E2723;}
	.st4{fill:url(#SVGID_1_);}
	.st5{fill:#795548;fill-opacity:0.7;}
	.st6{opacity:0.39;fill:#FFFFFF;enable-background:new    ;}
	.st7{fill:#FFFFFF;}
	.st8{opacity:0.8;fill:#FFFFFF;enable-background:new    ;}
	.st9{enable-background:new    ;}
	.st10{fill:#5D4037;}
</style>
<polygon class="st0" points="68.2,512 68.2,8 451.8,8 451.8,369.9 309.7,512 "/>
<polygon class="st1" points="72.2,508 72.2,12 447.8,12 447.8,368.3 308.1,508 "/>
<polygon class="st2" points="68.2,504 68.2,8 443.8,8 443.8,364.3 304.1,504 "/>
<polygon class="st3" points="72.2,500 72.2,12 438.8,12 438.8,362.6 301.8,500 "/>
<g>
	<g>
		
			<linearGradient id="SVGID_1_" gradientUnits="userSpaceOnUse" x1="297.1001" y1="80.0991" x2="297.1001" y2="-403.9009" gradientTransform="matrix(1 0 0 -1 -41.6001 94.0991)">
			<stop  offset="0" style="stop-color:#785548"/>
			<stop  offset="1" style="stop-color:#9F9E9F"/>
		</linearGradient>
		<polygon class="st4" points="74.2,498 74.2,14 436.8,14 436.8,361.7 302,498 		"/>
		<polygon class="st5" points="436.8,361.9 436.8,356 293.3,356 293.3,498 300.7,498 		"/>
		<path class="st6" d="M300.5,361.9l136.3,0.2L300.7,498L300.5,361.9z"/>
	</g>
	<path class="st7" d="M203.8,107.3h-12.3v157.2h-9.3V107.3H170v157.2h-9.3V107.3h-12.2v157.2h-9.3V107.3H127v157.2h-3.2v66.6h84.1
		v-66.6h-4.2L203.8,107.3L203.8,107.3z M195.7,311.7H136v-38.6h59.7V311.7z"/>
	<g>
		<rect x="74.1" y="14" class="st8" width="362.8" height="92.8"/>
		<g class="st9">
			<path class="st10" d="M162.1,84.1c2.4,0,4.4-0.2,6-0.6s2.8-0.9,3.8-1.6s1.6-1.4,2-2.3s0.6-1.9,0.6-3c0-2.4-1.2-4.3-3.5-5.9
				s-6.4-3.2-12.1-5.1c-2.5-0.8-5-1.8-7.5-2.9s-4.7-2.4-6.7-4.1c-2-1.6-3.6-3.6-4.8-6c-1.3-2.3-1.9-5.2-1.9-8.5s0.6-6.3,2-9
				c1.3-2.7,3.2-5,5.6-6.8c2.4-1.9,5.4-3.3,8.8-4.3s7.3-1.5,11.6-1.5c5.1,0,9.5,0.5,13.3,1.6c3.7,1,6.8,2.2,9.2,3.4l-4.9,12.8
				c-2.1-1.1-4.5-2-7.1-2.8s-5.7-1.2-9.4-1.2c-4.1,0-7.1,0.5-8.9,1.6c-1.8,1.1-2.7,2.7-2.7,4.9c0,1.3,0.3,2.4,1,3.3
				c0.7,0.9,1.6,1.7,2.8,2.5c1.2,0.7,2.6,1.4,4.2,2c1.6,0.6,3.3,1.2,5.2,1.8c4,1.4,7.4,2.8,10.3,4.1s5.4,2.9,7.3,4.7
				c1.9,1.8,3.4,3.9,4.3,6.4c0.9,2.4,1.4,5.4,1.4,8.9c0,6.7-2.5,12-7.5,15.7S172,97.8,162,97.8c-3.4,0-6.4-0.2-9.1-0.6
				s-5.1-0.9-7.2-1.4c-2.1-0.6-3.9-1.2-5.4-1.8c-1.5-0.6-2.8-1.2-3.8-1.8l4.8-12.9c2.3,1.2,5.1,2.2,8.4,3.2
				C153.1,83.7,157.2,84.1,162.1,84.1z"/>
			<path class="st10" d="M205.2,24.2h17.1v72.3h-17.1V24.2z"/>
			<path class="st10" d="M296.3,24.2v13.9h-23v58.4h-17.1V38.1h-23V24.2C233.3,24.2,296.3,24.2,296.3,24.2z"/>
			<path class="st10" d="M353.9,96.5c-2.1-4-4.5-8.1-7-12.2c-2.6-4.1-5.5-7.6-8.8-10.5c-1,1.1-2.3,2.6-3.9,4.5s-3.2,4-4.7,6.1
				c-1.5,2.2-3.1,4.4-4.4,6.7c-1.4,2.3-2.4,4.1-3.1,5.4h-19.5c3.2-5.6,7-11.5,11.3-17.5s9.2-12.4,14.6-19.1l-24.8-35.7h20.8
				l14.5,20.9l14.8-20.9h19.5l-24.7,34.9c6.5,7.7,11.8,14.8,16,21.2s7.5,11.8,9.9,16.2H353.9z"/>
		</g>
	</g>
</g>
</svg>
