<?xml version="1.0" encoding="utf-8"?>
<!-- Generator: Adobe Illustrator 16.0.0, SVG Export Plug-In . SVG Version: 6.00 Build 0)  -->
<!DOCTYPE svg PUBLIC "-//W3C//DTD SVG 1.1//EN" "http://www.w3.org/Graphics/SVG/1.1/DTD/svg11.dtd">
<svg version="1.1" id="图层_1" xmlns="http://www.w3.org/2000/svg" xmlns:xlink="http://www.w3.org/1999/xlink" x="0px" y="0px"
	 width="512px" height="512px" viewBox="0 0 512 512" enable-background="new 0 0 512 512" xml:space="preserve">
<polygon opacity="0.08" enable-background="new    " points="68.2,512 68.2,8 451.801,8 451.801,369.913 309.714,512 "/>
<polygon opacity="0.1" enable-background="new    " points="72.2,508 72.2,12 447.801,12 447.801,368.256 308.057,508 "/>
<polygon opacity="0.2" enable-background="new    " points="68.2,504 68.2,8 443.801,8 443.801,364.256 304.058,504 "/>
<polygon fill="#0D47A1" points="72.199,500 72.199,12 438.793,12 438.793,362.602 301.771,500 "/>
<g>
	<g>
		<g>
			<g>
				<linearGradient id="SVGID_1_" gradientUnits="userSpaceOnUse" x1="255.6541" y1="497.9998" x2="255.654" y2="14.0002">
					<stop  offset="0" style="stop-color:#3F51B5"/>
					<stop  offset="1" style="stop-color:#64B5F6"/>
				</linearGradient>
				<polygon fill="url(#SVGID_1_)" points="74.343,498 74.343,14 436.965,14 436.965,361.875 300.84,498 				"/>
			</g>
			<polygon fill="#2196F3" fill-opacity="0.7" points="436.965,361.875 436.965,356.014 293.371,356.014 293.371,498 300.84,498 			
				"/>
			<path opacity="0.39" fill="#FFFFFF" d="M300.651,361.875l136.346,0.189L300.84,498L300.651,361.875z"/>
		</g>
		<g opacity="0.8">
			<linearGradient id="SVGID_2_" gradientUnits="userSpaceOnUse" x1="128.0999" y1="179.1145" x2="383.0188" y2="179.1145">
				<stop  offset="0" style="stop-color:#F6F5F5"/>
				<stop  offset="0.341" style="stop-color:#F1F2F3"/>
				<stop  offset="0.6434" style="stop-color:#E7EAEB"/>
				<stop  offset="0.9302" style="stop-color:#D5DBDF"/>
				<stop  offset="1" style="stop-color:#CFD7DB"/>
			</linearGradient>
			<rect x="128.1" y="172.812" opacity="0.8" fill="url(#SVGID_2_)" enable-background="new    " width="254.919" height="12.604"/>
			<linearGradient id="SVGID_3_" gradientUnits="userSpaceOnUse" x1="128.0999" y1="139.7112" x2="383.0188" y2="139.7112">
				<stop  offset="0" style="stop-color:#F6F5F5"/>
				<stop  offset="0.341" style="stop-color:#F1F2F3"/>
				<stop  offset="0.6434" style="stop-color:#E7EAEB"/>
				<stop  offset="0.9302" style="stop-color:#D5DBDF"/>
				<stop  offset="1" style="stop-color:#CFD7DB"/>
			</linearGradient>
			<rect x="128.1" y="133.393" opacity="0.8" fill="url(#SVGID_3_)" enable-background="new    " width="254.919" height="12.636"/>
			<linearGradient id="SVGID_4_" gradientUnits="userSpaceOnUse" x1="249.7141" y1="276.4031" x2="382.8293" y2="276.4031">
				<stop  offset="0" style="stop-color:#F6F5F5"/>
				<stop  offset="0.341" style="stop-color:#F1F2F3"/>
				<stop  offset="0.6434" style="stop-color:#E7EAEB"/>
				<stop  offset="0.9302" style="stop-color:#D5DBDF"/>
				<stop  offset="1" style="stop-color:#CFD7DB"/>
			</linearGradient>
			
				<rect x="249.714" y="209.869" opacity="0.8" fill="url(#SVGID_4_)" enable-background="new    " width="133.115" height="133.068"/>
			<g opacity="0.8">
				<linearGradient id="SVGID_5_" gradientUnits="userSpaceOnUse" x1="128.0999" y1="218.4866" x2="238.8274" y2="218.4866">
					<stop  offset="0" style="stop-color:#F6F5F5"/>
					<stop  offset="0.341" style="stop-color:#F1F2F3"/>
					<stop  offset="0.6434" style="stop-color:#E7EAEB"/>
					<stop  offset="0.9302" style="stop-color:#D5DBDF"/>
					<stop  offset="1" style="stop-color:#CFD7DB"/>
				</linearGradient>
				<rect x="128.1" y="212.169" fill="url(#SVGID_5_)" width="110.728" height="12.636"/>
				<linearGradient id="SVGID_6_" gradientUnits="userSpaceOnUse" x1="128.0999" y1="257.8904" x2="238.8274" y2="257.8904">
					<stop  offset="0" style="stop-color:#F6F5F5"/>
					<stop  offset="0.341" style="stop-color:#F1F2F3"/>
					<stop  offset="0.6434" style="stop-color:#E7EAEB"/>
					<stop  offset="0.9302" style="stop-color:#D5DBDF"/>
					<stop  offset="1" style="stop-color:#CFD7DB"/>
				</linearGradient>
				<rect x="128.1" y="251.589" fill="url(#SVGID_6_)" width="110.728" height="12.604"/>
				<linearGradient id="SVGID_7_" gradientUnits="userSpaceOnUse" x1="128.0999" y1="297.4363" x2="238.8274" y2="297.4363">
					<stop  offset="0" style="stop-color:#F6F5F5"/>
					<stop  offset="0.341" style="stop-color:#F1F2F3"/>
					<stop  offset="0.6434" style="stop-color:#E7EAEB"/>
					<stop  offset="0.9302" style="stop-color:#D5DBDF"/>
					<stop  offset="1" style="stop-color:#CFD7DB"/>
				</linearGradient>
				<rect x="128.1" y="291.135" fill="url(#SVGID_7_)" width="110.728" height="12.604"/>
				<linearGradient id="SVGID_8_" gradientUnits="userSpaceOnUse" x1="128.0999" y1="336.824" x2="238.8274" y2="336.824">
					<stop  offset="0" style="stop-color:#F6F5F5"/>
					<stop  offset="0.341" style="stop-color:#F1F2F3"/>
					<stop  offset="0.6434" style="stop-color:#E7EAEB"/>
					<stop  offset="0.9302" style="stop-color:#D5DBDF"/>
					<stop  offset="1" style="stop-color:#CFD7DB"/>
				</linearGradient>
				<rect x="128.1" y="330.522" fill="url(#SVGID_8_)" width="110.728" height="12.604"/>
			</g>
		</g>
	</g>
	<g>
		<rect x="73.996" y="14" opacity="0.8" fill="#FFFFFF" width="362.812" height="92.767"/>
	</g>
	<g>
		<path fill="#1976D2" d="M182.408,23.296c11.422,0,20.167,1.922,26.248,5.798s9.123,9.863,9.123,17.992
			c0,5.073-1.229,9.201-3.687,12.353c-2.458,3.183-5.987,5.672-10.587,7.468c1.528,1.796,3.135,3.876,4.821,6.208
			c1.686,2.331,3.356,4.789,4.994,7.31c1.654,2.521,3.246,5.168,4.79,7.941c1.528,2.71,2.962,5.42,4.27,8.066h-19.143
			c-1.402-2.363-2.82-4.758-4.238-7.185c-1.434-2.458-2.915-4.789-4.412-7.121c-1.512-2.269-2.993-4.475-4.474-6.491
			c-1.465-2.08-2.931-3.907-4.396-5.609h-8.46v26.406H160.13V25.155c3.734-0.693,7.594-1.166,11.58-1.45
			C175.697,23.453,179.273,23.296,182.408,23.296z M183.401,37.192c-1.245,0-2.363,0-3.34,0.094
			c-0.992,0.063-1.922,0.126-2.804,0.221v19.6h4.837c6.428,0,11.044-0.756,13.833-2.3c2.773-1.544,4.175-4.128,4.175-7.847
			c0-3.529-1.418-6.05-4.238-7.563C193.043,37.917,188.899,37.192,183.401,37.192z"/>
		<path fill="#1976D2" d="M288.74,24.146v13.865h-22.986v58.42h-17.126v-58.42h-22.956V24.146H288.74z"/>
		<path fill="#1976D2" d="M299.705,96.431V24.146h50.983v13.676h-33.842v15.125h30.061v13.644h-30.061v29.841H299.705z"/>
	</g>
</g>
</svg>
