<?xml version="1.0" encoding="utf-8"?>
<!-- Generator: Adobe Illustrator 16.0.0, SVG Export Plug-In . SVG Version: 6.00 Build 0)  -->
<!DOCTYPE svg PUBLIC "-//W3C//DTD SVG 1.1//EN" "http://www.w3.org/Graphics/SVG/1.1/DTD/svg11.dtd">
<svg version="1.1" id="图层_1" xmlns="http://www.w3.org/2000/svg" xmlns:xlink="http://www.w3.org/1999/xlink" x="0px" y="0px"
	 width="512px" height="512px" viewBox="0 0 512 512" enable-background="new 0 0 512 512" xml:space="preserve">
<polygon opacity="0.08" enable-background="new    " points="68.2,512 68.2,8 451.801,8 451.801,369.913 309.714,512 "/>
<polygon opacity="0.1" enable-background="new    " points="72.2,508 72.2,12 447.801,12 447.801,368.256 308.057,508 "/>
<polygon opacity="0.2" enable-background="new    " points="68.2,504 68.2,8 443.801,8 443.801,364.256 304.058,504 "/>
<polygon fill="#3E2723" points="72.199,500 72.199,12 438.793,12 438.793,362.602 301.771,500 "/>
<g>
	<g>
		
			<linearGradient id="SVGID_1_" gradientUnits="userSpaceOnUse" x1="297.0959" y1="334.0994" x2="297.0959" y2="-149.9006" gradientTransform="matrix(1 0 0 -1 -41.6001 348.0991)">
			<stop  offset="0" style="stop-color:#785548"/>
			<stop  offset="1" style="stop-color:#9F9E9F"/>
		</linearGradient>
		<polygon fill="url(#SVGID_1_)" points="74.176,498 74.176,14 436.817,14 436.817,361.695 302.02,498 		"/>
		<polygon fill="#795548" fill-opacity="0.7" points="436.817,361.875 436.817,356.023 293.241,356.023 293.241,498 300.692,498 		
			"/>
		<path opacity="0.39" fill="#FFFFFF" enable-background="new    " d="M300.489,361.875l136.328,0.18L300.692,498L300.489,361.875z"
			/>
	</g>
	<path fill="#FFFFFF" d="M203.752,107.304h-12.268v157.17h-9.295v-157.17h-12.177v157.17h-9.273v-157.17h-12.222v157.17h-9.295
		v-157.17h-12.222v157.17h-3.196v66.588h84.132v-66.588h-4.186V107.304z M195.693,311.706h-59.689v-38.601h59.689V311.706z"/>
	<g>
		<rect x="74.109" y="14" opacity="0.8" fill="#FFFFFF" enable-background="new    " width="362.775" height="92.764"/>
		<g enable-background="new    ">
			<path fill="#5D4037" d="M211.922,96.546c-0.811-2.51-1.733-5.098-2.701-7.743c-0.99-2.645-1.958-5.289-2.903-7.911h-29.755
				c-0.945,2.633-1.913,5.278-2.858,7.934c-0.968,2.645-1.868,5.222-2.701,7.72h-17.781c2.836-7.788,5.582-14.99,8.125-21.607
				c2.588-6.595,5.109-12.818,7.563-18.67c2.453-5.841,4.884-11.389,7.247-16.633c2.409-5.244,4.884-10.387,7.45-15.395h16.25
				c2.498,5.008,4.952,10.151,7.383,15.395c2.408,5.244,4.885,10.792,7.338,16.633c2.453,5.852,4.974,12.075,7.563,18.67
				c2.588,6.617,5.289,13.819,8.146,21.607H211.922z M191.373,40.626c-0.406,1.036-0.945,2.476-1.688,4.288
				c-0.72,1.812-1.575,3.894-2.499,6.257c-0.945,2.375-2.002,4.974-3.15,7.821c-1.17,2.858-2.363,5.83-3.556,8.969h21.765
				c-1.148-3.14-2.297-6.133-3.399-8.992c-1.058-2.858-2.116-5.469-3.083-7.833c-1.014-2.386-1.869-4.457-2.589-6.269
				C192.429,43.068,191.822,41.65,191.373,40.626z"/>
			<path fill="#5D4037" d="M262.338,23.408c11.412,0,20.167,1.936,26.244,5.795s9.115,9.858,9.115,17.995
				c0,5.076-1.192,9.194-3.668,12.368c-2.453,3.162-5.987,5.638-10.579,7.45c1.509,1.812,3.129,3.872,4.794,6.212
				c1.688,2.33,3.377,4.75,5.042,7.304c1.644,2.543,3.219,5.166,4.749,7.923c1.553,2.746,2.971,5.436,4.299,8.091h-19.176
				c-1.418-2.363-2.791-4.76-4.254-7.202c-1.418-2.431-2.881-4.794-4.412-7.09c-1.508-2.307-2.948-4.479-4.456-6.527
				c-1.464-2.048-2.903-3.905-4.39-5.571h-8.484v26.39h-17.106v-71.27c3.758-0.687,7.607-1.182,11.568-1.441
				C255.631,23.543,259.188,23.408,262.338,23.408z M263.352,37.283c-1.261,0-2.408,0.034-3.354,0.113
				c-0.99,0.067-1.936,0.124-2.836,0.203v19.615h4.861c6.438,0,11.028-0.766,13.842-2.296c2.769-1.531,4.187-4.142,4.187-7.833
				c0-3.545-1.463-6.066-4.254-7.563C272.985,38.026,268.821,37.283,263.352,37.283z"/>
			<path fill="#5D4037" d="M357.748,72.226c0,3.545-0.406,6.887-1.262,10.027c-0.81,3.117-2.272,5.863-4.365,8.192
				c-2.094,2.33-4.885,4.175-8.463,5.526c-3.557,1.361-8.035,2.037-13.438,2.037c-4.996,0-9.273-0.585-12.874-1.733
				c-3.579-1.137-6.55-2.476-8.868-4.006l5.694-12.638c2.116,1.182,4.39,2.239,6.798,3.14c2.43,0.9,5.086,1.351,7.922,1.351
				c4.164,0,7.18-0.968,9.004-2.915c1.822-1.947,2.745-5.21,2.745-9.813V24.24h17.106V72.226z"/>
		</g>
	</g>
</g>
</svg>
