<?xml version="1.0" encoding="utf-8"?>
<!-- Generator: Adobe Illustrator 16.0.0, SVG Export Plug-In . SVG Version: 6.00 Build 0)  -->
<!DOCTYPE svg PUBLIC "-//W3C//DTD SVG 1.1//EN" "http://www.w3.org/Graphics/SVG/1.1/DTD/svg11.dtd">
<svg version="1.1" id="图层_1" xmlns="http://www.w3.org/2000/svg" xmlns:xlink="http://www.w3.org/1999/xlink" x="0px" y="0px"
	 width="512px" height="512px" viewBox="0 0 512 512" enable-background="new 0 0 512 512" xml:space="preserve">
<polygon opacity="0.08" enable-background="new    " points="68.2,512 68.2,8 451.801,8 451.801,369.913 309.714,512 "/>
<polygon opacity="0.1" enable-background="new    " points="72.2,508 72.2,12 447.801,12 447.801,368.256 308.057,508 "/>
<polygon opacity="0.2" enable-background="new    " points="68.2,504 68.2,8 443.801,8 443.801,364.256 304.058,504 "/>
<polygon fill="#3E2723" points="72.199,500 72.199,12 438.793,12 438.793,362.602 301.771,500 "/>
<g>
	<g>
		
			<linearGradient id="SVGID_1_" gradientUnits="userSpaceOnUse" x1="297.1116" y1="334.0994" x2="297.1115" y2="-149.9006" gradientTransform="matrix(1 0 0 -1 -41.6001 348.0991)">
			<stop  offset="0" style="stop-color:#785548"/>
			<stop  offset="1" style="stop-color:#9F9E9F"/>
		</linearGradient>
		<polygon fill="url(#SVGID_1_)" points="74.201,498 74.201,14 436.823,14 436.823,361.686 302.021,498 		"/>
		<polygon fill="#795548" fill-opacity="0.7" points="436.823,361.875 436.823,356.014 293.261,356.014 293.261,498 300.698,498 		
			"/>
		<path opacity="0.39" fill="#FFFFFF" enable-background="new    " d="M300.508,361.875l136.314,0.189L300.698,498L300.508,361.875z
			"/>
	</g>
	<path fill="#FFFFFF" d="M203.772,107.302h-12.289v157.174h-9.265V107.302h-12.226v157.174h-9.265V107.302h-12.226v157.174h-9.264
		V107.302h-12.227v157.174h-3.214v66.582h84.133v-66.582h-4.159V107.302z M195.705,311.711h-59.681v-38.6h59.681V311.711z"/>
	<g>
		<rect x="74.106" y="14" opacity="0.8" fill="#FFFFFF" enable-background="new    " width="362.78" height="92.767"/>
		<g enable-background="new    ">
			<path fill="#5D4037" d="M162.052,84.127c2.426,0,4.411-0.189,5.986-0.567c1.576-0.394,2.836-0.914,3.781-1.575
				c0.978-0.662,1.607-1.434,1.985-2.348c0.378-0.898,0.567-1.906,0.567-3.025c0-2.363-1.197-4.333-3.529-5.893
				s-6.365-3.246-12.068-5.058c-2.489-0.835-4.979-1.796-7.468-2.867s-4.727-2.442-6.712-4.065
				c-1.985-1.639-3.592-3.624-4.821-5.956c-1.261-2.332-1.859-5.167-1.859-8.492c0-3.34,0.631-6.349,1.954-9.027
				c1.323-2.679,3.183-4.963,5.608-6.838c2.427-1.875,5.357-3.324,8.792-4.333s7.311-1.513,11.627-1.513
				c5.137,0,9.548,0.52,13.298,1.576c3.718,1.04,6.806,2.19,9.232,3.435l-4.947,12.84c-2.143-1.056-4.506-1.969-7.09-2.773
				c-2.615-0.803-5.735-1.197-9.39-1.197c-4.097,0-7.059,0.536-8.854,1.623c-1.765,1.072-2.679,2.726-2.679,4.947
				c0,1.324,0.347,2.442,0.977,3.34c0.662,0.898,1.607,1.717,2.805,2.458c1.229,0.725,2.615,1.387,4.19,1.97
				c1.576,0.599,3.309,1.213,5.199,1.828c3.971,1.402,7.405,2.772,10.336,4.127s5.356,2.931,7.311,4.743
				c1.922,1.812,3.371,3.938,4.316,6.365c0.945,2.442,1.45,5.389,1.45,8.871c0,6.743-2.49,11.974-7.469,15.692
				c-4.979,3.734-12.51,5.593-22.529,5.593c-3.372,0-6.396-0.205-9.106-0.583s-5.105-0.851-7.185-1.402
				c-2.111-0.551-3.876-1.15-5.389-1.78c-1.513-0.614-2.772-1.213-3.781-1.765l4.821-12.935c2.269,1.182,5.073,2.237,8.413,3.183
				C153.135,83.654,157.231,84.127,162.052,84.127z"/>
			<path fill="#5D4037" d="M205.19,24.241h17.142v72.301H205.19V24.241z"/>
			<path fill="#5D4037" d="M296.349,24.241v13.88h-22.971v58.42h-17.11v-58.42h-22.971v-13.88H296.349z"/>
			<path fill="#5D4037" d="M353.918,96.542c-2.143-4.033-4.474-8.098-7.026-12.242c-2.553-4.128-5.482-7.61-8.791-10.478
				c-1.009,1.087-2.332,2.584-3.876,4.49c-1.576,1.922-3.151,3.955-4.727,6.098c-1.544,2.158-3.057,4.38-4.412,6.696
				c-1.354,2.316-2.363,4.128-3.056,5.436h-19.537c3.214-5.64,6.995-11.47,11.344-17.488c4.349-6.003,9.201-12.384,14.558-19.143
				l-24.83-35.67h20.797l14.495,20.939l14.81-20.939h19.537l-24.704,34.898c6.49,7.704,11.816,14.778,16.007,21.191
				c4.19,6.428,7.499,11.832,9.895,16.212H353.918z"/>
		</g>
	</g>
</g>
</svg>
