<?xml version="1.0" encoding="utf-8"?>
<!-- Generator: Adobe Illustrator 21.0.0, SVG Export Plug-In . SVG Version: 6.00 Build 0)  -->
<svg version="1.1" id="图层_1" xmlns="http://www.w3.org/2000/svg" xmlns:xlink="http://www.w3.org/1999/xlink" x="0px" y="0px"
	 viewBox="0 0 512 512" style="enable-background:new 0 0 512 512;" xml:space="preserve">
<style type="text/css">
	.st0{opacity:0.08;enable-background:new    ;}
	.st1{opacity:0.1;enable-background:new    ;}
	.st2{opacity:0.2;enable-background:new    ;}
	.st3{fill:#01579B;}
	.st4{fill:url(#SVGID_1_);}
	.st5{fill:#01579B;fill-opacity:0.39;}
	.st6{fill:#FFFFFF;fill-opacity:0.3922;}
	.st7{opacity:0.8;fill:#FFFFFF;enable-background:new    ;}
</style>
<polygon class="st0" points="68.2,512 68.2,8 451.8,8 451.8,369.9 309.7,512 "/>
<polygon class="st1" points="72.2,508 72.2,12 447.8,12 447.8,368.3 308.1,508 "/>
<polygon class="st2" points="68.2,504 68.2,8 443.8,8 443.8,364.3 304.1,504 "/>
<polygon class="st3" points="72.2,500 72.2,12 438.8,12 438.8,362.6 301.8,500 "/>
<g>
	<g>
		<g>
			
				<linearGradient id="SVGID_1_" gradientUnits="userSpaceOnUse" x1="297.1001" y1="1194.9004" x2="297.1001" y2="710.9004" gradientTransform="matrix(1 0 0 1 -41.6001 -696.9004)">
				<stop  offset="0" style="stop-color:#2196F3"/>
				<stop  offset="0.5828" style="stop-color:#3DBAE8"/>
				<stop  offset="1" style="stop-color:#4DD0E1"/>
			</linearGradient>
			<polygon class="st4" points="74.2,498 74.2,14 436.8,14 436.8,361.9 300.7,498 			"/>
		</g>
		<polygon class="st5" points="436.8,361.9 436.8,356 293.2,356 293.2,498 300.7,498 		"/>
		<path class="st6" d="M300.5,361.9l136.4,0.2L300.7,498L300.5,361.9z"/>
	</g>
	<path class="st7" d="M319.8,164.8c14.1,0,25.6,11.5,25.6,25.6S333.9,216,319.8,216c-14.2,0-25.6-11.5-25.6-25.6
		S305.7,164.8,319.8,164.8z"/>
	<path class="st7" d="M129.5,137v165.4h252.1V137H129.5z M363.4,155.2v129.1l0,0l-58.5-41.5l-41.8,25.6l-53.6-64.7l-61.9,80.7V155.2
		H363.4z"/>
</g>
</svg>
