<?xml version="1.0" encoding="utf-8"?>
<!-- Generator: Adobe Illustrator 16.0.0, SVG Export Plug-In . SVG Version: 6.00 Build 0)  -->
<!DOCTYPE svg PUBLIC "-//W3C//DTD SVG 1.1//EN" "http://www.w3.org/Graphics/SVG/1.1/DTD/svg11.dtd">
<svg version="1.1" id="图层_1" xmlns="http://www.w3.org/2000/svg" xmlns:xlink="http://www.w3.org/1999/xlink" x="0px" y="0px"
	 width="512px" height="512px" viewBox="0 0 512 512" enable-background="new 0 0 512 512" xml:space="preserve">
<polygon opacity="0.08" enable-background="new    " points="68.2,512 68.2,8 451.801,8 451.801,369.913 309.714,512 "/>
<polygon opacity="0.1" enable-background="new    " points="72.2,508 72.2,12 447.801,12 447.801,368.256 308.057,508 "/>
<polygon opacity="0.2" enable-background="new    " points="68.2,504 68.2,8 443.801,8 443.801,364.256 304.058,504 "/>
<polygon fill="#1B5E20" points="72.199,500 72.199,12 438.793,12 438.793,362.597 301.776,500 "/>
<g>
	<g>
		<g>
			
				<linearGradient id="SVGID_1_" gradientUnits="userSpaceOnUse" x1="297.0959" y1="916.9001" x2="297.0959" y2="432.9001" gradientTransform="matrix(1 0 0 1 -41.6001 -418.9004)">
				<stop  offset="0" style="stop-color:#388E3C"/>
				<stop  offset="0.0757" style="stop-color:#43953E"/>
				<stop  offset="0.3246" style="stop-color:#62A943"/>
				<stop  offset="0.5665" style="stop-color:#79B747"/>
				<stop  offset="0.796" style="stop-color:#86C049"/>
				<stop  offset="1" style="stop-color:#8BC34A"/>
			</linearGradient>
			<polygon fill="url(#SVGID_1_)" points="74.176,498 74.176,14 436.817,14 436.817,361.875 300.692,498 			"/>
		</g>
		<polygon fill="#1B5E20" fill-opacity="0.39" points="436.817,361.875 436.817,356.023 293.219,356.023 293.219,498 300.692,498 		
			"/>
		<path fill="#FFFFFF" fill-opacity="0.3922" d="M300.466,361.875l136.351,0.18L300.692,498L300.466,361.875z"/>
	</g>
	<path opacity="0.8" fill="#FFFFFF" enable-background="new    " d="M264.791,103.14v-0.405h-18.568v0.405H126.416v233.525h258.138
		V103.14H264.791z M144.985,172.497h57.664v37.306h-57.664V172.497z M144.985,228.361h57.664v37.317h-57.664V228.361z
		 M221.802,228.361h144.206v37.317H221.802V228.361z M221.802,209.803v-37.306h144.206v37.306H221.802z M366.008,121.889v32.084
		H221.802v-32.084H366.008z M202.649,121.889v32.084h-57.664v-32.084H202.649z M144.985,284.427h57.664v33.491h-57.664V284.427z
		 M221.802,317.918v-33.491h144.206v33.491H221.802z"/>
</g>
</svg>
