<?xml version="1.0" encoding="utf-8"?>
<!-- Generator: Adobe Illustrator 16.0.0, SVG Export Plug-In . SVG Version: 6.00 Build 0)  -->
<!DOCTYPE svg PUBLIC "-//W3C//DTD SVG 1.1//EN" "http://www.w3.org/Graphics/SVG/1.1/DTD/svg11.dtd">
<svg version="1.1" id="图层_1" xmlns="http://www.w3.org/2000/svg" xmlns:xlink="http://www.w3.org/1999/xlink" x="0px" y="0px"
	 width="512px" height="512px" viewBox="0 0 512 512" enable-background="new 0 0 512 512" xml:space="preserve">
<polygon opacity="0.08" enable-background="new    " points="68.2,512 68.2,8 451.801,8 451.801,369.913 309.714,512 "/>
<polygon opacity="0.1" enable-background="new    " points="72.2,508 72.2,12 447.801,12 447.801,368.256 308.057,508 "/>
<polygon opacity="0.2" enable-background="new    " points="68.2,504 68.2,8 443.801,8 443.801,364.256 304.058,504 "/>
<polygon fill="#3E2723" points="72.199,500 72.199,12 438.793,12 438.793,362.602 301.771,500 "/>
<g>
	<g>
		
			<linearGradient id="SVGID_1_" gradientUnits="userSpaceOnUse" x1="297.1116" y1="334.0994" x2="297.1115" y2="-149.9006" gradientTransform="matrix(1 0 0 -1 -41.6001 348.0991)">
			<stop  offset="0" style="stop-color:#785548"/>
			<stop  offset="1" style="stop-color:#9F9E9F"/>
		</linearGradient>
		<polygon fill="url(#SVGID_1_)" points="74.201,498 74.201,14 436.823,14 436.823,361.686 302.021,498 		"/>
		<polygon fill="#795548" fill-opacity="0.7" points="436.823,361.875 436.823,356.014 293.261,356.014 293.261,498 300.698,498 		
			"/>
		<path opacity="0.39" fill="#FFFFFF" enable-background="new    " d="M300.508,361.875l136.314,0.189L300.698,498L300.508,361.875z
			"/>
	</g>
	<path fill="#FFFFFF" d="M203.772,107.302h-12.289v157.174h-9.265V107.302h-12.226v157.174h-9.265V107.302h-12.226v157.174h-9.264
		V107.302h-12.227v157.174h-3.214v66.582h84.133v-66.582h-4.159V107.302z M195.705,311.711h-59.681v-38.6h59.681V311.711z"/>
	<g>
		<rect x="74.106" y="14" opacity="0.8" fill="#FFFFFF" enable-background="new    " width="362.78" height="92.767"/>
		<g enable-background="new    ">
			<path fill="#5D4037" d="M199.203,35.506c-2.332,2.3-5.136,5.278-8.351,8.933c-3.214,3.64-6.554,7.625-9.988,11.942
				c-3.435,4.301-6.838,8.76-10.21,13.345c-3.371,4.601-6.396,8.98-9.012,13.156h38.789v13.66h-59.869v-9.705
				c2.048-3.545,4.568-7.484,7.531-11.833c2.962-4.348,6.05-8.728,9.264-13.155c3.245-4.412,6.522-8.681,9.831-12.825
				c3.34-4.144,6.429-7.846,9.296-11.107h-34.157V24.241h56.876V35.506z"/>
			<path fill="#5D4037" d="M283.651,60.336c0,6.192-0.945,11.643-2.899,16.338c-1.953,4.695-4.601,8.618-7.94,11.785
				c-3.403,3.167-7.373,5.546-12.037,7.137c-4.663,1.607-9.641,2.411-14.999,2.411c-5.199,0-10.083-0.804-14.715-2.411
				c-4.633-1.591-8.634-3.97-12.068-7.137c-3.467-3.167-6.177-7.09-8.13-11.785c-1.985-4.695-2.994-10.146-2.994-16.338
				s1.04-11.627,3.12-16.322c2.017-4.695,4.789-8.634,8.256-11.848c3.497-3.198,7.499-5.593,12.1-7.184
				c4.569-1.607,9.391-2.411,14.432-2.411c5.199,0,10.084,0.804,14.715,2.411c4.632,1.591,8.634,3.986,12.068,7.184
				c3.466,3.214,6.176,7.153,8.13,11.848C282.673,48.709,283.651,54.144,283.651,60.336z M225.577,60.336
				c0,3.545,0.473,6.759,1.355,9.595c0.945,2.867,2.237,5.309,3.97,7.357c1.702,2.064,3.813,3.64,6.303,4.758
				c2.489,1.103,5.356,1.67,8.57,1.67c3.151,0,5.987-0.567,8.508-1.67c2.521-1.119,4.664-2.694,6.365-4.758
				c1.733-2.048,3.025-4.49,3.971-7.357c0.882-2.836,1.386-6.05,1.386-9.595s-0.504-6.759-1.386-9.642
				c-0.945-2.883-2.237-5.357-3.971-7.405c-1.701-2.048-3.844-3.64-6.365-4.758c-2.521-1.103-5.356-1.67-8.508-1.67
				c-3.214,0-6.081,0.583-8.57,1.733c-2.489,1.15-4.601,2.742-6.303,4.79c-1.732,2.064-3.024,4.522-3.97,7.405
				C226.05,53.688,225.577,56.87,225.577,60.336z"/>
			<path fill="#5D4037" d="M370.43,60.336c0,6.192-1.008,11.643-2.931,16.338c-1.922,4.695-4.601,8.618-7.972,11.785
				c-3.34,3.167-7.374,5.546-12.037,7.137c-4.632,1.607-9.643,2.411-14.968,2.411c-5.199,0-10.114-0.804-14.715-2.411
				c-4.601-1.591-8.634-3.97-12.101-7.137c-3.402-3.167-6.112-7.09-8.098-11.785c-1.985-4.695-2.993-10.146-2.993-16.338
				s1.071-11.627,3.088-16.322c2.079-4.695,4.82-8.634,8.318-11.848c3.466-3.198,7.5-5.593,12.068-7.184
				c4.569-1.607,9.358-2.411,14.432-2.411c5.199,0,10.115,0.804,14.716,2.411c4.601,1.591,8.634,3.986,12.1,7.184
				c3.403,3.214,6.113,7.153,8.13,11.848C369.422,48.709,370.43,54.144,370.43,60.336z M312.324,60.336
				c0,3.545,0.441,6.759,1.387,9.595c0.883,2.867,2.206,5.309,3.938,7.357c1.733,2.064,3.813,3.64,6.303,4.758
				c2.489,1.103,5.356,1.67,8.57,1.67c3.151,0,5.987-0.567,8.508-1.67c2.553-1.119,4.633-2.694,6.396-4.758
				c1.702-2.048,3.025-4.49,3.908-7.357c0.945-2.836,1.386-6.05,1.386-9.595s-0.44-6.759-1.386-9.642
				c-0.883-2.883-2.206-5.357-3.908-7.405c-1.764-2.048-3.844-3.64-6.396-4.758c-2.521-1.103-5.356-1.67-8.508-1.67
				c-3.214,0-6.081,0.583-8.57,1.733c-2.489,1.15-4.569,2.742-6.303,4.79c-1.732,2.064-3.056,4.522-3.938,7.405
				C312.766,53.688,312.324,56.87,312.324,60.336z"/>
		</g>
	</g>
</g>
</svg>
