<?xml version="1.0" encoding="utf-8"?>
<!-- Generator: Adobe Illustrator 21.0.0, SVG Export Plug-In . SVG Version: 6.00 Build 0)  -->
<svg version="1.1" id="图层_1" xmlns="http://www.w3.org/2000/svg" xmlns:xlink="http://www.w3.org/1999/xlink" x="0px" y="0px"
	 viewBox="0 0 512 512" style="enable-background:new 0 0 512 512;" xml:space="preserve">
<style type="text/css">
	.st0{opacity:0.08;enable-background:new    ;}
	.st1{opacity:0.1;enable-background:new    ;}
	.st2{opacity:0.2;enable-background:new    ;}
	.st3{fill:#3E2723;}
	.st4{fill:url(#SVGID_1_);}
	.st5{fill:#795548;fill-opacity:0.7;}
	.st6{opacity:0.39;fill:#FFFFFF;enable-background:new    ;}
	.st7{fill:#FFFFFF;}
	.st8{opacity:0.8;fill:#FFFFFF;enable-background:new    ;}
	.st9{enable-background:new    ;}
	.st10{fill:#5D4037;}
</style>
<polygon class="st0" points="68.2,512 68.2,8 451.8,8 451.8,369.9 309.7,512 "/>
<polygon class="st1" points="72.2,508 72.2,12 447.8,12 447.8,368.3 308.1,508 "/>
<polygon class="st2" points="68.2,504 68.2,8 443.8,8 443.8,364.3 304.1,504 "/>
<polygon class="st3" points="72.2,500 72.2,12 438.8,12 438.8,362.6 301.8,500 "/>
<g>
	<g>
		
			<linearGradient id="SVGID_1_" gradientUnits="userSpaceOnUse" x1="297.1001" y1="80.0991" x2="297.1001" y2="-403.9009" gradientTransform="matrix(1 0 0 -1 -41.6001 94.0991)">
			<stop  offset="0" style="stop-color:#785548"/>
			<stop  offset="1" style="stop-color:#9F9E9F"/>
		</linearGradient>
		<polygon class="st4" points="74.2,498 74.2,14 436.8,14 436.8,361.7 302,498 		"/>
		<polygon class="st5" points="436.8,361.9 436.8,356 293.3,356 293.3,498 300.7,498 		"/>
		<path class="st6" d="M300.5,361.9l136.3,0.2L300.7,498L300.5,361.9z"/>
	</g>
	<path class="st7" d="M203.8,107.3h-12.3v157.2h-9.3V107.3H170v157.2h-9.3V107.3h-12.2v157.2h-9.3V107.3H127v157.2h-3.2v66.6h84.1
		v-66.6h-4.2L203.8,107.3L203.8,107.3z M195.7,311.7H136v-38.6h59.7V311.7z"/>
	<g>
		<rect x="74.1" y="14" class="st8" width="362.8" height="92.8"/>
		<g class="st9">
			<path class="st10" d="M157,82.6v14h-50.8V24.2h17.1v58.3H157V82.6z"/>
			<path class="st10" d="M223.6,35.5c-2.4,2.3-5.1,5.3-8.4,8.9c-3.2,3.6-6.6,7.6-10,11.9s-6.8,8.8-10.2,13.3c-3.3,4.6-6.4,9-9,13.2
				h38.8v13.7H165v-9.7c2-3.5,4.5-7.5,7.5-11.8s6.1-8.7,9.3-13.2c3.2-4.4,6.5-8.7,9.8-12.8s6.4-7.8,9.3-11.1h-34.2V24.2h56.9V35.5
				L223.6,35.5z"/>
			<path class="st10" d="M257.1,24.2c1.3,2.3,2.8,5.1,4.6,8.5s3.5,7,5.4,11c1.9,3.9,3.7,8,5.5,12.1c1.9,4.1,3.6,8,5.2,11.6
				c1.6-3.6,3.3-7.5,5.2-11.6c1.9-4.1,3.7-8.1,5.6-12.1c1.9-3.9,3.7-7.6,5.4-11s3.2-6.2,4.6-8.5h15.6c0.8,4.8,1.5,10.2,2,16.1
				c0.6,6,1.2,12.1,1.7,18.6c0.4,6.4,0.9,12.9,1.3,19.3c0.4,6.5,0.7,12.6,1,18.3h-16.7c-0.2-7-0.5-14.7-0.9-23s-0.9-16.6-1.7-25
				c-1.3,2.9-2.8,6.2-4.4,9.7s-3.2,7.1-4.8,10.6s-3.1,6.9-4.5,10.2c-1.5,3.2-2.7,6-3.8,8.3h-11.9c-1-2.3-2.3-5.1-3.8-8.3
				c-1.4-3.2-3-6.6-4.6-10.2c-1.6-3.5-3.2-7.1-4.8-10.6c-1.6-3.5-3.1-6.8-4.4-9.7c-0.7,8.4-1.3,16.8-1.7,25
				c-0.3,8.3-0.6,15.9-0.9,23h-16.7c0.3-5.7,0.7-11.8,1-18.3c0.4-6.5,0.9-12.9,1.3-19.3c0.5-6.4,1-12.6,1.6-18.6
				c0.6-5.9,1.3-11.3,2-16.1C240.8,24.2,257.1,24.2,257.1,24.2z"/>
			<path class="st10" d="M386.5,96.5c-0.9-2.5-1.7-5.1-2.7-7.7c-0.9-2.6-2-5.3-2.9-7.9h-29.7c-0.9,2.6-1.9,5.3-2.9,7.9
				s-1.9,5.2-2.7,7.7h-17.8c2.9-7.8,5.6-15,8.2-21.6s5.1-12.8,7.5-18.7c2.5-5.8,4.9-11.4,7.3-16.6s4.9-10.4,7.4-15.4h16.2
				c2.5,5,4.9,10.1,7.4,15.4c2.4,5.2,4.9,10.8,7.3,16.6s5,12.1,7.6,18.7s5.3,13.8,8.2,21.6C404.8,96.5,386.5,96.5,386.5,96.5z
				 M365.9,40.6c-0.4,1-0.9,2.5-1.7,4.3c-0.7,1.8-1.6,3.9-2.5,6.3c-0.9,2.4-2,5-3.1,7.8c-1.2,2.9-2.4,5.8-3.6,9h21.8
				c-1.2-3.1-2.3-6.1-3.4-9s-2.1-5.5-3.1-7.8c-1-2.4-1.9-4.5-2.6-6.3C367,43.1,366.3,41.7,365.9,40.6z"/>
		</g>
	</g>
</g>
</svg>
