<?xml version="1.0" encoding="utf-8"?>
<!-- Generator: Adobe Illustrator 16.0.0, SVG Export Plug-In . SVG Version: 6.00 Build 0)  -->
<!DOCTYPE svg PUBLIC "-//W3C//DTD SVG 1.1//EN" "http://www.w3.org/Graphics/SVG/1.1/DTD/svg11.dtd">
<svg version="1.1" id="图层_1" xmlns="http://www.w3.org/2000/svg" xmlns:xlink="http://www.w3.org/1999/xlink" x="0px" y="0px"
	 width="512px" height="512px" viewBox="0 0 512 512" enable-background="new 0 0 512 512" xml:space="preserve">
<rect x="8" y="8" opacity="0.2" width="496" height="496"/>
<rect x="8" y="8" opacity="0.08" width="504" height="504"/>
<rect x="12" y="12" opacity="0.1" width="496" height="496"/>
<rect x="12" y="12" fill="#455A64" width="488" height="488"/>
<g>
	
		<linearGradient id="SVGID_1_" gradientUnits="userSpaceOnUse" x1="297.5999" y1="334.0994" x2="297.5998" y2="-149.9006" gradientTransform="matrix(1 0 0 -1 -41.6001 348.0991)">
		<stop  offset="0" style="stop-color:#90A4AE"/>
		<stop  offset="0.1378" style="stop-color:#849AA5"/>
		<stop  offset="0.4226" style="stop-color:#708A97"/>
		<stop  offset="0.7096" style="stop-color:#64808E"/>
		<stop  offset="1" style="stop-color:#607D8B"/>
	</linearGradient>
	<rect x="14" y="14" fill="url(#SVGID_1_)" width="484" height="484"/>
	<path opacity="0.8" fill="#FFFFFF" enable-background="new    " d="M375.988,319.961c0.54-0.743,0.776-1.486,1.249-2.229
		c0.776-1.469,1.502-2.718,2.009-4.187c0,0,0-0.22,0.202-0.22c3.479-7.68,6.432-15.867,8.424-24.477h32.359v-64.957h-32.105
		c-3.208-13.589-8.678-26.148-15.582-37.779l22.722-22.721l-45.915-45.94l-22.738,22.729c-11.85-7.166-24.662-12.609-38.504-16.062
		h0.236V91.76h-64.923v32.36h0.236c-13.842,3.452-26.671,8.643-38.521,15.825l-22.721-22.729l-45.688,45.958l22.688,22.688
		c-6.87,11.58-12.289,24.19-15.539,37.795H91.76v64.923h32.343c3.241,13.605,8.66,26.182,15.589,38.031l0,0l-22.721,22.738
		l45.949,45.915l22.688-22.722c11.597,7.175,24.443,12.374,38.049,15.834v32.074h64.923v-32.074l0,0l0,0
		c13.605-3.46,26.435-8.659,38.031-15.834l22.738,22.722l45.915-45.915l-22.722-22.738l0,0c0.743-1.232,1.503-2.701,2.212-3.934
		C375.059,321.699,375.515,320.686,375.988,319.961z M256,359.73c-57.276,0-103.74-46.404-103.74-103.73
		c0-57.276,46.464-103.74,103.74-103.74c11.326,0,22.215,1.772,32.58,5.174l0,0c41.256,13.614,71.15,52.617,71.15,98.566
		c0,2.718,0,5.672-0.286,8.406v0.236c-0.709,8.406-2.194,16.29-4.913,23.938c0,0.27-0.252,0.506-0.252,0.76
		c-1.723,4.945-3.681,9.604-5.926,14.095c-0.219,0.202-0.219,0.456-0.219,0.726c-1.267,2.229-2.482,4.423-3.715,6.414
		c0,0.254-0.252,0.254-0.252,0.508c-1.232,1.957-2.735,4.186-4.238,6.178l-0.202,0.253c-1.485,1.941-2.971,3.95-4.727,5.622
		c-0.236,0.27-0.473,0.539-0.726,0.775c-3.225,3.715-6.65,7.141-10.365,10.365c-0.236,0.253-0.506,0.489-0.979,0.726
		c-1.738,1.503-3.714,2.987-5.672,4.456c-0.287,0.271-0.523,0.473-0.996,0.473c-1.705,1.232-3.714,2.516-5.689,3.73
		c-0.252,0.254-0.506,0.254-0.709,0.508c-2.025,1.231-3.982,2.464-6.229,3.426c-0.473,0.254-0.979,0.541-1.451,0.76
		c-2.229,0.996-4.187,1.959-6.432,2.971c-0.236,0-0.456,0.236-0.742,0.236c-1.941,0.777-3.951,1.469-5.926,2.212
		C278.957,357.756,267.85,359.73,256,359.73z"/>
</g>
</svg>
