<?xml version="1.0" encoding="utf-8"?>
<!-- Generator: Adobe Illustrator 16.0.0, SVG Export Plug-In . SVG Version: 6.00 Build 0)  -->
<!DOCTYPE svg PUBLIC "-//W3C//DTD SVG 1.1//EN" "http://www.w3.org/Graphics/SVG/1.1/DTD/svg11.dtd">
<svg version="1.1" id="图层_1" xmlns="http://www.w3.org/2000/svg" xmlns:xlink="http://www.w3.org/1999/xlink" x="0px" y="0px"
	 width="512px" height="512px" viewBox="0 0 512 512" enable-background="new 0 0 512 512" xml:space="preserve">
<polygon opacity="0.08" enable-background="new    " points="68.2,512 68.2,8 451.801,8 451.801,369.913 309.714,512 "/>
<polygon opacity="0.1" enable-background="new    " points="72.2,508 72.2,12 447.801,12 447.801,368.256 308.057,508 "/>
<polygon opacity="0.2" enable-background="new    " points="68.2,504 68.2,8 443.801,8 443.801,364.256 304.058,504 "/>
<polygon fill="#3E2723" points="72.199,500 72.199,12 438.793,12 438.793,362.602 301.771,500 "/>
<g>
	<g>
		
			<linearGradient id="SVGID_1_" gradientUnits="userSpaceOnUse" x1="297.1116" y1="334.0994" x2="297.1115" y2="-149.9006" gradientTransform="matrix(1 0 0 -1 -41.6001 348.0991)">
			<stop  offset="0" style="stop-color:#785548"/>
			<stop  offset="1" style="stop-color:#9F9E9F"/>
		</linearGradient>
		<polygon fill="url(#SVGID_1_)" points="74.201,498 74.201,14 436.823,14 436.823,361.686 302.021,498 		"/>
		<polygon fill="#795548" fill-opacity="0.7" points="436.823,361.875 436.823,356.014 293.261,356.014 293.261,498 300.698,498 		
			"/>
		<path opacity="0.39" fill="#FFFFFF" enable-background="new    " d="M300.508,361.875l136.314,0.189L300.698,498L300.508,361.875z
			"/>
	</g>
	<path fill="#FFFFFF" d="M203.772,107.302h-12.289v157.174h-9.265V107.302h-12.226v157.174h-9.265V107.302h-12.226v157.174h-9.264
		V107.302h-12.227v157.174h-3.214v66.582h84.133v-66.582h-4.159V107.302z M195.705,311.711h-59.681v-38.6h59.681V311.711z"/>
	<g>
		<rect x="74.106" y="14" opacity="0.8" fill="#FFFFFF" enable-background="new    " width="362.78" height="92.767"/>
		<g enable-background="new    ">
			<path fill="#5D4037" d="M216.786,24.399v13.865h-22.972v58.42h-17.109v-58.42h-22.972V24.399H216.786z"/>
			<path fill="#5D4037" d="M262.381,36.908c-8.003,0-13.739,2.111-17.331,6.302c-3.529,4.223-5.294,9.989-5.294,17.268
				c0,3.561,0.441,6.774,1.323,9.673c0.883,2.868,2.206,5.357,3.908,7.437c1.764,2.111,3.97,3.718,6.617,4.853
				c2.646,1.166,5.734,1.733,9.2,1.733c1.954,0,3.529-0.032,4.916-0.095c1.323-0.095,2.521-0.221,3.592-0.441V58.493h17.079v35.796
				c-2.017,0.756-5.294,1.576-9.831,2.458c-4.601,0.851-10.146,1.292-16.827,1.292c-5.734,0-10.902-0.819-15.565-2.489
				c-4.601-1.67-8.571-4.096-11.911-7.311c-3.277-3.182-5.798-7.121-7.626-11.785c-1.765-4.664-2.71-9.989-2.71-15.976
				c0-6.05,1.009-11.407,3.025-16.039c1.953-4.664,4.663-8.634,8.066-11.848c3.467-3.246,7.5-5.704,12.163-7.374
				c4.664-1.67,9.579-2.489,14.873-2.489c3.592,0,6.807,0.22,9.705,0.662c2.899,0.473,5.42,0.977,7.5,1.576
				c2.079,0.599,3.781,1.197,5.167,1.827c1.324,0.63,2.332,1.103,2.899,1.45l-4.979,13.045c-2.332-1.166-4.979-2.206-8.067-3.057
				C269.25,37.349,265.973,36.908,262.381,36.908z"/>
			<path fill="#5D4037" d="M356.03,35.648c-2.331,2.3-5.104,5.294-8.318,8.949c-3.277,3.624-6.555,7.625-10.021,11.942
				c-3.466,4.285-6.869,8.76-10.209,13.329c-3.403,4.6-6.365,8.98-9.013,13.171h38.758v13.644H297.42v-9.705
				c2.017-3.529,4.538-7.468,7.5-11.816c2.962-4.348,6.05-8.729,9.264-13.171c3.214-4.411,6.491-8.665,9.831-12.825
				c3.341-4.128,6.429-7.846,9.265-11.092h-34.157V24.399h56.907V35.648z"/>
		</g>
	</g>
</g>
</svg>
