<?xml version="1.0" encoding="utf-8"?>
<!-- Generator: Adobe Illustrator 16.0.0, SVG Export Plug-In . SVG Version: 6.00 Build 0)  -->
<!DOCTYPE svg PUBLIC "-//W3C//DTD SVG 1.1//EN" "http://www.w3.org/Graphics/SVG/1.1/DTD/svg11.dtd">
<svg version="1.1" id="图层_1" xmlns="http://www.w3.org/2000/svg" xmlns:xlink="http://www.w3.org/1999/xlink" x="0px" y="0px"
	 width="512px" height="512px" viewBox="0 0 512 512" enable-background="new 0 0 512 512" xml:space="preserve">
<polygon opacity="0.08" enable-background="new    " points="68.2,512 68.2,8 451.801,8 451.801,369.913 309.714,512 "/>
<polygon opacity="0.1" enable-background="new    " points="72.2,508 72.2,12 447.801,12 447.801,368.256 308.057,508 "/>
<polygon opacity="0.2" enable-background="new    " points="68.2,504 68.2,8 443.801,8 443.801,364.256 304.058,504 "/>
<polygon fill="#455A64" points="72.199,500 72.199,12 438.793,12 438.793,362.597 301.776,500 "/>
<g>
	<g>
		<g>
			
				<linearGradient id="SVGID_1_" gradientUnits="userSpaceOnUse" x1="297.0969" y1="432.8992" x2="297.0969" y2="916.9001" gradientTransform="matrix(1 0 0 1 -41.6001 -418.9004)">
				<stop  offset="0" style="stop-color:#90A4AE"/>
				<stop  offset="0.1378" style="stop-color:#849AA5"/>
				<stop  offset="0.4226" style="stop-color:#708A97"/>
				<stop  offset="0.7096" style="stop-color:#64808E"/>
				<stop  offset="1" style="stop-color:#607D8B"/>
			</linearGradient>
			<polygon fill="url(#SVGID_1_)" points="74.176,498 74.176,14 436.817,14 436.817,361.875 300.692,498 			"/>
		</g>
		<polygon fill="#455A64" fill-opacity="0.39" points="436.817,361.875 436.817,356.023 293.219,356.023 293.219,498 300.692,498 		
			"/>
		<path fill="#FFFFFF" fill-opacity="0.39" d="M300.466,361.875l136.351,0.18L300.692,498L300.466,361.875z"/>
	</g>
	<g opacity="0.8">
		<g>
			<polygon fill="#FFFFFF" points="212.732,236.429 158.286,200.35 207.082,185.608 			"/>
		</g>
		<polygon fill="#FFFFFF" points="250.86,295.748 272.445,295.748 272.445,277.584 251.039,277.584 240.168,286.655 		"/>
		<g>
			<polygon fill="#FFFFFF" points="284.328,214.654 338.189,177.347 333.552,228.18 			"/>
			<g>
				<polygon fill="#FFFFFF" points="334.744,214.473 322.455,196.512 307.33,207.001 319.238,224.14 333.552,228.18 				"/>
				<polygon fill="#FFFFFF" points="376.496,274.973 339.405,221.304 338.189,235.011 323.873,230.983 355.924,277.584 
					277.891,277.584 277.666,295.748 362.384,295.748 362.384,295.748 362.384,295.748 				"/>
			</g>
			<g>
				<polygon fill="#FFFFFF" points="193.196,189.862 181.086,207.192 196.414,217.276 208.703,199.72 207.082,185.608 				"/>
				<polygon fill="#FFFFFF" points="269.609,120.066 241.181,120.066 198.012,182.805 211.719,178.765 213.363,192.889 
					255.496,131.781 304.315,202.556 319.44,192.281 				"/>
				<polygon fill="#FFFFFF" points="155.068,277.584 193.375,221.721 178.071,211.637 134.496,274.973 134.496,274.973 
					134.496,274.973 144.174,288.861 148.788,295.748 242.599,295.748 231.886,286.655 242.599,277.584 				"/>
			</g>
		</g>
		<g>
			<polygon fill="#FFFFFF" points="279.287,253.985 279.287,319.336 240.168,286.655 			"/>
		</g>
		<polygon fill="#FFFFFF" points="178.071,211.637 186.33,199.72 206.092,204.165 191.957,223.927 		"/>
		<polygon fill="#FFFFFF" points="296.842,191.876 309.537,210.219 325.067,200.136 312.193,181.793 		"/>
		<rect x="267.582" y="277.584" fill="#FFFFFF" width="13.348" height="18.164"/>
	</g>
</g>
</svg>
