<?xml version="1.0" encoding="utf-8"?>
<!-- Generator: Adobe Illustrator 21.0.0, SVG Export Plug-In . SVG Version: 6.00 Build 0)  -->
<svg version="1.1" id="图层_1" xmlns="http://www.w3.org/2000/svg" xmlns:xlink="http://www.w3.org/1999/xlink" x="0px" y="0px"
	 viewBox="0 0 512 512" style="enable-background:new 0 0 512 512;" xml:space="preserve">
<style type="text/css">
	.st0{opacity:0.2;enable-background:new    ;}
	.st1{opacity:0.08;enable-background:new    ;}
	.st2{opacity:0.1;enable-background:new    ;}
	.st3{fill:url(#SVGID_1_);}
	.st4{fill:#311B92;fill-opacity:0.3922;}
	.st5{fill:#FFFFFF;fill-opacity:0.3922;}
	.st6{fill:#311B92;}
	.st7{opacity:0.8;}
	.st8{fill:#FFFFFF;}
</style>
<g id="surface1">
	<polygon class="st0" points="69,504 69,8 443,8 443,364.4 303.4,504 	"/>
	<polygon class="st1" points="69,512 69,8 451,8 451,370.1 309.1,512 	"/>
	<polygon class="st2" points="73,508 73,12 447,12 447,368.4 307.4,508 	"/>
</g>
<linearGradient id="SVGID_1_" gradientUnits="userSpaceOnUse" x1="505.6006" y1="2660.9414" x2="505.6006" y2="2172.9414" gradientTransform="matrix(1 0 0 1 -249.6006 -2160.9414)">
	<stop  offset="0" style="stop-color:#3F51B5"/>
	<stop  offset="0.258" style="stop-color:#4355B7"/>
	<stop  offset="0.5253" style="stop-color:#5060BB"/>
	<stop  offset="0.7959" style="stop-color:#6473C3"/>
	<stop  offset="1" style="stop-color:#7986CB"/>
</linearGradient>
<path class="st3" d="M301.8,500L439,362.8V12H73v488H301.8z"/>
<polygon class="st4" points="294.1,355.1 294.1,500 301.8,500 439,362.8 439,355.1 "/>
<path class="st5" d="M301.8,362.8h137.1L301.8,500V362.8z"/>
<g>
	<path class="st6" d="M437,14v347.9L300.9,498H195H75V14H437 M439,12H73v488h122h106.8L439,362.8V12L439,12z"/>
</g>
<g class="st7">
	<path class="st8" d="M314,191.7c-2.4,0-4.8,1.1-7,3.5c-2.3,2.3-4.1,5.3-5.5,9.2c-1.4,3.8-2,8-2,12.7c0,2.7,0.7,4.9,2,6.6
		c1.3,1.6,3.2,2.4,5.5,2.4c2.4,0,4.6-1.2,6.8-3.5c2.2-2.4,3.9-5.6,5.2-9.6c1.3-4.2,2-8.3,2-12.2C321.1,194.6,318.7,191.7,314,191.7z
		"/>
	<path class="st8" d="M215.3,191.7c-2.4,0-4.8,1.1-7.1,3.5c-2.3,2.3-4.1,5.3-5.4,9.2c-1.4,3.8-2,8-2,12.7c0,2.7,0.7,4.9,2,6.6
		c1.3,1.6,3.1,2.4,5.4,2.4c2.4,0,4.7-1.2,6.9-3.5c2.2-2.4,3.9-5.6,5.2-9.6c1.4-4.2,2-8.3,2-12.2C222.3,194.6,220,191.7,215.3,191.7z
		"/>
	<path class="st8" d="M256,126.4c-67.4,0-122,37.5-122,83.9c0,46.3,54.6,83.9,122,83.9s122-37.5,122-83.9S323.4,126.4,256,126.4z
		 M333.6,218.9c-2.4,6-5.7,10.8-10,14.3s-8.9,5.3-14,5.3c-3,0-5.5-0.6-7.7-1.9c-2.1-1.2-4.1-3.4-5.9-6.5h-0.5
		c-0.4,5.5-1.2,10.5-2.3,15.1l-3.9,17.4h-16.1l5.6-25.2h-15.6l7.3-33.4c0.5-2.4,0.8-4.4,0.8-6.1c0-4.2-1.9-6.3-5.8-6.3
		c-3.3,0-6.3,1.9-8.9,5.8c-2.7,3.9-4.8,9.3-6.3,16.3l-5.2,23.6H229l3-13.5c-2.1,3.6-4.4,6.8-7.3,9.2c-4.2,3.5-8.9,5.3-14,5.3
		c-3,0-5.5-0.6-7.6-1.9c-2.1-1.2-4.1-3.4-6-6.5h-0.4c-0.4,5.5-1.2,10.5-2.3,15.1l-3.8,17.4h-16.1l18.3-82.4h12.3l-0.9,8.7h0.5
		c4.9-6.5,10.5-9.8,16.9-9.8c5.2,0,9.3,1.8,12.3,5.5c2.4,2.9,3.8,6.8,4.3,11.5l8.5-38.4H263c-1.4,6.2-2.5,10.9-3.2,14.2
		c-0.8,3.3-2.3,8.6-4.6,15.9h0.4c2.2-2.7,4.6-4.7,7.4-6.3c2.7-1.6,5.8-2.4,9.4-2.4c4.9,0,8.7,1.5,11.4,4.3c2.7,2.8,4.1,6.9,4.1,12.2
		c0,0.9-0.1,2-0.2,3.1l4.1-18.5H304l-0.9,8.7h0.5c4.9-6.5,10.6-9.8,17-9.8c5.2,0,9.3,1.8,12.3,5.5s4.5,8.8,4.5,15.4
		C337.3,206.6,336.1,212.9,333.6,218.9z"/>
</g>
</svg>
