<?xml version="1.0" encoding="utf-8"?>
<!-- Generator: Adobe Illustrator 21.0.0, SVG Export Plug-In . SVG Version: 6.00 Build 0)  -->
<svg version="1.1" id="图层_1" xmlns="http://www.w3.org/2000/svg" xmlns:xlink="http://www.w3.org/1999/xlink" x="0px" y="0px"
	 viewBox="0 0 512 512" style="enable-background:new 0 0 512 512;" xml:space="preserve">
<style type="text/css">
	.st0{opacity:0.08;enable-background:new    ;}
	.st1{opacity:0.1;enable-background:new    ;}
	.st2{opacity:0.2;enable-background:new    ;}
	.st3{fill:#3E2723;}
	.st4{fill:url(#SVGID_1_);}
	.st5{fill:#795548;fill-opacity:0.7;}
	.st6{opacity:0.39;fill:#FFFFFF;enable-background:new    ;}
	.st7{fill:#FFFFFF;}
	.st8{opacity:0.8;fill:#FFFFFF;enable-background:new    ;}
	.st9{enable-background:new    ;}
	.st10{fill:#5D4037;}
</style>
<polygon class="st0" points="68.2,512 68.2,8 451.8,8 451.8,369.9 309.7,512 "/>
<polygon class="st1" points="72.2,508 72.2,12 447.8,12 447.8,368.3 308.1,508 "/>
<polygon class="st2" points="68.2,504 68.2,8 443.8,8 443.8,364.3 304.1,504 "/>
<polygon class="st3" points="72.2,500 72.2,12 438.8,12 438.8,362.6 301.8,500 "/>
<g>
	<g>
		
			<linearGradient id="SVGID_1_" gradientUnits="userSpaceOnUse" x1="297.1001" y1="80.0991" x2="297.1001" y2="-403.9009" gradientTransform="matrix(1 0 0 -1 -41.6001 94.0991)">
			<stop  offset="0" style="stop-color:#785548"/>
			<stop  offset="1" style="stop-color:#9F9E9F"/>
		</linearGradient>
		<polygon class="st4" points="74.2,498 74.2,14 436.8,14 436.8,361.7 302,498 		"/>
		<polygon class="st5" points="436.8,361.9 436.8,356 293.3,356 293.3,498 300.7,498 		"/>
		<path class="st6" d="M300.5,361.9l136.3,0.2L300.7,498L300.5,361.9z"/>
	</g>
	<path class="st7" d="M203.8,107.3h-12.3v157.2h-9.3V107.3H170v157.2h-9.3V107.3h-12.2v157.2h-9.3V107.3H127v157.2h-3.2v66.6h84.1
		v-66.6h-4.2L203.8,107.3L203.8,107.3z M195.7,311.7H136v-38.6h59.7V311.7z"/>
	<g>
		<rect x="74.1" y="14" class="st8" width="362.8" height="92.8"/>
		<g class="st9">
			<path class="st10" d="M164.1,97.5c-4.2,0-8.3-0.1-12.4-0.4c-4.2-0.2-8.4-0.8-12.9-1.7V25.3c3.5-0.6,7.4-1.1,11.5-1.4
				c4.2-0.3,8.1-0.5,11.6-0.5c4.9,0,9.3,0.3,13.4,1c4.1,0.7,7.6,1.8,10.5,3.4s5.2,3.7,6.8,6.3c1.7,2.6,2.5,5.8,2.5,9.6
				c0,5.8-2.9,10.3-8.8,13.7c4.8,1.7,8.1,4.1,9.9,7.1c1.7,3,2.6,6.4,2.6,10.1c0,7.6-2.9,13.3-8.7,17.1
				C184.2,95.6,175.6,97.5,164.1,97.5z M155.4,52.6h8.4c5.3,0,9-0.6,11.3-1.9s3.4-3.4,3.4-6.2c0-2.9-1.2-5-3.5-6.2
				s-5.8-1.8-10.3-1.8c-1.4,0-3,0-4.7,0s-3.2,0.1-4.5,0.3L155.4,52.6L155.4,52.6z M155.4,65v18.7c1.2,0.1,2.6,0.2,4.1,0.3
				c1.4,0.1,3.1,0.1,4.8,0.1c5.1,0,9.3-0.7,12.4-2.1c3.1-1.4,4.7-4,4.7-7.7c0-3.3-1.3-5.7-4-7.2c-2.6-1.4-6.4-2.1-11.3-2.1L155.4,65
				L155.4,65z"/>
			<path class="st10" d="M266.2,35.5c-2.3,2.3-5.1,5.3-8.3,8.9c-3.2,3.6-6.6,7.6-10,11.9s-6.8,8.8-10.2,13.3c-3.4,4.6-6.4,9-9,13.2
				h38.8v13.7h-59.8v-9.7c2-3.5,4.5-7.5,7.5-11.8s6.1-8.7,9.3-13.2c3.2-4.4,6.5-8.7,9.8-12.8s6.4-7.8,9.3-11.1h-34.2V24.2h56.9
				L266.2,35.5L266.2,35.5z"/>
			<path class="st10" d="M279.5,24.2h17.1v72.3h-17.1V24.2z"/>
			<path class="st10" d="M337,23.4c11.3,0,20,1.9,26.2,5.7c6,3.8,9.1,10,9.1,18.6c0,8.7-3.1,15-9.2,18.8c-6.1,3.9-14.9,5.8-26.3,5.8
				h-5.4v24.2h-17.1V25.3c3.7-0.7,7.7-1.2,11.8-1.5C330.2,23.5,333.9,23.4,337,23.4z M338.1,37.3c-1.2,0-2.5,0-3.7,0.1
				s-2.2,0.1-3.1,0.2v20.9h5.4c5.9,0,10.4-0.8,13.4-2.3s4.5-4.4,4.5-8.6c0-2-0.4-3.7-1.2-5c-0.8-1.3-1.9-2.4-3.3-3.2
				s-3.1-1.4-5.2-1.7C342.9,37.4,340.6,37.3,338.1,37.3z"/>
		</g>
	</g>
</g>
</svg>
