<?xml version="1.0" encoding="utf-8"?>
<!-- Generator: Adobe Illustrator 16.0.0, SVG Export Plug-In . SVG Version: 6.00 Build 0)  -->
<!DOCTYPE svg PUBLIC "-//W3C//DTD SVG 1.1//EN" "http://www.w3.org/Graphics/SVG/1.1/DTD/svg11.dtd">
<svg version="1.1" id="图层_1" xmlns="http://www.w3.org/2000/svg" xmlns:xlink="http://www.w3.org/1999/xlink" x="0px" y="0px"
	 width="512px" height="512px" viewBox="0 0 512 512" enable-background="new 0 0 512 512" xml:space="preserve">
<polygon opacity="0.08" enable-background="new    " points="68.2,512 68.2,8 451.801,8 451.801,369.913 309.714,512 "/>
<polygon opacity="0.1" enable-background="new    " points="72.2,508 72.2,12 447.801,12 447.801,368.256 308.057,508 "/>
<polygon opacity="0.2" enable-background="new    " points="68.2,504 68.2,8 443.801,8 443.801,364.256 304.058,504 "/>
<polygon fill="#01579B" points="72.199,500 72.199,12 438.793,12 438.793,362.597 301.776,500 "/>
<g>
	<g>
		<g>
			<g>
				
					<linearGradient id="SVGID_1_" gradientUnits="userSpaceOnUse" x1="338.6653" y1="-568.8005" x2="338.6653" y2="-84.801" gradientTransform="matrix(1 0 0 -1 -83.2002 -70.8013)">
					<stop  offset="0" style="stop-color:#2196F3"/>
					<stop  offset="0.5828" style="stop-color:#3DBAE8"/>
					<stop  offset="1" style="stop-color:#4DD0E1"/>
				</linearGradient>
				<polygon fill="url(#SVGID_1_)" points="74.154,498 74.154,14 436.776,14 436.776,361.875 300.651,498 				"/>
			</g>
			<polygon fill="#01579B" fill-opacity="0.39" points="436.776,361.875 436.776,356.013 293.183,356.013 293.183,498 300.651,498 
							"/>
			<path fill="#FFFFFF" fill-opacity="0.3922" d="M300.461,361.875l136.346,0.189L300.651,498L300.461,361.875z"/>
		</g>
		<g>
			<path opacity="0.8" fill="#FFFFFF" enable-background="new    " d="M319.809,182.99c14.148,0,25.618,11.47,25.618,25.634
				c0,14.148-11.47,25.618-25.618,25.618s-25.618-11.47-25.618-25.618C294.191,194.46,305.66,182.99,319.809,182.99z"/>
			<path opacity="0.8" fill="#FFFFFF" enable-background="new    " d="M129.423,155.182v165.351h252.115V155.182H129.423z
				 M363.357,173.316v129.066l0,0l-58.483-41.53l-41.783,25.587l-53.599-64.723l-61.918,80.666V173.316H363.357z"/>
		</g>
	</g>
	<g>
		<rect x="74.091" y="14" opacity="0.8" fill="#FFFFFF" enable-background="new    " width="362.811" height="92.767"/>
		<g enable-background="new    ">
			<path fill="#0288D1" d="M205.93,71.695c0,3.561-0.378,6.901-1.26,10.021c-0.819,3.12-2.269,5.861-4.349,8.193
				c-2.08,2.332-4.916,4.191-8.444,5.514c-3.593,1.386-8.067,2.048-13.487,2.048c-4.979,0-9.264-0.599-12.855-1.733
				c-3.593-1.134-6.555-2.458-8.887-4.001l5.735-12.636c2.08,1.197,4.349,2.237,6.807,3.151c2.395,0.882,5.041,1.323,7.877,1.323
				c4.159,0,7.185-0.945,9.012-2.899c1.828-1.954,2.773-5.23,2.773-9.831v-47.14h17.078V71.695z"/>
			<path fill="#0288D1" d="M245.255,22.885c11.344,0,20.041,1.891,26.154,5.672c6.05,3.781,9.074,10.021,9.074,18.623
				c0,8.697-3.024,14.968-9.2,18.812c-6.113,3.875-14.937,5.798-26.343,5.798h-5.357v24.2h-17.142V24.745
				c3.719-0.693,7.688-1.166,11.848-1.45C238.449,23.011,242.105,22.885,245.255,22.885z M246.39,36.75
				c-1.261,0-2.521,0.031-3.719,0.126c-1.197,0.063-2.205,0.126-3.088,0.189v20.86h5.357c5.924,0,10.398-0.756,13.423-2.3
				c2.962-1.544,4.475-4.38,4.475-8.539c0-2.017-0.378-3.687-1.135-5.01c-0.756-1.323-1.891-2.395-3.34-3.183
				c-1.387-0.819-3.15-1.355-5.168-1.67C251.116,36.908,248.848,36.75,246.39,36.75z"/>
			<path fill="#0288D1" d="M330.271,36.246c-8.004,0-13.739,2.08-17.331,6.302c-3.529,4.222-5.294,9.958-5.294,17.268
				c0,3.529,0.441,6.743,1.323,9.642c0.883,2.899,2.206,5.357,3.908,7.437c1.764,2.111,3.97,3.718,6.617,4.853
				c2.646,1.166,5.734,1.733,9.2,1.733c1.954,0,3.529-0.032,4.916-0.095c1.323-0.063,2.521-0.189,3.592-0.441V57.799h17.079v35.796
				c-2.017,0.756-5.294,1.576-9.831,2.458c-4.601,0.882-10.146,1.323-16.827,1.323c-5.734,0-10.902-0.851-15.565-2.521
				c-4.601-1.67-8.571-4.096-11.911-7.31c-3.277-3.183-5.798-7.122-7.626-11.785c-1.765-4.664-2.71-9.957-2.71-15.944
				c0-6.05,1.009-11.407,3.025-16.07c1.953-4.664,4.663-8.634,8.066-11.848c3.467-3.214,7.5-5.672,12.163-7.374
				c4.664-1.639,9.579-2.489,14.873-2.489c3.592,0,6.807,0.221,9.705,0.662c2.899,0.473,5.42,1.008,7.5,1.576
				c2.079,0.599,3.781,1.197,5.167,1.828c1.324,0.63,2.332,1.134,2.899,1.449l-4.979,13.045c-2.332-1.166-4.979-2.206-8.067-3.057
				C337.14,36.656,333.863,36.246,330.271,36.246z"/>
		</g>
	</g>
</g>
</svg>
