<?xml version="1.0" encoding="utf-8"?>
<!-- Generator: Adobe Illustrator 21.0.0, SVG Export Plug-In . SVG Version: 6.00 Build 0)  -->
<svg version="1.1" id="图层_1" xmlns="http://www.w3.org/2000/svg" xmlns:xlink="http://www.w3.org/1999/xlink" x="0px" y="0px"
	 viewBox="0 0 512 512" style="enable-background:new 0 0 512 512;" xml:space="preserve">
<style type="text/css">
	.st0{opacity:0.08;enable-background:new    ;}
	.st1{opacity:0.1;enable-background:new    ;}
	.st2{opacity:0.2;enable-background:new    ;}
	.st3{fill:#0D47A1;}
	.st4{fill:url(#SVGID_1_);}
	.st5{fill:#2196F3;fill-opacity:0.7;}
	.st6{opacity:0.39;fill:#FFFFFF;enable-background:new    ;}
	.st7{opacity:0.8;}
	.st8{opacity:0.8;fill:url(#SVGID_2_);enable-background:new    ;}
	.st9{opacity:0.8;fill:url(#SVGID_3_);enable-background:new    ;}
	.st10{opacity:0.8;fill:url(#SVGID_4_);enable-background:new    ;}
	.st11{fill:url(#SVGID_5_);}
	.st12{fill:url(#SVGID_6_);}
	.st13{fill:url(#SVGID_7_);}
	.st14{fill:url(#SVGID_8_);}
	.st15{opacity:0.8;fill:#FFFFFF;enable-background:new    ;}
	.st16{fill:#1976D2;}
	.st17{fill:url(#SVGID_9_);}
	.st18{opacity:0.8;fill:url(#SVGID_10_);enable-background:new    ;}
	.st19{opacity:0.8;fill:url(#SVGID_11_);enable-background:new    ;}
	.st20{opacity:0.8;fill:url(#SVGID_12_);enable-background:new    ;}
	.st21{fill:url(#SVGID_13_);}
	.st22{fill:url(#SVGID_14_);}
	.st23{fill:url(#SVGID_15_);}
	.st24{fill:url(#SVGID_16_);}
</style>
<polygon class="st0" points="68.2,512 68.2,8 451.8,8 451.8,369.9 309.7,512 "/>
<polygon class="st1" points="72.2,508 72.2,12 447.8,12 447.8,368.3 308.1,508 "/>
<polygon class="st2" points="68.2,504 68.2,8 443.8,8 443.8,364.3 304.1,504 "/>
<polygon class="st3" points="72.2,500 72.2,12 438.8,12 438.8,362.6 301.8,500 "/>
<g>
	<g>
		<g>
			<g>
				
					<linearGradient id="SVGID_1_" gradientUnits="userSpaceOnUse" x1="157" y1="597.5" x2="157" y2="582.5" gradientTransform="matrix(1 0 0 1 0 -278)">
					<stop  offset="0" style="stop-color:#3F51B5"/>
					<stop  offset="1" style="stop-color:#64B5F6"/>
				</linearGradient>
				<polygon class="st4" points="151.4,319.5 151.4,304.5 162.6,304.5 162.6,315.3 158.4,319.5 				"/>
			</g>
			<polygon class="st5" points="162.6,315.3 162.6,315.1 158.2,315.1 158.2,319.5 158.4,319.5 			"/>
			<path class="st6" d="M158.4,315.3h4.2l-4.2,4.2V315.3z"/>
		</g>
		<g class="st7">
			
				<linearGradient id="SVGID_2_" gradientUnits="userSpaceOnUse" x1="153.047" y1="587.6" x2="160.947" y2="587.6" gradientTransform="matrix(1 0 0 1 0 -278)">
				<stop  offset="0" style="stop-color:#F6F5F5"/>
				<stop  offset="0.341" style="stop-color:#F1F2F3"/>
				<stop  offset="0.6434" style="stop-color:#E7EAEB"/>
				<stop  offset="0.9302" style="stop-color:#D5DBDF"/>
				<stop  offset="1" style="stop-color:#CFD7DB"/>
			</linearGradient>
			<rect x="153" y="309.4" class="st8" width="7.9" height="0.4"/>
			
				<linearGradient id="SVGID_3_" gradientUnits="userSpaceOnUse" x1="153.047" y1="586.4" x2="160.947" y2="586.4" gradientTransform="matrix(1 0 0 1 0 -278)">
				<stop  offset="0" style="stop-color:#F6F5F5"/>
				<stop  offset="0.341" style="stop-color:#F1F2F3"/>
				<stop  offset="0.6434" style="stop-color:#E7EAEB"/>
				<stop  offset="0.9302" style="stop-color:#D5DBDF"/>
				<stop  offset="1" style="stop-color:#CFD7DB"/>
			</linearGradient>
			<rect x="153" y="308.2" class="st9" width="7.9" height="0.4"/>
			
				<linearGradient id="SVGID_4_" gradientUnits="userSpaceOnUse" x1="156.816" y1="590.65" x2="160.941" y2="590.65" gradientTransform="matrix(1 0 0 1 0 -278)">
				<stop  offset="0" style="stop-color:#F6F5F5"/>
				<stop  offset="0.341" style="stop-color:#F1F2F3"/>
				<stop  offset="0.6434" style="stop-color:#E7EAEB"/>
				<stop  offset="0.9302" style="stop-color:#D5DBDF"/>
				<stop  offset="1" style="stop-color:#CFD7DB"/>
			</linearGradient>
			<rect x="156.8" y="310.6" class="st10" width="4.1" height="4.1"/>
			<g class="st7">
				
					<linearGradient id="SVGID_5_" gradientUnits="userSpaceOnUse" x1="153.047" y1="588.8" x2="156.479" y2="588.8" gradientTransform="matrix(1 0 0 1 0 -278)">
					<stop  offset="0" style="stop-color:#F6F5F5"/>
					<stop  offset="0.341" style="stop-color:#F1F2F3"/>
					<stop  offset="0.6434" style="stop-color:#E7EAEB"/>
					<stop  offset="0.9302" style="stop-color:#D5DBDF"/>
					<stop  offset="1" style="stop-color:#CFD7DB"/>
				</linearGradient>
				<rect x="153" y="310.6" class="st11" width="3.4" height="0.4"/>
				
					<linearGradient id="SVGID_6_" gradientUnits="userSpaceOnUse" x1="153.047" y1="590.1" x2="156.479" y2="590.1" gradientTransform="matrix(1 0 0 1 0 -278)">
					<stop  offset="0" style="stop-color:#F6F5F5"/>
					<stop  offset="0.341" style="stop-color:#F1F2F3"/>
					<stop  offset="0.6434" style="stop-color:#E7EAEB"/>
					<stop  offset="0.9302" style="stop-color:#D5DBDF"/>
					<stop  offset="1" style="stop-color:#CFD7DB"/>
				</linearGradient>
				<rect x="153" y="311.9" class="st12" width="3.4" height="0.4"/>
				
					<linearGradient id="SVGID_7_" gradientUnits="userSpaceOnUse" x1="153.047" y1="591.3" x2="156.479" y2="591.3" gradientTransform="matrix(1 0 0 1 0 -278)">
					<stop  offset="0" style="stop-color:#F6F5F5"/>
					<stop  offset="0.341" style="stop-color:#F1F2F3"/>
					<stop  offset="0.6434" style="stop-color:#E7EAEB"/>
					<stop  offset="0.9302" style="stop-color:#D5DBDF"/>
					<stop  offset="1" style="stop-color:#CFD7DB"/>
				</linearGradient>
				<rect x="153" y="313.1" class="st13" width="3.4" height="0.4"/>
				
					<linearGradient id="SVGID_8_" gradientUnits="userSpaceOnUse" x1="153.047" y1="592.5" x2="156.479" y2="592.5" gradientTransform="matrix(1 0 0 1 0 -278)">
					<stop  offset="0" style="stop-color:#F6F5F5"/>
					<stop  offset="0.341" style="stop-color:#F1F2F3"/>
					<stop  offset="0.6434" style="stop-color:#E7EAEB"/>
					<stop  offset="0.9302" style="stop-color:#D5DBDF"/>
					<stop  offset="1" style="stop-color:#CFD7DB"/>
				</linearGradient>
				<rect x="153" y="314.3" class="st14" width="3.4" height="0.4"/>
			</g>
		</g>
	</g>
	<g>
		<rect x="151.4" y="304.5" class="st15" width="11.2" height="2.9"/>
		<g>
			<path class="st16" d="M156.1,305.9c0,0.2,0,0.4-0.1,0.5s-0.1,0.3-0.2,0.4c-0.1,0.1-0.2,0.2-0.4,0.2s-0.3,0.1-0.5,0.1
				s-0.3,0-0.5-0.1s-0.3-0.1-0.4-0.2c-0.1-0.1-0.2-0.2-0.3-0.4c-0.1-0.1-0.1-0.3-0.1-0.5s0-0.4,0.1-0.5s0.1-0.3,0.3-0.4
				c0.1-0.1,0.2-0.2,0.4-0.2c0.1,0,0.3-0.1,0.4-0.1c0.2,0,0.3,0,0.5,0.1c0.1,0,0.3,0.1,0.4,0.2c0.1,0.1,0.2,0.2,0.3,0.4
				C156.1,305.6,156.1,305.7,156.1,305.9z M154.3,305.9c0,0.1,0,0.2,0,0.3s0.1,0.2,0.1,0.2c0.1,0.1,0.1,0.1,0.2,0.1s0.2,0.1,0.3,0.1
				s0.2,0,0.3-0.1c0.1,0,0.1-0.1,0.2-0.1c0.1-0.1,0.1-0.1,0.1-0.2s0-0.2,0-0.3s0-0.2,0-0.3s-0.1-0.2-0.1-0.2
				c-0.1-0.1-0.1-0.1-0.2-0.1c-0.1,0-0.2-0.1-0.3-0.1s-0.2,0-0.3,0.1s-0.1,0.1-0.2,0.1c-0.1,0.1-0.1,0.1-0.1,0.2
				S154.3,305.8,154.3,305.9z"/>
			<path class="st16" d="M158.5,305.9c0,0.2,0,0.4-0.1,0.5s-0.2,0.3-0.3,0.4s-0.3,0.2-0.4,0.2s-0.4,0.1-0.6,0.1c-0.1,0-0.2,0-0.3,0
				s-0.3,0-0.4,0v-2.2c0.1,0,0.3,0,0.4,0s0.2,0,0.3,0c0.2,0,0.4,0,0.6,0.1s0.3,0.1,0.4,0.2s0.2,0.2,0.3,0.4
				C158.5,305.6,158.5,305.7,158.5,305.9z M157,306.6C157,306.6,157.1,306.6,157,306.6c0.1,0,0.2,0,0.2,0c0.3,0,0.5-0.1,0.6-0.2
				s0.2-0.3,0.2-0.5s-0.1-0.4-0.2-0.5s-0.3-0.2-0.6-0.2h-0.1H157L157,306.6L157,306.6z"/>
			<path class="st16" d="M160.6,304.8v0.4h-0.7v1.8h-0.5v-1.8h-0.7v-0.4H160.6z"/>
		</g>
	</g>
</g>
<g>
	<g>
		<g>
			<g>
				
					<linearGradient id="SVGID_9_" gradientUnits="userSpaceOnUse" x1="255.65" y1="776" x2="255.65" y2="292" gradientTransform="matrix(1 0 0 1 0 -278)">
					<stop  offset="0" style="stop-color:#3F51B5"/>
					<stop  offset="1" style="stop-color:#64B5F6"/>
				</linearGradient>
				<polygon class="st17" points="74.3,498 74.3,14 437,14 437,361.9 300.8,498 				"/>
			</g>
			<polygon class="st5" points="437,361.9 437,356 293.4,356 293.4,498 300.8,498 			"/>
			<path class="st6" d="M300.7,361.9l136.3,0.2L300.8,498L300.7,361.9z"/>
		</g>
		<g class="st7">
			
				<linearGradient id="SVGID_10_" gradientUnits="userSpaceOnUse" x1="128.1" y1="457.1" x2="383" y2="457.1" gradientTransform="matrix(1 0 0 1 0 -278)">
				<stop  offset="0" style="stop-color:#F6F5F5"/>
				<stop  offset="0.341" style="stop-color:#F1F2F3"/>
				<stop  offset="0.6434" style="stop-color:#E7EAEB"/>
				<stop  offset="0.9302" style="stop-color:#D5DBDF"/>
				<stop  offset="1" style="stop-color:#CFD7DB"/>
			</linearGradient>
			<rect x="128.1" y="172.8" class="st18" width="254.9" height="12.6"/>
			
				<linearGradient id="SVGID_11_" gradientUnits="userSpaceOnUse" x1="128.1" y1="417.7" x2="383" y2="417.7" gradientTransform="matrix(1 0 0 1 0 -278)">
				<stop  offset="0" style="stop-color:#F6F5F5"/>
				<stop  offset="0.341" style="stop-color:#F1F2F3"/>
				<stop  offset="0.6434" style="stop-color:#E7EAEB"/>
				<stop  offset="0.9302" style="stop-color:#D5DBDF"/>
				<stop  offset="1" style="stop-color:#CFD7DB"/>
			</linearGradient>
			<rect x="128.1" y="133.4" class="st19" width="254.9" height="12.6"/>
			
				<linearGradient id="SVGID_12_" gradientUnits="userSpaceOnUse" x1="249.7" y1="554.45" x2="382.8" y2="554.45" gradientTransform="matrix(1 0 0 1 0 -278)">
				<stop  offset="0" style="stop-color:#F6F5F5"/>
				<stop  offset="0.341" style="stop-color:#F1F2F3"/>
				<stop  offset="0.6434" style="stop-color:#E7EAEB"/>
				<stop  offset="0.9302" style="stop-color:#D5DBDF"/>
				<stop  offset="1" style="stop-color:#CFD7DB"/>
			</linearGradient>
			<rect x="249.7" y="209.9" class="st20" width="133.1" height="133.1"/>
			<g class="st7">
				
					<linearGradient id="SVGID_13_" gradientUnits="userSpaceOnUse" x1="128.1" y1="496.5" x2="238.8" y2="496.5" gradientTransform="matrix(1 0 0 1 0 -278)">
					<stop  offset="0" style="stop-color:#F6F5F5"/>
					<stop  offset="0.341" style="stop-color:#F1F2F3"/>
					<stop  offset="0.6434" style="stop-color:#E7EAEB"/>
					<stop  offset="0.9302" style="stop-color:#D5DBDF"/>
					<stop  offset="1" style="stop-color:#CFD7DB"/>
				</linearGradient>
				<rect x="128.1" y="212.2" class="st21" width="110.7" height="12.6"/>
				
					<linearGradient id="SVGID_14_" gradientUnits="userSpaceOnUse" x1="128.1" y1="535.9" x2="238.8" y2="535.9" gradientTransform="matrix(1 0 0 1 0 -278)">
					<stop  offset="0" style="stop-color:#F6F5F5"/>
					<stop  offset="0.341" style="stop-color:#F1F2F3"/>
					<stop  offset="0.6434" style="stop-color:#E7EAEB"/>
					<stop  offset="0.9302" style="stop-color:#D5DBDF"/>
					<stop  offset="1" style="stop-color:#CFD7DB"/>
				</linearGradient>
				<rect x="128.1" y="251.6" class="st22" width="110.7" height="12.6"/>
				
					<linearGradient id="SVGID_15_" gradientUnits="userSpaceOnUse" x1="128.1" y1="575.4" x2="238.8" y2="575.4" gradientTransform="matrix(1 0 0 1 0 -278)">
					<stop  offset="0" style="stop-color:#F6F5F5"/>
					<stop  offset="0.341" style="stop-color:#F1F2F3"/>
					<stop  offset="0.6434" style="stop-color:#E7EAEB"/>
					<stop  offset="0.9302" style="stop-color:#D5DBDF"/>
					<stop  offset="1" style="stop-color:#CFD7DB"/>
				</linearGradient>
				<rect x="128.1" y="291.1" class="st23" width="110.7" height="12.6"/>
				
					<linearGradient id="SVGID_16_" gradientUnits="userSpaceOnUse" x1="128.1" y1="614.8" x2="238.8" y2="614.8" gradientTransform="matrix(1 0 0 1 0 -278)">
					<stop  offset="0" style="stop-color:#F6F5F5"/>
					<stop  offset="0.341" style="stop-color:#F1F2F3"/>
					<stop  offset="0.6434" style="stop-color:#E7EAEB"/>
					<stop  offset="0.9302" style="stop-color:#D5DBDF"/>
					<stop  offset="1" style="stop-color:#CFD7DB"/>
				</linearGradient>
				<rect x="128.1" y="330.5" class="st24" width="110.7" height="12.6"/>
			</g>
		</g>
	</g>
	<g>
		<rect x="74" y="14" class="st15" width="362.8" height="92.8"/>
		<g>
			<path class="st16" d="M226.5,60.3c0,6.2-1,11.7-2.9,16.3c-1.9,4.7-4.6,8.6-8,11.8c-3.4,3.2-7.4,5.5-12,7.2
				c-4.6,1.6-9.6,2.4-15,2.4c-5.2,0-10.1-0.8-14.7-2.4c-4.6-1.6-8.6-4-12.1-7.2c-3.4-3.2-6.1-7.1-8.1-11.8c-2-4.7-3-10.1-3-16.3
				s1-11.6,3.1-16.3c2-4.7,4.8-8.6,8.3-11.8s7.5-5.6,12.1-7.2s9.4-2.4,14.4-2.4c5.2,0,10.1,0.8,14.7,2.4c4.6,1.6,8.6,4,12.1,7.2
				c3.4,3.2,6.1,7.2,8.1,11.8C225.5,48.7,226.5,54.1,226.5,60.3z M168.4,60.3c0,3.5,0.5,6.7,1.4,9.6s2.2,5.3,4,7.3
				c1.7,2.1,3.8,3.7,6.3,4.8c2.5,1.1,5.4,1.7,8.6,1.7c3.2,0,6-0.6,8.5-1.7s4.6-2.7,6.4-4.8c1.7-2,3-4.5,4-7.3
				c0.9-2.9,1.4-6.1,1.4-9.6s-0.5-6.7-1.4-9.6c-0.9-2.9-2.2-5.4-4-7.4c-1.7-2-3.8-3.6-6.4-4.8c-2.5-1.1-5.4-1.7-8.5-1.7
				c-3.2,0-6.1,0.6-8.6,1.7c-2.5,1.1-4.6,2.7-6.3,4.8s-3,4.5-4,7.4C168.8,53.7,168.4,56.9,168.4,60.3z"/>
			<path class="st16" d="M305.2,60.3c0,6.3-1,11.7-3.1,16.4s-5,8.5-8.7,11.6c-3.8,3-8.4,5.4-13.8,6.9s-11.5,2.3-18.2,2.3
				c-3.1,0-6.7-0.1-10.8-0.4c-4.1-0.2-8.1-0.7-12.1-1.5V25.2c3.9-0.7,8.1-1.1,12.4-1.4c4.3-0.3,8-0.4,11-0.4
				c6.5,0,12.4,0.7,17.7,2.1c5.3,1.4,9.9,3.6,13.7,6.6c3.8,3,6.7,6.8,8.8,11.5C304.2,48.2,305.2,53.8,305.2,60.3z M255.7,83.3
				c0.8,0.1,1.7,0.1,2.8,0.2c1.1,0,2.3,0,3.8,0c8.6,0,14.9-2,19-6.1c4.2-4.1,6.2-9.8,6.2-17c0-7.6-2-13.3-5.9-17.2
				s-10.2-5.9-18.8-5.9c-1.2,0-2.4,0-3.6,0.1s-2.4,0.1-3.5,0.3L255.7,83.3L255.7,83.3z"/>
			<path class="st16" d="M371.2,24.2v13.9h-22.9v58.4h-17.1V38.1h-22.9V24.2H371.2z"/>
		</g>
	</g>
</g>
</svg>
