<?xml version="1.0" encoding="utf-8"?>
<!-- Generator: Adobe Illustrator 16.0.0, SVG Export Plug-In . SVG Version: 6.00 Build 0)  -->
<!DOCTYPE svg PUBLIC "-//W3C//DTD SVG 1.1//EN" "http://www.w3.org/Graphics/SVG/1.1/DTD/svg11.dtd">
<svg version="1.1" id="图层_1" xmlns="http://www.w3.org/2000/svg" xmlns:xlink="http://www.w3.org/1999/xlink" x="0px" y="0px"
	 width="512px" height="512px" viewBox="0 0 512 512" enable-background="new 0 0 512 512" xml:space="preserve">
<polygon opacity="0.08" enable-background="new    " points="68.2,512 68.2,8 451.801,8 451.801,369.913 309.714,512 "/>
<polygon opacity="0.1" enable-background="new    " points="72.2,508 72.2,12 447.801,12 447.801,368.256 308.057,508 "/>
<polygon opacity="0.2" enable-background="new    " points="68.2,504 68.2,8 443.801,8 443.801,364.256 304.058,504 "/>
<polygon fill="#01579B" points="72.199,500 72.199,12 438.793,12 438.793,362.597 301.776,500 "/>
<g>
	<g>
		<g>
			<g>
				
					<linearGradient id="SVGID_1_" gradientUnits="userSpaceOnUse" x1="338.6653" y1="-568.8005" x2="338.6653" y2="-84.801" gradientTransform="matrix(1 0 0 -1 -83.2002 -70.8013)">
					<stop  offset="0" style="stop-color:#2196F3"/>
					<stop  offset="0.5828" style="stop-color:#3DBAE8"/>
					<stop  offset="1" style="stop-color:#4DD0E1"/>
				</linearGradient>
				<polygon fill="url(#SVGID_1_)" points="74.154,498 74.154,14 436.776,14 436.776,361.875 300.651,498 				"/>
			</g>
			<polygon fill="#01579B" fill-opacity="0.39" points="436.776,361.875 436.776,356.013 293.183,356.013 293.183,498 300.651,498 
							"/>
			<path fill="#FFFFFF" fill-opacity="0.3922" d="M300.461,361.875l136.346,0.189L300.651,498L300.461,361.875z"/>
		</g>
		<g>
			<path opacity="0.8" fill="#FFFFFF" enable-background="new    " d="M319.809,182.99c14.148,0,25.618,11.47,25.618,25.634
				c0,14.148-11.47,25.618-25.618,25.618s-25.618-11.47-25.618-25.618C294.191,194.46,305.66,182.99,319.809,182.99z"/>
			<path opacity="0.8" fill="#FFFFFF" enable-background="new    " d="M129.423,155.182v165.351h252.115V155.182H129.423z
				 M363.357,173.316v129.066l0,0l-58.483-41.53l-41.783,25.587l-53.599-64.723l-61.918,80.666V173.316H363.357z"/>
		</g>
	</g>
	<g>
		<rect x="74.091" y="14" opacity="0.8" fill="#FFFFFF" enable-background="new    " width="362.811" height="92.767"/>
		<g enable-background="new    ">
			<path fill="#0288D1" d="M167.677,23.705h17.142v72.301h-17.142V23.705z"/>
			<path fill="#0288D1" d="M237.063,97.471c-12.353,0-21.806-3.277-28.297-9.816c-6.49-6.538-9.705-15.818-9.705-27.855
				c0-5.971,1.009-11.312,2.962-16.007c1.954-4.695,4.664-8.666,8.13-11.895c3.467-3.23,7.563-5.688,12.289-7.358
				c4.79-1.67,9.957-2.505,15.503-2.505c3.215,0,6.113,0.236,8.761,0.677c2.646,0.457,4.979,0.977,6.932,1.576
				c1.954,0.583,3.655,1.197,4.916,1.828c1.323,0.614,2.269,1.103,2.898,1.449l-4.979,13.156c-2.332-1.182-5.041-2.19-8.192-3.025
				c-3.088-0.835-6.617-1.26-10.588-1.26c-2.584,0-5.167,0.425-7.688,1.26c-2.584,0.835-4.789,2.174-6.743,4.002
				c-1.953,1.843-3.466,4.238-4.663,7.153c-1.135,2.915-1.765,6.475-1.765,10.635c0,3.34,0.378,6.459,1.197,9.343
				c0.756,2.883,2.017,5.373,3.718,7.468c1.702,2.08,3.971,3.734,6.743,4.947c2.773,1.213,6.177,1.828,10.084,1.828
				c2.521,0,4.727-0.142,6.743-0.425c1.953-0.268,3.718-0.599,5.23-0.977c1.575-0.394,2.899-0.819,4.097-1.308
				c1.134-0.488,2.205-0.945,3.15-1.355l4.727,13.03c-2.395,1.402-5.798,2.646-10.209,3.765
				C247.903,96.904,242.861,97.471,237.063,97.471z"/>
			<path fill="#0288D1" d="M343.253,59.8c0,6.192-0.945,11.643-2.899,16.338c-1.953,4.695-4.601,8.618-7.94,11.785
				c-3.403,3.167-7.374,5.546-12.037,7.137c-4.663,1.607-9.643,2.411-14.999,2.411c-5.23,0-10.083-0.804-14.747-2.411
				c-4.601-1.591-8.634-3.97-12.037-7.137c-3.466-3.167-6.176-7.09-8.129-11.785c-2.017-4.695-2.962-10.146-2.962-16.338
				s1.008-11.627,3.088-16.322c2.017-4.695,4.789-8.634,8.256-11.848c3.466-3.198,7.499-5.593,12.1-7.184
				c4.537-1.607,9.39-2.411,14.432-2.411c5.168,0,10.083,0.803,14.684,2.411c4.664,1.591,8.634,3.986,12.101,7.184
				c3.466,3.214,6.176,7.153,8.13,11.848C342.244,48.173,343.253,53.608,343.253,59.8z M285.148,59.8
				c0,3.545,0.504,6.759,1.387,9.595c0.945,2.868,2.205,5.31,3.97,7.358c1.702,2.064,3.781,3.64,6.303,4.758
				c2.457,1.103,5.356,1.67,8.57,1.67c3.151,0,5.987-0.567,8.508-1.67c2.521-1.118,4.664-2.694,6.365-4.758
				c1.701-2.048,3.025-4.49,3.971-7.358c0.882-2.836,1.386-6.05,1.386-9.595s-0.504-6.759-1.386-9.642
				c-0.945-2.883-2.27-5.357-3.971-7.405c-1.701-2.048-3.845-3.639-6.365-4.758c-2.521-1.103-5.356-1.67-8.508-1.67
				c-3.214,0-6.113,0.583-8.57,1.733c-2.521,1.15-4.601,2.741-6.303,4.79c-1.765,2.064-3.024,4.522-3.97,7.405
				C285.652,53.151,285.148,56.334,285.148,59.8z"/>
		</g>
	</g>
</g>
</svg>
