<?xml version="1.0" encoding="utf-8"?>
<!-- Generator: Adobe Illustrator 21.0.0, SVG Export Plug-In . SVG Version: 6.00 Build 0)  -->
<svg version="1.1" id="图层_1" xmlns="http://www.w3.org/2000/svg" xmlns:xlink="http://www.w3.org/1999/xlink" x="0px" y="0px"
	 viewBox="0 0 512 512" style="enable-background:new 0 0 512 512;" xml:space="preserve">
<style type="text/css">
	.st0{opacity:0.2;enable-background:new    ;}
	.st1{opacity:0.08;enable-background:new    ;}
	.st2{opacity:0.1;enable-background:new    ;}
	.st3{fill:url(#SVGID_1_);}
	.st4{fill:#EE6F0B;fill-opacity:0.3922;}
	.st5{fill:#FFFFFF;fill-opacity:0.3922;}
	.st6{fill:#B71C1C;fill-opacity:0.1961;}
	.st7{fill:#FFE0B2;}
	.st8{opacity:0.8;}
	.st9{fill:#FFFFFF;}
	.st10{fill:#EE6F0B;}
</style>
<g id="surface1">
	<polygon class="st0" points="69,504 69,8 443,8 443,364.4 303.4,504 	"/>
	<polygon class="st1" points="69,512 69,8 451,8 451,370.1 309.1,512 	"/>
	<polygon class="st2" points="73,508 73,12 447,12 447,368.4 307.4,508 	"/>
	<g>
		
			<linearGradient id="SVGID_1_" gradientUnits="userSpaceOnUse" x1="588.8008" y1="2989.9219" x2="588.8008" y2="2501.9219" gradientTransform="matrix(1 0 0 1 -332.8008 -2489.9219)">
			<stop  offset="0" style="stop-color:#F57C00"/>
			<stop  offset="0.099" style="stop-color:#F78B0C"/>
			<stop  offset="0.3289" style="stop-color:#FAA823"/>
			<stop  offset="0.5576" style="stop-color:#FDBC33"/>
			<stop  offset="0.7827" style="stop-color:#FEC93D"/>
			<stop  offset="1" style="stop-color:#FFCD40"/>
		</linearGradient>
		<path class="st3" d="M301.8,500L439,362.8V12H73v488H301.8z"/>
		<polygon class="st4" points="294.1,355.1 294.1,500 301.8,500 439,362.8 439,355.1 		"/>
		<path class="st5" d="M301.8,362.8h137.1L301.8,500V362.8z"/>
		<g>
			<path class="st6" d="M73,12v122h366V12H73z"/>
			<g>
				<path class="st7" d="M205.9,90c0,4.1-0.6,8.1-1.8,11.8c-1.1,3.6-3.1,6.9-5.9,9.7c-2.6,2.8-6.1,5-10.4,6.7
					c-4.3,1.5-9.5,2.4-15.6,2.4c-6.4,0-11.7-0.7-16-2.2s-7.9-3.3-10.9-5.5l7.2-13.5c2.6,1.5,5.4,2.9,8.4,4.3
					c3.2,1.4,6.3,2.1,9.7,2.1c4.9,0,8.8-1.1,11.7-3.5c3-2.4,4.6-6.8,4.6-13.2V47h-31.7V32.8h50.6L205.9,90"/>
				<path class="st7" d="M270.4,118.6l-4.5-19.8h-25.2l-4.3,19.8h-19.6c4.5-16.9,9-32.3,13.6-46.1c4.6-14,9-27.2,13.3-39.6h20.5
					c4.5,12.5,8.9,25.9,13.3,40c4.6,14.1,8.8,29.3,13,45.8h-20.1 M253.5,49.5c-1.1,3.2-2,6.3-2.9,9.3c-0.8,2.9-1.6,5.7-2.4,8.6
					c-0.7,2.7-1.4,5.6-2.1,8.4c-0.6,2.9-1.2,5.8-1.8,8.9h18.6c-0.7-3-1.2-6-1.9-8.9c-0.6-2.9-1.3-5.7-2.1-8.4
					c-0.7-2.9-1.5-5.8-2.4-8.6C255.4,55.8,254.5,52.7,253.5,49.5"/>
				<path class="st7" d="M324.7,31.9c5.4,0,10.3,0.5,14.7,1.6c4.4,1.1,8.2,2.9,11.4,5.1c3.2,2.3,5.6,5.3,7.2,8.9
					c1.8,3.5,2.6,7.7,2.6,12.4c0,5-1.1,9.6-3.4,13.6s-5.9,7.1-11.2,9.3c1.8,2.4,3.6,5.1,5.5,8c2,2.9,3.8,5.9,5.7,9.2
					c1.8,3.1,3.6,6.3,5.2,9.5c1.7,3.2,3.3,6.2,4.5,9H347c-2.3-5.5-5.1-10.8-8.2-16c-3-5.1-6.3-10.4-9.9-15.6H319v31.6h-18.8V34.1
					c1.8-0.4,3.8-0.7,6-1c2.2-0.4,4.5-0.6,6.7-0.7c2.3-0.2,4.4-0.3,6.4-0.4C321.4,31.9,323.1,31.9,324.7,31.9 M341.3,59.8
					c0-4.5-1.6-7.8-4.6-10c-3-2.1-7.1-3.2-12.1-3.2c-0.7,0-1.6,0.1-2.6,0.1c-1.1,0-2.1,0.2-3.1,0.3v25.8h4.1
					c6.4,0,11.1-1.1,13.9-3.3C339.9,67.2,341.3,64,341.3,59.8"/>
			</g>
		</g>
		<g class="st8">
			<path class="st9" d="M230.7,298.4c0,0-7.4,4,5.3,5.4c15.3,1.7,23.1,1.4,40-1.6c0,0,4.4,2.6,10.6,4.9
				C248.7,322.5,201,306.3,230.7,298.4"/>
			<path class="st9" d="M226,278.3c0,0-8.3,5.8,4.4,7.1c16.4,1.6,29.3,1.7,51.6-2.4c0,0,3.1,3,7.9,4.6
				C244.3,300.3,193.3,288.6,226,278.3"/>
			<path class="st9" d="M265,244.4c9.3,10.1-2.5,19.3-2.5,19.3s23.7-11.6,12.8-26c-10.1-13.5-17.9-20.3,24.2-43.4
				C299.5,194.2,233.4,209.9,265,244.4"/>
			<path class="st9" d="M314.9,313.3c0,0,5.5,4.2-6,7.5c-21.8,6.3-90.7,8.2-109.9,0.3c-6.8-2.9,6-6.8,10.1-7.6
				c4.2-0.9,6.6-0.7,6.6-0.7c-7.6-5.1-49.5,10-21.2,14.4C271.5,338.9,334.9,321.8,314.9,313.3"/>
			<path class="st9" d="M234.2,257.6c0,0-35.1,7.9-12.4,10.8c9.5,1.2,28.6,0.9,46.4-0.5c14.5-1.2,29.1-3.6,29.1-3.6
				s-5.1,2.1-8.8,4.5c-35.6,8.9-104.4,4.8-84.7-4.4C220.6,256.7,234.2,257.6,234.2,257.6"/>
			<path class="st9" d="M297.1,291c36.2-17.9,19.5-35,7.8-32.7c-2.9,0.6-4.1,1.1-4.1,1.1s1-1.6,3.1-2.3c23.1-7.7,40.9,22.8-7.5,34.8
				C296.4,291.9,297,291.4,297.1,291"/>
			<path class="st9" d="M275.3,156.9c0,0,20.1,19-19,48.3c-31.3,23.5-7.2,36.9,0,52.1c-18.3-15.6-31.7-29.4-22.8-42.2
				C246.8,196.2,283.4,187.1,275.3,156.9"/>
			<path class="st9" d="M237.8,339.3c34.7,2.1,88.1-1.1,89.4-16.7c0,0-2.4,5.9-28.8,10.6c-29.7,5.3-66.2,4.6-87.9,1.3
				C210.5,334.4,215,337.9,237.8,339.3"/>
		</g>
		<g>
			<path class="st10" d="M437,14v347.9L300.9,498H195H75V14H437 M439,12H73v488h122h106.8L439,362.8V12L439,12z"/>
		</g>
	</g>
</g>
</svg>
