<?xml version="1.0" encoding="utf-8"?>
<!-- Generator: Adobe Illustrator 16.0.0, SVG Export Plug-In . SVG Version: 6.00 Build 0)  -->
<!DOCTYPE svg PUBLIC "-//W3C//DTD SVG 1.1//EN" "http://www.w3.org/Graphics/SVG/1.1/DTD/svg11.dtd">
<svg version="1.1" id="图层_1" xmlns="http://www.w3.org/2000/svg" xmlns:xlink="http://www.w3.org/1999/xlink" x="0px" y="0px"
	 width="512px" height="512px" viewBox="0 0 512 512" enable-background="new 0 0 512 512" xml:space="preserve">
<polygon opacity="0.08" enable-background="new    " points="68.2,512 68.2,8 451.801,8 451.801,369.913 309.714,512 "/>
<polygon opacity="0.1" enable-background="new    " points="72.2,508 72.2,12 447.801,12 447.801,368.256 308.057,508 "/>
<polygon opacity="0.2" enable-background="new    " points="68.2,504 68.2,8 443.801,8 443.801,364.256 304.058,504 "/>
<polygon fill="#3E2723" points="72.199,500 72.199,12 438.793,12 438.793,362.602 301.771,500 "/>
<g>
	<g>
		
			<linearGradient id="SVGID_1_" gradientUnits="userSpaceOnUse" x1="297.1116" y1="334.0994" x2="297.1115" y2="-149.9006" gradientTransform="matrix(1 0 0 -1 -41.6001 348.0991)">
			<stop  offset="0" style="stop-color:#785548"/>
			<stop  offset="1" style="stop-color:#9F9E9F"/>
		</linearGradient>
		<polygon fill="url(#SVGID_1_)" points="74.201,498 74.201,14 436.823,14 436.823,361.686 302.021,498 		"/>
		<polygon fill="#795548" fill-opacity="0.7" points="436.823,361.875 436.823,356.014 293.261,356.014 293.261,498 300.698,498 		
			"/>
		<path opacity="0.39" fill="#FFFFFF" enable-background="new    " d="M300.508,361.875l136.314,0.189L300.698,498L300.508,361.875z
			"/>
	</g>
	<path fill="#FFFFFF" d="M203.772,107.302h-12.289v157.174h-9.265V107.302h-12.226v157.174h-9.265V107.302h-12.226v157.174h-9.264
		V107.302h-12.227v157.174h-3.214v66.582h84.133v-66.582h-4.159V107.302z M195.705,311.711h-59.681v-38.6h59.681V311.711z"/>
	<g>
		<rect x="74.106" y="14" opacity="0.8" fill="#FFFFFF" enable-background="new    " width="362.78" height="92.767"/>
		<g enable-background="new    ">
			<path fill="#5D4037" d="M168.732,23.406c11.407,0,20.167,1.938,26.248,5.798c6.082,3.86,9.106,9.863,9.106,17.993
				c0,5.073-1.229,9.201-3.687,12.368c-2.426,3.167-5.986,5.641-10.587,7.452c1.544,1.812,3.15,3.876,4.82,6.208
				c1.702,2.332,3.372,4.743,5.011,7.326c1.639,2.521,3.245,5.168,4.789,7.909c1.513,2.742,2.962,5.451,4.286,8.098H189.56
				c-1.418-2.395-2.804-4.79-4.254-7.216c-1.418-2.426-2.898-4.79-4.411-7.09s-2.993-4.475-4.475-6.522
				c-1.449-2.048-2.931-3.907-4.38-5.578h-8.477v26.406h-17.109V25.281c3.718-0.693,7.594-1.182,11.564-1.45
				C162.02,23.548,165.582,23.406,168.732,23.406z M169.709,37.286c-1.229,0-2.363,0.032-3.34,0.11
				c-0.977,0.063-1.922,0.126-2.805,0.205v19.615h4.854c6.428,0,11.028-0.772,13.833-2.3c2.772-1.528,4.159-4.144,4.159-7.83
				c0-3.545-1.418-6.066-4.223-7.563C179.351,38.027,175.223,37.286,169.709,37.286z"/>
			<path fill="#5D4037" d="M274.134,96.557c-0.851-2.521-1.732-5.104-2.741-7.751c-0.945-2.647-1.954-5.294-2.899-7.909h-29.745
				c-0.945,2.615-1.891,5.262-2.868,7.909c-0.977,2.647-1.858,5.231-2.678,7.751h-17.804c2.867-7.814,5.577-14.999,8.161-21.616
				c2.553-6.601,5.073-12.825,7.531-18.67s4.884-11.391,7.279-16.637c2.395-5.247,4.853-10.383,7.436-15.393h16.228
				c2.489,5.01,4.947,10.146,7.404,15.393c2.396,5.247,4.854,10.792,7.311,16.637c2.458,5.845,4.979,12.069,7.563,18.67
				c2.584,6.617,5.294,13.802,8.193,21.616H274.134z M253.558,40.627c-0.378,1.04-0.945,2.473-1.701,4.285
				c-0.693,1.812-1.576,3.892-2.489,6.255c-0.945,2.379-1.985,4.979-3.151,7.831c-1.166,2.852-2.363,5.829-3.561,8.964h21.773
				c-1.166-3.135-2.3-6.128-3.371-8.996c-1.104-2.852-2.144-5.467-3.12-7.831c-0.977-2.379-1.859-4.458-2.583-6.271
				C254.63,43.069,254,41.651,253.558,40.627z"/>
			<path fill="#5D4037" d="M324.52,23.406c11.438,0,20.198,1.938,26.279,5.798c6.05,3.86,9.106,9.863,9.106,17.993
				c0,5.073-1.229,9.201-3.687,12.368c-2.458,3.167-5.987,5.641-10.588,7.452c1.513,1.812,3.151,3.876,4.821,6.208
				c1.67,2.332,3.372,4.743,5.01,7.326c1.639,2.521,3.215,5.168,4.79,7.909c1.513,2.742,2.962,5.451,4.285,8.098h-19.158
				c-1.418-2.395-2.836-4.79-4.254-7.216s-2.931-4.79-4.411-7.09c-1.513-2.3-2.994-4.475-4.475-6.522
				c-1.481-2.048-2.931-3.907-4.38-5.578h-8.477v26.406h-17.11V25.281c3.719-0.693,7.563-1.182,11.564-1.45
				C317.839,23.548,321.4,23.406,324.52,23.406z M325.528,37.286c-1.261,0-2.363,0.032-3.34,0.11
				c-1.009,0.063-1.922,0.126-2.805,0.205v19.615h4.821c6.428,0,11.061-0.772,13.864-2.3c2.773-1.528,4.159-4.144,4.159-7.83
				c0-3.545-1.418-6.066-4.222-7.563C335.17,38.027,331.011,37.286,325.528,37.286z"/>
		</g>
	</g>
</g>
</svg>
