<?xml version="1.0" encoding="utf-8"?>
<!-- Generator: Adobe Illustrator 16.0.0, SVG Export Plug-In . SVG Version: 6.00 Build 0)  -->
<!DOCTYPE svg PUBLIC "-//W3C//DTD SVG 1.1//EN" "http://www.w3.org/Graphics/SVG/1.1/DTD/svg11.dtd">
<svg version="1.1" id="图层_1" xmlns="http://www.w3.org/2000/svg" xmlns:xlink="http://www.w3.org/1999/xlink" x="0px" y="0px"
	 width="512px" height="512px" viewBox="0 0 512 512" enable-background="new 0 0 512 512" xml:space="preserve">
<polygon opacity="0.08" enable-background="new    " points="68.2,512 68.2,8 451.801,8 451.801,369.913 309.714,512 "/>
<polygon opacity="0.1" enable-background="new    " points="72.2,508 72.2,12 447.801,12 447.801,368.256 308.057,508 "/>
<polygon opacity="0.2" enable-background="new    " points="68.2,504 68.2,8 443.801,8 443.801,364.256 304.058,504 "/>
<polygon fill="#01579B" points="72.199,500 72.199,12 438.793,12 438.793,362.597 301.776,500 "/>
<g>
	<g>
		<g>
			
				<linearGradient id="SVGID_1_" gradientUnits="userSpaceOnUse" x1="297.0959" y1="916.9001" x2="297.0959" y2="432.9001" gradientTransform="matrix(1 0 0 1 -41.6001 -418.9004)">
				<stop  offset="0" style="stop-color:#2196F3"/>
				<stop  offset="0.5828" style="stop-color:#3DBAE8"/>
				<stop  offset="1" style="stop-color:#4DD0E1"/>
			</linearGradient>
			<polygon fill="url(#SVGID_1_)" points="74.176,498 74.176,14 436.817,14 436.817,361.875 300.692,498 			"/>
		</g>
		<polygon fill="#01579B" fill-opacity="0.39" points="436.817,361.875 436.817,356.023 293.219,356.023 293.219,498 300.692,498 		
			"/>
		<path fill="#FFFFFF" fill-opacity="0.3922" d="M300.466,361.875l136.351,0.18L300.692,498L300.466,361.875z"/>
	</g>
	<path opacity="0.8" fill="#FFFFFF" enable-background="new    " d="M319.845,164.844c14.135,0,25.614,11.468,25.614,25.614
		s-11.479,25.613-25.614,25.613c-14.157,0-25.613-11.467-25.613-25.613S305.688,164.844,319.845,164.844z"/>
	<path opacity="0.8" fill="#FFFFFF" enable-background="new    " d="M129.454,137.014v165.373h252.083V137.014H129.454z
		 M363.397,155.166v129.058l0,0l-58.496-41.526l-41.752,25.591l-53.636-64.72l-61.918,80.656V155.166H363.397z"/>
</g>
</svg>
