<?xml version="1.0" encoding="utf-8"?>
<!-- Generator: Adobe Illustrator 16.0.0, SVG Export Plug-In . SVG Version: 6.00 Build 0)  -->
<!DOCTYPE svg PUBLIC "-//W3C//DTD SVG 1.1//EN" "http://www.w3.org/Graphics/SVG/1.1/DTD/svg11.dtd">
<svg version="1.1" id="图层_1" xmlns="http://www.w3.org/2000/svg" xmlns:xlink="http://www.w3.org/1999/xlink" x="0px" y="0px"
	 width="512px" height="512px" viewBox="0 0 512 512" enable-background="new 0 0 512 512" xml:space="preserve">
<polygon opacity="0.08" enable-background="new    " points="68.2,512 68.2,8 451.801,8 451.801,369.913 309.714,512 "/>
<polygon opacity="0.1" enable-background="new    " points="72.2,508 72.2,12 447.801,12 447.801,368.256 308.057,508 "/>
<polygon opacity="0.2" enable-background="new    " points="68.2,504 68.2,8 443.801,8 443.801,364.256 304.058,504 "/>
<polygon fill="#0D47A1" points="72.199,500 72.199,12 438.793,12 438.793,362.602 301.771,500 "/>
<g>
	<g>
		<g>
			<g>
				
					<linearGradient id="SVGID_1_" gradientUnits="userSpaceOnUse" x1="297.0647" y1="-149.9001" x2="297.0647" y2="334.0999" gradientTransform="matrix(1 0 0 -1 -41.6001 348.0991)">
					<stop  offset="0" style="stop-color:#3F51B5"/>
					<stop  offset="1" style="stop-color:#64B5F6"/>
				</linearGradient>
				<polygon fill="url(#SVGID_1_)" points="74.154,498 74.154,14 436.776,14 436.776,361.875 300.651,498 				"/>
			</g>
			<polygon fill="#2196F3" fill-opacity="0.7" points="436.776,361.875 436.776,356.013 293.183,356.013 293.183,498 300.651,498 
							"/>
			<path opacity="0.39" fill="#FFFFFF" enable-background="new    " d="M300.462,361.875l136.377,0.189L300.651,498L300.462,361.875
				z"/>
		</g>
	</g>
	<g opacity="0.8">
		<rect x="120.947" y="161.642" opacity="0.8" fill="#FFFFFF" enable-background="new    " width="268.848" height="13.282"/>
		<rect x="120.947" y="120.079" opacity="0.8" fill="#FFFFFF" enable-background="new    " width="268.848" height="13.329"/>
		<rect x="249.225" y="200.746" opacity="0.8" fill="#FFFFFF" enable-background="new    " width="140.379" height="140.396"/>
		<g opacity="0.8">
			<rect x="120.947" y="203.157" fill="#FFFFFF" width="116.778" height="13.329"/>
			<rect x="120.947" y="244.719" fill="#FFFFFF" width="116.778" height="13.297"/>
			<rect x="120.947" y="286.439" fill="#FFFFFF" width="116.778" height="13.297"/>
			<rect x="120.947" y="327.969" fill="#FFFFFF" width="116.778" height="13.298"/>
		</g>
	</g>
</g>
</svg>
