<?xml version="1.0" encoding="utf-8"?>
<!-- Generator: Adobe Illustrator 21.0.0, SVG Export Plug-In . SVG Version: 6.00 Build 0)  -->
<svg version="1.1" id="图层_1" xmlns="http://www.w3.org/2000/svg" xmlns:xlink="http://www.w3.org/1999/xlink" x="0px" y="0px"
	 viewBox="0 0 512 512" style="enable-background:new 0 0 512 512;" xml:space="preserve">
<style type="text/css">
	.st0{opacity:0.08;enable-background:new    ;}
	.st1{opacity:0.1;enable-background:new    ;}
	.st2{opacity:0.2;enable-background:new    ;}
	.st3{fill:#311B92;}
	.st4{fill:url(#SVGID_1_);}
	.st5{fill:#673AB7;fill-opacity:0.3922;}
	.st6{fill:#FFFFFF;fill-opacity:0.3922;}
	.st7{opacity:0.8;}
	.st8{fill:#FFFFFF;}
</style>
<polygon class="st0" points="68.2,512 68.2,8 451.8,8 451.8,369.9 309.7,512 "/>
<polygon class="st1" points="72.2,508 72.2,12 447.8,12 447.8,368.3 308.1,508 "/>
<polygon class="st2" points="68.2,504 68.2,8 443.8,8 443.8,364.3 304.1,504 "/>
<polygon class="st3" points="72.2,500 72.2,12 438.8,12 438.8,362.6 301.8,500 "/>
<g>
	<g>
		<g>
			
				<linearGradient id="SVGID_1_" gradientUnits="userSpaceOnUse" x1="297.1001" y1="-403.9009" x2="297.1001" y2="80.0991" gradientTransform="matrix(1 0 0 -1 -41.6001 94.0991)">
				<stop  offset="0" style="stop-color:#512DA8"/>
				<stop  offset="8.000000e-03" style="stop-color:#532EA8"/>
				<stop  offset="0.1976" style="stop-color:#7541B2"/>
				<stop  offset="0.4086" style="stop-color:#9352BC"/>
				<stop  offset="0.6159" style="stop-color:#A95EC3"/>
				<stop  offset="0.8158" style="stop-color:#B666C7"/>
				<stop  offset="1" style="stop-color:#BA68C8"/>
			</linearGradient>
			<polygon class="st4" points="74.2,498 74.2,14 436.8,14 436.8,361.9 300.7,498 			"/>
		</g>
		<polygon class="st5" points="436.8,361.9 436.8,356 293.2,356 293.2,498 300.7,498 		"/>
		<path class="st6" d="M300.5,361.9l136.4,0.2L300.7,498L300.5,361.9z"/>
	</g>
	<g class="st7">
		<g>
			<rect x="336.4" y="135.8" class="st8" width="53.2" height="19.3"/>
		</g>
		<g>
			<rect x="336.4" y="172.3" class="st8" width="53.2" height="19.3"/>
		</g>
		<g>
			<rect x="336.4" y="209" class="st8" width="53.2" height="19.3"/>
		</g>
		<g>
			<rect x="224.8" y="247.5" class="st8" width="164.7" height="19.4"/>
		</g>
		<g>
			<rect x="224.8" y="284" class="st8" width="164.7" height="19.4"/>
		</g>
		<path class="st8" d="M190.1,194.9l-22.6-4.9v-28l30.6,6.7v-21.4l-46-9.9v21.4l0,0v110.9c-2.4-0.6-5-1-7.9-1
			c-12.7,0-23,7.9-23,17.6s10.3,17.6,23,17.6s23-7.9,23-17.4l0,0v-80.8l22.6,4.9L190.1,194.9L190.1,194.9z"/>
		<path class="st8" d="M310.8,206.4c0.2-0.2,0.2-0.4,0.4-0.6c0.2-0.4,0.4-0.8,0.6-1.2c0,0,0,0,0-0.2c1-2.4,2-4.9,2.6-7.3h9.7v-19.8
			h-9.7c-1-4-2.6-7.9-4.6-11.5l6.8-6.8l-13.9-13.9l-6.8,6.9c-3.6-2.2-7.5-3.8-11.7-4.9h0.2v-9.7h-19.5v9.7h0.2
			c-4.3,1-8.1,2.6-11.7,4.9l-6.9-6.9l-14,13.9l6.9,6.8c-2,3.4-3.6,7.3-4.6,11.5H225v19.6h9.7c1,4,2.6,7.8,4.6,11.5l0,0l-6.9,6.8
			l13.9,13.9l6.9-6.9c3.4,2.2,7.4,3.8,11.5,4.9v9.7h19.5v-9.7l0,0l0,0c4.1-1,8.1-2.6,11.5-4.9l6.8,6.9l13.9-13.9l-6.8-6.8l0,0
			c0.2-0.4,0.4-0.8,0.6-1.2C310.5,207,310.8,206.6,310.8,206.4z M274.6,218.5c-17.3,0-31.3-14.1-31.3-31.3
			c0-17.4,14.1-31.3,31.3-31.3c3.5,0,6.7,0.6,9.9,1.6l0,0c12.5,4,21.6,15.9,21.6,29.8c0,0.8,0,1.6,0,2.6l0,0
			c-0.2,2.4-0.6,4.9-1.4,7.3v0.2c-0.4,1.4-1,2.8-1.8,4.2c0,0,0,0.2-0.2,0.2c-0.4,0.6-0.8,1.4-1.2,2c0,0,0,0,0,0.2
			c-0.4,0.6-0.8,1.2-1.2,1.8c0,0,0,0,0,0.2c-0.4,0.6-0.8,1.2-1.4,1.8l-0.2,0.2c-1,1.2-2,2.2-3.2,3.3l-0.2,0.2
			c-0.6,0.4-1.2,1-1.6,1.4l-0.2,0.2c-0.6,0.4-1,0.8-1.6,1.2c0,0-0.2,0-0.2,0.2c-0.6,0.4-1.2,0.8-1.8,1c-0.2,0-0.2,0.2-0.4,0.2
			c-0.6,0.4-1.2,0.6-2,0.8h-0.2c-0.6,0.2-1.2,0.4-1.8,0.6C281.5,217.9,278.1,218.5,274.6,218.5z"/>
	</g>
</g>
</svg>
