<?xml version="1.0" encoding="utf-8"?>
<!-- Generator: Adobe Illustrator 16.0.0, SVG Export Plug-In . SVG Version: 6.00 Build 0)  -->
<!DOCTYPE svg PUBLIC "-//W3C//DTD SVG 1.1//EN" "http://www.w3.org/Graphics/SVG/1.1/DTD/svg11.dtd">
<svg version="1.1" id="图层_1" xmlns="http://www.w3.org/2000/svg" xmlns:xlink="http://www.w3.org/1999/xlink" x="0px" y="0px"
	 width="512px" height="512px" viewBox="0 0 512 512" enable-background="new 0 0 512 512" xml:space="preserve">
<polygon opacity="0.08" enable-background="new    " points="68.2,512 68.2,8 451.801,8 451.801,369.913 309.714,512 "/>
<polygon opacity="0.1" enable-background="new    " points="72.2,508 72.2,12 447.801,12 447.801,368.256 308.057,508 "/>
<polygon opacity="0.2" enable-background="new    " points="68.2,504 68.2,8 443.801,8 443.801,364.256 304.058,504 "/>
<polygon fill="#311B92" points="72.199,500 72.199,12 438.793,12 438.793,362.597 301.776,500 "/>
<g>
	<g>
		<g>
			
				<linearGradient id="SVGID_1_" gradientUnits="userSpaceOnUse" x1="297.0969" y1="-149.9001" x2="297.0969" y2="334.0999" gradientTransform="matrix(1 0 0 -1 -41.6001 348.0991)">
				<stop  offset="0" style="stop-color:#512DA8"/>
				<stop  offset="0.008" style="stop-color:#532EA8"/>
				<stop  offset="0.1976" style="stop-color:#7541B2"/>
				<stop  offset="0.4086" style="stop-color:#9352BC"/>
				<stop  offset="0.6159" style="stop-color:#A95EC3"/>
				<stop  offset="0.8158" style="stop-color:#B666C7"/>
				<stop  offset="1" style="stop-color:#BA68C8"/>
			</linearGradient>
			<polygon fill="url(#SVGID_1_)" points="74.182,498 74.182,14 436.811,14 436.811,361.875 300.686,498 			"/>
		</g>
		<polygon fill="#673AB7" fill-opacity="0.3922" points="436.811,361.875 436.811,356.023 293.213,356.023 293.213,498 300.686,498 
					"/>
		<path fill="#FFFFFF" fill-opacity="0.3922" d="M300.461,361.875l136.35,0.18L300.686,498L300.461,361.875z"/>
	</g>
	<g opacity="0.8">
		<g>
			<rect x="336.383" y="135.822" fill="#FFFFFF" width="53.207" height="19.345"/>
		</g>
		<g>
			<rect x="336.383" y="172.306" fill="#FFFFFF" width="53.207" height="19.345"/>
		</g>
		<g>
			<rect x="336.383" y="209.016" fill="#FFFFFF" width="53.207" height="19.345"/>
		</g>
		<g>
			<rect x="224.847" y="247.526" fill="#FFFFFF" width="164.743" height="19.379"/>
		</g>
		<g>
			<rect x="224.847" y="284.045" fill="#FFFFFF" width="164.743" height="19.355"/>
		</g>
		<path fill="#FFFFFF" d="M190.129,194.904l-22.564-4.851v-28.021l30.633,6.651v-21.394l-45.96-9.858v21.359l0,0v110.917
			c-2.431-0.607-5.042-1.013-7.866-1.013c-12.717,0-23.002,7.878-23.002,17.556s10.286,17.557,23.002,17.557
			c12.694,0,22.991-7.879,22.991-17.377l0,0v-80.846l22.575,4.851L190.129,194.904L190.129,194.904z"/>
		<path fill="#FFFFFF" d="M310.77,206.405c0.18-0.225,0.18-0.417,0.404-0.63c0.18-0.383,0.359-0.788,0.586-1.204c0,0,0,0,0-0.18
			c0.99-2.431,2.025-4.861,2.609-7.281h9.68v-19.761h-9.68c-0.99-4.029-2.609-7.878-4.635-11.501l6.842-6.831l-13.91-13.932
			l-6.842,6.865c-3.646-2.228-7.473-3.837-11.705-4.85h0.182v-9.667h-19.549v9.667h0.203c-4.254,1.013-8.059,2.622-11.682,4.85
			l-6.865-6.865l-13.932,13.932l6.865,6.831c-2.003,3.433-3.624,7.281-4.637,11.501h-9.655v19.57h9.655
			c1.013,4.029,2.634,7.844,4.637,11.501l0,0l-6.865,6.842l13.932,13.921l6.865-6.865c3.398,2.239,7.428,3.837,11.479,4.85v9.678
			h19.549v-9.678l0,0l0,0c4.051-1.013,8.057-2.611,11.523-4.85l6.842,6.865l13.91-13.921l-6.842-6.842l0,0
			c0.18-0.405,0.404-0.821,0.584-1.227C310.543,207.001,310.77,206.596,310.77,206.405z M274.621,218.503
			c-17.318,0-31.251-14.112-31.251-31.263c0-17.354,14.135-31.252,31.251-31.252c3.467,0,6.662,0.597,9.904,1.609l0,0
			c12.514,4.029,21.607,15.913,21.607,29.833c0,0.822,0,1.609,0,2.622l0,0c-0.225,2.42-0.631,4.851-1.441,7.27v0.191
			c-0.404,1.418-0.99,2.836-1.801,4.22c0,0,0,0.225-0.225,0.225c-0.404,0.596-0.811,1.418-1.215,2.014c0,0,0,0,0,0.191
			c-0.361,0.597-0.766,1.227-1.215,1.823c0,0,0,0,0,0.191c-0.406,0.596-0.811,1.227-1.396,1.834l-0.18,0.18
			c-1.035,1.238-2.025,2.24-3.242,3.252l-0.225,0.191c-0.584,0.405-1.17,1.001-1.574,1.418l-0.227,0.18
			c-0.584,0.416-1.035,0.821-1.619,1.238c0,0-0.182,0-0.182,0.18c-0.584,0.416-1.215,0.821-1.846,1.013
			c-0.18,0-0.18,0.191-0.404,0.191c-0.586,0.405-1.17,0.63-2.025,0.821h-0.18c-0.586,0.18-1.172,0.405-1.801,0.597
			C281.51,217.872,278.088,218.503,274.621,218.503z"/>
	</g>
</g>
</svg>
