<?xml version="1.0" encoding="utf-8"?>
<!-- Generator: Adobe Illustrator 16.0.0, SVG Export Plug-In . SVG Version: 6.00 Build 0)  -->
<!DOCTYPE svg PUBLIC "-//W3C//DTD SVG 1.1//EN" "http://www.w3.org/Graphics/SVG/1.1/DTD/svg11.dtd">
<svg version="1.1" id="图层_1" xmlns="http://www.w3.org/2000/svg" xmlns:xlink="http://www.w3.org/1999/xlink" x="0px" y="0px"
	 width="512px" height="512px" viewBox="0 0 512 512" enable-background="new 0 0 512 512" xml:space="preserve">
<polygon opacity="0.08" enable-background="new    " points="68.2,512 68.2,8 451.801,8 451.801,369.913 309.714,512 "/>
<polygon opacity="0.1" enable-background="new    " points="72.2,508 72.2,12 447.801,12 447.801,368.256 308.057,508 "/>
<polygon opacity="0.2" enable-background="new    " points="68.2,504 68.2,8 443.801,8 443.801,364.256 304.058,504 "/>
<polygon fill="#455A64" points="72.199,500 72.199,12 438.793,12 438.793,362.602 301.778,500 "/>
<g>
	<g>
		<g>
			
				<linearGradient id="SVGID_1_" gradientUnits="userSpaceOnUse" x1="297.0959" y1="334.0994" x2="297.0959" y2="-149.9006" gradientTransform="matrix(1 0 0 -1 -41.6001 348.0991)">
				<stop  offset="0" style="stop-color:#90A4AE"/>
				<stop  offset="0.1378" style="stop-color:#849AA5"/>
				<stop  offset="0.4226" style="stop-color:#708A97"/>
				<stop  offset="0.7096" style="stop-color:#64808E"/>
				<stop  offset="1" style="stop-color:#607D8B"/>
			</linearGradient>
			<polygon fill="url(#SVGID_1_)" points="74.181,498 74.181,14 436.812,14 436.812,361.875 300.687,498 			"/>
		</g>
		<polygon fill="#455A64" fill-opacity="0.39" points="436.812,361.875 436.812,356.018 293.217,356.018 293.217,498 300.687,498 		
			"/>
		<path fill="#FFFFFF" fill-opacity="0.39" d="M300.468,361.875l136.344,0.185L300.687,498L300.468,361.875z"/>
	</g>
	<path opacity="0.8" fill="#FFFFFF" enable-background="new    " d="M346.834,215.484c8.047,0,15.344,3.199,20.566,8.444v-45.375
		h-70.356c5.222-5.234,8.462-12.71,8.462-20.774c0-16.128-13.143-29.241-29.259-29.241c-16.105,0-29.213,13.113-29.213,29.241
		c0,8.064,3.228,15.35,8.45,20.774h-70.184v45.577c-5.257-5.246-12.508-8.461-20.566-8.461c-16.14,0-29.259,13.096-29.259,29.235
		s13.119,29.241,29.259,29.241c8.059,0,15.31-3.205,20.566-8.462v45.594h70.356c-5.222-5.268-8.438-12.738-8.438-20.797
		c0-16.139,13.119-29.258,29.247-29.258c16.116,0,29.259,13.119,29.259,29.258c0,8.059-3.286,15.321-8.508,20.797h70.414v-45.594
		c-5.269,5.257-12.52,8.462-20.578,8.462c-16.116,0-29.258-13.102-29.258-29.241C317.564,228.586,330.718,215.484,346.834,215.484z"
		/>
</g>
</svg>
