<?xml version="1.0" encoding="utf-8"?>
<!-- Generator: Adobe Illustrator 21.0.0, SVG Export Plug-In . SVG Version: 6.00 Build 0)  -->
<svg version="1.1" id="图层_1" xmlns="http://www.w3.org/2000/svg" xmlns:xlink="http://www.w3.org/1999/xlink" x="0px" y="0px"
	 viewBox="0 0 512 512" style="enable-background:new 0 0 512 512;" xml:space="preserve">
<style type="text/css">
	.st0{opacity:0.08;enable-background:new    ;}
	.st1{opacity:0.1;enable-background:new    ;}
	.st2{opacity:0.2;enable-background:new    ;}
	.st3{fill:#455A64;}
	.st4{fill:url(#SVGID_1_);}
	.st5{fill:#455A64;fill-opacity:0.39;}
	.st6{fill:#FFFFFF;fill-opacity:0.39;}
	.st7{opacity:0.8;fill:#FFFFFF;enable-background:new    ;}
</style>
<polygon class="st0" points="68.2,512 68.2,8 451.8,8 451.8,369.9 309.7,512 "/>
<polygon class="st1" points="72.2,508 72.2,12 447.8,12 447.8,368.3 308.1,508 "/>
<polygon class="st2" points="68.2,504 68.2,8 443.8,8 443.8,364.3 304.1,504 "/>
<polygon class="st3" points="72.2,500 72.2,12 438.8,12 438.8,362.6 301.8,500 "/>
<g>
	<g>
		<g>
			
				<linearGradient id="SVGID_1_" gradientUnits="userSpaceOnUse" x1="297.1001" y1="80.0991" x2="297.1001" y2="-403.9009" gradientTransform="matrix(1 0 0 -1 -41.6001 94.0991)">
				<stop  offset="0" style="stop-color:#90A4AE"/>
				<stop  offset="0.1378" style="stop-color:#849AA5"/>
				<stop  offset="0.4226" style="stop-color:#708A97"/>
				<stop  offset="0.7096" style="stop-color:#64808E"/>
				<stop  offset="1" style="stop-color:#607D8B"/>
			</linearGradient>
			<polygon class="st4" points="74.2,498 74.2,14 436.8,14 436.8,361.9 300.7,498 			"/>
		</g>
		<polygon class="st5" points="436.8,361.9 436.8,356 293.2,356 293.2,498 300.7,498 		"/>
		<path class="st6" d="M300.5,361.9l136.3,0.2L300.7,498L300.5,361.9z"/>
	</g>
	<path class="st7" d="M346.8,215.5c8,0,15.3,3.2,20.6,8.4v-45.4H297c5.2-5.2,8.5-12.7,8.5-20.8c0-16.1-13.1-29.2-29.3-29.2
		c-16.1,0-29.2,13.1-29.2,29.2c0,8.1,3.2,15.4,8.4,20.8h-70.2v45.6c-5.3-5.2-12.5-8.5-20.6-8.5c-16.1,0-29.3,13.1-29.3,29.2
		s13.1,29.2,29.3,29.2c8.1,0,15.3-3.2,20.6-8.5v45.6h70.4c-5.2-5.3-8.4-12.7-8.4-20.8c0-16.1,13.1-29.3,29.2-29.3
		s29.3,13.1,29.3,29.3c0,8.1-3.3,15.3-8.5,20.8h70.4v-45.6c-5.3,5.3-12.5,8.5-20.6,8.5c-16.1,0-29.3-13.1-29.3-29.2
		C317.6,228.6,330.7,215.5,346.8,215.5z"/>
</g>
</svg>
