<?xml version="1.0" encoding="utf-8"?>
<!-- Generator: Adobe Illustrator 21.0.0, SVG Export Plug-In . SVG Version: 6.00 Build 0)  -->
<svg version="1.1" id="图层_1" xmlns="http://www.w3.org/2000/svg" xmlns:xlink="http://www.w3.org/1999/xlink" x="0px" y="0px"
	 viewBox="0 0 512 512" style="enable-background:new 0 0 512 512;" xml:space="preserve">
<style type="text/css">
	.st0{opacity:0.08;enable-background:new    ;}
	.st1{opacity:0.1;enable-background:new    ;}
	.st2{opacity:0.2;enable-background:new    ;}
	.st3{fill:#E65100;}
	.st4{fill:url(#SVGID_1_);}
	.st5{fill:#E65100;fill-opacity:0.3922;}
	.st6{fill:#FFFFFF;fill-opacity:0.3922;}
	.st7{opacity:0.8;}
	.st8{fill:#FFFFFF;}
	.st9{opacity:0.8;fill:#FFFFFF;enable-background:new    ;}
	.st10{enable-background:new    ;}
	.st11{fill:#E64A19;}
</style>
<polygon class="st0" points="68.2,512 68.2,8 451.8,8 451.8,369.9 309.7,512 "/>
<polygon class="st1" points="72.2,508 72.2,12 447.8,12 447.8,368.3 308.1,508 "/>
<polygon class="st2" points="68.2,504 68.2,8 443.8,8 443.8,364.3 304.1,504 "/>
<polygon class="st3" points="72.2,500 72.2,12 438.8,12 438.8,362.6 301.8,500 "/>
<g>
	<g>
		<g>
			
				<linearGradient id="SVGID_1_" gradientUnits="userSpaceOnUse" x1="297.1001" y1="-403.9009" x2="297.1001" y2="80.0991" gradientTransform="matrix(1 0 0 -1 -41.6001 94.0991)">
				<stop  offset="0" style="stop-color:#EE6F0B"/>
				<stop  offset="1" style="stop-color:#FFB74D"/>
			</linearGradient>
			<polygon class="st4" points="74.2,498 74.2,14 436.8,14 436.8,361.9 300.7,498 			"/>
		</g>
		<polygon class="st5" points="436.8,361.9 436.8,356 293.2,356 293.2,498 300.7,498 		"/>
		<path class="st6" d="M300.5,361.9l136.3,0.2L300.7,498L300.5,361.9z"/>
	</g>
	<g class="st7">
		<rect x="121.4" y="200.3" class="st8" width="38.7" height="194"/>
		<rect x="185.9" y="297.1" class="st8" width="38.7" height="97"/>
		<rect x="250.3" y="336.6" class="st8" width="38.7" height="58.1"/>
		<g>
			<path class="st8" d="M302.9,166l0.4,77.2l77.2-0.4c0.2,42.8-34.3,77.5-77,77.6c-42.7,0.2-77.4-34.3-77.6-77
				C225.7,200.9,260.1,166.2,302.9,166z"/>
			<path class="st8" d="M312,157.2c42.8-0.2,77.5,34.3,77.6,77l-77.2,0.4L312,157.2z"/>
		</g>
	</g>
	<g>
		<rect x="74.1" y="14" class="st9" width="362.8" height="92.8"/>
		<g class="st10">
			<path class="st11" d="M160,23.7c1.3,2.3,2.8,5.1,4.6,8.5s3.5,7,5.4,11c1.9,3.9,3.7,7.9,5.5,12c1.9,4.1,3.6,7.9,5.2,11.6
				c1.6-3.7,3.3-7.5,5.2-11.6c1.8-4.1,3.7-8.1,5.5-12c1.9-3.9,3.7-7.6,5.4-11s3.2-6.2,4.6-8.5H217c0.7,4.8,1.4,10.2,2,16.1
				s1.2,12.1,1.6,18.6s0.9,12.9,1.3,19.3c0.4,6.5,0.8,12.6,1,18.2h-16.7c-0.2-7-0.5-14.7-0.9-22.9c-0.4-8.3-0.9-16.6-1.7-25
				c-1.3,2.9-2.8,6.1-4.4,9.7c-1.6,3.5-3.2,7.1-4.8,10.6c-1.6,3.6-3.1,7-4.6,10.2c-1.4,3.2-2.7,6-3.8,8.3h-11.9
				c-1-2.3-2.3-5.1-3.8-8.3c-1.5-3.2-3-6.6-4.6-10.2s-3.2-7.1-4.8-10.6c-1.6-3.6-3.1-6.8-4.4-9.7c-0.8,8.4-1.3,16.8-1.7,25
				c-0.3,8.3-0.6,15.9-0.9,22.9h-16.7c0.3-5.7,0.6-11.8,1-18.2s0.9-12.9,1.3-19.3c0.5-6.4,1-12.6,1.6-18.6s1.3-11.3,2-16.1
				C143.6,23.7,160,23.7,160,23.7z"/>
			<path class="st11" d="M275.3,36.2c-8,0-13.7,2.1-17.3,6.3c-3.5,4.2-5.3,10-5.3,17.3c0,3.5,0.4,6.7,1.3,9.6
				c0.9,2.9,2.2,5.4,3.9,7.4c1.8,2.1,4,3.7,6.6,4.9c2.6,1.2,5.7,1.7,9.2,1.7c1.9,0,3.5,0,4.9-0.1c1.3-0.1,2.5-0.2,3.6-0.4V57.8h17.1
				v35.8c-2,0.8-5.3,1.6-9.9,2.5s-10.1,1.3-16.8,1.3c-5.7,0-10.9-0.9-15.6-2.5c-4.6-1.7-8.6-4.1-11.9-7.3c-3.3-3.2-5.8-7.1-7.6-11.8
				s-2.7-10-2.7-15.9c0-6,1-11.4,3-16.1s4.7-8.6,8.1-11.8c3.5-3.2,7.5-5.7,12.2-7.4c4.7-1.6,9.6-2.5,14.9-2.5c3.6,0,6.8,0.2,9.7,0.7
				c2.9,0.5,5.4,1,7.5,1.6s3.8,1.2,5.1,1.8c1.4,0.6,2.3,1.1,2.9,1.4l-5,13c-2.3-1.2-5-2.2-8.1-3.1C282.2,36.7,278.9,36.2,275.3,36.2
				z"/>
			<path class="st11" d="M338.1,22.9c11.4,0,20.1,1.9,26.2,5.7s9.1,10,9.1,18.6c0,8.7-3.1,15-9.3,18.8c-6.1,3.9-14.9,5.8-26.3,5.8
				h-5.4V96h-17.1V24.7c3.7-0.7,7.7-1.2,11.8-1.5C331.3,23,335,22.9,338.1,22.9z M339.3,36.8c-1.3,0-2.5,0-3.7,0.1s-2.2,0.1-3.1,0.2
				V58h5.4c5.9,0,10.4-0.8,13.4-2.3s4.5-4.4,4.5-8.5c0-2-0.4-3.7-1.1-5c-0.8-1.3-1.9-2.4-3.3-3.2s-3.2-1.4-5.2-1.7
				C344,36.9,341.7,36.8,339.3,36.8z"/>
		</g>
	</g>
</g>
</svg>
