<?xml version="1.0" encoding="utf-8"?>
<!-- Generator: Adobe Illustrator 21.0.0, SVG Export Plug-In . SVG Version: 6.00 Build 0)  -->
<svg version="1.1" id="图层_1" xmlns="http://www.w3.org/2000/svg" xmlns:xlink="http://www.w3.org/1999/xlink" x="0px" y="0px"
	 viewBox="0 0 512 512" style="enable-background:new 0 0 512 512;" xml:space="preserve">
<style type="text/css">
	.st0{opacity:0.08;enable-background:new    ;}
	.st1{opacity:0.1;enable-background:new    ;}
	.st2{opacity:0.2;enable-background:new    ;}
	.st3{fill:#455A64;}
	.st4{fill:url(#SVGID_1_);}
	.st5{fill:#455A64;fill-opacity:0.39;}
	.st6{fill:#FFFFFF;fill-opacity:0.39;}
	.st7{opacity:0.8;}
	.st8{fill:#FFFFFF;}
</style>
<polygon class="st0" points="68.2,512 68.2,8 451.8,8 451.8,369.9 309.7,512 "/>
<polygon class="st1" points="72.2,508 72.2,12 447.8,12 447.8,368.3 308.1,508 "/>
<polygon class="st2" points="68.2,504 68.2,8 443.8,8 443.8,364.3 304.1,504 "/>
<polygon class="st3" points="72.2,500 72.2,12 438.8,12 438.8,362.6 301.8,500 "/>
<g>
	<g>
		<g>
			
				<linearGradient id="SVGID_1_" gradientUnits="userSpaceOnUse" x1="338.7002" y1="-338.8013" x2="338.7002" y2="-822.8013" gradientTransform="matrix(1 0 0 -1 -83.2002 -324.8013)">
				<stop  offset="0" style="stop-color:#90A4AE"/>
				<stop  offset="0.1378" style="stop-color:#849AA5"/>
				<stop  offset="0.4226" style="stop-color:#708A97"/>
				<stop  offset="0.7096" style="stop-color:#64808E"/>
				<stop  offset="1" style="stop-color:#607D8B"/>
			</linearGradient>
			<polygon class="st4" points="74.2,498 74.2,14 436.8,14 436.8,361.8 300.7,498 			"/>
		</g>
		<polygon class="st5" points="436.8,361.8 436.8,356 293.2,356 293.2,498 300.7,498 		"/>
		<path class="st6" d="M300.5,361.8l136.4,0.2L300.7,498L300.5,361.8z"/>
	</g>
	<g class="st7">
		<path class="st8" d="M279.1,218.9c0.2-0.4,0.4-0.8,0.6-1.2c0.4-0.8,0.8-1.5,1-2.2v-0.3c1.8-4,3.4-8.5,4.4-12.9h17V168h-17
			c-1.8-7.1-4.4-13.7-8.2-20l12.1-12l-24.2-24.2l-11.9,11.9c-6.3-3.8-13.1-6.7-20.2-8.5h0.2V98.7h-34.3v16.9h0.2
			c-7.3,1.8-14.2,4.7-20.4,8.5L166.8,112l-24.3,24.3l12.1,12.1c-3.6,6-6.5,12.7-8.3,19.9h-16.9v34.3h16.9c1.8,7.1,4.7,13.9,8.3,20
			l0,0l-12.1,12.1l24.3,24.2l12.1-12.1c6.1,3.8,12.9,6.7,20.2,8.3v17h34.3v-17l0,0l0,0c7.1-1.8,13.9-4.7,20-8.3l12.1,12.1l24.1-24.2
			l-12.1-12.1l0,0c0.4-0.6,0.8-1.4,1.2-2C278.7,219.9,278.9,219.3,279.1,218.9z M216,239.9c-30.3,0-54.7-24.4-54.7-54.6
			c0-30.3,24.4-54.7,54.7-54.7c6.1,0,11.7,1,17.1,2.9l0,0c21.8,7.2,37.5,27.6,37.5,51.8c0,1.4,0,3-0.2,4.4c0,0,0,0,0,0.2
			c-0.4,4.4-1.2,8.7-2.6,12.7c0,0.2,0,0.2-0.2,0.4c-0.8,2.6-2,5-3.2,7.5c0,0.2-0.2,0.2-0.2,0.4c-0.6,1.2-1.2,2.2-2,3.4l-0.2,0.2
			c-0.6,1-1.4,2.2-2.2,3.2c0,0,0,0.2-0.2,0.2c-0.8,1-1.6,2-2.4,3c-0.2,0.2-0.2,0.2-0.4,0.4c-1.6,2-3.4,3.9-5.4,5.5
			c-0.2,0.2-0.4,0.2-0.4,0.4c-1,0.8-2,1.6-3.1,2.4c-0.2,0.2-0.3,0.2-0.3,0.4c-1,0.6-2,1.4-3.1,2c-0.2,0-0.2,0.2-0.4,0.2
			c-1,0.6-2.2,1.2-3.2,1.8c-0.2,0.2-0.4,0.2-0.8,0.4c-1,0.6-2.2,1.1-3.4,1.6c-0.2,0-0.2,0-0.4,0.2c-1,0.4-2,0.8-3.2,1.2
			C228.1,238.9,222.1,239.9,216,239.9z"/>
		<path class="st8" d="M373.3,238.9c0-0.2,0-0.4,0-0.8c0-0.4,0-1,0-1.4c0,0,0,0,0-0.2c0-2.4,0-5-0.4-7.5l8.7-3.6l-7.2-17.6l-8.7,3.6
			c-2.4-3.2-5.2-6.1-8.5-8.5l3.6-8.7l-17.5-7.3l-3.7,8.7c-4-0.6-8-0.6-12.1,0l0,0l-3.6-8.7l-17.5,7.3l3.6,8.7l0,0
			c-3.4,2.4-6.3,5.5-8.7,8.7l-8.7-3.7l-7.2,17.6l8.7,3.6c-0.6,3.8-0.6,7.8,0,11.9l-8.7,3.6l7.2,17.5l8.7-3.6
			c2.4,3.2,5.2,6.1,8.4,8.5l0,0l-3.6,8.7l17.6,7.3l3.6-8.7c4,0.6,8,0.6,12.1,0l3.7,8.7l17.5-7.3L357,267l0,0l0,0
			c3.3-2.4,6-5.3,8.5-8.5l8.7,3.6l7.3-17.5l-8.7-3.6l0,0c0-0.4,0.2-0.8,0.2-1.4C373.1,239.4,373.1,239.2,373.3,238.9z M345.3,263.1
			c-15.6,6.5-33.3-0.8-39.5-16.4c-6.5-15.5,0.8-33.2,16.3-39.5c3-1.2,6.2-2.1,9.2-2.3l0,0c12.7-1,25,6.2,30.3,18.5
			c0.4,0.9,0.6,1.6,0.8,2.2l0,0c0.8,2.3,1.2,4.7,1.4,7.1v0.2c0.2,1.4,0,3,0,4.4v0.2c0,0.8-0.2,1.4-0.2,2.2v0.2
			c-0.2,0.6-0.2,1.5-0.4,2c0,0,0,0,0,0.2c-0.2,0.6-0.4,1.5-0.6,2c0,0.2,0,0.2,0,0.4c-0.4,1.4-1,2.6-1.6,4.1c0,0.2,0,0.2-0.2,0.4
			c-0.4,0.6-0.6,1.2-1,1.8l-0.2,0.2c-0.4,0.6-0.6,1-1,1.6c0,0,0,0.2-0.2,0.2c-0.4,0.6-0.8,1-1.2,1.6c0,0.2-0.2,0.2-0.2,0.4
			c-0.4,0.6-1,1-1.4,1.6l-0.2,0.2c-0.4,0.4-0.9,0.8-1.4,1.2C351.3,260,348.5,261.8,345.3,263.1z"/>
		<path class="st8" d="M297,302c0-0.2,0-0.4,0-0.6c0-0.4,0-0.8,0-1.2c0,0,0,0,0-0.2c0-2.2,0-4.5-0.3-6.7l7.6-3.2l-6.4-15.3l-7.7,3.3
			c-2-2.9-4.6-5.2-7.5-7.5l3.2-7.7l-15.3-6.3l-3.2,7.7c-3.5-0.6-7.1-0.6-10.8,0l0,0l-3.2-7.7l-15.4,6.5l3.3,7.7l0,0
			c-2.8,2.2-5.5,4.6-7.5,7.4l-7.7-3.2l-6.2,15.3l7.7,3.2c-0.6,3.4-0.6,6.9,0,10.5l-7.7,3.2l6.5,15.3l7.7-3.2c2,2.8,4.6,5.5,7.5,7.5
			l0,0l-3.3,7.7l15.3,6.2l3.2-7.7c3.4,0.6,7.1,0.6,10.5,0l3.2,7.7l15.3-6.5l-3.2-7.7l0,0l0,0c2.9-2,5.5-4.6,7.5-7.5l7.7,3.2
			l6.2-15.3l-7.6-3.2l0,0c0-0.4,0.2-0.9,0.2-1.2C296.8,302.6,297,302.4,297,302z M272.6,323.1c-13.5,5.6-29-0.8-34.7-14.3
			s0.8-29.1,14.3-34.7c2.7-1.2,5.4-1.9,8.3-2l0,0c11.1-0.8,22,5.4,26.4,16.3c0.2,0.6,0.6,1.4,0.9,2l0,0c0.6,2,1,4,1.2,6.1v0.2
			c0,1.4,0,2.6,0,3.8v0.2c0,0.6-0.2,1.2-0.2,1.9c0,0,0,0,0,0.2c-0.2,0.6-0.2,1.2-0.4,1.8c0,0,0,0,0,0.2c-0.2,0.6-0.4,1.2-0.6,1.8
			v0.2c-0.4,1.2-0.9,2.4-1.4,3.4c0,0,0,0.2-0.2,0.2c-0.2,0.6-0.6,1-0.8,1.6c0,0,0,0.2-0.2,0.2c-0.2,0.4-0.6,1-1,1.4
			c0,0,0,0.2-0.2,0.2c-0.4,0.4-0.8,1.1-1,1.4c0,0.2-0.2,0.2-0.2,0.4c-0.4,0.4-0.8,0.8-1.2,1.4c0,0,0,0-0.2,0.2
			c-0.4,0.4-0.8,0.8-1.2,1.2C277.9,320.5,275.3,322.1,272.6,323.1z"/>
	</g>
</g>
</svg>
