<?xml version="1.0" encoding="utf-8"?>
<!-- Generator: Adobe Illustrator 16.0.0, SVG Export Plug-In . SVG Version: 6.00 Build 0)  -->
<!DOCTYPE svg PUBLIC "-//W3C//DTD SVG 1.1//EN" "http://www.w3.org/Graphics/SVG/1.1/DTD/svg11.dtd">
<svg version="1.1" id="图层_1" xmlns="http://www.w3.org/2000/svg" xmlns:xlink="http://www.w3.org/1999/xlink" x="0px" y="0px"
	 width="512px" height="512px" viewBox="0 0 512 512" enable-background="new 0 0 512 512" xml:space="preserve">
<polygon opacity="0.08" enable-background="new    " points="68.2,512 68.2,8 451.801,8 451.801,369.913 309.714,512 "/>
<polygon opacity="0.1" enable-background="new    " points="72.2,508 72.2,12 447.801,12 447.801,368.256 308.057,508 "/>
<polygon opacity="0.2" enable-background="new    " points="68.2,504 68.2,8 443.801,8 443.801,364.256 304.058,504 "/>
<polygon fill="#E65100" points="72.199,500 72.199,12 438.793,12 438.793,362.598 301.776,500 "/>
<g>
	<g>
		<g>
			
				<linearGradient id="SVGID_1_" gradientUnits="userSpaceOnUse" x1="297.0959" y1="-149.9001" x2="297.0959" y2="334.0999" gradientTransform="matrix(1 0 0 -1 -41.6001 348.0991)">
				<stop  offset="0" style="stop-color:#EE6F0B"/>
				<stop  offset="1" style="stop-color:#FFB74D"/>
			</linearGradient>
			<polygon fill="url(#SVGID_1_)" points="74.185,498 74.185,14 436.807,14 436.807,361.875 300.682,498 			"/>
		</g>
		<polygon fill="#E65100" fill-opacity="0.3922" points="436.807,361.875 436.807,356.013 293.214,356.013 293.214,498 300.682,498 
					"/>
		<path fill="#FFFFFF" fill-opacity="0.3922" d="M300.462,361.875l136.345,0.189L300.682,498L300.462,361.875z"/>
	</g>
	<g opacity="0.8">
		<rect x="121.388" y="200.321" fill="#FFFFFF" width="38.727" height="194.01"/>
		<rect x="185.921" y="297.121" fill="#FFFFFF" width="38.727" height="96.989"/>
		<rect x="250.266" y="336.635" fill="#FFFFFF" width="38.726" height="58.105"/>
		<g>
			<path fill="#FFFFFF" d="M302.888,166.037l0.41,77.232l77.231-0.409c0.221,42.76-34.283,77.452-77.043,77.642
				c-42.728,0.221-77.421-34.283-77.642-77.012C225.656,200.92,260.128,166.227,302.888,166.037z"/>
			<path fill="#FFFFFF" d="M311.963,157.152c42.76-0.189,77.452,34.284,77.642,77.042l-77.232,0.41L311.963,157.152z"/>
		</g>
	</g>
	<g>
		<rect x="74.091" y="14" opacity="0.8" fill="#FFFFFF" enable-background="new    " width="362.811" height="92.767"/>
		<g enable-background="new    ">
			<path fill="#E64A19" d="M159.957,23.705c1.323,2.3,2.836,5.136,4.569,8.508c1.733,3.372,3.529,7.027,5.388,10.966
				c1.859,3.907,3.718,7.94,5.546,12.037c1.859,4.096,3.561,7.94,5.199,11.596c1.607-3.655,3.34-7.5,5.168-11.596
				c1.828-4.097,3.687-8.13,5.545-12.037c1.891-3.939,3.688-7.594,5.42-10.966c1.702-3.372,3.246-6.208,4.569-8.508h15.566
				c0.725,4.79,1.418,10.178,2.048,16.133c0.63,5.924,1.166,12.132,1.639,18.56c0.473,6.428,0.914,12.888,1.323,19.348
				c0.378,6.459,0.756,12.573,1.04,18.245h-16.701c-0.22-6.996-0.504-14.652-0.851-22.94c-0.378-8.255-0.945-16.637-1.67-25.019
				c-1.323,2.899-2.772,6.145-4.411,9.705c-1.607,3.529-3.214,7.059-4.79,10.619c-1.575,3.561-3.088,6.964-4.568,10.178
				c-1.45,3.214-2.71,5.987-3.75,8.288h-11.942c-1.04-2.3-2.3-5.073-3.75-8.288c-1.481-3.214-2.994-6.617-4.569-10.178
				c-1.607-3.561-3.183-7.09-4.79-10.619c-1.639-3.561-3.088-6.806-4.412-9.705c-0.756,8.382-1.292,16.764-1.67,25.019
				c-0.347,8.288-0.63,15.944-0.851,22.94h-16.7c0.284-5.672,0.63-11.785,1.04-18.245s0.851-12.919,1.324-19.348
				c0.473-6.428,1.008-12.635,1.638-18.56c0.63-5.955,1.292-11.344,2.048-16.133H159.957z"/>
			<path fill="#E64A19" d="M275.348,36.246c-7.972,0-13.738,2.08-17.299,6.302c-3.529,4.223-5.294,9.958-5.294,17.268
				c0,3.529,0.409,6.744,1.292,9.643c0.882,2.899,2.205,5.356,3.938,7.437c1.765,2.111,3.971,3.718,6.617,4.853
				c2.646,1.166,5.703,1.733,9.201,1.733c1.922,0,3.529-0.032,4.916-0.095c1.323-0.063,2.521-0.189,3.561-0.441V57.799h17.109
				v35.796c-2.017,0.756-5.325,1.576-9.862,2.458c-4.569,0.882-10.146,1.323-16.795,1.323c-5.735,0-10.902-0.851-15.566-2.521
				c-4.632-1.67-8.603-4.097-11.911-7.311c-3.276-3.183-5.829-7.122-7.625-11.785s-2.71-9.957-2.71-15.944
				c0-6.05,1.008-11.407,2.993-16.07c1.985-4.663,4.695-8.634,8.099-11.848c3.466-3.214,7.499-5.672,12.163-7.374
				c4.663-1.639,9.579-2.489,14.873-2.489c3.592,0,6.806,0.221,9.705,0.662c2.898,0.473,5.388,1.008,7.499,1.576
				c2.08,0.599,3.781,1.197,5.137,1.828c1.354,0.63,2.331,1.134,2.93,1.449l-4.979,13.045c-2.331-1.166-5.01-2.206-8.066-3.057
				C282.248,36.656,278.94,36.246,275.348,36.246z"/>
			<path fill="#E64A19" d="M338.148,22.885c11.376,0,20.072,1.891,26.154,5.672c6.081,3.781,9.138,10.021,9.138,18.623
				c0,8.697-3.088,14.967-9.264,18.812c-6.113,3.876-14.937,5.798-26.343,5.798h-5.357v24.2h-17.142V24.745
				c3.719-0.693,7.688-1.166,11.849-1.45C331.342,23.012,334.997,22.885,338.148,22.885z M339.282,36.75
				c-1.261,0-2.489,0.032-3.687,0.126c-1.229,0.063-2.237,0.126-3.12,0.189v20.86h5.357c5.924,0,10.398-0.756,13.423-2.3
				c2.962-1.544,4.475-4.38,4.475-8.54c0-2.017-0.378-3.687-1.134-5.01c-0.757-1.323-1.891-2.395-3.309-3.183
				c-1.418-0.819-3.183-1.355-5.199-1.67C344.009,36.908,341.74,36.75,339.282,36.75z"/>
		</g>
	</g>
</g>
</svg>
