<?xml version="1.0" encoding="utf-8"?>
<!-- Generator: Adobe Illustrator 21.0.0, SVG Export Plug-In . SVG Version: 6.00 Build 0)  -->
<svg version="1.1" id="图层_1" xmlns="http://www.w3.org/2000/svg" xmlns:xlink="http://www.w3.org/1999/xlink" x="0px" y="0px"
	 viewBox="0 0 512 512" style="enable-background:new 0 0 512 512;" xml:space="preserve">
<style type="text/css">
	.st0{opacity:0.08;enable-background:new    ;}
	.st1{opacity:0.1;enable-background:new    ;}
	.st2{opacity:0.2;enable-background:new    ;}
	.st3{fill:#455A64;}
	.st4{fill:url(#SVGID_1_);}
	.st5{fill:#455A64;fill-opacity:0.39;}
	.st6{fill:#FFFFFF;fill-opacity:0.39;}
	.st7{opacity:0.8;fill:#FFFFFF;enable-background:new    ;}
</style>
<polygon class="st0" points="68.2,512 68.2,8 451.8,8 451.8,369.9 309.7,512 "/>
<polygon class="st1" points="72.2,508 72.2,12 447.8,12 447.8,368.3 308.1,508 "/>
<polygon class="st2" points="68.2,504 68.2,8 443.8,8 443.8,364.3 304.1,504 "/>
<polygon class="st3" points="72.2,500 72.2,12 438.8,12 438.8,362.6 301.8,500 "/>
<g>
	<g>
		<g>
			
				<linearGradient id="SVGID_1_" gradientUnits="userSpaceOnUse" x1="338.6002" y1="1116.8008" x2="338.6002" y2="1600.8008" gradientTransform="matrix(1 0 0 1 -83.2002 -1102.8008)">
				<stop  offset="0" style="stop-color:#90A4AE"/>
				<stop  offset="0.1378" style="stop-color:#849AA5"/>
				<stop  offset="0.4226" style="stop-color:#708A97"/>
				<stop  offset="0.7096" style="stop-color:#64808E"/>
				<stop  offset="1" style="stop-color:#607D8B"/>
			</linearGradient>
			<polygon class="st4" points="74.1,498 74.1,14 436.7,14 436.7,361.9 300.6,498 			"/>
		</g>
		<polygon class="st5" points="436.7,361.9 436.7,356 293.1,356 293.1,498 300.6,498 		"/>
		<path class="st6" d="M300.4,361.9l136.3,0.2L300.6,498L300.4,361.9z"/>
	</g>
	<path class="st7" d="M346.8,234.4c8.1,0,15.4,3.2,20.6,8.4v-45.3H297c5.2-5.2,8.4-12.8,8.4-20.8c0-16.1-13.1-29.2-29.2-29.2
		S247,160.6,247,176.7c0,8.1,3.2,15.4,8.5,20.8h-70.2v45.6c-5.2-5.3-12.5-8.5-20.6-8.5c-16.1,0-29.2,13.1-29.2,29.3
		c0,16.1,13.1,29.2,29.2,29.2c8.1,0,15.3-3.2,20.6-8.5v45.6h70.4c-5.3-5.2-8.5-12.7-8.5-20.8c0-16.1,13.1-29.2,29.2-29.2
		s29.2,13.1,29.2,29.2c0,8.1-3.2,15.4-8.5,20.8h70.4v-45.6c-5.2,5.2-12.5,8.4-20.6,8.4c-16.1,0-29.2-13.1-29.2-29.2
		C317.5,247.5,330.6,234.4,346.8,234.4z"/>
	<g>
		<rect x="74.1" y="14" class="st7" width="362.8" height="92.8"/>
		<g>
			<path class="st3" d="M226.6,60.3c0,6.2-1,11.6-2.9,16.3s-4.6,8.6-8,11.8c-3.4,3.2-7.4,5.6-12,7.2s-9.7,2.4-15,2.4
				c-5.2,0-10.1-0.8-14.7-2.4c-4.6-1.6-8.6-4-12.1-7.2c-3.4-3.2-6.2-7.1-8.1-11.8c-2-4.7-3-10.1-3-16.3s1-11.6,3.1-16.3
				s4.8-8.6,8.3-11.8s7.5-5.6,12.1-7.2s9.4-2.4,14.4-2.4c5.2,0,10.1,0.8,14.7,2.4c4.6,1.6,8.6,4,12.1,7.2s6.1,7.1,8.1,11.8
				C225.6,48.7,226.6,54.1,226.6,60.3z M168.5,60.3c0,3.5,0.4,6.7,1.4,9.6c0.9,2.8,2.2,5.3,3.9,7.3c1.7,2.1,3.8,3.6,6.3,4.7
				s5.3,1.7,8.6,1.7c3.1,0,6-0.6,8.5-1.7s4.6-2.7,6.4-4.7c1.7-2,3.1-4.5,4-7.3s1.4-6,1.4-9.6s-0.4-6.8-1.4-9.7
				c-0.9-2.9-2.2-5.3-4-7.4c-1.7-2.1-3.8-3.6-6.4-4.7c-2.5-1.1-5.4-1.7-8.5-1.7c-3.2,0-6.1,0.6-8.6,1.7c-2.5,1.1-4.6,2.8-6.3,4.8
				s-3,4.5-3.9,7.4C168.9,53.7,168.5,56.8,168.5,60.3z"/>
			<path class="st3" d="M278.2,96.5c-2.1-4-4.5-8.1-7-12.2c-2.5-4.2-5.5-7.6-8.8-10.5c-1,1.1-2.3,2.6-3.9,4.5s-3.1,3.9-4.7,6.1
				c-1.6,2.1-3.1,4.4-4.4,6.7c-1.4,2.3-2.4,4.1-3.1,5.4h-19.5c3.2-5.6,7-11.5,11.3-17.5c4.4-6,9.2-12.4,14.6-19.2l-24.8-35.6h20.8
				l14.5,20.9L278,24.2h19.5l-24.7,34.9c6.5,7.7,11.8,14.8,16,21.2s7.5,11.8,9.9,16.2H278.2L278.2,96.5z"/>
			<path class="st3" d="M365.7,24.2v13.9h-23v58.4h-17.1V38.1h-22.9V24.2H365.7z"/>
		</g>
	</g>
</g>
</svg>
