<?xml version="1.0" encoding="utf-8"?>
<!-- Generator: Adobe Illustrator 16.0.0, SVG Export Plug-In . SVG Version: 6.00 Build 0)  -->
<!DOCTYPE svg PUBLIC "-//W3C//DTD SVG 1.1//EN" "http://www.w3.org/Graphics/SVG/1.1/DTD/svg11.dtd">
<svg version="1.1" id="图层_1" xmlns="http://www.w3.org/2000/svg" xmlns:xlink="http://www.w3.org/1999/xlink" x="0px" y="0px"
	 width="512px" height="512px" viewBox="0 0 512 512" enable-background="new 0 0 512 512" xml:space="preserve">
<polygon opacity="0.08" enable-background="new    " points="68.2,512 68.2,8 451.801,8 451.801,369.913 309.714,512 "/>
<polygon opacity="0.1" enable-background="new    " points="72.2,508 72.2,12 447.801,12 447.801,368.256 308.057,508 "/>
<polygon opacity="0.2" enable-background="new    " points="68.2,504 68.2,8 443.801,8 443.801,364.256 304.058,504 "/>
<polygon fill="#455A64" points="72.199,500 72.199,12 438.793,12 438.793,362.602 301.778,500 "/>
<g>
	<g>
		<g>
			
				<linearGradient id="SVGID_1_" gradientUnits="userSpaceOnUse" x1="338.6067" y1="838.7996" x2="338.6067" y2="1322.8005" gradientTransform="matrix(1 0 0 1 -83.2002 -824.8008)">
				<stop  offset="0" style="stop-color:#90A4AE"/>
				<stop  offset="0.1378" style="stop-color:#849AA5"/>
				<stop  offset="0.4226" style="stop-color:#708A97"/>
				<stop  offset="0.7096" style="stop-color:#64808E"/>
				<stop  offset="1" style="stop-color:#607D8B"/>
			</linearGradient>
			<polygon fill="url(#SVGID_1_)" points="74.109,498 74.109,14 436.703,14 436.703,361.897 300.602,498 			"/>
		</g>
		<polygon fill="#455A64" fill-opacity="0.39" points="436.703,361.897 436.703,356 293.129,356 293.129,498 300.602,498 		"/>
		<path fill="#FFFFFF" fill-opacity="0.39" d="M300.421,361.897l136.327,0.157L300.602,498L300.421,361.897z"/>
	</g>
	<path opacity="0.8" fill="#FFFFFF" enable-background="new    " d="M346.764,234.427c8.058,0,15.35,3.218,20.572,8.429v-45.318
		h-70.358c5.244-5.245,8.44-12.762,8.44-20.819c0-16.127-13.077-29.226-29.215-29.226c-16.149,0-29.249,13.099-29.249,29.226
		c0,8.058,3.207,15.373,8.452,20.819h-70.178v45.566c-5.233-5.278-12.503-8.508-20.561-8.508c-16.127,0-29.226,13.111-29.226,29.26
		c0,16.138,13.099,29.236,29.226,29.236c8.058,0,15.328-3.195,20.605-8.508v45.601h70.358c-5.256-5.244-8.474-12.717-8.474-20.774
		c0-16.138,13.077-29.237,29.248-29.237c16.116,0,29.215,13.1,29.215,29.237c0,8.058-3.241,15.35-8.485,20.797h70.381v-45.555
		c-5.222,5.244-12.514,8.439-20.572,8.439c-16.115,0-29.191-13.099-29.191-29.236C317.527,247.526,330.626,234.427,346.764,234.427z
		"/>
	<g>
		<rect x="74.109" y="14" opacity="0.8" fill="#FFFFFF" width="362.775" height="92.765"/>
		<g>
			<path fill="#455A64" d="M226.552,60.331c0,6.189-0.968,11.614-2.904,16.307c-1.947,4.715-4.603,8.632-7.967,11.794
				c-3.365,3.162-7.383,5.559-12.019,7.157c-4.648,1.587-9.656,2.386-14.99,2.386c-5.21,0-10.106-0.799-14.72-2.386
				c-4.603-1.598-8.643-3.995-12.075-7.157c-3.444-3.162-6.156-7.079-8.137-11.794c-1.969-4.693-2.959-10.117-2.959-16.307
				c0-6.201,1.024-11.647,3.072-16.34s4.816-8.643,8.294-11.839c3.478-3.196,7.506-5.604,12.086-7.203
				c4.558-1.598,9.386-2.397,14.438-2.397c5.188,0,10.095,0.799,14.708,2.397c4.614,1.598,8.632,4.006,12.076,7.203
				c3.455,3.196,6.145,7.146,8.136,11.839C225.573,48.684,226.552,54.131,226.552,60.331z M168.471,60.331
				c0,3.545,0.45,6.741,1.362,9.588c0.911,2.847,2.228,5.3,3.95,7.349c1.722,2.059,3.826,3.646,6.325,4.738
				c2.476,1.125,5.334,1.688,8.564,1.688c3.14,0,5.976-0.563,8.508-1.688c2.521-1.092,4.648-2.679,6.358-4.738
				c1.722-2.048,3.05-4.501,3.961-7.349c0.923-2.847,1.373-6.043,1.373-9.588c0-3.556-0.45-6.775-1.373-9.667
				c-0.912-2.881-2.24-5.345-3.961-7.394c-1.71-2.06-3.837-3.646-6.358-4.749c-2.532-1.114-5.368-1.677-8.508-1.677
				c-3.229,0-6.088,0.585-8.564,1.722c-2.499,1.148-4.603,2.757-6.325,4.805c-1.722,2.048-3.039,4.524-3.95,7.405
				C168.922,53.669,168.471,56.843,168.471,60.331z"/>
			<path fill="#455A64" d="M278.206,96.523c-2.138-4.04-4.479-8.114-7.045-12.233c-2.543-4.152-5.47-7.63-8.778-10.477
				c-1.023,1.069-2.318,2.566-3.893,4.479c-1.576,1.913-3.129,3.95-4.705,6.111c-1.564,2.138-3.05,4.366-4.412,6.673
				c-1.373,2.318-2.397,4.119-3.061,5.447h-19.548c3.208-5.649,6.978-11.479,11.344-17.5c4.355-5.987,9.217-12.39,14.585-19.154
				l-24.826-35.641h20.752l14.495,20.932l14.82-20.932h19.537l-24.691,34.887c6.46,7.72,11.795,14.787,15.98,21.213
				c4.209,6.415,7.495,11.816,9.926,16.194H278.206z"/>
			<path fill="#455A64" d="M365.67,24.229v13.865h-22.957v58.429h-17.129V38.094H302.65V24.229H365.67z"/>
		</g>
	</g>
</g>
</svg>
