<?xml version="1.0" encoding="utf-8"?>
<!-- Generator: Adobe Illustrator 16.0.0, SVG Export Plug-In . SVG Version: 6.00 Build 0)  -->
<!DOCTYPE svg PUBLIC "-//W3C//DTD SVG 1.1//EN" "http://www.w3.org/Graphics/SVG/1.1/DTD/svg11.dtd">
<svg version="1.1" id="图层_1" xmlns="http://www.w3.org/2000/svg" xmlns:xlink="http://www.w3.org/1999/xlink" x="0px" y="0px"
	 width="512px" height="512px" viewBox="0 0 512 512" enable-background="new 0 0 512 512" xml:space="preserve">
<polygon opacity="0.08" enable-background="new    " points="68.2,512 68.2,8 451.801,8 451.801,369.913 309.714,512 "/>
<polygon opacity="0.1" enable-background="new    " points="72.2,508 72.2,12 447.801,12 447.801,368.256 308.057,508 "/>
<polygon opacity="0.2" enable-background="new    " points="68.2,504 68.2,8 443.801,8 443.801,364.256 304.058,504 "/>
<polygon fill="#212121" points="72.199,500 72.199,12 438.793,12 438.793,362.597 301.776,500 "/>
<g>
	<g>
		<g>
			<g>
				<linearGradient id="SVGID_1_" gradientUnits="userSpaceOnUse" x1="255.4807" y1="497.9998" x2="255.4807" y2="14.0002">
					<stop  offset="0" style="stop-color:#616161"/>
					<stop  offset="1" style="stop-color:#90A4AE"/>
				</linearGradient>
				<polygon fill="url(#SVGID_1_)" points="74.17,498 74.17,14 436.791,14 436.791,361.875 300.666,498 				"/>
			</g>
			<polygon fill="#9E9E9E" fill-opacity="0.39" points="436.791,361.875 436.791,356.013 293.198,356.013 293.198,498 300.666,498 
							"/>
			<path fill="#FFFFFF" fill-opacity="0.3922" d="M300.477,361.875l136.346,0.189L300.666,498L300.477,361.875z"/>
		</g>
	</g>
	<g opacity="0.8">
		<path fill="#FFFFFF" d="M275.836,328.978c-15.156,0-28.958-2.27-41.404-6.869c-12.447-4.664-23.129-11.407-32.078-20.23
			c-8.886-8.886-15.818-19.789-20.671-32.787c-4.884-13.013-7.311-27.886-7.311-44.634c0-16.748,2.741-31.621,8.256-44.619
			c5.483-12.998,12.919-23.932,22.246-32.787s20.23-15.598,32.677-20.214s25.744-6.933,39.797-6.933
			c8.948,0,17.016,0.583,24.137,1.733c7.185,1.15,13.36,2.505,18.654,4.049s9.642,3.072,12.919,4.616
			c3.34,1.544,5.609,2.694,6.869,3.466l-8.696,23.097c-1.891-1.15-4.601-2.395-8.13-3.75c-3.529-1.339-7.5-2.694-11.974-4.033
			c-4.475-1.355-9.327-2.458-14.621-3.324s-10.65-1.308-16.008-1.308c-11.406,0-21.679,1.843-30.816,5.499
			c-9.139,3.655-16.89,8.949-23.318,15.881c-6.459,6.932-11.406,15.345-14.81,25.271c-3.403,9.91-5.137,21.033-5.137,33.354
			c0,11.942,1.513,22.813,4.507,32.629c3.024,9.831,7.53,18.261,13.549,25.256c6.019,7.058,13.55,12.478,22.562,16.322
			s19.537,5.798,31.573,5.798c13.928,0,25.397-1.323,34.536-4.033c9.138-2.71,16.007-5.105,20.545-7.248l7.814,23.129
			c-1.45,0.945-4.033,2.143-7.814,3.592c-3.719,1.45-8.382,2.836-13.991,4.223c-5.608,1.324-12.163,2.458-19.6,3.467
			C292.6,328.537,284.533,328.978,275.836,328.978z"/>
	</g>
</g>
</svg>
