<?xml version="1.0" encoding="utf-8"?>
<!-- Generator: Adobe Illustrator 21.0.0, SVG Export Plug-In . SVG Version: 6.00 Build 0)  -->
<svg version="1.1" id="图层_1" xmlns="http://www.w3.org/2000/svg" xmlns:xlink="http://www.w3.org/1999/xlink" x="0px" y="0px"
	 viewBox="0 0 512 512" style="enable-background:new 0 0 512 512;" xml:space="preserve">
<style type="text/css">
	.st0{opacity:0.08;enable-background:new    ;}
	.st1{opacity:0.1;enable-background:new    ;}
	.st2{opacity:0.2;enable-background:new    ;}
	.st3{fill:#445962;}
	.st4{fill:url(#SVGID_1_);}
	.st5{fill:#455963;fill-opacity:0.7;}
	.st6{fill:#8DA1AC;}
	.st7{fill:#607D8B;}
</style>
<polygon class="st0" points="68.2,512 68.2,8 451.8,8 451.8,369.9 309.7,512 "/>
<polygon class="st1" points="72.2,508 72.2,12 447.8,12 447.8,368.3 308.1,508 "/>
<polygon class="st2" points="68.2,504 68.2,8 443.8,8 443.8,364.3 304.1,504 "/>
<g>
	<polygon class="st3" points="72.2,500 72.2,12 438.8,12 438.8,362.8 301.2,500 	"/>
</g>
<g>
	<g>
		<g>
			<g>
				<g>
					<g>
						<g>
							<g>
								
									<linearGradient id="SVGID_1_" gradientUnits="userSpaceOnUse" x1="380.2998" y1="1535.7012" x2="380.2998" y2="2019.7012" gradientTransform="matrix(1 0 0 1 -124.7998 -1521.7012)">
									<stop  offset="0" style="stop-color:#F6F5F5"/>
									<stop  offset="0.341" style="stop-color:#F1F2F3"/>
									<stop  offset="0.6434" style="stop-color:#E7EAEB"/>
									<stop  offset="0.9302" style="stop-color:#D5DBDF"/>
									<stop  offset="1" style="stop-color:#CFD7DB"/>
								</linearGradient>
								<polygon class="st4" points="74.2,498 74.2,14 436.8,14 436.8,361.9 300.7,498 								"/>
							</g>
							<polygon class="st5" points="436.8,361.9 436.8,356 293.2,356 293.2,498 300.7,498 							"/>
							<path class="st6" d="M300.5,361.9l136.3,0.2L300.7,498L300.5,361.9z"/>
						</g>
					</g>
				</g>
			</g>
		</g>
	</g>
	<g>
		<path class="st7" d="M355.2,207.2c0,16.5-2.7,31.4-8.1,44.5c-5.5,13.1-12.7,24.2-21.9,33.2c-9.1,9-19.7,15.9-31.8,20.7
			c-12,4.8-24.6,7.2-37.9,7.2c-13.2,0-25.9-2.4-37.9-7.2c-12.1-4.8-22.7-11.7-31.8-20.7s-16.4-20.1-21.9-33.2
			c-5.5-13.1-8.2-28-8.2-44.5s2.7-31.3,8.2-44.5c5.5-13.1,12.7-24.2,21.9-33.2c9.1-9,19.7-15.9,31.8-20.7c12-4.8,24.7-7.2,37.9-7.2
			c13.2,0,25.8,2.4,37.9,7.2c12.1,4.7,22.7,11.7,31.8,20.7c9.1,9.1,16.4,20.1,21.9,33.2C352.5,175.8,355.2,190.6,355.2,207.2z
			 M333.9,207.2c0-12.8-1.9-24.5-5.8-35.1c-3.9-10.6-9.3-19.7-16.2-27.3c-6.9-7.6-15.1-13.4-24.8-17.5c-9.6-4.1-20.2-6.1-31.6-6.1
			c-11.5,0-22,2.1-31.6,6.1c-9.6,4.1-17.9,9.9-24.8,17.5c-6.9,7.6-12.3,16.7-16.2,27.3s-5.8,22.3-5.8,35.1c0,12.9,1.9,24.5,5.8,35.1
			c3.9,10.6,9.3,19.7,16.2,27.3c6.9,7.6,15.2,13.4,24.8,17.5s20.2,6.1,31.6,6.1c11.4,0,22-2,31.6-6.1s17.9-9.9,24.8-17.5
			s12.3-16.7,16.2-27.3C332,231.7,333.9,220,333.9,207.2z"/>
		<g>
			<path class="st7" d="M268.2,269.2h-25.5v-88.4h25.5V269.2z"/>
		</g>
		<path class="st7" d="M270.4,156.9c0,8.2-6.6,14.9-14.9,14.9c-8.2,0-14.9-6.6-14.9-14.9c0-8.2,6.6-14.9,14.9-14.9
			C263.7,142.1,270.4,148.7,270.4,156.9z"/>
	</g>
</g>
</svg>
