<?xml version="1.0" encoding="utf-8"?>
<!-- Generator: Adobe Illustrator 16.0.0, SVG Export Plug-In . SVG Version: 6.00 Build 0)  -->
<!DOCTYPE svg PUBLIC "-//W3C//DTD SVG 1.1//EN" "http://www.w3.org/Graphics/SVG/1.1/DTD/svg11.dtd">
<svg version="1.1" id="图层_1" xmlns="http://www.w3.org/2000/svg" xmlns:xlink="http://www.w3.org/1999/xlink" x="0px" y="0px"
	 width="512px" height="512px" viewBox="0 0 512 512" enable-background="new 0 0 512 512" xml:space="preserve">
<g id="surface1">
	<polygon opacity="0.2" enable-background="new    " points="69,504 69,8 443,8 443,364.407 303.406,504 	"/>
	<polygon opacity="0.08" enable-background="new    " points="69,512 69,8 451,8 451,370.064 309.065,512 	"/>
	<polygon opacity="0.1" enable-background="new    " points="73,508 73,12 447,12 447,368.407 307.406,508 	"/>
</g>
<linearGradient id="SVGID_1_" gradientUnits="userSpaceOnUse" x1="464.0012" y1="-1705.9512" x2="464.0012" y2="-1217.9512" gradientTransform="matrix(1 0 0 -1 -208.0005 -1205.9512)">
	<stop  offset="0" style="stop-color:#3F51B5"/>
	<stop  offset="0.258" style="stop-color:#4355B7"/>
	<stop  offset="0.5253" style="stop-color:#5060BB"/>
	<stop  offset="0.7959" style="stop-color:#6473C3"/>
	<stop  offset="1" style="stop-color:#7986CB"/>
</linearGradient>
<path fill="url(#SVGID_1_)" d="M301.75,500L439,362.75V12H73v488H301.75z"/>
<polygon fill="#311B92" fill-opacity="0.3922" points="294.125,355.125 294.125,500 301.75,500 439,362.75 439,355.125 "/>
<path fill="#FFFFFF" fill-opacity="0.3922" d="M301.75,362.75h137.135L301.75,500V362.75z"/>
<g>
	<path fill="#311B92" d="M437,14v347.922L300.922,498H195H75V14H437 M439,12H73v488h122h106.75L439,362.75V12L439,12z"/>
</g>
<g opacity="0.8">
	<path fill="#FFFFFF" d="M258.202,102.974c-8.278,0.058-16.261,0.715-23.229,1.906c-20.435,3.574-24.781,4.646-24.781,18.405v30.5
		h50.869v10.188h-71.246c-13.997,0-23.171,8.578-26.983,24.485c-4.47,18.225-4.646,29.547,0,48.609
		c3.394,14.116,12.986,28.594,26.983,28.594h10.188v-30.5c0-15.792,14.178-30.5,30.5-30.5h50.869
		c13.467,0,20.377-6.968,20.377-20.377v-50.812c0-12.986-5.357-26.449-18.471-28.594
		C275.005,103.508,266.427,102.917,258.202,102.974z M240.693,123.286c5.657,0,10.185,4.589,10.185,10.188
		s-4.527,10.188-10.185,10.188c-5.604,0-10.188-4.589-10.188-10.188S235.089,123.286,240.693,123.286z"/>
	<path fill="#FFFFFF" d="M253.798,316.475c8.282-0.058,16.261-0.715,23.229-1.906c20.435-3.574,24.781-4.651,24.781-18.405v-30.5
		h-50.869v-10.189h71.246c13.993,0,23.171-8.578,26.983-24.485c4.47-18.225,4.643-29.547,0-48.609
		c-3.394-14.116-12.99-28.594-26.983-28.594h-10.188v30.5c0,15.792-14.174,30.5-30.5,30.5h-50.873
		c-13.463,0-20.373,6.968-20.373,20.377v50.812c0,12.981,5.361,26.449,18.467,28.594
		C236.995,315.94,245.573,316.531,253.798,316.475z M271.308,296.163c-5.661,0-10.181-4.585-10.181-10.188
		c0-5.604,4.52-10.189,10.181-10.189c5.604,0,10.188,4.585,10.188,10.189C281.496,291.578,276.911,296.163,271.308,296.163z"/>
</g>
</svg>
