<?xml version="1.0" encoding="utf-8"?>
<!-- Generator: Adobe Illustrator 21.0.0, SVG Export Plug-In . SVG Version: 6.00 Build 0)  -->
<svg version="1.1" id="图层_1" xmlns="http://www.w3.org/2000/svg" xmlns:xlink="http://www.w3.org/1999/xlink" x="0px" y="0px"
	 viewBox="0 0 512 512" style="enable-background:new 0 0 512 512;" xml:space="preserve">
<style type="text/css">
	.st0{opacity:0.08;enable-background:new    ;}
	.st1{opacity:0.1;enable-background:new    ;}
	.st2{opacity:0.2;enable-background:new    ;}
	.st3{fill:#212121;}
	.st4{fill:url(#SVGID_1_);}
	.st5{fill:#9E9E9E;fill-opacity:0.39;}
	.st6{fill:#FFFFFF;fill-opacity:0.3922;}
	.st7{opacity:0.8;}
	.st8{fill:#FFFFFF;}
</style>
<polygon class="st0" points="68.2,512 68.2,8 451.8,8 451.8,369.9 309.7,512 "/>
<polygon class="st1" points="72.2,508 72.2,12 447.8,12 447.8,368.3 308.1,508 "/>
<polygon class="st2" points="68.2,504 68.2,8 443.8,8 443.8,364.3 304.1,504 "/>
<polygon class="st3" points="72.2,500 72.2,12 438.8,12 438.8,362.6 301.8,500 "/>
<g>
	<g>
		<g>
			<g>
				
					<linearGradient id="SVGID_1_" gradientUnits="userSpaceOnUse" x1="255.5" y1="776" x2="255.5" y2="292" gradientTransform="matrix(1 0 0 1 0 -278)">
					<stop  offset="0" style="stop-color:#616161"/>
					<stop  offset="1" style="stop-color:#90A4AE"/>
				</linearGradient>
				<polygon class="st4" points="74.2,498 74.2,14 436.8,14 436.8,361.9 300.7,498 				"/>
			</g>
			<polygon class="st5" points="436.8,361.9 436.8,356 293.2,356 293.2,498 300.7,498 			"/>
			<path class="st6" d="M300.5,361.9l136.3,0.2L300.7,498L300.5,361.9z"/>
		</g>
	</g>
	<g>
		<g>
			<g class="st7">
				<path class="st8" d="M179.8,301.8c-11.3,0-21.6-1.7-30.8-5.2c-9.3-3.5-17.2-8.4-23.9-15.1c-6.6-6.6-11.8-14.7-15.4-24.4
					c-3.7-9.7-5.5-20.8-5.5-33.2c0-12.5,2.1-23.6,6.1-33.2c4.1-9.7,9.6-17.8,16.6-24.4c7-6.6,15.1-11.6,24.4-15
					c9.3-3.5,19.2-5.2,29.6-5.2c6.7,0,12.7,0.4,18,1.3c5.4,0.9,9.9,1.9,13.9,3c3.9,1.2,7.2,2.3,9.6,3.4c2.5,1.2,4.2,2,5.1,2.6
					l-6.5,17.2c-1.4-0.9-3.4-1.8-6.1-2.8c-2.6-1-5.5-2-8.9-3c-3.3-1-7-1.8-10.9-2.5s-7.9-1-11.9-1c-8.5,0-16.1,1.4-22.9,4.1
					c-6.8,2.7-12.6,6.7-17.4,11.8c-4.8,5.2-8.4,11.4-11,18.8c-2.6,7.4-3.8,15.7-3.8,24.8c0,8.9,1.1,17,3.4,24.3
					c2.2,7.3,5.6,13.6,10.1,18.8c4.5,5.3,10.1,9.3,16.8,12.2c6.7,2.8,14.6,4.3,23.5,4.3c10.4,0,18.9-0.9,25.7-3
					c6.8-2,11.9-3.8,15.3-5.4l5.9,17.2c-1.1,0.7-3,1.6-5.9,2.6c-2.7,1.1-6.2,2.1-10.4,3.1s-9.1,1.8-14.6,2.6
					C192.2,301.5,186.3,301.8,179.8,301.8z"/>
			</g>
		</g>
		<g class="st7">
			<path class="st8" d="M215.9,216h37.8v-41.2h16V216h37.9v15.8h-37.9v41.4h-16v-41.4h-37.8L215.9,216L215.9,216z"/>
			<path class="st8" d="M315,216h37.9v-41.2h16V216h37.9v15.8h-37.9v41.4h-16v-41.4H315V216z"/>
		</g>
	</g>
</g>
</svg>
