<?xml version="1.0" encoding="utf-8"?>
<!-- Generator: Adobe Illustrator 16.0.0, SVG Export Plug-In . SVG Version: 6.00 Build 0)  -->
<!DOCTYPE svg PUBLIC "-//W3C//DTD SVG 1.1//EN" "http://www.w3.org/Graphics/SVG/1.1/DTD/svg11.dtd">
<svg version="1.1" id="图层_1" xmlns="http://www.w3.org/2000/svg" xmlns:xlink="http://www.w3.org/1999/xlink" x="0px" y="0px"
	 width="512px" height="512px" viewBox="0 0 512 512" enable-background="new 0 0 512 512" xml:space="preserve">
<polygon opacity="0.08" enable-background="new    " points="68.2,512 68.2,8 451.801,8 451.801,369.913 309.714,512 "/>
<polygon opacity="0.1" enable-background="new    " points="72.2,508 72.2,12 447.801,12 447.801,368.256 308.057,508 "/>
<polygon opacity="0.2" enable-background="new    " points="68.2,504 68.2,8 443.801,8 443.801,364.256 304.058,504 "/>
<polygon fill="#0D47A1" points="72.199,500 72.199,12 438.793,12 438.793,362.62 301.754,500 "/>
<g>
	<g>
		<g>
			
				<linearGradient id="SVGID_1_" gradientUnits="userSpaceOnUse" x1="338.6965" y1="1314.8005" x2="338.6965" y2="830.8005" gradientTransform="matrix(1 0 0 1 -83.2002 -816.8008)">
				<stop  offset="0" style="stop-color:#1976D2"/>
				<stop  offset="0.0226" style="stop-color:#1C79D3"/>
				<stop  offset="0.2859" style="stop-color:#3B93E2"/>
				<stop  offset="0.5416" style="stop-color:#52A6ED"/>
				<stop  offset="0.7843" style="stop-color:#5FB1F4"/>
				<stop  offset="1" style="stop-color:#64B5F6"/>
			</linearGradient>
			<polygon fill="url(#SVGID_1_)" points="74.176,498 74.176,14 436.817,14 436.817,361.875 300.692,498 			"/>
		</g>
		<polygon fill="#0D47A1" fill-opacity="0.39" points="436.817,361.875 436.817,356.023 293.219,356.023 293.219,498 300.692,498 		
			"/>
		<path fill="#FFFFFF" fill-opacity="0.45" d="M300.466,361.875l136.351,0.18L300.692,498L300.466,361.875z"/>
	</g>
	<path fill="#64B5F6" d="M381.537,219.696c0,69.57-56.448,126.064-126.041,126.064c-69.582,0-126.053-56.494-126.053-126.064
		c0-69.582,56.471-126.042,126.053-126.042C325.089,93.654,381.537,150.114,381.537,219.696z"/>
	<path fill="#FFFFFF" fill-opacity="0.8" d="M172.804,124.725c0,0,2.6,1.373,3.612,3.612c0.833,2.217,3.624,2.217,3.624,2.217h4.028
		l5.875-1.801l-1.396,3.23c0,0-30.869,14.303-24.623,22.789c6.268,8.485,4.063,10.668,4.063,13.324c0,2.6,1.822,0.394,1.822,0.394
		l1.79-4.839l2.61-3.624l2.6-4.029l0.833-2.239l3.635-6.246l4.435-2.622l4.028,2.622c0,0,1.801,0.788,1.407,2.217
		c-0.395,1.407-0.788,4.006-0.788,4.006s0.788,1.846,2.217,1.846c1.43,0,3.624-1.43,3.624-1.43l1.812,3.23l1.43,5.852l3.623,3.612
		l1.846,4.04l-1.846,3.613l1.846,1.429l4.029,4.456l0.787,2.206l-6.662-0.394c0,0-0.81-1.812-2.217-1.812
		c-1.429,0-7.045-0.416-7.045-0.416l-3.252,0.799l-1.801,2.217c0,0-2.262,3.613-3.669,3.613c-1.384,0-4.816-0.777-4.816-0.777
		s-2.6-0.81-4.006,1.801c-1.43,2.645,2.194,4.029,2.194,4.029l-6.246,1.846l-1.846,0.821c0,0-4.434,1.801-4.434,3.208
		s0,1.429,0,1.429l-1.373,3.601v2.206l-3.253,2.656l-3.229,2.206l-1.429,2.633v4.445c0,0-0.417,2.217-0.417,3.624
		c0,1.407,0,4.862,0,4.862s-1.384,1.384-2.16-1.452c-0.811-2.611-0.811-2.611-0.811-2.611l-1.43-3.241c0,0,1.43-0.394-0.394-1.8
		c-1.823-1.43-3.635-1.823-3.635-1.823s-0.788-0.788-2.634-0.788c-1.767,0,2.263,0.394-1.767,0
		c-4.063-0.405-4.063-0.405-4.063-0.405l-3.252,2.6v2.217c0,0-0.777,15.755,3.623,17.95h1.823l2.645-4.029l2.239,0.799v1.801
		l-0.416,3.252v1.789l2.217,2.24l1.43,4.063c1.812,3.196,0.799,4.029,2.205,4.816c1.43,0.799,2.634,3.241,2.634,3.241l1.789,0.788
		c0,0,1.43,0.417,2.611,0.833c1.429,0.417,1.429,0.417,1.429,0.417l0.439,2.003l0.416,1.587l1.789,2.217c0,0-1.406,0,1.823,0
		c3.23,0,3.23,0,3.23,0s0,0.821,2.228,1.846c2.218,0.776,0.417,0.417,2.218,0.776c1.822,0.416,4.861,0.811,4.861,0.811
		c3.207-0.416,3.207-0.416,3.207-0.416l2.262,3.264c0,0,1.373,0,1.79,1.395c0.416,1.441-2.206,0,0.416,1.441
		c2.634,1.418,0,0.404,2.611,1.418c2.6,1.012-0.788,0.787,2.6,0.787c3.432,0,4.028,0,5.436,0.405
		c1.429,0.405,2.262,3.646,2.262,3.646c2.6,3.242,2.6,3.242,2.6,3.242l0.416,4.006c0,0-1.429,0.855,1.801,0.855
		c3.252,0,0.833,0,3.252,0c2.42,0-0.416-0.855,2.206,0c2.634,0.766,2.634,0.766,2.634,0.766s4.028,3.24,5.436,3.24
		c1.406,0,4.04-0.404,5.446,0c1.43,0.405,2.206,2.611,4.816,3.241c2.646,0.405,3.658,0,5.436,1.44
		c1.846,1.418,1.846,1.418,1.846,1.418l0.417,4.816l-1.43,2.589l-3.623,1.44l-0.417,4.457l-1.846,4.41v2.207
		c0,0,2.263,1.846-1.767,2.25c-4.063,0.405-4.063,0.405-4.063,0.405l-1.823,1.801c0,0,0,0.45-0.799,1.845
		c-0.788,1.396-1.801,3.625-1.801,3.625l0.416,4.028v2.61l-1.429,2.206c0,0-1.227,0.63,2.217,2.836
		c3.612,2.206,6.448,2.206,7.281,3.624c0.776,1.418,3.016,2.588,3.016,2.588l-4.906-1.08l-3.016-0.99l-5.054-1.396l-9.678-5.042
		c0,0-14.518-11.929-18.974-21.607c0,0-3.804-5.627-10.252-8.057c0,0-15.947-14.541-17.376-18.164l-0.574-2.408v-1.215l-0.607-0.631
		v-1.373l-0.417-1.013l0.236-4.411l0.181-3.062l0.214-1.575l-0.214-1.261c0,0-0.799-0.765-0.799-1.013
		c0-0.18-0.608-2.025-0.608-2.025l-0.18-0.574l2.42-2.025l-0.619-1.823l0.416-1.013l1.43-0.99c0,0,0.799-1.227,0.799-1.407
		c0-0.416-1.43-1.429-1.43-1.429l-0.618,0.225l-0.619,1.801h-0.811c0,0-0.833-0.416-0.833-0.574c0-0.236-0.776-1.013-0.776-1.013
		l-1.013-0.417c0,0-0.811-0.225-1.002-0.596c-0.225-0.417-1.237-0.99-1.237-1.227c0-0.18-0.788-1.429-0.788-1.429l-1.013-0.394
		c0,0-1.216-1.823-1.216-2.251c0-0.191-0.607-1.182-0.607-1.182s-1.429-1.609-1.429-1.845c0-0.18-0.597-1.587-0.597-1.587h-0.99
		l-2.184-0.811l-1.429-1.789l-1.621-1.801c0,0-0.799-1.452-0.799-1.8c0-0.417-0.607-0.833-0.607-0.833h-1.036h-0.573l-1.43-1.193
		l-3.623-5.053l-0.619-2.251l-0.597-2.397l-0.416-4.04v-2.6l-1.587-18.76C129.634,203.749,135.07,157.384,172.804,124.725z"/>
	<path fill="#FFFFFF" fill-opacity="0.8" d="M315.209,108.981l4.028,3.252l2.025,0.99l1.396,1.609l0.225,1.609
		c0,0,0.406,1.621,0.226,2.003c-0.226,0.394-0.45,2.611-0.45,2.611s1.846,3.252,1.846,3.669c0,0.383,0.18,2.206-0.225,2.622
		c-0.406,0.191-2.611,1.587-2.836,0.99c-0.181-0.596-1.576-2.003-1.98-2.003c-0.451-0.236-1.621-1.429-1.621-1.429l3.241-0.417
		l-0.428-2.026c0,0-2.229-0.788-2.813-0.788c-0.586-0.203-2.836-1.429-2.836-1.429l-2.431-0.597c0,0-4.007-0.99-4.39-1.227
		c-0.428-0.18-2.003-0.776-2.003-0.776h-3.443c0,0-1.644,0.776-2.003,1.193c-0.226,0.417-2.251,2.633-2.251,2.633
		s-0.181,2.6-0.181,3.016s-0.607,1.429-0.607,2.6c0,1.227-0.247,2.836-0.247,3.252c0,0.416,0,1.013,0,1.013l-0.405,1.801
		l-1.373,0.81l-1.846,1.429c0,0-1.598,1.193-1.598,1.609s0,2.003,0.607,3.23c0.563,1.215,0.428,2.419,1.193,3.016
		c0.81,0.63,1.215,1.429,1.822,1.643c0.607,0.18,0.181,0.383,1.193,0.383c0.832,0,1.643,0.214,2.025-0.18
		c0.428-0.18,1.44-0.18,1.846-0.833c0.405-0.597-0.428-0.18,0.405-0.597c0.765-0.18,0.765-0.788,1.418-0.18
		c0.788,0.597,1.418,1.429,1.62,1.79c0.181,0.417,0.788,1.429,1.418,2.014c0.788,0.417,1.441,2.003,1.441,2.003l1.192,1.215
		c0,0,0.202,0.191,1.013,0.191s2.025-0.191,2.025-0.191l0.405-0.799c0,0,0.766,0.203,0.991-0.191
		c0.225-0.417,0.225-1.013,0.225-1.013s-0.45-1.216-0.788-1.609c-0.226-0.417-0.607-1.429-0.607-1.429l0.18-1.429l0.811-0.811
		l0.226-1.013v-1.148l-0.924-0.417l-1.418-0.81c0,0-0.765,0.191-0.765-0.833c-0.226-0.799-0.226-0.799-0.226-0.799l-1.801-0.394
		l-1.237-0.619l1.418-1.013c0.81-1.384,0.99-1.8,0.99-2.217s-0.181-1.587-0.181-1.587s-0.81-0.236-0.81-1.249
		c-0.181-0.99-0.181-1.587-0.181-1.587l0.181-0.788c0,0,0.226-0.619,0.81-0.619c0.428,0,1.216,0.619,1.599,0.619
		c0.428,0,1.237,0.18,1.237,0.18s0.406,0.191,0.406,0.833c0,0.394-0.226,1.384-0.226,1.384l0.811-1.204v1.44l-0.202,1.609v1.609
		l0.81,1.598l0.788,1.238c0,0,1.013,0.99,1.44,1.429c0.405,0.157,1.396,0.968,1.396,0.968l1.215,0.596l0.811,0.191l0.787-0.788
		c0,0,1.418,0.191,1.418-0.203c0.226-0.417,0.226-0.417,0.226-0.417s1.599-0.191,2.026-0.191c0.382,0,1.215,0,1.215,0
		s0.585,1.205,0.18,1.205c-0.404,0-0.585,0.416-1.575,0.833c-1.035,0.18-1.44,0-1.62,0.405c-0.181,0.417-0.811,1.44-0.811,1.44
		l0.766,0.158h0.585l0.81,0.833c0,0,0.226,0.18,0,0.776c-0.225,0.597,0.788,0.417-0.225,0.597c-1.215,0.214-1.778-0.18-1.778-0.18
		s-0.225-1.013-0.833-0.596c-0.404,0.416-0.585,1.429-0.585,1.429v1.384l0.811,2.003c0,0,0.405,0.417,0,0.619
		c-0.405,0.18-1.801,1.8-1.801,1.8s-0.226,0.597-0.854,0.597c-0.361,0-0.991,0-1.981,0.236c-0.81,0.18-0.81,0.18-1.62,0.405
		c-0.788,0.191-1.441,0.394-2.611,0.608c-1.193,0.18-3.421,0.18-4.209,0.18c-0.832,0-1.013,0-1.418-0.18
		c-0.449-0.214-0.247,0-0.855-0.833c-0.563-0.788-1.192-1.43-1.192-2.003c0-0.417,0-0.608-0.226-1.429
		c-0.202-0.788-0.202-1.384-0.787-1.384c-0.811,0-0.811,0-0.811,0s-1.621,1.193-1.418,1.609c0.225,0.417-0.203,0,1.215,0.99
		c1.418,1.024,1.801,2.419,1.801,2.419l-0.202,1.384l-2.589,1.429l-1.846,0.608l-0.156,1.215c0,0,0,0.417-0.406,0.99
		c-0.428,0.574-1.439,1.429-1.439,1.429s-0.811,0.214-0.99,0.811c-0.181,0.416-0.811,2.003-0.811,2.003s-0.766-0.191-1.621,0.417
		c-0.766,0.596,0.225,0.596-1.575,1.429C290,165.441,290,165.441,290,165.441l-2.025-0.18l-1.238,0.394c0,0-1.598,0.18-1.801,0.597
		c-0.225,0.416-1.035,1.586-1.035,1.586s-0.383,0.833,0,0.833c0.428,0.191,1.035,0,2.025,0.191c0.811,0.225,0.99,0.225,1.621,0.596
		c0.607,0.225,1.215,0.822,1.215,0.822l2.206,2.014l1.237,2.622l-0.225,2.003l-2.408,0.833c0,0-1.418,0-2.025,0
		c-0.405,0-0.225,0-2.611,0c-2.408,0-2.836,0-3.24,0c-0.406,0-2.026-0.225-2.026-0.225l-1.44,0.225l-0.99,0.811l-0.563,0.203
		c0,0,0.811,1.8,0.811,2.419c0,0.596,0,1.384,0,1.384l-0.248,1.227l-0.563,1.429l-0.833,1.373l0.226,0.833
		c0,0-0.226,0.608,0.225,0.608c0.405,0,1.576-0.191,1.576,0.225c0,0.394-0.991,2.003-0.991,2.003l2.026,0.394
		c0,0-0.226-0.191,0.99,0.203c1.215,0.191,2.025,0.607,2.025,0.607l1.418,0.991l0.428,0.821l0.428-0.821
		c0,0,2.205-0.191,2.588-0.417c0.428-0.191,1.44-0.191,1.44-0.191h1.801c0,0,0.405,0.191,0.811-0.225
		c0.18-0.372,0.18-0.372,0.18-0.372s2.026-0.833,2.431-1.215c0.405-0.191,0.586-1.429,0.586-1.429s0.63-0.394,0.63-0.788
		c0-0.417-0.405-1.429-0.405-1.429v-0.788l0.563-0.777c0,0,0.203-0.236,0.833-0.833c0.585-0.597,0.585-0.597,0.585-0.597
		s-0.248-0.191,0.586-0.607c0.81-0.225,1.439-0.822,1.822-0.822s-0.428,0.417,0.383,0s1.035-0.788,1.035-1.429
		c0-0.394,0.18-2.633,0.18-2.633l0.811-1.193l2.025,0.18l1.036,0.214c0,0,1.192,0.18,1.396-0.214
		c0.225-0.417,0.811-0.777,0.811-0.777l1.62-0.833c0,0-0.226-0.191,0.563-0.191c0.833,0,2.048,0,2.656,0c0.382,0,1.372,0,1.372,0
		s0.855,0.394,1.262,0.788c0.18,0.417,0.765,1.429,0.765,1.429l0.63,0.833h0.607c0.788,0.597,1.193,1.013,2.589,1.384
		c1.44,0.417,2.431,0.833,2.431,0.833s0.405,0.822,0.788,1.193c0.428,0.417,0.788,0.833,1.418,1.238
		c0.428,0.191,0.81,0.607,0.99,1.001c0.226,0.417,0.833,1.193,0.833,1.193l0.787,0.81l0.405-0.81v-1.407l-0.18-0.788
		c0,0-0.811-0.597,0.18-0.597c0.811,0,1.44,0,1.44,0l-0.811-1.215l-1.012-0.417l-1.418-1.013l-0.608-0.608l-0.563-0.18l-0.63-0.417
		l-0.788-0.597c0,0-1.418-0.225-1.418-0.833c-0.202-0.383-0.202-0.383-0.202-0.383l-1.418-0.191c0,0-1.396-0.833-1.396-1.193
		c0-0.416-0.225-1.643-0.225-1.643l-1.193-0.18c0,0,0.181-0.833,0.181-1.429c0-0.417,0.428-1.013,0.428-1.013l2.589-0.191
		l0.607,1.43l1.013,0.607l1.418,0.597l0.585,0.821l0.631,0.608c0,0,0.18,0.18,0.99,0.416c0.81,0.18,1.418,0.394,1.418,0.394
		s0.81,0.822,1.418,0.822c0.584,0.191,0.81,0.416,1.439,0.596c-0.404,0.349-0.404,0.349-0.404,0.349s0.202,0.416,0.811,0.833
		c0.584,0.394,1.17,1.193,1.17,1.609s0.428,1.801,0.855,2.003c0.404,0.191,0.563,0.191,1.418,1.013
		c0.787,0.788,0.787,1.598,1.373,2.014c0.855,0.18,1.439,0,1.439,0.776c0.226,0.833,0.226,1.43,0.226,1.43s0.608,0.213,1.035,0.213
		c0.36,0,1.171-0.81,1.171-0.81s0.811-1.193,0.18-1.429c-0.359-0.18-1.351-0.18-1.351-0.597c0-0.416,0-2.611,0-2.611l0.563-1.418
		l0.787-1.204l1.238,0.372l1.192-0.788l1.261,1.429l-0.428,1.609c0,0,0.203,1.013,0.787,1.801c0.406,0.81,1.441,1.823,1.441,1.823
		l1.98,1.823l2.836,0.777l0.607-0.18l4.209-0.833c0,0,0.631,0,1.035,0c0.405,0,2.408,3.433,2.408,3.433s0,1.429,0,2.217
		c0,0.833,0,2.836,0,2.836s-1.418,1.429-2.025,1.429c-0.563,0-2.229,0.788-2.229,0.788l-3.398,0.821l-2.205-0.18l-4.029-0.236
		c0,0-4.051-0.18-4.457-0.18c-0.404,0-1.822,0-2.25,0c-0.383,0-0.99,0.416-1.396,1.586c-0.405,1.204-1.216,1.621-1.216,1.621
		s0,0.597-0.787,0.597c-0.833,0-0.833,0.225-1.418-0.18c-0.607-0.417-3.443-1.013-3.443-1.013l-2.589-1.823l-1.44-1.204l-1.44-0.18
		h-4.029l-2.634-0.214l0.451-4.209l0.404,1.193l-0.81-2.813l-1.216-0.833l-2.836-0.596l-1.801,0.191l-2.408,0.597l-2.408,0.833
		l-1.44,0.417l-6.888,1.193l-2.408,1.013c0,0-1.012,0.597-1.418,0.833c-0.404,0.18-1.98,0.18-1.98,0.18s-1.26-0.18-1.846-0.417
		c-0.585-0.18-2.025-0.18-2.61-0.18s-1.823-0.191-2.251,0c-0.383,0.18-0.766,0.18-1.17,0.833c-0.451,0.596-1.846,2.206-1.846,2.206
		s-0.811,0.833-1.216,1.204c-0.18,0.417-1.192,1.632-1.192,1.632l-1.644,2.633l-1.013,1.193l0.248,1.429v1.013
		c0,0-0.586,0.607-1.035,0.81c-0.406,0.18-1.216,0.597-1.216,0.597s-0.585,0.191-1.193,0.788c-0.585,0.371-0.585,0.574-0.99,0.968
		c-0.428,0.417-1.823,1.429-1.823,1.429s-0.787,0.597-1.395,1.215c-0.428,0.608-1.262,1.407-1.441,1.801
		c-0.236,0.417-0.811,0.833-1.249,1.013c-0.36,0.214-1.192,1.823-1.384,2.24c-0.226,0.394-1.43,2.217-1.43,2.217l-0.821,3.432
		l-0.191,1.587c0,0,0.191,0.597,0.608,1.013c0.404,0.417,0.799,2.026,0.799,2.026v1.407c0,0-0.417,1.227-0.619,1.609
		c-0.18,0.417,0.225,2.431,0.225,2.431v1.193c0,0,0,0.417-0.596,1.013c-0.619,0.574-0.8,1.429-0.8,1.429l0.8,1.823l0.596,1.204
		v0.822l0.788,1.384c0,0,0.416,0.438,0.81,0.833c0.417,0.18,0.598,0.18,1.43,0.811c0.776,0.382,0.776,0.382,0.776,0.382
		s1.249,1.429,1.249,2.003c0,0.416,0.788,1.249,0.788,1.249l1.418,1.429c0,0,0.226,0.788,1.035,1.407
		c0.788,0.619,1.575,0.99,1.981,1.407c0.428,0.225,1.62,1.238,2.61,1.452c0.833,0.18,1.261,0.417,1.644,0.417
		c0.382,0-0.631-1.249,2.205,0.18s4.637,2.025,4.637,2.025l2.025,0.811c0,0,3.264,0.18,3.624-0.225
		c0.45-0.282,1.035-0.282,1.485-0.282c0.405,0,1.418,0,2.205,0c0.811,0,3.646-0.416,3.646-0.416l3.219-1.215
		c0,0,1.014-0.585,1.418-0.811c0.428-0.18,1.598-0.99,2.025-1.204c0.428-0.225,2.408-0.225,2.408-0.225s0-0.596,0.834,0
		c0.765,0.619,0.765,0.833,0.99,1.249c0.202,0.405,0.202,1.418,0.765,1.418c0.63,0.191,2.048,0.608,2.048,0.608s2.025-0.236,2.589,0
		c0.63,0.18,2.025,0.18,2.025,0.18l0.63,0.81l0.181,1.801v1.631c0,0-0.181,0.597,0,1.205c0.226,0.573,0.854,1.609,0.854,1.609
		s-0.854,1.215-1.26,1.406c-0.405,0.202-1.44,1.451-1.44,1.451l2.836,2.611l1.599,1.575l1.237,1.44c0,0,0.181,0.586,0.181,1.014
		s-0.181,1.418,0,2.002c0.225,0.406,0.225,2.026,0.225,2.026s0.225,1.216,0.225,1.62c0,0.405-0.449,2.387-0.449,2.387l-0.181,1.439
		l-0.811,2.408l-0.99,1.193l-1.44,1.44l-1.013,1.62l-0.181,2.206l-0.832,1.44c0,0,0.225,1.216,0.225,1.801
		c0,0.586,1.216,2.791,1.216,2.791l-0.202,1.846c0,0-0.834,2.611-0.834,3.195c0,0.631-0.563,1.441-0.563,2.026
		c0,0.428-0.247,2.251-0.247,2.251l0.247,2.205l0.788,2.251l-0.788,2.026c0,0-0.428,1.62-0.428,2.61
		c0,0.788,1.441,1.778,1.824,1.778c0.382,0,2.228-0.18,3.038-0.788c0.765-0.405,2.791-0.99,3.196-1.216
		c0.428-0.202,0.811,0.226,2.048-0.765c1.192-0.855,3.017-2.273,3.017-2.273s1.418-0.99,2.025-1.373
		c0.428-0.428,2.408-2.655,2.408-2.655s1.418-1.396,2.408-2.026c1.013-0.585,0-0.18,1.013-0.765
		c1.013-0.586,4.231-3.287,4.231-3.287l3.219-3.195c0,0,2.836-3.602,3.264-4.231s3.016-4.052,3.421-4.276
		c0.405-0.203,4.028-2.611,4.816-3.219c0.833-0.563,1.846-4.861,2.251-5.424c0.404-0.428,2.611-5.447,2.611-5.447l2.025-5.852
		l3.421-8.699l3.376-6.043c0,0,1.44-2.6,2.025-3.41c0.405-0.81,3.646-7.044,3.646-7.044l1.215-5.29l0.428-4.422h-2.048l-2.206,2.014
		l-2.048-0.607l-2.003,0.236l2.25-2.836l-0.607-2.217l-1.822-1.407l-2.432-3.635v-3.646l-2.61-4.22l-1.575-6.663
		c0,0-3.039-3.241-2.611-4.029c0.18-0.833,0.99-3.252,0.99-3.252l1.621,0.833c0,0,1.215,3.23,1.801,3.433
		c0.629,0.191,1.439,1.8,1.62,2.217c0.202,0.417,0.382,1.846,0.765,2.228c0.226,0.394,1.621,3.027,1.621,3.027
		s1.013,2.6,1.215,3.196c0.226,0.416,1.216,2.037,1.441,3.229c0.202,1.227,0.765,5.053,0.765,5.436c0,0.394,1.035,4.637,1.035,4.637
		s1.418-0.394,1.62-0.788c0.181-0.383,0.181-0.597,0.608-1.013c0.181-0.416,2.61-2.228,2.61-2.228l1.014-3.23
		c0,0,0.585-1.429,0.765-2.025c0.226-0.585,1.44-2.836,1.44-3.208c0-0.417-0.202-2.003,0-2.645c0.226-0.394,0.811-2.813,0.811-3.23
		c0-0.416,0.18-2.003,0.18-2.003l-0.18-3.624l1.576-2.003l0.854-2.239C381.358,203.985,375.484,140.649,315.209,108.981z"/>
</g>
</svg>
