<?xml version="1.0" encoding="utf-8"?>
<!-- Generator: Adobe Illustrator 16.0.0, SVG Export Plug-In . SVG Version: 6.00 Build 0)  -->
<!DOCTYPE svg PUBLIC "-//W3C//DTD SVG 1.1//EN" "http://www.w3.org/Graphics/SVG/1.1/DTD/svg11.dtd">
<svg version="1.1" id="图层_1" xmlns="http://www.w3.org/2000/svg" xmlns:xlink="http://www.w3.org/1999/xlink" x="0px" y="0px"
	 width="512px" height="512px" viewBox="0 0 512 512" enable-background="new 0 0 512 512" xml:space="preserve">
<g id="surface1">
	<polygon opacity="0.2" enable-background="new    " points="69,504 69,8 443,8 443,364.407 303.406,504 	"/>
	<polygon opacity="0.08" enable-background="new    " points="69,512 69,8 451,8 451,370.064 309.065,512 	"/>
	<polygon opacity="0.1" enable-background="new    " points="73,508 73,12 447,12 447,368.407 307.406,508 	"/>
	<g>
		
			<linearGradient id="SVGID_1_" gradientUnits="userSpaceOnUse" x1="464.0012" y1="-1705.9512" x2="464.0012" y2="-1217.9512" gradientTransform="matrix(1 0 0 -1 -208.0005 -1205.9512)">
			<stop  offset="0" style="stop-color:#512DA8"/>
			<stop  offset="0.008" style="stop-color:#D32F2F"/>
			<stop  offset="0.3041" style="stop-color:#E33932"/>
			<stop  offset="0.6579" style="stop-color:#F04035"/>
			<stop  offset="1" style="stop-color:#F44336"/>
		</linearGradient>
		<path fill="url(#SVGID_1_)" d="M301.75,500L439,362.75V12H73v488H301.75z"/>
		<polygon fill="#B71C1C" fill-opacity="0.3922" points="294.125,355.125 294.125,500 301.75,500 439,362.75 439,355.125 		"/>
		<path fill="#FFFFFF" fill-opacity="0.3922" d="M301.75,362.75h137.135L301.75,500V362.75z"/>
		<g opacity="0.8">
			<path fill="#FFFFFF" d="M269.286,147.508v54.361h-89.441c-3.771,0-6.836-3.065-6.836-6.836v-40.688
				c0-3.771,3.065-6.836,6.836-6.836H269.286 M277.7,139.094h-97.855c-8.422,0-15.25,6.828-15.25,15.25v40.688
				c0,8.418,6.828,15.25,15.25,15.25H277.7V139.094L277.7,139.094z"/>
			<g>
				<path fill="#FFFFFF" d="M278.2,209.783v-70.188h53.959c8.133,0,14.75,6.617,14.75,14.75v40.688c0,8.133-6.617,14.75-14.75,14.75
					H278.2z M310.542,195.004l21.946-33.867H288.63L310.542,195.004z"/>
				<path fill="#FFFFFF" d="M332.159,140.094c7.857,0,14.25,6.393,14.25,14.25v40.688c0,7.857-6.393,14.25-14.25,14.25H278.7
					v-69.188H332.159 M310.541,195.924l0.84-1.296l21.026-32.447l1.001-1.544h-1.84h-42.02h-1.838l0.998,1.543l20.993,32.447
					L310.541,195.924 M332.159,139.094H277.7v71.188h54.459c8.431,0,15.25-6.832,15.25-15.25v-40.688
					C347.409,145.922,340.59,139.094,332.159,139.094L332.159,139.094z M310.542,194.084l-20.993-32.447h42.02L310.542,194.084
					L310.542,194.084z"/>
			</g>
			<path fill="#FFFFFF" d="M306.663,249.197c17.781,0,32.242,14.461,32.242,32.242c0,17.781-14.461,32.242-32.242,32.242
				c-17.78,0-32.241-14.461-32.241-32.242C274.422,263.658,288.883,249.197,306.663,249.197 M306.663,240.783
				c-22.447,0-40.655,18.208-40.655,40.656c0,22.448,18.208,40.656,40.655,40.656c22.448,0,40.656-18.208,40.656-40.656
				C347.32,258.991,329.112,240.783,306.663,240.783L306.663,240.783z"/>
			<g>
				<path fill="#FFFFFF" d="M230.656,240.783h-50.811c-8.422,0-15.25,6.828-15.25,15.25v50.812c0,8.422,6.828,15.25,15.25,15.25
					h50.811c8.422,0,15.25-6.828,15.25-15.25v-50.812C245.906,247.611,239.078,240.783,230.656,240.783z M202.826,307.625
					l-25.332-20.854l8.02-9.745l14.633,12.046l22.407-33.076l10.452,7.078L202.826,307.625z"/>
			</g>
			<g>
				<path fill="#FFFFFF" d="M326.072,281.438c0,10.715-8.693,19.407-19.408,19.407c-10.714,0-19.407-8.692-19.407-19.407
					c0-10.714,8.693-19.407,19.407-19.407C317.378,262.031,326.072,270.725,326.072,281.438z"/>
			</g>
		</g>
		<g>
			<path fill="#B71C1C" d="M437,14v347.922L300.922,498H195H75V14H437 M439,12H73v488h122h106.75L439,362.75V12L439,12z"/>
		</g>
	</g>
</g>
</svg>
