<?xml version="1.0" encoding="utf-8"?>
<!-- Generator: Adobe Illustrator 21.0.0, SVG Export Plug-In . SVG Version: 6.00 Build 0)  -->
<svg version="1.1" id="图层_1" xmlns="http://www.w3.org/2000/svg" xmlns:xlink="http://www.w3.org/1999/xlink" x="0px" y="0px"
	 viewBox="0 0 512 512" style="enable-background:new 0 0 512 512;" xml:space="preserve">
<style type="text/css">
	.st0{opacity:0.08;enable-background:new    ;}
	.st1{opacity:0.1;enable-background:new    ;}
	.st2{opacity:0.2;enable-background:new    ;}
	.st3{fill:#0D47A1;}
	.st4{fill:url(#SVGID_1_);}
	.st5{fill:#0D47A1;fill-opacity:0.39;}
	.st6{fill:#FFFFFF;fill-opacity:0.45;}
	.st7{fill:#64B5F6;}
	.st8{fill:#FFFFFF;fill-opacity:0.8;}
</style>
<polygon class="st0" points="68.2,512 68.2,8 451.8,8 451.8,369.9 309.7,512 "/>
<polygon class="st1" points="72.2,508 72.2,12 447.8,12 447.8,368.3 308.1,508 "/>
<polygon class="st2" points="68.2,504 68.2,8 443.8,8 443.8,364.3 304.1,504 "/>
<polygon class="st3" points="72.2,500 72.2,12 438.8,12 438.8,362.6 301.8,500 "/>
<g>
	<g>
		<g>
			
				<linearGradient id="SVGID_1_" gradientUnits="userSpaceOnUse" x1="338.7002" y1="1592.8008" x2="338.7002" y2="1108.8008" gradientTransform="matrix(1 0 0 1 -83.2002 -1094.8008)">
				<stop  offset="0" style="stop-color:#1976D2"/>
				<stop  offset="0.0226" style="stop-color:#1C79D3"/>
				<stop  offset="0.2859" style="stop-color:#3B93E2"/>
				<stop  offset="0.5416" style="stop-color:#52A6ED"/>
				<stop  offset="0.7843" style="stop-color:#5FB1F4"/>
				<stop  offset="1" style="stop-color:#64B5F6"/>
			</linearGradient>
			<polygon class="st4" points="74.2,498 74.2,14 436.8,14 436.8,361.9 300.7,498 			"/>
		</g>
		<polygon class="st5" points="436.8,361.9 436.8,356 293.2,356 293.2,498 300.7,498 		"/>
		<path class="st6" d="M300.5,361.9l136.4,0.2L300.7,498L300.5,361.9z"/>
	</g>
	<path class="st7" d="M381.5,219.7c0,69.6-56.4,126.1-126,126.1s-126.1-56.5-126.1-126.1s56.5-126,126.1-126
		C325.1,93.7,381.5,150.1,381.5,219.7z"/>
	<path class="st8" d="M172.8,124.7c0,0,2.6,1.4,3.6,3.6c0.8,2.2,3.6,2.2,3.6,2.2h4l5.9-1.8l-1.4,3.2c0,0-30.9,14.3-24.6,22.8
		c6.3,8.5,4.1,10.7,4.1,13.3s1.8,0.4,1.8,0.4l1.8-4.8l2.6-3.6l2.6-4l0.8-2.2l3.6-6.2l4.4-2.6l4,2.6c0,0,1.8,0.8,1.4,2.2
		c-0.4,1.4-0.8,4-0.8,4s0.8,1.8,2.2,1.8s3.6-1.4,3.6-1.4l1.8,3.2l1.4,5.9l3.6,3.6l1.8,4l-1.8,3.6l1.8,1.4l4,4.5l0.8,2.2l-6.7-0.4
		c0,0-0.8-1.8-2.2-1.8s-7-0.4-7-0.4l-3.3,0.8l-1.8,2.2c0,0-2.3,3.6-3.7,3.6s-4.8-0.8-4.8-0.8s-2.6-0.8-4,1.8s2.2,4,2.2,4l-6.2,1.8
		l-1.8,0.8c0,0-4.4,1.8-4.4,3.2s0,1.4,0,1.4l-1.4,3.6v2.2l-3.3,2.7l-3.2,2.2l-1.4,2.6v4.4c0,0-0.4,2.2-0.4,3.6s0,4.9,0,4.9
		s-1.4,1.4-2.2-1.5c-0.8-2.6-0.8-2.6-0.8-2.6l-1.4-3.2c0,0,1.4-0.4-0.4-1.8c-1.8-1.4-3.6-1.8-3.6-1.8s-0.8-0.8-2.6-0.8
		s2.3,0.4-1.8,0s-4.1-0.4-4.1-0.4l-3.3,2.6v2.2c0,0-0.8,15.8,3.6,17.9h1.8l2.6-4l2.2,0.8v1.8l-0.4,3.3v1.8l2.2,2.2l1.4,4.1
		c1.8,3.2,0.8,4,2.2,4.8s2.6,3.2,2.6,3.2l1.8,0.8c0,0,1.4,0.4,2.6,0.8c1.4,0.4,1.4,0.4,1.4,0.4l0.4,2l0.4,1.6l1.8,2.2
		c0,0-1.4,0,1.8,0s3.2,0,3.2,0s0,0.8,2.2,1.8c2.2,0.8,0.4,0.4,2.2,0.8s4.9,0.8,4.9,0.8c3.2-0.4,3.2-0.4,3.2-0.4l2.3,3.3
		c0,0,1.4,0,1.8,1.4c0.4,1.4-2.2,0,0.4,1.4c2.6,1.4,0,0.4,2.6,1.4s-0.8,0.8,2.6,0.8c3.4,0,4,0,5.4,0.4s2.3,3.6,2.3,3.6
		c2.6,3.2,2.6,3.2,2.6,3.2l0.4,4c0,0-1.4,0.9,1.8,0.9c3.3,0,0.8,0,3.3,0c2.4,0-0.4-0.9,2.2,0c2.6,0.8,2.6,0.8,2.6,0.8s4,3.2,5.4,3.2
		s4-0.4,5.4,0s2.2,2.6,4.8,3.2c2.6,0.4,3.7,0,5.4,1.4c1.8,1.4,1.8,1.4,1.8,1.4l0.4,4.8l-1.4,2.6l-3.6,1.4l-0.4,4.5l-1.8,4.4v2.2
		c0,0,2.3,1.8-1.8,2.3c-4.1,0.4-4.1,0.4-4.1,0.4l-1.8,1.8c0,0,0,0.5-0.8,1.8c-0.8,1.4-1.8,3.6-1.8,3.6l0.4,4v2.6l-1.4,2.2
		c0,0-1.2,0.6,2.2,2.8c3.6,2.2,6.4,2.2,7.3,3.6c0.8,1.4,3,2.6,3,2.6l-4.9-1.1l-3-1l-5.1-1.4l-9.7-5c0,0-14.5-11.9-19-21.6
		c0,0-3.8-5.6-10.3-8.1c0,0-15.9-14.5-17.4-18.2l-0.6-2.4V283l-0.6-0.6V281l-0.4-1l0.2-4.4l0.2-3.1l0.2-1.6l-0.2-1.3
		c0,0-0.8-0.8-0.8-1s-0.6-2-0.6-2l-0.2-0.6l2.4-2l-0.6-1.8l0.4-1l1.4-1c0,0,0.8-1.2,0.8-1.4c0-0.4-1.4-1.4-1.4-1.4l-0.6,0.2
		l-0.6,1.8h-0.8c0,0-0.8-0.4-0.8-0.6s-0.8-1-0.8-1l-1-0.4c0,0-0.8-0.2-1-0.6s-1.2-1-1.2-1.2s-0.8-1.4-0.8-1.4l-1-0.4
		c0,0-1.2-1.8-1.2-2.3c0-0.2-0.6-1.2-0.6-1.2s-1.4-1.6-1.4-1.8s-0.6-1.6-0.6-1.6h-1l-2.2-0.8l-1.4-1.8l-1.6-1.8c0,0-0.8-1.5-0.8-1.8
		c0-0.4-0.6-0.8-0.6-0.8h-1h-0.6l-1.4-1.2l-3.6-5.1l-0.6-2.3l-0.6-2.4l-0.4-4v-2.6l-1.6-18.8C129.6,203.7,135.1,157.4,172.8,124.7z"
		/>
	<path class="st8" d="M315.2,109l4,3.3l2,1l1.4,1.6l0.2,1.6c0,0,0.4,1.6,0.2,2c-0.2,0.4-0.5,2.6-0.5,2.6s1.8,3.3,1.8,3.7
		c0,0.4,0.2,2.2-0.2,2.6c-0.4,0.2-2.6,1.6-2.8,1c-0.2-0.6-1.6-2-2-2c-0.5-0.2-1.6-1.4-1.6-1.4l3.2-0.4l-0.4-2c0,0-2.2-0.8-2.8-0.8
		c-0.6-0.2-2.8-1.4-2.8-1.4l-2.4-0.6c0,0-4-1-4.4-1.2s-2-0.8-2-0.8h-3.4c0,0-1.6,0.8-2,1.2c-0.2,0.4-2.3,2.6-2.3,2.6s-0.2,2.6-0.2,3
		s-0.6,1.4-0.6,2.6s-0.2,2.8-0.2,3.3s0,1,0,1l-0.4,1.8l-1.4,0.8l-1.8,1.4c0,0-1.6,1.2-1.6,1.6s0,2,0.6,3.2s0.4,2.4,1.2,3
		c0.8,0.6,1.2,1.4,1.8,1.6c0.6,0.2,0.2,0.4,1.2,0.4c0.8,0,1.6,0.2,2-0.2c0.4-0.2,1.4-0.2,1.8-0.8s-0.4-0.2,0.4-0.6
		c0.8-0.2,0.8-0.8,1.4-0.2c0.8,0.6,1.4,1.4,1.6,1.8c0.2,0.4,0.8,1.4,1.4,2c0.8,0.4,1.4,2,1.4,2l1.2,1.2c0,0,0.2,0.2,1,0.2
		s2-0.2,2-0.2l0.4-0.8c0,0,0.8,0.2,1-0.2s0.2-1,0.2-1s-0.5-1.2-0.8-1.6c-0.2-0.4-0.6-1.4-0.6-1.4l0.2-1.4l0.8-0.8l0.2-1v-1.1
		l-0.9-0.4l-1.4-0.8c0,0-0.8,0.2-0.8-0.8c-0.2-0.8-0.2-0.8-0.2-0.8l-1.8-0.4l-1.2-0.6l1.4-1c0.8-1.4,1-1.8,1-2.2s-0.2-1.6-0.2-1.6
		s-0.8-0.2-0.8-1.2c-0.2-1-0.2-1.6-0.2-1.6l0.2-0.8c0,0,0.2-0.6,0.8-0.6c0.4,0,1.2,0.6,1.6,0.6s1.2,0.2,1.2,0.2s0.4,0.2,0.4,0.8
		c0,0.4-0.2,1.4-0.2,1.4l0.8-1.2v1.4l-0.2,1.6v1.6l0.8,1.6l0.8,1.2c0,0,1,1,1.4,1.4c0.4,0.2,1.4,1,1.4,1l1.2,0.6l0.8,0.2l0.8-0.8
		c0,0,1.4,0.2,1.4-0.2c0.2-0.4,0.2-0.4,0.2-0.4s1.6-0.2,2-0.2s1.2,0,1.2,0s0.6,1.2,0.2,1.2s-0.6,0.4-1.6,0.8c-1,0.2-1.4,0-1.6,0.4
		s-0.8,1.4-0.8,1.4l0.8,0.2h0.6l0.8,0.8c0,0,0.2,0.2,0,0.8s0.8,0.4-0.2,0.6c-1.2,0.2-1.8-0.2-1.8-0.2s-0.2-1-0.8-0.6
		c-0.4,0.4-0.6,1.4-0.6,1.4v1.4l0.8,2c0,0,0.4,0.4,0,0.6c-0.4,0.2-1.8,1.8-1.8,1.8s-0.2,0.6-0.9,0.6c-0.4,0-1,0-2,0.2
		c-0.8,0.2-0.8,0.2-1.6,0.4c-0.8,0.2-1.4,0.4-2.6,0.6c-1.2,0.2-3.4,0.2-4.2,0.2c-0.8,0-1,0-1.4-0.2s-0.2,0-0.9-0.8
		c-0.6-0.8-1.2-1.4-1.2-2c0-0.4,0-0.6-0.2-1.4c-0.2-0.8-0.2-1.4-0.8-1.4c-0.8,0-0.8,0-0.8,0s-1.6,1.2-1.4,1.6c0.2,0.4-0.2,0,1.2,1
		c1.4,1,1.8,2.4,1.8,2.4l-0.2,1.4l-2.6,1.4l-1.8,0.6l-0.2,1.2c0,0,0,0.4-0.4,1s-1.4,1.4-1.4,1.4s-0.8,0.2-1,0.8
		c-0.2,0.4-0.8,2-0.8,2s-0.8-0.2-1.6,0.4c-0.8,0.6,0.2,0.6-1.6,1.4c-1.8,0.8-1.8,0.8-1.8,0.8l-2-0.2l-1.2,0.4c0,0-1.6,0.2-1.8,0.6
		c-0.2,0.4-1,1.6-1,1.6s-0.4,0.8,0,0.8c0.4,0.2,1,0,2,0.2c0.8,0.2,1,0.2,1.6,0.6c0.6,0.2,1.2,0.8,1.2,0.8l2.2,2l1.2,2.6l-0.2,2
		l-2.4,0.8c0,0-1.4,0-2,0c-0.4,0-0.2,0-2.6,0s-2.8,0-3.2,0c-0.4,0-2-0.2-2-0.2l-1.4,0.2l-1,0.8l-0.6,0.2c0,0,0.8,1.8,0.8,2.4
		c0,0.6,0,1.4,0,1.4l-0.2,1.2l-0.6,1.4l-0.8,1.4l0.2,0.8c0,0-0.2,0.6,0.2,0.6c0.4,0,1.6-0.2,1.6,0.2s-1,2-1,2l2,0.4
		c0,0-0.2-0.2,1,0.2c1.2,0.2,2,0.6,2,0.6l1.4,1l0.4,0.8l0.4-0.8c0,0,2.2-0.2,2.6-0.4s1.4-0.2,1.4-0.2h1.8c0,0,0.4,0.2,0.8-0.2
		c0.2-0.4,0.2-0.4,0.2-0.4s2-0.8,2.4-1.2c0.4-0.2,0.6-1.4,0.6-1.4s0.6-0.4,0.6-0.8c0-0.4-0.4-1.4-0.4-1.4v-0.8l0.6-0.8
		c0,0,0.2-0.2,0.8-0.8c0.6-0.6,0.6-0.6,0.6-0.6s-0.2-0.2,0.6-0.6c0.8-0.2,1.4-0.8,1.8-0.8s-0.4,0.4,0.4,0s1-0.8,1-1.4
		c0-0.4,0.2-2.6,0.2-2.6l0.8-1.2l2,0.2l1,0.2c0,0,1.2,0.2,1.4-0.2c0.2-0.4,0.8-0.8,0.8-0.8l1.6-0.8c0,0-0.2-0.2,0.6-0.2
		c0.8,0,2,0,2.7,0c0.4,0,1.4,0,1.4,0s0.9,0.4,1.3,0.8c0.2,0.4,0.8,1.4,0.8,1.4l0.6,0.8h0.6c0.8,0.6,1.2,1,2.6,1.4s2.4,0.8,2.4,0.8
		s0.4,0.8,0.8,1.2s0.8,0.8,1.4,1.2c0.4,0.2,0.8,0.6,1,1s0.8,1.2,0.8,1.2l0.8,0.8l0.4-0.8v-1.4l-0.2-0.8c0,0-0.8-0.6,0.2-0.6
		c0.8,0,1.4,0,1.4,0l-0.8-1.2l-1-0.4l-1.4-1l-0.6-0.6l-0.6-0.2l-0.6-0.4l-0.8-0.6c0,0-1.4-0.2-1.4-0.8c-0.2-0.4-0.2-0.4-0.2-0.4
		l-1.4-0.2c0,0-1.4-0.8-1.4-1.2s-0.2-1.6-0.2-1.6l-1.2-0.2c0,0,0.2-0.8,0.2-1.4c0-0.4,0.4-1,0.4-1l2.6-0.2l0.6,1.4l1,0.6l1.4,0.6
		l0.6,0.8l0.6,0.6c0,0,0.2,0.2,1,0.4s1.4,0.4,1.4,0.4s0.8,0.8,1.4,0.8c0.6,0.2,0.8,0.4,1.4,0.6c-0.4,0.3-0.4,0.3-0.4,0.3
		s0.2,0.4,0.8,0.8c0.6,0.4,1.2,1.2,1.2,1.6s0.4,1.8,0.9,2c0.4,0.2,0.6,0.2,1.4,1s0.8,1.6,1.4,2c0.9,0.2,1.4,0,1.4,0.8
		c0.2,0.8,0.2,1.4,0.2,1.4s0.6,0.2,1,0.2s1.2-0.8,1.2-0.8s0.8-1.2,0.2-1.4c-0.4-0.2-1.4-0.2-1.4-0.6c0-0.4,0-2.6,0-2.6l0.6-1.4
		l0.8-1.2l1.2,0.4l1.2-0.8l1.3,1.4l-0.4,1.6c0,0,0.2,1,0.8,1.8c0.4,0.8,1.4,1.8,1.4,1.8l2,1.8l2.8,0.8l0.6-0.2l4.2-0.8
		c0,0,0.6,0,1,0s2.4,3.4,2.4,3.4s0,1.4,0,2.2s0,2.8,0,2.8s-1.4,1.4-2,1.4s-2.2,0.8-2.2,0.8l-3.4,0.8l-2.2-0.2l-4-0.2
		c0,0-4.1-0.2-4.5-0.2s-1.8,0-2.3,0c-0.4,0-1,0.4-1.4,1.6c-0.4,1.2-1.2,1.6-1.2,1.6s0,0.6-0.8,0.6s-0.8,0.2-1.4-0.2s-3.4-1-3.4-1
		l-2.6-1.8l-1.4-1.2l-1.4-0.2h-4l-2.6-0.2l0.5-4.2l0.4,1.2l-0.8-2.8l-1.2-0.8l-2.8-0.6l-1.8,0.2l-2.4,0.6l-2.4,0.8l-1.4,0.4
		l-6.9,1.2l-2.4,1c0,0-1,0.6-1.4,0.8s-2,0.2-2,0.2s-1.3-0.2-1.8-0.4c-0.6-0.2-2-0.2-2.6-0.2s-1.8-0.2-2.3,0
		c-0.4,0.2-0.8,0.2-1.2,0.8c-0.5,0.6-1.8,2.2-1.8,2.2s-0.8,0.8-1.2,1.2c-0.2,0.4-1.2,1.6-1.2,1.6l-1.6,2.6l-1,1.2l0.2,1.4v1
		c0,0-0.6,0.6-1,0.8s-1.2,0.6-1.2,0.6s-0.6,0.2-1.2,0.8c-0.6,0.4-0.6,0.6-1,1s-1.8,1.4-1.8,1.4s-0.8,0.6-1.4,1.2
		c-0.4,0.6-1.3,1.4-1.4,1.8c-0.2,0.4-0.8,0.8-1.2,1c-0.4,0.2-1.2,1.8-1.4,2.2c-0.2,0.4-1.4,2.2-1.4,2.2l-0.8,3.4l-0.2,1.6
		c0,0,0.2,0.6,0.6,1s0.8,2,0.8,2v1.4c0,0-0.4,1.2-0.6,1.6c-0.2,0.4,0.2,2.4,0.2,2.4v1.2c0,0,0,0.4-0.6,1s-0.8,1.4-0.8,1.4l0.8,1.8
		l0.6,1.2v0.8l0.8,1.4c0,0,0.4,0.4,0.8,0.8c0.4,0.2,0.6,0.2,1.4,0.8c0.8,0.4,0.8,0.4,0.8,0.4s1.2,1.4,1.2,2c0,0.4,0.8,1.2,0.8,1.2
		l1.4,1.4c0,0,0.2,0.8,1,1.4c0.8,0.6,1.6,1,2,1.4c0.4,0.2,1.6,1.2,2.6,1.5c0.8,0.2,1.3,0.4,1.6,0.4c0.4,0-0.6-1.2,2.2,0.2
		s4.6,2,4.6,2l2,0.8c0,0,3.3,0.2,3.6-0.2c0.5-0.3,1-0.3,1.5-0.3c0.4,0,1.4,0,2.2,0c0.8,0,3.6-0.4,3.6-0.4l3.2-1.2c0,0,1-0.6,1.4-0.8
		s1.6-1,2-1.2s2.4-0.2,2.4-0.2s0-0.6,0.8,0s0.8,0.8,1,1.2s0.2,1.4,0.8,1.4c0.6,0.2,2,0.6,2,0.6s2-0.2,2.6,0s2,0.2,2,0.2l0.6,0.8
		l0.2,1.8v1.6c0,0-0.2,0.6,0,1.2s0.9,1.6,0.9,1.6s-0.9,1.2-1.3,1.4c-0.4,0.2-1.4,1.5-1.4,1.5l2.8,2.6l1.6,1.6l1.2,1.4
		c0,0,0.2,0.6,0.2,1s-0.2,1.4,0,2c0.2,0.4,0.2,2,0.2,2s0.2,1.2,0.2,1.6s-0.4,2.4-0.4,2.4l-0.2,1.4l-0.8,2.4l-1,1.2l-1.4,1.4l-1,1.6
		l-0.2,2.2l-0.8,1.4c0,0,0.2,1.2,0.2,1.8c0,0.6,1.2,2.8,1.2,2.8l-0.2,1.8c0,0-0.8,2.6-0.8,3.2s-0.6,1.4-0.6,2c0,0.4-0.2,2.3-0.2,2.3
		l0.2,2.2l0.8,2.3l-0.8,2c0,0-0.4,1.6-0.4,2.6c0,0.8,1.4,1.8,1.8,1.8s2.2-0.2,3-0.8c0.8-0.4,2.8-1,3.2-1.2c0.4-0.2,0.8,0.2,2-0.8
		c1.2-0.9,3-2.3,3-2.3s1.4-1,2-1.4c0.4-0.4,2.4-2.7,2.4-2.7s1.4-1.4,2.4-2s0-0.2,1-0.8c1-0.6,4.2-3.3,4.2-3.3l3.2-3.2
		c0,0,2.8-3.6,3.3-4.2s3-4.1,3.4-4.3c0.4-0.2,4-2.6,4.8-3.2s1.8-4.9,2.3-5.4c0.4-0.4,2.6-5.4,2.6-5.4l2-5.9l3.4-8.7l3.4-6
		c0,0,1.4-2.6,2-3.4c0.4-0.8,3.6-7,3.6-7l1.2-5.3l0.4-4.4h-2l-2.2,2l-2-0.6l-2,0.2l2.3-2.8l-0.6-2.2l-1.8-1.4l-2.4-3.6v-3.6
		l-2.6-4.2l-1.6-6.7c0,0-3-3.2-2.6-4c0.2-0.8,1-3.3,1-3.3l1.6,0.8c0,0,1.2,3.2,1.8,3.4c0.6,0.2,1.4,1.8,1.6,2.2s0.4,1.8,0.8,2.2
		c0.2,0.4,1.6,3,1.6,3s1,2.6,1.2,3.2c0.2,0.4,1.2,2,1.4,3.2c0.2,1.2,0.8,5.1,0.8,5.4c0,0.4,1,4.6,1,4.6s1.4-0.4,1.6-0.8
		c0.2-0.4,0.2-0.6,0.6-1c0.2-0.4,2.6-2.2,2.6-2.2l1-3.2c0,0,0.6-1.4,0.8-2c0.2-0.6,1.4-2.8,1.4-3.2s-0.2-2,0-2.6
		c0.2-0.4,0.8-2.8,0.8-3.2s0.2-2,0.2-2l-0.2-3.6l1.6-2l0.9-2.2C381.4,204,375.5,140.6,315.2,109z"/>
</g>
</svg>
