<?xml version="1.0" encoding="utf-8"?>
<!-- Generator: Adobe Illustrator 21.0.0, SVG Export Plug-In . SVG Version: 6.00 Build 0)  -->
<svg version="1.1" id="图层_1" xmlns="http://www.w3.org/2000/svg" xmlns:xlink="http://www.w3.org/1999/xlink" x="0px" y="0px"
	 viewBox="0 0 512 512" style="enable-background:new 0 0 512 512;" xml:space="preserve">
<style type="text/css">
	.st0{opacity:0.2;enable-background:new    ;}
	.st1{opacity:0.08;enable-background:new    ;}
	.st2{opacity:0.1;enable-background:new    ;}
	.st3{fill:url(#SVGID_1_);}
	.st4{fill:#311B92;fill-opacity:0.3922;}
	.st5{fill:#FFFFFF;fill-opacity:0.3922;}
	.st6{fill:#311B92;}
	.st7{opacity:0.8;}
	.st8{fill:#FFFFFF;}
</style>
<g id="surface1">
	<polygon class="st0" points="69,504 69,8 443,8 443,364.4 303.4,504 	"/>
	<polygon class="st1" points="69,512 69,8 451,8 451,370.1 309.1,512 	"/>
	<polygon class="st2" points="73,508 73,12 447,12 447,368.4 307.4,508 	"/>
</g>
<linearGradient id="SVGID_1_" gradientUnits="userSpaceOnUse" x1="464.0005" y1="-1959.9512" x2="464.0005" y2="-1471.9512" gradientTransform="matrix(1 0 0 -1 -208.0005 -1459.9512)">
	<stop  offset="0" style="stop-color:#3F51B5"/>
	<stop  offset="0.258" style="stop-color:#4355B7"/>
	<stop  offset="0.5253" style="stop-color:#5060BB"/>
	<stop  offset="0.7959" style="stop-color:#6473C3"/>
	<stop  offset="1" style="stop-color:#7986CB"/>
</linearGradient>
<path class="st3" d="M301.8,500L439,362.8V12H73v488H301.8z"/>
<polygon class="st4" points="294.1,355.1 294.1,500 301.8,500 439,362.8 439,355.1 "/>
<path class="st5" d="M301.8,362.8h137.1L301.8,500V362.8z"/>
<g>
	<path class="st6" d="M437,14v347.9L300.9,498H195H75V14H437 M439,12H73v488h122h106.8L439,362.8V12L439,12z"/>
</g>
<g class="st7">
	<path class="st8" d="M258.2,103c-8.3,0.1-16.3,0.7-23.2,1.9c-20.4,3.6-24.8,4.6-24.8,18.4v30.5h50.9V164h-71.2
		c-14,0-23.2,8.6-27,24.5c-4.5,18.2-4.6,29.5,0,48.6c3.4,14.1,13,28.6,27,28.6H200v-30.5c0-15.8,14.2-30.5,30.5-30.5h50.9
		c13.5,0,20.4-7,20.4-20.4v-50.8c0-13-5.4-26.4-18.5-28.6C275,103.5,266.4,102.9,258.2,103z M240.7,123.3c5.7,0,10.2,4.6,10.2,10.2
		c0,5.6-4.5,10.2-10.2,10.2c-5.6,0-10.2-4.6-10.2-10.2S235.1,123.3,240.7,123.3z"/>
	<path class="st8" d="M253.8,316.5c8.3-0.1,16.3-0.7,23.2-1.9c20.4-3.6,24.8-4.7,24.8-18.4v-30.5h-50.9v-10.2h71.2
		c14,0,23.2-8.6,27-24.5c4.5-18.2,4.6-29.5,0-48.6c-3.4-14.1-13-28.6-27-28.6H312v30.5c0,15.8-14.2,30.5-30.5,30.5h-50.9
		c-13.5,0-20.4,7-20.4,20.4V286c0,13,5.4,26.4,18.5,28.6C237,315.9,245.6,316.5,253.8,316.5z M271.3,296.2
		c-5.7,0-10.2-4.6-10.2-10.2s4.5-10.2,10.2-10.2c5.6,0,10.2,4.6,10.2,10.2S276.9,296.2,271.3,296.2z"/>
</g>
</svg>
