<?xml version="1.0" encoding="utf-8"?>
<!-- Generator: Adobe Illustrator 21.0.0, SVG Export Plug-In . SVG Version: 6.00 Build 0)  -->
<svg version="1.1" id="图层_1" xmlns="http://www.w3.org/2000/svg" xmlns:xlink="http://www.w3.org/1999/xlink" x="0px" y="0px"
	 viewBox="0 0 512 512" style="enable-background:new 0 0 512 512;" xml:space="preserve">
<style type="text/css">
	.st0{opacity:0.2;enable-background:new    ;}
	.st1{opacity:0.08;enable-background:new    ;}
	.st2{opacity:0.1;enable-background:new    ;}
	.st3{fill:#E65100;}
	.st4{fill:url(#SVGID_1_);}
	.st5{opacity:0.8;}
	.st6{fill:#FFFFFF;}
	.st7{opacity:0.8;fill:#FFFFFF;enable-background:new    ;}
	.st8{enable-background:new    ;}
	.st9{fill:#E64A19;}
</style>
<rect x="68.2" y="8" class="st0" width="374.6" height="496"/>
<rect x="68.2" y="8" class="st1" width="382.6" height="504"/>
<rect x="72.2" y="12" class="st2" width="374.6" height="496"/>
<rect x="72.2" y="12" class="st3" width="366.6" height="488"/>
<g>
	
		<linearGradient id="SVGID_1_" gradientUnits="userSpaceOnUse" x1="338.7002" y1="1600.8008" x2="338.7002" y2="1116.8008" gradientTransform="matrix(1 0 0 1 -83.2002 -1102.8008)">
		<stop  offset="0" style="stop-color:#EE6F0B"/>
		<stop  offset="1" style="stop-color:#FFB74D"/>
	</linearGradient>
	<rect x="74.2" y="14" class="st4" width="362.6" height="484"/>
	<g class="st5">
		<rect x="121.4" y="200.3" class="st6" width="38.7" height="194"/>
		<rect x="185.9" y="297.1" class="st6" width="38.7" height="97"/>
		<rect x="250.3" y="336.6" class="st6" width="38.7" height="58.1"/>
		<g>
			<path class="st6" d="M302.9,166.1l0.4,77.2l77.2-0.4c0.2,42.7-34.3,77.4-77,77.6c-42.8,0.3-77.5-34.3-77.7-77
				C225.7,200.9,260.1,166.2,302.9,166.1z"/>
			<path class="st6" d="M312,157.1c42.8-0.2,77.5,34.3,77.6,77.1l-77.2,0.4L312,157.1z"/>
		</g>
	</g>
	<g>
		<rect x="74.1" y="14" class="st7" width="362.8" height="92.8"/>
		<g class="st8">
			<path class="st9" d="M217.4,59.8c0,6.3-1,11.7-3.1,16.4c-2,4.7-4.9,8.5-8.7,11.6s-8.4,5.4-13.8,6.9c-5.4,1.5-11.5,2.3-18.2,2.3
				c-3.1,0-6.6-0.1-10.7-0.4c-4.1-0.2-8.1-0.7-12.1-1.5V24.6c3.9-0.7,8.1-1.2,12.4-1.4c4.3-0.2,7.9-0.4,11-0.4
				c6.5,0,12.4,0.7,17.7,2.1s9.9,3.6,13.7,6.6s6.7,6.8,8.8,11.5C216.4,47.7,217.4,53.3,217.4,59.8z M167.9,82.8
				c0.8,0.1,1.7,0.1,2.8,0.2c1.1,0,2.3,0,3.8,0c8.6,0,14.9-2,19.1-6.1c4.1-4.1,6.2-9.8,6.2-17c0-7.6-2-13.3-5.9-17.2
				c-4-3.9-10.2-5.8-18.8-5.8c-1.2,0-2.4,0-3.6,0c-1.3,0-2.4,0.1-3.5,0.3L167.9,82.8L167.9,82.8z"/>
			<path class="st9" d="M254.5,22.9c11.3,0,20,1.9,26.1,5.7s9.1,10,9.1,18.6c0,8.7-3.1,15-9.3,18.8c-6.1,3.9-14.9,5.8-26.3,5.8h-5.4
				V96h-17.1V24.7c3.8-0.7,7.7-1.2,11.8-1.5C247.7,23,251.4,22.9,254.5,22.9z M255.6,36.8c-1.3,0-2.5,0-3.7,0.1s-2.2,0.1-3.1,0.2V58
				h5.4c5.9,0,10.4-0.8,13.4-2.3s4.5-4.4,4.5-8.6c0-2-0.4-3.7-1.1-5c-0.8-1.3-1.9-2.4-3.3-3.2s-3.2-1.4-5.2-1.7
				C260.3,36.9,258.1,36.8,255.6,36.8z"/>
			<path class="st9" d="M360.2,23.7v13.9h-22.9V96h-17.1V37.6h-22.9V23.7C297.2,23.7,360.2,23.7,360.2,23.7z"/>
		</g>
	</g>
</g>
</svg>
