<?xml version="1.0" encoding="utf-8"?>
<!-- Generator: Adobe Illustrator 16.0.0, SVG Export Plug-In . SVG Version: 6.00 Build 0)  -->
<!DOCTYPE svg PUBLIC "-//W3C//DTD SVG 1.1//EN" "http://www.w3.org/Graphics/SVG/1.1/DTD/svg11.dtd">
<svg version="1.1" id="图层_1" xmlns="http://www.w3.org/2000/svg" xmlns:xlink="http://www.w3.org/1999/xlink" x="0px" y="0px"
	 width="512px" height="512px" viewBox="0 0 512 512" enable-background="new 0 0 512 512" xml:space="preserve">
<rect x="68.199" y="8" opacity="0.2" enable-background="new    " width="374.594" height="496"/>
<rect x="68.199" y="8" opacity="0.08" enable-background="new    " width="382.594" height="504"/>
<rect x="72.199" y="12" opacity="0.1" enable-background="new    " width="374.594" height="496"/>
<rect x="72.199" y="12" fill="#0D47A1" width="366.594" height="488"/>
<g>
	<linearGradient id="SVGID_1_" gradientUnits="userSpaceOnUse" x1="255.5125" y1="13.9998" x2="255.5124" y2="498.0002">
		<stop  offset="0" style="stop-color:#64B5F6"/>
		<stop  offset="1" style="stop-color:#3F51B5"/>
	</linearGradient>
	<rect x="74.201" y="14" fill="url(#SVGID_1_)" width="362.622" height="484"/>
	<g opacity="0.8">
		<rect x="120.994" y="205.426" opacity="0.8" fill="#FFFFFF" enable-background="new    " width="268.847" height="13.281"/>
		<rect x="120.994" y="163.863" opacity="0.8" fill="#FFFFFF" enable-background="new    " width="268.847" height="13.329"/>
		<rect x="249.273" y="244.53" opacity="0.8" fill="#FFFFFF" enable-background="new    " width="140.379" height="140.411"/>
		<g opacity="0.8">
			<rect x="120.994" y="246.94" fill="#FFFFFF" width="116.777" height="13.329"/>
			<rect x="120.994" y="288.518" fill="#FFFFFF" width="116.777" height="13.298"/>
			<rect x="120.994" y="330.238" fill="#FFFFFF" width="116.777" height="13.297"/>
			<rect x="120.994" y="371.769" fill="#FFFFFF" width="116.777" height="13.297"/>
		</g>
	</g>
	<g>
		<rect x="74.107" y="14" opacity="0.8" fill="#FFFFFF" enable-background="new    " width="362.779" height="92.767"/>
		<g enable-background="new    ">
			<path fill="#236FB7" d="M211.366,60.32c0,6.302-1.04,11.722-3.089,16.385c-2.048,4.664-4.979,8.539-8.728,11.596
				c-3.75,3.057-8.351,5.357-13.771,6.869c-5.42,1.544-11.501,2.332-18.244,2.332c-3.057,0-6.649-0.126-10.745-0.378
				c-4.097-0.252-8.13-0.756-12.101-1.512V25.186c3.971-0.693,8.067-1.166,12.353-1.418s7.972-0.378,11.028-0.378
				c6.555,0,12.447,0.693,17.772,2.111c5.293,1.387,9.831,3.561,13.675,6.586c3.781,2.962,6.712,6.806,8.76,11.47
				C210.326,48.22,211.366,53.797,211.366,60.32z M161.831,83.291c0.819,0.095,1.733,0.126,2.805,0.158
				c1.04,0.032,2.301,0.063,3.781,0.063c8.571,0,14.904-2.08,19.063-6.176c4.128-4.097,6.177-9.769,6.177-17.016
				c0-7.563-1.954-13.298-5.924-17.205c-3.939-3.875-10.21-5.829-18.78-5.829c-1.135,0-2.363,0.031-3.593,0.031
				c-1.26,0.063-2.426,0.126-3.529,0.284V83.291z"/>
			<path fill="#236FB7" d="M298.115,60.32c0,6.208-0.978,11.659-2.931,16.354c-1.922,4.695-4.601,8.603-7.94,11.785
				c-3.372,3.183-7.374,5.546-12.037,7.153c-4.664,1.576-9.643,2.395-14.999,2.395c-5.168,0-10.083-0.819-14.684-2.395
				c-4.633-1.607-8.634-3.97-12.101-7.153c-3.435-3.183-6.145-7.09-8.13-11.785c-1.953-4.695-2.962-10.146-2.962-16.354
				c0-6.176,1.04-11.596,3.089-16.323c2.048-4.664,4.789-8.634,8.287-11.848c3.497-3.183,7.499-5.578,12.068-7.185
				c4.601-1.576,9.39-2.395,14.432-2.395c5.23,0,10.115,0.819,14.747,2.395c4.601,1.607,8.634,4.002,12.068,7.185
				c3.435,3.214,6.145,7.184,8.13,11.848C297.137,48.724,298.115,54.144,298.115,60.32z M240.04,60.32
				c0,3.561,0.441,6.774,1.355,9.61c0.913,2.868,2.237,5.325,3.938,7.342c1.733,2.08,3.845,3.655,6.302,4.79
				c2.521,1.071,5.357,1.638,8.571,1.638c3.151,0,5.987-0.567,8.508-1.638c2.553-1.135,4.663-2.71,6.396-4.79
				c1.733-2.017,3.025-4.474,3.938-7.342c0.914-2.836,1.387-6.05,1.387-9.61c0-3.529-0.473-6.744-1.387-9.643
				c-0.913-2.867-2.205-5.356-3.938-7.373c-1.733-2.08-3.844-3.655-6.396-4.79c-2.521-1.071-5.356-1.638-8.508-1.638
				c-3.214,0-6.05,0.567-8.571,1.702c-2.457,1.166-4.568,2.772-6.302,4.79c-1.701,2.08-3.025,4.537-3.938,7.436
				C240.482,53.703,240.04,56.854,240.04,60.32z"/>
			<path fill="#236FB7" d="M366.303,24.24v13.896h-22.972v58.42h-17.109v-58.42H303.25V24.24H366.303z"/>
		</g>
	</g>
</g>
</svg>
