<?xml version="1.0" encoding="utf-8"?>
<!-- Generator: Adobe Illustrator 21.0.0, SVG Export Plug-In . SVG Version: 6.00 Build 0)  -->
<svg version="1.1" id="图层_1" xmlns="http://www.w3.org/2000/svg" xmlns:xlink="http://www.w3.org/1999/xlink" x="0px" y="0px"
	 viewBox="0 0 512 512" style="enable-background:new 0 0 512 512;" xml:space="preserve">
<style type="text/css">
	.st0{opacity:0.08;enable-background:new    ;}
	.st1{opacity:0.1;enable-background:new    ;}
	.st2{opacity:0.2;enable-background:new    ;}
	.st3{fill:#E65100;}
	.st4{fill:url(#SVGID_1_);}
	.st5{fill:#E65100;fill-opacity:0.3922;}
	.st6{fill:#FFFFFF;fill-opacity:0.3922;}
	.st7{opacity:0.8;}
	.st8{fill:#FFFFFF;}
	.st9{opacity:0.8;fill:#FFFFFF;enable-background:new    ;}
	.st10{enable-background:new    ;}
	.st11{fill:#E64A19;}
</style>
<polygon class="st0" points="68.2,512 68.2,8 451.8,8 451.8,369.9 309.7,512 "/>
<polygon class="st1" points="72.2,508 72.2,12 447.8,12 447.8,368.3 308.1,508 "/>
<polygon class="st2" points="68.2,504 68.2,8 443.8,8 443.8,364.3 304.1,504 "/>
<polygon class="st3" points="72.2,500 72.2,12 438.8,12 438.8,362.6 301.8,500 "/>
<g>
	<g>
		<g>
			
				<linearGradient id="SVGID_1_" gradientUnits="userSpaceOnUse" x1="297.1001" y1="-403.9009" x2="297.1001" y2="80.0991" gradientTransform="matrix(1 0 0 -1 -41.6001 94.0991)">
				<stop  offset="0" style="stop-color:#EE6F0B"/>
				<stop  offset="1" style="stop-color:#FFB74D"/>
			</linearGradient>
			<polygon class="st4" points="74.2,498 74.2,14 436.8,14 436.8,361.9 300.7,498 			"/>
		</g>
		<polygon class="st5" points="436.8,361.9 436.8,356 293.2,356 293.2,498 300.7,498 		"/>
		<path class="st6" d="M300.5,361.9l136.3,0.2L300.7,498L300.5,361.9z"/>
	</g>
	<g class="st7">
		<rect x="121.4" y="200.3" class="st8" width="38.7" height="194"/>
		<rect x="185.9" y="297.1" class="st8" width="38.7" height="97"/>
		<rect x="250.3" y="336.6" class="st8" width="38.7" height="58.1"/>
		<g>
			<path class="st8" d="M302.9,166l0.4,77.2l77.2-0.4c0.2,42.8-34.3,77.5-77,77.6c-42.7,0.2-77.4-34.3-77.6-77
				C225.7,200.9,260.1,166.2,302.9,166z"/>
			<path class="st8" d="M312,157.2c42.8-0.2,77.5,34.3,77.6,77l-77.2,0.4L312,157.2z"/>
		</g>
	</g>
	<g>
		<rect x="74.1" y="14" class="st9" width="362.8" height="92.8"/>
		<g class="st10">
			<path class="st11" d="M178.7,22.9c11.4,0,20.1,1.9,26.2,5.7c6.1,3.8,9.1,10,9.1,18.6c0,8.7-3.1,15-9.2,18.8
				c-6.1,3.9-14.9,5.8-26.3,5.8H173V96h-17.1V24.7c3.7-0.7,7.7-1.2,11.8-1.5C171.9,23,175.5,22.9,178.7,22.9z M179.8,36.8
				c-1.2,0-2.5,0-3.7,0.1s-2.3,0.1-3.2,0.2V58h5.4c5.9,0,10.4-0.8,13.4-2.3s4.5-4.4,4.5-8.5c0-2-0.4-3.7-1.2-5s-1.9-2.4-3.3-3.2
				c-1.4-0.8-3.2-1.4-5.2-1.7C184.5,36.9,182.3,36.8,179.8,36.8z"/>
			<path class="st11" d="M249.4,22.9c11.4,0,20.1,1.9,26.2,5.7s9.1,10,9.1,18.6c0,8.7-3.1,15-9.3,18.8c-6.1,3.9-14.9,5.8-26.3,5.8
				h-5.4V96h-17.1V24.7c3.7-0.7,7.7-1.2,11.8-1.5C242.6,23,246.2,22.9,249.4,22.9z M250.5,36.8c-1.3,0-2.5,0-3.7,0.1
				s-2.2,0.1-3.1,0.2V58h5.4c5.9,0,10.4-0.8,13.4-2.3s4.5-4.4,4.5-8.5c0-2-0.4-3.7-1.1-5c-0.8-1.3-1.9-2.4-3.3-3.2s-3.2-1.4-5.2-1.7
				C255.2,36.9,253,36.8,250.5,36.8z"/>
			<path class="st11" d="M355.1,23.7v13.9h-22.9V96h-17.1V37.6h-22.9V23.7H355.1z"/>
		</g>
	</g>
</g>
</svg>
