<?xml version="1.0" encoding="utf-8"?>
<!-- Generator: Adobe Illustrator 16.0.0, SVG Export Plug-In . SVG Version: 6.00 Build 0)  -->
<!DOCTYPE svg PUBLIC "-//W3C//DTD SVG 1.1//EN" "http://www.w3.org/Graphics/SVG/1.1/DTD/svg11.dtd">
<svg version="1.1" id="图层_1" xmlns="http://www.w3.org/2000/svg" xmlns:xlink="http://www.w3.org/1999/xlink" x="0px" y="0px"
	 width="512px" height="512px" viewBox="0 0 512 512" enable-background="new 0 0 512 512" xml:space="preserve">
<rect x="68.199" y="8" opacity="0.2" enable-background="new    " width="374.594" height="496"/>
<rect x="68.199" y="8" opacity="0.08" enable-background="new    " width="382.594" height="504"/>
<rect x="72.199" y="12" opacity="0.1" enable-background="new    " width="374.594" height="496"/>
<rect x="72.199" y="12" fill="#E65100" width="366.594" height="488"/>
<g>
	
		<linearGradient id="SVGID_1_" gradientUnits="userSpaceOnUse" x1="338.6956" y1="1322.8005" x2="338.6955" y2="838.8005" gradientTransform="matrix(1 0 0 1 -83.2002 -824.8008)">
		<stop  offset="0" style="stop-color:#EE6F0B"/>
		<stop  offset="1" style="stop-color:#FFB74D"/>
	</linearGradient>
	<rect x="74.185" y="14" fill="url(#SVGID_1_)" width="362.622" height="484"/>
	<g opacity="0.8">
		<rect x="121.404" y="200.305" fill="#FFFFFF" width="38.711" height="194.025"/>
		<rect x="185.937" y="297.121" fill="#FFFFFF" width="38.71" height="96.989"/>
		<rect x="250.266" y="336.635" fill="#FFFFFF" width="38.694" height="58.105"/>
		<g>
			<path fill="#FFFFFF" d="M302.888,166.053l0.441,77.231l77.231-0.409c0.221,42.744-34.314,77.437-77.043,77.626
				c-42.791,0.252-77.452-34.283-77.673-77.012C225.656,200.92,260.144,166.242,302.888,166.053z"/>
			<path fill="#FFFFFF" d="M311.963,157.136c42.76-0.189,77.452,34.299,77.642,77.058l-77.2,0.426L311.963,157.136z"/>
		</g>
	</g>
	<g>
		<rect x="74.091" y="14" opacity="0.8" fill="#FFFFFF" enable-background="new    " width="362.811" height="92.767"/>
		<g enable-background="new    ">
			<path fill="#E64A19" d="M217.401,59.8c0,6.271-1.04,11.722-3.089,16.386c-2.048,4.679-4.946,8.523-8.728,11.58
				c-3.75,3.056-8.351,5.356-13.771,6.9c-5.42,1.513-11.501,2.269-18.245,2.269c-3.056,0-6.648-0.126-10.745-0.378
				c-4.096-0.22-8.129-0.725-12.068-1.512V24.65c3.939-0.693,8.067-1.166,12.352-1.418c4.286-0.236,7.941-0.362,11.029-0.362
				c6.522,0,12.415,0.693,17.741,2.096c5.293,1.386,9.862,3.576,13.675,6.57c3.781,2.993,6.712,6.822,8.76,11.47
				C216.361,47.669,217.401,53.262,217.401,59.8z M167.866,82.756c0.819,0.063,1.733,0.126,2.804,0.157
				c1.071,0.032,2.332,0.032,3.781,0.032c8.571,0,14.937-2.017,19.063-6.129c4.128-4.112,6.208-9.784,6.208-17.016
				c0-7.578-1.985-13.313-5.924-17.205c-3.971-3.892-10.209-5.845-18.78-5.845c-1.166,0-2.395,0.016-3.624,0.047
				c-1.261,0.047-2.427,0.126-3.529,0.268V82.756z"/>
			<path fill="#E64A19" d="M254.52,22.87c11.344,0,20.04,1.906,26.122,5.688c6.081,3.797,9.138,10.005,9.138,18.623
				c0,8.697-3.088,14.967-9.264,18.827c-6.113,3.86-14.937,5.798-26.343,5.798h-5.357V95.99h-17.142V24.745
				c3.75-0.693,7.688-1.182,11.849-1.45C247.713,23.012,251.368,22.87,254.52,22.87z M255.622,36.75
				c-1.261,0-2.489,0.032-3.687,0.11c-1.197,0.063-2.237,0.126-3.12,0.205v20.86h5.357c5.924,0,10.398-0.756,13.423-2.3
				c2.962-1.528,4.475-4.38,4.475-8.555c0-2.017-0.378-3.671-1.134-4.995c-0.757-1.323-1.891-2.395-3.309-3.183
				c-1.418-0.803-3.183-1.355-5.199-1.67C260.349,36.908,258.08,36.75,255.622,36.75z"/>
			<path fill="#E64A19" d="M360.237,23.705v13.88h-22.939V95.99h-17.142V37.585h-22.939v-13.88H360.237z"/>
		</g>
	</g>
</g>
</svg>
