<?xml version="1.0" encoding="utf-8"?>
<!-- Generator: Adobe Illustrator 21.0.0, SVG Export Plug-In . SVG Version: 6.00 Build 0)  -->
<svg version="1.1" id="图层_1" xmlns="http://www.w3.org/2000/svg" xmlns:xlink="http://www.w3.org/1999/xlink" x="0px" y="0px"
	 viewBox="0 0 512 512" style="enable-background:new 0 0 512 512;" xml:space="preserve">
<style type="text/css">
	.st0{opacity:0.2;enable-background:new    ;}
	.st1{opacity:0.08;enable-background:new    ;}
	.st2{opacity:0.1;enable-background:new    ;}
	.st3{fill:#0D47A1;}
	.st4{fill:url(#SVGID_1_);}
	.st5{opacity:0.8;}
	.st6{opacity:0.8;fill:#FFFFFF;enable-background:new    ;}
	.st7{fill:#FFFFFF;}
	.st8{enable-background:new    ;}
	.st9{fill:#236FB7;}
</style>
<rect x="68.2" y="8" class="st0" width="374.6" height="496"/>
<rect x="68.2" y="8" class="st1" width="382.6" height="504"/>
<rect x="72.2" y="12" class="st2" width="374.6" height="496"/>
<rect x="72.2" y="12" class="st3" width="366.6" height="488"/>
<g>
	
		<linearGradient id="SVGID_1_" gradientUnits="userSpaceOnUse" x1="255.5" y1="292" x2="255.5" y2="776" gradientTransform="matrix(1 0 0 1 0 -278)">
		<stop  offset="0" style="stop-color:#64B5F6"/>
		<stop  offset="1" style="stop-color:#3F51B5"/>
	</linearGradient>
	<rect x="74.2" y="14" class="st4" width="362.6" height="484"/>
	<g class="st5">
		<rect x="121" y="205.4" class="st6" width="268.8" height="13.3"/>
		<rect x="121" y="163.9" class="st6" width="268.8" height="13.3"/>
		<rect x="249.3" y="244.5" class="st6" width="140.4" height="140.4"/>
		<g class="st5">
			<rect x="121" y="246.9" class="st7" width="116.8" height="13.3"/>
			<rect x="121" y="288.5" class="st7" width="116.8" height="13.3"/>
			<rect x="121" y="330.2" class="st7" width="116.8" height="13.3"/>
			<rect x="121" y="371.8" class="st7" width="116.8" height="13.3"/>
		</g>
	</g>
	<g>
		<rect x="74.1" y="14" class="st6" width="362.8" height="92.8"/>
		<g class="st8">
			<path class="st9" d="M193.6,32c0.9,2.8,1.9,6.1,2.9,9.6c1,3.6,2.2,7.3,3.4,11.1s2.4,7.7,3.7,11.5c1.3,3.8,2.5,7.4,3.6,10.7
				c1-3.6,2-7.4,3-11.6s1.9-8.5,2.8-13c0.9-4.4,1.8-8.9,2.6-13.3c0.9-4.4,1.6-8.6,2.4-12.8h17.8c-2.6,12.1-5.5,24.4-8.9,36.8
				s-7,24.3-10.9,35.5h-15.7c-2.6-6.7-5-13.7-7.4-21s-4.8-14.7-7.1-22.1c-2.4,7.4-4.7,14.7-7.1,22.1c-2.3,7.4-4.8,14.4-7.4,21h-15.6
				c-3.9-11.2-7.5-23-10.9-35.5c-3.3-12.4-6.3-24.7-8.9-36.8h18.6c0.8,4.1,1.5,8.4,2.4,12.8s1.8,8.9,2.8,13.3
				c0.9,4.4,1.9,8.8,2.9,13s2,8,3,11.6c1.3-3.4,2.6-7,3.8-10.9c1.3-3.8,2.5-7.6,3.7-11.5c1.1-3.8,2.2-7.5,3.2-11
				c1-3.6,1.9-6.7,2.7-9.5C179,32,193.6,32,193.6,32z"/>
			<path class="st9" d="M269.4,23.4c11.4,0,20.1,1.9,26.2,5.7s9.1,10,9.1,18.6c0,8.7-3.1,15-9.3,18.8c-6.1,3.8-14.9,5.8-26.3,5.8
				h-5.4v24.2h-17.1V25.3c3.7-0.7,7.7-1.2,11.8-1.4C262.6,23.5,266.2,23.4,269.4,23.4z M270.5,37.3c-1.3,0-2.5,0-3.7,0.1
				s-2.2,0.1-3.1,0.2v20.9h5.4c5.9,0,10.4-0.8,13.4-2.3s4.5-4.4,4.5-8.6c0-2-0.4-3.7-1.1-5c-0.8-1.3-1.9-2.4-3.3-3.2
				s-3.2-1.4-5.2-1.7C275.2,37.4,273,37.3,270.5,37.3z"/>
			<path class="st9" d="M375.1,24.2v13.9h-22.9v58.4H335V38.1h-22.9V24.2H375.1z"/>
		</g>
	</g>
</g>
</svg>
