<?xml version="1.0" encoding="utf-8"?>
<!-- Generator: Adobe Illustrator 21.0.0, SVG Export Plug-In . SVG Version: 6.00 Build 0)  -->
<svg version="1.1" id="图层_1" xmlns="http://www.w3.org/2000/svg" xmlns:xlink="http://www.w3.org/1999/xlink" x="0px" y="0px"
	 viewBox="0 0 512 512" style="enable-background:new 0 0 512 512;" xml:space="preserve">
<style type="text/css">
	.st0{opacity:0.2;enable-background:new    ;}
	.st1{opacity:0.08;enable-background:new    ;}
	.st2{opacity:0.1;enable-background:new    ;}
	.st3{fill:#E65100;}
	.st4{fill:url(#SVGID_1_);}
	.st5{opacity:0.8;}
	.st6{fill:#FFFFFF;}
	.st7{opacity:0.8;fill:#FFFFFF;enable-background:new    ;}
	.st8{enable-background:new    ;}
	.st9{fill:#E64A19;}
</style>
<rect x="68.2" y="8" class="st0" width="374.6" height="496"/>
<rect x="68.2" y="8" class="st1" width="382.6" height="504"/>
<rect x="72.2" y="12" class="st2" width="374.6" height="496"/>
<rect x="72.2" y="12" class="st3" width="366.6" height="488"/>
<g>
	
		<linearGradient id="SVGID_1_" gradientUnits="userSpaceOnUse" x1="338.7002" y1="1600.8008" x2="338.7002" y2="1116.8008" gradientTransform="matrix(1 0 0 1 -83.2002 -1102.8008)">
		<stop  offset="0" style="stop-color:#EE6F0B"/>
		<stop  offset="1" style="stop-color:#FFB74D"/>
	</linearGradient>
	<rect x="74.2" y="14" class="st4" width="362.6" height="484"/>
	<g class="st5">
		<rect x="121.4" y="200.3" class="st6" width="38.7" height="194"/>
		<rect x="185.9" y="297.1" class="st6" width="38.7" height="97"/>
		<rect x="250.3" y="336.6" class="st6" width="38.7" height="58.1"/>
		<g>
			<path class="st6" d="M302.9,166.1l0.4,77.2l77.2-0.4c0.2,42.7-34.3,77.4-77,77.6c-42.8,0.3-77.5-34.3-77.7-77
				C225.7,200.9,260.1,166.2,302.9,166.1z"/>
			<path class="st6" d="M312,157.1c42.8-0.2,77.5,34.3,77.6,77.1l-77.2,0.4L312,157.1z"/>
		</g>
	</g>
	<g>
		<rect x="74.1" y="14" class="st7" width="362.8" height="92.8"/>
		<g class="st8">
			<path class="st9" d="M172.6,22.9c11.4,0,20.1,1.9,26.2,5.7c6.1,3.8,9.1,10,9.1,18.6c0,8.7-3.1,15-9.2,18.8
				c-6.1,3.9-14.9,5.8-26.3,5.8H167V96h-17.1V24.7c3.7-0.7,7.7-1.2,11.8-1.5C165.8,23,169.5,22.9,172.6,22.9z M173.7,36.8
				c-1.2,0-2.5,0-3.7,0.1s-2.3,0.1-3.2,0.2V58h5.4c5.9,0,10.4-0.8,13.4-2.3s4.5-4.4,4.5-8.6c0-2-0.4-3.7-1.2-5s-1.9-2.4-3.3-3.2
				c-1.4-0.8-3.2-1.4-5.2-1.7C178.5,36.9,176.2,36.8,173.7,36.8z"/>
			<path class="st9" d="M293,59.8c0,6.2-1,11.6-2.9,16.3c-2,4.7-4.6,8.6-8,11.8c-3.4,3.2-7.4,5.5-12,7.1s-9.6,2.4-15,2.4
				c-5.2,0-10.1-0.8-14.7-2.4c-4.6-1.6-8.6-4-12.1-7.1c-3.4-3.2-6.1-7.1-8.1-11.8c-2-4.7-3-10.1-3-16.3s1-11.6,3.1-16.3
				s4.8-8.6,8.3-11.8s7.5-5.6,12.1-7.2s9.4-2.4,14.4-2.4c5.2,0,10.1,0.8,14.7,2.4s8.6,4,12.1,7.2c3.4,3.2,6.1,7.2,8.1,11.8
				C292,48.2,293,53.6,293,59.8z M234.9,59.8c0,3.5,0.4,6.8,1.4,9.6c0.9,2.9,2.2,5.3,4,7.4c1.7,2.1,3.8,3.6,6.3,4.7s5.4,1.7,8.6,1.7
				c3.2,0,6-0.6,8.5-1.7s4.6-2.7,6.4-4.7c1.7-2,3-4.5,3.9-7.4c0.9-2.8,1.4-6,1.4-9.6s-0.5-6.8-1.4-9.6s-2.2-5.4-3.9-7.4
				c-1.7-2-3.8-3.6-6.4-4.8c-2.5-1.1-5.4-1.7-8.5-1.7c-3.2,0-6.1,0.6-8.6,1.7s-4.6,2.7-6.3,4.8s-3.1,4.5-4,7.4
				C235.4,53.2,234.9,56.3,234.9,59.8z"/>
			<path class="st9" d="M361.2,23.7v13.9h-23V96h-17.1V37.6h-23V23.7H361.2z"/>
		</g>
	</g>
</g>
</svg>
