<?xml version="1.0" encoding="utf-8"?>
<!-- Generator: Adobe Illustrator 21.0.0, SVG Export Plug-In . SVG Version: 6.00 Build 0)  -->
<svg version="1.1" id="图层_1" xmlns="http://www.w3.org/2000/svg" xmlns:xlink="http://www.w3.org/1999/xlink" x="0px" y="0px"
	 viewBox="0 0 512 512" style="enable-background:new 0 0 512 512;" xml:space="preserve">
<style type="text/css">
	.st0{opacity:0.08;enable-background:new    ;}
	.st1{opacity:0.1;enable-background:new    ;}
	.st2{opacity:0.2;enable-background:new    ;}
	.st3{fill:#1B5E20;}
	.st4{fill:url(#SVGID_1_);}
	.st5{fill:#1B5E20;fill-opacity:0.39;}
	.st6{fill:#FFFFFF;fill-opacity:0.3922;}
	.st7{opacity:0.8;fill:#FFFFFF;enable-background:new    ;}
	.st8{enable-background:new    ;}
	.st9{fill:#388E3C;}
</style>
<polygon class="st0" points="68.2,512 68.2,8 451.8,8 451.8,369.9 309.7,512 "/>
<polygon class="st1" points="72.2,508 72.2,12 447.8,12 447.8,368.3 308.1,508 "/>
<polygon class="st2" points="68.2,504 68.2,8 443.8,8 443.8,364.3 304.1,504 "/>
<polygon class="st3" points="72.2,500 72.2,12 438.8,12 438.8,362.6 301.8,500 "/>
<g>
	<g>
		<g>
			<g>
				
					<linearGradient id="SVGID_1_" gradientUnits="userSpaceOnUse" x1="338.7002" y1="-822.8013" x2="338.7002" y2="-338.8013" gradientTransform="matrix(1 0 0 -1 -83.2002 -324.8013)">
					<stop  offset="0" style="stop-color:#388E3C"/>
					<stop  offset="0.0757" style="stop-color:#43953E"/>
					<stop  offset="0.3246" style="stop-color:#62A943"/>
					<stop  offset="0.5665" style="stop-color:#79B747"/>
					<stop  offset="0.796" style="stop-color:#86C049"/>
					<stop  offset="1" style="stop-color:#8BC34A"/>
				</linearGradient>
				<polygon class="st4" points="74.2,498 74.2,14 436.8,14 436.8,361.9 300.7,498 				"/>
			</g>
			<polygon class="st5" points="436.8,361.9 436.8,356 293.2,356 293.2,498 300.7,498 			"/>
			<path class="st6" d="M300.5,361.9l136.3,0.2L300.7,498L300.5,361.9z"/>
		</g>
		<path class="st7" d="M264.4,120.9v-0.4h-17.9v0.4H130.8v225.5H380V120.9H264.4z M148.8,187.8h55.6v36h-55.6L148.8,187.8
			L148.8,187.8z M148.8,241.8h55.6v36h-55.6L148.8,241.8L148.8,241.8z M222.9,241.8h139.2v36H222.9V241.8z M222.9,223.9v-36h139.2
			v36H222.9z M362.2,139v31H222.9v-31H362.2z M204.4,139v31h-55.6v-31H204.4z M148.8,295.9h55.6v32.4h-55.6L148.8,295.9L148.8,295.9
			z M222.9,328.3v-32.4h139.2v32.4H222.9z"/>
	</g>
	<g>
		<rect x="74.1" y="14" class="st7" width="362.8" height="92.8"/>
		<g class="st8">
			<path class="st9" d="M207.2,96c-2.1-4-4.5-8.1-7-12.2c-2.6-4.1-5.5-7.6-8.8-10.5c-1,1.1-2.3,2.6-3.9,4.5c-1.6,1.9-3.1,4-4.7,6.1
				c-1.6,2.1-3,4.3-4.4,6.7s-2.4,4.1-3.1,5.4h-19.5c3.2-5.6,7-11.5,11.3-17.5s9.2-12.4,14.6-19.2l-24.8-35.7h20.7l14.5,20.9
				l14.8-20.9h19.5l-24.7,34.9c6.5,7.7,11.8,14.7,16,21.2c4.2,6.4,7.5,11.8,9.9,16.2h-20.4V96z"/>
			<path class="st9" d="M288.4,82v14h-50.8V23.7h17.1V82H288.4z"/>
			<path class="st9" d="M322,83.6c2.5,0,4.4-0.2,6-0.6s2.8-0.9,3.8-1.6c1-0.6,1.6-1.4,2-2.3s0.6-1.9,0.6-3c0-2.4-1.2-4.3-3.5-5.9
				s-6.4-3.2-12.1-5.1c-2.5-0.8-5-1.8-7.4-2.8c-2.5-1.1-4.7-2.5-6.7-4.1s-3.6-3.6-4.8-5.9c-1.3-2.3-1.9-5.2-1.9-8.5s0.6-6.4,2-9
				c1.3-2.7,3.2-5,5.6-6.9c2.5-1.9,5.4-3.3,8.8-4.3c3.4-1,7.3-1.5,11.6-1.5c5.2,0,9.6,0.5,13.3,1.6c3.7,1,6.8,2.2,9.3,3.4l-5,12.9
				c-2.1-1.1-4.5-2-7.1-2.8s-5.7-1.2-9.4-1.2c-4.1,0-7.1,0.5-8.9,1.6s-2.6,2.7-2.6,4.9c0,1.3,0.3,2.5,0.9,3.3
				c0.7,0.9,1.6,1.7,2.8,2.5c1.2,0.7,2.6,1.4,4.2,2s3.3,1.2,5.2,1.8c4,1.4,7.4,2.8,10.3,4.2c2.9,1.3,5.4,2.9,7.3,4.7
				s3.3,3.9,4.3,6.4c0.9,2.5,1.4,5.4,1.4,8.9c0,6.7-2.5,12-7.4,15.7c-5,3.7-12.5,5.6-22.6,5.6c-3.3,0-6.4-0.2-9.1-0.6
				s-5.1-0.8-7.2-1.4s-3.9-1.1-5.4-1.8c-1.5-0.6-2.8-1.2-3.8-1.8l4.9-13c2.3,1.2,5,2.2,8.4,3.2S317.2,83.6,322,83.6z"/>
		</g>
	</g>
</g>
</svg>
