<?xml version="1.0" encoding="utf-8"?>
<!-- Generator: Adobe Illustrator 21.0.0, SVG Export Plug-In . SVG Version: 6.00 Build 0)  -->
<svg version="1.1" id="图层_1" xmlns="http://www.w3.org/2000/svg" xmlns:xlink="http://www.w3.org/1999/xlink" x="0px" y="0px"
	 viewBox="0 0 512 512" style="enable-background:new 0 0 512 512;" xml:space="preserve">
<style type="text/css">
	.st0{opacity:0.08;enable-background:new    ;}
	.st1{opacity:0.1;enable-background:new    ;}
	.st2{opacity:0.2;enable-background:new    ;}
	.st3{fill:#0D47A1;}
	.st4{fill:url(#SVGID_1_);}
	.st5{fill:#2196F3;fill-opacity:0.7;}
	.st6{opacity:0.39;fill:#FFFFFF;enable-background:new    ;}
	.st7{opacity:0.8;}
	.st8{opacity:0.8;fill:url(#SVGID_2_);enable-background:new    ;}
	.st9{opacity:0.8;fill:url(#SVGID_3_);enable-background:new    ;}
	.st10{opacity:0.8;fill:url(#SVGID_4_);enable-background:new    ;}
	.st11{fill:url(#SVGID_5_);}
	.st12{fill:url(#SVGID_6_);}
	.st13{fill:url(#SVGID_7_);}
	.st14{fill:url(#SVGID_8_);}
	.st15{opacity:0.8;fill:#FFFFFF;enable-background:new    ;}
	.st16{fill:#1976D2;}
</style>
<polygon class="st0" points="68.2,512 68.2,8 451.8,8 451.8,369.9 309.7,512 "/>
<polygon class="st1" points="72.2,508 72.2,12 447.8,12 447.8,368.3 308.1,508 "/>
<polygon class="st2" points="68.2,504 68.2,8 443.8,8 443.8,364.3 304.1,504 "/>
<polygon class="st3" points="72.2,500 72.2,12 438.8,12 438.8,362.6 301.8,500 "/>
<g>
	<g>
		<g>
			<g>
				
					<linearGradient id="SVGID_1_" gradientUnits="userSpaceOnUse" x1="255.65" y1="776" x2="255.65" y2="292" gradientTransform="matrix(1 0 0 1 0 -278)">
					<stop  offset="0" style="stop-color:#3F51B5"/>
					<stop  offset="1" style="stop-color:#64B5F6"/>
				</linearGradient>
				<polygon class="st4" points="74.3,498 74.3,14 437,14 437,361.9 300.8,498 				"/>
			</g>
			<polygon class="st5" points="437,361.9 437,356 293.4,356 293.4,498 300.8,498 			"/>
			<path class="st6" d="M300.7,361.9l136.3,0.2L300.8,498L300.7,361.9z"/>
		</g>
		<g class="st7">
			
				<linearGradient id="SVGID_2_" gradientUnits="userSpaceOnUse" x1="128.1" y1="457.1" x2="383" y2="457.1" gradientTransform="matrix(1 0 0 1 0 -278)">
				<stop  offset="0" style="stop-color:#F6F5F5"/>
				<stop  offset="0.341" style="stop-color:#F1F2F3"/>
				<stop  offset="0.6434" style="stop-color:#E7EAEB"/>
				<stop  offset="0.9302" style="stop-color:#D5DBDF"/>
				<stop  offset="1" style="stop-color:#CFD7DB"/>
			</linearGradient>
			<rect x="128.1" y="172.8" class="st8" width="254.9" height="12.6"/>
			
				<linearGradient id="SVGID_3_" gradientUnits="userSpaceOnUse" x1="128.1" y1="417.7" x2="383" y2="417.7" gradientTransform="matrix(1 0 0 1 0 -278)">
				<stop  offset="0" style="stop-color:#F6F5F5"/>
				<stop  offset="0.341" style="stop-color:#F1F2F3"/>
				<stop  offset="0.6434" style="stop-color:#E7EAEB"/>
				<stop  offset="0.9302" style="stop-color:#D5DBDF"/>
				<stop  offset="1" style="stop-color:#CFD7DB"/>
			</linearGradient>
			<rect x="128.1" y="133.4" class="st9" width="254.9" height="12.6"/>
			
				<linearGradient id="SVGID_4_" gradientUnits="userSpaceOnUse" x1="249.7" y1="554.45" x2="382.8" y2="554.45" gradientTransform="matrix(1 0 0 1 0 -278)">
				<stop  offset="0" style="stop-color:#F6F5F5"/>
				<stop  offset="0.341" style="stop-color:#F1F2F3"/>
				<stop  offset="0.6434" style="stop-color:#E7EAEB"/>
				<stop  offset="0.9302" style="stop-color:#D5DBDF"/>
				<stop  offset="1" style="stop-color:#CFD7DB"/>
			</linearGradient>
			<rect x="249.7" y="209.9" class="st10" width="133.1" height="133.1"/>
			<g class="st7">
				
					<linearGradient id="SVGID_5_" gradientUnits="userSpaceOnUse" x1="128.1" y1="496.5" x2="238.8" y2="496.5" gradientTransform="matrix(1 0 0 1 0 -278)">
					<stop  offset="0" style="stop-color:#F6F5F5"/>
					<stop  offset="0.341" style="stop-color:#F1F2F3"/>
					<stop  offset="0.6434" style="stop-color:#E7EAEB"/>
					<stop  offset="0.9302" style="stop-color:#D5DBDF"/>
					<stop  offset="1" style="stop-color:#CFD7DB"/>
				</linearGradient>
				<rect x="128.1" y="212.2" class="st11" width="110.7" height="12.6"/>
				
					<linearGradient id="SVGID_6_" gradientUnits="userSpaceOnUse" x1="128.1" y1="535.9" x2="238.8" y2="535.9" gradientTransform="matrix(1 0 0 1 0 -278)">
					<stop  offset="0" style="stop-color:#F6F5F5"/>
					<stop  offset="0.341" style="stop-color:#F1F2F3"/>
					<stop  offset="0.6434" style="stop-color:#E7EAEB"/>
					<stop  offset="0.9302" style="stop-color:#D5DBDF"/>
					<stop  offset="1" style="stop-color:#CFD7DB"/>
				</linearGradient>
				<rect x="128.1" y="251.6" class="st12" width="110.7" height="12.6"/>
				
					<linearGradient id="SVGID_7_" gradientUnits="userSpaceOnUse" x1="128.1" y1="575.4" x2="238.8" y2="575.4" gradientTransform="matrix(1 0 0 1 0 -278)">
					<stop  offset="0" style="stop-color:#F6F5F5"/>
					<stop  offset="0.341" style="stop-color:#F1F2F3"/>
					<stop  offset="0.6434" style="stop-color:#E7EAEB"/>
					<stop  offset="0.9302" style="stop-color:#D5DBDF"/>
					<stop  offset="1" style="stop-color:#CFD7DB"/>
				</linearGradient>
				<rect x="128.1" y="291.1" class="st13" width="110.7" height="12.6"/>
				
					<linearGradient id="SVGID_8_" gradientUnits="userSpaceOnUse" x1="128.1" y1="614.8" x2="238.8" y2="614.8" gradientTransform="matrix(1 0 0 1 0 -278)">
					<stop  offset="0" style="stop-color:#F6F5F5"/>
					<stop  offset="0.341" style="stop-color:#F1F2F3"/>
					<stop  offset="0.6434" style="stop-color:#E7EAEB"/>
					<stop  offset="0.9302" style="stop-color:#D5DBDF"/>
					<stop  offset="1" style="stop-color:#CFD7DB"/>
				</linearGradient>
				<rect x="128.1" y="330.5" class="st14" width="110.7" height="12.6"/>
			</g>
		</g>
	</g>
	<g>
		<rect x="74" y="14" class="st15" width="362.8" height="92.8"/>
	</g>
	<g>
		<path class="st16" d="M195.9,32c0.9,2.8,1.8,6.1,2.9,9.6c1.1,3.6,2.2,7.3,3.4,11.1s2.4,7.7,3.7,11.5c1.2,3.8,2.4,7.4,3.6,10.7
			c1-3.6,1.9-7.4,2.9-11.6s1.9-8.5,2.8-13c0.9-4.4,1.7-8.9,2.6-13.3c0.9-4.4,1.6-8.6,2.4-12.8H238c-2.6,12.1-5.5,24.4-8.9,36.8
			c-3.3,12.4-7,24.3-10.9,35.5h-15.7c-2.6-6.7-5-13.7-7.5-21c-2.4-7.3-4.8-14.7-7.1-22.1c-2.3,7.4-4.7,14.7-7,22.1s-4.8,14.4-7.4,21
			H158c-3.9-11.2-7.5-23-10.9-35.5c-3.4-12.4-6.3-24.7-8.9-36.8h18.6c0.7,4.1,1.5,8.4,2.4,12.8s1.8,8.9,2.8,13.3s1.9,8.8,2.9,13
			s2,8,3,11.6c1.3-3.4,2.6-7,3.8-10.9c1.2-3.8,2.5-7.6,3.6-11.5c1.2-3.8,2.3-7.5,3.2-11c1-3.6,1.9-6.7,2.7-9.5
			C181.4,32,195.9,32,195.9,32z"/>
		<path class="st16" d="M271.7,23.4c11.4,0,20.1,1.9,26.2,5.7s9.1,10,9.1,18.6c0,8.7-3.1,15-9.2,18.8c-6.2,3.8-14.9,5.8-26.4,5.8
			H266v24.2h-17.1V25.3c3.7-0.7,7.7-1.2,11.8-1.4C264.9,23.5,268.6,23.4,271.7,23.4z M272.9,37.3c-1.3,0-2.5,0-3.7,0.1
			c-1.3,0.1-2.3,0.1-3.2,0.2v20.9h5.4c5.9,0,10.4-0.8,13.4-2.3s4.5-4.4,4.5-8.6c0-2-0.4-3.7-1.1-5c-0.8-1.3-1.9-2.4-3.3-3.2
			c-1.5-0.8-3.2-1.4-5.2-1.7C277.6,37.4,275.3,37.3,272.9,37.3z"/>
		<path class="st16" d="M340.4,84.1c2.5,0,4.4-0.2,6-0.6s2.8-0.9,3.8-1.6c0.9-0.7,1.6-1.4,2-2.4s0.6-1.9,0.6-3
			c0-2.4-1.2-4.3-3.5-5.9s-6.4-3.2-12.1-5c-2.5-0.9-5-1.8-7.4-2.9c-2.5-1.1-4.7-2.4-6.7-4s-3.6-3.7-4.8-6c-1.3-2.3-1.9-5.2-1.9-8.5
			s0.7-6.3,2-9c1.3-2.6,3.2-4.9,5.6-6.8c2.5-1.9,5.4-3.3,8.8-4.3s7.3-1.5,11.6-1.5c5.2,0,9.6,0.5,13.3,1.6c3.8,1,6.8,2.2,9.3,3.4
			l-5,12.8c-2.1-1-4.5-2-7.1-2.8s-5.7-1.2-9.4-1.2c-4.1,0-7.1,0.6-8.8,1.6c-1.8,1.1-2.7,2.7-2.7,4.9c0,1.3,0.3,2.4,1,3.3
			c0.6,0.9,1.6,1.7,2.8,2.5s2.6,1.4,4.2,2s3.3,1.2,5.2,1.8c4,1.4,7.4,2.8,10.3,4.1c2.9,1.4,5.4,3,7.3,4.8s3.3,3.9,4.4,6.4
			c0.9,2.4,1.4,5.4,1.4,8.9c0,6.7-2.5,12-7.4,15.7c-5,3.8-12.5,5.6-22.6,5.6c-3.3,0-6.4-0.2-9.1-0.6s-5.1-0.9-7.2-1.4
			s-3.9-1.2-5.4-1.8c-1.4-0.6-2.8-1.2-3.8-1.8l4.9-12.9c2.3,1.2,5,2.2,8.4,3.2C331.5,83.6,335.6,84.1,340.4,84.1z"/>
	</g>
</g>
</svg>
