<?xml version="1.0" encoding="utf-8"?>
<!-- Generator: Adobe Illustrator 16.0.0, SVG Export Plug-In . SVG Version: 6.00 Build 0)  -->
<!DOCTYPE svg PUBLIC "-//W3C//DTD SVG 1.1//EN" "http://www.w3.org/Graphics/SVG/1.1/DTD/svg11.dtd">
<svg version="1.1" id="图层_1" xmlns="http://www.w3.org/2000/svg" xmlns:xlink="http://www.w3.org/1999/xlink" x="0px" y="0px"
	 width="512px" height="512px" viewBox="0 0 512 512" enable-background="new 0 0 512 512" xml:space="preserve">
<polygon opacity="0.08" enable-background="new    " points="68.2,512 68.2,8 451.801,8 451.801,369.913 309.714,512 "/>
<polygon opacity="0.1" enable-background="new    " points="72.2,508 72.2,12 447.801,12 447.801,368.256 308.057,508 "/>
<polygon opacity="0.2" enable-background="new    " points="68.2,504 68.2,8 443.801,8 443.801,364.256 304.058,504 "/>
<polygon fill="#E65100" points="72.199,500 72.199,12 438.793,12 438.793,362.598 301.776,500 "/>
<g>
	<g>
		<g>
			
				<linearGradient id="SVGID_1_" gradientUnits="userSpaceOnUse" x1="297.1028" y1="-149.9001" x2="297.1028" y2="334.0999" gradientTransform="matrix(1 0 0 -1 -41.6001 348.0991)">
				<stop  offset="0" style="stop-color:#EE6F0B"/>
				<stop  offset="1" style="stop-color:#FFB74D"/>
			</linearGradient>
			<polygon fill="url(#SVGID_1_)" points="74.188,498 74.188,14 436.817,14 436.817,361.875 300.692,498 			"/>
		</g>
		<polygon fill="#E65100" fill-opacity="0.3922" points="436.817,361.875 436.817,356.023 293.219,356.023 293.219,498 300.692,498 
					"/>
		<path fill="#FFFFFF" fill-opacity="0.3922" d="M300.466,361.875l136.351,0.18L300.692,498L300.466,361.875z"/>
	</g>
	<g opacity="0.8">
		<rect x="121.386" y="200.316" fill="#FFFFFF" width="38.724" height="194.014"/>
		<rect x="185.926" y="297.121" fill="#FFFFFF" width="38.712" height="96.984"/>
		<rect x="250.275" y="336.621" fill="#FFFFFF" width="38.713" height="58.115"/>
		<g>
			<path fill="#FFFFFF" d="M302.897,166.037l0.405,77.234l77.224-0.417c0.225,42.764-34.279,77.471-77.043,77.65
				c-42.72,0.226-77.426-34.301-77.628-77.02C225.652,200.924,260.133,166.229,302.897,166.037z"/>
			<path fill="#FFFFFF" d="M311.967,157.147c42.765-0.18,77.449,34.29,77.629,77.043l-77.223,0.416L311.967,157.147z"/>
		</g>
	</g>
	<g>
		<rect x="74.086" y="14" opacity="0.8" fill="#FFFFFF" enable-background="new    " width="362.82" height="92.765"/>
		<g enable-background="new    ">
			<path fill="#E64A19" d="M220.97,59.814c0,6.246-1.058,11.726-3.106,16.385c-2.048,4.67-4.929,8.508-8.71,11.569
				c-3.759,3.05-8.35,5.357-13.774,6.898c-5.424,1.508-11.501,2.273-18.254,2.273c-3.05,0-6.64-0.135-10.736-0.383
				c-4.096-0.225-8.136-0.72-12.075-1.508V24.646c3.939-0.687,8.069-1.159,12.356-1.418c4.288-0.214,7.934-0.337,11.029-0.337
				c6.516,0,12.413,0.687,17.736,2.07c5.3,1.396,9.87,3.602,13.673,6.561c3.781,3.027,6.707,6.831,8.755,11.468
				C219.912,47.648,220.97,53.264,220.97,59.814z M171.431,82.76c0.811,0.056,1.733,0.124,2.802,0.158
				c1.069,0.022,2.33,0.022,3.781,0.022c8.564,0,14.934-2.015,19.064-6.111c4.13-4.13,6.201-9.802,6.201-17.016
				c0-7.596-1.98-13.325-5.919-17.207c-3.973-3.905-10.207-5.852-18.782-5.852c-1.159,0-2.397,0-3.624,0.057
				c-1.26,0.034-2.419,0.124-3.522,0.259V82.76z"/>
			<path fill="#E64A19" d="M258.039,22.89c11.389,0,20.077,1.891,26.154,5.672c6.1,3.781,9.138,10.016,9.138,18.613
				c0,8.699-3.083,14.968-9.251,18.816c-6.121,3.871-14.944,5.796-26.355,5.796h-5.357v24.207H235.24V24.747
				c3.714-0.697,7.675-1.17,11.839-1.452C251.242,23.014,254.888,22.89,258.039,22.89z M259.188,36.755
				c-1.261,0-2.498,0.022-3.691,0.124c-1.238,0.056-2.228,0.124-3.128,0.191v20.853h5.357c5.941,0,10.398-0.754,13.437-2.296
				c2.948-1.542,4.479-4.377,4.479-8.542c0-2.015-0.383-3.691-1.148-5.008c-0.742-1.328-1.891-2.397-3.309-3.185
				c-1.418-0.821-3.174-1.35-5.199-1.666C263.914,36.912,261.641,36.755,259.188,36.755z"/>
			<path fill="#E64A19" d="M326.688,83.57c2.408,0,4.411-0.18,5.986-0.563c1.576-0.383,2.836-0.878,3.781-1.576
				c0.969-0.63,1.621-1.418,2.004-2.33c0.359-0.889,0.539-1.891,0.539-3.027c0-2.363-1.17-4.344-3.533-5.897
				c-2.318-1.542-6.369-3.241-12.064-5.064c-2.498-0.821-4.974-1.767-7.472-2.836c-2.476-1.08-4.727-2.464-6.708-4.096
				c-1.957-1.643-3.601-3.601-4.816-5.931c-1.237-2.33-1.867-5.166-1.867-8.508s0.63-6.358,1.957-9.014
				c1.328-2.701,3.219-4.974,5.605-6.865c2.43-1.857,5.356-3.309,8.8-4.322c3.421-1.001,7.337-1.508,11.614-1.508
				c5.154,0,9.588,0.54,13.302,1.576c3.714,1.035,6.819,2.172,9.228,3.432l-4.929,12.863c-2.161-1.081-4.479-1.992-7.09-2.78
				c-2.634-0.822-5.717-1.193-9.363-1.193c-4.142,0-7.067,0.506-8.89,1.609c-1.756,1.069-2.656,2.734-2.656,4.94
				c0,1.328,0.314,2.464,0.945,3.342c0.697,0.877,1.62,1.699,2.836,2.453c1.215,0.731,2.588,1.396,4.164,1.958
				c1.575,0.63,3.309,1.227,5.244,1.823c3.938,1.418,7.359,2.78,10.285,4.164c2.949,1.328,5.402,2.903,7.315,4.727
				c1.936,1.823,3.376,3.938,4.321,6.37c0.945,2.453,1.44,5.379,1.44,8.879c0,6.741-2.476,11.974-7.45,15.699
				c-4.996,3.713-12.514,5.57-22.529,5.57c-3.354,0-6.415-0.214-9.115-0.596c-2.701-0.383-5.109-0.822-7.181-1.384
				c-2.116-0.574-3.871-1.137-5.401-1.767c-1.508-0.63-2.769-1.227-3.781-1.767l4.861-12.953c2.273,1.17,5.041,2.24,8.373,3.185
				C317.797,83.132,321.848,83.57,326.688,83.57z"/>
		</g>
	</g>
</g>
</svg>
