<?xml version="1.0" encoding="utf-8"?>
<!-- Generator: Adobe Illustrator 21.0.0, SVG Export Plug-In . SVG Version: 6.00 Build 0)  -->
<svg version="1.1" id="图层_1" xmlns="http://www.w3.org/2000/svg" xmlns:xlink="http://www.w3.org/1999/xlink" x="0px" y="0px"
	 viewBox="0 0 512 512" style="enable-background:new 0 0 512 512;" xml:space="preserve">
<style type="text/css">
	.st0{opacity:0.2;enable-background:new    ;}
	.st1{opacity:0.08;enable-background:new    ;}
	.st2{opacity:0.1;enable-background:new    ;}
	.st3{fill:#0D47A1;}
	.st4{fill:url(#SVGID_1_);}
	.st5{opacity:0.8;}
	.st6{opacity:0.8;fill:#FFFFFF;enable-background:new    ;}
	.st7{fill:#FFFFFF;}
	.st8{enable-background:new    ;}
	.st9{fill:#236FB7;}
</style>
<rect x="68.2" y="8" class="st0" width="374.6" height="496"/>
<rect x="68.2" y="8" class="st1" width="382.6" height="504"/>
<rect x="72.2" y="12" class="st2" width="374.6" height="496"/>
<rect x="72.2" y="12" class="st3" width="366.6" height="488"/>
<g>
	
		<linearGradient id="SVGID_1_" gradientUnits="userSpaceOnUse" x1="255.5" y1="292" x2="255.5" y2="776" gradientTransform="matrix(1 0 0 1 0 -278)">
		<stop  offset="0" style="stop-color:#64B5F6"/>
		<stop  offset="1" style="stop-color:#3F51B5"/>
	</linearGradient>
	<rect x="74.2" y="14" class="st4" width="362.6" height="484"/>
	<g class="st5">
		<rect x="121" y="205.4" class="st6" width="268.8" height="13.3"/>
		<rect x="121" y="163.9" class="st6" width="268.8" height="13.3"/>
		<rect x="249.3" y="244.5" class="st6" width="140.4" height="140.4"/>
		<g class="st5">
			<rect x="121" y="246.9" class="st7" width="116.8" height="13.3"/>
			<rect x="121" y="288.5" class="st7" width="116.8" height="13.3"/>
			<rect x="121" y="330.2" class="st7" width="116.8" height="13.3"/>
			<rect x="121" y="371.8" class="st7" width="116.8" height="13.3"/>
		</g>
	</g>
	<g>
		<rect x="74.1" y="14" class="st6" width="362.8" height="92.8"/>
		<g class="st8">
			<path class="st9" d="M211.4,60.3c0,6.3-1,11.7-3.1,16.4c-2,4.7-5,8.5-8.7,11.6c-3.8,3.1-8.4,5.4-13.8,6.9
				c-5.4,1.5-11.5,2.3-18.2,2.3c-3.1,0-6.6-0.1-10.7-0.4c-4.1-0.3-8.1-0.8-12.1-1.5V25.2c4-0.7,8.1-1.2,12.4-1.4s8-0.4,11-0.4
				c6.6,0,12.4,0.7,17.8,2.1c5.3,1.4,9.8,3.6,13.7,6.6c3.8,3,6.7,6.8,8.8,11.5C210.3,48.2,211.4,53.8,211.4,60.3z M161.8,83.3
				c0.8,0.1,1.7,0.1,2.8,0.2c1,0,2.3,0.1,3.8,0.1c8.6,0,14.9-2.1,19.1-6.2c4.1-4.1,6.2-9.8,6.2-17c0-7.6-2-13.3-5.9-17.2
				s-10.2-5.8-18.8-5.8c-1.1,0-2.4,0-3.6,0c-1.3,0.1-2.4,0.1-3.5,0.3v45.6H161.8z"/>
			<path class="st9" d="M298.1,60.3c0,6.2-1,11.7-2.9,16.4s-4.6,8.6-7.9,11.8c-3.4,3.2-7.4,5.5-12,7.2c-4.7,1.6-9.6,2.4-15,2.4
				c-5.2,0-10.1-0.8-14.7-2.4c-4.6-1.6-8.6-4-12.1-7.2c-3.4-3.2-6.1-7.1-8.1-11.8c-2-4.7-3-10.1-3-16.4c0-6.2,1-11.6,3.1-16.3
				c2-4.7,4.8-8.6,8.3-11.8c3.5-3.2,7.5-5.6,12.1-7.2s9.4-2.4,14.4-2.4c5.2,0,10.1,0.8,14.7,2.4s8.6,4,12.1,7.2
				c3.4,3.2,6.1,7.2,8.1,11.8C297.1,48.7,298.1,54.1,298.1,60.3z M240,60.3c0,3.6,0.4,6.8,1.4,9.6c0.9,2.9,2.2,5.3,3.9,7.3
				c1.7,2.1,3.8,3.7,6.3,4.8c2.5,1.1,5.4,1.6,8.6,1.6c3.2,0,6-0.6,8.5-1.6c2.6-1.1,4.7-2.7,6.4-4.8c1.7-2,3-4.5,3.9-7.3
				s1.4-6,1.4-9.6c0-3.5-0.5-6.7-1.4-9.6c-0.9-2.9-2.2-5.4-3.9-7.4c-1.7-2.1-3.8-3.7-6.4-4.8c-2.5-1.1-5.4-1.6-8.5-1.6
				c-3.2,0-6.1,0.6-8.6,1.7c-2.5,1.2-4.6,2.8-6.3,4.8c-1.7,2.1-3,4.5-3.9,7.4C240.5,53.7,240,56.9,240,60.3z"/>
			<path class="st9" d="M366.3,24.2v13.9h-23v58.4h-17.1V38.1h-23V24.2H366.3z"/>
		</g>
	</g>
</g>
</svg>
