<?xml version="1.0" encoding="utf-8"?>
<!-- Generator: Adobe Illustrator 21.0.0, SVG Export Plug-In . SVG Version: 6.00 Build 0)  -->
<svg version="1.1" id="图层_1" xmlns="http://www.w3.org/2000/svg" xmlns:xlink="http://www.w3.org/1999/xlink" x="0px" y="0px"
	 viewBox="0 0 512 512" style="enable-background:new 0 0 512 512;" xml:space="preserve">
<style type="text/css">
	.st0{opacity:0.08;enable-background:new    ;}
	.st1{opacity:0.1;enable-background:new    ;}
	.st2{opacity:0.2;enable-background:new    ;}
	.st3{fill:#1B5E20;}
	.st4{fill:url(#SVGID_1_);}
	.st5{fill:#1B5E20;fill-opacity:0.39;}
	.st6{fill:#FFFFFF;fill-opacity:0.3922;}
	.st7{opacity:0.8;fill:#FFFFFF;enable-background:new    ;}
	.st8{enable-background:new    ;}
	.st9{fill:#38883B;}
</style>
<polygon class="st0" points="68.2,512 68.2,8 451.8,8 451.8,369.9 309.7,512 "/>
<polygon class="st1" points="72.2,508 72.2,12 447.8,12 447.8,368.3 308.1,508 "/>
<polygon class="st2" points="68.2,504 68.2,8 443.8,8 443.8,364.3 304.1,504 "/>
<polygon class="st3" points="72.2,500 72.2,12 438.8,12 438.8,362.6 301.8,500 "/>
<g>
	<g>
		<g>
			<g>
				<g>
					
						<linearGradient id="SVGID_1_" gradientUnits="userSpaceOnUse" x1="338.7002" y1="-822.8013" x2="338.7002" y2="-338.8013" gradientTransform="matrix(1 0 0 -1 -83.2002 -324.8013)">
						<stop  offset="0" style="stop-color:#388E3C"/>
						<stop  offset="0.0757" style="stop-color:#43953E"/>
						<stop  offset="0.3246" style="stop-color:#62A943"/>
						<stop  offset="0.5665" style="stop-color:#79B747"/>
						<stop  offset="0.796" style="stop-color:#86C049"/>
						<stop  offset="1" style="stop-color:#8BC34A"/>
					</linearGradient>
					<polygon class="st4" points="74.2,498 74.2,14 436.8,14 436.8,361.9 300.7,498 					"/>
				</g>
				<polygon class="st5" points="436.8,361.9 436.8,356 293.2,356 293.2,498 300.7,498 				"/>
				<path class="st6" d="M300.5,361.9l136.3,0.2L300.7,498L300.5,361.9z"/>
			</g>
			<path class="st7" d="M264.4,120.9v-0.4h-17.9v0.4H130.8v225.5H380V120.9H264.4z M148.8,187.8h55.6v36h-55.6L148.8,187.8
				L148.8,187.8z M148.8,241.8h55.6v36h-55.6L148.8,241.8L148.8,241.8z M222.9,241.8h139.2v36H222.9V241.8z M222.9,223.9v-36h139.2
				v36H222.9z M362.2,139v31H222.9v-31H362.2z M204.4,139v31h-55.6v-31H204.4z M148.8,295.9h55.6v32.4h-55.6L148.8,295.9
				L148.8,295.9z M222.9,328.3v-32.4h139.2v32.4H222.9z"/>
		</g>
	</g>
	<g>
		<rect x="74.1" y="14" class="st7" width="362.8" height="92.8"/>
		<g class="st8">
			<path class="st9" d="M180.8,96V23.7h51.4v13.7h-34.3v14.2h30.4V65h-30.4v17.4h36.8V96H180.8z"/>
			<path class="st9" d="M330.1,23.7v13.9h-22.9V96h-17.1V37.6h-22.9V23.7H330.1z"/>
		</g>
	</g>
</g>
</svg>
