<?xml version="1.0" encoding="utf-8"?>
<!-- Generator: Adobe Illustrator 16.0.0, SVG Export Plug-In . SVG Version: 6.00 Build 0)  -->
<!DOCTYPE svg PUBLIC "-//W3C//DTD SVG 1.1//EN" "http://www.w3.org/Graphics/SVG/1.1/DTD/svg11.dtd">
<svg version="1.1" id="图层_1" xmlns="http://www.w3.org/2000/svg" xmlns:xlink="http://www.w3.org/1999/xlink" x="0px" y="0px"
	 width="512px" height="512px" viewBox="0 0 512 512" enable-background="new 0 0 512 512" xml:space="preserve">
<rect x="68.199" y="8" opacity="0.2" enable-background="new    " width="374.594" height="496"/>
<rect x="68.199" y="8" opacity="0.08" enable-background="new    " width="382.594" height="504"/>
<rect x="72.199" y="12" opacity="0.1" enable-background="new    " width="374.594" height="496"/>
<rect x="72.199" y="12" fill="#E65100" width="366.594" height="488"/>
<g>
	
		<linearGradient id="SVGID_1_" gradientUnits="userSpaceOnUse" x1="338.6956" y1="1322.8005" x2="338.6955" y2="838.8005" gradientTransform="matrix(1 0 0 1 -83.2002 -824.8008)">
		<stop  offset="0" style="stop-color:#EE6F0B"/>
		<stop  offset="1" style="stop-color:#FFB74D"/>
	</linearGradient>
	<rect x="74.185" y="14" fill="url(#SVGID_1_)" width="362.622" height="484"/>
	<g opacity="0.8">
		<rect x="121.404" y="200.305" fill="#FFFFFF" width="38.711" height="194.025"/>
		<rect x="185.937" y="297.121" fill="#FFFFFF" width="38.71" height="96.989"/>
		<rect x="250.266" y="336.635" fill="#FFFFFF" width="38.694" height="58.105"/>
		<g>
			<path fill="#FFFFFF" d="M302.888,166.053l0.441,77.231l77.231-0.409c0.221,42.744-34.314,77.437-77.043,77.626
				c-42.791,0.252-77.452-34.283-77.673-77.012C225.656,200.92,260.144,166.242,302.888,166.053z"/>
			<path fill="#FFFFFF" d="M311.963,157.136c42.76-0.189,77.452,34.299,77.642,77.058l-77.2,0.426L311.963,157.136z"/>
		</g>
	</g>
	<g>
		<rect x="74.091" y="14" opacity="0.8" fill="#FFFFFF" enable-background="new    " width="362.811" height="92.767"/>
		<g enable-background="new    ">
			<path fill="#E64A19" d="M172.624,22.87c11.375,0,20.073,1.906,26.154,5.688c6.081,3.797,9.106,10.005,9.106,18.623
				c0,8.697-3.057,14.967-9.232,18.827c-6.145,3.86-14.936,5.798-26.343,5.798h-5.388V95.99h-17.11V24.745
				c3.718-0.693,7.657-1.182,11.848-1.45C165.818,23.012,169.473,22.87,172.624,22.87z M173.727,36.75
				c-1.229,0-2.458,0.032-3.655,0.11c-1.229,0.063-2.269,0.126-3.151,0.205v20.86h5.388c5.924,0,10.398-0.756,13.392-2.3
				c2.994-1.528,4.505-4.38,4.505-8.555c0-2.017-0.378-3.671-1.165-4.995c-0.757-1.323-1.859-2.395-3.277-3.183
				c-1.418-0.803-3.183-1.355-5.231-1.67C178.485,36.908,176.216,36.75,173.727,36.75z"/>
			<path fill="#E64A19" d="M292.993,59.8c0,6.192-0.977,11.643-2.898,16.338c-1.954,4.695-4.601,8.634-7.973,11.785
				c-3.371,3.151-7.373,5.546-12.037,7.122c-4.632,1.638-9.642,2.426-14.967,2.426c-5.199,0-10.115-0.788-14.716-2.426
				c-4.632-1.576-8.634-3.97-12.1-7.122c-3.435-3.151-6.145-7.09-8.099-11.785c-1.984-4.695-2.993-10.146-2.993-16.338
				s1.04-11.627,3.088-16.322c2.048-4.695,4.821-8.634,8.287-11.848c3.498-3.198,7.5-5.593,12.101-7.184
				c4.568-1.607,9.358-2.411,14.432-2.411c5.168,0,10.083,0.804,14.684,2.411c4.632,1.591,8.634,3.986,12.1,7.184
				c3.436,3.214,6.145,7.153,8.13,11.848C291.986,48.173,292.993,53.608,292.993,59.8z M234.92,59.8
				c0,3.545,0.441,6.759,1.354,9.595c0.914,2.867,2.237,5.309,3.971,7.357c1.701,2.064,3.813,3.64,6.302,4.742
				c2.489,1.135,5.357,1.702,8.571,1.702c3.15,0,5.986-0.567,8.508-1.702c2.521-1.103,4.632-2.678,6.365-4.742
				c1.701-2.048,3.024-4.49,3.938-7.357c0.914-2.836,1.387-6.05,1.387-9.595s-0.473-6.759-1.387-9.642s-2.237-5.357-3.938-7.405
				c-1.733-2.048-3.845-3.64-6.365-4.758c-2.521-1.103-5.357-1.67-8.508-1.67c-3.214,0-6.082,0.583-8.571,1.733
				c-2.489,1.15-4.601,2.742-6.302,4.79c-1.733,2.064-3.057,4.522-3.971,7.405C235.362,53.152,234.92,56.334,234.92,59.8z"/>
			<path fill="#E64A19" d="M361.182,23.705v13.88h-22.971V95.99h-17.11V37.585H298.13v-13.88H361.182z"/>
		</g>
	</g>
</g>
</svg>
