<?xml version="1.0" encoding="utf-8"?>
<!-- Generator: Adobe Illustrator 21.0.0, SVG Export Plug-In . SVG Version: 6.00 Build 0)  -->
<svg version="1.1" id="图层_1" xmlns="http://www.w3.org/2000/svg" xmlns:xlink="http://www.w3.org/1999/xlink" x="0px" y="0px"
	 viewBox="0 0 512 512" style="enable-background:new 0 0 512 512;" xml:space="preserve">
<style type="text/css">
	.st0{opacity:0.08;enable-background:new    ;}
	.st1{opacity:0.1;enable-background:new    ;}
	.st2{opacity:0.2;enable-background:new    ;}
	.st3{fill:#0D47A1;}
	.st4{fill:url(#SVGID_1_);}
	.st5{fill:#2196F3;fill-opacity:0.7;}
	.st6{opacity:0.39;fill:#FFFFFF;enable-background:new    ;}
	.st7{opacity:0.8;}
	.st8{opacity:0.8;fill:url(#SVGID_2_);enable-background:new    ;}
	.st9{opacity:0.8;fill:url(#SVGID_3_);enable-background:new    ;}
	.st10{opacity:0.8;fill:url(#SVGID_4_);enable-background:new    ;}
	.st11{fill:url(#SVGID_5_);}
	.st12{fill:url(#SVGID_6_);}
	.st13{fill:url(#SVGID_7_);}
	.st14{fill:url(#SVGID_8_);}
	.st15{opacity:0.8;fill:#FFFFFF;enable-background:new    ;}
	.st16{fill:#1976D2;}
</style>
<polygon class="st0" points="68.2,512 68.2,8 451.8,8 451.8,369.9 309.7,512 "/>
<polygon class="st1" points="72.2,508 72.2,12 447.8,12 447.8,368.3 308.1,508 "/>
<polygon class="st2" points="68.2,504 68.2,8 443.8,8 443.8,364.3 304.1,504 "/>
<polygon class="st3" points="72.2,500 72.2,12 438.8,12 438.8,362.6 301.8,500 "/>
<g>
	<g>
		<g>
			<g>
				
					<linearGradient id="SVGID_1_" gradientUnits="userSpaceOnUse" x1="255.65" y1="776" x2="255.65" y2="292" gradientTransform="matrix(1 0 0 1 0 -278)">
					<stop  offset="0" style="stop-color:#3F51B5"/>
					<stop  offset="1" style="stop-color:#64B5F6"/>
				</linearGradient>
				<polygon class="st4" points="74.3,498 74.3,14 437,14 437,361.9 300.8,498 				"/>
			</g>
			<polygon class="st5" points="437,361.9 437,356 293.4,356 293.4,498 300.8,498 			"/>
			<path class="st6" d="M300.6,361.9l136.4,0.2L300.8,498L300.6,361.9z"/>
		</g>
		<g class="st7">
			
				<linearGradient id="SVGID_2_" gradientUnits="userSpaceOnUse" x1="128.1" y1="457.1" x2="383" y2="457.1" gradientTransform="matrix(1 0 0 1 0 -278)">
				<stop  offset="0" style="stop-color:#F6F5F5"/>
				<stop  offset="0.341" style="stop-color:#F1F2F3"/>
				<stop  offset="0.6434" style="stop-color:#E7EAEB"/>
				<stop  offset="0.9302" style="stop-color:#D5DBDF"/>
				<stop  offset="1" style="stop-color:#CFD7DB"/>
			</linearGradient>
			<rect x="128.1" y="172.8" class="st8" width="254.9" height="12.6"/>
			
				<linearGradient id="SVGID_3_" gradientUnits="userSpaceOnUse" x1="128.1" y1="417.7" x2="383" y2="417.7" gradientTransform="matrix(1 0 0 1 0 -278)">
				<stop  offset="0" style="stop-color:#F6F5F5"/>
				<stop  offset="0.341" style="stop-color:#F1F2F3"/>
				<stop  offset="0.6434" style="stop-color:#E7EAEB"/>
				<stop  offset="0.9302" style="stop-color:#D5DBDF"/>
				<stop  offset="1" style="stop-color:#CFD7DB"/>
			</linearGradient>
			<rect x="128.1" y="133.4" class="st9" width="254.9" height="12.6"/>
			
				<linearGradient id="SVGID_4_" gradientUnits="userSpaceOnUse" x1="249.7" y1="554.45" x2="382.8" y2="554.45" gradientTransform="matrix(1 0 0 1 0 -278)">
				<stop  offset="0" style="stop-color:#F6F5F5"/>
				<stop  offset="0.341" style="stop-color:#F1F2F3"/>
				<stop  offset="0.6434" style="stop-color:#E7EAEB"/>
				<stop  offset="0.9302" style="stop-color:#D5DBDF"/>
				<stop  offset="1" style="stop-color:#CFD7DB"/>
			</linearGradient>
			<rect x="249.7" y="209.9" class="st10" width="133.1" height="133.1"/>
			<g class="st7">
				
					<linearGradient id="SVGID_5_" gradientUnits="userSpaceOnUse" x1="128.1" y1="496.5" x2="238.8" y2="496.5" gradientTransform="matrix(1 0 0 1 0 -278)">
					<stop  offset="0" style="stop-color:#F6F5F5"/>
					<stop  offset="0.341" style="stop-color:#F1F2F3"/>
					<stop  offset="0.6434" style="stop-color:#E7EAEB"/>
					<stop  offset="0.9302" style="stop-color:#D5DBDF"/>
					<stop  offset="1" style="stop-color:#CFD7DB"/>
				</linearGradient>
				<rect x="128.1" y="212.2" class="st11" width="110.7" height="12.6"/>
				
					<linearGradient id="SVGID_6_" gradientUnits="userSpaceOnUse" x1="128.1" y1="535.9" x2="238.8" y2="535.9" gradientTransform="matrix(1 0 0 1 0 -278)">
					<stop  offset="0" style="stop-color:#F6F5F5"/>
					<stop  offset="0.341" style="stop-color:#F1F2F3"/>
					<stop  offset="0.6434" style="stop-color:#E7EAEB"/>
					<stop  offset="0.9302" style="stop-color:#D5DBDF"/>
					<stop  offset="1" style="stop-color:#CFD7DB"/>
				</linearGradient>
				<rect x="128.1" y="251.6" class="st12" width="110.7" height="12.6"/>
				
					<linearGradient id="SVGID_7_" gradientUnits="userSpaceOnUse" x1="128.1" y1="575.4" x2="238.8" y2="575.4" gradientTransform="matrix(1 0 0 1 0 -278)">
					<stop  offset="0" style="stop-color:#F6F5F5"/>
					<stop  offset="0.341" style="stop-color:#F1F2F3"/>
					<stop  offset="0.6434" style="stop-color:#E7EAEB"/>
					<stop  offset="0.9302" style="stop-color:#D5DBDF"/>
					<stop  offset="1" style="stop-color:#CFD7DB"/>
				</linearGradient>
				<rect x="128.1" y="291.1" class="st13" width="110.7" height="12.6"/>
				
					<linearGradient id="SVGID_8_" gradientUnits="userSpaceOnUse" x1="128.1" y1="614.8" x2="238.8" y2="614.8" gradientTransform="matrix(1 0 0 1 0 -278)">
					<stop  offset="0" style="stop-color:#F6F5F5"/>
					<stop  offset="0.341" style="stop-color:#F1F2F3"/>
					<stop  offset="0.6434" style="stop-color:#E7EAEB"/>
					<stop  offset="0.9302" style="stop-color:#D5DBDF"/>
					<stop  offset="1" style="stop-color:#CFD7DB"/>
				</linearGradient>
				<rect x="128.1" y="330.5" class="st14" width="110.7" height="12.6"/>
			</g>
		</g>
	</g>
	<g>
		<rect x="74" y="14" class="st15" width="362.8" height="92.8"/>
		<g>
			<path class="st16" d="M211.4,60.3c0,6.3-1,11.7-3.1,16.4c-2,4.7-5,8.6-8.7,11.6c-3.8,3.1-8.4,5.4-13.8,6.9
				c-5.4,1.5-11.5,2.3-18.2,2.3c-3.1,0-6.7-0.1-10.8-0.4c-4.1-0.2-8.1-0.7-12.1-1.5V25.2c3.9-0.7,8.1-1.2,12.3-1.4
				c4.3-0.2,8-0.4,11-0.4c6.5,0,12.4,0.7,17.7,2.1s9.9,3.6,13.7,6.6s6.7,6.8,8.8,11.5C210.4,48.2,211.4,53.8,211.4,60.3z
				 M161.9,83.3c0.8,0.1,1.7,0.1,2.8,0.2c1.1,0,2.3,0,3.8,0c8.6,0,14.9-2.1,19-6.2c4.2-4.1,6.2-9.8,6.2-17c0-7.6-2-13.3-5.9-17.2
				c-4-3.9-10.2-5.9-18.8-5.9c-1.2,0-2.4,0-3.6,0c-1.3,0.1-2.4,0.1-3.5,0.3V83.3L161.9,83.3z"/>
			<path class="st16" d="M298.2,60.3c0,6.2-1,11.7-3,16.3c-1.9,4.7-4.5,8.6-7.9,11.8c-3.4,3.2-7.4,5.5-12,7.2
				c-4.6,1.6-9.7,2.4-15,2.4c-5.2,0-10.1-0.8-14.7-2.4c-4.6-1.6-8.6-4-12.1-7.2c-3.4-3.2-6.1-7.1-8.1-11.8c-2-4.7-3-10.1-3-16.3
				s1-11.6,3.1-16.3c2-4.7,4.8-8.6,8.3-11.9c3.5-3.2,7.5-5.6,12.1-7.2s9.3-2.4,14.4-2.4c5.2,0,10.1,0.8,14.7,2.4s8.6,4,12.1,7.2
				c3.4,3.2,6.1,7.2,8.1,11.9C297.2,48.7,298.2,54.2,298.2,60.3z M240.1,60.3c0,3.6,0.4,6.8,1.4,9.6c0.9,2.8,2.2,5.3,3.9,7.3
				c1.7,2.1,3.8,3.6,6.3,4.8c2.5,1.1,5.4,1.7,8.6,1.7c3.2,0,6-0.6,8.5-1.7s4.6-2.7,6.4-4.8c1.7-2,3-4.5,3.9-7.3
				c0.9-2.9,1.4-6.1,1.4-9.6s-0.4-6.8-1.4-9.6c-0.9-2.9-2.2-5.4-3.9-7.4c-1.7-2.1-3.8-3.6-6.4-4.8c-2.5-1.1-5.4-1.7-8.5-1.7
				c-3.2,0-6.1,0.6-8.6,1.7c-2.5,1.2-4.6,2.7-6.3,4.8c-1.7,2-3.1,4.5-3.9,7.4C240.5,53.7,240.1,56.9,240.1,60.3z"/>
			<path class="st16" d="M347.1,98c-12.4,0-21.8-3.3-28.3-9.8s-9.7-15.8-9.7-27.9c0-5.9,1-11.3,2.9-16c2-4.7,4.7-8.7,8.1-11.9
				s7.5-5.7,12.3-7.4c4.7-1.7,9.9-2.5,15.5-2.5c3.2,0,6.1,0.2,8.8,0.7c2.6,0.5,5,1,6.9,1.6c2,0.6,3.6,1.2,4.9,1.8
				c1.3,0.6,2.3,1.1,2.9,1.4l-5,13.2c-2.4-1.2-5.1-2.2-8.2-3s-6.6-1.3-10.6-1.3c-2.7,0-5.2,0.5-7.8,1.3c-2.5,0.9-4.7,2.2-6.7,4
				c-1.9,1.8-3.5,4.2-4.7,7.2c-1.2,2.9-1.8,6.5-1.8,10.6c0,3.4,0.4,6.5,1.1,9.4c0.8,2.9,2,5.4,3.8,7.5c1.7,2.1,4,3.7,6.7,5
				c2.8,1.2,6.1,1.8,10.1,1.8c2.5,0,4.7-0.1,6.7-0.4s3.7-0.6,5.3-1c1.5-0.4,2.9-0.8,4.1-1.3s2.2-0.9,3.2-1.4l4.7,13
				c-2.4,1.4-5.8,2.6-10.2,3.8C358,97.4,352.9,98,347.1,98z"/>
		</g>
	</g>
</g>
</svg>
