<?xml version="1.0" encoding="utf-8"?>
<!-- Generator: Adobe Illustrator 21.0.0, SVG Export Plug-In . SVG Version: 6.00 Build 0)  -->
<svg version="1.1" id="图层_1" xmlns="http://www.w3.org/2000/svg" xmlns:xlink="http://www.w3.org/1999/xlink" x="0px" y="0px"
	 viewBox="0 0 512 512" style="enable-background:new 0 0 512 512;" xml:space="preserve">
<style type="text/css">
	.st0{opacity:0.2;enable-background:new    ;}
	.st1{opacity:0.08;enable-background:new    ;}
	.st2{opacity:0.1;enable-background:new    ;}
	.st3{fill:#1B5E20;}
	.st4{fill:url(#SVGID_1_);}
	.st5{opacity:0.8;fill:#FFFFFF;enable-background:new    ;}
	.st6{fill:#388E3C;}
</style>
<rect x="68.2" y="8" class="st0" width="374.6" height="496"/>
<rect x="68.2" y="8" class="st1" width="382.6" height="504"/>
<rect x="72.2" y="12" class="st2" width="374.6" height="496"/>
<rect x="72.2" y="12" class="st3" width="366.6" height="488"/>
<g>
	
		<linearGradient id="SVGID_1_" gradientUnits="userSpaceOnUse" x1="338.7002" y1="1600.8008" x2="338.7002" y2="1116.8008" gradientTransform="matrix(1 0 0 1 -83.2002 -1102.8008)">
		<stop  offset="0" style="stop-color:#388E3C"/>
		<stop  offset="0.0757" style="stop-color:#43953E"/>
		<stop  offset="0.3246" style="stop-color:#62A943"/>
		<stop  offset="0.5665" style="stop-color:#79B747"/>
		<stop  offset="0.796" style="stop-color:#86C049"/>
		<stop  offset="1" style="stop-color:#8BC34A"/>
	</linearGradient>
	<rect x="74.2" y="14" class="st4" width="362.6" height="484"/>
	<path class="st5" d="M264.8,167.7v-0.4h-18.5v0.4H126.4v233.5h258.1V167.7H264.8z M145,237.1h57.6v37.3H145V237.1z M145,293h57.6
		v37.3H145V293z M221.8,293H366v37.3H221.8V293z M221.8,274.4v-37.3H366v37.3H221.8z M366,186.5v32.1H221.8v-32.1H366z M202.6,186.5
		v32.1H145v-32.1H202.6z M145,349h57.6v33.5H145V349z M221.8,382.5V349H366v33.5H221.8z"/>
	<g>
		<rect x="74.1" y="14" class="st5" width="362.8" height="92.8"/>
		<g>
			<path class="st6" d="M162.2,96V23.7h51.4v13.7h-34.3v14.2h30.4V65h-30.4v17.4h36.8V96H162.2z"/>
			<path class="st6" d="M285.2,23.7v13.9h-23V96h-17.1V37.6h-23V23.7H285.2z"/>
			<path class="st6" d="M355.5,23.7v13.9h-22.9V96h-17.2V37.6h-22.9V23.7H355.5z"/>
		</g>
	</g>
</g>
</svg>
