<?xml version="1.0" encoding="utf-8"?>
<!-- Generator: Adobe Illustrator 16.0.0, SVG Export Plug-In . SVG Version: 6.00 Build 0)  -->
<!DOCTYPE svg PUBLIC "-//W3C//DTD SVG 1.1//EN" "http://www.w3.org/Graphics/SVG/1.1/DTD/svg11.dtd">
<svg version="1.1" id="图层_1" xmlns="http://www.w3.org/2000/svg" xmlns:xlink="http://www.w3.org/1999/xlink" x="0px" y="0px"
	 width="512px" height="512px" viewBox="0 0 512 512" enable-background="new 0 0 512 512" xml:space="preserve">
<polygon opacity="0.08" enable-background="new    " points="68.2,512 68.2,8 451.801,8 451.801,369.913 309.714,512 "/>
<polygon opacity="0.1" enable-background="new    " points="72.2,508 72.2,12 447.801,12 447.801,368.256 308.057,508 "/>
<polygon opacity="0.2" enable-background="new    " points="68.2,504 68.2,8 443.801,8 443.801,364.256 304.058,504 "/>
<polygon fill="#1B5E20" points="72.199,500 72.199,12 438.793,12 438.793,362.597 301.776,500 "/>
<g>
	<g>
		<g>
			<g>
				
					<linearGradient id="SVGID_1_" gradientUnits="userSpaceOnUse" x1="338.6653" y1="-568.8005" x2="338.6653" y2="-84.801" gradientTransform="matrix(1 0 0 -1 -83.2002 -70.8013)">
					<stop  offset="0" style="stop-color:#388E3C"/>
					<stop  offset="0.0757" style="stop-color:#43953E"/>
					<stop  offset="0.3246" style="stop-color:#62A943"/>
					<stop  offset="0.5665" style="stop-color:#79B747"/>
					<stop  offset="0.796" style="stop-color:#86C049"/>
					<stop  offset="1" style="stop-color:#8BC34A"/>
				</linearGradient>
				<polygon fill="url(#SVGID_1_)" points="74.154,498 74.154,14 436.776,14 436.776,361.875 300.651,498 				"/>
			</g>
			<polygon fill="#1B5E20" fill-opacity="0.39" points="436.776,361.875 436.776,356.014 293.183,356.014 293.183,498 300.651,498 
							"/>
			<path fill="#FFFFFF" fill-opacity="0.3922" d="M300.462,361.875l136.345,0.189L300.651,498L300.462,361.875z"/>
		</g>
		<path opacity="0.8" fill="#FFFFFF" enable-background="new    " d="M264.446,120.884v-0.41h-17.93v0.41H130.841v225.457h249.247
			V120.884H264.446z M148.771,187.811h55.647v36.048h-55.647V187.811z M148.771,241.789h55.647v35.984h-55.647V241.789z
			 M222.947,241.789h139.213v35.984H222.947V241.789z M222.947,223.859v-36.048h139.213v36.048H222.947z M362.159,138.97v30.975
			H222.947V138.97H362.159z M204.418,138.97v30.975h-55.647V138.97H204.418z M148.771,295.892h55.647v32.361h-55.647V295.892z
			 M222.947,328.254v-32.361h139.213v32.361H222.947z"/>
	</g>
	<g>
		<rect x="74.091" y="14" opacity="0.8" fill="#FFFFFF" enable-background="new    " width="362.811" height="92.767"/>
		<g enable-background="new    ">
			<path fill="#388E3C" d="M207.159,95.99c-2.143-4.033-4.506-8.066-7.026-12.226c-2.553-4.128-5.483-7.626-8.761-10.462
				c-1.039,1.071-2.331,2.584-3.907,4.475c-1.575,1.922-3.15,3.97-4.727,6.113c-1.575,2.143-3.024,4.348-4.411,6.68
				s-2.395,4.128-3.057,5.42h-19.536c3.183-5.608,6.964-11.47,11.344-17.457c4.349-6.019,9.232-12.415,14.589-19.158l-24.83-35.67
				h20.734l14.494,20.923l14.842-20.923h19.536l-24.673,34.914c6.46,7.688,11.785,14.747,15.977,21.175
				c4.19,6.428,7.468,11.848,9.926,16.196H207.159z"/>
			<path fill="#388E3C" d="M288.362,82.031V95.99h-50.795V23.705h17.11v58.326H288.362z"/>
			<path fill="#388E3C" d="M321.951,83.575c2.458,0,4.412-0.189,5.987-0.567s2.836-0.882,3.781-1.575
				c1.009-0.631,1.639-1.418,2.017-2.332c0.378-0.882,0.567-1.891,0.567-3.025c0-2.363-1.197-4.348-3.529-5.892
				s-6.365-3.246-12.1-5.073c-2.458-0.819-4.979-1.765-7.437-2.836c-2.521-1.071-4.727-2.458-6.743-4.097
				c-1.954-1.639-3.593-3.592-4.79-5.924c-1.26-2.332-1.891-5.168-1.891-8.508s0.631-6.365,1.954-9.012
				c1.323-2.71,3.214-4.979,5.608-6.87c2.458-1.858,5.357-3.309,8.823-4.316c3.403-1.009,7.311-1.513,11.596-1.513
				c5.168,0,9.579,0.536,13.298,1.575c3.718,1.04,6.806,2.175,9.264,3.436l-4.979,12.855c-2.143-1.071-4.475-1.984-7.059-2.772
				c-2.646-0.819-5.734-1.197-9.39-1.197c-4.097,0-7.059,0.504-8.887,1.606c-1.765,1.071-2.646,2.742-2.646,4.947
				c0,1.323,0.315,2.458,0.945,3.34c0.693,0.883,1.639,1.702,2.836,2.458c1.197,0.725,2.584,1.387,4.159,1.954
				c1.576,0.63,3.34,1.229,5.23,1.827c3.971,1.418,7.374,2.773,10.336,4.159c2.898,1.324,5.356,2.899,7.311,4.727
				c1.891,1.828,3.34,3.939,4.285,6.365c0.945,2.458,1.449,5.389,1.449,8.887c0,6.743-2.457,11.974-7.437,15.691
				c-4.979,3.719-12.541,5.578-22.562,5.578c-3.34,0-6.364-0.221-9.074-0.6c-2.71-0.378-5.105-0.818-7.185-1.386
				c-2.143-0.567-3.907-1.135-5.42-1.765c-1.513-0.631-2.772-1.229-3.781-1.765l4.853-12.951c2.269,1.166,5.042,2.237,8.382,3.183
				S317.162,83.575,321.951,83.575z"/>
		</g>
	</g>
</g>
</svg>
