<?xml version="1.0" encoding="utf-8"?>
<!-- Generator: Adobe Illustrator 16.0.0, SVG Export Plug-In . SVG Version: 6.00 Build 0)  -->
<!DOCTYPE svg PUBLIC "-//W3C//DTD SVG 1.1//EN" "http://www.w3.org/Graphics/SVG/1.1/DTD/svg11.dtd">
<svg version="1.1" id="图层_1" xmlns="http://www.w3.org/2000/svg" xmlns:xlink="http://www.w3.org/1999/xlink" x="0px" y="0px"
	 width="512px" height="512px" viewBox="0 0 512 512" enable-background="new 0 0 512 512" xml:space="preserve">
<g id="surface1">
	<polygon opacity="0.2" enable-background="new    " points="69,504 69,8 443,8 443,364.407 303.406,504 	"/>
	<polygon opacity="0.08" enable-background="new    " points="69,512 69,8 451,8 451,370.064 309.065,512 	"/>
	<polygon opacity="0.1" enable-background="new    " points="73,508 73,12 447,12 447,368.407 307.406,508 	"/>
	<g>
		
			<linearGradient id="SVGID_1_" gradientUnits="userSpaceOnUse" x1="464.0012" y1="-1705.9512" x2="464.0012" y2="-1217.9512" gradientTransform="matrix(1 0 0 -1 -208.0005 -1205.9512)">
			<stop  offset="0" style="stop-color:#512DA8"/>
			<stop  offset="0.008" style="stop-color:#D32F2F"/>
			<stop  offset="0.3041" style="stop-color:#E33932"/>
			<stop  offset="0.6579" style="stop-color:#F04035"/>
			<stop  offset="1" style="stop-color:#F44336"/>
		</linearGradient>
		<path fill="url(#SVGID_1_)" d="M301.75,500L439,362.75V12H73v488H301.75z"/>
		<polygon fill="#B71C1C" fill-opacity="0.3922" points="294.125,355.125 294.125,500 301.75,500 439,362.75 439,355.125 		"/>
		<path fill="#FFFFFF" fill-opacity="0.3922" d="M301.75,362.75h137.135L301.75,500V362.75z"/>
		<path opacity="0.8" fill-rule="evenodd" clip-rule="evenodd" fill="#FFFFFF" d="M297.702,269.787h-21.556v21.55h21.556V269.787z
			 M267.33,212.117h-21.541v21.542h21.541V212.117z M297.702,240.951h-21.556v21.546h21.556V240.951z M328.045,212.117h-21.543
			v21.542h21.543V212.117z M267.33,240.951h-21.541v21.546h21.541V240.951z M297.702,212.117h-21.556v21.542h21.556V212.117z
			 M328.045,240.951h-21.543v21.546h21.543V240.951z M206.622,269.787h-21.544v21.55h21.544V269.787z M206.622,240.951h-21.544
			v21.546h21.544V240.951z M322.502,136.157v9.458c3.716,3.289,6.071,8.082,6.071,13.434c0,9.911-8.036,17.948-17.949,17.948
			s-17.946-8.038-17.946-17.948c0-5.354,2.354-10.146,6.071-13.434v-9.458h-83.862v9.458c3.717,3.289,6.072,8.082,6.072,13.434
			c0,9.911-8.037,17.948-17.949,17.948c-9.913,0-17.947-8.038-17.947-17.948c0-5.354,2.355-10.146,6.072-13.434v-9.458H151.14
			v190.991h209.735V136.157H322.502z M341.72,307.99H170.296V188.671H341.72V307.99z M236.99,212.117h-21.556v21.542h21.556V212.117
			z M236.99,269.787h-21.556v21.55h21.556V269.787z M267.33,269.787h-21.541v21.55h21.541V269.787z M236.99,240.951h-21.556v21.546
			h21.556V240.951z M203.011,169.505c4.935,0,8.935-3.999,8.935-8.933v-32.184c0-4.931-4-8.933-8.935-8.933
			c-4.934,0-8.934,4.002-8.934,8.933v32.184C194.077,165.506,198.077,169.505,203.011,169.505z M310.625,169.505
			c4.936,0,8.935-3.999,8.935-8.933v-32.184c0-4.931-3.999-8.933-8.935-8.933c-4.934,0-8.935,4.002-8.935,8.933v32.184
			C301.691,165.506,305.692,169.505,310.625,169.505z"/>
		<g>
			<path fill="#B71C1C" d="M437,14v347.922L300.922,498H195H75V14H437 M439,12H73v488h122h106.75L439,362.75V12L439,12z"/>
		</g>
	</g>
</g>
</svg>
