<?xml version="1.0" encoding="utf-8"?>
<!-- Generator: Adobe Illustrator 16.0.0, SVG Export Plug-In . SVG Version: 6.00 Build 0)  -->
<!DOCTYPE svg PUBLIC "-//W3C//DTD SVG 1.1//EN" "http://www.w3.org/Graphics/SVG/1.1/DTD/svg11.dtd">
<svg version="1.1" id="图层_1" xmlns="http://www.w3.org/2000/svg" xmlns:xlink="http://www.w3.org/1999/xlink" x="0px" y="0px"
	 width="512px" height="512px" viewBox="0 0 512 512" enable-background="new 0 0 512 512" xml:space="preserve">
<g id="surface1">
	<polygon opacity="0.2" enable-background="new    " points="69,504 69,8 443,8 443,364.407 303.406,504 	"/>
	<polygon opacity="0.08" enable-background="new    " points="69,512 69,8 451,8 451,370.064 309.065,512 	"/>
	<polygon opacity="0.1" enable-background="new    " points="73,508 73,12 447,12 447,368.407 307.406,508 	"/>
	<g>
		
			<linearGradient id="SVGID_1_" gradientUnits="userSpaceOnUse" x1="422.4006" y1="2053.9609" x2="422.4006" y2="1565.9609" gradientTransform="matrix(1 0 0 1 -166.4004 -1553.9609)">
			<stop  offset="0" style="stop-color:#512DA8"/>
			<stop  offset="0.008" style="stop-color:#512DA8"/>
			<stop  offset="0.0504" style="stop-color:#5733AB"/>
			<stop  offset="0.2927" style="stop-color:#7250BA"/>
			<stop  offset="0.5337" style="stop-color:#8564C4"/>
			<stop  offset="0.771" style="stop-color:#9171CB"/>
			<stop  offset="1" style="stop-color:#9575CD"/>
		</linearGradient>
		<path fill="url(#SVGID_1_)" d="M301.75,500L439,362.75V12H73v488H301.75z"/>
		<polygon fill="#512DA8" fill-opacity="0.3922" points="294.125,355.125 294.125,500 301.75,500 439,362.75 439,355.125 		"/>
		<path fill="#FFFFFF" fill-opacity="0.3922" d="M301.75,362.75h137.135L301.75,500V362.75z"/>
		<path opacity="0.8" fill="#FFFFFF" d="M245.812,133.992h20.377c30.5,0,35.562,35.8,35.562,35.8v35.57
			c0,11.996-25.438,36.424-25.438,36.424v11.972L317,277.347v23.976l-66.062,0.42H195v-23.943l40.688-23.984v-11.972
			c0,0-25.496-24.305-25.438-36.309v-35.562C210.25,169.972,215.312,133.992,245.812,133.992z"/>
		<g>
			<path fill="#311B92" d="M437,14v347.922L300.922,498H195H75V14H437 M439,12H73v488h122h106.75L439,362.75V12L439,12z"/>
		</g>
	</g>
</g>
</svg>
