<?xml version="1.0" encoding="utf-8"?>
<!-- Generator: Adobe Illustrator 21.0.0, SVG Export Plug-In . SVG Version: 6.00 Build 0)  -->
<svg version="1.1" id="图层_1" xmlns="http://www.w3.org/2000/svg" xmlns:xlink="http://www.w3.org/1999/xlink" x="0px" y="0px"
	 viewBox="0 0 512 512" style="enable-background:new 0 0 512 512;" xml:space="preserve">
<style type="text/css">
	.st0{opacity:0.2;enable-background:new    ;}
	.st1{opacity:0.08;enable-background:new    ;}
	.st2{opacity:0.1;enable-background:new    ;}
	.st3{fill:url(#SVGID_1_);}
	.st4{fill:#512DA8;fill-opacity:0.3922;}
	.st5{fill:#FFFFFF;fill-opacity:0.3922;}
	.st6{opacity:0.8;fill:#FFFFFF;enable-background:new    ;}
	.st7{fill:#311B92;}
</style>
<g id="surface1">
	<polygon class="st0" points="69,504 69,8 443,8 443,364.4 303.4,504 	"/>
	<polygon class="st1" points="69,512 69,8 451,8 451,370.1 309.1,512 	"/>
	<polygon class="st2" points="73,508 73,12 447,12 447,368.4 307.4,508 	"/>
	<g>
		
			<linearGradient id="SVGID_1_" gradientUnits="userSpaceOnUse" x1="422.4004" y1="2331.9609" x2="422.4004" y2="1843.9609" gradientTransform="matrix(1 0 0 1 -166.4004 -1831.9609)">
			<stop  offset="0" style="stop-color:#512DA8"/>
			<stop  offset="8.000000e-03" style="stop-color:#512DA8"/>
			<stop  offset="0.0504" style="stop-color:#5733AB"/>
			<stop  offset="0.2927" style="stop-color:#7250BA"/>
			<stop  offset="0.5337" style="stop-color:#8564C4"/>
			<stop  offset="0.771" style="stop-color:#9171CB"/>
			<stop  offset="1" style="stop-color:#9575CD"/>
		</linearGradient>
		<path class="st3" d="M301.8,500L439,362.8V12H73v488H301.8z"/>
		<polygon class="st4" points="294.1,355.1 294.1,500 301.8,500 439,362.8 439,355.1 		"/>
		<path class="st5" d="M301.8,362.8h137.1L301.8,500V362.8z"/>
		<path class="st6" d="M245.8,134h20.4c30.5,0,35.6,35.8,35.6,35.8v35.6c0,12-25.4,36.4-25.4,36.4v12l40.7,23.6v24l-66.1,0.4h-56
			v-23.9l40.7-24v-12c0,0-25.5-24.3-25.4-36.3V170C210.3,170,215.3,134,245.8,134z"/>
		<g>
			<path class="st7" d="M437,14v347.9L300.9,498H195H75V14H437 M439,12H73v488h122h106.8L439,362.8V12L439,12z"/>
		</g>
	</g>
</g>
</svg>
