<?xml version="1.0" encoding="utf-8"?>
<!-- Generator: Adobe Illustrator 16.0.0, SVG Export Plug-In . SVG Version: 6.00 Build 0)  -->
<!DOCTYPE svg PUBLIC "-//W3C//DTD SVG 1.1//EN" "http://www.w3.org/Graphics/SVG/1.1/DTD/svg11.dtd">
<svg version="1.1" id="图层_1" xmlns="http://www.w3.org/2000/svg" xmlns:xlink="http://www.w3.org/1999/xlink" x="0px" y="0px"
	 width="128px" height="128px" viewBox="0 0 128 128" enable-background="new 0 0 128 128" xml:space="preserve">
<polygon opacity="0.08" enable-background="new    " points="18.31,128 18.31,4 113.689,4 113.689,92.995 78.686,128 "/>
<polygon display="none" opacity="0.08" enable-background="new    " points="22.31,126 22.31,6 113.689,6 113.689,92.167 
	79.857,126 "/>
<polygon opacity="0.1" enable-background="new    " points="20.31,126 20.31,6 111.689,6 111.689,92.167 77.857,126 "/>
<polygon opacity="0.2" enable-background="new    " points="18.31,124 18.31,4 109.689,4 109.689,90.167 75.857,124 "/>
<polygon fill="#3E2723" points="20.298,122 20.298,6 107.702,6 107.702,89.34 75.033,122 "/>
<g>
	<g>
		
			<linearGradient id="SVGID_1_" gradientUnits="userSpaceOnUse" x1="105.6035" y1="-42.9004" x2="105.6035" y2="-156.9009" gradientTransform="matrix(1 0 0 -1 -41.6001 -35.9004)">
			<stop  offset="0" style="stop-color:#785548"/>
			<stop  offset="1" style="stop-color:#9F9E9F"/>
		</linearGradient>
		<polygon fill="url(#SVGID_1_)" points="21.298,121 21.298,7 106.709,7 106.709,88.893 74.959,121 		"/>
		<polygon fill="#795548" fill-opacity="0.7" points="106.709,88.938 106.709,87.557 72.895,87.557 72.895,121 74.646,121 		"/>
		<path opacity="0.39" fill="#FFFFFF" enable-background="new    " d="M74.602,88.938l32.107,0.045L74.646,121L74.602,88.938z"/>
	</g>
	<path fill="#FFFFFF" d="M51.817,28.976h-2.895v37.02H46.74v-37.02h-2.879v37.02h-2.182v-37.02h-2.88v37.02h-2.182v-37.02h-2.88
		v37.02H32.98v15.683h19.816V65.996h-0.98V28.976z M49.917,77.122H35.86V68.03h14.057V77.122z"/>
	<g>
		<rect x="21.276" y="7" opacity="0.8" fill="#FFFFFF" enable-background="new    " width="85.449" height="21.85"/>
		<g enable-background="new    ">
			<path fill="#5D4037" d="M45.234,12.362c-1.878,0-3.236,0.494-4.075,1.484c-0.839,0.995-1.254,2.349-1.254,4.067
				c0,0.835,0.104,1.596,0.312,2.274c0.208,0.679,0.52,1.266,0.928,1.755c0.416,0.494,0.935,0.872,1.551,1.143
				c0.624,0.271,1.351,0.404,2.175,0.404c0.453,0,0.831-0.007,1.15-0.022c0.319-0.019,0.601-0.048,0.846-0.1v-5.923h4.03v8.431
				c-0.482,0.178-1.254,0.371-2.323,0.575c-1.076,0.204-2.39,0.308-3.963,0.308c-1.343,0-2.561-0.197-3.659-0.59
				c-1.091-0.394-2.026-0.965-2.805-1.718c-0.772-0.753-1.373-1.681-1.796-2.78c-0.423-1.095-0.638-2.349-0.638-3.759
				c0-1.425,0.238-2.687,0.705-3.782c0.46-1.098,1.099-2.03,1.908-2.791c0.816-0.761,1.766-1.34,2.865-1.733
				c1.091-0.394,2.256-0.59,3.503-0.59c0.846,0,1.603,0.056,2.286,0.16c0.683,0.108,1.269,0.23,1.759,0.371
				c0.49,0.137,0.898,0.282,1.217,0.431c0.319,0.145,0.549,0.26,0.683,0.341l-1.165,3.073c-0.549-0.278-1.18-0.52-1.9-0.724
				C46.859,12.462,46.08,12.362,45.234,12.362z"/>
			<path fill="#5D4037" d="M67.299,12.065c-0.557,0.542-1.209,1.243-1.967,2.104c-0.758,0.857-1.543,1.796-2.36,2.813
				c-0.802,1.013-1.604,2.063-2.405,3.143c-0.786,1.083-1.499,2.115-2.122,3.099h9.143v3.217H53.487v-2.286
				c0.482-0.835,1.069-1.763,1.767-2.787c0.705-1.024,1.433-2.056,2.189-3.099c0.765-1.039,1.536-2.044,2.315-3.021
				c0.787-0.976,1.514-1.848,2.189-2.616h-8.045V9.412h13.396V12.065z"/>
			<path fill="#5D4037" d="M70.424,9.412h4.037v17.029h-4.037V9.412z"/>
			<path fill="#5D4037" d="M83.977,9.215c2.678,0,4.727,0.449,6.16,1.34c1.432,0.894,2.152,2.356,2.152,4.386
				c0,2.048-0.729,3.525-2.184,4.435c-1.439,0.909-3.518,1.366-6.203,1.366h-1.262v5.7h-4.039V9.657
				c0.877-0.164,1.813-0.278,2.791-0.342C82.373,9.249,83.234,9.215,83.977,9.215z M84.242,12.485c-0.297,0-0.586,0.007-0.867,0.026
				c-0.289,0.015-0.527,0.03-0.734,0.048v4.913h1.262c1.395,0,2.449-0.178,3.16-0.542c0.699-0.36,1.055-1.032,1.055-2.015
				c0-0.475-0.09-0.865-0.268-1.176c-0.178-0.312-0.445-0.564-0.779-0.75c-0.334-0.189-0.75-0.319-1.225-0.393
				C85.355,12.522,84.822,12.485,84.242,12.485z"/>
		</g>
	</g>
</g>
</svg>
