<?xml version="1.0" encoding="utf-8"?>
<!-- Generator: Adobe Illustrator 21.0.0, SVG Export Plug-In . SVG Version: 6.00 Build 0)  -->
<svg version="1.1" id="图层_1" xmlns="http://www.w3.org/2000/svg" xmlns:xlink="http://www.w3.org/1999/xlink" x="0px" y="0px"
	 viewBox="0 0 128 128" style="enable-background:new 0 0 128 128;" xml:space="preserve">
<style type="text/css">
	.st0{opacity:0.2;enable-background:new    ;}
	.st1{opacity:0.08;enable-background:new    ;}
	.st2{opacity:0.1;enable-background:new    ;}
	.st3{fill:url(#SVGID_1_);}
	.st4{fill:#B71C1C;fill-opacity:0.3922;}
	.st5{fill:#FFFFFF;fill-opacity:0.3922;}
	.st6{opacity:0.8;}
	.st7{fill:#FFFFFF;}
	.st8{fill:#B71C1C;}
</style>
<g id="surface1">
	<polygon class="st0" points="18.5,124 18.5,4 109.5,4 109.5,90.2 75.7,124 	"/>
	<polygon class="st1" points="18.5,128 18.5,4 113.5,4 113.5,93 78.5,128 	"/>
	<polygon class="st2" points="20.5,126 20.5,6 111.5,6 111.5,92.2 77.7,126 	"/>
	<g>
		
			<linearGradient id="SVGID_1_" gradientUnits="userSpaceOnUse" x1="230.4004" y1="2337.9609" x2="230.4004" y2="2221.9609" gradientTransform="matrix(1 0 0 1 -166.4004 -2215.9609)">
			<stop  offset="0" style="stop-color:#512DA8"/>
			<stop  offset="8.000000e-03" style="stop-color:#D32F2F"/>
			<stop  offset="0.3041" style="stop-color:#E33932"/>
			<stop  offset="0.6579" style="stop-color:#F04035"/>
			<stop  offset="1" style="stop-color:#F44336"/>
		</linearGradient>
		<path class="st3" d="M74.9,122l32.6-32.6V6h-87v116H74.9z"/>
		<polygon class="st4" points="73.1,87.6 73.1,122 74.9,122 107.5,89.4 107.5,87.6 		"/>
		<path class="st5" d="M74.9,89.4h32.6L74.9,122V89.4z"/>
		<g class="st6">
			<path class="st7" d="M60.9,30.8c0,0,1.7,15.4-10.1,35.7C38.9,86.8,35.5,84.1,34.2,83.4c-1.2-0.7-2.8-3,2.4-7.6s7.3-4.5,7.3-4.5
				s-4.8,2.9-6.6,5.7c-1.9,2.8-3.4,4.6-2.9,5.4s5.8-3.2,8-6.7c3.5-5.5,10.2-15.6,13.3-25.3C58.7,40.8,60.9,30.8,60.9,30.8z"/>
			<path class="st7" d="M89.9,66.4c0,0-0.3,0.7-3.4,0.5c-3.1-0.3-15.2-4-21.6-11.8c-6.5-7.7-7-18.4-7.4-23.9c-0.5-5.5,2-4,2.4-3.3
				c0.6,0.5,0.8,2,0.8,2s-0.2-2.3-1.2-3.2c-1-1-1.8-1-2.8,0.7s-1.4,6.3-0.6,10.8c0.8,4.5,4.1,14.8,8.2,19.5
				c4.1,4.8,12.2,8.9,18.3,10.1C88.5,69,89.9,66.4,89.9,66.4L89.9,66.4z"/>
			<path class="st7" d="M50.6,68.5c0,0,11.7-3.8,22.8-4.8c11.1-1.1,14.9,0.1,15.9,0.9c1,0.8,1,1.7,1,1.7s1.2-1.2,0.4-2.5
				c-0.7-1.3-1.8-2.4-10.5-2.1c-8.8,0.3-9.4,0.6-17.5,2.1C54.6,65.2,50.6,68.5,50.6,68.5z"/>
		</g>
		<g>
			<path class="st8" d="M106.5,7v82l-32,32h-25h-28V7H106.5 M107.5,6h-87v116h29h25.4l32.6-32.6V6L107.5,6z"/>
		</g>
	</g>
</g>
</svg>
