<?xml version="1.0" encoding="utf-8"?>
<!-- Generator: Adobe Illustrator 21.0.0, SVG Export Plug-In . SVG Version: 6.00 Build 0)  -->
<svg version="1.1" id="图层_1" xmlns="http://www.w3.org/2000/svg" xmlns:xlink="http://www.w3.org/1999/xlink" x="0px" y="0px"
	 viewBox="0 0 128 128" style="enable-background:new 0 0 128 128;" xml:space="preserve">
<style type="text/css">
	.st0{opacity:0.2;enable-background:new    ;}
	.st1{opacity:0.08;enable-background:new    ;}
	.st2{opacity:0.1;enable-background:new    ;}
	.st3{fill:#0D47A1;}
	.st4{fill:url(#SVGID_1_);}
	.st5{fill:#64B5F6;}
	.st6{fill:#FFFFFF;fill-opacity:0.8;}
</style>
<rect x="18.3" y="4" class="st0" width="91.4" height="120"/>
<rect x="18.3" y="4" class="st1" width="95.4" height="124"/>
<rect x="20.3" y="6" class="st2" width="91.4" height="120"/>
<rect x="20.3" y="6" class="st3" width="87.4" height="116"/>
<g>
	
		<linearGradient id="SVGID_1_" gradientUnits="userSpaceOnUse" x1="105.6001" y1="-794.9004" x2="105.6001" y2="-680.9004" gradientTransform="matrix(1 0 0 -1 -41.6001 -673.9004)">
		<stop  offset="0" style="stop-color:#1976D2"/>
		<stop  offset="0.0226" style="stop-color:#1C79D3"/>
		<stop  offset="0.2859" style="stop-color:#3B93E2"/>
		<stop  offset="0.5416" style="stop-color:#52A6ED"/>
		<stop  offset="0.7843" style="stop-color:#5FB1F4"/>
		<stop  offset="1" style="stop-color:#64B5F6"/>
	</linearGradient>
	<rect x="21.3" y="7" class="st4" width="85.4" height="114"/>
	<path class="st5" d="M93.7,55.4c0,16.4-13.3,29.7-29.7,29.7S34.3,71.8,34.3,55.4S47.6,25.8,64,25.8S93.7,39.1,93.7,55.4z"/>
	<path class="st6" d="M44.5,33.1c0,0,0.6,0.3,0.9,0.9c0.2,0.5,0.9,0.5,0.9,0.5h0.9l1.4-0.4l-0.3,0.8c0,0-7.3,3.4-5.8,5.4
		s1,2.5,1,3.1s0.4,0.1,0.4,0.1l0.4-1.1l0.6-0.9l0.6-0.9l0.2-0.5l0.9-1.5l1-0.6l0.9,0.6c0,0,0.4,0.2,0.3,0.5
		c-0.1,0.3-0.2,0.9-0.2,0.9s0.2,0.4,0.5,0.4S50,40,50,40l0.4,0.8l0.3,1.4l0.9,0.9L52,44l-0.4,0.9l0.4,0.3l1,1l0.2,0.5l-1.6-0.1
		c0,0-0.2-0.4-0.5-0.4s-1.7-0.1-1.7-0.1l-0.8,0.2l-0.4,0.5c0,0-0.5,0.9-0.9,0.9c-0.3,0-1.1-0.2-1.1-0.2s-0.6-0.2-0.9,0.4
		c-0.3,0.6,0.5,0.9,0.5,0.9l-1.5,0.4L44,49.5c0,0-1,0.4-1,0.8s0,0.3,0,0.3l-0.3,0.9V52l-0.8,0.6l-0.8,0.5l-0.3,0.6v1
		c0,0-0.1,0.5-0.1,0.9s0,1.1,0,1.1s-0.3,0.3-0.5-0.3S40,55.8,40,55.8L39.6,55c0,0,0.3-0.1-0.1-0.4c-0.4-0.3-0.9-0.4-0.9-0.4
		S38.4,54,38,54s0.5,0.1-0.4,0c-1-0.1-1-0.1-1-0.1l-0.8,0.6V55c0,0-0.2,3.7,0.9,4.2h0.4l0.6-0.9l0.5,0.2v0.4l-0.1,0.8v0.4l0.5,0.5
		l0.3,0.9c0.4,0.8,0.2,1,0.5,1.1c0.3,0.2,0.6,0.8,0.6,0.8l0.4,0.2c0,0,0.3,0.1,0.6,0.2c0.3,0.1,0.3,0.1,0.3,0.1l0.1,0.5l0.1,0.4
		l0.4,0.5c0,0-0.3,0,0.4,0c0.8,0,0.8,0,0.8,0s0,0.2,0.5,0.4c0.5,0.2,0.1,0.1,0.5,0.2s1.1,0.2,1.1,0.2C46,66,46,66,46,66l0.5,0.8
		c0,0,0.3,0,0.4,0.3c0.1,0.3-0.5,0,0.1,0.3s0,0.1,0.6,0.3c0.6,0.2-0.2,0.2,0.6,0.2s0.9,0,1.3,0.1c0.3,0.1,0.5,0.9,0.5,0.9
		c0.6,0.8,0.6,0.8,0.6,0.8l0.1,0.9c0,0-0.3,0.2,0.4,0.2c0.8,0,0.2,0,0.8,0s-0.1-0.2,0.5,0S53,71,53,71s1,0.8,1.3,0.8s0.9-0.1,1.3,0
		c0.3,0.1,0.5,0.6,1.1,0.8c0.6,0.1,0.9,0,1.3,0.3c0.4,0.3,0.4,0.3,0.4,0.3l0.1,1.1l0.1,0.7l-0.9,0.3l-0.1,1l-0.4,1v0.5
		c0,0,0.5,0.4-0.4,0.5s-0.9,0.1-0.9,0.1L55.5,79c0,0,0,0.1-0.2,0.4s-0.4,0.8-0.4,0.8l0.1,1v0.6l-0.3,0.5c0,0-0.3,0.1,0.5,0.7
		c0.9,0.5,1.5,0.5,1.7,0.9c0.2,0.3,0.7,0.6,0.7,0.6l-1.1-0.2L55.7,84l-1.2-0.3l-2.3-1.2c0,0-3.4-2.8-4.5-5.1c0,0-0.9-1.3-2.4-1.9
		c0,0-3.8-3.4-4.1-4.3l-0.1-0.6v-0.3L41,70.2v-0.3l-0.1-0.2l0.1-1V68v-0.4v-0.3l-0.2-0.2l-0.1-0.5v-0.1l0.6-0.5L41,65.5l0.1-0.2
		l0.3-0.2l0.2-0.3c0-0.1-0.3-0.3-0.3-0.3h-0.1L41,64.8h-0.2l-0.2-0.1c0-0.1-0.2-0.2-0.2-0.2l-0.2-0.1L40,64.3
		c-0.1-0.1-0.3-0.2-0.3-0.3l-0.2-0.3l-0.2-0.1c0,0-0.3-0.4-0.3-0.5l-0.1-0.3l-0.3-0.4L38.5,62h-0.2l-0.5-0.2l-0.3-0.4L37.1,61
		c0,0-0.2-0.3-0.2-0.4c0-0.1-0.1-0.2-0.1-0.2h-0.2h-0.1l-0.3-0.3L35,58.7l-0.1-0.5l-0.1-0.6l-0.1-1V56l-0.4-4.4
		C34.4,51.7,35.6,40.8,44.5,33.1z"/>
	<path class="st6" d="M78.1,29.4l1,0.8l0.5,0.2l0.3,0.4l0.1,0.4c0,0,0.1,0.4,0,0.5c0,0.1-0.1,0.6-0.1,0.6s0.4,0.8,0.4,0.9
		c0,0.1,0,0.5,0,0.6c-0.1,0-0.6,0.4-0.7,0.2c-0.1-0.1-0.4-0.5-0.5-0.5c-0.1-0.1-0.4-0.3-0.4-0.3l0.8-0.1l-0.1-0.5
		c0,0-0.5-0.2-0.7-0.2C78.5,32.3,78,32,78,32l-0.6-0.1c0,0-0.9-0.2-1-0.3c-0.1,0-0.5-0.2-0.5-0.2h-0.8c0,0-0.4,0.2-0.5,0.3
		c0,0.1-0.5,0.6-0.5,0.6s0,0.6,0,0.7c0,0.1-0.1,0.3-0.1,0.6s-0.1,0.7-0.1,0.8s0,0.2,0,0.2L73.8,35l-0.3,0.2L73,35.6
		c0,0-0.4,0.3-0.4,0.4c0,0.1,0,0.5,0.1,0.8s0.1,0.6,0.3,0.7c0.2,0.1,0.3,0.3,0.4,0.4c0.1,0,0,0.1,0.3,0.1c0.2,0,0.4,0.1,0.5,0
		c0.1,0,0.3,0,0.4-0.2c0.1-0.1-0.1,0,0.1-0.1c0.2,0,0.2-0.2,0.3,0c0.2,0.1,0.3,0.3,0.4,0.4c0,0.1,0.2,0.3,0.3,0.5
		c0.2,0.1,0.3,0.5,0.3,0.5l0.3,0.3c0,0,0,0,0.2,0s0.5,0,0.5,0l0.1-0.2h0.2c0-0.1,0-0.2,0-0.2s-0.1-0.3-0.2-0.4
		c0-0.1-0.1-0.3-0.1-0.3l0.1-0.3l0.2-0.2l0.1-0.2v-0.3l-0.2-0.1L77,36.6c0,0-0.2,0-0.2-0.2c-0.1-0.2-0.1-0.2-0.1-0.2l-0.4-0.1L76,36
		l0.3-0.2c0.2-0.3,0.2-0.4,0.2-0.5s0-0.4,0-0.4s-0.2-0.1-0.2-0.3s0-0.4,0-0.4V34c0,0,0-0.1,0.2-0.1c0.1,0,0.3,0.1,0.4,0.1
		s0.3,0,0.3,0s0.1,0,0.1,0.2c0,0.1,0,0.3,0,0.3l0.2-0.3v0.3v0.4v0.4l0.2,0.4l0.2,0.3c0,0,0.2,0.2,0.3,0.3c0.1,0,0.3,0.2,0.3,0.2
		l0.3,0.1H79l0.2-0.2c0,0,0.3,0,0.3-0.1s0-0.1,0-0.1s0.4,0,0.5,0s0.3,0,0.3,0s0.1,0.3,0,0.3s-0.1,0.1-0.4,0.2c-0.2,0-0.3,0-0.4,0.1
		s-0.2,0.3-0.2,0.3h0.2h0.1l0.2,0.2c0,0,0,0,0,0.2c-0.1,0.1,0.2,0.1-0.1,0.1c-0.3,0.1-0.4,0-0.4,0s0-0.2-0.2-0.1
		C79,37.6,79,37.8,79,37.8v0.3l0.2,0.5c0,0,0.1,0.1,0,0.1s-0.4,0.4-0.4,0.4s-0.1,0.1-0.2,0.1s-0.2,0-0.5,0.1c-0.2,0-0.2,0-0.4,0.1
		c-0.2,0-0.3,0.1-0.6,0.1c-0.3,0-0.8,0-1,0s-0.2,0-0.3,0c-0.1-0.1,0,0-0.2-0.2c-0.1-0.2-0.3-0.3-0.3-0.5c0-0.1,0-0.1-0.1-0.3
		c0-0.2,0-0.3-0.2-0.3s-0.2,0-0.2,0s-0.4,0.3-0.3,0.4c0,0.1,0,0,0.3,0.2s0.4,0.6,0.4,0.6v0.3L74.6,40l-0.4,0.1v0.3
		c0,0,0,0.1-0.1,0.2c-0.1,0.1-0.3,0.3-0.3,0.3s-0.2,0-0.2,0.2c0,0.1-0.2,0.5-0.2,0.5s-0.2,0-0.4,0.1c-0.2,0.1,0.1,0.1-0.4,0.3
		c-0.4,0.2-0.4,0.2-0.4,0.2h-0.5l-0.3,0.1c0,0-0.4,0-0.4,0.1s-0.2,0.4-0.2,0.4s-0.1,0.2,0,0.2s0.2,0,0.5,0c0.2,0.1,0.2,0.1,0.4,0.1
		c0.1,0.1,0.3,0.2,0.3,0.2l0.5,0.5l0.3,0.6l-0.1,0.5L72,45.6c0,0-0.3,0-0.5,0c-0.1,0-0.1,0-0.6,0c-0.6,0-0.7,0-0.8,0
		c-0.1,0-0.5-0.1-0.5-0.1l-0.3,0.1l-0.2,0.2H69c0,0,0.2,0.4,0.2,0.6c0,0.1,0,0.3,0,0.3L69.1,47L69,47.3l-0.2,0.3l0.1,0.2
		c0,0-0.1,0.1,0,0.1s0.4,0,0.4,0.1s-0.2,0.5-0.2,0.5l0.5,0.1c0,0,0,0,0.2,0.1c0.3,0,0.5,0.1,0.5,0.1l0.3,0.2l0.1,0.2l0.1-0.2
		c0,0,0.5,0,0.6-0.1c0.1,0,0.3,0,0.3,0h0.4c0,0,0.1,0,0.2-0.1c0-0.1,0-0.1,0-0.1s0.5-0.2,0.6-0.3c0.1,0,0.1-0.3,0.1-0.3
		s0.1-0.1,0.1-0.2c0-0.1-0.1-0.3-0.1-0.3v-0.2l0.1-0.2c0,0,0-0.1,0.2-0.2c0.1-0.1,0.1-0.1,0.1-0.1s-0.1,0,0.1-0.1s0.3-0.2,0.4-0.2
		s-0.1,0.1,0.1,0s0.2-0.2,0.2-0.3s0.1-0.6,0.1-0.6l0.2-0.3H75l0.2,0.1c0,0,0.3,0,0.3-0.1s0.2-0.2,0.2-0.2l0.4-0.2c0,0,0,0,0.1,0
		c0.2,0,0.5,0,0.6,0s0.3,0,0.3,0s0.2,0.1,0.3,0.2c0,0.1,0.2,0.3,0.2,0.3l0.1,0.2h0.1c0.2,0.1,0.3,0.2,0.6,0.3
		c0.3,0.1,0.6,0.2,0.6,0.2s0.1,0.2,0.2,0.3s0.2,0.2,0.3,0.3c0.1,0,0.2,0.1,0.2,0.2c0,0.1,0.2,0.3,0.2,0.3l0.2,0.2l0.1-0.2V47v-0.2
		c0,0-0.2-0.1,0-0.1s0.3,0,0.3,0l-0.2-0.3l-0.2-0.1l0.1-0.3l-0.1-0.1H80l-0.1-0.1l-0.2-0.1c0,0-0.3-0.1-0.3-0.2c0-0.1,0-0.1,0-0.1
		h-0.3c0,0-0.3-0.2-0.3-0.3s0-0.4,0-0.4h-0.3c0,0,0-0.2,0-0.3s0.1-0.2,0.1-0.2h0.6l0.1,0.3l0.2,0.1l0.3,0.1l0.1,0.2L80,45
		c0,0,0.1,0,0.2,0.1c0.2,0,0.3,0.1,0.3,0.1s0.2,0.2,0.3,0.2c0.1,0,0.2,0.1,0.3,0.1C81,45.6,81,45.6,81,45.6s0,0.1,0.2,0.2
		c0.1,0.1,0.3,0.3,0.3,0.4c0,0.1,0.1,0.4,0.2,0.5c0.1,0,0.1,0,0.3,0.2c0.2,0.2,0.2,0.4,0.3,0.5c0.2,0,0.3,0,0.3,0.2s0,0.3,0,0.3
		s0.1,0,0.2,0s0.3-0.2,0.3-0.2s0.2-0.3,0-0.3c-0.1,0-0.3,0-0.3-0.1s0-0.6,0-0.6l0.1-0.3l0.2-0.3l0.3,0.1l0.3-0.2l0.3,0.3l-0.1,0.4
		c0,0,0,0.2,0.2,0.4c0.1,0.2,0.3,0.4,0.3,0.4l0.5,0.4l0.7,0.2h0.1l1-0.2c0,0,0.1,0,0.2,0s0.6,0.8,0.6,0.8s0,0.3,0,0.5s0,0.7,0,0.7
		s-0.3,0.3-0.5,0.3c-0.1,0-0.5,0.2-0.5,0.2l-0.8,0.2h-0.5l-0.9-0.1c0,0-1,0-1.1,0s-0.4,0-0.5,0s-0.2,0.1-0.3,0.4
		c-0.1,0.3-0.3,0.4-0.3,0.4s0,0.1-0.2,0.1s-0.2,0.1-0.3,0c-0.1-0.1-0.8-0.2-0.8-0.2l-0.6-0.4L80,50.2h-0.3h-1h-0.6l0.1-1l0.1,0.3
		l-0.2-0.7l-0.3-0.2l-0.7-0.1h-0.4l-0.6,0.1l-0.6,0.2l-0.3,0.1l-1.6,0.3L73,49.4c0,0-0.2,0.1-0.3,0.2c-0.1,0-0.5,0-0.5,0
		s-0.3,0-0.4-0.1c-0.1,0-0.5,0-0.6,0s-0.4,0-0.5,0s-0.2,0-0.3,0.2c-0.1,0.1-0.4,0.5-0.4,0.5s-0.2,0.2-0.3,0.3c0,0.1-0.3,0.4-0.3,0.4
		L69,51.5l-0.2,0.3l0.1,0.3v0.2c0,0-0.1,0.1-0.2,0.2c-0.1,0-0.3,0.1-0.3,0.1s-0.1,0-0.3,0.2C68,52.9,68,52.9,67.9,53
		c-0.1,0.1-0.4,0.3-0.4,0.3s-0.2,0.1-0.3,0.3c-0.1,0.1-0.3,0.3-0.3,0.4c-0.1,0.1-0.2,0.2-0.3,0.2c-0.1,0.1-0.3,0.4-0.3,0.5
		c-0.1,0.1-0.3,0.5-0.3,0.5L65.8,56v0.4c0,0,0,0.1,0.1,0.2c0.1,0.1,0.2,0.5,0.2,0.5v0.3c0,0-0.1,0.3-0.1,0.4c0,0.1,0.1,0.6,0.1,0.6
		v0.3c0,0,0,0.1-0.1,0.2c-0.1,0.1-0.2,0.3-0.2,0.3l0.2,0.4l0.1,0.3v0.2l0.2,0.3c0,0,0.1,0.1,0.2,0.2c0.1,0,0.1,0,0.3,0.2
		c0.2,0.1,0.2,0.1,0.2,0.1s0.3,0.3,0.3,0.5c0,0.1,0.2,0.3,0.2,0.3l0.3,0.3c0,0,0,0.2,0.2,0.3s0.4,0.2,0.5,0.3s0.4,0.3,0.6,0.3
		s0.3,0.1,0.4,0.1s-0.1-0.3,0.5,0s1.1,0.5,1.1,0.5l0.5,0.2c0,0,0.8,0,0.9-0.1c0.1,0,0.2,0,0.3,0c0.1,0,0.3,0,0.5,0s0.9-0.1,0.9-0.1
		l0.8-0.3c0,0,0.2-0.1,0.3-0.2c0.1,0,0.4-0.2,0.5-0.3s0.6-0.1,0.6-0.1s0-0.1,0.2,0s0.2,0.2,0.2,0.3c0.1,0.1,0.1,0.3,0.2,0.3
		s0.5,0.1,0.5,0.1s0.5-0.1,0.6,0c0.1,0,0.5,0,0.5,0l0.1,0.2l0.1,0.4v0.4c0,0-0.1,0.1,0,0.3c0,0.1,0.2,0.4,0.2,0.4s-0.2,0.3-0.3,0.3
		s-0.3,0.3-0.3,0.3l0.7,0.6l0.4,0.4l0.3,0.3c0,0,0.1,0.1,0.1,0.2s-0.1,0.3,0,0.5c0,0.1,0,0.5,0,0.5s0,0.3,0,0.4s-0.1,0.6-0.1,0.6
		L79.2,70L79,70.6l-0.2,0.3l-0.3,0.3l-0.2,0.4v0.5L78,72.5c0,0,0,0.3,0,0.4s0.3,0.7,0.3,0.7V74c0,0-0.2,0.6-0.2,0.8
		c0,0.1-0.1,0.3-0.1,0.5c0,0.1-0.1,0.5-0.1,0.5l0.1,0.5l0.2,0.5L78,77.3c0,0-0.1,0.4-0.1,0.6s0.3,0.4,0.4,0.4s0.5,0,0.7-0.2
		c0.2-0.1,0.7-0.2,0.8-0.3c0.1,0,0.2,0,0.5-0.2s0.7-0.5,0.7-0.5s0.3-0.2,0.5-0.3c0.1-0.1,0.6-0.6,0.6-0.6s0.3-0.3,0.6-0.5
		c0.2-0.1,0,0,0.2-0.2c0.2-0.1,1-0.8,1-0.8l0.8-0.8c0,0,0.7-0.9,0.8-1c0.1-0.1,0.7-0.9,0.8-1c0.1,0,0.9-0.6,1.1-0.8
		c0.2-0.1,0.4-1.1,0.5-1.3c0.1-0.1,0.6-1.3,0.6-1.3l0.5-1.4l0.8-2l0.8-1.4c0,0,0.3-0.6,0.5-0.8c0.1-0.2,0.9-1.7,0.9-1.7l0.3-1.2
		l0.1-1h-0.5l-0.5,0.5l-0.5-0.1l-0.5,0.1l0.5-0.7l-0.1-0.5L90.4,58l-0.6-0.9v-0.9l-0.6-1l-0.4-1.6c0,0-0.7-0.8-0.6-0.9
		c0-0.2,0.2-0.8,0.2-0.8l0.4,0.2c0,0,0.3,0.8,0.4,0.8s0.3,0.4,0.4,0.5c0,0.1,0.1,0.4,0.2,0.5s0.4,0.7,0.4,0.7s0.2,0.6,0.3,0.8
		c0,0.1,0.3,0.5,0.3,0.8s0.2,1.2,0.2,1.3s0.2,1.1,0.2,1.1s0.3-0.1,0.4-0.2c0-0.1,0-0.1,0.1-0.2c0-0.1,0.6-0.5,0.6-0.5l0.2-0.8
		c0,0,0.1-0.3,0.2-0.5c0-0.1,0.3-0.7,0.3-0.8s0-0.5,0-0.6s0.2-0.7,0.2-0.8s0-0.5,0-0.5v-0.9l0.4-0.5l0.2-0.5
		C93.6,51.7,92.3,36.8,78.1,29.4z"/>
</g>
</svg>
