<?xml version="1.0" encoding="utf-8"?>
<!-- Generator: Adobe Illustrator 16.0.0, SVG Export Plug-In . SVG Version: 6.00 Build 0)  -->
<!DOCTYPE svg PUBLIC "-//W3C//DTD SVG 1.1//EN" "http://www.w3.org/Graphics/SVG/1.1/DTD/svg11.dtd">
<svg version="1.1" id="图层_1" xmlns="http://www.w3.org/2000/svg" xmlns:xlink="http://www.w3.org/1999/xlink" x="0px" y="0px"
	 width="128px" height="128px" viewBox="0 0 128 128" enable-background="new 0 0 128 128" xml:space="preserve">
<polygon opacity="0.08" enable-background="new    " points="18.31,128 18.31,4 113.689,4 113.689,92.995 78.686,128 "/>
<polygon display="none" opacity="0.08" enable-background="new    " points="22.31,126 22.31,6 113.689,6 113.689,92.167 
	79.857,126 "/>
<polygon opacity="0.1" enable-background="new    " points="20.31,126 20.31,6 111.689,6 111.689,92.167 77.857,126 "/>
<polygon opacity="0.2" enable-background="new    " points="18.31,124 18.31,4 109.689,4 109.689,90.167 75.857,124 "/>
<polygon fill="#3E2723" points="20.298,122 20.298,6 107.702,6 107.702,89.34 75.033,122 "/>
<g>
	<g>
		
			<linearGradient id="SVGID_1_" gradientUnits="userSpaceOnUse" x1="105.6035" y1="-42.9004" x2="105.6035" y2="-156.9009" gradientTransform="matrix(1 0 0 -1 -41.6001 -35.9004)">
			<stop  offset="0" style="stop-color:#785548"/>
			<stop  offset="1" style="stop-color:#9F9E9F"/>
		</linearGradient>
		<polygon fill="url(#SVGID_1_)" points="21.298,121 21.298,7 106.709,7 106.709,88.893 74.959,121 		"/>
		<polygon fill="#795548" fill-opacity="0.7" points="106.709,88.938 106.709,87.557 72.895,87.557 72.895,121 74.646,121 		"/>
		<path opacity="0.39" fill="#FFFFFF" enable-background="new    " d="M74.602,88.938l32.107,0.045L74.646,121L74.602,88.938z"/>
	</g>
	<path fill="#FFFFFF" d="M51.817,28.976h-2.895v37.02H46.74v-37.02h-2.879v37.02h-2.182v-37.02h-2.88v37.02h-2.182v-37.02h-2.88
		v37.02H32.98v15.683h19.816V65.996h-0.98V28.976z M49.917,77.122H35.86V68.03h14.057V77.122z"/>
	<g>
		<rect x="21.276" y="7" opacity="0.8" fill="#FFFFFF" enable-background="new    " width="85.449" height="21.85"/>
		<g enable-background="new    ">
			<path fill="#5D4037" d="M52.27,26.445c0.104-1.202,0.327-2.449,0.653-3.741s0.728-2.561,1.202-3.807
				c0.475-1.243,1.002-2.42,1.588-3.525c0.586-1.106,1.18-2.06,1.781-2.861h-7.786V9.39h12.55v2.653
				c-0.557,0.572-1.157,1.366-1.825,2.383c-0.668,1.017-1.292,2.167-1.886,3.451c-0.594,1.288-1.113,2.668-1.559,4.141
				c-0.438,1.473-0.712,2.95-0.816,4.427H52.27z"/>
			<path fill="#5D4037" d="M78.008,12.065c-0.549,0.542-1.209,1.243-1.967,2.104c-0.764,0.857-1.543,1.796-2.352,2.813
				c-0.816,1.013-1.619,2.063-2.404,3.143c-0.803,1.083-1.508,2.119-2.123,3.099h9.129v3.221H64.197v-2.286
				c0.483-0.838,1.077-1.766,1.774-2.791c0.697-1.024,1.424-2.056,2.182-3.099c0.758-1.039,1.529-2.044,2.316-3.021
				c0.785-0.976,1.514-1.848,2.182-2.616h-8.045V9.412h13.402V12.065z"/>
		</g>
	</g>
</g>
</svg>
