<?xml version="1.0" encoding="utf-8"?>
<!-- Generator: Adobe Illustrator 16.0.0, SVG Export Plug-In . SVG Version: 6.00 Build 0)  -->
<!DOCTYPE svg PUBLIC "-//W3C//DTD SVG 1.1//EN" "http://www.w3.org/Graphics/SVG/1.1/DTD/svg11.dtd">
<svg version="1.1" id="图层_1" xmlns="http://www.w3.org/2000/svg" xmlns:xlink="http://www.w3.org/1999/xlink" x="0px" y="0px"
	 width="128px" height="128px" viewBox="0 0 128 128" enable-background="new 0 0 128 128" xml:space="preserve">
<polygon opacity="0.08" enable-background="new    " points="18.31,128 18.31,4 113.689,4 113.689,92.995 78.686,128 "/>
<polygon display="none" opacity="0.08" enable-background="new    " points="22.31,126 22.31,6 113.689,6 113.689,92.167 
	79.857,126 "/>
<polygon opacity="0.1" enable-background="new    " points="20.31,126 20.31,6 111.689,6 111.689,92.167 77.857,126 "/>
<polygon opacity="0.2" enable-background="new    " points="18.31,124 18.31,4 109.689,4 109.689,90.167 75.857,124 "/>
<polygon fill="#5F7B89" points="20.31,122 20.31,6 107.689,6 107.689,89.339 75.029,122 "/>
<g>
	<g>
		<g>
			
				<linearGradient id="SVGID_1_" gradientUnits="userSpaceOnUse" x1="188.7959" y1="1250.7002" x2="188.7959" y2="1364.7012" gradientTransform="matrix(1 0 0 1 -124.7998 -1243.7012)">
				<stop  offset="0" style="stop-color:#F6F5F5"/>
				<stop  offset="0.341" style="stop-color:#F1F2F3"/>
				<stop  offset="0.6434" style="stop-color:#E7EAEB"/>
				<stop  offset="0.9302" style="stop-color:#D5DBDF"/>
				<stop  offset="1" style="stop-color:#CFD7DB"/>
			</linearGradient>
			<polygon fill="url(#SVGID_1_)" points="21.291,121 21.291,7 106.701,7 106.701,88.938 74.639,121 			"/>
		</g>
		<polygon fill="#455963" fill-opacity="0.7" points="106.701,88.938 106.701,87.557 72.88,87.557 72.88,121 74.639,121 		"/>
		<path fill="#8DA1AC" d="M74.595,88.938l32.114,0.052L74.639,121L74.595,88.938z"/>
	</g>
	<text transform="matrix(0.8146 0 0 1 45.5537 67.3359)" fill="#607D8B" font-family="'Ubuntu-Regular'" font-size="39.5931">{  }</text>
</g>
</svg>
