<?xml version="1.0" encoding="utf-8"?>
<!-- Generator: Adobe Illustrator 21.0.0, SVG Export Plug-In . SVG Version: 6.00 Build 0)  -->
<svg version="1.1" id="图层_1" xmlns="http://www.w3.org/2000/svg" xmlns:xlink="http://www.w3.org/1999/xlink" x="0px" y="0px"
	 viewBox="0 0 128 128" style="enable-background:new 0 0 128 128;" xml:space="preserve">
<style type="text/css">
	.st0{opacity:0.08;enable-background:new    ;}
	.st1{display:none;opacity:0.08;enable-background:new    ;}
	.st2{opacity:0.1;enable-background:new    ;}
	.st3{opacity:0.2;enable-background:new    ;}
	.st4{fill:#0D47A1;}
	.st5{fill:url(#SVGID_1_);}
	.st6{fill:#0D47A1;fill-opacity:0.39;}
	.st7{fill:#FFFFFF;fill-opacity:0.45;}
	.st8{fill:#64B5F6;}
	.st9{fill:#FFFFFF;fill-opacity:0.8;}
	.st10{opacity:0.8;fill:#FFFFFF;enable-background:new    ;}
	.st11{enable-background:new    ;}
	.st12{fill:#1976D2;}
</style>
<polygon class="st0" points="18.3,128 18.3,4 113.7,4 113.7,93 78.7,128 "/>
<polygon class="st1" points="22.3,126 22.3,6 113.7,6 113.7,92.2 79.9,126 "/>
<polygon class="st2" points="20.3,126 20.3,6 111.7,6 111.7,92.2 77.9,126 "/>
<polygon class="st3" points="18.3,124 18.3,4 109.7,4 109.7,90.2 75.9,124 "/>
<polygon class="st4" points="20.3,122 20.3,6 107.7,6 107.7,89.3 75,122 "/>
<g>
	<g>
		<g>
			<g>
				
					<linearGradient id="SVGID_1_" gradientUnits="userSpaceOnUse" x1="147.2002" y1="1607.8008" x2="147.2002" y2="1493.8008" gradientTransform="matrix(1 0 0 1 -83.2002 -1486.8008)">
					<stop  offset="0" style="stop-color:#1976D2"/>
					<stop  offset="0.0226" style="stop-color:#1C79D3"/>
					<stop  offset="0.2859" style="stop-color:#3B93E2"/>
					<stop  offset="0.5416" style="stop-color:#52A6ED"/>
					<stop  offset="0.7843" style="stop-color:#5FB1F4"/>
					<stop  offset="1" style="stop-color:#64B5F6"/>
				</linearGradient>
				<polygon class="st5" points="21.3,121 21.3,7 106.7,7 106.7,88.9 74.6,121 				"/>
			</g>
			<polygon class="st6" points="106.7,88.9 106.7,87.6 72.9,87.6 72.9,121 74.6,121 			"/>
			<path class="st7" d="M74.6,88.9h32.1l-32.1,32V88.9z"/>
		</g>
		<g>
			<path class="st8" d="M90.5,60.3c0,14.6-11.9,26.5-26.5,26.5c-14.7,0-26.5-11.9-26.5-26.5S49.4,33.8,64,33.8
				C78.6,33.7,90.5,45.6,90.5,60.3z"/>
			<path class="st9" d="M46.6,40.3c0,0,0.5,0.3,0.8,0.8c0.2,0.5,0.8,0.5,0.8,0.5H49l1.2-0.4l-0.3,0.7c0,0-6.5,3-5.2,4.8
				s0.8,2.2,0.8,2.8c0,0.5,0.4,0.1,0.4,0.1l0.4-1l0.5-0.8l0.6-0.9l0.2-0.5l0.8-1.3l0.9-0.5l0.9,0.5c0,0,0.4,0.2,0.3,0.5
				c-0.1,0.3-0.2,0.8-0.2,0.8s0.2,0.4,0.5,0.4s0.8-0.3,0.8-0.3l0.4,0.7l0.3,1.2l0.8,0.8l0.4,0.8L53,50.8l0.4,0.3l0.9,0.9l0.2,0.5
				L53,52.4c0,0-0.2-0.4-0.5-0.4S51,51.9,51,51.9l-0.7,0.2L50,52.5c0,0-0.5,0.8-0.8,0.8s-1-0.2-1-0.2s-0.6-0.2-0.9,0.4
				c-0.3,0.6,0.5,0.8,0.5,0.8l-1.3,0.4l-0.4,0.2c0,0-0.9,0.4-0.9,0.7s0,0.3,0,0.3l-0.3,0.8v0.5l-0.7,0.6l-0.7,0.5l-0.3,0.6v0.9
				c0,0-0.1,0.5-0.1,0.8s0,1,0,1s-0.3,0.3-0.5-0.3s-0.2-0.6-0.2-0.6L42.1,60c0,0,0.3-0.1-0.1-0.4c-0.4-0.3-0.8-0.4-0.8-0.4
				s0-0.2-0.4-0.2s0.5,0.1-0.4,0c-0.8-0.1-0.8-0.1-0.8-0.1l-0.7,0.5v0.5c0,0-0.2,3.3,0.8,3.8H40l0.5-0.8L41,63v0.4L40.9,64v0.4
				l0.5,0.5l0.3,0.8c0.4,0.7,0.2,0.8,0.5,1s0.6,0.7,0.6,0.7l0.4,0.2c0,0,0.3,0.1,0.5,0.2c0.3,0.1,0.3,0.1,0.3,0.1l0.1,0.4l0.1,0.3
				l0.4,0.5c0,0-0.3,0,0.4,0s0.7,0,0.7,0s0,0.2,0.5,0.4c0.5,0.2,0.1,0.1,0.5,0.2s1,0.2,1,0.2c0.7-0.1,0.7-0.1,0.7-0.1l0.5,0.7
				c0,0,0.3,0,0.4,0.3c0.1,0.3-0.5,0,0.1,0.3s0,0.1,0.6,0.3c0.5,0.2-0.2,0.2,0.5,0.2s0.8,0,1.2,0.1c0.3,0.1,0.5,0.8,0.5,0.8
				c0.5,0.7,0.5,0.7,0.5,0.7l0.1,0.8c0,0-0.3,0.2,0.4,0.2s0.2,0,0.7,0s-0.1-0.2,0.5,0c0.5,0.2,0.5,0.2,0.5,0.2s0.8,0.7,1.2,0.7
				c0.3,0,0.9-0.1,1.2,0s0.5,0.5,1,0.7c0.6,0.1,0.8,0,1.1,0.3c0.4,0.3,0.4,0.3,0.4,0.3l0.1,1L59.6,78l-1.2,0l-0.1,1L58,79.9v0.5
				c0,0,0.5,0.4-0.4,0.5C56.8,81,56.8,81,56.8,81l-0.4,0.4c0,0,0,0.1-0.2,0.4s-0.4,0.8-0.4,0.8l0.1,0.8v0.5l-0.3,0.5
				c0,0-0.3,0.1,0.5,0.6s1.4,0.5,1.5,0.8c0.2,0.3,0.6,0.6,0.6,0.6l-1-0.2L56.6,86l-1.1-0.3l-2-1.1c0,0-3.1-2.5-4-4.5
				c0,0-0.8-1.2-2.2-1.7c0,0-3.4-3.1-3.7-3.8l-0.1-0.5v-0.3l-0.1-0.1v-0.3L43.3,73v-0.9v-0.6v-0.3v-0.3l-0.2-0.2L43,70.3v-0.1
				l0.5-0.4l-0.1-0.4l0.1-0.2l0.3-0.2l0.2-0.3c0-0.1-0.3-0.3-0.3-0.3h-0.1l-0.1,0.4h-0.2l-0.2-0.1l-0.2-0.2l-0.2-0.1
				c0,0-0.2,0-0.2-0.1s-0.3-0.2-0.3-0.3L42,67.7l-0.2-0.1c0,0-0.3-0.4-0.3-0.5l-0.1-0.2c0,0-0.3-0.3-0.3-0.4L41,66.2h-0.2L40.3,66
				L40,65.6l-0.3-0.4c0,0-0.2-0.3-0.2-0.4s-0.1-0.2-0.1-0.2h-0.2h-0.1l-0.3-0.3L38,63.2l-0.1-0.5l-0.1-0.5l-0.1-0.8v-0.6l-0.3-3.9
				C37.5,56.9,38.7,47.1,46.6,40.3z"/>
			<path class="st9" d="M76.6,36.9l0.9,0.7l0.4,0.2l0.3,0.3l0.1,0.3c0,0,0.1,0.3,0,0.4c0,0.1-0.1,0.5-0.1,0.5s0.4,0.7,0.4,0.8
				s0,0.5,0,0.5c-0.1,0-0.6,0.3-0.6,0.2s-0.3-0.4-0.4-0.4s-0.3-0.3-0.3-0.3L78,40l-0.1-0.4c0,0-0.5-0.2-0.6-0.2s-0.6-0.3-0.6-0.3
				L76,39.2c0,0-0.8-0.2-0.9-0.3c-0.1,0-0.4-0.2-0.4-0.2H74c0,0-0.3,0.2-0.4,0.3c0,0.1-0.5,0.6-0.5,0.6s0,0.5,0,0.6S73,40.5,73,40.8
				s-0.1,0.6-0.1,0.7c0,0.1,0,0.2,0,0.2L72.7,42l-0.3,0.2L72,42.5c0,0-0.3,0.2-0.3,0.3s0,0.4,0.1,0.7s0.1,0.5,0.2,0.6
				c0.2,0.1,0.3,0.3,0.4,0.3s0,0.1,0.3,0.1c0.2,0,0.3,0.1,0.4,0c0.1,0,0.3,0,0.4-0.2c0.1-0.1-0.1,0,0.1-0.1c0.2,0,0.2-0.2,0.3,0
				c0.2,0.1,0.3,0.3,0.3,0.4c0,0.1,0.2,0.3,0.3,0.4c0.2,0.1,0.3,0.4,0.3,0.4l0.3,0.3c0,0,0,0,0.2,0s0.4,0,0.4,0l0.1-0.2H76
				c0-0.1,0-0.2,0-0.2s0-0.3-0.1-0.4s-0.1-0.3-0.1-0.3l0.1-0.3l0.2-0.2l0.1-0.2v-0.3L76,43.5l-0.3-0.2c0,0-0.2,0-0.2-0.2
				s0-0.2,0-0.2L75,43l-0.3-0.1l0.3-0.2c0.2-0.3,0.2-0.4,0.2-0.5s0-0.3,0-0.3s-0.2,0-0.2-0.3c0-0.2,0-0.3,0-0.3v-0.2
				c0,0,0-0.1,0.2-0.1c0.1,0,0.3,0.1,0.3,0.1c0.1,0,0.2,0,0.2,0s0.1,0,0.1,0.2c0,0.1,0,0.3,0,0.3l0.2-0.2v0.3V42v0.3l0.2,0.3
				l0.2,0.3c0,0,0.2,0.2,0.3,0.3c0.1,0,0.3,0.2,0.3,0.2l0.3,0.1h0.2l0.2-0.2H78c0-0.1,0-0.1,0-0.1s0.3,0,0.4,0s0.3,0,0.3,0
				s0.1,0.2,0,0.2s-0.1,0.1-0.3,0.2c-0.2,0-0.3,0-0.3,0.1S77.9,44,77.9,44h0.2H78l0.2,0.2c0,0,0,0,0,0.2c-0.1,0.1,0.2,0.1-0.1,0.1
				c-0.2,0.1-0.4,0-0.4,0s0-0.2-0.2-0.1c-0.1,0.1-0.1,0.3-0.1,0.3V45l0.2,0.4c0,0,0.1,0.1,0,0.1s-0.4,0.4-0.4,0.4S77.1,46,77,46
				s-0.2,0-0.4,0c-0.2,0-0.2,0-0.3,0.1c-0.2,0-0.3,0.1-0.6,0.1c-0.3,0-0.7,0-0.9,0c-0.2,0-0.2,0-0.3,0c-0.1,0,0,0-0.2-0.2
				c-0.1-0.2-0.3-0.3-0.3-0.4c0-0.1,0-0.1-0.1-0.3c0-0.2,0-0.3-0.2-0.3s-0.2,0-0.2,0l-0.3,0.3c0,0,0,0,0.3,0.2s0.4,0.5,0.4,0.5
				l-0.1,0.3l-0.5,0.3l-0.4,0.1V47c0,0,0,0.1-0.1,0.2c-0.1,0.1-0.3,0.3-0.3,0.3s-0.2,0-0.2,0.2c0,0.1-0.2,0.4-0.2,0.4
				s-0.2,0-0.3,0.1c-0.2,0.1,0,0.1-0.3,0.3c-0.4,0.2-0.4,0.2-0.4,0.2h-0.4l-0.3,0.1c0,0-0.3,0-0.4,0.1c0,0.1-0.2,0.3-0.2,0.3
				s-0.1,0.2,0,0.2s0.2,0,0.4,0c0.2,0.1,0.2,0.1,0.3,0.1c0.1,0.1,0.3,0.2,0.3,0.2l0.5,0.4l0.3,0.6l-0.1,0.4L71,51.3c0,0-0.3,0-0.4,0
				s-0.1,0-0.6,0s-0.6,0-0.7,0s-0.4,0-0.4,0h-0.3l-0.2,0.2h-0.1c0,0,0.2,0.4,0.2,0.5s0,0.3,0,0.3l-0.1,0.3l0,0.4l-0.2,0.3l0.1,0.2
				c0,0-0.1,0.1,0,0.1s0.3,0,0.3,0c0,0.1-0.2,0.4-0.2,0.4l0.4,0.1c0,0,0,0,0.2,0c0.3,0,0.4,0.1,0.4,0.1l0.3,0.2l0.1,0.2l0.1-0.2
				c0,0,0.5,0,0.5-0.1c0.1,0,0.3,0,0.3,0h0.4c0,0,0.1,0,0.2-0.1c0-0.1,0-0.1,0-0.1s0.4-0.2,0.5-0.3c0.1,0,0.1-0.3,0.1-0.3
				s0.1-0.1,0.1-0.2c0-0.1-0.1-0.3-0.1-0.3v-0.2l0.1-0.2c0,0,0,0,0.2-0.2c0.1-0.1,0.1-0.1,0.1-0.1s-0.1,0,0.1-0.1
				c0.2,0,0.3-0.2,0.4-0.2s-0.1,0.1,0.1,0s0.2-0.2,0.2-0.3s0.1-0.6,0.1-0.6l0.2-0.3h0.4H74h0.3c0-0.1,0.2-0.2,0.2-0.2l0.3-0.2
				c0,0,0,0,0.1,0c0.2,0,0.4,0,0.6,0c0.1,0,0.3,0,0.3,0s0.2,0.1,0.3,0.2c0,0.1,0.2,0.3,0.2,0.3l0.1,0.2h0.1c0.2,0.1,0.2,0.2,0.5,0.3
				s0.5,0.2,0.5,0.2s0.1,0.2,0.2,0.3s0.2,0.2,0.3,0.3c0.1,0,0.2,0.1,0.2,0.2c0.1,0.1,0.2,0.3,0.2,0.3l0.2,0.2l0.1-0.2v-0.3v-0.2
				c0,0-0.2-0.1,0-0.1s0.3,0,0.3,0l0,0L78.8,52l-0.3-0.2l-0.1-0.1h-0.1l-0.1-0.1L78,51.5c0,0-0.3,0-0.3-0.2
				c-0.1-0.1-0.1-0.1-0.1-0.1h-0.3L77,51c0-0.1-0.1-0.3-0.1-0.3h-0.2c0,0,0-0.2,0-0.3s0.1-0.2,0.1-0.2h0.5l0.1,0.3l0.2,0.1l0.3,0.1
				l0.1,0.2l0.1,0.1c0,0,0,0,0.2,0.1c0.2,0,0.3,0.1,0.3,0.1s0.2,0.2,0.3,0.2c0.1,0,0.2,0.1,0.3,0.1c-0.1,0.1-0.1,0.1-0.1,0.1
				s0,0.1,0.2,0.2s0.3,0.3,0.3,0.3c0,0.1,0.1,0.4,0.2,0.4s0.1,0,0.3,0.2c0.2,0.2,0.2,0.3,0.3,0.4c0.2,0,0.3,0,0.3,0.2
				c0.1,0.2,0.1,0.3,0.1,0.3s0.1,0,0.2,0s0.3-0.2,0.3-0.2s0.2-0.3,0.1-0.3s-0.3,0-0.3-0.1s0-0.5,0-0.5l0.1-0.3l0.2-0.2l0.3,0.1
				l0.3-0.2l0.3,0.3L82,52.3c0,0,0,0.2,0.2,0.4c0.1,0.2,0.3,0.4,0.3,0.4l0.4,0.4l0.6,0.2h0.1l0.9-0.2c0,0,0.1,0,0.2,0
				s0.5,0.7,0.5,0.7s0,0.3,0,0.5s0,0.6,0,0.6s-0.3,0.3-0.4,0.3s-0.5,0.2-0.5,0.2L83.6,56h-0.5h-0.8h-0.9c0,0-0.4,0-0.5,0
				s-0.2,0.1-0.3,0.3c-0.1,0.3-0.3,0.3-0.3,0.3s0,0.1-0.2,0.1s-0.2,0-0.3,0s-0.7-0.2-0.7-0.2l-0.6-0.4l-0.3-0.3h-0.3h-0.8l-0.6-0.1
				l0.1-0.9l0.1,0.3l-0.2-0.6l-0.3-0.2L75.8,54h-0.4l-0.5,0.1l-0.5,0.2l-0.3,0.1l-1.4,0.2l-0.5,0.2c0,0-0.2,0.1-0.3,0.2
				c-0.1,0-0.4,0-0.4,0s-0.4,0-0.5,0s-0.4,0-0.6,0c-0.1,0-0.4,0-0.5,0s-0.2,0-0.3,0.2c-0.1,0.1-0.4,0.5-0.4,0.5S69,55.9,68.9,56
				c0,0.1-0.3,0.3-0.3,0.3l-0.3,0.6l0,0.1l0.1,0.3v0.2c0,0-0.1,0.1-0.2,0.2c-0.1,0-0.3,0.1-0.3,0.1s-0.1,0-0.3,0.2
				c-0.1,0.1-0.1,0.1-0.2,0.2c-0.1,0.1-0.4,0.3-0.4,0.3s-0.2,0.1-0.3,0.3c-0.1,0.1-0.3,0.3-0.3,0.4c0,0.1-0.2,0.2-0.3,0.2
				c-0.1,0-0.3,0.4-0.3,0.5s-0.3,0.5-0.3,0.5L65.4,61v0.3c0,0,0,0.1,0.1,0.2s0.2,0.4,0.2,0.4v0.3l-0.1,0.3c0,0.1,0,0.5,0,0.5v0.3
				c0,0,0,0.1-0.1,0.2c-0.1,0.1-0.2,0.3-0.2,0.3l0.2,0.4l0.1,0.3v0.2l0.2,0.3c0,0,0.1,0.1,0.2,0.2c0.1,0,0.1,0,0.3,0.2
				c0.2,0.1,0.2,0.1,0.2,0.1s0.3,0.3,0.3,0.4s0.2,0.3,0.2,0.3l0.3,0.3c0,0,0.1,0.2,0.2,0.3c0.2,0.1,0.3,0.2,0.4,0.3
				c0.1,0,0.3,0.3,0.5,0.3s0.3,0.1,0.3,0.1c0.1,0-0.1-0.3,0.5,0s1,0.4,1,0.4l0.4,0.2c0,0,0.7,0,0.8,0c0.1,0,0.2,0,0.3,0
				c0.1,0,0.3,0,0.5,0S73,68,73,68l0.7-0.2c0,0,0.2-0.1,0.3-0.2s0.3-0.2,0.4-0.2c0.1-0.1,0.5-0.1,0.5-0.1s0-0.1,0.2,0
				s0.2,0.2,0.2,0.3c0.1,0.1,0.1,0.3,0.2,0.3s0.4,0.1,0.4,0.1s0.4,0,0.5,0s0.4,0,0.4,0l0.1,0.2v0.4v0.3c0,0,0,0.1,0,0.3
				c0,0.1,0.2,0.3,0.2,0.3s-0.2,0.3-0.3,0.3c-0.1,0-0.3,0.3-0.3,0.3l0.6,0.5l0.3,0.3l0.3,0.3c0,0,0,0.1,0,0.2s0,0.3,0,0.4
				s0,0.4,0,0.4v0.3V73v0.3l-0.2,0.5l-0.2,0.3L77,74.4l-0.2,0.3v0.5l-0.2,0.3c0,0,0.1,0.3,0.1,0.4s0.3,0.6,0.3,0.6v0.4
				c0,0-0.2,0.6-0.2,0.7s-0.1,0.3-0.1,0.4s0,0.5,0,0.5V79l0.2,0.5l-0.2,0.4c0,0-0.1,0.3-0.1,0.5s0.3,0.4,0.4,0.4s0.5,0,0.6-0.2
				c0.2-0.1,0.6-0.2,0.7-0.3c0.1,0,0.2,0.1,0.4-0.2c0.3-0.2,0.6-0.5,0.6-0.5s0.3-0.2,0.4-0.3c0.1-0.1,0.5-0.6,0.5-0.6
				s0.3-0.3,0.5-0.4s0,0,0.2-0.2c0.2-0.1,0.9-0.7,0.9-0.7l0.7-0.7c0,0,0.6-0.8,0.7-0.9s0.6-0.9,0.7-0.9s0.8-0.5,1-0.7
				c0.2-0.1,0.4-1,0.5-1.2c0.1-0.1,0.6-1.1,0.6-1.1l0.4-1.2L87,69l0.7-1.3c0,0,0.3-0.6,0.4-0.7c0.1-0.2,0.8-1.5,0.8-1.5l0.3-1.1
				l0.1-0.9h-0.4l-0.5,0.4L88,63.8h-0.4l0.5-0.6L88,62.7l-0.4-0.3l-0.5-0.8v-0.8l-0.5-0.9L86,58.7c0,0-0.6-0.7-0.5-0.8
				c0-0.2,0.2-0.7,0.2-0.7l0.3,0.2c0,0,0.3,0.7,0.4,0.7s0.3,0.4,0.3,0.5s0.1,0.4,0.2,0.5c0,0.1,0.3,0.6,0.3,0.6s0.2,0.5,0.3,0.7
				c0,0.1,0.3,0.4,0.3,0.7s0.2,1.1,0.2,1.2c0,0.1,0.2,1,0.2,1s0.3-0.1,0.3-0.2c0.1-0.1,0.1-0.1,0.1-0.2c0-0.1,0.6-0.5,0.6-0.5
				l0.2-0.7c0,0,0.1-0.3,0.2-0.4c0.1-0.1,0.3-0.6,0.3-0.7c0-0.1,0-0.4,0-0.6c0-0.1,0.2-0.6,0.2-0.7c0-0.1,0-0.4,0-0.4v-0.8l0.3-0.4
				l0.2-0.5C90.5,57,89.3,43.6,76.6,36.9z"/>
		</g>
	</g>
	<g>
		<rect x="21.3" y="7" class="st10" width="85.5" height="21.9"/>
		<g class="st11">
			<path class="st12" d="M56.2,17.8c0,1.5-0.2,2.7-0.7,3.8c-0.5,1.1-1.1,2-1.9,2.8c-0.8,0.7-1.7,1.3-2.8,1.7
				c-1.1,0.4-2.3,0.6-3.5,0.6s-2.4-0.2-3.5-0.6s-2-0.9-2.8-1.7c-0.8-0.7-1.4-1.7-1.9-2.8c-0.5-1.1-0.7-2.4-0.7-3.8s0.2-2.7,0.7-3.8
				s1.1-2,2-2.8c0.8-0.8,1.8-1.3,2.8-1.7c1.1-0.4,2.2-0.6,3.4-0.6s2.4,0.2,3.5,0.6c1.1,0.4,2,0.9,2.8,1.7s1.4,1.7,1.9,2.8
				C55.9,15,56.2,16.3,56.2,17.8z M42.5,17.8c0,0.8,0.1,1.6,0.3,2.3c0.2,0.7,0.5,1.3,0.9,1.7c0.4,0.5,0.9,0.9,1.5,1.1
				c0.6,0.3,1.3,0.4,2,0.4s1.4-0.1,2-0.4s1.1-0.6,1.5-1.1s0.7-1.1,0.9-1.7c0.2-0.7,0.3-1.4,0.3-2.3s-0.1-1.6-0.3-2.3
				s-0.5-1.3-0.9-1.7s-0.9-0.9-1.5-1.1c-0.6-0.3-1.3-0.4-2-0.4c-0.8,0-1.4,0.1-2,0.4c-0.6,0.3-1.1,0.6-1.5,1.1s-0.7,1.1-0.9,1.7
				C42.6,16.2,42.5,17,42.5,17.8z"/>
			<path class="st12" d="M72.2,9.3v3.3h-5.4v13.8h-4V12.6h-5.4V9.3H72.2z"/>
			<path class="st12" d="M85.6,9.3h4v17h-4v-7.2h-6.8v7.2h-4v-17h4v6.5h6.8V9.3z"/>
		</g>
	</g>
</g>
</svg>
