<?xml version="1.0" encoding="utf-8"?>
<!-- Generator: Adobe Illustrator 16.0.0, SVG Export Plug-In . SVG Version: 6.00 Build 0)  -->
<!DOCTYPE svg PUBLIC "-//W3C//DTD SVG 1.1//EN" "http://www.w3.org/Graphics/SVG/1.1/DTD/svg11.dtd">
<svg version="1.1" id="图层_1" xmlns="http://www.w3.org/2000/svg" xmlns:xlink="http://www.w3.org/1999/xlink" x="0px" y="0px"
	 width="128px" height="128px" viewBox="0 0 128 128" enable-background="new 0 0 128 128" xml:space="preserve">
<rect x="18.298" y="4" opacity="0.2" enable-background="new    " width="91.404" height="120"/>
<rect x="18.298" y="4" opacity="0.08" enable-background="new    " width="95.404" height="124"/>
<rect x="20.298" y="6" opacity="0.1" enable-background="new    " width="91.404" height="120"/>
<rect x="20.298" y="6" fill="#0D47A1" width="87.404" height="116"/>
<g>
	
		<linearGradient id="SVGID_1_" gradientUnits="userSpaceOnUse" x1="147.1992" y1="945.8008" x2="147.1992" y2="831.8008" gradientTransform="matrix(1 0 0 1 -83.2002 -824.8008)">
		<stop  offset="0" style="stop-color:#1976D2"/>
		<stop  offset="0.0226" style="stop-color:#1C79D3"/>
		<stop  offset="0.2859" style="stop-color:#3B93E2"/>
		<stop  offset="0.5416" style="stop-color:#52A6ED"/>
		<stop  offset="0.7843" style="stop-color:#5FB1F4"/>
		<stop  offset="1" style="stop-color:#64B5F6"/>
	</linearGradient>
	<rect x="21.294" y="7" fill="url(#SVGID_1_)" width="85.411" height="114"/>
	<g>
		<path fill="#64B5F6" d="M90.6,67.8C90.6,82.48,78.681,94.4,63.996,94.4C49.316,94.4,37.4,82.48,37.4,67.8
			c0-14.68,11.916-26.6,26.596-26.6C78.681,41.2,90.6,53.12,90.6,67.8z"/>
		<path fill="#FFFFFF" fill-opacity="0.8" d="M46.551,47.761c0,0,0.549,0.29,0.761,0.757c0.17,0.46,0.764,0.46,0.764,0.46h0.85
			l1.243-0.371l-0.304,0.668c0,0-6.509,3.028-5.195,4.81c1.321,1.796,0.854,2.256,0.854,2.82c0,0.549,0.39,0.082,0.39,0.082
			l0.378-1.017l0.553-0.765l0.557-0.854l0.171-0.475l0.764-1.306l0.939-0.557l0.85,0.557c0,0,0.382,0.163,0.293,0.46
			c-0.082,0.297-0.171,0.846-0.171,0.846s0.171,0.394,0.468,0.394c0.304,0,0.768-0.304,0.768-0.304l0.386,0.683l0.3,1.239
			l0.761,0.765l0.39,0.846l-0.39,0.772l0.39,0.297l0.85,0.935l0.163,0.46l-1.403-0.074c0,0-0.17-0.393-0.46-0.393
			c-0.301,0-1.496-0.082-1.496-0.082l-0.687,0.171l-0.375,0.468c0,0-0.471,0.757-0.768,0.757c-0.293,0-1.017-0.163-1.017-0.163
			s-0.557-0.171-0.857,0.386c-0.3,0.557,0.464,0.846,0.464,0.846l-1.313,0.386l-0.39,0.178c0,0-0.939,0.378-0.939,0.683
			c0,0.297,0,0.297,0,0.297l-0.286,0.765v0.46l-0.687,0.557l-0.683,0.46l-0.293,0.564v0.936c0,0-0.089,0.467-0.089,0.764
			c0,0.305,0,1.024,0,1.024s-0.301,0.297-0.468-0.304c-0.171-0.55-0.171-0.55-0.171-0.55l-0.3-0.683c0,0,0.3-0.089-0.082-0.386
			c-0.379-0.29-0.769-0.379-0.769-0.379s-0.163-0.163-0.553-0.163c-0.382,0,0.468,0.082-0.382,0c-0.85-0.097-0.85-0.097-0.85-0.097
			l-0.683,0.557v0.468c0,0-0.163,3.325,0.765,3.785h0.39l0.549-0.846l0.471,0.163v0.386l-0.089,0.69v0.378l0.46,0.476l0.301,0.846
			c0.39,0.683,0.174,0.854,0.464,1.017c0.3,0.171,0.56,0.69,0.56,0.69l0.378,0.163c0,0,0.301,0.09,0.553,0.164
			c0.304,0.089,0.304,0.089,0.304,0.089l0.089,0.431l0.093,0.341l0.379,0.46c0,0-0.293,0,0.39,0c0.679,0,0.679,0,0.679,0
			s0,0.179,0.472,0.394c0.46,0.163,0.089,0.089,0.46,0.163c0.39,0.09,1.024,0.171,1.024,0.171c0.679-0.089,0.679-0.089,0.679-0.089
			l0.472,0.69c0,0,0.293,0,0.378,0.289c0.093,0.297-0.46,0,0.093,0.297c0.549,0.305,0,0.097,0.549,0.305
			c0.553,0.208-0.175,0.171,0.545,0.171c0.724,0,0.854,0,1.15,0.081c0.3,0.089,0.471,0.772,0.471,0.772
			c0.549,0.675,0.549,0.675,0.549,0.675l0.093,0.854c0,0-0.301,0.171,0.378,0.171c0.687,0,0.171,0,0.687,0
			c0.505,0-0.085-0.171,0.468,0c0.549,0.163,0.549,0.163,0.549,0.163s0.85,0.69,1.154,0.69c0.297,0,0.85-0.097,1.15,0
			c0.297,0.082,0.46,0.542,1.013,0.676c0.557,0.096,0.768,0,1.15,0.304c0.39,0.297,0.39,0.297,0.39,0.297l0.085,1.01l-0.305,0.557
			l-0.764,0.297l-0.089,0.942l-0.39,0.942v0.46c0,0,0.475,0.394-0.378,0.476c-0.842,0.081-0.842,0.081-0.842,0.081l-0.39,0.379
			c0,0,0,0.097-0.171,0.386c-0.163,0.297-0.382,0.772-0.382,0.772l0.089,0.854v0.549l-0.297,0.46c0,0-0.26,0.134,0.46,0.602
			c0.761,0.468,1.362,0.468,1.54,0.757c0.164,0.305,0.639,0.557,0.639,0.557l-1.028-0.208l-0.642-0.215l-1.062-0.29l-2.041-1.068
			c0,0-3.065-2.509-4.008-4.55c0,0-0.802-1.194-2.164-1.699c0,0-3.366-3.073-3.663-3.837l-0.13-0.513v-0.252l-0.13-0.134v-0.289
			l-0.082-0.216l0.048-0.942l0.041-0.639l0.041-0.341l-0.041-0.253c0,0-0.17-0.163-0.17-0.207c0-0.045-0.13-0.431-0.13-0.431
			l-0.041-0.126l0.512-0.431l-0.137-0.386l0.089-0.208l0.297-0.216c0,0,0.174-0.252,0.174-0.297c0-0.081-0.3-0.297-0.3-0.297
			l-0.123,0.045l-0.137,0.386h-0.16c0,0-0.174-0.089-0.174-0.134c0-0.044-0.164-0.207-0.164-0.207l-0.215-0.09
			c0,0-0.17-0.044-0.215-0.126c-0.045-0.081-0.256-0.215-0.256-0.26c0-0.044-0.163-0.297-0.163-0.297l-0.219-0.074
			c0,0-0.26-0.386-0.26-0.475c0-0.037-0.126-0.253-0.126-0.253s-0.301-0.341-0.301-0.386c0-0.044-0.13-0.341-0.13-0.341h-0.204
			l-0.471-0.179l-0.3-0.371l-0.338-0.386c0,0-0.174-0.297-0.174-0.386s-0.126-0.163-0.126-0.163h-0.211h-0.123l-0.3-0.26
			l-0.761-1.062l-0.137-0.476l-0.123-0.512l-0.089-0.854V68.35l-0.337-3.956C37.437,64.431,38.591,54.641,46.551,47.761z"/>
		<path fill="#FFFFFF" fill-opacity="0.8" d="M76.595,44.421l0.847,0.698l0.438,0.208l0.297,0.341l0.045,0.341
			c0,0,0.089,0.341,0.052,0.423c-0.052,0.096-0.097,0.557-0.097,0.557s0.386,0.683,0.386,0.771c0,0.074,0.037,0.46-0.044,0.549
			c-0.082,0.044-0.557,0.341-0.594,0.208c-0.045-0.134-0.342-0.431-0.424-0.431c-0.096-0.044-0.349-0.297-0.349-0.297l0.683-0.089
			l-0.081-0.431c0,0-0.468-0.163-0.602-0.163c-0.134-0.044-0.601-0.297-0.601-0.297l-0.505-0.126c0,0-0.847-0.208-0.942-0.26
			c-0.082-0.037-0.424-0.163-0.424-0.163h-0.72c0,0-0.349,0.163-0.423,0.252c-0.045,0.089-0.475,0.557-0.475,0.557
			s-0.037,0.549-0.037,0.638s-0.127,0.304-0.127,0.549c0,0.26-0.052,0.601-0.052,0.69c0,0.089,0,0.208,0,0.208l-0.081,0.378
			l-0.297,0.178l-0.387,0.304c0,0-0.334,0.245-0.334,0.334c0,0.089,0,0.431,0.127,0.683c0.126,0.252,0.081,0.497,0.252,0.631
			c0.171,0.133,0.252,0.297,0.386,0.349c0.134,0.037,0.037,0.082,0.253,0.082c0.17,0,0.341,0.044,0.423-0.044
			c0.097-0.037,0.304-0.037,0.394-0.163c0.089-0.134-0.09-0.045,0.089-0.134c0.155-0.044,0.155-0.163,0.297-0.044
			c0.163,0.133,0.289,0.304,0.341,0.386c0.037,0.089,0.164,0.297,0.305,0.431c0.148,0.074,0.274,0.416,0.274,0.416l0.268,0.252
			c0,0,0.044,0.044,0.208,0.044c0.163,0,0.43-0.044,0.43-0.044l0.09-0.164c0,0,0.163,0.045,0.207-0.044
			c0.045-0.089,0.045-0.208,0.045-0.208s-0.089-0.268-0.171-0.342c-0.052-0.089-0.141-0.297-0.141-0.297l0.052-0.304l0.156-0.17
			l0.059-0.208v-0.252l-0.178-0.089l-0.297-0.178c0,0-0.163,0.044-0.163-0.163C75.4,50.604,75.4,50.604,75.4,50.604l-0.379-0.082
			l-0.26-0.134l0.305-0.215c0.17-0.289,0.207-0.378,0.207-0.46s-0.037-0.341-0.037-0.341s-0.17-0.052-0.17-0.26
			c-0.045-0.208-0.045-0.341-0.045-0.341l0.045-0.164c0,0,0.037-0.133,0.17-0.133c0.082,0,0.253,0.133,0.342,0.133
			c0.082,0,0.245,0.044,0.245,0.044s0.089,0.03,0.089,0.164c0,0.089-0.037,0.297-0.037,0.297l0.156-0.252v0.297l-0.037,0.341v0.341
			l0.17,0.342l0.164,0.26c0,0,0.215,0.215,0.304,0.304c0.097,0.03,0.305,0.193,0.305,0.193l0.252,0.134l0.171,0.044l0.163-0.178
			c0,0,0.305,0.044,0.305-0.044c0.044-0.089,0.044-0.089,0.044-0.089s0.342-0.037,0.424-0.037c0.096,0,0.267,0,0.267,0
			s0.126,0.252,0.037,0.252s-0.134,0.082-0.341,0.171c-0.216,0.044-0.305,0-0.342,0.089c-0.045,0.089-0.163,0.297-0.163,0.297
			l0.163,0.044h0.126l0.171,0.178c0,0,0.045,0.037,0,0.164c-0.045,0.126,0.163,0.089-0.045,0.126
			c-0.252,0.052-0.378-0.037-0.378-0.037s-0.037-0.215-0.171-0.126c-0.097,0.089-0.134,0.297-0.134,0.297v0.289l0.163,0.431
			c0,0,0.09,0.089,0,0.141c-0.074,0.037-0.371,0.378-0.371,0.378s-0.044,0.119-0.17,0.119c-0.09,0-0.208,0-0.431,0.044
			c-0.163,0.045-0.163,0.045-0.334,0.089c-0.179,0.044-0.297,0.074-0.564,0.126c-0.252,0.037-0.712,0.037-0.891,0.037
			c-0.155,0-0.208,0-0.289-0.037c-0.089-0.052-0.045,0-0.163-0.17c-0.127-0.171-0.26-0.297-0.26-0.431c0-0.089,0-0.126-0.06-0.297
			c-0.037-0.163-0.037-0.297-0.156-0.297c-0.171,0-0.171,0-0.171,0s-0.334,0.26-0.297,0.341c0.045,0.089-0.037,0,0.253,0.208
			c0.297,0.215,0.386,0.52,0.386,0.52l-0.052,0.297l-0.542,0.297l-0.386,0.119l-0.045,0.267c0,0,0,0.089-0.081,0.208
			c-0.09,0.119-0.305,0.297-0.305,0.297s-0.171,0.044-0.208,0.17c-0.044,0.089-0.178,0.423-0.178,0.423s-0.163-0.044-0.334,0.089
			c-0.171,0.134,0.044,0.134-0.342,0.297c-0.386,0.164-0.386,0.164-0.386,0.164l-0.423-0.03l-0.253,0.082
			c0,0-0.341,0.037-0.386,0.126c-0.044,0.089-0.215,0.342-0.215,0.342s-0.082,0.17,0,0.17c0.089,0.037,0.215,0,0.423,0.037
			c0.178,0.052,0.215,0.052,0.356,0.134c0.126,0.044,0.252,0.17,0.252,0.17l0.46,0.423l0.26,0.549l-0.052,0.43l-0.505,0.171
			c0,0-0.289,0-0.423,0c-0.097,0-0.052,0-0.557,0c-0.512,0-0.594,0-0.683,0s-0.423-0.052-0.423-0.052l-0.305,0.052l-0.208,0.17
			l-0.126,0.045c0,0,0.171,0.378,0.171,0.504c0,0.134,0,0.297,0,0.297l-0.045,0.267l-0.126,0.297l-0.178,0.297l0.06,0.164
			c0,0-0.06,0.133,0.037,0.133c0.089,0,0.334-0.044,0.334,0.045c0,0.082-0.208,0.43-0.208,0.43l0.431,0.082
			c0,0-0.037-0.037,0.207,0.045c0.253,0.029,0.424,0.119,0.424,0.119l0.289,0.208l0.097,0.171l0.089-0.171
			c0,0,0.46-0.037,0.549-0.082c0.09-0.044,0.305-0.044,0.305-0.044h0.371c0,0,0.089,0.044,0.171-0.044
			c0.044-0.074,0.044-0.074,0.044-0.074s0.431-0.178,0.513-0.267c0.081-0.037,0.126-0.297,0.126-0.297s0.134-0.082,0.134-0.164
			s-0.089-0.297-0.089-0.297v-0.178l0.126-0.163c0,0,0.037-0.044,0.171-0.171c0.133-0.126,0.133-0.126,0.133-0.126
			s-0.052-0.044,0.119-0.134c0.178-0.044,0.305-0.17,0.386-0.17c0.082,0-0.081,0.096,0.082,0c0.171-0.089,0.215-0.164,0.215-0.297
			c0-0.082,0.052-0.557,0.052-0.557l0.156-0.252l0.431,0.044l0.208,0.044c0,0,0.26,0.045,0.304-0.044
			c0.045-0.089,0.171-0.163,0.171-0.163l0.342-0.178c0,0-0.045-0.037,0.133-0.037c0.164,0,0.424,0,0.542,0c0.097,0,0.305,0,0.305,0
			s0.171,0.082,0.252,0.156c0.045,0.089,0.171,0.304,0.171,0.304l0.126,0.178h0.142c0.163,0.126,0.244,0.215,0.541,0.29
			c0.297,0.089,0.513,0.171,0.513,0.171s0.081,0.17,0.163,0.252c0.089,0.089,0.171,0.171,0.297,0.26
			c0.089,0.045,0.171,0.134,0.215,0.208c0.037,0.089,0.179,0.26,0.179,0.26l0.155,0.171l0.097-0.171v-0.297l-0.044-0.163
			c0,0-0.164-0.126,0.044-0.126c0.171,0,0.305,0,0.305,0l-0.171-0.267l-0.215-0.082l-0.297-0.215l-0.127-0.134l-0.133-0.029
			l-0.127-0.089l-0.178-0.126c0,0-0.297-0.052-0.297-0.171c-0.037-0.089-0.037-0.089-0.037-0.089l-0.305-0.044
			c0,0-0.297-0.164-0.297-0.245c0-0.097-0.037-0.349-0.037-0.349l-0.252-0.037c0,0,0.037-0.171,0.037-0.297
			c0-0.089,0.097-0.215,0.097-0.215l0.542-0.037l0.118,0.29l0.216,0.133l0.304,0.126l0.126,0.17l0.127,0.119
			c0,0,0.052,0.045,0.215,0.097c0.171,0.037,0.297,0.082,0.297,0.082s0.171,0.164,0.297,0.164c0.134,0.044,0.178,0.089,0.312,0.133
			c-0.097,0.089-0.097,0.089-0.097,0.089s0.045,0.089,0.171,0.17s0.253,0.252,0.253,0.341c0,0.082,0.089,0.379,0.17,0.423
			c0.09,0.044,0.127,0.044,0.29,0.215c0.171,0.163,0.171,0.334,0.304,0.423c0.171,0.044,0.297,0,0.297,0.163
			c0.045,0.178,0.045,0.305,0.045,0.305s0.134,0.052,0.215,0.052c0.082,0,0.253-0.171,0.253-0.171s0.171-0.26,0.044-0.312
			c-0.081-0.037-0.289-0.037-0.289-0.126c0-0.089,0-0.549,0-0.549l0.126-0.304l0.163-0.245l0.26,0.074l0.253-0.163l0.26,0.297
			l-0.082,0.341c0,0,0.037,0.208,0.156,0.378c0.097,0.171,0.297,0.394,0.297,0.394l0.438,0.386l0.594,0.163l0.134-0.044l0.891-0.17
			c0,0,0.134,0,0.208,0c0.089,0,0.512,0.72,0.512,0.72s0,0.304,0,0.468c0,0.17,0,0.601,0,0.601s-0.297,0.297-0.423,0.297
			c-0.134,0-0.468,0.163-0.468,0.163l-0.72,0.171L83.2,63.288l-0.846-0.052c0,0-0.854-0.037-0.942-0.037c-0.09,0-0.387,0-0.468,0
			c-0.082,0-0.216,0.089-0.305,0.342c-0.081,0.252-0.252,0.334-0.252,0.334s0,0.126-0.171,0.126c-0.163,0-0.163,0.06-0.289-0.037
			c-0.142-0.089-0.728-0.215-0.728-0.215l-0.557-0.371l-0.305-0.252l-0.297-0.044h-0.854l-0.557-0.044l0.097-0.898l0.074,0.26
			l-0.171-0.594l-0.252-0.178l-0.602-0.126L75.4,61.536l-0.513,0.133l-0.505,0.171l-0.304,0.089l-1.433,0.245l-0.52,0.223
			c0,0-0.215,0.126-0.297,0.163c-0.082,0.044-0.423,0.044-0.423,0.044s-0.26-0.044-0.386-0.082
			c-0.119-0.037-0.424-0.037-0.557-0.037c-0.127,0-0.387-0.044-0.468,0c-0.082,0.037-0.171,0.037-0.253,0.164
			c-0.089,0.133-0.386,0.475-0.386,0.475s-0.163,0.164-0.252,0.252c-0.045,0.074-0.253,0.334-0.253,0.334l-0.349,0.557L68.29,64.52
			l0.06,0.305v0.215c0,0-0.134,0.119-0.216,0.163c-0.097,0.045-0.267,0.134-0.267,0.134s-0.127,0.037-0.253,0.163
			c-0.118,0.089-0.118,0.134-0.212,0.208c-0.088,0.089-0.389,0.297-0.389,0.297s-0.164,0.134-0.293,0.26
			c-0.078,0.126-0.26,0.289-0.301,0.386c-0.037,0.089-0.168,0.171-0.256,0.208c-0.074,0.052-0.253,0.394-0.294,0.482
			c-0.04,0.074-0.3,0.46-0.3,0.46l-0.172,0.72l-0.037,0.334c0,0,0.037,0.134,0.131,0.223c0.085,0.074,0.166,0.424,0.166,0.424v0.304
			c0,0-0.088,0.253-0.133,0.342c-0.033,0.074,0.045,0.505,0.045,0.505v0.252c0,0,0,0.089-0.131,0.208
			c-0.137,0.134-0.17,0.304-0.17,0.304l0.17,0.387l0.131,0.26v0.163l0.162,0.297c0,0,0.09,0.089,0.172,0.171
			c0.096,0.044,0.133,0.044,0.308,0.17c0.171,0.09,0.171,0.09,0.171,0.09s0.26,0.297,0.26,0.423c0,0.089,0.163,0.26,0.163,0.26
			l0.297,0.297c0,0,0.048,0.163,0.212,0.297c0.166,0.134,0.341,0.208,0.426,0.297c0.09,0.044,0.342,0.252,0.55,0.297
			c0.178,0.044,0.26,0.089,0.349,0.089c0.082,0-0.134-0.268,0.468,0.037c0.594,0.305,0.979,0.431,0.979,0.431l0.431,0.171
			c0,0,0.69,0.044,0.757-0.045c0.089-0.045,0.215-0.045,0.289-0.045c0.09,0,0.313,0,0.482,0c0.156,0,0.758-0.089,0.758-0.089
			l0.675-0.252c0,0,0.216-0.126,0.312-0.171c0.082-0.037,0.327-0.208,0.424-0.245c0.096-0.06,0.512-0.06,0.512-0.06s0-0.126,0.163,0
			c0.179,0.134,0.179,0.179,0.216,0.268c0.052,0.089,0.052,0.297,0.17,0.297c0.127,0.045,0.431,0.134,0.431,0.134
			s0.431-0.052,0.55,0c0.126,0.037,0.43,0.037,0.43,0.037l0.127,0.171l0.052,0.378v0.349c0,0-0.052,0.134,0,0.253
			c0.037,0.134,0.163,0.341,0.163,0.341s-0.163,0.253-0.26,0.29c-0.089,0.044-0.297,0.304-0.297,0.304l0.594,0.55l0.342,0.341
			l0.252,0.305c0,0,0.052,0.126,0.052,0.208c0,0.081-0.052,0.297,0,0.423c0.045,0.097,0.045,0.431,0.045,0.431
			s0.037,0.252,0.037,0.341c0,0.097-0.082,0.505-0.082,0.505l-0.052,0.305l-0.171,0.512l-0.208,0.253l-0.297,0.297l-0.215,0.341
			l-0.037,0.46l-0.178,0.297c0,0,0.044,0.268,0.044,0.394s0.268,0.587,0.268,0.587l-0.06,0.386c0,0-0.156,0.563-0.156,0.69
			c0,0.133-0.133,0.297-0.133,0.43c0,0.082-0.045,0.468-0.045,0.468l0.045,0.46l0.163,0.468l-0.163,0.423c0,0-0.09,0.342-0.09,0.557
			c0,0.164,0.305,0.379,0.379,0.379c0.097,0,0.475-0.045,0.639-0.163c0.178-0.089,0.601-0.216,0.689-0.268
			c0.082-0.037,0.164,0.052,0.431-0.163c0.245-0.163,0.639-0.475,0.639-0.475s0.289-0.208,0.423-0.29
			c0.082-0.089,0.505-0.557,0.505-0.557s0.297-0.297,0.512-0.431c0.208-0.126,0-0.037,0.208-0.155
			c0.215-0.134,0.891-0.69,0.891-0.69l0.69-0.683c0,0,0.594-0.765,0.683-0.891c0.089-0.142,0.639-0.847,0.728-0.905
			c0.074-0.037,0.846-0.542,1.017-0.676c0.163-0.134,0.386-1.024,0.46-1.158c0.082-0.081,0.557-1.143,0.557-1.143l0.431-1.232
			l0.72-1.84l0.72-1.284c0,0,0.29-0.55,0.424-0.713c0.089-0.171,0.771-1.491,0.771-1.491l0.26-1.099l0.082-0.936h-0.424
			l-0.475,0.423l-0.431-0.126l-0.415,0.052l0.467-0.601l-0.133-0.468l-0.379-0.297l-0.512-0.765v-0.765l-0.55-0.891l-0.341-1.41
			c0,0-0.639-0.683-0.55-0.846c0.037-0.178,0.208-0.69,0.208-0.69l0.342,0.171c0,0,0.252,0.683,0.378,0.72
			c0.142,0.037,0.305,0.379,0.356,0.468c0.037,0.089,0.082,0.386,0.156,0.468c0.052,0.081,0.341,0.638,0.341,0.638
			s0.216,0.557,0.26,0.684c0.037,0.089,0.253,0.423,0.297,0.675c0.052,0.268,0.171,1.069,0.171,1.158s0.208,0.979,0.208,0.979
			s0.297-0.089,0.334-0.163c0.052-0.089,0.052-0.134,0.141-0.208c0.045-0.089,0.55-0.475,0.55-0.475l0.215-0.684
			c0,0,0.134-0.297,0.163-0.43c0.052-0.127,0.305-0.594,0.305-0.684c0-0.081-0.045-0.423,0-0.549
			c0.037-0.089,0.163-0.594,0.163-0.683s0.045-0.431,0.045-0.431l-0.045-0.765l0.342-0.423l0.17-0.475
			C90.556,64.482,89.323,51.116,76.595,44.421z"/>
	</g>
	<g>
		<rect x="21.272" y="7" opacity="0.8" fill="#FFFFFF" enable-background="new    " width="85.455" height="21.85"/>
		<g enable-background="new    ">
			<path fill="#1976D2" d="M56.177,17.792c0,1.455-0.23,2.739-0.683,3.844c-0.46,1.106-1.083,2.034-1.878,2.776
				c-0.794,0.742-1.737,1.306-2.835,1.677c-1.091,0.386-2.271,0.572-3.525,0.572c-1.225,0-2.382-0.186-3.466-0.572
				c-1.091-0.371-2.033-0.935-2.85-1.677c-0.809-0.742-1.447-1.67-1.908-2.776c-0.467-1.105-0.705-2.39-0.705-3.844
				c0-1.462,0.245-2.746,0.728-3.845c0.482-1.113,1.135-2.034,1.952-2.791c0.824-0.757,1.767-1.321,2.85-1.692
				c1.076-0.386,2.205-0.571,3.399-0.571c1.225,0,2.375,0.186,3.466,0.571c1.083,0.371,2.034,0.936,2.843,1.692
				s1.447,1.677,1.915,2.791C55.947,15.045,56.177,16.329,56.177,17.792z M42.499,17.792c0,0.831,0.104,1.588,0.319,2.256
				c0.215,0.675,0.527,1.247,0.935,1.736c0.401,0.482,0.898,0.854,1.484,1.113c0.586,0.268,1.262,0.401,2.019,0.401
				c0.742,0,1.41-0.133,2.004-0.401c0.594-0.26,1.091-0.631,1.499-1.113c0.408-0.49,0.712-1.061,0.928-1.736
				c0.215-0.668,0.327-1.425,0.327-2.256c0-0.839-0.111-1.596-0.327-2.271c-0.215-0.683-0.52-1.262-0.928-1.752
				c-0.408-0.475-0.905-0.854-1.499-1.113c-0.594-0.267-1.262-0.4-2.004-0.4c-0.757,0-1.433,0.141-2.019,0.416
				c-0.586,0.267-1.083,0.638-1.484,1.128c-0.408,0.482-0.72,1.062-0.935,1.737C42.603,16.218,42.499,16.975,42.499,17.792z"/>
			<path fill="#1976D2" d="M72.246,9.286v3.266h-5.411v13.76h-4.037v-13.76h-5.403V9.286H72.246z"/>
			<path fill="#1976D2" d="M85.635,9.286h4.037v17.025h-4.037V19.09h-6.769v7.221h-4.038V9.286h4.038v6.516h6.769V9.286z"/>
		</g>
	</g>
</g>
</svg>
