<?xml version="1.0" encoding="utf-8"?>
<!-- Generator: Adobe Illustrator 16.0.0, SVG Export Plug-In . SVG Version: 6.00 Build 0)  -->
<!DOCTYPE svg PUBLIC "-//W3C//DTD SVG 1.1//EN" "http://www.w3.org/Graphics/SVG/1.1/DTD/svg11.dtd">
<svg version="1.1" id="图层_1" xmlns="http://www.w3.org/2000/svg" xmlns:xlink="http://www.w3.org/1999/xlink" x="0px" y="0px"
	 width="128px" height="128px" viewBox="0 0 128 128" enable-background="new 0 0 128 128" xml:space="preserve">
<polygon opacity="0.08" enable-background="new    " points="18.31,128 18.31,4 113.689,4 113.689,92.995 78.686,128 "/>
<polygon display="none" opacity="0.08" enable-background="new    " points="22.31,126 22.31,6 113.689,6 113.689,92.167 
	79.857,126 "/>
<polygon opacity="0.1" enable-background="new    " points="20.31,126 20.31,6 111.689,6 111.689,92.167 77.857,126 "/>
<polygon opacity="0.2" enable-background="new    " points="18.31,124 18.31,4 109.689,4 109.689,90.167 75.857,124 "/>
<polygon fill="#607D8B" points="20.298,122 20.298,6 107.702,6 107.702,89.339 75.033,122 "/>
<g>
	<g>
		<g>
			
				<linearGradient id="SVGID_1_" gradientUnits="userSpaceOnUse" x1="105.5996" y1="-296.9004" x2="105.5996" y2="-410.9009" gradientTransform="matrix(1 0 0 -1 -41.6001 -289.9004)">
				<stop  offset="0" style="stop-color:#F5F5F5"/>
				<stop  offset="0.341" style="stop-color:#F1F2F3"/>
				<stop  offset="0.6434" style="stop-color:#E7EAEC"/>
				<stop  offset="0.9302" style="stop-color:#D5DCE0"/>
				<stop  offset="1" style="stop-color:#CFD8DC"/>
			</linearGradient>
			<polygon fill="url(#SVGID_1_)" points="21.292,121 21.292,7 106.708,7 106.708,88.938 74.645,121 			"/>
		</g>
		<polygon fill="#455A64" fill-opacity="0.7" points="106.708,88.938 106.708,87.559 72.885,87.559 72.885,121 74.645,121 		"/>
		<path fill="#90A4AE" d="M74.592,88.938l32.116,0.043L74.645,121L74.592,88.938z"/>
	</g>
	<g opacity="0.8" enable-background="new    ">
		<rect x="32.605" y="23.344" fill="#607D8B" width="63.176" height="6.738"/>
		<rect x="32.605" y="41.533" fill="#607D8B" width="63.176" height="3.133"/>
		<rect x="32.605" y="51.367" fill="#607D8B" width="63.176" height="3.133"/>
		<rect x="32.605" y="61.246" fill="#607D8B" width="63.176" height="3.133"/>
		<rect x="32.605" y="71.082" fill="#607D8B" width="63.176" height="3.129"/>
		<rect x="32.605" y="80.959" fill="#607D8B" width="39.044" height="3.133"/>
	</g>
</g>
</svg>
