<?xml version="1.0" encoding="utf-8"?>
<!-- Generator: Adobe Illustrator 16.0.0, SVG Export Plug-In . SVG Version: 6.00 Build 0)  -->
<!DOCTYPE svg PUBLIC "-//W3C//DTD SVG 1.1//EN" "http://www.w3.org/Graphics/SVG/1.1/DTD/svg11.dtd">
<svg version="1.1" id="图层_1" xmlns="http://www.w3.org/2000/svg" xmlns:xlink="http://www.w3.org/1999/xlink" x="0px" y="0px"
	 width="128px" height="128px" viewBox="0 0 128 128" enable-background="new 0 0 128 128" xml:space="preserve">
<polygon opacity="0.08" enable-background="new    " points="18.31,128 18.31,4 113.689,4 113.689,92.995 78.686,128 "/>
<polygon display="none" opacity="0.08" enable-background="new    " points="22.31,126 22.31,6 113.689,6 113.689,92.167 
	79.857,126 "/>
<polygon opacity="0.1" enable-background="new    " points="20.31,126 20.31,6 111.689,6 111.689,92.167 77.857,126 "/>
<polygon opacity="0.2" enable-background="new    " points="18.31,124 18.31,4 109.689,4 109.689,90.167 75.857,124 "/>
<polygon fill="#E65100" points="20.298,122 20.298,6 107.702,6 107.702,89.339 75.034,122 "/>
<g>
	<g>
		<g>
			
				<linearGradient id="SVGID_1_" gradientUnits="userSpaceOnUse" x1="105.5996" y1="-156.8999" x2="105.5996" y2="-42.9004" gradientTransform="matrix(1 0 0 -1 -41.6001 -35.9004)">
				<stop  offset="0" style="stop-color:#EE6F0B"/>
				<stop  offset="1" style="stop-color:#FFB74D"/>
			</linearGradient>
			<polygon fill="url(#SVGID_1_)" points="21.294,121 21.294,7 106.705,7 106.705,88.938 74.643,121 			"/>
		</g>
		<polygon fill="#E65100" fill-opacity="0.3922" points="106.705,88.938 106.705,87.557 72.884,87.557 72.884,121 74.643,121 		"/>
		<path fill="#FFFFFF" fill-opacity="0.3922" d="M74.591,88.938l32.114,0.045L74.643,121L74.591,88.938z"/>
	</g>
	<g opacity="0.8">
		<rect x="32.413" y="50.886" fill="#FFFFFF" width="9.122" height="45.696"/>
		<rect x="47.612" y="73.686" fill="#FFFFFF" width="9.122" height="22.845"/>
		<rect x="62.768" y="82.992" fill="#FFFFFF" width="9.122" height="13.687"/>
		<g>
			<path fill="#FFFFFF" d="M75.162,42.811l0.097,18.191l18.191-0.096c0.052,10.071-8.075,18.243-18.146,18.287
				c-10.064,0.052-18.235-8.075-18.288-18.139C56.972,51.026,65.091,42.855,75.162,42.811z"/>
			<path fill="#FFFFFF" d="M77.3,40.718c10.071-0.045,18.243,8.075,18.288,18.146L77.396,58.96L77.3,40.718z"/>
		</g>
	</g>
	<g>
		<rect x="21.272" y="7" opacity="0.8" fill="#FFFFFF" enable-background="new    " width="85.455" height="21.85"/>
		<g enable-background="new    ">
			<path fill="#E64A19" d="M54.871,17.792c0,1.455-0.23,2.739-0.683,3.844c-0.46,1.106-1.084,2.034-1.878,2.776
				s-1.736,1.306-2.835,1.677c-1.091,0.386-2.271,0.572-3.525,0.572c-1.225,0-2.383-0.186-3.466-0.572
				c-1.091-0.371-2.034-0.935-2.85-1.677c-0.809-0.742-1.447-1.67-1.907-2.776c-0.468-1.105-0.705-2.39-0.705-3.844
				c0-1.462,0.245-2.746,0.728-3.848c0.482-1.106,1.135-2.034,1.952-2.791c0.824-0.753,1.767-1.317,2.85-1.692
				c1.076-0.378,2.204-0.568,3.399-0.568c1.225,0,2.375,0.189,3.466,0.568c1.084,0.375,2.033,0.939,2.843,1.692
				c0.809,0.757,1.447,1.685,1.915,2.791C54.641,15.045,54.871,16.329,54.871,17.792z M41.192,17.792
				c0,0.831,0.104,1.588,0.319,2.256c0.215,0.675,0.527,1.247,0.935,1.736c0.401,0.482,0.898,0.854,1.484,1.113
				c0.586,0.268,1.262,0.401,2.019,0.401c0.742,0,1.41-0.133,2.004-0.401c0.594-0.26,1.091-0.631,1.499-1.113
				c0.408-0.49,0.713-1.061,0.928-1.736c0.215-0.668,0.326-1.425,0.326-2.256c0-0.839-0.111-1.596-0.326-2.271
				c-0.215-0.683-0.52-1.266-0.928-1.748s-0.905-0.857-1.499-1.121c-0.594-0.26-1.262-0.394-2.004-0.394
				c-0.757,0-1.433,0.137-2.019,0.408s-1.083,0.646-1.484,1.128c-0.408,0.486-0.72,1.065-0.935,1.74
				C41.296,16.218,41.192,16.975,41.192,17.792z"/>
			<path fill="#E64A19" d="M73.938,17.792c0,1.469-0.244,2.761-0.727,3.859c-0.482,1.098-1.173,2.004-2.057,2.724
				c-0.883,0.72-1.967,1.262-3.243,1.625c-1.276,0.356-2.709,0.534-4.297,0.534c-0.72,0-1.566-0.029-2.531-0.089
				c-0.965-0.052-1.915-0.171-2.85-0.356V9.509c0.935-0.164,1.899-0.275,2.909-0.334c1.01-0.056,1.878-0.085,2.598-0.085
				c1.544,0,2.932,0.163,4.186,0.494c1.247,0.326,2.316,0.842,3.222,1.547c0.891,0.705,1.581,1.607,2.063,2.702
				S73.938,16.248,73.938,17.792z M62.271,23.194c0.193,0.015,0.408,0.03,0.661,0.037c0.244,0.008,0.541,0.008,0.891,0.008
				c2.019,0,3.51-0.475,4.49-1.44c0.972-0.972,1.454-2.308,1.454-4.008c0-1.789-0.46-3.14-1.396-4.056
				c-0.928-0.917-2.404-1.377-4.423-1.377c-0.268,0-0.557,0.004-0.847,0.011c-0.297,0.011-0.571,0.03-0.831,0.063V23.194z"/>
			<path fill="#E64A19" d="M82.681,9.089c2.672,0,4.721,0.449,6.153,1.339c1.432,0.895,2.145,2.356,2.145,4.387
				c0,2.048-0.72,3.525-2.167,4.431c-1.455,0.913-3.519,1.366-6.212,1.366h-1.27v5.7H77.3V9.531
				c0.884-0.163,1.804-0.278,2.791-0.341C81.078,9.123,81.938,9.089,82.681,9.089z M82.934,12.358c-0.29,0-0.579,0.008-0.861,0.026
				c-0.282,0.015-0.534,0.029-0.742,0.048v4.914h1.27c1.402,0,2.449-0.178,3.154-0.542c0.712-0.364,1.068-1.032,1.068-2.011
				c0-0.479-0.097-0.868-0.282-1.18c-0.178-0.312-0.431-0.564-0.771-0.75c-0.334-0.189-0.742-0.319-1.232-0.394
				C84.062,12.396,83.527,12.358,82.934,12.358z"/>
		</g>
	</g>
</g>
</svg>
