<?xml version="1.0" encoding="utf-8"?>
<!-- Generator: Adobe Illustrator 16.0.0, SVG Export Plug-In . SVG Version: 6.00 Build 0)  -->
<!DOCTYPE svg PUBLIC "-//W3C//DTD SVG 1.1//EN" "http://www.w3.org/Graphics/SVG/1.1/DTD/svg11.dtd">
<svg version="1.1" id="图层_1" xmlns="http://www.w3.org/2000/svg" xmlns:xlink="http://www.w3.org/1999/xlink" x="0px" y="0px"
	 width="128px" height="128px" viewBox="0 0 128 128" enable-background="new 0 0 128 128" xml:space="preserve">
<polygon opacity="0.08" enable-background="new    " points="18.31,128 18.31,4 113.689,4 113.689,92.995 78.686,128 "/>
<polygon display="none" opacity="0.08" enable-background="new    " points="22.31,126 22.31,6 113.689,6 113.689,92.167 
	79.857,126 "/>
<polygon opacity="0.1" enable-background="new    " points="20.31,126 20.31,6 111.689,6 111.689,92.167 77.857,126 "/>
<polygon opacity="0.2" enable-background="new    " points="18.31,124 18.31,4 109.689,4 109.689,90.167 75.857,124 "/>
<polygon fill="#3E2723" points="20.298,122 20.298,6 107.702,6 107.702,89.34 75.033,122 "/>
<g>
	<g>
		
			<linearGradient id="SVGID_1_" gradientUnits="userSpaceOnUse" x1="105.6035" y1="-42.9004" x2="105.6035" y2="-156.9009" gradientTransform="matrix(1 0 0 -1 -41.6001 -35.9004)">
			<stop  offset="0" style="stop-color:#785548"/>
			<stop  offset="1" style="stop-color:#9F9E9F"/>
		</linearGradient>
		<polygon fill="url(#SVGID_1_)" points="21.298,121 21.298,7 106.709,7 106.709,88.893 74.959,121 		"/>
		<polygon fill="#795548" fill-opacity="0.7" points="106.709,88.938 106.709,87.557 72.895,87.557 72.895,121 74.646,121 		"/>
		<path opacity="0.39" fill="#FFFFFF" enable-background="new    " d="M74.602,88.938l32.107,0.045L74.646,121L74.602,88.938z"/>
	</g>
	<path fill="#FFFFFF" d="M51.817,28.976h-2.895v37.02H46.74v-37.02h-2.879v37.02h-2.182v-37.02h-2.88v37.02h-2.182v-37.02h-2.88
		v37.02H32.98v15.683h19.816V65.996h-0.98V28.976z M49.917,77.122H35.86V68.03h14.057V77.122z"/>
	<g>
		<rect x="21.276" y="7" opacity="0.8" fill="#FFFFFF" enable-background="new    " width="85.449" height="21.85"/>
		<g enable-background="new    ">
			<path fill="#5D4037" d="M52.129,26.441c-0.201-0.59-0.416-1.198-0.646-1.822s-0.46-1.247-0.683-1.863h-7.006
				c-0.223,0.62-0.453,1.243-0.675,1.866c-0.23,0.624-0.438,1.232-0.638,1.818h-4.186c0.668-1.833,1.313-3.529,1.915-5.087
				c0.609-1.555,1.203-3.021,1.781-4.397c0.579-1.377,1.15-2.683,1.707-3.919c0.564-1.236,1.15-2.445,1.752-3.625h3.83
				c0.586,1.18,1.165,2.39,1.737,3.625c0.571,1.236,1.15,2.542,1.729,3.919c0.579,1.376,1.173,2.842,1.781,4.397
				c0.609,1.559,1.247,3.254,1.922,5.087H52.129z M47.282,13.271c-0.097,0.245-0.223,0.583-0.401,1.009
				c-0.17,0.427-0.371,0.917-0.586,1.473c-0.223,0.561-0.475,1.173-0.742,1.845c-0.274,0.671-0.557,1.373-0.838,2.111h5.128
				c-0.274-0.738-0.542-1.443-0.802-2.119c-0.252-0.671-0.497-1.288-0.727-1.844c-0.238-0.56-0.438-1.05-0.609-1.477
				C47.527,13.847,47.386,13.513,47.282,13.271z"/>
			<path fill="#5D4037" d="M63.997,9.215c2.687,0,4.75,0.457,6.181,1.366c1.434,0.909,2.146,2.323,2.146,4.238
				c0,1.195-0.283,2.167-0.861,2.913c-0.58,0.746-1.41,1.329-2.494,1.755c0.355,0.427,0.734,0.913,1.129,1.462
				c0.4,0.549,0.793,1.121,1.188,1.722c0.385,0.597,0.756,1.217,1.119,1.867c0.365,0.646,0.699,1.28,1.01,1.903h-4.512
				c-0.334-0.557-0.66-1.121-1.002-1.696c-0.334-0.571-0.684-1.128-1.039-1.67c-0.357-0.542-0.697-1.054-1.055-1.536
				c-0.342-0.482-0.682-0.92-1.031-1.314h-1.997v6.216h-4.03V9.657c0.884-0.164,1.789-0.278,2.725-0.342
				C62.416,9.249,63.254,9.215,63.997,9.215z M64.234,12.485c-0.297,0-0.564,0.007-0.787,0.026c-0.237,0.015-0.46,0.03-0.668,0.048
				v4.62h1.144c1.513,0,2.597-0.182,3.257-0.542c0.654-0.36,0.988-0.976,0.988-1.844c0-0.835-0.342-1.429-1.002-1.781
				C66.504,12.659,65.525,12.485,64.234,12.485z"/>
			<path fill="#5D4037" d="M83.709,26.787c-2.91,0-5.137-0.772-6.666-2.312c-1.521-1.54-2.285-3.726-2.285-6.561
				c0-1.407,0.238-2.665,0.697-3.771c0.469-1.106,1.105-2.041,1.916-2.802c0.816-0.761,1.781-1.34,2.895-1.733
				c1.127-0.394,2.344-0.59,3.65-0.59c0.758,0,1.447,0.056,2.064,0.16c0.623,0.108,1.172,0.23,1.633,0.371
				c0.467,0.137,0.859,0.282,1.164,0.431c0.313,0.145,0.535,0.26,0.676,0.341l-1.166,3.099c-0.557-0.278-1.193-0.516-1.93-0.712
				c-0.734-0.197-1.564-0.297-2.492-0.297c-0.617,0-1.225,0.1-1.818,0.297c-0.602,0.197-1.129,0.512-1.59,0.942
				c-0.451,0.434-0.816,0.999-1.098,1.685c-0.268,0.687-0.408,1.525-0.408,2.505c0,0.787,0.09,1.521,0.275,2.2
				c0.178,0.679,0.475,1.266,0.875,1.759c0.4,0.49,0.936,0.879,1.588,1.165c0.654,0.286,1.455,0.431,2.383,0.431
				c0.586,0,1.105-0.034,1.58-0.1c0.461-0.063,0.877-0.141,1.232-0.23c0.371-0.093,0.684-0.193,0.965-0.308
				c0.275-0.115,0.52-0.223,0.742-0.319l1.113,3.069c-0.564,0.331-1.365,0.624-2.404,0.887
				C86.27,26.653,85.074,26.787,83.709,26.787z"/>
		</g>
	</g>
</g>
</svg>
