<?xml version="1.0" encoding="utf-8"?>
<!-- Generator: Adobe Illustrator 16.0.0, SVG Export Plug-In . SVG Version: 6.00 Build 0)  -->
<!DOCTYPE svg PUBLIC "-//W3C//DTD SVG 1.1//EN" "http://www.w3.org/Graphics/SVG/1.1/DTD/svg11.dtd">
<svg version="1.1" id="图层_1" xmlns="http://www.w3.org/2000/svg" xmlns:xlink="http://www.w3.org/1999/xlink" x="0px" y="0px"
	 width="128px" height="128px" viewBox="0 0 128 128" enable-background="new 0 0 128 128" xml:space="preserve">
<polygon opacity="0.1" points="19.063,128 19.063,6 112.938,6 112.938,93.559 78.495,128 "/>
<polygon opacity="0.1" points="21.063,126 21.063,8 110.938,8 110.938,92.73 77.667,126 "/>
<polygon opacity="0.1" points="21.063,126 21.063,8 110.938,8 110.938,92.73 77.667,126 "/>
<polygon opacity="0.2" points="19.063,124 19.063,6 108.938,6 108.938,90.73 75.667,124 "/>
<polygon fill="#2D2183" points="21.063,122 21.063,8 106.938,8 106.938,89.902 74.839,122 "/>
<g>
	<g>
		
			<linearGradient id="SVGID_1_" gradientUnits="userSpaceOnUse" x1="297.5996" y1="-347.9653" x2="297.5996" y2="-235.8345" gradientTransform="matrix(1 0 0 -1 -233.5996 -226.9004)">
			<stop  offset="0" style="stop-color:#4A3591"/>
			<stop  offset="0.008" style="stop-color:#4C3591"/>
			<stop  offset="0.1976" style="stop-color:#6A4498"/>
			<stop  offset="0.4086" style="stop-color:#82529E"/>
			<stop  offset="0.6159" style="stop-color:#965EA3"/>
			<stop  offset="0.8158" style="stop-color:#A165A7"/>
			<stop  offset="1" style="stop-color:#A567A8"/>
		</linearGradient>
		<polygon fill="url(#SVGID_1_)" points="21.997,121.065 21.997,8.934 106.002,8.934 106.002,89.528 74.466,121.065 		"/>
	</g>
	<polygon fill="#5A4096" fill-opacity="0.3922" points="106.002,89.528 106.002,88.174 72.737,88.174 72.737,121.065 
		74.466,121.065 	"/>
	<path fill="#FFFFFF" fill-opacity="0.3922" d="M74.419,89.528l31.583,0.048l-31.536,31.489L74.419,89.528z"/>
</g>
<path opacity="0.8" fill="#FFFFFF" enable-background="new    " d="M47.414,35.752L47.414,35.752v14.11h-0.047v4.345h0.047v20.651
	c-0.748-0.188-1.495-0.28-2.336-0.28c-3.785,0-6.868,2.242-6.868,4.999s3.083,4.999,6.868,4.999c3.784,0,6.868-2.242,6.868-4.999
	l0,0V53.32l25.884-5.326V67.71c-0.748-0.187-1.496-0.28-2.336-0.28c-3.785,0-6.869,2.242-6.869,5c0,2.756,3.084,4.998,6.869,4.998
	c3.784,0,6.867-2.242,6.867-4.998l0,0V34.678v-6.121L47.414,35.752z M77.782,43.602l-25.883,5.326v-7.989l25.883-5.327V43.602z"/>
</svg>
