<?xml version="1.0" encoding="utf-8"?>
<!-- Generator: Adobe Illustrator 16.0.0, SVG Export Plug-In . SVG Version: 6.00 Build 0)  -->
<!DOCTYPE svg PUBLIC "-//W3C//DTD SVG 1.1//EN" "http://www.w3.org/Graphics/SVG/1.1/DTD/svg11.dtd">
<svg version="1.1" id="图层_1" xmlns="http://www.w3.org/2000/svg" xmlns:xlink="http://www.w3.org/1999/xlink" x="0px" y="0px"
	 width="128px" height="128px" viewBox="0 0 128 128" enable-background="new 0 0 128 128" xml:space="preserve">
<polygon opacity="0.08" enable-background="new    " points="18.31,128 18.31,4 113.689,4 113.689,92.995 78.686,128 "/>
<polygon display="none" opacity="0.08" enable-background="new    " points="22.31,126 22.31,6 113.689,6 113.689,92.167 
	79.857,126 "/>
<polygon opacity="0.1" enable-background="new    " points="20.31,126 20.31,6 111.689,6 111.689,92.167 77.857,126 "/>
<polygon opacity="0.2" enable-background="new    " points="18.31,124 18.31,4 109.689,4 109.689,90.167 75.857,124 "/>
<polygon fill="#455A64" points="20.298,122 20.298,6 107.702,6 107.702,89.339 75.034,122 "/>
<g>
	<g>
		<g>
			
				<linearGradient id="SVGID_1_" gradientUnits="userSpaceOnUse" x1="105.5996" y1="-42.9004" x2="105.5996" y2="-156.9009" gradientTransform="matrix(1 0 0 -1 -41.6001 -35.9004)">
				<stop  offset="0" style="stop-color:#90A4AE"/>
				<stop  offset="0.1378" style="stop-color:#849AA5"/>
				<stop  offset="0.4226" style="stop-color:#708A97"/>
				<stop  offset="0.7096" style="stop-color:#64808E"/>
				<stop  offset="1" style="stop-color:#607D8B"/>
			</linearGradient>
			<polygon fill="url(#SVGID_1_)" points="21.294,121 21.294,7 106.706,7 106.706,88.938 74.644,121 			"/>
		</g>
		<polygon fill="#455A64" fill-opacity="0.39" points="106.706,88.938 106.706,87.559 72.884,87.559 72.884,121 74.644,121 		"/>
		<path fill="#FFFFFF" fill-opacity="0.39" d="M74.591,88.938l32.115,0.043L74.644,121L74.591,88.938z"/>
	</g>
	<path opacity="0.8" fill="#FFFFFF" enable-background="new    " d="M83.942,66.041c0.053-0.141,0.148-0.238,0.201-0.379
		c0.096-0.236,0.233-0.475,0.329-0.713c0,0,0-0.043,0.042-0.043c0.615-1.285,1.05-2.667,1.432-4.04h5.365V50.084h-5.365
		c-0.572-2.234-1.432-4.371-2.619-6.271l3.807-3.801l-7.645-7.645l-3.807,3.801c-1.95-1.188-4.082-2.094-6.414-2.664h0.053v-5.368
		H58.536v5.368h0.042c-2.269,0.57-4.463,1.477-6.415,2.664l-3.798-3.801l-7.499,7.645l3.798,3.801
		c-1.14,1.9-2.044,4.037-2.611,6.271h-5.371v10.783h5.371c0.567,2.227,1.423,4.366,2.611,6.314l0,0l-3.798,3.807l7.647,7.64
		l3.798-3.797c1.946,1.188,4.082,2.09,6.319,2.609v5.369h10.786v-5.369l0,0l0,0c2.279-0.568,4.368-1.422,6.309-2.609l3.807,3.797
		l7.645-7.64l-3.807-3.807l0,0c0.148-0.233,0.244-0.424,0.393-0.665C83.805,66.375,83.9,66.234,83.942,66.041z M63.996,72.689
		c-9.542,0-17.242-7.74-17.242-17.241c0-9.5,7.742-17.24,17.242-17.24c1.898,0,3.714,0.281,5.421,0.854l0,0
		c6.881,2.28,11.822,8.742,11.822,16.386c0,0.478,0,0.952-0.043,1.381v0.045c-0.096,1.381-0.382,2.709-0.816,3.992
		c0,0.045-0.042,0.045-0.042,0.09c-0.286,0.809-0.615,1.617-0.997,2.33c0,0.045-0.053,0.098-0.053,0.14
		c-0.191,0.379-0.371,0.713-0.615,1.092c0,0.053-0.053,0.053-0.053,0.096c-0.233,0.334-0.414,0.668-0.657,1.002l-0.054,0.045
		c-0.232,0.334-0.477,0.668-0.752,0.951c-0.043,0.043-0.096,0.096-0.139,0.144c-0.529,0.614-1.092,1.188-1.717,1.712
		c-0.043,0.043-0.096,0.09-0.139,0.144c-0.286,0.233-0.625,0.52-0.954,0.71c-0.042,0.043-0.095,0.043-0.138,0.096
		c-0.286,0.238-0.615,0.424-0.912,0.615c-0.042,0.042-0.084,0.042-0.138,0.096c-0.339,0.19-0.657,0.381-0.996,0.566
		c-0.096,0.048-0.138,0.096-0.233,0.148c-0.34,0.186-0.711,0.324-1.05,0.473c-0.042,0-0.096,0.047-0.138,0.047
		c-0.339,0.144-0.668,0.238-1.007,0.377C67.848,72.355,65.941,72.689,63.996,72.689z"/>
</g>
</svg>
