<?xml version="1.0" encoding="utf-8"?>
<!-- Generator: Adobe Illustrator 21.0.0, SVG Export Plug-In . SVG Version: 6.00 Build 0)  -->
<svg version="1.1" id="图层_1" xmlns="http://www.w3.org/2000/svg" xmlns:xlink="http://www.w3.org/1999/xlink" x="0px" y="0px"
	 viewBox="0 0 128 128" style="enable-background:new 0 0 128 128;" xml:space="preserve">
<style type="text/css">
	.st0{opacity:0.2;enable-background:new    ;}
	.st1{opacity:0.08;enable-background:new    ;}
	.st2{opacity:0.1;enable-background:new    ;}
	.st3{fill:#0D47A1;}
	.st4{fill:url(#SVGID_1_);}
	.st5{opacity:0.8;}
	.st6{opacity:0.8;fill:#FFFFFF;enable-background:new    ;}
	.st7{fill:#FFFFFF;}
	.st8{enable-background:new    ;}
	.st9{fill:#236FB7;}
</style>
<rect x="18.3" y="4" class="st0" width="91.4" height="120"/>
<rect x="18.3" y="4" class="st1" width="95.4" height="124"/>
<rect x="20.3" y="6" class="st2" width="91.4" height="120"/>
<rect x="20.3" y="6" class="st3" width="87.4" height="116"/>
<g>
	
		<linearGradient id="SVGID_1_" gradientUnits="userSpaceOnUse" x1="64" y1="669" x2="64" y2="783" gradientTransform="matrix(1 0 0 1 0 -662)">
		<stop  offset="0" style="stop-color:#64B5F6"/>
		<stop  offset="1" style="stop-color:#3F51B5"/>
	</linearGradient>
	<rect x="21.3" y="7" class="st4" width="85.4" height="114"/>
	<g class="st5">
		<rect x="32.3" y="52.1" class="st6" width="63.3" height="3.1"/>
		<rect x="32.3" y="42.3" class="st6" width="63.3" height="3.1"/>
		<rect x="62.5" y="61.3" class="st6" width="33.1" height="33.1"/>
		<g class="st5">
			<rect x="32.3" y="61.9" class="st7" width="27.5" height="3.1"/>
			<rect x="32.3" y="71.7" class="st7" width="27.5" height="3.1"/>
			<rect x="32.3" y="81.5" class="st7" width="27.5" height="3.1"/>
			<rect x="32.3" y="91.3" class="st7" width="27.5" height="3.1"/>
		</g>
	</g>
	<g>
		<rect x="21.3" y="7" class="st6" width="85.4" height="21.9"/>
		<g class="st8">
			<path class="st9" d="M56.6,17.9c0,1.5-0.2,2.7-0.7,3.9c-0.5,1.1-1.1,2-1.9,2.8c-0.8,0.8-1.7,1.3-2.8,1.7
				c-1.1,0.4-2.3,0.6-3.5,0.6s-2.4-0.2-3.5-0.6s-2-0.9-2.9-1.7c-0.8-0.7-1.4-1.7-1.9-2.8c-0.5-1.1-0.7-2.4-0.7-3.9s0.2-2.7,0.7-3.8
				s1.1-2,1.9-2.8c0.8-0.8,1.8-1.3,2.8-1.7C45.4,9.2,46.5,9,47.7,9s2.4,0.2,3.5,0.6c1.1,0.4,2,0.9,2.8,1.7s1.5,1.7,1.9,2.8
				C56.4,15.2,56.6,16.5,56.6,17.9z M42.9,17.9c0,0.8,0.1,1.6,0.3,2.3c0.2,0.7,0.5,1.3,0.9,1.7c0.4,0.5,0.9,0.9,1.5,1.1
				c0.6,0.3,1.3,0.4,2,0.4s1.4-0.1,2-0.4s1.1-0.6,1.5-1.1s0.7-1.1,0.9-1.7c0.2-0.7,0.3-1.4,0.3-2.3c0-0.8-0.1-1.6-0.3-2.3
				s-0.5-1.3-0.9-1.7c-0.4-0.5-0.9-0.9-1.5-1.1c-0.6-0.3-1.3-0.4-2-0.4c-0.8,0-1.4,0.1-2,0.4c-0.6,0.3-1.1,0.6-1.5,1.1
				s-0.7,1.1-0.9,1.7C43.1,16.4,42.9,17.1,42.9,17.9z"/>
			<path class="st9" d="M72.7,9.4v3.3h-5.4v13.8h-4V12.7h-5.4V9.4H72.7z"/>
			<path class="st9" d="M89.2,9.4v3.3h-5.4v13.8h-4V12.7h-5.4V9.4H89.2z"/>
		</g>
	</g>
</g>
</svg>
