<?xml version="1.0" encoding="utf-8"?>
<!-- Generator: Adobe Illustrator 16.0.0, SVG Export Plug-In . SVG Version: 6.00 Build 0)  -->
<!DOCTYPE svg PUBLIC "-//W3C//DTD SVG 1.1//EN" "http://www.w3.org/Graphics/SVG/1.1/DTD/svg11.dtd">
<svg version="1.1" id="图层_1" xmlns="http://www.w3.org/2000/svg" xmlns:xlink="http://www.w3.org/1999/xlink" x="0px" y="0px"
	 width="128px" height="128px" viewBox="0 0 128 128" enable-background="new 0 0 128 128" xml:space="preserve">
<g id="surface1">
	<polygon opacity="0.2" enable-background="new    " points="18.5,124 18.5,4 109.5,4 109.5,90.203 75.703,124 	"/>
	<polygon opacity="0.08" enable-background="new    " points="18.5,128 18.5,4 113.5,4 113.5,93.031 78.531,128 	"/>
	<polygon opacity="0.1" enable-background="new    " points="20.5,126 20.5,6 111.5,6 111.5,92.203 77.703,126 	"/>
	<g>
		
			<linearGradient id="SVGID_1_" gradientUnits="userSpaceOnUse" x1="230.4004" y1="1675.9609" x2="230.4004" y2="1559.9609" gradientTransform="matrix(1 0 0 1 -166.4004 -1553.9609)">
			<stop  offset="0" style="stop-color:#F57C00"/>
			<stop  offset="0.099" style="stop-color:#F78B0C"/>
			<stop  offset="0.3289" style="stop-color:#FAA823"/>
			<stop  offset="0.5576" style="stop-color:#FDBC33"/>
			<stop  offset="0.7827" style="stop-color:#FEC93D"/>
			<stop  offset="1" style="stop-color:#FFCD40"/>
		</linearGradient>
		<path fill="url(#SVGID_1_)" d="M74.875,122L107.5,89.375V6h-87v116H74.875z"/>
		<polygon fill="#EE6F0B" fill-opacity="0.3922" points="73.063,87.563 73.063,122 74.875,122 107.5,89.375 107.5,87.563 		"/>
		<path fill="#FFFFFF" fill-opacity="0.3922" d="M74.875,89.375h32.598L74.875,122V89.375z"/>
		<path opacity="0.8" fill="#FFFFFF" d="M64,27.748c-1.969,0-3.625,1.133-4.375,2.726c-1.502-1.033-3.583-1.218-5.297-0.276
			c-1.685,0.914-2.576,2.705-2.406,4.433c-1.827-0.163-3.711,0.694-4.688,2.301c-0.977,1.607-0.779,3.59,0.297,5.006
			c-1.685,0.715-2.859,2.294-2.859,4.156c0,1.869,1.175,3.434,2.859,4.155c-1.076,1.424-1.273,3.393-0.297,5.014
			c0.977,1.607,2.86,2.449,4.688,2.287c-0.17,1.74,0.722,3.518,2.406,4.445c0.766,0.418,1.601,0.58,2.422,0.58v19.549L64,75.24
			l7.25,6.883V62.574c0.82,0,1.656-0.162,2.422-0.58c1.684-0.928,2.576-2.705,2.406-4.445c1.828,0.162,3.711-0.68,4.688-2.287
			c0.977-1.621,0.779-3.59-0.297-5.014c1.684-0.722,2.859-2.286,2.859-4.155c0-1.862-1.176-3.441-2.859-4.156
			c1.076-1.416,1.273-3.398,0.297-5.006c-0.977-1.606-2.859-2.464-4.688-2.301c0.17-1.728-0.723-3.519-2.406-4.433
			c-1.715-0.941-3.795-0.757-5.297,0.276C67.625,28.881,65.969,27.748,64,27.748z M64,34.552c6.67,0,12.078,5.141,12.078,11.47
			c0,6.33-5.408,11.455-12.078,11.455s-12.078-5.125-12.078-11.455C51.922,39.692,57.33,34.552,64,34.552z M64,36.854
			c-5.338,0-9.672,4.099-9.672,9.168c0,5.055,4.334,9.168,9.672,9.168s9.672-4.113,9.672-9.168
			C73.672,40.952,69.338,36.854,64,36.854z"/>
		<g>
			<path fill="#EE6F0B" d="M106.5,7v81.961L74.461,121H49.5h-28V7H106.5 M107.5,6h-87v116h29h25.375L107.5,89.375V6L107.5,6z"/>
		</g>
	</g>
</g>
</svg>
