<?xml version="1.0" encoding="utf-8"?>
<!-- Generator: Adobe Illustrator 16.0.0, SVG Export Plug-In . SVG Version: 6.00 Build 0)  -->
<!DOCTYPE svg PUBLIC "-//W3C//DTD SVG 1.1//EN" "http://www.w3.org/Graphics/SVG/1.1/DTD/svg11.dtd">
<svg version="1.1" id="图层_1" xmlns="http://www.w3.org/2000/svg" xmlns:xlink="http://www.w3.org/1999/xlink" x="0px" y="0px"
	 width="128px" height="128px" viewBox="0 0 128 128" enable-background="new 0 0 128 128" xml:space="preserve">
<polygon opacity="0.08" enable-background="new    " points="18.31,128 18.31,4 113.689,4 113.689,92.995 78.686,128 "/>
<polygon display="none" opacity="0.08" enable-background="new    " points="22.31,126 22.31,6 113.689,6 113.689,92.167 
	79.857,126 "/>
<polygon opacity="0.1" enable-background="new    " points="20.31,126 20.31,6 111.689,6 111.689,92.167 77.857,126 "/>
<polygon opacity="0.2" enable-background="new    " points="18.31,124 18.31,4 109.689,4 109.689,90.167 75.857,124 "/>
<polygon fill="#0D47A1" points="20.298,122 20.298,6 107.702,6 107.702,89.34 75.033,122 "/>
<g>
	<g>
		<g>
			<g>
				<linearGradient id="SVGID_1_" gradientUnits="userSpaceOnUse" x1="64.0371" y1="121" x2="64.0371" y2="7.0005">
					<stop  offset="0" style="stop-color:#3F51B5"/>
					<stop  offset="1" style="stop-color:#64B5F6"/>
				</linearGradient>
				<polygon fill="url(#SVGID_1_)" points="21.332,121 21.332,7 106.742,7 106.742,88.938 74.68,121 				"/>
			</g>
			<polygon fill="#2196F3" fill-opacity="0.7" points="106.742,88.938 106.742,87.557 72.921,87.557 72.921,121 74.68,121 			"/>
			<path opacity="0.39" fill="#FFFFFF" d="M74.636,88.938l32.114,0.045L74.68,121L74.636,88.938z"/>
		</g>
		<g opacity="0.8">
			<linearGradient id="SVGID_2_" gradientUnits="userSpaceOnUse" x1="33.9932" y1="45.8906" x2="94.0361" y2="45.8906">
				<stop  offset="0" style="stop-color:#F6F5F5"/>
				<stop  offset="0.341" style="stop-color:#F1F2F3"/>
				<stop  offset="0.6434" style="stop-color:#E7EAEB"/>
				<stop  offset="0.9302" style="stop-color:#D5DBDF"/>
				<stop  offset="1" style="stop-color:#CFD7DB"/>
			</linearGradient>
			<rect x="33.993" y="44.406" opacity="0.8" fill="url(#SVGID_2_)" enable-background="new    " width="60.043" height="2.969"/>
			<linearGradient id="SVGID_3_" gradientUnits="userSpaceOnUse" x1="33.9932" y1="36.6094" x2="94.0361" y2="36.6094">
				<stop  offset="0" style="stop-color:#F6F5F5"/>
				<stop  offset="0.341" style="stop-color:#F1F2F3"/>
				<stop  offset="0.6434" style="stop-color:#E7EAEB"/>
				<stop  offset="0.9302" style="stop-color:#D5DBDF"/>
				<stop  offset="1" style="stop-color:#CFD7DB"/>
			</linearGradient>
			<rect x="33.993" y="35.122" opacity="0.8" fill="url(#SVGID_3_)" enable-background="new    " width="60.043" height="2.976"/>
			<linearGradient id="SVGID_4_" gradientUnits="userSpaceOnUse" x1="62.6416" y1="68.8057" x2="93.9922" y2="68.8057">
				<stop  offset="0" style="stop-color:#F6F5F5"/>
				<stop  offset="0.341" style="stop-color:#F1F2F3"/>
				<stop  offset="0.6434" style="stop-color:#E7EAEB"/>
				<stop  offset="0.9302" style="stop-color:#D5DBDF"/>
				<stop  offset="1" style="stop-color:#CFD7DB"/>
			</linearGradient>
			<rect x="62.642" y="53.134" opacity="0.8" fill="url(#SVGID_4_)" enable-background="new    " width="31.351" height="31.342"/>
			<g opacity="0.8">
				<linearGradient id="SVGID_5_" gradientUnits="userSpaceOnUse" x1="33.9932" y1="55.1641" x2="60.0742" y2="55.1641">
					<stop  offset="0" style="stop-color:#F6F5F5"/>
					<stop  offset="0.341" style="stop-color:#F1F2F3"/>
					<stop  offset="0.6434" style="stop-color:#E7EAEB"/>
					<stop  offset="0.9302" style="stop-color:#D5DBDF"/>
					<stop  offset="1" style="stop-color:#CFD7DB"/>
				</linearGradient>
				<rect x="33.993" y="53.676" fill="url(#SVGID_5_)" width="26.081" height="2.976"/>
				<linearGradient id="SVGID_6_" gradientUnits="userSpaceOnUse" x1="33.9932" y1="64.4453" x2="60.0742" y2="64.4453">
					<stop  offset="0" style="stop-color:#F6F5F5"/>
					<stop  offset="0.341" style="stop-color:#F1F2F3"/>
					<stop  offset="0.6434" style="stop-color:#E7EAEB"/>
					<stop  offset="0.9302" style="stop-color:#D5DBDF"/>
					<stop  offset="1" style="stop-color:#CFD7DB"/>
				</linearGradient>
				<rect x="33.993" y="62.961" fill="url(#SVGID_6_)" width="26.081" height="2.969"/>
				<linearGradient id="SVGID_7_" gradientUnits="userSpaceOnUse" x1="33.9932" y1="73.7598" x2="60.0742" y2="73.7598">
					<stop  offset="0" style="stop-color:#F6F5F5"/>
					<stop  offset="0.341" style="stop-color:#F1F2F3"/>
					<stop  offset="0.6434" style="stop-color:#E7EAEB"/>
					<stop  offset="0.9302" style="stop-color:#D5DBDF"/>
					<stop  offset="1" style="stop-color:#CFD7DB"/>
				</linearGradient>
				<rect x="33.993" y="72.275" fill="url(#SVGID_7_)" width="26.081" height="2.969"/>
				<linearGradient id="SVGID_8_" gradientUnits="userSpaceOnUse" x1="33.9932" y1="83.0371" x2="60.0742" y2="83.0371">
					<stop  offset="0" style="stop-color:#F6F5F5"/>
					<stop  offset="0.341" style="stop-color:#F1F2F3"/>
					<stop  offset="0.6434" style="stop-color:#E7EAEB"/>
					<stop  offset="0.9302" style="stop-color:#D5DBDF"/>
					<stop  offset="1" style="stop-color:#CFD7DB"/>
				</linearGradient>
				<rect x="33.993" y="81.553" fill="url(#SVGID_8_)" width="26.081" height="2.969"/>
			</g>
		</g>
	</g>
	<g>
		<rect x="21.25" y="7" opacity="0.8" fill="#FFFFFF" width="85.455" height="21.85"/>
	</g>
	<g>
		<path fill="#1976D2" d="M46.789,9.189c2.687,0,4.75,0.453,6.175,1.366c1.439,0.913,2.152,2.323,2.152,4.238
			c0,1.195-0.29,2.167-0.868,2.909c-0.579,0.75-1.41,1.336-2.494,1.759c0.363,0.423,0.734,0.913,1.136,1.462
			c0.4,0.549,0.786,1.128,1.173,1.722c0.393,0.594,0.771,1.217,1.128,1.87c0.363,0.638,0.697,1.276,1.009,1.9h-4.512
			c-0.327-0.557-0.661-1.121-0.995-1.692c-0.341-0.579-0.683-1.128-1.039-1.678c-0.356-0.534-0.705-1.054-1.054-1.529
			c-0.341-0.49-0.69-0.92-1.039-1.321h-1.989v6.219h-4.037V9.627c0.883-0.164,1.796-0.275,2.731-0.341
			C45.2,9.227,46.046,9.189,46.789,9.189z M47.019,12.462c-0.289,0-0.557,0-0.787,0.022c-0.23,0.015-0.453,0.03-0.661,0.052v4.617
			h1.143c1.514,0,2.598-0.178,3.251-0.542c0.653-0.364,0.987-0.972,0.987-1.848c0-0.831-0.334-1.425-1.002-1.781
			C49.29,12.633,48.317,12.462,47.019,12.462z"/>
		<path fill="#1976D2" d="M71.83,9.39v3.266h-5.418v13.76h-4.03v-13.76h-5.41V9.39H71.83z"/>
		<path fill="#1976D2" d="M74.413,26.416V9.39h12.009v3.221H78.45v3.563h7.081v3.214H78.45v7.028H74.413z"/>
	</g>
</g>
</svg>
