<?xml version="1.0" encoding="utf-8"?>
<!-- Generator: Adobe Illustrator 21.0.0, SVG Export Plug-In . SVG Version: 6.00 Build 0)  -->
<svg version="1.1" id="图层_1" xmlns="http://www.w3.org/2000/svg" xmlns:xlink="http://www.w3.org/1999/xlink" x="0px" y="0px"
	 viewBox="0 0 128 128" style="enable-background:new 0 0 128 128;" xml:space="preserve">
<style type="text/css">
	.st0{opacity:0.2;enable-background:new    ;}
	.st1{opacity:0.08;enable-background:new    ;}
	.st2{opacity:0.1;enable-background:new    ;}
	.st3{fill:url(#SVGID_1_);}
	.st4{fill:#EE6F0B;fill-opacity:0.3922;}
	.st5{fill:#FFFFFF;fill-opacity:0.3922;}
	.st6{fill:#EE6F0B;}
	.st7{opacity:0.8;}
	.st8{fill:#FFFFFF;}
</style>
<g id="surface1">
	<polygon class="st0" points="18.5,124 18.5,4 109.5,4 109.5,90.2 75.7,124 	"/>
	<polygon class="st1" points="18.5,128 18.5,4 113.5,4 113.5,93 78.5,128 	"/>
	<polygon class="st2" points="20.5,126 20.5,6 111.5,6 111.5,92.2 77.7,126 	"/>
	<g>
		
			<linearGradient id="SVGID_1_" gradientUnits="userSpaceOnUse" x1="272.0005" y1="-2349.9512" x2="272.0005" y2="-2233.9512" gradientTransform="matrix(1 0 0 -1 -208.0005 -2227.9512)">
			<stop  offset="0" style="stop-color:#F57C00"/>
			<stop  offset="0.099" style="stop-color:#F78B0C"/>
			<stop  offset="0.3289" style="stop-color:#FAA823"/>
			<stop  offset="0.5576" style="stop-color:#FDBC33"/>
			<stop  offset="0.7827" style="stop-color:#FEC93D"/>
			<stop  offset="1" style="stop-color:#FFCD40"/>
		</linearGradient>
		<path class="st3" d="M74.9,122l32.6-32.6V6h-87v116H74.9z"/>
		<polygon class="st4" points="73.1,87.6 73.1,122 74.9,122 107.5,89.4 107.5,87.6 		"/>
		<path class="st5" d="M74.9,89.4h32.6L74.9,122V89.4z"/>
		<g>
			<path class="st6" d="M106.5,7v82l-32,32h-25h-28V7H106.5 M107.5,6h-87v116h29h25.4l32.6-32.6V6L107.5,6z"/>
		</g>
	</g>
</g>
<g class="st7">
	<path class="st8" d="M56.2,70.4c0,0-2.3,1.3,1.6,1.7c4.7,0.5,7.2,0.4,12.4-0.5c0,0,1.4,0.8,3.3,1.5C61.7,77.9,47,72.8,56.2,70.4"/>
	<path class="st8" d="M54.7,64.2c0,0-2.6,1.8,1.3,2.2c5.1,0.5,9.1,0.5,16-0.7c0,0,1,0.9,2.5,1.4C60.4,71,44.6,67.4,54.7,64.2"/>
	<path class="st8" d="M66.8,53.7c2.9,3.1-0.8,6-0.8,6s7.3-3.6,4-8.1c-3.1-4.2-5.6-6.3,7.5-13.4C77.5,38.2,57,43,66.8,53.7"/>
	<path class="st8" d="M82.2,75c0,0,1.7,1.3-1.9,2.3c-6.7,1.9-28.1,2.5-34,0.1c-2.1-0.9,1.9-2.1,3.1-2.3c1.3-0.3,2-0.2,2-0.2
		c-2.4-1.6-15.3,3.1-6.6,4.4C68.8,83,88.4,77.7,82.2,75"/>
	<path class="st8" d="M57.3,57.8c0,0-10.9,2.4-3.8,3.3c3,0.4,8.9,0.3,14.4-0.1c4.5-0.3,9-1.1,9-1.1s-1.6,0.6-2.7,1.4
		c-11,2.7-32.3,1.5-26.2-1.4C53,57.5,57.3,57.8,57.3,57.8"/>
	<path class="st8" d="M76.7,68.1c11.2-5.5,6-10.8,2.4-10.1c-0.9,0.2-1.3,0.3-1.3,0.3s0.3-0.5,1-0.7c7.2-2.4,12.7,7-2.3,10.8
		C76.5,68.4,76.7,68.3,76.7,68.1"/>
	<path class="st8" d="M70,26.6c0,0,6.2,5.9-5.9,14.9c-9.7,7.3-2.2,11.4,0,16.1c-5.7-4.8-9.8-9.1-7-13.1C61.1,38.8,72.5,36,70,26.6"
		/>
	<path class="st8" d="M58.4,83.1c10.7,0.6,27.3-0.4,27.7-5.2c0,0-0.8,1.8-8.9,3.3C68,82.8,56.7,82.6,50,81.6
		C49.9,81.6,51.3,82.7,58.4,83.1"/>
</g>
</svg>
