<?xml version="1.0" encoding="utf-8"?>
<!-- Generator: Adobe Illustrator 16.0.0, SVG Export Plug-In . SVG Version: 6.00 Build 0)  -->
<!DOCTYPE svg PUBLIC "-//W3C//DTD SVG 1.1//EN" "http://www.w3.org/Graphics/SVG/1.1/DTD/svg11.dtd">
<svg version="1.1" id="图层_1" xmlns="http://www.w3.org/2000/svg" xmlns:xlink="http://www.w3.org/1999/xlink" x="0px" y="0px"
	 width="128px" height="128px" viewBox="0 0 128 128" enable-background="new 0 0 128 128" xml:space="preserve">
<polygon opacity="0.08" enable-background="new    " points="18.31,128 18.31,4 113.689,4 113.689,92.995 78.686,128 "/>
<polygon display="none" opacity="0.08" enable-background="new    " points="22.31,126 22.31,6 113.689,6 113.689,92.167 
	79.857,126 "/>
<polygon opacity="0.1" enable-background="new    " points="20.31,126 20.31,6 111.689,6 111.689,92.167 77.857,126 "/>
<polygon opacity="0.2" enable-background="new    " points="18.31,124 18.31,4 109.689,4 109.689,90.167 75.857,124 "/>
<polygon fill="#3E2723" points="20.298,122 20.298,6 107.702,6 107.702,89.34 75.033,122 "/>
<g>
	<g>
		
			<linearGradient id="SVGID_1_" gradientUnits="userSpaceOnUse" x1="105.6035" y1="-42.9004" x2="105.6035" y2="-156.9009" gradientTransform="matrix(1 0 0 -1 -41.6001 -35.9004)">
			<stop  offset="0" style="stop-color:#785548"/>
			<stop  offset="1" style="stop-color:#9F9E9F"/>
		</linearGradient>
		<polygon fill="url(#SVGID_1_)" points="21.298,121 21.298,7 106.709,7 106.709,88.893 74.959,121 		"/>
		<polygon fill="#795548" fill-opacity="0.7" points="106.709,88.938 106.709,87.557 72.895,87.557 72.895,121 74.646,121 		"/>
		<path opacity="0.39" fill="#FFFFFF" enable-background="new    " d="M74.602,88.938l32.107,0.045L74.646,121L74.602,88.938z"/>
	</g>
	<path fill="#FFFFFF" d="M51.817,28.976h-2.895v37.02H46.74v-37.02h-2.879v37.02h-2.182v-37.02h-2.88v37.02h-2.182v-37.02h-2.88
		v37.02H32.98v15.683h19.816V65.996h-0.98V28.976z M49.917,77.122H35.86V68.03h14.057V77.122z"/>
	<g>
		<rect x="21.276" y="7" opacity="0.8" fill="#FFFFFF" enable-background="new    " width="85.449" height="21.85"/>
		<g enable-background="new    ">
			<path fill="#5D4037" d="M41.99,23.518c0.572,0,1.039-0.045,1.41-0.134c0.371-0.093,0.668-0.215,0.891-0.371
				c0.23-0.156,0.379-0.338,0.468-0.553c0.089-0.212,0.134-0.449,0.134-0.713c0-0.557-0.282-1.021-0.832-1.388
				s-1.499-0.765-2.842-1.191c-0.586-0.196-1.173-0.423-1.759-0.675s-1.113-0.575-1.581-0.958c-0.468-0.386-0.846-0.854-1.136-1.402
				c-0.297-0.549-0.438-1.217-0.438-2c0-0.787,0.148-1.496,0.46-2.126c0.312-0.631,0.75-1.169,1.321-1.61
				c0.572-0.441,1.262-0.783,2.071-1.021s1.722-0.356,2.739-0.356c1.209,0,2.249,0.123,3.132,0.371
				c0.876,0.245,1.603,0.516,2.175,0.809l-1.166,3.024c-0.504-0.249-1.061-0.464-1.67-0.653c-0.616-0.189-1.351-0.282-2.211-0.282
				c-0.965,0-1.663,0.126-2.085,0.382c-0.416,0.252-0.631,0.642-0.631,1.165c0,0.312,0.082,0.575,0.23,0.787
				c0.156,0.212,0.378,0.405,0.661,0.579c0.289,0.171,0.616,0.327,0.987,0.464c0.371,0.141,0.779,0.286,1.225,0.431
				c0.935,0.33,1.744,0.653,2.435,0.972c0.69,0.319,1.262,0.69,1.722,1.117c0.453,0.427,0.794,0.928,1.017,1.5
				c0.223,0.575,0.341,1.269,0.341,2.089c0,1.588-0.586,2.82-1.759,3.696c-1.172,0.879-2.946,1.317-5.307,1.317
				c-0.794,0-1.506-0.048-2.145-0.137c-0.639-0.089-1.203-0.2-1.692-0.33c-0.497-0.13-0.913-0.271-1.269-0.419
				c-0.356-0.145-0.653-0.286-0.891-0.416l1.135-3.047c0.535,0.278,1.195,0.527,1.982,0.75C39.89,23.406,40.855,23.518,41.99,23.518
				z"/>
			<path fill="#5D4037" d="M52.151,9.412h4.038v17.029h-4.038V9.412z"/>
			<path fill="#5D4037" d="M73.623,9.412v3.27h-5.412v13.76h-4.029v-13.76h-5.411v-3.27H73.623z"/>
			<path fill="#5D4037" d="M87.182,26.441c-0.504-0.95-1.053-1.907-1.654-2.883c-0.602-0.972-1.291-1.792-2.07-2.468
				c-0.238,0.256-0.551,0.609-0.914,1.058c-0.371,0.453-0.742,0.932-1.113,1.436c-0.363,0.509-0.719,1.032-1.039,1.577
				c-0.318,0.546-0.557,0.973-0.719,1.28H75.07c0.756-1.328,1.646-2.701,2.672-4.119c1.023-1.414,2.166-2.917,3.428-4.509
				l-5.848-8.401h4.898l3.414,4.932l3.488-4.932h4.602l-5.818,8.22c1.527,1.814,2.783,3.481,3.77,4.991
				c0.986,1.514,1.766,2.787,2.33,3.818H87.182z"/>
		</g>
	</g>
</g>
</svg>
