<?xml version="1.0" encoding="utf-8"?>
<!-- Generator: Adobe Illustrator 16.0.0, SVG Export Plug-In . SVG Version: 6.00 Build 0)  -->
<!DOCTYPE svg PUBLIC "-//W3C//DTD SVG 1.1//EN" "http://www.w3.org/Graphics/SVG/1.1/DTD/svg11.dtd">
<svg version="1.1" id="图层_1" xmlns="http://www.w3.org/2000/svg" xmlns:xlink="http://www.w3.org/1999/xlink" x="0px" y="0px"
	 width="128px" height="128px" viewBox="0 0 128 128" enable-background="new 0 0 128 128" xml:space="preserve">
<rect x="18.298" y="4" opacity="0.2" enable-background="new    " width="91.404" height="120"/>
<rect x="18.298" y="4" opacity="0.08" enable-background="new    " width="95.404" height="124"/>
<rect x="20.298" y="6" opacity="0.1" enable-background="new    " width="91.404" height="120"/>
<rect x="20.298" y="6" fill="#E65100" width="87.404" height="116"/>
<g>
	
		<linearGradient id="SVGID_1_" gradientUnits="userSpaceOnUse" x1="147.1992" y1="945.8008" x2="147.1992" y2="831.8008" gradientTransform="matrix(1 0 0 1 -83.2002 -824.8008)">
		<stop  offset="0" style="stop-color:#EE6F0B"/>
		<stop  offset="1" style="stop-color:#FFB74D"/>
	</linearGradient>
	<rect x="21.294" y="7" fill="url(#SVGID_1_)" width="85.411" height="114"/>
	<g opacity="0.8">
		<rect x="32.416" y="50.882" fill="#FFFFFF" width="9.118" height="45.7"/>
		<rect x="47.616" y="73.686" fill="#FFFFFF" width="9.118" height="22.845"/>
		<rect x="62.768" y="82.992" fill="#FFFFFF" width="9.114" height="13.687"/>
		<g>
			<path fill="#FFFFFF" d="M75.162,42.814l0.104,18.191l18.19-0.097c0.053,10.068-8.082,18.24-18.146,18.284
				c-10.078,0.06-18.243-8.075-18.294-18.139C56.972,51.026,65.095,42.859,75.162,42.814z"/>
			<path fill="#FFFFFF" d="M77.3,40.714c10.071-0.044,18.243,8.079,18.288,18.15l-18.184,0.1L77.3,40.714z"/>
		</g>
	</g>
	<g>
		<rect x="21.272" y="7" opacity="0.8" fill="#FFFFFF" enable-background="new    " width="85.455" height="21.85"/>
		<g enable-background="new    ">
			<path fill="#E64A19" d="M56.764,17.792c0,1.455-0.23,2.739-0.69,3.844c-0.453,1.106-1.083,2.034-1.87,2.776
				c-0.794,0.742-1.737,1.306-2.835,1.677c-1.099,0.386-2.271,0.572-3.533,0.572c-1.225,0-2.375-0.186-3.466-0.572
				c-1.083-0.371-2.034-0.935-2.843-1.677c-0.809-0.742-1.447-1.67-1.915-2.776c-0.468-1.105-0.698-2.39-0.698-3.844
				c0-1.462,0.245-2.746,0.728-3.848c0.482-1.106,1.128-2.034,1.952-2.791c0.816-0.753,1.767-1.317,2.843-1.692
				c1.076-0.378,2.211-0.568,3.399-0.568c1.225,0,2.383,0.189,3.466,0.568c1.091,0.375,2.034,0.939,2.85,1.692
				c0.809,0.757,1.447,1.685,1.915,2.791C56.526,15.045,56.764,16.329,56.764,17.792z M43.078,17.792
				c0,0.831,0.111,1.588,0.327,2.256c0.215,0.675,0.52,1.247,0.928,1.736c0.408,0.482,0.898,0.854,1.484,1.113
				c0.586,0.268,1.262,0.401,2.019,0.401c0.742,0,1.41-0.133,2.004-0.401c0.602-0.26,1.099-0.631,1.507-1.113
				c0.401-0.49,0.712-1.061,0.928-1.736c0.215-0.668,0.327-1.425,0.327-2.256c0-0.839-0.111-1.596-0.327-2.271
				c-0.215-0.683-0.527-1.266-0.928-1.748c-0.408-0.482-0.905-0.857-1.507-1.121c-0.594-0.26-1.262-0.394-2.004-0.394
				c-0.757,0-1.432,0.137-2.019,0.408s-1.076,0.646-1.484,1.128c-0.408,0.486-0.712,1.065-0.928,1.74
				C43.189,16.218,43.078,16.975,43.078,17.792z"/>
			<path fill="#E64A19" d="M72.817,9.286v3.269h-5.403v13.756h-4.03V12.555h-5.41V9.286H72.817z"/>
			<path fill="#E64A19" d="M80.788,9.089c2.672,0,4.721,0.449,6.153,1.339c1.432,0.895,2.145,2.356,2.145,4.387
				c0,2.048-0.72,3.525-2.167,4.431c-1.455,0.913-3.519,1.366-6.212,1.366h-1.27v5.7h-4.03V9.531
				c0.884-0.163,1.804-0.278,2.791-0.341C79.186,9.123,80.046,9.089,80.788,9.089z M81.041,12.358c-0.29,0-0.579,0.008-0.861,0.026
				c-0.282,0.015-0.534,0.029-0.742,0.048v4.914h1.27c1.402,0,2.449-0.178,3.154-0.542c0.712-0.364,1.068-1.032,1.068-2.011
				c0-0.479-0.097-0.868-0.282-1.18c-0.178-0.312-0.431-0.564-0.771-0.75c-0.334-0.189-0.742-0.319-1.232-0.394
				C82.169,12.396,81.635,12.358,81.041,12.358z"/>
		</g>
	</g>
</g>
</svg>
