<?xml version="1.0" encoding="utf-8"?>
<!-- Generator: Adobe Illustrator 16.0.0, SVG Export Plug-In . SVG Version: 6.00 Build 0)  -->
<!DOCTYPE svg PUBLIC "-//W3C//DTD SVG 1.1//EN" "http://www.w3.org/Graphics/SVG/1.1/DTD/svg11.dtd">
<svg version="1.1" id="图层_1" xmlns="http://www.w3.org/2000/svg" xmlns:xlink="http://www.w3.org/1999/xlink" x="0px" y="0px"
	 width="128px" height="128px" viewBox="0 0 128 128" enable-background="new 0 0 128 128" xml:space="preserve">
<polygon opacity="0.08" enable-background="new    " points="18.31,128 18.31,4 113.689,4 113.689,92.995 78.686,128 "/>
<polygon display="none" opacity="0.08" enable-background="new    " points="22.31,126 22.31,6 113.689,6 113.689,92.167 
	79.857,126 "/>
<polygon opacity="0.1" enable-background="new    " points="20.31,126 20.31,6 111.689,6 111.689,92.167 77.857,126 "/>
<polygon opacity="0.2" enable-background="new    " points="18.31,124 18.31,4 109.689,4 109.689,90.167 75.857,124 "/>
<polygon fill="#3E2723" points="20.298,122 20.298,6 107.702,6 107.702,89.34 75.033,122 "/>
<g>
	<g>
		
			<linearGradient id="SVGID_1_" gradientUnits="userSpaceOnUse" x1="105.6035" y1="-42.9004" x2="105.6035" y2="-156.9009" gradientTransform="matrix(1 0 0 -1 -41.6001 -35.9004)">
			<stop  offset="0" style="stop-color:#785548"/>
			<stop  offset="1" style="stop-color:#9F9E9F"/>
		</linearGradient>
		<polygon fill="url(#SVGID_1_)" points="21.298,121 21.298,7 106.709,7 106.709,88.893 74.959,121 		"/>
		<polygon fill="#795548" fill-opacity="0.7" points="106.709,88.938 106.709,87.557 72.895,87.557 72.895,121 74.646,121 		"/>
		<path opacity="0.39" fill="#FFFFFF" enable-background="new    " d="M74.602,88.938l32.107,0.045L74.646,121L74.602,88.938z"/>
	</g>
	<path fill="#FFFFFF" d="M51.817,28.976h-2.895v37.02H46.74v-37.02h-2.879v37.02h-2.182v-37.02h-2.88v37.02h-2.182v-37.02h-2.88
		v37.02H32.98v15.683h19.816V65.996h-0.98V28.976z M49.917,77.122H35.86V68.03h14.057V77.122z"/>
	<g>
		<rect x="21.276" y="7" opacity="0.8" fill="#FFFFFF" enable-background="new    " width="85.449" height="21.85"/>
		<g enable-background="new    ">
			<path fill="#5D4037" d="M43.675,23.15v3.292H31.696V9.412h4.038V23.15H43.675z"/>
			<path fill="#5D4037" d="M59.373,12.065c-0.55,0.542-1.21,1.243-1.967,2.104c-0.765,0.857-1.544,1.796-2.353,2.813
				c-0.816,1.013-1.618,2.063-2.404,3.143c-0.802,1.083-1.507,2.115-2.13,3.099h9.137v3.217H45.561v-2.286
				c0.482-0.835,1.068-1.763,1.766-2.787c0.705-1.024,1.433-2.056,2.189-3.099c0.757-1.039,1.529-2.044,2.316-3.021
				c0.787-0.976,1.514-1.848,2.182-2.616h-8.045V9.412h13.404V12.065z"/>
			<path fill="#5D4037" d="M79.264,17.914c0,1.458-0.23,2.742-0.684,3.848c-0.461,1.106-1.084,2.03-1.877,2.776
				c-0.795,0.746-1.738,1.306-2.836,1.681c-1.092,0.379-2.271,0.568-3.525,0.568c-1.232,0-2.383-0.189-3.473-0.568
				c-1.084-0.375-2.035-0.935-2.843-1.681c-0.809-0.746-1.447-1.67-1.907-2.776c-0.476-1.106-0.705-2.39-0.705-3.848
				c0-1.458,0.245-2.739,0.728-3.845s1.135-2.034,1.951-2.791c0.816-0.753,1.767-1.317,2.851-1.692
				c1.068-0.378,2.203-0.568,3.398-0.568c1.217,0,2.375,0.189,3.459,0.568c1.09,0.375,2.033,0.939,2.85,1.692
				c0.809,0.757,1.447,1.685,1.914,2.791C79.025,15.175,79.264,16.456,79.264,17.914z M65.576,17.914
				c0,0.835,0.111,1.592,0.328,2.26c0.215,0.675,0.52,1.25,0.934,1.733c0.402,0.486,0.891,0.857,1.484,1.121
				c0.58,0.26,1.262,0.394,2.02,0.394c0.742,0,1.41-0.134,2.004-0.394c0.594-0.263,1.092-0.634,1.5-1.121
				c0.4-0.482,0.711-1.058,0.928-1.733c0.215-0.668,0.326-1.425,0.326-2.26s-0.111-1.592-0.326-2.271
				c-0.217-0.679-0.527-1.262-0.928-1.744c-0.408-0.482-0.906-0.857-1.5-1.121c-0.594-0.26-1.262-0.393-2.004-0.393
				c-0.758,0-1.439,0.137-2.02,0.408c-0.594,0.271-1.082,0.646-1.484,1.128c-0.414,0.486-0.719,1.065-0.934,1.744
				C65.688,16.348,65.576,17.098,65.576,17.914z"/>
			<path fill="#5D4037" d="M88.006,9.215c2.672,0,4.721,0.449,6.152,1.34c1.434,0.894,2.145,2.356,2.145,4.386
				c0,2.048-0.719,3.525-2.166,4.435c-1.455,0.909-3.518,1.366-6.213,1.366h-1.27v5.7h-4.029V9.657
				c0.883-0.164,1.803-0.278,2.791-0.342C86.402,9.249,87.264,9.215,88.006,9.215z M88.258,12.485c-0.289,0-0.578,0.007-0.861,0.026
				c-0.281,0.015-0.533,0.03-0.742,0.048v4.913h1.27c1.402,0,2.449-0.178,3.154-0.542c0.713-0.36,1.068-1.032,1.068-2.015
				c0-0.475-0.096-0.865-0.281-1.176c-0.178-0.312-0.43-0.564-0.771-0.75c-0.334-0.189-0.742-0.319-1.232-0.393
				C89.387,12.522,88.852,12.485,88.258,12.485z"/>
		</g>
	</g>
</g>
</svg>
