<?xml version="1.0" encoding="utf-8"?>
<!-- Generator: Adobe Illustrator 21.0.0, SVG Export Plug-In . SVG Version: 6.00 Build 0)  -->
<svg version="1.1" id="图层_1" xmlns="http://www.w3.org/2000/svg" xmlns:xlink="http://www.w3.org/1999/xlink" x="0px" y="0px"
	 viewBox="0 0 128 128" style="enable-background:new 0 0 128 128;" xml:space="preserve">
<style type="text/css">
	.st0{opacity:0.2;enable-background:new    ;}
	.st1{opacity:0.08;enable-background:new    ;}
	.st2{opacity:0.1;enable-background:new    ;}
	.st3{fill:url(#SVGID_1_);}
	.st4{fill:#BF360C;fill-opacity:0.3922;}
	.st5{fill:#FFFFFF;fill-opacity:0.3922;}
	.st6{opacity:0.8;fill:#FFFFFF;enable-background:new    ;}
	.st7{fill:#BF360C;}
</style>
<g id="surface1">
	<polygon class="st0" points="18.5,124 18.5,4 109.5,4 109.5,90.2 75.7,124 	"/>
	<polygon class="st1" points="18.5,128 18.5,4 113.5,4 113.5,93 78.5,128 	"/>
	<polygon class="st2" points="20.5,126 20.5,6 111.5,6 111.5,92.2 77.7,126 	"/>
</g>
<linearGradient id="SVGID_1_" gradientUnits="userSpaceOnUse" x1="230.4004" y1="2337.9609" x2="230.4004" y2="2221.9609" gradientTransform="matrix(1 0 0 1 -166.4004 -2215.9609)">
	<stop  offset="0" style="stop-color:#FF5722"/>
	<stop  offset="0.2433" style="stop-color:#FF5B20"/>
	<stop  offset="0.4954" style="stop-color:#FF6819"/>
	<stop  offset="0.7506" style="stop-color:#FF7C0F"/>
	<stop  offset="1" style="stop-color:#FF9800"/>
</linearGradient>
<path class="st3" d="M74.9,122l32.6-32.6V6h-87v116H74.9z"/>
<polygon class="st4" points="73.1,87.6 73.1,122 74.9,122 107.5,89.4 107.5,87.6 "/>
<path class="st5" d="M74.9,89.4h32.6L74.9,122V89.4z"/>
<path class="st6" d="M36.8,74.7c0-1.6,0.5-2.9,1.6-3.9c1.1-1.1,2.4-1.6,3.9-1.6s2.8,0.5,3.9,1.6c1.1,1.1,1.6,2.4,1.6,3.9
	s-0.5,2.8-1.6,3.9s-2.3,1.6-3.9,1.6c-1.6,0-2.9-0.5-3.9-1.6C37.3,77.6,36.8,76.3,36.8,74.7 M36.5,49.7v9.2
	c11.8,0,21.3,9.6,21.3,21.4H67C67.1,63.4,53.4,49.7,36.5,49.7z M36.5,29.6v10.2C58.9,39.7,77,57.9,77,80.3h10.2
	C87.2,52.3,64.5,29.6,36.5,29.6z"/>
<g>
	<path class="st7" d="M106.5,7v82l-32,32h-25h-28V7H106.5 M107.5,6h-87v116h29h25.4l32.6-32.6V6L107.5,6z"/>
</g>
</svg>
