<?xml version="1.0" encoding="utf-8"?>
<!-- Generator: Adobe Illustrator 16.0.0, SVG Export Plug-In . SVG Version: 6.00 Build 0)  -->
<!DOCTYPE svg PUBLIC "-//W3C//DTD SVG 1.1//EN" "http://www.w3.org/Graphics/SVG/1.1/DTD/svg11.dtd">
<svg version="1.1" id="图层_1" xmlns="http://www.w3.org/2000/svg" xmlns:xlink="http://www.w3.org/1999/xlink" x="0px" y="0px"
	 width="128px" height="128px" viewBox="0 0 128 128" enable-background="new 0 0 128 128" xml:space="preserve">
<polygon opacity="0.08" enable-background="new    " points="18.31,128 18.31,4 113.689,4 113.689,92.995 78.686,128 "/>
<polygon display="none" opacity="0.08" enable-background="new    " points="22.31,126 22.31,6 113.689,6 113.689,92.167 
	79.857,126 "/>
<polygon opacity="0.1" enable-background="new    " points="20.31,126 20.31,6 111.689,6 111.689,92.167 77.857,126 "/>
<polygon opacity="0.2" enable-background="new    " points="18.31,124 18.31,4 109.689,4 109.689,90.167 75.857,124 "/>
<polygon fill="#01579B" points="20.298,122 20.298,6 107.702,6 107.702,89.339 75.033,122 "/>
<g>
	<g>
		<g>
			<g>
				
					<linearGradient id="SVGID_1_" gradientUnits="userSpaceOnUse" x1="147.1953" y1="-575.8003" x2="147.1953" y2="-461.8008" gradientTransform="matrix(1 0 0 -1 -83.2002 -454.8008)">
					<stop  offset="0" style="stop-color:#2196F3"/>
					<stop  offset="0.5828" style="stop-color:#3DBAE8"/>
					<stop  offset="1" style="stop-color:#4DD0E1"/>
				</linearGradient>
				<polygon fill="url(#SVGID_1_)" points="21.289,121 21.289,7 106.699,7 106.699,88.938 74.637,121 				"/>
			</g>
			<polygon fill="#01579B" fill-opacity="0.39" points="106.699,88.938 106.699,87.557 72.878,87.557 72.878,121 74.637,121 			"/>
			<path fill="#FFFFFF" fill-opacity="0.3922" d="M74.593,88.938l32.114,0.045L74.637,121L74.593,88.938z"/>
		</g>
		<g>
			<path opacity="0.8" fill="#FFFFFF" enable-background="new    " d="M79.149,46.804c3.333,0,6.034,2.701,6.034,6.038
				c0,3.333-2.701,6.034-6.034,6.034c-3.332,0-6.034-2.701-6.034-6.034C73.115,49.505,75.817,46.804,79.149,46.804z"/>
			<path opacity="0.8" fill="#FFFFFF" enable-background="new    " d="M34.311,40.254V79.2h59.379V40.254H34.311z M89.406,44.525
				v30.4l0,0l-13.774-9.782l-9.838,6.027L53.166,55.925l-14.588,19v-30.4H89.406z"/>
		</g>
	</g>
	<g>
		<rect x="21.271" y="7" opacity="0.8" fill="#FFFFFF" enable-background="new    " width="85.459" height="21.85"/>
		<g enable-background="new    ">
			<path fill="#0288D1" d="M44.063,9.089c2.68,0,4.729,0.449,6.16,1.339c1.433,0.895,2.146,2.356,2.146,4.387
				c0,2.048-0.72,3.525-2.175,4.435c-1.447,0.909-3.518,1.365-6.205,1.365H42.72v5.7h-4.03V9.531
				c0.876-0.163,1.804-0.278,2.791-0.341C42.46,9.123,43.32,9.089,44.063,9.089z M44.322,12.358c-0.289,0-0.578,0.008-0.86,0.026
				c-0.29,0.015-0.534,0.029-0.742,0.048v4.914h1.269c1.396,0,2.449-0.178,3.154-0.542c0.705-0.36,1.062-1.032,1.062-2.015
				c0-0.475-0.089-0.864-0.274-1.176c-0.178-0.312-0.438-0.564-0.771-0.75c-0.334-0.189-0.75-0.319-1.232-0.394
				S44.909,12.358,44.322,12.358z"/>
			<path fill="#0288D1" d="M67.367,26.315c-1.157-1.948-2.404-3.874-3.748-5.774c-1.343-1.9-2.775-3.692-4.297-5.381v11.155h-3.979
				V9.286h3.281c0.571,0.542,1.202,1.206,1.893,1.993c0.689,0.783,1.388,1.625,2.107,2.516c0.713,0.894,1.425,1.818,2.13,2.779
				c0.713,0.958,1.373,1.878,1.989,2.761V9.286h4.019v17.029H67.367z"/>
			<path fill="#0288D1" d="M83.633,12.236c-1.871,0-3.236,0.493-4.067,1.484c-0.847,0.994-1.262,2.349-1.262,4.067
				c0,0.835,0.104,1.596,0.312,2.275s0.52,1.266,0.936,1.755c0.415,0.494,0.935,0.872,1.543,1.143
				c0.624,0.271,1.352,0.404,2.183,0.404c0.445,0,0.831-0.007,1.143-0.022c0.327-0.019,0.608-0.048,0.847-0.1V17.32h4.037v8.431
				c-0.49,0.178-1.262,0.371-2.33,0.575c-1.069,0.204-2.391,0.308-3.964,0.308c-1.336,0-2.553-0.197-3.651-0.59
				c-1.099-0.393-2.033-0.965-2.806-1.718c-0.771-0.753-1.38-1.681-1.796-2.779c-0.431-1.095-0.639-2.349-0.639-3.759
				c0-1.425,0.238-2.687,0.698-3.781c0.46-1.099,1.099-2.03,1.915-2.791s1.766-1.34,2.864-1.733c1.084-0.393,2.257-0.59,3.503-0.59
				c0.847,0,1.604,0.056,2.286,0.16c0.683,0.107,1.262,0.23,1.752,0.371c0.489,0.137,0.905,0.282,1.217,0.43
				c0.327,0.145,0.55,0.26,0.683,0.342l-1.157,3.072c-0.55-0.278-1.188-0.52-1.9-0.724C85.266,12.336,84.479,12.236,83.633,12.236z"
				/>
		</g>
	</g>
</g>
</svg>
