<?xml version="1.0" encoding="utf-8"?>
<!-- Generator: Adobe Illustrator 16.0.0, SVG Export Plug-In . SVG Version: 6.00 Build 0)  -->
<!DOCTYPE svg PUBLIC "-//W3C//DTD SVG 1.1//EN" "http://www.w3.org/Graphics/SVG/1.1/DTD/svg11.dtd">
<svg version="1.1" id="图层_1" xmlns="http://www.w3.org/2000/svg" xmlns:xlink="http://www.w3.org/1999/xlink" x="0px" y="0px"
	 width="128px" height="128px" viewBox="0 0 128 128" enable-background="new 0 0 128 128" xml:space="preserve">
<polygon opacity="0.08" enable-background="new    " points="18.31,128 18.31,4 113.689,4 113.689,92.995 78.686,128 "/>
<polygon display="none" opacity="0.08" enable-background="new    " points="22.31,126 22.31,6 113.689,6 113.689,92.167 
	79.857,126 "/>
<polygon opacity="0.1" enable-background="new    " points="20.31,126 20.31,6 111.689,6 111.689,92.167 77.857,126 "/>
<polygon opacity="0.2" enable-background="new    " points="18.31,124 18.31,4 109.689,4 109.689,90.167 75.857,124 "/>
<polygon fill="#01579B" points="20.298,122 20.298,6 107.702,6 107.702,89.339 75.033,122 "/>
<g>
	<g>
		<g>
			<g>
				
					<linearGradient id="SVGID_1_" gradientUnits="userSpaceOnUse" x1="147.1953" y1="-575.8003" x2="147.1953" y2="-461.8008" gradientTransform="matrix(1 0 0 -1 -83.2002 -454.8008)">
					<stop  offset="0" style="stop-color:#2196F3"/>
					<stop  offset="0.5828" style="stop-color:#3DBAE8"/>
					<stop  offset="1" style="stop-color:#4DD0E1"/>
				</linearGradient>
				<polygon fill="url(#SVGID_1_)" points="21.289,121 21.289,7 106.699,7 106.699,88.938 74.637,121 				"/>
			</g>
			<polygon fill="#01579B" fill-opacity="0.39" points="106.699,88.938 106.699,87.557 72.878,87.557 72.878,121 74.637,121 			"/>
			<path fill="#FFFFFF" fill-opacity="0.3922" d="M74.593,88.938l32.114,0.045L74.637,121L74.593,88.938z"/>
		</g>
		<g>
			<path opacity="0.8" fill="#FFFFFF" enable-background="new    " d="M79.149,46.804c3.333,0,6.034,2.701,6.034,6.038
				c0,3.333-2.701,6.034-6.034,6.034c-3.332,0-6.034-2.701-6.034-6.034C73.115,49.505,75.817,46.804,79.149,46.804z"/>
			<path opacity="0.8" fill="#FFFFFF" enable-background="new    " d="M34.311,40.254V79.2h59.379V40.254H34.311z M89.406,44.525
				v30.4l0,0l-13.774-9.782l-9.838,6.027L53.166,55.925l-14.588,19v-30.4H89.406z"/>
		</g>
	</g>
	<g>
		<rect x="21.271" y="7" opacity="0.8" fill="#FFFFFF" enable-background="new    " width="85.459" height="21.85"/>
		<g enable-background="new    ">
			<path fill="#0288D1" d="M53.964,12.236c-1.878,0-3.236,0.493-4.075,1.484c-0.838,0.994-1.254,2.349-1.254,4.067
				c0,0.835,0.104,1.596,0.312,2.275s0.52,1.266,0.928,1.755c0.416,0.494,0.936,0.872,1.552,1.143
				c0.623,0.271,1.351,0.404,2.174,0.404c0.453,0,0.832-0.007,1.158-0.022c0.312-0.019,0.594-0.048,0.839-0.1V17.32h4.03v8.431
				c-0.476,0.178-1.255,0.371-2.323,0.575c-1.076,0.204-2.39,0.308-3.964,0.308c-1.343,0-2.561-0.197-3.658-0.59
				c-1.092-0.393-2.026-0.965-2.806-1.718c-0.772-0.753-1.373-1.681-1.796-2.779c-0.424-1.095-0.639-2.349-0.639-3.759
				c0-1.425,0.237-2.687,0.705-3.781c0.46-1.099,1.099-2.03,1.907-2.791c0.816-0.761,1.767-1.34,2.865-1.733
				c1.091-0.393,2.256-0.59,3.503-0.59c0.846,0,1.604,0.056,2.286,0.16c0.683,0.107,1.269,0.23,1.767,0.371
				c0.489,0.137,0.891,0.282,1.209,0.43c0.319,0.145,0.55,0.26,0.69,0.342l-1.173,3.072c-0.549-0.278-1.18-0.52-1.899-0.724
				C55.589,12.336,54.81,12.236,53.964,12.236z"/>
			<path fill="#0288D1" d="M63.382,9.286h4.037v17.029h-4.037V9.286z"/>
			<path fill="#0288D1" d="M71.55,26.315V9.286h12.009v3.221h-7.972v3.563h7.096v3.218h-7.096v7.028H71.55z"/>
		</g>
	</g>
</g>
</svg>
