<?xml version="1.0" encoding="utf-8"?>
<!-- Generator: Adobe Illustrator 17.1.0, SVG Export Plug-In . SVG Version: 6.00 Build 0)  -->
<!DOCTYPE svg PUBLIC "-//W3C//DTD SVG 1.1//EN" "http://www.w3.org/Graphics/SVG/1.1/DTD/svg11.dtd" [
	<!ENTITY ns_extend "http://ns.adobe.com/Extensibility/1.0/">
	<!ENTITY ns_ai "http://ns.adobe.com/AdobeIllustrator/10.0/">
	<!ENTITY ns_graphs "http://ns.adobe.com/Graphs/1.0/">
	<!ENTITY ns_vars "http://ns.adobe.com/Variables/1.0/">
	<!ENTITY ns_imrep "http://ns.adobe.com/ImageReplacement/1.0/">
	<!ENTITY ns_sfw "http://ns.adobe.com/SaveForWeb/1.0/">
	<!ENTITY ns_custom "http://ns.adobe.com/GenericCustomNamespace/1.0/">
	<!ENTITY ns_adobe_xpath "http://ns.adobe.com/XPath/1.0/">
]>
<svg version="1.1"
	 id="svg2" xmlns:x="&ns_extend;" xmlns:i="&ns_ai;" xmlns:graph="&ns_graphs;" inkscape:version="0.48.4 r9939" sodipodi:docname="computer.svg" xmlns:dc="http://purl.org/dc/elements/1.1/" xmlns:sodipodi="http://sodipodi.sourceforge.net/DTD/sodipodi-0.dtd" xmlns:rdf="http://www.w3.org/1999/02/22-rdf-syntax-ns#" xmlns:svg="http://www.w3.org/2000/svg" xmlns:cc="http://creativecommons.org/ns#" xmlns:inkscape="http://www.inkscape.org/namespaces/inkscape"
	 xmlns="http://www.w3.org/2000/svg" xmlns:xlink="http://www.w3.org/1999/xlink" x="0px" y="0px" width="128px" height="128px"
	 viewBox="0 0 128 128" style="enable-background:new 0 0 128 128;" xml:space="preserve">
<metadata  id="metadata26">
	<rdf:RDF>
		<cc:Work  rdf:about="">
			<dc:format>image/svg+xml</dc:format>
			<dc:type  rdf:resource="http://purl.org/dc/dcmitype/StillImage"></dc:type>
		</cc:Work>
	</rdf:RDF>
	<sfw  xmlns="&ns_sfw;">
		<slices></slices>
		<sliceSourceBounds  height="124" width="95.4" x="374.3" y="531.6" bottomLeftOrigin="true"></sliceSourceBounds>
	</sfw>
</metadata>
<polygon style="opacity:8.000000e-002;enable-background:new    ;" points="18.3,128 18.3,4 113.7,4 113.7,93 78.7,128 "/>
<polygon style="opacity:0.1;enable-background:new    ;" points="20.3,126 20.3,6 111.7,6 111.7,92.2 77.9,126 "/>
<polygon style="opacity:0.2;enable-background:new    ;" points="18.3,124 18.3,4 109.7,4 109.7,90.2 75.9,124 "/>
<polygon style="fill:#0D47A1;" points="20.3,122 20.3,6 107.7,6 107.7,89.3 75,122 "/>
<g>
	<g>
		<g>
			<g>
				
					<linearGradient id="SVGID_1_" gradientUnits="userSpaceOnUse" x1="64" y1="799.55" x2="64" y2="685.55" gradientTransform="matrix(1 0 0 1 0 -678.55)">
					<stop  offset="0" style="stop-color:#3F51B5"/>
					<stop  offset="1" style="stop-color:#64B5F6"/>
				</linearGradient>
				<polygon style="fill:url(#SVGID_1_);" points="21.3,121 21.3,7 106.7,7 106.7,88.9 74.7,121 				"/>
			</g>
			<polygon style="fill:#2196F3;fill-opacity:0.7;" points="106.7,88.9 106.7,87.6 72.9,87.6 72.9,121 74.7,121 			"/>
			<path style="opacity:0.39;fill:#FFFFFF;enable-background:new    ;" d="M74.6,88.9h32.1l-32.1,32V88.9z"/>
		</g>
	</g>
</g>
<path style="opacity:0.8;fill:#FFFFFF;enable-background:new    ;" d="M79,32.9c-1.6,0-3,1.1-3.7,2.2h-15c0,0-3.6-0.3-6.8,1.2
	s-6.6,4.9-6.6,10.7c0,5.7,3.4,9.2,6.6,10.7c1.5,0.7,3,1,4.1,1.2v0.9l-5.9,5.6c-0.2-0.1-0.3-0.1-0.5-0.1c-1.2,0-2.1,0.9-2.1,2
	s0.9,2,2.1,2c1.2,0,2.1-0.9,2.1-2c0-0.2-0.1-0.3-0.1-0.5l5.9-5.6h7.1v-2h2.1c0,0,2.3,0.1,4.4,1.1c2.2,1,4.1,2.6,4.1,7s-2,6-4.1,7
	c-2.2,1-4.9,1.2-4.9,1.2h-15c-0.7-1.2-2.2-2.2-3.7-2.2c-2.4,0-4.3,1.8-4.3,4s1.9,4,4.3,4c1.6,0,3-1,3.7-2.2h15c0,0,3.6,0.3,6.8-1.2
	s6.6-4.9,6.6-10.7c0-5.7-3.4-9.2-6.6-10.7C71.4,55,68.3,55,68.3,55h-2.1v-0.6l5.9-5.6c0.2,0,0.3,0.1,0.5,0.1c1.2,0,2.1-0.9,2.1-2
	s-1-2-2.1-2s-2.1,0.9-2.1,2c0,0.2,0.1,0.3,0.1,0.5L64.7,53h-7.1v1.7c-0.7-0.2-1.5-0.4-2.3-0.8c-2.2-1-4.1-2.6-4.1-7s2-6,4.1-7
	c2.2-1,4.9-1.2,4.9-1.2h15C76,40,77.4,41,79,41c2.4,0,4.3-1.8,4.3-4C83.2,34.7,81.3,32.9,79,32.9z"/>
</svg>
