<?xml version="1.0" encoding="utf-8"?>
<!-- Generator: Adobe Illustrator 16.0.0, SVG Export Plug-In . SVG Version: 6.00 Build 0)  -->
<!DOCTYPE svg PUBLIC "-//W3C//DTD SVG 1.1//EN" "http://www.w3.org/Graphics/SVG/1.1/DTD/svg11.dtd">
<svg version="1.1" id="图层_1" xmlns="http://www.w3.org/2000/svg" xmlns:xlink="http://www.w3.org/1999/xlink" x="0px" y="0px"
	 width="128px" height="128px" viewBox="0 0 128 128" enable-background="new 0 0 128 128" xml:space="preserve">
<rect x="18.298" y="4" opacity="0.2" width="91.404" height="120"/>
<rect x="18.298" y="4" opacity="0.08" width="95.404" height="124"/>
<rect x="20.298" y="6" opacity="0.1" width="91.404" height="120"/>
<rect x="20.298" y="6" fill="#0D47A1" width="87.404" height="116"/>
<g>
	
		<linearGradient id="SVGID_1_" gradientUnits="userSpaceOnUse" x1="105.6006" y1="-156.8999" x2="105.6006" y2="-42.9004" gradientTransform="matrix(1 0 0 -1 -41.6001 -35.9004)">
		<stop  offset="0" style="stop-color:#1976D2"/>
		<stop  offset="0.0226" style="stop-color:#1C79D3"/>
		<stop  offset="0.2859" style="stop-color:#3B93E2"/>
		<stop  offset="0.5416" style="stop-color:#52A6ED"/>
		<stop  offset="0.7843" style="stop-color:#5FB1F4"/>
		<stop  offset="1" style="stop-color:#64B5F6"/>
	</linearGradient>
	<rect x="21.293" y="7" fill="url(#SVGID_1_)" width="85.414" height="114"/>
	<path fill="#64B5F6" d="M93.688,55.449c0,16.387-13.302,29.688-29.688,29.688S34.313,71.836,34.313,55.449S47.614,25.761,64,25.761
		S93.688,39.063,93.688,55.449z"/>
	<path fill="#FFFFFF" fill-opacity="0.8" d="M44.523,33.08c0,0,0.614,0.326,0.853,0.854c0.197,0.519,0.854,0.519,0.854,0.519h0.949
		l1.384-0.421l-0.334,0.755c0,0-7.269,3.369-5.801,5.368c1.479,1.996,0.955,2.516,0.955,3.139c0,0.615,0.429,0.09,0.429,0.09
		l0.43-1.137l0.615-0.853l0.614-0.949l0.197-0.528l0.853-1.468l1.045-0.618l0.949,0.618c0,0,0.423,0.186,0.328,0.52
		c-0.09,0.334-0.186,0.949-0.186,0.949s0.186,0.429,0.52,0.429s0.854-0.334,0.854-0.334l0.43,0.758l0.334,1.381l0.854,0.854
		l0.43,0.949l-0.43,0.853l0.43,0.334l0.954,1.047l0.185,0.52l-1.568-0.09c0,0-0.19-0.429-0.52-0.429
		c-0.334,0-1.659-0.095-1.659-0.095l-0.77,0.19l-0.418,0.52c0,0-0.53,0.854-0.864,0.854c-0.324,0-1.135-0.186-1.135-0.186
		s-0.614-0.191-0.948,0.424c-0.334,0.623,0.519,0.949,0.519,0.949l-1.468,0.432l-0.435,0.194c0,0-1.045,0.421-1.045,0.755
		s0,0.334,0,0.334l-0.329,0.854v0.519l-0.764,0.624l-0.757,0.519l-0.334,0.618v1.046c0,0-0.096,0.52-0.096,0.854s0,1.142,0,1.142
		s-0.334,0.334-0.52-0.334c-0.191-0.617-0.191-0.617-0.191-0.617l-0.334-0.764c0,0,0.334-0.09-0.09-0.424
		c-0.43-0.334-0.859-0.429-0.859-0.429s-0.185-0.186-0.62-0.186c-0.418,0,0.531,0.09-0.418,0c-0.955-0.095-0.955-0.095-0.955-0.095
		L35.877,54.5v0.52c0,0-0.187,3.711,0.854,4.23h0.43l0.62-0.949l0.524,0.191v0.424L38.21,59.68v0.424l0.519,0.527l0.334,0.949
		c0.43,0.758,0.19,0.951,0.52,1.137c0.334,0.191,0.62,0.763,0.62,0.763l0.425,0.186c0,0,0.334,0.095,0.614,0.193
		c0.334,0.095,0.334,0.095,0.334,0.095l0.102,0.475l0.096,0.379l0.423,0.52c0,0-0.328,0,0.43,0c0.759,0,0.759,0,0.759,0
		s0,0.193,0.524,0.432c0.52,0.186,0.096,0.096,0.52,0.186c0.43,0.096,1.146,0.191,1.146,0.191c0.752-0.096,0.752-0.096,0.752-0.096
		l0.53,0.764c0,0,0.324,0,0.425,0.328c0.095,0.334-0.521,0,0.095,0.334s0,0.096,0.615,0.334c0.614,0.238-0.186,0.191,0.614,0.191
		c0.812,0,0.949,0,1.283,0.09c0.334,0.096,0.53,0.859,0.53,0.859c0.615,0.758,0.615,0.758,0.615,0.758l0.096,0.949
		c0,0-0.334,0.195,0.424,0.195c0.764,0,0.191,0,0.764,0c0.566,0-0.096-0.195,0.519,0c0.615,0.186,0.615,0.186,0.615,0.186
		s0.955,0.764,1.289,0.764s0.949-0.096,1.283,0c0.334,0.09,0.519,0.615,1.134,0.758c0.625,0.096,0.858,0,1.283,0.334
		c0.43,0.334,0.43,0.334,0.43,0.334l0.101,1.135l-0.334,0.615l-0.854,0.334l-0.101,1.049l-0.429,1.045v0.52
		c0,0,0.529,0.43-0.425,0.525c-0.948,0.09-0.948,0.09-0.948,0.09l-0.43,0.43c0,0,0,0.095-0.19,0.434
		c-0.186,0.324-0.425,0.85-0.425,0.85l0.096,0.953v0.615l-0.334,0.52c0,0-0.291,0.148,0.52,0.668c0.854,0.52,1.521,0.52,1.712,0.854
		c0.186,0.334,0.716,0.615,0.716,0.615l-1.146-0.238l-0.709-0.234L54.5,83.668l-2.279-1.188c0,0-3.419-2.805-4.469-5.084
		c0,0-0.896-1.33-2.417-1.903c0,0-3.76-3.419-4.094-4.272l-0.137-0.572v-0.281l-0.144-0.148v-0.324l-0.096-0.238l0.053-1.044
		l0.043-0.716l0.048-0.377l-0.048-0.291c0,0-0.19-0.186-0.19-0.238c0-0.043-0.144-0.475-0.144-0.475l-0.043-0.141l0.573-0.475
		l-0.148-0.432l0.096-0.236l0.334-0.238c0,0,0.19-0.281,0.19-0.326c0-0.096-0.334-0.334-0.334-0.334l-0.138,0.045l-0.148,0.429
		h-0.186c0,0-0.196-0.096-0.196-0.141c0-0.053-0.186-0.239-0.186-0.239l-0.239-0.095c0,0-0.19-0.053-0.233-0.141
		c-0.053-0.098-0.291-0.239-0.291-0.289c0-0.045-0.186-0.334-0.186-0.334l-0.239-0.09c0,0-0.286-0.429-0.286-0.528
		c0-0.044-0.143-0.281-0.143-0.281s-0.334-0.379-0.334-0.432c0-0.043-0.144-0.377-0.144-0.377h-0.232l-0.52-0.193l-0.334-0.424
		l-0.382-0.429c0,0-0.191-0.334-0.191-0.425c0-0.095-0.143-0.193-0.143-0.193h-0.239h-0.138l-0.334-0.281l-0.853-1.188l-0.149-0.527
		l-0.144-0.57l-0.095-0.951v-0.615l-0.376-4.416C34.354,51.696,35.638,40.77,44.523,33.08z"/>
	<path fill="#FFFFFF" fill-opacity="0.8" d="M78.054,29.369l0.955,0.766l0.471,0.236l0.334,0.379l0.054,0.379
		c0,0,0.09,0.379,0.042,0.475c-0.042,0.095-0.096,0.615-0.096,0.615s0.43,0.767,0.43,0.862c0,0.09,0.048,0.52-0.048,0.617
		c-0.09,0.043-0.62,0.377-0.662,0.236c-0.054-0.141-0.377-0.475-0.478-0.475c-0.095-0.053-0.376-0.334-0.376-0.334l0.758-0.096
		l-0.095-0.477c0,0-0.521-0.186-0.663-0.186c-0.148-0.05-0.668-0.334-0.668-0.334l-0.573-0.141c0,0-0.949-0.235-1.044-0.289
		c-0.09-0.045-0.478-0.186-0.478-0.186h-0.8c0,0-0.387,0.186-0.478,0.281c-0.048,0.098-0.524,0.618-0.524,0.618
		s-0.043,0.615-0.043,0.712c0,0.096-0.144,0.334-0.144,0.615c0,0.289-0.053,0.668-0.053,0.764c0,0.098,0,0.238,0,0.238l-0.095,0.424
		l-0.329,0.19l-0.43,0.334c0,0-0.376,0.284-0.376,0.379c0,0.098,0,0.474,0.138,0.758c0.143,0.289,0.102,0.57,0.286,0.713
		c0.19,0.148,0.286,0.334,0.43,0.384c0.138,0.045,0.042,0.09,0.281,0.09c0.19,0,0.387,0.051,0.477-0.045
		c0.096-0.045,0.334-0.045,0.43-0.194c0.096-0.14-0.096-0.044,0.096-0.14c0.186-0.045,0.186-0.186,0.334-0.045
		c0.186,0.141,0.329,0.334,0.376,0.424c0.048,0.095,0.186,0.334,0.334,0.475c0.186,0.095,0.328,0.475,0.328,0.475l0.293,0.289
		c0,0,0.041,0.045,0.232,0.045c0.186,0,0.477-0.045,0.477-0.045l0.096-0.19c0,0,0.186,0.05,0.238-0.045
		c0.043-0.098,0.043-0.239,0.043-0.239s-0.096-0.289-0.19-0.378c-0.043-0.096-0.144-0.334-0.144-0.334l0.053-0.334l0.186-0.191
		l0.053-0.239v-0.281l-0.19-0.098l-0.334-0.186c0,0-0.185,0.045-0.185-0.194c-0.054-0.191-0.054-0.191-0.054-0.191l-0.424-0.09
		l-0.292-0.148l0.334-0.239c0.196-0.326,0.238-0.421,0.238-0.52c0-0.095-0.042-0.376-0.042-0.376s-0.196-0.053-0.196-0.292
		c-0.042-0.236-0.042-0.376-0.042-0.376l0.042-0.186c0,0,0.048-0.148,0.196-0.148c0.09,0,0.28,0.148,0.376,0.148
		s0.281,0.043,0.281,0.043s0.101,0.044,0.101,0.193c0,0.09-0.048,0.326-0.048,0.326l0.186-0.281v0.334l-0.042,0.379v0.379
		l0.186,0.376l0.19,0.292c0,0,0.239,0.236,0.334,0.334c0.096,0.042,0.334,0.236,0.334,0.236l0.281,0.14l0.196,0.045l0.186-0.186
		c0,0,0.334,0.045,0.334-0.051c0.042-0.098,0.042-0.098,0.042-0.098s0.388-0.045,0.478-0.045c0.095,0,0.286,0,0.286,0
		s0.143,0.284,0.048,0.284c-0.096,0-0.144,0.096-0.382,0.193c-0.232,0.043-0.334,0-0.376,0.096c-0.054,0.095-0.19,0.334-0.19,0.334
		l0.19,0.045h0.144l0.19,0.193c0,0,0.042,0.043,0,0.186c-0.054,0.14,0.185,0.095-0.054,0.14c-0.28,0.051-0.424-0.045-0.424-0.045
		s-0.047-0.238-0.19-0.141c-0.096,0.096-0.144,0.334-0.144,0.334v0.326l0.186,0.475c0,0,0.102,0.098,0,0.148
		c-0.085,0.045-0.419,0.425-0.419,0.425s-0.053,0.14-0.195,0.14c-0.096,0-0.239,0-0.473,0.053c-0.186,0.042-0.186,0.042-0.382,0.095
		c-0.19,0.045-0.334,0.09-0.615,0.141c-0.291,0.045-0.811,0.045-1.002,0.045c-0.185,0-0.238,0-0.328-0.045
		c-0.095-0.051-0.047,0-0.19-0.194c-0.144-0.186-0.281-0.334-0.281-0.474c0-0.095,0-0.141-0.053-0.334
		c-0.043-0.186-0.043-0.326-0.186-0.326c-0.191,0-0.191,0-0.191,0s-0.382,0.281-0.334,0.379c0.048,0.095-0.048,0,0.286,0.236
		c0.329,0.239,0.425,0.573,0.425,0.573l-0.043,0.326l-0.62,0.334l-0.43,0.141l-0.042,0.291c0,0,0,0.096-0.096,0.236
		c-0.101,0.141-0.334,0.334-0.334,0.334s-0.196,0.045-0.238,0.185c-0.048,0.099-0.196,0.475-0.196,0.475s-0.186-0.042-0.377,0.098
		c-0.185,0.141,0.054,0.141-0.375,0.334c-0.436,0.186-0.436,0.186-0.436,0.186l-0.472-0.045l-0.281,0.095
		c0,0-0.382,0.045-0.435,0.144c-0.042,0.095-0.233,0.376-0.233,0.376s-0.09,0.194,0,0.194c0.096,0.045,0.233,0,0.473,0.045
		c0.195,0.053,0.238,0.053,0.387,0.141c0.143,0.053,0.281,0.193,0.281,0.193l0.519,0.475l0.292,0.618l-0.054,0.474l-0.562,0.194
		c0,0-0.334,0-0.477,0c-0.096,0-0.053,0-0.626,0c-0.563,0-0.657,0-0.753,0c-0.101,0-0.478-0.053-0.478-0.053l-0.334,0.053
		l-0.238,0.186l-0.137,0.05c0,0,0.19,0.425,0.19,0.573c0,0.141,0,0.326,0,0.326l-0.054,0.289l-0.137,0.334l-0.197,0.326l0.054,0.193
		c0,0-0.054,0.141,0.042,0.141c0.102,0,0.382-0.043,0.382,0.053c0,0.09-0.239,0.475-0.239,0.475l0.478,0.09
		c0,0-0.048-0.045,0.233,0.051c0.291,0.044,0.478,0.143,0.478,0.143l0.334,0.235l0.095,0.194l0.096-0.194c0,0,0.52-0.044,0.62-0.095
		c0.096-0.045,0.334-0.045,0.334-0.045h0.419c0,0,0.102,0.045,0.196-0.053c0.042-0.087,0.042-0.087,0.042-0.087
		s0.478-0.193,0.572-0.289c0.096-0.045,0.144-0.334,0.144-0.334s0.149-0.09,0.149-0.186c0-0.098-0.102-0.334-0.102-0.334V47.42
		l0.143-0.185c0,0,0.043-0.053,0.191-0.194c0.143-0.14,0.143-0.14,0.143-0.14s-0.053-0.045,0.144-0.141
		c0.19-0.053,0.334-0.193,0.43-0.193c0.09,0-0.096,0.095,0.09,0c0.191-0.099,0.233-0.186,0.233-0.334
		c0-0.091,0.053-0.618,0.053-0.618l0.187-0.281l0.477,0.045l0.239,0.051c0,0,0.286,0.044,0.334-0.051
		c0.047-0.098,0.19-0.186,0.19-0.186L76.347,45c0,0-0.042-0.045,0.143-0.045c0.191,0,0.478,0,0.615,0c0.096,0,0.334,0,0.334,0
		s0.196,0.09,0.292,0.185c0.042,0.099,0.186,0.334,0.186,0.334l0.138,0.194h0.148c0.186,0.14,0.286,0.239,0.62,0.326
		c0.334,0.098,0.567,0.193,0.567,0.193s0.09,0.193,0.186,0.281c0.102,0.099,0.196,0.194,0.334,0.292
		c0.102,0.042,0.196,0.141,0.238,0.236c0.048,0.098,0.197,0.283,0.197,0.283l0.185,0.191l0.096-0.191v-0.334l-0.048-0.185
		c0,0-0.191-0.144,0.048-0.144c0.19,0,0.334,0,0.334,0l-0.196-0.289l-0.233-0.095l-0.334-0.239l-0.144-0.141l-0.143-0.045
		l-0.138-0.095l-0.196-0.14c0,0-0.334-0.053-0.334-0.194c-0.042-0.098-0.042-0.098-0.042-0.098l-0.334-0.042
		c0,0-0.334-0.194-0.334-0.284c0-0.096-0.043-0.384-0.043-0.384l-0.286-0.045c0,0,0.048-0.193,0.048-0.334
		c0-0.098,0.096-0.238,0.096-0.238l0.615-0.045l0.143,0.334l0.239,0.143l0.334,0.141l0.137,0.193l0.144,0.141
		c0,0,0.054,0.045,0.238,0.096c0.19,0.045,0.334,0.09,0.334,0.09s0.19,0.194,0.334,0.194c0.138,0.042,0.19,0.095,0.334,0.14
		c-0.101,0.095-0.101,0.095-0.101,0.095s0.048,0.099,0.196,0.194c0.138,0.09,0.281,0.281,0.281,0.379
		c0,0.095,0.095,0.421,0.19,0.475c0.091,0.045,0.144,0.045,0.329,0.239c0.19,0.185,0.19,0.376,0.334,0.475
		c0.19,0.044,0.334,0,0.334,0.185c0.042,0.193,0.042,0.334,0.042,0.334s0.148,0.05,0.249,0.05c0.091,0,0.281-0.191,0.281-0.191
		s0.191-0.283,0.042-0.334c-0.084-0.044-0.323-0.044-0.323-0.143c0-0.095,0-0.615,0-0.615l0.139-0.334l0.185-0.281l0.292,0.087
		l0.28-0.186l0.293,0.334l-0.096,0.379c0,0,0.042,0.239,0.185,0.424c0.096,0.191,0.334,0.43,0.334,0.43l0.473,0.429l0.668,0.186
		l0.143-0.043l0.991-0.193c0,0,0.149,0,0.238,0c0.096,0,0.573,0.809,0.573,0.809s0,0.334,0,0.52c0,0.193,0,0.668,0,0.668
		s-0.334,0.334-0.478,0.334c-0.137,0-0.519,0.186-0.519,0.186l-0.807,0.194l-0.52-0.045l-0.948-0.053c0,0-0.954-0.042-1.05-0.042
		s-0.43,0-0.524,0c-0.102,0-0.239,0.095-0.334,0.376c-0.091,0.284-0.287,0.379-0.287,0.379s0,0.141-0.19,0.141
		c-0.186,0-0.186,0.053-0.329-0.043c-0.148-0.098-0.806-0.238-0.806-0.238l-0.614-0.43l-0.334-0.283l-0.334-0.045h-0.955
		l-0.615-0.05l0.096-0.994l0.091,0.281l-0.187-0.66l-0.286-0.193l-0.663-0.141l-0.429,0.045l-0.573,0.14l-0.562,0.194l-0.334,0.095
		l-1.622,0.281l-0.567,0.239c0,0-0.238,0.141-0.328,0.193c-0.096,0.045-0.478,0.045-0.478,0.045s-0.286-0.045-0.429-0.098
		c-0.139-0.045-0.473-0.045-0.615-0.045c-0.144,0-0.43-0.042-0.525,0c-0.09,0.045-0.186,0.045-0.286,0.193
		c-0.096,0.141-0.43,0.52-0.43,0.52s-0.186,0.193-0.281,0.283c-0.041,0.096-0.28,0.385-0.28,0.385L69.03,51.51l-0.238,0.281
		l0.054,0.334v0.239c0,0-0.144,0.14-0.238,0.191c-0.096,0.044-0.286,0.143-0.286,0.143s-0.144,0.042-0.287,0.186
		c-0.138,0.095-0.138,0.148-0.233,0.236c-0.101,0.098-0.435,0.334-0.435,0.334s-0.186,0.14-0.323,0.289
		c-0.096,0.144-0.292,0.329-0.334,0.424c-0.053,0.095-0.196,0.194-0.292,0.238c-0.09,0.051-0.281,0.43-0.322,0.525
		c-0.054,0.09-0.334,0.52-0.334,0.52l-0.197,0.811l-0.042,0.376c0,0,0.042,0.144,0.138,0.239c0.102,0.095,0.196,0.475,0.196,0.475
		v0.334c0,0-0.095,0.283-0.148,0.379c-0.048,0.095,0.054,0.572,0.054,0.572v0.281c0,0,0,0.096-0.144,0.239
		c-0.149,0.14-0.19,0.334-0.19,0.334l0.19,0.429l0.144,0.281v0.193l0.185,0.326c0,0,0.096,0.099,0.19,0.194
		c0.096,0.045,0.144,0.045,0.334,0.193c0.187,0.09,0.187,0.09,0.187,0.09s0.291,0.334,0.291,0.475c0,0.096,0.186,0.289,0.186,0.289
		l0.334,0.334c0,0,0.048,0.186,0.233,0.326c0.196,0.149,0.382,0.239,0.478,0.334c0.096,0.053,0.376,0.29,0.614,0.334
		c0.197,0.045,0.292,0.099,0.388,0.099c0.09,0-0.149-0.292,0.519,0.042s1.093,0.478,1.093,0.478l0.472,0.19
		c0,0,0.769,0.045,0.854-0.05C72.218,64,72.354,64,72.45,64c0.102,0,0.334,0,0.53,0c0.186,0,0.854-0.095,0.854-0.095l0.758-0.284
		c0,0,0.233-0.14,0.334-0.193c0.096-0.042,0.377-0.236,0.473-0.281c0.095-0.053,0.572-0.053,0.572-0.053s0-0.141,0.185,0
		c0.191,0.149,0.191,0.193,0.239,0.292c0.054,0.095,0.054,0.334,0.19,0.334c0.144,0.042,0.478,0.14,0.478,0.14s0.472-0.053,0.615,0
		c0.143,0.045,0.477,0.045,0.477,0.045l0.139,0.19l0.053,0.424v0.387c0,0-0.053,0.141,0,0.281c0.042,0.141,0.186,0.379,0.186,0.379
		s-0.186,0.289-0.281,0.334s-0.334,0.334-0.334,0.334l0.668,0.617l0.377,0.377l0.28,0.334c0,0,0.054,0.138,0.054,0.238
		c0,0.096-0.054,0.334,0,0.473c0.048,0.095,0.048,0.477,0.048,0.477s0.047,0.281,0.047,0.381c0,0.096-0.095,0.568-0.095,0.568
		l-0.054,0.334l-0.186,0.572l-0.233,0.281l-0.334,0.334l-0.238,0.381l-0.048,0.52l-0.19,0.33c0,0,0.042,0.291,0.042,0.434
		c0,0.139,0.292,0.658,0.292,0.658l-0.053,0.434c0,0-0.187,0.615-0.187,0.754c0,0.148-0.138,0.339-0.138,0.477
		c0,0.096-0.053,0.53-0.053,0.53l0.053,0.519l0.186,0.525l-0.186,0.473c0,0-0.101,0.381-0.101,0.614c0,0.19,0.334,0.425,0.425,0.425
		c0.095,0,0.529-0.043,0.716-0.181c0.19-0.101,0.668-0.244,0.763-0.292c0.096-0.047,0.186,0.048,0.472-0.186
		c0.286-0.19,0.716-0.529,0.716-0.529s0.334-0.234,0.472-0.324c0.101-0.1,0.572-0.625,0.572-0.625s0.329-0.324,0.568-0.473
		c0.232-0.143,0-0.047,0.232-0.19c0.249-0.138,1.008-0.763,1.008-0.763l0.752-0.754c0,0,0.668-0.857,0.769-0.996
		c0.096-0.148,0.711-0.949,0.807-1.002c0.09-0.048,0.949-0.615,1.134-0.758c0.197-0.139,0.436-1.146,0.531-1.283
		c0.089-0.096,0.614-1.283,0.614-1.283l0.477-1.373l0.807-2.049l0.8-1.426c0,0,0.334-0.615,0.478-0.801
		c0.095-0.193,0.858-1.662,0.858-1.662l0.286-1.241l0.096-1.047h-0.478l-0.524,0.475l-0.478-0.141l-0.471,0.053l0.524-0.668
		l-0.143-0.519l-0.43-0.334l-0.572-0.854v-0.861l-0.615-0.994l-0.377-1.566c0,0-0.716-0.763-0.614-0.949
		c0.042-0.194,0.232-0.767,0.232-0.767l0.382,0.194c0,0,0.281,0.758,0.425,0.808c0.147,0.045,0.334,0.425,0.381,0.52
		c0.048,0.098,0.091,0.432,0.187,0.527c0.053,0.09,0.382,0.713,0.382,0.713s0.238,0.615,0.286,0.755
		c0.048,0.098,0.286,0.477,0.334,0.758c0.048,0.289,0.185,1.188,0.185,1.283c0,0.099,0.238,1.092,0.238,1.092
		s0.334-0.09,0.382-0.186c0.048-0.096,0.048-0.14,0.149-0.239c0.042-0.095,0.614-0.525,0.614-0.525l0.238-0.758
		c0,0,0.139-0.334,0.187-0.475c0.047-0.14,0.334-0.668,0.334-0.758c0-0.096-0.048-0.475,0-0.623c0.047-0.09,0.19-0.66,0.19-0.758
		c0-0.095,0.043-0.474,0.043-0.474l-0.043-0.854l0.377-0.474l0.195-0.528C93.646,51.746,92.262,36.828,78.054,29.369z"/>
</g>
</svg>
