<?xml version="1.0" encoding="utf-8"?>
<!-- Generator: Adobe Illustrator 16.0.0, SVG Export Plug-In . SVG Version: 6.00 Build 0)  -->
<!DOCTYPE svg PUBLIC "-//W3C//DTD SVG 1.1//EN" "http://www.w3.org/Graphics/SVG/1.1/DTD/svg11.dtd">
<svg version="1.1" id="图层_1" xmlns="http://www.w3.org/2000/svg" xmlns:xlink="http://www.w3.org/1999/xlink" x="0px" y="0px"
	 width="128px" height="128px" viewBox="0 0 128 128" enable-background="new 0 0 128 128" xml:space="preserve">
<polygon opacity="0.08" enable-background="new    " points="18.31,128 18.31,4 113.689,4 113.689,92.995 78.686,128 "/>
<polygon display="none" opacity="0.08" enable-background="new    " points="22.31,126 22.31,6 113.689,6 113.689,92.167 
	79.857,126 "/>
<polygon opacity="0.1" enable-background="new    " points="20.31,126 20.31,6 111.689,6 111.689,92.167 77.857,126 "/>
<polygon opacity="0.2" enable-background="new    " points="18.31,124 18.31,4 109.689,4 109.689,90.167 75.857,124 "/>
<polygon fill="#01579B" points="20.298,122 20.298,6 107.702,6 107.702,89.339 75.033,122 "/>
<g>
	<g>
		<g>
			<g>
				
					<linearGradient id="SVGID_1_" gradientUnits="userSpaceOnUse" x1="147.1953" y1="-575.8003" x2="147.1953" y2="-461.8008" gradientTransform="matrix(1 0 0 -1 -83.2002 -454.8008)">
					<stop  offset="0" style="stop-color:#2196F3"/>
					<stop  offset="0.5828" style="stop-color:#3DBAE8"/>
					<stop  offset="1" style="stop-color:#4DD0E1"/>
				</linearGradient>
				<polygon fill="url(#SVGID_1_)" points="21.289,121 21.289,7 106.699,7 106.699,88.938 74.637,121 				"/>
			</g>
			<polygon fill="#01579B" fill-opacity="0.39" points="106.699,88.938 106.699,87.557 72.878,87.557 72.878,121 74.637,121 			"/>
			<path fill="#FFFFFF" fill-opacity="0.3922" d="M74.593,88.938l32.114,0.045L74.637,121L74.593,88.938z"/>
		</g>
		<g>
			<path opacity="0.8" fill="#FFFFFF" enable-background="new    " d="M79.149,46.804c3.333,0,6.034,2.701,6.034,6.038
				c0,3.333-2.701,6.034-6.034,6.034c-3.332,0-6.034-2.701-6.034-6.034C73.115,49.505,75.817,46.804,79.149,46.804z"/>
			<path opacity="0.8" fill="#FFFFFF" enable-background="new    " d="M34.311,40.254V79.2h59.379V40.254H34.311z M89.406,44.525
				v30.4l0,0l-13.774-9.782l-9.838,6.027L53.166,55.925l-14.588,19v-30.4H89.406z"/>
		</g>
	</g>
	<g>
		<rect x="21.271" y="7" opacity="0.8" fill="#FFFFFF" enable-background="new    " width="85.459" height="21.85"/>
		<g enable-background="new    ">
			<path fill="#0288D1" d="M42.838,26.534c-0.979,0-1.959-0.029-2.932-0.089c-0.979-0.052-1.988-0.186-3.043-0.401V9.531
				c0.832-0.141,1.737-0.26,2.717-0.334s1.9-0.104,2.738-0.104c1.144,0,2.189,0.074,3.147,0.23c0.957,0.156,1.781,0.423,2.472,0.794
				c0.683,0.386,1.225,0.876,1.61,1.492c0.394,0.616,0.586,1.373,0.586,2.271c0,1.358-0.69,2.435-2.07,3.221
				c1.136,0.408,1.915,0.965,2.33,1.67c0.408,0.705,0.616,1.5,0.616,2.382c0,1.789-0.683,3.132-2.056,4.03
				C47.588,26.089,45.547,26.534,42.838,26.534z M40.797,15.966h1.967c1.24,0,2.131-0.148,2.665-0.445
				c0.534-0.312,0.802-0.794,0.802-1.47c0-0.683-0.282-1.173-0.832-1.447c-0.549-0.274-1.357-0.416-2.434-0.416
				c-0.342,0-0.713,0.007-1.106,0.007c-0.4,0.015-0.749,0.03-1.062,0.06V15.966z M40.797,18.89v4.409
				c0.29,0.03,0.609,0.052,0.958,0.067c0.341,0.022,0.72,0.022,1.136,0.022c1.209,0,2.182-0.164,2.924-0.49
				c0.742-0.326,1.113-0.935,1.113-1.811c0-0.787-0.312-1.351-0.936-1.692c-0.615-0.327-1.506-0.505-2.664-0.505H40.797z"/>
			<path fill="#0288D1" d="M59.003,9.286c0.312,0.542,0.676,1.209,1.076,2.004c0.408,0.794,0.831,1.655,1.27,2.583
				c0.445,0.92,0.883,1.871,1.313,2.835s0.839,1.87,1.217,2.731c0.379-0.861,0.787-1.766,1.218-2.731
				c0.438-0.965,0.868-1.915,1.313-2.835c0.438-0.928,0.861-1.789,1.27-2.583c0.411-0.794,0.768-1.462,1.079-2.004h3.667
				c0.178,1.128,0.341,2.397,0.489,3.8c0.148,1.396,0.268,2.857,0.386,4.372c0.104,1.514,0.208,3.036,0.313,4.557
				c0.089,1.521,0.178,2.961,0.237,4.297h-3.934c-0.045-1.647-0.119-3.451-0.193-5.403c-0.089-1.945-0.223-3.919-0.4-5.893
				c-0.312,0.683-0.653,1.447-1.039,2.286c-0.371,0.831-0.753,1.662-1.124,2.501s-0.735,1.64-1.076,2.397
				c-0.35,0.757-0.639,1.41-0.884,1.952h-2.82c-0.245-0.542-0.534-1.195-0.883-1.952c-0.342-0.757-0.705-1.559-1.076-2.397
				s-0.75-1.67-1.128-2.501c-0.379-0.839-0.728-1.604-1.039-2.286c-0.171,1.974-0.297,3.948-0.387,5.893
				c-0.089,1.952-0.155,3.755-0.207,5.403h-3.934c0.074-1.336,0.155-2.775,0.244-4.297c0.097-1.521,0.201-3.043,0.313-4.557
				s0.244-2.976,0.393-4.372c0.142-1.403,0.305-2.672,0.476-3.8H59.003z"/>
			<path fill="#0288D1" d="M82.831,9.093c2.672,0,4.72,0.445,6.16,1.336c1.425,0.891,2.138,2.36,2.138,4.387
				c0,2.048-0.713,3.525-2.168,4.431c-1.454,0.913-3.518,1.366-6.204,1.366H81.48v5.7h-4.023V9.531
				c0.876-0.163,1.797-0.274,2.791-0.341C81.228,9.123,82.089,9.093,82.831,9.093z M83.083,12.358c-0.282,0-0.579,0.008-0.86,0.03
				c-0.282,0.015-0.535,0.03-0.742,0.044v4.914h1.276c1.396,0,2.449-0.178,3.146-0.542c0.713-0.364,1.069-1.032,1.069-2.011
				c0-0.475-0.09-0.868-0.282-1.18c-0.179-0.312-0.431-0.564-0.772-0.75c-0.326-0.193-0.742-0.319-1.231-0.394
				C84.211,12.396,83.677,12.358,83.083,12.358z"/>
		</g>
	</g>
</g>
</svg>
