<?xml version="1.0" encoding="utf-8"?>
<!-- Generator: Adobe Illustrator 21.0.0, SVG Export Plug-In . SVG Version: 6.00 Build 0)  -->
<svg version="1.1" id="图层_1" xmlns="http://www.w3.org/2000/svg" xmlns:xlink="http://www.w3.org/1999/xlink" x="0px" y="0px"
	 viewBox="0 0 128 128" style="enable-background:new 0 0 128 128;" xml:space="preserve">
<style type="text/css">
	.st0{opacity:0.2;enable-background:new    ;}
	.st1{opacity:0.08;enable-background:new    ;}
	.st2{opacity:0.1;enable-background:new    ;}
	.st3{fill:url(#SVGID_1_);}
	.st4{fill:#B71C1C;fill-opacity:0.3922;}
	.st5{fill:#FFFFFF;fill-opacity:0.3922;}
	.st6{opacity:0.8;}
	.st7{fill:#FFFFFF;}
	.st8{fill:#B71C1C;}
</style>
<g id="surface1">
	<polygon class="st0" points="18.5,124 18.5,4 109.5,4 109.5,90.2 75.7,124 	"/>
	<polygon class="st1" points="18.5,128 18.5,4 113.5,4 113.5,93 78.5,128 	"/>
	<polygon class="st2" points="20.5,126 20.5,6 111.5,6 111.5,92.2 77.7,126 	"/>
	<g>
		
			<linearGradient id="SVGID_1_" gradientUnits="userSpaceOnUse" x1="272.0005" y1="-2349.9512" x2="272.0005" y2="-2233.9512" gradientTransform="matrix(1 0 0 -1 -208.0005 -2227.9512)">
			<stop  offset="0" style="stop-color:#512DA8"/>
			<stop  offset="8.000000e-03" style="stop-color:#D32F2F"/>
			<stop  offset="0.3041" style="stop-color:#E33932"/>
			<stop  offset="0.6579" style="stop-color:#F04035"/>
			<stop  offset="1" style="stop-color:#F44336"/>
		</linearGradient>
		<path class="st3" d="M74.9,122l32.6-32.6V6h-87v116H74.9z"/>
		<polygon class="st4" points="73.1,87.6 73.1,122 74.9,122 107.5,89.4 107.5,87.6 		"/>
		<path class="st5" d="M74.9,89.4h32.6L74.9,122V89.4z"/>
		<g class="st6">
			<path class="st7" d="M47.9,54.4c1.9,0.1,3.9,1.3,5.5,2.3c4.5,3,8.1,7.9,7.3,13.6c0.7-1.1,0.7-2.6,0.7-3.9c0-4-2.1-8.1-4.8-10.8
				c-0.9-0.9-1.8-2-3-2.6l13.3-15.8l3.2-3.8c0.2-0.3,1.1-1,0.9-1.4c-0.2-0.4-0.9-0.7-1.3-0.8c-0.4-0.2-1.1-0.6-1.6-0.4
				s-0.8,0.8-1.2,1.2l-2.5,2.9L52.9,48.4l-3.4,4C49,53,48.3,53.7,47.9,54.4z"/>
			<path class="st7" d="M40.4,59c4.6-4.9,8.6-10.3,13-15.4l5.5-6.6c1.3-1.5,2.8-2.9,3.8-4.6c-0.7-0.2-2.2-0.3-2.8,0
				c-0.7,0.3-1.2,1.3-1.7,1.8L55,37.9c-0.5,0.6-1,1.4-1.6,1.7c-0.9,0.5-2.6,0.3-3.6,0.3L46,40.3c-2.8,0.2-5.9,0.2-7.3,3.2
				c-1.1,2.4-0.9,5.8-1,8.4c-0.2,5.4-0.4,11,0.1,16.4c0.2,2.3,0,5.3,1.1,7.4c1.2,2,3.4,2.5,5.5,2.7c4.1,0.4,9,0.3,12.3-2.6
				c3.9-3.4,3.4-9.5-0.2-12.9C52.6,59.2,45.5,57.3,40.4,59z"/>
			<path class="st7" d="M54.2,78.8c0.8,0.3,2,0.2,2.8,0.2l5.1,0.1c6.5,0,12.9-0.4,19.4-0.7c3.1-0.1,6.6-0.3,7.8-3.7
				c0.8-2.2,0.7-5,0.8-7.3c0.4-5.3,0.5-10.8,0-16.1c-0.2-2.5,0.1-5.6-1-7.9c-1.7-3.6-6.7-3.3-10-3.4c-0.8,0-2.3-0.5-3.1-0.1
				c-0.6,0.3-0.9,1.7-1.2,2.3l-2.9,6.4c-3.5,7.6-6.7,15.4-10.4,22.9C60.2,74.5,57.6,78.2,54.2,78.8z"/>
		</g>
		<g>
			<path class="st8" d="M106.5,7v82l-32,32h-25h-28V7H106.5 M107.5,6h-87v116h29h25.4l32.6-32.6V6L107.5,6z"/>
		</g>
	</g>
</g>
</svg>
