<?xml version="1.0" encoding="utf-8"?>
<!-- Generator: Adobe Illustrator 16.0.0, SVG Export Plug-In . SVG Version: 6.00 Build 0)  -->
<!DOCTYPE svg PUBLIC "-//W3C//DTD SVG 1.1//EN" "http://www.w3.org/Graphics/SVG/1.1/DTD/svg11.dtd">
<svg version="1.1" id="图层_1" xmlns="http://www.w3.org/2000/svg" xmlns:xlink="http://www.w3.org/1999/xlink" x="0px" y="0px"
	 width="128px" height="128px" viewBox="0 0 128 128" enable-background="new 0 0 128 128" xml:space="preserve">
<polygon opacity="0.08" enable-background="new    " points="18.31,128 18.31,4 113.689,4 113.689,92.995 78.686,128 "/>
<polygon display="none" opacity="0.08" enable-background="new    " points="22.31,126 22.31,6 113.689,6 113.689,92.167 
	79.857,126 "/>
<polygon opacity="0.1" enable-background="new    " points="20.31,126 20.31,6 111.689,6 111.689,92.167 77.857,126 "/>
<polygon opacity="0.2" enable-background="new    " points="18.31,124 18.31,4 109.689,4 109.689,90.167 75.857,124 "/>
<polygon fill="#3E2723" points="20.298,122 20.298,6 107.702,6 107.702,89.34 75.033,122 "/>
<g>
	<g>
		
			<linearGradient id="SVGID_1_" gradientUnits="userSpaceOnUse" x1="105.6035" y1="-42.9004" x2="105.6035" y2="-156.9009" gradientTransform="matrix(1 0 0 -1 -41.6001 -35.9004)">
			<stop  offset="0" style="stop-color:#785548"/>
			<stop  offset="1" style="stop-color:#9F9E9F"/>
		</linearGradient>
		<polygon fill="url(#SVGID_1_)" points="21.298,121 21.298,7 106.709,7 106.709,88.893 74.959,121 		"/>
		<polygon fill="#795548" fill-opacity="0.7" points="106.709,88.938 106.709,87.557 72.895,87.557 72.895,121 74.646,121 		"/>
		<path opacity="0.39" fill="#FFFFFF" enable-background="new    " d="M74.602,88.938l32.107,0.045L74.646,121L74.602,88.938z"/>
	</g>
	<path fill="#FFFFFF" d="M51.817,28.976h-2.895v37.02H46.74v-37.02h-2.879v37.02h-2.182v-37.02h-2.88v37.02h-2.182v-37.02h-2.88
		v37.02H32.98v15.683h19.816V65.996h-0.98V28.976z M49.917,77.122H35.86V68.03h14.057V77.122z"/>
	<g>
		<rect x="21.276" y="7" opacity="0.8" fill="#FFFFFF" enable-background="new    " width="85.449" height="21.85"/>
		<g enable-background="new    ">
			<path fill="#5D4037" d="M42.465,26.664c-0.979,0-1.959-0.029-2.932-0.089c-0.979-0.056-1.989-0.189-3.043-0.404V9.657
				c0.832-0.145,1.737-0.256,2.716-0.331c0.98-0.074,1.9-0.111,2.739-0.111c1.143,0,2.189,0.078,3.147,0.234
				s1.781,0.423,2.472,0.798c0.683,0.378,1.225,0.872,1.61,1.488c0.394,0.616,0.586,1.373,0.586,2.271
				c0,1.362-0.69,2.434-2.071,3.221c1.136,0.408,1.915,0.965,2.331,1.67c0.408,0.705,0.616,1.499,0.616,2.382
				c0,1.789-0.683,3.132-2.056,4.03C47.215,26.211,45.174,26.664,42.465,26.664z M40.424,16.096h1.967
				c1.24,0,2.13-0.148,2.665-0.453c0.534-0.304,0.802-0.79,0.802-1.462c0-0.69-0.282-1.173-0.832-1.451s-1.358-0.416-2.434-0.416
				c-0.342,0-0.713,0.004-1.106,0.011c-0.401,0.007-0.75,0.03-1.062,0.06V16.096z M40.424,19.02v4.401
				c0.29,0.03,0.609,0.056,0.958,0.07c0.341,0.019,0.72,0.026,1.136,0.026c1.209,0,2.182-0.164,2.924-0.49
				c0.742-0.33,1.113-0.935,1.113-1.818c0-0.787-0.312-1.347-0.935-1.685c-0.616-0.334-1.506-0.505-2.665-0.505H40.424z"/>
			<path fill="#5D4037" d="M66.52,12.065c-0.549,0.542-1.203,1.243-1.959,2.104c-0.765,0.857-1.544,1.796-2.361,2.813
				c-0.809,1.013-1.61,2.063-2.404,3.143c-0.794,1.083-1.499,2.115-2.123,3.099h9.136v3.217H52.715v-2.286
				c0.475-0.835,1.069-1.763,1.767-2.787c0.698-1.024,1.425-2.056,2.182-3.099c0.765-1.039,1.536-2.044,2.315-3.021
				c0.787-0.976,1.514-1.848,2.189-2.616h-8.045V9.412H66.52V12.065z"/>
			<path fill="#5D4037" d="M69.652,9.412h4.037v17.029h-4.037V9.412z"/>
			<path fill="#5D4037" d="M83.203,9.215c2.672,0,4.721,0.449,6.16,1.34c1.426,0.894,2.146,2.356,2.146,4.386
				c0,2.048-0.721,3.525-2.176,4.435c-1.447,0.909-3.518,1.366-6.205,1.366h-1.268v5.7H77.83V9.657
				c0.877-0.164,1.805-0.278,2.791-0.342C81.602,9.249,82.461,9.215,83.203,9.215z M83.463,12.485c-0.289,0-0.586,0.007-0.867,0.026
				c-0.283,0.015-0.527,0.03-0.734,0.048v4.913h1.268c1.396,0,2.449-0.178,3.154-0.542c0.705-0.36,1.063-1.032,1.063-2.015
				c0-0.475-0.09-0.865-0.275-1.176c-0.178-0.312-0.438-0.564-0.779-0.75c-0.326-0.189-0.742-0.319-1.225-0.393
				S84.051,12.485,83.463,12.485z"/>
		</g>
	</g>
</g>
</svg>
