<?xml version="1.0" encoding="utf-8"?>
<!-- Generator: Adobe Illustrator 21.0.0, SVG Export Plug-In . SVG Version: 6.00 Build 0)  -->
<svg version="1.1"
	 id="svg2" inkscape:version="0.48.4 r9939" sodipodi:docname="computer.svg" xmlns:cc="http://creativecommons.org/ns#" xmlns:dc="http://purl.org/dc/elements/1.1/" xmlns:inkscape="http://www.inkscape.org/namespaces/inkscape" xmlns:rdf="http://www.w3.org/1999/02/22-rdf-syntax-ns#" xmlns:sodipodi="http://sodipodi.sourceforge.net/DTD/sodipodi-0.dtd" xmlns:svg="http://www.w3.org/2000/svg"
	 xmlns="http://www.w3.org/2000/svg" xmlns:xlink="http://www.w3.org/1999/xlink" x="0px" y="0px" viewBox="0 0 128 128"
	 style="enable-background:new 0 0 128 128;" xml:space="preserve">
<style type="text/css">
	.st0{opacity:0.08;enable-background:new    ;}
	.st1{opacity:0.1;enable-background:new    ;}
	.st2{opacity:0.2;enable-background:new    ;}
	.st3{fill:#0D47A1;}
	.st4{fill:url(#SVGID_1_);}
	.st5{fill:#2196F3;fill-opacity:0.7;}
	.st6{opacity:0.39;fill:#FFFFFF;enable-background:new    ;}
	.st7{opacity:0.8;fill:#FFFFFF;enable-background:new    ;}
	.st8{fill:#1976D2;}
</style>
<polygon class="st0" points="18.3,128 18.3,4 113.7,4 113.7,93 78.7,128 "/>
<polygon class="st1" points="20.3,126 20.3,6 111.7,6 111.7,92.2 77.9,126 "/>
<polygon class="st2" points="18.3,124 18.3,4 109.7,4 109.7,90.2 75.9,124 "/>
<polygon class="st3" points="20.3,122 20.3,6 107.7,6 107.7,89.3 75,122 "/>
<g>
	<g>
		<g>
			<g>
				
					<linearGradient id="SVGID_1_" gradientUnits="userSpaceOnUse" x1="64" y1="866.28" x2="64" y2="752.28" gradientTransform="matrix(1 0 0 1 0 -745.28)">
					<stop  offset="0" style="stop-color:#3F51B5"/>
					<stop  offset="1" style="stop-color:#64B5F6"/>
				</linearGradient>
				<polygon class="st4" points="21.3,121 21.3,7 106.7,7 106.7,88.9 74.7,121 				"/>
			</g>
			<polygon class="st5" points="106.7,88.9 106.7,87.6 72.9,87.6 72.9,121 74.7,121 			"/>
			<path class="st6" d="M74.6,88.9h32.1l-32.1,32V88.9z"/>
		</g>
	</g>
	<g>
		<rect x="21.3" y="7" class="st7" width="85.5" height="21.9"/>
	</g>
</g>
<g>
	<polygon class="st7" points="44.9,39.8 59.4,39.8 59.4,36.2 41.4,36.2 41.4,54.3 44.9,54.3 	"/>
	<polygon class="st7" points="68.5,36.2 68.5,39.8 83,39.8 83,54.3 86.5,54.3 86.5,36.2 	"/>
	<polygon class="st7" points="86.5,63.3 83,63.3 83,77.8 68.5,77.8 68.5,81.4 86.5,81.4 	"/>
	<polygon class="st7" points="44.9,77.8 44.9,63.3 41.4,63.3 41.4,81.4 59.4,81.4 59.4,77.8 	"/>
</g>
<g>
	<g>
		<path class="st8" d="M52.4,17.9c0,1.5-0.2,2.7-0.7,3.9c-0.4,1.1-1,2-1.8,2.8c-0.8,0.7-1.7,1.3-2.7,1.7s-2.2,0.6-3.4,0.6
			s-2.3-0.2-3.3-0.6s-1.9-0.9-2.7-1.7c-0.8-0.7-1.4-1.7-1.8-2.8c-0.4-1.1-0.7-2.4-0.7-3.9s0.2-2.7,0.7-3.9c0.5-1.1,1.1-2,1.9-2.8
			s1.7-1.3,2.7-1.7s2.1-0.6,3.2-0.6c1.2,0,2.3,0.2,3.3,0.6c1,0.4,1.9,0.9,2.7,1.7s1.4,1.7,1.8,2.8C52.2,15.2,52.4,16.5,52.4,17.9z
			 M39.3,17.9c0,0.8,0.1,1.6,0.3,2.3c0.2,0.7,0.5,1.3,0.9,1.7s0.9,0.9,1.4,1.1s1.2,0.4,1.9,0.4s1.3-0.1,1.9-0.4s1-0.6,1.4-1.1
			s0.7-1.1,0.9-1.7c0.2-0.7,0.3-1.4,0.3-2.3s-0.1-1.6-0.3-2.3s-0.5-1.3-0.9-1.7c-0.4-0.5-0.9-0.9-1.4-1.1s-1.2-0.4-1.9-0.4
			s-1.4,0.1-1.9,0.4s-1,0.6-1.4,1.1s-0.7,1.1-0.9,1.7C39.4,16.3,39.3,17.1,39.3,17.9z"/>
		<path class="st8" d="M70.5,17.9c0,1.5-0.2,2.8-0.7,3.9s-1.1,2-2,2.7c-0.8,0.7-1.9,1.3-3.1,1.6c-1.2,0.4-2.6,0.5-4.1,0.5
			c-0.7,0-1.5,0-2.4-0.1s-1.8-0.2-2.7-0.4V9.6c0.9-0.2,1.8-0.3,2.8-0.3c1-0.1,1.8-0.1,2.5-0.1c1.5,0,2.8,0.2,4,0.5
			c1.2,0.3,2.2,0.8,3.1,1.6c0.9,0.7,1.5,1.6,2,2.7S70.5,16.4,70.5,17.9z M59.4,23.3c0.2,0,0.4,0,0.6,0s0.5,0,0.9,0
			c1.9,0,3.3-0.5,4.3-1.5c0.9-1,1.4-2.3,1.4-4c0-1.8-0.4-3.1-1.3-4.1c-0.9-0.9-2.3-1.4-4.2-1.4c-0.3,0-0.5,0-0.8,0s-0.5,0-0.8,0.1
			v10.9H59.4z"/>
		<path class="st8" d="M78.3,9.4c0.3,0.5,0.6,1.2,1,2s0.8,1.7,1.2,2.6c0.4,0.9,0.8,1.9,1.2,2.8c0.4,1,0.8,1.9,1.2,2.7
			c0.4-0.9,0.7-1.8,1.2-2.7c0.4-1,0.8-1.9,1.2-2.8c0.4-0.9,0.8-1.8,1.2-2.6c0.4-0.8,0.7-1.5,1-2H91c0.2,1.1,0.3,2.4,0.5,3.8
			c0.1,1.4,0.3,2.9,0.4,4.4s0.2,3,0.3,4.6c0.1,1.5,0.2,3,0.2,4.3h-3.7c0-1.7-0.1-3.5-0.2-5.4c-0.1-2-0.2-3.9-0.4-5.9
			c-0.3,0.7-0.6,1.5-1,2.3S86.4,19.2,86,20s-0.7,1.6-1,2.4s-0.6,1.4-0.8,2h-2.7c-0.2-0.5-0.5-1.2-0.8-2s-0.7-1.6-1-2.4
			c-0.4-0.8-0.7-1.7-1.1-2.5s-0.7-1.6-1-2.3c-0.2,2-0.3,4-0.4,5.9c-0.1,2-0.1,3.8-0.2,5.4h-3.7c0.1-1.3,0.1-2.8,0.2-4.3
			s0.2-3.1,0.3-4.6s0.2-3,0.4-4.4s0.3-2.7,0.5-3.8C74.7,9.4,78.3,9.4,78.3,9.4z"/>
	</g>
</g>
</svg>
