<?xml version="1.0" encoding="utf-8"?>
<!-- Generator: Adobe Illustrator 16.0.0, SVG Export Plug-In . SVG Version: 6.00 Build 0)  -->
<!DOCTYPE svg PUBLIC "-//W3C//DTD SVG 1.1//EN" "http://www.w3.org/Graphics/SVG/1.1/DTD/svg11.dtd">
<svg version="1.1" id="图层_1" xmlns="http://www.w3.org/2000/svg" xmlns:xlink="http://www.w3.org/1999/xlink" x="0px" y="0px"
	 width="128px" height="128px" viewBox="0 0 128 128" enable-background="new 0 0 128 128" xml:space="preserve">
<polygon opacity="0.08" enable-background="new    " points="18.31,128 18.31,4 113.689,4 113.689,92.995 78.686,128 "/>
<polygon display="none" opacity="0.08" enable-background="new    " points="22.31,126 22.31,6 113.689,6 113.689,92.167 
	79.857,126 "/>
<polygon opacity="0.1" enable-background="new    " points="20.31,126 20.31,6 111.689,6 111.689,92.167 77.857,126 "/>
<polygon opacity="0.2" enable-background="new    " points="18.31,124 18.31,4 109.689,4 109.689,90.167 75.857,124 "/>
<polygon fill="#3E2723" points="20.298,122 20.298,6 107.702,6 107.702,89.34 75.033,122 "/>
<g>
	<g>
		
			<linearGradient id="SVGID_1_" gradientUnits="userSpaceOnUse" x1="105.6035" y1="-42.9004" x2="105.6035" y2="-156.9009" gradientTransform="matrix(1 0 0 -1 -41.6001 -35.9004)">
			<stop  offset="0" style="stop-color:#785548"/>
			<stop  offset="1" style="stop-color:#9F9E9F"/>
		</linearGradient>
		<polygon fill="url(#SVGID_1_)" points="21.298,121 21.298,7 106.709,7 106.709,88.893 74.959,121 		"/>
		<polygon fill="#795548" fill-opacity="0.7" points="106.709,88.938 106.709,87.557 72.895,87.557 72.895,121 74.646,121 		"/>
		<path opacity="0.39" fill="#FFFFFF" enable-background="new    " d="M74.602,88.938l32.107,0.045L74.646,121L74.602,88.938z"/>
	</g>
	<path fill="#FFFFFF" d="M51.817,28.976h-2.895v37.02H46.74v-37.02h-2.879v37.02h-2.182v-37.02h-2.88v37.02h-2.182v-37.02h-2.88
		v37.02H32.98v15.683h19.816V65.996h-0.98V28.976z M49.917,77.122H35.86V68.03h14.057V77.122z"/>
	<g>
		<rect x="21.276" y="7" opacity="0.8" fill="#FFFFFF" enable-background="new    " width="85.449" height="21.85"/>
		<g enable-background="new    ">
			<path fill="#5D4037" d="M54.882,9.449v3.266h-5.411v13.76h-4.03v-13.76h-5.41V9.449H54.882z"/>
			<path fill="#5D4037" d="M65.621,12.396c-1.884,0-3.236,0.498-4.082,1.484c-0.831,0.995-1.247,2.353-1.247,4.067
				c0,0.839,0.104,1.596,0.312,2.278c0.208,0.676,0.52,1.262,0.921,1.752c0.415,0.497,0.935,0.875,1.559,1.143
				c0.623,0.275,1.351,0.408,2.167,0.408c0.461,0,0.832-0.007,1.158-0.022c0.313-0.022,0.594-0.052,0.846-0.104v-5.923h4.023v8.432
				c-0.475,0.178-1.248,0.371-2.316,0.579c-1.084,0.201-2.389,0.304-3.963,0.304c-1.351,0-2.568-0.193-3.667-0.586
				c-1.083-0.394-2.019-0.965-2.806-1.722c-0.771-0.75-1.365-1.677-1.796-2.776c-0.416-1.098-0.638-2.353-0.638-3.763
				c0-1.425,0.238-2.687,0.712-3.778c0.46-1.098,1.099-2.034,1.9-2.791c0.816-0.765,1.767-1.343,2.864-1.737
				c1.099-0.393,2.257-0.586,3.503-0.586c0.846,0,1.604,0.052,2.285,0.156c0.684,0.111,1.277,0.23,1.768,0.371
				c0.49,0.141,0.891,0.282,1.217,0.43c0.313,0.148,0.549,0.26,0.684,0.341l-1.174,3.073c-0.549-0.274-1.172-0.52-1.9-0.72
				C67.24,12.5,66.467,12.396,65.621,12.396z"/>
			<path fill="#5D4037" d="M87.68,12.099c-0.549,0.542-1.203,1.247-1.959,2.108c-0.773,0.854-1.545,1.796-2.361,2.813
				c-0.816,1.009-1.617,2.063-2.404,3.14c-0.801,1.083-1.5,2.115-2.123,3.102h9.129v3.214H73.875v-2.286
				c0.475-0.831,1.068-1.759,1.766-2.783c0.697-1.024,1.426-2.056,2.182-3.102c0.758-1.039,1.529-2.041,2.316-3.021
				c0.787-0.972,1.514-1.848,2.182-2.612h-8.045V9.449H87.68V12.099z"/>
		</g>
	</g>
</g>
</svg>
