<?xml version="1.0" encoding="utf-8"?>
<!-- Generator: Adobe Illustrator 16.0.0, SVG Export Plug-In . SVG Version: 6.00 Build 0)  -->
<!DOCTYPE svg PUBLIC "-//W3C//DTD SVG 1.1//EN" "http://www.w3.org/Graphics/SVG/1.1/DTD/svg11.dtd">
<svg version="1.1" id="图层_1" xmlns="http://www.w3.org/2000/svg" xmlns:xlink="http://www.w3.org/1999/xlink" x="0px" y="0px"
	 width="128px" height="128px" viewBox="0 0 128 128" enable-background="new 0 0 128 128" xml:space="preserve">
<polygon opacity="0.08" enable-background="new    " points="18.31,128 18.31,4 113.689,4 113.689,92.995 78.686,128 "/>
<polygon display="none" opacity="0.08" enable-background="new    " points="22.31,126 22.31,6 113.689,6 113.689,92.167 
	79.857,126 "/>
<polygon opacity="0.1" enable-background="new    " points="20.31,126 20.31,6 111.689,6 111.689,92.167 77.857,126 "/>
<polygon opacity="0.2" enable-background="new    " points="18.31,124 18.31,4 109.689,4 109.689,90.167 75.857,124 "/>
<polygon fill="#01579B" points="20.298,122 20.298,6 107.702,6 107.702,89.339 75.033,122 "/>
<g>
	<g>
		<g>
			<g>
				
					<linearGradient id="SVGID_1_" gradientUnits="userSpaceOnUse" x1="147.1953" y1="-575.8003" x2="147.1953" y2="-461.8008" gradientTransform="matrix(1 0 0 -1 -83.2002 -454.8008)">
					<stop  offset="0" style="stop-color:#2196F3"/>
					<stop  offset="0.5828" style="stop-color:#3DBAE8"/>
					<stop  offset="1" style="stop-color:#4DD0E1"/>
				</linearGradient>
				<polygon fill="url(#SVGID_1_)" points="21.289,121 21.289,7 106.699,7 106.699,88.938 74.637,121 				"/>
			</g>
			<polygon fill="#01579B" fill-opacity="0.39" points="106.699,88.938 106.699,87.557 72.878,87.557 72.878,121 74.637,121 			"/>
			<path fill="#FFFFFF" fill-opacity="0.3922" d="M74.593,88.938l32.114,0.045L74.637,121L74.593,88.938z"/>
		</g>
		<g>
			<path opacity="0.8" fill="#FFFFFF" enable-background="new    " d="M79.149,46.804c3.333,0,6.034,2.701,6.034,6.038
				c0,3.333-2.701,6.034-6.034,6.034c-3.332,0-6.034-2.701-6.034-6.034C73.115,49.505,75.817,46.804,79.149,46.804z"/>
			<path opacity="0.8" fill="#FFFFFF" enable-background="new    " d="M34.311,40.254V79.2h59.379V40.254H34.311z M89.406,44.525
				v30.4l0,0l-13.774-9.782l-9.838,6.027L53.166,55.925l-14.588,19v-30.4H89.406z"/>
		</g>
	</g>
	<g>
		<rect x="21.271" y="7" opacity="0.8" fill="#FFFFFF" enable-background="new    " width="85.459" height="21.85"/>
		<g enable-background="new    ">
			<path fill="#0288D1" d="M53.173,9.286v3.269h-5.406v13.76h-4.034v-13.76h-5.406V9.286H53.173z"/>
			<path fill="#0288D1" d="M63.901,12.236c-1.87,0-3.235,0.493-4.067,1.484c-0.838,0.994-1.254,2.349-1.254,4.067
				c0,0.835,0.097,1.596,0.305,2.275c0.207,0.679,0.52,1.266,0.935,1.755c0.416,0.494,0.936,0.872,1.552,1.143
				c0.623,0.271,1.343,0.404,2.174,0.404c0.445,0,0.832-0.007,1.15-0.022c0.319-0.019,0.602-0.048,0.839-0.1V17.32h4.041v8.431
				c-0.489,0.178-1.262,0.371-2.334,0.575c-1.068,0.204-2.39,0.308-3.956,0.308c-1.343,0-2.561-0.197-3.658-0.59
				c-1.099-0.393-2.034-0.965-2.806-1.718c-0.775-0.753-1.377-1.681-1.8-2.779c-0.423-1.095-0.635-2.349-0.635-3.759
				c0-1.425,0.233-2.687,0.701-3.781c0.464-1.099,1.103-2.03,1.911-2.791c0.816-0.761,1.767-1.34,2.865-1.733
				c1.091-0.393,2.256-0.59,3.503-0.59c0.846,0,1.604,0.056,2.286,0.16c0.683,0.107,1.262,0.23,1.759,0.371
				c0.486,0.137,0.901,0.282,1.213,0.43c0.327,0.145,0.55,0.26,0.684,0.342l-1.158,3.072c-0.553-0.278-1.191-0.52-1.903-0.724
				C65.534,12.336,64.748,12.236,63.901,12.236z"/>
			<path fill="#0288D1" d="M85.354,26.315c-0.208-0.59-0.416-1.199-0.653-1.822c-0.223-0.623-0.46-1.247-0.683-1.863h-7.007
				c-0.223,0.62-0.445,1.243-0.668,1.867c-0.237,0.624-0.445,1.232-0.638,1.818H71.52c0.668-1.833,1.307-3.529,1.915-5.088
				c0.608-1.555,1.202-3.021,1.781-4.397c0.579-1.376,1.144-2.683,1.707-3.918c0.564-1.236,1.144-2.446,1.752-3.625h3.829
				c0.579,1.18,1.158,2.39,1.737,3.625c0.563,1.236,1.143,2.542,1.722,3.918c0.579,1.377,1.173,2.843,1.781,4.397
				c0.608,1.559,1.247,3.255,1.93,5.088H85.354z M80.5,13.146c-0.089,0.245-0.223,0.583-0.4,1.009
				c-0.163,0.427-0.371,0.917-0.579,1.473c-0.223,0.561-0.475,1.173-0.742,1.844c-0.282,0.672-0.563,1.373-0.846,2.112h5.136
				c-0.282-0.739-0.549-1.444-0.802-2.119c-0.252-0.672-0.505-1.288-0.728-1.844c-0.237-0.561-0.445-1.05-0.608-1.477
				C80.753,13.721,80.604,13.387,80.5,13.146z"/>
		</g>
	</g>
</g>
</svg>
