<?xml version="1.0" encoding="utf-8"?>
<!-- Generator: Adobe Illustrator 16.0.0, SVG Export Plug-In . SVG Version: 6.00 Build 0)  -->
<!DOCTYPE svg PUBLIC "-//W3C//DTD SVG 1.1//EN" "http://www.w3.org/Graphics/SVG/1.1/DTD/svg11.dtd">
<svg version="1.1" id="图层_1" xmlns="http://www.w3.org/2000/svg" xmlns:xlink="http://www.w3.org/1999/xlink" x="0px" y="0px"
	 width="128px" height="128px" viewBox="0 0 128 128" enable-background="new 0 0 128 128" xml:space="preserve">
<g id="surface1">
	<polygon opacity="0.2" enable-background="new    " points="18.5,124 18.5,4 109.5,4 109.5,90.203 75.703,124 	"/>
	<polygon opacity="0.08" enable-background="new    " points="18.5,128 18.5,4 113.5,4 113.5,93.031 78.531,128 	"/>
	<polygon opacity="0.1" enable-background="new    " points="20.5,126 20.5,6 111.5,6 111.5,92.203 77.703,126 	"/>
	<g>
		
			<linearGradient id="SVGID_1_" gradientUnits="userSpaceOnUse" x1="230.4004" y1="1675.9609" x2="230.4004" y2="1559.9609" gradientTransform="matrix(1 0 0 1 -166.4004 -1553.9609)">
			<stop  offset="0" style="stop-color:#512DA8"/>
			<stop  offset="0.008" style="stop-color:#D32F2F"/>
			<stop  offset="0.3041" style="stop-color:#E33932"/>
			<stop  offset="0.6579" style="stop-color:#F04035"/>
			<stop  offset="1" style="stop-color:#F44336"/>
		</linearGradient>
		<path fill="url(#SVGID_1_)" d="M74.875,122L107.5,89.375V6h-87v116H74.875z"/>
		<polygon fill="#B71C1C" fill-opacity="0.3922" points="73.063,87.563 73.063,122 74.875,122 107.5,89.375 107.5,87.563 		"/>
		<path fill="#FFFFFF" fill-opacity="0.3922" d="M74.875,89.375h32.598L74.875,122V89.375z"/>
		<g opacity="0.8">
			<path fill="#FFFFFF" d="M60.867,30.8c0,0,1.671,15.393-10.125,35.728c-11.795,20.32-15.264,17.586-16.496,16.891
				c-1.246-0.707-2.846-3,2.393-7.574c5.226-4.574,7.265-4.488,7.265-4.488s-4.786,2.902-6.642,5.719
				c-1.869,2.82-3.369,4.574-2.931,5.367s5.792-3.242,8.001-6.668c3.525-5.453,10.181-15.591,13.281-25.263
				C58.715,40.825,60.867,30.8,60.867,30.8z"/>
			<path fill="#FFFFFF" d="M89.938,66.426c0,0-0.27,0.711-3.369,0.453c-3.102-0.266-15.166-4.048-21.637-11.794
				c-6.472-7.746-7.01-18.395-7.449-23.931c-0.453-5.536,2.012-3.993,2.365-3.3c0.553,0.468,0.821,1.982,0.821,1.982
				s-0.198-2.266-1.175-3.242c-0.978-0.963-1.842-0.977-2.818,0.693c-0.977,1.672-1.416,6.33-0.623,10.818
				c0.807,4.489,4.092,14.783,8.17,19.527c4.078,4.758,12.234,8.894,18.268,10.124c6.031,1.234,7.447-1.316,7.447-1.316V66.426z"/>
			<path fill="#FFFFFF" d="M50.644,68.453c0,0,11.71-3.782,22.798-4.829c11.088-1.063,14.91,0.084,15.873,0.877
				c0.979,0.792,0.979,1.671,0.979,1.671s1.246-1.231,0.424-2.478c-0.693-1.303-1.756-2.365-10.535-2.096
				c-8.779,0.256-9.402,0.609-17.474,2.109C54.637,65.211,50.644,68.453,50.644,68.453z"/>
		</g>
		<g>
			<path fill="#B71C1C" d="M106.5,7v81.961L74.461,121H49.5h-28V7H106.5 M107.5,6h-87v116h29h25.375L107.5,89.375V6L107.5,6z"/>
		</g>
	</g>
</g>
</svg>
