<?xml version="1.0" encoding="utf-8"?>
<!-- Generator: Adobe Illustrator 21.0.0, SVG Export Plug-In . SVG Version: 6.00 Build 0)  -->
<svg version="1.1" id="图层_1" xmlns="http://www.w3.org/2000/svg" xmlns:xlink="http://www.w3.org/1999/xlink" x="0px" y="0px"
	 viewBox="0 0 128 128" style="enable-background:new 0 0 128 128;" xml:space="preserve">
<style type="text/css">
	.st0{opacity:0.2;enable-background:new    ;}
	.st1{opacity:0.08;enable-background:new    ;}
	.st2{opacity:0.1;enable-background:new    ;}
	.st3{fill:url(#SVGID_1_);}
	.st4{fill:#EE6F0B;fill-opacity:0.3922;}
	.st5{fill:#FFFFFF;fill-opacity:0.3922;}
	.st6{opacity:0.8;fill:#FFFFFF;enable-background:new    ;}
	.st7{fill:#EE6F0B;}
</style>
<g id="surface1">
	<polygon class="st0" points="18.5,124 18.5,4 109.5,4 109.5,90.2 75.7,124 	"/>
	<polygon class="st1" points="18.5,128 18.5,4 113.5,4 113.5,93 78.5,128 	"/>
	<polygon class="st2" points="20.5,126 20.5,6 111.5,6 111.5,92.2 77.7,126 	"/>
	<g>
		
			<linearGradient id="SVGID_1_" gradientUnits="userSpaceOnUse" x1="230.4004" y1="2337.9609" x2="230.4004" y2="2221.9609" gradientTransform="matrix(1 0 0 1 -166.4004 -2215.9609)">
			<stop  offset="0" style="stop-color:#F57C00"/>
			<stop  offset="0.099" style="stop-color:#F78B0C"/>
			<stop  offset="0.3289" style="stop-color:#FAA823"/>
			<stop  offset="0.5576" style="stop-color:#FDBC33"/>
			<stop  offset="0.7827" style="stop-color:#FEC93D"/>
			<stop  offset="1" style="stop-color:#FFCD40"/>
		</linearGradient>
		<path class="st3" d="M74.9,122l32.6-32.6V6h-87v116H74.9z"/>
		<polygon class="st4" points="73.1,87.6 73.1,122 74.9,122 107.5,89.4 107.5,87.6 		"/>
		<path class="st5" d="M74.9,89.4h32.6L74.9,122V89.4z"/>
		<path class="st6" d="M64,27.7c-2,0-3.6,1.1-4.4,2.7c-1.5-1-3.6-1.2-5.3-0.3c-1.7,0.9-2.6,2.7-2.4,4.4c-1.8-0.2-3.7,0.7-4.7,2.3
			s-0.8,3.6,0.3,5c-1.7,0.7-2.9,2.3-2.9,4.2s1.2,3.4,2.9,4.2c-1.1,1.4-1.3,3.4-0.3,5s2.9,2.4,4.7,2.3c-0.2,1.7,0.7,3.5,2.4,4.4
			c0.8,0.4,1.6,0.6,2.4,0.6V82l7.3-6.9l7.3,6.9V62.6c0.8,0,1.7-0.2,2.4-0.6c1.7-0.9,2.6-2.7,2.4-4.4c1.8,0.2,3.7-0.7,4.7-2.3
			s0.8-3.6-0.3-5c1.7-0.7,2.9-2.3,2.9-4.2s-1.2-3.4-2.9-4.2c1.1-1.4,1.3-3.4,0.3-5s-2.9-2.5-4.7-2.3c0.2-1.7-0.7-3.5-2.4-4.4
			c-1.7-0.9-3.8-0.8-5.3,0.3C67.6,28.9,66,27.7,64,27.7z M64,34.6c6.7,0,12.1,5.1,12.1,11.5c0,6.3-5.4,11.5-12.1,11.5
			S51.9,52.4,51.9,46C51.9,39.7,57.3,34.6,64,34.6z M64,36.9c-5.3,0-9.7,4.1-9.7,9.2s4.3,9.2,9.7,9.2s9.7-4.1,9.7-9.2
			S69.3,36.9,64,36.9z"/>
		<g>
			<path class="st7" d="M106.5,7v82l-32,32h-25h-28V7H106.5 M107.5,6h-87v116h29h25.4l32.6-32.6V6L107.5,6z"/>
		</g>
	</g>
</g>
</svg>
