<?xml version="1.0" encoding="utf-8"?>
<!-- Generator: Adobe Illustrator 16.0.0, SVG Export Plug-In . SVG Version: 6.00 Build 0)  -->
<!DOCTYPE svg PUBLIC "-//W3C//DTD SVG 1.1//EN" "http://www.w3.org/Graphics/SVG/1.1/DTD/svg11.dtd">
<svg version="1.1" id="图层_1" xmlns="http://www.w3.org/2000/svg" xmlns:xlink="http://www.w3.org/1999/xlink" x="0px" y="0px"
	 width="128px" height="128px" viewBox="0 0 128 128" enable-background="new 0 0 128 128" xml:space="preserve">
<polygon opacity="0.08" enable-background="new    " points="18.31,128 18.31,4 113.689,4 113.689,92.995 78.686,128 "/>
<polygon display="none" opacity="0.08" enable-background="new    " points="22.31,126 22.31,6 113.689,6 113.689,92.167 
	79.857,126 "/>
<polygon opacity="0.1" enable-background="new    " points="20.31,126 20.31,6 111.689,6 111.689,92.167 77.857,126 "/>
<polygon opacity="0.2" enable-background="new    " points="18.31,124 18.31,4 109.689,4 109.689,90.167 75.857,124 "/>
<polygon fill="#01579B" points="20.298,122 20.298,6 107.702,6 107.702,89.339 75.033,122 "/>
<g>
	<g>
		<g>
			<g>
				
					<linearGradient id="SVGID_1_" gradientUnits="userSpaceOnUse" x1="147.1953" y1="-575.8003" x2="147.1953" y2="-461.8008" gradientTransform="matrix(1 0 0 -1 -83.2002 -454.8008)">
					<stop  offset="0" style="stop-color:#2196F3"/>
					<stop  offset="0.5828" style="stop-color:#3DBAE8"/>
					<stop  offset="1" style="stop-color:#4DD0E1"/>
				</linearGradient>
				<polygon fill="url(#SVGID_1_)" points="21.289,121 21.289,7 106.699,7 106.699,88.938 74.637,121 				"/>
			</g>
			<polygon fill="#01579B" fill-opacity="0.39" points="106.699,88.938 106.699,87.557 72.878,87.557 72.878,121 74.637,121 			"/>
			<path fill="#FFFFFF" fill-opacity="0.3922" d="M74.593,88.938l32.114,0.045L74.637,121L74.593,88.938z"/>
		</g>
		<g>
			<path opacity="0.8" fill="#FFFFFF" enable-background="new    " d="M79.149,46.804c3.333,0,6.034,2.701,6.034,6.038
				c0,3.333-2.701,6.034-6.034,6.034c-3.332,0-6.034-2.701-6.034-6.034C73.115,49.505,75.817,46.804,79.149,46.804z"/>
			<path opacity="0.8" fill="#FFFFFF" enable-background="new    " d="M34.311,40.254V79.2h59.379V40.254H34.311z M89.406,44.525
				v30.4l0,0l-13.774-9.782l-9.838,6.027L53.166,55.925l-14.588,19v-30.4H89.406z"/>
		</g>
	</g>
	<g>
		<rect x="21.271" y="7" opacity="0.8" fill="#FFFFFF" enable-background="new    " width="85.459" height="21.85"/>
		<g enable-background="new    ">
			<path fill="#0288D1" d="M46.06,9.089c2.676,0,4.724,0.449,6.156,1.339c1.433,0.895,2.148,2.356,2.148,4.387
				c0,2.048-0.724,3.525-2.175,4.435c-1.447,0.909-3.518,1.365-6.208,1.365h-1.266v5.7h-4.033V9.531
				c0.879-0.163,1.807-0.278,2.79-0.341C44.456,9.123,45.317,9.089,46.06,9.089z M46.319,12.358c-0.293,0-0.583,0.008-0.865,0.026
				c-0.285,0.015-0.53,0.029-0.738,0.048v4.914h1.266c1.399,0,2.449-0.178,3.158-0.542c0.705-0.36,1.062-1.032,1.062-2.015
				c0-0.475-0.093-0.864-0.275-1.176c-0.178-0.312-0.438-0.564-0.775-0.75c-0.334-0.189-0.746-0.319-1.229-0.394
				S46.905,12.358,46.319,12.358z"/>
			<path fill="#0288D1" d="M62.231,23.391c0.564,0,1.039-0.044,1.41-0.133c0.371-0.093,0.668-0.215,0.891-0.371
				c0.223-0.156,0.371-0.338,0.46-0.553c0.09-0.211,0.134-0.449,0.134-0.712c0-0.557-0.282-1.021-0.831-1.388
				c-0.549-0.368-1.499-0.765-2.843-1.191c-0.586-0.197-1.173-0.423-1.759-0.675s-1.113-0.575-1.577-0.958
				c-0.468-0.386-0.846-0.854-1.14-1.403c-0.293-0.549-0.438-1.217-0.438-2c0-0.787,0.152-1.496,0.464-2.126s0.75-1.169,1.317-1.61
				c0.571-0.442,1.262-0.783,2.07-1.021c0.81-0.238,1.723-0.356,2.746-0.356c1.203,0,2.242,0.123,3.125,0.371
				c0.883,0.245,1.606,0.516,2.171,0.809l-1.162,3.024c-0.497-0.249-1.061-0.464-1.669-0.653c-0.609-0.189-1.352-0.282-2.212-0.282
				c-0.965,0-1.663,0.126-2.078,0.382c-0.423,0.252-0.639,0.642-0.639,1.166c0,0.312,0.082,0.575,0.237,0.787
				c0.148,0.211,0.371,0.404,0.653,0.579c0.29,0.17,0.616,0.326,0.987,0.464c0.371,0.141,0.779,0.286,1.225,0.43
				c0.936,0.331,1.744,0.653,2.435,0.972c0.689,0.319,1.262,0.69,1.718,1.117c0.46,0.427,0.802,0.928,1.024,1.499
				c0.223,0.575,0.341,1.27,0.341,2.089c0,1.588-0.594,2.82-1.763,3.696c-1.172,0.879-2.938,1.317-5.299,1.317
				c-0.802,0-1.514-0.048-2.152-0.137c-0.638-0.089-1.202-0.201-1.692-0.331c-0.493-0.13-0.912-0.271-1.269-0.419
				c-0.353-0.145-0.649-0.286-0.891-0.416l1.139-3.046c0.535,0.278,1.191,0.527,1.979,0.75
				C60.128,23.28,61.089,23.391,62.231,23.391z"/>
			<path fill="#0288D1" d="M88.086,17.788c0,1.477-0.238,2.761-0.728,3.859c-0.476,1.099-1.158,2.008-2.049,2.728
				c-0.891,0.72-1.974,1.262-3.251,1.622c-1.276,0.36-2.701,0.542-4.289,0.542c-0.728,0-1.574-0.03-2.539-0.089
				c-0.965-0.056-1.914-0.175-2.835-0.356V9.509c0.921-0.164,1.9-0.275,2.909-0.334c1.01-0.056,1.871-0.085,2.598-0.085
				c1.529,0,2.925,0.163,4.172,0.494c1.246,0.326,2.33,0.842,3.221,1.547s1.588,1.607,2.063,2.702
				C87.848,14.93,88.086,16.248,88.086,17.788z M76.418,23.194c0.193,0.019,0.416,0.03,0.668,0.037
				c0.253,0.008,0.55,0.011,0.891,0.011c2.02,0,3.519-0.482,4.483-1.447c0.979-0.968,1.47-2.304,1.47-4.008
				c0-1.785-0.476-3.136-1.396-4.052c-0.936-0.917-2.405-1.377-4.424-1.377c-0.282,0-0.563,0.004-0.86,0.011
				c-0.297,0.011-0.564,0.03-0.832,0.063V23.194z"/>
		</g>
	</g>
</g>
</svg>
