<?xml version="1.0" encoding="utf-8"?>
<!-- Generator: Adobe Illustrator 21.0.0, SVG Export Plug-In . SVG Version: 6.00 Build 0)  -->
<svg version="1.1" id="图层_1" xmlns="http://www.w3.org/2000/svg" xmlns:xlink="http://www.w3.org/1999/xlink" x="0px" y="0px"
	 viewBox="0 0 128 128" style="enable-background:new 0 0 128 128;" xml:space="preserve">
<style type="text/css">
	.st0{opacity:0.08;enable-background:new    ;}
	.st1{display:none;opacity:0.08;enable-background:new    ;}
	.st2{opacity:0.1;enable-background:new    ;}
	.st3{opacity:0.2;enable-background:new    ;}
	.st4{fill:#455A64;}
	.st5{fill:url(#SVGID_1_);}
	.st6{fill:#455A64;fill-opacity:0.39;}
	.st7{fill:#FFFFFF;fill-opacity:0.39;}
	.st8{opacity:0.8;fill:#FFFFFF;enable-background:new    ;}
</style>
<polygon class="st0" points="18.3,128 18.3,4 113.7,4 113.7,93 78.7,128 "/>
<polygon class="st1" points="22.3,126 22.3,6 113.7,6 113.7,92.2 79.9,126 "/>
<polygon class="st2" points="20.3,126 20.3,6 111.7,6 111.7,92.2 77.9,126 "/>
<polygon class="st3" points="18.3,124 18.3,4 109.7,4 109.7,90.2 75.9,124 "/>
<polygon class="st4" points="20.3,122 20.3,6 107.7,6 107.7,89.3 75,122 "/>
<g>
	<g>
		<g>
			
				<linearGradient id="SVGID_1_" gradientUnits="userSpaceOnUse" x1="105.6001" y1="-680.9004" x2="105.6001" y2="-794.9004" gradientTransform="matrix(1 0 0 -1 -41.6001 -673.9004)">
				<stop  offset="0" style="stop-color:#90A4AE"/>
				<stop  offset="0.1378" style="stop-color:#849AA5"/>
				<stop  offset="0.4226" style="stop-color:#708A97"/>
				<stop  offset="0.7096" style="stop-color:#64808E"/>
				<stop  offset="1" style="stop-color:#607D8B"/>
			</linearGradient>
			<polygon class="st5" points="21.3,121 21.3,7 106.7,7 106.7,88.9 74.6,121 			"/>
		</g>
		<polygon class="st6" points="106.7,88.9 106.7,87.6 72.9,87.6 72.9,121 74.6,121 		"/>
		<path class="st7" d="M74.6,88.9h32.1l-32.1,32V88.9z"/>
	</g>
	<path class="st8" d="M83.9,66c0.1-0.1,0.1-0.2,0.2-0.4c0.1-0.2,0.2-0.5,0.3-0.7l0,0c0.6-1.3,1.1-2.7,1.4-4h5.4V50.1h-5.4
		c-0.6-2.2-1.4-4.4-2.6-6.3L87,40l-7.6-7.6l-3.8,3.8c-1.9-1.2-4.1-2.1-6.4-2.7h0.1v-5.4H58.5v5.4l0,0c-2.3,0.6-4.5,1.5-6.4,2.7
		l-3.8-3.8L40.9,40l3.8,3.8c-1.1,1.9-2,4-2.6,6.3h-5.4v10.8h5.4c0.6,2.2,1.4,4.4,2.6,6.3l0,0L40.9,71l7.6,7.6l3.8-3.8
		c1.9,1.2,4.1,2.1,6.3,2.6v5.4h10.8v-5.4l0,0l0,0c2.3-0.6,4.4-1.4,6.3-2.6l3.8,3.8l7.6-7.6l-3.8-3.8l0,0c0.1-0.2,0.2-0.4,0.4-0.7
		C83.8,66.4,83.9,66.2,83.9,66z M64,72.7c-9.5,0-17.2-7.7-17.2-17.2S54.5,38.3,64,38.3c1.9,0,3.7,0.3,5.4,0.9l0,0
		c6.9,2.3,11.8,8.7,11.8,16.4c0,0.5,0,1,0,1.4l0,0c-0.1,1.4-0.4,2.7-0.8,4c0,0,0,0,0,0.1c-0.3,0.8-0.6,1.6-1,2.3l-0.1,0.1
		c-0.2,0.4-0.4,0.7-0.6,1.1c0,0.1-0.1,0.1-0.1,0.1c-0.2,0.3-0.4,0.7-0.7,1h-0.1c-0.2,0.3-0.5,0.7-0.8,1l-0.1,0.1
		c-0.5,0.6-1.1,1.2-1.7,1.7l-0.1,0.1c-0.3,0.2-0.6,0.5-1,0.7c0,0-0.1,0-0.1,0.1c-0.3,0.2-0.6,0.4-0.9,0.6c0,0-0.1,0-0.1,0.1
		c-0.3,0.2-0.7,0.4-1,0.6c-0.1,0-0.1,0.1-0.2,0.1c-0.3,0.2-0.7,0.3-1.1,0.5h-0.1c-0.3,0.1-0.7,0.2-1,0.4
		C67.8,72.4,65.9,72.7,64,72.7z"/>
</g>
</svg>
