<?xml version="1.0" encoding="utf-8"?>
<!-- Generator: Adobe Illustrator 16.0.0, SVG Export Plug-In . SVG Version: 6.00 Build 0)  -->
<!DOCTYPE svg PUBLIC "-//W3C//DTD SVG 1.1//EN" "http://www.w3.org/Graphics/SVG/1.1/DTD/svg11.dtd">
<svg version="1.1" id="图层_1" xmlns="http://www.w3.org/2000/svg" xmlns:xlink="http://www.w3.org/1999/xlink" x="0px" y="0px"
	 width="128px" height="128px" viewBox="0 0 128 128" enable-background="new 0 0 128 128" xml:space="preserve">
<polygon opacity="0.08" enable-background="new    " points="18.31,128 18.31,4 113.689,4 113.689,92.995 78.686,128 "/>
<polygon display="none" opacity="0.08" enable-background="new    " points="22.31,126 22.31,6 113.689,6 113.689,92.167 
	79.857,126 "/>
<polygon opacity="0.1" enable-background="new    " points="20.31,126 20.31,6 111.689,6 111.689,92.167 77.857,126 "/>
<polygon opacity="0.2" enable-background="new    " points="18.31,124 18.31,4 109.689,4 109.689,90.167 75.857,124 "/>
<polygon fill="#3E2723" points="20.298,122 20.298,6 107.702,6 107.702,89.34 75.033,122 "/>
<g>
	<g>
		
			<linearGradient id="SVGID_1_" gradientUnits="userSpaceOnUse" x1="105.6035" y1="-42.9004" x2="105.6035" y2="-156.9009" gradientTransform="matrix(1 0 0 -1 -41.6001 -35.9004)">
			<stop  offset="0" style="stop-color:#785548"/>
			<stop  offset="1" style="stop-color:#9F9E9F"/>
		</linearGradient>
		<polygon fill="url(#SVGID_1_)" points="21.298,121 21.298,7 106.709,7 106.709,88.893 74.959,121 		"/>
		<polygon fill="#795548" fill-opacity="0.7" points="106.709,88.938 106.709,87.557 72.895,87.557 72.895,121 74.646,121 		"/>
		<path opacity="0.39" fill="#FFFFFF" enable-background="new    " d="M74.602,88.938l32.107,0.045L74.646,121L74.602,88.938z"/>
	</g>
	<path fill="#FFFFFF" d="M51.817,28.976h-2.895v37.02H46.74v-37.02h-2.879v37.02h-2.182v-37.02h-2.88v37.02h-2.182v-37.02h-2.88
		v37.02H32.98v15.683h19.816V65.996h-0.98V28.976z M49.917,77.122H35.86V68.03h14.057V77.122z"/>
	<g>
		<rect x="21.276" y="7" opacity="0.8" fill="#FFFFFF" enable-background="new    " width="85.449" height="21.85"/>
		<g enable-background="new    ">
			<path fill="#5D4037" d="M40.795,23.15v3.292H28.824V9.412h4.03V23.15H40.795z"/>
			<path fill="#5D4037" d="M56.493,12.065c-0.557,0.542-1.209,1.243-1.967,2.104c-0.757,0.857-1.543,1.796-2.36,2.813
				c-0.802,1.013-1.604,2.063-2.405,3.143c-0.787,1.083-1.5,2.115-2.123,3.099h9.143v3.217H42.681v-2.286
				c0.482-0.835,1.069-1.763,1.767-2.787c0.705-1.024,1.432-2.056,2.189-3.099c0.764-1.039,1.536-2.044,2.315-3.021
				c0.787-0.976,1.514-1.848,2.189-2.616h-8.045V9.412h13.396V12.065z"/>
			<path fill="#5D4037" d="M64.382,9.412c0.311,0.542,0.668,1.21,1.077,2.004s0.83,1.655,1.268,2.579
				c0.445,0.928,0.877,1.874,1.307,2.839c0.438,0.965,0.846,1.874,1.225,2.728c0.379-0.854,0.787-1.763,1.217-2.728
				c0.439-0.965,0.869-1.911,1.314-2.839c0.438-0.924,0.861-1.785,1.27-2.579s0.764-1.462,1.076-2.004h3.666
				c0.178,1.132,0.342,2.397,0.482,3.796c0.148,1.403,0.275,2.861,0.393,4.375c0.105,1.514,0.209,3.036,0.313,4.557
				c0.09,1.525,0.17,2.958,0.238,4.301h-3.934c-0.045-1.655-0.119-3.455-0.201-5.407c-0.09-1.948-0.215-3.915-0.393-5.896
				c-0.313,0.687-0.654,1.451-1.039,2.286c-0.371,0.835-0.758,1.67-1.129,2.505s-0.727,1.637-1.068,2.397
				c-0.35,0.761-0.639,1.414-0.891,1.952H67.76c-0.246-0.538-0.543-1.191-0.885-1.952c-0.34-0.761-0.705-1.563-1.076-2.397
				c-0.377-0.835-0.748-1.67-1.127-2.505c-0.378-0.835-0.728-1.599-1.04-2.286c-0.171,1.981-0.304,3.948-0.394,5.896
				c-0.081,1.952-0.148,3.752-0.2,5.407h-3.934c0.067-1.343,0.156-2.775,0.245-4.301c0.097-1.521,0.2-3.043,0.312-4.557
				s0.237-2.972,0.386-4.375c0.148-1.399,0.313-2.665,0.482-3.796H64.382z"/>
			<path fill="#5D4037" d="M94.85,26.441c-0.201-0.59-0.408-1.198-0.646-1.822c-0.223-0.624-0.461-1.247-0.684-1.863h-7.006
				c-0.223,0.62-0.445,1.243-0.676,1.866c-0.229,0.624-0.438,1.232-0.631,1.818h-4.193c0.676-1.833,1.314-3.529,1.924-5.087
				c0.6-1.555,1.193-3.021,1.773-4.397c0.578-1.377,1.15-2.683,1.715-3.919c0.563-1.236,1.143-2.445,1.75-3.625h3.822
				c0.588,1.18,1.166,2.39,1.744,3.625c0.564,1.236,1.145,2.542,1.723,3.919c0.578,1.376,1.172,2.842,1.781,4.397
				c0.609,1.559,1.246,3.254,1.93,5.087H94.85z M90.002,13.271c-0.088,0.245-0.223,0.583-0.4,1.009
				c-0.164,0.427-0.371,0.917-0.586,1.473c-0.223,0.561-0.469,1.173-0.742,1.845c-0.275,0.671-0.557,1.373-0.84,2.111h5.129
				c-0.273-0.738-0.541-1.443-0.793-2.119c-0.26-0.671-0.506-1.288-0.736-1.844c-0.229-0.56-0.438-1.05-0.607-1.477
				C90.254,13.847,90.105,13.513,90.002,13.271z"/>
		</g>
	</g>
</g>
</svg>
