<?xml version="1.0" encoding="utf-8"?>
<!-- Generator: Adobe Illustrator 16.0.0, SVG Export Plug-In . SVG Version: 6.00 Build 0)  -->
<!DOCTYPE svg PUBLIC "-//W3C//DTD SVG 1.1//EN" "http://www.w3.org/Graphics/SVG/1.1/DTD/svg11.dtd">
<svg version="1.1" id="图层_1" xmlns="http://www.w3.org/2000/svg" xmlns:xlink="http://www.w3.org/1999/xlink" x="0px" y="0px"
	 width="128px" height="128px" viewBox="0 0 128 128" enable-background="new 0 0 128 128" xml:space="preserve">
<rect x="18.298" y="4" opacity="0.2" width="91.404" height="120"/>
<rect x="18.298" y="4" opacity="0.08" width="95.404" height="124"/>
<rect x="20.298" y="6" opacity="0.1" width="91.404" height="120"/>
<rect x="20.298" y="6" fill="#E65100" width="87.404" height="116"/>
<g>
	
		<linearGradient id="SVGID_1_" gradientUnits="userSpaceOnUse" x1="105.6006" y1="-156.8999" x2="105.6006" y2="-42.9004" gradientTransform="matrix(1 0 0 -1 -41.6001 -35.9004)">
		<stop  offset="0" style="stop-color:#EE6F0B"/>
		<stop  offset="1" style="stop-color:#FFB74D"/>
	</linearGradient>
	<rect x="21.298" y="7" fill="url(#SVGID_1_)" width="85.404" height="114"/>
	<g opacity="0.8">
		<rect x="32.415" y="37.636" fill="#FFFFFF" width="9.118" height="45.698"/>
		<rect x="47.614" y="60.438" fill="#FFFFFF" width="9.121" height="22.849"/>
		<rect x="62.768" y="69.746" fill="#FFFFFF" width="9.121" height="13.684"/>
		<g>
			<path fill="#FFFFFF" d="M75.164,29.563l0.096,18.194l18.189-0.096c0.047,10.067-8.074,18.237-18.146,18.284
				c-10.067,0.048-18.237-8.074-18.285-18.141C56.97,37.78,65.095,29.61,75.164,29.563z"/>
			<path fill="#FFFFFF" d="M77.301,27.474c10.072-0.047,18.242,8.074,18.29,18.141L77.396,45.71L77.301,27.474z"/>
		</g>
	</g>
</g>
</svg>
