<?xml version="1.0" encoding="utf-8"?>
<!-- Generator: Adobe Illustrator 21.0.0, SVG Export Plug-In . SVG Version: 6.00 Build 0)  -->
<svg version="1.1" id="图层_1" xmlns="http://www.w3.org/2000/svg" xmlns:xlink="http://www.w3.org/1999/xlink" x="0px" y="0px"
	 viewBox="0 0 128 128" style="enable-background:new 0 0 128 128;" xml:space="preserve">
<style type="text/css">
	.st0{opacity:0.08;enable-background:new    ;}
	.st1{opacity:0.1;enable-background:new    ;}
	.st2{opacity:0.2;enable-background:new    ;}
	.st3{fill:#AE2124;}
	.st4{fill:url(#SVGID_1_);}
	.st5{fill:#AE2124;fill-opacity:0.3922;}
	.st6{fill:#FFFFFF;fill-opacity:0.3922;}
	.st7{opacity:0.8;enable-background:new    ;}
	.st8{fill:#FFFFFF;}
	.st9{opacity:0.8;fill:#FFFFFF;enable-background:new    ;}
	.st10{enable-background:new    ;}
	.st11{fill:#E64A19;}
</style>
<polygon class="st0" points="18.3,128 18.3,4 113.7,4 113.7,93 78.7,128 "/>
<polygon class="st1" points="20.3,126 20.3,6 111.7,6 111.7,92.2 77.9,126 "/>
<polygon class="st2" points="18.3,124 18.3,4 109.7,4 109.7,90.2 75.9,124 "/>
<polygon class="st3" points="20.3,122 20.3,6 107.7,6 107.7,89.3 75,122 "/>
<g>
	<g>
		<g>
			
				<linearGradient id="SVGID_1_" gradientUnits="userSpaceOnUse" x1="147.1997" y1="-1213.8008" x2="147.1997" y2="-1099.8008" gradientTransform="matrix(1 0 0 -1 -83.1997 -1092.8008)">
				<stop  offset="0" style="stop-color:#C7312F"/>
				<stop  offset="0.1635" style="stop-color:#D9412C"/>
				<stop  offset="0.3476" style="stop-color:#E74E29"/>
				<stop  offset="0.5725" style="stop-color:#EA552A"/>
				<stop  offset="0.9516" style="stop-color:#EA582B"/>
			</linearGradient>
			<polygon class="st4" points="21.3,121 21.3,7 106.7,7 106.7,88.9 74.6,121 			"/>
		</g>
		<polygon class="st5" points="106.7,88.9 106.7,87.6 72.9,87.6 72.9,121 74.6,121 		"/>
		<path class="st6" d="M74.6,88.9l32.1,0.1l-32.1,32V88.9z"/>
	</g>
	<g class="st7">
		<g>
			<path class="st8" d="M74.7,39.5c0.1,0.1,0.3,0.1,0.5,0.1C75.1,39.6,74.9,39.5,74.7,39.5z"/>
			<path class="st8" d="M73.5,39.4c0.2,0,0.3,0,0.5,0C73.9,39.4,73.7,39.4,73.5,39.4z"/>
			<path class="st8" d="M75.9,39.7c0.1,0,0.3,0,0.4,0.1C76.2,39.8,76,39.7,75.9,39.7z"/>
			<path class="st8" d="M77,39.9c0.1,0.1,0.3,0.1,0.4,0.1C77.3,40,77.2,39.9,77,39.9z"/>
			<path class="st8" d="M72.3,39.2c0.2,0,0.4,0,0.6,0C72.7,39.3,72.5,39.2,72.3,39.2z"/>
			<path class="st8" d="M79.2,40.4c0.1,0,0.2,0,0.3,0.1C79.3,40.4,79.2,40.4,79.2,40.4z"/>
			<path class="st8" d="M78.1,40.2c0.1,0,0.2,0,0.3,0.1C78.3,40.2,78.2,40.2,78.1,40.2z"/>
			<path class="st8" d="M38.5,45.6L38.5,45.6L38.5,45.6z"/>
			<path class="st8" d="M65.8,38.8c0.3,0,0.6,0,0.9,0C66.4,38.8,66,38.8,65.8,38.8z"/>
			<path class="st8" d="M80.2,40.6c0.1,0,0.2,0,0.3,0.1C80.4,40.7,80.2,40.7,80.2,40.6z"/>
			<path class="st8" d="M71.1,39.1c0.2,0,0.4,0,0.6,0C71.5,39.1,71.3,39.1,71.1,39.1z"/>
			<path class="st8" d="M61.4,38.8c0.3,0,0.6,0,0.9,0C62,38.8,61.6,38.8,61.4,38.8z"/>
			<path class="st8" d="M68.5,38.9c0.2,0,0.5,0.1,0.7,0.1C69,38.9,68.8,38.9,68.5,38.9z"/>
			<path class="st8" d="M69.8,39c0.2,0,0.4,0,0.7,0C70.3,39,70,39,69.8,39z"/>
			<path class="st8" d="M86,42.9C86,42.9,86.1,42.9,86,42.9C86.1,42.9,86,42.9,86,42.9z"/>
			<path class="st8" d="M88.3,44.4L88.3,44.4L88.3,44.4z"/>
			<path class="st8" d="M86.7,43.2L86.7,43.2L86.7,43.2z"/>
			<path class="st8" d="M87.3,43.6L87.3,43.6L87.3,43.6z"/>
			<path class="st8" d="M81.2,40.9c0.1,0,0.1,0.1,0.2,0.1C81.3,41,81.2,40.9,81.2,40.9z"/>
			<path class="st8" d="M88.7,44.8L88.7,44.8L88.7,44.8z"/>
			<path class="st8" d="M64,38.7c-0.4,0-0.9,0-1.3,0C63.1,38.7,63.6,38.7,64,38.7z"/>
			<path class="st8" d="M87.8,44L87.8,44L87.8,44z"/>
			<path class="st8" d="M83.8,41.8h0.1C83.9,41.9,83.9,41.8,83.8,41.8z"/>
			<path class="st8" d="M64,38.7c0.4,0,0.9,0,1.3,0C64.9,38.7,64.4,38.7,64,38.7z"/>
			<path class="st8" d="M82.1,41.2c0.1,0,0.1,0,0.2,0C82.2,41.2,82.1,41.2,82.1,41.2z"/>
			<path class="st8" d="M83,41.5l0.1,0.1C83,41.5,83,41.5,83,41.5z"/>
			<path class="st8" d="M84.6,42.2C84.7,42.2,84.7,42.2,84.6,42.2C84.7,42.2,84.6,42.2,84.6,42.2z"/>
			<path class="st8" d="M85.3,42.5C85.4,42.5,85.4,42.5,85.3,42.5C85.4,42.5,85.4,42.5,85.3,42.5z"/>
			<path class="st8" d="M67.2,38.8c0.2,0,0.5,0,0.8,0C67.7,38.8,67.4,38.8,67.2,38.8z"/>
			<path class="st8" d="M41.9,42.9c0.1,0,0.1,0,0.1,0H41.9z"/>
			<path class="st8" d="M41.2,43.2C41.2,43.2,41.3,43.2,41.2,43.2C41.3,43.2,41.3,43.2,41.2,43.2z"/>
			<path class="st8" d="M40.7,43.6L40.7,43.6L40.7,43.6z"/>
			<path class="st8" d="M42.6,42.5L42.6,42.5L42.6,42.5z"/>
			<path class="st8" d="M44,41.9h0.1C44.1,41.8,44.1,41.9,44,41.9z"/>
			<path class="st8" d="M43.3,42.2c0.1,0,0.1,0,0.1,0C43.4,42.2,43.3,42.2,43.3,42.2z"/>
			<path class="st8" d="M60.1,38.8c0.2,0,0.5,0,0.8-0.1C60.6,38.8,60.3,38.8,60.1,38.8z"/>
			<path class="st8" d="M64,56.4c-14.4,0-26.1-3.9-26.1-8.8v8c0,4.9,11.7,8.8,26.1,8.8s26.1-3.9,26.1-8.8l0,0v-8
				C90.1,52.5,78.4,56.4,64,56.4z"/>
			<path class="st8" d="M37.9,47.3v0.3C37.9,47.5,37.9,47.4,37.9,47.3L37.9,47.3z"/>
			<path class="st8" d="M44.9,41.6c0,0,0.1,0,0.2,0C45,41.5,44.9,41.5,44.9,41.6z"/>
			<path class="st8" d="M39.7,44.4L39.7,44.4L39.7,44.4z"/>
			<path class="st8" d="M90.1,47.3c0,0.1,0,0.2,0,0.3V47.3L90.1,47.3z"/>
			<path class="st8" d="M38.9,45.2L38.9,45.2L38.9,45.2z"/>
			<path class="st8" d="M39.2,44.8L39.2,44.8L39.2,44.8z"/>
			<path class="st8" d="M40.2,44L40.2,44L40.2,44z"/>
			<path class="st8" d="M55.1,39.3c0.2,0,0.4,0,0.6,0C55.5,39.2,55.3,39.3,55.1,39.3z"/>
			<path class="st8" d="M53.9,39.4c0.2,0,0.3,0,0.5,0C54.3,39.4,54.1,39.4,53.9,39.4z"/>
			<path class="st8" d="M56.3,39.1c0.2,0,0.4,0,0.6,0C56.7,39.1,56.5,39.1,56.3,39.1z"/>
			<path class="st8" d="M45.7,41.2c0.1,0,0.1,0,0.2,0C45.9,41.2,45.8,41.2,45.7,41.2z"/>
			<path class="st8" d="M58.8,38.9c0.2,0,0.5-0.1,0.7-0.1C59.3,38.9,59,38.9,58.8,38.9z"/>
			<path class="st8" d="M52.8,39.6c0.1-0.1,0.3-0.1,0.5-0.1C53.1,39.5,52.9,39.6,52.8,39.6z"/>
			<path class="st8" d="M57.5,39c0.2,0,0.4,0,0.7,0C58,39,57.7,39,57.5,39z"/>
			<path class="st8" d="M47.6,40.7c0.1,0,0.2,0,0.3-0.1C47.8,40.7,47.7,40.7,47.6,40.7z"/>
			<path class="st8" d="M46.6,41c0.1-0.1,0.1-0.1,0.2-0.1C46.8,40.9,46.7,41,46.6,41z"/>
			<path class="st8" d="M48.5,40.4c0.1,0,0.2,0,0.3-0.1C48.7,40.4,48.7,40.4,48.5,40.4z"/>
			<path class="st8" d="M49.6,40.2c0.1,0,0.2,0,0.4-0.1C49.8,40.2,49.7,40.2,49.6,40.2z"/>
			<path class="st8" d="M50.6,40c0.1,0,0.3,0,0.4-0.1C50.8,39.9,50.7,40,50.6,40z"/>
			<path class="st8" d="M51.7,39.8c0.1,0,0.3,0,0.4-0.1C52,39.7,51.8,39.8,51.7,39.8z"/>
		</g>
		<g>
			<path class="st8" d="M74.7,48.8c0.1,0.1,0.3,0.1,0.5,0.1C75.1,48.9,74.9,48.9,74.7,48.8z"/>
			<path class="st8" d="M73.5,48.7c0.2,0,0.3,0,0.5,0C73.9,48.7,73.7,48.7,73.5,48.7z"/>
			<path class="st8" d="M75.9,49c0.1,0,0.3,0,0.4,0.1C76.2,49,76,49,75.9,49z"/>
			<path class="st8" d="M77,49.2c0.1,0,0.3,0,0.4,0.1C77.3,49.2,77.2,49.2,77,49.2z"/>
			<path class="st8" d="M72.3,48.5c0.2,0,0.4,0,0.6,0C72.7,48.5,72.5,48.5,72.3,48.5z"/>
			<path class="st8" d="M79.2,49.7c0.1,0,0.2,0,0.3,0.1C79.3,49.7,79.2,49.7,79.2,49.7z"/>
			<path class="st8" d="M78.1,49.4c0.1,0.1,0.2,0.1,0.3,0.1C78.3,49.5,78.2,49.5,78.1,49.4z"/>
			<path class="st8" d="M38.5,54.9L38.5,54.9L38.5,54.9z"/>
			<path class="st8" d="M65.8,48c0.3,0,0.6,0,0.9,0C66.4,48,66,48,65.8,48z"/>
			<path class="st8" d="M80.2,49.9c0.1,0.1,0.2,0.1,0.3,0.1C80.4,50,80.2,49.9,80.2,49.9z"/>
			<path class="st8" d="M71.1,48.4c0.2,0,0.4,0.1,0.6,0.1C71.5,48.4,71.3,48.4,71.1,48.4z"/>
			<path class="st8" d="M61.4,48.1c0.3,0,0.6,0,0.9,0C62,48,61.6,48,61.4,48.1z"/>
			<path class="st8" d="M68.5,48.1c0.2,0,0.5,0.1,0.7,0.1C69,48.2,68.8,48.2,68.5,48.1z"/>
			<path class="st8" d="M69.8,48.2c0.2,0,0.4,0,0.7,0C70.3,48.3,70,48.3,69.8,48.2z"/>
			<path class="st8" d="M86,52.1C86,52.1,86.1,52.1,86,52.1C86.1,52.1,86,52.1,86,52.1z"/>
			<path class="st8" d="M88.3,53.7L88.3,53.7L88.3,53.7z"/>
			<path class="st8" d="M86.7,52.5L86.7,52.5L86.7,52.5z"/>
			<path class="st8" d="M87.3,52.9L87.3,52.9L87.3,52.9z"/>
			<path class="st8" d="M81.2,50.2c0.1,0,0.1,0,0.2,0C81.3,50.2,81.2,50.2,81.2,50.2z"/>
			<path class="st8" d="M88.7,54L88.7,54L88.7,54z"/>
			<path class="st8" d="M64,48c-0.4,0-0.9,0-1.3,0C63.1,48,63.6,48,64,48z"/>
			<path class="st8" d="M87.8,53.3L87.8,53.3L87.8,53.3z"/>
			<path class="st8" d="M83.8,51.1l0.1,0.1C83.9,51.1,83.9,51.1,83.8,51.1z"/>
			<path class="st8" d="M64,48c0.4,0,0.9,0,1.3,0C64.9,48,64.4,48,64,48z"/>
			<path class="st8" d="M82.1,50.5c0.1,0,0.1,0,0.2,0C82.2,50.5,82.1,50.5,82.1,50.5z"/>
			<path class="st8" d="M83,50.8h0.1C83,50.8,83,50.8,83,50.8z"/>
			<path class="st8" d="M84.6,51.4C84.7,51.4,84.7,51.5,84.6,51.4C84.7,51.5,84.6,51.5,84.6,51.4z"/>
			<path class="st8" d="M85.3,51.8C85.4,51.8,85.4,51.8,85.3,51.8C85.4,51.8,85.4,51.8,85.3,51.8z"/>
			<path class="st8" d="M67.2,48.1c0.2,0,0.5,0,0.8,0C67.7,48.1,67.4,48.1,67.2,48.1z"/>
			<path class="st8" d="M41.9,52.2c0.1,0,0.1-0.1,0.1-0.1C42,52.1,41.9,52.1,41.9,52.2z"/>
			<path class="st8" d="M41.2,52.5C41.2,52.5,41.3,52.5,41.2,52.5C41.3,52.5,41.3,52.5,41.2,52.5z"/>
			<path class="st8" d="M40.7,52.9L40.7,52.9L40.7,52.9z"/>
			<path class="st8" d="M42.6,51.8C42.6,51.8,42.6,51.7,42.6,51.8L42.6,51.8z"/>
			<path class="st8" d="M44,51.2h0.1C44.1,51.1,44.1,51.1,44,51.2z"/>
			<path class="st8" d="M43.3,51.5c0.1,0,0.1,0,0.1,0C43.4,51.5,43.3,51.5,43.3,51.5z"/>
			<path class="st8" d="M60.1,48.1c0.2,0,0.5,0,0.8,0C60.6,48.1,60.3,48.1,60.1,48.1z"/>
			<path class="st8" d="M64,65.7c-14.4,0-26.1-3.9-26.1-8.8v8c0,4.9,11.7,8.8,26.1,8.8s26.1-3.9,26.1-8.8l0,0v-8
				C90.1,61.8,78.4,65.7,64,65.7z"/>
			<path class="st8" d="M37.9,56.6v0.3C37.9,56.8,37.9,56.7,37.9,56.6L37.9,56.6z"/>
			<path class="st8" d="M44.9,50.8c0,0,0.1,0,0.2,0C45,50.8,44.9,50.8,44.9,50.8z"/>
			<path class="st8" d="M39.7,53.7L39.7,53.7L39.7,53.7z"/>
			<path class="st8" d="M90.1,56.6c0,0.1,0,0.2,0,0.3V56.6L90.1,56.6z"/>
			<path class="st8" d="M38.9,54.5L38.9,54.5L38.9,54.5z"/>
			<path class="st8" d="M39.2,54.1C39.2,54,39.2,54,39.2,54.1C39.2,54,39.2,54,39.2,54.1z"/>
			<path class="st8" d="M40.2,53.3L40.2,53.3L40.2,53.3z"/>
			<path class="st8" d="M55.1,48.6c0.2,0,0.4-0.1,0.6-0.1C55.5,48.5,55.3,48.5,55.1,48.6z"/>
			<path class="st8" d="M53.9,48.7c0.2,0,0.3,0,0.5,0C54.3,48.7,54.1,48.7,53.9,48.7z"/>
			<path class="st8" d="M56.3,48.4c0.2,0,0.4-0.1,0.6-0.1C56.7,48.4,56.5,48.4,56.3,48.4z"/>
			<path class="st8" d="M45.7,50.6c0.1,0,0.1,0,0.2,0C45.9,50.5,45.8,50.5,45.7,50.6z"/>
			<path class="st8" d="M58.8,48.2c0.2,0,0.5-0.1,0.7-0.1C59.3,48.2,59,48.2,58.8,48.2z"/>
			<path class="st8" d="M52.8,48.9c0.1,0,0.3,0,0.5-0.1C53.1,48.9,52.9,48.9,52.8,48.9z"/>
			<path class="st8" d="M57.5,48.3c0.2,0,0.4,0,0.7,0C58,48.3,57.7,48.3,57.5,48.3z"/>
			<path class="st8" d="M47.6,50c0.1-0.1,0.2-0.1,0.3-0.1C47.8,49.9,47.7,50,47.6,50z"/>
			<path class="st8" d="M46.6,50.3c0.1,0,0.1,0,0.2-0.1C46.8,50.2,46.7,50.2,46.6,50.3z"/>
			<path class="st8" d="M48.5,49.8c0.1,0,0.2,0,0.3-0.1C48.7,49.7,48.7,49.7,48.5,49.8z"/>
			<path class="st8" d="M49.6,49.5c0.1,0,0.2,0,0.4-0.1C49.8,49.5,49.7,49.5,49.6,49.5z"/>
			<path class="st8" d="M50.6,49.3c0.1,0,0.3,0,0.4-0.1C50.8,49.2,50.7,49.2,50.6,49.3z"/>
			<path class="st8" d="M51.7,49.1C51.8,49,52,49,52.1,49C52,49,51.8,49,51.7,49.1z"/>
		</g>
		<g>
			<path class="st8" d="M74.7,58.1c0.1,0,0.3,0,0.5,0.1C75.1,58.1,74.9,58.1,74.7,58.1z"/>
			<path class="st8" d="M73.5,57.9c0.2,0,0.3,0,0.5,0C73.9,58,73.7,57.9,73.5,57.9z"/>
			<path class="st8" d="M75.9,58.3c0.1,0,0.3,0,0.4,0.1C76.2,58.3,76,58.3,75.9,58.3z"/>
			<path class="st8" d="M77,58.5c0.1,0,0.3,0,0.4,0.1C77.3,58.5,77.2,58.5,77,58.5z"/>
			<path class="st8" d="M72.3,57.8c0.2,0,0.4,0.1,0.6,0.1C72.7,57.8,72.5,57.8,72.3,57.8z"/>
			<path class="st8" d="M79.2,59c0.1,0,0.2,0,0.3,0.1C79.3,59,79.2,59,79.2,59z"/>
			<path class="st8" d="M78.1,58.7c0.1,0,0.2,0,0.3,0.1C78.3,58.8,78.2,58.7,78.1,58.7z"/>
			<path class="st8" d="M38.5,64.1L38.5,64.1L38.5,64.1z"/>
			<path class="st8" d="M65.8,57.3c0.3,0,0.6,0,0.9,0C66.4,57.4,66,57.4,65.8,57.3z"/>
			<path class="st8" d="M80.2,59.2c0.1,0,0.2,0,0.3,0.1C80.4,59.3,80.2,59.3,80.2,59.2z"/>
			<path class="st8" d="M71.1,57.6c0.2,0,0.4,0.1,0.6,0.1C71.5,57.7,71.3,57.6,71.1,57.6z"/>
			<path class="st8" d="M61.4,57.4c0.3,0,0.6,0,0.9,0C62,57.4,61.6,57.4,61.4,57.4z"/>
			<path class="st8" d="M68.5,57.4c0.2,0,0.5,0,0.7,0C69,57.4,68.8,57.4,68.5,57.4z"/>
			<path class="st8" d="M69.8,57.5c0.2,0,0.4,0,0.7,0C70.3,57.5,70,57.5,69.8,57.5z"/>
			<path class="st8" d="M86,61.4C86,61.4,86.1,61.4,86,61.4C86.1,61.4,86,61.4,86,61.4z"/>
			<path class="st8" d="M88.3,62.9L88.3,62.9L88.3,62.9z"/>
			<path class="st8" d="M86.7,61.8L86.7,61.8L86.7,61.8z"/>
			<path class="st8" d="M87.3,62.2L87.3,62.2L87.3,62.2z"/>
			<path class="st8" d="M81.2,59.5c0.1,0,0.1,0,0.2,0C81.3,59.5,81.2,59.5,81.2,59.5z"/>
			<path class="st8" d="M88.7,63.3L88.7,63.3L88.7,63.3z"/>
			<path class="st8" d="M64,57.3c-0.4,0-0.9,0-1.3,0C63.1,57.3,63.6,57.3,64,57.3z"/>
			<path class="st8" d="M87.8,62.5L87.8,62.5L87.8,62.5z"/>
			<path class="st8" d="M83.8,60.4h0.1C83.9,60.4,83.9,60.4,83.8,60.4z"/>
			<path class="st8" d="M64,57.3c0.4,0,0.9,0,1.3,0C64.9,57.3,64.4,57.3,64,57.3z"/>
			<path class="st8" d="M82.1,59.8c0.1,0,0.1,0,0.2,0C82.2,59.8,82.1,59.8,82.1,59.8z"/>
			<path class="st8" d="M83,60.1l0.1,0.1C83,60.1,83,60.1,83,60.1z"/>
			<path class="st8" d="M84.6,60.7C84.7,60.7,84.7,60.8,84.6,60.7C84.7,60.7,84.6,60.7,84.6,60.7z"/>
			<path class="st8" d="M85.3,61.1C85.4,61.1,85.4,61.1,85.3,61.1C85.4,61.1,85.4,61.1,85.3,61.1z"/>
			<path class="st8" d="M67.2,57.4c0.2,0,0.5,0,0.8,0C67.7,57.4,67.4,57.4,67.2,57.4z"/>
			<path class="st8" d="M41.9,61.4c0.1,0,0.1,0,0.1,0H41.9z"/>
			<path class="st8" d="M41.2,61.8C41.2,61.8,41.3,61.8,41.2,61.8C41.3,61.8,41.3,61.8,41.2,61.8z"/>
			<path class="st8" d="M40.7,62.2L40.7,62.2L40.7,62.2z"/>
			<path class="st8" d="M42.6,61.1L42.6,61.1L42.6,61.1z"/>
			<path class="st8" d="M44,60.4h0.1C44.1,60.4,44.1,60.4,44,60.4z"/>
			<path class="st8" d="M43.3,60.8c0.1,0,0.1-0.1,0.1-0.1C43.4,60.7,43.3,60.7,43.3,60.8z"/>
			<path class="st8" d="M60.1,57.4c0.2,0,0.5,0,0.8,0C60.6,57.4,60.3,57.4,60.1,57.4z"/>
			<path class="st8" d="M64,75c-14.4,0-26.1-3.9-26.1-8.8v8c0,4.9,11.7,8.8,26.1,8.8s26.1-3.9,26.1-8.8l0,0v-8
				C90.1,71,78.4,75,64,75z"/>
			<path class="st8" d="M37.9,65.9v0.3C37.9,66.1,37.9,66,37.9,65.9L37.9,65.9z"/>
			<path class="st8" d="M44.9,60.1c0,0,0.1-0.1,0.2-0.1C45,60.1,44.9,60.1,44.9,60.1z"/>
			<path class="st8" d="M39.7,63C39.7,62.9,39.7,62.9,39.7,63C39.7,62.9,39.7,62.9,39.7,63z"/>
			<path class="st8" d="M90.1,65.9c0,0.1,0,0.2,0,0.3V65.9L90.1,65.9z"/>
			<path class="st8" d="M38.9,63.8C38.9,63.7,38.9,63.7,38.9,63.8C38.9,63.7,38.9,63.7,38.9,63.8z"/>
			<path class="st8" d="M39.2,63.3L39.2,63.3L39.2,63.3z"/>
			<path class="st8" d="M40.2,62.5L40.2,62.5L40.2,62.5z"/>
			<path class="st8" d="M55.1,57.8c0.2,0,0.4-0.1,0.6-0.1C55.5,57.8,55.3,57.8,55.1,57.8z"/>
			<path class="st8" d="M53.9,58c0.2,0,0.3,0,0.5,0C54.3,57.9,54.1,58,53.9,58z"/>
			<path class="st8" d="M56.3,57.7c0.2,0,0.4-0.1,0.6-0.1C56.7,57.6,56.5,57.7,56.3,57.7z"/>
			<path class="st8" d="M45.7,59.8c0.1,0,0.1,0,0.2,0C45.9,59.8,45.8,59.8,45.7,59.8z"/>
			<path class="st8" d="M58.8,57.5c0.2,0,0.5,0,0.7,0C59.3,57.4,59,57.4,58.8,57.5z"/>
			<path class="st8" d="M52.8,58.2c0.1,0,0.3,0,0.5-0.1C53.1,58.1,52.9,58.1,52.8,58.2z"/>
			<path class="st8" d="M57.5,57.6c0.2,0,0.4,0,0.7,0C58,57.5,57.7,57.5,57.5,57.6z"/>
			<path class="st8" d="M47.6,59.3c0.1,0,0.2,0,0.3-0.1C47.8,59.2,47.7,59.3,47.6,59.3z"/>
			<path class="st8" d="M46.6,59.5c0.1,0,0.1,0,0.2-0.1C46.8,59.5,46.7,59.5,46.6,59.5z"/>
			<path class="st8" d="M48.5,59c0.1,0,0.2,0,0.3-0.1C48.7,59,48.7,59,48.5,59z"/>
			<path class="st8" d="M49.6,58.8c0.1,0,0.2,0,0.4-0.1C49.8,58.7,49.7,58.8,49.6,58.8z"/>
			<path class="st8" d="M50.6,58.5c0.1,0,0.3,0,0.4-0.1C50.8,58.5,50.7,58.5,50.6,58.5z"/>
			<path class="st8" d="M51.7,58.4c0.1-0.1,0.3-0.1,0.4-0.1C52,58.3,51.8,58.3,51.7,58.4z"/>
		</g>
		<path class="st8" d="M64,37.4c14.4,0,26.1,4,26.1,8.8c0,4.9-11.7,8.8-26.1,8.8s-26.1-4-26.1-8.8C37.9,41.3,49.6,37.4,64,37.4z"/>
	</g>
	<g>
		<rect x="21.3" y="7" class="st9" width="85.5" height="21.9"/>
		<g class="st10">
			<path class="st11" d="M54.6,17.8c0,1.5-0.2,2.7-0.7,3.8c-0.5,1.1-1.1,2-1.9,2.8c-0.8,0.7-1.7,1.3-2.8,1.7
				c-1.1,0.4-2.3,0.6-3.5,0.6s-2.4-0.2-3.5-0.6s-2-0.9-2.8-1.7c-0.8-0.7-1.4-1.7-1.9-2.8c-0.5-1.1-0.7-2.4-0.7-3.8s0.2-2.7,0.7-3.8
				s1.1-2,2-2.8c0.8-0.8,1.8-1.3,2.8-1.7c1.1-0.4,2.2-0.6,3.4-0.6s2.4,0.2,3.5,0.6c1.1,0.4,2,0.9,2.8,1.7s1.4,1.7,1.9,2.8
				C54.4,15,54.6,16.3,54.6,17.8z M41,17.8c0,0.8,0.1,1.6,0.3,2.3c0.2,0.7,0.5,1.3,0.9,1.7c0.4,0.5,0.9,0.9,1.5,1.1
				c0.6,0.3,1.3,0.4,2,0.4s1.4-0.1,2-0.4s1.1-0.6,1.5-1.1s0.7-1.1,0.9-1.7c0.2-0.7,0.3-1.4,0.3-2.3s-0.1-1.6-0.3-2.3
				s-0.5-1.3-0.9-1.7c-0.4-0.5-0.9-0.9-1.5-1.1c-0.6-0.3-1.3-0.4-2-0.4c-0.8,0-1.4,0.1-2,0.4c-0.6,0.3-1.1,0.6-1.5,1.1
				s-0.7,1.1-0.9,1.7C41.1,16.2,41,17,41,17.8z"/>
			<path class="st11" d="M73.7,17.8c0,1.5-0.2,2.8-0.7,3.9s-1.2,2-2.1,2.7s-2,1.3-3.2,1.6c-1.3,0.4-2.7,0.5-4.3,0.5
				c-0.7,0-1.6,0-2.5-0.1c-1-0.1-1.9-0.2-2.8-0.4V9.5C59,9.3,60,9.2,61,9.2c1-0.1,1.9-0.1,2.6-0.1c1.5,0,2.9,0.2,4.2,0.5
				c1.2,0.3,2.3,0.8,3.2,1.5c0.9,0.7,1.6,1.6,2.1,2.7C73.5,14.9,73.7,16.2,73.7,17.8z M62,23.2c0.2,0,0.4,0,0.7,0c0.2,0,0.5,0,0.9,0
				c2,0,3.5-0.5,4.5-1.4c1-1,1.5-2.3,1.5-4c0-1.8-0.5-3.1-1.4-4.1c-0.9-0.9-2.4-1.4-4.4-1.4c-0.3,0-0.6,0-0.8,0
				c-0.3,0-0.6,0-0.8,0.1L62,23.2L62,23.2z"/>
			<path class="st11" d="M83,26.5c-1,0-2,0-2.9-0.1c-1-0.1-2-0.2-3-0.4V9.5c0.8-0.1,1.7-0.3,2.7-0.3c1-0.1,1.9-0.1,2.7-0.1
				c1.1,0,2.2,0.1,3.1,0.2c0.9,0.2,1.8,0.4,2.5,0.8c0.7,0.4,1.2,0.9,1.6,1.5s0.6,1.4,0.6,2.3c0,1.4-0.7,2.4-2.1,3.2
				c1.1,0.4,1.9,1,2.3,1.7s0.6,1.5,0.6,2.4c0,1.8-0.7,3.1-2.1,4C87.8,26.1,85.7,26.5,83,26.5z M81,16h2c1.2,0,2.1-0.1,2.7-0.5
				s0.8-0.8,0.8-1.5s-0.3-1.2-0.8-1.5c-0.6-0.3-1.4-0.4-2.4-0.4c-0.3,0-0.7,0-1.1,0s-0.8,0-1.1,0.1L81,16L81,16z M81,18.9v4.4
				c0.3,0,0.6,0.1,1,0.1c0.3,0,0.7,0,1.1,0c1.2,0,2.2-0.2,2.9-0.5c0.7-0.3,1.1-0.9,1.1-1.8c0-0.8-0.3-1.3-0.9-1.7
				c-0.6-0.3-1.5-0.5-2.7-0.5H81L81,18.9z"/>
		</g>
	</g>
</g>
</svg>
