<?xml version="1.0" encoding="utf-8"?>
<!-- Generator: Adobe Illustrator 21.0.0, SVG Export Plug-In . SVG Version: 6.00 Build 0)  -->
<svg version="1.1" id="图层_1" xmlns="http://www.w3.org/2000/svg" xmlns:xlink="http://www.w3.org/1999/xlink" x="0px" y="0px"
	 viewBox="0 0 128 128" style="enable-background:new 0 0 128 128;" xml:space="preserve">
<style type="text/css">
	.st0{opacity:0.2;enable-background:new    ;}
	.st1{opacity:0.08;enable-background:new    ;}
	.st2{opacity:0.1;enable-background:new    ;}
	.st3{fill:#1B5E20;}
	.st4{fill:url(#SVGID_1_);}
	.st5{opacity:0.8;fill:#FFFFFF;enable-background:new    ;}
</style>
<rect x="18.3" y="4" class="st0" width="91.4" height="120"/>
<rect x="18.3" y="4" class="st1" width="95.4" height="124"/>
<rect x="20.3" y="6" class="st2" width="91.4" height="120"/>
<rect x="20.3" y="6" class="st3" width="87.4" height="116"/>
<g>
	
		<linearGradient id="SVGID_1_" gradientUnits="userSpaceOnUse" x1="105.6001" y1="-794.9004" x2="105.6001" y2="-680.9004" gradientTransform="matrix(1 0 0 -1 -41.6001 -673.9004)">
		<stop  offset="0" style="stop-color:#388E3C"/>
		<stop  offset="0.0757" style="stop-color:#43953E"/>
		<stop  offset="0.3246" style="stop-color:#62A943"/>
		<stop  offset="0.5665" style="stop-color:#79B747"/>
		<stop  offset="0.796" style="stop-color:#86C049"/>
		<stop  offset="1" style="stop-color:#8BC34A"/>
	</linearGradient>
	<rect x="21.3" y="7" class="st4" width="85.4" height="114"/>
	<path class="st5" d="M66.2,28L66.2,28l-4.4-0.1V28H33.6v55h60.8V28H66.2z M38,44.3h13.6v8.8H38V44.3z M38,57.5h13.6v8.8H38V57.5z
		 M56.1,57.5h34v8.8h-34V57.5z M56.1,53.1v-8.8h34v8.8H56.1z M90,32.4V40H56v-7.6H90z M51.6,32.4V40H38v-7.6H51.6z M38,70.7h13.6
		v7.9H38V70.7z M56.1,78.6v-7.9h34v7.9H56.1z"/>
</g>
</svg>
