<?xml version="1.0" encoding="utf-8"?>
<!-- Generator: Adobe Illustrator 21.0.0, SVG Export Plug-In . SVG Version: 6.00 Build 0)  -->
<svg version="1.1" id="图层_1" xmlns="http://www.w3.org/2000/svg" xmlns:xlink="http://www.w3.org/1999/xlink" x="0px" y="0px"
	 viewBox="0 0 128 128" style="enable-background:new 0 0 128 128;" xml:space="preserve">
<style type="text/css">
	.st0{opacity:0.1;enable-background:new    ;}
	.st1{opacity:0.2;enable-background:new    ;}
	.st2{fill:#2D2183;}
	.st3{fill:url(#SVGID_1_);}
	.st4{fill:#5A4096;fill-opacity:0.3922;}
	.st5{fill:#FFFFFF;fill-opacity:0.3922;}
	.st6{opacity:0.8;fill:#FFFFFF;enable-background:new    ;}
</style>
<polygon class="st0" points="19.1,128 19.1,6 112.9,6 112.9,93.6 78.5,128 "/>
<polygon class="st0" points="21.1,126 21.1,8 110.9,8 110.9,92.7 77.7,126 "/>
<polygon class="st0" points="21.1,126 21.1,8 110.9,8 110.9,92.7 77.7,126 "/>
<polygon class="st1" points="19.1,124 19.1,6 108.9,6 108.9,90.7 75.7,124 "/>
<polygon class="st2" points="21.1,122 21.1,8 106.9,8 106.9,89.9 74.8,122 "/>
<g>
	<g>
		
			<linearGradient id="SVGID_1_" gradientUnits="userSpaceOnUse" x1="297.5996" y1="-986.0004" x2="297.5996" y2="-873.8004" gradientTransform="matrix(1 0 0 -1 -233.5996 -864.9004)">
			<stop  offset="0" style="stop-color:#4A3591"/>
			<stop  offset="8.000000e-03" style="stop-color:#4C3591"/>
			<stop  offset="0.1976" style="stop-color:#6A4498"/>
			<stop  offset="0.4086" style="stop-color:#82529E"/>
			<stop  offset="0.6159" style="stop-color:#965EA3"/>
			<stop  offset="0.8158" style="stop-color:#A165A7"/>
			<stop  offset="1" style="stop-color:#A567A8"/>
		</linearGradient>
		<polygon class="st3" points="22,121.1 22,8.9 106,8.9 106,89.5 74.5,121.1 		"/>
	</g>
	<polygon class="st4" points="106,89.5 106,88.2 72.7,88.2 72.7,121.1 74.5,121.1 	"/>
	<path class="st5" d="M74.4,89.5H106L74.5,121L74.4,89.5z"/>
</g>
<path class="st6" d="M47.4,35.8L47.4,35.8v14.1l0,0v4.3l0,0v20.7c-0.7-0.2-1.5-0.3-2.3-0.3c-3.8,0-6.9,2.2-6.9,5s3.1,5,6.9,5
	c3.8,0,6.9-2.2,6.9-5l0,0V53.3L77.8,48v19.7c-0.7-0.2-1.5-0.3-2.3-0.3c-3.8,0-6.9,2.2-6.9,5s3.1,5,6.9,5s6.9-2.2,6.9-5l0,0V34.7
	v-6.1L47.4,35.8z M77.8,43.6l-25.9,5.3v-8l25.9-5.3V43.6z"/>
</svg>
