<?xml version="1.0" encoding="utf-8"?>
<!-- Generator: Adobe Illustrator 16.0.0, SVG Export Plug-In . SVG Version: 6.00 Build 0)  -->
<!DOCTYPE svg PUBLIC "-//W3C//DTD SVG 1.1//EN" "http://www.w3.org/Graphics/SVG/1.1/DTD/svg11.dtd">
<svg version="1.1" id="图层_1" xmlns="http://www.w3.org/2000/svg" xmlns:xlink="http://www.w3.org/1999/xlink" x="0px" y="0px"
	 width="128px" height="128px" viewBox="0 0 128 128" enable-background="new 0 0 128 128" xml:space="preserve">
<polygon opacity="0.08" points="18.31,128 18.31,4 113.69,4 113.69,92.995 78.686,128 "/>
<polygon display="none" opacity="0.08" points="22.31,126 22.31,6 113.69,6 113.69,92.167 79.857,126 "/>
<polygon opacity="0.1" points="20.31,126 20.31,6 111.69,6 111.69,92.167 77.857,126 "/>
<polygon opacity="0.2" points="18.31,124 18.31,4 109.69,4 109.69,90.167 75.857,124 "/>
<polygon fill="#5F7B89" points="20.298,122 20.298,6 107.702,6 107.702,89.34 75.033,122 "/>
<g>
	<g>
		<g>
			
				<linearGradient id="SVGID_1_" gradientUnits="userSpaceOnUse" x1="105.6006" y1="425.8994" x2="105.6006" y2="539.9004" gradientTransform="matrix(1 0 0 1 -41.6001 -418.9004)">
				<stop  offset="0" style="stop-color:#F6F5F5"/>
				<stop  offset="0.341" style="stop-color:#F1F2F3"/>
				<stop  offset="0.6434" style="stop-color:#E7EAEB"/>
				<stop  offset="0.9302" style="stop-color:#D5DBDF"/>
				<stop  offset="1" style="stop-color:#CFD7DB"/>
			</linearGradient>
			<polygon fill="url(#SVGID_1_)" points="21.293,121 21.293,7 106.707,7 106.707,88.938 74.641,121 			"/>
		</g>
		<polygon fill="#455963" fill-opacity="0.7" points="106.707,88.938 106.707,87.559 72.885,87.559 72.885,121 74.641,121 		"/>
		<path fill="#8DA1AC" d="M74.592,88.938l32.115,0.043L74.641,121L74.592,88.938z"/>
	</g>
	<g>
		<rect x="32.314" y="41.771" opacity="0.8" fill="#5F7B89" enable-background="new    " width="63.324" height="3.133"/>
		<rect x="32.314" y="31.982" opacity="0.8" fill="#5F7B89" enable-background="new    " width="63.324" height="3.139"/>
		<rect x="62.531" y="50.982" opacity="0.8" fill="#5F7B89" enable-background="new    " width="33.055" height="33.061"/>
		<g opacity="0.8">
			<rect x="32.314" y="51.553" fill="#5F7B89" width="27.508" height="3.138"/>
			<rect x="32.314" y="61.344" fill="#5F7B89" width="27.508" height="3.134"/>
			<rect x="32.314" y="71.168" fill="#5F7B89" width="27.508" height="3.137"/>
			<rect x="32.314" y="80.959" fill="#5F7B89" width="27.508" height="3.133"/>
		</g>
	</g>
</g>
</svg>
