<?xml version="1.0" encoding="utf-8"?>
<!-- Generator: Adobe Illustrator 16.0.0, SVG Export Plug-In . SVG Version: 6.00 Build 0)  -->
<!DOCTYPE svg PUBLIC "-//W3C//DTD SVG 1.1//EN" "http://www.w3.org/Graphics/SVG/1.1/DTD/svg11.dtd">
<svg version="1.1" id="图层_1" xmlns="http://www.w3.org/2000/svg" xmlns:xlink="http://www.w3.org/1999/xlink" x="0px" y="0px"
	 width="128px" height="128px" viewBox="0 0 128 128" enable-background="new 0 0 128 128" xml:space="preserve">
<g id="surface1">
	<polygon opacity="0.2" enable-background="new    " points="18.5,124 18.5,4 109.5,4 109.5,90.203 75.703,124 	"/>
	<polygon opacity="0.08" enable-background="new    " points="18.5,128 18.5,4 113.5,4 113.5,93.031 78.531,128 	"/>
	<polygon opacity="0.1" enable-background="new    " points="20.5,126 20.5,6 111.5,6 111.5,92.203 77.703,126 	"/>
	<g>
		
			<linearGradient id="SVGID_1_" gradientUnits="userSpaceOnUse" x1="355.2012" y1="-2424.9316" x2="355.2012" y2="-2308.9316" gradientTransform="matrix(1 0 0 -1 -291.2012 -2302.9316)">
			<stop  offset="0" style="stop-color:#F57C00"/>
			<stop  offset="0.099" style="stop-color:#F78B0C"/>
			<stop  offset="0.3289" style="stop-color:#FAA823"/>
			<stop  offset="0.5576" style="stop-color:#FDBC33"/>
			<stop  offset="0.7827" style="stop-color:#FEC93D"/>
			<stop  offset="1" style="stop-color:#FFCD40"/>
		</linearGradient>
		<path fill="url(#SVGID_1_)" d="M74.875,122L107.5,89.375V6h-87v116H74.875z"/>
		<polygon fill="#EE6F0B" fill-opacity="0.3922" points="73.063,87.563 73.063,122 74.875,122 107.5,89.375 107.5,87.563 		"/>
		<path fill="#FFFFFF" fill-opacity="0.3922" d="M74.875,89.375h32.598L74.875,122V89.375z"/>
		<path fill="#B71C1C" fill-opacity="0.1961" d="M20.501,6v29H107.5V6H20.501z"/>
		<g>
			<path fill="#FFE0B2" d="M52.084,24.53c0,0.983-0.143,1.926-0.433,2.804c-0.268,0.866-0.729,1.634-1.396,2.302
				c-0.618,0.658-1.446,1.183-2.464,1.586c-1.021,0.368-2.25,0.561-3.717,0.561c-1.529,0-2.79-0.17-3.81-0.532
				c-1.021-0.354-1.882-0.786-2.59-1.296l1.712-3.22c0.618,0.35,1.284,0.689,2.006,1.016c0.758,0.34,1.508,0.496,2.302,0.496
				c1.156,0,2.095-0.264,2.79-0.822c0.72-0.568,1.09-1.613,1.09-3.13V14.32H40.05v-3.364h12.038V24.53"/>
			<path fill="#FFE0B2" d="M67.414,31.346l-1.07-4.71h-5.998l-1.021,4.708h-4.657c1.069-4.014,2.146-7.68,3.241-10.966
				c1.097-3.32,2.146-6.462,3.158-9.424h4.878c1.059,2.974,2.123,6.154,3.156,9.516c1.082,3.351,2.094,6.968,3.102,10.876H67.414
				 M63.399,14.906c-0.25,0.766-0.476,1.508-0.696,2.202c-0.184,0.68-0.382,1.359-0.579,2.054c-0.171,0.644-0.341,1.324-0.509,2.002
				c-0.144,0.68-0.286,1.386-0.434,2.11h4.412c-0.155-0.723-0.297-1.431-0.454-2.11c-0.136-0.68-0.304-1.36-0.5-2.002
				c-0.174-0.696-0.363-1.376-0.576-2.054C63.865,16.416,63.646,15.672,63.399,14.906"/>
			<path fill="#FFE0B2" d="M80.32,10.722c1.281,0,2.453,0.126,3.484,0.391c1.047,0.262,1.948,0.68,2.698,1.218
				c0.759,0.552,1.328,1.258,1.711,2.109c0.418,0.837,0.617,1.82,0.617,2.959c0,1.189-0.265,2.273-0.802,3.243
				c-0.538,0.956-1.413,1.694-2.653,2.202c0.418,0.572,0.853,1.204,1.312,1.912c0.467,0.68,0.914,1.408,1.344,2.18
				c0.434,0.736,0.854,1.494,1.234,2.267c0.414,0.75,0.772,1.466,1.061,2.146h-4.705c-0.549-1.317-1.203-2.578-1.959-3.794
				c-0.721-1.218-1.508-2.47-2.357-3.718h-2.328v7.512h-4.469v-20.1c0.434-0.092,0.893-0.17,1.418-0.227
				c0.523-0.092,1.061-0.142,1.586-0.17c0.543-0.048,1.047-0.077,1.527-0.092C79.535,10.722,79.953,10.722,80.32,10.722
				 M84.285,17.37c0-1.076-0.377-1.862-1.098-2.374c-0.72-0.496-1.681-0.758-2.869-0.758c-0.17,0-0.369,0.016-0.615,0.029
				c-0.25,0-0.496,0.036-0.729,0.078v6.124h0.975c1.523,0,2.633-0.262,3.313-0.788C83.945,19.126,84.285,18.354,84.285,17.37"/>
		</g>
		<g opacity="0.8">
			<path fill="#FFFFFF" d="M57.981,74.082c0,0-1.757,0.961,1.248,1.289c3.64,0.398,5.494,0.344,9.501-0.381
				c0,0,1.047,0.627,2.521,1.176C62.271,79.801,50.929,75.953,57.981,74.082"/>
			<path fill="#FFFFFF" d="M56.875,69.311c0,0-1.968,1.385,1.034,1.687c3.894,0.379,6.954,0.412,12.265-0.565
				c0,0,0.736,0.707,1.881,1.09C61.209,74.535,49.101,71.76,56.875,69.311"/>
			<path fill="#FFFFFF" d="M66.137,61.24c2.209,2.408-0.594,4.586-0.594,4.586s5.623-2.746,3.045-6.188
				c-2.408-3.214-4.265-4.813,5.748-10.321C74.336,49.316,58.631,53.04,66.137,61.24"/>
			<path fill="#FFFFFF" d="M78.004,77.609c0,0,1.301,1.004-1.43,1.785c-5.184,1.5-21.565,1.938-26.127,0.069
				c-1.626-0.68,1.43-1.616,2.408-1.813c1.006-0.211,1.571-0.17,1.571-0.17c-1.812-1.219-11.768,2.39-5.042,3.427
				C67.695,83.711,82.762,79.633,78.004,77.609"/>
			<path fill="#FFFFFF" d="M58.817,64.382c0,0-8.343,1.882-2.946,2.563c2.266,0.283,6.796,0.211,11.031-0.115
				c3.44-0.283,6.912-0.865,6.912-0.865s-1.217,0.492-2.097,1.063c-8.47,2.109-24.823,1.132-20.124-1.034
				C55.587,64.17,58.817,64.382,58.817,64.382"/>
			<path fill="#FFFFFF" d="M73.77,72.313c8.609-4.248,4.631-8.326,1.855-7.773c-0.68,0.143-0.975,0.256-0.975,0.256
				s0.24-0.382,0.736-0.538c5.491-1.828,9.711,5.408-1.785,8.271C73.602,72.523,73.742,72.41,73.77,72.313"/>
			<path fill="#FFFFFF" d="M68.588,40.438c0,0,4.771,4.519-4.519,11.471c-7.448,5.58-1.7,8.764,0,12.39
				c-4.347-3.708-7.546-6.994-5.408-10.04C61.803,49.784,70.514,47.618,68.588,40.438"/>
			<path fill="#FFFFFF" d="M59.665,83.797c8.257,0.508,20.944-0.27,21.257-3.98c0,0-0.582,1.402-6.84,2.523
				c-7.051,1.258-15.747,1.102-20.899,0.311C53.179,82.633,54.243,83.469,59.665,83.797"/>
		</g>
		<g>
			<path fill="#EE6F0B" d="M106.5,7v81.961L74.461,121H49.5h-28V7H106.5 M107.5,6h-87v116h29h25.375L107.5,89.375V6L107.5,6z"/>
		</g>
	</g>
</g>
</svg>
