<?xml version="1.0" encoding="utf-8"?>
<!-- Generator: Adobe Illustrator 16.0.0, SVG Export Plug-In . SVG Version: 6.00 Build 0)  -->
<!DOCTYPE svg PUBLIC "-//W3C//DTD SVG 1.1//EN" "http://www.w3.org/Graphics/SVG/1.1/DTD/svg11.dtd">
<svg version="1.1" id="图层_1" xmlns="http://www.w3.org/2000/svg" xmlns:xlink="http://www.w3.org/1999/xlink" x="0px" y="0px"
	 width="128px" height="128px" viewBox="0 0 128 128" enable-background="new 0 0 128 128" xml:space="preserve">
<polygon opacity="0.08" enable-background="new    " points="18.31,128 18.31,4 113.689,4 113.689,92.995 78.686,128 "/>
<polygon display="none" opacity="0.08" enable-background="new    " points="22.31,126 22.31,6 113.689,6 113.689,92.167 
	79.857,126 "/>
<polygon opacity="0.1" enable-background="new    " points="20.31,126 20.31,6 111.689,6 111.689,92.167 77.857,126 "/>
<polygon opacity="0.2" enable-background="new    " points="18.31,124 18.31,4 109.689,4 109.689,90.167 75.857,124 "/>
<polygon fill="#3E2723" points="20.298,122 20.298,6 107.702,6 107.702,89.34 75.033,122 "/>
<g>
	<g>
		
			<linearGradient id="SVGID_1_" gradientUnits="userSpaceOnUse" x1="105.6035" y1="-42.9004" x2="105.6035" y2="-156.9009" gradientTransform="matrix(1 0 0 -1 -41.6001 -35.9004)">
			<stop  offset="0" style="stop-color:#785548"/>
			<stop  offset="1" style="stop-color:#9F9E9F"/>
		</linearGradient>
		<polygon fill="url(#SVGID_1_)" points="21.298,121 21.298,7 106.709,7 106.709,88.893 74.959,121 		"/>
		<polygon fill="#795548" fill-opacity="0.7" points="106.709,88.938 106.709,87.557 72.895,87.557 72.895,121 74.646,121 		"/>
		<path opacity="0.39" fill="#FFFFFF" enable-background="new    " d="M74.602,88.938l32.107,0.045L74.646,121L74.602,88.938z"/>
	</g>
	<path fill="#FFFFFF" d="M51.817,28.976h-2.895v37.02H46.74v-37.02h-2.879v37.02h-2.182v-37.02h-2.88v37.02h-2.182v-37.02h-2.88
		v37.02H32.98v15.683h19.816V65.996h-0.98V28.976z M49.917,77.122H35.86V68.03h14.057V77.122z"/>
	<g>
		<rect x="21.276" y="7" opacity="0.8" fill="#FFFFFF" enable-background="new    " width="85.449" height="21.85"/>
		<g enable-background="new    ">
			<path fill="#5D4037" d="M43.564,9.215c2.687,0,4.75,0.457,6.182,1.366c1.433,0.909,2.145,2.323,2.145,4.238
				c0,1.195-0.29,2.167-0.868,2.913c-0.572,0.746-1.41,1.329-2.494,1.755c0.363,0.427,0.742,0.913,1.135,1.462
				c0.401,0.549,0.794,1.117,1.18,1.726c0.386,0.594,0.765,1.217,1.128,1.863c0.356,0.646,0.698,1.284,1.01,1.907H48.47
				c-0.334-0.564-0.661-1.128-1.002-1.7c-0.334-0.571-0.683-1.128-1.039-1.67c-0.356-0.542-0.705-1.054-1.054-1.536
				c-0.342-0.482-0.69-0.92-1.032-1.314h-1.997v6.22h-4.03V9.657c0.876-0.164,1.789-0.278,2.724-0.342
				C41.983,9.249,42.822,9.215,43.564,9.215z M43.794,12.485c-0.29,0-0.557,0.007-0.787,0.026c-0.23,0.015-0.453,0.03-0.661,0.048
				v4.62h1.143c1.514,0,2.598-0.182,3.258-0.542c0.653-0.36,0.979-0.976,0.979-1.844c0-0.835-0.334-1.429-0.995-1.781
				C46.065,12.659,45.093,12.485,43.794,12.485z"/>
			<path fill="#5D4037" d="M68.391,26.445c-0.201-0.594-0.408-1.202-0.646-1.826c-0.223-0.624-0.461-1.247-0.684-1.863h-7.005
				c-0.223,0.616-0.445,1.239-0.676,1.863c-0.229,0.624-0.438,1.232-0.631,1.826h-4.193c0.675-1.841,1.313-3.533,1.922-5.091
				c0.601-1.555,1.194-3.021,1.773-4.397c0.579-1.377,1.15-2.683,1.715-3.919c0.563-1.236,1.143-2.445,1.751-3.625h3.822
				c0.588,1.18,1.166,2.39,1.744,3.625c0.564,1.236,1.145,2.542,1.723,3.919c0.578,1.376,1.172,2.842,1.781,4.397
				c0.609,1.559,1.246,3.25,1.93,5.091H68.391z M63.543,13.271c-0.089,0.245-0.223,0.583-0.4,1.009
				c-0.164,0.427-0.371,0.917-0.587,1.473c-0.223,0.561-0.468,1.173-0.742,1.845c-0.274,0.671-0.557,1.373-0.839,2.111h5.128
				c-0.273-0.738-0.541-1.443-0.793-2.119c-0.26-0.671-0.506-1.288-0.736-1.844c-0.229-0.56-0.437-1.05-0.608-1.477
				C63.795,13.847,63.647,13.513,63.543,13.271z"/>
			<path fill="#5D4037" d="M80.258,9.215c2.693,0,4.758,0.457,6.189,1.366c1.426,0.909,2.145,2.323,2.145,4.238
				c0,1.195-0.289,2.167-0.867,2.913c-0.58,0.746-1.41,1.329-2.494,1.755c0.355,0.427,0.742,0.913,1.135,1.462
				c0.395,0.549,0.795,1.117,1.18,1.726c0.387,0.594,0.758,1.217,1.129,1.863c0.355,0.646,0.697,1.284,1.01,1.907H85.17
				c-0.334-0.564-0.668-1.128-1.002-1.7c-0.334-0.571-0.689-1.128-1.039-1.67c-0.355-0.542-0.705-1.054-1.053-1.536
				c-0.35-0.482-0.691-0.92-1.031-1.314h-1.998v6.22h-4.029V9.657c0.875-0.164,1.781-0.278,2.725-0.342
				C78.684,9.249,79.523,9.215,80.258,9.215z M80.494,12.485c-0.297,0-0.557,0.007-0.785,0.026c-0.238,0.015-0.453,0.03-0.662,0.048
				v4.62h1.137c1.514,0,2.605-0.182,3.266-0.542c0.652-0.36,0.979-0.976,0.979-1.844c0-0.835-0.334-1.429-0.994-1.781
				C82.766,12.659,81.787,12.485,80.494,12.485z"/>
		</g>
	</g>
</g>
</svg>
