<?xml version="1.0" encoding="utf-8"?>
<!-- Generator: Adobe Illustrator 16.0.0, SVG Export Plug-In . SVG Version: 6.00 Build 0)  -->
<!DOCTYPE svg PUBLIC "-//W3C//DTD SVG 1.1//EN" "http://www.w3.org/Graphics/SVG/1.1/DTD/svg11.dtd">
<svg version="1.1" id="图层_1" xmlns="http://www.w3.org/2000/svg" xmlns:xlink="http://www.w3.org/1999/xlink" x="0px" y="0px"
	 width="128px" height="128px" viewBox="0 0 128 128" enable-background="new 0 0 128 128" xml:space="preserve">
<polygon opacity="0.08" enable-background="new    " points="18.31,128 18.31,4 113.689,4 113.689,92.995 78.686,128 "/>
<polygon display="none" opacity="0.08" enable-background="new    " points="22.31,126 22.31,6 113.689,6 113.689,92.167 
	79.857,126 "/>
<polygon opacity="0.1" enable-background="new    " points="20.31,126 20.31,6 111.689,6 111.689,92.167 77.857,126 "/>
<polygon opacity="0.2" enable-background="new    " points="18.31,124 18.31,4 109.689,4 109.689,90.167 75.857,124 "/>
<polygon fill="#3E2723" points="20.298,122 20.298,6 107.702,6 107.702,89.34 75.033,122 "/>
<g>
	<g>
		
			<linearGradient id="SVGID_1_" gradientUnits="userSpaceOnUse" x1="105.6035" y1="-42.9004" x2="105.6035" y2="-156.9009" gradientTransform="matrix(1 0 0 -1 -41.6001 -35.9004)">
			<stop  offset="0" style="stop-color:#785548"/>
			<stop  offset="1" style="stop-color:#9F9E9F"/>
		</linearGradient>
		<polygon fill="url(#SVGID_1_)" points="21.298,121 21.298,7 106.709,7 106.709,88.893 74.959,121 		"/>
		<polygon fill="#795548" fill-opacity="0.7" points="106.709,88.938 106.709,87.557 72.895,87.557 72.895,121 74.646,121 		"/>
		<path opacity="0.39" fill="#FFFFFF" enable-background="new    " d="M74.602,88.938l32.107,0.045L74.646,121L74.602,88.938z"/>
	</g>
	<path fill="#FFFFFF" d="M51.817,28.976h-2.895v37.02H46.74v-37.02h-2.879v37.02h-2.182v-37.02h-2.88v37.02h-2.182v-37.02h-2.88
		v37.02H32.98v15.683h19.816V65.996h-0.98V28.976z M49.917,77.122H35.86V68.03h14.057V77.122z"/>
	<g>
		<rect x="21.276" y="7" opacity="0.8" fill="#FFFFFF" enable-background="new    " width="85.449" height="21.85"/>
		<g enable-background="new    ">
			<path fill="#5D4037" d="M50.741,12.065c-0.549,0.542-1.209,1.243-1.967,2.104c-0.757,0.857-1.543,1.796-2.353,2.813
				c-0.809,1.013-1.611,2.063-2.405,3.143c-0.794,1.083-1.507,2.115-2.123,3.099h9.136v3.217H36.929v-2.286
				c0.482-0.835,1.076-1.763,1.774-2.787c0.698-1.024,1.425-2.056,2.182-3.099c0.764-1.039,1.536-2.044,2.315-3.021
				c0.787-0.976,1.514-1.848,2.189-2.616h-8.045V9.412h13.396V12.065z"/>
			<path fill="#5D4037" d="M70.631,17.914c0,1.458-0.223,2.742-0.682,3.848c-0.461,1.106-1.084,2.03-1.871,2.776
				c-0.801,0.746-1.736,1.306-2.836,1.681c-1.097,0.379-2.27,0.568-3.532,0.568c-1.225,0-2.375-0.189-3.466-0.568
				c-1.092-0.375-2.034-0.935-2.843-1.681c-0.816-0.746-1.455-1.67-1.915-2.776c-0.467-1.106-0.705-2.39-0.705-3.848
				c0-1.458,0.245-2.739,0.735-3.845c0.475-1.106,1.128-2.034,1.944-2.791c0.824-0.753,1.766-1.317,2.85-1.692
				c1.076-0.378,2.212-0.568,3.399-0.568c1.225,0,2.375,0.189,3.465,0.568c1.092,0.375,2.033,0.939,2.844,1.692
				c0.816,0.757,1.453,1.685,1.914,2.791C70.4,15.175,70.631,16.456,70.631,17.914z M56.953,17.914c0,0.835,0.111,1.592,0.319,2.26
				c0.223,0.675,0.527,1.25,0.936,1.733c0.4,0.486,0.897,0.857,1.484,1.121c0.586,0.26,1.262,0.394,2.019,0.394
				c0.742,0,1.41-0.134,2.004-0.394c0.594-0.263,1.098-0.634,1.499-1.121c0.408-0.482,0.713-1.058,0.936-1.733
				c0.207-0.668,0.326-1.425,0.326-2.26s-0.119-1.592-0.326-2.271c-0.223-0.679-0.527-1.262-0.936-1.744
				c-0.4-0.482-0.905-0.857-1.499-1.121c-0.594-0.26-1.262-0.393-2.004-0.393c-0.757,0-1.433,0.137-2.019,0.408
				c-0.587,0.271-1.084,0.646-1.484,1.128c-0.408,0.486-0.713,1.065-0.936,1.744C57.064,16.348,56.953,17.098,56.953,17.914z"/>
			<path fill="#5D4037" d="M91.07,17.914c0,1.458-0.236,2.742-0.689,3.848s-1.084,2.03-1.877,2.776
				c-0.787,0.746-1.738,1.306-2.836,1.681c-1.092,0.379-2.271,0.568-3.525,0.568c-1.225,0-2.383-0.189-3.467-0.568
				c-1.082-0.375-2.033-0.935-2.85-1.681c-0.801-0.746-1.439-1.67-1.906-2.776c-0.469-1.106-0.705-2.39-0.705-3.848
				c0-1.458,0.252-2.739,0.727-3.845c0.49-1.106,1.135-2.034,1.959-2.791c0.816-0.753,1.768-1.317,2.844-1.692
				c1.076-0.378,2.203-0.568,3.398-0.568c1.225,0,2.383,0.189,3.467,0.568c1.082,0.375,2.033,0.939,2.85,1.692
				c0.801,0.757,1.439,1.685,1.914,2.791C90.834,15.175,91.07,16.456,91.07,17.914z M77.385,17.914c0,0.835,0.104,1.592,0.326,2.26
				c0.209,0.675,0.52,1.25,0.928,1.733c0.408,0.486,0.898,0.857,1.484,1.121c0.588,0.26,1.262,0.394,2.02,0.394
				c0.742,0,1.41-0.134,2.004-0.394c0.602-0.263,1.092-0.634,1.506-1.121c0.402-0.482,0.713-1.058,0.922-1.733
				c0.223-0.668,0.326-1.425,0.326-2.26s-0.104-1.592-0.326-2.271c-0.209-0.679-0.52-1.262-0.922-1.744
				c-0.414-0.482-0.904-0.857-1.506-1.121c-0.594-0.26-1.262-0.393-2.004-0.393c-0.758,0-1.432,0.137-2.02,0.408
				c-0.586,0.271-1.076,0.646-1.484,1.128c-0.408,0.486-0.719,1.065-0.928,1.744C77.488,16.348,77.385,17.098,77.385,17.914z"/>
		</g>
	</g>
</g>
</svg>
