<?xml version="1.0" encoding="utf-8"?>
<!-- Generator: Adobe Illustrator 21.0.0, SVG Export Plug-In . SVG Version: 6.00 Build 0)  -->
<svg version="1.1" id="图层_1" xmlns="http://www.w3.org/2000/svg" xmlns:xlink="http://www.w3.org/1999/xlink" x="0px" y="0px"
	 viewBox="0 0 128 128" style="enable-background:new 0 0 128 128;" xml:space="preserve">
<style type="text/css">
	.st0{opacity:0.2;enable-background:new    ;}
	.st1{opacity:0.08;enable-background:new    ;}
	.st2{opacity:0.1;enable-background:new    ;}
	.st3{fill:url(#SVGID_1_);}
	.st4{fill:#B71C1C;fill-opacity:0.3922;}
	.st5{fill:#FFFFFF;fill-opacity:0.3922;}
	.st6{opacity:0.8;fill:#FFFFFF;enable-background:new    ;}
	.st7{fill:#B71C1C;}
</style>
<g id="surface1">
	<polygon class="st0" points="18.5,124 18.5,4 109.5,4 109.5,90.2 75.7,124 	"/>
	<polygon class="st1" points="18.5,128 18.5,4 113.5,4 113.5,93 78.5,128 	"/>
	<polygon class="st2" points="20.5,126 20.5,6 111.5,6 111.5,92.2 77.7,126 	"/>
	
		<linearGradient id="SVGID_1_" gradientUnits="userSpaceOnUse" x1="230.4004" y1="2337.9609" x2="230.4004" y2="2221.9609" gradientTransform="matrix(1 0 0 1 -166.4004 -2215.9609)">
		<stop  offset="0" style="stop-color:#512DA8"/>
		<stop  offset="8.000000e-03" style="stop-color:#D32F2F"/>
		<stop  offset="0.0898" style="stop-color:#DA352D"/>
		<stop  offset="0.3994" style="stop-color:#EE4827"/>
		<stop  offset="0.705" style="stop-color:#FB5323"/>
		<stop  offset="1" style="stop-color:#FF5722"/>
	</linearGradient>
	<path class="st3" d="M74.9,122l32.6-32.6V6h-87v116H74.9z"/>
	<polygon class="st4" points="73.1,87.6 73.1,122 74.9,122 107.5,89.4 107.5,87.6 	"/>
	<path class="st5" d="M74.9,89.4h32.6L74.9,122V89.4z"/>
	<path class="st6" d="M41.1,70.4l1.3,9.7c0,0,16.7,5.3,25.1-18.7h14.6V50.7H73c0,0,4.2-11.1,13.7-12.1c0-0.2-1-9.2-1-9.2
		s-15.5-2.1-24.9,20.9C52.6,72.7,41.1,70.4,41.1,70.4z"/>
	<g>
		<path class="st7" d="M106.5,7v82l-32,32h-25h-28V7H106.5 M107.5,6h-87v116h29h25.4l32.6-32.6V6L107.5,6z"/>
	</g>
</g>
</svg>
