<?xml version="1.0" encoding="utf-8"?>
<!-- Generator: Adobe Illustrator 16.0.0, SVG Export Plug-In . SVG Version: 6.00 Build 0)  -->
<!DOCTYPE svg PUBLIC "-//W3C//DTD SVG 1.1//EN" "http://www.w3.org/Graphics/SVG/1.1/DTD/svg11.dtd">
<svg version="1.1" id="图层_1" xmlns="http://www.w3.org/2000/svg" xmlns:xlink="http://www.w3.org/1999/xlink" x="0px" y="0px"
	 width="128px" height="128px" viewBox="0 0 128 128" enable-background="new 0 0 128 128" xml:space="preserve">
<g id="surface1">
	<polygon opacity="0.2" enable-background="new    " points="18.5,124 18.5,4 109.5,4 109.5,90.203 75.703,124 	"/>
	<polygon opacity="0.08" enable-background="new    " points="18.5,128 18.5,4 113.5,4 113.5,93.031 78.531,128 	"/>
	<polygon opacity="0.1" enable-background="new    " points="20.5,126 20.5,6 111.5,6 111.5,92.203 77.703,126 	"/>
	<g>
		
			<linearGradient id="SVGID_1_" gradientUnits="userSpaceOnUse" x1="272.001" y1="-1711.9512" x2="272.001" y2="-1595.9512" gradientTransform="matrix(1 0 0 -1 -208.0005 -1589.9512)">
			<stop  offset="0" style="stop-color:#F57C00"/>
			<stop  offset="0.099" style="stop-color:#F78B0C"/>
			<stop  offset="0.3289" style="stop-color:#FAA823"/>
			<stop  offset="0.5576" style="stop-color:#FDBC33"/>
			<stop  offset="0.7827" style="stop-color:#FEC93D"/>
			<stop  offset="1" style="stop-color:#FFCD40"/>
		</linearGradient>
		<path fill="url(#SVGID_1_)" d="M74.875,122L107.5,89.375V6h-87v116H74.875z"/>
		<polygon fill="#EE6F0B" fill-opacity="0.3922" points="73.063,87.563 73.063,122 74.875,122 107.5,89.375 107.5,87.563 		"/>
		<path fill="#FFFFFF" fill-opacity="0.3922" d="M74.875,89.375h32.598L74.875,122V89.375z"/>
		<g>
			<path fill="#EE6F0B" d="M106.5,7v81.961L74.461,121H49.5h-28V7H106.5 M107.5,6h-87v116h29h25.375L107.5,89.375V6L107.5,6z"/>
		</g>
	</g>
</g>
<g opacity="0.8">
	<path fill="#FFFFFF" d="M56.162,70.41c0,0-2.287,1.268,1.621,1.693c4.744,0.516,7.158,0.445,12.377-0.496
		c0,0,1.359,0.807,3.277,1.508C61.748,77.873,46.986,72.84,56.162,70.41"/>
	<path fill="#FFFFFF" d="M54.725,64.215c0,0-2.563,1.807,1.346,2.174c5.07,0.496,9.055,0.539,15.965-0.721
		c0,0,0.963,0.926,2.457,1.422C60.367,71.02,44.607,67.402,54.725,64.215"/>
	<path fill="#FFFFFF" d="M66.783,53.709c2.873,3.129-0.771,5.969-0.771,5.969s7.32-3.598,3.965-8.072
		c-3.137-4.184-5.551-6.25,7.482-13.423C77.459,38.183,57.012,43.031,66.783,53.709"/>
	<path fill="#FFFFFF" d="M82.23,74.998c0,0,1.699,1.332-1.861,2.344c-6.748,1.934-28.08,2.521-34.014,0.072
		c-2.117-0.865,1.863-2.104,3.137-2.344c1.311-0.277,2.047-0.221,2.047-0.221c-2.365-1.586-15.32,3.102-6.563,4.447
		C68.814,82.965,88.426,77.654,82.23,74.998"/>
	<path fill="#FFFFFF" d="M57.254,57.801c0,0-10.863,2.43-3.84,3.314c2.953,0.389,8.852,0.297,14.367-0.148
		c4.475-0.348,8.992-1.105,8.992-1.105s-1.586,0.631-2.727,1.389c-11.023,2.746-32.32,1.451-26.195-1.354
		C53.047,57.525,57.254,57.801,57.254,57.801"/>
	<path fill="#FFFFFF" d="M76.723,68.104C87.93,62.594,82.748,57.285,79.137,58c-0.885,0.17-1.273,0.332-1.273,0.332
		s0.311-0.496,0.955-0.701c7.158-2.393,12.652,7.023-2.322,10.77C76.496,68.4,76.68,68.252,76.723,68.104"/>
	<path fill="#FFFFFF" d="M69.977,26.621c0,0,6.209,5.883-5.885,14.938c-9.699,7.258-2.217,11.393,0,16.129
		c-5.656-4.85-9.826-9.105-7.045-13.07C61.141,38.791,72.482,35.974,69.977,26.621"/>
	<path fill="#FFFFFF" d="M58.357,83.078c10.748,0.643,27.266-0.377,27.676-5.184c0,0-0.758,1.826-8.906,3.277
		c-9.184,1.621-20.504,1.438-27.209,0.391C49.918,81.563,51.299,82.652,58.357,83.078"/>
</g>
</svg>
