<?xml version="1.0" encoding="utf-8"?>
<!-- Generator: Adobe Illustrator 16.0.0, SVG Export Plug-In . SVG Version: 6.00 Build 0)  -->
<!DOCTYPE svg PUBLIC "-//W3C//DTD SVG 1.1//EN" "http://www.w3.org/Graphics/SVG/1.1/DTD/svg11.dtd">
<svg version="1.1" id="图层_1" xmlns="http://www.w3.org/2000/svg" xmlns:xlink="http://www.w3.org/1999/xlink" x="0px" y="0px"
	 width="128px" height="128px" viewBox="0 0 128 128" enable-background="new 0 0 128 128" xml:space="preserve">
<polygon opacity="0.08" enable-background="new    " points="18.31,128 18.31,4 113.689,4 113.689,92.995 78.686,128 "/>
<polygon display="none" opacity="0.08" enable-background="new    " points="22.31,126 22.31,6 113.689,6 113.689,92.167 
	79.857,126 "/>
<polygon opacity="0.1" enable-background="new    " points="20.31,126 20.31,6 111.689,6 111.689,92.167 77.857,126 "/>
<polygon opacity="0.2" enable-background="new    " points="18.31,124 18.31,4 109.689,4 109.689,90.167 75.857,124 "/>
<polygon fill="#1B5E20" points="20.298,122 20.298,6 107.702,6 107.702,89.339 75.033,122 "/>
<g>
	<g>
		<g>
			<g>
				<g>
					
						<linearGradient id="SVGID_1_" gradientUnits="userSpaceOnUse" x1="147.1934" y1="-575.8003" x2="147.1934" y2="-461.8008" gradientTransform="matrix(1 0 0 -1 -83.2002 -454.8008)">
						<stop  offset="0" style="stop-color:#388E3C"/>
						<stop  offset="0.0757" style="stop-color:#43953E"/>
						<stop  offset="0.3246" style="stop-color:#62A943"/>
						<stop  offset="0.5665" style="stop-color:#79B747"/>
						<stop  offset="0.796" style="stop-color:#86C049"/>
						<stop  offset="1" style="stop-color:#8BC34A"/>
					</linearGradient>
					<polygon fill="url(#SVGID_1_)" points="21.287,121 21.287,7 106.697,7 106.697,88.938 74.635,121 					"/>
				</g>
				<polygon fill="#1B5E20" fill-opacity="0.39" points="106.697,88.938 106.697,87.557 72.876,87.557 72.876,121 74.635,121 				
					"/>
				<path fill="#FFFFFF" fill-opacity="0.3922" d="M74.591,88.938l32.114,0.045L74.635,121L74.591,88.938z"/>
			</g>
			<path opacity="0.8" fill="#FFFFFF" enable-background="new    " d="M66.107,32.175v-0.096h-4.223v0.096H34.639v53.104h58.707
				V32.175H66.107z M38.862,47.943h13.106v8.483H38.862V47.943z M38.862,60.653h13.106v8.476H38.862V60.653z M56.333,60.653h32.79
				v8.476h-32.79V60.653z M56.333,56.426v-8.483h32.79v8.483H56.333z M89.123,36.439v7.292h-32.79v-7.292H89.123z M51.969,36.439
				v7.292H38.862v-7.292H51.969z M38.862,73.396h13.106v7.622H38.862V73.396z M56.333,81.019v-7.622h32.79v7.622H56.333z"/>
		</g>
	</g>
	<g>
		<g>
			<rect x="21.272" y="7" opacity="0.8" fill="#FFFFFF" enable-background="new    " width="85.455" height="21.85"/>
		</g>
		<g enable-background="new    ">
			<path fill="#38883B" d="M55.739,17.788c0,1.458-0.237,2.743-0.698,3.848c-0.445,1.106-1.083,2.034-1.87,2.776
				c-0.786,0.742-1.736,1.306-2.835,1.677c-1.099,0.386-2.271,0.572-3.533,0.572c-1.217,0-2.374-0.186-3.458-0.572
				c-1.084-0.371-2.033-0.935-2.85-1.677c-0.802-0.742-1.44-1.67-1.915-2.776c-0.46-1.105-0.698-2.39-0.698-3.848
				s0.253-2.739,0.728-3.844c0.49-1.106,1.128-2.034,1.96-2.791c0.816-0.753,1.766-1.317,2.835-1.692
				c1.083-0.378,2.212-0.568,3.398-0.568c1.232,0,2.391,0.189,3.474,0.568c1.084,0.375,2.034,0.939,2.851,1.692
				c0.801,0.757,1.439,1.685,1.914,2.791C55.502,15.049,55.739,16.329,55.739,17.788z M42.054,17.788
				c0,0.835,0.104,1.592,0.326,2.26c0.208,0.675,0.52,1.25,0.92,1.733c0.416,0.486,0.906,0.857,1.484,1.117
				c0.594,0.268,1.262,0.401,2.019,0.401c0.742,0,1.41-0.133,2.004-0.401c0.609-0.26,1.099-0.631,1.515-1.117
				c0.4-0.482,0.712-1.058,0.92-1.733c0.223-0.668,0.327-1.425,0.327-2.26s-0.104-1.592-0.327-2.271
				c-0.208-0.679-0.52-1.262-0.92-1.744c-0.416-0.482-0.905-0.857-1.515-1.121c-0.594-0.26-1.262-0.394-2.004-0.394
				c-0.757,0-1.425,0.137-2.019,0.408c-0.578,0.271-1.068,0.646-1.484,1.128c-0.4,0.486-0.712,1.065-0.92,1.744
				C42.157,16.222,42.054,16.971,42.054,17.788z"/>
			<path fill="#38883B" d="M74.799,17.788c0,1.477-0.253,2.761-0.728,3.859c-0.49,1.102-1.173,2.008-2.063,2.728
				c-0.876,0.72-1.959,1.262-3.236,1.625c-1.276,0.356-2.716,0.534-4.305,0.534c-0.712,0-1.559-0.029-2.523-0.089
				c-0.965-0.052-1.914-0.171-2.85-0.356V9.509c0.936-0.164,1.9-0.275,2.909-0.334c1.01-0.056,1.87-0.085,2.598-0.085
				c1.544,0,2.925,0.163,4.187,0.494c1.246,0.326,2.315,0.842,3.221,1.547c0.891,0.705,1.573,1.607,2.063,2.702
				C74.546,14.93,74.799,16.248,74.799,17.788z M63.131,23.194c0.193,0.015,0.401,0.03,0.653,0.037
				c0.253,0.008,0.55,0.008,0.891,0.008c2.019,0,3.519-0.475,4.498-1.444c0.965-0.968,1.454-2.304,1.454-4.008
				c0-1.785-0.46-3.136-1.395-4.052c-0.936-0.917-2.405-1.377-4.424-1.377c-0.268,0-0.564,0.004-0.846,0.011
				c-0.297,0.011-0.579,0.03-0.832,0.063V23.194z"/>
			<path fill="#38883B" d="M83.052,23.388c0.563,0,1.039-0.045,1.41-0.134s0.668-0.208,0.891-0.371
				c0.223-0.148,0.371-0.334,0.46-0.549c0.089-0.211,0.134-0.449,0.134-0.712c0-0.557-0.282-1.021-0.831-1.388
				c-0.55-0.368-1.5-0.765-2.851-1.191c-0.579-0.197-1.173-0.423-1.751-0.675c-0.594-0.252-1.113-0.575-1.574-0.958
				c-0.475-0.386-0.846-0.854-1.143-1.403s-0.445-1.217-0.445-2c0-0.787,0.163-1.496,0.475-2.126
				c0.313-0.631,0.742-1.169,1.307-1.61c0.579-0.442,1.262-0.783,2.078-1.021c0.802-0.238,1.722-0.356,2.746-0.356
				c1.202,0,2.241,0.123,3.117,0.371c0.891,0.245,1.604,0.516,2.182,0.809l-1.172,3.024c-0.49-0.249-1.055-0.464-1.663-0.653
				c-0.608-0.189-1.351-0.282-2.212-0.282c-0.965,0-1.662,0.126-2.078,0.382c-0.43,0.252-0.638,0.642-0.638,1.166
				c0,0.312,0.074,0.575,0.237,0.787c0.148,0.211,0.371,0.404,0.653,0.579c0.282,0.17,0.608,0.326,0.979,0.464
				c0.371,0.141,0.787,0.286,1.232,0.43c0.935,0.331,1.736,0.653,2.434,0.972c0.684,0.319,1.262,0.69,1.723,1.117
				c0.46,0.427,0.801,0.928,1.023,1.499c0.223,0.575,0.327,1.27,0.327,2.089c0,1.592-0.579,2.824-1.752,3.7
				c-1.173,0.876-2.938,1.314-5.299,1.314c-0.802,0-1.515-0.052-2.152-0.141c-0.639-0.089-1.202-0.193-1.692-0.327
				c-0.49-0.133-0.92-0.267-1.276-0.416c-0.342-0.148-0.639-0.29-0.891-0.416l1.143-3.05c0.534,0.274,1.188,0.527,1.975,0.75
				C80.943,23.284,81.908,23.388,83.052,23.388z"/>
		</g>
	</g>
</g>
</svg>
