<?xml version="1.0" encoding="utf-8"?>
<!-- Generator: Adobe Illustrator 21.0.0, SVG Export Plug-In . SVG Version: 6.00 Build 0)  -->
<svg version="1.1" id="图层_1" xmlns="http://www.w3.org/2000/svg" xmlns:xlink="http://www.w3.org/1999/xlink" x="0px" y="0px"
	 viewBox="0 0 128 128" style="enable-background:new 0 0 128 128;" xml:space="preserve">
<style type="text/css">
	.st0{opacity:0.2;enable-background:new    ;}
	.st1{opacity:0.08;enable-background:new    ;}
	.st2{opacity:0.1;enable-background:new    ;}
	.st3{fill:url(#SVGID_1_);}
	.st4{fill:#263238;fill-opacity:0.3922;}
	.st5{fill:#FFFFFF;fill-opacity:0.3922;}
	.st6{opacity:0.8;}
	.st7{fill:#FFFFFF;}
	.st8{fill:#CFD8DC;}
	.st9{fill:#263238;}
</style>
<g id="surface1">
	<polygon class="st0" points="18.5,124 18.5,4 109.5,4 109.5,90.2 75.7,124 	"/>
	<polygon class="st1" points="18.5,128 18.5,4 113.5,4 113.5,93 78.5,128 	"/>
	<polygon class="st2" points="20.5,126 20.5,6 111.5,6 111.5,92.2 77.7,126 	"/>
</g>
<linearGradient id="SVGID_1_" gradientUnits="userSpaceOnUse" x1="230.4004" y1="2337.9609" x2="230.4004" y2="2221.9609" gradientTransform="matrix(1 0 0 1 -166.4004 -2215.9609)">
	<stop  offset="0" style="stop-color:#455A64"/>
	<stop  offset="0.0238" style="stop-color:#465C66"/>
	<stop  offset="0.3557" style="stop-color:#556E7A"/>
	<stop  offset="0.6835" style="stop-color:#5D7987"/>
	<stop  offset="1" style="stop-color:#607D8B"/>
</linearGradient>
<path class="st3" d="M74.9,122l32.6-32.6V6h-87v116H74.9z"/>
<polygon class="st4" points="73.1,87.6 73.1,122 74.9,122 107.5,89.4 107.5,87.6 "/>
<path class="st5" d="M74.9,89.4h32.6L74.9,122V89.4z"/>
<g class="st6">
	<path class="st7" d="M52.8,33.2c-8.3,0-18.8,7.9-18.7,20.1c0.1,11.8,4,18.2,7,25.5l8.9-3.7c-2-4.2-4.7-8.3-5.7-10.4
		c-2.6-5.8-3.5-8.4-3.3-12.8c0.2-4.2,1.6-6.8,4.2-9.4c2.6-2.5,6.2-3.8,10.5-3.2c6.2,0.8,9.5,4.3,11,7.5c0.9-0.1,1.8-0.2,2.8-0.2
		c0.8,0,1.6,0.1,2.3,0.2C70.2,40.3,62,33.2,52.8,33.2z M56.5,44.7c-3.8-0.2-9.3,1.6-9.3,7.4c0,5.5,3.5,9.6,7.5,11.3
		c-0.1-1.4,0-2.9,0.2-4.5c-2.2-1.2-3.6-3.3-3.8-6.3c-0.3-3.3,3.1-6.7,8.3-5c0.8,0.3,0.9-1.2-0.1-2C58.9,45.1,57.8,44.8,56.5,44.7z
		 M69.5,49.1c-0.7,0-1.3,0-1.9,0.1c0.2,0.6,0.3,1.2,0.3,1.7c0.4,0,0.8,0,1.2,0c1.1,0.1,2.2,0.2,3.1,0.5c0-0.6,0-1.2,0-1.8
		C71.3,49.2,70.4,49.1,69.5,49.1z M67.7,53.2c-0.6,2.6-2.4,5.7-6,6.6c-0.1,0.5-0.2,1-0.1,1.4c0,0.7,0.2,1.7,0.6,2.7
		c6.3-1.1,9-5.5,9.8-10c-0.8-0.3-1.8-0.5-2.9-0.6C68.5,53.1,68.1,53.1,67.7,53.2z M57.4,59.8c-0.1,1.2-0.2,2.3-0.1,3.4
		c0,0.3,0,0.5,0.1,0.8c0.5,0.1,0.9,0.2,1.4,0.2c0.4,0,0.8-0.1,1.1-0.1c-0.4-1-0.6-2-0.7-2.9c0-0.4,0-0.8,0-1.2
		C58.5,60,57.9,59.9,57.4,59.8z"/>
	<path class="st8" d="M87.1,33.2c3,7.2,7,13.6,7.1,25.4c0.1,12.2-10.5,20.1-18.8,20.1c-10.1,0-19-8.5-19.4-15.5
		c-0.4-6.3,1.8-15.5,13.5-15.5c5.6,0,11.4,4.9,11.4,12c0,7.7-9.7,8.5-12.2,6.5c-0.9-0.8-0.9-2.3-0.1-2c5.3,1.7,8.5-1.7,8.3-5
		c-0.3-4.5-3-7.2-7.9-7.4c-7-0.3-8.9,6.4-8.8,9.2c0.2,3.3,3.1,10.2,12.2,11.4c4.3,0.6,7.9-0.7,10.5-3.2s4.1-5.1,4.3-9.4
		c0.2-4.4-0.7-7-3.4-12.7c-0.9-2.1-3.6-6.2-5.6-10.4L87.1,33.2"/>
</g>
<g>
	<path class="st9" d="M107,6.5v82.7l-32.3,32.3H49.5H21V6.5H107 M107.5,6h-87v116h29h25.4l32.6-32.6V6L107.5,6z"/>
</g>
</svg>
