<?xml version="1.0" encoding="utf-8"?>
<!-- Generator: Adobe Illustrator 21.0.0, SVG Export Plug-In . SVG Version: 6.00 Build 0)  -->
<svg version="1.1" id="图层_1" xmlns="http://www.w3.org/2000/svg" xmlns:xlink="http://www.w3.org/1999/xlink" x="0px" y="0px"
	 viewBox="0 0 128 128" style="enable-background:new 0 0 128 128;" xml:space="preserve">
<style type="text/css">
	.st0{opacity:0.2;enable-background:new    ;}
	.st1{opacity:0.08;enable-background:new    ;}
	.st2{opacity:0.1;enable-background:new    ;}
	.st3{fill:#1B5E20;}
	.st4{fill:url(#SVGID_1_);}
	.st5{opacity:0.8;fill:#FFFFFF;enable-background:new    ;}
	.st6{fill:#388E3C;}
</style>
<rect x="18.3" y="4" class="st0" width="91.4" height="120"/>
<rect x="18.3" y="4" class="st1" width="95.4" height="124"/>
<rect x="20.3" y="6" class="st2" width="91.4" height="120"/>
<rect x="20.3" y="6" class="st3" width="87.4" height="116"/>
<g>
	
		<linearGradient id="SVGID_1_" gradientUnits="userSpaceOnUse" x1="147.2002" y1="1607.8008" x2="147.2002" y2="1493.8008" gradientTransform="matrix(1 0 0 1 -83.2002 -1486.8008)">
		<stop  offset="0" style="stop-color:#388E3C"/>
		<stop  offset="0.0757" style="stop-color:#43953E"/>
		<stop  offset="0.3246" style="stop-color:#62A943"/>
		<stop  offset="0.5665" style="stop-color:#79B747"/>
		<stop  offset="0.796" style="stop-color:#86C049"/>
		<stop  offset="1" style="stop-color:#8BC34A"/>
	</linearGradient>
	<rect x="21.3" y="7" class="st4" width="85.4" height="114"/>
	<path class="st5" d="M66.2,43.2L66.2,43.2l-4.4-0.1v0.1H33.6v55h60.8v-55C94.4,43.2,66.2,43.2,66.2,43.2z M38,59.5h13.6v8.8H38
		V59.5z M38,72.7h13.6v8.8H38V72.7z M56.1,72.7h34v8.8h-34V72.7z M56.1,68.3v-8.8h34v8.8H56.1L56.1,68.3z M90,47.6v7.6H56v-7.6H90z
		 M51.5,47.6v7.6H38v-7.6H51.5z M38,85.9h13.6v7.9H38V85.9z M56.1,93.8v-7.9h34v7.9H56.1z"/>
	<g>
		<rect x="21.3" y="7" class="st5" width="85.5" height="21.9"/>
	</g>
	<g>
		<path class="st6" d="M57.8,17.8c0,1.5-0.2,2.7-0.7,3.8c-0.5,1.1-1.1,2-1.9,2.8c-0.8,0.7-1.7,1.3-2.8,1.7c-1.1,0.4-2.3,0.6-3.5,0.6
			s-2.4-0.2-3.5-0.6s-2-0.9-2.8-1.7c-0.8-0.7-1.5-1.7-1.9-2.8c-0.5-1.1-0.7-2.4-0.7-3.8s0.2-2.7,0.7-3.8s1.1-2,1.9-2.8
			c0.8-0.8,1.8-1.3,2.8-1.7c1.1-0.4,2.2-0.6,3.4-0.6s2.4,0.2,3.5,0.6c1.1,0.4,2,0.9,2.8,1.7s1.5,1.7,1.9,2.8
			C57.5,15,57.8,16.3,57.8,17.8z M44.1,17.8c0,0.8,0.1,1.6,0.3,2.3c0.2,0.7,0.5,1.2,0.9,1.7s0.9,0.9,1.5,1.1c0.6,0.3,1.3,0.4,2,0.4
			s1.4-0.1,2-0.4s1.1-0.6,1.5-1.1s0.7-1.1,0.9-1.7c0.2-0.7,0.3-1.4,0.3-2.3s-0.1-1.6-0.3-2.3s-0.5-1.3-0.9-1.7
			c-0.4-0.5-0.9-0.9-1.5-1.1c-0.6-0.3-1.3-0.4-2-0.4c-0.8,0-1.4,0.1-2,0.4s-1.1,0.6-1.5,1.1s-0.7,1.1-0.9,1.7
			C44.2,16.2,44.1,17,44.1,17.8z"/>
		<path class="st6" d="M73.8,9.3v3.3h-5.4v13.8h-4V12.6H59V9.3H73.8z"/>
		<path class="st6" d="M81.3,23.4c0.6,0,1,0,1.4-0.1s0.7-0.2,0.9-0.4s0.4-0.3,0.5-0.6c0.1-0.2,0.1-0.4,0.1-0.7c0-0.6-0.3-1-0.8-1.4
			c-0.6-0.4-1.5-0.8-2.8-1.2c-0.6-0.2-1.2-0.4-1.8-0.7c-0.6-0.3-1.1-0.6-1.6-1C76.7,17,76.3,16.6,76,16s-0.4-1.2-0.4-2
			s0.1-1.5,0.5-2.1c0.3-0.6,0.8-1.2,1.3-1.6c0.6-0.4,1.3-0.8,2.1-1c0.8-0.2,1.7-0.4,2.7-0.4c1.2,0,2.3,0.1,3.1,0.4
			c0.9,0.2,1.6,0.5,2.2,0.8l-1.2,3c-0.5-0.2-1.1-0.5-1.7-0.7s-1.4-0.3-2.2-0.3c-1,0-1.6,0.1-2.1,0.4c-0.4,0.3-0.6,0.6-0.6,1.2
			c0,0.3,0.1,0.6,0.2,0.8c0.2,0.2,0.4,0.4,0.7,0.6c0.3,0.2,0.6,0.3,1,0.5c0.4,0.1,0.8,0.3,1.2,0.4c0.9,0.3,1.7,0.7,2.4,1
			c0.7,0.3,1.3,0.7,1.7,1.1s0.8,0.9,1,1.5s0.3,1.3,0.3,2.1c0,1.6-0.6,2.8-1.8,3.7c-1.2,0.9-2.9,1.3-5.3,1.3c-0.8,0-1.5,0-2.2-0.1
			c-0.6-0.1-1.2-0.2-1.7-0.3c-0.5-0.1-0.9-0.3-1.3-0.4s-0.7-0.3-0.9-0.4l1.1-3c0.5,0.3,1.2,0.5,2,0.8C79.2,23.3,80.2,23.4,81.3,23.4
			z"/>
	</g>
</g>
</svg>
