<?xml version="1.0" encoding="utf-8"?>
<!-- Generator: Adobe Illustrator 21.0.0, SVG Export Plug-In . SVG Version: 6.00 Build 0)  -->
<svg version="1.1" id="图层_1" xmlns="http://www.w3.org/2000/svg" xmlns:xlink="http://www.w3.org/1999/xlink" x="0px" y="0px"
	 viewBox="0 0 128 128" style="enable-background:new 0 0 128 128;" xml:space="preserve">
<style type="text/css">
	.st0{opacity:0.2;enable-background:new    ;}
	.st1{opacity:0.08;enable-background:new    ;}
	.st2{opacity:0.1;enable-background:new    ;}
	.st3{fill:url(#SVGID_1_);}
	.st4{fill:#0D47A1;fill-opacity:0.3922;}
	.st5{fill:#FFFFFF;fill-opacity:0.3922;}
	.st6{fill:#0D47A1;}
	.st7{opacity:0.8;fill:#FFFFFF;enable-background:new    ;}
</style>
<g id="surface1">
	<polygon class="st0" points="18.5,124 18.5,4 109.5,4 109.5,90.2 75.7,124 	"/>
	<polygon class="st1" points="18.5,128 18.5,4 113.5,4 113.5,93 78.5,128 	"/>
	<polygon class="st2" points="20.5,126 20.5,6 111.5,6 111.5,92.2 77.7,126 	"/>
</g>
<linearGradient id="SVGID_1_" gradientUnits="userSpaceOnUse" x1="272.0505" y1="-2348.9512" x2="272.0505" y2="-2234.9512" gradientTransform="matrix(1 0 0 -1 -208.0005 -2227.9512)">
	<stop  offset="0" style="stop-color:#1976D2"/>
	<stop  offset="0.0626" style="stop-color:#227DD6"/>
	<stop  offset="0.3018" style="stop-color:#3F96E4"/>
	<stop  offset="0.5397" style="stop-color:#53A7EE"/>
	<stop  offset="0.7739" style="stop-color:#60B1F4"/>
	<stop  offset="1" style="stop-color:#64B5F6"/>
</linearGradient>
<path class="st3" d="M74.7,121l32.1-32.1V7H21.3v114H74.7z"/>
<polygon class="st4" points="72.9,87.2 72.9,121 74.7,121 106.8,88.9 106.8,87.2 "/>
<path class="st5" d="M74.7,88.9h32l-32,32.1V88.9z"/>
<g>
	<path class="st6" d="M105.8,8v80.5L74.3,120H49.8H22.3V8H105.8 M106.8,7H21.3v114h28.5h24.9l32.1-32.1L106.8,7L106.8,7z"/>
</g>
<path class="st7" d="M64,25.2c-15.4,0-27.8,12.4-27.8,27.8S48.6,80.8,64,80.8S91.8,68.4,91.8,53S79.4,25.2,64,25.2z M67.8,73.9h-8.5
	v-26h8.5V73.9z M63.5,44.6c-3.5,0-6.3-2.8-6.3-6.3S60,32,63.5,32s6.3,2.8,6.3,6.3S67,44.6,63.5,44.6z"/>
</svg>
