<?xml version="1.0" encoding="utf-8"?>
<!-- Generator: Adobe Illustrator 21.0.0, SVG Export Plug-In . SVG Version: 6.00 Build 0)  -->
<svg version="1.1" id="图层_1" xmlns="http://www.w3.org/2000/svg" xmlns:xlink="http://www.w3.org/1999/xlink" x="0px" y="0px"
	 viewBox="0 0 128 128" style="enable-background:new 0 0 128 128;" xml:space="preserve">
<style type="text/css">
	.st0{opacity:0.08;enable-background:new    ;}
	.st1{display:none;opacity:0.08;enable-background:new    ;}
	.st2{opacity:0.1;enable-background:new    ;}
	.st3{opacity:0.2;enable-background:new    ;}
	.st4{fill:#3E2723;}
	.st5{fill:url(#SVGID_1_);}
	.st6{fill:#795548;fill-opacity:0.7;}
	.st7{opacity:0.39;fill:#FFFFFF;enable-background:new    ;}
	.st8{fill:#FFFFFF;}
	.st9{opacity:0.8;fill:#FFFFFF;enable-background:new    ;}
	.st10{enable-background:new    ;}
	.st11{fill:#5D4037;}
</style>
<polygon class="st0" points="18.3,128 18.3,4 113.7,4 113.7,93 78.7,128 "/>
<polygon class="st1" points="22.3,126 22.3,6 113.7,6 113.7,92.2 79.9,126 "/>
<polygon class="st2" points="20.3,126 20.3,6 111.7,6 111.7,92.2 77.9,126 "/>
<polygon class="st3" points="18.3,124 18.3,4 109.7,4 109.7,90.2 75.9,124 "/>
<polygon class="st4" points="20.3,122 20.3,6 107.7,6 107.7,89.3 75,122 "/>
<g>
	<g>
		
			<linearGradient id="SVGID_1_" gradientUnits="userSpaceOnUse" x1="105.6001" y1="-680.9004" x2="105.6001" y2="-794.9004" gradientTransform="matrix(1 0 0 -1 -41.6001 -673.9004)">
			<stop  offset="0" style="stop-color:#785548"/>
			<stop  offset="1" style="stop-color:#9F9E9F"/>
		</linearGradient>
		<polygon class="st5" points="21.3,121 21.3,7 106.7,7 106.7,88.9 75,121 		"/>
		<polygon class="st6" points="106.7,88.9 106.7,87.6 72.9,87.6 72.9,121 74.6,121 		"/>
		<path class="st7" d="M74.6,88.9h32.1l-32.1,32V88.9z"/>
	</g>
	<path class="st8" d="M51.8,29h-2.9v37h-2.2V29h-2.9v37h-2.2V29h-2.9v37h-2.2V29h-2.9v37H33v15.7h19.8V66h-1V29L51.8,29z M49.9,77.1
		h-14V68H50v9.1H49.9z"/>
	<g>
		<rect x="21.3" y="7" class="st9" width="85.4" height="21.9"/>
		<g class="st10">
			<path class="st11" d="M54.5,9.4v3.3h-5.4v13.8h-4V12.7h-5.4V9.4C39.7,9.4,54.5,9.4,54.5,9.4z"/>
			<path class="st11" d="M67,26.4c-0.2-0.6-0.4-1.2-0.6-1.8c-0.2-0.6-0.5-1.2-0.7-1.9h-7c-0.2,0.6-0.4,1.2-0.7,1.9
				c-0.2,0.6-0.4,1.2-0.6,1.8h-4.2c0.7-1.8,1.3-3.5,1.9-5.1c0.6-1.6,1.2-3,1.8-4.4s1.2-2.7,1.7-3.9s1.1-2.4,1.8-3.6h3.8
				c0.6,1.2,1.2,2.4,1.8,3.6c0.6,1.2,1.1,2.5,1.7,3.9s1.2,2.8,1.8,4.4c0.6,1.6,1.2,3.3,1.9,5.1H67L67,26.4z M62.2,13.3
				c-0.1,0.2-0.2,0.6-0.4,1s-0.4,0.9-0.6,1.5c-0.2,0.6-0.5,1.2-0.7,1.8c-0.3,0.7-0.5,1.4-0.8,2.1h5.1c-0.3-0.7-0.5-1.4-0.8-2.1
				c-0.3-0.7-0.5-1.3-0.7-1.8c-0.2-0.6-0.4-1.1-0.6-1.5C62.4,13.8,62.3,13.5,62.2,13.3z"/>
			<path class="st11" d="M78.9,9.2c2.7,0,4.8,0.5,6.2,1.4c1.4,0.9,2.1,2.3,2.1,4.2c0,1.2-0.3,2.2-0.9,2.9c-0.6,0.7-1.4,1.3-2.5,1.8
				c0.4,0.4,0.7,0.9,1.1,1.5c0.4,0.5,0.8,1.1,1.2,1.7c0.4,0.6,0.8,1.2,1.1,1.9c0.4,0.6,0.7,1.3,1,1.9h-4.5c-0.3-0.6-0.7-1.1-1-1.7
				s-0.7-1.1-1-1.7c-0.4-0.5-0.7-1.1-1.1-1.5c-0.3-0.5-0.7-0.9-1-1.3h-2v6.2h-4V9.7c0.9-0.2,1.8-0.3,2.7-0.3
				C77.3,9.2,78.2,9.2,78.9,9.2z M79.1,12.5c-0.3,0-0.6,0-0.8,0c-0.2,0-0.5,0-0.7,0v4.6h1.1c1.5,0,2.6-0.2,3.3-0.5
				c0.7-0.4,1-1,1-1.8s-0.3-1.4-1-1.8C81.4,12.7,80.4,12.5,79.1,12.5z"/>
		</g>
	</g>
</g>
</svg>
