<?xml version="1.0" encoding="utf-8"?>
<!-- Generator: Adobe Illustrator 16.0.0, SVG Export Plug-In . SVG Version: 6.00 Build 0)  -->
<!DOCTYPE svg PUBLIC "-//W3C//DTD SVG 1.1//EN" "http://www.w3.org/Graphics/SVG/1.1/DTD/svg11.dtd">
<svg version="1.1" id="图层_1" xmlns="http://www.w3.org/2000/svg" xmlns:xlink="http://www.w3.org/1999/xlink" x="0px" y="0px"
	 width="128px" height="128px" viewBox="0 0 128 128" enable-background="new 0 0 128 128" xml:space="preserve">
<polygon opacity="0.08" enable-background="new    " points="18.31,128 18.31,4 113.689,4 113.689,92.995 78.686,128 "/>
<polygon display="none" opacity="0.08" enable-background="new    " points="22.31,126 22.31,6 113.689,6 113.689,92.167 
	79.857,126 "/>
<polygon opacity="0.1" enable-background="new    " points="20.31,126 20.31,6 111.689,6 111.689,92.167 77.857,126 "/>
<polygon opacity="0.2" enable-background="new    " points="18.31,124 18.31,4 109.689,4 109.689,90.167 75.857,124 "/>
<polygon fill="#0D47A1" points="20.298,122 20.298,6 107.702,6 107.702,89.344 75.029,122 "/>
<g>
	<g>
		<g>
			<g>
				
					<linearGradient id="SVGID_1_" gradientUnits="userSpaceOnUse" x1="147.1992" y1="945.8008" x2="147.1992" y2="831.8008" gradientTransform="matrix(1 0 0 1 -83.2002 -824.8008)">
					<stop  offset="0" style="stop-color:#1976D2"/>
					<stop  offset="0.0226" style="stop-color:#1C79D3"/>
					<stop  offset="0.2859" style="stop-color:#3B93E2"/>
					<stop  offset="0.5416" style="stop-color:#52A6ED"/>
					<stop  offset="0.7843" style="stop-color:#5FB1F4"/>
					<stop  offset="1" style="stop-color:#64B5F6"/>
				</linearGradient>
				<polygon fill="url(#SVGID_1_)" points="21.294,121 21.294,7 106.705,7 106.705,88.938 74.643,121 				"/>
			</g>
			<polygon fill="#0D47A1" fill-opacity="0.39" points="106.705,88.938 106.705,87.557 72.884,87.557 72.884,121 74.643,121 			"/>
			<path fill="#FFFFFF" fill-opacity="0.45" d="M74.599,88.938l32.114,0.045L74.643,121L74.599,88.938z"/>
		</g>
		<g>
			<path fill="#64B5F6" d="M90.533,60.263C90.533,74.91,78.644,86.8,64,86.8c-14.651,0-26.537-11.89-26.537-26.537
				C37.463,45.62,49.349,33.73,64,33.73C78.644,33.73,90.533,45.62,90.533,60.263z"/>
			<path fill="#FFFFFF" fill-opacity="0.8" d="M46.588,40.272c0,0,0.549,0.289,0.764,0.757c0.171,0.464,0.765,0.464,0.765,0.464
				h0.846l1.239-0.378l-0.304,0.675c0,0-6.49,3.013-5.181,4.798c1.321,1.785,0.846,2.249,0.846,2.805
				c0,0.549,0.386,0.082,0.386,0.082l0.386-1.013l0.549-0.761l0.557-0.857l0.17-0.467l0.757-1.31l0.935-0.549l0.854,0.549
				c0,0,0.378,0.163,0.29,0.46c-0.074,0.301-0.164,0.85-0.164,0.85s0.164,0.39,0.46,0.39c0.304,0,0.772-0.301,0.772-0.301
				l0.386,0.679l0.297,1.236l0.757,0.761l0.386,0.85l-0.386,0.761l0.386,0.301l0.854,0.935l0.163,0.464l-1.403-0.082
				c0,0-0.163-0.39-0.46-0.39s-1.484-0.085-1.484-0.085l-0.69,0.174l-0.371,0.46c0,0-0.467,0.765-0.771,0.765
				c-0.29,0-1.01-0.163-1.01-0.163s-0.557-0.171-0.854,0.378c-0.297,0.557,0.46,0.85,0.46,0.85l-1.314,0.386l-0.386,0.17
				c0,0-0.935,0.382-0.935,0.679c0,0.301,0,0.301,0,0.301l-0.286,0.761v0.464l-0.687,0.557l-0.683,0.46l-0.29,0.557v0.935
				c0,0-0.089,0.464-0.089,0.765c0,0.297,0,1.017,0,1.017s-0.301,0.301-0.468-0.297c-0.17-0.553-0.17-0.553-0.17-0.553l-0.297-0.687
				c0,0,0.297-0.078-0.085-0.378c-0.378-0.29-0.765-0.379-0.765-0.379s-0.163-0.163-0.553-0.163c-0.378,0,0.468,0.078-0.378,0
				c-0.85-0.089-0.85-0.089-0.85-0.089l-0.683,0.549v0.46c0,0-0.16,3.317,0.765,3.785h0.39l0.545-0.85l0.471,0.171v0.382
				l-0.089,0.687v0.378l0.46,0.472l0.301,0.85c0.386,0.676,0.17,0.846,0.464,1.01c0.297,0.17,0.557,0.686,0.557,0.686l0.378,0.164
				c0,0,0.297,0.089,0.549,0.17c0.304,0.09,0.304,0.09,0.304,0.09l0.093,0.423l0.089,0.341l0.378,0.461c0,0-0.293,0,0.386,0
				s0.679,0,0.679,0s0,0.178,0.467,0.393c0.468,0.156,0.097,0.09,0.468,0.156c0.386,0.097,1.017,0.171,1.017,0.171
				c0.675-0.082,0.675-0.082,0.675-0.082l0.475,0.683c0,0,0.29,0,0.371,0.29c0.089,0.304-0.46,0,0.089,0.304
				c0.557,0.297,0,0.09,0.557,0.297c0.549,0.216-0.178,0.171,0.542,0.171c0.72,0,0.846,0,1.15,0.082
				c0.297,0.081,0.468,0.771,0.468,0.771c0.549,0.676,0.549,0.676,0.549,0.676l0.089,0.846c0,0-0.297,0.171,0.378,0.171
				c0.69,0,0.171,0,0.69,0c0.504,0-0.089-0.171,0.46,0c0.549,0.163,0.549,0.163,0.549,0.163s0.846,0.69,1.15,0.69
				c0.297,0,0.854-0.097,1.15,0c0.297,0.082,0.46,0.542,1.009,0.676c0.557,0.089,0.765,0,1.143,0.297
				c0.394,0.297,0.394,0.297,0.394,0.297l0.082,1.009l-0.297,0.557l-0.765,0.297l-0.089,0.942l-0.394,0.943v0.452
				c0,0,0.475,0.394-0.371,0.476c-0.846,0.074-0.846,0.074-0.846,0.074l-0.386,0.386c0,0,0,0.097-0.171,0.386
				c-0.163,0.289-0.378,0.771-0.378,0.771l0.089,0.847v0.549l-0.297,0.46c0,0-0.268,0.134,0.46,0.602
				c0.757,0.46,1.351,0.46,1.529,0.75c0.164,0.312,0.638,0.563,0.638,0.563l-1.024-0.215l-0.638-0.216l-1.054-0.289l-2.041-1.062
				c0,0-3.058-2.509-4-4.534c0,0-0.794-1.195-2.152-1.7c0,0-3.362-3.065-3.659-3.829l-0.13-0.513v-0.252l-0.13-0.134v-0.289
				l-0.078-0.216l0.044-0.942l0.045-0.631l0.041-0.342l-0.041-0.252c0,0-0.175-0.163-0.175-0.208c0-0.037-0.126-0.431-0.126-0.431
				l-0.041-0.118l0.512-0.431l-0.137-0.386l0.085-0.216l0.3-0.207c0,0,0.171-0.253,0.171-0.297c0-0.082-0.297-0.297-0.297-0.297
				l-0.123,0.044l-0.137,0.386h-0.163c0,0-0.171-0.089-0.171-0.133c0-0.045-0.163-0.208-0.163-0.208l-0.215-0.089
				c0,0-0.171-0.045-0.211-0.127c-0.048-0.081-0.26-0.207-0.26-0.26c0-0.037-0.164-0.297-0.164-0.297l-0.215-0.074
				c0,0-0.26-0.386-0.26-0.471c0-0.037-0.13-0.249-0.13-0.249s-0.297-0.341-0.297-0.386c0-0.041-0.13-0.342-0.13-0.342h-0.204
				l-0.467-0.178l-0.301-0.371l-0.337-0.386c0,0-0.175-0.301-0.175-0.382c0-0.09-0.126-0.172-0.126-0.172h-0.211h-0.123
				l-0.297-0.252l-0.761-1.058l-0.137-0.471l-0.123-0.512l-0.089-0.85v-0.553l-0.338-3.945
				C37.504,56.905,38.65,47.138,46.588,40.272z"/>
			<path fill="#FFFFFF" fill-opacity="0.8" d="M76.572,36.947l0.854,0.687l0.424,0.211l0.289,0.338l0.052,0.341
				c0,0,0.082,0.341,0.045,0.427C78.19,39.04,78.139,39.5,78.139,39.5s0.386,0.687,0.386,0.772c0,0.078,0.045,0.46-0.037,0.549
				c-0.089,0.041-0.557,0.338-0.601,0.208c-0.037-0.13-0.334-0.427-0.424-0.427c-0.089-0.048-0.341-0.297-0.341-0.297l0.683-0.093
				l-0.089-0.427c0,0-0.46-0.163-0.594-0.163c-0.126-0.037-0.602-0.29-0.602-0.29l-0.505-0.13c0,0-0.846-0.211-0.935-0.26
				c-0.082-0.041-0.431-0.164-0.431-0.164h-0.713c0,0-0.349,0.164-0.43,0.252c-0.037,0.089-0.468,0.553-0.468,0.553
				s-0.037,0.549-0.037,0.634c0,0.089-0.126,0.304-0.126,0.553c0,0.256-0.053,0.597-0.053,0.687c0,0.089,0,0.211,0,0.211
				l-0.081,0.371l-0.297,0.178l-0.379,0.3c0,0-0.334,0.249-0.334,0.338c0,0.089,0,0.427,0.126,0.679
				c0.119,0.252,0.082,0.501,0.245,0.631c0.171,0.13,0.253,0.297,0.386,0.349c0.134,0.037,0.037,0.078,0.253,0.078
				c0.171,0,0.341,0.052,0.423-0.041c0.089-0.037,0.305-0.037,0.394-0.167c0.081-0.13-0.089-0.044,0.081-0.13
				c0.164-0.041,0.164-0.163,0.305-0.041c0.163,0.126,0.297,0.301,0.334,0.379c0.045,0.089,0.171,0.3,0.305,0.43
				c0.163,0.089,0.297,0.427,0.297,0.427l0.252,0.26c0,0,0.037,0.037,0.208,0.037s0.423-0.037,0.423-0.037l0.097-0.17
				c0,0,0.155,0.044,0.208-0.041c0.044-0.089,0.044-0.211,0.044-0.211s-0.097-0.26-0.163-0.338c-0.052-0.089-0.141-0.3-0.141-0.3
				l0.052-0.297l0.155-0.175l0.053-0.208v-0.264l-0.186-0.089l-0.297-0.171c0,0-0.164,0.041-0.164-0.17
				c-0.044-0.167-0.044-0.167-0.044-0.167l-0.379-0.085l-0.26-0.134l0.297-0.211c0.171-0.29,0.216-0.378,0.216-0.46
				c0-0.082-0.045-0.342-0.045-0.342s-0.171-0.044-0.171-0.26c-0.037-0.208-0.037-0.337-0.037-0.337l0.037-0.164
				c0,0,0.045-0.133,0.171-0.133c0.089,0,0.252,0.133,0.342,0.133c0.081,0,0.244,0.041,0.244,0.041s0.09,0.033,0.09,0.171
				c0,0.082-0.037,0.289-0.037,0.289l0.163-0.249v0.301l-0.045,0.337v0.338l0.171,0.341l0.163,0.26c0,0,0.208,0.208,0.305,0.297
				c0.097,0.034,0.304,0.204,0.304,0.204l0.253,0.13l0.163,0.041l0.171-0.171c0,0,0.304,0.041,0.304-0.048
				c0.045-0.089,0.045-0.089,0.045-0.089s0.342-0.037,0.431-0.037c0.081,0,0.252,0,0.252,0s0.126,0.249,0.045,0.249
				c-0.089,0-0.134,0.089-0.349,0.171c-0.216,0.041-0.297,0-0.334,0.085c-0.045,0.089-0.171,0.304-0.171,0.304l0.171,0.044h0.118
				l0.179,0.171c0,0,0.037,0.037,0,0.163c-0.053,0.126,0.155,0.089-0.053,0.126c-0.244,0.052-0.371-0.037-0.371-0.037
				s-0.044-0.215-0.178-0.122c-0.089,0.089-0.134,0.297-0.134,0.297v0.293l0.179,0.427c0,0,0.074,0.089,0,0.137
				c-0.082,0.037-0.379,0.375-0.379,0.375s-0.052,0.123-0.178,0.123c-0.074,0-0.201,0-0.431,0.044
				c-0.156,0.041-0.156,0.041-0.327,0.089c-0.17,0.041-0.297,0.074-0.557,0.123c-0.252,0.041-0.72,0.041-0.875,0.041
				c-0.179,0-0.216,0-0.313-0.041c-0.081-0.048-0.044,0-0.163-0.171c-0.126-0.17-0.26-0.297-0.26-0.427c0-0.089,0-0.126-0.052-0.3
				c-0.037-0.164-0.037-0.29-0.156-0.29c-0.178,0-0.178,0-0.178,0s-0.326,0.256-0.289,0.341s-0.037,0,0.252,0.208
				c0.289,0.211,0.386,0.512,0.386,0.512l-0.052,0.297l-0.549,0.3l-0.379,0.123l-0.045,0.256c0,0,0,0.089-0.081,0.212
				c-0.089,0.122-0.305,0.297-0.305,0.297s-0.171,0.041-0.208,0.17c-0.044,0.089-0.17,0.419-0.17,0.419s-0.171-0.041-0.342,0.089
				c-0.163,0.13,0.045,0.13-0.342,0.301c-0.378,0.163-0.378,0.163-0.378,0.163l-0.431-0.033l-0.252,0.082
				c0,0-0.334,0.041-0.379,0.13c-0.045,0.085-0.215,0.338-0.215,0.338s-0.082,0.17,0,0.17c0.089,0.037,0.215,0,0.423,0.037
				c0.171,0.052,0.215,0.052,0.349,0.13c0.126,0.052,0.252,0.175,0.252,0.175l0.461,0.416l0.267,0.553l-0.052,0.427l-0.505,0.171
				c0,0-0.297,0-0.423,0c-0.097,0-0.06,0-0.557,0c-0.505,0-0.594,0-0.683,0s-0.423-0.048-0.423-0.048l-0.297,0.048l-0.216,0.17
				l-0.126,0.041c0,0,0.178,0.382,0.178,0.508c0,0.13,0,0.293,0,0.293l-0.052,0.267l-0.126,0.297l-0.171,0.293l0.052,0.167
				c0,0-0.052,0.13,0.045,0.13c0.082,0,0.326-0.041,0.326,0.048c0,0.082-0.2,0.427-0.2,0.427l0.431,0.082c0,0-0.045-0.037,0.2,0.048
				c0.253,0.026,0.423,0.115,0.423,0.115l0.29,0.208l0.097,0.174l0.089-0.174c0,0,0.46-0.037,0.542-0.085
				c0.096-0.037,0.304-0.037,0.304-0.037h0.379c0,0,0.089,0.037,0.171-0.052c0.037-0.074,0.037-0.074,0.037-0.074
				s0.43-0.167,0.512-0.256c0.089-0.041,0.126-0.301,0.126-0.301s0.134-0.082,0.134-0.163c0-0.082-0.089-0.297-0.089-0.297v-0.178
				l0.126-0.164c0,0,0.045-0.048,0.171-0.17c0.134-0.13,0.134-0.13,0.134-0.13s-0.053-0.037,0.118-0.126
				c0.179-0.048,0.305-0.17,0.386-0.17c0.082,0-0.081,0.089,0.082,0c0.171-0.089,0.215-0.164,0.215-0.297
				c0-0.085,0.053-0.553,0.053-0.553l0.155-0.252l0.423,0.041l0.223,0.048c0,0,0.253,0.041,0.29-0.048
				c0.044-0.085,0.171-0.163,0.171-0.163l0.341-0.174c0,0-0.037-0.041,0.134-0.041c0.163,0,0.423,0,0.557,0c0.082,0,0.289,0,0.289,0
				s0.171,0.082,0.253,0.163c0.044,0.085,0.171,0.297,0.171,0.297l0.133,0.171h0.127c0.17,0.13,0.244,0.219,0.549,0.297
				c0.297,0.093,0.512,0.171,0.512,0.171s0.082,0.17,0.156,0.252c0.089,0.089,0.171,0.171,0.297,0.26
				c0.089,0.037,0.171,0.126,0.215,0.212c0.053,0.085,0.179,0.256,0.179,0.256l0.155,0.171l0.097-0.171v-0.301l-0.037-0.163
				c0,0-0.171-0.126,0.037-0.126c0.171,0,0.305,0,0.305,0l-0.171-0.26l-0.215-0.085l-0.29-0.215l-0.134-0.126l-0.133-0.041
				l-0.127-0.085l-0.17-0.126c0,0-0.29-0.048-0.29-0.171c-0.052-0.085-0.052-0.085-0.052-0.085l-0.297-0.044
				c0,0-0.289-0.167-0.289-0.249c0-0.089-0.053-0.349-0.053-0.349L76.699,50.5c0,0,0.037-0.167,0.037-0.297
				c0-0.089,0.089-0.211,0.089-0.211l0.549-0.041l0.119,0.293l0.208,0.126l0.304,0.13l0.126,0.171l0.142,0.13
				c0,0,0.044,0.037,0.208,0.089c0.163,0.041,0.289,0.078,0.289,0.078s0.178,0.17,0.305,0.17c0.126,0.045,0.17,0.089,0.304,0.134
				c-0.097,0.078-0.097,0.078-0.097,0.078s0.045,0.089,0.171,0.17s0.253,0.252,0.253,0.341c0,0.085,0.089,0.379,0.17,0.427
				c0.082,0.041,0.127,0.041,0.297,0.208c0.156,0.163,0.156,0.341,0.29,0.431c0.171,0.041,0.297,0,0.297,0.163
				c0.052,0.171,0.052,0.297,0.052,0.297s0.134,0.048,0.208,0.048c0.081,0,0.252-0.167,0.252-0.167s0.179-0.26,0.052-0.308
				c-0.081-0.041-0.297-0.041-0.297-0.13c0-0.085,0-0.549,0-0.549l0.127-0.3l0.17-0.249l0.253,0.078l0.252-0.16l0.26,0.297
				l-0.081,0.334c0,0,0.037,0.211,0.155,0.378c0.097,0.171,0.297,0.39,0.297,0.39l0.431,0.386l0.602,0.163l0.133-0.041l0.884-0.171
				c0,0,0.134,0,0.208,0c0.089,0,0.512,0.724,0.512,0.724s0,0.297,0,0.46c0,0.171,0,0.598,0,0.598s-0.297,0.297-0.423,0.297
				c-0.134,0-0.468,0.163-0.468,0.163l-0.713,0.175l-0.467-0.045l-0.847-0.044c0,0-0.854-0.044-0.942-0.044s-0.386,0-0.468,0
				c-0.081,0-0.208,0.089-0.289,0.341c-0.097,0.252-0.26,0.338-0.26,0.338s0,0.13-0.163,0.13c-0.179,0-0.179,0.048-0.305-0.041
				c-0.126-0.089-0.72-0.211-0.72-0.211l-0.557-0.378l-0.305-0.252l-0.297-0.037h-0.846l-0.557-0.052l0.097-0.887l0.081,0.252
				l-0.178-0.594L76.35,54.11l-0.594-0.13l-0.378,0.041l-0.497,0.13l-0.52,0.167l-0.305,0.089l-1.433,0.249l-0.52,0.215
				c0,0-0.215,0.126-0.289,0.167c-0.082,0.041-0.431,0.041-0.431,0.041s-0.252-0.041-0.379-0.082
				c-0.126-0.037-0.43-0.037-0.557-0.037c-0.126,0-0.386-0.044-0.467,0c-0.082,0.037-0.171,0.037-0.253,0.167
				c-0.089,0.13-0.386,0.468-0.386,0.468s-0.156,0.171-0.252,0.252c-0.037,0.082-0.253,0.337-0.253,0.337l-0.341,0.553l-0.216,0.26
				l0.052,0.297v0.211c0,0-0.133,0.126-0.207,0.171c-0.097,0.037-0.268,0.13-0.268,0.13s-0.126,0.037-0.252,0.159
				c-0.119,0.089-0.119,0.138-0.208,0.212c-0.097,0.089-0.394,0.297-0.394,0.297s-0.163,0.13-0.289,0.26
				c-0.082,0.13-0.26,0.293-0.297,0.382c-0.045,0.089-0.179,0.167-0.268,0.208c-0.066,0.048-0.252,0.39-0.282,0.479
				c-0.044,0.071-0.304,0.46-0.304,0.46l-0.171,0.72l-0.037,0.338c0,0,0.037,0.13,0.126,0.211s0.171,0.431,0.171,0.431v0.297
				c0,0-0.089,0.252-0.134,0.341c-0.037,0.082,0.045,0.508,0.045,0.508v0.252c0,0,0,0.089-0.127,0.208
				c-0.133,0.13-0.17,0.301-0.17,0.301l0.17,0.386l0.127,0.252v0.172l0.163,0.289c0,0,0.089,0.093,0.171,0.174
				c0.089,0.045,0.133,0.045,0.312,0.175c0.163,0.081,0.163,0.081,0.163,0.081s0.26,0.297,0.26,0.428c0,0.089,0.163,0.26,0.163,0.26
				l0.297,0.297c0,0,0.052,0.163,0.208,0.293c0.171,0.133,0.349,0.211,0.431,0.297c0.089,0.045,0.334,0.252,0.549,0.293
				c0.171,0.045,0.26,0.089,0.349,0.089c0.074,0-0.133-0.26,0.461,0.041c0.601,0.301,0.979,0.427,0.979,0.427l0.431,0.171
				c0,0,0.689,0.044,0.757-0.045c0.081-0.044,0.208-0.044,0.289-0.044c0.082,0,0.305,0,0.476,0c0.163,0,0.757-0.09,0.757-0.09
				l0.675-0.248c0,0,0.216-0.13,0.305-0.171s0.334-0.208,0.431-0.249c0.089-0.052,0.505-0.052,0.505-0.052s0-0.126,0.17,0
				c0.171,0.13,0.171,0.171,0.216,0.26c0.052,0.089,0.052,0.301,0.171,0.301c0.126,0.041,0.423,0.126,0.423,0.126
				s0.431-0.045,0.549,0c0.142,0.041,0.431,0.041,0.431,0.041l0.134,0.171l0.037,0.386v0.342c0,0-0.037,0.133,0,0.252
				c0.044,0.119,0.178,0.342,0.178,0.342s-0.178,0.252-0.267,0.289c-0.097,0.037-0.297,0.297-0.297,0.297l0.594,0.549l0.341,0.342
				l0.26,0.305c0,0,0.045,0.126,0.045,0.207c0,0.082-0.045,0.297,0,0.424c0.037,0.096,0.037,0.43,0.037,0.43
				s0.044,0.253,0.044,0.342s-0.081,0.505-0.081,0.505L77.634,73.3l-0.186,0.512l-0.2,0.253l-0.305,0.297l-0.207,0.341l-0.037,0.46
				l-0.179,0.29c0,0,0.052,0.267,0.052,0.394c0,0.126,0.253,0.594,0.253,0.594l-0.045,0.386c0,0-0.163,0.557-0.163,0.683
				c0,0.134-0.134,0.297-0.134,0.431c0,0.081-0.044,0.46-0.044,0.46l0.044,0.468l0.156,0.46l-0.156,0.431
				c0,0-0.089,0.334-0.089,0.549c0,0.163,0.305,0.379,0.386,0.379c0.089,0,0.468-0.045,0.646-0.163
				c0.156-0.09,0.579-0.208,0.676-0.26c0.089-0.045,0.171,0.052,0.423-0.164c0.253-0.17,0.639-0.46,0.639-0.46
				s0.304-0.215,0.431-0.297c0.074-0.097,0.497-0.571,0.497-0.571s0.297-0.289,0.505-0.423c0.215-0.134,0-0.037,0.215-0.156
				c0.208-0.126,0.883-0.69,0.883-0.69l0.69-0.675c0,0,0.594-0.765,0.683-0.891c0.09-0.142,0.631-0.854,0.721-0.905
				c0.081-0.037,0.846-0.542,1.017-0.676c0.163-0.134,0.386-1.024,0.46-1.15c0.082-0.082,0.557-1.143,0.557-1.143l0.431-1.232
				l0.712-1.833l0.721-1.276c0,0,0.289-0.553,0.423-0.717c0.089-0.17,0.771-1.488,0.771-1.488l0.26-1.094l0.082-0.935h-0.423
				l-0.476,0.427l-0.431-0.13l-0.415,0.048l0.475-0.597l-0.134-0.46l-0.378-0.3l-0.513-0.761v-0.768l-0.549-0.887l-0.342-1.403
				c0,0-0.638-0.687-0.549-0.846c0.037-0.175,0.208-0.687,0.208-0.687l0.341,0.167c0,0,0.253,0.679,0.379,0.72
				c0.141,0.041,0.297,0.382,0.349,0.46c0.045,0.093,0.082,0.39,0.163,0.472c0.045,0.082,0.334,0.638,0.334,0.638
				s0.216,0.549,0.26,0.679c0.045,0.089,0.253,0.43,0.305,0.679c0.045,0.26,0.163,1.062,0.163,1.15c0,0.085,0.208,0.976,0.208,0.976
				s0.297-0.082,0.334-0.16c0.052-0.093,0.052-0.13,0.141-0.215c0.045-0.085,0.55-0.468,0.55-0.468l0.215-0.679
				c0,0,0.134-0.297,0.156-0.427c0.052-0.13,0.304-0.597,0.304-0.679c0-0.089-0.037-0.43,0-0.56c0.045-0.078,0.171-0.59,0.171-0.675
				c0-0.089,0.037-0.431,0.037-0.431l-0.037-0.761l0.334-0.427l0.171-0.468C90.496,56.957,89.264,43.62,76.572,36.947z"/>
		</g>
	</g>
	<g>
		<rect x="21.272" y="7" opacity="0.8" fill="#FFFFFF" enable-background="new    " width="85.455" height="21.85"/>
		<g enable-background="new    ">
			<path fill="#1976D2" d="M56.177,17.788c0,1.458-0.23,2.743-0.683,3.848c-0.46,1.106-1.083,2.034-1.878,2.776
				c-0.794,0.742-1.737,1.306-2.835,1.677c-1.091,0.386-2.271,0.572-3.525,0.572c-1.225,0-2.382-0.186-3.466-0.572
				c-1.091-0.371-2.033-0.935-2.85-1.677c-0.809-0.742-1.447-1.67-1.908-2.776c-0.467-1.105-0.705-2.39-0.705-3.848
				s0.245-2.739,0.728-3.844c0.482-1.106,1.135-2.034,1.952-2.791c0.824-0.753,1.767-1.317,2.85-1.692
				c1.076-0.378,2.205-0.568,3.399-0.568c1.225,0,2.375,0.189,3.466,0.568c1.083,0.375,2.034,0.939,2.843,1.692
				c0.809,0.757,1.447,1.685,1.915,2.791C55.947,15.049,56.177,16.329,56.177,17.788z M42.499,17.788
				c0,0.835,0.104,1.592,0.319,2.26c0.215,0.675,0.527,1.25,0.935,1.733c0.401,0.486,0.898,0.857,1.484,1.117
				c0.586,0.268,1.262,0.401,2.019,0.401c0.742,0,1.41-0.133,2.004-0.401c0.594-0.26,1.091-0.631,1.499-1.117
				c0.408-0.482,0.712-1.058,0.928-1.733c0.215-0.668,0.327-1.425,0.327-2.26s-0.111-1.592-0.327-2.271s-0.52-1.262-0.928-1.744
				s-0.905-0.857-1.499-1.121c-0.594-0.26-1.262-0.394-2.004-0.394c-0.757,0-1.433,0.137-2.019,0.408
				c-0.586,0.271-1.083,0.646-1.484,1.128c-0.408,0.486-0.72,1.065-0.935,1.744C42.603,16.222,42.499,16.971,42.499,17.788z"/>
			<path fill="#1976D2" d="M72.246,9.286v3.269h-5.411v13.756h-4.037V12.555h-5.403V9.286H72.246z"/>
			<path fill="#1976D2" d="M85.635,9.286h4.037v17.025h-4.037V19.09h-6.769v7.221h-4.038V9.286h4.038v6.513h6.769V9.286z"/>
		</g>
	</g>
</g>
</svg>
