<?xml version="1.0" encoding="utf-8"?>
<!-- Generator: Adobe Illustrator 16.0.0, SVG Export Plug-In . SVG Version: 6.00 Build 0)  -->
<!DOCTYPE svg PUBLIC "-//W3C//DTD SVG 1.1//EN" "http://www.w3.org/Graphics/SVG/1.1/DTD/svg11.dtd">
<svg version="1.1" id="图层_1" xmlns="http://www.w3.org/2000/svg" xmlns:xlink="http://www.w3.org/1999/xlink" x="0px" y="0px"
	 width="128px" height="128px" viewBox="0 0 128 128" enable-background="new 0 0 128 128" xml:space="preserve">
<rect x="18.298" y="4" opacity="0.2" width="91.404" height="120"/>
<rect x="18.298" y="4" opacity="0.08" width="95.404" height="124"/>
<rect x="20.298" y="6" opacity="0.1" width="91.404" height="120"/>
<rect x="20.298" y="6" fill="#1B5E20" width="87.404" height="116"/>
<g>
	
		<linearGradient id="SVGID_1_" gradientUnits="userSpaceOnUse" x1="105.6006" y1="-156.8999" x2="105.6006" y2="-42.9004" gradientTransform="matrix(1 0 0 -1 -41.6001 -35.9004)">
		<stop  offset="0" style="stop-color:#388E3C"/>
		<stop  offset="0.0757" style="stop-color:#43953E"/>
		<stop  offset="0.3246" style="stop-color:#62A943"/>
		<stop  offset="0.5665" style="stop-color:#79B747"/>
		<stop  offset="0.796" style="stop-color:#86C049"/>
		<stop  offset="1" style="stop-color:#8BC34A"/>
	</linearGradient>
	<rect x="21.292" y="7" fill="url(#SVGID_1_)" width="85.416" height="114"/>
	<path opacity="0.8" fill="#FFFFFF" enable-background="new    " d="M66.179,27.996V27.9h-4.363v0.096H33.597V83h60.801V27.996
		H66.179z M37.97,44.332h13.582v8.787H37.97V44.332z M37.97,57.49h13.582v8.79H37.97V57.49z M56.063,57.49h33.966v8.79H56.063V57.49
		z M56.063,53.119v-8.787h33.966v8.787H56.063z M90.029,32.412v7.557H56.063v-7.557H90.029z M51.552,32.412v7.557H37.97v-7.557
		H51.552z M37.97,70.695h13.582v7.889H37.97V70.695z M56.063,78.584v-7.889h33.966v7.889H56.063z"/>
</g>
</svg>
