<?xml version="1.0" encoding="utf-8"?>
<!-- Generator: Adobe Illustrator 21.0.0, SVG Export Plug-In . SVG Version: 6.00 Build 0)  -->
<svg version="1.1" id="图层_1" xmlns="http://www.w3.org/2000/svg" xmlns:xlink="http://www.w3.org/1999/xlink" x="0px" y="0px"
	 viewBox="0 0 128 128" style="enable-background:new 0 0 128 128;" xml:space="preserve">
<style type="text/css">
	.st0{opacity:0.08;enable-background:new    ;}
	.st1{display:none;opacity:0.08;enable-background:new    ;}
	.st2{opacity:0.1;enable-background:new    ;}
	.st3{opacity:0.2;enable-background:new    ;}
	.st4{fill:#AE2124;}
	.st5{fill:url(#SVGID_1_);}
	.st6{fill:#AE2124;fill-opacity:0.3922;}
	.st7{fill:#FFFFFF;fill-opacity:0.3922;}
	.st8{opacity:0.8;enable-background:new    ;}
	.st9{fill:#FFFFFF;}
</style>
<polygon class="st0" points="18.3,128 18.3,4 113.7,4 113.7,93 78.7,128 "/>
<polygon class="st1" points="22.3,126 22.3,6 113.7,6 113.7,92.2 79.9,126 "/>
<polygon class="st2" points="20.3,126 20.3,6 111.7,6 111.7,92.2 77.9,126 "/>
<polygon class="st3" points="18.3,124 18.3,4 109.7,4 109.7,90.2 75.9,124 "/>
<polygon class="st4" points="20.3,122 20.3,6 107.7,6 107.7,89.3 75,122 "/>
<g>
	<g>
		<g>
			
				<linearGradient id="SVGID_1_" gradientUnits="userSpaceOnUse" x1="105.6001" y1="1201.9004" x2="105.6001" y2="1087.9004" gradientTransform="matrix(1 0 0 1 -41.6001 -1080.9004)">
				<stop  offset="0" style="stop-color:#C7312F"/>
				<stop  offset="0.1635" style="stop-color:#D9412C"/>
				<stop  offset="0.3476" style="stop-color:#E74E29"/>
				<stop  offset="0.5725" style="stop-color:#EA552A"/>
				<stop  offset="0.9516" style="stop-color:#EA582B"/>
			</linearGradient>
			<polygon class="st5" points="21.3,121 21.3,7 106.7,7 106.7,88.9 74.6,121 			"/>
		</g>
		<polygon class="st6" points="106.7,88.9 106.7,87.6 72.9,87.6 72.9,121 74.6,121 		"/>
		<path class="st7" d="M74.6,88.9h32.1l-32.1,32V88.9z"/>
	</g>
	<g class="st8">
		<g>
			<path class="st9" d="M74.7,34.8c0.1,0,0.3,0,0.5,0.1C75.1,34.9,74.9,34.8,74.7,34.8z"/>
			<path class="st9" d="M73.5,34.6c0.2,0,0.3,0,0.5,0C73.9,34.7,73.7,34.7,73.5,34.6z"/>
			<path class="st9" d="M75.9,35c0.1,0,0.3,0,0.4,0.1C76.2,35.1,76,35,75.9,35z"/>
			<path class="st9" d="M77,35.2c0.1,0,0.3,0,0.4,0.1C77.3,35.3,77.2,35.2,77,35.2z"/>
			<path class="st9" d="M72.3,34.5c0.2,0,0.4,0,0.6,0C72.7,34.6,72.5,34.5,72.3,34.5z"/>
			<path class="st9" d="M79.2,35.7c0.1,0,0.2,0,0.3,0.1C79.3,35.7,79.2,35.7,79.2,35.7z"/>
			<path class="st9" d="M78.1,35.5c0.1,0,0.2,0,0.3,0.1C78.3,35.5,78.2,35.5,78.1,35.5z"/>
			<path class="st9" d="M38.5,40.9L38.5,40.9L38.5,40.9z"/>
			<path class="st9" d="M65.8,34.1c0.3,0,0.6,0,0.9,0C66.4,34.1,66,34.1,65.8,34.1z"/>
			<path class="st9" d="M80.2,35.9c0.1,0,0.2,0,0.3,0.1C80.3,36,80.2,36,80.2,35.9z"/>
			<path class="st9" d="M71.1,34.4c0.2,0,0.4,0,0.6,0C71.5,34.4,71.3,34.4,71.1,34.4z"/>
			<path class="st9" d="M61.3,34.1c0.3,0,0.6,0,0.9,0C62,34.1,61.6,34.1,61.3,34.1z"/>
			<path class="st9" d="M68.5,34.2c0.2,0,0.5,0,0.7,0C69,34.2,68.8,34.2,68.5,34.2z"/>
			<path class="st9" d="M69.8,34.3c0.2,0,0.4,0,0.7,0C70.3,34.3,70,34.3,69.8,34.3z"/>
			<path class="st9" d="M86,38.2C86,38.2,86.1,38.2,86,38.2C86.1,38.2,86,38.2,86,38.2z"/>
			<path class="st9" d="M88.3,39.7L88.3,39.7L88.3,39.7z"/>
			<path class="st9" d="M86.7,38.5L86.7,38.5L86.7,38.5z"/>
			<path class="st9" d="M87.3,38.9L87.3,38.9L87.3,38.9z"/>
			<path class="st9" d="M81.2,36.2c0.1,0,0.1,0,0.2,0C81.3,36.3,81.2,36.2,81.2,36.2z"/>
			<path class="st9" d="M88.7,40.1L88.7,40.1L88.7,40.1z"/>
			<path class="st9" d="M64,34c-0.4,0-0.9,0-1.3,0C63.1,34,63.6,34,64,34z"/>
			<path class="st9" d="M87.8,39.3L87.8,39.3L87.8,39.3z"/>
			<path class="st9" d="M83.8,37.1h0.1C83.9,37.2,83.9,37.1,83.8,37.1z"/>
			<path class="st9" d="M64,34c0.4,0,0.9,0,1.3,0C64.9,34,64.4,34,64,34z"/>
			<path class="st9" d="M82.1,36.5c0,0,0.1,0,0.2,0C82.2,36.5,82.1,36.5,82.1,36.5z"/>
			<path class="st9" d="M83,36.8h0.1C83,36.8,83,36.8,83,36.8z"/>
			<path class="st9" d="M84.6,37.4C84.7,37.4,84.7,37.5,84.6,37.4C84.7,37.5,84.6,37.4,84.6,37.4z"/>
			<path class="st9" d="M85.3,37.8C85.4,37.8,85.4,37.8,85.3,37.8C85.4,37.8,85.4,37.8,85.3,37.8z"/>
			<path class="st9" d="M67.2,34.1c0.2,0,0.5,0,0.8,0C67.7,34.1,67.4,34.1,67.2,34.1z"/>
			<path class="st9" d="M41.9,38.2C42,38.2,42,38.1,41.9,38.2C42,38.2,41.9,38.2,41.9,38.2z"/>
			<path class="st9" d="M41.2,38.5C41.2,38.5,41.3,38.5,41.2,38.5C41.3,38.5,41.3,38.5,41.2,38.5z"/>
			<path class="st9" d="M40.7,38.9L40.7,38.9L40.7,38.9z"/>
			<path class="st9" d="M42.6,37.8L42.6,37.8L42.6,37.8z"/>
			<path class="st9" d="M44.1,37.2h0.1C44.1,37.1,44.1,37.2,44.1,37.2z"/>
			<path class="st9" d="M43.3,37.5h0.1C43.4,37.4,43.3,37.5,43.3,37.5z"/>
			<path class="st9" d="M60.1,34.1c0.2,0,0.5,0,0.8,0C60.6,34.1,60.3,34.1,60.1,34.1z"/>
			<path class="st9" d="M64,51.7c-14.4,0-26.1-3.9-26.1-8.8v8c0,4.9,11.7,8.8,26.1,8.8s26.1-3.9,26.1-8.8l0,0v-8
				C90.1,47.8,78.4,51.7,64,51.7z"/>
			<path class="st9" d="M37.9,42.6v0.3C37.9,42.8,37.9,42.7,37.9,42.6L37.9,42.6z"/>
			<path class="st9" d="M44.9,36.9c0,0,0.1,0,0.2,0C45,36.8,45,36.8,44.9,36.9z"/>
			<path class="st9" d="M39.7,39.7L39.7,39.7L39.7,39.7z"/>
			<path class="st9" d="M90.1,42.6c0,0.1,0,0.2,0,0.3V42.6L90.1,42.6z"/>
			<path class="st9" d="M38.9,40.5L38.9,40.5L38.9,40.5z"/>
			<path class="st9" d="M39.3,40.1L39.3,40.1L39.3,40.1z"/>
			<path class="st9" d="M40.2,39.3L40.2,39.3L40.2,39.3z"/>
			<path class="st9" d="M55.1,34.6c0.2,0,0.4,0,0.6,0C55.5,34.5,55.3,34.6,55.1,34.6z"/>
			<path class="st9" d="M53.9,34.7c0.2,0,0.3,0,0.5,0C54.3,34.7,54.1,34.7,53.9,34.7z"/>
			<path class="st9" d="M56.3,34.4c0.2,0,0.4,0,0.6,0C56.7,34.4,56.5,34.4,56.3,34.4z"/>
			<path class="st9" d="M45.7,36.5c0,0,0.1,0,0.2,0C45.9,36.5,45.8,36.5,45.7,36.5z"/>
			<path class="st9" d="M58.8,34.2c0.2,0,0.5,0,0.7,0C59.3,34.2,59,34.2,58.8,34.2z"/>
			<path class="st9" d="M52.8,34.9c0.1,0,0.3,0,0.5-0.1C53.1,34.8,52.9,34.9,52.8,34.9z"/>
			<path class="st9" d="M57.5,34.3c0.2,0,0.4,0,0.7,0C58,34.3,57.7,34.3,57.5,34.3z"/>
			<path class="st9" d="M47.6,36c0.1,0,0.2,0,0.3-0.1C47.8,36,47.7,36,47.6,36z"/>
			<path class="st9" d="M46.6,36.3c0.1,0,0.1,0,0.2-0.1C46.8,36.2,46.7,36.3,46.6,36.3z"/>
			<path class="st9" d="M48.5,35.7c0.1,0,0.2,0,0.3-0.1C48.8,35.7,48.7,35.7,48.5,35.7z"/>
			<path class="st9" d="M49.6,35.5c0.1,0,0.2,0,0.4-0.1C49.8,35.5,49.7,35.5,49.6,35.5z"/>
			<path class="st9" d="M50.6,35.3c0.1,0,0.3,0,0.4-0.1C50.8,35.2,50.7,35.3,50.6,35.3z"/>
			<path class="st9" d="M51.7,35.1c0.1,0,0.3,0,0.4-0.1C52,35,51.8,35.1,51.7,35.1z"/>
		</g>
		<g>
			<path class="st9" d="M74.7,44.1c0.1,0,0.3,0,0.5,0.1C75.1,44.1,74.9,44.1,74.7,44.1z"/>
			<path class="st9" d="M73.5,44c0.2,0,0.3,0,0.5,0C73.9,44,73.7,44,73.5,44z"/>
			<path class="st9" d="M75.9,44.3c0.1,0,0.3,0,0.4,0.1C76.2,44.3,76,44.3,75.9,44.3z"/>
			<path class="st9" d="M77,44.5c0.1,0,0.3,0,0.4,0.1C77.3,44.5,77.2,44.5,77,44.5z"/>
			<path class="st9" d="M72.3,43.8c0.2,0,0.4,0,0.6,0C72.7,43.8,72.5,43.8,72.3,43.8z"/>
			<path class="st9" d="M79.2,45c0.1,0,0.2,0,0.3,0.1C79.3,45,79.2,45,79.2,45z"/>
			<path class="st9" d="M78.1,44.7c0.1,0,0.2,0,0.3,0.1C78.3,44.8,78.2,44.8,78.1,44.7z"/>
			<path class="st9" d="M38.5,50.2L38.5,50.2L38.5,50.2z"/>
			<path class="st9" d="M65.8,43.3c0.3,0,0.6,0,0.9,0C66.4,43.3,66,43.3,65.8,43.3z"/>
			<path class="st9" d="M80.2,45.2c0.1,0,0.2,0,0.3,0.1C80.3,45.3,80.2,45.2,80.2,45.2z"/>
			<path class="st9" d="M71.1,43.7c0.2,0,0.4,0,0.6,0C71.5,43.7,71.3,43.7,71.1,43.7z"/>
			<path class="st9" d="M61.3,43.4c0.3,0,0.6,0,0.9,0C62,43.3,61.6,43.3,61.3,43.4z"/>
			<path class="st9" d="M68.5,43.4c0.2,0,0.5,0,0.7,0C69,43.5,68.8,43.5,68.5,43.4z"/>
			<path class="st9" d="M69.8,43.5c0.2,0,0.4,0,0.7,0C70.3,43.6,70,43.6,69.8,43.5z"/>
			<path class="st9" d="M86,47.4C86,47.4,86.1,47.4,86,47.4C86.1,47.4,86,47.4,86,47.4z"/>
			<path class="st9" d="M88.3,48.9L88.3,48.9L88.3,48.9z"/>
			<path class="st9" d="M86.7,47.8L86.7,47.8L86.7,47.8z"/>
			<path class="st9" d="M87.3,48.2L87.3,48.2L87.3,48.2z"/>
			<path class="st9" d="M81.2,45.5c0.1,0,0.1,0,0.2,0C81.3,45.5,81.2,45.5,81.2,45.5z"/>
			<path class="st9" d="M88.7,49.3L88.7,49.3L88.7,49.3z"/>
			<path class="st9" d="M64,43.3c-0.4,0-0.9,0-1.3,0C63.1,43.3,63.6,43.3,64,43.3z"/>
			<path class="st9" d="M87.8,48.6L87.8,48.6L87.8,48.6z"/>
			<path class="st9" d="M83.8,46.4h0.1C83.9,46.4,83.9,46.4,83.8,46.4z"/>
			<path class="st9" d="M64,43.3c0.4,0,0.9,0,1.3,0C64.9,43.3,64.4,43.3,64,43.3z"/>
			<path class="st9" d="M82.1,45.8c0,0,0.1,0,0.2,0C82.2,45.8,82.1,45.8,82.1,45.8z"/>
			<path class="st9" d="M83,46.1h0.1C83,46.1,83,46.1,83,46.1z"/>
			<path class="st9" d="M84.6,46.7C84.7,46.7,84.7,46.8,84.6,46.7C84.7,46.8,84.6,46.8,84.6,46.7z"/>
			<path class="st9" d="M85.3,47.1C85.4,47.1,85.4,47.1,85.3,47.1C85.4,47.1,85.4,47.1,85.3,47.1z"/>
			<path class="st9" d="M67.2,43.4c0.2,0,0.5,0,0.8,0C67.7,43.4,67.4,43.4,67.2,43.4z"/>
			<path class="st9" d="M41.9,47.5C42,47.5,42,47.4,41.9,47.5C42,47.4,41.9,47.4,41.9,47.5z"/>
			<path class="st9" d="M41.2,47.8C41.2,47.8,41.3,47.8,41.2,47.8C41.3,47.8,41.3,47.8,41.2,47.8z"/>
			<path class="st9" d="M40.7,48.2L40.7,48.2L40.7,48.2z"/>
			<path class="st9" d="M42.6,47.1C42.6,47.1,42.6,47,42.6,47.1L42.6,47.1z"/>
			<path class="st9" d="M44.1,46.5h0.1C44.1,46.4,44.1,46.4,44.1,46.5z"/>
			<path class="st9" d="M43.3,46.8h0.1C43.4,46.8,43.3,46.8,43.3,46.8z"/>
			<path class="st9" d="M60.1,43.4c0.2,0,0.5,0,0.8,0C60.6,43.4,60.3,43.4,60.1,43.4z"/>
			<path class="st9" d="M64,61c-14.4,0-26.1-3.9-26.1-8.8v8C37.9,65,49.6,69,64,69s26.1-3.9,26.1-8.8l0,0v-8
				C90.1,57.1,78.4,61,64,61z"/>
			<path class="st9" d="M37.9,51.9v0.3C37.9,52.1,37.9,52,37.9,51.9L37.9,51.9z"/>
			<path class="st9" d="M44.9,46.1c0,0,0.1,0,0.2,0C45,46.1,45,46.1,44.9,46.1z"/>
			<path class="st9" d="M39.7,48.9L39.7,48.9L39.7,48.9z"/>
			<path class="st9" d="M90.1,51.9c0,0.1,0,0.2,0,0.3V51.9L90.1,51.9z"/>
			<path class="st9" d="M38.9,49.8L38.9,49.8L38.9,49.8z"/>
			<path class="st9" d="M39.3,49.4C39.3,49.3,39.3,49.3,39.3,49.4C39.3,49.3,39.3,49.3,39.3,49.4z"/>
			<path class="st9" d="M40.2,48.6L40.2,48.6L40.2,48.6z"/>
			<path class="st9" d="M55.1,43.9c0.2,0,0.4,0,0.6,0C55.5,43.8,55.3,43.8,55.1,43.9z"/>
			<path class="st9" d="M53.9,44c0.2,0,0.3,0,0.5,0C54.3,44,54.1,44,53.9,44z"/>
			<path class="st9" d="M56.3,43.7c0.2,0,0.4,0,0.6,0C56.7,43.7,56.5,43.7,56.3,43.7z"/>
			<path class="st9" d="M45.7,45.9c0,0,0.1,0,0.2,0C45.9,45.8,45.8,45.8,45.7,45.9z"/>
			<path class="st9" d="M58.8,43.5c0.2,0,0.5,0,0.7,0C59.3,43.5,59,43.5,58.8,43.5z"/>
			<path class="st9" d="M52.8,44.2c0.1,0,0.3,0,0.5-0.1C53.1,44.1,52.9,44.1,52.8,44.2z"/>
			<path class="st9" d="M57.5,43.6c0.2,0,0.4,0,0.7,0C58,43.6,57.7,43.6,57.5,43.6z"/>
			<path class="st9" d="M47.6,45.3c0.1,0,0.2,0,0.3-0.1C47.8,45.2,47.7,45.3,47.6,45.3z"/>
			<path class="st9" d="M46.6,45.6c0.1,0,0.1,0,0.2-0.1C46.8,45.5,46.7,45.5,46.6,45.6z"/>
			<path class="st9" d="M48.5,45c0.1,0,0.2,0,0.3-0.1C48.8,45,48.7,45,48.5,45z"/>
			<path class="st9" d="M49.6,44.8c0.1,0,0.2,0,0.4-0.1C49.8,44.8,49.7,44.8,49.6,44.8z"/>
			<path class="st9" d="M50.6,44.6c0.1,0,0.3,0,0.4-0.1C50.8,44.5,50.7,44.5,50.6,44.6z"/>
			<path class="st9" d="M51.7,44.4c0.1,0,0.3,0,0.4-0.1C52,44.3,51.8,44.3,51.7,44.4z"/>
		</g>
		<g>
			<path class="st9" d="M74.7,53.4c0.1,0,0.3,0,0.5,0.1C75.1,53.4,74.9,53.4,74.7,53.4z"/>
			<path class="st9" d="M73.5,53.2c0.2,0,0.3,0,0.5,0C73.9,53.3,73.7,53.2,73.5,53.2z"/>
			<path class="st9" d="M75.9,53.6c0.1,0,0.3,0,0.4,0.1C76.2,53.6,76,53.6,75.9,53.6z"/>
			<path class="st9" d="M77,53.8c0.1,0,0.3,0,0.4,0.1C77.3,53.8,77.2,53.8,77,53.8z"/>
			<path class="st9" d="M72.3,53.1c0.2,0,0.4,0,0.6,0C72.7,53.1,72.5,53.1,72.3,53.1z"/>
			<path class="st9" d="M79.2,54.3c0.1,0,0.2,0,0.3,0.1C79.3,54.3,79.2,54.3,79.2,54.3z"/>
			<path class="st9" d="M78.1,54c0.1,0,0.2,0,0.3,0.1C78.3,54.1,78.2,54,78.1,54z"/>
			<path class="st9" d="M38.5,59.4L38.5,59.4L38.5,59.4z"/>
			<path class="st9" d="M65.8,52.6c0.3,0,0.6,0,0.9,0C66.4,52.7,66,52.7,65.8,52.6z"/>
			<path class="st9" d="M80.2,54.5c0.1,0,0.2,0,0.3,0.1C80.3,54.5,80.2,54.5,80.2,54.5z"/>
			<path class="st9" d="M71.1,52.9c0.2,0,0.4,0,0.6,0C71.5,53,71.3,52.9,71.1,52.9z"/>
			<path class="st9" d="M61.3,52.7c0.3,0,0.6,0,0.9,0C62,52.7,61.6,52.7,61.3,52.7z"/>
			<path class="st9" d="M68.5,52.7c0.2,0,0.5,0,0.7,0C69,52.7,68.8,52.7,68.5,52.7z"/>
			<path class="st9" d="M69.8,52.8c0.2,0,0.4,0,0.7,0C70.3,52.8,70,52.8,69.8,52.8z"/>
			<path class="st9" d="M86,56.7C86,56.7,86.1,56.7,86,56.7C86.1,56.7,86,56.7,86,56.7z"/>
			<path class="st9" d="M88.3,58.2L88.3,58.2L88.3,58.2z"/>
			<path class="st9" d="M86.7,57.1L86.7,57.1L86.7,57.1z"/>
			<path class="st9" d="M87.3,57.4L87.3,57.4L87.3,57.4z"/>
			<path class="st9" d="M81.2,54.8c0.1,0,0.1,0,0.2,0C81.3,54.8,81.2,54.8,81.2,54.8z"/>
			<path class="st9" d="M88.7,58.6L88.7,58.6L88.7,58.6z"/>
			<path class="st9" d="M64,52.6c-0.4,0-0.9,0-1.3,0C63.1,52.6,63.6,52.6,64,52.6z"/>
			<path class="st9" d="M87.8,57.8L87.8,57.8L87.8,57.8z"/>
			<path class="st9" d="M83.8,55.7h0.1C83.9,55.7,83.9,55.7,83.8,55.7z"/>
			<path class="st9" d="M64,52.6c0.4,0,0.9,0,1.3,0C64.9,52.6,64.4,52.6,64,52.6z"/>
			<path class="st9" d="M82.1,55.1c0,0,0.1,0,0.2,0C82.2,55.1,82.1,55.1,82.1,55.1z"/>
			<path class="st9" d="M83,55.4h0.1C83,55.4,83,55.4,83,55.4z"/>
			<path class="st9" d="M84.6,56C84.7,56,84.7,56.1,84.6,56C84.7,56,84.6,56,84.6,56z"/>
			<path class="st9" d="M85.3,56.3C85.4,56.3,85.4,56.4,85.3,56.3C85.4,56.4,85.4,56.3,85.3,56.3z"/>
			<path class="st9" d="M67.2,52.7c0.2,0,0.5,0,0.8,0C67.7,52.7,67.4,52.7,67.2,52.7z"/>
			<path class="st9" d="M41.9,56.7C42,56.7,42,56.7,41.9,56.7C42,56.7,41.9,56.7,41.9,56.7z"/>
			<path class="st9" d="M41.2,57.1C41.2,57.1,41.3,57.1,41.2,57.1C41.3,57.1,41.3,57.1,41.2,57.1z"/>
			<path class="st9" d="M40.7,57.4L40.7,57.4L40.7,57.4z"/>
			<path class="st9" d="M42.6,56.4C42.6,56.4,42.6,56.3,42.6,56.4C42.6,56.3,42.6,56.4,42.6,56.4z"/>
			<path class="st9" d="M44.1,55.7h0.1C44.1,55.7,44.1,55.7,44.1,55.7z"/>
			<path class="st9" d="M43.3,56.1h0.1C43.4,56,43.3,56,43.3,56.1z"/>
			<path class="st9" d="M60.1,52.7c0.2,0,0.5,0,0.8,0C60.6,52.7,60.3,52.7,60.1,52.7z"/>
			<path class="st9" d="M64,70.3c-14.4,0-26.1-3.9-26.1-8.8v8c0,4.9,11.7,8.8,26.1,8.8s26.1-3.9,26.1-8.8l0,0v-8
				C90.1,66.3,78.4,70.3,64,70.3z"/>
			<path class="st9" d="M37.9,61.2v0.3C37.9,61.4,37.9,61.3,37.9,61.2L37.9,61.2z"/>
			<path class="st9" d="M44.9,55.4c0,0,0.1,0,0.2,0C45,55.4,45,55.4,44.9,55.4z"/>
			<path class="st9" d="M39.7,58.3C39.7,58.2,39.7,58.2,39.7,58.3C39.7,58.2,39.7,58.2,39.7,58.3z"/>
			<path class="st9" d="M90.1,61.2c0,0.1,0,0.2,0,0.3V61.2L90.1,61.2z"/>
			<path class="st9" d="M38.9,59.1C38.9,59,38.9,59,38.9,59.1C38.9,59,38.9,59,38.9,59.1z"/>
			<path class="st9" d="M39.3,58.6L39.3,58.6L39.3,58.6z"/>
			<path class="st9" d="M40.2,57.8L40.2,57.8L40.2,57.8z"/>
			<path class="st9" d="M55.1,53.1c0.2,0,0.4,0,0.6,0C55.5,53.1,55.3,53.1,55.1,53.1z"/>
			<path class="st9" d="M53.9,53.3c0.2,0,0.3,0,0.5,0C54.3,53.2,54.1,53.3,53.9,53.3z"/>
			<path class="st9" d="M56.3,53c0.2,0,0.4,0,0.6,0C56.7,52.9,56.5,53,56.3,53z"/>
			<path class="st9" d="M45.7,55.1c0,0,0.1,0,0.2,0C45.9,55.1,45.8,55.1,45.7,55.1z"/>
			<path class="st9" d="M58.8,52.8c0.2,0,0.5,0,0.7,0C59.3,52.7,59,52.7,58.8,52.8z"/>
			<path class="st9" d="M52.8,53.5c0.1,0,0.3,0,0.5-0.1C53.1,53.4,52.9,53.4,52.8,53.5z"/>
			<path class="st9" d="M57.5,52.9c0.2,0,0.4,0,0.7,0C58,52.8,57.7,52.8,57.5,52.9z"/>
			<path class="st9" d="M47.6,54.6c0.1,0,0.2,0,0.3-0.1C47.8,54.5,47.7,54.5,47.6,54.6z"/>
			<path class="st9" d="M46.6,54.8c0.1,0,0.1,0,0.2-0.1C46.8,54.8,46.7,54.8,46.6,54.8z"/>
			<path class="st9" d="M48.5,54.3c0.1,0,0.2,0,0.3-0.1C48.8,54.3,48.7,54.3,48.5,54.3z"/>
			<path class="st9" d="M49.6,54.1c0.1,0,0.2,0,0.4-0.1C49.8,54,49.7,54.1,49.6,54.1z"/>
			<path class="st9" d="M50.6,53.8c0.1,0,0.3,0,0.4-0.1C50.8,53.8,50.7,53.8,50.6,53.8z"/>
			<path class="st9" d="M51.7,53.6c0.1,0,0.3,0,0.4-0.1C52,53.6,51.8,53.6,51.7,53.6z"/>
		</g>
		<path class="st9" d="M64,32.6c14.4,0,26.1,4,26.1,8.8S78.4,50.3,64,50.3s-26.1-4-26.1-8.8S49.6,32.6,64,32.6z"/>
	</g>
</g>
</svg>
