<?xml version="1.0" encoding="utf-8"?>
<!-- Generator: Adobe Illustrator 16.0.0, SVG Export Plug-In . SVG Version: 6.00 Build 0)  -->
<!DOCTYPE svg PUBLIC "-//W3C//DTD SVG 1.1//EN" "http://www.w3.org/Graphics/SVG/1.1/DTD/svg11.dtd">
<svg version="1.1" id="图层_1" xmlns="http://www.w3.org/2000/svg" xmlns:xlink="http://www.w3.org/1999/xlink" x="0px" y="0px"
	 width="128px" height="128px" viewBox="0 0 128 128" enable-background="new 0 0 128 128" xml:space="preserve">
<polygon opacity="0.08" enable-background="new    " points="18.31,128 18.31,4 113.689,4 113.689,92.995 78.686,128 "/>
<polygon display="none" opacity="0.08" enable-background="new    " points="22.31,126 22.31,6 113.689,6 113.689,92.167 
	79.857,126 "/>
<polygon opacity="0.1" enable-background="new    " points="20.31,126 20.31,6 111.689,6 111.689,92.167 77.857,126 "/>
<polygon opacity="0.2" enable-background="new    " points="18.31,124 18.31,4 109.689,4 109.689,90.167 75.857,124 "/>
<polygon fill="#01579B" points="20.298,122 20.298,6 107.702,6 107.702,89.339 75.033,122 "/>
<g>
	<g>
		<g>
			<g>
				
					<linearGradient id="SVGID_1_" gradientUnits="userSpaceOnUse" x1="147.1953" y1="-575.8003" x2="147.1953" y2="-461.8008" gradientTransform="matrix(1 0 0 -1 -83.2002 -454.8008)">
					<stop  offset="0" style="stop-color:#2196F3"/>
					<stop  offset="0.5828" style="stop-color:#3DBAE8"/>
					<stop  offset="1" style="stop-color:#4DD0E1"/>
				</linearGradient>
				<polygon fill="url(#SVGID_1_)" points="21.289,121 21.289,7 106.699,7 106.699,88.938 74.637,121 				"/>
			</g>
			<polygon fill="#01579B" fill-opacity="0.39" points="106.699,88.938 106.699,87.557 72.878,87.557 72.878,121 74.637,121 			"/>
			<path fill="#FFFFFF" fill-opacity="0.3922" d="M74.593,88.938l32.114,0.045L74.637,121L74.593,88.938z"/>
		</g>
		<g>
			<path opacity="0.8" fill="#FFFFFF" enable-background="new    " d="M79.149,46.804c3.333,0,6.034,2.701,6.034,6.038
				c0,3.333-2.701,6.034-6.034,6.034c-3.332,0-6.034-2.701-6.034-6.034C73.115,49.505,75.817,46.804,79.149,46.804z"/>
			<path opacity="0.8" fill="#FFFFFF" enable-background="new    " d="M34.311,40.254V79.2h59.379V40.254H34.311z M89.406,44.525
				v30.4l0,0l-13.774-9.782l-9.838,6.027L53.166,55.925l-14.588,19v-30.4H89.406z"/>
		</g>
	</g>
	<g>
		<rect x="21.271" y="7" opacity="0.8" fill="#FFFFFF" enable-background="new    " width="85.459" height="21.85"/>
		<g enable-background="new    ">
			<path fill="#0288D1" d="M52.616,9.286v3.269H47.21v13.76h-4.034v-13.76H37.77V9.286H52.616z"/>
			<path fill="#0288D1" d="M55.203,9.286h4.034v17.029h-4.034V9.286z"/>
			<path fill="#0288D1" d="M63.382,26.315V9.286h11.997v3.221h-7.967v3.563h7.092v3.218h-7.092v7.028H63.382z"/>
			<path fill="#0288D1" d="M78.229,26.315V9.286h11.993v3.221h-7.956v3.563h7.081v3.218h-7.081v7.028H78.229z"/>
		</g>
	</g>
</g>
</svg>
