<?xml version="1.0" encoding="utf-8"?>
<!-- Generator: Adobe Illustrator 21.0.0, SVG Export Plug-In . SVG Version: 6.00 Build 0)  -->
<svg version="1.1" id="图层_1" xmlns="http://www.w3.org/2000/svg" xmlns:xlink="http://www.w3.org/1999/xlink" x="0px" y="0px"
	 viewBox="0 0 128 128" style="enable-background:new 0 0 128 128;" xml:space="preserve">
<style type="text/css">
	.st0{opacity:0.2;enable-background:new    ;}
	.st1{opacity:0.08;enable-background:new    ;}
	.st2{opacity:0.1;enable-background:new    ;}
	.st3{fill:#E65100;}
	.st4{fill:url(#SVGID_1_);}
	.st5{opacity:0.8;}
	.st6{fill:#FFFFFF;}
</style>
<rect x="18.3" y="4" class="st0" width="91.4" height="120"/>
<rect x="18.3" y="4" class="st1" width="95.4" height="124"/>
<rect x="20.3" y="6" class="st2" width="91.4" height="120"/>
<rect x="20.3" y="6" class="st3" width="87.4" height="116"/>
<g>
	
		<linearGradient id="SVGID_1_" gradientUnits="userSpaceOnUse" x1="105.6001" y1="-794.9004" x2="105.6001" y2="-680.9004" gradientTransform="matrix(1 0 0 -1 -41.6001 -673.9004)">
		<stop  offset="0" style="stop-color:#EE6F0B"/>
		<stop  offset="1" style="stop-color:#FFB74D"/>
	</linearGradient>
	<rect x="21.3" y="7" class="st4" width="85.4" height="114"/>
	<g class="st5">
		<rect x="32.4" y="37.6" class="st6" width="9.1" height="45.7"/>
		<rect x="47.6" y="60.4" class="st6" width="9.1" height="22.8"/>
		<rect x="62.8" y="69.7" class="st6" width="9.1" height="13.7"/>
		<g>
			<path class="st6" d="M75.2,29.6l0.1,18.2l18.2-0.1c0,10.1-8.1,18.2-18.1,18.3C65.2,66,57.1,57.9,57,47.8
				C57,37.8,65.1,29.6,75.2,29.6z"/>
			<path class="st6" d="M77.3,27.5c10.1,0,18.2,8.1,18.3,18.1l-18.2,0.1L77.3,27.5z"/>
		</g>
	</g>
</g>
</svg>
