<?xml version="1.0" encoding="utf-8"?>
<!-- Generator: Adobe Illustrator 16.0.0, SVG Export Plug-In . SVG Version: 6.00 Build 0)  -->
<!DOCTYPE svg PUBLIC "-//W3C//DTD SVG 1.1//EN" "http://www.w3.org/Graphics/SVG/1.1/DTD/svg11.dtd">
<svg version="1.1" id="图层_1" xmlns="http://www.w3.org/2000/svg" xmlns:xlink="http://www.w3.org/1999/xlink" x="0px" y="0px"
	 width="128px" height="128px" viewBox="0 0 128 128" enable-background="new 0 0 128 128" xml:space="preserve">
<polygon opacity="0.08" enable-background="new    " points="18.31,128 18.31,4 113.689,4 113.689,92.995 78.686,128 "/>
<polygon display="none" opacity="0.08" enable-background="new    " points="22.31,126 22.31,6 113.689,6 113.689,92.167 
	79.857,126 "/>
<polygon opacity="0.1" enable-background="new    " points="20.31,126 20.31,6 111.689,6 111.689,92.167 77.857,126 "/>
<polygon opacity="0.2" enable-background="new    " points="18.31,124 18.31,4 109.689,4 109.689,90.167 75.857,124 "/>
<polygon fill="#01579B" points="20.298,122 20.298,6 107.702,6 107.702,89.339 75.033,122 "/>
<g>
	<g>
		<g>
			<g>
				
					<linearGradient id="SVGID_1_" gradientUnits="userSpaceOnUse" x1="147.1953" y1="-575.8003" x2="147.1953" y2="-461.8008" gradientTransform="matrix(1 0 0 -1 -83.2002 -454.8008)">
					<stop  offset="0" style="stop-color:#2196F3"/>
					<stop  offset="0.5828" style="stop-color:#3DBAE8"/>
					<stop  offset="1" style="stop-color:#4DD0E1"/>
				</linearGradient>
				<polygon fill="url(#SVGID_1_)" points="21.289,121 21.289,7 106.699,7 106.699,88.938 74.637,121 				"/>
			</g>
			<polygon fill="#01579B" fill-opacity="0.39" points="106.699,88.938 106.699,87.557 72.878,87.557 72.878,121 74.637,121 			"/>
			<path fill="#FFFFFF" fill-opacity="0.3922" d="M74.593,88.938l32.114,0.045L74.637,121L74.593,88.938z"/>
		</g>
		<g>
			<path opacity="0.8" fill="#FFFFFF" enable-background="new    " d="M79.149,46.804c3.333,0,6.034,2.701,6.034,6.038
				c0,3.333-2.701,6.034-6.034,6.034c-3.332,0-6.034-2.701-6.034-6.034C73.115,49.505,75.817,46.804,79.149,46.804z"/>
			<path opacity="0.8" fill="#FFFFFF" enable-background="new    " d="M34.311,40.254V79.2h59.379V40.254H34.311z M89.406,44.525
				v30.4l0,0l-13.774-9.782l-9.838,6.027L53.166,55.925l-14.588,19v-30.4H89.406z"/>
		</g>
	</g>
	<g>
		<rect x="21.271" y="7" opacity="0.8" fill="#FFFFFF" enable-background="new    " width="85.459" height="21.85"/>
		<g enable-background="new    ">
			<path fill="#0288D1" d="M52.331,20.589c0,0.839-0.097,1.625-0.297,2.36c-0.193,0.735-0.542,1.38-1.032,1.93
				c-0.489,0.549-1.157,0.987-1.988,1.299c-0.839,0.327-1.893,0.482-3.17,0.482c-1.172,0-2.182-0.141-3.027-0.408
				c-0.847-0.267-1.544-0.579-2.094-0.943l1.344-2.976c0.497,0.282,1.031,0.527,1.604,0.742c0.571,0.208,1.188,0.312,1.862,0.312
				c0.979,0,1.685-0.223,2.123-0.683c0.431-0.46,0.646-1.232,0.646-2.315V9.286h4.03V20.589z"/>
			<path fill="#0288D1" d="M61.594,9.093c2.672,0,4.72,0.445,6.152,1.336c1.429,0.891,2.141,2.36,2.141,4.387
				c0,2.048-0.712,3.525-2.163,4.431c-1.447,0.913-3.518,1.366-6.212,1.366H60.25v5.7h-4.037V9.531
				c0.883-0.163,1.811-0.274,2.79-0.341C59.99,9.123,60.852,9.093,61.594,9.093z M61.854,12.358c-0.297,0-0.587,0.008-0.869,0.03
				c-0.281,0.015-0.526,0.03-0.734,0.044v4.914h1.262c1.402,0,2.449-0.178,3.162-0.542c0.705-0.364,1.061-1.032,1.061-2.011
				c0-0.475-0.096-0.868-0.274-1.18c-0.178-0.312-0.438-0.564-0.779-0.75c-0.334-0.193-0.742-0.319-1.225-0.394
				S62.439,12.358,61.854,12.358z"/>
			<path fill="#0288D1" d="M81.613,12.24c-1.885,0-3.235,0.49-4.082,1.484c-0.831,0.995-1.246,2.345-1.246,4.067
				c0,0.831,0.104,1.588,0.312,2.271s0.52,1.262,0.92,1.751c0.416,0.498,0.936,0.876,1.559,1.143
				c0.624,0.274,1.351,0.408,2.167,0.408c0.461,0,0.832-0.007,1.158-0.022c0.312-0.015,0.594-0.044,0.846-0.104v-5.923h4.023v8.431
				c-0.476,0.178-1.247,0.371-2.316,0.579c-1.083,0.208-2.39,0.312-3.963,0.312c-1.351,0-2.568-0.2-3.666-0.594
				c-1.084-0.393-2.02-0.965-2.806-1.722c-0.772-0.75-1.366-1.677-1.796-2.776c-0.416-1.099-0.639-2.345-0.639-3.755
				c0-1.425,0.237-2.687,0.713-3.785c0.46-1.099,1.098-2.034,1.899-2.791c0.816-0.757,1.767-1.336,2.865-1.737
				c1.099-0.386,2.256-0.586,3.503-0.586c0.846,0,1.604,0.052,2.286,0.156c0.683,0.111,1.276,0.238,1.767,0.371
				c0.489,0.141,0.891,0.282,1.217,0.431c0.312,0.148,0.549,0.267,0.683,0.341l-1.173,3.073c-0.549-0.275-1.172-0.52-1.899-0.72
				C83.231,12.336,82.46,12.24,81.613,12.24z"/>
		</g>
	</g>
</g>
</svg>
