<?xml version="1.0" encoding="utf-8"?>
<!-- Generator: Adobe Illustrator 16.0.0, SVG Export Plug-In . SVG Version: 6.00 Build 0)  -->
<!DOCTYPE svg PUBLIC "-//W3C//DTD SVG 1.1//EN" "http://www.w3.org/Graphics/SVG/1.1/DTD/svg11.dtd">
<svg version="1.1" id="图层_1" xmlns="http://www.w3.org/2000/svg" xmlns:xlink="http://www.w3.org/1999/xlink" x="0px" y="0px"
	 width="128px" height="128px" viewBox="0 0 128 128" enable-background="new 0 0 128 128" xml:space="preserve">
<polygon opacity="0.08" enable-background="new    " points="18.31,128 18.31,4 113.689,4 113.689,92.995 78.686,128 "/>
<polygon display="none" opacity="0.08" enable-background="new    " points="22.31,126 22.31,6 113.689,6 113.689,92.167 
	79.857,126 "/>
<polygon opacity="0.1" enable-background="new    " points="20.31,126 20.31,6 111.689,6 111.689,92.167 77.857,126 "/>
<polygon opacity="0.2" enable-background="new    " points="18.31,124 18.31,4 109.689,4 109.689,90.167 75.857,124 "/>
<polygon fill="#E65100" points="20.298,122 20.298,6 107.702,6 107.702,89.339 75.034,122 "/>
<g>
	<g>
		<g>
			
				<linearGradient id="SVGID_1_" gradientUnits="userSpaceOnUse" x1="105.5996" y1="-156.8999" x2="105.5996" y2="-42.9004" gradientTransform="matrix(1 0 0 -1 -41.6001 -35.9004)">
				<stop  offset="0" style="stop-color:#EE6F0B"/>
				<stop  offset="1" style="stop-color:#FFB74D"/>
			</linearGradient>
			<polygon fill="url(#SVGID_1_)" points="21.294,121 21.294,7 106.705,7 106.705,88.938 74.643,121 			"/>
		</g>
		<polygon fill="#E65100" fill-opacity="0.3922" points="106.705,88.938 106.705,87.557 72.884,87.557 72.884,121 74.643,121 		"/>
		<path fill="#FFFFFF" fill-opacity="0.3922" d="M74.591,88.938l32.114,0.045L74.643,121L74.591,88.938z"/>
	</g>
	<g opacity="0.8">
		<rect x="32.413" y="50.886" fill="#FFFFFF" width="9.122" height="45.696"/>
		<rect x="47.612" y="73.686" fill="#FFFFFF" width="9.122" height="22.845"/>
		<rect x="62.768" y="82.992" fill="#FFFFFF" width="9.122" height="13.687"/>
		<g>
			<path fill="#FFFFFF" d="M75.162,42.811l0.097,18.191l18.191-0.096c0.052,10.071-8.075,18.243-18.146,18.287
				c-10.064,0.052-18.235-8.075-18.288-18.139C56.972,51.026,65.091,42.855,75.162,42.811z"/>
			<path fill="#FFFFFF" d="M77.3,40.718c10.071-0.045,18.243,8.075,18.288,18.146L77.396,58.96L77.3,40.718z"/>
		</g>
	</g>
	<g>
		<rect x="21.272" y="7" opacity="0.8" fill="#FFFFFF" enable-background="new    " width="85.455" height="21.85"/>
		<g enable-background="new    ">
			<path fill="#E64A19" d="M41.497,9.286c0.312,0.542,0.668,1.209,1.076,2.004c0.408,0.794,0.831,1.655,1.269,2.583
				c0.438,0.92,0.875,1.871,1.306,2.835c0.438,0.965,0.839,1.87,1.225,2.731c0.378-0.861,0.787-1.766,1.217-2.731
				c0.43-0.965,0.868-1.915,1.306-2.835c0.445-0.928,0.868-1.789,1.276-2.583c0.401-0.794,0.765-1.462,1.076-2.004h3.667
				c0.17,1.128,0.334,2.397,0.482,3.8c0.148,1.396,0.274,2.857,0.386,4.372s0.215,3.036,0.312,4.557
				c0.089,1.521,0.178,2.961,0.245,4.297h-3.934c-0.052-1.647-0.119-3.451-0.2-5.403c-0.09-1.945-0.223-3.919-0.394-5.893
				c-0.312,0.683-0.653,1.447-1.039,2.286c-0.379,0.831-0.757,1.662-1.128,2.501s-0.728,1.64-1.076,2.397
				c-0.342,0.757-0.639,1.41-0.884,1.952h-2.813c-0.245-0.542-0.542-1.195-0.883-1.952c-0.349-0.757-0.705-1.559-1.076-2.397
				c-0.378-0.839-0.75-1.67-1.128-2.501c-0.386-0.839-0.727-1.604-1.039-2.286c-0.178,1.974-0.304,3.948-0.393,5.893
				c-0.082,1.952-0.148,3.755-0.201,5.403H36.22c0.067-1.336,0.148-2.775,0.245-4.297s0.2-3.043,0.312-4.557
				s0.238-2.976,0.386-4.372c0.148-1.403,0.304-2.672,0.482-3.8H41.497z"/>
			<path fill="#E64A19" d="M68.676,12.24c-1.878,0-3.236,0.49-4.074,1.484c-0.832,0.995-1.247,2.345-1.247,4.067
				c0,0.831,0.097,1.588,0.304,2.271c0.208,0.683,0.52,1.262,0.928,1.751c0.416,0.498,0.936,0.876,1.559,1.143
				c0.624,0.274,1.344,0.408,2.168,0.408c0.452,0,0.831-0.007,1.157-0.022c0.312-0.015,0.594-0.044,0.839-0.104v-5.923h4.03v8.431
				c-0.476,0.178-1.255,0.371-2.323,0.579c-1.076,0.208-2.39,0.312-3.956,0.312c-1.351,0-2.567-0.2-3.666-0.594
				c-1.091-0.393-2.026-0.965-2.806-1.722c-0.771-0.75-1.373-1.677-1.796-2.776s-0.639-2.345-0.639-3.755
				c0-1.425,0.237-2.687,0.705-3.785c0.468-1.099,1.106-2.034,1.907-2.791c0.816-0.757,1.767-1.336,2.865-1.737
				c1.099-0.386,2.256-0.586,3.503-0.586c0.847,0,1.604,0.052,2.286,0.156c0.683,0.111,1.27,0.238,1.767,0.371
				c0.489,0.141,0.891,0.282,1.21,0.431c0.318,0.148,0.549,0.267,0.689,0.341l-1.172,3.073c-0.55-0.275-1.181-0.52-1.9-0.72
				C70.301,12.336,69.521,12.24,68.676,12.24z"/>
			<path fill="#E64A19" d="M83.468,9.093c2.679,0,4.728,0.445,6.16,1.336s2.152,2.36,2.152,4.387c0,2.048-0.728,3.525-2.183,4.431
				c-1.439,0.913-3.518,1.366-6.204,1.366h-1.262v5.7h-4.038V9.531c0.876-0.163,1.812-0.274,2.791-0.341S82.726,9.093,83.468,9.093z
				 M83.734,12.358c-0.297,0-0.586,0.008-0.868,0.03c-0.289,0.015-0.526,0.03-0.734,0.044v4.914h1.262
				c1.396,0,2.449-0.178,3.161-0.542c0.698-0.364,1.055-1.032,1.055-2.011c0-0.475-0.09-0.868-0.268-1.18
				c-0.178-0.312-0.445-0.564-0.779-0.75c-0.334-0.193-0.75-0.319-1.225-0.394C84.848,12.396,84.313,12.358,83.734,12.358z"/>
		</g>
	</g>
</g>
</svg>
