<?xml version="1.0" encoding="utf-8"?>
<!-- Generator: Adobe Illustrator 16.0.0, SVG Export Plug-In . SVG Version: 6.00 Build 0)  -->
<!DOCTYPE svg PUBLIC "-//W3C//DTD SVG 1.1//EN" "http://www.w3.org/Graphics/SVG/1.1/DTD/svg11.dtd">
<svg version="1.1" id="图层_1" xmlns="http://www.w3.org/2000/svg" xmlns:xlink="http://www.w3.org/1999/xlink" x="0px" y="0px"
	 width="128px" height="128px" viewBox="0 0 128 128" enable-background="new 0 0 128 128" xml:space="preserve">
<polygon opacity="0.08" enable-background="new    " points="18.31,128 18.31,4 113.689,4 113.689,92.995 78.686,128 "/>
<polygon display="none" opacity="0.08" enable-background="new    " points="22.31,126 22.31,6 113.689,6 113.689,92.167 
	79.857,126 "/>
<polygon opacity="0.1" enable-background="new    " points="20.31,126 20.31,6 111.689,6 111.689,92.167 77.857,126 "/>
<polygon opacity="0.2" enable-background="new    " points="18.31,124 18.31,4 109.689,4 109.689,90.167 75.857,124 "/>
<polygon fill="#455A64" points="20.298,122 20.298,6 107.702,6 107.702,89.339 75.034,122 "/>
<g>
	<g>
		<g>
			
				<linearGradient id="SVGID_1_" gradientUnits="userSpaceOnUse" x1="105.6006" y1="425.8994" x2="105.6006" y2="539.9004" gradientTransform="matrix(1 0 0 1 -41.6001 -418.9004)">
				<stop  offset="0" style="stop-color:#90A4AE"/>
				<stop  offset="0.1378" style="stop-color:#849AA5"/>
				<stop  offset="0.4226" style="stop-color:#708A97"/>
				<stop  offset="0.7096" style="stop-color:#64808E"/>
				<stop  offset="1" style="stop-color:#607D8B"/>
			</linearGradient>
			<polygon fill="url(#SVGID_1_)" points="21.292,121 21.292,7 106.708,7 106.708,88.932 74.646,121 			"/>
		</g>
		<polygon fill="#455A64" fill-opacity="0.39" points="106.708,88.932 106.708,87.559 72.885,87.559 72.885,121 74.646,121 		"/>
		<path fill="#FFFFFF" fill-opacity="0.39" d="M74.592,88.932l32.116,0.049L74.646,121L74.592,88.932z"/>
	</g>
	<g opacity="0.8">
		<path fill="#FFFFFF" d="M69.561,55.258c0.048-0.106,0.101-0.186,0.138-0.284c0.096-0.194,0.196-0.342,0.244-0.52v-0.059
			c0.424-0.952,0.812-1.991,1.039-3.03h3.998v-8.076h-3.998c-0.429-1.67-1.039-3.234-1.94-4.708l2.848-2.849l-5.699-5.696
			l-2.805,2.799c-1.479-0.901-3.091-1.569-4.75-1.993h0.053v-3.899h-8.079v3.984h0.053c-1.723,0.435-3.334,1.103-4.808,2.009
			l-2.746-2.863l-5.715,5.712l2.862,2.847c-0.854,1.423-1.521,2.987-1.956,4.694h-3.986v8.076h3.986
			c0.435,1.67,1.103,3.282,1.956,4.708l0,0l-2.862,2.849l5.715,5.691l2.841-2.85c1.427,0.906,3.038,1.574,4.75,1.958v3.993h8.074
			v-3.993l0,0l0,0c1.67-0.429,3.281-1.097,4.708-1.958l2.852,2.85l5.688-5.691l-2.842-2.849l0,0
			c0.096-0.144,0.196-0.334,0.281-0.469C69.46,55.494,69.513,55.354,69.561,55.258z M54.701,60.199
			c-7.141,0-12.888-5.744-12.888-12.872c0-7.133,5.747-12.882,12.888-12.882c1.426,0,2.746,0.239,4.034,0.673l0,0
			c5.132,1.707,8.832,6.502,8.832,12.209c0,0.324,0,0.708-0.048,1.042c0,0,0,0,0,0.047c-0.101,1.044-0.286,2.046-0.62,2.987
			c0,0.051,0,0.051-0.048,0.098c-0.186,0.621-0.477,1.188-0.758,1.757c0,0.053-0.053,0.053-0.053,0.098
			c-0.133,0.289-0.281,0.52-0.467,0.809l-0.053,0.053c-0.148,0.236-0.334,0.52-0.52,0.755c0,0,0,0.045-0.054,0.045
			c-0.186,0.239-0.376,0.475-0.562,0.705c-0.053,0.053-0.053,0.053-0.106,0.095c-0.371,0.478-0.8,0.907-1.277,1.294
			c-0.042,0.037-0.096,0.037-0.096,0.087c-0.238,0.193-0.466,0.387-0.721,0.564c-0.037,0.053-0.079,0.053-0.079,0.104
			c-0.239,0.148-0.482,0.334-0.722,0.474c-0.053,0-0.053,0.045-0.09,0.045c-0.244,0.148-0.53,0.284-0.764,0.432
			c-0.053,0.05-0.09,0.05-0.186,0.087c-0.238,0.148-0.52,0.251-0.806,0.387c-0.048,0-0.048,0-0.101,0.045
			c-0.233,0.103-0.472,0.19-0.753,0.289C57.548,59.963,56.127,60.199,54.701,60.199z"/>
		<path fill="#FFFFFF" d="M91.742,59.963c0-0.045,0-0.103,0-0.193s0-0.239,0-0.326c0,0,0,0,0-0.053c0-0.57,0-1.188-0.096-1.757
			l2.041-0.854l-1.707-4.135l-2.041,0.854c-0.572-0.758-1.229-1.426-1.999-1.996l0.854-2.041l-4.124-1.712l-0.869,2.046
			c-0.934-0.138-1.893-0.138-2.842,0l0,0l-0.858-2.046l-4.119,1.712l0.854,2.041l0,0c-0.812,0.57-1.479,1.291-2.041,2.049
			l-2.052-0.862l-1.707,4.141l2.041,0.854c-0.148,0.898-0.148,1.847,0,2.799l-2.041,0.854l1.707,4.133l2.052-0.846
			c0.562,0.75,1.229,1.426,1.987,1.99l0,0l-0.854,2.041l4.136,1.713l0.858-2.047c0.933,0.144,1.893,0.144,2.842,0l0.864,2.047
			l4.119-1.713l-0.854-2.041l0,0l0,0c0.769-0.564,1.42-1.24,1.993-1.99l2.041,0.846l1.718-4.133l-2.052-0.854l0,0
			c0-0.103,0.053-0.186,0.053-0.334C91.699,60.096,91.699,60.05,91.742,59.963z M85.147,65.662
			c-3.664,1.519-7.847-0.193-9.314-3.859c-1.532-3.65,0.19-7.822,3.849-9.296c0.705-0.287,1.468-0.485,2.173-0.533l0,0
			c3.001-0.236,5.9,1.471,7.142,4.365c0.085,0.209,0.132,0.387,0.186,0.52l0,0c0.186,0.536,0.28,1.113,0.334,1.678v0.045
			c0.048,0.326,0,0.713,0,1.047v0.05c0,0.181-0.054,0.329-0.054,0.52v0.045c-0.047,0.135-0.047,0.342-0.095,0.474c0,0,0,0,0,0.045
			c-0.054,0.14-0.091,0.342-0.138,0.474c0,0.045,0,0.045,0,0.098c-0.102,0.334-0.233,0.615-0.382,0.957c0,0.045,0,0.045-0.054,0.09
			c-0.084,0.148-0.132,0.281-0.232,0.429l-0.048,0.045c-0.091,0.141-0.138,0.236-0.239,0.371c0,0,0,0.05-0.047,0.05
			c-0.102,0.148-0.186,0.239-0.287,0.387c0,0.053-0.047,0.053-0.047,0.095c-0.085,0.135-0.239,0.239-0.334,0.371l-0.037,0.053
			c-0.102,0.095-0.202,0.186-0.334,0.289C86.567,64.943,85.899,65.373,85.147,65.662z"/>
		<path fill="#FFFFFF" d="M73.781,74.83c0-0.053,0-0.105,0-0.143c0-0.096,0-0.191,0-0.281c0,0,0,0,0-0.053
			c0-0.52,0-1.055-0.08-1.574l1.798-0.753l-1.517-3.616l-1.813,0.77c-0.466-0.674-1.081-1.235-1.755-1.766l0.753-1.803l-3.6-1.479
			l-0.753,1.813c-0.816-0.148-1.67-0.148-2.534,0l0,0l-0.747-1.813l-3.621,1.53l0.769,1.811l0,0
			c-0.668,0.514-1.288,1.086-1.76,1.754l-1.808-0.763l-1.469,3.61l1.803,0.758c-0.148,0.801-0.148,1.617,0,2.48l-1.803,0.748
			l1.521,3.605l1.803-0.754c0.472,0.668,1.092,1.289,1.76,1.756l0,0L59.96,82.48l3.615,1.469l0.759-1.803
			c0.811,0.133,1.664,0.133,2.48,0l0.753,1.803l3.6-1.521l-0.753-1.803l0,0l0,0c0.674-0.477,1.289-1.092,1.755-1.76l1.813,0.764
			l1.463-3.611l-1.797-0.758l0,0c0-0.096,0.053-0.201,0.053-0.281C73.738,74.979,73.781,74.926,73.781,74.83z M68.039,79.814
			c-3.186,1.33-6.839-0.186-8.164-3.367c-1.336-3.186,0.186-6.85,3.366-8.174c0.626-0.287,1.278-0.436,1.946-0.473l0,0
			c2.613-0.195,5.179,1.277,6.219,3.844c0.053,0.148,0.148,0.334,0.201,0.482l0,0c0.133,0.467,0.228,0.943,0.281,1.426v0.037
			c0,0.334,0,0.615,0,0.906v0.043c0,0.148-0.054,0.291-0.054,0.439c0,0,0,0,0,0.043c-0.042,0.143-0.042,0.291-0.095,0.424
			c0,0,0,0,0,0.053c-0.037,0.133-0.091,0.281-0.133,0.414v0.053c-0.106,0.281-0.201,0.572-0.334,0.807c0,0,0,0.047-0.053,0.047
			c-0.054,0.148-0.133,0.238-0.186,0.387c0,0,0,0.049-0.054,0.049c-0.042,0.084-0.148,0.232-0.228,0.334c0,0,0,0.037-0.053,0.037
			c-0.101,0.1-0.186,0.248-0.239,0.334c0,0.047-0.048,0.047-0.048,0.1c-0.101,0.096-0.186,0.186-0.286,0.334c0,0,0,0-0.048,0.049
			c-0.101,0.09-0.186,0.186-0.286,0.285C69.274,79.199,68.654,79.58,68.039,79.814z"/>
	</g>
</g>
</svg>
