<?xml version="1.0" encoding="utf-8"?>
<!-- Generator: Adobe Illustrator 21.0.0, SVG Export Plug-In . SVG Version: 6.00 Build 0)  -->
<svg version="1.1" id="图层_1" xmlns="http://www.w3.org/2000/svg" xmlns:xlink="http://www.w3.org/1999/xlink" x="0px" y="0px"
	 viewBox="0 0 128 128" style="enable-background:new 0 0 128 128;" xml:space="preserve">
<style type="text/css">
	.st0{opacity:0.08;enable-background:new    ;}
	.st1{display:none;opacity:0.08;enable-background:new    ;}
	.st2{opacity:0.1;enable-background:new    ;}
	.st3{opacity:0.2;enable-background:new    ;}
	.st4{fill:#455A64;}
	.st5{fill:url(#SVGID_1_);}
	.st6{fill:#455A64;fill-opacity:0.39;}
	.st7{fill:#FFFFFF;fill-opacity:0.39;}
	.st8{opacity:0.8;fill:#FFFFFF;enable-background:new    ;}
</style>
<polygon class="st0" points="18.3,128 18.3,4 113.7,4 113.7,93 78.7,128 "/>
<polygon class="st1" points="22.3,126 22.3,6 113.7,6 113.7,92.2 79.9,126 "/>
<polygon class="st2" points="20.3,126 20.3,6 111.7,6 111.7,92.2 77.9,126 "/>
<polygon class="st3" points="18.3,124 18.3,4 109.7,4 109.7,90.2 75.9,124 "/>
<polygon class="st4" points="20.3,122 20.3,6 107.7,6 107.7,89.3 75,122 "/>
<g>
	<g>
		<g>
			
				<linearGradient id="SVGID_1_" gradientUnits="userSpaceOnUse" x1="147.2002" y1="1493.8008" x2="147.2002" y2="1607.8008" gradientTransform="matrix(1 0 0 1 -83.2002 -1486.8008)">
				<stop  offset="0" style="stop-color:#90A4AE"/>
				<stop  offset="0.1378" style="stop-color:#849AA5"/>
				<stop  offset="0.4226" style="stop-color:#708A97"/>
				<stop  offset="0.7096" style="stop-color:#64808E"/>
				<stop  offset="1" style="stop-color:#607D8B"/>
			</linearGradient>
			<polygon class="st5" points="21.3,121 21.3,7 106.7,7 106.7,88.9 74.6,121 			"/>
		</g>
		<polygon class="st6" points="106.7,88.9 106.7,87.6 72.9,87.6 72.9,121 74.6,121 		"/>
		<path class="st7" d="M74.6,88.9h32.1l-32.1,32V88.9z"/>
	</g>
	<path class="st8" d="M85.5,58.9c1.9,0,3.6,0.8,4.8,2V50.2H73.8c1.2-1.2,2-3,2-4.9c0-3.8-3.1-6.9-6.9-6.9S62,41.5,62,45.3
		c0,1.9,0.8,3.6,2,4.9H47.4V61c-1.2-1.2-2.9-2-4.8-2c-3.8,0-6.9,3.1-6.9,6.9s3.1,6.9,6.9,6.9c1.9,0,3.6-0.8,4.9-2v10.7H64
		c-1.2-1.2-2-3-2-4.9c0-3.8,3.1-6.9,6.9-6.9s6.9,3.1,6.9,6.9c0,1.9-0.8,3.6-2,4.9h16.6V70.7c-1.2,1.2-2.9,2-4.8,2
		c-3.8,0-6.9-3.1-6.9-6.9C78.6,62,81.7,58.9,85.5,58.9z"/>
	<g>
		<rect x="21.3" y="7" class="st8" width="85.4" height="21.9"/>
		<g>
			<path class="st4" d="M57.2,17.9c0,1.5-0.2,2.7-0.7,3.8c-0.5,1.1-1.1,2-1.9,2.8s-1.7,1.3-2.8,1.7c-1.1,0.4-2.3,0.6-3.5,0.6
				s-2.4-0.2-3.5-0.6s-2-0.9-2.8-1.7c-0.8-0.7-1.5-1.7-1.9-2.8c-0.5-1.1-0.7-2.4-0.7-3.8c0-1.5,0.2-2.7,0.7-3.8s1.1-2,2-2.8
				c0.8-0.8,1.8-1.3,2.8-1.7c1-0.4,2.2-0.6,3.4-0.6s2.4,0.2,3.5,0.6c1.1,0.4,2,0.9,2.8,1.7s1.4,1.7,1.9,2.8S57.2,16.5,57.2,17.9z
				 M43.5,17.9c0,0.8,0.1,1.6,0.3,2.3c0.2,0.7,0.5,1.2,0.9,1.7s0.9,0.9,1.5,1.1c0.6,0.3,1.3,0.4,2,0.4s1.4-0.1,2-0.4
				s1.1-0.6,1.5-1.1s0.7-1.1,0.9-1.7c0.2-0.7,0.3-1.4,0.3-2.3c0-0.8-0.1-1.6-0.3-2.3s-0.5-1.3-0.9-1.7c-0.4-0.5-0.9-0.9-1.5-1.1
				c-0.6-0.3-1.3-0.4-2-0.4c-0.8,0-1.4,0.1-2,0.4c-0.6,0.3-1.1,0.6-1.5,1.1S44,15,43.8,15.6C43.6,16.3,43.5,17.1,43.5,17.9z"/>
			<path class="st4" d="M69.3,26.4c-0.5-1-1.1-1.9-1.7-2.9s-1.3-1.8-2.1-2.5c-0.2,0.3-0.5,0.6-0.9,1.1s-0.7,0.9-1.1,1.4
				c-0.4,0.5-0.7,1-1,1.6c-0.3,0.5-0.6,1-0.7,1.3h-4.6c0.8-1.3,1.6-2.7,2.7-4.1c1-1.4,2.2-2.9,3.4-4.5l-5.8-8.4h4.9l3.4,4.9l3.5-4.9
				h4.6l-5.8,8.2c1.5,1.8,2.8,3.5,3.8,5s1.8,2.8,2.3,3.8C74.2,26.4,69.3,26.4,69.3,26.4z"/>
			<path class="st4" d="M89.9,9.4v3.3h-5.4v13.8h-4V12.7h-5.4V9.4H89.9z"/>
		</g>
	</g>
</g>
</svg>
