<?xml version="1.0" encoding="utf-8"?>
<!-- Generator: Adobe Illustrator 21.0.0, SVG Export Plug-In . SVG Version: 6.00 Build 0)  -->
<svg version="1.1" id="图层_1" xmlns="http://www.w3.org/2000/svg" xmlns:xlink="http://www.w3.org/1999/xlink" x="0px" y="0px"
	 viewBox="0 0 128 128" style="enable-background:new 0 0 128 128;" xml:space="preserve">
<style type="text/css">
	.st0{opacity:0.2;enable-background:new    ;}
	.st1{opacity:0.08;enable-background:new    ;}
	.st2{opacity:0.1;enable-background:new    ;}
	.st3{fill:url(#SVGID_1_);}
	.st4{fill:#B71C1C;fill-opacity:0.3922;}
	.st5{fill:#FFFFFF;fill-opacity:0.3922;}
	.st6{opacity:0.8;}
	.st7{fill:#FFFFFF;}
	.st8{fill:#B71C1C;}
</style>
<g id="surface1">
	<polygon class="st0" points="18.5,124 18.5,4 109.5,4 109.5,90.2 75.7,124 	"/>
	<polygon class="st1" points="18.5,128 18.5,4 113.5,4 113.5,93 78.5,128 	"/>
	<polygon class="st2" points="20.5,126 20.5,6 111.5,6 111.5,92.2 77.7,126 	"/>
	<g>
		
			<linearGradient id="SVGID_1_" gradientUnits="userSpaceOnUse" x1="272.0005" y1="-2349.9512" x2="272.0005" y2="-2233.9512" gradientTransform="matrix(1 0 0 -1 -208.0005 -2227.9512)">
			<stop  offset="0" style="stop-color:#512DA8"/>
			<stop  offset="8.000000e-03" style="stop-color:#D32F2F"/>
			<stop  offset="0.3041" style="stop-color:#E33932"/>
			<stop  offset="0.6579" style="stop-color:#F04035"/>
			<stop  offset="1" style="stop-color:#F44336"/>
		</linearGradient>
		<path class="st3" d="M74.9,122l32.6-32.6V6h-87v116H74.9z"/>
		<polygon class="st4" points="73.1,87.6 73.1,122 74.9,122 107.5,89.4 107.5,87.6 		"/>
		<path class="st5" d="M74.9,89.4h32.6L74.9,122V89.4z"/>
		<g class="st6">
			<path class="st7" d="M67.2,38.2v12.9H45.9c-0.9,0-1.6-0.7-1.6-1.6v-9.7c0-0.9,0.7-1.6,1.6-1.6H67.2 M69.2,36.2H45.9
				c-2,0-3.6,1.6-3.6,3.6v9.7c0,2,1.6,3.6,3.6,3.6h23.3V36.2L69.2,36.2z"/>
			<g>
				<path class="st7" d="M69.7,52.6V36.7h12.4c1.7,0,3.1,1.4,3.1,3.1v9.7c0,1.7-1.4,3.1-3.1,3.1H69.7z M77,50.2l5.9-9.1H71.1
					L77,50.2z"/>
				<path class="st7" d="M82.1,37.2c1.4,0,2.6,1.2,2.6,2.6v9.7c0,1.4-1.2,2.6-2.6,2.6H70.2V40.6l1,1.5l5,7.7l0.8,1.3l0.8-1.3l5-7.7
					l1-1.5H82H72h-1.8v-3.4L82.1,37.2 M82.1,36.2H69.2v16.9h12.9c2,0,3.6-1.6,3.6-3.6v-9.7C85.7,37.8,84.1,36.2,82.1,36.2L82.1,36.2
					z M77,49.3l-5-7.7h10L77,49.3L77,49.3z"/>
			</g>
			<path class="st7" d="M76,62.4c4.2,0,7.7,3.4,7.7,7.7s-3.4,7.7-7.7,7.7s-7.7-3.4-7.7-7.7S71.8,62.4,76,62.4 M76,60.4
				c-5.3,0-9.7,4.3-9.7,9.7s4.3,9.7,9.7,9.7s9.7-4.3,9.7-9.7S81.4,60.4,76,60.4L76,60.4z"/>
			<g>
				<path class="st7" d="M58,60.4H45.9c-2,0-3.6,1.6-3.6,3.6v12.1c0,2,1.6,3.6,3.6,3.6H58c2,0,3.6-1.6,3.6-3.6V64
					C61.6,62,60,60.4,58,60.4z M51.4,76.3l-6-5l1.9-2.3l3.5,2.9L56,64l2.5,1.7L51.4,76.3z"/>
			</g>
			<g>
				<circle class="st7" cx="76" cy="70" r="4.6"/>
			</g>
		</g>
		<g>
			<path class="st8" d="M106.5,7v82l-32,32h-25h-28V7H106.5 M107.5,6h-87v116h29h25.4l32.6-32.6V6L107.5,6z"/>
		</g>
	</g>
</g>
</svg>
