<?xml version="1.0" encoding="utf-8"?>
<!-- Generator: Adobe Illustrator 16.0.0, SVG Export Plug-In . SVG Version: 6.00 Build 0)  -->
<!DOCTYPE svg PUBLIC "-//W3C//DTD SVG 1.1//EN" "http://www.w3.org/Graphics/SVG/1.1/DTD/svg11.dtd">
<svg version="1.1" id="图层_1" xmlns="http://www.w3.org/2000/svg" xmlns:xlink="http://www.w3.org/1999/xlink" x="0px" y="0px"
	 width="128px" height="128px" viewBox="0 0 128 128" enable-background="new 0 0 128 128" xml:space="preserve">
<polygon opacity="0.08" enable-background="new    " points="18.31,128 18.31,4 113.689,4 113.689,92.995 78.686,128 "/>
<polygon display="none" opacity="0.08" enable-background="new    " points="22.31,126 22.31,6 113.689,6 113.689,92.167 
	79.857,126 "/>
<polygon opacity="0.1" enable-background="new    " points="20.31,126 20.31,6 111.689,6 111.689,92.167 77.857,126 "/>
<polygon opacity="0.2" enable-background="new    " points="18.31,124 18.31,4 109.689,4 109.689,90.167 75.857,124 "/>
<polygon fill="#212121" points="20.298,122 20.298,6 107.702,6 107.702,89.339 75.033,122 "/>
<g>
	<g>
		<g>
			<g>
				<linearGradient id="SVGID_1_" gradientUnits="userSpaceOnUse" x1="63.9966" y1="121" x2="63.9966" y2="7.0005">
					<stop  offset="0" style="stop-color:#616161"/>
					<stop  offset="1" style="stop-color:#90A4AE"/>
				</linearGradient>
				<polygon fill="url(#SVGID_1_)" points="21.291,121 21.291,7 106.701,7 106.701,88.938 74.639,121 				"/>
			</g>
			<polygon fill="#9E9E9E" fill-opacity="0.39" points="106.701,88.938 106.701,87.557 72.88,87.557 72.88,121 74.639,121 			"/>
			<path fill="#FFFFFF" fill-opacity="0.3922" d="M74.595,88.938l32.114,0.045L74.639,121L74.595,88.938z"/>
		</g>
	</g>
	<g opacity="0.8">
		<path fill="#FFFFFF" d="M68.79,81.189c-3.569,0-6.82-0.535-9.752-1.618c-2.932-1.099-5.451-2.687-7.552-4.765
			c-2.101-2.094-3.726-4.661-4.872-7.723c-1.15-3.065-1.726-6.568-1.726-10.513s0.649-7.448,1.944-10.509s3.043-5.637,5.24-7.723
			c2.2-2.085,4.769-3.674,7.7-4.761s6.06-1.633,9.373-1.633c2.108,0,4.008,0.137,5.686,0.408c1.692,0.271,3.146,0.59,4.394,0.954
			c1.247,0.364,2.271,0.724,3.043,1.087c0.787,0.364,1.321,0.635,1.618,0.816l-2.049,5.44c-0.445-0.271-1.083-0.564-1.915-0.883
			c-0.831-0.315-1.766-0.635-2.82-0.95c-1.054-0.319-2.196-0.579-3.443-0.783s-2.509-0.308-3.771-0.308
			c-2.683,0-5.105,0.434-7.258,1.295c-2.152,0.861-3.982,2.108-5.496,3.741c-1.518,1.633-2.68,3.615-3.484,5.953
			c-0.806,2.334-1.21,4.954-1.21,7.856c0,2.813,0.356,5.374,1.064,7.685c0.705,2.316,1.771,4.301,3.188,5.949
			c1.417,1.662,3.188,2.938,5.313,3.844c2.127,0.906,4.605,1.366,7.437,1.366c3.28,0,5.982-0.312,8.135-0.95
			s3.771-1.202,4.839-1.707l1.841,5.447c-0.342,0.223-0.95,0.505-1.841,0.847c-0.876,0.341-1.975,0.668-3.295,0.994
			c-1.321,0.312-2.865,0.579-4.617,0.816C72.739,81.085,70.839,81.189,68.79,81.189z"/>
	</g>
</g>
</svg>
