<?xml version="1.0" encoding="utf-8"?>
<!-- Generator: Adobe Illustrator 16.0.0, SVG Export Plug-In . SVG Version: 6.00 Build 0)  -->
<!DOCTYPE svg PUBLIC "-//W3C//DTD SVG 1.1//EN" "http://www.w3.org/Graphics/SVG/1.1/DTD/svg11.dtd">
<svg version="1.1" id="图层_1" xmlns="http://www.w3.org/2000/svg" xmlns:xlink="http://www.w3.org/1999/xlink" x="0px" y="0px"
	 width="128px" height="128px" viewBox="0 0 128 128" enable-background="new 0 0 128 128" xml:space="preserve">
<polygon opacity="0.08" points="18.298,128 18.298,4 113.702,4 113.702,92.995 78.696,128 "/>
<polygon opacity="0.1" points="20.298,126 20.298,6 111.702,6 111.702,92.167 77.868,126 "/>
<polygon opacity="0.2" points="18.298,124 18.298,4 109.702,4 109.702,90.167 75.868,124 "/>
<polygon fill="#AE2124" points="20.298,122 20.298,6 107.702,6 107.702,89.339 75.04,122 "/>
<g>
	<g>
		<g>
			
				<linearGradient id="SVGID_1_" gradientUnits="userSpaceOnUse" x1="147.1992" y1="-575.8003" x2="147.1992" y2="-461.8008" gradientTransform="matrix(1 0 0 -1 -83.1997 -454.8008)">
				<stop  offset="0" style="stop-color:#C7312F"/>
				<stop  offset="0.1635" style="stop-color:#D9412C"/>
				<stop  offset="0.3476" style="stop-color:#E74E29"/>
				<stop  offset="0.5725" style="stop-color:#EA552A"/>
				<stop  offset="0.9516" style="stop-color:#EA582B"/>
			</linearGradient>
			<polygon fill="url(#SVGID_1_)" points="21.294,121 21.294,7 106.705,7 106.705,88.938 74.643,121 			"/>
		</g>
		<polygon fill="#AE2124" fill-opacity="0.3922" points="106.705,88.938 106.705,87.557 72.884,87.557 72.884,121 74.643,121 		"/>
		<path fill="#FFFFFF" fill-opacity="0.3922" d="M74.591,88.938l32.114,0.052L74.643,121L74.591,88.938z"/>
	</g>
	<g opacity="0.8" enable-background="new    ">
		<g>
			<path fill="#FFFFFF" d="M74.739,39.541c0.142,0.052,0.334,0.052,0.476,0.093C75.066,39.593,74.881,39.541,74.739,39.541z"/>
			<path fill="#FFFFFF" d="M73.545,39.355c0.192,0,0.334,0.048,0.526,0.048C73.879,39.404,73.737,39.404,73.545,39.355z"/>
			<path fill="#FFFFFF" d="M75.875,39.727c0.141,0.048,0.289,0.048,0.438,0.101C76.164,39.775,76.016,39.727,75.875,39.727z"/>
			<path fill="#FFFFFF" d="M77.011,39.916c0.141,0.052,0.289,0.052,0.378,0.1C77.256,39.968,77.159,39.916,77.011,39.916z"/>
			<path fill="#FFFFFF" d="M72.313,39.207c0.193,0,0.379,0.048,0.571,0.048C72.691,39.255,72.506,39.207,72.313,39.207z"/>
			<path fill="#FFFFFF" d="M79.155,40.395c0.089,0.048,0.186,0.048,0.334,0.101C79.341,40.443,79.244,40.395,79.155,40.395z"/>
			<path fill="#FFFFFF" d="M78.109,40.157c0.096,0.048,0.237,0.048,0.334,0.097C78.347,40.206,78.205,40.157,78.109,40.157z"/>
			<path fill="#FFFFFF" d="M38.543,45.568L38.543,45.568L38.543,45.568z"/>
			<path fill="#FFFFFF" d="M65.759,38.777c0.282,0,0.616,0,0.905,0C66.375,38.777,66.041,38.777,65.759,38.777z"/>
			<path fill="#FFFFFF" d="M80.157,40.636c0.097,0.048,0.193,0.048,0.274,0.097C80.351,40.684,80.246,40.684,80.157,40.636z"/>
			<path fill="#FFFFFF" d="M71.08,39.066c0.186,0,0.379,0.048,0.572,0.048C71.504,39.114,71.318,39.114,71.08,39.066z"/>
			<path fill="#FFFFFF" d="M61.351,38.777c0.274,0,0.563,0,0.897,0C61.959,38.777,61.625,38.777,61.351,38.777z"/>
			<path fill="#FFFFFF" d="M68.513,38.873c0.237,0,0.475,0.052,0.712,0.052C68.987,38.925,68.75,38.873,68.513,38.873z"/>
			<path fill="#FFFFFF" d="M69.841,38.966c0.237,0,0.423,0.048,0.668,0.048C70.264,39.014,70.034,38.966,69.841,38.966z"/>
			<path fill="#FFFFFF" d="M86.043,42.862c0,0,0.052,0,0.052,0.052C86.088,42.862,86.043,42.862,86.043,42.862z"/>
			<path fill="#FFFFFF" d="M88.321,44.384L88.321,44.384L88.321,44.384z"/>
			<path fill="#FFFFFF" d="M86.711,43.196C86.711,43.196,86.711,43.245,86.711,43.196C86.711,43.245,86.711,43.196,86.711,43.196z"
				/>
			<path fill="#FFFFFF" d="M87.275,43.579C87.327,43.579,87.327,43.579,87.275,43.579C87.327,43.579,87.327,43.579,87.275,43.579z"
				/>
			<path fill="#FFFFFF" d="M81.152,40.914c0.096,0,0.141,0.052,0.237,0.052C81.293,40.966,81.196,40.914,81.152,40.914z"/>
			<path fill="#FFFFFF" d="M88.744,44.766L88.744,44.766L88.744,44.766z"/>
			<path fill="#FFFFFF" d="M64,38.736c-0.423,0-0.898,0-1.328,0C63.102,38.736,63.577,38.736,64,38.736z"/>
			<path fill="#FFFFFF" d="M87.847,43.957L87.847,43.957L87.847,43.957z"/>
			<path fill="#FFFFFF" d="M83.809,41.823c0.045,0,0.097,0.048,0.134,0.048C83.905,41.872,83.854,41.823,83.809,41.823z"/>
			<path fill="#FFFFFF" d="M64,38.736c0.431,0,0.905,0,1.328,0C64.905,38.736,64.431,38.736,64,38.736z"/>
			<path fill="#FFFFFF" d="M82.05,41.204c0.052,0,0.142,0.048,0.186,0.048C82.191,41.248,82.146,41.204,82.05,41.204z"/>
			<path fill="#FFFFFF" d="M82.955,41.486c0.045,0,0.09,0.052,0.142,0.052C83.045,41.538,83,41.538,82.955,41.486z"/>
			<path fill="#FFFFFF" d="M84.618,42.15c0.044,0,0.097,0.048,0.097,0.048C84.662,42.198,84.618,42.15,84.618,42.15z"/>
			<path fill="#FFFFFF" d="M85.33,42.484c0.045,0,0.045,0.052,0.097,0.052C85.42,42.536,85.375,42.484,85.33,42.484z"/>
			<path fill="#FFFFFF" d="M67.184,38.829c0.238,0,0.527,0,0.758,0.044C67.711,38.829,67.422,38.829,67.184,38.829z"/>
			<path fill="#FFFFFF" d="M41.912,42.862c0.053,0,0.053-0.044,0.104-0.044C41.957,42.862,41.912,42.862,41.912,42.862z"/>
			<path fill="#FFFFFF" d="M41.244,43.245c0,0,0.053,0,0.053-0.048C41.289,43.196,41.289,43.245,41.244,43.245z"/>
			<path fill="#FFFFFF" d="M40.681,43.623C40.681,43.579,40.725,43.579,40.681,43.623C40.725,43.579,40.681,43.579,40.681,43.623z"
				/>
			<path fill="#FFFFFF" d="M42.58,42.536c0.045,0,0.045-0.052,0.097-0.052C42.625,42.484,42.58,42.536,42.58,42.536z"/>
			<path fill="#FFFFFF" d="M44.05,41.872c0.045,0,0.097-0.048,0.142-0.048C44.146,41.823,44.095,41.872,44.05,41.872z"/>
			<path fill="#FFFFFF" d="M43.293,42.198c0.052,0,0.097-0.048,0.141-0.048C43.39,42.15,43.338,42.198,43.293,42.198z"/>
			<path fill="#FFFFFF" d="M60.059,38.829c0.23,0,0.52,0,0.758-0.052C60.578,38.829,60.289,38.829,60.059,38.829z"/>
			<path fill="#FFFFFF" d="M64,56.448c-14.443,0-26.133-3.941-26.133-8.836v7.982c0,4.891,11.683,8.836,26.133,8.836
				c14.443,0,26.125-3.945,26.125-8.836l0,0v-7.982C90.125,52.463,78.443,56.448,64,56.448z"/>
			<path fill="#FFFFFF" d="M37.875,47.334v0.29C37.875,47.523,37.875,47.427,37.875,47.334L37.875,47.334z"/>
			<path fill="#FFFFFF" d="M44.859,41.582c0.044,0,0.141-0.044,0.186-0.044C45,41.538,44.948,41.538,44.859,41.582z"/>
			<path fill="#FFFFFF" d="M39.686,44.384L39.686,44.384L39.686,44.384z"/>
			<path fill="#FFFFFF" d="M90.125,47.334c0,0.097,0,0.189,0,0.29V47.334L90.125,47.334z"/>
			<path fill="#FFFFFF" d="M38.869,45.193L38.869,45.193L38.869,45.193z"/>
			<path fill="#FFFFFF" d="M39.248,44.766L39.248,44.766L39.248,44.766z"/>
			<path fill="#FFFFFF" d="M40.153,44.005C40.153,43.957,40.153,43.957,40.153,44.005C40.153,43.957,40.153,43.957,40.153,44.005z"
				/>
			<path fill="#FFFFFF" d="M55.116,39.255c0.192,0,0.378-0.048,0.563-0.048C55.494,39.207,55.309,39.255,55.116,39.255z"/>
			<path fill="#FFFFFF" d="M53.936,39.445c0.186-0.048,0.327-0.048,0.52-0.048C54.263,39.404,54.121,39.404,53.936,39.445z"/>
			<path fill="#FFFFFF" d="M56.304,39.114c0.192,0,0.378-0.048,0.616-0.048C56.682,39.114,56.496,39.114,56.304,39.114z"/>
			<path fill="#FFFFFF" d="M45.713,41.248c0.052,0,0.141-0.048,0.186-0.048C45.854,41.204,45.809,41.248,45.713,41.248z"/>
			<path fill="#FFFFFF" d="M58.775,38.925c0.237,0,0.475-0.052,0.712-0.052C59.25,38.873,59.013,38.925,58.775,38.925z"/>
			<path fill="#FFFFFF" d="M52.793,39.593c0.141-0.052,0.334-0.052,0.475-0.097C53.119,39.541,52.934,39.593,52.793,39.593z"/>
			<path fill="#FFFFFF" d="M57.543,39.014c0.237,0,0.423-0.048,0.66-0.048C57.966,38.966,57.729,39.014,57.543,39.014z"/>
			<path fill="#FFFFFF" d="M47.568,40.732c0.089-0.048,0.186-0.048,0.281-0.097C47.754,40.684,47.657,40.684,47.568,40.732z"/>
			<path fill="#FFFFFF" d="M46.618,40.966c0.097-0.052,0.141-0.052,0.237-0.097C46.804,40.914,46.707,40.966,46.618,40.966z"/>
			<path fill="#FFFFFF" d="M48.511,40.443c0.097-0.048,0.237-0.048,0.334-0.096C48.748,40.395,48.659,40.443,48.511,40.443z"/>
			<path fill="#FFFFFF" d="M49.557,40.206c0.142-0.048,0.238-0.048,0.379-0.097C49.795,40.157,49.653,40.206,49.557,40.206z"/>
			<path fill="#FFFFFF" d="M50.604,40.016c0.141-0.048,0.282-0.048,0.423-0.1C50.841,39.916,50.744,39.968,50.604,40.016z"/>
			<path fill="#FFFFFF" d="M51.694,39.775c0.142-0.048,0.282-0.048,0.431-0.096C51.977,39.727,51.836,39.775,51.694,39.775z"/>
		</g>
		<g>
			<path fill="#FFFFFF" d="M74.739,48.804c0.142,0.052,0.334,0.052,0.476,0.1C75.066,48.855,74.881,48.855,74.739,48.804z"/>
			<path fill="#FFFFFF" d="M73.545,48.663c0.192,0,0.334,0.048,0.526,0.048C73.879,48.663,73.737,48.663,73.545,48.663z"/>
			<path fill="#FFFFFF" d="M75.875,48.997c0.141,0.044,0.289,0.044,0.438,0.097C76.164,49.041,76.016,49.041,75.875,48.997z"/>
			<path fill="#FFFFFF" d="M77.011,49.179c0.141,0.048,0.289,0.048,0.378,0.096C77.256,49.227,77.159,49.227,77.011,49.179z"/>
			<path fill="#FFFFFF" d="M72.313,48.466c0.193,0,0.379,0.048,0.571,0.048C72.691,48.514,72.506,48.514,72.313,48.466z"/>
			<path fill="#FFFFFF" d="M79.155,49.657c0.089,0.048,0.186,0.048,0.334,0.097C79.341,49.706,79.244,49.706,79.155,49.657z"/>
			<path fill="#FFFFFF" d="M78.109,49.416c0.096,0.052,0.237,0.052,0.334,0.1C78.347,49.468,78.205,49.468,78.109,49.416z"/>
			<path fill="#FFFFFF" d="M38.543,54.886L38.543,54.886L38.543,54.886z"/>
			<path fill="#FFFFFF" d="M65.759,48.039c0.282,0,0.616,0,0.905,0C66.375,48.039,66.041,48.039,65.759,48.039z"/>
			<path fill="#FFFFFF" d="M80.157,49.943c0.097,0.052,0.193,0.052,0.274,0.1C80.351,49.995,80.246,49.943,80.157,49.943z"/>
			<path fill="#FFFFFF" d="M71.08,48.373c0.186,0,0.379,0.052,0.572,0.052C71.504,48.373,71.318,48.373,71.08,48.373z"/>
			<path fill="#FFFFFF" d="M61.351,48.087c0.274,0,0.563,0,0.897,0C61.959,48.039,61.625,48.039,61.351,48.087z"/>
			<path fill="#FFFFFF" d="M68.513,48.136c0.237,0,0.475,0.052,0.712,0.052C68.987,48.188,68.75,48.188,68.513,48.136z"/>
			<path fill="#FFFFFF" d="M69.841,48.236c0.237,0,0.423,0.044,0.668,0.044C70.264,48.277,70.034,48.277,69.841,48.236z"/>
			<path fill="#FFFFFF" d="M86.043,52.125c0,0,0.052,0,0.052,0.052C86.088,52.125,86.043,52.125,86.043,52.125z"/>
			<path fill="#FFFFFF" d="M88.321,53.654L88.321,53.654L88.321,53.654z"/>
			<path fill="#FFFFFF" d="M86.711,52.511L86.711,52.511L86.711,52.511z"/>
			<path fill="#FFFFFF" d="M87.275,52.886C87.327,52.886,87.327,52.886,87.275,52.886C87.327,52.886,87.327,52.886,87.275,52.886z"
				/>
			<path fill="#FFFFFF" d="M81.152,50.184c0.096,0,0.141,0.048,0.237,0.048C81.293,50.232,81.196,50.232,81.152,50.184z"/>
			<path fill="#FFFFFF" d="M88.744,54.025L88.744,54.025L88.744,54.025z"/>
			<path fill="#FFFFFF" d="M64,48.039c-0.423,0-0.898,0-1.328,0C63.102,48.039,63.577,48.039,64,48.039z"/>
			<path fill="#FFFFFF" d="M87.847,53.264L87.847,53.264L87.847,53.264z"/>
			<path fill="#FFFFFF" d="M83.809,51.082c0.045,0,0.097,0.052,0.134,0.052C83.905,51.134,83.854,51.134,83.809,51.082z"/>
			<path fill="#FFFFFF" d="M64,48.039c0.431,0,0.905,0,1.328,0C64.905,48.039,64.431,48.039,64,48.039z"/>
			<path fill="#FFFFFF" d="M82.05,50.466c0.052,0,0.142,0.048,0.186,0.048C82.191,50.507,82.146,50.507,82.05,50.466z"/>
			<path fill="#FFFFFF" d="M82.955,50.796c0.045,0,0.09,0.048,0.142,0.048C83.045,50.845,83,50.796,82.955,50.796z"/>
			<path fill="#FFFFFF" d="M84.618,51.416c0.044,0,0.097,0.048,0.097,0.048C84.662,51.464,84.618,51.464,84.618,51.416z"/>
			<path fill="#FFFFFF" d="M85.33,51.798c0.045,0,0.045,0.044,0.097,0.044C85.42,51.798,85.375,51.798,85.33,51.798z"/>
			<path fill="#FFFFFF" d="M67.184,48.087c0.238,0,0.527,0,0.758,0.048C67.711,48.087,67.422,48.087,67.184,48.087z"/>
			<path fill="#FFFFFF" d="M41.912,52.177c0.053,0,0.053-0.052,0.104-0.052C41.957,52.125,41.912,52.125,41.912,52.177z"/>
			<path fill="#FFFFFF" d="M41.244,52.511c0,0,0.053,0,0.053-0.048C41.289,52.511,41.289,52.511,41.244,52.511z"/>
			<path fill="#FFFFFF" d="M40.681,52.886C40.681,52.886,40.725,52.886,40.681,52.886C40.725,52.886,40.681,52.886,40.681,52.886z"
				/>
			<path fill="#FFFFFF" d="M42.58,51.798c0.045,0,0.045-0.052,0.097-0.052C42.625,51.798,42.58,51.798,42.58,51.798z"/>
			<path fill="#FFFFFF" d="M44.05,51.175c0.045,0,0.097-0.044,0.142-0.044C44.146,51.134,44.095,51.134,44.05,51.175z"/>
			<path fill="#FFFFFF" d="M43.293,51.464c0.052,0,0.097-0.048,0.141-0.048C43.39,51.464,43.338,51.464,43.293,51.464z"/>
			<path fill="#FFFFFF" d="M60.059,48.136c0.23,0,0.52,0,0.758-0.048C60.578,48.087,60.289,48.087,60.059,48.136z"/>
			<path fill="#FFFFFF" d="M64,65.715c-14.443,0-26.133-3.945-26.133-8.84v7.986c0,4.883,11.683,8.832,26.133,8.832
				c14.443,0,26.125-3.949,26.125-8.832l0,0v-7.986C90.125,61.773,78.443,65.715,64,65.715z"/>
			<path fill="#FFFFFF" d="M37.875,56.593v0.29C37.875,56.786,37.875,56.686,37.875,56.593L37.875,56.593z"/>
			<path fill="#FFFFFF" d="M44.859,50.845c0.044,0,0.141-0.048,0.186-0.048C45,50.796,44.948,50.845,44.859,50.845z"/>
			<path fill="#FFFFFF" d="M39.686,53.654L39.686,53.654L39.686,53.654z"/>
			<path fill="#FFFFFF" d="M90.125,56.593c0,0.101,0,0.193,0,0.29V56.593L90.125,56.593z"/>
			<path fill="#FFFFFF" d="M38.869,54.456L38.869,54.456L38.869,54.456z"/>
			<path fill="#FFFFFF" d="M39.248,54.077C39.248,54.025,39.248,54.025,39.248,54.077C39.248,54.025,39.248,54.025,39.248,54.077z"
				/>
			<path fill="#FFFFFF" d="M40.153,53.264L40.153,53.264L40.153,53.264z"/>
			<path fill="#FFFFFF" d="M55.116,48.566c0.192,0,0.378-0.052,0.563-0.052C55.494,48.514,55.309,48.514,55.116,48.566z"/>
			<path fill="#FFFFFF" d="M53.936,48.707c0.186-0.048,0.327-0.048,0.52-0.048C54.263,48.663,54.121,48.663,53.936,48.707z"/>
			<path fill="#FFFFFF" d="M56.304,48.425c0.192,0,0.378-0.052,0.616-0.052C56.682,48.373,56.496,48.373,56.304,48.425z"/>
			<path fill="#FFFFFF" d="M45.713,50.555c0.052,0,0.141-0.048,0.186-0.048C45.854,50.507,45.809,50.507,45.713,50.555z"/>
			<path fill="#FFFFFF" d="M58.775,48.188c0.237,0,0.475-0.052,0.712-0.052C59.25,48.188,59.013,48.188,58.775,48.188z"/>
			<path fill="#FFFFFF" d="M52.793,48.904c0.141-0.048,0.334-0.048,0.475-0.1C53.119,48.855,52.934,48.855,52.793,48.904z"/>
			<path fill="#FFFFFF" d="M57.543,48.277c0.186,0,0.423-0.048,0.66-0.048C57.966,48.277,57.729,48.277,57.543,48.277z"/>
			<path fill="#FFFFFF" d="M47.568,49.995c0.089-0.052,0.186-0.052,0.281-0.101C47.754,49.943,47.657,49.995,47.568,49.995z"/>
			<path fill="#FFFFFF" d="M46.618,50.277c0.097-0.048,0.141-0.048,0.237-0.1C46.804,50.232,46.707,50.232,46.618,50.277z"/>
			<path fill="#FFFFFF" d="M48.511,49.754c0.097-0.048,0.237-0.048,0.334-0.097C48.748,49.706,48.659,49.706,48.511,49.754z"/>
			<path fill="#FFFFFF" d="M49.557,49.516c0.142-0.048,0.238-0.048,0.379-0.1C49.795,49.468,49.653,49.468,49.557,49.516z"/>
			<path fill="#FFFFFF" d="M50.604,49.275c0.141-0.048,0.282-0.048,0.423-0.096C50.841,49.227,50.744,49.227,50.604,49.275z"/>
			<path fill="#FFFFFF" d="M51.694,49.093c0.142-0.052,0.282-0.052,0.431-0.097C51.977,49.041,51.836,49.041,51.694,49.093z"/>
		</g>
		<g>
			<path fill="#FFFFFF" d="M74.739,58.066c0.142,0.048,0.334,0.048,0.476,0.096C75.066,58.114,74.881,58.114,74.739,58.066z"/>
			<path fill="#FFFFFF" d="M73.545,57.925c0.192,0,0.334,0.048,0.526,0.048C73.879,57.966,73.737,57.925,73.545,57.925z"/>
			<path fill="#FFFFFF" d="M75.875,58.255c0.141,0.048,0.289,0.048,0.438,0.1C76.164,58.304,76.016,58.304,75.875,58.255z"/>
			<path fill="#FFFFFF" d="M77.011,58.497c0.141,0.044,0.289,0.044,0.378,0.097C77.256,58.541,77.159,58.497,77.011,58.497z"/>
			<path fill="#FFFFFF" d="M72.313,57.777c0.193,0,0.379,0.052,0.571,0.052C72.691,57.829,72.506,57.777,72.313,57.777z"/>
			<path fill="#FFFFFF" d="M79.155,58.968c0.089,0.048,0.186,0.048,0.334,0.097C79.341,59.016,79.244,58.968,79.155,58.968z"/>
			<path fill="#FFFFFF" d="M78.109,58.679c0.096,0.048,0.237,0.048,0.334,0.096C78.347,58.775,78.205,58.727,78.109,58.679z"/>
			<path fill="#FFFFFF" d="M38.543,64.148L38.543,64.148L38.543,64.148z"/>
			<path fill="#FFFFFF" d="M65.759,57.306c0.282,0,0.616,0,0.905,0C66.375,57.354,66.041,57.354,65.759,57.306z"/>
			<path fill="#FFFFFF" d="M80.157,59.206c0.097,0.048,0.193,0.048,0.274,0.096C80.351,59.254,80.246,59.254,80.157,59.206z"/>
			<path fill="#FFFFFF" d="M71.08,57.636c0.186,0,0.379,0.052,0.572,0.052C71.504,57.688,71.318,57.636,71.08,57.636z"/>
			<path fill="#FFFFFF" d="M61.351,57.354c0.274,0,0.563,0,0.897,0C61.959,57.354,61.625,57.354,61.351,57.354z"/>
			<path fill="#FFFFFF" d="M68.513,57.446c0.237,0,0.475,0.048,0.712,0.048C68.987,57.446,68.75,57.446,68.513,57.446z"/>
			<path fill="#FFFFFF" d="M69.841,57.539c0.237,0,0.423,0.048,0.668,0.048C70.264,57.539,70.034,57.539,69.841,57.539z"/>
			<path fill="#FFFFFF" d="M86.043,61.388c0,0,0.052,0,0.052,0.048C86.088,61.436,86.043,61.436,86.043,61.388z"/>
			<path fill="#FFFFFF" d="M88.321,62.913L88.321,62.913L88.321,62.913z"/>
			<path fill="#FFFFFF" d="M86.711,61.773L86.711,61.773L86.711,61.773z"/>
			<path fill="#FFFFFF" d="M87.275,62.152C87.327,62.152,87.327,62.152,87.275,62.152C87.327,62.152,87.327,62.152,87.275,62.152z"
				/>
			<path fill="#FFFFFF" d="M81.152,59.495c0.096,0,0.141,0.048,0.237,0.048C81.293,59.543,81.196,59.495,81.152,59.495z"/>
			<path fill="#FFFFFF" d="M88.744,63.343L88.744,63.343L88.744,63.343z"/>
			<path fill="#FFFFFF" d="M64,57.306c-0.423,0-0.898,0-1.328,0C63.102,57.306,63.577,57.306,64,57.306z"/>
			<path fill="#FFFFFF" d="M87.847,62.527L87.847,62.527L87.847,62.527z"/>
			<path fill="#FFFFFF" d="M83.809,60.396c0.045,0,0.097,0.048,0.134,0.048C83.905,60.445,83.854,60.396,83.809,60.396z"/>
			<path fill="#FFFFFF" d="M64,57.306c0.431,0,0.905,0,1.328,0C64.905,57.306,64.431,57.306,64,57.306z"/>
			<path fill="#FFFFFF" d="M82.05,59.777c0.052,0,0.142,0.041,0.186,0.041C82.191,59.818,82.146,59.777,82.05,59.777z"/>
			<path fill="#FFFFFF" d="M82.955,60.055c0.045,0,0.09,0.052,0.142,0.052C83.045,60.107,83,60.107,82.955,60.055z"/>
			<path fill="#FFFFFF" d="M84.618,60.723c0.044,0,0.097,0.052,0.097,0.052C84.662,60.723,84.618,60.723,84.618,60.723z"/>
			<path fill="#FFFFFF" d="M85.33,61.057c0.045,0,0.045,0.048,0.097,0.048C85.42,61.105,85.375,61.057,85.33,61.057z"/>
			<path fill="#FFFFFF" d="M67.184,57.354c0.238,0,0.527,0,0.758,0.048C67.711,57.402,67.422,57.402,67.184,57.354z"/>
			<path fill="#FFFFFF" d="M41.912,61.436c0.053,0,0.053-0.048,0.104-0.048C41.957,61.436,41.912,61.436,41.912,61.436z"/>
			<path fill="#FFFFFF" d="M41.244,61.818c0,0,0.053,0,0.053-0.048C41.289,61.773,41.289,61.773,41.244,61.818z"/>
			<path fill="#FFFFFF" d="M40.681,62.152C40.681,62.152,40.725,62.152,40.681,62.152C40.725,62.152,40.681,62.152,40.681,62.152z"
				/>
			<path fill="#FFFFFF" d="M42.58,61.105c0.045,0,0.045-0.048,0.097-0.048C42.625,61.057,42.58,61.105,42.58,61.105z"/>
			<path fill="#FFFFFF" d="M44.05,60.445c0.045,0,0.097-0.048,0.142-0.048C44.146,60.396,44.095,60.445,44.05,60.445z"/>
			<path fill="#FFFFFF" d="M43.293,60.775c0.052,0,0.097-0.052,0.141-0.052C43.39,60.723,43.338,60.723,43.293,60.775z"/>
			<path fill="#FFFFFF" d="M60.059,57.402c0.23,0,0.52,0,0.758-0.048C60.578,57.402,60.289,57.402,60.059,57.402z"/>
			<path fill="#FFFFFF" d="M64,75.029c-14.443,0-26.133-3.949-26.133-8.848v7.986C37.867,79.052,49.55,83,64,83
				c14.443,0,26.125-3.948,26.125-8.832l0,0v-7.986C90.125,71.036,78.443,75.029,64,75.029z"/>
			<path fill="#FFFFFF" d="M37.875,65.9v0.281C37.875,66.093,37.875,65.996,37.875,65.9L37.875,65.9z"/>
			<path fill="#FFFFFF" d="M44.859,60.107c0.044,0,0.141-0.052,0.186-0.052C45,60.107,44.948,60.107,44.859,60.107z"/>
			<path fill="#FFFFFF" d="M39.686,62.957C39.686,62.913,39.686,62.913,39.686,62.957C39.686,62.913,39.686,62.913,39.686,62.957z"
				/>
			<path fill="#FFFFFF" d="M90.125,65.9c0,0.096,0,0.192,0,0.281V65.9L90.125,65.9z"/>
			<path fill="#FFFFFF" d="M38.869,63.766C38.869,63.718,38.869,63.718,38.869,63.766C38.869,63.718,38.869,63.718,38.869,63.766z"
				/>
			<path fill="#FFFFFF" d="M39.248,63.343L39.248,63.343L39.248,63.343z"/>
			<path fill="#FFFFFF" d="M40.153,62.527L40.153,62.527L40.153,62.527z"/>
			<path fill="#FFFFFF" d="M55.116,57.829c0.192,0,0.378-0.052,0.563-0.052C55.494,57.777,55.309,57.829,55.116,57.829z"/>
			<path fill="#FFFFFF" d="M53.936,57.966c0.186-0.044,0.327-0.044,0.52-0.044C54.263,57.925,54.121,57.966,53.936,57.966z"/>
			<path fill="#FFFFFF" d="M56.304,57.688c0.192,0,0.378-0.052,0.616-0.052C56.682,57.636,56.496,57.688,56.304,57.688z"/>
			<path fill="#FFFFFF" d="M45.713,59.818c0.052,0,0.141-0.041,0.186-0.041C45.854,59.777,45.809,59.818,45.713,59.818z"/>
			<path fill="#FFFFFF" d="M58.775,57.495c0.237,0,0.475-0.048,0.712-0.048C59.25,57.446,59.013,57.446,58.775,57.495z"/>
			<path fill="#FFFFFF" d="M52.793,58.163c0.141-0.048,0.326-0.048,0.468-0.096C53.119,58.114,52.934,58.114,52.793,58.163z"/>
			<path fill="#FFFFFF" d="M57.543,57.587c0.186,0,0.423-0.048,0.66-0.048C57.966,57.539,57.729,57.539,57.543,57.587z"/>
			<path fill="#FFFFFF" d="M47.568,59.302c0.089-0.048,0.186-0.048,0.281-0.096C47.754,59.206,47.657,59.254,47.568,59.302z"/>
			<path fill="#FFFFFF" d="M46.618,59.543c0.097-0.048,0.141-0.048,0.237-0.1C46.804,59.495,46.707,59.543,46.618,59.543z"/>
			<path fill="#FFFFFF" d="M48.511,59.016c0.097-0.048,0.237-0.048,0.334-0.1C48.748,58.968,48.659,59.016,48.511,59.016z"/>
			<path fill="#FFFFFF" d="M49.557,58.775c0.142-0.048,0.238-0.048,0.379-0.096C49.795,58.727,49.653,58.775,49.557,58.775z"/>
			<path fill="#FFFFFF" d="M50.604,58.541c0.141-0.044,0.282-0.044,0.423-0.096C50.841,58.497,50.744,58.541,50.604,58.541z"/>
			<path fill="#FFFFFF" d="M51.694,58.355c0.142-0.052,0.282-0.052,0.431-0.1C51.977,58.304,51.836,58.304,51.694,58.355z"/>
		</g>
		<path fill="#FFFFFF" d="M64,37.355c14.428,0,26.125,3.956,26.125,8.839c0,4.88-11.697,8.836-26.125,8.836
			c-14.436,0-26.133-3.956-26.133-8.836C37.867,41.312,49.564,37.355,64,37.355z"/>
	</g>
	<g>
		<rect x="21.272" y="7" opacity="0.8" fill="#FFFFFF" enable-background="new    " width="85.455" height="21.85"/>
		<g enable-background="new    ">
			<path fill="#E64A19" d="M48.199,20.972c0.489,0,0.897-0.037,1.217-0.115c0.319-0.078,0.579-0.186,0.771-0.319
				c0.193-0.134,0.327-0.293,0.401-0.479s0.111-0.39,0.111-0.616c0-0.482-0.237-0.879-0.713-1.199
				c-0.475-0.319-1.299-0.664-2.456-1.032c-0.513-0.17-1.018-0.364-1.521-0.583c-0.513-0.219-0.965-0.497-1.366-0.828
				c-0.4-0.334-0.728-0.738-0.979-1.209c-0.26-0.475-0.386-1.054-0.386-1.733c0-0.679,0.134-1.291,0.408-1.837
				c0.267-0.545,0.646-1.009,1.136-1.392c0.489-0.382,1.091-0.675,1.788-0.879c0.698-0.204,1.492-0.308,2.368-0.308
				c1.046,0,1.944,0.108,2.709,0.319c0.757,0.211,1.38,0.445,1.877,0.701l-1.009,2.609c-0.431-0.211-0.913-0.397-1.44-0.56
				c-0.526-0.164-1.165-0.245-1.914-0.245c-0.832,0-1.433,0.111-1.797,0.33c-0.363,0.219-0.549,0.553-0.549,1.006
				c0,0.271,0.066,0.497,0.2,0.683c0.134,0.182,0.327,0.349,0.571,0.498c0.245,0.148,0.527,0.282,0.854,0.404
				c0.319,0.119,0.668,0.245,1.062,0.371c0.802,0.282,1.499,0.564,2.101,0.839c0.594,0.274,1.091,0.597,1.484,0.965
				c0.394,0.371,0.69,0.801,0.883,1.295c0.193,0.498,0.29,1.099,0.29,1.807c0,1.373-0.505,2.438-1.521,3.195
				c-1.01,0.757-2.538,1.136-4.579,1.136c-0.684,0-1.307-0.037-1.855-0.115c-0.55-0.078-1.039-0.174-1.463-0.29
				c-0.43-0.111-0.794-0.234-1.098-0.36c-0.305-0.126-0.564-0.249-0.772-0.36l0.987-2.635c0.46,0.241,1.031,0.457,1.707,0.649
				C46.381,20.875,47.212,20.972,48.199,20.972z"/>
			<path fill="#E64A19" d="M71.733,16.129c0,1.035-0.134,1.967-0.4,2.794c-0.274,0.828-0.646,1.555-1.128,2.174
				c-0.49,0.624-1.069,1.143-1.737,1.551c-0.668,0.412-1.41,0.709-2.212,0.891c0.074,0.286,0.238,0.516,0.49,0.69
				c0.252,0.178,0.579,0.323,0.965,0.438c0.386,0.111,0.839,0.196,1.351,0.252c0.513,0.06,1.069,0.108,1.663,0.148l-0.713,2.423
				c-1.165-0.044-2.16-0.152-2.983-0.33c-0.831-0.178-1.529-0.419-2.101-0.731c-0.579-0.312-1.031-0.694-1.365-1.147
				s-0.594-0.979-0.772-1.573c-0.92-0.111-1.781-0.356-2.567-0.731c-0.795-0.375-1.478-0.883-2.057-1.518
				c-0.586-0.638-1.039-1.403-1.365-2.293c-0.326-0.894-0.49-1.903-0.49-3.039c0-1.258,0.208-2.368,0.624-3.321
				c0.415-0.958,0.979-1.759,1.692-2.412c0.705-0.649,1.521-1.139,2.456-1.462c0.928-0.327,1.907-0.49,2.939-0.49
				c1.054,0,2.056,0.164,2.991,0.49c0.942,0.323,1.759,0.813,2.464,1.462c0.697,0.653,1.247,1.455,1.655,2.412
				C71.533,13.761,71.733,14.871,71.733,16.129z M59.91,16.129c0,0.724,0.09,1.373,0.275,1.956c0.186,0.579,0.46,1.08,0.809,1.496
				c0.349,0.419,0.779,0.742,1.284,0.969c0.505,0.226,1.083,0.337,1.744,0.337c0.638,0,1.217-0.111,1.729-0.337
				c0.52-0.227,0.949-0.549,1.299-0.969c0.349-0.416,0.615-0.917,0.801-1.496c0.186-0.583,0.282-1.232,0.282-1.956
				c0-0.72-0.097-1.377-0.282-1.963c-0.186-0.586-0.452-1.091-0.801-1.507c-0.35-0.419-0.779-0.738-1.299-0.969
				c-0.513-0.226-1.092-0.337-1.729-0.337c-0.661,0-1.239,0.115-1.744,0.349s-0.936,0.561-1.284,0.98
				c-0.349,0.416-0.623,0.92-0.809,1.506S59.91,15.424,59.91,16.129z"/>
			<path fill="#E64A19" d="M84.989,20.652v2.847H74.643V8.781h3.488v11.871H84.989z"/>
		</g>
	</g>
</g>
</svg>
