<?xml version="1.0" encoding="utf-8"?>
<!-- Generator: Adobe Illustrator 16.0.0, SVG Export Plug-In . SVG Version: 6.00 Build 0)  -->
<!DOCTYPE svg PUBLIC "-//W3C//DTD SVG 1.1//EN" "http://www.w3.org/Graphics/SVG/1.1/DTD/svg11.dtd">
<svg version="1.1" id="图层_1" xmlns="http://www.w3.org/2000/svg" xmlns:xlink="http://www.w3.org/1999/xlink" x="0px" y="0px"
	 width="128px" height="128px" viewBox="0 0 128 128" enable-background="new 0 0 128 128" xml:space="preserve">
<polygon opacity="0.08" enable-background="new    " points="18.31,128 18.31,4 113.689,4 113.689,92.995 78.686,128 "/>
<polygon display="none" opacity="0.08" enable-background="new    " points="22.31,126 22.31,6 113.689,6 113.689,92.167 
	79.857,126 "/>
<polygon opacity="0.1" enable-background="new    " points="20.31,126 20.31,6 111.689,6 111.689,92.167 77.857,126 "/>
<polygon opacity="0.2" enable-background="new    " points="18.31,124 18.31,4 109.689,4 109.689,90.167 75.857,124 "/>
<polygon fill="#0D47A1" points="20.298,122 20.298,6 107.702,6 107.702,89.344 75.029,122 "/>
<g>
	<g>
		<g>
			
				<linearGradient id="SVGID_1_" gradientUnits="userSpaceOnUse" x1="147.1992" y1="937.8008" x2="147.1992" y2="823.8008" gradientTransform="matrix(1 0 0 1 -83.2002 -816.8008)">
				<stop  offset="0" style="stop-color:#1976D2"/>
				<stop  offset="0.0226" style="stop-color:#1C79D3"/>
				<stop  offset="0.2859" style="stop-color:#3B93E2"/>
				<stop  offset="0.5416" style="stop-color:#52A6ED"/>
				<stop  offset="0.7843" style="stop-color:#5FB1F4"/>
				<stop  offset="1" style="stop-color:#64B5F6"/>
			</linearGradient>
			<polygon fill="url(#SVGID_1_)" points="21.292,121 21.292,7 106.708,7 106.708,88.938 74.646,121 			"/>
		</g>
		<polygon fill="#0D47A1" fill-opacity="0.39" points="106.708,88.938 106.708,87.559 72.885,87.559 72.885,121 74.646,121 		"/>
		<path fill="#FFFFFF" fill-opacity="0.45" d="M74.592,88.938l32.116,0.043L74.646,121L74.592,88.938z"/>
	</g>
	<path fill="#64B5F6" d="M93.688,55.449c0,16.387-13.296,29.693-29.688,29.693c-16.39,0-29.69-13.306-29.69-29.693
		C34.31,39.06,47.61,25.761,64,25.761C80.392,25.761,93.688,39.06,93.688,55.449z"/>
	<path fill="#FFFFFF" fill-opacity="0.8" d="M44.522,33.08c0,0,0.612,0.323,0.851,0.851c0.196,0.522,0.854,0.522,0.854,0.522h0.949
		l1.384-0.424L48.23,34.79c0,0-7.271,3.369-5.799,5.368c1.476,1.999,0.956,2.513,0.956,3.138c0,0.612,0.43,0.093,0.43,0.093
		l0.422-1.14l0.614-0.854l0.612-0.949l0.196-0.528l0.856-1.471l1.044-0.618l0.949,0.618c0,0,0.424,0.186,0.331,0.522
		c-0.093,0.332-0.186,0.944-0.186,0.944s0.186,0.435,0.522,0.435s0.854-0.337,0.854-0.337l0.427,0.761l0.337,1.378l0.854,0.851
		l0.435,0.952l-0.435,0.851l0.435,0.337l0.949,1.049l0.186,0.52l-1.569-0.093c0,0-0.191-0.427-0.522-0.427
		c-0.337,0-1.659-0.098-1.659-0.098l-0.766,0.188l-0.425,0.522c0,0-0.532,0.851-0.864,0.851c-0.325,0-1.134-0.183-1.134-0.183
		s-0.612-0.19-0.944,0.424c-0.336,0.623,0.518,0.949,0.518,0.949l-1.472,0.435l-0.435,0.193c0,0-1.044,0.424-1.044,0.755
		c0,0.332,0,0.337,0,0.337l-0.323,0.848v0.52l-0.767,0.625l-0.761,0.52l-0.337,0.62v1.047c0,0-0.098,0.522-0.098,0.854
		c0,0.332,0,1.146,0,1.146s-0.326,0.326-0.509-0.342c-0.191-0.615-0.191-0.615-0.191-0.615l-0.336-0.764
		c0,0,0.336-0.093-0.093-0.424c-0.43-0.337-0.856-0.43-0.856-0.43s-0.186-0.186-0.62-0.186c-0.416,0,0.532,0.093-0.416,0
		c-0.957-0.095-0.957-0.095-0.957-0.095L35.873,54.5v0.522c0,0-0.183,3.711,0.854,4.228h0.43l0.623-0.949l0.527,0.188v0.424
		l-0.098,0.766v0.422l0.521,0.527l0.337,0.957c0.427,0.752,0.188,0.949,0.52,1.134c0.337,0.188,0.62,0.763,0.62,0.763l0.422,0.186
		c0,0,0.337,0.098,0.615,0.196c0.336,0.098,0.336,0.098,0.336,0.098l0.104,0.472l0.099,0.374l0.421,0.521c0,0-0.331,0,0.43,0
		s0.761,0,0.761,0s0,0.193,0.524,0.436c0.522,0.183,0.099,0.098,0.522,0.183c0.43,0.099,1.146,0.19,1.146,0.19
		c0.755-0.098,0.755-0.098,0.755-0.098l0.533,0.769c0,0,0.323,0,0.421,0.329c0.099,0.339-0.52,0,0.099,0.339
		c0.62,0.334,0,0.096,0.614,0.334c0.612,0.239-0.186,0.186,0.612,0.186c0.809,0,0.949,0,1.28,0.096
		c0.337,0.095,0.533,0.858,0.533,0.858c0.612,0.764,0.612,0.764,0.612,0.764l0.098,0.943c0,0-0.336,0.201,0.425,0.201
		c0.766,0,0.196,0,0.766,0c0.57,0-0.098-0.201,0.52,0c0.62,0.181,0.62,0.181,0.62,0.181s0.949,0.764,1.28,0.764
		c0.332,0,0.952-0.096,1.283,0c0.339,0.095,0.52,0.614,1.135,0.763c0.625,0.096,0.858,0,1.282,0.34
		c0.436,0.334,0.436,0.334,0.436,0.334l0.095,1.135l-0.339,0.609l-0.849,0.34l-0.101,1.049l-0.435,1.039v0.52
		c0,0,0.535,0.436-0.419,0.53c-0.954,0.096-0.954,0.096-0.954,0.096l-0.43,0.424c0,0,0,0.106-0.188,0.435
		c-0.186,0.329-0.425,0.854-0.425,0.854l0.099,0.949v0.615l-0.337,0.52c0,0-0.289,0.148,0.522,0.668
		c0.854,0.52,1.521,0.52,1.712,0.854c0.186,0.334,0.711,0.609,0.711,0.609l-1.156-0.254l-0.708-0.234L54.5,83.668l-2.28-1.188
		c0,0-3.419-2.81-4.469-5.09c0,0-0.896-1.324-2.415-1.897c0,0-3.756-3.425-4.092-4.278l-0.136-0.566v-0.287l-0.143-0.148V69.89
		l-0.099-0.238l0.056-1.039l0.043-0.722l0.05-0.371l-0.05-0.297c0,0-0.188-0.18-0.188-0.238c0-0.042-0.144-0.477-0.144-0.477
		l-0.042-0.135l0.569-0.479l-0.146-0.429l0.099-0.239l0.336-0.232c0,0,0.188-0.289,0.188-0.332c0-0.098-0.337-0.336-0.337-0.336
		l-0.146,0.053l-0.146,0.424h-0.191c0,0-0.196-0.098-0.196-0.135c0-0.056-0.183-0.239-0.183-0.239l-0.238-0.098
		c0,0-0.191-0.053-0.236-0.141c-0.053-0.098-0.291-0.233-0.291-0.289c0-0.042-0.186-0.336-0.186-0.336l-0.239-0.093
		c0,0-0.286-0.43-0.286-0.53c0-0.045-0.143-0.278-0.143-0.278s-0.337-0.379-0.337-0.435c0-0.042-0.141-0.374-0.141-0.374H38.11
		l-0.514-0.191l-0.337-0.421l-0.382-0.424c0,0-0.188-0.342-0.188-0.424c0-0.098-0.143-0.196-0.143-0.196h-0.244h-0.135l-0.337-0.281
		l-0.854-1.19l-0.146-0.53l-0.141-0.564l-0.099-0.952v-0.612L34.22,51.65C34.354,51.693,35.635,40.772,44.522,33.08z"/>
	<path fill="#FFFFFF" fill-opacity="0.8" d="M78.064,29.372l0.949,0.766l0.477,0.233l0.329,0.379l0.053,0.379
		c0,0,0.096,0.382,0.053,0.472c-0.053,0.093-0.105,0.615-0.105,0.615s0.435,0.766,0.435,0.864c0,0.09,0.042,0.52-0.053,0.618
		c-0.096,0.045-0.615,0.374-0.668,0.233c-0.043-0.14-0.371-0.472-0.467-0.472c-0.106-0.056-0.382-0.336-0.382-0.336l0.764-0.098
		l-0.101-0.477c0,0-0.525-0.186-0.663-0.186c-0.138-0.048-0.668-0.337-0.668-0.337l-0.572-0.141c0,0-0.943-0.233-1.034-0.289
		c-0.101-0.042-0.472-0.183-0.472-0.183h-0.811c0,0-0.388,0.183-0.473,0.281c-0.053,0.098-0.529,0.62-0.529,0.62
		s-0.043,0.612-0.043,0.71s-0.143,0.336-0.143,0.612c0,0.289-0.059,0.668-0.059,0.766c0,0.098,0,0.238,0,0.238l-0.096,0.424
		l-0.323,0.191l-0.435,0.336c0,0-0.377,0.281-0.377,0.379s0,0.472,0.144,0.761c0.133,0.287,0.101,0.57,0.281,0.71
		c0.19,0.148,0.286,0.337,0.429,0.387c0.144,0.042,0.043,0.09,0.281,0.09c0.196,0,0.387,0.05,0.478-0.042
		c0.101-0.042,0.339-0.042,0.435-0.196c0.096-0.141-0.101-0.042,0.096-0.141c0.18-0.042,0.18-0.186,0.334-0.042
		c0.186,0.141,0.334,0.337,0.381,0.421c0.043,0.098,0.186,0.337,0.334,0.475c0.186,0.098,0.34,0.472,0.34,0.472l0.281,0.287
		c0,0,0.047,0.045,0.238,0.045c0.19,0,0.477-0.045,0.477-0.045l0.096-0.188c0,0,0.181,0.048,0.233-0.045
		c0.053-0.098,0.053-0.239,0.053-0.239s-0.105-0.286-0.186-0.379c-0.053-0.098-0.143-0.336-0.143-0.336l0.042-0.337l0.191-0.191
		l0.053-0.238v-0.271l-0.218-0.098l-0.334-0.191c0,0-0.18,0.045-0.18-0.196c-0.054-0.188-0.054-0.188-0.054-0.188l-0.424-0.093
		l-0.291-0.146l0.334-0.239c0.19-0.326,0.232-0.424,0.232-0.522c0-0.098-0.042-0.374-0.042-0.374s-0.19-0.056-0.19-0.294
		c-0.043-0.233-0.043-0.374-0.043-0.374l0.043-0.186c0,0,0.053-0.146,0.19-0.146c0.101,0,0.286,0.146,0.376,0.146
		c0.102,0,0.292,0.042,0.292,0.042s0.096,0.045,0.096,0.196c0,0.093-0.054,0.326-0.054,0.326l0.191-0.283v0.339l-0.048,0.379v0.379
		l0.19,0.376l0.186,0.292c0,0,0.239,0.233,0.34,0.336c0.096,0.037,0.328,0.228,0.328,0.228l0.287,0.141l0.19,0.045l0.186-0.186
		c0,0,0.334,0.045,0.334-0.047c0.053-0.098,0.053-0.098,0.053-0.098s0.377-0.045,0.478-0.045c0.09,0,0.286,0,0.286,0
		s0.138,0.284,0.042,0.284c-0.095,0-0.138,0.098-0.371,0.196c-0.243,0.042-0.339,0-0.381,0.095
		c-0.043,0.098-0.191,0.339-0.191,0.339l0.181,0.037h0.138l0.19,0.196c0,0,0.054,0.042,0,0.183c-0.053,0.14,0.186,0.098-0.053,0.14
		c-0.286,0.05-0.419-0.042-0.419-0.042s-0.053-0.238-0.196-0.14c-0.095,0.098-0.138,0.336-0.138,0.336V38.4l0.191,0.472
		c0,0,0.095,0.098,0,0.146c-0.096,0.042-0.425,0.424-0.425,0.424s-0.053,0.141-0.201,0.141c-0.085,0-0.233,0-0.467,0.056
		c-0.19,0.042-0.19,0.042-0.382,0.095c-0.186,0.045-0.339,0.093-0.614,0.144c-0.281,0.042-0.806,0.042-0.991,0.042
		c-0.196,0-0.239,0-0.334-0.042c-0.106-0.051-0.059,0-0.202-0.196c-0.132-0.186-0.28-0.337-0.28-0.472c0-0.098,0-0.144-0.054-0.337
		c-0.048-0.186-0.048-0.326-0.186-0.326c-0.19,0-0.19,0-0.19,0s-0.382,0.281-0.334,0.379c0.053,0.098-0.048,0,0.286,0.233
		c0.334,0.241,0.424,0.57,0.424,0.57l-0.048,0.326l-0.609,0.337l-0.435,0.143l-0.037,0.286c0,0,0,0.098-0.096,0.233
		c-0.101,0.135-0.339,0.336-0.339,0.336s-0.191,0.05-0.233,0.191c-0.042,0.098-0.19,0.472-0.19,0.472s-0.181-0.045-0.382,0.098
		c-0.181,0.141,0.053,0.141-0.371,0.337c-0.43,0.183-0.43,0.183-0.43,0.183l-0.478-0.042l-0.291,0.093c0,0-0.377,0.042-0.424,0.141
		c-0.054,0.098-0.244,0.374-0.244,0.374s-0.09,0.196,0,0.196c0.101,0.045,0.244,0,0.477,0.045c0.191,0.053,0.233,0.053,0.382,0.14
		c0.144,0.053,0.286,0.194,0.286,0.194l0.52,0.474l0.292,0.618l-0.053,0.472l-0.567,0.196c0,0-0.334,0-0.478,0
		c-0.095,0-0.053,0-0.614,0c-0.567,0-0.668,0-0.764,0s-0.478-0.053-0.478-0.053l-0.339,0.053l-0.233,0.191l-0.133,0.048
		c0,0,0.191,0.424,0.191,0.57c0,0.141,0,0.326,0,0.326l-0.059,0.289l-0.133,0.337l-0.196,0.323l0.054,0.196
		c0,0-0.054,0.143,0.053,0.143c0.096,0,0.371-0.045,0.371,0.053c0,0.093-0.233,0.472-0.233,0.472l0.478,0.093
		c0,0-0.054-0.045,0.233,0.047c0.286,0.045,0.477,0.144,0.477,0.144l0.334,0.233l0.101,0.194l0.101-0.194c0,0,0.52-0.045,0.61-0.098
		c0.101-0.045,0.339-0.045,0.339-0.045h0.424c0,0,0.096,0.045,0.191-0.053c0.042-0.088,0.042-0.088,0.042-0.088
		s0.478-0.196,0.573-0.286c0.095-0.045,0.138-0.336,0.138-0.336s0.148-0.093,0.148-0.186c0-0.098-0.096-0.337-0.096-0.337V47.42
		l0.133-0.183c0,0,0.048-0.056,0.196-0.196c0.138-0.141,0.138-0.141,0.138-0.141s-0.059-0.045,0.138-0.143
		c0.19-0.053,0.339-0.193,0.43-0.193c0.09,0-0.102,0.098,0.09,0c0.19-0.098,0.244-0.186,0.244-0.337c0-0.093,0.042-0.62,0.042-0.62
		l0.19-0.281l0.478,0.042l0.244,0.05c0,0,0.28,0.042,0.328-0.05c0.054-0.098,0.191-0.183,0.191-0.183l0.382-0.196
		c0,0-0.054-0.045,0.132-0.045c0.196,0,0.482,0,0.626,0c0.09,0,0.323,0,0.323,0s0.201,0.093,0.297,0.186
		c0.042,0.098,0.181,0.336,0.181,0.336l0.148,0.196h0.143c0.186,0.141,0.281,0.239,0.609,0.326c0.34,0.098,0.573,0.196,0.573,0.196
		s0.095,0.193,0.186,0.281c0.101,0.098,0.186,0.196,0.334,0.292c0.101,0.045,0.19,0.143,0.233,0.236
		c0.053,0.098,0.195,0.281,0.195,0.281l0.186,0.191l0.096-0.191v-0.332l-0.042-0.186c0,0-0.191-0.141,0.042-0.141
		c0.191,0,0.34,0,0.34,0l-0.191-0.286l-0.238-0.098l-0.334-0.238l-0.144-0.143l-0.132-0.042l-0.148-0.098l-0.186-0.141
		c0,0-0.334-0.053-0.334-0.196c-0.048-0.09-0.048-0.09-0.048-0.09l-0.334-0.045c0,0-0.329-0.196-0.329-0.281
		c0-0.098-0.053-0.387-0.053-0.387l-0.281-0.042c0,0,0.043-0.196,0.043-0.337c0-0.098,0.101-0.238,0.101-0.238l0.609-0.045
		l0.144,0.337l0.238,0.143l0.334,0.141l0.138,0.193l0.148,0.143c0,0,0.042,0.042,0.233,0.098c0.19,0.042,0.334,0.093,0.334,0.093
		s0.19,0.193,0.334,0.193c0.138,0.045,0.19,0.098,0.339,0.141c-0.095,0.082-0.095,0.082-0.095,0.082s0.047,0.098,0.19,0.196
		c0.138,0.093,0.275,0.281,0.275,0.379s0.101,0.424,0.202,0.472c0.095,0.045,0.132,0.045,0.334,0.238
		c0.186,0.186,0.186,0.376,0.323,0.475c0.201,0.042,0.339,0,0.339,0.183c0.053,0.196,0.053,0.337,0.053,0.337s0.144,0.05,0.244,0.05
		c0.085,0,0.275-0.191,0.275-0.191s0.191-0.281,0.043-0.336c-0.085-0.042-0.318-0.042-0.318-0.141s0-0.615,0-0.615l0.133-0.334
		l0.186-0.284l0.291,0.087l0.281-0.186l0.297,0.336l-0.101,0.379c0,0,0.048,0.238,0.186,0.424c0.096,0.191,0.339,0.43,0.339,0.43
		l0.467,0.429l0.668,0.183l0.144-0.042l0.991-0.196c0,0,0.148,0,0.244,0c0.095,0,0.566,0.809,0.566,0.809s0,0.336,0,0.522
		c0,0.196,0,0.668,0,0.668s-0.334,0.337-0.477,0.337c-0.133,0-0.525,0.186-0.525,0.186l-0.8,0.193l-0.52-0.042l-0.949-0.056
		c0,0-0.954-0.042-1.05-0.042s-0.43,0-0.53,0c-0.09,0-0.233,0.098-0.328,0.374c-0.096,0.283-0.286,0.381-0.286,0.381
		s0,0.141-0.186,0.141c-0.196,0-0.196,0.053-0.334-0.042c-0.144-0.098-0.812-0.238-0.812-0.238l-0.609-0.43l-0.34-0.284
		l-0.339-0.042h-0.949l-0.62-0.05l0.106-0.991l0.095,0.281l-0.19-0.663l-0.286-0.196l-0.668-0.141l-0.425,0.045l-0.566,0.141
		L75.6,48.801l-0.34,0.098l-1.622,0.281l-0.567,0.238c0,0-0.238,0.141-0.334,0.196c-0.095,0.042-0.466,0.042-0.466,0.042
		s-0.297-0.042-0.436-0.098c-0.138-0.042-0.477-0.042-0.614-0.042s-0.43-0.045-0.53,0c-0.09,0.042-0.181,0.042-0.275,0.196
		c-0.106,0.141-0.436,0.52-0.436,0.52s-0.19,0.196-0.286,0.284c-0.042,0.098-0.28,0.384-0.28,0.384l-0.388,0.62l-0.238,0.281
		l0.059,0.336v0.239c0,0-0.138,0.143-0.244,0.191c-0.096,0.042-0.286,0.14-0.286,0.14s-0.138,0.045-0.281,0.186
		c-0.138,0.087-0.138,0.135-0.233,0.228c-0.101,0.098-0.429,0.337-0.429,0.337s-0.186,0.14-0.329,0.286
		c-0.101,0.143-0.297,0.331-0.339,0.424c-0.054,0.098-0.191,0.196-0.297,0.239c-0.085,0.05-0.276,0.429-0.324,0.527
		c-0.053,0.093-0.334,0.522-0.334,0.522l-0.195,0.808l-0.048,0.374c0,0,0.048,0.141,0.148,0.238
		c0.095,0.098,0.186,0.478,0.186,0.478v0.331c0,0-0.101,0.289-0.144,0.379c-0.042,0.098,0.053,0.573,0.053,0.573v0.281
		c0,0,0,0.098-0.143,0.239c-0.144,0.135-0.186,0.336-0.186,0.336l0.186,0.43l0.143,0.284V60.4l0.181,0.326
		c0,0,0.101,0.103,0.19,0.196c0.102,0.042,0.144,0.042,0.34,0.191c0.18,0.09,0.18,0.09,0.18,0.09s0.297,0.336,0.297,0.472
		c0,0.098,0.186,0.294,0.186,0.294l0.334,0.336c0,0,0.054,0.186,0.244,0.332c0.186,0.146,0.371,0.233,0.467,0.331
		c0.101,0.053,0.382,0.292,0.615,0.342c0.195,0.042,0.297,0.098,0.387,0.098s-0.148-0.294,0.52,0.042
		c0.668,0.337,1.092,0.477,1.092,0.477l0.478,0.191c0,0,0.769,0.042,0.854-0.053C72.217,64,72.354,64,72.461,64
		c0.096,0,0.334,0,0.52,0c0.19,0,0.858-0.098,0.858-0.098l0.759-0.286c0,0,0.238-0.138,0.334-0.191
		c0.101-0.042,0.376-0.233,0.477-0.284c0.101-0.053,0.567-0.053,0.567-0.053s0-0.141,0.196,0c0.181,0.146,0.181,0.196,0.233,0.294
		c0.048,0.096,0.048,0.334,0.18,0.334c0.148,0.045,0.482,0.143,0.482,0.143s0.478-0.056,0.61,0c0.148,0.042,0.477,0.042,0.477,0.042
		l0.148,0.191l0.043,0.425v0.384c0,0-0.043,0.14,0,0.284c0.053,0.135,0.201,0.379,0.201,0.379s-0.201,0.285-0.297,0.33
		c-0.096,0.049-0.339,0.343-0.339,0.343l0.668,0.614l0.376,0.371l0.292,0.34c0,0,0.042,0.138,0.042,0.238
		c0,0.102-0.042,0.334,0,0.473c0.053,0.095,0.053,0.477,0.053,0.477s0.054,0.286,0.054,0.382c0,0.095-0.106,0.562-0.106,0.562
		l-0.042,0.34L79.056,70.6l-0.233,0.281l-0.339,0.34l-0.238,0.381l-0.043,0.52l-0.196,0.34c0,0,0.054,0.286,0.054,0.424
		c0,0.139,0.286,0.658,0.286,0.658l-0.048,0.434c0,0-0.196,0.615-0.196,0.754c0,0.148-0.133,0.339-0.133,0.477
		c0,0.101-0.058,0.53-0.058,0.53l0.058,0.52l0.186,0.53l-0.186,0.477c0,0-0.101,0.382-0.101,0.615c0,0.186,0.34,0.419,0.43,0.419
		s0.524-0.042,0.716-0.186c0.18-0.096,0.657-0.233,0.753-0.286c0.101-0.048,0.19,0.053,0.482-0.181
		c0.28-0.201,0.71-0.535,0.71-0.535s0.334-0.233,0.478-0.323c0.101-0.102,0.566-0.626,0.566-0.626s0.334-0.329,0.567-0.478
		c0.239-0.137,0-0.042,0.239-0.18c0.238-0.138,0.996-0.773,0.996-0.773l0.758-0.754c0,0,0.668-0.848,0.77-0.996
		c0.101-0.148,0.71-0.954,0.806-1.008c0.095-0.047,0.948-0.614,1.134-0.758c0.196-0.133,0.436-1.145,0.53-1.277
		c0.096-0.101,0.615-1.283,0.615-1.283l0.478-1.378l0.806-2.05l0.795-1.423c0,0,0.339-0.612,0.478-0.803
		c0.095-0.19,0.858-1.659,0.858-1.659l0.286-1.246l0.101-1.042h-0.482l-0.52,0.475l-0.482-0.143l-0.472,0.056l0.53-0.668
		l-0.144-0.522l-0.429-0.331l-0.573-0.856v-0.858l-0.614-0.994l-0.371-1.569c0,0-0.716-0.763-0.615-0.949
		c0.042-0.196,0.233-0.766,0.233-0.766l0.382,0.196c0,0,0.286,0.761,0.424,0.808c0.148,0.045,0.339,0.424,0.382,0.522
		c0.048,0.098,0.09,0.435,0.18,0.525c0.054,0.093,0.382,0.713,0.382,0.713s0.239,0.612,0.286,0.753
		c0.054,0.098,0.287,0.479,0.34,0.761c0.048,0.289,0.18,1.19,0.18,1.28c0,0.093,0.244,1.092,0.244,1.092s0.334-0.093,0.382-0.186
		c0.042-0.09,0.042-0.141,0.144-0.238c0.042-0.098,0.614-0.525,0.614-0.525l0.239-0.761c0,0,0.138-0.337,0.18-0.477
		c0.053-0.138,0.34-0.668,0.34-0.756c0-0.098-0.048-0.472,0-0.623c0.053-0.093,0.19-0.663,0.19-0.761s0.042-0.472,0.042-0.472
		l-0.042-0.854l0.371-0.472l0.201-0.527C93.646,51.749,92.262,36.831,78.064,29.372z"/>
</g>
</svg>
