<?xml version="1.0" encoding="utf-8"?>
<!-- Generator: Adobe Illustrator 16.0.0, SVG Export Plug-In . SVG Version: 6.00 Build 0)  -->
<!DOCTYPE svg PUBLIC "-//W3C//DTD SVG 1.1//EN" "http://www.w3.org/Graphics/SVG/1.1/DTD/svg11.dtd">
<svg version="1.1" id="图层_1" xmlns="http://www.w3.org/2000/svg" xmlns:xlink="http://www.w3.org/1999/xlink" x="0px" y="0px"
	 width="128px" height="128px" viewBox="0 0 128 128" enable-background="new 0 0 128 128" xml:space="preserve">
<g id="surface1">
	<polygon opacity="0.2" enable-background="new    " points="18.5,124 18.5,4 109.5,4 109.5,90.203 75.703,124 	"/>
	<polygon opacity="0.08" enable-background="new    " points="18.5,128 18.5,4 113.5,4 113.5,93.031 78.531,128 	"/>
	<polygon opacity="0.1" enable-background="new    " points="20.5,126 20.5,6 111.5,6 111.5,92.203 77.703,126 	"/>
	<g>
		
			<linearGradient id="SVGID_1_" gradientUnits="userSpaceOnUse" x1="272.001" y1="-1711.9512" x2="272.001" y2="-1595.9512" gradientTransform="matrix(1 0 0 -1 -208.0005 -1589.9512)">
			<stop  offset="0" style="stop-color:#512DA8"/>
			<stop  offset="0.008" style="stop-color:#D32F2F"/>
			<stop  offset="0.3041" style="stop-color:#E33932"/>
			<stop  offset="0.6579" style="stop-color:#F04035"/>
			<stop  offset="1" style="stop-color:#F44336"/>
		</linearGradient>
		<path fill="url(#SVGID_1_)" d="M74.875,122L107.5,89.375V6h-87v116H74.875z"/>
		<polygon fill="#B71C1C" fill-opacity="0.3922" points="73.063,87.563 73.063,122 74.875,122 107.5,89.375 107.5,87.563 		"/>
		<path fill="#FFFFFF" fill-opacity="0.3922" d="M74.875,89.375h32.598L74.875,122V89.375z"/>
		<g opacity="0.8">
			<path fill="#FFFFFF" d="M67.158,38.211v12.922H45.897c-0.896,0-1.625-0.729-1.625-1.625v-9.672c0-0.896,0.729-1.625,1.625-1.625
				H67.158 M69.158,36.211H45.897c-2.002,0-3.625,1.623-3.625,3.625v9.672c0,2.001,1.623,3.625,3.625,3.625h23.261V36.211
				L69.158,36.211z"/>
			<g>
				<path fill="#FFFFFF" d="M69.658,52.633V36.711h12.445c1.723,0,3.125,1.402,3.125,3.125v9.672c0,1.723-1.402,3.125-3.125,3.125
					H69.658z M76.965,50.202l5.918-9.133H71.056L76.965,50.202z"/>
				<path fill="#FFFFFF" d="M82.104,37.211c1.447,0,2.625,1.178,2.625,2.625v9.672c0,1.447-1.178,2.625-2.625,2.625H70.158v-11.53
					l0.977,1.51l4.99,7.713l0.839,1.297l0.84-1.296l4.998-7.713l1.001-1.544h-1.84h-9.988h-1.816v-3.358H82.104 M82.104,36.211
					H69.158v16.922h12.945c2.004,0,3.625-1.624,3.625-3.625v-9.672C85.729,37.834,84.107,36.211,82.104,36.211L82.104,36.211z
					 M76.965,49.282l-4.99-7.713h9.988L76.965,49.282L76.965,49.282z"/>
			</g>
			<path fill="#FFFFFF" d="M76.043,62.383c4.227,0,7.664,3.438,7.664,7.664s-3.438,7.664-7.664,7.664s-7.664-3.438-7.664-7.664
				S71.816,62.383,76.043,62.383 M76.043,60.383c-5.336,0-9.664,4.328-9.664,9.664s4.328,9.664,9.664,9.664s9.664-4.328,9.664-9.664
				S81.379,60.383,76.043,60.383L76.043,60.383z"/>
			<g>
				<path fill="#FFFFFF" d="M57.976,60.383H45.897c-2.002,0-3.625,1.623-3.625,3.625v12.078c0,2.002,1.623,3.625,3.625,3.625h12.078
					c2.002,0,3.625-1.623,3.625-3.625V64.008C61.601,62.006,59.978,60.383,57.976,60.383z M51.36,76.271l-6.021-4.957l1.906-2.316
					l3.479,2.863l5.326-7.862l2.484,1.683L51.36,76.271z"/>
			</g>
			<g>
				<circle fill="#FFFFFF" cx="76.043" cy="70.047" r="4.613"/>
			</g>
		</g>
		<g>
			<path fill="#B71C1C" d="M106.5,7v81.961L74.461,121H49.5h-28V7H106.5 M107.5,6h-87v116h29h25.375L107.5,89.375V6L107.5,6z"/>
		</g>
	</g>
</g>
</svg>
