<?xml version="1.0" encoding="utf-8"?>
<!-- Generator: Adobe Illustrator 21.0.0, SVG Export Plug-In . SVG Version: 6.00 Build 0)  -->
<svg version="1.1" id="图层_1" xmlns="http://www.w3.org/2000/svg" xmlns:xlink="http://www.w3.org/1999/xlink" x="0px" y="0px"
	 viewBox="0 0 128 128" style="enable-background:new 0 0 128 128;" xml:space="preserve">
<style type="text/css">
	.st0{opacity:0.08;enable-background:new    ;}
	.st1{display:none;opacity:0.08;enable-background:new    ;}
	.st2{opacity:0.1;enable-background:new    ;}
	.st3{opacity:0.2;enable-background:new    ;}
	.st4{fill:#607D8B;}
	.st5{fill:url(#SVGID_1_);}
	.st6{opacity:0.8;fill:#607D8B;enable-background:new    ;}
	.st7{fill:#455A64;fill-opacity:0.7;}
	.st8{fill:#90A4AE;}
</style>
<polygon class="st0" points="18.3,128 18.3,4 113.7,4 113.7,93 78.7,128 "/>
<polygon class="st1" points="22.3,126 22.3,6 113.7,6 113.7,92.2 79.9,126 "/>
<polygon class="st2" points="20.3,126 20.3,6 111.7,6 111.7,92.2 77.9,126 "/>
<polygon class="st3" points="18.3,124 18.3,4 109.7,4 109.7,90.2 75.9,124 "/>
<polygon class="st4" points="20.3,122 20.3,6 107.7,6 107.7,89.3 75,122 "/>
<g>
	<g>
		
			<linearGradient id="SVGID_1_" gradientUnits="userSpaceOnUse" x1="105.6001" y1="1087.9004" x2="105.6001" y2="1201.9004" gradientTransform="matrix(1 0 0 1 -41.6001 -1080.9004)">
			<stop  offset="0" style="stop-color:#F5F5F5"/>
			<stop  offset="0.341" style="stop-color:#F1F2F3"/>
			<stop  offset="0.6434" style="stop-color:#E7EAEC"/>
			<stop  offset="0.9302" style="stop-color:#D5DCE0"/>
			<stop  offset="1" style="stop-color:#CFD8DC"/>
		</linearGradient>
		<polygon class="st5" points="21.3,121 21.3,7 106.7,7 106.7,88.9 74.6,121 		"/>
	</g>
	<g>
		<rect x="32.3" y="23.3" class="st6" width="11.8" height="6.7"/>
		<rect x="47.5" y="23.3" class="st6" width="48.1" height="6.7"/>
		<rect x="32.3" y="41.5" class="st6" width="11.8" height="3.1"/>
		<rect x="47.5" y="41.5" class="st6" width="48.1" height="3.1"/>
		<rect x="47.5" y="51.4" class="st6" width="48.1" height="3.1"/>
		<rect x="32.3" y="51.4" class="st6" width="11.8" height="3.1"/>
		<rect x="47.5" y="61.2" class="st6" width="48.1" height="3.1"/>
		<rect x="32.3" y="61.2" class="st6" width="11.8" height="3.1"/>
		<rect x="47.5" y="71.1" class="st6" width="48.1" height="3.1"/>
		<rect x="32.3" y="71.1" class="st6" width="11.8" height="3.1"/>
		<rect x="32.3" y="81" class="st6" width="11.8" height="3.1"/>
		<rect x="47.5" y="81" class="st6" width="23.9" height="3.1"/>
	</g>
	<polygon class="st7" points="106.7,88.9 106.7,87.6 72.9,87.6 72.9,121 74.6,121 	"/>
	<path class="st8" d="M74.6,88.9h32.1l-32.1,32V88.9z"/>
</g>
</svg>
