<?xml version="1.0" encoding="utf-8"?>
<!-- Generator: Adobe Illustrator 21.0.0, SVG Export Plug-In . SVG Version: 6.00 Build 0)  -->
<svg version="1.1" id="图层_1" xmlns="http://www.w3.org/2000/svg" xmlns:xlink="http://www.w3.org/1999/xlink" x="0px" y="0px"
	 viewBox="0 0 128 128" style="enable-background:new 0 0 128 128;" xml:space="preserve">
<style type="text/css">
	.st0{opacity:0.08;enable-background:new    ;}
	.st1{display:none;opacity:0.08;enable-background:new    ;}
	.st2{opacity:0.1;enable-background:new    ;}
	.st3{opacity:0.2;enable-background:new    ;}
	.st4{fill:#212121;}
	.st5{fill:url(#SVGID_1_);}
	.st6{fill:#9E9E9E;fill-opacity:0.39;}
	.st7{fill:#FFFFFF;fill-opacity:0.3922;}
	.st8{opacity:0.8;}
	.st9{fill:#FFFFFF;}
</style>
<polygon class="st0" points="18.3,128 18.3,4 113.7,4 113.7,93 78.7,128 "/>
<polygon class="st1" points="22.3,126 22.3,6 113.7,6 113.7,92.2 79.9,126 "/>
<polygon class="st2" points="20.3,126 20.3,6 111.7,6 111.7,92.2 77.9,126 "/>
<polygon class="st3" points="18.3,124 18.3,4 109.7,4 109.7,90.2 75.9,124 "/>
<polygon class="st4" points="20.3,122 20.3,6 107.7,6 107.7,89.3 75,122 "/>
<g>
	<g>
		<g>
			<g>
				
					<linearGradient id="SVGID_1_" gradientUnits="userSpaceOnUse" x1="64" y1="783" x2="64" y2="669" gradientTransform="matrix(1 0 0 1 0 -662)">
					<stop  offset="0" style="stop-color:#616161"/>
					<stop  offset="1" style="stop-color:#90A4AE"/>
				</linearGradient>
				<polygon class="st5" points="21.3,121 21.3,7 106.7,7 106.7,88.9 74.6,121 				"/>
			</g>
			<polygon class="st6" points="106.7,88.9 106.7,87.6 72.9,87.6 72.9,121 74.6,121 			"/>
			<path class="st7" d="M74.6,88.9h32.1l-32.1,32V88.9z"/>
		</g>
	</g>
	<g class="st8">
		<path class="st9" d="M68.8,81.2c-3.6,0-6.8-0.5-9.8-1.6c-2.9-1.1-5.5-2.7-7.6-4.8c-2.1-2.1-3.7-4.7-4.9-7.7
			c-1.2-3.1-1.7-6.6-1.7-10.5s0.6-7.4,1.9-10.5s3-5.6,5.2-7.7c2.2-2.1,4.8-3.7,7.7-4.8S65.7,32,69,32c2.1,0,4,0.1,5.7,0.4
			s3.1,0.6,4.4,1c1.2,0.4,2.3,0.7,3,1.1c0.8,0.4,1.3,0.6,1.6,0.8l-2,5.4c-0.4-0.3-1.1-0.6-1.9-0.9c-0.8-0.3-1.8-0.6-2.8-1
			c-1.1-0.3-2.2-0.6-3.4-0.8s-2.5-0.3-3.8-0.3c-2.7,0-5.1,0.4-7.3,1.3c-2.2,0.9-4,2.1-5.5,3.7c-1.5,1.6-2.7,3.6-3.5,6
			c-0.8,2.3-1.2,5-1.2,7.9c0,2.8,0.4,5.4,1.1,7.7c0.7,2.3,1.8,4.3,3.2,5.9c1.4,1.7,3.2,2.9,5.3,3.8s4.6,1.4,7.4,1.4
			c3.3,0,6-0.3,8.1-0.9s3.8-1.2,4.8-1.7l1.8,5.4c-0.3,0.2-0.9,0.5-1.8,0.8s-2,0.7-3.3,1s-2.9,0.6-4.6,0.8
			C72.7,81.1,70.8,81.2,68.8,81.2z"/>
	</g>
</g>
</svg>
