<?xml version="1.0" encoding="utf-8"?>
<!-- Generator: Adobe Illustrator 16.0.0, SVG Export Plug-In . SVG Version: 6.00 Build 0)  -->
<!DOCTYPE svg PUBLIC "-//W3C//DTD SVG 1.1//EN" "http://www.w3.org/Graphics/SVG/1.1/DTD/svg11.dtd">
<svg version="1.1" id="图层_1" xmlns="http://www.w3.org/2000/svg" xmlns:xlink="http://www.w3.org/1999/xlink" x="0px" y="0px"
	 width="128px" height="128px" viewBox="0 0 128 128" enable-background="new 0 0 128 128" xml:space="preserve">
<polygon opacity="0.08" enable-background="new    " points="18.31,128 18.31,4 113.689,4 113.689,92.995 78.686,128 "/>
<polygon display="none" opacity="0.08" enable-background="new    " points="22.31,126 22.31,6 113.689,6 113.689,92.167 
	79.857,126 "/>
<polygon opacity="0.1" enable-background="new    " points="20.31,126 20.31,6 111.689,6 111.689,92.167 77.857,126 "/>
<polygon opacity="0.2" enable-background="new    " points="18.31,124 18.31,4 109.689,4 109.689,90.167 75.857,124 "/>
<polygon fill="#5F7B89" points="20.31,122 20.31,6 107.689,6 107.689,89.339 75.029,122 "/>
<g>
	<g>
		<g>
			<g>
				<g>
					<g>
						<g>
							<g>
								
									<linearGradient id="SVGID_1_" gradientUnits="userSpaceOnUse" x1="188.7959" y1="1250.7002" x2="188.7959" y2="1364.7012" gradientTransform="matrix(1 0 0 1 -124.7998 -1243.7012)">
									<stop  offset="0" style="stop-color:#F6F5F5"/>
									<stop  offset="0.341" style="stop-color:#F1F2F3"/>
									<stop  offset="0.6434" style="stop-color:#E7EAEB"/>
									<stop  offset="0.9302" style="stop-color:#D5DBDF"/>
									<stop  offset="1" style="stop-color:#CFD7DB"/>
								</linearGradient>
								<polygon fill="url(#SVGID_1_)" points="21.291,121 21.291,7 106.701,7 106.701,88.938 74.639,121 								"/>
							</g>
							<polygon fill="#455963" fill-opacity="0.7" points="106.701,88.938 106.701,87.557 72.88,87.557 72.88,121 74.639,121 
															"/>
							<path fill="#8DA1AC" d="M74.595,88.938l32.114,0.052L74.639,121L74.595,88.938z"/>
						</g>
					</g>
				</g>
			</g>
		</g>
	</g>
	<g>
		<path fill="#607D8B" d="M87.486,52.5c0,3.885-0.639,7.381-1.915,10.476c-1.291,3.088-2.998,5.692-5.15,7.823
			c-2.152,2.13-4.646,3.755-7.496,4.876c-2.836,1.12-5.804,1.685-8.921,1.685c-3.117,0-6.094-0.564-8.929-1.685
			c-2.843-1.121-5.336-2.746-7.489-4.876c-2.152-2.131-3.867-4.735-5.151-7.823c-1.284-3.095-1.922-6.59-1.922-10.476
			c0-3.893,0.638-7.385,1.922-10.476c1.284-3.087,2.999-5.696,5.151-7.827c2.152-2.13,4.646-3.755,7.489-4.876
			c2.835-1.121,5.812-1.681,8.929-1.681c3.118,0,6.085,0.561,8.921,1.681c2.85,1.121,5.344,2.746,7.496,4.876
			c2.152,2.13,3.859,4.739,5.15,7.827C86.848,45.115,87.486,48.607,87.486,52.5z M82.469,52.5c0-3.024-0.445-5.782-1.365-8.275
			c-0.921-2.498-2.183-4.635-3.815-6.424c-1.617-1.785-3.563-3.158-5.833-4.119c-2.271-0.961-4.75-1.443-7.452-1.443
			s-5.188,0.482-7.452,1.443c-2.271,0.961-4.216,2.334-5.841,4.119c-1.625,1.789-2.895,3.926-3.807,6.424
			c-0.92,2.494-1.373,5.251-1.373,8.275s0.453,5.778,1.373,8.271c0.913,2.501,2.182,4.639,3.807,6.428
			c1.625,1.781,3.57,3.154,5.841,4.119c2.264,0.957,4.75,1.439,7.452,1.439s5.18-0.482,7.452-1.439
			c2.271-0.965,4.216-2.338,5.833-4.119c1.633-1.789,2.895-3.927,3.815-6.428C82.023,58.278,82.469,55.524,82.469,52.5z"/>
		<g>
			<path fill="#607D8B" d="M67.002,67.103h-6.004V46.269h6.004V67.103z"/>
		</g>
		<circle fill="#607D8B" cx="64.003" cy="40.666" r="3.503"/>
	</g>
</g>
</svg>
