<?xml version="1.0" encoding="utf-8"?>
<!-- Generator: Adobe Illustrator 21.0.0, SVG Export Plug-In . SVG Version: 6.00 Build 0)  -->
<svg version="1.1" id="图层_1" xmlns="http://www.w3.org/2000/svg" xmlns:xlink="http://www.w3.org/1999/xlink" x="0px" y="0px"
	 viewBox="0 0 128 128" style="enable-background:new 0 0 128 128;" xml:space="preserve">
<style type="text/css">
	.st0{opacity:0.08;enable-background:new    ;}
	.st1{display:none;opacity:0.08;enable-background:new    ;}
	.st2{opacity:0.1;enable-background:new    ;}
	.st3{opacity:0.2;enable-background:new    ;}
	.st4{fill:#212121;}
	.st5{fill:url(#SVGID_1_);}
	.st6{fill:#9E9E9E;fill-opacity:0.39;}
	.st7{fill:#FFFFFF;fill-opacity:0.3922;}
	.st8{opacity:0.8;}
	.st9{fill:#FFFFFF;}
</style>
<polygon class="st0" points="18.3,128 18.3,4 113.7,4 113.7,93 78.7,128 "/>
<polygon class="st1" points="22.3,126 22.3,6 113.7,6 113.7,92.2 79.9,126 "/>
<polygon class="st2" points="20.3,126 20.3,6 111.7,6 111.7,92.2 77.9,126 "/>
<polygon class="st3" points="18.3,124 18.3,4 109.7,4 109.7,90.2 75.9,124 "/>
<polygon class="st4" points="20.3,122 20.3,6 107.7,6 107.7,89.3 75,122 "/>
<g>
	<g>
		<g>
			<g>
				
					<linearGradient id="SVGID_1_" gradientUnits="userSpaceOnUse" x1="64" y1="783" x2="64" y2="669" gradientTransform="matrix(1 0 0 1 0 -662)">
					<stop  offset="0" style="stop-color:#616161"/>
					<stop  offset="1" style="stop-color:#90A4AE"/>
				</linearGradient>
				<polygon class="st5" points="21.3,121 21.3,7 106.7,7 106.7,88.9 74.6,121 				"/>
			</g>
			<polygon class="st6" points="106.7,88.9 106.7,87.6 72.9,87.6 72.9,121 74.6,121 			"/>
			<path class="st7" d="M74.6,88.9h32.1l-32.1,32V88.9z"/>
		</g>
	</g>
	<g>
		<g>
			<g class="st8">
				<path class="st9" d="M46.2,74.8c-2.7,0-5.1-0.4-7.3-1.2c-2.2-0.8-4.1-2-5.6-3.5c-1.6-1.5-2.8-3.5-3.6-5.7
					c-0.9-2.3-1.3-4.9-1.3-7.8c0-2.9,0.5-5.6,1.4-7.8c1-2.3,2.3-4.2,3.9-5.8c1.6-1.6,3.5-2.7,5.7-3.5s4.5-1.2,7-1.2
					c1.6,0,3,0.1,4.2,0.3c1.3,0.2,2.3,0.4,3.3,0.7c0.9,0.3,1.7,0.5,2.3,0.8s1,0.5,1.2,0.6l-1.5,4.1c-0.3-0.2-0.8-0.4-1.4-0.7
					c-0.6-0.2-1.3-0.5-2.1-0.7s-1.6-0.4-2.6-0.6c-0.9-0.2-1.9-0.2-2.8-0.2c-2,0-3.8,0.3-5.4,1c-1.6,0.6-3,1.6-4.1,2.8
					s-2,2.7-2.6,4.4S34,54.5,34,56.6s0.3,4,0.8,5.7s1.3,3.2,2.4,4.4c1.1,1.2,2.4,2.2,3.9,2.9c1.6,0.7,3.4,1,5.5,1
					c2.4,0,4.5-0.2,6.1-0.7s2.8-0.9,3.6-1.3l1.4,4.1c-0.3,0.2-0.7,0.4-1.4,0.6c-0.6,0.3-1.5,0.5-2.4,0.7c-1,0.2-2.1,0.4-3.4,0.6
					C49.1,74.7,47.7,74.8,46.2,74.8z"/>
			</g>
		</g>
		<g class="st8">
			<path class="st9" d="M54.7,54.6h8.9v-9.7h3.8v9.7h8.9v3.7h-8.9v9.8h-3.8v-9.8h-8.9C54.7,58.3,54.7,54.6,54.7,54.6z"/>
			<path class="st9" d="M78,54.6h8.9v-9.7h3.8v9.7h8.9v3.7h-8.9v9.8h-3.8v-9.8H78V54.6z"/>
		</g>
	</g>
</g>
</svg>
