<?xml version="1.0" encoding="utf-8"?>
<!-- Generator: Adobe Illustrator 16.0.0, SVG Export Plug-In . SVG Version: 6.00 Build 0)  -->
<!DOCTYPE svg PUBLIC "-//W3C//DTD SVG 1.1//EN" "http://www.w3.org/Graphics/SVG/1.1/DTD/svg11.dtd">
<svg version="1.1" id="图层_1" xmlns="http://www.w3.org/2000/svg" xmlns:xlink="http://www.w3.org/1999/xlink" x="0px" y="0px"
	 width="128px" height="128px" viewBox="0 0 128 128" enable-background="new 0 0 128 128" xml:space="preserve">
<polygon opacity="0.08" enable-background="new    " points="18.31,128 18.31,4 113.689,4 113.689,92.995 78.686,128 "/>
<polygon display="none" opacity="0.08" enable-background="new    " points="22.31,126 22.31,6 113.689,6 113.689,92.167 
	79.857,126 "/>
<polygon opacity="0.1" enable-background="new    " points="20.31,126 20.31,6 111.689,6 111.689,92.167 77.857,126 "/>
<polygon opacity="0.2" enable-background="new    " points="18.31,124 18.31,4 109.689,4 109.689,90.167 75.857,124 "/>
<polygon fill="#1B5E20" points="20.298,122 20.298,6 107.702,6 107.702,89.339 75.033,122 "/>
<g>
	<g>
		<g>
			<g>
				
					<linearGradient id="SVGID_1_" gradientUnits="userSpaceOnUse" x1="165.2012" y1="-509.3008" x2="165.2012" y2="-494.3008" gradientTransform="matrix(1 0 0 -1 -83.2002 -454.8008)">
					<stop  offset="0" style="stop-color:#388E3C"/>
					<stop  offset="0.0757" style="stop-color:#43953E"/>
					<stop  offset="0.3246" style="stop-color:#62A943"/>
					<stop  offset="0.5665" style="stop-color:#79B747"/>
					<stop  offset="0.796" style="stop-color:#86C049"/>
					<stop  offset="1" style="stop-color:#8BC34A"/>
				</linearGradient>
				<polygon fill="url(#SVGID_1_)" points="76.381,54.5 76.381,39.5 87.619,39.5 87.619,50.281 83.4,54.5 				"/>
			</g>
			<polygon fill="#1B5E20" fill-opacity="0.39" points="87.619,50.281 87.619,50.1 83.169,50.1 83.169,54.5 83.4,54.5 			"/>
			<path fill="#FFFFFF" fill-opacity="0.3922" d="M83.395,50.281l4.226,0.006L83.4,54.5L83.395,50.281z"/>
		</g>
		<path opacity="0.8" fill="#FFFFFF" enable-background="new    " d="M82.278,42.813V42.8h-0.556v0.013h-3.585V49.8h7.725v-6.987
			H82.278z M78.693,44.887h1.725v1.116h-1.725V44.887z M78.693,46.56h1.725v1.115h-1.725V46.56z M80.992,46.56h4.314v1.115h-4.314
			V46.56z M80.992,46.003v-1.116h4.314v1.116H80.992z M85.307,43.374v0.959h-4.314v-0.959H85.307z M80.418,43.374v0.959h-1.725
			v-0.959H80.418z M78.693,48.236h1.725v1.003h-1.725V48.236z M80.992,49.239v-1.003h4.314v1.003H80.992z"/>
	</g>
	<g>
		<rect x="76.379" y="39.5" opacity="0.8" fill="#FFFFFF" enable-background="new    " width="11.244" height="2.875"/>
		<g enable-background="new    ">
			<path fill="#388E3C" d="M80.503,42.042c-0.066-0.125-0.14-0.251-0.218-0.379c-0.079-0.128-0.17-0.236-0.271-0.325
				c-0.032,0.034-0.072,0.08-0.121,0.139c-0.049,0.06-0.098,0.123-0.146,0.189c-0.049,0.067-0.094,0.136-0.137,0.208
				s-0.074,0.128-0.095,0.168h-0.605c0.099-0.175,0.216-0.355,0.352-0.542c0.135-0.186,0.286-0.384,0.452-0.593l-0.77-1.105h0.643
				l0.449,0.649l0.46-0.649h0.605l-0.765,1.082c0.2,0.239,0.365,0.458,0.495,0.657c0.13,0.199,0.231,0.367,0.308,0.502H80.503z"/>
			<path fill="#388E3C" d="M83.02,41.608v0.433h-1.574v-2.241h0.53v1.808H83.02z"/>
			<path fill="#388E3C" d="M84.061,41.657c0.076,0,0.137-0.006,0.186-0.018c0.049-0.012,0.088-0.028,0.117-0.049
				c0.031-0.021,0.051-0.044,0.063-0.073c0.012-0.028,0.018-0.059,0.018-0.094c0-0.073-0.037-0.134-0.109-0.183
				s-0.197-0.101-0.375-0.157c-0.076-0.026-0.154-0.056-0.23-0.089c-0.078-0.033-0.146-0.076-0.209-0.126
				c-0.061-0.051-0.111-0.112-0.148-0.185c-0.039-0.072-0.059-0.16-0.059-0.263c0-0.104,0.02-0.197,0.061-0.28
				s0.1-0.154,0.174-0.212c0.076-0.058,0.166-0.103,0.273-0.134c0.105-0.031,0.227-0.047,0.359-0.047
				c0.16,0,0.297,0.016,0.412,0.049c0.115,0.032,0.211,0.068,0.287,0.106l-0.154,0.398c-0.066-0.033-0.139-0.061-0.219-0.086
				c-0.082-0.025-0.178-0.037-0.291-0.037c-0.127,0-0.219,0.017-0.275,0.05c-0.055,0.033-0.082,0.084-0.082,0.153
				c0,0.041,0.01,0.076,0.029,0.104c0.021,0.028,0.051,0.053,0.088,0.076c0.037,0.022,0.08,0.043,0.129,0.061
				c0.049,0.019,0.104,0.038,0.162,0.057c0.123,0.043,0.229,0.086,0.32,0.128c0.09,0.042,0.166,0.091,0.227,0.147
				c0.059,0.056,0.104,0.122,0.133,0.197c0.029,0.076,0.045,0.167,0.045,0.275c0,0.209-0.076,0.371-0.23,0.486
				c-0.154,0.116-0.389,0.173-0.699,0.173c-0.104,0-0.197-0.006-0.281-0.018s-0.158-0.026-0.223-0.043
				c-0.066-0.017-0.121-0.036-0.168-0.055c-0.047-0.019-0.086-0.038-0.117-0.055l0.15-0.401c0.07,0.037,0.156,0.069,0.26,0.099
				C83.785,41.642,83.912,41.657,84.061,41.657z"/>
		</g>
	</g>
</g>
<g>
	<g>
		<g>
			<g>
				
					<linearGradient id="SVGID_2_" gradientUnits="userSpaceOnUse" x1="147.1934" y1="-575.8003" x2="147.1934" y2="-461.8008" gradientTransform="matrix(1 0 0 -1 -83.2002 -454.8008)">
					<stop  offset="0" style="stop-color:#388E3C"/>
					<stop  offset="0.0757" style="stop-color:#43953E"/>
					<stop  offset="0.3246" style="stop-color:#62A943"/>
					<stop  offset="0.5665" style="stop-color:#79B747"/>
					<stop  offset="0.796" style="stop-color:#86C049"/>
					<stop  offset="1" style="stop-color:#8BC34A"/>
				</linearGradient>
				<polygon fill="url(#SVGID_2_)" points="21.287,121 21.287,7 106.697,7 106.697,88.938 74.635,121 				"/>
			</g>
			<polygon fill="#1B5E20" fill-opacity="0.39" points="106.697,88.938 106.697,87.557 72.876,87.557 72.876,121 74.635,121 			"/>
			<path fill="#FFFFFF" fill-opacity="0.3922" d="M74.591,88.938l32.114,0.045L74.635,121L74.591,88.938z"/>
		</g>
		<path opacity="0.8" fill="#FFFFFF" enable-background="new    " d="M66.107,32.175v-0.096h-4.223v0.096H34.639v53.104h58.707
			V32.175H66.107z M38.862,47.943h13.106v8.483H38.862V47.943z M38.862,60.653h13.106v8.476H38.862V60.653z M56.333,60.653h32.79
			v8.476h-32.79V60.653z M56.333,56.426v-8.483h32.79v8.483H56.333z M89.123,36.439v7.292h-32.79v-7.292H89.123z M51.969,36.439
			v7.292H38.862v-7.292H51.969z M38.862,73.396h13.106v7.622H38.862V73.396z M56.333,81.019v-7.622h32.79v7.622H56.333z"/>
	</g>
	<g>
		<rect x="21.272" y="7" opacity="0.8" fill="#FFFFFF" enable-background="new    " width="85.455" height="21.85"/>
		<g enable-background="new    ">
			<path fill="#388E3C" d="M52.614,26.315c-0.505-0.95-1.062-1.907-1.655-2.883c-0.601-0.972-1.291-1.792-2.063-2.468
				c-0.245,0.256-0.55,0.608-0.921,1.058c-0.371,0.453-0.742,0.931-1.113,1.436c-0.371,0.508-0.712,1.032-1.039,1.577
				c-0.326,0.545-0.563,0.972-0.72,1.28h-4.602c0.75-1.329,1.641-2.702,2.672-4.119c1.024-1.414,2.175-2.917,3.437-4.509
				l-5.849-8.401h4.884l3.414,4.932l3.495-4.932h4.602l-5.811,8.22c1.521,1.814,2.775,3.48,3.763,4.991
				c0.987,1.514,1.759,2.787,2.338,3.818H52.614z"/>
			<path fill="#388E3C" d="M71.74,23.024v3.292H59.776V9.286h4.03v13.738H71.74z"/>
			<path fill="#388E3C" d="M79.652,23.391c0.579,0,1.039-0.044,1.41-0.133c0.371-0.093,0.668-0.215,0.891-0.371
				c0.237-0.156,0.386-0.338,0.475-0.553c0.09-0.211,0.134-0.449,0.134-0.712c0-0.557-0.282-1.021-0.831-1.388
				c-0.549-0.368-1.499-0.765-2.85-1.191c-0.579-0.197-1.173-0.423-1.752-0.675c-0.594-0.252-1.113-0.575-1.588-0.958
				c-0.461-0.386-0.847-0.854-1.129-1.403c-0.297-0.549-0.445-1.217-0.445-2c0-0.787,0.148-1.496,0.461-2.126
				c0.312-0.631,0.757-1.169,1.32-1.61c0.579-0.442,1.262-0.783,2.078-1.021c0.802-0.238,1.723-0.356,2.731-0.356
				c1.218,0,2.257,0.123,3.132,0.371c0.876,0.245,1.604,0.516,2.183,0.809l-1.173,3.024c-0.505-0.249-1.054-0.464-1.662-0.653
				c-0.624-0.189-1.352-0.282-2.212-0.282c-0.965,0-1.663,0.126-2.093,0.382c-0.416,0.252-0.624,0.642-0.624,1.166
				c0,0.312,0.074,0.575,0.223,0.787c0.163,0.211,0.386,0.404,0.668,0.579c0.282,0.17,0.608,0.326,0.979,0.464
				c0.371,0.141,0.787,0.286,1.232,0.43c0.936,0.331,1.736,0.653,2.435,0.972c0.683,0.319,1.262,0.69,1.722,1.117
				c0.445,0.427,0.787,0.928,1.01,1.499c0.223,0.575,0.341,1.27,0.341,2.089c0,1.588-0.579,2.82-1.751,3.696
				c-1.173,0.879-2.954,1.317-5.314,1.317c-0.787,0-1.499-0.048-2.138-0.137c-0.638-0.089-1.202-0.201-1.692-0.331
				c-0.504-0.13-0.92-0.271-1.276-0.419c-0.356-0.145-0.653-0.286-0.891-0.416l1.144-3.046c0.534,0.278,1.188,0.527,1.974,0.75
				C77.56,23.28,78.524,23.391,79.652,23.391z"/>
		</g>
	</g>
</g>
</svg>
