<?xml version="1.0" encoding="utf-8"?>
<!-- Generator: Adobe Illustrator 21.0.0, SVG Export Plug-In . SVG Version: 6.00 Build 0)  -->
<svg version="1.1" id="图层_1" xmlns="http://www.w3.org/2000/svg" xmlns:xlink="http://www.w3.org/1999/xlink" x="0px" y="0px"
	 viewBox="0 0 128 128" style="enable-background:new 0 0 128 128;" xml:space="preserve">
<style type="text/css">
	.st0{opacity:0.2;enable-background:new    ;}
	.st1{opacity:0.08;enable-background:new    ;}
	.st2{opacity:0.1;enable-background:new    ;}
	.st3{fill:#E65100;}
	.st4{fill:url(#SVGID_1_);}
	.st5{opacity:0.8;}
	.st6{fill:#FFFFFF;}
	.st7{opacity:0.8;fill:#FFFFFF;enable-background:new    ;}
	.st8{enable-background:new    ;}
	.st9{fill:#E64A19;}
</style>
<rect x="18.3" y="4" class="st0" width="91.4" height="120"/>
<rect x="18.3" y="4" class="st1" width="95.4" height="124"/>
<rect x="20.3" y="6" class="st2" width="91.4" height="120"/>
<rect x="20.3" y="6" class="st3" width="87.4" height="116"/>
<g>
	
		<linearGradient id="SVGID_1_" gradientUnits="userSpaceOnUse" x1="147.2002" y1="1607.8008" x2="147.2002" y2="1493.8008" gradientTransform="matrix(1 0 0 1 -83.2002 -1486.8008)">
		<stop  offset="0" style="stop-color:#EE6F0B"/>
		<stop  offset="1" style="stop-color:#FFB74D"/>
	</linearGradient>
	<rect x="21.3" y="7" class="st4" width="85.4" height="114"/>
	<g class="st5">
		<rect x="32.4" y="50.9" class="st6" width="9.1" height="45.7"/>
		<rect x="47.6" y="73.7" class="st6" width="9.1" height="22.8"/>
		<rect x="62.8" y="83" class="st6" width="9.1" height="13.7"/>
		<g>
			<path class="st6" d="M75.2,42.8L75.3,61l18.2-0.1c0.1,10.1-8.1,18.2-18.1,18.3C65.2,79.3,57.1,71.1,57,61.1
				C57,51,65.1,42.9,75.2,42.8z"/>
			<path class="st6" d="M77.3,40.7c10.1,0,18.2,8.1,18.3,18.1L77.4,59L77.3,40.7z"/>
		</g>
	</g>
	<g>
		<rect x="21.3" y="7" class="st7" width="85.5" height="21.9"/>
		<g class="st8">
			<path class="st9" d="M55,17.8c0,1.5-0.2,2.8-0.7,3.9s-1.2,2-2.1,2.7c-0.9,0.7-2,1.3-3.2,1.6c-1.3,0.4-2.7,0.5-4.3,0.5
				c-0.7,0-1.6,0-2.5-0.1c-1-0.1-1.9-0.2-2.8-0.4V9.5c0.9-0.2,1.9-0.3,2.9-0.3c1-0.1,1.9-0.1,2.6-0.1c1.5,0,2.9,0.2,4.2,0.5
				c1.2,0.3,2.3,0.8,3.2,1.5s1.6,1.6,2.1,2.7C54.8,14.9,55,16.2,55,17.8z M43.4,23.2c0.2,0,0.4,0,0.7,0s0.5,0,0.9,0
				c2,0,3.5-0.5,4.5-1.4c1-1,1.5-2.3,1.5-4c0-1.8-0.5-3.1-1.4-4.1c-0.9-0.9-2.4-1.4-4.4-1.4c-0.3,0-0.6,0-0.9,0
				c-0.3,0-0.6,0-0.8,0.1v10.8H43.4z"/>
			<path class="st9" d="M63.8,9.1c2.7,0,4.7,0.4,6.2,1.3c1.4,0.9,2.2,2.4,2.2,4.4s-0.7,3.5-2.2,4.4c-1.4,0.9-3.5,1.4-6.2,1.4h-1.3
				v5.7h-4V9.5c0.9-0.2,1.8-0.3,2.8-0.3C62.2,9.1,63,9.1,63.8,9.1z M64,12.4c-0.3,0-0.6,0-0.9,0c-0.3,0-0.5,0-0.7,0v4.9h1.3
				c1.4,0,2.4-0.2,3.2-0.5c0.7-0.4,1.1-1,1.1-2c0-0.5-0.1-0.9-0.3-1.2c-0.2-0.3-0.4-0.6-0.8-0.8c-0.3-0.2-0.8-0.3-1.2-0.4
				C65.1,12.4,64.6,12.4,64,12.4z"/>
			<path class="st9" d="M88.7,9.3v3.3h-5.4v13.8h-4V12.6h-5.4V9.3H88.7z"/>
		</g>
	</g>
</g>
</svg>
