<?xml version="1.0" encoding="utf-8"?>
<!-- Generator: Adobe Illustrator 21.0.0, SVG Export Plug-In . SVG Version: 6.00 Build 0)  -->
<svg version="1.1" id="图层_1" xmlns="http://www.w3.org/2000/svg" xmlns:xlink="http://www.w3.org/1999/xlink" x="0px" y="0px"
	 viewBox="0 0 128 128" style="enable-background:new 0 0 128 128;" xml:space="preserve">
<style type="text/css">
	.st0{opacity:0.08;enable-background:new    ;}
	.st1{display:none;opacity:0.08;enable-background:new    ;}
	.st2{opacity:0.1;enable-background:new    ;}
	.st3{opacity:0.2;enable-background:new    ;}
	.st4{fill:#1B5E20;}
	.st5{fill:url(#SVGID_1_);}
	.st6{fill:#1B5E20;fill-opacity:0.39;}
	.st7{fill:#FFFFFF;fill-opacity:0.3922;}
	.st8{opacity:0.8;fill:#FFFFFF;enable-background:new    ;}
	.st9{enable-background:new    ;}
	.st10{fill:#388E3C;}
	.st11{fill:url(#SVGID_2_);}
</style>
<polygon class="st0" points="18.3,128 18.3,4 113.7,4 113.7,93 78.7,128 "/>
<polygon class="st1" points="22.3,126 22.3,6 113.7,6 113.7,92.2 79.9,126 "/>
<polygon class="st2" points="20.3,126 20.3,6 111.7,6 111.7,92.2 77.9,126 "/>
<polygon class="st3" points="18.3,124 18.3,4 109.7,4 109.7,90.2 75.9,124 "/>
<polygon class="st4" points="20.3,122 20.3,6 107.7,6 107.7,89.3 75,122 "/>
<g>
	<g>
		<g>
			<g>
				
					<linearGradient id="SVGID_1_" gradientUnits="userSpaceOnUse" x1="165.2002" y1="-1147.3008" x2="165.2002" y2="-1132.3008" gradientTransform="matrix(1 0 0 -1 -83.2002 -1092.8008)">
					<stop  offset="0" style="stop-color:#388E3C"/>
					<stop  offset="0.0757" style="stop-color:#43953E"/>
					<stop  offset="0.3246" style="stop-color:#62A943"/>
					<stop  offset="0.5665" style="stop-color:#79B747"/>
					<stop  offset="0.796" style="stop-color:#86C049"/>
					<stop  offset="1" style="stop-color:#8BC34A"/>
				</linearGradient>
				<polygon class="st5" points="76.4,54.5 76.4,39.5 87.6,39.5 87.6,50.3 83.4,54.5 				"/>
			</g>
			<polygon class="st6" points="87.6,50.3 87.6,50.1 83.2,50.1 83.2,54.5 83.4,54.5 			"/>
			<path class="st7" d="M83.4,50.3h4.2l-4.2,4.2V50.3z"/>
		</g>
		<path class="st8" d="M82.3,42.8L82.3,42.8h-0.6l0,0h-3.6v7h7.7v-7H82.3z M78.7,44.9h1.7V46h-1.7V44.9z M78.7,46.6h1.7v1.1h-1.7
			V46.6z M81,46.6h4.3v1.1H81V46.6z M81,46v-1.1h4.3V46H81z M85.3,43.4v1H81v-1H85.3z M80.4,43.4v1h-1.7v-1H80.4z M78.7,48.2h1.7v1
			h-1.7V48.2z M81,49.2v-1h4.3v1H81z"/>
	</g>
	<g>
		<rect x="76.4" y="39.5" class="st8" width="11.2" height="2.9"/>
		<g class="st9">
			<path class="st10" d="M80.5,42c-0.1-0.1-0.1-0.3-0.2-0.4c-0.1-0.1-0.2-0.2-0.3-0.3l-0.1,0.1c0,0.1-0.1,0.1-0.1,0.2
				c0,0.1-0.1,0.1-0.1,0.2S79.5,42,79.5,42h-0.6c0.1-0.2,0.2-0.4,0.4-0.5c0.1-0.2,0.3-0.4,0.5-0.6L79,39.8h0.6l0.4,0.6l0.5-0.6h0.6
				l-0.8,1.1c0.2,0.2,0.4,0.5,0.5,0.7s0.2,0.4,0.3,0.5L80.5,42L80.5,42z"/>
			<path class="st10" d="M83,41.6V42h-1.6v-2.2H82v1.8H83z"/>
			<path class="st10" d="M84.1,41.7c0.1,0,0.1,0,0.2,0h0.1c0,0,0.1,0,0.1-0.1v-0.1c0-0.1,0-0.1-0.1-0.2s-0.2-0.1-0.4-0.2
				c-0.1,0-0.2-0.1-0.2-0.1c-0.1,0-0.1-0.1-0.2-0.1c-0.1-0.1-0.1-0.1-0.1-0.2c0-0.1-0.1-0.2-0.1-0.3s0-0.2,0.1-0.3s0.1-0.2,0.2-0.2
				c0.1-0.1,0.2-0.1,0.3-0.1c0.1,0,0.2,0,0.4,0c0.2,0,0.3,0,0.4,0s0.2,0.1,0.3,0.1l-0.2,0.4c-0.1,0-0.1-0.1-0.2-0.1s-0.2,0-0.3,0
				c-0.1,0-0.2,0-0.3,0c-0.1,0-0.1,0.1-0.1,0.2v0.1l0.1,0.1c0,0,0.1,0,0.1,0.1c0,0,0.1,0,0.2,0.1c0.1,0,0.2,0.1,0.3,0.1
				c0.1,0,0.2,0.1,0.2,0.1c0.1,0.1,0.1,0.1,0.1,0.2c0,0.1,0,0.2,0,0.3c0,0.2-0.1,0.4-0.2,0.5c-0.2,0.1-0.4,0.2-0.7,0.2
				c-0.1,0-0.2,0-0.3,0s-0.2,0-0.2,0c-0.1,0-0.1,0-0.2-0.1s-0.1,0-0.1-0.1l0.2-0.4c0.1,0,0.2,0.1,0.3,0.1
				C83.8,41.6,83.9,41.7,84.1,41.7z"/>
		</g>
	</g>
</g>
<g>
	<g>
		<g>
			<g>
				
					<linearGradient id="SVGID_2_" gradientUnits="userSpaceOnUse" x1="147.2002" y1="-1213.8008" x2="147.2002" y2="-1099.8008" gradientTransform="matrix(1 0 0 -1 -83.2002 -1092.8008)">
					<stop  offset="0" style="stop-color:#388E3C"/>
					<stop  offset="0.0757" style="stop-color:#43953E"/>
					<stop  offset="0.3246" style="stop-color:#62A943"/>
					<stop  offset="0.5665" style="stop-color:#79B747"/>
					<stop  offset="0.796" style="stop-color:#86C049"/>
					<stop  offset="1" style="stop-color:#8BC34A"/>
				</linearGradient>
				<polygon class="st11" points="21.3,121 21.3,7 106.7,7 106.7,88.9 74.6,121 				"/>
			</g>
			<polygon class="st6" points="106.7,88.9 106.7,87.6 72.9,87.6 72.9,121 74.6,121 			"/>
			<path class="st7" d="M74.6,88.9h32.1l-32.1,32V88.9z"/>
		</g>
		<path class="st8" d="M66.1,32.2L66.1,32.2l-4.2-0.1v0.1H34.6v53.1h58.7V32.2H66.1z M38.9,47.9H52v8.5H38.9V47.9z M38.9,60.7H52
			v8.5H38.9V60.7z M56.3,60.7h32.8v8.5H56.3V60.7z M56.3,56.4v-8.5h32.8v8.5H56.3z M89.1,36.4v7.3H56.3v-7.3H89.1z M52,36.4v7.3
			H38.9v-7.3H52z M38.9,73.4H52V81H38.9V73.4z M56.3,81v-7.6h32.8V81H56.3z"/>
	</g>
	<g>
		<rect x="21.3" y="7" class="st8" width="85.5" height="21.9"/>
		<g class="st9">
			<path class="st10" d="M52.6,26.3c-0.5-1-1.1-1.9-1.7-2.9c-0.6-1-1.3-1.8-2.1-2.5c-0.2,0.3-0.5,0.6-0.9,1.1s-0.7,0.9-1.1,1.4
				c-0.4,0.5-0.7,1-1,1.6c-0.3,0.5-0.6,1-0.7,1.3h-4.6c0.8-1.3,1.6-2.7,2.7-4.1c1-1.4,2.2-2.9,3.4-4.5l-5.8-8.4h4.9l3.4,4.9l3.5-4.9
				h4.6l-5.8,8.2c1.5,1.8,2.8,3.5,3.8,5s1.8,2.8,2.3,3.8C57.4,26.3,52.6,26.3,52.6,26.3z"/>
			<path class="st10" d="M71.7,23v3.3h-12v-17h4V23H71.7z"/>
			<path class="st10" d="M79.7,23.4c0.6,0,1,0,1.4-0.1s0.7-0.2,0.9-0.4c0.2-0.2,0.4-0.3,0.5-0.6c0.1-0.2,0.1-0.4,0.1-0.7
				c0-0.6-0.3-1-0.8-1.4S80.3,19.4,79,19c-0.6-0.2-1.2-0.4-1.8-0.7c-0.6-0.3-1.1-0.6-1.6-1s-0.8-0.9-1.1-1.4c-0.3-0.5-0.4-1.2-0.4-2
				s0.1-1.5,0.5-2.1c0.3-0.6,0.8-1.2,1.3-1.6c0.6-0.4,1.3-0.8,2.1-1c0.8-0.2,1.7-0.4,2.7-0.4c1.2,0,2.3,0.1,3.1,0.4
				c0.9,0.2,1.6,0.5,2.2,0.8l-1.2,3c-0.5-0.2-1.1-0.5-1.7-0.7S81.7,12,80.9,12c-1,0-1.7,0.1-2.1,0.4c-0.4,0.3-0.6,0.6-0.6,1.2
				c0,0.3,0.1,0.6,0.2,0.8c0.2,0.2,0.4,0.4,0.7,0.6c0.3,0.2,0.6,0.3,1,0.5c0.4,0.1,0.8,0.3,1.2,0.4c0.9,0.3,1.7,0.7,2.4,1
				c0.7,0.3,1.3,0.7,1.7,1.1c0.4,0.4,0.8,0.9,1,1.5s0.3,1.3,0.3,2.1c0,1.6-0.6,2.8-1.8,3.7c-1.2,0.9-3,1.3-5.3,1.3
				c-0.8,0-1.5,0-2.1-0.1s-1.2-0.2-1.7-0.3c-0.5-0.1-0.9-0.3-1.3-0.4s-0.7-0.3-0.9-0.4l1.1-3c0.5,0.3,1.2,0.5,2,0.8
				C77.6,23.3,78.5,23.4,79.7,23.4z"/>
		</g>
	</g>
</g>
</svg>
