<?xml version="1.0" encoding="utf-8"?>
<!-- Generator: Adobe Illustrator 16.0.0, SVG Export Plug-In . SVG Version: 6.00 Build 0)  -->
<!DOCTYPE svg PUBLIC "-//W3C//DTD SVG 1.1//EN" "http://www.w3.org/Graphics/SVG/1.1/DTD/svg11.dtd">
<svg version="1.1" id="图层_1" xmlns="http://www.w3.org/2000/svg" xmlns:xlink="http://www.w3.org/1999/xlink" x="0px" y="0px"
	 width="128px" height="128px" viewBox="0 0 128 128" enable-background="new 0 0 128 128" xml:space="preserve">
<polygon opacity="0.08" enable-background="new    " points="18.31,128 18.31,4 113.689,4 113.689,92.995 78.686,128 "/>
<polygon display="none" opacity="0.08" enable-background="new    " points="22.31,126 22.31,6 113.689,6 113.689,92.167 
	79.857,126 "/>
<polygon opacity="0.1" enable-background="new    " points="20.31,126 20.31,6 111.689,6 111.689,92.167 77.857,126 "/>
<polygon opacity="0.2" enable-background="new    " points="18.31,124 18.31,4 109.689,4 109.689,90.167 75.857,124 "/>
<polygon fill="#0D47A1" points="20.298,122 20.298,6 107.702,6 107.702,89.34 75.033,122 "/>
<g>
	<g>
		<g>
			<g>
				<linearGradient id="SVGID_1_" gradientUnits="userSpaceOnUse" x1="64.0405" y1="121" x2="64.0405" y2="7.0005">
					<stop  offset="0" style="stop-color:#3F51B5"/>
					<stop  offset="1" style="stop-color:#64B5F6"/>
				</linearGradient>
				<polygon fill="url(#SVGID_1_)" points="21.335,121 21.335,7 106.745,7 106.745,88.938 74.683,121 				"/>
			</g>
			<polygon fill="#2196F3" fill-opacity="0.7" points="106.745,88.938 106.745,87.56 72.922,87.56 72.922,121 74.683,121 			"/>
			<path opacity="0.39" fill="#FFFFFF" d="M74.635,88.938l32.115,0.042L74.683,121L74.635,88.938z"/>
		</g>
		<g opacity="0.8">
			<linearGradient id="SVGID_2_" gradientUnits="userSpaceOnUse" x1="33.9946" y1="45.8906" x2="94.0371" y2="45.8906">
				<stop  offset="0" style="stop-color:#F6F5F5"/>
				<stop  offset="0.341" style="stop-color:#F1F2F3"/>
				<stop  offset="0.6434" style="stop-color:#E7EAEB"/>
				<stop  offset="0.9302" style="stop-color:#D5DBDF"/>
				<stop  offset="1" style="stop-color:#CFD7DB"/>
			</linearGradient>
			<rect x="33.995" y="44.406" opacity="0.8" fill="url(#SVGID_2_)" enable-background="new    " width="60.042" height="2.969"/>
			<linearGradient id="SVGID_3_" gradientUnits="userSpaceOnUse" x1="33.9946" y1="36.6079" x2="94.0371" y2="36.6079">
				<stop  offset="0" style="stop-color:#F6F5F5"/>
				<stop  offset="0.341" style="stop-color:#F1F2F3"/>
				<stop  offset="0.6434" style="stop-color:#E7EAEB"/>
				<stop  offset="0.9302" style="stop-color:#D5DBDF"/>
				<stop  offset="1" style="stop-color:#CFD7DB"/>
			</linearGradient>
			<rect x="33.995" y="35.118" opacity="0.8" fill="url(#SVGID_3_)" enable-background="new    " width="60.042" height="2.979"/>
			<linearGradient id="SVGID_4_" gradientUnits="userSpaceOnUse" x1="62.6426" y1="68.8057" x2="93.9893" y2="68.8057">
				<stop  offset="0" style="stop-color:#F6F5F5"/>
				<stop  offset="0.341" style="stop-color:#F1F2F3"/>
				<stop  offset="0.6434" style="stop-color:#E7EAEB"/>
				<stop  offset="0.9302" style="stop-color:#D5DBDF"/>
				<stop  offset="1" style="stop-color:#CFD7DB"/>
			</linearGradient>
			<rect x="62.643" y="53.132" opacity="0.8" fill="url(#SVGID_4_)" enable-background="new    " width="31.347" height="31.346"/>
			<g opacity="0.8">
				<linearGradient id="SVGID_5_" gradientUnits="userSpaceOnUse" x1="33.9946" y1="55.1626" x2="60.0771" y2="55.1626">
					<stop  offset="0" style="stop-color:#F6F5F5"/>
					<stop  offset="0.341" style="stop-color:#F1F2F3"/>
					<stop  offset="0.6434" style="stop-color:#E7EAEB"/>
					<stop  offset="0.9302" style="stop-color:#D5DBDF"/>
					<stop  offset="1" style="stop-color:#CFD7DB"/>
				</linearGradient>
				<rect x="33.995" y="53.673" fill="url(#SVGID_5_)" width="26.083" height="2.979"/>
				<linearGradient id="SVGID_6_" gradientUnits="userSpaceOnUse" x1="33.9946" y1="64.4453" x2="60.0771" y2="64.4453">
					<stop  offset="0" style="stop-color:#F6F5F5"/>
					<stop  offset="0.341" style="stop-color:#F1F2F3"/>
					<stop  offset="0.6434" style="stop-color:#E7EAEB"/>
					<stop  offset="0.9302" style="stop-color:#D5DBDF"/>
					<stop  offset="1" style="stop-color:#CFD7DB"/>
				</linearGradient>
				<rect x="33.995" y="62.961" fill="url(#SVGID_6_)" width="26.083" height="2.969"/>
				<linearGradient id="SVGID_7_" gradientUnits="userSpaceOnUse" x1="33.9946" y1="73.7598" x2="60.0771" y2="73.7598">
					<stop  offset="0" style="stop-color:#F6F5F5"/>
					<stop  offset="0.341" style="stop-color:#F1F2F3"/>
					<stop  offset="0.6434" style="stop-color:#E7EAEB"/>
					<stop  offset="0.9302" style="stop-color:#D5DBDF"/>
					<stop  offset="1" style="stop-color:#CFD7DB"/>
				</linearGradient>
				<rect x="33.995" y="72.275" fill="url(#SVGID_7_)" width="26.083" height="2.969"/>
				<linearGradient id="SVGID_8_" gradientUnits="userSpaceOnUse" x1="33.9946" y1="83.0371" x2="60.0771" y2="83.0371">
					<stop  offset="0" style="stop-color:#F6F5F5"/>
					<stop  offset="0.341" style="stop-color:#F1F2F3"/>
					<stop  offset="0.6434" style="stop-color:#E7EAEB"/>
					<stop  offset="0.9302" style="stop-color:#D5DBDF"/>
					<stop  offset="1" style="stop-color:#CFD7DB"/>
				</linearGradient>
				<rect x="33.995" y="81.553" fill="url(#SVGID_8_)" width="26.083" height="2.969"/>
			</g>
		</g>
	</g>
	<g>
		<rect x="21.25" y="7" opacity="0.8" fill="#FFFFFF" width="85.458" height="21.852"/>
		<g>
			<path fill="#1976D2" d="M53.62,17.91c0,1.484-0.244,2.767-0.727,3.859c-0.482,1.103-1.172,2.015-2.057,2.73
				c-0.885,0.721-1.967,1.262-3.25,1.623c-1.272,0.36-2.704,0.546-4.294,0.546c-0.721,0-1.569-0.032-2.534-0.096
				c-0.965-0.053-1.908-0.169-2.841-0.35V9.635c0.933-0.165,1.903-0.276,2.91-0.334c1.013-0.053,1.872-0.085,2.598-0.085
				c1.538,0,2.932,0.159,4.183,0.493c1.251,0.323,2.322,0.843,3.213,1.548c0.9,0.705,1.59,1.606,2.072,2.698
				C53.376,15.058,53.62,16.373,53.62,17.91z M41.957,23.317c0.186,0.021,0.403,0.032,0.657,0.042
				c0.25,0.005,0.546,0.011,0.891,0.011c2.015,0,3.515-0.488,4.485-1.453c0.976-0.965,1.463-2.301,1.463-4.008
				c0-1.781-0.466-3.133-1.394-4.05c-0.933-0.912-2.407-1.378-4.427-1.378c-0.276,0-0.562,0.011-0.848,0.011
				c-0.297,0.016-0.573,0.032-0.827,0.063V23.317z"/>
			<path fill="#1976D2" d="M74.057,17.91c0,1.463-0.238,2.746-0.7,3.849c-0.445,1.108-1.065,2.036-1.865,2.778
				c-0.79,0.748-1.739,1.304-2.837,1.686c-1.092,0.371-2.274,0.562-3.525,0.562c-1.225,0-2.386-0.191-3.467-0.562
				c-1.087-0.382-2.03-0.938-2.847-1.686c-0.806-0.742-1.447-1.67-1.908-2.778c-0.467-1.103-0.7-2.386-0.7-3.849
				c0-1.453,0.244-2.735,0.721-3.838c0.488-1.108,1.135-2.036,1.951-2.793c0.816-0.748,1.771-1.32,2.853-1.691
				c1.076-0.382,2.199-0.567,3.397-0.567c1.225,0,2.381,0.186,3.468,0.567c1.081,0.371,2.03,0.944,2.847,1.691
				c0.8,0.758,1.441,1.686,1.913,2.793C73.818,15.175,74.057,16.458,74.057,17.91z M60.374,17.91c0,0.837,0.101,1.596,0.323,2.269
				c0.207,0.668,0.52,1.246,0.928,1.728c0.408,0.488,0.896,0.859,1.484,1.124c0.589,0.254,1.262,0.392,2.02,0.392
				c0.742,0,1.41-0.138,2.004-0.392c0.6-0.265,1.093-0.636,1.501-1.124c0.408-0.482,0.715-1.06,0.928-1.728
				c0.223-0.673,0.323-1.432,0.323-2.269c0-0.833-0.101-1.59-0.323-2.269c-0.213-0.679-0.52-1.262-0.928-1.739
				c-0.408-0.488-0.901-0.859-1.501-1.124c-0.594-0.26-1.262-0.392-2.004-0.392c-0.758,0-1.431,0.138-2.02,0.403
				c-0.589,0.275-1.076,0.646-1.484,1.134c-0.408,0.482-0.721,1.061-0.928,1.739C60.475,16.352,60.374,17.094,60.374,17.91z"/>
			<path fill="#1976D2" d="M85.582,26.785c-2.916,0-5.138-0.769-6.659-2.312c-1.526-1.538-2.29-3.722-2.29-6.563
				c0-1.399,0.239-2.661,0.694-3.764c0.473-1.108,1.108-2.046,1.92-2.804c0.806-0.758,1.771-1.341,2.899-1.733
				c1.118-0.393,2.333-0.589,3.642-0.589c0.759,0,1.447,0.059,2.073,0.159c0.615,0.106,1.166,0.228,1.628,0.371
				c0.466,0.138,0.854,0.281,1.16,0.43c0.313,0.148,0.536,0.26,0.679,0.339l-1.166,3.102c-0.557-0.281-1.192-0.514-1.93-0.716
				c-0.737-0.191-1.563-0.297-2.491-0.297c-0.626,0-1.235,0.106-1.829,0.297c-0.594,0.202-1.119,0.514-1.575,0.944
				c-0.455,0.435-0.821,0.997-1.097,1.686c-0.281,0.689-0.414,1.527-0.414,2.502c0,0.79,0.091,1.527,0.266,2.205
				c0.186,0.679,0.477,1.262,0.885,1.76c0.397,0.488,0.934,0.88,1.585,1.167c0.658,0.286,1.447,0.424,2.386,0.424
				c0.583,0,1.113-0.032,1.575-0.095c0.466-0.064,0.88-0.143,1.245-0.233c0.355-0.09,0.674-0.191,0.954-0.308
				c0.276-0.117,0.52-0.223,0.753-0.318l1.113,3.069c-0.572,0.329-1.373,0.62-2.412,0.885
				C88.143,26.652,86.949,26.785,85.582,26.785z"/>
		</g>
	</g>
</g>
</svg>
