<?xml version="1.0" encoding="utf-8"?>
<!-- Generator: Adobe Illustrator 16.0.0, SVG Export Plug-In . SVG Version: 6.00 Build 0)  -->
<!DOCTYPE svg PUBLIC "-//W3C//DTD SVG 1.1//EN" "http://www.w3.org/Graphics/SVG/1.1/DTD/svg11.dtd">
<svg version="1.1" id="图层_1" xmlns="http://www.w3.org/2000/svg" xmlns:xlink="http://www.w3.org/1999/xlink" x="0px" y="0px"
	 width="128px" height="128px" viewBox="0 0 128 128" enable-background="new 0 0 128 128" xml:space="preserve">
<rect x="18.298" y="4" opacity="0.2" enable-background="new    " width="91.404" height="120"/>
<rect x="18.298" y="4" opacity="0.08" enable-background="new    " width="95.404" height="124"/>
<rect x="20.298" y="6" opacity="0.1" enable-background="new    " width="91.404" height="120"/>
<rect x="20.298" y="6" fill="#1B5E20" width="87.404" height="116"/>
<g>
	
		<linearGradient id="SVGID_1_" gradientUnits="userSpaceOnUse" x1="147.2012" y1="945.8008" x2="147.2012" y2="831.8008" gradientTransform="matrix(1 0 0 1 -83.2002 -824.8008)">
		<stop  offset="0" style="stop-color:#388E3C"/>
		<stop  offset="0.0757" style="stop-color:#43953E"/>
		<stop  offset="0.3246" style="stop-color:#62A943"/>
		<stop  offset="0.5665" style="stop-color:#79B747"/>
		<stop  offset="0.796" style="stop-color:#86C049"/>
		<stop  offset="1" style="stop-color:#8BC34A"/>
	</linearGradient>
	<rect x="21.295" y="7" fill="url(#SVGID_1_)" width="85.413" height="114"/>
	<path opacity="0.8" fill="#FFFFFF" enable-background="new    " d="M66.185,43.208v-0.101h-4.369v0.101H33.6v55.007h60.798V43.208
		H66.185z M37.97,59.539h13.577v8.787H37.97V59.539z M37.97,72.705h13.577v8.789H37.97V72.705z M56.064,72.705h33.965v8.789H56.064
		V72.705z M56.064,68.326v-8.787h33.965v8.787H56.064z M90.029,47.624v7.552H56.064v-7.552H90.029z M51.547,47.624v7.552H37.97
		v-7.552H51.547z M37.97,85.91h13.577v7.889H37.97V85.91z M56.064,93.799V85.91h33.965v7.889H56.064z"/>
	<g>
		<rect x="21.271" y="7" opacity="0.8" fill="#FFFFFF" width="85.458" height="21.85"/>
		<g>
			<path fill="#388E3C" d="M42.015,26.315V9.285h12.108v3.224h-8.068v3.34h7.162v3.146h-7.162v4.104h8.667v3.218H42.015z"/>
			<path fill="#388E3C" d="M70.992,9.285v3.271H65.58v13.76h-4.029v-13.76h-5.413V9.285H70.992z"/>
			<path fill="#388E3C" d="M87.543,9.285v3.271h-5.401v13.76h-4.04v-13.76h-5.402V9.285H87.543z"/>
		</g>
	</g>
</g>
</svg>
