<?xml version="1.0" encoding="utf-8"?>
<!-- Generator: Adobe Illustrator 21.0.0, SVG Export Plug-In . SVG Version: 6.00 Build 0)  -->
<svg version="1.1" id="图层_1" xmlns="http://www.w3.org/2000/svg" xmlns:xlink="http://www.w3.org/1999/xlink" x="0px" y="0px"
	 viewBox="0 0 128 128" style="enable-background:new 0 0 128 128;" xml:space="preserve">
<style type="text/css">
	.st0{opacity:0.08;enable-background:new    ;}
	.st1{display:none;opacity:0.08;enable-background:new    ;}
	.st2{opacity:0.1;enable-background:new    ;}
	.st3{opacity:0.2;enable-background:new    ;}
	.st4{fill:#E65100;}
	.st5{fill:url(#SVGID_1_);}
	.st6{fill:#E65100;fill-opacity:0.3922;}
	.st7{fill:#FFFFFF;fill-opacity:0.3922;}
	.st8{opacity:0.8;}
	.st9{fill:#FFFFFF;}
	.st10{opacity:0.8;fill:#FFFFFF;enable-background:new    ;}
	.st11{enable-background:new    ;}
	.st12{fill:#E64A19;}
</style>
<polygon class="st0" points="18.3,128 18.3,4 113.7,4 113.7,93 78.7,128 "/>
<polygon class="st1" points="22.3,126 22.3,6 113.7,6 113.7,92.2 79.9,126 "/>
<polygon class="st2" points="20.3,126 20.3,6 111.7,6 111.7,92.2 77.9,126 "/>
<polygon class="st3" points="18.3,124 18.3,4 109.7,4 109.7,90.2 75.9,124 "/>
<polygon class="st4" points="20.3,122 20.3,6 107.7,6 107.7,89.3 75,122 "/>
<g>
	<g>
		<g>
			
				<linearGradient id="SVGID_1_" gradientUnits="userSpaceOnUse" x1="105.6001" y1="-794.9004" x2="105.6001" y2="-680.9004" gradientTransform="matrix(1 0 0 -1 -41.6001 -673.9004)">
				<stop  offset="0" style="stop-color:#EE6F0B"/>
				<stop  offset="1" style="stop-color:#FFB74D"/>
			</linearGradient>
			<polygon class="st5" points="21.3,121 21.3,7 106.7,7 106.7,88.9 74.6,121 			"/>
		</g>
		<polygon class="st6" points="106.7,88.9 106.7,87.6 72.9,87.6 72.9,121 74.6,121 		"/>
		<path class="st7" d="M74.6,88.9h32.1l-32.1,32V88.9z"/>
	</g>
	<g class="st8">
		<rect x="32.4" y="50.9" class="st9" width="9.1" height="45.7"/>
		<rect x="47.6" y="73.7" class="st9" width="9.1" height="22.8"/>
		<rect x="62.8" y="83" class="st9" width="9.1" height="13.7"/>
		<g>
			<path class="st9" d="M75.2,42.8L75.3,61l18.2-0.1c0.1,10.1-8.1,18.2-18.1,18.3c-10.2,0-18.3-8.1-18.4-18.1
				C57,51,65.1,42.9,75.2,42.8z"/>
			<path class="st9" d="M77.3,40.7c10.1,0,18.2,8.1,18.3,18.1L77.4,59L77.3,40.7z"/>
		</g>
	</g>
	<g>
		<rect x="21.3" y="7" class="st10" width="85.5" height="21.9"/>
		<g class="st11">
			<path class="st12" d="M45.9,9.1c2.7,0,4.7,0.4,6.2,1.3s2.1,2.4,2.1,4.4s-0.7,3.5-2.2,4.4c-1.4,0.9-3.5,1.4-6.2,1.4h-1.3v5.7h-4
				V9.5c0.9-0.2,1.8-0.3,2.8-0.3C44.3,9.1,45.2,9.1,45.9,9.1z M46.2,12.4c-0.3,0-0.6,0-0.9,0c-0.3,0-0.5,0-0.7,0v4.9h1.3
				c1.4,0,2.4-0.2,3.2-0.5s1.1-1,1.1-2c0-0.5-0.1-0.9-0.3-1.2s-0.4-0.6-0.8-0.8c-0.3-0.2-0.7-0.3-1.2-0.4S46.8,12.4,46.2,12.4z"/>
			<path class="st12" d="M62.6,9.1c2.7,0,4.7,0.4,6.2,1.3c1.4,0.9,2.2,2.4,2.2,4.4s-0.7,3.5-2.2,4.4c-1.4,0.9-3.5,1.4-6.2,1.4h-1.3
				v5.7h-4V9.5C58.1,9.4,59,9.3,60,9.2S61.8,9.1,62.6,9.1z M62.8,12.4c-0.3,0-0.6,0-0.9,0c-0.3,0-0.5,0-0.7,0v4.9h1.3
				c1.4,0,2.4-0.2,3.2-0.5c0.7-0.4,1.1-1,1.1-2c0-0.5-0.1-0.9-0.3-1.2c-0.2-0.3-0.4-0.6-0.8-0.8c-0.3-0.2-0.8-0.3-1.2-0.4
				C63.9,12.4,63.4,12.4,62.8,12.4z"/>
			<path class="st12" d="M87.5,9.3v3.3h-5.4v13.8h-4V12.6h-5.4V9.3H87.5z"/>
		</g>
	</g>
</g>
</svg>
