<?xml version="1.0" encoding="utf-8"?>
<!-- Generator: Adobe Illustrator 16.0.0, SVG Export Plug-In . SVG Version: 6.00 Build 0)  -->
<!DOCTYPE svg PUBLIC "-//W3C//DTD SVG 1.1//EN" "http://www.w3.org/Graphics/SVG/1.1/DTD/svg11.dtd">
<svg version="1.1" id="图层_1" xmlns="http://www.w3.org/2000/svg" xmlns:xlink="http://www.w3.org/1999/xlink" x="0px" y="0px"
	 width="128px" height="128px" viewBox="0 0 128 128" enable-background="new 0 0 128 128" xml:space="preserve">
<polygon opacity="0.08" enable-background="new    " points="18.31,128 18.31,4 113.689,4 113.689,92.995 78.686,128 "/>
<polygon display="none" opacity="0.08" enable-background="new    " points="22.31,126 22.31,6 113.689,6 113.689,92.167 
	79.857,126 "/>
<polygon opacity="0.1" enable-background="new    " points="20.31,126 20.31,6 111.689,6 111.689,92.167 77.857,126 "/>
<polygon opacity="0.2" enable-background="new    " points="18.31,124 18.31,4 109.689,4 109.689,90.167 75.857,124 "/>
<polygon fill="#0D47A1" points="20.298,122 20.298,6 107.702,6 107.702,89.34 75.033,122 "/>
<g>
	<g>
		<g>
			<g>
				<linearGradient id="SVGID_1_" gradientUnits="userSpaceOnUse" x1="64.0371" y1="121" x2="64.0371" y2="7.0005">
					<stop  offset="0" style="stop-color:#3F51B5"/>
					<stop  offset="1" style="stop-color:#64B5F6"/>
				</linearGradient>
				<polygon fill="url(#SVGID_1_)" points="21.332,121 21.332,7 106.742,7 106.742,88.938 74.68,121 				"/>
			</g>
			<polygon fill="#2196F3" fill-opacity="0.7" points="106.742,88.938 106.742,87.557 72.921,87.557 72.921,121 74.68,121 			"/>
			<path opacity="0.39" fill="#FFFFFF" d="M74.636,88.938l32.114,0.045L74.68,121L74.636,88.938z"/>
		</g>
		<g opacity="0.8">
			<linearGradient id="SVGID_2_" gradientUnits="userSpaceOnUse" x1="33.9932" y1="45.8906" x2="94.0361" y2="45.8906">
				<stop  offset="0" style="stop-color:#F6F5F5"/>
				<stop  offset="0.341" style="stop-color:#F1F2F3"/>
				<stop  offset="0.6434" style="stop-color:#E7EAEB"/>
				<stop  offset="0.9302" style="stop-color:#D5DBDF"/>
				<stop  offset="1" style="stop-color:#CFD7DB"/>
			</linearGradient>
			<rect x="33.993" y="44.406" opacity="0.8" fill="url(#SVGID_2_)" enable-background="new    " width="60.043" height="2.969"/>
			<linearGradient id="SVGID_3_" gradientUnits="userSpaceOnUse" x1="33.9932" y1="36.6094" x2="94.0361" y2="36.6094">
				<stop  offset="0" style="stop-color:#F6F5F5"/>
				<stop  offset="0.341" style="stop-color:#F1F2F3"/>
				<stop  offset="0.6434" style="stop-color:#E7EAEB"/>
				<stop  offset="0.9302" style="stop-color:#D5DBDF"/>
				<stop  offset="1" style="stop-color:#CFD7DB"/>
			</linearGradient>
			<rect x="33.993" y="35.122" opacity="0.8" fill="url(#SVGID_3_)" enable-background="new    " width="60.043" height="2.976"/>
			<linearGradient id="SVGID_4_" gradientUnits="userSpaceOnUse" x1="62.6416" y1="68.8057" x2="93.9922" y2="68.8057">
				<stop  offset="0" style="stop-color:#F6F5F5"/>
				<stop  offset="0.341" style="stop-color:#F1F2F3"/>
				<stop  offset="0.6434" style="stop-color:#E7EAEB"/>
				<stop  offset="0.9302" style="stop-color:#D5DBDF"/>
				<stop  offset="1" style="stop-color:#CFD7DB"/>
			</linearGradient>
			<rect x="62.642" y="53.134" opacity="0.8" fill="url(#SVGID_4_)" enable-background="new    " width="31.351" height="31.342"/>
			<g opacity="0.8">
				<linearGradient id="SVGID_5_" gradientUnits="userSpaceOnUse" x1="33.9932" y1="55.1641" x2="60.0742" y2="55.1641">
					<stop  offset="0" style="stop-color:#F6F5F5"/>
					<stop  offset="0.341" style="stop-color:#F1F2F3"/>
					<stop  offset="0.6434" style="stop-color:#E7EAEB"/>
					<stop  offset="0.9302" style="stop-color:#D5DBDF"/>
					<stop  offset="1" style="stop-color:#CFD7DB"/>
				</linearGradient>
				<rect x="33.993" y="53.676" fill="url(#SVGID_5_)" width="26.081" height="2.976"/>
				<linearGradient id="SVGID_6_" gradientUnits="userSpaceOnUse" x1="33.9932" y1="64.4453" x2="60.0742" y2="64.4453">
					<stop  offset="0" style="stop-color:#F6F5F5"/>
					<stop  offset="0.341" style="stop-color:#F1F2F3"/>
					<stop  offset="0.6434" style="stop-color:#E7EAEB"/>
					<stop  offset="0.9302" style="stop-color:#D5DBDF"/>
					<stop  offset="1" style="stop-color:#CFD7DB"/>
				</linearGradient>
				<rect x="33.993" y="62.961" fill="url(#SVGID_6_)" width="26.081" height="2.969"/>
				<linearGradient id="SVGID_7_" gradientUnits="userSpaceOnUse" x1="33.9932" y1="73.7598" x2="60.0742" y2="73.7598">
					<stop  offset="0" style="stop-color:#F6F5F5"/>
					<stop  offset="0.341" style="stop-color:#F1F2F3"/>
					<stop  offset="0.6434" style="stop-color:#E7EAEB"/>
					<stop  offset="0.9302" style="stop-color:#D5DBDF"/>
					<stop  offset="1" style="stop-color:#CFD7DB"/>
				</linearGradient>
				<rect x="33.993" y="72.275" fill="url(#SVGID_7_)" width="26.081" height="2.969"/>
				<linearGradient id="SVGID_8_" gradientUnits="userSpaceOnUse" x1="33.9932" y1="83.0371" x2="60.0742" y2="83.0371">
					<stop  offset="0" style="stop-color:#F6F5F5"/>
					<stop  offset="0.341" style="stop-color:#F1F2F3"/>
					<stop  offset="0.6434" style="stop-color:#E7EAEB"/>
					<stop  offset="0.9302" style="stop-color:#D5DBDF"/>
					<stop  offset="1" style="stop-color:#CFD7DB"/>
				</linearGradient>
				<rect x="33.993" y="81.553" fill="url(#SVGID_8_)" width="26.081" height="2.969"/>
			</g>
		</g>
	</g>
	<g>
		<rect x="21.25" y="7" opacity="0.8" fill="#FFFFFF" width="85.455" height="21.85"/>
	</g>
	<g>
		<path fill="#1976D2" d="M49.973,11.23c0.208,0.668,0.438,1.425,0.69,2.271c0.245,0.846,0.512,1.722,0.802,2.62
			c0.281,0.898,0.563,1.803,0.86,2.702c0.29,0.898,0.579,1.736,0.847,2.508c0.229-0.838,0.46-1.744,0.697-2.724
			c0.23-0.987,0.445-2.004,0.653-3.05c0.208-1.047,0.415-2.093,0.616-3.14c0.2-1.039,0.386-2.034,0.557-3.006h4.193
			c-0.609,2.85-1.307,5.745-2.101,8.676c-0.787,2.932-1.633,5.715-2.554,8.357h-3.695c-0.602-1.573-1.188-3.221-1.752-4.958
			c-0.571-1.722-1.128-3.458-1.677-5.195c-0.557,1.737-1.113,3.474-1.663,5.195c-0.549,1.737-1.128,3.385-1.737,4.958h-3.681
			c-0.92-2.642-1.774-5.425-2.561-8.357c-0.794-2.932-1.484-5.826-2.093-8.676h4.371c0.178,0.972,0.364,1.967,0.572,3.006
			c0.208,1.046,0.423,2.093,0.646,3.14c0.23,1.046,0.46,2.063,0.698,3.05c0.23,0.979,0.468,1.885,0.712,2.724
			c0.312-0.809,0.609-1.655,0.906-2.561c0.297-0.898,0.579-1.796,0.861-2.702c0.267-0.898,0.527-1.766,0.757-2.598
			c0.238-0.838,0.445-1.588,0.638-2.241H49.973z"/>
		<path fill="#1976D2" d="M67.822,9.212c2.687,0,4.735,0.453,6.16,1.343c1.439,0.898,2.152,2.353,2.152,4.386
			c0,2.048-0.728,3.525-2.167,4.438c-1.455,0.905-3.519,1.365-6.22,1.365h-1.262v5.7h-4.037V9.657
			c0.875-0.164,1.811-0.282,2.79-0.342C66.219,9.249,67.08,9.212,67.822,9.212z M68.09,12.485c-0.297,0-0.579,0.007-0.861,0.022
			c-0.297,0.015-0.534,0.03-0.742,0.052v4.913h1.262c1.396,0,2.449-0.178,3.162-0.542c0.712-0.356,1.054-1.032,1.054-2.019
			c0-0.467-0.089-0.861-0.268-1.172c-0.178-0.312-0.445-0.564-0.771-0.75c-0.342-0.186-0.742-0.319-1.232-0.393
			C69.203,12.522,68.668,12.485,68.09,12.485z"/>
		<path fill="#1976D2" d="M83.987,23.521c0.579,0,1.039-0.044,1.41-0.133c0.371-0.097,0.668-0.223,0.905-0.371
			c0.223-0.164,0.371-0.342,0.46-0.557c0.089-0.215,0.134-0.453,0.134-0.713c0-0.557-0.282-1.017-0.831-1.388
			c-0.55-0.371-1.499-0.765-2.851-1.188c-0.578-0.2-1.172-0.431-1.751-0.683c-0.594-0.252-1.113-0.572-1.589-0.95
			c-0.46-0.386-0.846-0.861-1.128-1.41c-0.297-0.549-0.445-1.217-0.445-1.997c0-0.787,0.163-1.492,0.46-2.13
			c0.313-0.624,0.758-1.166,1.321-1.603c0.579-0.445,1.262-0.787,2.078-1.024c0.802-0.237,1.722-0.356,2.731-0.356
			c1.217,0,2.256,0.119,3.132,0.371c0.891,0.245,1.604,0.52,2.183,0.809l-1.173,3.021c-0.49-0.245-1.054-0.46-1.663-0.653
			c-0.608-0.186-1.351-0.282-2.211-0.282c-0.965,0-1.663,0.134-2.078,0.386c-0.431,0.252-0.639,0.638-0.639,1.165
			c0,0.312,0.074,0.572,0.237,0.787c0.148,0.215,0.371,0.408,0.653,0.579s0.608,0.327,0.979,0.468
			c0.371,0.133,0.787,0.282,1.232,0.43c0.935,0.327,1.736,0.653,2.435,0.965c0.683,0.327,1.262,0.698,1.722,1.121
			c0.445,0.423,0.786,0.928,1.024,1.5c0.223,0.571,0.326,1.269,0.326,2.085c0,1.588-0.579,2.82-1.752,3.696
			c-1.172,0.883-2.938,1.321-5.313,1.321c-0.787,0-1.499-0.044-2.138-0.133c-0.639-0.089-1.202-0.208-1.692-0.334
			c-0.489-0.126-0.92-0.275-1.276-0.423c-0.342-0.141-0.653-0.282-0.891-0.416l1.143-3.043c0.535,0.282,1.188,0.527,1.975,0.75
			C81.895,23.402,82.859,23.521,83.987,23.521z"/>
	</g>
</g>
</svg>
