<?xml version="1.0" encoding="utf-8"?>
<!-- Generator: Adobe Illustrator 16.0.0, SVG Export Plug-In . SVG Version: 6.00 Build 0)  -->
<!DOCTYPE svg PUBLIC "-//W3C//DTD SVG 1.1//EN" "http://www.w3.org/Graphics/SVG/1.1/DTD/svg11.dtd">
<svg version="1.1" id="图层_1" xmlns="http://www.w3.org/2000/svg" xmlns:xlink="http://www.w3.org/1999/xlink" x="0px" y="0px"
	 width="128px" height="128px" viewBox="0 0 128 128" enable-background="new 0 0 128 128" xml:space="preserve">
<rect x="18.298" y="4" opacity="0.2" enable-background="new    " width="91.404" height="120"/>
<rect x="18.298" y="4" opacity="0.08" enable-background="new    " width="95.404" height="124"/>
<rect x="20.298" y="6" opacity="0.1" enable-background="new    " width="91.404" height="120"/>
<rect x="20.298" y="6" fill="#0D47A1" width="87.404" height="116"/>
<g>
	<linearGradient id="SVGID_1_" gradientUnits="userSpaceOnUse" x1="64.0034" y1="7" x2="64.0034" y2="121.0005">
		<stop  offset="0" style="stop-color:#64B5F6"/>
		<stop  offset="1" style="stop-color:#3F51B5"/>
	</linearGradient>
	<rect x="21.298" y="7" fill="url(#SVGID_1_)" width="85.411" height="114"/>
	<g opacity="0.8">
		<rect x="32.32" y="52.088" opacity="0.8" fill="#FFFFFF" enable-background="new    " width="63.323" height="3.125"/>
		<rect x="32.32" y="42.298" opacity="0.8" fill="#FFFFFF" enable-background="new    " width="63.323" height="3.14"/>
		<rect x="62.534" y="61.298" opacity="0.8" fill="#FFFFFF" enable-background="new    " width="33.064" height="33.072"/>
		<g opacity="0.8">
			<rect x="32.32" y="61.862" fill="#FFFFFF" width="27.505" height="3.147"/>
			<rect x="32.32" y="71.659" fill="#FFFFFF" width="27.505" height="3.132"/>
			<rect x="32.32" y="81.486" fill="#FFFFFF" width="27.505" height="3.132"/>
			<rect x="32.32" y="91.268" fill="#FFFFFF" width="27.505" height="3.133"/>
		</g>
	</g>
	<g>
		<rect x="21.276" y="7" opacity="0.8" fill="#FFFFFF" enable-background="new    " width="85.449" height="21.85"/>
		<g enable-background="new    ">
			<path fill="#236FB7" d="M53.606,17.91c0,1.484-0.245,2.761-0.728,3.859s-1.173,2.011-2.056,2.731
				c-0.883,0.72-1.967,1.262-3.243,1.618c-1.276,0.364-2.709,0.549-4.297,0.549c-0.72,0-1.566-0.03-2.531-0.089
				c-0.965-0.06-1.915-0.178-2.85-0.356V9.635c0.935-0.163,1.9-0.274,2.91-0.334c1.009-0.06,1.877-0.089,2.598-0.089
				c1.543,0,2.932,0.163,4.186,0.497c1.247,0.327,2.316,0.839,3.221,1.551c0.891,0.698,1.581,1.603,2.063,2.702
				C53.361,15.06,53.606,16.374,53.606,17.91z M41.938,23.321c0.193,0.022,0.408,0.03,0.661,0.037
				c0.245,0.007,0.542,0.015,0.891,0.015c2.019,0,3.51-0.49,4.49-1.455c0.972-0.965,1.455-2.301,1.455-4.008
				c0-1.781-0.46-3.132-1.396-4.052c-0.928-0.913-2.404-1.373-4.423-1.373c-0.267,0-0.557,0.007-0.846,0.007
				c-0.297,0.015-0.571,0.03-0.831,0.067V23.321z"/>
			<path fill="#236FB7" d="M74.037,17.91c0,1.462-0.229,2.746-0.689,3.852c-0.453,1.106-1.084,2.026-1.871,2.776
				c-0.793,0.75-1.736,1.306-2.834,1.685c-1.1,0.371-2.271,0.564-3.533,0.564c-1.217,0-2.375-0.193-3.458-0.564
				c-1.091-0.378-2.033-0.935-2.85-1.685c-0.81-0.75-1.447-1.67-1.915-2.776c-0.46-1.106-0.698-2.39-0.698-3.852
				c0-1.455,0.245-2.731,0.728-3.845c0.482-1.098,1.128-2.033,1.952-2.791c0.824-0.75,1.767-1.313,2.843-1.692
				c1.083-0.371,2.212-0.564,3.399-0.564c1.232,0,2.383,0.193,3.473,0.564c1.084,0.378,2.035,0.942,2.844,1.692
				c0.809,0.757,1.447,1.692,1.914,2.791C73.809,15.179,74.037,16.456,74.037,17.91z M60.36,17.91c0,0.839,0.104,1.596,0.318,2.264
				c0.216,0.675,0.527,1.254,0.928,1.729c0.408,0.49,0.906,0.861,1.484,1.128c0.594,0.252,1.262,0.386,2.019,0.386
				c0.742,0,1.41-0.133,2.004-0.386c0.602-0.267,1.098-0.638,1.506-1.128c0.408-0.475,0.713-1.054,0.928-1.729
				c0.217-0.668,0.328-1.425,0.328-2.264c0-0.831-0.111-1.588-0.328-2.271c-0.215-0.675-0.52-1.262-0.928-1.737
				c-0.408-0.49-0.904-0.861-1.506-1.128c-0.594-0.252-1.262-0.386-2.004-0.386c-0.757,0-1.425,0.134-2.019,0.401
				c-0.578,0.274-1.076,0.653-1.484,1.128c-0.4,0.49-0.712,1.069-0.928,1.752C60.463,16.352,60.36,17.094,60.36,17.91z"/>
			<path fill="#236FB7" d="M90.1,9.412v3.273h-5.412v13.76h-4.029v-13.76h-5.41V9.412H90.1z"/>
		</g>
	</g>
</g>
</svg>
