<?xml version="1.0" encoding="utf-8"?>
<!-- Generator: Adobe Illustrator 21.0.0, SVG Export Plug-In . SVG Version: 6.00 Build 0)  -->
<svg version="1.1" id="图层_1" xmlns="http://www.w3.org/2000/svg" xmlns:xlink="http://www.w3.org/1999/xlink" x="0px" y="0px"
	 viewBox="0 0 128 128" style="enable-background:new 0 0 128 128;" xml:space="preserve">
<style type="text/css">
	.st0{opacity:0.2;enable-background:new    ;}
	.st1{opacity:0.08;enable-background:new    ;}
	.st2{opacity:0.1;enable-background:new    ;}
	.st3{fill:#1B5E20;}
	.st4{fill:url(#SVGID_1_);}
	.st5{opacity:0.8;fill:#FFFFFF;enable-background:new    ;}
	.st6{fill:#388E3C;}
</style>
<rect x="18.3" y="4" class="st0" width="91.4" height="120"/>
<rect x="18.3" y="4" class="st1" width="95.4" height="124"/>
<rect x="20.3" y="6" class="st2" width="91.4" height="120"/>
<rect x="20.3" y="6" class="st3" width="87.4" height="116"/>
<g>
	
		<linearGradient id="SVGID_1_" gradientUnits="userSpaceOnUse" x1="147.2002" y1="1607.8008" x2="147.2002" y2="1493.8008" gradientTransform="matrix(1 0 0 1 -83.2002 -1486.8008)">
		<stop  offset="0" style="stop-color:#388E3C"/>
		<stop  offset="0.0757" style="stop-color:#43953E"/>
		<stop  offset="0.3246" style="stop-color:#62A943"/>
		<stop  offset="0.5665" style="stop-color:#79B747"/>
		<stop  offset="0.796" style="stop-color:#86C049"/>
		<stop  offset="1" style="stop-color:#8BC34A"/>
	</linearGradient>
	<rect x="21.3" y="7" class="st4" width="85.4" height="114"/>
	<path class="st5" d="M66.2,43.2v-0.1h-4.4v0.1H33.6v55h60.8v-55C94.4,43.2,66.2,43.2,66.2,43.2z M38,59.5h13.6v8.8H38V59.5z
		 M38,72.7h13.6v8.8H38V72.7z M56.1,72.7h34v8.8h-34V72.7z M56.1,68.3v-8.8h34v8.8H56.1z M90,47.6v7.6H56v-7.6H90z M51.5,47.6v7.6
		H38v-7.6H51.5z M38,85.9h13.6v7.9H38V85.9z M56.1,93.8v-7.9h34v7.9H56.1z"/>
	<g>
		<rect x="21.3" y="7" class="st5" width="85.5" height="21.9"/>
		<g>
			<path class="st6" d="M42,26.3v-17h12.1v3.2H46v3.3h7.2V19H46v4.1h8.7v3.2L42,26.3L42,26.3z"/>
			<path class="st6" d="M71,9.3v3.3h-5.4v13.8h-4V12.6h-5.4V9.3H71z"/>
			<path class="st6" d="M87.5,9.3v3.3h-5.4v13.8h-4V12.6h-5.4V9.3H87.5z"/>
		</g>
	</g>
</g>
</svg>
