<?xml version="1.0" encoding="utf-8"?>
<!-- Generator: Adobe Illustrator 21.0.0, SVG Export Plug-In . SVG Version: 6.00 Build 0)  -->
<svg version="1.1" id="图层_1" xmlns="http://www.w3.org/2000/svg" xmlns:xlink="http://www.w3.org/1999/xlink" x="0px" y="0px"
	 viewBox="0 0 128 128" style="enable-background:new 0 0 128 128;" xml:space="preserve">
<style type="text/css">
	.st0{opacity:0.08;enable-background:new    ;}
	.st1{display:none;opacity:0.08;enable-background:new    ;}
	.st2{opacity:0.1;enable-background:new    ;}
	.st3{opacity:0.2;enable-background:new    ;}
	.st4{fill:#0D47A1;}
	.st5{fill:url(#SVGID_1_);}
	.st6{fill:#2196F3;fill-opacity:0.7;}
	.st7{opacity:0.39;fill:#FFFFFF;enable-background:new    ;}
	.st8{opacity:0.8;}
	.st9{opacity:0.8;fill:url(#SVGID_2_);enable-background:new    ;}
	.st10{opacity:0.8;fill:url(#SVGID_3_);enable-background:new    ;}
	.st11{opacity:0.8;fill:url(#SVGID_4_);enable-background:new    ;}
	.st12{fill:url(#SVGID_5_);}
	.st13{fill:url(#SVGID_6_);}
	.st14{fill:url(#SVGID_7_);}
	.st15{fill:url(#SVGID_8_);}
	.st16{opacity:0.8;fill:#FFFFFF;enable-background:new    ;}
	.st17{fill:#1976D2;}
</style>
<polygon class="st0" points="18.3,128 18.3,4 113.7,4 113.7,93 78.7,128 "/>
<polygon class="st1" points="22.3,126 22.3,6 113.7,6 113.7,92.2 79.9,126 "/>
<polygon class="st2" points="20.3,126 20.3,6 111.7,6 111.7,92.2 77.9,126 "/>
<polygon class="st3" points="18.3,124 18.3,4 109.7,4 109.7,90.2 75.9,124 "/>
<polygon class="st4" points="20.3,122 20.3,6 107.7,6 107.7,89.3 75,122 "/>
<g>
	<g>
		<g>
			<g>
				
					<linearGradient id="SVGID_1_" gradientUnits="userSpaceOnUse" x1="64" y1="783" x2="64" y2="669" gradientTransform="matrix(1 0 0 1 0 -662)">
					<stop  offset="0" style="stop-color:#3F51B5"/>
					<stop  offset="1" style="stop-color:#64B5F6"/>
				</linearGradient>
				<polygon class="st5" points="21.3,121 21.3,7 106.7,7 106.7,88.9 74.7,121 				"/>
			</g>
			<polygon class="st6" points="106.7,88.9 106.7,87.6 72.9,87.6 72.9,121 74.7,121 			"/>
			<path class="st7" d="M74.6,88.9h32.1l-32.1,32V88.9z"/>
		</g>
		<g class="st8">
			
				<linearGradient id="SVGID_2_" gradientUnits="userSpaceOnUse" x1="34" y1="707.9" x2="94" y2="707.9" gradientTransform="matrix(1 0 0 1 0 -662)">
				<stop  offset="0" style="stop-color:#F6F5F5"/>
				<stop  offset="0.341" style="stop-color:#F1F2F3"/>
				<stop  offset="0.6434" style="stop-color:#E7EAEB"/>
				<stop  offset="0.9302" style="stop-color:#D5DBDF"/>
				<stop  offset="1" style="stop-color:#CFD7DB"/>
			</linearGradient>
			<rect x="34" y="44.4" class="st9" width="60" height="3"/>
			
				<linearGradient id="SVGID_3_" gradientUnits="userSpaceOnUse" x1="34" y1="698.6" x2="94" y2="698.6" gradientTransform="matrix(1 0 0 1 0 -662)">
				<stop  offset="0" style="stop-color:#F6F5F5"/>
				<stop  offset="0.341" style="stop-color:#F1F2F3"/>
				<stop  offset="0.6434" style="stop-color:#E7EAEB"/>
				<stop  offset="0.9302" style="stop-color:#D5DBDF"/>
				<stop  offset="1" style="stop-color:#CFD7DB"/>
			</linearGradient>
			<rect x="34" y="35.1" class="st10" width="60" height="3"/>
			
				<linearGradient id="SVGID_4_" gradientUnits="userSpaceOnUse" x1="62.642" y1="730.75" x2="93.993" y2="730.75" gradientTransform="matrix(1 0 0 1 0 -662)">
				<stop  offset="0" style="stop-color:#F6F5F5"/>
				<stop  offset="0.341" style="stop-color:#F1F2F3"/>
				<stop  offset="0.6434" style="stop-color:#E7EAEB"/>
				<stop  offset="0.9302" style="stop-color:#D5DBDF"/>
				<stop  offset="1" style="stop-color:#CFD7DB"/>
			</linearGradient>
			<rect x="62.6" y="53.1" class="st11" width="31.4" height="31.3"/>
			<g class="st8">
				
					<linearGradient id="SVGID_5_" gradientUnits="userSpaceOnUse" x1="34" y1="717.2" x2="60.1" y2="717.2" gradientTransform="matrix(1 0 0 1 0 -662)">
					<stop  offset="0" style="stop-color:#F6F5F5"/>
					<stop  offset="0.341" style="stop-color:#F1F2F3"/>
					<stop  offset="0.6434" style="stop-color:#E7EAEB"/>
					<stop  offset="0.9302" style="stop-color:#D5DBDF"/>
					<stop  offset="1" style="stop-color:#CFD7DB"/>
				</linearGradient>
				<rect x="34" y="53.7" class="st12" width="26.1" height="3"/>
				
					<linearGradient id="SVGID_6_" gradientUnits="userSpaceOnUse" x1="34" y1="726.5" x2="60.1" y2="726.5" gradientTransform="matrix(1 0 0 1 0 -662)">
					<stop  offset="0" style="stop-color:#F6F5F5"/>
					<stop  offset="0.341" style="stop-color:#F1F2F3"/>
					<stop  offset="0.6434" style="stop-color:#E7EAEB"/>
					<stop  offset="0.9302" style="stop-color:#D5DBDF"/>
					<stop  offset="1" style="stop-color:#CFD7DB"/>
				</linearGradient>
				<rect x="34" y="63" class="st13" width="26.1" height="3"/>
				
					<linearGradient id="SVGID_7_" gradientUnits="userSpaceOnUse" x1="34" y1="735.8" x2="60.1" y2="735.8" gradientTransform="matrix(1 0 0 1 0 -662)">
					<stop  offset="0" style="stop-color:#F6F5F5"/>
					<stop  offset="0.341" style="stop-color:#F1F2F3"/>
					<stop  offset="0.6434" style="stop-color:#E7EAEB"/>
					<stop  offset="0.9302" style="stop-color:#D5DBDF"/>
					<stop  offset="1" style="stop-color:#CFD7DB"/>
				</linearGradient>
				<rect x="34" y="72.3" class="st14" width="26.1" height="3"/>
				
					<linearGradient id="SVGID_8_" gradientUnits="userSpaceOnUse" x1="34" y1="745.1" x2="60.1" y2="745.1" gradientTransform="matrix(1 0 0 1 0 -662)">
					<stop  offset="0" style="stop-color:#F6F5F5"/>
					<stop  offset="0.341" style="stop-color:#F1F2F3"/>
					<stop  offset="0.6434" style="stop-color:#E7EAEB"/>
					<stop  offset="0.9302" style="stop-color:#D5DBDF"/>
					<stop  offset="1" style="stop-color:#CFD7DB"/>
				</linearGradient>
				<rect x="34" y="81.6" class="st15" width="26.1" height="3"/>
			</g>
		</g>
	</g>
	<g>
		<rect x="21.3" y="7" class="st16" width="85.5" height="21.9"/>
	</g>
	<g>
		<path class="st17" d="M50,11.2c0.2,0.7,0.4,1.4,0.7,2.3c0.2,0.8,0.5,1.7,0.8,2.6c0.3,0.9,0.6,1.8,0.9,2.7c0.3,0.9,0.6,1.7,0.8,2.5
			c0.2-0.8,0.5-1.7,0.7-2.7s0.4-2,0.7-3.1c0.2-1,0.4-2.1,0.6-3.1c0.2-1,0.4-2,0.6-3H60c-0.6,2.9-1.3,5.7-2.1,8.7
			c-0.8,2.9-1.6,5.7-2.6,8.4h-3.7c-0.6-1.6-1.2-3.2-1.8-5c-0.6-1.7-1.1-3.5-1.7-5.2c-0.6,1.7-1.1,3.5-1.7,5.2
			c-0.5,1.7-1.1,3.4-1.7,5H41c-0.9-2.6-1.8-5.4-2.6-8.4c-0.8-2.9-1.5-5.8-2.1-8.7h4.4c0.2,1,0.4,2,0.6,3c0.2,1,0.4,2.1,0.6,3.1
			c0.2,1,0.5,2.1,0.7,3.1s0.5,1.9,0.7,2.7c0.3-0.8,0.6-1.7,0.9-2.6c0.3-0.9,0.6-1.8,0.9-2.7c0.3-0.9,0.5-1.8,0.8-2.6
			c0.2-0.8,0.4-1.6,0.6-2.2H50L50,11.2z"/>
		<path class="st17" d="M67.8,9.2c2.7,0,4.7,0.5,6.2,1.3c1.4,0.9,2.2,2.4,2.2,4.4s-0.7,3.5-2.2,4.4s-3.5,1.4-6.2,1.4h-1.3v5.7h-4
			V9.7c0.9-0.2,1.8-0.3,2.8-0.3C66.2,9.2,67.1,9.2,67.8,9.2z M68.1,12.5c-0.3,0-0.6,0-0.9,0s-0.5,0-0.7,0.1v4.9h1.3
			c1.4,0,2.4-0.2,3.2-0.5c0.7-0.4,1.1-1,1.1-2c0-0.5-0.1-0.9-0.3-1.2c-0.2-0.3-0.4-0.6-0.8-0.8c-0.3-0.2-0.7-0.3-1.2-0.4
			C69.2,12.5,68.7,12.5,68.1,12.5z"/>
		<path class="st17" d="M84,23.5c0.6,0,1,0,1.4-0.1s0.7-0.2,0.9-0.4c0.2-0.2,0.4-0.3,0.5-0.6c0.1-0.2,0.1-0.5,0.1-0.7
			c0-0.6-0.3-1-0.8-1.4c-0.6-0.4-1.5-0.8-2.9-1.2c-0.6-0.2-1.2-0.4-1.8-0.7c-0.6-0.3-1.1-0.6-1.6-1S79,16.5,78.7,16
			c-0.3-0.5-0.4-1.2-0.4-2s0.2-1.5,0.5-2.1s0.8-1.2,1.3-1.6c0.6-0.4,1.3-0.8,2.1-1C83,9.1,83.9,9,84.9,9c1.2,0,2.3,0.1,3.1,0.4
			c0.9,0.2,1.6,0.5,2.2,0.8l-1.2,3c-0.5-0.2-1.1-0.5-1.7-0.7s-1.4-0.3-2.2-0.3c-1,0-1.7,0.1-2.1,0.4c-0.4,0.3-0.6,0.6-0.6,1.2
			c0,0.3,0.1,0.6,0.2,0.8s0.4,0.4,0.7,0.6s0.6,0.3,1,0.5c0.4,0.1,0.8,0.3,1.2,0.4c0.9,0.3,1.7,0.7,2.4,1c0.7,0.3,1.3,0.7,1.7,1.1
			c0.4,0.4,0.8,0.9,1,1.5s0.3,1.3,0.3,2.1c0,1.6-0.6,2.8-1.8,3.7c-1.2,0.9-2.9,1.3-5.3,1.3c-0.8,0-1.5,0-2.1-0.1s-1.2-0.2-1.7-0.3
			c-0.5-0.1-0.9-0.3-1.3-0.4c-0.3-0.1-0.7-0.3-0.9-0.4l1.1-3c0.5,0.3,1.2,0.5,2,0.8C81.9,23.4,82.9,23.5,84,23.5z"/>
	</g>
</g>
</svg>
