<?xml version="1.0" encoding="utf-8"?>
<!-- Generator: Adobe Illustrator 16.0.0, SVG Export Plug-In . SVG Version: 6.00 Build 0)  -->
<!DOCTYPE svg PUBLIC "-//W3C//DTD SVG 1.1//EN" "http://www.w3.org/Graphics/SVG/1.1/DTD/svg11.dtd">
<svg version="1.1" id="图层_1" xmlns="http://www.w3.org/2000/svg" xmlns:xlink="http://www.w3.org/1999/xlink" x="0px" y="0px"
	 width="128px" height="128px" viewBox="0 0 128 128" enable-background="new 0 0 128 128" xml:space="preserve">
<rect x="18.298" y="4" opacity="0.2" enable-background="new    " width="91.404" height="120"/>
<rect x="18.298" y="4" opacity="0.08" enable-background="new    " width="95.404" height="124"/>
<rect x="20.298" y="6" opacity="0.1" enable-background="new    " width="91.404" height="120"/>
<rect x="20.298" y="6" fill="#E65100" width="87.404" height="116"/>
<g>
	
		<linearGradient id="SVGID_1_" gradientUnits="userSpaceOnUse" x1="147.1992" y1="945.8008" x2="147.1992" y2="831.8008" gradientTransform="matrix(1 0 0 1 -83.2002 -824.8008)">
		<stop  offset="0" style="stop-color:#EE6F0B"/>
		<stop  offset="1" style="stop-color:#FFB74D"/>
	</linearGradient>
	<rect x="21.294" y="7" fill="url(#SVGID_1_)" width="85.411" height="114"/>
	<g opacity="0.8">
		<rect x="32.416" y="50.882" fill="#FFFFFF" width="9.118" height="45.7"/>
		<rect x="47.616" y="73.686" fill="#FFFFFF" width="9.118" height="22.845"/>
		<rect x="62.768" y="82.992" fill="#FFFFFF" width="9.114" height="13.687"/>
		<g>
			<path fill="#FFFFFF" d="M75.162,42.814l0.104,18.191l18.19-0.097c0.053,10.068-8.082,18.24-18.146,18.284
				c-10.078,0.06-18.243-8.075-18.294-18.139C56.972,51.026,65.095,42.859,75.162,42.814z"/>
			<path fill="#FFFFFF" d="M77.3,40.714c10.071-0.044,18.243,8.079,18.288,18.15l-18.184,0.1L77.3,40.714z"/>
		</g>
	</g>
	<g>
		<rect x="21.272" y="7" opacity="0.8" fill="#FFFFFF" enable-background="new    " width="85.455" height="21.85"/>
		<g enable-background="new    ">
			<path fill="#E64A19" d="M44.48,9.089c2.679,0,4.728,0.449,6.16,1.339c1.433,0.895,2.145,2.356,2.145,4.387
				c0,2.048-0.72,3.525-2.175,4.435c-1.447,0.909-3.518,1.365-6.205,1.365h-1.269v5.696h-4.03V9.531
				c0.876-0.163,1.804-0.278,2.791-0.341C42.877,9.123,43.738,9.089,44.48,9.089z M44.74,12.358c-0.29,0-0.579,0.008-0.861,0.026
				c-0.29,0.015-0.535,0.029-0.742,0.048v4.914h1.269c1.396,0,2.449-0.178,3.154-0.542c0.705-0.36,1.062-1.032,1.062-2.015
				c0-0.475-0.089-0.864-0.275-1.176c-0.178-0.312-0.438-0.564-0.772-0.75c-0.334-0.189-0.75-0.319-1.232-0.394
				S45.327,12.358,44.74,12.358z"/>
			<path fill="#E64A19" d="M72.832,17.788c0,1.458-0.23,2.743-0.683,3.848c-0.46,1.106-1.084,2.034-1.878,2.776
				s-1.736,1.306-2.835,1.677c-1.091,0.386-2.271,0.572-3.525,0.572c-1.225,0-2.383-0.186-3.466-0.572
				c-1.091-0.371-2.034-0.935-2.85-1.677c-0.809-0.742-1.447-1.67-1.907-2.776c-0.468-1.105-0.705-2.39-0.705-3.848
				s0.245-2.739,0.728-3.844c0.482-1.106,1.135-2.034,1.952-2.791c0.824-0.753,1.767-1.317,2.85-1.692
				c1.076-0.378,2.204-0.568,3.399-0.568c1.217,0,2.375,0.189,3.458,0.568c1.092,0.375,2.034,0.939,2.851,1.692
				c0.809,0.757,1.447,1.685,1.915,2.791C72.595,15.049,72.832,16.329,72.832,17.788z M59.153,17.788
				c0,0.835,0.104,1.592,0.319,2.26c0.215,0.675,0.527,1.25,0.935,1.733c0.401,0.486,0.898,0.857,1.484,1.117
				c0.586,0.268,1.262,0.401,2.019,0.401c0.742,0,1.41-0.133,2.004-0.401c0.594-0.26,1.091-0.631,1.499-1.117
				c0.4-0.482,0.713-1.058,0.928-1.733c0.215-0.668,0.326-1.425,0.326-2.26s-0.111-1.592-0.326-2.271s-0.527-1.262-0.928-1.744
				c-0.408-0.482-0.905-0.857-1.499-1.121c-0.594-0.26-1.262-0.394-2.004-0.394c-0.757,0-1.433,0.137-2.019,0.408
				s-1.083,0.646-1.484,1.128c-0.408,0.486-0.72,1.065-0.935,1.744C59.257,16.222,59.153,16.971,59.153,17.788z"/>
			<path fill="#E64A19" d="M88.893,9.286v3.269h-5.41v13.756h-4.03V12.555h-5.41V9.286H88.893z"/>
		</g>
	</g>
</g>
</svg>
