<?xml version="1.0" encoding="utf-8"?>
<!-- Generator: Adobe Illustrator 16.0.0, SVG Export Plug-In . SVG Version: 6.00 Build 0)  -->
<!DOCTYPE svg PUBLIC "-//W3C//DTD SVG 1.1//EN" "http://www.w3.org/Graphics/SVG/1.1/DTD/svg11.dtd">
<svg version="1.1" id="图层_1" xmlns="http://www.w3.org/2000/svg" xmlns:xlink="http://www.w3.org/1999/xlink" x="0px" y="0px"
	 width="128px" height="128px" viewBox="0 0 128 128" enable-background="new 0 0 128 128" xml:space="preserve">
<polygon opacity="0.08" enable-background="new    " points="18.31,128 18.31,4 113.689,4 113.689,92.995 78.686,128 "/>
<polygon display="none" opacity="0.08" enable-background="new    " points="22.31,126 22.31,6 113.689,6 113.689,92.167 
	79.857,126 "/>
<polygon opacity="0.1" enable-background="new    " points="20.31,126 20.31,6 111.689,6 111.689,92.167 77.857,126 "/>
<polygon opacity="0.2" enable-background="new    " points="18.31,124 18.31,4 109.689,4 109.689,90.167 75.857,124 "/>
<polygon fill="#E65100" points="20.298,122 20.298,6 107.702,6 107.702,89.339 75.034,122 "/>
<g>
	<g>
		<g>
			
				<linearGradient id="SVGID_1_" gradientUnits="userSpaceOnUse" x1="105.6006" y1="-156.8999" x2="105.6006" y2="-42.9004" gradientTransform="matrix(1 0 0 -1 -41.6001 -35.9004)">
				<stop  offset="0" style="stop-color:#EE6F0B"/>
				<stop  offset="1" style="stop-color:#FFB74D"/>
			</linearGradient>
			<polygon fill="url(#SVGID_1_)" points="21.293,121 21.293,7 106.708,7 106.708,88.938 74.646,121 			"/>
		</g>
		<polygon fill="#E65100" fill-opacity="0.3922" points="106.708,88.938 106.708,87.559 72.885,87.559 72.885,121 74.646,121 		"/>
		<path fill="#FFFFFF" fill-opacity="0.3922" d="M74.592,88.938l32.116,0.043L74.646,121L74.592,88.938z"/>
	</g>
	<g opacity="0.8">
		<rect x="32.415" y="50.884" fill="#FFFFFF" width="9.118" height="45.698"/>
		<rect x="47.614" y="73.686" fill="#FFFFFF" width="9.117" height="22.844"/>
		<rect x="62.771" y="82.989" fill="#FFFFFF" width="9.118" height="13.688"/>
		<g>
			<path fill="#FFFFFF" d="M75.165,42.811l0.095,18.191l18.189-0.098c0.053,10.073-8.074,18.248-18.146,18.29
				c-10.063,0.053-18.237-8.079-18.284-18.141C56.971,51.028,65.092,42.855,75.165,42.811z"/>
			<path fill="#FFFFFF" d="M77.301,40.716c10.073-0.042,18.242,8.077,18.284,18.146l-18.188,0.098L77.301,40.716z"/>
		</g>
	</g>
	<g>
		<rect x="21.271" y="7" opacity="0.8" fill="#FFFFFF" enable-background="new    " width="85.457" height="21.85"/>
		<g enable-background="new    ">
			<path fill="#E64A19" d="M55.868,17.791c0,1.471-0.25,2.762-0.732,3.859c-0.482,1.1-1.16,2.004-2.051,2.725
				c-0.886,0.718-1.967,1.262-3.245,1.625c-1.277,0.355-2.708,0.536-4.299,0.536c-0.721,0-1.563-0.032-2.528-0.09
				c-0.965-0.053-1.914-0.169-2.848-0.355V9.507c0.934-0.162,1.903-0.273,2.916-0.334c1.008-0.05,1.866-0.079,2.598-0.079
				c1.532,0,2.921,0.162,4.178,0.487c1.245,0.329,2.321,0.849,3.218,1.545c0.891,0.713,1.579,1.609,2.062,2.701
				C55.618,14.925,55.868,16.248,55.868,17.791z M44.2,23.196c0.19,0.013,0.408,0.029,0.662,0.037
				c0.249,0.005,0.546,0.005,0.891,0.005c2.015,0,3.515-0.474,4.484-1.439c0.976-0.973,1.464-2.309,1.464-4.008
				c0-1.79-0.467-3.139-1.395-4.053c-0.938-0.919-2.401-1.378-4.427-1.378c-0.27,0-0.562,0-0.848,0.013
				c-0.297,0.008-0.572,0.029-0.832,0.061V23.196z"/>
			<path fill="#E64A19" d="M64.599,9.094c2.683,0,4.729,0.445,6.16,1.336c1.438,0.891,2.152,2.359,2.152,4.384
				c0,2.049-0.726,3.525-2.179,4.432c-1.441,0.912-3.52,1.365-6.208,1.365h-1.262v5.702h-4.034V9.531
				c0.875-0.164,1.808-0.275,2.789-0.342C62.998,9.123,63.856,9.094,64.599,9.094z M64.869,12.36c-0.297,0-0.588,0.005-0.869,0.029
				c-0.292,0.013-0.524,0.029-0.737,0.045v4.912h1.262c1.4,0,2.449-0.178,3.165-0.541c0.694-0.363,1.056-1.031,1.056-2.012
				c0-0.475-0.091-0.87-0.271-1.18c-0.175-0.313-0.445-0.564-0.779-0.75c-0.334-0.193-0.748-0.318-1.225-0.392
				C65.982,12.397,65.447,12.36,64.869,12.36z"/>
			<path fill="#E64A19" d="M80.769,23.386c0.566,0,1.039-0.042,1.41-0.132s0.668-0.207,0.891-0.371
				c0.228-0.148,0.381-0.334,0.472-0.549c0.085-0.209,0.127-0.445,0.127-0.713c0-0.557-0.275-1.023-0.832-1.389
				c-0.546-0.363-1.501-0.763-2.842-1.192c-0.589-0.194-1.172-0.417-1.76-0.668c-0.583-0.255-1.113-0.581-1.58-0.965
				c-0.461-0.387-0.849-0.849-1.135-1.397c-0.291-0.549-0.439-1.217-0.439-2.004c0-0.788,0.148-1.498,0.461-2.124
				c0.313-0.636,0.758-1.171,1.32-1.617c0.572-0.438,1.262-0.779,2.072-1.018c0.806-0.236,1.729-0.355,2.735-0.355
				c1.215,0,2.259,0.127,3.134,0.371c0.874,0.244,1.606,0.512,2.173,0.809l-1.16,3.03c-0.51-0.255-1.056-0.469-1.67-0.655
				c-0.621-0.194-1.347-0.281-2.206-0.281c-0.976,0-1.664,0.12-2.094,0.379c-0.413,0.251-0.626,0.644-0.626,1.164
				c0,0.313,0.074,0.581,0.223,0.787c0.165,0.207,0.382,0.4,0.668,0.578c0.287,0.172,0.61,0.329,0.981,0.461
				c0.371,0.148,0.779,0.289,1.235,0.429c0.928,0.334,1.733,0.655,2.422,0.981c0.695,0.313,1.272,0.684,1.724,1.113
				c0.456,0.429,0.795,0.928,1.018,1.5c0.223,0.578,0.339,1.267,0.339,2.091c0,1.587-0.583,2.82-1.754,3.698
				c-1.178,0.875-2.948,1.312-5.307,1.312c-0.79,0-1.512-0.05-2.147-0.141s-1.203-0.193-1.691-0.326
				c-0.498-0.135-0.911-0.268-1.272-0.416c-0.354-0.148-0.651-0.289-0.891-0.416l1.146-3.051c0.535,0.276,1.188,0.528,1.972,0.75
				C78.674,23.283,79.628,23.386,80.769,23.386z"/>
		</g>
	</g>
</g>
</svg>
