<?xml version="1.0" encoding="utf-8"?>
<!-- Generator: Adobe Illustrator 16.0.0, SVG Export Plug-In . SVG Version: 6.00 Build 0)  -->
<!DOCTYPE svg PUBLIC "-//W3C//DTD SVG 1.1//EN" "http://www.w3.org/Graphics/SVG/1.1/DTD/svg11.dtd">
<svg version="1.1" id="图层_1" xmlns="http://www.w3.org/2000/svg" xmlns:xlink="http://www.w3.org/1999/xlink" x="0px" y="0px"
	 width="128px" height="128px" viewBox="0 0 128 128" enable-background="new 0 0 128 128" xml:space="preserve">
<g id="surface1">
	<polygon opacity="0.2" enable-background="new    " points="18.5,124 18.5,4 109.5,4 109.5,90.203 75.703,124 	"/>
	<polygon opacity="0.08" enable-background="new    " points="18.5,128 18.5,4 113.5,4 113.5,93.031 78.531,128 	"/>
	<polygon opacity="0.1" enable-background="new    " points="20.5,126 20.5,6 111.5,6 111.5,92.203 77.703,126 	"/>
</g>
<g>
	
		<linearGradient id="SVGID_1_" gradientUnits="userSpaceOnUse" x1="230.4004" y1="1675.9609" x2="230.4004" y2="1559.9609" gradientTransform="matrix(1 0 0 1 -166.4004 -1553.9609)">
		<stop  offset="0" style="stop-color:#512DA8"/>
		<stop  offset="0.008" style="stop-color:#512DA8"/>
		<stop  offset="0.0504" style="stop-color:#5733AB"/>
		<stop  offset="0.2927" style="stop-color:#7250BA"/>
		<stop  offset="0.5337" style="stop-color:#8564C4"/>
		<stop  offset="0.771" style="stop-color:#9171CB"/>
		<stop  offset="1" style="stop-color:#9575CD"/>
	</linearGradient>
	<path fill="url(#SVGID_1_)" d="M74.875,122L107.5,89.375V6h-87v116H74.875z"/>
	<polygon fill="#512DA8" fill-opacity="0.3922" points="73.063,87.563 73.063,122 74.875,122 107.5,89.375 107.5,87.563 	"/>
	<path fill="#FFFFFF" fill-opacity="0.3922" d="M74.875,89.375h32.598L74.875,122V89.375z"/>
	<path opacity="0.8" fill="#FFFFFF" d="M61.578,34.998h4.844c7.25,0,8.453,8.51,8.453,8.51v8.455c0,2.852-6.047,8.658-6.047,8.658
		v2.846l9.672,5.607v5.699l-15.703,0.1H49.5v-5.691l9.672-5.701v-2.846c0,0-6.061-5.777-6.047-8.631v-8.453
		C53.125,43.551,54.328,34.998,61.578,34.998z"/>
	<g>
		<path fill="#311B92" d="M106.5,7v81.961L74.461,121H49.5h-28V7H106.5 M107.5,6h-87v116h29h25.375L107.5,89.375V6L107.5,6z"/>
	</g>
</g>
</svg>
