<?xml version="1.0" encoding="utf-8"?>
<!-- Generator: Adobe Illustrator 21.0.0, SVG Export Plug-In . SVG Version: 6.00 Build 0)  -->
<svg version="1.1" id="图层_1" xmlns="http://www.w3.org/2000/svg" xmlns:xlink="http://www.w3.org/1999/xlink" x="0px" y="0px"
	 viewBox="0 0 128 128" style="enable-background:new 0 0 128 128;" xml:space="preserve">
<style type="text/css">
	.st0{opacity:0.2;enable-background:new    ;}
	.st1{opacity:0.08;enable-background:new    ;}
	.st2{opacity:0.1;enable-background:new    ;}
	.st3{fill:url(#SVGID_1_);}
	.st4{fill:#512DA8;fill-opacity:0.3922;}
	.st5{fill:#FFFFFF;fill-opacity:0.3922;}
	.st6{opacity:0.8;fill:#FFFFFF;enable-background:new    ;}
	.st7{fill:#311B92;}
</style>
<g id="surface1">
	<polygon class="st0" points="18.5,124 18.5,4 109.5,4 109.5,90.2 75.7,124 	"/>
	<polygon class="st1" points="18.5,128 18.5,4 113.5,4 113.5,93 78.5,128 	"/>
	<polygon class="st2" points="20.5,126 20.5,6 111.5,6 111.5,92.2 77.7,126 	"/>
</g>
<g>
	
		<linearGradient id="SVGID_1_" gradientUnits="userSpaceOnUse" x1="230.4004" y1="2337.9609" x2="230.4004" y2="2221.9609" gradientTransform="matrix(1 0 0 1 -166.4004 -2215.9609)">
		<stop  offset="0" style="stop-color:#512DA8"/>
		<stop  offset="8.000000e-03" style="stop-color:#512DA8"/>
		<stop  offset="0.0504" style="stop-color:#5733AB"/>
		<stop  offset="0.2927" style="stop-color:#7250BA"/>
		<stop  offset="0.5337" style="stop-color:#8564C4"/>
		<stop  offset="0.771" style="stop-color:#9171CB"/>
		<stop  offset="1" style="stop-color:#9575CD"/>
	</linearGradient>
	<path class="st3" d="M74.9,122l32.6-32.6V6h-87v116H74.9z"/>
	<polygon class="st4" points="73.1,87.6 73.1,122 74.9,122 107.5,89.4 107.5,87.6 	"/>
	<path class="st5" d="M74.9,89.4h32.6L74.9,122V89.4z"/>
	<path class="st6" d="M61.6,35h4.8c7.3,0,8.5,8.5,8.5,8.5V52c0,2.9-6,8.7-6,8.7v2.8l9.7,5.6v5.7l-15.7,0.1H49.5v-5.7l9.7-5.7v-2.8
		c0,0-6.1-5.8-6-8.6v-8.5C53.1,43.6,54.3,35,61.6,35z"/>
	<g>
		<path class="st7" d="M106.5,7v82l-32,32h-25h-28V7H106.5 M107.5,6h-87v116h29h25.4l32.6-32.6V6L107.5,6z"/>
	</g>
</g>
</svg>
