<?xml version="1.0" encoding="utf-8"?>
<!-- Generator: Adobe Illustrator 18.1.1, SVG Export Plug-In . SVG Version: 6.00 Build 0)  -->
<svg version="1.1" id="图层_1" xmlns="http://www.w3.org/2000/svg" xmlns:xlink="http://www.w3.org/1999/xlink" x="0px" y="0px"
	 width="16px" height="16px" viewBox="0 0 16 16" enable-background="new 0 0 16 16" xml:space="preserve">
<g id="新建符号_4">
	<path fill="#4D4D4D" d="M1,1v15h14V1H1z M14,15H2V2h12V15z"/>
	<rect x="2" y="2" fill="#4FC3F7" width="12" height="10"/>
	<rect x="11" y="13" fill="#4D4D4D" width="2" height="1"/>
</g>
<g id="新建符号_4_2_" display="none">
	<path display="inline" fill="#4D4D4D" d="M1,0.5v15h14v-15H1z M14,14.5H2v-13h12V14.5z"/>
	<rect x="2" y="10.5" display="inline" fill="#4D4D4D" width="12" height="1"/>
	<rect x="11" y="12.5" display="inline" fill="#4D4D4D" width="2" height="1"/>
</g>
<g id="新建符号_4_1_" display="none">
	<path display="inline" fill="#4D4D4D" d="M1,0.5v15h14v-15H1z M14,14.5H2v-13h12V14.5z"/>
	<rect x="2" y="10.5" display="inline" fill="#0288D1" width="12" height="4"/>
	<rect x="9.7" y="12" display="inline" fill="#FFFFFF" width="3.3" height="1.5"/>
</g>
<g>
	<rect x="5" y="3.8" fill="#0288D1" width="3" height="3"/>
	<rect x="3" y="5.3" fill="#0288D1" width="7" height="3"/>
</g>
<g>
	<rect x="8" y="6" fill="#FFFFFF" width="3" height="3"/>
	<rect x="6" y="7.5" fill="#FFFFFF" width="7" height="3"/>
</g>
</svg>
