<?xml version="1.0" encoding="utf-8"?>
<!-- Generator: Adobe Illustrator 21.0.0, SVG Export Plug-In . SVG Version: 6.00 Build 0)  -->
<svg version="1.1" id="图层_39" xmlns="http://www.w3.org/2000/svg" xmlns:xlink="http://www.w3.org/1999/xlink" x="0px" y="0px"
	 viewBox="0 0 22 22" style="enable-background:new 0 0 22 22;" xml:space="preserve">
<style type="text/css">
	.st0{fill:url(#SVGID_1_);}
	.st1{fill:#AAAAAA;}
	.st2{fill:none;stroke:#AAAAAA;stroke-miterlimit:10;}
	.st3{fill:none;stroke:#D02200;stroke-miterlimit:10;}
</style>
<g>
	
		<linearGradient id="SVGID_1_" gradientUnits="userSpaceOnUse" x1="11" y1="795.5" x2="11" y2="774.5" gradientTransform="matrix(1 0 0 1 0 -774)">
		<stop  offset="0" style="stop-color:#CCCCCC"/>
		<stop  offset="1" style="stop-color:#FFFFFF"/>
	</linearGradient>
	<path class="st0" d="M11,21.5C5.2,21.5,0.5,16.8,0.5,11S5.2,0.5,11,0.5S21.5,5.2,21.5,11S16.8,21.5,11,21.5z"/>
	<path class="st1" d="M11,1c5.5,0,10,4.5,10,10s-4.5,10-10,10S1,16.5,1,11S5.5,1,11,1 M11,0C4.9,0,0,4.9,0,11s4.9,11,11,11
		s11-4.9,11-11S17.1,0,11,0L11,0z"/>
</g>
<line class="st2" x1="10.5" y1="18" x2="10.5" y2="20"/>
<line class="st2" x1="10.5" y1="2" x2="10.5" y2="4"/>
<line class="st2" x1="4" y1="11.5" x2="2" y2="11.5"/>
<line class="st2" x1="20" y1="11.5" x2="18" y2="11.5"/>
<line class="st3" x1="15" y1="11.5" x2="10" y2="11.5"/>
<line class="st3" x1="10.5" y1="7" x2="10.5" y2="12"/>
</svg>
