<?xml version="1.0" encoding="utf-8"?>
<!-- Generator: Adobe Illustrator 21.0.0, SVG Export Plug-In . SVG Version: 6.00 Build 0)  -->
<svg version="1.1" id="图层_39" xmlns="http://www.w3.org/2000/svg" xmlns:xlink="http://www.w3.org/1999/xlink" x="0px" y="0px"
	 viewBox="0 0 22 22" style="enable-background:new 0 0 22 22;" xml:space="preserve">
<style type="text/css">
	.st0{fill:url(#SVGID_1_);}
	.st1{fill:none;stroke:#A1A1A1;stroke-miterlimit:10;}
	.st2{fill:none;}
	.st3{fill:#D5D5D5;}
</style>
<g>
	
		<linearGradient id="SVGID_1_" gradientUnits="userSpaceOnUse" x1="11" y1="774" x2="11" y2="796" gradientTransform="matrix(1 0 0 1 0 -774)">
		<stop  offset="0" style="stop-color:#EFEFEF"/>
		<stop  offset="1" style="stop-color:#D6D6BF"/>
	</linearGradient>
	<polygon class="st0" points="3,0 14,0 14,5 19,5 19,22 3,22 	"/>
	<polyline class="st1" points="3.5,6 3.5,0.5 15,0.5 18.5,5 18.5,6 	"/>
	<line class="st2" x1="18.1" y1="12.4" x2="18.1" y2="9.6"/>
	<polygon class="st1" points="14.5,5.5 14.5,4.1 14.5,0 14.5,0 	"/>
	<line class="st1" x1="14" y1="5.5" x2="18.1" y2="5.5"/>
</g>
<polyline class="st3" points="15,1 15,5 18,5 "/>
<line class="st1" x1="3.5" y1="8" x2="3.5" y2="10"/>
<line class="st1" x1="3.5" y1="12" x2="3.5" y2="14"/>
<line class="st1" x1="3.5" y1="16" x2="3.5" y2="18"/>
<polyline class="st1" points="18.5,20 18.5,21.5 16,21.5 "/>
<polyline class="st1" points="3.5,20 3.5,21.5 6,21.5 "/>
<line class="st1" x1="18.5" y1="8" x2="18.5" y2="10"/>
<line class="st1" x1="18.5" y1="12" x2="18.5" y2="14"/>
<line class="st1" x1="18.5" y1="16" x2="18.5" y2="18"/>
<line class="st1" x1="10" y1="21.5" x2="8" y2="21.5"/>
<line class="st1" x1="14" y1="21.5" x2="12" y2="21.5"/>
</svg>
