<?xml version="1.0" encoding="utf-8"?>
<!-- Generator: Adobe Illustrator 21.0.0, SVG Export Plug-In . SVG Version: 6.00 Build 0)  -->
<svg version="1.1" id="图层_39" xmlns="http://www.w3.org/2000/svg" xmlns:xlink="http://www.w3.org/1999/xlink" x="0px" y="0px"
	 viewBox="0 0 22 22" style="enable-background:new 0 0 22 22;" xml:space="preserve">
<style type="text/css">
	.st0{display:none;fill:url(#SVGID_1_);}
	.st1{fill:url(#SVGID_2_);}
	.st2{fill:#9E885A;}
	.st3{fill:url(#SVGID_3_);}
	.st4{fill:url(#SVGID_4_);}
	.st5{fill:url(#SVGID_5_);}
</style>
<g>
	
		<linearGradient id="SVGID_1_" gradientUnits="userSpaceOnUse" x1="8.3" y1="774" x2="8.3" y2="784.3125" gradientTransform="matrix(1 0 0 1 0 -774)">
		<stop  offset="0" style="stop-color:#FFE5D2"/>
		<stop  offset="1" style="stop-color:#F1BB8B"/>
	</linearGradient>
	<circle class="st0" cx="8.3" cy="5.2" r="5.2"/>
	<g>
		
			<linearGradient id="SVGID_2_" gradientUnits="userSpaceOnUse" x1="8.3" y1="774.6875" x2="8.3" y2="783.625" gradientTransform="matrix(1 0 0 1 0 -774)">
			<stop  offset="0" style="stop-color:#FFE5D2"/>
			<stop  offset="1" style="stop-color:#F1BB8B"/>
		</linearGradient>
		<circle class="st1" cx="8.3" cy="5.2" r="4.5"/>
		<path class="st2" d="M8.3,1.4c2.1,0,3.9,1.7,3.9,3.8s-1.8,3.7-3.9,3.7S4.5,7.3,4.5,5.2S6.2,1.4,8.3,1.4 M8.3,0
			C5.4,0,3.2,2.3,3.2,5.2s2.2,5.1,5.1,5.1s5.2-2.3,5.2-5.2S11.1,0,8.3,0L8.3,0z"/>
	</g>
	
		<linearGradient id="SVGID_3_" gradientUnits="userSpaceOnUse" x1="8.3" y1="790.5" x2="8.3" y2="784.3125" gradientTransform="matrix(1 0 0 1 0 -774)">
		<stop  offset="0" style="stop-color:#7F3312"/>
		<stop  offset="1" style="stop-color:#AA4E35"/>
	</linearGradient>
	<path class="st3" d="M0,16.5c0-3.4,3.7-6.2,8.3-6.2s8.3,2.8,8.3,6.2"/>
</g>
<g>
	<g>
		
			<linearGradient id="SVGID_4_" gradientUnits="userSpaceOnUse" x1="13.8" y1="780.1875" x2="13.8" y2="789.125" gradientTransform="matrix(1 0 0 1 0 -774)">
			<stop  offset="0" style="stop-color:#FFE5D2"/>
			<stop  offset="1" style="stop-color:#F1BB8B"/>
		</linearGradient>
		<circle class="st4" cx="13.8" cy="10.7" r="4.5"/>
		<path class="st2" d="M13.8,6.9c2.1,0,3.9,1.6,3.9,3.9s-1.6,3.9-3.9,3.9s-3.8-1.9-3.8-4S11.7,6.9,13.8,6.9 M13.8,5.5
			c-2.9,0-5.1,2.3-5.1,5.2S11,16,13.9,16s5.2-2.3,5.2-5.2S16.6,5.5,13.8,5.5L13.8,5.5z"/>
	</g>
	
		<linearGradient id="SVGID_5_" gradientUnits="userSpaceOnUse" x1="13.75" y1="796" x2="13.75" y2="789.8125" gradientTransform="matrix(1 0 0 1 0 -774)">
		<stop  offset="0" style="stop-color:#3373B7"/>
		<stop  offset="1" style="stop-color:#42A4FC"/>
	</linearGradient>
	<path class="st5" d="M5.5,22c0-3.4,3.7-6.2,8.3-6.2S22,18.6,22,22"/>
</g>
</svg>
