<?xml version="1.0" encoding="utf-8"?>
<!-- Generator: Adobe Illustrator 21.0.0, SVG Export Plug-In . SVG Version: 6.00 Build 0)  -->
<svg version="1.1" id="图层_39" xmlns="http://www.w3.org/2000/svg" xmlns:xlink="http://www.w3.org/1999/xlink" x="0px" y="0px"
	 viewBox="0 0 22 22" style="enable-background:new 0 0 22 22;" xml:space="preserve">
<style type="text/css">
	.st0{fill:#AAAAAA;}
	.st1{fill:none;stroke:#AAAAAA;stroke-miterlimit:10;}
	.st2{fill:url(#SVGID_1_);}
	.st3{fill:#35434C;}
	.st4{fill:url(#SVGID_2_);}
</style>
<g>
	<path class="st0" d="M3.1,1v20H1V1H3.1 M4.1,0H0v22h4.1V1V0L4.1,0z"/>
</g>
<g>
	<path class="st0" d="M21,1v20h-2.1V1H21 M22,0h-4.1v22H22V1V0L22,0z"/>
</g>
<line class="st1" x1="0" y1="18.5" x2="21" y2="18.5"/>
<line class="st1" x1="0" y1="15.5" x2="21" y2="15.5"/>
<line class="st1" x1="0" y1="12.5" x2="21" y2="12.5"/>
<line class="st1" x1="0" y1="9.5" x2="21" y2="9.5"/>
<line class="st1" x1="0" y1="6.5" x2="21" y2="6.5"/>
<line class="st1" x1="0" y1="3.5" x2="21" y2="3.5"/>
<g>
	
		<linearGradient id="SVGID_1_" gradientUnits="userSpaceOnUse" x1="3.5" y1="785" x2="18.5" y2="785" gradientTransform="matrix(1 0 0 1 0 -774)">
		<stop  offset="0" style="stop-color:#B989E9"/>
		<stop  offset="1" style="stop-color:#5373C8"/>
	</linearGradient>
	<rect x="3.5" y="0.5" class="st2" width="15" height="21"/>
	<path class="st3" d="M18,1v20H4V1H18 M19,0H3v22h16V0L19,0z"/>
</g>
<linearGradient id="SVGID_2_" gradientUnits="userSpaceOnUse" x1="8" y1="785.5" x2="15" y2="785.5" gradientTransform="matrix(1 0 0 1 0 -774)">
	<stop  offset="0" style="stop-color:#FFFFFF"/>
	<stop  offset="1" style="stop-color:#DBDBDB"/>
</linearGradient>
<polygon class="st4" points="8,6 8,17 15,11.5 "/>
</svg>
