<?xml version="1.0" encoding="utf-8"?>
<!-- Generator: Adobe Illustrator 21.0.0, SVG Export Plug-In . SVG Version: 6.00 Build 0)  -->
<svg version="1.1" id="图层_39" xmlns="http://www.w3.org/2000/svg" xmlns:xlink="http://www.w3.org/1999/xlink" x="0px" y="0px"
	 viewBox="0 0 22 22" style="enable-background:new 0 0 22 22;" xml:space="preserve">
<style type="text/css">
	.st0{fill:#90A4AE;}
	.st1{fill:#FF6E40;}
	.st2{fill:url(#rect3000_1_);}
	.st3{fill:url(#rect2998_1_);}
	.st4{fill:url(#rect2992_1_);}
	.st5{fill:#FFFFFF;}
</style>
<title>022network-server</title>
<rect y="0.5" class="st0" width="22" height="21"/>
<rect id="rect3804" x="10" y="12.9" class="st1" width="2" height="2.8"/>
<rect id="rect3802" x="10" y="6.3" class="st1" width="2" height="2.8"/>
<linearGradient id="rect3000_1_" gradientUnits="userSpaceOnUse" x1="11" y1="2605.6401" x2="11" y2="2611.6299" gradientTransform="matrix(1 0 0 1 0 -2590.72)">
	<stop  offset="0" style="stop-color:#4FC3F7"/>
	<stop  offset="0.11" style="stop-color:#3EBDF6"/>
	<stop  offset="0.32" style="stop-color:#24B4F5"/>
	<stop  offset="0.53" style="stop-color:#12AEF5"/>
	<stop  offset="0.76" style="stop-color:#07AAF4"/>
	<stop  offset="1" style="stop-color:#03A9F4"/>
</linearGradient>
<rect id="rect3000" x="0.5" y="15" class="st2" width="21" height="6"/>
<linearGradient id="rect2998_1_" gradientUnits="userSpaceOnUse" x1="11" y1="2604.6499" x2="11" y2="2598.6699" gradientTransform="matrix(1 0 0 1 0 -2590.72)">
	<stop  offset="0" style="stop-color:#E64A19"/>
	<stop  offset="0.22" style="stop-color:#F04F1D"/>
	<stop  offset="0.59" style="stop-color:#FB5521"/>
	<stop  offset="1" style="stop-color:#FF5722"/>
</linearGradient>
<rect id="rect2998" x="0.5" y="8.1" class="st3" width="21" height="6"/>
<linearGradient id="rect2992_1_" gradientUnits="userSpaceOnUse" x1="11" y1="2591.6001" x2="11" y2="2597.5898" gradientTransform="matrix(1 0 0 1 0 -2590.72)">
	<stop  offset="0" style="stop-color:#4FC3F7"/>
	<stop  offset="0.11" style="stop-color:#3EBDF6"/>
	<stop  offset="0.32" style="stop-color:#24B4F5"/>
	<stop  offset="0.53" style="stop-color:#12AEF5"/>
	<stop  offset="0.76" style="stop-color:#07AAF4"/>
	<stop  offset="1" style="stop-color:#03A9F4"/>
</linearGradient>
<rect id="rect2992" x="0.5" y="1" class="st4" width="21" height="6"/>
<rect id="rect3806" x="2" y="3" class="st5" width="10.5" height="2"/>
<path id="path3808" class="st5" d="M16.5,4c0,0.6-0.4,1-1,1s-1-0.4-1-1c0-0.5,0.4-1,0.9-1h0.1C16.1,3,16.5,3.4,16.5,4z"/>
<path id="path3810" class="st5" d="M20,4c0,0.6-0.4,1-1,1s-1-0.4-1-1c0-0.5,0.4-1,0.9-1H19C19.6,3,20,3.4,20,4z"/>
<rect id="rect3812" x="2" y="17" class="st5" width="10.5" height="2"/>
<path id="path3814" class="st5" d="M16.5,18c0,0.6-0.4,1-1,1s-1-0.4-1-1c0-0.5,0.4-1,0.9-1h0.1C16.1,17,16.5,17.4,16.5,18z"/>
<path id="path3816" class="st5" d="M20,18c0,0.6-0.4,1-1,1s-1-0.4-1-1c0-0.5,0.4-1,0.9-1H19C19.6,17,20,17.4,20,18z"/>
<rect id="rect3818" x="2" y="10" class="st5" width="10.5" height="2"/>
<path id="path3820" class="st5" d="M16.5,11c0,0.6-0.4,1-1,1s-1-0.4-1-1s0.4-1,1-1S16.5,10.4,16.5,11z"/>
<path id="path3822" class="st5" d="M20,11c0,0.6-0.4,1-1,1s-1-0.4-1-1s0.4-1,1-1S20,10.4,20,11z"/>
</svg>
