<?xml version="1.0" encoding="utf-8"?>
<!-- Generator: Adobe Illustrator 21.0.0, SVG Export Plug-In . SVG Version: 6.00 Build 0)  -->
<svg version="1.1" id="图层_39" xmlns="http://www.w3.org/2000/svg" xmlns:xlink="http://www.w3.org/1999/xlink" x="0px" y="0px"
	 viewBox="0 0 22 22" style="enable-background:new 0 0 22 22;" xml:space="preserve">
<style type="text/css">
	.st0{fill:none;}
	.st1{fill:#AFD9E9;}
	.st2{fill:#1E95D4;}
	.st3{fill:#1888CA;}
	.st4{fill:#0A5DA4;}
	.st5{fill:#00417A;}
</style>
<title>016gnome-main-menu</title>
<g>
	<polygon class="st0" points="11,13.2 14,14.4 11.1,13.2 	"/>
	<polygon class="st1" points="6.9,11.7 5.8,8.7 2.6,11 4.5,11.1 	"/>
	<polygon class="st2" points="11.1,13.2 14,14.4 14.9,12.2 11,13.2 	"/>
	<polygon class="st1" points="6.3,14.2 11,13.2 6.9,11.7 	"/>
	<polygon class="st2" points="2.6,11 3.2,14.9 4.5,11.1 	"/>
	<polygon class="st3" points="4.5,11.1 3.2,14.9 6.9,11.7 	"/>
	<polygon class="st2" points="3.2,14.9 6.3,14.2 6.9,11.7 	"/>
	<polygon class="st4" points="5.8,8.7 8.1,8.7 8.1,7.1 	"/>
	<polygon class="st3" points="10.9,10.9 8.1,8.7 6.9,11.7 	"/>
	<polygon class="st2" points="6.9,11.7 8.1,8.7 5.8,8.7 	"/>
	<polygon class="st4" points="11.5,19.9 11.5,18.8 10.4,18.3 	"/>
	<polygon class="st5" points="8.5,19.9 11.5,19.9 10.4,18.3 	"/>
	<polygon class="st5" points="10.4,18.3 11.5,18.8 12.4,16 	"/>
	<polygon class="st4" points="15.3,19.8 17.5,17.7 14.7,18.1 	"/>
	<polygon class="st5" points="12.2,21.5 15.4,21.5 15.3,19.8 14.7,18.1 	"/>
	<polygon class="st4" points="11.5,18.8 13.9,17.2 12.4,16 	"/>
	<polygon class="st5" points="17.5,17.7 16.4,15.5 14.7,18.1 	"/>
	<polygon class="st5" points="0.4,20.8 3.4,20.8 1.5,19.4 	"/>
	<polygon class="st3" points="10.6,0 7.6,3 9.1,2.5 	"/>
	<polygon class="st3" points="8,1 5.1,3.8 7,2.9 	"/>
	<polygon class="st3" points="13.9,17.2 14.7,18.1 16.4,15.5 12.4,16 	"/>
	<polygon class="st2" points="9.1,2.5 7.6,3 9.4,3.6 	"/>
	<polygon class="st1" points="7.3,2.9 8,1 7,2.9 	"/>
	<polygon class="st1" points="9.4,3.6 10.6,0 9.1,2.5 	"/>
	<polygon class="st3" points="2.6,18.3 1.5,19.4 3.8,18.1 2.1,16.9 	"/>
	<polygon class="st2" points="2.8,8.1 2.6,11 5.8,8.7 	"/>
	<polygon class="st4" points="3.4,20.8 3.8,18.1 1.5,19.4 	"/>
	<polygon class="st4" points="16.4,15.5 16.1,12.9 14,14.4 	"/>
	<polygon class="st2" points="12.4,16 16.4,15.5 14,14.4 	"/>
	<polygon class="st3" points="14,14.4 16.1,12.9 14.9,12.2 	"/>
	<polygon class="st3" points="18.4,11.4 17.7,10.9 16.1,12.9 18.6,11.5 18.4,11.5 	"/>
	<polygon class="st4" points="10.7,15 12.4,16 14,14.4 	"/>
	<polygon class="st2" points="16,11.7 14.9,12.2 16.1,12.9 17.7,10.9 	"/>
	<polygon class="st5" points="9.1,15.8 10.7,15 6.3,14.2 	"/>
	<polygon class="st3" points="11,13.2 10.7,15 14,14.4 	"/>
	<polygon class="st4" points="6.3,14.2 10.7,15 11,13.2 	"/>
	<polygon class="st1" points="22,7.7 19.3,8.5 20.4,9.8 	"/>
	<polygon class="st3" points="19.7,11.7 21.5,11.1 20.4,9.8 	"/>
	<polygon class="st4" points="18.6,11.3 18.6,11.5 18.5,11.4 18.4,11.5 18.6,11.5 19.7,11.7 20.4,9.8 	"/>
	<polygon class="st2" points="19.3,8.5 17.7,10.9 18.4,11.4 	"/>
	<polygon class="st2" points="18.6,11.5 18.6,11.3 18.5,11.4 	"/>
	<polygon class="st2" points="20.4,9.8 21.5,11.1 22,7.7 	"/>
	<polygon class="st3" points="18.4,11.5 18.5,11.4 18.6,11.3 20.4,9.8 19.3,8.5 18.4,11.4 	"/>
	<polygon class="st3" points="7,16.8 9.1,15.8 6.3,14.2 	"/>
	<polygon class="st3" points="5.8,8.7 2.8,5.2 2.8,8.1 	"/>
	<polygon class="st3" points="5.1,3.8 2.8,5.2 5.2,5.9 	"/>
	<polygon class="st2" points="5.2,5.9 2.8,5.2 5.8,8.7 	"/>
	<polygon class="st2" points="2.8,5.2 1.5,7.6 2.8,8.1 	"/>
	<polygon class="st4" points="5.8,8.7 6.3,5.1 5.1,3.8 5.2,5.9 	"/>
	<polygon class="st2" points="7,2.9 5.1,3.8 6.3,5.1 	"/>
	<polygon class="st4" points="1.5,7.6 0,10.3 2.8,8.1 	"/>
	<polygon class="st3" points="2.8,8.1 0,10.3 2.6,11 	"/>
	<polygon class="st5" points="3.8,18.1 4.9,16.2 3.2,14.9 	"/>
	<polygon class="st2" points="4.9,16.2 7,16.8 6.3,14.2 	"/>
	<polygon class="st4" points="2.1,16.9 3.8,18.1 3.2,14.9 	"/>
	<polygon class="st4" points="3.2,14.9 4.9,16.2 6.3,14.2 	"/>
	<polygon class="st4" points="0,10.3 1.4,14 2.6,11 	"/>
	<polygon class="st2" points="1.4,14 2.1,16.9 3.2,14.9 	"/>
	<polygon class="st3" points="2.6,11 1.4,14 3.2,14.9 	"/>
	<polygon class="st1" points="14.9,12.2 10.9,10.9 11,13.2 	"/>
	<polygon class="st2" points="11,13.2 10.9,10.9 6.9,11.7 	"/>
	<polygon class="st3" points="6.3,5.1 5.8,8.7 8.1,7.1 	"/>
	<polygon class="st2" points="8.1,7.1 10,6.3 6.3,5.1 	"/>
	<polygon class="st1" points="8.1,8.7 10,6.3 8.1,7.1 	"/>
	<polygon class="st1" points="10,6.3 9.4,3.6 6.3,5.1 	"/>
	<polygon class="st3" points="9.4,3.6 7.6,3 7,2.9 6.3,5.1 	"/>
</g>
</svg>
