<?xml version="1.0" encoding="utf-8"?>
<!-- Generator: Adobe Illustrator 18.0.0, SVG Export Plug-In . SVG Version: 6.00 Build 0)  -->
<!DOCTYPE svg PUBLIC "-//W3C//DTD SVG 1.1//EN" "http://www.w3.org/Graphics/SVG/1.1/DTD/svg11.dtd">
<svg version="1.1" id="图层_1" xmlns="http://www.w3.org/2000/svg" xmlns:xlink="http://www.w3.org/1999/xlink" x="0px" y="0px"
	 viewBox="0 0 22 22" enable-background="new 0 0 22 22" xml:space="preserve">
<g>
	<polygon fill="#AFD9E9" points="7.1,11.6 6,8.7 3.2,10.8 5.1,11 	"/>
	<polygon fill="none" points="11.6,18.2 11.6,18.2 11.5,18.2 	"/>
	<polygon fill="none" stroke="#231815" stroke-width="0.8829" points="11,12.8 11.1,12.9 11.1,12.8 	"/>
	<polygon fill="#1E95D4" points="11.1,12.9 13.8,14 14.6,12.1 11,12.8 	"/>
	<polygon fill="#AFD9E9" points="6.6,13.8 11,12.8 7.1,11.6 	"/>
	<polygon fill="#1E95D4" points="3.2,10.8 3.7,14.4 5.1,11 	"/>
	<polygon fill="#1888CA" points="5.1,11 3.7,14.4 7.1,11.6 	"/>
	<polygon fill="#1E95D4" points="3.7,14.4 6.6,13.8 7.1,11.6 	"/>
	<polygon fill="none" stroke="#231815" stroke-width="0.8829" points="6.7,5.3 6.7,5.3 6.7,5.3 	"/>
	<polygon fill="#0A5DA4" points="6,8.7 8.3,8.8 8.4,7.2 	"/>
	<polygon fill="#1888CA" points="10.9,10.7 8.3,8.8 7.1,11.6 	"/>
	<polygon fill="none" stroke="#231815" stroke-width="0.8829" points="6.7,5.3 6.7,5.3 6.7,5.3 	"/>
	<polygon fill="#1E95D4" points="7.1,11.6 8.3,8.8 6,8.7 	"/>
	<polygon fill="#0A5DA4" points="11.5,19.3 11.5,18.2 11.5,18.2 10.5,17.6 	"/>
	<polygon fill="#00417A" points="8.7,19.3 11.5,19.3 10.5,17.6 	"/>
	<polygon fill="#00417A" points="10.5,17.6 11.5,18.2 11.6,18.2 12.3,15.6 	"/>
	<polygon fill="#0A5DA4" points="15,19.1 17.1,17.2 14.5,17.5 	"/>
	<polygon fill="#00417A" points="12.2,20.6 15.1,20.6 15,19.1 13.2,19.5 15.1,20.5 13.2,19.5 15,19.1 14.5,17.5 	"/>
	<polygon fill="#0A5DA4" points="11.6,18.2 13.7,16.5 12.3,15.6 	"/>
	<polygon fill="#00417A" points="17.1,17.2 16,15.1 14.5,17.5 	"/>
	<polygon fill="#00417A" points="1.2,19.9 3.9,19.9 2.2,18.7 	"/>
	<polygon fill="#1888CA" points="10.6,0.6 7.9,3.3 9.2,2.8 	"/>
	<polygon fill="#1888CA" points="8.2,1.6 5.5,4.2 7.2,3.2 	"/>
	<polygon fill="#1888CA" points="13.7,16.5 14.5,17.5 16,15.1 12.3,15.6 	"/>
	<polygon fill="#1E95D4" points="9.2,2.8 7.9,3.3 9.4,4 	"/>
	<polygon fill="#AFD9E9" points="7.5,3.3 8.2,1.6 7.2,3.2 	"/>
	<polygon fill="#AFD9E9" points="9.4,4 10.6,0.6 9.2,2.8 	"/>
	<polygon fill="#1888CA" points="3.2,17.6 2.2,18.7 4.3,17.5 2.6,16.3 	"/>
	<polygon fill="#1E95D4" points="3.3,8.2 3.2,10.8 6,8.7 	"/>
	<polygon fill="#0A5DA4" points="3.9,19.9 4.3,17.5 2.2,18.7 	"/>
	<polygon fill="#0A5DA4" points="16,15.1 15.9,12.5 13.8,14 	"/>
	<polygon fill="#1E95D4" points="12.3,15.6 16,15.1 13.8,14 	"/>
	<polygon fill="#1888CA" points="13.8,14 15.9,12.5 14.6,12.1 	"/>
	<polygon fill="#1888CA" points="15.9,12.5 18,11.3 17.2,10.8 	"/>
	<polygon fill="#0A5DA4" points="10.8,14.6 12.3,15.6 13.8,14 	"/>
	<polygon fill="#1E95D4" points="15.7,11.5 14.6,12.1 15.9,12.5 17.2,10.8 	"/>
	<polygon fill="#00417A" points="9.3,15.4 10.8,14.6 6.6,13.8 	"/>
	<polygon fill="#1888CA" points="11,12.8 10.8,14.6 13.8,14 	"/>
	<polygon fill="#0A5DA4" points="11,12.8 6.6,13.8 10.8,14.6 	"/>
	<polygon fill="#AFD9E9" points="19.7,9.7 21.3,7.8 18.8,8.6 19.7,9.7 	"/>
	<polygon fill="#1888CA" points="19.2,11.6 20.8,11 19.7,9.7 	"/>
	<polygon fill="#0A5DA4" points="19.7,9.7 18,11.3 19.2,11.6 	"/>
	<polygon fill="#1E95D4" points="17.2,10.8 18,11.3 18.8,8.6 	"/>
	<polygon fill="#1E95D4" points="19.7,9.7 19.7,9.7 20.8,11 21.3,7.8 	"/>
	<polygon fill="#1888CA" points="18.8,8.6 18,11.3 19.7,9.7 	"/>
	<polygon fill="#1888CA" points="7.2,16.2 9.3,15.4 6.6,13.8 	"/>
	<polygon fill="#1888CA" points="6,8.7 3.3,5.5 3.3,8.2 	"/>
	<polygon fill="#1888CA" points="5.5,4.2 3.3,5.5 5.7,6.1 	"/>
	<polygon fill="#1E95D4" points="5.7,6.1 3.3,5.5 6,8.7 	"/>
	<polygon fill="#1E95D4" points="3.3,8.2 3.3,5.5 2.2,7.7 3.2,8.2 	"/>
	<polygon fill="#0A5DA4" points="6,8.7 6.7,5.3 6.7,5.3 5.5,4.2 5.7,6.1 	"/>
	<polygon fill="#1E95D4" points="6.7,5.3 7.2,3.2 5.5,4.2 6.7,5.3 	"/>
	<polygon fill="#0A5DA4" points="2.2,7.7 0.7,10.2 3.2,8.2 	"/>
	<polygon fill="#1888CA" points="3.3,8.2 3.2,8.2 0.7,10.2 3.2,10.8 	"/>
	<polygon fill="#00417A" points="4.3,17.5 5.4,15.8 3.7,14.4 	"/>
	<polygon fill="#1E95D4" points="5.4,15.8 7.2,16.2 6.6,13.8 	"/>
	<polygon fill="#0A5DA4" points="2.6,16.3 4.3,17.5 3.7,14.4 	"/>
	<polygon fill="#0A5DA4" points="3.7,14.4 5.4,15.8 6.6,13.8 	"/>
	<polygon fill="#0A5DA4" points="0.7,10.2 2.1,13.6 3.2,10.8 	"/>
	<polygon fill="#1E95D4" points="2.1,13.6 2.6,16.3 3.7,14.4 	"/>
	<polygon fill="#1888CA" points="3.2,10.8 2.1,13.6 3.7,14.4 	"/>
	<polygon fill="#AFD9E9" points="14.6,12.1 10.9,10.7 11,12.8 	"/>
	<polygon fill="#1E95D4" points="11,12.8 11,12.8 10.9,10.7 7.1,11.6 	"/>
	<polygon fill="#1888CA" points="6.7,5.3 6,8.7 8.4,7.2 	"/>
	<polygon fill="#1E95D4" points="6.7,5.3 8.4,7.2 10.1,6.4 6.7,5.3 	"/>
	<polygon fill="#AFD9E9" points="8.3,8.8 10.1,6.4 8.4,7.2 	"/>
	<polygon fill="#AFD9E9" points="6.7,5.3 10.1,6.4 9.4,4 	"/>
	<polygon fill="#1888CA" points="9.4,4 7.9,3.3 7.2,3.2 6.7,5.3 	"/>
</g>
</svg>
