<?xml version="1.0" encoding="utf-8"?>
<!-- Generator: Adobe Illustrator 21.0.0, SVG Export Plug-In . SVG Version: 6.00 Build 0)  -->
<svg version="1.1" id="svg" xmlns="http://www.w3.org/2000/svg" xmlns:xlink="http://www.w3.org/1999/xlink" x="0px" y="0px"
	 viewBox="0 0 22 22" style="enable-background:new 0 0 22 22;" xml:space="preserve">
<style type="text/css">
	.st0{fill:#5C4037;}
	.st1{fill:url(#SVGID_1_);}
	.st2{fill:#AE1F24;}
	.st3{opacity:0.3;fill:#DA706F;enable-background:new    ;}
	.st4{opacity:0.65;fill:url(#SVGID_2_);enable-background:new    ;}
	.st5{fill:url(#SVGID_3_);}
	.st6{fill:#720914;}
</style>
<polygon class="st0" points="2,22 2,5 0.5,5 0.5,2 6,2 6,0 16,0 16,2 21.5,2 21.5,5 20,5 20,22 "/>
<linearGradient id="SVGID_1_" gradientUnits="userSpaceOnUse" x1="2.5" y1="-1862.28" x2="19.5" y2="-1862.28" gradientTransform="matrix(1 0 0 -1 0 -1849.28)">
	<stop  offset="0" style="stop-color:#F8CACE"/>
	<stop  offset="0.48" style="stop-color:#DA706F"/>
	<stop  offset="0.49" style="stop-color:#DA706F"/>
	<stop  offset="0.52" style="stop-color:#DA706F"/>
	<stop  offset="1" style="stop-color:#F8CACE"/>
</linearGradient>
<rect x="2.5" y="4.5" class="st1" width="17" height="17"/>
<rect x="15" y="7.5" class="st2" width="2" height="12"/>
<rect x="5" y="7.5" class="st2" width="2" height="12"/>
<rect x="10" y="7.5" class="st2" width="2" height="12"/>
<rect x="2.5" y="4.5" class="st3" width="17" height="1"/>
<rect x="1" y="2.5" class="st2" width="20" height="1.5"/>
<linearGradient id="SVGID_2_" gradientUnits="userSpaceOnUse" x1="1" y1="-1852.78" x2="21" y2="-1852.78" gradientTransform="matrix(1 0 0 -1 0 -1849.28)">
	<stop  offset="0.05" style="stop-color:#DA706F"/>
	<stop  offset="0.25" style="stop-color:#DA706F"/>
	<stop  offset="0.51" style="stop-color:#AE1F24"/>
	<stop  offset="0.74" style="stop-color:#DA706F"/>
	<stop  offset="1" style="stop-color:#DA706F"/>
</linearGradient>
<rect x="1" y="2.5" class="st4" width="20" height="2"/>
<linearGradient id="SVGID_3_" gradientUnits="userSpaceOnUse" x1="6.5" y1="-1850.78" x2="15.5" y2="-1850.78" gradientTransform="matrix(1 0 0 -1 0 -1849.28)">
	<stop  offset="0.05" style="stop-color:#AE1F24"/>
	<stop  offset="0.25" style="stop-color:#DA706F"/>
	<stop  offset="0.51" style="stop-color:#DA706F"/>
	<stop  offset="0.74" style="stop-color:#DA706F"/>
	<stop  offset="1" style="stop-color:#AE1F24"/>
</linearGradient>
<polygon class="st5" points="6.5,0.5 6.5,2.5 7.9,2.5 7.9,1.5 14.1,1.5 14.1,2.5 15.5,2.5 15.5,0.5 "/>
<rect x="1" y="4" class="st6" width="20" height="0.5"/>
</svg>
