<?xml version="1.0" encoding="utf-8"?>
<!-- Generator: Adobe Illustrator 17.1.0, SVG Export Plug-In . SVG Version: 6.00 Build 0)  -->
<!DOCTYPE svg PUBLIC "-//W3C//DTD SVG 1.1//EN" "http://www.w3.org/Graphics/SVG/1.1/DTD/svg11.dtd">
<svg version="1.1"
	 id="svg2" inkscape:export-filename="/media/Data/Main/Visuals/Icons/Numix/Desktop/repos/numix-wiki/Gjorgi/Numix-folders/48/New/folder-144.png" inkscape:export-ydpi="270" inkscape:export-xdpi="270" sodipodi:docname="user-home.svg" inkscape:version="0.48.4 r9939" xmlns:svg="http://www.w3.org/2000/svg" xmlns:sodipodi="http://sodipodi.sourceforge.net/DTD/sodipodi-0.dtd" xmlns:inkscape="http://www.inkscape.org/namespaces/inkscape" xmlns:dc="http://purl.org/dc/elements/1.1/" xmlns:cc="http://creativecommons.org/ns#" xmlns:rdf="http://www.w3.org/1999/02/22-rdf-syntax-ns#"
	 xmlns="http://www.w3.org/2000/svg" xmlns:xlink="http://www.w3.org/1999/xlink" x="0px" y="0px" width="22px" height="22px"
	 viewBox="0 0 22 22" enable-background="new 0 0 22 22" xml:space="preserve">
<g>
	<path fill="#606061" d="M2.9,22l-0.1-0.2c-0.1-0.1-2-3.4-2-7.8c0-4.4,1.7-8.3,1.7-8.5l0.1-0.3h3.2L0.8,4.4l0.5-3.2L7.1,2l0.3-2
		L16,1.4l-0.3,2l5.6,0.9l-0.5,3.2l-1.5-0.2c0.5,1.6,1.1,4,1.1,6.6c0,4.5-2,7.7-2.1,7.8L18.1,22H2.9z M13.4,3l0-0.3L9.3,2l0,0.3
		L13.4,3z"/>
	
		<linearGradient id="SVGID_1_" gradientUnits="userSpaceOnUse" x1="1.2296" y1="-188.45" x2="19.7875" y2="-188.45" gradientTransform="matrix(1 0 0 1 0 202)">
		<stop  offset="4.840000e-002" style="stop-color:#CED7DB"/>
		<stop  offset="0.1017" style="stop-color:#C4CDD2"/>
		<stop  offset="0.2688" style="stop-color:#A7B5BC"/>
		<stop  offset="0.4093" style="stop-color:#94A6B0"/>
		<stop  offset="0.5054" style="stop-color:#8DA1AB"/>
		<stop  offset="1" style="stop-color:#CED7DB"/>
	</linearGradient>
	<path fill="url(#SVGID_1_)" d="M18,5.6h-7.5H3c0,0-1.7,3.9-1.7,8.3s1.9,7.6,1.9,7.6h7.3h7.3c0,0,2-3.2,2-7.6S18,5.6,18,5.6z"/>
	<path fill="#5E7B88" d="M15.1,3.8l0.3-2.1L7.8,0.5l-0.3,2L1.8,1.6L1.4,3.9l18.9,3.1l0.4-2.3L15.1,3.8z M8.7,2.7L8.7,2.7l0.2-1.2
		L14,2.3l-0.2,1.3L8.7,2.7L8.7,2.7z"/>
	<g>
		<g>
			<path fill="#5E7B88" d="M5.7,20.3H4.2c0,0-1.3-3.1-1.3-6.8s1.3-5.8,1.3-5.8h1.5c0,0-1.3,1.6-1.3,5.8S5.7,20.3,5.7,20.3z"/>
		</g>
		<path fill="#5E7B88" d="M9.3,20.3H7.8c0,0-1-3.1-1-6.8s1-5.8,1-5.8h1.5c0,0-1,1.6-1,5.8S9.3,20.3,9.3,20.3z"/>
		<path fill="#5E7B88" d="M15.4,20.3h1.5c0,0,1.3-3.1,1.3-6.8s-1.3-5.8-1.3-5.8h-1.5c0,0,1.3,1.6,1.3,5.8
			C16.7,17.8,15.4,20.3,15.4,20.3z"/>
		<path fill="#5E7B88" d="M11.7,20.3h1.5c0,0,1-3.1,1-6.8s-1-5.8-1-5.8h-1.5c0,0,1,1.6,1,5.9C12.6,17.8,11.7,20.3,11.7,20.3z"/>
	</g>
</g>
</svg>
