<?xml version="1.0" encoding="utf-8"?>
<!-- Generator: Adobe Illustrator 21.0.0, SVG Export Plug-In . SVG Version: 6.00 Build 0)  -->
<svg version="1.1" id="蓝牙" xmlns="http://www.w3.org/2000/svg" xmlns:xlink="http://www.w3.org/1999/xlink" x="0px" y="0px"
	 viewBox="0 0 16 16" style="enable-background:new 0 0 16 16;" xml:space="preserve">
<style type="text/css">
	.st0{fill:#FFFFFF;}
</style>
<title>16</title>
<g id="_16锁">
	<rect x="12" y="9" class="st0" width="2" height="1"/>
	<polygon class="st0" points="15,12 15,10 14,10 14,12 12,12 12,10 11,10 11,12 10,12 10,16 16,16 16,12 	"/>
	<path class="st0" d="M9,14l-1,0.7V9l2,1.6V9.3L8.3,8l5.1-4L8,0l0,0H7v7L2.9,3.7L2.3,4.5L6.7,8l-4.4,3.5l0.6,0.8L7,9v7h1l0,0l1-0.7
		V14z M8,1.3L11.8,4L8,7V1.3z"/>
</g>
</svg>
