<?xml version="1.0" encoding="utf-8"?>
<!-- Generator: Adobe Illustrator 21.0.0, SVG Export Plug-In . SVG Version: 6.00 Build 0)  -->
<svg version="1.1" id="图层_15" xmlns="http://www.w3.org/2000/svg" xmlns:xlink="http://www.w3.org/1999/xlink" x="0px" y="0px"
	 viewBox="0 0 16 16" style="enable-background:new 0 0 16 16;" xml:space="preserve">
<style type="text/css">
	.st0{fill:#FFFFFF;}
	.st1{fill:#61A232;}
</style>
<title>16</title>
<g id="_16">
	<path class="st0" d="M13,6.5l2.2,3.3l-5,3.3L8,9.8L13,6.5z M13.8,9.6l-1.1-1.7l-3.3,2.2l1.1,1.7L13.8,9.6z"/>
	<path class="st0" d="M8,9.8l-2.2,3.3l-5-3.3L3,6.5L8,9.8z M5.5,11.8l1.1-1.7L3.3,7.9L2.2,9.6L5.5,11.8z"/>
	<path class="st0" d="M8,3.3L10.2,0l5,3.3L13,6.6L8,3.3z M10.5,1.3L9.4,3l3.3,2.2l1.1-1.7L10.5,1.3z"/>
	<path class="st0" d="M3,6.6L0.8,3.3l5-3.3L8,3.3L3,6.6z M2.2,3.6l1.1,1.7l3.3-2.2L5.5,1.4L2.2,3.6z"/>
	<polygon class="st0" points="7.5,9.8 7.5,14.9 3,13.3 3,10.5 2,10 2,14 7.5,16 8.5,16 8.5,9.8 	"/>
	<polygon class="st0" points="8.5,9.8 8.5,14.9 13,13.3 13,10.5 14,10 14,14 8.5,16 7.5,16 7.5,9.8 	"/>
	<rect x="5.9" y="5.8" transform="matrix(0.7071 -0.7071 0.7071 0.7071 -2.8319 6.2302)" class="st1" width="0.5" height="1.5"/>
	<rect x="6.1" y="6.4" transform="matrix(0.7071 -0.7071 0.7071 0.7071 -2.6632 6.7981)" class="st1" width="1.5" height="0.5"/>
	<path class="st1" d="M8,4.8c-1,0-1.8,0.7-1.8,1.7c0,0,0,0,0,0.1c0,0.2,0,0.3,0.1,0.5h0.2C6.4,6.8,6.7,6.7,6.7,6.5
		c0-0.7,0.6-1.3,1.2-1.3c0.7,0,1.3,0.6,1.3,1.2c0,0.7-0.5,1.2-1.2,1.3v0.5c1,0,1.8-0.8,1.8-1.8S9,4.8,8,4.8z"/>
</g>
</svg>
