<?xml version="1.0" encoding="utf-8"?>
<!-- Generator: Adobe Illustrator 21.0.0, SVG Export Plug-In . SVG Version: 6.00 Build 0)  -->
<svg version="1.1" id="图层_15" xmlns="http://www.w3.org/2000/svg" xmlns:xlink="http://www.w3.org/1999/xlink" x="0px" y="0px"
	 viewBox="0 0 16 16" style="enable-background:new 0 0 16 16;" xml:space="preserve">
<style type="text/css">
	.st0{fill:#E50000;}
	.st1{fill:#FFFFFF;}
</style>
<title>16</title>
<g id="_16">
	<rect x="12" y="9" class="st0" width="1" height="5"/>
	<rect x="12" y="15" class="st0" width="1" height="1"/>
	<path class="st1" d="M15.2,3.3l-5-3.3L8,3.3l4.9,3.2L8,9.8l0,0L3.1,6.6L8,3.3L5.8,0l-5,3.3L3,6.6L0.8,9.8L2,10.6V14l5.5,2h1
		l2.5-0.9V14l-2.5,0.9v-4.3l1.7,2.6l0.8-0.5v-1.2l-0.5,0.3l-1.1-1.7L11,9l0,0l0,0l1.7-1.1L13.5,9H14v1.6l1.2-0.8L13,6.5L15.2,3.3z
		 M2.2,3.6l3.3-2.2l1.1,1.7L3.3,5.3L2.2,3.6z M3.3,7.9l3.3,2.2l-1.1,1.7L2.2,9.6L3.3,7.9z M7.5,14.9L3,13.3v-2l2.8,1.9l1.7-2.6V14.9
		z M12.8,5.3L9.4,3l1.1-1.7l3.3,2.2L12.8,5.3z"/>
</g>
</svg>
