<?xml version="1.0" encoding="utf-8"?>
<!-- Generator: Adobe Illustrator 21.0.0, SVG Export Plug-In . SVG Version: 6.00 Build 0)  -->
<svg version="1.1" id="图层_16" xmlns="http://www.w3.org/2000/svg" xmlns:xlink="http://www.w3.org/1999/xlink" x="0px" y="0px"
	 viewBox="0 0 16 16" style="enable-background:new 0 0 16 16;" xml:space="preserve">
<style type="text/css">
	.st0{fill:#FFFFFF;}
</style>
<title>16</title>
<g id="_16">
	<polygon class="st0" points="1,4 10,4 10,3 1,3 0,3 0,4 0,11 0,12 1,12 7,12 7,14 4,14 4,15 7,15 8,15 11,15 11,14 8,14 8,12 
		12,12 12,11 1,11 	"/>
	<rect x="12" y="1" class="st0" width="1" height="2"/>
	<rect x="14" y="1" class="st0" width="1" height="2"/>
	<polygon class="st0" points="15,3 15,7 12,7 12,3 11,3 11,8 12,8 12,9 13,9 13,15 14,15 14,9 15,9 15,8 16,8 16,3 	"/>
	<rect x="13" y="4" class="st0" width="1" height="2"/>
</g>
</svg>
