<?xml version="1.0" encoding="utf-8"?>
<!-- Generator: Adobe Illustrator 21.0.0, SVG Export Plug-In . SVG Version: 6.00 Build 0)  -->
<svg version="1.1" id="信息" xmlns="http://www.w3.org/2000/svg" xmlns:xlink="http://www.w3.org/1999/xlink" x="0px" y="0px"
	 viewBox="0 0 16 16" style="enable-background:new 0 0 16 16;" xml:space="preserve">
<style type="text/css">
	.st0{fill:#FFFFFF;}
</style>
<title>16</title>
<g id="_16">
	<rect x="3.5" y="6" class="st0" width="8" height="1"/>
	<rect x="3.5" y="8" class="st0" width="5" height="1"/>
	<path class="st0" d="M2,16v-4.6C0.7,10.3,0,8.7,0,7c0-3.6,3.4-6.5,7.5-6.5S15,3.4,15,7s-3.4,6.5-7.5,6.5c-0.6,0-1.2-0.1-1.8-0.2
		L2,16z M7.5,1.5C3.9,1.5,1,4,1,7c0,1.5,0.7,2.9,1.8,3.8L3,11v3l2.5-1.8l0.2,0.1c0.6,0.1,1.2,0.2,1.8,0.2C11.1,12.5,14,10,14,7
		S11.1,1.5,7.5,1.5z"/>
</g>
</svg>
