<?xml version="1.0" encoding="utf-8"?>
<!-- Generator: Adobe Illustrator 21.0.0, SVG Export Plug-In . SVG Version: 6.00 Build 0)  -->
<svg version="1.1" id="图层_23" xmlns="http://www.w3.org/2000/svg" xmlns:xlink="http://www.w3.org/1999/xlink" x="0px" y="0px"
	 viewBox="0 0 16 16" style="enable-background:new 0 0 16 16;" xml:space="preserve">
<style type="text/css">
	.st0{fill:#FFFFFF;}
	.st1{opacity:0.2;}
</style>
<title>16</title>
<g id="_16">
	<rect x="6" y="10" class="st0" width="4" height="1"/>
	<rect x="5" y="13" class="st0" width="5" height="1"/>
	<polygon class="st0" points="7.1,6 3.7,16 4.8,16 8.1,6 	"/>
	<polygon class="st0" points="10.9,12 8.9,6 7.9,6 9.9,12 	"/>
	<rect x="13" y="10" class="st0" width="1" height="1"/>
	<path class="st0" d="M15,12v-1h-1v1h-1v-1h-1v1h-1v4h5v-4H15z M15,15h-3v-2h3V15z"/>
	<g class="st1">
		<path class="st0" d="M14,0v1.7c1.3,2.2,1.3,5,0,7.2v1.7C16.7,7.5,16.7,3,14,0z"/>
		<path class="st0" d="M2,8.9c-1.3-2.2-1.3-5,0-7.2V0c-2.7,3-2.7,7.5,0,10.6V8.9z"/>
	</g>
	<path class="st0" d="M4,8.3c-1.3-1.8-1.3-4.2,0-6V0.8C1.5,3,1.3,6.8,3.6,9.3C3.7,9.5,3.8,9.6,4,9.7V8.3z"/>
	<path class="st0" d="M12,0.8v1.5c1.3,1.8,1.3,4.2,0,6v1.5c2.5-2.2,2.7-6,0.4-8.5C12.3,1.1,12.2,1,12,0.8z"/>
	<path class="st0" d="M5.5,6.9c-0.7-1-0.7-2.3,0-3.3V2.2c-1.7,1.4-2,3.9-0.6,5.6C5.1,8,5.3,8.2,5.5,8.4V6.9z"/>
	<path class="st0" d="M10.5,2.2v1.4c0.7,1,0.7,2.3,0,3.3v1.5c1.7-1.4,2-3.9,0.6-5.6C10.9,2.5,10.7,2.4,10.5,2.2z"/>
	<path class="st0" d="M8,4C7.2,4,6.5,4.7,6.5,5.5S7.2,7,8,7s1.5-0.7,1.5-1.5S8.8,4,8,4z M8,6C7.7,6,7.5,5.8,7.5,5.5S7.7,5,8,5
		s0.5,0.2,0.5,0.5S8.3,6,8,6z"/>
</g>
</svg>
