<?xml version="1.0" encoding="utf-8"?>
<!-- Generator: Adobe Illustrator 21.0.0, SVG Export Plug-In . SVG Version: 6.00 Build 0)  -->
<svg version="1.1" id="有线网络" xmlns="http://www.w3.org/2000/svg" xmlns:xlink="http://www.w3.org/1999/xlink" x="0px"
	 y="0px" viewBox="0 0 16 16" style="enable-background:new 0 0 16 16;" xml:space="preserve">
<style type="text/css">
	.st0{fill:#FFFFFF;}
</style>
<title>16</title>
<g id="_16">
	<polygon class="st0" points="1,5 10,5 10,4 1,4 0,4 0,5 0,12 0,13 1,13 7,13 7,15 4,15 4,16 7,16 8,16 9,16 9,15 8,15 8,13 9,13 
		9,12 1,12 	"/>
	<rect x="12" y="1" class="st0" width="1" height="2"/>
	<rect x="14" y="1" class="st0" width="1" height="2"/>
	<polygon class="st0" points="15,3 15,7 12,7 12,3 11,3 11,8 12,8 13,8 13,8 14,8 14,8 15,8 16,8 16,3 	"/>
	<rect x="13" y="4" class="st0" width="1" height="2"/>
	<rect x="12" y="9" class="st0" width="2" height="1"/>
	<polygon class="st0" points="15,12 15,10 14,10 14,12 12,12 12,10 11,10 11,12 10,12 10,16 16,16 16,12 	"/>
</g>
</svg>
