<?xml version="1.0" encoding="utf-8"?>
<!-- Generator: Adobe Illustrator 21.0.0, SVG Export Plug-In . SVG Version: 6.00 Build 0)  -->
<svg version="1.1" id="音量-0" xmlns="http://www.w3.org/2000/svg" xmlns:xlink="http://www.w3.org/1999/xlink" x="0px" y="0px"
	 viewBox="0 0 256 256" style="enable-background:new 0 0 256 256;" xml:space="preserve">
<style type="text/css">
	.st0{fill:#808080;}
	.st1{opacity:0.2;fill:#808080;enable-background:new    ;}
</style>
<title>256</title>
<g id="_256">
	<path class="st0" d="M52,69H6v118h46l59,59V10L52,69z M104,229l-49-49H13V76h42l49-50V229z"/>
	<path class="st0" d="M108,86v7c19.3,0,35,15.7,35,35s-15.7,35-35,35v7c23.2,0,42-18.8,42-42S131.2,86,108,86z"/>
	<path class="st1" d="M141,54.2v7.2c36.8,9.9,58.6,47.8,48.6,84.6c-6.4,23.7-24.9,42.2-48.6,48.6v7.2c40.8-9.9,65.8-51.1,55.8-91.8
		C190.1,82.4,168.6,60.9,141,54.2z"/>
	<path class="st1" d="M178,31v7.3c49,15.4,76.2,67.7,60.8,116.6c-9.1,29-31.8,51.6-60.8,60.8v7.3c53-15.5,83.5-71,68-124
		C236.4,66.2,210.8,40.6,178,31z"/>
</g>
</svg>
