<?xml version="1.0" encoding="utf-8"?>
<!-- Generator: Adobe Illustrator 25.0.0, SVG Export Plug-In . SVG Version: 6.00 Build 0)  -->
<svg version="1.1" id="图层_1" xmlns="http://www.w3.org/2000/svg" xmlns:xlink="http://www.w3.org/1999/xlink" x="0px" y="0px"
	 viewBox="0 0 16 16" style="enable-background:new 0 0 16 16;" xml:space="preserve">
<style type="text/css">
	.st0{opacity:0.75;fill:#1F2022;enable-background:new    ;}
</style>
<path class="st0" d="M13.7,0.2C13.6,0.1,13.4,0,13.2,0c-0.6,0-7.3,2.2-7.4,2.2C5.1,2.6,5,3.1,5,3.7v8.2c-0.4-0.2-0.8-0.4-1.2-0.4
	c-1.2,0-2.2,1-2.2,2.2s1,2.2,2.2,2.2c1.1,0,2-0.8,2.1-1.9l0,0V6.2L13,4v4.9c-0.4-0.2-0.8-0.4-1.2-0.4c-1.2,0-2.2,1-2.2,2.2
	s1,2.2,2.2,2.2c1.1,0,2-0.8,2.2-1.9l0,0V1.4C14.1,1,13.9,0.5,13.7,0.2z M3.8,14.9c-0.7,0-1.2-0.5-1.2-1.2s0.5-1.2,1.2-1.2
	S5,13.1,5,13.7S4.5,14.9,3.8,14.9L3.8,14.9z M6,5.2V3.7c0-0.1,0-0.3,0-0.4l0.1-0.1C6.6,3,11.7,1.5,13,1.1V3L6,5.2z M11.8,11.9
	c-0.7,0-1.2-0.5-1.2-1.2s0.5-1.2,1.2-1.2S13,10,13,10.7S12.5,11.9,11.8,11.9z"/>
</svg>
