<?xml version="1.0" encoding="utf-8"?>
<!-- Generator: Adobe Illustrator 24.0.0, SVG Export Plug-In . SVG Version: 6.00 Build 0)  -->
<svg version="1.1" id="文件夹打开" xmlns="http://www.w3.org/2000/svg" xmlns:xlink="http://www.w3.org/1999/xlink" x="0px"
	 y="0px" viewBox="0 0 128 128" enable-background="new 0 0 128 128" xml:space="preserve">
<title>128</title>
<g id="_128">
	
		<linearGradient id="SVGID_1_" gradientUnits="userSpaceOnUse" x1="55.5" y1="108.11" x2="55.5" y2="20.03" gradientTransform="matrix(1 0 0 -1 0 128)">
		<stop  offset="7.000000e-02" style="stop-color:#F6AF1F"/>
		<stop  offset="0.85" style="stop-color:#F6BC29"/>
		<stop  offset="1" style="stop-color:#F7D33C"/>
	</linearGradient>
	<path fill="url(#SVGID_1_)" d="M97.1,23H43l-4.3-5.3c-0.4-0.4-0.9-0.7-1.5-0.7H12.6C10.1,17,8,18.6,8,20.5v82.3
		c0,2.9,2.3,5.2,5.2,5.2h83.9c3.3,0,5.9-2.7,5.9-5.9c0,0,0,0,0,0V28.9C103,25.7,100.3,23,97.1,23L97.1,23z"/>
	<path fill="#FFFFFF" d="M19,29H92c2.2,0,4,1.8,4,4v38.4c0,2.2-1.8,4-4,4H19c-2.2,0-4-1.8-4-4V33C15,30.8,16.8,29,19,29z"/>
	
		<linearGradient id="SVGID_2_" gradientUnits="userSpaceOnUse" x1="101.2891" y1="13.1467" x2="101.2891" y2="71.8167" gradientTransform="matrix(1 0 0.21 -0.96 -46.47 119.29)">
		<stop  offset="3.000000e-02" style="stop-color:#F1C528"/>
		<stop  offset="1" style="stop-color:#F7D33C"/>
	</linearGradient>
	<path fill="url(#SVGID_2_)" d="M98.2,111H15.5c-5.1,0-8.4-4-7.3-9l10.6-49.7c0.9-3.6,4.1-6.2,7.8-6.3h88.2c2.8-0.1,5.1,2,5.3,4.7
		c0,0.5,0,1.1-0.2,1.6L109.3,102C108,107.1,103.5,110.8,98.2,111z"/>
</g>
</svg>
