<?xml version="1.0" encoding="utf-8"?>
<!-- Generator: Adobe Illustrator 24.0.0, SVG Export Plug-In . SVG Version: 6.00 Build 0)  -->
<svg version="1.1" id="文件夹" xmlns="http://www.w3.org/2000/svg" xmlns:xlink="http://www.w3.org/1999/xlink" x="0px" y="0px"
	 viewBox="0 0 128 128" enable-background="new 0 0 128 128" xml:space="preserve">
<title>128</title>
<g id="白面">
	<g id="_128">
		
			<linearGradient id="SVGID_1_" gradientUnits="userSpaceOnUse" x1="55.5" y1="109.06" x2="55.5" y2="63" gradientTransform="matrix(1 0 0 -1 0 128)">
			<stop  offset="7.000000e-02" style="stop-color:#F6AF1F"/>
			<stop  offset="1" style="stop-color:#F7D33C"/>
		</linearGradient>
		<path fill="url(#SVGID_1_)" d="M97,23H44.1l-4.3-5.3c-0.4-0.5-1-0.7-1.6-0.7H12.8C10.1,17,8,18.6,8,20.6V72c0,3.3,2.7,6,6,6h83
			c3.3,0,6-2.7,6-6V29C103,25.7,100.3,23,97,23z"/>
		<path fill="#FFFFFF" d="M19,29h72.9c2.3,0,4.1,1.8,4.1,4.1v0v36.8c0,2.3-1.8,4.1-4.1,4.1c0,0,0,0,0,0H19.1c-2.3,0-4.1-1.8-4.1-4.1
			l0,0V33C15,30.8,16.8,29,19,29z"/>
		
			<linearGradient id="SVGID_2_" gradientUnits="userSpaceOnUse" x1="64" y1="21.68" x2="64" y2="85.93" gradientTransform="matrix(1 0 0 -1 0 128)">
			<stop  offset="3.000000e-02" style="stop-color:#F1C528"/>
			<stop  offset="1" style="stop-color:#F7D33C"/>
		</linearGradient>
		<path fill="url(#SVGID_2_)" d="M15,37h98c3.9,0,7,3.1,7,7v57c0,5.5-4.5,10-10,10H18c-5.5,0-10-4.5-10-10V44C8,40.1,11.1,37,15,37z
			"/>
	</g>
</g>
</svg>
