<?xml version="1.0" encoding="utf-8"?>
<!-- Generator: Adobe Illustrator 24.0.0, SVG Export Plug-In . SVG Version: 6.00 Build 0)  -->
<svg version="1.1" id="图层_1" xmlns="http://www.w3.org/2000/svg" xmlns:xlink="http://www.w3.org/1999/xlink" x="0px" y="0px"
	 viewBox="0 0 16 16" style="enable-background:new 0 0 16 16;" xml:space="preserve">
<g>
	<path style="fill:#808080;" d="M13,3h-3v1h3c0.6,0,1,0.4,1,1v9c0,0.6-0.4,1-1,1H4c-0.6,0-1-0.4-1-1V5c0-0.6,0.4-1,1-1h3V3H4
		C2.9,3,2,3.9,2,5v9c0,1.1,0.9,2,2,2h9c1.1,0,2-0.9,2-2V5C15,3.9,14.1,3,13,3z"/>
	<path style="fill:#808080;" d="M12.4,7.2c-0.2-0.2-0.5-0.2-0.7,0c0,0,0,0,0,0L9,9.8V1c0-0.3-0.2-0.5-0.5-0.5S8,0.7,8,1v8.8L5.3,7.2
		C5.2,7,4.8,7,4.7,7.2s-0.2,0.5,0,0.7l3.5,3.5c0.2,0.2,0.5,0.2,0.7,0c0,0,0,0,0,0l3.5-3.5C12.5,7.7,12.6,7.4,12.4,7.2
		C12.4,7.2,12.4,7.2,12.4,7.2z"/>
</g>
</svg>
