<?xml version="1.0" encoding="utf-8"?>
<!-- Generator: Adobe Illustrator 25.0.0, SVG Export Plug-In . SVG Version: 6.00 Build 0)  -->
<svg version="1.1" id="图层_1" xmlns="http://www.w3.org/2000/svg" xmlns:xlink="http://www.w3.org/1999/xlink" x="0px" y="0px"
	 viewBox="0 0 16 16" style="enable-background:new 0 0 16 16;" xml:space="preserve">
<style type="text/css">
	.st0{opacity:0.75;}
	.st1{fill:#1F2022;}
</style>
<g class="st0">
	<path class="st1" d="M14,1H2C0.9,1,0,1.9,0,3v10c0,1.1,0.9,2,2,2h12c1.1,0,2-0.9,2-2V3C16,1.9,15.1,1,14,1z M2,2h12
		c0.6,0,1,0.4,1,1v7.3l-2.1-2.1c-0.2-0.2-0.5-0.2-0.7,0l0,0l-2.6,2.6L4.9,5.2C4.8,5.1,4.6,5,4.5,5C4.3,5,4.2,5.1,4.1,5.2L1,9.1V3
		C1,2.4,1.4,2,2,2z M14,14H2c-0.6,0-1-0.4-1-1v-2.3l3.5-4.4l4.6,5.5C9.2,11.9,9.3,12,9.5,12l0,0c0.1,0,0.3-0.1,0.4-0.1l2.7-2.6
		l2.5,2.5V13C15,13.6,14.6,14,14,14z"/>
	<path class="st1" d="M11,7c1.1,0,2-0.9,2-2s-0.9-2-2-2S9,3.9,9,5S9.9,7,11,7z M11,4c0.6,0,1,0.4,1,1s-0.4,1-1,1s-1-0.4-1-1
		S10.4,4,11,4z"/>
</g>
</svg>
