<?xml version="1.0" encoding="utf-8"?>
<!-- Generator: Adobe Illustrator 25.0.0, SVG Export Plug-In . SVG Version: 6.00 Build 0)  -->
<svg version="1.1" id="图层_1" xmlns="http://www.w3.org/2000/svg" xmlns:xlink="http://www.w3.org/1999/xlink" x="0px" y="0px"
	 viewBox="0 0 16 16" style="enable-background:new 0 0 16 16;" xml:space="preserve">
<style type="text/css">
	.st0{opacity:0.75;fill:#1F2022;enable-background:new    ;}
</style>
<path class="st0" d="M13.4,3.7c1-0.2,1.5,0,1.6,0.2c0.1,0.2,0,0.6-0.6,1.5C14.2,4.8,13.8,4.2,13.4,3.7 M8,14c-1.3,0-2.5-0.4-3.5-1.2
	c1.7-0.6,3.4-1.3,5-2.3c1.6-0.9,3.1-2,4.4-3.2c0,0.2,0,0.4,0,0.7C13.9,11.3,11.3,14,8,14 M2.4,9.8C2.2,9.4,2.2,9.1,2.1,8.7
	c0-0.2,0-0.4,0-0.7c0-3.3,2.6-6,5.9-6c1.3,0,2.5,0.4,3.5,1.2c0.3,0.2,0.6,0.5,0.8,0.8c0.6,0.6,1,1.4,1.3,2.3c-1.4,1.3-3,2.5-4.6,3.5
	c-1.7,1-3.5,1.8-5.3,2.4C3.1,11.4,2.6,10.7,2.4,9.8 M1,12.1c-0.1-0.2,0-0.6,0.6-1.5c0.3,0.6,0.6,1.2,1,1.7C1.7,12.4,1.2,12.3,1,12.1
	 M15.8,3.4c-0.4-0.7-1.5-1-3.2-0.6C11.4,1.6,9.7,1,8,1C4.2,1,1.1,4.2,1.1,8l0,0c0,0.5,0,1,0.2,1.5c-1.2,1.3-1.5,2.3-1.1,3.1
	c0.4,0.5,1.1,0.8,1.7,0.7c0.5,0,1-0.1,1.4-0.2C4.6,14.4,6.3,15,8,15c3.8,0,6.9-3.2,6.9-7l0,0c0-0.5,0-1-0.2-1.5
	C15.9,5.2,16.2,4.1,15.8,3.4"/>
</svg>
