<?xml version="1.0" encoding="utf-8"?>
<!-- Generator: Adobe Illustrator 24.0.0, SVG Export Plug-In . SVG Version: 6.00 Build 0)  -->
<svg version="1.1" id="ICONS" xmlns="http://www.w3.org/2000/svg" xmlns:xlink="http://www.w3.org/1999/xlink" x="0px" y="0px"
	 viewBox="0 0 128 128" enable-background="new 0 0 128 128" xml:space="preserve">
<title>128</title>
<g id="_128">
	<g>
		
			<linearGradient id="SVGID_1_" gradientUnits="userSpaceOnUse" x1="12.005" y1="56.5168" x2="116.775" y2="56.5168" gradientTransform="matrix(1 0 0 -1 0 128)">
			<stop  offset="0.56" style="stop-color:#C3E1FB"/>
			<stop  offset="0.64" style="stop-color:#BCDFFB"/>
			<stop  offset="0.76" style="stop-color:#AADAFA"/>
			<stop  offset="0.89" style="stop-color:#8BD2FA"/>
			<stop  offset="1" style="stop-color:#6ECAF9"/>
		</linearGradient>
		<path fill="url(#SVGID_1_)" d="M14.8,67.6c-3.7,2.2-3.8,5.7,0,7.8l42.7,24.8c4.2,2.2,9.2,2.2,13.5,0l43-24.8
			c3.7-2.2,3.8-5.7,0-7.8L71.3,42.7c-4.2-2.2-9.2-2.2-13.5,0L14.8,67.6z"/>
		
			<linearGradient id="SVGID_2_" gradientUnits="userSpaceOnUse" x1="124.27" y1="32.45" x2="229.02" y2="32.45" gradientTransform="matrix(-1 0 0 -1 241.02 128)">
			<stop  offset="0.12" style="stop-color:#E6E6E6"/>
			<stop  offset="1" style="stop-color:#999999"/>
		</linearGradient>
		<path fill="url(#SVGID_2_)" d="M12,71.8c0,0.1,0,0.2,0,0.3c0,0.1,0,0.2,0.1,0.3c0,0.1,0.1,0.2,0.1,0.3s0.1,0.2,0.1,0.2
			c0,0.1,0.1,0.2,0.1,0.3c0,0.1,0.1,0.1,0.1,0.2c0.1,0.1,0.1,0.2,0.2,0.3l0.1,0.2c0.1,0.2,0.3,0.3,0.4,0.4l0.1,0.2l0.3,0.2l0.3,0.2
			l0.4,0.2l0.4,0.2l42.8,24.8c0.3,0.2,0.6,0.3,0.9,0.5l0.3,0.1l0.8,0.3l0.3,0.1l0.5,0.1l0.4,0.1l0.5,0.1l0.4,0.1
			c0.3,0.1,0.7,0.1,1.1,0.2h0.3h0.6h1.4h0.5h0.4l0.5-0.1c0.1,0,0.3,0,0.4-0.1l0.5-0.1l0.4-0.1l0.6-0.2l0.3-0.1
			c0.3-0.1,0.7-0.2,1-0.3l0.1-0.1c0.4-0.2,0.9-0.4,1.3-0.6l43-24.8c1.9-1.1,2.8-2.5,2.8-3.9v18.2c0,1.4-0.9,2.8-2.8,3.9L71,118.4
			c-0.4,0.2-0.8,0.4-1.3,0.6h-0.1h0c-0.3,0.1-0.7,0.3-1,0.3h-0.1l-0.2,0.1l-0.6,0.1h-0.2h-0.2l-0.5,0.1h-0.2h-0.2h-0.5h-0.2h-0.2H65
			h-1c-0.1,0-0.2,0-0.3,0h-0.2c-0.2,0-0.4,0-0.6,0h-0.3h-0.1c-0.4,0-0.7-0.1-1.1-0.2h-0.1l-0.3-0.1l-0.5-0.1l-0.4-0.1l-0.5-0.1h-0.1
			l-0.2-0.1c-0.3-0.1-0.5-0.2-0.7-0.3l-0.3-0.1c-0.3-0.1-0.6-0.3-0.9-0.4L14.8,93.5l-0.1-0.1l-0.2-0.2l-0.4-0.2
			c-0.1-0.1-0.2-0.1-0.3-0.2c-0.1-0.1-0.2-0.2-0.3-0.2c0,0,0,0-0.1-0.1c0,0-0.1-0.1-0.1-0.1c-0.1-0.1-0.3-0.3-0.4-0.5l-0.1-0.1
			c0,0-0.1-0.1-0.1-0.1c-0.1-0.1-0.1-0.2-0.2-0.3l-0.1-0.1v-0.1c-0.1-0.1-0.1-0.2-0.1-0.3c0-0.1-0.1-0.1-0.1-0.2c0,0,0,0,0-0.1
			l-0.1-0.3c0-0.1,0-0.1-0.1-0.2c0,0,0,0,0-0.1c0-0.1,0-0.2,0-0.3c0-0.1,0-0.1,0-0.2v-0.1L12,71.5C12,71.6,12,71.7,12,71.8z"/>
	</g>
	
		<radialGradient id="SVGID_3_" cx="64.92" cy="56.5597" r="26.4136" gradientTransform="matrix(1 0 0 -1 0 128)" gradientUnits="userSpaceOnUse">
		<stop  offset="0" style="stop-color:#3CAFCE"/>
		<stop  offset="2.000000e-02" style="stop-color:#3BAECD"/>
		<stop  offset="1" style="stop-color:#027BA5"/>
	</radialGradient>
	<path fill="url(#SVGID_3_)" d="M64.8,92c0.6,0,1.3-0.1,1.9-0.3l33.1-19.1c0.7-0.4,0.9-1.2,0.5-1.9c-0.1-0.2-0.3-0.4-0.5-0.5
		L66.9,51.2c-0.6-0.2-1.2-0.3-1.8-0.3c-0.6,0-1.3,0.1-1.8,0.3L30.1,70.3c-0.7,0.4-0.9,1.2-0.5,1.9c0.1,0.2,0.3,0.4,0.5,0.5L63,91.8
		C63.6,91.9,64.2,92,64.8,92z"/>
	<g>
		
			<linearGradient id="SVGID_4_" gradientUnits="userSpaceOnUse" x1="12.005" y1="89.6286" x2="116.775" y2="89.6286" gradientTransform="matrix(1 0 0 -1 0 128)">
			<stop  offset="0.56" style="stop-color:#E4EEF7"/>
			<stop  offset="0.68" style="stop-color:#DDECF7"/>
			<stop  offset="0.84" style="stop-color:#CBE7F8"/>
			<stop  offset="1" style="stop-color:#B3E1F9"/>
		</linearGradient>
		<path fill="url(#SVGID_4_)" d="M14.8,34.5c-3.7,2.2-3.8,5.7,0,7.8l42.7,24.8c4.2,2.2,9.2,2.2,13.5,0l43-24.8
			c3.7-2.2,3.8-5.7,0-7.8L71.3,9.6c-4.2-2.2-9.2-2.2-13.5,0L14.8,34.5z"/>
		
			<linearGradient id="SVGID_5_" gradientUnits="userSpaceOnUse" x1="124.21" y1="65.555" x2="229.02" y2="65.555" gradientTransform="matrix(-1 0 0 -1 241.02 128)">
			<stop  offset="0.12" style="stop-color:#EDEDED"/>
			<stop  offset="1" style="stop-color:#A6A6A6"/>
		</linearGradient>
		<path fill="url(#SVGID_5_)" d="M12,38.7c0,0.1,0,0.2,0,0.3c0,0.1,0,0.2,0.1,0.2c0,0.1,0.1,0.2,0.1,0.3s0.1,0.2,0.1,0.2
			c0,0.1,0.1,0.2,0.1,0.3c0,0.1,0.1,0.1,0.1,0.2c0.1,0.1,0.1,0.2,0.2,0.3l0.1,0.2c0.1,0.2,0.3,0.3,0.4,0.4l0.1,0.2l0.3,0.2
			c0.1,0.1,0.2,0.1,0.3,0.2l0.4,0.2l0.4,0.2l42.8,24.8c0.3,0.2,0.6,0.3,0.9,0.4l0.3,0.1l0.8,0.3l0.3,0.1l0.5,0.1l0.4,0.1l0.5,0.1
			l0.4,0.1c0.3,0.1,0.7,0.1,1.1,0.2h0.3h0.6h0.4h1h0.5h0.4h0.5l0.4-0.1l0.5-0.1l0.4-0.1l0.6-0.1l0.3-0.1c0.3-0.1,0.7-0.2,1-0.3h0.1
			c0.5-0.2,0.9-0.4,1.3-0.7l43-24.8c1.9-1.1,2.8-2.5,2.8-3.9v18.1c0,1.4-0.9,2.8-2.8,3.9L71,85.3c-0.4,0.2-0.8,0.4-1.3,0.6h-0.1
			h-0.1c-0.3,0.1-0.7,0.2-1,0.3h-0.1c-0.1,0-0.2,0-0.2,0.1c-0.2,0.1-0.4,0.1-0.6,0.2h-0.2h-0.2l-0.5,0.1h-0.2h-0.2h-0.5h-0.2h-0.2
			h-0.5h-0.2c-0.1,0-0.1,0-0.2,0h-0.9h-0.6h-0.3h-0.1c-0.4,0-0.7-0.1-1.1-0.2h-0.1l-0.3-0.1c-0.2,0-0.4-0.1-0.5-0.1l-0.4-0.1
			L59.8,86h-0.1l-0.2-0.1l-0.7-0.3l-0.3-0.1c-0.3-0.1-0.6-0.3-0.9-0.5L14.8,60.4l-0.1-0.1l-0.2-0.2L14.1,60l-0.3-0.2l-0.3-0.2
			c0,0-0.1,0-0.1,0c0,0-0.1-0.1-0.1-0.1c-0.1-0.1-0.3-0.3-0.4-0.4l-0.1-0.1l-0.1-0.1c-0.1-0.1-0.2-0.2-0.2-0.3l-0.1-0.1v-0.1
			c-0.1-0.1-0.1-0.2-0.1-0.3c0-0.1-0.1-0.1-0.1-0.2v-0.1c0-0.1-0.1-0.2-0.1-0.3c0-0.1,0-0.1-0.1-0.2l0,0c0-0.1,0-0.2,0-0.3
			c0-0.1,0-0.1,0-0.2v-0.1L12,38.4C12,38.5,12,38.6,12,38.7z"/>
	</g>
	<g opacity="0.8">
		
			<linearGradient id="SVGID_6_" gradientUnits="userSpaceOnUse" x1="42" y1="26.46" x2="45.43" y2="26.46" gradientTransform="matrix(1 0 0 -1 0 128)">
			<stop  offset="0" style="stop-color:#262626"/>
			<stop  offset="0.43" style="stop-color:#232323"/>
			<stop  offset="0.76" style="stop-color:#191919"/>
			<stop  offset="0.91" style="stop-color:#121212"/>
		</linearGradient>
		<polygon fill="url(#SVGID_6_)" points="45.4,98.6 45.4,106.4 42,104.4 42,96.7 		"/>
		
			<linearGradient id="SVGID_7_" gradientUnits="userSpaceOnUse" x1="48" y1="23" x2="51.43" y2="23" gradientTransform="matrix(1 0 0 -1 0 128)">
			<stop  offset="0" style="stop-color:#262626"/>
			<stop  offset="0.43" style="stop-color:#232323"/>
			<stop  offset="0.76" style="stop-color:#191919"/>
			<stop  offset="0.91" style="stop-color:#121212"/>
		</linearGradient>
		<polygon fill="url(#SVGID_7_)" points="51.4,102.1 51.4,109.9 48,107.9 48,100.1 		"/>
		
			<linearGradient id="SVGID_8_" gradientUnits="userSpaceOnUse" x1="54" y1="19.54" x2="57.43" y2="19.54" gradientTransform="matrix(1 0 0 -1 0 128)">
			<stop  offset="0" style="stop-color:#262626"/>
			<stop  offset="0.43" style="stop-color:#232323"/>
			<stop  offset="0.76" style="stop-color:#191919"/>
			<stop  offset="0.91" style="stop-color:#121212"/>
		</linearGradient>
		<polygon fill="url(#SVGID_8_)" points="57.4,105.6 57.4,113.3 54,111.4 54,103.6 		"/>
	</g>
	<g opacity="0.8">
		
			<linearGradient id="SVGID_9_" gradientUnits="userSpaceOnUse" x1="15.1" y1="75.47" x2="18.36" y2="75.47" gradientTransform="matrix(1 0 0 -1 0 128)">
			<stop  offset="0" style="stop-color:#262626"/>
			<stop  offset="0.43" style="stop-color:#232323"/>
			<stop  offset="0.76" style="stop-color:#191919"/>
			<stop  offset="0.91" style="stop-color:#121212"/>
		</linearGradient>
		<polygon fill="url(#SVGID_9_)" points="18.4,49.6 18.4,57.4 15,55.4 15,47.7 		"/>
		
			<linearGradient id="SVGID_10_" gradientUnits="userSpaceOnUse" x1="21" y1="72.01" x2="24.43" y2="72.01" gradientTransform="matrix(1 0 0 -1 0 128)">
			<stop  offset="0" style="stop-color:#262626"/>
			<stop  offset="0.43" style="stop-color:#232323"/>
			<stop  offset="0.76" style="stop-color:#191919"/>
			<stop  offset="0.91" style="stop-color:#121212"/>
		</linearGradient>
		<polygon fill="url(#SVGID_10_)" points="24.4,53.1 24.4,60.9 21,58.9 21,51.1 		"/>
		
			<linearGradient id="SVGID_11_" gradientUnits="userSpaceOnUse" x1="27" y1="68.55" x2="30.43" y2="68.55" gradientTransform="matrix(1 0 0 -1 0 128)">
			<stop  offset="0" style="stop-color:#262626"/>
			<stop  offset="0.43" style="stop-color:#232323"/>
			<stop  offset="0.76" style="stop-color:#191919"/>
			<stop  offset="0.91" style="stop-color:#121212"/>
		</linearGradient>
		<polygon fill="url(#SVGID_11_)" points="30.4,56.5 30.4,64.3 27,62.4 27,54.6 		"/>
	</g>
	<g opacity="0.9">
		
			<linearGradient id="SVGID_12_" gradientUnits="userSpaceOnUse" x1="106.5316" y1="66.1154" x2="114.8216" y2="66.1154" gradientTransform="matrix(1 -1.000000e-02 -1.000000e-02 -1 -2.17 122.23)">
			<stop  offset="0" style="stop-color:#4D4D4D"/>
			<stop  offset="0.39" style="stop-color:#4A4A4A"/>
			<stop  offset="0.65" style="stop-color:#424242"/>
			<stop  offset="0.86" style="stop-color:#333333"/>
		</linearGradient>
		<polygon fill="url(#SVGID_12_)" points="112.2,51.5 112.3,53.6 104,58.5 104,56.4 		"/>
		
			<linearGradient id="SVGID_13_" gradientUnits="userSpaceOnUse" x1="106.5816" y1="69.7851" x2="114.8716" y2="69.7851" gradientTransform="matrix(1 -1.000000e-02 -1.000000e-02 -1 -2.17 122.23)">
			<stop  offset="0" style="stop-color:#4D4D4D"/>
			<stop  offset="0.39" style="stop-color:#4A4A4A"/>
			<stop  offset="0.65" style="stop-color:#424242"/>
			<stop  offset="0.86" style="stop-color:#333333"/>
		</linearGradient>
		<polygon fill="url(#SVGID_13_)" points="112.2,47.9 112.3,49.9 104,54.8 104,52.8 		"/>
		
			<linearGradient id="SVGID_14_" gradientUnits="userSpaceOnUse" x1="106.4816" y1="62.4458" x2="114.7716" y2="62.4458" gradientTransform="matrix(1 -1.000000e-02 -1.000000e-02 -1 -2.17 122.23)">
			<stop  offset="0" style="stop-color:#4D4D4D"/>
			<stop  offset="0.39" style="stop-color:#4A4A4A"/>
			<stop  offset="0.65" style="stop-color:#424242"/>
			<stop  offset="0.86" style="stop-color:#333333"/>
		</linearGradient>
		<polygon fill="url(#SVGID_14_)" points="112.2,55.2 112.3,57.3 104,62.2 104,60.1 		"/>
	</g>
	<g opacity="0.9">
		
			<linearGradient id="SVGID_15_" gradientUnits="userSpaceOnUse" x1="106.0516" y1="33.4737" x2="114.3416" y2="33.4737" gradientTransform="matrix(1 -1.000000e-02 -1.000000e-02 -1 -2.17 122.23)">
			<stop  offset="0" style="stop-color:#4D4D4D"/>
			<stop  offset="0.39" style="stop-color:#4A4A4A"/>
			<stop  offset="0.65" style="stop-color:#424242"/>
			<stop  offset="0.86" style="stop-color:#333333"/>
		</linearGradient>
		<polygon fill="url(#SVGID_15_)" points="112.2,84.2 112.3,86.2 104,91.1 104,89.1 		"/>
		
			<linearGradient id="SVGID_16_" gradientUnits="userSpaceOnUse" x1="106.1116" y1="37.1483" x2="114.4016" y2="37.1483" gradientTransform="matrix(1 -1.000000e-02 -1.000000e-02 -1 -2.17 122.23)">
			<stop  offset="0" style="stop-color:#4D4D4D"/>
			<stop  offset="0.39" style="stop-color:#4A4A4A"/>
			<stop  offset="0.65" style="stop-color:#424242"/>
			<stop  offset="0.86" style="stop-color:#333333"/>
		</linearGradient>
		<polygon fill="url(#SVGID_16_)" points="112.2,80.5 112.3,82.6 104,87.4 104,85.4 		"/>
		
			<linearGradient id="SVGID_17_" gradientUnits="userSpaceOnUse" x1="106.0016" y1="29.7991" x2="114.2916" y2="29.7991" gradientTransform="matrix(1 -1.000000e-02 -1.000000e-02 -1 -2.17 122.23)">
			<stop  offset="0" style="stop-color:#4D4D4D"/>
			<stop  offset="0.39" style="stop-color:#4A4A4A"/>
			<stop  offset="0.65" style="stop-color:#424242"/>
			<stop  offset="0.86" style="stop-color:#333333"/>
		</linearGradient>
		<polygon fill="url(#SVGID_17_)" points="112.2,87.8 112.3,89.9 104,94.8 104,92.8 		"/>
	</g>
	
		<radialGradient id="SVGID_18_" cx="24.1793" cy="37.6109" r="2.7171" gradientTransform="matrix(1 0 0 -1 0 128)" gradientUnits="userSpaceOnUse">
		<stop  offset="0" style="stop-color:#7DBF82"/>
		<stop  offset="1" style="stop-color:#369B2D"/>
	</radialGradient>
	<path fill="url(#SVGID_18_)" d="M25.9,89.4c0.9,1.6,0.9,3.2,0,3.8s-2.4-0.2-3.3-1.8s-1-3.4-0.1-3.9S24.9,87.8,25.9,89.4z"/>
	
		<radialGradient id="SVGID_19_" cx="16.6286" cy="41.95" r="2.7206" gradientTransform="matrix(1 0 0 -1 0 128)" gradientUnits="userSpaceOnUse">
		<stop  offset="0" style="stop-color:#3CAFCE"/>
		<stop  offset="2.000000e-02" style="stop-color:#3BAECD"/>
		<stop  offset="1" style="stop-color:#027BA5"/>
	</radialGradient>
	<path fill="url(#SVGID_19_)" d="M14.9,83.2c-0.9,0.6-0.9,2.4,0.1,3.9s2.4,2.3,3.3,1.8s0.9-2.2,0-3.8S15.9,82.6,14.9,83.2z"/>
	
		<radialGradient id="SVGID_20_" cx="53.47" cy="53.55" r="3.05" gradientTransform="matrix(1 0 0 -1 0 128)" gradientUnits="userSpaceOnUse">
		<stop  offset="0" style="stop-color:#3CAFCE"/>
		<stop  offset="2.000000e-02" style="stop-color:#3BAECD"/>
		<stop  offset="1" style="stop-color:#027BA5"/>
	</radialGradient>
	<path fill="url(#SVGID_20_)" d="M55.4,73.4c1,1.8,1,3.6,0,4.3s-2.6-0.2-3.7-2s-1.2-3.8-0.1-4.4S54.3,71.6,55.4,73.4z"/>
	
		<radialGradient id="SVGID_21_" cx="45" cy="58.42" r="3.0474" gradientTransform="matrix(1 0 0 -1 0 128)" gradientUnits="userSpaceOnUse">
		<stop  offset="0" style="stop-color:#C7C57E"/>
		<stop  offset="1" style="stop-color:#B7A500"/>
	</radialGradient>
	<path fill="url(#SVGID_21_)" d="M43.1,66.4c-1,0.7-1,2.7,0.1,4.4s2.7,2.6,3.7,2s1-2.5,0-4.3S44.1,65.8,43.1,66.4z"/>
	
		<radialGradient id="SVGID_22_" cx="-611.1901" cy="31.0516" r="4.07" gradientTransform="matrix(-1 -1.000000e-02 -1.000000e-02 -0.99 -529.37 132.63)" gradientUnits="userSpaceOnUse">
		<stop  offset="0" style="stop-color:#3CAFCE"/>
		<stop  offset="2.000000e-02" style="stop-color:#3BAECD"/>
		<stop  offset="1" style="stop-color:#027BA5"/>
	</radialGradient>
	<path fill="url(#SVGID_22_)" d="M76.3,103.9c-1.3,2.3-1.3,4.8,0,5.6s3.5-0.3,4.9-2.6s1.5-5,0.1-5.8S77.7,101.5,76.3,103.9z"/>
</g>
</svg>
