<svg id="图层_1" data-name="图层 1" xmlns="http://www.w3.org/2000/svg" viewBox="0 0 16 16"><defs><style>.cls-1{opacity:0.75;}.cls-2{fill:#1f2022;}</style></defs><title>b-文档</title><g class="cls-1"><path class="cls-2" d="M13,2a2,2,0,0,0-2-2H3A2,2,0,0,0,1,2V12a2,2,0,0,0,2,2,2,2,0,0,0,2,2h8a2,2,0,0,0,2-2V4A2,2,0,0,0,13,2ZM3,4v9a1,1,0,0,1-1-1V2A1,1,0,0,1,3,1h8a1,1,0,0,1,1,1H5A2,2,0,0,0,3,4ZM14,14a1,1,0,0,1-1,1H5a1,1,0,0,1-1-1V4A1,1,0,0,1,5,3h8a1,1,0,0,1,1,1Z"/><path class="cls-2" d="M6.5,7h3a.5.5,0,0,0,0-1h-3a.5.5,0,0,0,0,1Z"/><path class="cls-2" d="M11.5,9h-5a.5.5,0,0,0,0,1h5a.5.5,0,0,0,0-1Z"/><path class="cls-2" d="M11.5,12h-5a.5.5,0,0,0,0,1h5a.5.5,0,0,0,0-1Z"/></g></svg>