<svg id="图层_1" data-name="图层 1" xmlns="http://www.w3.org/2000/svg" viewBox="0 0 16 16"><defs><style>.cls-1{opacity:0.75;}.cls-2{fill:#1f2022;}</style></defs><title>b-下载</title><g class="cls-1"><path class="cls-2" d="M13,3H10V4h3a1,1,0,0,1,1,1v9a1,1,0,0,1-1,1H4a1,1,0,0,1-1-1V5A1,1,0,0,1,4,4H7V3H4A2,2,0,0,0,2,5v9a2,2,0,0,0,2,2h9a2,2,0,0,0,2-2V5A2,2,0,0,0,13,3Z"/><path class="cls-2" d="M12.35,7.15a.48.48,0,0,0-.7,0L9,9.79V1A.5.5,0,0,0,8,1V9.79L5.35,7.15a.49.49,0,0,0-.7.7l3.5,3.5a.48.48,0,0,0,.7,0l3.5-3.5A.48.48,0,0,0,12.35,7.15Z"/></g></svg>