<?xml version="1.0" encoding="utf-8"?>
<!-- Generator: Adobe Illustrator 25.0.0, SVG Export Plug-In . SVG Version: 6.00 Build 0)  -->
<svg version="1.1" id="图层_1" xmlns="http://www.w3.org/2000/svg" xmlns:xlink="http://www.w3.org/1999/xlink" x="0px" y="0px"
	 viewBox="0 0 16 16" style="enable-background:new 0 0 16 16;" xml:space="preserve">
<style type="text/css">
	.st0{opacity:0.75;fill:#1F2022;enable-background:new    ;}
</style>
<path class="st0" d="M13.5,2C14.3,2,15,2.7,15,3.5v7c0,0.8-0.7,1.5-1.5,1.5h-11C1.7,12,1,11.3,1,10.5v-7C1,2.7,1.7,2,2.5,2H13.5
	 M13.5,1h-11C1.1,1,0,2.1,0,3.5v9C0,13.9,1.1,15,2.5,15h11c1.4,0,2.5-1.1,2.5-2.5v-9C16,2.1,14.9,1,13.5,1z"/>
</svg>
