<svg xmlns="http://www.w3.org/2000/svg" xmlns:xlink="http://www.w3.org/1999/xlink" viewBox="0 0 32 32"><defs><style>.cls-1{opacity:0.2;}.cls-2{opacity:0.08;}.cls-3{opacity:0.1;}.cls-10,.cls-11,.cls-4,.cls-5,.cls-6,.cls-7,.cls-8,.cls-9{fill-rule:evenodd;}.cls-4{fill:url(#新建渐变色板_1);}.cls-5{fill:url(#linear-gradient);}.cls-6{fill:#221e1f;}.cls-7{fill:#040000;}.cls-8{fill:#bac6d1;}.cls-9{fill:#616161;}.cls-10{fill:url(#linear-gradient-2);}.cls-11{fill:#fff;}.cls-12{fill:#90a4ae;}.cls-13{fill:none;stroke:red;stroke-miterlimit:10;}</style><linearGradient id="新建渐变色板_1" x1="16" y1="2.02" x2="16" y2="53.88" gradientUnits="userSpaceOnUse"><stop offset="0" stop-color="#211d1e"/><stop offset="0.55" stop-color="#58595b"/><stop offset="1" stop-color="#abb6be"/></linearGradient><linearGradient id="linear-gradient" x1="16.28" y1="13.59" x2="16.28" y2="31.74" gradientUnits="userSpaceOnUse"><stop offset="0" stop-color="#fff"/><stop offset="1" stop-color="#cfd8dc"/></linearGradient><linearGradient id="linear-gradient-2" x1="-4.22" y1="8.78" x2="25.61" y2="5.65" gradientUnits="userSpaceOnUse"><stop offset="0" stop-color="#bfd7b1"/><stop offset="0.36" stop-color="#cfd1d2"/><stop offset="1" stop-color="#fff"/></linearGradient></defs><title>画板 23</title><g id="其他"><g id="软驱"><path class="cls-1" d="M3.07,31a2,2,0,0,1-2-2V3a2,2,0,0,1,2-2H5.42l.2.42H7.92V1l1,0L24.48,1V1h3.58l2.88,2.8V29a2,2,0,0,1-2,2Z"/><path class="cls-2" d="M3.57,32a2.5,2.5,0,0,1-2.5-2.5v-26A2.5,2.5,0,0,1,3.56,1H6.23l.2.42H7.92V1.05L9.39,1,25.48,1V1h3.28l3.18,3.09V29.54A2.45,2.45,0,0,1,29.43,32Z"/><path class="cls-3" d="M3.57,31.5a2,2,0,0,1-2-2v-26a2,2,0,0,1,2-2H5.92l.2.42H8.42V1.54l1,0L25,1.52v0h3.58l2.88,2.8v25.2a2,2,0,0,1-2,2Z"/><path d="M3.07,30.5A1.5,1.5,0,0,1,1.57,29V3a1.5,1.5,0,0,1,1.5-1.49h2l.14.28a.26.26,0,0,0,.11.1l.09,0h3V1.52l.5,0,15,0V1.7H24V1.54h3.81l2.58,2.51V29a1.46,1.46,0,0,1-1.5,1.46Z"/><path class="cls-4" d="M29.93,29a1,1,0,0,1-1,1H3.07a1,1,0,0,1-1-1V3a1,1,0,0,1,1-1H4.79a.77.77,0,0,0,.7.43l18.2,0a.78.78,0,0,0,.7-.42h3.26l2.29,2.22Z"/><path class="cls-5" d="M6.25,14h20a1,1,0,0,1,1,1V30H5.24V15A1,1,0,0,1,6.25,14Z"/><path class="cls-6" d="M5.82,12.07a.74.74,0,0,1-.74-.73v-9a.79.79,0,0,0,.32.1v8.88a.74.74,0,0,0,.74.73Z"/><path class="cls-7" d="M6.06,13.87H26.17a1,1,0,0,1,.64.25,1,1,0,0,0-.32-.08H6.38a1,1,0,0,0-1,1V30H5V14.89A1,1,0,0,1,6.06,13.87Z"/><path class="cls-8" d="M26.73,14.07a1,1,0,0,1,.83,1V27h0v1.1h0V30h-.37V14.91A1,1,0,0,0,26.73,14.07Z"/><path class="cls-9" d="M24.32,2.14l0,9.24a.74.74,0,0,1-.74.73l-17.37,0a.74.74,0,0,1-.65-.4,2.5,2.5,0,0,0,.64.21l17.05,0a.72.72,0,0,0,.72-.72l0-8.8a.76.76,0,0,0,.34-.27Zm-.74.32h0Z"/><path class="cls-6" d="M9,2H23.5v8.45a1,1,0,0,1-1,1H10a1,1,0,0,1-1-1V2Zm9.4,1a.69.69,0,0,0-.69.69v6.67a.69.69,0,0,0,.69.69h2.82a.69.69,0,0,0,.69-.69V3.72A.7.7,0,0,0,21.17,3Z"/><path class="cls-10" d="M8.92,2,23.48,2v8.32a1,1,0,0,1-1,1L10,11.35a1,1,0,0,1-1-1V2Zm9.4.91a.7.7,0,0,0-.7.69v6.67a.7.7,0,0,0,.7.69h2.82a.69.69,0,0,0,.69-.69V3.6a.7.7,0,0,0-.69-.69Z"/><path class="cls-11" d="M8.92,2H23.48v.12L9,2.12v8.32a1,1,0,0,0,.21.61,1,1,0,0,1-.31-.73V2ZM21.72,3.21a.69.69,0,0,1,.12.39v6.67a.69.69,0,0,1-.69.69H18.33a.7.7,0,0,1-.47-.18.7.7,0,0,0,.57.3h2.82a.7.7,0,0,0,.7-.69V3.72A.69.69,0,0,0,21.72,3.21Z"/><rect class="cls-12" x="9.2" y="18.27" width="14.04" height="0.83"/><rect class="cls-12" x="9.2" y="24.15" width="14.04" height="0.83"/></g></g><g id="规范"><rect class="cls-13" x="-5.67" y="-32.3" width="90.61" height="84.25"/></g></svg>