<svg xmlns="http://www.w3.org/2000/svg" xmlns:xlink="http://www.w3.org/1999/xlink" viewBox="0 0 32 32"><defs><style>.cls-1{opacity:0.08;}.cls-2{opacity:0.1;}.cls-3{opacity:0.2;}.cls-4{fill:url(#未命名的渐变_51);}.cls-5{fill:#455a64;}.cls-6{fill:url(#linear-gradient);}.cls-7{fill:#fff;opacity:0.24;}.cls-8{fill:none;stroke:red;stroke-miterlimit:10;}</style><linearGradient id="未命名的渐变_51" x1="20.55" y1="29.98" x2="11.28" y2="1.49" gradientUnits="userSpaceOnUse"><stop offset="0" stop-color="#4dd0e1"/><stop offset="0.94" stop-color="#1976d2"/></linearGradient><linearGradient id="linear-gradient" x1="16" y1="7.9" x2="16" y2="23.52" gradientUnits="userSpaceOnUse"><stop offset="0.38" stop-color="#fff"/><stop offset="1" stop-color="#ccc"/></linearGradient></defs><title>画板 23</title><g id="其他"><g id="耳麦"><g id="_32" data-name="32"><path class="cls-1" d="M16.5,32A15.5,15.5,0,1,1,32,16.5,15.52,15.52,0,0,1,16.5,32Z"/><path class="cls-2" d="M16.5,31.5a15,15,0,1,1,15-15A15,15,0,0,1,16.5,31.5Z"/><path class="cls-3" d="M16,31A15,15,0,1,1,31,16,15,15,0,0,1,16,31Z"/><path class="cls-4" d="M16,30.25A14.25,14.25,0,1,1,30.25,16,14.27,14.27,0,0,1,16,30.25Z"/><path class="cls-5" d="M16,2A14,14,0,1,1,2,16,14,14,0,0,1,16,2m0-.5A14.5,14.5,0,1,0,30.5,16,14.52,14.52,0,0,0,16,1.5Z"/><path class="cls-3" d="M24.16,17.66a4.07,4.07,0,0,0-3.09-4,7.31,7.31,0,0,0-.59-2.39A4.68,4.68,0,0,0,16,8.48a4.68,4.68,0,0,0-4.48,2.84,7.31,7.31,0,0,0-.59,2.39,4.08,4.08,0,0,0,1,8V14.09a6.46,6.46,0,0,1,.53-2.34A3.53,3.53,0,0,1,16,9.5a3.53,3.53,0,0,1,3.56,2.25,6.46,6.46,0,0,1,.53,2.34v7.65a4.08,4.08,0,0,0,1.12-.16,1.25,1.25,0,0,1-.28.62.93.93,0,0,1-.73.29H18.3a1,1,0,0,0-.78-.4h-2a1,1,0,0,0-1,1h0a1,1,0,0,0,1,1h2a1,1,0,0,0,.91-.58h1.77a2,2,0,0,0,1.5-.64,2.58,2.58,0,0,0,.57-1.75h0A4.08,4.08,0,0,0,24.16,17.66Z"/><path class="cls-6" d="M24.16,17.08a4.07,4.07,0,0,0-3.09-4,7.31,7.31,0,0,0-.59-2.39A4.68,4.68,0,0,0,16,7.9a4.68,4.68,0,0,0-4.48,2.84,7.31,7.31,0,0,0-.59,2.39,4.08,4.08,0,0,0,1,8V13.51a6.46,6.46,0,0,1,.53-2.34A3.53,3.53,0,0,1,16,8.92a3.53,3.53,0,0,1,3.56,2.25,6.46,6.46,0,0,1,.53,2.34v7.65A4.08,4.08,0,0,0,21.2,21a1.25,1.25,0,0,1-.28.62.93.93,0,0,1-.73.29H18.3a1,1,0,0,0-.78-.4h-2a1,1,0,0,0-1,1h0a1,1,0,0,0,1,1h2a1,1,0,0,0,.91-.58h1.77a2,2,0,0,0,1.5-.64,2.58,2.58,0,0,0,.57-1.75h0A4.08,4.08,0,0,0,24.16,17.08Z"/><ellipse class="cls-7" cx="15.92" cy="11.06" rx="10.58" ry="7.95"/></g></g></g><g id="规范"><rect class="cls-8" x="-5.67" y="-32.3" width="90.61" height="84.25"/></g></svg>