<?xml version="1.0" encoding="iso-8859-1"?>
<!-- Generator: Adobe Illustrator 21.0.0, SVG Export Plug-In . SVG Version: 6.00 Build 0)  -->
<svg version="1.1" id="&#x56FE;&#x5C42;_1" xmlns="http://www.w3.org/2000/svg" xmlns:xlink="http://www.w3.org/1999/xlink" x="0px"
	 y="0px" viewBox="0 0 32 32" style="enable-background:new 0 0 32 32;" xml:space="preserve">
<title>画板 23</title>
<g id="&#x5176;&#x4ED6;">
	<g id="&#x8033;&#x9EA6;">
		<g id="_32">
			<path style="opacity:0.08;enable-background:new    ;" d="M16.5,32C7.94,32,1,25.06,1,16.5S7.94,1,16.5,1S32,7.94,32,16.5
				C31.989,25.056,25.056,31.989,16.5,32z"/>
			<path style="opacity:0.1;enable-background:new    ;" d="M16.5,31.5c-8.284,0-15-6.716-15-15s6.716-15,15-15s15,6.716,15,15
				S24.784,31.5,16.5,31.5z"/>
			<path style="opacity:0.2;enable-background:new    ;" d="M16,31C7.716,31,1,24.284,1,16S7.716,1,16,1s15,6.716,15,15
				S24.284,31,16,31z"/>
			
				<linearGradient id="SVGID_1_" gradientUnits="userSpaceOnUse" x1="20.5489" y1="4.0196" x2="11.2789" y2="32.5096" gradientTransform="matrix(1 0 0 -1 0 34)">
				<stop  offset="0" style="stop-color:#4DD0E1"/>
				<stop  offset="0.94" style="stop-color:#1976D2"/>
			</linearGradient>
			<path style="fill:url(#SVGID_1_);" d="M16,30.25C8.13,30.25,1.75,23.87,1.75,16S8.13,1.75,16,1.75S30.25,8.13,30.25,16
				C30.239,23.865,23.865,30.239,16,30.25z"/>
			<path style="fill:#455A64;" d="M16,2c7.732,0,14,6.268,14,14s-6.268,14-14,14S2,23.732,2,16S8.268,2,16,2 M16,1.5
				C7.992,1.5,1.5,7.992,1.5,16S7.992,30.5,16,30.5S30.5,24.008,30.5,16C30.489,7.996,24.004,1.511,16,1.5z"/>
			<path style="opacity:0.2;enable-background:new    ;" d="M24.16,17.66c0.023-1.889-1.257-3.545-3.09-4
				c-0.06-0.824-0.26-1.632-0.59-2.39C19.703,9.506,17.925,8.399,16,8.48c-1.937-0.073-3.719,1.057-4.48,2.84
				c-0.33,0.758-0.53,1.566-0.59,2.39c-2.166,0.621-3.418,2.881-2.797,5.047c0.489,1.705,2.024,2.899,3.797,2.953v-7.62
				c0.029-0.806,0.209-1.6,0.53-2.34c0.558-1.446,1.994-2.358,3.54-2.25c1.553-0.118,3,0.797,3.56,2.25
				c0.321,0.74,0.501,1.534,0.53,2.34v7.65c0.379-0.001,0.756-0.055,1.12-0.16c-0.034,0.229-0.131,0.443-0.28,0.62
				c-0.189,0.2-0.456,0.306-0.73,0.29h-1.9c-0.185-0.246-0.472-0.394-0.78-0.4h-2c-0.552,0-1,0.448-1,1l0,0c0,0.552,0.448,1,1,1h2
				c0.391,0.001,0.746-0.226,0.91-0.58h1.77c0.568,0.009,1.114-0.223,1.5-0.64c0.399-0.493,0.602-1.116,0.57-1.75l0,0
				C23.452,20.368,24.166,19.061,24.16,17.66z"/>
			
				<linearGradient id="SVGID_2_" gradientUnits="userSpaceOnUse" x1="16.067" y1="26.1042" x2="16.067" y2="10.49" gradientTransform="matrix(1 0 0 -1 0 34)">
				<stop  offset="0.38" style="stop-color:#FFFFFF"/>
				<stop  offset="1" style="stop-color:#CCCCCC"/>
			</linearGradient>
			<path style="fill:url(#SVGID_2_);" d="M24.16,17.08c0.023-1.889-1.257-3.545-3.09-4c-0.06-0.824-0.26-1.632-0.59-2.39
				C19.703,8.926,17.925,7.819,16,7.9c-1.937-0.073-3.719,1.057-4.48,2.84c-0.33,0.758-0.53,1.566-0.59,2.39
				c-2.166,0.621-3.418,2.881-2.797,5.047c0.489,1.705,2.024,2.899,3.797,2.953v-7.62c0.029-0.806,0.209-1.6,0.53-2.34
				c0.558-1.446,1.994-2.358,3.54-2.25c1.553-0.118,3,0.797,3.56,2.25c0.321,0.74,0.501,1.534,0.53,2.34v7.65
				c0.376-0.002,0.749-0.056,1.11-0.16c-0.034,0.229-0.131,0.443-0.28,0.62c-0.189,0.2-0.456,0.306-0.73,0.29H18.3
				c-0.185-0.246-0.472-0.394-0.78-0.4h-2c-0.552,0-1,0.448-1,1l0,0c0,0.552,0.448,1,1,1h2c0.391,0.001,0.746-0.226,0.91-0.58h1.77
				c0.568,0.009,1.114-0.223,1.5-0.64c0.399-0.493,0.602-1.116,0.57-1.75l0,0C23.452,19.788,24.166,18.481,24.16,17.08z"/>
			<ellipse style="opacity:0.24;fill:#FFFFFF;enable-background:new    ;" cx="15.92" cy="11.06" rx="10.58" ry="7.95"/>
		</g>
	</g>
</g>
<g id="&#x89C4;&#x8303;">
	<rect x="-5.67" y="-32.3" style="fill:none;stroke:#FF0000;stroke-miterlimit:10;" width="90.61" height="84.25"/>
</g>
</svg>
