<?xml version="1.0" encoding="iso-8859-1"?>
<!-- Generator: Adobe Illustrator 21.0.0, SVG Export Plug-In . SVG Version: 6.00 Build 0)  -->
<svg version="1.1" id="&#x56FE;&#x5C42;_1" xmlns="http://www.w3.org/2000/svg" xmlns:xlink="http://www.w3.org/1999/xlink" x="0px"
	 y="0px" viewBox="0 0 32 32" style="enable-background:new 0 0 32 32;" xml:space="preserve">
<title>画板 23</title>
<g id="&#x5176;&#x4ED6;">
	<g id="&#x7535;&#x6C60;">
		<path style="opacity:0.1;enable-background:new    ;" d="M7,32V2.73h4.5c0.138-1.013,1.018-1.76,2.04-1.73h5.92
			c1.03-0.046,1.927,0.699,2.07,1.72H26V32H7z"/>
		<path style="opacity:0.1;enable-background:new    ;" d="M7.48,31.5V3.23H12V2.87c0.054-0.8,0.739-1.41,1.54-1.37h5.92
			c0.801-0.04,1.486,0.57,1.54,1.37v0.36h4.49V31.5H7.48z"/>
		<path style="opacity:0.2;enable-background:new    ;" d="M7,31V2.73h4.49V2.37C11.543,1.582,12.21,0.977,13,1h6
			c0.809-0.062,1.516,0.543,1.579,1.353c0,0.006,0.001,0.012,0.001,0.017v0.36H25V31H7z"/>
		<path style="fill:#455A64;" d="M24,3.22h-4V2.37c-0.066-0.501-0.495-0.874-1-0.87h-6c-0.505-0.004-0.934,0.369-1,0.87v0.85H7.48
			V30.5h17V3.22H24z"/>
		
			<linearGradient id="SVGID_1_" gradientUnits="userSpaceOnUse" x1="7.96" y1="4.505" x2="24.12" y2="4.505" gradientTransform="matrix(1 0 0 -1 0 34)">
			<stop  offset="0" style="stop-color:#ADC1C9"/>
			<stop  offset="1" style="stop-color:#6C91A3"/>
		</linearGradient>
		<rect x="7.96" y="28.98" style="fill:url(#SVGID_1_);" width="16.08" height="1.03"/>
		
			<linearGradient id="SVGID_2_" gradientUnits="userSpaceOnUse" x1="12.45" y1="31.105" x2="19.59" y2="31.105" gradientTransform="matrix(1 0 0 -1 0 34)">
			<stop  offset="0" style="stop-color:#CDE0E8"/>
			<stop  offset="1" style="stop-color:#90A4AE"/>
		</linearGradient>
		<path style="fill:url(#SVGID_2_);" d="M19,2h-6c-0.33,0-0.59,0.17-0.59,0.38v1.41h7.1V2.37C19.55,2.16,19.29,2,19,2z"/>
		
			<linearGradient id="SVGID_3_" gradientUnits="userSpaceOnUse" x1="12.45" y1="30.895" x2="19.59" y2="30.895" gradientTransform="matrix(1 0 0 -1 0 34)">
			<stop  offset="0" style="stop-color:#ADC1C9"/>
			<stop  offset="1" style="stop-color:#6C91A3"/>
		</linearGradient>
		<path style="fill:url(#SVGID_3_);" d="M19,2.21h-6c-0.33,0-0.59,0.17-0.59,0.38V4h7.1V2.6C19.55,2.39,19.29,2.21,19,2.21z"/>
		
			<linearGradient id="SVGID_4_" gradientUnits="userSpaceOnUse" x1="7.96" y1="29.54" x2="24.12" y2="29.54" gradientTransform="matrix(1 0 0 -1 0 34)">
			<stop  offset="0" style="stop-color:#ADC1C9"/>
			<stop  offset="1" style="stop-color:#6C91A3"/>
		</linearGradient>
		<rect x="7.96" y="3.71" style="fill:url(#SVGID_4_);" width="16.08" height="1.5"/>
		
			<linearGradient id="SVGID_5_" gradientUnits="userSpaceOnUse" x1="8.28" y1="30.2" x2="23.72" y2="30.2" gradientTransform="matrix(1 0 0 -1 0 34)">
			<stop  offset="0" style="stop-color:#CDE0E8"/>
			<stop  offset="1" style="stop-color:#90A4AE"/>
		</linearGradient>
		<rect x="7.96" y="3.71" style="fill:url(#SVGID_5_);" width="16.08" height="0.18"/>
		
			<linearGradient id="SVGID_6_" gradientUnits="userSpaceOnUse" x1="16" y1="5.28" x2="16" y2="28.6" gradientTransform="matrix(1 0 0 -1 0 34)">
			<stop  offset="0.24" style="stop-color:#689F38"/>
			<stop  offset="0.94" style="stop-color:#8BC34A"/>
		</linearGradient>
		<rect x="7.96" y="5.31" style="fill:url(#SVGID_6_);" width="16.08" height="23.6"/>
		<rect x="11.04" y="3.7" style="opacity:0.24;fill:#FFFFFF;enable-background:new    ;" width="4.2" height="26.31"/>
		<rect x="13.54" y="1.98" style="opacity:0.24;fill:#FFFFFF;enable-background:new    ;" width="2.71" height="1.72"/>
		
			<linearGradient id="SVGID_7_" gradientUnits="userSpaceOnUse" x1="7.96" y1="5.175" x2="24.04" y2="5.175" gradientTransform="matrix(1 0 0 -1 0 34)">
			<stop  offset="0" style="stop-color:#DCE775"/>
			<stop  offset="1" style="stop-color:#AED581"/>
		</linearGradient>
		<rect x="7.96" y="28.74" style="fill:url(#SVGID_7_);" width="16.08" height="0.17"/>
		
			<linearGradient id="SVGID_8_" gradientUnits="userSpaceOnUse" x1="7.96" y1="4.995" x2="24.04" y2="4.995" gradientTransform="matrix(1 0 0 -1 0 34)">
			<stop  offset="0" style="stop-color:#F6F7F7"/>
			<stop  offset="0.12" style="stop-color:#DEDEDE"/>
			<stop  offset="0.24" style="stop-color:#F5F4F4"/>
			<stop  offset="0.56" style="stop-color:#F5F4F4"/>
			<stop  offset="0.61" style="stop-color:#E1E3DF"/>
			<stop  offset="0.88" style="stop-color:#9F9E9B"/>
			<stop  offset="0.92" style="stop-color:#CED1CD"/>
			<stop  offset="1" style="stop-color:#F6F7F7"/>
		</linearGradient>
		<rect x="7.96" y="28.92" style="fill:url(#SVGID_8_);" width="16.08" height="0.17"/>
		
			<linearGradient id="SVGID_9_" gradientUnits="userSpaceOnUse" x1="7.96" y1="4.995" x2="24.04" y2="4.995" gradientTransform="matrix(1 0 0 -1 0 34)">
			<stop  offset="0" style="stop-color:#CDE0E8"/>
			<stop  offset="1" style="stop-color:#90A4AE"/>
		</linearGradient>
		<rect x="7.96" y="28.92" style="fill:url(#SVGID_9_);" width="16.08" height="0.17"/>
		
			<linearGradient id="SVGID_10_" gradientUnits="userSpaceOnUse" x1="7.96" y1="28.705" x2="24.04" y2="28.705" gradientTransform="matrix(1 0 0 -1 0 34)">
			<stop  offset="0" style="stop-color:#90A4AE"/>
			<stop  offset="1" style="stop-color:#607D8B"/>
		</linearGradient>
		<rect x="7.96" y="5.21" style="fill:url(#SVGID_10_);" width="16.08" height="0.17"/>
		
			<linearGradient id="SVGID_11_" gradientUnits="userSpaceOnUse" x1="7.96" y1="28.555" x2="24.04" y2="28.555" gradientTransform="matrix(1 0 0 -1 0 34)">
			<stop  offset="0" style="stop-color:#DCE775"/>
			<stop  offset="1" style="stop-color:#AED581"/>
		</linearGradient>
		<rect x="7.96" y="5.36" style="fill:url(#SVGID_11_);" width="16.08" height="0.17"/>
		<g>
			<polygon style="fill:#33691E;" points="16.19,6.44 17.8,8.05 14.59,8.05 			"/>
			<polygon style="fill:#33691E;" points="15.84,9.33 16.55,9.33 16.55,11 18.22,11 18.22,11.71 16.55,11.71 16.55,13.38 
				15.84,13.38 15.84,11.71 14.17,11.71 14.17,11 15.84,11 			"/>
		</g>
		<polygon style="fill:#DCEDC8;" points="15.99,6.23 17.6,7.84 14.38,7.84 		"/>
		<polygon style="fill:#DCEDC8;" points="15.63,9.12 16.34,9.12 16.34,10.79 18.01,10.79 18.01,11.5 16.34,11.5 16.34,13.17 
			15.63,13.17 15.63,11.5 13.96,11.5 13.96,10.79 15.63,10.79 		"/>
	</g>
</g>
<g id="&#x89C4;&#x8303;">
	<rect x="-5.67" y="-32.3" style="fill:none;stroke:#FF0000;stroke-miterlimit:10;" width="90.61" height="84.25"/>
</g>
</svg>
