<?xml version="1.0" encoding="utf-8"?>
<!-- Generator: Adobe Illustrator 18.0.0, SVG Export Plug-In . SVG Version: 6.00 Build 0)  -->
<!DOCTYPE svg PUBLIC "-//W3C//DTD SVG 1.1//EN" "http://www.w3.org/Graphics/SVG/1.1/DTD/svg11.dtd">
<svg version="1.1" xmlns="http://www.w3.org/2000/svg" xmlns:xlink="http://www.w3.org/1999/xlink" x="0px" y="0px"
	 viewBox="1072 0 32 32" enable-background="new 1072 0 32 32" xml:space="preserve">
<g id="svg2" xmlns:sodipodi="http://sodipodi.sourceforge.net/DTD/sodipodi-0.dtd" xmlns:svg="http://www.w3.org/2000/svg" xmlns:dc="http://purl.org/dc/elements/1.1/" xmlns:inkscape="http://www.inkscape.org/namespaces/inkscape" xmlns:rdf="http://www.w3.org/1999/02/22-rdf-syntax-ns#" xmlns:cc="http://creativecommons.org/ns#" inkscape:version="0.48.4 r9939" sodipodi:docname="computer.svg">
	<g id="电脑" display="none">
		<g display="inline">
			<path opacity="0.1" d="M1080.7,30c-1.4,0-2.5-1.1-2.5-2.4v-2.2h-5.2V3h31v22.5h-5.2v2.2c0,1.3-1.1,2.4-2.5,2.4H1080.7z"/>
			<path opacity="0.1" d="M1080.7,29.5c-1.1,0-2-0.8-2-1.9v-1.9h5.3V25h-10.5V3.5h30V25H1093v0.8h5.3v1.9c0,1-0.9,1.9-2,1.9H1080.7z
				"/>
			<path opacity="0.2" d="M1080.2,29c-1.1,0-2-0.8-2-1.9v-1.9h5.3v-0.8H1073V3h30v21.5h-10.5v0.8h5.3v1.9c0,1-0.9,1.9-2,1.9H1080.2z
				"/>
			<path fill="#212121" d="M1080.2,28.5c-0.8,0-1.5-0.6-1.5-1.4v-1.4h5.3V24h-10.5V3.5h29V24H1092v1.8h5.3v1.4
				c0,0.8-0.7,1.4-1.5,1.4H1080.2z"/>
			<g>
				<path opacity="8.000000e-002" d="M1099.2,20.1V7.7h-21.5v12.4H1099.2z"/>
				<path opacity="0.1" d="M1099.7,20.6V7.2h-22.5v13.4H1099.7z"/>
				<path fill="#212121" d="M1099.7,6.2v14.4h-23.5V6.2H1099.7z"/>
				<linearGradient id="rect3008_69_" gradientUnits="userSpaceOnUse" x1="1087.999" y1="5.6592" x2="1087.999" y2="21.0674">
					<stop  offset="0" style="stop-color:#B3E5FC"/>
					<stop  offset="1" style="stop-color:#0288D1"/>
				</linearGradient>
				<rect id="rect3008_18_" x="1075.8" y="5.7" fill="url(#rect3008_69_)" width="24.5" height="15.4"/>
				<linearGradient id="rect3008_70_" gradientUnits="userSpaceOnUse" x1="1087.999" y1="5.6592" x2="1087.999" y2="21.0674">
					<stop  offset="0" style="stop-color:#B3E5FC"/>
					<stop  offset="1" style="stop-color:#0288D1"/>
				</linearGradient>
				
					<rect id="rect3008_4_" x="1075.8" y="5.7" fill="url(#rect3008_70_)" stroke="#01579B" stroke-width="1.5" stroke-miterlimit="10" width="24.5" height="15.4"/>
				<linearGradient id="SVGID_1_" gradientUnits="userSpaceOnUse" x1="1076.5273" y1="6.7163" x2="1099.4775" y2="6.7163">
					<stop  offset="0" style="stop-color:#FFFFFF"/>
					<stop  offset="1" style="stop-color:#4FC3F7"/>
				</linearGradient>
				<rect x="1076.5" y="6.4" opacity="0.8" fill="url(#SVGID_1_)" width="23" height="0.6"/>
				
					<linearGradient id="SVGID_2_" gradientUnits="userSpaceOnUse" x1="486.9385" y1="-591.8846" x2="500.2276" y2="-591.8846" gradientTransform="matrix(0 -1 1 0 1668.7357 507.2676)">
					<stop  offset="0" style="stop-color:#0288D1"/>
					<stop  offset="1" style="stop-color:#FFFFFF"/>
				</linearGradient>
				<rect x="1076.5" y="7" opacity="0.8" fill="url(#SVGID_2_)" width="0.6" height="13.3"/>
				<path fill="#455A64" d="M1095.8,26.3h-15.6h-1v0.9c0,0.5,0.5,0.9,1,0.9h15.6c0.5,0,1-0.4,1-0.9v-0.9H1095.8z"/>
				<rect x="1084.5" y="23.3" fill="#1D272B" width="7" height="2.9"/>
				<linearGradient id="SVGID_3_" gradientUnits="userSpaceOnUse" x1="1088" y1="3.959" x2="1088" y2="23.459">
					<stop  offset="0" style="stop-color:#455A64"/>
					<stop  offset="1" style="stop-color:#263238"/>
				</linearGradient>
				<path fill="url(#SVGID_3_)" d="M1074,4v19.5h28V4H1074z M1100.2,21.1h-24.5V5.7h24.5V21.1z"/>
				<path id="rect3008-0_4_" opacity="0.2318" fill="#EEE8D5" enable-background="new    " d="M1091.1,5.7l-6.3,15.4h15.4V5.7
					H1091.1z"/>
			</g>
		</g>
	</g>
	<g id="电脑_1_" display="none">
		<g display="inline">
			<path opacity="0.1" d="M1080.7,30c-1.4,0-2.5-1.1-2.5-2.4v-2.2h-5.2V3h31v22.5h-5.2v2.2c0,1.3-1.1,2.4-2.5,2.4H1080.7z"/>
			<path opacity="0.1" d="M1080.7,29.5c-1.1,0-2-0.8-2-1.9v-1.9h5.3V25h-10.5V3.5h30V25H1093v0.8h5.3v1.9c0,1-0.9,1.9-2,1.9H1080.7z
				"/>
			<path opacity="0.2" d="M1080.2,29c-1.1,0-2-0.8-2-1.9v-1.9h5.3v-0.8H1073V3h30v21.5h-10.5v0.8h5.3v1.9c0,1-0.9,1.9-2,1.9H1080.2z
				"/>
			<path fill="#263238" d="M1080.2,28.5c-0.8,0-1.5-0.6-1.5-1.4v-1.4h5.3V24h-10.5V3.5h29V24H1092v1.8h5.3v1.4
				c0,0.8-0.7,1.4-1.5,1.4H1080.2z"/>
			<g>
				<path opacity="8.000000e-002" d="M1099.2,20.1V7.7h-21.5v12.4H1099.2z"/>
				<path opacity="0.1" d="M1099.7,20.6V7.2h-22.5v13.4H1099.7z"/>
				<path fill="#212121" d="M1099.7,6.2v14.4h-23.5V6.2H1099.7z"/>
				<linearGradient id="rect3008_71_" gradientUnits="userSpaceOnUse" x1="1087.999" y1="5.6592" x2="1087.999" y2="21.0674">
					<stop  offset="0" style="stop-color:#B3E5FC"/>
					<stop  offset="1" style="stop-color:#0288D1"/>
				</linearGradient>
				<rect id="rect3008_55_" x="1075.8" y="5.7" fill="url(#rect3008_71_)" width="24.5" height="15.4"/>
				<linearGradient id="rect3008_72_" gradientUnits="userSpaceOnUse" x1="1087.999" y1="5.6592" x2="1087.999" y2="21.0674">
					<stop  offset="0" style="stop-color:#B3E5FC"/>
					<stop  offset="1" style="stop-color:#0288D1"/>
				</linearGradient>
				
					<rect id="rect3008_54_" x="1075.8" y="5.7" fill="url(#rect3008_72_)" stroke="#01579B" stroke-width="1.5" stroke-miterlimit="10" width="24.5" height="15.4"/>
				<linearGradient id="SVGID_4_" gradientUnits="userSpaceOnUse" x1="1076.5273" y1="6.7163" x2="1099.4775" y2="6.7163">
					<stop  offset="0" style="stop-color:#FFFFFF"/>
					<stop  offset="1" style="stop-color:#4FC3F7"/>
				</linearGradient>
				<rect x="1076.5" y="6.4" opacity="0.8" fill="url(#SVGID_4_)" width="23" height="0.6"/>
				
					<linearGradient id="SVGID_5_" gradientUnits="userSpaceOnUse" x1="486.9385" y1="-591.8846" x2="500.2276" y2="-591.8846" gradientTransform="matrix(0 -1 1 0 1668.7357 507.2676)">
					<stop  offset="0" style="stop-color:#0288D1"/>
					<stop  offset="1" style="stop-color:#FFFFFF"/>
				</linearGradient>
				<rect x="1076.5" y="7" opacity="0.8" fill="url(#SVGID_5_)" width="0.6" height="13.3"/>
				<path fill="#90A4AE" d="M1095.8,26.3h-15.6h-1v0.9c0,0.5,0.5,0.9,1,0.9h15.6c0.5,0,1-0.4,1-0.9v-0.9H1095.8z"/>
				<rect x="1084.5" y="23.3" fill="#293A3F" width="7" height="2.9"/>
				<linearGradient id="SVGID_6_" gradientUnits="userSpaceOnUse" x1="1088" y1="3.959" x2="1088" y2="23.459">
					<stop  offset="0" style="stop-color:#607D8B"/>
					<stop  offset="1" style="stop-color:#455A64"/>
				</linearGradient>
				<path fill="url(#SVGID_6_)" d="M1074,4v19.5h28V4H1074z M1100.2,21.1h-24.5V5.7h24.5V21.1z"/>
				<path id="rect3008-0_30_" opacity="0.2318" fill="#EEE8D5" enable-background="new    " d="M1091.1,5.7l-6.3,15.4h15.4V5.7
					H1091.1z"/>
			</g>
		</g>
	</g>
	<g id="显示器_1_" display="none">
		<g display="inline">
			<g>
				<path opacity="0.1" d="M1080.7,30c-1.4,0-2.5-1.1-2.5-2.4v-2.2h-5.2V3h31v22.5h-5.2v2.2c0,1.3-1.1,2.4-2.5,2.4H1080.7z"/>
				<path opacity="0.1" d="M1080.7,29.5c-1.1,0-2-0.8-2-1.9v-1.9h5.3V25h-10.5V3.5h30V25H1093v0.8h5.3v1.9c0,1-0.9,1.9-2,1.9H1080.7
					z"/>
				<path opacity="0.2" d="M1080.2,29c-1.1,0-2-0.8-2-1.9v-1.9h5.3v-0.8H1073V3h30v21.5h-10.5v0.8h5.3v1.9c0,1-0.9,1.9-2,1.9H1080.2
					z"/>
				<path fill="#212121" d="M1080.2,28.5c-0.8,0-1.5-0.6-1.5-1.4v-1.4h5.3V24h-10.5V3.5h29V24H1092v1.8h5.3v1.4
					c0,0.8-0.7,1.4-1.5,1.4H1080.2z"/>
				<g>
					<path opacity="8.000000e-002" d="M1099.2,20.1V7.7h-21.5v12.4H1099.2z"/>
					<path opacity="0.1" d="M1099.7,20.6V7.2h-22.5v13.4H1099.7z"/>
					<path fill="#212121" d="M1099.7,6.2v14.4h-23.5V6.2H1099.7z"/>
					<linearGradient id="rect3008_73_" gradientUnits="userSpaceOnUse" x1="1087.999" y1="5.6592" x2="1087.999" y2="21.0674">
						<stop  offset="0" style="stop-color:#B3E5FC"/>
						<stop  offset="1" style="stop-color:#0288D1"/>
					</linearGradient>
					<rect id="rect3008_21_" x="1075.8" y="5.7" fill="url(#rect3008_73_)" width="24.5" height="15.4"/>
					<linearGradient id="rect3008_74_" gradientUnits="userSpaceOnUse" x1="1087.999" y1="5.6592" x2="1087.999" y2="21.0674">
						<stop  offset="0" style="stop-color:#B3E5FC"/>
						<stop  offset="1" style="stop-color:#0288D1"/>
					</linearGradient>
					
						<rect id="rect3008_20_" x="1075.8" y="5.7" fill="url(#rect3008_74_)" stroke="#01579B" stroke-width="1.5" stroke-miterlimit="10" width="24.5" height="15.4"/>
					<linearGradient id="SVGID_7_" gradientUnits="userSpaceOnUse" x1="1076.5273" y1="6.7163" x2="1099.4775" y2="6.7163">
						<stop  offset="0" style="stop-color:#FFFFFF"/>
						<stop  offset="1" style="stop-color:#4FC3F7"/>
					</linearGradient>
					<rect x="1076.5" y="6.4" opacity="0.8" fill="url(#SVGID_7_)" width="23" height="0.6"/>
					
						<linearGradient id="SVGID_8_" gradientUnits="userSpaceOnUse" x1="486.9385" y1="-591.8846" x2="500.2276" y2="-591.8846" gradientTransform="matrix(0 -1 1 0 1668.7357 507.2676)">
						<stop  offset="0" style="stop-color:#0288D1"/>
						<stop  offset="1" style="stop-color:#FFFFFF"/>
					</linearGradient>
					<rect x="1076.5" y="7" opacity="0.8" fill="url(#SVGID_8_)" width="0.6" height="13.3"/>
					<path fill="#455A64" d="M1095.8,26.3h-15.6h-1v0.9c0,0.5,0.5,0.9,1,0.9h15.6c0.5,0,1-0.4,1-0.9v-0.9H1095.8z"/>
					<rect x="1084.5" y="23.3" fill="#1D272B" width="7" height="2.9"/>
					<linearGradient id="SVGID_9_" gradientUnits="userSpaceOnUse" x1="1088" y1="3.959" x2="1088" y2="23.459">
						<stop  offset="0" style="stop-color:#455A64"/>
						<stop  offset="1" style="stop-color:#263238"/>
					</linearGradient>
					<path fill="url(#SVGID_9_)" d="M1074,4v19.5h28V4H1074z M1100.2,21.1h-24.5V5.7h24.5V21.1z"/>
					<path id="rect3008-0_13_" opacity="0.2318" fill="#EEE8D5" enable-background="new    " d="M1091.1,5.7l-6.3,15.4h15.4V5.7
						H1091.1z"/>
				</g>
			</g>
			<g>
				<polyline fill="none" stroke="#FFFFFF" stroke-miterlimit="10" points="1080.9,8.3 1078.7,8.3 1078.7,10.6 				"/>
				<polyline fill="none" stroke="#FFFFFF" stroke-miterlimit="10" points="1095.1,8.3 1097.3,8.3 1097.3,10.6 				"/>
				<polyline fill="none" stroke="#FFFFFF" stroke-miterlimit="10" points="1080.9,18.4 1078.7,18.4 1078.7,16.2 				"/>
				<polyline fill="none" stroke="#FFFFFF" stroke-miterlimit="10" points="1095.1,18.4 1097.3,18.4 1097.3,16.2 				"/>
			</g>
		</g>
	</g>
	<g id="网络" display="none">
		<g display="inline">
			<path opacity="8.000000e-002" enable-background="new    " d="M1079.3,32v-5.5h6.4V25h-4c-1.3,0-2.4-1-2.4-2.3V21h-4.6V1h27.5v20
				h-4.5v1.7c0,1.3-1.1,2.3-2.4,2.3h-3.9v1.4h6.3V32H1079.3z"/>
			<path opacity="0.1" enable-background="new    " d="M1079.8,31.5V27h6.4v-2.4h-4.5c-1,0-1.9-0.8-1.9-1.8V21h4.6v-0.4h-9.2v-19
				h26.5v19h-9.2V21h4.6v1.8c0,1-0.8,1.8-1.9,1.8h-4.4V27h6.3v4.5H1079.8z"/>
			<path opacity="0.2" enable-background="new    " d="M1079.3,31v-4.5h6.4V24h-4.5c-1,0-1.9-0.8-1.9-1.8v-1.8h4.6V20h-9.2V1h26.5
				v19h-9.2v0.4h4.6v1.8c0,1-0.8,1.8-1.9,1.8h-4.4v2.4h6.3V31H1079.3z"/>
			<path fill="#212121" enable-background="new    " d="M1079.8,30.5V27h6.4v-3.4h-5c-0.8,0-1.4-0.6-1.4-1.3V21h4.6v-1.4h-9.2v-18
				h25.5v18h-9.2V21h4.6v1.3c0,0.7-0.6,1.3-1.4,1.3h-4.9V27h6.3v3.5H1079.8z"/>
			<path opacity="0.2318" fill="#EEE8D5" enable-background="new    " d="M1100.2,19V2h-24.5v17h9.2v2.4h-3.8h-0.9v0.8
				c0,0.4,0.4,0.8,0.9,0.8h5.5v1.7v2.7h-6.4V30h2.9h0.8h3.5h1.1h3.3h0.8h3v-2.5h-6.3v-2.7V23h5.4c0.5,0,0.9-0.4,0.9-0.8v-0.8h-0.9
				h-3.8V19H1100.2z"/>
			<g>
				<g>
					<g>
						
							<linearGradient id="SVGID_10_" gradientUnits="userSpaceOnUse" x1="491.625" y1="1106.7417" x2="494.1724" y2="1106.7417" gradientTransform="matrix(0 -1 1 0 -18.7412 521.625)">
							<stop  offset="0" style="stop-color:#404040"/>
							<stop  offset="0.3345" style="stop-color:#DEDEDE"/>
							<stop  offset="0.4622" style="stop-color:#DCDCDC"/>
							<stop  offset="0.5229" style="stop-color:#D4D4D4"/>
							<stop  offset="0.5695" style="stop-color:#C7C7C7"/>
							<stop  offset="0.6089" style="stop-color:#B5B5B5"/>
							<stop  offset="0.6437" style="stop-color:#9D9D9D"/>
							<stop  offset="0.6749" style="stop-color:#808080"/>
							<stop  offset="0.703" style="stop-color:#5E5E5E"/>
							<stop  offset="0.7063" style="stop-color:#616161"/>
							<stop  offset="0.7579" style="stop-color:#8B8B8B"/>
							<stop  offset="0.8082" style="stop-color:#ACACAC"/>
							<stop  offset="0.8562" style="stop-color:#C3C3C3"/>
							<stop  offset="0.901" style="stop-color:#D1D1D1"/>
							<stop  offset="0.9394" style="stop-color:#D6D6D6"/>
							<stop  offset="1" style="stop-color:#333333"/>
						</linearGradient>
						<rect x="1080.3" y="27.5" fill="url(#SVGID_10_)" width="15.4" height="2.5"/>
						
							<linearGradient id="SVGID_11_" gradientUnits="userSpaceOnUse" x1="873.1406" y1="-231.2081" x2="875.8105" y2="-231.2081" gradientTransform="matrix(1 0 0 1 213.5977 256.8307)">
							<stop  offset="0" style="stop-color:#333333"/>
							<stop  offset="6.060610e-002" style="stop-color:#D6D6D6"/>
							<stop  offset="9.900098e-002" style="stop-color:#D1D1D1"/>
							<stop  offset="0.1438" style="stop-color:#C3C3C3"/>
							<stop  offset="0.1918" style="stop-color:#ACACAC"/>
							<stop  offset="0.2421" style="stop-color:#8B8B8B"/>
							<stop  offset="0.2937" style="stop-color:#616161"/>
							<stop  offset="0.297" style="stop-color:#5E5E5E"/>
							<stop  offset="0.3317" style="stop-color:#808080"/>
							<stop  offset="0.3701" style="stop-color:#9D9D9D"/>
							<stop  offset="0.4131" style="stop-color:#B5B5B5"/>
							<stop  offset="0.4616" style="stop-color:#C7C7C7"/>
							<stop  offset="0.5191" style="stop-color:#D4D4D4"/>
							<stop  offset="0.594" style="stop-color:#DCDCDC"/>
							<stop  offset="0.7515" style="stop-color:#DEDEDE"/>
							<stop  offset="1" style="stop-color:#404040"/>
						</linearGradient>
						<rect x="1086.7" y="22.6" fill="url(#SVGID_11_)" width="2.7" height="6"/>
						<g>
							<g opacity="0.3">
								<rect x="1083.3" y="27.5" width="9.5" height="2.5"/>
								<rect x="1086.7" y="24" width="2.7" height="2"/>
							</g>
							<polygon fill="#212121" points="1091.9,27.5 1089.4,27.5 1089.4,24.8 1086.7,24.8 1086.7,27.5 1084.1,27.5 1084.1,30 
								1087.5,30 1088.6,30 1091.9,30 							"/>
						</g>
					</g>
					<rect x="1084.1" y="29.2" opacity="0.6" fill="#0C0C0C" width="7.9" height="0.8"/>
				</g>
			</g>
			<g>
				<path opacity="8.000000e-002" d="M1097.8,16.1V5.2h-18.8v10.8H1097.8z"/>
				<path opacity="0.1" d="M1098.3,16.5V4.8h-19.6v11.7H1098.3z"/>
				<path fill="#212121" d="M1098.3,3.9v12.6h-20.5V3.9H1098.3z"/>
				<linearGradient id="rect3008_75_" gradientUnits="userSpaceOnUse" x1="1087.9995" y1="3.4854" x2="1087.9995" y2="16.9502">
					<stop  offset="0" style="stop-color:#B3E5FC"/>
					<stop  offset="1" style="stop-color:#0288D1"/>
				</linearGradient>
				<rect id="rect3008_41_" x="1077.3" y="3.5" fill="url(#rect3008_75_)" width="21.4" height="13.5"/>
				<linearGradient id="rect3008_76_" gradientUnits="userSpaceOnUse" x1="1087.9995" y1="3.4854" x2="1087.9995" y2="16.9502">
					<stop  offset="0" style="stop-color:#B3E5FC"/>
					<stop  offset="1" style="stop-color:#0288D1"/>
				</linearGradient>
				
					<rect id="rect3008_39_" x="1077.3" y="3.5" fill="url(#rect3008_76_)" stroke="#01579B" stroke-width="1.3108" stroke-miterlimit="10" width="21.4" height="13.5"/>
				<linearGradient id="SVGID_12_" gradientUnits="userSpaceOnUse" x1="1077.9746" y1="4.4095" x2="1098.0303" y2="4.4095">
					<stop  offset="0" style="stop-color:#FFFFFF"/>
					<stop  offset="1" style="stop-color:#4FC3F7"/>
				</linearGradient>
				<rect x="1078" y="4.1" opacity="0.8" fill="url(#SVGID_12_)" width="20.1" height="0.6"/>
				
					<linearGradient id="SVGID_13_" gradientUnits="userSpaceOnUse" x1="490.9624" y1="-590.4784" x2="502.5752" y2="-590.4784" gradientTransform="matrix(0 -1 1 0 1668.7357 507.2676)">
					<stop  offset="0" style="stop-color:#0288D1"/>
					<stop  offset="1" style="stop-color:#FFFFFF"/>
				</linearGradient>
				<rect x="1078" y="4.7" opacity="0.8" fill="url(#SVGID_13_)" width="0.6" height="11.6"/>
				<path fill="#455A64" d="M1094.8,21.5h-13.6h-0.9v0.8c0,0.4,0.4,0.8,0.9,0.8h13.6c0.5,0,0.9-0.4,0.9-0.8v-0.8H1094.8z"/>
				<rect x="1084.9" y="18.9" fill="#1D272B" width="6.1" height="2.6"/>
				<linearGradient id="SVGID_14_" gradientUnits="userSpaceOnUse" x1="1088" y1="2" x2="1088" y2="19.04">
					<stop  offset="0" style="stop-color:#455A64"/>
					<stop  offset="1" style="stop-color:#263238"/>
				</linearGradient>
				<path fill="url(#SVGID_14_)" d="M1075.8,2v17h24.5V2H1075.8z M1098.7,17h-21.4V3.5h21.4V17z"/>
				<path id="rect3008-0_28_" opacity="0.2318" fill="#EEE8D5" enable-background="new    " d="M1090.7,3.5l-5.5,13.4h13.5V3.5
					H1090.7z"/>
			</g>
		</g>
	</g>
	<g id="电池" display="none">
		<g display="inline">
			<g>
				<path opacity="0.1" d="M1079,32V2.7l4.5,0c0.1-1,1-1.7,2.1-1.7h5.9c1.1,0,2,0.7,2.1,1.7h4.5V32H1079z"/>
				<path opacity="0.1" d="M1079.5,31.5V3.2l4.5,0V2.9c0-0.8,0.7-1.4,1.6-1.4h5.9c0.9,0,1.6,0.6,1.6,1.4v0.4h4.5v28.3H1079.5z"/>
				<path opacity="0.2" d="M1079,31V2.7l4.5,0V2.4c0-0.8,0.7-1.4,1.6-1.4h5.9c0.9,0,1.6,0.6,1.6,1.4v0.4h4.5V31H1079z"/>
				<path fill="#455A64" d="M1096,3.2h-4V2.4c0-0.5-0.5-0.9-1.1-0.9h-5.9c-0.6,0-1.1,0.4-1.1,0.9v0.9l-4,0l-0.5,0v0.5V30v0.5h0.5
					h16.1h0.5V30V3.7V3.2H1096z"/>
				<g>
					<linearGradient id="SVGID_15_" gradientUnits="userSpaceOnUse" x1="1079.959" y1="29.5005" x2="1096.1182" y2="29.5005">
						<stop  offset="0" style="stop-color:#ADC1C9"/>
						<stop  offset="1" style="stop-color:#6C91A3"/>
					</linearGradient>
					<rect x="1080" y="29" fill-rule="evenodd" clip-rule="evenodd" fill="url(#SVGID_15_)" width="16.1" height="1"/>
					<linearGradient id="SVGID_16_" gradientUnits="userSpaceOnUse" x1="1084.4473" y1="2.8865" x2="1091.5859" y2="2.8865">
						<stop  offset="0" style="stop-color:#CDE0E8"/>
						<stop  offset="1" style="stop-color:#90A4AE"/>
					</linearGradient>
					<path fill-rule="evenodd" clip-rule="evenodd" fill="url(#SVGID_16_)" d="M1091,2h-5.9c-0.3,0-0.6,0.2-0.6,0.4v1.4h7.1V2.4
						C1091.6,2.2,1091.3,2,1091,2z"/>
					<linearGradient id="SVGID_17_" gradientUnits="userSpaceOnUse" x1="1084.4473" y1="3.1177" x2="1091.5859" y2="3.1177">
						<stop  offset="0" style="stop-color:#ADC1C9"/>
						<stop  offset="1" style="stop-color:#6C91A3"/>
					</linearGradient>
					<path fill-rule="evenodd" clip-rule="evenodd" fill="url(#SVGID_17_)" d="M1091,2.2h-5.9c-0.3,0-0.6,0.2-0.6,0.4V4h7.1V2.6
						C1091.6,2.4,1091.3,2.2,1091,2.2z"/>
					<linearGradient id="SVGID_18_" gradientUnits="userSpaceOnUse" x1="1079.959" y1="4.4575" x2="1096.1182" y2="4.4575">
						<stop  offset="0" style="stop-color:#ADC1C9"/>
						<stop  offset="1" style="stop-color:#6C91A3"/>
					</linearGradient>
					<rect x="1080" y="3.7" fill-rule="evenodd" clip-rule="evenodd" fill="url(#SVGID_18_)" width="16.1" height="1.5"/>
					<linearGradient id="SVGID_19_" gradientUnits="userSpaceOnUse" x1="1080.2806" y1="3.7993" x2="1095.7242" y2="3.7993">
						<stop  offset="0" style="stop-color:#CDE0E8"/>
						<stop  offset="1" style="stop-color:#90A4AE"/>
					</linearGradient>
					<rect x="1080" y="3.7" fill-rule="evenodd" clip-rule="evenodd" fill="url(#SVGID_19_)" width="16.1" height="0.2"/>
					<linearGradient id="SVGID_20_" gradientUnits="userSpaceOnUse" x1="1088" y1="28.723" x2="1088" y2="5.398">
						<stop  offset="0.2366" style="stop-color:#689F38"/>
						<stop  offset="0.9366" style="stop-color:#8BC34A"/>
					</linearGradient>
					<rect x="1080" y="5.3" fill-rule="evenodd" clip-rule="evenodd" fill="url(#SVGID_20_)" width="16.1" height="23.6"/>
					<rect x="1083" y="3.7" opacity="0.24" fill="#FFFFFF" enable-background="new    " width="4.2" height="26.3"/>
					<rect x="1085.5" y="2" opacity="0.24" fill="#FFFFFF" enable-background="new    " width="2.7" height="1.7"/>
					<linearGradient id="SVGID_21_" gradientUnits="userSpaceOnUse" x1="1079.959" y1="28.8262" x2="1096.041" y2="28.8262">
						<stop  offset="0" style="stop-color:#DCE775"/>
						<stop  offset="1" style="stop-color:#AED581"/>
					</linearGradient>
					<rect x="1080" y="28.7" fill-rule="evenodd" clip-rule="evenodd" fill="url(#SVGID_21_)" width="16.1" height="0.2"/>
					<linearGradient id="SVGID_22_" gradientUnits="userSpaceOnUse" x1="1079.959" y1="29.0044" x2="1096.041" y2="29.0044">
						<stop  offset="0" style="stop-color:#F6F7F7"/>
						<stop  offset="0.12" style="stop-color:#DEDEDE"/>
						<stop  offset="0.24" style="stop-color:#F5F4F4"/>
						<stop  offset="0.56" style="stop-color:#F5F4F4"/>
						<stop  offset="0.61" style="stop-color:#E1E3DF"/>
						<stop  offset="0.88" style="stop-color:#9F9E9B"/>
						<stop  offset="0.92" style="stop-color:#CED1CD"/>
						<stop  offset="1" style="stop-color:#F6F7F7"/>
					</linearGradient>
					<rect x="1080" y="28.9" fill-rule="evenodd" clip-rule="evenodd" fill="url(#SVGID_22_)" width="16.1" height="0.2"/>
					<linearGradient id="SVGID_23_" gradientUnits="userSpaceOnUse" x1="1079.959" y1="29.0044" x2="1096.041" y2="29.0044">
						<stop  offset="0" style="stop-color:#CDE0E8"/>
						<stop  offset="1" style="stop-color:#90A4AE"/>
					</linearGradient>
					<rect x="1080" y="28.9" fill-rule="evenodd" clip-rule="evenodd" fill="url(#SVGID_23_)" width="16.1" height="0.2"/>
					<linearGradient id="SVGID_24_" gradientUnits="userSpaceOnUse" x1="1079.959" y1="5.2913" x2="1096.041" y2="5.2913">
						<stop  offset="0" style="stop-color:#90A4AE"/>
						<stop  offset="1" style="stop-color:#607D8B"/>
					</linearGradient>
					<rect x="1080" y="5.2" fill-rule="evenodd" clip-rule="evenodd" fill="url(#SVGID_24_)" width="16.1" height="0.2"/>
					<linearGradient id="SVGID_25_" gradientUnits="userSpaceOnUse" x1="1079.959" y1="5.4397" x2="1096.041" y2="5.4397">
						<stop  offset="0" style="stop-color:#DCE775"/>
						<stop  offset="1" style="stop-color:#AED581"/>
					</linearGradient>
					<rect x="1080" y="5.4" fill-rule="evenodd" clip-rule="evenodd" fill="url(#SVGID_25_)" width="16.1" height="0.2"/>
					<g>
						<g enable-background="new    ">
							<polygon fill-rule="evenodd" clip-rule="evenodd" fill="#33691E" enable-background="new    " points="1088.2,6.4 1089.8,8 
								1086.6,8 							"/>
							<polygon fill-rule="evenodd" clip-rule="evenodd" fill="#33691E" enable-background="new    " points="1087.8,9.3 
								1088.5,9.3 1088.5,11 1090.2,11 1090.2,11.7 1088.5,11.7 1088.5,13.4 1087.8,13.4 1087.8,11.7 1086.2,11.7 1086.2,11 
								1087.8,11 							"/>
						</g>
						<g>
							<polygon fill-rule="evenodd" clip-rule="evenodd" fill="#DCEDC8" enable-background="new    " points="1088,6.2 1089.6,7.8 
								1086.4,7.8 							"/>
							<polygon fill-rule="evenodd" clip-rule="evenodd" fill="#DCEDC8" enable-background="new    " points="1087.6,9.1 
								1088.3,9.1 1088.3,10.8 1090,10.8 1090,11.5 1088.3,11.5 1088.3,13.2 1087.6,13.2 1087.6,11.5 1086,11.5 1086,10.8 
								1087.6,10.8 							"/>
						</g>
					</g>
				</g>
			</g>
		</g>
	</g>
	<g id="光盘" display="none">
		<g display="inline">
			<path opacity="0.2" d="M1087.9,30.7c-8.3,0-15-6.7-15-15c0-8.3,6.7-15,15-15s15,6.7,15,15C1102.9,23.9,1096.2,30.7,1087.9,30.7z
				 M1087.9,14.8c-0.5,0-0.9,0.4-0.9,0.9c0,0.5,0.4,0.9,0.9,0.9s0.9-0.4,0.9-0.9C1088.8,15.2,1088.4,14.8,1087.9,14.8z"/>
			<path opacity="8.000000e-002" d="M1088.6,32.3c-8.5,0-15.5-7-15.5-15.5s7-15.5,15.5-15.5s15.5,7,15.5,15.5
				S1097.1,32.3,1088.6,32.3z M1088.6,16.5c-0.2,0-0.4,0.2-0.4,0.4c0,0.2,0.2,0.4,0.4,0.4c0.2,0,0.4-0.2,0.4-0.4
				C1088.9,16.6,1088.8,16.5,1088.6,16.5z"/>
			<path opacity="0.1" d="M1088.6,31.3c-8.3,0-15-6.7-15-15c0-8.3,6.7-15,15-15s15,6.7,15,15C1103.6,24.6,1096.8,31.3,1088.6,31.3z
				 M1088.6,15.5c-0.5,0-0.9,0.4-0.9,0.9c0,0.5,0.4,0.9,0.9,0.9c0.5,0,0.9-0.4,0.9-0.9C1089.4,15.9,1089.1,15.5,1088.6,15.5z"/>
			<path fill="#01579B" d="M1087.9,30.2c-8,0-14.5-6.5-14.5-14.5s6.5-14.5,14.5-14.5c8,0,14.5,6.5,14.5,14.5
				S1095.9,30.2,1087.9,30.2z M1087.9,14.3c-0.8,0-1.4,0.6-1.4,1.4c0,0.8,0.6,1.4,1.4,1.4s1.4-0.6,1.4-1.4
				C1089.3,14.9,1088.7,14.3,1087.9,14.3z"/>
			<path fill="#0288D1" d="M1087.9,1.7c-7.7,0-14,6.3-14,14c0,7.7,6.3,14,14,14s14-6.3,14-14C1101.9,7.9,1095.7,1.7,1087.9,1.7z
				 M1087.9,29.3c-7.5,0-13.6-6.1-13.6-13.6c0-7.5,6.1-13.6,13.6-13.6s13.6,6.1,13.6,13.6C1101.5,23.2,1095.4,29.3,1087.9,29.3z"/>
			
				<radialGradient id="SVGID_26_" cx="1093.5471" cy="14.7513" r="12.2091" gradientTransform="matrix(0.9556 0 0 0.9556 42.9312 1.5629)" gradientUnits="userSpaceOnUse">
				<stop  offset="0" style="stop-color:#4DD0E1"/>
				<stop  offset="0.3925" style="stop-color:#40BEE7"/>
				<stop  offset="0.6129" style="stop-color:#3FBDE7"/>
				<stop  offset="0.6613" style="stop-color:#44C4E8"/>
				<stop  offset="0.7527" style="stop-color:#2CBEE8"/>
				<stop  offset="1" style="stop-color:#2196F3"/>
			</radialGradient>
			<path fill="url(#SVGID_26_)" d="M1087.9,4c-6.4,0-11.7,5.2-11.7,11.7s5.2,11.7,11.7,11.7c6.4,0,11.7-5.2,11.7-11.7
				S1094.4,4,1087.9,4z M1087.9,19.7c-2.3,0-4.1-1.8-4.1-4.1c0-2.3,1.8-4.1,4.1-4.1s4.1,1.8,4.1,4.1
				C1092,17.9,1090.2,19.7,1087.9,19.7z"/>
			<g opacity="0.7" enable-background="new    ">
				<path fill="#FFFFFF" d="M1092,15.9l7.2,0.5l0.4,0c0.1-1.7-0.2-3.3-0.7-4.9l-7.1,2.7C1091.9,14.8,1092,15.3,1092,15.9z"/>
				<path fill="#FFFFFF" d="M1083.9,15.4l-7.2-0.5l-0.4,0c-0.1,1.7,0.2,3.3,0.7,4.9l7.1-2.7C1083.9,16.6,1083.8,16,1083.9,15.4z"/>
			</g>
			<g opacity="0.7" enable-background="new    ">
				<path fill="#FFFFFF" d="M1091.5,13.6l6.2-3.6l0.3-0.2c-0.8-1.4-2-2.7-3.3-3.6l-4.4,6.2C1090.8,12.7,1091.2,13.1,1091.5,13.6z"/>
				<path fill="#FFFFFF" d="M1084.4,17.7l-6.2,3.6l-0.3,0.2c0.8,1.4,2,2.7,3.3,3.6l4.4-6.2C1085.1,18.7,1084.7,18.2,1084.4,17.7z"/>
			</g>
			<path fill="#F5F5F5" enable-background="new    " d="M1087.9,2.1c-7.5,0-13.6,6.1-13.6,13.6c0,7.5,6.1,13.6,13.6,13.6
				s13.6-6.1,13.6-13.6C1101.5,8.2,1095.4,2.1,1087.9,2.1z M1087.9,27.3c-6.4,0-11.7-5.2-11.7-11.7S1081.5,4,1087.9,4
				c6.4,0,11.7,5.2,11.7,11.7S1094.4,27.3,1087.9,27.3z"/>
			<path fill="#0288D1" d="M1087.9,11.6c-2.3,0-4.1,1.8-4.1,4.1c0,2.3,1.8,4.1,4.1,4.1s4.1-1.8,4.1-4.1
				C1092,13.4,1090.2,11.6,1087.9,11.6z M1087.9,19.3c-2,0-3.7-1.6-3.7-3.7c0-2,1.6-3.7,3.7-3.7c2,0,3.7,1.6,3.7,3.7
				C1091.6,17.7,1089.9,19.3,1087.9,19.3z"/>
			<path fill="#F5F5F5" enable-background="new    " d="M1087.9,12c-2,0-3.7,1.6-3.7,3.7c0,2,1.6,3.7,3.7,3.7c2,0,3.7-1.6,3.7-3.7
				C1091.6,13.6,1089.9,12,1087.9,12z M1087.9,17.5c-1,0-1.9-0.8-1.9-1.9c0-1,0.8-1.9,1.9-1.9s1.9,0.8,1.9,1.9
				C1089.8,16.7,1089,17.5,1087.9,17.5z"/>
		</g>
	</g>
	<g id="光盘-音乐" display="none">
		<g display="inline">
			<path opacity="0.2" d="M1087.9,30.7c-8.3,0-15-6.7-15-15c0-8.3,6.7-15,15-15s15,6.7,15,15C1102.9,23.9,1096.2,30.7,1087.9,30.7z
				 M1087.9,14.8c-0.5,0-0.9,0.4-0.9,0.9c0,0.5,0.4,0.9,0.9,0.9s0.9-0.4,0.9-0.9C1088.8,15.2,1088.4,14.8,1087.9,14.8z"/>
			<path opacity="8.000000e-002" d="M1088.6,32.3c-8.5,0-15.5-7-15.5-15.5s7-15.5,15.5-15.5s15.5,7,15.5,15.5
				S1097.1,32.3,1088.6,32.3z M1088.6,16.5c-0.2,0-0.4,0.2-0.4,0.4c0,0.2,0.2,0.4,0.4,0.4c0.2,0,0.4-0.2,0.4-0.4
				C1088.9,16.6,1088.8,16.5,1088.6,16.5z"/>
			<path opacity="0.1" d="M1088.6,31.3c-8.3,0-15-6.7-15-15c0-8.3,6.7-15,15-15s15,6.7,15,15C1103.6,24.6,1096.8,31.3,1088.6,31.3z
				 M1088.6,15.5c-0.5,0-0.9,0.4-0.9,0.9c0,0.5,0.4,0.9,0.9,0.9c0.5,0,0.9-0.4,0.9-0.9C1089.4,15.9,1089.1,15.5,1088.6,15.5z"/>
			<path fill="#01579B" d="M1087.9,30.2c-8,0-14.5-6.5-14.5-14.5s6.5-14.5,14.5-14.5c8,0,14.5,6.5,14.5,14.5
				S1095.9,30.2,1087.9,30.2z M1087.9,14.3c-0.8,0-1.4,0.6-1.4,1.4c0,0.8,0.6,1.4,1.4,1.4s1.4-0.6,1.4-1.4
				C1089.3,14.9,1088.7,14.3,1087.9,14.3z"/>
			<path fill="#0288D1" d="M1087.9,1.7c-7.7,0-14,6.3-14,14c0,7.7,6.3,14,14,14s14-6.3,14-14C1101.9,7.9,1095.7,1.7,1087.9,1.7z
				 M1087.9,29.3c-7.5,0-13.6-6.1-13.6-13.6c0-7.5,6.1-13.6,13.6-13.6s13.6,6.1,13.6,13.6C1101.5,23.2,1095.4,29.3,1087.9,29.3z"/>
			
				<radialGradient id="SVGID_27_" cx="1093.5471" cy="14.7513" r="12.2091" gradientTransform="matrix(0.9556 0 0 0.9556 42.9312 1.5629)" gradientUnits="userSpaceOnUse">
				<stop  offset="0" style="stop-color:#4DD0E1"/>
				<stop  offset="0.3925" style="stop-color:#40BEE7"/>
				<stop  offset="0.6129" style="stop-color:#3FBDE7"/>
				<stop  offset="0.6613" style="stop-color:#44C4E8"/>
				<stop  offset="0.7527" style="stop-color:#2CBEE8"/>
				<stop  offset="1" style="stop-color:#2196F3"/>
			</radialGradient>
			<path fill="url(#SVGID_27_)" d="M1087.9,4c-6.4,0-11.7,5.2-11.7,11.7s5.2,11.7,11.7,11.7c6.4,0,11.7-5.2,11.7-11.7
				S1094.4,4,1087.9,4z M1087.9,19.7c-2.3,0-4.1-1.8-4.1-4.1c0-2.3,1.8-4.1,4.1-4.1s4.1,1.8,4.1,4.1
				C1092,17.9,1090.2,19.7,1087.9,19.7z"/>
			<g opacity="0.7" enable-background="new    ">
				<path fill="#FFFFFF" d="M1092,15.9l7.2,0.5l0.4,0c0.1-1.7-0.2-3.3-0.7-4.9l-7.1,2.7C1091.9,14.8,1092,15.3,1092,15.9z"/>
				<path fill="#FFFFFF" d="M1083.9,15.4l-7.2-0.5l-0.4,0c-0.1,1.7,0.2,3.3,0.7,4.9l7.1-2.7C1083.9,16.6,1083.8,16,1083.9,15.4z"/>
			</g>
			<g opacity="0.7" enable-background="new    ">
				<path fill="#FFFFFF" d="M1091.5,13.6l6.2-3.6l0.3-0.2c-0.8-1.4-2-2.7-3.3-3.6l-4.4,6.2C1090.8,12.7,1091.2,13.1,1091.5,13.6z"/>
				<path fill="#FFFFFF" d="M1084.4,17.7l-6.2,3.6l-0.3,0.2c0.8,1.4,2,2.7,3.3,3.6l4.4-6.2C1085.1,18.7,1084.7,18.2,1084.4,17.7z"/>
			</g>
			<path fill="#F5F5F5" enable-background="new    " d="M1087.9,2.1c-7.5,0-13.6,6.1-13.6,13.6c0,7.5,6.1,13.6,13.6,13.6
				s13.6-6.1,13.6-13.6C1101.5,8.2,1095.4,2.1,1087.9,2.1z M1087.9,27.3c-6.4,0-11.7-5.2-11.7-11.7S1081.5,4,1087.9,4
				c6.4,0,11.7,5.2,11.7,11.7S1094.4,27.3,1087.9,27.3z"/>
			<path fill="#0288D1" d="M1087.9,11.6c-2.3,0-4.1,1.8-4.1,4.1c0,2.3,1.8,4.1,4.1,4.1s4.1-1.8,4.1-4.1
				C1092,13.4,1090.2,11.6,1087.9,11.6z M1087.9,19.3c-2,0-3.7-1.6-3.7-3.7c0-2,1.6-3.7,3.7-3.7c2,0,3.7,1.6,3.7,3.7
				C1091.6,17.7,1089.9,19.3,1087.9,19.3z"/>
			<path fill="#F5F5F5" enable-background="new    " d="M1087.9,12c-2,0-3.7,1.6-3.7,3.7c0,2,1.6,3.7,3.7,3.7c2,0,3.7-1.6,3.7-3.7
				C1091.6,13.6,1089.9,12,1087.9,12z M1087.9,17.5c-1,0-1.9-0.8-1.9-1.9c0-1,0.8-1.9,1.9-1.9s1.9,0.8,1.9,1.9
				C1089.8,16.7,1089,17.5,1087.9,17.5z"/>
		</g>
		<g display="inline">
			<radialGradient id="SVGID_28_" cx="1094.601" cy="10.3809" r="8.5768" gradientUnits="userSpaceOnUse">
				<stop  offset="0" style="stop-color:#607D8B"/>
				<stop  offset="0.3523" style="stop-color:#607D8B"/>
				<stop  offset="0.5982" style="stop-color:#607D8B"/>
				<stop  offset="1" style="stop-color:#455A64"/>
			</radialGradient>
			<path fill="url(#SVGID_28_)" stroke="#263238" stroke-width="0.5" stroke-miterlimit="10" d="M1090.9,3.5L1090.9,3.5v13.3
				c-0.3-0.1-0.5-0.1-0.8-0.1c-1.3,0-2.3,0.8-2.3,1.7s1,1.7,2.3,1.7s2.3-0.8,2.3-1.7l0,0V9.5l8.8-1.8v6.7c-0.3-0.1-0.5-0.1-0.8-0.1
				c-1.3,0-2.3,0.8-2.3,1.7c0,0.9,1,1.7,2.3,1.7s2.3-0.8,2.3-1.7l0,0V1.1L1090.9,3.5z M1101.3,6.2l-8.8,1.8V5.3l8.8-1.8V6.2z"/>
			<g>
				<defs>
					<path id="SVGID_286_" d="M1090.9,3.5L1090.9,3.5v13.3c-0.3-0.1-0.5-0.1-0.8-0.1c-1.3,0-2.3,0.8-2.3,1.7s1,1.7,2.3,1.7
						s2.3-0.8,2.3-1.7l0,0V9.5l8.8-1.8v6.7c-0.3-0.1-0.5-0.1-0.8-0.1c-1.3,0-2.3,0.8-2.3,1.7c0,0.9,1,1.7,2.3,1.7s2.3-0.8,2.3-1.7
						l0,0V1.1L1090.9,3.5z M1101.3,6.2l-8.8,1.8V5.3l8.8-1.8V6.2z"/>
				</defs>
				<clipPath id="SVGID_29_">
					<use xlink:href="#SVGID_286_"  overflow="visible"/>
				</clipPath>
				
					<radialGradient id="SVGID_30_" cx="890.9702" cy="72.7796" r="2.0135" gradientTransform="matrix(1.3028 0 0 1.0766 -70.9641 -60.5474)" gradientUnits="userSpaceOnUse">
					<stop  offset="0.3734" style="stop-color:#5F7B8A"/>
					<stop  offset="1" style="stop-color:#455A64;stop-opacity:0"/>
				</radialGradient>
				<ellipse clip-path="url(#SVGID_29_)" fill="url(#SVGID_30_)" cx="1090" cy="17.8" rx="2.2" ry="1.8"/>
				
					<radialGradient id="SVGID_31_" cx="898.61" cy="70.9196" r="2.0134" gradientTransform="matrix(1.3028 0 0 1.0766 -70.9641 -60.8982)" gradientUnits="userSpaceOnUse">
					<stop  offset="0.3734" style="stop-color:#5F7B8A"/>
					<stop  offset="1" style="stop-color:#455A64;stop-opacity:0"/>
				</radialGradient>
				<ellipse clip-path="url(#SVGID_29_)" fill="url(#SVGID_31_)" cx="1100" cy="15.5" rx="2.2" ry="1.8"/>
			</g>
		</g>
	</g>
	<g display="none">
		<g display="inline">
			<polygon opacity="0.2" points="1082.2,31 1082.2,24.4 1080,24.4 1080,1 1096,1 1096,24.4 1093.8,24.4 1093.8,31 			"/>
			<polygon opacity="8.000000e-002" points="1082.2,32 1082.2,25.4 1080,25.4 1080,1 1097,1 1097,25.4 1094.8,25.4 1094.8,32 			"/>
			<polygon opacity="0.1" points="1082.7,31.5 1082.7,24.9 1080.5,24.9 1080.5,1.5 1096.5,1.5 1096.5,24.9 1094.3,24.9 1094.3,31.5 
							"/>
			<polygon fill="#1B5E20" points="1095.2,1.5 1080.8,1.5 1080.5,1.5 1080.5,1.8 1080.5,23.6 1080.5,23.9 1080.8,23.9 1082.7,23.9 
				1082.7,30.2 1082.7,30.5 1083,30.5 1093,30.5 1093.3,30.5 1093.3,30.2 1093.3,23.9 1095.2,23.9 1095.5,23.9 1095.5,23.6 
				1095.5,1.8 1095.5,1.5 			"/>
			<g>
				<linearGradient id="SVGID_32_" gradientUnits="userSpaceOnUse" x1="1081.8397" y1="23.2828" x2="1093.929" y2="2.5457">
					<stop  offset="0.2366" style="stop-color:#689F38"/>
					<stop  offset="0.9366" style="stop-color:#8BC34A"/>
				</linearGradient>
				<rect x="1081" y="2" fill="url(#SVGID_32_)" width="14" height="21.4"/>
				<rect x="1082.5" y="2" opacity="0.24" fill="#FFFFFF" enable-background="new    " width="4.1" height="21.4"/>
				<g>
					<path id="path1334_11_" inkscape:connector-curvature="0" fill="#33691E" enable-background="new    " d="M1084.3,11.8
						c0,0.4,0.3,0.8,0.7,1v1.1c0,0.4,0.2,0.8,0.5,1c0,0,0,0,0,0v0l0,0c0,0,0,0,0,0c0,0,0,0,0,0c0,0,0,0,0,0c0,0,0,0,0,0c0,0,0,0,0,0
						c0,0,2,1.7,2.1,1.7c0.1,0.1,0.2,0.3,0.2,0.4v1c-0.6,0.2-1.1,0.7-1.1,1.3c0,0.7,0.7,1.3,1.6,1.3c0.9,0,1.6-0.6,1.6-1.3
						c0-0.6-0.4-1.1-1.1-1.3v-1c0,0,0,0,0,0c0,0,0,0,0,0v-1.7c0-0.1,0.1-0.3,0.2-0.4c0,0,0.5-0.4,1-0.8c0.3-0.2,0.5-0.4,0.7-0.6
						c0.1-0.1,0.2-0.1,0.2-0.2c0,0,0.1,0,0.1-0.1c0,0,0,0,0,0c0,0,0,0,0,0c0,0,0,0,0,0c0,0,0,0,0,0c0,0,0,0,0,0c0,0,0,0,0,0l0,0v0
						l0,0c0,0,0,0,0,0c0,0,0,0,0,0c0.3-0.3,0.5-0.6,0.5-1v-1h0.7V9h-2.4v2.1h0.7c0,0.2,0,0.5,0,1c0,0.1-0.1,0.3-0.2,0.4l-1.6,1.3V8
						h1.1l-1.6-2.5l-1.6,2.5h1.1v7.6l-1.6-1.3c-0.1-0.1-0.2-0.3-0.2-0.4c0-0.5,0-0.8,0-1.1c0.4-0.2,0.8-0.5,0.8-1
						c0-0.6-0.6-1.1-1.3-1.1C1084.9,10.7,1084.3,11.2,1084.3,11.8z"/>
					<path id="path1334_10_" inkscape:connector-curvature="0" fill="#DCEDC8" enable-background="new    " d="M1084,11.5
						c0,0.4,0.3,0.8,0.7,1v1.1c0,0.4,0.2,0.8,0.5,1c0,0,0,0,0,0v0l0,0c0,0,0,0,0,0c0,0,0,0,0,0c0,0,0,0,0,0c0,0,0,0,0,0c0,0,0,0,0,0
						c0,0,2,1.7,2.1,1.7c0.1,0.1,0.2,0.3,0.2,0.4v1c-0.6,0.2-1.1,0.7-1.1,1.3c0,0.7,0.7,1.3,1.6,1.3s1.6-0.6,1.6-1.3
						c0-0.6-0.4-1.1-1.1-1.3v-1c0,0,0,0,0,0c0,0,0,0,0,0v-1.7c0-0.1,0.1-0.3,0.2-0.4c0,0,0.5-0.4,1-0.8c0.3-0.2,0.5-0.4,0.7-0.6
						c0.1-0.1,0.2-0.1,0.2-0.2c0,0,0.1,0,0.1-0.1c0,0,0,0,0,0c0,0,0,0,0,0c0,0,0,0,0,0c0,0,0,0,0,0c0,0,0,0,0,0c0,0,0,0,0,0l0,0v0
						l0,0c0,0,0,0,0,0c0,0,0,0,0,0c0.3-0.3,0.5-0.6,0.5-1v-1h0.7V8.8h-2.4V11h0.7c0,0.2,0,0.5,0,1c0,0.1-0.1,0.3-0.2,0.4l-1.6,1.3
						V7.8h1.1l-1.6-2.5l-1.6,2.5h1.1v7.6l-1.6-1.3c-0.1-0.1-0.2-0.3-0.2-0.4c0-0.5,0-0.8,0-1.1c0.4-0.2,0.8-0.5,0.8-1
						c0-0.6-0.6-1.1-1.3-1.1S1084,10.9,1084,11.5z"/>
				</g>
			</g>
			<g>
				<rect x="1083.2" y="23.9" fill="#657B83" width="9.7" height="6.1"/>
				
					<rect id="rect3765_5_" x="1084.5" y="23.9" opacity="0.3114" fill="#FFFFFF" enable-background="new    " width="3.5" height="6.1"/>
				
					<rect id="rect3767_5_" x="1089.2" y="26.4" opacity="0.654" fill="#073642" enable-background="new    " width="2.4" height="2.4"/>
				
					<rect id="rect3769_5_" x="1084.5" y="26.4" opacity="0.654" fill="#073642" enable-background="new    " width="2.4" height="2.4"/>
			</g>
		</g>
	</g>
	<g display="none">
		<g display="inline">
			<path opacity="8.000000e-002" d="M1086.4,32c-3.7,0-7.2-1.8-9.5-4.8h-3.9v-5.5l0.3-2l3.1-18.8h23.4l3.8,18.7l0.3,1.7l0,5.8h-8.1
				C1093.6,30.2,1090.1,32,1086.4,32z"/>
			<path opacity="0.1" d="M1086.4,31.5c-3.7,0-7.1-1.8-9.2-4.8h-3.6v-5l0.3-1.9l3-18.3h22.6l3.8,18.3l0.3,1.7l0,5.2h-7.9
				C1093.5,29.7,1090,31.5,1086.4,31.5z"/>
			<path opacity="0.2" d="M1085.9,31c-3.7,0-7.1-1.8-9.2-4.8h-3.6v-5l0.3-1.9l3-18.3h22.6l3.8,18.3l0.3,1.7l0,5.2h-7.9
				C1093,29.2,1089.5,31,1085.9,31z"/>
			<path fill="#616161" d="M1085.9,30.5c-3.6,0-6.9-1.8-9-4.8h-3.4v-4.5l0.3-1.8l2.9-17.9h21.7l3.7,17.9l0.3,1.7l0,4.6h-7.6
				C1092.8,28.7,1089.5,30.5,1085.9,30.5z"/>
			<path fill="#E0E0E0" d="M1102,21.2l-0.3-1.7L1098.1,2h-7.3h-10.9h-1.6h-1l-2.9,17.5l-0.3,1.7v4h3.2c1.9,2.9,5.1,4.8,8.7,4.8
				c3.6,0,6.8-1.9,8.7-4.8h7.4V21.2z M1081,26.7l-0.7,0.8L1081,26.7L1081,26.7c0.7,0.5,1.5,0.8,2.3,1.1l0.9-2.6h0l-0.9,2.6
				c0.8,0.3,1.7,0.4,2.6,0.4c2.6,0,4.9-1.2,6.5-3h0c-1.6,1.8-3.9,3-6.5,3c-0.9,0-1.8-0.1-2.6-0.4C1082.5,27.6,1081.7,27.2,1081,26.7
				z M1079.7,25.6l0.6-0.4h0L1079.7,25.6C1079.7,25.6,1079.7,25.6,1079.7,25.6z M1077.5,25.2L1077.5,25.2c1.8,2.7,4.9,4.6,8.4,4.6
				C1082.4,29.8,1079.3,27.9,1077.5,25.2z"/>
			<g>
				<g>
					<g>
						<g id="g4_8_">
							<g id="g6_8_" transform="translate(-38.38147 -1006.10034)">
								<path id="path10_8_" fill="#263238" d="M1112.4,1027.3v4h28v-4H1112.4z"/>
								<polygon fill="#E0E0E0" points="1140,1025.6 1136.4,1008.1 1115.5,1008.1 1112.7,1025.6 								"/>
								<polygon opacity="0.25" fill="#9E9E9E" enable-background="new    " points="1140,1025.6 1136.4,1008.1 1129.1,1008.1 
									1124.9,1025.6 								"/>
								<polygon fill="#E0E0E0" points="1112.7,1025.6 1112.4,1027.3 1140.4,1027.3 1140,1025.6 								"/>
								<polygon opacity="0.45" fill="#FFFFFF" enable-background="new    " points="1117.3,1025.6 1118.2,1008.1 1116.5,1008.1 
									1113.7,1025.6 								"/>
							</g>
							<g id="g12_8_" transform="translate(-39.59798 -1004.3622)">
								
									<linearGradient id="path14_9_" gradientUnits="userSpaceOnUse" x1="-2206.927" y1="3589.4136" x2="-2206.927" y2="3588.1328" gradientTransform="matrix(1 0 0 1 3332.4287 -2561.3149)">
									<stop  offset="0" style="stop-color:#455A64"/>
									<stop  offset="0.2052" style="stop-color:#36474F"/>
									<stop  offset="1" style="stop-color:#000000"/>
								</linearGradient>
								<path id="path14_8_" fill="url(#path14_9_)" d="M1135.6,1028.1h-20.3v-1.3c6.6,0,14.2,0,20.3,0V1028.1L1135.6,1028.1z"/>
								
									<linearGradient id="path16_9_" gradientUnits="userSpaceOnUse" x1="-2193.5442" y1="3589.4136" x2="-2193.5442" y2="3588.1328" gradientTransform="matrix(1 0 0 1 3332.4287 -2561.3149)">
									<stop  offset="0" style="stop-color:#38A3E7"/>
									<stop  offset="1" style="stop-color:#1976D2"/>
								</linearGradient>
								<path id="path16_8_" fill="url(#path16_9_)" d="M1138,1028.1h1.9v-1.3h-1.9V1028.1z"/>
							</g>
						</g>
						<g>
							<path fill="#E0E0E0" d="M1085.9,29.8c4.6,0,8.4-3.1,9.7-7.3h-1.6c-1.2,3.3-4.4,5.7-8.1,5.7c-0.9,0-1.8-0.1-2.6-0.4l-0.1,0.3
								l-2.8-0.7l0.7-0.8c-0.5-0.3-0.9-0.7-1.3-1.1l-0.9,0.6l-1.5-1.5l1.2-0.6c-0.3-0.5-0.6-1-0.8-1.6h-1.6
								C1077.4,26.7,1081.3,29.8,1085.9,29.8z"/>
							<path fill="#949494" d="M1095.8,22.5h-0.2c-1.3,4.2-5.2,7.3-9.7,7.3s-8.4-3.1-9.7-7.3h-0.2c1.3,4.4,5.3,7.5,10,7.5
								C1090.6,30,1094.6,26.8,1095.8,22.5z"/>
							<path fill="#949494" d="M1081.5,22.5h-3.8c0.2,0.5,0.5,1.1,0.8,1.6L1081.5,22.5z"/>
							<path fill="#949494" d="M1083.3,23.2l-3.6,2.4c0.4,0.4,0.8,0.8,1.3,1.1l2.7-3.2C1083.6,23.4,1083.5,23.3,1083.3,23.2z"/>
							<path fill="#949494" d="M1085.9,24c-0.4,0-0.8-0.1-1.2-0.2l-1.4,4c0.8,0.3,1.7,0.4,2.6,0.4c3.7,0,6.9-2.4,8.1-5.7h-4.7
								C1088.4,23.4,1087.2,24,1085.9,24z"/>
							<path fill="#E0E0E0" d="M1080.3,27.5l2.8,0.7l0.1-0.3c-0.8-0.3-1.6-0.6-2.3-1.1L1080.3,27.5z"/>
							<path opacity="0.86" fill="#E0E0E0" enable-background="new    " d="M1080.3,27.5l2.8,0.7l0.1-0.3c-0.8-0.3-1.6-0.6-2.3-1.1
								L1080.3,27.5z"/>
							<path fill="#949494" d="M1083.7,23.4l-2.7,3.2c0.7,0.5,1.5,0.9,2.3,1.1l1.4-4C1084.3,23.7,1084,23.6,1083.7,23.4z"/>
							<path opacity="0.86" fill="#E0E0E0" enable-background="new    " d="M1083.7,23.4l-2.7,3.2c0.7,0.5,1.5,0.9,2.3,1.1l1.4-4
								C1084.3,23.7,1084,23.6,1083.7,23.4z"/>
							<path fill="#E0E0E0" d="M1077.3,24.6l1.5,1.5l0.9-0.6c-0.5-0.5-0.9-1-1.2-1.5L1077.3,24.6z"/>
							<path opacity="0.86" fill="#E0E0E0" enable-background="new    " d="M1077.3,24.6l1.5,1.5l0.9-0.6c-0.5-0.5-0.9-1-1.2-1.5
								L1077.3,24.6z"/>
							<path fill="#949494" d="M1079.7,25.6l3.6-2.4c-0.3-0.2-0.6-0.5-0.9-0.7h-0.9l-3,1.6C1078.8,24.6,1079.2,25.1,1079.7,25.6z"/>
							<path opacity="0.86" fill="#E0E0E0" enable-background="new    " d="M1079.7,25.6l3.6-2.4c-0.3-0.2-0.6-0.5-0.9-0.7h-0.9
								l-3,1.6C1078.8,24.6,1079.2,25.1,1079.7,25.6z"/>
							<path fill="#A5A5A5" d="M1083.3,23.2c0.1,0.1,0.2,0.2,0.4,0.2c0.3,0.2,0.6,0.3,1,0.4c0.4,0.1,0.8,0.2,1.2,0.2
								c1.3,0,2.6-0.6,3.4-1.5h-0.7c-0.7,0.6-1.7,1-2.7,1c-1,0-2-0.4-2.7-1h-0.7C1082.7,22.7,1083,23,1083.3,23.2z"/>
							<path fill="#E0E0E0" d="M1085.9,23.5c1,0,2-0.4,2.7-1h-5.4C1083.9,23.1,1084.8,23.5,1085.9,23.5z"/>
						</g>
					</g>
				</g>
			</g>
		</g>
	</g>
	<g id="内存卡" display="none">
		<g display="inline">
			<path opacity="0.2" d="M1078.7,25.4l-5.7-3.1V8.1c0-0.8,0.7-1.5,1.5-1.5h27c0.8,0,1.5,0.7,1.5,1.5V11l-0.1,0.2
				c-0.2,0.3-0.3,0.6-0.3,0.9l0,0.2l0,0.1c0,0.1,0,0.3,0,0.4c0,0.4,0.1,0.7,0.3,0.9l0.1,0.1l0.1,0.2l0,0.3v9.5
				c0,0.8-0.7,1.5-1.5,1.5H1078.7z"/>
			<path opacity="8.000000e-002" d="M1079.1,26.4l-6.1-3.3V8.6c0-1.1,0.9-2,2-2h27c1.1,0,2,0.9,2,2v3.1l-0.2,0.4
				c-0.1,0.2-0.2,0.5-0.3,0.7l0,0.1l0,0.1c0,0.1,0,0.2,0,0.3c0,0.3,0.1,0.5,0.2,0.8l0.1,0.2l0.2,0.3l0,0.4v9.5c0,1.1-0.9,2-2,2
				H1079.1z"/>
			<path opacity="0.1" d="M1079.2,25.9l-5.7-3.1V8.6c0-0.8,0.7-1.5,1.5-1.5h27c0.8,0,1.5,0.7,1.5,1.5v2.9l-0.1,0.2
				c-0.2,0.3-0.3,0.6-0.3,0.9l0,0.2l0,0.1c0,0.1,0,0.3,0,0.4c0,0.4,0.1,0.7,0.3,0.9l0.1,0.1l0.1,0.2l0,0.3v9.5
				c0,0.8-0.7,1.5-1.5,1.5H1079.2z"/>
			<path d="M1078.8,24.9l-5.3-2.9V8.1c0-0.5,0.4-1,1-1h27c0.5,0,1,0.4,1,1v2.8l-0.1,0.1c-0.2,0.3-0.3,0.7-0.4,1.1l0,0.1l0,0.1l0,0.1
				c0,0.1,0,0.3,0,0.4c0,0.4,0.2,0.8,0.4,1.1l0,0.1l0.1,0.1l0,0.1v9.6c0,0.5-0.4,1-1,1H1078.8z"/>
			<g>
				<path fill="#221E1F" d="M1101.8,14.5C1101.8,14.5,1101.8,14.5,1101.8,14.5c-0.1-0.2-0.1-0.3-0.1-0.5c0,0,0,0,0-0.1
					c0-0.1,0-0.2,0-0.3l0,0c-0.1-0.2-0.1-0.5-0.1-0.7c0,0,0,0,0,0c0-0.1,0-0.2,0-0.3l0,0c0-0.1,0-0.2,0-0.3c0,0,0,0,0,0
					c0,0,0-0.1,0-0.1c0.1-0.5,0.2-0.9,0.5-1.3V9.9c0-0.3-0.2-0.5-0.5-0.5h-27c-0.3,0-0.5,0.2-0.5,0.5v11.8l5,2.7h22.6
					c0.3,0,0.5-0.2,0.5-0.5v-9l0,0C1101.9,14.8,1101.8,14.6,1101.8,14.5z"/>
				<path fill="#221E1F" d="M1102,14.3L1102,14.3L1102,14.3c-0.2-0.4-0.4-0.8-0.4-1.3c0,0,0,0,0,0c0,0,0,0,0,0c0-0.1,0-0.3,0-0.4
					c0-0.1,0-0.1,0-0.2c0,0,0,0,0,0c0-0.1,0-0.2,0-0.3l0,0c0-0.1,0-0.2,0-0.3c0,0,0,0,0,0c0.1-0.5,0.2-0.9,0.5-1.3V8.1
					c0-0.3-0.2-0.5-0.5-0.5h-27c-0.3,0-0.5,0.2-0.5,0.5v12.3l5,2.8h22.6c0.3,0,0.5-0.1,0.5-0.4L1102,14.3L1102,14.3
					C1102,14.3,1102,14.3,1102,14.3z"/>
				<linearGradient id="SVGID_33_" gradientUnits="userSpaceOnUse" x1="1088.04" y1="8.7469" x2="1088.04" y2="23.6149">
					<stop  offset="0" style="stop-color:#6C6E70"/>
					<stop  offset="0" style="stop-color:#67696B"/>
					<stop  offset="0" style="stop-color:#535455"/>
					<stop  offset="0" style="stop-color:#434444"/>
					<stop  offset="0" style="stop-color:#383839"/>
					<stop  offset="0" style="stop-color:#323232"/>
					<stop  offset="0" style="stop-color:#303030"/>
					<stop  offset="1" style="stop-color:#303030"/>
				</linearGradient>
				<path fill="url(#SVGID_33_)" d="M1101.6,14.3c-0.1-0.1-0.1-0.3-0.2-0.4v0c0,0,0,0,0,0c0,0,0,0,0,0c-0.2-0.4-0.2-0.9-0.2-1.4
					c0,0,0-0.1,0-0.1c0,0,0,0,0,0c0-0.1,0-0.2,0-0.3l0,0c0-0.1,0-0.2,0-0.3c0,0,0,0,0,0c0.1-0.5,0.2-0.9,0.5-1.3V9.1
					c0-0.3-0.2-0.5-0.5-0.5h-26.3c-0.3,0-0.5,0.2-0.5,0.5v11.8l4.6,2.7h22.2c0.3,0,0.5-0.2,0.5-0.5L1101.6,14.3L1101.6,14.3
					C1101.7,14.4,1101.6,14.3,1101.6,14.3z"/>
				<linearGradient id="SVGID_34_" gradientUnits="userSpaceOnUse" x1="1090.1309" y1="19.677" x2="1090.1309" y2="9.9813">
					<stop  offset="1.075270e-002" style="stop-color:#6C6E70"/>
					<stop  offset="1.166943e-002" style="stop-color:#595B5C"/>
					<stop  offset="1.300527e-002" style="stop-color:#444546"/>
					<stop  offset="1.458401e-002" style="stop-color:#343535"/>
					<stop  offset="1.653608e-002" style="stop-color:#29292A"/>
					<stop  offset="1.927593e-002" style="stop-color:#232323"/>
					<stop  offset="2.688170e-002" style="stop-color:#212121"/>
					<stop  offset="1" style="stop-color:#212121"/>
				</linearGradient>
				<path fill="url(#SVGID_34_)" d="M1100,19.2c0,0.3-0.3,0.6-0.6,0.6h-18.6c-0.3,0-0.6-0.3-0.6-0.6v-8.6c0-0.3,0.3-0.6,0.6-0.6
					h18.6c0.3,0,0.6,0.3,0.6,0.6V19.2z"/>
				<text transform="matrix(0.9497 0 0 1 1076.1328 20.5693)"><tspan x="0" y="0" fill="#BBBDBF" font-family="'Arial-Black'" font-size="1.5215">32</tspan><tspan x="2" y="0" fill="#BBBDBF" font-family="'Arial-Black'" font-size="1.0328">GB</tspan></text>
				<text transform="matrix(0.9497 0 0 1 1088.4473 12.0781)"><tspan x="0" y="0" fill="#BBBDBF" font-family="'Arial-Black'" font-size="1.5215">TOTAL 32</tspan><tspan x="8.2" y="0" fill="#BBBDBF" font-family="'Arial-Black'" font-size="1.0328">GB</tspan></text>
				<g>
					
						<text transform="matrix(0.9832 0 0 1 1082.4863 18.623)" fill="#A6A8AB" font-family="'BankGothicBT-Medium'" font-size="1.8436">MEMORY</text>
					
						<text transform="matrix(0.9832 0 0 1 1092.418 18.5947)" fill="#A6A8AB" font-family="'BankGothicBT-Medium'" font-size="1.8436">STICK</text>
				</g>
				<polygon fill="#FFFFFF" points="1075,20 1075.3,19.7 1075.7,19.4 1075.7,20 1075.7,20.6 1075.3,20.3 				"/>
				<path fill="#FFFFFF" d="M1077.2,10.1c-1.1,0-1.9,0.9-1.9,1.9c0,1.1,0.9,1.9,1.9,1.9c1.1,0,1.9-0.9,1.9-1.9
					C1079.1,11,1078.2,10.1,1077.2,10.1z M1077.8,10.7c0.1,0,0.3,0.1,0.3,0.3c0,0.1-0.1,0.3-0.3,0.3c-0.1,0-0.3-0.1-0.3-0.3
					C1077.6,10.8,1077.7,10.7,1077.8,10.7z M1075.9,12.3c-0.1,0-0.3-0.1-0.3-0.3c0-0.1,0.1-0.3,0.3-0.3c0.1,0,0.3,0.1,0.3,0.3
					C1076.1,12.2,1076,12.3,1075.9,12.3z M1076.1,12.4c0.1-0.1,0.2-0.2,0.2-0.3c0-0.1-0.1-0.2-0.2-0.3c0.1-0.2,0.3-0.5,0.5-0.6
					l0.2,0.3c-0.1,0.1-0.3,0.3-0.3,0.6c0,0.3,0.2,0.5,0.3,0.6l-0.2,0.3C1076.3,12.9,1076.1,12.6,1076.1,12.4z M1077,11.6l0.1-0.1v0
					L1077,11.6l0.1,0.2l-0.1,0.1l0.1,0.1l0.2,0.1l0.1,0l0.1,0l0.1-0.1l0.1,0l0,0.2h0l-0.1,0l-0.1,0l-0.1,0.1l0,0.1l0.1,0.1l-0.1,0.1
					l0,0.1h-0.2l0.1-0.2l0-0.1v0l-0.1,0.1v0l0,0l0,0l0,0.1l-0.2,0l0.1-0.1l0.1-0.1l-0.1-0.1l-0.1,0l-0.1,0l-0.1,0l-0.1,0.1l0,0.1
					h-0.1l0.1-0.1l0.1-0.1l0-0.1l0-0.1l-0.1-0.2l0.1-0.1l0.1-0.1l0.1-0.1l0,0L1077,11.6L1077,11.6L1077,11.6L1077,11.6z
					 M1077.8,13.5c-0.1,0-0.3-0.1-0.3-0.3c0-0.1,0.1-0.3,0.3-0.3c0.1,0,0.3,0.1,0.3,0.3C1078.1,13.4,1078,13.5,1077.8,13.5z
					 M1078,12.9c-0.1,0-0.1,0-0.2,0c-0.1,0-0.3,0.1-0.3,0.3c-0.4,0.1-0.7,0-0.8-0.1l0.2-0.3c0.1,0,0.4,0.1,0.7,0
					c0.2-0.2,0.3-0.4,0.3-0.6l0.4,0C1078.3,12.5,1078.1,12.7,1078,12.9z M1077.9,12c0-0.3-0.2-0.5-0.5-0.6c-0.2-0.1-0.5-0.1-0.6,0
					l-0.2-0.3c0.2-0.1,0.6-0.1,0.8-0.1c0,0,0,0.2,0.2,0.3c0.1,0.1,0.2,0.1,0.3,0c0.2,0.2,0.3,0.5,0.3,0.7H1077.9z"/>
			</g>
		</g>
	</g>
	<g id="软驱" display="none">
		<g display="inline">
			<path opacity="0.2" d="M1075.1,31c-1.1,0-2-0.9-2-2V3c0-1.1,0.9-2,2-2l2.4,0l0.2,0.4l2.3,0V1l1,0l15.6,0v0h3.6l2.9,2.8V29
				c0,1.1-0.9,2-2,2H1075.1z"/>
			<path opacity="8.000000e-002" d="M1075.6,32c-1.4,0-2.5-1.1-2.5-2.5v-26c0-1.4,1.1-2.5,2.5-2.5l2.7,0l0.2,0.4l1.5,0V1.1l1.5-0.1
				l16.1,0v0h3.3l3.2,3.1v25.4c0,1.4-1.1,2.5-2.5,2.5H1075.6z"/>
			<path opacity="0.1" d="M1075.6,31.5c-1.1,0-2-0.9-2-2v-26c0-1.1,0.9-2,2-2l2.4,0l0.2,0.4l2.3,0V1.5l1,0l15.6,0v0h3.6l2.9,2.8
				v25.2c0,1.1-0.9,2-2,2H1075.6z"/>
			<path d="M1075.1,30.5c-0.8,0-1.5-0.7-1.5-1.5V3c0-0.8,0.7-1.5,1.5-1.5l2,0l0.1,0.3c0,0,0.1,0.1,0.1,0.1c0,0,0.1,0,0.1,0l3,0V1.5
				l0.5,0l15,0v0.2h0.1V1.5h3.8l2.6,2.5v25c0,0.8-0.7,1.5-1.5,1.5H1075.1z"/>
			<g>
				<g>
					<g>
						<linearGradient id="SVGID_35_" gradientUnits="userSpaceOnUse" x1="1088" y1="2.0146" x2="1088" y2="53.8815">
							<stop  offset="0" style="stop-color:#211D1E"/>
							<stop  offset="0.55" style="stop-color:#58595B"/>
							<stop  offset="1" style="stop-color:#ABB6BE"/>
						</linearGradient>
						<path fill-rule="evenodd" clip-rule="evenodd" fill="url(#SVGID_35_)" d="M1101.9,29c0,0.5-0.5,1-1,1h-25.9c-0.6,0-1-0.4-1-1
							V3c0-0.5,0.4-1,1-1l0,0l1.7,0c0.1,0.3,0.4,0.4,0.7,0.4l18.2,0c0.3,0,0.6-0.2,0.7-0.4l3.3,0l2.3,2.2V29z"/>
						<linearGradient id="SVGID_36_" gradientUnits="userSpaceOnUse" x1="1088.2788" y1="13.587" x2="1088.2788" y2="31.7403">
							<stop  offset="0" style="stop-color:#FFFFFF"/>
							<stop  offset="1" style="stop-color:#CFD8DC"/>
						</linearGradient>
						<path fill-rule="evenodd" clip-rule="evenodd" fill="url(#SVGID_36_)" d="M1078.3,14h20c0.6,0,1,0.5,1,1v15h-22.1V15
							C1077.2,14.4,1077.7,14,1078.3,14z"/>
						<path fill-rule="evenodd" clip-rule="evenodd" fill="#221E1F" d="M1077.8,12.1c-0.4,0-0.7-0.3-0.7-0.7v-9
							c0.1,0.1,0.2,0.1,0.3,0.1v8.9c0,0.4,0.3,0.7,0.7,0.7L1077.8,12.1z"/>
						<path fill-rule="evenodd" clip-rule="evenodd" fill="#040000" d="M1078.1,13.9h20.1c0.2,0,0.5,0.1,0.6,0.2
							c-0.1,0-0.2-0.1-0.3-0.1h-20.1c-0.6,0-1,0.5-1,1V30h-0.3V14.9C1077,14.3,1077.5,13.9,1078.1,13.9z"/>
						<path fill-rule="evenodd" clip-rule="evenodd" fill="#BAC6D1" d="M1098.7,14.1c0.5,0.1,0.8,0.5,0.8,1V27h0v1.1h0V30h-0.4V14.9
							C1099.2,14.6,1099,14.2,1098.7,14.1z"/>
						<path fill-rule="evenodd" clip-rule="evenodd" fill="#616161" d="M1096.3,2.1l0,9.2c0,0.4-0.3,0.7-0.7,0.7l-17.4,0
							c-0.3,0-0.5-0.2-0.7-0.4c0.1,0,0.5,0.2,0.6,0.2l17.1,0c0.4,0,0.7-0.3,0.7-0.7l0-8.8C1096.1,2.4,1096.2,2.3,1096.3,2.1
							L1096.3,2.1z M1095.6,2.5l-11,0l0,0L1095.6,2.5z"/>
						<path fill-rule="evenodd" clip-rule="evenodd" fill="#221E1F" d="M1081,2h14.5v8.4c0,0.6-0.5,1-1,1l-12.5,0c-0.6,0-1-0.5-1-1
							V2.1V2z M1090.3,3c-0.4,0-0.7,0.3-0.7,0.7v6.7c0,0.4,0.3,0.7,0.7,0.7l2.8,0c0.4,0,0.7-0.3,0.7-0.7V3.7c0-0.4-0.3-0.7-0.7-0.7
							H1090.3z"/>
						<linearGradient id="SVGID_37_" gradientUnits="userSpaceOnUse" x1="1067.777" y1="8.7801" x2="1097.6116" y2="5.6443">
							<stop  offset="0" style="stop-color:#BFD7B1"/>
							<stop  offset="0.36" style="stop-color:#CFD1D2"/>
							<stop  offset="1" style="stop-color:#FFFFFF"/>
						</linearGradient>
						<path fill-rule="evenodd" clip-rule="evenodd" fill="url(#SVGID_37_)" d="M1080.9,2l14.6,0v8.3c0,0.6-0.5,1-1,1l-12.5,0
							c-0.6,0-1-0.5-1-1V2L1080.9,2z M1090.3,2.9c-0.4,0-0.7,0.3-0.7,0.7v6.7c0,0.4,0.3,0.7,0.7,0.7l2.8,0c0.4,0,0.7-0.3,0.7-0.7
							V3.6c0-0.4-0.3-0.7-0.7-0.7H1090.3z"/>
						<path fill-rule="evenodd" clip-rule="evenodd" fill="#FFFFFF" d="M1080.9,2h14.6v0.1l-14.4,0v8.3c0,0.2,0.1,0.4,0.2,0.6
							c-0.2-0.2-0.3-0.4-0.3-0.7V2L1080.9,2z M1093.7,3.2c0.1,0.1,0.1,0.2,0.1,0.4v6.7c0,0.4-0.3,0.7-0.7,0.7l-2.8,0
							c-0.2,0-0.3-0.1-0.5-0.2c0.1,0.2,0.3,0.3,0.6,0.3l2.8,0c0.4,0,0.7-0.3,0.7-0.7V3.7C1093.9,3.5,1093.9,3.3,1093.7,3.2z"/>
					</g>
				</g>
				<g>
					<rect x="1081.2" y="18.3" fill="#90A4AE" width="14" height="0.8"/>
				</g>
				<g>
					<rect x="1081.2" y="24.2" fill="#90A4AE" width="14" height="0.8"/>
				</g>
			</g>
		</g>
	</g>
	<g id="sd" display="none">
		<g>
			<path display="inline" opacity="0.2" fill-rule="evenodd" clip-rule="evenodd" d="M1076.3,31c-1.1,0-2.1-0.9-2.1-2.1V18.6h0.8
				v-8.4h-0.8V3c0-1.1,0.9-2,2.1-2h22.5l3,3V11h-0.8v2.7h0.8V29c0,1.1-0.9,2-2.1,2H1076.3z"/>
			<path display="inline" opacity="8.000000e-002" fill-rule="evenodd" clip-rule="evenodd" d="M1076.8,32c-1.4,0-2.6-1.1-2.6-2.6
				V18.6h0.8v-7.4h-0.8V3.5c0-1.4,1.1-2.5,2.6-2.5h22.8l3.3,3.3V12h-0.8v1.7h0.8v15.7c0,1.4-1.1,2.5-2.6,2.5H1076.8z"/>
			<path display="inline" opacity="0.1" fill-rule="evenodd" clip-rule="evenodd" d="M1076.8,31.5c-1.1,0-2.1-0.9-2.1-2.1V19.1h0.8
				v-8.4h-0.8V3.5c0-1.1,0.9-2,2.1-2h22.5l3,3v7.1h-0.8v2.7h0.8v15.2c0,1.1-0.9,2-2.1,2H1076.8z"/>
			<path display="inline" fill-rule="evenodd" clip-rule="evenodd" d="M1076.3,30.5c-0.9,0-1.6-0.7-1.6-1.6v-9.8h0.8V9.7h-0.8V3
				c0-0.9,0.7-1.5,1.6-1.5h22.3l2.7,2.7v6.3h-0.8v3.7h0.8V29c0,0.8-0.7,1.5-1.6,1.5H1076.3z"/>
			<linearGradient id="SVGID_38_" gradientUnits="userSpaceOnUse" x1="1088" y1="2" x2="1088" y2="53.8977">
				<stop  offset="0" style="stop-color:#211D1E"/>
				<stop  offset="0.55" style="stop-color:#58595B"/>
				<stop  offset="1" style="stop-color:#ABB6BE"/>
			</linearGradient>
			<path display="inline" fill-rule="evenodd" clip-rule="evenodd" fill="url(#SVGID_38_)" d="M1100,14.7V10h0.8V4.4l-2.4-2.4h-22.1
				c-0.6,0-1.1,0.5-1.1,1v6.2h0.8v10.4h-0.8v9.3c0,0.6,0.5,1.1,1.1,1.1h23.5c0.6,0,1.1-0.4,1.1-1V14.7H1100z"/>
			<g display="inline">
				<g>
					<path fill="#616161" d="M1098,2.9l1.9,1.8v4.3h-0.6h-0.2v0.2v6.2v0.2h0.2h0.6V29c0,0.1-0.1,0.1-0.1,0.1h-23.5
						c-0.1,0-0.1-0.1-0.1-0.1v-8.4h0.6h0.2v-0.2V8.5V8.3h-0.2h-0.6V3c0-0.1,0.1-0.1,0.1-0.1H1098 M1098.1,2.7h-21.8
						c-0.2,0-0.3,0.1-0.3,0.3v5.5h0.8v11.9h-0.8v8.6c0,0.2,0.1,0.3,0.3,0.3h23.5c0.2,0,0.3-0.1,0.3-0.3V15.5h-0.8V9.3h0.8V4.7
						L1098.1,2.7L1098.1,2.7z"/>
				</g>
			</g>
			<g display="inline">
				<g>
					<g>
						<rect x="1078.3" y="4.9" fill-rule="evenodd" clip-rule="evenodd" fill="#B71C1C" width="19.3" height="23.1"/>
						<linearGradient id="SVGID_39_" gradientUnits="userSpaceOnUse" x1="1088" y1="4.547" x2="1088" y2="30.2079">
							<stop  offset="0" style="stop-color:#F44336"/>
							<stop  offset="1" style="stop-color:#D32F2F"/>
						</linearGradient>
						<rect x="1078.6" y="5.1" fill-rule="evenodd" clip-rule="evenodd" fill="url(#SVGID_39_)" width="18.8" height="22.6"/>
					</g>
				</g>
			</g>
			
				<text transform="matrix(1 0 0 1 1084.3369 25.5649)" display="inline" fill="#FFFFFF" font-family="'Arial-BoldMT'" font-size="8.6732">SD</text>
			
				<text transform="matrix(1 0 0 1 1088.9824 18.4717)" display="inline" fill="#FFFFFF" font-family="'ArialMT'" font-size="2.4666">MMC</text>
			<rect x="1084.3" y="5.1" display="inline" fill-rule="evenodd" clip-rule="evenodd" fill="#212121" width="7.4" height="6.9"/>
			
				<text transform="matrix(1.0547 0 0 1 1085.0752 11.2305)" display="inline" fill="#FFFFFF" font-family="'Arial-Black'" font-size="2.5594">32G</text>
			<path display="inline" fill="#131313" fill-opacity="0.2" d="M1078.6,5.1h18.8v3.5h-18.8V5.1z"/>
		</g>
		<g display="inline">
			<path opacity="0.2" fill-rule="evenodd" clip-rule="evenodd" d="M1076.3,31c-1.1,0-2.1-0.9-2.1-2.1V18.6h0.8v-8.4h-0.8V3
				c0-1.1,0.9-2,2.1-2h22.5l3,3V11h-0.8v2.7h0.8V29c0,1.1-0.9,2-2.1,2H1076.3z"/>
			<path opacity="8.000000e-002" fill-rule="evenodd" clip-rule="evenodd" d="M1076.8,32c-1.4,0-2.6-1.1-2.6-2.6V18.6h0.8v-7.4h-0.8
				V3.5c0-1.4,1.1-2.5,2.6-2.5h22.8l3.3,3.3V12h-0.8v1.7h0.8v15.7c0,1.4-1.1,2.5-2.6,2.5H1076.8z"/>
			<path opacity="0.1" fill-rule="evenodd" clip-rule="evenodd" d="M1076.8,31.5c-1.1,0-2.1-0.9-2.1-2.1V19.1h0.8v-8.4h-0.8V3.5
				c0-1.1,0.9-2,2.1-2h22.5l3,3v7.1h-0.8v2.7h0.8v15.2c0,1.1-0.9,2-2.1,2H1076.8z"/>
			<path fill-rule="evenodd" clip-rule="evenodd" d="M1076.3,30.5c-0.9,0-1.6-0.7-1.6-1.6v-9.8h0.8V9.7h-0.8V3
				c0-0.9,0.7-1.5,1.6-1.5h22.3l2.7,2.7v6.3h-0.8v3.7h0.8V29c0,0.8-0.7,1.5-1.6,1.5H1076.3z"/>
			<g>
				<linearGradient id="SVGID_40_" gradientUnits="userSpaceOnUse" x1="1088" y1="2" x2="1088" y2="53.8977">
					<stop  offset="0" style="stop-color:#211D1E"/>
					<stop  offset="0.55" style="stop-color:#58595B"/>
					<stop  offset="1" style="stop-color:#ABB6BE"/>
				</linearGradient>
				<path fill-rule="evenodd" clip-rule="evenodd" fill="url(#SVGID_40_)" d="M1100,14.7V10h0.8V4.4l-2.4-2.4h-22.1
					c-0.6,0-1.1,0.5-1.1,1v6.2h0.8v10.4h-0.8v9.3c0,0.6,0.5,1.1,1.1,1.1h23.5c0.6,0,1.1-0.4,1.1-1V14.7H1100z"/>
				<g>
					<g>
						<path fill="#616161" d="M1098,2.9l1.9,1.8v4.3h-0.6h-0.2v0.2v6.2v0.2h0.2h0.6V29c0,0.1-0.1,0.1-0.1,0.1h-23.5
							c-0.1,0-0.1-0.1-0.1-0.1v-8.4h0.6h0.2v-0.2V8.5V8.3h-0.2h-0.6V3c0-0.1,0.1-0.1,0.1-0.1H1098 M1098.1,2.7h-21.8
							c-0.2,0-0.3,0.1-0.3,0.3v5.5h0.8v11.9h-0.8v8.6c0,0.2,0.1,0.3,0.3,0.3h23.5c0.2,0,0.3-0.1,0.3-0.3V15.5h-0.8V9.3h0.8V4.7
							L1098.1,2.7L1098.1,2.7z"/>
					</g>
				</g>
				<g>
					<g>
						<g>
							<rect x="1078.3" y="4.9" fill-rule="evenodd" clip-rule="evenodd" fill="#B71C1C" width="19.3" height="23.1"/>
							<linearGradient id="SVGID_41_" gradientUnits="userSpaceOnUse" x1="1088" y1="4.547" x2="1088" y2="30.2079">
								<stop  offset="0" style="stop-color:#F44336"/>
								<stop  offset="1" style="stop-color:#D32F2F"/>
							</linearGradient>
							<rect x="1078.6" y="5.1" fill-rule="evenodd" clip-rule="evenodd" fill="url(#SVGID_41_)" width="18.8" height="22.6"/>
						</g>
					</g>
				</g>
				<text transform="matrix(1 0 0 1 1080.2593 24.709)" fill="#FFFFFF" font-family="'Arial-BoldMT'" font-size="10.9492">SD</text>
				<rect x="1084.3" y="5.1" fill-rule="evenodd" clip-rule="evenodd" fill="#212121" width="7.4" height="6.9"/>
				<path fill="#131313" fill-opacity="0.2" d="M1078.6,5.1h18.8v3.5h-18.8V5.1z"/>
				<line fill="none" stroke="#FFFFFF" stroke-width="1.5" stroke-miterlimit="10" x1="1085.7" y1="10.1" x2="1087.8" y2="10.1"/>
				<line fill="none" stroke="#FFFFFF" stroke-width="1.5" stroke-miterlimit="10" x1="1088.9" y1="10.1" x2="1090.3" y2="10.1"/>
			</g>
		</g>
	</g>
	<g id="sm" display="none">
		<g display="inline">
			<path opacity="0.2" fill-rule="evenodd" clip-rule="evenodd" d="M1076.8,31c-1.1,0-2.1-0.9-2.1-2.1V3c0-1.1,0.9-2,2.1-2h21.4l3,3
				v25c0,1.1-0.9,2-2.1,2H1076.8z"/>
			<path opacity="8.000000e-002" fill-rule="evenodd" clip-rule="evenodd" d="M1077.3,32c-1.4,0-2.6-1.1-2.6-2.6V3.5
				c0-1.4,1.1-2.5,2.6-2.5h21.6l3.3,3.3v25.2c0,1.4-1.1,2.5-2.6,2.5H1077.3z"/>
			<path opacity="0.1" fill-rule="evenodd" clip-rule="evenodd" d="M1077.3,31.5c-1.1,0-2.1-0.9-2.1-2.1V3.5c0-1.1,0.9-2,2.1-2h21.4
				l3,3v25c0,1.1-0.9,2-2.1,2H1077.3z"/>
			<path fill-rule="evenodd" clip-rule="evenodd" d="M1076.8,30.5c-0.9,0-1.6-0.7-1.6-1.6V3c0-0.9,0.7-1.5,1.6-1.5h21.2l2.7,2.7V29
				c0,0.8-0.7,1.5-1.6,1.5H1076.8z"/>
			<linearGradient id="SVGID_42_" gradientUnits="userSpaceOnUse" x1="1088" y1="2" x2="1088" y2="53.8977">
				<stop  offset="0" style="stop-color:#211D1E"/>
				<stop  offset="0.55" style="stop-color:#58595B"/>
				<stop  offset="1" style="stop-color:#ABB6BE"/>
			</linearGradient>
			<path fill-rule="evenodd" clip-rule="evenodd" fill="url(#SVGID_42_)" d="M1100.2,4.4l-2.4-2.4h-21c-0.6,0-1.1,0.5-1.1,1v25.9
				c0,0.6,0.5,1.1,1.1,1.1h22.3c0.6,0,1.1-0.4,1.1-1V4.4z"/>
			<g>
				<g>
					<g>
						<path fill="#616161" d="M1097.4,2.9l1.9,1.8V29c0,0.1-0.1,0.1-0.1,0.1h-22.3c-0.1,0-0.1-0.1-0.1-0.1V3c0-0.1,0.1-0.1,0.1-0.1
							H1097.4 M1097.5,2.7h-20.7c-0.2,0-0.3,0.1-0.3,0.3v25.9c0,0.2,0.1,0.3,0.3,0.3h22.3c0.2,0,0.3-0.1,0.3-0.3V4.7L1097.5,2.7
							L1097.5,2.7z"/>
					</g>
				</g>
				<path fill="#F9CE1D" stroke="#212121" stroke-width="0.7735" d="M1079.6,4.9h16.6c0.7,0,1.3,0.6,1.3,1.3v9.1
					c0,0.7-0.6,1.3-1.3,1.3h-16.6c-0.7,0-1.3-0.6-1.3-1.3V6.2C1078.3,5.4,1078.9,4.9,1079.6,4.9z"/>
				<g>
					<linearGradient id="SVGID_43_" gradientUnits="userSpaceOnUse" x1="1087.9619" y1="29.7686" x2="1087.9619" y2="23.1914">
						<stop  offset="0" style="stop-color:#616161"/>
						<stop  offset="0.1882" style="stop-color:#FFFFFF"/>
					</linearGradient>
					<path fill="url(#SVGID_43_)" d="M1078.6,29.8v-5.5c0-0.6,0.5-1.1,1.1-1.1h16.6c0.6,0,1.1,0.5,1.1,1.1v5.5H1078.6z"/>
					<path fill="#212121" d="M1096.3,23.4c0.5,0,0.8,0.4,0.8,0.8v5.3h-18.3v-5.3c0-0.5,0.4-0.8,0.8-0.8H1096.3 M1096.3,23h-16.6
						c-0.7,0-1.3,0.6-1.3,1.3V30h19.2v-5.7C1097.6,23.5,1097,23,1096.3,23L1096.3,23z"/>
				</g>
				<g>
					<linearGradient id="SVGID_44_" gradientUnits="userSpaceOnUse" x1="1078.8066" y1="24.3973" x2="1097.1162" y2="24.3973">
						<stop  offset="0" style="stop-color:#F57C00"/>
						<stop  offset="1" style="stop-color:#FF5722"/>
					</linearGradient>
					<path fill="url(#SVGID_44_)" d="M1078.8,25.4v-1.1c0-0.5,0.4-0.8,0.8-0.8h16.6c0.5,0,0.8,0.4,0.8,0.8v1.1H1078.8z"/>
				</g>
				
					<linearGradient id="SVGID_45_" gradientUnits="userSpaceOnUse" x1="-1819.3413" y1="2686.8281" x2="-1821.2164" y2="2690.4536" gradientTransform="matrix(2.6667 0 0 -2.6667 5942.5928 7181.4478)">
					<stop  offset="0" style="stop-color:#F9CE1D"/>
					<stop  offset="0.5" style="stop-color:#F5A816"/>
					<stop  offset="1" style="stop-color:#F9CE1D"/>
				</linearGradient>
				<path fill="url(#SVGID_45_)" stroke="#C39F00" stroke-width="0.2578" d="M1079.6,4.9h16.6c0.7,0,1.3,0.6,1.3,1.3v9.1
					c0,0.7-0.6,1.3-1.3,1.3h-16.6c-0.7,0-1.3-0.6-1.3-1.3V6.2C1078.3,5.4,1078.9,4.9,1079.6,4.9z"/>
				<path fill="none" stroke="#FFFFFF" stroke-width="0.2578" stroke-opacity="0.447" d="M1079.9,5.5h16.3c0.4,0,0.8,0.4,0.8,0.8
					l0,8.7c0,0.4-0.4,0.8-0.8,0.8h-16.3c-0.4,0-0.8-0.4-0.8-0.8l0-8.7C1079.1,5.9,1079.4,5.5,1079.9,5.5z"/>
				<path fill="#FFFFFF" fill-opacity="0.447" d="M1080.1,5.2v4.1c5-2,10.4,2.7,15.8,1.4V5.2h0.7v11h-0.7v-4.1
					c-6,1.3-10.7-3.5-15.8-1.4v5.5h-0.7v-11L1080.1,5.2L1080.1,5.2z"/>
				<path fill="#FFFFFF" fill-opacity="0.447" d="M1080.8,5.2v3.3l0.7-0.2V5.2H1080.8z"/>
				<path fill="#FFFFFF" fill-opacity="0.447" d="M1082.1,8.3V5.2h0.7v3L1082.1,8.3z"/>
				<path fill="#FFFFFF" fill-opacity="0.447" d="M1083.5,8.2v-3h0.7v3.1L1083.5,8.2z"/>
				<path fill="#FFFFFF" fill-opacity="0.447" d="M1084.9,8.5V5.2h0.7v3.4L1084.9,8.5z"/>
				<path fill="#FFFFFF" fill-opacity="0.447" d="M1086.3,8.7V5.2h0.7v3.7L1086.3,8.7z"/>
				<path fill="#FFFFFF" fill-opacity="0.447" d="M1087.6,9.1V5.2h0.7v4L1087.6,9.1z"/>
				<path fill="#FFFFFF" fill-opacity="0.447" d="M1089,9.5V5.2h0.7v4.4L1089,9.5z"/>
				<path fill="#FFFFFF" fill-opacity="0.447" d="M1090.4,9.7V5.2h0.7v4.7L1090.4,9.7z"/>
				<path fill="#FFFFFF" fill-opacity="0.447" d="M1091.8,10.1V5.2h0.7v4.9L1091.8,10.1z"/>
				<path fill="#FFFFFF" fill-opacity="0.447" d="M1093.1,10.2v-5h0.7v5H1093.1z"/>
				<path fill="#FFFFFF" fill-opacity="0.447" d="M1094.5,10.2v-5h0.7v4.9L1094.5,10.2z"/>
				<path fill="#FFFFFF" fill-opacity="0.447" d="M1080.8,16.2v-5.1l0.7-0.1v5.2H1080.8z"/>
				<path fill="#FFFFFF" fill-opacity="0.447" d="M1082.1,10.9v5.2h0.7v-5.3L1082.1,10.9z"/>
				<path fill="#FFFFFF" fill-opacity="0.447" d="M1083.5,10.9v5.3h0.7v-5.2L1083.5,10.9z"/>
				<path fill="#FFFFFF" fill-opacity="0.447" d="M1084.9,11.1v5h0.7v-4.9L1084.9,11.1z"/>
				<path fill="#FFFFFF" fill-opacity="0.447" d="M1086.3,11.5v4.7h0.7v-4.5L1086.3,11.5z"/>
				<path fill="#FFFFFF" fill-opacity="0.447" d="M1087.6,11.9v4.3h0.7v-4L1087.6,11.9z"/>
				<path fill="#FFFFFF" fill-opacity="0.447" d="M1089,12.3v3.9h0.7v-3.7L1089,12.3z"/>
				<path fill="#FFFFFF" fill-opacity="0.447" d="M1090.4,12.6v3.6h0.7v-3.5L1090.4,12.6z"/>
				<path fill="#FFFFFF" fill-opacity="0.447" d="M1091.8,12.8v3.4h0.7v-3.3L1091.8,12.8L1091.8,12.8z"/>
				<path fill="#FFFFFF" fill-opacity="0.447" d="M1093.1,13v3.2h0.7v-3.3L1093.1,13z"/>
				<path fill="#FFFFFF" fill-opacity="0.447" d="M1094.5,12.9v3.2h0.7v-3.4L1094.5,12.9z"/>
			</g>
			
				<radialGradient id="SVGID_46_" cx="1095.8859" cy="21.534" r="3.5991" gradientTransform="matrix(0.9825 0 0 0.9825 19.4497 0.6282)" gradientUnits="userSpaceOnUse">
				<stop  offset="0" style="stop-color:#9E9E9E"/>
				<stop  offset="1" style="stop-color:#212121"/>
			</radialGradient>
			<circle fill-rule="evenodd" clip-rule="evenodd" fill="url(#SVGID_46_)" cx="1096.2" cy="19.9" r="1.9"/>
			<circle fill-rule="evenodd" clip-rule="evenodd" fill="#0F0F0F" cx="1096.2" cy="19.9" r="1.3"/>
			<rect x="1080.1" y="24.2" fill="#FF8A65" width="6.1" height="1.2"/>
			<rect x="1087.9" y="24.2" fill="#FF8A65" width="3" height="1.2"/>
		</g>
	</g>
	<g id="无线网卡" display="none">
		<g display="inline">
			<polygon opacity="0.2" points="1073,24.8 1073,7.2 1100.2,7.2 1100.2,9.3 1103,9.3 1103,22.7 1100.2,22.7 1100.2,24.8 			"/>
			<polygon opacity="8.000000e-002" points="1073,25.8 1073,7.2 1101.2,7.2 1101.2,9.3 1104,9.3 1104,23.7 1101.2,23.7 1101.2,25.8 
							"/>
			<polygon opacity="0.1" points="1073.5,25.3 1073.5,7.7 1100.7,7.7 1100.7,9.8 1103.5,9.8 1103.5,23.2 1100.7,23.2 1100.7,25.3 
							"/>
			<polygon fill="#263238" points="1073.5,24.3 1073.5,7.7 1099.7,7.7 1099.7,9.8 1102.5,9.8 1102.5,22.2 1099.7,22.2 1099.7,24.3 
							"/>
			<g>
				<linearGradient id="SVGID_47_" gradientUnits="userSpaceOnUse" x1="1088" y1="23.8354" x2="1088" y2="8.1646">
					<stop  offset="0" style="stop-color:#CFD8DC"/>
					<stop  offset="1" style="stop-color:#90A4AE"/>
				</linearGradient>
				<polygon fill="url(#SVGID_47_)" points="1102,10.3 1099.2,10.3 1099.2,8.2 1074,8.2 1074,23.8 1099.2,23.8 1099.2,21.7 
					1102,21.7 				"/>
				<linearGradient id="SVGID_48_" gradientUnits="userSpaceOnUse" x1="1088" y1="23.5665" x2="1088" y2="8.4335">
					<stop  offset="0" style="stop-color:#CFD8DC"/>
					<stop  offset="1" style="stop-color:#CFD8DC"/>
				</linearGradient>
				<polygon fill="none" stroke="url(#SVGID_48_)" stroke-width="0.5372" stroke-miterlimit="10" points="1074.5,23.3 1074.5,8.7 
					1098.7,8.7 1098.7,10.8 1101.5,10.8 1101.5,21.2 1098.7,21.2 1098.7,23.3 				"/>
				<rect x="1077.6" y="8.4" fill="#FF9800" width="5.7" height="0.5"/>
				<rect x="1077.6" y="23" fill="#FF9800" width="5.7" height="0.5"/>
				<linearGradient id="SVGID_49_" gradientUnits="userSpaceOnUse" x1="1084.8774" y1="21.7075" x2="1084.8774" y2="10.292">
					<stop  offset="0" style="stop-color:#CFD8DC"/>
					<stop  offset="1" style="stop-color:#F5F5F5"/>
				</linearGradient>
				<rect x="1074" y="10.3" fill="url(#SVGID_49_)" width="21.8" height="11.4"/>
				<linearGradient id="SVGID_50_" gradientUnits="userSpaceOnUse" x1="1085.0117" y1="21.9761" x2="1085.0117" y2="10.0234">
					<stop  offset="0.8495" style="stop-color:#455A64"/>
					<stop  offset="0.9516" style="stop-color:#CFD8DC"/>
				</linearGradient>
				<polyline fill="none" stroke="url(#SVGID_50_)" stroke-width="0.5372" stroke-miterlimit="10" points="1074,21.7 1095.8,21.7 
					1095.8,10.3 1074,10.3 				"/>
				<g>
					<g>
						<path fill="#455A64" d="M1079.2,19.5c-0.4,0-0.8-0.3-0.8-0.8v-5.5c0-0.4,0.3-0.8,0.8-0.8h13.7c0.4,0,0.8,0.3,0.8,0.8v5.5
							c0,0.4-0.3,0.8-0.8,0.8H1079.2z"/>
						<path fill="#FFFFFF" d="M1092.9,12.6c0.4,0,0.7,0.3,0.7,0.7v5.5c0,0.4-0.3,0.7-0.7,0.7h-13.7c-0.4,0-0.7-0.3-0.7-0.7v-5.5
							c0-0.4,0.3-0.7,0.7-0.7H1092.9 M1092.9,12.4h-13.7c-0.5,0-0.9,0.4-0.9,0.9v5.5c0,0.5,0.4,0.9,0.9,0.9h13.7
							c0.5,0,0.9-0.4,0.9-0.9v-5.5C1093.8,12.8,1093.4,12.4,1092.9,12.4L1092.9,12.4z"/>
					</g>
					<text transform="matrix(1 0 0 1 1082.293 18.5054)" fill="#FFFFFF" font-family="'Arial-Black'" font-size="2.3631">PCMCIA</text>
					<linearGradient id="SVGID_51_" gradientUnits="userSpaceOnUse" x1="1087.5088" y1="15.9673" x2="1087.5088" y2="14.7061">
						<stop  offset="0" style="stop-color:#F57C00"/>
						<stop  offset="1" style="stop-color:#F9CE1D"/>
					</linearGradient>
					<rect x="1082.3" y="14.7" fill="url(#SVGID_51_)" width="10.4" height="1.3"/>
				</g>
			</g>
		</g>
	</g>
</g>
<g id="_x33_2_x26_24-开始菜单应用图标">
	<g id="光盘刻录" display="none">
		<g id="光盘_1_" display="inline">
			<g>
				<path opacity="0.2" d="M1087.9,30.7c-8.3,0-15-6.7-15-15c0-8.3,6.7-15,15-15s15,6.7,15,15C1102.9,23.9,1096.2,30.7,1087.9,30.7z
					 M1087.9,14.8c-0.5,0-0.9,0.4-0.9,0.9c0,0.5,0.4,0.9,0.9,0.9s0.9-0.4,0.9-0.9C1088.8,15.2,1088.4,14.8,1087.9,14.8z"/>
				<path opacity="8.000000e-002" d="M1088.6,32.3c-8.5,0-15.5-7-15.5-15.5s7-15.5,15.5-15.5s15.5,7,15.5,15.5
					S1097.1,32.3,1088.6,32.3z M1088.6,16.5c-0.2,0-0.4,0.2-0.4,0.4c0,0.2,0.2,0.4,0.4,0.4c0.2,0,0.4-0.2,0.4-0.4
					C1088.9,16.6,1088.8,16.5,1088.6,16.5z"/>
				<path opacity="0.1" d="M1088.6,31.3c-8.3,0-15-6.7-15-15c0-8.3,6.7-15,15-15s15,6.7,15,15C1103.6,24.6,1096.8,31.3,1088.6,31.3z
					 M1088.6,15.5c-0.5,0-0.9,0.4-0.9,0.9c0,0.5,0.4,0.9,0.9,0.9c0.5,0,0.9-0.4,0.9-0.9C1089.4,15.9,1089.1,15.5,1088.6,15.5z"/>
				<path fill="#01579B" d="M1087.9,30.2c-8,0-14.5-6.5-14.5-14.5s6.5-14.5,14.5-14.5c8,0,14.5,6.5,14.5,14.5
					S1095.9,30.2,1087.9,30.2z M1087.9,14.3c-0.8,0-1.4,0.6-1.4,1.4c0,0.8,0.6,1.4,1.4,1.4s1.4-0.6,1.4-1.4
					C1089.3,14.9,1088.7,14.3,1087.9,14.3z"/>
				<path fill="#0288D1" d="M1087.9,1.7c-7.7,0-14,6.3-14,14c0,7.7,6.3,14,14,14s14-6.3,14-14C1101.9,7.9,1095.7,1.7,1087.9,1.7z
					 M1087.9,29.3c-7.5,0-13.6-6.1-13.6-13.6c0-7.5,6.1-13.6,13.6-13.6s13.6,6.1,13.6,13.6C1101.5,23.2,1095.4,29.3,1087.9,29.3z"/>
				
					<radialGradient id="SVGID_52_" cx="1093.5471" cy="14.7513" r="12.2091" gradientTransform="matrix(0.9556 0 0 0.9556 42.9312 1.5629)" gradientUnits="userSpaceOnUse">
					<stop  offset="0" style="stop-color:#4DD0E1"/>
					<stop  offset="0.3925" style="stop-color:#40BEE7"/>
					<stop  offset="0.6129" style="stop-color:#3FBDE7"/>
					<stop  offset="0.6613" style="stop-color:#44C4E8"/>
					<stop  offset="0.7527" style="stop-color:#2CBEE8"/>
					<stop  offset="1" style="stop-color:#2196F3"/>
				</radialGradient>
				<path fill="url(#SVGID_52_)" d="M1087.9,4c-6.4,0-11.7,5.2-11.7,11.7s5.2,11.7,11.7,11.7c6.4,0,11.7-5.2,11.7-11.7
					S1094.4,4,1087.9,4z M1087.9,19.7c-2.3,0-4.1-1.8-4.1-4.1c0-2.3,1.8-4.1,4.1-4.1s4.1,1.8,4.1,4.1
					C1092,17.9,1090.2,19.7,1087.9,19.7z"/>
				<g opacity="0.7" enable-background="new    ">
					<path fill="#FFFFFF" d="M1092,15.9l7.2,0.5l0.4,0c0.1-1.7-0.2-3.3-0.7-4.9l-7.1,2.7C1091.9,14.8,1092,15.3,1092,15.9z"/>
					<path fill="#FFFFFF" d="M1083.9,15.4l-7.2-0.5l-0.4,0c-0.1,1.7,0.2,3.3,0.7,4.9l7.1-2.7C1083.9,16.6,1083.8,16,1083.9,15.4z"/>
				</g>
				<g opacity="0.7" enable-background="new    ">
					<path fill="#FFFFFF" d="M1091.5,13.6l6.2-3.6l0.3-0.2c-0.8-1.4-2-2.7-3.3-3.6l-4.4,6.2C1090.8,12.7,1091.2,13.1,1091.5,13.6z"
						/>
					<path fill="#FFFFFF" d="M1084.4,17.7l-6.2,3.6l-0.3,0.2c0.8,1.4,2,2.7,3.3,3.6l4.4-6.2C1085.1,18.7,1084.7,18.2,1084.4,17.7z"
						/>
				</g>
				<path fill="#F5F5F5" enable-background="new    " d="M1087.9,2.1c-7.5,0-13.6,6.1-13.6,13.6c0,7.5,6.1,13.6,13.6,13.6
					s13.6-6.1,13.6-13.6C1101.5,8.2,1095.4,2.1,1087.9,2.1z M1087.9,27.3c-6.4,0-11.7-5.2-11.7-11.7S1081.5,4,1087.9,4
					c6.4,0,11.7,5.2,11.7,11.7S1094.4,27.3,1087.9,27.3z"/>
				<path fill="#0288D1" d="M1087.9,11.6c-2.3,0-4.1,1.8-4.1,4.1c0,2.3,1.8,4.1,4.1,4.1s4.1-1.8,4.1-4.1
					C1092,13.4,1090.2,11.6,1087.9,11.6z M1087.9,19.3c-2,0-3.7-1.6-3.7-3.7c0-2,1.6-3.7,3.7-3.7c2,0,3.7,1.6,3.7,3.7
					C1091.6,17.7,1089.9,19.3,1087.9,19.3z"/>
				<path fill="#F5F5F5" enable-background="new    " d="M1087.9,12c-2,0-3.7,1.6-3.7,3.7c0,2,1.6,3.7,3.7,3.7c2,0,3.7-1.6,3.7-3.7
					C1091.6,13.6,1089.9,12,1087.9,12z M1087.9,17.5c-1,0-1.9-0.8-1.9-1.9c0-1,0.8-1.9,1.9-1.9s1.9,0.8,1.9,1.9
					C1089.8,16.7,1089,17.5,1087.9,17.5z"/>
			</g>
			<linearGradient id="SVGID_53_" gradientUnits="userSpaceOnUse" x1="1099.2617" y1="28.0591" x2="1099.2617" y2="28.0591">
				<stop  offset="0" style="stop-color:#F44336"/>
				<stop  offset="1" style="stop-color:#F5A816"/>
			</linearGradient>
			<path fill="url(#SVGID_53_)" d="M1099.3,28.1"/>
			<g>
				<g>
					<linearGradient id="SVGID_54_" gradientUnits="userSpaceOnUse" x1="1101.1425" y1="29.8242" x2="1101.1425" y2="8.9719">
						<stop  offset="0" style="stop-color:#F44336"/>
						<stop  offset="1" style="stop-color:#F5A816"/>
					</linearGradient>
					
						<path display="none" fill="url(#SVGID_54_)" stroke="#F44336" stroke-width="0.5" stroke-linejoin="round" stroke-miterlimit="10" d="
						M1102.3,23.7c0.1,0.3,0.1,0.7,0.1,1.1c0,2-1.1,3.8-2.6,4.7C1101.7,28.5,1102.9,25.7,1102.3,23.7z"/>
					<linearGradient id="SVGID_55_" gradientUnits="userSpaceOnUse" x1="1100.0137" y1="30.1598" x2="1100.0137" y2="19.3983">
						<stop  offset="0" style="stop-color:#F44336"/>
						<stop  offset="1" style="stop-color:#F5A816"/>
					</linearGradient>
					
						<path display="none" fill="url(#SVGID_55_)" stroke="#F44336" stroke-width="0.5" stroke-linejoin="round" stroke-miterlimit="10" d="
						M1099.7,20c0.1,1.8,0.7,2.3,0.7,2.3s-0.2-0.8-0.1-2"/>
					<linearGradient id="SVGID_56_" gradientUnits="userSpaceOnUse" x1="1102.0605" y1="30.1587" x2="1102.0605" y2="19.3986">
						<stop  offset="0" style="stop-color:#F44336"/>
						<stop  offset="1" style="stop-color:#F5A816"/>
					</linearGradient>
					
						<path display="none" fill="url(#SVGID_56_)" stroke="#F44336" stroke-width="0.5" stroke-linejoin="round" stroke-miterlimit="10" d="
						M1102.3,23.7c-0.1-0.5-0.3-1-0.5-1.5c0.1,0.4,0.2,0.7,0.4,1.1C1102.2,23.4,1102.3,23.5,1102.3,23.7z"/>
					<linearGradient id="SVGID_57_" gradientUnits="userSpaceOnUse" x1="1096.899" y1="30.1592" x2="1096.899" y2="19.3985">
						<stop  offset="0" style="stop-color:#EE6F0B"/>
						<stop  offset="1" style="stop-color:#FFEB3B"/>
					</linearGradient>
					<path fill="url(#SVGID_57_)" d="M1099.8,26.3c-0.5-2-0.1-2.5-0.1-2.5s-1.1,0.7-1.1,1.9c0,0-2.1-1.9-0.8-6.2
						c0,0-1.5,0.6-1.9,2.1c-0.2,1-0.2,1.8-0.2,2.2c0,0.2,0,0.4,0,0.4s0-0.2,0-0.4c-0.1-0.6-0.2-1.7-0.8-2.3c0,0,0.1,1.3-0.4,2.2
						c-0.5,1-1.3,2.9,0.6,5.6c0,0-0.1,0-0.4-0.1c0.8,0.5,1.7,0.8,2.7,0.8c0.9,0,1.8-0.2,2.5-0.7c-0.4,0.2-0.8,0.3-1.3,0.3
						C1098.5,29.8,1100.3,28.3,1099.8,26.3z"/>
					<linearGradient id="SVGID_58_" gradientUnits="userSpaceOnUse" x1="1097.3169" y1="29.8242" x2="1097.3169" y2="8.9726">
						<stop  offset="0" style="stop-color:#F44336"/>
						<stop  offset="1" style="stop-color:#F5A816"/>
					</linearGradient>
					
						<path display="none" fill="url(#SVGID_58_)" stroke="#F44336" stroke-width="0.5" stroke-linejoin="round" stroke-miterlimit="10" d="
						M1102.4,24.8c0-0.4,0-0.7-0.1-1.1c0-0.2-0.1-0.3-0.2-0.5c-0.1-0.3-0.3-0.7-0.4-1.1c-0.4-0.7-0.9-1.3-1.5-1.8
						c-0.1,1.1,0.1,2,0.1,2s-0.5-0.6-0.7-2.3c-0.7-0.4-1.5-0.6-2.4-0.6c-2.8,0-5.1,2.4-5.1,5.4c0,1.9,1,3.6,2.4,4.6
						c0.2,0.1,0.4,0.1,0.4,0.1c-1.8-2.7-1.1-4.7-0.6-5.6c0.5-1,0.4-2.2,0.4-2.2c0.6,0.6,0.8,1.7,0.8,2.3c0-0.5,0-1.2,0.2-2.2
						c0.4-1.5,1.9-2.1,1.9-2.1c-1.3,4.3,0.8,6.2,0.8,6.2c0-1.2,1.1-1.9,1.1-1.9s-0.4,0.4,0.1,2.5c0.5,2-1.3,3.5-1.3,3.5
						c0.4,0,0.9-0.1,1.3-0.3C1101.4,28.6,1102.4,26.8,1102.4,24.8z"/>
					<linearGradient id="SVGID_59_" gradientUnits="userSpaceOnUse" x1="1096.5378" y1="30.4945" x2="1096.5378" y2="8.9727">
						<stop  offset="0" style="stop-color:#F44336"/>
						<stop  offset="1" style="stop-color:#F5A816"/>
					</linearGradient>
					<path fill="url(#SVGID_59_)" d="M1102.3,23.7c0-0.2-0.1-0.3-0.2-0.5c-0.1-0.3-0.3-0.7-0.4-1.1c-0.5-2-0.3-4.5-0.3-4.5
						c-0.8,0.9-1.1,1.9-1.2,2.7c-0.1,1.1,0.1,2,0.1,2s-0.5-0.6-0.7-2.3c-0.1-0.8,0-1.9,0.2-3.3c0.6-4.4-2.9-7.7-2.9-7.7
						c1.5,6.4-2.5,10.3-2.5,10.3c0.2-2.4-1.3-4.2-1.3-4.2c0.2,4.1-3.4,7.6-2.4,10.6c0.8,2.4,2.9,3.4,3.8,3.7
						c0.2,0.1,0.4,0.1,0.4,0.1c-1.8-2.7-1.1-4.7-0.6-5.6c0.5-1,0.4-2.2,0.4-2.2c0.6,0.6,0.8,1.7,0.8,2.3c0-0.5,0-1.2,0.2-2.2
						c0.4-1.5,1.9-2.1,1.9-2.1c-1.3,4.3,0.8,6.2,0.8,6.2c0-1.2,1.1-1.9,1.1-1.9s-0.4,0.4,0.1,2.5c0.5,2-1.3,3.5-1.3,3.5
						c0.4,0,0.9-0.1,1.3-0.3c1.6-0.9,2.6-2.7,2.6-4.7C1102.4,24.4,1102.4,24,1102.3,23.7z"/>
					<linearGradient id="SVGID_60_" gradientUnits="userSpaceOnUse" x1="1095.6938" y1="29.8243" x2="1095.6938" y2="8.9724">
						<stop  offset="0" style="stop-color:#F44336"/>
						<stop  offset="1" style="stop-color:#F5A816"/>
					</linearGradient>
					
						<path display="none" fill="url(#SVGID_60_)" stroke="#F44336" stroke-width="0.5" stroke-linejoin="round" stroke-miterlimit="10" d="
						M1095.7,23.9c0,0.3,0,0.4,0,0.4S1095.7,24.1,1095.7,23.9z"/>
					<linearGradient id="SVGID_61_" gradientUnits="userSpaceOnUse" x1="1095.6938" y1="30.1594" x2="1095.6938" y2="19.3983">
						<stop  offset="0" style="stop-color:#F44336"/>
						<stop  offset="1" style="stop-color:#F5A816"/>
					</linearGradient>
					<path display="none" fill="url(#SVGID_61_)" d="M1095.7,23.9c0,0.3,0,0.4,0,0.4S1095.7,24.1,1095.7,23.9z"/>
				</g>
				<path fill="none" stroke="#F44336" stroke-width="0.5" stroke-linejoin="round" stroke-miterlimit="10" d="M1102.3,23.7
					c0-0.2-0.1-0.3-0.2-0.5c-0.1-0.3-0.3-0.7-0.4-1.1c-0.5-2-0.3-4.5-0.3-4.5c-0.8,0.9-1.1,1.9-1.2,2.7c-0.1,1.1,0.1,2,0.1,2
					s-0.5-0.6-0.7-2.3c-0.1-0.8,0-1.9,0.2-3.3c0.6-4.4-2.9-7.7-2.9-7.7c1.5,6.4-2.5,10.3-2.5,10.3c0.2-2.4-1.3-4.2-1.3-4.2
					c0.2,4.1-3.4,7.6-2.4,10.6c0.8,2.4,2.3,3.1,3.3,3.6c1,0.6,2.1,0.7,3,0.7c0.9,0,1.7,0.1,2.6-0.5c1.5-1,2.6-2.7,2.6-4.7
					C1102.4,24.4,1102.4,24,1102.3,23.7z"/>
			</g>
			<g>
				<g>
					<linearGradient id="SVGID_62_" gradientUnits="userSpaceOnUse" x1="1101.1425" y1="29.8242" x2="1101.1425" y2="8.9719">
						<stop  offset="0" style="stop-color:#F44336"/>
						<stop  offset="1" style="stop-color:#F5A816"/>
					</linearGradient>
					
						<path display="none" fill="url(#SVGID_62_)" stroke="#F44336" stroke-width="0.5" stroke-linejoin="round" stroke-miterlimit="10" d="
						M1102.3,23.7c0.1,0.3,0.1,0.7,0.1,1.1c0,2-1.1,3.8-2.6,4.7C1101.7,28.5,1102.9,25.7,1102.3,23.7z"/>
					<linearGradient id="SVGID_63_" gradientUnits="userSpaceOnUse" x1="1100.0137" y1="30.1598" x2="1100.0137" y2="19.3983">
						<stop  offset="0" style="stop-color:#F44336"/>
						<stop  offset="1" style="stop-color:#F5A816"/>
					</linearGradient>
					
						<path display="none" fill="url(#SVGID_63_)" stroke="#F44336" stroke-width="0.5" stroke-linejoin="round" stroke-miterlimit="10" d="
						M1099.7,20c0.1,1.8,0.7,2.3,0.7,2.3s-0.2-0.8-0.1-2"/>
					<linearGradient id="SVGID_64_" gradientUnits="userSpaceOnUse" x1="1102.0605" y1="30.1587" x2="1102.0605" y2="19.3986">
						<stop  offset="0" style="stop-color:#F44336"/>
						<stop  offset="1" style="stop-color:#F5A816"/>
					</linearGradient>
					
						<path display="none" fill="url(#SVGID_64_)" stroke="#F44336" stroke-width="0.5" stroke-linejoin="round" stroke-miterlimit="10" d="
						M1102.3,23.7c-0.1-0.5-0.3-1-0.5-1.5c0.1,0.4,0.2,0.7,0.4,1.1C1102.2,23.4,1102.3,23.5,1102.3,23.7z"/>
					<linearGradient id="SVGID_65_" gradientUnits="userSpaceOnUse" x1="1097.3169" y1="29.8242" x2="1097.3169" y2="8.9726">
						<stop  offset="0" style="stop-color:#F44336"/>
						<stop  offset="1" style="stop-color:#F5A816"/>
					</linearGradient>
					
						<path display="none" fill="url(#SVGID_65_)" stroke="#F44336" stroke-width="0.5" stroke-linejoin="round" stroke-miterlimit="10" d="
						M1102.4,24.8c0-0.4,0-0.7-0.1-1.1c0-0.2-0.1-0.3-0.2-0.5c-0.1-0.3-0.3-0.7-0.4-1.1c-0.4-0.7-0.9-1.3-1.5-1.8
						c-0.1,1.1,0.1,2,0.1,2s-0.5-0.6-0.7-2.3c-0.7-0.4-1.5-0.6-2.4-0.6c-2.8,0-5.1,2.4-5.1,5.4c0,1.9,1,3.6,2.4,4.6
						c0.2,0.1,0.4,0.1,0.4,0.1c-1.8-2.7-1.1-4.7-0.6-5.6c0.5-1,0.4-2.2,0.4-2.2c0.6,0.6,0.8,1.7,0.8,2.3c0-0.5,0-1.2,0.2-2.2
						c0.4-1.5,1.9-2.1,1.9-2.1c-1.3,4.3,0.8,6.2,0.8,6.2c0-1.2,1.1-1.9,1.1-1.9s-0.4,0.4,0.1,2.5c0.5,2-1.3,3.5-1.3,3.5
						c0.4,0,0.9-0.1,1.3-0.3C1101.4,28.6,1102.4,26.8,1102.4,24.8z"/>
					<linearGradient id="SVGID_66_" gradientUnits="userSpaceOnUse" x1="1095.6938" y1="29.8243" x2="1095.6938" y2="8.9724">
						<stop  offset="0" style="stop-color:#F44336"/>
						<stop  offset="1" style="stop-color:#F5A816"/>
					</linearGradient>
					
						<path display="none" fill="url(#SVGID_66_)" stroke="#F44336" stroke-width="0.5" stroke-linejoin="round" stroke-miterlimit="10" d="
						M1095.7,23.9c0,0.3,0,0.4,0,0.4S1095.7,24.1,1095.7,23.9z"/>
					<linearGradient id="SVGID_67_" gradientUnits="userSpaceOnUse" x1="1095.6938" y1="30.1594" x2="1095.6938" y2="19.3983">
						<stop  offset="0" style="stop-color:#F44336"/>
						<stop  offset="1" style="stop-color:#F5A816"/>
					</linearGradient>
					<path display="none" fill="url(#SVGID_67_)" d="M1095.7,23.9c0,0.3,0,0.4,0,0.4S1095.7,24.1,1095.7,23.9z"/>
				</g>
			</g>
			<linearGradient id="SVGID_68_" gradientUnits="userSpaceOnUse" x1="1079.5674" y1="29.7915" x2="1079.5674" y2="6.9165">
				<stop  offset="0" style="stop-color:#F44336"/>
				<stop  offset="1" style="stop-color:#F5A816"/>
			</linearGradient>
			
				<path display="none" fill="url(#SVGID_68_)" stroke="#F44336" stroke-width="0.5" stroke-linejoin="round" stroke-miterlimit="10" d="
				M1077.9,29.4c0,0-3.4-0.9-4.6-4.2s2.8-7.2,2.6-11.7c0,0,1.6,2,1.4,4.6c0,0,4.4-4.2,2.7-11.2c0,0,3.9,3.6,3.2,8.5
				c-0.7,4.9,0.5,6.2,0.5,6.2s-0.8-2.9,1.3-5.1c0,0-0.3,4,0.7,6.1c1.3,2.6-0.9,7.1-4,7.2c0,0,2-1.7,1.4-3.9
				c-0.5-2.2-0.1-2.7-0.1-2.7s-1.2,0.8-1.2,2.1c0,0-2.3-2.1-0.9-6.8c0,0-1.7,0.6-2.1,2.3c-0.4,1.7-0.2,2.9-0.2,2.9s0-2-1-2.9
				c0,0,0.1,1.4-0.4,2.4S1075.9,26.4,1077.9,29.4z"/>
			<linearGradient id="SVGID_69_" gradientUnits="userSpaceOnUse" x1="1080.3931" y1="30.1592" x2="1080.3931" y2="18.354">
				<stop  offset="0" style="stop-color:#F44336"/>
				<stop  offset="1" style="stop-color:#F5A816"/>
			</linearGradient>
			
				<ellipse display="none" fill="url(#SVGID_69_)" stroke="#F44336" stroke-width="0.5" stroke-linejoin="round" stroke-miterlimit="10" cx="1080.4" cy="24.3" rx="5.6" ry="5.9"/>
		</g>
	</g>
	<g id="桌面分享_1_" display="none">
		<g display="inline">
			<path opacity="0.1" d="M1080.7,30c-1.4,0-2.5-1.1-2.5-2.4v-2.2h-5.2V3h31v22.5h-5.2v2.2c0,1.3-1.1,2.4-2.5,2.4H1080.7z"/>
			<path opacity="0.1" d="M1080.7,29.5c-1.1,0-2-0.8-2-1.9v-1.9h5.3V25h-10.5V3.5h30V25H1093v0.8h5.3v1.9c0,1-0.9,1.9-2,1.9H1080.7z
				"/>
			<path opacity="0.2" d="M1080.2,29c-1.1,0-2-0.8-2-1.9v-1.9h5.3v-0.8H1073V3h30v21.5h-10.5v0.8h5.3v1.9c0,1-0.9,1.9-2,1.9H1080.2z
				"/>
			<path fill="#212121" d="M1080.2,28.5c-0.8,0-1.5-0.6-1.5-1.4v-1.4h5.3V24h-10.5V3.5h29V24H1092v1.8h5.3v1.4
				c0,0.8-0.7,1.4-1.5,1.4H1080.2z"/>
			<g>
				<path opacity="8.000000e-002" d="M1099.2,20.1V7.7h-21.5v12.4H1099.2z"/>
				<path opacity="0.1" d="M1099.7,20.6V7.2h-22.5v13.4H1099.7z"/>
				<path fill="#212121" d="M1099.7,6.2v14.4h-23.5V6.2H1099.7z"/>
				<linearGradient id="rect3008_77_" gradientUnits="userSpaceOnUse" x1="1087.999" y1="5.6592" x2="1087.999" y2="21.0674">
					<stop  offset="0" style="stop-color:#B3E5FC"/>
					<stop  offset="1" style="stop-color:#0288D1"/>
				</linearGradient>
				<rect id="rect3008_89_" x="1075.8" y="5.7" fill="url(#rect3008_77_)" width="24.5" height="15.4"/>
				<linearGradient id="rect3008_78_" gradientUnits="userSpaceOnUse" x1="1087.999" y1="5.6592" x2="1087.999" y2="21.0674">
					<stop  offset="0" style="stop-color:#B3E5FC"/>
					<stop  offset="1" style="stop-color:#0288D1"/>
				</linearGradient>
				
					<rect id="rect3008_88_" x="1075.8" y="5.7" fill="url(#rect3008_78_)" stroke="#01579B" stroke-width="1.5" stroke-miterlimit="10" width="24.5" height="15.4"/>
				<linearGradient id="SVGID_70_" gradientUnits="userSpaceOnUse" x1="1076.5273" y1="6.7163" x2="1099.4775" y2="6.7163">
					<stop  offset="0" style="stop-color:#FFFFFF"/>
					<stop  offset="1" style="stop-color:#4FC3F7"/>
				</linearGradient>
				<rect x="1076.5" y="6.4" opacity="0.8" fill="url(#SVGID_70_)" width="23" height="0.6"/>
				
					<linearGradient id="SVGID_71_" gradientUnits="userSpaceOnUse" x1="486.9385" y1="-591.8846" x2="500.2276" y2="-591.8846" gradientTransform="matrix(0 -1 1 0 1668.7357 507.2676)">
					<stop  offset="0" style="stop-color:#0288D1"/>
					<stop  offset="1" style="stop-color:#FFFFFF"/>
				</linearGradient>
				<rect x="1076.5" y="7" opacity="0.8" fill="url(#SVGID_71_)" width="0.6" height="13.3"/>
				<path fill="#455A64" d="M1095.8,26.3h-15.6h-1v0.9c0,0.5,0.5,0.9,1,0.9h15.6c0.5,0,1-0.4,1-0.9v-0.9H1095.8z"/>
				<rect x="1084.5" y="23.3" fill="#1D272B" width="7" height="2.9"/>
				<linearGradient id="SVGID_72_" gradientUnits="userSpaceOnUse" x1="1088" y1="3.959" x2="1088" y2="23.459">
					<stop  offset="0" style="stop-color:#455A64"/>
					<stop  offset="1" style="stop-color:#263238"/>
				</linearGradient>
				<path fill="url(#SVGID_72_)" d="M1074,4v19.5h28V4H1074z M1100.2,21.1h-24.5V5.7h24.5V21.1z"/>
				<path id="rect3008-0_49_" opacity="0.2318" fill="#EEE8D5" enable-background="new    " d="M1091.1,5.7l-6.3,15.4h15.4V5.7
					H1091.1z"/>
			</g>
		</g>
		<g display="inline">
			<g>
				<rect x="1089.9" y="12.6" fill="#FFFFFF" width="7.1" height="5.9"/>
				<rect x="1089.9" y="12.6" fill="#90A4AE" width="7.1" height="1.2"/>
				<line fill="none" stroke="#263238" stroke-width="0.5" stroke-miterlimit="10" x1="1091.2" y1="15.6" x2="1095.7" y2="15.6"/>
			</g>
			<g>
				<rect x="1079" y="8" fill="#FFFFFF" width="9.1" height="7"/>
				<rect x="1079" y="8" fill="#0097A7" width="9.1" height="1.6"/>
				<line fill="none" stroke="#263238" stroke-width="0.5" stroke-miterlimit="10" x1="1080.5" y1="11.5" x2="1086.6" y2="11.5"/>
			</g>
		</g>
	</g>
	<g id="终端_1_" display="none">
		<g display="inline">
			<g opacity="0.2">
				<rect x="1073.5" y="4.5" width="29" height="23"/>
			</g>
			<g opacity="8.000000e-002">
				<rect x="1073.5" y="4.5" width="30" height="24"/>
			</g>
			<g opacity="0.1">
				<rect x="1074" y="5" width="29" height="23"/>
			</g>
			<g>
				<linearGradient id="SVGID_73_" gradientUnits="userSpaceOnUse" x1="1088" y1="26.75" x2="1088" y2="5.25">
					<stop  offset="0" style="stop-color:#C0C8CC"/>
					<stop  offset="1" style="stop-color:#CFD8DC"/>
				</linearGradient>
				<rect x="1074.3" y="5.3" fill="url(#SVGID_73_)" width="27.5" height="21.5"/>
				<path fill="#90A4AE" d="M1101.5,5.5v21h-27v-21H1101.5 M1102,5h-28v22h28V5L1102,5z"/>
			</g>
			<g>
				<linearGradient id="SVGID_74_" gradientUnits="userSpaceOnUse" x1="1088" y1="23.75" x2="1088" y2="8.25">
					<stop  offset="0" style="stop-color:#101517"/>
					<stop  offset="1" style="stop-color:#263238"/>
				</linearGradient>
				<rect x="1077" y="8.3" fill="url(#SVGID_74_)" width="22" height="15.5"/>
				<path d="M1098.5,8.8v14.5h-21V8.8H1098.5 M1099.5,7.8h-23v16.5h23V7.8L1099.5,7.8z"/>
			</g>
			<polygon opacity="0.15" fill="#F5F5F5" enable-background="new    " points="1102,5 1093.1,5 1084.2,27 1102,27 			"/>
			<polyline fill="none" stroke="#FFFFFF" stroke-miterlimit="10" points="1079.5,10.7 1082.2,13.4 1079.6,16 			"/>
			<line fill="none" stroke="#FFFFFF" stroke-miterlimit="10" x1="1084" y1="16" x2="1089" y2="16"/>
		</g>
	</g>
	<g id="系统监控器" display="none">
		<g display="inline">
			<g opacity="0.2">
				<rect x="1073.5" y="4.5" width="29" height="23"/>
			</g>
			<g opacity="8.000000e-002">
				<rect x="1073.5" y="4.5" width="30" height="24"/>
			</g>
			<g opacity="0.1">
				<rect x="1074" y="5" width="29" height="23"/>
			</g>
			<g>
				<linearGradient id="SVGID_75_" gradientUnits="userSpaceOnUse" x1="1088" y1="26.75" x2="1088" y2="5.25">
					<stop  offset="0" style="stop-color:#C0C8CC"/>
					<stop  offset="1" style="stop-color:#CFD8DC"/>
				</linearGradient>
				<rect x="1074.3" y="5.3" fill="url(#SVGID_75_)" width="27.5" height="21.5"/>
				<path fill="#90A4AE" d="M1101.5,5.5v21h-27v-21H1101.5 M1102,5h-28v22h28V5L1102,5z"/>
			</g>
			<g>
				<linearGradient id="SVGID_76_" gradientUnits="userSpaceOnUse" x1="1088" y1="23.75" x2="1088" y2="8.25">
					<stop  offset="0" style="stop-color:#689F38"/>
					<stop  offset="0.1166" style="stop-color:#568334"/>
					<stop  offset="0.2875" style="stop-color:#41602F"/>
					<stop  offset="0.4612" style="stop-color:#30452B"/>
					<stop  offset="0.6366" style="stop-color:#243128"/>
					<stop  offset="0.8148" style="stop-color:#1C2627"/>
					<stop  offset="1" style="stop-color:#1A2226"/>
				</linearGradient>
				<rect x="1077" y="8.3" fill="url(#SVGID_76_)" width="22" height="15.5"/>
				<path d="M1098.5,8.8v14.5h-21V8.8H1098.5 M1099.5,7.8h-23v16.5h23V7.8L1099.5,7.8z"/>
			</g>
			<polygon opacity="0.15" fill="#F5F5F5" enable-background="new    " points="1102,5 1093.1,5 1084.2,27 1102,27 			"/>
			<polyline fill="none" stroke="#8BC34A" stroke-width="0.8" stroke-miterlimit="10" points="1078.4,15.8 1082.4,15.8 1084.2,11.8 
				1086,20.3 1087.2,16.4 1088,17.5 1089.9,13.9 1091.4,20.3 1094.6,15.8 1097.5,15.8 			"/>
		</g>
	</g>
	<g id="图层_4" display="none">
	</g>
	<rect x="1067.4" y="-30.8" display="none" fill="none" stroke="#FF0000" stroke-miterlimit="10" width="71.9" height="84.3"/>
	<g id="光盘_2_">
		<g>
			<path opacity="0.2" d="M1087.9,30.7c-8.3,0-15-6.7-15-15c0-8.3,6.7-15,15-15s15,6.7,15,15C1102.9,23.9,1096.2,30.7,1087.9,30.7z
				 M1087.9,14.8c-0.5,0-0.9,0.4-0.9,0.9c0,0.5,0.4,0.9,0.9,0.9s0.9-0.4,0.9-0.9C1088.8,15.2,1088.4,14.8,1087.9,14.8z"/>
			<path opacity="8.000000e-002" d="M1088.6,32.3c-8.5,0-15.5-7-15.5-15.5s7-15.5,15.5-15.5s15.5,7,15.5,15.5
				S1097.1,32.3,1088.6,32.3z M1088.6,16.5c-0.2,0-0.4,0.2-0.4,0.4c0,0.2,0.2,0.4,0.4,0.4c0.2,0,0.4-0.2,0.4-0.4
				C1088.9,16.6,1088.8,16.5,1088.6,16.5z"/>
			<path opacity="0.1" d="M1088.6,31.3c-8.3,0-15-6.7-15-15c0-8.3,6.7-15,15-15s15,6.7,15,15C1103.6,24.6,1096.8,31.3,1088.6,31.3z
				 M1088.6,15.5c-0.5,0-0.9,0.4-0.9,0.9c0,0.5,0.4,0.9,0.9,0.9c0.5,0,0.9-0.4,0.9-0.9C1089.4,15.9,1089.1,15.5,1088.6,15.5z"/>
			<path fill="#454545" d="M1087.9,30.2c-8,0-14.5-6.5-14.5-14.5s6.5-14.5,14.5-14.5c8,0,14.5,6.5,14.5,14.5
				S1095.9,30.2,1087.9,30.2z M1087.9,14.3c-0.8,0-1.4,0.6-1.4,1.4c0,0.8,0.6,1.4,1.4,1.4s1.4-0.6,1.4-1.4
				C1089.3,14.9,1088.7,14.3,1087.9,14.3z"/>
			<path fill="#686868" d="M1087.9,1.7c-7.7,0-14,6.3-14,14c0,7.7,6.3,14,14,14s14-6.3,14-14C1101.9,7.9,1095.7,1.7,1087.9,1.7z
				 M1087.9,29.3c-7.5,0-13.6-6.1-13.6-13.6c0-7.5,6.1-13.6,13.6-13.6s13.6,6.1,13.6,13.6C1101.5,23.2,1095.4,29.3,1087.9,29.3z"/>
			
				<radialGradient id="SVGID_77_" cx="1093.5471" cy="14.7513" r="12.2091" gradientTransform="matrix(0.9556 0 0 0.9556 42.9312 1.5629)" gradientUnits="userSpaceOnUse">
				<stop  offset="0" style="stop-color:#ABABAB"/>
				<stop  offset="0.3925" style="stop-color:#9D9D9D"/>
				<stop  offset="0.6129" style="stop-color:#9C9C9C"/>
				<stop  offset="0.6613" style="stop-color:#A2A2A2"/>
				<stop  offset="0.7527" style="stop-color:#979797"/>
				<stop  offset="1" style="stop-color:#7D7D7D"/>
			</radialGradient>
			<path fill="url(#SVGID_77_)" d="M1087.9,4c-6.4,0-11.7,5.2-11.7,11.7s5.2,11.7,11.7,11.7c6.4,0,11.7-5.2,11.7-11.7
				S1094.4,4,1087.9,4z M1087.9,19.7c-2.3,0-4.1-1.8-4.1-4.1c0-2.3,1.8-4.1,4.1-4.1s4.1,1.8,4.1,4.1
				C1092,17.9,1090.2,19.7,1087.9,19.7z"/>
			<g opacity="0.7" enable-background="new    ">
				<path fill="#FFFFFF" d="M1092,15.9l7.2,0.5l0.4,0c0.1-1.7-0.2-3.3-0.7-4.9l-7.1,2.7C1091.9,14.8,1092,15.3,1092,15.9z"/>
				<path fill="#FFFFFF" d="M1083.9,15.4l-7.2-0.5l-0.4,0c-0.1,1.7,0.2,3.3,0.7,4.9l7.1-2.7C1083.9,16.6,1083.8,16,1083.9,15.4z"/>
			</g>
			<g opacity="0.7" enable-background="new    ">
				<path fill="#FFFFFF" d="M1091.5,13.6l6.2-3.6l0.3-0.2c-0.8-1.4-2-2.7-3.3-3.6l-4.4,6.2C1090.8,12.7,1091.2,13.1,1091.5,13.6z"/>
				<path fill="#FFFFFF" d="M1084.4,17.7l-6.2,3.6l-0.3,0.2c0.8,1.4,2,2.7,3.3,3.6l4.4-6.2C1085.1,18.7,1084.7,18.2,1084.4,17.7z"/>
			</g>
			<path fill="#F5F5F5" enable-background="new    " d="M1087.9,2.1c-7.5,0-13.6,6.1-13.6,13.6c0,7.5,6.1,13.6,13.6,13.6
				s13.6-6.1,13.6-13.6C1101.5,8.2,1095.4,2.1,1087.9,2.1z M1087.9,27.3c-6.4,0-11.7-5.2-11.7-11.7S1081.5,4,1087.9,4
				c6.4,0,11.7,5.2,11.7,11.7S1094.4,27.3,1087.9,27.3z"/>
			<path fill="#686868" d="M1087.9,11.6c-2.3,0-4.1,1.8-4.1,4.1c0,2.3,1.8,4.1,4.1,4.1s4.1-1.8,4.1-4.1
				C1092,13.4,1090.2,11.6,1087.9,11.6z M1087.9,19.3c-2,0-3.7-1.6-3.7-3.7c0-2,1.6-3.7,3.7-3.7c2,0,3.7,1.6,3.7,3.7
				C1091.6,17.7,1089.9,19.3,1087.9,19.3z"/>
			<path fill="#F5F5F5" enable-background="new    " d="M1087.9,12c-2,0-3.7,1.6-3.7,3.7c0,2,1.6,3.7,3.7,3.7c2,0,3.7-1.6,3.7-3.7
				C1091.6,13.6,1089.9,12,1087.9,12z M1087.9,17.5c-1,0-1.9-0.8-1.9-1.9c0-1,0.8-1.9,1.9-1.9s1.9,0.8,1.9,1.9
				C1089.8,16.7,1089,17.5,1087.9,17.5z"/>
		</g>
	</g>
</g>
</svg>
