<?xml version="1.0" encoding="iso-8859-1"?>
<!-- Generator: Adobe Illustrator 21.0.0, SVG Export Plug-In . SVG Version: 6.00 Build 0)  -->
<svg version="1.1" id="&#x56FE;&#x5C42;_1" xmlns="http://www.w3.org/2000/svg" xmlns:xlink="http://www.w3.org/1999/xlink" x="0px"
	 y="0px" viewBox="0 0 32 32" style="enable-background:new 0 0 32 32;" xml:space="preserve">
<title>画板 23</title>
<g id="&#x5176;&#x4ED6;">
	<g id="&#x7535;&#x8111;">
		<path style="opacity:0.1;enable-background:new    ;" d="M8.71,30c-1.349,0.028-2.467-1.041-2.5-2.39v-2.15H1V3h31v22.5h-5.21
			v2.19c-0.075,1.318-1.18,2.339-2.5,2.31H8.71z"/>
		<path style="opacity:0.1;enable-background:new    ;" d="M8.71,29.54c-1.063,0.002-1.942-0.829-2-1.89v-1.9H12V25H1.5V3.46h30V25
			H21v0.79h5.29v1.89c-0.058,1.061-0.937,1.892-2,1.89L8.71,29.54z"/>
		<path style="opacity:0.2;enable-background:new    ;" d="M8.21,29c-1.063,0.002-1.942-0.829-2-1.89v-1.86h5.29v-0.79H1V3h30v21.5
			H20.5v0.79h5.29v1.89c-0.058,1.061-0.937,1.892-2,1.89L8.21,29z"/>
		<path style="fill:#263238;" d="M8.21,28.54c-0.797,0.028-1.467-0.593-1.5-1.39v-1.4H12V24H1.5V3.46h29V24H20v1.79h5.29v1.39
			c-0.033,0.797-0.703,1.418-1.5,1.39L8.21,28.54z"/>
		<path style="opacity:0.08;enable-background:new    ;" d="M27.24,20.07V7.66H5.76v12.41H27.24z"/>
		<path style="opacity:0.1;enable-background:new    ;" d="M27.74,20.57V7.16H5.26v13.41H27.74z"/>
		<path style="fill:#212121;" d="M27.74,6.16v14.41H4.26V6.16H27.74z"/>
		
			<linearGradient id="rect3008_1_" gradientUnits="userSpaceOnUse" x1="15.995" y1="28.34" x2="15.995" y2="12.93" gradientTransform="matrix(1 0 0 -1 0 34)">
			<stop  offset="0" style="stop-color:#B3E5FC"/>
			<stop  offset="1" style="stop-color:#0288D1"/>
		</linearGradient>
		<rect id="rect3008" x="3.76" y="5.66" style="fill:url(#rect3008_1_);" width="24.47" height="15.41"/>
		
			<linearGradient id="rect3008-2_1_" gradientUnits="userSpaceOnUse" x1="15.995" y1="28.34" x2="15.995" y2="12.93" gradientTransform="matrix(1 0 0 -1 0 34)">
			<stop  offset="0" style="stop-color:#B3E5FC"/>
			<stop  offset="1" style="stop-color:#0288D1"/>
		</linearGradient>
		
			<rect id="rect3008-2" x="3.76" y="5.66" style="fill:url(#rect3008-2_1_);stroke:#01579B;stroke-width:1.5;stroke-miterlimit:10;" width="24.47" height="15.41"/>
		
			<linearGradient id="SVGID_1_" gradientUnits="userSpaceOnUse" x1="4.53" y1="27.285" x2="27.48" y2="27.285" gradientTransform="matrix(1 0 0 -1 0 34)">
			<stop  offset="0" style="stop-color:#FFFFFF"/>
			<stop  offset="1" style="stop-color:#4FC3F7"/>
		</linearGradient>
		<rect x="4.53" y="6.39" style="opacity:0.8;fill:url(#SVGID_1_);enable-background:new    ;" width="22.95" height="0.65"/>
		
			<linearGradient id="SVGID_2_" gradientUnits="userSpaceOnUse" x1="-1265.0599" y1="335.885" x2="-1251.77" y2="335.885" gradientTransform="matrix(6.123234e-17 -1 -1 -6.123234e-17 340.74 -1244.73)">
			<stop  offset="0" style="stop-color:#0288D1"/>
			<stop  offset="1" style="stop-color:#FFFFFF"/>
		</linearGradient>
		<rect x="4.53" y="7.04" style="opacity:0.8;fill:url(#SVGID_2_);enable-background:new    ;" width="0.65" height="13.29"/>
		<path style="fill:#90A4AE;" d="M23.79,26.25H7.21v0.89c0.056,0.509,0.488,0.893,1,0.89h15.58c0.512,0.003,0.944-0.381,1-0.89
			v-0.89H23.79z"/>
		<rect x="12.5" y="23.31" style="fill:#293A3F;" width="7" height="2.94"/>
		
			<linearGradient id="SVGID_3_" gradientUnits="userSpaceOnUse" x1="16" y1="30.04" x2="16" y2="10.54" gradientTransform="matrix(1 0 0 -1 0 34)">
			<stop  offset="0" style="stop-color:#607D8B"/>
			<stop  offset="1" style="stop-color:#455A64"/>
		</linearGradient>
		<path style="fill:url(#SVGID_3_);" d="M2,4v19.5h28V4H2z M28.24,21.07H3.76V5.66h24.48V21.07z"/>
		<path id="rect3008-0" style="opacity:0.23;fill:#EEE8D5;enable-background:new    ;" d="M19.14,5.66L12.8,21h15.44V5.66H19.14z"/>
	</g>
</g>
<g id="&#x89C4;&#x8303;">
	<rect x="-5.67" y="-32.3" style="fill:none;stroke:#FF0000;stroke-miterlimit:10;" width="90.61" height="84.25"/>
</g>
</svg>
