<?xml version="1.0" encoding="iso-8859-1"?>
<!-- Generator: Adobe Illustrator 21.0.0, SVG Export Plug-In . SVG Version: 6.00 Build 0)  -->
<svg version="1.1" id="&#x56FE;&#x5C42;_1" xmlns="http://www.w3.org/2000/svg" xmlns:xlink="http://www.w3.org/1999/xlink" x="0px"
	 y="0px" viewBox="0 0 32 32" style="enable-background:new 0 0 32 32;" xml:space="preserve">
<title>画板 23</title>
<g id="&#x5F00;&#x59CB;&#x83DC;&#x5355;&#x5E94;&#x7528;&#x56FE;&#x6807;">
	<g id="&#x5E73;&#x677F;">
		<g id="_32">
			<path style="opacity:0.08;enable-background:new    ;" d="M6.5,1.25h20c1.795,0,3.25,1.455,3.25,3.25v24
				c0,1.795-1.455,3.25-3.25,3.25h-20c-1.795,0-3.25-1.455-3.25-3.25v-24C3.25,2.705,4.705,1.25,6.5,1.25z"/>
			<path style="opacity:0.1;enable-background:new    ;" d="M6.5,1.75h20c1.519,0,2.75,1.231,2.75,2.75v24
				c0,1.519-1.231,2.75-2.75,2.75h-20c-1.519,0-2.75-1.231-2.75-2.75v-24C3.75,2.981,4.981,1.75,6.5,1.75z"/>
			<path style="opacity:0.2;enable-background:new    ;" d="M6,1.25h20c1.519,0,2.75,1.231,2.75,2.75v24
				c0,1.519-1.231,2.75-2.75,2.75H6c-1.519,0-2.75-1.231-2.75-2.75V4C3.25,2.481,4.481,1.25,6,1.25z"/>
			<path style="fill:#212121;" d="M6,1.75h20c1.243,0,2.25,1.007,2.25,2.25v24c0,1.243-1.007,2.25-2.25,2.25H6
				c-1.243,0-2.25-1.007-2.25-2.25V4C3.75,2.757,4.757,1.75,6,1.75z"/>
			
				<linearGradient id="SVGID_1_" gradientUnits="userSpaceOnUse" x1="16" y1="32" x2="16" y2="4" gradientTransform="matrix(1 0 0 -1 0 34)">
				<stop  offset="0" style="stop-color:#455A64"/>
				<stop  offset="1" style="stop-color:#263238"/>
			</linearGradient>
			<path style="fill:url(#SVGID_1_);" d="M6,2h20c1.105,0,2,0.895,2,2v24c0,1.105-0.895,2-2,2H6c-1.105,0-2-0.895-2-2V4
				C4,2.895,4.895,2,6,2z"/>
			<path style="fill:#212121;" d="M26,1.75H6C4.757,1.75,3.75,2.757,3.75,4v24c0,1.243,1.007,2.25,2.25,2.25l0,0h20
				c1.243,0,2.25-1.007,2.25-2.25l0,0V4C28.25,2.757,27.243,1.75,26,1.75z M27.75,28c0,0.966-0.784,1.75-1.75,1.75H6
				c-0.966,0-1.75-0.784-1.75-1.75V4c0-0.966,0.784-1.75,1.75-1.75h20c0.966,0,1.75,0.784,1.75,1.75V28z"/>
			
				<linearGradient id="SVGID_2_" gradientUnits="userSpaceOnUse" x1="6" y1="19.5" x2="26" y2="19.5" gradientTransform="matrix(1 0 0 -1 0 34)">
				<stop  offset="0" style="stop-color:#B3E5FC"/>
				<stop  offset="1" style="stop-color:#0288D1"/>
			</linearGradient>
			<rect x="6" y="4" style="fill:url(#SVGID_2_);stroke:#01579B;stroke-width:0.5;stroke-miterlimit:10;" width="20" height="21"/>
			
				<linearGradient id="SVGID_3_" gradientUnits="userSpaceOnUse" x1="18.0874" y1="28.7606" x2="13.9174" y2="10.2606" gradientTransform="matrix(1 0 0 -1 0 34)">
				<stop  offset="0" style="stop-color:#B3E5FC"/>
				<stop  offset="1" style="stop-color:#0288D1"/>
			</linearGradient>
			<rect x="7" y="5" style="fill:url(#SVGID_3_);" width="18" height="19"/>
			<polygon style="opacity:0.23;fill:#EEE8D5;enable-background:new    ;" points="25.02,24.04 12.5,24.04 17.63,5.04 25.02,5.04 
							"/>
			<circle style="fill:#1D272B;" cx="16" cy="27.5" r="1.63"/>
			<circle style="fill:#455A64;" cx="15.89" cy="27.61" r="1.31"/>
		</g>
	</g>
</g>
<g id="&#x89C4;&#x8303;">
	<rect x="-5.67" y="-32.3" style="fill:none;stroke:#FF0000;stroke-miterlimit:10;" width="90.61" height="84.25"/>
</g>
</svg>
