<svg xmlns="http://www.w3.org/2000/svg" xmlns:xlink="http://www.w3.org/1999/xlink" viewBox="0 0 32 32"><defs><style>.cls-1{opacity:0.08;}.cls-2{opacity:0.1;}.cls-3{opacity:0.2;}.cls-4{fill:#212121;}.cls-5{fill:url(#linear-gradient);}.cls-6{stroke:#01579b;stroke-width:0.5px;fill:url(#linear-gradient-2);}.cls-11,.cls-6{stroke-miterlimit:10;}.cls-7{fill:url(#linear-gradient-3);}.cls-8{fill:#eee8d5;opacity:0.23;isolation:isolate;}.cls-9{fill:#1d272b;}.cls-10{fill:#455a64;}.cls-11{fill:none;stroke:red;}</style><linearGradient id="linear-gradient" x1="16" y1="2" x2="16" y2="30" gradientUnits="userSpaceOnUse"><stop offset="0" stop-color="#455a64"/><stop offset="1" stop-color="#263238"/></linearGradient><linearGradient id="linear-gradient-2" x1="6" y1="14.5" x2="26" y2="14.5" gradientUnits="userSpaceOnUse"><stop offset="0" stop-color="#b3e5fc"/><stop offset="1" stop-color="#0288d1"/></linearGradient><linearGradient id="linear-gradient-3" x1="18.09" y1="5.24" x2="13.92" y2="23.74" xlink:href="#linear-gradient-2"/></defs><title>画板 23</title><g id="开始菜单应用图标"><g id="平板"><g id="_32" data-name="32"><rect class="cls-1" x="3.25" y="1.25" width="26.5" height="30.5" rx="3.25" ry="3.25"/><rect class="cls-2" x="3.75" y="1.75" width="25.5" height="29.5" rx="2.75" ry="2.75"/><rect class="cls-3" x="3.25" y="1.25" width="25.5" height="29.5" rx="2.75" ry="2.75"/><rect class="cls-4" x="3.75" y="1.75" width="24.5" height="28.5" rx="2.25" ry="2.25"/><rect class="cls-5" x="4" y="2" width="24" height="28" rx="2" ry="2"/><path class="cls-4" d="M26,1.75H6A2.25,2.25,0,0,0,3.75,4V28A2.25,2.25,0,0,0,6,30.25H26A2.25,2.25,0,0,0,28.25,28V4A2.25,2.25,0,0,0,26,1.75ZM27.75,28A1.75,1.75,0,0,1,26,29.75H6A1.75,1.75,0,0,1,4.25,28V4A1.75,1.75,0,0,1,6,2.25H26A1.75,1.75,0,0,1,27.75,4Z"/><rect class="cls-6" x="6" y="4" width="20" height="21"/><rect class="cls-7" x="7" y="5" width="18" height="19"/><polygon class="cls-8" points="25.02 24.04 12.5 24.04 17.63 5.04 25.02 5.04 25.02 24.04"/><circle class="cls-9" cx="16" cy="27.5" r="1.63"/><circle class="cls-10" cx="15.89" cy="27.61" r="1.31"/></g></g></g><g id="规范"><rect class="cls-11" x="-5.67" y="-32.3" width="90.61" height="84.25"/></g></svg>