<svg xmlns="http://www.w3.org/2000/svg" xmlns:xlink="http://www.w3.org/1999/xlink" viewBox="0 0 32 32"><defs><style>.cls-1,.cls-21{fill:none;}.cls-2{clip-path:url(#clip-path);}.cls-3{opacity:0.4;}.cls-13,.cls-4{opacity:0.7;}.cls-4{fill:url(#linear-gradient);}.cls-5{opacity:0.08;}.cls-6{opacity:0.1;}.cls-17,.cls-7{opacity:0.2;}.cls-8{fill:#455a64;}.cls-9{fill:#263238;}.cls-10{fill:url(#linear-gradient-2);}.cls-11{fill:url(#linear-gradient-3);}.cls-12{clip-path:url(#clip-path-2);}.cls-13{fill:url(#linear-gradient-4);}.cls-14{opacity:0.8;fill:url(#linear-gradient-5);}.cls-15{opacity:0.12;isolation:isolate;fill:url(#linear-gradient-6);}.cls-16{fill:url(#linear-gradient-7);}.cls-17{fill:url(#radial-gradient);}.cls-18{opacity:0.6;fill:url(#linear-gradient-8);}.cls-19{fill:#1d272b;}.cls-20{fill:url(#linear-gradient-9);}.cls-21{stroke:red;stroke-miterlimit:10;}</style><clipPath id="clip-path"><rect id="rect3008" class="cls-1" x="-61.92" y="7.09" width="35.84" height="27.02"/></clipPath><linearGradient id="linear-gradient" x1="-37.18" y1="23.07" x2="-15.74" y2="1.64" gradientUnits="userSpaceOnUse"><stop offset="0" stop-color="#00698c"/><stop offset="1" stop-color="#00698c" stop-opacity="0"/></linearGradient><linearGradient id="linear-gradient-2" x1="16.09" y1="29.61" x2="16.09" y2="26.24" gradientUnits="userSpaceOnUse"><stop offset="0" stop-color="#455a64"/><stop offset="1" stop-color="#263238"/></linearGradient><linearGradient id="linear-gradient-3" x1="16" y1="4.45" x2="16" y2="22.9" gradientUnits="userSpaceOnUse"><stop offset="0" stop-color="#b3e5fc"/><stop offset="1" stop-color="#0288d1"/></linearGradient><clipPath id="clip-path-2"><rect id="rect3008-2" data-name="rect3008" class="cls-1" x="3.76" y="4.45" width="24.47" height="18.45"/></clipPath><linearGradient id="linear-gradient-4" x1="20.66" y1="15.37" x2="35.3" y2="0.73" xlink:href="#linear-gradient"/><linearGradient id="linear-gradient-5" x1="14.59" y1="21.43" x2="29.23" y2="6.8" xlink:href="#linear-gradient"/><linearGradient id="linear-gradient-6" x1="-394.74" y1="928.93" x2="-394.74" y2="942.43" gradientTransform="matrix(0.71, 0.71, 0.71, -0.71, -363.42, 955.1)" gradientUnits="userSpaceOnUse"><stop offset="0"/><stop offset="1" stop-opacity="0"/></linearGradient><linearGradient id="linear-gradient-7" x1="-898.12" y1="969.48" x2="-889.32" y2="969.48" gradientTransform="translate(4.96 -2184.85) rotate(-45) scale(1.72 1.61)" gradientUnits="userSpaceOnUse"><stop offset="0" stop-color="#d7e866"/><stop offset="0.69" stop-color="#a4c33a"/><stop offset="1" stop-color="#7a9525" stop-opacity="0"/></linearGradient><radialGradient id="radial-gradient" cx="-896.16" cy="966.96" r="6.51" gradientTransform="translate(4.96 -2184.85) rotate(-45) scale(1.72 1.61)" gradientUnits="userSpaceOnUse"><stop offset="0" stop-color="#b0ff04"/><stop offset="0.56" stop-color="#5ac306"/><stop offset="0.74" stop-color="#13a400"/></radialGradient><linearGradient id="linear-gradient-8" x1="14.4" y1="19.03" x2="27.61" y2="5.82" gradientUnits="userSpaceOnUse"><stop offset="0" stop-color="#fff"/><stop offset="1" stop-color="#fff" stop-opacity="0"/></linearGradient><linearGradient id="linear-gradient-9" x1="16" y1="3.26" x2="16" y2="24.8" xlink:href="#linear-gradient-2"/></defs><title>画板 23</title><g id="控制面板"><g id="显示"><g id="_48" data-name="48"><g class="cls-2"><g class="cls-3"><path class="cls-4" d="M-34.14,17.74A1.87,1.87,0,0,1-36,15.87V-10.92H-37.4A1.87,1.87,0,0,0-39.28-9V19.73a1.87,1.87,0,0,0,1.87,1.87H-1.49A1.87,1.87,0,0,0,.39,19.73v-2Z"/></g></g></g><g id="_32" data-name="32"><path class="cls-5" d="M8.57,30.74a2.15,2.15,0,0,1-2.19-2.11V27.07L7,26.8H1V2.26H32V26.8H26.22l.58.26v1.58a2.15,2.15,0,0,1-2.19,2.11Z"/><path class="cls-6" d="M8.57,30.24a1.65,1.65,0,0,1-1.69-1.61V27.39L9.22,26.3H1.5V2.76h30V26.3H23.88l2.42,1.08v1.26a1.65,1.65,0,0,1-1.69,1.61Z"/><path class="cls-7" d="M8.07,29.74a1.65,1.65,0,0,1-1.69-1.61V26.89L8.72,25.8H1V2.26H31V25.8H23.38l2.42,1.08v1.26a1.65,1.65,0,0,1-1.69,1.61Z"/><path class="cls-8" d="M8.07,29a.91.91,0,0,1-.94-.86v-.77l4.3-2h.82V25H1.75V3h28.5V25H19.75v.32h.82l4.47,2v.77a.9.9,0,0,1-.94.86Z"/><path class="cls-9" d="M30,3.26V24.8H19.5v.82h1l4.28,1.91v.61a.66.66,0,0,1-.69.61h-16a.66.66,0,0,1-.69-.61v-.61l4.11-1.91h1V24.8H2V3.26H30m.5-.5H1.5V25.3H11L7.17,27.07l-.29.13v.93a1.15,1.15,0,0,0,1.19,1.11h16a1.16,1.16,0,0,0,1.19-1.11V27.2l-.3-.13L21,25.3H30.5V2.76Z"/><polygon class="cls-10" points="7.38 27.52 11.49 25.61 20.52 25.61 24.79 27.52 7.38 27.52"/><g id="rect3008-3" data-name="rect3008"><rect class="cls-11" x="3.76" y="4.45" width="24.47" height="18.45"/></g><g class="cls-12"><g class="cls-3"><path class="cls-13" d="M22.73,11.73a1.28,1.28,0,0,1-1.28-1.28V-7.85h-1a1.28,1.28,0,0,0-1.28,1.28V13.09a1.28,1.28,0,0,0,1.28,1.28H45a1.28,1.28,0,0,0,1.28-1.28V11.73Z"/><path class="cls-14" d="M16.67,17.79a1.28,1.28,0,0,1-1.28-1.28V-1.78h-1A1.28,1.28,0,0,0,13.16-.5V19.15a1.28,1.28,0,0,0,1.28,1.28H39a1.28,1.28,0,0,0,1.28-1.28V17.79Z"/></g></g><g id="layer4"><path id="path4238" class="cls-15" d="M16.42,12.33l-2.09-2.09a.18.18,0,0,0-.31.13v8.84a.18.18,0,0,0,.18.18h8.87a.18.18,0,0,0,.18-.18.17.17,0,0,0-.05-.12L21.1,17,27.69,5.63Z"/><path id="path3288-2" class="cls-16" d="M23.2,19.09H14.34V10.23l2.21,2.21L27.7,5.61,21,16.87Z"/><path id="path3288-2-2" data-name="path3288-2" class="cls-17" d="M23.2,19.09H14.34V10.23l2.21,2.21L27.7,5.61,21,16.87Z"/><path id="path4200" class="cls-18" d="M27.57,5.76,16.42,12.86l.15.15L27.43,5.92l-7,10.94.15.15Zm-13,4.94v8.17h8.19l-2.15-2.15-.15.15,1.79,1.79H14.75V11.22L16.55,13l.15-.15Z"/></g><rect class="cls-19" x="12.5" y="24.57" width="7" height="2.09"/><path class="cls-20" d="M2,3.26V24.8H30V3.26ZM28.24,22.37H3.76V5H28.24Z"/><path class="cls-8" d="M24.1,27.53H7.38v.61a.66.66,0,0,0,.69.61h16a.66.66,0,0,0,.69-.61v-.61Z"/></g></g></g><g id="规范"><rect class="cls-21" x="-5.67" y="-32.3" width="90.61" height="84.25"/></g></svg>