<svg xmlns="http://www.w3.org/2000/svg" xmlns:xlink="http://www.w3.org/1999/xlink" viewBox="0 0 32 32"><defs><style>.cls-1{opacity:0.2;}.cls-2{opacity:0.08;}.cls-3{opacity:0.1;}.cls-4{fill:#1b5e20;}.cls-5{fill:url(#linear-gradient);}.cls-10,.cls-6{fill:#fff;}.cls-6{opacity:0.24;}.cls-10,.cls-11,.cls-6,.cls-7,.cls-8{isolation:isolate;}.cls-7{fill:#33691e;}.cls-8{fill:#dcedc8;}.cls-9{fill:#657b83;}.cls-10{opacity:0.31;}.cls-11{fill:#073642;opacity:0.65;}.cls-12{fill:none;stroke:red;stroke-miterlimit:10;}</style><linearGradient id="linear-gradient" x1="9.84" y1="23.28" x2="21.93" y2="2.55" gradientUnits="userSpaceOnUse"><stop offset="0.24" stop-color="#689f38"/><stop offset="0.94" stop-color="#8bc34a"/></linearGradient></defs><title>画板 23</title><g id="其他"><g id="U盘"><g id="_32" data-name="32"><polygon class="cls-1" points="10.16 31 10.16 24.43 8 24.43 8 1 24 1 24 24.43 21.84 24.43 21.84 31 10.16 31"/><polygon class="cls-2" points="10.16 32 10.16 25.43 8 25.43 8 1 25 1 25 25.43 22.84 25.43 22.84 32 10.16 32"/><polygon class="cls-3" points="10.66 31.5 10.66 24.93 8.5 24.93 8.5 1.5 24.5 1.5 24.5 24.93 22.34 24.93 22.34 31.5 10.66 31.5"/><polygon class="cls-4" points="23.17 1.5 8.83 1.5 8.5 1.5 8.5 1.83 8.5 23.6 8.5 23.93 8.83 23.93 10.66 23.93 10.66 30.17 10.66 30.5 10.99 30.5 21 30.5 21.34 30.5 21.34 30.17 21.34 23.93 23.17 23.93 23.5 23.93 23.5 23.6 23.5 1.83 23.5 1.5 23.17 1.5"/><rect class="cls-5" x="9" y="2" width="14" height="21.43"/><rect class="cls-6" x="10.47" y="2" width="4.1" height="21.43"/><path id="path1334" class="cls-7" d="M12.3,11.76a1.09,1.09,0,0,0,.74,1v1.1a1.51,1.51,0,0,0,.5,1h0v0h0l2.07,1.68a.66.66,0,0,1,.17.39v1a1.39,1.39,0,0,0-1.07,1.28,1.46,1.46,0,0,0,1.56,1.34,1.46,1.46,0,0,0,1.56-1.34A1.39,1.39,0,0,0,16.84,18V17h0s0,0,0,0V15.37A.62.62,0,0,1,17,15l1-.84.72-.58.23-.19.07-.05h0v0h0a1.5,1.5,0,0,0,.5-1v-1h.7V9H18v2.15h.7v1a.62.62,0,0,1-.17.38l-1.64,1.33V8h1.08l-1.6-2.52L14.72,8h1.12v7.61l-1.64-1.33a.65.65,0,0,1-.17-.39V12.76a1.09,1.09,0,0,0,.76-1,1.18,1.18,0,0,0-1.25-1.09A1.18,1.18,0,0,0,12.3,11.76Z"/><path id="path1334-2" data-name="path1334" class="cls-8" d="M12,11.54a1.09,1.09,0,0,0,.74,1v1.1a1.51,1.51,0,0,0,.5,1h0v0h0l2.07,1.68a.65.65,0,0,1,.17.39v1a1.39,1.39,0,0,0-1.06,1.28A1.46,1.46,0,0,0,16,20.4a1.46,1.46,0,0,0,1.56-1.34,1.39,1.39,0,0,0-1.06-1.28v-1h0V15.14a.62.62,0,0,1,.17-.38l1-.84.72-.58.23-.19.07-.05h0v0h0a1.5,1.5,0,0,0,.5-1V11H20V8.81H17.63V11h.7v1a.62.62,0,0,1-.17.38l-1.64,1.33V7.76H17.6L16,5.24,14.4,7.76h1.12v7.61L13.89,14a.65.65,0,0,1-.17-.39V12.54a1.09,1.09,0,0,0,.76-1,1.18,1.18,0,0,0-1.25-1.09A1.18,1.18,0,0,0,12,11.54Z"/><rect class="cls-9" x="11.17" y="23.93" width="9.65" height="6.07"/><rect id="rect3765" class="cls-10" x="12.46" y="23.93" width="3.54" height="6.07"/><rect id="rect3767" class="cls-11" x="17.18" y="26.37" width="2.36" height="2.37"/><rect id="rect3769" class="cls-11" x="12.46" y="26.37" width="2.36" height="2.37"/></g></g></g><g id="规范"><rect class="cls-12" x="-5.67" y="-32.3" width="90.61" height="84.25"/></g></svg>