<?xml version="1.0" encoding="iso-8859-1"?>
<!-- Generator: Adobe Illustrator 21.0.0, SVG Export Plug-In . SVG Version: 6.00 Build 0)  -->
<svg version="1.1" id="&#x56FE;&#x5C42;_1" xmlns="http://www.w3.org/2000/svg" xmlns:xlink="http://www.w3.org/1999/xlink" x="0px"
	 y="0px" viewBox="0 0 32 32" style="enable-background:new 0 0 32 32;" xml:space="preserve">
<title>画板 23</title>
<g id="&#x5F00;&#x59CB;&#x83DC;&#x5355;&#x5E94;&#x7528;&#x56FE;&#x6807;">
	<g id="&#x786C;&#x76D8;">
		<g id="_32">
			<polygon style="opacity:0.08;enable-background:new    ;" points="1,30.43 1,24.64 1.01,24.54 1.29,22.63 4.35,2.64 27.78,2.57 
				31.63,22.57 31.99,24.49 32,24.61 32,30.43 			"/>
			<polygon style="opacity:0.1;enable-background:new    ;" points="1.5,29.93 1.5,24.66 1.51,24.58 1.78,22.7 4.78,3.14 
				27.36,3.07 31.14,22.67 31.49,24.56 31.5,24.65 31.5,29.93 			"/>
			<polygon style="opacity:0.2;enable-background:new    ;" points="1,29.43 1,24.16 1.01,24.08 1.28,22.2 4.28,2.64 26.86,2.57 
				30.64,22.17 30.99,24.06 31,24.15 31,29.43 			"/>
			<polygon points="30.49,24.1 30.15,22.26 26.53,3.48 26.45,3.07 26.04,3.07 5.14,3.14 4.71,3.14 4.65,3.56 1.78,22.28 1.5,24.12 
				1.5,24.16 1.5,24.2 1.5,28.43 1.5,28.93 2,28.93 30,28.93 30.5,28.93 30.5,28.43 30.5,24.2 30.5,24.15 			"/>
			<g id="g4">
				<g id="g6">
					<path id="path10" style="fill:#263238;" d="M2,24.2v4.23h28V24.2H2z"/>
					<polygon style="fill:#E0E0E0;" points="29.66,22.35 26.04,3.57 5.14,3.64 2.27,22.35 					"/>
					<polygon style="opacity:0.25;fill:#9E9E9E;enable-background:new    ;" points="29.66,22.35 26.04,3.57 18.73,3.57 
						14.43,22.35 					"/>
					<polygon style="fill:#455A64;" points="2.27,22.35 2,24.2 30,24.2 29.66,22.35 					"/>
					<polygon style="opacity:0.45;fill:#FFFFFF;enable-background:new    ;" points="6.85,22.35 7.79,3.64 6.13,3.64 3.3,22.35 
											"/>
				</g>
				<g id="g12">
					
						<linearGradient id="path14_1_" gradientUnits="userSpaceOnUse" x1="-2175.1599" y1="3835.3401" x2="-2175.1599" y2="3834.0601" gradientTransform="matrix(1 0 0 1 2185.95 -3808.3101)">
						<stop  offset="0" style="stop-color:#455A64"/>
						<stop  offset="0.21" style="stop-color:#36474F"/>
						<stop  offset="1" style="stop-color:#000000"/>
					</linearGradient>
					<path id="path14" style="fill:url(#path14_1_);" d="M17.29,27h-13v-1.3h13V27z"/>
					
						<linearGradient id="path16_1_" gradientUnits="userSpaceOnUse" x1="-2160.95" y1="3835.3401" x2="-2160.95" y2="3834.0601" gradientTransform="matrix(1 0 0 1 2185.95 -3808.3101)">
						<stop  offset="0" style="stop-color:#38A3E7"/>
						<stop  offset="1" style="stop-color:#1976D2"/>
					</linearGradient>
					<path id="path16" style="fill:url(#path16_1_);" d="M24,27h2v-1.3h-2V27z"/>
				</g>
			</g>
			<path style="fill:#606060;" d="M26,3.57l3.62,18.78L30,24.2v4.23H2V24.2l0.27-1.84L5.14,3.64L26,3.57 M26.41,3.07H26L5.1,3.14
				H4.71L4.65,3.56L1.78,22.28l-0.27,1.85v4.81h29V24.1l-0.34-1.84L26.53,3.48l-0.08-0.41H26.41z"/>
		</g>
	</g>
</g>
<g id="&#x89C4;&#x8303;">
	<rect x="-5.67" y="-32.3" style="fill:none;stroke:#FF0000;stroke-miterlimit:10;" width="90.61" height="84.25"/>
</g>
</svg>
