<?xml version="1.0" encoding="iso-8859-1"?>
<!-- Generator: Adobe Illustrator 21.0.0, SVG Export Plug-In . SVG Version: 6.00 Build 0)  -->
<svg version="1.1" id="&#x56FE;&#x5C42;_1" xmlns="http://www.w3.org/2000/svg" xmlns:xlink="http://www.w3.org/1999/xlink" x="0px"
	 y="0px" viewBox="0 0 32 32" style="enable-background:new 0 0 32 32;" xml:space="preserve">
<title>画板 23</title>
<g id="&#x5176;&#x4ED6;">
	<g id="U&#x76D8;">
		<g id="_32">
			<polygon style="opacity:0.2;enable-background:new    ;" points="10.16,31 10.16,24.43 8,24.43 8,1 24,1 24,24.43 21.84,24.43 
				21.84,31 			"/>
			<polygon style="opacity:0.08;enable-background:new    ;" points="10.16,32 10.16,25.43 8,25.43 8,1 25,1 25,25.43 22.84,25.43 
				22.84,32 			"/>
			<polygon style="opacity:0.1;enable-background:new    ;" points="10.66,31.5 10.66,24.93 8.5,24.93 8.5,1.5 24.5,1.5 24.5,24.93 
				22.34,24.93 22.34,31.5 			"/>
			<polygon style="fill:#1B5E20;" points="23.17,1.5 8.83,1.5 8.5,1.5 8.5,1.83 8.5,23.6 8.5,23.93 8.83,23.93 10.66,23.93 
				10.66,30.17 10.66,30.5 10.99,30.5 21,30.5 21.34,30.5 21.34,30.17 21.34,23.93 23.17,23.93 23.5,23.93 23.5,23.6 23.5,1.83 
				23.5,1.5 			"/>
			
				<linearGradient id="SVGID_1_" gradientUnits="userSpaceOnUse" x1="9.8388" y1="10.7207" x2="21.9288" y2="31.4507" gradientTransform="matrix(1 0 0 -1 0 34)">
				<stop  offset="0.24" style="stop-color:#689F38"/>
				<stop  offset="0.94" style="stop-color:#8BC34A"/>
			</linearGradient>
			<rect x="9" y="2" style="fill:url(#SVGID_1_);" width="14" height="21.43"/>
			<rect x="10.47" y="2" style="opacity:0.24;fill:#FFFFFF;enable-background:new    ;" width="4.1" height="21.43"/>
			<path id="path1334" style="fill:#33691E;" d="M12.3,11.76c0.014,0.455,0.309,0.854,0.74,1v1.1c0.033,0.385,0.212,0.743,0.5,1l0,0
				l0,0l0,0l2.07,1.68c0.098,0.108,0.158,0.245,0.17,0.39v1c-0.602,0.141-1.037,0.663-1.07,1.28c0.064,0.799,0.76,1.397,1.56,1.34
				c0.8,0.057,1.496-0.541,1.56-1.34c-0.05-0.568-0.443-1.048-0.99-1.21v-1l0,0l0,0v-1.63c0.011-0.138,0.067-0.268,0.16-0.37l1-0.84
				l0.72-0.58l0.23-0.19l0.07-0.05l0,0l0,0l0,0c0.289-0.256,0.468-0.615,0.5-1v-1h0.7V9H18v2.15h0.7v1
				c-0.011,0.142-0.071,0.277-0.17,0.38l-1.64,1.33V8h1.08l-1.6-2.52L14.72,8h1.12v7.61l-1.64-1.33
				c-0.099-0.107-0.159-0.245-0.17-0.39v-1.13c0.439-0.139,0.743-0.54,0.76-1c-0.048-0.644-0.605-1.13-1.25-1.09
				C12.899,10.636,12.348,11.12,12.3,11.76z"/>
			<path id="path1334-2" style="fill:#DCEDC8;" d="M12,11.54c0.014,0.455,0.309,0.854,0.74,1v1.1c0.033,0.385,0.212,0.743,0.5,1l0,0
				l0,0l0,0l2.07,1.68c0.099,0.107,0.159,0.245,0.17,0.39v1c-0.598,0.145-1.029,0.666-1.06,1.28
				c0.025,0.806,0.698,1.439,1.504,1.414C15.95,20.404,15.975,20.402,16,20.4c0.8,0.057,1.496-0.541,1.56-1.34
				c-0.031-0.614-0.462-1.135-1.06-1.28v-1l0,0v-1.64c0.011-0.142,0.071-0.277,0.17-0.38l1-0.84l0.72-0.58l0.23-0.19l0.07-0.05l0,0
				l0,0l0,0c0.289-0.256,0.468-0.615,0.5-1V11H20V8.81h-2.37V11h0.7v1c-0.011,0.142-0.071,0.277-0.17,0.38l-1.64,1.33V7.76h1.08
				L16,5.24l-1.6,2.52h1.12v7.61L13.89,14c-0.099-0.107-0.159-0.245-0.17-0.39v-1.07c0.439-0.139,0.743-0.54,0.76-1
				c-0.048-0.644-0.605-1.13-1.25-1.09C12.593,10.421,12.048,10.904,12,11.54z"/>
			<rect x="11.17" y="23.93" style="fill:#657B83;" width="9.65" height="6.07"/>
			
				<rect id="rect3765" x="12.46" y="23.93" style="opacity:0.31;fill:#FFFFFF;enable-background:new    ;" width="3.54" height="6.07"/>
			
				<rect id="rect3767" x="17.18" y="26.37" style="opacity:0.65;fill:#073642;enable-background:new    ;" width="2.36" height="2.37"/>
			
				<rect id="rect3769" x="12.46" y="26.37" style="opacity:0.65;fill:#073642;enable-background:new    ;" width="2.36" height="2.37"/>
		</g>
	</g>
</g>
<g id="&#x89C4;&#x8303;">
	<rect x="-5.67" y="-32.3" style="fill:none;stroke:#FF0000;stroke-miterlimit:10;" width="90.61" height="84.25"/>
</g>
</svg>
