<?xml version="1.0" encoding="iso-8859-1"?>
<!-- Generator: Adobe Illustrator 21.0.0, SVG Export Plug-In . SVG Version: 6.00 Build 0)  -->
<svg version="1.1" id="&#x56FE;&#x5C42;_1" xmlns="http://www.w3.org/2000/svg" xmlns:xlink="http://www.w3.org/1999/xlink" x="0px"
	 y="0px" viewBox="0 0 32 32" style="enable-background:new 0 0 32 32;" xml:space="preserve">
<title>画板 23</title>
<g id="&#x5F00;&#x59CB;&#x83DC;&#x5355;&#x5E94;&#x7528;&#x56FE;&#x6807;">
	<g id="&#x786C;&#x76D8;">
		<g id="_32">
			<polygon style="opacity:0.08;enable-background:new    ;" points="1,30.4 1,24.6 1,24.5 1.3,22.6 4.3,2.6 27.8,2.6 31.6,22.6 
				32,24.5 32,24.6 32,30.4 			"/>
			<polygon style="opacity:0.1;enable-background:new    ;" points="1.5,29.9 1.5,24.7 1.5,24.6 1.8,22.7 4.8,3.1 27.4,3.1 
				31.1,22.7 31.5,24.6 31.5,24.6 31.5,29.9 			"/>
			<polygon style="opacity:0.2;enable-background:new    ;" points="1,29.4 1,24.2 1,24.1 1.3,22.2 4.3,2.6 26.9,2.6 30.6,22.2 
				31,24.1 31,24.1 31,29.4 			"/>
			<polygon points="30.5,24.1 30.1,22.3 26.5,3.5 26.5,3.1 26,3.1 5.1,3.1 4.7,3.1 4.7,3.6 1.8,22.3 1.5,24.1 1.5,24.2 1.5,24.2 
				1.5,28.4 1.5,28.9 2,28.9 30,28.9 30.5,28.9 30.5,28.4 30.5,24.2 			"/>
			<g id="g4">
				<g id="g6">
					<path id="path10" style="fill:#263238;" d="M2,24.2v4.2h28v-4.2H2z"/>
					<polygon style="fill:#E0E0E0;" points="29.7,22.4 26,3.6 5.1,3.6 2.3,22.4 					"/>
					<polygon style="opacity:0.25;fill:#9E9E9E;enable-background:new    ;" points="29.7,22.4 26,3.6 18.7,3.6 14.4,22.4 					"/>
					<polygon style="fill:#455A64;" points="2.3,22.4 2,24.2 30,24.2 29.7,22.4 					"/>
					<polygon style="opacity:0.45;fill:#FFFFFF;enable-background:new    ;" points="6.8,22.4 7.8,3.6 6.1,3.6 3.3,22.4 					"/>
				</g>
				<g id="g12">
					
						<linearGradient id="path14_1_" gradientUnits="userSpaceOnUse" x1="-2175.1499" y1="-3501.3401" x2="-2175.1499" y2="-3500.0601" gradientTransform="matrix(1 0 0 -1 2185.95 -3474.3101)">
						<stop  offset="0" style="stop-color:#455A64"/>
						<stop  offset="0.21" style="stop-color:#36474F"/>
						<stop  offset="1" style="stop-color:#000000"/>
					</linearGradient>
					<path id="path14" style="fill:url(#path14_1_);" d="M17.3,27h-13v-1.3h13V27z"/>
					
						<linearGradient id="path16_1_" gradientUnits="userSpaceOnUse" x1="-2160.95" y1="-3501.3401" x2="-2160.95" y2="-3500.0601" gradientTransform="matrix(1 0 0 -1 2185.95 -3474.3101)">
						<stop  offset="0" style="stop-color:#38A3E7"/>
						<stop  offset="1" style="stop-color:#1976D2"/>
					</linearGradient>
					<path id="path16" style="fill:url(#path16_1_);" d="M24,27h2v-1.3h-2V27z"/>
				</g>
			</g>
			<path style="fill:#606060;" d="M26,3.6l3.6,18.8l0.4,1.9v4.2H2v-4.2l0.3-1.8L5.1,3.6H26 M26.4,3.1H26H5.1H4.7v0.5L1.8,22.3
				l-0.3,1.9V29h29v-4.8l-0.3-1.8L26.5,3.5L26.4,3.1L26.4,3.1z"/>
		</g>
	</g>
</g>
</svg>
