<?xml version="1.0" encoding="iso-8859-1"?>
<!-- Generator: Adobe Illustrator 21.0.0, SVG Export Plug-In . SVG Version: 6.00 Build 0)  -->
<svg version="1.1" id="&#x56FE;&#x5C42;_1" xmlns="http://www.w3.org/2000/svg" xmlns:xlink="http://www.w3.org/1999/xlink" x="0px"
	 y="0px" viewBox="0 0 32 32" style="enable-background:new 0 0 32 32;" xml:space="preserve">
<title>画板 23</title>
<g id="&#x5176;&#x4ED6;">
	<g id="sm">
		<path style="opacity:0.2;enable-background:new    ;" d="M4.83,31c-1.134,0-2.054-0.916-2.06-2.05V3c0.027-1.113,0.937-2,2.05-2
			h21.4l3,3v25c0,1.105-0.895,2-1.999,2.001c-0.02,0-0.041,0-0.061-0.001H4.83z"/>
		<path style="opacity:0.08;enable-background:new    ;" d="M5.33,32c-1.41,0-2.554-1.14-2.56-2.55V3.55C2.77,2.142,3.912,1,5.32,1
			c0,0,0,0,0,0h21.6l3.3,3.25v25.24c0,1.386-1.123,2.51-2.51,2.51c-0.013,0-0.027,0-0.04,0H5.33z"/>
		<path style="opacity:0.1;enable-background:new    ;" d="M5.33,31.5c-1.134,0-2.054-0.916-2.06-2.05V3.55
			c0.027-1.113,0.937-2,2.05-2h21.4l3,3v25c0,1.105-0.895,2-1.999,2.001c-0.02,0-0.041,0-0.061-0.001L5.33,31.5z"/>
		<path d="M4.83,30.5c-0.858,0-1.555-0.692-1.56-1.55V3c0.027-0.836,0.713-1.5,1.55-1.5H26l2.71,2.67V29
			c-0.005,0.839-0.69,1.516-1.529,1.51c-0.01,0-0.02,0-0.031,0L4.83,30.5z"/>
		
			<linearGradient id="SVGID_1_" gradientUnits="userSpaceOnUse" x1="15.9994" y1="32" x2="15.9994" y2="-19.9" gradientTransform="matrix(1 0 0 -1 0 34)">
			<stop  offset="0" style="stop-color:#211D1E"/>
			<stop  offset="0.55" style="stop-color:#58595B"/>
			<stop  offset="1" style="stop-color:#ABB6BE"/>
		</linearGradient>
		<path style="fill:url(#SVGID_1_);" d="M28.23,4.38L25.81,2h-21C4.253,2.005,3.797,2.444,3.77,3v25.9
			c-0.028,0.579,0.42,1.071,0.999,1.099C4.789,30,4.81,30,4.83,30h22.34c0.551,0.033,1.025-0.387,1.058-0.938
			c0.001-0.021,0.002-0.041,0.002-0.062V4.38z"/>
		<path style="fill:#616161;" d="M25.43,2.92l1.88,1.85V29c0,0.08-0.1,0.1-0.14,0.1H4.83c-0.074,0-0.135-0.057-0.14-0.13V3
			c0-0.072,0.058-0.13,0.13-0.13l0,0h20.61 M25.51,2.69H4.82C4.651,2.695,4.515,2.831,4.51,3v25.9c0,0.177,0.143,0.32,0.32,0.32
			h22.34c0.165,0.011,0.309-0.113,0.32-0.279c0,0,0-0.001,0-0.001V4.69l-2-2L25.51,2.69z"/>
		<path style="fill:#F9CE1D;stroke:#212121;stroke-width:0.77;" d="M7.65,4.85h16.63c0.718,0,1.3,0.582,1.3,1.3v9.08
			c0,0.718-0.582,1.3-1.3,1.3H7.65c-0.718,0-1.3-0.582-1.3-1.3l0,0V6.16C6.344,5.442,6.922,4.856,7.64,4.85
			C7.643,4.85,7.647,4.85,7.65,4.85z"/>
		
			<linearGradient id="SVGID_2_" gradientUnits="userSpaceOnUse" x1="15.965" y1="4.23" x2="15.965" y2="10.81" gradientTransform="matrix(1 0 0 -1 0 34)">
			<stop  offset="0" style="stop-color:#616161"/>
			<stop  offset="0.19" style="stop-color:#FFFFFF"/>
		</linearGradient>
		<path style="fill:url(#SVGID_2_);" d="M6.58,29.77v-5.5c0-0.591,0.479-1.07,1.07-1.07h16.63c0.591,0,1.07,0.479,1.07,1.07v5.5
			H6.58z"/>
		<path style="fill:#212121;" d="M24.28,23.42c0.464,0,0.84,0.376,0.84,0.84l0,0v5.27H6.81v-5.27c0-0.464,0.376-0.84,0.84-0.84
			c0,0,0,0,0,0H24.28 M24.28,22.96H7.65c-0.718,0-1.3,0.582-1.3,1.3V30h19.23v-5.74C25.58,23.542,24.998,22.96,24.28,22.96z"/>
		
			<linearGradient id="SVGID_3_" gradientUnits="userSpaceOnUse" x1="6.81" y1="9.605" x2="25.12" y2="9.605" gradientTransform="matrix(1 0 0 -1 0 34)">
			<stop  offset="0" style="stop-color:#F57C00"/>
			<stop  offset="1" style="stop-color:#FF5722"/>
		</linearGradient>
		<path style="fill:url(#SVGID_3_);" d="M6.81,25.37v-1.11c0-0.464,0.376-0.84,0.84-0.84c0,0,0,0,0,0h16.63
			c0.464,0,0.84,0.376,0.84,0.84l0,0v1.11H6.81z"/>
		
			<linearGradient id="SVGID_4_" gradientUnits="userSpaceOnUse" x1="-3193.1665" y1="-2385.5703" x2="-3195.0464" y2="-2389.1902" gradientTransform="matrix(2.67 0 0 2.67 8539.0703 6375.0601)">
			<stop  offset="0" style="stop-color:#F9CE1D"/>
			<stop  offset="0.5" style="stop-color:#F5A816"/>
			<stop  offset="1" style="stop-color:#F9CE1D"/>
		</linearGradient>
		<path style="fill:url(#SVGID_4_);stroke:#C39F00;stroke-width:0.26;" d="M7.65,4.85h16.63c0.718,0,1.3,0.582,1.3,1.3v9.08
			c0,0.718-0.582,1.3-1.3,1.3H7.65c-0.718,0-1.3-0.582-1.3-1.3l0,0V6.16C6.344,5.442,6.922,4.856,7.64,4.85
			C7.643,4.85,7.647,4.85,7.65,4.85z"/>
		<path style="fill:none;stroke:#FFFFFF;stroke-width:0.26;stroke-opacity:0.45;" d="M7.85,5.54h16.3c0.431,0,0.78,0.349,0.78,0.78
			c0,0.003,0,0.007,0,0.01v8.74c0,0.436-0.354,0.79-0.79,0.79l0,0H7.79C7.359,15.866,7.005,15.521,7,15.09c0-0.01,0-0.02,0-0.03
			V6.32c0.004-0.436,0.361-0.787,0.798-0.782C7.815,5.538,7.833,5.539,7.85,5.54z"/>
		<path style="fill:#FFFFFF;fill-opacity:0.45;" d="M8.06,5.2v4.12c5-2,10.35,2.73,15.81,1.37V5.25h0.69v11h-0.69v-4.18
			c-6,1.33-10.69-3.47-15.81-1.37v5.5H7.38v-11h0.69L8.06,5.2z"/>
		<path style="fill:#FFFFFF;fill-opacity:0.45;" d="M8.75,5.2v3.25l0.69-0.16V5.2H8.75z"/>
		<path style="fill:#FFFFFF;fill-opacity:0.45;" d="M10.12,8.29V5.2h0.69v3L10.12,8.29z"/>
		<path style="fill:#FFFFFF;fill-opacity:0.45;" d="M11.5,8.23v-3h0.69v3.1L11.5,8.23z"/>
		<path style="fill:#FFFFFF;fill-opacity:0.45;" d="M12.88,8.48V5.2h0.69v3.43L12.88,8.48z"/>
		<path style="fill:#FFFFFF;fill-opacity:0.45;" d="M14.25,8.74V5.2h0.69v3.66L14.25,8.74z"/>
		<path style="fill:#FFFFFF;fill-opacity:0.45;" d="M15.63,9.11V5.2h0.69v4L15.63,9.11z"/>
		<path style="fill:#FFFFFF;fill-opacity:0.45;" d="M17,9.47V5.19h0.69v4.4L17,9.47z"/>
		<path style="fill:#FFFFFF;fill-opacity:0.45;" d="M18.38,9.75V5.2h0.69v4.67L18.38,9.75z"/>
		<path style="fill:#FFFFFF;fill-opacity:0.45;" d="M19.75,10.08V5.19h0.69v4.94L19.75,10.08z"/>
		<path style="fill:#FFFFFF;fill-opacity:0.45;" d="M21.13,10.2v-5h0.69v5H21.13z"/>
		<path style="fill:#FFFFFF;fill-opacity:0.45;" d="M22.5,10.2v-5h0.69v4.91L22.5,10.2z"/>
		<path style="fill:#FFFFFF;fill-opacity:0.45;" d="M8.75,16.16v-5.1L9.44,11v5.19L8.75,16.16z"/>
		<path style="fill:#FFFFFF;fill-opacity:0.45;" d="M10.12,10.95v5.22h0.69v-5.31L10.12,10.95z"/>
		<path style="fill:#FFFFFF;fill-opacity:0.45;" d="M11.5,10.85v5.31h0.69v-5.23L11.5,10.85z"/>
		<path style="fill:#FFFFFF;fill-opacity:0.45;" d="M12.88,11.15v5h0.69V11.3L12.88,11.15z"/>
		<path style="fill:#FFFFFF;fill-opacity:0.45;" d="M14.25,11.46v4.7h0.69v-4.51L14.25,11.46z"/>
		<path style="fill:#FFFFFF;fill-opacity:0.45;" d="M15.63,11.89v4.28h0.69v-4L15.63,11.89z"/>
		<path style="fill:#FFFFFF;fill-opacity:0.45;" d="M17,12.25v3.91h0.69v-3.72L17,12.25z"/>
		<path style="fill:#FFFFFF;fill-opacity:0.45;" d="M18.38,12.56v3.61h0.69v-3.49L18.38,12.56z"/>
		<path style="fill:#FFFFFF;fill-opacity:0.45;" d="M19.75,12.8v3.36h0.69v-3.33h-0.69V12.8z"/>
		<path style="fill:#FFFFFF;fill-opacity:0.45;" d="M21.13,13v3.21h0.69v-3.3L21.13,13z"/>
		<path style="fill:#FFFFFF;fill-opacity:0.45;" d="M22.5,12.92v3.24h0.69V12.8L22.5,12.92z"/>
		
			<radialGradient id="SVGID_5_" cx="33.6467" cy="8.5153" r="3.6" gradientTransform="matrix(0.98 0 0 -0.98 -8.88 30.08)" gradientUnits="userSpaceOnUse">
			<stop  offset="0" style="stop-color:#9E9E9E"/>
			<stop  offset="1" style="stop-color:#212121"/>
		</radialGradient>
		<circle style="fill:url(#SVGID_5_);" cx="24.22" cy="19.88" r="1.85"/>
		<circle style="fill:#0F0F0F;" cx="24.22" cy="19.88" r="1.27"/>
		<rect x="8.13" y="24.16" style="fill:#FF8A65;" width="6.12" height="1.21"/>
		<rect x="15.87" y="24.16" style="fill:#FF8A65;" width="2.95" height="1.21"/>
	</g>
</g>
<g id="&#x89C4;&#x8303;">
	<rect x="-5.67" y="-32.3" style="fill:none;stroke:#FF0000;stroke-miterlimit:10;" width="90.61" height="84.25"/>
</g>
</svg>
