<?xml version="1.0" encoding="iso-8859-1"?>
<!-- Generator: Adobe Illustrator 21.0.0, SVG Export Plug-In . SVG Version: 6.00 Build 0)  -->
<svg version="1.1" id="&#x56FE;&#x5C42;_1" xmlns="http://www.w3.org/2000/svg" xmlns:xlink="http://www.w3.org/1999/xlink" x="0px"
	 y="0px" viewBox="0 0 32 32" style="enable-background:new 0 0 32 32;" xml:space="preserve">
<title>画板 23</title>
<g id="&#x5176;&#x4ED6;">
	<g id="&#x5149;&#x76D8;-&#x97F3;&#x4E50;">
		<path style="opacity:0.2;enable-background:new    ;" d="M15.92,30.66c-8.284,0-15-6.716-15-15s6.716-15,15-15s15,6.716,15,15
			S24.204,30.66,15.92,30.66z M15.92,14.79c-0.48,0-0.87,0.39-0.87,0.87c0,0.48,0.39,0.87,0.87,0.87c0.48,0,0.87-0.39,0.87-0.87
			S16.4,14.79,15.92,14.79C15.92,14.79,15.92,14.79,15.92,14.79z"/>
		<path style="opacity:0.08;enable-background:new    ;" d="M16.58,32.34c-8.56,0-15.5-6.94-15.5-15.5s6.94-15.5,15.5-15.5
			s15.5,6.94,15.5,15.5C32.069,25.396,25.136,32.329,16.58,32.34z M16.58,16.47c-0.204,0-0.37,0.166-0.37,0.37s0.166,0.37,0.37,0.37
			c0.204,0,0.37-0.166,0.37-0.37C16.95,16.636,16.784,16.47,16.58,16.47C16.58,16.47,16.58,16.47,16.58,16.47z"/>
		<path style="opacity:0.1;enable-background:new    ;" d="M16.58,31.34c-8.284,0-15-6.716-15-15s6.716-15,15-15s15,6.716,15,15
			S24.864,31.34,16.58,31.34z M16.58,15.47c-0.48,0-0.87,0.39-0.87,0.87c0,0.48,0.39,0.87,0.87,0.87c0.48,0,0.87-0.39,0.87-0.87
			S17.06,15.47,16.58,15.47L16.58,15.47z"/>
		<path style="fill:#01579B;" d="M15.92,30.16c-8.008,0-14.5-6.492-14.5-14.5s6.492-14.5,14.5-14.5s14.5,6.492,14.5,14.5
			C30.409,23.664,23.924,30.149,15.92,30.16z M15.92,14.29c-0.757,0-1.37,0.613-1.37,1.37c0,0.757,0.613,1.37,1.37,1.37
			c0.757,0,1.37-0.613,1.37-1.37S16.677,14.29,15.92,14.29L15.92,14.29z"/>
		<path style="fill:#0288D1;" d="M15.92,1.66c-7.732,0-14,6.268-14,14s6.268,14,14,14s14-6.268,14-14l0,0
			C29.92,7.928,23.652,1.66,15.92,1.66z M15.92,29.25c-7.506-0.006-13.586-6.094-13.58-13.6C2.346,8.144,8.434,2.064,15.94,2.07
			c7.502,0.006,13.58,6.088,13.58,13.59C29.509,23.165,23.425,29.244,15.92,29.25z"/>
		
			<radialGradient id="SVGID_1_" cx="42.0017" cy="11.065" r="12.21" gradientTransform="matrix(0.96 0 0 -0.96 -24.29 26.35)" gradientUnits="userSpaceOnUse">
			<stop  offset="0" style="stop-color:#4DD0E1"/>
			<stop  offset="0.39" style="stop-color:#40BEE7"/>
			<stop  offset="0.61" style="stop-color:#3FBDE7"/>
			<stop  offset="0.66" style="stop-color:#44C4E8"/>
			<stop  offset="0.75" style="stop-color:#2CBEE8"/>
			<stop  offset="1" style="stop-color:#2196F3"/>
		</radialGradient>
		<path style="fill:url(#SVGID_1_);" d="M15.92,4C9.475,4,4.25,9.225,4.25,15.67s5.225,11.67,11.67,11.67s11.67-5.225,11.67-11.67
			c0-0.003,0-0.007,0-0.01C27.579,9.221,22.359,4.006,15.92,4z M15.92,19.75c-2.253,0-4.08-1.827-4.08-4.08s1.827-4.08,4.08-4.08
			c2.249,0,4.074,1.821,4.08,4.07c-0.005,2.251-1.829,4.075-4.08,4.08V19.75z"/>
		<g style="opacity:0.7;">
			<path style="fill:#FFFFFF;" d="M20,15.93l7.16,0.47h0.41c0.099-1.661-0.157-3.325-0.75-4.88l-7.08,2.7
				C19.948,14.765,20.036,15.348,20,15.93z"/>
			<path style="fill:#FFFFFF;" d="M11.85,15.39l-7.16-0.47H4.28C4.17,16.583,4.415,18.25,5,19.81l7.08-2.7
				C11.881,16.56,11.803,15.973,11.85,15.39z"/>
		</g>
		<g style="opacity:0.7;">
			<path style="fill:#FFFFFF;" d="M19.45,13.6l6.2-3.6L26,9.75c-0.846-1.434-1.988-2.671-3.35-3.63l-4.36,6.2
				C18.763,12.659,19.159,13.096,19.45,13.6z"/>
			<path style="fill:#FFFFFF;" d="M12.4,17.71l-6.2,3.62l-0.33,0.24c0.843,1.433,1.982,2.671,3.34,3.63l4.37-6.2
				C13.099,18.659,12.697,18.219,12.4,17.71z"/>
		</g>
		<path style="fill:#F5F5F5;" d="M15.92,2.07C8.414,2.076,2.334,8.164,2.34,15.67c0.006,7.506,6.094,13.586,13.6,13.58
			c7.502-0.006,13.58-6.088,13.58-13.59C29.509,8.155,23.425,2.076,15.92,2.07z M15.92,27.33c-6.445,0-11.67-5.225-11.67-11.67
			S9.475,3.99,15.92,3.99s11.67,5.225,11.67,11.67l0,0C27.584,22.103,22.363,27.324,15.92,27.33z"/>
		<path style="fill:#0288D1;" d="M15.92,11.58c-2.253,0-4.08,1.827-4.08,4.08s1.827,4.08,4.08,4.08S20,17.913,20,15.66
			C19.995,13.409,18.171,11.585,15.92,11.58z M15.92,19.32c-2.021,0-3.66-1.639-3.66-3.66S13.899,12,15.92,12s3.66,1.639,3.66,3.66
			l0,0C19.575,17.679,17.939,19.315,15.92,19.32z"/>
		<path style="fill:#F5F5F5;" d="M15.92,12c-2.021,0-3.66,1.639-3.66,3.66s1.639,3.66,3.66,3.66s3.66-1.639,3.66-3.66l0,0
			C19.575,13.641,17.939,12.005,15.92,12z M15.92,17.53c-1.033,0-1.87-0.837-1.87-1.87c0-1.033,0.837-1.87,1.87-1.87
			c1.033,0,1.87,0.837,1.87,1.87S16.953,17.53,15.92,17.53C15.92,17.53,15.92,17.53,15.92,17.53z"/>
		
			<radialGradient id="SVGID_2_" cx="22.6" cy="23.62" r="8.58" gradientTransform="matrix(1 0 0 -1 0 34)" gradientUnits="userSpaceOnUse">
			<stop  offset="0" style="stop-color:#607D8B"/>
			<stop  offset="0.35" style="stop-color:#607D8B"/>
			<stop  offset="0.6" style="stop-color:#607D8B"/>
			<stop  offset="1" style="stop-color:#455A64"/>
		</radialGradient>
		<path style="fill:url(#SVGID_2_);stroke:#263238;stroke-width:0.5;stroke-miterlimit:10;" d="M18.93,3.54L18.93,3.54v13.3
			c-0.258-0.066-0.524-0.1-0.79-0.1c-1.29,0-2.34,0.76-2.34,1.7s1,1.7,2.34,1.7s2.34-0.76,2.34-1.7l0,0V9.51l8.8-1.81v6.71
			c-0.258-0.066-0.524-0.099-0.79-0.1c-1.29,0-2.34,0.76-2.34,1.7s1,1.7,2.34,1.7S30.82,17,30.82,16l0,0V1.09L18.93,3.54z
			 M29.26,6.21L20.46,8V5.3l8.8-1.81L29.26,6.21z"/>
		<g>
			<defs>
				<path id="SVGID_3_" d="M18.93,3.54L18.93,3.54v13.3c-0.258-0.066-0.524-0.1-0.79-0.1c-1.29,0-2.34,0.76-2.34,1.7s1,1.7,2.34,1.7
					s2.34-0.76,2.34-1.7l0,0V9.51l8.8-1.81v6.71c-0.258-0.066-0.524-0.099-0.79-0.1c-1.29,0-2.34,0.76-2.34,1.7s1,1.7,2.34,1.7
					S30.82,17,30.82,16l0,0V1.09L18.93,3.54z M29.26,6.21L20.46,8V5.3l8.8-1.81L29.26,6.21z"/>
			</defs>
			<clipPath id="SVGID_4_">
				<use xlink:href="#SVGID_3_"  style="overflow:visible;"/>
			</clipPath>
			<g style="clip-path:url(#SVGID_4_);">
				
					<radialGradient id="SVGID_5_" cx="-293.0431" cy="-22.7044" r="2.01" gradientTransform="matrix(1.3 0 0 -1.08 399.28 -6.48)" gradientUnits="userSpaceOnUse">
					<stop  offset="0.37" style="stop-color:#5F7B8A"/>
					<stop  offset="1" style="stop-color:#455A64;stop-opacity:0"/>
				</radialGradient>
				<ellipse style="fill:url(#SVGID_5_);" cx="18" cy="17.85" rx="2.17" ry="1.76"/>
				
					<radialGradient id="SVGID_6_" cx="-285.403" cy="-20.8444" r="2.01" gradientTransform="matrix(1.3 0 0 -1.08 399.28 -6.83)" gradientUnits="userSpaceOnUse">
					<stop  offset="0.37" style="stop-color:#5F7B8A"/>
					<stop  offset="1" style="stop-color:#455A64;stop-opacity:0"/>
				</radialGradient>
				<ellipse style="fill:url(#SVGID_6_);" cx="27.95" cy="15.5" rx="2.17" ry="1.76"/>
			</g>
		</g>
	</g>
</g>
<g id="&#x89C4;&#x8303;">
	<rect x="-5.67" y="-32.3" style="fill:none;stroke:#FF0000;stroke-miterlimit:10;" width="90.61" height="84.25"/>
</g>
</svg>
