<svg xmlns="http://www.w3.org/2000/svg" xmlns:xlink="http://www.w3.org/1999/xlink" viewBox="0 0 32 32"><defs><style>.cls-1,.cls-2,.cls-3,.cls-4,.cls-5{fill-rule:evenodd;}.cls-1{opacity:0.2;}.cls-2{opacity:0.08;}.cls-3{opacity:0.1;}.cls-5{fill:url(#新建渐变色板_1);}.cls-6{fill:#616161;}.cls-7{fill:#b71c1c;}.cls-8{fill:url(#linear-gradient);}.cls-9{font-size:10.95px;fill:#fff;font-family:Arial-BoldMT, Arial;font-weight:700;}.cls-10{fill:#212121;}.cls-11{fill:#131313;fill-opacity:0.2;}.cls-12,.cls-13{fill:none;stroke-miterlimit:10;}.cls-12{stroke:#fff;stroke-width:1.5px;}.cls-13{stroke:red;}</style><linearGradient id="新建渐变色板_1" x1="16" y1="2" x2="16" y2="53.9" gradientUnits="userSpaceOnUse"><stop offset="0" stop-color="#211d1e"/><stop offset="0.55" stop-color="#58595b"/><stop offset="1" stop-color="#abb6be"/></linearGradient><linearGradient id="linear-gradient" x1="16" y1="4.55" x2="16" y2="30.21" gradientUnits="userSpaceOnUse"><stop offset="0" stop-color="#f44336"/><stop offset="1" stop-color="#d32f2f"/></linearGradient></defs><title>画板 23</title><g id="其他"><g id="sd"><path class="cls-1" d="M4.25,31a2.06,2.06,0,0,1-2.06-2.05V18.64H3V10.24H2.19V3A2.05,2.05,0,0,1,4.25,1H26.79l3,3V11H29v2.72h.79V29a2,2,0,0,1-2.06,2Z"/><path class="cls-2" d="M4.75,32a2.56,2.56,0,0,1-2.56-2.55V18.64H3V11.24H2.19V3.55A2.55,2.55,0,0,1,4.75,1H27.5l3.31,3.25V12H30v1.72h.79V29.49A2.51,2.51,0,0,1,28.25,32Z"/><path class="cls-3" d="M4.75,31.5a2.06,2.06,0,0,1-2.06-2.05V19.14h.83V10.74H2.69V3.55a2.05,2.05,0,0,1,2.05-2H27.29l3,3v7.06h-.79v2.72h.79V29.49a2,2,0,0,1-2.06,2Z"/><path class="cls-4" d="M4.25,30.5a1.56,1.56,0,0,1-1.56-1.55V19.14h.83V9.74H2.69V3A1.55,1.55,0,0,1,4.25,1.5H26.59l2.72,2.67v6.35h-.79v3.72h.79V29a1.52,1.52,0,0,1-1.56,1.51Z"/><path class="cls-5" d="M28,14.74V10h.79V4.38L26.39,2H4.25A1.05,1.05,0,0,0,3.19,3V9.24H4V19.64H3.19v9.31A1.06,1.06,0,0,0,4.25,30h23.5a1,1,0,0,0,1.06-1V14.74Z"/><path class="cls-6" d="M26,2.92l1.88,1.85V9.1H27.1v6.56h.79V29c0,.08-.1.1-.14.1H4.25a.14.14,0,0,1-.14-.13v-8.4h.83V8.33H4.11V3a.13.13,0,0,1,.13-.13H26m.08-.18H4.25A.32.32,0,0,0,3.93,3V8.51h.83V20.37H3.93v8.58a.32.32,0,0,0,.32.32h23.5a.3.3,0,0,0,.32-.28V15.48h-.79V9.28h.79V4.69l-2-2Z"/><rect class="cls-7" x="6.34" y="4.85" width="19.31" height="23.14"/><rect class="cls-8" x="6.59" y="5.1" width="18.82" height="22.65"/><text class="cls-9" transform="translate(8.26 24.71)">SD</text><rect class="cls-10" x="12.31" y="5.1" width="7.38" height="6.91"/><path class="cls-11" d="M6.59,5.1H25.41V8.55H6.59Z"/><line class="cls-12" x1="13.67" y1="10.08" x2="15.84" y2="10.08"/><line class="cls-12" x1="16.91" y1="10.08" x2="18.33" y2="10.08"/></g></g><g id="规范"><rect class="cls-13" x="-5.67" y="-32.3" width="90.61" height="84.25"/></g></svg>