<svg xmlns="http://www.w3.org/2000/svg" xmlns:xlink="http://www.w3.org/1999/xlink" viewBox="0 0 32 32"><defs><style>.cls-1,.cls-2,.cls-3,.cls-4{fill:#040000;}.cls-1{opacity:0.08;}.cls-2{opacity:0.1;}.cls-3{opacity:0.2;}.cls-5{fill:url(#linear-gradient);}.cls-6{fill:url(#linear-gradient-2);}.cls-7{fill:#1c2938;}.cls-8{fill:#090c0f;}.cls-9{fill:#ececde;}.cls-10{fill:url(#linear-gradient-3);}.cls-11,.cls-15,.cls-16{fill:none;stroke-miterlimit:10;}.cls-11{stroke:#000;}.cls-11,.cls-15{stroke-width:0.5px;}.cls-12{fill:#bdbdb2;}.cls-13{fill:#fff;}.cls-14{fill:#8f9396;}.cls-15{stroke:#8f9396;}.cls-16{stroke:red;}</style><linearGradient id="linear-gradient" x1="16" y1="15.95" x2="16" y2="7.74" gradientUnits="userSpaceOnUse"><stop offset="0" stop-color="#455a64"/><stop offset="1" stop-color="#607d8b"/></linearGradient><linearGradient id="linear-gradient-2" x1="16" y1="24.15" x2="16" y2="15.95" gradientUnits="userSpaceOnUse"><stop offset="0" stop-color="#1a1a1a"/><stop offset="1" stop-color="#263238"/></linearGradient><linearGradient id="linear-gradient-3" x1="27.35" y1="19.08" x2="27.43" y2="16.3" gradientUnits="userSpaceOnUse"><stop offset="0.24" stop-color="#689f38"/><stop offset="0.94" stop-color="#8bc34a"/></linearGradient></defs><title>画板 23</title><g id="开始菜单应用图标"><g id="打印机"><g id="_32" data-name="32"><polygon class="cls-1" points="5.66 31.5 5.66 25.65 1.96 25.65 1.96 7.24 6.89 7.24 6.89 1.5 22.36 1.5 26.11 5.13 26.11 7.24 31.04 7.24 31.04 25.65 27.34 25.65 27.34 31.5 5.66 31.5"/><polygon class="cls-2" points="6.16 31 6.16 25.15 2.46 25.15 2.46 7.74 7.39 7.74 7.39 2 22.15 2 25.61 5.35 25.61 7.74 30.54 7.74 30.54 25.15 26.84 25.15 26.84 31 6.16 31"/><polygon class="cls-3" points="5.66 30.5 5.66 24.65 1.96 24.65 1.96 7.24 6.89 7.24 6.89 1.5 21.65 1.5 25.11 4.85 25.11 7.24 30.04 7.24 30.04 24.65 26.34 24.65 26.34 30.5 5.66 30.5"/><polygon class="cls-4" points="24.61 7.74 24.61 5.06 21.45 2 7.39 2 7.39 7.74 2.46 7.74 2.46 15.95 2.46 24.15 6.16 24.15 6.16 30 25.84 30 25.84 24.15 29.54 24.15 29.54 15.95 29.54 7.74 24.61 7.74"/><rect class="cls-5" x="2.46" y="7.74" width="27.07" height="8.2"/><rect class="cls-6" x="2.46" y="15.95" width="27.07" height="8.2"/><rect class="cls-7" x="6.16" y="10.61" width="19.69" height="2.46"/><rect class="cls-7" x="6.16" y="19.33" width="19.69" height="10.67"/><rect class="cls-8" x="6.16" y="19.33" width="19.69" height="1.07"/><rect class="cls-9" x="7.39" y="20.4" width="17.23" height="8.2"/><circle class="cls-8" cx="27.38" cy="18" r="1.68"/><circle class="cls-10" cx="27.38" cy="18" r="1.2"/><polygon class="cls-11" points="2.46 7.74 2.46 15.95 2.46 24.15 6.16 24.15 6.16 30 25.84 30 25.84 24.15 29.54 24.15 29.54 15.95 29.54 7.74 2.46 7.74"/><polygon class="cls-9" points="21.45 4.89 21.45 2 7.39 2 7.39 11.85 24.61 11.85 24.61 5.06 24.44 4.89 21.45 4.89"/><polygon class="cls-12" points="24.61 8.31 21.45 5.04 21.56 3.07 24.61 5.06 24.61 8.31"/><polygon class="cls-13" points="24.61 5.04 21.45 2 21.45 5.04 24.61 5.04"/><rect class="cls-14" x="9.44" y="4.46" width="10.67" height="0.82"/><rect class="cls-14" x="9.44" y="6.92" width="10.67" height="0.82"/><rect class="cls-14" x="9.44" y="9.38" width="10.67" height="0.82"/><polygon class="cls-15" points="21.45 2 7.39 2 7.39 11.85 24.61 11.85 24.61 8.31 24.61 5.06 21.45 2"/></g></g></g><g id="规范"><rect class="cls-16" x="-5.67" y="-32.3" width="90.61" height="84.25"/></g></svg>