<?xml version="1.0" encoding="utf-8"?>
<!-- Generator: Adobe Illustrator 16.0.0, SVG Export Plug-In . SVG Version: 6.00 Build 0)  -->
<!DOCTYPE svg PUBLIC "-//W3C//DTD SVG 1.1//EN" "http://www.w3.org/Graphics/SVG/1.1/DTD/svg11.dtd">
<svg version="1.1" id="图层_1" xmlns="http://www.w3.org/2000/svg" xmlns:xlink="http://www.w3.org/1999/xlink" x="0px" y="0px"
	 width="32px" height="32px" viewBox="0 0 32 32" enable-background="new 0 0 32 32" xml:space="preserve">
<polygon opacity="0.08" enable-background="new    " points="5.077,32 5.077,1 28.923,1 28.923,23.249 20.172,32 "/>
<polygon opacity="0.1" enable-background="new    " points="5.577,31.5 5.577,1.5 28.423,1.5 28.423,23.042 19.965,31.5 "/>
<polygon opacity="0.2" enable-background="new    " points="5.077,31 5.077,1 27.923,1 27.923,22.542 19.465,31 "/>
<polygon fill="#1B5E20" points="5.512,30.5 5.512,1.5 27.488,1.5 27.488,22.335 19.273,30.5 "/>
<g>
	<g>
		<g>
			<g>
				<g>
					
						<linearGradient id="SVGID_1_" gradientUnits="userSpaceOnUse" x1="99.6992" y1="-580.8003" x2="99.6992" y2="-552.8008" gradientTransform="matrix(1 0 0 -1 -83.2002 -550.8008)">
						<stop  offset="0" style="stop-color:#388E3C"/>
						<stop  offset="0.0757" style="stop-color:#43953E"/>
						<stop  offset="0.3246" style="stop-color:#62A943"/>
						<stop  offset="0.5665" style="stop-color:#79B747"/>
						<stop  offset="0.796" style="stop-color:#86C049"/>
						<stop  offset="1" style="stop-color:#8BC34A"/>
					</linearGradient>
					<polygon fill="url(#SVGID_1_)" points="6.009,30 6.009,2 26.987,2 26.987,22.125 19.112,30 					"/>
				</g>
				<polygon fill="#1B5E20" fill-opacity="0.39" points="26.987,22.125 26.987,21.786 18.681,21.786 18.681,30 19.112,30 				"/>
				<path fill="#FFFFFF" fill-opacity="0.3922" d="M19.102,22.125l7.888,0.011L19.112,30L19.102,22.125z"/>
			</g>
			<path opacity="0.8" fill="#FFFFFF" enable-background="new    " d="M17.018,8.183V8.16H15.98v0.023H9.289v13.043h14.419V8.183
				H17.018z M10.326,12.056h3.22v2.083h-3.22V12.056z M10.326,15.178h3.22v2.082h-3.22V15.178z M14.617,15.178h8.054v2.082h-8.054
				V15.178z M14.617,14.14v-2.083h8.054v2.083H14.617z M22.671,9.23v1.791h-8.054V9.23H22.671z M13.546,9.23v1.791h-3.22V9.23
				H13.546z M10.326,18.308h3.22v1.872h-3.22V18.308z M14.617,20.18v-1.872h8.054v1.872H14.617z"/>
		</g>
	</g>
	<g>
		<g>
			<rect x="6.005" y="2" opacity="0.8" fill="#FFFFFF" enable-background="new    " width="20.99" height="5.367"/>
		</g>
		<g enable-background="new    ">
			<path fill="#38883B" d="M14.471,4.649c0,0.358-0.058,0.674-0.171,0.945c-0.109,0.271-0.266,0.5-0.459,0.682
				c-0.194,0.183-0.426,0.321-0.696,0.412c-0.27,0.095-0.558,0.141-0.868,0.141c-0.301,0-0.583-0.046-0.851-0.141
				c-0.266-0.091-0.5-0.229-0.698-0.412c-0.199-0.182-0.355-0.41-0.47-0.682c-0.115-0.271-0.171-0.587-0.171-0.945
				c0-0.358,0.06-0.672,0.179-0.944c0.118-0.272,0.277-0.5,0.479-0.686c0.201-0.185,0.434-0.324,0.698-0.416
				c0.265-0.093,0.543-0.14,0.835-0.14c0.301,0,0.585,0.046,0.852,0.14c0.268,0.092,0.5,0.23,0.701,0.416
				c0.197,0.186,0.354,0.414,0.47,0.686C14.413,3.977,14.471,4.292,14.471,4.649z M11.109,4.649c0,0.205,0.027,0.391,0.08,0.555
				c0.053,0.166,0.128,0.307,0.228,0.426c0.1,0.119,0.221,0.21,0.365,0.274c0.144,0.065,0.31,0.098,0.496,0.098
				c0.183,0,0.347-0.033,0.492-0.098c0.148-0.064,0.27-0.155,0.37-0.274c0.099-0.119,0.175-0.26,0.228-0.426
				c0.053-0.164,0.08-0.35,0.08-0.555s-0.027-0.391-0.08-0.558c-0.053-0.167-0.129-0.31-0.228-0.428
				c-0.1-0.119-0.222-0.211-0.37-0.275c-0.146-0.064-0.31-0.097-0.492-0.097c-0.186,0-0.352,0.034-0.496,0.1
				c-0.144,0.067-0.265,0.159-0.365,0.277c-0.1,0.119-0.175,0.262-0.228,0.428C11.136,4.265,11.109,4.449,11.109,4.649z"/>
			<path fill="#38883B" d="M19.152,4.649c0,0.363-0.062,0.678-0.179,0.948c-0.12,0.271-0.288,0.493-0.507,0.67
				c-0.215,0.177-0.48,0.31-0.795,0.399c-0.313,0.088-0.667,0.131-1.057,0.131c-0.175,0-0.383-0.007-0.62-0.022
				c-0.237-0.013-0.47-0.042-0.7-0.087V2.616c0.23-0.04,0.467-0.067,0.715-0.082c0.248-0.014,0.459-0.021,0.638-0.021
				c0.38,0,0.719,0.04,1.028,0.121c0.307,0.08,0.569,0.207,0.791,0.38c0.219,0.173,0.387,0.395,0.507,0.664
				C19.091,3.948,19.152,4.271,19.152,4.649z M16.287,5.978c0.047,0.004,0.099,0.007,0.16,0.009
				c0.063,0.002,0.135,0.002,0.219,0.002c0.496,0,0.864-0.117,1.104-0.355c0.237-0.238,0.357-0.566,0.357-0.984
				c0-0.438-0.113-0.77-0.343-0.995s-0.591-0.338-1.086-0.338c-0.066,0-0.139,0.001-0.208,0.003
				c-0.073,0.003-0.143,0.007-0.204,0.016V5.978z"/>
			<path fill="#38883B" d="M21.18,6.025c0.139,0,0.255-0.011,0.347-0.033c0.091-0.022,0.164-0.051,0.219-0.091
				c0.055-0.036,0.091-0.082,0.112-0.135c0.022-0.052,0.033-0.11,0.033-0.175c0-0.137-0.069-0.251-0.204-0.341
				c-0.135-0.09-0.368-0.188-0.7-0.293c-0.143-0.048-0.288-0.104-0.43-0.166C20.41,4.73,20.283,4.65,20.17,4.557
				c-0.117-0.095-0.208-0.209-0.281-0.345c-0.072-0.135-0.109-0.299-0.109-0.491c0-0.193,0.04-0.367,0.117-0.522
				c0.076-0.155,0.182-0.287,0.32-0.396c0.143-0.109,0.311-0.192,0.511-0.251c0.197-0.058,0.423-0.087,0.675-0.087
				c0.295,0,0.55,0.03,0.766,0.091c0.219,0.06,0.394,0.126,0.535,0.199l-0.287,0.743c-0.121-0.061-0.26-0.114-0.409-0.161
				c-0.149-0.046-0.331-0.069-0.543-0.069c-0.237,0-0.408,0.031-0.511,0.094c-0.105,0.062-0.156,0.158-0.156,0.286
				c0,0.077,0.019,0.141,0.059,0.193c0.036,0.052,0.091,0.099,0.16,0.142c0.069,0.042,0.149,0.08,0.24,0.114
				c0.092,0.035,0.193,0.07,0.303,0.106c0.229,0.081,0.427,0.16,0.598,0.239c0.168,0.078,0.311,0.169,0.424,0.274
				c0.112,0.104,0.196,0.228,0.251,0.368c0.055,0.141,0.08,0.312,0.08,0.513c0,0.391-0.142,0.693-0.43,0.909
				c-0.288,0.215-0.722,0.323-1.302,0.323c-0.197,0-0.372-0.013-0.528-0.035c-0.157-0.022-0.296-0.047-0.416-0.081
				c-0.12-0.033-0.226-0.065-0.313-0.102c-0.084-0.036-0.157-0.071-0.219-0.102l0.28-0.749c0.132,0.067,0.292,0.129,0.485,0.184
				S20.898,6.025,21.18,6.025z"/>
		</g>
	</g>
</g>
</svg>
