<?xml version="1.0" encoding="utf-8"?>
<!-- Generator: Adobe Illustrator 16.0.0, SVG Export Plug-In . SVG Version: 6.00 Build 0)  -->
<!DOCTYPE svg PUBLIC "-//W3C//DTD SVG 1.1//EN" "http://www.w3.org/Graphics/SVG/1.1/DTD/svg11.dtd">
<svg version="1.1" id="图层_1" xmlns="http://www.w3.org/2000/svg" xmlns:xlink="http://www.w3.org/1999/xlink" x="0px" y="0px"
	 width="32px" height="32px" viewBox="0 0 32 32" enable-background="new 0 0 32 32" xml:space="preserve">
<rect x="5.012" y="1" opacity="0.1" enable-background="new    " width="23.976" height="31"/>
<rect x="5.512" y="1.5" opacity="0.1" enable-background="new    " width="22.976" height="30"/>
<rect x="5.012" y="1" opacity="0.2" enable-background="new    " width="22.976" height="30"/>
<rect x="5.512" y="1.5" fill="#1B5E20" width="21.976" height="29"/>
<g>
	
		<linearGradient id="SVGID_1_" gradientUnits="userSpaceOnUse" x1="99.6992" y1="854.8008" x2="99.6992" y2="826.8008" gradientTransform="matrix(1 0 0 1 -83.2002 -824.8008)">
		<stop  offset="0" style="stop-color:#388E3C"/>
		<stop  offset="0.0757" style="stop-color:#43953E"/>
		<stop  offset="0.3246" style="stop-color:#62A943"/>
		<stop  offset="0.5665" style="stop-color:#79B747"/>
		<stop  offset="0.796" style="stop-color:#86C049"/>
		<stop  offset="1" style="stop-color:#8BC34A"/>
	</linearGradient>
	<rect x="6.011" y="2" fill="url(#SVGID_1_)" width="20.979" height="28"/>
	<path opacity="0.8" fill="#FFFFFF" enable-background="new    " d="M17.036,10.893v-0.024h-1.072v0.024H9.033v13.51h14.934v-13.51
		H17.036z M10.107,14.904h3.334v2.158h-3.334V14.904z M10.107,18.139h3.334v2.158h-3.334V18.139z M14.552,18.139h8.341v2.158h-8.341
		V18.139z M14.552,17.063v-2.158h8.341v2.158H14.552z M22.893,11.978v1.855h-8.341v-1.855H22.893z M13.441,11.978v1.855h-3.334
		v-1.855H13.441z M10.107,21.381h3.334v1.938h-3.334V21.381z M14.552,23.319v-1.938h8.341v1.938H14.552z"/>
	<g>
		<rect x="6.006" y="2" opacity="0.8" fill="#FFFFFF" width="20.988" height="5.367"/>
	</g>
	<g>
		<path fill="#388E3C" d="M14.965,4.649c0,0.358-0.055,0.674-0.167,0.945c-0.113,0.271-0.267,0.499-0.46,0.682
			c-0.196,0.184-0.428,0.321-0.696,0.413c-0.27,0.093-0.558,0.14-0.867,0.14c-0.301,0-0.584-0.047-0.852-0.14
			c-0.268-0.092-0.499-0.229-0.698-0.413c-0.2-0.183-0.357-0.41-0.47-0.682c-0.115-0.271-0.172-0.587-0.172-0.945
			c0-0.358,0.059-0.672,0.179-0.944c0.116-0.272,0.277-0.5,0.478-0.686c0.2-0.184,0.434-0.324,0.7-0.416
			c0.265-0.093,0.543-0.14,0.835-0.14c0.301,0,0.583,0.046,0.852,0.14c0.268,0.092,0.499,0.231,0.697,0.416
			c0.201,0.186,0.357,0.414,0.471,0.686C14.908,3.977,14.965,4.292,14.965,4.649z M11.605,4.649c0,0.205,0.027,0.391,0.079,0.556
			c0.055,0.165,0.129,0.306,0.229,0.425c0.099,0.119,0.221,0.21,0.364,0.275c0.145,0.063,0.31,0.097,0.496,0.097
			c0.182,0,0.346-0.033,0.492-0.097c0.146-0.065,0.27-0.156,0.368-0.275c0.101-0.119,0.175-0.26,0.229-0.425
			c0.051-0.165,0.078-0.351,0.078-0.556s-0.027-0.391-0.078-0.558c-0.055-0.167-0.129-0.31-0.229-0.428
			c-0.099-0.119-0.223-0.211-0.368-0.275c-0.146-0.064-0.311-0.097-0.492-0.097c-0.187,0-0.352,0.034-0.496,0.1
			c-0.144,0.067-0.266,0.159-0.364,0.277c-0.101,0.119-0.175,0.262-0.229,0.428C11.633,4.265,11.605,4.449,11.605,4.649z"/>
		<path fill="#388E3C" d="M18.91,2.562v0.803h-1.327v3.38h-0.992v-3.38h-1.327V2.562H18.91z"/>
		<path fill="#388E3C" d="M20.747,6.026c0.139,0,0.256-0.011,0.347-0.033c0.091-0.023,0.164-0.053,0.219-0.091
			c0.055-0.038,0.095-0.083,0.113-0.136c0.021-0.052,0.032-0.11,0.032-0.175c0-0.137-0.065-0.251-0.204-0.341
			c-0.135-0.09-0.368-0.188-0.696-0.293c-0.146-0.048-0.288-0.104-0.434-0.166c-0.143-0.062-0.273-0.142-0.387-0.235
			c-0.113-0.095-0.208-0.209-0.28-0.345c-0.073-0.135-0.106-0.299-0.106-0.491c0-0.193,0.037-0.367,0.113-0.522
			c0.077-0.155,0.187-0.287,0.324-0.396c0.139-0.109,0.311-0.192,0.507-0.251c0.201-0.058,0.423-0.087,0.675-0.087
			c0.295,0,0.555,0.03,0.77,0.091c0.215,0.06,0.394,0.126,0.532,0.199l-0.284,0.743c-0.124-0.061-0.259-0.114-0.412-0.161
			c-0.149-0.046-0.332-0.069-0.543-0.069c-0.237,0-0.405,0.031-0.511,0.094c-0.103,0.062-0.157,0.158-0.157,0.286
			c0,0.077,0.022,0.141,0.059,0.193c0.04,0.052,0.091,0.099,0.164,0.142c0.069,0.042,0.149,0.08,0.24,0.114
			c0.092,0.035,0.19,0.07,0.303,0.106c0.227,0.081,0.427,0.16,0.595,0.239c0.171,0.078,0.31,0.169,0.423,0.274
			c0.113,0.104,0.197,0.228,0.252,0.368c0.055,0.141,0.083,0.312,0.083,0.513c0,0.39-0.146,0.692-0.434,0.908
			c-0.288,0.216-0.722,0.324-1.302,0.324c-0.193,0-0.371-0.012-0.528-0.034c-0.157-0.022-0.295-0.049-0.416-0.082
			c-0.12-0.032-0.222-0.066-0.31-0.103c-0.088-0.035-0.16-0.07-0.219-0.102l0.277-0.748c0.131,0.068,0.295,0.129,0.488,0.184
			C20.233,5.999,20.467,6.026,20.747,6.026z"/>
	</g>
</g>
</svg>
