<?xml version="1.0" encoding="utf-8"?>
<!-- Generator: Adobe Illustrator 16.0.0, SVG Export Plug-In . SVG Version: 6.00 Build 0)  -->
<!DOCTYPE svg PUBLIC "-//W3C//DTD SVG 1.1//EN" "http://www.w3.org/Graphics/SVG/1.1/DTD/svg11.dtd">
<svg version="1.1" id="图层_1" xmlns="http://www.w3.org/2000/svg" xmlns:xlink="http://www.w3.org/1999/xlink" x="0px" y="0px"
	 width="32px" height="32px" viewBox="0 0 32 32" enable-background="new 0 0 32 32" xml:space="preserve">
<polygon opacity="0.08" enable-background="new    " points="5.077,32 5.077,1 28.923,1 28.923,23.249 20.172,32 "/>
<polygon opacity="0.1" enable-background="new    " points="5.577,31.5 5.577,1.5 28.423,1.5 28.423,23.042 19.965,31.5 "/>
<polygon opacity="0.2" enable-background="new    " points="5.077,31 5.077,1 27.923,1 27.923,22.542 19.465,31 "/>
<polygon fill="#3E2723" points="5.512,30.5 5.512,1.5 27.488,1.5 27.488,22.335 19.273,30.5 "/>
<g>
	<g>
		
			<linearGradient id="SVGID_1_" gradientUnits="userSpaceOnUse" x1="58.0996" y1="-133.9004" x2="58.0996" y2="-161.9009" gradientTransform="matrix(1 0 0 -1 -41.6001 -131.9004)">
			<stop  offset="0" style="stop-color:#785548"/>
			<stop  offset="1" style="stop-color:#9F9E9F"/>
		</linearGradient>
		<polygon fill="url(#SVGID_1_)" points="6.011,30 6.011,2 26.99,2 26.99,22.114 19.191,30 		"/>
		<polygon fill="#795548" fill-opacity="0.7" points="26.99,22.125 26.99,21.786 18.686,21.786 18.686,30 19.115,30 		"/>
		<path opacity="0.39" fill="#FFFFFF" enable-background="new    " d="M19.104,22.125l7.887,0.011L19.115,30L19.104,22.125z"/>
	</g>
	<path fill="#FFFFFF" d="M13.508,7.397h-0.711v9.093h-0.536V7.397h-0.707v9.093h-0.536V7.397h-0.708v9.093H9.773V7.397H9.067v9.093
		H8.882v3.852h4.867V16.49h-0.241V7.397z M13.041,19.223H9.587V16.99h3.454V19.223z"/>
	<g>
		<rect x="6.006" y="2" opacity="0.8" fill="#FFFFFF" enable-background="new    " width="20.988" height="5.367"/>
		<g enable-background="new    ">
			<path fill="#5D4037" d="M11.508,5.967v0.808H8.566V2.592h0.992v3.375H11.508z"/>
			<path fill="#5D4037" d="M15.364,3.244c-0.135,0.133-0.298,0.305-0.483,0.517c-0.188,0.211-0.379,0.441-0.578,0.691
				c-0.2,0.249-0.397,0.507-0.59,0.772c-0.197,0.266-0.37,0.52-0.523,0.761h2.245v0.79h-3.462V6.214
				c0.118-0.205,0.262-0.433,0.434-0.685c0.173-0.251,0.352-0.505,0.538-0.761c0.186-0.255,0.375-0.502,0.569-0.742
				s0.372-0.454,0.536-0.643h-1.976V2.592h3.292V3.244z"/>
			<path fill="#5D4037" d="M20.248,4.681c0,0.358-0.057,0.673-0.166,0.945c-0.113,0.271-0.268,0.499-0.463,0.682
				c-0.193,0.183-0.426,0.321-0.695,0.413c-0.268,0.093-0.559,0.14-0.865,0.14c-0.303,0-0.586-0.046-0.854-0.14
				c-0.268-0.092-0.5-0.229-0.699-0.413c-0.198-0.183-0.355-0.41-0.468-0.682c-0.116-0.272-0.173-0.587-0.173-0.945
				c0-0.358,0.061-0.673,0.179-0.944s0.279-0.5,0.48-0.686c0.199-0.185,0.434-0.323,0.699-0.416c0.262-0.093,0.541-0.14,0.836-0.14
				c0.299,0,0.582,0.047,0.848,0.14c0.27,0.092,0.5,0.23,0.701,0.416c0.199,0.186,0.355,0.414,0.471,0.686
				C20.191,4.008,20.248,4.322,20.248,4.681z M16.887,4.681c0,0.205,0.027,0.391,0.08,0.555c0.053,0.166,0.129,0.307,0.23,0.425
				c0.098,0.12,0.219,0.211,0.365,0.275C17.703,6,17.871,6.033,18.059,6.033c0.182,0,0.346-0.033,0.492-0.097
				c0.145-0.064,0.268-0.156,0.367-0.275c0.098-0.118,0.176-0.26,0.229-0.425c0.053-0.164,0.08-0.35,0.08-0.555
				s-0.027-0.391-0.08-0.558c-0.053-0.167-0.131-0.31-0.229-0.428c-0.1-0.119-0.223-0.21-0.367-0.275
				c-0.146-0.063-0.311-0.096-0.492-0.096c-0.188,0-0.355,0.034-0.496,0.1c-0.146,0.066-0.268,0.159-0.365,0.277
				c-0.102,0.12-0.178,0.262-0.23,0.429C16.914,4.296,16.887,4.48,16.887,4.681z"/>
			<path fill="#5D4037" d="M22.396,2.544c0.656,0,1.158,0.11,1.512,0.329c0.352,0.22,0.525,0.579,0.525,1.078
				c0,0.503-0.176,0.866-0.531,1.089c-0.357,0.224-0.865,0.335-1.525,0.335h-0.313v1.4h-0.99V2.653
				c0.217-0.041,0.443-0.068,0.686-0.084C22.002,2.552,22.215,2.544,22.396,2.544z M22.459,3.347c-0.072,0-0.143,0.002-0.213,0.006
				c-0.068,0.003-0.131,0.007-0.182,0.012v1.207h0.313c0.344,0,0.602-0.044,0.773-0.133c0.176-0.088,0.264-0.253,0.264-0.495
				c0-0.117-0.023-0.212-0.07-0.289c-0.043-0.077-0.105-0.139-0.189-0.184c-0.082-0.046-0.182-0.079-0.303-0.097
				C22.734,3.356,22.604,3.347,22.459,3.347z"/>
		</g>
	</g>
</g>
</svg>
