<?xml version="1.0" encoding="utf-8"?>
<!-- Generator: Adobe Illustrator 16.0.0, SVG Export Plug-In . SVG Version: 6.00 Build 0)  -->
<!DOCTYPE svg PUBLIC "-//W3C//DTD SVG 1.1//EN" "http://www.w3.org/Graphics/SVG/1.1/DTD/svg11.dtd">
<svg version="1.1" id="图层_1" xmlns="http://www.w3.org/2000/svg" xmlns:xlink="http://www.w3.org/1999/xlink" x="0px" y="0px"
	 width="32px" height="32px" viewBox="0 0 32 32" enable-background="new 0 0 32 32" xml:space="preserve">
<g id="surface1">
	<polygon opacity="0.08" enable-background="new    " points="4.625,32 4.625,1 28.375,1 28.375,23.258 19.633,32 	"/>
	<polygon opacity="0.1" enable-background="new    " points="5.125,31.5 5.125,1.5 27.875,1.5 27.875,23.051 19.426,31.5 	"/>
	<polygon opacity="0.2" enable-background="new    " points="4.625,31 4.625,1 27.375,1 27.375,22.551 18.926,31 	"/>
	<g>
		
			<linearGradient id="SVGID_1_" gradientUnits="userSpaceOnUse" x1="224.001" y1="-1716.4512" x2="224.001" y2="-1687.4512" gradientTransform="matrix(1 0 0 -1 -208.0005 -1685.9512)">
			<stop  offset="0" style="stop-color:#F57C00"/>
			<stop  offset="0.099" style="stop-color:#F78B0C"/>
			<stop  offset="0.3289" style="stop-color:#FAA823"/>
			<stop  offset="0.5576" style="stop-color:#FDBC33"/>
			<stop  offset="0.7827" style="stop-color:#FEC93D"/>
			<stop  offset="1" style="stop-color:#FFCD40"/>
		</linearGradient>
		<path fill="url(#SVGID_1_)" d="M18.719,30.5l8.156-8.156V1.5H5.125v29H18.719z"/>
		<polygon fill="#EE6F0B" fill-opacity="0.3922" points="18.266,21.891 18.266,30.5 18.719,30.5 26.875,22.344 26.875,21.891 		"/>
		<path fill="#FFFFFF" fill-opacity="0.3922" d="M18.719,22.344h8.149L18.719,30.5V22.344z"/>
		<path opacity="0.8" fill="#FFFFFF" enable-background="new    " d="M16,6.937c-0.492,0-0.906,0.283-1.094,0.681
			c-0.375-0.258-0.896-0.304-1.324-0.069c-0.421,0.229-0.644,0.676-0.602,1.108c-0.457-0.041-0.928,0.174-1.172,0.575
			c-0.244,0.402-0.195,0.897,0.074,1.252c-0.421,0.179-0.715,0.573-0.715,1.039c0,0.467,0.294,0.858,0.715,1.039
			c-0.269,0.356-0.318,0.848-0.074,1.253c0.244,0.402,0.715,0.612,1.172,0.572c-0.042,0.435,0.181,0.879,0.602,1.111
			c0.191,0.104,0.4,0.145,0.605,0.145v4.888L16,18.811l1.813,1.722v-4.888c0.205,0,0.414-0.041,0.605-0.145
			c0.421-0.232,0.645-0.676,0.602-1.111c0.457,0.041,0.928-0.17,1.172-0.572c0.244-0.405,0.195-0.897-0.073-1.253
			c0.421-0.18,0.715-0.572,0.715-1.039c0-0.466-0.294-0.86-0.715-1.039c0.271-0.354,0.317-0.85,0.073-1.252
			c-0.243-0.401-0.715-0.616-1.172-0.575c0.043-0.432-0.181-0.879-0.602-1.108c-0.43-0.235-0.949-0.189-1.324,0.069
			C16.906,7.22,16.492,6.937,16,6.937z M16,8.638c1.668,0,3.02,1.285,3.02,2.868S17.668,14.37,16,14.37
			c-1.667,0-3.02-1.281-3.02-2.864S14.333,8.638,16,8.638z M16,9.442c-1.201,0-2.176,0.923-2.176,2.063
			c0,1.138,0.975,2.063,2.176,2.063c1.2,0,2.176-0.925,2.176-2.063C18.176,10.365,17.2,9.442,16,9.442z"/>
		<g>
			<path fill="#EE6F0B" d="M26.375,2v20.137L18.512,30h-6.137h-6.75V2H26.375 M26.875,1.5H5.125v29h7.25h6.344l8.156-8.156V1.5
				L26.875,1.5z"/>
		</g>
	</g>
</g>
</svg>
