<?xml version="1.0" encoding="utf-8"?>
<!-- Generator: Adobe Illustrator 16.0.0, SVG Export Plug-In . SVG Version: 6.00 Build 0)  -->
<!DOCTYPE svg PUBLIC "-//W3C//DTD SVG 1.1//EN" "http://www.w3.org/Graphics/SVG/1.1/DTD/svg11.dtd">
<svg version="1.1" id="图层_1" xmlns="http://www.w3.org/2000/svg" xmlns:xlink="http://www.w3.org/1999/xlink" x="0px" y="0px"
	 width="32px" height="32px" viewBox="0 0 32 32" enable-background="new 0 0 32 32" xml:space="preserve">
<rect x="1" y="1" opacity="0.08" width="31" height="31"/>
<rect x="1.5" y="1.5" opacity="0.1" width="30" height="30"/>
<rect x="1" y="1" opacity="0.2" width="30" height="30"/>
<rect x="1.5" y="1.5" fill="#455A64" width="29" height="29"/>
<g>
	
		<linearGradient id="SVGID_1_" gradientUnits="userSpaceOnUse" x1="57.5996" y1="-133.9004" x2="57.5996" y2="-161.9009" gradientTransform="matrix(1 0 0 -1 -41.6001 -131.9004)">
		<stop  offset="0" style="stop-color:#90A4AE"/>
		<stop  offset="0.1378" style="stop-color:#849AA5"/>
		<stop  offset="0.4226" style="stop-color:#708A97"/>
		<stop  offset="0.7096" style="stop-color:#64808E"/>
		<stop  offset="1" style="stop-color:#607D8B"/>
	</linearGradient>
	<rect x="2" y="2" fill="url(#SVGID_1_)" width="28" height="28"/>
	<g opacity="0.8">
		
			<rect x="12.915" y="7.585" transform="matrix(-0.7071 0.7071 -0.7071 -0.7071 35.1762 7.2142)" fill="#FFFFFF" width="6.358" height="6.614"/>
		
			<rect x="18.244" y="12.913" transform="matrix(-0.7071 -0.7071 0.7071 -0.7071 24.9711 42.5273)" fill="#FFFFFF" width="6.099" height="6.357"/>
		
			<rect x="7.582" y="12.913" transform="matrix(0.7071 0.7071 -0.7071 0.7071 14.5678 -2.9871)" fill="#FFFFFF" width="6.615" height="6.357"/>
		
			<rect x="12.916" y="18.248" transform="matrix(0.7071 -0.7071 0.7071 0.7071 -10.3455 17.6185)" fill="#FFFFFF" width="6.357" height="6.099"/>
	</g>
</g>
</svg>
