<?xml version="1.0" encoding="utf-8"?>
<!-- Generator: Adobe Illustrator 16.0.0, SVG Export Plug-In . SVG Version: 6.00 Build 0)  -->
<!DOCTYPE svg PUBLIC "-//W3C//DTD SVG 1.1//EN" "http://www.w3.org/Graphics/SVG/1.1/DTD/svg11.dtd">
<svg version="1.1" id="图层_1" xmlns="http://www.w3.org/2000/svg" xmlns:xlink="http://www.w3.org/1999/xlink" x="0px" y="0px"
	 width="32px" height="32px" viewBox="0 0 32 32" enable-background="new 0 0 32 32" xml:space="preserve">
<polygon opacity="0.08" enable-background="new    " points="5.077,32 5.077,1 28.923,1 28.923,23.249 20.172,32 "/>
<polygon opacity="0.1" enable-background="new    " points="5.577,31.5 5.577,1.5 28.423,1.5 28.423,23.042 19.965,31.5 "/>
<polygon opacity="0.2" enable-background="new    " points="5.077,31 5.077,1 27.923,1 27.923,22.542 19.465,31 "/>
<polygon fill="#01579B" points="5.512,30.5 5.512,1.5 27.488,1.5 27.488,22.335 19.273,30.5 "/>
<g>
	<g>
		<g>
			<g>
				
					<linearGradient id="SVGID_1_" gradientUnits="userSpaceOnUse" x1="99.6992" y1="-580.8003" x2="99.6992" y2="-552.8008" gradientTransform="matrix(1 0 0 -1 -83.2002 -550.8008)">
					<stop  offset="0" style="stop-color:#2196F3"/>
					<stop  offset="0.5828" style="stop-color:#3DBAE8"/>
					<stop  offset="1" style="stop-color:#4DD0E1"/>
				</linearGradient>
				<polygon fill="url(#SVGID_1_)" points="6.009,30 6.009,2 26.987,2 26.987,22.125 19.112,30 				"/>
			</g>
			<polygon fill="#01579B" fill-opacity="0.39" points="26.987,22.125 26.987,21.786 18.681,21.786 18.681,30 19.112,30 			"/>
			<path fill="#FFFFFF" fill-opacity="0.3922" d="M19.102,22.125l7.888,0.011L19.112,30L19.102,22.125z"/>
		</g>
		<g>
			<circle opacity="0.8" fill="#FFFFFF" enable-background="new    " cx="20.221" cy="13.259" r="1.482"/>
			<path opacity="0.8" fill="#FFFFFF" enable-background="new    " d="M9.208,10.167v9.566h14.584v-9.566H9.208z M22.74,11.217
				v7.467l0,0l-3.383-2.403l-2.417,1.48l-3.102-3.744l-3.583,4.667v-7.467H22.74z"/>
		</g>
	</g>
	<g>
		<rect x="6.005" y="2" opacity="0.8" fill="#FFFFFF" enable-background="new    " width="20.99" height="5.367"/>
		<g enable-background="new    ">
			<path fill="#0288D1" d="M11.421,2.562h0.99v4.183h-0.99V2.562z"/>
			<path fill="#0288D1" d="M15.435,6.829c-0.716,0-1.261-0.19-1.637-0.568c-0.375-0.378-0.562-0.915-0.562-1.612
				c0-0.345,0.057-0.654,0.171-0.926c0.113-0.271,0.27-0.501,0.47-0.688c0.199-0.187,0.436-0.329,0.711-0.426
				s0.574-0.145,0.897-0.145c0.186,0,0.354,0.014,0.507,0.039c0.153,0.026,0.286,0.057,0.401,0.091
				c0.113,0.034,0.21,0.069,0.284,0.105c0.076,0.036,0.131,0.064,0.166,0.084l-0.286,0.761c-0.135-0.068-0.292-0.127-0.474-0.175
				c-0.178-0.048-0.383-0.073-0.612-0.073c-0.151,0-0.301,0.025-0.447,0.073c-0.147,0.048-0.275,0.126-0.388,0.232
				c-0.113,0.106-0.202,0.245-0.27,0.414c-0.068,0.168-0.102,0.375-0.102,0.615c0,0.193,0.021,0.374,0.067,0.541
				c0.045,0.167,0.117,0.311,0.217,0.432c0.099,0.12,0.229,0.216,0.39,0.286c0.16,0.07,0.355,0.105,0.583,0.105
				c0.146,0,0.273-0.008,0.388-0.024c0.115-0.016,0.217-0.035,0.304-0.057c0.089-0.022,0.168-0.047,0.235-0.076
				c0.067-0.028,0.13-0.055,0.185-0.078l0.273,0.754c-0.139,0.081-0.336,0.153-0.591,0.218C16.062,6.796,15.769,6.829,15.435,6.829z
				"/>
			<path fill="#0288D1" d="M21.577,4.649c0,0.358-0.055,0.674-0.168,0.945s-0.266,0.499-0.459,0.682
				c-0.197,0.184-0.427,0.321-0.696,0.413c-0.27,0.093-0.559,0.14-0.868,0.14c-0.302,0-0.583-0.047-0.853-0.14
				c-0.267-0.092-0.5-0.229-0.697-0.413c-0.2-0.183-0.357-0.41-0.469-0.682c-0.117-0.271-0.174-0.587-0.174-0.945
				c0-0.358,0.061-0.672,0.18-0.944c0.117-0.272,0.277-0.5,0.479-0.686c0.2-0.185,0.434-0.324,0.699-0.416
				c0.263-0.093,0.543-0.14,0.835-0.14c0.3,0,0.583,0.046,0.85,0.14c0.27,0.092,0.499,0.23,0.7,0.416
				c0.2,0.186,0.357,0.414,0.47,0.686C21.519,3.977,21.577,4.292,21.577,4.649z M18.216,4.649c0,0.205,0.028,0.391,0.08,0.555
				c0.055,0.166,0.128,0.307,0.229,0.426c0.099,0.119,0.219,0.21,0.365,0.275c0.142,0.063,0.31,0.097,0.495,0.097
				c0.183,0,0.347-0.033,0.492-0.097c0.146-0.065,0.27-0.156,0.368-0.275c0.099-0.119,0.175-0.26,0.229-0.426
				c0.052-0.164,0.081-0.35,0.081-0.555s-0.029-0.391-0.081-0.558c-0.055-0.167-0.131-0.31-0.229-0.428
				c-0.099-0.119-0.223-0.211-0.368-0.275c-0.146-0.064-0.31-0.097-0.492-0.097c-0.186,0-0.354,0.034-0.495,0.1
				c-0.146,0.067-0.267,0.159-0.365,0.277c-0.102,0.119-0.175,0.262-0.229,0.428C18.244,4.265,18.216,4.449,18.216,4.649z"/>
		</g>
	</g>
</g>
</svg>
