<?xml version="1.0" encoding="utf-8"?>
<!-- Generator: Adobe Illustrator 16.0.0, SVG Export Plug-In . SVG Version: 6.00 Build 0)  -->
<!DOCTYPE svg PUBLIC "-//W3C//DTD SVG 1.1//EN" "http://www.w3.org/Graphics/SVG/1.1/DTD/svg11.dtd">
<svg version="1.1" id="图层_1" xmlns="http://www.w3.org/2000/svg" xmlns:xlink="http://www.w3.org/1999/xlink" x="0px" y="0px"
	 width="32px" height="32px" viewBox="0 0 32 32" enable-background="new 0 0 32 32" xml:space="preserve">
<polygon opacity="0.08" enable-background="new    " points="5.077,32 5.077,1 28.923,1 28.923,23.249 20.172,32 "/>
<polygon opacity="0.1" enable-background="new    " points="5.577,31.5 5.577,1.5 28.423,1.5 28.423,23.042 19.965,31.5 "/>
<polygon opacity="0.2" enable-background="new    " points="5.077,31 5.077,1 27.923,1 27.923,22.542 19.465,31 "/>
<polygon fill="#1B5E20" points="5.512,30.5 5.512,1.5 27.488,1.5 27.488,22.335 19.274,30.5 "/>
<g>
	<g>
		<g>
			
				<linearGradient id="SVGID_1_" gradientUnits="userSpaceOnUse" x1="58.0996" y1="448.9004" x2="58.0996" y2="420.9004" gradientTransform="matrix(1 0 0 1 -41.6001 -418.9004)">
				<stop  offset="0" style="stop-color:#388E3C"/>
				<stop  offset="0.0757" style="stop-color:#43953E"/>
				<stop  offset="0.3246" style="stop-color:#62A943"/>
				<stop  offset="0.5665" style="stop-color:#79B747"/>
				<stop  offset="0.796" style="stop-color:#86C049"/>
				<stop  offset="1" style="stop-color:#8BC34A"/>
			</linearGradient>
			<polygon fill="url(#SVGID_1_)" points="6.011,30 6.011,2 26.989,2 26.989,22.125 19.114,30 			"/>
		</g>
		<polygon fill="#1B5E20" fill-opacity="0.39" points="26.989,22.125 26.989,21.787 18.683,21.787 18.683,30 19.114,30 		"/>
		<path fill="#FFFFFF" fill-opacity="0.3922" d="M19.102,22.125l7.888,0.01L19.114,30L19.102,22.125z"/>
	</g>
	<path opacity="0.8" fill="#FFFFFF" enable-background="new    " d="M17.038,7.157V7.133h-1.074v0.023H9.033v13.509h14.933V7.157
		H17.038z M10.107,11.169h3.335v2.158h-3.335V11.169z M10.107,14.401h3.335v2.16h-3.335V14.401z M14.551,14.401h8.343v2.16h-8.343
		V14.401z M14.551,13.328v-2.158h8.343v2.158H14.551z M22.894,8.242v1.856h-8.343V8.242H22.894z M13.442,8.242v1.856h-3.335V8.242
		H13.442z M10.107,17.645h3.335v1.938h-3.335V17.645z M14.551,19.582v-1.938h8.343v1.938H14.551z"/>
</g>
</svg>
