<?xml version="1.0" encoding="utf-8"?>
<!-- Generator: Adobe Illustrator 16.0.0, SVG Export Plug-In . SVG Version: 6.00 Build 0)  -->
<!DOCTYPE svg PUBLIC "-//W3C//DTD SVG 1.1//EN" "http://www.w3.org/Graphics/SVG/1.1/DTD/svg11.dtd">
<svg version="1.1" id="图层_1" xmlns="http://www.w3.org/2000/svg" xmlns:xlink="http://www.w3.org/1999/xlink" x="0px" y="0px"
	 width="32px" height="32px" viewBox="0 0 32 32" enable-background="new 0 0 32 32" xml:space="preserve">
<polygon opacity="0.08" enable-background="new    " points="5.077,32 5.077,1 28.923,1 28.923,23.249 20.172,32 "/>
<polygon opacity="0.1" enable-background="new    " points="5.577,31.5 5.577,1.5 28.423,1.5 28.423,23.042 19.965,31.5 "/>
<polygon opacity="0.2" enable-background="new    " points="5.077,31 5.077,1 27.923,1 27.923,22.542 19.465,31 "/>
<polygon fill="#455A64" points="5.512,30.5 5.512,1.5 27.488,1.5 27.488,22.335 19.273,30.5 "/>
<g>
	<g>
		<g>
			
				<linearGradient id="SVGID_1_" gradientUnits="userSpaceOnUse" x1="58.1006" y1="420.8994" x2="58.1006" y2="448.9004" gradientTransform="matrix(1 0 0 1 -41.6001 -418.9004)">
				<stop  offset="0" style="stop-color:#90A4AE"/>
				<stop  offset="0.1378" style="stop-color:#849AA5"/>
				<stop  offset="0.4226" style="stop-color:#708A97"/>
				<stop  offset="0.7096" style="stop-color:#64808E"/>
				<stop  offset="1" style="stop-color:#607D8B"/>
			</linearGradient>
			<polygon fill="url(#SVGID_1_)" points="6.011,30 6.011,2 26.988,2 26.988,22.125 19.113,30 			"/>
		</g>
		<polygon fill="#455A64" fill-opacity="0.39" points="26.988,22.125 26.988,21.786 18.682,21.786 18.682,30 19.113,30 		"/>
		<path fill="#FFFFFF" fill-opacity="0.39" d="M19.102,22.125l7.887,0.011L19.113,30L19.102,22.125z"/>
	</g>
	<g opacity="0.8">
		<g>
			<path fill="#FFFFFF" d="M16.5,7.728c3.407,0,6.172,2.765,6.172,6.172c0,3.407-2.766,6.173-6.172,6.173
				c-3.406,0-6.172-2.767-6.172-6.173C10.328,10.493,13.093,7.728,16.5,7.728 M16.5,7.075c-3.769,0-6.826,3.058-6.826,6.825
				c0,3.768,3.057,6.826,6.826,6.826c3.768,0,6.825-3.058,6.825-6.826C23.324,10.132,20.268,7.075,16.5,7.075L16.5,7.075z"/>
		</g>
		<g>
			<path fill="#FFFFFF" d="M16.5,12.627c0.7,0,1.272,0.572,1.272,1.272s-0.572,1.272-1.272,1.272c-0.701,0-1.272-0.572-1.272-1.272
				S15.799,12.627,16.5,12.627 M16.5,11.975c-1.062,0-1.925,0.864-1.925,1.925c0,1.061,0.863,1.925,1.925,1.925
				c1.063,0,1.924-0.864,1.924-1.925C18.424,12.839,17.563,11.975,16.5,11.975L16.5,11.975z"/>
		</g>
	</g>
</g>
</svg>
