<?xml version="1.0" encoding="utf-8"?>
<!-- Generator: Adobe Illustrator 21.0.0, SVG Export Plug-In . SVG Version: 6.00 Build 0)  -->
<svg version="1.1" id="图层_1" xmlns="http://www.w3.org/2000/svg" xmlns:xlink="http://www.w3.org/1999/xlink" x="0px" y="0px"
	 viewBox="0 0 32 32" style="enable-background:new 0 0 32 32;" xml:space="preserve">
<style type="text/css">
	.st0{opacity:0.08;enable-background:new    ;}
	.st1{opacity:0.1;enable-background:new    ;}
	.st2{opacity:0.2;enable-background:new    ;}
	.st3{fill:#5F7B89;}
	.st4{fill:url(#SVGID_1_);}
	.st5{fill:#455963;fill-opacity:0.7;}
	.st6{fill:#8DA1AC;}
	.st7{fill:#607D8B;}
</style>
<title>application-octet-stream</title>
<polygon class="st0" points="5.1,32 5.1,1 28.9,1 28.9,23.3 20.2,32 "/>
<polygon class="st1" points="5.6,31.5 5.6,1.5 28.4,1.5 28.4,23 20,31.5 "/>
<polygon class="st2" points="5.1,31 5.1,1 27.9,1 27.9,22.5 19.5,31 "/>
<polygon class="st3" points="5.6,30.5 5.6,1.5 27.4,1.5 27.4,22.3 19.3,30.5 "/>
<linearGradient id="SVGID_1_" gradientUnits="userSpaceOnUse" x1="99.7" y1="2102.8" x2="99.7" y2="2130.8" gradientTransform="matrix(1 0 0 1 -83.2 -2100.8)">
	<stop  offset="0" style="stop-color:#F6F5F5"/>
	<stop  offset="0.34" style="stop-color:#F1F2F3"/>
	<stop  offset="0.64" style="stop-color:#E7EAEB"/>
	<stop  offset="0.93" style="stop-color:#D5DBDF"/>
	<stop  offset="1" style="stop-color:#CFD7DB"/>
</linearGradient>
<polygon class="st4" points="6,30 6,2 27,2 27,22.1 19.1,30 "/>
<polygon class="st5" points="27,22.1 27,21.8 18.7,21.8 18.7,30 19.1,30 "/>
<path class="st6" d="M19.1,22.1H27L19.1,30V22.1z"/>
<g>
	<path class="st7" d="M9,6.8c0.2-0.1,0.4-0.2,0.6-0.3C9.8,6.4,10,6.2,10.1,6h0.4v4H10V6.7L9.8,6.9L9.6,7L9.4,7.1L9.2,7.2L9,6.8z"/>
</g>
<g>
	<path class="st7" d="M9,11.9c0.2-0.1,0.4-0.2,0.6-0.3c0.2-0.1,0.4-0.3,0.5-0.5h0.4v3.8H10v-3.1l-0.2,0.1L9.6,12l-0.2,0.1l-0.2,0.1
		L9,11.9z"/>
	<path class="st7" d="M11.9,13c0-0.5,0.1-1,0.3-1.5c0.3-0.5,1-0.7,1.5-0.3c0.1,0.1,0.3,0.2,0.3,0.3c0.2,0.5,0.4,1,0.3,1.5
		c0,0.5-0.1,1-0.3,1.5c-0.3,0.5-1,0.7-1.5,0.3c-0.1-0.1-0.3-0.2-0.3-0.3C12,14,11.9,13.5,11.9,13z M13.9,13c0-0.2,0-0.4,0-0.6
		c0-0.2-0.1-0.3-0.1-0.5c0-0.1-0.1-0.2-0.2-0.3c-0.2-0.2-0.5-0.2-0.7,0c-0.1,0.1-0.2,0.2-0.2,0.3c-0.1,0.2-0.1,0.3-0.1,0.5
		c0,0.4,0,0.8,0,1.2c0,0.2,0.1,0.3,0.1,0.5c0,0.1,0.1,0.2,0.2,0.3c0.2,0.2,0.5,0.2,0.7,0c0.1-0.1,0.2-0.2,0.2-0.3
		c0.1-0.2,0.1-0.3,0.1-0.5S13.9,13.2,13.9,13L13.9,13z"/>
</g>
<g>
	<path class="st7" d="M9,16.9c0.2-0.1,0.4-0.2,0.6-0.3c0.2-0.1,0.4-0.3,0.6-0.5h0.4v3.8H10v-3.1l-0.2,0.1L9.6,17l-0.2,0.1l-0.3,0.1
		L9,16.9z"/>
	<path class="st7" d="M12,18c0-0.5,0.1-1,0.4-1.5c0.4-0.5,1.1-0.7,1.6-0.3c0.1,0.1,0.2,0.2,0.3,0.3c0.2,0.5,0.4,1,0.3,1.5
		c0,0.5-0.1,1-0.4,1.5c-0.4,0.5-1.1,0.7-1.6,0.3c-0.1-0.1-0.2-0.2-0.3-0.3C12.1,19,12,18.5,12,18z M14,18c0-0.2,0-0.4,0-0.6
		s-0.1-0.3-0.1-0.5c-0.1-0.1-0.1-0.2-0.2-0.3c-0.2-0.2-0.5-0.2-0.7,0c-0.1,0.1-0.2,0.2-0.2,0.3c-0.1,0.2-0.1,0.3-0.1,0.5
		c0,0.4,0,0.8,0,1.2c0,0.2,0.1,0.3,0.1,0.5c0.1,0.1,0.1,0.2,0.2,0.3c0.2,0.2,0.5,0.2,0.7,0c0.1-0.1,0.2-0.2,0.2-0.3
		c0.1-0.2,0.1-0.3,0.1-0.5S14,18.2,14,18z"/>
	<path class="st7" d="M15.4,16.9c0.2-0.1,0.4-0.2,0.6-0.3c0.2-0.1,0.4-0.3,0.6-0.5H17v3.8h-0.5v-3.1l-0.2,0.1L16.1,17l-0.2,0.1
		l-0.3,0.1L15.4,16.9z"/>
</g>
</svg>
