<?xml version="1.0" encoding="utf-8"?>
<!-- Generator: Adobe Illustrator 21.0.0, SVG Export Plug-In . SVG Version: 6.00 Build 0)  -->
<svg version="1.1" id="图层_1" xmlns="http://www.w3.org/2000/svg" xmlns:xlink="http://www.w3.org/1999/xlink" x="0px" y="0px"
	 viewBox="0 0 32 32" style="enable-background:new 0 0 32 32;" xml:space="preserve">
<style type="text/css">
	.st0{opacity:0.08;enable-background:new    ;}
	.st1{opacity:0.1;enable-background:new    ;}
	.st2{opacity:0.2;enable-background:new    ;}
	.st3{fill:#5F7B89;}
	.st4{fill:url(#SVGID_1_);}
	.st5{fill:#455963;fill-opacity:0.7;}
	.st6{fill:#8DA1AC;}
	.st7{fill:#607D8B;}
</style>
<title>application-script-blank</title>
<polygon class="st0" points="5.1,32 5.1,1 28.9,1 28.9,23.3 20.2,32 "/>
<polygon class="st1" points="5.6,31.5 5.6,1.5 28.4,1.5 28.4,23 20,31.5 "/>
<polygon class="st2" points="5.1,31 5.1,1 27.9,1 27.9,22.5 19.5,31 "/>
<polygon class="st3" points="5.6,30.5 5.6,1.5 27.4,1.5 27.4,22.3 19.3,30.5 "/>
<linearGradient id="SVGID_1_" gradientUnits="userSpaceOnUse" x1="99.7" y1="2102.8" x2="99.7" y2="2130.8" gradientTransform="matrix(1 0 0 1 -83.2 -2100.8)">
	<stop  offset="0" style="stop-color:#F6F5F5"/>
	<stop  offset="0.34" style="stop-color:#F1F2F3"/>
	<stop  offset="0.64" style="stop-color:#E7EAEB"/>
	<stop  offset="0.93" style="stop-color:#D5DBDF"/>
	<stop  offset="1" style="stop-color:#CFD7DB"/>
</linearGradient>
<polygon class="st4" points="6,30 6,2 27,2 27,22.1 19.1,30 "/>
<polygon class="st5" points="27,22.1 27,21.8 18.7,21.8 18.7,30 19.1,30 "/>
<path class="st6" d="M19.1,22.1H27L19.1,30V22.1z"/>
<g>
	<path class="st7" d="M12,13.1c0.1,0,0.2,0,0.4-0.1c0.1-0.1,0.2-0.2,0.2-0.3c0.1-0.1,0.1-0.2,0.1-0.4c0-0.1,0-0.3,0-0.4v-2
		c0-0.3,0-0.6,0.1-0.8c0-0.2,0.1-0.4,0.3-0.6c0.1-0.2,0.3-0.3,0.5-0.4c0.2,0,0.5-0.1,0.8-0.1l0,0v0.8c-0.3,0-0.5,0.1-0.7,0.2
		c-0.2,0.3-0.2,0.6-0.2,0.9v1.8c0,0.4,0,0.8-0.1,1.2c-0.1,0.2-0.2,0.5-0.4,0.6c0.2,0.2,0.3,0.4,0.4,0.6c0.1,0.4,0.2,0.8,0.1,1.2V17
		c0,0.3,0,0.6,0.2,0.9c0.2,0.2,0.4,0.3,0.7,0.2V19l0,0c-0.3,0-0.5,0-0.8-0.1c-0.2-0.1-0.4-0.2-0.5-0.4c-0.1-0.2-0.2-0.4-0.3-0.6
		c-0.1-0.3-0.1-0.6-0.1-0.8V15c0-0.1,0-0.3,0-0.4c0-0.1-0.1-0.2-0.1-0.4c-0.1-0.1-0.1-0.2-0.2-0.3c-0.1-0.1-0.2-0.1-0.4-0.1L12,13.1
		z"/>
	<path class="st7" d="M21,13.9c-0.1,0-0.2,0-0.4,0.1c-0.1,0.1-0.2,0.2-0.2,0.3c-0.1,0.1-0.1,0.2-0.1,0.4c0,0.1,0,0.3,0,0.4v2
		c0,0.3,0,0.6-0.1,0.8c0,0.2-0.1,0.4-0.3,0.6c-0.1,0.2-0.3,0.3-0.5,0.4S18.9,19,18.6,19l0,0v-0.8c0.3,0,0.5-0.1,0.7-0.2
		c0.2-0.3,0.2-0.6,0.2-0.9v-1.7c0-0.4,0-0.8,0.1-1.2c0-0.2,0.1-0.5,0.3-0.6c-0.2-0.2-0.3-0.4-0.4-0.6c-0.1-0.4-0.2-0.8-0.1-1.2V10
		c0-0.3,0-0.6-0.2-0.9c-0.2-0.2-0.4-0.3-0.7-0.2V8l0,0c0.3,0,0.5,0,0.8,0.1c0.2,0.1,0.4,0.2,0.5,0.4s0.2,0.4,0.3,0.6
		c0.1,0.3,0.1,0.6,0.1,0.8v2c0,0.1,0,0.3,0,0.4c0,0.1,0.1,0.2,0.1,0.4c0.1,0.1,0.1,0.2,0.2,0.3s0.2,0.1,0.4,0.1L21,13.9z"/>
</g>
</svg>
