<?xml version="1.0" encoding="utf-8"?>
<!-- Generator: Adobe Illustrator 16.0.0, SVG Export Plug-In . SVG Version: 6.00 Build 0)  -->
<!DOCTYPE svg PUBLIC "-//W3C//DTD SVG 1.1//EN" "http://www.w3.org/Graphics/SVG/1.1/DTD/svg11.dtd">
<svg version="1.1" id="图层_1" xmlns="http://www.w3.org/2000/svg" xmlns:xlink="http://www.w3.org/1999/xlink" x="0px" y="0px"
	 width="32px" height="32px" viewBox="0 0 32 32" enable-background="new 0 0 32 32" xml:space="preserve">
<g id="surface1">
	<polygon opacity="0.08" enable-background="new    " points="4.625,32 4.625,1 28.375,1 28.375,23.258 19.633,32 	"/>
	<polygon opacity="0.1" enable-background="new    " points="5.125,31.5 5.125,1.5 27.875,1.5 27.875,23.051 19.426,31.5 	"/>
	<polygon opacity="0.2" enable-background="new    " points="4.625,31 4.625,1 27.375,1 27.375,22.551 18.926,31 	"/>
	
		<linearGradient id="SVGID_1_" gradientUnits="userSpaceOnUse" x1="182.4004" y1="1584.4609" x2="182.4004" y2="1555.4609" gradientTransform="matrix(1 0 0 1 -166.4004 -1553.9609)">
		<stop  offset="0" style="stop-color:#512DA8"/>
		<stop  offset="0.008" style="stop-color:#D32F2F"/>
		<stop  offset="0.0898" style="stop-color:#DA352D"/>
		<stop  offset="0.3994" style="stop-color:#EE4827"/>
		<stop  offset="0.705" style="stop-color:#FB5323"/>
		<stop  offset="1" style="stop-color:#FF5722"/>
	</linearGradient>
	<path fill="url(#SVGID_1_)" d="M18.719,30.5l8.156-8.156V1.5H5.125v29H18.719z"/>
	<polygon fill="#B71C1C" fill-opacity="0.3922" points="18.266,21.891 18.266,30.5 18.719,30.5 26.875,22.344 26.875,21.891 	"/>
	<path fill="#FFFFFF" fill-opacity="0.3922" d="M18.719,22.344h8.149L18.719,30.5V22.344z"/>
	<path opacity="0.8" fill="#FFFFFF" d="M10.286,17.588l0.317,2.427c0,0,4.177,1.318,6.274-4.666h3.653v-2.673h-2.276
		c0,0,1.062-2.786,3.415-3.023c0-0.059-0.255-2.31-0.255-2.31s-3.877-0.534-6.234,5.213C13.146,18.181,10.286,17.588,10.286,17.588z
		"/>
	<g>
		<path fill="#B71C1C" d="M26.375,2v20.137L18.512,30h-6.137h-6.75V2H26.375 M26.875,1.5H5.125v29h7.25h6.344l8.156-8.156V1.5
			L26.875,1.5z"/>
	</g>
</g>
</svg>
