<?xml version="1.0" encoding="utf-8"?>
<!-- Generator: Adobe Illustrator 21.0.0, SVG Export Plug-In . SVG Version: 6.00 Build 0)  -->
<svg version="1.1" id="图层_1" xmlns="http://www.w3.org/2000/svg" xmlns:xlink="http://www.w3.org/1999/xlink" x="0px" y="0px"
	 viewBox="0 0 32 32" style="enable-background:new 0 0 32 32;" xml:space="preserve">
<style type="text/css">
	.st0{opacity:0.08;enable-background:new    ;}
	.st1{opacity:0.2;enable-background:new    ;}
	.st2{opacity:0.1;enable-background:new    ;}
	.st3{fill:#EE6F0B;}
	.st4{fill:url(#SVGID_1_);}
	.st5{fill:#EE6F0B;fill-opacity:0.39;}
	.st6{fill:#FFFFFF;fill-opacity:0.39;}
	.st7{opacity:0.8;}
	.st8{fill:#FFFFFF;}
</style>
<title>application-x-jar</title>
<polygon class="st0" points="4.5,32 4.5,1 28.5,1 28.5,23.1 19.6,32 "/>
<polygon class="st1" points="5,31 5,1 28,1 28,22.4 19.4,31 "/>
<polygon class="st2" points="5,31.5 5,1.5 28,1.5 28,22.9 19.4,31.5 "/>
<polygon class="st3" points="5.5,30.5 5.5,1.5 27.5,1.5 27.5,22.2 19.2,30.5 "/>
<linearGradient id="SVGID_1_" gradientUnits="userSpaceOnUse" x1="58.1" y1="2526.8999" x2="58.1" y2="2554.8999" gradientTransform="matrix(1 0 0 1 -41.6 -2524.8999)">
	<stop  offset="0" style="stop-color:#FFCD40"/>
	<stop  offset="0.22" style="stop-color:#FEC93D"/>
	<stop  offset="0.44" style="stop-color:#FDBC33"/>
	<stop  offset="0.67" style="stop-color:#FAA823"/>
	<stop  offset="0.9" style="stop-color:#F78B0C"/>
	<stop  offset="1" style="stop-color:#F57C00"/>
</linearGradient>
<polygon class="st4" points="6,30 6,2 27,2 27,22 19,30 "/>
<polygon class="st5" points="27,22 27,21.6 18.6,21.6 18.6,30 19,30 "/>
<path class="st6" d="M19,22h8l-8,8V22z"/>
<g class="st7">
	<path class="st8" d="M14.5,17.6c0,0-0.6,0.3,0.4,0.5c1,0.1,2.1,0.1,3.1-0.1c0.3,0.2,0.5,0.3,0.8,0.4C15.9,19.6,12.2,18.3,14.5,17.6
		"/>
	<path class="st8" d="M14.2,16c0,0-0.6,0.5,0.3,0.6c1.3,0.2,2.7,0.1,4-0.2c0.2,0.2,0.4,0.3,0.6,0.4C15.6,17.8,11.7,16.8,14.2,16"/>
	<path class="st8" d="M17.2,13.2c0.4,0.5,0.3,1.2-0.1,1.5c0,0,0,0-0.1,0c0,0,1.8-1,1-2.1S16.6,11,19.9,9
		C19.9,9.1,14.8,10.4,17.2,13.2"/>
	<path class="st8" d="M21,18.8c0,0,0.4,0.4-0.5,0.6c-1.7,0.5-7,0.7-8.5,0c-0.5-0.2,0.5-0.6,0.8-0.6c0.2,0,0.3-0.1,0.5-0.1
		c-0.6-0.4-3.8,0.8-1.6,1.2C17.8,20.9,22.6,19.5,21,18.8"/>
	<path class="st8" d="M14.8,14.3c0,0-2.7,0.6-1,0.9c1.2,0.1,2.4,0.1,3.6,0c1.1-0.1,2.3-0.3,2.3-0.3c-0.2,0.1-0.5,0.2-0.7,0.4
		c-2.8,0.7-8.1,0.4-6.5-0.4C13.2,14.5,14,14.3,14.8,14.3"/>
	<path class="st8" d="M19.7,17c2.8-1.5,1.5-2.9,0.6-2.7c-0.1,0-0.2,0-0.3,0.1c0.1-0.1,0.1-0.2,0.2-0.2C22,13.6,23.4,16.1,19.7,17
		C19.6,17,19.7,17,19.7,17"/>
	<path class="st8" d="M18,6c0,0,1.5,1.6-1.5,4c-2.4,1.9-0.6,3,0,4.3c-1.4-1.3-2.4-2.4-1.8-3.5C15.8,9.2,18.6,8.5,18,6"/>
	<path class="st8" d="M15.1,21c2.7,0.2,6.8-0.1,6.9-1.4c0,0-0.2,0.5-2.2,0.9c-2.2,0.4-4.5,0.4-6.8,0.1C13,20.6,13.3,20.9,15.1,21"/>
</g>
</svg>
