<?xml version="1.0" encoding="utf-8"?>
<!-- Generator: Adobe Illustrator 21.0.0, SVG Export Plug-In . SVG Version: 6.00 Build 0)  -->
<svg version="1.1" id="图层_1" xmlns="http://www.w3.org/2000/svg" xmlns:xlink="http://www.w3.org/1999/xlink" x="0px" y="0px"
	 viewBox="0 0 32 32" style="enable-background:new 0 0 32 32;" xml:space="preserve">
<style type="text/css">
	.st0{opacity:0.08;enable-background:new    ;}
	.st1{opacity:0.2;enable-background:new    ;}
	.st2{opacity:0.1;enable-background:new    ;}
	.st3{fill:#B71C1C;}
	.st4{fill:url(#SVGID_1_);}
	.st5{fill:#B71C1C;fill-opacity:0.39;}
	.st6{fill:#FFFFFF;fill-opacity:0.39;}
	.st7{opacity:0.8;fill:#FFFFFF;enable-background:new    ;}
</style>
<title>application-flash</title>
<polygon class="st0" points="4.5,32 4.5,1 28.5,1 28.5,23.1 19.6,32 "/>
<polygon class="st1" points="5,31 5,1 28,1 28,22.4 19.4,31 "/>
<polygon class="st2" points="5,31.5 5,1.5 28,1.5 28,22.9 19.4,31.5 "/>
<polygon class="st3" points="5.5,30.5 5.5,1.5 27.5,1.5 27.5,22.2 19.2,30.5 "/>
<linearGradient id="SVGID_1_" gradientUnits="userSpaceOnUse" x1="16.5" y1="788" x2="16.5" y2="760" gradientTransform="matrix(1 0 0 1 0 -758)">
	<stop  offset="0" style="stop-color:#512DA8"/>
	<stop  offset="0.01" style="stop-color:#D32F2F"/>
	<stop  offset="0.09" style="stop-color:#DA352D"/>
	<stop  offset="0.4" style="stop-color:#EE4827"/>
	<stop  offset="0.7" style="stop-color:#FB5323"/>
	<stop  offset="1" style="stop-color:#FF5722"/>
</linearGradient>
<polygon class="st4" points="6,30 6,2 27,2 27,22 19,30 "/>
<polygon class="st5" points="27,22 27,21.6 18.6,21.6 18.6,30 19,30 "/>
<path class="st6" d="M19,22h8l-8,8V22z"/>
<path class="st7" d="M10,17.2l0.4,2.6c0,0,4.8,1.4,7.2-5.1h4.2v-2.9h-2.6c0,0,1.2-3,3.9-3.3C23,8.5,22.7,6,22.7,6s-4.4-0.6-7.1,5.7
	C13.3,17.9,10,17.2,10,17.2z"/>
</svg>
