<?xml version="1.0" encoding="utf-8"?>
<!-- Generator: Adobe Illustrator 16.0.0, SVG Export Plug-In . SVG Version: 6.00 Build 0)  -->
<!DOCTYPE svg PUBLIC "-//W3C//DTD SVG 1.1//EN" "http://www.w3.org/Graphics/SVG/1.1/DTD/svg11.dtd">
<svg version="1.1" id="图层_1" xmlns="http://www.w3.org/2000/svg" xmlns:xlink="http://www.w3.org/1999/xlink" x="0px" y="0px"
	 width="32px" height="32px" viewBox="0 0 32 32" enable-background="new 0 0 32 32" xml:space="preserve">
<g id="surface1">
	<polygon opacity="0.08" enable-background="new    " points="4.625,32 4.625,1 28.375,1 28.375,23.258 19.633,32 	"/>
	<polygon opacity="0.1" enable-background="new    " points="5.125,31.5 5.125,1.5 27.875,1.5 27.875,23.051 19.426,31.5 	"/>
	<polygon opacity="0.2" enable-background="new    " points="4.625,31 4.625,1 27.375,1 27.375,22.551 18.926,31 	"/>
</g>
<linearGradient id="SVGID_1_" gradientUnits="userSpaceOnUse" x1="182.4004" y1="1584.4609" x2="182.4004" y2="1555.4609" gradientTransform="matrix(1 0 0 1 -166.4004 -1553.9609)">
	<stop  offset="0" style="stop-color:#FF5722"/>
	<stop  offset="0.2433" style="stop-color:#FF5B20"/>
	<stop  offset="0.4954" style="stop-color:#FF6819"/>
	<stop  offset="0.7506" style="stop-color:#FF7C0F"/>
	<stop  offset="1" style="stop-color:#FF9800"/>
</linearGradient>
<path fill="url(#SVGID_1_)" d="M18.719,30.5l8.156-8.156V1.5H5.125v29H18.719z"/>
<polygon fill="#BF360C" fill-opacity="0.3922" points="18.266,21.891 18.266,30.5 18.719,30.5 26.875,22.344 26.875,21.891 "/>
<path fill="#FFFFFF" fill-opacity="0.3922" d="M18.719,22.344h8.149L18.719,30.5V22.344z"/>
<path opacity="0.8" fill="#FFFFFF" d="M9.202,18.685c0-0.392,0.135-0.719,0.405-0.982c0.268-0.268,0.595-0.403,0.984-0.403
	c0.38,0,0.703,0.136,0.966,0.403c0.269,0.264,0.402,0.591,0.402,0.982c0,0.379-0.133,0.701-0.402,0.974
	c-0.264,0.264-0.586,0.393-0.966,0.393c-0.39,0-0.717-0.129-0.984-0.393C9.337,19.395,9.202,19.066,9.202,18.685 M9.121,12.429
	v2.304c2.943,0,5.336,2.394,5.336,5.344h2.312C16.77,15.853,13.339,12.429,9.121,12.429z M9.125,7.39v2.546
	c5.589,0,10.125,4.545,10.125,10.139h2.559C21.809,13.068,16.123,7.39,9.125,7.39z"/>
<g>
	<path fill="#BF360C" d="M26.375,2v20.137L18.512,30h-6.137h-6.75V2H26.375 M26.875,1.5H5.125v29h7.25h6.344l8.156-8.156V1.5
		L26.875,1.5z"/>
</g>
</svg>
