<?xml version="1.0" encoding="utf-8"?>
<!-- Generator: Adobe Illustrator 16.0.0, SVG Export Plug-In . SVG Version: 6.00 Build 0)  -->
<!DOCTYPE svg PUBLIC "-//W3C//DTD SVG 1.1//EN" "http://www.w3.org/Graphics/SVG/1.1/DTD/svg11.dtd">
<svg version="1.1" id="图层_1" xmlns="http://www.w3.org/2000/svg" xmlns:xlink="http://www.w3.org/1999/xlink" x="0px" y="0px"
	 width="32px" height="32px" viewBox="0 0 32 32" enable-background="new 0 0 32 32" xml:space="preserve">
<polygon opacity="0.08" enable-background="new    " points="5.077,32 5.077,1 28.923,1 28.923,23.249 20.172,32 "/>
<polygon opacity="0.1" enable-background="new    " points="5.577,31.5 5.577,1.5 28.423,1.5 28.423,23.042 19.965,31.5 "/>
<polygon opacity="0.2" enable-background="new    " points="5.077,31 5.077,1 27.923,1 27.923,22.542 19.465,31 "/>
<polygon fill="#455A64" points="5.512,30.5 5.512,1.5 27.488,1.5 27.488,22.335 19.274,30.5 "/>
<g>
	<g>
		<g>
			
				<linearGradient id="SVGID_1_" gradientUnits="userSpaceOnUse" x1="58.0996" y1="-133.9004" x2="58.0996" y2="-161.9009" gradientTransform="matrix(1 0 0 -1 -41.6001 -131.9004)">
				<stop  offset="0" style="stop-color:#90A4AE"/>
				<stop  offset="0.1378" style="stop-color:#849AA5"/>
				<stop  offset="0.4226" style="stop-color:#708A97"/>
				<stop  offset="0.7096" style="stop-color:#64808E"/>
				<stop  offset="1" style="stop-color:#607D8B"/>
			</linearGradient>
			<polygon fill="url(#SVGID_1_)" points="6.011,30 6.011,2 26.989,2 26.989,22.125 19.114,30 			"/>
		</g>
		<polygon fill="#455A64" fill-opacity="0.39" points="26.989,22.125 26.989,21.786 18.683,21.786 18.683,30 19.114,30 		"/>
		<path fill="#FFFFFF" fill-opacity="0.39" d="M19.102,22.125l7.888,0.011L19.114,30L19.102,22.125z"/>
	</g>
	<path opacity="0.8" fill="#FFFFFF" enable-background="new    " d="M21.398,16.502c0.013-0.035,0.036-0.059,0.05-0.094
		c0.023-0.058,0.057-0.117,0.08-0.175c0,0,0-0.01,0.011-0.01c0.151-0.316,0.258-0.655,0.352-0.992h1.317v-2.648h-1.317
		c-0.141-0.549-0.352-1.074-0.644-1.541l0.936-0.934L20.305,8.23L19.37,9.164c-0.479-0.292-1.003-0.514-1.576-0.654h0.014V7.191
		h-2.649V8.51h0.01c-0.557,0.14-1.096,0.363-1.576,0.654L12.66,8.23l-1.842,1.877l0.933,0.934c-0.28,0.467-0.502,0.992-0.641,1.541
		H9.791v2.648h1.319c0.139,0.547,0.35,1.072,0.641,1.551l0,0l-0.933,0.936l1.878,1.875l0.933-0.932
		c0.478,0.291,1.002,0.514,1.552,0.641v1.319h2.649v-1.319l0,0l0,0c0.56-0.139,1.072-0.35,1.549-0.641l0.936,0.932l1.877-1.875
		l-0.935-0.936l0,0c0.036-0.057,0.06-0.104,0.097-0.164C21.364,16.584,21.388,16.549,21.398,16.502z M16.5,18.135
		c-2.345,0-4.236-1.902-4.236-4.235c0-2.333,1.902-4.234,4.236-4.234c0.466,0,0.911,0.069,1.331,0.209l0,0
		c1.689,0.56,2.903,2.147,2.903,4.025c0,0.117,0,0.233-0.011,0.339v0.011c-0.023,0.339-0.094,0.666-0.2,0.98
		c0,0.011-0.011,0.011-0.011,0.022c-0.07,0.199-0.15,0.397-0.244,0.572c0,0.011-0.014,0.024-0.014,0.035
		c-0.047,0.093-0.091,0.175-0.15,0.268c0,0.013-0.014,0.013-0.014,0.023c-0.057,0.082-0.102,0.164-0.161,0.246l-0.013,0.011
		c-0.058,0.082-0.117,0.164-0.186,0.234c-0.01,0.01-0.023,0.023-0.033,0.035c-0.131,0.15-0.269,0.291-0.422,0.42
		c-0.011,0.01-0.023,0.021-0.034,0.035c-0.07,0.057-0.153,0.127-0.234,0.174c-0.011,0.012-0.023,0.012-0.034,0.023
		c-0.07,0.059-0.15,0.105-0.224,0.152c-0.011,0.01-0.021,0.01-0.034,0.023c-0.083,0.047-0.161,0.094-0.244,0.139
		c-0.023,0.012-0.034,0.023-0.058,0.037c-0.083,0.045-0.175,0.078-0.258,0.115c-0.011,0-0.023,0.012-0.034,0.012
		c-0.083,0.035-0.164,0.059-0.247,0.092C17.445,18.053,16.977,18.135,16.5,18.135z"/>
</g>
</svg>
