<?xml version="1.0" encoding="utf-8"?>
<!-- Generator: Adobe Illustrator 16.0.0, SVG Export Plug-In . SVG Version: 6.00 Build 0)  -->
<!DOCTYPE svg PUBLIC "-//W3C//DTD SVG 1.1//EN" "http://www.w3.org/Graphics/SVG/1.1/DTD/svg11.dtd">
<svg version="1.1" id="图层_1" xmlns="http://www.w3.org/2000/svg" xmlns:xlink="http://www.w3.org/1999/xlink" x="0px" y="0px"
	 width="32px" height="32px" viewBox="0 0 32 32" enable-background="new 0 0 32 32" xml:space="preserve">
<polygon opacity="0.08" enable-background="new    " points="5.077,32 5.077,1 28.923,1 28.923,23.249 20.172,32 "/>
<polygon opacity="0.1" enable-background="new    " points="5.577,31.5 5.577,1.5 28.423,1.5 28.423,23.042 19.965,31.5 "/>
<polygon opacity="0.2" enable-background="new    " points="5.077,31 5.077,1 27.923,1 27.923,22.542 19.465,31 "/>
<polygon fill="#01579B" points="5.512,30.5 5.512,1.5 27.488,1.5 27.488,22.335 19.273,30.5 "/>
<g>
	<g>
		<g>
			<g>
				
					<linearGradient id="SVGID_1_" gradientUnits="userSpaceOnUse" x1="99.6992" y1="-580.8003" x2="99.6992" y2="-552.8008" gradientTransform="matrix(1 0 0 -1 -83.2002 -550.8008)">
					<stop  offset="0" style="stop-color:#2196F3"/>
					<stop  offset="0.5828" style="stop-color:#3DBAE8"/>
					<stop  offset="1" style="stop-color:#4DD0E1"/>
				</linearGradient>
				<polygon fill="url(#SVGID_1_)" points="6.009,30 6.009,2 26.987,2 26.987,22.125 19.112,30 				"/>
			</g>
			<polygon fill="#01579B" fill-opacity="0.39" points="26.987,22.125 26.987,21.786 18.681,21.786 18.681,30 19.112,30 			"/>
			<path fill="#FFFFFF" fill-opacity="0.3922" d="M19.102,22.125l7.888,0.011L19.112,30L19.102,22.125z"/>
		</g>
		<g>
			<circle opacity="0.8" fill="#FFFFFF" enable-background="new    " cx="20.221" cy="13.259" r="1.482"/>
			<path opacity="0.8" fill="#FFFFFF" enable-background="new    " d="M9.208,10.167v9.566h14.584v-9.566H9.208z M22.74,11.217
				v7.467l0,0l-3.384-2.403l-2.416,1.48l-3.102-3.744l-3.583,4.667v-7.467H22.74z"/>
		</g>
	</g>
	<g>
		<rect x="6.005" y="2" opacity="0.8" fill="#FFFFFF" enable-background="new    " width="20.99" height="5.367"/>
		<g enable-background="new    ">
			<path fill="#0288D1" d="M11.603,2.513c0.658,0,1.161,0.11,1.513,0.329c0.352,0.22,0.526,0.579,0.526,1.077
				c0,0.503-0.177,0.866-0.534,1.089c-0.355,0.223-0.864,0.335-1.524,0.335h-0.312v1.4h-0.99V2.622
				c0.215-0.04,0.443-0.068,0.686-0.084C11.209,2.521,11.421,2.513,11.603,2.513z M11.667,3.316c-0.071,0-0.143,0.002-0.212,0.007
				c-0.071,0.003-0.131,0.007-0.182,0.012v1.207h0.312c0.342,0,0.602-0.043,0.774-0.133c0.173-0.088,0.261-0.253,0.261-0.495
				c0-0.117-0.022-0.212-0.067-0.289c-0.044-0.076-0.107-0.138-0.189-0.184c-0.082-0.046-0.184-0.078-0.303-0.097
				C11.942,3.325,11.811,3.316,11.667,3.316z"/>
			<path fill="#0288D1" d="M17.327,6.744c-0.284-0.479-0.591-0.952-0.921-1.418c-0.33-0.466-0.682-0.907-1.055-1.321v2.74h-0.977
				V2.562h0.806c0.14,0.133,0.295,0.296,0.465,0.489c0.169,0.192,0.341,0.399,0.518,0.618c0.175,0.22,0.35,0.447,0.523,0.683
				c0.175,0.235,0.337,0.461,0.488,0.678V2.562h0.987v4.183H17.327z"/>
			<path fill="#0288D1" d="M21.322,3.286c-0.46,0-0.795,0.121-0.999,0.365c-0.208,0.244-0.311,0.577-0.311,0.999
				c0,0.205,0.025,0.392,0.077,0.559c0.051,0.167,0.127,0.311,0.229,0.431c0.102,0.121,0.229,0.214,0.379,0.281
				c0.153,0.066,0.332,0.099,0.536,0.099c0.109,0,0.204-0.002,0.28-0.005c0.081-0.005,0.149-0.012,0.208-0.025V4.535h0.992v2.071
				c-0.121,0.044-0.311,0.091-0.572,0.142c-0.263,0.05-0.588,0.076-0.974,0.076c-0.328,0-0.627-0.048-0.897-0.145
				c-0.27-0.097-0.499-0.237-0.688-0.422c-0.189-0.185-0.339-0.413-0.441-0.683c-0.105-0.269-0.157-0.577-0.157-0.923
				c0-0.35,0.059-0.66,0.172-0.929c0.113-0.27,0.27-0.499,0.471-0.685c0.2-0.187,0.434-0.329,0.703-0.426
				c0.267-0.097,0.555-0.145,0.86-0.145c0.208,0,0.394,0.014,0.562,0.039c0.168,0.026,0.31,0.057,0.431,0.091
				c0.12,0.034,0.222,0.069,0.299,0.105c0.08,0.036,0.135,0.064,0.167,0.084L22.364,3.54c-0.135-0.068-0.291-0.128-0.467-0.178
				C21.723,3.311,21.529,3.286,21.322,3.286z"/>
		</g>
	</g>
</g>
</svg>
