<?xml version="1.0" encoding="utf-8"?>
<!-- Generator: Adobe Illustrator 21.0.0, SVG Export Plug-In . SVG Version: 6.00 Build 0)  -->
<svg version="1.1" id="图层_1" xmlns="http://www.w3.org/2000/svg" xmlns:xlink="http://www.w3.org/1999/xlink" x="0px" y="0px"
	 viewBox="0 0 32 32" style="enable-background:new 0 0 32 32;" xml:space="preserve">
<style type="text/css">
	.st0{opacity:0.08;enable-background:new    ;}
	.st1{opacity:0.2;enable-background:new    ;}
	.st2{opacity:0.1;enable-background:new    ;}
	.st3{fill:#455A64;}
	.st4{fill:url(#SVGID_1_);}
	.st5{fill:#455A64;fill-opacity:0.39;}
	.st6{fill:#FFFFFF;fill-opacity:0.39;}
	.st7{opacity:0.8;fill:#FFFFFF;enable-background:new    ;}
</style>
<title>application-x-desktop</title>
<polygon class="st0" points="4.5,32 4.5,1 28.5,1 28.5,23.1 19.6,32 "/>
<polygon class="st1" points="5,31 5,1 28,1 28,22.4 19.4,31 "/>
<polygon class="st2" points="5,31.5 5,1.5 28,1.5 28,22.9 19.4,31.5 "/>
<polygon class="st3" points="5.5,30.5 5.5,1.5 27.5,1.5 27.5,22.2 19.2,30.5 "/>
<linearGradient id="SVGID_1_" gradientUnits="userSpaceOnUse" x1="16.5" y1="788" x2="16.5" y2="760" gradientTransform="matrix(1 0 0 1 0 -758)">
	<stop  offset="0" style="stop-color:#607D8B"/>
	<stop  offset="0.29" style="stop-color:#64808E"/>
	<stop  offset="0.58" style="stop-color:#708A97"/>
	<stop  offset="0.86" style="stop-color:#849AA5"/>
	<stop  offset="1" style="stop-color:#90A4AE"/>
</linearGradient>
<polygon class="st4" points="6,30 6,2 27,2 27,22 19,30 "/>
<polygon class="st5" points="27,22 27,21.6 18.6,21.6 18.6,30 19,30 "/>
<path class="st6" d="M19,22h8l-8,8V22z"/>
<path class="st7" d="M21.3,16C21.3,16,21.3,15.9,21.3,16l0.1-0.3l0,0c0.1-0.3,0.3-0.7,0.3-1H23v-2.5h-1.3c-0.1-0.5-0.3-1-0.6-1.5
	L22,9.8L20.2,8l-0.9,0.9c-0.5-0.3-1-0.5-1.5-0.6l0,0V7h-2.6v1.3l0,0c-0.5,0.1-1.1,0.3-1.5,0.6L12.8,8L11,9.8l0.9,0.9
	c-0.3,0.5-0.5,1-0.6,1.5H10v2.6h1.3c0.1,0.5,0.3,1,0.6,1.5l0,0L11,17.2l1.8,1.8l0.9-0.9c0.5,0.3,1,0.5,1.5,0.6V20h2.6v-1.3l0,0
	c0.5-0.1,1-0.3,1.5-0.6l0.9,0.9l1.8-1.8l-0.9-0.9l0,0l0.1-0.2C21.2,16.1,21.2,16,21.3,16z M16.5,17.6c-2.3,0-4.1-1.8-4.1-4.1
	s1.8-4.1,4.1-4.1l0,0c0.4,0,0.9,0.1,1.3,0.2l0,0c1.7,0.6,2.8,2.1,2.8,3.9c0,0.1,0,0.2,0,0.3l0,0c0,0.3-0.1,0.6-0.2,0.9l0,0
	c-0.1,0.2-0.1,0.4-0.2,0.6l0,0c0,0.1-0.1,0.2-0.1,0.3l0,0l-0.2,0.2l0,0c-0.1,0.1-0.1,0.2-0.2,0.2l0,0c-0.1,0.1-0.3,0.3-0.4,0.4l0,0
	c-0.1,0.1-0.1,0.1-0.2,0.2l0,0c-0.1,0.1-0.1,0.1-0.2,0.1l0,0l-0.2,0.1h-0.1L18.3,17l0,0L18,17.1C17.6,17.4,17,17.5,16.5,17.6z"/>
</svg>
