<?xml version="1.0" encoding="utf-8"?>
<!-- Generator: Adobe Illustrator 21.0.0, SVG Export Plug-In . SVG Version: 6.00 Build 0)  -->
<svg version="1.1" id="图层_1" xmlns="http://www.w3.org/2000/svg" xmlns:xlink="http://www.w3.org/1999/xlink" x="0px" y="0px"
	 viewBox="0 0 32 32" style="enable-background:new 0 0 32 32;" xml:space="preserve">
<style type="text/css">
	.st0{opacity:0.08;enable-background:new    ;}
	.st1{opacity:0.2;enable-background:new    ;}
	.st2{opacity:0.1;enable-background:new    ;}
	.st3{fill:#EE6F0B;}
	.st4{fill:url(#SVGID_1_);}
	.st5{fill:#EE6F0B;fill-opacity:0.39;}
	.st6{fill:#FFFFFF;fill-opacity:0.39;}
	.st7{opacity:0.8;fill:#FFFFFF;enable-background:new    ;}
</style>
<title>application-certificate</title>
<polygon class="st0" points="4.5,32 4.5,1 28.5,1 28.5,23.1 19.6,32 "/>
<polygon class="st1" points="5,31 5,1 28,1 28,22.4 19.4,31 "/>
<polygon class="st2" points="5,31.5 5,1.5 28,1.5 28,22.9 19.4,31.5 "/>
<polygon class="st3" points="5.5,30.5 5.5,1.5 27.5,1.5 27.5,22.2 19.2,30.5 "/>
<linearGradient id="SVGID_1_" gradientUnits="userSpaceOnUse" x1="58.1" y1="2526.8999" x2="58.1" y2="2554.8999" gradientTransform="matrix(1 0 0 1 -41.6 -2524.8999)">
	<stop  offset="0" style="stop-color:#FFCD40"/>
	<stop  offset="0.22" style="stop-color:#FEC93D"/>
	<stop  offset="0.44" style="stop-color:#FDBC33"/>
	<stop  offset="0.67" style="stop-color:#FAA823"/>
	<stop  offset="0.9" style="stop-color:#F78B0C"/>
	<stop  offset="1" style="stop-color:#F57C00"/>
</linearGradient>
<polygon class="st4" points="6,30 6,2 27,2 27,22 19,30 "/>
<polygon class="st5" points="27,22 27,21.6 18.6,21.6 18.6,30 19,30 "/>
<path class="st6" d="M19,22h8l-8,8V22z"/>
<path class="st7" d="M16.5,5c-0.5,0-1,0.3-1.2,0.8c-0.4-0.3-1-0.3-1.5-0.1C13.3,6,13,6.5,13.1,7c-0.5,0-1.1,0.2-1.3,0.7
	c-0.3,0.5-0.2,1,0.1,1.5c-0.7,0.3-1,1.1-0.7,1.7c0.1,0.3,0.4,0.6,0.7,0.7c-0.3,0.4-0.3,1-0.1,1.5c0.3,0.5,0.8,0.7,1.3,0.7
	c0,0.5,0.2,1,0.7,1.3c0.4,0.1,0.8,0.2,1.3,0.2V21l1.5-2l1.5,2v-5.8c0.4,0,0.8-0.1,1.3-0.2c0.5-0.3,0.7-0.8,0.7-1.3
	c0.5,0.1,1.1-0.2,1.3-0.7c0.3-0.5,0.2-1-0.1-1.5c0.7-0.3,1-1.1,0.7-1.7c-0.1-0.3-0.4-0.6-0.7-0.7c0.3-0.4,0.3-1,0.1-1.5
	C21,7.2,20.5,7,19.9,7c0-0.5-0.2-1-0.7-1.3s-1.1-0.2-1.5,0.1C17.5,5.3,17,5,16.5,5z M16.5,7c1.9,0,3.5,1.6,3.5,3.5S18.4,14,16.5,14
	S13,12.4,13,10.5S14.6,7,16.5,7z M16.5,8C15.1,8,14,9.1,14,10.5s1.1,2.5,2.5,2.5s2.5-1.1,2.5-2.5S17.9,8,16.5,8L16.5,8z"/>
</svg>
