<?xml version="1.0" encoding="utf-8"?>
<!-- Generator: Adobe Illustrator 21.0.0, SVG Export Plug-In . SVG Version: 6.00 Build 0)  -->
<svg version="1.1" id="图层_1" xmlns="http://www.w3.org/2000/svg" xmlns:xlink="http://www.w3.org/1999/xlink" x="0px" y="0px"
	 viewBox="0 0 32 32" style="enable-background:new 0 0 32 32;" xml:space="preserve">
<style type="text/css">
	.st0{opacity:0.08;enable-background:new    ;}
	.st1{opacity:0.2;enable-background:new    ;}
	.st2{opacity:0.1;enable-background:new    ;}
	.st3{fill:#0D47A1;}
	.st4{fill:url(#SVGID_1_);}
	.st5{fill:#0D47A1;fill-opacity:0.39;}
	.st6{fill:#FFFFFF;fill-opacity:0.39;}
	.st7{opacity:0.8;fill:#FFFFFF;enable-background:new    ;}
</style>
<title>application-info</title>
<polygon class="st0" points="4.5,32 4.5,1 28.5,1 28.5,23.1 19.6,32 "/>
<polygon class="st1" points="5,31 5,1 28,1 28,22.4 19.4,31 "/>
<polygon class="st2" points="5,31.5 5,1.5 28,1.5 28,22.9 19.4,31.5 "/>
<polygon class="st3" points="5.5,30.5 5.5,1.5 27.5,1.5 27.5,22.2 19.2,30.5 "/>
<linearGradient id="SVGID_1_" gradientUnits="userSpaceOnUse" x1="58.1" y1="2526.8999" x2="58.1" y2="2554.8999" gradientTransform="matrix(1 0 0 1 -41.6 -2524.8999)">
	<stop  offset="0" style="stop-color:#64B5F6"/>
	<stop  offset="0.23" style="stop-color:#60B1F4"/>
	<stop  offset="0.46" style="stop-color:#53A7EE"/>
	<stop  offset="0.7" style="stop-color:#3F96E4"/>
	<stop  offset="0.94" style="stop-color:#227DD6"/>
	<stop  offset="1" style="stop-color:#1976D2"/>
</linearGradient>
<polygon class="st4" points="6,30 6,2 27,2 27,22 19,30 "/>
<polygon class="st5" points="27,22 27,21.6 18.6,21.6 18.6,30 19,30 "/>
<path class="st6" d="M19,22h8l-8,8V22z"/>
<path class="st7" d="M16.5,5C12.4,5,9,8.4,9,12.5s3.4,7.5,7.5,7.5s7.5-3.4,7.5-7.5S20.6,5,16.5,5z M18,18h-3v-7h3V18z M18,10h-3V7h3
	V10z"/>
</svg>
