<?xml version="1.0" encoding="utf-8"?>
<!-- Generator: Adobe Illustrator 16.0.0, SVG Export Plug-In . SVG Version: 6.00 Build 0)  -->
<!DOCTYPE svg PUBLIC "-//W3C//DTD SVG 1.1//EN" "http://www.w3.org/Graphics/SVG/1.1/DTD/svg11.dtd">
<svg version="1.1" id="图层_1" xmlns="http://www.w3.org/2000/svg" xmlns:xlink="http://www.w3.org/1999/xlink" x="0px" y="0px"
	 width="32px" height="32px" viewBox="0 0 32 32" enable-background="new 0 0 32 32" xml:space="preserve">
<rect x="5.012" y="1" opacity="0.1" enable-background="new    " width="23.976" height="31"/>
<rect x="5.512" y="1.5" opacity="0.1" enable-background="new    " width="22.976" height="30"/>
<rect x="5.012" y="1" opacity="0.2" enable-background="new    " width="22.976" height="30"/>
<rect x="5.512" y="1.5" fill="#0D47A1" width="21.976" height="29"/>
<g>
	
		<linearGradient id="SVGID_1_" gradientUnits="userSpaceOnUse" x1="99.6992" y1="854.8008" x2="99.6992" y2="826.8008" gradientTransform="matrix(1 0 0 1 -83.2002 -824.8008)">
		<stop  offset="0" style="stop-color:#1976D2"/>
		<stop  offset="0.0226" style="stop-color:#1C79D3"/>
		<stop  offset="0.2859" style="stop-color:#3B93E2"/>
		<stop  offset="0.5416" style="stop-color:#52A6ED"/>
		<stop  offset="0.7843" style="stop-color:#5FB1F4"/>
		<stop  offset="1" style="stop-color:#64B5F6"/>
	</linearGradient>
	<rect x="6.011" y="2" fill="url(#SVGID_1_)" width="20.979" height="28"/>
	<g>
		<path fill="#64B5F6" d="M23.033,16.934c0,3.605-2.928,6.533-6.533,6.533s-6.533-2.928-6.533-6.533
			c0-3.607,2.928-6.534,6.533-6.534S23.033,13.327,23.033,16.934z"/>
		<path fill="#FFFFFF" fill-opacity="0.8" d="M12.214,12.011c0,0,0.136,0.072,0.188,0.187c0.04,0.114,0.186,0.114,0.186,0.114h0.21
			l0.305-0.093l-0.073,0.166c0,0-1.601,0.742-1.276,1.181c0.324,0.44,0.208,0.554,0.208,0.691c0,0.136,0.097,0.021,0.097,0.021
			l0.093-0.25l0.135-0.188l0.139-0.21l0.04-0.115l0.189-0.323l0.23-0.136l0.207,0.136c0,0,0.095,0.04,0.073,0.113
			c-0.021,0.074-0.042,0.21-0.042,0.21s0.042,0.096,0.115,0.096c0.074,0,0.189-0.074,0.189-0.074l0.095,0.167l0.073,0.304
			l0.186,0.187l0.097,0.209l-0.097,0.188l0.097,0.073l0.21,0.231l0.04,0.114l-0.347-0.02c0,0-0.04-0.096-0.113-0.096
			c-0.072,0-0.366-0.021-0.366-0.021l-0.17,0.043l-0.091,0.114c0,0-0.116,0.188-0.189,0.188c-0.071,0-0.248-0.041-0.248-0.041
			s-0.139-0.042-0.211,0.093c-0.073,0.138,0.112,0.209,0.112,0.209l-0.32,0.095l-0.097,0.042c0,0-0.231,0.094-0.231,0.168
			c0,0.073,0,0.073,0,0.073l-0.069,0.188v0.113l-0.168,0.138l-0.167,0.113l-0.073,0.138v0.229c0,0-0.021,0.115-0.021,0.188
			c0,0.074,0,0.251,0,0.251s-0.073,0.073-0.115-0.075c-0.042-0.135-0.042-0.135-0.042-0.135l-0.073-0.168
			c0,0,0.073-0.021-0.021-0.094c-0.091-0.071-0.188-0.094-0.188-0.094s-0.04-0.039-0.137-0.039c-0.094,0,0.116,0.019-0.094,0
			c-0.209-0.023-0.209-0.023-0.209-0.023l-0.168,0.136v0.114c0,0-0.04,0.817,0.189,0.93h0.095l0.135-0.207l0.117,0.04v0.095
			l-0.022,0.17v0.093l0.113,0.116l0.073,0.208c0.095,0.168,0.044,0.21,0.113,0.25c0.074,0.042,0.138,0.169,0.138,0.169l0.094,0.041
			c0,0,0.074,0.021,0.137,0.039c0.072,0.022,0.072,0.022,0.072,0.022l0.022,0.105l0.023,0.084l0.093,0.113c0,0-0.072,0,0.095,0
			c0.168,0,0.168,0,0.168,0s0,0.044,0.116,0.097c0.113,0.04,0.022,0.021,0.113,0.04c0.095,0.021,0.252,0.042,0.252,0.042
			c0.165-0.021,0.165-0.021,0.165-0.021l0.115,0.169c0,0,0.073,0,0.095,0.071c0.021,0.072-0.113,0,0.021,0.072
			c0.136,0.075,0,0.023,0.136,0.075c0.135,0.051-0.044,0.042,0.135,0.042c0.177,0,0.208,0,0.28,0.02
			c0.075,0.022,0.117,0.189,0.117,0.189c0.135,0.166,0.135,0.166,0.135,0.166l0.021,0.21c0,0-0.072,0.042,0.095,0.042
			c0.168,0,0.04,0,0.168,0c0.124,0-0.021-0.042,0.115,0c0.135,0.04,0.135,0.04,0.135,0.04s0.209,0.169,0.282,0.169
			s0.21-0.023,0.284,0c0.073,0.021,0.113,0.134,0.248,0.166c0.137,0.024,0.189,0,0.282,0.075c0.097,0.073,0.097,0.073,0.097,0.073
			l0.021,0.248l-0.075,0.137l-0.188,0.072l-0.021,0.232l-0.097,0.23v0.113c0,0,0.116,0.097-0.092,0.117
			c-0.207,0.02-0.207,0.02-0.207,0.02l-0.095,0.094c0,0,0,0.023-0.044,0.094c-0.04,0.073-0.093,0.189-0.093,0.189l0.021,0.21v0.136
			l-0.073,0.112c0,0-0.063,0.032,0.113,0.147c0.188,0.115,0.334,0.115,0.377,0.186c0.041,0.075,0.157,0.137,0.157,0.137
			l-0.252-0.051l-0.156-0.053l-0.263-0.07l-0.499-0.264c0,0-0.755-0.615-0.984-1.117c0,0-0.197-0.293-0.532-0.417
			c0,0-0.828-0.755-0.9-0.942l-0.031-0.126v-0.062l-0.031-0.033v-0.071l-0.021-0.053l0.013-0.231l0.009-0.156l0.011-0.084
			l-0.011-0.063c0,0-0.04-0.04-0.04-0.051c0-0.012-0.032-0.105-0.032-0.105l-0.012-0.031l0.128-0.105l-0.034-0.096l0.021-0.051
			l0.073-0.053c0,0,0.042-0.063,0.042-0.072c0-0.021-0.073-0.073-0.073-0.073l-0.029,0.011l-0.034,0.095h-0.039
			c0,0-0.043-0.022-0.043-0.032c0-0.012-0.041-0.052-0.041-0.052l-0.053-0.021c0,0-0.042-0.011-0.053-0.031
			s-0.062-0.053-0.062-0.063c0-0.012-0.04-0.073-0.04-0.073l-0.055-0.019c0,0-0.064-0.094-0.064-0.116
			c0-0.009-0.03-0.062-0.03-0.062s-0.073-0.084-0.073-0.096c0-0.011-0.033-0.084-0.033-0.084h-0.051l-0.115-0.043l-0.074-0.092
			l-0.082-0.094c0,0-0.042-0.074-0.042-0.096s-0.033-0.04-0.033-0.04h-0.051h-0.029l-0.074-0.063l-0.188-0.261l-0.032-0.116
			l-0.029-0.127l-0.021-0.209v-0.135l-0.084-0.972C9.976,16.106,10.259,13.701,12.214,12.011z"/>
		<path fill="#FFFFFF" fill-opacity="0.8" d="M19.594,11.192l0.208,0.17l0.107,0.052l0.072,0.083l0.012,0.084
			c0,0,0.021,0.083,0.013,0.104c-0.013,0.023-0.024,0.136-0.024,0.136s0.095,0.17,0.095,0.19s0.01,0.114-0.011,0.136
			c-0.02,0.01-0.137,0.083-0.146,0.051c-0.011-0.032-0.084-0.104-0.104-0.104c-0.023-0.012-0.085-0.074-0.085-0.074l0.167-0.021
			l-0.02-0.106c0,0-0.115-0.04-0.147-0.04c-0.033-0.011-0.147-0.073-0.147-0.073l-0.124-0.031c0,0-0.208-0.051-0.231-0.063
			c-0.021-0.01-0.104-0.04-0.104-0.04h-0.177c0,0-0.086,0.04-0.104,0.062c-0.012,0.022-0.117,0.136-0.117,0.136
			s-0.009,0.135-0.009,0.157c0,0.022-0.031,0.074-0.031,0.135c0,0.063-0.013,0.148-0.013,0.169c0,0.022,0,0.052,0,0.052l-0.02,0.092
			l-0.073,0.043l-0.095,0.074c0,0-0.082,0.061-0.082,0.083c0,0.022,0,0.106,0.031,0.168c0.03,0.062,0.02,0.123,0.062,0.155
			c0.042,0.032,0.062,0.074,0.095,0.086c0.033,0.01,0.009,0.019,0.063,0.019c0.041,0,0.083,0.013,0.104-0.009
			c0.023-0.01,0.074-0.01,0.097-0.042c0.021-0.032-0.022-0.011,0.021-0.032c0.038-0.01,0.038-0.04,0.073-0.01
			c0.04,0.031,0.071,0.074,0.084,0.093c0.009,0.023,0.04,0.074,0.074,0.105c0.037,0.02,0.067,0.102,0.067,0.102l0.066,0.064
			c0,0,0.011,0.01,0.051,0.01s0.105-0.01,0.105-0.01l0.022-0.042c0,0,0.04,0.012,0.051-0.009c0.011-0.023,0.011-0.053,0.011-0.053
			s-0.021-0.063-0.042-0.083c-0.013-0.021-0.034-0.074-0.034-0.074l0.013-0.074l0.038-0.042l0.015-0.052v-0.062l-0.044-0.022
			l-0.073-0.042c0,0-0.04,0.01-0.04-0.041C19.3,12.709,19.3,12.709,19.3,12.709l-0.093-0.02l-0.063-0.034l0.074-0.052
			c0.042-0.071,0.051-0.094,0.051-0.113c0-0.02-0.009-0.083-0.009-0.083s-0.042-0.012-0.042-0.064
			c-0.011-0.052-0.011-0.084-0.011-0.084l0.011-0.04c0,0,0.01-0.033,0.042-0.033c0.021,0,0.063,0.033,0.084,0.033
			c0.021,0,0.061,0.01,0.061,0.01s0.021,0.008,0.021,0.042c0,0.021-0.009,0.072-0.009,0.072l0.038-0.061v0.073l-0.009,0.084v0.083
			l0.041,0.084l0.041,0.063c0,0,0.053,0.052,0.074,0.074c0.023,0.008,0.075,0.049,0.075,0.049l0.062,0.032l0.042,0.01l0.04-0.042
			c0,0,0.075,0.01,0.075-0.011c0.011-0.022,0.011-0.022,0.011-0.022s0.084-0.01,0.104-0.01c0.023,0,0.065,0,0.065,0
			s0.031,0.062,0.01,0.062c-0.022,0-0.033,0.021-0.084,0.042c-0.053,0.01-0.075,0-0.084,0.021c-0.011,0.022-0.04,0.075-0.04,0.075
			l0.04,0.011h0.031l0.042,0.042c0,0,0.011,0.01,0,0.04c-0.012,0.032,0.04,0.021-0.012,0.032c-0.062,0.012-0.093-0.01-0.093-0.01
			s-0.009-0.052-0.042-0.03c-0.023,0.022-0.032,0.073-0.032,0.073v0.072l0.04,0.105c0,0,0.021,0.022,0,0.034
			c-0.019,0.008-0.092,0.092-0.092,0.092s-0.011,0.03-0.041,0.03c-0.022,0-0.052,0-0.106,0.012c-0.04,0.009-0.04,0.009-0.082,0.021
			c-0.044,0.01-0.072,0.018-0.139,0.03c-0.062,0.01-0.175,0.01-0.219,0.01c-0.038,0-0.051,0-0.07-0.01
			c-0.022-0.013-0.012,0-0.04-0.043c-0.031-0.041-0.064-0.073-0.064-0.104c0-0.022,0-0.031-0.015-0.074
			c-0.009-0.04-0.009-0.072-0.038-0.072c-0.042,0-0.042,0-0.042,0s-0.082,0.064-0.073,0.085c0.012,0.021-0.009,0,0.063,0.051
			c0.073,0.052,0.095,0.126,0.095,0.126l-0.013,0.074l-0.133,0.073l-0.095,0.03l-0.012,0.064c0,0,0,0.021-0.02,0.052
			c-0.022,0.03-0.075,0.073-0.075,0.073s-0.042,0.01-0.051,0.042c-0.011,0.022-0.044,0.104-0.044,0.104s-0.04-0.01-0.082,0.022
			c-0.042,0.032,0.011,0.032-0.084,0.074c-0.095,0.04-0.095,0.04-0.095,0.04l-0.104-0.008l-0.063,0.02c0,0-0.083,0.01-0.095,0.032
			c-0.011,0.021-0.053,0.083-0.053,0.083s-0.02,0.042,0,0.042c0.022,0.01,0.053,0,0.104,0.01c0.043,0.012,0.053,0.012,0.087,0.032
			c0.031,0.012,0.063,0.042,0.063,0.042l0.112,0.103l0.064,0.136l-0.013,0.106l-0.124,0.042c0,0-0.071,0-0.104,0
			c-0.023,0-0.013,0-0.137,0c-0.125,0-0.146,0-0.167,0c-0.022,0-0.104-0.012-0.104-0.012l-0.074,0.012L17.628,14.8l-0.03,0.01
			c0,0,0.042,0.094,0.042,0.126c0,0.032,0,0.072,0,0.072l-0.012,0.065l-0.03,0.074l-0.044,0.072l0.015,0.041
			c0,0-0.015,0.032,0.009,0.032c0.022,0,0.082-0.009,0.082,0.012c0,0.02-0.051,0.105-0.051,0.105l0.105,0.02
			c0,0-0.009-0.01,0.051,0.011c0.063,0.007,0.104,0.029,0.104,0.029l0.071,0.051l0.023,0.043l0.021-0.043
			c0,0,0.113-0.009,0.135-0.021c0.022-0.01,0.075-0.01,0.075-0.01h0.091c0,0,0.022,0.01,0.042-0.012
			c0.011-0.018,0.011-0.018,0.011-0.018s0.106-0.042,0.126-0.064c0.021-0.01,0.031-0.073,0.031-0.073s0.033-0.021,0.033-0.04
			c0-0.021-0.022-0.074-0.022-0.074v-0.044l0.031-0.04c0,0,0.009-0.012,0.042-0.042c0.032-0.032,0.032-0.032,0.032-0.032
			s-0.013-0.01,0.029-0.032c0.044-0.011,0.075-0.042,0.095-0.042c0.021,0-0.02,0.022,0.021,0c0.042-0.022,0.053-0.041,0.053-0.073
			c0-0.021,0.013-0.136,0.013-0.136l0.038-0.062l0.106,0.01l0.051,0.012c0,0,0.063,0.01,0.074-0.012
			c0.012-0.022,0.042-0.04,0.042-0.04l0.084-0.044c0,0-0.011-0.009,0.033-0.009c0.04,0,0.104,0,0.133,0c0.023,0,0.075,0,0.075,0
			s0.042,0.02,0.062,0.04c0.011,0.021,0.042,0.074,0.042,0.074l0.031,0.043h0.034c0.04,0.03,0.061,0.052,0.133,0.071
			c0.073,0.023,0.126,0.042,0.126,0.042s0.021,0.043,0.04,0.062c0.022,0.022,0.042,0.043,0.073,0.063
			c0.021,0.01,0.042,0.032,0.053,0.052c0.009,0.02,0.044,0.063,0.044,0.063l0.038,0.042l0.023-0.042v-0.073l-0.011-0.04
			c0,0-0.04-0.032,0.011-0.032c0.042,0,0.075,0,0.075,0l-0.042-0.064l-0.053-0.021l-0.073-0.053l-0.031-0.032l-0.032-0.009
			l-0.031-0.022l-0.044-0.03c0,0-0.072-0.012-0.072-0.042c-0.01-0.022-0.01-0.022-0.01-0.022l-0.074-0.01
			c0,0-0.073-0.042-0.073-0.061c0-0.022-0.009-0.086-0.009-0.086l-0.063-0.008c0,0,0.01-0.041,0.01-0.073
			c0-0.022,0.023-0.053,0.023-0.053l0.133-0.009l0.029,0.072l0.053,0.032l0.075,0.031l0.03,0.042l0.031,0.03
			c0,0,0.013,0.01,0.053,0.022c0.042,0.009,0.073,0.02,0.073,0.02s0.042,0.042,0.073,0.042c0.032,0.01,0.043,0.022,0.076,0.032
			c-0.023,0.022-0.023,0.022-0.023,0.022s0.011,0.021,0.042,0.042c0.03,0.02,0.062,0.062,0.062,0.084
			c0,0.021,0.022,0.093,0.042,0.105c0.022,0.01,0.031,0.01,0.071,0.052c0.042,0.04,0.042,0.083,0.074,0.105
			c0.042,0.011,0.073,0,0.073,0.04c0.011,0.043,0.011,0.074,0.011,0.074s0.033,0.012,0.053,0.012c0.021,0,0.063-0.041,0.063-0.041
			s0.042-0.063,0.011-0.076c-0.02-0.009-0.071-0.009-0.071-0.032c0-0.021,0-0.134,0-0.134l0.031-0.075l0.04-0.061l0.063,0.019
			l0.063-0.04l0.063,0.074l-0.02,0.083c0,0,0.009,0.051,0.038,0.093c0.023,0.041,0.073,0.096,0.073,0.096l0.107,0.095l0.146,0.041
			l0.033-0.009l0.219-0.043c0,0,0.032,0,0.051,0c0.021,0,0.126,0.178,0.126,0.178s0,0.074,0,0.114c0,0.042,0,0.146,0,0.146
			s-0.073,0.074-0.104,0.074c-0.032,0-0.114,0.04-0.114,0.04l-0.177,0.042l-0.115-0.01l-0.208-0.012c0,0-0.209-0.01-0.231-0.01
			c-0.021,0-0.095,0-0.114,0c-0.021,0-0.054,0.022-0.075,0.084c-0.02,0.062-0.062,0.083-0.062,0.083s0,0.032-0.042,0.032
			c-0.04,0-0.04,0.013-0.071-0.01c-0.035-0.021-0.179-0.052-0.179-0.052l-0.137-0.093l-0.075-0.062l-0.072-0.01h-0.21l-0.137-0.012
			l0.023-0.22l0.019,0.063l-0.042-0.146l-0.062-0.042l-0.148-0.032l-0.093,0.01l-0.126,0.032L19.05,15.47l-0.074,0.021l-0.352,0.061
			l-0.128,0.053c0,0-0.053,0.032-0.073,0.041c-0.02,0.01-0.104,0.01-0.104,0.01s-0.063-0.01-0.095-0.019
			c-0.029-0.01-0.104-0.01-0.137-0.01c-0.031,0-0.095-0.011-0.115,0c-0.02,0.01-0.042,0.01-0.062,0.041
			c-0.022,0.032-0.095,0.116-0.095,0.116s-0.04,0.041-0.063,0.062c-0.011,0.019-0.062,0.083-0.062,0.083l-0.086,0.136l-0.053,0.063
			l0.015,0.074v0.052c0,0-0.033,0.031-0.053,0.042c-0.024,0.009-0.065,0.032-0.065,0.032s-0.031,0.009-0.063,0.039
			c-0.029,0.022-0.029,0.034-0.053,0.052c-0.021,0.021-0.095,0.074-0.095,0.074s-0.04,0.032-0.073,0.063
			c-0.018,0.031-0.062,0.071-0.072,0.094c-0.01,0.022-0.041,0.041-0.063,0.051c-0.019,0.013-0.062,0.096-0.073,0.118
			c-0.011,0.019-0.072,0.114-0.072,0.114l-0.044,0.177l-0.008,0.082c0,0,0.008,0.032,0.031,0.055
			c0.021,0.019,0.042,0.104,0.042,0.104v0.075c0,0-0.021,0.062-0.032,0.084c-0.01,0.018,0.011,0.123,0.011,0.123v0.063
			c0,0,0,0.021-0.033,0.051c-0.032,0.033-0.042,0.075-0.042,0.075l0.042,0.095l0.033,0.063v0.04l0.04,0.073
			c0,0,0.021,0.022,0.04,0.042c0.025,0.011,0.032,0.011,0.076,0.042c0.042,0.021,0.042,0.021,0.042,0.021s0.064,0.073,0.064,0.104
			c0,0.021,0.04,0.063,0.04,0.063l0.072,0.073c0,0,0.011,0.039,0.052,0.072s0.083,0.051,0.105,0.073
			c0.021,0.011,0.084,0.062,0.135,0.073c0.044,0.011,0.063,0.021,0.086,0.021c0.02,0-0.033-0.065,0.114,0.01
			c0.146,0.074,0.241,0.105,0.241,0.105l0.105,0.041c0,0,0.17,0.012,0.186-0.01c0.022-0.012,0.053-0.012,0.071-0.012
			c0.022,0,0.077,0,0.118,0c0.039,0,0.187-0.021,0.187-0.021l0.166-0.063c0,0,0.053-0.031,0.076-0.041
			c0.021-0.01,0.08-0.052,0.104-0.061c0.023-0.015,0.125-0.015,0.125-0.015s0-0.031,0.04,0c0.044,0.032,0.044,0.044,0.054,0.065
			c0.013,0.021,0.013,0.072,0.041,0.072c0.031,0.012,0.106,0.033,0.106,0.033s0.105-0.013,0.135,0c0.031,0.01,0.105,0.01,0.105,0.01
			l0.031,0.041l0.013,0.094v0.086c0,0-0.013,0.032,0,0.062c0.009,0.032,0.04,0.084,0.04,0.084s-0.04,0.062-0.063,0.071
			c-0.022,0.011-0.073,0.074-0.073,0.074l0.146,0.135l0.084,0.084l0.063,0.074c0,0,0.013,0.031,0.013,0.052s-0.013,0.073,0,0.104
			c0.011,0.023,0.011,0.105,0.011,0.105s0.009,0.062,0.009,0.084c0,0.023-0.02,0.123-0.02,0.123l-0.013,0.075l-0.042,0.126
			l-0.052,0.062l-0.072,0.073l-0.053,0.084l-0.01,0.113l-0.043,0.072c0,0,0.011,0.066,0.011,0.097c0,0.031,0.065,0.144,0.065,0.144
			l-0.015,0.096c0,0-0.038,0.139-0.038,0.169c0,0.033-0.033,0.073-0.033,0.106c0,0.02-0.011,0.114-0.011,0.114l0.011,0.113
			l0.04,0.114l-0.04,0.104c0,0-0.021,0.083-0.021,0.137c0,0.04,0.074,0.093,0.093,0.093c0.023,0,0.116-0.011,0.157-0.04
			c0.043-0.022,0.147-0.053,0.169-0.065c0.021-0.01,0.04,0.013,0.105-0.041c0.061-0.039,0.157-0.116,0.157-0.116
			s0.071-0.051,0.104-0.071c0.021-0.021,0.124-0.137,0.124-0.137s0.073-0.072,0.126-0.105c0.051-0.031,0-0.009,0.051-0.038
			c0.053-0.032,0.219-0.169,0.219-0.169l0.17-0.168c0,0,0.146-0.188,0.168-0.219c0.021-0.035,0.156-0.208,0.179-0.223
			c0.018-0.01,0.207-0.133,0.249-0.166c0.04-0.033,0.095-0.252,0.113-0.284c0.021-0.021,0.137-0.28,0.137-0.28l0.105-0.303
			l0.177-0.453l0.177-0.314c0,0,0.071-0.135,0.104-0.176c0.021-0.041,0.189-0.366,0.189-0.366l0.063-0.27l0.021-0.229h-0.104
			l-0.116,0.104l-0.105-0.031l-0.103,0.014l0.115-0.148l-0.033-0.115l-0.093-0.072l-0.126-0.188v-0.188l-0.135-0.221l-0.084-0.344
			c0,0-0.156-0.17-0.135-0.209c0.009-0.043,0.051-0.169,0.051-0.169l0.084,0.042c0,0,0.063,0.167,0.093,0.177
			c0.035,0.01,0.075,0.094,0.088,0.114c0.009,0.022,0.021,0.096,0.038,0.116c0.013,0.02,0.084,0.156,0.084,0.156
			s0.053,0.136,0.063,0.168c0.01,0.021,0.063,0.104,0.073,0.166c0.013,0.065,0.042,0.262,0.042,0.284s0.051,0.241,0.051,0.241
			s0.073-0.022,0.082-0.041c0.013-0.021,0.013-0.033,0.035-0.051c0.011-0.021,0.135-0.117,0.135-0.117l0.053-0.167
			c0,0,0.033-0.073,0.04-0.106c0.013-0.03,0.075-0.146,0.075-0.167c0-0.021-0.012-0.104,0-0.136c0.009-0.021,0.04-0.146,0.04-0.167
			c0-0.022,0.011-0.106,0.011-0.106l-0.011-0.187l0.084-0.105l0.041-0.116C23.022,16.119,22.72,12.834,19.594,11.192z"/>
	</g>
	<g>
		<rect x="6.006" y="2" opacity="0.8" fill="#FFFFFF" enable-background="new    " width="20.988" height="5.367"/>
		<g enable-background="new    ">
			<path fill="#1976D2" d="M14.579,4.649c0,0.358-0.057,0.674-0.168,0.945c-0.113,0.271-0.267,0.5-0.461,0.682
				c-0.195,0.183-0.427,0.321-0.697,0.412c-0.268,0.095-0.558,0.141-0.865,0.141c-0.301,0-0.585-0.046-0.852-0.141
				c-0.268-0.091-0.499-0.229-0.699-0.412c-0.199-0.182-0.355-0.41-0.469-0.682c-0.115-0.271-0.174-0.587-0.174-0.945
				c0-0.358,0.061-0.672,0.179-0.944c0.119-0.272,0.279-0.5,0.479-0.686c0.203-0.185,0.435-0.324,0.7-0.416
				c0.265-0.093,0.541-0.14,0.835-0.14c0.301,0,0.583,0.046,0.852,0.14c0.266,0.092,0.499,0.23,0.697,0.416
				c0.199,0.186,0.355,0.414,0.471,0.686C14.522,3.977,14.579,4.292,14.579,4.649z M11.22,4.649c0,0.205,0.025,0.391,0.078,0.555
				c0.053,0.166,0.129,0.307,0.229,0.426c0.099,0.119,0.221,0.21,0.364,0.274c0.145,0.065,0.31,0.098,0.496,0.098
				c0.182,0,0.346-0.033,0.492-0.098c0.146-0.064,0.268-0.155,0.368-0.274c0.101-0.119,0.175-0.26,0.228-0.426
				c0.053-0.164,0.08-0.35,0.08-0.555s-0.027-0.391-0.08-0.558s-0.127-0.31-0.228-0.428c-0.101-0.119-0.223-0.211-0.368-0.275
				c-0.146-0.064-0.311-0.097-0.492-0.097c-0.187,0-0.352,0.034-0.496,0.1c-0.144,0.067-0.266,0.159-0.364,0.277
				c-0.101,0.119-0.177,0.262-0.229,0.428C11.245,4.265,11.22,4.449,11.22,4.649z"/>
			<path fill="#1976D2" d="M18.525,2.562v0.803h-1.329v3.379h-0.991V3.364h-1.327V2.562H18.525z"/>
			<path fill="#1976D2" d="M21.813,2.562h0.992v4.182h-0.992V4.97h-1.662v1.773h-0.992V2.562h0.992v1.6h1.662V2.562z"/>
		</g>
	</g>
</g>
</svg>
