<?xml version="1.0" encoding="utf-8"?>
<!-- Generator: Adobe Illustrator 16.0.0, SVG Export Plug-In . SVG Version: 6.00 Build 0)  -->
<!DOCTYPE svg PUBLIC "-//W3C//DTD SVG 1.1//EN" "http://www.w3.org/Graphics/SVG/1.1/DTD/svg11.dtd">
<svg version="1.1" id="图层_1" xmlns="http://www.w3.org/2000/svg" xmlns:xlink="http://www.w3.org/1999/xlink" x="0px" y="0px"
	 width="32px" height="32px" viewBox="0 0 32 32" enable-background="new 0 0 32 32" xml:space="preserve">
<polygon opacity="0.08" enable-background="new    " points="5.077,32 5.077,1 28.923,1 28.923,23.249 20.172,32 "/>
<polygon opacity="0.1" enable-background="new    " points="5.577,31.5 5.577,1.5 28.423,1.5 28.423,23.042 19.965,31.5 "/>
<polygon opacity="0.2" enable-background="new    " points="5.077,31 5.077,1 27.923,1 27.923,22.542 19.465,31 "/>
<polygon fill="#01579B" points="5.512,30.5 5.512,1.5 27.488,1.5 27.488,22.335 19.273,30.5 "/>
<g>
	<g>
		<g>
			<g>
				
					<linearGradient id="SVGID_1_" gradientUnits="userSpaceOnUse" x1="99.6992" y1="-580.8003" x2="99.6992" y2="-552.8008" gradientTransform="matrix(1 0 0 -1 -83.2002 -550.8008)">
					<stop  offset="0" style="stop-color:#2196F3"/>
					<stop  offset="0.5828" style="stop-color:#3DBAE8"/>
					<stop  offset="1" style="stop-color:#4DD0E1"/>
				</linearGradient>
				<polygon fill="url(#SVGID_1_)" points="6.009,30 6.009,2 26.987,2 26.987,22.125 19.112,30 				"/>
			</g>
			<polygon fill="#01579B" fill-opacity="0.39" points="26.987,22.125 26.987,21.786 18.681,21.786 18.681,30 19.112,30 			"/>
			<path fill="#FFFFFF" fill-opacity="0.3922" d="M19.102,22.125l7.888,0.011L19.112,30L19.102,22.125z"/>
		</g>
		<g>
			<circle opacity="0.8" fill="#FFFFFF" enable-background="new    " cx="20.221" cy="13.259" r="1.482"/>
			<path opacity="0.8" fill="#FFFFFF" enable-background="new    " d="M9.208,10.167v9.566h14.584v-9.566H9.208z M22.74,11.217
				v7.467l0,0l-3.384-2.403l-2.416,1.48l-3.102-3.744l-3.583,4.667v-7.467H22.74z"/>
		</g>
	</g>
	<g>
		<rect x="6.005" y="2" opacity="0.8" fill="#FFFFFF" enable-background="new    " width="20.99" height="5.367"/>
		<g enable-background="new    ">
			<path fill="#0288D1" d="M13.634,5.338c0,0.206-0.024,0.399-0.073,0.58c-0.047,0.181-0.133,0.339-0.253,0.474
				c-0.121,0.135-0.285,0.242-0.489,0.319c-0.206,0.08-0.465,0.119-0.778,0.119c-0.288,0-0.536-0.035-0.744-0.101
				c-0.208-0.065-0.379-0.142-0.514-0.231l0.33-0.731c0.122,0.069,0.253,0.129,0.394,0.182c0.14,0.051,0.292,0.077,0.458,0.077
				c0.241,0,0.414-0.055,0.521-0.167c0.105-0.113,0.159-0.303,0.159-0.569V2.562h0.99V5.338z"/>
			<path fill="#0288D1" d="M15.909,2.514c0.656,0,1.16,0.109,1.511,0.328s0.525,0.58,0.525,1.077c0,0.503-0.174,0.866-0.531,1.088
				c-0.355,0.224-0.863,0.335-1.525,0.335h-0.31v1.4h-0.992V2.622c0.217-0.04,0.445-0.067,0.686-0.084
				C15.515,2.521,15.727,2.514,15.909,2.514z M15.973,3.316c-0.073,0-0.144,0.002-0.213,0.007c-0.069,0.004-0.129,0.007-0.181,0.011
				v1.207h0.31c0.345,0,0.602-0.043,0.776-0.133c0.173-0.089,0.261-0.253,0.261-0.494c0-0.117-0.023-0.213-0.067-0.29
				c-0.044-0.076-0.107-0.138-0.191-0.184c-0.082-0.047-0.182-0.078-0.301-0.097C16.248,3.325,16.117,3.316,15.973,3.316z"/>
			<path fill="#0288D1" d="M20.826,3.287c-0.463,0-0.795,0.12-1.003,0.364c-0.204,0.245-0.306,0.576-0.306,0.999
				c0,0.204,0.025,0.39,0.076,0.558c0.051,0.167,0.128,0.31,0.226,0.43c0.103,0.122,0.23,0.215,0.383,0.281
				c0.153,0.067,0.332,0.1,0.532,0.1c0.113,0,0.205-0.002,0.285-0.005c0.076-0.004,0.146-0.011,0.207-0.025V4.534h0.988v2.071
				c-0.116,0.044-0.306,0.091-0.568,0.143c-0.267,0.051-0.587,0.076-0.974,0.076c-0.332,0-0.631-0.049-0.9-0.146
				c-0.267-0.097-0.496-0.237-0.689-0.423c-0.189-0.184-0.335-0.412-0.44-0.682c-0.103-0.27-0.157-0.576-0.157-0.922
				c0-0.35,0.059-0.66,0.175-0.93c0.113-0.27,0.27-0.5,0.467-0.685c0.2-0.186,0.434-0.328,0.704-0.427
				c0.27-0.095,0.554-0.144,0.86-0.144c0.207,0,0.394,0.013,0.562,0.038c0.167,0.027,0.313,0.059,0.434,0.091
				c0.12,0.035,0.219,0.069,0.299,0.106c0.076,0.036,0.135,0.065,0.168,0.083l-0.288,0.755c-0.135-0.067-0.288-0.127-0.467-0.177
				C21.224,3.311,21.034,3.287,20.826,3.287z"/>
		</g>
	</g>
</g>
</svg>
