<?xml version="1.0" encoding="utf-8"?>
<!-- Generator: Adobe Illustrator 16.0.0, SVG Export Plug-In . SVG Version: 6.00 Build 0)  -->
<!DOCTYPE svg PUBLIC "-//W3C//DTD SVG 1.1//EN" "http://www.w3.org/Graphics/SVG/1.1/DTD/svg11.dtd">
<svg version="1.1" id="图层_1" xmlns="http://www.w3.org/2000/svg" xmlns:xlink="http://www.w3.org/1999/xlink" x="0px" y="0px"
	 width="32px" height="32px" viewBox="0 0 32 32" enable-background="new 0 0 32 32" xml:space="preserve">
<polygon opacity="0.08" points="5.077,32 5.077,1 28.923,1 28.923,23.249 20.172,32 "/>
<polygon opacity="0.1" points="5.577,31.5 5.577,1.5 28.423,1.5 28.423,23.042 19.965,31.5 "/>
<polygon opacity="0.2" points="5.077,31 5.077,1 27.923,1 27.923,22.542 19.465,31 "/>
<polygon fill="#AE2124" points="5.512,30.5 5.512,1.5 27.488,1.5 27.488,22.335 19.276,30.5 "/>
<g>
	<g>
		<g>
			
				<linearGradient id="SVGID_1_" gradientUnits="userSpaceOnUse" x1="58.0996" y1="448.9004" x2="58.0996" y2="420.9004" gradientTransform="matrix(1 0 0 1 -41.5996 -418.9004)">
				<stop  offset="0" style="stop-color:#C7312F"/>
				<stop  offset="0.1635" style="stop-color:#D9412C"/>
				<stop  offset="0.3476" style="stop-color:#E74E29"/>
				<stop  offset="0.5725" style="stop-color:#EA552A"/>
				<stop  offset="0.9516" style="stop-color:#EA582B"/>
			</linearGradient>
			<polygon fill="url(#SVGID_1_)" points="6.012,30 6.012,2 26.988,2 26.988,22.125 19.113,30 			"/>
		</g>
		<polygon fill="#AE2124" fill-opacity="0.3922" points="26.988,22.125 26.988,21.786 18.682,21.786 18.682,30 19.113,30 		"/>
		<path fill="#FFFFFF" fill-opacity="0.3922" d="M19.102,22.125l7.887,0.012L19.113,30L19.102,22.125z"/>
	</g>
	<g opacity="0.8" enable-background="new    ">
		<g>
			<path fill="#FFFFFF" d="M19.137,8.837c0.035,0.012,0.082,0.012,0.117,0.022C19.219,8.849,19.172,8.837,19.137,8.837z"/>
			<path fill="#FFFFFF" d="M18.846,8.791c0.047,0,0.082,0.012,0.129,0.012C18.928,8.802,18.893,8.802,18.846,8.791z"/>
			<path fill="#FFFFFF" d="M19.416,8.883c0.035,0.012,0.07,0.012,0.105,0.023C19.486,8.895,19.451,8.883,19.416,8.883z"/>
			<path fill="#FFFFFF" d="M19.697,8.93c0.035,0.012,0.07,0.012,0.094,0.023C19.756,8.941,19.732,8.93,19.697,8.93z"/>
			<path fill="#FFFFFF" d="M18.541,8.755c0.047,0,0.094,0.012,0.141,0.012C18.635,8.767,18.588,8.755,18.541,8.755z"/>
			<path fill="#FFFFFF" d="M20.223,9.047c0.021,0.012,0.045,0.012,0.08,0.023C20.268,9.059,20.244,9.047,20.223,9.047z"/>
			<path fill="#FFFFFF" d="M19.965,8.988C19.988,9,20.023,9,20.047,9.012C20.023,9,19.988,8.988,19.965,8.988z"/>
			<path fill="#FFFFFF" d="M10.248,10.318L10.248,10.318L10.248,10.318z"/>
			<path fill="#FFFFFF" d="M16.932,8.65c0.07,0,0.152,0,0.222,0C17.084,8.65,17.002,8.65,16.932,8.65z"/>
			<path fill="#FFFFFF" d="M20.467,9.105c0.023,0.012,0.047,0.012,0.07,0.023C20.514,9.117,20.49,9.117,20.467,9.105z"/>
			<path fill="#FFFFFF" d="M18.238,8.72c0.047,0,0.094,0.012,0.141,0.012C18.344,8.732,18.297,8.732,18.238,8.72z"/>
			<path fill="#FFFFFF" d="M15.848,8.65c0.069,0,0.139,0,0.221,0C15.999,8.65,15.917,8.65,15.848,8.65z"/>
			<path fill="#FFFFFF" d="M17.607,8.673c0.059,0,0.117,0.012,0.176,0.012C17.725,8.685,17.666,8.673,17.607,8.673z"/>
			<path fill="#FFFFFF" d="M17.936,8.697c0.059,0,0.105,0.012,0.164,0.012C18.041,8.708,17.982,8.697,17.936,8.697z"/>
			<path fill="#FFFFFF" d="M21.914,9.654c0,0,0.012,0,0.012,0.012C21.926,9.654,21.914,9.654,21.914,9.654z"/>
			<path fill="#FFFFFF" d="M22.474,10.026L22.474,10.026L22.474,10.026z"/>
			<path fill="#FFFFFF" d="M22.077,9.734C22.077,9.734,22.077,9.746,22.077,9.734C22.077,9.746,22.077,9.734,22.077,9.734z"/>
			<path fill="#FFFFFF" d="M22.218,9.828C22.229,9.828,22.229,9.828,22.218,9.828C22.229,9.828,22.229,9.828,22.218,9.828z"/>
			<path fill="#FFFFFF" d="M20.713,9.174c0.023,0,0.035,0.012,0.059,0.012C20.748,9.186,20.725,9.174,20.713,9.174z"/>
			<path fill="#FFFFFF" d="M22.578,10.12L22.578,10.12L22.578,10.12z"/>
			<path fill="#FFFFFF" d="M16.5,8.638c-0.104,0-0.221,0-0.327,0C16.279,8.638,16.396,8.638,16.5,8.638z"/>
			<path fill="#FFFFFF" d="M22.356,9.922L22.356,9.922L22.356,9.922z"/>
			<path fill="#FFFFFF" d="M21.365,9.397c0.012,0,0.023,0.012,0.035,0.012C21.389,9.409,21.377,9.397,21.365,9.397z"/>
			<path fill="#FFFFFF" d="M16.5,8.638c0.105,0,0.223,0,0.327,0C16.723,8.638,16.605,8.638,16.5,8.638z"/>
			<path fill="#FFFFFF" d="M20.934,9.245c0.012,0,0.035,0.012,0.047,0.012C20.969,9.256,20.957,9.245,20.934,9.245z"/>
			<path fill="#FFFFFF" d="M21.154,9.315c0.012,0,0.023,0.012,0.035,0.012C21.178,9.327,21.166,9.327,21.154,9.315z"/>
			<path fill="#FFFFFF" d="M21.563,9.478c0.012,0,0.023,0.012,0.023,0.012C21.575,9.49,21.563,9.478,21.563,9.478z"/>
			<path fill="#FFFFFF" d="M21.738,9.56c0.012,0,0.012,0.012,0.023,0.012C21.762,9.572,21.75,9.56,21.738,9.56z"/>
			<path fill="#FFFFFF" d="M17.283,8.662c0.057,0,0.127,0,0.186,0.012C17.41,8.662,17.34,8.662,17.283,8.662z"/>
			<path fill="#FFFFFF" d="M11.076,9.654c0.012,0,0.012-0.012,0.023-0.012C11.087,9.654,11.076,9.654,11.076,9.654z"/>
			<path fill="#FFFFFF" d="M10.912,9.746c0,0,0.012,0,0.012-0.012C10.923,9.734,10.923,9.746,10.912,9.746z"/>
			<path fill="#FFFFFF" d="M10.772,9.84C10.772,9.828,10.784,9.828,10.772,9.84C10.784,9.828,10.772,9.828,10.772,9.84z"/>
			<path fill="#FFFFFF" d="M11.238,9.572c0.012,0,0.012-0.012,0.023-0.012C11.25,9.56,11.238,9.572,11.238,9.572z"/>
			<path fill="#FFFFFF" d="M11.6,9.409c0.012,0,0.023-0.012,0.035-0.012C11.624,9.397,11.612,9.409,11.6,9.409z"/>
			<path fill="#FFFFFF" d="M11.414,9.49c0.012,0,0.023-0.012,0.035-0.012C11.438,9.478,11.426,9.49,11.414,9.49z"/>
			<path fill="#FFFFFF" d="M15.533,8.662c0.057,0,0.127,0,0.186-0.012C15.66,8.662,15.59,8.662,15.533,8.662z"/>
			<path fill="#FFFFFF" d="M16.5,12.99c-3.547,0-6.417-0.968-6.417-2.169v1.959c0,1.202,2.87,2.171,6.417,2.171
				s6.417-0.969,6.417-2.171l0,0V10.82C22.917,12.01,20.047,12.99,16.5,12.99z"/>
			<path fill="#FFFFFF" d="M10.083,10.75v0.07C10.083,10.797,10.083,10.773,10.083,10.75L10.083,10.75z"/>
			<path fill="#FFFFFF" d="M11.798,9.338c0.012,0,0.035-0.012,0.047-0.012C11.833,9.327,11.822,9.327,11.798,9.338z"/>
			<path fill="#FFFFFF" d="M10.527,10.026L10.527,10.026L10.527,10.026z"/>
			<path fill="#FFFFFF" d="M22.917,10.75c0,0.023,0,0.047,0,0.07V10.75L22.917,10.75z"/>
			<path fill="#FFFFFF" d="M10.328,10.225L10.328,10.225L10.328,10.225z"/>
			<path fill="#FFFFFF" d="M10.422,10.12L10.422,10.12L10.422,10.12z"/>
			<path fill="#FFFFFF" d="M10.643,9.934C10.643,9.922,10.643,9.922,10.643,9.934C10.643,9.922,10.643,9.922,10.643,9.934z"/>
			<path fill="#FFFFFF" d="M14.319,8.767c0.047,0,0.093-0.012,0.14-0.012C14.412,8.755,14.366,8.767,14.319,8.767z"/>
			<path fill="#FFFFFF" d="M14.027,8.814c0.047-0.012,0.081-0.012,0.127-0.012C14.108,8.802,14.074,8.802,14.027,8.814z"/>
			<path fill="#FFFFFF" d="M14.611,8.732c0.047,0,0.092-0.012,0.151-0.012C14.703,8.732,14.658,8.732,14.611,8.732z"/>
			<path fill="#FFFFFF" d="M12.009,9.256c0.012,0,0.034-0.012,0.045-0.012C12.043,9.245,12.033,9.256,12.009,9.256z"/>
			<path fill="#FFFFFF" d="M15.217,8.685c0.058,0,0.116-0.012,0.175-0.012C15.333,8.673,15.275,8.685,15.217,8.685z"/>
			<path fill="#FFFFFF" d="M13.748,8.849c0.035-0.012,0.081-0.012,0.116-0.023C13.828,8.837,13.783,8.849,13.748,8.849z"/>
			<path fill="#FFFFFF" d="M14.914,8.708c0.057,0,0.104-0.012,0.163-0.012C15.018,8.697,14.959,8.708,14.914,8.708z"/>
			<path fill="#FFFFFF" d="M12.463,9.129c0.023-0.012,0.047-0.012,0.07-0.023C12.51,9.117,12.487,9.117,12.463,9.129z"/>
			<path fill="#FFFFFF" d="M12.23,9.186c0.023-0.012,0.035-0.012,0.059-0.023C12.277,9.174,12.254,9.186,12.23,9.186z"/>
			<path fill="#FFFFFF" d="M12.697,9.059c0.023-0.012,0.059-0.012,0.082-0.023C12.755,9.047,12.732,9.059,12.697,9.059z"/>
			<path fill="#FFFFFF" d="M12.953,9c0.035-0.012,0.059-0.012,0.094-0.023C13.012,8.988,12.977,9,12.953,9z"/>
			<path fill="#FFFFFF" d="M13.209,8.953c0.035-0.012,0.07-0.012,0.105-0.023C13.268,8.93,13.245,8.941,13.209,8.953z"/>
			<path fill="#FFFFFF" d="M13.479,8.895c0.034-0.012,0.069-0.012,0.104-0.023C13.548,8.883,13.513,8.895,13.479,8.895z"/>
		</g>
		<g>
			<path fill="#FFFFFF" d="M19.137,11.112c0.035,0.012,0.082,0.012,0.117,0.023C19.219,11.124,19.172,11.124,19.137,11.112z"/>
			<path fill="#FFFFFF" d="M18.846,11.077c0.047,0,0.082,0.012,0.129,0.012C18.928,11.077,18.893,11.077,18.846,11.077z"/>
			<path fill="#FFFFFF" d="M19.416,11.159c0.035,0.012,0.07,0.012,0.105,0.023C19.486,11.17,19.451,11.17,19.416,11.159z"/>
			<path fill="#FFFFFF" d="M19.697,11.205c0.035,0.012,0.07,0.012,0.094,0.023C19.756,11.216,19.732,11.216,19.697,11.205z"/>
			<path fill="#FFFFFF" d="M18.541,11.03c0.047,0,0.094,0.012,0.141,0.012C18.635,11.042,18.588,11.042,18.541,11.03z"/>
			<path fill="#FFFFFF" d="M20.223,11.322c0.021,0.012,0.045,0.012,0.08,0.023C20.268,11.333,20.244,11.333,20.223,11.322z"/>
			<path fill="#FFFFFF" d="M19.965,11.263c0.023,0.012,0.059,0.012,0.082,0.023C20.023,11.275,19.988,11.275,19.965,11.263z"/>
			<path fill="#FFFFFF" d="M10.248,12.605L10.248,12.605L10.248,12.605z"/>
			<path fill="#FFFFFF" d="M16.932,10.924c0.07,0,0.152,0,0.222,0C17.084,10.924,17.002,10.924,16.932,10.924z"/>
			<path fill="#FFFFFF" d="M20.467,11.392c0.023,0.012,0.047,0.012,0.07,0.023C20.514,11.404,20.49,11.392,20.467,11.392z"/>
			<path fill="#FFFFFF" d="M18.238,11.006c0.047,0,0.094,0.012,0.141,0.012C18.344,11.006,18.297,11.006,18.238,11.006z"/>
			<path fill="#FFFFFF" d="M15.848,10.936c0.069,0,0.139,0,0.221,0C15.999,10.924,15.917,10.924,15.848,10.936z"/>
			<path fill="#FFFFFF" d="M17.607,10.948c0.059,0,0.117,0.012,0.176,0.012C17.725,10.959,17.666,10.959,17.607,10.948z"/>
			<path fill="#FFFFFF" d="M17.936,10.971c0.059,0,0.105,0.012,0.164,0.012C18.041,10.983,17.982,10.983,17.936,10.971z"/>
			<path fill="#FFFFFF" d="M21.914,11.928c0,0,0.012,0,0.012,0.012C21.926,11.928,21.914,11.928,21.914,11.928z"/>
			<path fill="#FFFFFF" d="M22.474,12.302L22.474,12.302L22.474,12.302z"/>
			<path fill="#FFFFFF" d="M22.077,12.022L22.077,12.022L22.077,12.022z"/>
			<path fill="#FFFFFF" d="M22.218,12.115C22.229,12.115,22.229,12.115,22.218,12.115C22.229,12.115,22.229,12.115,22.218,12.115z"
				/>
			<path fill="#FFFFFF" d="M20.713,11.451c0.023,0,0.035,0.012,0.059,0.012C20.748,11.462,20.725,11.462,20.713,11.451z"/>
			<path fill="#FFFFFF" d="M22.578,12.395L22.578,12.395L22.578,12.395z"/>
			<path fill="#FFFFFF" d="M16.5,10.924c-0.104,0-0.221,0-0.327,0C16.279,10.924,16.396,10.924,16.5,10.924z"/>
			<path fill="#FFFFFF" d="M22.356,12.208L22.356,12.208L22.356,12.208z"/>
			<path fill="#FFFFFF" d="M21.365,11.672c0.012,0,0.023,0.012,0.035,0.012C21.389,11.684,21.377,11.684,21.365,11.672z"/>
			<path fill="#FFFFFF" d="M16.5,10.924c0.105,0,0.223,0,0.327,0C16.723,10.924,16.605,10.924,16.5,10.924z"/>
			<path fill="#FFFFFF" d="M20.934,11.52c0.012,0,0.035,0.012,0.047,0.012C20.969,11.531,20.957,11.531,20.934,11.52z"/>
			<path fill="#FFFFFF" d="M21.154,11.602c0.012,0,0.023,0.012,0.035,0.012C21.178,11.613,21.166,11.602,21.154,11.602z"/>
			<path fill="#FFFFFF" d="M21.563,11.754c0.012,0,0.023,0.012,0.023,0.012C21.575,11.766,21.563,11.766,21.563,11.754z"/>
			<path fill="#FFFFFF" d="M21.738,11.846c0.012,0,0.012,0.012,0.023,0.012C21.762,11.846,21.75,11.846,21.738,11.846z"/>
			<path fill="#FFFFFF" d="M17.283,10.936c0.057,0,0.127,0,0.186,0.012C17.41,10.936,17.34,10.936,17.283,10.936z"/>
			<path fill="#FFFFFF" d="M11.076,11.94c0.012,0,0.012-0.012,0.023-0.012C11.087,11.928,11.076,11.928,11.076,11.94z"/>
			<path fill="#FFFFFF" d="M10.912,12.022c0,0,0.012,0,0.012-0.012C10.923,12.022,10.923,12.022,10.912,12.022z"/>
			<path fill="#FFFFFF" d="M10.772,12.115C10.772,12.115,10.784,12.115,10.772,12.115C10.784,12.115,10.772,12.115,10.772,12.115z"
				/>
			<path fill="#FFFFFF" d="M11.238,11.846c0.012,0,0.012-0.012,0.023-0.012C11.25,11.846,11.238,11.846,11.238,11.846z"/>
			<path fill="#FFFFFF" d="M11.6,11.695c0.012,0,0.023-0.012,0.035-0.012C11.624,11.684,11.612,11.684,11.6,11.695z"/>
			<path fill="#FFFFFF" d="M11.414,11.766c0.012,0,0.023-0.012,0.035-0.012C11.438,11.766,11.426,11.766,11.414,11.766z"/>
			<path fill="#FFFFFF" d="M15.533,10.948c0.057,0,0.127,0,0.186-0.012C15.66,10.936,15.59,10.936,15.533,10.948z"/>
			<path fill="#FFFFFF" d="M16.5,15.266c-3.547,0-6.417-0.969-6.417-2.17v1.959c0,1.202,2.87,2.17,6.417,2.17
				s6.417-0.968,6.417-2.17l0,0v-1.959C22.917,14.297,20.047,15.266,16.5,15.266z"/>
			<path fill="#FFFFFF" d="M10.083,13.025v0.07C10.083,13.072,10.083,13.048,10.083,13.025L10.083,13.025z"/>
			<path fill="#FFFFFF" d="M11.798,11.613c0.012,0,0.035-0.012,0.047-0.012C11.833,11.602,11.822,11.613,11.798,11.613z"/>
			<path fill="#FFFFFF" d="M10.527,12.302L10.527,12.302L10.527,12.302z"/>
			<path fill="#FFFFFF" d="M22.917,13.025c0,0.023,0,0.047,0,0.07V13.025L22.917,13.025z"/>
			<path fill="#FFFFFF" d="M10.328,12.5L10.328,12.5L10.328,12.5z"/>
			<path fill="#FFFFFF" d="M10.422,12.406C10.422,12.395,10.422,12.395,10.422,12.406C10.422,12.395,10.422,12.395,10.422,12.406z"
				/>
			<path fill="#FFFFFF" d="M10.643,12.208L10.643,12.208L10.643,12.208z"/>
			<path fill="#FFFFFF" d="M14.319,11.053c0.047,0,0.093-0.012,0.14-0.012C14.412,11.042,14.366,11.042,14.319,11.053z"/>
			<path fill="#FFFFFF" d="M14.027,11.088c0.047-0.012,0.081-0.012,0.127-0.012C14.108,11.077,14.074,11.077,14.027,11.088z"/>
			<path fill="#FFFFFF" d="M14.611,11.018c0.047,0,0.092-0.012,0.151-0.012C14.703,11.006,14.658,11.006,14.611,11.018z"/>
			<path fill="#FFFFFF" d="M12.009,11.543c0.012,0,0.034-0.012,0.045-0.012C12.043,11.531,12.033,11.531,12.009,11.543z"/>
			<path fill="#FFFFFF" d="M15.217,10.959c0.058,0,0.116-0.012,0.175-0.012C15.333,10.959,15.275,10.959,15.217,10.959z"/>
			<path fill="#FFFFFF" d="M13.748,11.135c0.035-0.012,0.081-0.012,0.116-0.023C13.828,11.124,13.783,11.124,13.748,11.135z"/>
			<path fill="#FFFFFF" d="M14.914,10.983c0.045,0,0.104-0.012,0.163-0.012C15.018,10.983,14.959,10.983,14.914,10.983z"/>
			<path fill="#FFFFFF" d="M12.463,11.404c0.023-0.012,0.047-0.012,0.07-0.023C12.51,11.392,12.487,11.404,12.463,11.404z"/>
			<path fill="#FFFFFF" d="M12.23,11.474c0.023-0.012,0.035-0.012,0.059-0.023C12.277,11.462,12.254,11.462,12.23,11.474z"/>
			<path fill="#FFFFFF" d="M12.697,11.345c0.023-0.012,0.059-0.012,0.082-0.023C12.755,11.333,12.732,11.333,12.697,11.345z"/>
			<path fill="#FFFFFF" d="M12.953,11.287c0.035-0.012,0.059-0.012,0.094-0.023C13.012,11.275,12.977,11.275,12.953,11.287z"/>
			<path fill="#FFFFFF" d="M13.209,11.228c0.035-0.012,0.07-0.012,0.105-0.023C13.268,11.216,13.245,11.216,13.209,11.228z"/>
			<path fill="#FFFFFF" d="M13.479,11.182c0.034-0.012,0.069-0.012,0.104-0.023C13.548,11.17,13.513,11.17,13.479,11.182z"/>
		</g>
		<g>
			<path fill="#FFFFFF" d="M19.137,13.387c0.035,0.012,0.082,0.012,0.117,0.023C19.219,13.398,19.172,13.398,19.137,13.387z"/>
			<path fill="#FFFFFF" d="M18.846,13.352c0.047,0,0.082,0.012,0.129,0.012C18.928,13.363,18.893,13.352,18.846,13.352z"/>
			<path fill="#FFFFFF" d="M19.416,13.434c0.035,0.012,0.07,0.012,0.105,0.023C19.486,13.445,19.451,13.445,19.416,13.434z"/>
			<path fill="#FFFFFF" d="M19.697,13.492c0.035,0.012,0.07,0.012,0.094,0.023C19.756,13.504,19.732,13.492,19.697,13.492z"/>
			<path fill="#FFFFFF" d="M18.541,13.316c0.047,0,0.094,0.012,0.141,0.012C18.635,13.328,18.588,13.316,18.541,13.316z"/>
			<path fill="#FFFFFF" d="M20.223,13.608c0.021,0.012,0.045,0.012,0.08,0.023C20.268,13.62,20.244,13.608,20.223,13.608z"/>
			<path fill="#FFFFFF" d="M19.965,13.538c0.023,0.012,0.059,0.012,0.082,0.023C20.023,13.561,19.988,13.549,19.965,13.538z"/>
			<path fill="#FFFFFF" d="M10.248,14.88L10.248,14.88L10.248,14.88z"/>
			<path fill="#FFFFFF" d="M16.932,13.201c0.07,0,0.152,0,0.222,0C17.084,13.212,17.002,13.212,16.932,13.201z"/>
			<path fill="#FFFFFF" d="M20.467,13.667c0.023,0.012,0.047,0.012,0.07,0.023C20.514,13.678,20.49,13.678,20.467,13.667z"/>
			<path fill="#FFFFFF" d="M18.238,13.281c0.047,0,0.094,0.012,0.141,0.012C18.344,13.293,18.297,13.281,18.238,13.281z"/>
			<path fill="#FFFFFF" d="M15.848,13.212c0.069,0,0.139,0,0.221,0C15.999,13.212,15.917,13.212,15.848,13.212z"/>
			<path fill="#FFFFFF" d="M17.607,13.234c0.059,0,0.117,0.012,0.176,0.012C17.725,13.234,17.666,13.234,17.607,13.234z"/>
			<path fill="#FFFFFF" d="M17.936,13.258c0.059,0,0.105,0.012,0.164,0.012C18.041,13.258,17.982,13.258,17.936,13.258z"/>
			<path fill="#FFFFFF" d="M21.914,14.203c0,0,0.012,0,0.012,0.012C21.926,14.215,21.914,14.215,21.914,14.203z"/>
			<path fill="#FFFFFF" d="M22.474,14.577L22.474,14.577L22.474,14.577z"/>
			<path fill="#FFFFFF" d="M22.077,14.297L22.077,14.297L22.077,14.297z"/>
			<path fill="#FFFFFF" d="M22.218,14.391C22.229,14.391,22.229,14.391,22.218,14.391C22.229,14.391,22.229,14.391,22.218,14.391z"
				/>
			<path fill="#FFFFFF" d="M20.713,13.737c0.023,0,0.035,0.012,0.059,0.012C20.748,13.749,20.725,13.737,20.713,13.737z"/>
			<path fill="#FFFFFF" d="M22.578,14.682L22.578,14.682L22.578,14.682z"/>
			<path fill="#FFFFFF" d="M16.5,13.201c-0.104,0-0.221,0-0.327,0C16.279,13.201,16.396,13.201,16.5,13.201z"/>
			<path fill="#FFFFFF" d="M22.356,14.483L22.356,14.483L22.356,14.483z"/>
			<path fill="#FFFFFF" d="M21.365,13.958c0.012,0,0.023,0.012,0.035,0.012C21.389,13.97,21.377,13.958,21.365,13.958z"/>
			<path fill="#FFFFFF" d="M16.5,13.201c0.105,0,0.223,0,0.327,0C16.723,13.201,16.605,13.201,16.5,13.201z"/>
			<path fill="#FFFFFF" d="M20.934,13.807c0.012,0,0.035,0.011,0.047,0.011C20.969,13.818,20.957,13.807,20.934,13.807z"/>
			<path fill="#FFFFFF" d="M21.154,13.876c0.012,0,0.023,0.012,0.035,0.012C21.178,13.888,21.166,13.888,21.154,13.876z"/>
			<path fill="#FFFFFF" d="M21.563,14.041c0.012,0,0.023,0.012,0.023,0.012C21.575,14.041,21.563,14.041,21.563,14.041z"/>
			<path fill="#FFFFFF" d="M21.738,14.121c0.012,0,0.012,0.012,0.023,0.012C21.762,14.133,21.75,14.121,21.738,14.121z"/>
			<path fill="#FFFFFF" d="M17.283,13.212c0.057,0,0.127,0,0.186,0.012C17.41,13.224,17.34,13.224,17.283,13.212z"/>
			<path fill="#FFFFFF" d="M11.076,14.215c0.012,0,0.012-0.012,0.023-0.012C11.087,14.215,11.076,14.215,11.076,14.215z"/>
			<path fill="#FFFFFF" d="M10.912,14.309c0,0,0.012,0,0.012-0.012C10.923,14.297,10.923,14.297,10.912,14.309z"/>
			<path fill="#FFFFFF" d="M10.772,14.391C10.772,14.391,10.784,14.391,10.772,14.391C10.784,14.391,10.772,14.391,10.772,14.391z"
				/>
			<path fill="#FFFFFF" d="M11.238,14.133c0.012,0,0.012-0.012,0.023-0.012C11.25,14.121,11.238,14.133,11.238,14.133z"/>
			<path fill="#FFFFFF" d="M11.6,13.97c0.012,0,0.023-0.012,0.035-0.012C11.624,13.958,11.612,13.97,11.6,13.97z"/>
			<path fill="#FFFFFF" d="M11.414,14.052c0.012,0,0.023-0.012,0.035-0.012C11.438,14.041,11.426,14.041,11.414,14.052z"/>
			<path fill="#FFFFFF" d="M15.533,13.224c0.057,0,0.127,0,0.186-0.012C15.66,13.224,15.59,13.224,15.533,13.224z"/>
			<path fill="#FFFFFF" d="M16.5,17.552c-3.547,0-6.417-0.968-6.417-2.17v1.96c0,1.201,2.87,2.17,6.417,2.17s6.417-0.969,6.417-2.17
				l0,0v-1.96C22.917,16.572,20.047,17.552,16.5,17.552z"/>
			<path fill="#FFFFFF" d="M10.083,15.311v0.07C10.083,15.358,10.083,15.334,10.083,15.311L10.083,15.311z"/>
			<path fill="#FFFFFF" d="M11.798,13.888c0.012,0,0.035-0.012,0.047-0.012C11.833,13.888,11.822,13.888,11.798,13.888z"/>
			<path fill="#FFFFFF" d="M10.527,14.588C10.527,14.577,10.527,14.577,10.527,14.588C10.527,14.577,10.527,14.577,10.527,14.588z"
				/>
			<path fill="#FFFFFF" d="M22.917,15.311c0,0.023,0,0.047,0,0.07V15.311L22.917,15.311z"/>
			<path fill="#FFFFFF" d="M10.328,14.787C10.328,14.775,10.328,14.775,10.328,14.787C10.328,14.775,10.328,14.775,10.328,14.787z"
				/>
			<path fill="#FFFFFF" d="M10.422,14.682L10.422,14.682L10.422,14.682z"/>
			<path fill="#FFFFFF" d="M10.643,14.483L10.643,14.483L10.643,14.483z"/>
			<path fill="#FFFFFF" d="M14.319,13.328c0.047,0,0.093-0.012,0.14-0.012C14.412,13.316,14.366,13.328,14.319,13.328z"/>
			<path fill="#FFFFFF" d="M14.027,13.363c0.047-0.012,0.081-0.012,0.127-0.012C14.108,13.352,14.074,13.363,14.027,13.363z"/>
			<path fill="#FFFFFF" d="M14.611,13.293c0.047,0,0.092-0.012,0.151-0.012C14.703,13.281,14.658,13.293,14.611,13.293z"/>
			<path fill="#FFFFFF" d="M12.009,13.818c0.012,0,0.034-0.011,0.045-0.011C12.043,13.807,12.033,13.818,12.009,13.818z"/>
			<path fill="#FFFFFF" d="M15.217,13.246c0.058,0,0.116-0.012,0.175-0.012C15.333,13.234,15.275,13.234,15.217,13.246z"/>
			<path fill="#FFFFFF" d="M13.748,13.41c0.035-0.012,0.081-0.012,0.116-0.023C13.828,13.398,13.783,13.398,13.748,13.41z"/>
			<path fill="#FFFFFF" d="M14.914,13.27c0.045,0,0.104-0.012,0.163-0.012C15.018,13.258,14.959,13.258,14.914,13.27z"/>
			<path fill="#FFFFFF" d="M12.463,13.69c0.023-0.012,0.047-0.012,0.07-0.023C12.51,13.667,12.487,13.678,12.463,13.69z"/>
			<path fill="#FFFFFF" d="M12.23,13.749c0.023-0.012,0.035-0.012,0.059-0.023C12.277,13.737,12.254,13.749,12.23,13.749z"/>
			<path fill="#FFFFFF" d="M12.697,13.62c0.023-0.012,0.059-0.012,0.082-0.023C12.755,13.608,12.732,13.62,12.697,13.62z"/>
			<path fill="#FFFFFF" d="M12.953,13.561c0.035-0.012,0.059-0.012,0.094-0.023C13.012,13.549,12.977,13.561,12.953,13.561z"/>
			<path fill="#FFFFFF" d="M13.209,13.504c0.035-0.012,0.07-0.012,0.105-0.023C13.268,13.492,13.245,13.504,13.209,13.504z"/>
			<path fill="#FFFFFF" d="M13.479,13.457c0.034-0.012,0.069-0.012,0.104-0.023C13.548,13.445,13.513,13.445,13.479,13.457z"/>
		</g>
		<ellipse fill="#FFFFFF" cx="16.5" cy="10.47" rx="6.417" ry="2.171"/>
	</g>
</g>
</svg>
