<?xml version="1.0" encoding="utf-8"?>
<!-- Generator: Adobe Illustrator 16.0.0, SVG Export Plug-In . SVG Version: 6.00 Build 0)  -->
<!DOCTYPE svg PUBLIC "-//W3C//DTD SVG 1.1//EN" "http://www.w3.org/Graphics/SVG/1.1/DTD/svg11.dtd">
<svg version="1.1" id="图层_1" xmlns="http://www.w3.org/2000/svg" xmlns:xlink="http://www.w3.org/1999/xlink" x="0px" y="0px"
	 width="32px" height="32px" viewBox="0 0 32 32" enable-background="new 0 0 32 32" xml:space="preserve">
<polygon opacity="0.08" enable-background="new    " points="5.077,32 5.077,1 28.923,1 28.923,23.249 20.172,32 "/>
<polygon opacity="0.1" enable-background="new    " points="5.577,31.5 5.577,1.5 28.423,1.5 28.423,23.042 19.965,31.5 "/>
<polygon opacity="0.2" enable-background="new    " points="5.077,31 5.077,1 27.923,1 27.923,22.542 19.465,31 "/>
<polygon fill="#3E2723" points="5.512,30.5 5.512,1.5 27.488,1.5 27.488,22.335 19.273,30.5 "/>
<g>
	<g>
		
			<linearGradient id="SVGID_1_" gradientUnits="userSpaceOnUse" x1="58.0996" y1="-133.9004" x2="58.0996" y2="-161.9009" gradientTransform="matrix(1 0 0 -1 -41.6001 -131.9004)">
			<stop  offset="0" style="stop-color:#785548"/>
			<stop  offset="1" style="stop-color:#9F9E9F"/>
		</linearGradient>
		<polygon fill="url(#SVGID_1_)" points="6.011,30 6.011,2 26.99,2 26.99,22.114 19.191,30 		"/>
		<polygon fill="#795548" fill-opacity="0.7" points="26.99,22.125 26.99,21.786 18.686,21.786 18.686,30 19.115,30 		"/>
		<path opacity="0.39" fill="#FFFFFF" enable-background="new    " d="M19.104,22.125l7.887,0.011L19.115,30L19.104,22.125z"/>
	</g>
	<path fill="#FFFFFF" d="M13.508,7.397h-0.711v9.093h-0.536V7.397h-0.707v9.093h-0.536V7.397h-0.708v9.093H9.773V7.397H9.067v9.093
		H8.882v3.852h4.867V16.49h-0.241V7.397z M13.041,19.223H9.587V16.99h3.454V19.223z"/>
	<g>
		<rect x="6.006" y="2" opacity="0.8" fill="#FFFFFF" enable-background="new    " width="20.988" height="5.367"/>
		<g enable-background="new    ">
			<path fill="#5D4037" d="M14.26,2.602v0.802h-1.329v3.379h-0.99V3.404h-1.328V2.602H14.26z"/>
			<path fill="#5D4037" d="M16.898,3.325c-0.463,0-0.794,0.122-1.002,0.365c-0.204,0.244-0.307,0.578-0.307,0.999
				c0,0.206,0.025,0.392,0.077,0.56c0.051,0.166,0.127,0.31,0.226,0.43c0.103,0.122,0.229,0.215,0.383,0.281
				c0.153,0.067,0.333,0.1,0.532,0.1c0.113,0,0.205-0.002,0.285-0.005c0.076-0.005,0.146-0.013,0.207-0.025V4.574h0.988v2.071
				c-0.117,0.043-0.307,0.091-0.568,0.142c-0.266,0.049-0.588,0.075-0.973,0.075c-0.333,0-0.631-0.047-0.902-0.144
				c-0.266-0.097-0.495-0.237-0.688-0.423c-0.189-0.184-0.336-0.412-0.441-0.682c-0.102-0.27-0.156-0.578-0.156-0.924
				c0-0.35,0.058-0.66,0.175-0.928c0.113-0.27,0.27-0.5,0.467-0.685c0.2-0.188,0.434-0.33,0.703-0.427s0.555-0.144,0.861-0.144
				c0.207,0,0.393,0.013,0.561,0.039c0.168,0.027,0.314,0.056,0.434,0.091c0.121,0.035,0.219,0.069,0.301,0.106
				c0.076,0.036,0.135,0.063,0.166,0.083l-0.287,0.755c-0.135-0.067-0.289-0.127-0.467-0.177
				C17.295,3.351,17.105,3.325,16.898,3.325z"/>
			<path fill="#5D4037" d="M22.316,3.252c-0.135,0.133-0.295,0.306-0.482,0.518c-0.189,0.209-0.379,0.441-0.578,0.691
				c-0.201,0.248-0.398,0.507-0.592,0.771c-0.197,0.266-0.367,0.52-0.521,0.762h2.242v0.789h-3.459V6.222
				c0.117-0.204,0.262-0.432,0.434-0.684c0.172-0.251,0.35-0.505,0.535-0.762c0.188-0.255,0.377-0.501,0.57-0.742
				C20.656,3.795,20.836,3.581,21,3.393h-1.977V2.602h3.293V3.252z"/>
		</g>
	</g>
</g>
</svg>
