<?xml version="1.0" encoding="utf-8"?>
<!-- Generator: Adobe Illustrator 16.0.0, SVG Export Plug-In . SVG Version: 6.00 Build 0)  -->
<!DOCTYPE svg PUBLIC "-//W3C//DTD SVG 1.1//EN" "http://www.w3.org/Graphics/SVG/1.1/DTD/svg11.dtd">
<svg version="1.1" id="图层_1" xmlns="http://www.w3.org/2000/svg" xmlns:xlink="http://www.w3.org/1999/xlink" x="0px" y="0px"
	 width="32px" height="32px" viewBox="0 0 32 32" enable-background="new 0 0 32 32" xml:space="preserve">
<polygon opacity="0.08" enable-background="new    " points="5.077,32 5.077,1 28.923,1 28.923,23.249 20.172,32 "/>
<polygon opacity="0.1" enable-background="new    " points="5.577,31.5 5.577,1.5 28.423,1.5 28.423,23.042 19.965,31.5 "/>
<polygon opacity="0.2" enable-background="new    " points="5.077,31 5.077,1 27.923,1 27.923,22.542 19.465,31 "/>
<polygon fill="#3E2723" points="5.512,30.5 5.512,1.5 27.488,1.5 27.488,22.335 19.273,30.5 "/>
<g>
	<g>
		
			<linearGradient id="SVGID_1_" gradientUnits="userSpaceOnUse" x1="58.0996" y1="-133.9004" x2="58.0996" y2="-161.9009" gradientTransform="matrix(1 0 0 -1 -41.6001 -131.9004)">
			<stop  offset="0" style="stop-color:#785548"/>
			<stop  offset="1" style="stop-color:#9F9E9F"/>
		</linearGradient>
		<polygon fill="url(#SVGID_1_)" points="6.011,30 6.011,2 26.99,2 26.99,22.114 19.191,30 		"/>
		<polygon fill="#795548" fill-opacity="0.7" points="26.99,22.125 26.99,21.786 18.686,21.786 18.686,30 19.115,30 		"/>
		<path opacity="0.39" fill="#FFFFFF" enable-background="new    " d="M19.104,22.125l7.887,0.011L19.115,30L19.104,22.125z"/>
	</g>
	<path fill="#FFFFFF" d="M13.508,7.397h-0.711v9.093h-0.536V7.397h-0.707v9.093h-0.536V7.397h-0.708v9.093H9.773V7.397H9.067v9.093
		H8.882v3.852h4.867V16.49h-0.241V7.397z M13.041,19.223H9.587V16.99h3.454V19.223z"/>
	<g>
		<rect x="6.006" y="2" opacity="0.8" fill="#FFFFFF" enable-background="new    " width="20.988" height="5.367"/>
		<g enable-background="new    ">
			<path fill="#5D4037" d="M12.429,6.86c-0.717,0-1.262-0.189-1.637-0.569c-0.374-0.377-0.562-0.914-0.562-1.61
				c0-0.346,0.057-0.654,0.171-0.926c0.115-0.271,0.271-0.501,0.47-0.688s0.436-0.329,0.711-0.426
				c0.275-0.097,0.574-0.145,0.897-0.145c0.186,0,0.355,0.014,0.507,0.04c0.153,0.026,0.286,0.056,0.401,0.091
				c0.115,0.034,0.21,0.069,0.286,0.106c0.077,0.036,0.131,0.064,0.164,0.084l-0.284,0.761c-0.137-0.068-0.293-0.126-0.474-0.175
				c-0.18-0.048-0.384-0.073-0.612-0.073c-0.153,0-0.303,0.024-0.448,0.073c-0.146,0.048-0.275,0.126-0.389,0.231
				c-0.111,0.106-0.202,0.245-0.27,0.414c-0.067,0.168-0.1,0.375-0.1,0.615c0,0.193,0.021,0.374,0.065,0.54
				c0.045,0.167,0.117,0.311,0.217,0.432c0.099,0.121,0.23,0.215,0.39,0.286c0.161,0.071,0.355,0.106,0.585,0.106
				c0.144,0,0.271-0.009,0.386-0.024c0.115-0.016,0.217-0.036,0.304-0.058c0.089-0.022,0.168-0.047,0.235-0.075
				c0.069-0.027,0.129-0.055,0.184-0.079l0.273,0.755c-0.139,0.08-0.335,0.153-0.59,0.217C13.058,6.827,12.762,6.86,12.429,6.86z"/>
			<path fill="#5D4037" d="M17.67,6.776c-0.051-0.146-0.104-0.295-0.158-0.448c-0.057-0.153-0.113-0.306-0.168-0.458h-1.721
				c-0.055,0.151-0.111,0.304-0.166,0.458C15.4,6.481,15.349,6.63,15.299,6.776h-1.027c0.164-0.452,0.322-0.868,0.47-1.25
				c0.149-0.382,0.296-0.742,0.438-1.08c0.143-0.338,0.282-0.659,0.419-0.962c0.139-0.304,0.283-0.601,0.431-0.891h0.94
				c0.145,0.29,0.287,0.587,0.428,0.891s0.279,0.625,0.424,0.962c0.143,0.338,0.289,0.698,0.436,1.08
				c0.15,0.383,0.307,0.798,0.475,1.25H17.67z M16.479,3.541c-0.023,0.06-0.055,0.143-0.099,0.248
				c-0.042,0.105-0.091,0.225-0.144,0.362c-0.055,0.138-0.117,0.288-0.183,0.453c-0.067,0.165-0.137,0.337-0.206,0.519h1.259
				c-0.066-0.181-0.133-0.354-0.197-0.521c-0.061-0.165-0.121-0.316-0.178-0.453c-0.059-0.138-0.107-0.258-0.15-0.363
				C16.539,3.682,16.504,3.6,16.479,3.541z"/>
			<path fill="#5D4037" d="M20.764,6.831c-0.244,0-0.484-0.007-0.721-0.021c-0.24-0.015-0.488-0.048-0.748-0.101V2.653
				c0.205-0.036,0.428-0.063,0.668-0.082c0.24-0.018,0.467-0.027,0.672-0.027c0.279,0,0.539,0.02,0.771,0.058
				c0.236,0.038,0.438,0.104,0.609,0.196c0.168,0.093,0.301,0.214,0.395,0.366c0.098,0.151,0.145,0.337,0.145,0.558
				c0,0.334-0.172,0.598-0.508,0.792c0.277,0.1,0.469,0.237,0.57,0.41c0.102,0.173,0.152,0.368,0.152,0.585
				c0,0.439-0.168,0.769-0.504,0.99C21.928,6.718,21.428,6.831,20.764,6.831z M20.262,4.234h0.48c0.307,0,0.525-0.036,0.656-0.111
				c0.133-0.075,0.197-0.194,0.197-0.359c0-0.169-0.068-0.288-0.203-0.356s-0.336-0.102-0.6-0.102c-0.082,0-0.174,0.001-0.273,0.003
				c-0.096,0.001-0.182,0.007-0.258,0.015V4.234z M20.262,4.952v1.08c0.07,0.007,0.148,0.015,0.232,0.018
				c0.086,0.004,0.18,0.007,0.281,0.007c0.295,0,0.537-0.04,0.719-0.12c0.182-0.082,0.273-0.23,0.273-0.448
				c0-0.193-0.076-0.331-0.23-0.414c-0.152-0.082-0.371-0.124-0.654-0.124H20.262z"/>
		</g>
	</g>
</g>
</svg>
