<?xml version="1.0" encoding="utf-8"?>
<!-- Generator: Adobe Illustrator 16.0.0, SVG Export Plug-In . SVG Version: 6.00 Build 0)  -->
<!DOCTYPE svg PUBLIC "-//W3C//DTD SVG 1.1//EN" "http://www.w3.org/Graphics/SVG/1.1/DTD/svg11.dtd">
<svg version="1.1" id="图层_1" xmlns="http://www.w3.org/2000/svg" xmlns:xlink="http://www.w3.org/1999/xlink" x="0px" y="0px"
	 width="32px" height="32px" viewBox="0 0 32 32" enable-background="new 0 0 32 32" xml:space="preserve">
<polygon opacity="0.08" enable-background="new    " points="5.077,32 5.077,1 28.923,1 28.923,23.249 20.172,32 "/>
<polygon opacity="0.1" enable-background="new    " points="5.577,31.5 5.577,1.5 28.423,1.5 28.423,23.042 19.965,31.5 "/>
<polygon opacity="0.2" enable-background="new    " points="5.077,31 5.077,1 27.923,1 27.923,22.542 19.465,31 "/>
<polygon fill="#3E2723" points="5.512,30.5 5.512,1.5 27.488,1.5 27.488,22.335 19.273,30.5 "/>
<g>
	<g>
		
			<linearGradient id="SVGID_1_" gradientUnits="userSpaceOnUse" x1="58.0996" y1="-133.9004" x2="58.0996" y2="-161.9009" gradientTransform="matrix(1 0 0 -1 -41.6001 -131.9004)">
			<stop  offset="0" style="stop-color:#785548"/>
			<stop  offset="1" style="stop-color:#9F9E9F"/>
		</linearGradient>
		<polygon fill="url(#SVGID_1_)" points="6.011,30 6.011,2 26.99,2 26.99,22.114 19.191,30 		"/>
		<polygon fill="#795548" fill-opacity="0.7" points="26.99,22.125 26.99,21.786 18.686,21.786 18.686,30 19.115,30 		"/>
		<path opacity="0.39" fill="#FFFFFF" enable-background="new    " d="M19.104,22.125l7.887,0.011L19.115,30L19.104,22.125z"/>
	</g>
	<path fill="#FFFFFF" d="M13.508,7.397h-0.711v9.093h-0.536V7.397h-0.707v9.093h-0.536V7.397h-0.708v9.093H9.773V7.397H9.067v9.093
		H8.882v3.852h4.867V16.49h-0.241V7.397z M13.041,19.223H9.587V16.99h3.454V19.223z"/>
	<g>
		<rect x="6.006" y="2" opacity="0.8" fill="#FFFFFF" enable-background="new    " width="20.988" height="5.367"/>
		<g enable-background="new    ">
			<path fill="#5D4037" d="M13.584,6.775c-0.049-0.145-0.103-0.294-0.159-0.447c-0.057-0.153-0.113-0.306-0.168-0.458h-1.721
				c-0.055,0.152-0.111,0.305-0.166,0.458c-0.056,0.153-0.107,0.303-0.157,0.446h-1.028c0.164-0.45,0.322-0.867,0.47-1.25
				c0.149-0.382,0.295-0.742,0.438-1.08c0.142-0.338,0.282-0.659,0.419-0.962c0.139-0.304,0.283-0.601,0.431-0.891h0.94
				c0.144,0.29,0.286,0.587,0.427,0.891c0.14,0.304,0.282,0.625,0.424,0.962c0.143,0.338,0.289,0.698,0.438,1.08
				c0.149,0.383,0.306,0.799,0.472,1.25H13.584z M12.394,3.541c-0.024,0.06-0.055,0.143-0.099,0.248
				c-0.042,0.105-0.091,0.225-0.144,0.362c-0.055,0.138-0.117,0.288-0.182,0.453c-0.067,0.165-0.137,0.337-0.206,0.519h1.26
				c-0.067-0.181-0.133-0.354-0.197-0.521c-0.062-0.165-0.122-0.316-0.178-0.453c-0.059-0.138-0.108-0.258-0.15-0.363
				C12.454,3.682,12.419,3.6,12.394,3.541z"/>
			<path fill="#5D4037" d="M16.5,2.544c0.659,0,1.167,0.112,1.518,0.335c0.352,0.224,0.527,0.571,0.527,1.041
				c0,0.293-0.07,0.532-0.213,0.715c-0.141,0.184-0.346,0.327-0.611,0.431c0.088,0.105,0.18,0.225,0.277,0.359
				s0.195,0.275,0.291,0.423c0.096,0.146,0.186,0.299,0.275,0.458c0.09,0.159,0.172,0.314,0.248,0.467h-1.109
				c-0.082-0.137-0.162-0.275-0.246-0.417c-0.082-0.14-0.166-0.277-0.254-0.41c-0.088-0.133-0.172-0.259-0.26-0.377
				c-0.084-0.119-0.168-0.226-0.252-0.323H16.2v1.526H15.21V2.653c0.217-0.041,0.439-0.068,0.669-0.084
				C16.111,2.552,16.317,2.544,16.5,2.544z M16.557,3.347c-0.072,0-0.138,0.002-0.193,0.006c-0.058,0.003-0.112,0.007-0.164,0.012
				V4.5h0.281c0.373,0,0.638-0.044,0.8-0.133c0.16-0.088,0.242-0.24,0.242-0.453c0-0.205-0.084-0.351-0.246-0.438
				S16.875,3.347,16.557,3.347z"/>
			<path fill="#5D4037" d="M21.34,6.86c-0.713,0-1.26-0.189-1.637-0.568c-0.373-0.378-0.561-0.915-0.561-1.611
				c0-0.346,0.059-0.654,0.172-0.926c0.113-0.271,0.271-0.501,0.469-0.688c0.201-0.187,0.438-0.329,0.711-0.426
				c0.277-0.097,0.576-0.145,0.898-0.145c0.186,0,0.355,0.014,0.506,0.04c0.152,0.026,0.289,0.056,0.4,0.091
				c0.115,0.034,0.213,0.069,0.287,0.106c0.076,0.036,0.131,0.064,0.166,0.084l-0.287,0.761c-0.137-0.068-0.293-0.126-0.473-0.175
				c-0.182-0.048-0.385-0.073-0.613-0.073c-0.15,0-0.301,0.024-0.447,0.073s-0.275,0.126-0.389,0.231
				c-0.111,0.106-0.201,0.245-0.27,0.414c-0.066,0.168-0.102,0.375-0.102,0.615c0,0.193,0.021,0.374,0.068,0.54
				c0.043,0.167,0.115,0.311,0.215,0.432c0.098,0.121,0.229,0.216,0.391,0.286c0.16,0.07,0.357,0.106,0.584,0.106
				c0.145,0,0.271-0.008,0.389-0.024c0.113-0.016,0.215-0.035,0.303-0.057c0.092-0.023,0.168-0.047,0.236-0.076
				s0.129-0.055,0.184-0.079l0.273,0.754c-0.139,0.081-0.336,0.153-0.592,0.218C21.969,6.827,21.676,6.86,21.34,6.86z"/>
		</g>
	</g>
</g>
</svg>
