<?xml version="1.0" encoding="utf-8"?>
<!-- Generator: Adobe Illustrator 16.0.0, SVG Export Plug-In . SVG Version: 6.00 Build 0)  -->
<!DOCTYPE svg PUBLIC "-//W3C//DTD SVG 1.1//EN" "http://www.w3.org/Graphics/SVG/1.1/DTD/svg11.dtd">
<svg version="1.1" id="图层_1" xmlns="http://www.w3.org/2000/svg" xmlns:xlink="http://www.w3.org/1999/xlink" x="0px" y="0px"
	 width="32px" height="32px" viewBox="0 0 32 32" enable-background="new 0 0 32 32" xml:space="preserve">
<g id="surface1">
	<polygon opacity="0.08" enable-background="new    " points="4.625,32 4.625,1 28.375,1 28.375,23.258 19.633,32 	"/>
	<polygon opacity="0.1" enable-background="new    " points="5.125,31.5 5.125,1.5 27.875,1.5 27.875,23.051 19.426,31.5 	"/>
	<polygon opacity="0.2" enable-background="new    " points="4.625,31 4.625,1 27.375,1 27.375,22.551 18.926,31 	"/>
	<g>
		
			<linearGradient id="SVGID_1_" gradientUnits="userSpaceOnUse" x1="265.6006" y1="2393.4414" x2="265.6006" y2="2364.4414" gradientTransform="matrix(1 0 0 1 -249.6006 -2362.9414)">
			<stop  offset="0" style="stop-color:#F57C00"/>
			<stop  offset="0.099" style="stop-color:#F78B0C"/>
			<stop  offset="0.3289" style="stop-color:#FAA823"/>
			<stop  offset="0.5576" style="stop-color:#FDBC33"/>
			<stop  offset="0.7827" style="stop-color:#FEC93D"/>
			<stop  offset="1" style="stop-color:#FFCD40"/>
		</linearGradient>
		<path fill="url(#SVGID_1_)" d="M18.719,30.5l8.156-8.156V1.5H5.125v29H18.719z"/>
		<polygon fill="#EE6F0B" fill-opacity="0.3922" points="18.266,21.891 18.266,30.5 18.719,30.5 26.875,22.344 26.875,21.891 		"/>
		<path fill="#FFFFFF" fill-opacity="0.3922" d="M18.719,22.344h8.149L18.719,30.5V22.344z"/>
		<g>
			<path fill="#EE6F0B" d="M26.375,2v20.137L18.512,30h-6.137h-6.75V2H26.375 M26.875,1.5H5.125v29h7.25h6.344l8.156-8.156V1.5
				L26.875,1.5z"/>
		</g>
	</g>
	<g opacity="0.8">
		<path fill="#FFFFFF" d="M14.041,17.603c0,0-0.572,0.316,0.405,0.424c1.186,0.128,1.79,0.11,3.094-0.125
			c0,0,0.34,0.202,0.819,0.377C15.437,19.468,11.747,18.21,14.041,17.603"/>
		<path fill="#FFFFFF" d="M13.681,16.054c0,0-0.641,0.452,0.336,0.543c1.268,0.124,2.264,0.136,3.991-0.18
			c0,0,0.241,0.231,0.614,0.355C15.092,17.755,11.152,16.851,13.681,16.054"/>
		<path fill="#FFFFFF" d="M16.695,13.427c0.719,0.782-0.192,1.492-0.192,1.492s1.83-0.899,0.991-2.018
			c-0.784-1.046-1.388-1.563,1.871-3.356C19.365,9.545,14.253,10.758,16.695,13.427"/>
		<path fill="#FFFFFF" d="M20.558,18.749c0,0,0.425,0.334-0.465,0.586c-1.688,0.484-7.021,0.631-8.504,0.019
			c-0.529-0.217,0.466-0.525,0.784-0.586c0.328-0.069,0.512-0.056,0.512-0.056c-0.591-0.396-3.83,0.775-1.641,1.112
			C17.204,20.741,22.106,19.414,20.558,18.749"/>
		<path fill="#FFFFFF" d="M14.313,14.45c0,0-2.716,0.607-0.96,0.829c0.738,0.097,2.213,0.074,3.592-0.037
			c1.118-0.087,2.248-0.276,2.248-0.276s-0.396,0.158-0.682,0.347c-2.756,0.687-8.08,0.363-6.549-0.338
			C13.262,14.381,14.313,14.45,14.313,14.45"/>
		<path fill="#FFFFFF" d="M19.181,17.026c2.802-1.378,1.506-2.705,0.604-2.526c-0.221,0.042-0.318,0.083-0.318,0.083
			s0.078-0.124,0.239-0.175c1.789-0.598,3.163,1.755-0.581,2.693C19.124,17.101,19.17,17.063,19.181,17.026"/>
		<path fill="#FFFFFF" d="M17.494,6.655c0,0,1.552,1.471-1.471,3.734c-2.425,1.814-0.555,2.848,0,4.032
			c-1.415-1.212-2.457-2.276-1.762-3.268C15.285,9.698,18.12,8.993,17.494,6.655"/>
		<path fill="#FFFFFF" d="M14.589,20.77c2.687,0.16,6.816-0.095,6.919-1.296c0,0-0.189,0.456-2.228,0.819
			c-2.295,0.405-5.125,0.359-6.802,0.098C12.479,20.391,12.825,20.663,14.589,20.77"/>
	</g>
</g>
</svg>
