<?xml version="1.0" encoding="utf-8"?>
<!-- Generator: Adobe Illustrator 21.0.0, SVG Export Plug-In . SVG Version: 6.00 Build 0)  -->
<svg version="1.1" id="图层_1" xmlns="http://www.w3.org/2000/svg" xmlns:xlink="http://www.w3.org/1999/xlink" x="0px" y="0px"
	 viewBox="0 0 32 32" style="enable-background:new 0 0 32 32;" xml:space="preserve">
<style type="text/css">
	.st0{opacity:0.08;enable-background:new    ;}
	.st1{opacity:0.1;enable-background:new    ;}
	.st2{opacity:0.2;enable-background:new    ;}
	.st3{fill:#455A64;}
	.st4{fill:url(#SVGID_1_);}
	.st5{opacity:0.8;fill:#FFFFFF;enable-background:new    ;}
</style>
<rect x="0.5" y="1" class="st0" width="31" height="31"/>
<rect x="1" y="1.5" class="st1" width="30" height="30"/>
<rect x="0.5" y="1" class="st2" width="30" height="30"/>
<rect x="1" y="1.5" class="st3" width="29" height="29"/>
<g>
	
		<linearGradient id="SVGID_1_" gradientUnits="userSpaceOnUse" x1="57.1001" y1="-1429.1804" x2="57.1001" y2="-1457.1804" gradientTransform="matrix(1 0 0 -1 -41.6001 -1427.1804)">
		<stop  offset="0" style="stop-color:#90A4AE"/>
		<stop  offset="0.1378" style="stop-color:#849AA5"/>
		<stop  offset="0.4226" style="stop-color:#708A97"/>
		<stop  offset="0.7096" style="stop-color:#64808E"/>
		<stop  offset="1" style="stop-color:#607D8B"/>
	</linearGradient>
	<rect x="1.5" y="2" class="st4" width="28" height="28"/>
	<path class="st5" d="M22.4,19.7c0,0,0-0.1,0.1-0.1c0-0.1,0.1-0.2,0.1-0.2l0,0c0.2-0.4,0.4-0.9,0.5-1.4H25v-3.8h-1.9
		c-0.2-0.8-0.5-1.5-0.9-2.2l1.3-1.3L20.9,8l-1.3,1.3c-0.7-0.4-1.4-0.7-2.2-0.9l0,0V6.5h-3.8v1.9l0,0c-0.8,0.2-1.5,0.5-2.2,0.9
		L10.1,8l-2.6,2.7L8.8,12c-0.4,0.7-0.7,1.4-0.9,2.2H6V18h1.9c0.2,0.8,0.5,1.5,0.9,2.2l0,0l-1.3,1.3l2.7,2.7l1.3-1.3
		c0.7,0.4,1.4,0.7,2.2,0.9v1.8h3.8v-1.8l0,0l0,0c0.8-0.2,1.5-0.5,2.2-0.9l1.3,1.3l2.7-2.7l-1.3-1.3l0,0c0-0.1,0.1-0.2,0.1-0.2
		C22.4,19.8,22.4,19.7,22.4,19.7z M15.5,22c-3.3,0-6-2.7-6-6s2.7-6,6-6c0.7,0,1.3,0.1,1.9,0.3l0,0c2.4,0.8,4.1,3,4.1,5.7
		c0,0.2,0,0.3,0,0.5l0,0c0,0.5-0.1,0.9-0.3,1.4l0,0c-0.1,0.3-0.2,0.6-0.3,0.8l0,0c-0.1,0.1-0.1,0.3-0.2,0.4l0,0
		c-0.1,0.1-0.2,0.2-0.3,0.4l0,0c-0.1,0.1-0.2,0.2-0.3,0.3l0,0c-0.2,0.2-0.4,0.4-0.6,0.6c0,0,0,0-0.1,0c-0.1,0.1-0.2,0.2-0.3,0.3
		c0,0,0,0-0.1,0c-0.1,0.1-0.2,0.1-0.3,0.2l0,0c-0.1,0.1-0.2,0.1-0.4,0.2h-0.1c-0.1,0.1-0.2,0.1-0.4,0.2l0,0c-0.1,0-0.2,0.1-0.3,0.1
		C16.8,21.9,16.2,22,15.5,22z"/>
</g>
</svg>
