<?xml version="1.0" encoding="utf-8"?>
<!-- Generator: Adobe Illustrator 16.0.0, SVG Export Plug-In . SVG Version: 6.00 Build 0)  -->
<!DOCTYPE svg PUBLIC "-//W3C//DTD SVG 1.1//EN" "http://www.w3.org/Graphics/SVG/1.1/DTD/svg11.dtd">
<svg version="1.1" id="图层_1" xmlns="http://www.w3.org/2000/svg" xmlns:xlink="http://www.w3.org/1999/xlink" x="0px" y="0px"
	 width="32px" height="32px" viewBox="0 0 32 32" enable-background="new 0 0 32 32" xml:space="preserve">
<g id="surface1">
	<polygon opacity="0.08" enable-background="new    " points="4.625,32 4.625,1 28.375,1 28.375,23.258 19.633,32 	"/>
	<polygon opacity="0.1" enable-background="new    " points="5.125,31.5 5.125,1.5 27.875,1.5 27.875,23.051 19.426,31.5 	"/>
	<polygon opacity="0.2" enable-background="new    " points="4.625,31 4.625,1 27.375,1 27.375,22.551 18.926,31 	"/>
</g>
<linearGradient id="SVGID_1_" gradientUnits="userSpaceOnUse" x1="265.6006" y1="2393.4414" x2="265.6006" y2="2364.4414" gradientTransform="matrix(1 0 0 1 -249.6006 -2362.9414)">
	<stop  offset="0" style="stop-color:#3F51B5"/>
	<stop  offset="0.258" style="stop-color:#4355B7"/>
	<stop  offset="0.5253" style="stop-color:#5060BB"/>
	<stop  offset="0.7959" style="stop-color:#6473C3"/>
	<stop  offset="1" style="stop-color:#7986CB"/>
</linearGradient>
<path fill="url(#SVGID_1_)" d="M18.719,30.5l8.156-8.156V1.5H5.125v29H18.719z"/>
<polygon fill="#311B92" fill-opacity="0.3922" points="18.266,21.891 18.266,30.5 18.719,30.5 26.875,22.344 26.875,21.891 "/>
<path fill="#FFFFFF" fill-opacity="0.3922" d="M18.719,22.344h8.149L18.719,30.5V22.344z"/>
<g opacity="0.8">
	<path fill="#FFFFFF" d="M19.448,12.179c-0.146,0-0.283,0.065-0.418,0.205c-0.135,0.135-0.244,0.317-0.325,0.547
		c-0.082,0.227-0.121,0.478-0.121,0.756c0,0.161,0.039,0.292,0.117,0.391c0.078,0.094,0.188,0.145,0.326,0.145
		c0.141,0,0.275-0.072,0.406-0.21c0.128-0.14,0.23-0.333,0.312-0.573c0.078-0.25,0.12-0.491,0.12-0.728
		C19.865,12.354,19.725,12.179,19.448,12.179z"/>
	<path fill="#FFFFFF" d="M13.582,12.179c-0.145,0-0.287,0.065-0.421,0.205c-0.135,0.135-0.241,0.317-0.322,0.547
		c-0.082,0.227-0.121,0.478-0.121,0.756c0,0.161,0.039,0.292,0.117,0.391c0.078,0.094,0.185,0.145,0.322,0.145
		c0.142,0,0.28-0.072,0.407-0.21c0.131-0.14,0.233-0.333,0.312-0.573c0.082-0.25,0.12-0.491,0.12-0.728
		C13.996,12.354,13.858,12.179,13.582,12.179z"/>
	<path fill="#FFFFFF" d="M16,8.297c-4.004,0-7.25,2.23-7.25,4.984s3.246,4.984,7.25,4.984s7.25-2.23,7.25-4.984
		S20.004,8.297,16,8.297z M20.613,13.796c-0.143,0.357-0.34,0.639-0.592,0.851c-0.255,0.208-0.531,0.313-0.832,0.313
		c-0.177,0-0.329-0.037-0.457-0.113c-0.127-0.072-0.244-0.2-0.35-0.384h-0.029c-0.024,0.325-0.07,0.621-0.134,0.899l-0.23,1.034
		h-0.956l0.333-1.498h-0.927l0.436-1.986c0.031-0.14,0.049-0.26,0.049-0.363c0-0.248-0.113-0.372-0.344-0.372
		c-0.194,0-0.371,0.113-0.53,0.347c-0.16,0.23-0.283,0.551-0.375,0.968l-0.308,1.405h-0.959l0.178-0.801
		c-0.123,0.213-0.261,0.404-0.433,0.549c-0.251,0.208-0.528,0.313-0.832,0.313c-0.177,0-0.326-0.037-0.453-0.113
		c-0.127-0.072-0.244-0.2-0.354-0.384h-0.025c-0.025,0.325-0.071,0.621-0.138,0.899l-0.227,1.034h-0.956l1.087-4.897h0.729
		l-0.053,0.515h0.028c0.291-0.387,0.627-0.58,1.005-0.58c0.308,0,0.552,0.109,0.733,0.329c0.14,0.174,0.225,0.402,0.255,0.683
		l0.506-2.279h0.956c-0.085,0.366-0.148,0.646-0.191,0.844c-0.046,0.197-0.135,0.512-0.273,0.942h0.025
		c0.131-0.158,0.276-0.282,0.439-0.375c0.159-0.096,0.348-0.143,0.56-0.143c0.29,0,0.517,0.088,0.676,0.256
		c0.159,0.167,0.241,0.409,0.241,0.726c0,0.054-0.007,0.118-0.014,0.182l0.244-1.098h0.729l-0.053,0.515h0.028
		c0.294-0.387,0.63-0.58,1.009-0.58c0.308,0,0.553,0.109,0.729,0.329c0.182,0.219,0.27,0.522,0.27,0.913
		C20.832,13.062,20.762,13.439,20.613,13.796z"/>
</g>
</svg>
