<?xml version="1.0" encoding="utf-8"?>
<!-- Generator: Adobe Illustrator 16.0.0, SVG Export Plug-In . SVG Version: 6.00 Build 0)  -->
<!DOCTYPE svg PUBLIC "-//W3C//DTD SVG 1.1//EN" "http://www.w3.org/Graphics/SVG/1.1/DTD/svg11.dtd">
<svg version="1.1" id="图层_1" xmlns="http://www.w3.org/2000/svg" xmlns:xlink="http://www.w3.org/1999/xlink" x="0px" y="0px"
	 width="32px" height="32px" viewBox="0 0 32 32" enable-background="new 0 0 32 32" xml:space="preserve">
<polygon opacity="0.08" enable-background="new    " points="5.077,32 5.077,1 28.923,1 28.923,23.249 20.172,32 "/>
<polygon opacity="0.1" enable-background="new    " points="5.577,31.5 5.577,1.5 28.423,1.5 28.423,23.042 19.965,31.5 "/>
<polygon opacity="0.2" enable-background="new    " points="5.077,31 5.077,1 27.923,1 27.923,22.542 19.465,31 "/>
<polygon fill="#3E2723" points="5.512,30.5 5.512,1.5 27.488,1.5 27.488,22.335 19.273,30.5 "/>
<g>
	<g>
		
			<linearGradient id="SVGID_1_" gradientUnits="userSpaceOnUse" x1="58.0996" y1="-133.9004" x2="58.0996" y2="-161.9009" gradientTransform="matrix(1 0 0 -1 -41.6001 -131.9004)">
			<stop  offset="0" style="stop-color:#785548"/>
			<stop  offset="1" style="stop-color:#9F9E9F"/>
		</linearGradient>
		<polygon fill="url(#SVGID_1_)" points="6.011,30 6.011,2 26.99,2 26.99,22.114 19.191,30 		"/>
		<polygon fill="#795548" fill-opacity="0.7" points="26.99,22.125 26.99,21.786 18.686,21.786 18.686,30 19.115,30 		"/>
		<path opacity="0.39" fill="#FFFFFF" enable-background="new    " d="M19.104,22.125l7.887,0.011L19.115,30L19.104,22.125z"/>
	</g>
	<path fill="#FFFFFF" d="M13.508,7.397h-0.711v9.093h-0.536V7.397h-0.707v9.093h-0.536V7.397h-0.708v9.093H9.773V7.397H9.067v9.093
		H8.882v3.852h4.867V16.49h-0.241V7.397z M13.041,19.223H9.587V16.99h3.454V19.223z"/>
	<g>
		<rect x="6.006" y="2" opacity="0.8" fill="#FFFFFF" enable-background="new    " width="20.988" height="5.367"/>
		<g enable-background="new    ">
			<path fill="#5D4037" d="M9.566,6.058c0.139,0,0.255-0.011,0.347-0.033c0.091-0.023,0.164-0.055,0.219-0.091
				c0.055-0.041,0.093-0.084,0.115-0.137c0.02-0.053,0.031-0.111,0.031-0.175c0-0.137-0.067-0.25-0.204-0.341
				c-0.135-0.09-0.368-0.188-0.698-0.292C9.231,4.94,9.087,4.885,8.943,4.823C8.799,4.761,8.669,4.682,8.557,4.587
				C8.442,4.493,8.349,4.378,8.276,4.243C8.205,4.108,8.168,3.944,8.168,3.752c0-0.193,0.038-0.368,0.115-0.522
				s0.184-0.287,0.323-0.396c0.14-0.108,0.31-0.192,0.508-0.25c0.199-0.059,0.425-0.088,0.675-0.088c0.295,0,0.552,0.03,0.767,0.091
				c0.217,0.06,0.394,0.127,0.534,0.199l-0.286,0.743c-0.122-0.061-0.259-0.114-0.41-0.16c-0.149-0.046-0.33-0.069-0.542-0.069
				c-0.239,0-0.408,0.031-0.512,0.094C9.237,3.455,9.186,3.55,9.186,3.679c0,0.077,0.018,0.142,0.057,0.193
				c0.038,0.052,0.091,0.1,0.162,0.142c0.069,0.042,0.149,0.081,0.241,0.114c0.091,0.035,0.191,0.07,0.303,0.105
				c0.228,0.081,0.426,0.161,0.596,0.239c0.17,0.079,0.312,0.169,0.423,0.274c0.113,0.105,0.197,0.228,0.252,0.368
				C11.273,5.257,11.3,5.427,11.3,5.627c0,0.39-0.144,0.693-0.432,0.908C10.58,6.752,10.146,6.86,9.566,6.86
				c-0.195,0-0.372-0.011-0.528-0.033S8.743,6.776,8.622,6.745c-0.12-0.031-0.224-0.067-0.312-0.104
				C8.225,6.606,8.152,6.572,8.092,6.539l0.281-0.748c0.131,0.069,0.292,0.129,0.485,0.184C9.051,6.029,9.286,6.058,9.566,6.058z"/>
			<path fill="#5D4037" d="M14.718,2.592h0.989v4.184h-0.989V5h-1.665v1.775h-0.992V2.592h0.992v1.6h1.665V2.592z"/>
			<path fill="#5D4037" d="M19.678,6.776c-0.047-0.146-0.1-0.295-0.156-0.448s-0.113-0.306-0.168-0.458h-1.721
				c-0.055,0.151-0.111,0.304-0.168,0.458c-0.055,0.153-0.105,0.303-0.154,0.448h-1.03c0.165-0.452,0.325-0.868,0.471-1.25
				c0.148-0.382,0.295-0.742,0.436-1.08c0.143-0.338,0.285-0.659,0.422-0.962c0.139-0.304,0.283-0.601,0.43-0.891h0.939
				c0.146,0.29,0.287,0.587,0.428,0.891s0.283,0.625,0.426,0.962c0.141,0.338,0.287,0.698,0.438,1.08
				c0.148,0.383,0.305,0.798,0.471,1.25H19.678z M18.49,3.541c-0.023,0.06-0.055,0.143-0.1,0.248
				c-0.041,0.105-0.09,0.225-0.145,0.362c-0.055,0.138-0.115,0.288-0.184,0.453c-0.064,0.165-0.135,0.337-0.203,0.519h1.258
				c-0.066-0.181-0.131-0.354-0.195-0.521c-0.064-0.165-0.123-0.316-0.18-0.453c-0.057-0.138-0.107-0.258-0.15-0.363
				C18.551,3.682,18.516,3.6,18.49,3.541z"/>
			<path fill="#5D4037" d="M22.596,2.544c0.658,0,1.166,0.112,1.518,0.335c0.352,0.224,0.527,0.571,0.527,1.041
				c0,0.293-0.07,0.532-0.211,0.715c-0.143,0.184-0.348,0.327-0.613,0.431c0.088,0.105,0.18,0.225,0.277,0.359
				s0.195,0.274,0.291,0.424c0.096,0.146,0.186,0.299,0.275,0.458s0.172,0.315,0.248,0.468h-1.107
				c-0.082-0.138-0.164-0.277-0.246-0.417c-0.082-0.14-0.168-0.277-0.256-0.41c-0.088-0.133-0.172-0.259-0.26-0.377
				c-0.084-0.119-0.168-0.226-0.252-0.323h-0.49v1.527h-0.99V2.653c0.217-0.041,0.439-0.068,0.668-0.084
				C22.207,2.552,22.412,2.544,22.596,2.544z M22.652,3.347c-0.072,0-0.137,0.002-0.191,0.006c-0.059,0.003-0.113,0.007-0.164,0.012
				V4.5h0.279c0.373,0,0.639-0.044,0.801-0.133c0.16-0.088,0.242-0.24,0.242-0.453c0-0.205-0.084-0.351-0.246-0.438
				S22.971,3.347,22.652,3.347z"/>
		</g>
	</g>
</g>
</svg>
