<?xml version="1.0" encoding="utf-8"?>
<!-- Generator: Adobe Illustrator 16.0.0, SVG Export Plug-In . SVG Version: 6.00 Build 0)  -->
<!DOCTYPE svg PUBLIC "-//W3C//DTD SVG 1.1//EN" "http://www.w3.org/Graphics/SVG/1.1/DTD/svg11.dtd">
<svg version="1.1" id="图层_1" xmlns="http://www.w3.org/2000/svg" xmlns:xlink="http://www.w3.org/1999/xlink" x="0px" y="0px"
	 width="32px" height="32px" viewBox="0 0 32 32" enable-background="new 0 0 32 32" xml:space="preserve">
<polygon opacity="0.08" enable-background="new    " points="5.077,32 5.077,1 28.923,1 28.923,23.249 20.172,32 "/>
<polygon opacity="0.1" enable-background="new    " points="5.577,31.5 5.577,1.5 28.423,1.5 28.423,23.042 19.965,31.5 "/>
<polygon opacity="0.2" enable-background="new    " points="5.077,31 5.077,1 27.923,1 27.923,22.542 19.465,31 "/>
<polygon fill="#01579B" points="5.512,30.5 5.512,1.5 27.488,1.5 27.488,22.335 19.273,30.5 "/>
<g>
	<g>
		<g>
			<g>
				
					<linearGradient id="SVGID_1_" gradientUnits="userSpaceOnUse" x1="99.6992" y1="-580.8003" x2="99.6992" y2="-552.8008" gradientTransform="matrix(1 0 0 -1 -83.2002 -550.8008)">
					<stop  offset="0" style="stop-color:#2196F3"/>
					<stop  offset="0.5828" style="stop-color:#3DBAE8"/>
					<stop  offset="1" style="stop-color:#4DD0E1"/>
				</linearGradient>
				<polygon fill="url(#SVGID_1_)" points="6.009,30 6.009,2 26.987,2 26.987,22.125 19.112,30 				"/>
			</g>
			<polygon fill="#01579B" fill-opacity="0.39" points="26.987,22.125 26.987,21.786 18.681,21.786 18.681,30 19.112,30 			"/>
			<path fill="#FFFFFF" fill-opacity="0.3922" d="M19.102,22.125l7.888,0.011L19.112,30L19.102,22.125z"/>
		</g>
		<g>
			<circle opacity="0.8" fill="#FFFFFF" enable-background="new    " cx="20.221" cy="13.259" r="1.482"/>
			<path opacity="0.8" fill="#FFFFFF" enable-background="new    " d="M9.208,10.167v9.566h14.584v-9.566H9.208z M22.74,11.217
				v7.467l0,0l-3.384-2.403l-2.416,1.48l-3.102-3.744l-3.583,4.667v-7.467H22.74z"/>
		</g>
	</g>
	<g>
		<rect x="6.005" y="2" opacity="0.8" fill="#FFFFFF" enable-background="new    " width="20.99" height="5.367"/>
		<g enable-background="new    ">
			<path fill="#0288D1" d="M13.704,2.562v0.803h-1.328v3.38h-0.991v-3.38h-1.328V2.562H13.704z"/>
			<path fill="#0288D1" d="M14.339,2.562h0.991v4.183h-0.991V2.562z"/>
			<path fill="#0288D1" d="M16.348,6.744V2.562h2.947v0.791h-1.957v0.875h1.742v0.791h-1.742v1.726H16.348z"/>
			<path fill="#0288D1" d="M19.995,6.744V2.562h2.945v0.791h-1.954v0.875h1.739v0.791h-1.739v1.726H19.995z"/>
		</g>
	</g>
</g>
</svg>
