<?xml version="1.0" encoding="utf-8"?>
<!-- Generator: Adobe Illustrator 16.0.0, SVG Export Plug-In . SVG Version: 6.00 Build 0)  -->
<!DOCTYPE svg PUBLIC "-//W3C//DTD SVG 1.1//EN" "http://www.w3.org/Graphics/SVG/1.1/DTD/svg11.dtd">
<svg version="1.1" id="图层_1" xmlns="http://www.w3.org/2000/svg" xmlns:xlink="http://www.w3.org/1999/xlink" x="0px" y="0px"
	 width="32px" height="32px" viewBox="0 0 32 32" enable-background="new 0 0 32 32" xml:space="preserve">
<polygon opacity="0.08" enable-background="new    " points="5.077,32 5.077,1 28.923,1 28.923,23.249 20.172,32 "/>
<polygon opacity="0.1" enable-background="new    " points="5.577,31.5 5.577,1.5 28.423,1.5 28.423,23.042 19.965,31.5 "/>
<polygon opacity="0.2" enable-background="new    " points="5.077,31 5.077,1 27.923,1 27.923,22.542 19.465,31 "/>
<polygon fill="#01579B" points="5.512,30.5 5.512,1.5 27.488,1.5 27.488,22.335 19.273,30.5 "/>
<g>
	<g>
		<g>
			<g>
				
					<linearGradient id="SVGID_1_" gradientUnits="userSpaceOnUse" x1="99.6992" y1="-580.8003" x2="99.6992" y2="-552.8008" gradientTransform="matrix(1 0 0 -1 -83.2002 -550.8008)">
					<stop  offset="0" style="stop-color:#2196F3"/>
					<stop  offset="0.5828" style="stop-color:#3DBAE8"/>
					<stop  offset="1" style="stop-color:#4DD0E1"/>
				</linearGradient>
				<polygon fill="url(#SVGID_1_)" points="6.009,30 6.009,2 26.987,2 26.987,22.125 19.112,30 				"/>
			</g>
			<polygon fill="#01579B" fill-opacity="0.39" points="26.987,22.125 26.987,21.786 18.681,21.786 18.681,30 19.112,30 			"/>
			<path fill="#FFFFFF" fill-opacity="0.3922" d="M19.102,22.125l7.888,0.011L19.112,30L19.102,22.125z"/>
		</g>
		<g>
			<circle opacity="0.8" fill="#FFFFFF" enable-background="new    " cx="20.221" cy="13.259" r="1.482"/>
			<path opacity="0.8" fill="#FFFFFF" enable-background="new    " d="M9.208,10.167v9.566h14.584v-9.566H9.208z M22.74,11.217
				v7.467l0,0l-3.384-2.403l-2.416,1.48l-3.102-3.744l-3.583,4.667v-7.467H22.74z"/>
		</g>
	</g>
	<g>
		<rect x="6.005" y="2" opacity="0.8" fill="#FFFFFF" enable-background="new    " width="20.99" height="5.367"/>
		<g enable-background="new    ">
			<path fill="#0288D1" d="M13.841,2.562v0.803h-1.328v3.38h-0.991v-3.38h-1.328V2.562H13.841z"/>
			<path fill="#0288D1" d="M16.476,3.286c-0.459,0-0.795,0.121-0.999,0.365c-0.206,0.244-0.308,0.577-0.308,0.999
				c0,0.205,0.024,0.392,0.075,0.559c0.051,0.167,0.128,0.311,0.23,0.431c0.102,0.121,0.229,0.214,0.381,0.281
				c0.153,0.066,0.33,0.099,0.534,0.099c0.109,0,0.204-0.002,0.283-0.005c0.078-0.005,0.147-0.012,0.206-0.025V4.535h0.992v2.071
				c-0.12,0.044-0.31,0.091-0.573,0.142c-0.263,0.05-0.587,0.076-0.972,0.076c-0.33,0-0.629-0.048-0.898-0.145
				c-0.27-0.097-0.5-0.237-0.689-0.422c-0.19-0.185-0.338-0.413-0.442-0.683c-0.104-0.269-0.156-0.577-0.156-0.923
				c0-0.35,0.058-0.66,0.172-0.929c0.114-0.27,0.271-0.499,0.469-0.685c0.201-0.187,0.434-0.329,0.704-0.426
				c0.268-0.097,0.554-0.145,0.86-0.145c0.208,0,0.394,0.014,0.562,0.039c0.168,0.026,0.31,0.057,0.432,0.091
				c0.119,0.034,0.222,0.069,0.298,0.105c0.081,0.036,0.136,0.064,0.168,0.084L17.52,3.54c-0.137-0.068-0.293-0.128-0.468-0.178
				C16.877,3.311,16.684,3.286,16.476,3.286z"/>
			<path fill="#0288D1" d="M21.745,6.744c-0.052-0.145-0.103-0.294-0.161-0.448c-0.055-0.153-0.112-0.306-0.167-0.458h-1.722
				c-0.055,0.152-0.109,0.306-0.164,0.458c-0.058,0.153-0.109,0.303-0.156,0.447h-1.028c0.164-0.45,0.321-0.867,0.471-1.25
				c0.149-0.382,0.295-0.742,0.438-1.08c0.142-0.338,0.28-0.659,0.419-0.962c0.139-0.304,0.281-0.601,0.431-0.891h0.94
				c0.142,0.29,0.284,0.587,0.427,0.891c0.138,0.303,0.28,0.624,0.423,0.962c0.142,0.338,0.288,0.698,0.438,1.08
				c0.149,0.383,0.306,0.799,0.474,1.25H21.745z M20.553,3.509c-0.022,0.06-0.055,0.143-0.099,0.248
				c-0.04,0.105-0.091,0.225-0.143,0.362c-0.055,0.138-0.116,0.288-0.182,0.453c-0.069,0.165-0.139,0.337-0.208,0.519h1.262
				c-0.069-0.182-0.135-0.354-0.197-0.521c-0.062-0.165-0.124-0.316-0.179-0.453c-0.059-0.138-0.109-0.258-0.149-0.363
				C20.614,3.651,20.578,3.569,20.553,3.509z"/>
		</g>
	</g>
</g>
</svg>
