<?xml version="1.0" encoding="utf-8"?>
<!-- Generator: Adobe Illustrator 16.0.0, SVG Export Plug-In . SVG Version: 6.00 Build 0)  -->
<!DOCTYPE svg PUBLIC "-//W3C//DTD SVG 1.1//EN" "http://www.w3.org/Graphics/SVG/1.1/DTD/svg11.dtd">
<svg version="1.1" id="图层_1" xmlns="http://www.w3.org/2000/svg" xmlns:xlink="http://www.w3.org/1999/xlink" x="0px" y="0px"
	 width="32px" height="32px" viewBox="0 0 32 32" enable-background="new 0 0 32 32" xml:space="preserve">
<polygon opacity="0.08" enable-background="new    " points="5.077,32 5.077,1 28.923,1 28.923,23.249 20.172,32 "/>
<polygon opacity="0.1" enable-background="new    " points="5.577,31.5 5.577,1.5 28.423,1.5 28.423,23.042 19.965,31.5 "/>
<polygon opacity="0.2" enable-background="new    " points="5.077,31 5.077,1 27.923,1 27.923,22.542 19.465,31 "/>
<polygon fill="#0D47A1" points="5.512,30.5 5.512,1.5 27.488,1.5 27.488,22.335 19.273,30.5 "/>
<g>
	<g>
		<g>
			<g>
				<linearGradient id="SVGID_1_" gradientUnits="userSpaceOnUse" x1="16.5088" y1="30" x2="16.5088" y2="2.0005">
					<stop  offset="0" style="stop-color:#3F51B5"/>
					<stop  offset="1" style="stop-color:#64B5F6"/>
				</linearGradient>
				<polygon fill="url(#SVGID_1_)" points="6.021,30 6.021,2 26.998,2 26.998,22.125 19.123,30 				"/>
			</g>
			<polygon fill="#2196F3" fill-opacity="0.7" points="26.998,22.125 26.998,21.786 18.691,21.786 18.691,30 19.123,30 			"/>
			<path opacity="0.39" fill="#FFFFFF" d="M19.112,22.125L27,22.136L19.123,30L19.112,22.125z"/>
		</g>
		<g opacity="0.8">
			<linearGradient id="SVGID_2_" gradientUnits="userSpaceOnUse" x1="9.1299" y1="11.5508" x2="23.877" y2="11.5508">
				<stop  offset="0" style="stop-color:#F6F5F5"/>
				<stop  offset="0.341" style="stop-color:#F1F2F3"/>
				<stop  offset="0.6434" style="stop-color:#E7EAEB"/>
				<stop  offset="0.9302" style="stop-color:#D5DBDF"/>
				<stop  offset="1" style="stop-color:#CFD7DB"/>
			</linearGradient>
			<rect x="9.13" y="11.187" opacity="0.8" fill="url(#SVGID_2_)" enable-background="new    " width="14.747" height="0.729"/>
			<linearGradient id="SVGID_3_" gradientUnits="userSpaceOnUse" x1="9.1299" y1="9.2725" x2="23.877" y2="9.2725">
				<stop  offset="0" style="stop-color:#F6F5F5"/>
				<stop  offset="0.341" style="stop-color:#F1F2F3"/>
				<stop  offset="0.6434" style="stop-color:#E7EAEB"/>
				<stop  offset="0.9302" style="stop-color:#D5DBDF"/>
				<stop  offset="1" style="stop-color:#CFD7DB"/>
			</linearGradient>
			<rect x="9.13" y="8.907" opacity="0.8" fill="url(#SVGID_3_)" enable-background="new    " width="14.747" height="0.731"/>
			<linearGradient id="SVGID_4_" gradientUnits="userSpaceOnUse" x1="16.166" y1="17.1807" x2="23.8662" y2="17.1807">
				<stop  offset="0" style="stop-color:#F6F5F5"/>
				<stop  offset="0.341" style="stop-color:#F1F2F3"/>
				<stop  offset="0.6434" style="stop-color:#E7EAEB"/>
				<stop  offset="0.9302" style="stop-color:#D5DBDF"/>
				<stop  offset="1" style="stop-color:#CFD7DB"/>
			</linearGradient>
			<rect x="16.166" y="13.332" opacity="0.8" fill="url(#SVGID_4_)" enable-background="new    " width="7.7" height="7.697"/>
			<g opacity="0.8">
				<linearGradient id="SVGID_5_" gradientUnits="userSpaceOnUse" x1="9.1299" y1="13.8301" x2="15.5361" y2="13.8301">
					<stop  offset="0" style="stop-color:#F6F5F5"/>
					<stop  offset="0.341" style="stop-color:#F1F2F3"/>
					<stop  offset="0.6434" style="stop-color:#E7EAEB"/>
					<stop  offset="0.9302" style="stop-color:#D5DBDF"/>
					<stop  offset="1" style="stop-color:#CFD7DB"/>
				</linearGradient>
				<rect x="9.13" y="13.464" fill="url(#SVGID_5_)" width="6.406" height="0.731"/>
				<linearGradient id="SVGID_6_" gradientUnits="userSpaceOnUse" x1="9.1299" y1="16.1094" x2="15.5361" y2="16.1094">
					<stop  offset="0" style="stop-color:#F6F5F5"/>
					<stop  offset="0.341" style="stop-color:#F1F2F3"/>
					<stop  offset="0.6434" style="stop-color:#E7EAEB"/>
					<stop  offset="0.9302" style="stop-color:#D5DBDF"/>
					<stop  offset="1" style="stop-color:#CFD7DB"/>
				</linearGradient>
				<rect x="9.13" y="15.746" fill="url(#SVGID_6_)" width="6.406" height="0.728"/>
				<linearGradient id="SVGID_7_" gradientUnits="userSpaceOnUse" x1="9.1299" y1="18.3975" x2="15.5361" y2="18.3975">
					<stop  offset="0" style="stop-color:#F6F5F5"/>
					<stop  offset="0.341" style="stop-color:#F1F2F3"/>
					<stop  offset="0.6434" style="stop-color:#E7EAEB"/>
					<stop  offset="0.9302" style="stop-color:#D5DBDF"/>
					<stop  offset="1" style="stop-color:#CFD7DB"/>
				</linearGradient>
				<rect x="9.13" y="18.033" fill="url(#SVGID_7_)" width="6.406" height="0.729"/>
				<linearGradient id="SVGID_8_" gradientUnits="userSpaceOnUse" x1="9.1299" y1="20.6758" x2="15.5361" y2="20.6758">
					<stop  offset="0" style="stop-color:#F6F5F5"/>
					<stop  offset="0.341" style="stop-color:#F1F2F3"/>
					<stop  offset="0.6434" style="stop-color:#E7EAEB"/>
					<stop  offset="0.9302" style="stop-color:#D5DBDF"/>
					<stop  offset="1" style="stop-color:#CFD7DB"/>
				</linearGradient>
				<rect x="9.13" y="20.311" fill="url(#SVGID_8_)" width="6.406" height="0.73"/>
			</g>
		</g>
	</g>
	<g>
		<rect x="6" y="2" opacity="0.8" fill="#FFFFFF" width="20.989" height="5.367"/>
		<g>
			<path fill="#1976D2" d="M14.821,4.68c0,0.358-0.059,0.673-0.17,0.945c-0.111,0.271-0.266,0.499-0.461,0.682
				c-0.193,0.183-0.427,0.321-0.696,0.413c-0.269,0.093-0.558,0.139-0.866,0.139c-0.301,0-0.585-0.046-0.852-0.139
				c-0.266-0.092-0.499-0.23-0.699-0.413c-0.197-0.183-0.354-0.41-0.469-0.682c-0.115-0.272-0.173-0.587-0.173-0.945
				s0.062-0.673,0.179-0.944c0.12-0.271,0.278-0.5,0.48-0.686c0.201-0.184,0.435-0.323,0.698-0.416
				c0.265-0.093,0.542-0.139,0.835-0.139c0.301,0,0.585,0.046,0.852,0.139c0.266,0.092,0.499,0.231,0.7,0.416
				c0.196,0.186,0.354,0.414,0.468,0.686C14.763,4.007,14.821,4.321,14.821,4.68z M11.46,4.68c0,0.205,0.025,0.391,0.08,0.556
				c0.051,0.165,0.127,0.306,0.228,0.425c0.101,0.119,0.221,0.21,0.364,0.275C12.276,6,12.442,6.032,12.628,6.032
				c0.183,0,0.347-0.033,0.492-0.097c0.147-0.064,0.269-0.156,0.368-0.275c0.101-0.119,0.177-0.26,0.229-0.425
				c0.055-0.165,0.08-0.351,0.08-0.556s-0.025-0.391-0.08-0.558c-0.052-0.167-0.128-0.31-0.229-0.429
				c-0.1-0.118-0.221-0.21-0.368-0.275c-0.146-0.064-0.31-0.097-0.492-0.097c-0.186,0-0.352,0.034-0.496,0.1
				c-0.144,0.066-0.264,0.159-0.364,0.277c-0.101,0.12-0.177,0.262-0.228,0.429C11.485,4.295,11.46,4.479,11.46,4.68z"/>
			<path fill="#1976D2" d="M19.375,4.68c0,0.363-0.059,0.678-0.177,0.948c-0.121,0.27-0.288,0.493-0.505,0.67
				c-0.219,0.177-0.485,0.31-0.799,0.398s-0.663,0.133-1.054,0.133c-0.179,0-0.387-0.007-0.623-0.022
				C15.98,6.793,15.747,6.764,15.52,6.72V2.646c0.228-0.04,0.467-0.067,0.714-0.082c0.248-0.014,0.462-0.021,0.639-0.021
				c0.377,0,0.72,0.04,1.026,0.121c0.306,0.08,0.57,0.207,0.791,0.38c0.221,0.173,0.388,0.395,0.509,0.664
				C19.316,3.978,19.375,4.301,19.375,4.68z M16.509,6.008c0.048,0.004,0.103,0.007,0.164,0.009
				c0.061,0.002,0.134,0.003,0.219,0.003c0.496,0,0.862-0.119,1.102-0.355c0.24-0.238,0.359-0.566,0.359-0.984
				c0-0.438-0.115-0.77-0.343-0.995c-0.229-0.225-0.591-0.338-1.087-0.338c-0.067,0-0.137,0.001-0.21,0.003
				c-0.072,0.002-0.138,0.007-0.204,0.015V6.008z"/>
			<path fill="#1976D2" d="M23.192,2.591v0.803h-1.327v3.38h-0.992v-3.38h-1.327V2.591H23.192z"/>
		</g>
	</g>
</g>
</svg>
