<?xml version="1.0" encoding="utf-8"?>
<!-- Generator: Adobe Illustrator 16.0.0, SVG Export Plug-In . SVG Version: 6.00 Build 0)  -->
<!DOCTYPE svg PUBLIC "-//W3C//DTD SVG 1.1//EN" "http://www.w3.org/Graphics/SVG/1.1/DTD/svg11.dtd">
<svg version="1.1" id="图层_1" xmlns="http://www.w3.org/2000/svg" xmlns:xlink="http://www.w3.org/1999/xlink" x="0px" y="0px"
	 width="32px" height="32px" viewBox="0 0 32 32" enable-background="new 0 0 32 32" xml:space="preserve">
<polygon opacity="0.08" enable-background="new    " points="5.077,32 5.077,1 28.923,1 28.923,23.249 20.172,32 "/>
<polygon opacity="0.1" enable-background="new    " points="5.577,31.5 5.577,1.5 28.423,1.5 28.423,23.042 19.965,31.5 "/>
<polygon opacity="0.2" enable-background="new    " points="5.077,31 5.077,1 27.923,1 27.923,22.542 19.465,31 "/>
<polygon fill="#3E2723" points="5.512,30.5 5.512,1.5 27.488,1.5 27.488,22.335 19.273,30.5 "/>
<g>
	<g>
		
			<linearGradient id="SVGID_1_" gradientUnits="userSpaceOnUse" x1="58.0996" y1="-133.9004" x2="58.0996" y2="-161.9009" gradientTransform="matrix(1 0 0 -1 -41.6001 -131.9004)">
			<stop  offset="0" style="stop-color:#785548"/>
			<stop  offset="1" style="stop-color:#9F9E9F"/>
		</linearGradient>
		<polygon fill="url(#SVGID_1_)" points="6.011,30 6.011,2 26.99,2 26.99,22.114 19.191,30 		"/>
		<polygon fill="#795548" fill-opacity="0.7" points="26.99,22.125 26.99,21.786 18.686,21.786 18.686,30 19.115,30 		"/>
		<path opacity="0.39" fill="#FFFFFF" enable-background="new    " d="M19.104,22.125l7.887,0.011L19.115,30L19.104,22.125z"/>
	</g>
	<path fill="#FFFFFF" d="M13.508,7.397h-0.711v9.093h-0.536V7.397h-0.707v9.093h-0.536V7.397h-0.708v9.093H9.773V7.397H9.067v9.093
		H8.882v3.852h4.867V16.49h-0.241V7.397z M13.041,19.223H9.587V16.99h3.454V19.223z"/>
	<g>
		<rect x="6.006" y="2" opacity="0.8" fill="#FFFFFF" enable-background="new    " width="20.988" height="5.367"/>
		<g enable-background="new    ">
			<path fill="#5D4037" d="M10.801,5.967v0.808H7.86V2.592h0.99v3.375H10.801z"/>
			<path fill="#5D4037" d="M14.656,3.244c-0.137,0.133-0.297,0.305-0.482,0.517c-0.186,0.211-0.379,0.441-0.58,0.691
				c-0.197,0.249-0.394,0.507-0.59,0.772c-0.193,0.266-0.369,0.52-0.521,0.761h2.246v0.79h-3.463V6.214
				c0.119-0.205,0.263-0.433,0.434-0.685c0.173-0.251,0.352-0.505,0.538-0.761c0.188-0.255,0.377-0.502,0.569-0.742
				c0.193-0.24,0.372-0.454,0.538-0.643h-1.976V2.592h3.29V3.244z"/>
			<path fill="#5D4037" d="M16.594,2.592c0.076,0.133,0.164,0.297,0.264,0.492c0.102,0.195,0.205,0.407,0.313,0.634
				c0.109,0.228,0.215,0.46,0.32,0.697c0.107,0.237,0.209,0.46,0.301,0.67c0.094-0.21,0.193-0.433,0.299-0.67
				c0.107-0.237,0.215-0.47,0.324-0.697c0.107-0.227,0.211-0.438,0.311-0.634c0.1-0.195,0.188-0.359,0.264-0.492h0.902
				c0.043,0.278,0.082,0.589,0.117,0.933c0.037,0.345,0.068,0.703,0.098,1.075c0.025,0.372,0.051,0.746,0.076,1.119
				c0.021,0.375,0.041,0.727,0.059,1.056h-0.967c-0.012-0.406-0.029-0.848-0.049-1.328c-0.021-0.479-0.053-0.962-0.098-1.448
				c-0.076,0.168-0.16,0.356-0.254,0.561c-0.092,0.205-0.186,0.41-0.277,0.615s-0.18,0.402-0.264,0.589
				c-0.084,0.187-0.156,0.348-0.219,0.479h-0.689c-0.061-0.132-0.133-0.292-0.217-0.479c-0.084-0.187-0.174-0.384-0.266-0.589
				s-0.184-0.41-0.277-0.615c-0.092-0.205-0.177-0.393-0.254-0.561c-0.042,0.486-0.074,0.97-0.097,1.448
				c-0.02,0.479-0.036,0.921-0.049,1.328h-0.967c0.017-0.33,0.039-0.682,0.061-1.056c0.023-0.374,0.049-0.748,0.076-1.119
				c0.027-0.372,0.059-0.73,0.096-1.075c0.036-0.344,0.076-0.654,0.118-0.933H16.594z"/>
			<path fill="#5D4037" d="M24.076,6.775c-0.049-0.145-0.1-0.294-0.158-0.447c-0.055-0.153-0.113-0.306-0.168-0.458h-1.721
				c-0.055,0.152-0.109,0.305-0.166,0.458c-0.057,0.153-0.107,0.303-0.154,0.446H20.68c0.166-0.45,0.322-0.867,0.471-1.25
				c0.148-0.382,0.295-0.742,0.436-1.08c0.143-0.338,0.283-0.659,0.422-0.962s0.281-0.601,0.43-0.891h0.939
				c0.145,0.29,0.287,0.587,0.428,0.891c0.139,0.304,0.281,0.625,0.424,0.962c0.143,0.338,0.287,0.698,0.438,1.08
				c0.148,0.383,0.307,0.799,0.475,1.25H24.076z M22.887,3.541c-0.021,0.06-0.055,0.143-0.098,0.248
				c-0.041,0.105-0.092,0.225-0.145,0.362c-0.055,0.138-0.115,0.288-0.184,0.453c-0.066,0.165-0.137,0.337-0.205,0.519h1.26
				c-0.068-0.181-0.133-0.354-0.195-0.521c-0.064-0.165-0.123-0.316-0.18-0.453c-0.057-0.138-0.107-0.258-0.15-0.363
				C22.949,3.682,22.912,3.6,22.887,3.541z"/>
		</g>
	</g>
</g>
</svg>
