<?xml version="1.0" encoding="utf-8"?>
<!-- Generator: Adobe Illustrator 16.0.0, SVG Export Plug-In . SVG Version: 6.00 Build 0)  -->
<!DOCTYPE svg PUBLIC "-//W3C//DTD SVG 1.1//EN" "http://www.w3.org/Graphics/SVG/1.1/DTD/svg11.dtd">
<svg version="1.1" id="图层_1" xmlns="http://www.w3.org/2000/svg" xmlns:xlink="http://www.w3.org/1999/xlink" x="0px" y="0px"
	 width="32px" height="32px" viewBox="0 0 32 32" enable-background="new 0 0 32 32" xml:space="preserve">
<polygon opacity="0.08" enable-background="new    " points="5.077,32 5.077,1 28.923,1 28.923,23.249 20.172,32 "/>
<polygon opacity="0.1" enable-background="new    " points="5.577,31.5 5.577,1.5 28.423,1.5 28.423,23.042 19.965,31.5 "/>
<polygon opacity="0.2" enable-background="new    " points="5.077,31 5.077,1 27.923,1 27.923,22.542 19.465,31 "/>
<polygon fill="#3E2723" points="5.512,30.5 5.512,1.5 27.488,1.5 27.488,22.335 19.273,30.5 "/>
<g>
	<g>
		
			<linearGradient id="SVGID_1_" gradientUnits="userSpaceOnUse" x1="58.0996" y1="-133.9004" x2="58.0996" y2="-161.9009" gradientTransform="matrix(1 0 0 -1 -41.6001 -131.9004)">
			<stop  offset="0" style="stop-color:#785548"/>
			<stop  offset="1" style="stop-color:#9F9E9F"/>
		</linearGradient>
		<polygon fill="url(#SVGID_1_)" points="6.011,30 6.011,2 26.99,2 26.99,22.114 19.191,30 		"/>
		<polygon fill="#795548" fill-opacity="0.7" points="26.99,22.125 26.99,21.786 18.686,21.786 18.686,30 19.115,30 		"/>
		<path opacity="0.39" fill="#FFFFFF" enable-background="new    " d="M19.104,22.125l7.887,0.011L19.115,30L19.104,22.125z"/>
	</g>
	<path fill="#FFFFFF" d="M13.508,7.397h-0.711v9.093h-0.536V7.397h-0.707v9.093h-0.536V7.397h-0.708v9.093H9.773V7.397H9.067v9.093
		H8.882v3.852h4.867V16.49h-0.241V7.397z M13.041,19.223H9.587V16.99h3.454V19.223z"/>
	<g>
		<rect x="6.006" y="2" opacity="0.8" fill="#FFFFFF" enable-background="new    " width="20.988" height="5.367"/>
		<g enable-background="new    ">
			<path fill="#5D4037" d="M11.891,3.317c-0.461,0-0.794,0.122-1,0.365c-0.206,0.244-0.308,0.577-0.308,0.999
				c0,0.205,0.025,0.392,0.077,0.559c0.051,0.167,0.127,0.311,0.228,0.431c0.102,0.121,0.23,0.214,0.381,0.281
				c0.153,0.066,0.332,0.099,0.534,0.099c0.111,0,0.204-0.001,0.283-0.005c0.079-0.004,0.147-0.012,0.208-0.024V4.566h0.99v2.071
				c-0.119,0.043-0.308,0.091-0.571,0.141c-0.264,0.05-0.587,0.076-0.973,0.076c-0.33,0-0.629-0.048-0.899-0.145
				c-0.268-0.097-0.498-0.237-0.689-0.422C9.96,6.102,9.813,5.874,9.708,5.604C9.605,5.335,9.552,5.027,9.552,4.681
				c0-0.35,0.059-0.66,0.173-0.929c0.113-0.27,0.27-0.499,0.469-0.686c0.2-0.187,0.434-0.329,0.704-0.426
				c0.268-0.097,0.554-0.145,0.86-0.145c0.208,0,0.394,0.014,0.562,0.04c0.167,0.026,0.312,0.056,0.432,0.091
				c0.121,0.034,0.221,0.069,0.299,0.106c0.078,0.036,0.135,0.064,0.167,0.084L12.932,3.57c-0.135-0.068-0.29-0.127-0.467-0.178
				C12.29,3.342,12.099,3.317,11.891,3.317z"/>
			<path fill="#5D4037" d="M17.311,3.244c-0.137,0.133-0.297,0.305-0.482,0.517c-0.188,0.211-0.38,0.441-0.581,0.691
				c-0.197,0.249-0.394,0.507-0.591,0.772c-0.193,0.266-0.368,0.52-0.521,0.761h2.246v0.79h-3.463V6.214
				c0.119-0.205,0.262-0.433,0.434-0.685c0.173-0.251,0.352-0.505,0.537-0.761c0.188-0.255,0.378-0.502,0.569-0.742
				c0.193-0.24,0.372-0.454,0.537-0.643H14.02V2.592h3.291V3.244z"/>
			<path fill="#5D4037" d="M18.078,2.592h0.992v4.183h-0.992V2.592z"/>
			<path fill="#5D4037" d="M21.406,2.544c0.658,0,1.162,0.11,1.514,0.329c0.352,0.22,0.527,0.579,0.527,1.078
				c0,0.503-0.178,0.866-0.535,1.089c-0.354,0.224-0.863,0.335-1.523,0.335h-0.311v1.4h-0.992V2.653
				c0.215-0.041,0.445-0.068,0.686-0.084C21.012,2.552,21.225,2.544,21.406,2.544z M21.473,3.347c-0.074,0-0.145,0.002-0.215,0.006
				c-0.07,0.003-0.129,0.007-0.18,0.012v1.207h0.311c0.342,0,0.602-0.044,0.775-0.133c0.172-0.088,0.26-0.253,0.26-0.495
				c0-0.117-0.021-0.212-0.066-0.289c-0.043-0.077-0.109-0.139-0.191-0.184c-0.082-0.046-0.184-0.079-0.301-0.097
				C21.746,3.356,21.613,3.347,21.473,3.347z"/>
		</g>
	</g>
</g>
</svg>
