<?xml version="1.0" encoding="utf-8"?>
<!-- Generator: Adobe Illustrator 21.0.0, SVG Export Plug-In . SVG Version: 6.00 Build 0)  -->
<svg version="1.1" id="svg2" xmlns="http://www.w3.org/2000/svg" xmlns:xlink="http://www.w3.org/1999/xlink" x="0px" y="0px"
	 viewBox="0 0 32 32" style="enable-background:new 0 0 32 32;" xml:space="preserve">
<style type="text/css">
	.st0{opacity:0.08;enable-background:new    ;}
	.st1{opacity:0.1;enable-background:new    ;}
	.st2{opacity:0.2;enable-background:new    ;}
	.st3{fill:#0D47A1;}
	.st4{fill:url(#SVGID_1_);}
	.st5{opacity:0.8;}
	.st6{opacity:0.8;fill:#FFFFFF;enable-background:new    ;}
	.st7{fill:#FFFFFF;}
</style>
<title>application-word-template</title>
<polygon class="st0" points="5.1,32 5.1,1 28.9,1 28.9,23.2 28.9,32 "/>
<polygon class="st1" points="5.6,31.5 5.6,1.5 28.4,1.5 28.4,23 28.4,31.5 "/>
<polygon class="st2" points="5.1,31 5.1,1 27.9,1 27.9,22.5 27.9,31 "/>
<polygon class="st3" points="5.5,30.5 5.5,1.5 27.5,1.5 27.5,22.3 27.5,30.5 "/>
<linearGradient id="SVGID_1_" gradientUnits="userSpaceOnUse" x1="16.5" y1="-2167.27" x2="16.5" y2="-2139.27" gradientTransform="matrix(1 0 0 -1 0 -2137.27)">
	<stop  offset="0" style="stop-color:#3F51B5"/>
	<stop  offset="1" style="stop-color:#64B5F6"/>
</linearGradient>
<polygon class="st4" points="6,30 6,2 27,2 27,22.1 27,30 "/>
<g class="st5">
	<rect x="9" y="11" class="st6" width="15" height="1"/>
	<rect x="9" y="9" class="st6" width="15" height="1"/>
	<rect x="16" y="13" class="st6" width="8" height="7"/>
	<g class="st5">
		<rect x="9" y="13" class="st7" width="6" height="1"/>
		<rect x="9" y="15" class="st7" width="6" height="1"/>
		<rect x="9" y="17" class="st7" width="6" height="1"/>
		<rect x="9" y="19" class="st7" width="6" height="1"/>
	</g>
</g>
</svg>
