<?xml version="1.0" encoding="utf-8"?>
<!-- Generator: Adobe Illustrator 16.0.0, SVG Export Plug-In . SVG Version: 6.00 Build 0)  -->
<!DOCTYPE svg PUBLIC "-//W3C//DTD SVG 1.1//EN" "http://www.w3.org/Graphics/SVG/1.1/DTD/svg11.dtd">
<svg version="1.1" id="图层_1" xmlns="http://www.w3.org/2000/svg" xmlns:xlink="http://www.w3.org/1999/xlink" x="0px" y="0px"
	 width="32px" height="32px" viewBox="0 0 32 32" enable-background="new 0 0 32 32" xml:space="preserve">
<g id="surface1">
	<polygon opacity="0.08" points="4.625,32 4.625,1 28.375,1 28.375,23.258 19.633,32 	"/>
	<polygon opacity="0.1" points="5.125,31.5 5.125,1.5 27.875,1.5 27.875,23.051 19.426,31.5 	"/>
	<polygon opacity="0.2" points="4.625,31 4.625,1 27.375,1 27.375,22.551 18.926,31 	"/>
	
		<linearGradient id="SVGID_1_" gradientUnits="userSpaceOnUse" x1="182.4004" y1="1616.4609" x2="182.4004" y2="1587.4609" gradientTransform="matrix(1 0 0 1 -166.4004 -1585.9609)">
		<stop  offset="0" style="stop-color:#512DA8"/>
		<stop  offset="0.008" style="stop-color:#532EA8"/>
		<stop  offset="0.2103" style="stop-color:#7843B4"/>
		<stop  offset="0.4127" style="stop-color:#9553BD"/>
		<stop  offset="0.6129" style="stop-color:#A95FC3"/>
		<stop  offset="0.8099" style="stop-color:#B666C7"/>
		<stop  offset="1" style="stop-color:#BA68C8"/>
	</linearGradient>
	<path fill="url(#SVGID_1_)" d="M18.719,30.5l8.156-8.156V1.5H5.125v29H18.719z"/>
	<polygon fill="#673AB7" fill-opacity="0.3922" points="18.266,21.891 18.266,30.5 18.719,30.5 26.875,22.344 26.875,21.891 	"/>
	<path fill="#FFFFFF" fill-opacity="0.3922" d="M18.719,22.344h8.148L18.719,30.5V22.344z"/>
	<path opacity="0.8" fill="#FFFFFF" enable-background="new    " d="M22.344,13.736c0-3.496-2.851-6.346-6.344-6.346
		c-3.494,0-6.344,2.85-6.344,6.346c0,3.494,2.85,6.34,6.344,6.34C19.493,20.078,22.344,17.229,22.344,13.736z M11.244,13.736
		c0-2.64,2.12-4.759,4.756-4.759s4.756,2.12,4.756,4.759c0,2.634-2.12,4.758-4.756,4.758S11.244,16.372,11.244,13.736z
		 M18.719,13.736l-4.531-2.719v5.438L18.719,13.736z"/>
	<g>
		<path fill="#311B92" d="M26.375,2v20.137L18.512,30h-6.137h-6.75V2H26.375 M26.875,1.5H5.125v29h7.25h6.344l8.156-8.156V1.5
			L26.875,1.5z"/>
	</g>
</g>
</svg>
