<?xml version="1.0" encoding="utf-8"?>
<!-- Generator: Adobe Illustrator 16.0.0, SVG Export Plug-In . SVG Version: 6.00 Build 0)  -->
<!DOCTYPE svg PUBLIC "-//W3C//DTD SVG 1.1//EN" "http://www.w3.org/Graphics/SVG/1.1/DTD/svg11.dtd">
<svg version="1.1" id="图层_1" xmlns="http://www.w3.org/2000/svg" xmlns:xlink="http://www.w3.org/1999/xlink" x="0px" y="0px"
	 width="32px" height="32px" viewBox="0 0 32 32" enable-background="new 0 0 32 32" xml:space="preserve">
<polygon opacity="0.08" enable-background="new    " points="5.077,32 5.077,1 28.923,1 28.923,23.249 20.172,32 "/>
<polygon opacity="0.1" enable-background="new    " points="5.577,31.5 5.577,1.5 28.423,1.5 28.423,23.042 19.965,31.5 "/>
<polygon opacity="0.2" enable-background="new    " points="5.077,31 5.077,1 27.923,1 27.923,22.542 19.465,31 "/>
<polygon fill="#3E2723" points="5.512,30.5 5.512,1.5 27.488,1.5 27.488,22.335 19.273,30.5 "/>
<g>
	<g>
		
			<linearGradient id="SVGID_1_" gradientUnits="userSpaceOnUse" x1="58.0996" y1="-133.9004" x2="58.0996" y2="-161.9009" gradientTransform="matrix(1 0 0 -1 -41.6001 -131.9004)">
			<stop  offset="0" style="stop-color:#785548"/>
			<stop  offset="1" style="stop-color:#9F9E9F"/>
		</linearGradient>
		<polygon fill="url(#SVGID_1_)" points="6.011,30 6.011,2 26.99,2 26.99,22.114 19.191,30 		"/>
		<polygon fill="#795548" fill-opacity="0.7" points="26.99,22.125 26.99,21.786 18.686,21.786 18.686,30 19.115,30 		"/>
		<path opacity="0.39" fill="#FFFFFF" enable-background="new    " d="M19.104,22.125l7.887,0.011L19.115,30L19.104,22.125z"/>
	</g>
	<path fill="#FFFFFF" d="M13.508,7.397h-0.711v9.093h-0.536V7.397h-0.707v9.093h-0.536V7.397h-0.708v9.093H9.773V7.397H9.067v9.093
		H8.882v3.852h4.867V16.49h-0.241V7.397z M13.041,19.223H9.587V16.99h3.454V19.223z"/>
	<g>
		<rect x="6.006" y="2" opacity="0.8" fill="#FFFFFF" enable-background="new    " width="20.988" height="5.367"/>
		<g enable-background="new    ">
			<path fill="#5D4037" d="M13.243,3.244c-0.135,0.133-0.297,0.305-0.483,0.517c-0.186,0.211-0.379,0.441-0.578,0.691
				c-0.199,0.249-0.396,0.507-0.591,0.772c-0.195,0.266-0.37,0.52-0.521,0.761h2.244v0.79H9.851V6.214
				c0.118-0.205,0.264-0.433,0.436-0.685s0.35-0.505,0.536-0.761c0.188-0.255,0.377-0.502,0.568-0.742
				c0.193-0.24,0.372-0.454,0.538-0.643H9.953V2.592h3.29V3.244z"/>
			<path fill="#5D4037" d="M18.129,4.681c0,0.358-0.055,0.673-0.168,0.945c-0.113,0.271-0.266,0.499-0.459,0.682
				c-0.197,0.183-0.428,0.321-0.697,0.413c-0.27,0.093-0.557,0.14-0.867,0.14c-0.301,0-0.584-0.046-0.852-0.14
				c-0.268-0.092-0.5-0.229-0.698-0.413c-0.2-0.183-0.357-0.41-0.47-0.682c-0.115-0.272-0.173-0.587-0.173-0.945
				c0-0.358,0.06-0.673,0.181-0.944c0.116-0.271,0.277-0.5,0.478-0.686c0.202-0.185,0.434-0.323,0.7-0.416
				c0.264-0.093,0.543-0.14,0.835-0.14c0.301,0,0.583,0.047,0.851,0.14c0.268,0.092,0.5,0.23,0.697,0.416
				c0.201,0.186,0.357,0.414,0.471,0.686C18.072,4.008,18.129,4.322,18.129,4.681z M14.769,4.681c0,0.205,0.027,0.391,0.078,0.555
				c0.055,0.166,0.13,0.307,0.23,0.425c0.098,0.12,0.22,0.211,0.364,0.275c0.144,0.064,0.31,0.097,0.496,0.097
				c0.182,0,0.346-0.033,0.492-0.097c0.146-0.064,0.269-0.156,0.369-0.275c0.1-0.118,0.174-0.26,0.229-0.425
				c0.051-0.164,0.08-0.35,0.08-0.555s-0.029-0.391-0.08-0.558c-0.055-0.167-0.129-0.31-0.229-0.428s-0.223-0.21-0.369-0.275
				c-0.146-0.063-0.311-0.096-0.492-0.096c-0.187,0-0.353,0.034-0.496,0.1c-0.145,0.066-0.267,0.159-0.364,0.277
				c-0.101,0.12-0.176,0.262-0.23,0.429C14.796,4.296,14.769,4.48,14.769,4.681z"/>
			<path fill="#5D4037" d="M23.148,4.681c0,0.358-0.059,0.673-0.168,0.945c-0.111,0.271-0.268,0.499-0.463,0.682
				c-0.193,0.183-0.426,0.321-0.695,0.413c-0.268,0.093-0.559,0.14-0.865,0.14c-0.301,0-0.586-0.046-0.852-0.14
				c-0.268-0.092-0.5-0.229-0.701-0.413c-0.197-0.183-0.354-0.41-0.469-0.682c-0.113-0.272-0.172-0.587-0.172-0.945
				c0-0.358,0.061-0.673,0.178-0.944c0.121-0.271,0.279-0.5,0.482-0.686c0.199-0.185,0.434-0.323,0.697-0.416
				c0.264-0.093,0.541-0.14,0.836-0.14c0.301,0,0.584,0.047,0.85,0.14c0.268,0.092,0.5,0.23,0.701,0.416
				c0.197,0.186,0.354,0.414,0.471,0.686C23.09,4.008,23.148,4.322,23.148,4.681z M19.787,4.681c0,0.205,0.025,0.391,0.08,0.555
				c0.051,0.166,0.129,0.307,0.229,0.425c0.1,0.12,0.221,0.211,0.365,0.275C20.604,6,20.77,6.033,20.957,6.033
				c0.182,0,0.346-0.033,0.492-0.097c0.146-0.064,0.268-0.156,0.369-0.275c0.098-0.118,0.176-0.26,0.227-0.425
				c0.055-0.164,0.08-0.35,0.08-0.555S22.1,4.29,22.045,4.123c-0.051-0.167-0.129-0.31-0.227-0.428
				c-0.102-0.119-0.223-0.21-0.369-0.275c-0.146-0.063-0.311-0.096-0.492-0.096c-0.188,0-0.354,0.034-0.496,0.1
				c-0.145,0.066-0.266,0.159-0.365,0.277c-0.1,0.12-0.178,0.262-0.229,0.429C19.813,4.296,19.787,4.48,19.787,4.681z"/>
		</g>
	</g>
</g>
</svg>
