<?xml version="1.0" encoding="utf-8"?>
<!-- Generator: Adobe Illustrator 21.0.0, SVG Export Plug-In . SVG Version: 6.00 Build 0)  -->
<svg version="1.1" id="图层_1" xmlns="http://www.w3.org/2000/svg" xmlns:xlink="http://www.w3.org/1999/xlink" x="0px" y="0px"
	 viewBox="0 0 32 32" style="enable-background:new 0 0 32 32;" xml:space="preserve">
<style type="text/css">
	.st0{opacity:0.08;enable-background:new    ;}
	.st1{opacity:0.2;enable-background:new    ;}
	.st2{opacity:0.1;enable-background:new    ;}
	.st3{fill:#BF360C;}
	.st4{fill:url(#SVGID_1_);}
	.st5{fill:#BF360C;fill-opacity:0.39;}
	.st6{opacity:0.39;fill:#FFFFFF;enable-background:new    ;}
	.st7{opacity:0.8;fill:#FFFFFF;enable-background:new    ;}
</style>
<title>application-rss</title>
<polygon class="st0" points="4.5,32 4.5,1 28.5,1 28.5,23.1 19.6,32 "/>
<polygon class="st1" points="5,31 5,1 28,1 28,22.4 19.4,31 "/>
<polygon class="st2" points="5,31.5 5,1.5 28,1.5 28,22.9 19.4,31.5 "/>
<polygon class="st3" points="5.5,30.5 5.5,1.5 27.5,1.5 27.5,22.2 19.2,30.5 "/>
<linearGradient id="SVGID_1_" gradientUnits="userSpaceOnUse" x1="58.1" y1="2526.8999" x2="58.1" y2="2554.8999" gradientTransform="matrix(1 0 0 1 -41.6 -2524.8999)">
	<stop  offset="0" style="stop-color:#FF9800"/>
	<stop  offset="0.25" style="stop-color:#FF7C0F"/>
	<stop  offset="0.5" style="stop-color:#FF6819"/>
	<stop  offset="0.76" style="stop-color:#FF5B20"/>
	<stop  offset="1" style="stop-color:#FF5722"/>
</linearGradient>
<polygon class="st4" points="6,30 6,2 27,2 27,22 19,30 "/>
<polygon class="st5" points="27,22 27,21.6 18.6,21.6 18.6,30 19,30 "/>
<path class="st6" d="M19,22h8l-8,8V22z"/>
<path class="st7" d="M9.1,18.6c0-0.4,0.1-0.7,0.4-1c0.3-0.3,0.6-0.4,1-0.4c0.8,0,1.4,0.6,1.4,1.4l0,0c0,0.4-0.1,0.7-0.4,1
	c-0.3,0.3-0.6,0.4-1,0.4s-0.7-0.1-1-0.4C9.2,19.3,9.1,19,9.1,18.6 M9,12.2v2.4c3,0,5.5,2.5,5.5,5.5h2.4C16.8,15.7,13.3,12.2,9,12.2z
	 M9,7v2.6c5.7,0,10.4,4.7,10.4,10.4H22C22,12.8,16.2,7,9,7z"/>
</svg>
