<?xml version="1.0" encoding="utf-8"?>
<!-- Generator: Adobe Illustrator 21.0.0, SVG Export Plug-In . SVG Version: 6.00 Build 0)  -->
<svg version="1.1" id="图层_1" xmlns="http://www.w3.org/2000/svg" xmlns:xlink="http://www.w3.org/1999/xlink" x="0px" y="0px"
	 viewBox="0 0 32 32" style="enable-background:new 0 0 32 32;" xml:space="preserve">
<style type="text/css">
	.st0{opacity:0.08;enable-background:new    ;}
	.st1{opacity:0.2;enable-background:new    ;}
	.st2{opacity:0.1;enable-background:new    ;}
	.st3{fill:#B71C1C;}
	.st4{fill:url(#SVGID_1_);}
	.st5{fill:#B71C1C;fill-opacity:0.39;}
	.st6{fill:#FFFFFF;fill-opacity:0.39;}
	.st7{opacity:0.8;}
	.st8{fill:#FFFFFF;}
</style>
<title>application-postscript</title>
<polygon class="st0" points="4.5,32 4.5,1 28.5,1 28.5,23.1 19.6,32 "/>
<polygon class="st1" points="5,31 5,1 28,1 28,22.4 19.4,31 "/>
<polygon class="st2" points="5,31.5 5,1.5 28,1.5 28,22.9 19.4,31.5 "/>
<polygon class="st3" points="5.5,30.5 5.5,1.5 27.5,1.5 27.5,22.2 19.2,30.5 "/>
<linearGradient id="SVGID_1_" gradientUnits="userSpaceOnUse" x1="16.5" y1="788" x2="16.5" y2="760" gradientTransform="matrix(1 0 0 1 0 -758)">
	<stop  offset="0" style="stop-color:#512DA8"/>
	<stop  offset="0.01" style="stop-color:#D32F2F"/>
	<stop  offset="0.3" style="stop-color:#E33932"/>
	<stop  offset="0.66" style="stop-color:#F04035"/>
	<stop  offset="1" style="stop-color:#F44336"/>
</linearGradient>
<polygon class="st4" points="6,30 6,2 27,2 27,22 19,30 "/>
<polygon class="st5" points="27,22 27,21.6 18.6,21.6 18.6,30 19,30 "/>
<path class="st6" d="M19,22h8l-8,8V22z"/>
<g class="st7">
	<path class="st8" d="M12,13.4c0.5,0.1,1.1,0.3,1.5,0.6c1.3,0.7,2.1,2.1,2.1,3.6c0.2-0.3,0.2-0.7,0.2-1c-0.1-1.1-0.6-2.2-1.4-2.9
		c-0.2-0.3-0.5-0.5-0.9-0.7l3.8-4.2l0.9-1c0.1-0.1,0.3-0.3,0.3-0.4s-0.3-0.2-0.4-0.2S17.8,7,17.6,7s-0.2,0.2-0.3,0.3l-0.7,0.8
		l-3.3,3.6l-1,1.1C12.2,13,12.1,13.2,12,13.4z"/>
	<path class="st8" d="M9.8,14.6c1.3-1.3,2.4-2.8,3.7-4.1l1.6-1.8c0.4-0.4,0.8-0.8,1.1-1.2c-0.3-0.1-0.5-0.1-0.8,0
		C15.2,7.6,15,7.8,14.9,8L14,9c-0.1,0.2-0.3,0.3-0.5,0.5c-0.3,0.1-0.7,0.1-1,0.1l-1.1,0.1c-0.8,0.1-1.7,0.1-2.1,0.9
		C9.1,11.3,9,12.1,9,12.9c-0.1,1.5-0.1,2.9,0,4.4c0,0.7,0.1,1.4,0.3,2c0.4,0.5,0.9,0.7,1.6,0.7c1.2,0.2,2.4,0,3.5-0.7
		c0.9-0.8,1-2.3,0.2-3.2c-0.1-0.1-0.2-0.2-0.2-0.2C13.1,14.6,11.4,14.2,9.8,14.6z"/>
	<path class="st8" d="M13.7,19.9C14,20,14.3,20,14.5,20H16c1.8,0,3.6-0.1,5.5-0.2c0.9,0,1.9-0.1,2.2-1c0.2-0.7,0.3-1.3,0.2-2
		c0.1-1.4,0.1-2.9,0-4.3c0-0.7-0.1-1.4-0.3-2.1c-0.5-1-1.9-0.9-2.8-0.9c-0.2,0-0.7-0.1-0.9,0s-0.3,0.5-0.3,0.6l-0.8,1.7
		c-1,2.1-1.9,4.1-2.9,6.2C15.5,18.9,14.7,19.6,13.7,19.9z"/>
</g>
</svg>
