<?xml version="1.0" encoding="utf-8"?>
<!-- Generator: Adobe Illustrator 16.0.0, SVG Export Plug-In . SVG Version: 6.00 Build 0)  -->
<!DOCTYPE svg PUBLIC "-//W3C//DTD SVG 1.1//EN" "http://www.w3.org/Graphics/SVG/1.1/DTD/svg11.dtd">
<svg version="1.1" id="图层_1" xmlns="http://www.w3.org/2000/svg" xmlns:xlink="http://www.w3.org/1999/xlink" x="0px" y="0px"
	 width="32px" height="32px" viewBox="0 0 32 32" enable-background="new 0 0 32 32" xml:space="preserve">
<polygon opacity="0.08" enable-background="new    " points="5.077,32 5.077,1 28.923,1 28.923,23.249 20.172,32 "/>
<polygon opacity="0.1" enable-background="new    " points="5.577,31.5 5.577,1.5 28.423,1.5 28.423,23.042 19.965,31.5 "/>
<polygon opacity="0.2" enable-background="new    " points="5.077,31 5.077,1 27.923,1 27.923,22.542 19.465,31 "/>
<polygon fill="#3E2723" points="5.512,30.5 5.512,1.5 27.488,1.5 27.488,22.335 19.273,30.5 "/>
<g>
	<g>
		
			<linearGradient id="SVGID_1_" gradientUnits="userSpaceOnUse" x1="58.0996" y1="-133.9004" x2="58.0996" y2="-161.9009" gradientTransform="matrix(1 0 0 -1 -41.6001 -131.9004)">
			<stop  offset="0" style="stop-color:#785548"/>
			<stop  offset="1" style="stop-color:#9F9E9F"/>
		</linearGradient>
		<polygon fill="url(#SVGID_1_)" points="6.011,30 6.011,2 26.989,2 26.989,22.115 19.191,30 		"/>
		<polygon fill="#795548" fill-opacity="0.7" points="26.989,22.125 26.989,21.787 18.684,21.787 18.684,30 19.114,30 		"/>
		<path opacity="0.39" fill="#FFFFFF" enable-background="new    " d="M19.103,22.125l7.887,0.01L19.114,30L19.103,22.125z"/>
	</g>
	<path fill="#FFFFFF" d="M13.507,7.398h-0.71v9.092H12.26V7.398h-0.705v9.092h-0.536V7.398h-0.707v9.092H9.773V7.398H9.066v9.092
		H8.882v3.852h4.867V16.49h-0.242V7.398z M13.041,19.223H9.588V16.99h3.453V19.223z"/>
	<g>
		<rect x="6.007" y="2" opacity="0.8" fill="#FFFFFF" enable-background="new    " width="20.986" height="5.367"/>
		<g enable-background="new    ">
			<path fill="#5D4037" d="M13.979,6.775c-0.047-0.145-0.101-0.295-0.156-0.448c-0.058-0.153-0.113-0.306-0.168-0.458h-1.722
				c-0.055,0.152-0.11,0.306-0.165,0.459c-0.056,0.153-0.108,0.302-0.156,0.447h-1.028c0.164-0.451,0.322-0.867,0.47-1.25
				c0.149-0.381,0.296-0.742,0.438-1.08c0.142-0.338,0.282-0.659,0.419-0.962c0.14-0.303,0.283-0.601,0.432-0.891h0.939
				c0.145,0.29,0.287,0.587,0.428,0.891c0.139,0.304,0.282,0.625,0.424,0.962c0.142,0.338,0.288,0.699,0.438,1.08
				c0.149,0.383,0.306,0.799,0.472,1.25H13.979z M12.791,3.541c-0.023,0.06-0.055,0.143-0.098,0.248
				c-0.042,0.104-0.092,0.225-0.145,0.362c-0.055,0.137-0.116,0.288-0.183,0.453c-0.067,0.165-0.137,0.337-0.206,0.519h1.26
				c-0.066-0.182-0.133-0.354-0.197-0.52c-0.061-0.166-0.122-0.316-0.178-0.453c-0.059-0.138-0.108-0.258-0.15-0.363
				C12.852,3.682,12.816,3.6,12.791,3.541z"/>
			<path fill="#5D4037" d="M16.896,2.544c0.66,0,1.167,0.112,1.519,0.335c0.352,0.224,0.527,0.57,0.527,1.041
				c0,0.294-0.069,0.532-0.212,0.716c-0.143,0.183-0.347,0.326-0.612,0.431c0.087,0.105,0.181,0.224,0.277,0.359
				c0.098,0.135,0.195,0.275,0.292,0.423c0.095,0.147,0.186,0.299,0.274,0.458c0.09,0.159,0.172,0.314,0.249,0.468h-1.109
				c-0.082-0.137-0.162-0.275-0.246-0.417c-0.082-0.141-0.167-0.277-0.256-0.41c-0.087-0.134-0.17-0.259-0.258-0.378
				c-0.084-0.118-0.168-0.226-0.254-0.322h-0.49v1.527h-0.99V2.652c0.218-0.04,0.44-0.068,0.67-0.083
				C16.508,2.552,16.714,2.544,16.896,2.544z M16.954,3.347c-0.072,0-0.139,0.002-0.193,0.006c-0.058,0.004-0.112,0.007-0.164,0.012
				V4.5h0.281c0.372,0,0.638-0.044,0.801-0.133c0.16-0.088,0.242-0.24,0.242-0.453c0-0.205-0.085-0.351-0.246-0.438
				C17.512,3.39,17.271,3.347,16.954,3.347z"/>
			<path fill="#5D4037" d="M22.415,5.369c0,0.205-0.023,0.398-0.072,0.58c-0.047,0.18-0.132,0.339-0.253,0.474
				s-0.282,0.242-0.489,0.32c-0.206,0.079-0.465,0.118-0.777,0.118c-0.289,0-0.537-0.034-0.745-0.1
				c-0.207-0.066-0.379-0.143-0.513-0.232l0.329-0.731c0.122,0.068,0.254,0.129,0.394,0.182c0.141,0.052,0.294,0.078,0.458,0.078
				c0.241,0,0.415-0.056,0.521-0.168c0.105-0.113,0.159-0.302,0.159-0.568V2.592h0.989V5.369z"/>
		</g>
	</g>
</g>
</svg>
