<?xml version="1.0" encoding="utf-8"?>
<!-- Generator: Adobe Illustrator 16.0.0, SVG Export Plug-In . SVG Version: 6.00 Build 0)  -->
<!DOCTYPE svg PUBLIC "-//W3C//DTD SVG 1.1//EN" "http://www.w3.org/Graphics/SVG/1.1/DTD/svg11.dtd">
<svg version="1.1" id="图层_1" xmlns="http://www.w3.org/2000/svg" xmlns:xlink="http://www.w3.org/1999/xlink" x="0px" y="0px"
	 width="32px" height="32px" viewBox="0 0 32 32" enable-background="new 0 0 32 32" xml:space="preserve">
<polygon opacity="0.08" enable-background="new    " points="5.077,32 5.077,1 28.923,1 28.923,23.249 20.172,32 "/>
<polygon opacity="0.1" enable-background="new    " points="5.577,31.5 5.577,1.5 28.423,1.5 28.423,23.042 19.965,31.5 "/>
<polygon opacity="0.2" enable-background="new    " points="5.077,31 5.077,1 27.923,1 27.923,22.542 19.465,31 "/>
<polygon fill="#3E2723" points="5.512,30.5 5.512,1.5 27.488,1.5 27.488,22.335 19.273,30.5 "/>
<g>
	<g>
		
			<linearGradient id="SVGID_1_" gradientUnits="userSpaceOnUse" x1="58.0996" y1="-133.9004" x2="58.0996" y2="-161.9009" gradientTransform="matrix(1 0 0 -1 -41.6001 -131.9004)">
			<stop  offset="0" style="stop-color:#785548"/>
			<stop  offset="1" style="stop-color:#9F9E9F"/>
		</linearGradient>
		<polygon fill="url(#SVGID_1_)" points="6.011,30 6.011,2 26.99,2 26.99,22.114 19.191,30 		"/>
		<polygon fill="#795548" fill-opacity="0.7" points="26.99,22.125 26.99,21.786 18.686,21.786 18.686,30 19.115,30 		"/>
		<path opacity="0.39" fill="#FFFFFF" enable-background="new    " d="M19.104,22.125l7.887,0.011L19.115,30L19.104,22.125z"/>
	</g>
	<path fill="#FFFFFF" d="M13.508,7.397h-0.711v9.093h-0.536V7.397h-0.707v9.093h-0.536V7.397h-0.708v9.093H9.773V7.397H9.067v9.093
		H8.882v3.852h4.867V16.49h-0.241V7.397z M13.041,19.223H9.587V16.99h3.454V19.223z"/>
	<g>
		<rect x="6.006" y="2" opacity="0.8" fill="#FFFFFF" enable-background="new    " width="20.988" height="5.367"/>
		<g enable-background="new    ">
			<path fill="#5D4037" d="M13.619,6.776c0.026-0.295,0.081-0.602,0.161-0.918c0.08-0.317,0.179-0.629,0.295-0.935
				c0.116-0.306,0.246-0.595,0.39-0.866c0.145-0.271,0.29-0.506,0.438-0.703H12.99V2.587h3.083v0.652
				c-0.137,0.14-0.284,0.335-0.448,0.585c-0.164,0.25-0.317,0.532-0.464,0.848c-0.146,0.316-0.273,0.655-0.383,1.017
				c-0.107,0.362-0.175,0.725-0.2,1.087H13.619z"/>
			<path fill="#5D4037" d="M19.941,3.244c-0.135,0.133-0.297,0.305-0.484,0.517c-0.188,0.211-0.379,0.441-0.578,0.691
				c-0.199,0.249-0.396,0.507-0.59,0.772c-0.197,0.266-0.369,0.521-0.521,0.761h2.242v0.791h-3.461V6.214
				c0.117-0.206,0.264-0.434,0.436-0.685s0.35-0.505,0.535-0.761c0.186-0.255,0.375-0.502,0.568-0.742s0.373-0.454,0.537-0.643
				h-1.977V2.592h3.293V3.244z"/>
		</g>
	</g>
</g>
</svg>
