<?xml version="1.0" encoding="utf-8"?>
<!-- Generator: Adobe Illustrator 17.1.0, SVG Export Plug-In . SVG Version: 6.00 Build 0)  -->
<!DOCTYPE svg PUBLIC "-//W3C//DTD SVG 1.1//EN" "http://www.w3.org/Graphics/SVG/1.1/DTD/svg11.dtd">
<svg version="1.1"
	 id="svg2" inkscape:version="0.48.4 r9939" sodipodi:docname="computer.svg" xmlns:dc="http://purl.org/dc/elements/1.1/" xmlns:rdf="http://www.w3.org/1999/02/22-rdf-syntax-ns#" xmlns:sodipodi="http://sodipodi.sourceforge.net/DTD/sodipodi-0.dtd" xmlns:cc="http://creativecommons.org/ns#" xmlns:svg="http://www.w3.org/2000/svg" xmlns:inkscape="http://www.inkscape.org/namespaces/inkscape"
	 xmlns="http://www.w3.org/2000/svg" xmlns:xlink="http://www.w3.org/1999/xlink" x="0px" y="0px" width="32px" height="32px"
	 viewBox="1072 0 32 32" enable-background="new 1072 0 32 32" xml:space="preserve">
<polygon opacity="8.000000e-002" enable-background="new    " points="1076.6,32 1076.6,1 1100.4,1 1100.4,23.2 1091.7,32 "/>
<polygon opacity="0.1" enable-background="new    " points="1077.1,31.5 1077.1,1.5 1099.9,1.5 1099.9,23 1091.5,31.5 "/>
<polygon opacity="0.2" enable-background="new    " points="1076.6,31 1076.6,1 1099.4,1 1099.4,22.5 1091,31 "/>
<polygon fill="#0D47A1" points="1077,30.5 1077,1.5 1099,1.5 1099,22.3 1090.8,30.5 "/>
<g>
	<g>
		<g>
			<g>
				
					<linearGradient id="SVGID_1_" gradientUnits="userSpaceOnUse" x1="1088.0095" y1="482" x2="1088.0095" y2="510" gradientTransform="matrix(1 0 0 -1 0 512)">
					<stop  offset="0" style="stop-color:#3F51B5"/>
					<stop  offset="1" style="stop-color:#64B5F6"/>
				</linearGradient>
				<polygon fill="url(#SVGID_1_)" points="1077.5,30 1077.5,2 1098.5,2 1098.5,22.1 1090.6,30 				"/>
			</g>
			<polygon fill="#2196F3" fill-opacity="0.7" points="1098.5,22.1 1098.5,21.8 1090.2,21.8 1090.2,30 1090.6,30 			"/>
			<path opacity="0.39" fill="#FFFFFF" enable-background="new    " d="M1090.6,22.1l7.9,0l-7.9,7.9L1090.6,22.1z"/>
		</g>
	</g>
	<g>
		<rect x="1077.5" y="2" opacity="0.8" fill="#FFFFFF" enable-background="new    " width="21" height="5.4"/>
	</g>
</g>
<g>
	<polygon opacity="0.8" fill="#FFFFFF" enable-background="new    " points="1083.3,10.1 1086.9,10.1 1086.9,9.2 1082.4,9.2 
		1082.4,13.6 1083.3,13.6 	"/>
	<polygon opacity="0.8" fill="#FFFFFF" enable-background="new    " points="1089.1,9.2 1089.1,10.1 1092.7,10.1 1092.7,13.6 
		1093.5,13.6 1093.5,9.2 	"/>
	<polygon opacity="0.8" fill="#FFFFFF" enable-background="new    " points="1093.5,15.8 1092.7,15.8 1092.7,19.4 1089.1,19.4 
		1089.1,20.3 1093.5,20.3 	"/>
	<polygon opacity="0.8" fill="#FFFFFF" enable-background="new    " points="1083.3,19.4 1083.3,15.8 1082.4,15.8 1082.4,20.3 
		1086.9,20.3 1086.9,19.4 	"/>
</g>
<g>
	<g>
		<path fill="#1976D2" d="M1085.1,4.7c0,0.4-0.1,0.7-0.2,0.9c-0.1,0.3-0.3,0.5-0.4,0.7c-0.2,0.2-0.4,0.3-0.7,0.4
			c-0.3,0.1-0.5,0.1-0.8,0.1c-0.3,0-0.6,0-0.8-0.1c-0.3-0.1-0.5-0.2-0.7-0.4s-0.3-0.4-0.4-0.7c-0.1-0.3-0.2-0.6-0.2-0.9
			s0.1-0.7,0.2-0.9s0.3-0.5,0.5-0.7c0.2-0.2,0.4-0.3,0.7-0.4s0.5-0.1,0.8-0.1c0.3,0,0.6,0,0.8,0.1s0.5,0.2,0.7,0.4s0.3,0.4,0.4,0.7
			C1085.1,4,1085.1,4.3,1085.1,4.7z M1081.9,4.7c0,0.2,0,0.4,0.1,0.6c0.1,0.2,0.1,0.3,0.2,0.4s0.2,0.2,0.3,0.3
			c0.1,0.1,0.3,0.1,0.5,0.1c0.2,0,0.3,0,0.5-0.1c0.1-0.1,0.3-0.2,0.4-0.3s0.2-0.3,0.2-0.4c0.1-0.2,0.1-0.4,0.1-0.6s0-0.4-0.1-0.6
			c0-0.2-0.1-0.3-0.2-0.4c-0.1-0.1-0.2-0.2-0.4-0.3s-0.3-0.1-0.5-0.1c-0.2,0-0.3,0-0.5,0.1s-0.3,0.2-0.3,0.3
			c-0.1,0.1-0.2,0.3-0.2,0.4S1081.9,4.5,1081.9,4.7z"/>
		<path fill="#1976D2" d="M1089.6,4.7c0,0.4-0.1,0.7-0.2,0.9s-0.3,0.5-0.5,0.7c-0.2,0.2-0.5,0.3-0.8,0.4c-0.3,0.1-0.6,0.1-1,0.1
			c-0.2,0-0.4,0-0.6,0c-0.2,0-0.4,0-0.7-0.1V2.6c0.2,0,0.4-0.1,0.7-0.1c0.2,0,0.4,0,0.6,0c0.4,0,0.7,0,1,0.1
			c0.3,0.1,0.5,0.2,0.8,0.4c0.2,0.2,0.4,0.4,0.5,0.7S1089.6,4.3,1089.6,4.7z M1086.9,6c0,0,0.1,0,0.2,0c0.1,0,0.1,0,0.2,0
			c0.5,0,0.8-0.1,1-0.4c0.2-0.2,0.3-0.6,0.3-1c0-0.4-0.1-0.8-0.3-1c-0.2-0.2-0.6-0.3-1-0.3c-0.1,0-0.1,0-0.2,0c-0.1,0-0.1,0-0.2,0V6
			z"/>
		<path fill="#1976D2" d="M1091.5,2.6c0.1,0.1,0.2,0.3,0.3,0.5c0.1,0.2,0.2,0.4,0.3,0.6c0.1,0.2,0.2,0.5,0.3,0.7
			c0.1,0.2,0.2,0.5,0.3,0.7c0.1-0.2,0.2-0.4,0.3-0.7c0.1-0.2,0.2-0.5,0.3-0.7c0.1-0.2,0.2-0.4,0.3-0.6c0.1-0.2,0.2-0.4,0.3-0.5h0.9
			c0,0.3,0.1,0.6,0.1,0.9c0,0.3,0.1,0.7,0.1,1.1s0.1,0.7,0.1,1.1c0,0.4,0,0.7,0.1,1.1h-0.9c0-0.4,0-0.9,0-1.3c0-0.5-0.1-1-0.1-1.5
			c-0.1,0.2-0.2,0.4-0.2,0.6c-0.1,0.2-0.2,0.4-0.3,0.6s-0.2,0.4-0.3,0.6s-0.1,0.3-0.2,0.5h-0.7c-0.1-0.1-0.1-0.3-0.2-0.5
			s-0.2-0.4-0.3-0.6s-0.2-0.4-0.3-0.6c-0.1-0.2-0.2-0.4-0.2-0.6c0,0.5-0.1,1-0.1,1.5c0,0.5,0,0.9,0,1.3h-0.9c0-0.3,0-0.7,0.1-1.1
			c0-0.4,0-0.7,0.1-1.1s0.1-0.7,0.1-1.1c0-0.3,0.1-0.7,0.1-0.9H1091.5z"/>
	</g>
</g>
</svg>
