<?xml version="1.0" encoding="utf-8"?>
<!-- Generator: Adobe Illustrator 16.0.0, SVG Export Plug-In . SVG Version: 6.00 Build 0)  -->
<!DOCTYPE svg PUBLIC "-//W3C//DTD SVG 1.1//EN" "http://www.w3.org/Graphics/SVG/1.1/DTD/svg11.dtd">
<svg version="1.1" id="图层_1" xmlns="http://www.w3.org/2000/svg" xmlns:xlink="http://www.w3.org/1999/xlink" x="0px" y="0px"
	 width="32px" height="32px" viewBox="0 0 32 32" enable-background="new 0 0 32 32" xml:space="preserve">
<polygon opacity="0.08" enable-background="new    " points="5.077,32 5.077,1 28.923,1 28.923,23.249 20.172,32 "/>
<polygon opacity="0.1" enable-background="new    " points="5.577,31.5 5.577,1.5 28.423,1.5 28.423,23.042 19.965,31.5 "/>
<polygon opacity="0.2" enable-background="new    " points="5.077,31 5.077,1 27.923,1 27.923,22.542 19.465,31 "/>
<polygon fill="#3E2723" points="5.512,30.5 5.512,1.5 27.488,1.5 27.488,22.335 19.273,30.5 "/>
<g>
	<g>
		
			<linearGradient id="SVGID_1_" gradientUnits="userSpaceOnUse" x1="58.0996" y1="-133.9004" x2="58.0996" y2="-161.9009" gradientTransform="matrix(1 0 0 -1 -41.6001 -131.9004)">
			<stop  offset="0" style="stop-color:#785548"/>
			<stop  offset="1" style="stop-color:#9F9E9F"/>
		</linearGradient>
		<polygon fill="url(#SVGID_1_)" points="6.011,30 6.011,2 26.99,2 26.99,22.114 19.191,30 		"/>
		<polygon fill="#795548" fill-opacity="0.7" points="26.99,22.125 26.99,21.786 18.686,21.786 18.686,30 19.115,30 		"/>
		<path opacity="0.39" fill="#FFFFFF" enable-background="new    " d="M19.104,22.125l7.887,0.011L19.115,30L19.104,22.125z"/>
	</g>
	<path fill="#FFFFFF" d="M13.508,7.397h-0.711v9.093h-0.536V7.397h-0.707v9.093h-0.536V7.397h-0.708v9.093H9.773V7.397H9.067v9.093
		H8.882v3.852h4.867V16.49h-0.241V7.397z M13.041,19.223H9.587V16.99h3.454V19.223z"/>
	<g>
		<rect x="6.006" y="2" opacity="0.8" fill="#FFFFFF" enable-background="new    " width="20.988" height="5.367"/>
		<g enable-background="new    ">
			<path fill="#5D4037" d="M11.398,6.86c-0.714,0-1.259-0.189-1.635-0.568C9.388,5.914,9.2,5.377,9.2,4.681
				c0-0.346,0.058-0.654,0.173-0.926c0.113-0.271,0.27-0.501,0.468-0.688c0.201-0.187,0.438-0.329,0.713-0.426
				c0.275-0.097,0.574-0.145,0.895-0.145c0.186,0,0.355,0.014,0.508,0.04c0.153,0.026,0.287,0.056,0.401,0.091
				c0.113,0.034,0.209,0.069,0.284,0.106c0.077,0.036,0.131,0.064,0.166,0.084l-0.286,0.761c-0.135-0.068-0.293-0.126-0.474-0.175
				c-0.179-0.048-0.383-0.073-0.612-0.073c-0.151,0-0.301,0.024-0.447,0.073c-0.147,0.048-0.277,0.126-0.388,0.231
				c-0.113,0.106-0.203,0.245-0.27,0.414c-0.067,0.168-0.102,0.375-0.102,0.615c0,0.193,0.022,0.374,0.067,0.54
				c0.044,0.167,0.117,0.311,0.215,0.432c0.1,0.121,0.229,0.216,0.39,0.286c0.162,0.07,0.357,0.106,0.585,0.106
				c0.144,0,0.273-0.008,0.388-0.024c0.113-0.016,0.215-0.035,0.305-0.057c0.089-0.023,0.167-0.047,0.235-0.076
				c0.068-0.028,0.13-0.055,0.185-0.079l0.273,0.754c-0.141,0.081-0.337,0.153-0.591,0.218C12.027,6.827,11.734,6.86,11.398,6.86z"
				/>
			<path fill="#5D4037" d="M14.83,2.544c0.658,0,1.161,0.11,1.511,0.329c0.353,0.22,0.529,0.579,0.529,1.078
				c0,0.503-0.178,0.866-0.534,1.089c-0.355,0.224-0.864,0.335-1.526,0.335H14.5v1.4h-0.992V2.653
				c0.217-0.041,0.445-0.068,0.685-0.084C14.436,2.552,14.647,2.544,14.83,2.544z M14.893,3.347c-0.073,0-0.143,0.002-0.211,0.006
				C14.611,3.357,14.55,3.361,14.5,3.365v1.207h0.31c0.345,0,0.602-0.044,0.776-0.133c0.174-0.088,0.261-0.253,0.261-0.495
				c0-0.117-0.023-0.212-0.067-0.289s-0.107-0.139-0.189-0.184c-0.084-0.046-0.184-0.079-0.303-0.097
				C15.168,3.356,15.038,3.347,14.893,3.347z"/>
			<path fill="#5D4037" d="M17.6,2.592h0.99v4.183H17.6V2.592z"/>
			<path fill="#5D4037" d="M23.801,4.681c0,0.358-0.057,0.673-0.168,0.945c-0.113,0.271-0.268,0.499-0.461,0.682
				c-0.195,0.183-0.428,0.321-0.697,0.413c-0.268,0.093-0.559,0.14-0.865,0.14c-0.303,0-0.586-0.046-0.854-0.14
				c-0.266-0.092-0.5-0.229-0.699-0.413c-0.197-0.183-0.355-0.41-0.467-0.682c-0.117-0.272-0.174-0.587-0.174-0.945
				c0-0.358,0.061-0.673,0.178-0.944c0.119-0.271,0.279-0.5,0.48-0.686c0.199-0.185,0.434-0.323,0.699-0.416
				c0.264-0.093,0.541-0.14,0.836-0.14c0.299,0,0.582,0.047,0.85,0.14c0.268,0.092,0.498,0.23,0.699,0.416
				c0.199,0.186,0.355,0.414,0.471,0.686C23.742,4.008,23.801,4.322,23.801,4.681z M20.438,4.681c0,0.205,0.027,0.391,0.082,0.555
				c0.053,0.166,0.127,0.307,0.229,0.425c0.1,0.12,0.219,0.211,0.365,0.275C21.256,6,21.422,6.033,21.609,6.033
				c0.182,0,0.346-0.033,0.492-0.097c0.145-0.064,0.268-0.156,0.367-0.275c0.1-0.118,0.176-0.26,0.229-0.425
				c0.053-0.164,0.08-0.35,0.08-0.555s-0.027-0.391-0.08-0.558c-0.053-0.167-0.129-0.31-0.229-0.428s-0.223-0.21-0.367-0.275
				c-0.146-0.063-0.311-0.096-0.492-0.096c-0.188,0-0.354,0.034-0.496,0.1c-0.146,0.066-0.266,0.159-0.365,0.277
				c-0.102,0.12-0.176,0.262-0.229,0.429C20.465,4.296,20.438,4.48,20.438,4.681z"/>
		</g>
	</g>
</g>
</svg>
