<?xml version="1.0" encoding="utf-8"?>
<!-- Generator: Adobe Illustrator 21.0.0, SVG Export Plug-In . SVG Version: 6.00 Build 0)  -->
<svg version="1.1" id="图层_1" xmlns="http://www.w3.org/2000/svg" xmlns:xlink="http://www.w3.org/1999/xlink" x="0px" y="0px"
	 viewBox="0 0 32 32" style="enable-background:new 0 0 32 32;" xml:space="preserve">
<style type="text/css">
	.st0{opacity:0.08;enable-background:new    ;}
	.st1{opacity:0.2;enable-background:new    ;}
	.st2{opacity:0.1;enable-background:new    ;}
	.st3{fill:#311B92;}
	.st4{fill:url(#SVGID_1_);}
	.st5{fill:#311B92;fill-opacity:0.39;}
	.st6{fill:#FFFFFF;fill-opacity:0.39;}
	.st7{opacity:0.8;}
	.st8{fill:#FFFFFF;}
</style>
<title>application-x-php</title>
<polygon class="st0" points="4.5,32 4.5,1 28.5,1 28.5,23.1 19.6,32 "/>
<polygon class="st1" points="5,31 5,1 28,1 28,22.4 19.4,31 "/>
<polygon class="st2" points="5,31.5 5,1.5 28,1.5 28,22.9 19.4,31.5 "/>
<polygon class="st3" points="5.5,30.5 5.5,1.5 27.5,1.5 27.5,22.2 19.2,30.5 "/>
<linearGradient id="SVGID_1_" gradientUnits="userSpaceOnUse" x1="58.1" y1="2526.8999" x2="58.1" y2="2554.8999" gradientTransform="matrix(1 0 0 1 -41.6 -2524.8999)">
	<stop  offset="0" style="stop-color:#7986CB"/>
	<stop  offset="0.2" style="stop-color:#6473C3"/>
	<stop  offset="0.47" style="stop-color:#5060BB"/>
	<stop  offset="0.74" style="stop-color:#4355B7"/>
	<stop  offset="1" style="stop-color:#3F51B5"/>
</linearGradient>
<polygon class="st4" points="6,30 6,2 27,2 27,22 19,30 "/>
<polygon class="st5" points="27,22 27,21.6 18.6,21.6 18.6,30 19,30 "/>
<path class="st6" d="M19,22h8l-8,8V22z"/>
<g class="st7">
	<path class="st8" d="M20.1,11.9c-0.2,0-0.3,0.1-0.4,0.2c-0.2,0.2-0.3,0.3-0.3,0.6c-0.1,0.2-0.1,0.5-0.1,0.8c0,0.1,0,0.3,0.1,0.4
		c0.1,0.1,0.2,0.2,0.3,0.1c0.2,0,0.3-0.1,0.4-0.2c0.1-0.2,0.3-0.4,0.3-0.6c0.1-0.2,0.1-0.5,0.1-0.7C20.5,12.1,20.4,11.9,20.1,11.9z"
		/>
	<path class="st8" d="M14,11.9c-0.2,0-0.3,0.1-0.4,0.2c-0.2,0.2-0.3,0.3-0.3,0.6c-0.1,0.2-0.1,0.5-0.1,0.8c0,0.1,0,0.3,0.1,0.4
		c0.1,0.1,0.2,0.2,0.3,0.1c0.2,0,0.3-0.1,0.4-0.2c0.1-0.2,0.3-0.4,0.3-0.6c0.1-0.2,0.1-0.5,0.1-0.7C14.4,12.1,14.3,11.9,14,11.9z"/>
	<path class="st8" d="M16.5,8C12.4,8,9,10.2,9,13s3.4,5,7.5,5s7.5-2.2,7.5-5S20.6,8,16.5,8z M21.3,13.5c-0.1,0.3-0.3,0.6-0.6,0.9
		c-0.2,0.2-0.5,0.3-0.9,0.3c-0.2,0-0.3,0-0.5-0.1s-0.3-0.2-0.4-0.4l0,0c0,0.3-0.1,0.6-0.1,0.9l-0.2,1h-1l0.3-1.5H17l0.5-2
		c0-0.1,0-0.2,0-0.4c0-0.3-0.1-0.4-0.4-0.4c-0.2,0-0.4,0.1-0.5,0.4c-0.2,0.3-0.3,0.6-0.4,1l-0.3,1.4h-1l0.2-0.8
		c-0.1,0.2-0.3,0.4-0.4,0.6c-0.2,0.2-0.5,0.3-0.9,0.3c-0.2,0-0.3,0-0.5-0.1s-0.3-0.2-0.4-0.4l0,0c0,0.3-0.1,0.6-0.1,0.9l-0.2,1h-1
		l1.1-4.9h0.8l-0.1,0.5l0,0c0.2-0.3,0.6-0.6,1-0.6c0.3,0,0.6,0.1,0.8,0.3s0.2,0.4,0.3,0.7L16,9.8h1l-0.2,0.9c0,0.2-0.1,0.5-0.3,0.9
		l0,0c0.1-0.2,0.3-0.3,0.5-0.4c0.2-0.1,0.4-0.1,0.6-0.1c0.3,0,0.5,0.1,0.7,0.3s0.3,0.5,0.3,0.7c0,0.1,0,0.1,0,0.2l0.3-1.1h0.8v0.5
		l0,0c0.2-0.3,0.6-0.6,1-0.6c0.3,0,0.6,0.1,0.8,0.3c0.2,0.3,0.3,0.6,0.3,0.9C21.4,12.8,21.4,13.1,21.3,13.5z"/>
</g>
</svg>
