<?xml version="1.0" encoding="utf-8"?>
<!-- Generator: Adobe Illustrator 16.0.0, SVG Export Plug-In . SVG Version: 6.00 Build 0)  -->
<!DOCTYPE svg PUBLIC "-//W3C//DTD SVG 1.1//EN" "http://www.w3.org/Graphics/SVG/1.1/DTD/svg11.dtd">
<svg version="1.1" id="图层_1" xmlns="http://www.w3.org/2000/svg" xmlns:xlink="http://www.w3.org/1999/xlink" x="0px" y="0px"
	 width="32px" height="32px" viewBox="0 0 32 32" enable-background="new 0 0 32 32" xml:space="preserve">
<polygon opacity="0.08" enable-background="new    " points="5.077,32 5.077,1 28.923,1 28.923,23.249 20.172,32 "/>
<polygon opacity="0.1" enable-background="new    " points="5.577,31.5 5.577,1.5 28.423,1.5 28.423,23.042 19.965,31.5 "/>
<polygon opacity="0.2" enable-background="new    " points="5.077,31 5.077,1 27.923,1 27.923,22.542 19.465,31 "/>
<polygon fill="#0D47A1" points="5.512,30.5 5.512,1.5 27.488,1.5 27.488,22.336 19.273,30.5 "/>
<g>
	<g>
		<g>
			<g>
				
					<linearGradient id="SVGID_1_" gradientUnits="userSpaceOnUse" x1="99.6992" y1="854.8008" x2="99.6992" y2="826.8008" gradientTransform="matrix(1 0 0 1 -83.2002 -824.8008)">
					<stop  offset="0" style="stop-color:#1976D2"/>
					<stop  offset="0.0226" style="stop-color:#1C79D3"/>
					<stop  offset="0.2859" style="stop-color:#3B93E2"/>
					<stop  offset="0.5416" style="stop-color:#52A6ED"/>
					<stop  offset="0.7843" style="stop-color:#5FB1F4"/>
					<stop  offset="1" style="stop-color:#64B5F6"/>
				</linearGradient>
				<polygon fill="url(#SVGID_1_)" points="6.011,30 6.011,2 26.989,2 26.989,22.125 19.114,30 				"/>
			</g>
			<polygon fill="#0D47A1" fill-opacity="0.39" points="26.989,22.125 26.989,21.786 18.683,21.786 18.683,30 19.114,30 			"/>
			<path fill="#FFFFFF" fill-opacity="0.45" d="M19.104,22.125l7.888,0.011L19.114,30L19.104,22.125z"/>
		</g>
		<g>
			<path fill="#64B5F6" d="M23.018,15.081c0,3.599-2.921,6.519-6.519,6.519c-3.597,0-6.517-2.92-6.517-6.519
				c0-3.595,2.92-6.515,6.517-6.515C20.097,8.566,23.018,11.486,23.018,15.081z"/>
			<path fill="#FFFFFF" fill-opacity="0.8" d="M12.225,10.172c0,0,0.135,0.071,0.187,0.186c0.042,0.115,0.188,0.115,0.188,0.115
				h0.208l0.305-0.095l-0.074,0.168c0,0-1.595,0.74-1.272,1.178c0.323,0.438,0.208,0.552,0.208,0.689c0,0.135,0.095,0.02,0.095,0.02
				l0.094-0.25l0.136-0.186l0.137-0.211l0.042-0.113l0.187-0.323l0.229-0.135l0.209,0.135c0,0,0.094,0.04,0.072,0.113
				c-0.021,0.075-0.042,0.209-0.042,0.209s0.042,0.095,0.114,0.095c0.074,0,0.188-0.073,0.188-0.073l0.095,0.166l0.073,0.304
				l0.187,0.186l0.096,0.208l-0.096,0.188l0.096,0.075l0.208,0.229l0.04,0.113l-0.344-0.02c0,0-0.041-0.097-0.113-0.097
				c-0.073,0-0.365-0.02-0.365-0.02l-0.169,0.042l-0.091,0.113c0,0-0.116,0.19-0.189,0.19c-0.071,0-0.248-0.041-0.248-0.041
				s-0.137-0.043-0.211,0.091c-0.073,0.139,0.113,0.209,0.113,0.209l-0.322,0.095l-0.095,0.042c0,0-0.229,0.095-0.229,0.168
				s0,0.073,0,0.073l-0.07,0.186v0.115l-0.168,0.137l-0.168,0.113l-0.071,0.137v0.229c0,0-0.021,0.115-0.021,0.188
				c0,0.072,0,0.25,0,0.25s-0.074,0.074-0.115-0.073c-0.042-0.137-0.042-0.137-0.042-0.137l-0.073-0.168
				c0,0,0.073-0.018-0.021-0.093c-0.093-0.071-0.188-0.093-0.188-0.093s-0.04-0.04-0.136-0.04c-0.094,0,0.114,0.019-0.094,0
				c-0.208-0.021-0.208-0.021-0.208-0.021l-0.168,0.135v0.113c0,0-0.039,0.815,0.188,0.93h0.096l0.134-0.208l0.116,0.04v0.095
				l-0.021,0.168v0.095l0.112,0.115l0.074,0.21c0.095,0.164,0.042,0.207,0.114,0.247s0.137,0.168,0.137,0.168l0.093,0.04
				c0,0,0.072,0.022,0.135,0.042c0.074,0.022,0.074,0.022,0.074,0.022l0.023,0.104l0.021,0.084l0.093,0.113c0,0-0.071,0,0.095,0
				c0.167,0,0.167,0,0.167,0s0,0.043,0.115,0.096c0.113,0.039,0.022,0.022,0.113,0.039c0.096,0.023,0.251,0.042,0.251,0.042
				c0.166-0.021,0.166-0.021,0.166-0.021l0.116,0.168c0,0,0.071,0,0.093,0.071c0.021,0.074-0.113,0,0.021,0.074
				c0.136,0.073,0,0.022,0.136,0.073c0.135,0.053-0.044,0.042,0.133,0.042c0.178,0,0.209,0,0.283,0.02
				c0.072,0.021,0.114,0.189,0.114,0.189c0.136,0.166,0.136,0.166,0.136,0.166l0.021,0.208c0,0-0.073,0.042,0.093,0.042
				c0.169,0,0.043,0,0.169,0c0.124,0-0.021-0.042,0.113,0c0.136,0.04,0.136,0.04,0.136,0.04s0.208,0.17,0.282,0.17
				c0.073,0,0.209-0.024,0.281,0c0.074,0.02,0.113,0.133,0.249,0.166c0.137,0.021,0.188,0,0.282,0.072
				c0.096,0.073,0.096,0.073,0.096,0.073l0.021,0.248l-0.075,0.137l-0.187,0.072l-0.021,0.231l-0.096,0.232v0.11
				c0,0,0.115,0.097-0.093,0.117c-0.207,0.019-0.207,0.019-0.207,0.019l-0.095,0.095c0,0,0,0.023-0.042,0.095
				c-0.04,0.07-0.094,0.189-0.094,0.189l0.022,0.208v0.135l-0.074,0.112c0,0-0.063,0.033,0.113,0.148
				c0.187,0.112,0.334,0.112,0.377,0.184c0.04,0.077,0.157,0.139,0.157,0.139l-0.252-0.053l-0.157-0.053l-0.26-0.071l-0.501-0.261
				c0,0-0.751-0.616-0.981-1.113c0,0-0.195-0.294-0.53-0.418c0,0-0.825-0.753-0.897-0.94l-0.032-0.126v-0.062l-0.032-0.033v-0.071
				L11.421,18.2l0.011-0.231l0.011-0.155l0.01-0.084l-0.01-0.062c0,0-0.043-0.04-0.043-0.051c0-0.01-0.03-0.106-0.03-0.106
				l-0.011-0.028l0.126-0.106l-0.033-0.095l0.021-0.053l0.074-0.051c0,0,0.042-0.063,0.042-0.073c0-0.02-0.073-0.072-0.073-0.072
				l-0.03,0.011l-0.033,0.095h-0.04c0,0-0.042-0.022-0.042-0.033s-0.04-0.051-0.04-0.051l-0.054-0.021c0,0-0.042-0.012-0.052-0.031
				c-0.012-0.021-0.063-0.051-0.063-0.064c0-0.009-0.04-0.072-0.04-0.072l-0.053-0.019c0,0-0.064-0.095-0.064-0.116
				c0-0.008-0.031-0.061-0.031-0.061s-0.073-0.084-0.073-0.095c0-0.009-0.032-0.084-0.032-0.084h-0.05l-0.115-0.044l-0.073-0.091
				l-0.083-0.095c0,0-0.043-0.075-0.043-0.093c0-0.022-0.031-0.044-0.031-0.044h-0.052h-0.03l-0.072-0.063l-0.188-0.259
				l-0.033-0.116l-0.03-0.124l-0.021-0.21v-0.137l-0.083-0.968C9.992,14.257,10.274,11.858,12.225,10.172z"/>
			<path fill="#FFFFFF" fill-opacity="0.8" d="M19.588,9.355l0.21,0.169l0.104,0.051l0.071,0.083l0.013,0.084
				c0,0,0.021,0.084,0.012,0.104c-0.012,0.022-0.024,0.135-0.024,0.135s0.095,0.169,0.095,0.19c0,0.02,0.012,0.113-0.009,0.135
				c-0.021,0.009-0.137,0.082-0.147,0.051c-0.01-0.031-0.082-0.104-0.104-0.104c-0.021-0.013-0.083-0.073-0.083-0.073l0.167-0.023
				l-0.021-0.104c0,0-0.113-0.04-0.146-0.04c-0.031-0.011-0.148-0.073-0.148-0.073L19.451,9.91c0,0-0.207-0.053-0.229-0.064
				c-0.02-0.011-0.105-0.04-0.105-0.04h-0.175c0,0-0.086,0.04-0.106,0.062c-0.009,0.022-0.114,0.135-0.114,0.135
				s-0.009,0.135-0.009,0.157c0,0.022-0.031,0.075-0.031,0.135c0,0.063-0.013,0.147-0.013,0.169s0,0.053,0,0.053l-0.021,0.091
				l-0.072,0.043l-0.094,0.073c0,0-0.082,0.062-0.082,0.083c0,0.022,0,0.104,0.031,0.166c0.029,0.062,0.021,0.122,0.061,0.155
				c0.042,0.033,0.062,0.073,0.095,0.085c0.032,0.009,0.009,0.02,0.062,0.02c0.042,0,0.084,0.011,0.104-0.011
				c0.021-0.009,0.074-0.009,0.097-0.04c0.02-0.033-0.022-0.011,0.02-0.033c0.04-0.011,0.04-0.04,0.075-0.011
				c0.04,0.033,0.072,0.075,0.082,0.095c0.011,0.022,0.042,0.073,0.074,0.106c0.04,0.021,0.073,0.104,0.073,0.104l0.062,0.064
				c0,0,0.01,0.009,0.052,0.009c0.041,0,0.104-0.009,0.104-0.009l0.023-0.042c0,0,0.038,0.011,0.051-0.009
				c0.012-0.022,0.012-0.053,0.012-0.053s-0.024-0.063-0.04-0.082C19.423,11.3,19.4,11.248,19.4,11.248l0.013-0.073l0.038-0.042
				l0.013-0.051v-0.065l-0.045-0.022l-0.073-0.042c0,0-0.04,0.009-0.04-0.042c-0.011-0.041-0.011-0.041-0.011-0.041l-0.093-0.021
				l-0.064-0.033l0.073-0.051c0.042-0.073,0.053-0.095,0.053-0.113c0-0.021-0.011-0.083-0.011-0.083s-0.042-0.011-0.042-0.066
				c-0.009-0.051-0.009-0.082-0.009-0.082l0.009-0.04c0,0,0.011-0.033,0.042-0.033c0.021,0,0.062,0.033,0.084,0.033
				c0.02,0,0.06,0.009,0.06,0.009s0.022,0.009,0.022,0.043c0,0.019-0.01,0.069-0.01,0.069l0.041-0.06v0.075l-0.012,0.082v0.082
				l0.042,0.084l0.04,0.065c0,0,0.052,0.051,0.075,0.073c0.023,0.007,0.074,0.049,0.074,0.049l0.063,0.031l0.04,0.011l0.042-0.042
				c0,0,0.074,0.009,0.074-0.013c0.012-0.022,0.012-0.022,0.012-0.022s0.083-0.007,0.105-0.007c0.02,0,0.062,0,0.062,0
				s0.031,0.06,0.012,0.06c-0.022,0-0.033,0.022-0.086,0.042c-0.053,0.011-0.073,0-0.082,0.021
				c-0.011,0.022-0.042,0.073-0.042,0.073l0.042,0.011h0.029l0.043,0.044c0,0,0.01,0.007,0,0.04
				c-0.013,0.029,0.039,0.022-0.013,0.029c-0.06,0.014-0.091-0.007-0.091-0.007s-0.011-0.055-0.044-0.031
				c-0.021,0.022-0.032,0.073-0.032,0.073v0.071l0.043,0.106c0,0,0.019,0.021,0,0.033c-0.02,0.011-0.093,0.093-0.093,0.093
				S19.741,11.6,19.71,11.6c-0.018,0-0.049,0-0.105,0.011c-0.038,0.009-0.038,0.009-0.08,0.022
				c-0.042,0.009-0.073,0.018-0.137,0.029c-0.062,0.011-0.177,0.011-0.215,0.011c-0.044,0-0.053,0-0.077-0.011
				c-0.02-0.011-0.011,0-0.04-0.042c-0.03-0.042-0.063-0.073-0.063-0.104c0-0.022,0-0.033-0.013-0.075
				c-0.009-0.04-0.009-0.071-0.038-0.071c-0.044,0-0.044,0-0.044,0s-0.08,0.062-0.071,0.084s-0.009,0,0.063,0.051
				c0.07,0.051,0.095,0.125,0.095,0.125l-0.013,0.073l-0.136,0.075l-0.093,0.029l-0.011,0.062c0,0,0,0.022-0.02,0.053
				c-0.022,0.031-0.075,0.073-0.075,0.073s-0.042,0.009-0.051,0.042c-0.011,0.022-0.042,0.102-0.042,0.102s-0.042-0.009-0.084,0.022
				c-0.04,0.033,0.011,0.033-0.084,0.075c-0.093,0.04-0.093,0.04-0.093,0.04l-0.105-0.009l-0.063,0.022c0,0-0.082,0.009-0.093,0.031
				c-0.011,0.02-0.053,0.082-0.053,0.082s-0.021,0.044,0,0.044c0.021,0.007,0.053,0,0.104,0.007
				c0.042,0.015,0.053,0.015,0.086,0.033c0.031,0.013,0.062,0.044,0.062,0.044l0.113,0.102l0.065,0.135l-0.013,0.106l-0.124,0.04
				c0,0-0.072,0-0.104,0c-0.023,0-0.015,0-0.137,0c-0.124,0-0.146,0-0.168,0c-0.021,0-0.104-0.011-0.104-0.011l-0.073,0.011
				l-0.053,0.043l-0.031,0.009c0,0,0.044,0.093,0.044,0.126c0,0.031,0,0.071,0,0.071l-0.013,0.066L17.594,13.3l-0.042,0.071
				l0.013,0.042c0,0-0.013,0.031,0.012,0.031c0.02,0,0.08-0.009,0.08,0.013c0,0.02-0.05,0.104-0.05,0.104l0.106,0.022
				c0,0-0.012-0.011,0.049,0.011c0.062,0.007,0.104,0.029,0.104,0.029l0.071,0.051l0.023,0.042l0.022-0.042
				c0,0,0.113-0.011,0.133-0.022c0.023-0.009,0.075-0.009,0.075-0.009h0.093c0,0,0.021,0.009,0.042-0.013
				c0.009-0.019,0.009-0.019,0.009-0.019s0.105-0.04,0.126-0.062c0.021-0.011,0.031-0.075,0.031-0.075s0.032-0.02,0.032-0.04
				s-0.021-0.073-0.021-0.073v-0.044l0.031-0.04c0,0,0.011-0.013,0.042-0.042c0.032-0.033,0.032-0.033,0.032-0.033
				s-0.013-0.007,0.029-0.029c0.044-0.013,0.075-0.043,0.095-0.043c0.021,0-0.02,0.022,0.021,0c0.042-0.022,0.053-0.04,0.053-0.073
				c0-0.02,0.013-0.135,0.013-0.135l0.038-0.062l0.104,0.011l0.055,0.011c0,0,0.063,0.011,0.071-0.011
				c0.011-0.022,0.042-0.041,0.042-0.041l0.084-0.043c0,0-0.009-0.011,0.033-0.011c0.04,0,0.104,0,0.137,0c0.02,0,0.07,0,0.07,0
				s0.042,0.022,0.063,0.041c0.011,0.021,0.042,0.073,0.042,0.073l0.032,0.044h0.031c0.042,0.031,0.061,0.053,0.135,0.073
				c0.073,0.022,0.126,0.04,0.126,0.04s0.021,0.044,0.038,0.062c0.022,0.022,0.042,0.044,0.073,0.065
				c0.021,0.007,0.042,0.029,0.053,0.051c0.013,0.022,0.044,0.062,0.044,0.062l0.038,0.043l0.023-0.043v-0.073l-0.009-0.04
				c0,0-0.042-0.031,0.009-0.031c0.042,0,0.075,0,0.075,0l-0.042-0.064l-0.053-0.022l-0.071-0.051l-0.033-0.033l-0.032-0.009
				l-0.031-0.02l-0.042-0.033c0,0-0.071-0.011-0.071-0.04c-0.013-0.022-0.013-0.022-0.013-0.022l-0.072-0.011
				c0,0-0.071-0.04-0.071-0.062c0-0.021-0.013-0.083-0.013-0.083l-0.061-0.009c0,0,0.009-0.042,0.009-0.073
				c0-0.022,0.022-0.053,0.022-0.053l0.135-0.009l0.029,0.071l0.051,0.033l0.075,0.031l0.03,0.042l0.035,0.033
				c0,0,0.011,0.007,0.051,0.022c0.04,0.009,0.071,0.018,0.071,0.018s0.044,0.042,0.074,0.042c0.031,0.011,0.042,0.022,0.075,0.033
				c-0.023,0.02-0.023,0.02-0.023,0.02s0.011,0.022,0.042,0.041c0.03,0.021,0.062,0.062,0.062,0.083s0.022,0.095,0.042,0.106
				c0.021,0.011,0.031,0.011,0.073,0.051c0.038,0.04,0.038,0.084,0.071,0.106c0.041,0.011,0.072,0,0.072,0.04
				c0.013,0.042,0.013,0.073,0.013,0.073s0.033,0.011,0.052,0.011c0.02,0,0.062-0.04,0.062-0.04s0.044-0.064,0.013-0.077
				c-0.02-0.009-0.073-0.009-0.073-0.031c0-0.02,0-0.135,0-0.135l0.031-0.075l0.042-0.06l0.063,0.02l0.062-0.04l0.063,0.073
				l-0.02,0.082c0,0,0.009,0.053,0.038,0.093c0.023,0.042,0.073,0.095,0.073,0.095l0.105,0.095l0.147,0.04l0.033-0.009l0.217-0.042
				c0,0,0.032,0,0.051,0c0.022,0,0.126,0.179,0.126,0.179s0,0.073,0,0.113s0,0.146,0,0.146s-0.073,0.073-0.104,0.073
				c-0.033,0-0.115,0.04-0.115,0.04l-0.175,0.043l-0.115-0.011l-0.208-0.011c0,0-0.209-0.011-0.231-0.011c-0.021,0-0.095,0-0.114,0
				c-0.021,0-0.052,0.022-0.071,0.084c-0.023,0.062-0.063,0.082-0.063,0.082s0,0.031-0.041,0.031c-0.043,0-0.043,0.013-0.074-0.009
				s-0.177-0.053-0.177-0.053l-0.137-0.091l-0.075-0.062l-0.072-0.011h-0.208l-0.137-0.011l0.023-0.219l0.021,0.062l-0.044-0.146
				l-0.063-0.04l-0.146-0.033l-0.093,0.011l-0.122,0.031l-0.128,0.042l-0.074,0.022l-0.353,0.06l-0.127,0.053
				c0,0-0.053,0.031-0.071,0.04c-0.021,0.011-0.105,0.011-0.105,0.011s-0.063-0.011-0.094-0.021
				c-0.03-0.009-0.105-0.009-0.137-0.009c-0.03,0-0.095-0.011-0.114,0c-0.021,0.009-0.042,0.009-0.063,0.04
				c-0.021,0.033-0.095,0.117-0.095,0.117s-0.038,0.04-0.062,0.062c-0.01,0.018-0.063,0.082-0.063,0.082l-0.084,0.137l-0.053,0.062
				l0.013,0.073v0.053c0,0-0.032,0.031-0.051,0.042c-0.023,0.009-0.065,0.033-0.065,0.033s-0.031,0.007-0.063,0.039
				c-0.028,0.022-0.028,0.035-0.052,0.053c-0.022,0.022-0.096,0.073-0.096,0.073s-0.04,0.031-0.071,0.062
				c-0.02,0.033-0.063,0.073-0.073,0.095c-0.01,0.022-0.042,0.041-0.063,0.051c-0.018,0.011-0.063,0.095-0.071,0.117
				c-0.011,0.018-0.074,0.113-0.074,0.113l-0.042,0.179l-0.009,0.082c0,0,0.009,0.031,0.032,0.053
				c0.021,0.019,0.041,0.106,0.041,0.106v0.072c0,0-0.022,0.063-0.033,0.084c-0.008,0.019,0.011,0.124,0.011,0.124v0.062
				c0,0,0,0.022-0.032,0.052c-0.032,0.032-0.041,0.072-0.041,0.072l0.041,0.095l0.032,0.063v0.044l0.04,0.069
				c0,0,0.022,0.023,0.041,0.043c0.023,0.012,0.034,0.012,0.077,0.044c0.041,0.019,0.041,0.019,0.041,0.019s0.063,0.073,0.063,0.105
				c0,0.022,0.04,0.064,0.04,0.064l0.073,0.072c0,0,0.012,0.04,0.051,0.071c0.042,0.033,0.085,0.053,0.105,0.073
				c0.022,0.011,0.082,0.062,0.135,0.072c0.042,0.012,0.064,0.022,0.086,0.022c0.019,0-0.033-0.064,0.113,0.011
				c0.147,0.073,0.24,0.104,0.24,0.104l0.105,0.042c0,0,0.17,0.011,0.187-0.011c0.02-0.011,0.051-0.011,0.071-0.011
				c0.02,0,0.074,0,0.116,0c0.04,0,0.187-0.022,0.187-0.022l0.165-0.062c0,0,0.054-0.031,0.075-0.04
				c0.021-0.011,0.082-0.051,0.105-0.063c0.022-0.013,0.124-0.013,0.124-0.013s0-0.03,0.042,0c0.042,0.031,0.042,0.042,0.053,0.064
				c0.013,0.021,0.013,0.072,0.042,0.072c0.031,0.012,0.104,0.033,0.104,0.033s0.105-0.011,0.135,0
				c0.034,0.009,0.105,0.009,0.105,0.009l0.033,0.042l0.009,0.095v0.084c0,0-0.009,0.033,0,0.063
				c0.011,0.029,0.044,0.084,0.044,0.084s-0.044,0.062-0.066,0.07c-0.023,0.01-0.072,0.073-0.072,0.073l0.146,0.135l0.084,0.084
				l0.063,0.075c0,0,0.012,0.03,0.012,0.051c0,0.02-0.012,0.072,0,0.104c0.009,0.023,0.009,0.105,0.009,0.105
				s0.011,0.063,0.011,0.084c0,0.022-0.02,0.124-0.02,0.124l-0.012,0.073l-0.045,0.126l-0.05,0.062l-0.074,0.073l-0.052,0.084
				l-0.009,0.112l-0.044,0.071c0,0,0.013,0.065,0.013,0.097s0.063,0.146,0.063,0.146L19.64,19.15c0,0-0.04,0.137-0.04,0.167
				c0,0.033-0.033,0.073-0.033,0.106c0,0.02-0.011,0.112-0.011,0.112l0.011,0.115l0.038,0.113l-0.038,0.105
				c0,0-0.021,0.082-0.021,0.135c0,0.04,0.074,0.093,0.095,0.093c0.021,0,0.114-0.011,0.158-0.04
				c0.038-0.021,0.143-0.051,0.166-0.063c0.021-0.011,0.042,0.013,0.104-0.04c0.063-0.042,0.157-0.113,0.157-0.113
				s0.074-0.053,0.105-0.073c0.019-0.023,0.122-0.14,0.122-0.14s0.073-0.071,0.124-0.104c0.053-0.032,0-0.009,0.053-0.038
				c0.052-0.031,0.217-0.17,0.217-0.17l0.17-0.165c0,0,0.146-0.188,0.168-0.219c0.021-0.035,0.154-0.21,0.177-0.223
				c0.02-0.009,0.208-0.133,0.25-0.166c0.04-0.033,0.095-0.252,0.112-0.282c0.021-0.021,0.137-0.281,0.137-0.281l0.106-0.303
				l0.175-0.45l0.177-0.313c0,0,0.071-0.137,0.104-0.177c0.022-0.04,0.189-0.364,0.189-0.364l0.064-0.27l0.02-0.23h-0.104
				l-0.117,0.106l-0.105-0.033l-0.102,0.013l0.116-0.147l-0.033-0.113l-0.093-0.073l-0.126-0.186v-0.189l-0.135-0.219l-0.084-0.343
				c0,0-0.156-0.169-0.135-0.208c0.01-0.043,0.052-0.169,0.052-0.169l0.083,0.042c0,0,0.063,0.166,0.094,0.175
				c0.034,0.011,0.072,0.095,0.085,0.113c0.012,0.023,0.021,0.097,0.04,0.117c0.012,0.02,0.082,0.157,0.082,0.157
				s0.054,0.135,0.064,0.167c0.011,0.022,0.062,0.105,0.074,0.166c0.011,0.063,0.04,0.261,0.04,0.282
				c0,0.022,0.052,0.241,0.052,0.241s0.072-0.022,0.082-0.04c0.013-0.022,0.013-0.033,0.034-0.053
				c0.011-0.021,0.135-0.115,0.135-0.115l0.053-0.168c0,0,0.033-0.072,0.039-0.104c0.013-0.031,0.074-0.147,0.074-0.166
				c0-0.021-0.009-0.105,0-0.139c0.011-0.018,0.042-0.146,0.042-0.166c0-0.022,0.009-0.106,0.009-0.106l-0.009-0.188l0.082-0.104
				l0.042-0.115C23.008,14.27,22.705,10.994,19.588,9.355z"/>
		</g>
	</g>
	<g>
		<rect x="6.006" y="2" opacity="0.8" fill="#FFFFFF" enable-background="new    " width="20.988" height="5.367"/>
		<g enable-background="new    ">
			<path fill="#1976D2" d="M14.579,4.65c0,0.357-0.057,0.673-0.168,0.944c-0.113,0.271-0.266,0.5-0.461,0.682
				c-0.195,0.183-0.427,0.321-0.696,0.412c-0.269,0.095-0.558,0.141-0.866,0.141c-0.301,0-0.585-0.046-0.852-0.141
				c-0.268-0.091-0.499-0.229-0.699-0.412c-0.199-0.182-0.355-0.41-0.469-0.682c-0.115-0.271-0.174-0.587-0.174-0.944
				c0-0.359,0.061-0.674,0.179-0.944c0.119-0.273,0.279-0.5,0.479-0.685c0.203-0.186,0.435-0.325,0.7-0.416
				c0.265-0.095,0.542-0.14,0.835-0.14c0.301,0,0.583,0.045,0.852,0.14c0.266,0.091,0.499,0.23,0.698,0.416
				c0.198,0.186,0.355,0.412,0.47,0.685C14.522,3.976,14.579,4.292,14.579,4.65z M11.22,4.65c0,0.204,0.025,0.39,0.078,0.554
				c0.053,0.166,0.129,0.306,0.229,0.427c0.099,0.118,0.221,0.209,0.364,0.273c0.145,0.065,0.311,0.098,0.496,0.098
				c0.183,0,0.347-0.033,0.492-0.098c0.146-0.064,0.268-0.155,0.368-0.273c0.101-0.121,0.175-0.261,0.228-0.427
				c0.054-0.164,0.081-0.35,0.081-0.554c0-0.206-0.027-0.392-0.081-0.558c-0.053-0.168-0.127-0.31-0.228-0.43
				c-0.101-0.117-0.223-0.21-0.368-0.273c-0.146-0.066-0.31-0.099-0.492-0.099c-0.186,0-0.352,0.035-0.496,0.102
				c-0.144,0.066-0.266,0.157-0.364,0.277c-0.101,0.118-0.177,0.261-0.229,0.426C11.245,4.264,11.22,4.45,11.22,4.65z"/>
			<path fill="#1976D2" d="M18.525,2.562v0.802h-1.329v3.379h-0.991V3.364h-1.327V2.562H18.525z"/>
			<path fill="#1976D2" d="M21.814,2.562h0.991v4.182h-0.991V4.97h-1.663v1.773H19.16V2.562h0.991v1.601h1.663V2.562z"/>
		</g>
	</g>
</g>
</svg>
