<?xml version="1.0" encoding="utf-8"?>
<!-- Generator: Adobe Illustrator 16.0.0, SVG Export Plug-In . SVG Version: 6.00 Build 0)  -->
<!DOCTYPE svg PUBLIC "-//W3C//DTD SVG 1.1//EN" "http://www.w3.org/Graphics/SVG/1.1/DTD/svg11.dtd">
<svg version="1.1" id="图层_1" xmlns="http://www.w3.org/2000/svg" xmlns:xlink="http://www.w3.org/1999/xlink" x="0px" y="0px"
	 width="32px" height="32px" viewBox="0 0 32 32" enable-background="new 0 0 32 32" xml:space="preserve">
<polygon opacity="0.08" enable-background="new    " points="5.077,32 5.077,1 28.923,1 28.923,23.249 20.172,32 "/>
<polygon opacity="0.1" enable-background="new    " points="5.577,31.5 5.577,1.5 28.423,1.5 28.423,23.042 19.965,31.5 "/>
<polygon opacity="0.2" enable-background="new    " points="5.077,31 5.077,1 27.923,1 27.923,22.542 19.465,31 "/>
<polygon fill="#01579B" points="5.512,30.5 5.512,1.5 27.488,1.5 27.488,22.335 19.273,30.5 "/>
<g>
	<g>
		<g>
			<g>
				
					<linearGradient id="SVGID_1_" gradientUnits="userSpaceOnUse" x1="99.6992" y1="-580.8003" x2="99.6992" y2="-552.8008" gradientTransform="matrix(1 0 0 -1 -83.2002 -550.8008)">
					<stop  offset="0" style="stop-color:#2196F3"/>
					<stop  offset="0.5828" style="stop-color:#3DBAE8"/>
					<stop  offset="1" style="stop-color:#4DD0E1"/>
				</linearGradient>
				<polygon fill="url(#SVGID_1_)" points="6.009,30 6.009,2 26.987,2 26.987,22.125 19.112,30 				"/>
			</g>
			<polygon fill="#01579B" fill-opacity="0.39" points="26.987,22.125 26.987,21.786 18.681,21.786 18.681,30 19.112,30 			"/>
			<path fill="#FFFFFF" fill-opacity="0.3922" d="M19.102,22.125l7.888,0.011L19.112,30L19.102,22.125z"/>
		</g>
		<g>
			<circle opacity="0.8" fill="#FFFFFF" enable-background="new    " cx="20.221" cy="13.259" r="1.482"/>
			<path opacity="0.8" fill="#FFFFFF" enable-background="new    " d="M9.208,10.167v9.566h14.584v-9.566H9.208z M22.74,11.217
				v7.467l0,0l-3.383-2.403l-2.417,1.48l-3.102-3.744l-3.583,4.667v-7.467H22.74z"/>
		</g>
	</g>
	<g>
		<rect x="6.005" y="2" opacity="0.8" fill="#FFFFFF" enable-background="new    " width="20.99" height="5.367"/>
		<g enable-background="new    ">
			<path fill="#0288D1" d="M11.302,6.798c-0.241,0-0.481-0.007-0.72-0.022c-0.241-0.013-0.488-0.045-0.748-0.098V2.622
				c0.205-0.035,0.427-0.064,0.667-0.082s0.467-0.025,0.672-0.025c0.281,0,0.538,0.018,0.773,0.057
				c0.235,0.038,0.438,0.104,0.607,0.195c0.167,0.095,0.301,0.215,0.396,0.366c0.097,0.151,0.144,0.337,0.144,0.558
				c0,0.333-0.17,0.598-0.509,0.791c0.279,0.1,0.47,0.237,0.572,0.41c0.101,0.173,0.151,0.368,0.151,0.585
				c0,0.439-0.167,0.77-0.505,0.99C12.469,6.688,11.967,6.798,11.302,6.798z M10.801,4.202h0.483c0.305,0,0.523-0.037,0.655-0.109
				c0.131-0.077,0.197-0.195,0.197-0.361c0-0.168-0.069-0.288-0.204-0.355s-0.333-0.102-0.598-0.102
				c-0.083,0-0.175,0.001-0.271,0.001c-0.099,0.004-0.184,0.007-0.261,0.015V4.202z M10.801,4.92v1.083
				c0.071,0.007,0.149,0.013,0.235,0.017c0.083,0.005,0.177,0.005,0.279,0.005c0.297,0,0.536-0.04,0.718-0.12
				s0.273-0.23,0.273-0.445c0-0.193-0.077-0.332-0.23-0.416c-0.151-0.081-0.37-0.124-0.654-0.124H10.801z"/>
			<path fill="#0288D1" d="M15.272,2.562c0.077,0.133,0.166,0.297,0.264,0.492c0.101,0.195,0.205,0.406,0.312,0.634
				c0.109,0.226,0.217,0.459,0.323,0.696c0.105,0.237,0.206,0.459,0.299,0.671c0.092-0.211,0.194-0.434,0.299-0.671
				c0.107-0.237,0.213-0.47,0.322-0.696c0.107-0.228,0.211-0.439,0.312-0.634c0.102-0.195,0.188-0.359,0.266-0.492h0.9
				c0.044,0.277,0.084,0.589,0.12,0.933c0.037,0.343,0.066,0.702,0.095,1.074c0.026,0.372,0.052,0.746,0.077,1.12
				c0.021,0.374,0.043,0.727,0.059,1.055h-0.967c-0.011-0.405-0.029-0.848-0.047-1.327c-0.022-0.478-0.055-0.962-0.1-1.447
				c-0.076,0.167-0.16,0.355-0.254,0.562c-0.092,0.204-0.186,0.408-0.277,0.614c-0.091,0.206-0.18,0.403-0.264,0.589
				c-0.086,0.186-0.156,0.346-0.217,0.479h-0.693c-0.06-0.133-0.131-0.293-0.217-0.479c-0.083-0.186-0.173-0.383-0.264-0.589
				s-0.184-0.41-0.277-0.614c-0.093-0.206-0.179-0.394-0.255-0.562c-0.042,0.485-0.073,0.97-0.095,1.447
				c-0.022,0.479-0.039,0.922-0.051,1.327h-0.966c0.018-0.328,0.038-0.682,0.06-1.055c0.023-0.374,0.049-0.748,0.077-1.12
				c0.027-0.372,0.06-0.731,0.096-1.074c0.035-0.344,0.075-0.656,0.117-0.933H15.272z"/>
			<path fill="#0288D1" d="M21.125,2.514c0.656,0,1.159,0.109,1.514,0.328c0.35,0.219,0.524,0.58,0.524,1.077
				c0,0.503-0.175,0.866-0.532,1.088c-0.357,0.224-0.864,0.335-1.523,0.335h-0.314v1.4h-0.988V2.622
				c0.216-0.04,0.441-0.067,0.686-0.084C20.731,2.521,20.943,2.514,21.125,2.514z M21.188,3.316c-0.07,0-0.143,0.002-0.212,0.007
				c-0.069,0.004-0.132,0.007-0.183,0.011v1.207h0.314c0.342,0,0.602-0.043,0.772-0.133c0.175-0.089,0.263-0.253,0.263-0.494
				c0-0.117-0.022-0.213-0.07-0.29c-0.043-0.076-0.105-0.138-0.189-0.184c-0.08-0.047-0.182-0.078-0.303-0.097
				C21.464,3.325,21.333,3.316,21.188,3.316z"/>
		</g>
	</g>
</g>
</svg>
