<?xml version="1.0" encoding="utf-8"?>
<!-- Generator: Adobe Illustrator 16.0.0, SVG Export Plug-In . SVG Version: 6.00 Build 0)  -->
<!DOCTYPE svg PUBLIC "-//W3C//DTD SVG 1.1//EN" "http://www.w3.org/Graphics/SVG/1.1/DTD/svg11.dtd">
<svg version="1.1" id="图层_1" xmlns="http://www.w3.org/2000/svg" xmlns:xlink="http://www.w3.org/1999/xlink" x="0px" y="0px"
	 width="32px" height="32px" viewBox="0 0 32 32" enable-background="new 0 0 32 32" xml:space="preserve">
<polygon opacity="0.08" enable-background="new    " points="5.077,32 5.077,1 28.923,1 28.923,23.249 20.172,32 "/>
<polygon opacity="0.1" enable-background="new    " points="5.577,31.5 5.577,1.5 28.423,1.5 28.423,23.042 19.965,31.5 "/>
<polygon opacity="0.2" enable-background="new    " points="5.077,31 5.077,1 27.923,1 27.923,22.542 19.465,31 "/>
<polygon fill="#311B92" points="5.512,30.5 5.512,1.5 27.488,1.5 27.488,22.335 19.274,30.5 "/>
<g>
	<g>
		<g>
			
				<linearGradient id="SVGID_1_" gradientUnits="userSpaceOnUse" x1="58.1006" y1="-161.8999" x2="58.1006" y2="-133.9004" gradientTransform="matrix(1 0 0 -1 -41.6001 -131.9004)">
				<stop  offset="0" style="stop-color:#512DA8"/>
				<stop  offset="0.008" style="stop-color:#532EA8"/>
				<stop  offset="0.1976" style="stop-color:#7541B2"/>
				<stop  offset="0.4086" style="stop-color:#9352BC"/>
				<stop  offset="0.6159" style="stop-color:#A95EC3"/>
				<stop  offset="0.8158" style="stop-color:#B666C7"/>
				<stop  offset="1" style="stop-color:#BA68C8"/>
			</linearGradient>
			<polygon fill="url(#SVGID_1_)" points="6.011,30 6.011,2 26.989,2 26.989,22.125 19.114,30 			"/>
		</g>
		<polygon fill="#673AB7" fill-opacity="0.3922" points="26.989,22.125 26.989,21.786 18.683,21.786 18.683,30 19.114,30 		"/>
		<path fill="#FFFFFF" fill-opacity="0.3922" d="M19.102,22.125l7.888,0.011L19.114,30L19.102,22.125z"/>
	</g>
	<g opacity="0.8">
		<g>
			<rect x="21.18" y="9.047" fill="#FFFFFF" width="3.078" height="1.119"/>
		</g>
		<g>
			<rect x="21.18" y="11.158" fill="#FFFFFF" width="3.078" height="1.119"/>
		</g>
		<g>
			<rect x="21.18" y="13.282" fill="#FFFFFF" width="3.078" height="1.119"/>
		</g>
		<g>
			<rect x="14.727" y="15.51" fill="#FFFFFF" width="9.531" height="1.121"/>
		</g>
		<g>
			<rect x="14.727" y="17.623" fill="#FFFFFF" width="9.531" height="1.119"/>
		</g>
		<path fill="#FFFFFF" d="M12.719,12.465l-1.306-0.28v-1.621l1.772,0.385V9.711l-2.659-0.57v1.236l0,0v6.417
			c-0.141-0.035-0.292-0.059-0.455-0.059c-0.735,0-1.331,0.455-1.331,1.016s0.595,1.016,1.331,1.016c0.734,0,1.33-0.455,1.33-1.006
			l0,0v-4.676l1.306,0.28L12.719,12.465L12.719,12.465z"/>
		<path fill="#FFFFFF" d="M19.698,13.131c0.01-0.013,0.01-0.024,0.023-0.037c0.01-0.022,0.021-0.045,0.033-0.069c0,0,0,0,0-0.011
			c0.058-0.141,0.117-0.281,0.151-0.421h0.56V11.45h-0.56c-0.058-0.233-0.151-0.456-0.269-0.665l0.396-0.396l-0.805-0.806
			L18.833,9.98c-0.211-0.129-0.432-0.222-0.677-0.281h0.011V9.141h-1.131V9.7h0.011c-0.245,0.059-0.466,0.152-0.675,0.281
			l-0.398-0.397l-0.805,0.806l0.397,0.396c-0.116,0.198-0.209,0.421-0.268,0.665h-0.559v1.132h0.559
			c0.059,0.233,0.152,0.454,0.268,0.666l0,0l-0.397,0.396l0.805,0.806l0.398-0.397c0.195,0.13,0.43,0.222,0.664,0.281v0.56h1.131
			v-0.56l0,0l0,0c0.234-0.059,0.466-0.151,0.666-0.281l0.396,0.397l0.805-0.806l-0.396-0.396l0,0
			c0.011-0.023,0.023-0.048,0.034-0.071C19.685,13.166,19.698,13.142,19.698,13.131z M17.606,13.831
			c-1.002,0-1.808-0.816-1.808-1.809c0-1.004,0.818-1.808,1.808-1.808c0.201,0,0.386,0.034,0.573,0.093l0,0
			c0.724,0.233,1.25,0.921,1.25,1.726c0,0.047,0,0.093,0,0.152l0,0c-0.013,0.14-0.036,0.28-0.083,0.42v0.011
			c-0.023,0.082-0.058,0.164-0.104,0.244c0,0,0,0.013-0.013,0.013c-0.023,0.035-0.047,0.082-0.07,0.117c0,0,0,0,0,0.011
			c-0.021,0.034-0.045,0.071-0.07,0.105c0,0,0,0,0,0.011c-0.023,0.035-0.047,0.071-0.081,0.106l-0.011,0.01
			c-0.06,0.072-0.117,0.129-0.188,0.188l-0.013,0.011c-0.034,0.023-0.067,0.058-0.091,0.082l-0.014,0.01
			c-0.033,0.024-0.06,0.048-0.094,0.072c0,0-0.01,0-0.01,0.01c-0.034,0.024-0.07,0.048-0.107,0.059c-0.01,0-0.01,0.011-0.023,0.011
			c-0.033,0.023-0.067,0.037-0.117,0.047h-0.01c-0.034,0.011-0.068,0.023-0.104,0.035C18.005,13.794,17.808,13.831,17.606,13.831z"
			/>
	</g>
</g>
</svg>
