<?xml version="1.0" encoding="utf-8"?>
<!-- Generator: Adobe Illustrator 21.0.0, SVG Export Plug-In . SVG Version: 6.00 Build 0)  -->
<svg version="1.1" id="图层_1" xmlns="http://www.w3.org/2000/svg" xmlns:xlink="http://www.w3.org/1999/xlink" x="0px" y="0px"
	 viewBox="0 0 32 32" style="enable-background:new 0 0 32 32;" xml:space="preserve">
<style type="text/css">
	.st0{opacity:0.08;enable-background:new    ;}
	.st1{opacity:0.1;enable-background:new    ;}
	.st2{opacity:0.2;enable-background:new    ;}
	.st3{fill:#455A64;}
	.st4{fill:url(#SVGID_1_);}
	.st5{fill:#455A64;fill-opacity:0.39;}
	.st6{fill:#FFFFFF;fill-opacity:0.39;}
	.st7{opacity:0.8;fill:#FFFFFF;enable-background:new    ;}
</style>
<polygon class="st0" points="5.1,32 5.1,1 28.9,1 28.9,23.2 20.2,32 "/>
<polygon class="st1" points="5.6,31.5 5.6,1.5 28.4,1.5 28.4,23 20,31.5 "/>
<polygon class="st2" points="5.1,31 5.1,1 27.9,1 27.9,22.5 19.5,31 "/>
<polygon class="st3" points="5.5,30.5 5.5,1.5 27.5,1.5 27.5,22.3 19.3,30.5 "/>
<g>
	<g>
		<g>
			
				<linearGradient id="SVGID_1_" gradientUnits="userSpaceOnUse" x1="58.1001" y1="-867.9004" x2="58.1001" y2="-895.9004" gradientTransform="matrix(1 0 0 -1 -41.6001 -865.9004)">
				<stop  offset="0" style="stop-color:#90A4AE"/>
				<stop  offset="0.1378" style="stop-color:#849AA5"/>
				<stop  offset="0.4226" style="stop-color:#708A97"/>
				<stop  offset="0.7096" style="stop-color:#64808E"/>
				<stop  offset="1" style="stop-color:#607D8B"/>
			</linearGradient>
			<polygon class="st4" points="6,30 6,2 27,2 27,22.1 19.1,30 			"/>
		</g>
		<polygon class="st5" points="27,22.1 27,21.8 18.7,21.8 18.7,30 19.1,30 		"/>
		<path class="st6" d="M19.1,22.1H27L19.1,30V22.1z"/>
	</g>
	<path class="st7" d="M21.8,13.7c0.5,0,0.9,0.2,1.2,0.5v-2.6h-4.1c0.3-0.3,0.5-0.7,0.5-1.2c0-0.9-0.8-1.7-1.7-1.7
		c-0.9,0-1.7,0.8-1.7,1.7c0,0.5,0.2,0.9,0.5,1.2h-4.1v2.6c-0.3-0.3-0.7-0.5-1.2-0.5c-0.9,0-1.7,0.8-1.7,1.7c0,0.9,0.8,1.7,1.7,1.7
		c0.5,0,0.9-0.2,1.2-0.5v2.6h4.1C16.2,18.9,16,18.5,16,18c0-0.9,0.8-1.7,1.7-1.7c0.9,0,1.7,0.8,1.7,1.7c0,0.5-0.2,0.9-0.5,1.2H23
		v-2.6c-0.3,0.3-0.7,0.5-1.2,0.5c-0.9,0-1.7-0.8-1.7-1.7C20.1,14.4,20.9,13.7,21.8,13.7z"/>
</g>
</svg>
