<?xml version="1.0" encoding="utf-8"?>
<!-- Generator: Adobe Illustrator 16.0.0, SVG Export Plug-In . SVG Version: 6.00 Build 0)  -->
<!DOCTYPE svg PUBLIC "-//W3C//DTD SVG 1.1//EN" "http://www.w3.org/Graphics/SVG/1.1/DTD/svg11.dtd">
<svg version="1.1" id="图层_1" xmlns="http://www.w3.org/2000/svg" xmlns:xlink="http://www.w3.org/1999/xlink" x="0px" y="0px"
	 width="32px" height="32px" viewBox="0 0 32 32" enable-background="new 0 0 32 32" xml:space="preserve">
<polygon opacity="0.08" enable-background="new    " points="5.077,32 5.077,1 28.923,1 28.923,23.249 20.172,32 "/>
<polygon opacity="0.1" enable-background="new    " points="5.577,31.5 5.577,1.5 28.423,1.5 28.423,23.042 19.965,31.5 "/>
<polygon opacity="0.2" enable-background="new    " points="5.077,31 5.077,1 27.923,1 27.923,22.542 19.465,31 "/>
<polygon fill="#E65100" points="5.512,30.5 5.512,1.604 27.488,1.604 27.488,22.364 19.274,30.5 "/>
<g>
	<g>
		<g>
			
				<linearGradient id="SVGID_1_" gradientUnits="userSpaceOnUse" x1="58.1006" y1="-161.8999" x2="58.1006" y2="-133.9004" gradientTransform="matrix(1 0 0 -1 -41.6001 -131.9004)">
				<stop  offset="0" style="stop-color:#EE6F0B"/>
				<stop  offset="1" style="stop-color:#FFB74D"/>
			</linearGradient>
			<polygon fill="url(#SVGID_1_)" points="6.011,30 6.011,2 26.989,2 26.989,22.125 19.114,30 			"/>
		</g>
		<polygon fill="#E65100" fill-opacity="0.3922" points="26.989,22.125 26.989,21.786 18.682,21.786 18.682,30 19.114,30 		"/>
		<path fill="#FFFFFF" fill-opacity="0.3922" d="M19.102,22.125l7.888,0.011L19.114,30L19.102,22.125z"/>
	</g>
	<g opacity="0.8">
		<rect x="8.742" y="12.779" fill="#FFFFFF" width="2.24" height="11.224"/>
		<rect x="12.476" y="18.379" fill="#FFFFFF" width="2.24" height="5.611"/>
		<rect x="16.197" y="20.665" fill="#FFFFFF" width="2.24" height="3.361"/>
		<g>
			<path fill="#FFFFFF" d="M19.241,10.795l0.024,4.468l4.468-0.024c0.013,2.473-1.983,4.481-4.457,4.492
				c-2.472,0.013-4.479-1.983-4.492-4.455C14.773,12.813,16.768,10.807,19.241,10.795z"/>
			<path fill="#FFFFFF" d="M19.767,10.282c2.474-0.011,4.48,1.983,4.492,4.457l-4.469,0.023L19.767,10.282z"/>
		</g>
	</g>
	<g>
		<rect x="6.006" y="2" opacity="0.8" fill="#FFFFFF" enable-background="new    " width="20.988" height="5.367"/>
		<g enable-background="new    ">
			<path fill="#E64A19" d="M10.974,2.562c0.076,0.133,0.164,0.297,0.264,0.492c0.101,0.195,0.204,0.406,0.312,0.634
				c0.108,0.226,0.216,0.459,0.321,0.696c0.107,0.237,0.206,0.459,0.301,0.671c0.093-0.211,0.193-0.434,0.299-0.671
				c0.105-0.237,0.213-0.47,0.321-0.696c0.109-0.228,0.213-0.439,0.313-0.634c0.098-0.195,0.188-0.359,0.264-0.492h0.9
				c0.042,0.277,0.082,0.589,0.119,0.933c0.036,0.343,0.067,0.702,0.095,1.074c0.027,0.372,0.053,0.746,0.076,1.12
				c0.021,0.374,0.044,0.727,0.061,1.055h-0.966c-0.014-0.405-0.029-0.848-0.05-1.327c-0.021-0.478-0.055-0.962-0.097-1.447
				c-0.076,0.167-0.16,0.355-0.255,0.562c-0.093,0.204-0.187,0.408-0.277,0.614s-0.179,0.403-0.265,0.589
				c-0.083,0.186-0.156,0.346-0.217,0.479h-0.69c-0.061-0.133-0.133-0.293-0.217-0.479c-0.086-0.186-0.174-0.383-0.265-0.589
				c-0.093-0.206-0.184-0.41-0.277-0.614c-0.095-0.206-0.179-0.394-0.255-0.562c-0.044,0.485-0.075,0.97-0.097,1.447
				c-0.02,0.479-0.036,0.922-0.049,1.327H9.677c0.017-0.328,0.037-0.682,0.061-1.055c0.023-0.374,0.049-0.748,0.076-1.12
				c0.027-0.372,0.059-0.731,0.095-1.074c0.037-0.344,0.075-0.656,0.119-0.933H10.974z"/>
			<path fill="#E64A19" d="M17.648,3.287c-0.461,0-0.795,0.12-1.001,0.364c-0.204,0.245-0.306,0.576-0.306,0.999
				c0,0.204,0.023,0.39,0.074,0.558c0.051,0.167,0.128,0.31,0.228,0.43c0.103,0.122,0.23,0.215,0.383,0.281
				c0.153,0.067,0.33,0.1,0.533,0.1c0.11,0,0.204-0.002,0.284-0.005c0.076-0.004,0.146-0.011,0.206-0.025V4.534h0.989v2.071
				c-0.116,0.044-0.308,0.091-0.57,0.143c-0.265,0.051-0.587,0.076-0.972,0.076c-0.332,0-0.631-0.049-0.9-0.146
				c-0.268-0.097-0.498-0.237-0.689-0.423c-0.189-0.184-0.337-0.412-0.44-0.682c-0.104-0.27-0.157-0.576-0.157-0.922
				c0-0.35,0.059-0.66,0.173-0.93c0.115-0.27,0.272-0.5,0.469-0.685c0.2-0.186,0.434-0.328,0.704-0.427
				c0.27-0.095,0.554-0.144,0.86-0.144c0.208,0,0.394,0.013,0.562,0.038c0.167,0.027,0.312,0.059,0.434,0.091
				c0.12,0.035,0.219,0.069,0.297,0.106c0.078,0.036,0.135,0.065,0.17,0.083l-0.288,0.755c-0.135-0.067-0.29-0.127-0.467-0.177
				C18.048,3.311,17.856,3.287,17.648,3.287z"/>
			<path fill="#E64A19" d="M21.281,2.514c0.658,0,1.161,0.109,1.514,0.328c0.352,0.219,0.528,0.58,0.528,1.077
				c0,0.503-0.179,0.866-0.536,1.088c-0.354,0.224-0.864,0.335-1.523,0.335h-0.311v1.4h-0.991V2.622
				c0.215-0.04,0.444-0.067,0.686-0.084C20.888,2.521,21.1,2.514,21.281,2.514z M21.347,3.316c-0.072,0-0.144,0.002-0.213,0.007
				c-0.071,0.004-0.129,0.007-0.181,0.011v1.207h0.311c0.343,0,0.602-0.043,0.776-0.133c0.171-0.089,0.259-0.253,0.259-0.494
				c0-0.117-0.022-0.213-0.065-0.29c-0.044-0.076-0.109-0.138-0.191-0.184c-0.082-0.047-0.185-0.078-0.301-0.097
				C21.62,3.325,21.489,3.316,21.347,3.316z"/>
		</g>
	</g>
</g>
</svg>
