<?xml version="1.0" encoding="utf-8"?>
<!-- Generator: Adobe Illustrator 16.0.0, SVG Export Plug-In . SVG Version: 6.00 Build 0)  -->
<!DOCTYPE svg PUBLIC "-//W3C//DTD SVG 1.1//EN" "http://www.w3.org/Graphics/SVG/1.1/DTD/svg11.dtd">
<svg version="1.1" id="图层_1" xmlns="http://www.w3.org/2000/svg" xmlns:xlink="http://www.w3.org/1999/xlink" x="0px" y="0px"
	 width="32px" height="32px" viewBox="0 0 32 32" enable-background="new 0 0 32 32" xml:space="preserve">
<polygon opacity="0.08" enable-background="new    " points="5.077,32 5.077,1 28.923,1 28.923,23.249 20.172,32 "/>
<polygon opacity="0.1" enable-background="new    " points="5.577,31.5 5.577,1.5 28.423,1.5 28.423,23.042 19.965,31.5 "/>
<polygon opacity="0.2" enable-background="new    " points="5.077,31 5.077,1 27.923,1 27.923,22.542 19.465,31 "/>
<polygon fill="#455A64" points="5.512,30.5 5.512,1.5 27.488,1.5 27.488,22.335 19.274,30.5 "/>
<g>
	<g>
		<g>
			
				<linearGradient id="SVGID_1_" gradientUnits="userSpaceOnUse" x1="58.1006" y1="420.8994" x2="58.1006" y2="448.9004" gradientTransform="matrix(1 0 0 1 -41.6001 -418.9004)">
				<stop  offset="0" style="stop-color:#90A4AE"/>
				<stop  offset="0.1378" style="stop-color:#849AA5"/>
				<stop  offset="0.4226" style="stop-color:#708A97"/>
				<stop  offset="0.7096" style="stop-color:#64808E"/>
				<stop  offset="1" style="stop-color:#607D8B"/>
			</linearGradient>
			<polygon fill="url(#SVGID_1_)" points="6.011,30 6.011,2 26.989,2 26.989,22.124 19.114,30 			"/>
		</g>
		<polygon fill="#455A64" fill-opacity="0.39" points="26.989,22.124 26.989,21.786 18.683,21.786 18.683,30 19.114,30 		"/>
		<path fill="#FFFFFF" fill-opacity="0.39" d="M19.102,22.124l7.888,0.012L19.114,30L19.102,22.124z"/>
	</g>
	<g opacity="0.8">
		<path fill="#FFFFFF" d="M17.866,13.853c0.012-0.026,0.024-0.046,0.033-0.07c0.023-0.047,0.049-0.084,0.061-0.127v-0.015
			c0.104-0.233,0.199-0.489,0.255-0.744h0.981v-1.983h-0.981c-0.105-0.41-0.255-0.794-0.477-1.156l0.699-0.7l-1.399-1.399
			l-0.689,0.688c-0.362-0.221-0.759-0.385-1.166-0.49h0.013V6.898h-1.984v0.979h0.014c-0.424,0.107-0.819,0.271-1.182,0.494
			l-0.674-0.703L9.965,9.07l0.703,0.699c-0.209,0.35-0.373,0.734-0.48,1.153H9.209v1.984h0.979c0.107,0.41,0.271,0.806,0.48,1.156
			l0,0l-0.703,0.7l1.404,1.398l0.697-0.7c0.351,0.223,0.746,0.387,1.167,0.481v0.98h1.983v-0.98l0,0l0,0
			c0.41-0.105,0.806-0.27,1.155-0.481l0.701,0.7l1.396-1.398l-0.697-0.7l0,0c0.023-0.035,0.048-0.082,0.068-0.115
			C17.841,13.911,17.854,13.876,17.866,13.853z M14.217,15.066c-1.754,0-3.166-1.411-3.166-3.162c0-1.752,1.412-3.164,3.166-3.164
			c0.35,0,0.674,0.059,0.99,0.166l0,0c1.261,0.419,2.169,1.597,2.169,2.999c0,0.08,0,0.174-0.012,0.256c0,0,0,0,0,0.012
			c-0.024,0.257-0.07,0.503-0.152,0.734c0,0.012,0,0.012-0.012,0.024c-0.045,0.152-0.117,0.292-0.186,0.432
			c0,0.013-0.014,0.013-0.014,0.024c-0.032,0.071-0.068,0.127-0.114,0.198l-0.013,0.013c-0.037,0.058-0.082,0.127-0.128,0.186
			c0,0,0,0.011-0.013,0.011c-0.046,0.059-0.093,0.116-0.139,0.173c-0.013,0.013-0.013,0.013-0.025,0.023
			c-0.092,0.117-0.197,0.223-0.314,0.318c-0.01,0.009-0.023,0.009-0.023,0.021c-0.059,0.047-0.114,0.095-0.177,0.139
			c-0.009,0.013-0.02,0.013-0.02,0.025c-0.059,0.037-0.118,0.082-0.177,0.117c-0.013,0-0.013,0.011-0.022,0.011
			c-0.06,0.037-0.13,0.07-0.188,0.106c-0.013,0.012-0.021,0.012-0.045,0.021c-0.059,0.036-0.128,0.062-0.198,0.095
			c-0.012,0-0.012,0-0.024,0.011c-0.058,0.025-0.116,0.047-0.186,0.071C14.916,15.008,14.566,15.066,14.217,15.066z"/>
		<path fill="#FFFFFF" d="M23.313,15.008c0-0.011,0-0.025,0-0.047s0-0.059,0-0.08c0,0,0,0,0-0.013c0-0.14,0-0.292-0.023-0.432
			l0.502-0.209l-0.42-1.016l-0.501,0.209c-0.141-0.186-0.302-0.35-0.491-0.49l0.21-0.501l-1.013-0.421l-0.214,0.503
			c-0.229-0.034-0.465-0.034-0.698,0l0,0l-0.211-0.503l-1.012,0.421l0.21,0.501l0,0c-0.199,0.14-0.363,0.317-0.501,0.503
			l-0.504-0.211l-0.42,1.017l0.502,0.21c-0.037,0.221-0.037,0.454,0,0.688l-0.502,0.209l0.42,1.015l0.504-0.208
			c0.138,0.185,0.302,0.351,0.488,0.49l0,0l-0.21,0.5l1.016,0.422l0.211-0.504c0.229,0.035,0.465,0.035,0.698,0l0.212,0.504
			l1.012-0.422l-0.21-0.5l0,0l0,0c0.189-0.139,0.35-0.305,0.49-0.49l0.501,0.208l0.422-1.015l-0.504-0.209l0,0
			c0-0.025,0.013-0.046,0.013-0.082C23.304,15.041,23.304,15.03,23.313,15.008z M21.694,16.408c-0.9,0.373-1.928-0.047-2.288-0.948
			c-0.376-0.896,0.047-1.921,0.945-2.283c0.173-0.07,0.36-0.119,0.534-0.131l0,0c0.736-0.058,1.449,0.361,1.754,1.072
			c0.021,0.051,0.032,0.095,0.045,0.127l0,0c0.046,0.131,0.069,0.273,0.082,0.412v0.011c0.012,0.08,0,0.175,0,0.257v0.013
			c0,0.044-0.013,0.081-0.013,0.127v0.011c-0.012,0.033-0.012,0.084-0.023,0.116c0,0,0,0,0,0.011
			c-0.013,0.035-0.022,0.084-0.034,0.117c0,0.011,0,0.011,0,0.024c-0.024,0.082-0.057,0.151-0.094,0.235
			c0,0.011,0,0.011-0.013,0.022c-0.021,0.036-0.032,0.069-0.058,0.105l-0.012,0.011c-0.021,0.035-0.033,0.058-0.059,0.091
			c0,0,0,0.012-0.012,0.012c-0.024,0.037-0.045,0.059-0.07,0.095c0,0.013-0.012,0.013-0.012,0.023
			c-0.021,0.033-0.059,0.059-0.082,0.091l-0.009,0.013c-0.024,0.023-0.05,0.046-0.082,0.071
			C22.043,16.232,21.879,16.337,21.694,16.408z"/>
		<path fill="#FFFFFF" d="M18.902,18.66c0-0.014,0-0.025,0-0.035c0-0.023,0-0.047,0-0.068c0,0,0,0,0-0.014
			c0-0.127,0-0.26-0.02-0.387l0.441-0.186l-0.372-0.887l-0.445,0.188c-0.115-0.164-0.266-0.303-0.432-0.434l0.186-0.442
			l-0.885-0.363l-0.185,0.445c-0.2-0.037-0.41-0.037-0.622,0l0,0l-0.184-0.445l-0.89,0.375l0.189,0.445l0,0
			c-0.164,0.125-0.316,0.266-0.433,0.43l-0.444-0.188l-0.36,0.887l0.442,0.188c-0.036,0.195-0.036,0.396,0,0.609l-0.442,0.184
			l0.374,0.885l0.442-0.186c0.116,0.164,0.269,0.316,0.433,0.432l0,0l-0.189,0.445l0.888,0.36l0.187-0.442
			c0.199,0.032,0.409,0.032,0.609,0l0.185,0.442l0.885-0.373l-0.186-0.443l0,0l0,0c0.166-0.116,0.316-0.269,0.432-0.433l0.445,0.188
			l0.359-0.887l-0.441-0.186l0,0c0-0.023,0.013-0.049,0.013-0.068C18.892,18.697,18.902,18.684,18.902,18.66z M17.492,19.885
			c-0.782,0.326-1.68-0.047-2.005-0.828c-0.328-0.781,0.046-1.682,0.826-2.008c0.154-0.07,0.314-0.105,0.479-0.115l0,0
			c0.642-0.049,1.271,0.314,1.527,0.943c0.013,0.037,0.036,0.082,0.049,0.119l0,0c0.033,0.115,0.057,0.232,0.069,0.35v0.01
			c0,0.082,0,0.15,0,0.223v0.01c0,0.037-0.013,0.072-0.013,0.109c0,0,0,0,0,0.01c-0.011,0.035-0.011,0.072-0.023,0.104
			c0,0,0,0,0,0.014c-0.01,0.033-0.022,0.068-0.033,0.102v0.014c-0.025,0.068-0.049,0.141-0.082,0.197c0,0,0,0.012-0.013,0.012
			c-0.013,0.037-0.032,0.059-0.046,0.096c0,0,0,0.012-0.013,0.012c-0.011,0.02-0.036,0.057-0.056,0.082c0,0,0,0.008-0.014,0.008
			c-0.024,0.025-0.045,0.063-0.059,0.082c0,0.012-0.012,0.012-0.012,0.025c-0.024,0.023-0.045,0.045-0.07,0.082c0,0,0,0-0.012,0.012
			c-0.024,0.021-0.045,0.045-0.07,0.07C17.796,19.732,17.644,19.826,17.492,19.885z"/>
	</g>
</g>
</svg>
