<?xml version="1.0" encoding="utf-8"?>
<!-- Generator: Adobe Illustrator 21.0.0, SVG Export Plug-In . SVG Version: 6.00 Build 0)  -->
<svg version="1.1" id="图层_1" xmlns="http://www.w3.org/2000/svg" xmlns:xlink="http://www.w3.org/1999/xlink" x="0px" y="0px"
	 viewBox="0 0 32 32" style="enable-background:new 0 0 32 32;" xml:space="preserve">
<style type="text/css">
	.st0{opacity:0.08;enable-background:new    ;}
	.st1{opacity:0.2;enable-background:new    ;}
	.st2{opacity:0.1;enable-background:new    ;}
	.st3{fill:#E65100;}
	.st4{fill:url(#SVGID_1_);}
	.st5{fill:#E65100;fill-opacity:0.39;}
	.st6{fill:#FFFFFF;fill-opacity:0.39;}
	.st7{opacity:0.8;}
	.st8{fill:#FFFFFF;}
</style>
<title>gnome-mime-application-magicpoint</title>
<polygon class="st0" points="4.5,32 4.5,1 28.5,1 28.5,23.1 19.6,32 "/>
<polygon class="st1" points="5,31 5,1 28,1 28,22.4 19.4,31 "/>
<polygon class="st2" points="5,31.5 5,1.5 28,1.5 28,22.9 19.4,31.5 "/>
<polygon class="st3" points="5.5,30.5 5.5,1.5 27.5,1.5 27.5,22.2 19.2,30.5 "/>
<linearGradient id="SVGID_1_" gradientUnits="userSpaceOnUse" x1="58.1" y1="2526.8999" x2="58.1" y2="2554.8999" gradientTransform="matrix(1 0 0 1 -41.6 -2524.8999)">
	<stop  offset="0" style="stop-color:#FFB74D"/>
	<stop  offset="1" style="stop-color:#EE6F0B"/>
</linearGradient>
<polygon class="st4" points="6,30 6,2 27,2 27,22 19,30 "/>
<polygon class="st5" points="27,22 27,21.6 18.6,21.6 18.6,30 19,30 "/>
<path class="st6" d="M19,22h8l-8,8V22z"/>
<g class="st7">
	<rect x="9" y="9" class="st8" width="2" height="12"/>
	<rect x="13" y="15" class="st8" width="2" height="6"/>
	<rect x="17" y="18" class="st8" width="2" height="3"/>
	<path class="st8" d="M19,9v4h4c0,2.2-1.8,4-4,4s-4-1.8-4-4S16.8,9,19,9z"/>
	<path class="st8" d="M20,8c2.2,0,4,1.8,4,4h-4V8z"/>
</g>
</svg>
