<?xml version="1.0" encoding="utf-8"?>
<!-- Generator: Adobe Illustrator 21.0.0, SVG Export Plug-In . SVG Version: 6.00 Build 0)  -->
<svg version="1.1" id="图层_1" xmlns="http://www.w3.org/2000/svg" xmlns:xlink="http://www.w3.org/1999/xlink" x="0px" y="0px"
	 viewBox="0 0 32 32" style="enable-background:new 0 0 32 32;" xml:space="preserve">
<style type="text/css">
	.st0{opacity:0.08;enable-background:new    ;}
	.st1{opacity:0.1;enable-background:new    ;}
	.st2{opacity:0.2;enable-background:new    ;}
	.st3{fill:#455A64;}
	.st4{fill:url(#SVGID_1_);}
	.st5{fill:#455A64;fill-opacity:0.39;}
	.st6{fill:#FFFFFF;fill-opacity:0.39;}
	.st7{opacity:0.8;}
	.st8{fill:#FFFFFF;}
</style>
<polygon class="st0" points="5.1,32 5.1,1 28.9,1 28.9,23.2 20.2,32 "/>
<polygon class="st1" points="5.6,31.5 5.6,1.5 28.4,1.5 28.4,23 20,31.5 "/>
<polygon class="st2" points="5.1,31 5.1,1 27.9,1 27.9,22.5 19.5,31 "/>
<polygon class="st3" points="5.5,30.5 5.5,1.5 27.5,1.5 27.5,22.3 19.3,30.5 "/>
<g>
	<g>
		<g>
			
				<linearGradient id="SVGID_1_" gradientUnits="userSpaceOnUse" x1="58.1001" y1="1178.9004" x2="58.1001" y2="1206.9004" gradientTransform="matrix(1 0 0 1 -41.6001 -1176.9004)">
				<stop  offset="0" style="stop-color:#90A4AE"/>
				<stop  offset="0.1378" style="stop-color:#849AA5"/>
				<stop  offset="0.4226" style="stop-color:#708A97"/>
				<stop  offset="0.7096" style="stop-color:#64808E"/>
				<stop  offset="1" style="stop-color:#607D8B"/>
			</linearGradient>
			<polygon class="st4" points="6,30 6,2 27,2 27,22.1 19.1,30 			"/>
		</g>
		<polygon class="st5" points="27,22.1 27,21.8 18.7,21.8 18.7,30 19.1,30 		"/>
		<path class="st6" d="M19.1,22.1H27L19.1,30V22.1z"/>
	</g>
	<g class="st7">
		<path class="st8" d="M17.9,13.9C17.9,13.8,17.9,13.8,17.9,13.9c0.1-0.1,0.1-0.2,0.1-0.2l0,0c0.1-0.2,0.2-0.5,0.3-0.7h1v-2h-1
			c-0.1-0.4-0.3-0.8-0.5-1.2l0.7-0.7L17,7.7l-0.7,0.7C16,8.1,15.6,8,15.2,7.9l0,0v-1h-2v1l0,0C12.8,8,12.4,8.1,12,8.4l-0.7-0.7
			L10,9.1l0.7,0.7c-0.2,0.4-0.4,0.7-0.5,1.2h-1v2h1c0.1,0.4,0.3,0.8,0.5,1.2l0,0L10,14.8l1.4,1.4l0.7-0.7c0.4,0.2,0.7,0.4,1.2,0.5v1
			h2v-1l0,0l0,0c0.4-0.1,0.8-0.3,1.2-0.5l0.7,0.7l1.4-1.4l-0.7-0.7l0,0C17.8,14,17.8,14,17.9,13.9C17.8,13.9,17.9,13.9,17.9,13.9z
			 M14.2,15.1c-1.8,0-3.2-1.4-3.2-3.2s1.4-3.2,3.2-3.2c0.4,0,0.7,0.1,1,0.2l0,0c1.3,0.4,2.2,1.6,2.2,3c0,0.1,0,0.2,0,0.3l0,0
			c0,0.3-0.1,0.5-0.2,0.7l0,0c0,0.2-0.1,0.3-0.2,0.4l0,0c0,0.1-0.1,0.1-0.1,0.2l0,0c0,0.1-0.1,0.1-0.1,0.2l0,0
			c0,0.1-0.1,0.1-0.1,0.2l0,0c-0.1,0.1-0.2,0.2-0.3,0.3l0,0c-0.1,0-0.1,0.1-0.2,0.1l0,0c-0.1,0-0.1,0.1-0.2,0.1l0,0
			c-0.1,0-0.1,0.1-0.2,0.1l0,0c-0.1,0-0.1,0.1-0.2,0.1l0,0c-0.1,0-0.1,0-0.2,0.1C14.9,15,14.6,15.1,14.2,15.1z"/>
		<path class="st8" d="M23.3,15L23.3,15c0-0.1,0-0.1,0-0.1l0,0c0-0.1,0-0.3,0-0.4l0.5-0.2l-0.4-1l-0.5,0.2c-0.1-0.2-0.3-0.4-0.5-0.5
			l0.2-0.5l-1-0.4l-0.2,0.5c-0.2,0-0.5,0-0.7,0l0,0L20.5,12l-1,0.4l0.2,0.5l0,0c-0.2,0.1-0.4,0.3-0.5,0.5l-0.5-0.2l-0.4,1l0.5,0.2
			c0,0.2,0,0.5,0,0.7l-0.5,0.2l0.4,1l0.5-0.2c0.1,0.2,0.3,0.4,0.5,0.5l0,0l-0.2,0.5l1,0.4l0.2-0.5c0.2,0,0.5,0,0.7,0l0.2,0.5l1-0.4
			l-0.2-0.5l0,0l0,0c0.2-0.1,0.4-0.3,0.5-0.5l0.5,0.2l0.4-1l-0.5-0.2l0,0C23.3,15.1,23.3,15.1,23.3,15L23.3,15z M21.7,16.4
			c-0.9,0.4-1.9,0-2.3-0.9s0-1.9,0.9-2.3c0.2-0.1,0.4-0.1,0.5-0.1l0,0c0.7-0.1,1.4,0.4,1.8,1.1c0,0.1,0,0.1,0,0.1l0,0
			c0,0.1,0.1,0.3,0.1,0.4l0,0c0,0.1,0,0.2,0,0.3l0,0v0.1l0,0v0.1l0,0v0.1l0,0c0,0.1-0.1,0.2-0.1,0.2l0,0c0,0,0,0.1-0.1,0.1l0,0
			c0,0,0,0.1-0.1,0.1l0,0c0,0,0,0.1-0.1,0.1l0,0l-0.1,0.1l0,0c0,0,0,0-0.1,0.1C22,16.2,21.9,16.3,21.7,16.4z"/>
		<path class="st8" d="M18.9,18.7C18.9,18.6,18.9,18.6,18.9,18.7c0-0.1,0-0.1,0-0.1l0,0c0-0.1,0-0.3,0-0.4l0.4-0.2L19,17.1l-0.4,0.2
			c-0.1-0.2-0.3-0.3-0.4-0.4l0.2-0.4l-1-0.5l-0.2,0.4c-0.2,0-0.4,0-0.6,0l0,0L16.4,16l-0.9,0.4l0.2,0.4l0,0
			c-0.2,0.1-0.3,0.3-0.4,0.4L14.9,17l-0.5,1l0.4,0.2c0,0.2,0,0.4,0,0.6L14.4,19l0.4,0.9l0.4-0.2c0.1,0.2,0.3,0.3,0.4,0.4l0,0
			l-0.2,0.4l0.9,0.4l0.2-0.4c0.2,0,0.4,0,0.6,0l0.2,0.4l0.9-0.4L18,20.1l0,0l0,0c0.2-0.1,0.3-0.3,0.4-0.4l0.4,0.2l0.4-0.9l-0.4-0.2
			l0,0C18.9,18.7,18.9,18.7,18.9,18.7L18.9,18.7z M17.5,19.9c-0.8,0.3-1.7,0-2-0.8s0-1.7,0.8-2c0.2-0.1,0.3-0.1,0.5-0.1l0,0
			c0.6,0,1.3,0.3,1.5,0.9V18l0,0c0,0.1,0.1,0.2,0.1,0.4l0,0c0,0.1,0,0.1,0,0.2l0,0v0.1l0,0v0.1l0,0v0.1l0,0c0,0.1,0,0.1-0.1,0.2l0,0
			v0.1l0,0c0,0,0,0.1-0.1,0.1l0,0c0,0,0,0.1-0.1,0.1l0,0c0,0,0,0-0.1,0.1l0,0c0,0,0,0-0.1,0.1C17.8,19.7,17.6,19.8,17.5,19.9z"/>
	</g>
</g>
</svg>
