<?xml version="1.0" encoding="utf-8"?>
<!-- Generator: Adobe Illustrator 16.0.0, SVG Export Plug-In . SVG Version: 6.00 Build 0)  -->
<!DOCTYPE svg PUBLIC "-//W3C//DTD SVG 1.1//EN" "http://www.w3.org/Graphics/SVG/1.1/DTD/svg11.dtd">
<svg version="1.1" id="图层_1" xmlns="http://www.w3.org/2000/svg" xmlns:xlink="http://www.w3.org/1999/xlink" x="0px" y="0px"
	 width="32px" height="32px" viewBox="0 0 32 32" enable-background="new 0 0 32 32" xml:space="preserve">
<polygon opacity="0.08" enable-background="new    " points="5.077,32 5.077,1 28.923,1 28.923,23.249 20.172,32 "/>
<polygon opacity="0.1" enable-background="new    " points="5.577,31.5 5.577,1.5 28.423,1.5 28.423,23.042 19.965,31.5 "/>
<polygon opacity="0.2" enable-background="new    " points="5.077,31 5.077,1 27.923,1 27.923,22.542 19.465,31 "/>
<polygon fill="#455A64" points="5.512,30.5 5.512,1.5 27.488,1.5 27.488,22.335 19.273,30.5 "/>
<g>
	<g>
		<g>
			
				<linearGradient id="SVGID_1_" gradientUnits="userSpaceOnUse" x1="99.6953" y1="826.7998" x2="99.6953" y2="854.8008" gradientTransform="matrix(1 0 0 1 -83.2002 -824.8008)">
				<stop  offset="0" style="stop-color:#90A4AE"/>
				<stop  offset="0.1378" style="stop-color:#849AA5"/>
				<stop  offset="0.4226" style="stop-color:#708A97"/>
				<stop  offset="0.7096" style="stop-color:#64808E"/>
				<stop  offset="1" style="stop-color:#607D8B"/>
			</linearGradient>
			<polygon fill="url(#SVGID_1_)" points="6.007,30 6.007,2 26.983,2 26.983,22.126 19.109,30 			"/>
		</g>
		<polygon fill="#455A64" fill-opacity="0.39" points="26.983,22.126 26.983,21.785 18.677,21.785 18.677,30 19.109,30 		"/>
		<path fill="#FFFFFF" fill-opacity="0.39" d="M19.099,22.126l7.887,0.01L19.109,30L19.099,22.126z"/>
	</g>
	<path opacity="0.8" fill="#FFFFFF" enable-background="new    " d="M21.78,14.753c0.466,0,0.888,0.185,1.189,0.486v-2.622h-4.07
		c0.304-0.302,0.488-0.737,0.488-1.203c0-0.934-0.756-1.691-1.689-1.691c-0.936,0-1.693,0.758-1.693,1.691
		c0,0.466,0.187,0.888,0.49,1.203h-4.061v2.637c-0.302-0.306-0.724-0.492-1.189-0.492c-0.933,0-1.69,0.759-1.69,1.692
		s0.758,1.691,1.69,1.691c0.466,0,0.888-0.185,1.192-0.492v2.639h4.07c-0.305-0.304-0.489-0.736-0.489-1.202
		c0-0.934,0.755-1.691,1.691-1.691c0.932,0,1.689,0.758,1.689,1.691c0,0.466-0.188,0.888-0.49,1.203h4.071v-2.636
		c-0.302,0.304-0.724,0.488-1.19,0.488c-0.932,0-1.688-0.758-1.688-1.691C20.089,15.511,20.847,14.753,21.78,14.753z"/>
	<g>
		<rect x="6.007" y="2" opacity="0.8" fill="#FFFFFF" width="20.986" height="5.367"/>
		<g>
			<path fill="#455A64" d="M14.825,4.68c0,0.359-0.056,0.672-0.168,0.944c-0.113,0.271-0.267,0.498-0.461,0.682
				c-0.193,0.184-0.427,0.322-0.695,0.414c-0.27,0.093-0.559,0.139-0.867,0.139c-0.301,0-0.584-0.046-0.852-0.139
				c-0.267-0.092-0.5-0.23-0.699-0.414c-0.197-0.184-0.355-0.41-0.47-0.682C10.5,5.352,10.442,5.039,10.442,4.68
				c0-0.358,0.059-0.673,0.178-0.945c0.118-0.271,0.278-0.5,0.479-0.685c0.202-0.185,0.436-0.323,0.701-0.417
				c0.263-0.091,0.541-0.138,0.834-0.138c0.301,0,0.585,0.047,0.851,0.138c0.269,0.094,0.5,0.232,0.699,0.417
				c0.199,0.185,0.355,0.414,0.47,0.685C14.769,4.006,14.825,4.322,14.825,4.68z M11.466,4.68c0,0.206,0.026,0.391,0.078,0.555
				c0.053,0.165,0.129,0.308,0.229,0.426c0.099,0.118,0.222,0.211,0.364,0.274C12.281,6,12.448,6.031,12.634,6.031
				c0.182,0,0.346-0.031,0.492-0.097c0.146-0.063,0.27-0.156,0.369-0.274c0.099-0.118,0.176-0.261,0.229-0.426
				c0.053-0.164,0.078-0.349,0.078-0.555s-0.025-0.391-0.078-0.559c-0.053-0.167-0.13-0.309-0.229-0.428
				c-0.1-0.119-0.223-0.211-0.369-0.273c-0.146-0.065-0.311-0.098-0.492-0.098c-0.186,0-0.353,0.034-0.496,0.1
				c-0.143,0.065-0.266,0.159-0.364,0.277c-0.101,0.119-0.177,0.262-0.229,0.428C11.492,4.294,11.466,4.479,11.466,4.68z"/>
			<path fill="#455A64" d="M17.813,6.773c-0.123-0.233-0.259-0.469-0.407-0.707c-0.147-0.241-0.316-0.441-0.508-0.605
				c-0.06,0.062-0.134,0.148-0.226,0.258c-0.091,0.112-0.181,0.229-0.271,0.354c-0.092,0.123-0.178,0.252-0.256,0.385
				c-0.079,0.136-0.138,0.24-0.177,0.315h-1.13c0.185-0.325,0.403-0.664,0.656-1.012c0.251-0.347,0.532-0.718,0.844-1.108
				l-1.438-2.063h1.2l0.839,1.211l0.857-1.211h1.131L17.5,4.609c0.374,0.448,0.683,0.856,0.925,1.228
				c0.243,0.371,0.434,0.684,0.574,0.937H17.813z"/>
			<path fill="#455A64" d="M22.874,2.591v0.802h-1.328v3.38h-0.991v-3.38h-1.327V2.591H22.874z"/>
		</g>
	</g>
</g>
</svg>
