<?xml version="1.0" encoding="utf-8"?>
<!-- Generator: Adobe Illustrator 21.0.0, SVG Export Plug-In . SVG Version: 6.00 Build 0)  -->
<svg version="1.1" id="图层_1" xmlns="http://www.w3.org/2000/svg" xmlns:xlink="http://www.w3.org/1999/xlink" x="0px" y="0px"
	 viewBox="0 0 32 32" style="enable-background:new 0 0 32 32;" xml:space="preserve">
<style type="text/css">
	.st0{opacity:0.08;enable-background:new    ;}
	.st1{opacity:0.2;enable-background:new    ;}
	.st2{opacity:0.1;enable-background:new    ;}
	.st3{fill:#0D47A1;}
	.st4{fill:url(#SVGID_1_);}
	.st5{fill:#0D47A1;fill-opacity:0.39;}
	.st6{fill:#FFFFFF;fill-opacity:0.45;}
	.st7{fill:#64B5F6;}
	.st8{fill:#FFFFFF;fill-opacity:0.8;}
</style>
<title>text-html</title>
<polygon class="st0" points="4.5,32 4.5,1 28.5,1 28.5,23.1 19.6,32 "/>
<polygon class="st1" points="5,31 5,1 28,1 28,22.4 19.4,31 "/>
<polygon class="st2" points="5,31.5 5,1.5 28,1.5 28,22.9 19.4,31.5 "/>
<polygon class="st3" points="5.5,30.5 5.5,1.5 27.5,1.5 27.5,22.2 19.2,30.5 "/>
<linearGradient id="SVGID_1_" gradientUnits="userSpaceOnUse" x1="58.1" y1="-1942.89" x2="58.1" y2="-1970.89" gradientTransform="matrix(1 0 0 -1 -41.6 -1940.89)">
	<stop  offset="0" style="stop-color:#64B5F6"/>
	<stop  offset="0.22" style="stop-color:#5FB1F4"/>
	<stop  offset="0.46" style="stop-color:#52A6ED"/>
	<stop  offset="0.71" style="stop-color:#3B93E2"/>
	<stop  offset="0.98" style="stop-color:#1C79D3"/>
	<stop  offset="1" style="stop-color:#1976D2"/>
</linearGradient>
<polygon class="st4" points="6,30 6,2 27,2 27,22 19,30 "/>
<polygon class="st5" points="27,22 27,21.6 18.6,21.6 18.6,30 19,30 "/>
<path class="st6" d="M19,22h8l-8,8V22z"/>
<path class="st7" d="M23.5,14c0,3.9-3.1,7-7,7s-7-3.1-7-7s3.1-7,7-7S23.5,10.1,23.5,14L23.5,14z"/>
<path class="st8" d="M11.9,8.7c0.1,0,0.2,0.1,0.2,0.2C12.1,9,12.2,9,12.3,9h0.2l0.3-0.1l-0.1,0.2c0,0-1.7,0.8-1.4,1.3
	s0.2,0.6,0.2,0.7s0.1,0,0.1,0l0.1-0.3l0.1-0.2l0.1-0.2v-0.1l0.2-0.4l0.3-0.1l0.2,0.1c0,0,0.1,0,0.1,0.1s0,0.2,0,0.2s0,0.1,0.1,0.1
	s0.1,0,0.2-0.1l0.1,0.2l0.1,0.3l0.2,0.2l0.1,0.2l-0.1,0.2l0.1,0.1l0.2,0.3v0.1h-0.4c0,0,0-0.1-0.1-0.1H13h-0.2l-0.1,0.1
	c0,0-0.1,0.2-0.2,0.2c-0.1,0-0.2,0-0.3,0S12,12,12,12.1c-0.1,0.1,0.1,0.2,0.1,0.2l-0.4,0.1h-0.1c0,0-0.3,0.1-0.3,0.2v0.1l0.1,0.3
	v0.1l-0.2,0.1L11,13.4v0.1v0.3c0,0.1,0,0.1,0,0.2v0.3c0,0-0.1,0.1-0.1-0.1V14l-0.1-0.2c0,0,0.1,0,0-0.1c-0.1,0-0.1-0.1-0.2-0.1h-0.1
	c-0.1,0,0.1,0-0.1,0h-0.2L10,13.7v0.1c0,0,0,0.9,0.2,1h0.1l0.1-0.2h0.1v0.1V15v0.1l0.1,0.1l0.1,0.2c0.1,0.2,0,0.2,0.1,0.3
	c0.1,0,0.1,0.1,0.1,0.2H11h0.1h0.1V16v0.1l0.1,0.1h0.3c0,0,0,0,0.1,0.1s0,0,0.1,0h0.3h0.2l0.1,0.2c0,0,0.1,0,0.1,0.1s-0.1,0,0,0.1
	s0,0,0.1,0.1s0,0,0.1,0s0.2,0,0.3,0s0.1,0.2,0.1,0.2l0.1,0.2v0.2c0,0-0.1,0,0.1,0h0.2c0.1,0,0,0,0.1,0H14c0,0,0.2,0.2,0.3,0.2
	s0.2,0,0.3,0s0.1,0.1,0.3,0.2s0.2,0,0.3,0.1l0.1,0.1v0.3l-0.1,0.1L15,18.3v0.3l-0.1,0.3V19c0,0,0.1,0.1-0.1,0.1h-0.2l-0.1,0.1v0.1
	c0,0.1-0.1,0.2-0.1,0.2v0.2v0.1L14.3,20c0,0-0.1,0,0.1,0.2s0.4,0.1,0.4,0.2s0.1,0.1,0.2,0.1l-0.3-0.1l-0.2-0.1l-0.3-0.1L13.7,20
	c-0.4-0.3-0.8-0.7-1.1-1.2c-0.1-0.2-0.3-0.4-0.6-0.5c-0.4-0.3-0.7-0.6-1-1v-0.1v-0.1l0,0v0.2v-0.1v-0.6c0,0,0,0,0-0.1s0-0.1,0-0.1
	l0,0l0.1-0.1v-0.1v-0.1l0.1-0.1v-0.1l-0.1-0.1l0,0v0.1l0,0l0,0v-0.1H11c0,0,0,0-0.1,0s0.1,0.3,0.1,0.3V16l0,0l-0.1-0.1
	c0,0,0,0,0-0.1l-0.1-0.1v-0.1h-0.1h-0.1l-0.1-0.1l-0.1-0.1v-0.1l0,0H9.9L9.8,15l-0.2-0.3v-0.1v-0.1v-0.2v-0.1l-0.1-1
	C9.8,11.4,10.7,9.9,11.9,8.7z"/>
<path class="st8" d="M19.8,7.8L20.1,8h0.1l0.1,0.1v0.1v0.1v0.1c0,0.1,0.1,0.1,0.1,0.2v0.1c0,0-0.1,0.1-0.2,0.1s-0.1-0.1-0.1-0.1
	l-0.1,0h0.2V8.6H20l-0.2-0.1h-0.1l-0.3-0.1h-0.1h-0.2H19c0,0.1-0.1,0.1-0.1,0.1s0,0.1,0,0.2v0.1c0,0.1,0,0.2,0,0.2v0.1v0.1h-0.1
	l-0.1,0.1l-0.1,0.1c0,0.1,0,0.1,0,0.2c0,0.1,0,0.1,0.1,0.2s0.1,0.1,0.1,0.1s0,0,0.1,0s0.1,0,0.1,0h0.1l0,0c0,0,0,0,0.1,0l0.1,0.1
	c0,0,0,0.1,0.1,0.1l0.1,0.1l0.1,0.1h0.2l0,0c0,0,0,0,0.1,0c0,0,0,0,0-0.1v-0.1V9.9V9.8l0,0V9.6l0,0h-0.1l0,0l0,0h-0.1h-0.1l0.1-0.1
	c0-0.1,0.1-0.1,0.1-0.1V9.3c0,0,0,0,0-0.1V9.1l0,0l0,0h0.1H20l0,0v0.1v0v0.3v0.1v0.1l0.1,0.1l0.1,0.1H20l0,0l0,0l0,0l0,0h0.2V10
	c0,0,0,0-0.1,0S20,10,20,10v0.1h0.1l0,0l0,0l0,0H20c0,0,0-0.1,0,0v0.1V10v0.1l0,0l-0.1,0.1l0,0h-0.1h-0.1h-0.1h-0.3l0,0l-0.1-0.1V10
	l0,0l0,0c0,0-0.2,0-0.2,0.1s0,0,0.1,0.1l0.1,0.1v0.1l-0.2,0h-0.1v0.1c0,0,0,0,0,0.1l-0.1,0.1c0,0,0,0-0.1,0v0.1h-0.1
	c0,0,0,0-0.1,0.1h-0.1h-0.1h-0.1h-0.1L18,11l0,0h0.1h0.1c0,0,0,0,0.1,0l0.1,0.1l0.1,0.1v0.1h-0.1h-0.6h-0.1l0,0v0.1V12v0.1v0.1l0,0
	l0,0h0.1c0,0,0,0.1-0.1,0.1h0.1H18h0.1l0.1,0.1l0,0l0,0h0.1h0.2l0,0l0,0c0,0,0.1,0,0.1-0.1v-0.1l0,0v-0.1l0,0l0,0l0,0l0,0l0,0h0.1
	l0,0c0,0,0.1,0,0.1-0.1s0-0.1,0-0.1v-0.1H19h0.1l0,0h0.1l0,0h0.2h0.1v0.1l0,0l0,0l0.1,0.1h0.1c0,0,0,0,0,0.1l0.1,0.1
	c0,0,0,0,0.1,0.1v0.1l0,0l0,0v-0.1l0,0H20V12h-0.1h-0.1l0,0l0,0l0,0l0,0h-0.1l0,0H20c0,0-0.1,0-0.1-0.1s0-0.1,0-0.1h-0.1v-0.1
	c0,0,0,0,0-0.1H20v0.1h0.1h0.1l0,0l0,0h0.1h0.1c0,0,0,0,0.1,0h0.1l0,0l0,0l0.1,0.1v0.1c0,0,0.1,0,0.1,0.1c0,0,0,0.1,0.1,0.1
	s0.1,0,0.1,0v0.1h0h0.1v-0.1L21,12v-0.1v-0.1v-0.1h0.1h0.1l0.1,0.1v0.1V12c0,0,0,0.1,0.1,0.1l0.1,0.1h0.2l0,0h0.2H22l0.1,0.2v0.3
	L22,12.8h-0.1h-0.2H21c0,0-0.1,0-0.1,0.1c0,0,0,0.1-0.1,0.1l0,0c0,0,0,0-0.1,0s-0.1,0-0.2-0.1l-0.1-0.1l-0.1-0.1h-0.5v-0.2v0.1v-0.2
	h-0.1h-0.2h-0.1h-0.1h-0.1h-0.1l-0.4,0.1l-0.1,0.1h-0.1h-0.1h-0.1h-0.1h-0.1c0,0,0,0-0.1,0l0,0l-0.1,0.1l-0.1,0.1l-0.1,0.1l0,0.1
	v0.1h-0.1h-0.1c0,0,0,0-0.1,0c0,0,0,0-0.1,0.1l-0.1,0.1l-0.1,0.1L17,13.5c0,0,0,0-0.1,0.1l-0.1,0.1l-0.1,0.1V14v0c0,0,0,0,0,0.1v0.1
	v0.1v0.1v0.1v0.1c0,0,0,0,0,0.1v0.1v0.1V15l0,0v0l0,0H17l0,0l0.1,0.1v0.1l0.1,0.1c0,0,0,0.1,0.1,0.1l0.1,0.1l0.1,0.1h0.1
	c0,0,0-0.1,0.1,0c0.1,0,0.2,0.1,0.3,0.1h0.1h0.2h0.2h0.2l0.2-0.1H19l0.1-0.1h0.1l0,0c0,0,0,0,0.1,0.1v0.1h0.1h0.1h0.1l0,0v0.2
	c0,0,0,0,0,0.1v0.1c0,0,0,0.1-0.1,0.1l-0.1,0.1l0.2,0.1l0.1,0.1l0.1,0.1c0,0,0,0,0,0.1v0.1v0.1V17v0.1V17v0.1l-0.1,0.1l-0.1,0.1
	l-0.1,0.1v0.1v0.1v0.1c0,0.1,0,0.1,0.1,0.2V18c0,0.1,0,0.1,0,0.2v0.1v0.1v0.1v0.1v0.1v0.1l0.1,0.1c0.1,0,0.1,0,0.2,0l0.2-0.1
	c0,0,0,0,0.1,0l0.2-0.1l0.1-0.1l0.1-0.1l0.1-0.1c0.1,0,0,0,0.1,0c0.1-0.1,0.2-0.1,0.2-0.2l0.2-0.2l0.2-0.2c0.1-0.1,0.1-0.2,0.2-0.2
	l0.3-0.2l0.1-0.3l0.1-0.3l0.1-0.3l0.2-0.5l0.2-0.3c0-0.1,0.1-0.1,0.1-0.2l0.2-0.4l0.1-0.3v-0.3h-0.1l-0.1,0.1h-0.1h-0.1l0.1-0.2
	v-0.1l-0.1-0.1L22.5,14v-0.2l-0.1-0.2l-0.1-0.4c0,0-0.2-0.2-0.1-0.2s0.1-0.2,0.1-0.2h0.1l0.1,0.2l0.1,0.1v0.1l0.1,0.2l0.1,0.2
	c0,0.1,0.1,0.1,0.1,0.2c0,0.1,0,0.3,0,0.3l0.1,0.3h0.1c0,0,0,0,0-0.1l0.1-0.1L23,14v-0.1l0.1-0.2v-0.1c0-0.1,0-0.1,0-0.2v-0.1v-0.2
	l0.1-0.1v-0.1C22.9,10.8,21.6,8.9,19.8,7.8z"/>
</svg>
