<?xml version="1.0" encoding="utf-8"?>
<!-- Generator: Adobe Illustrator 16.0.0, SVG Export Plug-In . SVG Version: 6.00 Build 0)  -->
<!DOCTYPE svg PUBLIC "-//W3C//DTD SVG 1.1//EN" "http://www.w3.org/Graphics/SVG/1.1/DTD/svg11.dtd">
<svg version="1.1" id="图层_1" xmlns="http://www.w3.org/2000/svg" xmlns:xlink="http://www.w3.org/1999/xlink" x="0px" y="0px"
	 width="32px" height="32px" viewBox="0 0 32 32" enable-background="new 0 0 32 32" xml:space="preserve">
<polygon opacity="0.08" enable-background="new    " points="5.077,32 5.077,1 28.923,1 28.923,23.249 20.172,32 "/>
<polygon opacity="0.1" enable-background="new    " points="5.577,31.5 5.577,1.5 28.423,1.5 28.423,23.042 19.965,31.5 "/>
<polygon opacity="0.2" enable-background="new    " points="5.077,31 5.077,1 27.923,1 27.923,22.542 19.465,31 "/>
<polygon fill="#5F7B89" points="5.577,30.5 5.577,1.5 27.423,1.5 27.423,22.335 19.258,30.5 "/>
<g>
	<text transform="matrix(1 0 0 1 7.9961 15.3188)" fill="#607D8B" font-family="'Ubuntu-BoldItalic'" font-size="9.0606">TEX</text>
</g>
<g>
	<g>
		<g>
			<g>
				<g>
					<g>
						<g>
							<g>
								
									<linearGradient id="SVGID_1_" gradientUnits="userSpaceOnUse" x1="141.2988" y1="1245.7002" x2="141.2988" y2="1273.7012" gradientTransform="matrix(1 0 0 1 -124.7998 -1243.7012)">
									<stop  offset="0" style="stop-color:#F6F5F5"/>
									<stop  offset="0.341" style="stop-color:#F1F2F3"/>
									<stop  offset="0.6434" style="stop-color:#E7EAEB"/>
									<stop  offset="0.9302" style="stop-color:#D5DBDF"/>
									<stop  offset="1" style="stop-color:#CFD7DB"/>
								</linearGradient>
								<polygon fill="url(#SVGID_1_)" points="6.01,30 6.01,2 26.988,2 26.988,22.125 19.113,30 								"/>
							</g>
							<polygon fill="#455963" fill-opacity="0.7" points="26.988,22.125 26.988,21.786 18.682,21.786 18.682,30 19.113,30 							
								"/>
							<path fill="#8DA1AC" d="M19.102,22.125l7.889,0.013L19.113,30L19.102,22.125z"/>
						</g>
					</g>
				</g>
			</g>
		</g>
	</g>
	<g>
		<path fill="#607D8B" d="M22.27,13.175c0,0.955-0.158,1.813-0.471,2.573c-0.318,0.758-0.736,1.398-1.266,1.921
			s-1.141,0.922-1.842,1.197c-0.695,0.275-1.425,0.414-2.19,0.414s-1.497-0.139-2.193-0.414c-0.698-0.275-1.311-0.674-1.839-1.197
			c-0.529-0.523-0.95-1.163-1.265-1.921c-0.315-0.76-0.472-1.619-0.472-2.573c0-0.956,0.157-1.813,0.472-2.573
			c0.315-0.758,0.736-1.399,1.265-1.922c0.528-0.523,1.141-0.922,1.839-1.198c0.696-0.275,1.427-0.413,2.193-0.413
			s1.495,0.138,2.19,0.413c0.701,0.275,1.313,0.674,1.842,1.198c0.529,0.523,0.947,1.164,1.266,1.922
			C22.111,11.362,22.27,12.219,22.27,13.175z M21.037,13.175c0-0.743-0.109-1.42-0.336-2.032c-0.227-0.614-0.537-1.139-0.938-1.578
			c-0.396-0.438-0.875-0.775-1.432-1.012c-0.559-0.236-1.168-0.354-1.831-0.354c-0.664,0-1.274,0.119-1.83,0.354
			c-0.558,0.236-1.036,0.573-1.435,1.012c-0.399,0.439-0.711,0.964-0.935,1.578c-0.226,0.612-0.337,1.29-0.337,2.032
			c0,0.743,0.111,1.419,0.337,2.032c0.224,0.614,0.536,1.139,0.935,1.578c0.399,0.438,0.877,0.775,1.435,1.012
			c0.556,0.236,1.167,0.354,1.83,0.354c0.663,0,1.272-0.117,1.831-0.354c0.557-0.236,1.035-0.574,1.432-1.012
			c0.4-0.439,0.711-0.964,0.938-1.578C20.928,14.595,21.037,13.918,21.037,13.175z"/>
		<g>
			<path fill="#607D8B" d="M17.237,16.762h-1.475v-5.117h1.475V16.762z"/>
		</g>
		<circle fill="#607D8B" cx="16.501" cy="10.269" r="0.86"/>
	</g>
</g>
</svg>
