<?xml version="1.0" encoding="utf-8"?>
<!-- Generator: Adobe Illustrator 21.0.0, SVG Export Plug-In . SVG Version: 6.00 Build 0)  -->
<svg version="1.1" id="图层_1" xmlns="http://www.w3.org/2000/svg" xmlns:xlink="http://www.w3.org/1999/xlink" x="0px" y="0px"
	 viewBox="0 0 32 32" style="enable-background:new 0 0 32 32;" xml:space="preserve">
<style type="text/css">
	.st0{opacity:0.08;enable-background:new    ;}
	.st1{opacity:0.1;enable-background:new    ;}
	.st2{opacity:0.2;enable-background:new    ;}
	.st3{fill:#5F7B89;}
	.st4{fill:url(#SVGID_1_);}
	.st5{fill:#455963;fill-opacity:0.7;}
	.st6{fill:#8DA1AC;}
	.st7{fill:#607D8B;}
</style>
<title>text-x-vcard</title>
<polygon class="st0" points="5.1,32 5.1,1 28.9,1 28.9,23.3 20.2,32 "/>
<polygon class="st1" points="5.6,31.5 5.6,1.5 28.4,1.5 28.4,23 20,31.5 "/>
<polygon class="st2" points="5.1,31 5.1,1 27.9,1 27.9,22.5 19.5,31 "/>
<polygon class="st3" points="5.6,30.5 5.6,1.5 27.4,1.5 27.4,22.3 19.3,30.5 "/>
<linearGradient id="SVGID_1_" gradientUnits="userSpaceOnUse" x1="99.7" y1="2102.8" x2="99.7" y2="2130.8" gradientTransform="matrix(1 0 0 1 -83.2 -2100.8)">
	<stop  offset="0" style="stop-color:#F6F5F5"/>
	<stop  offset="0.34" style="stop-color:#F1F2F3"/>
	<stop  offset="0.64" style="stop-color:#E7EAEB"/>
	<stop  offset="0.93" style="stop-color:#D5DBDF"/>
	<stop  offset="1" style="stop-color:#CFD7DB"/>
</linearGradient>
<polygon class="st4" points="6,30 6,2 27,2 27,22.1 19.1,30 "/>
<polygon class="st5" points="27,22.1 27,21.8 18.7,21.8 18.7,30 19.1,30 "/>
<path class="st6" d="M19.1,22.1H27L19.1,30V22.1z"/>
<g>
	<path class="st7" d="M19.9,17c-0.3,0-0.6,0-0.8-0.1c-0.2-0.1-0.4-0.2-0.5-0.4c-0.3,0.1-0.5,0.2-0.8,0.3c-0.3,0.1-0.7,0.1-1,0.1
		c-0.5,0-0.9-0.1-1.4-0.2c-0.4-0.1-0.8-0.4-1.1-0.7s-0.5-0.6-0.7-1c-0.2-0.5-0.3-1-0.3-1.5s0.1-0.9,0.2-1.4c0.2-0.4,0.4-0.8,0.7-1.1
		s0.7-0.6,1.1-0.8c0.5-0.2,1-0.3,1.5-0.3s1,0,1.5,0.1c0.3,0.1,0.7,0.1,1,0.2V15c0,0.2,0,0.5,0.2,0.7c0.1,0.1,0.3,0.2,0.5,0.2
		c0.3,0,0.5-0.1,0.7-0.3s0.4-0.4,0.5-0.7s0.2-0.7,0.3-1c0.1-0.4,0.1-0.8,0.1-1.1c0-0.6-0.1-1.2-0.4-1.8c-0.2-0.6-0.6-1.1-1-1.5
		c-0.5-0.4-1-0.8-1.6-1c-0.7-0.3-1.4-0.4-2.1-0.4c-0.7,0-1.4,0.1-2.1,0.4c-1.3,0.5-2.3,1.5-2.8,2.7c-0.3,0.7-0.4,1.5-0.4,2.3
		s0.1,1.6,0.4,2.3c0.3,0.6,0.6,1.2,1.1,1.7s1.1,0.8,1.7,1c0.7,0.2,1.5,0.3,2.2,0.3c0.5,0,1,0,1.5-0.1c0.3,0,0.5-0.1,0.8-0.2l0.2,1.1
		c-0.3,0.1-0.7,0.2-1,0.2c-0.5,0.1-1,0.1-1.5,0.1c-0.9,0-1.8-0.1-2.7-0.4c-0.8-0.3-1.5-0.7-2.1-1.2c-0.6-0.5-1.1-1.2-1.5-2
		c-0.4-0.9-0.6-1.9-0.5-3c0-1,0.2-2,0.5-2.9c0.3-0.8,0.8-1.5,1.5-2c0.6-0.5,1.3-1,2.1-1.2c1-0.1,1.9-0.2,2.7-0.2
		c0.8,0,1.7,0.1,2.5,0.4c0.7,0.3,1.4,0.6,2,1.2c0.6,0.5,1.1,1.1,1.4,1.8c0.4,0.8,0.5,1.6,0.5,2.4c0,0.6-0.1,1.2-0.2,1.8
		c-0.1,0.5-0.4,1-0.7,1.4c-0.3,0.3-0.6,0.6-1,0.8C20.7,17,20.3,17,19.9,17z M16.7,15.8c0.2,0,0.4,0,0.7-0.1c0.2,0,0.4-0.1,0.6-0.2
		c0-0.1-0.1-0.3-0.1-0.4c0-0.1,0-0.3,0-0.4v-3.5l-0.4-0.1c-0.2,0-0.4,0-0.6,0c-0.6,0-1.3,0.2-1.7,0.7s-0.6,1.1-0.6,1.7
		c0,0.6,0.2,1.2,0.5,1.7C15.7,15.6,16.2,15.8,16.7,15.8L16.7,15.8z"/>
</g>
</svg>
