<?xml version="1.0" encoding="utf-8"?>
<!-- Generator: Adobe Illustrator 16.0.0, SVG Export Plug-In . SVG Version: 6.00 Build 0)  -->
<!DOCTYPE svg PUBLIC "-//W3C//DTD SVG 1.1//EN" "http://www.w3.org/Graphics/SVG/1.1/DTD/svg11.dtd">
<svg version="1.1" id="图层_1" xmlns="http://www.w3.org/2000/svg" xmlns:xlink="http://www.w3.org/1999/xlink" x="0px" y="0px"
	 width="32px" height="32px" viewBox="0 0 32 32" enable-background="new 0 0 32 32" xml:space="preserve">
<g id="surface1">
	<polygon opacity="0.08" enable-background="new    " points="4.625,32 4.625,1 28.375,1 28.375,23.258 19.633,32 	"/>
	<polygon opacity="0.1" enable-background="new    " points="5.125,31.5 5.125,1.5 27.875,1.5 27.875,23.051 19.426,31.5 	"/>
	<polygon opacity="0.2" enable-background="new    " points="4.625,31 4.625,1 27.375,1 27.375,22.551 18.926,31 	"/>
</g>
<linearGradient id="SVGID_1_" gradientUnits="userSpaceOnUse" x1="224.001" y1="-1716.4512" x2="224.001" y2="-1687.4512" gradientTransform="matrix(1 0 0 -1 -208.0005 -1685.9512)">
	<stop  offset="0" style="stop-color:#3F51B5"/>
	<stop  offset="0.258" style="stop-color:#4355B7"/>
	<stop  offset="0.5253" style="stop-color:#5060BB"/>
	<stop  offset="0.7959" style="stop-color:#6473C3"/>
	<stop  offset="1" style="stop-color:#7986CB"/>
</linearGradient>
<path fill="url(#SVGID_1_)" d="M18.719,30.5l8.156-8.156V1.5H5.125v29H18.719z"/>
<polygon fill="#311B92" fill-opacity="0.3922" points="18.266,21.891 18.266,30.5 18.719,30.5 26.875,22.344 26.875,21.891 "/>
<path fill="#FFFFFF" fill-opacity="0.3922" d="M18.719,22.344h8.149L18.719,30.5V22.344z"/>
<g>
	<g>
		<path fill="#311B92" d="M26.375,2v20.137L18.512,30h-6.137h-6.75V2H26.375 M26.875,1.5H5.125v29h7.25h6.344l8.156-8.156V1.5
			L26.875,1.5z"/>
	</g>
</g>
<g opacity="0.8">
	<path fill="#FFFFFF" d="M16.131,6.906c-0.492,0.004-0.966,0.042-1.38,0.113c-1.214,0.212-1.473,0.276-1.473,1.094v1.813h3.023
		v0.605h-4.234c-0.832,0-1.377,0.51-1.604,1.456c-0.266,1.083-0.276,1.756,0,2.889c0.202,0.839,0.772,1.699,1.604,1.699h0.605
		v-1.813c0-0.938,0.842-1.813,1.813-1.813h3.023c0.801,0,1.211-0.414,1.211-1.211v-3.02c0-0.771-0.318-1.572-1.098-1.699
		C17.129,6.938,16.619,6.903,16.131,6.906z M15.09,8.113c0.337,0,0.605,0.272,0.605,0.605c0,0.333-0.268,0.606-0.605,0.606
		c-0.333,0-0.605-0.273-0.605-0.606C14.485,8.386,14.757,8.113,15.09,8.113z"/>
	<path fill="#FFFFFF" d="M15.869,19.594c0.492-0.004,0.967-0.042,1.381-0.113c1.214-0.212,1.473-0.276,1.473-1.094v-1.813h-3.023
		v-0.605h4.233c0.832,0,1.378-0.509,1.604-1.455c0.265-1.083,0.275-1.756,0-2.889c-0.202-0.839-0.772-1.699-1.604-1.699h-0.604
		v1.813c0,0.938-0.843,1.813-1.813,1.813h-3.023c-0.8,0-1.211,0.414-1.211,1.211v3.02c0,0.771,0.318,1.572,1.098,1.699
		C14.871,19.562,15.381,19.598,15.869,19.594z M16.91,18.387c-0.337,0-0.605-0.271-0.605-0.605c0-0.333,0.269-0.605,0.605-0.605
		c0.332,0,0.605,0.272,0.605,0.605C17.516,18.115,17.242,18.387,16.91,18.387z"/>
</g>
</svg>
