<?xml version="1.0" encoding="utf-8"?>
<!-- Generator: Adobe Illustrator 21.0.0, SVG Export Plug-In . SVG Version: 6.00 Build 0)  -->
<svg version="1.1" id="图层_1" xmlns="http://www.w3.org/2000/svg" xmlns:xlink="http://www.w3.org/1999/xlink" x="0px" y="0px"
	 viewBox="0 0 32 32" style="enable-background:new 0 0 32 32;" xml:space="preserve">
<style type="text/css">
	.st0{opacity:0.08;enable-background:new    ;}
	.st1{opacity:0.2;enable-background:new    ;}
	.st2{opacity:0.1;enable-background:new    ;}
	.st3{fill:#B71C1C;}
	.st4{fill:url(#SVGID_1_);}
	.st5{fill:#B71C1C;fill-opacity:0.39;}
	.st6{fill:#FFFFFF;fill-opacity:0.39;}
	.st7{opacity:0.8;}
	.st8{fill:#FFFFFF;}
</style>
<title>text-x-gtkrc</title>
<polygon class="st0" points="4.5,32 4.5,1 28.5,1 28.5,23.1 19.6,32 "/>
<polygon class="st1" points="5,31 5,1 28,1 28,22.4 19.4,31 "/>
<polygon class="st2" points="5,31.5 5,1.5 28,1.5 28,22.9 19.4,31.5 "/>
<polygon class="st3" points="5.5,30.5 5.5,1.5 27.5,1.5 27.5,22.2 19.2,30.5 "/>
<linearGradient id="SVGID_1_" gradientUnits="userSpaceOnUse" x1="16.5" y1="788" x2="16.5" y2="760" gradientTransform="matrix(1 0 0 1 0 -758)">
	<stop  offset="0.03" style="stop-color:#D32F2F"/>
	<stop  offset="0.3" style="stop-color:#E33932"/>
	<stop  offset="0.66" style="stop-color:#F04035"/>
	<stop  offset="1" style="stop-color:#F44336"/>
</linearGradient>
<polygon class="st4" points="6,30 6,2 27,2 27,22 19,30 "/>
<polygon class="st5" points="27,22 27,21.6 18.6,21.6 18.6,30 19,30 "/>
<path class="st6" d="M19,22h8l-8,8V22z"/>
<g class="st7">
	<path class="st8" d="M17.5,7.6v3.9h-6.4c-0.3,0-0.5-0.2-0.5-0.5V8.1c0-0.3,0.2-0.5,0.5-0.5L17.5,7.6 M18,7h-7c-0.6,0-1,0.5-1,1.1
		V11c0,0.6,0.5,1.1,1.1,1.1h7L18,7L18,7z"/>
	<path class="st8" d="M20.7,11.5l1.7-2.6V11c0,0.3-0.2,0.5-0.5,0.5H20.7z M18.6,11.5V9.3l1.4,2.1h-1.4V11.5z M18.6,8V7.6h3.3
		c0.2,0,0.4,0.2,0.5,0.4H18.6z"/>
	<path class="st8" d="M21.9,7H18v5.1h3.9c0.6,0,1.1-0.4,1.1-1l0,0v-3C23,7.5,22.5,7,21.9,7z M20.5,11L19,8.7h3L20.5,11L20.5,11z"/>
	<path class="st8" d="M20,14.6c1.3,0,2.4,1.1,2.4,2.4s-1.1,2.4-2.4,2.4s-2.4-1.1-2.4-2.4l0,0C17.6,15.7,18.7,14.6,20,14.6 M20,14
		c-1.7,0-3,1.3-3,3s1.3,3,3,3s3-1.3,3-3S21.7,14,20,14z"/>
	<path class="st8" d="M14.9,14h-3.7c-0.6,0-1.1,0.5-1.1,1.1l0,0v3.7c0,0.6,0.5,1.1,1.1,1.1l0,0H15c0.6,0,1.1-0.5,1.1-1.1V15
		C16,14.5,15.5,14,14.9,14L14.9,14z M12.8,18.9L11,17.4l0.6-0.7l1.1,0.9l1.6-2.4l0.8,0.5L12.8,18.9z"/>
	<circle class="st8" cx="20" cy="17" r="1.4"/>
</g>
</svg>
