<?xml version="1.0" encoding="utf-8"?>
<!-- Generator: Adobe Illustrator 21.0.0, SVG Export Plug-In . SVG Version: 6.00 Build 0)  -->
<svg version="1.1" id="图层_1" xmlns="http://www.w3.org/2000/svg" xmlns:xlink="http://www.w3.org/1999/xlink" x="0px" y="0px"
	 viewBox="0 0 32 32" style="enable-background:new 0 0 32 32;" xml:space="preserve">
<style type="text/css">
	.st0{opacity:0.08;enable-background:new    ;}
	.st1{opacity:0.1;enable-background:new    ;}
	.st2{opacity:0.2;enable-background:new    ;}
	.st3{fill:#212121;}
	.st4{fill:url(#SVGID_1_);}
	.st5{fill:#9E9E9E;fill-opacity:0.39;}
	.st6{fill:#FFFFFF;fill-opacity:0.3922;}
	.st7{opacity:0.8;}
	.st8{fill:#FFFFFF;}
</style>
<polygon class="st0" points="5.1,32 5.1,1 28.9,1 28.9,23.2 20.2,32 "/>
<polygon class="st1" points="5.6,31.5 5.6,1.5 28.4,1.5 28.4,23 20,31.5 "/>
<polygon class="st2" points="5.1,31 5.1,1 27.9,1 27.9,22.5 19.5,31 "/>
<polygon class="st3" points="5.5,30.5 5.5,1.5 27.5,1.5 27.5,22.3 19.3,30.5 "/>
<g>
	<g>
		<g>
			<g>
				
					<linearGradient id="SVGID_1_" gradientUnits="userSpaceOnUse" x1="16.5" y1="788" x2="16.5" y2="760" gradientTransform="matrix(1 0 0 1 0 -758)">
					<stop  offset="0" style="stop-color:#616161"/>
					<stop  offset="1" style="stop-color:#90A4AE"/>
				</linearGradient>
				<polygon class="st4" points="6,30 6,2 27,2 27,22.1 19.1,30 				"/>
			</g>
			<polygon class="st5" points="27,22.1 27,21.8 18.7,21.8 18.7,30 19.1,30 			"/>
			<path class="st6" d="M19.1,22.1H27L19.1,30V22.1z"/>
		</g>
	</g>
	<g>
		<g class="st7">
			<path class="st8" d="M13.1,18.7c-0.7,0-1.2-0.1-1.8-0.3c-0.5-0.2-1-0.5-1.4-0.9S9.2,16.6,9,16.1c-0.2-0.6-0.3-1.2-0.3-1.9
				s0.1-1.4,0.4-1.9c0.2-0.6,0.6-1,1-1.4s0.9-0.7,1.4-0.9s1.1-0.3,1.7-0.3c0.4,0,0.7,0,1,0.1c0.3,0,0.6,0.1,0.8,0.2
				c0.2,0.1,0.4,0.1,0.6,0.2c0.1,0.1,0.2,0.1,0.3,0.1l-0.4,1c-0.1-0.1-0.2-0.1-0.4-0.2C15,11,14.8,11,14.6,10.9s-0.4-0.1-0.6-0.1
				c-0.2,0-0.5-0.1-0.7-0.1c-0.5,0-0.9,0.1-1.3,0.2c-0.4,0.2-0.7,0.4-1,0.7s-0.5,0.7-0.6,1.1c-0.1,0.4-0.2,0.9-0.2,1.4
				s0.1,1,0.2,1.4c0.1,0.4,0.3,0.8,0.6,1.1c0.3,0.3,0.6,0.5,1,0.7s0.8,0.3,1.4,0.3c0.6,0,1.1-0.1,1.5-0.2s0.7-0.2,0.9-0.3l0.3,1
				c-0.1,0-0.2,0.1-0.3,0.2c-0.2,0.1-0.4,0.1-0.6,0.2c-0.2,0.1-0.5,0.1-0.8,0.2C13.8,18.6,13.5,18.7,13.1,18.7z"/>
		</g>
		<g class="st7">
			<path class="st8" d="M19.9,12H22l0.5-2.4h1.1L23.1,12h1.1v1H23l-0.4,2.3h1.8v1h-2l-0.5,2.4h-1.1l0.5-2.4h-2.1l-0.5,2.4h-1.1
				l0.5-2.4H17v-1h1.3l0.4-2.3h-1.8v-1h2l0.5-2.4h1.1L19.9,12z M19.3,15.3h2.1l0.5-2.3h-2.1L19.3,15.3z"/>
		</g>
	</g>
</g>
</svg>
