<?xml version="1.0" encoding="utf-8"?>
<!-- Generator: Adobe Illustrator 21.0.0, SVG Export Plug-In . SVG Version: 6.00 Build 0)  -->
<svg version="1.1" id="图层_1" xmlns="http://www.w3.org/2000/svg" xmlns:xlink="http://www.w3.org/1999/xlink" x="0px" y="0px"
	 viewBox="0 0 32 32" style="enable-background:new 0 0 32 32;" xml:space="preserve">
<style type="text/css">
	.st0{opacity:0.08;enable-background:new    ;}
	.st1{opacity:0.1;enable-background:new    ;}
	.st2{opacity:0.2;enable-background:new    ;}
	.st3{fill:#212121;}
	.st4{fill:url(#SVGID_1_);}
	.st5{fill:#9E9E9E;fill-opacity:0.39;}
	.st6{fill:#FFFFFF;fill-opacity:0.3922;}
	.st7{opacity:0.8;}
	.st8{fill:#FFFFFF;}
</style>
<polygon class="st0" points="5.1,32 5.1,1 28.9,1 28.9,23.2 20.2,32 "/>
<polygon class="st1" points="5.6,31.5 5.6,1.5 28.4,1.5 28.4,23 20,31.5 "/>
<polygon class="st2" points="5.1,31 5.1,1 27.9,1 27.9,22.5 19.5,31 "/>
<polygon class="st3" points="5.5,30.5 5.5,1.5 27.5,1.5 27.5,22.3 19.3,30.5 "/>
<g>
	<g>
		<g>
			<g>
				
					<linearGradient id="SVGID_1_" gradientUnits="userSpaceOnUse" x1="16.5" y1="788" x2="16.5" y2="760" gradientTransform="matrix(1 0 0 1 0 -758)">
					<stop  offset="0" style="stop-color:#616161"/>
					<stop  offset="1" style="stop-color:#90A4AE"/>
				</linearGradient>
				<polygon class="st4" points="6,30 6,2 27,2 27,22.1 19.1,30 				"/>
			</g>
			<polygon class="st5" points="27,22.1 27,21.8 18.7,21.8 18.7,30 19.1,30 			"/>
			<path class="st6" d="M19.1,22.1H27L19.1,30V22.1z"/>
		</g>
	</g>
	<g class="st7">
		<path class="st8" d="M17.7,20.2c-0.9,0-1.7-0.1-2.4-0.4c-0.7-0.3-1.3-0.7-1.9-1.2c-0.5-0.5-0.9-1.1-1.2-1.9
			c-0.3-0.8-0.4-1.6-0.4-2.6s0.2-1.8,0.5-2.6s0.7-1.4,1.3-1.9s1.2-0.9,1.9-1.2C16.2,8.1,17,8,17.8,8c0.5,0,1,0,1.4,0.1
			s0.8,0.1,1.1,0.2s0.6,0.2,0.7,0.3c0.2,0.1,0.3,0.2,0.4,0.2l-0.5,1.3c-0.1-0.1-0.3-0.1-0.5-0.2c-0.2,0.1-0.4,0-0.7-0.1
			c-0.3-0.1-0.5-0.1-0.8-0.2S18.3,9.5,18,9.5c-0.7,0-1.3,0.1-1.8,0.3s-1,0.5-1.3,0.9c-0.4,0.4-0.7,0.9-0.9,1.5s-0.3,1.2-0.3,1.9
			s0.1,1.3,0.3,1.9s0.4,1.1,0.8,1.5c0.3,0.4,0.8,0.7,1.3,0.9c0.5,0.2,1.1,0.3,1.8,0.3c0.8,0,1.5-0.1,2-0.2c0.5-0.2,0.9-0.3,1.2-0.4
			l0.5,1.3c-0.1,0.1-0.2,0.1-0.5,0.2c-0.2,0.1-0.5,0.2-0.8,0.2c-0.3,0.1-0.7,0.1-1.1,0.2C18.6,20.2,18.2,20.2,17.7,20.2z"/>
	</g>
</g>
</svg>
