<?xml version="1.0" encoding="utf-8"?>
<!-- Generator: Adobe Illustrator 16.0.0, SVG Export Plug-In . SVG Version: 6.00 Build 0)  -->
<!DOCTYPE svg PUBLIC "-//W3C//DTD SVG 1.1//EN" "http://www.w3.org/Graphics/SVG/1.1/DTD/svg11.dtd">
<svg version="1.1" id="图层_1" xmlns="http://www.w3.org/2000/svg" xmlns:xlink="http://www.w3.org/1999/xlink" x="0px" y="0px"
	 width="32px" height="32px" viewBox="0 0 32 32" enable-background="new 0 0 32 32" xml:space="preserve">
<polygon opacity="0.08" enable-background="new    " points="5.077,32 5.077,1 28.923,1 28.923,23.249 20.172,32 "/>
<polygon opacity="0.1" enable-background="new    " points="5.577,31.5 5.577,1.5 28.423,1.5 28.423,23.042 19.965,31.5 "/>
<polygon opacity="0.2" enable-background="new    " points="5.077,31 5.077,1 27.923,1 27.923,22.542 19.465,31 "/>
<polygon fill="#E65100" points="5.512,30.5 5.512,1.604 27.488,1.604 27.488,22.364 19.274,30.5 "/>
<g>
	<g>
		<g>
			
				<linearGradient id="SVGID_1_" gradientUnits="userSpaceOnUse" x1="58.1006" y1="-161.8999" x2="58.1006" y2="-133.9004" gradientTransform="matrix(1 0 0 -1 -41.6001 -131.9004)">
				<stop  offset="0" style="stop-color:#EE6F0B"/>
				<stop  offset="1" style="stop-color:#FFB74D"/>
			</linearGradient>
			<polygon fill="url(#SVGID_1_)" points="6.011,30 6.011,2 26.989,2 26.989,22.125 19.114,30 			"/>
		</g>
		<polygon fill="#E65100" fill-opacity="0.3922" points="26.989,22.125 26.989,21.786 18.683,21.786 18.683,30 19.114,30 		"/>
		<path fill="#FFFFFF" fill-opacity="0.3922" d="M19.102,22.125l7.888,0.011L19.114,30L19.102,22.125z"/>
	</g>
	<g opacity="0.8">
		<rect x="8.741" y="12.779" fill="#FFFFFF" width="2.24" height="11.224"/>
		<rect x="12.475" y="18.379" fill="#FFFFFF" width="2.24" height="5.61"/>
		<rect x="16.198" y="20.664" fill="#FFFFFF" width="2.239" height="3.362"/>
		<g>
			<path fill="#FFFFFF" d="M19.242,10.795l0.023,4.467l4.468-0.023c0.013,2.475-1.983,4.482-4.457,4.492
				c-2.472,0.014-4.479-1.984-4.491-4.455C14.773,12.814,16.769,10.807,19.242,10.795z"/>
			<path fill="#FFFFFF" d="M19.767,10.281c2.475-0.01,4.48,1.984,4.491,4.457l-4.468,0.025L19.767,10.281z"/>
		</g>
	</g>
	<g>
		<rect x="6.005" y="2" opacity="0.8" fill="#FFFFFF" enable-background="new    " width="20.99" height="5.367"/>
		<g enable-background="new    ">
			<path fill="#E64A19" d="M14.503,4.65c0,0.361-0.062,0.678-0.18,0.948c-0.119,0.271-0.285,0.492-0.505,0.669
				c-0.217,0.176-0.482,0.31-0.797,0.399c-0.313,0.087-0.665,0.132-1.056,0.132c-0.177,0-0.384-0.008-0.621-0.022
				c-0.237-0.013-0.471-0.042-0.698-0.087V2.616c0.228-0.04,0.467-0.067,0.715-0.082c0.248-0.012,0.459-0.02,0.638-0.02
				c0.377,0,0.718,0.04,1.026,0.12c0.307,0.081,0.57,0.208,0.791,0.379c0.219,0.175,0.388,0.395,0.507,0.664
				C14.441,3.947,14.503,4.271,14.503,4.65z M11.637,5.978c0.047,0.003,0.1,0.007,0.162,0.009c0.062,0.001,0.135,0.001,0.219,0.001
				c0.495,0,0.863-0.117,1.103-0.354c0.239-0.239,0.358-0.567,0.358-0.984c0-0.439-0.114-0.771-0.342-0.996
				c-0.23-0.226-0.591-0.338-1.087-0.338c-0.067,0-0.139,0-0.21,0.003c-0.072,0.002-0.14,0.007-0.203,0.015V5.978z"/>
			<path fill="#E64A19" d="M16.647,2.514c0.658,0,1.161,0.109,1.513,0.328c0.353,0.219,0.528,0.58,0.528,1.077
				c0,0.503-0.178,0.866-0.535,1.088c-0.354,0.224-0.864,0.335-1.524,0.335h-0.31v1.4h-0.991V2.622
				c0.215-0.04,0.444-0.067,0.685-0.084C16.254,2.521,16.465,2.514,16.647,2.514z M16.714,3.316c-0.073,0-0.145,0.001-0.214,0.007
				c-0.071,0.003-0.129,0.007-0.181,0.011v1.207h0.31c0.344,0,0.602-0.043,0.777-0.133c0.171-0.089,0.259-0.253,0.259-0.494
				c0-0.117-0.021-0.213-0.066-0.29c-0.043-0.077-0.109-0.139-0.191-0.185c-0.082-0.047-0.184-0.078-0.301-0.096
				C16.987,3.326,16.855,3.316,16.714,3.316z"/>
			<path fill="#E64A19" d="M20.618,6.025c0.14,0,0.256-0.011,0.347-0.033s0.164-0.051,0.219-0.091
				c0.056-0.036,0.094-0.082,0.116-0.135c0.021-0.051,0.031-0.109,0.031-0.175c0-0.137-0.068-0.251-0.205-0.341
				c-0.134-0.089-0.368-0.188-0.697-0.293c-0.145-0.047-0.288-0.102-0.433-0.164c-0.144-0.063-0.273-0.143-0.388-0.237
				c-0.113-0.095-0.209-0.208-0.279-0.343c-0.071-0.135-0.107-0.299-0.107-0.492s0.036-0.368,0.113-0.521
				c0.076-0.156,0.186-0.288,0.324-0.397c0.141-0.107,0.31-0.191,0.509-0.25c0.198-0.058,0.425-0.087,0.672-0.087
				c0.298,0,0.555,0.031,0.77,0.091c0.215,0.06,0.395,0.125,0.534,0.198l-0.285,0.744c-0.125-0.063-0.26-0.115-0.41-0.161
				c-0.152-0.047-0.331-0.069-0.542-0.069c-0.239,0-0.409,0.029-0.515,0.093c-0.102,0.062-0.153,0.158-0.153,0.286
				c0,0.077,0.019,0.143,0.055,0.193c0.04,0.051,0.094,0.098,0.164,0.142c0.07,0.042,0.149,0.081,0.241,0.113
				c0.091,0.037,0.191,0.071,0.303,0.105c0.229,0.082,0.426,0.161,0.596,0.241c0.17,0.077,0.313,0.168,0.423,0.273
				c0.112,0.105,0.195,0.228,0.25,0.368c0.055,0.142,0.083,0.312,0.083,0.514c0,0.39-0.143,0.693-0.431,0.908
				c-0.289,0.215-0.724,0.322-1.304,0.322c-0.193,0-0.371-0.012-0.527-0.034c-0.156-0.022-0.295-0.048-0.415-0.08
				c-0.122-0.033-0.224-0.066-0.313-0.103c-0.087-0.036-0.16-0.071-0.219-0.102l0.281-0.75c0.132,0.068,0.292,0.13,0.484,0.185
				C20.104,6,20.339,6.025,20.618,6.025z"/>
		</g>
	</g>
</g>
</svg>
