<?xml version="1.0" encoding="utf-8"?>
<!-- Generator: Adobe Illustrator 16.0.0, SVG Export Plug-In . SVG Version: 6.00 Build 0)  -->
<!DOCTYPE svg PUBLIC "-//W3C//DTD SVG 1.1//EN" "http://www.w3.org/Graphics/SVG/1.1/DTD/svg11.dtd">
<svg version="1.1" id="图层_1" xmlns="http://www.w3.org/2000/svg" xmlns:xlink="http://www.w3.org/1999/xlink" x="0px" y="0px"
	 width="32px" height="32px" viewBox="0 0 32 32" enable-background="new 0 0 32 32" xml:space="preserve">
<polygon opacity="0.08" enable-background="new    " points="5.077,32 5.077,1 28.923,1 28.923,23.249 20.172,32 "/>
<polygon opacity="0.1" enable-background="new    " points="5.577,31.5 5.577,1.5 28.423,1.5 28.423,23.042 19.965,31.5 "/>
<polygon opacity="0.2" enable-background="new    " points="5.077,31 5.077,1 27.923,1 27.923,22.542 19.465,31 "/>
<polygon fill="#1B5E20" points="5.512,30.5 5.512,1.5 27.488,1.5 27.488,22.335 19.273,30.5 "/>
<g>
	<g>
		<g>
			<g>
				
					<linearGradient id="SVGID_1_" gradientUnits="userSpaceOnUse" x1="101.2012" y1="-575.3003" x2="101.2012" y2="-560.3008" gradientTransform="matrix(1 0 0 -1 -83.2002 -550.8008)">
					<stop  offset="0" style="stop-color:#388E3C"/>
					<stop  offset="0.0757" style="stop-color:#43953E"/>
					<stop  offset="0.3246" style="stop-color:#62A943"/>
					<stop  offset="0.5665" style="stop-color:#79B747"/>
					<stop  offset="0.796" style="stop-color:#86C049"/>
					<stop  offset="1" style="stop-color:#8BC34A"/>
				</linearGradient>
				<polygon fill="url(#SVGID_1_)" points="12.381,24.5 12.381,9.5 23.619,9.5 23.619,20.281 19.4,24.5 				"/>
			</g>
			<polygon fill="#1B5E20" fill-opacity="0.39" points="23.619,20.281 23.619,20.1 19.169,20.1 19.169,24.5 19.4,24.5 			"/>
			<path fill="#FFFFFF" fill-opacity="0.3922" d="M19.395,20.281l4.226,0.006L19.4,24.5L19.395,20.281z"/>
		</g>
		<path opacity="0.8" fill="#FFFFFF" enable-background="new    " d="M18.278,12.813V12.8h-0.556v0.013h-3.585V19.8h7.725v-6.987
			H18.278z M14.693,14.887h1.725v1.116h-1.725V14.887z M14.693,16.56h1.725v1.115h-1.725V16.56z M16.992,16.56h4.314v1.115h-4.314
			V16.56z M16.992,16.003v-1.116h4.314v1.116H16.992z M21.307,13.374v0.959h-4.314v-0.959H21.307z M16.418,13.374v0.959h-1.725
			v-0.959H16.418z M14.693,18.236h1.725v1.003h-1.725V18.236z M16.992,19.239v-1.003h4.314v1.003H16.992z"/>
	</g>
	<g>
		<rect x="12.378" y="9.5" opacity="0.8" fill="#FFFFFF" enable-background="new    " width="11.245" height="2.875"/>
		<g enable-background="new    ">
			<path fill="#388E3C" d="M16.503,12.042c-0.066-0.125-0.139-0.251-0.218-0.379c-0.079-0.128-0.17-0.236-0.272-0.325
				c-0.032,0.034-0.072,0.08-0.121,0.139c-0.049,0.06-0.098,0.123-0.146,0.189c-0.048,0.067-0.094,0.136-0.137,0.208
				s-0.074,0.128-0.095,0.168h-0.605c0.099-0.175,0.216-0.355,0.352-0.542c0.135-0.186,0.286-0.384,0.452-0.593l-0.77-1.105h0.644
				l0.449,0.649l0.459-0.649h0.605l-0.765,1.082c0.201,0.239,0.366,0.458,0.496,0.657c0.13,0.199,0.231,0.367,0.308,0.502H16.503z"
				/>
			<path fill="#388E3C" d="M19.02,11.608v0.433h-1.574V9.801h0.53v1.808H19.02z"/>
			<path fill="#388E3C" d="M20.061,11.657c0.076,0,0.137-0.006,0.186-0.018c0.049-0.012,0.088-0.028,0.117-0.049
				c0.031-0.021,0.051-0.044,0.063-0.073c0.012-0.028,0.018-0.059,0.018-0.094c0-0.073-0.037-0.134-0.109-0.183
				s-0.197-0.101-0.375-0.157c-0.076-0.026-0.154-0.056-0.23-0.089c-0.078-0.033-0.146-0.076-0.209-0.126
				c-0.061-0.051-0.111-0.112-0.148-0.185c-0.039-0.072-0.059-0.16-0.059-0.263c0-0.104,0.02-0.197,0.061-0.28
				s0.1-0.154,0.174-0.212c0.076-0.058,0.166-0.103,0.273-0.134c0.105-0.031,0.227-0.047,0.359-0.047
				c0.16,0,0.297,0.016,0.412,0.049c0.115,0.032,0.211,0.068,0.287,0.106l-0.154,0.398c-0.066-0.033-0.139-0.061-0.219-0.086
				c-0.082-0.025-0.178-0.037-0.291-0.037c-0.127,0-0.219,0.017-0.275,0.05c-0.055,0.033-0.082,0.084-0.082,0.153
				c0,0.041,0.01,0.076,0.029,0.104c0.021,0.028,0.051,0.053,0.088,0.076c0.037,0.022,0.08,0.043,0.129,0.061
				c0.049,0.019,0.104,0.038,0.162,0.057c0.123,0.043,0.229,0.086,0.32,0.128c0.09,0.042,0.166,0.091,0.227,0.147
				c0.059,0.056,0.104,0.122,0.133,0.197c0.029,0.076,0.045,0.167,0.045,0.275c0,0.209-0.076,0.371-0.23,0.486
				c-0.154,0.116-0.389,0.173-0.699,0.173c-0.104,0-0.197-0.006-0.281-0.018s-0.158-0.026-0.223-0.043
				c-0.066-0.017-0.121-0.036-0.168-0.055c-0.047-0.019-0.086-0.038-0.117-0.055l0.15-0.401c0.07,0.037,0.156,0.069,0.26,0.099
				C19.785,11.642,19.912,11.657,20.061,11.657z"/>
		</g>
	</g>
</g>
<g>
	<g>
		<g>
			<g>
				
					<linearGradient id="SVGID_2_" gradientUnits="userSpaceOnUse" x1="99.6992" y1="-580.8003" x2="99.6992" y2="-552.8008" gradientTransform="matrix(1 0 0 -1 -83.2002 -550.8008)">
					<stop  offset="0" style="stop-color:#388E3C"/>
					<stop  offset="0.0757" style="stop-color:#43953E"/>
					<stop  offset="0.3246" style="stop-color:#62A943"/>
					<stop  offset="0.5665" style="stop-color:#79B747"/>
					<stop  offset="0.796" style="stop-color:#86C049"/>
					<stop  offset="1" style="stop-color:#8BC34A"/>
				</linearGradient>
				<polygon fill="url(#SVGID_2_)" points="6.009,30 6.009,2 26.987,2 26.987,22.125 19.112,30 				"/>
			</g>
			<polygon fill="#1B5E20" fill-opacity="0.39" points="26.987,22.125 26.987,21.786 18.681,21.786 18.681,30 19.112,30 			"/>
			<path fill="#FFFFFF" fill-opacity="0.3922" d="M19.102,22.125l7.888,0.011L19.112,30L19.102,22.125z"/>
		</g>
		<path opacity="0.8" fill="#FFFFFF" enable-background="new    " d="M17.018,8.183V8.16H15.98v0.023H9.289v13.043h14.419V8.183
			H17.018z M10.326,12.056h3.22v2.083h-3.22V12.056z M10.326,15.178h3.22v2.082h-3.22V15.178z M14.617,15.178h8.054v2.082h-8.054
			V15.178z M14.617,14.14v-2.083h8.054v2.083H14.617z M22.671,9.23v1.791h-8.054V9.23H22.671z M13.546,9.23v1.791h-3.22V9.23H13.546
			z M10.326,18.308h3.22v1.872h-3.22V18.308z M14.617,20.18v-1.872h8.054v1.872H14.617z"/>
	</g>
	<g>
		<rect x="6.005" y="2" opacity="0.8" fill="#FFFFFF" enable-background="new    " width="20.99" height="5.367"/>
		<g enable-background="new    ">
			<path fill="#388E3C" d="M13.704,6.744c-0.124-0.233-0.26-0.468-0.407-0.708C13.15,5.797,12.98,5.596,12.79,5.43
				c-0.059,0.063-0.135,0.149-0.225,0.26c-0.091,0.111-0.182,0.229-0.273,0.353c-0.09,0.125-0.176,0.253-0.255,0.387
				c-0.08,0.134-0.138,0.239-0.177,0.314h-1.13c0.185-0.326,0.404-0.664,0.656-1.012c0.251-0.347,0.533-0.716,0.843-1.107
				l-1.436-2.063h1.201l0.838,1.211l0.858-1.211h1.13l-1.428,2.019c0.375,0.445,0.683,0.854,0.925,1.226
				c0.242,0.372,0.432,0.685,0.574,0.938H13.704z"/>
			<path fill="#388E3C" d="M18.401,5.936v0.809h-2.938V2.562h0.99v3.374H18.401z"/>
			<path fill="#388E3C" d="M20.345,6.026c0.143,0,0.255-0.011,0.347-0.033c0.091-0.023,0.164-0.053,0.219-0.091
				c0.058-0.038,0.095-0.083,0.116-0.136c0.022-0.052,0.033-0.11,0.033-0.175c0-0.137-0.069-0.251-0.204-0.341
				c-0.135-0.09-0.368-0.188-0.7-0.293c-0.143-0.048-0.288-0.104-0.431-0.166c-0.146-0.062-0.273-0.142-0.39-0.235
				c-0.113-0.095-0.208-0.209-0.277-0.345c-0.073-0.135-0.109-0.299-0.109-0.491c0-0.193,0.036-0.367,0.113-0.522
				c0.076-0.155,0.186-0.287,0.324-0.396c0.143-0.109,0.31-0.192,0.511-0.251c0.196-0.058,0.423-0.087,0.671-0.087
				c0.299,0,0.554,0.03,0.769,0.091c0.216,0.06,0.395,0.126,0.536,0.199l-0.288,0.743c-0.124-0.061-0.259-0.114-0.408-0.161
				c-0.153-0.046-0.332-0.069-0.543-0.069c-0.237,0-0.408,0.031-0.514,0.094c-0.103,0.062-0.153,0.158-0.153,0.286
				c0,0.077,0.018,0.141,0.055,0.193c0.04,0.052,0.095,0.099,0.164,0.142c0.069,0.042,0.149,0.08,0.24,0.114
				c0.091,0.035,0.193,0.07,0.303,0.106c0.229,0.081,0.427,0.16,0.598,0.239c0.168,0.078,0.311,0.169,0.423,0.274
				c0.109,0.104,0.193,0.228,0.248,0.368c0.055,0.141,0.084,0.312,0.084,0.513c0,0.39-0.143,0.692-0.43,0.908
				c-0.288,0.216-0.726,0.324-1.306,0.324c-0.193,0-0.368-0.012-0.525-0.034c-0.156-0.022-0.295-0.049-0.415-0.082
				c-0.124-0.032-0.227-0.066-0.313-0.103c-0.088-0.035-0.161-0.07-0.219-0.102l0.28-0.748c0.132,0.068,0.292,0.129,0.485,0.184
				C19.831,5.999,20.067,6.026,20.345,6.026z"/>
		</g>
	</g>
</g>
</svg>
