<?xml version="1.0" encoding="utf-8"?>
<!-- Generator: Adobe Illustrator 16.0.0, SVG Export Plug-In . SVG Version: 6.00 Build 0)  -->
<!DOCTYPE svg PUBLIC "-//W3C//DTD SVG 1.1//EN" "http://www.w3.org/Graphics/SVG/1.1/DTD/svg11.dtd">
<svg version="1.1" id="图层_1" xmlns="http://www.w3.org/2000/svg" xmlns:xlink="http://www.w3.org/1999/xlink" x="0px" y="0px"
	 width="32px" height="32px" viewBox="0 0 32 32" enable-background="new 0 0 32 32" xml:space="preserve">
<polygon opacity="0.08" enable-background="new    " points="5.077,32 5.077,1 28.923,1 28.923,23.249 20.172,32 "/>
<polygon opacity="0.1" enable-background="new    " points="5.577,31.5 5.577,1.5 28.423,1.5 28.423,23.042 19.965,31.5 "/>
<polygon opacity="0.2" enable-background="new    " points="5.077,31 5.077,1 27.923,1 27.923,22.542 19.465,31 "/>
<polygon fill="#E65100" points="5.512,30.5 5.512,1.604 27.488,1.604 27.488,22.364 19.274,30.5 "/>
<g>
	<g>
		<g>
			
				<linearGradient id="SVGID_1_" gradientUnits="userSpaceOnUse" x1="58.1006" y1="-161.8999" x2="58.1006" y2="-133.9004" gradientTransform="matrix(1 0 0 -1 -41.6001 -131.9004)">
				<stop  offset="0" style="stop-color:#EE6F0B"/>
				<stop  offset="1" style="stop-color:#FFB74D"/>
			</linearGradient>
			<polygon fill="url(#SVGID_1_)" points="6.011,30 6.011,2 26.989,2 26.989,22.125 19.114,30 			"/>
		</g>
		<polygon fill="#E65100" fill-opacity="0.3922" points="26.989,22.125 26.989,21.786 18.682,21.786 18.682,30 19.114,30 		"/>
		<path fill="#FFFFFF" fill-opacity="0.3922" d="M19.102,22.125l7.888,0.011L19.114,30L19.102,22.125z"/>
	</g>
	<g opacity="0.8">
		<rect x="8.742" y="12.779" fill="#FFFFFF" width="2.24" height="11.224"/>
		<rect x="12.476" y="18.379" fill="#FFFFFF" width="2.24" height="5.611"/>
		<rect x="16.197" y="20.665" fill="#FFFFFF" width="2.24" height="3.361"/>
		<g>
			<path fill="#FFFFFF" d="M19.241,10.795l0.024,4.468l4.468-0.024c0.013,2.473-1.983,4.481-4.457,4.492
				c-2.472,0.013-4.479-1.983-4.492-4.455C14.773,12.813,16.768,10.807,19.241,10.795z"/>
			<path fill="#FFFFFF" d="M19.767,10.282c2.474-0.011,4.48,1.983,4.492,4.457l-4.469,0.023L19.767,10.282z"/>
		</g>
	</g>
	<g>
		<rect x="6.006" y="2" opacity="0.8" fill="#FFFFFF" enable-background="new    " width="20.988" height="5.367"/>
		<g enable-background="new    ">
			<path fill="#E64A19" d="M12.056,2.514c0.658,0,1.161,0.109,1.514,0.328c0.352,0.219,0.526,0.58,0.526,1.077
				c0,0.503-0.177,0.866-0.534,1.088c-0.355,0.224-0.864,0.335-1.523,0.335h-0.313v1.4h-0.989V2.622
				c0.215-0.04,0.442-0.067,0.686-0.084C11.662,2.521,11.874,2.514,12.056,2.514z M12.12,3.316c-0.071,0-0.143,0.002-0.212,0.007
				c-0.071,0.004-0.131,0.007-0.183,0.011v1.207h0.313c0.343,0,0.602-0.043,0.774-0.133s0.261-0.253,0.261-0.494
				c0-0.117-0.021-0.213-0.067-0.29c-0.044-0.076-0.107-0.138-0.189-0.184c-0.082-0.047-0.185-0.078-0.303-0.097
				C12.396,3.325,12.264,3.316,12.12,3.316z"/>
			<path fill="#E64A19" d="M16.146,2.514c0.658,0,1.161,0.109,1.513,0.328s0.529,0.58,0.529,1.077c0,0.503-0.179,0.866-0.536,1.088
				c-0.354,0.224-0.864,0.335-1.524,0.335h-0.31v1.4h-0.992V2.622c0.216-0.04,0.445-0.067,0.686-0.084
				C15.753,2.521,15.964,2.514,16.146,2.514z M16.212,3.316c-0.073,0-0.144,0.002-0.213,0.007c-0.071,0.004-0.13,0.007-0.181,0.011
				v1.207h0.31c0.343,0,0.602-0.043,0.776-0.133c0.172-0.089,0.259-0.253,0.259-0.494c0-0.117-0.021-0.213-0.065-0.29
				c-0.044-0.076-0.109-0.138-0.191-0.184c-0.082-0.047-0.184-0.078-0.301-0.097C16.485,3.325,16.354,3.316,16.212,3.316z"/>
			<path fill="#E64A19" d="M22.264,2.562v0.802h-1.327v3.379h-0.991V3.364h-1.327V2.562H22.264z"/>
		</g>
	</g>
</g>
</svg>
