<?xml version="1.0" encoding="utf-8"?>
<!-- Generator: Adobe Illustrator 16.0.0, SVG Export Plug-In . SVG Version: 6.00 Build 0)  -->
<!DOCTYPE svg PUBLIC "-//W3C//DTD SVG 1.1//EN" "http://www.w3.org/Graphics/SVG/1.1/DTD/svg11.dtd">
<svg version="1.1" id="图层_1" xmlns="http://www.w3.org/2000/svg" xmlns:xlink="http://www.w3.org/1999/xlink" x="0px" y="0px"
	 width="32px" height="32px" viewBox="0 0 32 32" enable-background="new 0 0 32 32" xml:space="preserve">
<rect x="5.012" y="1" opacity="0.1" enable-background="new    " width="23.976" height="31"/>
<rect x="5.512" y="1.5" opacity="0.1" enable-background="new    " width="22.976" height="30"/>
<rect x="5.012" y="1" opacity="0.2" enable-background="new    " width="22.976" height="30"/>
<rect x="5.512" y="1.5" fill="#0D47A1" width="21.976" height="29"/>
<g>
	<linearGradient id="SVGID_1_" gradientUnits="userSpaceOnUse" x1="16.501" y1="2" x2="16.501" y2="30.0005">
		<stop  offset="0" style="stop-color:#64B5F6"/>
		<stop  offset="1" style="stop-color:#3F51B5"/>
	</linearGradient>
	<rect x="6.012" y="2" fill="url(#SVGID_1_)" width="20.979" height="28"/>
	<g opacity="0.8">
		<rect x="8.719" y="13.074" opacity="0.8" fill="#FFFFFF" enable-background="new    " width="15.553" height="0.768"/>
		<rect x="8.719" y="10.67" opacity="0.8" fill="#FFFFFF" enable-background="new    " width="15.553" height="0.771"/>
		<rect x="16.14" y="15.336" opacity="0.8" fill="#FFFFFF" enable-background="new    " width="8.122" height="8.123"/>
		<g opacity="0.8">
			<rect x="8.719" y="15.475" fill="#FFFFFF" width="6.756" height="0.773"/>
			<rect x="8.719" y="17.881" fill="#FFFFFF" width="6.756" height="0.77"/>
			<rect x="8.719" y="20.295" fill="#FFFFFF" width="6.756" height="0.77"/>
			<rect x="8.719" y="22.697" fill="#FFFFFF" width="6.756" height="0.77"/>
		</g>
	</g>
	<g>
		<rect x="6.006" y="2" opacity="0.8" fill="#FFFFFF" enable-background="new    " width="20.988" height="5.367"/>
		<g enable-background="new    ">
			<path fill="#236FB7" d="M13.947,4.68c0,0.365-0.06,0.678-0.179,0.948c-0.118,0.27-0.288,0.494-0.505,0.671
				s-0.482,0.31-0.796,0.397c-0.314,0.089-0.666,0.135-1.056,0.135c-0.177,0-0.385-0.007-0.622-0.021
				c-0.236-0.015-0.47-0.044-0.7-0.088V2.647c0.23-0.04,0.467-0.067,0.715-0.082s0.461-0.021,0.638-0.021
				c0.38,0,0.721,0.04,1.028,0.122c0.307,0.08,0.569,0.206,0.791,0.381C13.48,3.218,13.65,3.44,13.768,3.71
				C13.887,3.979,13.947,4.302,13.947,4.68z M11.082,6.009c0.047,0.005,0.101,0.007,0.162,0.009
				c0.061,0.002,0.133,0.004,0.219,0.004c0.496,0,0.862-0.121,1.103-0.357c0.239-0.237,0.357-0.565,0.357-0.984
				c0-0.438-0.113-0.769-0.343-0.995c-0.228-0.225-0.591-0.337-1.086-0.337c-0.065,0-0.137,0.002-0.208,0.002
				c-0.073,0.003-0.141,0.007-0.204,0.016V6.009z"/>
			<path fill="#236FB7" d="M18.965,4.68c0,0.359-0.057,0.674-0.168,0.946c-0.111,0.271-0.268,0.498-0.461,0.682
				c-0.195,0.184-0.426,0.321-0.695,0.414c-0.27,0.091-0.559,0.139-0.867,0.139c-0.3,0-0.584-0.047-0.85-0.139
				c-0.269-0.093-0.5-0.229-0.7-0.414c-0.199-0.184-0.355-0.41-0.471-0.682c-0.112-0.272-0.171-0.587-0.171-0.946
				c0-0.357,0.06-0.671,0.179-0.944c0.118-0.27,0.277-0.5,0.479-0.686c0.202-0.184,0.434-0.322,0.698-0.416
				c0.266-0.091,0.543-0.139,0.835-0.139c0.301,0,0.584,0.048,0.852,0.139c0.268,0.093,0.5,0.231,0.699,0.416
				c0.199,0.186,0.355,0.416,0.471,0.686C18.908,4.009,18.965,4.322,18.965,4.68z M15.606,4.68c0,0.206,0.025,0.392,0.078,0.556
				c0.053,0.166,0.13,0.308,0.229,0.425c0.1,0.12,0.222,0.211,0.364,0.277C16.422,6,16.586,6.032,16.773,6.032
				c0.182,0,0.346-0.033,0.492-0.095c0.146-0.065,0.27-0.157,0.369-0.277c0.1-0.117,0.176-0.259,0.229-0.425
				c0.053-0.164,0.08-0.35,0.08-0.556c0-0.204-0.027-0.39-0.08-0.558c-0.053-0.166-0.129-0.31-0.229-0.427
				c-0.1-0.12-0.223-0.211-0.369-0.277c-0.146-0.062-0.311-0.095-0.492-0.095c-0.188,0-0.351,0.033-0.497,0.099
				c-0.143,0.067-0.265,0.161-0.364,0.277c-0.099,0.121-0.176,0.263-0.229,0.431C15.631,4.297,15.606,4.479,15.606,4.68z"/>
			<path fill="#236FB7" d="M22.91,2.592v0.804h-1.328v3.379h-0.99V3.396h-1.33V2.592H22.91z"/>
		</g>
	</g>
</g>
</svg>
