<?xml version="1.0" encoding="utf-8"?>
<!-- Generator: Adobe Illustrator 16.0.0, SVG Export Plug-In . SVG Version: 6.00 Build 0)  -->
<!DOCTYPE svg PUBLIC "-//W3C//DTD SVG 1.1//EN" "http://www.w3.org/Graphics/SVG/1.1/DTD/svg11.dtd">
<svg version="1.1" id="图层_1" xmlns="http://www.w3.org/2000/svg" xmlns:xlink="http://www.w3.org/1999/xlink" x="0px" y="0px"
	 width="32px" height="32px" viewBox="0 0 32 32" enable-background="new 0 0 32 32" xml:space="preserve">
<polygon opacity="0.08" enable-background="new    " points="5.077,32 5.077,1 28.923,1 28.923,23.249 20.172,32 "/>
<polygon opacity="0.1" enable-background="new    " points="5.577,31.5 5.577,1.5 28.423,1.5 28.423,23.042 19.965,31.5 "/>
<polygon opacity="0.2" enable-background="new    " points="5.077,31 5.077,1 27.923,1 27.923,22.542 19.465,31 "/>
<polygon fill="#0D47A1" points="5.512,30.5 5.512,1.5 27.488,1.5 27.488,22.335 19.273,30.5 "/>
<g>
	<g>
		<g>
			<g>
				<linearGradient id="SVGID_1_" gradientUnits="userSpaceOnUse" x1="16.5098" y1="30" x2="16.5098" y2="2.0005">
					<stop  offset="0" style="stop-color:#3F51B5"/>
					<stop  offset="1" style="stop-color:#64B5F6"/>
				</linearGradient>
				<polygon fill="url(#SVGID_1_)" points="6.02,30 6.02,2 26.999,2 26.999,22.125 19.124,30 				"/>
			</g>
			<polygon fill="#2196F3" fill-opacity="0.7" points="26.999,22.125 26.999,21.786 18.691,21.786 18.691,30 19.124,30 			"/>
			<path opacity="0.39" fill="#FFFFFF" d="M19.112,22.125L27,22.136L19.124,30L19.112,22.125z"/>
		</g>
		<g opacity="0.8">
			<linearGradient id="SVGID_2_" gradientUnits="userSpaceOnUse" x1="9.1299" y1="11.5518" x2="23.8779" y2="11.5518">
				<stop  offset="0" style="stop-color:#F6F5F5"/>
				<stop  offset="0.341" style="stop-color:#F1F2F3"/>
				<stop  offset="0.6434" style="stop-color:#E7EAEB"/>
				<stop  offset="0.9302" style="stop-color:#D5DBDF"/>
				<stop  offset="1" style="stop-color:#CFD7DB"/>
			</linearGradient>
			<rect x="9.13" y="11.187" opacity="0.8" fill="url(#SVGID_2_)" enable-background="new    " width="14.748" height="0.729"/>
			<linearGradient id="SVGID_3_" gradientUnits="userSpaceOnUse" x1="9.1299" y1="9.2725" x2="23.8779" y2="9.2725">
				<stop  offset="0" style="stop-color:#F6F5F5"/>
				<stop  offset="0.341" style="stop-color:#F1F2F3"/>
				<stop  offset="0.6434" style="stop-color:#E7EAEB"/>
				<stop  offset="0.9302" style="stop-color:#D5DBDF"/>
				<stop  offset="1" style="stop-color:#CFD7DB"/>
			</linearGradient>
			<rect x="9.13" y="8.907" opacity="0.8" fill="url(#SVGID_3_)" enable-background="new    " width="14.748" height="0.731"/>
			<linearGradient id="SVGID_4_" gradientUnits="userSpaceOnUse" x1="16.167" y1="17.1807" x2="23.8662" y2="17.1807">
				<stop  offset="0" style="stop-color:#F6F5F5"/>
				<stop  offset="0.341" style="stop-color:#F1F2F3"/>
				<stop  offset="0.6434" style="stop-color:#E7EAEB"/>
				<stop  offset="0.9302" style="stop-color:#D5DBDF"/>
				<stop  offset="1" style="stop-color:#CFD7DB"/>
			</linearGradient>
			<rect x="16.167" y="13.332" opacity="0.8" fill="url(#SVGID_4_)" enable-background="new    " width="7.699" height="7.699"/>
			<g opacity="0.8">
				<linearGradient id="SVGID_5_" gradientUnits="userSpaceOnUse" x1="9.1299" y1="13.8301" x2="15.5361" y2="13.8301">
					<stop  offset="0" style="stop-color:#F6F5F5"/>
					<stop  offset="0.341" style="stop-color:#F1F2F3"/>
					<stop  offset="0.6434" style="stop-color:#E7EAEB"/>
					<stop  offset="0.9302" style="stop-color:#D5DBDF"/>
					<stop  offset="1" style="stop-color:#CFD7DB"/>
				</linearGradient>
				<rect x="9.13" y="13.464" fill="url(#SVGID_5_)" width="6.406" height="0.731"/>
				<linearGradient id="SVGID_6_" gradientUnits="userSpaceOnUse" x1="9.1299" y1="16.1094" x2="15.5361" y2="16.1094">
					<stop  offset="0" style="stop-color:#F6F5F5"/>
					<stop  offset="0.341" style="stop-color:#F1F2F3"/>
					<stop  offset="0.6434" style="stop-color:#E7EAEB"/>
					<stop  offset="0.9302" style="stop-color:#D5DBDF"/>
					<stop  offset="1" style="stop-color:#CFD7DB"/>
				</linearGradient>
				<rect x="9.13" y="15.745" fill="url(#SVGID_6_)" width="6.406" height="0.729"/>
				<linearGradient id="SVGID_7_" gradientUnits="userSpaceOnUse" x1="9.1299" y1="18.3975" x2="15.5361" y2="18.3975">
					<stop  offset="0" style="stop-color:#F6F5F5"/>
					<stop  offset="0.341" style="stop-color:#F1F2F3"/>
					<stop  offset="0.6434" style="stop-color:#E7EAEB"/>
					<stop  offset="0.9302" style="stop-color:#D5DBDF"/>
					<stop  offset="1" style="stop-color:#CFD7DB"/>
				</linearGradient>
				<rect x="9.13" y="18.033" fill="url(#SVGID_7_)" width="6.406" height="0.729"/>
				<linearGradient id="SVGID_8_" gradientUnits="userSpaceOnUse" x1="9.1299" y1="20.6758" x2="15.5361" y2="20.6758">
					<stop  offset="0" style="stop-color:#F6F5F5"/>
					<stop  offset="0.341" style="stop-color:#F1F2F3"/>
					<stop  offset="0.6434" style="stop-color:#E7EAEB"/>
					<stop  offset="0.9302" style="stop-color:#D5DBDF"/>
					<stop  offset="1" style="stop-color:#CFD7DB"/>
				</linearGradient>
				<rect x="9.13" y="20.311" fill="url(#SVGID_8_)" width="6.406" height="0.729"/>
			</g>
		</g>
	</g>
	<g>
		<rect x="6" y="2" opacity="0.8" fill="#FFFFFF" width="20.989" height="5.367"/>
		<g>
			<path fill="#1976D2" d="M13.95,4.68c0,0.363-0.06,0.679-0.178,0.948c-0.119,0.27-0.288,0.493-0.506,0.67
				c-0.217,0.177-0.482,0.31-0.798,0.398c-0.313,0.088-0.664,0.133-1.055,0.133c-0.177,0-0.386-0.008-0.622-0.022
				c-0.237-0.014-0.469-0.043-0.698-0.087V2.647c0.229-0.04,0.468-0.067,0.715-0.082c0.249-0.014,0.46-0.021,0.638-0.021
				c0.378,0,0.721,0.04,1.027,0.121c0.308,0.08,0.57,0.207,0.789,0.38c0.222,0.173,0.391,0.395,0.51,0.664
				C13.891,3.979,13.95,4.302,13.95,4.68z M11.086,6.008c0.046,0.005,0.099,0.007,0.161,0.009c0.062,0.002,0.135,0.002,0.219,0.002
				c0.495,0,0.863-0.118,1.102-0.355c0.24-0.237,0.359-0.565,0.359-0.984c0-0.438-0.114-0.77-0.342-0.995
				c-0.229-0.225-0.592-0.338-1.088-0.338c-0.067,0-0.138,0.001-0.208,0.002c-0.073,0.003-0.141,0.008-0.203,0.016V6.008z"/>
			<path fill="#1976D2" d="M18.97,4.68c0,0.359-0.059,0.674-0.172,0.945c-0.109,0.271-0.262,0.499-0.458,0.682
				c-0.194,0.184-0.427,0.321-0.696,0.414c-0.269,0.092-0.559,0.139-0.866,0.139c-0.301,0-0.586-0.047-0.852-0.139
				c-0.267-0.092-0.499-0.23-0.699-0.414c-0.198-0.183-0.355-0.41-0.469-0.682c-0.114-0.271-0.172-0.586-0.172-0.945
				c0-0.358,0.06-0.672,0.177-0.944c0.12-0.271,0.279-0.5,0.479-0.686c0.2-0.184,0.435-0.324,0.7-0.416
				c0.265-0.093,0.541-0.139,0.835-0.139c0.301,0,0.585,0.046,0.852,0.139c0.266,0.092,0.499,0.231,0.699,0.416
				c0.196,0.186,0.354,0.414,0.47,0.686C18.911,4.008,18.97,4.322,18.97,4.68z M15.609,4.68c0,0.205,0.024,0.392,0.079,0.556
				c0.051,0.166,0.128,0.307,0.229,0.425c0.1,0.119,0.22,0.21,0.364,0.275c0.145,0.063,0.31,0.096,0.496,0.096
				c0.183,0,0.347-0.033,0.492-0.096c0.147-0.065,0.269-0.156,0.368-0.275c0.101-0.119,0.176-0.26,0.229-0.425
				c0.055-0.165,0.079-0.351,0.079-0.556s-0.024-0.391-0.079-0.557c-0.053-0.167-0.128-0.31-0.229-0.428
				c-0.1-0.119-0.221-0.211-0.368-0.275c-0.146-0.064-0.31-0.097-0.492-0.097c-0.187,0-0.352,0.034-0.496,0.1
				C16.137,3.49,16.017,3.582,15.917,3.7c-0.101,0.119-0.178,0.262-0.229,0.429C15.634,4.296,15.609,4.48,15.609,4.68z"/>
			<path fill="#1976D2" d="M21.801,6.86c-0.716,0-1.262-0.189-1.636-0.567c-0.375-0.378-0.563-0.916-0.563-1.612
				c0-0.345,0.059-0.654,0.171-0.926c0.116-0.271,0.272-0.501,0.472-0.688c0.197-0.187,0.435-0.329,0.712-0.426
				c0.274-0.096,0.573-0.145,0.895-0.145c0.187,0,0.355,0.014,0.509,0.039c0.151,0.026,0.287,0.057,0.4,0.091
				c0.114,0.034,0.209,0.069,0.285,0.105c0.076,0.036,0.131,0.063,0.166,0.084l-0.286,0.761c-0.137-0.068-0.293-0.127-0.474-0.175
				c-0.182-0.048-0.385-0.073-0.612-0.073c-0.153,0-0.304,0.025-0.449,0.073c-0.146,0.048-0.274,0.125-0.387,0.231
				c-0.112,0.107-0.202,0.245-0.27,0.414c-0.069,0.168-0.102,0.375-0.102,0.615c0,0.193,0.022,0.374,0.065,0.541
				c0.045,0.167,0.117,0.311,0.217,0.432c0.098,0.121,0.229,0.216,0.39,0.287c0.161,0.07,0.355,0.105,0.586,0.105
				c0.144,0,0.273-0.008,0.387-0.025c0.114-0.015,0.216-0.035,0.306-0.056c0.088-0.022,0.166-0.047,0.234-0.076
				c0.068-0.028,0.128-0.055,0.186-0.078l0.273,0.754c-0.141,0.081-0.338,0.153-0.593,0.218C22.43,6.827,22.137,6.86,21.801,6.86z"
				/>
		</g>
	</g>
</g>
</svg>
