<?xml version="1.0" encoding="utf-8"?>
<!-- Generator: Adobe Illustrator 16.0.0, SVG Export Plug-In . SVG Version: 6.00 Build 0)  -->
<!DOCTYPE svg PUBLIC "-//W3C//DTD SVG 1.1//EN" "http://www.w3.org/Graphics/SVG/1.1/DTD/svg11.dtd">
<svg version="1.1" id="图层_1" xmlns="http://www.w3.org/2000/svg" xmlns:xlink="http://www.w3.org/1999/xlink" x="0px" y="0px"
	 width="32px" height="32px" viewBox="0 0 32 32" enable-background="new 0 0 32 32" xml:space="preserve">
<rect x="5.012" y="1" opacity="0.1" enable-background="new    " width="23.976" height="31"/>
<rect x="5.512" y="1.5" opacity="0.1" enable-background="new    " width="22.976" height="30"/>
<rect x="5.012" y="1" opacity="0.2" enable-background="new    " width="22.976" height="30"/>
<rect x="5.512" y="1.5" fill="#E65100" width="21.976" height="29"/>
<g>
	
		<linearGradient id="SVGID_1_" gradientUnits="userSpaceOnUse" x1="99.6992" y1="854.8008" x2="99.6992" y2="826.8008" gradientTransform="matrix(1 0 0 1 -83.2002 -824.8008)">
		<stop  offset="0" style="stop-color:#EE6F0B"/>
		<stop  offset="1" style="stop-color:#FFB74D"/>
	</linearGradient>
	<rect x="6.011" y="2" fill="url(#SVGID_1_)" width="20.979" height="28"/>
	<g opacity="0.8">
		<rect x="8.743" y="12.778" fill="#FFFFFF" width="2.239" height="11.225"/>
		<rect x="12.476" y="18.379" fill="#FFFFFF" width="2.24" height="5.611"/>
		<rect x="16.197" y="20.665" fill="#FFFFFF" width="2.238" height="3.361"/>
		<g>
			<path fill="#FFFFFF" d="M19.241,10.796l0.026,4.467l4.468-0.022c0.013,2.471-1.985,4.479-4.457,4.49
				c-2.476,0.015-4.48-1.983-4.494-4.455C14.773,12.813,16.77,10.808,19.241,10.796z"/>
			<path fill="#FFFFFF" d="M19.767,10.281c2.474-0.011,4.48,1.984,4.492,4.458l-4.467,0.025L19.767,10.281z"/>
		</g>
	</g>
	<g>
		<rect x="6.006" y="2" opacity="0.8" fill="#FFFFFF" enable-background="new    " width="20.988" height="5.367"/>
		<g enable-background="new    ">
			<path fill="#E64A19" d="M11.706,2.513c0.658,0,1.161,0.11,1.513,0.329c0.353,0.22,0.527,0.579,0.527,1.077
				c0,0.503-0.177,0.866-0.534,1.089c-0.355,0.223-0.864,0.335-1.524,0.335h-0.312v1.399h-0.99V2.622
				c0.216-0.04,0.443-0.068,0.686-0.084C11.313,2.521,11.523,2.513,11.706,2.513z M11.77,3.316c-0.071,0-0.142,0.002-0.211,0.007
				c-0.071,0.003-0.132,0.007-0.183,0.012v1.207h0.312c0.343,0,0.602-0.043,0.775-0.133c0.173-0.088,0.261-0.253,0.261-0.495
				c0-0.117-0.022-0.212-0.068-0.289c-0.043-0.076-0.107-0.138-0.189-0.184c-0.082-0.046-0.184-0.078-0.303-0.097
				C12.045,3.325,11.914,3.316,11.77,3.316z"/>
			<path fill="#E64A19" d="M18.669,4.649c0,0.358-0.057,0.674-0.167,0.945c-0.113,0.271-0.267,0.5-0.462,0.682
				c-0.194,0.183-0.426,0.321-0.696,0.412c-0.268,0.095-0.558,0.141-0.865,0.141c-0.301,0-0.586-0.046-0.852-0.141
				c-0.269-0.091-0.5-0.229-0.7-0.412c-0.198-0.182-0.355-0.41-0.469-0.682c-0.114-0.271-0.173-0.587-0.173-0.945
				c0-0.358,0.061-0.672,0.179-0.944c0.118-0.272,0.279-0.5,0.479-0.686c0.202-0.185,0.434-0.324,0.7-0.416
				c0.264-0.093,0.541-0.14,0.835-0.14c0.299,0,0.583,0.046,0.849,0.14c0.269,0.092,0.5,0.23,0.7,0.416
				c0.199,0.186,0.355,0.414,0.471,0.686C18.611,3.977,18.669,4.292,18.669,4.649z M15.31,4.649c0,0.205,0.025,0.391,0.078,0.555
				c0.053,0.166,0.13,0.307,0.23,0.426c0.098,0.119,0.22,0.21,0.364,0.274c0.144,0.065,0.31,0.098,0.496,0.098
				c0.182,0,0.346-0.033,0.492-0.098c0.146-0.064,0.268-0.155,0.368-0.274c0.098-0.119,0.175-0.26,0.228-0.426
				c0.053-0.164,0.08-0.35,0.08-0.555s-0.027-0.391-0.08-0.558s-0.13-0.31-0.228-0.428c-0.101-0.119-0.223-0.211-0.368-0.275
				c-0.146-0.064-0.311-0.097-0.492-0.097c-0.187,0-0.353,0.034-0.496,0.1c-0.145,0.067-0.267,0.159-0.364,0.277
				c-0.101,0.119-0.178,0.262-0.23,0.428C15.335,4.265,15.31,4.449,15.31,4.649z"/>
			<path fill="#E64A19" d="M22.614,2.562v0.803h-1.329v3.379h-0.99V3.364h-1.328V2.562H22.614z"/>
		</g>
	</g>
</g>
</svg>
