<?xml version="1.0" encoding="utf-8"?>
<!-- Generator: Adobe Illustrator 16.0.0, SVG Export Plug-In . SVG Version: 6.00 Build 0)  -->
<!DOCTYPE svg PUBLIC "-//W3C//DTD SVG 1.1//EN" "http://www.w3.org/Graphics/SVG/1.1/DTD/svg11.dtd">
<svg version="1.1" id="图层_1" xmlns="http://www.w3.org/2000/svg" xmlns:xlink="http://www.w3.org/1999/xlink" x="0px" y="0px"
	 width="32px" height="32px" viewBox="0 0 32 32" enable-background="new 0 0 32 32" xml:space="preserve">
<polygon opacity="0.08" enable-background="new    " points="5.077,32 5.077,1 28.923,1 28.923,23.249 20.172,32 "/>
<polygon opacity="0.1" enable-background="new    " points="5.577,31.5 5.577,1.5 28.423,1.5 28.423,23.042 19.965,31.5 "/>
<polygon opacity="0.2" enable-background="new    " points="5.077,31 5.077,1 27.923,1 27.923,22.542 19.465,31 "/>
<polygon fill="#1B5E20" points="5.512,30.5 5.512,1.5 27.488,1.5 27.488,22.335 19.273,30.5 "/>
<g>
	<g>
		<g>
			<g>
				<g>
					
						<linearGradient id="SVGID_1_" gradientUnits="userSpaceOnUse" x1="99.6992" y1="-580.8003" x2="99.6992" y2="-552.8008" gradientTransform="matrix(1 0 0 -1 -83.2002 -550.8008)">
						<stop  offset="0" style="stop-color:#388E3C"/>
						<stop  offset="0.0757" style="stop-color:#43953E"/>
						<stop  offset="0.3246" style="stop-color:#62A943"/>
						<stop  offset="0.5665" style="stop-color:#79B747"/>
						<stop  offset="0.796" style="stop-color:#86C049"/>
						<stop  offset="1" style="stop-color:#8BC34A"/>
					</linearGradient>
					<polygon fill="url(#SVGID_1_)" points="6.009,30 6.009,2 26.987,2 26.987,22.125 19.112,30 					"/>
				</g>
				<polygon fill="#1B5E20" fill-opacity="0.39" points="26.987,22.125 26.987,21.786 18.681,21.786 18.681,30 19.112,30 				"/>
				<path fill="#FFFFFF" fill-opacity="0.3922" d="M19.102,22.125l7.888,0.011L19.112,30L19.102,22.125z"/>
			</g>
			<path opacity="0.8" fill="#FFFFFF" enable-background="new    " d="M17.018,8.183V8.16H15.98v0.023H9.289v13.043h14.419V8.183
				H17.018z M10.326,12.056h3.22v2.083h-3.22V12.056z M10.326,15.178h3.22v2.082h-3.22V15.178z M14.617,15.178h8.054v2.082h-8.054
				V15.178z M14.617,14.14v-2.083h8.054v2.083H14.617z M22.671,9.23v1.791h-8.054V9.23H22.671z M13.546,9.23v1.791h-3.22V9.23
				H13.546z M10.326,18.308h3.22v1.872h-3.22V18.308z M14.617,20.18v-1.872h8.054v1.872H14.617z"/>
		</g>
	</g>
	<g>
		<rect x="6.005" y="2" opacity="0.8" fill="#FFFFFF" enable-background="new    " width="20.99" height="5.367"/>
		<g enable-background="new    ">
			<path fill="#38883B" d="M12.181,6.743V2.562h2.973v0.791h-1.982v0.82h1.76v0.773h-1.76v1.008h2.128v0.789H12.181z"/>
			<path fill="#38883B" d="M20.818,2.562v0.802h-1.327v3.379H18.5V3.364h-1.327V2.562H20.818z"/>
		</g>
	</g>
</g>
</svg>
