<?xml version="1.0" encoding="utf-8"?>
<!-- Generator: Adobe Illustrator 21.0.0, SVG Export Plug-In . SVG Version: 6.00 Build 0)  -->
<svg version="1.1" id="图层_2" opacity="0.8" xmlns="http://www.w3.org/2000/svg" xmlns:xlink="http://www.w3.org/1999/xlink"
	 x="0px" y="0px" viewBox="0 0 16 16" style="enable-background:new 0 0 16 16;" xml:space="preserve">
<style type="text/css">
	.st0{fill:#1F2022;}
</style>
<g>
	<path class="st0" d="M11,7c0.6,0,1,0.4,1,1v6c0,0.6-0.4,1-1,1H2c-0.6,0-1-0.4-1-1V8c0-0.6,0.4-1,1-1H11 M11,6H2C0.9,6,0,6.9,0,8v6
		c0,1.1,0.9,2,2,2h9c1.1,0,2-0.9,2-2V8C13,6.9,12.1,6,11,6L11,6z"/>
</g>
<polygon class="st0" points="16,8 12.5,9.6 12.5,12.4 16,14 "/>
<g>
	<path class="st0" d="M4,2c1.1,0,2,0.9,2,2S5.1,6,4,6S2,5.1,2,4S2.9,2,4,2 M4,1C2.3,1,1,2.4,1,4s1.3,3,3,3s3-1.4,3-3S5.7,1,4,1L4,1z
		"/>
</g>
<g>
	<path class="st0" d="M8.5,3C9.3,3,10,3.7,10,4.5S9.3,6,8.5,6S7,5.3,7,4.5S7.7,3,8.5,3 M8.5,2C7.1,2,6,3.1,6,4.5S7.1,7,8.5,7
		S11,5.9,11,4.5S9.9,2,8.5,2L8.5,2z"/>
</g>
</svg>
