<?xml version="1.0" encoding="utf-8"?>
<!-- Generator: Adobe Illustrator 24.0.0, SVG Export Plug-In . SVG Version: 6.00 Build 0)  -->
<!DOCTYPE svg PUBLIC "-//W3C//DTD SVG 1.1//EN" "http://www.w3.org/Graphics/SVG/1.1/DTD/svg11.dtd" [
	<!ENTITY st0 "fill:url(#SVGID_1_);">
	<!ENTITY st1 "fill:#353535;">
	<!ENTITY st2 "fill:none;stroke:url(#SVGID_2_);stroke-width:0.301;stroke-miterlimit:10;">
	<!ENTITY st3 "fill:url(#SVGID_3_);">
	<!ENTITY st4 "opacity:0.4;fill:url(#SVGID_4_);enable-background:new    ;">
]>
<svg version="1.1" id="图层_2_1_" xmlns="http://www.w3.org/2000/svg" xmlns:xlink="http://www.w3.org/1999/xlink" x="0px"
	 y="0px" viewBox="0 0 96 96" style="enable-background:new 0 0 96 96;" xml:space="preserve">
<g id="_x39_6_3_">
	
		<linearGradient id="SVGID_1_" gradientUnits="userSpaceOnUse" x1="48" y1="-3.9242" x2="48" y2="-8.7838" gradientTransform="matrix(1 0 0 1 0 82)">
		<stop  offset="0" style="stop-color:#333333"/>
		<stop  offset="0.4731" style="stop-color:#7D7D7D"/>
		<stop  offset="0.9202" style="stop-color:#1A1A1A"/>
	</linearGradient>
	<rect x="38" y="73" style="&st0;" width="20" height="6"/>
	<path style="&st1;" d="M75,83H21v-3c0-0.6,0.4-1,1-1h52c0.6,0,1,0.4,1,1V83z"/>
	
		<linearGradient id="SVGID_2_" gradientUnits="userSpaceOnUse" x1="21.2495" y1="-2.5752" x2="74.7505" y2="-2.5752" gradientTransform="matrix(1 0 0 1 0 82)">
		<stop  offset="0" style="stop-color:#000000"/>
		<stop  offset="3.815036e-02" style="stop-color:#151515"/>
		<stop  offset="0.1705" style="stop-color:#5B5B5B"/>
		<stop  offset="0.2899" style="stop-color:#929292"/>
		<stop  offset="0.392" style="stop-color:#BABABA"/>
		<stop  offset="0.4728" style="stop-color:#D2D2D2"/>
		<stop  offset="0.5223" style="stop-color:#DBDBDB"/>
		<stop  offset="0.5676" style="stop-color:#D2D2D2"/>
		<stop  offset="0.6415" style="stop-color:#BABABA"/>
		<stop  offset="0.7349" style="stop-color:#929292"/>
		<stop  offset="0.844" style="stop-color:#5B5B5B"/>
		<stop  offset="0.9651" style="stop-color:#151515"/>
		<stop  offset="1" style="stop-color:#000000"/>
	</linearGradient>
	<path style="&st2;" d="M21.4,79.8c0-0.3,0.3-0.6,0.6-0.6h52c0.3,0,0.6,0.3,0.6,0.6"/>
	<g>
		
			<linearGradient id="SVGID_3_" gradientUnits="userSpaceOnUse" x1="75.2756" y1="-18.6281" x2="20.1034" y2="-56.8015" gradientTransform="matrix(1 0 0 1 0 82)">
			<stop  offset="0.5" style="stop-color:#3FA9F5"/>
			<stop  offset="0.5023" style="stop-color:#3FA0F5"/>
		</linearGradient>
		<rect x="7" y="17" style="&st3;" width="82" height="55"/>
	</g>
	
		<linearGradient id="SVGID_4_" gradientUnits="userSpaceOnUse" x1="48" y1="-15.2389" x2="48" y2="-58.9021" gradientTransform="matrix(1 0 0 1 0 82)">
		<stop  offset="8.463007e-02" style="stop-color:#377ECC;stop-opacity:0.8"/>
		<stop  offset="0.9037" style="stop-color:#8CFFE6"/>
	</linearGradient>
	<rect x="6.5" y="17" style="&st4;" width="83" height="55"/>
	<g>
		<path style="&st1;" d="M88,19v51H8V19H88 M89,15H7c-1.7,0-3,1.3-3,3v53c0,1.7,1.3,3,3,3h82c1.7,0,3-1.3,3-3V18
			C92,16.3,90.7,15,89,15L89,15z"/>
	</g>
</g>
</svg>
