<?xml version="1.0" encoding="utf-8"?>
<!-- Generator: Adobe Illustrator 24.0.0, SVG Export Plug-In . SVG Version: 6.00 Build 0)  -->
<svg version="1.1" id="打印机" xmlns="http://www.w3.org/2000/svg" xmlns:xlink="http://www.w3.org/1999/xlink" x="0px" y="0px"
	 viewBox="0 0 128 128" enable-background="new 0 0 128 128" xml:space="preserve">
<title>128</title>
<g id="_128">
	<path fill="#64798A" d="M20,31h88c6.6,0,12,5.4,12,12v22H8V43C8,36.4,13.4,31,20,31z"/>
	<path fill="#3A556A" d="M8,64h112v22c0,6.6-5.4,12-12,12H20c-6.6,0-12-5.4-12-12V64z"/>
	<rect x="25" y="43" fill="#3A556A" width="78" height="12"/>
	<rect x="25" y="98" fill="#3A556A" width="78" height="22"/>
	<rect x="31" y="81" fill="#ECECDE" width="66" height="33"/>
	<circle fill="#3FC59B" cx="108.5" cy="72.5" r="4.5"/>
	<polygon fill="#ECECDE" points="85,20 85,8 31,8 31,48 97,48 97,20 	"/>
	<polygon fill="#CECDBC" points="97,20 85,8 85,20 	"/>
	<rect x="44" y="13" fill="#8F9396" width="40" height="4"/>
	<rect x="44" y="25" fill="#8F9396" width="40" height="4"/>
	<rect x="44" y="37" fill="#8F9396" width="40" height="4"/>
</g>
</svg>
