<?xml version="1.0" encoding="utf-8"?>
<!-- Generator: Adobe Illustrator 25.0.0, SVG Export Plug-In . SVG Version: 6.00 Build 0)  -->
<svg version="1.1"
	 id="svg7384" xmlns:cc="http://creativecommons.org/ns#" xmlns:dc="http://purl.org/dc/elements/1.1/" xmlns:inkscape="http://www.inkscape.org/namespaces/inkscape" xmlns:rdf="http://www.w3.org/1999/02/22-rdf-syntax-ns#" xmlns:sodipodi="http://sodipodi.sourceforge.net/DTD/sodipodi-0.dtd" xmlns:svg="http://www.w3.org/2000/svg"
	 xmlns="http://www.w3.org/2000/svg" xmlns:xlink="http://www.w3.org/1999/xlink" x="0px" y="0px" viewBox="0 0 16 16"
	 style="enable-background:new 0 0 16 16;" xml:space="preserve">
<style type="text/css">
	.st0{display:none;opacity:0.75;}
	.st1{display:inline;fill:#1F2022;}
	.st2{opacity:0.75;}
	.st3{fill:#1F2022;}
	.st4{opacity:0.75;fill:#1F2022;}
</style>
<sodipodi:namedview  bordercolor="#666666" borderopacity="1" gridtolerance="10" guidetolerance="10" id="namedview88" inkscape:bbox-paths="false" inkscape:current-layer="layer10" inkscape:cx="-27.5297" inkscape:cy="8.96987" inkscape:guide-bbox="true" inkscape:object-nodes="false" inkscape:object-paths="false" inkscape:pageopacity="1" inkscape:pageshadow="2" inkscape:snap-bbox="true" inkscape:snap-bbox-midpoints="false" inkscape:snap-global="true" inkscape:snap-grids="true" inkscape:snap-nodes="false" inkscape:snap-others="false" inkscape:snap-to-guides="true" inkscape:window-height="1381" inkscape:window-maximized="1" inkscape:window-width="2560" inkscape:window-x="1600" inkscape:window-y="27" inkscape:zoom="1" objecttolerance="10" pagecolor="#555753" showborder="false" showgrid="false" showguides="true">
	
		<inkscape:grid  empspacing="2" enabled="true" id="grid4866" snapvisiblegridlinesonly="true" spacingx="1px" spacingy="1px" type="xygrid" visible="true">
		</inkscape:grid>
</sodipodi:namedview>
<g id="layer9" transform="translate(-101.03161,-467)" inkscape:groupmode="layer" inkscape:label="status">
</g>
<g id="layer10" transform="translate(-101.03161,-467)" inkscape:groupmode="layer" inkscape:label="devices" class="st0">
	<path id="rect9405" inkscape:connector-curvature="0" sodipodi:nodetypes="sssscssccsscsssssssssssssssssssssssss" class="st1" d="
		M102,472c-0.6,0-1,0.5-1,1.2v4.6c0,0.6,0.4,1.3,1,1.3h1c0,0.6,0.5,1,1,1h1c0.6,0,1-0.4,1-1h6c0,0.6,0.5,1,1,1h1c0.6,0,1-0.4,1-1h1
		c0.6,0,1-0.6,1-1.3v-4.6c0-0.6-0.4-1.2-1-1.2H102z M102.5,473.2c0.3,0,0.5,0.9,0.5,2.3s-0.2,2.2-0.5,2.2s-0.5-0.9-0.5-2.2
		S102.3,473.2,102.5,473.2z M104.5,473.2c0.3,0,0.5,1.1,0.5,2.5s-0.3,2-0.5,2c-0.3,0-0.5-0.9-0.5-2.2S104.2,473.2,104.5,473.2z
		 M106.5,473.2c0.3,0,0.5,0.9,0.5,2.3s-0.2,2.2-0.5,2.2s-0.5-0.9-0.5-2.2S106.2,473.2,106.5,473.2z M113.5,473
		c1.4,0,2.5,1.1,2.5,2.5s-1.1,2.5-2.5,2.5s-2.5-1.1-2.5-2.5S112.1,473,113.5,473z"/>
	<path id="path9418" sodipodi:cx="-127" sodipodi:cy="258" sodipodi:rx="2" sodipodi:ry="2" sodipodi:type="arc" class="st1" d="
		M115,475.5c0,0.8-0.7,1.5-1.5,1.5s-1.5-0.7-1.5-1.5s0.7-1.5,1.5-1.5S115,474.7,115,475.5z"/>
</g>
<g id="layer11" transform="translate(-101.03161,-467)" inkscape:groupmode="layer" inkscape:label="apps">
</g>
<g id="layer13" transform="translate(-101.03161,-467)" inkscape:groupmode="layer" inkscape:label="places">
</g>
<g id="layer14" transform="translate(-101.03161,-467)" inkscape:groupmode="layer" inkscape:label="mimetypes">
</g>
<g id="layer15" transform="translate(-101.03161,-467)" inkscape:groupmode="layer" inkscape:label="emblems">
</g>
<g id="g71291" transform="translate(-101.03161,-467)" inkscape:groupmode="layer" inkscape:label="emotes">
</g>
<g id="g4953" transform="translate(-101.03161,-467)" inkscape:groupmode="layer" inkscape:label="categories">
</g>
<g id="layer12" transform="translate(-101.03161,-467)" inkscape:groupmode="layer" inkscape:label="actions">
</g>
<g class="st2">
	<path class="st3" d="M15,6v5H1V6H15 M15,5H1C0.4,5,0,5.4,0,6v5c0,0.6,0.4,1,1,1h14c0.6,0,1-0.4,1-1V6C16,5.4,15.6,5,15,5L15,5z"/>
</g>
<path class="st4" d="M4,13H3c-0.6,0-1-0.4-1-1v0h3v0C5,12.6,4.6,13,4,13z"/>
<path class="st4" d="M13,13h-1c-0.6,0-1-0.4-1-1v0h3v0C14,12.6,13.6,13,13,13z"/>
<g class="st2">
	<path class="st3" d="M2.5,7C2.2,7,2,7.7,2,8.5S2.2,10,2.5,10S3,9.3,3,8.5S2.8,7,2.5,7L2.5,7z"/>
</g>
<g class="st2">
	<path class="st3" d="M4.5,7C4.2,7,4,7.7,4,8.5S4.2,10,4.5,10S5,9.3,5,8.5S4.8,7,4.5,7L4.5,7z"/>
</g>
<g class="st2">
	<path class="st3" d="M6.5,7C6.2,7,6,7.7,6,8.5S6.2,10,6.5,10S7,9.3,7,8.5S6.8,7,6.5,7L6.5,7z"/>
</g>
<g class="st2">
	<circle class="st3" cx="12.5" cy="8.5" r="1.5"/>
</g>
</svg>
