<?xml version="1.0" encoding="utf-8"?>
<!-- Generator: Adobe Illustrator 21.0.0, SVG Export Plug-In . SVG Version: 6.00 Build 0)  -->
<svg version="1.1" id="图层_2" opacity="0.8" xmlns="http://www.w3.org/2000/svg" xmlns:xlink="http://www.w3.org/1999/xlink"
	 x="0px" y="0px" viewBox="0 0 16 16" style="enable-background:new 0 0 16 16;" xml:space="preserve">
<style type="text/css">
	.st0{fill:#1F2022;}
</style>
<g>
	<path class="st0" d="M14,12v2h-2v-2H14 M14,11h-2c-0.6,0-1,0.4-1,1v2c0,0.6,0.4,1,1,1h2c0.6,0,1-0.4,1-1v-2C15,11.4,14.6,11,14,11
		L14,11z"/>
</g>
<g>
	<path class="st0" d="M9,12v2H7v-2H9 M9,11H7c-0.6,0-1,0.4-1,1v2c0,0.6,0.4,1,1,1h2c0.6,0,1-0.4,1-1v-2C10,11.4,9.6,11,9,11L9,11z"
		/>
</g>
<g>
	<path class="st0" d="M4,12v2H2v-2H4 M4,11H2c-0.6,0-1,0.4-1,1v2c0,0.6,0.4,1,1,1h2c0.6,0,1-0.4,1-1v-2C5,11.4,4.6,11,4,11L4,11z"/>
</g>
<g>
	<path class="st0" d="M14,7v2h-2V7H14 M14,6h-2c-0.6,0-1,0.4-1,1v2c0,0.6,0.4,1,1,1h2c0.6,0,1-0.4,1-1V7C15,6.4,14.6,6,14,6L14,6z"
		/>
</g>
<g>
	<path class="st0" d="M9,7v2H7V7H9 M9,6H7C6.4,6,6,6.4,6,7v2c0,0.6,0.4,1,1,1h2c0.6,0,1-0.4,1-1V7C10,6.4,9.6,6,9,6L9,6z"/>
</g>
<g>
	<path class="st0" d="M4,7v2H2V7H4 M4,6H2C1.4,6,1,6.4,1,7v2c0,0.6,0.4,1,1,1h2c0.6,0,1-0.4,1-1V7C5,6.4,4.6,6,4,6L4,6z"/>
</g>
<g>
	<path class="st0" d="M14,2v2h-2V2H14 M14,1h-2c-0.6,0-1,0.4-1,1v2c0,0.6,0.4,1,1,1h2c0.6,0,1-0.4,1-1V2C15,1.4,14.6,1,14,1L14,1z"
		/>
</g>
<g>
	<path class="st0" d="M9,2v2H7V2H9 M9,1H7C6.4,1,6,1.4,6,2v2c0,0.6,0.4,1,1,1h2c0.6,0,1-0.4,1-1V2C10,1.4,9.6,1,9,1L9,1z"/>
</g>
<g>
	<path class="st0" d="M4,2v2H2V2H4 M4,1H2C1.4,1,1,1.4,1,2v2c0,0.6,0.4,1,1,1h2c0.6,0,1-0.4,1-1V2C5,1.4,4.6,1,4,1L4,1z"/>
</g>
</svg>
