<?xml version="1.0" encoding="utf-8"?>
<!-- Generator: Adobe Illustrator 24.1.2, SVG Export Plug-In . SVG Version: 6.00 Build 0)  -->
<svg version="1.1" id="图层_1" xmlns="http://www.w3.org/2000/svg" xmlns:xlink="http://www.w3.org/1999/xlink" x="0px" y="0px"
	 viewBox="0 0 32 32" enable-background="new 0 0 32 32" xml:space="preserve">
<g opacity="0.65">
	<path fill="#FFFFFF" d="M11,8h13v13c0,0.6,0.4,1,1,1s1-0.4,1-1V8c0-1.1-0.9-2-2-2H11c-0.6,0-1,0.5-1,1S10.4,8,11,8z"/>
	<path fill="#FFFFFF" d="M30,24H8V2c0-0.6-0.4-1-1-1S6,1.4,6,2v4H2C1.4,6,1,6.4,1,7s0.4,1,1,1h4v16c0,1.1,0.9,2,2,2h16v5
		c0,0.6,0.4,1,1,1s1-0.4,1-1v-5h4c0.6,0,1-0.4,1-1S30.6,24,30,24z"/>
</g>
</svg>
