<?xml version="1.0" encoding="utf-8"?>
<!-- Generator: Adobe Illustrator 24.1.2, SVG Export Plug-In . SVG Version: 6.00 Build 0)  -->
<svg version="1.1" id="图层_1" xmlns="http://www.w3.org/2000/svg" xmlns:xlink="http://www.w3.org/1999/xlink" x="0px" y="0px"
	 viewBox="0 0 32 32" enable-background="new 0 0 32 32" xml:space="preserve">
<path opacity="0.65" fill="#FFFFFF" enable-background="new    " d="M23.4,27.8c3.7-2.4,6.1-6.6,6.1-11.1c0-7.2-5.8-13.1-12.9-13.1
	c-7.2,0-13,5.9-13,13.1c0,4.5,2.3,8.7,6.1,11.1L8.3,30C3.8,27.1,1,22.1,1,16.7C1,8,8,1,16.5,1S32,8,32,16.7c0,5.4-2.8,10.5-7.3,13.3
	L23.4,27.8z M20.1,22c1.7-1.2,2.8-3.2,2.8-5.3c0-3.6-2.9-6.5-6.4-6.5s-6.4,2.9-6.4,6.5c0,2.1,1.1,4.1,2.8,5.3l-1.3,2.3
	c-2.5-1.7-4.1-4.5-4.1-7.6c0-5,4-9.1,9-9.1s9,4.1,9,9.1c0,3.1-1.5,5.9-4.1,7.6L20.1,22z M16.5,19.2c-1.4,0-2.5-1.1-2.5-2.5
	s1.1-2.5,2.5-2.5s2.5,1.1,2.5,2.5C19,18,17.9,19.2,16.5,19.2z"/>
</svg>
