<?xml version="1.0" encoding="utf-8"?>
<!-- Generator: Adobe Illustrator 24.1.2, SVG Export Plug-In . SVG Version: 6.00 Build 0)  -->
<svg version="1.1" id="图层_1" xmlns="http://www.w3.org/2000/svg" xmlns:xlink="http://www.w3.org/1999/xlink" x="0px" y="0px"
	 viewBox="0 0 32 32" enable-background="new 0 0 32 32" xml:space="preserve">
<path opacity="0.8" fill="#FFFFFF" enable-background="new    " d="M12.1,24.1c1.1-0.9,2.5-1.4,3.9-1.4c1.5,0,2.8,0.5,3.9,1.4L16,28
	L12.1,24.1z M6.5,18.2c2.7-2.5,6.2-3.9,10-3.9c3.7,0,7.2,1.4,10,3.9l-2.3,2.3c-2.1-1.9-4.8-3-7.6-3s-5.5,1-7.6,3L6.5,18.2z M0,11.6
	C4.3,7.3,10,5,16,5s11.7,2.3,16,6.6L29.7,14C26,10.4,21.1,8.4,16,8.4S6,10.4,2.3,14L0,11.6z"/>
</svg>
