<?xml version="1.0" encoding="utf-8"?>
<!-- Generator: Adobe Illustrator 24.1.2, SVG Export Plug-In . SVG Version: 6.00 Build 0)  -->
<svg version="1.1" id="图层_1" xmlns="http://www.w3.org/2000/svg" xmlns:xlink="http://www.w3.org/1999/xlink" x="0px" y="0px"
	 viewBox="0 0 32 32" style="enable-background:new 0 0 32 32;" xml:space="preserve">
<style type="text/css">
	.st0{opacity:0.8479;}
	.st1{fill:#FFFFFF;}
</style>
<desc>Created with Sketch.</desc>
<g id="页面-1" class="st0">
	<g id="_x36_.右栏-通知_xFF08_触控板或鼠标_xFF09_" transform="translate(-1226.000000, -109.000000)">
		<g id="收纳盒1_1_" transform="translate(1226.000000, 95.000000)">
			<g id="收纳盒_x2F_n" transform="translate(0.000000, 14.000000)">
				<path id="收纳盒1" class="st1" d="M21.8,8H10.2C9.6,8,9.1,8.2,8.7,8.7L4,14l0,0v9c0,1.1,0.9,2,2,2h20c1.1,0,2-0.9,2-2v-9l0,0
					l-4.6-5.3C23,8.2,22.4,8,21.8,8z M9.7,9h12.6l4.4,5h-7.3c0,1.9-1.6,3.4-3.4,3.4s-3.4-1.5-3.4-3.4H5.3L9.7,9z M26,24H6
					c-0.6,0-1-0.4-1-1v-8l0,0h6.8c0.5,1.9,2.2,3.4,4.2,3.4s3.7-1.5,4.2-3.4H27v8C27,23.6,26.6,24,26,24z"/>
			</g>
		</g>
	</g>
</g>
</svg>
