<?xml version="1.0" encoding="utf-8"?>
<!-- Generator: Adobe Illustrator 25.0.0, SVG Export Plug-In . SVG Version: 6.00 Build 0)  -->
<svg version="1.1"
	 id="svg7384" xmlns:cc="http://creativecommons.org/ns#" xmlns:dc="http://purl.org/dc/elements/1.1/" xmlns:inkscape="http://www.inkscape.org/namespaces/inkscape" xmlns:rdf="http://www.w3.org/1999/02/22-rdf-syntax-ns#" xmlns:sodipodi="http://sodipodi.sourceforge.net/DTD/sodipodi-0.dtd" xmlns:svg="http://www.w3.org/2000/svg"
	 xmlns="http://www.w3.org/2000/svg" xmlns:xlink="http://www.w3.org/1999/xlink" x="0px" y="0px" viewBox="0 0 16 16"
	 style="enable-background:new 0 0 16 16;" xml:space="preserve">
<style type="text/css">
	.st0{display:none;opacity:0.75;}
	.st1{display:inline;fill:#1F2022;}
	.st2{opacity:0.75;}
	.st3{fill:#1F2022;}
</style>
<sodipodi:namedview  bordercolor="#666666" borderopacity="1" gridtolerance="10" guidetolerance="10" id="namedview88" inkscape:bbox-paths="false" inkscape:current-layer="layer10" inkscape:cx="7.5250416" inkscape:cy="3.05352" inkscape:guide-bbox="true" inkscape:object-nodes="false" inkscape:object-paths="false" inkscape:pageopacity="1" inkscape:pageshadow="2" inkscape:snap-bbox="true" inkscape:snap-bbox-midpoints="false" inkscape:snap-global="true" inkscape:snap-grids="true" inkscape:snap-nodes="false" inkscape:snap-others="false" inkscape:snap-to-guides="true" inkscape:window-height="419" inkscape:window-maximized="0" inkscape:window-width="511" inkscape:window-x="0" inkscape:window-y="27" inkscape:zoom="1" objecttolerance="10" pagecolor="#555753" showborder="false" showgrid="false" showguides="true">
	
		<inkscape:grid  empspacing="2" enabled="true" id="grid4866" snapvisiblegridlinesonly="true" spacingx="1px" spacingy="1px" type="xygrid" visible="true">
		</inkscape:grid>
</sodipodi:namedview>
<g id="layer9" transform="translate(218.9998,-447)" inkscape:groupmode="layer" inkscape:label="status">
</g>
<g id="layer10" transform="translate(218.9998,-447)" inkscape:groupmode="layer" inkscape:label="devices" class="st0">
	<path id="path23868" inkscape:connector-curvature="0" sodipodi:nodetypes="sssssssssccccc" class="st1" d="M-213.5,448
		c-0.8,0-1.5,0.6-1.5,1.5v11.1c0,0.8,0.6,1.5,1.5,1.5h5.1c0.8,0,1.5-0.6,1.5-1.5v-11.1c0-0.8-0.6-1.5-1.5-1.5H-213.5z M-214,449h6.1
		v11h-6.1V449z"/>
</g>
<g id="layer11" transform="translate(218.9998,-447)" inkscape:groupmode="layer" inkscape:label="apps">
</g>
<g id="layer13" transform="translate(218.9998,-447)" inkscape:groupmode="layer" inkscape:label="places">
</g>
<g id="layer14" transform="translate(218.9998,-447)" inkscape:groupmode="layer" inkscape:label="mimetypes">
</g>
<g id="layer15" transform="translate(218.9998,-447)" inkscape:groupmode="layer" inkscape:label="emblems">
</g>
<g id="g71291" transform="translate(218.9998,-447)" inkscape:groupmode="layer" inkscape:label="emotes">
</g>
<g id="g4953" transform="translate(218.9998,-447)" inkscape:groupmode="layer" inkscape:label="categories">
</g>
<g id="layer12" transform="translate(218.9998,-447)" inkscape:groupmode="layer" inkscape:label="actions">
</g>
<g class="st2">
	<g>
		<path class="st3" d="M11,2v12H5V2H11 M11,1H5C4.4,1,4,1.4,4,2v12c0,0.6,0.4,1,1,1h6c0.6,0,1-0.4,1-1V2C12,1.4,11.6,1,11,1L11,1z"
			/>
	</g>
	<path class="st3" d="M11,15H5c-0.6,0-1-0.4-1-1v-1h8v1C12,14.6,11.6,15,11,15z"/>
</g>
</svg>
