<?xml version="1.0" encoding="utf-8"?>
<!-- Generator: Adobe Illustrator 21.0.0, SVG Export Plug-In . SVG Version: 6.00 Build 0)  -->
<svg version="1.1" id="图层_2" xmlns="http://www.w3.org/2000/svg" xmlns:xlink="http://www.w3.org/1999/xlink" x="0px" y="0px"
	 viewBox="0 0 16 16" style="enable-background:new 0 0 16 16;" xml:space="preserve">
<style type="text/css">
	.st0{opacity:0.75;}
	.st1{fill:#1F2022;}
</style>
<g class="st0">
	<path class="st1" d="M1,6c0-0.6,0.4-1,1-1h8V4H2C0.9,4,0,4.9,0,6v5c0,1.1,0.9,2,2,2h5v2H4v1h7v-1H8v-2h4v-1H2c-0.6,0-1-0.4-1-1V6z"
		/>
	<rect x="12" y="1" class="st1" width="1" height="2"/>
	<rect x="14" y="1" class="st1" width="1" height="2"/>
	<path class="st1" d="M15,3v3c0,0.6-0.4,1-1,1h-1c-0.6,0-1-0.4-1-1V3h-1v3c0,1.1,0.9,2,2,2l0,0v8h1V8l0,0c1.1,0,2-0.9,2-2V3H15z"/>
	<rect x="13" y="4" class="st1" width="1" height="2"/>
</g>
</svg>
