<svg id="icon-bluetooth-s" xmlns="http://www.w3.org/2000/svg" width="16" height="16" viewBox="0 0 16 16">
  <defs>
    <style>
      .cls-1 {
        fill: #515151;
        opacity: 0;
      }

      .cls-2 {
        fill: none;
        stroke-miterlimit: 10;
      }

      .cls-3, .cls-4 {
        stroke: none;
      }

      .cls-4 {
        fill: #262626;
      }
    </style>
  </defs>
  <rect id="icon_bluetooth_background" data-name="icon/bluetooth background" class="cls-1" width="16" height="16"/>
  <g id="bluetooth">
    <g id="路径_69" data-name="路径 69" class="cls-2">
      <path class="cls-3" d="M8,6.6V15l4.243-4.2Z"/>
      <path class="cls-4" d="M 9.000001907348633 8.997073173522949 L 9.000001907348633 12.60295677185059 L 10.82126522064209 10.80002784729004 L 9.000001907348633 8.997073173522949 M 8.000001907348633 6.599998474121094 L 12.2426815032959 10.80002784729004 L 8.000001907348633 14.99999809265137 L 8.000001907348633 6.599998474121094 Z"/>
    </g>
    <g id="路径_70" data-name="路径 70" class="cls-2">
      <path class="cls-3" d="M8,1V9.4l4.243-4.2Z"/>
      <path class="cls-4" d="M 9.000001907348633 3.397076606750488 L 9.000001907348633 7.002960681915283 L 10.82126522064209 5.200031757354736 L 9.000001907348633 3.397076606750488 M 8.000001907348633 1.000001907348633 L 12.2426815032959 5.200031757354736 L 8.000001907348633 9.400001525878906 L 8.000001907348633 1.000001907348633 Z"/>
    </g>
    <g id="路径_71" data-name="路径 71" class="cls-2">
      <path class="cls-3" d="M8.707,8.7,3.757,3.8l.707-.7L9.414,8Z"/>
      <path class="cls-4" d="M 8.707136154174805 8.700029373168945 L 3.757386445999146 3.800029277801514 L 4.464496612548828 3.100029230117798 L 9.414246559143066 8.000029563903809 L 8.707136154174805 8.700029373168945 Z"/>
    </g>
    <g id="路径_72" data-name="路径 72" class="cls-2">
      <path class="cls-3" d="M9.414,8l-4.95,4.9-.707-.7,4.95-4.9Z"/>
      <path class="cls-4" d="M 8.707136154174805 7.300025939941406 L 9.41424560546875 8.000025749206543 L 4.464495658874512 12.90002632141113 L 3.757386207580566 12.200026512146 L 8.707136154174805 7.300025939941406 Z"/>
    </g>
  </g>
</svg>
