<svg id="icon-open" xmlns="http://www.w3.org/2000/svg" width="16" height="16" viewBox="0 0 16 16">
  <defs>
    <style>
      .cls-1 {
        fill: #9c9c9c;
        opacity: 0;
      }

      .cls-2 {
        fill: none;
        stroke-linejoin: round;
      }

      .cls-3, .cls-4 {
        stroke: none;
      }
    </style>
  </defs>
  <rect id="矩形_37" data-name="矩形 37" class="cls-1" width="16" height="16"/>
  <g id="Fill_1117" data-name="Fill 1117" class="cls-2" transform="translate(1 2.5)">
    <path class="cls-3" d="M0,1.333A1.793,1.793,0,0,1,1.75-.5H4.183A1.711,1.711,0,0,1,5.421.037l1.237,1.3H12.25A1.793,1.793,0,0,1,14,3.167v5.5A1.793,1.793,0,0,1,12.25,10.5H1.75A1.793,1.793,0,0,1,0,8.667V1.333Z"/>
    <path class="cls-4" d="M 1.75 0.5000009536743164 C 1.33644962310791 0.5000009536743164 1 0.8738307952880859 1 1.333330154418945 L 1 8.666670799255371 C 1 9.12617015838623 1.33644962310791 9.5 1.75 9.5 L 12.25 9.5 C 12.66355037689209 9.5 13 9.12617015838623 13 8.666670799255371 L 13 3.166670322418213 C 13 2.707160472869873 12.66355037689209 2.333330631256104 12.25 2.333330631256104 L 6.658170223236084 2.333330631256104 C 6.384890079498291 2.333330631256104 6.123509883880615 2.221490383148193 5.934820175170898 2.023810386657715 L 4.69756031036377 0.7276401519775391 C 4.557439804077148 0.5808506011962891 4.374719619750977 0.5000009536743164 4.183079719543457 0.5000009536743164 L 1.75 0.5000009536743164 M 1.75 -0.4999990463256836 L 4.183079719543457 -0.4999990463256836 C 4.647419929504395 -0.4999990463256836 5.092499732971191 -0.306889533996582 5.420920372009277 0.03717041015625 L 6.658170223236084 1.333330154418945 L 12.25 1.333330154418945 C 13.21658039093018 1.333330154418945 14 2.154050350189209 14 3.166670322418213 L 14 8.666670799255371 C 14 9.679280281066895 13.21658039093018 10.5 12.25 10.5 L 1.75 10.5 C 0.7834196090698242 10.5 0 9.679280281066895 0 8.666670799255371 L 0 1.333330154418945 C 0 0.3207206726074219 0.7834196090698242 -0.4999990463256836 1.75 -0.4999990463256836 Z"/>
  </g>
</svg>
