<svg id="icon_夜间模式" data-name="icon/夜间模式" xmlns="http://www.w3.org/2000/svg" width="24" height="24" viewBox="0 0 24 24">
  <defs>
    <style>
      .cls-1 {
        fill: #d8d8d8;
        stroke: #979797;
        stroke-miterlimit: 10;
        opacity: 0;
      }

      .cls-2 {
        fill: gray;
      }

      .cls-3 {
        stroke: none;
      }

      .cls-4 {
        fill: none;
      }
    </style>
  </defs>
  <g id="icon_夜间模式-2" data-name="icon/夜间模式">
    <g id="矩形" class="cls-1">
      <rect class="cls-3" width="24" height="24" rx="0.5"/>
      <rect class="cls-4" x="0.5" y="0.5" width="23" height="23"/>
    </g>
    <path id="形状结合" class="cls-2" d="M3.735,19.352A11.086,11.086,0,0,1,0,12.778,9.063,9.063,0,0,0,12.778,0,11.078,11.078,0,1,1,3.735,19.352ZM3.176,12.2,3,11.507a1,1,0,0,0-.715-.715l-.689-.179a.2.2,0,0,1,0-.387l.689-.18A1,1,0,0,0,3,9.33l.18-.689a.2.2,0,0,1,.387,0l.18.689a1,1,0,0,0,.715.715l.688.18a.2.2,0,0,1,0,.387l-.688.179a1,1,0,0,0-.715.715l-.18.688a.2.2,0,0,1-.387,0ZM7.743,9.1,7.049,6.448a1,1,0,0,0-.715-.716L3.677,5.038a.2.2,0,0,1,0-.387l2.657-.694a1,1,0,0,0,.715-.715L7.743.586a.2.2,0,0,1,.387,0l.694,2.657a1,1,0,0,0,.716.715l2.657.694a.2.2,0,0,1,0,.387l-2.657.694a1,1,0,0,0-.716.716L8.13,9.1a.2.2,0,0,1-.387,0Z" transform="translate(1 1)"/>
  </g>
</svg>
