<?xml version="1.0" encoding="utf-8"?>
<!-- Generator: Adobe Illustrator 25.0.0, SVG Export Plug-In . SVG Version: 6.00 Build 0)  -->
<svg version="1.1"
	 id="svg7384" xmlns:cc="http://creativecommons.org/ns#" xmlns:dc="http://purl.org/dc/elements/1.1/" xmlns:inkscape="http://www.inkscape.org/namespaces/inkscape" xmlns:osb="http://www.openswatchbook.org/uri/2009/osb" xmlns:rdf="http://www.w3.org/1999/02/22-rdf-syntax-ns#" xmlns:sodipodi="http://sodipodi.sourceforge.net/DTD/sodipodi-0.dtd" xmlns:svg="http://www.w3.org/2000/svg"
	 xmlns="http://www.w3.org/2000/svg" xmlns:xlink="http://www.w3.org/1999/xlink" x="0px" y="0px" viewBox="0 0 16 16"
	 style="enable-background:new 0 0 16 16;" xml:space="preserve">
<style type="text/css">
	.st0{display:none;fill:#1F2022;}
	.st1{opacity:0.75;fill:#1F2022;}
	.st2{opacity:0.75;}
	.st3{fill:#1F2022;}
</style>
<sodipodi:namedview  bordercolor="#666666" borderopacity="1" gridtolerance="10" guidetolerance="10" id="namedview88" inkscape:bbox-nodes="true" inkscape:bbox-paths="true" inkscape:current-layer="layer10" inkscape:cx="39.289998" inkscape:cy="8.62313" inkscape:document-rotation="0" inkscape:document-units="px" inkscape:guide-bbox="true" inkscape:measure-end="0,0" inkscape:measure-start="0,0" inkscape:object-nodes="true" inkscape:object-paths="false" inkscape:pageopacity="1" inkscape:pageshadow="2" inkscape:snap-bbox="true" inkscape:snap-bbox-midpoints="false" inkscape:snap-global="true" inkscape:snap-grids="true" inkscape:snap-nodes="true" inkscape:snap-others="false" inkscape:snap-to-guides="true" inkscape:window-height="1376" inkscape:window-maximized="1" inkscape:window-width="3440" inkscape:window-x="0" inkscape:window-y="27" inkscape:zoom="1" objecttolerance="10" pagecolor="#3a3b39" showborder="false" showgrid="false" showguides="true">
	
		<inkscape:grid  dotted="false" empspacing="2" enabled="true" id="grid4866" originx="-60" originy="330" snapvisiblegridlinesonly="true" spacingx="1px" spacingy="1px" type="xygrid" visible="true">
		</inkscape:grid>
</sodipodi:namedview>
<g id="layer9" transform="translate(-301.0002,-547)" inkscape:groupmode="layer" inkscape:label="status">
</g>
<path id="path5572" inkscape:connector-curvature="0" class="st0" d="M3,1C1.3,1,0,2.3,0,4v7c0,1.7,1.3,3,3,3h10c1.7,0,3-1.3,3-3V4
	c0-1.7-1.3-3-3-3H3z M7,5h2v6H7V7H6V6C6.5,5.9,6.8,5.6,7,5z"/>
<path id="path5574" inkscape:connector-curvature="0" sodipodi:nodetypes="sccccs" class="st1" d="M8,16c3,0,4-1,4-1h-1H5H4
	C4,15,5,16,8,16z"/>
<g id="layer11" transform="translate(-301.0002,-547)" inkscape:groupmode="layer" inkscape:label="apps">
</g>
<g id="layer13" transform="translate(-301.0002,-547)" inkscape:groupmode="layer" inkscape:label="places">
</g>
<g id="layer14" transform="translate(-301.0002,-547)" inkscape:groupmode="layer" inkscape:label="mimetypes">
</g>
<g id="layer15" transform="translate(-301.0002,-547)" inkscape:groupmode="layer" inkscape:label="emblems">
</g>
<g id="g71291" transform="translate(-301.0002,-547)" inkscape:groupmode="layer" inkscape:label="emotes">
</g>
<g id="g4953" transform="translate(-301.0002,-547)" inkscape:groupmode="layer" inkscape:label="categories">
</g>
<g id="layer12" transform="translate(-301.0002,-547)" inkscape:groupmode="layer" inkscape:label="actions">
</g>
<rect x="7" y="5" class="st1" width="2" height="6"/>
<path class="st1" d="M6,6v1h1V5C7,5.6,6.6,6,6,6z"/>
<g class="st2">
	<path class="st3" d="M13,2c1.1,0,2,0.9,2,2v7c0,1.1-0.9,2-2,2H3c-1.1,0-2-0.9-2-2V4c0-1.1,0.9-2,2-2H13 M13,1H3C1.3,1,0,2.3,0,4v7
		c0,1.7,1.3,3,3,3h10c1.7,0,3-1.3,3-3V4C16,2.3,14.7,1,13,1L13,1z"/>
</g>
</svg>
