<?xml version="1.0" encoding="utf-8"?>
<!-- Generator: Adobe Illustrator 16.0.0, SVG Export Plug-In . SVG Version: 6.00 Build 0)  -->
<!DOCTYPE svg PUBLIC "-//W3C//DTD SVG 1.1//EN" "http://www.w3.org/Graphics/SVG/1.1/DTD/svg11.dtd">
<svg version="1.1" id="图层_1" xmlns="http://www.w3.org/2000/svg" xmlns:xlink="http://www.w3.org/1999/xlink" x="0px" y="0px"
	 width="22px" height="22px" viewBox="0 0 22 22" enable-background="new 0 0 22 22" xml:space="preserve">
<polygon fill="#3E2723" points="2.634,22 2.634,0 19.366,0 19.366,15.807 13.111,22 "/>
<g>
	<g>
		
			<linearGradient id="SVGID_1_" gradientUnits="userSpaceOnUse" x1="52.5996" y1="-142.4004" x2="52.5996" y2="-163.4009" gradientTransform="matrix(1 0 0 -1 -41.6001 -141.9004)">
			<stop  offset="0" style="stop-color:#785548"/>
			<stop  offset="1" style="stop-color:#9F9E9F"/>
		</linearGradient>
		<polygon fill="url(#SVGID_1_)" points="3.133,21.5 3.133,0.5 18.867,0.5 18.867,15.586 13.019,21.5 		"/>
		<polygon fill="#795548" fill-opacity="0.7" points="18.867,15.594 18.867,15.34 12.638,15.34 12.638,21.5 12.961,21.5 		"/>
		<path opacity="0.39" fill="#FFFFFF" enable-background="new    " d="M12.952,15.594l5.915,0.008L12.961,21.5L12.952,15.594z"/>
	</g>
	<path fill="#FFFFFF" d="M8.755,4.548H8.223v6.819H7.819V4.548H7.291v6.819H6.889V4.548h-0.53v6.819H5.955V4.548h-0.53v6.819H5.286
		v2.889h3.65v-2.889H8.755V4.548z M8.405,13.417h-2.59v-1.675h2.59V13.417z"/>
	<g>
		<rect x="3.13" y="0.5" opacity="0.8" fill="#FFFFFF" enable-background="new    " width="15.74" height="4.025"/>
		<g enable-background="new    ">
			<path fill="#5D4037" d="M7.946,4.145C7.409,4.145,7,4.003,6.719,3.718C6.438,3.436,6.297,3.033,6.297,2.51
				c0-0.259,0.043-0.491,0.129-0.694S6.63,1.44,6.778,1.3C6.928,1.16,7.105,1.053,7.312,0.98c0.207-0.072,0.431-0.108,0.673-0.108
				c0.14,0,0.267,0.01,0.38,0.029c0.115,0.02,0.215,0.042,0.301,0.068C8.751,0.995,8.822,1.021,8.88,1.049
				c0.058,0.027,0.099,0.048,0.123,0.063L8.79,1.683C8.688,1.631,8.569,1.587,8.435,1.551c-0.136-0.036-0.289-0.055-0.46-0.055
				c-0.114,0-0.227,0.019-0.336,0.055S7.432,1.646,7.348,1.725c-0.084,0.08-0.152,0.184-0.203,0.31
				c-0.05,0.126-0.075,0.281-0.075,0.461c0,0.145,0.017,0.28,0.05,0.406c0.034,0.125,0.087,0.233,0.162,0.324
				c0.074,0.09,0.173,0.162,0.293,0.215S7.841,3.52,8.013,3.52c0.108,0,0.204-0.007,0.29-0.018C8.389,3.49,8.466,3.475,8.531,3.458
				c0.067-0.016,0.126-0.036,0.177-0.056C8.76,3.382,8.805,3.361,8.846,3.344L9.051,3.91C8.947,3.97,8.799,4.024,8.607,4.072
				C8.418,4.12,8.196,4.145,7.946,4.145z"/>
			<path fill="#5D4037" d="M11.877,4.082C11.838,3.973,11.8,3.86,11.758,3.746c-0.043-0.115-0.085-0.229-0.126-0.343h-1.29
				c-0.041,0.114-0.084,0.229-0.125,0.343c-0.042,0.115-0.08,0.227-0.117,0.336H9.328C9.451,3.743,9.57,3.431,9.681,3.144
				c0.112-0.286,0.222-0.556,0.328-0.81c0.107-0.253,0.212-0.494,0.314-0.722c0.104-0.228,0.212-0.451,0.323-0.668h0.705
				c0.108,0.217,0.215,0.44,0.32,0.668c0.104,0.228,0.21,0.468,0.318,0.722c0.106,0.254,0.216,0.524,0.326,0.81
				c0.112,0.287,0.23,0.599,0.355,0.938H11.877z M10.983,1.655C10.966,1.7,10.942,1.763,10.91,1.841
				c-0.031,0.079-0.068,0.169-0.108,0.271c-0.041,0.103-0.087,0.216-0.137,0.339c-0.051,0.124-0.103,0.253-0.154,0.389h0.944
				c-0.05-0.136-0.1-0.266-0.147-0.39c-0.046-0.124-0.092-0.237-0.134-0.34c-0.044-0.104-0.081-0.193-0.112-0.272
				C11.029,1.761,11.003,1.7,10.983,1.655z"/>
			<path fill="#5D4037" d="M14.196,4.123c-0.182,0-0.362-0.005-0.54-0.017c-0.18-0.011-0.366-0.035-0.561-0.075V0.989
				c0.153-0.026,0.32-0.047,0.501-0.061s0.35-0.021,0.504-0.021c0.21,0,0.403,0.014,0.579,0.043
				c0.178,0.029,0.328,0.078,0.456,0.147c0.126,0.07,0.226,0.161,0.297,0.274c0.072,0.114,0.108,0.253,0.108,0.418
				c0,0.251-0.129,0.449-0.382,0.593c0.209,0.075,0.352,0.178,0.428,0.308c0.077,0.13,0.115,0.276,0.115,0.439
				c0,0.33-0.126,0.577-0.379,0.743C15.07,4.038,14.695,4.123,14.196,4.123z M13.82,2.175h0.361c0.229,0,0.394-0.027,0.492-0.083
				c0.099-0.056,0.147-0.146,0.147-0.27c0-0.127-0.052-0.216-0.153-0.267c-0.101-0.051-0.251-0.077-0.448-0.077
				c-0.063,0-0.131,0-0.205,0.002c-0.072,0.001-0.137,0.005-0.194,0.011V2.175z M13.82,2.714v0.81
				c0.054,0.005,0.112,0.011,0.176,0.014c0.063,0.002,0.134,0.005,0.21,0.005c0.222,0,0.402-0.03,0.539-0.09
				c0.137-0.062,0.205-0.173,0.205-0.335c0-0.145-0.058-0.249-0.173-0.311c-0.114-0.062-0.278-0.093-0.49-0.093H13.82z"/>
		</g>
	</g>
</g>
</svg>
