<?xml version="1.0" encoding="utf-8"?>
<!-- Generator: Adobe Illustrator 16.0.0, SVG Export Plug-In . SVG Version: 6.00 Build 0)  -->
<!DOCTYPE svg PUBLIC "-//W3C//DTD SVG 1.1//EN" "http://www.w3.org/Graphics/SVG/1.1/DTD/svg11.dtd">
<svg version="1.1" id="图层_1" xmlns="http://www.w3.org/2000/svg" xmlns:xlink="http://www.w3.org/1999/xlink" x="0px" y="0px"
	 width="22px" height="22px" viewBox="0 0 22 22" enable-background="new 0 0 22 22" xml:space="preserve">
<linearGradient id="SVGID_1_" gradientUnits="userSpaceOnUse" x1="260.6016" y1="2394.9414" x2="260.6016" y2="2372.9414" gradientTransform="matrix(1 0 0 1 -249.6006 -2372.9414)">
	<stop  offset="0" style="stop-color:#3F51B5"/>
	<stop  offset="0.258" style="stop-color:#4355B7"/>
	<stop  offset="0.5253" style="stop-color:#5060BB"/>
	<stop  offset="0.7959" style="stop-color:#6473C3"/>
	<stop  offset="1" style="stop-color:#7986CB"/>
</linearGradient>
<path fill="url(#SVGID_1_)" d="M13.063,22l6.188-6.188V0H2.75v22H13.063z"/>
<polygon fill="#311B92" fill-opacity="0.3922" points="12.719,15.469 12.719,22 13.063,22 19.25,15.813 19.25,15.469 "/>
<path fill="#FFFFFF" fill-opacity="0.3922" d="M13.063,15.813h6.184L13.063,22V15.813z"/>
<g>
	<g>
		<path fill="#311B92" d="M18.75,0.5v15.105L12.855,21.5H8.25h-5v-21H18.75 M19.25,0H2.75v22h5.5h4.813l6.188-6.188L19.25,0L19.25,0
			z"/>
	</g>
</g>
<g opacity="0.8">
	<path fill="#FFFFFF" d="M13.616,8.101c-0.11,0-0.215,0.05-0.317,0.156c-0.103,0.102-0.186,0.24-0.247,0.415
		C12.99,8.843,12.96,9.034,12.96,9.245c0,0.122,0.03,0.221,0.089,0.296c0.06,0.071,0.143,0.11,0.247,0.11
		c0.107,0,0.21-0.055,0.309-0.16c0.098-0.106,0.175-0.252,0.236-0.435c0.06-0.189,0.092-0.372,0.092-0.552
		C13.933,8.234,13.825,8.101,13.616,8.101z"/>
	<path fill="#FFFFFF" d="M9.166,8.101c-0.11,0-0.217,0.05-0.319,0.156c-0.102,0.102-0.183,0.24-0.244,0.415
		C8.54,8.843,8.51,9.034,8.51,9.245c0,0.122,0.03,0.221,0.089,0.296c0.059,0.071,0.14,0.11,0.244,0.11
		c0.107,0,0.212-0.055,0.309-0.16C9.251,9.386,9.33,9.24,9.389,9.057C9.451,8.868,9.48,8.685,9.48,8.505
		C9.48,8.234,9.375,8.101,9.166,8.101z"/>
	<path fill="#FFFFFF" d="M11,5.156c-3.038,0-5.5,1.692-5.5,3.781s2.462,3.781,5.5,3.781c3.037,0,5.5-1.692,5.5-3.781
		S14.037,5.156,11,5.156z M14.499,9.328c-0.107,0.271-0.258,0.485-0.448,0.646c-0.193,0.157-0.403,0.238-0.631,0.238
		c-0.135,0-0.25-0.028-0.347-0.086c-0.097-0.055-0.186-0.152-0.266-0.292h-0.021c-0.02,0.247-0.054,0.471-0.103,0.682l-0.175,0.784
		h-0.725l0.252-1.136h-0.703l0.33-1.506c0.024-0.106,0.038-0.197,0.038-0.275c0-0.188-0.086-0.282-0.261-0.282
		c-0.148,0-0.282,0.086-0.403,0.263c-0.121,0.174-0.215,0.417-0.285,0.734l-0.234,1.066H9.792l0.135-0.607
		C9.833,9.719,9.729,9.864,9.598,9.974c-0.19,0.157-0.4,0.238-0.631,0.238c-0.135,0-0.247-0.028-0.344-0.086
		c-0.097-0.055-0.186-0.152-0.269-0.292H8.336c-0.019,0.247-0.054,0.471-0.105,0.682l-0.172,0.784H7.334l0.824-3.715h0.553
		L8.671,7.976h0.021c0.221-0.294,0.476-0.44,0.763-0.44c0.234,0,0.419,0.083,0.556,0.25c0.106,0.132,0.17,0.305,0.193,0.518
		l0.384-1.729h0.725c-0.064,0.278-0.112,0.49-0.145,0.641c-0.035,0.149-0.103,0.388-0.207,0.714h0.019
		c0.1-0.12,0.21-0.214,0.333-0.285c0.121-0.073,0.263-0.109,0.424-0.109c0.221,0,0.393,0.067,0.513,0.195
		c0.121,0.126,0.184,0.31,0.184,0.55c0,0.041-0.006,0.09-0.011,0.138l0.185-0.833h0.554l-0.04,0.391h0.021
		c0.223-0.294,0.478-0.44,0.765-0.44c0.233,0,0.419,0.083,0.554,0.25c0.137,0.166,0.204,0.396,0.204,0.692
		C14.666,8.771,14.612,9.057,14.499,9.328z"/>
</g>
</svg>
