<?xml version="1.0" encoding="utf-8"?>
<!-- Generator: Adobe Illustrator 17.1.0, SVG Export Plug-In . SVG Version: 6.00 Build 0)  -->
<!DOCTYPE svg PUBLIC "-//W3C//DTD SVG 1.1//EN" "http://www.w3.org/Graphics/SVG/1.1/DTD/svg11.dtd">
<svg version="1.1"
	 id="svg2" inkscape:version="0.48.4 r9939" sodipodi:docname="computer.svg" xmlns:dc="http://purl.org/dc/elements/1.1/" xmlns:rdf="http://www.w3.org/1999/02/22-rdf-syntax-ns#" xmlns:sodipodi="http://sodipodi.sourceforge.net/DTD/sodipodi-0.dtd" xmlns:cc="http://creativecommons.org/ns#" xmlns:svg="http://www.w3.org/2000/svg" xmlns:inkscape="http://www.inkscape.org/namespaces/inkscape"
	 xmlns="http://www.w3.org/2000/svg" xmlns:xlink="http://www.w3.org/1999/xlink" x="0px" y="0px" width="22px" height="22px"
	 viewBox="1143 0 22 22" enable-background="new 1143 0 22 22" xml:space="preserve">
<polygon fill="#0D47A1" points="1145.6,22 1145.6,0 1162.4,0 1162.4,15.8 1156.1,22 "/>
<g>
	<g>
		<g>
			<g>
				
					<linearGradient id="SVGID_1_" gradientUnits="userSpaceOnUse" x1="1154.007" y1="490.5" x2="1154.007" y2="511.5" gradientTransform="matrix(1 0 0 -1 0 512)">
					<stop  offset="0" style="stop-color:#3F51B5"/>
					<stop  offset="1" style="stop-color:#64B5F6"/>
				</linearGradient>
				<polygon fill="url(#SVGID_1_)" points="1146.1,21.5 1146.1,0.5 1161.9,0.5 1161.9,15.6 1156,21.5 				"/>
			</g>
			<polygon fill="#2196F3" fill-opacity="0.7" points="1161.9,15.6 1161.9,15.3 1155.6,15.3 1155.6,21.5 1156,21.5 			"/>
			<path opacity="0.39" fill="#FFFFFF" enable-background="new    " d="M1156,15.6l5.9,0l-5.9,5.9L1156,15.6z"/>
		</g>
	</g>
	<g>
		<rect x="1146.1" y="0.5" opacity="0.8" fill="#FFFFFF" enable-background="new    " width="15.7" height="4"/>
	</g>
</g>
<g>
	<polygon opacity="0.8" fill="#FFFFFF" enable-background="new    " points="1150.5,6.6 1153.2,6.6 1153.2,5.9 1149.8,5.9 
		1149.8,9.2 1150.5,9.2 	"/>
	<polygon opacity="0.8" fill="#FFFFFF" enable-background="new    " points="1154.8,5.9 1154.8,6.6 1157.5,6.6 1157.5,9.2 
		1158.2,9.2 1158.2,5.9 	"/>
	<polygon opacity="0.8" fill="#FFFFFF" enable-background="new    " points="1158.2,10.9 1157.5,10.9 1157.5,13.6 1154.8,13.6 
		1154.8,14.2 1158.2,14.2 	"/>
	<polygon opacity="0.8" fill="#FFFFFF" enable-background="new    " points="1150.5,13.6 1150.5,10.9 1149.8,10.9 1149.8,14.2 
		1153.2,14.2 1153.2,13.6 	"/>
</g>
<g>
	<g>
		<path fill="#1976D2" d="M1151.8,2.5c0,0.3,0,0.5-0.1,0.7c-0.1,0.2-0.2,0.4-0.3,0.5c-0.1,0.1-0.3,0.2-0.5,0.3
			c-0.2,0.1-0.4,0.1-0.6,0.1c-0.2,0-0.4,0-0.6-0.1c-0.2-0.1-0.4-0.2-0.5-0.3c-0.1-0.1-0.3-0.3-0.3-0.5c-0.1-0.2-0.1-0.4-0.1-0.7
			c0-0.3,0-0.5,0.1-0.7c0.1-0.2,0.2-0.4,0.3-0.5c0.1-0.1,0.3-0.2,0.5-0.3s0.4-0.1,0.6-0.1c0.2,0,0.4,0,0.6,0.1s0.4,0.2,0.5,0.3
			c0.1,0.1,0.3,0.3,0.3,0.5C1151.8,2,1151.8,2.3,1151.8,2.5z M1149.4,2.5c0,0.2,0,0.3,0.1,0.4c0,0.1,0.1,0.2,0.2,0.3
			c0.1,0.1,0.2,0.2,0.3,0.2c0.1,0,0.2,0.1,0.4,0.1c0.1,0,0.2,0,0.4-0.1c0.1,0,0.2-0.1,0.3-0.2c0.1-0.1,0.1-0.2,0.2-0.3
			c0-0.1,0.1-0.3,0.1-0.4c0-0.2,0-0.3-0.1-0.4c0-0.1-0.1-0.2-0.2-0.3c-0.1-0.1-0.2-0.2-0.3-0.2c-0.1,0-0.2-0.1-0.4-0.1
			c-0.1,0-0.3,0-0.4,0.1s-0.2,0.1-0.3,0.2c-0.1,0.1-0.1,0.2-0.2,0.3C1149.5,2.3,1149.4,2.4,1149.4,2.5z"/>
		<path fill="#1976D2" d="M1155.2,2.5c0,0.3,0,0.5-0.1,0.7c-0.1,0.2-0.2,0.4-0.4,0.5s-0.3,0.2-0.6,0.3s-0.5,0.1-0.8,0.1
			c-0.1,0-0.3,0-0.4,0s-0.3,0-0.5-0.1V1c0.2,0,0.3-0.1,0.5-0.1c0.2,0,0.3,0,0.5,0c0.3,0,0.5,0,0.7,0.1c0.2,0.1,0.4,0.2,0.6,0.3
			c0.2,0.1,0.3,0.3,0.4,0.5C1155.1,2,1155.2,2.3,1155.2,2.5z M1153.1,3.5c0,0,0.1,0,0.1,0s0.1,0,0.2,0c0.4,0,0.6-0.1,0.8-0.3
			c0.2-0.2,0.3-0.4,0.3-0.7c0-0.3-0.1-0.6-0.2-0.7c-0.2-0.2-0.4-0.3-0.8-0.3c0,0-0.1,0-0.1,0c-0.1,0-0.1,0-0.1,0V3.5z"/>
		<path fill="#1976D2" d="M1156.6,1c0.1,0.1,0.1,0.2,0.2,0.4c0.1,0.1,0.1,0.3,0.2,0.5c0.1,0.2,0.2,0.3,0.2,0.5
			c0.1,0.2,0.1,0.3,0.2,0.5c0.1-0.2,0.1-0.3,0.2-0.5c0.1-0.2,0.2-0.4,0.2-0.5c0.1-0.2,0.2-0.3,0.2-0.5s0.1-0.3,0.2-0.4h0.6
			c0,0.2,0.1,0.4,0.1,0.7c0,0.3,0,0.5,0.1,0.8s0,0.6,0.1,0.8c0,0.3,0,0.5,0,0.8h-0.7c0-0.3,0-0.6,0-1c0-0.4,0-0.7-0.1-1.1
			c-0.1,0.1-0.1,0.3-0.2,0.4c-0.1,0.2-0.1,0.3-0.2,0.5c-0.1,0.2-0.1,0.3-0.2,0.4c-0.1,0.1-0.1,0.3-0.2,0.4h-0.5
			c0-0.1-0.1-0.2-0.2-0.4c-0.1-0.1-0.1-0.3-0.2-0.4c-0.1-0.2-0.1-0.3-0.2-0.5c-0.1-0.2-0.1-0.3-0.2-0.4c0,0.4-0.1,0.7-0.1,1.1
			c0,0.4,0,0.7,0,1h-0.7c0-0.2,0-0.5,0-0.8c0-0.3,0-0.6,0.1-0.8s0-0.5,0.1-0.8c0-0.3,0.1-0.5,0.1-0.7H1156.6z"/>
	</g>
</g>
</svg>
