<?xml version="1.0" encoding="utf-8"?>
<!-- Generator: Adobe Illustrator 16.0.0, SVG Export Plug-In . SVG Version: 6.00 Build 0)  -->
<!DOCTYPE svg PUBLIC "-//W3C//DTD SVG 1.1//EN" "http://www.w3.org/Graphics/SVG/1.1/DTD/svg11.dtd">
<svg version="1.1" id="图层_1" xmlns="http://www.w3.org/2000/svg" xmlns:xlink="http://www.w3.org/1999/xlink" x="0px" y="0px"
	 width="22px" height="22px" viewBox="0 0 22 22" enable-background="new 0 0 22 22" xml:space="preserve">
<rect x="2.634" fill="#1B5E20" width="16.732" height="22"/>
<g>
	
		<linearGradient id="SVGID_1_" gradientUnits="userSpaceOnUse" x1="94.2002" y1="846.3008" x2="94.2002" y2="825.3008" gradientTransform="matrix(1 0 0 1 -83.2002 -824.8008)">
		<stop  offset="0" style="stop-color:#388E3C"/>
		<stop  offset="0.0757" style="stop-color:#43953E"/>
		<stop  offset="0.3246" style="stop-color:#62A943"/>
		<stop  offset="0.5665" style="stop-color:#79B747"/>
		<stop  offset="0.796" style="stop-color:#86C049"/>
		<stop  offset="1" style="stop-color:#8BC34A"/>
	</linearGradient>
	<rect x="3.133" y="0.5" fill="url(#SVGID_1_)" width="15.734" height="21"/>
	<path opacity="0.8" fill="#FFFFFF" enable-background="new    " d="M11.402,7.17V7.151h-0.805V7.17H5.4v10.133h11.2V7.17H11.402z
		 M6.205,10.178h2.501v1.619H6.205V10.178z M6.205,12.604h2.501v1.619H6.205V12.604z M9.538,12.604h6.257v1.619H9.538V12.604z
		 M9.538,11.797v-1.619h6.257v1.619H9.538z M15.795,7.983v1.391H9.538V7.983H15.795z M8.706,7.983v1.391H6.205V7.983H8.706z
		 M6.205,15.036h2.501v1.453H6.205V15.036z M9.538,16.489v-1.453h6.257v1.453H9.538z"/>
	<g>
		<rect x="3.129" y="0.5" opacity="0.8" fill="#FFFFFF" width="15.742" height="4.025"/>
	</g>
	<g>
		<path fill="#388E3C" d="M9.849,2.487c0,0.269-0.041,0.505-0.126,0.709C9.639,3.4,9.523,3.57,9.379,3.708
			C9.23,3.845,9.058,3.948,8.856,4.017c-0.202,0.07-0.419,0.104-0.651,0.104c-0.226,0-0.438-0.035-0.638-0.104
			c-0.201-0.069-0.375-0.172-0.524-0.31C6.893,3.57,6.775,3.4,6.69,3.196c-0.086-0.204-0.128-0.44-0.128-0.709
			s0.043-0.504,0.134-0.708c0.087-0.204,0.208-0.375,0.358-0.514c0.15-0.138,0.325-0.243,0.524-0.312
			c0.198-0.07,0.407-0.104,0.626-0.104c0.226,0,0.438,0.035,0.639,0.104c0.201,0.069,0.375,0.174,0.523,0.312
			c0.15,0.139,0.269,0.31,0.354,0.514C9.807,1.983,9.849,2.219,9.849,2.487z M7.329,2.487c0,0.154,0.021,0.293,0.059,0.417
			c0.041,0.124,0.098,0.229,0.173,0.318c0.073,0.09,0.165,0.158,0.273,0.207c0.107,0.048,0.232,0.072,0.371,0.072
			c0.137,0,0.26-0.024,0.369-0.072c0.109-0.048,0.203-0.117,0.276-0.207c0.075-0.089,0.132-0.195,0.173-0.318
			C9.062,2.78,9.082,2.641,9.082,2.487S9.062,2.194,9.023,2.069C8.982,1.944,8.926,1.836,8.851,1.748
			C8.777,1.659,8.684,1.59,8.574,1.541C8.465,1.493,8.342,1.469,8.205,1.469c-0.139,0-0.264,0.025-0.371,0.075
			c-0.108,0.05-0.2,0.119-0.273,0.208c-0.075,0.09-0.132,0.196-0.173,0.321C7.35,2.199,7.329,2.337,7.329,2.487z"/>
		<path fill="#388E3C" d="M12.808,0.921v0.603h-0.995v2.535h-0.744V1.523h-0.995V0.921H12.808z"/>
		<path fill="#388E3C" d="M14.186,3.52c0.104,0,0.191-0.008,0.26-0.025c0.068-0.017,0.123-0.04,0.164-0.068
			c0.041-0.028,0.071-0.062,0.085-0.102c0.017-0.039,0.024-0.083,0.024-0.131c0-0.103-0.049-0.188-0.153-0.256
			c-0.101-0.067-0.276-0.141-0.522-0.219c-0.109-0.036-0.216-0.078-0.325-0.125c-0.106-0.046-0.205-0.106-0.29-0.176
			c-0.084-0.071-0.155-0.157-0.21-0.258s-0.079-0.224-0.079-0.369c0-0.145,0.027-0.275,0.084-0.392
			c0.058-0.116,0.14-0.215,0.244-0.297c0.104-0.081,0.232-0.144,0.38-0.188c0.15-0.043,0.317-0.065,0.506-0.065
			c0.222,0,0.415,0.022,0.577,0.068c0.161,0.045,0.295,0.095,0.398,0.149l-0.213,0.557c-0.093-0.046-0.194-0.085-0.309-0.12
			c-0.112-0.035-0.249-0.052-0.408-0.052c-0.178,0-0.303,0.023-0.383,0.071c-0.076,0.046-0.117,0.118-0.117,0.214
			c0,0.058,0.017,0.106,0.044,0.145c0.03,0.039,0.068,0.075,0.123,0.106c0.052,0.032,0.112,0.061,0.181,0.085
			c0.068,0.026,0.142,0.053,0.227,0.08c0.17,0.061,0.32,0.12,0.445,0.179c0.129,0.059,0.232,0.127,0.317,0.206
			s0.147,0.171,0.188,0.276c0.041,0.106,0.063,0.233,0.063,0.385c0,0.292-0.109,0.52-0.325,0.681
			c-0.217,0.162-0.542,0.243-0.977,0.243c-0.145,0-0.279-0.009-0.396-0.025c-0.117-0.016-0.222-0.037-0.312-0.061
			c-0.091-0.024-0.167-0.05-0.232-0.077c-0.065-0.027-0.12-0.053-0.164-0.077l0.208-0.562c0.098,0.051,0.221,0.097,0.366,0.138
			C13.8,3.499,13.975,3.52,14.186,3.52z"/>
	</g>
</g>
</svg>
