<?xml version="1.0" encoding="utf-8"?>
<!-- Generator: Adobe Illustrator 16.0.0, SVG Export Plug-In . SVG Version: 6.00 Build 0)  -->
<!DOCTYPE svg PUBLIC "-//W3C//DTD SVG 1.1//EN" "http://www.w3.org/Graphics/SVG/1.1/DTD/svg11.dtd">
<svg version="1.1" id="图层_1" xmlns="http://www.w3.org/2000/svg" xmlns:xlink="http://www.w3.org/1999/xlink" x="0px" y="0px"
	 width="22px" height="22px" viewBox="0 0 22 22" enable-background="new 0 0 22 22" xml:space="preserve">
<polygon fill="#E65100" points="2.634,22 2.634,0 19.366,0 19.366,15.806 13.112,22 "/>
<g>
	<g>
		<g>
			
				<linearGradient id="SVGID_1_" gradientUnits="userSpaceOnUse" x1="52.6006" y1="-163.3999" x2="52.6006" y2="-142.4004" gradientTransform="matrix(1 0 0 -1 -41.6001 -141.9004)">
				<stop  offset="0" style="stop-color:#EE6F0B"/>
				<stop  offset="1" style="stop-color:#FFB74D"/>
			</linearGradient>
			<polygon fill="url(#SVGID_1_)" points="3.133,21.5 3.133,0.5 18.867,0.5 18.867,15.594 12.961,21.5 			"/>
		</g>
		<polygon fill="#E65100" fill-opacity="0.3922" points="18.867,15.594 18.867,15.34 12.637,15.34 12.637,21.5 12.961,21.5 		"/>
		<path fill="#FFFFFF" fill-opacity="0.3922" d="M12.951,15.594l5.916,0.008L12.961,21.5L12.951,15.594z"/>
	</g>
	<g opacity="0.8">
		<rect x="5.181" y="8.584" fill="#FFFFFF" width="1.68" height="8.418"/>
		<rect x="7.981" y="12.784" fill="#FFFFFF" width="1.68" height="4.208"/>
		<rect x="10.773" y="14.498" fill="#FFFFFF" width="1.68" height="2.521"/>
		<g>
			<path fill="#FFFFFF" d="M13.057,7.097l0.018,3.351l3.351-0.018c0.01,1.855-1.487,3.361-3.343,3.369
				c-1.854,0.01-3.359-1.488-3.368-3.342C9.705,8.61,11.201,7.105,13.057,7.097z"/>
			<path fill="#FFFFFF" d="M13.45,6.711c1.855-0.008,3.36,1.488,3.368,3.343l-3.351,0.018L13.45,6.711z"/>
		</g>
	</g>
	<g>
		<rect x="3.129" y="0.5" opacity="0.8" fill="#FFFFFF" enable-background="new    " width="15.742" height="4.025"/>
		<g enable-background="new    ">
			<path fill="#E64A19" d="M9.318,2.488c0,0.268-0.042,0.504-0.126,0.708C9.107,3.4,8.993,3.571,8.847,3.708
				s-0.32,0.241-0.522,0.309C8.124,4.087,7.906,4.122,7.675,4.122c-0.226,0-0.438-0.034-0.638-0.105
				C6.835,3.948,6.662,3.844,6.512,3.708C6.362,3.571,6.245,3.4,6.16,3.196c-0.086-0.204-0.13-0.44-0.13-0.708
				c0-0.269,0.045-0.506,0.134-0.709c0.089-0.204,0.209-0.375,0.36-0.514c0.152-0.139,0.325-0.243,0.525-0.312
				c0.198-0.07,0.406-0.104,0.626-0.104c0.226,0,0.438,0.035,0.639,0.104c0.199,0.069,0.375,0.173,0.523,0.312
				c0.149,0.139,0.267,0.31,0.353,0.514C9.276,1.982,9.318,2.219,9.318,2.488z M6.799,2.488c0,0.153,0.019,0.292,0.059,0.416
				c0.04,0.125,0.097,0.23,0.172,0.32c0.074,0.089,0.166,0.157,0.273,0.205c0.108,0.049,0.232,0.074,0.372,0.074
				c0.137,0,0.26-0.025,0.369-0.074C8.153,3.381,8.245,3.313,8.32,3.224c0.075-0.09,0.131-0.196,0.171-0.32
				c0.04-0.123,0.061-0.262,0.061-0.416c0-0.154-0.021-0.294-0.061-0.418C8.452,1.944,8.396,1.836,8.32,1.748
				S8.153,1.59,8.044,1.541C7.935,1.493,7.812,1.469,7.675,1.469c-0.139,0-0.264,0.025-0.372,0.075s-0.2,0.119-0.273,0.208
				c-0.075,0.09-0.133,0.196-0.172,0.321C6.818,2.198,6.799,2.337,6.799,2.488z"/>
			<path fill="#E64A19" d="M12.831,2.488c0,0.271-0.046,0.509-0.135,0.711c-0.089,0.203-0.216,0.369-0.378,0.502
				C12.155,3.833,11.956,3.933,11.721,4c-0.235,0.065-0.499,0.099-0.792,0.099c-0.133,0-0.288-0.006-0.466-0.017
				c-0.178-0.01-0.353-0.031-0.525-0.065V0.962c0.173-0.03,0.351-0.05,0.536-0.062c0.186-0.01,0.346-0.016,0.479-0.016
				c0.284,0,0.54,0.03,0.771,0.091c0.229,0.061,0.426,0.155,0.593,0.285c0.164,0.13,0.291,0.296,0.38,0.498
				S12.831,2.204,12.831,2.488z M10.682,3.483c0.035,0.002,0.075,0.005,0.121,0.007c0.046,0.001,0.101,0.001,0.164,0.001
				c0.372,0,0.647-0.087,0.827-0.265c0.18-0.179,0.269-0.425,0.269-0.738c0-0.33-0.085-0.578-0.257-0.747
				c-0.171-0.169-0.443-0.253-0.815-0.253c-0.049,0-0.103,0-0.155,0.002c-0.055,0.002-0.105,0.005-0.153,0.012V3.483z"/>
			<path fill="#E64A19" d="M14.441,0.885c0.492,0,0.869,0.083,1.133,0.247c0.265,0.165,0.396,0.434,0.396,0.808
				c0,0.377-0.133,0.649-0.399,0.816c-0.268,0.168-0.647,0.251-1.145,0.251h-0.233v1.05H13.45V0.966
				c0.162-0.03,0.332-0.051,0.514-0.063C14.146,0.891,14.305,0.885,14.441,0.885z M14.487,1.487c-0.053,0-0.106,0.001-0.158,0.004
				c-0.052,0.003-0.099,0.006-0.137,0.009v0.905h0.233c0.259,0,0.451-0.033,0.581-0.1c0.132-0.067,0.197-0.19,0.197-0.371
				c0-0.088-0.018-0.16-0.052-0.217c-0.033-0.058-0.079-0.104-0.143-0.138c-0.062-0.035-0.137-0.059-0.227-0.072
				C14.695,1.494,14.597,1.487,14.487,1.487z"/>
		</g>
	</g>
</g>
</svg>
