<?xml version="1.0" encoding="utf-8"?>
<!-- Generator: Adobe Illustrator 16.0.0, SVG Export Plug-In . SVG Version: 6.00 Build 0)  -->
<!DOCTYPE svg PUBLIC "-//W3C//DTD SVG 1.1//EN" "http://www.w3.org/Graphics/SVG/1.1/DTD/svg11.dtd">
<svg version="1.1" id="图层_1" xmlns="http://www.w3.org/2000/svg" xmlns:xlink="http://www.w3.org/1999/xlink" x="0px" y="0px"
	 width="22px" height="22px" viewBox="0 0 22 22" enable-background="new 0 0 22 22" xml:space="preserve">
<polygon fill="#01579B" points="2.634,22 2.634,0 19.366,0 19.366,15.807 13.111,22 "/>
<g>
	<g>
		<g>
			<g>
				
					<linearGradient id="SVGID_1_" gradientUnits="userSpaceOnUse" x1="94.1992" y1="-582.3003" x2="94.1992" y2="-561.3008" gradientTransform="matrix(1 0 0 -1 -83.2002 -560.8008)">
					<stop  offset="0" style="stop-color:#2196F3"/>
					<stop  offset="0.5828" style="stop-color:#3DBAE8"/>
					<stop  offset="1" style="stop-color:#4DD0E1"/>
				</linearGradient>
				<polygon fill="url(#SVGID_1_)" points="3.132,21.5 3.132,0.5 18.865,0.5 18.865,15.594 12.959,21.5 				"/>
			</g>
			<polygon fill="#01579B" fill-opacity="0.39" points="18.865,15.594 18.865,15.34 12.636,15.34 12.636,21.5 12.959,21.5 			"/>
			<path fill="#FFFFFF" fill-opacity="0.3922" d="M12.951,15.594l5.916,0.008L12.959,21.5L12.951,15.594z"/>
		</g>
		<g>
			<circle opacity="0.8" fill="#FFFFFF" enable-background="new    " cx="13.79" cy="8.944" r="1.112"/>
			<path opacity="0.8" fill="#FFFFFF" enable-background="new    " d="M5.531,6.625V13.8h10.938V6.625H5.531z M15.68,7.413v5.6l0,0
				l-2.537-1.802l-1.813,1.11L9.004,9.513l-2.687,3.5v-5.6H15.68z"/>
		</g>
	</g>
	<g>
		<rect x="3.129" y="0.5" opacity="0.8" fill="#FFFFFF" enable-background="new    " width="15.742" height="4.025"/>
		<g enable-background="new    ">
			<path fill="#0288D1" d="M9.15,1.464c-0.345,0-0.597,0.091-0.749,0.273c-0.156,0.184-0.232,0.433-0.232,0.75
				c0,0.154,0.019,0.294,0.057,0.419c0.039,0.125,0.096,0.233,0.173,0.323C8.475,3.32,8.57,3.39,8.683,3.44
				c0.115,0.05,0.249,0.075,0.402,0.075c0.082,0,0.152-0.001,0.213-0.004c0.058-0.003,0.109-0.009,0.153-0.019V2.401h0.743v1.553
				C10.107,3.987,9.962,4.022,9.766,4.06c-0.197,0.038-0.44,0.057-0.73,0.057c-0.246,0-0.47-0.036-0.673-0.108
				C8.16,3.936,7.988,3.831,7.846,3.692C7.704,3.553,7.592,3.382,7.515,3.18C7.437,2.978,7.397,2.747,7.397,2.487
				c0-0.263,0.044-0.495,0.129-0.697C7.61,1.588,7.729,1.417,7.879,1.276S8.204,1.03,8.406,0.958c0.2-0.073,0.416-0.109,0.646-0.109
				c0.156,0,0.295,0.01,0.421,0.029c0.126,0.02,0.232,0.042,0.325,0.068c0.091,0.025,0.164,0.052,0.222,0.08
				c0.061,0.026,0.102,0.048,0.129,0.063L9.933,1.655C9.831,1.604,9.714,1.559,9.582,1.521C9.451,1.483,9.306,1.464,9.15,1.464z"/>
			<path fill="#0288D1" d="M10.887,0.921h0.743v3.137h-0.743V0.921z"/>
			<path fill="#0288D1" d="M12.391,4.058V0.921h2.212v0.594h-1.469v0.656h1.308v0.592h-1.308v1.295H12.391z"/>
		</g>
	</g>
</g>
<g>
	<g>
		<g>
			<g>
				
					<linearGradient id="SVGID_2_" gradientUnits="userSpaceOnUse" x1="94.1992" y1="-582.3003" x2="94.1992" y2="-561.3008" gradientTransform="matrix(1 0 0 -1 -83.2002 -560.8008)">
					<stop  offset="0" style="stop-color:#2196F3"/>
					<stop  offset="0.5828" style="stop-color:#3DBAE8"/>
					<stop  offset="1" style="stop-color:#4DD0E1"/>
				</linearGradient>
				<polygon fill="url(#SVGID_2_)" points="3.132,21.5 3.132,0.5 18.865,0.5 18.865,15.594 12.959,21.5 				"/>
			</g>
			<polygon fill="#01579B" fill-opacity="0.39" points="18.865,15.594 18.865,15.34 12.636,15.34 12.636,21.5 12.959,21.5 			"/>
			<path fill="#FFFFFF" fill-opacity="0.3922" d="M12.951,15.594l5.916,0.008L12.959,21.5L12.951,15.594z"/>
		</g>
		<g>
			<circle opacity="0.8" fill="#FFFFFF" enable-background="new    " cx="13.79" cy="8.944" r="1.112"/>
			<path opacity="0.8" fill="#FFFFFF" enable-background="new    " d="M5.531,6.625V13.8h10.938V6.625H5.531z M15.68,7.413v5.6l0,0
				l-2.537-1.802l-1.813,1.11L9.004,9.513l-2.687,3.5v-5.6H15.68z"/>
		</g>
	</g>
	<g>
		<rect x="3.129" y="0.5" opacity="0.8" fill="#FFFFFF" enable-background="new    " width="15.742" height="4.025"/>
		<g enable-background="new    ">
			<path fill="#0288D1" d="M8.903,0.921v0.603H7.906v2.535H7.164V1.523H6.167V0.921H8.903z"/>
			<path fill="#0288D1" d="M9.38,0.921h0.742v3.137H9.38V0.921z"/>
			<path fill="#0288D1" d="M10.887,4.058V0.921h2.209v0.594h-1.468v0.656h1.307v0.592h-1.307v1.295H10.887z"/>
			<path fill="#0288D1" d="M13.621,4.058V0.921h2.209v0.594h-1.466v0.656h1.305v0.592h-1.305v1.295H13.621z"/>
		</g>
	</g>
</g>
</svg>
