<?xml version="1.0" encoding="utf-8"?>
<!-- Generator: Adobe Illustrator 16.0.0, SVG Export Plug-In . SVG Version: 6.00 Build 0)  -->
<!DOCTYPE svg PUBLIC "-//W3C//DTD SVG 1.1//EN" "http://www.w3.org/Graphics/SVG/1.1/DTD/svg11.dtd">
<svg version="1.1" id="图层_1" xmlns="http://www.w3.org/2000/svg" xmlns:xlink="http://www.w3.org/1999/xlink" x="0px" y="0px"
	 width="22px" height="22px" viewBox="0 0 22 22" enable-background="new 0 0 22 22" xml:space="preserve">
<rect x="2.634" fill="#0D47A1" width="16.732" height="22"/>
<g>
	
		<linearGradient id="SVGID_1_" gradientUnits="userSpaceOnUse" x1="52.6006" y1="-163.3999" x2="52.6006" y2="-142.4004" gradientTransform="matrix(1 0 0 -1 -41.6001 -141.9004)">
		<stop  offset="0" style="stop-color:#1976D2"/>
		<stop  offset="0.0226" style="stop-color:#1C79D3"/>
		<stop  offset="0.2859" style="stop-color:#3B93E2"/>
		<stop  offset="0.5416" style="stop-color:#52A6ED"/>
		<stop  offset="0.7843" style="stop-color:#5FB1F4"/>
		<stop  offset="1" style="stop-color:#64B5F6"/>
	</linearGradient>
	<rect x="3.133" y="0.5" fill="url(#SVGID_1_)" width="15.734" height="21"/>
	<path fill="#64B5F6" d="M16.469,9.425c0,3.019-2.45,5.469-5.469,5.469s-5.469-2.45-5.469-5.469S7.981,3.956,11,3.956
		S16.469,6.406,16.469,9.425z"/>
	<path fill="#FFFFFF" fill-opacity="0.8" d="M7.412,5.304c0,0,0.113,0.06,0.157,0.157c0.036,0.096,0.157,0.096,0.157,0.096h0.175
		l0.255-0.078L8.095,5.619c0,0-1.339,0.621-1.068,0.989c0.272,0.368,0.176,0.463,0.176,0.578c0,0.113,0.079,0.017,0.079,0.017
		L7.36,6.993l0.113-0.157l0.113-0.175l0.036-0.097L7.78,6.293l0.192-0.114l0.175,0.114c0,0,0.078,0.034,0.061,0.096
		C8.191,6.45,8.174,6.563,8.174,6.563S8.208,6.643,8.27,6.643s0.157-0.062,0.157-0.062l0.079,0.14l0.062,0.254l0.157,0.157
		l0.079,0.175L8.725,7.464l0.079,0.062l0.176,0.193l0.034,0.096L8.725,7.798c0,0-0.035-0.079-0.096-0.079
		c-0.062,0-0.306-0.018-0.306-0.018L8.182,7.736L8.104,7.832c0,0-0.098,0.157-0.159,0.157c-0.06,0-0.209-0.034-0.209-0.034
		S7.623,7.92,7.562,8.033C7.5,8.148,7.657,8.208,7.657,8.208l-0.271,0.08l-0.08,0.036c0,0-0.192,0.078-0.192,0.139s0,0.062,0,0.062
		L7.054,8.681v0.096L6.913,8.892l-0.14,0.096L6.712,9.101v0.193c0,0-0.018,0.096-0.018,0.157s0,0.21,0,0.21S6.633,9.723,6.599,9.6
		C6.563,9.486,6.563,9.486,6.563,9.486L6.502,9.346c0,0,0.062-0.017-0.017-0.078C6.406,9.206,6.327,9.188,6.327,9.188
		S6.293,9.154,6.213,9.154c-0.077,0,0.098,0.017-0.077,0C5.96,9.137,5.96,9.137,5.96,9.137L5.819,9.25v0.096
		c0,0-0.034,0.684,0.157,0.779h0.079L6.17,9.95l0.097,0.035v0.078l-0.018,0.141v0.078l0.096,0.097l0.062,0.175
		c0.079,0.14,0.035,0.175,0.096,0.209c0.062,0.035,0.114,0.141,0.114,0.141l0.078,0.034c0,0,0.062,0.018,0.113,0.036
		c0.062,0.018,0.062,0.018,0.062,0.018l0.019,0.087l0.018,0.07l0.078,0.096c0,0-0.061,0,0.079,0s0.14,0,0.14,0s0,0.036,0.097,0.08
		c0.096,0.034,0.018,0.018,0.096,0.034c0.079,0.018,0.211,0.035,0.211,0.035c0.139-0.018,0.139-0.018,0.139-0.018l0.098,0.141
		c0,0,0.06,0,0.078,0.061c0.018,0.062-0.096,0,0.018,0.062s0,0.018,0.113,0.062s-0.034,0.035,0.113,0.035
		c0.149,0,0.175,0,0.236,0.017c0.062,0.018,0.098,0.158,0.098,0.158c0.113,0.14,0.113,0.14,0.113,0.14l0.018,0.175
		c0,0-0.062,0.036,0.078,0.036c0.141,0,0.035,0,0.141,0c0.104,0-0.018-0.036,0.096,0c0.113,0.034,0.113,0.034,0.113,0.034
		s0.176,0.141,0.237,0.141s0.175-0.018,0.236,0c0.062,0.017,0.096,0.113,0.209,0.14c0.115,0.018,0.158,0,0.236,0.062
		c0.079,0.062,0.079,0.062,0.079,0.062l0.019,0.209l-0.062,0.113l-0.157,0.062l-0.019,0.193l-0.079,0.192v0.096
		c0,0,0.098,0.079-0.078,0.097c-0.175,0.017-0.175,0.017-0.175,0.017l-0.079,0.079c0,0,0,0.018-0.035,0.08
		c-0.034,0.06-0.078,0.156-0.078,0.156l0.018,0.176v0.113l-0.062,0.096c0,0-0.054,0.027,0.096,0.123
		c0.157,0.096,0.28,0.096,0.315,0.157c0.034,0.062,0.132,0.113,0.132,0.113L9.6,14.727l-0.131-0.043L9.25,14.623l-0.42-0.219
		c0,0-0.63-0.517-0.823-0.937c0,0-0.165-0.245-0.445-0.351c0,0-0.692-0.63-0.754-0.787l-0.025-0.105v-0.052l-0.026-0.027v-0.06
		l-0.018-0.044l0.01-0.192l0.008-0.132l0.009-0.069l-0.009-0.054c0,0-0.035-0.034-0.035-0.044c0-0.008-0.026-0.087-0.026-0.087
		l-0.008-0.026l0.105-0.087l-0.027-0.08l0.018-0.043l0.062-0.044c0,0,0.035-0.052,0.035-0.06c0-0.018-0.062-0.062-0.062-0.062
		L6.792,11.07l-0.027,0.079H6.73c0,0-0.036-0.018-0.036-0.026c0-0.01-0.034-0.044-0.034-0.044l-0.044-0.018
		c0,0-0.035-0.01-0.043-0.026c-0.01-0.018-0.054-0.044-0.054-0.053c0-0.008-0.034-0.062-0.034-0.062l-0.044-0.017
		c0,0-0.053-0.079-0.053-0.097c0-0.008-0.026-0.052-0.026-0.052s-0.062-0.07-0.062-0.08c0-0.008-0.026-0.069-0.026-0.069H6.231
		l-0.096-0.036l-0.062-0.078l-0.07-0.079c0,0-0.035-0.062-0.035-0.078c0-0.018-0.026-0.036-0.026-0.036H5.898H5.873l-0.062-0.052
		l-0.157-0.219L5.627,9.932L5.601,9.827L5.583,9.652V9.539L5.514,8.725C5.539,8.733,5.775,6.721,7.412,5.304z"/>
	<path fill="#FFFFFF" fill-opacity="0.8" d="M13.589,4.621l0.176,0.141l0.087,0.043l0.062,0.07l0.01,0.07
		c0,0,0.017,0.07,0.008,0.087c-0.008,0.018-0.018,0.113-0.018,0.113s0.079,0.141,0.079,0.159c0,0.017,0.009,0.096-0.009,0.114
		c-0.017,0.008-0.114,0.069-0.122,0.043c-0.01-0.026-0.069-0.087-0.088-0.087c-0.018-0.01-0.069-0.062-0.069-0.062l0.14-0.018
		l-0.018-0.088c0,0-0.096-0.034-0.122-0.034c-0.027-0.009-0.123-0.062-0.123-0.062l-0.105-0.026c0,0-0.175-0.043-0.192-0.053
		c-0.017-0.008-0.088-0.034-0.088-0.034h-0.147c0,0-0.071,0.034-0.088,0.052c-0.009,0.018-0.097,0.114-0.097,0.114
		s-0.008,0.113-0.008,0.131c0,0.018-0.026,0.062-0.026,0.113c0,0.053-0.01,0.123-0.01,0.141c0,0.018,0,0.044,0,0.044l-0.018,0.078
		l-0.061,0.035l-0.079,0.062c0,0-0.069,0.052-0.069,0.07c0,0.018,0,0.087,0.025,0.14c0.026,0.053,0.019,0.105,0.053,0.131
		c0.035,0.027,0.053,0.062,0.079,0.071c0.025,0.008,0.008,0.017,0.052,0.017c0.035,0,0.071,0.009,0.088-0.008
		c0.018-0.008,0.062-0.008,0.079-0.036c0.018-0.026-0.018-0.008,0.018-0.026c0.034-0.008,0.034-0.034,0.062-0.008
		c0.034,0.026,0.061,0.062,0.069,0.078c0.009,0.018,0.034,0.062,0.062,0.087c0.034,0.018,0.061,0.087,0.061,0.087l0.054,0.053
		c0,0,0.008,0.008,0.043,0.008c0.034,0,0.088-0.008,0.088-0.008l0.018-0.035c0,0,0.034,0.009,0.044-0.008
		c0.008-0.018,0.008-0.044,0.008-0.044s-0.018-0.053-0.035-0.07c-0.008-0.018-0.026-0.062-0.026-0.062l0.01-0.062l0.034-0.035
		l0.01-0.044V6.013L13.45,5.995L13.389,5.96c0,0-0.034,0.008-0.034-0.036c-0.01-0.035-0.01-0.035-0.01-0.035l-0.078-0.017
		l-0.054-0.027l0.062-0.044c0.036-0.06,0.044-0.078,0.044-0.096c0-0.018-0.008-0.069-0.008-0.069s-0.036-0.01-0.036-0.054
		c-0.008-0.043-0.008-0.069-0.008-0.069l0.008-0.034c0,0,0.009-0.027,0.036-0.027c0.017,0,0.052,0.027,0.069,0.027
		s0.052,0.008,0.052,0.008s0.019,0.008,0.019,0.036c0,0.017-0.009,0.06-0.009,0.06l0.034-0.052v0.062l-0.008,0.07v0.07l0.034,0.069
		l0.035,0.054c0,0,0.044,0.043,0.062,0.062C13.616,5.925,13.66,5.96,13.66,5.96l0.052,0.026l0.036,0.008l0.034-0.034
		c0,0,0.062,0.008,0.062-0.009c0.008-0.018,0.008-0.018,0.008-0.018s0.071-0.008,0.088-0.008c0.018,0,0.053,0,0.053,0
		s0.026,0.052,0.009,0.052s-0.026,0.018-0.07,0.036c-0.043,0.008-0.062,0-0.069,0.018c-0.01,0.018-0.035,0.062-0.035,0.062
		L13.861,6.1h0.026l0.035,0.036c0,0,0.008,0.008,0,0.034c-0.01,0.026,0.034,0.018-0.01,0.026c-0.052,0.009-0.078-0.008-0.078-0.008
		S13.826,6.144,13.8,6.162c-0.018,0.018-0.026,0.062-0.026,0.062v0.06l0.034,0.087c0,0,0.019,0.018,0,0.027
		c-0.016,0.008-0.077,0.078-0.077,0.078s-0.01,0.026-0.036,0.026c-0.018,0-0.044,0-0.087,0.01c-0.034,0.008-0.034,0.008-0.07,0.018
		c-0.035,0.008-0.062,0.017-0.113,0.026c-0.054,0.008-0.149,0.008-0.185,0.008c-0.034,0-0.044,0-0.061-0.008
		c-0.018-0.009-0.009,0-0.035-0.036c-0.026-0.034-0.052-0.062-0.052-0.087c0-0.018,0-0.026-0.01-0.062
		c-0.008-0.034-0.008-0.06-0.034-0.06c-0.035,0-0.035,0-0.035,0s-0.07,0.052-0.062,0.07c0.009,0.018-0.009,0,0.053,0.043
		c0.061,0.044,0.078,0.105,0.078,0.105l-0.008,0.06L12.96,6.651l-0.079,0.026L12.873,6.73c0,0,0,0.018-0.018,0.043
		c-0.019,0.026-0.062,0.062-0.062,0.062S12.758,6.844,12.75,6.87c-0.009,0.018-0.036,0.087-0.036,0.087s-0.034-0.008-0.069,0.018
		c-0.034,0.026,0.01,0.026-0.069,0.062c-0.08,0.034-0.08,0.034-0.08,0.034l-0.087-0.008L12.356,7.08c0,0-0.07,0.008-0.08,0.026
		c-0.008,0.018-0.043,0.069-0.043,0.069s-0.017,0.036,0,0.036c0.018,0.008,0.043,0,0.087,0.008c0.036,0.01,0.044,0.01,0.071,0.026
		c0.026,0.01,0.052,0.036,0.052,0.036l0.096,0.087l0.054,0.114l-0.01,0.087l-0.104,0.036c0,0-0.062,0-0.088,0
		c-0.018,0-0.01,0-0.115,0c-0.104,0-0.121,0-0.139,0c-0.019,0-0.088-0.01-0.088-0.01l-0.062,0.01L11.944,7.64l-0.025,0.009
		c0,0,0.035,0.078,0.035,0.105c0,0.026,0,0.06,0,0.06l-0.01,0.053l-0.025,0.062l-0.036,0.06l0.01,0.036c0,0-0.01,0.026,0.008,0.026
		c0.019,0,0.07-0.008,0.07,0.01c0,0.017-0.044,0.087-0.044,0.087l0.088,0.017c0,0-0.009-0.008,0.043,0.009
		C12.111,8.182,12.146,8.2,12.146,8.2l0.062,0.043l0.018,0.036l0.018-0.036c0,0,0.096-0.008,0.114-0.018
		c0.018-0.008,0.062-0.008,0.062-0.008h0.077c0,0,0.019,0.008,0.036-0.01c0.008-0.016,0.008-0.016,0.008-0.016
		s0.088-0.036,0.105-0.053c0.018-0.008,0.026-0.062,0.026-0.062s0.027-0.017,0.027-0.034c0-0.018-0.019-0.062-0.019-0.062V7.946
		l0.026-0.034c0,0,0.008-0.01,0.035-0.036c0.026-0.026,0.026-0.026,0.026-0.026s-0.01-0.008,0.026-0.026
		c0.035-0.01,0.062-0.036,0.079-0.036c0.017,0-0.018,0.018,0.017,0c0.035-0.018,0.043-0.034,0.043-0.062
		c0-0.017,0.01-0.114,0.01-0.114l0.034-0.052l0.088,0.008l0.044,0.009c0,0,0.053,0.008,0.062-0.009
		c0.009-0.018,0.035-0.034,0.035-0.034L13.274,7.5c0,0-0.008-0.008,0.026-0.008c0.035,0,0.088,0,0.113,0c0.018,0,0.062,0,0.062,0
		s0.036,0.017,0.054,0.034c0.008,0.018,0.034,0.062,0.034,0.062l0.025,0.036h0.027c0.034,0.026,0.053,0.044,0.114,0.06
		c0.062,0.018,0.104,0.036,0.104,0.036s0.017,0.036,0.034,0.052c0.019,0.018,0.036,0.036,0.062,0.054
		c0.019,0.008,0.036,0.026,0.044,0.043c0.009,0.018,0.036,0.052,0.036,0.052l0.034,0.035l0.018-0.035V7.858l-0.009-0.034
		c0,0-0.035-0.026,0.009-0.026c0.035,0,0.062,0,0.062,0l-0.036-0.053l-0.043-0.018l-0.062-0.044l-0.026-0.026l-0.026-0.008
		l-0.025-0.018l-0.036-0.026c0,0-0.062-0.01-0.062-0.036C13.8,7.552,13.8,7.552,13.8,7.552l-0.062-0.008
		c0,0-0.062-0.036-0.062-0.052c0-0.018-0.008-0.071-0.008-0.071l-0.053-0.008c0,0,0.009-0.036,0.009-0.062
		c0-0.018,0.018-0.044,0.018-0.044l0.113-0.008l0.026,0.062l0.044,0.026l0.062,0.026l0.025,0.036l0.026,0.026
		c0,0,0.01,0.008,0.044,0.018c0.035,0.008,0.062,0.017,0.062,0.017s0.035,0.036,0.062,0.036c0.025,0.008,0.035,0.018,0.062,0.026
		c-0.019,0.018-0.019,0.018-0.019,0.018s0.009,0.018,0.036,0.036c0.025,0.017,0.052,0.052,0.052,0.07
		c0,0.018,0.018,0.078,0.035,0.087c0.017,0.008,0.026,0.008,0.061,0.044c0.035,0.034,0.035,0.069,0.062,0.087
		c0.035,0.008,0.062,0,0.062,0.034c0.008,0.036,0.008,0.062,0.008,0.062s0.027,0.009,0.046,0.009c0.017,0,0.052-0.035,0.052-0.035
		s0.035-0.052,0.008-0.062c-0.016-0.008-0.06-0.008-0.06-0.026c0-0.018,0-0.113,0-0.113l0.025-0.062l0.034-0.052l0.054,0.016
		l0.052-0.034l0.054,0.062l-0.018,0.07c0,0,0.008,0.044,0.034,0.078c0.018,0.035,0.062,0.079,0.062,0.079l0.087,0.079l0.123,0.034
		l0.026-0.008l0.183-0.036c0,0,0.027,0,0.044,0c0.018,0,0.105,0.149,0.105,0.149s0,0.062,0,0.096c0,0.036,0,0.123,0,0.123
		s-0.062,0.062-0.088,0.062c-0.025,0-0.096,0.034-0.096,0.034l-0.148,0.036l-0.096-0.008l-0.175-0.01c0,0-0.176-0.008-0.193-0.008
		s-0.079,0-0.097,0c-0.019,0-0.044,0.018-0.062,0.069c-0.017,0.052-0.053,0.07-0.053,0.07s0,0.026-0.035,0.026
		c-0.034,0-0.034,0.01-0.061-0.008c-0.027-0.018-0.148-0.044-0.148-0.044l-0.113-0.079l-0.062-0.052l-0.062-0.008h-0.176
		l-0.113-0.009l0.018-0.183l0.017,0.052l-0.034-0.122l-0.053-0.036L13.424,8.13l-0.079,0.008l-0.105,0.026L13.136,8.2l-0.062,0.018
		L12.775,8.27l-0.104,0.044c0,0-0.044,0.026-0.061,0.036c-0.018,0.008-0.088,0.008-0.088,0.008s-0.053-0.008-0.079-0.018
		c-0.025-0.008-0.087-0.008-0.113-0.008s-0.079-0.008-0.097,0c-0.017,0.008-0.034,0.008-0.053,0.036
		c-0.018,0.026-0.079,0.096-0.079,0.096s-0.034,0.036-0.052,0.052c-0.008,0.018-0.052,0.071-0.052,0.071l-0.071,0.114l-0.044,0.052
		l0.01,0.062v0.044c0,0-0.026,0.026-0.044,0.035c-0.018,0.008-0.053,0.026-0.053,0.026s-0.026,0.008-0.053,0.034
		C11.718,8.97,11.718,8.979,11.7,8.996c-0.019,0.018-0.08,0.062-0.08,0.062s-0.034,0.026-0.06,0.053
		c-0.018,0.026-0.054,0.061-0.062,0.078c-0.01,0.018-0.036,0.036-0.054,0.044c-0.017,0.009-0.052,0.079-0.06,0.097
		c-0.01,0.017-0.062,0.096-0.062,0.096l-0.036,0.149L11.28,9.644c0,0,0.008,0.026,0.025,0.044c0.019,0.018,0.036,0.087,0.036,0.087
		v0.062c0,0-0.018,0.052-0.027,0.07c-0.009,0.018,0.01,0.105,0.01,0.105v0.052c0,0,0,0.018-0.026,0.044
		c-0.027,0.026-0.035,0.062-0.035,0.062l0.035,0.079l0.026,0.052v0.036l0.034,0.06c0,0,0.018,0.018,0.035,0.036
		c0.018,0.008,0.026,0.008,0.062,0.036c0.034,0.017,0.034,0.017,0.034,0.017s0.054,0.062,0.054,0.087
		c0,0.018,0.034,0.053,0.034,0.053l0.062,0.062c0,0,0.009,0.034,0.043,0.06c0.036,0.027,0.07,0.044,0.088,0.062
		c0.018,0.01,0.069,0.053,0.113,0.062c0.036,0.008,0.054,0.018,0.071,0.018c0.017,0-0.027-0.054,0.096,0.008
		s0.201,0.088,0.201,0.088l0.087,0.035c0,0,0.142,0.008,0.157-0.009C12.514,11,12.539,11,12.557,11c0.019,0,0.062,0,0.098,0
		c0.034,0,0.157-0.018,0.157-0.018l0.14-0.052c0,0,0.043-0.026,0.062-0.036c0.018-0.008,0.069-0.043,0.087-0.052
		c0.018-0.01,0.105-0.01,0.105-0.01s0-0.026,0.034,0c0.035,0.027,0.035,0.036,0.044,0.054c0.01,0.018,0.01,0.062,0.035,0.062
		c0.026,0.008,0.088,0.026,0.088,0.026s0.087-0.01,0.113,0c0.026,0.008,0.088,0.008,0.088,0.008l0.025,0.035l0.01,0.078v0.071
		c0,0-0.01,0.026,0,0.052c0.008,0.026,0.034,0.07,0.034,0.07s-0.034,0.053-0.052,0.062s-0.062,0.062-0.062,0.062l0.123,0.114
		l0.069,0.069l0.052,0.062c0,0,0.01,0.025,0.01,0.044c0,0.018-0.01,0.062,0,0.087c0.009,0.018,0.009,0.088,0.009,0.088
		s0.009,0.052,0.009,0.07c0,0.018-0.018,0.104-0.018,0.104l-0.01,0.062l-0.034,0.105l-0.043,0.052l-0.062,0.062l-0.044,0.07
		l-0.009,0.096l-0.035,0.061c0,0,0.008,0.054,0.008,0.08c0,0.025,0.054,0.121,0.054,0.121l-0.01,0.08c0,0-0.034,0.113-0.034,0.139
		c0,0.027-0.025,0.063-0.025,0.088c0,0.018-0.01,0.098-0.01,0.098l0.01,0.096l0.034,0.097l-0.034,0.087c0,0-0.019,0.07-0.019,0.113
		c0,0.035,0.062,0.078,0.078,0.078c0.018,0,0.098-0.008,0.132-0.033c0.035-0.019,0.123-0.045,0.141-0.054s0.034,0.009,0.087-0.034
		c0.053-0.035,0.132-0.098,0.132-0.098s0.062-0.043,0.087-0.06c0.019-0.019,0.105-0.115,0.105-0.115s0.061-0.06,0.104-0.087
		c0.043-0.026,0-0.009,0.043-0.035c0.046-0.025,0.186-0.141,0.186-0.141l0.139-0.139c0,0,0.123-0.158,0.142-0.184
		c0.018-0.027,0.131-0.175,0.148-0.185c0.017-0.009,0.175-0.113,0.209-0.14c0.036-0.025,0.08-0.211,0.098-0.236
		c0.017-0.018,0.113-0.236,0.113-0.236l0.088-0.253l0.148-0.377l0.147-0.263c0,0,0.062-0.113,0.088-0.147
		c0.018-0.036,0.158-0.306,0.158-0.306l0.053-0.229l0.018-0.193H16.11l-0.097,0.087l-0.088-0.026l-0.087,0.01l0.097-0.123
		l-0.026-0.096L15.83,9.88l-0.105-0.157V9.564l-0.113-0.183l-0.069-0.289c0,0-0.132-0.141-0.113-0.175
		c0.008-0.036,0.043-0.141,0.043-0.141l0.07,0.036c0,0,0.052,0.14,0.078,0.149c0.027,0.008,0.062,0.078,0.07,0.096
		c0.009,0.018,0.017,0.08,0.034,0.097c0.01,0.017,0.07,0.131,0.07,0.131s0.044,0.113,0.053,0.139
		c0.009,0.018,0.053,0.088,0.062,0.14c0.009,0.053,0.034,0.219,0.034,0.236c0,0.018,0.044,0.201,0.044,0.201s0.062-0.017,0.07-0.034
		s0.009-0.026,0.027-0.044c0.008-0.018,0.113-0.097,0.113-0.097l0.044-0.14c0,0,0.025-0.062,0.034-0.087s0.062-0.123,0.062-0.14
		c0-0.018-0.009-0.087,0-0.115c0.009-0.017,0.035-0.122,0.035-0.14c0-0.018,0.008-0.087,0.008-0.087l-0.008-0.157l0.069-0.087
		l0.036-0.097C16.461,8.743,16.206,5.995,13.589,4.621z"/>
</g>
</svg>
