<?xml version="1.0" encoding="utf-8"?>
<!-- Generator: Adobe Illustrator 16.0.0, SVG Export Plug-In . SVG Version: 6.00 Build 0)  -->
<!DOCTYPE svg PUBLIC "-//W3C//DTD SVG 1.1//EN" "http://www.w3.org/Graphics/SVG/1.1/DTD/svg11.dtd">
<svg version="1.1" id="图层_1" xmlns="http://www.w3.org/2000/svg" xmlns:xlink="http://www.w3.org/1999/xlink" x="0px" y="0px"
	 width="22px" height="22px" viewBox="0 0 22 22" enable-background="new 0 0 22 22" xml:space="preserve">
<polygon fill="#3E2723" points="2.634,22 2.634,0 19.366,0 19.366,15.807 13.111,22 "/>
<g>
	<g>
		
			<linearGradient id="SVGID_1_" gradientUnits="userSpaceOnUse" x1="52.5996" y1="-142.4004" x2="52.5996" y2="-163.4009" gradientTransform="matrix(1 0 0 -1 -41.6001 -141.9004)">
			<stop  offset="0" style="stop-color:#785548"/>
			<stop  offset="1" style="stop-color:#9F9E9F"/>
		</linearGradient>
		<polygon fill="url(#SVGID_1_)" points="3.133,21.5 3.133,0.5 18.867,0.5 18.867,15.586 13.019,21.5 		"/>
		<polygon fill="#795548" fill-opacity="0.7" points="18.867,15.594 18.867,15.34 12.638,15.34 12.638,21.5 12.961,21.5 		"/>
		<path opacity="0.39" fill="#FFFFFF" enable-background="new    " d="M12.952,15.594l5.915,0.008L12.961,21.5L12.952,15.594z"/>
	</g>
	<path fill="#FFFFFF" d="M8.755,4.548H8.223v6.819H7.819V4.548H7.291v6.819H6.889V4.548h-0.53v6.819H5.955V4.548h-0.53v6.819H5.286
		v2.889h3.65v-2.889H8.755V4.548z M8.405,13.417h-2.59v-1.675h2.59V13.417z"/>
	<g>
		<rect x="3.13" y="0.5" opacity="0.8" fill="#FFFFFF" enable-background="new    " width="15.74" height="4.025"/>
		<g enable-background="new    ">
			<path fill="#5D4037" d="M7.174,4.145c-0.536,0-0.945-0.142-1.227-0.426S5.524,3.033,5.524,2.51c0-0.259,0.044-0.491,0.13-0.694
				C5.739,1.612,5.857,1.44,6.006,1.3c0.15-0.14,0.328-0.247,0.535-0.319c0.206-0.072,0.431-0.108,0.671-0.108
				c0.14,0,0.267,0.01,0.382,0.029c0.114,0.02,0.214,0.042,0.301,0.068c0.084,0.025,0.157,0.052,0.213,0.079
				c0.058,0.027,0.099,0.048,0.124,0.063L8.018,1.683C7.916,1.631,7.797,1.587,7.662,1.551s-0.287-0.055-0.46-0.055
				c-0.113,0-0.226,0.019-0.335,0.055c-0.11,0.036-0.208,0.094-0.291,0.174c-0.085,0.08-0.151,0.184-0.202,0.31
				S6.297,2.316,6.297,2.497c0,0.145,0.017,0.28,0.051,0.406c0.033,0.125,0.088,0.233,0.161,0.324
				c0.075,0.09,0.173,0.162,0.293,0.215C6.924,3.494,7.069,3.52,7.24,3.52c0.108,0,0.205-0.006,0.292-0.019
				C7.616,3.49,7.693,3.476,7.76,3.459c0.067-0.017,0.126-0.036,0.177-0.057c0.051-0.021,0.097-0.041,0.138-0.059l0.205,0.565
				C8.175,3.97,8.026,4.024,7.837,4.072C7.646,4.12,7.425,4.145,7.174,4.145z"/>
			<path fill="#5D4037" d="M9.747,0.908c0.493,0,0.87,0.083,1.133,0.247c0.266,0.165,0.396,0.434,0.396,0.808
				c0,0.377-0.134,0.649-0.4,0.817s-0.648,0.251-1.145,0.251H9.499v1.05H8.756V0.989c0.162-0.03,0.333-0.051,0.514-0.063
				C9.451,0.914,9.61,0.908,9.747,0.908z M9.795,1.51c-0.055,0-0.107,0.001-0.159,0.005C9.583,1.518,9.537,1.521,9.499,1.524v0.905
				h0.232c0.259,0,0.451-0.033,0.583-0.1c0.13-0.066,0.195-0.19,0.195-0.371c0-0.087-0.018-0.159-0.051-0.217
				c-0.033-0.057-0.081-0.104-0.143-0.138c-0.063-0.035-0.138-0.059-0.227-0.073S9.902,1.51,9.795,1.51z"/>
			<path fill="#5D4037" d="M11.824,0.944h0.743v3.137h-0.743V0.944z"/>
			<path fill="#5D4037" d="M16.475,2.51c0,0.269-0.043,0.505-0.126,0.709c-0.085,0.204-0.199,0.374-0.346,0.511
				c-0.146,0.138-0.32,0.241-0.522,0.31c-0.201,0.069-0.418,0.104-0.649,0.104c-0.227,0-0.438-0.035-0.64-0.104
				c-0.2-0.069-0.375-0.172-0.523-0.31c-0.149-0.137-0.267-0.308-0.352-0.511c-0.088-0.204-0.13-0.44-0.13-0.709
				c0-0.269,0.045-0.504,0.134-0.708s0.209-0.375,0.359-0.514c0.15-0.139,0.325-0.243,0.525-0.312
				c0.196-0.07,0.406-0.104,0.626-0.104c0.225,0,0.438,0.035,0.637,0.104c0.201,0.069,0.375,0.173,0.525,0.312
				c0.149,0.14,0.267,0.311,0.353,0.514C16.431,2.006,16.475,2.242,16.475,2.51z M13.953,2.51c0,0.154,0.021,0.293,0.061,0.417
				c0.039,0.125,0.096,0.23,0.172,0.319c0.074,0.089,0.164,0.158,0.273,0.207c0.106,0.048,0.232,0.072,0.372,0.072
				c0.137,0,0.26-0.024,0.369-0.072c0.109-0.049,0.201-0.117,0.276-0.207c0.073-0.089,0.131-0.195,0.171-0.319
				c0.039-0.123,0.06-0.263,0.06-0.417s-0.021-0.293-0.06-0.418c-0.04-0.125-0.098-0.232-0.171-0.321
				C15.401,1.682,15.31,1.613,15.2,1.564c-0.109-0.048-0.232-0.073-0.369-0.073c-0.14,0-0.266,0.025-0.372,0.075
				c-0.109,0.05-0.199,0.119-0.273,0.208c-0.076,0.089-0.133,0.196-0.172,0.321C13.974,2.222,13.953,2.36,13.953,2.51z"/>
		</g>
	</g>
</g>
</svg>
