<?xml version="1.0" encoding="utf-8"?>
<!-- Generator: Adobe Illustrator 21.0.0, SVG Export Plug-In . SVG Version: 6.00 Build 0)  -->
<svg version="1.1" id="图层_1" xmlns="http://www.w3.org/2000/svg" xmlns:xlink="http://www.w3.org/1999/xlink" x="0px" y="0px"
	 viewBox="0 0 22 22" style="enable-background:new 0 0 22 22;" xml:space="preserve">
<style type="text/css">
	.st0{fill:#292676;}
	.st1{fill:url(#SVGID_1_);}
	.st2{fill:#563E8D;fill-opacity:0.39;}
	.st3{fill:#FFFFFF;fill-opacity:0.39;}
	.st4{opacity:0.8;}
	.st5{fill:#FFFFFF;}
	.st6{opacity:0.8;fill:#FFFFFF;enable-background:new    ;}
</style>
<title>application-audio-playlist</title>
<path class="st0" d="M19,1v14l-6,6H3V1H19 M20,0H2v22h11l7-7V0z"/>
<linearGradient id="SVGID_1_" gradientUnits="userSpaceOnUse" x1="11" y1="1303.01" x2="11" y2="1323.01" gradientTransform="matrix(1 0 0 1 0 -1302.01)">
	<stop  offset="0" style="stop-color:#9D639F"/>
	<stop  offset="0.18" style="stop-color:#99619E"/>
	<stop  offset="0.38" style="stop-color:#8F5B9B"/>
	<stop  offset="0.59" style="stop-color:#7C4F95"/>
	<stop  offset="0.8" style="stop-color:#654290"/>
	<stop  offset="0.99" style="stop-color:#483489"/>
	<stop  offset="1" style="stop-color:#463488"/>
</linearGradient>
<polygon class="st1" points="3,21 3,1 19,1 19,15 13,21 "/>
<polygon class="st2" points="19,15 19,14 12,14 12,21 13,21 "/>
<path class="st3" d="M13,15h6l-6,6V15z"/>
<g class="st4">
	<rect x="10" y="5" class="st5" width="7" height="1"/>
	<rect x="10" y="7" class="st5" width="7" height="1"/>
	<rect x="10" y="9" class="st5" width="7" height="1"/>
	<rect x="10" y="11" class="st5" width="7" height="1"/>
	<rect x="10" y="13" class="st5" width="7" height="1"/>
</g>
<path class="st6" d="M8.6,7.8L7.4,7.5V5.9L9,6.3V5.1L6.6,4.5v1.2l0,0V12c-0.1,0-0.3,0-0.4,0c-0.6-0.1-1.1,0.4-1.2,1
	c0.1,0.6,0.6,1.1,1.2,1c0.6,0.1,1.1-0.4,1.2-1l0,0V8.4l1.2,0.3C8.6,8.7,8.6,7.8,8.6,7.8z"/>
</svg>
