<?xml version="1.0" encoding="utf-8"?>
<!-- Generator: Adobe Illustrator 16.0.0, SVG Export Plug-In . SVG Version: 6.00 Build 0)  -->
<!DOCTYPE svg PUBLIC "-//W3C//DTD SVG 1.1//EN" "http://www.w3.org/Graphics/SVG/1.1/DTD/svg11.dtd">
<svg version="1.1" id="图层_1" xmlns="http://www.w3.org/2000/svg" xmlns:xlink="http://www.w3.org/1999/xlink" x="0px" y="0px"
	 width="22px" height="22px" viewBox="0 0 22 22" enable-background="new 0 0 22 22" xml:space="preserve">
<g>
	
		<linearGradient id="SVGID_1_" gradientUnits="userSpaceOnUse" x1="260.6016" y1="2394.9414" x2="260.6016" y2="2372.9414" gradientTransform="matrix(1 0 0 1 -249.6006 -2372.9414)">
		<stop  offset="0" style="stop-color:#F57C00"/>
		<stop  offset="0.099" style="stop-color:#F78B0C"/>
		<stop  offset="0.3289" style="stop-color:#FAA823"/>
		<stop  offset="0.5576" style="stop-color:#FDBC33"/>
		<stop  offset="0.7827" style="stop-color:#FEC93D"/>
		<stop  offset="1" style="stop-color:#FFCD40"/>
	</linearGradient>
	<path fill="url(#SVGID_1_)" d="M13.063,22l6.188-6.188V0H2.75v22H13.063z"/>
	<polygon fill="#EE6F0B" fill-opacity="0.3922" points="12.719,15.469 12.719,22 13.063,22 19.25,15.813 19.25,15.469 	"/>
	<path fill="#FFFFFF" fill-opacity="0.3922" d="M13.063,15.813h6.185L13.063,22V15.813z"/>
	<path fill="#B71C1C" fill-opacity="0.1961" d="M2.75,0v5.5h16.5V0H2.75z"/>
	<g>
		<path fill="#FFE0B2" d="M8.74,3.514c0,0.187-0.027,0.365-0.082,0.532C8.607,4.21,8.52,4.356,8.394,4.482
			C8.276,4.607,8.119,4.707,7.926,4.783C7.732,4.853,7.5,4.89,7.221,4.89c-0.29,0-0.529-0.032-0.723-0.101
			C6.305,4.722,6.142,4.64,6.007,4.543l0.325-0.61c0.117,0.066,0.244,0.13,0.38,0.192c0.144,0.064,0.286,0.094,0.437,0.094
			c0.219,0,0.397-0.05,0.529-0.156C7.815,3.956,7.885,3.757,7.885,3.47V1.578H6.458V0.94h2.283L8.74,3.514"/>
		<path fill="#FFE0B2" d="M11.647,4.807l-0.203-0.894h-1.138l-0.193,0.893H9.23c0.203-0.761,0.407-1.457,0.615-2.08
			c0.208-0.63,0.407-1.226,0.599-1.788h0.926c0.2,0.564,0.402,1.167,0.599,1.805c0.205,0.636,0.396,1.322,0.588,2.063H11.647
			 M10.886,1.689c-0.047,0.146-0.09,0.286-0.132,0.418c-0.035,0.129-0.072,0.258-0.109,0.389c-0.033,0.122-0.065,0.251-0.097,0.38
			c-0.027,0.129-0.055,0.263-0.082,0.4h0.837c-0.03-0.137-0.057-0.271-0.087-0.4c-0.025-0.129-0.058-0.258-0.095-0.38
			c-0.033-0.132-0.068-0.261-0.109-0.389C10.975,1.976,10.933,1.834,10.886,1.689"/>
		<path fill="#FFE0B2" d="M14.096,0.896c0.242,0,0.465,0.024,0.66,0.074c0.199,0.049,0.37,0.129,0.512,0.231
			c0.145,0.104,0.252,0.238,0.325,0.4c0.079,0.159,0.117,0.345,0.117,0.561c0,0.226-0.051,0.431-0.152,0.615
			c-0.103,0.181-0.269,0.321-0.503,0.417c0.079,0.109,0.161,0.229,0.248,0.363c0.089,0.129,0.174,0.267,0.255,0.414
			c0.082,0.14,0.162,0.283,0.234,0.43c0.078,0.142,0.146,0.278,0.201,0.407h-0.893c-0.104-0.25-0.229-0.489-0.371-0.719
			c-0.137-0.231-0.286-0.469-0.447-0.705h-0.441v1.424h-0.848V0.995c0.082-0.017,0.169-0.032,0.269-0.043
			c0.1-0.017,0.201-0.027,0.301-0.032c0.104-0.009,0.198-0.015,0.29-0.017C13.946,0.896,14.025,0.896,14.096,0.896 M14.848,2.156
			c0-0.204-0.072-0.353-0.209-0.45c-0.136-0.094-0.318-0.144-0.544-0.144c-0.032,0-0.07,0.003-0.116,0.005
			c-0.048,0-0.095,0.007-0.139,0.015v1.161h0.185c0.289,0,0.5-0.049,0.629-0.149C14.783,2.489,14.848,2.343,14.848,2.156"/>
	</g>
	<g opacity="0.8">
		<path fill="#FFFFFF" d="M9.858,12.912c0,0-0.333,0.183,0.237,0.244c0.689,0.076,1.041,0.065,1.802-0.072
			c0,0,0.198,0.119,0.478,0.224C10.672,13.997,8.521,13.267,9.858,12.912"/>
		<path fill="#FFFFFF" d="M9.648,12.007c0,0-0.373,0.263,0.196,0.32c0.738,0.071,1.319,0.078,2.326-0.107
			c0,0,0.14,0.134,0.356,0.206C10.471,12.998,8.174,12.472,9.648,12.007"/>
		<path fill="#FFFFFF" d="M11.405,10.477c0.419,0.457-0.112,0.87-0.112,0.87s1.066-0.521,0.577-1.174
			c-0.457-0.61-0.809-0.913,1.09-1.958C12.96,8.215,9.981,8.921,11.405,10.477"/>
		<path fill="#FFFFFF" d="M13.656,13.581c0,0,0.246,0.19-0.271,0.339c-0.983,0.284-4.09,0.367-4.955,0.013
			c-0.309-0.129,0.271-0.307,0.457-0.344c0.191-0.04,0.298-0.032,0.298-0.032c-0.344-0.23-2.232,0.453-0.957,0.65
			C11.701,14.738,14.559,13.965,13.656,13.581"/>
		<path fill="#FFFFFF" d="M10.018,11.072c0,0-1.583,0.357-0.559,0.486c0.429,0.054,1.289,0.04,2.092-0.021
			c0.652-0.054,1.311-0.164,1.311-0.164s-0.23,0.093-0.397,0.201c-1.606,0.4-4.708,0.215-3.816-0.196
			C9.404,11.032,10.018,11.072,10.018,11.072"/>
		<path fill="#FFFFFF" d="M12.853,12.576c1.633-0.806,0.879-1.579,0.353-1.474c-0.129,0.026-0.186,0.048-0.186,0.048
			s0.046-0.072,0.14-0.102c1.042-0.347,1.842,1.025-0.338,1.568C12.821,12.616,12.848,12.595,12.853,12.576"/>
		<path fill="#FFFFFF" d="M11.87,6.531c0,0,0.905,0.857-0.856,2.175c-1.413,1.059-0.323,1.662,0,2.35
			c-0.825-0.704-1.432-1.327-1.026-1.904C10.583,8.304,12.235,7.893,11.87,6.531"/>
		<path fill="#FFFFFF" d="M10.178,14.755c1.566,0.096,3.973-0.052,4.031-0.755c0,0-0.11,0.266-1.297,0.479
			c-1.337,0.238-2.986,0.209-3.964,0.059C8.948,14.534,9.149,14.692,10.178,14.755"/>
	</g>
	<g>
		<path fill="#EE6F0B" d="M18.75,0.5v15.105L12.855,21.5H8.25h-5v-21H18.75 M19.25,0H2.75v22h5.5h4.813l6.188-6.188L19.25,0L19.25,0
			z"/>
	</g>
</g>
</svg>
