<?xml version="1.0" encoding="utf-8"?>
<!-- Generator: Adobe Illustrator 16.0.0, SVG Export Plug-In . SVG Version: 6.00 Build 0)  -->
<!DOCTYPE svg PUBLIC "-//W3C//DTD SVG 1.1//EN" "http://www.w3.org/Graphics/SVG/1.1/DTD/svg11.dtd">
<svg version="1.1" id="图层_1" xmlns="http://www.w3.org/2000/svg" xmlns:xlink="http://www.w3.org/1999/xlink" x="0px" y="0px"
	 width="22px" height="22px" viewBox="0 0 22 22" enable-background="new 0 0 22 22" xml:space="preserve">
<polygon fill="#455A64" points="2.634,22 2.634,0 19.366,0 19.366,15.806 13.112,22 "/>
<g>
	<g>
		<g>
			
				<linearGradient id="SVGID_1_" gradientUnits="userSpaceOnUse" x1="52.5996" y1="-142.4004" x2="52.5996" y2="-163.4009" gradientTransform="matrix(1 0 0 -1 -41.6001 -141.9004)">
				<stop  offset="0" style="stop-color:#90A4AE"/>
				<stop  offset="0.1378" style="stop-color:#849AA5"/>
				<stop  offset="0.4226" style="stop-color:#708A97"/>
				<stop  offset="0.7096" style="stop-color:#64808E"/>
				<stop  offset="1" style="stop-color:#607D8B"/>
			</linearGradient>
			<polygon fill="url(#SVGID_1_)" points="3.133,21.5 3.133,0.5 18.867,0.5 18.867,15.594 12.961,21.5 			"/>
		</g>
		<polygon fill="#455A64" fill-opacity="0.39" points="18.867,15.594 18.867,15.34 12.637,15.34 12.637,21.5 12.961,21.5 		"/>
		<path fill="#FFFFFF" fill-opacity="0.39" d="M12.951,15.594l5.916,0.008L12.961,21.5L12.951,15.594z"/>
	</g>
	<path opacity="0.8" fill="#FFFFFF" enable-background="new    " d="M14.674,11.376c0.01-0.026,0.027-0.044,0.037-0.07
		c0.018-0.043,0.043-0.087,0.061-0.131c0,0,0-0.008,0.008-0.008c0.113-0.237,0.193-0.491,0.264-0.744h0.988V8.437h-0.988
		c-0.105-0.412-0.264-0.805-0.482-1.155l0.701-0.7l-1.408-1.408l-0.701,0.7c-0.359-0.219-0.752-0.386-1.182-0.491h0.01V4.394H9.994
		v0.989h0.008C9.583,5.487,9.179,5.654,8.82,5.873l-0.7-0.7L6.739,6.581l0.7,0.7c-0.21,0.35-0.376,0.744-0.481,1.155H5.968v1.986
		h0.989c0.104,0.41,0.262,0.804,0.481,1.163l0,0l-0.7,0.701l1.409,1.407l0.7-0.699c0.358,0.219,0.752,0.385,1.164,0.48v0.989h1.987
		v-0.989l0,0l0,0c0.42-0.104,0.805-0.262,1.162-0.48l0.701,0.699l1.408-1.407l-0.701-0.701l0,0c0.027-0.043,0.045-0.078,0.072-0.123
		C14.648,11.438,14.666,11.412,14.674,11.376z M11,12.601c-1.758,0-3.176-1.426-3.176-3.176S9.25,6.249,11,6.249
		c0.35,0,0.684,0.052,0.999,0.157l0,0c1.268,0.42,2.178,1.61,2.178,3.019c0,0.088,0,0.175-0.008,0.254v0.008
		c-0.018,0.254-0.07,0.499-0.15,0.735c0,0.008-0.008,0.008-0.008,0.017c-0.053,0.149-0.113,0.298-0.184,0.429
		c0,0.008-0.01,0.018-0.01,0.026c-0.035,0.07-0.068,0.131-0.113,0.201c0,0.01-0.01,0.01-0.01,0.018
		c-0.043,0.062-0.076,0.123-0.121,0.185l-0.01,0.008c-0.043,0.062-0.088,0.123-0.139,0.175c-0.008,0.008-0.018,0.018-0.025,0.026
		c-0.098,0.113-0.201,0.219-0.316,0.315c-0.008,0.008-0.018,0.017-0.025,0.026c-0.053,0.043-0.115,0.096-0.176,0.131
		c-0.008,0.008-0.018,0.008-0.025,0.018c-0.053,0.044-0.113,0.078-0.168,0.113c-0.008,0.008-0.016,0.008-0.025,0.018
		c-0.063,0.035-0.121,0.07-0.184,0.104c-0.018,0.009-0.025,0.018-0.043,0.027c-0.063,0.034-0.131,0.06-0.193,0.087
		c-0.008,0-0.018,0.009-0.025,0.009c-0.063,0.026-0.123,0.044-0.186,0.069C11.709,12.539,11.358,12.601,11,12.601z"/>
</g>
</svg>
