<?xml version="1.0" encoding="utf-8"?>
<!-- Generator: Adobe Illustrator 21.0.0, SVG Export Plug-In . SVG Version: 6.00 Build 0)  -->
<svg version="1.1" id="图层_1" xmlns="http://www.w3.org/2000/svg" xmlns:xlink="http://www.w3.org/1999/xlink" x="0px" y="0px"
	 viewBox="0 0 22 22" style="enable-background:new 0 0 22 22;" xml:space="preserve">
<style type="text/css">
	.st0{fill:#01579B;}
	.st1{fill:url(#SVGID_1_);}
	.st2{fill:#0D47A1;fill-opacity:0.39;}
	.st3{fill:#FFFFFF;fill-opacity:0.39;}
	.st4{opacity:0.8;fill:#FFFFFF;enable-background:new    ;}
</style>
<title>application-images</title>
<path class="st0" d="M19,1v14l-6,6H3V1H19 M20,0H2v22h11l7-7V0z"/>
<linearGradient id="SVGID_1_" gradientUnits="userSpaceOnUse" x1="11" y1="-1486.99" x2="11" y2="-1506.99" gradientTransform="matrix(1 0 0 -1 0 -1485.99)">
	<stop  offset="0" style="stop-color:#4DD0E1"/>
	<stop  offset="0.42" style="stop-color:#3DBAE8"/>
	<stop  offset="1" style="stop-color:#2196F3"/>
</linearGradient>
<polygon class="st1" points="3,21 3,1 19,1 19,15 13,21 "/>
<polygon class="st2" points="19,15 19,14 12,14 12,21 13,21 "/>
<path class="st3" d="M13,15h6l-6,6V15z"/>
<ellipse class="st4" cx="14.1" cy="6.6" rx="1.2" ry="1.2"/>
<path class="st4" d="M5,4v8h12V4H5z M16.1,4.9v6.2l0,0l-2.8-2l-2,1.2L8.8,7.2l-2.9,3.9V4.9H16.1z"/>
</svg>
