<?xml version="1.0" encoding="utf-8"?>
<!-- Generator: Adobe Illustrator 21.0.0, SVG Export Plug-In . SVG Version: 6.00 Build 0)  -->
<svg version="1.1" id="图层_1" xmlns="http://www.w3.org/2000/svg" xmlns:xlink="http://www.w3.org/1999/xlink" x="0px" y="0px"
	 viewBox="0 0 22 22" style="enable-background:new 0 0 22 22;" xml:space="preserve">
<style type="text/css">
	.st0{fill:#455A64;}
	.st1{fill:url(#SVGID_1_);}
	.st2{opacity:0.8;fill:#FFFFFF;enable-background:new    ;}
</style>
<title>application-executable</title>
<rect class="st0" width="22" height="22"/>
<linearGradient id="SVGID_1_" gradientUnits="userSpaceOnUse" x1="52.6" y1="-1652.89" x2="52.6" y2="-1672.89" gradientTransform="matrix(1 0 0 -1 -41.6 -1651.89)">
	<stop  offset="0" style="stop-color:#90A4AE"/>
	<stop  offset="0.14" style="stop-color:#849AA5"/>
	<stop  offset="0.42" style="stop-color:#708A97"/>
	<stop  offset="0.71" style="stop-color:#64808E"/>
	<stop  offset="1" style="stop-color:#607D8B"/>
</linearGradient>
<rect x="1" y="1" class="st1" width="20" height="20"/>
<path class="st2" d="M16.8,14.1l0.1-0.1c0-0.1,0.1-0.1,0.1-0.2l0,0c0.2-0.4,0.3-0.8,0.4-1.2H19V9.4h-1.6c-0.2-0.6-0.4-1.3-0.8-1.8
	l1.1-1.1l-2.2-2.2l-1.1,1.1c-0.6-0.4-1.2-0.6-1.9-0.8l0,0V3H9.4v1.6l0,0C8.8,4.7,8.1,5,7.5,5.3L6.4,4.2L4.2,6.5l1.1,1.1
	C5,8.2,4.7,8.8,4.6,9.4H3v3.2h1.6c0.2,0.7,0.4,1.3,0.8,1.9l0,0l-1.1,1.1l2.2,2.2l1.1-1.1c0.6,0.3,1.2,0.6,1.9,0.8V19h3.2v-1.6l0,0
	c0.7-0.2,1.3-0.4,1.9-0.8l1.1,1.1l2.2-2.2l-1.1-1.1l0,0l0.1-0.2C16.8,14.2,16.8,14.2,16.8,14.1z M11,16c-2.8-0.1-4.9-2.4-4.8-5.2
	S8.6,5.9,11.4,6c0.4,0,0.8,0.1,1.2,0.2l0,0c2,0.7,3.4,2.6,3.4,4.8c0,0.1,0,0.3,0,0.4l0,0c0,0.4-0.1,0.8-0.2,1.2l0,0
	c-0.1,0.2-0.2,0.5-0.3,0.7l0,0l-0.2,0.3l0,0l-0.2,0.3l0,0C15,14,15,14.1,14.9,14.2l0,0c-0.2,0.2-0.3,0.3-0.5,0.5l0,0l-0.3,0.2l0,0
	L13.8,15l0,0c-0.1,0.1-0.2,0.1-0.3,0.2h-0.1l-0.3,0.1l0,0l-0.3,0.1C12.3,15.8,11.6,16,11,16z"/>
</svg>
