<?xml version="1.0" encoding="utf-8"?>
<!-- Generator: Adobe Illustrator 21.0.0, SVG Export Plug-In . SVG Version: 6.00 Build 0)  -->
<svg version="1.1" id="图层_1" xmlns="http://www.w3.org/2000/svg" xmlns:xlink="http://www.w3.org/1999/xlink" x="0px" y="0px"
	 viewBox="0 0 22 22" style="enable-background:new 0 0 22 22;" xml:space="preserve">
<style type="text/css">
	.st0{fill:#0D47A1;}
	.st1{fill:url(#SVGID_1_);}
	.st2{fill:#0D47A1;fill-opacity:0.39;}
	.st3{fill:#FFFFFF;fill-opacity:0.45;}
	.st4{fill:#64B5F6;}
	.st5{fill:#FFFFFF;fill-opacity:0.8;}
</style>
<title>application-vnd.oasis.opendocument.text-web</title>
<path class="st0" d="M19,1v14l-6,6H3V1H19 M20,0H2v22h11l7-7V0z"/>
<linearGradient id="SVGID_1_" gradientUnits="userSpaceOnUse" x1="11" y1="-1486.99" x2="11" y2="-1506.99" gradientTransform="matrix(1 0 0 -1 0 -1485.99)">
	<stop  offset="0" style="stop-color:#64B5F6"/>
	<stop  offset="0.22" style="stop-color:#5FB1F4"/>
	<stop  offset="0.46" style="stop-color:#52A6ED"/>
	<stop  offset="0.71" style="stop-color:#3B93E2"/>
	<stop  offset="0.98" style="stop-color:#1C79D3"/>
	<stop  offset="1" style="stop-color:#1976D2"/>
</linearGradient>
<polygon class="st1" points="3,21 3,1 19,1 19,15 13,21 "/>
<polygon class="st2" points="19,15 19,14 12,14 12,21 13,21 "/>
<path class="st3" d="M13,15h6l-6,6V15z"/>
<path class="st4" d="M16,8c0,2.8-2.2,5-5,5s-5-2.2-5-5s2.2-5,5-5S16,5.2,16,8z"/>
<path class="st5" d="M7.7,4.2C7.8,4.2,7.8,4.3,7.7,4.2C7.9,4.5,8,4.5,8,4.5h0.2l0.2-0.1L8.3,4.5c0,0-1.2,0.6-1,0.9s0.2,0.4,0.2,0.5
	s0.1,0,0.1,0l0.1-0.2l0.1-0.1l0.1-0.2l0,0L8,5.1L8.2,5l0.2,0.1c0,0,0.1,0,0.1,0.1s0,0.2,0,0.2s0,0.1,0.1,0.1s0.1,0,0.1-0.1l0.1,0.1
	l0.1,0.2L9,5.9V6v0.2l0,0l0.2,0.2v0.1H8.9c0,0,0-0.1-0.1-0.1H8.6H8.4v0.1L8.3,6.6L8,6.7c-0.1,0-0.1,0-0.2,0.1l0.1,0.1L7.7,7H7.6
	L7.4,7.1v0.1v0.1v0.1L7.3,7.5L7.1,7.6v0.1v0.2V8v0.2c0,0-0.1,0-0.1-0.1V8L6.9,7.9c0,0,0.1,0,0-0.1L6.8,7.7H6.7c-0.1,0,0.1,0-0.1,0
	H6.4L6.3,7.9V8c0,0,0,0.6,0.1,0.7h0.1l0.1-0.2h0.1v0.1v0.1v0.1l0.1,0.1L6.9,9C7,9.1,6.9,9.2,7,9.2l0.1,0.1h0.1h0.1h0.1v0.1v0.1
	l0.1,0.1h0.2c0,0,0,0,0.1,0.1s0,0,0.1,0h0.2h0.1l0.1,0.1c0.1,0,0.1,0,0.1,0.1s0,0.1-0.1,0.1c0,0.1-0.1,0,0,0.1s0,0,0.1,0.1
	s0,0,0.1,0s0.1,0,0.2,0c0.1,0,0.1,0.1,0.1,0.1l0.1,0.1v0.2c0,0-0.1,0,0.1,0l0,0c0.1,0,0,0,0.1,0h0.1l0.2,0.1c0.1,0,0.1,0,0.2,0
	c0.1,0,0.1,0.1,0.2,0.1s0.1,0,0.2,0.1l0.1,0.1v0.2L10,11.3l-0.1,0.1v0.2l-0.1,0.2v0.1c0,0,0.1,0.1-0.1,0.1H9.6l-0.1,0.1
	c0,0,0,0,0,0.1l-0.1,0.1v0.2v0.1l-0.1,0.1c0,0,0,0,0.1,0.1s0.3,0.1,0.3,0.1L9.8,13H9.7H9.6l-0.2-0.1L9,12.6
	c-0.3-0.2-0.6-0.5-0.8-0.9c-0.1-0.1-0.2-0.3-0.4-0.3c-0.3-0.2-0.5-0.5-0.7-0.7v-0.1l0,0l0,0v-0.1l0,0V10l0,0V9.9l0,0l0.1-0.1l0,0
	l0,0h0.1V9.7V9.6l0,0v0.1l0,0l0,0l0,0l0,0l0,0l0,0l0,0l0,0V9.6l0,0L7.2,9.5V9.4l0,0H7.1L6.5,9L6.4,8.9c0,0,0,0,0-0.1l0,0H6.3l0,0
	L6.1,8.6V8.5V8.4V8.3V8.1L6,7.4C6.2,6.2,6.8,5.1,7.7,4.2z"/>
<path class="st5" d="M13.4,3.6l0.2,0.1h0.1l0.1,0.1v0.1V4v0.1c0,0,0.1,0.1,0.1,0.2v0.1c0,0-0.1,0.1-0.1,0c0,0,0-0.1-0.1-0.1
	l-0.1-0.1h0.1V4.1h-0.1L13.5,4h-0.1h-0.2H13h-0.1h-0.1l-0.1,0.1v0.1v0.1v0.1l0,0v0.1h-0.1l-0.1,0.1c0,0-0.1,0-0.1,0.1v0.1v0.1
	c0,0,0,0.1,0.1,0.1s0,0,0,0h0.1h0.1l0,0c0,0,0,0,0.1,0c0,0,0,0,0.1,0.1c0,0,0,0.1,0.1,0.1l0,0l0,0h0.1l0,0l0,0l0,0c0,0,0,0,0-0.1
	l0,0V5l0,0V4.9l0,0H13l0,0l0,0l0,0l0,0l0,0c0-0.1,0-0.1,0-0.1V4.7l0,0c0,0,0,0,0-0.1l0,0l0,0h0.1l0,0l0,0c0,0,0,0,0,0.1l0,0v0.2V5
	l0,0l0,0h0.1l0,0l0,0l0,0h0.1l0,0h0.1l0,0h-0.1h-0.1v0.1h0.1l0,0l0,0l0,0c0,0,0,0-0.1,0l0,0c0,0,0,0,0,0.1v0.1v0.1l0,0l-0.1,0.1l0,0
	H13l0,0h-0.1H13l0,0V5.4c0,0,0,0,0-0.1V5.2l0,0c0,0-0.1,0-0.1,0.1s0,0,0,0L13,5.4v0.1l-0.1,0.1h-0.1l0,0l0,0l-0.1,0.1l0,0v0.1
	c0,0,0,0-0.1,0c0,0,0,0-0.1,0.1h-0.1h-0.1l0,0h-0.1V6l0,0h0.1h0.1l0,0l0.1,0.1l0.1,0.1V6h-0.1h-0.7l0,0l0,0v0.1v0.1v0.1v0.1l0,0l0,0
	H12v0.1l0,0l0,0h0.1h0.1l0,0l0,0h0.1h0.1l0,0l0,0h0.1V6.3l0,0c0,0,0,0,0-0.1l0,0l0,0l0,0l0,0l0,0h0.1l0,0c0,0,0,0,0-0.1s0-0.1,0-0.1
	l0,0h0.1c0,0,0,0,0.1,0l0,0h0.1H13l0,0v0.1l0,0l0,0c0,0,0.1,0,0.1,0.1h0.1l0,0h0.1l0,0l0,0l0,0l0,0v0.3l0,0h0.1l0,0l0,0h-0.1l0,0
	l0,0l0,0l0,0h-0.1l0,0h0.3h-0.1c0,0,0,0,0-0.1l0,0c0,0,0,0,0-0.1l0,0h0.1v0.1l0,0h0.1l0,0l0,0l0,0h0.1c0,0,0,0,0.1,0h0.1l0,0l0,0
	c0,0,0,0,0,0.1v0.1H14c0,0,0,0.1,0.1,0.1s0.1,0,0.1,0s0,0,0,0.1l0,0l0,0c0,0,0,0,0-0.1s-0.1,0-0.1,0V6.5V6.4l0,0l0,0l0,0v0.1v0.1
	c0,0,0,0,0,0.1H14v0.1h0.1l0,0h0.2l0,0l0.1,0.1V7l-0.1,0.1h-0.1h-0.1h-0.5c0,0,0,0-0.1,0.1c0,0,0,0,0,0.1l0,0c0,0,0,0-0.1,0h-0.1
	l-0.1-0.1h-0.1h-0.3V6.9l0,0V6.8l0,0h-0.1h-0.1h-0.1h-0.1h-0.1H12h-0.1H12h-0.1h-0.1h-0.2l0,0L12,7.1l0,0v0.1l-0.1,0.1l0,0v0.1l0,0
	h-0.1l0,0l0,0l-0.1,0.1h-0.1l-0.1,0.1l0,0c0,0,0,0.1-0.1,0.1L11.3,8v0.1v0.1l0,0v0.1v0.1v0.1v0.1l0,0l0,0c0,0,0,0,0,0.1v0.1l0,0l0,0
	v0.1l0,0h0.1l0,0V9l0,0l0.1,0.1c0,0,0,0,0,0.1l0.1,0.1c0,0,0.1,0,0.1,0.1h0.1c0,0,0,0,0.1,0l0.2,0.1H12h0.1h0.1h0.1h0.1h0.1h0.1H13
	l0,0l0,0v0.1h0.1h0.2l0,0v0.1l0,0v0.1c0,0,0,0-0.1,0.1S13.1,10,13.1,10l0.1,0.1l0.1,0.1v0.1l0,0v0.1v0.1c0,0,0,0,0,0.1V10l0,0v0.1
	l0,0l-0.1,0.1v0.1v0.1v0.1c0,0,0,0,0,0.1v0.1v0.1v0.1V11v0.1V11v0.1v0.1v0.1l0.1,0.1h0.1h0.1c0,0,0,0,0.1,0l0.1-0.1l0.1-0.1l0.1-0.1
	L14,11l0,0l0.2-0.1l0.1-0.1l0.1-0.2c0-0.1,0.1-0.1,0.1-0.2l0.2-0.1c0-0.1,0.1-0.1,0.1-0.2L15,9.9l0.1-0.2l0.1-0.4L15.3,9l0.1-0.1
	l0.1-0.3V8.4V8.2h-0.1l-0.1,0.1h-0.1h-0.1l0.1-0.1V8.1L15.1,8L15,7.9v0.2L15.2,8l-0.1-0.3L15,7.5V7.4h0.1c0,0,0,0.1,0.1,0.1
	s0.1,0.1,0.1,0.1v0.1l0.1,0.1V8c0,0,0,0.1,0.1,0.1v0.2v0.2h0.1l0,0l0.1-0.1V8.3V8.2c0.1,0,0.3-0.1,0.4-0.2V7.9V7.8V7.7V7.6L16,7.5
	V7.4C15.8,5.8,14.8,4.4,13.4,3.6z"/>
</svg>
