<?xml version="1.0" encoding="utf-8"?>
<!-- Generator: Adobe Illustrator 21.0.0, SVG Export Plug-In . SVG Version: 6.00 Build 0)  -->
<svg version="1.1" id="图层_1" xmlns="http://www.w3.org/2000/svg" xmlns:xlink="http://www.w3.org/1999/xlink" x="0px" y="0px"
	 viewBox="0 0 22 22" style="enable-background:new 0 0 22 22;" xml:space="preserve">
<style type="text/css">
	.st0{fill:#F57C00;}
	.st1{fill:url(#SVGID_1_);}
	.st2{fill:#FF9800;}
	.st3{opacity:0.39;fill:#FFFFFF;enable-background:new    ;}
	.st4{opacity:0.8;}
	.st5{fill:#FFFFFF;}
</style>
<title>application-java</title>
<path class="st0" d="M19,1v14l-6,6H3V1H19 M20,0H2v22h11l7-7V0z"/>
<linearGradient id="SVGID_1_" gradientUnits="userSpaceOnUse" x1="11" y1="-1486.99" x2="11" y2="-1506.99" gradientTransform="matrix(1 0 0 -1 0 -1485.99)">
	<stop  offset="0" style="stop-color:#F9CE1D"/>
	<stop  offset="1" style="stop-color:#FF9800"/>
</linearGradient>
<polygon class="st1" points="3,21 3,1 19,1 19,15 13,21 "/>
<polygon class="st2" points="19,15 19,14 12,14 12,21 13,21 "/>
<path class="st3" d="M13,15h6l-6,6V15z"/>
<g class="st4">
	<path class="st5" d="M9.2,10.9c0,0-0.5,0.3,0.4,0.4c0.9,0.1,1.9,0.1,2.8-0.1c0.2,0.1,0.5,0.2,0.7,0.3C10.5,12.5,7.1,11.4,9.2,10.9"
		/>
	<path class="st5" d="M8.9,9.7c0,0-0.6,0.4,0.3,0.4c1.2,0.1,2.4,0.1,3.6-0.1c0.2,0.1,0.4,0.2,0.6,0.3C10.2,11.1,6.6,10.3,8.9,9.7"/>
	<path class="st5" d="M11.6,7.5c0.6,0.6-0.2,1.2-0.2,1.2s1.7-0.7,0.9-1.6S11,5.8,14,4.4C14.1,4.4,9.4,5.4,11.6,7.5"/>
	<path class="st5" d="M15.1,11.9c0,0,0.4,0.3-0.4,0.5c-1.5,0.4-6.4,0.5-7.7,0c-0.5-0.2,0.4-0.4,0.7-0.5c0.2,0,0.3,0,0.5,0
		c-0.5-0.3-3.5,0.6-1.5,0.9C12.1,13.5,16.5,12.4,15.1,11.9"/>
	<path class="st5" d="M9.5,8.4c0,0-2.5,0.5-0.9,0.6c1.1,0.1,2.2,0.1,3.3,0c1-0.1,2-0.2,2-0.2c-0.2,0.1-0.4,0.2-0.6,0.3
		C10.8,9.7,6,9.4,7.4,8.8C8,8.5,8.7,8.3,9.5,8.4"/>
	<path class="st5" d="M13.9,10.5c2.5-1.1,1.4-2.2,0.6-2.1c-0.1,0-0.2,0-0.3,0.1c0.1-0.1,0.1-0.1,0.2-0.1C16,7.8,17.2,9.8,13.9,10.5
		L13.9,10.5"/>
	<path class="st5" d="M12.4,2c0,0,1.4,1.2-1.4,3.1c-2.2,1.5-0.5,2.3,0,3.3c-1.3-1-2.2-1.9-1.6-2.7C10.3,4.5,12.9,3.9,12.4,2"/>
	<path class="st5" d="M9.7,13.5c2.4,0.1,6.2-0.1,6.3-1.1c0,0-0.2,0.4-2,0.7c-2,0.3-4.1,0.3-6.2,0.1C8.4,13.5,9.1,13.6,9.7,13.5"/>
</g>
</svg>
