<?xml version="1.0" encoding="utf-8"?>
<!-- Generator: Adobe Illustrator 16.0.0, SVG Export Plug-In . SVG Version: 6.00 Build 0)  -->
<!DOCTYPE svg PUBLIC "-//W3C//DTD SVG 1.1//EN" "http://www.w3.org/Graphics/SVG/1.1/DTD/svg11.dtd">
<svg version="1.1" id="图层_1" xmlns="http://www.w3.org/2000/svg" xmlns:xlink="http://www.w3.org/1999/xlink" x="0px" y="0px"
	 width="22px" height="22px" viewBox="0 0 22 22" enable-background="new 0 0 22 22" xml:space="preserve">
<polygon fill="#0D47A1" points="2.634,22 2.634,0 19.366,0 19.366,15.807 13.111,22 "/>
<g>
	<g>
		<g>
			<g>
				
					<linearGradient id="SVGID_1_" gradientUnits="userSpaceOnUse" x1="52.5996" y1="-163.3999" x2="52.5996" y2="-142.4004" gradientTransform="matrix(1 0 0 -1 -41.6001 -141.9004)">
					<stop  offset="0" style="stop-color:#3F51B5"/>
					<stop  offset="1" style="stop-color:#64B5F6"/>
				</linearGradient>
				<polygon fill="url(#SVGID_1_)" points="3.132,21.5 3.132,0.5 18.865,0.5 18.865,15.594 12.959,21.5 				"/>
			</g>
			<polygon fill="#2196F3" fill-opacity="0.7" points="18.865,15.594 18.865,15.34 12.635,15.34 12.635,21.5 12.959,21.5 			"/>
			<path opacity="0.39" fill="#FFFFFF" enable-background="new    " d="M12.951,15.594l5.917,0.008L12.959,21.5L12.951,15.594z"/>
		</g>
	</g>
	<g opacity="0.8">
		<rect x="5.162" y="6.906" opacity="0.8" fill="#FFFFFF" enable-background="new    " width="11.665" height="0.576"/>
		<rect x="5.162" y="5.102" opacity="0.8" fill="#FFFFFF" enable-background="new    " width="11.665" height="0.58"/>
		<rect x="10.728" y="8.602" opacity="0.8" fill="#FFFFFF" enable-background="new    " width="6.091" height="6.093"/>
		<g opacity="0.8">
			<rect x="5.162" y="8.707" fill="#FFFFFF" width="5.066" height="0.578"/>
			<rect x="5.162" y="10.511" fill="#FFFFFF" width="5.066" height="0.577"/>
			<rect x="5.162" y="12.32" fill="#FFFFFF" width="5.066" height="0.577"/>
			<rect x="5.162" y="14.123" fill="#FFFFFF" width="5.066" height="0.576"/>
		</g>
	</g>
</g>
</svg>
