<?xml version="1.0" encoding="utf-8"?>
<!-- Generator: Adobe Illustrator 21.0.0, SVG Export Plug-In . SVG Version: 6.00 Build 0)  -->
<svg version="1.1" id="图层_1" xmlns="http://www.w3.org/2000/svg" xmlns:xlink="http://www.w3.org/1999/xlink" x="0px" y="0px"
	 viewBox="0 0 22 22" style="enable-background:new 0 0 22 22;" xml:space="preserve">
<style type="text/css">
	.st0{fill:#311B92;}
	.st1{fill:url(#SVGID_1_);}
	.st2{fill:#311B92;fill-opacity:0.39;}
	.st3{fill:#FFFFFF;fill-opacity:0.39;}
	.st4{opacity:0.8;}
	.st5{fill:#FFFFFF;}
</style>
<title>application-x-php</title>
<path class="st0" d="M19,1v14l-6,6H3V1H19 M20,0H2v22h11l7-7V0z"/>
<linearGradient id="SVGID_1_" gradientUnits="userSpaceOnUse" x1="11" y1="-1486.99" x2="11" y2="-1506.99" gradientTransform="matrix(1 0 0 -1 0 -1485.99)">
	<stop  offset="0" style="stop-color:#7986CB"/>
	<stop  offset="0.2" style="stop-color:#6473C3"/>
	<stop  offset="0.47" style="stop-color:#5060BB"/>
	<stop  offset="0.74" style="stop-color:#4355B7"/>
	<stop  offset="1" style="stop-color:#3F51B5"/>
</linearGradient>
<polygon class="st1" points="3,21 3,1 19,1 19,15 13,21 "/>
<polygon class="st2" points="19,15 19,14 12,14 12,21 13,21 "/>
<path class="st3" d="M13,15h6l-6,6V15z"/>
<g class="st4">
	<path class="st5" d="M13.9,8.1c-0.1,0-0.3,0.1-0.4,0.2c-0.1,0.1-0.2,0.3-0.3,0.4c-0.1,0.2-0.1,0.4-0.1,0.6c0,0.1,0,0.2,0.1,0.3
		s0.2,0.1,0.3,0.1s0.3-0.1,0.3-0.2c0.2,0,0.2-0.2,0.3-0.4s0.1-0.4,0.1-0.6C14.2,8.3,14.1,8.1,13.9,8.1z"/>
	<path class="st5" d="M9,8.1c-0.1,0-0.3,0.1-0.4,0.2C8.5,8.4,8.4,8.6,8.4,8.7C8.3,8.9,8.3,9.1,8.3,9.3c0,0.1,0,0.2,0.1,0.3
		s0.2,0.1,0.3,0.1S9,9.6,9,9.5C9.1,9.4,9.2,9.2,9.3,9c0,0,0-0.2,0.1-0.4C9.3,8.3,9.2,8.1,9,8.1z"/>
	<path class="st5" d="M11,5C7.7,5,5,6.8,5,9s2.7,4,6,4s6-1.8,6-4S14.3,5,11,5z M14.8,9.4c-0.1,0.3-0.3,0.5-0.5,0.7s-0.4,0.2-0.7,0.3
		c-0.1,0-0.3,0-0.4-0.1c-0.1-0.1-0.2-0.2-0.3-0.3l0,0c0,0.2-0.1,0.5-0.1,0.7l-0.2,0.8h-0.8l0.3-1.2h-0.8l0.4-1.6c0-0.1,0-0.2,0-0.3
		c0-0.2-0.1-0.3-0.3-0.3S11,8.2,11,8.4c-0.2,0.2-0.3,0.5-0.3,0.8l-0.3,1.1H9.7l0.1-0.6C9.7,9.8,9.6,10,9.5,10.1
		c-0.2,0.2-0.4,0.2-0.7,0.3c-0.1,0-0.3,0-0.4-0.1c-0.1-0.1-0.2-0.2-0.3-0.3l0,0c0,0.2-0.1,0.5-0.1,0.7l-0.2,0.8H7l0.9-3.9h0.6V8l0,0
		C8.7,7.7,9,7.5,9.3,7.5c0.2,0,0.5,0.1,0.6,0.3C10,8,10.1,8.1,10.1,8.4l0.4-1.8h0.8l-0.2,0.7c0,0.2-0.1,0.4-0.2,0.8l0,0
		C11,8,11.1,7.9,11.3,7.8c0.1-0.1,0.3-0.1,0.5-0.1s0.4,0.1,0.6,0.2c0.1,0.2,0.2,0.4,0.2,0.6v0.1l0.2-0.9h0.6V8l0,0
		c0.2-0.3,0.5-0.5,0.8-0.5c0.2,0,0.5,0.1,0.6,0.3C14.9,8,15,8.2,15,8.5S14.9,9.1,14.8,9.4z"/>
</g>
</svg>
