<?xml version="1.0" encoding="utf-8"?>
<!-- Generator: Adobe Illustrator 16.0.0, SVG Export Plug-In . SVG Version: 6.00 Build 0)  -->
<!DOCTYPE svg PUBLIC "-//W3C//DTD SVG 1.1//EN" "http://www.w3.org/Graphics/SVG/1.1/DTD/svg11.dtd">
<svg version="1.1" id="图层_1" xmlns="http://www.w3.org/2000/svg" xmlns:xlink="http://www.w3.org/1999/xlink" x="0px" y="0px"
	 width="22px" height="22px" viewBox="0 0 22 22" enable-background="new 0 0 22 22" xml:space="preserve">
<polygon fill="#1B5E20" points="2.634,22 2.634,0 19.366,0 19.366,15.807 13.111,22 "/>
<g>
	<g>
		<g>
			<g>
				<g>
					
						<linearGradient id="SVGID_1_" gradientUnits="userSpaceOnUse" x1="94.1992" y1="-582.3003" x2="94.1992" y2="-561.3008" gradientTransform="matrix(1 0 0 -1 -83.2002 -560.8008)">
						<stop  offset="0" style="stop-color:#388E3C"/>
						<stop  offset="0.0757" style="stop-color:#43953E"/>
						<stop  offset="0.3246" style="stop-color:#62A943"/>
						<stop  offset="0.5665" style="stop-color:#79B747"/>
						<stop  offset="0.796" style="stop-color:#86C049"/>
						<stop  offset="1" style="stop-color:#8BC34A"/>
					</linearGradient>
					<polygon fill="url(#SVGID_1_)" points="3.132,21.5 3.132,0.5 18.865,0.5 18.865,15.594 12.96,21.5 					"/>
				</g>
				<polygon fill="#1B5E20" fill-opacity="0.39" points="18.865,15.594 18.865,15.34 12.636,15.34 12.636,21.5 12.96,21.5 				"/>
				<path fill="#FFFFFF" fill-opacity="0.3922" d="M12.951,15.594l5.916,0.008L12.96,21.5L12.951,15.594z"/>
			</g>
			<path opacity="0.8" fill="#FFFFFF" enable-background="new    " d="M11.389,5.138V5.119H10.61v0.019H5.592v9.782h10.814V5.138
				H11.389z M6.37,8.042h2.415v1.563H6.37V8.042z M6.37,10.383h2.415v1.562H6.37V10.383z M9.588,10.383h6.04v1.562h-6.04V10.383z
				 M9.588,9.605V8.042h6.04v1.563H9.588z M15.628,5.923v1.343h-6.04V5.923H15.628z M8.785,5.923v1.343H6.37V5.923H8.785z
				 M6.37,12.73h2.415v1.404H6.37V12.73z M9.588,14.135V12.73h6.04v1.404H9.588z"/>
		</g>
	</g>
	<g>
		<g>
			<rect x="3.129" y="0.5" opacity="0.8" fill="#FFFFFF" enable-background="new    " width="15.742" height="4.025"/>
		</g>
		<g enable-background="new    ">
			<path fill="#38883B" d="M9.478,2.487c0,0.269-0.042,0.505-0.127,0.709C9.268,3.4,9.151,3.57,9.006,3.707s-0.319,0.241-0.521,0.31
				C8.281,4.088,8.065,4.121,7.833,4.121c-0.226,0-0.438-0.033-0.639-0.104C6.995,3.948,6.82,3.844,6.671,3.707
				C6.522,3.57,6.404,3.4,6.318,3.196s-0.129-0.44-0.129-0.709s0.046-0.505,0.135-0.708c0.089-0.204,0.207-0.375,0.359-0.514
				c0.15-0.14,0.325-0.243,0.523-0.313c0.198-0.07,0.407-0.104,0.626-0.104c0.226,0,0.439,0.034,0.639,0.104
				c0.201,0.069,0.375,0.173,0.525,0.313c0.148,0.139,0.267,0.31,0.353,0.514C9.435,1.982,9.478,2.219,9.478,2.487z M6.957,2.487
				c0,0.153,0.021,0.293,0.06,0.416c0.04,0.124,0.096,0.23,0.171,0.319c0.075,0.09,0.166,0.158,0.273,0.206
				c0.108,0.049,0.232,0.073,0.372,0.073c0.137,0,0.26-0.024,0.369-0.073c0.111-0.048,0.202-0.116,0.277-0.206
				C8.554,3.134,8.611,3.027,8.65,2.903C8.69,2.78,8.711,2.641,8.711,2.487S8.69,2.193,8.65,2.068
				c-0.039-0.125-0.097-0.232-0.171-0.32C8.404,1.658,8.313,1.59,8.202,1.541C8.093,1.493,7.97,1.469,7.833,1.469
				c-0.14,0-0.264,0.025-0.372,0.075c-0.107,0.05-0.198,0.118-0.273,0.208s-0.131,0.195-0.171,0.32
				C6.978,2.199,6.957,2.337,6.957,2.487z"/>
			<path fill="#38883B" d="M12.989,2.487c0,0.272-0.046,0.509-0.134,0.711c-0.09,0.203-0.216,0.37-0.38,0.503
				C12.314,3.833,12.114,3.934,11.88,4c-0.236,0.065-0.5,0.099-0.793,0.099c-0.133,0-0.288-0.006-0.466-0.017
				c-0.178-0.01-0.353-0.031-0.523-0.065V0.962c0.171-0.03,0.35-0.05,0.535-0.062c0.187-0.01,0.345-0.016,0.479-0.016
				c0.283,0,0.539,0.03,0.771,0.091c0.23,0.061,0.427,0.155,0.594,0.285c0.164,0.13,0.29,0.296,0.38,0.497
				C12.943,1.961,12.989,2.203,12.989,2.487z M10.84,3.483c0.035,0.003,0.075,0.005,0.121,0.007
				c0.047,0.001,0.102,0.001,0.164,0.001c0.372,0,0.647-0.087,0.828-0.266c0.178-0.179,0.269-0.425,0.269-0.738
				c0-0.329-0.085-0.577-0.258-0.747c-0.172-0.168-0.442-0.253-0.813-0.253c-0.051,0-0.104,0.001-0.157,0.002
				c-0.055,0.002-0.105,0.005-0.153,0.012V3.483z"/>
			<path fill="#38883B" d="M14.51,3.519c0.104,0,0.191-0.008,0.26-0.024s0.123-0.038,0.164-0.068
				c0.041-0.027,0.068-0.062,0.085-0.102c0.016-0.039,0.024-0.082,0.024-0.131c0-0.103-0.052-0.188-0.153-0.256
				c-0.102-0.067-0.276-0.141-0.524-0.219c-0.106-0.037-0.216-0.078-0.323-0.125c-0.109-0.047-0.205-0.105-0.289-0.176
				c-0.088-0.072-0.156-0.158-0.211-0.259S13.46,1.936,13.46,1.791c0-0.146,0.03-0.275,0.088-0.393
				c0.057-0.115,0.137-0.215,0.24-0.297c0.106-0.08,0.232-0.144,0.383-0.188c0.147-0.043,0.317-0.065,0.506-0.065
				c0.221,0,0.412,0.022,0.574,0.068c0.164,0.045,0.295,0.095,0.401,0.149l-0.216,0.557c-0.09-0.046-0.194-0.086-0.307-0.12
				c-0.111-0.035-0.248-0.052-0.407-0.052c-0.178,0-0.306,0.023-0.382,0.07c-0.08,0.047-0.118,0.118-0.118,0.215
				c0,0.057,0.014,0.105,0.044,0.145c0.027,0.039,0.068,0.074,0.12,0.106s0.112,0.061,0.181,0.085
				c0.068,0.027,0.145,0.053,0.227,0.08c0.172,0.061,0.32,0.12,0.448,0.18c0.126,0.059,0.232,0.127,0.317,0.205
				s0.147,0.171,0.188,0.276c0.041,0.106,0.061,0.233,0.061,0.385c0,0.293-0.106,0.521-0.323,0.682
				c-0.216,0.161-0.541,0.241-0.976,0.241c-0.147,0-0.278-0.009-0.396-0.025c-0.117-0.017-0.222-0.035-0.312-0.061
				c-0.09-0.024-0.17-0.049-0.235-0.076c-0.063-0.027-0.117-0.053-0.164-0.076l0.211-0.563c0.099,0.051,0.219,0.098,0.363,0.139
				C14.122,3.5,14.3,3.519,14.51,3.519z"/>
		</g>
	</g>
</g>
</svg>
