<?xml version="1.0" encoding="utf-8"?>
<!-- Generator: Adobe Illustrator 21.0.0, SVG Export Plug-In . SVG Version: 6.00 Build 0)  -->
<svg version="1.1" id="图层_1" xmlns="http://www.w3.org/2000/svg" xmlns:xlink="http://www.w3.org/1999/xlink" x="0px" y="0px"
	 viewBox="0 0 22 22" style="enable-background:new 0 0 22 22;" xml:space="preserve">
<style type="text/css">
	.st0{fill:#5F7B89;}
	.st1{fill:url(#SVGID_1_);}
	.st2{fill:#455963;fill-opacity:0.7;}
	.st3{fill:#8DA1AC;}
	.st4{fill:#607D8B;}
</style>
<title>application-script-blank</title>
<path class="st0" d="M19,1v14l-6,6H3V1H19 M20,0H2v22h11l7-7V0z"/>
<linearGradient id="SVGID_1_" gradientUnits="userSpaceOnUse" x1="11" y1="1303.01" x2="11" y2="1323.01" gradientTransform="matrix(1 0 0 1 0 -1302.01)">
	<stop  offset="0" style="stop-color:#F6F5F5"/>
	<stop  offset="0.34" style="stop-color:#F1F2F3"/>
	<stop  offset="0.64" style="stop-color:#E7EAEB"/>
	<stop  offset="0.93" style="stop-color:#D5DBDF"/>
	<stop  offset="1" style="stop-color:#CFD7DB"/>
</linearGradient>
<polygon class="st1" points="3,21 3,1 19,1 19,15 13,21 "/>
<polygon class="st2" points="19,15 19,14 12,14 12,21 13,21 "/>
<path class="st3" d="M13,15h6l-6,6V15z"/>
<path class="st4" d="M6,8.2c0.1,0,0.3,0,0.4-0.1C6.5,8,6.6,8,6.7,7.9s0.1-0.2,0.2-0.3C7,7.5,7,7.4,7,7.3V5.6c0-0.2,0-0.5,0.1-0.7
	s0.2-0.4,0.3-0.5C7.6,4.3,7.8,4.2,8,4.1C8.3,4,8.7,4,9,4l0,0v0.7c-0.3,0-0.6,0-0.9,0.2C7.9,5.1,7.8,5.3,7.9,5.6V7c0,0.3,0,0.7-0.2,1
	C7.6,8.2,7.4,8.4,7.2,8.5C7.4,8.6,7.6,8.8,7.7,9c0.1,0.3,0.2,0.6,0.2,0.9v1.4c0,0.3,0.1,0.5,0.3,0.7c0.3,0.1,0.6,0.2,0.9,0.2V13l0,0
	c-0.3,0-0.7,0-1-0.1c-0.2-0.1-0.4-0.2-0.6-0.3s-0.3-0.3-0.3-0.5C7,11.9,6.9,11.6,7,11.4V9.7c0-0.1,0-0.2-0.1-0.3
	c0-0.1-0.1-0.2-0.2-0.3C6.6,9,6.5,9,6.4,8.9C6.3,8.9,6.1,8.8,6,8.8V8.2z"/>
<path class="st4" d="M16,8.8c-0.1,0-0.3,0-0.4,0.1c-0.1,0-0.2,0.1-0.3,0.2c-0.1,0.1-0.1,0.2-0.2,0.3c0,0.1-0.1,0.2-0.1,0.3v1.7
	c0,0.2,0,0.5-0.1,0.7s-0.2,0.4-0.3,0.5c-0.2,0.2-0.4,0.3-0.6,0.3C13.7,13,13.3,13,13,13l0,0v-0.7c0.3,0,0.6,0,0.9-0.2
	c0.2-0.2,0.3-0.5,0.3-0.7V10c0-0.3,0-0.7,0.2-1c0.1-0.2,0.3-0.4,0.5-0.5c-0.2-0.1-0.4-0.3-0.5-0.5c-0.1-0.3-0.2-0.7-0.2-1V5.6
	c0-0.3-0.1-0.5-0.3-0.7c-0.3-0.1-0.6-0.2-0.9-0.2V4l0,0c0.3,0,0.7,0,1,0.1c0.2,0.1,0.4,0.2,0.6,0.3c0.2,0.1,0.3,0.3,0.3,0.5
	C15,5.1,15,5.4,15,5.6v1.7c0,0.1,0,0.2,0.1,0.3c0,0.1,0.1,0.2,0.2,0.3c0,0.1,0.1,0.1,0.2,0.2s0.3,0.1,0.4,0.1L16,8.8z"/>
</svg>
