<?xml version="1.0" encoding="utf-8"?>
<!-- Generator: Adobe Illustrator 16.0.0, SVG Export Plug-In . SVG Version: 6.00 Build 0)  -->
<!DOCTYPE svg PUBLIC "-//W3C//DTD SVG 1.1//EN" "http://www.w3.org/Graphics/SVG/1.1/DTD/svg11.dtd">
<svg version="1.1" id="图层_1" xmlns="http://www.w3.org/2000/svg" xmlns:xlink="http://www.w3.org/1999/xlink" x="0px" y="0px"
	 width="22px" height="22px" viewBox="0 0 22 22" enable-background="new 0 0 22 22" xml:space="preserve">
<linearGradient id="SVGID_1_" gradientUnits="userSpaceOnUse" x1="177.4004" y1="1575.9609" x2="177.4004" y2="1553.9609" gradientTransform="matrix(1 0 0 1 -166.4004 -1553.9609)">
	<stop  offset="0" style="stop-color:#455A64"/>
	<stop  offset="0.0238" style="stop-color:#465C66"/>
	<stop  offset="0.3557" style="stop-color:#556E7A"/>
	<stop  offset="0.6835" style="stop-color:#5D7987"/>
	<stop  offset="1" style="stop-color:#607D8B"/>
</linearGradient>
<path fill="url(#SVGID_1_)" d="M13.063,22l6.188-6.188V0H2.75v22H13.063z"/>
<polygon fill="#263238" fill-opacity="0.3922" points="12.719,15.469 12.719,22 13.063,22 19.25,15.813 19.25,15.469 "/>
<path fill="#FFFFFF" fill-opacity="0.3922" d="M13.063,15.813h6.183L13.063,22V15.813z"/>
<g opacity="0.8">
	<path fill="#FFFFFF" d="M8.866,5.161c-1.581,0-3.57,1.495-3.551,3.81c0.016,2.241,0.761,3.455,1.332,4.828l1.69-0.702
		c-0.388-0.789-0.896-1.57-1.076-1.963c-0.502-1.094-0.673-1.587-0.63-2.421c0.039-0.806,0.308-1.298,0.802-1.775
		c0.493-0.475,1.178-0.715,1.991-0.603c1.175,0.161,1.794,0.819,2.093,1.419c0.167-0.024,0.339-0.044,0.53-0.043
		c0.147,0,0.297,0.011,0.442,0.043C12.175,6.507,10.62,5.161,8.866,5.161z M9.583,7.338c-0.72-0.047-1.769,0.303-1.762,1.404
		c0.004,1.041,0.656,1.821,1.431,2.134c-0.016-0.262,0.001-0.552,0.043-0.845c-0.42-0.228-0.675-0.635-0.715-1.203
		C8.532,8.197,9.159,7.56,10.155,7.883c0.161,0.051,0.167-0.227-0.013-0.373C10.024,7.417,9.822,7.354,9.583,7.338z M12.048,8.169
		c-0.127,0-0.246,0.004-0.358,0.015c0.028,0.112,0.05,0.225,0.058,0.314c0.072-0.004,0.151-0.003,0.228,0
		c0.212,0.011,0.408,0.044,0.589,0.101c0.007-0.118,0.002-0.231,0-0.344C12.393,8.201,12.22,8.17,12.048,8.169z M11.704,8.942
		c-0.113,0.485-0.453,1.08-1.147,1.246c-0.017,0.101-0.032,0.195-0.028,0.258c0.008,0.133,0.036,0.318,0.114,0.516
		c1.188-0.217,1.698-1.051,1.863-1.905c-0.159-0.063-0.341-0.104-0.559-0.114C11.862,8.938,11.777,8.936,11.704,8.942z
		 M9.741,10.203c-0.024,0.222-0.042,0.442-0.028,0.645c0.002,0.049,0.005,0.094,0.013,0.144c0.089,0.012,0.17,0.042,0.258,0.043
		c0.075,0,0.145-0.011,0.215-0.015c-0.07-0.197-0.118-0.385-0.129-0.543c-0.004-0.069-0.005-0.149,0-0.23
		C9.956,10.241,9.842,10.223,9.741,10.203z"/>
	<path fill="#CFD8DC" d="M15.388,5.168c0.572,1.371,1.33,2.58,1.346,4.822c0.018,2.315-1.981,3.812-3.563,3.812
		c-1.914,0-3.597-1.604-3.686-2.933C9.403,9.67,9.833,7.926,12.053,7.938c1.06,0.007,2.161,0.921,2.166,2.283
		c0.008,1.469-1.848,1.614-2.314,1.239c-0.181-0.145-0.176-0.434-0.017-0.381c0.999,0.322,1.615-0.314,1.569-0.945
		c-0.062-0.86-0.574-1.371-1.494-1.413c-1.327-0.063-1.697,1.217-1.664,1.738c0.042,0.632,0.596,1.932,2.323,2.168
		c0.814,0.113,1.491-0.129,1.983-0.604c0.493-0.477,0.772-0.968,0.813-1.773c0.042-0.833-0.141-1.321-0.644-2.416
		c-0.18-0.392-0.681-1.178-1.07-1.967l1.686-0.698"/>
</g>
<g>
	<path fill="#263238" d="M18.75,0.5v15.105L12.855,21.5H8.25h-5v-21H18.75 M19.25,0H2.75v22h5.5h4.813l6.188-6.188V0L19.25,0z"/>
</g>
</svg>
