<?xml version="1.0" encoding="utf-8"?>
<!-- Generator: Adobe Illustrator 16.0.0, SVG Export Plug-In . SVG Version: 6.00 Build 0)  -->
<!DOCTYPE svg PUBLIC "-//W3C//DTD SVG 1.1//EN" "http://www.w3.org/Graphics/SVG/1.1/DTD/svg11.dtd">
<svg version="1.1" id="图层_1" xmlns="http://www.w3.org/2000/svg" xmlns:xlink="http://www.w3.org/1999/xlink" x="0px" y="0px"
	 width="22px" height="22px" viewBox="0 0 22 22" enable-background="new 0 0 22 22" xml:space="preserve">
<polygon fill="#3E2723" points="2.634,22 2.634,0 19.366,0 19.366,15.807 13.111,22 "/>
<g>
	<g>
		
			<linearGradient id="SVGID_1_" gradientUnits="userSpaceOnUse" x1="52.5996" y1="-142.4004" x2="52.5996" y2="-163.4009" gradientTransform="matrix(1 0 0 -1 -41.6001 -141.9004)">
			<stop  offset="0" style="stop-color:#785548"/>
			<stop  offset="1" style="stop-color:#9F9E9F"/>
		</linearGradient>
		<polygon fill="url(#SVGID_1_)" points="3.133,21.5 3.133,0.5 18.867,0.5 18.867,15.586 13.019,21.5 		"/>
		<polygon fill="#795548" fill-opacity="0.7" points="18.867,15.594 18.867,15.34 12.638,15.34 12.638,21.5 12.961,21.5 		"/>
		<path opacity="0.39" fill="#FFFFFF" enable-background="new    " d="M12.952,15.594l5.915,0.008L12.961,21.5L12.952,15.594z"/>
	</g>
	<path fill="#FFFFFF" d="M8.755,4.548H8.223v6.819H7.819V4.548H7.291v6.819H6.889V4.548h-0.53v6.819H5.955V4.548h-0.53v6.819H5.286
		v2.889h3.65v-2.889H8.755V4.548z M8.405,13.417h-2.59v-1.675h2.59V13.417z"/>
	<g>
		<rect x="3.13" y="0.5" opacity="0.8" fill="#FFFFFF" enable-background="new    " width="15.74" height="4.025"/>
		<g enable-background="new    ">
			<path fill="#5D4037" d="M8.839,4.082c0.02-0.222,0.061-0.451,0.12-0.689C9.02,3.155,9.093,2.921,9.181,2.691
				c0.088-0.229,0.185-0.445,0.293-0.649C9.581,1.838,9.69,1.663,9.802,1.515H8.367V0.94h2.312v0.489
				c-0.103,0.105-0.213,0.251-0.336,0.438c-0.123,0.188-0.238,0.399-0.348,0.636C9.886,2.741,9.79,2.995,9.708,3.267
				c-0.08,0.271-0.131,0.543-0.15,0.815H8.839z"/>
			<path fill="#5D4037" d="M13.58,1.433c-0.102,0.1-0.223,0.229-0.362,0.388c-0.141,0.158-0.284,0.331-0.434,0.518
				c-0.15,0.187-0.298,0.38-0.442,0.579c-0.148,0.2-0.278,0.39-0.392,0.571h1.682v0.593h-2.596V3.661
				c0.089-0.155,0.198-0.326,0.326-0.514c0.129-0.189,0.263-0.379,0.402-0.571c0.14-0.191,0.281-0.377,0.427-0.557
				c0.145-0.18,0.278-0.34,0.401-0.482h-1.481V0.944h2.469V1.433z"/>
		</g>
	</g>
</g>
</svg>
