<?xml version="1.0" encoding="utf-8"?>
<!-- Generator: Adobe Illustrator 16.0.0, SVG Export Plug-In . SVG Version: 6.00 Build 0)  -->
<!DOCTYPE svg PUBLIC "-//W3C//DTD SVG 1.1//EN" "http://www.w3.org/Graphics/SVG/1.1/DTD/svg11.dtd">
<svg version="1.1" id="图层_1" xmlns="http://www.w3.org/2000/svg" xmlns:xlink="http://www.w3.org/1999/xlink" x="0px" y="0px"
	 width="22px" height="22px" viewBox="0 0 22 22" enable-background="new 0 0 22 22" xml:space="preserve">
<polygon fill="#01579B" points="2.634,22 2.634,0 19.366,0 19.366,15.807 13.111,22 "/>
<g>
	<g>
		<g>
			<g>
				
					<linearGradient id="SVGID_1_" gradientUnits="userSpaceOnUse" x1="94.1992" y1="-582.3003" x2="94.1992" y2="-561.3008" gradientTransform="matrix(1 0 0 -1 -83.2002 -560.8008)">
					<stop  offset="0" style="stop-color:#2196F3"/>
					<stop  offset="0.5828" style="stop-color:#3DBAE8"/>
					<stop  offset="1" style="stop-color:#4DD0E1"/>
				</linearGradient>
				<polygon fill="url(#SVGID_1_)" points="3.132,21.5 3.132,0.5 18.865,0.5 18.865,15.594 12.959,21.5 				"/>
			</g>
			<polygon fill="#01579B" fill-opacity="0.39" points="18.865,15.594 18.865,15.34 12.636,15.34 12.636,21.5 12.959,21.5 			"/>
			<path fill="#FFFFFF" fill-opacity="0.3922" d="M12.951,15.594l5.916,0.008L12.959,21.5L12.951,15.594z"/>
		</g>
		<g>
			<circle opacity="0.8" fill="#FFFFFF" enable-background="new    " cx="13.79" cy="8.944" r="1.112"/>
			<path opacity="0.8" fill="#FFFFFF" enable-background="new    " d="M5.531,6.625V13.8h10.938V6.625H5.531z M15.68,7.413v5.6l0,0
				l-2.537-1.802l-1.813,1.11L9.004,9.513l-2.687,3.5v-5.6H15.68z"/>
		</g>
	</g>
	<g>
		<rect x="3.129" y="0.5" opacity="0.8" fill="#FFFFFF" enable-background="new    " width="15.742" height="4.025"/>
		<g enable-background="new    ">
			<path fill="#0288D1" d="M9.15,1.464c-0.345,0-0.597,0.091-0.749,0.273c-0.156,0.184-0.232,0.433-0.232,0.75
				c0,0.154,0.019,0.294,0.057,0.419c0.039,0.125,0.096,0.233,0.173,0.323C8.475,3.32,8.57,3.39,8.683,3.44
				c0.115,0.05,0.249,0.075,0.402,0.075c0.082,0,0.152-0.001,0.213-0.004c0.058-0.003,0.109-0.009,0.153-0.019V2.401h0.743v1.553
				C10.107,3.987,9.962,4.022,9.766,4.06c-0.197,0.038-0.44,0.057-0.73,0.057c-0.246,0-0.47-0.036-0.673-0.108
				C8.16,3.936,7.988,3.831,7.846,3.692C7.704,3.553,7.592,3.382,7.515,3.18C7.437,2.978,7.397,2.747,7.397,2.487
				c0-0.263,0.044-0.495,0.129-0.697C7.61,1.588,7.729,1.417,7.879,1.276S8.204,1.03,8.406,0.958c0.2-0.073,0.416-0.109,0.646-0.109
				c0.156,0,0.295,0.01,0.421,0.029c0.126,0.02,0.232,0.042,0.325,0.068c0.091,0.025,0.164,0.052,0.222,0.08
				c0.061,0.026,0.102,0.048,0.129,0.063L9.933,1.655C9.831,1.604,9.714,1.559,9.582,1.521C9.451,1.483,9.306,1.464,9.15,1.464z"/>
			<path fill="#0288D1" d="M10.887,0.921h0.743v3.137h-0.743V0.921z"/>
			<path fill="#0288D1" d="M12.391,4.058V0.921h2.212v0.594h-1.469v0.656h1.308v0.592h-1.308v1.295H12.391z"/>
		</g>
	</g>
</g>
<g>
	<g>
		<g>
			<g>
				
					<linearGradient id="SVGID_2_" gradientUnits="userSpaceOnUse" x1="94.1992" y1="-582.3003" x2="94.1992" y2="-561.3008" gradientTransform="matrix(1 0 0 -1 -83.2002 -560.8008)">
					<stop  offset="0" style="stop-color:#2196F3"/>
					<stop  offset="0.5828" style="stop-color:#3DBAE8"/>
					<stop  offset="1" style="stop-color:#4DD0E1"/>
				</linearGradient>
				<polygon fill="url(#SVGID_2_)" points="3.132,21.5 3.132,0.5 18.865,0.5 18.865,15.594 12.959,21.5 				"/>
			</g>
			<polygon fill="#01579B" fill-opacity="0.39" points="18.865,15.594 18.865,15.34 12.636,15.34 12.636,21.5 12.959,21.5 			"/>
			<path fill="#FFFFFF" fill-opacity="0.3922" d="M12.951,15.594l5.916,0.008L12.959,21.5L12.951,15.594z"/>
		</g>
		<g>
			<circle opacity="0.8" fill="#FFFFFF" enable-background="new    " cx="13.79" cy="8.944" r="1.112"/>
			<path opacity="0.8" fill="#FFFFFF" enable-background="new    " d="M5.531,6.625V13.8h10.938V6.625H5.531z M15.68,7.413v5.6l0,0
				l-2.537-1.802l-1.813,1.11L9.004,9.513l-2.687,3.5v-5.6H15.68z"/>
		</g>
	</g>
	<g>
		<rect x="3.129" y="0.5" opacity="0.8" fill="#FFFFFF" enable-background="new    " width="15.742" height="4.025"/>
		<g enable-background="new    ">
			<path fill="#0288D1" d="M7.19,0.921h0.743v3.137H7.19V0.921z"/>
			<path fill="#0288D1" d="M10.2,4.122c-0.536,0-0.946-0.142-1.228-0.426C8.69,3.412,8.552,3.009,8.552,2.487
				c0-0.259,0.043-0.491,0.128-0.695c0.085-0.204,0.202-0.376,0.353-0.516S9.36,1.03,9.565,0.958
				c0.208-0.073,0.433-0.109,0.673-0.109c0.14,0,0.266,0.01,0.38,0.029c0.115,0.02,0.217,0.042,0.301,0.068
				c0.085,0.025,0.159,0.052,0.214,0.08c0.058,0.026,0.099,0.048,0.126,0.063l-0.217,0.571c-0.101-0.051-0.219-0.095-0.355-0.131
				c-0.134-0.037-0.287-0.055-0.459-0.055c-0.112,0-0.225,0.018-0.334,0.055C9.782,1.564,9.687,1.623,9.602,1.702
				c-0.085,0.08-0.15,0.184-0.202,0.311C9.35,2.139,9.322,2.293,9.322,2.474c0,0.145,0.017,0.28,0.052,0.405
				c0.033,0.125,0.088,0.233,0.162,0.324c0.073,0.09,0.172,0.162,0.292,0.214s0.269,0.08,0.438,0.08
				c0.109,0,0.205-0.006,0.293-0.019c0.085-0.012,0.161-0.026,0.227-0.042c0.068-0.017,0.126-0.036,0.178-0.057
				c0.05-0.021,0.096-0.041,0.137-0.059l0.205,0.565C11.201,3.947,11.054,4,10.862,4.049C10.671,4.097,10.452,4.122,10.2,4.122z"/>
			<path fill="#0288D1" d="M14.808,2.487c0,0.269-0.041,0.505-0.126,0.709C14.597,3.4,14.482,3.57,14.337,3.708
				c-0.147,0.137-0.319,0.241-0.521,0.31c-0.203,0.07-0.419,0.104-0.651,0.104c-0.227,0-0.438-0.035-0.64-0.104
				c-0.199-0.069-0.375-0.172-0.522-0.31c-0.15-0.138-0.268-0.308-0.353-0.511c-0.088-0.204-0.129-0.44-0.129-0.709
				s0.044-0.504,0.135-0.708c0.087-0.204,0.207-0.375,0.357-0.514s0.326-0.243,0.525-0.312c0.197-0.07,0.407-0.104,0.626-0.104
				c0.225,0,0.438,0.035,0.638,0.104c0.202,0.069,0.374,0.173,0.524,0.312s0.269,0.31,0.353,0.514
				C14.764,1.983,14.808,2.219,14.808,2.487z M12.286,2.487c0,0.154,0.022,0.293,0.061,0.416c0.041,0.125,0.096,0.23,0.172,0.319
				c0.074,0.09,0.164,0.158,0.273,0.207c0.107,0.048,0.232,0.072,0.372,0.072c0.137,0,0.26-0.024,0.369-0.072
				c0.109-0.048,0.202-0.117,0.276-0.207c0.074-0.089,0.131-0.195,0.172-0.319c0.039-0.123,0.061-0.262,0.061-0.416
				s-0.021-0.293-0.061-0.418c-0.041-0.125-0.098-0.232-0.172-0.321s-0.167-0.158-0.276-0.207c-0.109-0.048-0.232-0.072-0.369-0.072
				c-0.14,0-0.265,0.025-0.372,0.075c-0.109,0.05-0.199,0.119-0.273,0.208c-0.076,0.09-0.131,0.196-0.172,0.321
				C12.309,2.199,12.286,2.337,12.286,2.487z"/>
		</g>
	</g>
</g>
</svg>
