<?xml version="1.0" encoding="utf-8"?>
<!-- Generator: Adobe Illustrator 21.0.0, SVG Export Plug-In . SVG Version: 6.00 Build 0)  -->
<svg version="1.1" id="图层_1" xmlns="http://www.w3.org/2000/svg" xmlns:xlink="http://www.w3.org/1999/xlink" x="0px" y="0px"
	 viewBox="0 0 22 22" style="enable-background:new 0 0 22 22;" xml:space="preserve">
<style type="text/css">
	.st0{fill:#0D47A1;}
	.st1{fill:url(#SVGID_1_);}
	.st2{fill:#0D47A1;fill-opacity:0.39;}
	.st3{fill:#FFFFFF;fill-opacity:0.39;}
	.st4{opacity:0.8;fill:#FFFFFF;enable-background:new    ;}
</style>
<title>application-users</title>
<path class="st0" d="M19,1v14l-6,6H3V1H19 M20,0H2v22h11l7-7V0z"/>
<linearGradient id="SVGID_1_" gradientUnits="userSpaceOnUse" x1="11" y1="-1486.99" x2="11" y2="-1506.99" gradientTransform="matrix(1 0 0 -1 0 -1485.99)">
	<stop  offset="0" style="stop-color:#64B5F6"/>
	<stop  offset="0.23" style="stop-color:#60B1F4"/>
	<stop  offset="0.46" style="stop-color:#53A7EE"/>
	<stop  offset="0.7" style="stop-color:#3F96E4"/>
	<stop  offset="0.94" style="stop-color:#227DD6"/>
	<stop  offset="1" style="stop-color:#1976D2"/>
</linearGradient>
<polygon class="st1" points="3,21 3,1 19,1 19,15 13,21 "/>
<polygon class="st2" points="19,15 19,14 12,14 12,21 13,21 "/>
<path class="st3" d="M13,15h6l-6,6V15z"/>
<path class="st4" d="M12.2,5.4h1.4C14.3,5.4,15,6,15,6.7c0,0,0,0,0,0.1v2c-0.1,0.5-0.3,1-0.7,1.4v0.7l1.4,1V13H9.4v-1l2.1-1.1v-0.7
	c-0.3-0.4-0.6-0.9-0.7-1.4v-2C10.8,6.1,11.4,5.5,12.2,5.4L12.2,5.4z M8.7,6.5h0.8v2.2c0.1,0.6,0.4,1.1,0.7,1.6l-1.4,1.1v0.9H6v-0.4
	l2.1-1v-0.6c0,0-1-1.1-1-1.7V8.1C7,7.3,7.7,6.5,8.7,6.5C8.6,6.5,8.6,6.5,8.7,6.5z"/>
</svg>
