<?xml version="1.0" encoding="utf-8"?>
<!-- Generator: Adobe Illustrator 21.0.0, SVG Export Plug-In . SVG Version: 6.00 Build 0)  -->
<svg version="1.1" id="图层_1" xmlns="http://www.w3.org/2000/svg" xmlns:xlink="http://www.w3.org/1999/xlink" x="0px" y="0px"
	 viewBox="0 0 22 22" style="enable-background:new 0 0 22 22;" xml:space="preserve">
<style type="text/css">
	.st0{fill:#B71C1C;}
	.st1{fill:url(#SVGID_1_);}
	.st2{fill:#BF360C;fill-opacity:0.39;}
	.st3{fill:#FFFFFF;fill-opacity:0.39;}
	.st4{opacity:0.8;}
	.st5{fill:#FFFFFF;}
</style>
<title>application-pdf</title>
<path class="st0" d="M19,1v14l-6,6H3V1H19 M20,0H2v22h11l7-7V0z"/>
<linearGradient id="SVGID_1_" gradientUnits="userSpaceOnUse" x1="11" y1="-1486.99" x2="11" y2="-1506.99" gradientTransform="matrix(1 0 0 -1 0 -1485.99)">
	<stop  offset="0" style="stop-color:#F44336"/>
	<stop  offset="0.34" style="stop-color:#F04035"/>
	<stop  offset="0.7" style="stop-color:#E33932"/>
	<stop  offset="0.99" style="stop-color:#D32F2F"/>
</linearGradient>
<polygon class="st1" points="3,21 3,1 19,1 19,15 13,21 "/>
<polygon class="st2" points="19,15 19,14 12,14 12,21 13,21 "/>
<path class="st3" d="M13,15h6l-6,6V15z"/>
<g class="st4">
	<path class="st5" d="M10.8,4c0,2.6-0.7,5.2-2.1,7.4c-2.4,4.2-3.2,3.6-3.4,3.5s-0.6-0.6,0.5-1.6s1.5-0.9,1.5-0.9
		c-0.5,0.3-1,0.7-1.4,1.2c-0.4,0.6-0.7,0.9-0.6,1.1S6.5,14,7,13.3c1.1-1.6,2-3.4,2.7-5.2C10.3,6.1,10.8,4,10.8,4z"/>
	<path class="st5" d="M16.8,11.4c0,0-0.1,0.1-0.7,0.1c-1.7-0.3-3.3-1.2-4.5-2.5c-1-1.5-1.6-3.2-1.5-5c-0.1-1.2,0.4-0.8,0.5-0.7
		s0.1,0.3,0.2,0.4c0-0.2-0.1-0.5-0.2-0.7c-0.2-0.2-0.4-0.2-0.6,0.1C9.7,3.9,9.6,4.7,9.8,5.4c0.3,1.4,0.9,2.8,1.7,4
		c1,1,2.3,1.8,3.8,2.1c1.3,0.3,1.5-0.3,1.5-0.3l0,0V11.4z"/>
	<path class="st5" d="M8.6,11.8c1.5-0.5,3.1-0.8,4.7-1c2.3-0.2,3.1,0,3.3,0.2c0.1,0.1,0.2,0.2,0.2,0.4c0.1-0.1,0.2-0.3,0.1-0.5
		c-0.1-0.3-0.4-0.5-2.2-0.4c-1.2,0-2.4,0.2-3.6,0.4C10.2,11,9.4,11.3,8.6,11.8z"/>
</g>
</svg>
