<?xml version="1.0" encoding="utf-8"?>
<!-- Generator: Adobe Illustrator 16.0.0, SVG Export Plug-In . SVG Version: 6.00 Build 0)  -->
<!DOCTYPE svg PUBLIC "-//W3C//DTD SVG 1.1//EN" "http://www.w3.org/Graphics/SVG/1.1/DTD/svg11.dtd">
<svg version="1.1" id="图层_1" xmlns="http://www.w3.org/2000/svg" xmlns:xlink="http://www.w3.org/1999/xlink" x="0px" y="0px"
	 width="22px" height="22px" viewBox="0 0 22 22" enable-background="new 0 0 22 22" xml:space="preserve">
<rect fill="#455A64" width="22" height="22"/>
<g>
	
		<linearGradient id="SVGID_1_" gradientUnits="userSpaceOnUse" x1="52.5996" y1="-142.4004" x2="52.5996" y2="-163.4009" gradientTransform="matrix(1 0 0 -1 -41.6001 -141.9004)">
		<stop  offset="0" style="stop-color:#90A4AE"/>
		<stop  offset="0.1378" style="stop-color:#849AA5"/>
		<stop  offset="0.4226" style="stop-color:#708A97"/>
		<stop  offset="0.7096" style="stop-color:#64808E"/>
		<stop  offset="1" style="stop-color:#607D8B"/>
	</linearGradient>
	<rect x="0.5" y="0.5" fill="url(#SVGID_1_)" width="21" height="21"/>
	<path opacity="0.8" fill="#FFFFFF" enable-background="new    " d="M16.206,13.775c0.023-0.033,0.033-0.063,0.055-0.097
		c0.033-0.064,0.064-0.118,0.087-0.182c0,0,0-0.011,0.009-0.011c0.15-0.332,0.279-0.687,0.365-1.061h1.403V9.607h-1.393
		c-0.14-0.59-0.376-1.135-0.676-1.639l0.987-0.986l-1.993-1.994l-0.987,0.986c-0.514-0.311-1.07-0.547-1.671-0.697h0.011V3.874
		H9.586v1.404h0.011c-0.602,0.15-1.157,0.375-1.671,0.687L6.939,4.979L4.957,6.972L5.94,7.957c-0.297,0.503-0.533,1.05-0.673,1.64
		H3.874v2.817h1.403c0.141,0.591,0.375,1.136,0.677,1.649l0,0l-0.986,0.987l1.993,1.993l0.984-0.987
		c0.503,0.311,1.062,0.536,1.651,0.687v1.392h2.817v-1.392l0,0l0,0c0.591-0.15,1.146-0.376,1.649-0.687l0.987,0.987l1.993-1.993
		l-0.987-0.987l0,0c0.032-0.053,0.065-0.117,0.096-0.17C16.165,13.851,16.186,13.807,16.206,13.775z M11,15.5
		c-2.485,0-4.5-2.014-4.5-4.5S8.515,6.499,11,6.499c0.492,0,0.964,0.076,1.414,0.225l0,0C14.204,7.314,15.5,9.006,15.5,11
		c0,0.117,0,0.247-0.012,0.365v0.01c-0.032,0.365-0.096,0.707-0.213,1.039c0,0.012-0.011,0.021-0.011,0.032
		c-0.075,0.215-0.16,0.417-0.258,0.611c-0.01,0.01-0.01,0.021-0.01,0.031c-0.054,0.098-0.107,0.193-0.161,0.279
		c0,0.01-0.011,0.01-0.011,0.022c-0.053,0.084-0.118,0.181-0.183,0.268l-0.011,0.011c-0.063,0.084-0.128,0.171-0.204,0.244
		c-0.009,0.011-0.021,0.024-0.031,0.033c-0.14,0.161-0.289,0.311-0.45,0.45c-0.009,0.01-0.022,0.022-0.043,0.031
		c-0.074,0.065-0.161,0.13-0.245,0.193c-0.013,0.011-0.022,0.021-0.044,0.021c-0.074,0.054-0.16,0.108-0.246,0.161
		c-0.012,0.011-0.021,0.011-0.031,0.021c-0.088,0.054-0.172,0.106-0.27,0.149c-0.021,0.011-0.043,0.022-0.063,0.032
		c-0.098,0.044-0.183,0.085-0.279,0.129c-0.012,0-0.021,0.011-0.033,0.011c-0.085,0.032-0.171,0.063-0.257,0.097
		C11.996,15.415,11.514,15.5,11,15.5z"/>
</g>
</svg>
