<?xml version="1.0" encoding="utf-8"?>
<!-- Generator: Adobe Illustrator 16.0.0, SVG Export Plug-In . SVG Version: 6.00 Build 0)  -->
<!DOCTYPE svg PUBLIC "-//W3C//DTD SVG 1.1//EN" "http://www.w3.org/Graphics/SVG/1.1/DTD/svg11.dtd">
<svg version="1.1" id="图层_1" xmlns="http://www.w3.org/2000/svg" xmlns:xlink="http://www.w3.org/1999/xlink" x="0px" y="0px"
	 width="22px" height="22px" viewBox="0 0 22 22" enable-background="new 0 0 22 22" xml:space="preserve">
<polygon fill="#1B5E20" points="2.634,22 2.634,0 19.366,0 19.366,15.806 13.112,22 "/>
<g>
	<g>
		<g>
			
				<linearGradient id="SVGID_1_" gradientUnits="userSpaceOnUse" x1="52.5996" y1="440.4004" x2="52.5996" y2="419.4004" gradientTransform="matrix(1 0 0 1 -41.6001 -418.9004)">
				<stop  offset="0" style="stop-color:#388E3C"/>
				<stop  offset="0.0757" style="stop-color:#43953E"/>
				<stop  offset="0.3246" style="stop-color:#62A943"/>
				<stop  offset="0.5665" style="stop-color:#79B747"/>
				<stop  offset="0.796" style="stop-color:#86C049"/>
				<stop  offset="1" style="stop-color:#8BC34A"/>
			</linearGradient>
			<polygon fill="url(#SVGID_1_)" points="3.133,21.5 3.133,0.5 18.867,0.5 18.867,15.594 12.961,21.5 			"/>
		</g>
		<polygon fill="#1B5E20" fill-opacity="0.39" points="18.867,15.594 18.867,15.34 12.637,15.34 12.637,21.5 12.961,21.5 		"/>
		<path fill="#FFFFFF" fill-opacity="0.3922" d="M12.951,15.594l5.916,0.008L12.961,21.5L12.951,15.594z"/>
	</g>
	<path opacity="0.8" fill="#FFFFFF" enable-background="new    " d="M11.403,4.368V4.35h-0.806v0.018H5.399V14.5h11.2V4.368H11.403z
		 M6.205,7.377h2.502v1.619H6.205V7.377z M6.205,9.801h2.502v1.619H6.205V9.801z M9.538,9.801h6.257v1.619H9.538V9.801z
		 M9.538,8.996V7.377h6.257v1.619H9.538z M15.795,5.181v1.392H9.538V5.181H15.795z M8.707,5.181v1.392H6.205V5.181H8.707z
		 M6.205,12.233h2.502v1.453H6.205V12.233z M9.538,13.687v-1.453h6.257v1.453H9.538z"/>
</g>
</svg>
