<?xml version="1.0" encoding="utf-8"?>
<!-- Generator: Adobe Illustrator 16.0.0, SVG Export Plug-In . SVG Version: 6.00 Build 0)  -->
<!DOCTYPE svg PUBLIC "-//W3C//DTD SVG 1.1//EN" "http://www.w3.org/Graphics/SVG/1.1/DTD/svg11.dtd">
<svg version="1.1" id="图层_1" xmlns="http://www.w3.org/2000/svg" xmlns:xlink="http://www.w3.org/1999/xlink" x="0px" y="0px"
	 width="22px" height="22px" viewBox="0 0 22 22" enable-background="new 0 0 22 22" xml:space="preserve">
<polygon fill="#3E2723" points="2.634,22 2.634,0 19.366,0 19.366,15.807 13.111,22 "/>
<g>
	<g>
		
			<linearGradient id="SVGID_1_" gradientUnits="userSpaceOnUse" x1="52.5996" y1="-142.4004" x2="52.5996" y2="-163.4009" gradientTransform="matrix(1 0 0 -1 -41.6001 -141.9004)">
			<stop  offset="0" style="stop-color:#785548"/>
			<stop  offset="1" style="stop-color:#9F9E9F"/>
		</linearGradient>
		<polygon fill="url(#SVGID_1_)" points="3.133,21.5 3.133,0.5 18.867,0.5 18.867,15.586 13.019,21.5 		"/>
		<polygon fill="#795548" fill-opacity="0.7" points="18.867,15.594 18.867,15.34 12.638,15.34 12.638,21.5 12.961,21.5 		"/>
		<path opacity="0.39" fill="#FFFFFF" enable-background="new    " d="M12.952,15.594l5.915,0.008L12.961,21.5L12.952,15.594z"/>
	</g>
	<path fill="#FFFFFF" d="M8.755,4.548H8.223v6.819H7.819V4.548H7.291v6.819H6.889V4.548h-0.53v6.819H5.955V4.548h-0.53v6.819H5.286
		v2.889h3.65v-2.889H8.755V4.548z M8.405,13.417h-2.59v-1.675h2.59V13.417z"/>
	<g>
		<rect x="3.13" y="0.5" opacity="0.8" fill="#FFFFFF" enable-background="new    " width="15.74" height="4.025"/>
		<g enable-background="new    ">
			<path fill="#5D4037" d="M9.109,4.082C9.074,3.973,9.034,3.86,8.992,3.746C8.949,3.631,8.907,3.516,8.866,3.402H7.575
				C7.534,3.517,7.492,3.631,7.451,3.747C7.409,3.861,7.37,3.973,7.334,4.082H6.563c0.123-0.338,0.242-0.65,0.353-0.938
				c0.112-0.286,0.222-0.556,0.328-0.81C7.35,2.081,7.455,1.84,7.558,1.612C7.662,1.385,7.77,1.162,7.881,0.944h0.705
				c0.108,0.217,0.215,0.44,0.32,0.668C9.011,1.84,9.118,2.081,9.225,2.334c0.106,0.254,0.216,0.524,0.328,0.81
				c0.112,0.287,0.229,0.6,0.354,0.938H9.109z M8.218,1.655C8.2,1.7,8.177,1.763,8.145,1.841C8.113,1.92,8.076,2.01,8.036,2.113
				C7.995,2.216,7.949,2.329,7.899,2.452C7.849,2.576,7.797,2.705,7.745,2.841h0.944c-0.05-0.136-0.1-0.266-0.147-0.39
				C8.496,2.327,8.45,2.214,8.408,2.111C8.364,2.008,8.327,1.918,8.296,1.839C8.264,1.761,8.237,1.7,8.218,1.655z"/>
			<path fill="#5D4037" d="M11.297,0.908c0.495,0,0.875,0.084,1.139,0.251s0.396,0.428,0.396,0.781c0,0.22-0.052,0.399-0.159,0.537
				c-0.106,0.137-0.26,0.245-0.459,0.323c0.065,0.079,0.136,0.168,0.208,0.27c0.073,0.101,0.146,0.206,0.219,0.317
				c0.071,0.11,0.14,0.224,0.206,0.344c0.067,0.119,0.129,0.236,0.187,0.351H12.2c-0.062-0.103-0.121-0.207-0.185-0.313
				c-0.062-0.105-0.125-0.208-0.191-0.308c-0.065-0.1-0.128-0.194-0.193-0.283c-0.063-0.089-0.126-0.169-0.19-0.242h-0.368v1.145
				H10.33V0.989c0.163-0.03,0.33-0.051,0.502-0.063C11.006,0.914,11.16,0.908,11.297,0.908z M11.341,1.51
				c-0.055,0-0.104,0.001-0.146,0.005c-0.043,0.003-0.084,0.005-0.123,0.009v0.851h0.211c0.279,0,0.479-0.033,0.601-0.1
				c0.12-0.066,0.182-0.18,0.182-0.34c0-0.154-0.063-0.263-0.185-0.328C11.759,1.542,11.578,1.51,11.341,1.51z"/>
			<path fill="#5D4037" d="M15.437,3.026c0,0.154-0.018,0.299-0.055,0.435c-0.035,0.135-0.099,0.254-0.189,0.355
				s-0.212,0.181-0.367,0.24c-0.154,0.059-0.349,0.088-0.583,0.088c-0.217,0-0.402-0.025-0.559-0.075
				c-0.155-0.049-0.284-0.107-0.385-0.174l0.247-0.548c0.092,0.051,0.19,0.097,0.295,0.136c0.105,0.039,0.221,0.059,0.344,0.059
				c0.181,0,0.312-0.042,0.391-0.126s0.119-0.226,0.119-0.426V0.944h0.742V3.026z"/>
		</g>
	</g>
</g>
</svg>
