<?xml version="1.0" encoding="utf-8"?>
<!-- Generator: Adobe Illustrator 21.0.0, SVG Export Plug-In . SVG Version: 6.00 Build 0)  -->
<svg version="1.1" id="图层_1" xmlns="http://www.w3.org/2000/svg" xmlns:xlink="http://www.w3.org/1999/xlink" x="0px" y="0px"
	 viewBox="0 0 22 22" style="enable-background:new 0 0 22 22;" xml:space="preserve">
<style type="text/css">
	.st0{fill:#455A64;}
	.st1{fill:url(#SVGID_1_);}
	.st2{fill:#455A64;fill-opacity:0.39;}
	.st3{opacity:0.39;fill:#FFFFFF;enable-background:new    ;}
	.st4{opacity:0.8;}
	.st5{fill:#FFFFFF;}
</style>
<title>application-trash</title>
<path class="st0" d="M19,1v14l-6,6H3V1H19 M20,0H2v22h11l7-7V0z"/>
<linearGradient id="SVGID_1_" gradientUnits="userSpaceOnUse" x1="11" y1="-1486.99" x2="11" y2="-1506.99" gradientTransform="matrix(1 0 0 -1 0 -1485.99)">
	<stop  offset="0" style="stop-color:#90A4AE"/>
	<stop  offset="0.14" style="stop-color:#849AA5"/>
	<stop  offset="0.42" style="stop-color:#708A97"/>
	<stop  offset="0.71" style="stop-color:#64808E"/>
	<stop  offset="1" style="stop-color:#607D8B"/>
</linearGradient>
<polygon class="st1" points="3,21 3,1 19,1 19,15 13,21 "/>
<polygon class="st2" points="19,15 19,14 12,14 12,21 13,21 "/>
<path class="st3" d="M13,15h6l-6,6V15z"/>
<g class="st4">
	<polygon class="st5" points="8.9,8.8 6.2,7 8.6,6.3 	"/>
	<polygon class="st5" points="10.8,11.8 11.8,11.8 11.8,10.9 10.8,10.9 10.2,11.4 	"/>
	<polygon class="st5" points="12.4,7.7 15.1,5.9 14.9,8.4 	"/>
	<polygon class="st5" points="14.9,7.7 14.3,6.8 13.6,7.4 14.2,8.2 14.9,8.4 	"/>
	<polygon class="st5" points="17,10.8 15.2,8.1 15.1,8.8 14.4,8.6 16,10.9 12.1,10.9 12.1,11.8 16.3,11.8 16.3,11.8 16.3,11.8 	"/>
	<polygon class="st5" points="7.9,6.5 7.3,7.4 8.1,7.9 8.7,7 8.6,6.3 	"/>
	<polygon class="st5" points="11.7,3 10.3,3 8.1,6.1 8.8,5.9 8.9,6.7 11,3.6 13.4,7.1 14.2,6.6 	"/>
	<polygon class="st5" points="6,10.9 7.9,8.1 7.2,7.6 5,10.8 5,10.8 5,10.8 5.5,11.5 5.7,11.8 10.4,11.8 9.8,11.4 10.4,10.9 	"/>
	<polygon class="st5" points="12.2,9.7 12.2,13 10.2,11.4 	"/>
	<polygon class="st5" points="7.2,7.6 7.6,7 8.6,7.2 7.9,8.2 	"/>
	<polygon class="st5" points="13.1,6.6 13.7,7.5 14.4,7 13.8,6.1 	"/>
	<rect x="11.6" y="10.9" class="st5" width="0.7" height="0.9"/>
</g>
</svg>
