<?xml version="1.0" encoding="utf-8"?>
<!-- Generator: Adobe Illustrator 16.0.0, SVG Export Plug-In . SVG Version: 6.00 Build 0)  -->
<!DOCTYPE svg PUBLIC "-//W3C//DTD SVG 1.1//EN" "http://www.w3.org/Graphics/SVG/1.1/DTD/svg11.dtd">
<svg version="1.1" id="图层_1" xmlns="http://www.w3.org/2000/svg" xmlns:xlink="http://www.w3.org/1999/xlink" x="0px" y="0px"
	 width="22px" height="22px" viewBox="0 0 22 22" enable-background="new 0 0 22 22" xml:space="preserve">
<polygon fill="#01579B" points="2.634,22 2.634,0 19.366,0 19.366,15.807 13.111,22 "/>
<g>
	<g>
		<g>
			<g>
				
					<linearGradient id="SVGID_1_" gradientUnits="userSpaceOnUse" x1="94.1992" y1="-582.3003" x2="94.1992" y2="-561.3008" gradientTransform="matrix(1 0 0 -1 -83.2002 -560.8008)">
					<stop  offset="0" style="stop-color:#2196F3"/>
					<stop  offset="0.5828" style="stop-color:#3DBAE8"/>
					<stop  offset="1" style="stop-color:#4DD0E1"/>
				</linearGradient>
				<polygon fill="url(#SVGID_1_)" points="3.132,21.5 3.132,0.5 18.865,0.5 18.865,15.594 12.959,21.5 				"/>
			</g>
			<polygon fill="#01579B" fill-opacity="0.39" points="18.865,15.594 18.865,15.34 12.636,15.34 12.636,21.5 12.959,21.5 			"/>
			<path fill="#FFFFFF" fill-opacity="0.3922" d="M12.951,15.594l5.916,0.008L12.959,21.5L12.951,15.594z"/>
		</g>
		<g>
			<circle opacity="0.8" fill="#FFFFFF" enable-background="new    " cx="13.79" cy="8.944" r="1.112"/>
			<path opacity="0.8" fill="#FFFFFF" enable-background="new    " d="M5.531,6.625V13.8h10.938V6.625H5.531z M15.68,7.413v5.6l0,0
				l-2.537-1.802l-1.813,1.11L9.004,9.513l-2.687,3.5v-5.6H15.68z"/>
		</g>
	</g>
	<g>
		<rect x="3.129" y="0.5" opacity="0.8" fill="#FFFFFF" enable-background="new    " width="15.742" height="4.025"/>
		<g enable-background="new    ">
			<path fill="#0288D1" d="M9.15,1.464c-0.345,0-0.597,0.091-0.749,0.273c-0.156,0.184-0.232,0.433-0.232,0.75
				c0,0.154,0.019,0.294,0.057,0.419c0.039,0.125,0.096,0.233,0.173,0.323C8.475,3.32,8.57,3.39,8.683,3.44
				c0.115,0.05,0.249,0.075,0.402,0.075c0.082,0,0.152-0.001,0.213-0.004c0.058-0.003,0.109-0.009,0.153-0.019V2.401h0.743v1.553
				C10.107,3.987,9.962,4.022,9.766,4.06c-0.197,0.038-0.44,0.057-0.73,0.057c-0.246,0-0.47-0.036-0.673-0.108
				C8.16,3.936,7.988,3.831,7.846,3.692C7.704,3.553,7.592,3.382,7.515,3.18C7.437,2.978,7.397,2.747,7.397,2.487
				c0-0.263,0.044-0.495,0.129-0.697C7.61,1.588,7.729,1.417,7.879,1.276S8.204,1.03,8.406,0.958c0.2-0.073,0.416-0.109,0.646-0.109
				c0.156,0,0.295,0.01,0.421,0.029c0.126,0.02,0.232,0.042,0.325,0.068c0.091,0.025,0.164,0.052,0.222,0.08
				c0.061,0.026,0.102,0.048,0.129,0.063L9.933,1.655C9.831,1.604,9.714,1.559,9.582,1.521C9.451,1.483,9.306,1.464,9.15,1.464z"/>
			<path fill="#0288D1" d="M10.887,0.921h0.743v3.137h-0.743V0.921z"/>
			<path fill="#0288D1" d="M12.391,4.058V0.921h2.212v0.594h-1.469v0.656h1.308v0.592h-1.308v1.295H12.391z"/>
		</g>
	</g>
</g>
<g>
	<g>
		<g>
			<g>
				
					<linearGradient id="SVGID_2_" gradientUnits="userSpaceOnUse" x1="94.1992" y1="-582.3003" x2="94.1992" y2="-561.3008" gradientTransform="matrix(1 0 0 -1 -83.2002 -560.8008)">
					<stop  offset="0" style="stop-color:#2196F3"/>
					<stop  offset="0.5828" style="stop-color:#3DBAE8"/>
					<stop  offset="1" style="stop-color:#4DD0E1"/>
				</linearGradient>
				<polygon fill="url(#SVGID_2_)" points="3.132,21.5 3.132,0.5 18.865,0.5 18.865,15.594 12.959,21.5 				"/>
			</g>
			<polygon fill="#01579B" fill-opacity="0.39" points="18.865,15.594 18.865,15.34 12.636,15.34 12.636,21.5 12.959,21.5 			"/>
			<path fill="#FFFFFF" fill-opacity="0.3922" d="M12.951,15.594l5.916,0.008L12.959,21.5L12.951,15.594z"/>
		</g>
		<g>
			<circle opacity="0.8" fill="#FFFFFF" enable-background="new    " cx="13.79" cy="8.944" r="1.112"/>
			<path opacity="0.8" fill="#FFFFFF" enable-background="new    " d="M5.531,6.625V13.8h10.938V6.625H5.531z M15.68,7.413v5.6l0,0
				l-2.537-1.802l-1.813,1.11L9.004,9.513l-2.687,3.5v-5.6H15.68z"/>
		</g>
	</g>
	<g>
		<rect x="3.129" y="0.5" opacity="0.8" fill="#FFFFFF" enable-background="new    " width="15.742" height="4.025"/>
		<g enable-background="new    ">
			<path fill="#0288D1" d="M7.327,0.885c0.494,0,0.871,0.083,1.134,0.247c0.266,0.165,0.396,0.434,0.396,0.808
				c0,0.377-0.134,0.649-0.401,0.817C8.19,2.924,7.808,3.008,7.313,3.008H7.081v1.05H6.337V0.966
				c0.161-0.03,0.334-0.051,0.514-0.063C7.031,0.891,7.19,0.885,7.327,0.885z M7.376,1.487c-0.055,0-0.106,0.001-0.158,0.004
				C7.163,1.495,7.119,1.498,7.081,1.501v0.905h0.232c0.256,0,0.45-0.033,0.582-0.1c0.128-0.066,0.193-0.19,0.193-0.371
				c0-0.088-0.016-0.16-0.049-0.217C8.007,1.661,7.958,1.614,7.897,1.58C7.835,1.545,7.759,1.521,7.671,1.508
				C7.581,1.494,7.482,1.487,7.376,1.487z"/>
			<path fill="#0288D1" d="M11.619,4.058c-0.213-0.359-0.442-0.714-0.688-1.063c-0.249-0.35-0.512-0.68-0.793-0.991v2.055H9.404
				V0.921h0.604c0.106,0.1,0.222,0.222,0.35,0.367c0.126,0.145,0.255,0.299,0.389,0.463c0.131,0.165,0.263,0.335,0.391,0.512
				c0.132,0.176,0.255,0.346,0.367,0.509V0.921h0.74v3.137H11.619z"/>
			<path fill="#0288D1" d="M14.616,1.464c-0.345,0-0.596,0.091-0.749,0.273c-0.156,0.184-0.232,0.433-0.232,0.75
				c0,0.154,0.019,0.294,0.058,0.419c0.038,0.125,0.096,0.233,0.172,0.323c0.076,0.091,0.172,0.161,0.284,0.21
				c0.115,0.05,0.249,0.075,0.402,0.075c0.082,0,0.153-0.001,0.21-0.004c0.061-0.003,0.112-0.009,0.156-0.019V2.401h0.744v1.553
				c-0.091,0.033-0.232,0.068-0.43,0.106s-0.44,0.057-0.73,0.057c-0.246,0-0.47-0.036-0.672-0.108
				c-0.203-0.073-0.375-0.178-0.518-0.316c-0.142-0.139-0.254-0.31-0.33-0.512c-0.08-0.202-0.118-0.433-0.118-0.692
				c0-0.263,0.044-0.495,0.129-0.697c0.085-0.202,0.202-0.374,0.353-0.514s0.325-0.247,0.527-0.319
				c0.2-0.073,0.416-0.109,0.646-0.109c0.156,0,0.296,0.01,0.421,0.029c0.126,0.02,0.232,0.042,0.323,0.068
				c0.09,0.025,0.167,0.052,0.224,0.08c0.061,0.026,0.102,0.048,0.126,0.063l-0.213,0.566c-0.102-0.051-0.219-0.096-0.351-0.133
				C14.917,1.483,14.772,1.464,14.616,1.464z"/>
		</g>
	</g>
</g>
</svg>
