<?xml version="1.0" encoding="utf-8"?>
<!-- Generator: Adobe Illustrator 16.0.0, SVG Export Plug-In . SVG Version: 6.00 Build 0)  -->
<!DOCTYPE svg PUBLIC "-//W3C//DTD SVG 1.1//EN" "http://www.w3.org/Graphics/SVG/1.1/DTD/svg11.dtd">
<svg version="1.1" id="图层_1" xmlns="http://www.w3.org/2000/svg" xmlns:xlink="http://www.w3.org/1999/xlink" x="0px" y="0px"
	 width="22px" height="22px" viewBox="0 0 22 22" enable-background="new 0 0 22 22" xml:space="preserve">
<rect x="2.634" fill="#1B5E20" width="16.732" height="22"/>
<g>
	
		<linearGradient id="SVGID_1_" gradientUnits="userSpaceOnUse" x1="52.6006" y1="-163.3999" x2="52.6006" y2="-142.4004" gradientTransform="matrix(1 0 0 -1 -41.6001 -141.9004)">
		<stop  offset="0" style="stop-color:#388E3C"/>
		<stop  offset="0.0757" style="stop-color:#43953E"/>
		<stop  offset="0.3246" style="stop-color:#62A943"/>
		<stop  offset="0.5665" style="stop-color:#79B747"/>
		<stop  offset="0.796" style="stop-color:#86C049"/>
		<stop  offset="1" style="stop-color:#8BC34A"/>
	</linearGradient>
	<rect x="3.133" y="0.5" fill="url(#SVGID_1_)" width="15.734" height="21"/>
	<path opacity="0.8" fill="#FFFFFF" enable-background="new    " d="M11.401,4.368V4.35h-0.804v0.018H5.399V14.5h11.2V4.368H11.401z
		 M6.205,7.377h2.502v1.619H6.205V7.377z M6.205,9.801h2.502v1.619H6.205V9.801z M9.538,9.801h6.257v1.619H9.538V9.801z
		 M9.538,8.996V7.377h6.257v1.619H9.538z M15.795,5.181v1.392H9.538V5.181H15.795z M8.707,5.181v1.392H6.205V5.181H8.707z
		 M6.205,12.233h2.502v1.453H6.205V12.233z M9.538,13.687v-1.453h6.257v1.453H9.538z"/>
</g>
</svg>
