<?xml version="1.0" encoding="utf-8"?>
<!-- Generator: Adobe Illustrator 21.0.0, SVG Export Plug-In . SVG Version: 6.00 Build 0)  -->
<svg version="1.1" id="图层_1" xmlns="http://www.w3.org/2000/svg" xmlns:xlink="http://www.w3.org/1999/xlink" x="0px" y="0px"
	 viewBox="0 0 22 22" style="enable-background:new 0 0 22 22;" xml:space="preserve">
<style type="text/css">
	.st0{fill:#311B92;}
	.st1{fill:url(#SVGID_1_);}
	.st2{fill:#673AB7;fill-opacity:0.39;}
	.st3{fill:#FFFFFF;fill-opacity:0.39;}
	.st4{opacity:0.8;fill:#FFFFFF;enable-background:new    ;}
</style>
<title>application-video</title>
<path class="st0" d="M19,1v14l-6,6H3V1H19 M20,0H2v22h11l7-7V0z"/>
<linearGradient id="SVGID_1_" gradientUnits="userSpaceOnUse" x1="11" y1="-1486.99" x2="11" y2="-1506.99" gradientTransform="matrix(1 0 0 -1 0 -1485.99)">
	<stop  offset="0" style="stop-color:#BA68C8"/>
	<stop  offset="0.19" style="stop-color:#B666C7"/>
	<stop  offset="0.39" style="stop-color:#A95FC3"/>
	<stop  offset="0.59" style="stop-color:#9553BD"/>
	<stop  offset="0.79" style="stop-color:#7843B4"/>
	<stop  offset="0.99" style="stop-color:#532EA8"/>
	<stop  offset="1" style="stop-color:#512DA8"/>
</linearGradient>
<polygon class="st1" points="3,21 3,1 19,1 19,15 13,21 "/>
<polygon class="st2" points="19,15 19,14 12,14 12,21 13,21 "/>
<path class="st3" d="M13,15h6l-6,6V15z"/>
<path class="st4" d="M16,9c0-2.8-2.2-5-5-5S6,6.2,6,9s2.2,5,5,5S16,11.8,16,9z M7.3,9c0-2.1,1.7-3.8,3.8-3.8s3.8,1.7,3.8,3.8
	s-1.7,3.8-3.8,3.8C8.9,12.8,7.3,11.1,7.3,9C7.2,9,7.2,9,7.3,9z M13.1,9L9.6,6.9v4.3L13.1,9z"/>
</svg>
