<?xml version="1.0" encoding="utf-8"?>
<!-- Generator: Adobe Illustrator 16.0.0, SVG Export Plug-In . SVG Version: 6.00 Build 0)  -->
<!DOCTYPE svg PUBLIC "-//W3C//DTD SVG 1.1//EN" "http://www.w3.org/Graphics/SVG/1.1/DTD/svg11.dtd">
<svg version="1.1" id="图层_1" xmlns="http://www.w3.org/2000/svg" xmlns:xlink="http://www.w3.org/1999/xlink" x="0px" y="0px"
	 width="22px" height="22px" viewBox="0 0 22 22" enable-background="new 0 0 22 22" xml:space="preserve">
<polygon fill="#3E2723" points="2.634,22 2.634,0 19.366,0 19.366,15.807 13.111,22 "/>
<g>
	<g>
		
			<linearGradient id="SVGID_1_" gradientUnits="userSpaceOnUse" x1="52.5996" y1="-142.4004" x2="52.5996" y2="-163.4009" gradientTransform="matrix(1 0 0 -1 -41.6001 -141.9004)">
			<stop  offset="0" style="stop-color:#785548"/>
			<stop  offset="1" style="stop-color:#9F9E9F"/>
		</linearGradient>
		<polygon fill="url(#SVGID_1_)" points="3.133,21.5 3.133,0.5 18.867,0.5 18.867,15.586 13.019,21.5 		"/>
		<polygon fill="#795548" fill-opacity="0.7" points="18.867,15.594 18.867,15.34 12.638,15.34 12.638,21.5 12.961,21.5 		"/>
		<path opacity="0.39" fill="#FFFFFF" enable-background="new    " d="M12.952,15.594l5.915,0.008L12.961,21.5L12.952,15.594z"/>
	</g>
	<path fill="#FFFFFF" d="M8.755,4.548H8.223v6.819H7.819V4.548H7.291v6.819H6.889V4.548h-0.53v6.819H5.955V4.548h-0.53v6.819H5.286
		v2.889h3.65v-2.889H8.755V4.548z M8.405,13.417h-2.59v-1.675h2.59V13.417z"/>
	<g>
		<rect x="3.13" y="0.5" opacity="0.8" fill="#FFFFFF" enable-background="new    " width="15.74" height="4.025"/>
		<g enable-background="new    ">
			<path fill="#5D4037" d="M9.338,0.944v0.602H8.341v2.535H7.599V1.546H6.603V0.944H9.338z"/>
			<path fill="#5D4037" d="M10.914,4.123c-0.182,0-0.362-0.006-0.54-0.017c-0.181-0.01-0.366-0.035-0.561-0.075V0.989
				c0.153-0.026,0.32-0.047,0.501-0.061c0.18-0.014,0.35-0.021,0.504-0.021c0.209,0,0.403,0.014,0.578,0.043
				c0.178,0.029,0.328,0.078,0.457,0.147c0.126,0.07,0.226,0.161,0.297,0.274c0.072,0.114,0.107,0.253,0.107,0.418
				c0,0.251-0.128,0.449-0.381,0.593c0.209,0.075,0.351,0.178,0.428,0.308c0.076,0.13,0.114,0.276,0.114,0.439
				c0,0.33-0.125,0.577-0.378,0.743C11.788,4.039,11.413,4.123,10.914,4.123z M10.538,2.175h0.361c0.229,0,0.394-0.027,0.492-0.083
				c0.098-0.056,0.147-0.146,0.147-0.27c0-0.127-0.052-0.216-0.153-0.267s-0.252-0.077-0.448-0.077c-0.063,0-0.132,0-0.205,0.002
				c-0.072,0.001-0.137,0.005-0.194,0.011V2.175z M10.538,2.714v0.811c0.054,0.005,0.112,0.01,0.175,0.013
				c0.064,0.003,0.134,0.004,0.211,0.004c0.222,0,0.401-0.03,0.538-0.09c0.137-0.061,0.205-0.172,0.205-0.335
				c0-0.145-0.057-0.249-0.172-0.311c-0.115-0.062-0.279-0.093-0.491-0.093H10.538z"/>
			<path fill="#5D4037" d="M15.345,1.433c-0.101,0.1-0.223,0.229-0.362,0.388c-0.141,0.158-0.284,0.331-0.433,0.518
				c-0.15,0.187-0.299,0.38-0.443,0.579c-0.147,0.2-0.277,0.39-0.391,0.571h1.682v0.593h-2.597V3.66
				c0.089-0.154,0.198-0.325,0.327-0.513c0.128-0.189,0.262-0.379,0.401-0.571c0.14-0.191,0.282-0.377,0.427-0.557
				s0.279-0.34,0.402-0.482h-1.482V0.944h2.469V1.433z"/>
		</g>
	</g>
</g>
</svg>
