<?xml version="1.0" encoding="utf-8"?>
<!-- Generator: Adobe Illustrator 16.0.0, SVG Export Plug-In . SVG Version: 6.00 Build 0)  -->
<!DOCTYPE svg PUBLIC "-//W3C//DTD SVG 1.1//EN" "http://www.w3.org/Graphics/SVG/1.1/DTD/svg11.dtd">
<svg version="1.1" id="图层_1" xmlns="http://www.w3.org/2000/svg" xmlns:xlink="http://www.w3.org/1999/xlink" x="0px" y="0px"
	 width="22px" height="22px" viewBox="0 0 22 22" enable-background="new 0 0 22 22" xml:space="preserve">
<polygon fill="#3E2723" points="2.634,22 2.634,0 19.366,0 19.366,15.807 13.111,22 "/>
<g>
	<g>
		
			<linearGradient id="SVGID_1_" gradientUnits="userSpaceOnUse" x1="52.5996" y1="-142.4004" x2="52.5996" y2="-163.4009" gradientTransform="matrix(1 0 0 -1 -41.6001 -141.9004)">
			<stop  offset="0" style="stop-color:#785548"/>
			<stop  offset="1" style="stop-color:#9F9E9F"/>
		</linearGradient>
		<polygon fill="url(#SVGID_1_)" points="3.133,21.5 3.133,0.5 18.867,0.5 18.867,15.586 13.019,21.5 		"/>
		<polygon fill="#795548" fill-opacity="0.7" points="18.867,15.594 18.867,15.34 12.638,15.34 12.638,21.5 12.961,21.5 		"/>
		<path opacity="0.39" fill="#FFFFFF" enable-background="new    " d="M12.952,15.594l5.915,0.008L12.961,21.5L12.952,15.594z"/>
	</g>
	<path fill="#FFFFFF" d="M8.755,4.548H8.223v6.819H7.819V4.548H7.291v6.819H6.889V4.548h-0.53v6.819H5.955V4.548h-0.53v6.819H5.286
		v2.889h3.65v-2.889H8.755V4.548z M8.405,13.417h-2.59v-1.675h2.59V13.417z"/>
	<g>
		<rect x="3.13" y="0.5" opacity="0.8" fill="#FFFFFF" enable-background="new    " width="15.74" height="4.025"/>
		<g enable-background="new    ">
			<path fill="#5D4037" d="M7.256,3.475v0.606H5.049V0.944h0.744v2.531H7.256z"/>
			<path fill="#5D4037" d="M10.147,1.433c-0.102,0.1-0.223,0.229-0.362,0.388C9.645,1.979,9.501,2.151,9.352,2.339
				c-0.15,0.187-0.298,0.38-0.443,0.579c-0.147,0.2-0.277,0.39-0.392,0.571h1.683v0.593H7.603V3.66
				C7.691,3.506,7.8,3.335,7.929,3.147c0.13-0.189,0.264-0.379,0.403-0.571C8.471,2.385,8.613,2.199,8.758,2.02
				c0.146-0.18,0.279-0.34,0.402-0.482H7.678V0.944h2.47V1.433z"/>
			<path fill="#5D4037" d="M13.812,2.51c0,0.269-0.043,0.505-0.126,0.709c-0.085,0.204-0.2,0.374-0.346,0.511
				c-0.146,0.138-0.32,0.241-0.522,0.31c-0.201,0.069-0.419,0.104-0.649,0.104c-0.228,0-0.439-0.035-0.64-0.104
				s-0.375-0.172-0.524-0.31c-0.148-0.137-0.267-0.308-0.351-0.511c-0.088-0.204-0.13-0.44-0.13-0.709
				c0-0.269,0.045-0.504,0.134-0.708s0.209-0.375,0.359-0.514c0.15-0.139,0.325-0.243,0.525-0.312
				c0.196-0.07,0.405-0.104,0.626-0.104c0.224,0,0.438,0.035,0.637,0.104c0.201,0.069,0.375,0.173,0.525,0.312
				c0.148,0.14,0.267,0.311,0.353,0.514C13.768,2.006,13.812,2.242,13.812,2.51z M11.29,2.51c0,0.154,0.021,0.293,0.061,0.417
				c0.039,0.125,0.096,0.23,0.172,0.319c0.074,0.089,0.164,0.158,0.273,0.207c0.106,0.048,0.232,0.072,0.372,0.072
				c0.137,0,0.26-0.024,0.369-0.072c0.109-0.049,0.201-0.117,0.276-0.207c0.073-0.089,0.131-0.195,0.171-0.319
				c0.039-0.123,0.06-0.263,0.06-0.417s-0.021-0.293-0.06-0.418c-0.04-0.125-0.098-0.232-0.171-0.321
				c-0.075-0.089-0.167-0.158-0.276-0.207c-0.109-0.048-0.232-0.073-0.369-0.073c-0.14,0-0.266,0.025-0.372,0.075
				c-0.109,0.05-0.199,0.119-0.273,0.208c-0.076,0.089-0.133,0.196-0.172,0.321C11.311,2.222,11.29,2.36,11.29,2.51z"/>
			<path fill="#5D4037" d="M15.422,0.908c0.492,0,0.869,0.083,1.133,0.247c0.265,0.165,0.396,0.434,0.396,0.808
				c0,0.377-0.133,0.649-0.399,0.817c-0.268,0.167-0.647,0.251-1.145,0.251h-0.233v1.05h-0.742V0.989
				c0.162-0.03,0.332-0.051,0.514-0.063C15.126,0.914,15.285,0.908,15.422,0.908z M15.468,1.51c-0.053,0-0.106,0.001-0.158,0.005
				c-0.052,0.003-0.099,0.005-0.137,0.009v0.905h0.233c0.259,0,0.451-0.033,0.581-0.1c0.132-0.066,0.197-0.19,0.197-0.371
				c0-0.087-0.018-0.159-0.052-0.217C16.1,1.684,16.054,1.638,15.99,1.604c-0.062-0.035-0.137-0.059-0.227-0.073
				C15.676,1.517,15.577,1.51,15.468,1.51z"/>
		</g>
	</g>
</g>
</svg>
