<?xml version="1.0" encoding="utf-8"?>
<!-- Generator: Adobe Illustrator 16.0.0, SVG Export Plug-In . SVG Version: 6.00 Build 0)  -->
<!DOCTYPE svg PUBLIC "-//W3C//DTD SVG 1.1//EN" "http://www.w3.org/Graphics/SVG/1.1/DTD/svg11.dtd">
<svg version="1.1" id="图层_1" xmlns="http://www.w3.org/2000/svg" xmlns:xlink="http://www.w3.org/1999/xlink" x="0px" y="0px"
	 width="22px" height="22px" viewBox="0 0 22 22" enable-background="new 0 0 22 22" xml:space="preserve">
<rect x="2.634" fill="#E65100" width="16.732" height="22"/>
<g>
	
		<linearGradient id="SVGID_1_" gradientUnits="userSpaceOnUse" x1="52.6006" y1="-163.3999" x2="52.6006" y2="-142.4004" gradientTransform="matrix(1 0 0 -1 -41.6001 -141.9004)">
		<stop  offset="0" style="stop-color:#EE6F0B"/>
		<stop  offset="1" style="stop-color:#FFB74D"/>
	</linearGradient>
	<rect x="3.134" y="0.5" fill="url(#SVGID_1_)" width="15.732" height="21"/>
	<g opacity="0.8">
		<rect x="5.182" y="6.144" fill="#FFFFFF" width="1.68" height="8.418"/>
		<rect x="7.981" y="10.344" fill="#FFFFFF" width="1.68" height="4.209"/>
		<rect x="10.773" y="12.059" fill="#FFFFFF" width="1.68" height="2.521"/>
		<g>
			<path fill="#FFFFFF" d="M13.057,4.656l0.018,3.352l3.351-0.018c0.009,1.854-1.487,3.359-3.343,3.368
				c-1.854,0.009-3.359-1.487-3.368-3.342C9.705,6.17,11.202,4.665,13.057,4.656z"/>
			<path fill="#FFFFFF" d="M13.45,4.271c1.855-0.009,3.36,1.487,3.369,3.342l-3.352,0.018L13.45,4.271z"/>
		</g>
	</g>
</g>
</svg>
