<?xml version="1.0" encoding="utf-8"?>
<!-- Generator: Adobe Illustrator 16.0.0, SVG Export Plug-In . SVG Version: 6.00 Build 0)  -->
<!DOCTYPE svg PUBLIC "-//W3C//DTD SVG 1.1//EN" "http://www.w3.org/Graphics/SVG/1.1/DTD/svg11.dtd">
<svg version="1.1" id="图层_1" xmlns="http://www.w3.org/2000/svg" xmlns:xlink="http://www.w3.org/1999/xlink" x="0px" y="0px"
	 width="22px" height="22px" viewBox="0 0 22 22" enable-background="new 0 0 22 22" xml:space="preserve">
<polygon fill="#01579B" points="2.634,22 2.634,0 19.366,0 19.366,15.806 13.112,22 "/>
<g>
	<g>
		<g>
			
				<linearGradient id="SVGID_1_" gradientUnits="userSpaceOnUse" x1="52.5996" y1="440.4004" x2="52.5996" y2="419.4004" gradientTransform="matrix(1 0 0 1 -41.6001 -418.9004)">
				<stop  offset="0" style="stop-color:#2196F3"/>
				<stop  offset="0.5828" style="stop-color:#3DBAE8"/>
				<stop  offset="1" style="stop-color:#4DD0E1"/>
			</linearGradient>
			<polygon fill="url(#SVGID_1_)" points="3.133,21.5 3.133,0.5 18.867,0.5 18.867,15.594 12.961,21.5 			"/>
		</g>
		<polygon fill="#01579B" fill-opacity="0.39" points="18.867,15.594 18.867,15.34 12.637,15.34 12.637,21.5 12.961,21.5 		"/>
		<path fill="#FFFFFF" fill-opacity="0.3922" d="M12.951,15.594l5.916,0.008L12.961,21.5L12.951,15.594z"/>
	</g>
	<circle opacity="0.8" fill="#FFFFFF" enable-background="new    " cx="13.792" cy="8.156" r="1.111"/>
	<path opacity="0.8" fill="#FFFFFF" enable-background="new    " d="M5.531,5.837v7.175h10.938V5.837H5.531z M15.682,6.625v5.6l0,0
		l-2.538-1.802l-1.812,1.11L9.005,8.725l-2.687,3.5v-5.6H15.682z"/>
</g>
</svg>
