<?xml version="1.0" encoding="utf-8"?>
<!-- Generator: Adobe Illustrator 21.0.0, SVG Export Plug-In . SVG Version: 6.00 Build 0)  -->
<svg version="1.1" id="图层_1" xmlns="http://www.w3.org/2000/svg" xmlns:xlink="http://www.w3.org/1999/xlink" x="0px" y="0px"
	 viewBox="0 0 22 22" style="enable-background:new 0 0 22 22;" xml:space="preserve">
<style type="text/css">
	.st0{fill:#455A64;}
	.st1{fill:url(#SVGID_1_);}
	.st2{fill:#455A64;fill-opacity:0.39;}
	.st3{fill:#FFFFFF;fill-opacity:0.39;}
	.st4{opacity:0.8;}
	.st5{fill:#FFFFFF;}
	.st6{fill:#CFD8DC;}
</style>
<title>application-x-mono-develop</title>
<path class="st0" d="M19,1v14l-6,6H3V1H19 M20,0H2v22h11l7-7V0z"/>
<linearGradient id="SVGID_1_" gradientUnits="userSpaceOnUse" x1="11" y1="-1486.99" x2="11" y2="-1506.99" gradientTransform="matrix(1 0 0 -1 0 -1485.99)">
	<stop  offset="0" style="stop-color:#90A4AE"/>
	<stop  offset="0.14" style="stop-color:#849AA5"/>
	<stop  offset="0.42" style="stop-color:#708A97"/>
	<stop  offset="0.71" style="stop-color:#64808E"/>
	<stop  offset="1" style="stop-color:#607D8B"/>
</linearGradient>
<polygon class="st1" points="3,21 3,1 19,1 19,15 13,21 "/>
<polygon class="st2" points="19,15 19,14 12,14 12,21 13,21 "/>
<path class="st3" d="M13,15h6l-6,6V15z"/>
<g class="st4">
	<path class="st5" d="M8.7,4C6.6,4.1,5,5.9,5,8c0.1,1.8,0.6,3.5,1.4,5l1.8-0.7c-0.4-0.8-0.9-1.6-1.1-2C6.6,9.5,6.4,8.6,6.4,7.7
		c0-0.7,0.3-1.4,0.8-1.8c0.6-0.5,1.3-0.8,2.1-0.6c0.9,0.1,1.8,0.6,2.2,1.5c0.2,0,0.4,0,0.6,0c0.2,0,0.3,0,0.5,0
		C11.9,5.1,10.4,4,8.7,4z M9.5,6.3C8.6,6.1,7.8,6.7,7.7,7.6c0,0.1,0,0.1,0,0.2c0,1,0.6,1.9,1.5,2.3c0-0.3,0-0.6,0-0.9
		C8.7,8.9,8.4,8.4,8.4,7.9C8.3,7.2,9,6.5,10,6.9c0.2,0.1,0.2-0.2,0-0.4C9.9,6.4,9.7,6.3,9.5,6.3L9.5,6.3z M12.1,7.1h-0.4
		c0,0.1,0,0.2,0.1,0.3H12c0.2,0,0.4,0,0.6,0.1c0-0.1,0-0.2,0-0.4C12.4,7.2,12.3,7.1,12.1,7.1L12.1,7.1z M11.7,7.9
		c-0.1,0.6-0.6,1.1-1.2,1.3c0,0.1,0,0.2,0,0.3c0,0.2,0.1,0.4,0.1,0.5c1-0.1,1.9-1,2-2c-0.2,0-0.4-0.1-0.6-0.1H11.7z M9.6,9.3
		c0,0.2,0,0.4,0,0.7v0.1c0.1,0,0.2,0,0.3,0h0.2c0-0.2-0.1-0.4-0.1-0.6c0-0.1,0-0.2,0-0.2H9.6z"/>
	<path class="st6" d="M15.6,4c0.9,1.5,1.3,3.2,1.4,5c0,2.1-1.6,3.9-3.7,4c-2,0-3.8-1.7-3.9-3.1s0.4-3.1,2.7-3.1
		c1.3,0,2.3,1.1,2.3,2.4c0,1.5-1.9,1.7-2.4,1.3c-0.2-0.1-0.2-0.4,0-0.4c1,0.3,1.7-0.3,1.6-1c0-0.8-0.7-1.5-1.5-1.5H12
		c-0.9,0-1.7,0.7-1.8,1.6c0,0.1,0,0.1,0,0.2c0.2,1.2,1.2,2.2,2.4,2.3c0.8,0.1,1.5-0.1,2.1-0.6c0.5-0.5,0.8-1.1,0.9-1.9
		c0-0.9-0.2-1.8-0.7-2.5c-0.2-0.4-0.7-1.2-1.1-2L15.6,4"/>
</g>
</svg>
