<?xml version="1.0" encoding="utf-8"?>
<!-- Generator: Adobe Illustrator 16.0.0, SVG Export Plug-In . SVG Version: 6.00 Build 0)  -->
<!DOCTYPE svg PUBLIC "-//W3C//DTD SVG 1.1//EN" "http://www.w3.org/Graphics/SVG/1.1/DTD/svg11.dtd">
<svg version="1.1" id="图层_1" xmlns="http://www.w3.org/2000/svg" xmlns:xlink="http://www.w3.org/1999/xlink" x="0px" y="0px"
	 width="22px" height="22px" viewBox="0 0 22 22" enable-background="new 0 0 22 22" xml:space="preserve">
<polygon fill="#01579B" points="2.634,22 2.634,0 19.366,0 19.366,15.807 13.111,22 "/>
<g>
	<g>
		<g>
			<g>
				
					<linearGradient id="SVGID_1_" gradientUnits="userSpaceOnUse" x1="94.1992" y1="-582.3003" x2="94.1992" y2="-561.3008" gradientTransform="matrix(1 0 0 -1 -83.2002 -560.8008)">
					<stop  offset="0" style="stop-color:#2196F3"/>
					<stop  offset="0.5828" style="stop-color:#3DBAE8"/>
					<stop  offset="1" style="stop-color:#4DD0E1"/>
				</linearGradient>
				<polygon fill="url(#SVGID_1_)" points="3.132,21.5 3.132,0.5 18.865,0.5 18.865,15.594 12.959,21.5 				"/>
			</g>
			<polygon fill="#01579B" fill-opacity="0.39" points="18.865,15.594 18.865,15.34 12.636,15.34 12.636,21.5 12.959,21.5 			"/>
			<path fill="#FFFFFF" fill-opacity="0.3922" d="M12.951,15.594l5.916,0.008L12.959,21.5L12.951,15.594z"/>
		</g>
		<g>
			<circle opacity="0.8" fill="#FFFFFF" enable-background="new    " cx="13.79" cy="8.944" r="1.112"/>
			<path opacity="0.8" fill="#FFFFFF" enable-background="new    " d="M5.531,6.625V13.8h10.938V6.625H5.531z M15.68,7.413v5.6l0,0
				l-2.537-1.802l-1.813,1.11L9.004,9.513l-2.687,3.5v-5.6H15.68z"/>
		</g>
	</g>
	<g>
		<rect x="3.129" y="0.5" opacity="0.8" fill="#FFFFFF" enable-background="new    " width="15.742" height="4.025"/>
		<g enable-background="new    ">
			<path fill="#0288D1" d="M9.15,1.464c-0.345,0-0.597,0.091-0.749,0.273c-0.156,0.184-0.232,0.433-0.232,0.75
				c0,0.154,0.019,0.294,0.057,0.419c0.039,0.125,0.096,0.233,0.173,0.323C8.475,3.32,8.57,3.39,8.683,3.44
				c0.115,0.05,0.249,0.075,0.402,0.075c0.082,0,0.152-0.001,0.213-0.004c0.058-0.003,0.109-0.009,0.153-0.019V2.401h0.743v1.553
				C10.107,3.987,9.962,4.022,9.766,4.06c-0.197,0.038-0.44,0.057-0.73,0.057c-0.246,0-0.47-0.036-0.673-0.108
				C8.16,3.936,7.988,3.831,7.846,3.692C7.704,3.553,7.592,3.382,7.515,3.18C7.437,2.978,7.397,2.747,7.397,2.487
				c0-0.263,0.044-0.495,0.129-0.697C7.61,1.588,7.729,1.417,7.879,1.276S8.204,1.03,8.406,0.958c0.2-0.073,0.416-0.109,0.646-0.109
				c0.156,0,0.295,0.01,0.421,0.029c0.126,0.02,0.232,0.042,0.325,0.068c0.091,0.025,0.164,0.052,0.222,0.08
				c0.061,0.026,0.102,0.048,0.129,0.063L9.933,1.655C9.831,1.604,9.714,1.559,9.582,1.521C9.451,1.483,9.306,1.464,9.15,1.464z"/>
			<path fill="#0288D1" d="M10.887,0.921h0.743v3.137h-0.743V0.921z"/>
			<path fill="#0288D1" d="M12.391,4.058V0.921h2.212v0.594h-1.469v0.656h1.308v0.592h-1.308v1.295H12.391z"/>
		</g>
	</g>
</g>
<g>
	<g>
		<g>
			<g>
				
					<linearGradient id="SVGID_2_" gradientUnits="userSpaceOnUse" x1="94.1992" y1="-582.3003" x2="94.1992" y2="-561.3008" gradientTransform="matrix(1 0 0 -1 -83.2002 -560.8008)">
					<stop  offset="0" style="stop-color:#2196F3"/>
					<stop  offset="0.5828" style="stop-color:#3DBAE8"/>
					<stop  offset="1" style="stop-color:#4DD0E1"/>
				</linearGradient>
				<polygon fill="url(#SVGID_2_)" points="3.132,21.5 3.132,0.5 18.865,0.5 18.865,15.594 12.959,21.5 				"/>
			</g>
			<polygon fill="#01579B" fill-opacity="0.39" points="18.865,15.594 18.865,15.34 12.636,15.34 12.636,21.5 12.959,21.5 			"/>
			<path fill="#FFFFFF" fill-opacity="0.3922" d="M12.951,15.594l5.916,0.008L12.959,21.5L12.951,15.594z"/>
		</g>
		<g>
			<circle opacity="0.8" fill="#FFFFFF" enable-background="new    " cx="13.79" cy="8.944" r="1.112"/>
			<path opacity="0.8" fill="#FFFFFF" enable-background="new    " d="M5.531,6.625V13.8h10.938V6.625H5.531z M15.68,7.413v5.6l0,0
				l-2.537-1.802l-1.813,1.11L9.004,9.513l-2.687,3.5v-5.6H15.68z"/>
		</g>
	</g>
	<g>
		<rect x="3.129" y="0.5" opacity="0.8" fill="#FFFFFF" enable-background="new    " width="15.742" height="4.025"/>
		<g enable-background="new    ">
			<path fill="#0288D1" d="M7.695,0.885c0.492,0,0.87,0.083,1.134,0.247c0.264,0.165,0.395,0.434,0.395,0.808
				c0,0.377-0.132,0.649-0.398,0.817C8.557,2.924,8.177,3.008,7.681,3.008H7.447v1.05H6.705V0.966
				c0.162-0.03,0.332-0.051,0.514-0.063C7.4,0.891,7.559,0.885,7.695,0.885z M7.742,1.487c-0.054,0-0.106,0.001-0.159,0.004
				C7.531,1.495,7.485,1.498,7.447,1.501v0.905h0.233c0.258,0,0.451-0.033,0.581-0.1c0.131-0.066,0.196-0.19,0.196-0.371
				c0-0.088-0.018-0.16-0.052-0.217C8.374,1.661,8.327,1.614,8.265,1.58C8.203,1.545,8.128,1.521,8.037,1.508
				C7.95,1.494,7.852,1.487,7.742,1.487z"/>
			<path fill="#0288D1" d="M10.673,3.52c0.104,0,0.191-0.008,0.26-0.025c0.068-0.017,0.123-0.04,0.164-0.068
				c0.041-0.028,0.068-0.062,0.085-0.102c0.017-0.039,0.024-0.083,0.024-0.131c0-0.103-0.052-0.188-0.152-0.256
				c-0.102-0.067-0.276-0.141-0.522-0.219c-0.109-0.036-0.216-0.078-0.325-0.125c-0.107-0.046-0.205-0.106-0.29-0.176
				C9.83,2.346,9.76,2.26,9.705,2.159C9.652,2.058,9.626,1.935,9.626,1.791c0-0.145,0.027-0.275,0.085-0.392
				s0.138-0.215,0.243-0.297c0.104-0.081,0.232-0.144,0.38-0.188c0.15-0.043,0.317-0.065,0.506-0.065
				c0.222,0,0.413,0.022,0.577,0.068c0.161,0.045,0.295,0.095,0.399,0.149l-0.214,0.557c-0.093-0.046-0.196-0.085-0.309-0.12
				c-0.112-0.035-0.249-0.052-0.407-0.052c-0.178,0-0.307,0.023-0.383,0.071c-0.077,0.046-0.118,0.118-0.118,0.214
				c0,0.058,0.017,0.106,0.044,0.145s0.068,0.075,0.12,0.106c0.055,0.032,0.115,0.061,0.184,0.085
				c0.068,0.026,0.143,0.053,0.225,0.08c0.172,0.061,0.322,0.12,0.448,0.179c0.128,0.059,0.232,0.127,0.317,0.206
				c0.084,0.079,0.147,0.171,0.188,0.276c0.041,0.106,0.063,0.233,0.063,0.385c0,0.292-0.109,0.52-0.325,0.681
				c-0.216,0.162-0.541,0.243-0.977,0.243c-0.147,0-0.278-0.009-0.396-0.025C10.159,4.08,10.056,4.06,9.965,4.036
				c-0.09-0.024-0.167-0.05-0.232-0.077c-0.065-0.027-0.12-0.053-0.164-0.077l0.21-0.562c0.098,0.051,0.22,0.097,0.364,0.138
				C10.286,3.499,10.463,3.52,10.673,3.52z"/>
			<path fill="#0288D1" d="M15.437,2.487c0,0.272-0.044,0.508-0.134,0.711c-0.088,0.202-0.214,0.37-0.378,0.502
				C14.761,3.833,14.562,3.933,14.326,4c-0.235,0.066-0.497,0.1-0.79,0.1c-0.134,0-0.29-0.005-0.468-0.017
				c-0.178-0.01-0.353-0.032-0.522-0.065V0.962c0.17-0.03,0.351-0.05,0.536-0.062c0.187-0.01,0.345-0.016,0.479-0.016
				c0.282,0,0.539,0.03,0.769,0.091s0.43,0.155,0.594,0.285s0.292,0.296,0.38,0.498C15.393,1.961,15.437,2.204,15.437,2.487z
				 M13.287,3.483c0.036,0.003,0.077,0.005,0.123,0.007c0.047,0.001,0.102,0.002,0.164,0.002c0.372,0,0.648-0.089,0.826-0.267
				c0.181-0.179,0.271-0.425,0.271-0.738c0-0.329-0.088-0.578-0.257-0.747c-0.173-0.169-0.443-0.253-0.815-0.253
				c-0.052,0-0.104,0-0.158,0.002c-0.055,0.002-0.104,0.005-0.153,0.012V3.483z"/>
		</g>
	</g>
</g>
</svg>
