<?xml version="1.0" encoding="utf-8"?>
<!-- Generator: Adobe Illustrator 16.0.0, SVG Export Plug-In . SVG Version: 6.00 Build 0)  -->
<!DOCTYPE svg PUBLIC "-//W3C//DTD SVG 1.1//EN" "http://www.w3.org/Graphics/SVG/1.1/DTD/svg11.dtd">
<svg version="1.1" id="图层_1" xmlns="http://www.w3.org/2000/svg" xmlns:xlink="http://www.w3.org/1999/xlink" x="0px" y="0px"
	 width="22px" height="22px" viewBox="0 0 22 22" enable-background="new 0 0 22 22" xml:space="preserve">
<polygon fill="#3E2723" points="2.634,22 2.634,0 19.366,0 19.366,15.807 13.111,22 "/>
<g>
	<g>
		
			<linearGradient id="SVGID_1_" gradientUnits="userSpaceOnUse" x1="52.5996" y1="-142.4004" x2="52.5996" y2="-163.4009" gradientTransform="matrix(1 0 0 -1 -41.6001 -141.9004)">
			<stop  offset="0" style="stop-color:#785548"/>
			<stop  offset="1" style="stop-color:#9F9E9F"/>
		</linearGradient>
		<polygon fill="url(#SVGID_1_)" points="3.133,21.5 3.133,0.5 18.867,0.5 18.867,15.586 13.019,21.5 		"/>
		<polygon fill="#795548" fill-opacity="0.7" points="18.867,15.594 18.867,15.34 12.638,15.34 12.638,21.5 12.961,21.5 		"/>
		<path opacity="0.39" fill="#FFFFFF" enable-background="new    " d="M12.952,15.594l5.915,0.008L12.961,21.5L12.952,15.594z"/>
	</g>
	<path fill="#FFFFFF" d="M8.755,4.548H8.223v6.819H7.819V4.548H7.291v6.819H6.889V4.548h-0.53v6.819H5.955V4.548h-0.53v6.819H5.286
		v2.889h3.65v-2.889H8.755V4.548z M8.405,13.417h-2.59v-1.675h2.59V13.417z"/>
	<g>
		<rect x="3.13" y="0.5" opacity="0.8" fill="#FFFFFF" enable-background="new    " width="15.74" height="4.025"/>
		<g enable-background="new    ">
			<path fill="#5D4037" d="M8.813,4.082C8.776,3.973,8.736,3.86,8.694,3.746C8.651,3.631,8.609,3.516,8.568,3.402H7.277
				C7.236,3.517,7.194,3.631,7.153,3.747C7.11,3.861,7.072,3.973,7.035,4.082H6.265c0.123-0.338,0.242-0.65,0.353-0.938
				c0.112-0.286,0.222-0.556,0.328-0.81C7.052,2.081,7.157,1.84,7.26,1.612c0.104-0.228,0.212-0.451,0.322-0.668h0.706
				c0.107,0.217,0.215,0.44,0.319,0.668C8.713,1.84,8.819,2.081,8.927,2.334c0.106,0.254,0.216,0.524,0.328,0.81
				c0.111,0.287,0.229,0.6,0.354,0.938H8.813z M7.92,1.655C7.902,1.7,7.879,1.763,7.847,1.841S7.778,2.01,7.738,2.113
				C7.697,2.216,7.65,2.329,7.602,2.452C7.551,2.576,7.499,2.705,7.447,2.841h0.944c-0.051-0.136-0.1-0.266-0.147-0.39
				C8.197,2.327,8.152,2.214,8.11,2.111C8.066,2.008,8.029,1.918,7.998,1.839C7.965,1.761,7.939,1.7,7.92,1.655z"/>
			<path fill="#5D4037" d="M10.999,0.908c0.495,0,0.875,0.084,1.139,0.251s0.396,0.428,0.396,0.781c0,0.22-0.053,0.399-0.159,0.537
				c-0.106,0.137-0.26,0.245-0.459,0.323c0.065,0.079,0.135,0.168,0.208,0.27c0.073,0.101,0.146,0.206,0.219,0.317
				c0.07,0.11,0.139,0.224,0.206,0.344c0.067,0.119,0.129,0.236,0.186,0.351h-0.831c-0.062-0.103-0.121-0.207-0.185-0.313
				c-0.062-0.105-0.126-0.208-0.191-0.308c-0.065-0.1-0.128-0.194-0.194-0.283c-0.063-0.089-0.125-0.169-0.189-0.242h-0.368v1.145
				h-0.742V0.989c0.163-0.03,0.33-0.051,0.502-0.063C10.708,0.914,10.862,0.908,10.999,0.908z M11.043,1.51
				c-0.055,0-0.104,0.001-0.146,0.005c-0.044,0.003-0.085,0.005-0.123,0.009v0.851h0.211c0.278,0,0.479-0.033,0.6-0.1
				s0.183-0.18,0.183-0.34c0-0.154-0.063-0.263-0.185-0.328C11.461,1.542,11.28,1.51,11.043,1.51z"/>
			<path fill="#5D4037" d="M14.63,4.145c-0.536,0-0.946-0.142-1.228-0.426c-0.28-0.284-0.421-0.687-0.421-1.209
				c0-0.259,0.044-0.491,0.128-0.694c0.087-0.204,0.204-0.376,0.354-0.516c0.15-0.14,0.328-0.247,0.533-0.319
				c0.207-0.072,0.432-0.108,0.672-0.108c0.14,0,0.267,0.01,0.381,0.029c0.114,0.02,0.216,0.042,0.301,0.068
				c0.086,0.025,0.158,0.052,0.214,0.079c0.058,0.027,0.099,0.048,0.125,0.063l-0.215,0.571c-0.103-0.051-0.22-0.095-0.355-0.131
				s-0.288-0.055-0.459-0.055c-0.114,0-0.226,0.019-0.335,0.055c-0.111,0.036-0.208,0.094-0.293,0.174
				c-0.083,0.08-0.15,0.184-0.202,0.31c-0.05,0.126-0.075,0.281-0.075,0.461c0,0.145,0.017,0.28,0.051,0.406
				c0.032,0.125,0.087,0.233,0.161,0.324c0.073,0.09,0.172,0.162,0.292,0.215c0.121,0.053,0.269,0.079,0.439,0.079
				c0.107,0,0.203-0.006,0.291-0.019c0.085-0.011,0.161-0.026,0.227-0.042c0.068-0.017,0.126-0.036,0.178-0.057
				c0.051-0.021,0.096-0.041,0.137-0.059l0.205,0.565c-0.104,0.061-0.251,0.115-0.442,0.163C15.102,4.12,14.882,4.145,14.63,4.145z"
				/>
		</g>
	</g>
</g>
</svg>
