<?xml version="1.0" encoding="utf-8"?>
<!-- Generator: Adobe Illustrator 16.0.0, SVG Export Plug-In . SVG Version: 6.00 Build 0)  -->
<!DOCTYPE svg PUBLIC "-//W3C//DTD SVG 1.1//EN" "http://www.w3.org/Graphics/SVG/1.1/DTD/svg11.dtd">
<svg version="1.1" id="图层_1" xmlns="http://www.w3.org/2000/svg" xmlns:xlink="http://www.w3.org/1999/xlink" x="0px" y="0px"
	 width="22px" height="22px" viewBox="0 0 22 22" enable-background="new 0 0 22 22" xml:space="preserve">
<polygon fill="#3E2723" points="2.634,22 2.634,0 19.366,0 19.366,15.807 13.111,22 "/>
<g>
	<g>
		
			<linearGradient id="SVGID_1_" gradientUnits="userSpaceOnUse" x1="52.5996" y1="-142.4004" x2="52.5996" y2="-163.4009" gradientTransform="matrix(1 0 0 -1 -41.6001 -141.9004)">
			<stop  offset="0" style="stop-color:#785548"/>
			<stop  offset="1" style="stop-color:#9F9E9F"/>
		</linearGradient>
		<polygon fill="url(#SVGID_1_)" points="3.133,21.5 3.133,0.5 18.867,0.5 18.867,15.586 13.019,21.5 		"/>
		<polygon fill="#795548" fill-opacity="0.7" points="18.867,15.594 18.867,15.34 12.638,15.34 12.638,21.5 12.961,21.5 		"/>
		<path opacity="0.39" fill="#FFFFFF" enable-background="new    " d="M12.952,15.594l5.915,0.008L12.961,21.5L12.952,15.594z"/>
	</g>
	<path fill="#FFFFFF" d="M8.755,4.548H8.223v6.819H7.819V4.548H7.291v6.819H6.889V4.548h-0.53v6.819H5.955V4.548h-0.53v6.819H5.286
		v2.889h3.65v-2.889H8.755V4.548z M8.405,13.417h-2.59v-1.675h2.59V13.417z"/>
	<g>
		<rect x="3.13" y="0.5" opacity="0.8" fill="#FFFFFF" enable-background="new    " width="15.74" height="4.025"/>
		<g enable-background="new    ">
			<path fill="#5D4037" d="M9.256,0.944v0.602H8.26v2.535H7.517V1.546H6.521V0.944H9.256z"/>
			<path fill="#5D4037" d="M11.556,4.082c-0.036-0.109-0.074-0.221-0.118-0.336c-0.041-0.115-0.085-0.229-0.126-0.343h-1.29
				C9.98,3.517,9.939,3.631,9.896,3.747C9.854,3.861,9.816,3.973,9.781,4.082H9.009c0.124-0.338,0.241-0.65,0.354-0.938
				c0.111-0.286,0.219-0.556,0.325-0.81c0.107-0.253,0.214-0.494,0.317-0.722c0.104-0.228,0.211-0.451,0.323-0.668h0.702
				c0.109,0.217,0.216,0.44,0.322,0.668c0.104,0.228,0.211,0.468,0.317,0.722c0.106,0.254,0.216,0.524,0.328,0.81
				c0.112,0.287,0.229,0.6,0.355,0.938H11.556z M10.664,1.655C10.647,1.7,10.623,1.763,10.59,1.841
				C10.56,1.92,10.521,2.01,10.48,2.113c-0.041,0.103-0.084,0.216-0.137,0.339c-0.049,0.124-0.101,0.253-0.152,0.389h0.942
				c-0.049-0.136-0.098-0.266-0.145-0.39c-0.049-0.124-0.093-0.237-0.137-0.34c-0.041-0.104-0.079-0.193-0.112-0.272
				C10.71,1.761,10.683,1.7,10.664,1.655z"/>
			<path fill="#5D4037" d="M13.743,0.908c0.494,0,0.875,0.084,1.14,0.251c0.263,0.167,0.394,0.428,0.394,0.781
				c0,0.22-0.052,0.399-0.158,0.537c-0.106,0.137-0.26,0.245-0.459,0.323c0.065,0.079,0.137,0.168,0.207,0.27
				c0.074,0.101,0.148,0.206,0.219,0.317c0.071,0.11,0.14,0.224,0.208,0.344c0.065,0.119,0.129,0.236,0.187,0.351h-0.832
				c-0.063-0.103-0.123-0.207-0.186-0.313c-0.061-0.105-0.126-0.208-0.191-0.308c-0.065-0.1-0.129-0.194-0.194-0.283
				c-0.063-0.089-0.126-0.169-0.188-0.242h-0.369v1.145h-0.741V0.989c0.161-0.03,0.328-0.051,0.501-0.063
				C13.453,0.914,13.606,0.908,13.743,0.908z M13.786,1.51c-0.055,0-0.104,0.001-0.145,0.005c-0.044,0.003-0.085,0.005-0.123,0.009
				v0.851h0.211c0.278,0,0.479-0.033,0.602-0.1c0.12-0.066,0.18-0.18,0.18-0.34c0-0.154-0.063-0.263-0.183-0.328
				C14.205,1.542,14.024,1.51,13.786,1.51z"/>
		</g>
	</g>
</g>
</svg>
