<?xml version="1.0" encoding="utf-8"?>
<!-- Generator: Adobe Illustrator 16.0.0, SVG Export Plug-In . SVG Version: 6.00 Build 0)  -->
<!DOCTYPE svg PUBLIC "-//W3C//DTD SVG 1.1//EN" "http://www.w3.org/Graphics/SVG/1.1/DTD/svg11.dtd">
<svg version="1.1" id="图层_1" xmlns="http://www.w3.org/2000/svg" xmlns:xlink="http://www.w3.org/1999/xlink" x="0px" y="0px"
	 width="22px" height="22px" viewBox="0 0 22 22" enable-background="new 0 0 22 22" xml:space="preserve">
<polygon fill="#0D47A1" points="2.634,22 2.634,0 19.366,0 19.366,15.807 13.111,22 "/>
<g>
	<g>
		<g>
			<g>
				
					<linearGradient id="SVGID_1_" gradientUnits="userSpaceOnUse" x1="94.2002" y1="846.3008" x2="94.2002" y2="825.3008" gradientTransform="matrix(1 0 0 1 -83.2002 -824.8008)">
					<stop  offset="0" style="stop-color:#1976D2"/>
					<stop  offset="0.0226" style="stop-color:#1C79D3"/>
					<stop  offset="0.2859" style="stop-color:#3B93E2"/>
					<stop  offset="0.5416" style="stop-color:#52A6ED"/>
					<stop  offset="0.7843" style="stop-color:#5FB1F4"/>
					<stop  offset="1" style="stop-color:#64B5F6"/>
				</linearGradient>
				<polygon fill="url(#SVGID_1_)" points="3.133,21.5 3.133,0.5 18.867,0.5 18.867,15.594 12.961,21.5 				"/>
			</g>
			<polygon fill="#0D47A1" fill-opacity="0.39" points="18.867,15.594 18.867,15.34 12.637,15.34 12.637,21.5 12.961,21.5 			"/>
			<path fill="#FFFFFF" fill-opacity="0.45" d="M12.952,15.594l5.916,0.008L12.961,21.5L12.952,15.594z"/>
		</g>
		<g>
			<path fill="#64B5F6" d="M15.888,10.311c0,2.699-2.19,4.89-4.888,4.89s-4.888-2.19-4.888-4.89c0-2.696,2.19-4.886,4.888-4.886
				S15.888,7.615,15.888,10.311z"/>
			<path fill="#FFFFFF" fill-opacity="0.8" d="M7.793,6.629c0,0,0.101,0.054,0.14,0.14c0.031,0.086,0.14,0.086,0.14,0.086H8.23
				l0.229-0.071L8.402,6.909c0,0-1.196,0.555-0.954,0.883C7.691,8.121,7.604,8.207,7.604,8.31c0,0.101,0.071,0.015,0.071,0.015
				l0.07-0.187l0.102-0.14L7.95,7.839l0.032-0.084l0.14-0.242l0.172-0.101L8.45,7.512c0,0,0.07,0.03,0.054,0.085
				C8.489,7.653,8.473,7.754,8.473,7.754s0.032,0.071,0.086,0.071c0.055,0,0.141-0.055,0.141-0.055l0.071,0.125l0.055,0.229
				l0.14,0.139l0.072,0.156L8.966,8.56l0.072,0.056l0.156,0.173l0.03,0.085L8.966,8.857c0,0-0.031-0.072-0.085-0.072
				c-0.055,0-0.274-0.015-0.274-0.015L8.48,8.802L8.412,8.887c0,0-0.087,0.142-0.143,0.142c-0.053,0-0.186-0.03-0.186-0.03
				S7.981,8.966,7.926,9.066C7.871,9.171,8.011,9.224,8.011,9.224L7.77,9.295L7.698,9.326c0,0-0.172,0.071-0.172,0.126
				s0,0.055,0,0.055l-0.053,0.14v0.086L7.347,9.835L7.221,9.92l-0.053,0.103v0.172c0,0-0.017,0.087-0.017,0.142s0,0.187,0,0.187
				s-0.055,0.057-0.086-0.055c-0.032-0.103-0.032-0.103-0.032-0.103L6.979,10.24c0,0,0.055-0.014-0.016-0.07
				c-0.07-0.053-0.141-0.069-0.141-0.069s-0.03-0.03-0.102-0.03c-0.07,0,0.086,0.014-0.07,0c-0.156-0.017-0.156-0.017-0.156-0.017
				l-0.126,0.102v0.085c0,0-0.029,0.61,0.141,0.697h0.072l0.101-0.156l0.087,0.03v0.071l-0.017,0.125v0.071l0.085,0.086l0.055,0.157
				c0.071,0.123,0.032,0.156,0.085,0.187c0.055,0.03,0.103,0.126,0.103,0.126l0.07,0.029c0,0,0.055,0.017,0.101,0.032
				c0.056,0.016,0.056,0.016,0.056,0.016l0.017,0.078l0.017,0.063l0.07,0.084c0,0-0.054,0,0.071,0s0.125,0,0.125,0
				s0,0.033,0.086,0.073c0.085,0.028,0.017,0.016,0.085,0.028c0.071,0.018,0.188,0.031,0.188,0.031
				c0.125-0.015,0.125-0.015,0.125-0.015l0.086,0.126c0,0,0.054,0,0.07,0.053c0.017,0.057-0.084,0,0.017,0.057
				c0.102,0.055,0,0.016,0.102,0.055s-0.033,0.031,0.1,0.031c0.132,0,0.156,0,0.212,0.015c0.055,0.016,0.086,0.143,0.086,0.143
				c0.101,0.124,0.101,0.124,0.101,0.124l0.017,0.156c0,0-0.055,0.031,0.07,0.031c0.126,0,0.032,0,0.126,0
				c0.093,0-0.016-0.031,0.085,0c0.101,0.03,0.101,0.03,0.101,0.03s0.157,0.127,0.212,0.127c0.055,0,0.157-0.018,0.211,0
				c0.055,0.015,0.084,0.1,0.187,0.124c0.103,0.017,0.141,0,0.211,0.055c0.072,0.055,0.072,0.055,0.072,0.055l0.016,0.187
				l-0.056,0.103l-0.14,0.055l-0.017,0.174l-0.072,0.173v0.084c0,0,0.087,0.072-0.07,0.087c-0.155,0.014-0.155,0.014-0.155,0.014
				l-0.071,0.071c0,0,0,0.018-0.031,0.071c-0.03,0.054-0.071,0.143-0.071,0.143l0.017,0.155v0.102l-0.055,0.085
				c0,0-0.048,0.024,0.085,0.11c0.14,0.085,0.25,0.085,0.283,0.138c0.03,0.058,0.118,0.104,0.118,0.104l-0.188-0.04L9.63,15.012
				l-0.195-0.054L9.06,14.763c0,0-0.563-0.462-0.736-0.836c0,0-0.147-0.22-0.398-0.313c0,0-0.619-0.564-0.673-0.706l-0.024-0.094
				v-0.047l-0.024-0.024v-0.054L7.19,12.65l0.008-0.174l0.008-0.116l0.008-0.063l-0.008-0.047c0,0-0.032-0.03-0.032-0.038
				c0-0.007-0.023-0.079-0.023-0.079l-0.007-0.022l0.094-0.079l-0.025-0.071l0.016-0.039l0.056-0.039c0,0,0.031-0.046,0.031-0.055
				c0-0.015-0.055-0.055-0.055-0.055l-0.022,0.009l-0.025,0.071h-0.03c0,0-0.031-0.017-0.031-0.025c0-0.008-0.03-0.038-0.03-0.038
				l-0.04-0.017c0,0-0.031-0.008-0.039-0.022c-0.009-0.016-0.048-0.039-0.048-0.048c0-0.007-0.03-0.055-0.03-0.055l-0.04-0.014
				c0,0-0.048-0.071-0.048-0.088c0-0.006-0.024-0.045-0.024-0.045s-0.055-0.063-0.055-0.071c0-0.007-0.024-0.063-0.024-0.063H6.737
				l-0.086-0.033l-0.055-0.068l-0.063-0.071c0,0-0.032-0.056-0.032-0.069c0-0.017-0.023-0.033-0.023-0.033H6.439H6.417l-0.055-0.046
				l-0.14-0.194l-0.025-0.088l-0.022-0.093l-0.017-0.157v-0.103L6.095,9.687C6.119,9.693,6.331,7.894,7.793,6.629z"/>
			<path fill="#FFFFFF" fill-opacity="0.8" d="M13.316,6.017l0.156,0.127l0.078,0.039l0.054,0.063l0.01,0.063
				c0,0,0.015,0.063,0.008,0.078c-0.008,0.017-0.018,0.101-0.018,0.101s0.071,0.127,0.071,0.142c0,0.015,0.008,0.085-0.007,0.102
				c-0.017,0.007-0.103,0.062-0.11,0.038S13.496,6.69,13.48,6.69c-0.017-0.009-0.063-0.055-0.063-0.055l0.126-0.018L13.526,6.54
				c0,0-0.085-0.03-0.109-0.03c-0.022-0.008-0.11-0.055-0.11-0.055l-0.094-0.023c0,0-0.155-0.04-0.172-0.048
				c-0.015-0.008-0.079-0.03-0.079-0.03H12.83c0,0-0.063,0.03-0.078,0.046c-0.008,0.016-0.087,0.101-0.087,0.101
				s-0.007,0.101-0.007,0.118c0,0.016-0.023,0.056-0.023,0.101c0,0.048-0.01,0.111-0.01,0.127c0,0.017,0,0.04,0,0.04L12.61,6.956
				l-0.055,0.033l-0.069,0.055c0,0-0.062,0.046-0.062,0.063c0,0.016,0,0.078,0.022,0.124c0.022,0.047,0.016,0.092,0.046,0.116
				c0.031,0.025,0.046,0.055,0.071,0.064c0.024,0.007,0.006,0.015,0.046,0.015c0.032,0,0.063,0.008,0.078-0.008
				c0.017-0.007,0.056-0.007,0.072-0.03c0.015-0.024-0.017-0.008,0.015-0.024c0.031-0.008,0.031-0.03,0.057-0.008
				c0.03,0.025,0.055,0.056,0.062,0.071c0.009,0.016,0.031,0.055,0.056,0.079c0.03,0.017,0.055,0.078,0.055,0.078l0.047,0.048
				c0,0,0.007,0.007,0.038,0.007c0.032,0,0.078-0.007,0.078-0.007L13.185,7.6c0,0,0.028,0.008,0.038-0.007
				c0.009-0.016,0.009-0.04,0.009-0.04s-0.019-0.048-0.03-0.062c-0.01-0.016-0.025-0.056-0.025-0.056l0.009-0.055l0.028-0.031
				l0.01-0.038V7.262l-0.033-0.017l-0.055-0.031c0,0-0.031,0.007-0.031-0.032c-0.008-0.03-0.008-0.03-0.008-0.03l-0.069-0.017
				l-0.048-0.024l0.055-0.039c0.031-0.055,0.039-0.071,0.039-0.084c0-0.017-0.008-0.063-0.008-0.063s-0.031-0.008-0.031-0.049
				c-0.007-0.038-0.007-0.062-0.007-0.062l0.007-0.03c0,0,0.008-0.025,0.031-0.025c0.017,0,0.047,0.025,0.063,0.025
				s0.045,0.007,0.045,0.007s0.018,0.007,0.018,0.033c0,0.014-0.008,0.052-0.008,0.052l0.03-0.045v0.056l-0.008,0.062v0.062
				l0.031,0.063l0.03,0.049c0,0,0.038,0.039,0.056,0.055c0.019,0.005,0.056,0.037,0.056,0.037l0.047,0.023l0.03,0.008l0.031-0.031
				c0,0,0.056,0.007,0.056-0.01c0.009-0.016,0.009-0.016,0.009-0.016s0.063-0.006,0.079-0.006s0.047,0,0.047,0
				s0.023,0.045,0.008,0.045s-0.024,0.016-0.064,0.031c-0.039,0.008-0.055,0-0.061,0.017c-0.009,0.016-0.032,0.055-0.032,0.055
				l0.032,0.008h0.021l0.033,0.033c0,0,0.006,0.005,0,0.03c-0.01,0.022,0.028,0.017-0.01,0.022
				c-0.045,0.011-0.068-0.005-0.068-0.005s-0.009-0.041-0.033-0.023c-0.017,0.017-0.024,0.055-0.024,0.055v0.054l0.032,0.079
				c0,0,0.014,0.017,0,0.024c-0.015,0.008-0.069,0.07-0.069,0.07S13.431,7.7,13.408,7.7c-0.014,0-0.037,0-0.08,0.008
				C13.3,7.715,13.3,7.715,13.268,7.724c-0.031,0.007-0.055,0.014-0.102,0.022s-0.133,0.008-0.162,0.008
				c-0.032,0-0.039,0-0.057-0.008c-0.016-0.008-0.009,0-0.03-0.031c-0.023-0.032-0.048-0.055-0.048-0.078
				c0-0.017,0-0.024-0.01-0.056c-0.007-0.03-0.007-0.053-0.029-0.053c-0.032,0-0.032,0-0.032,0s-0.06,0.046-0.054,0.063
				c0.008,0.016-0.006,0,0.047,0.038c0.053,0.039,0.071,0.094,0.071,0.094l-0.01,0.055l-0.101,0.056l-0.07,0.022l-0.008,0.046
				c0,0,0,0.017-0.016,0.04c-0.016,0.023-0.056,0.055-0.056,0.055s-0.032,0.007-0.038,0.032c-0.009,0.016-0.031,0.077-0.031,0.077
				s-0.032-0.007-0.063,0.016c-0.03,0.025,0.009,0.025-0.063,0.056c-0.069,0.03-0.069,0.03-0.069,0.03L12.258,8.2l-0.047,0.016
				c0,0-0.061,0.007-0.069,0.023c-0.009,0.015-0.04,0.062-0.04,0.062s-0.015,0.033,0,0.033c0.017,0.005,0.04,0,0.078,0.005
				c0.031,0.011,0.04,0.011,0.064,0.025c0.023,0.009,0.047,0.033,0.047,0.033l0.084,0.077l0.05,0.101l-0.01,0.08l-0.093,0.029
				c0,0-0.055,0-0.078,0c-0.018,0-0.011,0-0.103,0c-0.093,0-0.109,0-0.126,0c-0.016,0-0.078-0.008-0.078-0.008l-0.055,0.008
				l-0.039,0.033L11.82,8.724c0,0,0.033,0.069,0.033,0.095c0,0.022,0,0.053,0,0.053l-0.01,0.05L11.82,8.976l-0.031,0.053l0.01,0.031
				c0,0-0.01,0.023,0.008,0.023c0.016,0,0.061-0.007,0.061,0.01c0,0.015-0.037,0.078-0.037,0.078l0.079,0.017
				c0,0-0.009-0.009,0.037,0.008c0.046,0.006,0.077,0.021,0.077,0.021l0.054,0.039l0.019,0.031l0.016-0.031
				c0,0,0.085-0.009,0.1-0.017c0.018-0.007,0.057-0.007,0.057-0.007h0.069c0,0,0.017,0.007,0.032-0.01
				c0.006-0.014,0.006-0.014,0.006-0.014s0.08-0.03,0.095-0.047c0.017-0.008,0.023-0.056,0.023-0.056s0.024-0.015,0.024-0.03
				c0-0.015-0.017-0.055-0.017-0.055V8.989l0.023-0.03c0,0,0.009-0.01,0.031-0.031c0.024-0.025,0.024-0.025,0.024-0.025
				s-0.01-0.005,0.022-0.021c0.032-0.01,0.056-0.033,0.071-0.033c0.015,0-0.016,0.017,0.015,0c0.031-0.016,0.04-0.029,0.04-0.055
				c0-0.015,0.01-0.101,0.01-0.101l0.028-0.047l0.077,0.009l0.041,0.008c0,0,0.047,0.008,0.054-0.008
				c0.009-0.017,0.032-0.03,0.032-0.03l0.063-0.033c0,0-0.007-0.008,0.024-0.008c0.03,0,0.078,0,0.103,0c0.016,0,0.053,0,0.053,0
				s0.032,0.017,0.047,0.03c0.008,0.016,0.031,0.055,0.031,0.055L13.316,8.7h0.023c0.031,0.023,0.045,0.04,0.101,0.055
				c0.055,0.017,0.095,0.03,0.095,0.03s0.015,0.033,0.028,0.047c0.017,0.016,0.031,0.032,0.055,0.049
				c0.017,0.006,0.031,0.021,0.04,0.038c0.01,0.017,0.032,0.047,0.032,0.047l0.028,0.032l0.019-0.032V8.911l-0.007-0.03
				c0,0-0.031-0.023,0.007-0.023c0.031,0,0.056,0,0.056,0L13.762,8.81l-0.039-0.017l-0.054-0.038L13.645,8.73l-0.025-0.007
				l-0.023-0.015l-0.031-0.025c0,0-0.053-0.008-0.053-0.029c-0.01-0.017-0.01-0.017-0.01-0.017l-0.055-0.009
				c0,0-0.053-0.029-0.053-0.046s-0.01-0.063-0.01-0.063L13.34,8.513c0,0,0.006-0.031,0.006-0.054c0-0.017,0.017-0.04,0.017-0.04
				l0.102-0.007l0.021,0.053l0.038,0.024l0.057,0.023l0.023,0.032l0.025,0.024c0,0,0.008,0.005,0.039,0.017
				C13.697,8.593,13.721,8.6,13.721,8.6s0.033,0.031,0.057,0.031c0.022,0.008,0.031,0.017,0.056,0.024
				C13.814,8.67,13.814,8.67,13.814,8.67s0.009,0.017,0.032,0.03c0.022,0.017,0.046,0.047,0.046,0.063
				c0,0.016,0.017,0.07,0.031,0.079c0.016,0.008,0.023,0.008,0.055,0.038c0.029,0.03,0.029,0.063,0.054,0.079
				c0.032,0.009,0.055,0,0.055,0.03c0.01,0.031,0.01,0.055,0.01,0.055s0.024,0.008,0.038,0.008c0.016,0,0.047-0.029,0.047-0.029
				s0.033-0.048,0.01-0.058c-0.016-0.007-0.055-0.007-0.055-0.023c0-0.015,0-0.102,0-0.102l0.023-0.056l0.031-0.045l0.046,0.015
				l0.047-0.03l0.048,0.055l-0.016,0.062c0,0,0.008,0.04,0.029,0.07C14.363,8.942,14.4,8.982,14.4,8.982l0.079,0.07l0.11,0.03
				l0.025-0.007l0.162-0.031c0,0,0.025,0,0.039,0c0.016,0,0.094,0.134,0.094,0.134s0,0.055,0,0.085s0,0.109,0,0.109
				s-0.055,0.055-0.078,0.055c-0.024,0-0.086,0.03-0.086,0.03L14.615,9.49l-0.086-0.008l-0.156-0.008c0,0-0.157-0.009-0.174-0.009
				s-0.071,0-0.086,0c-0.016,0-0.039,0.017-0.054,0.063c-0.018,0.046-0.048,0.062-0.048,0.062s0,0.022-0.029,0.022
				c-0.033,0-0.033,0.01-0.057-0.007c-0.023-0.016-0.133-0.039-0.133-0.039L13.69,9.499l-0.056-0.047L13.58,9.444h-0.156
				l-0.103-0.009l0.019-0.164l0.015,0.047l-0.033-0.109l-0.046-0.03l-0.109-0.024l-0.07,0.008l-0.092,0.023l-0.096,0.031
				l-0.056,0.017l-0.264,0.045l-0.096,0.04c0,0-0.04,0.023-0.054,0.03c-0.015,0.008-0.079,0.008-0.079,0.008
				s-0.046-0.008-0.069-0.015s-0.08-0.007-0.104-0.007c-0.022,0-0.07-0.009-0.086,0c-0.015,0.007-0.031,0.007-0.046,0.03
				c-0.017,0.024-0.071,0.087-0.071,0.087s-0.029,0.03-0.047,0.047c-0.006,0.014-0.046,0.062-0.046,0.062l-0.063,0.103l-0.039,0.046
				l0.01,0.055v0.04c0,0-0.025,0.023-0.039,0.031c-0.018,0.007-0.049,0.024-0.049,0.024s-0.023,0.006-0.047,0.029
				c-0.021,0.017-0.021,0.025-0.039,0.039c-0.017,0.017-0.071,0.055-0.071,0.055s-0.03,0.023-0.054,0.047
				c-0.014,0.024-0.047,0.055-0.055,0.071c-0.007,0.017-0.031,0.03-0.048,0.038c-0.013,0.008-0.046,0.071-0.053,0.088
				c-0.007,0.014-0.055,0.084-0.055,0.084l-0.032,0.135l-0.007,0.062c0,0,0.007,0.022,0.024,0.039
				c0.016,0.014,0.031,0.079,0.031,0.079v0.055c0,0-0.016,0.047-0.024,0.063c-0.006,0.014,0.008,0.093,0.008,0.093v0.047
				c0,0,0,0.016-0.024,0.038c-0.025,0.024-0.031,0.055-0.031,0.055l0.031,0.071l0.024,0.046v0.033l0.03,0.052
				c0,0,0.017,0.018,0.031,0.033c0.018,0.008,0.025,0.008,0.058,0.032c0.031,0.014,0.031,0.014,0.031,0.014s0.048,0.055,0.048,0.079
				c0,0.017,0.03,0.048,0.03,0.048l0.055,0.055c0,0,0.009,0.03,0.038,0.054c0.031,0.024,0.063,0.04,0.079,0.055
				c0.017,0.008,0.062,0.047,0.102,0.055c0.031,0.008,0.048,0.017,0.064,0.017c0.014,0-0.025-0.048,0.084,0.008
				c0.111,0.055,0.181,0.078,0.181,0.078l0.079,0.031c0,0,0.127,0.009,0.14-0.008c0.015-0.009,0.038-0.009,0.054-0.009
				c0.015,0,0.056,0,0.088,0c0.029,0,0.139-0.016,0.139-0.016l0.125-0.047c0,0,0.039-0.023,0.056-0.03
				c0.017-0.008,0.062-0.038,0.079-0.046c0.017-0.01,0.094-0.01,0.094-0.01s0-0.023,0.031,0s0.031,0.031,0.039,0.048
				c0.01,0.017,0.01,0.055,0.031,0.055c0.023,0.008,0.078,0.024,0.078,0.024s0.08-0.008,0.102,0
				c0.025,0.007,0.079,0.007,0.079,0.007l0.024,0.031l0.007,0.071v0.063c0,0-0.007,0.025,0,0.047
				c0.009,0.021,0.033,0.063,0.033,0.063s-0.033,0.047-0.05,0.054c-0.018,0.007-0.055,0.055-0.055,0.055l0.109,0.102l0.063,0.063
				l0.048,0.056c0,0,0.008,0.023,0.008,0.039c0,0.015-0.008,0.055,0,0.077c0.007,0.019,0.007,0.08,0.007,0.08
				s0.009,0.046,0.009,0.063s-0.016,0.093-0.016,0.093l-0.008,0.055l-0.034,0.095l-0.037,0.046l-0.056,0.055l-0.039,0.063
				l-0.006,0.085l-0.033,0.053c0,0,0.01,0.05,0.01,0.072c0,0.023,0.046,0.109,0.046,0.109l-0.008,0.071c0,0-0.03,0.103-0.03,0.126
				c0,0.024-0.024,0.055-0.024,0.079c0,0.016-0.009,0.085-0.009,0.085l0.009,0.086l0.028,0.085L13.3,13.902
				c0,0-0.017,0.062-0.017,0.102c0,0.03,0.057,0.069,0.071,0.069c0.017,0,0.086-0.008,0.118-0.03
				c0.029-0.016,0.107-0.038,0.125-0.048c0.017-0.008,0.031,0.01,0.078-0.029c0.047-0.032,0.117-0.085,0.117-0.085
				s0.057-0.04,0.08-0.055c0.014-0.018,0.091-0.105,0.091-0.105s0.055-0.054,0.093-0.078c0.04-0.024,0-0.007,0.04-0.028
				c0.038-0.023,0.163-0.127,0.163-0.127l0.127-0.125c0,0,0.109-0.141,0.125-0.164c0.018-0.025,0.117-0.157,0.133-0.167
				c0.016-0.007,0.156-0.1,0.188-0.124c0.03-0.024,0.071-0.188,0.085-0.212c0.015-0.015,0.103-0.211,0.103-0.211l0.079-0.227
				l0.132-0.338l0.133-0.235c0,0,0.053-0.103,0.077-0.132c0.017-0.03,0.143-0.273,0.143-0.273l0.048-0.203l0.015-0.172h-0.077
				l-0.088,0.079l-0.08-0.024l-0.076,0.01l0.088-0.111l-0.025-0.084l-0.069-0.055l-0.095-0.14v-0.143l-0.101-0.164l-0.063-0.257
				c0,0-0.117-0.127-0.101-0.156c0.007-0.032,0.038-0.127,0.038-0.127l0.063,0.031c0,0,0.047,0.125,0.07,0.132
				c0.025,0.008,0.055,0.071,0.064,0.085c0.008,0.018,0.015,0.072,0.029,0.087c0.009,0.016,0.063,0.118,0.063,0.118
				s0.039,0.101,0.047,0.125c0.009,0.017,0.047,0.08,0.057,0.125c0.008,0.048,0.03,0.195,0.03,0.212s0.038,0.181,0.038,0.181
				s0.055-0.017,0.062-0.03c0.01-0.017,0.01-0.024,0.026-0.04c0.008-0.015,0.101-0.086,0.101-0.086l0.04-0.126
				c0,0,0.024-0.055,0.028-0.078c0.01-0.022,0.056-0.11,0.056-0.124c0-0.017-0.006-0.079,0-0.104
				c0.009-0.014,0.032-0.109,0.032-0.125c0-0.017,0.007-0.079,0.007-0.079l-0.007-0.141l0.062-0.078l0.031-0.086
				C15.881,9.702,15.654,7.246,13.316,6.017z"/>
		</g>
	</g>
	<g>
		<rect x="3.129" y="0.5" opacity="0.8" fill="#FFFFFF" enable-background="new    " width="15.742" height="4.025"/>
		<g enable-background="new    ">
			<path fill="#1976D2" d="M9.559,2.487c0,0.269-0.042,0.505-0.126,0.709C9.349,3.4,9.233,3.571,9.087,3.708
				c-0.146,0.137-0.32,0.241-0.522,0.309C8.364,4.087,8.146,4.122,7.916,4.122c-0.226,0-0.439-0.034-0.638-0.105
				C7.076,3.948,6.902,3.844,6.752,3.708C6.603,3.571,6.485,3.4,6.401,3.196c-0.086-0.204-0.13-0.44-0.13-0.709
				s0.045-0.504,0.134-0.708c0.089-0.204,0.209-0.375,0.36-0.514C6.916,1.126,7.09,1.022,7.29,0.953
				c0.198-0.07,0.406-0.104,0.626-0.104c0.226,0,0.438,0.035,0.639,0.104c0.2,0.069,0.375,0.173,0.523,0.312s0.267,0.31,0.353,0.514
				C9.517,1.983,9.559,2.219,9.559,2.487z M7.039,2.487c0,0.154,0.02,0.293,0.059,0.416c0.04,0.125,0.097,0.23,0.172,0.319
				c0.074,0.09,0.165,0.158,0.273,0.206c0.108,0.049,0.232,0.074,0.372,0.074c0.137,0,0.26-0.025,0.369-0.074
				c0.109-0.048,0.201-0.116,0.276-0.206c0.075-0.089,0.131-0.195,0.171-0.319c0.04-0.123,0.06-0.262,0.06-0.416
				s-0.021-0.293-0.06-0.418S8.636,1.836,8.561,1.748S8.394,1.59,8.285,1.541C8.175,1.493,8.052,1.469,7.916,1.469
				c-0.139,0-0.264,0.025-0.372,0.075c-0.108,0.05-0.2,0.119-0.273,0.208c-0.075,0.09-0.133,0.196-0.172,0.321
				C7.059,2.199,7.039,2.337,7.039,2.487z"/>
			<path fill="#1976D2" d="M12.52,0.921v0.603h-0.997v2.534h-0.744V1.523H9.783V0.921H12.52z"/>
			<path fill="#1976D2" d="M14.985,0.921h0.743v3.137h-0.743V2.727h-1.247v1.331h-0.744V0.921h0.744v1.2h1.247V0.921z"/>
		</g>
	</g>
</g>
</svg>
