<?xml version="1.0" encoding="utf-8"?>
<!-- Generator: Adobe Illustrator 16.0.0, SVG Export Plug-In . SVG Version: 6.00 Build 0)  -->
<!DOCTYPE svg PUBLIC "-//W3C//DTD SVG 1.1//EN" "http://www.w3.org/Graphics/SVG/1.1/DTD/svg11.dtd">
<svg version="1.1" id="图层_1" xmlns="http://www.w3.org/2000/svg" xmlns:xlink="http://www.w3.org/1999/xlink" x="0px" y="0px"
	 width="22px" height="22px" viewBox="0 0 22 22" enable-background="new 0 0 22 22" xml:space="preserve">
<rect x="2.634" fill="#E65100" width="16.732" height="22"/>
<g>
	
		<linearGradient id="SVGID_1_" gradientUnits="userSpaceOnUse" x1="94.2002" y1="846.3008" x2="94.2002" y2="825.3008" gradientTransform="matrix(1 0 0 1 -83.2002 -824.8008)">
		<stop  offset="0" style="stop-color:#EE6F0B"/>
		<stop  offset="1" style="stop-color:#FFB74D"/>
	</linearGradient>
	<rect x="3.133" y="0.5" fill="url(#SVGID_1_)" width="15.734" height="21"/>
	<g opacity="0.8">
		<rect x="5.182" y="8.583" fill="#FFFFFF" width="1.679" height="8.419"/>
		<rect x="7.981" y="12.784" fill="#FFFFFF" width="1.68" height="4.208"/>
		<rect x="10.773" y="14.499" fill="#FFFFFF" width="1.679" height="2.521"/>
		<g>
			<path fill="#FFFFFF" d="M13.057,7.098l0.019,3.35l3.352-0.016c0.009,1.854-1.489,3.358-3.343,3.367
				c-1.857,0.011-3.361-1.487-3.37-3.342C9.705,8.61,11.202,7.106,13.057,7.098z"/>
			<path fill="#FFFFFF" d="M13.45,6.71c1.855-0.009,3.36,1.488,3.368,3.344l-3.35,0.02L13.45,6.71z"/>
		</g>
	</g>
	<g>
		<rect x="3.129" y="0.5" opacity="0.8" fill="#FFFFFF" enable-background="new    " width="15.742" height="4.025"/>
		<g enable-background="new    ">
			<path fill="#E64A19" d="M9.667,2.488c0,0.268-0.042,0.504-0.127,0.708C9.456,3.4,9.34,3.571,9.195,3.708
				c-0.146,0.137-0.32,0.241-0.522,0.309c-0.202,0.071-0.418,0.105-0.65,0.105c-0.226,0-0.438-0.034-0.639-0.105
				c-0.2-0.068-0.375-0.172-0.523-0.309C6.711,3.571,6.594,3.4,6.507,3.196c-0.086-0.204-0.128-0.44-0.128-0.708
				c0-0.269,0.045-0.506,0.134-0.708c0.089-0.205,0.208-0.375,0.36-0.514c0.15-0.14,0.325-0.243,0.523-0.312
				c0.198-0.071,0.408-0.105,0.626-0.105c0.226,0,0.438,0.034,0.639,0.105c0.2,0.068,0.374,0.172,0.524,0.312
				c0.149,0.14,0.267,0.309,0.353,0.514C9.623,1.982,9.667,2.219,9.667,2.488z M7.146,2.488c0,0.153,0.021,0.292,0.06,0.416
				c0.04,0.125,0.096,0.23,0.171,0.32C7.452,3.313,7.542,3.381,7.65,3.429c0.108,0.049,0.232,0.074,0.372,0.074
				c0.137,0,0.26-0.025,0.369-0.074c0.11-0.048,0.202-0.116,0.277-0.205C8.743,3.133,8.8,3.028,8.84,2.903
				C8.88,2.78,8.9,2.641,8.9,2.488c0-0.154-0.021-0.294-0.061-0.418C8.8,1.944,8.743,1.837,8.669,1.747
				C8.594,1.659,8.502,1.59,8.392,1.542C8.282,1.493,8.159,1.468,8.022,1.468c-0.14,0-0.264,0.026-0.372,0.077
				C7.542,1.594,7.452,1.662,7.377,1.752c-0.075,0.089-0.131,0.195-0.171,0.32C7.167,2.198,7.146,2.337,7.146,2.488z"/>
			<path fill="#E64A19" d="M12.624,0.921v0.602h-0.995v2.535h-0.742V1.522H9.89V0.921H12.624z"/>
			<path fill="#E64A19" d="M14.093,0.886c0.492,0,0.869,0.082,1.133,0.246c0.265,0.164,0.396,0.435,0.396,0.808
				c0,0.377-0.133,0.649-0.399,0.816c-0.268,0.168-0.647,0.251-1.145,0.251h-0.233v1.05h-0.742V0.966
				c0.162-0.03,0.332-0.051,0.514-0.063S13.956,0.886,14.093,0.886z M14.139,1.487c-0.053,0-0.106,0.001-0.158,0.005
				c-0.052,0.002-0.099,0.005-0.137,0.008v0.905h0.233c0.259,0,0.451-0.033,0.581-0.1c0.132-0.067,0.197-0.19,0.197-0.371
				c0-0.087-0.018-0.16-0.052-0.217c-0.033-0.058-0.079-0.104-0.143-0.138c-0.062-0.036-0.137-0.059-0.227-0.072
				C14.347,1.494,14.248,1.487,14.139,1.487z"/>
		</g>
	</g>
</g>
</svg>
