<?xml version="1.0" encoding="utf-8"?>
<!-- Generator: Adobe Illustrator 21.0.0, SVG Export Plug-In . SVG Version: 6.00 Build 0)  -->
<svg version="1.1" id="图层_1" xmlns="http://www.w3.org/2000/svg" xmlns:xlink="http://www.w3.org/1999/xlink" x="0px" y="0px"
	 viewBox="0 0 22 22" style="enable-background:new 0 0 22 22;" xml:space="preserve">
<style type="text/css">
	.st0{fill:#EE6F0B;}
	.st1{fill:url(#SVGID_1_);}
	.st2{opacity:0.8;fill:#FFFFFF;enable-background:new    ;}
	.st3{fill:#EE6F0B;fill-opacity:0.39;}
	.st4{fill:#FFFFFF;fill-opacity:0.39;}
</style>
<title>application-certificate</title>
<path class="st0" d="M19,1v14l-6,6H3V1H19 M20,0H2v22h11l7-7V0z"/>
<linearGradient id="SVGID_1_" gradientUnits="userSpaceOnUse" x1="11" y1="-1486.99" x2="11" y2="-1506.99" gradientTransform="matrix(1 0 0 -1 0 -1485.99)">
	<stop  offset="0" style="stop-color:#FFCD40"/>
	<stop  offset="0.22" style="stop-color:#FEC93D"/>
	<stop  offset="0.44" style="stop-color:#FDBC33"/>
	<stop  offset="0.67" style="stop-color:#FAA823"/>
	<stop  offset="0.9" style="stop-color:#F78B0C"/>
	<stop  offset="1" style="stop-color:#F57C00"/>
</linearGradient>
<polygon class="st1" points="3,21 3,1 19,1 19,15 13,21 "/>
<path class="st2" d="M11,3c-0.4,0-0.8,0.2-0.9,0.6C9.8,3.4,9.3,3.3,9,3.5c-0.4,0.2-0.6,0.6-0.5,1c-0.5,0-1,0.4-1.1,0.9
	c0,0.3,0,0.5,0.2,0.7C7.1,6.4,6.8,6.9,7,7.5C7.1,7.7,7.3,7.9,7.6,8C7.3,8.3,7.3,8.8,7.5,9.1c0.2,0.4,0.6,0.6,1,0.5
	c-0.1,0.4,0.1,0.8,0.5,1c0.2,0.1,0.3,0.1,0.5,0.1V15l1.5-1.5l1.5,1.5v-4.3c0.2,0,0.3,0,0.5-0.1c0.4-0.2,0.6-0.6,0.5-1
	c0.4,0.1,0.8-0.1,1-0.5c0.2-0.3,0.1-0.8-0.1-1.1C15,7.8,15.2,7.2,15,6.7c-0.1-0.2-0.3-0.4-0.5-0.5c0.3-0.4,0.3-1.1-0.2-1.4
	c-0.2-0.2-0.5-0.2-0.7-0.2c0.1-0.4-0.1-0.8-0.5-1c-0.3-0.2-0.8-0.2-1.1,0.1C11.8,3.2,11.4,3,11,3z M11,4.5c1.4,0,2.5,1.1,2.6,2.5
	s-1.1,2.5-2.5,2.6S8.5,8.5,8.5,7.1c0,0,0,0,0-0.1C8.5,5.6,9.6,4.5,11,4.5z M11,5.4c-0.9,0-1.6,0.7-1.6,1.6s0.7,1.6,1.6,1.6
	c0.9,0,1.6-0.7,1.6-1.6l0,0C12.6,6.1,11.9,5.4,11,5.4L11,5.4z"/>
<polygon class="st3" points="19,15 19,14 12,14 12,21 13,21 "/>
<path class="st4" d="M13,15h6l-6,6V15z"/>
</svg>
