<?xml version="1.0" encoding="utf-8"?>
<!-- Generator: Adobe Illustrator 16.0.0, SVG Export Plug-In . SVG Version: 6.00 Build 0)  -->
<!DOCTYPE svg PUBLIC "-//W3C//DTD SVG 1.1//EN" "http://www.w3.org/Graphics/SVG/1.1/DTD/svg11.dtd">
<svg version="1.1" id="图层_1" xmlns="http://www.w3.org/2000/svg" xmlns:xlink="http://www.w3.org/1999/xlink" x="0px" y="0px"
	 width="22px" height="22px" viewBox="0 0 22 22" enable-background="new 0 0 22 22" xml:space="preserve">
<polygon fill="#E65100" points="2.634,22 2.634,0 19.366,0 19.366,15.806 13.112,22 "/>
<g>
	<g>
		<g>
			
				<linearGradient id="SVGID_1_" gradientUnits="userSpaceOnUse" x1="52.6006" y1="-163.3999" x2="52.6006" y2="-142.4004" gradientTransform="matrix(1 0 0 -1 -41.6001 -141.9004)">
				<stop  offset="0" style="stop-color:#EE6F0B"/>
				<stop  offset="1" style="stop-color:#FFB74D"/>
			</linearGradient>
			<polygon fill="url(#SVGID_1_)" points="3.133,21.5 3.133,0.5 18.867,0.5 18.867,15.594 12.961,21.5 			"/>
		</g>
		<polygon fill="#E65100" fill-opacity="0.3922" points="18.867,15.594 18.867,15.34 12.637,15.34 12.637,21.5 12.961,21.5 		"/>
		<path fill="#FFFFFF" fill-opacity="0.3922" d="M12.951,15.594l5.916,0.008L12.961,21.5L12.951,15.594z"/>
	</g>
	<g opacity="0.8">
		<rect x="5.181" y="8.584" fill="#FFFFFF" width="1.68" height="8.418"/>
		<rect x="7.981" y="12.784" fill="#FFFFFF" width="1.68" height="4.208"/>
		<rect x="10.773" y="14.498" fill="#FFFFFF" width="1.68" height="2.521"/>
		<g>
			<path fill="#FFFFFF" d="M13.057,7.097l0.018,3.351l3.351-0.018c0.01,1.855-1.487,3.361-3.343,3.369
				c-1.854,0.01-3.359-1.488-3.368-3.342C9.705,8.61,11.201,7.105,13.057,7.097z"/>
			<path fill="#FFFFFF" d="M13.45,6.711c1.855-0.008,3.36,1.488,3.368,3.343l-3.351,0.018L13.45,6.711z"/>
		</g>
	</g>
	<g>
		<rect x="3.129" y="0.5" opacity="0.8" fill="#FFFFFF" enable-background="new    " width="15.742" height="4.025"/>
		<g enable-background="new    ">
			<path fill="#E64A19" d="M6.854,0.921c0.058,0.1,0.123,0.223,0.198,0.369c0.075,0.146,0.153,0.305,0.234,0.476
				C7.367,1.936,7.448,2.11,7.527,2.288c0.081,0.178,0.154,0.345,0.226,0.503c0.07-0.159,0.145-0.326,0.224-0.503
				c0.08-0.178,0.16-0.353,0.241-0.522C8.3,1.595,8.378,1.437,8.453,1.29c0.073-0.146,0.141-0.269,0.198-0.369h0.675
				c0.032,0.208,0.062,0.442,0.089,0.7c0.027,0.257,0.051,0.526,0.071,0.805s0.04,0.559,0.058,0.839
				c0.017,0.28,0.033,0.546,0.045,0.792H8.864c-0.01-0.304-0.021-0.636-0.037-0.996C8.812,2.704,8.786,2.34,8.755,1.977
				c-0.058,0.126-0.12,0.267-0.191,0.421C8.494,2.551,8.424,2.704,8.356,2.858S8.222,3.161,8.158,3.3
				C8.095,3.439,8.04,3.56,7.995,3.66H7.477c-0.045-0.1-0.1-0.22-0.163-0.36C7.25,3.161,7.184,3.013,7.116,2.858
				c-0.07-0.154-0.138-0.308-0.208-0.461C6.837,2.243,6.774,2.103,6.717,1.977C6.684,2.34,6.661,2.704,6.644,3.062
				c-0.015,0.36-0.027,0.692-0.037,0.996H5.883C5.895,3.812,5.91,3.546,5.928,3.266s0.037-0.561,0.058-0.839
				s0.043-0.548,0.071-0.805c0.027-0.258,0.056-0.492,0.089-0.7H6.854z"/>
			<path fill="#E64A19" d="M11.861,1.465c-0.346,0-0.596,0.09-0.751,0.273c-0.152,0.183-0.229,0.432-0.229,0.749
				c0,0.153,0.018,0.292,0.057,0.418c0.038,0.126,0.096,0.232,0.171,0.323c0.076,0.091,0.172,0.161,0.287,0.21
				c0.114,0.051,0.247,0.075,0.398,0.075c0.084,0,0.153-0.001,0.214-0.004c0.058-0.003,0.109-0.008,0.154-0.02V2.4h0.742v1.553
				c-0.087,0.033-0.23,0.068-0.428,0.106c-0.198,0.039-0.44,0.058-0.729,0.058c-0.249,0-0.474-0.037-0.676-0.109
				c-0.201-0.073-0.373-0.178-0.517-0.317c-0.143-0.138-0.253-0.309-0.331-0.511s-0.117-0.432-0.117-0.692
				c0-0.262,0.044-0.495,0.13-0.697c0.086-0.202,0.203-0.375,0.352-0.514c0.15-0.139,0.325-0.246,0.527-0.32
				c0.202-0.071,0.416-0.108,0.646-0.108c0.155,0,0.295,0.01,0.421,0.029c0.126,0.021,0.233,0.043,0.325,0.068
				c0.091,0.026,0.164,0.052,0.223,0.079c0.06,0.027,0.102,0.049,0.128,0.063l-0.217,0.566c-0.101-0.05-0.217-0.096-0.35-0.132
				C12.161,1.483,12.018,1.465,11.861,1.465z"/>
			<path fill="#E64A19" d="M14.586,0.886c0.494,0,0.871,0.082,1.135,0.246s0.396,0.435,0.396,0.808c0,0.377-0.134,0.649-0.401,0.816
				c-0.266,0.168-0.648,0.251-1.144,0.251H14.34v1.05h-0.743V0.966c0.161-0.03,0.333-0.051,0.514-0.063S14.449,0.886,14.586,0.886z
				 M14.636,1.487c-0.055,0-0.108,0.001-0.16,0.005c-0.054,0.002-0.098,0.005-0.136,0.008v0.905h0.232
				c0.257,0,0.451-0.033,0.583-0.1c0.128-0.067,0.193-0.19,0.193-0.371c0-0.087-0.016-0.16-0.049-0.217
				c-0.033-0.058-0.082-0.104-0.144-0.138c-0.062-0.036-0.138-0.059-0.226-0.072C14.841,1.494,14.742,1.487,14.636,1.487z"/>
		</g>
	</g>
</g>
</svg>
