<?xml version="1.0" encoding="utf-8"?>
<!-- Generator: Adobe Illustrator 21.0.0, SVG Export Plug-In . SVG Version: 6.00 Build 0)  -->
<svg version="1.1" id="图层_1" xmlns="http://www.w3.org/2000/svg" xmlns:xlink="http://www.w3.org/1999/xlink" x="0px" y="0px"
	 viewBox="0 0 22 22" style="enable-background:new 0 0 22 22;" xml:space="preserve">
<style type="text/css">
	.st0{fill:#455A64;}
	.st1{fill:url(#SVGID_1_);}
	.st2{fill:#455A64;fill-opacity:0.39;}
	.st3{opacity:0.39;fill:#FFFFFF;enable-background:new    ;}
	.st4{opacity:0.8;fill:#FFFFFF;enable-background:new    ;}
</style>
<title>libreoffice-extension</title>
<path class="st0" d="M19,1v14l-6,6H3V1H19 M20,0H2v22h11l7-7V0z"/>
<linearGradient id="SVGID_1_" gradientUnits="userSpaceOnUse" x1="11" y1="-1486.99" x2="11" y2="-1506.99" gradientTransform="matrix(1 0 0 -1 0 -1485.99)">
	<stop  offset="0" style="stop-color:#90A4AE"/>
	<stop  offset="0.14" style="stop-color:#849AA5"/>
	<stop  offset="0.42" style="stop-color:#708A97"/>
	<stop  offset="0.71" style="stop-color:#64808E"/>
	<stop  offset="1" style="stop-color:#607D8B"/>
</linearGradient>
<polygon class="st1" points="3,21 3,1 19,1 19,15 13,21 "/>
<polygon class="st2" points="19,15 19,14 12,14 12,21 13,21 "/>
<path class="st3" d="M13,15h6l-6,6V15z"/>
<path class="st4" d="M15.1,7.8c0.3,0,0.7,0.1,0.9,0.4v-2h-3c0.2-0.2,0.4-0.6,0.4-0.9c0-0.7-0.6-1.3-1.3-1.3s-1.3,0.6-1.3,1.3l0,0
	c0,0.3,0.1,0.7,0.4,0.9h-3v2C8,7.9,7.6,7.8,7.3,7.8C6.6,7.8,6,8.4,6,9.1c0,0.7,0.6,1.3,1.3,1.3c0.3,0,0.6-0.1,0.8-0.4v2h3
	c-0.2-0.2-0.4-0.6-0.4-0.9c0-0.7,0.6-1.3,1.3-1.3s1.3,0.6,1.3,1.3l0,0c0,0.3-0.1,0.7-0.3,0.9h3v-2c-0.2,0.2-0.6,0.4-0.9,0.4
	c-0.7,0-1.3-0.6-1.3-1.3l0,0C13.8,8.4,14.4,7.8,15.1,7.8L15.1,7.8z"/>
</svg>
