<?xml version="1.0" encoding="utf-8"?>
<!-- Generator: Adobe Illustrator 21.0.0, SVG Export Plug-In . SVG Version: 6.00 Build 0)  -->
<svg version="1.1" id="图层_1" xmlns="http://www.w3.org/2000/svg" xmlns:xlink="http://www.w3.org/1999/xlink" x="0px" y="0px"
	 viewBox="0 0 22 22" style="enable-background:new 0 0 22 22;" xml:space="preserve">
<style type="text/css">
	.st0{fill:#B71C1C;}
	.st1{fill:url(#SVGID_1_);}
	.st2{fill:#B71C1C;fill-opacity:0.39;}
	.st3{fill:#FFFFFF;fill-opacity:0.39;}
	.st4{opacity:0.8;}
	.st5{fill:#FFFFFF;}
</style>
<title>text-x-gtkrc</title>
<path class="st0" d="M19,1v14l-6,6H3V1H19 M20,0H2v22h11l7-7V0z"/>
<linearGradient id="SVGID_1_" gradientUnits="userSpaceOnUse" x1="11" y1="-1486.99" x2="11" y2="-1506.99" gradientTransform="matrix(1 0 0 -1 0 -1485.99)">
	<stop  offset="0" style="stop-color:#F44336"/>
	<stop  offset="0.34" style="stop-color:#F04035"/>
	<stop  offset="0.7" style="stop-color:#E33932"/>
	<stop  offset="0.96" style="stop-color:#D83230"/>
	<stop  offset="1" style="stop-color:#D32F2F"/>
</linearGradient>
<polygon class="st1" points="3,21 3,1 19,1 19,15 13,21 "/>
<polygon class="st2" points="19,15 19,14 12,14 12,21 13,21 "/>
<path class="st3" d="M13,15h6l-6,6V15z"/>
<g class="st4">
	<path class="st5" d="M11.7,3.5v3.1H6.8c-0.2,0-0.4-0.2-0.4-0.4V3.9c0-0.2,0.2-0.4,0.4-0.4H11.7 M12.2,3H6.8C6.4,3,6,3.4,6,3.9v2.3
		C6,6.6,6.4,7,6.8,7h5.4C12.2,7,12.2,3,12.2,3z"/>
	<path class="st5" d="M14.5,6.4L15.4,5v1.1c0,0.1-0.1,0.2-0.2,0.2L14.5,6.4z M12.8,6.4v-1l0.6,1H12.8z M12.8,3.6L12.8,3.6h2.4h0.1
		H12.8z"/>
	<path class="st5" d="M15.2,3h-3v4h3C15.6,7,16,6.6,16,6.1l0,0V3.9C16,3.4,15.6,3,15.2,3L15.2,3z M14,6.1l-1.2-1.8h2.3L14,6.1z"/>
	<path class="st5" d="M13.8,9c1,0,1.8,0.8,1.8,1.8s-0.8,1.8-1.8,1.8s-1.7-0.8-1.8-1.7C12,9.8,12.8,9,13.8,9C13.7,9,13.8,9,13.8,9
		 M13.8,8.5c-1.2,0-2.2,1-2.2,2.2s1,2.2,2.2,2.2s2.2-1,2.2-2.2C16,9.6,15,8.6,13.8,8.5C13.8,8.6,13.8,8.6,13.8,8.5L13.8,8.5z"/>
	<path class="st5" d="M9.6,8.6H6.8C6.4,8.6,6,8.9,6,9.4v2.8C6,12.6,6.4,13,6.8,13h2.8c0.5,0,0.8-0.4,0.8-0.8V9.4
		C10.4,8.9,10.1,8.6,9.6,8.6z M8.1,12.2l-1.4-1.1l0.4-0.5l0.8,0.7l1.2-1.8l0.6,0.4L8.1,12.2z"/>
	<circle class="st5" cx="13.8" cy="10.8" r="1.1"/>
</g>
</svg>
