<?xml version="1.0" encoding="utf-8"?>
<!-- Generator: Adobe Illustrator 21.0.0, SVG Export Plug-In . SVG Version: 6.00 Build 0)  -->
<svg version="1.1" id="图层_1" xmlns="http://www.w3.org/2000/svg" xmlns:xlink="http://www.w3.org/1999/xlink" x="0px" y="0px"
	 viewBox="0 0 22 22" style="enable-background:new 0 0 22 22;" xml:space="preserve">
<style type="text/css">
	.st0{fill:#5F7B89;}
	.st1{fill:url(#SVGID_1_);}
	.st2{fill:#455963;fill-opacity:0.7;}
	.st3{fill:#8DA1AC;}
	.st4{fill:#607D8B;}
</style>
<title>text-tex</title>
<path class="st0" d="M19,1v14l-6,6H3V1H19 M20,0H2v22h11l7-7V0z"/>
<linearGradient id="SVGID_1_" gradientUnits="userSpaceOnUse" x1="11" y1="1303.01" x2="11" y2="1323.01" gradientTransform="matrix(1 0 0 1 0 -1302.01)">
	<stop  offset="0" style="stop-color:#F6F5F5"/>
	<stop  offset="0.34" style="stop-color:#F1F2F3"/>
	<stop  offset="0.64" style="stop-color:#E7EAEB"/>
	<stop  offset="0.93" style="stop-color:#D5DBDF"/>
	<stop  offset="1" style="stop-color:#CFD7DB"/>
</linearGradient>
<polygon class="st1" points="3,21 3,1 19,1 19,15 13,21 "/>
<polygon class="st2" points="19,15 19,14 12,14 12,21 13,21 "/>
<path class="st3" d="M13,15h6l-6,6V15z"/>
<g>
	<path class="st4" d="M8.9,6L8.7,6.9H7.3L6.4,11h-1l0.9-4.1H5L5.2,6H8.9z"/>
	<path class="st4" d="M8.4,11l1.1-5h3l-0.2,0.9h-2l-0.2,1h1.7l-0.2,0.9H9.9L9.6,10h2.1l-0.2,1H8.4z"/>
	<path class="st4" d="M15.1,11l-0.2-0.6L14.8,10l-0.1-0.4l-0.2-0.4L13.2,11H12l2.1-2.7l-1-2.3h1.1l0.5,1.5C15,7.3,15.2,7,15.4,6.7
		L15.9,6H17l-0.4,0.6l-0.4,0.6l-0.5,0.6l-0.5,0.6L15.5,9c0.1,0.2,0.2,0.4,0.2,0.6c0.1,0.2,0.1,0.4,0.2,0.6l0.2,0.7L15.1,11z"/>
</g>
</svg>
