<?xml version="1.0" encoding="utf-8"?>
<!-- Generator: Adobe Illustrator 16.0.0, SVG Export Plug-In . SVG Version: 6.00 Build 0)  -->
<!DOCTYPE svg PUBLIC "-//W3C//DTD SVG 1.1//EN" "http://www.w3.org/Graphics/SVG/1.1/DTD/svg11.dtd">
<svg version="1.1" id="图层_1" xmlns="http://www.w3.org/2000/svg" xmlns:xlink="http://www.w3.org/1999/xlink" x="0px" y="0px"
	 width="22px" height="22px" viewBox="0 0 22 22" enable-background="new 0 0 22 22" xml:space="preserve">
<g>
	
		<linearGradient id="SVGID_1_" gradientUnits="userSpaceOnUse" x1="219.002" y1="-1717.9512" x2="219.002" y2="-1695.9512" gradientTransform="matrix(1 0 0 -1 -208.0005 -1695.9512)">
		<stop  offset="0" style="stop-color:#512DA8"/>
		<stop  offset="0.008" style="stop-color:#D32F2F"/>
		<stop  offset="0.3041" style="stop-color:#E33932"/>
		<stop  offset="0.6579" style="stop-color:#F04035"/>
		<stop  offset="1" style="stop-color:#F44336"/>
	</linearGradient>
	<path fill="url(#SVGID_1_)" d="M13.063,22l6.188-6.188V0H2.75v22H13.063z"/>
	<polygon fill="#B71C1C" fill-opacity="0.3922" points="12.719,15.469 12.719,22 13.063,22 19.25,15.813 19.25,15.469 	"/>
	<path fill="#FFFFFF" fill-opacity="0.3922" d="M13.063,15.813h6.184L13.063,22V15.813z"/>
	<g opacity="0.8">
		<path fill="#FFFFFF" d="M11.599,6.109V8.56H7.567c-0.17,0-0.308-0.138-0.308-0.308V6.417c0-0.17,0.138-0.308,0.308-0.308H11.599
			 M11.979,5.729H7.567c-0.38,0-0.688,0.308-0.688,0.688v1.834c0,0.379,0.308,0.688,0.688,0.688h4.412V5.729L11.979,5.729z"/>
		<g>
			<path fill="#FFFFFF" d="M13.905,8.439l0.716-1.104v0.916c0,0.104-0.084,0.188-0.188,0.188H13.905z M12.479,8.439V7.614
				l0.534,0.825H12.479z M12.479,6.246V6.229h1.955c0.027,0,0.054,0.006,0.077,0.017H12.479z"/>
			<path fill="#FFFFFF" d="M14.434,5.729h-2.455v3.209h2.455c0.38,0,0.688-0.308,0.688-0.688V6.417
				C15.121,6.038,14.813,5.729,14.434,5.729L14.434,5.729z M13.459,8.208l-0.946-1.462h1.895L13.459,8.208L13.459,8.208z"/>
		</g>
		<path fill="#FFFFFF" d="M13.284,10.693c0.802,0,1.453,0.652,1.453,1.453c0,0.802-0.651,1.454-1.453,1.454
			s-1.454-0.652-1.454-1.454C11.83,11.346,12.482,10.693,13.284,10.693 M13.284,10.314c-1.012,0-1.833,0.821-1.833,1.833
			c0,1.013,0.821,1.833,1.833,1.833s1.833-0.82,1.833-1.833C15.117,11.135,14.296,10.314,13.284,10.314L13.284,10.314z"/>
		<g>
			<path fill="#FFFFFF" d="M9.857,10.314H7.567c-0.38,0-0.688,0.308-0.688,0.688v2.29c0,0.38,0.308,0.688,0.688,0.688h2.291
				c0.38,0,0.688-0.308,0.688-0.688v-2.29C10.545,10.622,10.237,10.314,9.857,10.314z M8.603,13.327l-1.142-0.939l0.361-0.439
				l0.66,0.543L9.492,11l0.471,0.319L8.603,13.327z"/>
		</g>
		<g>
			<circle fill="#FFFFFF" cx="13.284" cy="12.146" r="0.875"/>
		</g>
	</g>
	<g>
		<path fill="#B71C1C" d="M18.75,0.5v15.105L12.855,21.5H8.25h-5v-21H18.75 M19.25,0H2.75v22h5.5h4.813l6.188-6.188L19.25,0L19.25,0
			z"/>
	</g>
</g>
</svg>
