<?xml version="1.0" encoding="utf-8"?>
<!-- Generator: Adobe Illustrator 16.0.0, SVG Export Plug-In . SVG Version: 6.00 Build 0)  -->
<!DOCTYPE svg PUBLIC "-//W3C//DTD SVG 1.1//EN" "http://www.w3.org/Graphics/SVG/1.1/DTD/svg11.dtd">
<svg version="1.1" id="图层_1" xmlns="http://www.w3.org/2000/svg" xmlns:xlink="http://www.w3.org/1999/xlink" x="0px" y="0px"
	 width="22px" height="22px" viewBox="0 0 22 22" enable-background="new 0 0 22 22" xml:space="preserve">
<polygon fill="#607D8B" points="2.634,22 2.634,0 19.366,0 19.366,15.807 13.111,22 "/>
<g>
	<g>
		<g>
			<g>
				<g>
					<g>
						<g>
							<g>
								
									<linearGradient id="SVGID_1_" gradientUnits="userSpaceOnUse" x1="135.7988" y1="1244.2002" x2="135.7988" y2="1265.2012" gradientTransform="matrix(1 0 0 1 -124.7998 -1243.7012)">
									<stop  offset="0" style="stop-color:#F6F5F5"/>
									<stop  offset="0.341" style="stop-color:#F1F2F3"/>
									<stop  offset="0.6434" style="stop-color:#E7EAEB"/>
									<stop  offset="0.9302" style="stop-color:#D5DBDF"/>
									<stop  offset="1" style="stop-color:#CFD7DB"/>
								</linearGradient>
								<polygon fill="url(#SVGID_1_)" points="3.132,21.5 3.132,0.5 18.865,0.5 18.865,15.594 12.96,21.5 								"/>
							</g>
							<polygon fill="#455963" fill-opacity="0.7" points="18.865,15.594 18.865,15.34 12.636,15.34 12.636,21.5 12.96,21.5 							
								"/>
							<path fill="#8DA1AC" d="M12.951,15.594l5.916,0.01L12.96,21.5L12.951,15.594z"/>
						</g>
					</g>
				</g>
			</g>
		</g>
	</g>
	<g>
		<path fill="#607D8B" d="M15.326,8.881c0,0.717-0.117,1.36-0.353,1.931c-0.237,0.568-0.552,1.049-0.948,1.44
			c-0.396,0.393-0.856,0.692-1.381,0.898c-0.523,0.207-1.07,0.311-1.644,0.311c-0.574,0-1.122-0.104-1.645-0.311
			c-0.523-0.206-0.983-0.506-1.379-0.898c-0.396-0.392-0.712-0.872-0.949-1.44c-0.237-0.57-0.354-1.214-0.354-1.931
			c0-0.716,0.118-1.359,0.354-1.929C7.264,6.383,7.58,5.903,7.977,5.509c0.396-0.391,0.856-0.692,1.379-0.897
			c0.522-0.208,1.07-0.31,1.645-0.31c0.574,0,1.121,0.103,1.644,0.31c0.524,0.205,0.984,0.506,1.381,0.897
			c0.396,0.394,0.711,0.874,0.948,1.442C15.209,7.522,15.326,8.165,15.326,8.881z M14.402,8.881c0-0.557-0.082-1.063-0.252-1.523
			c-0.17-0.461-0.402-0.854-0.703-1.184c-0.297-0.328-0.656-0.583-1.074-0.759S11.499,5.148,11,5.148
			c-0.498,0-0.956,0.09-1.373,0.267C9.209,5.591,8.852,5.846,8.552,6.174c-0.3,0.33-0.533,0.723-0.702,1.184
			C7.681,7.817,7.598,8.324,7.598,8.881c0,0.558,0.083,1.065,0.253,1.524c0.168,0.461,0.402,0.854,0.702,1.184
			c0.299,0.328,0.657,0.581,1.076,0.759c0.417,0.177,0.875,0.266,1.373,0.266c0.498,0,0.955-0.089,1.373-0.266
			c0.418-0.178,0.777-0.431,1.074-0.759c0.301-0.329,0.533-0.723,0.703-1.184C14.32,9.946,14.402,9.438,14.402,8.881z"/>
		<g>
			<path fill="#607D8B" d="M11.553,11.571h-1.106V7.734h1.106V11.571z"/>
		</g>
		<circle fill="#607D8B" cx="11.001" cy="6.702" r="0.646"/>
	</g>
</g>
</svg>
