<?xml version="1.0" encoding="utf-8"?>
<!-- Generator: Adobe Illustrator 16.0.0, SVG Export Plug-In . SVG Version: 6.00 Build 0)  -->
<!DOCTYPE svg PUBLIC "-//W3C//DTD SVG 1.1//EN" "http://www.w3.org/Graphics/SVG/1.1/DTD/svg11.dtd">
<svg version="1.1" id="图层_1" xmlns="http://www.w3.org/2000/svg" xmlns:xlink="http://www.w3.org/1999/xlink" x="0px" y="0px"
	 width="22px" height="22px" viewBox="0 0 22 22" enable-background="new 0 0 22 22" xml:space="preserve">
<g>
	
		<linearGradient id="SVGID_1_" gradientUnits="userSpaceOnUse" x1="219.002" y1="-1717.9512" x2="219.002" y2="-1695.9512" gradientTransform="matrix(1 0 0 -1 -208.0005 -1695.9512)">
		<stop  offset="0" style="stop-color:#512DA8"/>
		<stop  offset="0.008" style="stop-color:#D32F2F"/>
		<stop  offset="0.3041" style="stop-color:#E33932"/>
		<stop  offset="0.6579" style="stop-color:#F04035"/>
		<stop  offset="1" style="stop-color:#F44336"/>
	</linearGradient>
	<path fill="url(#SVGID_1_)" d="M13.063,22l6.188-6.188V0H2.75v22H13.063z"/>
	<polygon fill="#B71C1C" fill-opacity="0.3922" points="12.719,15.469 12.719,22 13.063,22 19.25,15.813 19.25,15.469 	"/>
	<path fill="#FFFFFF" fill-opacity="0.3922" d="M13.063,15.813h6.184L13.063,22V15.813z"/>
	<path opacity="0.8" fill="#FFFFFF" d="M7.563,5.617L6.188,6.992v2.291L11,13.867l4.813-4.584V6.992l-1.375-1.375H7.563z
		 M8.938,6.304v2.75L11,13.18L8.25,9.054V6.992L8.938,6.304z"/>
	<g>
		<path fill="#B71C1C" d="M18.75,0.5v15.105L12.855,21.5H8.25h-5v-21H18.75 M19.25,0H2.75v22h5.5h4.813l6.188-6.188L19.25,0L19.25,0
			z"/>
	</g>
</g>
</svg>
