<?xml version="1.0" encoding="utf-8"?>
<!-- Generator: Adobe Illustrator 21.0.0, SVG Export Plug-In . SVG Version: 6.00 Build 0)  -->
<svg version="1.1" id="图层_1" xmlns="http://www.w3.org/2000/svg" xmlns:xlink="http://www.w3.org/1999/xlink" x="0px" y="0px"
	 viewBox="0 0 22 22" style="enable-background:new 0 0 22 22;" xml:space="preserve">
<style type="text/css">
	.st0{fill:#311B92;}
	.st1{fill:url(#SVGID_1_);}
	.st2{fill:#311B92;fill-opacity:0.39;}
	.st3{fill:#FFFFFF;fill-opacity:0.39;}
	.st4{opacity:0.8;}
	.st5{fill:#FFFFFF;}
</style>
<title>text-x-python</title>
<path class="st0" d="M19,1v14l-6,6H3V1H19 M20,0H2v22h11l7-7V0z"/>
<linearGradient id="SVGID_1_" gradientUnits="userSpaceOnUse" x1="11" y1="-1486.99" x2="11" y2="-1506.99" gradientTransform="matrix(1 0 0 -1 0 -1485.99)">
	<stop  offset="0" style="stop-color:#7986CB"/>
	<stop  offset="0.2" style="stop-color:#6473C3"/>
	<stop  offset="0.47" style="stop-color:#5060BB"/>
	<stop  offset="0.74" style="stop-color:#4355B7"/>
	<stop  offset="1" style="stop-color:#3F51B5"/>
</linearGradient>
<polygon class="st1" points="3,21 3,1 19,1 19,15 13,21 "/>
<polygon class="st2" points="19,15 19,14 12,14 12,21 13,21 "/>
<path class="st3" d="M13,15h6l-6,6V15z"/>
<g class="st4">
	<path class="st5" d="M11.1,3c-0.4,0-0.8,0-1.2,0.1C8.9,3.3,8.6,3.3,8.6,4v1.6h2.6v0.5H7.6c-0.7,0-1.3,0.5-1.4,1.3
		C6,8.2,6,9.1,6.2,9.9c0.2,0.7,0.7,1.5,1.4,1.5h0.5V9.8c0-0.9,0.7-1.5,1.6-1.6h2.6c0.5,0.1,1-0.3,1.1-0.8c0-0.1,0-0.1,0-0.2V4.6
		c0-0.7-0.3-1.4-1-1.5C12,3,11.5,3,11.1,3z M10.2,4c0.3,0,0.5,0.2,0.5,0.5S10.5,5,10.2,5S9.7,4.8,9.7,4.5S9.9,4,10.2,4z"/>
	<path class="st5" d="M10.9,14c0.4,0,0.8,0,1.2-0.1c1.1-0.2,1.3-0.2,1.3-0.9v-1.6h-2.6v-0.5h3.7c0.7,0,1.3-0.5,1.4-1.3
		c0.2-0.8,0.2-1.7,0-2.5c-0.2-0.7-0.7-1.5-1.4-1.5H14v1.6c0,0.9-0.7,1.5-1.6,1.6H9.7C9.2,8.7,8.7,9,8.6,9.6c0,0.1,0,0.2,0,0.2v2.6
		c0,0.7,0.3,1.4,1,1.5C10,14,10.5,14,10.9,14z M11.8,13c-0.3,0-0.5-0.2-0.5-0.5s0.2-0.5,0.5-0.5s0.5,0.2,0.5,0.5S12.1,13,11.8,13
		L11.8,13L11.8,13z"/>
</g>
</svg>
