<?xml version="1.0" encoding="utf-8"?>
<!-- Generator: Adobe Illustrator 16.0.0, SVG Export Plug-In . SVG Version: 6.00 Build 0)  -->
<!DOCTYPE svg PUBLIC "-//W3C//DTD SVG 1.1//EN" "http://www.w3.org/Graphics/SVG/1.1/DTD/svg11.dtd">
<svg version="1.1" id="图层_1" xmlns="http://www.w3.org/2000/svg" xmlns:xlink="http://www.w3.org/1999/xlink" x="0px" y="0px"
	 width="22px" height="22px" viewBox="0 0 22 22" enable-background="new 0 0 22 22" xml:space="preserve">
<polygon fill="#607D8B" points="2.634,22 2.634,0 19.366,0 19.366,15.806 13.112,22 "/>
<g>
	<g>
		
			<linearGradient id="SVGID_1_" gradientUnits="userSpaceOnUse" x1="52.6006" y1="419.3994" x2="52.6006" y2="440.4004" gradientTransform="matrix(1 0 0 1 -41.6001 -418.9004)">
			<stop  offset="0" style="stop-color:#F5F5F5"/>
			<stop  offset="0.341" style="stop-color:#F1F2F3"/>
			<stop  offset="0.6434" style="stop-color:#E7EAEC"/>
			<stop  offset="0.9302" style="stop-color:#D5DCE0"/>
			<stop  offset="1" style="stop-color:#CFD8DC"/>
		</linearGradient>
		<polygon fill="url(#SVGID_1_)" points="3.134,21.5 3.134,0.5 18.866,0.5 18.866,15.594 12.96,21.5 		"/>
	</g>
	<g>
		<rect x="5.164" y="3.51" opacity="0.8" fill="#607D8B" enable-background="new    " width="2.17" height="1.243"/>
		<rect x="7.964" y="3.51" opacity="0.8" fill="#607D8B" enable-background="new    " width="8.864" height="1.243"/>
		<rect x="5.164" y="6.853" opacity="0.8" fill="#607D8B" enable-background="new    " width="2.17" height="0.577"/>
		<rect x="7.964" y="6.853" opacity="0.8" fill="#607D8B" enable-background="new    " width="8.864" height="0.577"/>
		<rect x="7.964" y="8.673" opacity="0.8" fill="#607D8B" enable-background="new    " width="8.864" height="0.577"/>
		<rect x="5.164" y="8.673" opacity="0.8" fill="#607D8B" enable-background="new    " width="2.17" height="0.577"/>
		<rect x="7.964" y="10.492" opacity="0.8" fill="#607D8B" enable-background="new    " width="8.864" height="0.578"/>
		<rect x="5.164" y="10.492" opacity="0.8" fill="#607D8B" enable-background="new    " width="2.17" height="0.578"/>
		<rect x="7.964" y="12.304" opacity="0.8" fill="#607D8B" enable-background="new    " width="8.864" height="0.577"/>
		<rect x="5.164" y="12.304" opacity="0.8" fill="#607D8B" enable-background="new    " width="2.17" height="0.577"/>
		<rect x="5.164" y="14.124" opacity="0.8" fill="#607D8B" enable-background="new    " width="2.17" height="0.577"/>
		<rect x="7.964" y="14.124" opacity="0.8" fill="#607D8B" enable-background="new    " width="4.41" height="0.577"/>
	</g>
	<polygon fill="#455A64" fill-opacity="0.7" points="18.866,15.594 18.866,15.34 12.637,15.34 12.637,21.5 12.96,21.5 	"/>
	<path fill="#90A4AE" d="M12.951,15.594l5.915,0.009L12.96,21.5L12.951,15.594z"/>
</g>
</svg>
