<?xml version="1.0" encoding="utf-8"?>
<!-- Generator: Adobe Illustrator 21.0.0, SVG Export Plug-In . SVG Version: 6.00 Build 0)  -->
<svg version="1.1" id="图层_1" xmlns="http://www.w3.org/2000/svg" xmlns:xlink="http://www.w3.org/1999/xlink" x="0px" y="0px"
	 viewBox="0 0 22 22" style="enable-background:new 0 0 22 22;" xml:space="preserve">
<style type="text/css">
	.st0{fill:#5F7B89;}
	.st1{fill:url(#SVGID_1_);}
	.st2{fill:#455963;fill-opacity:0.7;}
	.st3{fill:#8DA1AC;}
	.st4{fill:#607D8B;}
</style>
<title>text-x-vcard</title>
<path class="st0" d="M19,1v14l-6,6H3V1H19 M20,0H2v22h11l7-7V0z"/>
<linearGradient id="SVGID_1_" gradientUnits="userSpaceOnUse" x1="11" y1="1303.01" x2="11" y2="1323.01" gradientTransform="matrix(1 0 0 1 0 -1302.01)">
	<stop  offset="0" style="stop-color:#F6F5F5"/>
	<stop  offset="0.34" style="stop-color:#F1F2F3"/>
	<stop  offset="0.64" style="stop-color:#E7EAEB"/>
	<stop  offset="0.93" style="stop-color:#D5DBDF"/>
	<stop  offset="1" style="stop-color:#CFD7DB"/>
</linearGradient>
<polygon class="st1" points="3,21 3,1 19,1 19,15 13,21 "/>
<polygon class="st2" points="19,15 19,14 12,14 12,21 13,21 "/>
<path class="st3" d="M13,15h6l-6,6V15z"/>
<g>
	<path class="st4" d="M12.9,11c-0.2,0-0.4,0-0.6-0.1c-0.1-0.1-0.3-0.1-0.4-0.3c-0.2,0.1-0.4,0.2-0.6,0.2c-0.2,0.1-0.5,0.1-0.7,0.1
		c-0.3,0-0.7,0-1-0.2c-0.6-0.2-1-0.6-1.3-1.2c-0.1-0.3-0.2-0.7-0.2-1s0.1-0.6,0.2-0.9C8.4,7.3,8.6,7,8.8,6.8C9,6.6,9.3,6.4,9.6,6.3
		s0.7-0.2,1.1-0.2c0.3,0,0.7,0,1,0.1c0.2,0,0.5,0.1,0.7,0.2v3.2c0,0.2,0,0.3,0.1,0.5c0.1,0.1,0.2,0.1,0.3,0.1c0.2,0,0.4-0.1,0.5-0.2
		c0.2-0.1,0.3-0.3,0.4-0.5c0.1-0.2,0.2-0.4,0.2-0.7C14,8.6,14,8.3,14.1,8c0-0.4-0.1-0.8-0.2-1.2c-0.2-0.4-0.4-0.7-0.7-1
		C12.8,5.4,12.4,5.2,12,5c-0.5-0.2-0.9-0.3-1.4-0.3S9.6,4.8,9.2,5c-1,0.3-1.7,1-2,1.9C7,7.4,6.9,8,6.9,8.5c0,0.6,0.1,1.1,0.3,1.6
		c0.2,0.4,0.4,0.8,0.8,1.2c0.3,0.3,0.8,0.6,1.2,0.7c0.5,0.2,1,0.2,1.5,0.2c0.4,0,0.7,0,1.1-0.1c0.2,0,0.4-0.1,0.5-0.1l0.1,0.8
		c-0.2,0.1-0.4,0.1-0.7,0.1S11,13,10.7,13c-0.6,0-1.2-0.1-1.8-0.3s-1.1-0.4-1.5-0.8c-0.4-0.4-0.8-0.9-1-1.4C6.2,9.9,6,9.2,6,8.5
		s0.1-1.4,0.4-2c0.2-0.5,0.6-1,1-1.4s0.9-0.7,1.5-0.8C9.4,4.1,10,4,10.6,4s1.2,0.1,1.7,0.3c0.5,0.2,1,0.4,1.4,0.8
		c0.4,0.3,0.8,0.8,1,1.3S15,7.4,15,8c0,0.4-0.1,0.8-0.2,1.3c-0.1,0.3-0.3,0.6-0.5,0.9c-0.2,0.2-0.4,0.4-0.7,0.6
		C13.4,10.9,13.2,11,12.9,11z M10.7,10.1c0.2,0,0.3,0,0.5,0c0.1,0,0.3-0.1,0.4-0.1c0-0.1,0-0.2,0-0.3s0-0.2,0-0.3V6.9h-0.3h-0.4
		C10.5,6.9,10,7,9.7,7.4C9.5,7.7,9.3,8.1,9.3,8.5s0.1,0.8,0.4,1.2C10,10,10.3,10.1,10.7,10.1L10.7,10.1z"/>
</g>
</svg>
