<?xml version="1.0" encoding="utf-8"?>
<!-- Generator: Adobe Illustrator 16.0.0, SVG Export Plug-In . SVG Version: 6.00 Build 0)  -->
<!DOCTYPE svg PUBLIC "-//W3C//DTD SVG 1.1//EN" "http://www.w3.org/Graphics/SVG/1.1/DTD/svg11.dtd">
<svg version="1.1" id="图层_1" xmlns="http://www.w3.org/2000/svg" xmlns:xlink="http://www.w3.org/1999/xlink" x="0px" y="0px"
	 width="22px" height="22px" viewBox="0 0 22 22" enable-background="new 0 0 22 22" xml:space="preserve">
<polygon fill="#AE2124" points="2.635,22 2.635,0 19.365,0 19.365,15.807 13.113,22 "/>
<g>
	<g>
		<g>
			
				<linearGradient id="SVGID_1_" gradientUnits="userSpaceOnUse" x1="94.2002" y1="-582.3003" x2="94.2002" y2="-561.3008" gradientTransform="matrix(1 0 0 -1 -83.1997 -560.8008)">
				<stop  offset="0" style="stop-color:#C7312F"/>
				<stop  offset="0.1635" style="stop-color:#D9412C"/>
				<stop  offset="0.3476" style="stop-color:#E74E29"/>
				<stop  offset="0.5725" style="stop-color:#EA552A"/>
				<stop  offset="0.9516" style="stop-color:#EA582B"/>
			</linearGradient>
			<polygon fill="url(#SVGID_1_)" points="3.133,21.5 3.133,0.5 18.867,0.5 18.867,15.594 12.961,21.5 			"/>
		</g>
		<polygon fill="#AE2124" fill-opacity="0.3922" points="18.867,15.594 18.867,15.34 12.637,15.34 12.637,21.5 12.961,21.5 		"/>
		<path fill="#FFFFFF" fill-opacity="0.3922" d="M12.951,15.594l5.916,0.01L12.961,21.5L12.951,15.594z"/>
	</g>
	<g opacity="0.8" enable-background="new    ">
		<g>
			<path fill="#FFFFFF" d="M12.979,6.495c0.025,0.009,0.062,0.009,0.087,0.017C13.038,6.504,13.004,6.495,12.979,6.495z"/>
			<path fill="#FFFFFF" d="M12.758,6.46c0.036,0,0.062,0.009,0.098,0.009C12.819,6.469,12.794,6.469,12.758,6.46z"/>
			<path fill="#FFFFFF" d="M13.188,6.529c0.026,0.009,0.054,0.009,0.081,0.018C13.241,6.538,13.214,6.529,13.188,6.529z"/>
			<path fill="#FFFFFF" d="M13.396,6.563c0.026,0.01,0.054,0.01,0.07,0.019C13.441,6.573,13.424,6.563,13.396,6.563z"/>
			<path fill="#FFFFFF" d="M12.531,6.433c0.035,0,0.069,0.009,0.105,0.009C12.601,6.442,12.566,6.433,12.531,6.433z"/>
			<path fill="#FFFFFF" d="M13.792,6.652c0.017,0.009,0.034,0.009,0.062,0.018C13.826,6.661,13.809,6.652,13.792,6.652z"/>
			<path fill="#FFFFFF" d="M13.599,6.608c0.019,0.009,0.044,0.009,0.062,0.018C13.643,6.617,13.617,6.608,13.599,6.608z"/>
			<path fill="#FFFFFF" d="M6.311,7.604L6.311,7.604L6.311,7.604z"/>
			<path fill="#FFFFFF" d="M11.324,6.354c0.052,0,0.113,0,0.167,0C11.438,6.354,11.376,6.354,11.324,6.354z"/>
			<path fill="#FFFFFF" d="M13.977,6.696c0.018,0.009,0.035,0.009,0.051,0.018C14.012,6.705,13.993,6.705,13.977,6.696z"/>
			<path fill="#FFFFFF" d="M12.305,6.407c0.033,0,0.069,0.009,0.105,0.009C12.383,6.416,12.348,6.416,12.305,6.407z"/>
			<path fill="#FFFFFF" d="M10.512,6.354c0.051,0,0.104,0,0.166,0C10.624,6.354,10.563,6.354,10.512,6.354z"/>
			<path fill="#FFFFFF" d="M11.831,6.372c0.044,0,0.088,0.009,0.132,0.009C11.919,6.381,11.875,6.372,11.831,6.372z"/>
			<path fill="#FFFFFF" d="M12.076,6.389c0.043,0,0.078,0.009,0.123,0.009C12.154,6.397,12.111,6.389,12.076,6.389z"/>
			<path fill="#FFFFFF" d="M15.061,7.106c0,0,0.01,0,0.01,0.009C15.068,7.106,15.061,7.106,15.061,7.106z"/>
			<path fill="#FFFFFF" d="M15.48,7.387L15.48,7.387L15.48,7.387z"/>
			<path fill="#FFFFFF" d="M15.184,7.168C15.184,7.168,15.184,7.177,15.184,7.168C15.184,7.177,15.184,7.168,15.184,7.168z"/>
			<path fill="#FFFFFF" d="M15.287,7.238C15.297,7.238,15.297,7.238,15.287,7.238C15.297,7.238,15.297,7.238,15.287,7.238z"/>
			<path fill="#FFFFFF" d="M14.159,6.748c0.019,0,0.026,0.009,0.044,0.009C14.186,6.757,14.168,6.748,14.159,6.748z"/>
			<path fill="#FFFFFF" d="M15.559,7.457L15.559,7.457L15.559,7.457z"/>
			<path fill="#FFFFFF" d="M11,6.346c-0.078,0-0.166,0-0.245,0C10.834,6.346,10.922,6.346,11,6.346z"/>
			<path fill="#FFFFFF" d="M15.393,7.308L15.393,7.308L15.393,7.308z"/>
			<path fill="#FFFFFF" d="M14.649,6.915c0.008,0,0.018,0.009,0.024,0.009C14.667,6.924,14.657,6.915,14.649,6.915z"/>
			<path fill="#FFFFFF" d="M11,6.346c0.079,0,0.167,0,0.245,0C11.167,6.346,11.079,6.346,11,6.346z"/>
			<path fill="#FFFFFF" d="M14.325,6.801c0.01,0,0.025,0.009,0.034,0.009C14.351,6.809,14.343,6.801,14.325,6.801z"/>
			<path fill="#FFFFFF" d="M14.492,6.853c0.008,0,0.016,0.01,0.025,0.01C14.508,6.862,14.5,6.862,14.492,6.853z"/>
			<path fill="#FFFFFF" d="M14.798,6.975c0.009,0,0.018,0.009,0.018,0.009C14.807,6.984,14.798,6.975,14.798,6.975z"/>
			<path fill="#FFFFFF" d="M14.93,7.037c0.008,0,0.008,0.009,0.018,0.009C14.945,7.046,14.938,7.037,14.93,7.037z"/>
			<path fill="#FFFFFF" d="M11.586,6.363c0.045,0,0.098,0,0.141,0.008C11.684,6.363,11.631,6.363,11.586,6.363z"/>
			<path fill="#FFFFFF" d="M6.931,7.106c0.01,0,0.01-0.008,0.019-0.008C6.939,7.106,6.931,7.106,6.931,7.106z"/>
			<path fill="#FFFFFF" d="M6.808,7.177c0,0,0.01,0,0.01-0.009C6.816,7.168,6.816,7.177,6.808,7.177z"/>
			<path fill="#FFFFFF" d="M6.704,7.247C6.704,7.238,6.712,7.238,6.704,7.247C6.712,7.238,6.704,7.238,6.704,7.247z"/>
			<path fill="#FFFFFF" d="M7.054,7.046c0.008,0,0.008-0.009,0.018-0.009C7.063,7.037,7.054,7.046,7.054,7.046z"/>
			<path fill="#FFFFFF" d="M7.325,6.924c0.008,0,0.018-0.009,0.026-0.009C7.343,6.915,7.333,6.924,7.325,6.924z"/>
			<path fill="#FFFFFF" d="M7.186,6.984c0.01,0,0.018-0.009,0.026-0.009C7.203,6.975,7.194,6.984,7.186,6.984z"/>
			<path fill="#FFFFFF" d="M10.274,6.363c0.042,0,0.096,0,0.14-0.01C10.37,6.363,10.316,6.363,10.274,6.363z"/>
			<path fill="#FFFFFF" d="M11,9.608c-2.661,0-4.814-0.726-4.814-1.627v1.471c0,0.9,2.152,1.627,4.814,1.627
				c2.66,0,4.813-0.727,4.813-1.627l0,0V7.981C15.813,8.875,13.66,9.608,11,9.608z"/>
			<path fill="#FFFFFF" d="M6.188,7.93v0.053C6.188,7.965,6.188,7.947,6.188,7.93L6.188,7.93z"/>
			<path fill="#FFFFFF" d="M7.474,6.871c0.008,0,0.026-0.008,0.034-0.008C7.5,6.862,7.49,6.862,7.474,6.871z"/>
			<path fill="#FFFFFF" d="M6.521,7.387L6.521,7.387L6.521,7.387z"/>
			<path fill="#FFFFFF" d="M15.813,7.93c0,0.018,0,0.035,0,0.053V7.93L15.813,7.93z"/>
			<path fill="#FFFFFF" d="M6.371,7.536L6.371,7.536L6.371,7.536z"/>
			<path fill="#FFFFFF" d="M6.44,7.457L6.44,7.457L6.44,7.457z"/>
			<path fill="#FFFFFF" d="M6.607,7.317C6.607,7.308,6.607,7.308,6.607,7.317C6.607,7.308,6.607,7.308,6.607,7.317z"/>
			<path fill="#FFFFFF" d="M9.363,6.442c0.036,0,0.07-0.009,0.104-0.009C9.433,6.433,9.399,6.442,9.363,6.442z"/>
			<path fill="#FFFFFF" d="M9.146,6.477c0.034-0.009,0.06-0.009,0.096-0.009C9.206,6.469,9.18,6.469,9.146,6.477z"/>
			<path fill="#FFFFFF" d="M9.582,6.416c0.036,0,0.07-0.009,0.114-0.009C9.652,6.416,9.618,6.416,9.582,6.416z"/>
			<path fill="#FFFFFF" d="M7.631,6.809c0.009,0,0.026-0.009,0.034-0.009C7.657,6.801,7.649,6.809,7.631,6.809z"/>
			<path fill="#FFFFFF" d="M10.038,6.381c0.043,0,0.087-0.009,0.131-0.009C10.125,6.372,10.081,6.381,10.038,6.381z"/>
			<path fill="#FFFFFF" d="M8.936,6.504c0.026-0.009,0.062-0.009,0.087-0.018C8.996,6.495,8.961,6.504,8.936,6.504z"/>
			<path fill="#FFFFFF" d="M9.811,6.397c0.044,0,0.078-0.009,0.122-0.009C9.889,6.389,9.845,6.397,9.811,6.397z"/>
			<path fill="#FFFFFF" d="M7.973,6.714c0.016-0.009,0.034-0.009,0.052-0.018C8.007,6.705,7.989,6.705,7.973,6.714z"/>
			<path fill="#FFFFFF" d="M7.798,6.757c0.018-0.009,0.026-0.009,0.044-0.018C7.832,6.748,7.814,6.757,7.798,6.757z"/>
			<path fill="#FFFFFF" d="M8.146,6.661C8.165,6.652,8.19,6.652,8.208,6.643C8.19,6.652,8.174,6.661,8.146,6.661z"/>
			<path fill="#FFFFFF" d="M8.339,6.617c0.026-0.009,0.044-0.009,0.07-0.018C8.383,6.608,8.357,6.617,8.339,6.617z"/>
			<path fill="#FFFFFF" d="M8.532,6.582C8.558,6.573,8.584,6.573,8.61,6.563C8.576,6.563,8.558,6.573,8.532,6.582z"/>
			<path fill="#FFFFFF" d="M8.733,6.538C8.759,6.529,8.785,6.529,8.813,6.52C8.785,6.529,8.759,6.538,8.733,6.538z"/>
		</g>
		<g>
			<path fill="#FFFFFF" d="M12.979,8.201c0.025,0.01,0.062,0.01,0.087,0.019C13.038,8.21,13.004,8.21,12.979,8.201z"/>
			<path fill="#FFFFFF" d="M12.758,8.175c0.036,0,0.062,0.009,0.098,0.009C12.819,8.175,12.794,8.175,12.758,8.175z"/>
			<path fill="#FFFFFF" d="M13.188,8.236c0.026,0.008,0.054,0.008,0.081,0.018C13.241,8.245,13.214,8.245,13.188,8.236z"/>
			<path fill="#FFFFFF" d="M13.396,8.27c0.026,0.009,0.054,0.009,0.07,0.018C13.441,8.279,13.424,8.279,13.396,8.27z"/>
			<path fill="#FFFFFF" d="M12.531,8.139c0.035,0,0.069,0.009,0.105,0.009C12.601,8.147,12.566,8.147,12.531,8.139z"/>
			<path fill="#FFFFFF" d="M13.792,8.358c0.017,0.009,0.034,0.009,0.062,0.018C13.826,8.367,13.809,8.367,13.792,8.358z"/>
			<path fill="#FFFFFF" d="M13.599,8.313c0.019,0.01,0.044,0.01,0.062,0.019C13.643,8.323,13.617,8.323,13.599,8.313z"/>
			<path fill="#FFFFFF" d="M6.311,9.321L6.311,9.321L6.311,9.321z"/>
			<path fill="#FFFFFF" d="M11.324,8.06c0.052,0,0.113,0,0.167,0C11.438,8.06,11.376,8.06,11.324,8.06z"/>
			<path fill="#FFFFFF" d="M13.977,8.411c0.018,0.009,0.035,0.009,0.051,0.019C14.012,8.42,13.993,8.411,13.977,8.411z"/>
			<path fill="#FFFFFF" d="M12.305,8.122c0.033,0,0.069,0.009,0.105,0.009C12.383,8.122,12.348,8.122,12.305,8.122z"/>
			<path fill="#FFFFFF" d="M10.512,8.069c0.051,0,0.104,0,0.166,0C10.624,8.06,10.563,8.06,10.512,8.069z"/>
			<path fill="#FFFFFF" d="M11.831,8.078c0.044,0,0.088,0.01,0.132,0.01C11.919,8.087,11.875,8.087,11.831,8.078z"/>
			<path fill="#FFFFFF" d="M12.076,8.096c0.043,0,0.078,0.008,0.123,0.008C12.154,8.104,12.111,8.104,12.076,8.096z"/>
			<path fill="#FFFFFF" d="M15.061,8.813c0,0,0.01,0,0.01,0.01C15.068,8.813,15.061,8.813,15.061,8.813z"/>
			<path fill="#FFFFFF" d="M15.48,9.094L15.48,9.094L15.48,9.094z"/>
			<path fill="#FFFFFF" d="M15.184,8.884L15.184,8.884L15.184,8.884z"/>
			<path fill="#FFFFFF" d="M15.287,8.952C15.297,8.952,15.297,8.952,15.287,8.952C15.297,8.952,15.297,8.952,15.287,8.952z"/>
			<path fill="#FFFFFF" d="M14.159,8.455c0.019,0,0.026,0.009,0.044,0.009C14.186,8.464,14.168,8.464,14.159,8.455z"/>
			<path fill="#FFFFFF" d="M15.559,9.163L15.559,9.163L15.559,9.163z"/>
			<path fill="#FFFFFF" d="M11,8.06c-0.078,0-0.166,0-0.245,0C10.834,8.06,10.922,8.06,11,8.06z"/>
			<path fill="#FFFFFF" d="M15.393,9.023L15.393,9.023L15.393,9.023z"/>
			<path fill="#FFFFFF" d="M14.649,8.621c0.008,0,0.018,0.009,0.024,0.009C14.667,8.63,14.657,8.63,14.649,8.621z"/>
			<path fill="#FFFFFF" d="M11,8.06c0.079,0,0.167,0,0.245,0C11.167,8.06,11.079,8.06,11,8.06z"/>
			<path fill="#FFFFFF" d="M14.325,8.507c0.01,0,0.025,0.009,0.034,0.009C14.351,8.515,14.343,8.515,14.325,8.507z"/>
			<path fill="#FFFFFF" d="M14.492,8.568c0.008,0,0.016,0.009,0.025,0.009C14.508,8.577,14.5,8.568,14.492,8.568z"/>
			<path fill="#FFFFFF" d="M14.798,8.682c0.009,0,0.018,0.009,0.018,0.009C14.807,8.691,14.798,8.691,14.798,8.682z"/>
			<path fill="#FFFFFF" d="M14.93,8.752c0.008,0,0.008,0.008,0.018,0.008C14.945,8.752,14.938,8.752,14.93,8.752z"/>
			<path fill="#FFFFFF" d="M11.586,8.069c0.045,0,0.098,0,0.141,0.009C11.684,8.069,11.631,8.069,11.586,8.069z"/>
			<path fill="#FFFFFF" d="M6.931,8.822c0.01,0,0.01-0.01,0.019-0.01C6.939,8.813,6.931,8.813,6.931,8.822z"/>
			<path fill="#FFFFFF" d="M6.808,8.884c0,0,0.01,0,0.01-0.009C6.816,8.884,6.816,8.884,6.808,8.884z"/>
			<path fill="#FFFFFF" d="M6.704,8.952C6.704,8.952,6.712,8.952,6.704,8.952C6.712,8.952,6.704,8.952,6.704,8.952z"/>
			<path fill="#FFFFFF" d="M7.054,8.752c0.008,0,0.008-0.01,0.018-0.01C7.063,8.752,7.054,8.752,7.054,8.752z"/>
			<path fill="#FFFFFF" d="M7.325,8.638c0.008,0,0.018-0.008,0.026-0.008C7.343,8.63,7.333,8.63,7.325,8.638z"/>
			<path fill="#FFFFFF" d="M7.186,8.691c0.01,0,0.018-0.009,0.026-0.009C7.203,8.691,7.194,8.691,7.186,8.691z"/>
			<path fill="#FFFFFF" d="M10.274,8.078c0.042,0,0.096,0,0.14-0.009C10.37,8.069,10.316,8.069,10.274,8.078z"/>
			<path fill="#FFFFFF" d="M11,11.316c-2.661,0-4.814-0.726-4.814-1.628v1.471c0,0.9,2.152,1.626,4.814,1.626
				c2.66,0,4.813-0.727,4.813-1.626l0,0V9.688C15.813,10.59,13.66,11.316,11,11.316z"/>
			<path fill="#FFFFFF" d="M6.188,9.636v0.053C6.188,9.671,6.188,9.652,6.188,9.636L6.188,9.636z"/>
			<path fill="#FFFFFF" d="M7.474,8.577c0.008,0,0.026-0.009,0.034-0.009C7.5,8.568,7.49,8.577,7.474,8.577z"/>
			<path fill="#FFFFFF" d="M6.521,9.094L6.521,9.094L6.521,9.094z"/>
			<path fill="#FFFFFF" d="M15.813,9.636c0,0.019,0,0.035,0,0.053V9.636L15.813,9.636z"/>
			<path fill="#FFFFFF" d="M6.371,9.242L6.371,9.242L6.371,9.242z"/>
			<path fill="#FFFFFF" d="M6.44,9.172C6.44,9.163,6.44,9.163,6.44,9.172C6.44,9.163,6.44,9.163,6.44,9.172z"/>
			<path fill="#FFFFFF" d="M6.607,9.023L6.607,9.023L6.607,9.023z"/>
			<path fill="#FFFFFF" d="M9.363,8.157c0.036,0,0.07-0.009,0.104-0.009C9.433,8.147,9.399,8.147,9.363,8.157z"/>
			<path fill="#FFFFFF" d="M9.146,8.183c0.034-0.009,0.06-0.009,0.096-0.009C9.206,8.175,9.18,8.175,9.146,8.183z"/>
			<path fill="#FFFFFF" d="M9.582,8.131c0.036,0,0.07-0.009,0.114-0.009C9.652,8.122,9.618,8.122,9.582,8.131z"/>
			<path fill="#FFFFFF" d="M7.631,8.523c0.009,0,0.026-0.009,0.034-0.009C7.657,8.515,7.649,8.515,7.631,8.523z"/>
			<path fill="#FFFFFF" d="M10.038,8.087c0.043,0,0.087-0.01,0.131-0.01C10.125,8.087,10.081,8.087,10.038,8.087z"/>
			<path fill="#FFFFFF" d="M8.936,8.219C8.961,8.21,8.997,8.21,9.023,8.201C8.996,8.21,8.961,8.21,8.936,8.219z"/>
			<path fill="#FFFFFF" d="M9.811,8.104c0.034,0,0.078-0.009,0.122-0.009C9.889,8.104,9.845,8.104,9.811,8.104z"/>
			<path fill="#FFFFFF" d="M7.973,8.42c0.016-0.009,0.034-0.009,0.052-0.018C8.007,8.411,7.989,8.42,7.973,8.42z"/>
			<path fill="#FFFFFF" d="M7.798,8.472c0.018-0.009,0.026-0.009,0.044-0.019C7.832,8.464,7.814,8.464,7.798,8.472z"/>
			<path fill="#FFFFFF" d="M8.146,8.375C8.165,8.367,8.19,8.367,8.208,8.358C8.19,8.367,8.174,8.367,8.146,8.375z"/>
			<path fill="#FFFFFF" d="M8.339,8.332c0.026-0.009,0.044-0.009,0.07-0.019C8.383,8.323,8.357,8.323,8.339,8.332z"/>
			<path fill="#FFFFFF" d="M8.532,8.288C8.558,8.279,8.584,8.279,8.61,8.27C8.576,8.279,8.558,8.279,8.532,8.288z"/>
			<path fill="#FFFFFF" d="M8.733,8.254c0.026-0.009,0.052-0.009,0.079-0.018C8.785,8.245,8.759,8.245,8.733,8.254z"/>
		</g>
		<g>
			<path fill="#FFFFFF" d="M12.979,9.906c0.025,0.01,0.062,0.01,0.087,0.019C13.038,9.916,13.004,9.916,12.979,9.906z"/>
			<path fill="#FFFFFF" d="M12.758,9.882c0.036,0,0.062,0.008,0.098,0.008C12.819,9.889,12.794,9.882,12.758,9.882z"/>
			<path fill="#FFFFFF" d="M13.188,9.942c0.026,0.008,0.054,0.008,0.081,0.019C13.241,9.95,13.214,9.95,13.188,9.942z"/>
			<path fill="#FFFFFF" d="M13.396,9.985c0.026,0.008,0.054,0.008,0.07,0.02C13.441,9.994,13.424,9.985,13.396,9.985z"/>
			<path fill="#FFFFFF" d="M12.531,9.854c0.035,0,0.069,0.008,0.105,0.008C12.601,9.862,12.566,9.854,12.531,9.854z"/>
			<path fill="#FFFFFF" d="M13.792,10.073c0.017,0.008,0.034,0.008,0.062,0.018C13.826,10.081,13.809,10.073,13.792,10.073z"/>
			<path fill="#FFFFFF" d="M13.599,10.02c0.019,0.01,0.044,0.01,0.062,0.018C13.643,10.038,13.617,10.029,13.599,10.02z"/>
			<path fill="#FFFFFF" d="M6.311,11.027L6.311,11.027L6.311,11.027z"/>
			<path fill="#FFFFFF" d="M11.324,9.767c0.052,0,0.113,0,0.167,0C11.438,9.775,11.376,9.775,11.324,9.767z"/>
			<path fill="#FFFFFF" d="M13.977,10.117c0.018,0.008,0.035,0.008,0.051,0.018C14.012,10.125,13.993,10.125,13.977,10.117z"/>
			<path fill="#FFFFFF" d="M12.305,9.827c0.033,0,0.069,0.011,0.105,0.011C12.383,9.838,12.348,9.827,12.305,9.827z"/>
			<path fill="#FFFFFF" d="M10.512,9.775c0.051,0,0.104,0,0.166,0C10.624,9.775,10.563,9.775,10.512,9.775z"/>
			<path fill="#FFFFFF" d="M11.831,9.793c0.044,0,0.088,0.009,0.132,0.009C11.919,9.793,11.875,9.793,11.831,9.793z"/>
			<path fill="#FFFFFF" d="M12.076,9.811c0.043,0,0.078,0.008,0.123,0.008C12.154,9.811,12.111,9.811,12.076,9.811z"/>
			<path fill="#FFFFFF" d="M15.061,10.519c0,0,0.01,0,0.01,0.008C15.068,10.527,15.061,10.527,15.061,10.519z"/>
			<path fill="#FFFFFF" d="M15.48,10.8L15.48,10.8L15.48,10.8z"/>
			<path fill="#FFFFFF" d="M15.184,10.59L15.184,10.59L15.184,10.59z"/>
			<path fill="#FFFFFF" d="M15.287,10.66C15.297,10.66,15.297,10.66,15.287,10.66C15.297,10.66,15.297,10.66,15.287,10.66z"/>
			<path fill="#FFFFFF" d="M14.159,10.17c0.019,0,0.026,0.01,0.044,0.01C14.186,10.18,14.168,10.17,14.159,10.17z"/>
			<path fill="#FFFFFF" d="M15.559,10.88L15.559,10.88L15.559,10.88z"/>
			<path fill="#FFFFFF" d="M11,9.767c-0.078,0-0.166,0-0.245,0C10.834,9.767,10.922,9.767,11,9.767z"/>
			<path fill="#FFFFFF" d="M15.393,10.729L15.393,10.729L15.393,10.729z"/>
			<path fill="#FFFFFF" d="M14.649,10.335c0.008,0,0.018,0.01,0.024,0.01C14.667,10.345,14.657,10.335,14.649,10.335z"/>
			<path fill="#FFFFFF" d="M11,9.767c0.079,0,0.167,0,0.245,0C11.167,9.767,11.079,9.767,11,9.767z"/>
			<path fill="#FFFFFF" d="M14.325,10.222c0.01,0,0.025,0.007,0.034,0.007C14.351,10.229,14.343,10.222,14.325,10.222z"/>
			<path fill="#FFFFFF" d="M14.492,10.272c0.008,0,0.016,0.011,0.025,0.011C14.508,10.284,14.5,10.284,14.492,10.272z"/>
			<path fill="#FFFFFF" d="M14.798,10.396c0.009,0,0.018,0.011,0.018,0.011C14.807,10.396,14.798,10.396,14.798,10.396z"/>
			<path fill="#FFFFFF" d="M14.93,10.458c0.008,0,0.008,0.008,0.018,0.008C14.945,10.467,14.938,10.458,14.93,10.458z"/>
			<path fill="#FFFFFF" d="M11.586,9.775c0.045,0,0.098,0,0.141,0.01C11.684,9.785,11.631,9.785,11.586,9.775z"/>
			<path fill="#FFFFFF" d="M6.931,10.527c0.01,0,0.01-0.008,0.019-0.008C6.939,10.527,6.931,10.527,6.931,10.527z"/>
			<path fill="#FFFFFF" d="M6.808,10.598c0,0,0.01,0,0.01-0.008C6.816,10.59,6.816,10.59,6.808,10.598z"/>
			<path fill="#FFFFFF" d="M6.704,10.66C6.704,10.66,6.712,10.66,6.704,10.66C6.712,10.66,6.704,10.66,6.704,10.66z"/>
			<path fill="#FFFFFF" d="M7.054,10.467c0.008,0,0.008-0.008,0.018-0.008C7.063,10.458,7.054,10.467,7.054,10.467z"/>
			<path fill="#FFFFFF" d="M7.325,10.345c0.008,0,0.018-0.01,0.026-0.01C7.343,10.335,7.333,10.345,7.325,10.345z"/>
			<path fill="#FFFFFF" d="M7.186,10.407c0.01,0,0.018-0.011,0.026-0.011C7.203,10.396,7.194,10.396,7.186,10.407z"/>
			<path fill="#FFFFFF" d="M10.274,9.785c0.042,0,0.096,0,0.14-0.01C10.37,9.785,10.316,9.785,10.274,9.785z"/>
			<path fill="#FFFFFF" d="M11,13.031c-2.661,0-4.814-0.727-4.814-1.629v1.471c0,0.899,2.152,1.627,4.814,1.627
				c2.66,0,4.813-0.728,4.813-1.627l0,0v-1.471C15.813,12.296,13.66,13.031,11,13.031z"/>
			<path fill="#FFFFFF" d="M6.188,11.35v0.052C6.188,11.386,6.188,11.368,6.188,11.35L6.188,11.35z"/>
			<path fill="#FFFFFF" d="M7.474,10.284c0.008,0,0.026-0.011,0.034-0.011C7.5,10.284,7.49,10.284,7.474,10.284z"/>
			<path fill="#FFFFFF" d="M6.521,10.809C6.521,10.8,6.521,10.8,6.521,10.809C6.521,10.8,6.521,10.8,6.521,10.809z"/>
			<path fill="#FFFFFF" d="M15.813,11.35c0,0.018,0,0.036,0,0.052V11.35L15.813,11.35z"/>
			<path fill="#FFFFFF" d="M6.371,10.956C6.371,10.948,6.371,10.948,6.371,10.956C6.371,10.948,6.371,10.948,6.371,10.956z"/>
			<path fill="#FFFFFF" d="M6.44,10.88L6.44,10.88L6.44,10.88z"/>
			<path fill="#FFFFFF" d="M6.607,10.729L6.607,10.729L6.607,10.729z"/>
			<path fill="#FFFFFF" d="M9.363,9.862c0.036,0,0.07-0.008,0.104-0.008C9.433,9.854,9.399,9.862,9.363,9.862z"/>
			<path fill="#FFFFFF" d="M9.146,9.889C9.18,9.88,9.206,9.88,9.242,9.88C9.206,9.882,9.18,9.889,9.146,9.889z"/>
			<path fill="#FFFFFF" d="M9.582,9.838c0.036,0,0.07-0.011,0.114-0.011C9.652,9.827,9.618,9.838,9.582,9.838z"/>
			<path fill="#FFFFFF" d="M7.631,10.229c0.009,0,0.026-0.007,0.034-0.007C7.657,10.222,7.649,10.229,7.631,10.229z"/>
			<path fill="#FFFFFF" d="M10.038,9.802c0.043,0,0.087-0.009,0.131-0.009C10.125,9.793,10.081,9.793,10.038,9.802z"/>
			<path fill="#FFFFFF" d="M8.936,9.925c0.026-0.009,0.06-0.009,0.086-0.019C8.996,9.916,8.961,9.916,8.936,9.925z"/>
			<path fill="#FFFFFF" d="M9.811,9.819c0.034,0,0.078-0.008,0.122-0.008C9.889,9.811,9.845,9.811,9.811,9.819z"/>
			<path fill="#FFFFFF" d="M7.973,10.135c0.016-0.01,0.034-0.01,0.052-0.018C8.007,10.117,7.989,10.125,7.973,10.135z"/>
			<path fill="#FFFFFF" d="M7.798,10.18c0.018-0.01,0.026-0.01,0.044-0.019C7.832,10.17,7.814,10.18,7.798,10.18z"/>
			<path fill="#FFFFFF" d="M8.146,10.081c0.018-0.008,0.044-0.008,0.062-0.018C8.19,10.073,8.174,10.081,8.146,10.081z"/>
			<path fill="#FFFFFF" d="M8.339,10.038c0.026-0.008,0.044-0.008,0.07-0.018C8.383,10.029,8.357,10.038,8.339,10.038z"/>
			<path fill="#FFFFFF" d="M8.532,9.994C8.558,9.985,8.584,9.985,8.61,9.978C8.576,9.985,8.558,9.994,8.532,9.994z"/>
			<path fill="#FFFFFF" d="M8.733,9.961C8.759,9.95,8.785,9.95,8.813,9.942C8.785,9.95,8.759,9.95,8.733,9.961z"/>
		</g>
		<ellipse fill="#FFFFFF" cx="11" cy="7.72" rx="4.813" ry="1.628"/>
	</g>
	<g>
		<rect x="3.129" y="0.5" opacity="0.8" fill="#FFFFFF" enable-background="new    " width="15.742" height="4.025"/>
		<g enable-background="new    ">
			<path fill="#E64A19" d="M8.089,3.074c0.09,0,0.166-0.007,0.224-0.021C8.372,3.038,8.42,3.019,8.456,2.994
				c0.036-0.024,0.06-0.054,0.074-0.088S8.55,2.834,8.55,2.792c0-0.089-0.043-0.162-0.131-0.221C8.331,2.513,8.18,2.449,7.966,2.381
				C7.872,2.35,7.779,2.314,7.686,2.274C7.592,2.233,7.508,2.182,7.435,2.122C7.36,2.06,7.3,1.985,7.254,1.898
				C7.206,1.811,7.183,1.705,7.183,1.58c0-0.125,0.025-0.238,0.075-0.338c0.049-0.101,0.119-0.186,0.209-0.256
				c0.09-0.071,0.201-0.125,0.33-0.162c0.128-0.038,0.274-0.057,0.436-0.057c0.193,0,0.358,0.02,0.499,0.059
				c0.139,0.039,0.254,0.082,0.346,0.129l-0.186,0.48C8.813,1.396,8.724,1.361,8.626,1.331c-0.097-0.03-0.214-0.045-0.353-0.045
				c-0.153,0-0.264,0.021-0.331,0.061c-0.067,0.04-0.101,0.102-0.101,0.185c0,0.05,0.012,0.092,0.037,0.126
				c0.024,0.033,0.06,0.064,0.105,0.091c0.045,0.027,0.097,0.052,0.157,0.075C8.2,1.846,8.264,1.869,8.337,1.893
				c0.147,0.052,0.276,0.104,0.387,0.154c0.109,0.051,0.201,0.11,0.273,0.178C9.069,2.293,9.124,2.373,9.16,2.463
				c0.036,0.091,0.053,0.202,0.053,0.333c0,0.253-0.093,0.449-0.28,0.588c-0.186,0.14-0.467,0.209-0.843,0.209
				c-0.126,0-0.241-0.007-0.342-0.021S7.556,3.541,7.478,3.52C7.399,3.499,7.332,3.477,7.276,3.453S7.172,3.407,7.134,3.387
				l0.182-0.485C7.4,2.946,7.505,2.985,7.63,3.021C7.754,3.056,7.907,3.074,8.089,3.074z"/>
			<path fill="#E64A19" d="M12.425,2.182c0,0.191-0.024,0.362-0.074,0.515s-0.118,0.287-0.208,0.401
				c-0.09,0.115-0.196,0.21-0.319,0.286c-0.123,0.076-0.26,0.13-0.408,0.164c0.014,0.053,0.044,0.095,0.09,0.127
				c0.047,0.033,0.106,0.06,0.178,0.081c0.071,0.021,0.154,0.037,0.249,0.047c0.095,0.011,0.196,0.02,0.306,0.027l-0.131,0.446
				c-0.215-0.008-0.398-0.028-0.55-0.061c-0.153-0.033-0.281-0.077-0.387-0.135c-0.106-0.057-0.19-0.127-0.251-0.211
				s-0.109-0.181-0.142-0.29c-0.17-0.021-0.328-0.065-0.473-0.135c-0.146-0.069-0.272-0.163-0.379-0.279
				C9.817,3.046,9.734,2.906,9.674,2.742c-0.06-0.165-0.09-0.351-0.09-0.56c0-0.232,0.039-0.436,0.115-0.612
				c0.077-0.176,0.181-0.324,0.312-0.444c0.13-0.12,0.28-0.21,0.453-0.27c0.171-0.06,0.351-0.09,0.541-0.09
				c0.194,0,0.379,0.03,0.551,0.09c0.174,0.06,0.324,0.15,0.454,0.27c0.129,0.12,0.229,0.268,0.306,0.444
				C12.388,1.746,12.425,1.95,12.425,2.182z M10.247,2.182c0,0.133,0.017,0.253,0.051,0.36c0.034,0.106,0.084,0.199,0.149,0.275
				c0.064,0.077,0.144,0.137,0.236,0.178c0.093,0.042,0.2,0.063,0.321,0.063c0.118,0,0.225-0.021,0.319-0.063
				c0.096-0.042,0.175-0.101,0.24-0.178c0.063-0.077,0.113-0.169,0.146-0.275c0.035-0.107,0.053-0.227,0.053-0.36
				c0-0.133-0.018-0.253-0.053-0.362c-0.033-0.108-0.083-0.201-0.146-0.277c-0.065-0.077-0.144-0.136-0.24-0.178
				c-0.094-0.042-0.201-0.063-0.319-0.063c-0.122,0-0.228,0.021-0.321,0.064c-0.093,0.043-0.172,0.103-0.236,0.18
				c-0.064,0.077-0.115,0.17-0.149,0.278S10.247,2.052,10.247,2.182z"/>
			<path fill="#E64A19" d="M14.866,3.015v0.524h-1.905V0.828h0.643v2.187H14.866z"/>
		</g>
	</g>
</g>
</svg>
