<?xml version="1.0" encoding="utf-8"?>
<!-- Generator: Adobe Illustrator 21.0.0, SVG Export Plug-In . SVG Version: 6.00 Build 0)  -->
<svg version="1.1" id="图层_1" xmlns="http://www.w3.org/2000/svg" xmlns:xlink="http://www.w3.org/1999/xlink" x="0px" y="0px"
	 viewBox="0 0 22 22" style="enable-background:new 0 0 22 22;" xml:space="preserve">
<style type="text/css">
	.st0{fill:#5F7B89;}
	.st1{fill:url(#SVGID_1_);}
	.st2{fill:#455963;fill-opacity:0.7;}
	.st3{fill:#8DA1AC;}
	.st4{fill:#607D8B;}
</style>
<title>text-x-copying</title>
<path class="st0" d="M19,1v14l-6,6H3V1H19 M20,0H2v22h11l7-7V0z"/>
<linearGradient id="SVGID_1_" gradientUnits="userSpaceOnUse" x1="11" y1="1303.01" x2="11" y2="1323.01" gradientTransform="matrix(1 0 0 1 0 -1302.01)">
	<stop  offset="0" style="stop-color:#F6F5F5"/>
	<stop  offset="0.34" style="stop-color:#F1F2F3"/>
	<stop  offset="0.64" style="stop-color:#E7EAEB"/>
	<stop  offset="0.93" style="stop-color:#D5DBDF"/>
	<stop  offset="1" style="stop-color:#CFD7DB"/>
</linearGradient>
<polygon class="st1" points="3,21 3,1 19,1 19,15 13,21 "/>
<polygon class="st2" points="19,15 19,14 12,14 12,21 13,21 "/>
<path class="st3" d="M13,15h6l-6,6V15z"/>
<g>
	<path class="st4" d="M15,8.5c0,0.6-0.1,1.3-0.4,1.9c-0.5,1.1-1.3,1.9-2.4,2.3c-1.1,0.4-2.3,0.4-3.4,0s-2-1.2-2.4-2.3
		C6.1,9.8,6,9.2,6,8.5c0-0.6,0.1-1.3,0.4-1.9c0.5-1.1,1.3-1.9,2.4-2.3c1.1-0.4,2.3-0.4,3.4,0s2,1.2,2.4,2.3C14.9,7.2,15,7.9,15,8.5z
		 M14,8.5c0-0.5-0.1-1-0.2-1.5c-0.2-0.4-0.4-0.8-0.8-1.1c-0.3-0.3-0.7-0.6-1.1-0.7C11,4.8,9.9,4.8,9,5.1C8.6,5.3,8.3,5.5,8,5.9
		C7.7,6.2,7.4,6.6,7.2,7C7.1,7.5,7,8,7,8.5s0.1,1,0.2,1.5c0.2,0.4,0.4,0.8,0.8,1.2c0.3,0.3,0.7,0.6,1.1,0.7c0.9,0.4,1.9,0.4,2.9,0
		c0.4-0.2,0.7-0.4,1-0.7s0.6-0.7,0.8-1.2C13.9,9.5,14,9,14,8.5z M10.6,11.1c-0.3,0-0.7-0.1-1-0.2c-0.3-0.1-0.6-0.3-0.8-0.5
		S8.4,9.9,8.3,9.6S8.1,8.9,8.1,8.5s0.1-0.7,0.2-1.1c0.1-0.3,0.3-0.6,0.6-0.8c0.2-0.2,0.5-0.4,0.8-0.5C10,6,10.3,6,10.7,6
		c0.3,0,0.7,0,1.1,0.1l0.4,0.1l0.2,0.1L12,7.1C11.9,7,11.7,7,11.5,6.9c-0.3-0.1-0.5-0.1-0.8-0.1c-0.4,0-0.8,0.1-1.1,0.4
		C9.3,7.6,9.1,8,9.1,8.5s0.1,0.9,0.4,1.3c0.3,0.3,0.7,0.5,1.2,0.5c0.3,0,0.6,0,0.9-0.1c0.2-0.1,0.4-0.1,0.5-0.2l0.3,0.7l-0.2,0.1
		c-0.1,0.1-0.3,0.1-0.4,0.1L11.3,11C11.1,11.1,10.9,11.1,10.6,11.1L10.6,11.1z"/>
</g>
</svg>
