<?xml version="1.0" encoding="utf-8"?>
<!-- Generator: Adobe Illustrator 16.0.0, SVG Export Plug-In . SVG Version: 6.00 Build 0)  -->
<!DOCTYPE svg PUBLIC "-//W3C//DTD SVG 1.1//EN" "http://www.w3.org/Graphics/SVG/1.1/DTD/svg11.dtd">
<svg version="1.1" id="图层_1" xmlns="http://www.w3.org/2000/svg" xmlns:xlink="http://www.w3.org/1999/xlink" x="0px" y="0px"
	 width="22px" height="22px" viewBox="0 0 22 22" enable-background="new 0 0 22 22" xml:space="preserve">
<rect x="2.634" fill="#0D47A1" width="16.732" height="22"/>
<g>
	<linearGradient id="SVGID_1_" gradientUnits="userSpaceOnUse" x1="11.0005" y1="0.5" x2="11.0005" y2="21.5005">
		<stop  offset="0" style="stop-color:#64B5F6"/>
		<stop  offset="1" style="stop-color:#3F51B5"/>
	</linearGradient>
	<rect x="3.134" y="0.5" fill="url(#SVGID_1_)" width="15.733" height="21"/>
	<g opacity="0.8">
		<rect x="5.164" y="8.806" opacity="0.8" fill="#FFFFFF" enable-background="new    " width="11.664" height="0.576"/>
		<rect x="5.164" y="7.002" opacity="0.8" fill="#FFFFFF" enable-background="new    " width="11.664" height="0.578"/>
		<rect x="10.729" y="10.502" opacity="0.8" fill="#FFFFFF" enable-background="new    " width="6.091" height="6.092"/>
		<g opacity="0.8">
			<rect x="5.164" y="10.607" fill="#FFFFFF" width="5.066" height="0.578"/>
			<rect x="5.164" y="12.411" fill="#FFFFFF" width="5.066" height="0.577"/>
			<rect x="5.164" y="14.221" fill="#FFFFFF" width="5.066" height="0.577"/>
			<rect x="5.164" y="16.023" fill="#FFFFFF" width="5.066" height="0.576"/>
		</g>
	</g>
	<g>
		<rect x="3.13" y="0.5" opacity="0.8" fill="#FFFFFF" enable-background="new    " width="15.74" height="4.025"/>
		<g enable-background="new    ">
			<path fill="#236FB7" d="M9.085,2.51c0,0.273-0.045,0.509-0.134,0.711S8.734,3.591,8.572,3.724
				C8.409,3.856,8.21,3.956,7.975,4.022C7.739,4.089,7.476,4.123,7.184,4.123c-0.133,0-0.289-0.005-0.467-0.017
				C6.539,4.096,6.364,4.074,6.192,4.041V0.985c0.172-0.03,0.35-0.051,0.535-0.062c0.187-0.011,0.347-0.017,0.479-0.017
				c0.285,0,0.54,0.03,0.771,0.092c0.229,0.06,0.427,0.154,0.593,0.286C8.734,1.413,8.862,1.58,8.951,1.782
				C9.04,1.985,9.085,2.227,9.085,2.51z M6.936,3.506c0.036,0.004,0.075,0.005,0.122,0.007c0.045,0.001,0.1,0.003,0.164,0.003
				c0.372,0,0.646-0.09,0.827-0.268C8.228,3.07,8.316,2.824,8.316,2.51c0-0.328-0.085-0.577-0.257-0.747
				C7.889,1.595,7.616,1.51,7.245,1.51c-0.05,0-0.103,0.001-0.156,0.001C7.034,1.515,6.983,1.517,6.936,1.524V3.506z"/>
			<path fill="#236FB7" d="M12.849,2.51c0,0.27-0.042,0.506-0.127,0.709c-0.084,0.204-0.2,0.374-0.345,0.511
				c-0.146,0.138-0.32,0.241-0.522,0.311c-0.202,0.068-0.418,0.104-0.65,0.104c-0.225,0-0.438-0.036-0.638-0.104
				c-0.2-0.07-0.374-0.172-0.524-0.311C9.893,3.593,9.775,3.423,9.689,3.219C9.604,3.016,9.561,2.779,9.561,2.51
				c0-0.268,0.045-0.503,0.134-0.708c0.089-0.203,0.208-0.375,0.359-0.514c0.152-0.138,0.326-0.242,0.524-0.312
				c0.199-0.068,0.407-0.104,0.626-0.104c0.227,0,0.438,0.035,0.64,0.104c0.199,0.07,0.375,0.174,0.523,0.312
				c0.149,0.139,0.267,0.312,0.353,0.514C12.807,2.007,12.849,2.242,12.849,2.51z M10.329,2.51c0,0.154,0.019,0.294,0.059,0.417
				c0.04,0.125,0.097,0.231,0.171,0.318c0.075,0.09,0.167,0.159,0.273,0.208c0.109,0.046,0.232,0.071,0.372,0.071
				c0.137,0,0.26-0.025,0.369-0.071c0.11-0.049,0.202-0.118,0.277-0.208c0.075-0.087,0.131-0.194,0.171-0.318
				c0.04-0.123,0.061-0.263,0.061-0.417c0-0.153-0.021-0.292-0.061-0.418c-0.04-0.125-0.096-0.232-0.171-0.32
				c-0.075-0.09-0.167-0.159-0.277-0.208c-0.109-0.046-0.232-0.071-0.369-0.071c-0.14,0-0.263,0.024-0.372,0.074
				c-0.106,0.051-0.198,0.12-0.273,0.208c-0.074,0.09-0.131,0.197-0.171,0.322C10.348,2.223,10.329,2.359,10.329,2.51z"/>
			<path fill="#236FB7" d="M15.808,0.944v0.603h-0.997v2.535h-0.742V1.547h-0.997V0.944H15.808z"/>
		</g>
	</g>
</g>
</svg>
