<?xml version="1.0" encoding="utf-8"?>
<!-- Generator: Adobe Illustrator 21.0.0, SVG Export Plug-In . SVG Version: 6.00 Build 0)  -->
<svg version="1.1" id="图层_1" xmlns="http://www.w3.org/2000/svg" xmlns:xlink="http://www.w3.org/1999/xlink" x="0px" y="0px"
	 viewBox="0 0 22 22" style="enable-background:new 0 0 22 22;" xml:space="preserve">
<style type="text/css">
	.st0{fill:#1B5E20;}
	.st1{fill:url(#SVGID_1_);}
	.st2{fill:#1B5E20;fill-opacity:0.39;}
	.st3{fill:#FFFFFF;fill-opacity:0.39;}
	.st4{opacity:0.8;fill:#FFFFFF;enable-background:new    ;}
</style>
<title>wps-office-et</title>
<path class="st0" d="M19,1v14l-6,6H3V1H19 M20,0H2v22h11l7-7V0z"/>
<linearGradient id="SVGID_1_" gradientUnits="userSpaceOnUse" x1="11" y1="-1486.99" x2="11" y2="-1506.99" gradientTransform="matrix(1 0 0 -1 0 -1485.99)">
	<stop  offset="0" style="stop-color:#8BC34A"/>
	<stop  offset="0.2" style="stop-color:#86C049"/>
	<stop  offset="0.43" style="stop-color:#79B747"/>
	<stop  offset="0.68" style="stop-color:#62A943"/>
	<stop  offset="0.92" style="stop-color:#43953E"/>
	<stop  offset="1" style="stop-color:#388E3C"/>
</linearGradient>
<polygon class="st1" points="3,21 3,1 19,1 19,15 13,21 "/>
<polygon class="st2" points="19,15 19,14 12,14 12,21 13,21 "/>
<path class="st3" d="M13,15h6l-6,6V15z"/>
<path class="st4" d="M6,4v9h10V4H6z M7,5h2v1H7V5z M7,7h2v1H7V7z M7,9h2v1H7V9z M7,12v-1h2v1H7z M15,12h-5v-1h5V12z M15,10h-5V9h5
	V10z M15,8h-5V7h5V8z M15,6h-5V5h5V6z"/>
</svg>
