<?xml version="1.0" encoding="utf-8"?>
<!-- Generator: Adobe Illustrator 16.0.0, SVG Export Plug-In . SVG Version: 6.00 Build 0)  -->
<!DOCTYPE svg PUBLIC "-//W3C//DTD SVG 1.1//EN" "http://www.w3.org/Graphics/SVG/1.1/DTD/svg11.dtd">
<svg version="1.1" id="图层_1" xmlns="http://www.w3.org/2000/svg" xmlns:xlink="http://www.w3.org/1999/xlink" x="0px" y="0px"
	 width="22px" height="22px" viewBox="0 0 22 22" enable-background="new 0 0 22 22" xml:space="preserve">
<polygon fill="#E65100" points="2.634,22 2.634,0 19.366,0 19.366,15.806 13.112,22 "/>
<g>
	<g>
		<g>
			
				<linearGradient id="SVGID_1_" gradientUnits="userSpaceOnUse" x1="52.6006" y1="-163.3999" x2="52.6006" y2="-142.4004" gradientTransform="matrix(1 0 0 -1 -41.6001 -141.9004)">
				<stop  offset="0" style="stop-color:#EE6F0B"/>
				<stop  offset="1" style="stop-color:#FFB74D"/>
			</linearGradient>
			<polygon fill="url(#SVGID_1_)" points="3.133,21.5 3.133,0.5 18.867,0.5 18.867,15.594 12.961,21.5 			"/>
		</g>
		<polygon fill="#E65100" fill-opacity="0.3922" points="18.867,15.594 18.867,15.34 12.637,15.34 12.637,21.5 12.961,21.5 		"/>
		<path fill="#FFFFFF" fill-opacity="0.3922" d="M12.951,15.594l5.916,0.008L12.961,21.5L12.951,15.594z"/>
	</g>
	<g opacity="0.8">
		<rect x="5.181" y="8.584" fill="#FFFFFF" width="1.68" height="8.418"/>
		<rect x="7.981" y="12.784" fill="#FFFFFF" width="1.68" height="4.208"/>
		<rect x="10.773" y="14.498" fill="#FFFFFF" width="1.68" height="2.521"/>
		<g>
			<path fill="#FFFFFF" d="M13.057,7.097l0.018,3.351l3.351-0.018c0.01,1.855-1.487,3.361-3.343,3.369
				c-1.854,0.01-3.359-1.488-3.368-3.342C9.705,8.61,11.201,7.105,13.057,7.097z"/>
			<path fill="#FFFFFF" d="M13.45,6.711c1.855-0.008,3.36,1.488,3.368,3.343l-3.351,0.018L13.45,6.711z"/>
		</g>
	</g>
	<g>
		<rect x="3.129" y="0.5" opacity="0.8" fill="#FFFFFF" enable-background="new    " width="15.742" height="4.025"/>
		<g enable-background="new    ">
			<path fill="#E64A19" d="M9.502,2.488c0,0.271-0.046,0.509-0.135,0.711C9.278,3.401,9.153,3.568,8.989,3.701
				C8.826,3.833,8.627,3.933,8.392,4C8.156,4.065,7.893,4.099,7.6,4.099c-0.132,0-0.288-0.006-0.466-0.017
				C6.956,4.072,6.781,4.051,6.61,4.017V0.962c0.171-0.03,0.35-0.05,0.536-0.062C7.332,0.891,7.49,0.886,7.625,0.886
				c0.283,0,0.539,0.03,0.77,0.09c0.23,0.061,0.428,0.156,0.593,0.285c0.164,0.131,0.291,0.296,0.38,0.498
				C9.456,1.96,9.502,2.204,9.502,2.488z M7.353,3.483C7.388,3.486,7.428,3.489,7.474,3.49c0.046,0.001,0.101,0.001,0.164,0.001
				c0.372,0,0.648-0.087,0.827-0.265c0.179-0.179,0.269-0.425,0.269-0.738c0-0.33-0.086-0.578-0.257-0.747
				C8.305,1.572,8.035,1.487,7.663,1.487c-0.05,0-0.104,0-0.157,0.002C7.451,1.491,7.4,1.495,7.353,1.501V3.483z"/>
			<path fill="#E64A19" d="M11.11,0.886c0.494,0,0.871,0.082,1.135,0.246c0.265,0.164,0.396,0.435,0.396,0.808
				c0,0.377-0.134,0.649-0.401,0.816c-0.266,0.168-0.648,0.251-1.144,0.251h-0.232v1.05h-0.743V0.966
				c0.161-0.03,0.333-0.051,0.514-0.063S10.974,0.886,11.11,0.886z M11.16,1.487c-0.055,0-0.108,0.001-0.16,0.005
				c-0.054,0.002-0.097,0.005-0.136,0.008v0.905h0.232c0.258,0,0.451-0.033,0.583-0.1c0.128-0.067,0.194-0.19,0.194-0.371
				c0-0.087-0.017-0.16-0.05-0.217c-0.032-0.058-0.082-0.104-0.144-0.138c-0.062-0.036-0.138-0.059-0.226-0.072
				C11.365,1.494,11.267,1.487,11.16,1.487z"/>
			<path fill="#E64A19" d="M14.089,3.519c0.104,0,0.191-0.008,0.26-0.024s0.123-0.038,0.164-0.068
				c0.042-0.027,0.07-0.062,0.087-0.101c0.016-0.039,0.023-0.082,0.023-0.131c0-0.103-0.051-0.188-0.153-0.256
				c-0.101-0.067-0.276-0.141-0.523-0.22c-0.108-0.036-0.216-0.077-0.324-0.123c-0.107-0.047-0.205-0.107-0.291-0.178
				c-0.085-0.071-0.156-0.156-0.209-0.257c-0.054-0.101-0.081-0.224-0.081-0.369s0.027-0.276,0.085-0.391
				c0.058-0.117,0.14-0.216,0.243-0.298c0.105-0.081,0.232-0.144,0.382-0.188c0.148-0.043,0.318-0.065,0.504-0.065
				c0.224,0,0.416,0.023,0.577,0.068s0.296,0.094,0.4,0.149l-0.214,0.558c-0.094-0.047-0.194-0.086-0.308-0.121
				c-0.114-0.036-0.248-0.052-0.406-0.052c-0.18,0-0.307,0.022-0.386,0.07c-0.076,0.046-0.115,0.119-0.115,0.214
				c0,0.058,0.014,0.107,0.041,0.145c0.03,0.038,0.07,0.074,0.123,0.106c0.053,0.032,0.112,0.061,0.181,0.085
				c0.068,0.027,0.144,0.053,0.228,0.079c0.171,0.062,0.319,0.121,0.446,0.181c0.128,0.058,0.234,0.126,0.317,0.205
				c0.084,0.079,0.146,0.171,0.188,0.276c0.041,0.106,0.063,0.233,0.063,0.385c0,0.292-0.107,0.52-0.323,0.681
				c-0.217,0.161-0.543,0.242-0.978,0.242c-0.146,0-0.278-0.009-0.396-0.026s-0.222-0.036-0.312-0.06
				c-0.092-0.025-0.168-0.049-0.234-0.077c-0.065-0.027-0.12-0.053-0.164-0.077l0.211-0.562c0.099,0.051,0.219,0.097,0.363,0.138
				C13.703,3.5,13.879,3.519,14.089,3.519z"/>
		</g>
	</g>
</g>
</svg>
