<?xml version="1.0" encoding="utf-8"?>
<!-- Generator: Adobe Illustrator 16.0.0, SVG Export Plug-In . SVG Version: 6.00 Build 0)  -->
<!DOCTYPE svg PUBLIC "-//W3C//DTD SVG 1.1//EN" "http://www.w3.org/Graphics/SVG/1.1/DTD/svg11.dtd">
<svg version="1.1" id="图层_1" xmlns="http://www.w3.org/2000/svg" xmlns:xlink="http://www.w3.org/1999/xlink" x="0px" y="0px"
	 width="22px" height="22px" viewBox="0 0 22 22" enable-background="new 0 0 22 22" xml:space="preserve">
<rect x="2.634" fill="#E65100" width="16.732" height="22"/>
<g>
	
		<linearGradient id="SVGID_1_" gradientUnits="userSpaceOnUse" x1="94.2002" y1="846.3008" x2="94.2002" y2="825.3008" gradientTransform="matrix(1 0 0 1 -83.2002 -824.8008)">
		<stop  offset="0" style="stop-color:#EE6F0B"/>
		<stop  offset="1" style="stop-color:#FFB74D"/>
	</linearGradient>
	<rect x="3.133" y="0.5" fill="url(#SVGID_1_)" width="15.734" height="21"/>
	<g opacity="0.8">
		<rect x="5.182" y="8.583" fill="#FFFFFF" width="1.679" height="8.419"/>
		<rect x="7.981" y="12.784" fill="#FFFFFF" width="1.68" height="4.208"/>
		<rect x="10.773" y="14.499" fill="#FFFFFF" width="1.679" height="2.521"/>
		<g>
			<path fill="#FFFFFF" d="M13.057,7.098l0.019,3.35l3.352-0.016c0.009,1.854-1.489,3.358-3.343,3.367
				c-1.857,0.011-3.361-1.487-3.37-3.342C9.705,8.61,11.202,7.106,13.057,7.098z"/>
			<path fill="#FFFFFF" d="M13.45,6.71c1.855-0.009,3.36,1.488,3.368,3.344l-3.35,0.02L13.45,6.71z"/>
		</g>
	</g>
	<g>
		<rect x="3.129" y="0.5" opacity="0.8" fill="#FFFFFF" enable-background="new    " width="15.742" height="4.025"/>
		<g enable-background="new    ">
			<path fill="#E64A19" d="M9.347,2.488c0,0.271-0.045,0.509-0.134,0.711C9.124,3.401,8.998,3.568,8.834,3.701
				C8.672,3.833,8.472,3.933,8.237,4C8.002,4.065,7.738,4.099,7.445,4.099c-0.133,0-0.289-0.006-0.466-0.017
				c-0.178-0.01-0.353-0.031-0.523-0.065V0.962c0.171-0.03,0.35-0.05,0.536-0.062C7.177,0.891,7.336,0.886,7.47,0.886
				c0.283,0,0.539,0.03,0.77,0.09C8.469,1.036,8.668,1.132,8.833,1.26c0.164,0.131,0.291,0.296,0.38,0.498
				C9.302,1.96,9.347,2.204,9.347,2.488z M7.198,3.483C7.233,3.486,7.273,3.489,7.319,3.49c0.047,0.001,0.102,0.001,0.164,0.001
				c0.372,0,0.648-0.087,0.827-0.265C8.49,3.047,8.58,2.801,8.58,2.488c0-0.33-0.086-0.578-0.257-0.747
				C8.151,1.572,7.88,1.487,7.508,1.487c-0.051,0-0.104,0-0.157,0.002C7.296,1.491,7.246,1.495,7.198,1.501V3.483z"/>
			<path fill="#E64A19" d="M10.958,0.886c0.492,0,0.869,0.082,1.133,0.246s0.396,0.435,0.396,0.808c0,0.377-0.134,0.649-0.401,0.816
				c-0.266,0.168-0.648,0.251-1.144,0.251H10.71v1.05H9.967V0.966c0.162-0.03,0.333-0.051,0.514-0.063
				C10.662,0.891,10.821,0.886,10.958,0.886z M11.006,1.487c-0.055,0-0.108,0.001-0.16,0.005c-0.052,0.002-0.098,0.005-0.136,0.008
				v0.905h0.232c0.257,0,0.451-0.033,0.583-0.1c0.128-0.067,0.193-0.19,0.193-0.371c0-0.087-0.016-0.16-0.049-0.217
				c-0.033-0.058-0.082-0.104-0.144-0.138c-0.062-0.036-0.138-0.059-0.226-0.072C11.211,1.494,11.112,1.487,11.006,1.487z"/>
			<path fill="#E64A19" d="M15.545,0.921v0.602h-0.996v2.535h-0.743V1.522h-0.995V0.921H15.545z"/>
		</g>
	</g>
</g>
</svg>
