<?xml version="1.0" encoding="utf-8"?>
<!-- Generator: Adobe Illustrator 21.0.0, SVG Export Plug-In . SVG Version: 6.00 Build 0)  -->
<svg version="1.1" id="图层_1" xmlns="http://www.w3.org/2000/svg" xmlns:xlink="http://www.w3.org/1999/xlink" x="0px" y="0px"
	 viewBox="0 0 22 22" style="enable-background:new 0 0 22 22;" xml:space="preserve">
<style type="text/css">
	.st0{fill:#E65100;}
	.st1{fill:url(#SVGID_1_);}
	.st2{opacity:0.8;}
	.st3{fill:#FFFFFF;}
</style>
<title>wps-office-dpt</title>
<path class="st0" d="M19,1v14l-6,6H3V1H19 M20,0H2v22h18V0z"/>
<linearGradient id="SVGID_1_" gradientUnits="userSpaceOnUse" x1="11" y1="1303.01" x2="11" y2="1323.01" gradientTransform="matrix(1 0 0 1 0 -1302.01)">
	<stop  offset="0" style="stop-color:#FFB74D"/>
	<stop  offset="1" style="stop-color:#EE6F0B"/>
</linearGradient>
<polygon class="st1" points="3,21 3,1 19,1 19,15 19,21 "/>
<g class="st2">
	<rect x="5" y="6" class="st3" width="2" height="9"/>
	<rect x="8" y="11" class="st3" width="2" height="4"/>
	<rect x="11" y="13" class="st3" width="2" height="2"/>
	<path class="st3" d="M13.3,5.4v3.3h3.3c0,1.8-1.5,3.3-3.3,3.3S10,10.5,10,8.7S11.4,5.4,13.3,5.4L13.3,5.4L13.3,5.4z"/>
	<path class="st3" d="M13.7,5C15.5,5,17,6.5,17,8.3l0,0h-3.3V5z"/>
</g>
</svg>
