<?xml version="1.0" encoding="utf-8"?>
<!-- Generator: Adobe Illustrator 17.1.0, SVG Export Plug-In . SVG Version: 6.00 Build 0)  -->
<!DOCTYPE svg PUBLIC "-//W3C//DTD SVG 1.1//EN" "http://www.w3.org/Graphics/SVG/1.1/DTD/svg11.dtd">
<svg version="1.1"
	 id="svg2" inkscape:export-filename="/media/Data/Main/Visuals/Icons/Numix/Desktop/repos/numix-wiki/Gjorgi/Numix-folders/48/New/folder-144.png" xmlns:svg="http://www.w3.org/2000/svg" xmlns:sodipodi="http://sodipodi.sourceforge.net/DTD/sodipodi-0.dtd" xmlns:inkscape="http://www.inkscape.org/namespaces/inkscape" xmlns:dc="http://purl.org/dc/elements/1.1/" xmlns:cc="http://creativecommons.org/ns#" xmlns:rdf="http://www.w3.org/1999/02/22-rdf-syntax-ns#" inkscape:export-ydpi="270" inkscape:export-xdpi="270" sodipodi:docname="user-home.svg" inkscape:version="0.48.4 r9939"
	 xmlns="http://www.w3.org/2000/svg" xmlns:xlink="http://www.w3.org/1999/xlink" x="0px" y="0px" width="512px" height="512px"
	 viewBox="0 0 512 512" enable-background="new 0 0 512 512" xml:space="preserve">
<sodipodi:namedview  id="base" inkscape:cx="35.66124" pagecolor="#ffffff" showguides="true" inkscape:zoom="5.6530318" showgrid="true" borderopacity="1.0" inkscape:cy="21.321632" bordercolor="#666666" inkscape:pageopacity="0.0" inkscape:window-x="0" inkscape:guide-bbox="true" inkscape:pageshadow="2" inkscape:window-height="1023" inkscape:document-units="px" inkscape:window-width="1920" inkscape:window-y="28" inkscape:current-layer="layer1" inkscape:window-maximized="1">
	<inkscape:grid  type="xygrid" visible="true" enabled="true" id="grid2985" empspacing="5" snapvisiblegridlinesonly="true">
		</inkscape:grid>
</sodipodi:namedview>
<polygon opacity="8.000000e-002" enable-background="new    " points="71.6,8 448.4,8 448.4,512 259.8,362.1 71.6,512 "/>
<polygon opacity="9.999999e-002" enable-background="new    " points="75.6,11.9 445.8,11.9 445.8,505.2 260.5,358 75.6,505.2 "/>
<polygon opacity="0.2" enable-background="new    " points="71.6,8 440.9,8 440.9,500.2 256.1,353.3 71.6,500.2 "/>
<polygon fill="#616161" points="75.6,12 443,12 443,500 259.1,353.9 75.6,500 "/>
<linearGradient id="SVGID_1_" gradientUnits="userSpaceOnUse" x1="259.25" y1="269" x2="259.25" y2="749" gradientTransform="matrix(1 0 0 1 0 -254)">
	<stop  offset="0" style="stop-color:#9E9E9E"/>
	<stop  offset="0.2245" style="stop-color:#A3A3A3"/>
	<stop  offset="0.4967" style="stop-color:#B2B2B2"/>
	<stop  offset="0.7925" style="stop-color:#CACACA"/>
	<stop  offset="1" style="stop-color:#E0E0E0"/>
</linearGradient>
<path fill="url(#SVGID_1_)" d="M78,15h362.5v480L259.1,351L78,495V15z"/>
<linearGradient id="SVGID_2_" gradientUnits="userSpaceOnUse" x1="259.3" y1="357.5" x2="259.3" y2="270" gradientTransform="matrix(1 0 0 1 0 -254)">
	<stop  offset="0.2527" style="stop-color:#E0E0E0"/>
	<stop  offset="0.8441" style="stop-color:#9E9E9E"/>
</linearGradient>
<polygon fill="url(#SVGID_2_)" fill-opacity="0.77" points="440.6,16 78,16 78.2,103.5 440.6,103.5 "/>
<path fill="#616161" fill-opacity="0.48" d="M380.3,15.2v431.9l60.3,47.9V15.2H380.3z M78,15v480l60.5-48.3V15H78z"/>
</svg>
