<?xml version="1.0" encoding="utf-8"?>
<!-- Generator: Adobe Illustrator 21.0.0, SVG Export Plug-In . SVG Version: 6.00 Build 0)  -->
<svg version="1.1" id="图层_39" xmlns="http://www.w3.org/2000/svg" xmlns:xlink="http://www.w3.org/1999/xlink" x="0px" y="0px"
	 viewBox="0 0 512 512" style="enable-background:new 0 0 512 512;" xml:space="preserve">
<style type="text/css">
	.st0{opacity:0.2;enable-background:new    ;}
	.st1{opacity:0.08;enable-background:new    ;}
	.st2{opacity:0.1;enable-background:new    ;}
	.st3{fill:#F57F17;}
	.st4{fill:url(#SVGID_1_);}
</style>
<title>favorite512</title>
<path class="st0" d="M403,489.9c-1.3,0-2.6-0.3-3.7-0.9l-143.2-75.2L112.9,489c-3.9,2.1-8.7,0.5-10.8-3.4c-0.8-1.6-1.1-3.3-0.8-5.1
	l27.4-159.3L12.8,208.4c-3.2-3.1-3.2-8.1-0.2-11.3c1.2-1.3,2.8-2.1,4.6-2.3l160.1-23.3l71.6-145c2-4,6.8-5.6,10.7-3.6
	c1.6,0.8,2.9,2.1,3.6,3.6l71.6,145l160.1,23.3c4.4,0.6,7.4,4.7,6.8,9.1c-0.3,1.7-1.1,3.4-2.3,4.6L383.5,321.2l27.4,159.3
	c0.8,4.4-2.2,8.5-6.5,9.2C403.9,489.9,403.5,489.9,403,489.9L403,489.9z"/>
<path class="st1" d="M409.2,497.9c-1.9,0-3.9-0.5-5.6-1.4l-141.3-74.3L121,496.5c-5.9,3.1-13.1,0.8-16.2-5c-1.2-2.3-1.7-5-1.2-7.6
	l27-157.3L16.2,215.3c-4.7-4.6-4.8-12.2-0.2-17c1.8-1.9,4.3-3.1,6.9-3.5l158-22.9l70.7-143.1c2.9-5.9,10.1-8.4,16.1-5.4
	c2.4,1.2,4.3,3.1,5.4,5.4l70.7,143.1l158,22.9c6.6,1,11.1,7,10.2,13.6c-0.4,2.6-1.6,5-3.5,6.9L394,326.6l27,157.3
	c1.1,6.5-3.3,12.7-9.8,13.8C410.5,497.8,409.8,497.9,409.2,497.9L409.2,497.9z"/>
<path class="st2" d="M409.2,493.9c-1.3,0-2.6-0.3-3.7-0.9l-143.2-75.2L119.1,493c-3.9,2.1-8.7,0.5-10.8-3.4
	c-0.8-1.6-1.1-3.3-0.8-5.1l27.4-159.3L19,212.4c-3.2-3.1-3.2-8.1-0.2-11.3c1.2-1.3,2.8-2.1,4.6-2.3l160.1-23.3l71.6-145
	c2-4,6.8-5.6,10.7-3.6c1.6,0.8,2.9,2.1,3.6,3.6l71.6,145l160.1,23.3c4.4,0.6,7.4,4.7,6.8,9.1c-0.3,1.7-1.1,3.4-2.3,4.6L389.7,325.2
	l27.4,159.3c0.8,4.4-2.2,8.5-6.5,9.2C410.1,493.9,409.7,493.9,409.2,493.9L409.2,493.9z"/>
<path class="st3" d="M403,485.9c-0.6,0-1.3-0.2-1.9-0.5l-145-76.2l-145,76.2c-0.6,0.3-1.2,0.5-1.9,0.5c-2.2,0-4-1.8-4-4
	c0-0.2,0-0.5,0.1-0.7L133,319.8L15.6,205.5c-1.6-1.5-1.6-4.1-0.1-5.7c0.6-0.6,1.4-1,2.3-1.2L180,175.2l72.5-146.9
	c1-2,3.4-2.8,5.4-1.8c0.8,0.4,1.4,1,1.8,1.8l72.5,146.9l162.2,23.6c2.2,0.3,3.7,2.3,3.4,4.5c-0.1,0.9-0.5,1.7-1.2,2.3L379.2,319.8
	l27.7,161.4c0.4,2.2-1.1,4.2-3.3,4.6C403.4,485.9,403.2,485.9,403,485.9L403,485.9z"/>
<radialGradient id="SVGID_1_" cx="256.0953" cy="534.7319" r="233.8901" gradientTransform="matrix(1 0 0 1 0 -278.72)" gradientUnits="userSpaceOnUse">
	<stop  offset="0" style="stop-color:#FFFF00"/>
	<stop  offset="0.06" style="stop-color:#FFFC09"/>
	<stop  offset="0.34" style="stop-color:#FDEF2E"/>
	<stop  offset="0.6" style="stop-color:#FBE54A"/>
	<stop  offset="0.83" style="stop-color:#FADF5A"/>
	<stop  offset="1" style="stop-color:#FADD60"/>
</radialGradient>
<path class="st4" d="M495.2,204.1c0.8-0.8,0.8-2,0-2.8c-0.3-0.3-0.7-0.5-1.1-0.6l-162.2-23.6c-0.7-0.1-1.2-0.5-1.5-1.1L257.9,29.2
	c-0.5-1-1.7-1.4-2.7-0.9c-0.4,0.2-0.7,0.5-0.9,0.9L181.8,176c-0.3,0.6-0.9,1-1.5,1.1L18.1,200.7c-1.1,0.2-1.8,1.2-1.7,2.3
	c0.1,0.4,0.3,0.8,0.6,1.1l117.3,114.3c0.5,0.5,0.7,1.1,0.6,1.8l-27.7,161.4c-0.2,1.1,0.5,2.1,1.6,2.3c0.4,0.1,0.9,0,1.3-0.2
	l145-76.2c0.6-0.3,1.3-0.3,1.9,0l145,76.2c1,0.5,2.2,0.1,2.7-0.8c0.2-0.4,0.3-0.8,0.2-1.3l-27.7-161.4c-0.1-0.6,0.1-1.3,0.6-1.8
	L495.2,204.1z"/>
</svg>
