<?xml version="1.0" encoding="utf-8"?>
<!-- Generator: Adobe Illustrator 17.1.0, SVG Export Plug-In . SVG Version: 6.00 Build 0)  -->
<!DOCTYPE svg PUBLIC "-//W3C//DTD SVG 1.1//EN" "http://www.w3.org/Graphics/SVG/1.1/DTD/svg11.dtd">
<svg version="1.1"
	 id="svg2" inkscape:export-filename="/media/Data/Main/Visuals/Icons/Numix/Desktop/repos/numix-wiki/Gjorgi/Numix-folders/48/New/folder-144.png" xmlns:svg="http://www.w3.org/2000/svg" xmlns:sodipodi="http://sodipodi.sourceforge.net/DTD/sodipodi-0.dtd" xmlns:inkscape="http://www.inkscape.org/namespaces/inkscape" xmlns:dc="http://purl.org/dc/elements/1.1/" xmlns:cc="http://creativecommons.org/ns#" xmlns:rdf="http://www.w3.org/1999/02/22-rdf-syntax-ns#" inkscape:export-ydpi="270" inkscape:export-xdpi="270" sodipodi:docname="user-home.svg" inkscape:version="0.48.4 r9939"
	 xmlns="http://www.w3.org/2000/svg" xmlns:xlink="http://www.w3.org/1999/xlink" x="0px" y="0px" width="512px" height="512px"
	 viewBox="0 0 512 512" enable-background="new 0 0 512 512" xml:space="preserve">
<symbol  id="新建符号_8" viewBox="-121 -112.5 242 225">
	<g opacity="0.39">
		<polygon fill="#F57F17" points="-71.2,27 -121,-12.5 -49.6,-58.9 0,-17.3 		"/>
		<polygon fill="#F57F17" points="-121,65.9 -71.4,27 0,70.8 -49.4,112.5 		"/>
		<polygon fill="#F57F17" points="49.4,-68 0,-26.4 -49.4,-68 -71.2,-53.8 -71.2,-70.2 0,-112.5 71.2,-70.2 71.2,-53.8 		"/>
		<polygon fill="#F57F17" points="71.2,27 121,-12.5 49.6,-58.9 0,-17.3 		"/>
		<polygon fill="#F57F17" points="121,65.9 71.4,27 0,70.8 49.4,112.5 		"/>
	</g>
</symbol>
<polygon opacity="8.000000e-002" enable-background="new    " points="8,479.7 8,137.1 40.3,137.1 40.3,40.3 159.1,40.3 191.2,72.5 
	479.7,72.5 479.7,122.7 479.9,122.7 479.9,137.1 512,137.1 512,479.7 "/>
<polygon opacity="9.999999e-002" enable-background="new    " points="12,475.7 12,141.1 44.3,141.1 44.3,44.3 157.4,44.3 
	189.5,76.5 475.7,76.5 475.7,126.7 475.9,126.7 475.9,141.1 508,141.1 508,475.7 "/>
<sodipodi:namedview  id="base" inkscape:cx="35.66124" pagecolor="#ffffff" showguides="true" inkscape:zoom="5.6530318" showgrid="true" borderopacity="1.0" inkscape:cy="21.321632" bordercolor="#666666" inkscape:pageopacity="0.0" inkscape:window-x="0" inkscape:guide-bbox="true" inkscape:pageshadow="2" inkscape:window-height="1023" inkscape:document-units="px" inkscape:window-width="1920" inkscape:window-y="28" inkscape:current-layer="layer1" inkscape:window-maximized="1">
	<inkscape:grid  type="xygrid" visible="true" enabled="true" id="grid2985" empspacing="5" snapvisiblegridlinesonly="true">
		</inkscape:grid>
</sodipodi:namedview>
<polygon opacity="0.2" enable-background="new    " points="8,471.7 8,137.1 40.3,137.1 40.3,40.3 153.4,40.3 185.5,72.5 
	471.7,72.5 471.7,122.7 471.9,122.7 471.9,137.1 504,137.1 504,471.7 "/>
<polygon fill="#F57F17" points="12,467.7 12,141.1 44.3,141.1 44.3,44.3 151.8,44.3 183.8,76.5 467.7,76.5 467.7,126.7 467.9,126.7 
	467.9,141.1 500,141.1 500,467.7 "/>
<g>
	
		<linearGradient id="SVGID_1_" gradientUnits="userSpaceOnUse" x1="256" y1="-165.2185" x2="256" y2="-44.2" gradientTransform="matrix(1 0 0 -1 0 2)">
		<stop  offset="0" style="stop-color:#F57C00"/>
		<stop  offset="0.1638" style="stop-color:#F58F09"/>
		<stop  offset="0.3598" style="stop-color:#F59D11"/>
		<stop  offset="0.5982" style="stop-color:#F5A515"/>
		<stop  offset="0.9946" style="stop-color:#F5A816"/>
	</linearGradient>
	<path fill="url(#SVGID_1_)" d="M465.7,78.5H183l-32.1-32.3H46.3v32.3v32.3v40.3c0,8.9,7.7,16.1,16.1,16.1h387.2
		c8.5,0,16.1,0.8,16.1-8.1C465.7,143.3,465.7,78.5,465.7,78.5z"/>
	
		<linearGradient id="rect2990_1_" gradientUnits="userSpaceOnUse" x1="256" y1="-141.1" x2="256" y2="-463.7" gradientTransform="matrix(1 0 0 -1 0 2)">
		<stop  offset="0" style="stop-color:#FADD60"/>
		<stop  offset="0.9946" style="stop-color:#F5A816"/>
	</linearGradient>
	<polyline id="rect2990_2_" fill="url(#rect2990_1_)" points="498,143.1 498,465.7 14,465.7 14,143.1 	"/>
	<path id="rect3004_1_" inkscape:connector-curvature="0" opacity="0.25" fill="#FDEFBA" enable-background="new    " d="M14,143.1
		V205c0-21.4,14.3-38.7,32.3-38.7h419.5c17.9,0,32.3,17.3,32.3,38.7v-61.9H14z"/>
	<path id="path3801_1_" inkscape:connector-curvature="0" opacity="0.1" fill="#E65100" enable-background="new    " d="M46.3,46.3
		c0,0,0,8.1,0,24.2v16.1c0-16.1,7.3-24.2,14.7-24.2h83.7c5.6,0,13.1,0.2,26.2,7.9c3.6,2.2,7.7,4.8,12.1,8.3l-32.1-32.3H46.3z"/>
	<polygon opacity="0.1" fill="#E65100" enable-background="new    " points="183,78.5 465.7,78.5 465.7,102.7 207.2,102.7 	"/>
	<rect x="46.3" y="128.7" opacity="5.000000e-002" fill="#E65100" enable-background="new    " width="419.7" height="14.3"/>
</g>
<use xlink:href="#新建符号_8"  width="242" height="225" x="-121" y="-112.5" transform="matrix(1 0 0 -1 256 306.3667)" overflow="visible"/>
</svg>
