<?xml version="1.0" encoding="utf-8"?>
<!-- Generator: Adobe Illustrator 21.0.0, SVG Export Plug-In . SVG Version: 6.00 Build 0)  -->
<svg version="1.1" id="图层_39" xmlns="http://www.w3.org/2000/svg" xmlns:xlink="http://www.w3.org/1999/xlink" x="0px" y="0px"
	 viewBox="0 0 512 512" style="enable-background:new 0 0 512 512;" xml:space="preserve">
<style type="text/css">
	.st0{opacity:0.08;enable-background:new    ;}
	.st1{opacity:0.2;enable-background:new    ;}
	.st2{opacity:0.1;enable-background:new    ;}
	.st3{fill:#F57F17;}
	.st4{fill:url(#SVGID_1_);}
	.st5{fill:url(#rect2990_1_);}
	.st6{opacity:0.25;fill:#FDEFBA;enable-background:new    ;}
	.st7{opacity:0.1;fill:#E65100;enable-background:new    ;}
	.st8{opacity:0.05;fill:#E65100;enable-background:new    ;}
	.st9{opacity:0.39;}
</style>
<title>0512folder-system</title>
<g id="_512">
	<polygon class="st0" points="8,480 8,137 40,137 40,40 159,40 191,72 479,72 479,137 512,137 512,480 	"/>
	<polygon class="st1" points="8,472 8,137 40,137 40,40 153,40 185,72 471,72 471,137 504,137 504,472 	"/>
	<polygon class="st2" points="12,476 12,141 44,141 44,44 157,44 189,76 475,76 475,141 508,141 508,476 	"/>
	<path class="st3" d="M152,44H44v97H12v327h488V141h-33V76H184L152,44z"/>
	
		<linearGradient id="SVGID_1_" gradientUnits="userSpaceOnUse" x1="200.25" y1="661.9872" x2="200.25" y2="722.5" gradientTransform="matrix(2 0 0 -2 -145 1491)">
		<stop  offset="0" style="stop-color:#F57C00"/>
		<stop  offset="0.16" style="stop-color:#F58F09"/>
		<stop  offset="0.36" style="stop-color:#F59D11"/>
		<stop  offset="0.6" style="stop-color:#F5A515"/>
		<stop  offset="0.99" style="stop-color:#F5A816"/>
	</linearGradient>
	<path class="st4" d="M465,78H183l-32-32H46v104c0,8.9,7.7,17,16.1,17h387.2c8.5,0,15.7,0.9,15.7-8L465,78L465,78z"/>
	
		<linearGradient id="rect2990_1_" gradientUnits="userSpaceOnUse" x1="200.5" y1="674" x2="200.5" y2="512.5" gradientTransform="matrix(2 0 0 -2 -145 1491)">
		<stop  offset="0" style="stop-color:#FADD60"/>
		<stop  offset="0.99" style="stop-color:#F5A816"/>
	</linearGradient>
	<polyline id="rect2990" class="st5" points="498,143 498,466 14,466 14,143 	"/>
	<path id="rect3004" class="st6" d="M14,143v62c0-21.4,14.3-38.8,32.3-38.8h419.4c17.9,0,32.3,17.4,32.3,38.8v-62H14z"/>
	<path id="path3801" class="st7" d="M46,46v40.3c0-16.1,7.3-24.2,14.7-24.2h83.7c5.6,0,13.1,0.2,26.2,7.9c3.6,2.2,8,4.5,12.4,8
		l-32-32H46z"/>
	<polygon class="st7" points="183,78 465,78 465,103 207.2,102.7 	"/>
	<rect x="46" y="128" class="st8" width="419" height="15"/>
</g>
<g id="_256">
	<g class="st9">
		<path class="st3" d="M256.6,353.5c-28-0.1-50.6-22.8-50.6-50.8c0.1-28,22.8-50.6,50.8-50.6c28,0.1,50.6,22.7,50.6,50.7
			C307.4,330.9,284.6,353.5,256.6,353.5z M256.6,264.2c-21.4,0.1-38.6,17.4-38.6,38.8c0.1,21.4,17.4,38.6,38.8,38.6
			c21.3-0.1,38.6-17.4,38.6-38.7C295.4,281.5,278,264.2,256.6,264.2z"/>
	</g>
	<g class="st9">
		<path class="st3" d="M283.5,415.4l-29-25.1l-23.7,25.1l-33.6-11.9v-37.8l-36.3-1.2l-17.1-31.9l25.7-28.9L144,279.5l16.5-41.8
			l36.5,5.9l-1.2-34.7l32.4-18l26,27.1l27.2-26.6l38.5,14.8V242l37.6,2.2l10.2,37.3L341.4,306l26.6,22.8l-15,38h-36.2l0.2,34.3
			L283.5,415.4z M209.2,395.1l18.3,6.4l26.2-27.7l32.1,27.7l19.3-8.2l-0.3-38.3h40.1l8.9-22.4l-30.3-25.9l30.8-28.8l-6-22.1
			l-40.3-2.4v-38.9l-23.6-9.1L254,235.3L226,206l-18,10l1.4,42l-41.4-6.7l-10,25.3l28,26.7l-27.7,31.2l9.9,18.4l41,1.4V395.1z"/>
	</g>
</g>
</svg>
