<?xml version="1.0" encoding="utf-8"?>
<!-- Generator: Adobe Illustrator 21.0.0, SVG Export Plug-In . SVG Version: 6.00 Build 0)  -->
<svg version="1.1" id="图层_39" xmlns="http://www.w3.org/2000/svg" xmlns:xlink="http://www.w3.org/1999/xlink" x="0px" y="0px"
	 viewBox="0 0 512 512" style="enable-background:new 0 0 512 512;" xml:space="preserve">
<style type="text/css">
	.st0{opacity:0.39;}
	.st1{fill:#F57F17;}
	.st2{opacity:0.08;enable-background:new    ;}
	.st3{opacity:0.2;enable-background:new    ;}
	.st4{opacity:0.1;enable-background:new    ;}
	.st5{fill:url(#SVGID_1_);}
	.st6{fill:url(#rect2990_1_);}
	.st7{opacity:0.25;fill:#FDEFBA;enable-background:new    ;}
	.st8{opacity:0.1;fill:#E65100;enable-background:new    ;}
	.st9{opacity:0.05;fill:#E65100;enable-background:new    ;}
</style>
<symbol  id="新建符号_5" viewBox="-117.9 -98.2 235.8 196.4">
	<g class="st0">
		<path class="st1" d="M29.3,5.8c28.7,0,52-23.3,52-52s-23.3-52-52-52s-52,23.3-52,52S0.6,5.8,29.3,5.8z M-5.1-46.4
			c0-19.2,15.5-34.7,34.7-34.7s34.7,15.5,34.7,34.7S48.8-11.7,29.6-11.7h-0.1C10.4-11.7-5.1-27.3-5.1-46.4L-5.1-46.4z"/>
		<path class="st1" d="M65,0.4l-1-0.6l-1,0.8c-20.1,14.5-47.2,14.5-67.3,0l-1-0.8l-1,0.6c-32.3,15.9-53,52-53,91.6v6.2h15.5v-6
			c0-30.9,14.5-59.1,37.9-74c10.8,5.9,23,9,35.3,9.1s24.4-3.1,35.1-9.1c23.4,14.9,37.9,43.2,37.9,74v6h15.5V92
			C118.1,52.4,97.3,16.3,65,0.4z"/>
		<path class="st1" d="M-37.8,12.9l0.6-0.6c3.8-4.2,8.1-8,12.7-11.3l8.1-5.8l-9.7,2.2c-3.8,0.9-7.8,1.3-11.7,1.4
			c-10.8,0.1-21.4-3.3-30.3-9.5l-1-0.6l-1,0.6c-29,14.1-47.8,46-47.8,81.3v5.6h14.5v-5.6c0-27.2,12.9-52,33.9-65.1
			c9.4,5.1,20,7.8,30.7,7.9L-37.8,12.9z"/>
		<path class="st1" d="M-39.6-5.4h1.8c7.4,0.1,14.8-1.7,21.4-5l2.6-1.2l-2-2c-2.9-2.8-5.4-5.9-7.5-9.3l-0.8-1.4l-1.6,0.6
			c-4.2,1.8-8.7,2.6-13.3,2.4c-17-0.7-30.5-15-29.7-31.5c0.6-16.7,14.9-29.6,32.1-29c5,0.2,9.9,1.6,14.3,4l1.4,0.8l1-1.4
			c2.5-3.1,5.4-5.8,8.5-8.3l2.2-1.6l-2.4-1.6c-7.3-4.8-15.8-7.6-24.6-8.1C-62.4-99-84-79.1-85-53.6c-0.4,12.3,4.1,24.3,12.5,33.3
			C-63.8-11.3-52.1-6-39.6-5.4z"/>
	</g>
</symbol>
<title>0512folder-publicshare</title>
<g id="_512">
	<polygon class="st2" points="8,480 8,137 40,137 40,40 159,40 191,72 479,72 479,137 512,137 512,480 	"/>
	<polygon class="st3" points="8,472 8,137 40,137 40,40 153,40 185,72 471,72 471,137 504,137 504,472 	"/>
	<polygon class="st4" points="12,476 12,141 44,141 44,44 157,44 189,76 475,76 475,141 508,141 508,476 	"/>
	<path class="st1" d="M152,44H44v97H12v327h488V141h-33V76H184L152,44z"/>
	
		<linearGradient id="SVGID_1_" gradientUnits="userSpaceOnUse" x1="-177.25" y1="-856.5128" x2="-177.25" y2="-796" gradientTransform="matrix(2 0 0 -2 610 -1546)">
		<stop  offset="0" style="stop-color:#F57C00"/>
		<stop  offset="0.16" style="stop-color:#F58F09"/>
		<stop  offset="0.36" style="stop-color:#F59D11"/>
		<stop  offset="0.6" style="stop-color:#F5A515"/>
		<stop  offset="0.99" style="stop-color:#F5A816"/>
	</linearGradient>
	<path class="st5" d="M465,78H183l-32-32H46v104c0,8.9,7.7,17,16.1,17h387.2c8.5,0,15.7,0.9,15.7-8L465,78L465,78z"/>
	
		<linearGradient id="rect2990_1_" gradientUnits="userSpaceOnUse" x1="-177" y1="-844.5" x2="-177" y2="-1006" gradientTransform="matrix(2 0 0 -2 610 -1546)">
		<stop  offset="0" style="stop-color:#FADD60"/>
		<stop  offset="0.99" style="stop-color:#F5A816"/>
	</linearGradient>
	<polyline id="rect2990" class="st6" points="498,143 498,466 14,466 14,143 	"/>
	<path id="rect3004" class="st7" d="M14,143v62c0-21.4,14.3-38.8,32.3-38.8h419.4c17.9,0,32.3,17.4,32.3,38.8v-62H14z"/>
	<path id="path3801" class="st8" d="M46,46v40.3c0-16.1,7.3-24.2,14.7-24.2h83.7c5.6,0,13.1,0.2,26.2,7.9c3.6,2.2,8,4.5,12.4,8
		l-32-32H46z"/>
	<polygon class="st8" points="183,78 465,78 465,103 207.2,102.7 	"/>
	<rect x="46" y="128" class="st9" width="419" height="15"/>
</g>
<use xlink:href="#新建符号_5"  width="235.8" height="196.4" id="新建符号_5-3" x="-117.9" y="-98.2" transform="matrix(1 0 0 1 255.9 303.7)" style="overflow:visible;"/>
</svg>
