<?xml version="1.0" encoding="utf-8"?>
<!-- Generator: Adobe Illustrator 21.0.0, SVG Export Plug-In . SVG Version: 6.00 Build 0)  -->
<svg version="1.1" id="图层_39" xmlns="http://www.w3.org/2000/svg" xmlns:xlink="http://www.w3.org/1999/xlink" x="0px" y="0px"
	 viewBox="0 0 512 512" style="enable-background:new 0 0 512 512;" xml:space="preserve">
<style type="text/css">
	.st0{opacity:0.08;enable-background:new    ;}
	.st1{opacity:0.2;enable-background:new    ;}
	.st2{opacity:0.1;enable-background:new    ;}
	.st3{fill:#F57F17;}
	.st4{fill:url(#SVGID_1_);}
	.st5{fill:url(#rect2990_1_);}
	.st6{opacity:0.25;fill:#FDEFBA;enable-background:new    ;}
	.st7{opacity:0.1;fill:#E65100;enable-background:new    ;}
	.st8{opacity:0.05;fill:#E65100;enable-background:new    ;}
	.st9{opacity:0.39;fill:#F57F17;enable-background:new    ;}
	.st10{opacity:0.39;}
	.st11{opacity:0.8;}
</style>
<title>0512folder-videos</title>
<g id="_512">
	<polygon class="st0" points="8,480 8,137 40,137 40,40 159,40 191,72 479,72 479,137 512,137 512,480 	"/>
	<polygon class="st1" points="8,472 8,137 40,137 40,40 153,40 185,72 471,72 471,137 504,137 504,472 	"/>
	<polygon class="st2" points="12,476 12,141 44,141 44,44 157,44 189,76 475,76 475,141 508,141 508,476 	"/>
	<path class="st3" d="M152,44H44v97H12v327h488V141h-33V76H184L152,44z"/>
	
		<linearGradient id="SVGID_1_" gradientUnits="userSpaceOnUse" x1="-177.25" y1="-856.5128" x2="-177.25" y2="-796" gradientTransform="matrix(2 0 0 -2 610 -1546)">
		<stop  offset="0" style="stop-color:#F57C00"/>
		<stop  offset="0.16" style="stop-color:#F58F09"/>
		<stop  offset="0.36" style="stop-color:#F59D11"/>
		<stop  offset="0.6" style="stop-color:#F5A515"/>
		<stop  offset="0.99" style="stop-color:#F5A816"/>
	</linearGradient>
	<path class="st4" d="M465,78H183l-32-32H46v104c0,8.9,7.7,17,16.1,17h387.2c8.5,0,15.7,0.9,15.7-8L465,78L465,78z"/>
	
		<linearGradient id="rect2990_1_" gradientUnits="userSpaceOnUse" x1="-177" y1="-844.5" x2="-177" y2="-1006" gradientTransform="matrix(2 0 0 -2 610 -1546)">
		<stop  offset="0" style="stop-color:#FADD60"/>
		<stop  offset="0.99" style="stop-color:#F5A816"/>
	</linearGradient>
	<polyline id="rect2990" class="st5" points="498,143 498,466 14,466 14,143 	"/>
	<path id="rect3004" class="st6" d="M14,143v62c0-21.4,14.3-38.8,32.3-38.8h419.4c17.9,0,32.3,17.4,32.3,38.8v-62H14z"/>
	<path id="path3801" class="st7" d="M46,46v40.3c0-16.1,7.3-24.2,14.7-24.2h83.7c5.6,0,13.1,0.2,26.2,7.9c3.6,2.2,8,4.5,12.4,8
		l-32-32H46z"/>
	<polygon class="st7" points="183,78 465,78 465,103 207.2,102.7 	"/>
	<rect x="46" y="128" class="st8" width="419" height="15"/>
</g>
<path class="st9" d="M367,304c0,61.3-49.7,111-111,111s-111-49.7-111-111s49.7-111,111-111S367,242.7,367,304z M256,211
	c-51.4,0-93,41.6-93,93s41.6,93,93,93s93-41.6,93-93S307.4,211,256,211z"/>
<g class="st10">
	<g class="st11">
		<polygon class="st3" points="321.9,304 222.9,244.5 222.9,363.5 		"/>
	</g>
</g>
</svg>
