<?xml version="1.0" encoding="utf-8"?>
<!-- Generator: Adobe Illustrator 21.0.0, SVG Export Plug-In . SVG Version: 6.00 Build 0)  -->
<svg version="1.1" id="图层_39" xmlns="http://www.w3.org/2000/svg" xmlns:xlink="http://www.w3.org/1999/xlink" x="0px" y="0px"
	 viewBox="0 0 512 512" style="enable-background:new 0 0 512 512;" xml:space="preserve">
<style type="text/css">
	.st0{opacity:0.08;enable-background:new    ;}
	.st1{opacity:0.2;enable-background:new    ;}
	.st2{opacity:0.1;enable-background:new    ;}
	.st3{fill:#F57F17;}
	.st4{fill:url(#SVGID_1_);}
	.st5{fill:url(#rect2990_1_);}
	.st6{opacity:0.25;fill:#FDEFBA;enable-background:new    ;}
	.st7{opacity:0.1;fill:#E65100;enable-background:new    ;}
	.st8{opacity:0.05;fill:#E65100;enable-background:new    ;}
	.st9{fill:#F57F17;fill-opacity:0.39;}
</style>
<title>0512folder-wine</title>
<g id="_512">
	<polygon class="st0" points="8,480 8,137 40,137 40,40 159,40 191,72 479,72 479,137 512,137 512,480 	"/>
	<polygon class="st1" points="8,472 8,137 40,137 40,40 153,40 185,72 471,72 471,137 504,137 504,472 	"/>
	<polygon class="st2" points="12,476 12,141 44,141 44,44 157,44 189,76 475,76 475,141 508,141 508,476 	"/>
	<path class="st3" d="M152,44H44v97H12v327h488V141h-33V76H184L152,44z"/>
	
		<linearGradient id="SVGID_1_" gradientUnits="userSpaceOnUse" x1="200.25" y1="661.9872" x2="200.25" y2="722.5" gradientTransform="matrix(2 0 0 -2 -145 1491)">
		<stop  offset="0" style="stop-color:#F57C00"/>
		<stop  offset="0.16" style="stop-color:#F58F09"/>
		<stop  offset="0.36" style="stop-color:#F59D11"/>
		<stop  offset="0.6" style="stop-color:#F5A515"/>
		<stop  offset="0.99" style="stop-color:#F5A816"/>
	</linearGradient>
	<path class="st4" d="M465,78H183l-32-32H46v104c0,8.9,7.7,17,16.1,17h387.2c8.5,0,15.7,0.9,15.7-8L465,78L465,78z"/>
	
		<linearGradient id="rect2990_1_" gradientUnits="userSpaceOnUse" x1="200.5" y1="674" x2="200.5" y2="512.5" gradientTransform="matrix(2 0 0 -2 -145 1491)">
		<stop  offset="0" style="stop-color:#FADD60"/>
		<stop  offset="0.99" style="stop-color:#F5A816"/>
	</linearGradient>
	<polyline id="rect2990" class="st5" points="498,143 498,466 14,466 14,143 	"/>
	<path id="rect3004" class="st6" d="M14,143v62c0-21.4,14.3-38.8,32.3-38.8h419.4c17.9,0,32.3,17.4,32.3,38.8v-62H14z"/>
	<path id="path3801" class="st7" d="M46,46v40.3c0-16.1,7.3-24.2,14.7-24.2h83.7c5.6,0,13.1,0.2,26.2,7.9c3.6,2.2,8,4.5,12.4,8
		l-32-32H46z"/>
	<polygon class="st7" points="183,78 465,78 465,103 207.2,102.7 	"/>
	<rect x="46" y="128" class="st8" width="419" height="15"/>
</g>
<path id="_复合路径_" class="st9" d="M228.1,196c-12.1,0-26.9,3.2-44.6,10.8l-24.1,80.9c19.3-7.6,34.2-11.2,47-11.2
	c19.3,0,32.6,8,45.4,16.4l23.7-80.9C262.2,203.2,248.2,195.6,228.1,196z M288,220.4l-23.7,81.3c20.9,14,45.8,25.2,92,5.2L380,226
	C331.8,245.7,308.9,234.5,288,220.4z M200.4,292.1c-12.1,0.4-26.9,3.6-44.6,10.8h-0.4L132,383.4c48.2-19.6,70.7-8,91.6,5.6
	l24.1-81.7C234.5,298.9,220.8,291.7,200.4,292.1L200.4,292.1z M260.3,315.4l-23.7,80.5c20.9,14,43.8,25.2,92,5.6l22.9-78.4
	C302.4,339.4,281.1,329.4,260.3,315.4L260.3,315.4z"/>
</svg>
