<?xml version="1.0" encoding="utf-8"?>
<!-- Generator: Adobe Illustrator 21.1.0, SVG Export Plug-In . SVG Version: 6.00 Build 0)  -->
<svg version="1.1" id="文件夹" xmlns="http://www.w3.org/2000/svg" xmlns:xlink="http://www.w3.org/1999/xlink" x="0px" y="0px"
	 viewBox="0 0 512 512" style="enable-background:new 0 0 512 512;" xml:space="preserve">
<style type="text/css">
	.st0{fill:none;stroke:#808080;stroke-width:16;stroke-miterlimit:10;}
</style>
<title>512</title>
<g id="_512">
	<polyline class="st0" points="500,492 96,492 96,164 238,164 298,230 492,230 492,500 	"/>
	<polyline class="st0" points="20,54 20,20 54,20 	"/>
	<line class="st0" x1="328" y1="86" x2="360" y2="86"/>
	<line class="st0" x1="20" y1="222" x2="20" y2="246"/>
	<line class="st0" x1="416" y1="140" x2="416" y2="164"/>
	<line class="st0" x1="20" y1="78" x2="20" y2="102"/>
	<polyline class="st0" points="38,348 20,348 20,318 	"/>
	<line class="st0" x1="20" y1="126" x2="20" y2="150"/>
	<polyline class="st0" points="416,116 416,86 384,86 	"/>
	<line class="st0" x1="20" y1="174" x2="20" y2="198"/>
	<line class="st0" x1="78" y1="20" x2="102" y2="20"/>
	<line class="st0" x1="20" y1="270" x2="20" y2="294"/>
	<line class="st0" x1="416" y1="182" x2="416" y2="198"/>
	<line class="st0" x1="274" y1="86" x2="306" y2="86"/>
	<line class="st0" x1="64" y1="348" x2="52" y2="348"/>
	<polyline class="st0" points="214.7,78 222,86 252,86 	"/>
	<line class="st0" x1="188" y1="48.6" x2="205.6" y2="68"/>
	<polyline class="st0" points="126,20 162,20 178,37.6 	"/>
</g>
</svg>
