<?xml version="1.0" encoding="utf-8"?>
<!-- Generator: Adobe Illustrator 17.1.0, SVG Export Plug-In . SVG Version: 6.00 Build 0)  -->
<!DOCTYPE svg PUBLIC "-//W3C//DTD SVG 1.1//EN" "http://www.w3.org/Graphics/SVG/1.1/DTD/svg11.dtd">
<svg version="1.1"
	 id="svg2" inkscape:export-filename="/media/Data/Main/Visuals/Icons/Numix/Desktop/repos/numix-wiki/Gjorgi/Numix-folders/48/New/folder-144.png" xmlns:svg="http://www.w3.org/2000/svg" xmlns:sodipodi="http://sodipodi.sourceforge.net/DTD/sodipodi-0.dtd" xmlns:inkscape="http://www.inkscape.org/namespaces/inkscape" xmlns:dc="http://purl.org/dc/elements/1.1/" xmlns:cc="http://creativecommons.org/ns#" xmlns:rdf="http://www.w3.org/1999/02/22-rdf-syntax-ns#" inkscape:export-ydpi="270" inkscape:export-xdpi="270" sodipodi:docname="user-home.svg" inkscape:version="0.48.4 r9939"
	 xmlns="http://www.w3.org/2000/svg" xmlns:xlink="http://www.w3.org/1999/xlink" x="0px" y="0px" width="512px" height="512px"
	 viewBox="0 0 512 512" enable-background="new 0 0 512 512" xml:space="preserve">
<symbol  id="新建符号" viewBox="-120 -121.6 240 243.2">
	<g>
		<g>
			<g>
				<g>
					<path opacity="0.39" fill="#F57F17" enable-background="new    " d="M-20.4-53.8C-36.6-41.8-47-22.6-47-0.8
						c0,22.2,11,41.6,27.6,53.6l-18.2,30.8C-57.8,70-73,49.4-79.2,25.2C-71.2,19.6-66,10.4-66,0c0-10.6-5.4-19.8-13.4-25.4
						C-73.2-50-58-71-37.6-84.8L-20.4-53.8z"/>
				</g>
				<g>
					<path opacity="0.39" fill="#F57F17" enable-background="new    " d="M-8,59.2c8.2,3.6,17.2,5.6,26.8,5.6
						c34,0,61.8-25.6,65.4-58.6L120,6.6c-1.8,25-12.8,47.6-29.6,64.2c-4.2-2-8.8-3.2-13.6-3.2c-16.4,0-29.8,12.8-30.6,29
						c-8.6,2.4-17.8,3.8-27.2,3.8c-16.2,0-31.4-3.8-45-10.6L-8,59.2z"/>
				</g>
				<g>
					<path opacity="0.39" fill="#F57F17" enable-background="new    " d="M77-67.8c5.2,0,10.2-1.4,14.6-3.6c16.6,17,27,39.8,28.4,65
						L84.2-6.8c-3-33.6-31.2-59.8-65.6-59.8c-10,0-19.4,2.2-27.8,6.2l-17.4-31.2c13.6-6.8,29-10.6,45.2-10.6
						c9.6,0,18.8,1.4,27.6,3.8C46.4-81.6,60-67.8,77-67.8z"/>
				</g>
			</g>
			<g>
				<path opacity="0.39" fill="#F57F17" enable-background="new    " d="M77-75.6c12.7,0,23-10.3,23-23s-10.3-23-23-23
					s-23,10.3-23,23S64.3-75.6,77-75.6z"/>
			</g>
			<g>
				<path opacity="0.39" fill="#F57F17" enable-background="new    " d="M76.6,121.6c12.7,0,23-10.3,23-23s-10.3-23-23-23
					s-23,10.3-23,23S63.9,121.6,76.6,121.6z"/>
			</g>
			<g>
				<path opacity="0.39" fill="#F57F17" enable-background="new    " d="M-97,22.8c12.7,0,23-10.3,23-23s-10.3-23-23-23
					s-23,10.3-23,23S-109.7,22.8-97,22.8z"/>
			</g>
		</g>
	</g>
</symbol>
<polygon opacity="8.000000e-002" enable-background="new    " points="8,479.7 8,137.1 40.3,137.1 40.3,40.3 159.1,40.3 191.2,72.5 
	479.7,72.5 479.7,122.7 479.9,122.7 479.9,137.1 512,137.1 512,479.7 "/>
<polygon opacity="9.999999e-002" enable-background="new    " points="12,475.7 12,141.1 44.3,141.1 44.3,44.3 157.4,44.3 
	189.5,76.5 475.7,76.5 475.7,126.7 475.9,126.7 475.9,141.1 508,141.1 508,475.7 "/>
<sodipodi:namedview  id="base" inkscape:cx="35.66124" pagecolor="#ffffff" showguides="true" inkscape:zoom="5.6530318" showgrid="true" borderopacity="1.0" inkscape:cy="21.321632" bordercolor="#666666" inkscape:pageopacity="0.0" inkscape:window-x="0" inkscape:guide-bbox="true" inkscape:pageshadow="2" inkscape:window-height="1023" inkscape:document-units="px" inkscape:window-width="1920" inkscape:window-y="28" inkscape:current-layer="layer1" inkscape:window-maximized="1">
	<inkscape:grid  type="xygrid" visible="true" enabled="true" id="grid2985" empspacing="5" snapvisiblegridlinesonly="true">
		</inkscape:grid>
</sodipodi:namedview>
<polygon opacity="0.2" enable-background="new    " points="8,471.7 8,137.1 40.3,137.1 40.3,40.3 153.4,40.3 185.5,72.5 
	471.7,72.5 471.7,122.7 471.9,122.7 471.9,137.1 504,137.1 504,471.7 "/>
<polygon fill="#F57F17" points="12,467.7 12,141.1 44.3,141.1 44.3,44.3 151.8,44.3 183.8,76.5 467.7,76.5 467.7,126.7 467.9,126.7 
	467.9,141.1 500,141.1 500,467.7 "/>
<g>
	
		<linearGradient id="SVGID_1_" gradientUnits="userSpaceOnUse" x1="256" y1="-165.2185" x2="256" y2="-44.2" gradientTransform="matrix(1 0 0 -1 0 2)">
		<stop  offset="0" style="stop-color:#F57C00"/>
		<stop  offset="0.1638" style="stop-color:#F58F09"/>
		<stop  offset="0.3598" style="stop-color:#F59D11"/>
		<stop  offset="0.5982" style="stop-color:#F5A515"/>
		<stop  offset="0.9946" style="stop-color:#F5A816"/>
	</linearGradient>
	<path fill="url(#SVGID_1_)" d="M465.7,78.5H183l-32.1-32.3H46.3v32.3v32.3v40.3c0,8.9,7.7,16.1,16.1,16.1h387.2
		c8.5,0,16.1,0.8,16.1-8.1C465.7,143.3,465.7,78.5,465.7,78.5z"/>
	
		<linearGradient id="rect2990_1_" gradientUnits="userSpaceOnUse" x1="256" y1="-141.1" x2="256" y2="-463.7" gradientTransform="matrix(1 0 0 -1 0 2)">
		<stop  offset="0" style="stop-color:#FADD60"/>
		<stop  offset="0.9946" style="stop-color:#F5A816"/>
	</linearGradient>
	<polyline id="rect2990_2_" fill="url(#rect2990_1_)" points="498,143.1 498,465.7 14,465.7 14,143.1 	"/>
	<path id="rect3004_1_" inkscape:connector-curvature="0" opacity="0.25" fill="#FDEFBA" enable-background="new    " d="M14,143.1
		V205c0-21.4,14.3-38.7,32.3-38.7h419.5c17.9,0,32.3,17.3,32.3,38.7v-61.9H14z"/>
	<path id="path3801_1_" inkscape:connector-curvature="0" opacity="0.1" fill="#E65100" enable-background="new    " d="M46.3,46.3
		c0,0,0,8.1,0,24.2v16.1c0-16.1,7.3-24.2,14.7-24.2h83.7c5.6,0,13.1,0.2,26.2,7.9c3.6,2.2,7.7,4.8,12.1,8.3l-32.1-32.3H46.3z"/>
	<polygon opacity="0.1" fill="#E65100" enable-background="new    " points="183,78.5 465.7,78.5 465.7,102.7 207.2,102.7 	"/>
	<rect x="46.3" y="128.7" opacity="5.000000e-002" fill="#E65100" enable-background="new    " width="419.7" height="14.3"/>
</g>
<use xlink:href="#新建符号"  width="240" height="243.2" x="-120" y="-121.6" transform="matrix(1 0 0 -1 248 312)" overflow="visible"/>
</svg>
