<?xml version="1.0" encoding="utf-8"?>
<!-- Generator: Adobe Illustrator 17.1.0, SVG Export Plug-In . SVG Version: 6.00 Build 0)  -->
<!DOCTYPE svg PUBLIC "-//W3C//DTD SVG 1.1//EN" "http://www.w3.org/Graphics/SVG/1.1/DTD/svg11.dtd">
<svg version="1.1"
	 id="svg2" inkscape:export-filename="/media/Data/Main/Visuals/Icons/Numix/Desktop/repos/numix-wiki/Gjorgi/Numix-folders/48/New/folder-144.png" xmlns:svg="http://www.w3.org/2000/svg" xmlns:sodipodi="http://sodipodi.sourceforge.net/DTD/sodipodi-0.dtd" xmlns:inkscape="http://www.inkscape.org/namespaces/inkscape" xmlns:dc="http://purl.org/dc/elements/1.1/" xmlns:cc="http://creativecommons.org/ns#" xmlns:rdf="http://www.w3.org/1999/02/22-rdf-syntax-ns#" inkscape:export-ydpi="270" inkscape:export-xdpi="270" sodipodi:docname="folder.svg" inkscape:version="0.48.4 r9939"
	 xmlns="http://www.w3.org/2000/svg" xmlns:xlink="http://www.w3.org/1999/xlink" x="0px" y="0px" width="512px" height="512px"
	 viewBox="0 0 512 512" enable-background="new 0 0 512 512" xml:space="preserve">
<polygon opacity="8.000000e-002" enable-background="new    " points="8,479.8 8,137.1 40.3,137.1 40.3,40.3 159.1,40.3 191.2,72.5 
	479.7,72.5 479.7,137.1 512,137.1 512,479.8 "/>
<polygon opacity="0.2" enable-background="new    " points="8,471.8 8,137.1 40.3,137.1 40.3,40.3 153.4,40.3 185.5,72.5 
	471.7,72.5 471.7,137.1 504,137.1 504,471.8 "/>
<polygon opacity="0.1" enable-background="new    " points="12,475.8 12,141.1 44.3,141.1 44.3,44.3 157.4,44.3 189.5,76.5 
	475.7,76.5 475.7,141.1 508,141.1 508,475.8 "/>
<path fill="#F57F17" d="M151.8,44.3H151H46.3h-2v2v24.2v8.1v8.1v24.2v30.3H14h-2v2v43.2v279.5v2h2h484h2v-2V186.2V143v-2h-2h-30.3
	v-38.3V78.5v-2h-2H183.8l-31.5-31.7L151.8,44.3L151.8,44.3z"/>
<linearGradient id="SVGID_1_" gradientUnits="userSpaceOnUse" x1="128" y1="339.6093" x2="128" y2="279.1" gradientTransform="matrix(2 0 0 2 0 -512)">
	<stop  offset="0" style="stop-color:#F57C00"/>
	<stop  offset="0.1638" style="stop-color:#F58F09"/>
	<stop  offset="0.3598" style="stop-color:#F59D11"/>
	<stop  offset="0.5982" style="stop-color:#F5A515"/>
	<stop  offset="0.9946" style="stop-color:#F5A816"/>
</linearGradient>
<path fill="url(#SVGID_1_)" d="M465.7,78.5H183l-32.1-32.3H46.3v32.3v32.3v40.3c0,8.9,7.7,16.1,16.1,16.1h387.2
	c8.5,0,16.1,0.8,16.1-8.1C465.7,143.3,465.7,78.5,465.7,78.5z"/>
<linearGradient id="rect2990_1_" gradientUnits="userSpaceOnUse" x1="128" y1="327.55" x2="128" y2="488.85" gradientTransform="matrix(2 0 0 2 0 -512)">
	<stop  offset="0" style="stop-color:#FADD60"/>
	<stop  offset="0.9946" style="stop-color:#F5A816"/>
</linearGradient>
<polyline id="rect2990_2_" fill="url(#rect2990_1_)" points="498,143.1 498,465.7 14,465.7 14,143.1 "/>
<path id="rect3004" inkscape:connector-curvature="0" opacity="0.25" fill="#FDEFBA" enable-background="new    " d="M14,143.1v62
	c0-21.4,14.3-38.8,32.3-38.8h419.5c17.9,0,32.3,17.4,32.3,38.8v-62H14z"/>
<path id="path3801" inkscape:connector-curvature="0" opacity="0.1" fill="#E65100" enable-background="new    " d="M46.3,46.3
	c0,0,0,8.1,0,24.2v16.1c0-16.1,7.3-24.2,14.7-24.2h83.7c5.6,0,13.1,0.2,26.2,7.9c3.6,2.2,7.7,4.8,12.1,8.3l-32.1-32.3H46.3z"/>
<polygon opacity="0.1" fill="#E65100" enable-background="new    " points="183,78.5 465.7,78.5 465.7,102.7 207.2,102.7 "/>
<rect x="46.3" y="128.6" opacity="5.000000e-002" fill="#E65100" enable-background="new    " width="419.7" height="14.4"/>
</svg>
