<?xml version="1.0" encoding="utf-8"?>
<!-- Generator: Adobe Illustrator 21.0.0, SVG Export Plug-In . SVG Version: 6.00 Build 0)  -->
<svg version="1.1"
	 id="svg2" inkscape:export-filename="/media/Data/Main/Visuals/Icons/Numix/Desktop/repos/numix-wiki/Gjorgi/Numix-folders/48/New/folder-144.png" inkscape:export-xdpi="270" inkscape:export-ydpi="270" inkscape:version="0.48.4 r9939" sodipodi:docname="user-home.svg" xmlns:cc="http://creativecommons.org/ns#" xmlns:dc="http://purl.org/dc/elements/1.1/" xmlns:inkscape="http://www.inkscape.org/namespaces/inkscape" xmlns:rdf="http://www.w3.org/1999/02/22-rdf-syntax-ns#" xmlns:sodipodi="http://sodipodi.sourceforge.net/DTD/sodipodi-0.dtd" xmlns:svg="http://www.w3.org/2000/svg"
	 xmlns="http://www.w3.org/2000/svg" xmlns:xlink="http://www.w3.org/1999/xlink" x="0px" y="0px" viewBox="0 0 512 512"
	 style="enable-background:new 0 0 512 512;" xml:space="preserve">
<style type="text/css">
	.st0{opacity:0.78;fill:url(#SVGID_1_);enable-background:new    ;}
	.st1{fill:#F57F17;fill-opacity:0.39;}
	.st2{opacity:0.08;enable-background:new    ;}
	.st3{opacity:0.1;enable-background:new    ;}
	.st4{opacity:0.2;enable-background:new    ;}
	.st5{fill:#F57F17;}
	.st6{fill:url(#SVGID_2_);}
	.st7{fill:url(#rect2990_1_);}
	.st8{opacity:0.25;fill:#FDEFBA;enable-background:new    ;}
	.st9{opacity:0.1;fill:#E65100;enable-background:new    ;}
	.st10{opacity:0.05;fill:#E65100;enable-background:new    ;}
</style>
<symbol  id="新建符号_12" viewBox="-122.5 -120.8 245 241.6">
	
		<linearGradient id="SVGID_1_" gradientUnits="userSpaceOnUse" x1="0.1" y1="-67554.7969" x2="0.1" y2="-67313.2031" gradientTransform="matrix(1 0 0 -1 0 -67434)">
		<stop  offset="0" style="stop-color:#FADD60"/>
		<stop  offset="0.8656" style="stop-color:#F5A816"/>
	</linearGradient>
	<path class="st0" d="M120.9,0c0-66.6-54-120.8-120.8-120.8S-120.7-66.5-120.7,0S-66.5,120.8,0.1,120.8S120.9,66.6,120.9,0z"/>
	<path class="st1" d="M-79.2,91c0,0,2.4-1.4,3.4-3.4c0.8-2.2,3.4-2.2,3.4-2.2h3.8l5.6,1.8l-1.4-3c0,0-29.6-13.7-23.6-21.8
		c6.1-8.1,3.8-10.3,3.8-12.7s1.8-0.4,1.8-0.4l1.8,4.6l2.4,3.4l2.4,3.8l0.8,2.2l3.4,6l4.2,2.4l3.8-2.4c0,0,1.8-0.8,1.4-2.2
		c-0.4-1.4-0.8-3.8-0.8-3.8s0.8-1.8,2.2-1.8s3.4,1.4,3.4,1.4l1.8-3l1.4-5.6l3.4-3.4l1.8-3.8l-1.8-3.4l1.8-1.4l3.8-4.2l0.8-2.2
		l-6.5,0.4c0,0-0.8,1.8-2.2,1.8s-6.9,0.4-6.9,0.4l-3-0.8l-1.8-2.2c0,0-2.2-3.4-3.4-3.4c-1.2,0-4.6,0.8-4.6,0.8s-2.4,0.8-3.8-1.8
		c-0.9-2.7,2.7-4.1,2.7-4.1l-6.1-1.8l-1.8-0.8c0,0-4.2-1.8-4.2-3c0-1.4,0-1.4,0-1.4l-1.4-3.4v-2.2l-3-2.4l-3-2.2l-1.5-2.5V3
		c0,0-0.4-2.2-0.4-3.4s0-4.6,0-4.6s-1.4-1.4-2.2,1.4c-0.8,2.4-0.8,2.4-0.8,2.4l-1.4,3c0,0,1.4,0.4-0.4,1.8s-3.4,1.8-3.4,1.8
		s-0.8,0.8-2.4,0.8s2.2-0.4-1.8,0c-3.8,0.4-3.8,0.4-3.8,0.4l-3-2.4V2c0,0-0.8-15.1,3.4-17.1h1.8l2.4,3.8l2.2-0.8v-1.8l-0.4-3v-1.8
		l2.2-2.2l1.4-3.8c1.8-3,0.8-3.8,2.2-4.6c1.4-0.8,2.4-3,2.4-3l1.8-0.8c0,0,1.4-0.4,2.4-0.8c1.4-0.4,1.4-0.4,1.4-0.4l0.4-2l0.4-1.6
		l1.8-2.2c0,0-1.4,0,1.8,0c3.2,0,3,0,3,0s0-0.8,2.2-1.8c2.2-0.8,0.4-0.4,2.2-0.8s4.6-0.8,4.6-0.8c3,0.4,3,0.4,3,0.4l2.2-3
		c0,0,1.4,0,1.8-1.4s-2.2,0,0.4-1.4c2.4-1.4,0-0.4,2.4-1.4s-0.8-0.8,2.4-0.8c3.2,0,3.8,0,5.2-0.4s2.2-3.4,2.2-3.4c2.4-3,2.4-3,2.4-3
		l0.4-3.8c0,0-1.4-0.8,1.8-0.8s0.8,0,3,0s-0.4,0.8,2.2,0c2.4-0.8,2.4-0.8,2.4-0.8s3.8-3,5.2-3s3.8,0.4,5.2,0c1.4-0.4,2.2-2.4,4.6-3
		c2.4-0.4,3.4,0,5.2-1.4s1.8-1.4,1.8-1.4l0.4-4.6l-1.4-2.4l-3.4-1.4l-0.4-4.2l-1.8-4.2v-2.2c0,0,2.2-1.8-1.8-2.2
		c-3.8-0.4-3.8-0.4-3.8-0.4l-1.8-1.8c0,0,0-0.4-0.8-1.8s-1.8-3.4-1.8-3.4l0.4-3.8v-2.4l-1.4-2.2c0,0-1.2-0.6,2.2-2.6
		c3.4-2.2,6.3-2.2,6.9-3.4c0.8-1.4,2.8-2.4,2.8-2.4l-4.6,1l-2.8,1l-4.8,1.4l-9.3,4.8c0,0-13.9,11.5-18.2,20.6c0,0-3.6,5.4-9.9,7.7
		c0,0-15.3,13.9-16.5,17.3l-0.6,2.2v1.2l-0.6,0.6v1.4l-0.4,1l0.2,4.2l0.2,2.8l0.2,1.6l-0.2,1.2c0,0-0.8,0.8-0.8,1s-0.6,2-0.6,2
		l-0.2,0.6l2.2,2l-0.6,1.8l0.4,1l1.4,1c0,0,0.8,1.2,0.8,1.4c0,0.4-1.4,1.4-1.4,1.4l-0.6-0.2l-0.6-1.8h-0.8c0,0-0.8,0.4-0.8,0.6
		s-0.8,1-0.8,1l-1,0.4c0,0-0.8,0.2-1,0.6c-0.2,0.4-1.2,1-1.2,1.2s-0.8,1.4-0.8,1.4l-1,0.4c0,0-1.2,1.8-1.2,2.2
		c0,0.2-0.6,1.2-0.6,1.2s-1.4,1.6-1.4,1.8s-0.6,1.6-0.6,1.6h-1l-2.2,0.8l-1.4,1.8l-1.6,1.8c0,0-0.8,1.4-0.8,1.8s-0.6,0.8-0.6,0.8h-1
		h-0.6l-1.4,1.2l-3.4,4.8l-0.6,2.2l-0.6,2.2l-0.4,3.8v2.4l-1.6,17.9C-120.5,15.3-115.3,59.7-79.2,91z"/>
	<path class="st1" d="M57.2,106.1l3.8-3l2-1l1.4-1.6l0.2-1.6c0,0,0.4-1.6,0.2-2c-0.2-0.4-0.4-2.4-0.4-2.4s1.8-3,1.8-3.4
		s0.2-2.2-0.2-2.4c-0.4-0.2-2.4-1.6-2.6-1c-0.2,0.6-1.6,2-2,2c-0.4,0.2-1.6,1.4-1.6,1.4l3,0.4l-0.4,2c0,0-2.2,0.8-2.6,0.8
		c-0.6,0.2-2.6,1.4-2.6,1.4L55,96.3c0,0-3.8,1-4.2,1.2s-2,0.8-2,0.8h-3.2c0,0-1.6-0.8-2-1.2c-0.2-0.4-2.2-2.4-2.2-2.4
		s-0.2-2.4-0.2-2.8s-0.6-1.4-0.6-2.4c0-1.2-0.2-2.6-0.2-3s0-1,0-1L40,83.7l-1.4-0.8l-1.8-1.4c0,0-1.6-1.2-1.6-1.6s0-2,0.6-3
		c0.6-1.2,0.4-2.2,1.2-2.8c0.8-0.6,1.2-1.4,1.8-1.6s0.2-0.4,1.2-0.4c0.8,0,1.6-0.2,2,0.2c0.4,0.2,1.4,0.2,1.8,0.8
		c0.4,0.6-0.4,0.2,0.4,0.6c0.8,0.2,0.8,0.8,1.4,0.2c0.8-0.6,1.4-1.4,1.6-1.8c0.2-0.4,0.8-1.4,1.4-2c0.8-0.4,1.4-2,1.4-2l1.2-1.2
		c0,0,0.2-0.2,1-0.2s2,0.2,2,0.2l0.4,0.8c0,0,0.8-0.2,1,0.2s0.2,1,0.2,1s-0.4,1.2-0.8,1.6c-0.2,0.4-0.6,1.4-0.6,1.4l0.2,1.4l0.8,0.8
		l0.2,1V76l-0.8,0.4l-1.4,0.8c0,0-0.8-0.2-0.8,0.8c-0.2,0.8-0.2,0.8-0.2,0.8l-1.8,0.4l-1.2,0.6l1.4,1c0.8,1.4,1,1.8,1,2.2
		s-0.2,1.6-0.2,1.6s-0.8,0.2-0.8,1.2c-0.2,1-0.2,1.6-0.2,1.6l0.2,0.8c0,0,0.2,0.6,0.8,0.6c0.4,0,1.2-0.6,1.6-0.6
		c0.4,0,1.2-0.2,1.2-0.2s0.4-0.2,0.4-0.8c0-0.4-0.2-1.4-0.2-1.4l0.8,1.2v-1.4L55.2,84v-1.6l0.8-1.6l0.8-1.2c0,0,1-1,1.4-1.4
		c0.4-0.2,1.4-1,1.4-1l1.2-0.6l0.8-0.2l0.8,0.8c0,0,1.4-0.2,1.4,0.2c0.2,0.4,0.2,0.4,0.2,0.4s1.6,0.2,2,0.2s1.2,0,1.2,0
		s0.6-1.2,0.2-1.2s-0.6-0.4-1.6-0.8c-1-0.2-1.4,0-1.6-0.4s-0.8-1.4-0.8-1.4l0.8-0.2h0.6l0.8-0.8c0,0,0.2-0.2,0-0.8
		c-0.2-0.6,0.8-0.4-0.2-0.6c-1.2-0.2-1.8,0.2-1.8,0.2s-0.2,1-0.8,0.6c-0.4-0.4-0.6-1.4-0.6-1.4v-1.4l0.8-2c0,0,0.4-0.4,0-0.6
		s-1.8-1.8-1.8-1.8s-0.2-0.6-0.8-0.6c-0.4,0-1,0-2-0.2c-0.8-0.2-0.8-0.2-1.6-0.4c-0.8-0.2-1.4-0.4-2.4-0.6c-1-0.2-3.2-0.2-4-0.2
		s-1,0-1.4,0.2s-0.2,0-0.8,0.8s-1.2,1.4-1.2,2c0,0.4,0,0.6-0.2,1.4s-0.2,1.4-0.8,1.4c-0.8,0-0.8,0-0.8,0s-1.6-1.2-1.4-1.6
		c0.2-0.4-0.2,0,1.2-1s1.8-2.2,1.8-2.2L46.6,63l-2.5-1.5l-1.8-0.6l-0.2-1.2c0,0,0-0.4-0.4-1s-1.4-1.4-1.4-1.4s-0.8-0.2-1-0.8
		c-0.2-0.4-0.8-2-0.8-2s-0.8,0.2-1.6-0.4c-0.8-0.6,0.2-0.6-1.6-1.4c-1.8-0.8-1.8-0.8-1.8-0.8l-2,0.2l-1.4-0.5c0,0-1.6-0.2-1.8-0.6
		c-0.2-0.4-1-1.6-1-1.6s-0.4-0.8,0-0.8c0.4-0.2,1,0,2-0.2c0.8-0.2,1-0.2,1.6-0.6c0.6-0.2,1.2-0.8,1.2-0.8l2.2-2l1.2-2.4l-0.2-2
		l-2.2-0.8c0,0-1.4,0-2,0c-0.4,0-0.2,0-2.4,0s-2.6,0-3,0s-2,0.2-2,0.2l-1.4-0.2l-1-0.8l-0.6-0.2c0,0,0.8-1.8,0.8-2.2s0-1.4,0-1.4
		L21.3,34l-0.6-1.4l-0.8-1.4l0.2-0.8c0,0-0.2-0.6,0.2-0.6c0.4,0,1.6,0.2,1.6-0.2c0-0.4-1-2-1-2l2-0.4c0,0-0.2,0.2,1-0.2
		c1.2-0.2,2-0.6,2-0.6l1.4-1l0.4-0.8l0.4,0.8c0,0,2.2,0.2,2.4,0.4c0.4,0.2,1.4,0.2,1.4,0.2h1.8c0,0,0.4-0.2,0.8,0.2
		c0.2,0.4,0.2,0.4,0.2,0.4s2,0.8,2.2,1.2c0.4,0.2,0.6,1.4,0.6,1.4s0.6,0.4,0.6,0.8s-0.4,1.4-0.4,1.4v0.8l0.6,0.8
		c0,0,0.2,0.2,0.8,0.8s0.6,0.6,0.6,0.6s-0.2,0.2,0.6,0.6c0.8,0.2,1.4,0.8,1.8,0.8c0.4,0-0.4-0.4,0.4,0c0.8,0.4,1,0.8,1,1.4
		c0,0.4,0.2,2.4,0.2,2.4l0.8,1.2l2-0.2l1-0.2c0,0,1.2-0.2,1.4,0.2s0.8,0.8,0.8,0.8l1.6,0.8c0,0-0.2,0.2,0.6,0.2s2,0,2.4,0
		s1.4,0,1.4,0s0.8-0.4,1.2-0.8c0.2-0.4,0.8-1.4,0.8-1.4l0.6-0.8h0.6c0.8-0.6,1.2-1,2.4-1.4c1.4-0.4,2.2-0.8,2.2-0.8s0.4-0.8,0.8-1.2
		s0.8-0.8,1.4-1.2c0.4-0.2,0.8-0.6,1-1s0.8-1.2,0.8-1.2l0.8-0.8l0.4,0.8V34l-0.2,0.8c0,0-0.8,0.6,0.2,0.6c0.8,0,1.4,0,1.4,0
		l-0.8,1.2l-1,0.4l-1.4,1l-0.6,0.6l-0.6,0.2l-0.6,0.4l-0.8,0.6c0,0-1.4,0.2-1.4,0.8C62.7,41,62.7,41,62.7,41l-1.4,0.2
		c0,0-1.4,0.8-1.4,1.2S59.7,44,59.7,44l-1.2,0.2c0,0,0.2,0.8,0.2,1.4c0,0.4,0.4,1,0.4,1l2.4,0.2l0.6-1.4l1-0.6l1.4-0.6l0.6-0.8
		l0.6-0.6c0,0,0.2-0.2,1-0.4s1.4-0.4,1.4-0.4s0.8-0.8,1.4-0.8c0.6-0.2,0.8-0.4,1.4-0.6c-0.4-0.4-0.4-0.4-0.4-0.4s0.2-0.4,0.8-0.8
		c0.6-0.4,1.2-1.2,1.2-1.6s0.4-1.8,0.8-2s0.6-0.2,1.4-1s0.8-1.6,1.4-2c0.8-0.2,1.4,0,1.4-0.8c0.2-0.8,0.2-1.4,0.2-1.4s0.6-0.2,1-0.2
		s1.2,0.8,1.2,0.8s0.8,1.2,0.2,1.4c-0.4,0.2-1.4,0.2-1.4,0.6s0,2.4,0,2.4l0.6,1.4l0.8,1.2l1.2-0.4l1.2,0.8l1.2-1.4l-0.4-1.6
		c0,0,0.2-1,0.8-1.8c0.4-0.8,1.4-1.8,1.4-1.8l2-1.8l2.6-0.8l0.6,0.2l4,0.8c0,0,0.6,0,1,0s2.2-3.2,2.2-3.2s0-1.4,0-2.2
		c0-0.8,0-2.6,0-2.6s-1.4-1.4-2-1.4s-2.2-0.8-2.2-0.8l-2.6-1l-2.2,0.2l-3.8,0.2c0,0-3.8,0.2-4.2,0.2c-0.4,0-1.8,0-2.2,0
		s-1-0.4-1.4-1.6s-1.2-1.6-1.2-1.6s0-0.6-0.8-0.6s-0.8-0.2-1.4,0.2c-0.6,0.4-3.2,1-3.2,1L68.1,19l-1.4,1.2l-1.4,0.2h-3.8l-2.4,0.2
		l0.4,4l0.4-1.2L59,26l-1.2,0.8l-2.6,0.6l-1.8-0.2l-2.3-0.6l-2.2-0.8l-1.4-0.4l-6.7-1.2l-2.2-1c0,0-1-0.6-1.4-0.8
		c-0.4-0.2-2-0.2-2-0.2s-1.2,0.2-1.8,0.4c-0.6,0.2-2,0.2-2.4,0.2c-0.6,0-1.8,0.2-2.2,0c-0.4-0.2-0.8-0.2-1.2-0.8
		c-0.4-0.6-1.8-2.2-1.8-2.2S25,19,24.6,18.6c-0.2-0.4-1.2-1.6-1.2-1.6l-1.6-2.4l-1-1.2L21,12v-1c0,0-0.6-0.6-1-0.8s-1.2-0.6-1.2-0.6
		s-0.6-0.2-1.2-0.8c-0.6-0.4-0.6-0.6-1-1c-0.4-0.4-1.8-1.4-1.8-1.4s-1-0.8-1.6-1.4c-0.4-0.6-1.2-1.4-1.4-1.8s-0.8-0.8-1.2-1
		C10.2,2,9.4,0.4,9.2,0S7.8-2.2,7.8-2.2L7-5.4L6.8-7.1c0,0,0.2-0.6,0.6-1c0.4-0.4,0.8-2,0.8-2v-1.4c0,0-0.4-1.2-0.6-1.6
		c-0.2-0.4,0.2-2.2,0.2-2.2v-1.2c0,0,0-0.4-0.6-1S6.4-19,6.4-19l0.8-1.8L7.8-22v-0.8l0.8-1.4c0,0,0.4-0.4,0.8-0.8
		c0.4-0.2,0.6-0.2,1.4-0.8c0.8-0.4,0.8-0.4,0.8-0.4s1.2-1.4,1.2-2c0-0.4,0.8-1.2,0.8-1.2l1.4-1.4c0,0,0.2-0.8,1-1.4
		c0.8-0.6,1.6-1,2-1.4c0.4-0.2,1.6-1.2,2.4-1.4s1.2-0.4,1.6-0.4s-0.6,1.2,2.2-0.2c2.6-1.4,4.4-2,4.4-2l2-0.8c0,0,3-0.2,3.4,0.2
		c0.4,0.2,1,0.2,1.4,0.2s1.4,0,2.2,0s3.4,0.4,3.4,0.4l3,1.2c0,0,1,0.6,1.4,0.8s1.6,1,2,1.2s2.2,0.2,2.2,0.2s0,0.6,0.8,0
		s0.8-0.8,1-1.2s0.2-1.4,0.8-1.4c0.6-0.2,2-0.6,2-0.6s2,0.2,2.4,0c0.6-0.2,2-0.2,2-0.2l0.6-0.8l0.2-1.8v-1.6c0,0-0.2-0.6,0-1.2
		c0.2-0.6,0.8-1.6,0.8-1.6S59.4-45.8,59-46s-1.4-1.4-1.4-1.4l2.6-2.4l1.6-1.6l1.2-1.4c0,0,0.2-0.6,0.2-1s-0.2-1.4,0-2
		c0.2-0.4,0.2-2,0.2-2s0.2-1.2,0.2-1.6s-0.4-2.2-0.4-2.2L63-63l-0.8-2.2l-1-1.2l-1.4-1.4l-1-1.6L59-72l-0.8-1.4c0,0,0.2-1.2,0.2-1.8
		s1.2-2.6,1.2-2.6l-0.2-1.8c0,0-0.8-2.4-0.8-3S58-84,58-84.6c0-0.4-0.2-2.2-0.2-2.2L58-89l0.8-2.2l-0.8-2c0,0-0.4-1.6-0.4-2.4
		s1.4-1.8,1.8-1.8c0.4,0,2.2,0.2,2.8,0.8c0.8,0.4,2.6,1,3,1.2s0.8-0.2,2,0.8c1.2,0.8,2.8,2.2,2.8,2.2s1.4,1,2,1.4
		c0.4,0.4,2.2,2.4,2.2,2.4s1.4,1.4,2.2,2c1,0.6,0,0.2,1,0.8s4,3,4,3l3,3c0,0,2.6,3.4,3,4s2.8,3.8,3.2,4c0.4,0.2,3.8,2.4,4.6,3
		c0.8,0.6,1.8,4.6,2.2,5.2c0.4,0.4,2.4,5.2,2.4,5.2l2,5.6l3.2,8.3l3.2,5.8c0,0,1.4,2.4,2,3.2c0.4,0.8,3.4,6.9,3.4,6.9l1.2,5l0.4,4.2
		h-2l-2.2-2l-2,0.6l-2-0.2l2.2,2.6l-0.6,2.2l-1.8,1.4l-2.2,3.4V-8l-2.4,4l-1.6,6.5c0,0-2.8,3-2.4,3.8c0.2,0.8,1,3,1,3l1.6-0.8
		c0,0,1.2-3,1.8-3.2c0.6-0.2,1.4-1.8,1.6-2.2s0.4-1.8,0.8-2.2c0.2-0.4,1.6-2.8,1.6-2.8s1-2.4,1.2-3c0.2-0.4,1.2-2,1.4-3
		c0.2-1.2,0.8-4.8,0.8-5.2s1-4.4,1-4.4s1.4,0.4,1.6,0.8s0.2,0.6,0.6,1c0.2,0.4,2.4,2.2,2.4,2.2l1,3c0,0,0.6,1.4,0.8,2
		c0.2,0.6,1.4,2.6,1.4,3s-0.2,2,0,2.4s0.8,2.6,0.8,3s0.2,2,0.2,2l0.3,3.7l1.6,2l0.8,2.2C120.7,15.1,115,75.6,57.2,106.1z"/>
</symbol>
<polygon class="st2" points="8,479.7 8,137.1 40.3,137.1 40.3,40.3 159.1,40.3 191.2,72.5 479.7,72.5 479.7,122.7 479.9,122.7 
	479.9,137.1 512,137.1 512,479.7 "/>
<polygon class="st3" points="12,475.7 12,141.1 44.3,141.1 44.3,44.3 157.4,44.3 189.5,76.5 475.7,76.5 475.7,126.7 475.9,126.7 
	475.9,141.1 508,141.1 508,475.7 "/>
<sodipodi:namedview  bordercolor="#666666" borderopacity="1.0" id="base" inkscape:current-layer="layer1" inkscape:cx="35.66124" inkscape:cy="21.321632" inkscape:document-units="px" inkscape:guide-bbox="true" inkscape:pageopacity="0.0" inkscape:pageshadow="2" inkscape:window-height="1023" inkscape:window-maximized="1" inkscape:window-width="1920" inkscape:window-x="0" inkscape:window-y="28" inkscape:zoom="5.6530318" pagecolor="#ffffff" showgrid="true" showguides="true">
	<inkscape:grid  empspacing="5" enabled="true" id="grid2985" snapvisiblegridlinesonly="true" type="xygrid" visible="true">
		</inkscape:grid>
</sodipodi:namedview>
<polygon class="st4" points="8,471.7 8,137.1 40.3,137.1 40.3,40.3 153.4,40.3 185.5,72.5 471.7,72.5 471.7,122.7 471.9,122.7 
	471.9,137.1 504,137.1 504,471.7 "/>
<polygon class="st5" points="12,467.7 12,141.1 44.3,141.1 44.3,44.3 151.8,44.3 183.8,76.5 467.7,76.5 467.7,126.7 467.9,126.7 
	467.9,141.1 500,141.1 500,467.7 "/>
<g>
	
		<linearGradient id="SVGID_2_" gradientUnits="userSpaceOnUse" x1="256" y1="-246.4986" x2="256" y2="-125.48" gradientTransform="matrix(1 0 0 -1 0 -79.28)">
		<stop  offset="0" style="stop-color:#F57C00"/>
		<stop  offset="0.1638" style="stop-color:#F58F09"/>
		<stop  offset="0.3598" style="stop-color:#F59D11"/>
		<stop  offset="0.5982" style="stop-color:#F5A515"/>
		<stop  offset="0.9946" style="stop-color:#F5A816"/>
	</linearGradient>
	<path class="st6" d="M465.7,78.5H183l-32.1-32.3H46.3v32.3v32.3v40.3c0,8.9,7.7,16.1,16.1,16.1h387.2c8.5,0,16.1,0.8,16.1-8.1
		C465.7,143.3,465.7,78.5,465.7,78.5z"/>
	
		<linearGradient id="rect2990_1_" gradientUnits="userSpaceOnUse" x1="256" y1="-222.38" x2="256" y2="-544.98" gradientTransform="matrix(1 0 0 -1 0 -79.28)">
		<stop  offset="0" style="stop-color:#FADD60"/>
		<stop  offset="0.9946" style="stop-color:#F5A816"/>
	</linearGradient>
	<polyline id="rect2990_2_" class="st7" points="498,143.1 498,465.7 14,465.7 14,143.1 	"/>
	<path id="rect3004_1_" inkscape:connector-curvature="0" class="st8" d="M14,143.1V205c0-21.4,14.3-38.7,32.3-38.7h419.5
		c17.9,0,32.3,17.3,32.3,38.7v-61.9H14z"/>
	<path id="path3801_1_" inkscape:connector-curvature="0" class="st9" d="M46.3,46.3c0,0,0,8.1,0,24.2v16.1
		c0-16.1,7.3-24.2,14.7-24.2h83.7c5.6,0,13.1,0.2,26.2,7.9c3.6,2.2,7.7,4.8,12.1,8.3l-32.1-32.3H46.3z"/>
	<polygon class="st9" points="183,78.5 465.7,78.5 465.7,102.7 207.2,102.7 	"/>
	<rect x="46.3" y="128.7" class="st10" width="419.7" height="14.3"/>
</g>
<use xlink:href="#新建符号_12"  width="245" height="241.6" x="-122.5" y="-120.8" transform="matrix(0.9992 0 0 -0.9992 255.9998 312.4667)" style="overflow:visible;"/>
</svg>
