<?xml version="1.0" encoding="utf-8"?>
<!-- Generator: Adobe Illustrator 17.1.0, SVG Export Plug-In . SVG Version: 6.00 Build 0)  -->
<!DOCTYPE svg PUBLIC "-//W3C//DTD SVG 1.1//EN" "http://www.w3.org/Graphics/SVG/1.1/DTD/svg11.dtd">
<svg version="1.1"
	 id="svg2" inkscape:export-filename="/media/Data/Main/Visuals/Icons/Numix/Desktop/repos/numix-wiki/Gjorgi/Numix-folders/48/New/folder-144.png" xmlns:svg="http://www.w3.org/2000/svg" xmlns:sodipodi="http://sodipodi.sourceforge.net/DTD/sodipodi-0.dtd" xmlns:inkscape="http://www.inkscape.org/namespaces/inkscape" xmlns:dc="http://purl.org/dc/elements/1.1/" xmlns:cc="http://creativecommons.org/ns#" xmlns:rdf="http://www.w3.org/1999/02/22-rdf-syntax-ns#" inkscape:export-ydpi="270" inkscape:export-xdpi="270" sodipodi:docname="user-home.svg" inkscape:version="0.48.4 r9939"
	 xmlns="http://www.w3.org/2000/svg" xmlns:xlink="http://www.w3.org/1999/xlink" x="0px" y="0px" width="512px" height="512px"
	 viewBox="0 0 512 512" enable-background="new 0 0 512 512" xml:space="preserve">
<rect x="8" y="28" opacity="8.000000e-002" enable-background="new    " width="504" height="464"/>
<rect x="12" y="32" opacity="9.999999e-002" enable-background="new    " width="496" height="456"/>
<sodipodi:namedview  id="base" inkscape:cx="35.66124" pagecolor="#ffffff" showguides="true" inkscape:zoom="5.6530318" showgrid="true" borderopacity="1.0" inkscape:cy="21.321632" bordercolor="#666666" inkscape:pageopacity="0.0" inkscape:window-x="0" inkscape:guide-bbox="true" inkscape:pageshadow="2" inkscape:window-height="1023" inkscape:document-units="px" inkscape:window-width="1920" inkscape:window-y="28" inkscape:current-layer="layer1" inkscape:window-maximized="1">
	<inkscape:grid  type="xygrid" visible="true" enabled="true" id="grid2985" empspacing="5" snapvisiblegridlinesonly="true">
		</inkscape:grid>
</sodipodi:namedview>
<rect x="8" y="28" opacity="0.2" enable-background="new    " width="496" height="456"/>
<rect x="12" y="32" fill="#90A4AE" width="488" height="448"/>
<linearGradient id="SVGID_1_" gradientUnits="userSpaceOnUse" x1="256" y1="288.2" x2="256" y2="731.9" gradientTransform="matrix(1 0 0 1 0 -254)">
	<stop  offset="0" style="stop-color:#FFFFFF"/>
	<stop  offset="0.3658" style="stop-color:#F9F9F9"/>
	<stop  offset="1" style="stop-color:#F5F5F5"/>
</linearGradient>
<rect x="14" y="34.2" fill="url(#SVGID_1_)" width="484" height="443.7"/>
<linearGradient id="SVGID_2_" gradientUnits="userSpaceOnUse" x1="256" y1="288.2" x2="256" y2="731.9" gradientTransform="matrix(1 0 0 1 0 -254)">
	<stop  offset="0" style="stop-color:#FFFFFF"/>
	<stop  offset="0.529" style="stop-color:#ECECEC"/>
	<stop  offset="1" style="stop-color:#E0E0E0"/>
</linearGradient>
<rect x="14" y="34.2" fill="url(#SVGID_2_)" width="484" height="443.7"/>
<sodipodi:namedview  id="base" inkscape:cx="103.69753" pagecolor="#ffffff" showguides="true" inkscape:zoom="2.1940139" showgrid="true" borderopacity="1.0" inkscape:cy="163.34804" bordercolor="#666666" inkscape:pageopacity="0.0" inkscape:window-x="0" inkscape:guide-bbox="true" inkscape:pageshadow="2" inkscape:window-height="1023" inkscape:document-units="px" inkscape:window-width="1920" inkscape:window-y="28" inkscape:current-layer="layer1" inkscape:window-maximized="1">
	<inkscape:grid  type="xygrid" visible="true" enabled="true" id="grid2985" empspacing="5" snapvisiblegridlinesonly="true">
		</inkscape:grid>
</sodipodi:namedview>
<g>
	<polygon fill="#CFD8DC" points="42.2,439.7 42.2,332.2 240.3,332.2 240.3,309.8 42.2,309.8 42.2,202.2 240.3,202.2 240.3,179.8 
		42.2,179.8 42.2,72.3 469.8,72.3 469.8,179.8 271.7,179.8 271.7,202.2 469.8,202.2 469.8,309.8 271.7,309.8 271.7,332.2 
		469.8,332.2 469.8,439.7 	"/>
	<rect id="rect3804" x="244.1" y="290.1" fill="#FF6E40" width="24" height="56.1"/>
	<rect id="rect3802" x="244.1" y="160" fill="#FF6E40" width="24" height="56.1"/>
	
		<linearGradient id="rect3000_1_" gradientUnits="userSpaceOnUse" x1="256.05" y1="590.1" x2="256.05" y2="690.1" gradientTransform="matrix(1 0 0 1 0 -254)">
		<stop  offset="0" style="stop-color:#4FC3F7"/>
		<stop  offset="0.1101" style="stop-color:#3EBDF6"/>
		<stop  offset="0.3181" style="stop-color:#24B4F5"/>
		<stop  offset="0.5326" style="stop-color:#12AEF5"/>
		<stop  offset="0.7555" style="stop-color:#07AAF4"/>
		<stop  offset="1" style="stop-color:#03A9F4"/>
	</linearGradient>
	<rect id="rect3000" x="46.1" y="336.1" fill="url(#rect3000_1_)" width="419.9" height="100"/>
	
		<linearGradient id="rect2998_1_" gradientUnits="userSpaceOnUse" x1="256.05" y1="560" x2="256.05" y2="460" gradientTransform="matrix(1 0 0 1 0 -254)">
		<stop  offset="0" style="stop-color:#E64A19"/>
		<stop  offset="0.2192" style="stop-color:#F04F1D"/>
		<stop  offset="0.5912" style="stop-color:#FB5521"/>
		<stop  offset="1" style="stop-color:#FF5722"/>
	</linearGradient>
	<rect id="rect2998" x="46.1" y="206" fill="url(#rect2998_1_)" width="419.9" height="100"/>
	
		<linearGradient id="rect2992_1_" gradientUnits="userSpaceOnUse" x1="256.05" y1="330.1" x2="256.05" y2="430.1" gradientTransform="matrix(1 0 0 1 0 -254)">
		<stop  offset="0" style="stop-color:#4FC3F7"/>
		<stop  offset="0.1101" style="stop-color:#3EBDF6"/>
		<stop  offset="0.3181" style="stop-color:#24B4F5"/>
		<stop  offset="0.5326" style="stop-color:#12AEF5"/>
		<stop  offset="0.7555" style="stop-color:#07AAF4"/>
		<stop  offset="1" style="stop-color:#03A9F4"/>
	</linearGradient>
	<rect id="rect2992" x="46.1" y="76.1" fill="url(#rect2992_1_)" width="419.9" height="100"/>
	<rect id="rect3806" x="76.1" y="106" fill="#BBDEFB" width="209.9" height="39.9"/>
	<path id="path3808" sodipodi:cx="-7" sodipodi:rx="2" sodipodi:cy="17" sodipodi:ry="2" sodipodi:type="arc" fill="#BBDEFB" d="
		M365.9,126.1c0,11.1-8.9,20-20,20s-20-8.9-20-20c0-11.1,8.9-20,20-20C357,106,365.9,115,365.9,126.1z"/>
	<path id="path3810" sodipodi:cx="-7" sodipodi:rx="2" sodipodi:cy="17" sodipodi:ry="2" sodipodi:type="arc" fill="#BBDEFB" d="
		M435.9,126.1c0,11.1-8.9,20-20,20s-20-8.9-20-20c0-11.1,8.9-20,20-20C427,106,435.9,115,435.9,126.1z"/>
	<rect id="rect3812" x="76.1" y="365.9" fill="#BBDEFB" width="209.9" height="39.9"/>
	<path id="path3814" sodipodi:cx="-7" sodipodi:rx="2" sodipodi:cy="17" sodipodi:ry="2" sodipodi:type="arc" fill="#BBDEFB" d="
		M365.9,385.9c0,11.1-8.9,20-20,20s-20-8.9-20-20s8.9-20,20-20S365.9,375,365.9,385.9z"/>
	<path id="path3816" sodipodi:cx="-7" sodipodi:rx="2" sodipodi:cy="17" sodipodi:ry="2" sodipodi:type="arc" fill="#BBDEFB" d="
		M435.9,385.9c0,11.1-8.9,20-20,20s-20-8.9-20-20s8.9-20,20-20S435.9,375,435.9,385.9z"/>
	<rect id="rect3818" x="76.1" y="236" fill="#FF8A65" width="209.9" height="39.9"/>
	<path id="path3820" sodipodi:cx="-7" sodipodi:rx="2" sodipodi:cy="17" sodipodi:ry="2" sodipodi:type="arc" fill="#FF8A65" d="
		M365.9,256c0,11.1-8.9,20-20,20s-20-8.9-20-20s8.9-20,20-20S365.9,244.9,365.9,256z"/>
	<path id="path3822" sodipodi:cx="-7" sodipodi:rx="2" sodipodi:cy="17" sodipodi:ry="2" sodipodi:type="arc" fill="#FF8A65" d="
		M435.9,256c0,11.1-8.9,20-20,20s-20-8.9-20-20s8.9-20,20-20S435.9,244.9,435.9,256z"/>
	<rect x="76.1" y="109.8" fill="#F5F5F5" width="209.9" height="36.1"/>
	<path fill="#F5F5F5" d="M345.9,109.8c-10.5,0-19,7.9-20,18.1c1,10.1,9.5,18.2,20,18.2s19-7.9,20-18.2
		C364.9,117.9,356.4,109.8,345.9,109.8z"/>
	<path fill="#F5F5F5" d="M415.9,109.8c-10.5,0-19,7.9-20,18.1c1,10.1,9.5,18.2,20,18.2s19-7.9,20-18.2
		C434.9,117.9,426.4,109.8,415.9,109.8z"/>
	<rect x="76.1" y="239.9" fill="#F5F5F5" width="209.9" height="36.1"/>
	<path fill="#F5F5F5" d="M345.9,239.9c-10.5,0-19,7.9-20,18.2c1,10.1,9.5,18.2,20,18.2s19-7.9,20-18.2
		C364.9,247.7,356.4,239.9,345.9,239.9z"/>
	<path fill="#F5F5F5" d="M415.9,239.9c-10.5,0-19,7.9-20,18.2c1,10.1,9.5,18.2,20,18.2s19-7.9,20-18.2
		C434.9,247.7,426.4,239.9,415.9,239.9z"/>
	<rect x="76.1" y="369.7" fill="#F5F5F5" width="209.9" height="36.1"/>
	<path fill="#F5F5F5" d="M345.9,369.7c-10.5,0-19,7.9-20,18.2c1,10.1,9.5,18.1,20,18.1s19-7.9,20-18.1
		C364.9,377.8,356.4,369.7,345.9,369.7z"/>
	<path fill="#F5F5F5" d="M415.9,369.7c-10.5,0-19,7.9-20,18.2c1,10.1,9.5,18.1,20,18.1s19-7.9,20-18.1
		C434.9,377.8,426.4,369.7,415.9,369.7z"/>
</g>
</svg>
