<?xml version="1.0" encoding="utf-8"?>
<!-- Generator: Adobe Illustrator 21.0.0, SVG Export Plug-In . SVG Version: 6.00 Build 0)  -->
<svg version="1.1" id="图层_39" xmlns="http://www.w3.org/2000/svg" xmlns:xlink="http://www.w3.org/1999/xlink" x="0px" y="0px"
	 viewBox="0 0 512 512" style="enable-background:new 0 0 512 512;" xml:space="preserve">
<style type="text/css">
	.st0{opacity:0.08;enable-background:new    ;}
	.st1{opacity:0.1;enable-background:new    ;}
	.st2{opacity:0.2;enable-background:new    ;}
	.st3{fill:#90A4AE;}
	.st4{fill:url(#SVGID_1_);}
	.st5{fill:url(#SVGID_2_);}
	.st6{fill:#CFD8DC;}
	.st7{fill:#FF6E40;}
	.st8{fill:url(#rect3000_1_);}
	.st9{fill:url(#rect2998_1_);}
	.st10{fill:url(#rect2992_1_);}
	.st11{fill:#BBDEFB;}
	.st12{fill:#FF8A65;}
	.st13{fill:#F5F5F5;}
</style>
<title>0512network-server</title>
<rect x="8" y="28" class="st0" width="504" height="464"/>
<rect x="12" y="32" class="st1" width="496" height="456"/>
<rect x="8" y="28" class="st2" width="496" height="456"/>
<rect x="12" y="32" class="st3" width="488" height="448"/>
<linearGradient id="SVGID_1_" gradientUnits="userSpaceOnUse" x1="256" y1="2100.9199" x2="256" y2="2544.6201" gradientTransform="matrix(1 0 0 1 0 -2066.72)">
	<stop  offset="0" style="stop-color:#FFFFFF"/>
	<stop  offset="0.37" style="stop-color:#F9F9F9"/>
	<stop  offset="1" style="stop-color:#F5F5F5"/>
</linearGradient>
<rect x="14" y="34.2" class="st4" width="484" height="443.7"/>
<linearGradient id="SVGID_2_" gradientUnits="userSpaceOnUse" x1="256" y1="2100.72" x2="256" y2="2544.72" gradientTransform="matrix(1 0 0 1 0 -2066.72)">
	<stop  offset="0" style="stop-color:#FFFFFF"/>
	<stop  offset="0.53" style="stop-color:#ECECEC"/>
	<stop  offset="1" style="stop-color:#E0E0E0"/>
</linearGradient>
<rect x="14" y="34" class="st5" width="484" height="444"/>
<polygon class="st6" points="44,438 44,334 242,334 242,308 44,308 44,204 242,204 242,178 44,178 44,74 468,74 468,178 270,178 
	270,204 468,204 468,308 270,308 270,334 468,334 468,438 "/>
<rect id="rect3804" x="244" y="290.1" class="st7" width="24" height="56"/>
<rect id="rect3802" x="244" y="173" class="st7" width="24" height="36"/>
<linearGradient id="rect3000_1_" gradientUnits="userSpaceOnUse" x1="256" y1="2402.72" x2="256" y2="2502.72" gradientTransform="matrix(1 0 0 1 0 -2066.72)">
	<stop  offset="0" style="stop-color:#4FC3F7"/>
	<stop  offset="0.11" style="stop-color:#3EBDF6"/>
	<stop  offset="0.32" style="stop-color:#24B4F5"/>
	<stop  offset="0.53" style="stop-color:#12AEF5"/>
	<stop  offset="0.76" style="stop-color:#07AAF4"/>
	<stop  offset="1" style="stop-color:#03A9F4"/>
</linearGradient>
<rect id="rect3000" x="46" y="336" class="st8" width="420" height="100"/>
<linearGradient id="rect2998_1_" gradientUnits="userSpaceOnUse" x1="256" y1="2372.72" x2="256" y2="2272.72" gradientTransform="matrix(1 0 0 1 0 -2066.72)">
	<stop  offset="0" style="stop-color:#E64A19"/>
	<stop  offset="0.22" style="stop-color:#F04F1D"/>
	<stop  offset="0.59" style="stop-color:#FB5521"/>
	<stop  offset="1" style="stop-color:#FF5722"/>
</linearGradient>
<rect id="rect2998" x="46" y="206" class="st9" width="420" height="100"/>
<linearGradient id="rect2992_1_" gradientUnits="userSpaceOnUse" x1="256" y1="2142.72" x2="256" y2="2242.72" gradientTransform="matrix(1 0 0 1 0 -2066.72)">
	<stop  offset="0" style="stop-color:#4FC3F7"/>
	<stop  offset="0.11" style="stop-color:#3EBDF6"/>
	<stop  offset="0.32" style="stop-color:#24B4F5"/>
	<stop  offset="0.53" style="stop-color:#12AEF5"/>
	<stop  offset="0.76" style="stop-color:#07AAF4"/>
	<stop  offset="1" style="stop-color:#03A9F4"/>
</linearGradient>
<rect id="rect2992" x="46" y="76" class="st10" width="420" height="100"/>
<rect id="rect3806" x="76" y="106" class="st11" width="210" height="40"/>
<path id="path3808" class="st11" d="M365.9,126.1c0,11-9,20-20,20s-20-9-20-20s9-20,20-20s20,8.9,20,19.9
	C365.9,126,365.9,126.1,365.9,126.1z"/>
<path id="path3810" class="st11" d="M435.9,126.1c0,11-9,20-20,20s-20-9-20-20s9-20,20-20s20,8.9,20,19.9
	C435.9,126,435.9,126.1,435.9,126.1z"/>
<rect id="rect3812" x="76" y="366" class="st11" width="210" height="40"/>
<path id="path3814" class="st11" d="M365.9,385.9c0,11-9,20-20,20s-20-9-20-20s9-20,20-20s20,8.9,20,19.9V385.9z"/>
<path id="path3816" class="st11" d="M435.9,385.9c0,11-9,20-20,20s-20-9-20-20s9-20,20-20s20,8.9,20,19.9V385.9z"/>
<rect id="rect3818" x="76" y="236" class="st12" width="210" height="39.9"/>
<path id="path3820" class="st12" d="M366,255.9c0.1,11-8.8,20.1-19.8,20.1c-11,0.1-20.1-8.8-20.1-19.8c-0.1-11,8.8-20.1,19.8-20.1
	h0.1c11-0.1,19.9,8.8,20,19.7C366,255.8,366,255.8,366,255.9z"/>
<path id="path3822" class="st12" d="M436,255.9c0.1,11-8.8,20.1-19.8,20.1c-11,0.1-20.1-8.8-20.1-19.8c-0.1-11,8.8-20.1,19.8-20.1
	h0.1c11-0.1,19.9,8.8,20,19.7C436,255.8,436,255.8,436,255.9z"/>
<rect x="76" y="110" class="st13" width="210" height="36"/>
<path class="st13" d="M345.9,109.8c-10.3,0-19,7.8-20,18.1c1,11,10.9,19.1,21.9,18.1c9.6-0.9,17.2-8.5,18.1-18.1
	C364.8,117.6,356.2,109.8,345.9,109.8z"/>
<path class="st13" d="M415.9,109.8c-10.3,0-19,7.8-20,18.1c1,11,10.9,19.1,21.9,18.1c9.6-0.9,17.2-8.5,18.1-18.1
	C434.8,117.6,426.2,109.8,415.9,109.8z"/>
<rect x="76" y="240" class="st13" width="210" height="36"/>
<path class="st13" d="M346,239.9c-10.3,0-19,7.8-20,18.1c1.1,11,11,19.1,22,18c9.5-1,17-8.5,18-18C365,247.6,356.4,239.8,346,239.9z
	"/>
<path class="st13" d="M416,239.9c-10.3,0-19,7.8-20,18.1c1.1,11,11,19.1,22,18c9.5-1,17-8.5,18-18C435,247.6,426.4,239.8,416,239.9z
	"/>
<rect x="76" y="370" class="st13" width="210" height="36"/>
<path class="st13" d="M345.9,369.7c-10,1-17.4,9.9-16.4,19.9s9.9,17.4,19.9,16.4c9.3-0.9,16.5-8.7,16.5-18.1
	C365,377.6,356.3,369.7,345.9,369.7z"/>
<path class="st13" d="M415.9,369.7c-10,1-17.4,9.9-16.4,19.9s9.9,17.4,19.9,16.4c9.3-0.9,16.5-8.7,16.5-18.1
	C435,377.6,426.3,369.7,415.9,369.7z"/>
</svg>
