<?xml version="1.0" encoding="utf-8"?>
<!-- Generator: Adobe Illustrator 18.0.0, SVG Export Plug-In . SVG Version: 6.00 Build 0)  -->
<!DOCTYPE svg PUBLIC "-//W3C//DTD SVG 1.1//EN" "http://www.w3.org/Graphics/SVG/1.1/DTD/svg11.dtd">
<svg version="1.1" id="图层_1" xmlns="http://www.w3.org/2000/svg" xmlns:xlink="http://www.w3.org/1999/xlink" x="0px" y="0px"
	 viewBox="0 0 512 512" enable-background="new 0 0 512 512" xml:space="preserve">
<g opacity="8.000000e-002">
	<polygon fill="#040000" points="185.5,280.4 160.9,212.5 97.4,262.1 139,267.7 	"/>
	<polygon fill="#040000" points="285.4,435.5 285.4,435.1 285,435.5 	"/>
	<polygon fill="#040000" points="272.7,310.1 274.7,310.9 274.7,309.7 	"/>
	<polygon fill="#040000" points="274.7,310.9 336.6,337.1 354,293.1 272.7,310.1 	"/>
	<polygon fill="#040000" points="174.7,331.9 272.7,310.1 185.5,280.4 	"/>
	<polygon fill="#040000" points="97.4,262.1 109.7,346.6 139,267.7 	"/>
	<polygon fill="#040000" points="139,267.7 109.7,346.6 185.5,280.4 	"/>
	<polygon fill="#040000" points="109.7,346.6 174.7,331.9 185.5,280.4 	"/>
	<polygon fill="#040000" points="175.1,134 175.5,134.4 175.5,134 	"/>
	<polygon fill="#040000" points="160.9,212.5 212.4,214.5 213.6,178.8 	"/>
	<polygon fill="#040000" points="271.5,259 212.4,214.5 185.5,280.4 	"/>
	<polygon fill="#040000" points="175.9,133.6 175.1,134 175.5,134 	"/>
	<polygon fill="#040000" points="185.5,280.4 212.4,214.5 160.9,212.5 	"/>
	<polygon fill="#040000" points="284.6,461.3 285,435.5 285,435.5 262.4,422 	"/>
	<polygon fill="#040000" points="221.6,460.5 284.6,461.3 262.4,422 	"/>
	<polygon fill="#040000" points="262.4,422 285,435.5 285.4,435.1 302.1,373.6 	"/>
	<polygon fill="#040000" points="362.4,455.7 409.2,411.7 351.3,418.4 	"/>
	<polygon fill="#040000" points="300.9,492.6 365.6,492.6 362.4,455.7 321.5,465.6 364,489.8 321.5,465.6 362.4,455.7 351.3,418.4 	
		"/>
	<polygon fill="#040000" points="285.4,435.1 333,396.2 302.1,373.6 	"/>
	<polygon fill="#040000" points="409.2,411.7 385.4,362.5 351.3,418.4 	"/>
	<polygon fill="#040000" points="52.6,475.9 114,475.9 75.6,448.2 	"/>
	<polygon fill="#040000" points="263.2,24.5 202.5,87.2 233.1,75.3 	"/>
	<polygon fill="#040000" points="210,45.9 149,108.6 187.8,84.4 	"/>
	<polygon fill="#040000" points="333.8,396.2 351.3,418.4 385.4,362.5 302.1,373.6 	"/>
	<polygon fill="#040000" points="233.1,75.3 202.5,87.2 237.8,101.9 	"/>
	<polygon fill="#040000" points="194.2,86 210,46.3 187.8,84.8 	"/>
	<polygon fill="#040000" points="237.8,101.9 263.2,24.5 233.1,75.3 	"/>
	<polygon fill="#040000" points="96.6,422.4 75.6,448.2 122,419.2 83.5,390.7 	"/>
	<polygon fill="#040000" points="98.6,201.4 97.4,262.1 160.9,212.5 	"/>
	<polygon fill="#040000" points="114,475.9 122,419.2 75.6,448.2 	"/>
	<polygon fill="#040000" points="385.4,362.5 382.6,303 336.6,337.1 	"/>
	<polygon fill="#040000" points="302.1,373.6 385.4,362.5 336.6,337.1 	"/>
	<polygon fill="#040000" points="336.6,337.1 382.6,303 354,293.1 	"/>
	<polygon fill="#040000" points="382.6,303 430.6,274.8 412.8,261.3 	"/>
	<polygon fill="#040000" points="268.4,351 302.1,373.6 336.6,337.1 	"/>
	<polygon fill="#040000" points="379,279.6 354,293.1 382.6,303 412.8,261.3 	"/>
	<polygon fill="#040000" points="234.2,368.8 268.4,351 174.7,331.9 	"/>
	<polygon fill="#040000" points="272.7,310.1 268.4,351 336.6,337.1 	"/>
	<polygon fill="#040000" points="272.7,310.1 174.7,331.9 268.4,351 	"/>
	<polygon fill="#040000" points="469.5,235.9 504,191.9 447.3,209.8 469.1,236.7 	"/>
	<polygon fill="#040000" points="457.2,280 493.3,266.9 469.1,236.7 	"/>
	<polygon fill="#040000" points="469.1,236.7 430.2,274.8 457.2,280 	"/>
	<polygon fill="#040000" points="412.8,261.3 430.6,274.8 447.3,209.8 	"/>
	<polygon fill="#040000" points="469.1,236.7 469.1,236.7 493.3,266.9 504,191.9 	"/>
	<polygon fill="#040000" points="447.3,209.8 430.2,274.8 469.1,236.7 	"/>
	<polygon fill="#040000" points="187.8,387.5 234.2,368.8 174.7,331.9 	"/>
	<polygon fill="#040000" points="160.9,212.5 99.4,138 98.6,201.4 	"/>
	<polygon fill="#040000" points="149.4,106.6 99.4,138 154.1,151.5 	"/>
	<polygon fill="#040000" points="154.1,151.5 99.4,138 160.9,212.5 	"/>
	<polygon fill="#040000" points="98.6,201.4 99.4,138 75.6,189.1 98.2,201.4 	"/>
	<polygon fill="#040000" points="160.9,212.5 175.5,134.4 175.1,134 149.4,106.6 154.1,151.5 	"/>
	<polygon fill="#040000" points="175.5,134.4 187.8,84.4 149.4,106.6 175.1,134 	"/>
	<polygon fill="#040000" points="75.6,189.1 41.5,247.8 98.2,201.4 	"/>
	<polygon fill="#040000" points="98.6,201.4 98.2,201.4 41.5,247.8 97.4,262.1 	"/>
	<polygon fill="#040000" points="122,419.2 147,380.3 109.7,346.6 	"/>
	<polygon fill="#040000" points="147,380.3 187.8,387.5 174.7,331.9 	"/>
	<polygon fill="#040000" points="83.5,390.7 122,419.2 109.7,346.6 	"/>
	<polygon fill="#040000" points="109.7,346.6 147,380.3 174.7,331.9 	"/>
	<polygon fill="#040000" points="41.5,247.8 73.6,328.4 97.4,262.1 	"/>
	<polygon fill="#040000" points="73.6,328.4 83.5,390.7 109.7,346.6 	"/>
	<polygon fill="#040000" points="97.4,262.1 73.6,328.4 109.7,346.6 	"/>
	<polygon fill="#040000" points="354,293.1 271.5,259 272.7,310.1 	"/>
	<polygon fill="#040000" points="272.7,310.1 272.7,310.1 271.5,259 185.5,280.4 	"/>
	<polygon fill="#040000" points="175.5,134.4 160.9,212.5 213.6,178.8 	"/>
	<polygon fill="#040000" points="175.5,134.4 213.6,178.8 252.1,159.8 175.5,134 	"/>
	<polygon fill="#040000" points="212.4,214.5 252.1,159.8 213.6,178.8 	"/>
	<polygon fill="#040000" points="175.5,134.4 252.1,159.8 237.8,101.9 	"/>
	<polygon fill="#040000" points="237.8,101.9 202.5,87.2 187.8,84.4 175.5,134.4 	"/>
</g>
<g opacity="0.1">
	<polygon fill="#040000" points="177.5,276.4 152.9,208.6 89.5,258.2 131.1,263.7 	"/>
	<polygon fill="#040000" points="277.5,431.5 277.5,431.1 277.1,431.5 	"/>
	<polygon fill="#040000" points="264.8,306.2 266.8,307 266.8,305.8 	"/>
	<polygon fill="#040000" points="266.8,307 328.7,333.1 346.1,289.1 264.8,306.2 	"/>
	<polygon fill="#040000" points="166.8,328 264.8,306.2 177.5,276.4 	"/>
	<polygon fill="#040000" points="89.5,258.2 101.8,342.7 131.1,263.7 	"/>
	<polygon fill="#040000" points="131.1,263.7 101.8,342.7 177.5,276.4 	"/>
	<polygon fill="#040000" points="101.8,342.7 166.8,328 177.5,276.4 	"/>
	<polygon fill="#040000" points="167.2,130 167.6,130.4 167.6,130 	"/>
	<polygon fill="#040000" points="152.9,208.6 204.5,210.6 205.7,174.9 	"/>
	<polygon fill="#040000" points="263.6,255 204.5,210.6 177.5,276.4 	"/>
	<polygon fill="#040000" points="168,129.6 167.2,130 167.6,130 	"/>
	<polygon fill="#040000" points="177.5,276.4 204.5,210.6 152.9,208.6 	"/>
	<polygon fill="#040000" points="276.7,457.3 277.1,431.5 277.1,431.5 254.5,418 	"/>
	<polygon fill="#040000" points="213.6,456.5 276.7,457.3 254.5,418 	"/>
	<polygon fill="#040000" points="254.5,418 277.1,431.5 277.5,431.1 294.1,369.6 	"/>
	<polygon fill="#040000" points="354.4,451.7 401.3,407.7 343.3,414.5 	"/>
	<polygon fill="#040000" points="293,488.6 357.6,488.6 354.4,451.7 313.6,461.7 356,485.9 313.6,461.7 354.4,451.7 343.3,414.5 	
		"/>
	<polygon fill="#040000" points="277.5,431.1 325.1,392.2 294.1,369.6 	"/>
	<polygon fill="#040000" points="401.3,407.7 377.5,358.5 343.3,414.5 	"/>
	<polygon fill="#040000" points="44.6,472 106.1,472 67.6,444.2 	"/>
	<polygon fill="#040000" points="255.3,20.5 194.6,83.2 225.1,71.3 	"/>
	<polygon fill="#040000" points="202.1,42 141,104.6 179.9,80.4 	"/>
	<polygon fill="#040000" points="325.9,392.2 343.3,414.5 377.5,358.5 294.1,369.6 	"/>
	<polygon fill="#040000" points="225.1,71.3 194.6,83.2 229.9,97.9 	"/>
	<polygon fill="#040000" points="186.2,82 202.1,42.4 179.9,80.8 	"/>
	<polygon fill="#040000" points="229.9,97.9 255.3,20.5 225.1,71.3 	"/>
	<polygon fill="#040000" points="88.7,418.4 67.6,444.2 114,415.3 75.6,386.7 	"/>
	<polygon fill="#040000" points="90.6,197.5 89.5,258.2 152.9,208.6 	"/>
	<polygon fill="#040000" points="106.1,472 114,415.3 67.6,444.2 	"/>
	<polygon fill="#040000" points="377.5,358.5 374.7,299 328.7,333.1 	"/>
	<polygon fill="#040000" points="294.1,369.6 377.5,358.5 328.7,333.1 	"/>
	<polygon fill="#040000" points="328.7,333.1 374.7,299 346.1,289.1 	"/>
	<polygon fill="#040000" points="374.7,299 422.7,270.9 404.8,257.4 	"/>
	<polygon fill="#040000" points="260.4,347 294.1,369.6 328.7,333.1 	"/>
	<polygon fill="#040000" points="371.1,275.6 346.1,289.1 374.7,299 404.8,257.4 	"/>
	<polygon fill="#040000" points="226.3,364.9 260.4,347 166.8,328 	"/>
	<polygon fill="#040000" points="264.8,306.2 260.4,347 328.7,333.1 	"/>
	<polygon fill="#040000" points="264.8,306.2 166.8,328 260.4,347 	"/>
	<polygon fill="#040000" points="461.6,232 496.1,187.9 439.3,205.8 461.2,232.8 	"/>
	<polygon fill="#040000" points="449.3,276 485.4,262.9 461.2,232.8 	"/>
	<polygon fill="#040000" points="461.2,232.8 422.3,270.9 449.3,276 	"/>
	<polygon fill="#040000" points="404.8,257.4 422.7,270.9 439.3,205.8 	"/>
	<polygon fill="#040000" points="461.2,232.8 461.2,232.8 485.4,262.9 496.1,187.9 	"/>
	<polygon fill="#040000" points="439.3,205.8 422.3,270.9 461.2,232.8 	"/>
	<polygon fill="#040000" points="179.9,383.5 226.3,364.9 166.8,328 	"/>
	<polygon fill="#040000" points="152.9,208.6 91.4,134 90.6,197.5 	"/>
	<polygon fill="#040000" points="141.4,102.7 91.4,134 146.2,147.5 	"/>
	<polygon fill="#040000" points="146.2,147.5 91.4,134 152.9,208.6 	"/>
	<polygon fill="#040000" points="90.6,197.5 91.4,134 67.6,185.2 90.2,197.5 	"/>
	<polygon fill="#040000" points="152.9,208.6 167.6,130.4 167.2,130 141.4,102.7 146.2,147.5 	"/>
	<polygon fill="#040000" points="167.6,130.4 179.9,80.4 141.4,102.7 167.2,130 	"/>
	<polygon fill="#040000" points="67.6,185.2 33.5,243.9 90.2,197.5 	"/>
	<polygon fill="#040000" points="90.6,197.5 90.2,197.5 33.5,243.9 89.5,258.2 	"/>
	<polygon fill="#040000" points="114,415.3 139,376.4 101.8,342.7 	"/>
	<polygon fill="#040000" points="139,376.4 179.9,383.5 166.8,328 	"/>
	<polygon fill="#040000" points="75.6,386.7 114,415.3 101.8,342.7 	"/>
	<polygon fill="#040000" points="101.8,342.7 139,376.4 166.8,328 	"/>
	<polygon fill="#040000" points="33.5,243.9 65.7,324.4 89.5,258.2 	"/>
	<polygon fill="#040000" points="65.7,324.4 75.6,386.7 101.8,342.7 	"/>
	<polygon fill="#040000" points="89.5,258.2 65.7,324.4 101.8,342.7 	"/>
	<polygon fill="#040000" points="346.1,289.1 263.6,255 264.8,306.2 	"/>
	<polygon fill="#040000" points="264.8,306.2 264.8,306.2 263.6,255 177.5,276.4 	"/>
	<polygon fill="#040000" points="167.6,130.4 152.9,208.6 205.7,174.9 	"/>
	<polygon fill="#040000" points="167.6,130.4 205.7,174.9 244.2,155.8 167.6,130 	"/>
	<polygon fill="#040000" points="204.5,210.6 244.2,155.8 205.7,174.9 	"/>
	<polygon fill="#040000" points="167.6,130.4 244.2,155.8 229.9,97.9 	"/>
	<polygon fill="#040000" points="229.9,97.9 194.6,83.2 179.9,80.4 167.6,130.4 	"/>
</g>
<g opacity="0.2">
	<polygon fill="#040000" points="169.6,272.4 145,204.6 81.5,254.2 123.2,259.7 	"/>
	<polygon fill="#040000" points="269.6,427.5 269.6,427.2 269.2,427.5 	"/>
	<polygon fill="#040000" points="256.9,302.2 258.8,303 258.8,301.8 	"/>
	<polygon fill="#040000" points="258.8,303 320.7,329.2 338.2,285.1 256.9,302.2 	"/>
	<polygon fill="#040000" points="158.9,324 256.9,302.2 169.6,272.4 	"/>
	<polygon fill="#040000" points="81.5,254.2 93.8,338.7 123.2,259.7 	"/>
	<polygon fill="#040000" points="123.2,259.7 93.8,338.7 169.6,272.4 	"/>
	<polygon fill="#040000" points="93.8,338.7 158.9,324 169.6,272.4 	"/>
	<polygon fill="#040000" points="159.3,126.1 159.7,126.5 159.7,126.1 	"/>
	<polygon fill="#040000" points="145,204.6 196.6,206.6 197.8,170.9 	"/>
	<polygon fill="#040000" points="255.7,251 196.6,206.6 169.6,272.4 	"/>
	<polygon fill="#040000" points="160.1,125.7 159.3,126.1 159.7,126.1 	"/>
	<polygon fill="#040000" points="169.6,272.4 196.6,206.6 145,204.6 	"/>
	<polygon fill="#040000" points="268.8,453.3 269.2,427.5 269.2,427.5 246.5,414.1 	"/>
	<polygon fill="#040000" points="205.7,452.5 268.8,453.3 246.5,414.1 	"/>
	<polygon fill="#040000" points="246.5,414.1 269.2,427.5 269.6,427.2 286.2,365.7 	"/>
	<polygon fill="#040000" points="346.5,447.8 393.3,403.7 335.4,410.5 	"/>
	<polygon fill="#040000" points="285,484.7 349.7,484.7 346.5,447.8 305.7,457.7 348.1,481.9 305.7,457.7 346.5,447.8 335.4,410.5 	
		"/>
	<polygon fill="#040000" points="269.6,427.2 317.2,388.3 286.2,365.7 	"/>
	<polygon fill="#040000" points="393.3,403.7 369.5,354.6 335.4,410.5 	"/>
	<polygon fill="#040000" points="36.7,468 98.2,468 59.7,440.2 	"/>
	<polygon fill="#040000" points="247.3,16.6 186.6,79.3 217.2,67.4 	"/>
	<polygon fill="#040000" points="194.2,38 133.1,100.7 172,76.5 	"/>
	<polygon fill="#040000" points="318,388.3 335.4,410.5 369.5,354.6 286.2,365.7 	"/>
	<polygon fill="#040000" points="217.2,67.4 186.6,79.3 222,93.9 	"/>
	<polygon fill="#040000" points="178.3,78.1 194.2,38.4 172,76.9 	"/>
	<polygon fill="#040000" points="222,93.9 247.3,16.6 217.2,67.4 	"/>
	<polygon fill="#040000" points="80.7,414.5 59.7,440.2 106.1,411.3 67.6,382.7 	"/>
	<polygon fill="#040000" points="82.7,193.5 81.5,254.2 145,204.6 	"/>
	<polygon fill="#040000" points="98.2,468 106.1,411.3 59.7,440.2 	"/>
	<polygon fill="#040000" points="369.5,354.6 366.7,295.1 320.7,329.2 	"/>
	<polygon fill="#040000" points="286.2,365.7 369.5,354.6 320.7,329.2 	"/>
	<polygon fill="#040000" points="320.7,329.2 366.7,295.1 338.2,285.1 	"/>
	<polygon fill="#040000" points="366.7,295.1 414.7,266.9 396.9,253.4 	"/>
	<polygon fill="#040000" points="252.5,343.1 286.2,365.7 320.7,329.2 	"/>
	<polygon fill="#040000" points="363.2,271.6 338.2,285.1 366.7,295.1 396.9,253.4 	"/>
	<polygon fill="#040000" points="218.4,360.9 252.5,343.1 158.9,324 	"/>
	<polygon fill="#040000" points="256.9,302.2 252.5,343.1 320.7,329.2 	"/>
	<polygon fill="#040000" points="256.9,302.2 158.9,324 252.5,343.1 	"/>
	<polygon fill="#040000" points="453.6,228 488.1,184 431.4,201.8 453.2,228.8 	"/>
	<polygon fill="#040000" points="441.3,272 477.4,259 453.2,228.8 	"/>
	<polygon fill="#040000" points="453.2,228.8 414.3,266.9 441.3,272 	"/>
	<polygon fill="#040000" points="396.9,253.4 414.7,266.9 431.4,201.8 	"/>
	<polygon fill="#040000" points="453.2,228.8 453.2,228.8 477.4,259 488.1,184 	"/>
	<polygon fill="#040000" points="431.4,201.8 414.3,266.9 453.2,228.8 	"/>
	<polygon fill="#040000" points="172,379.5 218.4,360.9 158.9,324 	"/>
	<polygon fill="#040000" points="145,204.6 83.5,130 82.7,193.5 	"/>
	<polygon fill="#040000" points="133.5,98.7 83.5,130 138.2,143.5 	"/>
	<polygon fill="#040000" points="138.2,143.5 83.5,130 145,204.6 	"/>
	<polygon fill="#040000" points="82.7,193.5 83.5,130 59.7,181.2 82.3,193.5 	"/>
	<polygon fill="#040000" points="145,204.6 159.7,126.5 159.3,126.1 133.5,98.7 138.2,143.5 	"/>
	<polygon fill="#040000" points="159.7,126.5 172,76.5 133.5,98.7 159.3,126.1 	"/>
	<polygon fill="#040000" points="59.7,181.2 25.6,239.9 82.3,193.5 	"/>
	<polygon fill="#040000" points="82.7,193.5 82.3,193.5 25.6,239.9 81.5,254.2 	"/>
	<polygon fill="#040000" points="106.1,411.3 131.1,372.4 93.8,338.7 	"/>
	<polygon fill="#040000" points="131.1,372.4 172,379.5 158.9,324 	"/>
	<polygon fill="#040000" points="67.6,382.7 106.1,411.3 93.8,338.7 	"/>
	<polygon fill="#040000" points="93.8,338.7 131.1,372.4 158.9,324 	"/>
	<polygon fill="#040000" points="25.6,239.9 57.7,320.4 81.5,254.2 	"/>
	<polygon fill="#040000" points="57.7,320.4 67.6,382.7 93.8,338.7 	"/>
	<polygon fill="#040000" points="81.5,254.2 57.7,320.4 93.8,338.7 	"/>
	<polygon fill="#040000" points="338.2,285.1 255.7,251 256.9,302.2 	"/>
	<polygon fill="#040000" points="256.9,302.2 256.9,302.2 255.7,251 169.6,272.4 	"/>
	<polygon fill="#040000" points="159.7,126.5 145,204.6 197.8,170.9 	"/>
	<polygon fill="#040000" points="159.7,126.5 197.8,170.9 236.2,151.8 159.7,126.1 	"/>
	<polygon fill="#040000" points="196.6,206.6 236.2,151.8 197.8,170.9 	"/>
	<polygon fill="#040000" points="159.7,126.5 236.2,151.8 222,93.9 	"/>
	<polygon fill="#040000" points="222,93.9 186.6,79.3 172,76.5 159.7,126.5 	"/>
</g>
<g>
	<polygon fill="#AFD9E9" points="158.1,268.5 132.7,200.6 66.4,250.2 109.7,255.8 	"/>
	<polygon fill="none" points="262,423.6 262,423.2 261.6,423.6 	"/>
	<polygon fill="none" stroke="#231815" stroke-width="0.8829" points="248.9,298.2 250.9,299 250.9,297.8 	"/>
	<polygon fill="#1E95D4" points="250.9,299 315.2,325.2 333.8,281.2 248.9,298.2 	"/>
	<polygon fill="#AFD9E9" points="147,320 248.9,298.2 158.1,268.5 	"/>
	<polygon fill="#1E95D4" points="66.4,250.2 79.1,334.7 109.7,255.8 	"/>
	<polygon fill="#1888CA" points="109.7,255.8 79.1,334.7 158.1,268.5 	"/>
	<polygon fill="#1E95D4" points="79.1,334.7 147,320 158.1,268.5 	"/>
	<polygon fill="none" stroke="#231815" stroke-width="0.8829" points="147.4,122.1 147.8,122.5 148.2,122.1 	"/>
	<polygon fill="#0A5DA4" points="132.7,200.6 186.2,202.6 187.4,166.9 	"/>
	<polygon fill="#1888CA" points="247.7,247.1 186.2,202.6 158.1,268.5 	"/>
	<polygon fill="none" stroke="#231815" stroke-width="0.8829" points="148.2,121.7 147.4,122.1 148.2,122.1 	"/>
	<polygon fill="#1E95D4" points="158.1,268.5 186.2,202.6 132.7,200.6 	"/>
	<polygon fill="#0A5DA4" points="261.2,449.4 261.6,423.6 261.6,423.6 238.2,410.1 	"/>
	<polygon fill="#00417A" points="195.4,448.6 261.2,449.4 238.2,410.1 	"/>
	<polygon fill="#00417A" points="238.2,410.1 261.6,423.6 262,423.2 279.5,361.7 	"/>
	<polygon fill="#0A5DA4" points="342.1,443.8 390.9,399.8 330.6,406.5 	"/>
	<polygon fill="#00417A" points="277.9,480.7 345.3,480.7 342.1,443.8 299.7,453.7 343.7,477.9 299.7,453.7 342.1,443.8 
		330.6,406.5 	"/>
	<polygon fill="#0A5DA4" points="262,423.2 311.6,384.3 279.5,361.7 	"/>
	<polygon fill="#00417A" points="390.9,399.8 366.3,350.6 330.6,406.5 	"/>
	<polygon fill="#00417A" points="19.6,464 83.9,464 43.4,436.3 	"/>
	<polygon fill="#1888CA" points="239.4,12.6 175.9,75.3 207.7,63.4 	"/>
	<polygon fill="#1888CA" points="183.5,34 120.4,96.7 160.9,72.5 	"/>
	<polygon fill="#1888CA" points="312.4,384.3 330.6,406.5 366.3,350.6 279.5,361.7 	"/>
	<polygon fill="#1E95D4" points="207.7,63.4 175.9,75.3 212.4,90 	"/>
	<polygon fill="#AFD9E9" points="166.8,74.1 183.5,34.4 160.5,72.9 	"/>
	<polygon fill="#AFD9E9" points="212.4,90 239,12.6 207.7,63.4 	"/>
	<polygon fill="#1888CA" points="65.7,410.5 43.4,436.3 92.2,407.3 52.2,378.8 	"/>
	<polygon fill="#1E95D4" points="67.6,189.5 66.4,250.2 132.7,200.6 	"/>
	<polygon fill="#0A5DA4" points="83.9,464 92.2,407.3 43.4,436.3 	"/>
	<polygon fill="#0A5DA4" points="366.3,350.6 363.2,291.1 315.2,325.2 	"/>
	<polygon fill="#1E95D4" points="279.5,361.7 366.3,350.6 315.2,325.2 	"/>
	<polygon fill="#1888CA" points="315.2,325.2 363.2,291.1 333.8,281.2 	"/>
	<polygon fill="#1888CA" points="363.2,291.1 413.2,262.9 394.9,249.4 	"/>
	<polygon fill="#0A5DA4" points="244.6,339.1 279.5,361.7 315.2,325.2 	"/>
	<polygon fill="#1E95D4" points="359.6,267.7 333.8,281.2 363.2,291.1 394.9,249.4 	"/>
	<polygon fill="#00417A" points="208.9,356.9 244.6,339.1 147,320 	"/>
	<polygon fill="#1888CA" points="248.9,298.2 244.6,339.1 315.2,325.2 	"/>
	<polygon fill="#0A5DA4" points="248.9,298.2 147,320 244.6,339.1 	"/>
	<polygon fill="#AFD9E9" points="453.6,224 489.3,180 430.6,197.9 453.2,224.8 	"/>
	<polygon fill="#1888CA" points="440.9,268.1 478.6,255 453.2,224.8 	"/>
	<polygon fill="#0A5DA4" points="453.2,224.8 412.8,262.9 440.9,268.1 	"/>
	<polygon fill="#1E95D4" points="394.9,249.4 413.2,262.9 430.6,197.9 	"/>
	<polygon fill="#1E95D4" points="453.2,224.8 453.2,224.8 478.6,255 489.7,180 	"/>
	<polygon fill="#1888CA" points="430.6,197.9 412.8,262.9 453.2,224.8 	"/>
	<polygon fill="#1888CA" points="160.5,375.6 208.9,356.9 147,320 	"/>
	<polygon fill="#1888CA" points="132.7,200.6 68.8,126.1 67.6,189.5 	"/>
	<polygon fill="#1888CA" points="120.4,94.7 68.8,126.1 125.6,139.5 	"/>
	<polygon fill="#1E95D4" points="125.6,139.5 68.8,126.1 132.7,200.6 	"/>
	<polygon fill="#1E95D4" points="67.6,189.5 68.8,126.1 43.8,177.2 67.2,189.5 	"/>
	<polygon fill="#0A5DA4" points="132.7,200.6 147.8,122.5 147.4,122.1 120.4,94.7 125.6,139.5 	"/>
	<polygon fill="#1E95D4" points="147.8,122.5 160.9,72.5 120.4,94.7 147.4,122.1 	"/>
	<polygon fill="#0A5DA4" points="43.8,177.2 8.1,235.9 67.2,189.5 	"/>
	<polygon fill="#1888CA" points="67.6,189.5 67.2,189.5 8.1,235.9 66.4,250.2 	"/>
	<polygon fill="#00417A" points="92.2,407.3 118,368.4 79.1,334.7 	"/>
	<polygon fill="#1E95D4" points="118,368.4 160.5,375.6 147,320 	"/>
	<polygon fill="#0A5DA4" points="52.2,378.8 92.2,407.3 79.1,334.7 	"/>
	<polygon fill="#0A5DA4" points="79.1,334.7 118,368.4 147,320 	"/>
	<polygon fill="#0A5DA4" points="8.1,235.9 41.5,316.5 66.4,250.2 	"/>
	<polygon fill="#1E95D4" points="41.5,316.5 52.2,378.8 79.1,334.7 	"/>
	<polygon fill="#1888CA" points="66.4,250.2 41.5,316.5 79.1,334.7 	"/>
	<polygon fill="#AFD9E9" points="333.8,281.2 247.7,247.1 248.9,298.2 	"/>
	<polygon fill="#1E95D4" points="248.9,298.2 248.9,298.2 247.7,247.1 158.1,268.5 	"/>
	<polygon fill="#1888CA" points="147.8,122.5 132.7,200.6 187.4,166.9 	"/>
	<polygon fill="#1E95D4" points="147.8,122.5 187.4,166.9 227.5,147.9 148.2,122.1 	"/>
	<polygon fill="#AFD9E9" points="186.2,202.6 227.5,147.9 187.4,166.9 	"/>
	<polygon fill="#AFD9E9" points="147.8,122.5 227.5,147.9 212.4,90 	"/>
	<polygon fill="#1888CA" points="212.4,90 175.9,75.3 160.9,72.5 147.8,122.5 	"/>
</g>
</svg>
