<?xml version="1.0" encoding="utf-8"?>
<!-- Generator: Adobe Illustrator 21.0.0, SVG Export Plug-In . SVG Version: 6.00 Build 0)  -->
<svg version="1.1" id="svg2" xmlns="http://www.w3.org/2000/svg" xmlns:xlink="http://www.w3.org/1999/xlink" x="0px" y="0px"
	 viewBox="0 0 512 512" style="enable-background:new 0 0 512 512;" xml:space="preserve">
<style type="text/css">
	.st0{fill:none;}
	.st1{fill:#FFFFFF;}
</style>
<title>画板 1</title>
<polygon class="st0" points="154.9,127.5 219.4,94 154.8,127.5 "/>
<polygon class="st1" points="269.1,438.9 269.2,438.6 268.8,438.8 "/>
<polygon class="st1" points="202.3,464.8 268.4,465.7 268.7,438.8 268.8,438.8 269.2,438.6 319.2,398.2 286.9,375.1 245.3,424.8 "/>
<polygon class="st1" points="485.1,203.3 497.9,187.1 438.8,205.4 402.7,258.8 367.4,277.5 341.3,291.5 255,256.6 193,210.7 
	234.3,153.8 219.4,94 154.9,127.5 154.8,127.5 219.4,94 246.2,14.1 214.6,66.3 246.2,14 182.6,78.8 173.7,77.2 190.2,36.4 
	172.9,66.3 190.3,36 130.8,96.6 126.9,98.8 74.8,131.2 49.7,184.1 14,244.8 47.5,328.1 58.1,392.6 71.8,425.4 49.5,452.1 
	25.5,480.6 90.1,480.6 98.4,422.1 124.3,381.8 167.2,389.5 215.8,370.2 251.6,351.6 286.9,375.1 319.9,398.2 338.4,421.4 
	285.3,497.8 353.1,498 349.9,459.7 398.9,414.5 374,363.6 371,301.8 420.9,272.8 449,278.2 461.4,233.2 449.1,278.1 487,264.5 
	498,187.1 "/>
</svg>
