<?xml version="1.0" encoding="utf-8"?>
<!-- Generator: Adobe Illustrator 17.1.0, SVG Export Plug-In . SVG Version: 6.00 Build 0)  -->
<!DOCTYPE svg PUBLIC "-//W3C//DTD SVG 1.1//EN" "http://www.w3.org/Graphics/SVG/1.1/DTD/svg11.dtd">
<svg version="1.1"
	 id="svg2" inkscape:export-filename="/media/Data/Main/Visuals/Icons/Numix/Desktop/repos/numix-wiki/Gjorgi/Numix-folders/48/New/folder-144.png" xmlns:svg="http://www.w3.org/2000/svg" xmlns:sodipodi="http://sodipodi.sourceforge.net/DTD/sodipodi-0.dtd" xmlns:inkscape="http://www.inkscape.org/namespaces/inkscape" xmlns:dc="http://purl.org/dc/elements/1.1/" xmlns:cc="http://creativecommons.org/ns#" xmlns:rdf="http://www.w3.org/1999/02/22-rdf-syntax-ns#" inkscape:export-ydpi="270" inkscape:export-xdpi="270" sodipodi:docname="user-home.svg" inkscape:version="0.48.4 r9939"
	 xmlns="http://www.w3.org/2000/svg" xmlns:xlink="http://www.w3.org/1999/xlink" x="0px" y="0px" width="512px" height="512px"
	 viewBox="0 0 512 512" enable-background="new 0 0 512 512" xml:space="preserve">
<sodipodi:namedview  id="base" inkscape:cx="35.66124" pagecolor="#ffffff" showguides="true" inkscape:zoom="5.6530318" showgrid="true" borderopacity="1.0" inkscape:cy="21.321632" bordercolor="#666666" inkscape:pageopacity="0.0" inkscape:window-x="0" inkscape:guide-bbox="true" inkscape:pageshadow="2" inkscape:window-height="1023" inkscape:document-units="px" inkscape:window-width="1920" inkscape:window-y="28" inkscape:current-layer="layer1" inkscape:window-maximized="1">
	<inkscape:grid  type="xygrid" visible="true" enabled="true" id="grid2985" empspacing="5" snapvisiblegridlinesonly="true">
		</inkscape:grid>
</sodipodi:namedview>
<path opacity="0.2" enable-background="new    " d="M73.4,504.8l-1.2-1.8c-0.5-0.7-12.1-18.5-23.8-49.6
	C37.6,424.8,24.7,379,24.7,323.5c0-104.2,40.6-194.1,41-195l1.1-2.3h15.7l2.7-1.6l4.7-18.9l-61-9.9l10.3-63.9l129.9,21l7.3-45
	l187.7,30.4l-7.2,45.1l129.8,21l-0.7,4.2l-9.6,59.7l-40-6.5c7.8,22.4,28.2,87.8,28.3,161.8c0,53.8-12.9,99.6-23.7,128.6
	c-11.7,31.5-23.3,50-23.8,50.8l-1.2,1.9H73.4V504.8z M316.5,76.8l2.5-15.1L211.7,44.3l-2.4,15.2L316.5,76.8z"/>
<path opacity="8.000000e-002" enable-background="new    " d="M75.2,512.8l-2.4-3.6c-0.5-0.8-12.4-18.9-24.2-50.4
	c-10.9-28.9-24-75.2-24-131.3c0-105,40.9-195.8,41.4-196.7l2.1-4.7h17.2l0.3-0.2l3.3-13.1L28.3,103l11.6-71.8l129.9,21l7.3-45
	l195.6,31.6l-7.2,45.1l129.9,21L494,113l-10.4,63.8l-37.3-6c9.3,28.1,26.3,88.6,26.3,156.7c0,54.4-13,100.7-23.9,130
	c-11.9,31.8-23.7,50.7-24.2,51.5l-2.4,3.7L75.2,512.8L75.2,512.8z M317.2,76.2l1.2-7.2l-99.3-16.1l-1.2,7.3L317.2,76.2z"/>
<path opacity="9.999999e-002" enable-background="new    " d="M77.4,508.8l-1.2-1.8c-0.5-0.7-12.1-18.5-23.8-49.6
	C41.6,428.8,28.7,383,28.7,327.5c0-104.2,40.6-194.1,41-195l1.1-2.3h15.7l2.7-1.6l4.7-18.9l-61-9.9l10.3-63.9l129.9,21l7.3-45
	l187.7,30.4l-7.2,45.1l129.8,21l-0.7,4.2l-9.6,59.7l-40-6.5c7.8,22.4,28.2,87.8,28.3,161.8c0,53.8-12.9,99.6-23.7,128.6
	c-11.7,31.5-23.3,50-23.8,50.8l-1.2,1.9H77.4V508.8z M320.5,80.8l2.5-15.1L215.7,48.3l-2.4,15.2L320.5,80.8z"/>
<path fill="#616161" d="M75.5,500.8c0,0-46.9-71-46.9-177.2c0-104.5,40.6-193.4,40.6-193.4h14.2l5.2-2.9l5.6-22.2l10.1,3.6l-0.5-4.7
	L33.5,92.6l9-56l129.9,21l7.3-45l179.8,29.1l-7.2,45.1l129.8,21v0.2l-9,55.8l-42.7-6.9c0.9,2.6,30.3,78,30.3,166.8
	c0.1,102.9-46.9,177.2-46.9,177.2H75.5V500.8z M319.8,81.4l3.8-23L208.4,39.7l-3.7,23.1L319.8,81.4z"/>
<g>
	<polygon fill="#9E9E9E" points="320.8,136.6 167.8,63.8 105.1,97.1 109.3,137 128.5,157.4 224.6,147.1 	"/>
	<polygon fill="#E0E0E0" points="188.3,105.3 176.9,111.6 169.4,134.4 153.5,122.7 149.2,107.6 150.2,99.7 169.2,102.5 	"/>
	<polygon fill="#E0E0E0" points="227.5,112.8 226.5,112.6 225.5,120.7 228.1,132.4 228.1,132.4 228.9,133 245.8,115.4 	"/>
	<polygon fill="#E0E0E0" points="265.2,133 264.4,133.2 267,129.8 273.2,124.3 273.2,124.3 273.9,124.1 277.1,130.8 	"/>
	<polygon fill="#E0E0E0" points="182.5,132.2 180.5,132 189.2,121.1 209.3,106.2 209.3,106.2 211.5,106 220.6,134.2 	"/>
	<polygon fill="#E0E0E0" points="77.6,135.8 90.3,128.5 95.6,107.6 116.6,115.2 124.4,127.5 124.4,134.4 101,135.2 	"/>
	<polygon fill="#9E9E9E" points="101,135.2 102.4,135 102,123.9 96.8,108 96.8,108 95.6,107.6 90.3,128.5 77.6,135.8 	"/>
	<polygon fill="#E0E0E0" points="150.6,113.2 145.4,117.4 140.4,116.6 136.5,122.3 135.1,129.8 133.7,135.6 136.9,132.6 144,125.7 
		151.6,120.5 	"/>
	<path fill="#E0E0E0" d="M108.7,94.1l4.4,9.1c0,0,0,3,4.2,3.8c4.2,0.8,27.4,1.6,27.4,1.6l5-9.7L108.7,94.1z"/>
</g>
<linearGradient id="SVGID_1_" gradientUnits="userSpaceOnUse" x1="30.8" y1="569.5001" x2="458.8" y2="569.5001" gradientTransform="matrix(1 0 0 1 0 -254)">
	<stop  offset="4.838710e-002" style="stop-color:#CED7DB"/>
	<stop  offset="0.1017" style="stop-color:#C4CDD2"/>
	<stop  offset="0.2688" style="stop-color:#A7B5BC"/>
	<stop  offset="0.4093" style="stop-color:#94A6B0"/>
	<stop  offset="0.5054" style="stop-color:#8DA1AB"/>
	<stop  offset="1" style="stop-color:#CED7DB"/>
</linearGradient>
<path fill="url(#SVGID_1_)" d="M418.7,132.2h-174h-174c0,0-39.9,89.9-39.9,191.4s46,175.2,46,175.2h168h168c0,0,46-73.8,46-175.2
	S418.7,132.2,418.7,132.2z"/>
<path opacity="0.3" fill="#5E7B88" enable-background="new    " d="M63.5,150.3h362.4c-4-10.7-6.7-17.1-7.1-18.2H70.6
	C70.2,133.2,67.3,139.6,63.5,150.3z"/>
<path opacity="0.45" fill="#5E7B88" enable-background="new    " d="M258.1,132.2l173.3,33.6c-2.8-8.1-5.2-14.7-7.3-20L292,131.9
	L258.1,132.2z"/>
<polygon opacity="0.33" fill="#263137" enable-background="new    " points="106.5,103.1 257.3,132.2 292,132.2 106.3,102.1 "/>
<g>
	
		<rect x="37.1" y="73.7" transform="matrix(0.9871 0.1599 -0.1599 0.9871 19.3139 -39.9248)" fill="#5E7B88" width="441.2" height="52.6"/>
	
		<linearGradient id="SVGID_2_" gradientUnits="userSpaceOnUse" x1="64.7974" y1="308.5286" x2="506.219" y2="308.5286" gradientTransform="matrix(0.9871 0.1599 -0.1599 0.9871 25.5586 -252.1013)">
		<stop  offset="4.838710e-002" style="stop-color:#5E7B88"/>
		<stop  offset="0.2473" style="stop-color:#5E7B88"/>
		<stop  offset="0.5054" style="stop-color:#445962"/>
		<stop  offset="0.7419" style="stop-color:#5E7B88"/>
		<stop  offset="1" style="stop-color:#5E7B88"/>
	</linearGradient>
	<polygon opacity="0.65" fill="url(#SVGID_2_)" enable-background="new    " points="471.9,157.4 36.3,86.8 44.2,38.8 479.8,109.4 	
		"/>
	<polygon fill="#5E7B88" points="181.3,14.8 174,59.8 202.5,64.4 207.3,34 326.5,53.1 321.4,83.8 349.9,88.4 357.1,43.2 	"/>
	
		<linearGradient id="SVGID_3_" gradientUnits="userSpaceOnUse" x1="196.4124" y1="261.3879" x2="374.6281" y2="261.3879" gradientTransform="matrix(0.9871 0.1599 -0.1599 0.9871 25.5586 -252.1013)">
		<stop  offset="4.838710e-002" style="stop-color:#445962"/>
		<stop  offset="0.1347" style="stop-color:#4D646E"/>
		<stop  offset="0.2908" style="stop-color:#5A7581"/>
		<stop  offset="0.3978" style="stop-color:#5E7B88"/>
		<stop  offset="0.6129" style="stop-color:#5E7B88"/>
		<stop  offset="1" style="stop-color:#445962"/>
	</linearGradient>
	<polygon fill="url(#SVGID_3_)" points="181.3,14.8 174,59.8 202.5,64.4 207.3,34 326.5,53.1 321.4,83.8 349.9,88.4 357.1,43.2 	"/>
	
		<rect x="206.2" y="42.9" transform="matrix(0.9871 0.1599 -0.1599 0.9871 10.6245 -42.043)" fill="#445962" width="120.6" height="4.2"/>
	
		<rect x="33.3" y="122.1" transform="matrix(0.9871 0.1599 -0.1599 0.9871 23.1194 -39.0071)" fill="#445962" width="441.2" height="4"/>
</g>
<g>
	<g>
		<path fill="#5E7B88" d="M132.1,470.6H98.2c0,0-30.3-70.8-30.3-154.9S98.2,181,98.2,181h33.9c0,0-30.3,36.9-30.3,134.7
			S132.1,470.6,132.1,470.6z"/>
		<path fill="#CED7DB" d="M96.8,467.1c0.8,2.2,1.4,3.4,1.4,3.4h33.9c0,0-0.6-1.2-1.6-3.4H96.8z"/>
		<path fill="#536B75" d="M127.6,187.6c2.6-4.6,4.4-6.9,4.4-6.9H98.2c0,0-1.4,2.4-3.6,6.9H127.6z"/>
	</g>
	<g>
		<path fill="#5E7B88" d="M217,470.6h-34.1c0,0-22.2-70.8-22.2-154.9S182.9,181,182.9,181h33.9c0,0-22.2,36.9-22.2,134.7
			S217,470.6,217,470.6z"/>
		<path fill="#CED7DB" d="M181.9,467.1c0.6,2.2,1,3.4,1,3.4h33.9c0,0-0.4-1.2-1.2-3.4H181.9z"/>
		<path fill="#536B75" d="M213.8,187.6c2-4.6,3.2-6.9,3.2-6.9h-34.1c0,0-1,2.4-2.6,6.9H213.8z"/>
	</g>
	<g>
		<path fill="#5E7B88" d="M357.1,470.6H391c0,0,30.3-70.8,30.3-154.9S391,181,391,181h-33.9c0,0,30.3,36.9,30.3,134.7
			S357.1,470.6,357.1,470.6z"/>
		<path fill="#CED7DB" d="M392.4,467.1c-0.8,2.2-1.4,3.4-1.4,3.4h-33.9c0,0,0.6-1.2,1.6-3.4H392.4z"/>
		<path fill="#536B75" d="M361.6,187.6c-2.6-4.6-4.4-6.9-4.4-6.9h33.9c0,0,1.4,2.4,3.6,6.9H361.6z"/>
	</g>
	<g>
		<path fill="#5E7B88" d="M272.4,470.6h33.9c0,0,22.2-70.8,22.2-154.9S306.3,181,306.3,181h-33.9c0,0,22.2,36.9,22.2,134.7
			S272.4,470.6,272.4,470.6z"/>
		<path fill="#CED7DB" d="M307.3,467.1c-0.6,2.2-1,3.4-1,3.4h-33.9c0,0,0.4-1.2,1.2-3.4H307.3z"/>
		<path fill="#536B75" d="M275.7,187.6c-2-4.6-3.2-6.9-3.2-6.9h33.9c0,0,1,2.4,2.6,6.9H275.7z"/>
	</g>
</g>
</svg>
