<?xml version="1.0" encoding="utf-8"?>
<!-- Generator: Adobe Illustrator 21.0.0, SVG Export Plug-In . SVG Version: 6.00 Build 0)  -->
<svg version="1.1" id="图层_39" xmlns="http://www.w3.org/2000/svg" xmlns:xlink="http://www.w3.org/1999/xlink" x="0px" y="0px"
	 viewBox="0 0 32 32" style="enable-background:new 0 0 32 32;" xml:space="preserve">
<style type="text/css">
	.st0{fill:url(#SVGID_1_);}
	.st1{opacity:0.2;enable-background:new    ;}
	.st2{opacity:0.08;enable-background:new    ;}
	.st3{opacity:0.1;enable-background:new    ;}
	.st4{fill:#F57F17;}
	.st5{fill:url(#SVGID_2_);}
</style>
<title>favorite32</title>
<radialGradient id="SVGID_1_" cx="15.9812" cy="781.3967" r="13.6696" gradientTransform="matrix(1 0 0 0.99 0 -757.6628)" gradientUnits="userSpaceOnUse">
	<stop  offset="0" style="stop-color:#FFFF00"/>
	<stop  offset="0.06" style="stop-color:#FFFC09"/>
	<stop  offset="0.34" style="stop-color:#FDEF2E"/>
	<stop  offset="0.6" style="stop-color:#FBE54A"/>
	<stop  offset="0.83" style="stop-color:#FADF5A"/>
	<stop  offset="1" style="stop-color:#FADD60"/>
</radialGradient>
<path class="st0" d="M30,13c0,0,0-0.1,0-0.2c0,0,0,0-0.1,0l-9.5-1.4c0,0-0.1,0-0.1-0.1L16,2.7c0-0.1-0.1-0.1-0.2,0l0,0l-4.2,8.5
	l-0.1,0.1L2,12.7c-0.1,0-0.1,0-0.2,0.1c0,0.1,0,0.1,0.1,0.2l6.9,6.7v0.1l-1.6,9.4c0,0.1,0,0.1,0.1,0.1c0,0,0,0,0.1,0l8.5-4.4H16
	l8.5,4.4c0.1,0,0.1,0,0.2-0.1c0,0,0,0,0-0.1l-1.6-9.4v-0.1L30,13z"/>
<path class="st1" d="M24.4,30.2l-0.3-0.1L16,25.9l-8.3,4.3H7.4c-0.3,0-0.7-0.1-0.9-0.4l-0.3-0.3V29l1.5-9l-6.5-6.3
	c-0.4-0.4-0.4-1.1,0-1.6c0.2-0.2,0.4-0.3,0.7-0.3l9-1.3l4-8.1c0.3-0.6,1-0.8,1.5-0.5C16.7,2,16.9,2.2,17,2.4l4,8.1l9,1.3
	c0.6,0.1,1,0.7,0.9,1.3c0,0.2-0.2,0.5-0.3,0.6L24.1,20l1.6,9.3l-0.3,0.4c-0.2,0.3-0.5,0.4-0.9,0.5L24.4,30.2z"/>
<path class="st2" d="M24.8,31.2l-0.4-0.1L16.5,27l-8.1,4.2H8c-0.5,0-1-0.2-1.3-0.6l-0.4-0.5v-0.7l1.5-8.7l-6.3-6.1
	c-0.6-0.6-0.7-1.7,0-2.3C1.7,12,2,11.9,2.4,11.8l8.8-1.3l3.9-7.9c0.4-0.8,1.4-1.1,2.2-0.7c0.3,0.2,0.6,0.4,0.7,0.7l3.9,7.9l8.8,1.3
	c0.9,0.1,1.5,0.9,1.4,1.8c0,0.4-0.2,0.7-0.5,0.9l-6.3,6.1l1.6,9.3l-0.4,0.6c-0.3,0.4-0.8,0.7-1.3,0.7L24.8,31.2z"/>
<path class="st3" d="M24.9,30.7l-0.3-0.1l-8.1-4.2l-8.3,4.3H7.9c-0.3,0-0.7-0.1-0.9-0.4L6.8,30v-0.5l1.5-9l-6.5-6.3
	c-0.4-0.4-0.5-1.1,0-1.6c0.2-0.2,0.4-0.3,0.6-0.3l9-1.3l4-8.1c0.3-0.6,1-0.8,1.5-0.5c0.2,0.1,0.4,0.3,0.5,0.5l4,8.1l9,1.3
	c0.6,0.1,1,0.7,0.9,1.3c0,0.2-0.2,0.5-0.3,0.6l-6.5,6.3l1.6,9.3L26,30.3c-0.2,0.3-0.5,0.4-0.9,0.5h-0.2V30.7z"/>
<path class="st4" d="M24.5,29.7l-0.2-0.1L16,25.3l-8.4,4.4H7.4c-0.2,0-0.4-0.1-0.5-0.2l-0.2-0.2V29l1.6-9.2l-6.7-6.5
	c-0.2-0.2-0.3-0.6,0-0.9c0.1-0.1,0.2-0.2,0.3-0.2l9.3-1.3l4.2-8.4c0.2-0.3,0.5-0.4,0.8-0.3c0.1,0.1,0.2,0.2,0.3,0.3l4.1,8.4l9.3,1.3
	c0.3,0.1,0.6,0.4,0.5,0.7c0,0.1-0.1,0.2-0.2,0.3l-6.7,6.5l1.6,9.4l-0.2,0.3c-0.1,0.1-0.3,0.2-0.5,0.2L24.5,29.7z"/>
<radialGradient id="SVGID_2_" cx="15.9812" cy="774.7146" r="13.637" gradientTransform="matrix(1 0 0 1 0 -758.72)" gradientUnits="userSpaceOnUse">
	<stop  offset="0" style="stop-color:#FFFF00"/>
	<stop  offset="0.06" style="stop-color:#FFFC09"/>
	<stop  offset="0.34" style="stop-color:#FDEF2E"/>
	<stop  offset="0.6" style="stop-color:#FBE54A"/>
	<stop  offset="0.83" style="stop-color:#FADF5A"/>
	<stop  offset="1" style="stop-color:#FADD60"/>
</radialGradient>
<path class="st5" d="M30,13c0,0,0-0.1,0-0.2c0,0,0,0-0.1,0l-9.5-1.4c0,0-0.1,0-0.1-0.1L16,2.7c0-0.1-0.1-0.1-0.2,0l0,0l-4.2,8.5
	l-0.1,0.1L2,12.7c-0.1,0-0.1,0-0.2,0.1c0,0.1,0,0.1,0.1,0.2l6.9,6.7v0.1l-1.6,9.4c0,0.1,0,0.1,0.1,0.1c0,0,0,0,0.1,0l8.5-4.4H16
	l8.5,4.4c0.1,0,0.1,0,0.2-0.1c0,0,0,0,0-0.1l-1.6-9.4v-0.1L30,13z"/>
</svg>
