<?xml version="1.0" encoding="utf-8"?>
<!-- Generator: Adobe Illustrator 21.0.0, SVG Export Plug-In . SVG Version: 6.00 Build 0)  -->
<svg version="1.1" id="图层_39" xmlns="http://www.w3.org/2000/svg" xmlns:xlink="http://www.w3.org/1999/xlink" x="0px" y="0px"
	 viewBox="0 0 32 32" style="enable-background:new 0 0 32 32;" xml:space="preserve">
<style type="text/css">
	.st0{opacity:0.2;enable-background:new    ;}
	.st1{opacity:0.08;enable-background:new    ;}
	.st2{opacity:0.1;enable-background:new    ;}
	.st3{fill:#F57F17;}
	.st4{fill:url(#SVGID_1_);}
	.st5{fill:url(#rect2990_1_);}
	.st6{opacity:0.39;}
</style>
<title>032folder-dropbox</title>
<g id="_32">
	<polygon class="st0" points="1,29 1,8.5 3,8.5 3,3 10.2,3 12.2,5 29,5 29,8.5 31,8.5 31,29 	"/>
	<polygon class="st1" points="1,30 1,8.5 3,8.5 3,3 10.9,3 12.9,5 30,5 30,8.5 32,8.5 32,30 	"/>
	<polygon class="st2" points="1.5,29.5 1.5,9 3.5,9 3.5,3.5 10.7,3.5 12.7,5.5 29.5,5.5 29.5,9 31.5,9 31.5,29.5 	"/>
	<polygon class="st3" points="1.5,28.5 1.5,9 3.5,9 3.5,3.5 10,3.5 12,5.5 28.5,5.5 28.5,9 30.5,9 30.5,28.5 	"/>
	
		<linearGradient id="SVGID_1_" gradientUnits="userSpaceOnUse" x1="16" y1="1700.6699" x2="16" y2="1693.97" gradientTransform="matrix(1 0 0 1 0 -1690)">
		<stop  offset="0" style="stop-color:#F57C00"/>
		<stop  offset="0.16" style="stop-color:#F58F09"/>
		<stop  offset="0.36" style="stop-color:#F59D11"/>
		<stop  offset="0.6" style="stop-color:#F5A515"/>
		<stop  offset="0.99" style="stop-color:#F5A816"/>
	</linearGradient>
	<path class="st4" d="M28,6H11.5l-2-2H4v5.6c0,0.6,0.4,1,1,1h22c0.5,0,1,0.1,1-0.5V6z"/>
	
		<linearGradient id="rect2990_1_" gradientUnits="userSpaceOnUse" x1="16" y1="1699.5701" x2="16" y2="1717.9299" gradientTransform="matrix(1 0 0 1 0 -1690)">
		<stop  offset="0" style="stop-color:#FADD60"/>
		<stop  offset="0.99" style="stop-color:#F5A816"/>
	</linearGradient>
	<rect id="rect2990" x="2" y="9.5" class="st5" width="28" height="18.5"/>
</g>
<g id="新建符号_8">
	<g class="st6">
		<polygon class="st3" points="12.1,16.7 9,19.2 13.4,22 16.5,19.5 		"/>
		<polygon class="st3" points="9,14.4 12.1,16.7 16.5,14.1 13.4,11.5 		"/>
		<polygon class="st3" points="19.6,22.7 16.5,20 13.4,22.7 12,21.8 12,22.8 16.5,25.5 21,22.8 21,21.8 		"/>
		<polygon class="st3" points="20.9,16.7 24,19.2 19.6,22 16.5,19.5 		"/>
		<polygon class="st3" points="24,14.4 20.9,16.7 16.5,14.1 19.6,11.5 		"/>
	</g>
</g>
</svg>
