<?xml version="1.0" encoding="utf-8"?>
<!-- Generator: Adobe Illustrator 21.0.0, SVG Export Plug-In . SVG Version: 6.00 Build 0)  -->
<svg version="1.1" id="图层_39" xmlns="http://www.w3.org/2000/svg" xmlns:xlink="http://www.w3.org/1999/xlink" x="0px" y="0px"
	 viewBox="0 0 32 32" style="enable-background:new 0 0 32 32;" xml:space="preserve">
<style type="text/css">
	.st0{opacity:0.2;enable-background:new    ;}
	.st1{opacity:0.08;enable-background:new    ;}
	.st2{opacity:0.1;enable-background:new    ;}
	.st3{fill:#F57F17;}
	.st4{fill:url(#SVGID_1_);}
	.st5{fill:url(#rect2990_1_);}
	.st6{opacity:0.39;}
</style>
<title>032folder-system</title>
<g id="_32">
	<polygon class="st0" points="1,29 1,8.5 3,8.5 3,3 10.2,3 12.2,5 29,5 29,8.5 31,8.5 31,29 	"/>
	<polygon class="st1" points="1,30 1,8.5 3,8.5 3,3 10.9,3 12.9,5 30,5 30,8.5 32,8.5 32,30 	"/>
	<polygon class="st2" points="1.5,29.5 1.5,9 3.5,9 3.5,3.5 10.7,3.5 12.7,5.5 29.5,5.5 29.5,9 31.5,9 31.5,29.5 	"/>
	<polygon class="st3" points="1.5,28.5 1.5,9 3.5,9 3.5,3.5 10,3.5 12,5.5 28.5,5.5 28.5,9 30.5,9 30.5,28.5 	"/>
	
		<linearGradient id="SVGID_1_" gradientUnits="userSpaceOnUse" x1="16" y1="1702.6699" x2="16" y2="1695.97" gradientTransform="matrix(1 0 0 1 0 -1692)">
		<stop  offset="0" style="stop-color:#F57C00"/>
		<stop  offset="0.16" style="stop-color:#F58F09"/>
		<stop  offset="0.36" style="stop-color:#F59D11"/>
		<stop  offset="0.6" style="stop-color:#F5A515"/>
		<stop  offset="0.99" style="stop-color:#F5A816"/>
	</linearGradient>
	<path class="st4" d="M28,6H11.5l-2-2H4v5.6c0,0.6,0.4,1,1,1h22c0.5,0,1,0.1,1-0.5V6z"/>
	
		<linearGradient id="rect2990_1_" gradientUnits="userSpaceOnUse" x1="16" y1="1701.5701" x2="16" y2="1719.9299" gradientTransform="matrix(1 0 0 1 0 -1692)">
		<stop  offset="0" style="stop-color:#FADD60"/>
		<stop  offset="0.99" style="stop-color:#F5A816"/>
	</linearGradient>
	<rect id="rect2990" x="2" y="9.5" class="st5" width="28" height="18.5"/>
</g>
<g id="_256">
	<g class="st6">
		<path class="st3" d="M16.5,21.4c-1.6,0-2.9-1.3-2.9-2.9s1.3-2.9,2.9-2.9s2.9,1.3,2.9,2.9S18.2,21.4,16.5,21.4L16.5,21.4z
			 M16.5,16.2c-1.2,0-2.2,1-2.2,2.2s1,2.2,2.2,2.2s2.2-1,2.2-2.2C18.8,17.2,17.8,16.2,16.5,16.2L16.5,16.2z"/>
	</g>
	<g class="st6">
		<path class="st3" d="M18.1,25l-1.7-1.5L15,25l-1.9-0.7v-2.2L11,22l-1-1.9l1.5-1.7L10,17.1l1-2.4l2.1,0.3L13,13l1.9-1l1.5,1.6
			L18,12l2.2,0.9V15l2.2,0.1l0.6,2.1l-1.5,1.4L23,20l-0.9,2.2H20v2L18.1,25z M13.8,23.8l1.1,0.4l1.5-1.6l1.9,1.6l1.1-0.5v-2.2h2.3
			l0.5-1.3l-1.8-1.5l1.8-1.7l-0.4-1.3l-2.3-0.1v-2.2l-1.4-0.5l-1.8,1.7l-1.6-1.7l-1,0.6l0.1,2.4l-2.4-0.4L10.8,17l1.6,1.5l-1.6,1.8
			l0.6,1.1l2.4,0.1L13.8,23.8z"/>
	</g>
</g>
</svg>
