<?xml version="1.0" encoding="utf-8"?>
<!-- Generator: Adobe Illustrator 17.1.0, SVG Export Plug-In . SVG Version: 6.00 Build 0)  -->
<!DOCTYPE svg PUBLIC "-//W3C//DTD SVG 1.1//EN" "http://www.w3.org/Graphics/SVG/1.1/DTD/svg11.dtd">
<svg version="1.1"
	 id="svg2" inkscape:export-filename="/media/Data/Main/Visuals/Icons/Numix/Desktop/repos/numix-wiki/Gjorgi/Numix-folders/48/New/folder-144.png" xmlns:svg="http://www.w3.org/2000/svg" xmlns:sodipodi="http://sodipodi.sourceforge.net/DTD/sodipodi-0.dtd" xmlns:inkscape="http://www.inkscape.org/namespaces/inkscape" xmlns:dc="http://purl.org/dc/elements/1.1/" xmlns:cc="http://creativecommons.org/ns#" xmlns:rdf="http://www.w3.org/1999/02/22-rdf-syntax-ns#" inkscape:version="0.48.4 r9939" sodipodi:docname="user-home.svg" inkscape:export-xdpi="270" inkscape:export-ydpi="270"
	 xmlns="http://www.w3.org/2000/svg" xmlns:xlink="http://www.w3.org/1999/xlink" x="0px" y="0px" width="32px" height="32px"
	 viewBox="0 0 32 32" enable-background="new 0 0 32 32" xml:space="preserve">
<polygon opacity="8.000000e-002" points="1,19.9 1,6.6 2.1,6.6 2.1,3.3 7.4,3.3 8.4,4.4 18.6,4.4 18.6,6.6 19.7,6.6 19.7,19.9 "/>
<polygon opacity="9.999999e-002" points="1.5,19.4 1.5,7.1 2.6,7.1 2.6,3.8 7.2,3.8 8.2,4.9 18.1,4.9 18.1,7.1 19.2,7.1 19.2,19.4 
	"/>
<polygon opacity="0.2" points="1,18.9 1,6.6 2.1,6.6 2.1,3.3 6.7,3.3 7.7,4.4 17.6,4.4 17.6,6.6 18.7,6.6 18.7,18.9 "/>
<polygon fill="#F57F17" points="1.5,18.4 1.5,7.1 2.6,7.1 2.6,3.8 6.5,3.8 7.5,4.9 17.1,4.9 17.1,7.1 18.2,7.1 18.2,18.4 "/>
<linearGradient id="SVGID_1_" gradientUnits="userSpaceOnUse" x1="2.0393" y1="-24.8679" x2="17.7393" y2="-24.8679" gradientTransform="matrix(1 0 0 1 0 36)">
	<stop  offset="0" style="stop-color:#F59D11"/>
	<stop  offset="1" style="stop-color:#FF9800"/>
</linearGradient>
<path fill="url(#SVGID_1_)" d="M16.7,7.5c0-0.8,0-2.1,0-2.1H7.5l-1-1.1H3.1v1.1v1.1v1.1H2v10.4h15.7V7.5H16.7L16.7,7.5z"/>
<polygon opacity="8.000000e-002" points="13.3,29.7 13.3,16.4 14.4,16.4 14.4,13.1 19.7,13.1 20.7,14.2 30.9,14.2 30.9,16.4 
	32,16.4 32,29.7 "/>
<polygon opacity="9.999999e-002" points="13.8,29.2 13.8,16.9 14.9,16.9 14.9,13.6 19.5,13.6 20.5,14.7 30.4,14.7 30.4,16.9 
	31.5,16.9 31.5,29.2 "/>
<polygon opacity="0.2" points="13.3,28.7 13.3,16.4 14.4,16.4 14.4,13.1 19,13.1 20,14.2 29.9,14.2 29.9,16.4 31,16.4 31,28.7 "/>
<polygon fill="#F57F17" points="13.8,28.2 13.8,16.9 14.9,16.9 14.9,13.6 18.8,13.6 19.8,14.7 29.4,14.7 29.4,16.9 30.5,16.9 
	30.5,28.2 "/>
<linearGradient id="SVGID_2_" gradientUnits="userSpaceOnUse" x1="22.1452" y1="-83.9747" x2="22.1452" y2="-87.8848" gradientTransform="matrix(1 0 0 1 0 102)">
	<stop  offset="0" style="stop-color:#F57C00"/>
	<stop  offset="0.1638" style="stop-color:#F58F09"/>
	<stop  offset="0.3598" style="stop-color:#F59D11"/>
	<stop  offset="0.5982" style="stop-color:#F5A515"/>
	<stop  offset="0.9946" style="stop-color:#F5A816"/>
</linearGradient>
<path fill="url(#SVGID_2_)" d="M28.9,15.2h-9.2l-1-1.1h-3.4v1.1v1v1.3c0,0.3,0.3,0.5,0.5,0.5h12.5c0.3,0,0.5,0,0.5-0.3
	C28.9,17.2,28.9,15.2,28.9,15.2z"/>
<linearGradient id="rect2990_1_" gradientUnits="userSpaceOnUse" x1="22.1117" y1="-84.6267" x2="22.1117" y2="-74.1593" gradientTransform="matrix(1 0 0 1 0 102)">
	<stop  offset="0" style="stop-color:#FADD60"/>
	<stop  offset="0.9946" style="stop-color:#F5A816"/>
</linearGradient>
<polyline id="rect2990_2_" fill="url(#rect2990_1_)" points="30,17.3 30,27.8 14.3,27.8 14.3,17.3 "/>
<path id="rect3004_1_" inkscape:connector-curvature="0" opacity="0.25" fill="#FDEFBA" enable-background="new    " d="M14.3,17.3
	v2c0-0.7,0.5-1.3,1.1-1.3h13.6c0.6,0,1.1,0.5,1.1,1.3v-2H14.3z"/>
<path id="path3801_1_" inkscape:connector-curvature="0" opacity="0.1" fill="#E65100" enable-background="new    " d="M15.2,14
	c0,0,0,0.3,0,0.8v0.6c0-0.6,0.2-0.8,0.5-0.8h2.8c0.2,0,0.4,0,0.9,0.3c0.1,0.1,0.3,0.1,0.4,0.3l-1-1.1H15.2L15.2,14L15.2,14z"/>
<polygon opacity="0.1" fill="#E65100" enable-background="new    " points="19.7,15.2 28.9,15.2 28.9,15.9 20.5,15.9 "/>
<rect x="15.4" y="16.8" opacity="5.000000e-002" fill="#E65100" enable-background="new    " width="13.6" height="0.5"/>
</svg>
