<?xml version="1.0" encoding="utf-8"?>
<!-- Generator: Adobe Illustrator 21.0.0, SVG Export Plug-In . SVG Version: 6.00 Build 0)  -->
<svg version="1.1" id="图层_39" xmlns="http://www.w3.org/2000/svg" xmlns:xlink="http://www.w3.org/1999/xlink" x="0px" y="0px"
	 viewBox="0 0 32 32" style="enable-background:new 0 0 32 32;" xml:space="preserve">
<style type="text/css">
	.st0{opacity:0.2;fill:#231815;enable-background:new    ;}
	.st1{opacity:0.08;fill:#231815;enable-background:new    ;}
	.st2{opacity:0.1;fill:#231815;enable-background:new    ;}
	.st3{fill:#90A4AE;}
	.st4{fill:url(#SVGID_1_);}
	.st5{fill:#FF6E40;}
	.st6{fill:url(#rect2998_1_);}
	.st7{fill:url(#rect2992_1_);}
	.st8{fill:#BBDEFB;}
	.st9{fill:#F5F5F5;}
	.st10{fill:url(#rect2992-2_1_);}
	.st11{fill:#FF8A65;}
</style>
<title>032network-server</title>
<rect x="1" y="2" class="st0" width="30" height="28"/>
<rect x="1" y="2" class="st1" width="31" height="29"/>
<rect x="1.5" y="2.5" class="st2" width="30" height="28"/>
<rect x="1.5" y="2.5" class="st3" width="29" height="27"/>
<linearGradient id="SVGID_1_" gradientUnits="userSpaceOnUse" x1="16" y1="2593.6802" x2="16" y2="2619.6802" gradientTransform="matrix(1 0 0 1 0 -2590.72)">
	<stop  offset="0" style="stop-color:#FFFFFF"/>
	<stop  offset="0.53" style="stop-color:#ECECEC"/>
	<stop  offset="1" style="stop-color:#E0E0E0"/>
</linearGradient>
<rect x="2" y="3" class="st4" width="28" height="26"/>
<rect id="rect3804" x="15" y="18" class="st5" width="2" height="3.2"/>
<rect id="rect3802" x="15" y="10.5" class="st5" width="2" height="3.2"/>
<linearGradient id="rect2998_1_" gradientUnits="userSpaceOnUse" x1="16" y1="2609.71" x2="16" y2="2603.73" gradientTransform="matrix(1 0 0 1 0 -2590.72)">
	<stop  offset="0" style="stop-color:#E64A19"/>
	<stop  offset="0.22" style="stop-color:#F04F1D"/>
	<stop  offset="0.59" style="stop-color:#FB5521"/>
	<stop  offset="1" style="stop-color:#FF5722"/>
</linearGradient>
<rect id="rect2998" x="4" y="13" class="st6" width="24" height="6"/>
<linearGradient id="rect2992_1_" gradientUnits="userSpaceOnUse" x1="16" y1="2595.71" x2="16" y2="2601.7" gradientTransform="matrix(1 0 0 1 0 -2590.72)">
	<stop  offset="0" style="stop-color:#4FC3F7"/>
	<stop  offset="0.11" style="stop-color:#3EBDF6"/>
	<stop  offset="0.32" style="stop-color:#24B4F5"/>
	<stop  offset="0.53" style="stop-color:#12AEF5"/>
	<stop  offset="0.76" style="stop-color:#07AAF4"/>
	<stop  offset="1" style="stop-color:#03A9F4"/>
</linearGradient>
<rect id="rect2992" x="4" y="5" class="st7" width="24" height="6"/>
<rect id="rect3806" x="6" y="6.5" class="st8" width="12" height="2.5"/>
<circle class="st8" cx="21.3" cy="7.8" r="1.3"/>
<rect x="6" y="7" class="st9" width="12" height="2"/>
<path class="st9" d="M22.3,8.4l0.1-0.1V8.2c0-0.1,0-0.1,0-0.2c-0.1-0.7-0.8-1.1-1.5-1c-0.5,0.1-0.9,0.5-1,1c0.1,0.5,0.4,0.9,0.9,1
	c0.1,0,0.2,0,0.3,0C21.6,8.9,22.1,8.7,22.3,8.4z"/>
<circle class="st8" cx="24.8" cy="7.8" r="1.3"/>
<path class="st9" d="M25.8,8.4l0.1-0.1V8.2C25.9,8.1,26,8,26,7.9c-0.1-0.7-0.8-1.1-1.5-1c-0.5,0.1-0.9,0.5-1,1
	c0.1,0.5,0.4,0.9,0.9,1c0.1,0,0.2,0,0.3,0C25.2,8.9,25.6,8.7,25.8,8.4z"/>
<linearGradient id="rect2992-2_1_" gradientUnits="userSpaceOnUse" x1="16" y1="2611.71" x2="16" y2="2617.7" gradientTransform="matrix(1 0 0 1 0 -2590.72)">
	<stop  offset="0" style="stop-color:#4FC3F7"/>
	<stop  offset="0.11" style="stop-color:#3EBDF6"/>
	<stop  offset="0.32" style="stop-color:#24B4F5"/>
	<stop  offset="0.53" style="stop-color:#12AEF5"/>
	<stop  offset="0.76" style="stop-color:#07AAF4"/>
	<stop  offset="1" style="stop-color:#03A9F4"/>
</linearGradient>
<rect id="rect2992-2" x="4" y="21" class="st10" width="24" height="6"/>
<rect id="rect3806-2" x="6" y="22.5" class="st8" width="12" height="2.5"/>
<circle class="st8" cx="21.3" cy="23.8" r="1.3"/>
<rect x="6" y="23" class="st9" width="12" height="2"/>
<path class="st9" d="M22.3,24.4l0.1-0.1v-0.1c0-0.1,0-0.1,0-0.2c-0.1-0.7-0.8-1.1-1.5-1c-0.5,0.1-0.9,0.5-1,1c0.1,0.5,0.4,0.9,0.9,1
	c0.1,0,0.2,0,0.3,0C21.6,24.9,22.1,24.7,22.3,24.4z"/>
<circle class="st8" cx="24.8" cy="23.8" r="1.3"/>
<path class="st9" d="M25.8,24.4l0.1-0.1v-0.1c0-0.1,0-0.1,0-0.2c-0.1-0.7-0.8-1.1-1.5-1c-0.5,0.1-0.9,0.5-1,1c0.1,0.5,0.4,0.9,0.9,1
	c0.1,0,0.2,0,0.3,0C25.1,24.9,25.6,24.7,25.8,24.4z"/>
<rect id="rect3806-3" x="6" y="14.5" class="st11" width="12" height="2.5"/>
<circle class="st11" cx="21.3" cy="15.8" r="1.3"/>
<rect x="6" y="15" class="st9" width="12" height="2"/>
<path class="st9" d="M22.3,16.4l0.1-0.1v-0.1c0-0.1,0-0.1,0-0.2c-0.1-0.7-0.8-1.1-1.5-1c-0.5,0.1-0.9,0.5-1,1c0.1,0.5,0.4,0.9,0.9,1
	c0.1,0,0.2,0,0.3,0C21.6,16.9,22.1,16.7,22.3,16.4z"/>
<circle class="st11" cx="24.8" cy="15.8" r="1.3"/>
<path class="st9" d="M25.8,16.4l0.1-0.1v-0.1c0-0.1,0-0.1,0-0.2c-0.1-0.7-0.8-1.1-1.5-1c-0.5,0.1-0.9,0.5-1,1c0.1,0.5,0.4,0.9,0.9,1
	c0.1,0,0.2,0,0.3,0C25.1,16.9,25.6,16.7,25.8,16.4z"/>
</svg>
