<?xml version="1.0" encoding="utf-8"?>
<!-- Generator: Adobe Illustrator 21.0.0, SVG Export Plug-In . SVG Version: 6.00 Build 0)  -->
<svg version="1.1" id="图层_39" xmlns="http://www.w3.org/2000/svg" xmlns:xlink="http://www.w3.org/1999/xlink" x="0px" y="0px"
	 viewBox="0 0 32 32" style="enable-background:new 0 0 32 32;" xml:space="preserve">
<style type="text/css">
	.st0{opacity:0.2;enable-background:new    ;}
	.st1{opacity:0.08;enable-background:new    ;}
	.st2{opacity:0.1;enable-background:new    ;}
	.st3{fill:#F57F17;}
	.st4{fill:url(#SVGID_1_);}
	.st5{fill:url(#rect2990_1_);}
	.st6{fill:#F57F17;fill-opacity:0.39;}
</style>
<title>network32</title>
<g id="_32">
	<polygon class="st0" points="1,29 1,8.5 3,8.5 3,3 10.2,3 12.2,5 29,5 29,8.5 31,8.5 31,29 	"/>
	<polygon class="st1" points="1,30 1,8.5 3,8.5 3,3 10.9,3 12.9,5 30,5 30,8.5 32,8.5 32,30 	"/>
	<polygon class="st2" points="1.5,29.5 1.5,9 3.5,9 3.5,3.5 10.7,3.5 12.7,5.5 29.5,5.5 29.5,9 31.5,9 31.5,29.5 	"/>
	<polygon class="st3" points="1.5,28.5 1.5,9 3.5,9 3.5,3.5 10,3.5 12,5.5 28.5,5.5 28.5,9 30.5,9 30.5,28.5 	"/>
	
		<linearGradient id="SVGID_1_" gradientUnits="userSpaceOnUse" x1="16" y1="1701.39" x2="16" y2="1694.6899" gradientTransform="matrix(1 0 0 1 0 -1690.72)">
		<stop  offset="0" style="stop-color:#F57C00"/>
		<stop  offset="0.16" style="stop-color:#F58F09"/>
		<stop  offset="0.36" style="stop-color:#F59D11"/>
		<stop  offset="0.6" style="stop-color:#F5A515"/>
		<stop  offset="0.99" style="stop-color:#F5A816"/>
	</linearGradient>
	<path class="st4" d="M28,6H11.5l-2-2H4v5.6c0,0.6,0.4,1,1,1h22c0.5,0,1,0.1,1-0.5V6z"/>
	
		<linearGradient id="rect2990_1_" gradientUnits="userSpaceOnUse" x1="16" y1="1700.29" x2="16" y2="1718.65" gradientTransform="matrix(1 0 0 1 0 -1690.72)">
		<stop  offset="0" style="stop-color:#FADD60"/>
		<stop  offset="0.99" style="stop-color:#F5A816"/>
	</linearGradient>
	<rect id="rect2990" x="2" y="9.5" class="st5" width="28" height="18.5"/>
</g>
<g id="网络">
	<path class="st6" d="M11.9,13.7c0.1,0,0.2,0.1,0.2,0.2c0,0.1,0.1,0.1,0.2,0.1h0.2l0.3-0.1l-0.1,0.2c0,0-1.7,0.8-1.4,1.3
		s0.2,0.6,0.2,0.7s0.1,0,0.1,0l0.1-0.3l0.1-0.2l0.1-0.2v-0.1l0.2-0.4l0.3-0.1l0.2,0.1c0,0,0.1,0,0.1,0.1s0,0.2,0,0.2
		c0,0.1,0.1,0.1,0.1,0.1l0,0c0.1,0,0.1,0,0.2-0.1l0.1,0.2l0.1,0.3l0.2,0.2l0.1,0.2l-0.1,0.2l0.1,0.1l0.2,0.3v0.1h-0.4
		c0-0.1-0.1-0.1-0.1-0.1l0,0h-0.6l-0.1,0.1c0,0-0.1,0.2-0.2,0.2H12c-0.1,0-0.2,0-0.2,0.1c-0.1,0.1,0.1,0.2,0.1,0.2l-0.4,0.1h-0.1
		c0,0-0.3,0.1-0.3,0.2v0.1l0.3,0.3v0.1l-0.2,0.1L11,18.4l-0.1,0.1v0.3c0,0.1,0,0.1,0,0.2v0.3c0,0-0.1,0.1-0.1-0.1V19l-0.1-0.2
		c0,0,0.1,0,0-0.1c-0.1,0-0.1-0.1-0.2-0.1h-0.1H10l-0.2,0.1v0.1c0,0,0,0.9,0.2,1h0.1l0.1-0.2h0.1V20l0.1,0.1l0.1,0.2
		c0.1,0.2,0,0.2,0.1,0.3c0.1,0,0.1,0.1,0.1,0.2H11V21l0.1,0.1h0.3l0.1,0.1c0.1,0.1,0,0,0.1,0H12l0.1,0.2c0,0,0.1,0,0.1,0.1
		s-0.1,0,0,0.1s0,0,0.1,0.1s0,0,0.1,0s0.2,0,0.3,0s0.1,0.2,0.1,0.2l0.1,0.2v0.2H14c0,0,0.2,0.2,0.3,0.2s0.2,0,0.3,0s0.1,0.1,0.3,0.2
		s0.2,0,0.3,0.1l0.1,0.1v0.3l-0.1,0.1l-0.2,0v0.3l-0.1,0.3V24c0,0,0.1,0.1-0.1,0.1h-0.2l-0.1,0.1v0.1c0,0.1-0.1,0.1-0.1,0.2v0.4
		L14.3,25c0,0-0.1,0,0.1,0.2s0.4,0.1,0.4,0.2s0.1,0.1,0.2,0.1l-0.3-0.1l-0.2-0.1l-0.3-0.1L13.7,25c-0.4-0.3-0.8-0.7-1.1-1.2
		c-0.1-0.2-0.3-0.4-0.6-0.5c-0.4-0.3-0.7-0.6-1-1v-0.2l0,0v-0.6l0,0l0.1-0.1v-0.2l0.1-0.1V21l-0.1-0.1l0,0V21l0,0v-0.1H11
		c0,0-0.1,0-0.1-0.1c0,0,0,0,0-0.1h-0.1l-0.1-0.1c0,0,0,0,0-0.1l-0.1-0.1v-0.1h-0.2l-0.1-0.1l-0.1-0.1V20H9.9l-0.1,0l-0.2-0.3v-0.6
		l-0.1-1C9.8,16.4,10.6,14.9,11.9,13.7z"/>
	<path class="st6" d="M19.8,12.8L20,13l0.1,0.1l0.1,0.1v0.1v0.1v0.1c0,0.1,0.1,0.1,0.1,0.2v0.1c0,0-0.1,0.1-0.2,0.1L20,13.8v-0.1
		h0.2v-0.1H20l-0.2-0.1h-0.1l-0.3-0.1h-0.3L19,13.3l-0.1,0.1v0.2v0.1V14h-0.1l-0.1,0.1l-0.1,0.1c0,0.1,0,0.1,0,0.2
		c0,0.1,0,0.1,0.1,0.2s0.1,0.1,0.1,0.1s0,0,0.1,0h0.3l0.1,0.1c0,0,0,0.1,0.1,0.1l0.1,0.1l0.1,0.1h0.2c0,0,0,0,0-0.1v-0.1v-0.3l0,0
		v-0.2h-0.3l0.1-0.1c0-0.1,0.1-0.1,0.1-0.1v-0.1c0,0,0,0,0-0.1v-0.1h0.2V14v0.4l0.1,0.1l0.1,0.1h0.3v0.1H20v0.1h0.1H20l0,0v0.1v0.2
		l0,0l-0.1,0.1h-0.6l-0.1-0.1V15v0l0,0c0,0-0.2,0-0.2,0.1s0,0,0.1,0.1l0.1,0.1v0.1l-0.2,0h-0.1v0.1c0,0,0,0,0,0.1l-0.1,0.1h-0.1v0.1
		h-0.1l-0.1,0.1h-0.4L18,16h0.3l0.1,0.1l0.1,0.1v0.1h-0.8v0.1v0.7h0.1l-0.1,0.1H18l0.1,0.1h0.3l0.1-0.1v-0.1l0,0V17h0.1
		c0,0,0.1,0,0.1-0.1v-0.2h0.6v0.1l0,0l0.1,0.1h0.1c0,0,0,0,0,0.1l0.1,0.1c0,0,0,0,0.1,0.1v0.1l0,0v-0.1h0.1V17h-0.1h-0.1H20
		c0,0-0.1,0-0.1-0.1v-0.1h-0.1v-0.1c0,0,0,0,0-0.1H20v0.1h0.4l0.1,0.1V17c0,0,0.1,0,0.1,0.1s0,0.1,0.1,0.1s0.1,0,0.1,0v0.1H21v-0.1
		V17v-0.3h0.1l0.1,0.1v0.1V17l0.1,0.1l0.1,0.1H22l0.1,0.2v0.3L22,17.8h-1c0,0-0.1,0-0.1,0.1c0,0,0,0.1-0.1,0.1h-0.1l-0.2-0.1
		l-0.1-0.1l-0.1-0.1h-0.5v-0.3h-0.7l-0.4,0.1l-0.1,0.1H18l-0.1,0.1l-0.1,0.1l-0.1,0.1L17.6,18l0,0v0.1h-0.2l-0.1,0.1l-0.1,0.1
		l-0.1,0.1L17,18.5l0,0l-0.1,0.1l-0.1,0.1V19c0,0,0,0,0,0.1v0.1v0.1v0.1v0.1v0.1v0.1v0.2l0,0V20H17l0.1,0.1v0.1l0.1,0.1
		c0,0,0,0.1,0.1,0.1l0.1,0.1l0.1,0.1h0.1c0,0,0-0.1,0.1,0l0.3,0.1h0.7l0.2-0.1H19l0.1-0.1h0.1c0,0,0,0,0.1,0.1v0.1h0.4v0.2
		c0,0,0,0,0,0.1v0.1h-0.1l-0.1,0.1l0.2,0.1l0.1,0.1l0.1,0.1c0,0,0,0,0,0.1v0.1v0.1v0.1v0.4l-0.1,0.1l-0.1,0.1l-0.1,0.1v0.2v0.1
		c0,0.1,0,0.1,0.1,0.2v0.1c0,0.1,0,0.1,0,0.2V24v0.1l0.1,0.1c0.1,0,0.1,0,0.2,0l0.2-0.1h0.1l0.2-0.1l0.1-0.1l0.1-0.1l0.1-0.1h0.1
		l0.2-0.2l0.2-0.2l0.2-0.2c0.1-0.1,0.1-0.2,0.2-0.2l0.3-0.2c0-0.1,0.1-0.2,0.1-0.3c0.1-0.1,0.1-0.2,0.1-0.3l0.1-0.3l0.2-0.5l0.2-0.3
		l0.1-0.2l0.2-0.4l0.1-0.3v-0.3H23l-0.1,0.1h-0.2l0.1-0.2v-0.1l-0.1-0.1l-0.1-0.2v-0.2l-0.1-0.2l-0.1-0.4c0,0-0.2-0.2-0.2-0.3
		s0.1-0.2,0.1-0.2h0.1l0.1,0.2l0.1,0.1v0.1l0.1,0.2l0.1,0.2c0,0.1,0.1,0.1,0.1,0.2v0.3l0.1,0.3h0.1c0,0,0,0,0-0.1l0.1-0.1L23,19
		v-0.1c0-0.1,0.1-0.1,0.1-0.2v-0.1c0-0.1,0-0.1,0-0.2v-0.3l0.1-0.1v-0.1C22.8,15.8,21.6,13.9,19.8,12.8z"/>
</g>
</svg>
