<?xml version="1.0" encoding="utf-8"?>
<!-- Generator: Adobe Illustrator 17.1.0, SVG Export Plug-In . SVG Version: 6.00 Build 0)  -->
<!DOCTYPE svg PUBLIC "-//W3C//DTD SVG 1.1//EN" "http://www.w3.org/Graphics/SVG/1.1/DTD/svg11.dtd">
<svg version="1.1"
	 id="svg2" inkscape:export-filename="/media/Data/Main/Visuals/Icons/Numix/Desktop/repos/numix-wiki/Gjorgi/Numix-folders/48/New/folder-144.png" xmlns:svg="http://www.w3.org/2000/svg" xmlns:sodipodi="http://sodipodi.sourceforge.net/DTD/sodipodi-0.dtd" xmlns:inkscape="http://www.inkscape.org/namespaces/inkscape" xmlns:dc="http://purl.org/dc/elements/1.1/" xmlns:cc="http://creativecommons.org/ns#" xmlns:rdf="http://www.w3.org/1999/02/22-rdf-syntax-ns#" inkscape:version="0.48.4 r9939" sodipodi:docname="user-home.svg" inkscape:export-xdpi="270" inkscape:export-ydpi="270"
	 xmlns="http://www.w3.org/2000/svg" xmlns:xlink="http://www.w3.org/1999/xlink" x="0px" y="0px" width="32px" height="32px"
	 viewBox="0 0 32 32" enable-background="new 0 0 32 32" xml:space="preserve">
<symbol  id="Deleted_Symbol" viewBox="-7.5 -7.5 15 15">
	<g>
		
			<linearGradient id="SVGID_1_" gradientUnits="userSpaceOnUse" x1="1.123951e-005" y1="189.5363" x2="1.124019e-005" y2="174.4876" gradientTransform="matrix(1 0 0 1 0 -182)">
			<stop  offset="0" style="stop-color:#FADD60"/>
			<stop  offset="0.8656" style="stop-color:#F5A816"/>
		</linearGradient>
		<path opacity="0.78" fill="url(#SVGID_1_)" enable-background="new    " d="M7.5,0c0-4.1-3.3-7.5-7.5-7.5S-7.5-4.1-7.5,0
			S-4.1,7.5,0,7.5S7.5,4.2,7.5,0z"/>
		<path fill="#F57F17" fill-opacity="0.6" d="M-4.9,5.5c0,0,0.1-0.1,0.2-0.2c0.1-0.1,0.2-0.1,0.2-0.1h0.2l0.3,0.1L-4,5.1
			c0,0-1.7-0.8-1.4-1.2C-5,3.4-5.2,3.3-5.2,3.1c0-0.1,0.1,0,0.1,0l0.1,0.3l0.1,0.2l0.1,0.2L-4.6,4l0.2,0.3l0.3,0.1l0.2-0.1
			c0,0,0.1-0.1,0.1-0.1C-3.8,4.1-3.9,4-3.9,4s0.1-0.1,0.1-0.1c0.1,0,0.2,0.1,0.2,0.1l0.1-0.2l0.1-0.3l0.2-0.2L-3,2.9l-0.1-0.2
			L-3,2.7l0.2-0.3l0.1-0.1h-0.3c0,0-0.1,0.1-0.1,0.1c-0.1,0-0.4,0-0.4,0l-0.2-0.1l-0.1-0.1c0,0-0.1-0.2-0.2-0.2C-4.2,2-4.4,2-4.4,2
			s-0.1,0.1-0.2-0.1c-0.1-0.1,0.1-0.2,0.1-0.2l-0.3-0.1L-5,1.5c0,0-0.3-0.1-0.3-0.2c0-0.1,0-0.1,0-0.1L-5.3,1V0.9l-0.2-0.1l-0.2,0.1
			l-0.1-0.1V0.4c0,0,0-0.1,0-0.2c0-0.1,0-0.3,0-0.3S-5.9-0.1-5.9,0C-6,0.1-6,0.1-6,0.1l-0.1,0.2c0,0,0.1,0,0,0.1
			c-0.1,0.1-0.2,0.1-0.2,0.1s-0.1,0.1-0.1,0.1c-0.1,0,0.1,0-0.1,0c-0.2,0-0.2,0-0.2,0L-7,0.5V0.4c0,0-0.1-0.9,0.2-1h0.1l0.1,0.2
			l0.1-0.1v-0.1v-0.2v-0.1L-6.2-1l0.1-0.2C-6-1.4-6.1-1.4-6-1.5s0.1-0.2,0.1-0.2l0.1-0.1c0,0,0.1,0,0.1-0.1c0.1,0,0.1,0,0.1,0V-2
			v-0.1l0.1-0.1c0,0-0.1,0,0.1,0c0.2,0,0.2,0,0.2,0s0-0.1,0.1-0.1c0.1-0.1,0,0,0.1-0.1c0.1,0,0.3-0.1,0.3-0.1c0.2,0,0.2,0,0.2,0
			l0.1-0.2c0,0,0.1,0,0.1-0.1c0-0.1-0.1,0,0-0.1c0.1-0.1,0,0,0.1-0.1C-3.7-3-3.9-3-3.7-3c0.2,0,0.2,0,0.3,0s0.1-0.2,0.1-0.2
			c0.1-0.2,0.1-0.2,0.1-0.2v-0.2c0,0-0.1-0.1,0.1-0.1s0.1,0,0.2,0s0,0.1,0.1,0c0.1-0.1,0.1-0.1,0.1-0.1s0.2-0.2,0.3-0.2
			c0.1,0,0.2,0,0.3,0C-2-3.9-1.9-4-1.8-4.1c0.1,0,0.2,0,0.3-0.1c0.1-0.1,0.1-0.1,0.1-0.1v-0.3l-0.1-0.1l-0.2-0.1V-5l-0.1-0.3v-0.1
			c0,0,0.1-0.1-0.1-0.1c-0.2,0-0.2,0-0.2,0l-0.1-0.1c0,0,0,0-0.1-0.1C-2.4-6-2.4-6-2.4-6v-0.2v-0.1l-0.1-0.1c0,0-0.1-0.1,0.1-0.1
			C-2.2-6.8-2-6.8-2-6.9C-1.9-6.9-1.8-7-1.8-7l-0.3,0.1l-0.1,0.1l-0.3,0.1l-0.5,0.3c0,0-0.8,0.7-1,1.2c0,0-0.2,0.3-0.5,0.4
			c0,0-0.9,0.8-1,1l-0.1,0.1v0.5l-0.1,0.1v0.1v0.1v0.3v0.1v0.1v0.1l-0.1,0.1l-0.1,0.1v0.1l0.1,0.1l-0.1,0.1V-2l0.1,0.1l0.1,0.1
			l-0.1,0.1h-0.1l0.1-0.1h-0.1c0,0-0.1,0-0.1,0.1l-0.1,0.1H-6c0,0-0.1,0-0.1,0.1s-0.1,0.1-0.1,0.1l-0.1,0.1h-0.1l-0.1,0.1l-0.1,0.1
			c0,0-0.1,0.1-0.1,0.1l-0.1,0.1h0.1l-0.1,0.1L-6.7-1l-0.1,0.1c0,0-0.1,0.1-0.1,0.1l-0.1,0.1H-7H-7l-0.1,0.1l-0.2,0.3l-0.1,0.1
			L-7.4,0v0.2v0.1l-0.1,1C-7.3,1.2-7,3.8-4.9,5.5z"/>
		<path fill="#F57F17" fill-opacity="0.6" d="M3.3,6.7l0.2-0.2l0.1-0.1l0.1-0.1V6.3c0,0,0-0.1,0-0.1V6l0.1-0.2V5.6L3.8,5.5
			c0,0-0.1,0.1-0.1,0.1L3.5,5.8h0.2v0.1L3.6,6C3.5,6,3.5,6.1,3.5,6.1L3.3,6.1c0,0-0.2,0.1-0.3,0.1S2.9,6.3,2.9,6.3H2.6
			c0,0-0.1-0.1-0.1-0.1L2.4,6.1V5.9c0,0-0.1-0.1-0.1-0.1s0-0.1,0-0.2V5.5V5.3L2.2,5.3L2.1,5.2L2,5.1c0,0,0-0.1,0.1-0.2
			c0.1-0.1,0-0.1,0.1-0.1c0.1-0.1,0.1-0.1,0.1-0.1s0,0,0.1,0s0.1,0,0.1,0c0,0,0.1,0,0.1,0.1c0.1,0.1,0,0,0,0.1c0.1,0,0.1,0.1,0.1,0
			c0.1-0.1,0.1-0.1,0.1-0.1s0.1-0.1,0.1-0.1c0.1,0,0.1-0.1,0.1-0.1L3,4.3c0,0,0,0,0.1,0s0.1,0,0.1,0v0.1h0.1v0.1c0,0,0,0.1-0.1,0.1
			L3.2,4.6v0.1l0.1,0.1v0.1v0.1H3.2L3.1,5C3.1,5,3,5,3,5s0,0.1,0,0.1H2.9h0l0.1,0.1C3,5.3,3,5.3,3,5.3v0.1c0,0-0.1,0-0.1,0.1
			s0,0.1,0,0.1v0.1c0,0,0,0.1,0.1,0.1l0.1-0.1h0.1c0,0,0,0,0-0.1V5.5l0.1,0.1V5.5V5.4V5.3l0.1-0.1l0.1-0.1l0.1-0.1L3.5,5L3.6,5h0.1
			L3.8,5h0.1l0,0c0,0,0.1,0,0.1,0S4,5,4,5S4.1,5,4,5S4,5,4,4.9c-0.1,0-0.1,0-0.1,0L3.8,4.8h0.1H4L4,4.7c0,0,0,0,0-0.1s0.1,0,0-0.1
			c-0.1,0-0.1,0-0.1,0s0,0.1-0.1,0.1L3.8,4.6V4.5l0.1-0.1c0,0,0,0,0-0.1S3.7,4.2,3.7,4.2s0-0.1-0.1-0.1c0,0-0.1,0-0.1,0
			s-0.1,0-0.1,0c-0.1,0-0.1,0-0.1-0.1C3.2,4,3,4,3,4C2.9,4,2.9,4,2.9,4s0,0-0.1,0.1C2.7,4.2,2.7,4.2,2.7,4.2v0.1c0,0,0,0.1-0.1,0.1
			s-0.1,0-0.1,0L2.5,4.3c0,0,0,0,0.1-0.1c0.1-0.1,0.1-0.1,0.1-0.1V4L2.6,3.9L2.4,3.9V3.8c0,0,0,0,0-0.1c0-0.1-0.1-0.1-0.1-0.1
			s-0.1,0-0.1-0.1L2.2,3.4H2.1c-0.1-0.1,0-0.1-0.1-0.1C1.9,3.3,1.9,3.3,1.9,3.3H1.8H1.7c0,0-0.1,0-0.1-0.1L1.5,3.1V3
			c0,0,0.1,0,0.1,0S1.7,3,1.7,3c0.1,0,0.1-0.1,0.1-0.1l0.1-0.1L2,2.6V2.5L1.8,2.4c0,0-0.1,0-0.1,0c0,0,0,0-0.1,0s-0.1,0-0.2,0H1.2
			H1.1L1,2.3H1L1,2.2V2.1V2l0,0.1L1,2.1V2V1.9H1L1,1.8h0.1c0,0,0,0,0.1,0c0.1,0,0.1-0.1,0.1-0.1l0.1-0.1V1.6v0.1h0.1h0.1h0.1
			c0,0,0,0,0.1,0l0,0L2,1.7l0.1,0.1c0,0,0.1,0,0.1,0.1s0,0.1,0,0.1V2l0.1,0.1c0,0,0,0,0.1,0.1c0.1,0.1,0.1,0.1,0.1,0.1s0,0,0.1,0.1
			c0.1,0,0.1,0.1,0.1,0.1s0,0,0,0l0.1,0.1v0.1l0.1,0.1h0.1h0.1H3l0.1,0.1l0.1,0.1c0,0,0,0,0.1,0s0.1,0,0.1,0h0.1c0,0,0.1,0,0.1-0.1
			l0.1-0.1l0.1-0.1H3.5c0.1-0.1,0.1-0.1,0.1-0.1s0.1-0.1,0.1-0.1s0-0.1,0.1-0.1l0.1-0.1L4,2.2L4,2.2l0.1-0.1v0.1v0.1v0.1
			c0,0-0.1,0.1,0,0.1s0.1,0,0.1,0L4.1,2.5H4L4,2.5L3.9,2.6H3.8H3.8L3.7,2.7c0,0-0.1,0-0.1,0.1l0,0H3.5L3.5,2.8v0.1v0V3V3h0.1L3.7,3
			l0.1-0.1l0.1-0.1l0.1-0.1L4,2.7c0,0,0,0,0.1,0s0.1,0,0.1,0l0.1-0.1c0.1,0,0.1,0,0.1-0.1l0,0c0,0,0,0,0.1-0.1
			c0.1,0,0.1-0.1,0.1-0.1s0-0.1,0.1-0.1c0,0,0.1,0,0.1-0.1C4.6,2.1,4.6,2.1,4.6,2c0.1,0,0.1,0,0.1-0.1c0-0.1,0-0.1,0-0.1h0.1
			l0.1,0.1c0,0,0.1,0.1,0,0.1c0,0-0.1,0-0.1,0.1s0,0.1,0,0.1l0.1,0.1l0.1,0.1H5l0.1,0.1l0.1-0.1V2.3c0,0,0-0.1,0.1-0.1
			C5.2,2.1,5.3,2,5.3,2l0.1-0.1l0.1-0.1h0.1l0.2,0.1H6l0.1-0.2c0,0,0-0.1,0-0.1c0-0.1,0-0.1,0-0.1L5.8,1.4c-0.1,0-0.1-0.1-0.1-0.1
			L5.4,1.3H5.3H5.1c0,0-0.2,0-0.3,0s-0.1,0-0.1,0s-0.1,0-0.1-0.1S4.5,1.1,4.5,1.1s0-0.1-0.1-0.1s-0.1,0-0.1,0
			c-0.1,0-0.2,0.1-0.2,0.1L4,1.3L3.9,1.4H3.8H3.6L3.5,1.4v0.2V1.6v0.1L3.4,1.8L3.2,1.9H3.1L2.9,1.8L2.8,1.7H2.7L2.3,1.7L2.1,1.6
			L2.1,1.5H1.9c0,0-0.1,0-0.1,0s-0.1,0-0.1,0c-0.1,0-0.1,0-0.1,0s-0.1,0-0.1-0.1c0-0.1-0.1-0.1-0.1-0.1L1.2,1.2L1.1,1.1L1,1L1,0.9
			V0.8V0.8L0.9,0.7L0.8,0.6c0,0-0.1,0-0.1-0.1c-0.1,0-0.1-0.1-0.1-0.1L0.5,0.4L0.4,0.3c0-0.1-0.1-0.1-0.1-0.1L0.3,0.1L0.2,0l0.1,0
			L0.2-0.3v-0.1c0,0,0-0.1,0.1-0.1s0.1-0.1,0.1-0.1v-0.1c0,0,0-0.1-0.1-0.1v-0.1v-0.1c0,0,0,0-0.1-0.1S0.1-1.1,0.1-1.1l0.1-0.1
			l0.1-0.1v-0.1l0.1-0.1c0,0,0,0,0.1-0.1c0,0,0.1,0,0.1-0.1c0.1,0,0.1,0,0.1,0s0.1-0.1,0.1-0.1l0.1-0.1l0.1-0.1c0,0,0-0.1,0.1-0.1
			C1-2,1-2,1-2c0,0,0.1-0.1,0.1-0.1s0.1,0,0.1,0S1.2-2,1.4-2.1c0.1-0.1,0.3-0.1,0.3-0.1l0.1-0.1h0.2h0.1c0,0,0.1,0,0.1,0
			s0.2,0,0.2,0l0.2,0.1l0.1,0.1c0,0,0.1,0.1,0.1,0.1h0.1c0,0,0,0.1,0.1,0s0.1-0.1,0.1-0.1s0-0.1,0.1-0.1s0.1-0.1,0.1-0.1h0.1
			c0.1,0,0.1,0,0.1,0l0.1-0.1v-0.1v-0.1v-0.1c0-0.1,0.1-0.1,0.1-0.1L3.8-2.8L3.8-2.9l0.1-0.1L4-3.1L4-3.2v-0.1c0,0,0-0.1,0-0.1v-0.1
			v-0.1v-0.1v-0.1L4-4L3.9-4.1L3.8-4.2L3.5-4.2v-0.1L3.4-4.5c0,0,0-0.1,0-0.1c0-0.1,0.1-0.1,0.1-0.1v-0.1c0,0-0.1-0.1-0.1-0.2
			S3.3-5.2,3.3-5.3v-0.1v-0.1l0.1-0.1L3.3-5.8c0,0,0-0.1,0-0.1c0-0.1,0.1-0.1,0.1-0.1s0.1,0,0.1,0.1C3.7-6.1,3.8-6,3.8-6
			c0,0,0.1,0,0.1,0.1s0.1,0.1,0.1,0.1s0.1,0.1,0.1,0.1l0.1,0.1c0,0,0.1,0.1,0.1,0.1c0.1,0.1,0,0,0.1,0.1s0.2,0.2,0.2,0.2l0.2,0.2
			c0,0,0.1,0.2,0.2,0.2c0,0.1,0.1,0.2,0.2,0.2c0,0,0.2,0.1,0.3,0.2S6-3.9,6-3.9l0.1,0.3l0.1,0.4l0.2,0.5l0.2,0.4
			c0,0,0.1,0.1,0.1,0.2c0,0.1,0.2,0.4,0.2,0.4l0.1,0.3v0.3H7L6.8-1.3L6.7-1.2H6.5l0.1,0.1L6.6-0.9L6.5-0.8L6.3-0.6v0.2L6.2-0.1
			L6.1,0.3L6,0.5C6,0.5,6,0.7,6,0.7l0.1-0.1c0,0,0.1-0.2,0.1-0.2c0.1,0,0.1-0.1,0.1-0.1s0-0.1,0.1-0.1L6.5,0c0,0,0.1-0.1,0.1-0.2
			c0,0,0.1-0.1,0.1-0.2c0-0.1,0.1-0.3,0.1-0.3l0.1-0.3c0,0,0.1,0,0.1,0.1c0,0,0,0.1,0.1,0.1l0.1,0.1l0.1,0.2c0,0,0.1,0.1,0.1,0.1
			s0.1,0.1,0.1,0.2s0,0.1,0,0.1s0.1,0.1,0.1,0.2s0,0.1,0,0.1v0.2l0.1,0.1l0.1,0.1C7.3,1.1,6.9,4.8,3.3,6.7z"/>
	</g>
</symbol>
<polygon fill-opacity="8.000000e-002" points="1,30.1 1,8.5 2.9,8.5 2.9,2.9 10.9,2.9 12.8,4.8 30.1,4.8 30.1,8.5 32,8.5 32,30.1 
	"/>
<polygon fill-opacity="9.999999e-002" points="1.5,29.6 1.5,9 3.4,9 3.4,3.4 10.7,3.4 12.6,5.3 29.6,5.3 29.6,9 31.5,9 31.5,29.6 
	"/>
<polygon fill-opacity="0.2" points="1,29.1 1,8.5 2.9,8.5 2.9,2.9 10.2,2.9 12.1,4.8 29.1,4.8 29.1,8.5 31,8.5 31,29.1 "/>
<polygon fill="#F57F17" points="1.5,28.6 1.5,9 3.4,9 3.4,3.4 10,3.4 11.9,5.3 28.6,5.3 28.6,9 30.5,9 30.5,28.6 "/>
<g>
	
		<linearGradient id="SVGID_2_" gradientUnits="userSpaceOnUse" x1="16" y1="-150.8678" x2="16" y2="-143.8667" gradientTransform="matrix(1 0 0 -1 0 -140)">
		<stop  offset="0" style="stop-color:#F57C00"/>
		<stop  offset="0.1638" style="stop-color:#F58F09"/>
		<stop  offset="0.3598" style="stop-color:#F59D11"/>
		<stop  offset="0.5982" style="stop-color:#F5A515"/>
		<stop  offset="0.9946" style="stop-color:#F5A816"/>
	</linearGradient>
	<path fill="url(#SVGID_2_)" d="M28.2,5.8H11.8L9.9,3.9H3.8v1.8v1.8v2.3c0,0.5,0.4,1,1,1h22.4c0.5,0,1,0.1,1-0.5
		C28.2,9.4,28.2,5.8,28.2,5.8z"/>
	
		<linearGradient id="rect2990_1_" gradientUnits="userSpaceOnUse" x1="16" y1="-149.4666" x2="16" y2="-168.1333" gradientTransform="matrix(1 0 0 -1 0 -140)">
		<stop  offset="0" style="stop-color:#FADD60"/>
		<stop  offset="0.9946" style="stop-color:#F5A816"/>
	</linearGradient>
	<polyline id="rect2990_2_" fill="url(#rect2990_1_)" points="30,9.4 30,28.2 2,28.2 2,9.4 	"/>
	<path id="rect3004_1_" inkscape:connector-curvature="0" opacity="0.25" fill="#FDEFBA" enable-background="new    " d="M2,9.4V13
		c0-1.2,0.8-2.3,1.8-2.3h24.2c1,0,1.8,1,1.8,2.3V9.4C29.9,9.4,2,9.4,2,9.4z"/>
	<path id="path3801_1_" inkscape:connector-curvature="0" opacity="0.1" fill="#E65100" enable-background="new    " d="M3.8,3.8
		c0,0,0,0.5,0,1.4v1c0-1,0.4-1.4,0.8-1.4h4.8c0.3,0,0.8,0,1.5,0.5c0.2,0.1,0.4,0.3,0.7,0.5L9.9,3.9C9.9,3.8,3.8,3.8,3.8,3.8z"/>
	<polygon opacity="0.1" fill="#E65100" enable-background="new    " points="11.8,5.8 28.2,5.8 28.2,7.1 13.2,7.1 	"/>
	<rect x="3.8" y="8.6" opacity="5.000000e-002" fill="#E65100" enable-background="new    " width="24.2" height="0.8"/>
</g>
<g id="新建符号_2">
	
		<use xlink:href="#Deleted_Symbol"  width="15" height="15" id="XMLID_1_" x="-7.5" y="-7.5" transform="matrix(1 0 0 -1 16 19)" overflow="visible"/>
</g>
</svg>
