<?xml version="1.0" encoding="utf-8"?>
<!-- Generator: Adobe Illustrator 17.1.0, SVG Export Plug-In . SVG Version: 6.00 Build 0)  -->
<!DOCTYPE svg PUBLIC "-//W3C//DTD SVG 1.1//EN" "http://www.w3.org/Graphics/SVG/1.1/DTD/svg11.dtd">
<svg version="1.1"
	 id="svg2" inkscape:export-filename="/media/Data/Main/Visuals/Icons/Numix/Desktop/repos/numix-wiki/Gjorgi/Numix-folders/48/New/folder-144.png" xmlns:svg="http://www.w3.org/2000/svg" xmlns:sodipodi="http://sodipodi.sourceforge.net/DTD/sodipodi-0.dtd" xmlns:inkscape="http://www.inkscape.org/namespaces/inkscape" xmlns:dc="http://purl.org/dc/elements/1.1/" xmlns:cc="http://creativecommons.org/ns#" xmlns:rdf="http://www.w3.org/1999/02/22-rdf-syntax-ns#" inkscape:version="0.48.4 r9939" sodipodi:docname="user-home.svg" inkscape:export-xdpi="270" inkscape:export-ydpi="270"
	 xmlns="http://www.w3.org/2000/svg" xmlns:xlink="http://www.w3.org/1999/xlink" x="0px" y="0px" width="32px" height="32px"
	 viewBox="0 0 32 32" enable-background="new 0 0 32 32" xml:space="preserve">
<rect x="1" y="2.2" opacity="8.000000e-002" width="31" height="28.7"/>
<rect x="1.5" y="2.7" opacity="9.999999e-002" width="30" height="27.7"/>
<rect x="1" y="2.2" opacity="0.2" width="30" height="27.7"/>
<rect x="1.5" y="2.7" fill="#607D8B" width="29" height="26.7"/>
<linearGradient id="SVGID_1_" gradientUnits="userSpaceOnUse" x1="16" y1="-178.839" x2="16" y2="-153.161" gradientTransform="matrix(1 0 0 1 0 182)">
	<stop  offset="0" style="stop-color:#FFFFFF"/>
	<stop  offset="0.529" style="stop-color:#ECECEC"/>
	<stop  offset="1" style="stop-color:#E0E0E0"/>
</linearGradient>
<rect x="2" y="3.2" fill="url(#SVGID_1_)" width="28" height="25.7"/>
<g>
	<rect id="rect3804" x="15.3" y="18" fill="#FF6E40" width="1.4" height="3.2"/>
	<rect id="rect3802" x="15.3" y="10.5" fill="#FF6E40" width="1.4" height="3.2"/>
	
		<linearGradient id="rect3000_1_" gradientUnits="userSpaceOnUse" x1="16" y1="-161.3682" x2="16" y2="-155.5815" gradientTransform="matrix(1 0 0 1 0 182)">
		<stop  offset="0" style="stop-color:#4FC3F7"/>
		<stop  offset="0.1101" style="stop-color:#3EBDF6"/>
		<stop  offset="0.3181" style="stop-color:#24B4F5"/>
		<stop  offset="0.5326" style="stop-color:#12AEF5"/>
		<stop  offset="0.7555" style="stop-color:#07AAF4"/>
		<stop  offset="1" style="stop-color:#03A9F4"/>
	</linearGradient>
	<rect id="rect3000" x="3.8" y="20.6" fill="url(#rect3000_1_)" width="24.3" height="5.8"/>
	
		<linearGradient id="rect2998_1_" gradientUnits="userSpaceOnUse" x1="16" y1="-163.1066" x2="16" y2="-168.8934" gradientTransform="matrix(1 0 0 1 0 182)">
		<stop  offset="0" style="stop-color:#E64A19"/>
		<stop  offset="0.2192" style="stop-color:#F04F1D"/>
		<stop  offset="0.5912" style="stop-color:#FB5521"/>
		<stop  offset="1" style="stop-color:#FF5722"/>
	</linearGradient>
	<rect id="rect2998" x="3.8" y="13.1" fill="url(#rect2998_1_)" width="24.3" height="5.8"/>
	
		<linearGradient id="rect2992_1_" gradientUnits="userSpaceOnUse" x1="16" y1="-176.4066" x2="16" y2="-170.62" gradientTransform="matrix(1 0 0 1 0 182)">
		<stop  offset="0" style="stop-color:#4FC3F7"/>
		<stop  offset="0.1101" style="stop-color:#3EBDF6"/>
		<stop  offset="0.3181" style="stop-color:#24B4F5"/>
		<stop  offset="0.5326" style="stop-color:#12AEF5"/>
		<stop  offset="0.7555" style="stop-color:#07AAF4"/>
		<stop  offset="1" style="stop-color:#03A9F4"/>
	</linearGradient>
	<rect id="rect2992" x="3.8" y="5.6" fill="url(#rect2992_1_)" width="24.3" height="5.8"/>
	<rect id="rect3806" x="5.6" y="7.3" fill="#BBDEFB" width="12.2" height="2.3"/>
	<path id="path3808" sodipodi:cx="-7" sodipodi:ry="2" sodipodi:rx="2" sodipodi:type="arc" sodipodi:cy="17" fill="#BBDEFB" d="
		M22.4,8.5c0,0.6-0.5,1.2-1.2,1.2c-0.6,0-1.2-0.5-1.2-1.2s0.5-1.2,1.2-1.2C21.9,7.3,22.4,7.9,22.4,8.5z"/>
	<path id="path3810" sodipodi:cx="-7" sodipodi:ry="2" sodipodi:rx="2" sodipodi:type="arc" sodipodi:cy="17" fill="#BBDEFB" d="
		M26.4,8.5c0,0.6-0.5,1.2-1.2,1.2c-0.6,0-1.2-0.5-1.2-1.2s0.5-1.2,1.2-1.2C25.9,7.3,26.4,7.9,26.4,8.5z"/>
	<rect id="rect3812" x="5.6" y="22.4" fill="#BBDEFB" width="12.2" height="2.3"/>
	<path id="path3814" sodipodi:cx="-7" sodipodi:ry="2" sodipodi:rx="2" sodipodi:type="arc" sodipodi:cy="17" fill="#BBDEFB" d="
		M22.4,23.5c0,0.6-0.5,1.2-1.2,1.2c-0.6,0-1.2-0.5-1.2-1.2s0.5-1.2,1.2-1.2C21.9,22.4,22.4,22.9,22.4,23.5z"/>
	<path id="path3816" sodipodi:cx="-7" sodipodi:ry="2" sodipodi:rx="2" sodipodi:type="arc" sodipodi:cy="17" fill="#BBDEFB" d="
		M26.4,23.5c0,0.6-0.5,1.2-1.2,1.2c-0.6,0-1.2-0.5-1.2-1.2s0.5-1.2,1.2-1.2C25.9,22.4,26.4,22.9,26.4,23.5z"/>
	<rect id="rect3818" x="5.6" y="14.8" fill="#FF8A65" width="12.2" height="2.3"/>
	<path id="path3820" sodipodi:cx="-7" sodipodi:ry="2" sodipodi:rx="2" sodipodi:type="arc" sodipodi:cy="17" fill="#FF8A65" d="
		M22.4,16c0,0.6-0.5,1.2-1.2,1.2c-0.6,0-1.2-0.5-1.2-1.2c0-0.6,0.5-1.2,1.2-1.2C21.9,14.8,22.4,15.4,22.4,16z"/>
	<path id="path3822" sodipodi:cx="-7" sodipodi:ry="2" sodipodi:rx="2" sodipodi:type="arc" sodipodi:cy="17" fill="#FF8A65" d="
		M26.4,16c0,0.6-0.5,1.2-1.2,1.2c-0.6,0-1.2-0.5-1.2-1.2c0-0.6,0.5-1.2,1.2-1.2C25.9,14.8,26.4,15.4,26.4,16z"/>
	<rect x="5.6" y="7.5" fill="#F5F5F5" width="12.2" height="2.1"/>
	<path fill="#F5F5F5" d="M21.2,7.5c-0.6,0-1.1,0.5-1.2,1c0.1,0.6,0.5,1,1.2,1c0.6,0,1.1-0.5,1.2-1C22.3,8,21.8,7.5,21.2,7.5z"/>
	<path fill="#F5F5F5" d="M25.2,7.5c-0.6,0-1.1,0.5-1.2,1c0.1,0.6,0.5,1,1.2,1c0.6,0,1.1-0.5,1.2-1C26.4,8,25.8,7.5,25.2,7.5z"/>
	<rect x="5.6" y="15" fill="#F5F5F5" width="12.2" height="2.1"/>
	<path fill="#F5F5F5" d="M21.2,15c-0.6,0-1.1,0.5-1.2,1c0.1,0.6,0.5,1,1.2,1c0.6,0,1.1-0.5,1.2-1C22.3,15.5,21.8,15,21.2,15z"/>
	<path fill="#F5F5F5" d="M25.2,15c-0.6,0-1.1,0.5-1.2,1c0.1,0.6,0.5,1,1.2,1c0.6,0,1.1-0.5,1.2-1C26.4,15.5,25.8,15,25.2,15z"/>
	<rect x="5.6" y="22.6" fill="#F5F5F5" width="12.2" height="2.1"/>
	<path fill="#F5F5F5" d="M21.2,22.6c-0.6,0-1.1,0.5-1.2,1c0.1,0.6,0.5,1,1.2,1c0.6,0,1.1-0.5,1.2-1C22.3,23,21.8,22.6,21.2,22.6z"/>
	<path fill="#F5F5F5" d="M25.2,22.6c-0.6,0-1.1,0.5-1.2,1c0.1,0.6,0.5,1,1.2,1c0.6,0,1.1-0.5,1.2-1C26.4,23,25.8,22.6,25.2,22.6z"/>
</g>
</svg>
