<?xml version="1.0" encoding="utf-8"?>
<!-- Generator: Adobe Illustrator 18.0.0, SVG Export Plug-In . SVG Version: 6.00 Build 0)  -->
<!DOCTYPE svg PUBLIC "-//W3C//DTD SVG 1.1//EN" "http://www.w3.org/Graphics/SVG/1.1/DTD/svg11.dtd">
<svg version="1.1" id="图层_1" xmlns="http://www.w3.org/2000/svg" xmlns:xlink="http://www.w3.org/1999/xlink" x="0px" y="0px"
	 viewBox="0 0 32 32" enable-background="new 0 0 32 32" xml:space="preserve">
<g opacity="8.000000e-002">
	<polygon fill="#040000" points="11.6,17.2 10,13 6.1,16.1 8.7,16.4 	"/>
	<polygon fill="#040000" points="17.8,26.9 17.8,26.9 17.8,26.9 	"/>
	<polygon fill="#040000" points="17,19.1 17.2,19.1 17.2,19 	"/>
	<polygon fill="#040000" points="17.2,19.1 21,20.7 22.1,18 17,19.1 	"/>
	<polygon fill="#040000" points="10.9,20.4 17,19.1 11.6,17.2 	"/>
	<polygon fill="#040000" points="6.1,16.1 6.9,21.3 8.7,16.4 	"/>
	<polygon fill="#040000" points="8.7,16.4 6.9,21.3 11.6,17.2 	"/>
	<polygon fill="#040000" points="6.9,21.3 10.9,20.4 11.6,17.2 	"/>
	<polygon fill="#040000" points="10.9,8.1 11,8.1 11,8.1 	"/>
	<polygon fill="#040000" points="10,13 13.3,13.1 13.3,10.9 	"/>
	<polygon fill="#040000" points="17,15.9 13.3,13.1 11.6,17.2 	"/>
	<polygon fill="#040000" points="11,8 10.9,8.1 11,8.1 	"/>
	<polygon fill="#040000" points="11.6,17.2 13.3,13.1 10,13 	"/>
	<polygon fill="#040000" points="17.8,28.5 17.8,26.9 17.8,26.9 16.4,26.1 	"/>
	<polygon fill="#040000" points="13.8,28.5 17.8,28.5 16.4,26.1 	"/>
	<polygon fill="#040000" points="16.4,26.1 17.8,26.9 17.8,26.9 18.9,23 	"/>
	<polygon fill="#040000" points="22.6,28.2 25.6,25.4 22,25.8 	"/>
	<polygon fill="#040000" points="18.8,30.5 22.8,30.5 22.6,28.2 20.1,28.8 22.7,30.3 20.1,28.8 22.6,28.2 22,25.8 	"/>
	<polygon fill="#040000" points="17.8,26.9 20.8,24.4 18.9,23 	"/>
	<polygon fill="#040000" points="25.6,25.4 24.1,22.3 22,25.8 	"/>
	<polygon fill="#040000" points="3.3,29.4 7.1,29.4 4.7,27.7 	"/>
	<polygon fill="#040000" points="16.4,1.2 12.7,5.1 14.6,4.4 	"/>
	<polygon fill="#040000" points="13.1,2.5 9.3,6.5 11.7,5 	"/>
	<polygon fill="#040000" points="20.9,24.4 22,25.8 24.1,22.3 18.9,23 	"/>
	<polygon fill="#040000" points="14.6,4.4 12.7,5.1 14.9,6 	"/>
	<polygon fill="#040000" points="12.1,5.1 13.1,2.6 11.7,5 	"/>
	<polygon fill="#040000" points="14.9,6 16.4,1.2 14.6,4.4 	"/>
	<polygon fill="#040000" points="6,26.1 4.7,27.7 7.6,25.9 5.2,24.1 	"/>
	<polygon fill="#040000" points="6.2,12.3 6.1,16.1 10,13 	"/>
	<polygon fill="#040000" points="7.1,29.4 7.6,25.9 4.7,27.7 	"/>
	<polygon fill="#040000" points="24.1,22.3 23.9,18.6 21,20.7 	"/>
	<polygon fill="#040000" points="18.9,23 24.1,22.3 21,20.7 	"/>
	<polygon fill="#040000" points="21,20.7 23.9,18.6 22.1,18 	"/>
	<polygon fill="#040000" points="23.9,18.6 26.9,16.9 25.8,16 	"/>
	<polygon fill="#040000" points="16.8,21.6 18.9,23 21,20.7 	"/>
	<polygon fill="#040000" points="23.7,17.2 22.1,18 23.9,18.6 25.8,16 	"/>
	<polygon fill="#040000" points="14.6,22.7 16.8,21.6 10.9,20.4 	"/>
	<polygon fill="#040000" points="17,19.1 16.8,21.6 21,20.7 	"/>
	<polygon fill="#040000" points="17,19.1 10.9,20.4 16.8,21.6 	"/>
	<polygon fill="#040000" points="29.3,14.4 31.5,11.7 28,12.8 29.3,14.5 	"/>
	<polygon fill="#040000" points="28.6,17.2 30.8,16.4 29.3,14.5 	"/>
	<polygon fill="#040000" points="29.3,14.5 26.9,16.9 28.6,17.2 	"/>
	<polygon fill="#040000" points="25.8,16 26.9,16.9 28,12.8 	"/>
	<polygon fill="#040000" points="29.3,14.5 29.3,14.5 30.8,16.4 31.5,11.7 	"/>
	<polygon fill="#040000" points="28,12.8 26.9,16.9 29.3,14.5 	"/>
	<polygon fill="#040000" points="11.7,23.9 14.6,22.7 10.9,20.4 	"/>
	<polygon fill="#040000" points="10,13 6.2,8.3 6.2,12.3 	"/>
	<polygon fill="#040000" points="9.3,6.3 6.2,8.3 9.6,9.1 	"/>
	<polygon fill="#040000" points="9.6,9.1 6.2,8.3 10,13 	"/>
	<polygon fill="#040000" points="6.2,12.3 6.2,8.3 4.7,11.5 6.1,12.3 	"/>
	<polygon fill="#040000" points="10,13 11,8.1 10.9,8.1 9.3,6.3 9.6,9.1 	"/>
	<polygon fill="#040000" points="11,8.1 11.7,5 9.3,6.3 10.9,8.1 	"/>
	<polygon fill="#040000" points="4.7,11.5 2.6,15.2 6.1,12.3 	"/>
	<polygon fill="#040000" points="6.2,12.3 6.1,12.3 2.6,15.2 6.1,16.1 	"/>
	<polygon fill="#040000" points="7.6,25.9 9.2,23.4 6.9,21.3 	"/>
	<polygon fill="#040000" points="9.2,23.4 11.7,23.9 10.9,20.4 	"/>
	<polygon fill="#040000" points="5.2,24.1 7.6,25.9 6.9,21.3 	"/>
	<polygon fill="#040000" points="6.9,21.3 9.2,23.4 10.9,20.4 	"/>
	<polygon fill="#040000" points="2.6,15.2 4.6,20.2 6.1,16.1 	"/>
	<polygon fill="#040000" points="4.6,20.2 5.2,24.1 6.9,21.3 	"/>
	<polygon fill="#040000" points="6.1,16.1 4.6,20.2 6.9,21.3 	"/>
	<polygon fill="#040000" points="22.1,18 17,15.9 17,19.1 	"/>
	<polygon fill="#040000" points="17,19.1 17,19.1 17,15.9 11.6,17.2 	"/>
	<polygon fill="#040000" points="11,8.1 10,13 13.3,10.9 	"/>
	<polygon fill="#040000" points="11,8.1 13.3,10.9 15.8,9.7 11,8.1 	"/>
	<polygon fill="#040000" points="13.3,13.1 15.8,9.7 13.3,10.9 	"/>
	<polygon fill="#040000" points="11,8.1 15.8,9.7 14.9,6 	"/>
	<polygon fill="#040000" points="14.9,6 12.7,5.1 11.7,5 11,8.1 	"/>
</g>
<g opacity="0.1">
	<polygon fill="#040000" points="11.1,17 9.6,12.7 5.6,15.8 8.2,16.2 	"/>
	<polygon fill="#040000" points="17.3,26.6 17.3,26.6 17.3,26.6 	"/>
	<polygon fill="#040000" points="16.5,18.8 16.7,18.9 16.7,18.8 	"/>
	<polygon fill="#040000" points="16.7,18.9 20.5,20.5 21.6,17.7 16.5,18.8 	"/>
	<polygon fill="#040000" points="10.4,20.2 16.5,18.8 11.1,17 	"/>
	<polygon fill="#040000" points="5.6,15.8 6.4,21.1 8.2,16.2 	"/>
	<polygon fill="#040000" points="8.2,16.2 6.4,21.1 11.1,17 	"/>
	<polygon fill="#040000" points="6.4,21.1 10.4,20.2 11.1,17 	"/>
	<polygon fill="#040000" points="10.4,7.8 10.5,7.8 10.5,7.8 	"/>
	<polygon fill="#040000" points="9.6,12.7 12.8,12.8 12.9,10.6 	"/>
	<polygon fill="#040000" points="16.5,15.6 12.8,12.8 11.1,17 	"/>
	<polygon fill="#040000" points="10.5,7.8 10.4,7.8 10.5,7.8 	"/>
	<polygon fill="#040000" points="11.1,17 12.8,12.8 9.6,12.7 	"/>
	<polygon fill="#040000" points="17.3,28.3 17.3,26.6 17.3,26.6 15.9,25.8 	"/>
	<polygon fill="#040000" points="13.3,28.2 17.3,28.3 15.9,25.8 	"/>
	<polygon fill="#040000" points="15.9,25.8 17.3,26.6 17.3,26.6 18.4,22.8 	"/>
	<polygon fill="#040000" points="22.1,27.9 25.1,25.2 21.5,25.6 	"/>
	<polygon fill="#040000" points="18.3,30.2 22.3,30.2 22.1,27.9 19.6,28.5 22.2,30 19.6,28.5 22.1,27.9 21.5,25.6 	"/>
	<polygon fill="#040000" points="17.3,26.6 20.3,24.2 18.4,22.8 	"/>
	<polygon fill="#040000" points="25.1,25.2 23.6,22.1 21.5,25.6 	"/>
	<polygon fill="#040000" points="2.8,29.2 6.6,29.2 4.2,27.4 	"/>
	<polygon fill="#040000" points="16,1 12.2,4.9 14.1,4.1 	"/>
	<polygon fill="#040000" points="12.6,2.3 8.8,6.2 11.2,4.7 	"/>
	<polygon fill="#040000" points="20.4,24.2 21.5,25.6 23.6,22.1 18.4,22.8 	"/>
	<polygon fill="#040000" points="14.1,4.1 12.2,4.9 14.4,5.8 	"/>
	<polygon fill="#040000" points="11.6,4.8 12.6,2.3 11.2,4.7 	"/>
	<polygon fill="#040000" points="14.4,5.8 16,1 14.1,4.1 	"/>
	<polygon fill="#040000" points="5.5,25.8 4.2,27.4 7.1,25.6 4.7,23.8 	"/>
	<polygon fill="#040000" points="5.7,12 5.6,15.8 9.6,12.7 	"/>
	<polygon fill="#040000" points="6.6,29.2 7.1,25.6 4.2,27.4 	"/>
	<polygon fill="#040000" points="23.6,22.1 23.4,18.4 20.5,20.5 	"/>
	<polygon fill="#040000" points="18.4,22.8 23.6,22.1 20.5,20.5 	"/>
	<polygon fill="#040000" points="20.5,20.5 23.4,18.4 21.6,17.7 	"/>
	<polygon fill="#040000" points="23.4,18.4 26.4,16.6 25.3,15.8 	"/>
	<polygon fill="#040000" points="16.3,21.4 18.4,22.8 20.5,20.5 	"/>
	<polygon fill="#040000" points="23.2,16.9 21.6,17.7 23.4,18.4 25.3,15.8 	"/>
	<polygon fill="#040000" points="14.1,22.5 16.3,21.4 10.4,20.2 	"/>
	<polygon fill="#040000" points="16.5,18.8 16.3,21.4 20.5,20.5 	"/>
	<polygon fill="#040000" points="16.5,18.8 10.4,20.2 16.3,21.4 	"/>
	<polygon fill="#040000" points="28.8,14.2 31,11.4 27.5,12.5 28.8,14.2 	"/>
	<polygon fill="#040000" points="28.1,16.9 30.3,16.1 28.8,14.2 	"/>
	<polygon fill="#040000" points="28.8,14.2 26.4,16.6 28.1,16.9 	"/>
	<polygon fill="#040000" points="25.3,15.8 26.4,16.6 27.5,12.5 	"/>
	<polygon fill="#040000" points="28.8,14.2 28.8,14.2 30.3,16.1 31,11.4 	"/>
	<polygon fill="#040000" points="27.5,12.5 26.4,16.6 28.8,14.2 	"/>
	<polygon fill="#040000" points="11.2,23.6 14.1,22.5 10.4,20.2 	"/>
	<polygon fill="#040000" points="9.6,12.7 5.7,8.1 5.7,12 	"/>
	<polygon fill="#040000" points="8.8,6.1 5.7,8.1 9.1,8.9 	"/>
	<polygon fill="#040000" points="9.1,8.9 5.7,8.1 9.6,12.7 	"/>
	<polygon fill="#040000" points="5.7,12 5.7,8.1 4.2,11.3 5.6,12 	"/>
	<polygon fill="#040000" points="9.6,12.7 10.5,7.8 10.4,7.8 8.8,6.1 9.1,8.9 	"/>
	<polygon fill="#040000" points="10.5,7.8 11.2,4.7 8.8,6.1 10.4,7.8 	"/>
	<polygon fill="#040000" points="4.2,11.3 2.1,14.9 5.6,12 	"/>
	<polygon fill="#040000" points="5.7,12 5.6,12 2.1,14.9 5.6,15.8 	"/>
	<polygon fill="#040000" points="7.1,25.6 8.7,23.2 6.4,21.1 	"/>
	<polygon fill="#040000" points="8.7,23.2 11.2,23.6 10.4,20.2 	"/>
	<polygon fill="#040000" points="4.7,23.8 7.1,25.6 6.4,21.1 	"/>
	<polygon fill="#040000" points="6.4,21.1 8.7,23.2 10.4,20.2 	"/>
	<polygon fill="#040000" points="2.1,14.9 4.1,20 5.6,15.8 	"/>
	<polygon fill="#040000" points="4.1,20 4.7,23.8 6.4,21.1 	"/>
	<polygon fill="#040000" points="5.6,15.8 4.1,20 6.4,21.1 	"/>
	<polygon fill="#040000" points="21.6,17.7 16.5,15.6 16.5,18.8 	"/>
	<polygon fill="#040000" points="16.5,18.8 16.5,18.8 16.5,15.6 11.1,17 	"/>
	<polygon fill="#040000" points="10.5,7.8 9.6,12.7 12.9,10.6 	"/>
	<polygon fill="#040000" points="10.5,7.8 12.9,10.6 15.3,9.4 10.5,7.8 	"/>
	<polygon fill="#040000" points="12.8,12.8 15.3,9.4 12.9,10.6 	"/>
	<polygon fill="#040000" points="10.5,7.8 15.3,9.4 14.4,5.8 	"/>
	<polygon fill="#040000" points="14.4,5.8 12.2,4.9 11.2,4.7 10.5,7.8 	"/>
</g>
<g opacity="0.2">
	<polygon fill="#040000" points="10.6,16.7 9.1,12.5 5.1,15.6 7.7,15.9 	"/>
	<polygon fill="#040000" points="16.8,26.4 16.8,26.4 16.8,26.4 	"/>
	<polygon fill="#040000" points="16,18.6 16.2,18.6 16.2,18.5 	"/>
	<polygon fill="#040000" points="16.2,18.6 20,20.3 21.1,17.5 16,18.6 	"/>
	<polygon fill="#040000" points="9.9,19.9 16,18.6 10.6,16.7 	"/>
	<polygon fill="#040000" points="5.1,15.6 5.9,20.8 7.7,15.9 	"/>
	<polygon fill="#040000" points="7.7,15.9 5.9,20.8 10.6,16.7 	"/>
	<polygon fill="#040000" points="5.9,20.8 9.9,19.9 10.6,16.7 	"/>
	<polygon fill="#040000" points="10,7.6 10,7.6 10,7.6 	"/>
	<polygon fill="#040000" points="9.1,12.5 12.3,12.6 12.4,10.4 	"/>
	<polygon fill="#040000" points="16,15.4 12.3,12.6 10.6,16.7 	"/>
	<polygon fill="#040000" points="10,7.5 10,7.6 10,7.6 	"/>
	<polygon fill="#040000" points="10.6,16.7 12.3,12.6 9.1,12.5 	"/>
	<polygon fill="#040000" points="16.8,28 16.8,26.4 16.8,26.4 15.4,25.6 	"/>
	<polygon fill="#040000" points="12.9,28 16.8,28 15.4,25.6 	"/>
	<polygon fill="#040000" points="15.4,25.6 16.8,26.4 16.8,26.4 17.9,22.5 	"/>
	<polygon fill="#040000" points="21.7,27.7 24.6,24.9 21,25.3 	"/>
	<polygon fill="#040000" points="17.8,30 21.9,30 21.7,27.7 19.1,28.3 21.8,29.8 19.1,28.3 21.7,27.7 21,25.3 	"/>
	<polygon fill="#040000" points="16.8,26.4 19.8,23.9 17.9,22.5 	"/>
	<polygon fill="#040000" points="24.6,24.9 23.1,21.8 21,25.3 	"/>
	<polygon fill="#040000" points="2.3,28.9 6.1,28.9 3.7,27.2 	"/>
	<polygon fill="#040000" points="15.5,0.7 11.7,4.6 13.6,3.9 	"/>
	<polygon fill="#040000" points="12.1,2.1 8.3,6 10.7,4.5 	"/>
	<polygon fill="#040000" points="19.9,23.9 21,25.3 23.1,21.8 17.9,22.5 	"/>
	<polygon fill="#040000" points="13.6,3.9 11.7,4.6 13.9,5.5 	"/>
	<polygon fill="#040000" points="11.1,4.6 12.1,2.1 10.7,4.5 	"/>
	<polygon fill="#040000" points="13.9,5.5 15.5,0.7 13.6,3.9 	"/>
	<polygon fill="#040000" points="5,25.6 3.7,27.2 6.6,25.4 4.2,23.6 	"/>
	<polygon fill="#040000" points="5.2,11.8 5.1,15.6 9.1,12.5 	"/>
	<polygon fill="#040000" points="6.1,28.9 6.6,25.4 3.7,27.2 	"/>
	<polygon fill="#040000" points="23.1,21.8 22.9,18.1 20,20.3 	"/>
	<polygon fill="#040000" points="17.9,22.5 23.1,21.8 20,20.3 	"/>
	<polygon fill="#040000" points="20,20.3 22.9,18.1 21.1,17.5 	"/>
	<polygon fill="#040000" points="22.9,18.1 25.9,16.4 24.8,15.5 	"/>
	<polygon fill="#040000" points="15.8,21.1 17.9,22.5 20,20.3 	"/>
	<polygon fill="#040000" points="22.7,16.7 21.1,17.5 22.9,18.1 24.8,15.5 	"/>
	<polygon fill="#040000" points="13.6,22.2 15.8,21.1 9.9,19.9 	"/>
	<polygon fill="#040000" points="16,18.6 15.8,21.1 20,20.3 	"/>
	<polygon fill="#040000" points="16,18.6 9.9,19.9 15.8,21.1 	"/>
	<polygon fill="#040000" points="28.3,13.9 30.5,11.2 27,12.3 28.3,14 	"/>
	<polygon fill="#040000" points="27.6,16.7 29.8,15.9 28.3,14 	"/>
	<polygon fill="#040000" points="28.3,14 25.9,16.4 27.6,16.7 	"/>
	<polygon fill="#040000" points="24.8,15.5 25.9,16.4 27,12.3 	"/>
	<polygon fill="#040000" points="28.3,14 28.3,14 29.8,15.9 30.5,11.2 	"/>
	<polygon fill="#040000" points="27,12.3 25.9,16.4 28.3,14 	"/>
	<polygon fill="#040000" points="10.7,23.4 13.6,22.2 9.9,19.9 	"/>
	<polygon fill="#040000" points="9.1,12.5 5.2,7.8 5.2,11.8 	"/>
	<polygon fill="#040000" points="8.3,5.8 5.2,7.8 8.6,8.6 	"/>
	<polygon fill="#040000" points="8.6,8.6 5.2,7.8 9.1,12.5 	"/>
	<polygon fill="#040000" points="5.2,11.8 5.2,7.8 3.7,11 5.1,11.8 	"/>
	<polygon fill="#040000" points="9.1,12.5 10,7.6 10,7.6 8.3,5.8 8.6,8.6 	"/>
	<polygon fill="#040000" points="10,7.6 10.7,4.5 8.3,5.8 10,7.6 	"/>
	<polygon fill="#040000" points="3.7,11 1.6,14.7 5.1,11.8 	"/>
	<polygon fill="#040000" points="5.2,11.8 5.1,11.8 1.6,14.7 5.1,15.6 	"/>
	<polygon fill="#040000" points="6.6,25.4 8.2,23 5.9,20.8 	"/>
	<polygon fill="#040000" points="8.2,23 10.7,23.4 9.9,19.9 	"/>
	<polygon fill="#040000" points="4.2,23.6 6.6,25.4 5.9,20.8 	"/>
	<polygon fill="#040000" points="5.9,20.8 8.2,23 9.9,19.9 	"/>
	<polygon fill="#040000" points="1.6,14.7 3.6,19.7 5.1,15.6 	"/>
	<polygon fill="#040000" points="3.6,19.7 4.2,23.6 5.9,20.8 	"/>
	<polygon fill="#040000" points="5.1,15.6 3.6,19.7 5.9,20.8 	"/>
	<polygon fill="#040000" points="21.1,17.5 16,15.4 16,18.6 	"/>
	<polygon fill="#040000" points="16,18.6 16,18.6 16,15.4 10.6,16.7 	"/>
	<polygon fill="#040000" points="10,7.6 9.1,12.5 12.4,10.4 	"/>
	<polygon fill="#040000" points="10,7.6 12.4,10.4 14.8,9.2 10,7.6 	"/>
	<polygon fill="#040000" points="12.3,12.6 14.8,9.2 12.4,10.4 	"/>
	<polygon fill="#040000" points="10,7.6 14.8,9.2 13.9,5.5 	"/>
	<polygon fill="#040000" points="13.9,5.5 11.7,4.6 10.7,4.5 10,7.6 	"/>
</g>
<g>
	<polygon fill="#AFD9E9" points="9.9,16.5 8.3,12.2 4.1,15.3 6.9,15.7 	"/>
	<polygon fill="none" points="16.4,26.2 16.4,26.1 16.3,26.2 	"/>
	<polygon fill="none" stroke="#231815" stroke-width="0.8829" points="15.6,18.3 15.7,18.4 15.7,18.3 	"/>
	<polygon fill="#1E95D4" points="15.7,18.4 19.7,20 20.9,17.3 15.6,18.3 	"/>
	<polygon fill="#AFD9E9" points="9.2,19.7 15.6,18.3 9.9,16.5 	"/>
	<polygon fill="#1E95D4" points="4.1,15.3 4.9,20.6 6.9,15.7 	"/>
	<polygon fill="#1888CA" points="6.9,15.7 4.9,20.6 9.9,16.5 	"/>
	<polygon fill="#1E95D4" points="4.9,20.6 9.2,19.7 9.9,16.5 	"/>
	<polygon fill="none" stroke="#231815" stroke-width="0.8829" points="9.2,7.3 9.2,7.3 9.3,7.3 	"/>
	<polygon fill="#0A5DA4" points="8.3,12.2 11.6,12.3 11.7,10.1 	"/>
	<polygon fill="#1888CA" points="15.5,15.1 11.6,12.3 9.9,16.5 	"/>
	<polygon fill="none" stroke="#231815" stroke-width="0.8829" points="9.3,7.3 9.2,7.3 9.3,7.3 	"/>
	<polygon fill="#1E95D4" points="9.9,16.5 11.6,12.3 8.3,12.2 	"/>
	<polygon fill="#0A5DA4" points="16.3,27.8 16.3,26.2 16.3,26.2 14.9,25.3 	"/>
	<polygon fill="#00417A" points="12.2,27.7 16.3,27.8 14.9,25.3 	"/>
	<polygon fill="#00417A" points="14.9,25.3 16.3,26.2 16.4,26.1 17.5,22.3 	"/>
	<polygon fill="#0A5DA4" points="21.4,27.4 24.4,24.7 20.7,25.1 	"/>
	<polygon fill="#00417A" points="17.4,29.7 21.6,29.7 21.4,27.4 18.7,28 21.5,29.5 18.7,28 21.4,27.4 20.7,25.1 	"/>
	<polygon fill="#0A5DA4" points="16.4,26.1 19.5,23.7 17.5,22.3 	"/>
	<polygon fill="#00417A" points="24.4,24.7 22.9,21.6 20.7,25.1 	"/>
	<polygon fill="#00417A" points="1.2,28.7 5.2,28.7 2.7,26.9 	"/>
	<polygon fill="#1888CA" points="15,0.5 11,4.4 13,3.6 	"/>
	<polygon fill="#1888CA" points="11.5,1.8 7.5,5.7 10,4.2 	"/>
	<polygon fill="#1888CA" points="19.5,23.7 20.7,25.1 22.9,21.6 17.5,22.3 	"/>
	<polygon fill="#1E95D4" points="13,3.6 11,4.4 13.3,5.3 	"/>
	<polygon fill="#AFD9E9" points="10.4,4.3 11.5,1.8 10,4.2 	"/>
	<polygon fill="#AFD9E9" points="13.3,5.3 14.9,0.5 13,3.6 	"/>
	<polygon fill="#1888CA" points="4.1,25.3 2.7,26.9 5.8,25.1 3.3,23.4 	"/>
	<polygon fill="#1E95D4" points="4.2,11.5 4.1,15.3 8.3,12.2 	"/>
	<polygon fill="#0A5DA4" points="5.2,28.7 5.8,25.1 2.7,26.9 	"/>
	<polygon fill="#0A5DA4" points="22.9,21.6 22.7,17.9 19.7,20 	"/>
	<polygon fill="#1E95D4" points="17.5,22.3 22.9,21.6 19.7,20 	"/>
	<polygon fill="#1888CA" points="19.7,20 22.7,17.9 20.9,17.3 	"/>
	<polygon fill="#1888CA" points="22.7,17.9 25.8,16.1 24.7,15.3 	"/>
	<polygon fill="#0A5DA4" points="15.3,20.9 17.5,22.3 19.7,20 	"/>
	<polygon fill="#1E95D4" points="22.5,16.4 20.9,17.3 22.7,17.9 24.7,15.3 	"/>
	<polygon fill="#00417A" points="13,22 15.3,20.9 9.2,19.7 	"/>
	<polygon fill="#1888CA" points="15.6,18.3 15.3,20.9 19.7,20 	"/>
	<polygon fill="#0A5DA4" points="15.6,18.3 9.2,19.7 15.3,20.9 	"/>
	<polygon fill="#AFD9E9" points="28.3,13.7 30.6,10.9 26.9,12 28.3,13.7 	"/>
	<polygon fill="#1888CA" points="27.6,16.4 29.9,15.6 28.3,13.7 	"/>
	<polygon fill="#0A5DA4" points="28.3,13.7 25.8,16.1 27.6,16.4 	"/>
	<polygon fill="#1E95D4" points="24.7,15.3 25.8,16.1 26.9,12 	"/>
	<polygon fill="#1E95D4" points="28.3,13.7 28.3,13.7 29.9,15.6 30.6,10.9 	"/>
	<polygon fill="#1888CA" points="26.9,12 25.8,16.1 28.3,13.7 	"/>
	<polygon fill="#1888CA" points="10,23.2 13,22 9.2,19.7 	"/>
	<polygon fill="#1888CA" points="8.3,12.2 4.3,7.6 4.2,11.5 	"/>
	<polygon fill="#1888CA" points="7.5,5.6 4.3,7.6 7.8,8.4 	"/>
	<polygon fill="#1E95D4" points="7.8,8.4 4.3,7.6 8.3,12.2 	"/>
	<polygon fill="#1E95D4" points="4.2,11.5 4.3,7.6 2.7,10.8 4.2,11.5 	"/>
	<polygon fill="#0A5DA4" points="8.3,12.2 9.2,7.3 9.2,7.3 7.5,5.6 7.8,8.4 	"/>
	<polygon fill="#1E95D4" points="9.2,7.3 10,4.2 7.5,5.6 9.2,7.3 	"/>
	<polygon fill="#0A5DA4" points="2.7,10.8 0.5,14.4 4.2,11.5 	"/>
	<polygon fill="#1888CA" points="4.2,11.5 4.2,11.5 0.5,14.4 4.1,15.3 	"/>
	<polygon fill="#00417A" points="5.8,25.1 7.4,22.7 4.9,20.6 	"/>
	<polygon fill="#1E95D4" points="7.4,22.7 10,23.2 9.2,19.7 	"/>
	<polygon fill="#0A5DA4" points="3.3,23.4 5.8,25.1 4.9,20.6 	"/>
	<polygon fill="#0A5DA4" points="4.9,20.6 7.4,22.7 9.2,19.7 	"/>
	<polygon fill="#0A5DA4" points="0.5,14.4 2.6,19.5 4.1,15.3 	"/>
	<polygon fill="#1E95D4" points="2.6,19.5 3.3,23.4 4.9,20.6 	"/>
	<polygon fill="#1888CA" points="4.1,15.3 2.6,19.5 4.9,20.6 	"/>
	<polygon fill="#AFD9E9" points="20.9,17.3 15.5,15.1 15.6,18.3 	"/>
	<polygon fill="#1E95D4" points="15.6,18.3 15.6,18.3 15.5,15.1 9.9,16.5 	"/>
	<polygon fill="#1888CA" points="9.2,7.3 8.3,12.2 11.7,10.1 	"/>
	<polygon fill="#1E95D4" points="9.2,7.3 11.7,10.1 14.2,8.9 9.3,7.3 	"/>
	<polygon fill="#AFD9E9" points="11.6,12.3 14.2,8.9 11.7,10.1 	"/>
	<polygon fill="#AFD9E9" points="9.2,7.3 14.2,8.9 13.3,5.3 	"/>
	<polygon fill="#1888CA" points="13.3,5.3 11,4.4 10,4.2 9.2,7.3 	"/>
</g>
</svg>
