<?xml version="1.0" encoding="utf-8"?>
<!-- Generator: Adobe Illustrator 21.0.0, SVG Export Plug-In . SVG Version: 6.00 Build 0)  -->
<svg version="1.1" id="图层_1" xmlns="http://www.w3.org/2000/svg" xmlns:xlink="http://www.w3.org/1999/xlink" x="0px" y="0px"
	 viewBox="0 0 32 32" style="enable-background:new 0 0 32 32;" xml:space="preserve">
<style type="text/css">
	.st0{display:none;}
	.st1{display:inline;fill:#FFFFFF;}
	.st2{display:inline;}
	.st3{fill:none;}
	.st4{fill:#AFD9E9;}
	.st5{fill:#1E95D4;}
	.st6{fill:#1888CA;}
	.st7{fill:#0A5DA4;}
	.st8{fill:#00417A;}
	.st9{fill:#FFFFFF;}
</style>
<g id="图层_39" class="st0">
	<title>032gnome-main-menu</title>
	<polygon class="st1" points="25.4,13.5 23.7,16.1 20.7,17.7 16.5,16 13.5,13.8 15.5,11 14.8,8.1 16.1,4.1 16.1,4.1 13,7.3 
		12.6,7.2 13.4,5.2 10.5,8.2 7.8,9.9 4.8,15.4 6.5,19.5 7,22.7 7.6,24.3 5.4,27 8.5,27 8.9,24.1 10.2,22.2 12.3,22.5 16.4,20.7 
		18,21.9 16,24.3 14,26.2 17.2,26.3 17.2,25 19.7,23 19.7,23 20.6,24.1 18,27.9 21.3,27.9 21.1,26 23.5,23.8 22.3,21.3 22.1,18.3 
		24.6,16.8 25.9,17.1 27.8,16.4 28.3,12.6 	"/>
	<title>016gnome-main-menu</title>
	<g class="st2">
		<polygon class="st3" points="16,18.8 19.8,20.3 16.1,18.8 		"/>
		<polygon class="st4" points="10.8,16.9 9.4,13.1 5.3,16 7.7,16.1 		"/>
		<polygon class="st5" points="16.1,18.8 19.8,20.3 21,17.5 16,18.8 		"/>
		<polygon class="st4" points="10,20.1 16,18.8 10.8,16.9 		"/>
		<polygon class="st5" points="5.3,16 6.1,21 7.7,16.1 		"/>
		<polygon class="st6" points="7.7,16.1 6.1,21 10.8,16.9 		"/>
		<polygon class="st5" points="6.1,21 10,20.1 10.8,16.9 		"/>
		<polygon class="st7" points="9.4,13.1 12.3,13.1 12.3,11 		"/>
		<polygon class="st6" points="15.9,15.9 12.3,13.1 10.8,16.9 		"/>
		<polygon class="st5" points="10.8,16.9 12.3,13.1 9.4,13.1 		"/>
		<polygon class="st7" points="16.6,27.3 16.6,25.9 15.2,25.3 		"/>
		<polygon class="st8" points="12.8,27.3 16.6,27.3 15.2,25.3 		"/>
		<polygon class="st8" points="15.2,25.3 16.6,25.9 17.8,22.4 		"/>
		<polygon class="st7" points="21.5,27.2 24.3,24.5 20.7,25 		"/>
		<polygon class="st8" points="17.5,29.4 21.6,29.4 21.5,27.2 20.7,25 		"/>
		<polygon class="st7" points="16.6,25.9 19.7,23.9 17.8,22.4 		"/>
		<polygon class="st8" points="24.3,24.5 22.9,21.7 20.7,25 		"/>
		<polygon class="st8" points="2.5,28.5 6.3,28.5 3.9,26.7 		"/>
		<polygon class="st6" points="15.5,2 11.7,5.8 13.6,5.2 		"/>
		<polygon class="st6" points="12.2,3.3 8.5,6.8 10.9,5.7 		"/>
		<polygon class="st6" points="19.7,23.9 20.7,25 22.9,21.7 17.8,22.4 		"/>
		<polygon class="st5" points="13.6,5.2 11.7,5.8 14,6.6 		"/>
		<polygon class="st4" points="11.3,5.7 12.2,3.3 10.9,5.7 		"/>
		<polygon class="st4" points="14,6.6 15.5,2 13.6,5.2 		"/>
		<polygon class="st6" points="5.3,25.3 3.9,26.7 6.8,25 4.7,23.5 		"/>
		<polygon class="st5" points="5.6,12.3 5.3,16 9.4,13.1 		"/>
		<polygon class="st7" points="6.3,28.5 6.8,25 3.9,26.7 		"/>
		<polygon class="st7" points="22.9,21.7 22.5,18.4 19.8,20.3 		"/>
		<polygon class="st5" points="17.8,22.4 22.9,21.7 19.8,20.3 		"/>
		<polygon class="st6" points="19.8,20.3 22.5,18.4 21,17.5 		"/>
		<polygon class="st6" points="25.5,16.5 24.5,15.9 22.5,18.4 25.6,16.7 25.4,16.6 		"/>
		<polygon class="st7" points="15.6,21.1 17.8,22.4 19.8,20.3 		"/>
		<polygon class="st5" points="22.4,16.9 21,17.5 22.5,18.4 24.5,15.9 		"/>
		<polygon class="st8" points="13.6,22.1 15.6,21.1 10,20.1 		"/>
		<polygon class="st6" points="16,18.8 15.6,21.1 19.8,20.3 		"/>
		<polygon class="st7" points="10,20.1 15.6,21.1 16,18.8 		"/>
		<polygon class="st4" points="30,11.8 26.6,12.8 28,14.5 		"/>
		<polygon class="st6" points="27.1,16.9 29.4,16.1 28,14.5 		"/>
		<polygon class="st7" points="25.7,16.4 25.7,16.6 25.5,16.5 25.4,16.6 25.6,16.7 27.1,16.9 28,14.5 		"/>
		<polygon class="st5" points="26.6,12.8 24.5,15.9 25.5,16.5 		"/>
		<polygon class="st5" points="25.7,16.6 25.7,16.4 25.5,16.5 		"/>
		<polygon class="st5" points="28,14.5 29.4,16.1 30,11.8 		"/>
		<polygon class="st6" points="25.4,16.6 25.5,16.5 25.7,16.4 28,14.5 26.6,12.8 25.5,16.5 		"/>
		<polygon class="st6" points="10.9,23.4 13.6,22.1 10,20.1 		"/>
		<polygon class="st6" points="9.4,13.1 5.6,8.6 5.6,12.3 		"/>
		<polygon class="st6" points="8.5,6.8 5.6,8.6 8.6,9.5 		"/>
		<polygon class="st5" points="8.6,9.5 5.6,8.6 9.4,13.1 		"/>
		<polygon class="st5" points="5.6,8.6 3.9,11.7 5.6,12.3 		"/>
		<polygon class="st7" points="9.4,13.1 10,8.5 8.5,6.8 8.6,9.5 		"/>
		<polygon class="st5" points="10.9,5.7 8.5,6.8 10,8.5 		"/>
		<polygon class="st7" points="3.9,11.7 2,15.1 5.6,12.3 		"/>
		<polygon class="st6" points="5.6,12.3 2,15.1 5.3,16 		"/>
		<polygon class="st8" points="6.8,25 8.2,22.6 6.1,21 		"/>
		<polygon class="st5" points="8.2,22.6 10.9,23.4 10,20.1 		"/>
		<polygon class="st7" points="4.7,23.5 6.8,25 6.1,21 		"/>
		<polygon class="st7" points="6.1,21 8.2,22.6 10,20.1 		"/>
		<polygon class="st7" points="2,15.1 3.8,19.8 5.3,16 		"/>
		<polygon class="st5" points="3.8,19.8 4.7,23.5 6.1,21 		"/>
		<polygon class="st6" points="5.3,16 3.8,19.8 6.1,21 		"/>
		<polygon class="st4" points="21,17.5 15.9,15.9 16,18.8 		"/>
		<polygon class="st5" points="16,18.8 15.9,15.9 10.8,16.9 		"/>
		<polygon class="st6" points="10,8.5 9.4,13.1 12.3,11 		"/>
		<polygon class="st5" points="12.3,11 14.7,10 10,8.5 		"/>
		<polygon class="st4" points="12.3,13.1 14.7,10 12.3,11 		"/>
		<polygon class="st4" points="14.7,10 14,6.6 10,8.5 		"/>
		<polygon class="st6" points="14,6.6 11.7,5.8 10.9,5.7 10,8.5 		"/>
	</g>
</g>
<g id="图层_39_x5F_复制">
	<polygon class="st9" points="26.6,12.8 24.5,15.9 22.4,16.9 21,17.5 15.9,15.9 12.3,13.1 14.7,10 14,6.6 15.5,2 11.7,5.8 10.9,5.7 
		11.3,5.7 12.2,3.3 8.5,6.8 5.6,8.6 3.9,11.7 2,15.1 3.8,19.8 4.7,23.5 5.3,25.3 3.9,26.7 2.5,28.5 6.3,28.5 6.8,25 8.2,22.6 
		10.9,23.4 13.6,22.1 15.6,21.1 17.8,22.4 15.2,25.3 12.8,27.3 16.6,27.3 16.6,25.9 19.7,23.9 20.7,25 17.5,29.4 21.6,29.4 
		21.5,27.2 24.3,24.5 22.9,21.7 22.5,18.4 25.6,16.7 27.1,16.9 29.4,16.1 30,11.8 	"/>
</g>
</svg>
