<?xml version="1.0" encoding="utf-8"?>
<!-- Generator: Adobe Illustrator 21.0.0, SVG Export Plug-In . SVG Version: 6.00 Build 0)  -->
<svg version="1.1" id="svg" xmlns="http://www.w3.org/2000/svg" xmlns:xlink="http://www.w3.org/1999/xlink" x="0px" y="0px"
	 viewBox="0 0 32 32" style="enable-background:new 0 0 32 32;" xml:space="preserve">
<style type="text/css">
	.st0{opacity:0.2;fill:#040000;enable-background:new    ;}
	.st1{opacity:0.08;fill:#040000;enable-background:new    ;}
	.st2{opacity:0.1;fill:#040000;enable-background:new    ;}
	.st3{fill:#5C4037;}
	.st4{fill:url(#SVGID_1_);}
	.st5{opacity:0.3;fill:#DA706F;enable-background:new    ;}
	.st6{fill:#AE1F24;}
	.st7{opacity:0.65;fill:url(#SVGID_2_);enable-background:new    ;}
	.st8{fill:url(#SVGID_3_);}
	.st9{fill:#720914;}
</style>
<polygon class="st0" points="3.5,31 3.5,8 2,8 2,3 9.5,3 9.5,1 22.5,1 22.5,3 30,3 30,8 28.5,8 28.5,31 "/>
<polygon class="st1" points="3.5,32 3.5,9 2,9 2,3 9.5,3 9.5,1 23.5,1 23.5,3 31,3 31,9 29.5,9 29.5,32 "/>
<polygon class="st2" points="4,31.5 4,8.5 2.5,8.5 2.5,3.5 10,3.5 10,1.5 23,1.5 23,3.5 30.5,3.5 30.5,8.5 29,8.5 29,31.5 "/>
<polygon class="st3" points="4,30.5 4,7.5 2.5,7.5 2.5,3.5 10,3.5 10,1.5 22,1.5 22,3.5 29.5,3.5 29.5,7.5 28,7.5 28,30.5 "/>
<linearGradient id="SVGID_1_" gradientUnits="userSpaceOnUse" x1="4.5" y1="-1857.78" x2="27.5" y2="-1857.78" gradientTransform="matrix(1 0 0 -1 0 -1839.28)">
	<stop  offset="0" style="stop-color:#F8CACE"/>
	<stop  offset="0.48" style="stop-color:#DA706F"/>
	<stop  offset="0.49" style="stop-color:#DA706F"/>
	<stop  offset="0.52" style="stop-color:#DA706F"/>
	<stop  offset="1" style="stop-color:#F8CACE"/>
</linearGradient>
<rect x="4.5" y="7" class="st4" width="23" height="23"/>
<rect x="4.5" y="7" class="st5" width="23" height="1"/>
<rect x="22.5" y="11.1" class="st6" width="2" height="16.4"/>
<rect x="17.5" y="11.1" class="st6" width="2" height="16.4"/>
<rect x="12.5" y="11.1" class="st6" width="2" height="16.4"/>
<rect x="7.5" y="11.1" class="st6" width="2" height="16.4"/>
<rect x="3" y="4" class="st6" width="26" height="2"/>
<linearGradient id="SVGID_2_" gradientUnits="userSpaceOnUse" x1="3" y1="-1844.78" x2="29" y2="-1844.78" gradientTransform="matrix(1 0 0 -1 0 -1839.28)">
	<stop  offset="0.05" style="stop-color:#DA706F"/>
	<stop  offset="0.25" style="stop-color:#DA706F"/>
	<stop  offset="0.51" style="stop-color:#AE1F24"/>
	<stop  offset="0.74" style="stop-color:#DA706F"/>
	<stop  offset="1" style="stop-color:#DA706F"/>
</linearGradient>
<rect x="3" y="4" class="st7" width="26" height="3"/>
<linearGradient id="SVGID_3_" gradientUnits="userSpaceOnUse" x1="10.5" y1="-1842.28" x2="21.5" y2="-1842.28" gradientTransform="matrix(1 0 0 -1 0 -1839.28)">
	<stop  offset="0.05" style="stop-color:#AE1F24"/>
	<stop  offset="0.25" style="stop-color:#DA706F"/>
	<stop  offset="0.51" style="stop-color:#DA706F"/>
	<stop  offset="0.74" style="stop-color:#DA706F"/>
	<stop  offset="1" style="stop-color:#AE1F24"/>
</linearGradient>
<polygon class="st8" points="10.5,2 10.5,4 12.2,4 12.2,3 19.8,3 19.8,4 21.5,4 21.5,2 "/>
<rect x="3" y="6" class="st9" width="26" height="1"/>
</svg>
