<svg xmlns="http://www.w3.org/2000/svg" xmlns:xlink="http://www.w3.org/1999/xlink" viewBox="0 0 32 32"><defs><style>.cls-1{opacity:0.2;}.cls-2{opacity:0.08;}.cls-3{opacity:0.1;}.cls-4{fill:url(#linear-gradient);}.cls-5{fill:#212121;}.cls-6{fill:url(#linear-gradient-2);}.cls-7{fill:url(#未命名的渐变_39);}.cls-8{fill:#01579b;}.cls-10,.cls-9{opacity:0.4;}.cls-9{fill:url(#linear-gradient-3);}.cls-10{fill:url(#linear-gradient-4);}.cls-11{fill:url(#未命名的渐变_15);}.cls-12{fill:#eee8d5;opacity:0.23;}.cls-12,.cls-15,.cls-19,.cls-20,.cls-21,.cls-27,.cls-28,.cls-31{isolation:isolate;}.cls-13{fill:#1d272b;}.cls-14{fill:#03a9f4;}.cls-15{opacity:0.2;}.cls-16{fill:#ea7c1f;stroke:#f57f17;}.cls-16,.cls-22,.cls-29,.cls-35{stroke-miterlimit:10;}.cls-16,.cls-22,.cls-29{stroke-width:0.5px;}.cls-17{fill:url(#未命名的渐变_3);}.cls-18{fill:url(#未命名的渐变_2);}.cls-19{fill:#fdefba;opacity:0.25;}.cls-20,.cls-21{fill:#e65100;}.cls-20{opacity:0.1;}.cls-21{opacity:0.05;}.cls-22{fill:#005e61;stroke:#005e61;}.cls-23{fill:url(#未命名的渐变_6);}.cls-24{fill:url(#未命名的渐变_5);}.cls-25{fill:url(#未命名的渐变_4);}.cls-26{fill:#666;}.cls-27{opacity:0.1;}.cls-28{opacity:0.2;}.cls-29{fill:#606061;stroke:#5f5f60;}.cls-30{fill:#a7bcc4;}.cls-31,.cls-32{fill:#5e7b88;}.cls-31{opacity:0.3;}.cls-33{fill:url(#未命名的渐变_10);}.cls-34{fill:#445962;}.cls-35{fill:none;stroke:red;}</style><linearGradient id="linear-gradient" x1="16" y1="5.52" x2="16" y2="26.48" gradientUnits="userSpaceOnUse"><stop offset="0" stop-color="#455a64"/><stop offset="1" stop-color="#263238"/></linearGradient><linearGradient id="linear-gradient-2" x1="16" y1="7.55" x2="16" y2="23.72" gradientUnits="userSpaceOnUse"><stop offset="0" stop-color="#b3e5fc"/><stop offset="1" stop-color="#0288d1"/></linearGradient><linearGradient id="未命名的渐变_39" x1="16" y1="23.22" x2="16" y2="8.05" gradientUnits="userSpaceOnUse"><stop offset="0" stop-color="#026ab5"/><stop offset="1" stop-color="#4fc3f7"/></linearGradient><linearGradient id="linear-gradient-3" x1="4.83" y1="8.79" x2="27.17" y2="8.79" gradientUnits="userSpaceOnUse"><stop offset="0" stop-color="#fff"/><stop offset="1" stop-color="#4fc3f7"/></linearGradient><linearGradient id="linear-gradient-4" x1="-1334.1" y1="429.83" x2="-1320.4" y2="429.83" gradientTransform="translate(-424.76 -1311.37) rotate(-90)" gradientUnits="userSpaceOnUse"><stop offset="0" stop-color="#0288d1"/><stop offset="1" stop-color="#fff"/></linearGradient><radialGradient id="未命名的渐变_15" cx="29.46" cy="8.14" r="13.14" gradientTransform="translate(-12.48 10.2) scale(0.96 0.89)" xlink:href="#linear-gradient-2"/><linearGradient id="未命名的渐变_3" x1="-2997.88" y1="-2054.07" x2="-2997.88" y2="-2054.49" gradientTransform="translate(6018.9 4119.51) scale(2)" gradientUnits="userSpaceOnUse"><stop offset="0" stop-color="#f57c00"/><stop offset="0.16" stop-color="#f58f09"/><stop offset="0.36" stop-color="#f59d11"/><stop offset="0.6" stop-color="#f5a515"/><stop offset="0.99" stop-color="#f5a816"/></linearGradient><linearGradient id="未命名的渐变_2" x1="-2997.88" y1="-2054.15" x2="-2997.88" y2="-2053.05" gradientTransform="translate(6018.9 4119.51) scale(2)" gradientUnits="userSpaceOnUse"><stop offset="0" stop-color="#fadd60"/><stop offset="0.99" stop-color="#f5a816"/></linearGradient><linearGradient id="未命名的渐变_6" x1="-2191.68" y1="-1856.81" x2="-2191.68" y2="-1850.8" gradientTransform="translate(2202.4 1872.01)" gradientUnits="userSpaceOnUse"><stop offset="0" stop-color="#4cb56d"/><stop offset="0.24" stop-color="#4bb56f"/><stop offset="0.41" stop-color="#48b476"/><stop offset="0.55" stop-color="#44b181"/><stop offset="0.68" stop-color="#3ead90"/><stop offset="0.79" stop-color="#36a99f"/></linearGradient><linearGradient id="未命名的渐变_5" x1="-2190.18" y1="-1856.81" x2="-2190.18" y2="-1850.8" gradientTransform="translate(2202.4 1872.01)" gradientUnits="userSpaceOnUse"><stop offset="0" stop-color="#3b8ecb"/><stop offset="0.15" stop-color="#3a92c7"/><stop offset="0.42" stop-color="#389bbc"/><stop offset="0.78" stop-color="#36a7a4"/><stop offset="0.84" stop-color="#36a99f"/></linearGradient><linearGradient id="未命名的渐变_4" x1="-2191.68" y1="-1855.72" x2="-2191.68" y2="-1851.89" gradientTransform="translate(2202.4 1872.01)" gradientUnits="userSpaceOnUse"><stop offset="0" stop-color="#f7f8f8"/><stop offset="0.29" stop-color="#efefef"/><stop offset="0.61" stop-color="#e8e8e8"/><stop offset="1" stop-color="#e6e6e5"/></linearGradient><linearGradient id="未命名的渐变_10" x1="21.62" y1="16.02" x2="24.65" y2="16.02" gradientUnits="userSpaceOnUse"><stop offset="0.05" stop-color="#445962"/><stop offset="0.13" stop-color="#4d646e"/><stop offset="0.29" stop-color="#5a7581"/><stop offset="0.4" stop-color="#5e7b88"/><stop offset="0.61" stop-color="#5e7b88"/><stop offset="1" stop-color="#445962"/></linearGradient></defs><title>画板 23</title><g id="显示桌面"><g id="_32" data-name="32"><rect class="cls-1" x="1" y="4.77" width="30" height="22.46"/><rect class="cls-2" x="1" y="4.77" width="31" height="23.46"/><rect class="cls-3" x="1.5" y="5.27" width="30" height="22.46"/><polygon points="30 5.27 2 5.27 1.5 5.27 1.5 5.77 1.5 26.23 1.5 26.73 2 26.73 30 26.73 30.5 26.73 30.5 26.23 30.5 5.77 30.5 5.27 30 5.27"/><rect class="cls-4" x="1.75" y="5.52" width="28.5" height="20.96"/><path class="cls-5" d="M30,5.77V26.23H2V5.77H30m.5-.5H1.5V26.73h29V5.27Z"/><path class="cls-2" d="M27.8,23.36V8.4H4.69v15Z"/><path class="cls-3" d="M28,23.6V8.16H4.44V23.6Z"/><rect id="rect3008" class="cls-6" x="3.84" y="7.55" width="24.32" height="16.17"/><g id="rect3008-2" data-name="rect3008"><rect class="cls-7" x="4.34" y="8.05" width="23.32" height="15.17"/><path class="cls-8" d="M27.16,8.55V22.72H4.84V8.55H27.16m1-1H3.84V23.72H28.16V7.55Z"/></g><rect class="cls-9" x="4.83" y="8.55" width="22.34" height="0.48"/><rect class="cls-10" x="4.83" y="9.03" width="0.48" height="13.7"/><rect class="cls-11" x="4.83" y="20.75" width="22.34" height="1.98"/><path id="rect3008-0" class="cls-12" d="M19.27,7.55,12.66,23.72h15.5V7.55Z"/><circle class="cls-13" cx="15.94" cy="24.97" r="0.75"/><circle class="cls-14" cx="15.94" cy="25.02" r="0.57"/><polygon class="cls-15" points="20.86 14.03 20.86 10.57 21.07 10.57 21.07 9.91 22.68 9.91 22.9 10.13 25.2 10.13 25.2 10.57 25.42 10.57 25.42 14.03 20.86 14.03"/><polygon class="cls-16" points="21.45 13.44 21.45 11.17 21.67 11.17 21.67 10.51 22.43 10.51 22.65 10.73 24.6 10.73 24.6 11.17 24.82 11.17 24.82 13.44 21.45 13.44"/><path class="cls-17" d="M24.57,10.76H22.64l-.22-.22H21.7v.72a.11.11,0,0,0,.11.11h2.65c.06,0,.11,0,.11-.05S24.57,10.76,24.57,10.76Z"/><polyline id="rect2990" class="cls-18" points="24.79 11.2 24.79 13.41 21.48 13.41 21.48 11.2"/><path id="rect3004" class="cls-19" d="M21.48,11.2v.42a.25.25,0,0,1,.22-.27h2.87a.25.25,0,0,1,.22.27V11.2Z"/><path id="path3801" class="cls-20" d="M21.7,10.54v.27c0-.11.05-.17.1-.17h.57a.32.32,0,0,1,.18.05l.09.05-.22-.22H21.7Z"/><polygon class="cls-20" points="22.64 10.76 24.57 10.76 24.57 10.92 22.8 10.92 22.64 10.76"/><rect class="cls-21" x="21.7" y="11.1" width="2.87" height="0.1"/><circle class="cls-15" cx="10.72" cy="18.21" r="3.98"/><path class="cls-22" d="M10.72,21.26a3.06,3.06,0,1,1,3.06-3.06A3.06,3.06,0,0,1,10.72,21.26Z"/><circle class="cls-23" cx="10.72" cy="18.2" r="3"/><path class="cls-24" d="M13.72,18.2a3,3,0,0,0-3-3v6A3,3,0,0,0,13.72,18.2Z"/><circle class="cls-25" cx="10.72" cy="18.2" r="1.92"/><path class="cls-26" d="M11.83,18.19l-1.07-1a.08.08,0,0,0-.09,0l-1.07,1a.06.06,0,0,0,0,.1H10a.06.06,0,0,1,.06.06v.8a.06.06,0,0,0,.06.06h1.24a.06.06,0,0,0,.06-.06v-.8a.06.06,0,0,1,.06-.06h.33A.06.06,0,0,0,11.83,18.19Z"/><path class="cls-27" d="M23.52,16h0Z"/><polygon class="cls-28" points="21.19 19.63 21.19 17 21.02 17 21 16.39 21 15.38 21.9 15.38 21.9 15.07 24.37 15.07 24.37 15.38 25.27 15.38 25.28 17 25.08 17 25.08 19.63 21.19 19.63"/><path class="cls-28" d="M23.46,15.92h0Z"/><path class="cls-29" d="M21.79,19V16.4H21.6V16h.9v-.31h1.28V16h.9v.42h-.19V19Z"/><rect class="cls-30" x="21.82" y="16.37" width="2.64" height="2.64"/><rect class="cls-31" x="21.82" y="16.37" width="2.64" height="0.12"/><rect class="cls-32" x="21.62" y="16.01" width="3.02" height="0.36"/><polygon class="cls-32" points="22.53 15.69 22.53 16.01 22.72 16.01 22.72 15.79 23.55 15.79 23.55 16.01 23.75 16.01 23.75 15.69 22.53 15.69"/><polygon class="cls-33" points="23.75 16.01 23.75 15.69 22.53 15.69 22.53 16.01 21.62 16.01 21.62 16.34 24.65 16.34 24.65 16.01 23.75 16.01"/><rect class="cls-34" x="21.63" y="16.34" width="3.02" height="0.03"/></g></g><g id="规范"><rect class="cls-35" x="-5.67" y="-32.3" width="90.61" height="84.25"/></g></svg>