<?xml version="1.0" encoding="utf-8"?>
<!-- Generator: Adobe Illustrator 24.0.0, SVG Export Plug-In . SVG Version: 6.00 Build 0)  -->
<svg version="1.1" id="图层_2_1_" xmlns="http://www.w3.org/2000/svg" xmlns:xlink="http://www.w3.org/1999/xlink" x="0px"
	 y="0px" viewBox="0 0 16 16" style="enable-background:new 0 0 16 16;" xml:space="preserve">
<style type="text/css">
	.st0{opacity:0.75;fill:#1F2022;}
</style>
<path class="st0" d="M13.7,6.1C13.3,4.3,11.6,3,9.5,3C7.7,3,6.3,4.3,5.6,5.7C5,5.3,4.4,5.2,3.8,5.3C1.7,5.3,0,7,0,9.1
	C0,11.3,1.7,13,3.8,13c0,0,0.1,0,0.1,0c0,0,0.1,0,0.1,0h8.3c0,0,0.1,0,0.1,0c0,0,0.1,0,0.1,0c1.9,0,3.5-1.7,3.5-3.7
	C16,7.8,15.1,6.6,13.7,6.1z M12.5,12c0,0-0.1,0-0.1,0c0,0-0.1,0-0.1,0H4c0,0-0.1,0-0.1,0c0,0-0.1,0-0.1,0C2.3,12,1,10.7,1,9.1
	c0-1.6,1.2-2.8,2.9-2.8C4.4,6.2,5,6.4,5.5,6.8c0,0,0,0,0.1,0c0,0,0,0,0.1,0c0,0,0,0,0,0c0,0,0.1,0,0.1,0c0,0,0.1,0,0.1,0
	c0,0,0.1,0,0.1,0c0,0,0.1,0,0.1,0c0,0,0.1,0,0.1-0.1c0,0,0.1,0,0.1-0.1c0,0,0,0,0,0c0,0,0,0,0-0.1c0,0,0,0,0-0.1C6.8,5.3,8,4,9.5,4
	c1.4,0,3,0.8,3.3,2.6c0,0,0,0,0,0c0,0,0,0,0,0c0,0,0,0.1,0.1,0.1c0,0,0,0,0,0c0,0,0.1,0.1,0.1,0.1c0,0,0,0,0.1,0c0,0,0.1,0,0.1,0
	c0,0,0,0,0,0c1,0.2,1.8,1.2,1.8,2.3C15,10.7,13.8,12,12.5,12z"/>
</svg>
