<?xml version="1.0" encoding="utf-8"?>
<!-- Generator: Adobe Illustrator 24.0.0, SVG Export Plug-In . SVG Version: 6.00 Build 0)  -->
<svg version="1.1" id="图层_1" xmlns="http://www.w3.org/2000/svg" xmlns:xlink="http://www.w3.org/1999/xlink" x="0px" y="0px"
	 viewBox="0 0 16 16" style="enable-background:new 0 0 16 16;" xml:space="preserve">
<style type="text/css">
	.st0{opacity:0.75;fill:#202020;}
</style>
<path class="st0" d="M15.5,15H15V2.9c0.6-0.2,1-0.8,1-1.4C16,0.7,15.3,0,14.5,0c-0.7,0-1.2,0.4-1.4,1H9.1C9,0.9,8.8,0.8,8.7,0.7
	C8.1,0.3,7.3-0.1,6.6,0.1c-0.1,0-0.2,0.1-0.2,0.1c0,0,0,0,0,0c0,0-0.1,0.1-0.1,0.2L1.3,7.1c-0.7,1-0.6,2.4,0.2,3.3l0.4,0.4
	c0.5,0.5,1.1,0.7,1.8,0.7c0.5,0,1-0.2,1.5-0.5l6.1-4.5v0.9c0,0.1,0,0.2,0.1,0.2c0,0,0.1,0,0.1,0c0,0,0.1,0,0.1,0L14,6.3V15h-0.5
	c-0.3,0-0.5,0.2-0.5,0.5s0.2,0.5,0.5,0.5h2c0.3,0,0.5-0.2,0.5-0.5S15.8,15,15.5,15z M13,1.5c0,0.1,0,0.1,0,0.2l-1.3,2
	c-0.4-0.6-1-1.2-1.5-1.7c-0.2-0.2-0.4-0.3-0.5-0.5H13z M6.3,9C5.8,8.7,5.1,8.1,4.6,7.6C4.1,7.3,3.6,6.6,3.3,6l1.3-1.7
	c0.3,0.6,0.7,1.4,1.4,2C6.6,6.9,7.4,7.4,8,7.7L6.3,9z M8.7,6.9c-0.6-0.3-1.3-0.8-2-1.4C6.1,5,5.7,4.3,5.4,3.5c0-0.1-0.1-0.1-0.1-0.1
	l1.1-1.5c0.3,0.6,0.9,1.3,1.8,2.2C8.8,4.8,9.6,5.6,10.4,6L8.9,7.1C8.8,7,8.8,7,8.7,6.9z M9.5,2.8c1.1,1.1,1.5,1.8,1.7,2.1v0.3
	c-0.2,0-0.9-0.3-2.4-1.8C7.3,1.9,7.1,1.2,7.1,1c0.1,0,0.4,0.1,1,0.5C8.5,1.8,8.9,2.2,9.5,2.8z M4.6,10.2C4,10.6,3.2,10.6,2.7,10
	L2.3,9.6c-0.5-0.5-0.6-1.4-0.2-2l0.6-0.8C3,7.5,3.5,8.1,3.9,8.4c0.4,0.4,1,0.9,1.5,1.2L4.6,10.2z M11.8,7.1V6.2L12,6c0,0,0,0,0,0
	c0,0,0,0,0,0c0.2-0.2,0.3-0.4,0.3-0.7L13.5,6L11.8,7.1z M12.2,4.6c-0.1-0.1-0.1-0.3-0.2-0.5l1.2-1.9c0.2,0.3,0.4,0.5,0.8,0.6v2.8
	L12.2,4.6z"/>
</svg>
