<?xml version="1.0" encoding="utf-8"?>
<!-- Generator: Adobe Illustrator 24.0.0, SVG Export Plug-In . SVG Version: 6.00 Build 0)  -->
<svg version="1.1" id="图层_2_1_" xmlns="http://www.w3.org/2000/svg" xmlns:xlink="http://www.w3.org/1999/xlink" x="0px"
	 y="0px" viewBox="0 0 16 16" style="enable-background:new 0 0 16 16;" xml:space="preserve">
<style type="text/css">
	.st0{opacity:0.75;}
	.st1{fill:#1F2022;}
	.st2{display:none;fill:#1F2022;}
	.st3{display:none;fill:none;stroke:#1F2022;stroke-linecap:round;stroke-miterlimit:10;}
	.st4{fill:none;stroke:#1F2022;stroke-linecap:round;stroke-miterlimit:10;}
</style>
<g class="st0">
	<path class="st1" d="M12.5,3L12.5,3c-1-1.3-2.4-2-4-2C6.9,1,5.4,1.8,4.4,3.1C4.1,3.1,3.8,3,3.5,3C1.5,3,0,4.5,0,6.5
		c0,2,1.5,3.5,3.5,3.5C4,10,4.6,9.9,5.1,9.6C6,10.5,7.2,11,8.5,11c1.1,0,2.2-0.4,3.1-1.2c0.3,0.1,0.6,0.2,0.9,0.2
		c2,0,3.5-1.5,3.5-3.5C16,4.5,14.5,3,12.5,3z M12.5,9c-0.2,0-0.5-0.1-0.8-0.2c0,0,0,0-0.1,0c0,0-0.1,0-0.1,0c0,0-0.1,0-0.1,0
		c0,0-0.1,0-0.1,0c0,0-0.1,0-0.1,0.1c0,0,0,0,0,0C10.4,9.6,9.4,10,8.5,10c-1.1,0-2.2-0.5-2.9-1.3c0,0,0,0,0,0c0,0-0.1,0-0.1-0.1
		c0,0-0.1,0-0.1,0c0,0-0.1,0-0.1,0c0,0-0.1,0-0.1,0c0,0-0.1,0-0.1,0c0,0-0.1,0-0.1,0c0,0,0,0-0.1,0C4.5,8.8,4,9,3.5,9
		C2.1,9,1,7.9,1,6.5S2.1,4,3.5,4c0.3,0,0.6,0.1,0.9,0.2c0,0,0.1,0,0.1,0c0,0,0,0,0,0c0,0,0,0,0,0c0.1,0,0.2,0,0.2-0.1c0,0,0,0,0,0
		C4.9,4.1,5,4,5,4c0,0,0,0,0,0c0.8-1.2,2-2,3.5-2c1.2,0,2.3,0.5,3,1.4c0,0,0,0.1,0,0.1C11.5,3.8,11.7,4,12,4h0.5
		C13.9,4,15,5.1,15,6.5S13.9,9,12.5,9z"/>
	<g>
		<path class="st1" d="M3,12c0,0-1,1.4-1,2c0,1.4,2,1.4,2,0C4,13.4,3,12,3,12z"/>
		<path class="st2" d="M2,10c0,0-1,1.4-1,2c0,1.4,2,1.4,2,0C3,11.4,2,10,2,10z"/>
		<path class="st2" d="M10,10c0,0-1,1.4-1,2c0,1.4,2,1.4,2,0C11,11.4,10,10,10,10z"/>
		<path class="st2" d="M14,10c0,0-1,1.4-1,2c0,1.4,2,1.4,2,0C15,11.4,14,10,14,10z"/>
		<path class="st1" d="M8,13c0,0-1,1.4-1,2c0,1.4,2,1.4,2,0C9,14.4,8,13,8,13z"/>
		<path class="st1" d="M13,12c0,0-1,1.4-1,2c0,1.4,2,1.4,2,0C14,13.4,13,12,13,12z"/>
		<path class="st2" d="M6,10c0,0-1,1.4-1,2c0,1.4,2,1.4,2,0C7,11.4,6,10,6,10z"/>
		<path class="st2" d="M8.2,12c0,0-1.2,1.8-1.2,2.6c0,1.8,2.5,1.8,2.5,0C9.4,13.9,8.2,12,8.2,12z"/>
	</g>
	<g>
		<line class="st3" x1="8.5" y1="13.5" x2="8.5" y2="15.5"/>
		<line class="st4" x1="5.5" y1="12.5" x2="5.5" y2="14.5"/>
		<line class="st3" x1="10.5" y1="12.5" x2="10.5" y2="14.5"/>
		<line class="st3" x1="3.5" y1="11.5" x2="3.5" y2="13.5"/>
		<line class="st4" x1="10.5" y1="12.5" x2="10.5" y2="14.5"/>
		<line class="st4" x1="1.5" y1="10.5" x2="1.5" y2="12.5"/>
		<line class="st4" x1="14.5" y1="10.5" x2="14.5" y2="12.5"/>
	</g>
</g>
</svg>
