<?xml version="1.0" encoding="utf-8"?>
<!-- Generator: Adobe Illustrator 24.0.0, SVG Export Plug-In . SVG Version: 6.00 Build 0)  -->
<svg version="1.1" id="图层_1" xmlns="http://www.w3.org/2000/svg" xmlns:xlink="http://www.w3.org/1999/xlink" x="0px" y="0px"
	 viewBox="0 0 16 16" enable-background="new 0 0 16 16" xml:space="preserve">
<g opacity="0.75">
	<path fill="#1F2022" d="M5.5,0.8C5.4,0.8,5.2,0.9,5.1,1L2.5,4H2C0.9,4,0,4.9,0,6v4c0,1.1,0.9,2,2,2h0.5l2.6,3
		c0.1,0.1,0.2,0.2,0.4,0.2C5.8,15.2,6,15,6,14.7V1.3C6,1,5.8,0.8,5.5,0.8z M5,13.4l-1.7-2L3,11H2.5H2c-0.6,0-1-0.4-1-1V6
		c0-0.6,0.4-1,1-1h0.5H3l0.3-0.3l1.7-2V13.4z"/>
	<path fill="#1F2022" d="M12.2,8.5l2.6-2.6c0.2-0.2,0.2-0.5,0-0.7s-0.5-0.2-0.7,0l-2.6,2.6L8.9,5.1C8.7,5,8.3,5,8.1,5.1
		S8,5.7,8.1,5.9l2.6,2.6l-2.6,2.6c-0.2,0.2-0.2,0.5,0,0.7C8.2,12,8.4,12,8.5,12s0.3,0,0.4-0.1l2.6-2.6l2.6,2.6
		c0.1,0.1,0.2,0.1,0.4,0.1s0.3,0,0.4-0.1c0.2-0.2,0.2-0.5,0-0.7L12.2,8.5z"/>
</g>
</svg>
