<?xml version="1.0" encoding="utf-8"?>
<!-- Generator: Adobe Illustrator 25.0.0, SVG Export Plug-In . SVG Version: 6.00 Build 0)  -->
<svg version="1.1" id="图层_2_1_" xmlns="http://www.w3.org/2000/svg" xmlns:xlink="http://www.w3.org/1999/xlink" x="0px"
	 y="0px" viewBox="0 0 16 16" style="enable-background:new 0 0 16 16;" xml:space="preserve">
<style type="text/css">
	.st0{opacity:0.75;}
	.st1{fill:none;stroke:#1F2022;stroke-miterlimit:10;}
	.st2{fill:#1F2022;}
</style>
<g class="st0">
	<path class="st1" d="M13.1,15.5H2.9c-1.4,0-2.4-1.5-1.8-2.8C2.2,10.1,4.9,8.5,8,8.5s5.8,1.6,6.9,4.2C15.5,14,14.5,15.5,13.1,15.5z"
		/>
	<path class="st2" d="M8,0C5.5,0,3.5,2,3.5,4.5S5.5,9,8,9s4.5-2,4.5-4.5S10.5,0,8,0L8,0z M8,8C6.1,8,4.5,6.4,4.5,4.5S6.1,1,8,1
		s3.5,1.6,3.5,3.5S9.9,8,8,8z"/>
</g>
</svg>
