<?xml version="1.0" encoding="utf-8"?>
<!-- Generator: Adobe Illustrator 25.0.0, SVG Export Plug-In . SVG Version: 6.00 Build 0)  -->
<svg version="1.1" id="图层_2_1_" xmlns="http://www.w3.org/2000/svg" xmlns:xlink="http://www.w3.org/1999/xlink" x="0px"
	 y="0px" viewBox="0 0 16 16" style="enable-background:new 0 0 16 16;" xml:space="preserve">
<style type="text/css">
	.st0{opacity:0.75;fill:#1F2022;enable-background:new    ;}
</style>
<path class="st0" d="M12,5c0.6,0,1,0.4,1,1v5c0,0.6-0.4,1-1,1H3c-0.6,0-1-0.4-1-1V6c0-0.6,0.4-1,1-1H12 M12,4H3C1.9,4,1,4.9,1,6v5
	c0,1.1,0.9,2,2,2h9c1.1,0,2-0.9,2-2V6C14,4.9,13.1,4,12,4z"/>
<path class="st0" d="M14,6h0.5C14.8,6,15,6.2,15,6.5l0,0v4c0,0.3-0.2,0.5-0.5,0.5l0,0H14l0,0V6L14,6z"/>
<path class="st0" d="M4,6h3c0.6,0,1,0.4,1,1v3c0,0.6-0.4,1-1,1H4c-0.6,0-1-0.4-1-1V7C3,6.4,3.4,6,4,6z"/>
</svg>
