<?xml version="1.0" encoding="utf-8"?>
<!-- Generator: Adobe Illustrator 24.0.0, SVG Export Plug-In . SVG Version: 6.00 Build 0)  -->
<svg version="1.1" id="图层_1" xmlns="http://www.w3.org/2000/svg" xmlns:xlink="http://www.w3.org/1999/xlink" x="0px" y="0px"
	 viewBox="0 0 16 16" style="enable-background:new 0 0 16 16;" xml:space="preserve">
<style type="text/css">
	.st0{opacity:0.75;}
	.st1{fill:#1F2022;}
</style>
<g id="图层_2_1_" class="st0">
	<g>
		<path class="st1" d="M13,2c0.6,0,1,0.4,1,1v10c0,0.6-0.4,1-1,1H3c-0.6,0-1-0.4-1-1V3c0-0.6,0.4-1,1-1H13 M13,1H3C1.9,1,1,1.9,1,3
			v10c0,1.1,0.9,2,2,2h10c1.1,0,2-0.9,2-2V3C15,1.9,14.1,1,13,1L13,1z"/>
	</g>
	<path class="st1" d="M11,6.3V6c0-1.7-1.3-3-3-3C6.3,3,5,4.3,5,6v0.3C4.4,6.6,4,7.3,4,8v3c0,1.1,0.9,2,2,2h4c1.1,0,2-0.9,2-2V8
		C12,7.3,11.6,6.6,11,6.3z M8,4c1.1,0,2,0.9,2,2H6C6,4.9,6.9,4,8,4z M11,11c0,0.6-0.4,1-1,1H6c-0.6,0-1-0.4-1-1V8c0-0.6,0.4-1,1-1h4
		c0.6,0,1,0.4,1,1V11z"/>
</g>
</svg>
