<?xml version="1.0" encoding="utf-8"?>
<!-- Generator: Adobe Illustrator 24.0.0, SVG Export Plug-In . SVG Version: 6.00 Build 0)  -->
<svg version="1.1" id="图层_1" xmlns="http://www.w3.org/2000/svg" xmlns:xlink="http://www.w3.org/1999/xlink" x="0px" y="0px"
	 viewBox="0 0 96 96" enable-background="new 0 0 96 96" xml:space="preserve">
<g id="图层_1_1_" display="none">
	<g id="_x39_6_2_" display="inline">
		<g>
			<circle fill="#EBE9DC" cx="48" cy="48" r="40.5"/>
			<path fill="#ED3146" d="M48,11c20.4,0,37,16.6,37,37S68.4,85,48,85S11,68.4,11,48S27.6,11,48,11 M48,4C23.7,4,4,23.7,4,48
				s19.7,44,44,44s44-19.7,44-44S72.3,4,48,4L48,4z"/>
		</g>
		<circle fill="#C1A105" cx="66" cy="37" r="6"/>
		<g>
			<g>
				<defs>
					<path id="SVGID_1_" d="M71,72H25c-3.3,0-6-2.7-6-6V34c0-3.3,2.7-6,6-6h46c3.3,0,6,2.7,6,6v32C77,69.3,74.3,72,71,72z"/>
				</defs>
				<clipPath id="SVGID_2_">
					<use xlink:href="#SVGID_1_"  overflow="visible"/>
				</clipPath>
				<path clip-path="url(#SVGID_2_)" fill="#6E8D2A" d="M40.2,100.7c0,0,18.9-48.2,27.2-48.2s25.1,48.2,25.1,48.2H40.2z"/>
			</g>
			<g>
				<defs>
					<path id="SVGID_3_" d="M71,72H25c-3.3,0-6-2.7-6-6V34c0-3.3,2.7-6,6-6h46c3.3,0,6,2.7,6,6v32C77,69.3,74.3,72,71,72z"/>
				</defs>
				<clipPath id="SVGID_4_">
					<use xlink:href="#SVGID_3_"  overflow="visible"/>
				</clipPath>
				<path clip-path="url(#SVGID_4_)" fill="#91B33A" d="M11,86.2c0,0,18.9-48.2,27.2-48.2s25.1,48.2,25.1,48.2H11z"/>
			</g>
		</g>
		<g>
			<line fill="none" stroke="#ED3146" stroke-width="7" stroke-miterlimit="10" x1="77.3" y1="16.6" x2="17.6" y2="76.3"/>
		</g>
	</g>
</g>
<g id="图层_2_1_">
	<g id="_x39_6">
		<circle fill="#F22C42" cx="48" cy="48" r="44"/>
		<rect x="16" y="43" fill="#FFFFFF" width="64" height="8"/>
	</g>
</g>
</svg>
