<?xml version="1.0" encoding="utf-8"?>
<!-- Generator: Adobe Illustrator 25.0.0, SVG Export Plug-In . SVG Version: 6.00 Build 0)  -->
<svg version="1.1" id="键盘充电" xmlns="http://www.w3.org/2000/svg" xmlns:xlink="http://www.w3.org/1999/xlink" x="0px"
	 y="0px" viewBox="0 0 16 16" style="enable-background:new 0 0 16 16;" xml:space="preserve">
<style type="text/css">
	.st0{opacity:0.75;}
	.st1{fill:#1F2022;}
</style>
<g class="st0">
	<path class="st1" d="M0,2v13c0,0.6,0.4,1,1,1h5c0.6,0,1-0.4,1-1V2c0-0.6-0.4-1-1-1H1C0.4,1,0,1.4,0,2z M6,15H1V2h5V15z"/>
	<path class="st1" d="M2,0h3c0.6,0,1,0.4,1,1l0,0c0,0.6-0.4,1-1,1H2C1.4,2,1,1.6,1,1l0,0C1,0.4,1.4,0,2,0z"/>
	<path class="st1" d="M9,2v13c0,0.6,0.4,1,1,1h5c0.6,0,1-0.4,1-1V2c0-0.6-0.4-1-1-1h-5C9.4,1,9,1.4,9,2z M15,15h-5V2h5V15z"/>
	<rect x="11" y="4" class="st1" width="1" height="1"/>
	<rect x="11" y="6" class="st1" width="1" height="1"/>
	<rect x="11" y="10" class="st1" width="1" height="1"/>
	<rect x="11" y="8" class="st1" width="1" height="1"/>
	<rect x="13" y="8" class="st1" width="1" height="1"/>
	<rect x="11" y="12" class="st1" width="1" height="1"/>
	<rect x="13" y="4" class="st1" width="1" height="1"/>
	<rect x="13" y="6" class="st1" width="1" height="1"/>
	<rect x="13" y="10" class="st1" width="1" height="1"/>
	<rect x="13" y="12" class="st1" width="1" height="1"/>
</g>
</svg>
