<?xml version="1.0" encoding="utf-8"?>
<!-- Generator: Adobe Illustrator 24.0.0, SVG Export Plug-In . SVG Version: 6.00 Build 0)  -->
<svg version="1.1" xmlns="http://www.w3.org/2000/svg" xmlns:xlink="http://www.w3.org/1999/xlink" x="0px" y="0px"
	 viewBox="0 0 16 16" style="enable-background:new 0 0 16 16;" xml:space="preserve">
<style type="text/css">
	.st0{fill:none;stroke:#808080;stroke-width:2;stroke-linecap:round;stroke-miterlimit:10;}
	.st1{opacity:0.2;fill:none;stroke:#808080;stroke-width:2;stroke-linecap:round;stroke-miterlimit:10;}
	.st2{fill:#808080;}
	.st3{fill:none;stroke:#808080;stroke-miterlimit:10;}
</style>
<g id="图层_2">
	<line class="st0" x1="2" y1="13" x2="2" y2="15"/>
	<line class="st0" x1="6" y1="9" x2="6" y2="15"/>
	<line class="st0" x1="10" y1="5" x2="10" y2="7"/>
	<line class="st1" x1="14" y1="1" x2="14" y2="7"/>
</g>
<g id="图层_3">
	<g>
		<path class="st2" d="M15,12v3h-5v-3H15 M15,11h-5c-0.6,0-1,0.4-1,1v3c0,0.6,0.4,1,1,1h5c0.6,0,1-0.4,1-1v-3C16,11.4,15.6,11,15,11
			L15,11z"/>
	</g>
	<path class="st3" d="M10.5,11.3v-0.8c0-1.1,0.9-2,2-2h0c1.1,0,2,0.9,2,2v0.8"/>
</g>
</svg>
