<?xml version="1.0" encoding="utf-8"?>
<!-- Generator: Adobe Illustrator 24.0.0, SVG Export Plug-In . SVG Version: 6.00 Build 0)  -->
<svg version="1.1" id="图层_2_1_" xmlns="http://www.w3.org/2000/svg" xmlns:xlink="http://www.w3.org/1999/xlink" x="0px"
	 y="0px" viewBox="0 0 16 16" style="enable-background:new 0 0 16 16;" xml:space="preserve">
<style type="text/css">
	.st0{opacity:0.75;}
	.st1{fill:#1F2022;}
</style>
<g class="st0">
	<path class="st1" d="M14.6,10.7l-2.7-2c-0.2-0.2-0.5-0.1-0.7,0.1C11,9,11.1,9.3,11.3,9.5l2,1.5h-11c-0.3,0-0.5,0.2-0.5,0.5
		S2,12,2.3,12h11l-2,1.5c-0.2,0.2-0.3,0.5-0.1,0.7c0.1,0.1,0.2,0.2,0.4,0.2c0.1,0,0.2,0,0.3-0.1l2.7-2c0.3-0.2,0.4-0.5,0.4-0.8
		S14.9,10.9,14.6,10.7z"/>
	<path class="st1" d="M2.3,5h11l-2,1.5C11.1,6.7,11,7,11.2,7.2c0.1,0.1,0.2,0.2,0.4,0.2c0.1,0,0.2,0,0.3-0.1l2.7-2
		C14.9,5.1,15,4.8,15,4.5s-0.2-0.6-0.4-0.8l-2.7-2c-0.2-0.2-0.5-0.1-0.7,0.1C11,2,11.1,2.3,11.3,2.5l2,1.5h-11C2,4,1.8,4.2,1.8,4.5
		S2,5,2.3,5z"/>
</g>
</svg>
