<?xml version="1.0" encoding="utf-8"?>
<!-- Generator: Adobe Illustrator 25.0.0, SVG Export Plug-In . SVG Version: 6.00 Build 0)  -->
<svg version="1.1" id="图层_1" xmlns="http://www.w3.org/2000/svg" xmlns:xlink="http://www.w3.org/1999/xlink" x="0px" y="0px"
	 viewBox="0 0 16 16" style="enable-background:new 0 0 16 16;" xml:space="preserve">
<style type="text/css">
	.st0{opacity:0.75;}
	.st1{fill:none;stroke:#1F2022;stroke-linecap:round;stroke-miterlimit:10;}
	.st2{fill:none;stroke:#1F2022;stroke-linecap:round;stroke-linejoin:round;}
	.st3{fill:#2196F3;}
	.st4{fill:#FFFFFF;}
</style>
<g id="m">
	<g id="_16">
		<g class="st0">
			<path class="st1" d="M6.3,11.5c-2.5,0-4.6-1.9-4.8-4.4l0,0c0.1-2.6,2.2-4.6,4.8-4.6h3.5c2.6,0,4.7,2,4.8,4.6l0,0
				c-0.1,2.5-2.2,4.5-4.8,4.4h-1"/>
			<polyline class="st2" points="10.5,9.8 8.5,11.5 10.5,13.2 			"/>
		</g>
		<circle class="st3" cx="8" cy="7" r="2"/>
		<path class="st4" d="M8.3,5.5v3.1H7.7V6.2C7.6,6.3,7.5,6.3,7.4,6.4S7.1,6.5,7,6.5V6c0.3-0.1,0.6-0.2,0.9-0.4L8.3,5.5z"/>
	</g>
</g>
</svg>
