<?xml version="1.0" encoding="utf-8"?>
<!-- Generator: Adobe Illustrator 25.0.0, SVG Export Plug-In . SVG Version: 6.00 Build 0)  -->
<svg version="1.1"
	 id="svg7384" xmlns:cc="http://creativecommons.org/ns#" xmlns:dc="http://purl.org/dc/elements/1.1/" xmlns:inkscape="http://www.inkscape.org/namespaces/inkscape" xmlns:rdf="http://www.w3.org/1999/02/22-rdf-syntax-ns#" xmlns:sodipodi="http://sodipodi.sourceforge.net/DTD/sodipodi-0.dtd" xmlns:svg="http://www.w3.org/2000/svg"
	 xmlns="http://www.w3.org/2000/svg" xmlns:xlink="http://www.w3.org/1999/xlink" x="0px" y="0px" viewBox="0 0 16 16"
	 style="enable-background:new 0 0 16 16;" xml:space="preserve">
<style type="text/css">
	.st0{display:none;opacity:0.75;}
	.st1{display:inline;fill:#1F2022;}
	.st2{opacity:0.75;}
	.st3{fill:#1F2022;}
</style>
<sodipodi:namedview  bordercolor="#666666" borderopacity="1" gridtolerance="10" guidetolerance="10" id="namedview88" inkscape:bbox-nodes="false" inkscape:bbox-paths="true" inkscape:current-layer="layer9" inkscape:cx="327.82372" inkscape:cy="-199.06477" inkscape:guide-bbox="true" inkscape:object-nodes="false" inkscape:object-paths="false" inkscape:pageopacity="1" inkscape:pageshadow="2" inkscape:snap-bbox="true" inkscape:snap-bbox-midpoints="false" inkscape:snap-global="true" inkscape:snap-grids="true" inkscape:snap-nodes="true" inkscape:snap-others="false" inkscape:snap-to-guides="true" inkscape:window-height="1374" inkscape:window-maximized="1" inkscape:window-width="2560" inkscape:window-x="0" inkscape:window-y="27" inkscape:zoom="1" objecttolerance="10" pagecolor="#3a3b39" showborder="false" showgrid="false" showguides="true">
	
		<inkscape:grid  empspacing="2" enabled="true" id="grid4866" originx="120.00025px" originy="60.000001px" snapvisiblegridlinesonly="true" spacingx="1px" spacingy="1px" type="xygrid" visible="true">
		</inkscape:grid>
</sodipodi:namedview>
<g id="layer9" transform="translate(-120.99995,-277)" inkscape:groupmode="layer" inkscape:label="status" class="st0">
	<path id="path5363" inkscape:connector-curvature="0" class="st1" d="M126.8,286c-0.5,0.1-0.9,0.6-0.8,1.2c0,0.2,0.1,0.4,0.3,0.6
		l1.3,1.3l-1.3,1.3c-0.4,0.4-0.4,1,0,1.4s1,0.4,1.4,0l2-2l0.7-0.7l-0.7-0.7l-2-2C127.5,286,127.1,285.9,126.8,286z"/>
	<path id="path5365" inkscape:connector-curvature="0" class="st1" d="M125,280c-1.6,0-3,1.4-3,3v4c0,1.6,1.4,3,3,3h4v-2h-4
		c-0.6,0-1-0.4-1-1v-4c0-0.6,0.4-1,1-1h8c0.6,0,1,0.4,1,1v4c0,0.6-0.4,1-1,1h-1v2h1c1.6,0,3-1.4,3-3v-4c0-1.6-1.4-3-3-3H125z"/>
	<rect id="rect5367" x="126" y="286" class="st1" width="1" height="1"/>
	<rect id="rect5369" x="126" y="291" class="st1" width="1" height="1"/>
</g>
<g id="layer10" transform="translate(-120.99995,-277)" inkscape:groupmode="layer" inkscape:label="devices">
</g>
<g id="layer11" transform="translate(-120.99995,-277)" inkscape:groupmode="layer" inkscape:label="apps">
</g>
<g id="layer13" transform="translate(-120.99995,-277)" inkscape:groupmode="layer" inkscape:label="places">
</g>
<g id="layer14" transform="translate(-120.99995,-277)" inkscape:groupmode="layer" inkscape:label="mimetypes">
</g>
<g id="layer15" transform="translate(-120.99995,-277)" inkscape:groupmode="layer" inkscape:label="emblems">
</g>
<g id="g71291" transform="translate(-120.99995,-277)" inkscape:groupmode="layer" inkscape:label="emotes">
</g>
<g id="g4953" transform="translate(-120.99995,-277)" inkscape:groupmode="layer" inkscape:label="categories">
</g>
<g id="layer12" transform="translate(-120.99995,-277)" inkscape:groupmode="layer" inkscape:label="actions" class="st2">
</g>
<g class="st2">
	<g>
		<path class="st3" d="M9.8,12.5L9.2,13l-2.9,2.4c-0.1,0.1-0.2,0.1-0.3,0.1c-0.1,0-0.3-0.1-0.4-0.2c-0.2-0.2-0.2-0.5,0.1-0.7L7.6,13
			l0.6-0.5L7.6,12l-1.9-1.6c-0.2-0.2-0.2-0.5-0.1-0.7c0.2-0.2,0.5-0.2,0.7-0.1L9.2,12L9.8,12.5z"/>
	</g>
	<path class="st3" d="M12,3H4C2.3,3,1,4.3,1,6v4c0,1.7,1.3,3,3,3h5.2l0.6-0.5L9.2,12H4c-1.1,0-2-0.9-2-2V6c0-1.1,0.9-2,2-2h8
		c1.1,0,2,0.9,2,2v4c0,1.1-0.9,2-2,2v1c1.7,0,3-1.3,3-3V6C15,4.3,13.7,3,12,3z"/>
</g>
</svg>
