<?xml version="1.0" encoding="utf-8"?>
<!-- Generator: Adobe Illustrator 24.0.0, SVG Export Plug-In . SVG Version: 6.00 Build 0)  -->
<svg version="1.1" id="图层_2_1_" xmlns="http://www.w3.org/2000/svg" xmlns:xlink="http://www.w3.org/1999/xlink" x="0px"
	 y="0px" viewBox="0 0 16 16" style="enable-background:new 0 0 16 16;" xml:space="preserve">
<style type="text/css">
	.st0{opacity:0.75;}
	.st1{fill:#1F2022;}
</style>
<g class="st0">
	<path class="st1" d="M1.4,5.3l2.7,2c0.1,0.1,0.2,0.1,0.3,0.1c0.2,0,0.3-0.1,0.4-0.2C5,7,4.9,6.7,4.7,6.5L2.7,5h11
		c0.3,0,0.5-0.2,0.5-0.5S14,4,13.7,4h-11l2-1.5C4.9,2.3,5,2,4.8,1.8C4.6,1.6,4.3,1.5,4.1,1.7l-2.7,2C1.1,3.9,1,4.2,1,4.5
		S1.1,5.1,1.4,5.3z"/>
	<path class="st1" d="M13.7,11h-11l2-1.5C4.9,9.3,5,9,4.8,8.8C4.6,8.6,4.3,8.5,4.1,8.7l-2.7,2C1.1,10.9,1,11.2,1,11.5
		s0.2,0.6,0.4,0.8l2.7,2c0.1,0.1,0.2,0.1,0.3,0.1c0.2,0,0.3-0.1,0.4-0.2C5,14,4.9,13.7,4.7,13.5l-2-1.5h11c0.3,0,0.5-0.2,0.5-0.5
		S14,11,13.7,11z"/>
</g>
</svg>
