<?xml version="1.0" encoding="utf-8"?>
<!-- Generator: Adobe Illustrator 24.0.0, SVG Export Plug-In . SVG Version: 6.00 Build 0)  -->
<svg version="1.1" id="图层_2" xmlns="http://www.w3.org/2000/svg" xmlns:xlink="http://www.w3.org/1999/xlink" x="0px" y="0px"
	 viewBox="0 0 16 16" style="enable-background:new 0 0 16 16;" xml:space="preserve">
<style type="text/css">
	.st0{fill:#808080;}
	.st1{opacity:0.2;fill:none;stroke:#808080;stroke-linecap:round;stroke-linejoin:round;stroke-miterlimit:10;}
	.st2{fill:none;stroke:#808080;stroke-linecap:round;stroke-linejoin:round;stroke-miterlimit:10;}
	.st3{fill:none;stroke:#808080;stroke-miterlimit:10;}
</style>
<g>
	<path class="st0" d="M8,4c0.6,0,1,0.4,1,1S8.6,6,8,6S7,5.6,7,5S7.4,4,8,4 M8,3C6.9,3,6,3.9,6,5s0.9,2,2,2s2-0.9,2-2S9.1,3,8,3L8,3z
		"/>
</g>
<path class="st1" d="M10.9,3c0.4,0.6,0.6,1.3,0.6,2c0,1-0.4,1.9-1.1,2.5"/>
<path class="st1" d="M5.7,7.6C5,7,4.5,6.1,4.5,5c0-0.7,0.2-1.4,0.6-2"/>
<path class="st1" d="M4,8.8C3.1,7.8,2.5,6.5,2.5,5c0-1.5,0.6-2.8,1.5-3.8"/>
<path class="st1" d="M12,1.2c0.9,1,1.5,2.3,1.5,3.8c0,0.7-0.1,1.4-0.4,2"/>
<path class="st1" d="M14,0.5c0.9,1.3,1.5,2.8,1.5,4.5c0,1.1-0.2,2.1-0.6,3"/>
<path class="st1" d="M2,9.5C1.1,8.3,0.5,6.7,0.5,5c0-1.6,0.5-3.1,1.4-4.4"/>
<polyline class="st2" points="4,15.5 8,6.5 9.1,9 "/>
<line class="st2" x1="6.4" y1="10.5" x2="7.5" y2="10.5"/>
<line class="st2" x1="5" y1="13.5" x2="8" y2="13.5"/>
<g>
	<path class="st0" d="M15,12v3h-5v-3H15 M15,11h-5c-0.6,0-1,0.4-1,1v3c0,0.6,0.4,1,1,1h5c0.6,0,1-0.4,1-1v-3C16,11.4,15.6,11,15,11
		L15,11z"/>
	<path class="st3" d="M10.5,11.3v-0.8c0-1.1,0.9-2,2-2l0,0c1.1,0,2,0.9,2,2v0.8"/>
</g>
</svg>
