<?xml version="1.0" encoding="utf-8"?>
<!-- Generator: Adobe Illustrator 24.0.0, SVG Export Plug-In . SVG Version: 6.00 Build 0)  -->
<svg version="1.1" id="图层_25" xmlns="http://www.w3.org/2000/svg" xmlns:xlink="http://www.w3.org/1999/xlink" x="0px" y="0px"
	 viewBox="0 0 16 16" style="enable-background:new 0 0 16 16;" xml:space="preserve">
<style type="text/css">
	.st0{opacity:0.2;enable-background:new    ;}
	.st1{fill:#808080;}
	.st2{opacity:0.2;fill:none;stroke:#808080;stroke-linecap:round;stroke-miterlimit:10;enable-background:new    ;}
</style>
<g id="_16">
	<g class="st0">
		<path class="st1" d="M8,12c0.6,0,1,0.4,1,1c0,0.5-0.4,1-1,1c-0.6,0-1-0.4-1-1c0-0.3,0.1-0.5,0.3-0.7C7.5,12.1,7.7,12,8,12L8,12
			 M8,11c-1.1,0-2,0.9-2,2s0.9,2,2,2c0,0,0,0,0,0c0,0,0,0,0,0c1.1,0,2-0.9,2-2C10,11.9,9.1,11,8,11L8,11z"/>
	</g>
	<path class="st2" d="M4.9,9.7C5.7,9,6.8,8.5,8,8.5c1.2,0,2.3,0.5,3.1,1.2"/>
	<path class="st2" d="M2.8,7.6C4.2,6.3,6,5.5,8,5.5c2,0,3.9,0.8,5.3,2.1"/>
	<path class="st2" d="M0.6,4.2c2-1.7,4.6-2.7,7.4-2.7c2.9,0,5.5,1,7.5,2.8"/>
	<path class="st1" d="M4,7L4,7c0.6,0,1,0.4,1,1v0c0,0.6-0.4,1-1,1h0C3.4,9,3,8.6,3,8v0C3,7.4,3.4,7,4,7z"/>
	<path class="st1" d="M8,7L8,7c0.6,0,1,0.4,1,1v0c0,0.6-0.4,1-1,1h0C7.4,9,7,8.6,7,8v0C7,7.4,7.4,7,8,7z"/>
	<path class="st1" d="M12,7L12,7c0.6,0,1,0.4,1,1v0c0,0.6-0.4,1-1,1h0c-0.6,0-1-0.4-1-1v0C11,7.4,11.4,7,12,7z"/>
</g>
</svg>
