<?xml version="1.0" encoding="utf-8"?>
<!-- Generator: Adobe Illustrator 24.0.0, SVG Export Plug-In . SVG Version: 6.00 Build 0)  -->
<svg version="1.1" id="图层_2_1_" xmlns="http://www.w3.org/2000/svg" xmlns:xlink="http://www.w3.org/1999/xlink" x="0px"
	 y="0px" viewBox="0 0 16 16" style="enable-background:new 0 0 16 16;" xml:space="preserve">
<style type="text/css">
	.st0{opacity:0.75;}
	.st1{fill:#1F2022;}
</style>
<g class="st0">
	<path class="st1" d="M3.5,5.5C3.5,5.2,3.3,5,3,5H1.7C2.8,2.6,5.3,1,8,1c3.1,0,6,2.2,6.7,5.1c0.1,0.2,0.3,0.4,0.5,0.4
		c0,0,0.1,0,0.1,0c0.3-0.1,0.4-0.3,0.4-0.6C14.8,2.5,11.6,0,8,0C5.1,0,2.4,1.7,1,4.2V3c0-0.3-0.2-0.5-0.5-0.5S0,2.7,0,3v3h3
		C3.3,6,3.5,5.8,3.5,5.5z"/>
	<path class="st1" d="M13,10c-0.3,0-0.5,0.2-0.5,0.5S12.7,11,13,11h1.3c-1.2,2.4-3.6,4-6.3,4c-3.2,0-6-2.1-6.7-5.1
		C1.2,9.6,0.9,9.4,0.7,9.5c-0.3,0.1-0.4,0.3-0.4,0.6C1.2,13.6,4.3,16,8,16c3,0,5.6-1.6,7-4.1V13c0,0.3,0.2,0.5,0.5,0.5
		S16,13.3,16,13v-3H13z"/>
</g>
</svg>
