<?xml version="1.0" encoding="utf-8"?>
<!-- Generator: Adobe Illustrator 24.0.0, SVG Export Plug-In . SVG Version: 6.00 Build 0)  -->
<svg version="1.1" id="五角星" xmlns="http://www.w3.org/2000/svg" xmlns:xlink="http://www.w3.org/1999/xlink" x="0px" y="0px"
	 viewBox="0 0 16 16" style="enable-background:new 0 0 16 16;" xml:space="preserve">
<style type="text/css">
	.st0{opacity:0.75;fill:none;stroke:#1F2022;stroke-miterlimit:10;}
</style>
<path id="_16-2" class="st0" d="M7.9,1.3L6.3,6.4L6.2,6.5H1.3c-0.1,0-0.1,0.1-0.1,0.2l3.9,3v0.1L4,14.7c0,0.1,0.1,0.2,0.2,0.1
	L7.9,12H8l3.9,2.8c0.1,0.1,0.2,0,0.2-0.1l-1.1-5V9.6l3.7-3c0.1-0.1,0-0.2-0.1-0.2H10c0,0-0.1,0-0.1-0.1L8.1,1.2
	C8.1,1.2,7.9,1.2,7.9,1.3z"/>
</svg>
