<?xml version="1.0" encoding="utf-8"?>
<!-- Generator: Adobe Illustrator 25.0.0, SVG Export Plug-In . SVG Version: 6.00 Build 0)  -->
<svg version="1.1" id="图层_1" xmlns="http://www.w3.org/2000/svg" xmlns:xlink="http://www.w3.org/1999/xlink" x="0px" y="0px"
	 viewBox="0 0 32 32" style="enable-background:new 0 0 32 32;" xml:space="preserve">
<style type="text/css">
	.st0{opacity:0.75;}
	.st1{fill:#1F2022;}
	.st2{fill:none;stroke:#1F2022;stroke-miterlimit:10;}
</style>
<g id="_32" class="st0">
	<rect x="4" y="2" class="st1" width="23" height="1"/>
	<rect x="4" y="29" class="st1" width="23" height="1"/>
	<path class="st2" d="M7,2.5c-0.6,6.4,0.2,7.9,5,11.3c2.4,1.7,2.1,2.8,0,4.4C5,23.8,6.3,27,7.2,29.5h16.5c1.3-3.5,1.1-5.6-6-12
		c-1.1-1-0.6-2.1,1.5-4.1c5.2-4.6,5-7.9,4.8-10.9H7z"/>
	<polygon class="st1" points="10.4,8 20.4,8 15.4,13 	"/>
	<path class="st1" d="M6.7,29c0-4.2,5.1-5.4,8.8-5.4c3.9,0,8.6,1.2,8.9,5.4"/>
</g>
</svg>
