<?xml version="1.0" encoding="utf-8"?>
<!-- Generator: Adobe Illustrator 24.0.0, SVG Export Plug-In . SVG Version: 6.00 Build 0)  -->
<svg version="1.1" id="图层_1" xmlns="http://www.w3.org/2000/svg" xmlns:xlink="http://www.w3.org/1999/xlink" x="0px" y="0px"
	 viewBox="0 0 16 16" style="enable-background:new 0 0 16 16;" xml:space="preserve">
<style type="text/css">
	.st0{opacity:0.75;fill:#1F2022;}
	.st1{fill:none;stroke:#E40000;stroke-linecap:round;stroke-miterlimit:10;}
</style>
<path class="st0" d="M12.5,1h-9C2.1,1,1,2.1,1,3.5v9C1,13.9,2.1,15,3.5,15H9c0.3,0,0.5-0.2,0.5-0.5S9.3,14,9,14H8v-3h1
	c0.3,0,0.5-0.2,0.5-0.5S9.3,10,9,10H2V3.5C2,2.7,2.7,2,3.5,2h9C13.3,2,14,2.7,14,3.5V8c0,0.3,0.2,0.5,0.5,0.5S15,8.3,15,8V3.5
	C15,2.1,13.9,1,12.5,1z M7,11v3H3.5C2.7,14,2,13.3,2,12.5V11H7z"/>
<g id="图层_4">
	<g id="图层_3_1_">
		<g id="图层_2_2_">
			<line class="st1" x1="10.5" y1="9.5" x2="15.5" y2="14.5"/>
			<line class="st1" x1="15.5" y1="9.5" x2="10.5" y2="14.5"/>
		</g>
	</g>
</g>
</svg>
