<?xml version="1.0" encoding="utf-8"?>
<!-- Generator: Adobe Illustrator 24.0.0, SVG Export Plug-In . SVG Version: 6.00 Build 0)  -->
<svg version="1.1" id="图层_2_1_" xmlns="http://www.w3.org/2000/svg" xmlns:xlink="http://www.w3.org/1999/xlink" x="0px"
	 y="0px" viewBox="0 0 16 16" style="enable-background:new 0 0 16 16;" xml:space="preserve">
<style type="text/css">
	.st0{opacity:0.75;fill:#1F2022;}
	.st1{fill:#E40000;}
</style>
<path class="st0" d="M13.7,4.4C13.2,2.4,11.5,1,9.5,1C7.9,1,6.4,1.9,5.6,3.4C5.1,3.1,4.5,3,3.9,3C1.7,3,0,4.9,0,7.2
	c0,2.3,1.7,4.2,3.9,4.2c0.3,0,0.5-0.2,0.5-0.5s-0.2-0.5-0.5-0.5C2.3,10.4,1,9,1,7.2S2.3,4,3.9,4C4.5,4,5,4.1,5.3,4.4
	c0.1,0.1,0.1,0.2,0.3,0.3c0.3,0.1,0.5,0,0.6-0.3C6.8,2.9,8.1,2,9.5,2c1.5,0,2.8,1.1,3.2,2.6c0,0.1,0,0.3,0.1,0.4
	c0.1,0.2,0.3,0.4,0.5,0.4c0,0,0,0,0.1,0c0,0,0.1,0,0.1,0C14.4,5.8,15,6.8,15,7.9c0,1.5-1.2,2.8-2.5,2.8c-0.3,0-0.5,0.2-0.5,0.5
	s0.2,0.5,0.5,0.5c1.9,0,3.5-1.7,3.5-3.8C16,6.3,15.1,4.9,13.7,4.4z"/>
<g id="_16-3">
	<path class="st1" d="M9,7L9,7c0.6,0,1,0.4,1,1v3c0,0.6-0.4,1-1,1l0,0c-0.6,0-1-0.4-1-1V8C8,7.4,8.4,7,9,7z"/>
	<path class="st1" d="M9,13L9,13c0.6,0,1,0.4,1,1l0,0c0,0.6-0.4,1-1,1l0,0c-0.6,0-1-0.4-1-1l0,0C8,13.4,8.4,13,9,13z"/>
</g>
</svg>
