<?xml version="1.0" encoding="utf-8"?>
<!-- Generator: Adobe Illustrator 21.0.0, SVG Export Plug-In . SVG Version: 6.00 Build 0)  -->
<svg version="1.1" id="图层_1" xmlns="http://www.w3.org/2000/svg" xmlns:xlink="http://www.w3.org/1999/xlink" x="0px" y="0px"
	 viewBox="0 0 96 96" style="enable-background:new 0 0 96 96;" xml:space="preserve">
<style type="text/css">
	.st0{opacity:0.2;}
	.st1{opacity:8.000000e-02;}
	.st2{opacity:0.1;}
	.st3{fill:url(#SVGID_1_);}
	.st4{fill:url(#SVGID_2_);}
	.st5{fill:#FFF3B6;}
	.st6{fill:url(#SVGID_3_);}
</style>
<title>画板 1</title>
<g id="底板_复制">
	<g id="深灰色">
		<g id="_128">
			<g class="st0">
				<path d="M47.5,92c-14.9,0-28-3.9-34.3-10.2S3,62.4,3,47.5s3.9-28,10.2-34.3S32.6,3,47.5,3s28,3.9,34.3,10.2S92,32.6,92,47.5
					s-3.9,28-10.2,34.3S62.4,92,47.5,92z"/>
			</g>
			<g class="st1">
				<path d="M49,95c-15.3,0-28.8-4.1-35.4-10.6S3,64.3,3,49s4.1-28.8,10.6-35.4S33.7,3,49,3s28.8,4.1,35.4,10.6S95,33.7,95,49
					s-4.1,28.8-10.6,35.4S64.3,95,49,95z"/>
			</g>
			<g class="st2">
				<path d="M49,93.5c-14.9,0-28-3.9-34.3-10.2S4.5,63.9,4.5,49s3.9-28,10.2-34.3S34.1,4.5,49,4.5s28,3.9,34.3,10.2
					S93.5,34.1,93.5,49s-3.9,28-10.2,34.3S63.9,93.5,49,93.5z"/>
			</g>
			<g id="_128-2">
				
					<linearGradient id="SVGID_1_" gradientUnits="userSpaceOnUse" x1="47.4912" y1="4184.4902" x2="47.4912" y2="4098.5186" gradientTransform="matrix(1 0 0 1 0 -4094.0002)">
					<stop  offset="0" style="stop-color:#000000"/>
					<stop  offset="1" style="stop-color:#34484F"/>
				</linearGradient>
				<path class="st3" d="M80.7,80.7c-13,13-53.5,13-66.5,0s-13-53.5,0-66.5s53.5-13,66.5,0S93.7,67.7,80.7,80.7z"/>
			</g>
			
				<linearGradient id="SVGID_2_" gradientUnits="userSpaceOnUse" x1="47.485" y1="4181.46" x2="47.485" y2="4101.52" gradientTransform="matrix(1 0 0 1 0 -4094.0002)">
				<stop  offset="0" style="stop-color:#0A1317"/>
				<stop  offset="1" style="stop-color:#425B63"/>
			</linearGradient>
			<path class="st4" d="M47.5,87.5c-13.7,0-25.6-3.4-31.1-8.8S7.5,61.2,7.5,47.5s3.4-25.6,8.9-31.1s17.4-8.9,31.1-8.9
				s25.6,3.4,31.1,8.9s8.8,17.4,8.8,31.1s-3.4,25.6-8.8,31.1S61.2,87.5,47.5,87.5z"/>
		</g>
	</g>
</g>
<path class="st5" d="M48,19c-14.9,0-27,12.1-27,27s12.1,27,27,27s27-12.1,27-27S62.9,19,48,19z M38,34c2.8,0,5,2.2,5,5s-2.2,5-5,5
	s-5-2.2-5-5S35.2,34,38,34z M48.6,66c-7.7,0-14.5-4.7-14.5-8.6c0-1.9,6.2,1.6,13.9,1.6s13.9-3.4,13.9-1.6C61.9,61.3,56.3,66,48.6,66
	z M59,44c-2.8,0-5-2.2-5-5s2.2-5,5-5s5,2.2,5,5S61.8,44,59,44z"/>
<linearGradient id="SVGID_3_" gradientUnits="userSpaceOnUse" x1="48" y1="73.1667" x2="48" y2="19.6343">
	<stop  offset="0" style="stop-color:#F9BC00"/>
	<stop  offset="1" style="stop-color:#FBE05C"/>
</linearGradient>
<path class="st6" d="M48,20c-14.9,0-27,12.1-27,27s12.1,27,27,27s27-12.1,27-27S62.9,20,48,20z M38,35c2.8,0,5,2.2,5,5s-2.2,5-5,5
	s-5-2.2-5-5S35.2,35,38,35z M48.6,67c-7.7,0-14.5-4.7-14.5-8.6c0-1.9,6.2,1.6,13.9,1.6s13.9-3.4,13.9-1.6C61.9,62.3,56.3,67,48.6,67
	z M59,45c-2.8,0-5-2.2-5-5s2.2-5,5-5s5,2.2,5,5S61.8,45,59,45z"/>
</svg>
