<?xml version="1.0" encoding="utf-8"?>
<!-- Generator: Adobe Illustrator 21.0.0, SVG Export Plug-In . SVG Version: 6.00 Build 0)  -->
<svg version="1.1" id="图层_1" xmlns="http://www.w3.org/2000/svg" xmlns:xlink="http://www.w3.org/1999/xlink" x="0px" y="0px"
	 viewBox="0 0 256 256" style="enable-background:new 0 0 256 256;" xml:space="preserve">
<style type="text/css">
	.st0{opacity:0.08;enable-background:new    ;}
	.st1{opacity:0.1;enable-background:new    ;}
	.st2{opacity:0.2;enable-background:new    ;}
	.st3{fill:#0D47A1;}
	.st4{fill:url(#SVGID_1_);}
	.st5{fill:#2196F3;fill-opacity:0.7;}
	.st6{opacity:0.39;fill:#FFFFFF;enable-background:new    ;}
	.st7{opacity:0.8;}
	.st8{opacity:0.8;fill:url(#SVGID_2_);enable-background:new    ;}
	.st9{opacity:0.8;fill:url(#SVGID_3_);enable-background:new    ;}
	.st10{opacity:0.8;fill:url(#SVGID_4_);enable-background:new    ;}
	.st11{fill:url(#SVGID_5_);}
	.st12{fill:url(#SVGID_6_);}
	.st13{fill:url(#SVGID_7_);}
	.st14{fill:url(#SVGID_8_);}
	.st15{opacity:0.8;fill:#FFFFFF;enable-background:new    ;}
	.st16{fill:#1976D2;}
	.st17{fill:url(#SVGID_9_);}
	.st18{opacity:0.8;fill:url(#SVGID_10_);enable-background:new    ;}
	.st19{opacity:0.8;fill:url(#SVGID_11_);enable-background:new    ;}
	.st20{opacity:0.8;fill:url(#SVGID_12_);enable-background:new    ;}
	.st21{fill:url(#SVGID_13_);}
	.st22{fill:url(#SVGID_14_);}
	.st23{fill:url(#SVGID_15_);}
	.st24{fill:url(#SVGID_16_);}
</style>
<polygon class="st0" points="34.1,256 34.1,4 225.9,4 225.9,185 154.9,256 "/>
<polygon class="st1" points="36.1,254 36.1,6 223.9,6 223.9,184.2 154,254 "/>
<polygon class="st2" points="34.1,252 34.1,4 221.9,4 221.9,182.2 152,252 "/>
<polygon class="st3" points="36.1,250 36.1,6 219.9,6 219.9,181.3 151.2,250 "/>
<g>
	<g>
		<g>
			<g>
				
					<linearGradient id="SVGID_1_" gradientUnits="userSpaceOnUse" x1="128" y1="669.5" x2="128" y2="654.5" gradientTransform="matrix(1 0 0 1 0 -534)">
					<stop  offset="0" style="stop-color:#3F51B5"/>
					<stop  offset="1" style="stop-color:#64B5F6"/>
				</linearGradient>
				<polygon class="st4" points="122.4,135.5 122.4,120.5 133.6,120.5 133.6,131.3 129.4,135.5 				"/>
			</g>
			<polygon class="st5" points="133.6,131.3 133.6,131.1 129.2,131.1 129.2,135.5 129.4,135.5 			"/>
			<path class="st6" d="M129.4,131.3h4.2l-4.2,4.2V131.3z"/>
		</g>
		<g class="st7">
			
				<linearGradient id="SVGID_2_" gradientUnits="userSpaceOnUse" x1="124.047" y1="659.6" x2="131.947" y2="659.6" gradientTransform="matrix(1 0 0 1 0 -534)">
				<stop  offset="0" style="stop-color:#F6F5F5"/>
				<stop  offset="0.341" style="stop-color:#F1F2F3"/>
				<stop  offset="0.6434" style="stop-color:#E7EAEB"/>
				<stop  offset="0.9302" style="stop-color:#D5DBDF"/>
				<stop  offset="1" style="stop-color:#CFD7DB"/>
			</linearGradient>
			<rect x="124" y="125.4" class="st8" width="7.9" height="0.4"/>
			
				<linearGradient id="SVGID_3_" gradientUnits="userSpaceOnUse" x1="124.047" y1="658.4" x2="131.947" y2="658.4" gradientTransform="matrix(1 0 0 1 0 -534)">
				<stop  offset="0" style="stop-color:#F6F5F5"/>
				<stop  offset="0.341" style="stop-color:#F1F2F3"/>
				<stop  offset="0.6434" style="stop-color:#E7EAEB"/>
				<stop  offset="0.9302" style="stop-color:#D5DBDF"/>
				<stop  offset="1" style="stop-color:#CFD7DB"/>
			</linearGradient>
			<rect x="124" y="124.2" class="st9" width="7.9" height="0.4"/>
			
				<linearGradient id="SVGID_4_" gradientUnits="userSpaceOnUse" x1="127.816" y1="662.65" x2="131.941" y2="662.65" gradientTransform="matrix(1 0 0 1 0 -534)">
				<stop  offset="0" style="stop-color:#F6F5F5"/>
				<stop  offset="0.341" style="stop-color:#F1F2F3"/>
				<stop  offset="0.6434" style="stop-color:#E7EAEB"/>
				<stop  offset="0.9302" style="stop-color:#D5DBDF"/>
				<stop  offset="1" style="stop-color:#CFD7DB"/>
			</linearGradient>
			<rect x="127.8" y="126.6" class="st10" width="4.1" height="4.1"/>
			<g class="st7">
				
					<linearGradient id="SVGID_5_" gradientUnits="userSpaceOnUse" x1="124.047" y1="660.8" x2="127.479" y2="660.8" gradientTransform="matrix(1 0 0 1 0 -534)">
					<stop  offset="0" style="stop-color:#F6F5F5"/>
					<stop  offset="0.341" style="stop-color:#F1F2F3"/>
					<stop  offset="0.6434" style="stop-color:#E7EAEB"/>
					<stop  offset="0.9302" style="stop-color:#D5DBDF"/>
					<stop  offset="1" style="stop-color:#CFD7DB"/>
				</linearGradient>
				<rect x="124" y="126.6" class="st11" width="3.4" height="0.4"/>
				
					<linearGradient id="SVGID_6_" gradientUnits="userSpaceOnUse" x1="124.047" y1="662.1" x2="127.479" y2="662.1" gradientTransform="matrix(1 0 0 1 0 -534)">
					<stop  offset="0" style="stop-color:#F6F5F5"/>
					<stop  offset="0.341" style="stop-color:#F1F2F3"/>
					<stop  offset="0.6434" style="stop-color:#E7EAEB"/>
					<stop  offset="0.9302" style="stop-color:#D5DBDF"/>
					<stop  offset="1" style="stop-color:#CFD7DB"/>
				</linearGradient>
				<rect x="124" y="127.9" class="st12" width="3.4" height="0.4"/>
				
					<linearGradient id="SVGID_7_" gradientUnits="userSpaceOnUse" x1="124.047" y1="663.3" x2="127.479" y2="663.3" gradientTransform="matrix(1 0 0 1 0 -534)">
					<stop  offset="0" style="stop-color:#F6F5F5"/>
					<stop  offset="0.341" style="stop-color:#F1F2F3"/>
					<stop  offset="0.6434" style="stop-color:#E7EAEB"/>
					<stop  offset="0.9302" style="stop-color:#D5DBDF"/>
					<stop  offset="1" style="stop-color:#CFD7DB"/>
				</linearGradient>
				<rect x="124" y="129.1" class="st13" width="3.4" height="0.4"/>
				
					<linearGradient id="SVGID_8_" gradientUnits="userSpaceOnUse" x1="124.047" y1="664.5" x2="127.479" y2="664.5" gradientTransform="matrix(1 0 0 1 0 -534)">
					<stop  offset="0" style="stop-color:#F6F5F5"/>
					<stop  offset="0.341" style="stop-color:#F1F2F3"/>
					<stop  offset="0.6434" style="stop-color:#E7EAEB"/>
					<stop  offset="0.9302" style="stop-color:#D5DBDF"/>
					<stop  offset="1" style="stop-color:#CFD7DB"/>
				</linearGradient>
				<rect x="124" y="130.3" class="st14" width="3.4" height="0.4"/>
			</g>
		</g>
	</g>
	<g>
		<rect x="122.4" y="120.5" class="st15" width="11.2" height="2.9"/>
		<g>
			<path class="st16" d="M127.1,121.9c0,0.2,0,0.4-0.1,0.5s-0.1,0.3-0.2,0.4s-0.2,0.2-0.4,0.2c-0.1,0.1-0.3,0.1-0.5,0.1
				s-0.3,0-0.5-0.1c-0.1,0-0.3-0.1-0.4-0.2s-0.2-0.2-0.3-0.4c-0.1-0.1-0.1-0.3-0.1-0.5s0-0.4,0.1-0.5s0.1-0.3,0.3-0.4
				c0.1-0.1,0.2-0.2,0.4-0.2c0.1-0.1,0.3-0.1,0.4-0.1c0.2,0,0.3,0,0.5,0.1c0.1,0,0.3,0.1,0.4,0.2s0.2,0.2,0.3,0.4
				C127.1,121.6,127.1,121.7,127.1,121.9z M125.3,121.9c0,0.1,0,0.2,0,0.3s0.1,0.2,0.1,0.2c0.1,0.1,0.1,0.1,0.2,0.1s0.2,0.1,0.3,0.1
				c0.1,0,0.2,0,0.3-0.1c0.1,0,0.1-0.1,0.2-0.1c0.1-0.1,0.1-0.1,0.1-0.2s0-0.2,0-0.3s0-0.2,0-0.3s-0.1-0.2-0.1-0.2
				c-0.1-0.1-0.1-0.1-0.2-0.1s-0.2-0.1-0.3-0.1c-0.1,0-0.2,0-0.3,0.1s-0.1,0.1-0.2,0.1c-0.1,0.1-0.1,0.1-0.1,0.2
				S125.3,121.8,125.3,121.9z"/>
			<path class="st16" d="M129.5,121.9c0,0.2,0,0.4-0.1,0.5s-0.2,0.3-0.3,0.4s-0.3,0.2-0.4,0.2s-0.4,0.1-0.6,0.1c-0.1,0-0.2,0-0.3,0
				c-0.1,0-0.3,0-0.4,0v-2.2c0.1,0,0.3,0,0.4,0s0.2,0,0.3,0c0.2,0,0.4,0,0.6,0.1c0.2,0,0.3,0.1,0.4,0.2s0.2,0.2,0.3,0.4
				C129.5,121.6,129.5,121.7,129.5,121.9z M128,122.6C128,122.6,128.1,122.7,128,122.6c0.1,0,0.2,0,0.2,0c0.3,0,0.5-0.1,0.6-0.2
				s0.2-0.3,0.2-0.5s-0.1-0.4-0.2-0.5s-0.3-0.2-0.6-0.2h-0.1H128L128,122.6L128,122.6z"/>
			<path class="st16" d="M131.6,120.8v0.4h-0.7v1.8h-0.5v-1.8h-0.7v-0.4H131.6z"/>
		</g>
	</g>
</g>
<g>
	<g>
		<g>
			<g>
				
					<linearGradient id="SVGID_9_" gradientUnits="userSpaceOnUse" x1="128.1" y1="782" x2="128.1" y2="542" gradientTransform="matrix(1 0 0 1 0 -534)">
					<stop  offset="0" style="stop-color:#3F51B5"/>
					<stop  offset="1" style="stop-color:#64B5F6"/>
				</linearGradient>
				<polygon class="st17" points="38.2,248 38.2,8 218,8 218,180.5 150.5,248 				"/>
			</g>
			<polygon class="st5" points="218,180.5 218,177.6 146.8,177.6 146.8,248 150.5,248 			"/>
			<path class="st6" d="M150.4,180.5l67.6,0.1L150.5,248L150.4,180.5z"/>
		</g>
		<g class="st7">
			
				<linearGradient id="SVGID_10_" gradientUnits="userSpaceOnUse" x1="64.8" y1="623.85" x2="191.2" y2="623.85" gradientTransform="matrix(1 0 0 1 0 -534)">
				<stop  offset="0" style="stop-color:#F6F5F5"/>
				<stop  offset="0.341" style="stop-color:#F1F2F3"/>
				<stop  offset="0.6434" style="stop-color:#E7EAEB"/>
				<stop  offset="0.9302" style="stop-color:#D5DBDF"/>
				<stop  offset="1" style="stop-color:#CFD7DB"/>
			</linearGradient>
			<rect x="64.8" y="86.7" class="st18" width="126.4" height="6.3"/>
			
				<linearGradient id="SVGID_11_" gradientUnits="userSpaceOnUse" x1="64.8" y1="604.35" x2="191.2" y2="604.35" gradientTransform="matrix(1 0 0 1 0 -534)">
				<stop  offset="0" style="stop-color:#F6F5F5"/>
				<stop  offset="0.341" style="stop-color:#F1F2F3"/>
				<stop  offset="0.6434" style="stop-color:#E7EAEB"/>
				<stop  offset="0.9302" style="stop-color:#D5DBDF"/>
				<stop  offset="1" style="stop-color:#CFD7DB"/>
			</linearGradient>
			<rect x="64.8" y="67.2" class="st19" width="126.4" height="6.3"/>
			
				<linearGradient id="SVGID_12_" gradientUnits="userSpaceOnUse" x1="125.1" y1="672.1" x2="191.1" y2="672.1" gradientTransform="matrix(1 0 0 1 0 -534)">
				<stop  offset="0" style="stop-color:#F6F5F5"/>
				<stop  offset="0.341" style="stop-color:#F1F2F3"/>
				<stop  offset="0.6434" style="stop-color:#E7EAEB"/>
				<stop  offset="0.9302" style="stop-color:#D5DBDF"/>
				<stop  offset="1" style="stop-color:#CFD7DB"/>
			</linearGradient>
			<rect x="125.1" y="105.1" class="st20" width="66" height="66"/>
			<g class="st7">
				
					<linearGradient id="SVGID_13_" gradientUnits="userSpaceOnUse" x1="64.8" y1="643.45" x2="119.7" y2="643.45" gradientTransform="matrix(1 0 0 1 0 -534)">
					<stop  offset="0" style="stop-color:#F6F5F5"/>
					<stop  offset="0.341" style="stop-color:#F1F2F3"/>
					<stop  offset="0.6434" style="stop-color:#E7EAEB"/>
					<stop  offset="0.9302" style="stop-color:#D5DBDF"/>
					<stop  offset="1" style="stop-color:#CFD7DB"/>
				</linearGradient>
				<rect x="64.8" y="106.3" class="st21" width="54.9" height="6.3"/>
				
					<linearGradient id="SVGID_14_" gradientUnits="userSpaceOnUse" x1="64.8" y1="662.9" x2="119.7" y2="662.9" gradientTransform="matrix(1 0 0 1 0 -534)">
					<stop  offset="0" style="stop-color:#F6F5F5"/>
					<stop  offset="0.341" style="stop-color:#F1F2F3"/>
					<stop  offset="0.6434" style="stop-color:#E7EAEB"/>
					<stop  offset="0.9302" style="stop-color:#D5DBDF"/>
					<stop  offset="1" style="stop-color:#CFD7DB"/>
				</linearGradient>
				<rect x="64.8" y="125.8" class="st22" width="54.9" height="6.2"/>
				
					<linearGradient id="SVGID_15_" gradientUnits="userSpaceOnUse" x1="64.8" y1="682.55" x2="119.7" y2="682.55" gradientTransform="matrix(1 0 0 1 0 -534)">
					<stop  offset="0" style="stop-color:#F6F5F5"/>
					<stop  offset="0.341" style="stop-color:#F1F2F3"/>
					<stop  offset="0.6434" style="stop-color:#E7EAEB"/>
					<stop  offset="0.9302" style="stop-color:#D5DBDF"/>
					<stop  offset="1" style="stop-color:#CFD7DB"/>
				</linearGradient>
				<rect x="64.8" y="145.4" class="st23" width="54.9" height="6.3"/>
				
					<linearGradient id="SVGID_16_" gradientUnits="userSpaceOnUse" x1="64.8" y1="702.15" x2="119.7" y2="702.15" gradientTransform="matrix(1 0 0 1 0 -534)">
					<stop  offset="0" style="stop-color:#F6F5F5"/>
					<stop  offset="0.341" style="stop-color:#F1F2F3"/>
					<stop  offset="0.6434" style="stop-color:#E7EAEB"/>
					<stop  offset="0.9302" style="stop-color:#D5DBDF"/>
					<stop  offset="1" style="stop-color:#CFD7DB"/>
				</linearGradient>
				<rect x="64.8" y="165" class="st24" width="54.9" height="6.3"/>
			</g>
		</g>
	</g>
	<g>
		<rect x="38" y="8" class="st15" width="179.9" height="46"/>
		<g>
			<path class="st16" d="M113.6,31c0,3.1-0.5,5.8-1.4,8.1s-2.3,4.3-3.9,5.8c-1.7,1.6-3.7,2.8-6,3.5c-2.3,0.8-4.8,1.2-7.4,1.2
				s-5-0.4-7.3-1.2s-4.3-2-6-3.5c-1.7-1.6-3-3.5-4-5.8s-1.5-5-1.5-8.1s0.5-5.8,1.5-8.1s2.4-4.3,4.1-5.9s3.7-2.8,6-3.6
				s4.6-1.2,7.2-1.2s5,0.4,7.3,1.2s4.3,2,6,3.6s3,3.5,4,5.9C113.1,25.2,113.6,27.9,113.6,31z M84.8,31c0,1.8,0.2,3.4,0.7,4.8
				s1.1,2.6,2,3.6s1.9,1.8,3.1,2.4c1.2,0.5,2.7,0.8,4.3,0.8c1.6,0,3-0.3,4.2-0.8c1.3-0.6,2.3-1.3,3.2-2.4c0.9-1,1.5-2.2,2-3.6
				s0.7-3,0.7-4.8s-0.2-3.4-0.7-4.8s-1.1-2.7-2-3.7s-1.9-1.8-3.2-2.4c-1.3-0.5-2.7-0.8-4.2-0.8c-1.6,0-3,0.3-4.3,0.9
				s-2.3,1.4-3.1,2.4c-0.9,1-1.5,2.2-2,3.7C85,27.7,84.8,29.3,84.8,31z"/>
			<path class="st16" d="M152.6,31c0,3.1-0.5,5.8-1.5,8.1s-2.5,4.2-4.3,5.7c-1.9,1.5-4.2,2.7-6.8,3.4s-5.7,1.1-9,1.1
				c-1.5,0-3.3-0.1-5.3-0.2c-2-0.1-4-0.4-6-0.8V13.5c2-0.3,4-0.6,6.1-0.7c2.1-0.1,3.9-0.2,5.5-0.2c3.2,0,6.2,0.3,8.8,1
				s4.9,1.8,6.8,3.3s3.3,3.4,4.4,5.7C152.1,25,152.6,27.7,152.6,31z M128.1,42.4c0.4,0,0.9,0.1,1.4,0.1s1.1,0,1.9,0
				c4.3,0,7.4-1,9.4-3c2.1-2,3.1-4.9,3.1-8.4c0-3.8-1-6.6-2.9-8.5s-5.1-2.9-9.3-2.9c-0.6,0-1.2,0-1.8,0s-1.2,0.1-1.7,0.1L128.1,42.4
				L128.1,42.4z"/>
			<path class="st16" d="M185.4,13.1V20H174v29h-8.5V20h-11.4v-6.9H185.4z"/>
		</g>
	</g>
</g>
</svg>
