<?xml version="1.0" encoding="utf-8"?>
<!-- Generator: Adobe Illustrator 16.0.0, SVG Export Plug-In . SVG Version: 6.00 Build 0)  -->
<!DOCTYPE svg PUBLIC "-//W3C//DTD SVG 1.1//EN" "http://www.w3.org/Graphics/SVG/1.1/DTD/svg11.dtd">
<svg version="1.1" id="图层_1" xmlns="http://www.w3.org/2000/svg" xmlns:xlink="http://www.w3.org/1999/xlink" x="0px" y="0px"
	 width="256px" height="256px" viewBox="0 0 256 256" enable-background="new 0 0 256 256" xml:space="preserve">
<polygon opacity="0.08" enable-background="new    " points="34.1,256 34.1,4 225.9,4 225.9,185 154.9,256 "/>
<polygon opacity="0.1" enable-background="new    " points="36.1,254 36.1,6 223.9,6 223.9,184.2 154,254 "/>
<polygon opacity="0.2" enable-background="new    " points="34.1,252 34.1,4 221.9,4 221.9,182.2 152,252 "/>
<polygon fill="#3E2723" points="36.1,250 36.1,6 219.9,6 219.9,181.3 151.2,250 "/>
<g>
	<g>
		
			<linearGradient id="SVGID_1_" gradientUnits="userSpaceOnUse" x1="169.6074" y1="84.0996" x2="169.6074" y2="-155.9009" gradientTransform="matrix(1 0 0 -1 -41.6001 92.0996)">
			<stop  offset="0" style="stop-color:#785548"/>
			<stop  offset="1" style="stop-color:#9F9E9F"/>
		</linearGradient>
		<polygon fill="url(#SVGID_1_)" points="38.102,248 38.102,8 217.914,8 217.914,180.406 151.07,248 		"/>
		<polygon fill="#795548" fill-opacity="0.7" points="217.914,180.5 217.914,177.594 146.727,177.594 146.727,248 150.414,248 		"/>
		<path opacity="0.39" fill="#FFFFFF" enable-background="new    " d="M150.32,180.5l67.594,0.094L150.414,248L150.32,180.5z"/>
	</g>
	<path fill="#FFFFFF" d="M102.352,54.266h-6.094v77.938h-4.594V54.266h-6.063v77.938h-4.594V54.266h-6.063v77.938h-4.594V54.266
		h-6.063v77.938h-1.594v33.016h41.719v-33.016h-2.063V54.266z M98.352,155.625H68.758v-19.141h29.594V155.625z"/>
	<g>
		<rect x="38.055" y="8" opacity="0.8" fill="#FFFFFF" enable-background="new    " width="179.891" height="46"/>
		<g enable-background="new    ">
			<path fill="#5D4037" d="M79.148,42v6.93H53.945V13.078h8.484V42H79.148z"/>
			<path fill="#5D4037" d="M112.195,18.664c-1.172,1.141-2.547,2.617-4.141,4.43c-1.594,1.805-3.25,3.781-4.969,5.922
				c-1.688,2.133-3.375,4.344-5.063,6.617c-1.656,2.281-3.156,4.453-4.469,6.523h19.25v6.773H83.117v-4.813
				c1.016-1.758,2.25-3.711,3.719-5.867c1.484-2.156,3.016-4.328,4.609-6.523c1.609-2.188,3.234-4.305,4.875-6.359
				c1.656-2.055,3.188-3.891,4.609-5.508H83.992v-6.781h28.203V18.664z"/>
			<path fill="#5D4037" d="M128.805,13.078c0.656,1.141,1.406,2.547,2.266,4.219s1.75,3.484,2.672,5.43
				c0.938,1.953,1.844,3.945,2.75,5.977c0.922,2.031,1.781,3.945,2.578,5.742c0.797-1.797,1.656-3.711,2.563-5.742
				c0.922-2.031,1.828-4.023,2.766-5.977c0.922-1.945,1.813-3.758,2.672-5.43s1.609-3.078,2.266-4.219h7.719
				c0.375,2.383,0.719,5.047,1.016,7.992c0.313,2.953,0.578,6.023,0.828,9.211c0.219,3.188,0.438,6.391,0.656,9.594
				c0.188,3.211,0.359,6.227,0.5,9.055h-8.281c-0.094-3.484-0.25-7.273-0.422-11.383c-0.188-4.102-0.453-8.242-0.828-12.414
				c-0.656,1.445-1.375,3.055-2.188,4.813c-0.781,1.758-1.594,3.516-2.375,5.273s-1.531,3.445-2.25,5.047
				c-0.734,1.602-1.344,2.977-1.875,4.109h-5.922c-0.516-1.133-1.141-2.508-1.859-4.109s-1.484-3.289-2.266-5.047
				c-0.797-1.758-1.578-3.516-2.375-5.273s-1.531-3.367-2.188-4.813c-0.359,4.172-0.641,8.313-0.828,12.414
				c-0.172,4.109-0.313,7.898-0.422,11.383h-8.281c0.141-2.828,0.328-5.844,0.516-9.055c0.203-3.203,0.422-6.406,0.656-9.594
				s0.5-6.258,0.813-9.211c0.313-2.945,0.656-5.609,1.016-7.992H128.805z"/>
			<path fill="#5D4037" d="M192.945,48.93c-0.422-1.242-0.859-2.523-1.359-3.836c-0.469-1.313-0.969-2.625-1.438-3.922h-14.75
				c-0.469,1.305-0.938,2.617-1.422,3.93s-0.922,2.594-1.328,3.828h-8.828c1.422-3.859,2.766-7.43,4.047-10.711
				c1.266-3.273,2.516-6.359,3.734-9.258s2.422-5.648,3.609-8.25s2.406-5.148,3.688-7.633h8.047
				c1.234,2.484,2.453,5.031,3.672,7.633c1.188,2.602,2.406,5.352,3.625,8.25s2.469,5.984,3.75,9.258
				c1.281,3.281,2.625,6.852,4.063,10.711H192.945z M182.742,21.203c-0.188,0.516-0.469,1.227-0.844,2.125
				c-0.344,0.898-0.781,1.93-1.234,3.102c-0.469,1.18-0.984,2.469-1.563,3.883s-1.172,2.891-1.766,4.445h10.797
				c-0.578-1.555-1.141-3.039-1.672-4.461c-0.547-1.414-1.063-2.711-1.547-3.883c-0.484-1.18-0.922-2.211-1.281-3.109
				C183.273,22.414,182.961,21.711,182.742,21.203z"/>
		</g>
	</g>
</g>
</svg>
