<?xml version="1.0" encoding="utf-8"?>
<!-- Generator: Adobe Illustrator 16.0.0, SVG Export Plug-In . SVG Version: 6.00 Build 0)  -->
<!DOCTYPE svg PUBLIC "-//W3C//DTD SVG 1.1//EN" "http://www.w3.org/Graphics/SVG/1.1/DTD/svg11.dtd">
<svg version="1.1" id="图层_1" xmlns="http://www.w3.org/2000/svg" xmlns:xlink="http://www.w3.org/1999/xlink" x="0px" y="0px"
	 width="256px" height="256px" viewBox="0 0 256 256" enable-background="new 0 0 256 256" xml:space="preserve">
<polygon opacity="0.08" enable-background="new    " points="34.1,256 34.1,4 225.9,4 225.9,185 154.9,256 "/>
<polygon opacity="0.1" enable-background="new    " points="36.1,254 36.1,6 223.9,6 223.9,184.2 154,254 "/>
<polygon opacity="0.2" enable-background="new    " points="34.1,252 34.1,4 221.9,4 221.9,182.2 152,252 "/>
<polygon fill="#1B5E20" points="36.1,250 36.1,6 219.9,6 219.9,181.3 151.2,250 "/>
<g>
	<g>
		<g>
			<g>
				<g>
					
						<linearGradient id="SVGID_1_" gradientUnits="userSpaceOnUse" x1="211.1855" y1="-574.8003" x2="211.1855" y2="-334.8008" gradientTransform="matrix(1 0 0 -1 -83.2002 -326.8008)">
						<stop  offset="0" style="stop-color:#388E3C"/>
						<stop  offset="0.0757" style="stop-color:#43953E"/>
						<stop  offset="0.3246" style="stop-color:#62A943"/>
						<stop  offset="0.5665" style="stop-color:#79B747"/>
						<stop  offset="0.796" style="stop-color:#86C049"/>
						<stop  offset="1" style="stop-color:#8BC34A"/>
					</linearGradient>
					<polygon fill="url(#SVGID_1_)" points="38.078,248 38.078,8 217.891,8 217.891,180.5 150.391,248 					"/>
				</g>
				<polygon fill="#1B5E20" fill-opacity="0.39" points="217.891,180.5 217.891,177.594 146.688,177.594 146.688,248 150.391,248 
									"/>
				<path fill="#FFFFFF" fill-opacity="0.3922" d="M150.297,180.5l67.609,0.094L150.391,248L150.297,180.5z"/>
			</g>
			<path opacity="0.8" fill="#FFFFFF" enable-background="new    " d="M132.438,61v-0.203h-8.891V61H66.188v111.797h123.594V61
				H132.438z M75.078,94.195h27.594v17.859H75.078V94.195z M75.078,120.953h27.594v17.844H75.078V120.953z M111.859,120.953h69.031
				v17.844h-69.031V120.953z M111.859,112.055V94.195h69.031v17.859H111.859z M180.891,69.977v15.352h-69.031V69.977H180.891z
				 M102.672,69.977v15.352H75.078V69.977H102.672z M75.078,147.781h27.594v16.047H75.078V147.781z M111.859,163.828v-16.047h69.031
				v16.047H111.859z"/>
		</g>
	</g>
	<g>
		<g>
			<rect x="38.047" y="8" opacity="0.8" fill="#FFFFFF" enable-background="new    " width="179.906" height="46"/>
		</g>
		<g enable-background="new    ">
			<path fill="#38883B" d="M110.609,30.711c0,3.07-0.5,5.773-1.469,8.102c-0.938,2.328-2.281,4.281-3.938,5.844
				s-3.656,2.75-5.969,3.531c-2.313,0.813-4.781,1.203-7.438,1.203c-2.563,0-5-0.391-7.281-1.203c-2.281-0.781-4.281-1.969-6-3.531
				c-1.688-1.563-3.031-3.516-4.031-5.844c-0.969-2.328-1.469-5.031-1.469-8.102s0.531-5.766,1.531-8.094
				c1.031-2.328,2.375-4.281,4.125-5.875c1.719-1.586,3.719-2.773,5.969-3.563c2.281-0.797,4.656-1.195,7.156-1.195
				c2.594,0,5.031,0.398,7.313,1.195c2.281,0.789,4.281,1.977,6,3.563c1.688,1.594,3.031,3.547,4.031,5.875
				C110.109,24.945,110.609,27.641,110.609,30.711z M81.797,30.711c0,1.758,0.219,3.352,0.688,4.758
				c0.438,1.422,1.094,2.633,1.938,3.648c0.875,1.023,1.906,1.805,3.125,2.352c1.25,0.563,2.656,0.844,4.25,0.844
				c1.563,0,2.969-0.281,4.219-0.844c1.281-0.547,2.313-1.328,3.188-2.352c0.844-1.016,1.5-2.227,1.938-3.648
				c0.469-1.406,0.688-3,0.688-4.758s-0.219-3.352-0.688-4.781c-0.438-1.43-1.094-2.656-1.938-3.672
				c-0.875-1.016-1.906-1.805-3.188-2.359c-1.25-0.547-2.656-0.828-4.219-0.828c-1.594,0-3,0.289-4.25,0.859
				c-1.219,0.57-2.25,1.359-3.125,2.375c-0.844,1.023-1.5,2.242-1.938,3.672C82.016,27.414,81.797,28.992,81.797,30.711z"/>
			<path fill="#38883B" d="M150.734,30.711c0,3.109-0.531,5.813-1.531,8.125c-1.031,2.32-2.469,4.227-4.344,5.742
				c-1.844,1.516-4.125,2.656-6.813,3.422c-2.688,0.75-5.719,1.125-9.063,1.125c-1.5,0-3.281-0.063-5.313-0.188
				c-2.031-0.109-4.031-0.359-6-0.75V13.281c1.969-0.344,4-0.578,6.125-0.703c2.125-0.117,3.938-0.18,5.469-0.18
				c3.25,0,6.156,0.344,8.813,1.039c2.625,0.688,4.875,1.773,6.781,3.258c1.875,1.484,3.313,3.383,4.344,5.688
				C150.203,24.695,150.734,27.469,150.734,30.711z M126.172,42.094c0.406,0.031,0.844,0.063,1.375,0.078s1.156,0.016,1.875,0.016
				c4.25,0,7.406-1,9.469-3.039c2.031-2.039,3.063-4.852,3.063-8.438c0-3.758-0.969-6.602-2.938-8.531s-5.063-2.898-9.313-2.898
				c-0.563,0-1.188,0.008-1.781,0.023c-0.625,0.023-1.219,0.063-1.75,0.133V42.094z"/>
			<path fill="#38883B" d="M168.109,42.5c1.188,0,2.188-0.094,2.969-0.281s1.406-0.438,1.875-0.781
				c0.469-0.313,0.781-0.703,0.969-1.156c0.188-0.445,0.281-0.945,0.281-1.5c0-1.172-0.594-2.148-1.75-2.922s-3.156-1.609-6-2.508
				c-1.219-0.414-2.469-0.891-3.688-1.422c-1.25-0.531-2.344-1.211-3.313-2.016c-1-0.813-1.781-1.797-2.406-2.953
				s-0.938-2.563-0.938-4.211c0-1.656,0.344-3.148,1-4.477s1.563-2.461,2.75-3.391c1.219-0.93,2.656-1.648,4.375-2.148
				c1.688-0.5,3.625-0.75,5.781-0.75c2.531,0,4.719,0.258,6.563,0.781c1.875,0.516,3.375,1.086,4.594,1.703l-2.469,6.367
				c-1.031-0.523-2.219-0.977-3.5-1.375s-2.844-0.594-4.656-0.594c-2.031,0-3.5,0.266-4.375,0.805
				c-0.906,0.531-1.344,1.352-1.344,2.453c0,0.656,0.156,1.211,0.5,1.656c0.313,0.445,0.781,0.852,1.375,1.219
				c0.594,0.359,1.281,0.688,2.063,0.977c0.781,0.297,1.656,0.602,2.594,0.906c1.969,0.695,3.656,1.375,5.125,2.047
				c1.438,0.672,2.656,1.453,3.625,2.352s1.688,1.953,2.156,3.156c0.469,1.211,0.688,2.672,0.688,4.398
				c0,3.352-1.219,5.945-3.688,7.789s-6.188,2.766-11.156,2.766c-1.688,0-3.188-0.109-4.531-0.297s-2.531-0.406-3.563-0.688
				s-1.938-0.563-2.688-0.875c-0.719-0.313-1.344-0.609-1.875-0.875l2.406-6.422c1.125,0.578,2.5,1.109,4.156,1.578
				S165.703,42.5,168.109,42.5z"/>
		</g>
	</g>
</g>
</svg>
