<?xml version="1.0" encoding="utf-8"?>
<!-- Generator: Adobe Illustrator 21.0.0, SVG Export Plug-In . SVG Version: 6.00 Build 0)  -->
<svg version="1.1" id="图层_1" xmlns="http://www.w3.org/2000/svg" xmlns:xlink="http://www.w3.org/1999/xlink" x="0px" y="0px"
	 viewBox="0 0 256 256" style="enable-background:new 0 0 256 256;" xml:space="preserve">
<style type="text/css">
	.st0{opacity:0.08;enable-background:new    ;}
	.st1{opacity:0.1;enable-background:new    ;}
	.st2{opacity:0.2;enable-background:new    ;}
	.st3{fill:#1B5E20;}
	.st4{fill:url(#SVGID_1_);}
	.st5{opacity:0.8;fill:#FFFFFF;enable-background:new    ;}
	.st6{fill:#388E3C;}
</style>
<rect x="34.1" y="4" class="st0" width="191.8" height="252"/>
<rect x="36.1" y="6" class="st1" width="187.8" height="248"/>
<rect x="34.1" y="4" class="st2" width="187.8" height="248"/>
<rect x="36.1" y="6" class="st3" width="183.8" height="244"/>
<g>
	
		<linearGradient id="SVGID_1_" gradientUnits="userSpaceOnUse" x1="211.2002" y1="1606.8008" x2="211.2002" y2="1366.8008" gradientTransform="matrix(1 0 0 1 -83.2002 -1358.8008)">
		<stop  offset="0" style="stop-color:#388E3C"/>
		<stop  offset="0.0757" style="stop-color:#43953E"/>
		<stop  offset="0.3246" style="stop-color:#62A943"/>
		<stop  offset="0.5665" style="stop-color:#79B747"/>
		<stop  offset="0.796" style="stop-color:#86C049"/>
		<stop  offset="1" style="stop-color:#8BC34A"/>
	</linearGradient>
	<rect x="38.1" y="8" class="st4" width="179.8" height="240"/>
	<path class="st5" d="M132.6,84.2V84h-9.2v0.2H64V200h128V84.2H132.6z M73.2,118.6h28.6v18.5H73.2V118.6z M73.2,146.3h28.6v18.5
		H73.2V146.3z M111.3,146.3h71.5v18.5h-71.5V146.3z M111.3,137.1v-18.5h71.5v18.5H111.3z M182.8,93.5v15.9h-71.5V93.5H182.8z
		 M101.8,93.5v15.9H73.2V93.5H101.8z M73.2,174.1h28.6v16.6H73.2V174.1z M111.3,190.7v-16.6h71.5v16.6H111.3z"/>
	<g>
		<rect x="38" y="8" class="st5" width="179.9" height="46"/>
	</g>
	<g>
		<path class="st6" d="M114.8,30.7c0,3.1-0.5,5.8-1.4,8.1s-2.3,4.3-3.9,5.8c-1.7,1.6-3.7,2.8-6,3.5c-2.3,0.8-4.8,1.2-7.4,1.2
			s-5-0.4-7.3-1.2s-4.3-2-6-3.5c-1.7-1.6-3.1-3.5-4-5.8c-1-2.3-1.5-5-1.5-8.1s0.5-5.8,1.5-8.1s2.4-4.3,4.1-5.9s3.7-2.8,6-3.6
			s4.7-1.2,7.2-1.2c2.6,0,5,0.4,7.3,1.2s4.3,2,6,3.6s3.1,3.5,4,5.9C114.4,24.9,114.8,27.6,114.8,30.7z M86,30.7
			c0,1.8,0.2,3.4,0.7,4.8c0.5,1.4,1.1,2.6,2,3.6c0.8,1,1.9,1.8,3.1,2.4c1.2,0.5,2.7,0.8,4.3,0.8c1.6,0,3-0.3,4.2-0.8
			c1.3-0.6,2.3-1.3,3.2-2.4c0.9-1,1.5-2.2,2-3.6c0.4-1.4,0.7-3,0.7-4.8s-0.2-3.4-0.7-4.8s-1.1-2.7-2-3.7c-0.8-1-1.9-1.8-3.2-2.4
			C99,19.3,97.6,19,96.1,19c-1.6,0-3,0.3-4.3,0.9s-2.3,1.4-3.1,2.4c-0.9,1-1.5,2.2-2,3.7C86.3,27.4,86,29,86,30.7z"/>
		<path class="st6" d="M148.7,12.8v6.9h-11.4v29h-8.5v-29h-11.4v-6.9L148.7,12.8L148.7,12.8z"/>
		<path class="st6" d="M164.4,42.5c1.2,0,2.2-0.1,3-0.3s1.4-0.5,1.9-0.8s0.8-0.7,1-1.2c0.2-0.4,0.3-0.9,0.3-1.5
			c0-1.2-0.6-2.1-1.8-2.9c-1.2-0.8-3.2-1.6-6-2.5c-1.3-0.4-2.5-0.9-3.7-1.4c-1.2-0.5-2.3-1.2-3.3-2s-1.8-1.8-2.4-3s-0.9-2.6-0.9-4.2
			c0-1.7,0.3-3.1,1-4.5s1.6-2.5,2.8-3.4s2.7-1.6,4.3-2.1c1.7-0.5,3.6-0.8,5.8-0.8c2.5,0,4.8,0.3,6.6,0.8s3.4,1.1,4.6,1.7l-2.4,6.4
			c-1.1-0.5-2.2-1-3.5-1.4s-2.8-0.6-4.7-0.6c-2,0-3.5,0.3-4.4,0.8s-1.3,1.4-1.3,2.5c0,0.7,0.2,1.2,0.5,1.7c0.3,0.4,0.8,0.9,1.4,1.2
			c0.6,0.4,1.3,0.7,2.1,1s1.6,0.6,2.6,0.9c1.9,0.7,3.7,1.4,5.1,2c1.5,0.7,2.7,1.5,3.6,2.4s1.7,2,2.2,3.2c0.5,1.2,0.7,2.7,0.7,4.4
			c0,3.3-1.3,5.9-3.7,7.8c-2.5,1.9-6.2,2.8-11.2,2.8c-1.7,0-3.2-0.1-4.5-0.3s-2.5-0.4-3.6-0.7s-1.9-0.6-2.7-0.9
			c-0.8-0.3-1.4-0.6-1.9-0.9l2.4-6.4c1.1,0.6,2.5,1.1,4.2,1.6C160,42.3,162,42.5,164.4,42.5z"/>
	</g>
</g>
</svg>
