<?xml version="1.0" encoding="utf-8"?>
<!-- Generator: Adobe Illustrator 16.0.0, SVG Export Plug-In . SVG Version: 6.00 Build 0)  -->
<!DOCTYPE svg PUBLIC "-//W3C//DTD SVG 1.1//EN" "http://www.w3.org/Graphics/SVG/1.1/DTD/svg11.dtd">
<svg version="1.1" id="图层_1" xmlns="http://www.w3.org/2000/svg" xmlns:xlink="http://www.w3.org/1999/xlink" x="0px" y="0px"
	 width="256px" height="256px" viewBox="0 0 256 256" enable-background="new 0 0 256 256" xml:space="preserve">
<g id="surface1">
	<polygon opacity="0.08" enable-background="new    " points="34.5,256 34.5,4 225.5,4 225.5,185.031 154.531,256 	"/>
	<polygon opacity="0.1" enable-background="new    " points="36.5,254 36.5,6 223.5,6 223.5,184.203 153.703,254 	"/>
	<polygon opacity="0.2" enable-background="new    " points="34.5,252 34.5,4 221.5,4 221.5,182.203 151.703,252 	"/>
</g>
<linearGradient id="SVGID_1_" gradientUnits="userSpaceOnUse" x1="294.4004" y1="1803.9609" x2="294.4004" y2="1559.9609" gradientTransform="matrix(1 0 0 1 -166.4004 -1553.9609)">
	<stop  offset="0" style="stop-color:#455A64"/>
	<stop  offset="0.0238" style="stop-color:#465C66"/>
	<stop  offset="0.3557" style="stop-color:#556E7A"/>
	<stop  offset="0.6835" style="stop-color:#5D7987"/>
	<stop  offset="1" style="stop-color:#607D8B"/>
</linearGradient>
<path fill="url(#SVGID_1_)" d="M150.875,250l68.625-68.625V6h-183v244H150.875z"/>
<polygon fill="#263238" fill-opacity="0.3922" points="147.063,177.563 147.063,250 150.875,250 219.5,181.375 219.5,177.563 "/>
<path fill="#FFFFFF" fill-opacity="0.3922" d="M150.875,181.375h68.567L150.875,250V181.375z"/>
<g opacity="0.8">
	<path fill="#FFFFFF" d="M104.336,63.241c-17.53,0-39.6,16.577-39.391,42.25c0.177,24.855,8.442,38.318,14.773,53.556l18.748-7.79
		c-4.303-8.759-9.932-17.423-11.928-21.773c-5.571-12.136-7.46-17.604-6.984-26.852c0.431-8.936,3.41-14.4,8.89-19.687
		c5.466-5.271,13.06-7.938,22.086-6.687c13.031,1.787,19.896,9.083,23.204,15.741c1.861-0.267,3.768-0.491,5.883-0.477
		c1.635,0,3.291,0.119,4.914,0.477C141.031,78.164,123.785,63.241,104.336,63.241z M112.288,87.381
		c-7.982-0.52-19.613,3.367-19.539,15.579c0.045,11.54,7.282,20.192,15.877,23.664c-0.179-2.904,0.014-6.121,0.477-9.367
		c-4.663-2.531-7.492-7.046-7.938-13.344c-0.538-7,6.417-14.073,17.469-10.484c1.787,0.567,1.847-2.517-0.15-4.141
		C117.172,88.26,114.94,87.562,112.288,87.381z M139.618,96.6c-1.4,0-2.728,0.045-3.977,0.165c0.324,1.236,0.563,2.487,0.641,3.484
		c0.801-0.043,1.681-0.029,2.531,0c2.35,0.119,4.527,0.493,6.523,1.117c0.074-1.311,0.029-2.562,0-3.813
		C143.443,96.958,141.524,96.617,139.618,96.6z M135.806,105.178c-1.253,5.378-5.021,11.976-12.719,13.82
		c-0.181,1.118-0.357,2.161-0.314,2.859c0.091,1.475,0.403,3.529,1.268,5.719c13.179-2.412,18.836-11.659,20.657-21.133
		c-1.759-0.699-3.771-1.146-6.195-1.266C137.56,105.133,136.623,105.104,135.806,105.178z M114.032,119.163
		c-0.269,2.457-0.462,4.901-0.314,7.148c0.031,0.538,0.06,1.043,0.15,1.594c0.981,0.136,1.89,0.46,2.859,0.477
		c0.834,0,1.608-0.119,2.383-0.164c-0.774-2.19-1.311-4.272-1.43-6.031c-0.045-0.76-0.06-1.655,0-2.547
		C116.415,119.578,115.162,119.385,114.032,119.163z"/>
	<path fill="#CFD8DC" d="M176.667,63.315c6.348,15.207,14.744,28.61,14.926,53.482c0.192,25.673-21.984,42.278-39.526,42.278
		c-21.224,0-39.898-17.797-40.879-32.525c-0.894-13.299,3.872-32.645,28.489-32.511c11.75,0.076,23.964,10.215,24.021,25.317
		c0.09,16.293-20.492,17.9-25.673,13.747c-1.997-1.61-1.939-4.811-0.181-4.231c11.08,3.574,17.916-3.484,17.411-10.484
		c-0.687-9.544-6.377-15.205-16.577-15.665c-14.714-0.698-18.825,13.492-18.451,19.272c0.46,7.013,6.61,21.429,25.763,24.05
		c9.038,1.253,16.544-1.43,21.996-6.701c5.468-5.287,8.565-10.739,9.009-19.674c0.465-9.231-1.561-14.654-7.132-26.791
		c-1.996-4.349-7.551-13.06-11.868-21.819l18.688-7.744"/>
</g>
<g>
	<path fill="#263238" d="M217.5,8v172.547L150.047,248H97.5h-59V8H217.5 M219.5,6h-183v244h61h53.375l68.625-68.625V6L219.5,6z"/>
</g>
</svg>
