<?xml version="1.0" encoding="utf-8"?>
<!-- Generator: Adobe Illustrator 21.0.0, SVG Export Plug-In . SVG Version: 6.00 Build 0)  -->
<svg version="1.1" id="图层_1" xmlns="http://www.w3.org/2000/svg" xmlns:xlink="http://www.w3.org/1999/xlink" x="0px" y="0px"
	 viewBox="0 0 256 256" style="enable-background:new 0 0 256 256;" xml:space="preserve">
<style type="text/css">
	.st0{opacity:0.08;enable-background:new    ;}
	.st1{opacity:0.1;enable-background:new    ;}
	.st2{opacity:0.2;enable-background:new    ;}
	.st3{fill:#3E2723;}
	.st4{fill:url(#SVGID_1_);}
	.st5{fill:#795548;fill-opacity:0.7;}
	.st6{opacity:0.39;fill:#FFFFFF;enable-background:new    ;}
	.st7{fill:#FFFFFF;}
	.st8{opacity:0.8;fill:#FFFFFF;enable-background:new    ;}
	.st9{enable-background:new    ;}
	.st10{fill:#5D4037;}
</style>
<polygon class="st0" points="34.1,256 34.1,4 225.9,4 225.9,185 154.9,256 "/>
<polygon class="st1" points="36.1,254 36.1,6 223.9,6 223.9,184.2 154,254 "/>
<polygon class="st2" points="34.1,252 34.1,4 221.9,4 221.9,182.2 152,252 "/>
<polygon class="st3" points="36.1,250 36.1,6 219.9,6 219.9,181.3 151.2,250 "/>
<g>
	<g>
		
			<linearGradient id="SVGID_1_" gradientUnits="userSpaceOnUse" x1="169.6001" y1="-425.9004" x2="169.6001" y2="-665.9004" gradientTransform="matrix(1 0 0 -1 -41.6001 -417.9004)">
			<stop  offset="0" style="stop-color:#785548"/>
			<stop  offset="1" style="stop-color:#9F9E9F"/>
		</linearGradient>
		<polygon class="st4" points="38.1,248 38.1,8 217.9,8 217.9,180.4 151.1,248 		"/>
		<polygon class="st5" points="217.9,180.5 217.9,177.6 146.7,177.6 146.7,248 150.4,248 		"/>
		<path class="st6" d="M150.3,180.5l67.6,0.1L150.4,248L150.3,180.5z"/>
	</g>
	<path class="st7" d="M102.4,54.3h-6.1v77.9h-4.6V54.3h-6.1v77.9H81V54.3h-6.1v77.9h-4.6V54.3h-6.1v77.9h-1.6v33h41.7v-33h-2.1
		L102.4,54.3L102.4,54.3z M98.4,155.6H68.8v-19.1h29.6V155.6z"/>
	<g>
		<rect x="38.1" y="8" class="st8" width="179.9" height="46"/>
		<g class="st9">
			<path class="st10" d="M108.8,13.2V20H97.4v29h-8.5V20H77.5v-6.9h31.3V13.2z"/>
			<path class="st10" d="M131.4,19.4c-4,0-6.8,1-8.6,3.1c-1.8,2.1-2.6,5-2.6,8.6c0,1.8,0.2,3.4,0.7,4.8c0.4,1.4,1.1,2.7,1.9,3.7
				c0.9,1,2,1.8,3.3,2.4c1.3,0.6,2.8,0.9,4.6,0.9c1,0,1.8,0,2.4,0c0.7,0,1.3-0.1,1.8-0.2V30.1h8.5v17.8c-1,0.4-2.6,0.8-4.9,1.2
				c-2.3,0.4-5,0.6-8.3,0.6c-2.8,0-5.4-0.4-7.7-1.2c-2.3-0.8-4.3-2-5.9-3.6s-2.9-3.5-3.8-5.8s-1.3-5-1.3-7.9c0-3,0.5-5.7,1.5-8
				s2.3-4.3,4-5.9c1.7-1.6,3.7-2.8,6-3.7s4.8-1.2,7.4-1.2c1.8,0,3.4,0.1,4.8,0.3c1.4,0.2,2.7,0.5,3.7,0.8s1.9,0.6,2.6,0.9
				c0.7,0.3,1.2,0.5,1.4,0.7l-2.5,6.5c-1.2-0.6-2.5-1.1-4-1.5C134.8,19.6,133.2,19.4,131.4,19.4z"/>
			<path class="st10" d="M177.9,18.7c-1.2,1.1-2.5,2.6-4.1,4.4s-3.3,3.8-5,5.9s-3.4,4.3-5.1,6.6c-1.7,2.3-3.2,4.5-4.5,6.5h19.2V49
				h-29.7v-4.8c1-1.8,2.3-3.7,3.7-5.9s3-4.3,4.6-6.5s3.2-4.3,4.9-6.4c1.7-2,3.2-3.9,4.6-5.5h-16.9v-6.8h28.2L177.9,18.7L177.9,18.7z
				"/>
		</g>
	</g>
</g>
</svg>
