<?xml version="1.0" encoding="utf-8"?>
<!-- Generator: Adobe Illustrator 16.0.0, SVG Export Plug-In . SVG Version: 6.00 Build 0)  -->
<!DOCTYPE svg PUBLIC "-//W3C//DTD SVG 1.1//EN" "http://www.w3.org/Graphics/SVG/1.1/DTD/svg11.dtd">
<svg version="1.1" id="图层_1" xmlns="http://www.w3.org/2000/svg" xmlns:xlink="http://www.w3.org/1999/xlink" x="0px" y="0px"
	 width="256px" height="256px" viewBox="0 0 256 256" enable-background="new 0 0 256 256" xml:space="preserve">
<polygon opacity="0.08" enable-background="new    " points="34.1,256 34.1,4 225.9,4 225.9,185 154.9,256 "/>
<polygon opacity="0.1" enable-background="new    " points="36.1,254 36.1,6 223.9,6 223.9,184.2 154,254 "/>
<polygon opacity="0.2" enable-background="new    " points="34.1,252 34.1,4 221.9,4 221.9,182.2 152,252 "/>
<polygon fill="#3E2723" points="36.1,250 36.1,6 219.9,6 219.9,181.3 151.2,250 "/>
<g>
	<g>
		
			<linearGradient id="SVGID_1_" gradientUnits="userSpaceOnUse" x1="169.6074" y1="84.0996" x2="169.6074" y2="-155.9009" gradientTransform="matrix(1 0 0 -1 -41.6001 92.0996)">
			<stop  offset="0" style="stop-color:#785548"/>
			<stop  offset="1" style="stop-color:#9F9E9F"/>
		</linearGradient>
		<polygon fill="url(#SVGID_1_)" points="38.102,248 38.102,8 217.914,8 217.914,180.406 151.07,248 		"/>
		<polygon fill="#795548" fill-opacity="0.7" points="217.914,180.5 217.914,177.594 146.727,177.594 146.727,248 150.414,248 		"/>
		<path opacity="0.39" fill="#FFFFFF" enable-background="new    " d="M150.32,180.5l67.594,0.094L150.414,248L150.32,180.5z"/>
	</g>
	<path fill="#FFFFFF" d="M102.352,54.266h-6.094v77.938h-4.594V54.266h-6.063v77.938h-4.594V54.266h-6.063v77.938h-4.594V54.266
		h-6.063v77.938h-1.594v33.016h41.719v-33.016h-2.063V54.266z M98.352,155.625H68.758v-19.141h29.594V155.625z"/>
	<g>
		<rect x="38.055" y="8" opacity="0.8" fill="#FFFFFF" enable-background="new    " width="179.891" height="46"/>
		<g enable-background="new    ">
			<path fill="#5D4037" d="M108.805,13.156v6.875H97.414V49H88.93V20.031H77.539v-6.875H108.805z"/>
			<path fill="#5D4037" d="M131.414,19.359c-3.969,0-6.813,1.047-8.594,3.125c-1.75,2.094-2.625,4.953-2.625,8.563
				c0,1.766,0.219,3.359,0.656,4.797c0.438,1.422,1.094,2.656,1.938,3.688c0.875,1.047,1.969,1.844,3.281,2.406
				c1.313,0.578,2.844,0.859,4.563,0.859c0.969,0,1.75-0.016,2.438-0.047c0.656-0.047,1.25-0.109,1.781-0.219V30.063h8.469v17.75
				c-1,0.375-2.625,0.781-4.875,1.219c-2.281,0.422-5.031,0.641-8.344,0.641c-2.844,0-5.406-0.406-7.719-1.234
				c-2.281-0.828-4.25-2.031-5.906-3.625c-1.625-1.578-2.875-3.531-3.781-5.844c-0.875-2.313-1.344-4.953-1.344-7.922
				c0-3,0.5-5.656,1.5-7.953c0.969-2.313,2.313-4.281,4-5.875c1.719-1.609,3.719-2.828,6.031-3.656s4.75-1.234,7.375-1.234
				c1.781,0,3.375,0.109,4.813,0.328c1.438,0.234,2.688,0.484,3.719,0.781s1.875,0.594,2.563,0.906
				c0.656,0.313,1.156,0.547,1.438,0.719l-2.469,6.469c-1.156-0.578-2.469-1.094-4-1.516
				C134.82,19.578,133.195,19.359,131.414,19.359z"/>
			<path fill="#5D4037" d="M177.852,18.734c-1.156,1.141-2.531,2.625-4.125,4.438c-1.625,1.797-3.25,3.781-4.969,5.922
				c-1.719,2.125-3.406,4.344-5.063,6.609c-1.688,2.281-3.156,4.453-4.469,6.531h19.219V49h-29.656v-4.813
				c1-1.75,2.25-3.703,3.719-5.859s3-4.328,4.594-6.531c1.594-2.188,3.219-4.297,4.875-6.359c1.656-2.047,3.188-3.891,4.594-5.5
				h-16.938v-6.781h28.219V18.734z"/>
		</g>
	</g>
</g>
</svg>
