<?xml version="1.0" encoding="utf-8"?>
<!-- Generator: Adobe Illustrator 16.0.0, SVG Export Plug-In . SVG Version: 6.00 Build 0)  -->
<!DOCTYPE svg PUBLIC "-//W3C//DTD SVG 1.1//EN" "http://www.w3.org/Graphics/SVG/1.1/DTD/svg11.dtd">
<svg version="1.1" id="图层_1" xmlns="http://www.w3.org/2000/svg" xmlns:xlink="http://www.w3.org/1999/xlink" x="0px" y="0px"
	 width="256px" height="256px" viewBox="0 0 256 256" enable-background="new 0 0 256 256" xml:space="preserve">
<polygon opacity="0.08" enable-background="new    " points="34.1,256 34.1,4 225.9,4 225.9,185 154.9,256 "/>
<polygon opacity="0.1" enable-background="new    " points="36.1,254 36.1,6 223.9,6 223.9,184.2 154,254 "/>
<polygon opacity="0.2" enable-background="new    " points="34.1,252 34.1,4 221.9,4 221.9,182.2 152,252 "/>
<polygon fill="#3E2723" points="36.1,250 36.1,6 219.9,6 219.9,181.3 151.2,250 "/>
<g>
	<g>
		
			<linearGradient id="SVGID_1_" gradientUnits="userSpaceOnUse" x1="169.6074" y1="84.0996" x2="169.6074" y2="-155.9009" gradientTransform="matrix(1 0 0 -1 -41.6001 92.0996)">
			<stop  offset="0" style="stop-color:#785548"/>
			<stop  offset="1" style="stop-color:#9F9E9F"/>
		</linearGradient>
		<polygon fill="url(#SVGID_1_)" points="38.102,248 38.102,8 217.914,8 217.914,180.406 151.07,248 		"/>
		<polygon fill="#795548" fill-opacity="0.7" points="217.914,180.5 217.914,177.594 146.727,177.594 146.727,248 150.414,248 		"/>
		<path opacity="0.39" fill="#FFFFFF" enable-background="new    " d="M150.32,180.5l67.594,0.094L150.414,248L150.32,180.5z"/>
	</g>
	<path fill="#FFFFFF" d="M102.352,54.266h-6.094v77.938h-4.594V54.266h-6.063v77.938h-4.594V54.266h-6.063v77.938h-4.594V54.266
		h-6.063v77.938h-1.594v33.016h41.719v-33.016h-2.063V54.266z M98.352,155.625H68.758v-19.141h29.594V155.625z"/>
	<g>
		<rect x="38.055" y="8" opacity="0.8" fill="#FFFFFF" enable-background="new    " width="179.891" height="46"/>
		<g enable-background="new    ">
			<path fill="#5D4037" d="M88.492,19.289c-3.953,0-6.813,1.039-8.578,3.125c-1.766,2.094-2.641,4.945-2.641,8.563
				c0,1.758,0.219,3.359,0.656,4.789s1.094,2.664,1.953,3.695c0.875,1.039,1.969,1.836,3.266,2.406
				c1.313,0.57,2.844,0.852,4.578,0.852c0.953,0,1.75-0.016,2.422-0.047c0.672-0.039,1.266-0.102,1.781-0.211V29.992h8.484v17.75
				c-1.016,0.375-2.641,0.781-4.891,1.211c-2.266,0.43-5.031,0.648-8.344,0.648c-2.828,0-5.391-0.414-7.703-1.242
				c-2.297-0.828-4.266-2.031-5.906-3.617c-1.625-1.586-2.891-3.539-3.781-5.852c-0.891-2.305-1.344-4.945-1.344-7.914
				c0-3,0.5-5.656,1.484-7.961c0.969-2.313,2.313-4.273,4.016-5.875c1.719-1.602,3.719-2.82,6.031-3.648
				c2.297-0.828,4.75-1.242,7.375-1.242c1.781,0,3.375,0.117,4.813,0.336c1.438,0.227,2.672,0.484,3.703,0.781
				c1.031,0.289,1.891,0.594,2.563,0.906c0.672,0.305,1.156,0.547,1.438,0.719l-2.453,6.469c-1.156-0.586-2.484-1.094-4-1.523
				C91.914,19.5,90.273,19.289,88.492,19.289z"/>
			<path fill="#5D4037" d="M134.945,18.664c-1.172,1.141-2.547,2.617-4.141,4.43c-1.594,1.805-3.25,3.781-4.969,5.922
				c-1.688,2.133-3.375,4.344-5.063,6.617c-1.656,2.281-3.156,4.453-4.469,6.523h19.25v6.773h-29.688v-4.813
				c1.016-1.758,2.25-3.711,3.719-5.867c1.484-2.156,3.016-4.328,4.609-6.523c1.609-2.188,3.234-4.305,4.875-6.359
				c1.656-2.055,3.188-3.891,4.609-5.508h-16.938v-6.781h28.203V18.664z"/>
			<path fill="#5D4037" d="M141.523,13.078h8.5V48.93h-8.5V13.078z"/>
			<path fill="#5D4037" d="M170.055,12.664c5.641,0,9.953,0.945,12.969,2.82c3.016,1.883,4.531,4.961,4.531,9.234
				c0,4.313-1.531,7.422-4.594,9.336c-3.031,1.914-7.406,2.875-13.063,2.875h-2.656v12h-8.5V13.594
				c1.844-0.344,3.813-0.586,5.875-0.719C166.68,12.734,168.492,12.664,170.055,12.664z M170.617,19.547
				c-0.625,0-1.234,0.016-1.828,0.055c-0.609,0.031-1.109,0.063-1.547,0.102v10.344h2.656c2.938,0,5.156-0.375,6.656-1.141
				c1.469-0.758,2.219-2.172,2.219-4.242c0-1-0.188-1.82-0.563-2.477s-0.938-1.188-1.641-1.578
				c-0.703-0.398-1.578-0.672-2.578-0.828C172.961,19.625,171.836,19.547,170.617,19.547z"/>
		</g>
	</g>
</g>
</svg>
