<?xml version="1.0" encoding="utf-8"?>
<!-- Generator: Adobe Illustrator 21.0.0, SVG Export Plug-In . SVG Version: 6.00 Build 0)  -->
<svg version="1.1" id="图层_1" xmlns="http://www.w3.org/2000/svg" xmlns:xlink="http://www.w3.org/1999/xlink" x="0px" y="0px"
	 viewBox="0 0 256 256" style="enable-background:new 0 0 256 256;" xml:space="preserve">
<style type="text/css">
	.st0{opacity:0.08;enable-background:new    ;}
	.st1{opacity:0.1;enable-background:new    ;}
	.st2{opacity:0.2;enable-background:new    ;}
	.st3{fill:#3E2723;}
	.st4{fill:url(#SVGID_1_);}
	.st5{fill:#795548;fill-opacity:0.7;}
	.st6{opacity:0.39;fill:#FFFFFF;enable-background:new    ;}
	.st7{fill:#FFFFFF;}
	.st8{opacity:0.8;fill:#FFFFFF;enable-background:new    ;}
	.st9{enable-background:new    ;}
	.st10{fill:#5D4037;}
</style>
<polygon class="st0" points="34.1,256 34.1,4 225.9,4 225.9,185 154.9,256 "/>
<polygon class="st1" points="36.1,254 36.1,6 223.9,6 223.9,184.2 154,254 "/>
<polygon class="st2" points="34.1,252 34.1,4 221.9,4 221.9,182.2 152,252 "/>
<polygon class="st3" points="36.1,250 36.1,6 219.9,6 219.9,181.3 151.2,250 "/>
<g>
	<g>
		
			<linearGradient id="SVGID_1_" gradientUnits="userSpaceOnUse" x1="169.6001" y1="-425.9004" x2="169.6001" y2="-665.9004" gradientTransform="matrix(1 0 0 -1 -41.6001 -417.9004)">
			<stop  offset="0" style="stop-color:#785548"/>
			<stop  offset="1" style="stop-color:#9F9E9F"/>
		</linearGradient>
		<polygon class="st4" points="38.1,248 38.1,8 217.9,8 217.9,180.4 151.1,248 		"/>
		<polygon class="st5" points="217.9,180.5 217.9,177.6 146.7,177.6 146.7,248 150.4,248 		"/>
		<path class="st6" d="M150.3,180.5l67.6,0.1L150.4,248L150.3,180.5z"/>
	</g>
	<path class="st7" d="M102.4,54.3h-6.1v77.9h-4.6V54.3h-6.1v77.9H81V54.3h-6.1v77.9h-4.6V54.3h-6.1v77.9h-1.6v33h41.7v-33h-2.1
		L102.4,54.3L102.4,54.3z M98.4,155.6H68.8v-19.1h29.6V155.6z"/>
	<g>
		<rect x="38.1" y="8" class="st8" width="179.9" height="46"/>
		<g class="st9">
			<path class="st10" d="M109,13.1V20H97.6v29h-8.5V20H77.7v-6.9H109z"/>
			<path class="st10" d="M127,49.4c-2.1,0-4.1-0.1-6.2-0.2c-2.1-0.1-4.2-0.4-6.4-0.9V13.6c1.8-0.3,3.7-0.5,5.7-0.7s4-0.2,5.8-0.2
				c2.4,0,4.6,0.2,6.6,0.5s3.8,0.9,5.2,1.7s2.6,1.8,3.4,3.1c0.8,1.3,1.2,2.9,1.2,4.8c0,2.9-1.5,5.1-4.4,6.8c2.4,0.9,4,2,4.9,3.5
				s1.3,3.2,1.3,5c0,3.8-1.4,6.6-4.3,8.5C137,48.4,132.7,49.4,127,49.4z M122.7,27.1h4.1c2.6,0,4.5-0.3,5.6-1s1.7-1.7,1.7-3.1
				c0-1.5-0.6-2.5-1.8-3.1s-2.9-0.9-5.1-0.9c-0.7,0-1.5,0-2.3,0s-1.6,0.1-2.2,0.1C122.7,19.3,122.7,27.1,122.7,27.1z M122.7,33.3
				v9.3c0.6,0.1,1.3,0.1,2,0.1s1.5,0.1,2.4,0.1c2.5,0,4.6-0.3,6.2-1s2.3-2,2.3-3.8c0-1.7-0.7-2.8-2-3.5s-3.2-1.1-5.6-1.1h-5.3V33.3z
				"/>
			<path class="st10" d="M177.7,18.7c-1.2,1.1-2.5,2.6-4.1,4.4s-3.3,3.8-5,5.9s-3.4,4.3-5.1,6.6c-1.7,2.3-3.2,4.5-4.5,6.5h19.2v6.8
				h-29.7v-4.8c1-1.8,2.3-3.7,3.7-5.9s3-4.3,4.6-6.5s3.2-4.3,4.9-6.4s3.2-3.9,4.6-5.5h-16.9V13h28.2L177.7,18.7L177.7,18.7z"/>
		</g>
	</g>
</g>
</svg>
