<?xml version="1.0" encoding="utf-8"?>
<!-- Generator: Adobe Illustrator 21.0.0, SVG Export Plug-In . SVG Version: 6.00 Build 0)  -->
<svg version="1.1" id="图层_1" xmlns="http://www.w3.org/2000/svg" xmlns:xlink="http://www.w3.org/1999/xlink" x="0px" y="0px"
	 viewBox="0 0 256 256" style="enable-background:new 0 0 256 256;" xml:space="preserve">
<style type="text/css">
	.st0{opacity:0.08;enable-background:new    ;}
	.st1{opacity:0.1;enable-background:new    ;}
	.st2{opacity:0.2;enable-background:new    ;}
	.st3{fill:#1B5E20;}
	.st4{fill:url(#SVGID_1_);}
	.st5{fill:#1B5E20;fill-opacity:0.39;}
	.st6{fill:#FFFFFF;fill-opacity:0.3922;}
	.st7{opacity:0.8;fill:#FFFFFF;enable-background:new    ;}
	.st8{enable-background:new    ;}
	.st9{fill:#38883B;}
</style>
<polygon class="st0" points="34.1,256 34.1,4 225.9,4 225.9,185 154.9,256 "/>
<polygon class="st1" points="36.1,254 36.1,6 223.9,6 223.9,184.2 154,254 "/>
<polygon class="st2" points="34.1,252 34.1,4 221.9,4 221.9,182.2 152,252 "/>
<polygon class="st3" points="36.1,250 36.1,6 219.9,6 219.9,181.3 151.2,250 "/>
<g>
	<g>
		<g>
			<g>
				<g>
					
						<linearGradient id="SVGID_1_" gradientUnits="userSpaceOnUse" x1="211.2002" y1="-1084.8008" x2="211.2002" y2="-844.8008" gradientTransform="matrix(1 0 0 -1 -83.2002 -836.8008)">
						<stop  offset="0" style="stop-color:#388E3C"/>
						<stop  offset="0.0757" style="stop-color:#43953E"/>
						<stop  offset="0.3246" style="stop-color:#62A943"/>
						<stop  offset="0.5665" style="stop-color:#79B747"/>
						<stop  offset="0.796" style="stop-color:#86C049"/>
						<stop  offset="1" style="stop-color:#8BC34A"/>
					</linearGradient>
					<polygon class="st4" points="38.1,248 38.1,8 217.9,8 217.9,180.5 150.4,248 					"/>
				</g>
				<polygon class="st5" points="217.9,180.5 217.9,177.6 146.7,177.6 146.7,248 150.4,248 				"/>
				<path class="st6" d="M150.3,180.5l67.6,0.1L150.4,248L150.3,180.5z"/>
			</g>
			<path class="st7" d="M132.4,61v-0.2h-8.9V61H66.2v111.8h123.6V61H132.4z M75.1,94.2h27.6v17.9H75.1V94.2z M75.1,121h27.6v17.8
				H75.1V121z M111.9,121h69v17.8h-69C111.9,138.8,111.9,121,111.9,121z M111.9,112.1V94.2h69v17.9H111.9L111.9,112.1z M180.9,70
				v15.4h-69V70H180.9z M102.7,70v15.4H75.1V70H102.7z M75.1,147.8h27.6v16H75.1V147.8z M111.9,163.8v-16h69v16H111.9z"/>
		</g>
	</g>
	<g>
		<g>
			<rect x="38" y="8" class="st7" width="179.9" height="46"/>
		</g>
		<g class="st8">
			<path class="st9" d="M110.6,30.7c0,3.1-0.5,5.8-1.5,8.1c-0.9,2.3-2.3,4.3-3.9,5.8s-3.7,2.8-6,3.5c-2.3,0.8-4.8,1.2-7.4,1.2
				s-5-0.4-7.3-1.2s-4.3-2-6-3.5c-1.7-1.6-3-3.5-4-5.8s-1.5-5-1.5-8.1s0.5-5.8,1.5-8.1s2.4-4.3,4.1-5.9s3.7-2.8,6-3.6
				s4.7-1.2,7.2-1.2c2.6,0,5,0.4,7.3,1.2s4.3,2,6,3.6s3,3.5,4,5.9C110.1,24.9,110.6,27.6,110.6,30.7z M81.8,30.7
				c0,1.8,0.2,3.4,0.7,4.8c0.4,1.4,1.1,2.6,1.9,3.6c0.9,1,1.9,1.8,3.1,2.4c1.3,0.6,2.7,0.8,4.3,0.8c1.6,0,3-0.3,4.2-0.8
				c1.3-0.5,2.3-1.3,3.2-2.4c0.8-1,1.5-2.2,1.9-3.6c0.5-1.4,0.7-3,0.7-4.8s-0.2-3.4-0.7-4.8c-0.4-1.4-1.1-2.7-1.9-3.7
				c-0.9-1-1.9-1.8-3.2-2.4c-1.3-0.5-2.7-0.8-4.2-0.8c-1.6,0-3,0.3-4.3,0.9c-1.2,0.6-2.3,1.4-3.1,2.4c-0.8,1-1.5,2.2-1.9,3.7
				C82,27.4,81.8,29,81.8,30.7z"/>
			<path class="st9" d="M150.7,30.7c0,3.1-0.5,5.8-1.5,8.1c-1,2.3-2.5,4.2-4.3,5.7s-4.1,2.7-6.8,3.4c-2.7,0.8-5.7,1.1-9.1,1.1
				c-1.5,0-3.3-0.1-5.3-0.2c-2-0.1-4-0.4-6-0.8V13.3c2-0.3,4-0.6,6.1-0.7c2.1-0.1,3.9-0.2,5.5-0.2c3.3,0,6.2,0.3,8.8,1
				s4.9,1.8,6.8,3.3c1.9,1.5,3.3,3.4,4.3,5.7S150.7,27.5,150.7,30.7z M126.2,42.1c0.4,0,0.8,0.1,1.4,0.1c0.5,0,1.2,0,1.9,0
				c4.3,0,7.4-1,9.5-3c2-2,3.1-4.9,3.1-8.4c0-3.8-1-6.6-2.9-8.5s-5.1-2.9-9.3-2.9c-0.6,0-1.2,0-1.8,0c-0.6,0-1.2,0.1-1.8,0.1
				C126.2,19.4,126.2,42.1,126.2,42.1z"/>
			<path class="st9" d="M168.1,42.5c1.2,0,2.2-0.1,3-0.3s1.4-0.4,1.9-0.8c0.5-0.3,0.8-0.7,1-1.2c0.2-0.4,0.3-0.9,0.3-1.5
				c0-1.2-0.6-2.1-1.8-2.9s-3.2-1.6-6-2.5c-1.2-0.4-2.5-0.9-3.7-1.4c-1.3-0.5-2.3-1.2-3.3-2s-1.8-1.8-2.4-3s-0.9-2.6-0.9-4.2
				c0-1.7,0.3-3.1,1-4.5s1.6-2.5,2.8-3.4s2.7-1.6,4.4-2.1s3.6-0.8,5.8-0.8c2.5,0,4.7,0.3,6.6,0.8c1.9,0.5,3.4,1.1,4.6,1.7l-2.5,6.4
				c-1-0.5-2.2-1-3.5-1.4s-2.8-0.6-4.7-0.6c-2,0-3.5,0.3-4.4,0.8S165,21,165,22.1c0,0.7,0.2,1.2,0.5,1.7c0.3,0.4,0.8,0.9,1.4,1.2
				c0.6,0.4,1.3,0.7,2.1,1s1.7,0.6,2.6,0.9c2,0.7,3.7,1.4,5.1,2c1.4,0.7,2.7,1.5,3.6,2.4s1.7,2,2.2,3.2c0.5,1.2,0.7,2.7,0.7,4.4
				c0,3.4-1.2,5.9-3.7,7.8s-6.2,2.8-11.2,2.8c-1.7,0-3.2-0.1-4.5-0.3s-2.5-0.4-3.6-0.7s-1.9-0.6-2.7-0.9c-0.7-0.3-1.3-0.6-1.9-0.9
				l2.4-6.4c1.1,0.6,2.5,1.1,4.2,1.6S165.7,42.5,168.1,42.5z"/>
		</g>
	</g>
</g>
</svg>
