<?xml version="1.0" encoding="utf-8"?>
<!-- Generator: Adobe Illustrator 16.0.0, SVG Export Plug-In . SVG Version: 6.00 Build 0)  -->
<!DOCTYPE svg PUBLIC "-//W3C//DTD SVG 1.1//EN" "http://www.w3.org/Graphics/SVG/1.1/DTD/svg11.dtd">
<svg version="1.1" id="图层_1" xmlns="http://www.w3.org/2000/svg" xmlns:xlink="http://www.w3.org/1999/xlink" x="0px" y="0px"
	 width="256px" height="256px" viewBox="0 0 256 256" enable-background="new 0 0 256 256" xml:space="preserve">
<polygon opacity="0.08" enable-background="new    " points="34.1,256 34.1,4 225.9,4 225.9,185 154.9,256 "/>
<polygon opacity="0.1" enable-background="new    " points="36.1,254 36.1,6 223.9,6 223.9,184.2 154,254 "/>
<polygon opacity="0.2" enable-background="new    " points="34.1,252 34.1,4 221.9,4 221.9,182.2 152,252 "/>
<polygon fill="#E65100" points="36.1,250 36.1,6 219.9,6 219.9,181.3 151.2,250 "/>
<g>
	<g>
		<g>
			
				<linearGradient id="SVGID_1_" gradientUnits="userSpaceOnUse" x1="169.6006" y1="-155.8999" x2="169.6006" y2="84.0996" gradientTransform="matrix(1 0 0 -1 -41.6001 92.0996)">
				<stop  offset="0" style="stop-color:#EE6F0B"/>
				<stop  offset="1" style="stop-color:#FFB74D"/>
			</linearGradient>
			<polygon fill="url(#SVGID_1_)" points="38.094,248 38.094,8 217.906,8 217.906,180.5 150.406,248 			"/>
		</g>
		<polygon fill="#E65100" fill-opacity="0.3922" points="217.906,180.5 217.906,177.594 146.703,177.594 146.703,248 150.406,248 		
			"/>
		<path fill="#FFFFFF" fill-opacity="0.3922" d="M150.297,180.5l67.609,0.094L150.406,248L150.297,180.5z"/>
	</g>
	<g opacity="0.8">
		<rect x="61.5" y="100.391" fill="#FFFFFF" width="19.203" height="96.203"/>
		<rect x="93.5" y="148.391" fill="#FFFFFF" width="19.203" height="48.094"/>
		<rect x="125.406" y="167.984" fill="#FFFFFF" width="19.203" height="28.813"/>
		<g>
			<path fill="#FFFFFF" d="M151.5,83.391l0.203,38.297L190,121.484c0.109,21.203-17,38.406-38.203,38.5
				c-21.188,0.109-38.391-17-38.5-38.188C113.203,100.688,130.297,83.484,151.5,83.391z"/>
			<path fill="#FFFFFF" d="M156,78.984c21.203-0.094,38.406,17,38.5,38.203l-38.297,0.203L156,78.984z"/>
		</g>
	</g>
	<g>
		<rect x="38.047" y="8" opacity="0.8" fill="#FFFFFF" enable-background="new    " width="179.906" height="46"/>
		<g enable-background="new    ">
			<path fill="#E64A19" d="M108.781,30.719c0,3.063-0.484,5.766-1.438,8.094c-0.969,2.328-2.281,4.281-3.953,5.844
				s-3.656,2.75-5.969,3.531C95.125,49,92.641,49.391,90,49.391c-2.578,0-5.016-0.391-7.297-1.203c-2.297-0.781-4.281-1.969-6-3.531
				c-1.703-1.563-3.047-3.516-4.016-5.844c-0.984-2.328-1.484-5.031-1.484-8.094c0-3.078,0.516-5.781,1.531-8.102
				c1.016-2.328,2.391-4.281,4.109-5.875c1.734-1.586,3.719-2.773,6-3.563c2.266-0.797,4.641-1.195,7.156-1.195
				c2.578,0,5,0.398,7.297,1.195c2.281,0.789,4.281,1.977,5.984,3.563c1.703,1.594,3.047,3.547,4.031,5.875
				C108.297,24.938,108.781,27.641,108.781,30.719z M79.984,30.719c0,1.75,0.219,3.344,0.672,4.75
				c0.453,1.422,1.109,2.625,1.969,3.656c0.844,1.016,1.891,1.797,3.125,2.344c1.234,0.563,2.656,0.844,4.25,0.844
				c1.563,0,2.969-0.281,4.219-0.844c1.25-0.547,2.297-1.328,3.156-2.344c0.859-1.031,1.5-2.234,1.953-3.656
				c0.453-1.406,0.688-3,0.688-4.75c0-1.766-0.234-3.359-0.688-4.781c-0.453-1.438-1.094-2.664-1.953-3.68s-1.906-1.805-3.156-2.359
				c-1.25-0.547-2.656-0.828-4.219-0.828c-1.594,0-3.016,0.289-4.25,0.859s-2.281,1.359-3.125,2.375
				c-0.859,1.023-1.516,2.242-1.969,3.664C80.203,27.406,79.984,29,79.984,30.719z"/>
			<path fill="#E64A19" d="M148.922,30.719c0,3.094-0.516,5.813-1.531,8.125s-2.469,4.219-4.328,5.734s-4.141,2.656-6.828,3.422
				c-2.688,0.75-5.703,1.125-9.047,1.125c-1.516,0-3.297-0.063-5.328-0.188c-2.031-0.109-4.031-0.359-6-0.75V13.281
				c1.969-0.344,4-0.578,6.125-0.703c2.125-0.117,3.953-0.18,5.469-0.18c3.25,0,6.172,0.344,8.813,1.039
				c2.625,0.688,4.875,1.773,6.781,3.258c1.875,1.484,3.328,3.383,4.344,5.688S148.922,27.469,148.922,30.719z M124.359,42.094
				c0.406,0.031,0.859,0.063,1.391,0.078c0.516,0.016,1.141,0.016,1.875,0.016c4.25,0,7.391-1,9.453-3.031
				c2.047-2.047,3.063-4.859,3.063-8.438c0-3.766-0.969-6.609-2.938-8.539c-1.953-1.93-5.063-2.898-9.313-2.898
				c-0.563,0-1.172,0.008-1.781,0.023c-0.625,0.023-1.203,0.063-1.75,0.133V42.094z"/>
			<path fill="#E64A19" d="M167.328,12.398c5.625,0,9.938,0.945,12.953,2.82c3.016,1.883,4.516,4.961,4.516,9.234
				c0,4.313-1.516,7.422-4.563,9.328c-3.063,1.922-7.406,2.875-13.078,2.875h-2.672v12H156V13.328
				c1.859-0.344,3.797-0.586,5.875-0.719C163.953,12.469,165.766,12.398,167.328,12.398z M167.859,19.281
				c-0.609,0-1.219,0.016-1.813,0.055c-0.594,0.031-1.125,0.063-1.563,0.102v10.344h2.672c2.953,0,5.156-0.375,6.641-1.141
				c1.5-0.766,2.25-2.172,2.25-4.234c0-1.008-0.203-1.828-0.594-2.484c-0.375-0.656-0.906-1.188-1.625-1.578
				c-0.703-0.398-1.563-0.672-2.594-0.828C170.234,19.359,169.109,19.281,167.859,19.281z"/>
		</g>
	</g>
</g>
</svg>
