<?xml version="1.0" encoding="utf-8"?>
<!-- Generator: Adobe Illustrator 21.0.0, SVG Export Plug-In . SVG Version: 6.00 Build 0)  -->
<svg version="1.1" id="图层_1" xmlns="http://www.w3.org/2000/svg" xmlns:xlink="http://www.w3.org/1999/xlink" x="0px" y="0px"
	 viewBox="0 0 256 256" style="enable-background:new 0 0 256 256;" xml:space="preserve">
<style type="text/css">
	.st0{opacity:0.08;enable-background:new    ;}
	.st1{opacity:0.1;enable-background:new    ;}
	.st2{opacity:0.2;enable-background:new    ;}
	.st3{fill:#3E2723;}
	.st4{fill:url(#SVGID_1_);}
	.st5{fill:#795548;fill-opacity:0.7;}
	.st6{opacity:0.39;fill:#FFFFFF;enable-background:new    ;}
	.st7{fill:#FFFFFF;}
	.st8{opacity:0.8;fill:#FFFFFF;enable-background:new    ;}
	.st9{enable-background:new    ;}
	.st10{fill:#5D4037;}
</style>
<polygon class="st0" points="34.1,256 34.1,4 225.9,4 225.9,185 154.9,256 "/>
<polygon class="st1" points="36.1,254 36.1,6 223.9,6 223.9,184.2 154,254 "/>
<polygon class="st2" points="34.1,252 34.1,4 221.9,4 221.9,182.2 152,252 "/>
<polygon class="st3" points="36.1,250 36.1,6 219.9,6 219.9,181.3 151.2,250 "/>
<g>
	<g>
		
			<linearGradient id="SVGID_1_" gradientUnits="userSpaceOnUse" x1="169.6001" y1="-425.9004" x2="169.6001" y2="-665.9004" gradientTransform="matrix(1 0 0 -1 -41.6001 -417.9004)">
			<stop  offset="0" style="stop-color:#785548"/>
			<stop  offset="1" style="stop-color:#9F9E9F"/>
		</linearGradient>
		<polygon class="st4" points="38.1,248 38.1,8 217.9,8 217.9,180.4 151.1,248 		"/>
		<polygon class="st5" points="217.9,180.5 217.9,177.6 146.7,177.6 146.7,248 150.4,248 		"/>
		<path class="st6" d="M150.3,180.5l67.6,0.1L150.4,248L150.3,180.5z"/>
	</g>
	<path class="st7" d="M102.4,54.3h-6.1v77.9h-4.6V54.3h-6.1v77.9H81V54.3h-6.1v77.9h-4.6V54.3h-6.1v77.9h-1.6v33h41.7v-33h-2.1
		L102.4,54.3L102.4,54.3z M98.4,155.6H68.8v-19.1h29.6V155.6z"/>
	<g>
		<rect x="38.1" y="8" class="st8" width="179.9" height="46"/>
		<g class="st9">
			<path class="st10" d="M68.6,42.8c1.2,0,2.2-0.1,3-0.3s1.4-0.5,1.9-0.8s0.8-0.7,1-1.2s0.3-1,0.3-1.5c0-1.2-0.6-2.1-1.8-2.9
				c-1.2-0.8-3.2-1.6-6-2.5c-1.2-0.4-2.5-0.9-3.7-1.4S61,31,60,30.2s-1.8-1.8-2.4-3C57,26,56.7,24.6,56.7,23c0-1.7,0.3-3.1,1-4.5
				s1.6-2.5,2.8-3.4s2.7-1.6,4.4-2.1s3.6-0.8,5.8-0.8c2.5,0,4.7,0.3,6.6,0.8s3.4,1.1,4.6,1.7l-2.5,6.4c-1-0.5-2.2-1-3.5-1.4
				s-2.8-0.6-4.6-0.6c-2,0-3.5,0.3-4.4,0.8s-1.3,1.4-1.3,2.5c0,0.7,0.2,1.2,0.5,1.7s0.8,0.9,1.4,1.2c0.6,0.4,1.3,0.7,2.1,1
				c0.8,0.3,1.6,0.6,2.6,0.9c2,0.7,3.7,1.4,5.1,2s2.7,1.5,3.6,2.4c1,0.9,1.7,2,2.2,3.2c0.5,1.2,0.7,2.7,0.7,4.4
				c0,3.3-1.2,5.9-3.7,7.8c-2.5,1.9-6.2,2.8-11.2,2.8c-1.7,0-3.2-0.1-4.5-0.3s-2.5-0.4-3.6-0.7s-1.9-0.6-2.7-0.9
				c-0.7-0.3-1.4-0.6-1.9-0.9l2.4-6.4c1.1,0.6,2.5,1.1,4.2,1.6C64.1,42.5,66.2,42.8,68.6,42.8z"/>
			<path class="st10" d="M112.7,13.1h8.5V49h-8.5V33.7H98.5v15.2H90V13.1h8.5v13.7h14.3V13.1H112.7z"/>
			<path class="st10" d="M155.2,48.9c-0.4-1.3-0.9-2.5-1.3-3.8s-1-2.6-1.4-3.9h-14.8c-0.5,1.3-1,2.6-1.4,3.9
				c-0.5,1.3-0.9,2.6-1.3,3.8h-8.8c1.4-3.9,2.8-7.4,4-10.7c1.3-3.3,2.5-6.4,3.7-9.3s2.4-5.6,3.6-8.3c1.2-2.6,2.4-5.1,3.7-7.6h8
				c1.3,2.5,2.5,5,3.7,7.6s2.4,5.4,3.6,8.3s2.5,6,3.8,9.3s2.6,6.8,4,10.7C164.4,48.9,155.2,48.9,155.2,48.9z M145.1,21.2
				c-0.2,0.5-0.5,1.2-0.8,2.1c-0.4,0.9-0.8,1.9-1.3,3.1s-1,2.5-1.6,3.9s-1.2,2.9-1.8,4.4h10.8c-0.6-1.6-1.1-3-1.7-4.5
				c-0.5-1.4-1-2.7-1.5-3.9c-0.5-1.2-0.9-2.2-1.3-3.1C145.6,22.4,145.3,21.7,145.1,21.2z"/>
			<path class="st10" d="M180.2,12.7c5.7,0,10,1,13,2.9s4.5,4.9,4.5,8.9c0,2.5-0.6,4.6-1.8,6.1c-1.2,1.5-3,2.8-5.3,3.7
				c0.8,0.9,1.5,1.9,2.4,3.1c0.8,1.2,1.7,2.4,2.5,3.6c0.8,1.3,1.6,2.6,2.4,3.9s1.5,2.7,2.1,4h-9.5c-0.7-1.2-1.4-2.4-2.1-3.6
				c-0.7-1.2-1.4-2.4-2.2-3.5s-1.5-2.2-2.2-3.2s-1.4-1.9-2.2-2.8h-4.2v13.1h-8.5V13.6c1.9-0.3,3.8-0.6,5.7-0.7
				C176.9,12.7,178.7,12.7,180.2,12.7z M180.7,19.5c-0.6,0-1.2,0-1.7,0.1c-0.5,0-1,0.1-1.4,0.1v9.7h2.4c3.2,0,5.5-0.4,6.9-1.1
				c1.4-0.8,2.1-2.1,2.1-3.9s-0.7-3-2.1-3.8S183.5,19.5,180.7,19.5z"/>
		</g>
	</g>
</g>
</svg>
