<?xml version="1.0" encoding="utf-8"?>
<!-- Generator: Adobe Illustrator 16.0.0, SVG Export Plug-In . SVG Version: 6.00 Build 0)  -->
<!DOCTYPE svg PUBLIC "-//W3C//DTD SVG 1.1//EN" "http://www.w3.org/Graphics/SVG/1.1/DTD/svg11.dtd">
<svg version="1.1" id="图层_1" xmlns="http://www.w3.org/2000/svg" xmlns:xlink="http://www.w3.org/1999/xlink" x="0px" y="0px"
	 width="256px" height="256px" viewBox="0 0 256 256" enable-background="new 0 0 256 256" xml:space="preserve">
<g id="surface1">
	<polygon opacity="0.08" enable-background="new    " points="34.5,256 34.5,4 225.5,4 225.5,185.031 154.531,256 	"/>
	<polygon opacity="0.1" enable-background="new    " points="36.5,254 36.5,6 223.5,6 223.5,184.203 153.703,254 	"/>
	<polygon opacity="0.2" enable-background="new    " points="34.5,252 34.5,4 221.5,4 221.5,182.203 151.703,252 	"/>
	<g>
		
			<linearGradient id="SVGID_1_" gradientUnits="userSpaceOnUse" x1="336.001" y1="-1711.9512" x2="336.001" y2="-1467.9512" gradientTransform="matrix(1 0 0 -1 -208.0005 -1461.9512)">
			<stop  offset="0" style="stop-color:#512DA8"/>
			<stop  offset="0.008" style="stop-color:#D32F2F"/>
			<stop  offset="0.3041" style="stop-color:#E33932"/>
			<stop  offset="0.6579" style="stop-color:#F04035"/>
			<stop  offset="1" style="stop-color:#F44336"/>
		</linearGradient>
		<path fill="url(#SVGID_1_)" d="M150.875,250l68.625-68.625V6h-183v244H150.875z"/>
		<polygon fill="#B71C1C" fill-opacity="0.3922" points="147.063,177.563 147.063,250 150.875,250 219.5,181.375 219.5,177.563 		
			"/>
		<path fill="#FFFFFF" fill-opacity="0.3922" d="M150.875,181.375h68.566L150.875,250V181.375z"/>
		<path opacity="0.8" fill="#FFFFFF" d="M97.5,155.985V99.751l-10.901,9.083l-9.443-18.644L99.48,72.111h13.27
			c8.668,5.421,23.113,4.587,30.5,0h12.72l22.875,17.247l-9.412,18.615L158.5,98.351v57.635H97.5z"/>
		<g>
			<path fill="#B71C1C" d="M217.5,8v172.547L150.047,248H97.5h-59V8H217.5 M219.5,6h-183v244h61h53.375l68.625-68.625V6L219.5,6z"/>
		</g>
	</g>
</g>
</svg>
