<?xml version="1.0" encoding="utf-8"?>
<!-- Generator: Adobe Illustrator 21.0.0, SVG Export Plug-In . SVG Version: 6.00 Build 0)  -->
<svg version="1.1" id="图层_1" xmlns="http://www.w3.org/2000/svg" xmlns:xlink="http://www.w3.org/1999/xlink" x="0px" y="0px"
	 viewBox="0 0 256 256" style="enable-background:new 0 0 256 256;" xml:space="preserve">
<style type="text/css">
	.st0{opacity:0.08;enable-background:new    ;}
	.st1{opacity:0.1;enable-background:new    ;}
	.st2{opacity:0.2;enable-background:new    ;}
	.st3{fill:#3E2723;}
	.st4{fill:url(#SVGID_1_);}
	.st5{fill:#795548;fill-opacity:0.7;}
	.st6{opacity:0.39;fill:#FFFFFF;enable-background:new    ;}
	.st7{fill:#FFFFFF;}
	.st8{opacity:0.8;fill:#FFFFFF;enable-background:new    ;}
	.st9{enable-background:new    ;}
	.st10{fill:#5D4037;}
</style>
<polygon class="st0" points="34.1,256 34.1,4 225.9,4 225.9,185 154.9,256 "/>
<polygon class="st1" points="36.1,254 36.1,6 223.9,6 223.9,184.2 154,254 "/>
<polygon class="st2" points="34.1,252 34.1,4 221.9,4 221.9,182.2 152,252 "/>
<polygon class="st3" points="36.1,250 36.1,6 219.9,6 219.9,181.3 151.2,250 "/>
<g>
	<g>
		
			<linearGradient id="SVGID_1_" gradientUnits="userSpaceOnUse" x1="169.6001" y1="-425.9004" x2="169.6" y2="-665.9005" gradientTransform="matrix(1 0 0 -1 -41.6001 -417.9004)">
			<stop  offset="0" style="stop-color:#785548"/>
			<stop  offset="1" style="stop-color:#9F9E9F"/>
		</linearGradient>
		<polygon class="st4" points="38.1,248 38.1,8 217.9,8 217.9,180.4 151.1,248 		"/>
		<polygon class="st5" points="217.9,180.5 217.9,177.6 146.7,177.6 146.7,248 150.4,248 		"/>
		<path class="st6" d="M150.3,180.5l67.6,0.1L150.4,248L150.3,180.5z"/>
	</g>
	<path class="st7" d="M102.3,54.3h-6.1v77.9h-4.6V54.3h-6v77.9H81V54.3h-6v77.9h-4.6V54.3h-6.1v77.9h-1.6v33h41.7v-33h-2.1
		L102.3,54.3L102.3,54.3z M98.3,155.6H68.7v-19.1h29.6C98.3,136.5,98.3,155.6,98.3,155.6z"/>
	<g>
		<g>
			<rect x="38.1" y="8" class="st8" width="179.8" height="46"/>
			<g class="st9">
				<path class="st10" d="M116.2,18.7c-1.2,1.1-2.5,2.6-4.1,4.4s-3.2,3.8-5,5.9c-1.7,2.1-3.4,4.3-5.1,6.6s-3.1,4.4-4.5,6.5h19.2v6.8
					H87.2v-4.8c1-1.8,2.3-3.7,3.7-5.9c1.5-2.2,3-4.3,4.6-6.5s3.2-4.3,4.9-6.4c1.7-2,3.2-3.9,4.6-5.5H88V13h28.2V18.7z"/>
				<path class="st10" d="M122.8,13.1h8.5v35.8h-8.5V13.1z"/>
				<path class="st10" d="M151.3,12.7c5.6,0,10,0.9,12.9,2.8c3,1.9,4.6,5,4.6,9.2c0,4.3-1.5,7.4-4.6,9.3c-3,1.9-7.4,2.9-13.1,2.9
					h-2.6v12H140V13.6c1.9-0.4,3.8-0.6,5.9-0.7C147.9,12.7,149.8,12.7,151.3,12.7z M151.9,19.5c-0.6,0-1.2,0-1.8,0.1
					c-0.6,0-1.1,0.1-1.6,0.1V30h2.6c3,0,5.2-0.4,6.7-1.1s2.2-2.2,2.2-4.2c0-1-0.2-1.8-0.6-2.5c-0.4-0.7-0.9-1.2-1.6-1.6
					c-0.7-0.4-1.6-0.7-2.6-0.8C154.2,19.6,153.1,19.5,151.9,19.5z"/>
			</g>
		</g>
	</g>
</g>
</svg>
