<?xml version="1.0" encoding="utf-8"?>
<!-- Generator: Adobe Illustrator 16.0.0, SVG Export Plug-In . SVG Version: 6.00 Build 0)  -->
<!DOCTYPE svg PUBLIC "-//W3C//DTD SVG 1.1//EN" "http://www.w3.org/Graphics/SVG/1.1/DTD/svg11.dtd">
<svg version="1.1" id="图层_1" xmlns="http://www.w3.org/2000/svg" xmlns:xlink="http://www.w3.org/1999/xlink" x="0px" y="0px"
	 width="256px" height="256px" viewBox="0 0 256 256" enable-background="new 0 0 256 256" xml:space="preserve">
<polygon opacity="0.08" enable-background="new    " points="34.1,256 34.1,4 225.9,4 225.9,185 154.9,256 "/>
<polygon opacity="0.1" enable-background="new    " points="36.1,254 36.1,6 223.9,6 223.9,184.2 154,254 "/>
<polygon opacity="0.2" enable-background="new    " points="34.1,252 34.1,4 221.9,4 221.9,182.2 152,252 "/>
<polygon fill="#01579B" points="36.1,250 36.1,6 219.9,6 219.9,181.3 151.2,250 "/>
<circle opacity="0.8" fill="#FFFFFF" enable-background="new    " cx="159.9" cy="95.5" r="12.7"/>
<path opacity="0.8" fill="#FFFFFF" enable-background="new    " d="M65.5,69v82h125V69H65.5z M181.5,78v64l0,0l-29-20.6l-20.7,12.7
	L105.2,102l-30.7,40V78H181.5z"/>
<g>
	<g>
		<g>
			<g>
				
					<linearGradient id="SVGID_1_" gradientUnits="userSpaceOnUse" x1="211.1895" y1="-574.8003" x2="211.1894" y2="-334.8008" gradientTransform="matrix(1 0 0 -1 -83.2002 -326.8008)">
					<stop  offset="0" style="stop-color:#2196F3"/>
					<stop  offset="0.5828" style="stop-color:#3DBAE8"/>
					<stop  offset="1" style="stop-color:#4DD0E1"/>
				</linearGradient>
				<polygon fill="url(#SVGID_1_)" points="38.083,248 38.083,8 217.896,8 217.896,180.5 150.396,248 				"/>
			</g>
			<polygon fill="#01579B" fill-opacity="0.39" points="217.896,180.5 217.896,177.594 146.692,177.594 146.692,248 150.396,248 			
				"/>
			<path fill="#FFFFFF" fill-opacity="0.3922" d="M150.302,180.5l67.609,0.094L150.396,248L150.302,180.5z"/>
		</g>
		<g>
			<path opacity="0.8" fill="#FFFFFF" enable-background="new    " d="M159.896,91.797c7.016,0,12.703,5.688,12.703,12.711
				c0,7.016-5.688,12.703-12.703,12.703s-12.703-5.688-12.703-12.703C147.192,97.484,152.88,91.797,159.896,91.797z"/>
			<path opacity="0.8" fill="#FFFFFF" enable-background="new    " d="M65.497,78.008V160h125.008V78.008H65.497z M181.489,87v64
				l0,0l-29-20.594l-20.711,12.688L105.192,111l-30.711,40V87H181.489z"/>
		</g>
	</g>
	<g>
		<rect x="38.044" y="8" opacity="0.8" fill="#FFFFFF" enable-background="new    " width="179.914" height="46"/>
		<g enable-background="new    ">
			<path fill="#0288D1" d="M106.872,19.023c-3.953,0-6.813,1.039-8.578,3.125c-1.766,2.094-2.641,4.945-2.641,8.563
				c0,1.758,0.219,3.359,0.656,4.789s1.094,2.664,1.953,3.695c0.875,1.039,1.969,1.836,3.266,2.406
				c1.313,0.57,2.844,0.852,4.578,0.852c0.953,0,1.75-0.016,2.438-0.047c0.656-0.039,1.25-0.102,1.766-0.211V29.727h8.484v17.75
				c-1,0.375-2.641,0.781-4.891,1.211c-2.266,0.43-5.031,0.648-8.344,0.648c-2.828,0-5.391-0.414-7.703-1.242
				c-2.297-0.828-4.266-2.031-5.906-3.617c-1.625-1.586-2.891-3.539-3.781-5.852c-0.891-2.305-1.344-4.945-1.344-7.914
				c0-3,0.5-5.656,1.484-7.961c0.969-2.313,2.313-4.273,4.016-5.875c1.719-1.602,3.719-2.82,6.031-3.648
				c2.297-0.828,4.75-1.242,7.375-1.242c1.781,0,3.375,0.117,4.813,0.336c1.438,0.227,2.672,0.484,3.719,0.781
				c1.031,0.289,1.875,0.594,2.547,0.906c0.672,0.305,1.156,0.547,1.453,0.719l-2.469,6.469c-1.156-0.586-2.484-1.094-4-1.523
				C110.294,19.234,108.653,19.023,106.872,19.023z"/>
			<path fill="#0288D1" d="M126.7,12.813h8.5v35.852h-8.5V12.813z"/>
			<path fill="#0288D1" d="M143.896,48.664V12.813h25.281v6.781h-16.781v7.5h14.938v6.773h-14.938v14.797H143.896z"/>
		</g>
	</g>
</g>
</svg>
