<?xml version="1.0" encoding="utf-8"?>
<!-- Generator: Adobe Illustrator 21.0.0, SVG Export Plug-In . SVG Version: 6.00 Build 0)  -->
<svg version="1.1" id="图层_1" xmlns="http://www.w3.org/2000/svg" xmlns:xlink="http://www.w3.org/1999/xlink" x="0px" y="0px"
	 viewBox="0 0 256 256" style="enable-background:new 0 0 256 256;" xml:space="preserve">
<style type="text/css">
	.st0{opacity:0.08;enable-background:new    ;}
	.st1{opacity:0.1;enable-background:new    ;}
	.st2{opacity:0.2;enable-background:new    ;}
	.st3{fill:#E65100;}
	.st4{fill:url(#SVGID_1_);}
	.st5{fill:#E65100;fill-opacity:0.3922;}
	.st6{fill:#FFFFFF;fill-opacity:0.3922;}
	.st7{opacity:0.8;}
	.st8{fill:#FFFFFF;}
	.st9{opacity:0.8;fill:#FFFFFF;enable-background:new    ;}
	.st10{enable-background:new    ;}
	.st11{fill:#E64A19;}
</style>
<polygon class="st0" points="34.1,256 34.1,4 225.9,4 225.9,185 154.9,256 "/>
<polygon class="st1" points="36.1,254 36.1,6 223.9,6 223.9,184.2 154,254 "/>
<polygon class="st2" points="34.1,252 34.1,4 221.9,4 221.9,182.2 152,252 "/>
<polygon class="st3" points="36.1,250 36.1,6 219.9,6 219.9,181.3 151.2,250 "/>
<g>
	<g>
		<g>
			
				<linearGradient id="SVGID_1_" gradientUnits="userSpaceOnUse" x1="169.6001" y1="-665.9004" x2="169.6001" y2="-425.9004" gradientTransform="matrix(1 0 0 -1 -41.6001 -417.9004)">
				<stop  offset="0" style="stop-color:#EE6F0B"/>
				<stop  offset="1" style="stop-color:#FFB74D"/>
			</linearGradient>
			<polygon class="st4" points="38.1,248 38.1,8 217.9,8 217.9,180.5 150.4,248 			"/>
		</g>
		<polygon class="st5" points="217.9,180.5 217.9,177.6 146.7,177.6 146.7,248 150.4,248 		"/>
		<path class="st6" d="M150.3,180.5l67.6,0.1L150.4,248L150.3,180.5z"/>
	</g>
	<g class="st7">
		<rect x="61.5" y="100.4" class="st8" width="19.2" height="96.2"/>
		<rect x="93.5" y="148.4" class="st8" width="19.2" height="48.1"/>
		<rect x="125.4" y="168" class="st8" width="19.2" height="28.8"/>
		<g>
			<path class="st8" d="M151.5,83.4l0.2,38.3l38.3-0.2c0.1,21.2-17,38.4-38.2,38.5s-38.4-17-38.5-38.2
				C113.2,100.7,130.3,83.5,151.5,83.4z"/>
			<path class="st8" d="M156,79c21.2-0.1,38.4,17,38.5,38.2l-38.3,0.2L156,79z"/>
		</g>
	</g>
	<g>
		<rect x="38" y="8" class="st9" width="179.9" height="46"/>
		<g class="st10">
			<path class="st11" d="M108.8,30.7c0,3.1-0.5,5.8-1.4,8.1c-1,2.3-2.3,4.3-4,5.8s-3.7,2.8-6,3.5c-2.3,0.8-4.8,1.2-7.4,1.2
				s-5-0.4-7.3-1.2s-4.3-2-6-3.5c-1.7-1.6-3-3.5-4-5.8s-1.5-5-1.5-8.1s0.5-5.8,1.5-8.1s2.4-4.3,4.1-5.9s3.7-2.8,6-3.6
				s4.6-1.2,7.2-1.2s5,0.4,7.3,1.2s4.3,2,6,3.6s3,3.5,4,5.9C108.3,24.9,108.8,27.6,108.8,30.7z M80,30.7c0,1.8,0.2,3.3,0.7,4.8
				c0.5,1.4,1.1,2.6,2,3.7c0.8,1,1.9,1.8,3.1,2.3c1.2,0.6,2.7,0.8,4.3,0.8c1.6,0,3-0.3,4.2-0.8c1.3-0.5,2.3-1.3,3.2-2.3
				c0.9-1,1.5-2.2,2-3.7c0.5-1.4,0.7-3,0.7-4.8s-0.2-3.4-0.7-4.8s-1.1-2.7-2-3.7s-1.9-1.8-3.2-2.4C93,19.3,91.6,19,90.1,19
				c-1.6,0-3,0.3-4.3,0.9s-2.3,1.4-3.1,2.4c-0.9,1-1.5,2.2-2,3.7C80.2,27.4,80,29,80,30.7z"/>
			<path class="st11" d="M148.9,30.7c0,3.1-0.5,5.8-1.5,8.1s-2.5,4.2-4.3,5.7s-4.1,2.7-6.8,3.4c-2.7,0.8-5.7,1.1-9,1.1
				c-1.5,0-3.3-0.1-5.3-0.2c-2-0.1-4-0.4-6-0.8V13.3c2-0.3,4-0.6,6.1-0.7c2.1-0.1,4-0.2,5.5-0.2c3.2,0,6.2,0.3,8.8,1
				c2.6,0.7,4.9,1.8,6.8,3.3c1.9,1.5,3.3,3.4,4.3,5.7S148.9,27.5,148.9,30.7z M124.4,42.1c0.4,0,0.9,0.1,1.4,0.1s1.1,0,1.9,0
				c4.3,0,7.4-1,9.5-3c2-2,3.1-4.9,3.1-8.4c0-3.8-1-6.6-2.9-8.5c-2-1.9-5.1-2.9-9.3-2.9c-0.6,0-1.2,0-1.8,0c-0.6,0-1.2,0.1-1.8,0.1
				v22.6H124.4z"/>
			<path class="st11" d="M167.3,12.4c5.6,0,9.9,0.9,13,2.8c3,1.9,4.5,5,4.5,9.2c0,4.3-1.5,7.4-4.6,9.3s-7.4,2.9-13.1,2.9h-2.7v12
				H156V13.3c1.9-0.3,3.8-0.6,5.9-0.7C164,12.5,165.8,12.4,167.3,12.4z M167.9,19.3c-0.6,0-1.2,0-1.8,0.1c-0.6,0-1.1,0.1-1.6,0.1
				v10.3h2.7c3,0,5.2-0.4,6.6-1.1c1.5-0.8,2.3-2.2,2.3-4.2c0-1-0.2-1.8-0.6-2.5c-0.4-0.7-0.9-1.2-1.6-1.6c-0.7-0.4-1.6-0.7-2.6-0.8
				C170.2,19.4,169.1,19.3,167.9,19.3z"/>
		</g>
	</g>
</g>
</svg>
