<?xml version="1.0" encoding="utf-8"?>
<!-- Generator: Adobe Illustrator 16.0.0, SVG Export Plug-In . SVG Version: 6.00 Build 0)  -->
<!DOCTYPE svg PUBLIC "-//W3C//DTD SVG 1.1//EN" "http://www.w3.org/Graphics/SVG/1.1/DTD/svg11.dtd">
<svg version="1.1" id="图层_1" xmlns="http://www.w3.org/2000/svg" xmlns:xlink="http://www.w3.org/1999/xlink" x="0px" y="0px"
	 width="256px" height="256px" viewBox="0 0 256 256" enable-background="new 0 0 256 256" xml:space="preserve">
<polygon opacity="0.08" enable-background="new    " points="34.1,256 34.1,4 225.9,4 225.9,185 154.9,256 "/>
<polygon opacity="0.1" enable-background="new    " points="36.1,254 36.1,6 223.9,6 223.9,184.2 154,254 "/>
<polygon opacity="0.2" enable-background="new    " points="34.1,252 34.1,4 221.9,4 221.9,182.2 152,252 "/>
<polygon fill="#3E2723" points="36.1,250 36.1,6 219.9,6 219.9,181.3 151.2,250 "/>
<g>
	<g>
		
			<linearGradient id="SVGID_1_" gradientUnits="userSpaceOnUse" x1="169.6074" y1="84.0996" x2="169.6074" y2="-155.9009" gradientTransform="matrix(1 0 0 -1 -41.6001 92.0996)">
			<stop  offset="0" style="stop-color:#785548"/>
			<stop  offset="1" style="stop-color:#9F9E9F"/>
		</linearGradient>
		<polygon fill="url(#SVGID_1_)" points="38.102,248 38.102,8 217.914,8 217.914,180.406 151.07,248 		"/>
		<polygon fill="#795548" fill-opacity="0.7" points="217.914,180.5 217.914,177.594 146.727,177.594 146.727,248 150.414,248 		"/>
		<path opacity="0.39" fill="#FFFFFF" enable-background="new    " d="M150.32,180.5l67.594,0.094L150.414,248L150.32,180.5z"/>
	</g>
	<path fill="#FFFFFF" d="M102.352,54.266h-6.094v77.938h-4.594V54.266h-6.063v77.938h-4.594V54.266h-6.063v77.938h-4.594V54.266
		h-6.063v77.938h-1.594v33.016h41.719v-33.016h-2.063V54.266z M98.352,155.625H68.758v-19.141h29.594V155.625z"/>
	<g>
		<rect x="38.055" y="8" opacity="0.8" fill="#FFFFFF" enable-background="new    " width="179.891" height="46"/>
		<g enable-background="new    ">
			<path fill="#5D4037" d="M93.102,49.656c-6.141,0-10.813-1.625-14.031-4.875c-3.203-3.234-4.813-7.836-4.813-13.805
				c0-2.961,0.484-5.609,1.469-7.938s2.328-4.297,4.031-5.898s3.734-2.82,6.094-3.648s4.922-1.242,7.688-1.242
				c1.594,0,3.047,0.117,4.344,0.336c1.313,0.227,2.453,0.484,3.438,0.781c0.984,0.289,1.797,0.594,2.453,0.906
				c0.656,0.305,1.125,0.547,1.406,0.719l-2.438,6.523c-1.172-0.586-2.516-1.086-4.063-1.5s-3.297-0.625-5.25-0.625
				c-1.313,0-2.594,0.211-3.844,0.625S87.227,21.094,86.258,22c-0.953,0.914-1.734,2.102-2.313,3.547s-0.859,3.211-0.859,5.273
				c0,1.656,0.188,3.203,0.563,4.633c0.391,1.43,1,2.664,1.859,3.703c0.844,1.031,1.969,1.844,3.344,2.453s3.047,0.906,5.016,0.906
				c1.234,0,2.328-0.078,3.313-0.203c0.984-0.141,1.859-0.313,2.609-0.5c0.766-0.188,1.438-0.406,2.016-0.641
				c0.594-0.234,1.109-0.469,1.578-0.672l2.344,6.469c-1.188,0.688-2.875,1.313-5.063,1.859
				C98.492,49.375,95.961,49.656,93.102,49.656z"/>
			<path fill="#5D4037" d="M138.023,48.938c-0.438-1.25-0.875-2.531-1.359-3.844s-0.969-2.625-1.438-3.922h-14.75
				c-0.469,1.297-0.953,2.609-1.422,3.922c-0.484,1.313-0.922,2.594-1.344,3.844h-8.813c1.406-3.875,2.766-7.438,4.031-10.719
				c1.281-3.273,2.531-6.359,3.75-9.258s2.422-5.648,3.594-8.25c1.188-2.602,2.422-5.148,3.688-7.633h8.063
				c1.234,2.484,2.453,5.031,3.656,7.633s2.406,5.352,3.641,8.25c1.219,2.898,2.469,5.984,3.734,9.258
				c1.281,3.281,2.625,6.844,4.063,10.719H138.023z M127.82,21.203c-0.203,0.516-0.469,1.227-0.844,2.125
				c-0.359,0.898-0.781,1.93-1.234,3.102c-0.469,1.18-1,2.469-1.563,3.883c-0.578,1.414-1.172,2.891-1.766,4.445h10.797
				c-0.578-1.555-1.141-3.039-1.688-4.461c-0.531-1.414-1.047-2.711-1.531-3.883c-0.5-1.18-0.922-2.211-1.281-3.109
				C128.336,22.414,128.039,21.711,127.82,21.203z"/>
			<path fill="#5D4037" d="M164.539,49.406c-2.078,0-4.141-0.063-6.172-0.188c-2.063-0.125-4.188-0.406-6.406-0.859V13.594
				c1.75-0.305,3.656-0.539,5.719-0.695s4-0.234,5.766-0.234c2.391,0,4.609,0.164,6.609,0.492c2.031,0.328,3.75,0.891,5.219,1.68
				c1.438,0.797,2.578,1.836,3.391,3.133c0.828,1.297,1.234,2.891,1.234,4.781c0,2.867-1.469,5.125-4.359,6.781
				c2.391,0.859,4.016,2.031,4.891,3.516s1.313,3.156,1.313,5.016c0,3.766-1.438,6.594-4.328,8.484S170.242,49.406,164.539,49.406z
				 M160.242,27.148h4.125c2.625,0,4.5-0.313,5.625-0.953s1.688-1.664,1.688-3.078c0-1.453-0.594-2.469-1.75-3.055
				s-2.875-0.875-5.125-0.875c-0.719,0-1.5,0.008-2.344,0.023c-0.828,0.016-1.563,0.063-2.219,0.125V27.148z M160.242,33.305v9.258
				c0.609,0.063,1.281,0.125,2,0.156c0.734,0.031,1.531,0.063,2.406,0.063c2.531,0,4.594-0.344,6.156-1.031
				c1.563-0.703,2.344-1.977,2.344-3.836c0-1.656-0.656-2.836-1.969-3.547c-1.313-0.703-3.188-1.063-5.609-1.063H160.242z"/>
		</g>
	</g>
</g>
</svg>
