<?xml version="1.0" encoding="utf-8"?>
<!-- Generator: Adobe Illustrator 16.0.0, SVG Export Plug-In . SVG Version: 6.00 Build 0)  -->
<!DOCTYPE svg PUBLIC "-//W3C//DTD SVG 1.1//EN" "http://www.w3.org/Graphics/SVG/1.1/DTD/svg11.dtd">
<svg version="1.1" id="图层_1" xmlns="http://www.w3.org/2000/svg" xmlns:xlink="http://www.w3.org/1999/xlink" x="0px" y="0px"
	 width="256px" height="256px" viewBox="0 0 256 256" enable-background="new 0 0 256 256" xml:space="preserve">
<polygon opacity="0.08" enable-background="new    " points="34.1,256 34.1,4 225.9,4 225.9,185 154.9,256 "/>
<polygon opacity="0.1" enable-background="new    " points="36.1,254 36.1,6 223.9,6 223.9,184.2 154,254 "/>
<polygon opacity="0.2" enable-background="new    " points="34.1,252 34.1,4 221.9,4 221.9,182.2 152,252 "/>
<polygon fill="#01579B" points="36.1,250 36.1,6 219.9,6 219.9,181.3 151.2,250 "/>
<circle opacity="0.8" fill="#FFFFFF" enable-background="new    " cx="159.9" cy="95.5" r="12.7"/>
<path opacity="0.8" fill="#FFFFFF" enable-background="new    " d="M65.5,69v82h125V69H65.5z M181.5,78v64l0,0l-29-20.6l-20.7,12.7
	L105.2,102l-30.7,40V78H181.5z"/>
<g>
	<g>
		<g>
			<g>
				
					<linearGradient id="SVGID_1_" gradientUnits="userSpaceOnUse" x1="211.1895" y1="-574.8003" x2="211.1894" y2="-334.8008" gradientTransform="matrix(1 0 0 -1 -83.2002 -326.8008)">
					<stop  offset="0" style="stop-color:#2196F3"/>
					<stop  offset="0.5828" style="stop-color:#3DBAE8"/>
					<stop  offset="1" style="stop-color:#4DD0E1"/>
				</linearGradient>
				<polygon fill="url(#SVGID_1_)" points="38.083,248 38.083,8 217.896,8 217.896,180.5 150.396,248 				"/>
			</g>
			<polygon fill="#01579B" fill-opacity="0.39" points="217.896,180.5 217.896,177.594 146.692,177.594 146.692,248 150.396,248 			
				"/>
			<path fill="#FFFFFF" fill-opacity="0.3922" d="M150.302,180.5l67.609,0.094L150.396,248L150.302,180.5z"/>
		</g>
		<g>
			<path opacity="0.8" fill="#FFFFFF" enable-background="new    " d="M159.896,91.797c7.016,0,12.703,5.688,12.703,12.711
				c0,7.016-5.688,12.703-12.703,12.703s-12.703-5.688-12.703-12.703C147.192,97.484,152.88,91.797,159.896,91.797z"/>
			<path opacity="0.8" fill="#FFFFFF" enable-background="new    " d="M65.497,78.008V160h125.008V78.008H65.497z M181.489,87v64
				l0,0l-29-20.594l-20.711,12.688L105.192,111l-30.711,40V87H181.489z"/>
		</g>
	</g>
	<g>
		<rect x="38.044" y="8" opacity="0.8" fill="#FFFFFF" enable-background="new    " width="179.914" height="46"/>
		<g enable-background="new    ">
			<path fill="#0288D1" d="M84.466,12.813h8.484v35.852h-8.484V12.813z"/>
			<path fill="#0288D1" d="M118.872,49.391c-6.141,0-10.813-1.625-14.031-4.867s-4.813-7.844-4.813-13.813
				c0-2.961,0.484-5.609,1.469-7.938c0.969-2.328,2.313-4.297,4.031-5.898c1.703-1.602,3.734-2.82,6.094-3.648
				s4.922-1.242,7.688-1.242c1.594,0,3.031,0.117,4.344,0.336c1.313,0.227,2.453,0.484,3.438,0.781
				c0.969,0.289,1.797,0.594,2.438,0.906c0.656,0.305,1.125,0.547,1.422,0.719l-2.453,6.523c-1.156-0.586-2.5-1.086-4.063-1.5
				c-1.531-0.414-3.281-0.625-5.25-0.625c-1.297,0-2.578,0.211-3.828,0.625c-1.266,0.414-2.359,1.078-3.328,1.984
				c-0.969,0.914-1.734,2.102-2.313,3.547s-0.875,3.211-0.875,5.273c0,1.656,0.188,3.203,0.578,4.633s1,2.664,1.859,3.703
				c0.844,1.031,1.969,1.852,3.344,2.453s3.047,0.906,5,0.906c1.25,0,2.344-0.07,3.328-0.211c0.984-0.133,1.859-0.297,2.609-0.484
				c0.766-0.195,1.438-0.406,2.016-0.648s1.109-0.469,1.578-0.672l2.344,6.461c-1.188,0.695-2.875,1.313-5.063,1.867
				C124.247,49.109,121.731,49.391,118.872,49.391z"/>
			<path fill="#0288D1" d="M171.521,30.711c0,3.07-0.469,5.773-1.438,8.102s-2.281,4.273-3.938,5.844
				c-1.688,1.57-3.656,2.75-5.969,3.539c-2.313,0.797-4.781,1.195-7.438,1.195c-2.594,0-5-0.398-7.313-1.195
				c-2.281-0.789-4.281-1.969-5.969-3.539c-1.719-1.57-3.063-3.516-4.023-5.844c-1-2.328-1.484-5.031-1.484-8.102
				s0.516-5.766,1.531-8.094c1.008-2.328,2.383-4.281,4.102-5.875c1.719-1.586,3.719-2.773,6-3.563
				c2.25-0.797,4.656-1.195,7.156-1.195c2.563,0,5,0.398,7.281,1.195c2.313,0.789,4.281,1.977,6,3.563
				c1.719,1.594,3.063,3.547,4.031,5.875S171.521,27.641,171.521,30.711z M142.708,30.711c0,1.758,0.25,3.352,0.688,4.758
				c0.469,1.422,1.094,2.633,1.969,3.648c0.844,1.023,1.875,1.805,3.125,2.359c1.219,0.547,2.656,0.828,4.25,0.828
				c1.563,0,2.969-0.281,4.219-0.828c1.25-0.555,2.313-1.336,3.156-2.359c0.844-1.016,1.5-2.227,1.969-3.648
				c0.438-1.406,0.688-3,0.688-4.758s-0.25-3.352-0.688-4.781c-0.469-1.43-1.125-2.656-1.969-3.672s-1.906-1.805-3.156-2.359
				c-1.25-0.547-2.656-0.828-4.219-0.828c-1.594,0-3.031,0.289-4.25,0.859c-1.25,0.57-2.281,1.359-3.125,2.375
				c-0.875,1.023-1.5,2.242-1.969,3.672C142.958,27.414,142.708,28.992,142.708,30.711z"/>
		</g>
	</g>
</g>
</svg>
