<?xml version="1.0" encoding="utf-8"?>
<!-- Generator: Adobe Illustrator 21.0.0, SVG Export Plug-In . SVG Version: 6.00 Build 0)  -->
<svg version="1.1" id="图层_1" xmlns="http://www.w3.org/2000/svg" xmlns:xlink="http://www.w3.org/1999/xlink" x="0px" y="0px"
	 viewBox="0 0 256 256" style="enable-background:new 0 0 256 256;" xml:space="preserve">
<style type="text/css">
	.st0{opacity:0.08;enable-background:new    ;}
	.st1{opacity:0.1;enable-background:new    ;}
	.st2{opacity:0.2;enable-background:new    ;}
	.st3{fill:#B71C1C;}
	.st4{fill:url(#SVGID_1_);}
	.st5{fill:#AE2124;fill-opacity:0.3922;}
	.st6{fill:#FFFFFF;fill-opacity:0.3922;}
	.st7{opacity:0.8;enable-background:new    ;}
	.st8{fill:#FFFFFF;}
	.st9{opacity:0.8;fill:#FFFFFF;enable-background:new    ;}
	.st10{enable-background:new    ;}
	.st11{fill:#E64A19;}
</style>
<polygon class="st0" points="34.1,256 34.1,4 225.9,4 225.9,185 154.9,256 "/>
<polygon class="st1" points="36.1,254 36.1,6 223.9,6 223.9,184.2 154,254 "/>
<polygon class="st2" points="34.1,252 34.1,4 221.9,4 221.9,182.2 152,252 "/>
<polygon class="st3" points="36.1,250 36.1,6 219.9,6 219.9,181.3 151.2,250 "/>
<g>
	<g>
		<g>
			
				<linearGradient id="SVGID_1_" gradientUnits="userSpaceOnUse" x1="211.1997" y1="-1084.8008" x2="211.1997" y2="-844.8008" gradientTransform="matrix(1 0 0 -1 -83.1997 -836.8008)">
				<stop  offset="0" style="stop-color:#C7312F"/>
				<stop  offset="0.1635" style="stop-color:#D9412C"/>
				<stop  offset="0.3476" style="stop-color:#E74E29"/>
				<stop  offset="0.5725" style="stop-color:#EA552A"/>
				<stop  offset="0.9516" style="stop-color:#EA582B"/>
			</linearGradient>
			<polygon class="st4" points="38.1,248 38.1,8 217.9,8 217.9,180.5 150.4,248 			"/>
		</g>
		<polygon class="st5" points="217.9,180.5 217.9,177.6 146.7,177.6 146.7,248 150.4,248 		"/>
		<path class="st6" d="M150.3,180.5l67.6,0.1L150.4,248L150.3,180.5z"/>
	</g>
	<g class="st7">
		<g>
			<path class="st8" d="M150.6,76.5c0.3,0.1,0.7,0.1,1,0.2C151.3,76.6,150.9,76.5,150.6,76.5z"/>
			<path class="st8" d="M148.1,76.1c0.4,0,0.7,0.1,1.1,0.1C148.8,76.2,148.5,76.2,148.1,76.1z"/>
			<path class="st8" d="M153,76.9c0.3,0.1,0.6,0.1,0.9,0.2C153.6,77,153.3,76.9,153,76.9z"/>
			<path class="st8" d="M155.4,77.3c0.3,0.1,0.6,0.1,0.8,0.2C155.9,77.4,155.7,77.3,155.4,77.3z"/>
			<path class="st8" d="M145.5,75.8c0.4,0,0.8,0.1,1.2,0.1C146.3,75.9,145.9,75.8,145.5,75.8z"/>
			<path class="st8" d="M159.9,78.3c0.2,0.1,0.4,0.1,0.7,0.2C160.3,78.4,160.1,78.3,159.9,78.3z"/>
			<path class="st8" d="M157.7,77.8c0.2,0.1,0.5,0.1,0.7,0.2C158.2,77.9,157.9,77.8,157.7,77.8z"/>
			<path class="st8" d="M74.4,89.2L74.4,89.2L74.4,89.2z"/>
			<path class="st8" d="M131.7,74.9c0.6,0,1.3,0,1.9,0C133,74.9,132.3,74.9,131.7,74.9z"/>
			<path class="st8" d="M162,78.8c0.2,0.1,0.4,0.1,0.6,0.2C162.4,78.9,162.2,78.9,162,78.8z"/>
			<path class="st8" d="M142.9,75.5c0.4,0,0.8,0.1,1.2,0.1C143.8,75.6,143.4,75.6,142.9,75.5z"/>
			<path class="st8" d="M122.4,74.9c0.6,0,1.2,0,1.9,0C123.7,74.9,123,74.9,122.4,74.9z"/>
			<path class="st8" d="M137.5,75.1c0.5,0,1,0.1,1.5,0.1C138.5,75.2,138,75.1,137.5,75.1z"/>
			<path class="st8" d="M140.3,75.3c0.5,0,0.9,0.1,1.4,0.1C141.2,75.4,140.7,75.3,140.3,75.3z"/>
			<path class="st8" d="M174.4,83.5c0,0,0.1,0,0.1,0.1C174.5,83.5,174.4,83.5,174.4,83.5z"/>
			<path class="st8" d="M179.2,86.7L179.2,86.7L179.2,86.7z"/>
			<path class="st8" d="M175.8,84.2C175.8,84.2,175.8,84.3,175.8,84.2C175.8,84.3,175.8,84.2,175.8,84.2z"/>
			<path class="st8" d="M177,85C177.1,85,177.1,85,177,85C177.1,85,177.1,85,177,85z"/>
			<path class="st8" d="M164.1,79.4c0.2,0,0.3,0.1,0.5,0.1C164.4,79.5,164.2,79.4,164.1,79.4z"/>
			<path class="st8" d="M180.1,87.5L180.1,87.5L180.1,87.5z"/>
			<path class="st8" d="M128,74.8c-0.9,0-1.9,0-2.8,0C126.1,74.8,127.1,74.8,128,74.8z"/>
			<path class="st8" d="M178.2,85.8L178.2,85.8L178.2,85.8z"/>
			<path class="st8" d="M169.7,81.3c0.1,0,0.2,0.1,0.3,0.1C169.9,81.4,169.8,81.3,169.7,81.3z"/>
			<path class="st8" d="M128,74.8c0.9,0,1.9,0,2.8,0C129.9,74.8,128.9,74.8,128,74.8z"/>
			<path class="st8" d="M166,80c0.1,0,0.3,0.1,0.4,0.1C166.3,80.1,166.2,80,166,80z"/>
			<path class="st8" d="M167.9,80.6c0.1,0,0.2,0.1,0.3,0.1C168.1,80.7,168,80.7,167.9,80.6z"/>
			<path class="st8" d="M171.4,82c0.1,0,0.2,0.1,0.2,0.1C171.5,82.1,171.4,82,171.4,82z"/>
			<path class="st8" d="M172.9,82.7c0.1,0,0.1,0.1,0.2,0.1C173.1,82.8,173,82.7,172.9,82.7z"/>
			<path class="st8" d="M134.7,75c0.5,0,1.1,0,1.6,0.1C135.8,75,135.2,75,134.7,75z"/>
			<path class="st8" d="M81.5,83.5c0.1,0,0.1-0.1,0.2-0.1C81.6,83.5,81.5,83.5,81.5,83.5z"/>
			<path class="st8" d="M80.1,84.3c0,0,0.1,0,0.1-0.1C80.2,84.2,80.2,84.3,80.1,84.3z"/>
			<path class="st8" d="M78.9,85.1C78.9,85,79,85,78.9,85.1C79,85,78.9,85,78.9,85.1z"/>
			<path class="st8" d="M82.9,82.8c0.1,0,0.1-0.1,0.2-0.1C83,82.7,82.9,82.8,82.9,82.8z"/>
			<path class="st8" d="M86,81.4c0.1,0,0.2-0.1,0.3-0.1C86.2,81.3,86.1,81.4,86,81.4z"/>
			<path class="st8" d="M84.4,82.1c0.1,0,0.2-0.1,0.3-0.1C84.6,82,84.5,82.1,84.4,82.1z"/>
			<path class="st8" d="M119.7,75c0.5,0,1.1,0,1.6-0.1C120.8,75,120.2,75,119.7,75z"/>
			<path class="st8" d="M128,112.1c-30.4,0-55-8.3-55-18.6v16.8c0,10.3,24.6,18.6,55,18.6s55-8.3,55-18.6l0,0V93.5
				C183,103.7,158.4,112.1,128,112.1z"/>
			<path class="st8" d="M73,92.9v0.6C73,93.3,73,93.1,73,92.9L73,92.9z"/>
			<path class="st8" d="M87.7,80.8c0.1,0,0.3-0.1,0.4-0.1C88,80.7,87.9,80.7,87.7,80.8z"/>
			<path class="st8" d="M76.8,86.7L76.8,86.7L76.8,86.7z"/>
			<path class="st8" d="M183,92.9c0,0.2,0,0.4,0,0.6V92.9L183,92.9z"/>
			<path class="st8" d="M75.1,88.4L75.1,88.4L75.1,88.4z"/>
			<path class="st8" d="M75.9,87.5L75.9,87.5L75.9,87.5z"/>
			<path class="st8" d="M77.8,85.9C77.8,85.8,77.8,85.8,77.8,85.9C77.8,85.8,77.8,85.8,77.8,85.9z"/>
			<path class="st8" d="M109.3,75.9c0.4,0,0.8-0.1,1.2-0.1C110.1,75.8,109.7,75.9,109.3,75.9z"/>
			<path class="st8" d="M106.8,76.3c0.4-0.1,0.7-0.1,1.1-0.1C107.5,76.2,107.2,76.2,106.8,76.3z"/>
			<path class="st8" d="M111.8,75.6c0.4,0,0.8-0.1,1.3-0.1C112.6,75.6,112.2,75.6,111.8,75.6z"/>
			<path class="st8" d="M89.5,80.1c0.1,0,0.3-0.1,0.4-0.1C89.8,80,89.7,80.1,89.5,80.1z"/>
			<path class="st8" d="M117,75.2c0.5,0,1-0.1,1.5-0.1C118,75.1,117.5,75.2,117,75.2z"/>
			<path class="st8" d="M104.4,76.6c0.3-0.1,0.7-0.1,1-0.2C105.1,76.5,104.7,76.6,104.4,76.6z"/>
			<path class="st8" d="M114.4,75.4c0.5,0,0.9-0.1,1.4-0.1C115.3,75.3,114.8,75.4,114.4,75.4z"/>
			<path class="st8" d="M93.4,79c0.2-0.1,0.4-0.1,0.6-0.2C93.8,78.9,93.6,78.9,93.4,79z"/>
			<path class="st8" d="M91.4,79.5c0.2-0.1,0.3-0.1,0.5-0.2C91.8,79.4,91.6,79.5,91.4,79.5z"/>
			<path class="st8" d="M95.4,78.4c0.2-0.1,0.5-0.1,0.7-0.2C95.9,78.3,95.7,78.4,95.4,78.4z"/>
			<path class="st8" d="M97.6,77.9c0.3-0.1,0.5-0.1,0.8-0.2C98.1,77.8,97.8,77.9,97.6,77.9z"/>
			<path class="st8" d="M99.8,77.5c0.3-0.1,0.6-0.1,0.9-0.2C100.3,77.3,100.1,77.4,99.8,77.5z"/>
			<path class="st8" d="M102.1,77c0.3-0.1,0.6-0.1,0.9-0.2C102.7,76.9,102.4,77,102.1,77z"/>
		</g>
		<g>
			<path class="st8" d="M150.6,96c0.3,0.1,0.7,0.1,1,0.2C151.3,96.1,150.9,96.1,150.6,96z"/>
			<path class="st8" d="M148.1,95.7c0.4,0,0.7,0.1,1.1,0.1C148.8,95.7,148.5,95.7,148.1,95.7z"/>
			<path class="st8" d="M153,96.4c0.3,0.1,0.6,0.1,0.9,0.2C153.6,96.5,153.3,96.5,153,96.4z"/>
			<path class="st8" d="M155.4,96.8c0.3,0.1,0.6,0.1,0.8,0.2C155.9,96.9,155.7,96.9,155.4,96.8z"/>
			<path class="st8" d="M145.5,95.3c0.4,0,0.8,0.1,1.2,0.1C146.3,95.4,145.9,95.4,145.5,95.3z"/>
			<path class="st8" d="M159.9,97.8c0.2,0.1,0.4,0.1,0.7,0.2C160.3,97.9,160.1,97.9,159.9,97.8z"/>
			<path class="st8" d="M157.7,97.3c0.2,0.1,0.5,0.1,0.7,0.2C158.2,97.4,157.9,97.4,157.7,97.3z"/>
			<path class="st8" d="M74.4,108.8L74.4,108.8L74.4,108.8z"/>
			<path class="st8" d="M131.7,94.4c0.6,0,1.3,0,1.9,0C133,94.4,132.3,94.4,131.7,94.4z"/>
			<path class="st8" d="M162,98.4c0.2,0.1,0.4,0.1,0.6,0.2C162.4,98.5,162.2,98.4,162,98.4z"/>
			<path class="st8" d="M142.9,95.1c0.4,0,0.8,0.1,1.2,0.1C143.8,95.1,143.4,95.1,142.9,95.1z"/>
			<path class="st8" d="M122.4,94.5c0.6,0,1.2,0,1.9,0C123.7,94.4,123,94.4,122.4,94.5z"/>
			<path class="st8" d="M137.5,94.6c0.5,0,1,0.1,1.5,0.1C138.5,94.7,138,94.7,137.5,94.6z"/>
			<path class="st8" d="M140.3,94.8c0.5,0,0.9,0.1,1.4,0.1C141.2,94.9,140.7,94.9,140.3,94.8z"/>
			<path class="st8" d="M174.4,103c0,0,0.1,0,0.1,0.1C174.5,103,174.4,103,174.4,103z"/>
			<path class="st8" d="M179.2,106.2L179.2,106.2L179.2,106.2z"/>
			<path class="st8" d="M175.8,103.8L175.8,103.8L175.8,103.8z"/>
			<path class="st8" d="M177,104.6C177.1,104.6,177.1,104.6,177,104.6C177.1,104.6,177.1,104.6,177,104.6z"/>
			<path class="st8" d="M164.1,98.9c0.2,0,0.3,0.1,0.5,0.1C164.4,99,164.2,99,164.1,98.9z"/>
			<path class="st8" d="M180.1,107L180.1,107L180.1,107z"/>
			<path class="st8" d="M128,94.4c-0.9,0-1.9,0-2.8,0C126.1,94.4,127.1,94.4,128,94.4z"/>
			<path class="st8" d="M178.2,105.4L178.2,105.4L178.2,105.4z"/>
			<path class="st8" d="M169.7,100.8c0.1,0,0.2,0.1,0.3,0.1C169.9,100.9,169.8,100.9,169.7,100.8z"/>
			<path class="st8" d="M128,94.4c0.9,0,1.9,0,2.8,0C129.9,94.4,128.9,94.4,128,94.4z"/>
			<path class="st8" d="M166,99.5c0.1,0,0.3,0.1,0.4,0.1C166.3,99.6,166.2,99.6,166,99.5z"/>
			<path class="st8" d="M167.9,100.2c0.1,0,0.2,0.1,0.3,0.1C168.1,100.3,168,100.2,167.9,100.2z"/>
			<path class="st8" d="M171.4,101.5c0.1,0,0.2,0.1,0.2,0.1C171.5,101.6,171.4,101.6,171.4,101.5z"/>
			<path class="st8" d="M172.9,102.3c0.1,0,0.1,0.1,0.2,0.1C173.1,102.3,173,102.3,172.9,102.3z"/>
			<path class="st8" d="M134.7,94.5c0.5,0,1.1,0,1.6,0.1C135.8,94.5,135.2,94.5,134.7,94.5z"/>
			<path class="st8" d="M81.5,103.1c0.1,0,0.1-0.1,0.2-0.1C81.6,103,81.5,103,81.5,103.1z"/>
			<path class="st8" d="M80.1,103.8c0,0,0.1,0,0.1-0.1C80.2,103.8,80.2,103.8,80.1,103.8z"/>
			<path class="st8" d="M78.9,104.6C78.9,104.6,79,104.6,78.9,104.6C79,104.6,78.9,104.6,78.9,104.6z"/>
			<path class="st8" d="M82.9,102.3c0.1,0,0.1-0.1,0.2-0.1C83,102.3,82.9,102.3,82.9,102.3z"/>
			<path class="st8" d="M86,101c0.1,0,0.2-0.1,0.3-0.1C86.2,100.9,86.1,100.9,86,101z"/>
			<path class="st8" d="M84.4,101.6c0.1,0,0.2-0.1,0.3-0.1C84.6,101.6,84.5,101.6,84.4,101.6z"/>
			<path class="st8" d="M119.7,94.6c0.5,0,1.1,0,1.6-0.1C120.8,94.5,120.2,94.5,119.7,94.6z"/>
			<path class="st8" d="M128,131.6c-30.4,0-55-8.3-55-18.6v16.8c0,10.3,24.6,18.6,55,18.6s55-8.3,55-18.6l0,0V113
				C183,123.3,158.4,131.6,128,131.6z"/>
			<path class="st8" d="M73,112.4v0.6C73,112.8,73,112.6,73,112.4L73,112.4z"/>
			<path class="st8" d="M87.7,100.3c0.1,0,0.3-0.1,0.4-0.1C88,100.2,87.9,100.3,87.7,100.3z"/>
			<path class="st8" d="M76.8,106.2L76.8,106.2L76.8,106.2z"/>
			<path class="st8" d="M183,112.4c0,0.2,0,0.4,0,0.6V112.4L183,112.4z"/>
			<path class="st8" d="M75.1,107.9L75.1,107.9L75.1,107.9z"/>
			<path class="st8" d="M75.9,107.1C75.9,107,75.9,107,75.9,107.1C75.9,107,75.9,107,75.9,107.1z"/>
			<path class="st8" d="M77.8,105.4L77.8,105.4L77.8,105.4z"/>
			<path class="st8" d="M109.3,95.5c0.4,0,0.8-0.1,1.2-0.1C110.1,95.4,109.7,95.4,109.3,95.5z"/>
			<path class="st8" d="M106.8,95.8c0.4-0.1,0.7-0.1,1.1-0.1C107.5,95.7,107.2,95.7,106.8,95.8z"/>
			<path class="st8" d="M111.8,95.2c0.4,0,0.8-0.1,1.3-0.1C112.6,95.1,112.2,95.1,111.8,95.2z"/>
			<path class="st8" d="M89.5,99.7c0.1,0,0.3-0.1,0.4-0.1C89.8,99.6,89.7,99.6,89.5,99.7z"/>
			<path class="st8" d="M117,94.7c0.5,0,1-0.1,1.5-0.1C118,94.7,117.5,94.7,117,94.7z"/>
			<path class="st8" d="M104.4,96.2c0.3-0.1,0.7-0.1,1-0.2C105.1,96.1,104.7,96.1,104.4,96.2z"/>
			<path class="st8" d="M114.4,94.9c0.4,0,0.9-0.1,1.4-0.1C115.3,94.9,114.8,94.9,114.4,94.9z"/>
			<path class="st8" d="M93.4,98.5c0.2-0.1,0.4-0.1,0.6-0.2C93.8,98.4,93.6,98.5,93.4,98.5z"/>
			<path class="st8" d="M91.4,99.1c0.2-0.1,0.3-0.1,0.5-0.2C91.8,99,91.6,99,91.4,99.1z"/>
			<path class="st8" d="M95.4,98c0.2-0.1,0.5-0.1,0.7-0.2C95.9,97.9,95.7,97.9,95.4,98z"/>
			<path class="st8" d="M97.6,97.5c0.3-0.1,0.5-0.1,0.8-0.2C98.1,97.4,97.8,97.4,97.6,97.5z"/>
			<path class="st8" d="M99.8,97c0.3-0.1,0.6-0.1,0.9-0.2C100.3,96.9,100.1,96.9,99.8,97z"/>
			<path class="st8" d="M102.1,96.6c0.3-0.1,0.6-0.1,0.9-0.2C102.7,96.5,102.4,96.5,102.1,96.6z"/>
		</g>
		<g>
			<path class="st8" d="M150.6,115.5c0.3,0.1,0.7,0.1,1,0.2C151.3,115.6,150.9,115.6,150.6,115.5z"/>
			<path class="st8" d="M148.1,115.2c0.4,0,0.7,0.1,1.1,0.1C148.8,115.3,148.5,115.2,148.1,115.2z"/>
			<path class="st8" d="M153,115.9c0.3,0.1,0.6,0.1,0.9,0.2C153.6,116,153.3,116,153,115.9z"/>
			<path class="st8" d="M155.4,116.4c0.3,0.1,0.6,0.1,0.8,0.2C155.9,116.5,155.7,116.4,155.4,116.4z"/>
			<path class="st8" d="M145.5,114.9c0.4,0,0.8,0.1,1.2,0.1C146.3,115,145.9,114.9,145.5,114.9z"/>
			<path class="st8" d="M159.9,117.4c0.2,0.1,0.4,0.1,0.7,0.2C160.3,117.5,160.1,117.4,159.9,117.4z"/>
			<path class="st8" d="M157.7,116.8c0.2,0.1,0.5,0.1,0.7,0.2C158.2,117,157.9,116.9,157.7,116.8z"/>
			<path class="st8" d="M74.4,128.3L74.4,128.3L74.4,128.3z"/>
			<path class="st8" d="M131.7,113.9c0.6,0,1.3,0,1.9,0C133,114,132.3,114,131.7,113.9z"/>
			<path class="st8" d="M162,117.9c0.2,0.1,0.4,0.1,0.6,0.2C162.4,118,162.2,118,162,117.9z"/>
			<path class="st8" d="M142.9,114.6c0.4,0,0.8,0.1,1.2,0.1C143.8,114.7,143.4,114.6,142.9,114.6z"/>
			<path class="st8" d="M122.4,114c0.6,0,1.2,0,1.9,0C123.7,114,123,114,122.4,114z"/>
			<path class="st8" d="M137.5,114.2c0.5,0,1,0.1,1.5,0.1C138.5,114.2,138,114.2,137.5,114.2z"/>
			<path class="st8" d="M140.3,114.4c0.5,0,0.9,0.1,1.4,0.1C141.2,114.4,140.7,114.4,140.3,114.4z"/>
			<path class="st8" d="M174.4,122.5c0,0,0.1,0,0.1,0.1C174.5,122.6,174.4,122.6,174.4,122.5z"/>
			<path class="st8" d="M179.2,125.7L179.2,125.7L179.2,125.7z"/>
			<path class="st8" d="M175.8,123.3L175.8,123.3L175.8,123.3z"/>
			<path class="st8" d="M177,124.1C177.1,124.1,177.1,124.1,177,124.1C177.1,124.1,177.1,124.1,177,124.1z"/>
			<path class="st8" d="M164.1,118.5c0.2,0,0.3,0.1,0.5,0.1C164.4,118.6,164.2,118.5,164.1,118.5z"/>
			<path class="st8" d="M180.1,126.6L180.1,126.6L180.1,126.6z"/>
			<path class="st8" d="M128,113.9c-0.9,0-1.9,0-2.8,0C126.1,113.9,127.1,113.9,128,113.9z"/>
			<path class="st8" d="M178.2,124.9L178.2,124.9L178.2,124.9z"/>
			<path class="st8" d="M169.7,120.4c0.1,0,0.2,0.1,0.3,0.1C169.9,120.5,169.8,120.4,169.7,120.4z"/>
			<path class="st8" d="M128,113.9c0.9,0,1.9,0,2.8,0C129.9,113.9,128.9,113.9,128,113.9z"/>
			<path class="st8" d="M166,119.1c0.1,0,0.3,0.1,0.4,0.1C166.3,119.2,166.2,119.1,166,119.1z"/>
			<path class="st8" d="M167.9,119.7c0.1,0,0.2,0.1,0.3,0.1C168.1,119.8,168,119.8,167.9,119.7z"/>
			<path class="st8" d="M171.4,121.1c0.1,0,0.2,0.1,0.2,0.1C171.5,121.1,171.4,121.1,171.4,121.1z"/>
			<path class="st8" d="M172.9,121.8c0.1,0,0.1,0.1,0.2,0.1C173.1,121.9,173,121.8,172.9,121.8z"/>
			<path class="st8" d="M134.7,114c0.5,0,1.1,0,1.6,0.1C135.8,114.1,135.2,114.1,134.7,114z"/>
			<path class="st8" d="M81.5,122.6c0.1,0,0.1-0.1,0.2-0.1C81.6,122.6,81.5,122.6,81.5,122.6z"/>
			<path class="st8" d="M80.1,123.4c0,0,0.1,0,0.1-0.1C80.2,123.3,80.2,123.3,80.1,123.4z"/>
			<path class="st8" d="M78.9,124.1C78.9,124.1,79,124.1,78.9,124.1C79,124.1,78.9,124.1,78.9,124.1z"/>
			<path class="st8" d="M82.9,121.9c0.1,0,0.1-0.1,0.2-0.1C83,121.8,82.9,121.9,82.9,121.9z"/>
			<path class="st8" d="M86,120.5c0.1,0,0.2-0.1,0.3-0.1C86.2,120.4,86.1,120.5,86,120.5z"/>
			<path class="st8" d="M84.4,121.2c0.1,0,0.2-0.1,0.3-0.1C84.6,121.1,84.5,121.1,84.4,121.2z"/>
			<path class="st8" d="M119.7,114.1c0.5,0,1.1,0,1.6-0.1C120.8,114.1,120.2,114.1,119.7,114.1z"/>
			<path class="st8" d="M128,151.2c-30.4,0-55-8.3-55-18.6v16.8c0,10.3,24.6,18.6,55,18.6s55-8.3,55-18.6l0,0v-16.8
				C183,142.8,158.4,151.2,128,151.2z"/>
			<path class="st8" d="M73,132v0.6C73,132.4,73,132.2,73,132L73,132z"/>
			<path class="st8" d="M87.7,119.8c0.1,0,0.3-0.1,0.4-0.1C88,119.8,87.9,119.8,87.7,119.8z"/>
			<path class="st8" d="M76.8,125.8C76.8,125.7,76.8,125.7,76.8,125.8C76.8,125.7,76.8,125.7,76.8,125.8z"/>
			<path class="st8" d="M183,132c0,0.2,0,0.4,0,0.6V132L183,132z"/>
			<path class="st8" d="M75.1,127.5C75.1,127.4,75.1,127.4,75.1,127.5C75.1,127.4,75.1,127.4,75.1,127.5z"/>
			<path class="st8" d="M75.9,126.6L75.9,126.6L75.9,126.6z"/>
			<path class="st8" d="M77.8,124.9L77.8,124.9L77.8,124.9z"/>
			<path class="st8" d="M109.3,115c0.4,0,0.8-0.1,1.2-0.1C110.1,114.9,109.7,115,109.3,115z"/>
			<path class="st8" d="M106.8,115.3c0.4-0.1,0.7-0.1,1.1-0.1C107.5,115.2,107.2,115.3,106.8,115.3z"/>
			<path class="st8" d="M111.8,114.7c0.4,0,0.8-0.1,1.3-0.1C112.6,114.6,112.2,114.7,111.8,114.7z"/>
			<path class="st8" d="M89.5,119.2c0.1,0,0.3-0.1,0.4-0.1C89.8,119.1,89.7,119.2,89.5,119.2z"/>
			<path class="st8" d="M117,114.3c0.5,0,1-0.1,1.5-0.1C118,114.2,117.5,114.2,117,114.3z"/>
			<path class="st8" d="M104.4,115.7c0.3-0.1,0.7-0.1,1-0.2C105.1,115.6,104.7,115.6,104.4,115.7z"/>
			<path class="st8" d="M114.4,114.5c0.4,0,0.9-0.1,1.4-0.1C115.3,114.4,114.8,114.4,114.4,114.5z"/>
			<path class="st8" d="M93.4,118.1c0.2-0.1,0.4-0.1,0.6-0.2C93.8,117.9,93.6,118,93.4,118.1z"/>
			<path class="st8" d="M91.4,118.6c0.2-0.1,0.3-0.1,0.5-0.2C91.8,118.5,91.6,118.6,91.4,118.6z"/>
			<path class="st8" d="M95.4,117.5c0.2-0.1,0.5-0.1,0.7-0.2C95.9,117.4,95.7,117.5,95.4,117.5z"/>
			<path class="st8" d="M97.6,117c0.3-0.1,0.5-0.1,0.8-0.2C98.1,116.9,97.8,117,97.6,117z"/>
			<path class="st8" d="M99.8,116.5c0.3-0.1,0.6-0.1,0.9-0.2C100.3,116.4,100.1,116.5,99.8,116.5z"/>
			<path class="st8" d="M102.1,116.1c0.3-0.1,0.6-0.1,0.9-0.2C102.7,116,102.4,116,102.1,116.1z"/>
		</g>
		<path class="st8" d="M128,71.9c30.4,0,55,8.3,55,18.6s-24.6,18.6-55,18.6s-55-8.3-55-18.6S97.6,71.9,128,71.9z"/>
	</g>
	<g>
		<rect x="38" y="8" class="st9" width="179.9" height="46"/>
		<g class="st10">
			<path class="st11" d="M81,44.5c-0.3-0.9-0.7-1.9-1-2.9c-0.4-1-0.7-2-1.1-3H67.7c-0.4,1-0.7,2-1.1,3s-0.7,2-1,2.9H59
				c1.1-2.9,2.1-5.6,3-8.1c1-2.5,1.9-4.8,2.8-7s1.8-4.3,2.7-6.2c0.9-2,1.8-3.9,2.8-5.8h6.1c0.9,1.9,1.9,3.8,2.8,5.8s1.8,4,2.7,6.2
				c0.9,2.2,1.9,4.5,2.8,7c1,2.5,2,5.2,3.1,8.1H81L81,44.5z M73.3,23.5c-0.1,0.4-0.4,0.9-0.6,1.6s-0.6,1.5-0.9,2.3
				c-0.4,0.9-0.8,1.9-1.2,2.9c-0.4,1.1-0.9,2.2-1.3,3.4h8.2c-0.4-1.2-0.9-2.3-1.3-3.4s-0.8-2-1.2-2.9c-0.4-0.9-0.7-1.7-1-2.3
				C73.7,24.4,73.4,23.9,73.3,23.5z"/>
			<path class="st11" d="M103.5,45c-4.6,0-8.2-1.2-10.6-3.7s-3.6-5.9-3.6-10.4c0-2.2,0.4-4.2,1.1-6c0.7-1.8,1.8-3.2,3-4.5
				s2.8-2.1,4.6-2.8s3.7-0.9,5.8-0.9c1.2,0,2.3,0.1,3.3,0.3c1,0.2,1.9,0.4,2.6,0.6s1.4,0.4,1.9,0.7c0.5,0.2,0.9,0.4,1.1,0.5
				l-1.9,4.9c-0.9-0.4-1.9-0.8-3.1-1.1s-2.5-0.5-4-0.5c-1,0-2,0.2-2.9,0.5s-1.8,0.8-2.5,1.5s-1.3,1.6-1.7,2.7
				c-0.4,1.1-0.7,2.4-0.7,4c0,1.3,0.1,2.4,0.4,3.5c0.3,1.1,0.8,2,1.4,2.8s1.5,1.4,2.5,1.9s2.3,0.7,3.8,0.7c0.9,0,1.8-0.1,2.5-0.2
				c0.7-0.1,1.4-0.2,2-0.4s1.1-0.3,1.5-0.5s0.8-0.4,1.2-0.5L113,43c-0.9,0.5-2.2,1-3.8,1.4C107.6,44.8,105.6,45,103.5,45z"/>
			<path class="st11" d="M129.1,45c-4.6,0-8.2-1.2-10.6-3.7s-3.6-5.9-3.6-10.4c0-2.2,0.4-4.2,1.1-6c0.7-1.8,1.8-3.2,3-4.5
				s2.8-2.1,4.6-2.8s3.7-0.9,5.8-0.9c1.2,0,2.3,0.1,3.3,0.3c1,0.2,1.9,0.4,2.6,0.6c0.7,0.2,1.4,0.4,1.9,0.7c0.5,0.2,0.9,0.4,1.1,0.5
				l-1.9,4.9c-0.9-0.4-1.9-0.8-3.1-1.1s-2.5-0.5-4-0.5c-1,0-2,0.2-2.9,0.5s-1.8,0.8-2.5,1.5s-1.3,1.6-1.7,2.7
				c-0.4,1.1-0.7,2.4-0.7,4c0,1.3,0.1,2.4,0.4,3.5c0.3,1.1,0.8,2,1.4,2.8s1.5,1.4,2.5,1.9s2.3,0.7,3.8,0.7c0.9,0,1.8-0.1,2.5-0.2
				c0.7-0.1,1.4-0.2,2-0.4s1.1-0.3,1.5-0.5s0.8-0.4,1.2-0.5l1.8,4.9c-0.9,0.5-2.2,1-3.8,1.4S131.3,45,129.1,45z"/>
			<path class="st11" d="M167.8,30.9c0,2.3-0.4,4.4-1.2,6.1c-0.8,1.8-1.9,3.2-3.3,4.3s-3.1,2-5.2,2.6s-4.3,0.9-6.8,0.9
				c-1.2,0-2.5,0-4-0.1s-3-0.3-4.5-0.6V17.7c1.5-0.3,3-0.4,4.6-0.5s3-0.1,4.1-0.1c2.4,0,4.7,0.3,6.6,0.8s3.7,1.3,5.1,2.5
				c1.4,1.1,2.5,2.6,3.3,4.3C167.3,26.3,167.8,28.4,167.8,30.9z M149.2,39.5c0.3,0,0.7,0,1,0.1c0.4,0,0.9,0,1.4,0
				c3.2,0,5.6-0.8,7.1-2.3c1.6-1.5,2.3-3.7,2.3-6.4c0-2.8-0.8-5-2.3-6.4c-1.5-1.5-3.8-2.2-7-2.2c-0.4,0-0.9,0-1.4,0s-0.9,0-1.3,0.1
				L149.2,39.5L149.2,39.5z"/>
			<path class="st11" d="M182.6,44.8c-1.6,0-3.1,0-4.7-0.1c-1.5-0.1-3.2-0.3-4.8-0.6V17.8c1.3-0.2,2.8-0.4,4.3-0.5s3-0.2,4.3-0.2
				c1.8,0,3.5,0.1,5,0.4c1.5,0.2,2.8,0.7,3.9,1.3c1.1,0.6,2,1.4,2.6,2.4s0.9,2.2,0.9,3.6c0,2.2-1.1,3.9-3.3,5.1
				c1.8,0.6,3,1.5,3.7,2.7c0.7,1.1,1,2.4,1,3.8c0,2.8-1.1,5-3.3,6.4C190.1,44.1,186.9,44.8,182.6,44.8z M179.3,28h3.1
				c2,0,3.4-0.2,4.2-0.7c0.9-0.5,1.3-1.3,1.3-2.3c0-1.1-0.4-1.9-1.3-2.3c-0.9-0.4-2.2-0.7-3.9-0.7c-0.5,0-1.1,0-1.8,0
				s-1.2,0-1.7,0.1L179.3,28L179.3,28z M179.3,32.6v7c0.5,0,1,0.1,1.5,0.1c0.6,0,1.2,0,1.8,0c1.9,0,3.5-0.3,4.7-0.8s1.8-1.5,1.8-2.9
				c0-1.3-0.5-2.1-1.5-2.7c-1-0.5-2.4-0.8-4.2-0.8C183.4,32.6,179.3,32.6,179.3,32.6z"/>
		</g>
	</g>
</g>
</svg>
