<?xml version="1.0" encoding="utf-8"?>
<!-- Generator: Adobe Illustrator 21.0.0, SVG Export Plug-In . SVG Version: 6.00 Build 0)  -->
<svg version="1.1" id="图层_1" xmlns="http://www.w3.org/2000/svg" xmlns:xlink="http://www.w3.org/1999/xlink" x="0px" y="0px"
	 viewBox="0 0 256 256" style="enable-background:new 0 0 256 256;" xml:space="preserve">
<style type="text/css">
	.st0{opacity:0.08;enable-background:new    ;}
	.st1{opacity:0.1;enable-background:new    ;}
	.st2{opacity:0.2;enable-background:new    ;}
	.st3{fill:#0D47A1;}
	.st4{fill:url(#SVGID_1_);}
	.st5{fill:#64B5F6;}
	.st6{fill:#FFFFFF;fill-opacity:0.8;}
</style>
<g>
	<rect x="34.1" y="4" class="st0" width="191.8" height="252"/>
	<rect x="36.1" y="6" class="st1" width="187.8" height="248"/>
	<rect x="34.1" y="4" class="st2" width="187.8" height="248"/>
	<rect x="36.1" y="6" class="st3" width="183.8" height="244"/>
	
		<linearGradient id="SVGID_1_" gradientUnits="userSpaceOnUse" x1="128" y1="782" x2="128" y2="542" gradientTransform="matrix(1 0 0 1 0 -534)">
		<stop  offset="0" style="stop-color:#1976D2"/>
		<stop  offset="0.0226" style="stop-color:#1C79D3"/>
		<stop  offset="0.2859" style="stop-color:#3B93E2"/>
		<stop  offset="0.5416" style="stop-color:#52A6ED"/>
		<stop  offset="0.7843" style="stop-color:#5FB1F4"/>
		<stop  offset="1" style="stop-color:#64B5F6"/>
	</linearGradient>
	<rect x="38.1" y="8" class="st4" width="179.8" height="240"/>
</g>
<path class="st5" d="M190.5,110c0,34.5-28,62.5-62.5,62.5s-62.5-28-62.5-62.5s28-62.5,62.5-62.5S190.5,75.5,190.5,110z"/>
<path class="st6" d="M87,62.9c0,0,1.3,0.7,1.8,1.8c0.4,1.1,1.8,1.1,1.8,1.1h2l2.9-0.9l-0.7,1.6c0,0-15.3,7.1-12.2,11.3
	c3.1,4.2,2,5.3,2,6.6c0,1.3,0.9,0.2,0.9,0.2l0.9-2.4l1.3-1.8l1.3-2l0.4-1.1l1.8-3.1l2.2-1.3l2,1.3c0,0,0.9,0.4,0.7,1.1s-0.4,2-0.4,2
	s0.4,0.9,1.1,0.9s1.8-0.7,1.8-0.7l0.9,1.6l0.7,2.9l1.8,1.8l0.9,2l-0.9,1.8l0.9,0.7l2,2.2l0.4,1.1l-3.3-0.2c0,0-0.4-0.9-1.1-0.9
	s-3.5-0.2-3.5-0.2l-1.6,0.4l-0.9,1.1c0,0-1.1,1.8-1.8,1.8s-2.4-0.4-2.4-0.4s-1.3-0.4-2,0.9s1.1,2,1.1,2L86.7,97l-0.9,0.4
	c0,0-2.2,0.9-2.2,1.6s0,0.7,0,0.7l-0.7,1.8v1.1l-1.6,1.3l-1.6,1.1l-0.7,1.3v2.2c0,0-0.2,1.1-0.2,1.8s0,2.4,0,2.4s-0.7,0.7-1.1-0.7
	c-0.4-1.3-0.4-1.3-0.4-1.3l-0.7-1.6c0,0,0.7-0.2-0.2-0.9c-0.9-0.7-1.8-0.9-1.8-0.9s-0.4-0.4-1.3-0.4s1.1,0.2-0.9,0s-2-0.2-2-0.2
	l-1.6,1.3v1.1c0,0-0.4,7.8,1.8,8.9h0.9l1.3-2l1.1,0.4v0.9l-0.2,1.6v0.9l1.1,1.1l0.7,2c0.9,1.6,0.4,2,1.1,2.4s1.3,1.6,1.3,1.6
	l0.9,0.4c0,0,0.7,0.2,1.3,0.4c0.7,0.2,0.7,0.2,0.7,0.2l0.2,1l0.2,0.8l0.9,1.1c0,0-0.7,0,0.9,0s1.6,0,1.6,0s0,0.4,1.1,0.9
	c1.1,0.4,0.2,0.2,1.1,0.4s2.4,0.4,2.4,0.4c1.6-0.2,1.6-0.2,1.6-0.2l1.1,1.6c0,0,0.7,0,0.9,0.7c0.2,0.7-1.1,0,0.2,0.7
	c1.3,0.7,0,0.2,1.3,0.7s-0.4,0.4,1.3,0.4s2,0,2.7,0.2s1.1,1.8,1.1,1.8c1.3,1.6,1.3,1.6,1.3,1.6l0.2,2c0,0-0.7,0.4,0.9,0.4
	s0.4,0,1.6,0s-0.2-0.4,1.1,0s1.3,0.4,1.3,0.4s2,1.6,2.7,1.6s2-0.2,2.7,0s1.1,1.3,2.4,1.6c1.3,0.2,1.8,0,2.7,0.7
	c0.9,0.7,0.9,0.7,0.9,0.7l0.2,2.4l-0.7,1.3l-1.8,0.7l-0.2,2.2l-0.9,2.2v1.1c0,0,1.1,0.9-0.9,1.1c-2,0.2-2,0.2-2,0.2l-0.9,0.9
	c0,0,0,0.2-0.4,0.9s-0.9,1.8-0.9,1.8l0.2,2v1.3l-0.7,1.1c0,0-0.6,0.3,1.1,1.4c1.8,1.1,3.2,1.1,3.6,1.8s1.5,1.3,1.5,1.3l-2.4-0.5
	l-1.5-0.5l-2.5-0.7l-4.8-2.5c0,0-7.2-5.9-9.4-10.7c0,0-1.9-2.8-5.1-4c0,0-7.9-7.2-8.6-9l-0.3-1.2v-0.6l-0.3-0.3v-0.7l-0.2-0.5
	l0.1-2.2l0.1-1.5l0.1-0.8l-0.1-0.6c0,0-0.4-0.4-0.4-0.5s-0.3-1-0.3-1l-0.1-0.3l1.2-1l-0.3-0.9l0.2-0.5l0.7-0.5c0,0,0.4-0.6,0.4-0.7
	c0-0.2-0.7-0.7-0.7-0.7l-0.3,0.1l-0.3,0.9h-0.4c0,0-0.4-0.2-0.4-0.3s-0.4-0.5-0.4-0.5l-0.5-0.2c0,0-0.4-0.1-0.5-0.3
	s-0.6-0.5-0.6-0.6s-0.4-0.7-0.4-0.7l-0.5-0.2c0,0-0.6-0.9-0.6-1.1c0-0.1-0.3-0.6-0.3-0.6s-0.7-0.8-0.7-0.9s-0.3-0.8-0.3-0.8h-0.5
	l-1.1-0.4l-0.7-0.9l-0.8-0.9c0,0-0.4-0.7-0.4-0.9c0-0.2-0.3-0.4-0.3-0.4h-0.5h-0.3l-0.7-0.6l-1.8-2.5l-0.3-1.1l-0.3-1.2l-0.2-2v-1.3
	l-0.8-9.3C65.6,102.1,68.3,79.1,87,62.9z"/>
<path class="st6" d="M157.6,55.1l2,1.6l1,0.5l0.7,0.8l0.1,0.8c0,0,0.2,0.8,0.1,1c-0.1,0.2-0.2,1.3-0.2,1.3s0.9,1.6,0.9,1.8
	s0.1,1.1-0.1,1.3c-0.2,0.1-1.3,0.8-1.4,0.5c-0.1-0.3-0.8-1-1-1c-0.2-0.1-0.8-0.7-0.8-0.7l1.6-0.2l-0.2-1c0,0-1.1-0.4-1.4-0.4
	c-0.3-0.1-1.4-0.7-1.4-0.7l-1.2-0.3c0,0-2-0.5-2.2-0.6s-1-0.4-1-0.4h-1.7c0,0-0.8,0.4-1,0.6c-0.1,0.2-1.1,1.3-1.1,1.3
	s-0.1,1.3-0.1,1.5s-0.3,0.7-0.3,1.3s-0.1,1.4-0.1,1.6s0,0.5,0,0.5l-0.2,0.9l-0.7,0.4l-0.9,0.7c0,0-0.8,0.6-0.8,0.8
	c0,0.2,0,1,0.3,1.6s0.2,1.2,0.6,1.5c0.4,0.3,0.6,0.7,0.9,0.8c0.3,0.1,0.1,0.2,0.6,0.2c0.4,0,0.8,0.1,1-0.1c0.2-0.1,0.7-0.1,0.9-0.4
	s-0.2-0.1,0.2-0.3c0.4-0.1,0.4-0.4,0.7-0.1c0.4,0.3,0.7,0.7,0.8,0.9s0.4,0.7,0.7,1c0.4,0.2,0.7,1,0.7,1l0.6,0.6c0,0,0.1,0.1,0.5,0.1
	s1-0.1,1-0.1l0.2-0.4c0,0,0.4,0.1,0.5-0.1s0.1-0.5,0.1-0.5s-0.2-0.6-0.4-0.8c-0.1-0.2-0.3-0.7-0.3-0.7l0.1-0.7l0.4-0.4l0.1-0.5V71
	l-0.4-0.2l-0.7-0.4c0,0-0.4,0.1-0.4-0.4c-0.1-0.4-0.1-0.4-0.1-0.4l-0.9-0.2l-0.6-0.3l0.7-0.5c0.4-0.7,0.5-0.9,0.5-1.1
	s-0.1-0.8-0.1-0.8s-0.4-0.1-0.4-0.6c-0.1-0.5-0.1-0.8-0.1-0.8l0.1-0.4c0,0,0.1-0.3,0.4-0.3c0.2,0,0.6,0.3,0.8,0.3s0.6,0.1,0.6,0.1
	s0.2,0.1,0.2,0.4c0,0.2-0.1,0.7-0.1,0.7l0.4-0.6v0.7l-0.1,0.8v0.8l0.4,0.8l0.4,0.6c0,0,0.5,0.5,0.7,0.7c0.2,0.1,0.7,0.5,0.7,0.5
	l0.6,0.3l0.4,0.1l0.4-0.4c0,0,0.7,0.1,0.7-0.1c0.1-0.2,0.1-0.2,0.1-0.2s0.8-0.1,1-0.1s0.6,0,0.6,0s0.3,0.6,0.1,0.6s-0.3,0.2-0.8,0.4
	c-0.5,0.1-0.7,0-0.8,0.2s-0.4,0.7-0.4,0.7l0.4,0.1h0.3l0.4,0.4c0,0,0.1,0.1,0,0.4s0.4,0.2-0.1,0.3c-0.6,0.1-0.9-0.1-0.9-0.1
	s-0.1-0.5-0.4-0.3c-0.2,0.2-0.3,0.7-0.3,0.7v0.7l0.4,1c0,0,0.2,0.2,0,0.3c-0.2,0.1-0.9,0.9-0.9,0.9s-0.1,0.3-0.4,0.3
	c-0.2,0-0.5,0-1,0.1c-0.4,0.1-0.4,0.1-0.8,0.2c-0.4,0.1-0.7,0.2-1.3,0.3c-0.6,0.1-1.7,0.1-2.1,0.1c-0.4,0-0.5,0-0.7-0.1
	s-0.1,0-0.4-0.4s-0.6-0.7-0.6-1c0-0.2,0-0.3-0.1-0.7c-0.1-0.4-0.1-0.7-0.4-0.7c-0.4,0-0.4,0-0.4,0s-0.8,0.6-0.7,0.8
	c0.1,0.2-0.1,0,0.6,0.5c0.7,0.5,0.9,1.2,0.9,1.2l-0.1,0.7l-1.3,0.7l-0.9,0.3l-0.1,0.6c0,0,0,0.2-0.2,0.5s-0.7,0.7-0.7,0.7
	s-0.4,0.1-0.5,0.4c-0.1,0.2-0.4,1-0.4,1s-0.4-0.1-0.8,0.2c-0.4,0.3,0.1,0.3-0.8,0.7c-0.9,0.4-0.9,0.4-0.9,0.4l-1-0.1l-0.6,0.2
	c0,0-0.8,0.1-0.9,0.3c-0.1,0.2-0.5,0.8-0.5,0.8s-0.2,0.4,0,0.4c0.2,0.1,0.5,0,1,0.1c0.4,0.1,0.5,0.1,0.8,0.3
	c0.3,0.1,0.6,0.4,0.6,0.4l1.1,1l0.6,1.3l-0.1,1l-1.2,0.4c0,0-0.7,0-1,0c-0.2,0-0.1,0-1.3,0s-1.4,0-1.6,0c-0.2,0-1-0.1-1-0.1
	l-0.7,0.1l-0.5,0.4l-0.3,0.1c0,0,0.4,0.9,0.4,1.2s0,0.7,0,0.7l-0.1,0.6l-0.3,0.7l-0.4,0.7l0.1,0.4c0,0-0.1,0.3,0.1,0.3
	c0.2,0,0.8-0.1,0.8,0.1s-0.5,1-0.5,1l1,0.2c0,0-0.1-0.1,0.5,0.1c0.6,0.1,1,0.3,1,0.3l0.7,0.5l0.2,0.4l0.2-0.4c0,0,1.1-0.1,1.3-0.2
	s0.7-0.1,0.7-0.1h0.9c0,0,0.2,0.1,0.4-0.1c0.1-0.2,0.1-0.2,0.1-0.2s1-0.4,1.2-0.6c0.2-0.1,0.3-0.7,0.3-0.7s0.3-0.2,0.3-0.4
	c0-0.2-0.2-0.7-0.2-0.7v-0.4l0.3-0.4c0,0,0.1-0.1,0.4-0.4c0.3-0.3,0.3-0.3,0.3-0.3s-0.1-0.1,0.3-0.3c0.4-0.1,0.7-0.4,0.9-0.4
	s-0.2,0.2,0.2,0s0.5-0.4,0.5-0.7c0-0.2,0.1-1.3,0.1-1.3l0.4-0.6l1,0.1l0.5,0.1c0,0,0.6,0.1,0.7-0.1c0.1-0.2,0.4-0.4,0.4-0.4L154,88
	c0,0-0.1-0.1,0.3-0.1s1,0,1.3,0c0.2,0,0.7,0,0.7,0s0.4,0.2,0.6,0.4c0.1,0.2,0.4,0.7,0.4,0.7l0.3,0.4h0.3c0.4,0.3,0.6,0.5,1.3,0.7
	s1.2,0.4,1.2,0.4s0.2,0.4,0.4,0.6s0.4,0.4,0.7,0.6c0.2,0.1,0.4,0.3,0.5,0.5s0.4,0.6,0.4,0.6l0.4,0.4l0.2-0.4v-0.7l-0.1-0.4
	c0,0-0.4-0.3,0.1-0.3c0.4,0,0.7,0,0.7,0l-0.4-0.6l-0.5-0.2l-0.7-0.5l-0.3-0.3l-0.3-0.1l-0.3-0.2l-0.4-0.3c0,0-0.7-0.1-0.7-0.4
	c-0.1-0.2-0.1-0.2-0.1-0.2l-0.7-0.1c0,0-0.7-0.4-0.7-0.6s-0.1-0.8-0.1-0.8l-0.6-0.1c0,0,0.1-0.4,0.1-0.7c0-0.2,0.2-0.5,0.2-0.5
	l1.3-0.1l0.3,0.7l0.5,0.3L161,87l0.3,0.4l0.3,0.3c0,0,0.1,0.1,0.5,0.2s0.7,0.2,0.7,0.2s0.4,0.4,0.7,0.4c0.3,0.1,0.4,0.2,0.7,0.3
	C164,89,164,89,164,89s0.1,0.2,0.4,0.4c0.3,0.2,0.6,0.6,0.6,0.8s0.2,0.9,0.4,1s0.3,0.1,0.7,0.5s0.4,0.8,0.7,1c0.4,0.1,0.7,0,0.7,0.4
	c0.1,0.4,0.1,0.7,0.1,0.7s0.3,0.1,0.5,0.1s0.6-0.4,0.6-0.4s0.4-0.6,0.1-0.7c-0.2-0.1-0.7-0.1-0.7-0.3c0-0.2,0-1.3,0-1.3l0.3-0.7
	l0.4-0.6l0.6,0.2l0.6-0.4l0.6,0.7l-0.2,0.8c0,0,0.1,0.5,0.4,0.9c0.2,0.4,0.7,0.9,0.7,0.9l1,0.9l1.4,0.4l0.3-0.1l2.1-0.4
	c0,0,0.3,0,0.5,0s1.2,1.7,1.2,1.7s0,0.7,0,1.1s0,1.4,0,1.4s-0.7,0.7-1,0.7s-1.1,0.4-1.1,0.4l-1.7,0.4l-1.1-0.1l-2-0.1
	c0,0-2-0.1-2.2-0.1s-0.9,0-1.1,0c-0.2,0-0.5,0.2-0.7,0.8s-0.6,0.8-0.6,0.8s0,0.3-0.4,0.3s-0.4,0.1-0.7-0.1s-1.7-0.5-1.7-0.5
	l-1.3-0.9l-0.7-0.6l-0.7-0.1h-2l-1.3-0.1l0.2-2.1l0.2,0.6l-0.4-1.4l-0.6-0.4l-1.4-0.3l-0.9,0.1l-1.2,0.3l-1.2,0.4l-0.7,0.2l-3.4,0.6
	l-1.2,0.5c0,0-0.5,0.3-0.7,0.4s-1,0.1-1,0.1s-0.6-0.1-0.9-0.2c-0.3-0.1-1-0.1-1.3-0.1s-0.9-0.1-1.1,0c-0.2,0.1-0.4,0.1-0.6,0.4
	c-0.2,0.3-0.9,1.1-0.9,1.1s-0.4,0.4-0.6,0.6c-0.1,0.2-0.6,0.8-0.6,0.8l-0.8,1.3l-0.5,0.6l0.1,0.7v0.5c0,0-0.3,0.3-0.5,0.4
	s-0.6,0.3-0.6,0.3s-0.3,0.1-0.6,0.4c-0.3,0.2-0.3,0.3-0.5,0.5s-0.9,0.7-0.9,0.7s-0.4,0.3-0.7,0.6c-0.2,0.3-0.6,0.7-0.7,0.9
	s-0.4,0.4-0.6,0.5c-0.2,0.1-0.6,0.9-0.7,1.1c-0.1,0.2-0.7,1.1-0.7,1.1l-0.4,1.7l-0.1,0.8c0,0,0.1,0.3,0.3,0.5s0.4,1,0.4,1v0.7
	c0,0-0.2,0.6-0.3,0.8c-0.1,0.2,0.1,1.2,0.1,1.2v0.6c0,0,0,0.2-0.3,0.5s-0.4,0.7-0.4,0.7l0.4,0.9l0.3,0.6v0.4l0.4,0.7
	c0,0,0.2,0.2,0.4,0.4c0.2,0.1,0.3,0.1,0.7,0.4c0.4,0.2,0.4,0.2,0.4,0.2s0.6,0.7,0.6,1c0,0.2,0.4,0.6,0.4,0.6l0.7,0.7
	c0,0,0.1,0.4,0.5,0.7s0.8,0.5,1,0.7c0.2,0.1,0.8,0.6,1.3,0.7c0.4,0.1,0.6,0.2,0.8,0.2s-0.3-0.6,1.1,0.1c1.4,0.7,2.3,1,2.3,1l1,0.4
	c0,0,1.6,0.1,1.8-0.1c0.2-0.1,0.5-0.1,0.7-0.1s0.7,0,1.1,0c0.4,0,1.8-0.2,1.8-0.2l1.6-0.6c0,0,0.5-0.3,0.7-0.4s0.8-0.5,1-0.6
	s1.2-0.1,1.2-0.1s0-0.3,0.4,0s0.4,0.4,0.5,0.6s0.1,0.7,0.4,0.7c0.3,0.1,1,0.3,1,0.3s1-0.1,1.3,0s1,0.1,1,0.1l0.3,0.4l0.1,0.9v0.8
	c0,0-0.1,0.3,0,0.6s0.4,0.8,0.4,0.8s-0.4,0.6-0.6,0.7c-0.2,0.1-0.7,0.7-0.7,0.7l1.4,1.3l0.8,0.8l0.6,0.7c0,0,0.1,0.3,0.1,0.5
	s-0.1,0.7,0,1c0.1,0.2,0.1,1,0.1,1s0.1,0.6,0.1,0.8s-0.2,1.2-0.2,1.2l-0.1,0.7l-0.4,1.2l-0.5,0.6l-0.7,0.7L158,144l-0.1,1.1
	l-0.4,0.7c0,0,0.1,0.6,0.1,0.9c0,0.3,0.6,1.4,0.6,1.4l-0.1,0.9c0,0-0.4,1.3-0.4,1.6s-0.3,0.7-0.3,1c0,0.2-0.1,1.1-0.1,1.1l0.1,1.1
	l0.4,1.1l-0.4,1c0,0-0.2,0.8-0.2,1.3c0,0.4,0.7,0.9,0.9,0.9s1.1-0.1,1.5-0.4c0.4-0.2,1.4-0.5,1.6-0.6c0.2-0.1,0.4,0.1,1-0.4
	c0.6-0.4,1.5-1.1,1.5-1.1s0.7-0.5,1-0.7c0.2-0.2,1.2-1.3,1.2-1.3s0.7-0.7,1.2-1s0-0.1,0.5-0.4c0.5-0.3,2.1-1.6,2.1-1.6l1.6-1.6
	c0,0,1.4-1.8,1.6-2.1s1.5-2,1.7-2.1s2-1.3,2.4-1.6s0.9-2.4,1.1-2.7c0.2-0.2,1.3-2.7,1.3-2.7l1-2.9l1.7-4.3l1.7-3c0,0,0.7-1.3,1-1.7
	c0.2-0.4,1.8-3.5,1.8-3.5l0.6-2.6l0.2-2.2h-1l-1.1,1l-1-0.3l-1,0.1l1.1-1.4l-0.3-1.1l-0.9-0.7l-1.2-1.8v-1.8l-1.3-2.1l-0.8-3.3
	c0,0-1.5-1.6-1.3-2c0.1-0.4,0.5-1.6,0.5-1.6l0.8,0.4c0,0,0.6,1.6,0.9,1.7c0.3,0.1,0.7,0.9,0.8,1.1s0.2,0.9,0.4,1.1
	c0.1,0.2,0.8,1.5,0.8,1.5s0.5,1.3,0.6,1.6c0.1,0.2,0.6,1,0.7,1.6c0.1,0.6,0.4,2.5,0.4,2.7s0.5,2.3,0.5,2.3s0.7-0.2,0.8-0.4
	s0.1-0.3,0.3-0.5c0.1-0.2,1.3-1.1,1.3-1.1l0.5-1.6c0,0,0.3-0.7,0.4-1s0.7-1.4,0.7-1.6s-0.1-1,0-1.3c0.1-0.2,0.4-1.4,0.4-1.6
	s0.1-1,0.1-1l-0.1-1.8l0.8-1l0.4-1.1C190.4,102.2,187.5,70.8,157.6,55.1z"/>
</svg>
