<?xml version="1.0" encoding="utf-8"?>
<!-- Generator: Adobe Illustrator 21.0.0, SVG Export Plug-In . SVG Version: 6.00 Build 0)  -->
<svg version="1.1" id="图层_1" xmlns="http://www.w3.org/2000/svg" xmlns:xlink="http://www.w3.org/1999/xlink" x="0px" y="0px"
	 viewBox="0 0 256 256" style="enable-background:new 0 0 256 256;" xml:space="preserve">
<style type="text/css">
	.st0{opacity:0.08;enable-background:new    ;}
	.st1{opacity:0.1;enable-background:new    ;}
	.st2{opacity:0.2;enable-background:new    ;}
	.st3{fill:url(#SVGID_1_);}
	.st4{fill:#EE6F0B;fill-opacity:0.3922;}
	.st5{fill:#FFFFFF;fill-opacity:0.3922;}
	.st6{fill:#EE6F0B;}
	.st7{opacity:0.8;}
	.st8{fill:#FFFFFF;}
</style>
<g id="surface1">
	<polygon class="st0" points="34.5,256 34.5,4 225.5,4 225.5,185 154.5,256 	"/>
	<polygon class="st1" points="36.5,254 36.5,6 223.5,6 223.5,184.2 153.7,254 	"/>
	<polygon class="st2" points="34.5,252 34.5,4 221.5,4 221.5,182.2 151.7,252 	"/>
	<g>
		
			<linearGradient id="SVGID_1_" gradientUnits="userSpaceOnUse" x1="336.0005" y1="-2221.9512" x2="336.0005" y2="-1977.9512" gradientTransform="matrix(1 0 0 -1 -208.0005 -1971.9512)">
			<stop  offset="0" style="stop-color:#F57C00"/>
			<stop  offset="0.099" style="stop-color:#F78B0C"/>
			<stop  offset="0.3289" style="stop-color:#FAA823"/>
			<stop  offset="0.5576" style="stop-color:#FDBC33"/>
			<stop  offset="0.7827" style="stop-color:#FEC93D"/>
			<stop  offset="1" style="stop-color:#FFCD40"/>
		</linearGradient>
		<path class="st3" d="M150.9,250l68.6-68.6V6h-183v244H150.9z"/>
		<polygon class="st4" points="147.1,177.6 147.1,250 150.9,250 219.5,181.4 219.5,177.6 		"/>
		<path class="st5" d="M150.9,181.4h68.6L150.9,250V181.4z"/>
		<g>
			<path class="st6" d="M217.5,8v172.5L150,248H97.5h-59V8H217.5 M219.5,6h-183v244h61h53.4l68.6-68.6V6L219.5,6z"/>
		</g>
	</g>
	<g class="st7">
		<path class="st8" d="M111.5,141.5c0,0-4.8,2.7,3.4,3.6c10,1.1,15.1,0.9,26-1c0,0,2.9,1.7,6.9,3.2
			C123.3,157.2,92.2,146.6,111.5,141.5"/>
		<path class="st8" d="M108.5,128.5c0,0-5.4,3.8,2.8,4.6c10.7,1,19,1.1,33.6-1.5c0,0,2,1.9,5.2,3
			C120.4,142.8,87.2,135.2,108.5,128.5"/>
		<path class="st8" d="M133.9,106.4c6,6.6-1.6,12.6-1.6,12.6s15.4-7.6,8.3-17c-6.6-8.8-11.7-13.1,15.7-28.2
			C156.3,73.7,113.3,83.9,133.9,106.4"/>
		<path class="st8" d="M166.3,151.1c0,0,3.6,2.8-3.9,4.9c-14.2,4.1-59.1,5.3-71.5,0.2c-4.5-1.8,3.9-4.4,6.6-4.9
			c2.8-0.6,4.3-0.5,4.3-0.5c-5-3.3-32.2,6.5-13.8,9.4C138.1,167.9,179.4,156.7,166.3,151.1"/>
		<path class="st8" d="M113.8,115c0,0-22.9,5.1-8.1,7c6.2,0.8,18.6,0.6,30.2-0.3c9.4-0.7,18.9-2.3,18.9-2.3s-3.3,1.3-5.7,2.9
			c-23.2,5.8-68,3.1-55.1-2.8C105,114.4,113.8,115,113.8,115"/>
		<path class="st8" d="M154.8,136.6c23.6-11.6,12.7-22.8,5.1-21.3c-1.9,0.4-2.7,0.7-2.7,0.7s0.7-1,2-1.5c15.1-5,26.6,14.8-4.9,22.7
			C154.3,137.3,154.7,136.9,154.8,136.6"/>
		<path class="st8" d="M140.6,49.4c0,0,13.1,12.4-12.4,31.4c-20.4,15.3-4.7,24,0,33.9c-11.9-10.2-20.7-19.2-14.8-27.5
			C122,75,145.8,69,140.6,49.4"/>
		<path class="st8" d="M116.1,168.1c22.6,1.4,57.4-0.8,58.2-10.9c0,0-1.6,3.8-18.7,6.9c-19.3,3.4-43.1,3-57.2,0.8
			C98.4,164.9,101.3,167.2,116.1,168.1"/>
	</g>
</g>
</svg>
