<?xml version="1.0" encoding="utf-8"?>
<!-- Generator: Adobe Illustrator 21.0.0, SVG Export Plug-In . SVG Version: 6.00 Build 0)  -->
<svg version="1.1" id="图层_1" xmlns="http://www.w3.org/2000/svg" xmlns:xlink="http://www.w3.org/1999/xlink" x="0px" y="0px"
	 viewBox="0 0 256 256" style="enable-background:new 0 0 256 256;" xml:space="preserve">
<style type="text/css">
	.st0{opacity:0.08;enable-background:new    ;}
	.st1{opacity:0.1;enable-background:new    ;}
	.st2{opacity:0.2;enable-background:new    ;}
	.st3{fill:#311B92;}
	.st4{fill:url(#SVGID_1_);}
	.st5{fill:#673AB7;fill-opacity:0.3922;}
	.st6{fill:#FFFFFF;fill-opacity:0.3922;}
	.st7{opacity:0.8;fill:#FFFFFF;enable-background:new    ;}
</style>
<polygon class="st0" points="34.1,256 34.1,4 225.9,4 225.9,185 154.9,256 "/>
<polygon class="st1" points="36.1,254 36.1,6 223.9,6 223.9,184.2 154,254 "/>
<polygon class="st2" points="34.1,252 34.1,4 221.9,4 221.9,182.2 152,252 "/>
<polygon class="st3" points="36.1,250 36.1,6 219.9,6 219.9,181.3 151.2,250 "/>
<g>
	<g>
		
			<linearGradient id="SVGID_1_" gradientUnits="userSpaceOnUse" x1="128" y1="782" x2="128" y2="542" gradientTransform="matrix(1 0 0 1 0 -534)">
			<stop  offset="0" style="stop-color:#512DA8"/>
			<stop  offset="8.000000e-03" style="stop-color:#532EA8"/>
			<stop  offset="0.1976" style="stop-color:#7541B2"/>
			<stop  offset="0.4086" style="stop-color:#9352BC"/>
			<stop  offset="0.6159" style="stop-color:#A95EC3"/>
			<stop  offset="0.8158" style="stop-color:#B666C7"/>
			<stop  offset="1" style="stop-color:#BA68C8"/>
		</linearGradient>
		<polygon class="st4" points="38.1,248 38.1,8 217.9,8 217.9,180.5 150.4,248 		"/>
	</g>
	<polygon class="st5" points="217.9,180.5 217.9,177.6 146.7,177.6 146.7,248 150.4,248 	"/>
	<path class="st6" d="M150.3,180.5l67.6,0.1L150.4,248L150.3,180.5z"/>
</g>
<path class="st7" d="M92.5,65.4L92.5,65.4v30.2h-0.1v9.3h0.1v44.2c-1.6-0.4-3.2-0.6-5-0.6c-8.1,0-14.7,4.8-14.7,10.7
	s6.6,10.7,14.7,10.7s14.7-4.8,14.7-10.7l0,0V103l55.4-11.4v42.2c-1.6-0.4-3.2-0.6-5-0.6c-8.1,0-14.7,4.8-14.7,10.7
	s6.6,10.7,14.7,10.7c8.1,0,14.7-4.8,14.7-10.7l0,0V63.1V50L92.5,65.4z M157.5,82.2l-55.4,11.4V76.5l55.4-11.4V82.2z"/>
</svg>
