<?xml version="1.0" encoding="utf-8"?>
<!-- Generator: Adobe Illustrator 16.0.0, SVG Export Plug-In . SVG Version: 6.00 Build 0)  -->
<!DOCTYPE svg PUBLIC "-//W3C//DTD SVG 1.1//EN" "http://www.w3.org/Graphics/SVG/1.1/DTD/svg11.dtd">
<svg version="1.1" id="图层_1" xmlns="http://www.w3.org/2000/svg" xmlns:xlink="http://www.w3.org/1999/xlink" x="0px" y="0px"
	 width="256px" height="256px" viewBox="0 0 256 256" enable-background="new 0 0 256 256" xml:space="preserve">
<polygon opacity="0.08" enable-background="new    " points="34.1,256 34.1,4 225.9,4 225.9,185 154.9,256 "/>
<polygon opacity="0.1" enable-background="new    " points="36.1,254 36.1,6 223.9,6 223.9,184.2 154,254 "/>
<polygon opacity="0.2" enable-background="new    " points="34.1,252 34.1,4 221.9,4 221.9,182.2 152,252 "/>
<polygon fill="#0D47A1" points="36.1,250 36.1,6 219.9,6 219.9,181.3 151.2,250 "/>
<g>
	<g>
		<g>
			<g>
				<linearGradient id="SVGID_1_" gradientUnits="userSpaceOnUse" x1="128.0005" y1="135.5" x2="128.0005" y2="120.5005">
					<stop  offset="0" style="stop-color:#3F51B5"/>
					<stop  offset="1" style="stop-color:#64B5F6"/>
				</linearGradient>
				<polygon fill="url(#SVGID_1_)" points="122.381,135.5 122.381,120.5 133.619,120.5 133.619,131.281 129.4,135.5 				"/>
			</g>
			<polygon fill="#2196F3" fill-opacity="0.7" points="133.619,131.281 133.619,131.1 129.169,131.1 129.169,135.5 129.4,135.5 			
				"/>
			<path opacity="0.39" fill="#FFFFFF" d="M129.395,131.281l4.226,0.006l-4.22,4.213L129.395,131.281z"/>
		</g>
		<g opacity="0.8">
			<linearGradient id="SVGID_2_" gradientUnits="userSpaceOnUse" x1="124.0469" y1="125.6167" x2="131.9473" y2="125.6167">
				<stop  offset="0" style="stop-color:#F6F5F5"/>
				<stop  offset="0.341" style="stop-color:#F1F2F3"/>
				<stop  offset="0.6434" style="stop-color:#E7EAEB"/>
				<stop  offset="0.9302" style="stop-color:#D5DBDF"/>
				<stop  offset="1" style="stop-color:#CFD7DB"/>
			</linearGradient>
			<rect x="124.047" y="125.421" opacity="0.8" fill="url(#SVGID_2_)" enable-background="new    " width="7.9" height="0.391"/>
			<linearGradient id="SVGID_3_" gradientUnits="userSpaceOnUse" x1="124.0469" y1="124.396" x2="131.9473" y2="124.396">
				<stop  offset="0" style="stop-color:#F6F5F5"/>
				<stop  offset="0.341" style="stop-color:#F1F2F3"/>
				<stop  offset="0.6434" style="stop-color:#E7EAEB"/>
				<stop  offset="0.9302" style="stop-color:#D5DBDF"/>
				<stop  offset="1" style="stop-color:#CFD7DB"/>
			</linearGradient>
			<rect x="124.047" y="124.2" opacity="0.8" fill="url(#SVGID_3_)" enable-background="new    " width="7.9" height="0.392"/>
			<linearGradient id="SVGID_4_" gradientUnits="userSpaceOnUse" x1="127.8159" y1="128.6328" x2="131.9414" y2="128.6328">
				<stop  offset="0" style="stop-color:#F6F5F5"/>
				<stop  offset="0.341" style="stop-color:#F1F2F3"/>
				<stop  offset="0.6434" style="stop-color:#E7EAEB"/>
				<stop  offset="0.9302" style="stop-color:#D5DBDF"/>
				<stop  offset="1" style="stop-color:#CFD7DB"/>
			</linearGradient>
			<rect x="127.816" y="126.571" opacity="0.8" fill="url(#SVGID_4_)" enable-background="new    " width="4.125" height="4.124"/>
			<g opacity="0.8">
				<linearGradient id="SVGID_5_" gradientUnits="userSpaceOnUse" x1="124.0469" y1="126.8374" x2="127.4785" y2="126.8374">
					<stop  offset="0" style="stop-color:#F6F5F5"/>
					<stop  offset="0.341" style="stop-color:#F1F2F3"/>
					<stop  offset="0.6434" style="stop-color:#E7EAEB"/>
					<stop  offset="0.9302" style="stop-color:#D5DBDF"/>
					<stop  offset="1" style="stop-color:#CFD7DB"/>
				</linearGradient>
				<rect x="124.047" y="126.642" fill="url(#SVGID_5_)" width="3.432" height="0.392"/>
				<linearGradient id="SVGID_6_" gradientUnits="userSpaceOnUse" x1="124.0469" y1="128.0586" x2="127.4785" y2="128.0586">
					<stop  offset="0" style="stop-color:#F6F5F5"/>
					<stop  offset="0.341" style="stop-color:#F1F2F3"/>
					<stop  offset="0.6434" style="stop-color:#E7EAEB"/>
					<stop  offset="0.9302" style="stop-color:#D5DBDF"/>
					<stop  offset="1" style="stop-color:#CFD7DB"/>
				</linearGradient>
				<rect x="124.047" y="127.864" fill="url(#SVGID_6_)" width="3.432" height="0.39"/>
				<linearGradient id="SVGID_7_" gradientUnits="userSpaceOnUse" x1="124.0469" y1="129.2842" x2="127.4785" y2="129.2842">
					<stop  offset="0" style="stop-color:#F6F5F5"/>
					<stop  offset="0.341" style="stop-color:#F1F2F3"/>
					<stop  offset="0.6434" style="stop-color:#E7EAEB"/>
					<stop  offset="0.9302" style="stop-color:#D5DBDF"/>
					<stop  offset="1" style="stop-color:#CFD7DB"/>
				</linearGradient>
				<rect x="124.047" y="129.089" fill="url(#SVGID_7_)" width="3.432" height="0.391"/>
				<linearGradient id="SVGID_8_" gradientUnits="userSpaceOnUse" x1="124.0469" y1="130.5049" x2="127.4785" y2="130.5049">
					<stop  offset="0" style="stop-color:#F6F5F5"/>
					<stop  offset="0.341" style="stop-color:#F1F2F3"/>
					<stop  offset="0.6434" style="stop-color:#E7EAEB"/>
					<stop  offset="0.9302" style="stop-color:#D5DBDF"/>
					<stop  offset="1" style="stop-color:#CFD7DB"/>
				</linearGradient>
				<rect x="124.047" y="130.31" fill="url(#SVGID_8_)" width="3.432" height="0.391"/>
			</g>
		</g>
	</g>
	<g>
		<rect x="122.37" y="120.5" opacity="0.8" fill="#FFFFFF" width="11.244" height="2.875"/>
		<g>
			<path fill="#1976D2" d="M127.095,121.936c0,0.192-0.03,0.361-0.09,0.506s-0.143,0.267-0.247,0.365
				c-0.104,0.098-0.229,0.172-0.373,0.221c-0.144,0.05-0.299,0.075-0.464,0.075c-0.161,0-0.313-0.025-0.456-0.075
				c-0.143-0.049-0.268-0.123-0.375-0.221c-0.106-0.098-0.19-0.22-0.251-0.365c-0.062-0.146-0.092-0.314-0.092-0.506
				s0.032-0.36,0.096-0.506s0.149-0.268,0.257-0.367c0.107-0.099,0.232-0.173,0.375-0.223c0.142-0.05,0.291-0.075,0.447-0.075
				c0.161,0,0.313,0.025,0.456,0.075c0.143,0.049,0.268,0.124,0.375,0.223c0.106,0.1,0.19,0.222,0.251,0.367
				C127.064,121.575,127.095,121.744,127.095,121.936z M125.295,121.936c0,0.11,0.014,0.209,0.042,0.298s0.069,0.164,0.123,0.228
				c0.053,0.064,0.118,0.113,0.195,0.147c0.077,0.034,0.166,0.052,0.266,0.052c0.098,0,0.186-0.018,0.264-0.052
				c0.079-0.035,0.144-0.083,0.197-0.147c0.054-0.063,0.094-0.139,0.123-0.228s0.042-0.188,0.042-0.298s-0.014-0.209-0.042-0.299
				s-0.069-0.166-0.123-0.229c-0.053-0.063-0.119-0.113-0.197-0.147c-0.078-0.034-0.166-0.052-0.264-0.052
				c-0.1,0-0.188,0.018-0.266,0.054s-0.142,0.085-0.195,0.148c-0.054,0.064-0.094,0.14-0.123,0.229
				C125.309,121.729,125.295,121.828,125.295,121.936z"/>
			<path fill="#1976D2" d="M129.535,121.936c0,0.194-0.031,0.363-0.095,0.508c-0.064,0.145-0.154,0.264-0.271,0.359
				c-0.117,0.095-0.26,0.166-0.428,0.213s-0.356,0.071-0.565,0.071c-0.095,0-0.207-0.004-0.333-0.012
				c-0.127-0.007-0.252-0.023-0.374-0.047v-2.182c0.122-0.021,0.25-0.036,0.383-0.044c0.133-0.007,0.247-0.011,0.342-0.011
				c0.202,0,0.386,0.021,0.55,0.065c0.164,0.043,0.306,0.111,0.424,0.204s0.208,0.211,0.272,0.355
				C129.504,121.56,129.535,121.733,129.535,121.936z M128,122.647c0.025,0.002,0.054,0.004,0.087,0.005
				c0.033,0.001,0.072,0.001,0.117,0.001c0.266,0,0.462-0.063,0.59-0.19c0.129-0.127,0.192-0.303,0.192-0.527
				c0-0.235-0.062-0.413-0.184-0.533s-0.316-0.181-0.582-0.181c-0.036,0-0.074,0-0.112,0.001c-0.039,0.001-0.075,0.004-0.109,0.008
				V122.647z"/>
			<path fill="#1976D2" d="M131.58,120.817v0.43h-0.711v1.811h-0.531v-1.811h-0.711v-0.43H131.58z"/>
		</g>
	</g>
</g>
<g>
	<g>
		<g>
			<g>
				<linearGradient id="SVGID_9_" gradientUnits="userSpaceOnUse" x1="128.0786" y1="248" x2="128.0786" y2="8.0005">
					<stop  offset="0" style="stop-color:#3F51B5"/>
					<stop  offset="1" style="stop-color:#64B5F6"/>
				</linearGradient>
				<polygon fill="url(#SVGID_9_)" points="38.172,248 38.172,8 217.984,8 217.984,180.5 150.484,248 				"/>
			</g>
			<polygon fill="#2196F3" fill-opacity="0.7" points="217.984,180.5 217.984,177.594 146.781,177.594 146.781,248 150.484,248 			
				"/>
			<path opacity="0.39" fill="#FFFFFF" d="M150.391,180.5L218,180.594L150.484,248L150.391,180.5z"/>
		</g>
		<g opacity="0.8">
			<linearGradient id="SVGID_10_" gradientUnits="userSpaceOnUse" x1="64.8281" y1="89.8672" x2="191.2344" y2="89.8672">
				<stop  offset="0" style="stop-color:#F6F5F5"/>
				<stop  offset="0.341" style="stop-color:#F1F2F3"/>
				<stop  offset="0.6434" style="stop-color:#E7EAEB"/>
				<stop  offset="0.9302" style="stop-color:#D5DBDF"/>
				<stop  offset="1" style="stop-color:#CFD7DB"/>
			</linearGradient>
			<rect x="64.828" y="86.742" opacity="0.8" fill="url(#SVGID_10_)" enable-background="new    " width="126.406" height="6.25"/>
			<linearGradient id="SVGID_11_" gradientUnits="userSpaceOnUse" x1="64.8281" y1="70.3359" x2="191.2344" y2="70.3359">
				<stop  offset="0" style="stop-color:#F6F5F5"/>
				<stop  offset="0.341" style="stop-color:#F1F2F3"/>
				<stop  offset="0.6434" style="stop-color:#E7EAEB"/>
				<stop  offset="0.9302" style="stop-color:#D5DBDF"/>
				<stop  offset="1" style="stop-color:#CFD7DB"/>
			</linearGradient>
			<rect x="64.828" y="67.203" opacity="0.8" fill="url(#SVGID_11_)" enable-background="new    " width="126.406" height="6.266"/>
			<linearGradient id="SVGID_12_" gradientUnits="userSpaceOnUse" x1="125.1328" y1="138.1211" x2="191.1406" y2="138.1211">
				<stop  offset="0" style="stop-color:#F6F5F5"/>
				<stop  offset="0.341" style="stop-color:#F1F2F3"/>
				<stop  offset="0.6434" style="stop-color:#E7EAEB"/>
				<stop  offset="0.9302" style="stop-color:#D5DBDF"/>
				<stop  offset="1" style="stop-color:#CFD7DB"/>
			</linearGradient>
			
				<rect x="125.133" y="105.133" opacity="0.8" fill="url(#SVGID_12_)" enable-background="new    " width="66.008" height="65.977"/>
			<g opacity="0.8">
				<linearGradient id="SVGID_13_" gradientUnits="userSpaceOnUse" x1="64.8281" y1="109.3984" x2="119.7344" y2="109.3984">
					<stop  offset="0" style="stop-color:#F6F5F5"/>
					<stop  offset="0.341" style="stop-color:#F1F2F3"/>
					<stop  offset="0.6434" style="stop-color:#E7EAEB"/>
					<stop  offset="0.9302" style="stop-color:#D5DBDF"/>
					<stop  offset="1" style="stop-color:#CFD7DB"/>
				</linearGradient>
				<rect x="64.828" y="106.266" fill="url(#SVGID_13_)" width="54.906" height="6.266"/>
				<linearGradient id="SVGID_14_" gradientUnits="userSpaceOnUse" x1="64.8281" y1="128.9375" x2="119.7344" y2="128.9375">
					<stop  offset="0" style="stop-color:#F6F5F5"/>
					<stop  offset="0.341" style="stop-color:#F1F2F3"/>
					<stop  offset="0.6434" style="stop-color:#E7EAEB"/>
					<stop  offset="0.9302" style="stop-color:#D5DBDF"/>
					<stop  offset="1" style="stop-color:#CFD7DB"/>
				</linearGradient>
				<rect x="64.828" y="125.82" fill="url(#SVGID_14_)" width="54.906" height="6.234"/>
				<linearGradient id="SVGID_15_" gradientUnits="userSpaceOnUse" x1="64.8281" y1="148.5469" x2="119.7344" y2="148.5469">
					<stop  offset="0" style="stop-color:#F6F5F5"/>
					<stop  offset="0.341" style="stop-color:#F1F2F3"/>
					<stop  offset="0.6434" style="stop-color:#E7EAEB"/>
					<stop  offset="0.9302" style="stop-color:#D5DBDF"/>
					<stop  offset="1" style="stop-color:#CFD7DB"/>
				</linearGradient>
				<rect x="64.828" y="145.422" fill="url(#SVGID_15_)" width="54.906" height="6.25"/>
				<linearGradient id="SVGID_16_" gradientUnits="userSpaceOnUse" x1="64.8281" y1="168.0781" x2="119.7344" y2="168.0781">
					<stop  offset="0" style="stop-color:#F6F5F5"/>
					<stop  offset="0.341" style="stop-color:#F1F2F3"/>
					<stop  offset="0.6434" style="stop-color:#E7EAEB"/>
					<stop  offset="0.9302" style="stop-color:#D5DBDF"/>
					<stop  offset="1" style="stop-color:#CFD7DB"/>
				</linearGradient>
				<rect x="64.828" y="164.953" fill="url(#SVGID_16_)" width="54.906" height="6.25"/>
			</g>
		</g>
	</g>
	<g>
		<rect x="38" y="8" opacity="0.8" fill="#FFFFFF" width="179.906" height="46"/>
		<g>
			<path fill="#1976D2" d="M113.602,30.969c0,3.07-0.484,5.773-1.445,8.102s-2.281,4.273-3.945,5.844
				c-1.672,1.57-3.664,2.75-5.969,3.539c-2.305,0.797-4.781,1.195-7.43,1.195c-2.578,0-5.008-0.398-7.297-1.195
				c-2.289-0.789-4.281-1.969-5.992-3.539c-1.703-1.57-3.047-3.516-4.023-5.844c-0.984-2.328-1.477-5.031-1.477-8.102
				s0.516-5.766,1.531-8.094s2.383-4.281,4.109-5.875c1.719-1.578,3.719-2.773,5.992-3.563c2.266-0.797,4.648-1.195,7.156-1.195
				c2.578,0,5.008,0.398,7.297,1.195c2.289,0.789,4.281,1.984,5.992,3.563c1.703,1.594,3.047,3.547,4.023,5.875
				C113.109,25.203,113.602,27.898,113.602,30.969z M84.797,30.969c0,1.758,0.227,3.352,0.68,4.766s1.102,2.625,1.961,3.641
				c0.852,1.023,1.891,1.805,3.125,2.359c1.234,0.547,2.656,0.828,4.25,0.828c1.563,0,2.969-0.281,4.219-0.828
				c1.258-0.555,2.305-1.336,3.156-2.359c0.859-1.016,1.508-2.227,1.961-3.641s0.68-3.008,0.68-4.766s-0.227-3.352-0.68-4.781
				s-1.102-2.656-1.961-3.672c-0.852-1.016-1.898-1.805-3.156-2.359c-1.25-0.547-2.656-0.828-4.219-0.828
				c-1.594,0-3.016,0.289-4.25,0.859s-2.273,1.359-3.125,2.375c-0.859,1.023-1.508,2.242-1.961,3.672
				C85.023,27.672,84.797,29.25,84.797,30.969z"/>
			<path fill="#1976D2" d="M152.641,30.969c0,3.109-0.5,5.813-1.516,8.125c-1.031,2.313-2.469,4.227-4.328,5.742
				c-1.875,1.516-4.156,2.656-6.844,3.414s-5.695,1.141-9.039,1.141c-1.523,0-3.305-0.063-5.336-0.188
				c-2.031-0.117-4.031-0.367-5.984-0.75V13.539c1.953-0.344,4-0.578,6.125-0.703c2.125-0.117,3.945-0.18,5.469-0.18
				c3.234,0,6.172,0.344,8.797,1.039c2.625,0.688,4.891,1.773,6.781,3.258s3.328,3.383,4.359,5.688
				C152.141,24.953,152.641,27.727,152.641,30.969z M128.086,42.352c0.398,0.039,0.859,0.063,1.391,0.078
				c0.523,0.016,1.148,0.023,1.875,0.023c4.25,0,7.398-1.016,9.445-3.047c2.063-2.039,3.078-4.852,3.078-8.438
				c0-3.758-0.984-6.602-2.938-8.531s-5.063-2.898-9.313-2.898c-0.578,0-1.18,0.008-1.797,0.023
				c-0.617,0.023-1.195,0.063-1.742,0.133V42.352z"/>
			<path fill="#1976D2" d="M185.359,13.07v6.883h-11.375v28.969h-8.5V19.953h-11.375V13.07H185.359z"/>
		</g>
	</g>
</g>
</svg>
