<?xml version="1.0" encoding="utf-8"?>
<!-- Generator: Adobe Illustrator 16.0.0, SVG Export Plug-In . SVG Version: 6.00 Build 0)  -->
<!DOCTYPE svg PUBLIC "-//W3C//DTD SVG 1.1//EN" "http://www.w3.org/Graphics/SVG/1.1/DTD/svg11.dtd">
<svg version="1.1" id="图层_1" xmlns="http://www.w3.org/2000/svg" xmlns:xlink="http://www.w3.org/1999/xlink" x="0px" y="0px"
	 width="256px" height="256px" viewBox="0 0 256 256" enable-background="new 0 0 256 256" xml:space="preserve">
<polygon opacity="0.08" enable-background="new    " points="34.1,256 34.1,4 225.9,4 225.9,185 154.9,256 "/>
<polygon opacity="0.1" enable-background="new    " points="36.1,254 36.1,6 223.9,6 223.9,184.2 154,254 "/>
<polygon opacity="0.2" enable-background="new    " points="34.1,252 34.1,4 221.9,4 221.9,182.2 152,252 "/>
<polygon fill="#3E2723" points="36.1,250 36.1,6 219.9,6 219.9,181.3 151.2,250 "/>
<g>
	<g>
		
			<linearGradient id="SVGID_1_" gradientUnits="userSpaceOnUse" x1="169.6006" y1="84.0996" x2="169.6006" y2="-155.9009" gradientTransform="matrix(1 0 0 -1 -41.6001 92.0996)">
			<stop  offset="0" style="stop-color:#785548"/>
			<stop  offset="1" style="stop-color:#9F9E9F"/>
		</linearGradient>
		<polygon fill="url(#SVGID_1_)" points="38.09,248 38.09,8 217.911,8 217.911,180.41 151.069,248 		"/>
		<polygon fill="#795548" fill-opacity="0.7" points="217.911,180.5 217.911,177.598 146.717,177.598 146.717,248 150.411,248 		"/>
		<path opacity="0.39" fill="#FFFFFF" enable-background="new    " d="M150.311,180.5l67.601,0.09l-67.5,67.41L150.311,180.5z"/>
	</g>
	<path fill="#FFFFFF" d="M102.342,54.267h-6.083v77.936h-4.609V54.267h-6.038v77.936h-4.598V54.267h-6.061v77.936h-4.609V54.267
		h-6.061v77.936h-1.584v33.019h41.719v-33.019h-2.076V54.267z M98.346,155.623H68.748v-19.141h29.598V155.623z"/>
	<g>
		<rect x="38.056" y="8" opacity="0.8" fill="#FFFFFF" enable-background="new    " width="179.889" height="45.999"/>
		<g enable-background="new    ">
			<path fill="#5D4037" d="M106.393,48.932c-0.401-1.245-0.859-2.528-1.339-3.839c-0.491-1.312-0.971-2.623-1.439-3.923H88.859
				c-0.469,1.306-0.948,2.617-1.417,3.934c-0.48,1.311-0.927,2.589-1.34,3.828h-8.816c1.406-3.862,2.768-7.433,4.028-10.714
				c1.284-3.27,2.534-6.356,3.75-9.258c1.217-2.896,2.422-5.647,3.594-8.248c1.194-2.6,2.422-5.15,3.694-7.634h8.059
				c1.238,2.483,2.455,5.034,3.66,7.634c1.194,2.601,2.422,5.352,3.639,8.248c1.217,2.902,2.467,5.988,3.75,9.258
				c1.283,3.281,2.623,6.853,4.04,10.714H106.393z M96.203,21.203c-0.201,0.514-0.469,1.228-0.837,2.126
				c-0.357,0.898-0.781,1.931-1.239,3.103c-0.469,1.177-0.993,2.466-1.563,3.878c-0.58,1.417-1.172,2.891-1.763,4.447h10.792
				c-0.569-1.557-1.139-3.041-1.686-4.458c-0.524-1.417-1.049-2.712-1.528-3.884c-0.503-1.183-0.927-2.209-1.284-3.108
				C96.728,22.414,96.427,21.711,96.203,21.203z"/>
			<path fill="#5D4037" d="M131.393,12.665c5.659,0,10,0.96,13.014,2.874s4.521,4.889,4.521,8.923c0,2.517-0.592,4.56-1.819,6.133
				c-1.217,1.568-2.969,2.796-5.246,3.694c0.748,0.898,1.552,1.92,2.378,3.081c0.837,1.155,1.674,2.355,2.5,3.622
				c0.814,1.261,1.596,2.562,2.354,3.929c0.771,1.361,1.474,2.695,2.132,4.012h-9.509c-0.703-1.172-1.384-2.361-2.109-3.572
				c-0.703-1.205-1.429-2.377-2.188-3.516c-0.748-1.144-1.462-2.221-2.21-3.236c-0.726-1.016-1.439-1.937-2.177-2.762h-4.207v13.086
				h-8.482v-35.34c1.864-0.341,3.772-0.586,5.736-0.714C128.067,12.732,129.83,12.665,131.393,12.665z M131.896,19.546
				c-0.625,0-1.194,0.017-1.663,0.056c-0.491,0.034-0.96,0.062-1.406,0.101v9.727h2.41c3.192,0,5.469-0.379,6.864-1.139
				c1.373-0.759,2.076-2.053,2.076-3.884c0-1.758-0.726-3.008-2.109-3.75C136.672,19.914,134.607,19.546,131.896,19.546z"/>
			<path fill="#5D4037" d="M178.703,36.873c0,1.758-0.201,3.415-0.625,4.972c-0.401,1.546-1.127,2.908-2.165,4.063
				c-1.038,1.155-2.422,2.07-4.196,2.74c-1.764,0.675-3.984,1.01-6.663,1.01c-2.478,0-4.599-0.29-6.384-0.859
				c-1.774-0.563-3.248-1.228-4.397-1.986l2.823-6.267c1.05,0.586,2.177,1.11,3.371,1.557c1.205,0.446,2.522,0.67,3.929,0.67
				c2.064,0,3.56-0.48,4.464-1.445c0.904-0.966,1.361-2.584,1.361-4.866V13.078h8.482V36.873z"/>
		</g>
	</g>
</g>
</svg>
