<?xml version="1.0" encoding="utf-8"?>
<!-- Generator: Adobe Illustrator 17.1.0, SVG Export Plug-In . SVG Version: 6.00 Build 0)  -->
<!DOCTYPE svg PUBLIC "-//W3C//DTD SVG 1.1//EN" "http://www.w3.org/Graphics/SVG/1.1/DTD/svg11.dtd">
<svg version="1.1" id="图层_1" xmlns="http://www.w3.org/2000/svg" xmlns:xlink="http://www.w3.org/1999/xlink" x="0px" y="0px"
	 width="256px" height="256px" viewBox="0 0 256 256" enable-background="new 0 0 256 256" xml:space="preserve">
<g>
	<rect x="26" y="26" opacity="8.000000e-002" width="208" height="208"/>
	<rect x="28" y="28" opacity="9.999999e-002" width="204" height="204"/>
	<rect x="26" y="26" opacity="0.2" width="204" height="204"/>
	<rect x="28" y="28" fill="#455A64" width="200" height="200"/>
	<linearGradient id="SVGID_1_" gradientUnits="userSpaceOnUse" x1="128" y1="30" x2="128" y2="226">
		<stop  offset="0" style="stop-color:#90A4AE"/>
		<stop  offset="0.1378" style="stop-color:#849AA5"/>
		<stop  offset="0.4226" style="stop-color:#708A97"/>
		<stop  offset="0.7096" style="stop-color:#64808E"/>
		<stop  offset="1" style="stop-color:#607D8B"/>
	</linearGradient>
	<rect x="30" y="30" fill="url(#SVGID_1_)" width="196" height="196"/>
</g>
<path opacity="0.8" fill="#FFFFFF" d="M176.6,153.9c0.2-0.3,0.3-0.6,0.5-0.9c0.3-0.6,0.6-1.1,0.8-1.7c0,0,0-0.1,0.1-0.1
	c1.4-3.1,2.6-6.4,3.4-9.9h13.1v-26.3h-13c-1.3-5.5-3.5-10.6-6.3-15.3l9.2-9.2l-18.6-18.6l-9.2,9.2c-4.8-2.9-10-5.1-15.6-6.5h0.1
	V61.5h-26.3v13.1h0.1c-5.6,1.4-10.8,3.5-15.6,6.4l-9.2-9.2L71.6,90.4l9.2,9.2c-2.8,4.7-5,9.8-6.3,15.3H61.5v26.3h13.1
	c1.3,5.5,3.5,10.6,6.3,15.4l0,0l-9.2,9.2l18.6,18.6l9.2-9.2c4.7,2.9,9.9,5,15.4,6.4v13h26.3v-13c0,0,0,0,0,0v0
	c5.5-1.4,10.7-3.5,15.4-6.4l9.2,9.2l18.6-18.6l-9.2-9.2l0,0c0.3-0.5,0.6-1.1,0.9-1.6C176.2,154.6,176.4,154.2,176.6,153.9z M128,170
	c-23.2,0-42-18.8-42-42c0-23.2,18.8-42,42-42c4.6,0,9,0.7,13.2,2.1v0c16.7,5.5,28.8,21.3,28.8,39.9c0,1.1,0,2.3-0.1,3.4
	c0,0,0,0.1,0,0.1c-0.3,3.4-0.9,6.6-2,9.7c0,0.1-0.1,0.2-0.1,0.3c-0.7,2-1.5,3.9-2.4,5.7c-0.1,0.1-0.1,0.2-0.1,0.3
	c-0.5,0.9-1,1.8-1.5,2.6c0,0.1-0.1,0.1-0.1,0.2c-0.5,0.8-1.1,1.7-1.7,2.5c0,0-0.1,0.1-0.1,0.1c-0.6,0.8-1.2,1.6-1.9,2.3
	c-0.1,0.1-0.2,0.2-0.3,0.3c-1.3,1.5-2.7,2.9-4.2,4.2c-0.1,0.1-0.2,0.2-0.4,0.3c-0.7,0.6-1.5,1.2-2.3,1.8c-0.1,0.1-0.2,0.2-0.4,0.2
	c-0.7,0.5-1.5,1-2.3,1.5c-0.1,0.1-0.2,0.1-0.3,0.2c-0.8,0.5-1.6,1-2.5,1.4c-0.2,0.1-0.4,0.2-0.6,0.3c-0.9,0.4-1.7,0.8-2.6,1.2
	c-0.1,0-0.2,0.1-0.3,0.1c-0.8,0.3-1.6,0.6-2.4,0.9C137.3,169.2,132.8,170,128,170z"/>
</svg>
