<?xml version="1.0" encoding="utf-8"?>
<!-- Generator: Adobe Illustrator 17.1.0, SVG Export Plug-In . SVG Version: 6.00 Build 0)  -->
<!DOCTYPE svg PUBLIC "-//W3C//DTD SVG 1.1//EN" "http://www.w3.org/Graphics/SVG/1.1/DTD/svg11.dtd">
<svg version="1.1" id="图层_1" xmlns="http://www.w3.org/2000/svg" xmlns:xlink="http://www.w3.org/1999/xlink" x="0px" y="0px"
	 width="256px" height="256px" viewBox="0 0 256 256" enable-background="new 0 0 256 256" xml:space="preserve">
<polygon opacity="8.000000e-002" enable-background="new    " points="34.1,256 34.1,4 225.9,4 225.9,185 154.9,256 "/>
<polygon opacity="9.999999e-002" enable-background="new    " points="36.1,254 36.1,6 223.9,6 223.9,184.2 154,254 "/>
<polygon opacity="0.2" enable-background="new    " points="34.1,252 34.1,4 221.9,4 221.9,182.2 152,252 "/>
<polygon fill="#455A64" points="36.1,250 36.1,6 219.9,6 219.9,181.3 151.2,250 "/>
<g>
	<g>
		<linearGradient id="SVGID_1_" gradientUnits="userSpaceOnUse" x1="128" y1="8" x2="128" y2="248">
			<stop  offset="0" style="stop-color:#90A4AE"/>
			<stop  offset="0.1378" style="stop-color:#849AA5"/>
			<stop  offset="0.4226" style="stop-color:#708A97"/>
			<stop  offset="0.7096" style="stop-color:#64808E"/>
			<stop  offset="1" style="stop-color:#607D8B"/>
		</linearGradient>
		<polygon fill="url(#SVGID_1_)" points="38.1,248 38.1,8 217.9,8 217.9,180.5 150.4,248 		"/>
	</g>
	<polygon fill="#455A64" fill-opacity="0.39" points="217.9,180.5 217.9,177.6 146.7,177.6 146.7,248 150.4,248 	"/>
	<path fill="#FFFFFF" fill-opacity="0.39" d="M150.3,180.5l67.6,0.1L150.4,248L150.3,180.5z"/>
</g>
<path opacity="0.8" fill="#FFFFFF" d="M170,132.3c0.1-0.3,0.3-0.5,0.4-0.8c0.2-0.5,0.5-1,0.7-1.5c0,0,0-0.1,0.1-0.1
	c1.3-2.7,2.2-5.6,3-8.5h11.3V98.7h-11.3c-1.2-4.7-3-9.2-5.5-13.2l8-8l-16.1-16.1l-8,8c-4.1-2.5-8.6-4.4-13.5-5.6h0.1V52.5h-22.7
	v11.3h0.1c-4.8,1.2-9.4,3.1-13.5,5.6l-8-8L79.3,77.5l8,8c-2.4,4-4.3,8.5-5.5,13.2H70.5v22.7h11.3c1.2,4.7,3,9.2,5.5,13.3l0,0l-8,8
	l16.1,16.1l8-8c4.1,2.5,8.6,4.4,13.3,5.5v11.3h22.7v-11.3c0,0,0,0,0,0v0c4.8-1.2,9.2-3,13.3-5.5l8,8l16.1-16.1l-8-8l0,0
	c0.3-0.5,0.5-0.9,0.8-1.4C169.7,133,169.9,132.7,170,132.3z M128,146.3c-20.1,0-36.3-16.3-36.3-36.3S108,73.7,128,73.7
	c4,0,7.8,0.6,11.4,1.8v0c14.5,4.8,24.9,18.4,24.9,34.5c0,1,0,2-0.1,2.9c0,0,0,0.1,0,0.1c-0.2,2.9-0.8,5.7-1.7,8.4
	c0,0.1-0.1,0.1-0.1,0.2c-0.6,1.7-1.3,3.4-2.1,4.9c0,0.1-0.1,0.2-0.1,0.3c-0.4,0.8-0.8,1.5-1.3,2.3c0,0.1-0.1,0.1-0.1,0.2
	c-0.5,0.7-0.9,1.4-1.4,2.1c0,0-0.1,0.1-0.1,0.1c-0.5,0.7-1,1.4-1.6,2c-0.1,0.1-0.2,0.2-0.3,0.3c-1.1,1.3-2.3,2.5-3.6,3.6
	c-0.1,0.1-0.2,0.2-0.3,0.3c-0.6,0.5-1.3,1.1-2,1.5c-0.1,0.1-0.2,0.1-0.3,0.2c-0.6,0.5-1.3,0.9-1.9,1.3c-0.1,0.1-0.2,0.1-0.3,0.2
	c-0.7,0.4-1.4,0.8-2.1,1.2c-0.2,0.1-0.3,0.2-0.5,0.3c-0.7,0.4-1.5,0.7-2.2,1c-0.1,0-0.2,0.1-0.3,0.1c-0.7,0.3-1.4,0.5-2.1,0.8
	C136.1,145.6,132.1,146.3,128,146.3z"/>
</svg>
