<?xml version="1.0" encoding="utf-8"?>
<!-- Generator: Adobe Illustrator 16.0.0, SVG Export Plug-In . SVG Version: 6.00 Build 0)  -->
<!DOCTYPE svg PUBLIC "-//W3C//DTD SVG 1.1//EN" "http://www.w3.org/Graphics/SVG/1.1/DTD/svg11.dtd">
<svg version="1.1" id="图层_1" xmlns="http://www.w3.org/2000/svg" xmlns:xlink="http://www.w3.org/1999/xlink" x="0px" y="0px"
	 width="256px" height="256px" viewBox="0 0 256 256" enable-background="new 0 0 256 256" xml:space="preserve">
<polygon opacity="0.08" enable-background="new    " points="34.1,256 34.1,4 225.9,4 225.9,185 154.9,256 "/>
<polygon opacity="0.1" enable-background="new    " points="36.1,254 36.1,6 223.9,6 223.9,184.2 154,254 "/>
<polygon opacity="0.2" enable-background="new    " points="34.1,252 34.1,4 221.9,4 221.9,182.2 152,252 "/>
<polygon fill="#3E2723" points="36.1,250 36.1,6 219.9,6 219.9,181.3 151.2,250 "/>
<g>
	<g>
		
			<linearGradient id="SVGID_1_" gradientUnits="userSpaceOnUse" x1="169.6074" y1="84.0996" x2="169.6074" y2="-155.9009" gradientTransform="matrix(1 0 0 -1 -41.6001 92.0996)">
			<stop  offset="0" style="stop-color:#785548"/>
			<stop  offset="1" style="stop-color:#9F9E9F"/>
		</linearGradient>
		<polygon fill="url(#SVGID_1_)" points="38.102,248 38.102,8 217.914,8 217.914,180.406 151.07,248 		"/>
		<polygon fill="#795548" fill-opacity="0.7" points="217.914,180.5 217.914,177.594 146.727,177.594 146.727,248 150.414,248 		"/>
		<path opacity="0.39" fill="#FFFFFF" enable-background="new    " d="M150.32,180.5l67.594,0.094L150.414,248L150.32,180.5z"/>
	</g>
	<path fill="#FFFFFF" d="M102.352,54.266h-6.094v77.938h-4.594V54.266h-6.063v77.938h-4.594V54.266h-6.063v77.938h-4.594V54.266
		h-6.063v77.938h-1.594v33.016h41.719v-33.016h-2.063V54.266z M98.352,155.625H68.758v-19.141h29.594V155.625z"/>
	<g>
		<rect x="38.055" y="8" opacity="0.8" fill="#FFFFFF" enable-background="new    " width="179.891" height="46"/>
		<g enable-background="new    ">
			<path fill="#5D4037" d="M68.57,42.781c1.188,0,2.188-0.094,2.969-0.281c0.781-0.203,1.406-0.469,1.875-0.781
				c0.469-0.344,0.797-0.719,0.984-1.172c0.172-0.453,0.266-0.953,0.266-1.5c0-1.172-0.578-2.148-1.75-2.922
				c-1.156-0.773-3.156-1.609-5.984-2.508c-1.234-0.414-2.469-0.891-3.703-1.422s-2.344-1.211-3.313-2.016
				c-0.984-0.813-1.781-1.797-2.406-2.953c-0.609-1.156-0.922-2.563-0.922-4.211c0-1.656,0.328-3.148,0.984-4.477
				s1.578-2.461,2.766-3.391c1.203-0.93,2.656-1.648,4.359-2.148s3.641-0.75,5.781-0.75c2.531,0,4.734,0.258,6.578,0.781
				c1.859,0.516,3.375,1.086,4.578,1.703l-2.453,6.367c-1.047-0.523-2.219-0.977-3.516-1.375c-1.281-0.398-2.828-0.594-4.641-0.594
				c-2.047,0-3.5,0.266-4.391,0.805c-0.891,0.531-1.328,1.352-1.328,2.453c0,0.656,0.156,1.211,0.484,1.656s0.781,0.852,1.391,1.219
				c0.594,0.359,1.281,0.688,2.063,0.977c0.781,0.297,1.641,0.602,2.594,0.906c1.953,0.695,3.656,1.375,5.109,2.047
				s2.672,1.453,3.625,2.352c0.969,0.898,1.688,1.953,2.156,3.156c0.469,1.211,0.703,2.672,0.703,4.391
				c0,3.344-1.234,5.938-3.703,7.781c-2.469,1.859-6.188,2.781-11.156,2.781c-1.672,0-3.188-0.094-4.531-0.281
				s-2.531-0.438-3.563-0.703s-1.922-0.578-2.672-0.891c-0.734-0.297-1.359-0.594-1.875-0.875l2.406-6.406
				c1.125,0.594,2.5,1.109,4.156,1.578C64.148,42.531,66.164,42.781,68.57,42.781z"/>
			<path fill="#5D4037" d="M112.727,13.078h8.484v35.859h-8.484V33.719H98.461v15.219h-8.5V13.078h8.5v13.711h14.266V13.078z"/>
			<path fill="#5D4037" d="M155.242,48.938c-0.406-1.25-0.859-2.531-1.344-3.844s-0.969-2.625-1.438-3.922h-14.75
				c-0.469,1.297-0.953,2.609-1.438,3.922c-0.469,1.313-0.906,2.594-1.328,3.844h-8.828c1.422-3.875,2.781-7.438,4.047-10.719
				c1.266-3.273,2.516-6.359,3.734-9.258s2.438-5.648,3.609-8.25c1.188-2.602,2.422-5.148,3.688-7.633h8.047
				c1.25,2.484,2.469,5.031,3.672,7.633s2.422,5.352,3.641,8.25s2.469,5.984,3.75,9.258c1.281,3.281,2.625,6.844,4.047,10.719
				H155.242z M145.055,21.203c-0.203,0.516-0.469,1.227-0.844,2.125c-0.359,0.898-0.781,1.93-1.25,3.102
				c-0.469,1.18-0.984,2.469-1.563,3.883c-0.563,1.414-1.156,2.891-1.75,4.445h10.781c-0.563-1.555-1.125-3.039-1.672-4.461
				c-0.547-1.414-1.047-2.711-1.547-3.883c-0.484-1.18-0.906-2.211-1.281-3.109C145.57,22.414,145.273,21.711,145.055,21.203z"/>
			<path fill="#5D4037" d="M180.242,12.664c5.656,0,10,0.961,13.016,2.875s4.516,4.891,4.516,8.922c0,2.516-0.594,4.563-1.813,6.133
				s-2.969,2.797-5.25,3.695c0.75,0.898,1.547,1.922,2.375,3.078c0.844,1.156,1.672,2.352,2.5,3.633
				c0.813,1.25,1.594,2.563,2.359,3.922s1.469,2.703,2.125,4.016h-9.5c-0.703-1.188-1.391-2.375-2.109-3.578
				c-0.703-1.203-1.438-2.375-2.188-3.516s-1.469-2.219-2.219-3.234c-0.719-1.016-1.438-1.938-2.172-2.766h-4.203v13.094h-8.484
				V13.594c1.859-0.344,3.766-0.586,5.734-0.719C176.914,12.734,178.68,12.664,180.242,12.664z M180.742,19.547
				c-0.625,0-1.188,0.016-1.656,0.055c-0.5,0.031-0.969,0.063-1.406,0.102v9.727h2.406c3.188,0,5.469-0.383,6.859-1.141
				c1.375-0.758,2.078-2.055,2.078-3.883c0-1.758-0.719-3.008-2.109-3.75S183.461,19.547,180.742,19.547z"/>
		</g>
	</g>
</g>
</svg>
