<?xml version="1.0" encoding="utf-8"?>
<!-- Generator: Adobe Illustrator 16.0.0, SVG Export Plug-In . SVG Version: 6.00 Build 0)  -->
<!DOCTYPE svg PUBLIC "-//W3C//DTD SVG 1.1//EN" "http://www.w3.org/Graphics/SVG/1.1/DTD/svg11.dtd">
<svg version="1.1" id="图层_1" xmlns="http://www.w3.org/2000/svg" xmlns:xlink="http://www.w3.org/1999/xlink" x="0px" y="0px"
	 width="256px" height="256px" viewBox="0 0 256 256" enable-background="new 0 0 256 256" xml:space="preserve">
<polygon opacity="0.08" enable-background="new    " points="34.1,256 34.1,4 225.9,4 225.9,185 154.9,256 "/>
<polygon opacity="0.1" enable-background="new    " points="36.1,254 36.1,6 223.9,6 223.9,184.2 154,254 "/>
<polygon opacity="0.2" enable-background="new    " points="34.1,252 34.1,4 221.9,4 221.9,182.2 152,252 "/>
<polygon fill="#01579B" points="36.1,250 36.1,6 219.9,6 219.9,181.3 151.2,250 "/>
<circle opacity="0.8" fill="#FFFFFF" enable-background="new    " cx="159.9" cy="95.5" r="12.7"/>
<path opacity="0.8" fill="#FFFFFF" enable-background="new    " d="M65.5,69v82h125V69H65.5z M181.5,78v64l0,0l-29-20.6l-20.7,12.7
	L105.2,102l-30.7,40V78H181.5z"/>
<g>
	<g>
		<g>
			<g>
				
					<linearGradient id="SVGID_1_" gradientUnits="userSpaceOnUse" x1="211.1895" y1="-574.8003" x2="211.1894" y2="-334.8008" gradientTransform="matrix(1 0 0 -1 -83.2002 -326.8008)">
					<stop  offset="0" style="stop-color:#2196F3"/>
					<stop  offset="0.5828" style="stop-color:#3DBAE8"/>
					<stop  offset="1" style="stop-color:#4DD0E1"/>
				</linearGradient>
				<polygon fill="url(#SVGID_1_)" points="38.083,248 38.083,8 217.896,8 217.896,180.5 150.396,248 				"/>
			</g>
			<polygon fill="#01579B" fill-opacity="0.39" points="217.896,180.5 217.896,177.594 146.692,177.594 146.692,248 150.396,248 			
				"/>
			<path fill="#FFFFFF" fill-opacity="0.3922" d="M150.302,180.5l67.609,0.094L150.396,248L150.302,180.5z"/>
		</g>
		<g>
			<path opacity="0.8" fill="#FFFFFF" enable-background="new    " d="M159.896,91.797c7.016,0,12.703,5.688,12.703,12.711
				c0,7.016-5.688,12.703-12.703,12.703s-12.703-5.688-12.703-12.703C147.192,97.484,152.88,91.797,159.896,91.797z"/>
			<path opacity="0.8" fill="#FFFFFF" enable-background="new    " d="M65.497,78.008V160h125.008V78.008H65.497z M181.489,87v64
				l0,0l-29-20.594l-20.711,12.688L105.192,111l-30.711,40V87H181.489z"/>
		</g>
	</g>
	<g>
		<rect x="38.044" y="8" opacity="0.8" fill="#FFFFFF" enable-background="new    " width="179.914" height="46"/>
		<g enable-background="new    ">
			<path fill="#0288D1" d="M90.231,12.398c5.633,0,9.945,0.945,12.961,2.82c3.016,1.883,4.523,4.961,4.523,9.234
				c0,4.313-1.523,7.422-4.578,9.336c-3.047,1.914-7.406,2.875-13.07,2.875h-2.664v12h-8.492V13.328
				c1.852-0.344,3.805-0.586,5.875-0.719C86.856,12.469,88.669,12.398,90.231,12.398z M90.778,19.281
				c-0.617,0-1.227,0.016-1.82,0.055c-0.602,0.031-1.117,0.063-1.555,0.102v10.344h2.664c2.945,0,5.156-0.375,6.648-1.141
				c1.484-0.758,2.234-2.172,2.234-4.242c0-1-0.195-1.82-0.578-2.477c-0.375-0.656-0.922-1.188-1.633-1.578
				c-0.703-0.398-1.57-0.672-2.586-0.828S92.013,19.281,90.778,19.281z"/>
			<path fill="#0288D1" d="M124.278,42.508c1.188,0,2.188-0.094,2.969-0.281c0.781-0.195,1.406-0.453,1.875-0.781
				s0.781-0.711,0.969-1.164c0.188-0.445,0.281-0.945,0.281-1.5c0-1.172-0.594-2.148-1.75-2.922s-3.156-1.609-5.984-2.508
				c-1.234-0.414-2.469-0.891-3.703-1.422s-2.344-1.211-3.32-2.016c-0.984-0.813-1.781-1.797-2.398-2.953s-0.922-2.563-0.922-4.211
				c0-1.656,0.32-3.148,0.977-4.477s1.578-2.461,2.773-3.391c1.203-0.93,2.656-1.648,4.359-2.148s3.625-0.75,5.781-0.75
				c2.531,0,4.719,0.258,6.578,0.781c1.859,0.516,3.383,1.086,4.57,1.703l-2.445,6.367c-1.047-0.523-2.234-0.977-3.516-1.375
				s-2.844-0.594-4.656-0.594c-2.031,0-3.5,0.266-4.375,0.805c-0.891,0.531-1.344,1.352-1.344,2.453c0,0.656,0.172,1.211,0.5,1.656
				c0.313,0.445,0.781,0.852,1.375,1.219c0.609,0.359,1.297,0.688,2.078,0.977c0.781,0.297,1.641,0.602,2.578,0.906
				c1.969,0.695,3.672,1.375,5.125,2.047s2.656,1.453,3.617,2.352c0.969,0.898,1.688,1.953,2.156,3.156
				c0.469,1.211,0.719,2.672,0.719,4.398c0,3.344-1.25,5.938-3.711,7.781c-2.469,1.852-6.188,2.773-11.156,2.773
				c-1.688,0-3.188-0.102-4.531-0.289s-2.531-0.422-3.563-0.695c-1.039-0.273-1.922-0.57-2.672-0.883
				c-0.742-0.305-1.367-0.602-1.875-0.875l2.398-6.414c1.125,0.586,2.508,1.109,4.164,1.578
				C119.849,42.273,121.872,42.508,124.278,42.508z"/>
			<path fill="#0288D1" d="M178.708,30.711c0,3.109-0.5,5.813-1.531,8.125c-1,2.313-2.438,4.227-4.313,5.742
				s-4.156,2.656-6.844,3.414s-5.688,1.141-9.031,1.141c-1.531,0-3.313-0.063-5.344-0.188c-2.031-0.117-4.031-0.367-5.969-0.75
				V13.281c1.938-0.344,4-0.578,6.125-0.703c2.125-0.117,3.938-0.18,5.469-0.18c3.219,0,6.156,0.344,8.781,1.039
				c2.625,0.688,4.906,1.773,6.781,3.258s3.344,3.383,4.344,5.688C178.208,24.695,178.708,27.469,178.708,30.711z M154.146,42.094
				c0.406,0.039,0.875,0.063,1.406,0.078s1.156,0.023,1.875,0.023c4.25,0,7.406-1.016,9.438-3.047
				c2.063-2.039,3.094-4.852,3.094-8.438c0-3.758-1-6.602-2.938-8.531c-1.969-1.93-5.063-2.898-9.313-2.898
				c-0.594,0-1.188,0.008-1.813,0.023c-0.625,0.023-1.188,0.063-1.75,0.133V42.094z"/>
		</g>
	</g>
</g>
</svg>
