<?xml version="1.0" encoding="utf-8"?>
<!-- Generator: Adobe Illustrator 21.0.0, SVG Export Plug-In . SVG Version: 6.00 Build 0)  -->
<svg version="1.1" id="图层_1" xmlns="http://www.w3.org/2000/svg" xmlns:xlink="http://www.w3.org/1999/xlink" x="0px" y="0px"
	 viewBox="0 0 256 256" style="enable-background:new 0 0 256 256;" xml:space="preserve">
<style type="text/css">
	.st0{opacity:0.08;enable-background:new    ;}
	.st1{opacity:0.1;enable-background:new    ;}
	.st2{opacity:0.2;enable-background:new    ;}
	.st3{fill:#E65100;}
	.st4{fill:url(#SVGID_1_);}
	.st5{opacity:0.8;}
	.st6{fill:#FFFFFF;}
	.st7{opacity:0.8;fill:#FFFFFF;enable-background:new    ;}
	.st8{enable-background:new    ;}
	.st9{fill:#E64A19;}
</style>
<rect x="34.1" y="4" class="st0" width="191.8" height="252"/>
<rect x="36.1" y="6" class="st1" width="187.8" height="248"/>
<rect x="34.1" y="4" class="st2" width="187.8" height="248"/>
<rect x="36.1" y="6" class="st3" width="183.8" height="244"/>
<g>
	
		<linearGradient id="SVGID_1_" gradientUnits="userSpaceOnUse" x1="211.2002" y1="1606.8008" x2="211.2002" y2="1366.8008" gradientTransform="matrix(1 0 0 1 -83.2002 -1358.8008)">
		<stop  offset="0" style="stop-color:#EE6F0B"/>
		<stop  offset="1" style="stop-color:#FFB74D"/>
	</linearGradient>
	<rect x="38.1" y="8" class="st4" width="179.8" height="240"/>
	<g class="st5">
		<rect x="61.5" y="100.4" class="st6" width="19.2" height="96.2"/>
		<rect x="93.5" y="148.4" class="st6" width="19.2" height="48.1"/>
		<rect x="125.4" y="168" class="st6" width="19.2" height="28.8"/>
		<g>
			<path class="st6" d="M151.5,83.4l0.2,38.3l38.3-0.2c0.1,21.2-17,38.4-38.2,38.5s-38.4-17-38.5-38.2
				C113.2,100.7,130.3,83.5,151.5,83.4z"/>
			<path class="st6" d="M156,79c21.2-0.1,38.4,17,38.5,38.2l-38.3,0.2L156,79z"/>
		</g>
	</g>
	<g>
		<rect x="38" y="8" class="st7" width="179.9" height="46"/>
		<g class="st8">
			<path class="st9" d="M112.8,30.7c0,3.1-0.5,5.8-1.5,8.1c-1,2.3-2.3,4.3-3.9,5.8c-1.7,1.6-3.7,2.8-6,3.5c-2.3,0.8-4.8,1.2-7.4,1.2
				s-5-0.4-7.3-1.2s-4.3-2-6-3.5s-3-3.5-4-5.8s-1.5-5-1.5-8.1s0.5-5.8,1.5-8.1s2.4-4.3,4.1-5.9s3.7-2.8,6-3.6s4.7-1.2,7.2-1.2
				c2.6,0,5,0.4,7.3,1.2s4.3,2,6,3.6s3,3.5,4,5.9C112.3,24.9,112.8,27.6,112.8,30.7z M84,30.7c0,1.8,0.2,3.3,0.7,4.8
				c0.5,1.4,1.1,2.6,2,3.7c0.9,1,1.9,1.8,3.1,2.3c1.2,0.6,2.7,0.8,4.3,0.8c1.6,0,3-0.3,4.2-0.8c1.3-0.5,2.3-1.3,3.2-2.3
				c0.8-1,1.5-2.2,2-3.7c0.5-1.4,0.7-3,0.7-4.8s-0.2-3.4-0.7-4.8s-1.1-2.7-2-3.7s-1.9-1.8-3.2-2.4C97,19.3,95.6,19,94.1,19
				c-1.6,0-3,0.3-4.3,0.9s-2.3,1.4-3.1,2.4c-0.9,1-1.5,2.2-2,3.7C84.2,27.4,84,29,84,30.7z"/>
			<path class="st9" d="M146.6,12.8v6.9h-11.4v29h-8.5v-29h-11.4v-6.9L146.6,12.8L146.6,12.8z"/>
			<path class="st9" d="M163.3,12.4c5.6,0,9.9,0.9,13,2.8c3,1.9,4.5,5,4.5,9.2c0,4.3-1.5,7.4-4.6,9.3s-7.4,2.9-13.1,2.9h-2.7v12H152
				V13.3c1.9-0.3,3.8-0.6,5.9-0.7C160,12.5,161.8,12.4,163.3,12.4z M163.9,19.3c-0.6,0-1.2,0-1.8,0.1c-0.6,0-1.1,0.1-1.6,0.1v10.3
				h2.7c3,0,5.2-0.4,6.6-1.1c1.5-0.8,2.3-2.2,2.3-4.2c0-1-0.2-1.8-0.6-2.5c-0.4-0.7-0.9-1.2-1.6-1.6c-0.7-0.4-1.6-0.7-2.6-0.8
				C166.3,19.4,165.1,19.3,163.9,19.3z"/>
		</g>
	</g>
</g>
</svg>
