<?xml version="1.0" encoding="utf-8"?>
<!-- Generator: Adobe Illustrator 16.0.0, SVG Export Plug-In . SVG Version: 6.00 Build 0)  -->
<!DOCTYPE svg PUBLIC "-//W3C//DTD SVG 1.1//EN" "http://www.w3.org/Graphics/SVG/1.1/DTD/svg11.dtd">
<svg version="1.1" id="图层_1" xmlns="http://www.w3.org/2000/svg" xmlns:xlink="http://www.w3.org/1999/xlink" x="0px" y="0px"
	 width="256px" height="256px" viewBox="0 0 256 256" enable-background="new 0 0 256 256" xml:space="preserve">
<polygon opacity="0.08" enable-background="new    " points="34.1,256 34.1,4 225.9,4 225.9,185 154.9,256 "/>
<polygon opacity="0.1" enable-background="new    " points="36.1,254 36.1,6 223.9,6 223.9,184.2 154,254 "/>
<polygon opacity="0.2" enable-background="new    " points="34.1,252 34.1,4 221.9,4 221.9,182.2 152,252 "/>
<polygon fill="#3E2723" points="36.1,250 36.1,6 219.9,6 219.9,181.3 151.2,250 "/>
<g>
	<g>
		
			<linearGradient id="SVGID_1_" gradientUnits="userSpaceOnUse" x1="169.6074" y1="84.0996" x2="169.6074" y2="-155.9009" gradientTransform="matrix(1 0 0 -1 -41.6001 92.0996)">
			<stop  offset="0" style="stop-color:#785548"/>
			<stop  offset="1" style="stop-color:#9F9E9F"/>
		</linearGradient>
		<polygon fill="url(#SVGID_1_)" points="38.102,248 38.102,8 217.914,8 217.914,180.406 151.07,248 		"/>
		<polygon fill="#795548" fill-opacity="0.7" points="217.914,180.5 217.914,177.594 146.727,177.594 146.727,248 150.414,248 		"/>
		<path opacity="0.39" fill="#FFFFFF" enable-background="new    " d="M150.32,180.5l67.594,0.094L150.414,248L150.32,180.5z"/>
	</g>
	<path fill="#FFFFFF" d="M102.352,54.266h-6.094v77.938h-4.594V54.266h-6.063v77.938h-4.594V54.266h-6.063v77.938h-4.594V54.266
		h-6.063v77.938h-1.594v33.016h41.719v-33.016h-2.063V54.266z M98.352,155.625H68.758v-19.141h29.594V155.625z"/>
	<g>
		<rect x="38.055" y="8" opacity="0.8" fill="#FFFFFF" enable-background="new    " width="179.891" height="46"/>
		<g enable-background="new    ">
			<path fill="#5D4037" d="M103.727,13.078v6.883H92.336V48.93h-8.484V19.961H72.461v-6.883H103.727z"/>
			<path fill="#5D4037" d="M131.914,13.078h8.5V48.93h-8.5V33.719h-14.25V48.93h-8.5V13.078h8.5v13.711h14.25V13.078z"/>
			<path fill="#5D4037" d="M174.445,48.93c-0.422-1.242-0.875-2.523-1.344-3.836c-0.5-1.313-0.969-2.625-1.453-3.922h-14.734
				c-0.484,1.305-0.969,2.617-1.438,3.93s-0.922,2.594-1.344,3.828h-8.813c1.406-3.859,2.766-7.43,4.031-10.711
				c1.281-3.273,2.531-6.359,3.75-9.258s2.422-5.648,3.594-8.25c1.188-2.602,2.422-5.148,3.688-7.633h8.063
				c1.25,2.484,2.469,5.031,3.656,7.633c1.219,2.602,2.422,5.352,3.656,8.25c1.219,2.898,2.469,5.984,3.734,9.258
				c1.281,3.281,2.625,6.852,4.047,10.711H174.445z M164.242,21.203c-0.203,0.516-0.469,1.227-0.828,2.125
				c-0.375,0.898-0.781,1.93-1.25,3.102c-0.469,1.18-1,2.469-1.563,3.883c-0.578,1.414-1.156,2.891-1.75,4.445h10.781
				c-0.578-1.555-1.141-3.039-1.688-4.461c-0.531-1.414-1.047-2.711-1.531-3.883c-0.5-1.18-0.906-2.211-1.281-3.109
				C164.758,22.414,164.477,21.711,164.242,21.203z"/>
		</g>
	</g>
</g>
</svg>
