<?xml version="1.0" encoding="utf-8"?>
<!-- Generator: Adobe Illustrator 16.0.0, SVG Export Plug-In . SVG Version: 6.00 Build 0)  -->
<!DOCTYPE svg PUBLIC "-//W3C//DTD SVG 1.1//EN" "http://www.w3.org/Graphics/SVG/1.1/DTD/svg11.dtd">
<svg version="1.1" id="图层_1" xmlns="http://www.w3.org/2000/svg" xmlns:xlink="http://www.w3.org/1999/xlink" x="0px" y="0px"
	 width="256px" height="256px" viewBox="0 0 256 256" enable-background="new 0 0 256 256" xml:space="preserve">
<polygon opacity="0.08" enable-background="new    " points="34.1,256 34.1,4 225.9,4 225.9,185 154.9,256 "/>
<polygon opacity="0.1" enable-background="new    " points="36.1,254 36.1,6 223.9,6 223.9,184.2 154,254 "/>
<polygon opacity="0.2" enable-background="new    " points="34.1,252 34.1,4 221.9,4 221.9,182.2 152,252 "/>
<polygon fill="#3E2723" points="36.1,250 36.1,6 219.9,6 219.9,181.3 151.2,250 "/>
<g>
	<g>
		
			<linearGradient id="SVGID_1_" gradientUnits="userSpaceOnUse" x1="169.6074" y1="84.0996" x2="169.6074" y2="-155.9009" gradientTransform="matrix(1 0 0 -1 -41.6001 92.0996)">
			<stop  offset="0" style="stop-color:#785548"/>
			<stop  offset="1" style="stop-color:#9F9E9F"/>
		</linearGradient>
		<polygon fill="url(#SVGID_1_)" points="38.102,248 38.102,8 217.914,8 217.914,180.406 151.07,248 		"/>
		<polygon fill="#795548" fill-opacity="0.7" points="217.914,180.5 217.914,177.594 146.727,177.594 146.727,248 150.414,248 		"/>
		<path opacity="0.39" fill="#FFFFFF" enable-background="new    " d="M150.32,180.5l67.594,0.094L150.414,248L150.32,180.5z"/>
	</g>
	<path fill="#FFFFFF" d="M102.352,54.266h-6.094v77.938h-4.594V54.266h-6.063v77.938h-4.594V54.266h-6.063v77.938h-4.594V54.266
		h-6.063v77.938h-1.594v33.016h41.719v-33.016h-2.063V54.266z M98.352,155.625H68.758v-19.141h29.594V155.625z"/>
	<g>
		<rect x="38.055" y="8" opacity="0.8" fill="#FFFFFF" enable-background="new    " width="179.891" height="46"/>
		<g enable-background="new    ">
			<path fill="#5D4037" d="M100.086,18.664c-1.156,1.141-2.547,2.617-4.141,4.43c-1.594,1.805-3.25,3.781-4.953,5.922
				c-1.703,2.133-3.391,4.344-5.063,6.617c-1.672,2.281-3.172,4.453-4.469,6.523h19.234v6.773H71.008v-4.813
				c1.016-1.758,2.266-3.711,3.734-5.867s3-4.328,4.594-6.523c1.609-2.188,3.234-4.305,4.875-6.359
				c1.656-2.055,3.188-3.891,4.609-5.508H71.883v-6.781h28.203V18.664z"/>
			<path fill="#5D4037" d="M141.961,30.977c0,3.07-0.469,5.773-1.438,8.102s-2.281,4.273-3.938,5.844
				c-1.688,1.57-3.656,2.75-5.969,3.539c-2.313,0.797-4.781,1.195-7.438,1.195c-2.578,0-5-0.398-7.297-1.195
				c-2.297-0.789-4.281-1.969-5.984-3.539c-1.719-1.57-3.063-3.516-4.031-5.844c-0.984-2.328-1.484-5.031-1.484-8.102
				s0.516-5.766,1.547-8.094c1-2.328,2.375-4.281,4.094-5.875c1.734-1.586,3.719-2.773,6-3.563c2.266-0.797,4.656-1.195,7.156-1.195
				c2.578,0,5,0.398,7.297,1.195c2.297,0.789,4.281,1.977,5.984,3.563c1.719,1.594,3.063,3.547,4.031,5.875
				C141.477,25.211,141.961,27.906,141.961,30.977z M113.164,30.977c0,1.758,0.234,3.352,0.672,4.758
				c0.469,1.422,1.109,2.633,1.969,3.648c0.844,1.023,1.891,1.805,3.125,2.359c1.234,0.547,2.656,0.828,4.25,0.828
				c1.563,0,2.969-0.281,4.219-0.828c1.25-0.555,2.313-1.336,3.156-2.359c0.859-1.016,1.5-2.227,1.969-3.648
				c0.438-1.406,0.688-3,0.688-4.758s-0.25-3.352-0.688-4.781c-0.469-1.43-1.109-2.656-1.969-3.672
				c-0.844-1.016-1.906-1.805-3.156-2.359c-1.25-0.547-2.656-0.828-4.219-0.828c-1.594,0-3.016,0.289-4.25,0.859
				s-2.281,1.359-3.125,2.375c-0.859,1.023-1.5,2.242-1.969,3.672C113.398,27.68,113.164,29.258,113.164,30.977z"/>
			<path fill="#5D4037" d="M184.992,30.977c0,3.07-0.5,5.773-1.453,8.102s-2.281,4.273-3.953,5.844
				c-1.656,1.57-3.656,2.75-5.969,3.539c-2.297,0.797-4.781,1.195-7.422,1.195c-2.578,0-5.016-0.398-7.297-1.195
				c-2.281-0.789-4.281-1.969-6-3.539c-1.688-1.57-3.031-3.516-4.016-5.844s-1.484-5.031-1.484-8.102s0.531-5.766,1.531-8.094
				c1.031-2.328,2.391-4.281,4.125-5.875c1.719-1.586,3.719-2.773,5.984-3.563c2.266-0.797,4.641-1.195,7.156-1.195
				c2.578,0,5.016,0.398,7.297,1.195c2.281,0.789,4.281,1.977,6,3.563c1.688,1.594,3.031,3.547,4.031,5.875
				C184.492,25.211,184.992,27.906,184.992,30.977z M156.18,30.977c0,1.758,0.219,3.352,0.688,4.758
				c0.438,1.422,1.094,2.633,1.953,3.648c0.859,1.023,1.891,1.805,3.125,2.359c1.234,0.547,2.656,0.828,4.25,0.828
				c1.563,0,2.969-0.281,4.219-0.828c1.266-0.555,2.297-1.336,3.172-2.359c0.844-1.016,1.5-2.227,1.938-3.648
				c0.469-1.406,0.688-3,0.688-4.758s-0.219-3.352-0.688-4.781c-0.438-1.43-1.094-2.656-1.938-3.672
				c-0.875-1.016-1.906-1.805-3.172-2.359c-1.25-0.547-2.656-0.828-4.219-0.828c-1.594,0-3.016,0.289-4.25,0.859
				s-2.266,1.359-3.125,2.375c-0.859,1.023-1.516,2.242-1.953,3.672C156.398,27.68,156.18,29.258,156.18,30.977z"/>
		</g>
	</g>
</g>
</svg>
