<?xml version="1.0" encoding="utf-8"?>
<!-- Generator: Adobe Illustrator 21.0.0, SVG Export Plug-In . SVG Version: 6.00 Build 0)  -->
<svg version="1.1" id="图层_1" xmlns="http://www.w3.org/2000/svg" xmlns:xlink="http://www.w3.org/1999/xlink" x="0px" y="0px"
	 viewBox="0 0 256 256" style="enable-background:new 0 0 256 256;" xml:space="preserve">
<style type="text/css">
	.st0{opacity:0.08;enable-background:new    ;}
	.st1{opacity:0.1;enable-background:new    ;}
	.st2{opacity:0.2;enable-background:new    ;}
	.st3{fill:#455A64;}
	.st4{fill:url(#SVGID_1_);}
	.st5{opacity:0.8;}
	.st6{fill:#FFFFFF;}
</style>
<g>
	<rect x="26" y="26" class="st0" width="208" height="208"/>
	<rect x="28" y="28" class="st1" width="204" height="204"/>
	<rect x="26" y="26" class="st2" width="204" height="204"/>
	<rect x="28" y="28" class="st3" width="200" height="200"/>
	
		<linearGradient id="SVGID_1_" gradientUnits="userSpaceOnUse" x1="128" y1="564" x2="128" y2="760" gradientTransform="matrix(1 0 0 1 0 -534)">
		<stop  offset="0" style="stop-color:#90A4AE"/>
		<stop  offset="0.1378" style="stop-color:#849AA5"/>
		<stop  offset="0.4226" style="stop-color:#708A97"/>
		<stop  offset="0.7096" style="stop-color:#64808E"/>
		<stop  offset="1" style="stop-color:#607D8B"/>
	</linearGradient>
	<rect x="30" y="30" class="st4" width="196" height="196"/>
</g>
<g class="st5">
	
		<rect x="106.4" y="69.11" transform="matrix(0.7071 -0.7071 0.7071 0.7071 -27.5528 117.9937)" class="st6" width="44.5" height="46.3"/>
	
		<rect x="142.81" y="107.3" transform="matrix(0.7071 -0.7071 0.7071 0.7071 -42.6257 154.3931)" class="st6" width="44.5" height="42.7"/>
	
		<rect x="70" y="105.48" transform="matrix(0.7071 -0.7071 0.7071 0.7071 -63.9341 102.9063)" class="st6" width="44.5" height="46.3"/>
	
		<rect x="106.38" y="143.72" transform="matrix(0.7071 -0.7071 0.7071 0.7071 -79.0446 139.3)" class="st6" width="44.5" height="42.7"/>
</g>
</svg>
