<?xml version="1.0" encoding="utf-8"?>
<!-- Generator: Adobe Illustrator 21.0.0, SVG Export Plug-In . SVG Version: 6.00 Build 0)  -->
<svg version="1.1"
	 id="svg2" inkscape:version="0.48.4 r9939" sodipodi:docname="computer.svg" xmlns:cc="http://creativecommons.org/ns#" xmlns:dc="http://purl.org/dc/elements/1.1/" xmlns:inkscape="http://www.inkscape.org/namespaces/inkscape" xmlns:rdf="http://www.w3.org/1999/02/22-rdf-syntax-ns#" xmlns:sodipodi="http://sodipodi.sourceforge.net/DTD/sodipodi-0.dtd" xmlns:svg="http://www.w3.org/2000/svg"
	 xmlns="http://www.w3.org/2000/svg" xmlns:xlink="http://www.w3.org/1999/xlink" x="0px" y="0px" viewBox="0 0 256 256"
	 style="enable-background:new 0 0 256 256;" xml:space="preserve">
<style type="text/css">
	.st0{opacity:0.08;enable-background:new    ;}
	.st1{opacity:0.1;enable-background:new    ;}
	.st2{opacity:0.2;enable-background:new    ;}
	.st3{fill:#0D47A1;}
	.st4{fill:url(#SVGID_1_);}
	.st5{fill:#2196F3;fill-opacity:0.7;}
	.st6{opacity:0.39;fill:#FFFFFF;enable-background:new    ;}
	.st7{opacity:0.8;fill:#FFFFFF;enable-background:new    ;}
</style>
<polygon class="st0" points="34.1,256 34.1,4 225.9,4 225.9,185 154.9,256 "/>
<polygon class="st1" points="36.1,254 36.1,6 223.9,6 223.9,184.2 154,254 "/>
<polygon class="st2" points="34.1,252 34.1,4 221.9,4 221.9,182.2 152,252 "/>
<polygon class="st3" points="36.1,250 36.1,6 219.9,6 219.9,181.3 151.2,250 "/>
<g>
	<g>
		<g>
			<g>
				
					<linearGradient id="SVGID_1_" gradientUnits="userSpaceOnUse" x1="128.1" y1="1460.55" x2="128.1" y2="1220.55" gradientTransform="matrix(1 0 0 1 0 -1212.55)">
					<stop  offset="0" style="stop-color:#3F51B5"/>
					<stop  offset="1" style="stop-color:#64B5F6"/>
				</linearGradient>
				<polygon class="st4" points="38.2,248 38.2,8 218,8 218,180.5 150.5,248 				"/>
			</g>
			<polygon class="st5" points="218,180.5 218,177.6 146.8,177.6 146.8,248 150.5,248 			"/>
			<path class="st6" d="M150.4,180.5l67.6,0.1L150.5,248L150.4,180.5z"/>
		</g>
	</g>
</g>
<path class="st7" d="M157.7,64c-3.1,0-5.9,2.1-7.4,4.5h-29.7c0,0-7.2-0.5-13.5,2.4c-6.3,3-13,9.8-13,21.1c0,11.4,6.7,18.2,13,21.2
	c3,1.4,5.9,2,8.2,2.4v1.8l-11.7,11c-0.3-0.1-0.7-0.3-1.1-0.3c-2.4,0-4.2,1.8-4.2,4s1.9,4,4.2,4s4.2-1.8,4.2-4c0-0.4-0.2-0.7-0.2-1
	l11.6-11h14.1v-4h4.2c0,0,4.5,0.1,8.8,2.1s8.2,5.2,8.2,13.9s-3.9,11.9-8.2,13.9s-9.8,2.4-9.8,2.4h-29.7c-1.5-2.4-4.3-4.3-7.4-4.3
	c-4.7,0-8.5,3.6-8.5,8s3.8,8,8.5,8c3.1,0,6-2.1,7.4-4.5h29.7c0,0,7.2,0.6,13.5-2.4s13-9.8,13-21.1s-6.7-18.2-13-21.1
	c-6.3-3-12.5-2.9-12.5-2.9h-4.2v-1.2l11.7-11c0.3,0.1,0.7,0.3,1.1,0.3c2.3,0,4.2-1.8,4.2-4s-1.9-4-4.2-4s-4.2,1.8-4.2,4
	c0,0.4,0.2,0.7,0.3,1l-11.7,11h-14v3.4c-1.4-0.3-2.9-0.8-4.5-1.5c-4.3-2-8.2-5.2-8.2-13.9s3.9-11.8,8.2-13.9c4.3-2,9.8-2.4,9.8-2.4
	h29.7c1.5,2.4,4.3,4.3,7.4,4.3c4.7,0,8.5-3.6,8.5-8C166.2,67.6,162.4,64,157.7,64z"/>
</svg>
