<?xml version="1.0" encoding="utf-8"?>
<!-- Generator: Adobe Illustrator 21.0.0, SVG Export Plug-In . SVG Version: 6.00 Build 0)  -->
<svg version="1.1" id="图层_1" xmlns="http://www.w3.org/2000/svg" xmlns:xlink="http://www.w3.org/1999/xlink" x="0px" y="0px"
	 viewBox="0 0 256 256" style="enable-background:new 0 0 256 256;" xml:space="preserve">
<style type="text/css">
	.st0{opacity:0.08;enable-background:new    ;}
	.st1{opacity:0.1;enable-background:new    ;}
	.st2{opacity:0.2;enable-background:new    ;}
	.st3{fill:url(#SVGID_1_);}
	.st4{fill:#0D47A1;fill-opacity:0.3922;}
	.st5{fill:#FFFFFF;fill-opacity:0.3922;}
	.st6{fill:#0D47A1;}
	.st7{opacity:0.8;fill:#FFFFFF;enable-background:new    ;}
</style>
<g id="surface1">
	<polygon class="st0" points="34.5,256 34.5,4 225.5,4 225.5,185 154.5,256 	"/>
	<polygon class="st1" points="36.5,254 36.5,6 223.5,6 223.5,184.2 153.7,254 	"/>
	<polygon class="st2" points="34.5,252 34.5,4 221.5,4 221.5,182.2 151.7,252 	"/>
	
		<linearGradient id="SVGID_1_" gradientUnits="userSpaceOnUse" x1="336.0005" y1="-2221.9512" x2="336.0005" y2="-1977.9512" gradientTransform="matrix(1 0 0 -1 -208.0005 -1971.9512)">
		<stop  offset="0" style="stop-color:#1976D2"/>
		<stop  offset="0.0626" style="stop-color:#227DD6"/>
		<stop  offset="0.3018" style="stop-color:#3F96E4"/>
		<stop  offset="0.5397" style="stop-color:#53A7EE"/>
		<stop  offset="0.7739" style="stop-color:#60B1F4"/>
		<stop  offset="1" style="stop-color:#64B5F6"/>
	</linearGradient>
	<path class="st3" d="M150.9,250l68.6-68.6V6h-183v244H150.9z"/>
	<polygon class="st4" points="147.1,177.6 147.1,250 150.9,250 219.5,181.4 219.5,177.6 	"/>
	<path class="st5" d="M150.9,181.4h68.6L150.9,250V181.4z"/>
	<g>
		<path class="st6" d="M217.5,8v172.5L150,248H97.5h-59V8H217.5 M219.5,6h-183v244h61h53.4l68.6-68.6V6L219.5,6z"/>
	</g>
	<path class="st7" d="M143.3,63.8h15.3c15.3,0,15.3,15.3,15.3,15.3V102c0,6-7.6,15.3-7.6,15.3v7.6l15.3,10.9v12H113V137l22.9-12
		v-7.6c0,0-7.7-9.3-7.6-15.3v-23C128,79.1,128,63.8,143.3,63.8z M104.3,75.8l8.5,0.4v23.5c0,6,7.6,17.5,7.6,17.5l-15.3,12.5V140
		H74.6v-4.5l22.9-10.7v-6.6c0,0-11.1-12.6-11-18.6v-5.8C86.5,75.8,104.3,75.8,104.3,75.8z"/>
</g>
</svg>
