<?xml version="1.0" encoding="utf-8"?>
<!-- Generator: Adobe Illustrator 16.0.0, SVG Export Plug-In . SVG Version: 6.00 Build 0)  -->
<!DOCTYPE svg PUBLIC "-//W3C//DTD SVG 1.1//EN" "http://www.w3.org/Graphics/SVG/1.1/DTD/svg11.dtd">
<svg version="1.1" id="图层_1" xmlns="http://www.w3.org/2000/svg" xmlns:xlink="http://www.w3.org/1999/xlink" x="0px" y="0px"
	 width="256px" height="256px" viewBox="0 0 256 256" enable-background="new 0 0 256 256" xml:space="preserve">
<rect x="34.1" y="4" opacity="0.08" enable-background="new    " width="191.8" height="252"/>
<rect x="36.1" y="6" opacity="0.1" enable-background="new    " width="187.8" height="248"/>
<rect x="34.1" y="4" opacity="0.2" enable-background="new    " width="187.8" height="248"/>
<rect x="36.1" y="6" fill="#1B5E20" width="183.8" height="244"/>
<g>
	
		<linearGradient id="SVGID_1_" gradientUnits="userSpaceOnUse" x1="211.2002" y1="1072.8008" x2="211.2002" y2="832.8008" gradientTransform="matrix(1 0 0 1 -83.2002 -824.8008)">
		<stop  offset="0" style="stop-color:#388E3C"/>
		<stop  offset="0.0757" style="stop-color:#43953E"/>
		<stop  offset="0.3246" style="stop-color:#62A943"/>
		<stop  offset="0.5665" style="stop-color:#79B747"/>
		<stop  offset="0.796" style="stop-color:#86C049"/>
		<stop  offset="1" style="stop-color:#8BC34A"/>
	</linearGradient>
	<rect x="38.094" y="8" fill="url(#SVGID_1_)" width="179.813" height="240"/>
	<path opacity="0.8" fill="#FFFFFF" enable-background="new    " d="M132.594,84.227v-0.211h-9.188v0.211H64v115.805h128V84.227
		H132.594z M73.203,118.609h28.578v18.5H73.203V118.609z M73.203,146.328h28.578v18.5H73.203V146.328z M111.297,146.328h71.5v18.5
		h-71.5V146.328z M111.297,137.109v-18.5h71.5v18.5H111.297z M182.797,93.523v15.898h-71.5V93.523H182.797z M101.781,93.523v15.898
		H73.203V93.523H101.781z M73.203,174.125h28.578v16.609H73.203V174.125z M111.297,190.734v-16.609h71.5v16.609H111.297z"/>
	<g>
		<rect x="38.047" y="8" opacity="0.8" fill="#FFFFFF" width="179.906" height="46"/>
	</g>
	<g>
		<path fill="#388E3C" d="M114.844,30.711c0,3.07-0.469,5.773-1.438,8.102s-2.281,4.273-3.938,5.844
			c-1.688,1.57-3.672,2.75-5.969,3.539c-2.313,0.797-4.781,1.195-7.438,1.195c-2.578,0-5-0.398-7.297-1.195
			c-2.297-0.789-4.281-1.969-5.984-3.539c-1.719-1.57-3.063-3.516-4.031-5.844c-0.984-2.328-1.469-5.031-1.469-8.102
			s0.5-5.766,1.531-8.094c1-2.328,2.375-4.281,4.094-5.875c1.719-1.578,3.719-2.773,6-3.563c2.266-0.797,4.656-1.195,7.156-1.195
			c2.578,0,5,0.398,7.297,1.195c2.297,0.789,4.281,1.984,5.984,3.563c1.719,1.594,3.063,3.547,4.031,5.875
			C114.359,24.945,114.844,27.641,114.844,30.711z M86.047,30.711c0,1.758,0.234,3.352,0.672,4.766
			c0.469,1.414,1.109,2.625,1.969,3.641c0.844,1.023,1.891,1.805,3.125,2.359c1.234,0.547,2.656,0.828,4.25,0.828
			c1.563,0,2.969-0.281,4.219-0.828c1.25-0.555,2.313-1.336,3.156-2.359c0.859-1.016,1.5-2.227,1.969-3.641
			c0.438-1.414,0.672-3.008,0.672-4.766s-0.234-3.352-0.672-4.781c-0.469-1.43-1.109-2.656-1.969-3.672
			c-0.844-1.016-1.906-1.805-3.156-2.359c-1.25-0.547-2.656-0.828-4.219-0.828c-1.594,0-3.016,0.289-4.25,0.859
			s-2.281,1.359-3.125,2.375c-0.859,1.023-1.5,2.242-1.969,3.672C86.281,27.414,86.047,28.992,86.047,30.711z"/>
		<path fill="#388E3C" d="M148.656,12.813v6.883h-11.375v28.969h-8.5V19.695h-11.375v-6.883H148.656z"/>
		<path fill="#388E3C" d="M164.406,42.508c1.188,0,2.188-0.094,2.969-0.281c0.781-0.195,1.406-0.453,1.875-0.781
			s0.813-0.711,0.969-1.164c0.188-0.445,0.281-0.945,0.281-1.5c0-1.172-0.563-2.148-1.75-2.922
			c-1.156-0.773-3.156-1.609-5.969-2.508c-1.25-0.414-2.469-0.891-3.719-1.422c-1.219-0.531-2.344-1.211-3.313-2.016
			c-0.969-0.813-1.781-1.797-2.406-2.953s-0.906-2.563-0.906-4.211c0-1.656,0.313-3.148,0.969-4.477s1.594-2.461,2.781-3.391
			s2.656-1.648,4.344-2.148c1.719-0.5,3.625-0.75,5.781-0.75c2.531,0,4.75,0.258,6.594,0.781c1.844,0.516,3.375,1.086,4.563,1.703
			l-2.438,6.367c-1.063-0.523-2.219-0.977-3.531-1.375c-1.281-0.398-2.844-0.594-4.656-0.594c-2.031,0-3.469,0.266-4.375,0.805
			c-0.875,0.531-1.344,1.352-1.344,2.453c0,0.656,0.188,1.211,0.5,1.656c0.344,0.445,0.781,0.852,1.406,1.219
			c0.594,0.359,1.281,0.688,2.063,0.977c0.781,0.297,1.625,0.602,2.594,0.906c1.938,0.695,3.656,1.375,5.094,2.047
			c1.469,0.672,2.656,1.453,3.625,2.352s1.688,1.953,2.156,3.156c0.469,1.211,0.719,2.672,0.719,4.398
			c0,3.344-1.25,5.938-3.719,7.781c-2.469,1.852-6.188,2.773-11.156,2.773c-1.656,0-3.188-0.102-4.531-0.289
			s-2.531-0.422-3.563-0.695s-1.906-0.57-2.656-0.883c-0.75-0.305-1.375-0.602-1.875-0.875l2.375-6.414
			c1.125,0.586,2.531,1.109,4.188,1.578C160,42.273,162,42.508,164.406,42.508z"/>
	</g>
</g>
</svg>
