<?xml version="1.0" encoding="utf-8"?>
<!-- Generator: Adobe Illustrator 21.0.0, SVG Export Plug-In . SVG Version: 6.00 Build 0)  -->
<svg version="1.1" id="图层_1" xmlns="http://www.w3.org/2000/svg" xmlns:xlink="http://www.w3.org/1999/xlink" x="0px" y="0px"
	 viewBox="0 0 256 256" style="enable-background:new 0 0 256 256;" xml:space="preserve">
<style type="text/css">
	.st0{opacity:0.08;enable-background:new    ;}
	.st1{opacity:0.1;enable-background:new    ;}
	.st2{opacity:0.2;enable-background:new    ;}
	.st3{fill:#0D47A1;}
	.st4{fill:url(#SVGID_1_);}
	.st5{opacity:0.8;}
	.st6{opacity:0.8;fill:#FFFFFF;enable-background:new    ;}
	.st7{fill:#FFFFFF;}
	.st8{enable-background:new    ;}
	.st9{fill:#236FB7;}
</style>
<g>
	<rect x="34.1" y="4" class="st0" width="191.8" height="252"/>
	<rect x="36.1" y="6" class="st1" width="187.8" height="248"/>
	<rect x="34.1" y="4" class="st2" width="187.8" height="248"/>
</g>
<rect x="36.1" y="6" class="st3" width="183.8" height="244"/>
<g>
	
		<linearGradient id="SVGID_1_" gradientUnits="userSpaceOnUse" x1="128" y1="542" x2="128" y2="782" gradientTransform="matrix(1 0 0 1 0 -534)">
		<stop  offset="0" style="stop-color:#64B5F6"/>
		<stop  offset="1" style="stop-color:#3F51B5"/>
	</linearGradient>
	<rect x="38.1" y="8" class="st4" width="179.8" height="240"/>
	<g class="st5">
		<rect x="61.3" y="102.9" class="st6" width="133.3" height="6.6"/>
		<rect x="61.3" y="82.3" class="st6" width="133.3" height="6.6"/>
		<rect x="124.9" y="122.3" class="st6" width="69.6" height="69.6"/>
		<g class="st5">
			<rect x="61.3" y="123.5" class="st7" width="57.9" height="6.6"/>
			<rect x="61.3" y="144.1" class="st7" width="57.9" height="6.6"/>
			<rect x="61.3" y="164.8" class="st7" width="57.9" height="6.6"/>
			<rect x="61.3" y="185.4" class="st7" width="57.9" height="6.6"/>
		</g>
	</g>
	<g>
		<rect x="38.1" y="8" class="st6" width="179.9" height="46"/>
		<g class="st8">
			<path class="st9" d="M112.5,31c0,3.1-0.5,5.8-1.4,8.1c-1,2.3-2.3,4.3-3.9,5.8c-1.7,1.6-3.7,2.8-6,3.6s-4.8,1.2-7.4,1.2
				s-5-0.4-7.3-1.2s-4.3-2-6-3.6s-3.1-3.5-4-5.8c-1-2.3-1.5-5-1.5-8.1s0.5-5.7,1.5-8.1c1-2.3,2.4-4.3,4.1-5.9s3.7-2.8,6-3.6
				s4.7-1.2,7.2-1.2c2.6,0,5,0.4,7.3,1.2s4.3,2,6,3.6s3.1,3.5,4,5.9C112,25.2,112.5,27.9,112.5,31z M83.7,31c0,1.8,0.2,3.4,0.7,4.8
				c0.5,1.4,1.1,2.6,2,3.6c0.8,1,1.9,1.8,3.1,2.4c1.3,0.5,2.7,0.8,4.3,0.8c1.6,0,3-0.3,4.2-0.8c1.2-0.6,2.3-1.3,3.2-2.4
				c0.9-1,1.5-2.2,2-3.6c0.4-1.4,0.7-3,0.7-4.8s-0.3-3.3-0.7-4.8c-0.5-1.4-1.1-2.6-2-3.7c-0.8-1-1.9-1.8-3.2-2.4
				c-1.3-0.5-2.7-0.8-4.2-0.8c-1.6,0-3,0.3-4.3,0.9c-1.2,0.6-2.3,1.4-3.1,2.4c-0.9,1-1.5,2.2-2,3.7C83.9,27.7,83.7,29.2,83.7,31z"/>
			<path class="st9" d="M146.3,13.1V20h-11.4v29h-8.5V20H115v-6.9H146.3z"/>
			<path class="st9" d="M181.1,13.1V20h-11.4v29h-8.5V20h-11.4v-6.9C149.9,13.1,181.1,13.1,181.1,13.1z"/>
		</g>
	</g>
</g>
</svg>
