<?xml version="1.0" encoding="utf-8"?>
<!-- Generator: Adobe Illustrator 21.0.0, SVG Export Plug-In . SVG Version: 6.00 Build 0)  -->
<svg version="1.1" id="图层_1" xmlns="http://www.w3.org/2000/svg" xmlns:xlink="http://www.w3.org/1999/xlink" x="0px" y="0px"
	 viewBox="0 0 256 256" style="enable-background:new 0 0 256 256;" xml:space="preserve">
<style type="text/css">
	.st0{opacity:0.08;enable-background:new    ;}
	.st1{opacity:0.1;enable-background:new    ;}
	.st2{opacity:0.2;enable-background:new    ;}
	.st3{fill:#1B5E20;}
	.st4{fill:url(#SVGID_1_);}
	.st5{opacity:0.8;fill:#FFFFFF;enable-background:new    ;}
</style>
<rect x="34.1" y="4" class="st0" width="191.8" height="252"/>
<rect x="36.1" y="6" class="st1" width="187.8" height="248"/>
<rect x="34.1" y="4" class="st2" width="187.8" height="248"/>
<rect x="36.1" y="6" class="st3" width="183.8" height="244"/>
<linearGradient id="SVGID_1_" gradientUnits="userSpaceOnUse" x1="128" y1="782" x2="128" y2="542" gradientTransform="matrix(1 0 0 1 0 -534)">
	<stop  offset="0" style="stop-color:#388E3C"/>
	<stop  offset="0.0757" style="stop-color:#43953E"/>
	<stop  offset="0.3246" style="stop-color:#62A943"/>
	<stop  offset="0.5665" style="stop-color:#79B747"/>
	<stop  offset="0.796" style="stop-color:#86C049"/>
	<stop  offset="1" style="stop-color:#8BC34A"/>
</linearGradient>
<rect x="38.1" y="8" class="st4" width="179.8" height="240"/>
<path class="st5" d="M132.6,52.2V52h-9.2v0.2H64V168h128V52.2H132.6z M73.2,86.6h28.6v18.5H73.2V86.6z M73.2,114.3h28.6v18.5H73.2
	V114.3z M111.3,114.3h71.5v18.5h-71.5V114.3z M111.3,105.1V86.6h71.5v18.5H111.3z M182.8,61.5v15.9h-71.5V61.5H182.8z M101.8,61.5
	v15.9H73.2V61.5H101.8z M73.2,142.1h28.6v16.6H73.2V142.1z M111.3,158.7v-16.6h71.5v16.6H111.3z"/>
</svg>
