<?xml version="1.0" encoding="utf-8"?>
<!-- Generator: Adobe Illustrator 21.0.0, SVG Export Plug-In . SVG Version: 6.00 Build 0)  -->
<svg version="1.1" id="图层_1" xmlns="http://www.w3.org/2000/svg" xmlns:xlink="http://www.w3.org/1999/xlink" x="0px" y="0px"
	 viewBox="0 0 256 256" style="enable-background:new 0 0 256 256;" xml:space="preserve">
<style type="text/css">
	.st0{opacity:0.08;enable-background:new    ;}
	.st1{opacity:0.1;enable-background:new    ;}
	.st2{opacity:0.2;enable-background:new    ;}
	.st3{fill:url(#SVGID_1_);}
	.st4{fill:#B71C1C;fill-opacity:0.3922;}
	.st5{fill:#FFFFFF;fill-opacity:0.3922;}
	.st6{opacity:0.8;}
	.st7{fill:#FFFFFF;}
	.st8{fill:#B71C1C;}
</style>
<g id="surface1">
	<polygon class="st0" points="34.5,256 34.5,4 225.5,4 225.5,185 154.5,256 	"/>
	<polygon class="st1" points="36.5,254 36.5,6 223.5,6 223.5,184.2 153.7,254 	"/>
	<polygon class="st2" points="34.5,252 34.5,4 221.5,4 221.5,182.2 151.7,252 	"/>
	<g>
		
			<linearGradient id="SVGID_1_" gradientUnits="userSpaceOnUse" x1="336.0005" y1="-2221.9512" x2="336.0005" y2="-1977.9512" gradientTransform="matrix(1 0 0 -1 -208.0005 -1971.9512)">
			<stop  offset="0" style="stop-color:#512DA8"/>
			<stop  offset="8.000000e-03" style="stop-color:#D32F2F"/>
			<stop  offset="0.3041" style="stop-color:#E33932"/>
			<stop  offset="0.6579" style="stop-color:#F04035"/>
			<stop  offset="1" style="stop-color:#F44336"/>
		</linearGradient>
		<path class="st3" d="M150.9,250l68.6-68.6V6h-183v244H150.9z"/>
		<polygon class="st4" points="147.1,177.6 147.1,250 150.9,250 219.5,181.4 219.5,177.6 		"/>
		<path class="st5" d="M150.9,181.4h68.6L150.9,250V181.4z"/>
		<g class="st6">
			<path class="st7" d="M94.2,107.9c3.9,0.2,8.3,2.7,11.5,4.8c9.4,6.3,16.9,16.6,15.5,28.6c1.4-2.3,1.5-5.6,1.5-8.2
				c0-8.4-4.5-17-10.2-22.8c-1.9-2-3.9-4.2-6.3-5.4l28-33.2l6.7-8c0.5-0.6,2.2-2,1.8-2.9c-0.3-0.8-1.9-1.4-2.7-1.7
				c-0.9-0.4-2.4-1.2-3.4-0.9c-1,0.4-1.8,1.8-2.4,2.5l-5.2,6l-24.2,28.4l-7.2,8.4C96.4,104.9,94.9,106.3,94.2,107.9z"/>
			<path class="st7" d="M78.3,117.6c9.6-10.2,18.1-21.7,27.4-32.3l11.6-13.8c2.7-3.1,5.9-6.2,8-9.7c-1.4-0.4-4.6-0.7-5.9,0
				c-1.4,0.7-2.6,2.7-3.7,3.9l-6.6,7.5c-1,1.2-2.1,2.9-3.5,3.7c-2,1-5.5,0.6-7.7,0.7l-7.8,0.6c-5.8,0.4-12.5,0.4-15.4,6.7
				c-2.3,5-2,12.2-2.2,17.6c-0.5,11.4-0.9,23.1,0.2,34.5c0.4,4.9-0.1,11.1,2.4,15.5c2.4,4.3,7.1,5.2,11.6,5.6
				c8.6,0.8,18.9,0.6,25.9-5.5c8.3-7.2,7.1-20-0.4-27C104,117.8,89,113.9,78.3,117.6z"/>
			<path class="st7" d="M107.3,159.1c1.6,0.7,4.2,0.5,6,0.5l10.8,0.2c13.7,0,27.2-0.9,40.9-1.5c6.5-0.3,13.8-0.5,16.5-7.8
				c1.7-4.6,1.4-10.5,1.7-15.3c0.8-11.2,1.1-22.7,0-33.8c-0.5-5.2,0.1-11.7-2.1-16.6c-3.5-7.5-14.1-6.9-21-7.1
				c-1.7-0.1-4.9-1.1-6.5-0.3c-1.2,0.6-1.9,3.7-2.5,4.8L145,95.8c-7.3,16.1-14.1,32.5-21.9,48.3C120,150.2,114.5,157.9,107.3,159.1z
				"/>
		</g>
		<g>
			<path class="st8" d="M217.5,8v172.5L150,248H97.5h-59V8H217.5 M219.5,6h-183v244h61h53.4l68.6-68.6V6L219.5,6z"/>
		</g>
	</g>
</g>
</svg>
