<?xml version="1.0" encoding="utf-8"?>
<!-- Generator: Adobe Illustrator 21.0.0, SVG Export Plug-In . SVG Version: 6.00 Build 0)  -->
<svg version="1.1" id="图层_1" xmlns="http://www.w3.org/2000/svg" xmlns:xlink="http://www.w3.org/1999/xlink" x="0px" y="0px"
	 viewBox="0 0 256 256" style="enable-background:new 0 0 256 256;" xml:space="preserve">
<style type="text/css">
	.st0{opacity:0.08;enable-background:new    ;}
	.st1{opacity:0.1;enable-background:new    ;}
	.st2{opacity:0.2;enable-background:new    ;}
	.st3{fill:#3E2723;}
	.st4{fill:url(#SVGID_1_);}
	.st5{fill:#795548;fill-opacity:0.7;}
	.st6{opacity:0.39;fill:#FFFFFF;enable-background:new    ;}
	.st7{fill:#FFFFFF;}
	.st8{opacity:0.8;fill:#FFFFFF;enable-background:new    ;}
	.st9{enable-background:new    ;}
	.st10{fill:#5D4037;}
</style>
<polygon class="st0" points="34.1,256 34.1,4 225.9,4 225.9,185 154.9,256 "/>
<polygon class="st1" points="36.1,254 36.1,6 223.9,6 223.9,184.2 154,254 "/>
<polygon class="st2" points="34.1,252 34.1,4 221.9,4 221.9,182.2 152,252 "/>
<polygon class="st3" points="36.1,250 36.1,6 219.9,6 219.9,181.3 151.2,250 "/>
<g>
	<g>
		
			<linearGradient id="SVGID_1_" gradientUnits="userSpaceOnUse" x1="169.6001" y1="-425.9004" x2="169.6001" y2="-665.9004" gradientTransform="matrix(1 0 0 -1 -41.6001 -417.9004)">
			<stop  offset="0" style="stop-color:#785548"/>
			<stop  offset="1" style="stop-color:#9F9E9F"/>
		</linearGradient>
		<polygon class="st4" points="38.1,248 38.1,8 217.9,8 217.9,180.4 151.1,248 		"/>
		<polygon class="st5" points="217.9,180.5 217.9,177.6 146.7,177.6 146.7,248 150.4,248 		"/>
		<path class="st6" d="M150.3,180.5l67.6,0.1L150.4,248L150.3,180.5z"/>
	</g>
	<path class="st7" d="M102.3,54.3h-6.1v77.9h-4.6V54.3h-6v77.9H81V54.3h-6v77.9h-4.6V54.3h-6.1v77.9h-1.6v33h41.7v-33h-2.1
		C102.3,132.2,102.3,54.3,102.3,54.3z M98.3,155.6H68.7v-19.1h29.6C98.3,136.5,98.3,155.6,98.3,155.6z"/>
	<g>
		<rect x="38.1" y="8" class="st8" width="179.9" height="46"/>
		<g class="st9">
			<path class="st10" d="M106.4,48.9c-0.4-1.2-0.9-2.5-1.3-3.8c-0.5-1.3-1-2.6-1.4-3.9H88.9c-0.5,1.3-0.9,2.6-1.4,3.9
				c-0.5,1.3-0.9,2.6-1.3,3.8h-8.8c1.4-3.9,2.8-7.4,4-10.7c1.3-3.3,2.5-6.4,3.8-9.3c1.2-2.9,2.4-5.6,3.6-8.2s2.4-5.1,3.7-7.6h8.1
				c1.2,2.5,2.5,5,3.7,7.6s2.4,5.4,3.6,8.2c1.2,2.9,2.5,6,3.8,9.3s2.6,6.9,4,10.7C115.5,48.9,106.4,48.9,106.4,48.9z M96.2,21.2
				c-0.2,0.5-0.5,1.2-0.8,2.1c-0.4,0.9-0.8,1.9-1.2,3.1c-0.5,1.2-1,2.5-1.6,3.9s-1.2,2.9-1.8,4.4h10.8c-0.6-1.6-1.1-3-1.7-4.5
				c-0.5-1.4-1-2.7-1.5-3.9c-0.5-1.2-0.9-2.2-1.3-3.1C96.7,22.4,96.4,21.7,96.2,21.2z"/>
			<path class="st10" d="M131.4,12.7c5.7,0,10,1,13,2.9s4.5,4.9,4.5,8.9c0,2.5-0.6,4.6-1.8,6.1c-1.2,1.6-3,2.8-5.2,3.7
				c0.7,0.9,1.6,1.9,2.4,3.1c0.8,1.2,1.7,2.4,2.5,3.6c0.8,1.3,1.6,2.6,2.4,3.9c0.8,1.4,1.5,2.7,2.1,4h-9.5c-0.7-1.2-1.4-2.4-2.1-3.6
				c-0.7-1.2-1.4-2.4-2.2-3.5c-0.7-1.1-1.5-2.2-2.2-3.2s-1.4-1.9-2.2-2.8h-4.2v13.1h-8.5V13.6c1.9-0.3,3.8-0.6,5.7-0.7
				C128.1,12.7,129.8,12.7,131.4,12.7z M131.9,19.5c-0.6,0-1.2,0-1.7,0.1c-0.5,0-1,0.1-1.4,0.1v9.7h2.4c3.2,0,5.5-0.4,6.9-1.1
				c1.4-0.8,2.1-2.1,2.1-3.9s-0.7-3-2.1-3.8C136.7,19.9,134.6,19.5,131.9,19.5z"/>
			<path class="st10" d="M178.7,36.9c0,1.8-0.2,3.4-0.6,5c-0.4,1.5-1.1,2.9-2.2,4.1s-2.4,2.1-4.2,2.7c-1.8,0.7-4,1-6.7,1
				c-2.5,0-4.6-0.3-6.4-0.9c-1.8-0.6-3.2-1.2-4.4-2l2.8-6.3c1.1,0.6,2.2,1.1,3.4,1.6c1.2,0.4,2.5,0.7,3.9,0.7c2.1,0,3.6-0.5,4.5-1.4
				c0.9-1,1.4-2.6,1.4-4.9V13.1h8.5V36.9z"/>
		</g>
	</g>
</g>
</svg>
