<?xml version="1.0" encoding="utf-8"?>
<!-- Generator: Adobe Illustrator 21.0.0, SVG Export Plug-In . SVG Version: 6.00 Build 0)  -->
<svg version="1.1" id="图层_1" xmlns="http://www.w3.org/2000/svg" xmlns:xlink="http://www.w3.org/1999/xlink" x="0px" y="0px"
	 viewBox="0 0 256 256" style="enable-background:new 0 0 256 256;" xml:space="preserve">
<style type="text/css">
	.st0{opacity:0.08;enable-background:new    ;}
	.st1{opacity:0.1;enable-background:new    ;}
	.st2{opacity:0.2;enable-background:new    ;}
	.st3{fill:#3E2723;}
	.st4{fill:url(#SVGID_1_);}
	.st5{fill:#795548;fill-opacity:0.7;}
	.st6{opacity:0.39;fill:#FFFFFF;enable-background:new    ;}
	.st7{fill:#FFFFFF;}
	.st8{opacity:0.8;fill:#FFFFFF;enable-background:new    ;}
	.st9{enable-background:new    ;}
	.st10{fill:#5D4037;}
</style>
<polygon class="st0" points="34.1,256 34.1,4 225.9,4 225.9,185 154.9,256 "/>
<polygon class="st1" points="36.1,254 36.1,6 223.9,6 223.9,184.2 154,254 "/>
<polygon class="st2" points="34.1,252 34.1,4 221.9,4 221.9,182.2 152,252 "/>
<polygon class="st3" points="36.1,250 36.1,6 219.9,6 219.9,181.3 151.2,250 "/>
<g>
	<g>
		
			<linearGradient id="SVGID_1_" gradientUnits="userSpaceOnUse" x1="169.6001" y1="-425.9004" x2="169.6001" y2="-665.9004" gradientTransform="matrix(1 0 0 -1 -41.6001 -417.9004)">
			<stop  offset="0" style="stop-color:#785548"/>
			<stop  offset="1" style="stop-color:#9F9E9F"/>
		</linearGradient>
		<polygon class="st4" points="38.1,248 38.1,8 217.9,8 217.9,180.4 151.1,248 		"/>
		<polygon class="st5" points="217.9,180.5 217.9,177.6 146.7,177.6 146.7,248 150.4,248 		"/>
		<path class="st6" d="M150.3,180.5l67.6,0.1L150.4,248L150.3,180.5z"/>
	</g>
	<path class="st7" d="M102.4,54.3h-6.1v77.9h-4.6V54.3h-6.1v77.9H81V54.3h-6.1v77.9h-4.6V54.3h-6.1v77.9h-1.6v33h41.7v-33h-2.1
		L102.4,54.3L102.4,54.3z M98.4,155.6H68.8v-19.1h29.6V155.6z"/>
	<g>
		<rect x="38.1" y="8" class="st8" width="179.9" height="46"/>
		<g class="st9">
			<path class="st10" d="M85.2,42v6.9H60V13.1h8.5V42H85.2z"/>
			<path class="st10" d="M118.3,18.7c-1.2,1.1-2.5,2.6-4.1,4.4s-3.3,3.8-5,5.9s-3.4,4.3-5.1,6.6s-3.2,4.5-4.5,6.5h19.2v6.8H89.2
				v-4.8c1-1.8,2.3-3.7,3.7-5.9c1.5-2.2,3-4.3,4.6-6.5s3.2-4.3,4.9-6.4s3.2-3.9,4.6-5.5H90V13h28.2v5.7H118.3z"/>
			<path class="st10" d="M160.1,31c0,3.1-0.5,5.8-1.4,8.1c-1,2.3-2.3,4.3-4,5.8s-3.7,2.8-6,3.5c-2.3,0.8-4.8,1.2-7.4,1.2
				c-2.6,0-5-0.4-7.3-1.2s-4.3-2-6-3.5s-3-3.5-4-5.8s-1.5-5-1.5-8.1s0.5-5.8,1.5-8.1s2.4-4.3,4.1-5.9c1.7-1.6,3.7-2.8,6-3.6
				s4.6-1.2,7.2-1.2c2.6,0,5,0.4,7.3,1.2s4.3,2,6,3.6s3,3.5,4,5.9C159.6,25.2,160.1,27.9,160.1,31z M131.3,31c0,1.8,0.2,3.4,0.7,4.8
				c0.5,1.4,1.1,2.6,2,3.6c0.8,1,1.9,1.8,3.1,2.4c1.2,0.5,2.7,0.8,4.3,0.8s3-0.3,4.2-0.8c1.3-0.6,2.3-1.3,3.2-2.4
				c0.8-1,1.5-2.2,2-3.6c0.5-1.4,0.7-3,0.7-4.8s-0.2-3.4-0.7-4.8s-1.1-2.7-2-3.7s-1.9-1.8-3.2-2.4c-1.3-0.5-2.7-0.8-4.2-0.8
				c-1.6,0-3,0.3-4.3,0.9s-2.3,1.4-3.1,2.4c-0.9,1-1.5,2.2-2,3.7C131.6,27.7,131.3,29.3,131.3,31z"/>
			<path class="st10" d="M178.5,12.7c5.6,0,9.9,0.9,13,2.8c3,1.9,4.5,5,4.5,9.2c0,4.3-1.5,7.4-4.6,9.3c-3.1,1.9-7.4,2.9-13.1,2.9
				h-2.7v12h-8.5V13.6c1.9-0.3,3.8-0.6,5.9-0.7C175.2,12.7,177,12.7,178.5,12.7z M179.1,19.5c-0.6,0-1.2,0-1.8,0.1
				c-0.6,0-1.1,0.1-1.6,0.1V30h2.7c3,0,5.2-0.4,6.6-1.1c1.5-0.8,2.3-2.2,2.3-4.2c0-1-0.2-1.8-0.6-2.5c-0.4-0.7-0.9-1.2-1.6-1.6
				c-0.7-0.4-1.6-0.7-2.6-0.8C181.4,19.6,180.3,19.5,179.1,19.5z"/>
		</g>
	</g>
</g>
</svg>
