<?xml version="1.0" encoding="utf-8"?>
<!-- Generator: Adobe Illustrator 21.0.0, SVG Export Plug-In . SVG Version: 6.00 Build 0)  -->
<svg version="1.1" id="图层_1" xmlns="http://www.w3.org/2000/svg" xmlns:xlink="http://www.w3.org/1999/xlink" x="0px" y="0px"
	 viewBox="0 0 256 256" style="enable-background:new 0 0 256 256;" xml:space="preserve">
<style type="text/css">
	.st0{opacity:0.08;enable-background:new    ;}
	.st1{opacity:0.1;enable-background:new    ;}
	.st2{opacity:0.2;enable-background:new    ;}
	.st3{fill:#455A64;}
	.st4{fill:url(#SVGID_1_);}
	.st5{fill:#455A64;fill-opacity:0.39;}
	.st6{fill:#FFFFFF;fill-opacity:0.39;}
	.st7{opacity:0.8;}
	.st8{fill:#FFFFFF;}
</style>
<polygon class="st0" points="34.1,256 34.1,4 225.9,4 225.9,185 154.9,256 "/>
<polygon class="st1" points="36.1,254 36.1,6 223.9,6 223.9,184.2 154,254 "/>
<polygon class="st2" points="34.1,252 34.1,4 221.9,4 221.9,182.2 152,252 "/>
<polygon class="st3" points="36.1,250 36.1,6 219.9,6 219.9,181.3 151.2,250 "/>
<g>
	<g>
		
			<linearGradient id="SVGID_1_" gradientUnits="userSpaceOnUse" x1="128" y1="-260" x2="128" y2="-500" gradientTransform="matrix(1 0 0 -1 0 -252)">
			<stop  offset="0" style="stop-color:#90A4AE"/>
			<stop  offset="0.1378" style="stop-color:#849AA5"/>
			<stop  offset="0.4226" style="stop-color:#708A97"/>
			<stop  offset="0.7096" style="stop-color:#64808E"/>
			<stop  offset="1" style="stop-color:#607D8B"/>
		</linearGradient>
		<polygon class="st4" points="38.1,248 38.1,8 217.9,8 217.9,180.5 150.4,248 		"/>
	</g>
	<polygon class="st5" points="217.9,180.5 217.9,177.6 146.7,177.6 146.7,248 150.4,248 	"/>
	<path class="st6" d="M150.3,180.5l67.6,0.1L150.4,248L150.3,180.5z"/>
</g>
<g class="st7">
	<g>
		<polygon class="st8" points="106.8,118.3 79.8,100.4 104,93.1 		"/>
	</g>
	<polygon class="st8" points="125.7,147.7 136.4,147.7 136.4,138.7 125.8,138.7 120.4,143.2 	"/>
	<g>
		<polygon class="st8" points="142.3,107.5 169,89 166.7,114.2 		"/>
		<g>
			<polygon class="st8" points="167.3,107.4 161.2,98.5 153.7,103.7 159.6,112.2 166.7,114.2 			"/>
			<polygon class="st8" points="188,137.4 169.6,110.8 169,117.6 161.9,115.6 177.8,138.7 139.1,138.7 139,147.7 181,147.7 
				181,147.7 181,147.7 			"/>
		</g>
		<g>
			<polygon class="st8" points="97.1,95.2 91.1,103.8 98.7,108.8 104.8,100.1 104,93.1 			"/>
			<polygon class="st8" points="135,60.6 120.9,60.6 99.5,91.7 106.3,89.7 107.1,96.7 128,66.4 152.2,101.5 159.7,96.4 			"/>
			<polygon class="st8" points="78.2,138.7 97.2,111 89.6,106 68,137.4 68,137.4 68,137.4 72.8,144.3 75.1,147.7 121.6,147.7 
				116.3,143.2 121.6,138.7 			"/>
		</g>
	</g>
	<g>
		<polygon class="st8" points="139.8,127 139.8,159.4 120.4,143.2 		"/>
	</g>
	<polygon class="st8" points="89.6,106 93.7,100.1 103.5,102.3 96.5,112.1 	"/>
	<polygon class="st8" points="148.5,96.2 154.8,105.3 162.5,100.3 156.1,91.2 	"/>
	<rect x="134" y="138.7" class="st8" width="6.6" height="9"/>
</g>
</svg>
