<?xml version="1.0" encoding="utf-8"?>
<!-- Generator: Adobe Illustrator 16.0.0, SVG Export Plug-In . SVG Version: 6.00 Build 0)  -->
<!DOCTYPE svg PUBLIC "-//W3C//DTD SVG 1.1//EN" "http://www.w3.org/Graphics/SVG/1.1/DTD/svg11.dtd">
<svg version="1.1" id="图层_1" xmlns="http://www.w3.org/2000/svg" xmlns:xlink="http://www.w3.org/1999/xlink" x="0px" y="0px"
	 width="256px" height="256px" viewBox="0 0 256 256" enable-background="new 0 0 256 256" xml:space="preserve">
<polygon opacity="0.08" enable-background="new    " points="34.1,256 34.1,4 225.9,4 225.9,185 154.9,256 "/>
<polygon opacity="0.1" enable-background="new    " points="36.1,254 36.1,6 223.9,6 223.9,184.2 154,254 "/>
<polygon opacity="0.2" enable-background="new    " points="34.1,252 34.1,4 221.9,4 221.9,182.2 152,252 "/>
<polygon fill="#01579B" points="36.1,250 36.1,6 219.9,6 219.9,181.3 151.2,250 "/>
<circle opacity="0.8" fill="#FFFFFF" enable-background="new    " cx="159.9" cy="95.5" r="12.7"/>
<path opacity="0.8" fill="#FFFFFF" enable-background="new    " d="M65.5,69v82h125V69H65.5z M181.5,78v64l0,0l-29-20.6l-20.7,12.7
	L105.2,102l-30.7,40V78H181.5z"/>
<g>
	<g>
		<g>
			<g>
				
					<linearGradient id="SVGID_1_" gradientUnits="userSpaceOnUse" x1="211.1895" y1="-574.8003" x2="211.1894" y2="-334.8008" gradientTransform="matrix(1 0 0 -1 -83.2002 -326.8008)">
					<stop  offset="0" style="stop-color:#2196F3"/>
					<stop  offset="0.5828" style="stop-color:#3DBAE8"/>
					<stop  offset="1" style="stop-color:#4DD0E1"/>
				</linearGradient>
				<polygon fill="url(#SVGID_1_)" points="38.083,248 38.083,8 217.896,8 217.896,180.5 150.396,248 				"/>
			</g>
			<polygon fill="#01579B" fill-opacity="0.39" points="217.896,180.5 217.896,177.594 146.692,177.594 146.692,248 150.396,248 			
				"/>
			<path fill="#FFFFFF" fill-opacity="0.3922" d="M150.302,180.5l67.609,0.094L150.396,248L150.302,180.5z"/>
		</g>
		<g>
			<path opacity="0.8" fill="#FFFFFF" enable-background="new    " d="M159.896,91.797c7.016,0,12.703,5.688,12.703,12.711
				c0,7.016-5.688,12.703-12.703,12.703s-12.703-5.688-12.703-12.703C147.192,97.484,152.88,91.797,159.896,91.797z"/>
			<path opacity="0.8" fill="#FFFFFF" enable-background="new    " d="M65.497,78.008V160h125.008V78.008H65.497z M181.489,87v64
				l0,0l-29-20.594l-20.711,12.688L105.192,111l-30.711,40V87H181.489z"/>
		</g>
	</g>
	<g>
		<rect x="38.044" y="8" opacity="0.8" fill="#FFFFFF" enable-background="new    " width="179.914" height="46"/>
		<g enable-background="new    ">
			<path fill="#0288D1" d="M83.45,49.125c-2.063,0-4.125-0.063-6.172-0.188c-2.063-0.109-4.188-0.391-6.406-0.844V13.328
				c1.75-0.297,3.656-0.547,5.719-0.703s4-0.219,5.766-0.219c2.406,0,4.609,0.156,6.625,0.484s3.75,0.891,5.203,1.672
				c1.438,0.813,2.578,1.844,3.391,3.141c0.828,1.297,1.234,2.891,1.234,4.781c0,2.859-1.453,5.125-4.359,6.781
				c2.391,0.859,4.031,2.031,4.906,3.516c0.859,1.484,1.297,3.156,1.297,5.016c0,3.766-1.438,6.594-4.328,8.484
				C93.45,48.188,89.153,49.125,83.45,49.125z M79.153,26.875h4.141c2.609,0,4.484-0.313,5.609-0.938
				c1.125-0.656,1.688-1.672,1.688-3.094c0-1.438-0.594-2.469-1.75-3.047s-2.859-0.875-5.125-0.875c-0.719,0-1.5,0.016-2.328,0.016
				c-0.844,0.031-1.578,0.063-2.234,0.125V26.875z M79.153,33.031v9.281c0.609,0.063,1.281,0.109,2.016,0.141
				C81.888,42.5,82.685,42.5,83.56,42.5c2.547,0,4.594-0.344,6.156-1.031s2.344-1.969,2.344-3.813c0-1.656-0.656-2.844-1.969-3.563
				c-1.297-0.688-3.172-1.063-5.609-1.063H79.153z"/>
			<path fill="#0288D1" d="M117.481,12.813c0.656,1.141,1.422,2.547,2.266,4.219c0.859,1.672,1.75,3.484,2.672,5.438
				c0.938,1.938,1.859,3.938,2.766,5.969s1.766,3.938,2.563,5.75c0.797-1.813,1.656-3.719,2.563-5.75
				c0.922-2.031,1.828-4.031,2.766-5.969c0.922-1.953,1.813-3.766,2.672-5.438c0.867-1.672,1.617-3.078,2.273-4.219h7.719
				c0.375,2.375,0.719,5.047,1.031,8c0.313,2.938,0.563,6.016,0.813,9.203c0.219,3.188,0.438,6.391,0.656,9.594
				c0.188,3.203,0.375,6.234,0.5,9.047h-8.281c-0.094-3.469-0.25-7.266-0.406-11.375c-0.188-4.094-0.469-8.25-0.844-12.406
				c-0.656,1.438-1.375,3.047-2.188,4.813c-0.781,1.75-1.586,3.5-2.367,5.266s-1.547,3.453-2.266,5.047
				c-0.734,1.594-1.344,2.969-1.859,4.109h-5.938c-0.516-1.141-1.125-2.516-1.859-4.109c-0.719-1.594-1.484-3.281-2.266-5.047
				s-1.578-3.516-2.375-5.266c-0.797-1.766-1.531-3.375-2.188-4.813c-0.359,4.156-0.625,8.313-0.813,12.406
				c-0.188,4.109-0.328,7.906-0.438,11.375h-8.281c0.156-2.813,0.328-5.844,0.516-9.047c0.203-3.203,0.422-6.406,0.656-9.594
				s0.516-6.266,0.828-9.203c0.297-2.953,0.641-5.625,1-8H117.481z"/>
			<path fill="#0288D1" d="M167.646,12.406c5.625,0,9.938,0.938,12.969,2.813c3,1.875,4.5,4.969,4.5,9.234
				c0,4.313-1.5,7.422-4.563,9.328c-3.063,1.922-7.406,2.875-13.063,2.875h-2.688v12h-8.469V13.328
				c1.844-0.344,3.781-0.578,5.875-0.719C164.271,12.469,166.083,12.406,167.646,12.406z M168.177,19.281
				c-0.594,0-1.219,0.016-1.813,0.063c-0.594,0.031-1.125,0.063-1.563,0.094v10.344h2.688c2.938,0,5.156-0.375,6.625-1.141
				c1.5-0.766,2.25-2.172,2.25-4.234c0-1-0.188-1.828-0.594-2.484c-0.375-0.656-0.906-1.188-1.625-1.578
				c-0.688-0.406-1.563-0.672-2.594-0.828C170.552,19.359,169.427,19.281,168.177,19.281z"/>
		</g>
	</g>
</g>
</svg>
