<?xml version="1.0" encoding="utf-8"?>
<!-- Generator: Adobe Illustrator 17.1.0, SVG Export Plug-In . SVG Version: 6.00 Build 0)  -->
<!DOCTYPE svg PUBLIC "-//W3C//DTD SVG 1.1//EN" "http://www.w3.org/Graphics/SVG/1.1/DTD/svg11.dtd">
<svg version="1.1" id="图层_1" xmlns="http://www.w3.org/2000/svg" xmlns:xlink="http://www.w3.org/1999/xlink" x="0px" y="0px"
	 width="256px" height="256px" viewBox="0 0 256 256" enable-background="new 0 0 256 256" xml:space="preserve">
<polygon opacity="8.000000e-002" enable-background="new    " points="34.1,256 34.1,4 225.9,4 225.9,185 154.9,256 "/>
<polygon opacity="9.999999e-002" enable-background="new    " points="36.1,254 36.1,6 223.9,6 223.9,184.2 154,254 "/>
<polygon opacity="0.2" enable-background="new    " points="34.1,252 34.1,4 221.9,4 221.9,182.2 152,252 "/>
<polygon fill="#607D8B" points="36.1,250 36.1,6 219.9,6 219.9,181.3 151.2,250 "/>
<g>
	<g>
		
			<linearGradient id="SVGID_1_" gradientUnits="userSpaceOnUse" x1="128" y1="262" x2="128" y2="502" gradientTransform="matrix(1 0 0 1 0 -254)">
			<stop  offset="0" style="stop-color:#F5F5F5"/>
			<stop  offset="0.341" style="stop-color:#F1F2F3"/>
			<stop  offset="0.6434" style="stop-color:#E7EAEC"/>
			<stop  offset="0.9302" style="stop-color:#D5DCE0"/>
			<stop  offset="1" style="stop-color:#CFD8DC"/>
		</linearGradient>
		<polygon fill="url(#SVGID_1_)" points="38.1,248 38.1,8 217.9,8 217.9,180.5 150.4,248 		"/>
	</g>
	<polygon fill="#455A64" fill-opacity="0.7" points="217.9,180.5 217.9,177.6 146.7,177.6 146.7,248 150.4,248 	"/>
	<path fill="#90A4AE" d="M150.3,180.5l67.6,0.1L150.4,248L150.3,180.5z"/>
</g>
<g opacity="0.8" enable-background="new    ">
	<rect x="61.9" y="42.4" fill="#607D8B" width="133" height="14.2"/>
	<rect x="61.9" y="80.7" fill="#607D8B" width="133" height="6.6"/>
	<rect x="61.9" y="101.4" fill="#607D8B" width="133" height="6.6"/>
	<rect x="61.9" y="122.2" fill="#607D8B" width="133" height="6.6"/>
	<rect x="61.9" y="142.9" fill="#607D8B" width="133" height="6.6"/>
	<rect x="61.9" y="163.7" fill="#607D8B" width="82.2" height="6.6"/>
</g>
</svg>
