<?xml version="1.0" encoding="utf-8"?>
<!-- Generator: Adobe Illustrator 16.0.0, SVG Export Plug-In . SVG Version: 6.00 Build 0)  -->
<!DOCTYPE svg PUBLIC "-//W3C//DTD SVG 1.1//EN" "http://www.w3.org/Graphics/SVG/1.1/DTD/svg11.dtd">
<svg version="1.1" id="图层_1" xmlns="http://www.w3.org/2000/svg" xmlns:xlink="http://www.w3.org/1999/xlink" x="0px" y="0px"
	 width="256px" height="256px" viewBox="0 0 256 256" enable-background="new 0 0 256 256" xml:space="preserve">
<polygon opacity="0.08" enable-background="new    " points="34.1,256 34.1,4 225.9,4 225.9,185 154.9,256 "/>
<polygon opacity="0.1" enable-background="new    " points="36.1,254 36.1,6 223.9,6 223.9,184.2 154,254 "/>
<polygon opacity="0.2" enable-background="new    " points="34.1,252 34.1,4 221.9,4 221.9,182.2 152,252 "/>
<polygon fill="#3E2723" points="36.1,250 36.1,6 219.9,6 219.9,181.3 151.2,250 "/>
<g>
	<g>
		
			<linearGradient id="SVGID_1_" gradientUnits="userSpaceOnUse" x1="169.6074" y1="84.0996" x2="169.6074" y2="-155.9009" gradientTransform="matrix(1 0 0 -1 -41.6001 92.0996)">
			<stop  offset="0" style="stop-color:#785548"/>
			<stop  offset="1" style="stop-color:#9F9E9F"/>
		</linearGradient>
		<polygon fill="url(#SVGID_1_)" points="38.102,248 38.102,8 217.914,8 217.914,180.406 151.07,248 		"/>
		<polygon fill="#795548" fill-opacity="0.7" points="217.914,180.5 217.914,177.594 146.727,177.594 146.727,248 150.414,248 		"/>
		<path opacity="0.39" fill="#FFFFFF" enable-background="new    " d="M150.32,180.5l67.594,0.094L150.414,248L150.32,180.5z"/>
	</g>
	<path fill="#FFFFFF" d="M102.352,54.266h-6.094v77.938h-4.594V54.266h-6.063v77.938h-4.594V54.266h-6.063v77.938h-4.594V54.266
		h-6.063v77.938h-1.594v33.016h41.719v-33.016h-2.063V54.266z M98.352,155.625H68.758v-19.141h29.594V155.625z"/>
	<g>
		<rect x="38.055" y="8" opacity="0.8" fill="#FFFFFF" enable-background="new    " width="179.891" height="46"/>
		<g enable-background="new    ">
			<path fill="#5D4037" d="M103.008,48.93c-0.422-1.242-0.875-2.523-1.359-3.836s-0.969-2.625-1.438-3.922h-14.75
				c-0.469,1.305-0.953,2.617-1.422,3.93c-0.484,1.313-0.922,2.594-1.344,3.828h-8.813c1.406-3.859,2.766-7.43,4.031-10.711
				c1.281-3.273,2.531-6.359,3.75-9.258s2.422-5.648,3.594-8.25c1.188-2.602,2.422-5.148,3.688-7.633h8.063
				c1.234,2.484,2.453,5.031,3.656,7.633s2.422,5.352,3.641,8.25s2.469,5.984,3.75,9.258c1.281,3.281,2.625,6.852,4.047,10.711
				H103.008z M92.805,21.203c-0.203,0.516-0.469,1.227-0.844,2.125c-0.359,0.898-0.781,1.93-1.234,3.102
				c-0.469,1.18-1,2.469-1.563,3.883c-0.578,1.414-1.172,2.891-1.766,4.445h10.797c-0.578-1.555-1.141-3.039-1.688-4.461
				c-0.531-1.414-1.047-2.711-1.531-3.883c-0.5-1.18-0.922-2.211-1.281-3.109C93.32,22.414,93.023,21.711,92.805,21.203z"/>
			<path fill="#5D4037" d="M127.992,12.664c5.656,0,10,0.961,13.016,2.875s4.516,4.891,4.516,8.922c0,2.516-0.594,4.563-1.813,6.133
				s-2.969,2.797-5.25,3.695c0.75,0.898,1.547,1.922,2.375,3.078c0.844,1.156,1.672,2.359,2.5,3.625
				c0.813,1.258,1.594,2.563,2.359,3.93c0.766,1.359,1.469,2.695,2.125,4.008h-9.5c-0.703-1.172-1.391-2.359-2.109-3.57
				c-0.703-1.203-1.438-2.375-2.188-3.516s-1.469-2.219-2.219-3.234c-0.719-1.016-1.438-1.938-2.172-2.766h-4.203V48.93h-8.484
				V13.594c1.859-0.344,3.766-0.586,5.734-0.719C124.664,12.734,126.43,12.664,127.992,12.664z M128.492,19.547
				c-0.625,0-1.188,0.016-1.656,0.055c-0.5,0.031-0.969,0.063-1.406,0.102v9.727h2.406c3.188,0,5.469-0.383,6.859-1.141
				c1.375-0.758,2.078-2.055,2.078-3.883c0-1.758-0.719-3.008-2.109-3.75S131.211,19.547,128.492,19.547z"/>
			<path fill="#5D4037" d="M169.492,49.656c-6.125,0-10.813-1.625-14.031-4.867c-3.203-3.242-4.813-7.844-4.813-13.813
				c0-2.961,0.5-5.609,1.469-7.938c0.984-2.328,2.328-4.297,4.031-5.898c1.719-1.602,3.75-2.82,6.094-3.648
				c2.375-0.828,4.938-1.242,7.688-1.242c1.594,0,3.047,0.117,4.344,0.336c1.313,0.227,2.469,0.484,3.438,0.781
				c0.984,0.289,1.813,0.594,2.453,0.906c0.656,0.305,1.125,0.547,1.422,0.719l-2.453,6.523c-1.172-0.586-2.516-1.086-4.063-1.5
				s-3.297-0.625-5.25-0.625c-1.297,0-2.578,0.211-3.828,0.625c-1.266,0.414-2.375,1.078-3.344,1.984
				c-0.953,0.914-1.719,2.102-2.313,3.547c-0.563,1.445-0.859,3.211-0.859,5.273c0,1.656,0.188,3.203,0.578,4.633
				c0.375,1.43,1,2.664,1.844,3.703c0.844,1.031,1.969,1.852,3.344,2.453s3.063,0.906,5.016,0.906c1.234,0,2.328-0.07,3.328-0.211
				c0.969-0.133,1.844-0.297,2.594-0.484c0.781-0.195,1.438-0.406,2.031-0.648c0.578-0.242,1.094-0.469,1.563-0.672l2.344,6.461
				c-1.188,0.695-2.875,1.313-5.063,1.867C174.883,49.375,172.367,49.656,169.492,49.656z"/>
		</g>
	</g>
</g>
</svg>
