<?xml version="1.0" encoding="utf-8"?>
<!-- Generator: Adobe Illustrator 17.1.0, SVG Export Plug-In . SVG Version: 6.00 Build 0)  -->
<!DOCTYPE svg PUBLIC "-//W3C//DTD SVG 1.1//EN" "http://www.w3.org/Graphics/SVG/1.1/DTD/svg11.dtd">
<svg version="1.1" id="图层_1" xmlns="http://www.w3.org/2000/svg" xmlns:xlink="http://www.w3.org/1999/xlink" x="0px" y="0px"
	 width="256px" height="256px" viewBox="0 0 256 256" enable-background="new 0 0 256 256" xml:space="preserve">
<polygon opacity="8.000000e-002" enable-background="new    " points="34.1,256 34.1,4 225.9,4 225.9,185 154.9,256 "/>
<polygon opacity="9.999999e-002" enable-background="new    " points="36.1,254 36.1,6 223.9,6 223.9,184.2 154,254 "/>
<polygon opacity="0.2" enable-background="new    " points="34.1,252 34.1,4 221.9,4 221.9,182.2 152,252 "/>
<polygon fill="#B71C1C" points="36.1,250 36.1,6 219.9,6 219.9,181.3 151.2,250 "/>
<g>
	<g>
		
			<linearGradient id="SVGID_1_" gradientUnits="userSpaceOnUse" x1="128" y1="10" x2="128" y2="250" gradientTransform="matrix(1 0 0 -1 0 258)">
			<stop  offset="0" style="stop-color:#512DA8"/>
			<stop  offset="8.000000e-003" style="stop-color:#D32F2F"/>
			<stop  offset="0.1635" style="stop-color:#E64029"/>
			<stop  offset="0.3476" style="stop-color:#F44D25"/>
			<stop  offset="0.5725" style="stop-color:#FC5523"/>
			<stop  offset="0.9516" style="stop-color:#FF5722"/>
		</linearGradient>
		<polygon fill="url(#SVGID_1_)" points="38.1,248 38.1,8 217.9,8 217.9,180.5 150.4,248 		"/>
	</g>
	<polygon fill="#B71C1C" fill-opacity="0.3922" points="217.9,180.5 217.9,177.6 146.7,177.6 146.7,248 150.4,248 	"/>
	<path fill="#FFFFFF" fill-opacity="0.3922" d="M150.3,180.5l67.6,0.1L150.4,248L150.3,180.5z"/>
</g>
<g opacity="0.8" enable-background="new    ">
	<g>
		<path fill="#FFFFFF" d="M150.6,66.6c0.3,0.1,0.7,0.1,1,0.2C151.3,66.7,150.9,66.6,150.6,66.6z"/>
		<path fill="#FFFFFF" d="M148.1,66.2c0.4,0,0.7,0.1,1.1,0.1C148.8,66.3,148.5,66.3,148.1,66.2z"/>
		<path fill="#FFFFFF" d="M153,67c0.3,0.1,0.6,0.1,0.9,0.2C153.6,67.1,153.3,67,153,67z"/>
		<path fill="#FFFFFF" d="M155.4,67.4c0.3,0.1,0.6,0.1,0.8,0.2C155.9,67.5,155.7,67.4,155.4,67.4z"/>
		<path fill="#FFFFFF" d="M145.5,65.9c0.4,0,0.8,0.1,1.2,0.1C146.3,66,145.9,65.9,145.5,65.9z"/>
		<path fill="#FFFFFF" d="M159.9,68.4c0.2,0.1,0.4,0.1,0.7,0.2C160.3,68.5,160.1,68.4,159.9,68.4z"/>
		<path fill="#FFFFFF" d="M157.7,67.9c0.2,0.1,0.5,0.1,0.7,0.2C158.2,68,157.9,67.9,157.7,67.9z"/>
		<path fill="#FFFFFF" d="M74.4,79.3C74.4,79.3,74.4,79.3,74.4,79.3C74.4,79.3,74.4,79.3,74.4,79.3z"/>
		<path fill="#FFFFFF" d="M131.7,65c0.6,0,1.3,0,1.9,0C133,65,132.3,65,131.7,65z"/>
		<path fill="#FFFFFF" d="M162,68.9c0.2,0.1,0.4,0.1,0.6,0.2C162.4,69,162.2,69,162,68.9z"/>
		<path fill="#FFFFFF" d="M142.9,65.6c0.4,0,0.8,0.1,1.2,0.1C143.8,65.7,143.4,65.7,142.9,65.6z"/>
		<path fill="#FFFFFF" d="M122.4,65c0.6,0,1.2,0,1.9,0C123.7,65,123,65,122.4,65z"/>
		<path fill="#FFFFFF" d="M137.5,65.2c0.5,0,1,0.1,1.5,0.1C138.5,65.3,138,65.2,137.5,65.2z"/>
		<path fill="#FFFFFF" d="M140.3,65.4c0.5,0,0.9,0.1,1.4,0.1C141.2,65.5,140.7,65.4,140.3,65.4z"/>
		<path fill="#FFFFFF" d="M174.4,73.6c0,0,0.1,0,0.1,0.1C174.5,73.6,174.4,73.6,174.4,73.6z"/>
		<path fill="#FFFFFF" d="M179.2,76.8C179.2,76.8,179.2,76.8,179.2,76.8C179.2,76.8,179.2,76.8,179.2,76.8z"/>
		<path fill="#FFFFFF" d="M175.8,74.3C175.8,74.3,175.8,74.4,175.8,74.3C175.8,74.4,175.8,74.3,175.8,74.3z"/>
		<path fill="#FFFFFF" d="M177,75.1C177.1,75.1,177.1,75.1,177,75.1C177.1,75.1,177.1,75.1,177,75.1z"/>
		<path fill="#FFFFFF" d="M164.1,69.5c0.2,0,0.3,0.1,0.5,0.1C164.4,69.6,164.2,69.5,164.1,69.5z"/>
		<path fill="#FFFFFF" d="M180.1,77.6C180.1,77.6,180.1,77.6,180.1,77.6C180.1,77.6,180.1,77.6,180.1,77.6z"/>
		<path fill="#FFFFFF" d="M128,64.9c-0.9,0-1.9,0-2.8,0C126.1,64.9,127.1,64.9,128,64.9z"/>
		<path fill="#FFFFFF" d="M178.2,75.9C178.2,75.9,178.2,75.9,178.2,75.9C178.2,75.9,178.2,75.9,178.2,75.9z"/>
		<path fill="#FFFFFF" d="M169.7,71.4c0.1,0,0.2,0.1,0.3,0.1C169.9,71.5,169.8,71.4,169.7,71.4z"/>
		<path fill="#FFFFFF" d="M128,64.9c0.9,0,1.9,0,2.8,0C129.9,64.9,128.9,64.9,128,64.9z"/>
		<path fill="#FFFFFF" d="M166,70.1c0.1,0,0.3,0.1,0.4,0.1C166.3,70.2,166.2,70.1,166,70.1z"/>
		<path fill="#FFFFFF" d="M167.9,70.7c0.1,0,0.2,0.1,0.3,0.1C168.1,70.8,168,70.8,167.9,70.7z"/>
		<path fill="#FFFFFF" d="M171.4,72.1c0.1,0,0.2,0.1,0.2,0.1C171.5,72.2,171.4,72.1,171.4,72.1z"/>
		<path fill="#FFFFFF" d="M172.9,72.8c0.1,0,0.1,0.1,0.2,0.1C173.1,72.9,173,72.8,172.9,72.8z"/>
		<path fill="#FFFFFF" d="M134.7,65.1c0.5,0,1.1,0,1.6,0.1C135.8,65.1,135.2,65.1,134.7,65.1z"/>
		<path fill="#FFFFFF" d="M81.5,73.6c0.1,0,0.1-0.1,0.2-0.1C81.6,73.6,81.5,73.6,81.5,73.6z"/>
		<path fill="#FFFFFF" d="M80.1,74.4c0,0,0.1,0,0.1-0.1C80.2,74.3,80.2,74.4,80.1,74.4z"/>
		<path fill="#FFFFFF" d="M78.9,75.2C78.9,75.1,79,75.1,78.9,75.2C79,75.1,78.9,75.1,78.9,75.2z"/>
		<path fill="#FFFFFF" d="M82.9,72.9c0.1,0,0.1-0.1,0.2-0.1C83,72.8,82.9,72.9,82.9,72.9z"/>
		<path fill="#FFFFFF" d="M86,71.5c0.1,0,0.2-0.1,0.3-0.1C86.2,71.4,86.1,71.5,86,71.5z"/>
		<path fill="#FFFFFF" d="M84.4,72.2c0.1,0,0.2-0.1,0.3-0.1C84.6,72.1,84.5,72.2,84.4,72.2z"/>
		<path fill="#FFFFFF" d="M119.7,65.1c0.5,0,1.1,0,1.6-0.1C120.8,65.1,120.2,65.1,119.7,65.1z"/>
		<path fill="#FFFFFF" d="M128,102.2c-30.4,0-55-8.3-55-18.6v16.8c0,10.3,24.6,18.6,55,18.6c30.4,0,55-8.3,55-18.6h0V83.6
			C183,93.8,158.4,102.2,128,102.2z"/>
		<path fill="#FFFFFF" d="M73,83v0.6C73,83.4,73,83.2,73,83L73,83z"/>
		<path fill="#FFFFFF" d="M87.7,70.9c0.1,0,0.3-0.1,0.4-0.1C88,70.8,87.9,70.8,87.7,70.9z"/>
		<path fill="#FFFFFF" d="M76.8,76.8C76.8,76.8,76.8,76.8,76.8,76.8C76.8,76.8,76.8,76.8,76.8,76.8z"/>
		<path fill="#FFFFFF" d="M183,83c0,0.2,0,0.4,0,0.6L183,83L183,83z"/>
		<path fill="#FFFFFF" d="M75.1,78.5C75.1,78.5,75.1,78.5,75.1,78.5C75.1,78.5,75.1,78.5,75.1,78.5z"/>
		<path fill="#FFFFFF" d="M75.9,77.6C75.9,77.6,75.9,77.6,75.9,77.6C75.9,77.6,75.9,77.6,75.9,77.6z"/>
		<path fill="#FFFFFF" d="M77.8,76C77.8,75.9,77.8,75.9,77.8,76C77.8,75.9,77.8,75.9,77.8,76z"/>
		<path fill="#FFFFFF" d="M109.3,66c0.4,0,0.8-0.1,1.2-0.1C110.1,65.9,109.7,66,109.3,66z"/>
		<path fill="#FFFFFF" d="M106.8,66.4c0.4-0.1,0.7-0.1,1.1-0.1C107.5,66.3,107.2,66.3,106.8,66.4z"/>
		<path fill="#FFFFFF" d="M111.8,65.7c0.4,0,0.8-0.1,1.3-0.1C112.6,65.7,112.2,65.7,111.8,65.7z"/>
		<path fill="#FFFFFF" d="M89.5,70.2c0.1,0,0.3-0.1,0.4-0.1C89.8,70.1,89.7,70.2,89.5,70.2z"/>
		<path fill="#FFFFFF" d="M117,65.3c0.5,0,1-0.1,1.5-0.1C118,65.2,117.5,65.3,117,65.3z"/>
		<path fill="#FFFFFF" d="M104.4,66.7c0.3-0.1,0.7-0.1,1-0.2C105.1,66.6,104.7,66.7,104.4,66.7z"/>
		<path fill="#FFFFFF" d="M114.4,65.5c0.5,0,0.9-0.1,1.4-0.1C115.3,65.4,114.8,65.5,114.4,65.5z"/>
		<path fill="#FFFFFF" d="M93.4,69.1c0.2-0.1,0.4-0.1,0.6-0.2C93.8,69,93.6,69,93.4,69.1z"/>
		<path fill="#FFFFFF" d="M91.4,69.6c0.2-0.1,0.3-0.1,0.5-0.2C91.8,69.5,91.6,69.6,91.4,69.6z"/>
		<path fill="#FFFFFF" d="M95.4,68.5c0.2-0.1,0.5-0.1,0.7-0.2C95.9,68.4,95.7,68.5,95.4,68.5z"/>
		<path fill="#FFFFFF" d="M97.6,68c0.3-0.1,0.5-0.1,0.8-0.2C98.1,67.9,97.8,68,97.6,68z"/>
		<path fill="#FFFFFF" d="M99.8,67.6c0.3-0.1,0.6-0.1,0.9-0.2C100.3,67.4,100.1,67.5,99.8,67.6z"/>
		<path fill="#FFFFFF" d="M102.1,67.1c0.3-0.1,0.6-0.1,0.9-0.2C102.7,67,102.4,67.1,102.1,67.1z"/>
	</g>
	<g>
		<path fill="#FFFFFF" d="M150.6,86.1c0.3,0.1,0.7,0.1,1,0.2C151.3,86.2,150.9,86.2,150.6,86.1z"/>
		<path fill="#FFFFFF" d="M148.1,85.8c0.4,0,0.7,0.1,1.1,0.1C148.8,85.8,148.5,85.8,148.1,85.8z"/>
		<path fill="#FFFFFF" d="M153,86.5c0.3,0.1,0.6,0.1,0.9,0.2C153.6,86.6,153.3,86.6,153,86.5z"/>
		<path fill="#FFFFFF" d="M155.4,86.9c0.3,0.1,0.6,0.1,0.8,0.2C155.9,87,155.7,87,155.4,86.9z"/>
		<path fill="#FFFFFF" d="M145.5,85.4c0.4,0,0.8,0.1,1.2,0.1C146.3,85.5,145.9,85.5,145.5,85.4z"/>
		<path fill="#FFFFFF" d="M159.9,87.9c0.2,0.1,0.4,0.1,0.7,0.2C160.3,88,160.1,88,159.9,87.9z"/>
		<path fill="#FFFFFF" d="M157.7,87.4c0.2,0.1,0.5,0.1,0.7,0.2C158.2,87.5,157.9,87.5,157.7,87.4z"/>
		<path fill="#FFFFFF" d="M74.4,98.9C74.4,98.9,74.4,98.9,74.4,98.9C74.4,98.9,74.4,98.9,74.4,98.9z"/>
		<path fill="#FFFFFF" d="M131.7,84.5c0.6,0,1.3,0,1.9,0C133,84.5,132.3,84.5,131.7,84.5z"/>
		<path fill="#FFFFFF" d="M162,88.5c0.2,0.1,0.4,0.1,0.6,0.2C162.4,88.6,162.2,88.5,162,88.5z"/>
		<path fill="#FFFFFF" d="M142.9,85.2c0.4,0,0.8,0.1,1.2,0.1C143.8,85.2,143.4,85.2,142.9,85.2z"/>
		<path fill="#FFFFFF" d="M122.4,84.6c0.6,0,1.2,0,1.9,0C123.7,84.5,123,84.5,122.4,84.6z"/>
		<path fill="#FFFFFF" d="M137.5,84.7c0.5,0,1,0.1,1.5,0.1C138.5,84.8,138,84.8,137.5,84.7z"/>
		<path fill="#FFFFFF" d="M140.3,84.9c0.5,0,0.9,0.1,1.4,0.1C141.2,85,140.7,85,140.3,84.9z"/>
		<path fill="#FFFFFF" d="M174.4,93.1c0,0,0.1,0,0.1,0.1C174.5,93.1,174.4,93.1,174.4,93.1z"/>
		<path fill="#FFFFFF" d="M179.2,96.3C179.2,96.3,179.2,96.3,179.2,96.3C179.2,96.3,179.2,96.3,179.2,96.3z"/>
		<path fill="#FFFFFF" d="M175.8,93.9C175.8,93.9,175.8,93.9,175.8,93.9C175.8,93.9,175.8,93.9,175.8,93.9z"/>
		<path fill="#FFFFFF" d="M177,94.7C177.1,94.7,177.1,94.7,177,94.7C177.1,94.7,177.1,94.7,177,94.7z"/>
		<path fill="#FFFFFF" d="M164.1,89c0.2,0,0.3,0.1,0.5,0.1C164.4,89.1,164.2,89.1,164.1,89z"/>
		<path fill="#FFFFFF" d="M180.1,97.1C180.1,97.1,180.1,97.1,180.1,97.1C180.1,97.1,180.1,97.1,180.1,97.1z"/>
		<path fill="#FFFFFF" d="M128,84.5c-0.9,0-1.9,0-2.8,0C126.1,84.5,127.1,84.5,128,84.5z"/>
		<path fill="#FFFFFF" d="M178.2,95.5C178.2,95.5,178.2,95.5,178.2,95.5C178.2,95.5,178.2,95.5,178.2,95.5z"/>
		<path fill="#FFFFFF" d="M169.7,90.9c0.1,0,0.2,0.1,0.3,0.1C169.9,91,169.8,91,169.7,90.9z"/>
		<path fill="#FFFFFF" d="M128,84.5c0.9,0,1.9,0,2.8,0C129.9,84.5,128.9,84.5,128,84.5z"/>
		<path fill="#FFFFFF" d="M166,89.6c0.1,0,0.3,0.1,0.4,0.1C166.3,89.7,166.2,89.7,166,89.6z"/>
		<path fill="#FFFFFF" d="M167.9,90.3c0.1,0,0.2,0.1,0.3,0.1C168.1,90.4,168,90.3,167.9,90.3z"/>
		<path fill="#FFFFFF" d="M171.4,91.6c0.1,0,0.2,0.1,0.2,0.1C171.5,91.7,171.4,91.7,171.4,91.6z"/>
		<path fill="#FFFFFF" d="M172.9,92.4c0.1,0,0.1,0.1,0.2,0.1C173.1,92.4,173,92.4,172.9,92.4z"/>
		<path fill="#FFFFFF" d="M134.7,84.6c0.5,0,1.1,0,1.6,0.1C135.8,84.6,135.2,84.6,134.7,84.6z"/>
		<path fill="#FFFFFF" d="M81.5,93.2c0.1,0,0.1-0.1,0.2-0.1C81.6,93.1,81.5,93.1,81.5,93.2z"/>
		<path fill="#FFFFFF" d="M80.1,93.9c0,0,0.1,0,0.1-0.1C80.2,93.9,80.2,93.9,80.1,93.9z"/>
		<path fill="#FFFFFF" d="M78.9,94.7C78.9,94.7,79,94.7,78.9,94.7C79,94.7,78.9,94.7,78.9,94.7z"/>
		<path fill="#FFFFFF" d="M82.9,92.4c0.1,0,0.1-0.1,0.2-0.1C83,92.4,82.9,92.4,82.9,92.4z"/>
		<path fill="#FFFFFF" d="M86,91.1c0.1,0,0.2-0.1,0.3-0.1C86.2,91,86.1,91,86,91.1z"/>
		<path fill="#FFFFFF" d="M84.4,91.7c0.1,0,0.2-0.1,0.3-0.1C84.6,91.7,84.5,91.7,84.4,91.7z"/>
		<path fill="#FFFFFF" d="M119.7,84.7c0.5,0,1.1,0,1.6-0.1C120.8,84.6,120.2,84.6,119.7,84.7z"/>
		<path fill="#FFFFFF" d="M128,121.7c-30.4,0-55-8.3-55-18.6v16.8c0,10.3,24.6,18.6,55,18.6c30.4,0,55-8.3,55-18.6h0v-16.8
			C183,113.4,158.4,121.7,128,121.7z"/>
		<path fill="#FFFFFF" d="M73,102.5v0.6C73,102.9,73,102.7,73,102.5L73,102.5z"/>
		<path fill="#FFFFFF" d="M87.7,90.4c0.1,0,0.3-0.1,0.4-0.1C88,90.3,87.9,90.4,87.7,90.4z"/>
		<path fill="#FFFFFF" d="M76.8,96.3C76.8,96.3,76.8,96.3,76.8,96.3C76.8,96.3,76.8,96.3,76.8,96.3z"/>
		<path fill="#FFFFFF" d="M183,102.5c0,0.2,0,0.4,0,0.6L183,102.5L183,102.5z"/>
		<path fill="#FFFFFF" d="M75.1,98C75.1,98,75.1,98,75.1,98C75.1,98,75.1,98,75.1,98z"/>
		<path fill="#FFFFFF" d="M75.9,97.2C75.9,97.1,75.9,97.1,75.9,97.2C75.9,97.1,75.9,97.1,75.9,97.2z"/>
		<path fill="#FFFFFF" d="M77.8,95.5C77.8,95.5,77.8,95.5,77.8,95.5C77.8,95.5,77.8,95.5,77.8,95.5z"/>
		<path fill="#FFFFFF" d="M109.3,85.6c0.4,0,0.8-0.1,1.2-0.1C110.1,85.5,109.7,85.5,109.3,85.6z"/>
		<path fill="#FFFFFF" d="M106.8,85.9c0.4-0.1,0.7-0.1,1.1-0.1C107.5,85.8,107.2,85.8,106.8,85.9z"/>
		<path fill="#FFFFFF" d="M111.8,85.3c0.4,0,0.8-0.1,1.3-0.1C112.6,85.2,112.2,85.2,111.8,85.3z"/>
		<path fill="#FFFFFF" d="M89.5,89.8c0.1,0,0.3-0.1,0.4-0.1C89.8,89.7,89.7,89.7,89.5,89.8z"/>
		<path fill="#FFFFFF" d="M117,84.8c0.5,0,1-0.1,1.5-0.1C118,84.8,117.5,84.8,117,84.8z"/>
		<path fill="#FFFFFF" d="M104.4,86.3c0.3-0.1,0.7-0.1,1-0.2C105.1,86.2,104.7,86.2,104.4,86.3z"/>
		<path fill="#FFFFFF" d="M114.4,85c0.4,0,0.9-0.1,1.4-0.1C115.3,85,114.8,85,114.4,85z"/>
		<path fill="#FFFFFF" d="M93.4,88.6c0.2-0.1,0.4-0.1,0.6-0.2C93.8,88.5,93.6,88.6,93.4,88.6z"/>
		<path fill="#FFFFFF" d="M91.4,89.2c0.2-0.1,0.3-0.1,0.5-0.2C91.8,89.1,91.6,89.1,91.4,89.2z"/>
		<path fill="#FFFFFF" d="M95.4,88.1c0.2-0.1,0.5-0.1,0.7-0.2C95.9,88,95.7,88,95.4,88.1z"/>
		<path fill="#FFFFFF" d="M97.6,87.6c0.3-0.1,0.5-0.1,0.8-0.2C98.1,87.5,97.8,87.5,97.6,87.6z"/>
		<path fill="#FFFFFF" d="M99.8,87.1c0.3-0.1,0.6-0.1,0.9-0.2C100.3,87,100.1,87,99.8,87.1z"/>
		<path fill="#FFFFFF" d="M102.1,86.7c0.3-0.1,0.6-0.1,0.9-0.2C102.7,86.6,102.4,86.6,102.1,86.7z"/>
	</g>
	<g>
		<path fill="#FFFFFF" d="M150.6,105.6c0.3,0.1,0.7,0.1,1,0.2C151.3,105.7,150.9,105.7,150.6,105.6z"/>
		<path fill="#FFFFFF" d="M148.1,105.3c0.4,0,0.7,0.1,1.1,0.1C148.8,105.4,148.5,105.3,148.1,105.3z"/>
		<path fill="#FFFFFF" d="M153,106c0.3,0.1,0.6,0.1,0.9,0.2C153.6,106.1,153.3,106.1,153,106z"/>
		<path fill="#FFFFFF" d="M155.4,106.5c0.3,0.1,0.6,0.1,0.8,0.2C155.9,106.6,155.7,106.5,155.4,106.5z"/>
		<path fill="#FFFFFF" d="M145.5,105c0.4,0,0.8,0.1,1.2,0.1C146.3,105.1,145.9,105,145.5,105z"/>
		<path fill="#FFFFFF" d="M159.9,107.5c0.2,0.1,0.4,0.1,0.7,0.2C160.3,107.6,160.1,107.5,159.9,107.5z"/>
		<path fill="#FFFFFF" d="M157.7,106.9c0.2,0.1,0.5,0.1,0.7,0.2C158.2,107.1,157.9,107,157.7,106.9z"/>
		<path fill="#FFFFFF" d="M74.4,118.4C74.4,118.4,74.4,118.4,74.4,118.4C74.4,118.4,74.4,118.4,74.4,118.4z"/>
		<path fill="#FFFFFF" d="M131.7,104c0.6,0,1.3,0,1.9,0C133,104.1,132.3,104.1,131.7,104z"/>
		<path fill="#FFFFFF" d="M162,108c0.2,0.1,0.4,0.1,0.6,0.2C162.4,108.1,162.2,108.1,162,108z"/>
		<path fill="#FFFFFF" d="M142.9,104.7c0.4,0,0.8,0.1,1.2,0.1C143.8,104.8,143.4,104.7,142.9,104.7z"/>
		<path fill="#FFFFFF" d="M122.4,104.1c0.6,0,1.2,0,1.9,0C123.7,104.1,123,104.1,122.4,104.1z"/>
		<path fill="#FFFFFF" d="M137.5,104.3c0.5,0,1,0.1,1.5,0.1C138.5,104.3,138,104.3,137.5,104.3z"/>
		<path fill="#FFFFFF" d="M140.3,104.5c0.5,0,0.9,0.1,1.4,0.1C141.2,104.5,140.7,104.5,140.3,104.5z"/>
		<path fill="#FFFFFF" d="M174.4,112.6c0,0,0.1,0,0.1,0.1C174.5,112.7,174.4,112.7,174.4,112.6z"/>
		<path fill="#FFFFFF" d="M179.2,115.8C179.2,115.8,179.2,115.8,179.2,115.8C179.2,115.8,179.2,115.8,179.2,115.8z"/>
		<path fill="#FFFFFF" d="M175.8,113.4C175.8,113.4,175.8,113.4,175.8,113.4C175.8,113.4,175.8,113.4,175.8,113.4z"/>
		<path fill="#FFFFFF" d="M177,114.2C177.1,114.2,177.1,114.2,177,114.2C177.1,114.2,177.1,114.2,177,114.2z"/>
		<path fill="#FFFFFF" d="M164.1,108.6c0.2,0,0.3,0.1,0.5,0.1C164.4,108.7,164.2,108.6,164.1,108.6z"/>
		<path fill="#FFFFFF" d="M180.1,116.7C180.1,116.7,180.1,116.7,180.1,116.7C180.1,116.7,180.1,116.7,180.1,116.7z"/>
		<path fill="#FFFFFF" d="M128,104c-0.9,0-1.9,0-2.8,0C126.1,104,127.1,104,128,104z"/>
		<path fill="#FFFFFF" d="M178.2,115C178.2,115,178.2,115,178.2,115C178.2,115,178.2,115,178.2,115z"/>
		<path fill="#FFFFFF" d="M169.7,110.5c0.1,0,0.2,0.1,0.3,0.1C169.9,110.6,169.8,110.5,169.7,110.5z"/>
		<path fill="#FFFFFF" d="M128,104c0.9,0,1.9,0,2.8,0C129.9,104,128.9,104,128,104z"/>
		<path fill="#FFFFFF" d="M166,109.2c0.1,0,0.3,0.1,0.4,0.1C166.3,109.3,166.2,109.2,166,109.2z"/>
		<path fill="#FFFFFF" d="M167.9,109.8c0.1,0,0.2,0.1,0.3,0.1C168.1,109.9,168,109.9,167.9,109.8z"/>
		<path fill="#FFFFFF" d="M171.4,111.2c0.1,0,0.2,0.1,0.2,0.1C171.5,111.2,171.4,111.2,171.4,111.2z"/>
		<path fill="#FFFFFF" d="M172.9,111.9c0.1,0,0.1,0.1,0.2,0.1C173.1,112,173,111.9,172.9,111.9z"/>
		<path fill="#FFFFFF" d="M134.7,104.1c0.5,0,1.1,0,1.6,0.1C135.8,104.2,135.2,104.2,134.7,104.1z"/>
		<path fill="#FFFFFF" d="M81.5,112.7c0.1,0,0.1-0.1,0.2-0.1C81.6,112.7,81.5,112.7,81.5,112.7z"/>
		<path fill="#FFFFFF" d="M80.1,113.5c0,0,0.1,0,0.1-0.1C80.2,113.4,80.2,113.4,80.1,113.5z"/>
		<path fill="#FFFFFF" d="M78.9,114.2C78.9,114.2,79,114.2,78.9,114.2C79,114.2,78.9,114.2,78.9,114.2z"/>
		<path fill="#FFFFFF" d="M82.9,112c0.1,0,0.1-0.1,0.2-0.1C83,111.9,82.9,112,82.9,112z"/>
		<path fill="#FFFFFF" d="M86,110.6c0.1,0,0.2-0.1,0.3-0.1C86.2,110.5,86.1,110.6,86,110.6z"/>
		<path fill="#FFFFFF" d="M84.4,111.3c0.1,0,0.2-0.1,0.3-0.1C84.6,111.2,84.5,111.2,84.4,111.3z"/>
		<path fill="#FFFFFF" d="M119.7,104.2c0.5,0,1.1,0,1.6-0.1C120.8,104.2,120.2,104.2,119.7,104.2z"/>
		<path fill="#FFFFFF" d="M128,141.3c-30.4,0-55-8.3-55-18.6v16.8c0,10.3,24.6,18.6,55,18.6c30.4,0,55-8.3,55-18.6h0v-16.8
			C183,132.9,158.4,141.3,128,141.3z"/>
		<path fill="#FFFFFF" d="M73,122.1v0.6C73,122.5,73,122.3,73,122.1L73,122.1z"/>
		<path fill="#FFFFFF" d="M87.7,109.9c0.1,0,0.3-0.1,0.4-0.1C88,109.9,87.9,109.9,87.7,109.9z"/>
		<path fill="#FFFFFF" d="M76.8,115.9C76.8,115.8,76.8,115.8,76.8,115.9C76.8,115.8,76.8,115.8,76.8,115.9z"/>
		<path fill="#FFFFFF" d="M183,122.1c0,0.2,0,0.4,0,0.6L183,122.1L183,122.1z"/>
		<path fill="#FFFFFF" d="M75.1,117.6C75.1,117.5,75.1,117.5,75.1,117.6C75.1,117.5,75.1,117.5,75.1,117.6z"/>
		<path fill="#FFFFFF" d="M75.9,116.7C75.9,116.7,75.9,116.7,75.9,116.7C75.9,116.7,75.9,116.7,75.9,116.7z"/>
		<path fill="#FFFFFF" d="M77.8,115C77.8,115,77.8,115,77.8,115C77.8,115,77.8,115,77.8,115z"/>
		<path fill="#FFFFFF" d="M109.3,105.1c0.4,0,0.8-0.1,1.2-0.1C110.1,105,109.7,105.1,109.3,105.1z"/>
		<path fill="#FFFFFF" d="M106.8,105.4c0.4-0.1,0.7-0.1,1.1-0.1C107.5,105.3,107.2,105.4,106.8,105.4z"/>
		<path fill="#FFFFFF" d="M111.8,104.8c0.4,0,0.8-0.1,1.3-0.1C112.6,104.7,112.2,104.8,111.8,104.8z"/>
		<path fill="#FFFFFF" d="M89.5,109.3c0.1,0,0.3-0.1,0.4-0.1C89.8,109.2,89.7,109.3,89.5,109.3z"/>
		<path fill="#FFFFFF" d="M117,104.4c0.5,0,1-0.1,1.5-0.1C118,104.3,117.5,104.3,117,104.4z"/>
		<path fill="#FFFFFF" d="M104.4,105.8c0.3-0.1,0.7-0.1,1-0.2C105.1,105.7,104.7,105.7,104.4,105.8z"/>
		<path fill="#FFFFFF" d="M114.4,104.6c0.4,0,0.9-0.1,1.4-0.1C115.3,104.5,114.8,104.5,114.4,104.6z"/>
		<path fill="#FFFFFF" d="M93.4,108.2c0.2-0.1,0.4-0.1,0.6-0.2C93.8,108,93.6,108.1,93.4,108.2z"/>
		<path fill="#FFFFFF" d="M91.4,108.7c0.2-0.1,0.3-0.1,0.5-0.2C91.8,108.6,91.6,108.7,91.4,108.7z"/>
		<path fill="#FFFFFF" d="M95.4,107.6c0.2-0.1,0.5-0.1,0.7-0.2C95.9,107.5,95.7,107.6,95.4,107.6z"/>
		<path fill="#FFFFFF" d="M97.6,107.1c0.3-0.1,0.5-0.1,0.8-0.2C98.1,107,97.8,107.1,97.6,107.1z"/>
		<path fill="#FFFFFF" d="M99.8,106.6c0.3-0.1,0.6-0.1,0.9-0.2C100.3,106.5,100.1,106.6,99.8,106.6z"/>
		<path fill="#FFFFFF" d="M102.1,106.2c0.3-0.1,0.6-0.1,0.9-0.2C102.7,106.1,102.4,106.1,102.1,106.2z"/>
	</g>
	<ellipse fill="#FFFFFF" cx="128" cy="80.6" rx="55" ry="18.6"/>
</g>
</svg>
