<?xml version="1.0" encoding="utf-8"?>
<!-- Generator: Adobe Illustrator 16.0.0, SVG Export Plug-In . SVG Version: 6.00 Build 0)  -->
<!DOCTYPE svg PUBLIC "-//W3C//DTD SVG 1.1//EN" "http://www.w3.org/Graphics/SVG/1.1/DTD/svg11.dtd">
<svg version="1.1" id="图层_1" xmlns="http://www.w3.org/2000/svg" xmlns:xlink="http://www.w3.org/1999/xlink" x="0px" y="0px"
	 width="256px" height="256px" viewBox="0 0 256 256" enable-background="new 0 0 256 256" xml:space="preserve">
<g id="surface1">
	<polygon opacity="0.08" enable-background="new    " points="34.5,256 34.5,4 225.5,4 225.5,185.031 154.531,256 	"/>
	<polygon opacity="0.1" enable-background="new    " points="36.5,254 36.5,6 223.5,6 223.5,184.203 153.703,254 	"/>
	<polygon opacity="0.2" enable-background="new    " points="34.5,252 34.5,4 221.5,4 221.5,182.203 151.703,252 	"/>
	<g>
		
			<linearGradient id="SVGID_1_" gradientUnits="userSpaceOnUse" x1="336.001" y1="-1711.9512" x2="336.001" y2="-1467.9512" gradientTransform="matrix(1 0 0 -1 -208.0005 -1461.9512)">
			<stop  offset="0" style="stop-color:#512DA8"/>
			<stop  offset="0.008" style="stop-color:#D32F2F"/>
			<stop  offset="0.3041" style="stop-color:#E33932"/>
			<stop  offset="0.6579" style="stop-color:#F04035"/>
			<stop  offset="1" style="stop-color:#F44336"/>
		</linearGradient>
		<path fill="url(#SVGID_1_)" d="M150.875,250l68.625-68.625V6h-183v244H150.875z"/>
		<polygon fill="#B71C1C" fill-opacity="0.3922" points="147.063,177.563 147.063,250 150.875,250 219.5,181.375 219.5,177.563 		
			"/>
		<path fill="#FFFFFF" fill-opacity="0.3922" d="M150.875,181.375h68.566L150.875,250V181.375z"/>
		<g opacity="0.8">
			<path fill="#FFFFFF" d="M94.193,107.859c3.932,0.177,8.251,2.683,11.468,4.828c9.412,6.252,16.949,16.646,15.458,28.559
				c1.401-2.26,1.491-5.571,1.491-8.192c0-8.366-4.499-16.973-10.188-22.811c-1.875-1.968-3.87-4.199-6.343-5.39l28.026-33.183
				l6.734-7.952c0.505-0.626,2.23-2.025,1.844-2.948c-0.328-0.834-1.935-1.372-2.711-1.729c-0.863-0.386-2.412-1.22-3.394-0.863
				c-0.953,0.357-1.787,1.758-2.44,2.531l-5.156,6.019L104.739,95.17l-7.179,8.399C96.428,104.909,94.938,106.253,94.193,107.859z"
				/>
			<path fill="#FFFFFF" d="M78.318,117.567c9.622-10.246,18.138-21.682,27.374-32.316l11.645-13.79
				c2.681-3.067,5.869-6.195,8.013-9.681c-1.401-0.415-4.589-0.684-5.928,0c-1.43,0.715-2.621,2.683-3.665,3.874l-6.641,7.535
				c-0.953,1.163-2.114,2.95-3.455,3.665c-1.966,0.982-5.511,0.596-7.656,0.653l-7.833,0.626c-5.838,0.417-12.51,0.417-15.4,6.703
				c-2.321,5.004-1.964,12.181-2.202,17.633c-0.477,11.438-0.865,23.052,0.208,34.463c0.446,4.913-0.088,11.133,2.414,15.513
				c2.44,4.289,7.148,5.218,11.585,5.628c8.607,0.806,18.915,0.567,25.854-5.48c8.25-7.173,7.089-19.982-0.417-27.038
				C104.024,117.805,88.981,113.906,78.318,117.567z"/>
			<path fill="#FFFFFF" d="M107.329,159.116c1.58,0.69,4.229,0.452,5.957,0.452l10.811,0.205c13.701,0,27.226-0.862,40.894-1.487
				c6.495-0.296,13.82-0.534,16.503-7.772c1.729-4.594,1.401-10.46,1.729-15.283c0.772-11.197,1.068-22.667,0.029-33.834
				c-0.506-5.213,0.119-11.737-2.145-16.561c-3.488-7.506-14.059-6.941-20.998-7.12c-1.729-0.06-4.918-1.072-6.495-0.298
				c-1.191,0.565-1.906,3.663-2.474,4.825l-6.133,13.553c-7.268,16.051-14.059,32.493-21.922,48.25
				C120.018,150.152,114.508,157.867,107.329,159.116z"/>
		</g>
		<g>
			<path fill="#B71C1C" d="M217.5,8v172.547L150.047,248H97.5h-59V8H217.5 M219.5,6h-183v244h61h53.375l68.625-68.625V6L219.5,6z"/>
		</g>
	</g>
</g>
</svg>
