<?xml version="1.0" encoding="utf-8"?>
<!-- Generator: Adobe Illustrator 16.0.0, SVG Export Plug-In . SVG Version: 6.00 Build 0)  -->
<!DOCTYPE svg PUBLIC "-//W3C//DTD SVG 1.1//EN" "http://www.w3.org/Graphics/SVG/1.1/DTD/svg11.dtd">
<svg version="1.1" id="图层_1" xmlns="http://www.w3.org/2000/svg" xmlns:xlink="http://www.w3.org/1999/xlink" x="0px" y="0px"
	 width="256px" height="256px" viewBox="0 0 256 256" enable-background="new 0 0 256 256" xml:space="preserve">
<g id="surface1">
	<polygon opacity="0.08" enable-background="new    " points="34.5,256 34.5,4 225.5,4 225.5,185.031 154.531,256 	"/>
	<polygon opacity="0.1" enable-background="new    " points="36.5,254 36.5,6 223.5,6 223.5,184.203 153.703,254 	"/>
	<polygon opacity="0.2" enable-background="new    " points="34.5,252 34.5,4 221.5,4 221.5,182.203 151.703,252 	"/>
	<g>
		
			<linearGradient id="SVGID_1_" gradientUnits="userSpaceOnUse" x1="294.4004" y1="1803.9609" x2="294.4004" y2="1559.9609" gradientTransform="matrix(1 0 0 1 -166.4004 -1553.9609)">
			<stop  offset="0" style="stop-color:#512DA8"/>
			<stop  offset="0.008" style="stop-color:#D32F2F"/>
			<stop  offset="0.3041" style="stop-color:#E33932"/>
			<stop  offset="0.6579" style="stop-color:#F04035"/>
			<stop  offset="1" style="stop-color:#F44336"/>
		</linearGradient>
		<path fill="url(#SVGID_1_)" d="M150.875,250l68.625-68.625V6h-183v244H150.875z"/>
		<polygon fill="#B71C1C" fill-opacity="0.3922" points="147.063,177.563 147.063,250 150.875,250 219.5,181.375 219.5,177.563 		
			"/>
		<path fill="#FFFFFF" fill-opacity="0.3922" d="M150.875,181.375h68.567L150.875,250V181.375z"/>
		<g opacity="0.8">
			<path fill="#FFFFFF" d="M121.41,58.165c0,0,3.515,32.377-21.297,75.151c-24.81,42.742-32.106,36.991-34.699,35.528
				c-2.621-1.487-5.986-6.311,5.033-15.932c10.992-9.622,15.281-9.441,15.281-9.441s-10.067,6.105-13.97,12.029
				c-3.932,5.933-7.087,9.622-6.165,11.29s12.183-6.82,16.83-14.026c7.416-11.47,21.415-32.794,27.937-53.139
				C116.883,79.253,121.41,58.165,121.41,58.165z"/>
			<path fill="#FFFFFF" d="M182.559,133.103c0,0-0.567,1.495-7.087,0.953c-6.524-0.559-31.901-8.515-45.512-24.808
				c-13.613-16.293-14.745-38.692-15.669-50.337c-0.953-11.645,4.231-8.399,4.975-6.941c1.163,0.984,1.728,4.17,1.728,4.17
				s-0.417-4.766-2.471-6.82c-2.056-2.025-3.874-2.054-5.928,1.458c-2.054,3.517-2.979,13.315-1.311,22.756
				c1.697,9.443,8.607,31.096,17.185,41.075c8.579,10.008,25.735,18.708,38.425,21.295c12.687,2.597,15.665-2.769,15.665-2.769
				V133.103z"/>
			<path fill="#FFFFFF" d="M99.905,137.367c0,0,24.631-7.956,47.954-10.158c23.323-2.235,31.363,0.177,33.389,1.845
				c2.058,1.666,2.058,3.515,2.058,3.515s2.621-2.59,0.892-5.211c-1.458-2.74-3.693-4.975-22.16-4.408
				c-18.467,0.538-19.777,1.282-36.755,4.437C108.305,130.547,99.905,137.367,99.905,137.367z"/>
		</g>
		<g>
			<path fill="#B71C1C" d="M217.5,8v172.547L150.047,248H97.5h-59V8H217.5 M219.5,6h-183v244h61h53.375l68.625-68.625V6L219.5,6z"/>
		</g>
	</g>
</g>
</svg>
