<?xml version="1.0" encoding="utf-8"?>
<!-- Generator: Adobe Illustrator 16.0.0, SVG Export Plug-In . SVG Version: 6.00 Build 0)  -->
<!DOCTYPE svg PUBLIC "-//W3C//DTD SVG 1.1//EN" "http://www.w3.org/Graphics/SVG/1.1/DTD/svg11.dtd">
<svg version="1.1" id="图层_1" xmlns="http://www.w3.org/2000/svg" xmlns:xlink="http://www.w3.org/1999/xlink" x="0px" y="0px"
	 width="256px" height="256px" viewBox="0 0 256 256" enable-background="new 0 0 256 256" xml:space="preserve">
<polygon opacity="0.08" enable-background="new    " points="34.1,256 34.1,4 225.9,4 225.9,185 154.9,256 "/>
<polygon opacity="0.1" enable-background="new    " points="36.1,254 36.1,6 223.9,6 223.9,184.2 154,254 "/>
<polygon opacity="0.2" enable-background="new    " points="34.1,252 34.1,4 221.9,4 221.9,182.2 152,252 "/>
<polygon fill="#3E2723" points="36.1,250 36.1,6 219.9,6 219.9,181.3 151.2,250 "/>
<g>
	<g>
		
			<linearGradient id="SVGID_1_" gradientUnits="userSpaceOnUse" x1="169.6074" y1="84.0996" x2="169.6074" y2="-155.9009" gradientTransform="matrix(1 0 0 -1 -41.6001 92.0996)">
			<stop  offset="0" style="stop-color:#785548"/>
			<stop  offset="1" style="stop-color:#9F9E9F"/>
		</linearGradient>
		<polygon fill="url(#SVGID_1_)" points="38.102,248 38.102,8 217.914,8 217.914,180.406 151.07,248 		"/>
		<polygon fill="#795548" fill-opacity="0.7" points="217.914,180.5 217.914,177.594 146.727,177.594 146.727,248 150.414,248 		"/>
		<path opacity="0.39" fill="#FFFFFF" enable-background="new    " d="M150.32,180.5l67.594,0.094L150.414,248L150.32,180.5z"/>
	</g>
	<path fill="#FFFFFF" d="M102.352,54.266h-6.094v77.938h-4.594V54.266h-6.063v77.938h-4.594V54.266h-6.063v77.938h-4.594V54.266
		h-6.063v77.938h-1.594v33.016h41.719v-33.016h-2.063V54.266z M98.352,155.625H68.758v-19.141h29.594V155.625z"/>
	<g>
		<rect x="38.055" y="8" opacity="0.8" fill="#FFFFFF" enable-background="new    " width="179.891" height="46"/>
		<g enable-background="new    ">
			<path fill="#5D4037" d="M82.664,49.398c-2.063,0-4.125-0.063-6.172-0.188c-2.063-0.117-4.188-0.398-6.406-0.852V13.594
				c1.75-0.305,3.656-0.539,5.719-0.695s4-0.234,5.766-0.234c2.406,0,4.609,0.164,6.625,0.492s3.75,0.891,5.203,1.68
				c1.438,0.797,2.578,1.836,3.391,3.133c0.828,1.297,1.234,2.891,1.234,4.781c0,2.867-1.453,5.125-4.359,6.781
				c2.391,0.859,4.031,2.031,4.906,3.516c0.859,1.484,1.297,3.156,1.297,5.016c0,3.766-1.438,6.594-4.328,8.484
				C92.664,48.445,88.367,49.398,82.664,49.398z M78.367,27.148h4.141c2.609,0,4.484-0.313,5.609-0.953s1.688-1.664,1.688-3.078
				c0-1.453-0.594-2.469-1.75-3.055s-2.859-0.875-5.125-0.875c-0.719,0-1.5,0.008-2.328,0.023c-0.844,0.016-1.578,0.063-2.234,0.125
				V27.148z M78.367,33.305v9.266c0.609,0.063,1.281,0.117,2.016,0.148c0.719,0.039,1.516,0.055,2.391,0.055
				c2.547,0,4.594-0.344,6.156-1.031c1.563-0.695,2.344-1.969,2.344-3.828c0-1.656-0.656-2.836-1.969-3.547
				c-1.297-0.703-3.172-1.063-5.609-1.063H78.367z"/>
			<path fill="#5D4037" d="M133.305,18.664c-1.156,1.141-2.531,2.617-4.125,4.43c-1.609,1.805-3.25,3.781-4.969,5.922
				c-1.703,2.133-3.391,4.344-5.063,6.617c-1.672,2.281-3.156,4.453-4.469,6.523h19.234v6.773h-29.672v-4.813
				c1-1.758,2.25-3.711,3.719-5.867s3-4.328,4.594-6.523c1.609-2.188,3.234-4.305,4.875-6.359c1.656-2.055,3.188-3.891,4.609-5.508
				h-16.938v-6.781h28.203V18.664z"/>
			<path fill="#5D4037" d="M139.898,13.078h8.5V48.93h-8.5V13.078z"/>
			<path fill="#5D4037" d="M168.43,12.664c5.625,0,9.938,0.945,12.969,2.82c3,1.883,4.516,4.961,4.516,9.234
				c0,4.313-1.516,7.422-4.578,9.336c-3.047,1.914-7.406,2.875-13.063,2.875h-2.672v12h-8.484V13.594
				c1.844-0.344,3.797-0.586,5.875-0.719C165.055,12.734,166.867,12.664,168.43,12.664z M168.977,19.547
				c-0.609,0-1.234,0.016-1.828,0.055c-0.594,0.031-1.109,0.063-1.547,0.102v10.344h2.672c2.938,0,5.156-0.375,6.641-1.141
				c1.484-0.758,2.234-2.172,2.234-4.242c0-1-0.188-1.82-0.578-2.477c-0.375-0.656-0.922-1.188-1.641-1.578
				c-0.688-0.398-1.563-0.672-2.578-0.828S170.211,19.547,168.977,19.547z"/>
		</g>
	</g>
</g>
</svg>
