<?xml version="1.0" encoding="utf-8"?>
<!-- Generator: Adobe Illustrator 16.0.0, SVG Export Plug-In . SVG Version: 6.00 Build 0)  -->
<!DOCTYPE svg PUBLIC "-//W3C//DTD SVG 1.1//EN" "http://www.w3.org/Graphics/SVG/1.1/DTD/svg11.dtd">
<svg version="1.1" id="图层_1" xmlns="http://www.w3.org/2000/svg" xmlns:xlink="http://www.w3.org/1999/xlink" x="0px" y="0px"
	 width="256px" height="256px" viewBox="0 0 256 256" enable-background="new 0 0 256 256" xml:space="preserve">
<polygon opacity="0.08" enable-background="new    " points="34.1,256 34.1,4 225.9,4 225.9,185 154.9,256 "/>
<polygon opacity="0.1" enable-background="new    " points="36.1,254 36.1,6 223.9,6 223.9,184.2 154,254 "/>
<polygon opacity="0.2" enable-background="new    " points="34.1,252 34.1,4 221.9,4 221.9,182.2 152,252 "/>
<polygon fill="#3E2723" points="36.1,250 36.1,6 219.9,6 219.9,181.3 151.2,250 "/>
<g>
	<g>
		
			<linearGradient id="SVGID_1_" gradientUnits="userSpaceOnUse" x1="169.6074" y1="84.0996" x2="169.6074" y2="-155.9009" gradientTransform="matrix(1 0 0 -1 -41.6001 92.0996)">
			<stop  offset="0" style="stop-color:#785548"/>
			<stop  offset="1" style="stop-color:#9F9E9F"/>
		</linearGradient>
		<polygon fill="url(#SVGID_1_)" points="38.102,248 38.102,8 217.914,8 217.914,180.406 151.07,248 		"/>
		<polygon fill="#795548" fill-opacity="0.7" points="217.914,180.5 217.914,177.594 146.727,177.594 146.727,248 150.414,248 		"/>
		<path opacity="0.39" fill="#FFFFFF" enable-background="new    " d="M150.32,180.5l67.594,0.094L150.414,248L150.32,180.5z"/>
	</g>
	<path fill="#FFFFFF" d="M102.352,54.266h-6.094v77.938h-4.594V54.266h-6.063v77.938h-4.594V54.266h-6.063v77.938h-4.594V54.266
		h-6.063v77.938h-1.594v33.016h41.719v-33.016h-2.063V54.266z M98.352,155.625H68.758v-19.141h29.594V155.625z"/>
	<g>
		<rect x="38.055" y="8" opacity="0.8" fill="#FFFFFF" enable-background="new    " width="179.891" height="46"/>
		<g enable-background="new    ">
			<path fill="#5D4037" d="M103.305,48.938c0.219-2.531,0.688-5.156,1.375-7.875s1.531-5.391,2.531-8.016
				c1-2.617,2.109-5.094,3.344-7.422s2.484-4.336,3.75-6.023H97.914v-6.57h26.422v5.586c-1.172,1.203-2.438,2.875-3.844,5.016
				s-2.719,4.563-3.969,7.266c-1.25,2.711-2.344,5.617-3.281,8.719c-0.922,3.102-1.5,6.211-1.719,9.32H103.305z"/>
			<path fill="#5D4037" d="M157.492,18.664c-1.156,1.141-2.547,2.617-4.141,4.43c-1.609,1.805-3.25,3.781-4.953,5.922
				c-1.719,2.133-3.406,4.344-5.063,6.617c-1.688,2.281-3.172,4.461-4.469,6.523h19.219v6.781h-29.672v-4.813
				c1.016-1.766,2.266-3.719,3.734-5.875s3-4.328,4.594-6.523c1.594-2.188,3.219-4.305,4.875-6.359s3.188-3.891,4.594-5.508h-16.938
				v-6.781h28.219V18.664z"/>
		</g>
	</g>
</g>
</svg>
