<?xml version="1.0" encoding="utf-8"?>
<!-- Generator: Adobe Illustrator 16.0.0, SVG Export Plug-In . SVG Version: 6.00 Build 0)  -->
<!DOCTYPE svg PUBLIC "-//W3C//DTD SVG 1.1//EN" "http://www.w3.org/Graphics/SVG/1.1/DTD/svg11.dtd">
<svg version="1.1" id="图层_1" xmlns="http://www.w3.org/2000/svg" xmlns:xlink="http://www.w3.org/1999/xlink" x="0px" y="0px"
	 width="256px" height="256px" viewBox="0 0 256 256" enable-background="new 0 0 256 256" xml:space="preserve">
<polygon opacity="0.08" enable-background="new    " points="34.1,256 34.1,4 225.9,4 225.9,185 154.9,256 "/>
<polygon opacity="0.1" enable-background="new    " points="36.1,254 36.1,6 223.9,6 223.9,184.2 154,254 "/>
<polygon opacity="0.2" enable-background="new    " points="34.1,252 34.1,4 221.9,4 221.9,182.2 152,252 "/>
<polygon fill="#3E2723" points="36.1,250 36.1,6 219.9,6 219.9,181.3 151.2,250 "/>
<g>
	<g>
		
			<linearGradient id="SVGID_1_" gradientUnits="userSpaceOnUse" x1="169.6074" y1="84.0996" x2="169.6074" y2="-155.9009" gradientTransform="matrix(1 0 0 -1 -41.6001 92.0996)">
			<stop  offset="0" style="stop-color:#785548"/>
			<stop  offset="1" style="stop-color:#9F9E9F"/>
		</linearGradient>
		<polygon fill="url(#SVGID_1_)" points="38.102,248 38.102,8 217.914,8 217.914,180.406 151.07,248 		"/>
		<polygon fill="#795548" fill-opacity="0.7" points="217.914,180.5 217.914,177.594 146.727,177.594 146.727,248 150.414,248 		"/>
		<path opacity="0.39" fill="#FFFFFF" enable-background="new    " d="M150.32,180.5l67.594,0.094L150.414,248L150.32,180.5z"/>
	</g>
	<path fill="#FFFFFF" d="M102.352,54.266h-6.094v77.938h-4.594V54.266h-6.063v77.938h-4.594V54.266h-6.063v77.938h-4.594V54.266
		h-6.063v77.938h-1.594v33.016h41.719v-33.016h-2.063V54.266z M98.352,155.625H68.758v-19.141h29.594V155.625z"/>
	<g>
		<rect x="38.055" y="8" opacity="0.8" fill="#FFFFFF" enable-background="new    " width="179.891" height="46"/>
		<g enable-background="new    ">
			<path fill="#5D4037" d="M84.273,49.656c-6.125,0-10.797-1.625-14.016-4.867s-4.828-7.844-4.828-13.813
				c0-2.961,0.5-5.609,1.484-7.938c0.969-2.328,2.313-4.297,4.016-5.898c1.719-1.602,3.75-2.82,6.109-3.648s4.922-1.242,7.672-1.242
				c1.594,0,3.047,0.117,4.359,0.336c1.313,0.227,2.453,0.484,3.438,0.781c0.969,0.289,1.797,0.594,2.438,0.906
				c0.656,0.305,1.125,0.547,1.422,0.719l-2.453,6.523c-1.156-0.586-2.516-1.086-4.063-1.5c-1.531-0.414-3.281-0.625-5.25-0.625
				c-1.297,0-2.578,0.211-3.828,0.625c-1.266,0.414-2.375,1.078-3.328,1.984c-0.969,0.914-1.734,2.102-2.313,3.547
				s-0.875,3.211-0.875,5.273c0,1.656,0.188,3.203,0.578,4.633c0.375,1.43,1,2.664,1.844,3.703c0.859,1.031,1.969,1.852,3.344,2.453
				c1.391,0.602,3.063,0.906,5.016,0.906c1.234,0,2.344-0.07,3.328-0.211c0.969-0.133,1.844-0.297,2.609-0.484
				c0.766-0.195,1.438-0.406,2.016-0.648s1.109-0.469,1.578-0.672l2.344,6.461c-1.203,0.695-2.891,1.313-5.063,1.867
				C89.664,49.375,87.148,49.656,84.273,49.656z"/>
			<path fill="#5D4037" d="M113.68,12.664c5.641,0,9.953,0.945,12.953,2.82c3.031,1.883,4.531,4.961,4.531,9.234
				c0,4.313-1.531,7.422-4.578,9.336s-7.406,2.875-13.078,2.875h-2.656v12h-8.5V13.594c1.859-0.344,3.813-0.586,5.875-0.719
				C110.305,12.734,112.117,12.664,113.68,12.664z M114.227,19.547c-0.625,0-1.219,0.016-1.813,0.055
				c-0.609,0.031-1.125,0.063-1.563,0.102v10.344h2.656c2.953,0,5.156-0.375,6.656-1.141c1.484-0.758,2.234-2.172,2.234-4.242
				c0-1-0.203-1.82-0.578-2.477s-0.922-1.188-1.625-1.578c-0.719-0.398-1.578-0.672-2.594-0.828S115.461,19.547,114.227,19.547z"/>
			<path fill="#5D4037" d="M137.43,13.078h8.484V48.93h-8.484V13.078z"/>
			<path fill="#5D4037" d="M190.57,30.977c0,3.07-0.484,5.773-1.438,8.102c-0.969,2.328-2.281,4.273-3.953,5.844
				s-3.656,2.75-5.969,3.539c-2.297,0.797-4.781,1.195-7.422,1.195c-2.594,0-5.016-0.398-7.313-1.195
				c-2.281-0.789-4.281-1.969-5.984-3.539s-3.047-3.516-4.016-5.844c-1-2.328-1.484-5.031-1.484-8.102s0.516-5.766,1.531-8.094
				s2.391-4.281,4.109-5.875c1.719-1.586,3.719-2.773,6-3.563c2.25-0.797,4.641-1.195,7.156-1.195c2.563,0,5,0.398,7.281,1.195
				c2.297,0.789,4.281,1.977,6,3.563c1.703,1.594,3.047,3.547,4.031,5.875C190.07,25.211,190.57,27.906,190.57,30.977z
				 M161.758,30.977c0,1.758,0.234,3.352,0.688,4.758c0.453,1.422,1.094,2.633,1.969,3.648c0.844,1.023,1.875,1.805,3.125,2.359
				c1.219,0.547,2.656,0.828,4.25,0.828c1.563,0,2.969-0.281,4.219-0.828c1.25-0.555,2.297-1.336,3.156-2.359
				c0.844-1.016,1.5-2.227,1.953-3.648c0.453-1.406,0.688-3,0.688-4.758s-0.234-3.352-0.688-4.781s-1.109-2.656-1.953-3.672
				c-0.859-1.016-1.906-1.805-3.156-2.359c-1.25-0.547-2.656-0.828-4.219-0.828c-1.594,0-3.031,0.289-4.25,0.859
				c-1.25,0.57-2.281,1.359-3.125,2.375c-0.875,1.023-1.516,2.242-1.969,3.672C161.992,27.68,161.758,29.258,161.758,30.977z"/>
		</g>
	</g>
</g>
</svg>
