<?xml version="1.0" encoding="utf-8"?>
<!-- Generator: Adobe Illustrator 17.1.0, SVG Export Plug-In . SVG Version: 6.00 Build 0)  -->
<!DOCTYPE svg PUBLIC "-//W3C//DTD SVG 1.1//EN" "http://www.w3.org/Graphics/SVG/1.1/DTD/svg11.dtd">
<svg version="1.1" id="图层_1" xmlns="http://www.w3.org/2000/svg" xmlns:xlink="http://www.w3.org/1999/xlink" x="0px" y="0px"
	 width="256px" height="256px" viewBox="0 0 256 256" enable-background="new 0 0 256 256" xml:space="preserve">
<polygon opacity="8.000000e-002" enable-background="new    " points="34.1,256 34.1,4 225.9,4 225.9,185 154.9,256 "/>
<polygon opacity="9.999999e-002" enable-background="new    " points="36.1,254 36.1,6 223.9,6 223.9,184.2 154,254 "/>
<polygon opacity="0.2" enable-background="new    " points="34.1,252 34.1,4 221.9,4 221.9,182.2 152,252 "/>
<polygon fill="#455A64" points="36.1,250 36.1,6 219.9,6 219.9,181.3 151.2,250 "/>
<g>
	<g>
		
			<linearGradient id="SVGID_1_" gradientUnits="userSpaceOnUse" x1="128" y1="250" x2="128" y2="10" gradientTransform="matrix(1 0 0 -1 0 258)">
			<stop  offset="0" style="stop-color:#90A4AE"/>
			<stop  offset="0.1378" style="stop-color:#849AA5"/>
			<stop  offset="0.4226" style="stop-color:#708A97"/>
			<stop  offset="0.7096" style="stop-color:#64808E"/>
			<stop  offset="1" style="stop-color:#607D8B"/>
		</linearGradient>
		<polygon fill="url(#SVGID_1_)" points="38.1,248 38.1,8 217.9,8 217.9,180.5 150.4,248 		"/>
	</g>
	<polygon fill="#455A64" fill-opacity="0.39" points="217.9,180.5 217.9,177.6 146.7,177.6 146.7,248 150.4,248 	"/>
	<path fill="#FFFFFF" fill-opacity="0.39" d="M150.3,180.5l67.6,0.1L150.4,248L150.3,180.5z"/>
</g>
<g opacity="0.8">
	<g>
		<path fill="#FFFFFF" d="M128,57.1c29.2,0,52.9,23.7,52.9,52.9s-23.7,52.9-52.9,52.9S75.1,139.2,75.1,110S98.8,57.1,128,57.1
			 M128,51.5c-32.3,0-58.5,26.2-58.5,58.5s26.2,58.5,58.5,58.5s58.5-26.2,58.5-58.5S160.3,51.5,128,51.5L128,51.5z"/>
	</g>
	<g>
		<path fill="#FFFFFF" d="M128,99.1c6,0,10.9,4.9,10.9,10.9s-4.9,10.9-10.9,10.9c-6,0-10.9-4.9-10.9-10.9S122,99.1,128,99.1
			 M128,93.5c-9.1,0-16.5,7.4-16.5,16.5s7.4,16.5,16.5,16.5s16.5-7.4,16.5-16.5S137.1,93.5,128,93.5L128,93.5z"/>
	</g>
</g>
</svg>
