<?xml version="1.0" encoding="utf-8"?>
<!-- Generator: Adobe Illustrator 17.1.0, SVG Export Plug-In . SVG Version: 6.00 Build 0)  -->
<!DOCTYPE svg PUBLIC "-//W3C//DTD SVG 1.1//EN" "http://www.w3.org/Graphics/SVG/1.1/DTD/svg11.dtd" [
	<!ENTITY ns_extend "http://ns.adobe.com/Extensibility/1.0/">
	<!ENTITY ns_ai "http://ns.adobe.com/AdobeIllustrator/10.0/">
	<!ENTITY ns_graphs "http://ns.adobe.com/Graphs/1.0/">
	<!ENTITY ns_vars "http://ns.adobe.com/Variables/1.0/">
	<!ENTITY ns_imrep "http://ns.adobe.com/ImageReplacement/1.0/">
	<!ENTITY ns_sfw "http://ns.adobe.com/SaveForWeb/1.0/">
	<!ENTITY ns_custom "http://ns.adobe.com/GenericCustomNamespace/1.0/">
	<!ENTITY ns_adobe_xpath "http://ns.adobe.com/XPath/1.0/">
]>
<svg version="1.1"
	 id="svg2" xmlns:x="&ns_extend;" xmlns:i="&ns_ai;" xmlns:graph="&ns_graphs;" inkscape:version="0.48.4 r9939" sodipodi:docname="computer.svg" xmlns:dc="http://purl.org/dc/elements/1.1/" xmlns:sodipodi="http://sodipodi.sourceforge.net/DTD/sodipodi-0.dtd" xmlns:rdf="http://www.w3.org/1999/02/22-rdf-syntax-ns#" xmlns:svg="http://www.w3.org/2000/svg" xmlns:cc="http://creativecommons.org/ns#" xmlns:inkscape="http://www.inkscape.org/namespaces/inkscape"
	 xmlns="http://www.w3.org/2000/svg" xmlns:xlink="http://www.w3.org/1999/xlink" x="0px" y="0px" width="256px" height="256px"
	 viewBox="0 0 256 256" style="enable-background:new 0 0 256 256;" xml:space="preserve">
<metadata  id="metadata26">
	<rdf:RDF>
		<cc:Work  rdf:about="">
			<dc:format>image/svg+xml</dc:format>
			<dc:type  rdf:resource="http://purl.org/dc/dcmitype/StillImage"></dc:type>
		</cc:Work>
	</rdf:RDF>
	<sfw  xmlns="&ns_sfw;">
		<slices></slices>
		<sliceSourceBounds  height="252" width="191.8" x="326.1" y="467.6" bottomLeftOrigin="true"></sliceSourceBounds>
	</sfw>
</metadata>
<polygon style="opacity:8.000000e-002;enable-background:new    ;" points="34.1,256 34.1,4 225.9,4 225.9,185 154.9,256 "/>
<polygon style="opacity:0.1;enable-background:new    ;" points="36.1,254 36.1,6 223.9,6 223.9,184.2 154,254 "/>
<polygon style="opacity:0.2;enable-background:new    ;" points="34.1,252 34.1,4 221.9,4 221.9,182.2 152,252 "/>
<polygon style="fill:#0D47A1;" points="36.1,250 36.1,6 219.9,6 219.9,181.3 151.2,250 "/>
<g>
	<g>
		<g>
			<g>
				
					<linearGradient id="SVGID_1_" gradientUnits="userSpaceOnUse" x1="128.1" y1="926.55" x2="128.1" y2="686.55" gradientTransform="matrix(1 0 0 1 0 -678.55)">
					<stop  offset="0" style="stop-color:#3F51B5"/>
					<stop  offset="1" style="stop-color:#64B5F6"/>
				</linearGradient>
				<polygon style="fill:url(#SVGID_1_);" points="38.2,248 38.2,8 218,8 218,180.5 150.5,248 				"/>
			</g>
			<polygon style="fill:#2196F3;fill-opacity:0.7;" points="218,180.5 218,177.6 146.8,177.6 146.8,248 150.5,248 			"/>
			<path style="opacity:0.39;fill:#FFFFFF;enable-background:new    ;" d="M150.4,180.5l67.6,0.1L150.5,248L150.4,180.5z"/>
		</g>
	</g>
</g>
<path style="opacity:0.8;fill:#FFFFFF;enable-background:new    ;" d="M157.7,64c-3.1,0-5.9,2.1-7.4,4.5h-29.7c0,0-7.2-0.5-13.5,2.4
	c-6.3,3-13,9.8-13,21.1c0,11.4,6.7,18.2,13,21.2c3,1.4,5.9,2,8.2,2.4v1.8l-11.7,11c-0.3-0.1-0.7-0.3-1.1-0.3c-2.4,0-4.2,1.8-4.2,4
	s1.9,4,4.2,4s4.2-1.8,4.2-4c0-0.4-0.2-0.7-0.2-1l11.6-11h14.1v-4h4.2c0,0,4.5,0.1,8.8,2.1s8.2,5.2,8.2,13.9s-3.9,11.9-8.2,13.9
	s-9.8,2.4-9.8,2.4h-29.7c-1.5-2.4-4.3-4.3-7.4-4.3c-4.7,0-8.5,3.6-8.5,8s3.8,8,8.5,8c3.1,0,6-2.1,7.4-4.5h29.7c0,0,7.2,0.6,13.5-2.4
	s13-9.8,13-21.1s-6.7-18.2-13-21.1c-6.3-3-12.5-2.9-12.5-2.9h-4.2v-1.2l11.7-11c0.3,0.1,0.7,0.3,1.1,0.3c2.3,0,4.2-1.8,4.2-4
	s-1.9-4-4.2-4s-4.2,1.8-4.2,4c0,0.4,0.2,0.7,0.3,1l-11.7,11h-14v3.4c-1.4-0.3-2.9-0.8-4.5-1.5c-4.3-2-8.2-5.2-8.2-13.9
	s3.9-11.8,8.2-13.9c4.3-2,9.8-2.4,9.8-2.4h29.7c1.5,2.4,4.3,4.3,7.4,4.3c4.7,0,8.5-3.6,8.5-8C166.2,67.6,162.4,64,157.7,64z"/>
</svg>
