<?xml version="1.0" encoding="utf-8"?>
<!-- Generator: Adobe Illustrator 21.0.0, SVG Export Plug-In . SVG Version: 6.00 Build 0)  -->
<svg version="1.1" id="图层_1" xmlns="http://www.w3.org/2000/svg" xmlns:xlink="http://www.w3.org/1999/xlink" x="0px" y="0px"
	 viewBox="0 0 256 256" style="enable-background:new 0 0 256 256;" xml:space="preserve">
<style type="text/css">
	.st0{opacity:0.08;enable-background:new    ;}
	.st1{opacity:0.1;enable-background:new    ;}
	.st2{opacity:0.2;enable-background:new    ;}
	.st3{fill:#3E2723;}
	.st4{fill:url(#SVGID_1_);}
	.st5{fill:#795548;fill-opacity:0.7;}
	.st6{opacity:0.39;fill:#FFFFFF;enable-background:new    ;}
	.st7{fill:#FFFFFF;}
	.st8{opacity:0.8;fill:#FFFFFF;enable-background:new    ;}
	.st9{enable-background:new    ;}
	.st10{fill:#5D4037;}
</style>
<polygon class="st0" points="34.1,256 34.1,4 225.9,4 225.9,185 154.9,256 "/>
<polygon class="st1" points="36.1,254 36.1,6 223.9,6 223.9,184.2 154,254 "/>
<polygon class="st2" points="34.1,252 34.1,4 221.9,4 221.9,182.2 152,252 "/>
<polygon class="st3" points="36.1,250 36.1,6 219.9,6 219.9,181.3 151.2,250 "/>
<g>
	<g>
		
			<linearGradient id="SVGID_1_" gradientUnits="userSpaceOnUse" x1="169.6001" y1="-425.9004" x2="169.6001" y2="-665.9004" gradientTransform="matrix(1 0 0 -1 -41.6001 -417.9004)">
			<stop  offset="0" style="stop-color:#785548"/>
			<stop  offset="1" style="stop-color:#9F9E9F"/>
		</linearGradient>
		<polygon class="st4" points="38.1,248 38.1,8 217.9,8 217.9,180.4 151.1,248 		"/>
		<polygon class="st5" points="217.9,180.5 217.9,177.6 146.7,177.6 146.7,248 150.4,248 		"/>
		<path class="st6" d="M150.3,180.5l67.6,0.1L150.4,248L150.3,180.5z"/>
	</g>
	<path class="st7" d="M102.4,54.3h-6.1v77.9h-4.6V54.3h-6.1v77.9H81V54.3h-6.1v77.9h-4.6V54.3h-6.1v77.9h-1.6v33h41.7v-33h-2.1
		L102.4,54.3L102.4,54.3z M98.4,155.6H68.8v-19.1h29.6V155.6z"/>
	<g>
		<rect x="38.1" y="8" class="st8" width="179.9" height="46"/>
		<g class="st9">
			<path class="st10" d="M81.7,42.8c1.2,0,2.2-0.1,3-0.3s1.4-0.5,1.9-0.8s0.8-0.7,1-1.2c0.2-0.4,0.3-0.9,0.3-1.5
				c0-1.2-0.6-2.1-1.8-2.9s-3.2-1.6-6-2.5c-1.2-0.4-2.5-0.9-3.7-1.4S74,31,73,30.2s-1.8-1.8-2.4-3s-0.9-2.6-0.9-4.2
				c0-1.7,0.3-3.1,1-4.5s1.6-2.5,2.8-3.4s2.7-1.6,4.4-2.1s3.6-0.8,5.8-0.8c2.5,0,4.7,0.3,6.6,0.8c1.8,0.5,3.4,1.1,4.6,1.7l-2.5,6.4
				c-1.1-0.5-2.2-1-3.5-1.4s-2.8-0.6-4.7-0.6c-2,0-3.5,0.3-4.4,0.8s-1.3,1.4-1.3,2.5c0,0.7,0.2,1.2,0.5,1.7c0.3,0.4,0.8,0.9,1.4,1.2
				c0.6,0.4,1.3,0.7,2.1,1c0.8,0.3,1.6,0.6,2.6,0.9c2,0.7,3.7,1.4,5.1,2s2.7,1.5,3.6,2.4c1,0.9,1.7,2,2.1,3.2
				c0.5,1.2,0.7,2.7,0.7,4.4c0,3.3-1.2,5.9-3.7,7.8c-2.5,1.9-6.2,2.8-11.2,2.8c-1.7,0-3.2-0.1-4.5-0.3s-2.5-0.4-3.6-0.7
				c-1-0.3-1.9-0.6-2.7-0.9c-0.8-0.3-1.4-0.6-1.9-0.9l2.4-6.4c1.1,0.6,2.5,1.1,4.2,1.6C77.2,42.5,79.3,42.8,81.7,42.8z"/>
			<path class="st10" d="M103.1,13.1h8.5V49h-8.5V13.1z"/>
			<path class="st10" d="M148.3,13.1V20h-11.4v29h-8.5V20H117v-6.9H148.3z"/>
			<path class="st10" d="M176.8,48.9c-1.1-2-2.2-4-3.5-6.1c-1.3-2-2.7-3.8-4.4-5.2c-0.5,0.5-1.2,1.3-1.9,2.2c-0.8,1-1.6,2-2.3,3
				c-0.8,1.1-1.5,2.2-2.2,3.3s-1.2,2-1.5,2.7h-9.7c1.6-2.8,3.5-5.7,5.6-8.7c2.2-3,4.6-6.1,7.2-9.5l-12.3-17.7h10.3l7.2,10.4
				l7.3-10.4h9.7L174,30.2c3.2,3.8,5.9,7.3,7.9,10.5c2.1,3.2,3.7,5.9,4.9,8h-10V48.9z"/>
		</g>
	</g>
</g>
</svg>
