<?xml version="1.0" encoding="utf-8"?>
<!-- Generator: Adobe Illustrator 17.1.0, SVG Export Plug-In . SVG Version: 6.00 Build 0)  -->
<!DOCTYPE svg PUBLIC "-//W3C//DTD SVG 1.1//EN" "http://www.w3.org/Graphics/SVG/1.1/DTD/svg11.dtd">
<svg version="1.1" id="图层_1" xmlns="http://www.w3.org/2000/svg" xmlns:xlink="http://www.w3.org/1999/xlink" x="0px" y="0px"
	 width="256px" height="256px" viewBox="0 0 256 256" enable-background="new 0 0 256 256" xml:space="preserve">
<polygon opacity="8.000000e-002" enable-background="new    " points="34.1,256 34.1,4 225.9,4 225.9,185 154.9,256 "/>
<polygon opacity="9.999999e-002" enable-background="new    " points="36.1,254 36.1,6 223.9,6 223.9,184.2 154,254 "/>
<polygon opacity="0.2" enable-background="new    " points="34.1,252 34.1,4 221.9,4 221.9,182.2 152,252 "/>
<polygon fill="#311B92" points="36.1,250 36.1,6 219.9,6 219.9,181.3 151.2,250 "/>
<g>
	<g>
		<linearGradient id="SVGID_1_" gradientUnits="userSpaceOnUse" x1="128" y1="248" x2="128" y2="8">
			<stop  offset="0" style="stop-color:#512DA8"/>
			<stop  offset="8.000000e-003" style="stop-color:#532EA8"/>
			<stop  offset="0.1976" style="stop-color:#7541B2"/>
			<stop  offset="0.4086" style="stop-color:#9352BC"/>
			<stop  offset="0.6159" style="stop-color:#A95EC3"/>
			<stop  offset="0.8158" style="stop-color:#B666C7"/>
			<stop  offset="1" style="stop-color:#BA68C8"/>
		</linearGradient>
		<polygon fill="url(#SVGID_1_)" points="38.1,248 38.1,8 217.9,8 217.9,180.5 150.4,248 		"/>
	</g>
	<polygon fill="#673AB7" fill-opacity="0.3922" points="217.9,180.5 217.9,177.6 146.7,177.6 146.7,248 150.4,248 	"/>
	<path fill="#FFFFFF" fill-opacity="0.3922" d="M150.3,180.5l67.6,0.1L150.4,248L150.3,180.5z"/>
</g>
<path opacity="0.8" fill="#FFFFFF" enable-background="new    " d="M92.5,65.4L92.5,65.4l0,30.2l-0.1,0v9.3l0.1,0v44.2
	c-1.6-0.4-3.2-0.6-5-0.6c-8.1,0-14.7,4.8-14.7,10.7c0,5.9,6.6,10.7,14.7,10.7c8.1,0,14.7-4.8,14.7-10.7h0V103l55.4-11.4v42.2
	c-1.6-0.4-3.2-0.6-5-0.6c-8.1,0-14.7,4.8-14.7,10.7c0,5.9,6.6,10.7,14.7,10.7c8.1,0,14.7-4.8,14.7-10.7h0V63.1V50L92.5,65.4z
	 M157.5,82.2l-55.4,11.4V76.5l55.4-11.4V82.2z"/>
</svg>
