<?xml version="1.0" encoding="utf-8"?>
<!-- Generator: Adobe Illustrator 21.0.0, SVG Export Plug-In . SVG Version: 6.00 Build 0)  -->
<svg version="1.1" id="图层_1" xmlns="http://www.w3.org/2000/svg" xmlns:xlink="http://www.w3.org/1999/xlink" x="0px" y="0px"
	 viewBox="0 0 256 256" style="enable-background:new 0 0 256 256;" xml:space="preserve">
<style type="text/css">
	.st0{opacity:0.08;enable-background:new    ;}
	.st1{opacity:0.1;enable-background:new    ;}
	.st2{opacity:0.2;enable-background:new    ;}
	.st3{fill:url(#SVGID_1_);}
	.st4{fill:#B71C1C;fill-opacity:0.3922;}
	.st5{fill:#FFFFFF;fill-opacity:0.3922;}
	.st6{opacity:0.8;}
	.st7{fill:#FFFFFF;}
	.st8{fill:#B71C1C;}
</style>
<g id="surface1">
	<polygon class="st0" points="34.5,256 34.5,4 225.5,4 225.5,185 154.5,256 	"/>
	<polygon class="st1" points="36.5,254 36.5,6 223.5,6 223.5,184.2 153.7,254 	"/>
	<polygon class="st2" points="34.5,252 34.5,4 221.5,4 221.5,182.2 151.7,252 	"/>
	<g>
		
			<linearGradient id="SVGID_1_" gradientUnits="userSpaceOnUse" x1="294.4004" y1="2337.9609" x2="294.4004" y2="2093.9609" gradientTransform="matrix(1 0 0 1 -166.4004 -2087.9609)">
			<stop  offset="0" style="stop-color:#512DA8"/>
			<stop  offset="8.000000e-03" style="stop-color:#D32F2F"/>
			<stop  offset="0.3041" style="stop-color:#E33932"/>
			<stop  offset="0.6579" style="stop-color:#F04035"/>
			<stop  offset="1" style="stop-color:#F44336"/>
		</linearGradient>
		<path class="st3" d="M150.9,250l68.6-68.6V6h-183v244H150.9z"/>
		<polygon class="st4" points="147.1,177.6 147.1,250 150.9,250 219.5,181.4 219.5,177.6 		"/>
		<path class="st5" d="M150.9,181.4h68.6L150.9,250V181.4z"/>
		<g class="st6">
			<path class="st7" d="M121.4,58.2c0,0,3.5,32.4-21.3,75.2c-24.8,42.7-32.1,37-34.7,35.5s-6-6.3,5-15.9c11-9.6,15.3-9.4,15.3-9.4
				s-10.1,6.1-14,12s-7.1,9.6-6.2,11.3s12.2-6.8,16.8-14c7.4-11.5,21.4-32.8,27.9-53.1C116.9,79.3,121.4,58.2,121.4,58.2z"/>
			<path class="st7" d="M182.6,133.1c0,0-0.6,1.5-7.1,1c-6.5-0.6-31.9-8.5-45.5-24.8S115.3,70.6,114.3,59s4.2-8.4,5-6.9
				c1.2,1,1.7,4.2,1.7,4.2s-0.4-4.8-2.5-6.8s-3.9-2.1-5.9,1.5c-2.1,3.5-3,13.3-1.3,22.8c1.7,9.4,8.6,31.1,17.2,41.1
				s25.7,18.7,38.4,21.3C179.6,138.5,182.6,133.1,182.6,133.1L182.6,133.1L182.6,133.1z"/>
			<path class="st7" d="M99.9,137.4c0,0,24.6-8,48-10.2c23.3-2.2,31.4,0.2,33.4,1.8c2.1,1.7,2.1,3.5,2.1,3.5s2.6-2.6,0.9-5.2
				c-1.5-2.7-3.7-5-22.2-4.4c-18.5,0.5-19.8,1.3-36.8,4.4C108.3,130.5,99.9,137.4,99.9,137.4z"/>
		</g>
		<g>
			<path class="st8" d="M217.5,8v172.5L150,248H97.5h-59V8H217.5 M219.5,6h-183v244h61h53.4l68.6-68.6V6L219.5,6z"/>
		</g>
	</g>
</g>
</svg>
