<?xml version="1.0" encoding="utf-8"?>
<!-- Generator: Adobe Illustrator 21.0.0, SVG Export Plug-In . SVG Version: 6.00 Build 0)  -->
<svg version="1.1" id="图层_1" xmlns="http://www.w3.org/2000/svg" xmlns:xlink="http://www.w3.org/1999/xlink" x="0px" y="0px"
	 viewBox="0 0 256 256" style="enable-background:new 0 0 256 256;" xml:space="preserve">
<style type="text/css">
	.st0{opacity:0.08;enable-background:new    ;}
	.st1{opacity:0.1;enable-background:new    ;}
	.st2{opacity:0.2;enable-background:new    ;}
	.st3{fill:#0D47A1;}
	.st4{fill:url(#SVGID_1_);}
	.st5{fill:#64B5F6;}
	.st6{fill:#FFFFFF;fill-opacity:0.8;}
	.st7{opacity:0.8;fill:#FFFFFF;enable-background:new    ;}
	.st8{enable-background:new    ;}
	.st9{fill:#1976D2;}
</style>
<g>
	<rect x="34.1" y="4" class="st0" width="191.8" height="252"/>
	<rect x="36.1" y="6" class="st1" width="187.8" height="248"/>
	<rect x="34.1" y="4" class="st2" width="187.8" height="248"/>
	<rect x="36.1" y="6" class="st3" width="183.8" height="244"/>
</g>
<g>
	
		<linearGradient id="SVGID_1_" gradientUnits="userSpaceOnUse" x1="211.2002" y1="1606.8008" x2="211.2002" y2="1366.8008" gradientTransform="matrix(1 0 0 1 -83.2002 -1358.8008)">
		<stop  offset="0" style="stop-color:#1976D2"/>
		<stop  offset="0.0226" style="stop-color:#1C79D3"/>
		<stop  offset="0.2859" style="stop-color:#3B93E2"/>
		<stop  offset="0.5416" style="stop-color:#52A6ED"/>
		<stop  offset="0.7843" style="stop-color:#5FB1F4"/>
		<stop  offset="1" style="stop-color:#64B5F6"/>
	</linearGradient>
	<rect x="38.1" y="8" class="st4" width="179.8" height="240"/>
	<g>
		<path class="st5" d="M184,136c0,30.9-25.1,56-56,56s-56-25.1-56-56s25.1-56,56-56S184,105.1,184,136z"/>
		<path class="st6" d="M91.3,93.8c0,0,1.2,0.6,1.6,1.6s1.6,1,1.6,1h1.8l2.6-0.8L98.2,97c0,0-13.7,6.4-10.9,10.1
			c2.8,3.8,1.8,4.8,1.8,5.9c0,1.2,0.8,0.2,0.8,0.2l0.8-2.1l1.2-1.6l1.2-1.8l0.4-1l1.6-2.8l2-1.2l1.8,1.2c0,0,0.8,0.3,0.6,1
			c-0.2,0.6-0.4,1.8-0.4,1.8s0.4,0.8,1,0.8s1.6-0.6,1.6-0.6l0.8,1.4l0.6,2.6l1.6,1.6l0.8,1.8l-0.8,1.6l0.8,0.6l1.8,2l0.3,1l-3-0.2
			c0,0-0.4-0.8-1-0.8s-3.1-0.2-3.1-0.2l-1.4,0.4l-0.8,1c0,0-1,1.6-1.6,1.6s-2.1-0.3-2.1-0.3s-1.2-0.4-1.8,0.8s1,1.8,1,1.8l-2.8,0.8
			l-0.8,0.4c0,0-2,0.8-2,1.4s0,0.6,0,0.6l-0.6,1.6v1l-1.4,1.2l-1.4,1l-0.6,1.2v2c0,0-0.2,1-0.2,1.6s0,2.2,0,2.2s-0.6,0.6-1-0.6
			c-0.4-1.2-0.4-1.2-0.4-1.2l-0.6-1.4c0,0,0.6-0.2-0.2-0.8c-0.8-0.6-1.6-0.8-1.6-0.8s-0.3-0.3-1.2-0.3c-0.8,0,1,0.2-0.8,0
			s-1.8-0.2-1.8-0.2l-1.4,1.2v1c0,0-0.3,7,1.6,8h0.8l1.2-1.8l1,0.3v0.8l-0.2,1.5v0.8l1,1l0.6,1.8c0.8,1.4,0.4,1.8,1,2.1
			c0.6,0.4,1.2,1.5,1.2,1.5l0.8,0.3c0,0,0.6,0.2,1.2,0.3c0.6,0.2,0.6,0.2,0.6,0.2l0.2,0.9l0.2,0.7l0.8,1c0,0-0.6,0,0.8,0
			s1.4,0,1.4,0s0,0.4,1,0.8c1,0.3,0.2,0.2,1,0.3c0.8,0.2,2.2,0.4,2.2,0.4c1.4-0.2,1.4-0.2,1.4-0.2l1,1.5c0,0,0.6,0,0.8,0.6
			c0.2,0.6-1,0,0.2,0.6s0,0.2,1.2,0.6c1.2,0.4-0.4,0.4,1.1,0.4s1.8,0,2.4,0.2s1,1.6,1,1.6c1.2,1.4,1.2,1.4,1.2,1.4l0.2,1.8
			c0,0-0.6,0.4,0.8,0.4s0.4,0,1.4,0c1.1,0-0.2-0.4,1,0c1.2,0.3,1.2,0.3,1.2,0.3s1.8,1.5,2.4,1.5s1.8-0.2,2.4,0s1,1.1,2.1,1.4
			c1.2,0.2,1.6,0,2.4,0.6s0.8,0.6,0.8,0.6l0.2,2.1L118,173l-1.6,0.6l-0.2,2l-0.8,2v1c0,0,1,0.8-0.8,1s-1.8,0.2-1.8,0.2l-0.8,0.8
			c0,0,0,0.2-0.4,0.8c-0.3,0.6-0.8,1.6-0.8,1.6l0.2,1.8v1.2l-0.6,1c0,0-0.5,0.3,1,1.3c1.6,1,2.9,1,3.2,1.6c0.3,0.6,1.3,1.2,1.3,1.2
			l-2.2-0.4l-1.4-0.5l-2.2-0.6l-4.3-2.3c0,0-6.5-5.3-8.4-9.6c0,0-1.7-2.5-4.6-3.6c0,0-7.1-6.5-7.7-8.1l-0.3-1.1v-0.5l-0.3-0.3v-0.6
			l-0.2-0.5l0.1-2l0.1-1.3l0.1-0.7l-0.1-0.5c0,0-0.4-0.3-0.4-0.4s-0.3-0.9-0.3-0.9l-0.1-0.3l1.1-0.9l-0.3-0.8l0.2-0.4l0.6-0.5
			c0,0,0.4-0.5,0.4-0.6c0-0.2-0.6-0.6-0.6-0.6l-0.3,0.1l-0.3,0.8h-0.3c0,0-0.4-0.2-0.4-0.3s-0.3-0.4-0.3-0.4l-0.5-0.2
			c0,0-0.4-0.1-0.5-0.3s-0.5-0.5-0.5-0.5l-0.3-0.6l-0.5-0.2c0,0-0.5-0.8-0.5-1c0-0.1-0.3-0.5-0.3-0.5s-0.6-0.7-0.6-0.8
			s-0.3-0.7-0.3-0.7h-0.4l-1-0.4l-0.6-0.8l-0.7-0.8c0,0-0.4-0.6-0.4-0.8s-0.3-0.3-0.3-0.3h-0.4h-0.3l-0.6-0.5l-1.6-2.2l-0.3-1
			l-0.3-1.1l-0.2-1.8v-1.2l-0.7-8.3C72.1,128.9,74.5,108.3,91.3,93.8z"/>
		<path class="st6" d="M154.5,86.8l1.8,1.5l0.9,0.4l0.6,0.7l0.1,0.7c0,0,0.2,0.7,0.1,0.9c-0.1,0.2-0.2,1.2-0.2,1.2s0.8,1.4,0.8,1.6
			s0.1,1-0.1,1.2c-0.2,0.1-1.2,0.7-1.3,0.4c-0.1-0.3-0.7-0.9-0.9-0.9c-0.2-0.1-0.7-0.6-0.7-0.6l1.4-0.2l-0.2-0.9c0,0-1-0.3-1.3-0.3
			c-0.3-0.1-1.3-0.6-1.3-0.6l-1.1-0.3c0,0-1.8-0.4-2-0.5s-0.9-0.3-0.9-0.3H149c0,0-0.7,0.3-0.9,0.5c-0.1,0.2-1,1.2-1,1.2
			s-0.1,1.2-0.1,1.3s-0.3,0.6-0.3,1.2c0,0.5-0.1,1.3-0.1,1.5s0,0.4,0,0.4l-0.2,0.8l-0.6,0.4l-0.8,0.6c0,0-0.7,0.5-0.7,0.7
			s0,0.9,0.3,1.4s0.2,1,0.5,1.3s0.5,0.6,0.8,0.7s0.1,0.2,0.5,0.2s0.7,0.1,0.9-0.1c0.2-0.1,0.6-0.1,0.8-0.3c0.2-0.3-0.2-0.1,0.2-0.3
			c0.3-0.1,0.3-0.3,0.6-0.1c0.3,0.3,0.6,0.6,0.7,0.8c0.1,0.2,0.3,0.6,0.6,0.9c0.3,0.2,0.6,0.9,0.6,0.9l0.6,0.5c0,0,0.1,0.1,0.4,0.1
			s0.9-0.1,0.9-0.1l0.2-0.3c0,0,0.3,0.1,0.4-0.1s0.1-0.4,0.1-0.4s-0.2-0.6-0.4-0.7c-0.1-0.2-0.3-0.6-0.3-0.6l0.1-0.6l0.3-0.4
			l0.1-0.4v-0.5l-0.4-0.2l-0.6-0.4c0,0-0.3,0.1-0.3-0.3c-0.1-0.4-0.1-0.4-0.1-0.4l-0.8-0.2l-0.5-0.3l0.6-0.5c0.4-0.6,0.4-0.8,0.4-1
			s-0.1-0.7-0.1-0.7s-0.4-0.1-0.4-0.5c-0.1-0.4-0.1-0.7-0.1-0.7l0.1-0.3c0,0,0.1-0.3,0.4-0.3c0.2,0,0.5,0.3,0.7,0.3s0.5,0.1,0.5,0.1
			s0.2,0.1,0.2,0.3c0,0.2-0.1,0.6-0.1,0.6l0.3-0.5v0.6l-0.1,0.7v0.7l0.4,0.7l0.3,0.5c0,0,0.5,0.5,0.6,0.6c0.2,0.1,0.6,0.4,0.6,0.4
			l0.5,0.3l0.4,0.1l0.3-0.4c0,0,0.6,0.1,0.6-0.1c0.1-0.2,0.1-0.2,0.1-0.2s0.7-0.1,0.9-0.1s0.6,0,0.6,0s0.3,0.5,0.1,0.5
			s-0.3,0.2-0.7,0.4c-0.5,0.1-0.6,0-0.7,0.2c-0.1,0.2-0.3,0.6-0.3,0.6l0.3,0.1h0.3l0.4,0.4c0,0,0.1,0.1,0,0.3s0.3,0.2-0.1,0.3
			c-0.5,0.1-0.8-0.1-0.8-0.1s-0.1-0.5-0.4-0.3c-0.2,0.2-0.3,0.6-0.3,0.6v0.6l0.3,0.9c0,0,0.2,0.2,0,0.3c-0.2,0.1-0.8,0.8-0.8,0.8
			s-0.1,0.3-0.4,0.3c-0.2,0-0.4,0-0.9,0.1c-0.3,0.1-0.3,0.1-0.7,0.2s-0.6,0.2-1.2,0.3c-0.5,0.1-1.5,0.1-1.9,0.1
			c-0.3,0-0.4,0-0.6-0.1c-0.2-0.1-0.1,0-0.3-0.4c-0.3-0.4-0.5-0.6-0.5-0.9c0-0.2,0-0.3-0.1-0.6c-0.1-0.3-0.1-0.6-0.3-0.6
			c-0.4,0-0.4,0-0.4,0s-0.7,0.5-0.6,0.7c0.1,0.2-0.1,0,0.5,0.4c0.6,0.5,0.8,1.1,0.8,1.1l-0.1,0.6l-1.1,0.6l-0.8,0.3l-0.1,0.6
			c0,0,0,0.2-0.2,0.4c-0.2,0.3-0.6,0.6-0.6,0.6s-0.4,0.1-0.4,0.4c-0.1,0.2-0.4,0.9-0.4,0.9s-0.3-0.1-0.7,0.2s0.1,0.3-0.7,0.6
			s-0.8,0.3-0.8,0.3l-0.9-0.1l-0.5,0.2c0,0-0.7,0.1-0.8,0.3s-0.5,0.7-0.5,0.7s-0.2,0.4,0,0.4c0.2,0.1,0.5,0,0.9,0.1s0.5,0.1,0.8,0.3
			c0.3,0.1,0.5,0.4,0.5,0.4l1,0.9l0.5,1.2l-0.1,0.9l-1.1,0.4c0,0-0.6,0-0.9,0c-0.2,0-0.1,0-1.2,0c-1.1,0-1.3,0-1.4,0
			s-0.9-0.1-0.9-0.1l-0.6,0.1l-0.4,0.4l-0.3,0.1c0,0,0.4,0.8,0.4,1.1c0,0.3,0,0.6,0,0.6l-0.1,0.6l-0.3,0.6l-0.4,0.6l0.1,0.3
			c0,0-0.1,0.3,0.1,0.3c0.2,0,0.7-0.1,0.7,0.1s-0.4,0.9-0.4,0.9l0.9,0.2c0,0-0.1-0.1,0.4,0.1c0.5,0.1,0.9,0.3,0.9,0.3l0.6,0.4
			l0.2,0.4l0.2-0.4c0,0,1-0.1,1.2-0.2s0.6-0.1,0.6-0.1h0.8c0,0,0.2,0.1,0.4-0.1c0.1-0.2,0.1-0.2,0.1-0.2s0.9-0.4,1.1-0.6
			c0.2-0.1,0.3-0.6,0.3-0.6s0.3-0.2,0.3-0.3s-0.2-0.6-0.2-0.6V121l0.3-0.3c0,0,0.1-0.1,0.4-0.4s0.3-0.3,0.3-0.3s-0.1-0.1,0.3-0.3
			c0.4-0.1,0.6-0.4,0.8-0.4s-0.2,0.2,0.2,0s0.5-0.3,0.5-0.6c0-0.2,0.1-1.2,0.1-1.2l0.3-0.5l0.9,0.1l0.4,0.1c0,0,0.5,0.1,0.6-0.1
			s0.4-0.3,0.4-0.3l0.7-0.4c0,0-0.1-0.1,0.3-0.1c0.3,0,0.9,0,1.1,0c0.2,0,0.6,0,0.6,0s0.4,0.2,0.5,0.3c0.1,0.2,0.4,0.6,0.4,0.6
			l0.3,0.4h0.3c0.3,0.3,0.5,0.5,1.1,0.6c0.6,0.2,1.1,0.4,1.1,0.4s0.2,0.4,0.3,0.5c0.2,0.2,0.4,0.4,0.6,0.5c0.2,0.1,0.4,0.3,0.5,0.4
			c0.1,0.2,0.4,0.5,0.4,0.5l0.3,0.4l0.2-0.4V120l-0.1-0.3c0,0-0.3-0.3,0.1-0.3c0.4,0,0.6,0,0.6,0l-0.4-0.6l-0.5-0.2l-0.6-0.5
			l-0.3-0.3l-0.3-0.1l-0.3-0.2l-0.4-0.3c0,0-0.6-0.1-0.6-0.4c-0.1-0.2-0.1-0.2-0.1-0.2l-0.6-0.1c0,0-0.6-0.3-0.6-0.5
			s-0.1-0.7-0.1-0.7l-0.5-0.1c0,0,0.1-0.4,0.1-0.6s0.2-0.5,0.2-0.5l1.1-0.1l0.3,0.6l0.5,0.3l0.6,0.3l0.3,0.4l0.3,0.3
			c0,0,0.1,0.1,0.5,0.2s0.6,0.2,0.6,0.2s0.4,0.3,0.6,0.3c0.3,0.1,0.4,0.2,0.7,0.3c-0.2,0.2-0.2,0.2-0.2,0.2s0.1,0.2,0.4,0.4
			s0.5,0.5,0.5,0.7s0.2,0.8,0.4,0.9s0.3,0.1,0.6,0.5c0.4,0.3,0.4,0.7,0.6,0.9c0.4,0.1,0.6,0,0.6,0.3c0.1,0.4,0.1,0.6,0.1,0.6
			s0.3,0.1,0.5,0.1s0.5-0.4,0.5-0.4s0.4-0.5,0.1-0.7c-0.2-0.1-0.6-0.1-0.6-0.3s0-1.2,0-1.2l0.3-0.6l0.3-0.5l0.5,0.2l0.5-0.3l0.5,0.6
			l-0.2,0.7c0,0,0.1,0.4,0.3,0.8s0.6,0.8,0.6,0.8l0.9,0.8l1.3,0.3l0.3-0.1l1.9-0.4c0,0,0.3,0,0.4,0c0.2,0,1.1,1.5,1.1,1.5s0,0.6,0,1
			s0,1.3,0,1.3s-0.6,0.6-0.9,0.6c-0.3,0-1,0.3-1,0.3l-1.5,0.4l-1-0.1l-1.8-0.1c0,0-1.8-0.1-2-0.1s-0.8,0-1,0s-0.5,0.2-0.6,0.7
			c-0.2,0.5-0.5,0.7-0.5,0.7s0,0.3-0.4,0.3c-0.3,0-0.3,0.1-0.6-0.1s-1.5-0.5-1.5-0.5l-1.2-0.8l-0.6-0.5l-0.6-0.1h-1.8l-1.2-0.1
			l0.2-1.9l0.2,0.5l-0.4-1.3l-0.5-0.4l-1.3-0.3l-0.8,0.1l-1.1,0.3l-1.1,0.4l-0.6,0.2l-3,0.5l-1.1,0.5c0,0-0.5,0.3-0.6,0.3
			c-0.2,0.1-0.9,0.1-0.9,0.1s-0.5-0.1-0.8-0.2s-0.9-0.1-1.2-0.1s-0.8-0.1-1,0s-0.4,0.1-0.5,0.3c-0.2,0.3-0.8,1-0.8,1
			s-0.3,0.3-0.5,0.5c-0.1,0.2-0.5,0.7-0.5,0.7l-0.7,1.2l-0.5,0.5l0.1,0.6v0.5c0,0-0.3,0.3-0.5,0.3c-0.2,0.1-0.6,0.3-0.6,0.3
			s-0.3,0.1-0.5,0.3c-0.3,0.2-0.3,0.3-0.4,0.4c-0.2,0.2-0.8,0.6-0.8,0.6s-0.3,0.3-0.6,0.5c-0.2,0.3-0.5,0.6-0.6,0.8
			s-0.4,0.4-0.5,0.4c-0.2,0.1-0.5,0.8-0.6,1s-0.6,1-0.6,1l-0.4,1.5l-0.1,0.7c0,0,0.1,0.3,0.3,0.5s0.4,0.9,0.4,0.9v0.6
			c0,0-0.2,0.5-0.3,0.7s0.1,1.1,0.1,1.1v0.5c0,0,0,0.2-0.3,0.4c-0.3,0.3-0.4,0.6-0.4,0.6l0.4,0.8l0.3,0.5v0.3l0.3,0.6
			c0,0,0.2,0.2,0.4,0.4c0.2,0.1,0.3,0.1,0.6,0.4c0.4,0.2,0.4,0.2,0.4,0.2s0.5,0.6,0.5,0.9c0,0.2,0.3,0.5,0.3,0.5l0.6,0.6
			c0,0,0.1,0.3,0.4,0.6c0.4,0.3,0.7,0.4,0.9,0.6c0.2,0.1,0.7,0.5,1.2,0.6c0.4,0.1,0.5,0.2,0.7,0.2s-0.3-0.6,1,0.1
			c1.3,0.6,2.1,0.9,2.1,0.9l0.9,0.4c0,0,1.5,0.1,1.6-0.1c0.2-0.1,0.5-0.1,0.6-0.1c0.2,0,0.7,0,1,0s1.6-0.2,1.6-0.2l1.4-0.5
			c0,0,0.5-0.3,0.7-0.4c0.2-0.1,0.7-0.4,0.9-0.5s1.1-0.1,1.1-0.1s0-0.3,0.3,0c0.4,0.3,0.4,0.4,0.5,0.6c0.1,0.2,0.1,0.6,0.4,0.6
			c0.3,0.1,0.9,0.3,0.9,0.3s0.9-0.1,1.2,0s0.9,0.1,0.9,0.1l0.3,0.4l0.1,0.8v0.7c0,0-0.1,0.3,0,0.5c0.1,0.3,0.3,0.7,0.3,0.7
			s-0.3,0.5-0.5,0.6s-0.6,0.6-0.6,0.6l1.3,1.2l0.7,0.7l0.5,0.6c0,0,0.1,0.3,0.1,0.4s-0.1,0.6,0,0.9c0.1,0.2,0.1,0.9,0.1,0.9
			s0.1,0.5,0.1,0.7s-0.2,1.1-0.2,1.1l-0.1,0.6l-0.4,1.1l-0.4,0.5l-0.6,0.6l-0.5,0.7l-0.1,1l-0.4,0.6c0,0,0.1,0.6,0.1,0.8
			s0.6,1.2,0.6,1.2l-0.1,0.8c0,0-0.3,1.2-0.3,1.5s-0.3,0.6-0.3,0.9c0,0.2-0.1,1-0.1,1l0.1,1l0.3,1l-0.3,0.9c0,0-0.2,0.7-0.2,1.2
			c0,0.3,0.6,0.8,0.8,0.8s1-0.1,1.3-0.3c0.4-0.2,1.3-0.5,1.5-0.6s0.3,0.1,0.9-0.3c0.5-0.3,1.3-1,1.3-1s0.6-0.4,0.9-0.6
			c0.2-0.2,1.1-1.2,1.1-1.2s0.6-0.6,1.1-0.9c0.4-0.3,0-0.1,0.4-0.3c0.5-0.3,1.9-1.5,1.9-1.5l1.5-1.4c0,0,1.3-1.6,1.4-1.9
			c0.2-0.3,1.3-1.8,1.5-1.9c0.2-0.1,1.8-1.1,2.1-1.4c0.3-0.3,0.8-2.2,1-2.4s1.2-2.4,1.2-2.4l0.9-2.6l1.5-3.9l1.5-2.7
			c0,0,0.6-1.2,0.9-1.5c0.2-0.4,1.6-3.1,1.6-3.1l0.5-2.3l0.2-2h-0.9l-1,0.9l-0.9-0.3l-0.9,0.1l1-1.3l-0.3-1l-0.8-0.6l-1.1-1.6v-1.6
			l-1.2-1.9l-0.7-3c0,0-1.3-1.4-1.2-1.8c0.1-0.4,0.4-1.5,0.4-1.5l0.7,0.4c0,0,0.5,1.4,0.8,1.5s0.6,0.8,0.8,1c0.1,0.2,0.2,0.8,0.3,1
			s0.7,1.3,0.7,1.3s0.5,1.2,0.5,1.4c0.1,0.2,0.5,0.9,0.6,1.4c0.1,0.6,0.4,2.3,0.4,2.4s0.4,2.1,0.4,2.1s0.6-0.2,0.7-0.3
			c0.1-0.2,0.1-0.3,0.3-0.4c0.1-0.2,1.2-1,1.2-1l0.5-1.4c0,0,0.3-0.6,0.3-0.9c0.1-0.3,0.6-1.3,0.6-1.4c0-0.2-0.1-0.9,0-1.2
			c0.1-0.2,0.3-1.3,0.3-1.4s0.1-0.9,0.1-0.9l-0.1-1.6l0.7-0.9l0.4-1C183.9,129,181.3,100.9,154.5,86.8z"/>
	</g>
	<g>
		<rect x="38" y="8" class="st7" width="179.9" height="46"/>
		<g class="st8">
			<path class="st9" d="M111.5,30.7c0,3.1-0.5,5.8-1.4,8.1c-1,2.3-2.3,4.3-4,5.8s-3.7,2.8-6,3.5c-2.3,0.8-4.8,1.2-7.4,1.2
				s-5-0.4-7.3-1.2s-4.3-2-6-3.5c-1.7-1.6-3-3.5-4-5.8s-1.5-5-1.5-8.1s0.5-5.8,1.5-8.1s2.4-4.3,4.1-5.9s3.7-2.8,6-3.6
				s4.6-1.2,7.2-1.2s5,0.4,7.3,1.2s4.3,2,6,3.6s3,3.5,4,5.9C111,24.9,111.5,27.6,111.5,30.7z M82.7,30.7c0,1.8,0.2,3.3,0.7,4.8
				c0.5,1.4,1.1,2.6,2,3.7c0.8,1,1.9,1.8,3.1,2.3c1.2,0.6,2.7,0.8,4.3,0.8c1.6,0,3-0.3,4.2-0.8c1.3-0.5,2.3-1.3,3.2-2.3
				c0.9-1,1.5-2.2,2-3.7c0.5-1.4,0.7-3,0.7-4.8s-0.2-3.4-0.7-4.8s-1.1-2.7-2-3.7s-1.9-1.8-3.2-2.3c-1.3-0.6-2.7-0.8-4.2-0.8
				c-1.6,0-3,0.3-4.3,0.9c-1.2,0.6-2.3,1.3-3.1,2.4c-0.9,1-1.5,2.2-2,3.7C83,27.4,82.7,29,82.7,30.7z"/>
			<path class="st9" d="M145.4,12.8v6.9H134v29h-8.5v-29h-11.4v-6.9C114.1,12.8,145.4,12.8,145.4,12.8z"/>
			<path class="st9" d="M173.5,12.8h8.5v35.8h-8.5V33.5h-14.3v15.2h-8.5V12.8h8.5v13.7h14.3V12.8z"/>
		</g>
	</g>
</g>
</svg>
