<?xml version="1.0" encoding="utf-8"?>
<!-- Generator: Adobe Illustrator 16.0.0, SVG Export Plug-In . SVG Version: 6.00 Build 0)  -->
<!DOCTYPE svg PUBLIC "-//W3C//DTD SVG 1.1//EN" "http://www.w3.org/Graphics/SVG/1.1/DTD/svg11.dtd">
<svg version="1.1" id="图层_1" xmlns="http://www.w3.org/2000/svg" xmlns:xlink="http://www.w3.org/1999/xlink" x="0px" y="0px"
	 width="256px" height="256px" viewBox="0 0 256 256" enable-background="new 0 0 256 256" xml:space="preserve">
<polygon opacity="0.08" enable-background="new    " points="34.1,256 34.1,4 225.9,4 225.9,185 154.9,256 "/>
<polygon opacity="0.1" enable-background="new    " points="36.1,254 36.1,6 223.9,6 223.9,184.2 154,254 "/>
<polygon opacity="0.2" enable-background="new    " points="34.1,252 34.1,4 221.9,4 221.9,182.2 152,252 "/>
<polygon fill="#3E2723" points="36.1,250 36.1,6 219.9,6 219.9,181.3 151.2,250 "/>
<g>
	<g>
		
			<linearGradient id="SVGID_1_" gradientUnits="userSpaceOnUse" x1="169.6074" y1="84.0996" x2="169.6074" y2="-155.9009" gradientTransform="matrix(1 0 0 -1 -41.6001 92.0996)">
			<stop  offset="0" style="stop-color:#785548"/>
			<stop  offset="1" style="stop-color:#9F9E9F"/>
		</linearGradient>
		<polygon fill="url(#SVGID_1_)" points="38.102,248 38.102,8 217.914,8 217.914,180.406 151.07,248 		"/>
		<polygon fill="#795548" fill-opacity="0.7" points="217.914,180.5 217.914,177.594 146.727,177.594 146.727,248 150.414,248 		"/>
		<path opacity="0.39" fill="#FFFFFF" enable-background="new    " d="M150.32,180.5l67.594,0.094L150.414,248L150.32,180.5z"/>
	</g>
	<path fill="#FFFFFF" d="M102.352,54.266h-6.094v77.938h-4.594V54.266h-6.063v77.938h-4.594V54.266h-6.063v77.938h-4.594V54.266
		h-6.063v77.938h-1.594v33.016h41.719v-33.016h-2.063V54.266z M98.352,155.625H68.758v-19.141h29.594V155.625z"/>
	<g>
		<rect x="38.055" y="8" opacity="0.8" fill="#FFFFFF" enable-background="new    " width="179.891" height="46"/>
		<g enable-background="new    ">
			<path fill="#5D4037" d="M81.664,42.773c1.203,0,2.188-0.094,2.969-0.281c0.781-0.195,1.406-0.453,1.875-0.781
				c0.484-0.328,0.797-0.711,0.984-1.164c0.188-0.445,0.281-0.945,0.281-1.5c0-1.172-0.594-2.148-1.75-2.922
				s-3.156-1.609-5.984-2.508c-1.234-0.414-2.469-0.891-3.703-1.422s-2.344-1.211-3.328-2.016c-0.984-0.813-1.781-1.797-2.391-2.953
				c-0.625-1.156-0.922-2.563-0.922-4.211c0-1.656,0.313-3.148,0.969-4.477s1.578-2.461,2.781-3.391S76.102,13.5,77.805,13
				s3.625-0.75,5.766-0.75c2.547,0,4.734,0.258,6.594,0.781c1.844,0.516,3.375,1.086,4.578,1.703l-2.453,6.367
				c-1.063-0.523-2.234-0.977-3.516-1.375c-1.297-0.398-2.844-0.594-4.656-0.594c-2.031,0-3.5,0.266-4.391,0.805
				c-0.875,0.531-1.328,1.352-1.328,2.453c0,0.656,0.172,1.211,0.484,1.656c0.328,0.445,0.797,0.852,1.391,1.219
				c0.609,0.359,1.297,0.688,2.078,0.977c0.781,0.297,1.641,0.602,2.578,0.906c1.969,0.695,3.672,1.375,5.125,2.047
				s2.656,1.453,3.625,2.352c0.953,0.898,1.672,1.953,2.141,3.156c0.469,1.211,0.719,2.672,0.719,4.398
				c0,3.344-1.234,5.938-3.703,7.781c-2.469,1.852-6.203,2.773-11.172,2.773c-1.672,0-3.172-0.102-4.516-0.289
				s-2.531-0.422-3.563-0.695c-1.047-0.273-1.922-0.57-2.672-0.883c-0.75-0.305-1.375-0.602-1.875-0.875L71.43,40.5
				c1.125,0.586,2.516,1.109,4.172,1.578C77.242,42.539,79.273,42.773,81.664,42.773z"/>
			<path fill="#5D4037" d="M103.055,13.078h8.5V48.93h-8.5V13.078z"/>
			<path fill="#5D4037" d="M148.258,13.078v6.883h-11.391V48.93h-8.484V19.961h-11.391v-6.883H148.258z"/>
			<path fill="#5D4037" d="M176.805,48.93c-1.063-2-2.219-4.016-3.484-6.07c-1.266-2.047-2.719-3.773-4.359-5.195
				c-0.5,0.539-1.156,1.281-1.922,2.227c-0.781,0.953-1.563,1.961-2.344,3.023c-0.766,1.07-1.516,2.172-2.188,3.32
				s-1.172,2.047-1.516,2.695h-9.688c1.594-2.797,3.469-5.688,5.625-8.672c2.156-2.977,4.563-6.141,7.219-9.492l-12.313-17.688
				h10.313l7.188,10.383l7.344-10.383h9.688l-12.25,17.305c3.219,3.82,5.859,7.328,7.938,10.508
				c2.078,3.188,3.719,5.867,4.906,8.039H176.805z"/>
		</g>
	</g>
</g>
</svg>
