<?xml version="1.0" encoding="utf-8"?>
<!-- Generator: Adobe Illustrator 16.0.0, SVG Export Plug-In . SVG Version: 6.00 Build 0)  -->
<!DOCTYPE svg PUBLIC "-//W3C//DTD SVG 1.1//EN" "http://www.w3.org/Graphics/SVG/1.1/DTD/svg11.dtd">
<svg version="1.1" id="图层_1" xmlns="http://www.w3.org/2000/svg" xmlns:xlink="http://www.w3.org/1999/xlink" x="0px" y="0px"
	 width="256px" height="256px" viewBox="0 0 256 256" enable-background="new 0 0 256 256" xml:space="preserve">
<g id="surface1">
	<polygon opacity="0.08" enable-background="new    " points="34.5,256 34.5,4 225.5,4 225.5,185.031 154.531,256 	"/>
	<polygon opacity="0.1" enable-background="new    " points="36.5,254 36.5,6 223.5,6 223.5,184.203 153.703,254 	"/>
	<polygon opacity="0.2" enable-background="new    " points="34.5,252 34.5,4 221.5,4 221.5,182.203 151.703,252 	"/>
	<g>
		
			<linearGradient id="SVGID_1_" gradientUnits="userSpaceOnUse" x1="294.4004" y1="1803.9609" x2="294.4004" y2="1559.9609" gradientTransform="matrix(1 0 0 1 -166.4004 -1553.9609)">
			<stop  offset="0" style="stop-color:#F57C00"/>
			<stop  offset="0.099" style="stop-color:#F78B0C"/>
			<stop  offset="0.3289" style="stop-color:#FAA823"/>
			<stop  offset="0.5576" style="stop-color:#FDBC33"/>
			<stop  offset="0.7827" style="stop-color:#FEC93D"/>
			<stop  offset="1" style="stop-color:#FFCD40"/>
		</linearGradient>
		<path fill="url(#SVGID_1_)" d="M150.875,250l68.625-68.625V6h-183v244H150.875z"/>
		<polygon fill="#EE6F0B" fill-opacity="0.3922" points="147.063,177.563 147.063,250 150.875,250 219.5,181.375 219.5,177.563 		
			"/>
		<path fill="#FFFFFF" fill-opacity="0.3922" d="M150.875,181.375h68.567L150.875,250V181.375z"/>
		<path opacity="0.8" fill="#FFFFFF" d="M128,51.746c-4.141,0-7.625,2.383-9.203,5.733c-3.159-2.173-7.537-2.562-11.142-0.582
			c-3.543,1.923-5.419,5.69-5.062,9.324c-3.843-0.343-7.806,1.46-9.86,4.839c-2.054,3.381-1.639,7.551,0.625,10.53
			c-3.543,1.503-6.015,4.825-6.015,8.742c0,3.932,2.471,7.223,6.015,8.74c-2.264,2.995-2.679,7.136-0.625,10.546
			c2.054,3.381,6.017,5.152,9.86,4.811c-0.357,3.661,1.518,7.399,5.062,9.351c1.61,0.879,3.367,1.22,5.094,1.22v41.12L128,151.644
			l15.25,14.478v-41.12c1.726,0,3.483-0.341,5.095-1.22c3.541-1.952,5.418-5.69,5.061-9.351c3.846,0.341,7.807-1.43,9.86-4.811
			c2.054-3.41,1.64-7.551-0.624-10.546c3.541-1.518,6.014-4.809,6.014-8.74c0-3.917-2.473-7.239-6.014-8.742
			c2.264-2.979,2.678-7.148,0.624-10.53c-2.054-3.379-6.015-5.183-9.86-4.839c0.357-3.634-1.52-7.401-5.061-9.324
			c-3.607-1.98-7.982-1.592-11.143,0.582C135.625,54.129,132.142,51.746,128,51.746z M128,66.057
			c14.03,0,25.405,10.813,25.405,24.126c0,13.315-11.375,24.095-25.405,24.095c-14.03,0-25.406-10.78-25.406-24.095
			C102.594,76.87,113.97,66.057,128,66.057z M128,70.899c-11.228,0-20.344,8.621-20.344,19.284c0,10.632,9.116,19.284,20.344,19.284
			c11.228,0,20.345-8.652,20.345-19.284C148.345,79.52,139.228,70.899,128,70.899z"/>
		<g>
			<path fill="#EE6F0B" d="M217.5,8v172.547L150.047,248H97.5h-59V8H217.5 M219.5,6h-183v244h61h53.375l68.625-68.625V6L219.5,6z"/>
		</g>
	</g>
</g>
</svg>
