<?xml version="1.0" encoding="utf-8"?>
<!-- Generator: Adobe Illustrator 21.0.0, SVG Export Plug-In . SVG Version: 6.00 Build 0)  -->
<svg version="1.1" id="图层_1" xmlns="http://www.w3.org/2000/svg" xmlns:xlink="http://www.w3.org/1999/xlink" x="0px" y="0px"
	 viewBox="0 0 256 256" style="enable-background:new 0 0 256 256;" xml:space="preserve">
<style type="text/css">
	.st0{opacity:0.08;enable-background:new    ;}
	.st1{opacity:0.1;enable-background:new    ;}
	.st2{opacity:0.2;enable-background:new    ;}
	.st3{fill:#3E2723;}
	.st4{fill:url(#SVGID_1_);}
	.st5{fill:#795548;fill-opacity:0.7;}
	.st6{opacity:0.39;fill:#FFFFFF;enable-background:new    ;}
	.st7{fill:#FFFFFF;}
	.st8{opacity:0.8;fill:#FFFFFF;enable-background:new    ;}
	.st9{enable-background:new    ;}
	.st10{fill:#5D4037;}
</style>
<polygon class="st0" points="34.1,256 34.1,4 225.9,4 225.9,185 154.9,256 "/>
<polygon class="st1" points="36.1,254 36.1,6 223.9,6 223.9,184.2 154,254 "/>
<polygon class="st2" points="34.1,252 34.1,4 221.9,4 221.9,182.2 152,252 "/>
<polygon class="st3" points="36.1,250 36.1,6 219.9,6 219.9,181.3 151.2,250 "/>
<g>
	<g>
		
			<linearGradient id="SVGID_1_" gradientUnits="userSpaceOnUse" x1="169.6001" y1="-425.9004" x2="169.6001" y2="-665.9004" gradientTransform="matrix(1 0 0 -1 -41.6001 -417.9004)">
			<stop  offset="0" style="stop-color:#785548"/>
			<stop  offset="1" style="stop-color:#9F9E9F"/>
		</linearGradient>
		<polygon class="st4" points="38.1,248 38.1,8 217.9,8 217.9,180.4 151.1,248 		"/>
		<polygon class="st5" points="217.9,180.5 217.9,177.6 146.7,177.6 146.7,248 150.4,248 		"/>
		<path class="st6" d="M150.3,180.5l67.6,0.1L150.4,248L150.3,180.5z"/>
	</g>
	<path class="st7" d="M102.4,54.3h-6.1v77.9h-4.6V54.3h-6.1v77.9H81V54.3h-6.1v77.9h-4.6V54.3h-6.1v77.9h-1.6v33h41.7v-33h-2.1
		L102.4,54.3L102.4,54.3z M98.4,155.6H68.8v-19.1h29.6V155.6z"/>
	<g>
		<rect x="38.1" y="8" class="st8" width="179.9" height="46"/>
		<g class="st9">
			<path class="st10" d="M88.5,19.3c-4,0-6.8,1-8.6,3.1c-1.8,2.1-2.6,4.9-2.6,8.6c0,1.8,0.2,3.4,0.7,4.8s1.1,2.7,2,3.7
				s2,1.8,3.3,2.4c1.3,0.6,2.8,0.9,4.6,0.9c1,0,1.8,0,2.4,0c0.7,0,1.3-0.1,1.8-0.2V30h8.5v17.8c-1,0.4-2.6,0.8-4.9,1.2
				s-5,0.6-8.3,0.6c-2.8,0-5.4-0.4-7.7-1.2c-2.3-0.8-4.3-2-5.9-3.6s-2.9-3.5-3.8-5.9c-0.9-2.3-1.3-4.9-1.3-7.9s0.5-5.7,1.5-8
				s2.3-4.3,4-5.9c1.7-1.6,3.7-2.8,6-3.6s4.8-1.2,7.4-1.2c1.8,0,3.4,0.1,4.8,0.3s2.7,0.5,3.7,0.8s1.9,0.6,2.6,0.9
				c0.7,0.3,1.2,0.5,1.4,0.7l-2.5,6.5c-1.2-0.6-2.5-1.1-4-1.5C91.9,19.5,90.3,19.3,88.5,19.3z"/>
			<path class="st10" d="M134.9,18.7c-1.2,1.1-2.5,2.6-4.1,4.4s-3.3,3.8-5,5.9s-3.4,4.3-5.1,6.6s-3.2,4.5-4.5,6.5h19.3v6.8h-29.7
				v-4.8c1-1.8,2.3-3.7,3.7-5.9c1.5-2.2,3-4.3,4.6-6.5s3.2-4.3,4.9-6.4c1.7-2.1,3.2-3.9,4.6-5.5h-16.9V13h28.2L134.9,18.7
				L134.9,18.7z"/>
			<path class="st10" d="M141.5,13.1h8.5V49h-8.5V13.1z"/>
			<path class="st10" d="M170.1,12.7c5.6,0,10,0.9,13,2.8s4.5,5,4.5,9.2c0,4.3-1.5,7.4-4.6,9.3c-3,1.9-7.4,2.9-13.1,2.9h-2.7v12
				h-8.5V13.6c1.8-0.3,3.8-0.6,5.9-0.7C166.7,12.7,168.5,12.7,170.1,12.7z M170.6,19.5c-0.6,0-1.2,0-1.8,0.1c-0.6,0-1.1,0.1-1.5,0.1
				V30h2.7c2.9,0,5.2-0.4,6.7-1.1c1.5-0.8,2.2-2.2,2.2-4.2c0-1-0.2-1.8-0.6-2.5s-0.9-1.2-1.6-1.6c-0.7-0.4-1.6-0.7-2.6-0.8
				C173,19.6,171.8,19.5,170.6,19.5z"/>
		</g>
	</g>
</g>
</svg>
