<?xml version="1.0" encoding="utf-8"?>
<!-- Generator: Adobe Illustrator 17.1.0, SVG Export Plug-In . SVG Version: 6.00 Build 0)  -->
<!DOCTYPE svg PUBLIC "-//W3C//DTD SVG 1.1//EN" "http://www.w3.org/Graphics/SVG/1.1/DTD/svg11.dtd">
<svg version="1.1"
	 id="svg2" inkscape:version="0.48.4 r9939" sodipodi:docname="computer.svg" xmlns:dc="http://purl.org/dc/elements/1.1/" xmlns:rdf="http://www.w3.org/1999/02/22-rdf-syntax-ns#" xmlns:sodipodi="http://sodipodi.sourceforge.net/DTD/sodipodi-0.dtd" xmlns:cc="http://creativecommons.org/ns#" xmlns:svg="http://www.w3.org/2000/svg" xmlns:inkscape="http://www.inkscape.org/namespaces/inkscape"
	 xmlns="http://www.w3.org/2000/svg" xmlns:xlink="http://www.w3.org/1999/xlink" x="0px" y="0px" width="256px" height="256px"
	 viewBox="530 0 256 256" enable-background="new 530 0 256 256" xml:space="preserve">
<polygon opacity="8.000000e-002" enable-background="new    " points="564.1,256 564.1,4 755.9,4 755.9,185 684.9,256 "/>
<polygon opacity="0.1" enable-background="new    " points="566.1,254 566.1,6 753.9,6 753.9,184.2 684,254 "/>
<polygon opacity="0.2" enable-background="new    " points="564.1,252 564.1,4 751.9,4 751.9,182.2 682,252 "/>
<polygon fill="#0D47A1" points="566.1,250 566.1,6 749.9,6 749.9,181.3 681.2,250 "/>
<g>
	<g>
		<g>
			<g>
				
					<linearGradient id="SVGID_1_" gradientUnits="userSpaceOnUse" x1="658.078" y1="264" x2="658.078" y2="504" gradientTransform="matrix(1 0 0 -1 0 512)">
					<stop  offset="0" style="stop-color:#3F51B5"/>
					<stop  offset="1" style="stop-color:#64B5F6"/>
				</linearGradient>
				<polygon fill="url(#SVGID_1_)" points="568.2,248 568.2,8 748,8 748,180.5 680.5,248 				"/>
			</g>
			<polygon fill="#2196F3" fill-opacity="0.7" points="748,180.5 748,177.6 676.8,177.6 676.8,248 680.5,248 			"/>
			<path opacity="0.39" fill="#FFFFFF" enable-background="new    " d="M680.4,180.5l67.6,0.1L680.5,248L680.4,180.5z"/>
		</g>
		<g enable-background="new    ">
			<polygon opacity="0.8" fill="#FFFFFF" enable-background="new    " points="618,77 648.5,77 648.5,69.5 610.5,69.5 610.5,107.5 
				618,107.5 			"/>
			<polygon opacity="0.8" fill="#FFFFFF" enable-background="new    " points="667.5,69.5 667.5,77 698,77 698,107.5 705.5,107.5 
				705.5,69.5 			"/>
			<polygon opacity="0.8" fill="#FFFFFF" enable-background="new    " points="705.5,126.5 698,126.5 698,157 667.5,157 
				667.5,164.5 705.5,164.5 			"/>
			<polygon opacity="0.8" fill="#FFFFFF" enable-background="new    " points="618,157 618,126.5 610.5,126.5 610.5,164.5 
				648.5,164.5 648.5,157 			"/>
		</g>
	</g>
	<g>
		<rect x="568" y="8" opacity="0.8" fill="#FFFFFF" enable-background="new    " width="179.9" height="46"/>
	</g>
</g>
<g>
	<g>
		<path fill="#1976D2" d="M633.4,30.9c0,3.1-0.5,5.8-1.4,8.1c-0.9,2.3-2.2,4.3-3.8,5.9c-1.6,1.6-3.5,2.8-5.7,3.6
			c-2.2,0.8-4.6,1.2-7.1,1.2c-2.5,0-4.8-0.4-7-1.2c-2.2-0.8-4.1-2-5.7-3.6c-1.6-1.6-2.9-3.5-3.9-5.9s-1.4-5.1-1.4-8.1
			c0-3.1,0.5-5.8,1.5-8.1c1-2.3,2.3-4.3,3.9-5.9c1.6-1.6,3.6-2.8,5.7-3.6c2.2-0.8,4.4-1.2,6.8-1.2c2.5,0,4.8,0.4,7,1.2
			c2.2,0.8,4.1,2,5.7,3.6c1.6,1.6,2.9,3.6,3.9,5.9S633.4,27.8,633.4,30.9z M605.9,30.9c0,1.8,0.2,3.4,0.7,4.8
			c0.4,1.4,1.1,2.6,1.9,3.7c0.8,1,1.8,1.8,3,2.4c1.2,0.6,2.5,0.8,4.1,0.8c1.5,0,2.8-0.3,4-0.8c1.2-0.6,2.2-1.3,3-2.4
			c0.8-1,1.4-2.2,1.9-3.7c0.4-1.4,0.7-3,0.7-4.8c0-1.8-0.2-3.4-0.7-4.8c-0.4-1.4-1.1-2.7-1.9-3.7c-0.8-1-1.8-1.8-3-2.4
			c-1.2-0.6-2.5-0.8-4-0.8c-1.5,0-2.9,0.3-4.1,0.9c-1.2,0.6-2.2,1.4-3,2.4c-0.8,1-1.4,2.3-1.9,3.7C606.1,27.5,605.9,29.1,605.9,30.9
			z"/>
		<path fill="#1976D2" d="M671.8,30.9c0,3.1-0.5,5.8-1.5,8.2c-1,2.3-2.4,4.3-4.1,5.8c-1.8,1.5-4,2.7-6.5,3.4
			c-2.6,0.8-5.4,1.1-8.6,1.1c-1.5,0-3.2-0.1-5.1-0.2c-1.9-0.1-3.9-0.4-5.7-0.8V13.3c1.9-0.3,3.8-0.6,5.9-0.7c2-0.1,3.8-0.2,5.2-0.2
			c3.1,0,5.9,0.3,8.4,1c2.5,0.7,4.7,1.8,6.5,3.3c1.8,1.5,3.2,3.4,4.2,5.7C671.3,24.8,671.8,27.6,671.8,30.9z M648.3,42.3
			c0.4,0,0.8,0.1,1.3,0.1c0.5,0,1.1,0,1.8,0c4.1,0,7.1-1,9-3.1c2-2,2.9-4.9,2.9-8.5c0-3.8-0.9-6.6-2.8-8.6c-1.9-1.9-4.8-2.9-8.9-2.9
			c-0.6,0-1.1,0-1.7,0c-0.6,0-1.1,0.1-1.7,0.1V42.3z"/>
		<path fill="#1976D2" d="M688.1,12.9c0.6,1.1,1.3,2.6,2.2,4.2c0.8,1.7,1.7,3.5,2.6,5.5c0.9,2,1.8,4,2.6,6c0.9,2,1.7,4,2.5,5.8
			c0.8-1.8,1.6-3.7,2.5-5.8c0.9-2,1.7-4.1,2.6-6c0.9-2,1.7-3.8,2.6-5.5c0.8-1.7,1.5-3.1,2.2-4.2h7.4c0.3,2.4,0.7,5.1,1,8
			s0.6,6.1,0.8,9.3c0.2,3.2,0.4,6.4,0.6,9.7c0.2,3.2,0.4,6.3,0.5,9.1h-7.9c-0.1-3.5-0.2-7.3-0.4-11.4c-0.2-4.1-0.4-8.3-0.8-12.5
			c-0.6,1.5-1.3,3.1-2.1,4.8s-1.5,3.5-2.3,5.3c-0.7,1.8-1.5,3.5-2.2,5.1c-0.7,1.6-1.3,3-1.8,4.1h-5.7c-0.5-1.1-1.1-2.5-1.8-4.1
			s-1.4-3.3-2.2-5.1c-0.7-1.8-1.5-3.5-2.3-5.3s-1.5-3.4-2.1-4.8c-0.3,4.2-0.6,8.4-0.8,12.5c-0.2,4.1-0.3,7.9-0.4,11.4h-7.9
			c0.1-2.8,0.3-5.9,0.5-9.1c0.2-3.2,0.4-6.4,0.6-9.7c0.2-3.2,0.5-6.3,0.8-9.3s0.6-5.6,1-8H688.1z"/>
	</g>
</g>
</svg>
