<?xml version="1.0" encoding="utf-8"?>
<!-- Generator: Adobe Illustrator 21.0.0, SVG Export Plug-In . SVG Version: 6.00 Build 0)  -->
<svg version="1.1"
	 id="svg2" inkscape:version="0.48.4 r9939" sodipodi:docname="computer.svg" xmlns:cc="http://creativecommons.org/ns#" xmlns:dc="http://purl.org/dc/elements/1.1/" xmlns:inkscape="http://www.inkscape.org/namespaces/inkscape" xmlns:rdf="http://www.w3.org/1999/02/22-rdf-syntax-ns#" xmlns:sodipodi="http://sodipodi.sourceforge.net/DTD/sodipodi-0.dtd" xmlns:svg="http://www.w3.org/2000/svg"
	 xmlns="http://www.w3.org/2000/svg" xmlns:xlink="http://www.w3.org/1999/xlink" x="0px" y="0px" viewBox="0 0 256 256"
	 style="enable-background:new 0 0 256 256;" xml:space="preserve">
<style type="text/css">
	.st0{opacity:0.08;enable-background:new    ;}
	.st1{opacity:0.1;enable-background:new    ;}
	.st2{opacity:0.2;enable-background:new    ;}
	.st3{fill:#0D47A1;}
	.st4{fill:url(#SVGID_1_);}
	.st5{fill:#2196F3;fill-opacity:0.7;}
	.st6{opacity:0.39;fill:#FFFFFF;enable-background:new    ;}
	.st7{enable-background:new    ;}
	.st8{opacity:0.8;fill:#FFFFFF;enable-background:new    ;}
	.st9{fill:#1976D2;}
</style>
<polygon class="st0" points="34.1,256 34.1,4 225.9,4 225.9,185 154.9,256 "/>
<polygon class="st1" points="36.1,254 36.1,6 223.9,6 223.9,184.2 154,254 "/>
<polygon class="st2" points="34.1,252 34.1,4 221.9,4 221.9,182.2 152,252 "/>
<polygon class="st3" points="36.1,250 36.1,6 219.9,6 219.9,181.3 151.2,250 "/>
<g>
	<g>
		<g>
			<g>
				
					<linearGradient id="SVGID_1_" gradientUnits="userSpaceOnUse" x1="128.1" y1="865.28" x2="128.1" y2="625.28" gradientTransform="matrix(1 0 0 1 0 -617.28)">
					<stop  offset="0" style="stop-color:#3F51B5"/>
					<stop  offset="1" style="stop-color:#64B5F6"/>
				</linearGradient>
				<polygon class="st4" points="38.2,248 38.2,8 218,8 218,180.5 150.5,248 				"/>
			</g>
			<polygon class="st5" points="218,180.5 218,177.6 146.8,177.6 146.8,248 150.5,248 			"/>
			<path class="st6" d="M150.4,180.5l67.6,0.1L150.5,248L150.4,180.5z"/>
		</g>
		<g class="st7">
			<polygon class="st8" points="88,77 118.5,77 118.5,69.5 80.5,69.5 80.5,107.5 88,107.5 			"/>
			<polygon class="st8" points="137.5,69.5 137.5,77 168,77 168,107.5 175.5,107.5 175.5,69.5 			"/>
			<polygon class="st8" points="175.5,126.5 168,126.5 168,157 137.5,157 137.5,164.5 175.5,164.5 			"/>
			<polygon class="st8" points="88,157 88,126.5 80.5,126.5 80.5,164.5 118.5,164.5 118.5,157 			"/>
		</g>
	</g>
	<g>
		<rect x="38" y="8" class="st8" width="179.9" height="46"/>
	</g>
</g>
<g>
	<g>
		<path class="st9" d="M103.4,30.9c0,3.1-0.5,5.8-1.4,8.1s-2.2,4.3-3.8,5.9c-1.6,1.6-3.5,2.8-5.7,3.6s-4.6,1.2-7.1,1.2
			s-4.8-0.4-7-1.2s-4.1-2-5.7-3.6s-2.9-3.5-3.9-5.9s-1.4-5.1-1.4-8.1c0-3.1,0.5-5.8,1.5-8.1s2.3-4.3,3.9-5.9s3.6-2.8,5.7-3.6
			c2.2-0.8,4.4-1.2,6.8-1.2c2.5,0,4.8,0.4,7,1.2s4.1,2,5.7,3.6s2.9,3.6,3.9,5.9S103.4,27.8,103.4,30.9z M75.9,30.9
			c0,1.8,0.2,3.4,0.7,4.8c0.4,1.4,1.1,2.6,1.9,3.7c0.8,1,1.8,1.8,3,2.4c1.2,0.6,2.5,0.8,4.1,0.8c1.5,0,2.8-0.3,4-0.8
			c1.2-0.6,2.2-1.3,3-2.4c0.8-1,1.4-2.2,1.9-3.7c0.4-1.4,0.7-3,0.7-4.8s-0.2-3.4-0.7-4.8c-0.4-1.4-1.1-2.7-1.9-3.7s-1.8-1.8-3-2.4
			s-2.5-0.8-4-0.8s-2.9,0.3-4.1,0.9s-2.2,1.4-3,2.4s-1.4,2.3-1.9,3.7C76.1,27.5,75.9,29.1,75.9,30.9z"/>
		<path class="st9" d="M141.8,30.9c0,3.1-0.5,5.8-1.5,8.2c-1,2.3-2.4,4.3-4.1,5.8c-1.8,1.5-4,2.7-6.5,3.4c-2.6,0.8-5.4,1.1-8.6,1.1
			c-1.5,0-3.2-0.1-5.1-0.2c-1.9-0.1-3.9-0.4-5.7-0.8V13.3c1.9-0.3,3.8-0.6,5.9-0.7c2-0.1,3.8-0.2,5.2-0.2c3.1,0,5.9,0.3,8.4,1
			s4.7,1.8,6.5,3.3s3.2,3.4,4.2,5.7C141.3,24.8,141.8,27.6,141.8,30.9z M118.3,42.3c0.4,0,0.8,0.1,1.3,0.1s1.1,0,1.8,0
			c4.1,0,7.1-1,9-3.1c2-2,2.9-4.9,2.9-8.5c0-3.8-0.9-6.6-2.8-8.6c-1.9-1.9-4.8-2.9-8.9-2.9c-0.6,0-1.1,0-1.7,0s-1.1,0.1-1.7,0.1
			L118.3,42.3L118.3,42.3z"/>
		<path class="st9" d="M158.1,12.9c0.6,1.1,1.3,2.6,2.2,4.2c0.8,1.7,1.7,3.5,2.6,5.5c0.9,2,1.8,4,2.6,6c0.9,2,1.7,4,2.5,5.8
			c0.8-1.8,1.6-3.7,2.5-5.8c0.9-2,1.7-4.1,2.6-6c0.9-2,1.7-3.8,2.6-5.5c0.8-1.7,1.5-3.1,2.2-4.2h7.4c0.3,2.4,0.7,5.1,1,8
			s0.6,6.1,0.8,9.3s0.4,6.4,0.6,9.7c0.2,3.2,0.4,6.3,0.5,9.1h-7.9c-0.1-3.5-0.2-7.3-0.4-11.4s-0.4-8.3-0.8-12.5
			c-0.6,1.5-1.3,3.1-2.1,4.8s-1.5,3.5-2.3,5.3c-0.7,1.8-1.5,3.5-2.2,5.1s-1.3,3-1.8,4.1H165c-0.5-1.1-1.1-2.5-1.8-4.1
			s-1.4-3.3-2.2-5.1c-0.7-1.8-1.5-3.5-2.3-5.3s-1.5-3.4-2.1-4.8c-0.3,4.2-0.6,8.4-0.8,12.5s-0.3,7.9-0.4,11.4h-7.9
			c0.1-2.8,0.3-5.9,0.5-9.1c0.2-3.2,0.4-6.4,0.6-9.7c0.2-3.2,0.5-6.3,0.8-9.3s0.6-5.6,1-8C150.4,12.9,158.1,12.9,158.1,12.9z"/>
	</g>
</g>
</svg>
