<?xml version="1.0" encoding="utf-8"?>
<!-- Generator: Adobe Illustrator 21.0.0, SVG Export Plug-In . SVG Version: 6.00 Build 0)  -->
<svg version="1.1" id="图层_1" xmlns="http://www.w3.org/2000/svg" xmlns:xlink="http://www.w3.org/1999/xlink" x="0px" y="0px"
	 viewBox="0 0 256 256" style="enable-background:new 0 0 256 256;" xml:space="preserve">
<style type="text/css">
	.st0{opacity:0.08;enable-background:new    ;}
	.st1{opacity:0.1;enable-background:new    ;}
	.st2{opacity:0.2;enable-background:new    ;}
	.st3{fill:#0D47A1;}
	.st4{fill:url(#SVGID_1_);}
	.st5{fill:#2196F3;fill-opacity:0.7;}
	.st6{opacity:0.39;fill:#FFFFFF;enable-background:new    ;}
	.st7{opacity:0.8;}
	.st8{opacity:0.8;fill:url(#SVGID_2_);enable-background:new    ;}
	.st9{opacity:0.8;fill:url(#SVGID_3_);enable-background:new    ;}
	.st10{opacity:0.8;fill:url(#SVGID_4_);enable-background:new    ;}
	.st11{fill:url(#SVGID_5_);}
	.st12{fill:url(#SVGID_6_);}
	.st13{fill:url(#SVGID_7_);}
	.st14{fill:url(#SVGID_8_);}
	.st15{opacity:0.8;fill:#FFFFFF;enable-background:new    ;}
	.st16{fill:#1976D2;}
</style>
<polygon class="st0" points="34.1,256 34.1,4 225.9,4 225.9,185 154.9,256 "/>
<polygon class="st1" points="36.1,254 36.1,6 223.9,6 223.9,184.2 154,254 "/>
<polygon class="st2" points="34.1,252 34.1,4 221.9,4 221.9,182.2 152,252 "/>
<polygon class="st3" points="36.1,250 36.1,6 219.9,6 219.9,181.3 151.2,250 "/>
<g>
	<g>
		<g>
			<g>
				
					<linearGradient id="SVGID_1_" gradientUnits="userSpaceOnUse" x1="128.1" y1="782" x2="128.1" y2="542" gradientTransform="matrix(1 0 0 1 0 -534)">
					<stop  offset="0" style="stop-color:#3F51B5"/>
					<stop  offset="1" style="stop-color:#64B5F6"/>
				</linearGradient>
				<polygon class="st4" points="38.2,248 38.2,8 218,8 218,180.5 150.5,248 				"/>
			</g>
			<polygon class="st5" points="218,180.5 218,177.6 146.8,177.6 146.8,248 150.5,248 			"/>
			<path class="st6" d="M150.4,180.5l67.6,0.1L150.5,248L150.4,180.5z"/>
		</g>
		<g class="st7">
			
				<linearGradient id="SVGID_2_" gradientUnits="userSpaceOnUse" x1="64.8" y1="623.85" x2="191.2" y2="623.85" gradientTransform="matrix(1 0 0 1 0 -534)">
				<stop  offset="0" style="stop-color:#F6F5F5"/>
				<stop  offset="0.341" style="stop-color:#F1F2F3"/>
				<stop  offset="0.6434" style="stop-color:#E7EAEB"/>
				<stop  offset="0.9302" style="stop-color:#D5DBDF"/>
				<stop  offset="1" style="stop-color:#CFD7DB"/>
			</linearGradient>
			<rect x="64.8" y="86.7" class="st8" width="126.4" height="6.3"/>
			
				<linearGradient id="SVGID_3_" gradientUnits="userSpaceOnUse" x1="64.8" y1="604.35" x2="191.2" y2="604.35" gradientTransform="matrix(1 0 0 1 0 -534)">
				<stop  offset="0" style="stop-color:#F6F5F5"/>
				<stop  offset="0.341" style="stop-color:#F1F2F3"/>
				<stop  offset="0.6434" style="stop-color:#E7EAEB"/>
				<stop  offset="0.9302" style="stop-color:#D5DBDF"/>
				<stop  offset="1" style="stop-color:#CFD7DB"/>
			</linearGradient>
			<rect x="64.8" y="67.2" class="st9" width="126.4" height="6.3"/>
			
				<linearGradient id="SVGID_4_" gradientUnits="userSpaceOnUse" x1="125.1" y1="672.1" x2="191.1" y2="672.1" gradientTransform="matrix(1 0 0 1 0 -534)">
				<stop  offset="0" style="stop-color:#F6F5F5"/>
				<stop  offset="0.341" style="stop-color:#F1F2F3"/>
				<stop  offset="0.6434" style="stop-color:#E7EAEB"/>
				<stop  offset="0.9302" style="stop-color:#D5DBDF"/>
				<stop  offset="1" style="stop-color:#CFD7DB"/>
			</linearGradient>
			<rect x="125.1" y="105.1" class="st10" width="66" height="66"/>
			<g class="st7">
				
					<linearGradient id="SVGID_5_" gradientUnits="userSpaceOnUse" x1="64.8" y1="643.45" x2="119.7" y2="643.45" gradientTransform="matrix(1 0 0 1 0 -534)">
					<stop  offset="0" style="stop-color:#F6F5F5"/>
					<stop  offset="0.341" style="stop-color:#F1F2F3"/>
					<stop  offset="0.6434" style="stop-color:#E7EAEB"/>
					<stop  offset="0.9302" style="stop-color:#D5DBDF"/>
					<stop  offset="1" style="stop-color:#CFD7DB"/>
				</linearGradient>
				<rect x="64.8" y="106.3" class="st11" width="54.9" height="6.3"/>
				
					<linearGradient id="SVGID_6_" gradientUnits="userSpaceOnUse" x1="64.8" y1="662.9" x2="119.7" y2="662.9" gradientTransform="matrix(1 0 0 1 0 -534)">
					<stop  offset="0" style="stop-color:#F6F5F5"/>
					<stop  offset="0.341" style="stop-color:#F1F2F3"/>
					<stop  offset="0.6434" style="stop-color:#E7EAEB"/>
					<stop  offset="0.9302" style="stop-color:#D5DBDF"/>
					<stop  offset="1" style="stop-color:#CFD7DB"/>
				</linearGradient>
				<rect x="64.8" y="125.8" class="st12" width="54.9" height="6.2"/>
				
					<linearGradient id="SVGID_7_" gradientUnits="userSpaceOnUse" x1="64.8" y1="682.55" x2="119.7" y2="682.55" gradientTransform="matrix(1 0 0 1 0 -534)">
					<stop  offset="0" style="stop-color:#F6F5F5"/>
					<stop  offset="0.341" style="stop-color:#F1F2F3"/>
					<stop  offset="0.6434" style="stop-color:#E7EAEB"/>
					<stop  offset="0.9302" style="stop-color:#D5DBDF"/>
					<stop  offset="1" style="stop-color:#CFD7DB"/>
				</linearGradient>
				<rect x="64.8" y="145.4" class="st13" width="54.9" height="6.3"/>
				
					<linearGradient id="SVGID_8_" gradientUnits="userSpaceOnUse" x1="64.8" y1="702.15" x2="119.7" y2="702.15" gradientTransform="matrix(1 0 0 1 0 -534)">
					<stop  offset="0" style="stop-color:#F6F5F5"/>
					<stop  offset="0.341" style="stop-color:#F1F2F3"/>
					<stop  offset="0.6434" style="stop-color:#E7EAEB"/>
					<stop  offset="0.9302" style="stop-color:#D5DBDF"/>
					<stop  offset="1" style="stop-color:#CFD7DB"/>
				</linearGradient>
				<rect x="64.8" y="165" class="st14" width="54.9" height="6.3"/>
			</g>
		</g>
	</g>
	<g>
		<rect x="38" y="8" class="st15" width="179.9" height="46"/>
	</g>
	<g>
		<path class="st16" d="M91.8,12.6c5.7,0,10,1,13,2.9s4.5,4.9,4.5,8.9c0,2.5-0.6,4.6-1.8,6.1c-1.2,1.6-3,2.8-5.3,3.7
			c0.8,0.9,1.6,1.9,2.4,3.1s1.7,2.4,2.5,3.6c0.8,1.3,1.6,2.6,2.4,3.9c0.8,1.4,1.5,2.7,2.1,4h-9.5c-0.7-1.2-1.4-2.4-2.1-3.6
			c-0.7-1.2-1.4-2.4-2.2-3.5c-0.8-1.1-1.5-2.2-2.2-3.2s-1.5-1.9-2.2-2.8h-4.2v13.1h-8.5V13.5c1.9-0.3,3.8-0.6,5.7-0.7
			C88.4,12.7,90.2,12.6,91.8,12.6z M92.3,19.5c-0.6,0-1.2,0-1.7,0.1c-0.5,0-1,0.1-1.4,0.1v9.7h2.4c3.2,0,5.5-0.4,6.9-1.1
			c1.4-0.8,2.1-2.1,2.1-3.9s-0.7-3-2.1-3.8S95,19.5,92.3,19.5z"/>
		<path class="st16" d="M144.5,13v6.9h-11.4v29h-8.5v-29h-11.4V13C113.2,13,144.5,13,144.5,13z"/>
		<path class="st16" d="M149.9,48.9V13h25.3v6.8h-16.8v7.5h14.9v6.8h-14.9v14.8L149.9,48.9L149.9,48.9z"/>
	</g>
</g>
</svg>
