<?xml version="1.0" encoding="utf-8"?>
<!-- Generator: Adobe Illustrator 21.0.0, SVG Export Plug-In . SVG Version: 6.00 Build 0)  -->
<svg version="1.1" id="图层_1" xmlns="http://www.w3.org/2000/svg" xmlns:xlink="http://www.w3.org/1999/xlink" x="0px" y="0px"
	 viewBox="0 0 256 256" style="enable-background:new 0 0 256 256;" xml:space="preserve">
<style type="text/css">
	.st0{opacity:0.08;enable-background:new    ;}
	.st1{opacity:0.1;enable-background:new    ;}
	.st2{opacity:0.2;enable-background:new    ;}
	.st3{fill:url(#SVGID_1_);}
	.st4{fill:#BF360C;fill-opacity:0.3922;}
	.st5{fill:#FFFFFF;fill-opacity:0.3922;}
	.st6{opacity:0.8;fill:#FFFFFF;enable-background:new    ;}
	.st7{fill:#BF360C;}
</style>
<g id="surface1">
	<polygon class="st0" points="34.5,256 34.5,4 225.5,4 225.5,185 154.5,256 	"/>
	<polygon class="st1" points="36.5,254 36.5,6 223.5,6 223.5,184.2 153.7,254 	"/>
	<polygon class="st2" points="34.5,252 34.5,4 221.5,4 221.5,182.2 151.7,252 	"/>
</g>
<linearGradient id="SVGID_1_" gradientUnits="userSpaceOnUse" x1="294.4004" y1="2337.9609" x2="294.4004" y2="2093.9609" gradientTransform="matrix(1 0 0 1 -166.4004 -2087.9609)">
	<stop  offset="0" style="stop-color:#FF5722"/>
	<stop  offset="0.2433" style="stop-color:#FF5B20"/>
	<stop  offset="0.4954" style="stop-color:#FF6819"/>
	<stop  offset="0.7506" style="stop-color:#FF7C0F"/>
	<stop  offset="1" style="stop-color:#FF9800"/>
</linearGradient>
<path class="st3" d="M150.9,250l68.6-68.6V6h-183v244H150.9z"/>
<polygon class="st4" points="147.1,177.6 147.1,250 150.9,250 219.5,181.4 219.5,177.6 "/>
<path class="st5" d="M150.9,181.4h68.6L150.9,250V181.4z"/>
<path class="st6" d="M70.8,150.6c0-3.3,1.1-6,3.4-8.3s5-3.4,8.3-3.4c3.2,0,5.9,1.1,8.1,3.4c2.3,2.2,3.4,5,3.4,8.3
	c0,3.2-1.1,5.9-3.4,8.2c-2.2,2.2-4.9,3.3-8.1,3.3c-3.3,0-6-1.1-8.3-3.3S70.8,153.8,70.8,150.6 M70.1,98v19.4
	c24.8,0,44.9,20.1,44.9,45h19.4C134.5,126.8,105.6,98,70.1,98z M70.2,55.6V77c47,0,85.2,38.2,85.2,85.3h21.5
	C176.9,103.3,129,55.6,70.2,55.6z"/>
<g>
	<path class="st7" d="M217.5,8v172.5L150,248H97.5h-59V8H217.5 M219.5,6h-183v244h61h53.4l68.6-68.6V6L219.5,6z"/>
</g>
</svg>
