<?xml version="1.0" encoding="utf-8"?>
<!-- Generator: Adobe Illustrator 21.0.0, SVG Export Plug-In . SVG Version: 6.00 Build 0)  -->
<svg version="1.1" id="图层_1" xmlns="http://www.w3.org/2000/svg" xmlns:xlink="http://www.w3.org/1999/xlink" x="0px" y="0px"
	 viewBox="0 0 256 256" style="enable-background:new 0 0 256 256;" xml:space="preserve">
<style type="text/css">
	.st0{opacity:0.08;enable-background:new    ;}
	.st1{opacity:0.1;enable-background:new    ;}
	.st2{opacity:0.2;enable-background:new    ;}
	.st3{fill:url(#SVGID_1_);}
	.st4{fill:#EE6F0B;fill-opacity:0.3922;}
	.st5{fill:#FFFFFF;fill-opacity:0.3922;}
	.st6{fill:#B71C1C;fill-opacity:0.1961;}
	.st7{fill:#FFE0B2;}
	.st8{opacity:0.8;}
	.st9{fill:#FFFFFF;}
	.st10{fill:#EE6F0B;}
</style>
<g id="surface1">
	<polygon class="st0" points="34.5,256 34.5,4 225.5,4 225.5,185 154.5,256 	"/>
	<polygon class="st1" points="36.5,254 36.5,6 223.5,6 223.5,184.2 153.7,254 	"/>
	<polygon class="st2" points="34.5,252 34.5,4 221.5,4 221.5,182.2 151.7,252 	"/>
	<g>
		
			<linearGradient id="SVGID_1_" gradientUnits="userSpaceOnUse" x1="419.2012" y1="-2806.9316" x2="419.2012" y2="-2562.9316" gradientTransform="matrix(1 0 0 -1 -291.2012 -2556.9316)">
			<stop  offset="0" style="stop-color:#F57C00"/>
			<stop  offset="0.099" style="stop-color:#F78B0C"/>
			<stop  offset="0.3289" style="stop-color:#FAA823"/>
			<stop  offset="0.5576" style="stop-color:#FDBC33"/>
			<stop  offset="0.7827" style="stop-color:#FEC93D"/>
			<stop  offset="1" style="stop-color:#FFCD40"/>
		</linearGradient>
		<path class="st3" d="M150.9,250l68.6-68.6V6h-183v244H150.9z"/>
		<polygon class="st4" points="147.1,177.6 147.1,250 150.9,250 219.5,181.4 219.5,177.6 		"/>
		<path class="st5" d="M150.9,181.4h68.6L150.9,250V181.4z"/>
		<g>
			<path class="st6" d="M37.5,6v61h183V6H37.5z"/>
			<g>
				<path class="st7" d="M102.9,45c0,2.1-0.3,4.1-0.9,5.9c-0.6,1.8-1.5,3.4-2.9,4.8c-1.3,1.4-3,2.5-5.2,3.3
					c-2.1,0.8-4.7,1.2-7.8,1.2c-3.2,0-5.9-0.4-8-1.1c-2.1-0.7-4-1.7-5.4-2.7l3.6-6.8c1.3,0.7,2.7,1.5,4.2,2.1c1.6,0.7,3.2,1,4.8,1
					c2.4,0,4.4-0.6,5.9-1.7c1.5-1.2,2.3-3.4,2.3-6.6v-21H77.6v-7.1h25.3L102.9,45"/>
				<path class="st7" d="M135.2,59.3l-2.3-9.9h-12.6l-2.1,9.9h-9.8c2.3-8.4,4.5-16.2,6.8-23.1c2.3-7,4.5-13.6,6.6-19.8h10.3
					c2.2,6.3,4.5,12.9,6.6,20c2.3,7,4.4,14.7,6.5,22.9L135.2,59.3 M126.7,24.7c-0.5,1.6-1,3.2-1.5,4.6c-0.4,1.4-0.8,2.9-1.2,4.3
					c-0.4,1.4-0.7,2.8-1.1,4.2c-0.3,1.4-0.6,2.9-0.9,4.4h9.3c-0.3-1.5-0.6-3-1-4.4c-0.3-1.4-0.6-2.9-1.1-4.2
					c-0.4-1.5-0.8-2.9-1.2-4.3C127.7,27.9,127.3,26.3,126.7,24.7"/>
				<path class="st7" d="M162.3,15.9c2.7,0,5.2,0.3,7.3,0.8c2.2,0.6,4.1,1.4,5.7,2.6c1.6,1.2,2.8,2.6,3.6,4.4
					c0.9,1.8,1.3,3.8,1.3,6.2c0,2.5-0.6,4.8-1.7,6.8c-1.1,2-3,3.6-5.6,4.6c0.9,1.2,1.8,2.5,2.8,4c1,1.4,1.9,3,2.8,4.6
					c0.9,1.5,1.8,3.1,2.6,4.8c0.9,1.6,1.6,3.1,2.2,4.5h-9.9c-1.2-2.8-2.5-5.4-4.1-8c-1.5-2.6-3.2-5.2-5-7.8h-4.9v15.8H150V17
					c0.9-0.2,1.9-0.4,3-0.5c1.1-0.2,2.2-0.3,3.3-0.4s2.2-0.2,3.2-0.2C160.7,15.9,161.6,15.9,162.3,15.9 M170.7,29.9
					c0-2.3-0.8-3.9-2.3-5c-1.5-1-3.5-1.6-6-1.6c-0.4,0-0.8,0-1.3,0.1c-0.5,0-1,0.1-1.5,0.2v12.9h2.1c3.2,0,5.5-0.6,7-1.7
					C170,33.6,170.7,32,170.7,29.9"/>
			</g>
		</g>
		<g class="st8">
			<path class="st9" d="M116.3,149.2c0,0-3.7,2,2.6,2.7c7.7,0.8,11.6,0.7,20-0.8c0,0,2.2,1.3,5.3,2.5
				C125.4,161.2,101.5,153.1,116.3,149.2"/>
			<path class="st9" d="M114,139.2c0,0-4.1,2.9,2.2,3.5c8.2,0.8,14.6,0.9,25.8-1.2c0,0,1.5,1.5,4,2.3
				C123.1,150.2,97.7,144.3,114,139.2"/>
			<path class="st9" d="M133.5,122.2c4.6,5.1-1.2,9.6-1.2,9.6s11.8-5.8,6.4-13c-5.1-6.8-9-10.1,12.1-21.7
				C150.7,97.1,117.7,104.9,133.5,122.2"/>
			<path class="st9" d="M158.5,156.6c0,0,2.7,2.1-3,3.8c-10.9,3.2-45.4,4.1-55,0.1c-3.4-1.4,3-3.4,5.1-3.8c2.1-0.4,3.3-0.4,3.3-0.4
				c-3.8-2.6-24.8,5-10.6,7.2C136.8,169.5,168.5,160.9,158.5,156.6"/>
			<path class="st9" d="M118.1,128.8c0,0-17.5,4-6.2,5.4c4.8,0.6,14.3,0.4,23.2-0.2c7.2-0.6,14.5-1.8,14.5-1.8s-2.6,1-4.4,2.2
				c-17.8,4.4-52.2,2.4-42.3-2.2C111.3,128.4,118.1,128.8,118.1,128.8"/>
			<path class="st9" d="M149.6,145.5c18.1-8.9,9.7-17.5,3.9-16.4c-1.4,0.3-2.1,0.5-2.1,0.5s0.5-0.8,1.5-1.1
				c11.6-3.8,20.4,11.4-3.8,17.4C149.2,145.9,149.5,145.7,149.6,145.5"/>
			<path class="st9" d="M138.6,78.4c0,0,10,9.5-9.5,24.1c-15.7,11.7-3.6,18.4,0,26.1c-9.1-7.8-15.9-14.7-11.4-21.1
				C124.4,98.1,142.7,93.5,138.6,78.4"/>
			<path class="st9" d="M119.9,169.6c17.4,1.1,44.1-0.6,44.7-8.4c0,0-1.2,2.9-14.4,5.3c-14.8,2.6-33.1,2.3-44,0.7
				C106.2,167.2,108.5,169,119.9,169.6"/>
		</g>
		<g>
			<path class="st10" d="M217.5,8v172.5L150,248H97.5h-59V8H217.5 M219.5,6h-183v244h61h53.4l68.6-68.6V6L219.5,6z"/>
		</g>
	</g>
</g>
</svg>
