<?xml version="1.0" encoding="utf-8"?>
<!-- Generator: Adobe Illustrator 21.0.0, SVG Export Plug-In . SVG Version: 6.00 Build 0)  -->
<svg version="1.1" id="图层_1" xmlns="http://www.w3.org/2000/svg" xmlns:xlink="http://www.w3.org/1999/xlink" x="0px" y="0px"
	 viewBox="0 0 256 256" style="enable-background:new 0 0 256 256;" xml:space="preserve">
<style type="text/css">
	.st0{opacity:0.08;enable-background:new    ;}
	.st1{opacity:0.1;enable-background:new    ;}
	.st2{opacity:0.2;enable-background:new    ;}
	.st3{fill:#3E2723;}
	.st4{fill:url(#SVGID_1_);}
	.st5{fill:#795548;fill-opacity:0.7;}
	.st6{opacity:0.39;fill:#FFFFFF;enable-background:new    ;}
	.st7{fill:#FFFFFF;}
	.st8{opacity:0.8;fill:#FFFFFF;enable-background:new    ;}
	.st9{enable-background:new    ;}
	.st10{fill:#5D4037;}
</style>
<polygon class="st0" points="34.1,256 34.1,4 225.9,4 225.9,185 154.9,256 "/>
<polygon class="st1" points="36.1,254 36.1,6 223.9,6 223.9,184.2 154,254 "/>
<polygon class="st2" points="34.1,252 34.1,4 221.9,4 221.9,182.2 152,252 "/>
<polygon class="st3" points="36.1,250 36.1,6 219.9,6 219.9,181.3 151.2,250 "/>
<g>
	<g>
		
			<linearGradient id="SVGID_1_" gradientUnits="userSpaceOnUse" x1="169.6001" y1="-425.9004" x2="169.6001" y2="-665.9004" gradientTransform="matrix(1 0 0 -1 -41.6001 -417.9004)">
			<stop  offset="0" style="stop-color:#785548"/>
			<stop  offset="1" style="stop-color:#9F9E9F"/>
		</linearGradient>
		<polygon class="st4" points="38.1,248 38.1,8 217.9,8 217.9,180.4 151.1,248 		"/>
		<polygon class="st5" points="217.9,180.5 217.9,177.6 146.7,177.6 146.7,248 150.4,248 		"/>
		<path class="st6" d="M150.3,180.5l67.6,0.1L150.4,248L150.3,180.5z"/>
	</g>
	<path class="st7" d="M102.4,54.3h-6.1v77.9h-4.6V54.3h-6.1v77.9H81V54.3h-6.1v77.9h-4.6V54.3h-6.1v77.9h-1.6v33h41.7v-33h-2.1
		L102.4,54.3L102.4,54.3z M98.4,155.6H68.8v-19.1h29.6V155.6z"/>
	<g>
		<rect x="38.1" y="8" class="st8" width="179.9" height="46"/>
		<g class="st9">
			<path class="st10" d="M93.1,49.7c-6.1,0-10.8-1.6-14-4.9c-3.2-3.2-4.8-7.8-4.8-13.8c0-3,0.5-5.6,1.5-7.9s2.3-4.3,4-5.9
				s3.7-2.8,6.1-3.6s4.9-1.2,7.7-1.2c1.6,0,3,0.1,4.3,0.3s2.5,0.5,3.4,0.8c1,0.3,1.8,0.6,2.5,0.9c0.7,0.3,1.1,0.5,1.4,0.7l-2.4,6.5
				c-1.2-0.6-2.5-1.1-4.1-1.5s-3.3-0.6-5.3-0.6c-1.3,0-2.6,0.2-3.8,0.6s-2.4,1.1-3.3,2c-1,0.9-1.7,2.1-2.3,3.5s-0.9,3.2-0.9,5.3
				c0,1.7,0.2,3.2,0.6,4.6c0.4,1.4,1,2.7,1.9,3.7c0.8,1,2,1.8,3.3,2.5s3,0.9,5,0.9c1.2,0,2.3-0.1,3.3-0.2c1-0.1,1.9-0.3,2.6-0.5
				c0.8-0.2,1.4-0.4,2-0.6c0.6-0.2,1.1-0.5,1.6-0.7l2.3,6.5c-1.2,0.7-2.9,1.3-5.1,1.9C98.5,49.4,96,49.7,93.1,49.7z"/>
			<path class="st10" d="M138,48.9c-0.4-1.3-0.9-2.5-1.4-3.8s-1-2.6-1.4-3.9h-14.8c-0.5,1.3-1,2.6-1.4,3.9c-0.5,1.3-0.9,2.6-1.3,3.8
				h-8.8c1.4-3.9,2.8-7.4,4-10.7c1.3-3.3,2.5-6.4,3.8-9.3s2.4-5.6,3.6-8.3c1.2-2.6,2.4-5.1,3.7-7.6h8.1c1.2,2.5,2.5,5,3.7,7.6
				s2.4,5.4,3.6,8.3c1.2,2.9,2.5,6,3.7,9.3c1.3,3.3,2.6,6.8,4.1,10.7C147.1,48.9,138,48.9,138,48.9z M127.8,21.2
				c-0.2,0.5-0.5,1.2-0.8,2.1c-0.4,0.9-0.8,1.9-1.2,3.1c-0.5,1.2-1,2.5-1.6,3.9s-1.2,2.9-1.8,4.4h10.8c-0.6-1.6-1.1-3-1.7-4.5
				c-0.5-1.4-1-2.7-1.5-3.9c-0.5-1.2-0.9-2.2-1.3-3.1C128.3,22.4,128,21.7,127.8,21.2z"/>
			<path class="st10" d="M164.5,49.4c-2.1,0-4.1-0.1-6.2-0.2c-2.1-0.1-4.2-0.4-6.4-0.9V13.6c1.8-0.3,3.7-0.5,5.7-0.7s4-0.2,5.8-0.2
				c2.4,0,4.6,0.2,6.6,0.5s3.8,0.9,5.2,1.7s2.6,1.8,3.4,3.1c0.8,1.3,1.2,2.9,1.2,4.8c0,2.9-1.5,5.1-4.4,6.8c2.4,0.9,4,2,4.9,3.5
				s1.3,3.2,1.3,5c0,3.8-1.4,6.6-4.3,8.5S170.2,49.4,164.5,49.4z M160.2,27.1h4.1c2.6,0,4.5-0.3,5.6-1s1.7-1.7,1.7-3.1
				c0-1.5-0.6-2.5-1.8-3.1s-2.9-0.9-5.1-0.9c-0.7,0-1.5,0-2.3,0s-1.6,0.1-2.2,0.1V27.1L160.2,27.1z M160.2,33.3v9.3
				c0.6,0.1,1.3,0.1,2,0.2c0.7,0,1.5,0.1,2.4,0.1c2.5,0,4.6-0.3,6.2-1c1.6-0.7,2.3-2,2.3-3.8c0-1.7-0.7-2.8-2-3.5s-3.2-1.1-5.6-1.1
				h-5.3V33.3z"/>
		</g>
	</g>
</g>
</svg>
