<?xml version="1.0" encoding="utf-8"?>
<!-- Generator: Adobe Illustrator 16.0.0, SVG Export Plug-In . SVG Version: 6.00 Build 0)  -->
<!DOCTYPE svg PUBLIC "-//W3C//DTD SVG 1.1//EN" "http://www.w3.org/Graphics/SVG/1.1/DTD/svg11.dtd">
<svg version="1.1" id="图层_1" xmlns="http://www.w3.org/2000/svg" xmlns:xlink="http://www.w3.org/1999/xlink" x="0px" y="0px"
	 width="256px" height="256px" viewBox="0 0 256 256" enable-background="new 0 0 256 256" xml:space="preserve">
<g id="surface1">
	<polygon opacity="0.08" enable-background="new    " points="34.5,256 34.5,4 225.5,4 225.5,185.031 154.531,256 	"/>
	<polygon opacity="0.1" enable-background="new    " points="36.5,254 36.5,6 223.5,6 223.5,184.203 153.703,254 	"/>
	<polygon opacity="0.2" enable-background="new    " points="34.5,252 34.5,4 221.5,4 221.5,182.203 151.703,252 	"/>
	<g>
		
			<linearGradient id="SVGID_1_" gradientUnits="userSpaceOnUse" x1="419.2012" y1="-2296.9316" x2="419.2012" y2="-2052.9316" gradientTransform="matrix(1 0 0 -1 -291.2012 -2046.9316)">
			<stop  offset="0" style="stop-color:#F57C00"/>
			<stop  offset="0.099" style="stop-color:#F78B0C"/>
			<stop  offset="0.3289" style="stop-color:#FAA823"/>
			<stop  offset="0.5576" style="stop-color:#FDBC33"/>
			<stop  offset="0.7827" style="stop-color:#FEC93D"/>
			<stop  offset="1" style="stop-color:#FFCD40"/>
		</linearGradient>
		<path fill="url(#SVGID_1_)" d="M150.875,250l68.625-68.625V6h-183v244H150.875z"/>
		<polygon fill="#EE6F0B" fill-opacity="0.3922" points="147.063,177.563 147.063,250 150.875,250 219.5,181.375 219.5,177.563 		
			"/>
		<path fill="#FFFFFF" fill-opacity="0.3922" d="M150.875,181.375h68.566L150.875,250V181.375z"/>
		<g>
			<path fill="#B71C1C" fill-opacity="0.1961" d="M37.5,6v61h183V6H37.5z"/>
			<g>
				<path fill="#FFE0B2" d="M102.936,44.978c0,2.068-0.3,4.051-0.908,5.897c-0.567,1.822-1.536,3.437-2.938,4.841
					c-1.303,1.385-3.044,2.488-5.181,3.336c-2.148,0.774-4.732,1.179-7.822,1.179c-3.213,0-5.866-0.357-8.011-1.12
					c-2.145-0.743-3.96-1.653-5.448-2.726l3.599-6.772c1.302,0.735,2.703,1.45,4.223,2.136c1.595,0.715,3.172,1.043,4.84,1.043
					c2.433,0,4.404-0.555,5.867-1.729c1.516-1.196,2.292-3.394,2.292-6.583V23.501H77.624v-7.077h25.319v28.553"/>
				<path fill="#FFE0B2" d="M135.182,59.313l-2.252-9.907h-12.616l-2.148,9.903h-9.795c2.252-8.442,4.512-16.154,6.82-23.066
					c2.305-6.984,4.511-13.592,6.639-19.822h10.263c2.228,6.255,4.466,12.945,6.64,20.016c2.275,7.047,4.404,14.656,6.523,22.877
					L135.182,59.313 M126.734,24.734c-0.525,1.61-0.998,3.171-1.462,4.632c-0.387,1.43-0.806,2.859-1.217,4.32
					c-0.361,1.354-0.719,2.785-1.072,4.211c-0.3,1.43-0.604,2.915-0.912,4.439h9.281c-0.328-1.52-0.625-3.009-0.957-4.439
					c-0.283-1.43-0.637-2.862-1.052-4.211c-0.366-1.465-0.761-2.895-1.212-4.32C127.717,27.91,127.252,26.344,126.734,24.734"/>
				<path fill="#FFE0B2" d="M162.329,15.932c2.694,0,5.159,0.265,7.329,0.822c2.201,0.551,4.1,1.43,5.678,2.562
					c1.594,1.161,2.794,2.646,3.6,4.437c0.879,1.76,1.297,3.829,1.297,6.224c0,2.502-0.553,4.782-1.684,6.822
					c-1.134,2.011-2.975,3.564-5.584,4.632c0.881,1.204,1.792,2.533,2.758,4.022c0.981,1.43,1.922,2.962,2.826,4.584
					c0.912,1.549,1.795,3.143,2.596,4.768c0.871,1.578,1.627,3.083,2.231,4.513h-9.897c-1.153-2.771-2.529-5.423-4.119-7.98
					c-1.518-2.562-3.172-5.195-4.959-7.82h-4.897v15.8h-9.399V17.039c0.912-0.193,1.879-0.357,2.982-0.477
					c1.102-0.193,2.23-0.298,3.336-0.357c1.143-0.101,2.202-0.163,3.213-0.193C160.678,15.932,161.557,15.932,162.329,15.932
					 M170.669,29.917c0-2.264-0.793-3.917-2.31-4.994c-1.512-1.043-3.532-1.594-6.034-1.594c-0.357,0-0.776,0.033-1.296,0.062
					c-0.524,0-1.043,0.076-1.531,0.164v12.882h2.051c3.204,0,5.537-0.551,6.967-1.658C169.954,33.61,170.669,31.985,170.669,29.917"
					/>
			</g>
		</g>
		<g opacity="0.8">
			<path fill="#FFFFFF" d="M116.342,149.207c0,0-3.695,2.021,2.625,2.712c7.656,0.838,11.553,0.724,19.983-0.802
				c0,0,2.202,1.318,5.304,2.474C125.366,161.236,101.507,153.143,116.342,149.207"/>
			<path fill="#FFFFFF" d="M114.015,139.171c0,0-4.139,2.912,2.175,3.545c8.19,0.798,14.625,0.867,25.796-1.19
				c0,0,1.549,1.486,3.955,2.293C123.131,150.16,97.662,144.322,114.015,139.171"/>
			<path fill="#FFFFFF" d="M133.494,122.195c4.646,5.066-1.249,9.646-1.249,9.646s11.828-5.776,6.405-13.017
				c-5.065-6.76-8.969-10.125,12.091-21.71C150.741,97.114,117.708,104.946,133.494,122.195"/>
			<path fill="#FFFFFF" d="M158.456,156.627c0,0,2.735,2.111-3.007,3.755c-10.903,3.155-45.36,4.079-54.955,0.147
				c-3.42-1.43,3.007-3.401,5.065-3.813c2.116-0.442,3.305-0.356,3.305-0.356c-3.811-2.563-24.752,5.023-10.605,7.205
				C136.771,169.461,168.464,160.883,158.456,156.627"/>
			<path fill="#FFFFFF" d="M118.101,128.803c0,0-17.548,3.959-6.197,5.393c4.766,0.597,14.295,0.443,23.202-0.241
				c7.238-0.597,14.539-1.82,14.539-1.82s-2.56,1.035-4.408,2.235c-17.813,4.438-52.212,2.378-42.327-2.178
				C111.306,128.357,118.101,128.803,118.101,128.803"/>
			<path fill="#FFFFFF" d="M149.55,145.484c18.109-8.936,9.74-17.513,3.902-16.354c-1.431,0.299-2.05,0.538-2.05,0.538
				s0.506-0.803,1.549-1.132c11.553-3.845,20.427,11.376-3.756,17.398C149.195,145.93,149.492,145.689,149.55,145.484"/>
			<path fill="#FFFFFF" d="M138.65,78.438c0,0,10.035,9.504-9.504,24.128c-15.667,11.737-3.576,18.434,0,26.062
				c-9.143-7.8-15.872-14.712-11.375-21.119C124.38,98.098,142.701,93.542,138.65,78.438"/>
			<path fill="#FFFFFF" d="M119.884,169.643c17.365,1.067,44.054-0.566,44.712-8.373c0,0-1.226,2.949-14.389,5.309
				c-14.831,2.646-33.121,2.316-43.959,0.652C106.24,167.193,108.479,168.951,119.884,169.643"/>
		</g>
		<g>
			<path fill="#EE6F0B" d="M217.5,8v172.547L150.047,248H97.5h-59V8H217.5 M219.5,6h-183v244h61h53.375l68.625-68.625V6L219.5,6z"/>
		</g>
	</g>
</g>
</svg>
