<?xml version="1.0" encoding="utf-8"?>
<!-- Generator: Adobe Illustrator 16.0.0, SVG Export Plug-In . SVG Version: 6.00 Build 0)  -->
<!DOCTYPE svg PUBLIC "-//W3C//DTD SVG 1.1//EN" "http://www.w3.org/Graphics/SVG/1.1/DTD/svg11.dtd">
<svg version="1.1" id="图层_1" xmlns="http://www.w3.org/2000/svg" xmlns:xlink="http://www.w3.org/1999/xlink" x="0px" y="0px"
	 width="256px" height="256px" viewBox="0 0 256 256" enable-background="new 0 0 256 256" xml:space="preserve">
<g id="surface1">
	<polygon opacity="0.08" enable-background="new    " points="34.5,256 34.5,4 225.5,4 225.5,185.031 154.531,256 	"/>
	<polygon opacity="0.1" enable-background="new    " points="36.5,254 36.5,6 223.5,6 223.5,184.203 153.703,254 	"/>
	<polygon opacity="0.2" enable-background="new    " points="34.5,252 34.5,4 221.5,4 221.5,182.203 151.703,252 	"/>
</g>
<linearGradient id="SVGID_1_" gradientUnits="userSpaceOnUse" x1="419.2012" y1="-2296.9316" x2="419.2012" y2="-2052.9316" gradientTransform="matrix(1 0 0 -1 -291.2012 -2046.9316)">
	<stop  offset="0" style="stop-color:#3F51B5"/>
	<stop  offset="0.258" style="stop-color:#4355B7"/>
	<stop  offset="0.5253" style="stop-color:#5060BB"/>
	<stop  offset="0.7959" style="stop-color:#6473C3"/>
	<stop  offset="1" style="stop-color:#7986CB"/>
</linearGradient>
<path fill="url(#SVGID_1_)" d="M150.875,250l68.625-68.625V6h-183v244H150.875z"/>
<polygon fill="#311B92" fill-opacity="0.3922" points="147.063,177.563 147.063,250 150.875,250 219.5,181.375 219.5,177.563 "/>
<path fill="#FFFFFF" fill-opacity="0.3922" d="M150.875,181.375h68.566L150.875,250V181.375z"/>
<g>
	<g>
		<path fill="#311B92" d="M217.5,8v172.547L150.047,248H97.5h-59V8H217.5 M219.5,6h-183v244h61h53.375l68.625-68.625V6L219.5,6z"/>
	</g>
</g>
<g opacity="0.8">
	<path fill="#FFFFFF" d="M157.013,95.849c-1.225,0-2.383,0.55-3.517,1.725c-1.134,1.134-2.054,2.667-2.74,4.602
		c-0.687,1.906-1.015,4.022-1.015,6.359c0,1.356,0.328,2.457,0.986,3.291c0.652,0.789,1.577,1.22,2.74,1.22
		c1.191,0,2.32-0.608,3.422-1.771c1.076-1.175,1.939-2.797,2.621-4.823c0.657-2.1,1.015-4.129,1.015-6.122
		C160.525,97.319,159.334,95.849,157.013,95.849z"/>
	<path fill="#FFFFFF" d="M107.656,95.849c-1.22,0-2.412,0.55-3.543,1.725c-1.132,1.134-2.025,2.667-2.709,4.602
		c-0.686,1.906-1.015,4.022-1.015,6.359c0,1.356,0.329,2.457,0.984,3.291c0.655,0.789,1.549,1.22,2.709,1.22
		c1.191,0,2.354-0.608,3.426-1.771c1.101-1.175,1.966-2.797,2.621-4.823c0.686-2.1,1.013-4.129,1.013-6.122
		C111.142,97.319,109.981,95.849,107.656,95.849z"/>
	<path fill="#FFFFFF" d="M128,63.188c-33.688,0-61,18.765-61,41.938c0,23.171,27.312,41.938,61,41.938c33.688,0,61-18.767,61-41.938
		C189,81.952,161.688,63.188,128,63.188z M166.812,109.459c-1.191,3.007-2.859,5.377-4.976,7.161
		c-2.145,1.746-4.47,2.637-7.001,2.637c-1.486,0-2.769-0.312-3.841-0.953c-1.072-0.608-2.054-1.684-2.95-3.229h-0.238
		c-0.209,2.736-0.596,5.226-1.129,7.563l-1.939,8.697h-8.04l2.798-12.6h-7.802l3.665-16.708c0.267-1.175,0.414-2.19,0.414-3.052
		c0-2.087-0.953-3.126-2.888-3.126c-1.64,0-3.126,0.953-4.468,2.917c-1.341,1.935-2.383,4.634-3.157,8.147l-2.592,11.824h-8.071
		l1.498-6.738c-1.031,1.792-2.192,3.397-3.642,4.622c-2.114,1.746-4.439,2.637-6.999,2.637c-1.491,0-2.74-0.312-3.813-0.953
		c-1.072-0.608-2.056-1.684-2.979-3.229h-0.209c-0.209,2.736-0.596,5.226-1.163,7.563l-1.906,8.697h-8.04l9.143-41.206h6.136
		l-0.448,4.33h0.238c2.444-3.258,5.273-4.881,8.459-4.881c2.592,0,4.646,0.92,6.167,2.769c1.179,1.462,1.89,3.381,2.145,5.744
		l4.26-19.178h8.04c-0.715,3.083-1.248,5.435-1.605,7.103c-0.389,1.654-1.135,4.306-2.295,7.925h0.208
		c1.103-1.327,2.326-2.371,3.693-3.16c1.34-0.805,2.922-1.204,4.709-1.204c2.439,0,4.346,0.744,5.686,2.157
		c1.344,1.401,2.029,3.439,2.029,6.105c0,0.452-0.058,0.994-0.115,1.528l2.051-9.239h6.133l-0.443,4.33h0.238
		c2.469-3.258,5.3-4.881,8.488-4.881c2.588,0,4.646,0.92,6.133,2.769c1.521,1.845,2.264,4.392,2.264,7.683
		C168.655,103.276,168.06,106.452,166.812,109.459z"/>
</g>
</svg>
