<?xml version="1.0" encoding="utf-8"?>
<!-- Generator: Adobe Illustrator 17.1.0, SVG Export Plug-In . SVG Version: 6.00 Build 0)  -->
<!DOCTYPE svg PUBLIC "-//W3C//DTD SVG 1.1//EN" "http://www.w3.org/Graphics/SVG/1.1/DTD/svg11.dtd">
<svg version="1.1" id="图层_1" xmlns="http://www.w3.org/2000/svg" xmlns:xlink="http://www.w3.org/1999/xlink" x="0px" y="0px"
	 width="256px" height="256px" viewBox="0 0 256 256" enable-background="new 0 0 256 256" xml:space="preserve">
<polygon opacity="8.000000e-002" enable-background="new    " points="34.1,256 34.1,4 225.9,4 225.9,185 154.9,256 "/>
<polygon opacity="9.999999e-002" enable-background="new    " points="36.1,254 36.1,6 223.9,6 223.9,184.2 154,254 "/>
<polygon opacity="0.2" enable-background="new    " points="34.1,252 34.1,4 221.9,4 221.9,182.2 152,252 "/>
<polygon fill="#311B92" points="36.1,250 36.1,6 219.9,6 219.9,181.3 151.2,250 "/>
<g>
	<g>
		<linearGradient id="SVGID_1_" gradientUnits="userSpaceOnUse" x1="128" y1="248" x2="128" y2="8">
			<stop  offset="0" style="stop-color:#512DA8"/>
			<stop  offset="8.000000e-003" style="stop-color:#532EA8"/>
			<stop  offset="0.1976" style="stop-color:#7541B2"/>
			<stop  offset="0.4086" style="stop-color:#9352BC"/>
			<stop  offset="0.6159" style="stop-color:#A95EC3"/>
			<stop  offset="0.8158" style="stop-color:#B666C7"/>
			<stop  offset="1" style="stop-color:#BA68C8"/>
		</linearGradient>
		<polygon fill="url(#SVGID_1_)" points="38.1,248 38.1,8 217.9,8 217.9,180.5 150.4,248 		"/>
	</g>
	<polygon fill="#673AB7" fill-opacity="0.3922" points="217.9,180.5 217.9,177.6 146.7,177.6 146.7,248 150.4,248 	"/>
	<path fill="#FFFFFF" fill-opacity="0.3922" d="M150.3,180.5l67.6,0.1L150.4,248L150.3,180.5z"/>
</g>
<g opacity="0.8">
	<g>
		<rect x="168.1" y="68.4" fill="#FFFFFF" width="26.4" height="9.6"/>
	</g>
	<g>
		<rect x="168.1" y="86.5" fill="#FFFFFF" width="26.4" height="9.6"/>
	</g>
	<g>
		<rect x="168.1" y="104.7" fill="#FFFFFF" width="26.4" height="9.6"/>
	</g>
	<g>
		<rect x="112.8" y="123.8" fill="#FFFFFF" width="81.7" height="9.6"/>
	</g>
	<g>
		<rect x="112.8" y="141.9" fill="#FFFFFF" width="81.7" height="9.6"/>
	</g>
	<path fill="#FFFFFF" d="M95.6,97.7l-11.2-2.4V81.4l15.2,3.3V74.1l-22.8-4.9v10.6h0v55c-1.2-0.3-2.5-0.5-3.9-0.5
		c-6.3,0-11.4,3.9-11.4,8.7c0,4.8,5.1,8.7,11.4,8.7c6.3,0,11.4-3.9,11.4-8.6h0v-40.1l11.2,2.4L95.6,97.7L95.6,97.7z"/>
	<path fill="#FFFFFF" d="M155.4,103.4c0.1-0.1,0.1-0.2,0.2-0.3c0.1-0.2,0.2-0.4,0.3-0.6c0,0,0,0,0-0.1c0.5-1.2,1-2.4,1.3-3.6h4.8V89
		h-4.8c-0.5-2-1.3-3.9-2.3-5.7l3.4-3.4l-6.9-6.9l-3.4,3.4c-1.8-1.1-3.7-1.9-5.8-2.4h0.1v-4.8h-9.7V74h0.1c-2.1,0.5-4,1.3-5.8,2.4
		l-3.4-3.4l-6.9,6.9l3.4,3.4c-1,1.7-1.8,3.6-2.3,5.7h-4.8v9.7h4.8c0.5,2,1.3,3.9,2.3,5.7l0,0l-3.4,3.4l6.9,6.9l3.4-3.4
		c1.7,1.1,3.7,1.9,5.7,2.4v4.8h9.7v-4.8c0,0,0,0,0,0v0c2-0.5,4-1.3,5.7-2.4l3.4,3.4l6.9-6.9l-3.4-3.4l0,0c0.1-0.2,0.2-0.4,0.3-0.6
		C155.3,103.7,155.4,103.5,155.4,103.4z M137.5,109.4c-8.6,0-15.5-7-15.5-15.5c0-8.6,7-15.5,15.5-15.5c1.7,0,3.3,0.3,4.9,0.8v0
		c6.2,2,10.7,7.9,10.7,14.8c0,0.4,0,0.8,0,1.3c0,0,0,0,0,0c-0.1,1.2-0.3,2.4-0.7,3.6c0,0,0,0.1,0,0.1c-0.2,0.7-0.5,1.4-0.9,2.1
		c0,0,0,0.1-0.1,0.1c-0.2,0.3-0.4,0.7-0.6,1c0,0,0,0,0,0.1c-0.2,0.3-0.4,0.6-0.6,0.9c0,0,0,0,0,0.1c-0.2,0.3-0.4,0.6-0.7,0.9
		c0,0-0.1,0.1-0.1,0.1c-0.5,0.6-1,1.1-1.6,1.6c0,0-0.1,0.1-0.1,0.1c-0.3,0.2-0.6,0.5-0.8,0.7c0,0-0.1,0.1-0.1,0.1
		c-0.3,0.2-0.5,0.4-0.8,0.6c0,0-0.1,0-0.1,0.1c-0.3,0.2-0.6,0.4-0.9,0.5c-0.1,0-0.1,0.1-0.2,0.1c-0.3,0.2-0.6,0.3-1,0.4
		c0,0-0.1,0-0.1,0c-0.3,0.1-0.6,0.2-0.9,0.3C140.9,109.1,139.2,109.4,137.5,109.4z"/>
</g>
</svg>
