<?xml version="1.0" encoding="utf-8"?>
<!-- Generator: Adobe Illustrator 21.0.0, SVG Export Plug-In . SVG Version: 6.00 Build 0)  -->
<svg version="1.1" id="图层_1" xmlns="http://www.w3.org/2000/svg" xmlns:xlink="http://www.w3.org/1999/xlink" x="0px" y="0px"
	 viewBox="0 0 256 256" style="enable-background:new 0 0 256 256;" xml:space="preserve">
<style type="text/css">
	.st0{opacity:0.08;enable-background:new    ;}
	.st1{opacity:0.1;enable-background:new    ;}
	.st2{opacity:0.2;enable-background:new    ;}
	.st3{fill:#455A64;}
	.st4{fill:url(#SVGID_1_);}
	.st5{fill:#455A64;fill-opacity:0.39;}
	.st6{fill:#FFFFFF;fill-opacity:0.39;}
	.st7{opacity:0.8;fill:#FFFFFF;enable-background:new    ;}
</style>
<polygon class="st0" points="34.1,256 34.1,4 225.9,4 225.9,185 154.9,256 "/>
<polygon class="st1" points="36.1,254 36.1,6 223.9,6 223.9,184.2 154,254 "/>
<polygon class="st2" points="34.1,252 34.1,4 221.9,4 221.9,182.2 152,252 "/>
<polygon class="st3" points="36.1,250 36.1,6 219.9,6 219.9,181.3 151.2,250 "/>
<g>
	<g>
		
			<linearGradient id="SVGID_1_" gradientUnits="userSpaceOnUse" x1="128" y1="542" x2="128" y2="782" gradientTransform="matrix(1 0 0 1 0 -534)">
			<stop  offset="0" style="stop-color:#90A4AE"/>
			<stop  offset="0.1378" style="stop-color:#849AA5"/>
			<stop  offset="0.4226" style="stop-color:#708A97"/>
			<stop  offset="0.7096" style="stop-color:#64808E"/>
			<stop  offset="1" style="stop-color:#607D8B"/>
		</linearGradient>
		<polygon class="st4" points="38.1,248 38.1,8 217.9,8 217.9,180.5 150.4,248 		"/>
	</g>
	<polygon class="st5" points="217.9,180.5 217.9,177.6 146.7,177.6 146.7,248 150.4,248 	"/>
	<path class="st6" d="M150.3,180.5l67.6,0.1L150.4,248L150.3,180.5z"/>
</g>
<path class="st7" d="M173.3,107.9c4,0,7.6,1.6,10.2,4.2V89.6h-34.9c2.6-2.6,4.2-6.3,4.2-10.3c0-8-6.5-14.5-14.5-14.5
	s-14.5,6.5-14.5,14.5c0,4,1.6,7.6,4.2,10.3H93.2v22.6C90.6,109.6,87,108,83,108c-8,0-14.5,6.5-14.5,14.5S75,137,83,137
	c4,0,7.6-1.6,10.2-4.2v22.6h34.9c-2.6-2.6-4.2-6.3-4.2-10.3c0-8,6.5-14.5,14.5-14.5s14.5,6.5,14.5,14.5c0,4-1.6,7.6-4.2,10.3h34.9
	v-22.6c-2.6,2.6-6.2,4.2-10.2,4.2c-8,0-14.5-6.5-14.5-14.5C158.8,114.4,165.3,107.9,173.3,107.9z"/>
</svg>
