<?xml version="1.0" encoding="utf-8"?>
<!-- Generator: Adobe Illustrator 17.1.0, SVG Export Plug-In . SVG Version: 6.00 Build 0)  -->
<!DOCTYPE svg PUBLIC "-//W3C//DTD SVG 1.1//EN" "http://www.w3.org/Graphics/SVG/1.1/DTD/svg11.dtd">
<svg version="1.1" id="图层_1" xmlns="http://www.w3.org/2000/svg" xmlns:xlink="http://www.w3.org/1999/xlink" x="0px" y="0px"
	 width="256px" height="256px" viewBox="0 0 256 256" enable-background="new 0 0 256 256" xml:space="preserve">
<polygon opacity="8.000000e-002" enable-background="new    " points="34.1,256 34.1,4 225.9,4 225.9,185 154.9,256 "/>
<polygon opacity="9.999999e-002" enable-background="new    " points="36.1,254 36.1,6 223.9,6 223.9,184.2 154,254 "/>
<polygon opacity="0.2" enable-background="new    " points="34.1,252 34.1,4 221.9,4 221.9,182.2 152,252 "/>
<polygon fill="#455A64" points="36.1,250 36.1,6 219.9,6 219.9,181.3 151.2,250 "/>
<g>
	<g>
		
			<linearGradient id="SVGID_1_" gradientUnits="userSpaceOnUse" x1="128" y1="250" x2="128" y2="10" gradientTransform="matrix(1 0 0 -1 0 258)">
			<stop  offset="0" style="stop-color:#90A4AE"/>
			<stop  offset="0.1378" style="stop-color:#849AA5"/>
			<stop  offset="0.4226" style="stop-color:#708A97"/>
			<stop  offset="0.7096" style="stop-color:#64808E"/>
			<stop  offset="1" style="stop-color:#607D8B"/>
		</linearGradient>
		<polygon fill="url(#SVGID_1_)" points="38.1,248 38.1,8 217.9,8 217.9,180.5 150.4,248 		"/>
	</g>
	<polygon fill="#455A64" fill-opacity="0.39" points="217.9,180.5 217.9,177.6 146.7,177.6 146.7,248 150.4,248 	"/>
	<path fill="#FFFFFF" fill-opacity="0.39" d="M150.3,180.5l67.6,0.1L150.4,248L150.3,180.5z"/>
</g>
<g opacity="0.8">
	<path fill="#FFFFFF" d="M139.7,109.6c0.1-0.2,0.2-0.4,0.3-0.6c0.2-0.4,0.4-0.7,0.5-1.1v-0.1c0.9-2,1.7-4.2,2.2-6.4h8.4v-17h-8.4
		c-0.9-3.5-2.2-6.8-4.1-9.9l6-6l-12-12l-5.9,5.9c-3.1-1.9-6.5-3.3-10-4.2h0.1V50h-17v8.4h0.1c-3.6,0.9-7,2.3-10.1,4.2l-5.8-6l-12,12
		l6,6c-1.8,3-3.2,6.3-4.1,9.9h-8.4v17h8.4c0.9,3.5,2.3,6.9,4.1,9.9l0,0l-6,6l12,12l6-6c3,1.9,6.4,3.3,10,4.1v8.4h17v-8.4l0,0l0,0
		c3.5-0.9,6.9-2.3,9.9-4.1l6,6l12-12l-6-6l0,0c0.2-0.3,0.4-0.7,0.6-1C139.5,110.1,139.6,109.8,139.7,109.6z M108.4,120
		c-15,0-27.1-12.1-27.1-27.1s12.1-27.1,27.1-27.1c3,0,5.8,0.5,8.5,1.4l0,0c10.8,3.6,18.6,13.7,18.6,25.7c0,0.7,0,1.5-0.1,2.2
		c0,0,0,0,0,0.1c-0.2,2.2-0.6,4.3-1.3,6.3c0,0.1,0,0.1-0.1,0.2c-0.4,1.3-1,2.5-1.6,3.7c0,0.1-0.1,0.1-0.1,0.2
		c-0.3,0.6-0.6,1.1-1,1.7l-0.1,0.1c-0.3,0.5-0.7,1.1-1.1,1.6c0,0,0,0.1-0.1,0.1c-0.4,0.5-0.8,1-1.2,1.5c-0.1,0.1-0.1,0.1-0.2,0.2
		c-0.8,1-1.7,1.9-2.7,2.7c-0.1,0.1-0.2,0.1-0.2,0.2c-0.5,0.4-1,0.8-1.5,1.2c-0.1,0.1-0.2,0.1-0.2,0.2c-0.5,0.3-1,0.7-1.5,1
		c-0.1,0-0.1,0.1-0.2,0.1c-0.5,0.3-1.1,0.6-1.6,0.9c-0.1,0.1-0.2,0.1-0.4,0.2c-0.5,0.3-1.1,0.5-1.7,0.8c-0.1,0-0.1,0-0.2,0.1
		c-0.5,0.2-1,0.4-1.6,0.6C114.4,119.5,111.4,120,108.4,120z"/>
	<path fill="#FFFFFF" d="M186.4,119.5c0-0.1,0-0.2,0-0.4c0-0.2,0-0.5,0-0.7c0,0,0,0,0-0.1c0-1.2,0-2.5-0.2-3.7l4.3-1.8l-3.6-8.7
		l-4.3,1.8c-1.2-1.6-2.6-3-4.2-4.2l1.8-4.3l-8.7-3.6l-1.8,4.3c-2-0.3-4-0.3-6,0l0,0l-1.8-4.3l-8.7,3.6l1.8,4.3l0,0
		c-1.7,1.2-3.1,2.7-4.3,4.3l-4.3-1.8l-3.6,8.7l4.3,1.8c-0.3,1.9-0.3,3.9,0,5.9l-4.3,1.8l3.6,8.7l4.3-1.8c1.2,1.6,2.6,3,4.2,4.2l0,0
		l-1.8,4.3l8.7,3.6l1.8-4.3c2,0.3,4,0.3,6,0l1.8,4.3l8.7-3.6l-1.8-4.3l0,0l0,0c1.6-1.2,3-2.6,4.2-4.2l4.3,1.8l3.6-8.7l-4.3-1.8l0,0
		c0-0.2,0.1-0.4,0.1-0.7C186.3,119.8,186.3,119.7,186.4,119.5z M172.5,131.5c-7.7,3.2-16.5-0.4-19.6-8.1c-3.2-7.7,0.4-16.5,8.1-19.6
		c1.5-0.6,3.1-1,4.6-1.1l0,0c6.3-0.5,12.4,3.1,15,9.2c0.2,0.4,0.3,0.8,0.4,1.1l0,0c0.4,1.1,0.6,2.3,0.7,3.5v0.1c0.1,0.7,0,1.5,0,2.2
		v0.1c0,0.4-0.1,0.7-0.1,1.1v0.1c-0.1,0.3-0.1,0.7-0.2,1c0,0,0,0,0,0.1c-0.1,0.3-0.2,0.7-0.3,1c0,0.1,0,0.1,0,0.2
		c-0.2,0.7-0.5,1.3-0.8,2c0,0.1,0,0.1-0.1,0.2c-0.2,0.3-0.3,0.6-0.5,0.9l-0.1,0.1c-0.2,0.3-0.3,0.5-0.5,0.8c0,0,0,0.1-0.1,0.1
		c-0.2,0.3-0.4,0.5-0.6,0.8c0,0.1-0.1,0.1-0.1,0.2c-0.2,0.3-0.5,0.5-0.7,0.8l-0.1,0.1c-0.2,0.2-0.4,0.4-0.7,0.6
		C175.5,130,174.1,130.9,172.5,131.5z"/>
	<path fill="#FFFFFF" d="M148.6,150.8c0-0.1,0-0.2,0-0.3c0-0.2,0-0.4,0-0.6c0,0,0,0,0-0.1c0-1.1,0-2.2-0.2-3.3l3.8-1.6l-3.2-7.6
		l-3.8,1.6c-1-1.4-2.3-2.6-3.7-3.7l1.6-3.8l-7.6-3.1l-1.6,3.8c-1.7-0.3-3.5-0.3-5.3,0l0,0l-1.6-3.8l-7.6,3.2l1.6,3.8l0,0
		c-1.4,1.1-2.7,2.3-3.7,3.7l-3.8-1.6l-3.1,7.6l3.8,1.6c-0.3,1.7-0.3,3.4,0,5.2l-3.8,1.6l3.2,7.6l3.8-1.6c1,1.4,2.3,2.7,3.7,3.7l0,0
		l-1.6,3.8l7.6,3.1l1.6-3.8c1.7,0.3,3.5,0.3,5.2,0l1.6,3.8l7.6-3.2l-1.6-3.8l0,0l0,0c1.4-1,2.7-2.3,3.7-3.7l3.8,1.6l3.1-7.6
		l-3.8-1.6l0,0c0-0.2,0.1-0.4,0.1-0.6C148.5,151.1,148.6,151,148.6,150.8z M136.5,161.3c-6.7,2.8-14.4-0.4-17.2-7.1
		c-2.8-6.7,0.4-14.4,7.1-17.2c1.3-0.6,2.7-0.9,4.1-1l0,0c5.5-0.4,10.9,2.7,13.1,8.1c0.1,0.3,0.3,0.7,0.4,1l0,0c0.3,1,0.5,2,0.6,3
		v0.1c0,0.7,0,1.3,0,1.9v0.1c0,0.3-0.1,0.6-0.1,0.9c0,0,0,0,0,0.1c-0.1,0.3-0.1,0.6-0.2,0.9c0,0,0,0,0,0.1c-0.1,0.3-0.2,0.6-0.3,0.9
		v0.1c-0.2,0.6-0.4,1.2-0.7,1.7c0,0,0,0.1-0.1,0.1c-0.1,0.3-0.3,0.5-0.4,0.8c0,0,0,0.1-0.1,0.1c-0.1,0.2-0.3,0.5-0.5,0.7
		c0,0,0,0.1-0.1,0.1c-0.2,0.2-0.4,0.5-0.5,0.7c0,0.1-0.1,0.1-0.1,0.2c-0.2,0.2-0.4,0.4-0.6,0.7c0,0,0,0-0.1,0.1
		c-0.2,0.2-0.4,0.4-0.6,0.6C139.1,160,137.8,160.8,136.5,161.3z"/>
</g>
</svg>
