<?xml version="1.0" encoding="utf-8"?>
<!-- Generator: Adobe Illustrator 16.0.0, SVG Export Plug-In . SVG Version: 6.00 Build 0)  -->
<!DOCTYPE svg PUBLIC "-//W3C//DTD SVG 1.1//EN" "http://www.w3.org/Graphics/SVG/1.1/DTD/svg11.dtd">
<svg version="1.1" id="图层_1" xmlns="http://www.w3.org/2000/svg" xmlns:xlink="http://www.w3.org/1999/xlink" x="0px" y="0px"
	 width="256px" height="256px" viewBox="0 0 256 256" enable-background="new 0 0 256 256" xml:space="preserve">
<polygon opacity="0.08" enable-background="new    " points="34.1,256 34.1,4 225.9,4 225.9,185 154.9,256 "/>
<polygon opacity="0.1" enable-background="new    " points="36.1,254 36.1,6 223.9,6 223.9,184.2 154,254 "/>
<polygon opacity="0.2" enable-background="new    " points="34.1,252 34.1,4 221.9,4 221.9,182.2 152,252 "/>
<polygon fill="#E65100" points="36.1,250 36.1,6 219.9,6 219.9,181.3 151.2,250 "/>
<g>
	<g>
		<g>
			
				<linearGradient id="SVGID_1_" gradientUnits="userSpaceOnUse" x1="169.6006" y1="-155.8999" x2="169.6006" y2="84.0996" gradientTransform="matrix(1 0 0 -1 -41.6001 92.0996)">
				<stop  offset="0" style="stop-color:#EE6F0B"/>
				<stop  offset="1" style="stop-color:#FFB74D"/>
			</linearGradient>
			<polygon fill="url(#SVGID_1_)" points="38.094,248 38.094,8 217.906,8 217.906,180.5 150.406,248 			"/>
		</g>
		<polygon fill="#E65100" fill-opacity="0.3922" points="217.906,180.5 217.906,177.594 146.703,177.594 146.703,248 150.406,248 		
			"/>
		<path fill="#FFFFFF" fill-opacity="0.3922" d="M150.297,180.5l67.609,0.094L150.406,248L150.297,180.5z"/>
	</g>
	<g opacity="0.8">
		<rect x="61.5" y="100.391" fill="#FFFFFF" width="19.203" height="96.203"/>
		<rect x="93.5" y="148.391" fill="#FFFFFF" width="19.203" height="48.094"/>
		<rect x="125.406" y="167.984" fill="#FFFFFF" width="19.203" height="28.813"/>
		<g>
			<path fill="#FFFFFF" d="M151.5,83.391l0.203,38.297L190,121.484c0.109,21.203-17,38.406-38.203,38.5
				c-21.188,0.109-38.391-17-38.5-38.188C113.203,100.688,130.297,83.484,151.5,83.391z"/>
			<path fill="#FFFFFF" d="M156,78.984c21.203-0.094,38.406,17,38.5,38.203l-38.297,0.203L156,78.984z"/>
		</g>
	</g>
	<g>
		<rect x="38.047" y="8" opacity="0.8" fill="#FFFFFF" enable-background="new    " width="179.906" height="46"/>
		<g enable-background="new    ">
			<path fill="#E64A19" d="M80.625,12.813c0.656,1.141,1.406,2.547,2.266,4.219s1.75,3.484,2.672,5.438
				c0.922,1.938,1.844,3.938,2.75,5.969c0.922,2.031,1.766,3.938,2.578,5.75c0.797-1.813,1.656-3.719,2.563-5.75
				s1.828-4.031,2.75-5.969c0.938-1.953,1.828-3.766,2.688-5.438c0.844-1.672,1.609-3.078,2.266-4.219h7.719
				c0.359,2.375,0.703,5.047,1.016,8c0.313,2.938,0.578,6.016,0.813,9.203s0.453,6.391,0.656,9.594
				c0.188,3.203,0.375,6.234,0.516,9.047h-8.281c-0.109-3.469-0.25-7.266-0.422-11.375c-0.188-4.094-0.469-8.25-0.828-12.406
				c-0.656,1.438-1.375,3.047-2.188,4.813c-0.797,1.75-1.594,3.5-2.375,5.266S96.25,38.406,95.516,40
				c-0.719,1.594-1.344,2.969-1.859,4.109h-5.922c-0.516-1.141-1.141-2.516-1.859-4.109c-0.734-1.594-1.484-3.281-2.266-5.047
				c-0.797-1.766-1.578-3.516-2.375-5.266c-0.813-1.766-1.531-3.375-2.188-4.813c-0.375,4.156-0.641,8.313-0.828,12.406
				c-0.172,4.109-0.313,7.906-0.422,11.375h-8.281c0.141-2.813,0.313-5.844,0.516-9.047s0.422-6.406,0.656-9.594
				s0.5-6.266,0.813-9.203c0.313-2.953,0.641-5.625,1.016-8H80.625z"/>
			<path fill="#E64A19" d="M137.844,19.031c-3.953,0-6.813,1.031-8.578,3.125c-1.75,2.094-2.625,4.938-2.625,8.563
				c0,1.75,0.203,3.344,0.641,4.781s1.094,2.656,1.953,3.688c0.875,1.047,1.969,1.844,3.281,2.406
				c1.313,0.578,2.828,0.859,4.563,0.859c0.953,0,1.75-0.016,2.438-0.047c0.656-0.031,1.25-0.094,1.766-0.219V29.719h8.484v17.75
				c-1,0.375-2.641,0.781-4.891,1.219c-2.266,0.438-5.031,0.656-8.328,0.656c-2.844,0-5.406-0.422-7.719-1.25
				c-2.297-0.828-4.266-2.031-5.906-3.625c-1.625-1.578-2.891-3.531-3.781-5.844s-1.344-4.938-1.344-7.906
				c0-3,0.5-5.656,1.484-7.969s2.328-4.281,4.016-5.875c1.719-1.594,3.719-2.813,6.031-3.656c2.313-0.813,4.75-1.234,7.375-1.234
				c1.781,0,3.375,0.109,4.813,0.328c1.438,0.234,2.672,0.5,3.719,0.781c1.031,0.297,1.875,0.594,2.547,0.906
				s1.156,0.563,1.453,0.719l-2.469,6.469c-1.156-0.578-2.484-1.094-4-1.516C141.266,19.234,139.625,19.031,137.844,19.031z"/>
			<path fill="#E64A19" d="M168.984,12.406c5.641,0,9.953,0.938,12.969,2.813s4.531,4.969,4.531,9.234
				c0,4.313-1.531,7.422-4.594,9.328c-3.031,1.922-7.406,2.875-13.063,2.875h-2.656v12h-8.5V13.328
				c1.844-0.344,3.813-0.578,5.875-0.719S167.422,12.406,168.984,12.406z M169.547,19.281c-0.625,0-1.234,0.016-1.828,0.063
				c-0.609,0.031-1.109,0.063-1.547,0.094v10.344h2.656c2.938,0,5.156-0.375,6.656-1.141c1.469-0.766,2.219-2.172,2.219-4.234
				c0-1-0.188-1.828-0.563-2.484s-0.938-1.188-1.641-1.578c-0.703-0.406-1.578-0.672-2.578-0.828
				C171.891,19.359,170.766,19.281,169.547,19.281z"/>
		</g>
	</g>
</g>
</svg>
