<?xml version="1.0" encoding="utf-8"?>
<!-- Generator: Adobe Illustrator 21.0.0, SVG Export Plug-In . SVG Version: 6.00 Build 0)  -->
<svg version="1.1" id="图层_1" xmlns="http://www.w3.org/2000/svg" xmlns:xlink="http://www.w3.org/1999/xlink" x="0px" y="0px"
	 viewBox="0 0 256 256" style="enable-background:new 0 0 256 256;" xml:space="preserve">
<style type="text/css">
	.st0{opacity:0.08;enable-background:new    ;}
	.st1{opacity:0.1;enable-background:new    ;}
	.st2{opacity:0.2;enable-background:new    ;}
	.st3{fill:#E65100;}
	.st4{fill:url(#SVGID_1_);}
	.st5{fill:#E65100;fill-opacity:0.3922;}
	.st6{fill:#FFFFFF;fill-opacity:0.3922;}
	.st7{opacity:0.8;}
	.st8{fill:#FFFFFF;}
	.st9{opacity:0.8;fill:#FFFFFF;enable-background:new    ;}
	.st10{enable-background:new    ;}
	.st11{fill:#E64A19;}
</style>
<polygon class="st0" points="34.1,256 34.1,4 225.9,4 225.9,185 154.9,256 "/>
<polygon class="st1" points="36.1,254 36.1,6 223.9,6 223.9,184.2 154,254 "/>
<polygon class="st2" points="34.1,252 34.1,4 221.9,4 221.9,182.2 152,252 "/>
<polygon class="st3" points="36.1,250 36.1,6 219.9,6 219.9,181.3 151.2,250 "/>
<g>
	<g>
		<g>
			
				<linearGradient id="SVGID_1_" gradientUnits="userSpaceOnUse" x1="169.6001" y1="-665.9004" x2="169.6001" y2="-425.9004" gradientTransform="matrix(1 0 0 -1 -41.6001 -417.9004)">
				<stop  offset="0" style="stop-color:#EE6F0B"/>
				<stop  offset="1" style="stop-color:#FFB74D"/>
			</linearGradient>
			<polygon class="st4" points="38.1,248 38.1,8 217.9,8 217.9,180.5 150.4,248 			"/>
		</g>
		<polygon class="st5" points="217.9,180.5 217.9,177.6 146.7,177.6 146.7,248 150.4,248 		"/>
		<path class="st6" d="M150.3,180.5l67.6,0.1L150.4,248L150.3,180.5z"/>
	</g>
	<g class="st7">
		<rect x="61.5" y="100.4" class="st8" width="19.2" height="96.2"/>
		<rect x="93.5" y="148.4" class="st8" width="19.2" height="48.1"/>
		<rect x="125.4" y="168" class="st8" width="19.2" height="28.8"/>
		<g>
			<path class="st8" d="M151.5,83.4l0.2,38.3l38.3-0.2c0.1,21.2-17,38.4-38.2,38.5s-38.4-17-38.5-38.2
				C113.2,100.7,130.3,83.5,151.5,83.4z"/>
			<path class="st8" d="M156,79c21.2-0.1,38.4,17,38.5,38.2l-38.3,0.2L156,79z"/>
		</g>
	</g>
	<g>
		<rect x="38" y="8" class="st9" width="179.9" height="46"/>
		<g class="st10">
			<path class="st11" d="M80.6,12.8c0.7,1.1,1.4,2.5,2.3,4.2s1.8,3.5,2.7,5.4c0.9,1.9,1.8,3.9,2.8,6c0.9,2,1.8,3.9,2.6,5.8
				c0.8-1.8,1.7-3.7,2.6-5.8s1.8-4,2.8-6c0.9-2,1.8-3.8,2.7-5.4c0.8-1.7,1.6-3.1,2.3-4.2h7.7c0.4,2.4,0.7,5,1,8
				c0.3,2.9,0.6,6,0.8,9.2s0.5,6.4,0.7,9.6s0.4,6.2,0.5,9h-8.3c-0.1-3.5-0.3-7.3-0.4-11.4c-0.2-4.1-0.5-8.3-0.8-12.4
				c-0.7,1.4-1.4,3-2.2,4.8c-0.8,1.8-1.6,3.5-2.4,5.3s-1.5,3.5-2.3,5c-0.7,1.6-1.3,3-1.9,4.1h-5.9c-0.5-1.1-1.1-2.5-1.9-4.1
				c-0.7-1.6-1.5-3.3-2.3-5c-0.8-1.8-1.6-3.5-2.4-5.3s-1.5-3.4-2.2-4.8c-0.4,4.2-0.6,8.3-0.8,12.4c-0.2,4.1-0.3,7.9-0.4,11.4h-8.3
				c0.1-2.8,0.3-5.8,0.5-9s0.4-6.4,0.7-9.6s0.5-6.3,0.8-9.2c0.3-3,0.6-5.6,1-8L80.6,12.8L80.6,12.8z"/>
			<path class="st11" d="M137.8,19c-4,0-6.8,1-8.6,3.1s-2.6,4.9-2.6,8.6c0,1.8,0.2,3.3,0.6,4.8s1.1,2.7,2,3.7s2,1.8,3.3,2.4
				c1.3,0.6,2.8,0.9,4.6,0.9c1,0,1.8,0,2.4,0c0.7,0,1.3-0.1,1.8-0.2V29.7h8.5v17.8c-1,0.4-2.6,0.8-4.9,1.2c-2.3,0.4-5,0.7-8.3,0.7
				c-2.8,0-5.4-0.4-7.7-1.3c-2.3-0.8-4.3-2-5.9-3.6s-2.9-3.5-3.8-5.8s-1.3-4.9-1.3-7.9s0.5-5.7,1.5-8s2.3-4.3,4-5.9
				c1.7-1.6,3.7-2.8,6-3.7c2.3-0.8,4.8-1.2,7.4-1.2c1.8,0,3.4,0.1,4.8,0.3c1.4,0.2,2.7,0.5,3.7,0.8s1.9,0.6,2.5,0.9s1.2,0.6,1.5,0.7
				l-2.5,6.5c-1.2-0.6-2.5-1.1-4-1.5C141.3,19.2,139.6,19,137.8,19z"/>
			<path class="st11" d="M169,12.4c5.6,0,10,0.9,13,2.8s4.5,5,4.5,9.2c0,4.3-1.5,7.4-4.6,9.3c-3,1.9-7.4,2.9-13.1,2.9h-2.7v12h-8.5
				V13.3c1.8-0.3,3.8-0.6,5.9-0.7S167.4,12.4,169,12.4z M169.5,19.3c-0.6,0-1.2,0-1.8,0.1c-0.6,0-1.1,0.1-1.5,0.1v10.3h2.7
				c2.9,0,5.2-0.4,6.7-1.1c1.5-0.8,2.2-2.2,2.2-4.2c0-1-0.2-1.8-0.6-2.5s-0.9-1.2-1.6-1.6c-0.7-0.4-1.6-0.7-2.6-0.8
				C171.9,19.4,170.8,19.3,169.5,19.3z"/>
		</g>
	</g>
</g>
</svg>
