<?xml version="1.0" encoding="utf-8"?>
<!-- Generator: Adobe Illustrator 21.0.0, SVG Export Plug-In . SVG Version: 6.00 Build 0)  -->
<svg version="1.1" id="图层_1" xmlns="http://www.w3.org/2000/svg" xmlns:xlink="http://www.w3.org/1999/xlink" x="0px" y="0px"
	 viewBox="0 0 256 256" style="enable-background:new 0 0 256 256;" xml:space="preserve">
<style type="text/css">
	.st0{opacity:0.08;enable-background:new    ;}
	.st1{opacity:0.1;enable-background:new    ;}
	.st2{opacity:0.2;enable-background:new    ;}
	.st3{fill:#455A64;}
	.st4{fill:url(#SVGID_1_);}
	.st5{fill:#455A64;fill-opacity:0.39;}
	.st6{fill:#FFFFFF;fill-opacity:0.39;}
	.st7{opacity:0.8;fill:#FFFFFF;enable-background:new    ;}
</style>
<polygon class="st0" points="34.1,256 34.1,4 225.9,4 225.9,185 154.9,256 "/>
<polygon class="st1" points="36.1,254 36.1,6 223.9,6 223.9,184.2 154,254 "/>
<polygon class="st2" points="34.1,252 34.1,4 221.9,4 221.9,182.2 152,252 "/>
<polygon class="st3" points="36.1,250 36.1,6 219.9,6 219.9,181.3 151.2,250 "/>
<g>
	<g>
		<g>
			
				<linearGradient id="SVGID_1_" gradientUnits="userSpaceOnUse" x1="211.2002" y1="1366.8008" x2="211.2002" y2="1606.8008" gradientTransform="matrix(1 0 0 1 -83.2002 -1358.8008)">
				<stop  offset="0" style="stop-color:#90A4AE"/>
				<stop  offset="0.1378" style="stop-color:#849AA5"/>
				<stop  offset="0.4226" style="stop-color:#708A97"/>
				<stop  offset="0.7096" style="stop-color:#64808E"/>
				<stop  offset="1" style="stop-color:#607D8B"/>
			</linearGradient>
			<polygon class="st4" points="38.1,248 38.1,8 217.9,8 217.9,180.5 150.4,248 			"/>
		</g>
		<polygon class="st5" points="217.9,180.5 217.9,177.6 146.7,177.6 146.7,248 150.4,248 		"/>
		<path class="st6" d="M150.3,180.5l67.6,0.1L150.4,248L150.3,180.5z"/>
	</g>
	<path class="st7" d="M173.3,117.3c4,0,7.6,1.6,10.2,4.2V99h-34.9c2.6-2.6,4.2-6.3,4.2-10.3c0-8-6.5-14.5-14.5-14.5
		s-14.5,6.5-14.5,14.5c0,4,1.6,7.6,4.2,10.3H93.2v22.6c-2.6-2.6-6.2-4.2-10.2-4.2c-8,0-14.5,6.5-14.5,14.5S75,146.4,83,146.4
		c4,0,7.6-1.6,10.2-4.2v22.6h34.9c-2.6-2.6-4.2-6.3-4.2-10.3c0-8,6.5-14.5,14.5-14.5s14.5,6.5,14.5,14.5c0,4-1.6,7.6-4.2,10.3h34.9
		v-22.6c-2.6,2.6-6.2,4.2-10.2,4.2c-8,0-14.5-6.5-14.5-14.5C158.8,123.8,165.3,117.3,173.3,117.3z"/>
	<g>
		<rect x="38.1" y="8" class="st7" width="179.9" height="46"/>
		<g>
			<path class="st3" d="M113.6,31c0,3.1-0.5,5.8-1.4,8.1c-1,2.3-2.3,4.3-4,5.8s-3.7,2.8-6,3.5c-2.3,0.8-4.8,1.2-7.4,1.2
				s-5-0.4-7.3-1.2s-4.3-2-6-3.5c-1.7-1.6-3.1-3.5-4-5.8c-1-2.3-1.5-5-1.5-8.1s0.5-5.8,1.5-8.1s2.4-4.3,4.1-5.9s3.7-2.8,6-3.6
				s4.7-1.2,7.2-1.2c2.6,0,5,0.4,7.3,1.2s4.3,2,6,3.6s3,3.5,4,5.9C113.2,25.2,113.6,27.9,113.6,31z M84.8,31c0,1.8,0.2,3.3,0.7,4.8
				s1.1,2.6,2,3.6s1.9,1.8,3.1,2.3c1.2,0.6,2.6,0.8,4.2,0.8s3-0.3,4.2-0.8c1.3-0.5,2.3-1.3,3.2-2.3c0.9-1,1.5-2.2,2-3.6
				c0.5-1.4,0.7-3,0.7-4.8s-0.2-3.4-0.7-4.8s-1.1-2.6-2-3.7c-0.8-1-1.9-1.8-3.2-2.4c-1.3-0.6-2.7-0.8-4.2-0.8c-1.6,0-3,0.3-4.2,0.9
				s-2.3,1.4-3.1,2.4s-1.5,2.2-2,3.7C85.1,27.7,84.8,29.2,84.8,31z"/>
			<path class="st3" d="M139.3,48.9c-1.1-2-2.2-4-3.5-6.1s-2.7-3.8-4.4-5.2c-0.5,0.5-1.1,1.3-1.9,2.2c-0.8,0.9-1.6,2-2.3,3
				c-0.8,1.1-1.5,2.2-2.2,3.3s-1.2,2-1.5,2.7h-9.7c1.6-2.8,3.5-5.7,5.6-8.7c2.2-3,4.6-6.1,7.2-9.5l-12.3-17.7h10.3l7.2,10.4
				l7.3-10.4h9.7l-12.2,17.3c3.2,3.8,5.8,7.3,7.9,10.5c2.1,3.2,3.7,5.9,4.9,8L139.3,48.9L139.3,48.9z"/>
			<path class="st3" d="M182.6,13.1V20h-11.4v29h-8.5V20h-11.4v-6.9C151.4,13.1,182.6,13.1,182.6,13.1z"/>
		</g>
	</g>
</g>
</svg>
