<?xml version="1.0" encoding="utf-8"?>
<!-- Generator: Adobe Illustrator 16.0.0, SVG Export Plug-In . SVG Version: 6.00 Build 0)  -->
<!DOCTYPE svg PUBLIC "-//W3C//DTD SVG 1.1//EN" "http://www.w3.org/Graphics/SVG/1.1/DTD/svg11.dtd">
<svg version="1.1" id="图层_1" xmlns="http://www.w3.org/2000/svg" xmlns:xlink="http://www.w3.org/1999/xlink" x="0px" y="0px"
	 width="256px" height="256px" viewBox="0 0 256 256" enable-background="new 0 0 256 256" xml:space="preserve">
<polygon opacity="0.08" enable-background="new    " points="34.1,256 34.1,4 225.9,4 225.9,185 154.9,256 "/>
<polygon opacity="0.1" enable-background="new    " points="36.1,254 36.1,6 223.9,6 223.9,184.2 154,254 "/>
<polygon opacity="0.2" enable-background="new    " points="34.1,252 34.1,4 221.9,4 221.9,182.2 152,252 "/>
<polygon fill="#455A64" points="36.1,250 36.1,6 219.9,6 219.9,181.3 151.2,250 "/>
<g>
	<g>
		<g>
			
				<linearGradient id="SVGID_1_" gradientUnits="userSpaceOnUse" x1="211.1553" y1="832.7998" x2="211.1553" y2="1072.8008" gradientTransform="matrix(1 0 0 1 -83.2002 -824.8008)">
				<stop  offset="0" style="stop-color:#90A4AE"/>
				<stop  offset="0.1378" style="stop-color:#849AA5"/>
				<stop  offset="0.4226" style="stop-color:#708A97"/>
				<stop  offset="0.7096" style="stop-color:#64808E"/>
				<stop  offset="1" style="stop-color:#607D8B"/>
			</linearGradient>
			<polygon fill="url(#SVGID_1_)" points="38.056,248 38.056,8 217.854,8 217.854,180.512 150.366,248 			"/>
		</g>
		<polygon fill="#455A64" fill-opacity="0.39" points="217.854,180.512 217.854,177.587 146.661,177.587 146.661,248 150.366,248 		
			"/>
		<path fill="#FFFFFF" fill-opacity="0.39" d="M150.276,180.512l67.601,0.078L150.366,248L150.276,180.512z"/>
	</g>
	<path opacity="0.8" fill="#FFFFFF" enable-background="new    " d="M173.257,117.303c3.995,0,7.611,1.596,10.201,4.18V99.01
		h-34.889c2.601-2.6,4.186-6.328,4.186-10.323c0-7.997-6.484-14.492-14.487-14.492c-8.008,0-14.503,6.495-14.503,14.492
		c0,3.995,1.59,7.623,4.19,10.323H93.156v22.595c-2.595-2.617-6.2-4.219-10.195-4.219c-7.997,0-14.492,6.501-14.492,14.508
		c0,8.003,6.496,14.498,14.492,14.498c3.996,0,7.601-1.584,10.218-4.219v22.611h34.888c-2.606-2.6-4.202-6.305-4.202-10.301
		c0-8.002,6.484-14.498,14.503-14.498c7.991,0,14.486,6.496,14.486,14.498c0,3.996-1.606,7.611-4.207,10.313h34.899v-22.59
		c-2.589,2.602-6.205,4.186-10.201,4.186c-7.991,0-14.476-6.495-14.476-14.498C158.759,123.798,165.255,117.303,173.257,117.303z"/>
	<g>
		<rect x="38.056" y="8" opacity="0.8" fill="#FFFFFF" width="179.889" height="45.999"/>
		<g>
			<path fill="#455A64" d="M113.647,30.975c0,3.069-0.48,5.759-1.44,8.086c-0.965,2.338-2.282,4.28-3.951,5.848
				c-1.669,1.568-3.661,2.757-5.96,3.549c-2.305,0.787-4.788,1.183-7.433,1.183c-2.583,0-5.011-0.396-7.299-1.183
				c-2.282-0.792-4.285-1.981-5.987-3.549c-1.708-1.568-3.053-3.51-4.035-5.848c-0.977-2.327-1.468-5.017-1.468-8.086
				c0-3.075,0.508-5.776,1.523-8.103c1.016-2.327,2.388-4.286,4.113-5.871s3.722-2.779,5.993-3.571
				c2.26-0.792,4.654-1.188,7.16-1.188c2.573,0,5.005,0.396,7.293,1.188s4.28,1.986,5.988,3.571
				c1.713,1.585,3.047,3.544,4.035,5.871C113.162,25.199,113.647,27.899,113.647,30.975z M84.847,30.975
				c0,1.758,0.223,3.342,0.675,4.754c0.452,1.412,1.104,2.629,1.958,3.645c0.854,1.021,1.897,1.808,3.136,2.349
				c1.228,0.558,2.645,0.837,4.247,0.837c1.557,0,2.963-0.279,4.219-0.837c1.25-0.542,2.305-1.328,3.153-2.349
				c0.854-1.016,1.513-2.232,1.964-3.645c0.458-1.412,0.681-2.996,0.681-4.754c0-1.764-0.224-3.359-0.681-4.794
				c-0.452-1.429-1.11-2.65-1.964-3.666c-0.848-1.021-1.903-1.808-3.153-2.355c-1.255-0.552-2.662-0.832-4.219-0.832
				c-1.602,0-3.019,0.29-4.247,0.854c-1.239,0.569-2.282,1.367-3.136,2.383s-1.506,2.244-1.958,3.672
				C85.07,27.671,84.847,29.244,84.847,30.975z"/>
			<path fill="#455A64" d="M139.261,48.921c-1.06-2.003-2.221-4.023-3.493-6.066c-1.261-2.059-2.712-3.784-4.353-5.195
				c-0.508,0.53-1.149,1.272-1.931,2.221c-0.781,0.948-1.551,1.958-2.333,3.03c-0.776,1.06-1.512,2.166-2.188,3.309
				c-0.681,1.149-1.189,2.042-1.518,2.701h-9.693c1.59-2.802,3.459-5.692,5.625-8.678c2.16-2.969,4.57-6.144,7.232-9.498
				L114.3,13.072h10.29l7.188,10.38l7.349-10.38h9.688l-12.243,17.299c3.203,3.828,5.849,7.333,7.924,10.519
				c2.088,3.181,3.717,5.859,4.922,8.03H139.261z"/>
			<path fill="#455A64" d="M182.632,13.072v6.875h-11.384v28.974h-8.493V19.947h-11.373v-6.875H182.632z"/>
		</g>
	</g>
</g>
</svg>
