<?xml version="1.0" encoding="utf-8"?>
<!-- Generator: Adobe Illustrator 16.0.0, SVG Export Plug-In . SVG Version: 6.00 Build 0)  -->
<!DOCTYPE svg PUBLIC "-//W3C//DTD SVG 1.1//EN" "http://www.w3.org/Graphics/SVG/1.1/DTD/svg11.dtd">
<svg version="1.1" id="图层_1" xmlns="http://www.w3.org/2000/svg" xmlns:xlink="http://www.w3.org/1999/xlink" x="0px" y="0px"
	 width="256px" height="256px" viewBox="0 0 256 256" enable-background="new 0 0 256 256" xml:space="preserve">
<polygon opacity="0.08" enable-background="new    " points="34.1,256 34.1,4 225.9,4 225.9,185 154.9,256 "/>
<polygon opacity="0.1" enable-background="new    " points="36.1,254 36.1,6 223.9,6 223.9,184.2 154,254 "/>
<polygon opacity="0.2" enable-background="new    " points="34.1,252 34.1,4 221.9,4 221.9,182.2 152,252 "/>
<polygon fill="#B71C1C" points="36.1,250 36.1,6 219.9,6 219.9,181.3 151.2,250 "/>
<g>
	<g>
		<g>
			
				<linearGradient id="SVGID_1_" gradientUnits="userSpaceOnUse" x1="211.2002" y1="-574.8003" x2="211.2002" y2="-334.8008" gradientTransform="matrix(1 0 0 -1 -83.1997 -326.8008)">
				<stop  offset="0" style="stop-color:#C7312F"/>
				<stop  offset="0.1635" style="stop-color:#D9412C"/>
				<stop  offset="0.3476" style="stop-color:#E74E29"/>
				<stop  offset="0.5725" style="stop-color:#EA552A"/>
				<stop  offset="0.9516" style="stop-color:#EA582B"/>
			</linearGradient>
			<polygon fill="url(#SVGID_1_)" points="38.094,248 38.094,8 217.906,8 217.906,180.5 150.406,248 			"/>
		</g>
		<polygon fill="#AE2124" fill-opacity="0.3922" points="217.906,180.5 217.906,177.594 146.703,177.594 146.703,248 150.406,248 		
			"/>
		<path fill="#FFFFFF" fill-opacity="0.3922" d="M150.297,180.5l67.609,0.109L150.406,248L150.297,180.5z"/>
	</g>
	<g opacity="0.8" enable-background="new    ">
		<g>
			<path fill="#FFFFFF" d="M150.609,76.508c0.297,0.109,0.703,0.109,1,0.195C151.297,76.617,150.906,76.508,150.609,76.508z"/>
			<path fill="#FFFFFF" d="M148.094,76.117c0.406,0,0.703,0.102,1.109,0.102C148.797,76.219,148.5,76.219,148.094,76.117z"/>
			<path fill="#FFFFFF" d="M153,76.898c0.297,0.102,0.609,0.102,0.922,0.211C153.609,77,153.297,76.898,153,76.898z"/>
			<path fill="#FFFFFF" d="M155.391,77.297c0.297,0.109,0.609,0.109,0.797,0.211C155.906,77.406,155.703,77.297,155.391,77.297z"/>
			<path fill="#FFFFFF" d="M145.5,75.805c0.406,0,0.797,0.102,1.203,0.102C146.297,75.906,145.906,75.805,145.5,75.805z"/>
			<path fill="#FFFFFF" d="M159.906,78.305c0.188,0.102,0.391,0.102,0.703,0.211C160.297,78.406,160.094,78.305,159.906,78.305z"/>
			<path fill="#FFFFFF" d="M157.703,77.805c0.203,0.102,0.5,0.102,0.703,0.203C158.203,77.906,157.906,77.805,157.703,77.805z"/>
			<path fill="#FFFFFF" d="M74.406,89.195L74.406,89.195L74.406,89.195z"/>
			<path fill="#FFFFFF" d="M131.703,74.898c0.594,0,1.297,0,1.906,0C133,74.898,132.297,74.898,131.703,74.898z"/>
			<path fill="#FFFFFF" d="M162.016,78.813c0.203,0.102,0.406,0.102,0.578,0.203C162.422,78.914,162.203,78.914,162.016,78.813z"/>
			<path fill="#FFFFFF" d="M142.906,75.508c0.391,0,0.797,0.102,1.203,0.102C143.797,75.609,143.406,75.609,142.906,75.508z"/>
			<path fill="#FFFFFF" d="M122.422,74.898c0.578,0,1.188,0,1.891,0C123.703,74.898,123,74.898,122.422,74.898z"/>
			<path fill="#FFFFFF" d="M137.5,75.102c0.5,0,1,0.109,1.5,0.109C138.5,75.211,138,75.102,137.5,75.102z"/>
			<path fill="#FFFFFF" d="M140.297,75.297c0.5,0,0.891,0.102,1.406,0.102C141.188,75.398,140.703,75.297,140.297,75.297z"/>
			<path fill="#FFFFFF" d="M174.406,83.5c0,0,0.109,0,0.109,0.109C174.5,83.5,174.406,83.5,174.406,83.5z"/>
			<path fill="#FFFFFF" d="M179.203,86.703L179.203,86.703L179.203,86.703z"/>
			<path fill="#FFFFFF" d="M175.813,84.203C175.813,84.203,175.813,84.305,175.813,84.203
				C175.813,84.305,175.813,84.203,175.813,84.203z"/>
			<path fill="#FFFFFF" d="M177,85.008C177.109,85.008,177.109,85.008,177,85.008C177.109,85.008,177.109,85.008,177,85.008z"/>
			<path fill="#FFFFFF" d="M164.109,79.398c0.203,0,0.297,0.109,0.5,0.109C164.406,79.508,164.203,79.398,164.109,79.398z"/>
			<path fill="#FFFFFF" d="M180.094,87.508L180.094,87.508L180.094,87.508z"/>
			<path fill="#FFFFFF" d="M128,74.813c-0.891,0-1.891,0-2.797,0C126.109,74.813,127.109,74.813,128,74.813z"/>
			<path fill="#FFFFFF" d="M178.203,85.805L178.203,85.805L178.203,85.805z"/>
			<path fill="#FFFFFF" d="M169.703,81.313c0.094,0,0.203,0.102,0.281,0.102C169.906,81.414,169.797,81.313,169.703,81.313z"/>
			<path fill="#FFFFFF" d="M128,74.813c0.906,0,1.906,0,2.797,0C129.906,74.813,128.906,74.813,128,74.813z"/>
			<path fill="#FFFFFF" d="M166,80.008c0.109,0,0.297,0.102,0.391,0.102C166.297,80.102,166.203,80.008,166,80.008z"/>
			<path fill="#FFFFFF" d="M167.906,80.602c0.094,0,0.188,0.109,0.297,0.109C168.094,80.711,168,80.711,167.906,80.602z"/>
			<path fill="#FFFFFF" d="M171.406,82c0.094,0,0.203,0.102,0.203,0.102C171.5,82.102,171.406,82,171.406,82z"/>
			<path fill="#FFFFFF" d="M172.906,82.703c0.094,0,0.094,0.109,0.203,0.109C173.094,82.813,173,82.703,172.906,82.703z"/>
			<path fill="#FFFFFF" d="M134.703,75.008c0.5,0,1.109,0,1.594,0.094C135.813,75.008,135.203,75.008,134.703,75.008z"/>
			<path fill="#FFFFFF" d="M81.5,83.5c0.109,0,0.109-0.094,0.219-0.094C81.594,83.5,81.5,83.5,81.5,83.5z"/>
			<path fill="#FFFFFF" d="M80.094,84.305c0,0,0.109,0,0.109-0.102C80.188,84.203,80.188,84.305,80.094,84.305z"/>
			<path fill="#FFFFFF" d="M78.906,85.102C78.906,85.008,79,85.008,78.906,85.102C79,85.008,78.906,85.008,78.906,85.102z"/>
			<path fill="#FFFFFF" d="M82.906,82.813c0.094,0,0.094-0.109,0.203-0.109C83,82.703,82.906,82.813,82.906,82.813z"/>
			<path fill="#FFFFFF" d="M86,81.414c0.094,0,0.203-0.102,0.297-0.102C86.203,81.313,86.094,81.414,86,81.414z"/>
			<path fill="#FFFFFF" d="M84.406,82.102c0.109,0,0.203-0.102,0.297-0.102C84.609,82,84.5,82.102,84.406,82.102z"/>
			<path fill="#FFFFFF" d="M119.703,75.008c0.484,0,1.094,0,1.594-0.109C120.797,75.008,120.188,75.008,119.703,75.008z"/>
			<path fill="#FFFFFF" d="M128,112.102c-30.406,0-55.016-8.297-55.016-18.602v16.805c0,10.297,24.594,18.602,55.016,18.602
				c30.406,0,55-8.305,55-18.602l0,0V93.5C183,103.711,158.406,112.102,128,112.102z"/>
			<path fill="#FFFFFF" d="M73,92.914v0.609C73,93.313,73,93.109,73,92.914L73,92.914z"/>
			<path fill="#FFFFFF" d="M87.703,80.805c0.094,0,0.297-0.094,0.391-0.094C88,80.711,87.891,80.711,87.703,80.805z"/>
			<path fill="#FFFFFF" d="M76.813,86.703L76.813,86.703L76.813,86.703z"/>
			<path fill="#FFFFFF" d="M183,92.914c0,0.203,0,0.398,0,0.609V92.914L183,92.914z"/>
			<path fill="#FFFFFF" d="M75.094,88.406L75.094,88.406L75.094,88.406z"/>
			<path fill="#FFFFFF" d="M75.891,87.508L75.891,87.508L75.891,87.508z"/>
			<path fill="#FFFFFF" d="M77.797,85.906C77.797,85.805,77.797,85.805,77.797,85.906C77.797,85.805,77.797,85.805,77.797,85.906z"
				/>
			<path fill="#FFFFFF" d="M109.297,75.906c0.406,0,0.797-0.102,1.188-0.102C110.094,75.805,109.703,75.906,109.297,75.906z"/>
			<path fill="#FFFFFF" d="M106.813,76.305c0.391-0.102,0.688-0.102,1.094-0.102C107.5,76.219,107.203,76.219,106.813,76.305z"/>
			<path fill="#FFFFFF" d="M111.797,75.609c0.406,0,0.797-0.102,1.297-0.102C112.594,75.609,112.203,75.609,111.797,75.609z"/>
			<path fill="#FFFFFF" d="M89.5,80.102c0.109,0,0.297-0.102,0.391-0.102C89.797,80.008,89.703,80.102,89.5,80.102z"/>
			<path fill="#FFFFFF" d="M117,75.211c0.5,0,1-0.109,1.5-0.109C118,75.102,117.5,75.211,117,75.211z"/>
			<path fill="#FFFFFF" d="M104.406,76.617c0.297-0.109,0.703-0.109,1-0.203C105.094,76.508,104.703,76.617,104.406,76.617z"/>
			<path fill="#FFFFFF" d="M114.406,75.398c0.5,0,0.891-0.102,1.391-0.102C115.297,75.297,114.797,75.398,114.406,75.398z"/>
			<path fill="#FFFFFF" d="M93.406,79.016c0.188-0.102,0.391-0.102,0.594-0.203C93.797,78.914,93.594,78.914,93.406,79.016z"/>
			<path fill="#FFFFFF" d="M91.406,79.508c0.203-0.109,0.297-0.109,0.5-0.203C91.797,79.398,91.594,79.508,91.406,79.508z"/>
			<path fill="#FFFFFF" d="M95.391,78.406c0.203-0.102,0.5-0.102,0.703-0.203C95.891,78.305,95.703,78.406,95.391,78.406z"/>
			<path fill="#FFFFFF" d="M97.594,77.906c0.297-0.102,0.5-0.102,0.797-0.203C98.094,77.805,97.797,77.906,97.594,77.906z"/>
			<path fill="#FFFFFF" d="M99.797,77.508c0.297-0.102,0.594-0.102,0.891-0.211C100.297,77.297,100.094,77.406,99.797,77.508z"/>
			<path fill="#FFFFFF" d="M102.094,77c0.297-0.102,0.594-0.102,0.906-0.203C102.688,76.898,102.391,77,102.094,77z"/>
		</g>
		<g>
			<path fill="#FFFFFF" d="M150.609,96.008c0.297,0.109,0.703,0.109,1,0.211C151.297,96.117,150.906,96.117,150.609,96.008z"/>
			<path fill="#FFFFFF" d="M148.094,95.711c0.406,0,0.703,0.102,1.109,0.102C148.797,95.711,148.5,95.711,148.094,95.711z"/>
			<path fill="#FFFFFF" d="M153,96.414c0.297,0.094,0.609,0.094,0.922,0.203C153.609,96.508,153.297,96.508,153,96.414z"/>
			<path fill="#FFFFFF" d="M155.391,96.797c0.297,0.102,0.609,0.102,0.797,0.203C155.906,96.898,155.703,96.898,155.391,96.797z"/>
			<path fill="#FFFFFF" d="M145.5,95.297c0.406,0,0.797,0.102,1.203,0.102C146.297,95.398,145.906,95.398,145.5,95.297z"/>
			<path fill="#FFFFFF" d="M159.906,97.805c0.188,0.102,0.391,0.102,0.703,0.203C160.297,97.906,160.094,97.906,159.906,97.805z"/>
			<path fill="#FFFFFF" d="M157.703,97.297c0.203,0.109,0.5,0.109,0.703,0.211C158.203,97.406,157.906,97.406,157.703,97.297z"/>
			<path fill="#FFFFFF" d="M74.406,108.813L74.406,108.813L74.406,108.813z"/>
			<path fill="#FFFFFF" d="M131.703,94.398c0.594,0,1.297,0,1.906,0C133,94.398,132.297,94.398,131.703,94.398z"/>
			<path fill="#FFFFFF" d="M162.016,98.406c0.203,0.109,0.406,0.109,0.578,0.211C162.422,98.516,162.203,98.406,162.016,98.406z"/>
			<path fill="#FFFFFF" d="M142.906,95.102c0.391,0,0.797,0.109,1.203,0.109C143.797,95.102,143.406,95.102,142.906,95.102z"/>
			<path fill="#FFFFFF" d="M122.422,94.5c0.578,0,1.188,0,1.891,0C123.703,94.398,123,94.398,122.422,94.5z"/>
			<path fill="#FFFFFF" d="M137.5,94.602c0.5,0,1,0.109,1.5,0.109C138.5,94.711,138,94.711,137.5,94.602z"/>
			<path fill="#FFFFFF" d="M140.297,94.813c0.5,0,0.891,0.094,1.406,0.094C141.188,94.898,140.703,94.898,140.297,94.813z"/>
			<path fill="#FFFFFF" d="M174.406,103c0,0,0.109,0,0.109,0.109C174.5,103,174.406,103,174.406,103z"/>
			<path fill="#FFFFFF" d="M179.203,106.219L179.203,106.219L179.203,106.219z"/>
			<path fill="#FFFFFF" d="M175.813,103.813L175.813,103.813L175.813,103.813z"/>
			<path fill="#FFFFFF" d="M177,104.602C177.109,104.602,177.109,104.602,177,104.602C177.109,104.602,177.109,104.602,177,104.602z
				"/>
			<path fill="#FFFFFF" d="M164.109,98.914c0.203,0,0.297,0.102,0.5,0.102C164.406,99.016,164.203,99.016,164.109,98.914z"/>
			<path fill="#FFFFFF" d="M180.094,107L180.094,107L180.094,107z"/>
			<path fill="#FFFFFF" d="M128,94.398c-0.891,0-1.891,0-2.797,0C126.109,94.398,127.109,94.398,128,94.398z"/>
			<path fill="#FFFFFF" d="M178.203,105.398L178.203,105.398L178.203,105.398z"/>
			<path fill="#FFFFFF" d="M169.703,100.805c0.094,0,0.203,0.109,0.281,0.109C169.906,100.914,169.797,100.914,169.703,100.805z"/>
			<path fill="#FFFFFF" d="M128,94.398c0.906,0,1.906,0,2.797,0C129.906,94.398,128.906,94.398,128,94.398z"/>
			<path fill="#FFFFFF" d="M166,99.508c0.109,0,0.297,0.102,0.391,0.102C166.297,99.594,166.203,99.594,166,99.508z"/>
			<path fill="#FFFFFF" d="M167.906,100.203c0.094,0,0.188,0.102,0.297,0.102C168.094,100.305,168,100.203,167.906,100.203z"/>
			<path fill="#FFFFFF" d="M171.406,101.508c0.094,0,0.203,0.102,0.203,0.102C171.5,101.609,171.406,101.609,171.406,101.508z"/>
			<path fill="#FFFFFF" d="M172.906,102.313c0.094,0,0.094,0.094,0.203,0.094C173.094,102.313,173,102.313,172.906,102.313z"/>
			<path fill="#FFFFFF" d="M134.703,94.5c0.5,0,1.109,0,1.594,0.102C135.813,94.5,135.203,94.5,134.703,94.5z"/>
			<path fill="#FFFFFF" d="M81.5,103.109c0.109,0,0.109-0.109,0.219-0.109C81.594,103,81.5,103,81.5,103.109z"/>
			<path fill="#FFFFFF" d="M80.094,103.813c0,0,0.109,0,0.109-0.102C80.188,103.813,80.188,103.813,80.094,103.813z"/>
			<path fill="#FFFFFF" d="M78.906,104.602C78.906,104.602,79,104.602,78.906,104.602C79,104.602,78.906,104.602,78.906,104.602z"/>
			<path fill="#FFFFFF" d="M82.906,102.313c0.094,0,0.094-0.109,0.203-0.109C83,102.313,82.906,102.313,82.906,102.313z"/>
			<path fill="#FFFFFF" d="M86,101c0.094,0,0.203-0.094,0.297-0.094C86.203,100.914,86.094,100.914,86,101z"/>
			<path fill="#FFFFFF" d="M84.406,101.609c0.109,0,0.203-0.102,0.297-0.102C84.609,101.609,84.5,101.609,84.406,101.609z"/>
			<path fill="#FFFFFF" d="M119.703,94.602c0.484,0,1.094,0,1.594-0.102C120.797,94.5,120.188,94.5,119.703,94.602z"/>
			<path fill="#FFFFFF" d="M128,131.609c-30.406,0-55.016-8.305-55.016-18.609v16.813c0,10.281,24.594,18.594,55.016,18.594
				c30.406,0,55-8.313,55-18.594l0,0V113C183,123.313,158.406,131.609,128,131.609z"/>
			<path fill="#FFFFFF" d="M73,112.406v0.609C73,112.813,73,112.602,73,112.406L73,112.406z"/>
			<path fill="#FFFFFF" d="M87.703,100.305c0.094,0,0.297-0.102,0.391-0.102C88,100.203,87.891,100.305,87.703,100.305z"/>
			<path fill="#FFFFFF" d="M76.813,106.219L76.813,106.219L76.813,106.219z"/>
			<path fill="#FFFFFF" d="M183,112.406c0,0.211,0,0.406,0,0.609V112.406L183,112.406z"/>
			<path fill="#FFFFFF" d="M75.094,107.906L75.094,107.906L75.094,107.906z"/>
			<path fill="#FFFFFF" d="M75.891,107.109C75.891,107,75.891,107,75.891,107.109C75.891,107,75.891,107,75.891,107.109z"/>
			<path fill="#FFFFFF" d="M77.797,105.398L77.797,105.398L77.797,105.398z"/>
			<path fill="#FFFFFF" d="M109.297,95.508c0.406,0,0.797-0.109,1.188-0.109C110.094,95.398,109.703,95.398,109.297,95.508z"/>
			<path fill="#FFFFFF" d="M106.813,95.805c0.391-0.102,0.688-0.102,1.094-0.102C107.5,95.711,107.203,95.711,106.813,95.805z"/>
			<path fill="#FFFFFF" d="M111.797,95.211c0.406,0,0.797-0.109,1.297-0.109C112.594,95.102,112.203,95.102,111.797,95.211z"/>
			<path fill="#FFFFFF" d="M89.5,99.695c0.109,0,0.297-0.102,0.391-0.102C89.797,99.594,89.703,99.594,89.5,99.695z"/>
			<path fill="#FFFFFF" d="M117,94.711c0.5,0,1-0.109,1.5-0.109C118,94.711,117.5,94.711,117,94.711z"/>
			<path fill="#FFFFFF" d="M104.406,96.219c0.297-0.102,0.703-0.102,1-0.211C105.094,96.117,104.703,96.117,104.406,96.219z"/>
			<path fill="#FFFFFF" d="M114.406,94.898c0.391,0,0.891-0.102,1.391-0.102C115.297,94.898,114.797,94.898,114.406,94.898z"/>
			<path fill="#FFFFFF" d="M93.406,98.516c0.188-0.109,0.391-0.109,0.594-0.211C93.797,98.406,93.594,98.516,93.406,98.516z"/>
			<path fill="#FFFFFF" d="M91.406,99.109c0.203-0.102,0.297-0.102,0.5-0.211C91.797,99.016,91.594,99.016,91.406,99.109z"/>
			<path fill="#FFFFFF" d="M95.391,98.008c0.203-0.102,0.5-0.102,0.703-0.203C95.891,97.906,95.703,97.906,95.391,98.008z"/>
			<path fill="#FFFFFF" d="M97.594,97.508c0.297-0.102,0.5-0.102,0.797-0.211C98.094,97.406,97.797,97.406,97.594,97.508z"/>
			<path fill="#FFFFFF" d="M99.797,97c0.297-0.102,0.594-0.102,0.891-0.203C100.297,96.898,100.094,96.898,99.797,97z"/>
			<path fill="#FFFFFF" d="M102.094,96.617c0.297-0.109,0.594-0.109,0.906-0.203C102.688,96.508,102.391,96.508,102.094,96.617z"/>
		</g>
		<g>
			<path fill="#FFFFFF" d="M150.609,115.508c0.297,0.102,0.703,0.102,1,0.203C151.297,115.609,150.906,115.609,150.609,115.508z"/>
			<path fill="#FFFFFF" d="M148.094,115.211c0.406,0,0.703,0.102,1.109,0.102C148.797,115.297,148.5,115.211,148.094,115.211z"/>
			<path fill="#FFFFFF" d="M153,115.906c0.297,0.102,0.609,0.102,0.922,0.211C153.609,116.008,153.297,116.008,153,115.906z"/>
			<path fill="#FFFFFF" d="M155.391,116.414c0.297,0.094,0.609,0.094,0.797,0.203C155.906,116.508,155.703,116.414,155.391,116.414z
				"/>
			<path fill="#FFFFFF" d="M145.5,114.898c0.406,0,0.797,0.109,1.203,0.109C146.297,115.008,145.906,114.898,145.5,114.898z"/>
			<path fill="#FFFFFF" d="M159.906,117.406c0.188,0.102,0.391,0.102,0.703,0.203C160.297,117.508,160.094,117.406,159.906,117.406z
				"/>
			<path fill="#FFFFFF" d="M157.703,116.797c0.203,0.102,0.5,0.102,0.703,0.203C158.203,117,157.906,116.898,157.703,116.797z"/>
			<path fill="#FFFFFF" d="M74.406,128.313L74.406,128.313L74.406,128.313z"/>
			<path fill="#FFFFFF" d="M131.703,113.906c0.594,0,1.297,0,1.906,0C133,114.008,132.297,114.008,131.703,113.906z"/>
			<path fill="#FFFFFF" d="M162.016,117.906c0.203,0.102,0.406,0.102,0.578,0.203C162.422,118.008,162.203,118.008,162.016,117.906z
				"/>
			<path fill="#FFFFFF" d="M142.906,114.602c0.391,0,0.797,0.109,1.203,0.109C143.797,114.711,143.406,114.602,142.906,114.602z"/>
			<path fill="#FFFFFF" d="M122.422,114.008c0.578,0,1.188,0,1.891,0C123.703,114.008,123,114.008,122.422,114.008z"/>
			<path fill="#FFFFFF" d="M137.5,114.203c0.5,0,1,0.102,1.5,0.102C138.5,114.203,138,114.203,137.5,114.203z"/>
			<path fill="#FFFFFF" d="M140.297,114.398c0.5,0,0.891,0.102,1.406,0.102C141.188,114.398,140.703,114.398,140.297,114.398z"/>
			<path fill="#FFFFFF" d="M174.406,122.5c0,0,0.109,0,0.109,0.102C174.5,122.602,174.406,122.602,174.406,122.5z"/>
			<path fill="#FFFFFF" d="M179.203,125.711L179.203,125.711L179.203,125.711z"/>
			<path fill="#FFFFFF" d="M175.813,123.313L175.813,123.313L175.813,123.313z"/>
			<path fill="#FFFFFF" d="M177,124.109C177.109,124.109,177.109,124.109,177,124.109C177.109,124.109,177.109,124.109,177,124.109z
				"/>
			<path fill="#FFFFFF" d="M164.109,118.516c0.203,0,0.297,0.102,0.5,0.102C164.406,118.617,164.203,118.516,164.109,118.516z"/>
			<path fill="#FFFFFF" d="M180.094,126.617L180.094,126.617L180.094,126.617z"/>
			<path fill="#FFFFFF" d="M128,113.906c-0.891,0-1.891,0-2.797,0C126.109,113.906,127.109,113.906,128,113.906z"/>
			<path fill="#FFFFFF" d="M178.203,124.898L178.203,124.898L178.203,124.898z"/>
			<path fill="#FFFFFF" d="M169.703,120.414c0.094,0,0.203,0.102,0.281,0.102C169.906,120.516,169.797,120.414,169.703,120.414z"/>
			<path fill="#FFFFFF" d="M128,113.906c0.906,0,1.906,0,2.797,0C129.906,113.906,128.906,113.906,128,113.906z"/>
			<path fill="#FFFFFF" d="M166,119.109c0.109,0,0.297,0.086,0.391,0.086C166.297,119.195,166.203,119.109,166,119.109z"/>
			<path fill="#FFFFFF" d="M167.906,119.695c0.094,0,0.188,0.109,0.297,0.109C168.094,119.805,168,119.805,167.906,119.695z"/>
			<path fill="#FFFFFF" d="M171.406,121.102c0.094,0,0.203,0.109,0.203,0.109C171.5,121.102,171.406,121.102,171.406,121.102z"/>
			<path fill="#FFFFFF" d="M172.906,121.805c0.094,0,0.094,0.102,0.203,0.102C173.094,121.906,173,121.805,172.906,121.805z"/>
			<path fill="#FFFFFF" d="M134.703,114.008c0.5,0,1.109,0,1.594,0.102C135.813,114.109,135.203,114.109,134.703,114.008z"/>
			<path fill="#FFFFFF" d="M81.5,122.602c0.109,0,0.109-0.102,0.219-0.102C81.594,122.602,81.5,122.602,81.5,122.602z"/>
			<path fill="#FFFFFF" d="M80.094,123.406c0,0,0.109,0,0.109-0.102C80.188,123.313,80.188,123.313,80.094,123.406z"/>
			<path fill="#FFFFFF" d="M78.906,124.109C78.906,124.109,79,124.109,78.906,124.109C79,124.109,78.906,124.109,78.906,124.109z"/>
			<path fill="#FFFFFF" d="M82.906,121.906c0.094,0,0.094-0.102,0.203-0.102C83,121.805,82.906,121.906,82.906,121.906z"/>
			<path fill="#FFFFFF" d="M86,120.516c0.094,0,0.203-0.102,0.297-0.102C86.203,120.414,86.094,120.516,86,120.516z"/>
			<path fill="#FFFFFF" d="M84.406,121.211c0.109,0,0.203-0.109,0.297-0.109C84.609,121.102,84.5,121.102,84.406,121.211z"/>
			<path fill="#FFFFFF" d="M119.703,114.109c0.484,0,1.094,0,1.594-0.102C120.797,114.109,120.188,114.109,119.703,114.109z"/>
			<path fill="#FFFFFF" d="M128,151.219c-30.406,0-55.016-8.313-55.016-18.625v16.813C72.984,159.688,97.578,168,128,168
				c30.406,0,55-8.313,55-18.594l0,0v-16.813C183,142.813,158.406,151.219,128,151.219z"/>
			<path fill="#FFFFFF" d="M73,132v0.594C73,132.406,73,132.203,73,132L73,132z"/>
			<path fill="#FFFFFF" d="M87.703,119.805c0.094,0,0.297-0.109,0.391-0.109C88,119.805,87.891,119.805,87.703,119.805z"/>
			<path fill="#FFFFFF" d="M76.813,125.805C76.813,125.711,76.813,125.711,76.813,125.805
				C76.813,125.711,76.813,125.711,76.813,125.805z"/>
			<path fill="#FFFFFF" d="M183,132c0,0.203,0,0.406,0,0.594V132L183,132z"/>
			<path fill="#FFFFFF" d="M75.094,127.508C75.094,127.406,75.094,127.406,75.094,127.508
				C75.094,127.406,75.094,127.406,75.094,127.508z"/>
			<path fill="#FFFFFF" d="M75.891,126.617L75.891,126.617L75.891,126.617z"/>
			<path fill="#FFFFFF" d="M77.797,124.898L77.797,124.898L77.797,124.898z"/>
			<path fill="#FFFFFF" d="M109.297,115.008c0.406,0,0.797-0.109,1.188-0.109C110.094,114.898,109.703,115.008,109.297,115.008z"/>
			<path fill="#FFFFFF" d="M106.813,115.297c0.391-0.094,0.688-0.094,1.094-0.094C107.5,115.211,107.203,115.297,106.813,115.297z"
				/>
			<path fill="#FFFFFF" d="M111.797,114.711c0.406,0,0.797-0.109,1.297-0.109C112.594,114.602,112.203,114.711,111.797,114.711z"/>
			<path fill="#FFFFFF" d="M89.5,119.195c0.109,0,0.297-0.086,0.391-0.086C89.797,119.109,89.703,119.195,89.5,119.195z"/>
			<path fill="#FFFFFF" d="M117,114.305c0.5,0,1-0.102,1.5-0.102C118,114.203,117.5,114.203,117,114.305z"/>
			<path fill="#FFFFFF" d="M104.406,115.711c0.297-0.102,0.688-0.102,0.984-0.203C105.094,115.609,104.703,115.609,104.406,115.711z
				"/>
			<path fill="#FFFFFF" d="M114.406,114.5c0.391,0,0.891-0.102,1.391-0.102C115.297,114.398,114.797,114.398,114.406,114.5z"/>
			<path fill="#FFFFFF" d="M93.406,118.109c0.188-0.102,0.391-0.102,0.594-0.203C93.797,117.906,93.594,118.008,93.406,118.109z"/>
			<path fill="#FFFFFF" d="M91.406,118.617c0.203-0.102,0.297-0.102,0.5-0.211C91.797,118.516,91.594,118.617,91.406,118.617z"/>
			<path fill="#FFFFFF" d="M95.391,117.508c0.203-0.102,0.5-0.102,0.703-0.211C95.891,117.406,95.703,117.508,95.391,117.508z"/>
			<path fill="#FFFFFF" d="M97.594,117c0.297-0.102,0.5-0.102,0.797-0.203C98.094,116.898,97.797,117,97.594,117z"/>
			<path fill="#FFFFFF" d="M99.797,116.508c0.297-0.094,0.594-0.094,0.891-0.203C100.297,116.414,100.094,116.508,99.797,116.508z"
				/>
			<path fill="#FFFFFF" d="M102.094,116.117c0.297-0.109,0.594-0.109,0.906-0.211C102.688,116.008,102.391,116.008,102.094,116.117z
				"/>
		</g>
		<path fill="#FFFFFF" d="M128,71.906c30.375,0,55,8.328,55,18.609c0,10.273-24.625,18.602-55,18.602
			c-30.391,0-55.016-8.328-55.016-18.602C72.984,80.234,97.609,71.906,128,71.906z"/>
	</g>
	<g>
		<rect x="38.047" y="8" opacity="0.8" fill="#FFFFFF" enable-background="new    " width="179.906" height="46"/>
		<g enable-background="new    ">
			<path fill="#E64A19" d="M94.734,37.414c1.031,0,1.891-0.078,2.563-0.242s1.219-0.391,1.625-0.672s0.688-0.617,0.844-1.008
				S100,34.672,100,34.195c0-1.016-0.5-1.852-1.5-2.523s-2.734-1.398-5.172-2.172c-1.078-0.359-2.141-0.766-3.203-1.227
				c-1.078-0.461-2.031-1.047-2.875-1.742c-0.844-0.703-1.531-1.555-2.063-2.547c-0.547-1-0.813-2.219-0.813-3.648
				s0.281-2.719,0.859-3.867c0.563-1.148,1.359-2.125,2.391-2.93s2.297-1.422,3.766-1.852s3.141-0.648,4.984-0.648
				c2.203,0,4.094,0.227,5.703,0.672c1.594,0.445,2.906,0.938,3.953,1.477l-2.125,5.492c-0.906-0.445-1.922-0.836-3.031-1.18
				s-2.453-0.516-4.031-0.516c-1.75,0-3.016,0.234-3.781,0.695s-1.156,1.164-1.156,2.117c0,0.57,0.141,1.047,0.422,1.438
				c0.281,0.383,0.688,0.734,1.203,1.047s1.109,0.594,1.797,0.852c0.672,0.25,1.406,0.516,2.234,0.781
				c1.688,0.594,3.156,1.188,4.422,1.766c1.25,0.578,2.297,1.258,3.125,2.031c0.828,0.781,1.453,1.688,1.859,2.727
				c0.406,1.047,0.609,2.313,0.609,3.805c0,2.891-1.063,5.133-3.203,6.727c-2.125,1.594-5.344,2.391-9.641,2.391
				c-1.438,0-2.75-0.078-3.906-0.242s-2.188-0.367-3.078-0.609c-0.906-0.234-1.672-0.492-2.313-0.758s-1.188-0.523-1.625-0.758
				l2.078-5.547c0.969,0.508,2.172,0.961,3.594,1.367C90.906,37.211,92.656,37.414,94.734,37.414z"/>
			<path fill="#E64A19" d="M144.281,27.219c0,2.18-0.281,4.141-0.844,5.883c-0.578,1.742-1.359,3.273-2.375,4.578
				c-1.031,1.313-2.25,2.406-3.656,3.266c-1.406,0.867-2.969,1.492-4.656,1.875c0.156,0.602,0.5,1.086,1.031,1.453
				c0.531,0.375,1.219,0.68,2.031,0.922c0.813,0.234,1.766,0.414,2.844,0.531c1.078,0.125,2.25,0.227,3.5,0.313l-1.5,5.102
				c-2.453-0.094-4.547-0.32-6.281-0.695c-1.75-0.375-3.219-0.883-4.422-1.539c-1.219-0.656-2.172-1.461-2.875-2.414
				s-1.25-2.063-1.625-3.313c-1.938-0.234-3.75-0.75-5.406-1.539c-1.672-0.789-3.109-1.859-4.328-3.195
				c-1.234-1.344-2.188-2.953-2.875-4.828c-0.688-1.883-1.031-4.008-1.031-6.398c0-2.648,0.438-4.984,1.313-6.992
				c0.875-2.016,2.063-3.703,3.563-5.078c1.484-1.367,3.203-2.398,5.172-3.078c1.953-0.688,4.016-1.031,6.188-1.031
				c2.219,0,4.328,0.344,6.297,1.031c1.984,0.68,3.703,1.711,5.188,3.078c1.469,1.375,2.625,3.063,3.484,5.078
				C143.859,22.234,144.281,24.57,144.281,27.219z M119.391,27.219c0,1.523,0.188,2.891,0.578,4.117
				c0.391,1.219,0.969,2.273,1.703,3.148c0.734,0.883,1.641,1.563,2.703,2.039s2.281,0.711,3.672,0.711
				c1.344,0,2.563-0.234,3.641-0.711c1.094-0.477,2-1.156,2.734-2.039c0.734-0.875,1.297-1.93,1.688-3.148
				c0.391-1.227,0.594-2.594,0.594-4.117c0-1.516-0.203-2.898-0.594-4.133s-0.953-2.297-1.688-3.172
				c-0.734-0.883-1.641-1.555-2.734-2.039c-1.078-0.477-2.297-0.711-3.641-0.711c-1.391,0-2.609,0.242-3.672,0.734
				s-1.969,1.18-2.703,2.063c-0.734,0.875-1.313,1.938-1.703,3.172S119.391,25.734,119.391,27.219z"/>
			<path fill="#E64A19" d="M172.188,36.742v5.992h-21.781V11.75h7.344v24.992H172.188z"/>
		</g>
	</g>
</g>
</svg>
