<?xml version="1.0" encoding="utf-8"?>
<!-- Generator: Adobe Illustrator 16.0.0, SVG Export Plug-In . SVG Version: 6.00 Build 0)  -->
<!DOCTYPE svg PUBLIC "-//W3C//DTD SVG 1.1//EN" "http://www.w3.org/Graphics/SVG/1.1/DTD/svg11.dtd">
<svg version="1.1" id="图层_1" xmlns="http://www.w3.org/2000/svg" xmlns:xlink="http://www.w3.org/1999/xlink" x="0px" y="0px"
	 width="256px" height="256px" viewBox="0 0 256 256" enable-background="new 0 0 256 256" xml:space="preserve">
<polygon opacity="0.08" enable-background="new    " points="34.1,256 34.1,4 225.9,4 225.9,185 154.9,256 "/>
<polygon opacity="0.1" enable-background="new    " points="36.1,254 36.1,6 223.9,6 223.9,184.2 154,254 "/>
<polygon opacity="0.2" enable-background="new    " points="34.1,252 34.1,4 221.9,4 221.9,182.2 152,252 "/>
<polygon fill="#212121" points="36.1,250 36.1,6 219.9,6 219.9,181.3 151.2,250 "/>
<circle opacity="0.8" fill="#FFFFFF" enable-background="new    " cx="159.9" cy="95.5" r="12.7"/>
<path opacity="0.8" fill="#FFFFFF" enable-background="new    " d="M65.5,69v82h125V69H65.5z M181.5,78v64l0,0l-29-20.6l-20.7,12.7
	L105.2,102l-30.7,40V78H181.5z"/>
<g>
	<g>
		<g>
			<g>
				<linearGradient id="SVGID_1_" gradientUnits="userSpaceOnUse" x1="127.9927" y1="248" x2="127.9927" y2="8.0005">
					<stop  offset="0" style="stop-color:#616161"/>
					<stop  offset="1" style="stop-color:#90A4AE"/>
				</linearGradient>
				<polygon fill="url(#SVGID_1_)" points="38.086,248 38.086,8 217.898,8 217.898,180.5 150.398,248 				"/>
			</g>
			<polygon fill="#9E9E9E" fill-opacity="0.39" points="217.898,180.5 217.898,177.594 146.695,177.594 146.695,248 150.398,248 			
				"/>
			<path fill="#FFFFFF" fill-opacity="0.3922" d="M150.305,180.5l67.609,0.094L150.398,248L150.305,180.5z"/>
		</g>
	</g>
	<g opacity="0.8">
		<path fill="#FFFFFF" d="M138.086,164.188c-7.516,0-14.359-1.125-20.531-3.406c-6.172-2.313-11.477-5.656-15.898-10.031
			c-4.422-4.406-7.844-9.813-10.258-16.258c-2.422-6.453-3.633-13.828-3.633-22.133s1.367-15.68,4.094-22.125
			s6.406-11.867,11.031-16.258c4.633-4.391,10.039-7.734,16.211-10.023s12.757-3.438,19.734-3.438c4.438,0,8.438,0.289,11.969,0.859
			c3.563,0.57,6.625,1.242,9.25,2.008s4.781,1.523,6.406,2.289c1.656,0.766,2.781,1.336,3.406,1.719l-4.313,11.453
			c-0.938-0.57-2.281-1.188-4.031-1.859c-1.75-0.664-3.719-1.336-5.938-2c-2.219-0.672-4.625-1.219-7.25-1.648
			s-5.281-0.648-7.938-0.648c-5.648,0-10.75,0.914-15.281,2.727c-4.531,1.813-8.383,4.438-11.57,7.875
			c-3.195,3.438-5.641,7.609-7.336,12.531c-1.695,4.914-2.547,10.43-2.547,16.539c0,5.922,0.75,11.313,2.242,16.18
			c1.484,4.875,3.727,9.055,6.711,12.523c2.984,3.5,6.711,6.188,11.188,8.094s9.695,2.875,15.656,2.875
			c6.906,0,12.594-0.656,17.125-2s7.938-2.531,10.188-3.594l3.875,11.469c-0.719,0.469-2,1.063-3.875,1.781
			c-1.844,0.719-4.156,1.406-6.938,2.094c-2.781,0.656-6.031,1.219-9.719,1.719C146.398,163.969,142.398,164.188,138.086,164.188z"
			/>
	</g>
</g>
</svg>
