<?xml version="1.0" encoding="utf-8"?>
<!-- Generator: Adobe Illustrator 21.0.0, SVG Export Plug-In . SVG Version: 6.00 Build 0)  -->
<svg version="1.1" id="图层_1" xmlns="http://www.w3.org/2000/svg" xmlns:xlink="http://www.w3.org/1999/xlink" x="0px" y="0px"
	 viewBox="0 0 256 256" style="enable-background:new 0 0 256 256;" xml:space="preserve">
<style type="text/css">
	.st0{opacity:0.08;enable-background:new    ;}
	.st1{opacity:0.1;enable-background:new    ;}
	.st2{opacity:0.2;enable-background:new    ;}
	.st3{fill:url(#SVGID_1_);}
	.st4{fill:#B71C1C;fill-opacity:0.3922;}
	.st5{fill:#FFFFFF;fill-opacity:0.3922;}
	.st6{opacity:0.8;}
	.st7{fill:#FFFFFF;}
	.st8{fill:#B71C1C;}
</style>
<g id="surface1">
	<polygon class="st0" points="34.5,256 34.5,4 225.5,4 225.5,185 154.5,256 	"/>
	<polygon class="st1" points="36.5,254 36.5,6 223.5,6 223.5,184.2 153.7,254 	"/>
	<polygon class="st2" points="34.5,252 34.5,4 221.5,4 221.5,182.2 151.7,252 	"/>
	<g>
		
			<linearGradient id="SVGID_1_" gradientUnits="userSpaceOnUse" x1="336.0005" y1="-2221.9512" x2="336.0005" y2="-1977.9512" gradientTransform="matrix(1 0 0 -1 -208.0005 -1971.9512)">
			<stop  offset="0" style="stop-color:#512DA8"/>
			<stop  offset="8.000000e-03" style="stop-color:#D32F2F"/>
			<stop  offset="0.3041" style="stop-color:#E33932"/>
			<stop  offset="0.6579" style="stop-color:#F04035"/>
			<stop  offset="1" style="stop-color:#F44336"/>
		</linearGradient>
		<path class="st3" d="M150.9,250l68.6-68.6V6h-183v244H150.9z"/>
		<polygon class="st4" points="147.1,177.6 147.1,250 150.9,250 219.5,181.4 219.5,177.6 		"/>
		<path class="st5" d="M150.9,181.4h68.6L150.9,250V181.4z"/>
		<g class="st6">
			<path class="st7" d="M134.6,73.8V101H89.9c-1.9,0-3.4-1.5-3.4-3.4V77.2c0-1.9,1.5-3.4,3.4-3.4L134.6,73.8 M138.9,69.5h-49
				c-4.2,0-7.6,3.4-7.6,7.6v20.3c0,4.2,3.4,7.6,7.6,7.6h48.9L138.9,69.5L138.9,69.5z"/>
			<g>
				<path class="st7" d="M139.4,104.6V70h26.7c3.9,0,7.1,3.2,7.1,7.1v20.3c0,3.9-3.2,7.1-7.1,7.1L139.4,104.6L139.4,104.6z
					 M155.3,98l11.4-17.6h-22.8L155.3,98z"/>
				<path class="st7" d="M166.1,70.5c3.7,0,6.6,3,6.6,6.6v20.3c0,3.7-3,6.6-6.6,6.6h-26.2V70.5H166.1 M155.3,98.9l0.8-1.3l10.5-16.2
					l1-1.5h-1.8h-21H143l1,1.5l10.5,16.2L155.3,98.9 M166.1,69.5h-27.2v35.6h27.2c4.2,0,7.6-3.4,7.6-7.6V77.2
					C173.7,73,170.3,69.5,166.1,69.5L166.1,69.5z M155.3,97l-10.5-16.2h21L155.3,97L155.3,97z"/>
			</g>
			<path class="st7" d="M153.3,124.6c8.9,0,16.1,7.2,16.1,16.1s-7.2,16.1-16.1,16.1c-8.9,0-16.1-7.2-16.1-16.1
				C137.2,131.8,144.4,124.6,153.3,124.6 M153.3,120.4c-11.2,0-20.3,9.1-20.3,20.3s9.1,20.3,20.3,20.3s20.3-9.1,20.3-20.3
				C173.7,129.5,164.6,120.4,153.3,120.4L153.3,120.4z"/>
			<g>
				<path class="st7" d="M115.3,120.4H89.9c-4.2,0-7.6,3.4-7.6,7.6v25.4c0,4.2,3.4,7.6,7.6,7.6h25.4c4.2,0,7.6-3.4,7.6-7.6V128
					C123,123.8,119.5,120.4,115.3,120.4z M101.4,153.8l-12.7-10.4l4-4.9l7.3,6l11.2-16.5l5.2,3.5L101.4,153.8z"/>
			</g>
			<g>
				<circle class="st7" cx="153.3" cy="140.7" r="9.7"/>
			</g>
		</g>
		<g>
			<path class="st8" d="M217.5,8v172.5L150,248H97.5h-59V8H217.5 M219.5,6h-183v244h61h53.4l68.6-68.6V6L219.5,6z"/>
		</g>
	</g>
</g>
</svg>
