<?xml version="1.0" encoding="utf-8"?>
<!-- Generator: Adobe Illustrator 21.0.0, SVG Export Plug-In . SVG Version: 6.00 Build 0)  -->
<svg version="1.1" id="图层_1" xmlns="http://www.w3.org/2000/svg" xmlns:xlink="http://www.w3.org/1999/xlink" x="0px" y="0px"
	 viewBox="0 0 256 256" style="enable-background:new 0 0 256 256;" xml:space="preserve">
<style type="text/css">
	.st0{opacity:0.08;enable-background:new    ;}
	.st1{opacity:0.1;enable-background:new    ;}
	.st2{opacity:0.2;enable-background:new    ;}
	.st3{fill:url(#SVGID_1_);}
	.st4{fill:#311B92;fill-opacity:0.3922;}
	.st5{fill:#FFFFFF;fill-opacity:0.3922;}
	.st6{fill:#311B92;}
	.st7{opacity:0.8;}
	.st8{fill:#FFFFFF;}
</style>
<g id="surface1">
	<polygon class="st0" points="34.5,256 34.5,4 225.5,4 225.5,185 154.5,256 	"/>
	<polygon class="st1" points="36.5,254 36.5,6 223.5,6 223.5,184.2 153.7,254 	"/>
	<polygon class="st2" points="34.5,252 34.5,4 221.5,4 221.5,182.2 151.7,252 	"/>
</g>
<linearGradient id="SVGID_1_" gradientUnits="userSpaceOnUse" x1="377.6006" y1="2922.9414" x2="377.6006" y2="2678.9414" gradientTransform="matrix(1 0 0 1 -249.6006 -2672.9414)">
	<stop  offset="0" style="stop-color:#3F51B5"/>
	<stop  offset="0.258" style="stop-color:#4355B7"/>
	<stop  offset="0.5253" style="stop-color:#5060BB"/>
	<stop  offset="0.7959" style="stop-color:#6473C3"/>
	<stop  offset="1" style="stop-color:#7986CB"/>
</linearGradient>
<path class="st3" d="M150.9,250l68.6-68.6V6h-183v244H150.9z"/>
<polygon class="st4" points="147.1,177.6 147.1,250 150.9,250 219.5,181.4 219.5,177.6 "/>
<path class="st5" d="M150.9,181.4h68.6L150.9,250V181.4z"/>
<g>
	<g>
		<path class="st6" d="M217.5,8v172.5L150,248H97.5h-59V8H217.5 M219.5,6h-183v244h61h53.4l68.6-68.6V6L219.5,6z"/>
	</g>
</g>
<g class="st7">
	<path class="st8" d="M129.1,51.5c-4.1,0-8.1,0.4-11.6,1c-10.2,1.8-12.4,2.3-12.4,9.2V77h25.4v5H94.9c-7,0-11.6,4.3-13.5,12.2
		c-2.2,9.1-2.3,14.8,0,24.3c1.7,7.1,6.5,14.3,13.5,14.3h5.1v-15.3c0-7.9,7.1-15.3,15.3-15.3h25.4c6.7,0,10.2-3.5,10.2-10.2V66.7
		c0-6.5-2.7-13.2-9.2-14.3C137.5,51.8,133.2,51.5,129.1,51.5z M120.3,61.6c2.8,0,5.1,2.3,5.1,5.1c0,2.8-2.3,5.1-5.1,5.1
		c-2.8,0-5.1-2.3-5.1-5.1C115.3,63.9,117.5,61.6,120.3,61.6z"/>
	<path class="st8" d="M126.9,158.2c4.1,0,8.1-0.4,11.6-1c10.2-1.8,12.4-2.3,12.4-9.2v-15.3h-25.4v-5.1h35.6c7,0,11.6-4.3,13.5-12.2
		c2.2-9.1,2.3-14.8,0-24.3c-1.7-7.1-6.5-14.3-13.5-14.3H156v15.3c0,7.9-7.1,15.3-15.3,15.3h-25.4c-6.7,0-10.2,3.5-10.2,10.2V143
		c0,6.5,2.7,13.2,9.2,14.3C118.5,158,122.8,158.3,126.9,158.2z M135.7,148.1c-2.8,0-5.1-2.3-5.1-5.1s2.3-5.1,5.1-5.1
		s5.1,2.3,5.1,5.1C140.7,145.8,138.5,148.1,135.7,148.1z"/>
</g>
</svg>
