<?xml version="1.0" encoding="utf-8"?>
<!-- Generator: Adobe Illustrator 16.0.0, SVG Export Plug-In . SVG Version: 6.00 Build 0)  -->
<!DOCTYPE svg PUBLIC "-//W3C//DTD SVG 1.1//EN" "http://www.w3.org/Graphics/SVG/1.1/DTD/svg11.dtd">
<svg version="1.1" id="图层_1" xmlns="http://www.w3.org/2000/svg" xmlns:xlink="http://www.w3.org/1999/xlink" x="0px" y="0px"
	 width="256px" height="256px" viewBox="0 0 256 256" enable-background="new 0 0 256 256" xml:space="preserve">
<polygon opacity="0.08" enable-background="new    " points="34.1,256 34.1,4 225.9,4 225.9,185 154.9,256 "/>
<polygon opacity="0.1" enable-background="new    " points="36.1,254 36.1,6 223.9,6 223.9,184.2 154,254 "/>
<polygon opacity="0.2" enable-background="new    " points="34.1,252 34.1,4 221.9,4 221.9,182.2 152,252 "/>
<polygon fill="#212121" points="36.1,250 36.1,6 219.9,6 219.9,181.3 151.2,250 "/>
<circle opacity="0.8" fill="#FFFFFF" enable-background="new    " cx="159.9" cy="95.5" r="12.7"/>
<path opacity="0.8" fill="#FFFFFF" enable-background="new    " d="M65.5,69v82h125V69H65.5z M181.5,78v64l0,0l-29-20.6l-20.7,12.7
	L105.2,102l-30.7,40V78H181.5z"/>
<g>
	<g>
		<g>
			<g>
				<linearGradient id="SVGID_1_" gradientUnits="userSpaceOnUse" x1="127.9927" y1="248" x2="127.9927" y2="8.0005">
					<stop  offset="0" style="stop-color:#616161"/>
					<stop  offset="1" style="stop-color:#90A4AE"/>
				</linearGradient>
				<polygon fill="url(#SVGID_1_)" points="38.086,248 38.086,8 217.898,8 217.898,180.5 150.398,248 				"/>
			</g>
			<polygon fill="#9E9E9E" fill-opacity="0.39" points="217.898,180.5 217.898,177.594 146.695,177.594 146.695,248 150.398,248 			
				"/>
			<path fill="#FFFFFF" fill-opacity="0.3922" d="M150.305,180.5l67.609,0.094L150.398,248L150.305,180.5z"/>
		</g>
	</g>
	<g>
		<g>
			<g opacity="0.8">
				<path fill="#FFFFFF" d="M90.446,150.719c-5.594,0-10.688-0.844-15.281-2.563s-8.547-4.188-11.844-7.469
					c-3.281-3.25-5.828-7.281-7.625-12.094c-1.813-4.797-2.719-10.297-2.719-16.469c0-6.188,1.031-11.688,3.047-16.469
					c2.047-4.797,4.781-8.844,8.219-12.109c3.453-3.266,7.469-5.75,12.078-7.453c4.594-1.719,9.5-2.563,14.672-2.563
					c3.313,0,6.297,0.219,8.922,0.641c2.656,0.422,4.922,0.922,6.891,1.484c1.953,0.578,3.547,1.141,4.766,1.703
					c1.234,0.578,2.063,1,2.531,1.281l-3.219,8.531c-0.688-0.422-1.688-0.891-3-1.375c-1.281-0.5-2.75-1-4.406-1.5
					s-3.453-0.906-5.406-1.219c-1.953-0.328-3.922-0.484-5.906-0.484c-4.203,0-8,0.672-11.375,2.016
					c-3.375,1.359-6.234,3.313-8.609,5.875s-4.188,5.656-5.453,9.328c-1.266,3.656-1.906,7.766-1.906,12.313
					c0,4.406,0.563,8.422,1.672,12.031c1.109,3.641,2.766,6.75,5,9.328c2.219,2.609,5,4.609,8.313,6.047
					c3.344,1.406,7.234,2.125,11.672,2.125c5.141,0,9.375-0.469,12.75-1.5c3.359-0.969,5.906-1.875,7.563-2.656l2.906,8.531
					c-0.531,0.344-1.5,0.781-2.906,1.313c-1.359,0.563-3.078,1.063-5.141,1.563c-2.094,0.5-4.5,0.906-7.25,1.313
					C96.633,150.563,93.665,150.719,90.446,150.719z"/>
			</g>
		</g>
		<g opacity="0.8">
			<path fill="#FFFFFF" d="M108.383,108.156h18.766V87.703h7.937v20.453h18.781V116h-18.781v20.531h-7.937V116h-18.766V108.156z"/>
			<path fill="#FFFFFF" d="M157.523,108.156h18.781V87.703h7.938v20.453h18.781V116h-18.781v20.531h-7.938V116h-18.781V108.156z"/>
		</g>
	</g>
</g>
</svg>
