<?xml version="1.0" encoding="utf-8"?>
<!-- Generator: Adobe Illustrator 16.0.0, SVG Export Plug-In . SVG Version: 6.00 Build 0)  -->
<!DOCTYPE svg PUBLIC "-//W3C//DTD SVG 1.1//EN" "http://www.w3.org/Graphics/SVG/1.1/DTD/svg11.dtd">
<svg version="1.1" id="图层_1" xmlns="http://www.w3.org/2000/svg" xmlns:xlink="http://www.w3.org/1999/xlink" x="0px" y="0px"
	 width="256px" height="256px" viewBox="0 0 256 256" enable-background="new 0 0 256 256" xml:space="preserve">
<g>
	<rect x="34.1" y="4" opacity="0.08" enable-background="new    " width="191.8" height="252"/>
	<rect x="36.1" y="6" opacity="0.1" enable-background="new    " width="187.8" height="248"/>
	<rect x="34.1" y="4" opacity="0.2" enable-background="new    " width="187.8" height="248"/>
</g>
<rect x="36.1" y="6" fill="#0D47A1" width="183.8" height="244"/>
<g>
	<linearGradient id="SVGID_1_" gradientUnits="userSpaceOnUse" x1="128.0073" y1="8" x2="128.0073" y2="248.0005">
		<stop  offset="0" style="stop-color:#64B5F6"/>
		<stop  offset="1" style="stop-color:#3F51B5"/>
	</linearGradient>
	<rect x="38.102" y="8" fill="url(#SVGID_1_)" width="179.813" height="240"/>
	<g opacity="0.8">
		<rect x="61.305" y="102.922" opacity="0.8" fill="#FFFFFF" enable-background="new    " width="133.313" height="6.586"/>
		<rect x="61.305" y="82.313" opacity="0.8" fill="#FFFFFF" enable-background="new    " width="133.313" height="6.609"/>
		<rect x="124.914" y="122.313" opacity="0.8" fill="#FFFFFF" enable-background="new    " width="69.609" height="69.625"/>
		<g opacity="0.8">
			<rect x="61.305" y="123.508" fill="#FFFFFF" width="57.906" height="6.609"/>
			<rect x="61.305" y="144.125" fill="#FFFFFF" width="57.906" height="6.594"/>
			<rect x="61.305" y="164.813" fill="#FFFFFF" width="57.906" height="6.594"/>
			<rect x="61.305" y="185.406" fill="#FFFFFF" width="57.906" height="6.594"/>
		</g>
	</g>
	<g>
		<rect x="38.055" y="8" opacity="0.8" fill="#FFFFFF" enable-background="new    " width="179.891" height="46"/>
		<g enable-background="new    ">
			<path fill="#236FB7" d="M106.117,30.969c0,3.125-0.516,5.813-1.531,8.125s-2.469,4.234-4.328,5.75S96.117,47.5,93.43,48.25
				c-2.688,0.766-5.703,1.156-9.047,1.156c-1.516,0-3.297-0.063-5.328-0.188s-4.031-0.375-6-0.75V13.547
				c1.969-0.344,4-0.578,6.125-0.703s3.953-0.188,5.469-0.188c3.25,0,6.172,0.344,8.813,1.047c2.625,0.688,4.875,1.766,6.781,3.266
				c1.875,1.469,3.328,3.375,4.344,5.688S106.117,27.734,106.117,30.969z M81.555,42.359c0.406,0.047,0.859,0.063,1.391,0.078
				c0.516,0.016,1.141,0.031,1.875,0.031c4.25,0,7.391-1.031,9.453-3.063c2.047-2.031,3.063-4.844,3.063-8.438
				c0-3.75-0.969-6.594-2.938-8.531c-1.953-1.922-5.063-2.891-9.313-2.891c-0.563,0-1.172,0.016-1.781,0.016
				c-0.625,0.031-1.203,0.063-1.75,0.141V42.359z"/>
			<path fill="#236FB7" d="M149.133,30.969c0,3.078-0.484,5.781-1.453,8.109c-0.953,2.328-2.281,4.266-3.938,5.844
				c-1.672,1.578-3.656,2.75-5.969,3.547c-2.313,0.781-4.781,1.188-7.438,1.188c-2.563,0-5-0.406-7.281-1.188
				c-2.297-0.797-4.281-1.969-6-3.547c-1.703-1.578-3.047-3.516-4.031-5.844c-0.969-2.328-1.469-5.031-1.469-8.109
				c0-3.063,0.516-5.75,1.531-8.094c1.016-2.313,2.375-4.281,4.109-5.875c1.734-1.578,3.719-2.766,5.984-3.563
				c2.281-0.781,4.656-1.188,7.156-1.188c2.594,0,5.016,0.406,7.313,1.188c2.281,0.797,4.281,1.984,5.984,3.563
				c1.703,1.594,3.047,3.563,4.031,5.875C148.648,25.219,149.133,27.906,149.133,30.969z M120.336,30.969
				c0,1.766,0.219,3.359,0.672,4.766c0.453,1.422,1.109,2.641,1.953,3.641c0.859,1.031,1.906,1.813,3.125,2.375
				c1.25,0.531,2.656,0.813,4.25,0.813c1.563,0,2.969-0.281,4.219-0.813c1.266-0.563,2.313-1.344,3.172-2.375
				c0.859-1,1.5-2.219,1.953-3.641c0.453-1.406,0.688-3,0.688-4.766c0-1.75-0.234-3.344-0.688-4.781
				c-0.453-1.422-1.094-2.656-1.953-3.656c-0.859-1.031-1.906-1.813-3.172-2.375c-1.25-0.531-2.656-0.813-4.219-0.813
				c-1.594,0-3,0.281-4.25,0.844c-1.219,0.578-2.266,1.375-3.125,2.375c-0.844,1.031-1.5,2.25-1.953,3.688
				S120.336,29.25,120.336,30.969z"/>
			<path fill="#236FB7" d="M182.945,13.078v6.891h-11.391v28.969h-8.484V19.969H151.68v-6.891H182.945z"/>
		</g>
	</g>
</g>
</svg>
