<?xml version="1.0" encoding="utf-8"?>
<!-- Generator: Adobe Illustrator 16.0.0, SVG Export Plug-In . SVG Version: 6.00 Build 0)  -->
<!DOCTYPE svg PUBLIC "-//W3C//DTD SVG 1.1//EN" "http://www.w3.org/Graphics/SVG/1.1/DTD/svg11.dtd">
<svg version="1.1" id="图层_1" xmlns="http://www.w3.org/2000/svg" xmlns:xlink="http://www.w3.org/1999/xlink" x="0px" y="0px"
	 width="256px" height="256px" viewBox="0 0 256 256" enable-background="new 0 0 256 256" xml:space="preserve">
<polygon opacity="0.08" enable-background="new    " points="34.1,256 34.1,4 225.9,4 225.9,185 154.9,256 "/>
<polygon opacity="0.1" enable-background="new    " points="36.1,254 36.1,6 223.9,6 223.9,184.2 154,254 "/>
<polygon opacity="0.2" enable-background="new    " points="34.1,252 34.1,4 221.9,4 221.9,182.2 152,252 "/>
<polygon fill="#E65100" points="36.1,250 36.1,6 219.9,6 219.9,181.3 151.2,250 "/>
<g>
	<g>
		<g>
			
				<linearGradient id="SVGID_1_" gradientUnits="userSpaceOnUse" x1="169.5996" y1="-155.8999" x2="169.5996" y2="84.0996" gradientTransform="matrix(1 0 0 -1 -41.6001 92.0996)">
				<stop  offset="0" style="stop-color:#EE6F0B"/>
				<stop  offset="1" style="stop-color:#FFB74D"/>
			</linearGradient>
			<polygon fill="url(#SVGID_1_)" points="38.089,248 38.089,8 217.91,8 217.91,180.5 150.41,248 			"/>
		</g>
		<polygon fill="#E65100" fill-opacity="0.3922" points="217.91,180.5 217.91,177.598 146.705,177.598 146.705,248 150.41,248 		"/>
		<path fill="#FFFFFF" fill-opacity="0.3922" d="M150.299,180.5l67.611,0.09L150.41,248L150.299,180.5z"/>
	</g>
	<g opacity="0.8">
		<rect x="61.504" y="100.388" fill="#FFFFFF" width="19.197" height="96.206"/>
		<rect x="93.502" y="148.391" fill="#FFFFFF" width="19.197" height="48.092"/>
		<rect x="125.41" y="167.978" fill="#FFFFFF" width="19.197" height="28.817"/>
		<g>
			<path fill="#FFFFFF" d="M151.504,83.391l0.201,38.292l38.293-0.201c0.111,21.206-16.998,38.416-38.203,38.504
				c-21.184,0.111-38.393-17.009-38.494-38.192C113.201,100.689,130.299,83.485,151.504,83.391z"/>
			<path fill="#FFFFFF" d="M156.002,78.982c21.205-0.089,38.404,17.003,38.493,38.203l-38.292,0.212L156.002,78.982z"/>
		</g>
	</g>
	<g>
		<rect x="38.045" y="8" opacity="0.8" fill="#FFFFFF" enable-background="new    " width="179.91" height="45.999"/>
		<g enable-background="new    ">
			<path fill="#E64A19" d="M110.879,30.718c0,3.097-0.524,5.814-1.54,8.125c-1.016,2.315-2.444,4.219-4.319,5.736
				c-1.864,1.512-4.141,2.656-6.831,3.421c-2.689,0.748-5.703,1.127-9.051,1.127c-1.518,0-3.293-0.067-5.324-0.189
				c-2.031-0.112-4.029-0.357-5.993-0.748V13.279c1.964-0.34,4.007-0.575,6.139-0.703c2.12-0.106,3.929-0.167,5.469-0.167
				c3.226,0,6.149,0.341,8.794,1.027c2.623,0.692,4.888,1.786,6.775,3.253c1.875,1.501,3.326,3.387,4.341,5.687
				C110.355,24.685,110.879,27.47,110.879,30.718z M86.314,42.096c0.402,0.028,0.859,0.062,1.396,0.078
				c0.524,0.011,1.149,0.011,1.875,0.011c4.241,0,7.399-0.999,9.442-3.03c2.053-2.048,3.081-4.861,3.081-8.438
				c0-3.767-0.982-6.607-2.936-8.533c-1.976-1.936-5.056-2.902-9.319-2.902c-0.569,0-1.183,0-1.786,0.028
				c-0.625,0.017-1.206,0.061-1.752,0.128V42.096z"/>
			<path fill="#E64A19" d="M129.261,12.408c5.647,0,9.956,0.938,12.969,2.813c3.024,1.875,4.531,4.967,4.531,9.23
				c0,4.314-1.528,7.422-4.587,9.331c-3.035,1.919-7.41,2.874-13.069,2.874h-2.656v12.003h-8.493V13.329
				c1.842-0.346,3.806-0.58,5.871-0.72C125.891,12.47,127.698,12.408,129.261,12.408z M129.83,19.283
				c-0.625,0-1.238,0.011-1.83,0.062c-0.614,0.028-1.105,0.062-1.552,0.095V29.78h2.656c2.946,0,5.156-0.374,6.663-1.139
				c1.462-0.765,2.221-2.171,2.221-4.235c0-0.999-0.189-1.831-0.568-2.483c-0.369-0.658-0.938-1.188-1.641-1.579
				c-0.703-0.407-1.574-0.67-2.578-0.826C132.174,19.361,131.047,19.283,129.83,19.283z"/>
			<path fill="#E64A19" d="M163.301,42.498c1.194,0,2.188-0.089,2.969-0.279c0.781-0.19,1.406-0.436,1.875-0.781
				c0.48-0.313,0.804-0.703,0.994-1.155c0.178-0.441,0.268-0.938,0.268-1.501c0-1.172-0.58-2.154-1.752-2.924
				c-1.15-0.764-3.159-1.607-5.982-2.511c-1.239-0.407-2.467-0.876-3.705-1.406c-1.229-0.536-2.344-1.222-3.326-2.031
				c-0.971-0.814-1.786-1.786-2.389-2.94c-0.613-1.155-0.926-2.562-0.926-4.219c0-1.658,0.313-3.153,0.971-4.47
				c0.658-1.339,1.596-2.466,2.779-3.404c1.205-0.921,2.656-1.641,4.363-2.143c1.696-0.497,3.639-0.748,5.759-0.748
				c2.556,0,4.755,0.268,6.597,0.781c1.841,0.513,3.381,1.077,4.575,1.702l-2.444,6.378c-1.071-0.536-2.221-0.987-3.516-1.378
				c-1.306-0.408-2.834-0.592-4.643-0.592c-2.054,0-3.504,0.251-4.408,0.798c-0.871,0.53-1.317,1.356-1.317,2.45
				c0,0.658,0.156,1.222,0.469,1.657c0.347,0.435,0.804,0.843,1.406,1.216c0.603,0.363,1.284,0.692,2.065,0.971
				c0.781,0.313,1.641,0.608,2.6,0.904c1.953,0.703,3.65,1.378,5.101,2.065c1.462,0.658,2.679,1.439,3.628,2.344
				c0.959,0.904,1.674,1.953,2.143,3.158c0.469,1.217,0.714,2.667,0.714,4.403c0,3.342-1.228,5.938-3.694,7.784
				c-2.478,1.842-6.205,2.763-11.172,2.763c-1.662,0-3.181-0.106-4.52-0.296c-1.34-0.19-2.533-0.407-3.561-0.687
				c-1.049-0.285-1.92-0.563-2.679-0.876c-0.747-0.313-1.372-0.608-1.875-0.876l2.411-6.423c1.127,0.581,2.5,1.111,4.151,1.58
				C158.893,42.28,160.901,42.498,163.301,42.498z"/>
		</g>
	</g>
</g>
</svg>
