<?xml version="1.0" encoding="utf-8"?>
<!-- Generator: Adobe Illustrator 21.0.0, SVG Export Plug-In . SVG Version: 6.00 Build 0)  -->
<svg version="1.1" id="图层_1" xmlns="http://www.w3.org/2000/svg" xmlns:xlink="http://www.w3.org/1999/xlink" x="0px" y="0px"
	 viewBox="0 0 256 256" style="enable-background:new 0 0 256 256;" xml:space="preserve">
<style type="text/css">
	.st0{opacity:0.08;enable-background:new    ;}
	.st1{opacity:0.1;enable-background:new    ;}
	.st2{opacity:0.2;enable-background:new    ;}
	.st3{fill:#1B5E20;}
	.st4{fill:url(#SVGID_1_);}
	.st5{fill:#1B5E20;fill-opacity:0.39;}
	.st6{fill:#FFFFFF;fill-opacity:0.3922;}
	.st7{opacity:0.8;fill:#FFFFFF;enable-background:new    ;}
	.st8{enable-background:new    ;}
	.st9{fill:#38883B;}
</style>
<polygon class="st0" points="34.1,256 34.1,4 225.9,4 225.9,185 154.9,256 "/>
<polygon class="st1" points="36.1,254 36.1,6 223.9,6 223.9,184.2 154,254 "/>
<polygon class="st2" points="34.1,252 34.1,4 221.9,4 221.9,182.2 152,252 "/>
<polygon class="st3" points="36.1,250 36.1,6 219.9,6 219.9,181.3 151.2,250 "/>
<g>
	<g>
		<g>
			<g>
				<g>
					
						<linearGradient id="SVGID_1_" gradientUnits="userSpaceOnUse" x1="211.2002" y1="-1084.8008" x2="211.2002" y2="-844.8008" gradientTransform="matrix(1 0 0 -1 -83.2002 -836.8008)">
						<stop  offset="0" style="stop-color:#388E3C"/>
						<stop  offset="0.0757" style="stop-color:#43953E"/>
						<stop  offset="0.3246" style="stop-color:#62A943"/>
						<stop  offset="0.5665" style="stop-color:#79B747"/>
						<stop  offset="0.796" style="stop-color:#86C049"/>
						<stop  offset="1" style="stop-color:#8BC34A"/>
					</linearGradient>
					<polygon class="st4" points="38.1,248 38.1,8 217.9,8 217.9,180.5 150.4,248 					"/>
				</g>
				<polygon class="st5" points="217.9,180.5 217.9,177.6 146.7,177.6 146.7,248 150.4,248 				"/>
				<path class="st6" d="M150.3,180.5l67.6,0.1L150.4,248L150.3,180.5z"/>
			</g>
			<path class="st7" d="M132.4,61v-0.2h-8.9V61H66.2v111.8h123.6V61H132.4z M75.1,94.2h27.6v17.9H75.1V94.2z M75.1,121h27.6v17.8
				H75.1V121z M111.9,121h69v17.8h-69C111.9,138.8,111.9,121,111.9,121z M111.9,112.1V94.2h69v17.9H111.9L111.9,112.1z M180.9,70
				v15.4h-69V70H180.9z M102.7,70v15.4H75.1V70H102.7z M75.1,147.8h27.6v16H75.1V147.8z M111.9,163.8v-16h69v16H111.9z"/>
		</g>
	</g>
	<g>
		<rect x="38" y="8" class="st7" width="179.9" height="46"/>
		<g class="st8">
			<path class="st9" d="M91,48.7V12.8h25.5v6.8h-17v7h15.1v6.6H99.5v8.6h18.3v6.8L91,48.7L91,48.7z"/>
			<path class="st9" d="M165,12.8v6.9h-11.4v29h-8.5v-29h-11.4v-6.9C133.7,12.8,165,12.8,165,12.8z"/>
		</g>
	</g>
</g>
</svg>
