<?xml version="1.0" encoding="utf-8"?>
<!-- Generator: Adobe Illustrator 21.0.0, SVG Export Plug-In . SVG Version: 6.00 Build 0)  -->
<svg version="1.1" id="图层_1" xmlns="http://www.w3.org/2000/svg" xmlns:xlink="http://www.w3.org/1999/xlink" x="0px" y="0px"
	 viewBox="0 0 256 256" style="enable-background:new 0 0 256 256;" xml:space="preserve">
<style type="text/css">
	.st0{opacity:0.08;enable-background:new    ;}
	.st1{opacity:0.1;enable-background:new    ;}
	.st2{opacity:0.2;enable-background:new    ;}
	.st3{fill:#0D47A1;}
	.st4{fill:url(#SVGID_1_);}
	.st5{opacity:0.8;}
	.st6{opacity:0.8;fill:#FFFFFF;enable-background:new    ;}
	.st7{fill:#FFFFFF;}
	.st8{enable-background:new    ;}
	.st9{fill:#236FB7;}
</style>
<g>
	<rect x="34.1" y="4" class="st0" width="191.8" height="252"/>
	<rect x="36.1" y="6" class="st1" width="187.8" height="248"/>
	<rect x="34.1" y="4" class="st2" width="187.8" height="248"/>
</g>
<rect x="36.1" y="6" class="st3" width="183.8" height="244"/>
<g>
	
		<linearGradient id="SVGID_1_" gradientUnits="userSpaceOnUse" x1="128" y1="542" x2="128" y2="782" gradientTransform="matrix(1 0 0 1 0 -534)">
		<stop  offset="0" style="stop-color:#64B5F6"/>
		<stop  offset="1" style="stop-color:#3F51B5"/>
	</linearGradient>
	<rect x="38.1" y="8" class="st4" width="179.8" height="240"/>
	<g class="st5">
		<rect x="61.3" y="102.9" class="st6" width="133.3" height="6.6"/>
		<rect x="61.3" y="82.3" class="st6" width="133.3" height="6.6"/>
		<rect x="124.9" y="122.3" class="st6" width="69.6" height="69.6"/>
		<g class="st5">
			<rect x="61.3" y="123.5" class="st7" width="57.9" height="6.6"/>
			<rect x="61.3" y="144.1" class="st7" width="57.9" height="6.6"/>
			<rect x="61.3" y="164.8" class="st7" width="57.9" height="6.6"/>
			<rect x="61.3" y="185.4" class="st7" width="57.9" height="6.6"/>
		</g>
	</g>
	<g>
		<rect x="38.1" y="8" class="st6" width="179.9" height="46"/>
		<g class="st8">
			<path class="st9" d="M97.3,16.9c0.4,1.4,0.9,3,1.5,4.8c0.5,1.8,1.1,3.6,1.7,5.5s1.2,3.8,1.8,5.7s1.2,3.7,1.8,5.3
				c0.5-1.8,1-3.7,1.5-5.7c0.5-2.1,0.9-4.2,1.4-6.4s0.9-4.4,1.3-6.6s0.8-4.3,1.2-6.3h8.8c-1.3,6-2.8,12.1-4.4,18.3
				c-1.7,6.2-3.5,12-5.4,17.6h-7.8c-1.3-3.3-2.5-6.8-3.7-10.4c-1.2-3.6-2.4-7.3-3.5-10.9c-1.2,3.7-2.3,7.3-3.5,10.9
				c-1.2,3.7-2.4,7.1-3.7,10.4h-7.8c-1.9-5.6-3.7-11.4-5.4-17.6S70,19.1,68.7,13.1h9.2c0.4,2,0.8,4.1,1.2,6.3
				c0.4,2.2,0.9,4.4,1.4,6.6s1,4.3,1.5,6.4s1,4,1.5,5.7c0.7-1.7,1.3-3.5,1.9-5.4c0.6-1.9,1.2-3.8,1.8-5.7c0.6-1.9,1.1-3.7,1.6-5.5
				s0.9-3.3,1.3-4.7L97.3,16.9L97.3,16.9z"/>
			<path class="st9" d="M134.9,12.7c5.6,0,10,1,13,2.8c3,1.9,4.5,5,4.5,9.2c0,4.3-1.5,7.4-4.6,9.3c-3,1.9-7.4,2.9-13.1,2.9H132v12
				h-8.5V13.6c1.8-0.3,3.8-0.6,5.9-0.7C131.5,12.7,133.3,12.7,134.9,12.7z M135.4,19.5c-0.6,0-1.2,0-1.8,0s-1.1,0.1-1.5,0.1V30h2.7
				c2.9,0,5.2-0.4,6.7-1.1c1.5-0.8,2.2-2.2,2.2-4.3c0-1-0.2-1.8-0.6-2.5s-0.9-1.2-1.6-1.6s-1.6-0.7-2.6-0.8
				C137.8,19.6,136.7,19.5,135.4,19.5z"/>
			<path class="st9" d="M187.3,13.1V20h-11.4v29h-8.5V20H156v-6.9H187.3z"/>
		</g>
	</g>
</g>
</svg>
