<?xml version="1.0" encoding="utf-8"?>
<!-- Generator: Adobe Illustrator 16.0.0, SVG Export Plug-In . SVG Version: 6.00 Build 0)  -->
<!DOCTYPE svg PUBLIC "-//W3C//DTD SVG 1.1//EN" "http://www.w3.org/Graphics/SVG/1.1/DTD/svg11.dtd">
<svg version="1.1" id="图层_1" xmlns="http://www.w3.org/2000/svg" xmlns:xlink="http://www.w3.org/1999/xlink" x="0px" y="0px"
	 width="256px" height="256px" viewBox="0 0 256 256" enable-background="new 0 0 256 256" xml:space="preserve">
<rect x="34.1" y="4" opacity="0.08" enable-background="new    " width="191.8" height="252"/>
<rect x="36.1" y="6" opacity="0.1" enable-background="new    " width="187.8" height="248"/>
<rect x="34.1" y="4" opacity="0.2" enable-background="new    " width="187.8" height="248"/>
<rect x="36.1" y="6" fill="#E65100" width="183.8" height="244"/>
<g>
	
		<linearGradient id="SVGID_1_" gradientUnits="userSpaceOnUse" x1="211.2002" y1="1072.8008" x2="211.2002" y2="832.8008" gradientTransform="matrix(1 0 0 1 -83.2002 -824.8008)">
		<stop  offset="0" style="stop-color:#EE6F0B"/>
		<stop  offset="1" style="stop-color:#FFB74D"/>
	</linearGradient>
	<rect x="38.094" y="8" fill="url(#SVGID_1_)" width="179.813" height="240"/>
	<g opacity="0.8">
		<rect x="61.508" y="100.383" fill="#FFFFFF" width="19.195" height="96.211"/>
		<rect x="93.508" y="148.391" fill="#FFFFFF" width="19.195" height="48.094"/>
		<rect x="125.406" y="167.984" fill="#FFFFFF" width="19.188" height="28.813"/>
		<g>
			<path fill="#FFFFFF" d="M151.5,83.398l0.219,38.297l38.297-0.203c0.109,21.195-17.016,38.398-38.203,38.492
				c-21.219,0.125-38.406-17-38.516-38.188C113.203,100.688,130.305,83.492,151.5,83.398z"/>
			<path fill="#FFFFFF" d="M156,78.977c21.203-0.094,38.406,17.008,38.5,38.211l-38.281,0.211L156,78.977z"/>
		</g>
	</g>
	<g>
		<rect x="38.047" y="8" opacity="0.8" fill="#FFFFFF" enable-background="new    " width="179.906" height="46"/>
		<g enable-background="new    ">
			<path fill="#E64A19" d="M109.109,30.711c0,3.109-0.516,5.813-1.531,8.125c-1.016,2.32-2.453,4.227-4.328,5.742
				c-1.859,1.516-4.141,2.656-6.828,3.422c-2.688,0.75-5.703,1.125-9.047,1.125c-1.516,0-3.297-0.063-5.328-0.188
				c-2.031-0.109-4.031-0.359-5.984-0.75V13.281c1.953-0.344,4-0.578,6.125-0.703c2.125-0.117,3.938-0.18,5.469-0.18
				c3.234,0,6.156,0.344,8.797,1.039c2.625,0.688,4.891,1.773,6.781,3.258c1.875,1.484,3.328,3.383,4.344,5.688
				C108.594,24.695,109.109,27.469,109.109,30.711z M84.547,42.094c0.406,0.031,0.859,0.063,1.391,0.078s1.156,0.016,1.875,0.016
				c4.25,0,7.406-1,9.453-3.039s3.078-4.852,3.078-8.438c0-3.758-0.984-6.602-2.938-8.531c-1.969-1.93-5.063-2.898-9.313-2.898
				c-0.578,0-1.188,0.008-1.797,0.023c-0.625,0.023-1.203,0.063-1.75,0.133V42.094z"/>
			<path fill="#E64A19" d="M127.516,12.398c5.625,0,9.938,0.945,12.953,2.82c3.016,1.883,4.531,4.961,4.531,9.234
				c0,4.313-1.531,7.422-4.594,9.336c-3.031,1.914-7.406,2.875-13.063,2.875h-2.656v11.992h-8.5V13.328
				c1.859-0.344,3.813-0.586,5.875-0.719C124.141,12.469,125.953,12.398,127.516,12.398z M128.063,19.281
				c-0.625,0-1.234,0.016-1.828,0.055c-0.594,0.031-1.109,0.063-1.547,0.102v10.344h2.656c2.938,0,5.156-0.375,6.656-1.141
				c1.469-0.758,2.219-2.172,2.219-4.242c0-1-0.188-1.82-0.563-2.477s-0.938-1.188-1.641-1.578
				c-0.703-0.398-1.578-0.672-2.578-0.828C130.406,19.359,129.281,19.281,128.063,19.281z"/>
			<path fill="#E64A19" d="M179.938,12.813v6.883h-11.375v28.961h-8.5V19.695h-11.375v-6.883H179.938z"/>
		</g>
	</g>
</g>
</svg>
