<?xml version="1.0" encoding="utf-8"?>
<!-- Generator: Adobe Illustrator 16.0.0, SVG Export Plug-In . SVG Version: 6.00 Build 0)  -->
<!DOCTYPE svg PUBLIC "-//W3C//DTD SVG 1.1//EN" "http://www.w3.org/Graphics/SVG/1.1/DTD/svg11.dtd">
<svg version="1.1" id="图层_1" xmlns="http://www.w3.org/2000/svg" xmlns:xlink="http://www.w3.org/1999/xlink" x="0px" y="0px"
	 width="256px" height="256px" viewBox="0 0 256 256" enable-background="new 0 0 256 256" xml:space="preserve">
<rect x="34.1" y="4" opacity="0.08" enable-background="new    " width="191.8" height="252"/>
<rect x="36.1" y="6" opacity="0.1" enable-background="new    " width="187.8" height="248"/>
<rect x="34.1" y="4" opacity="0.2" enable-background="new    " width="187.8" height="248"/>
<rect x="36.1" y="6" fill="#E65100" width="183.8" height="244"/>
<g>
	
		<linearGradient id="SVGID_1_" gradientUnits="userSpaceOnUse" x1="211.2002" y1="1072.8008" x2="211.2002" y2="832.8008" gradientTransform="matrix(1 0 0 1 -83.2002 -824.8008)">
		<stop  offset="0" style="stop-color:#EE6F0B"/>
		<stop  offset="1" style="stop-color:#FFB74D"/>
	</linearGradient>
	<rect x="38.094" y="8" fill="url(#SVGID_1_)" width="179.813" height="240"/>
	<g opacity="0.8">
		<rect x="61.508" y="100.383" fill="#FFFFFF" width="19.195" height="96.211"/>
		<rect x="93.508" y="148.391" fill="#FFFFFF" width="19.195" height="48.094"/>
		<rect x="125.406" y="167.984" fill="#FFFFFF" width="19.188" height="28.813"/>
		<g>
			<path fill="#FFFFFF" d="M151.5,83.398l0.219,38.297l38.297-0.203c0.109,21.195-17.016,38.398-38.203,38.492
				c-21.219,0.125-38.406-17-38.516-38.188C113.203,100.688,130.305,83.492,151.5,83.398z"/>
			<path fill="#FFFFFF" d="M156,78.977c21.203-0.094,38.406,17.008,38.5,38.211l-38.281,0.211L156,78.977z"/>
		</g>
	</g>
	<g>
		<rect x="38.047" y="8" opacity="0.8" fill="#FFFFFF" enable-background="new    " width="179.906" height="46"/>
		<g enable-background="new    ">
			<path fill="#E64A19" d="M86.906,12.398c5.641,0,9.953,0.945,12.969,2.82c3.016,1.883,4.516,4.961,4.516,9.234
				c0,4.313-1.516,7.422-4.578,9.336c-3.047,1.914-7.406,2.875-13.063,2.875h-2.672v11.992h-8.484V13.328
				c1.844-0.344,3.797-0.586,5.875-0.719C83.531,12.469,85.344,12.398,86.906,12.398z M87.453,19.281
				c-0.609,0-1.219,0.016-1.813,0.055c-0.609,0.031-1.125,0.063-1.563,0.102v10.344h2.672c2.938,0,5.156-0.375,6.641-1.141
				c1.484-0.758,2.234-2.172,2.234-4.242c0-1-0.188-1.82-0.578-2.477c-0.375-0.656-0.922-1.188-1.625-1.578
				c-0.703-0.398-1.578-0.672-2.594-0.828S88.688,19.281,87.453,19.281z"/>
			<path fill="#E64A19" d="M146.594,30.711c0,3.07-0.484,5.773-1.438,8.102c-0.969,2.328-2.281,4.281-3.953,5.844
				s-3.656,2.75-5.969,3.531c-2.297,0.813-4.781,1.203-7.422,1.203c-2.578,0-5.016-0.391-7.297-1.203
				c-2.297-0.781-4.281-1.969-6-3.531c-1.703-1.563-3.047-3.516-4.016-5.844c-0.984-2.328-1.484-5.031-1.484-8.102
				s0.516-5.766,1.531-8.094s2.391-4.281,4.109-5.875c1.734-1.586,3.719-2.773,6-3.563c2.266-0.797,4.641-1.195,7.156-1.195
				c2.563,0,5,0.398,7.281,1.195c2.297,0.789,4.281,1.977,6,3.563c1.703,1.594,3.047,3.547,4.031,5.875
				C146.094,24.945,146.594,27.641,146.594,30.711z M117.797,30.711c0,1.758,0.219,3.352,0.672,4.758
				c0.453,1.422,1.109,2.633,1.969,3.648c0.844,1.023,1.891,1.805,3.125,2.352c1.234,0.563,2.656,0.844,4.25,0.844
				c1.563,0,2.969-0.281,4.219-0.844c1.25-0.547,2.297-1.328,3.156-2.352c0.844-1.016,1.5-2.227,1.953-3.648
				c0.453-1.406,0.688-3,0.688-4.758s-0.234-3.352-0.688-4.781s-1.109-2.656-1.953-3.672c-0.859-1.016-1.906-1.805-3.156-2.359
				c-1.25-0.547-2.656-0.828-4.219-0.828c-1.594,0-3.016,0.289-4.25,0.859s-2.281,1.359-3.125,2.375
				c-0.859,1.023-1.516,2.242-1.969,3.672C118.016,27.414,117.797,28.992,117.797,30.711z"/>
			<path fill="#E64A19" d="M180.406,12.813v6.883h-11.391v28.961h-8.484V19.695h-11.391v-6.883H180.406z"/>
		</g>
	</g>
</g>
</svg>
