<?xml version="1.0" encoding="utf-8"?>
<!-- Generator: Adobe Illustrator 16.0.0, SVG Export Plug-In . SVG Version: 6.00 Build 0)  -->
<!DOCTYPE svg PUBLIC "-//W3C//DTD SVG 1.1//EN" "http://www.w3.org/Graphics/SVG/1.1/DTD/svg11.dtd">
<svg version="1.1" id="图层_1" xmlns="http://www.w3.org/2000/svg" xmlns:xlink="http://www.w3.org/1999/xlink" x="0px" y="0px"
	 width="256px" height="256px" viewBox="0 0 256 256" enable-background="new 0 0 256 256" xml:space="preserve">
<polygon opacity="0.08" enable-background="new    " points="34.1,256 34.1,4 225.9,4 225.9,185 154.9,256 "/>
<polygon opacity="0.1" enable-background="new    " points="36.1,254 36.1,6 223.9,6 223.9,184.2 154,254 "/>
<polygon opacity="0.2" enable-background="new    " points="34.1,252 34.1,4 221.9,4 221.9,182.2 152,252 "/>
<polygon fill="#0D47A1" points="36.1,250 36.1,6 219.9,6 219.9,181.3 151.2,250 "/>
<g>
	<g>
		<g>
			<g>
				<linearGradient id="SVGID_1_" gradientUnits="userSpaceOnUse" x1="128.0786" y1="248" x2="128.0786" y2="8.0005">
					<stop  offset="0" style="stop-color:#3F51B5"/>
					<stop  offset="1" style="stop-color:#64B5F6"/>
				</linearGradient>
				<polygon fill="url(#SVGID_1_)" points="38.172,248 38.172,8 217.984,8 217.984,180.5 150.484,248 				"/>
			</g>
			<polygon fill="#2196F3" fill-opacity="0.7" points="217.984,180.5 217.984,177.594 146.781,177.594 146.781,248 150.484,248 			
				"/>
			<path opacity="0.39" fill="#FFFFFF" d="M150.391,180.5L218,180.594L150.484,248L150.391,180.5z"/>
		</g>
		<g opacity="0.8">
			<linearGradient id="SVGID_2_" gradientUnits="userSpaceOnUse" x1="64.8281" y1="89.8711" x2="191.2344" y2="89.8711">
				<stop  offset="0" style="stop-color:#F6F5F5"/>
				<stop  offset="0.341" style="stop-color:#F1F2F3"/>
				<stop  offset="0.6434" style="stop-color:#E7EAEB"/>
				<stop  offset="0.9302" style="stop-color:#D5DBDF"/>
				<stop  offset="1" style="stop-color:#CFD7DB"/>
			</linearGradient>
			<rect x="64.828" y="86.742" opacity="0.8" fill="url(#SVGID_2_)" enable-background="new    " width="126.406" height="6.258"/>
			<linearGradient id="SVGID_3_" gradientUnits="userSpaceOnUse" x1="64.8281" y1="70.3359" x2="191.2344" y2="70.3359">
				<stop  offset="0" style="stop-color:#F6F5F5"/>
				<stop  offset="0.341" style="stop-color:#F1F2F3"/>
				<stop  offset="0.6434" style="stop-color:#E7EAEB"/>
				<stop  offset="0.9302" style="stop-color:#D5DBDF"/>
				<stop  offset="1" style="stop-color:#CFD7DB"/>
			</linearGradient>
			<rect x="64.828" y="67.203" opacity="0.8" fill="url(#SVGID_3_)" enable-background="new    " width="126.406" height="6.266"/>
			<linearGradient id="SVGID_4_" gradientUnits="userSpaceOnUse" x1="125.1406" y1="138.1172" x2="191.1406" y2="138.1172">
				<stop  offset="0" style="stop-color:#F6F5F5"/>
				<stop  offset="0.341" style="stop-color:#F1F2F3"/>
				<stop  offset="0.6434" style="stop-color:#E7EAEB"/>
				<stop  offset="0.9302" style="stop-color:#D5DBDF"/>
				<stop  offset="1" style="stop-color:#CFD7DB"/>
			</linearGradient>
			<rect x="125.141" y="105.125" opacity="0.8" fill="url(#SVGID_4_)" enable-background="new    " width="66" height="65.984"/>
			<g opacity="0.8">
				<linearGradient id="SVGID_5_" gradientUnits="userSpaceOnUse" x1="64.8281" y1="109.3984" x2="119.7344" y2="109.3984">
					<stop  offset="0" style="stop-color:#F6F5F5"/>
					<stop  offset="0.341" style="stop-color:#F1F2F3"/>
					<stop  offset="0.6434" style="stop-color:#E7EAEB"/>
					<stop  offset="0.9302" style="stop-color:#D5DBDF"/>
					<stop  offset="1" style="stop-color:#CFD7DB"/>
				</linearGradient>
				<rect x="64.828" y="106.266" fill="url(#SVGID_5_)" width="54.906" height="6.266"/>
				<linearGradient id="SVGID_6_" gradientUnits="userSpaceOnUse" x1="64.8281" y1="128.9375" x2="119.7344" y2="128.9375">
					<stop  offset="0" style="stop-color:#F6F5F5"/>
					<stop  offset="0.341" style="stop-color:#F1F2F3"/>
					<stop  offset="0.6434" style="stop-color:#E7EAEB"/>
					<stop  offset="0.9302" style="stop-color:#D5DBDF"/>
					<stop  offset="1" style="stop-color:#CFD7DB"/>
				</linearGradient>
				<rect x="64.828" y="125.813" fill="url(#SVGID_6_)" width="54.906" height="6.25"/>
				<linearGradient id="SVGID_7_" gradientUnits="userSpaceOnUse" x1="64.8281" y1="148.5469" x2="119.7344" y2="148.5469">
					<stop  offset="0" style="stop-color:#F6F5F5"/>
					<stop  offset="0.341" style="stop-color:#F1F2F3"/>
					<stop  offset="0.6434" style="stop-color:#E7EAEB"/>
					<stop  offset="0.9302" style="stop-color:#D5DBDF"/>
					<stop  offset="1" style="stop-color:#CFD7DB"/>
				</linearGradient>
				<rect x="64.828" y="145.422" fill="url(#SVGID_7_)" width="54.906" height="6.25"/>
				<linearGradient id="SVGID_8_" gradientUnits="userSpaceOnUse" x1="64.8281" y1="168.0781" x2="119.7344" y2="168.0781">
					<stop  offset="0" style="stop-color:#F6F5F5"/>
					<stop  offset="0.341" style="stop-color:#F1F2F3"/>
					<stop  offset="0.6434" style="stop-color:#E7EAEB"/>
					<stop  offset="0.9302" style="stop-color:#D5DBDF"/>
					<stop  offset="1" style="stop-color:#CFD7DB"/>
				</linearGradient>
				<rect x="64.828" y="164.953" fill="url(#SVGID_8_)" width="54.906" height="6.25"/>
			</g>
		</g>
	</g>
	<g>
		<rect x="38" y="8" opacity="0.8" fill="#FFFFFF" width="179.906" height="46"/>
	</g>
	<g>
		<path fill="#1976D2" d="M98.469,16.906c0.438,1.414,0.914,3.008,1.445,4.789c0.523,1.773,1.086,3.609,1.688,5.508
			c0.594,1.898,1.203,3.797,1.82,5.688c0.609,1.898,1.211,3.656,1.789,5.281c0.477-1.758,0.961-3.672,1.453-5.742
			s0.953-4.211,1.391-6.414c0.438-2.211,0.867-4.406,1.289-6.602c0.422-2.188,0.813-4.297,1.172-6.336h8.828
			c-1.281,6-2.75,12.094-4.414,18.266c-1.656,6.172-3.453,12.031-5.391,17.586h-7.773c-1.266-3.313-2.5-6.781-3.695-10.422
			s-2.367-7.289-3.531-10.945c-1.164,3.656-2.328,7.305-3.484,10.945c-1.164,3.641-2.383,7.109-3.656,10.422h-7.766
			c-1.93-5.555-3.727-11.414-5.383-17.586c-1.664-6.172-3.125-12.266-4.406-18.266h9.203c0.367,2.039,0.766,4.148,1.203,6.336
			c0.438,2.195,0.898,4.391,1.367,6.602c0.477,2.203,0.961,4.344,1.453,6.414s0.992,3.984,1.508,5.742
			c0.648-1.695,1.289-3.484,1.906-5.383s1.219-3.789,1.805-5.688c0.578-1.898,1.117-3.727,1.602-5.484
			c0.492-1.758,0.938-3.328,1.344-4.711H98.469z"/>
		<path fill="#1976D2" d="M136.047,12.664c5.656,0,9.969,0.945,12.969,2.82c3.031,1.883,4.531,4.961,4.531,9.234
			c0,4.313-1.531,7.422-4.563,9.336c-3.063,1.914-7.406,2.875-13.094,2.875h-2.656v12h-8.5V13.594
			c1.844-0.344,3.813-0.586,5.875-0.719C132.672,12.734,134.484,12.664,136.047,12.664z M136.609,19.547
			c-0.625,0-1.219,0.016-1.813,0.055c-0.625,0.031-1.125,0.063-1.563,0.102v10.344h2.656c2.938,0,5.156-0.375,6.656-1.141
			c1.5-0.758,2.219-2.172,2.219-4.242c0-0.992-0.188-1.82-0.563-2.477s-0.938-1.188-1.625-1.578
			c-0.719-0.398-1.563-0.672-2.594-0.828S137.828,19.547,136.609,19.547z"/>
		<path fill="#1976D2" d="M170.078,42.773c1.219,0,2.188-0.094,2.969-0.281c0.781-0.195,1.406-0.453,1.906-0.781
			c0.469-0.328,0.781-0.711,0.969-1.164c0.188-0.445,0.281-0.945,0.281-1.5c0-1.172-0.594-2.148-1.75-2.922s-3.156-1.609-6-2.508
			c-1.219-0.414-2.469-0.891-3.688-1.422c-1.25-0.531-2.344-1.211-3.344-2.016c-0.969-0.813-1.781-1.797-2.375-2.953
			c-0.625-1.156-0.938-2.563-0.938-4.211c0-1.656,0.344-3.148,0.969-4.477c0.656-1.328,1.594-2.461,2.781-3.391
			c1.219-0.93,2.656-1.648,4.375-2.148c1.688-0.5,3.625-0.75,5.75-0.75c2.563,0,4.75,0.258,6.594,0.781
			c1.875,0.516,3.375,1.086,4.594,1.703l-2.469,6.367c-1.031-0.523-2.219-0.977-3.5-1.375s-2.844-0.594-4.656-0.594
			c-2.031,0-3.5,0.266-4.375,0.805c-0.906,0.531-1.344,1.352-1.344,2.453c0,0.656,0.156,1.211,0.5,1.656
			c0.313,0.445,0.781,0.852,1.375,1.219c0.594,0.359,1.281,0.688,2.063,0.977c0.781,0.297,1.656,0.602,2.594,0.906
			c1.969,0.695,3.656,1.375,5.125,2.047c1.438,0.672,2.656,1.453,3.625,2.352c0.938,0.898,1.656,1.953,2.156,3.156
			c0.469,1.211,0.688,2.672,0.688,4.398c0,3.344-1.219,5.938-3.688,7.781c-2.469,1.852-6.188,2.773-11.188,2.773
			c-1.656,0-3.156-0.102-4.5-0.289s-2.531-0.422-3.563-0.695s-1.938-0.57-2.688-0.883c-0.719-0.305-1.375-0.602-1.875-0.875
			l2.406-6.414c1.125,0.586,2.5,1.109,4.156,1.578C165.672,42.539,167.703,42.773,170.078,42.773z"/>
	</g>
</g>
</svg>
