<?xml version="1.0" encoding="utf-8"?>
<!-- Generator: Adobe Illustrator 16.0.0, SVG Export Plug-In . SVG Version: 6.00 Build 0)  -->
<!DOCTYPE svg PUBLIC "-//W3C//DTD SVG 1.1//EN" "http://www.w3.org/Graphics/SVG/1.1/DTD/svg11.dtd">
<svg version="1.1" id="图层_1" xmlns="http://www.w3.org/2000/svg" xmlns:xlink="http://www.w3.org/1999/xlink" x="0px" y="0px"
	 width="256px" height="256px" viewBox="0 0 256 256" enable-background="new 0 0 256 256" xml:space="preserve">
<polygon opacity="0.08" enable-background="new    " points="34.1,256 34.1,4 225.9,4 225.9,185 154.9,256 "/>
<polygon opacity="0.1" enable-background="new    " points="36.1,254 36.1,6 223.9,6 223.9,184.2 154,254 "/>
<polygon opacity="0.2" enable-background="new    " points="34.1,252 34.1,4 221.9,4 221.9,182.2 152,252 "/>
<polygon fill="#1B5E20" points="36.1,250 36.1,6 219.9,6 219.9,181.3 151.2,250 "/>
<g>
	<g>
		<g>
			<g>
				
					<linearGradient id="SVGID_1_" gradientUnits="userSpaceOnUse" x1="211.1855" y1="-574.8003" x2="211.1855" y2="-334.8008" gradientTransform="matrix(1 0 0 -1 -83.2002 -326.8008)">
					<stop  offset="0" style="stop-color:#388E3C"/>
					<stop  offset="0.0757" style="stop-color:#43953E"/>
					<stop  offset="0.3246" style="stop-color:#62A943"/>
					<stop  offset="0.5665" style="stop-color:#79B747"/>
					<stop  offset="0.796" style="stop-color:#86C049"/>
					<stop  offset="1" style="stop-color:#8BC34A"/>
				</linearGradient>
				<polygon fill="url(#SVGID_1_)" points="38.078,248 38.078,8 217.891,8 217.891,180.5 150.391,248 				"/>
			</g>
			<polygon fill="#1B5E20" fill-opacity="0.39" points="217.891,180.5 217.891,177.594 146.688,177.594 146.688,248 150.391,248 			
				"/>
			<path fill="#FFFFFF" fill-opacity="0.3922" d="M150.297,180.5l67.609,0.094L150.391,248L150.297,180.5z"/>
		</g>
		<path opacity="0.8" fill="#FFFFFF" enable-background="new    " d="M132.438,61v-0.203h-8.891V61H66.188v111.797h123.594V61
			H132.438z M75.078,94.195h27.594v17.859H75.078V94.195z M75.078,120.953h27.594v17.844H75.078V120.953z M111.859,120.953h69.031
			v17.844h-69.031V120.953z M111.859,112.055V94.195h69.031v17.859H111.859z M180.891,69.977v15.352h-69.031V69.977H180.891z
			 M102.672,69.977v15.352H75.078V69.977H102.672z M75.078,147.781h27.594v16.047H75.078V147.781z M111.859,163.828v-16.047h69.031
			v16.047H111.859z"/>
	</g>
	<g>
		<rect x="38.047" y="8" opacity="0.8" fill="#FFFFFF" enable-background="new    " width="179.906" height="46"/>
		<g enable-background="new    ">
			<path fill="#388E3C" d="M104.031,48.664c-1.063-2-2.234-4.016-3.484-6.07c-1.266-2.047-2.719-3.773-4.344-5.195
				c-0.516,0.539-1.156,1.281-1.938,2.227c-0.781,0.953-1.563,1.961-2.344,3.023c-0.781,1.07-1.5,2.172-2.188,3.32
				s-1.188,2.047-1.516,2.695h-9.688c1.578-2.797,3.453-5.688,5.625-8.672c2.156-2.977,4.578-6.141,7.234-9.492L79.078,12.813
				h10.281l7.188,10.383l7.359-10.383h9.688l-12.234,17.305c3.203,3.82,5.844,7.328,7.922,10.508
				c2.078,3.188,3.703,5.867,4.922,8.039H104.031z"/>
			<path fill="#388E3C" d="M144.297,41.734v6.93h-25.188V12.813h8.484v28.922H144.297z"/>
			<path fill="#388E3C" d="M160.953,42.508c1.219,0,2.188-0.094,2.969-0.281c0.781-0.195,1.406-0.453,1.875-0.781
				c0.5-0.328,0.813-0.711,1-1.164c0.188-0.445,0.281-0.945,0.281-1.5c0-1.172-0.594-2.148-1.75-2.922s-3.156-1.609-6-2.508
				c-1.219-0.414-2.469-0.891-3.688-1.422c-1.25-0.531-2.344-1.211-3.344-2.016c-0.969-0.813-1.781-1.797-2.375-2.953
				c-0.625-1.156-0.938-2.563-0.938-4.211c0-1.656,0.313-3.148,0.969-4.477s1.594-2.461,2.781-3.391
				c1.219-0.93,2.656-1.648,4.375-2.148c1.688-0.5,3.625-0.75,5.75-0.75c2.563,0,4.75,0.258,6.594,0.781
				c1.844,0.516,3.375,1.086,4.594,1.703l-2.469,6.367c-1.063-0.523-2.219-0.977-3.5-1.375c-1.313-0.398-2.844-0.594-4.656-0.594
				c-2.031,0-3.5,0.266-4.406,0.805c-0.875,0.531-1.313,1.352-1.313,2.453c0,0.656,0.156,1.211,0.469,1.656
				c0.344,0.445,0.813,0.852,1.406,1.219c0.594,0.359,1.281,0.688,2.063,0.977c0.781,0.297,1.656,0.602,2.594,0.906
				c1.969,0.695,3.656,1.375,5.125,2.047c1.438,0.672,2.656,1.453,3.625,2.352c0.938,0.898,1.656,1.953,2.125,3.156
				c0.469,1.211,0.719,2.672,0.719,4.398c0,3.344-1.219,5.938-3.688,7.781c-2.469,1.852-6.219,2.773-11.188,2.773
				c-1.656,0-3.156-0.102-4.5-0.289s-2.531-0.422-3.563-0.695c-1.063-0.273-1.938-0.57-2.688-0.883
				c-0.75-0.305-1.375-0.602-1.875-0.875l2.406-6.414c1.125,0.586,2.5,1.109,4.156,1.578
				C156.547,42.273,158.578,42.508,160.953,42.508z"/>
		</g>
	</g>
</g>
</svg>
