<?xml version="1.0" encoding="utf-8"?>
<!-- Generator: Adobe Illustrator 21.0.0, SVG Export Plug-In . SVG Version: 6.00 Build 0)  -->
<svg version="1.1" id="图层_1" xmlns="http://www.w3.org/2000/svg" xmlns:xlink="http://www.w3.org/1999/xlink" x="0px" y="0px"
	 viewBox="0 0 256 256" style="enable-background:new 0 0 256 256;" xml:space="preserve">
<style type="text/css">
	.st0{opacity:0.08;enable-background:new    ;}
	.st1{opacity:0.1;enable-background:new    ;}
	.st2{opacity:0.2;enable-background:new    ;}
	.st3{fill:#1B5E20;}
	.st4{fill:url(#SVGID_1_);}
	.st5{fill:#1B5E20;fill-opacity:0.39;}
	.st6{fill:#FFFFFF;fill-opacity:0.3922;}
	.st7{opacity:0.8;fill:#FFFFFF;enable-background:new    ;}
	.st8{enable-background:new    ;}
	.st9{fill:#388E3C;}
</style>
<polygon class="st0" points="34.1,256 34.1,4 225.9,4 225.9,185 154.9,256 "/>
<polygon class="st1" points="36.1,254 36.1,6 223.9,6 223.9,184.2 154,254 "/>
<polygon class="st2" points="34.1,252 34.1,4 221.9,4 221.9,182.2 152,252 "/>
<polygon class="st3" points="36.1,250 36.1,6 219.9,6 219.9,181.3 151.2,250 "/>
<g>
	<g>
		<g>
			<g>
				
					<linearGradient id="SVGID_1_" gradientUnits="userSpaceOnUse" x1="211.2002" y1="-1084.8008" x2="211.2002" y2="-844.8008" gradientTransform="matrix(1 0 0 -1 -83.2002 -836.8008)">
					<stop  offset="0" style="stop-color:#388E3C"/>
					<stop  offset="0.0757" style="stop-color:#43953E"/>
					<stop  offset="0.3246" style="stop-color:#62A943"/>
					<stop  offset="0.5665" style="stop-color:#79B747"/>
					<stop  offset="0.796" style="stop-color:#86C049"/>
					<stop  offset="1" style="stop-color:#8BC34A"/>
				</linearGradient>
				<polygon class="st4" points="38.1,248 38.1,8 217.9,8 217.9,180.5 150.4,248 				"/>
			</g>
			<polygon class="st5" points="217.9,180.5 217.9,177.6 146.7,177.6 146.7,248 150.4,248 			"/>
			<path class="st6" d="M150.3,180.5l67.6,0.1L150.4,248L150.3,180.5z"/>
		</g>
		<path class="st7" d="M132.4,61v-0.2h-8.9V61H66.2v111.8h123.6V61H132.4z M75.1,94.2h27.6v17.9H75.1V94.2z M75.1,121h27.6v17.8
			H75.1V121z M111.9,121h69v17.8h-69C111.9,138.8,111.9,121,111.9,121z M111.9,112.1V94.2h69v17.9H111.9L111.9,112.1z M180.9,70
			v15.4h-69V70H180.9z M102.7,70v15.4H75.1V70H102.7z M75.1,147.8h27.6v16H75.1V147.8z M111.9,163.8v-16h69v16H111.9z"/>
	</g>
	<g>
		<rect x="38" y="8" class="st7" width="179.9" height="46"/>
		<g class="st8">
			<path class="st9" d="M104,48.7c-1.1-2-2.2-4-3.5-6.1c-1.3-2-2.7-3.8-4.3-5.2c-0.5,0.5-1.2,1.3-1.9,2.2c-0.8,1-1.6,2-2.3,3
				c-0.8,1.1-1.5,2.2-2.2,3.3s-1.2,2-1.5,2.7h-9.7c1.6-2.8,3.5-5.7,5.6-8.7c2.2-3,4.6-6.1,7.2-9.5L79.1,12.8h10.3l7.2,10.4l7.4-10.4
				h9.7l-12.2,17.3c3.2,3.8,5.8,7.3,7.9,10.5c2.1,3.2,3.7,5.9,4.9,8L104,48.7L104,48.7z"/>
			<path class="st9" d="M144.3,41.7v6.9h-25.2V12.8h8.5v28.9H144.3L144.3,41.7z"/>
			<path class="st9" d="M161,42.5c1.2,0,2.2-0.1,3-0.3s1.4-0.5,1.9-0.8s0.8-0.7,1-1.2c0.2-0.4,0.3-0.9,0.3-1.5
				c0-1.2-0.6-2.1-1.8-2.9s-3.2-1.6-6-2.5c-1.2-0.4-2.5-0.9-3.7-1.4c-1.3-0.5-2.3-1.2-3.3-2s-1.8-1.8-2.4-3
				c-0.6-1.2-0.9-2.6-0.9-4.2c0-1.7,0.3-3.1,1-4.5s1.6-2.5,2.8-3.4s2.7-1.6,4.4-2.1s3.6-0.8,5.8-0.8c2.6,0,4.8,0.3,6.6,0.8
				s3.4,1.1,4.6,1.7l-2.5,6.4c-1.1-0.5-2.2-1-3.5-1.4s-2.8-0.6-4.7-0.6c-2,0-3.5,0.3-4.4,0.8s-1.3,1.4-1.3,2.5
				c0,0.7,0.2,1.2,0.5,1.7c0.3,0.4,0.8,0.9,1.4,1.2c0.6,0.4,1.3,0.7,2.1,1s1.7,0.6,2.6,0.9c2,0.7,3.7,1.4,5.1,2
				c1.4,0.7,2.7,1.5,3.6,2.4c0.9,0.9,1.7,2,2.1,3.2c0.5,1.2,0.7,2.7,0.7,4.4c0,3.3-1.2,5.9-3.7,7.8c-2.5,1.9-6.2,2.8-11.2,2.8
				c-1.7,0-3.2-0.1-4.5-0.3s-2.5-0.4-3.6-0.7s-1.9-0.6-2.7-0.9c-0.8-0.3-1.4-0.6-1.9-0.9l2.4-6.4c1.1,0.6,2.5,1.1,4.2,1.6
				C156.5,42.3,158.6,42.5,161,42.5z"/>
		</g>
	</g>
</g>
</svg>
