<?xml version="1.0" encoding="utf-8"?>
<!-- Generator: Adobe Illustrator 21.0.0, SVG Export Plug-In . SVG Version: 6.00 Build 0)  -->
<svg version="1.1" id="图层_1" xmlns="http://www.w3.org/2000/svg" xmlns:xlink="http://www.w3.org/1999/xlink" x="0px" y="0px"
	 viewBox="0 0 256 256" style="enable-background:new 0 0 256 256;" xml:space="preserve">
<style type="text/css">
	.st0{opacity:0.08;enable-background:new    ;}
	.st1{opacity:0.1;enable-background:new    ;}
	.st2{opacity:0.2;enable-background:new    ;}
	.st3{fill:url(#SVGID_1_);}
	.st4{fill:#B71C1C;fill-opacity:0.3922;}
	.st5{fill:#FFFFFF;fill-opacity:0.3922;}
	.st6{opacity:0.8;fill:#FFFFFF;enable-background:new    ;}
	.st7{fill:#B71C1C;}
</style>
<g id="surface1">
	<polygon class="st0" points="34.5,256 34.5,4 225.5,4 225.5,185 154.5,256 	"/>
	<polygon class="st1" points="36.5,254 36.5,6 223.5,6 223.5,184.2 153.7,254 	"/>
	<polygon class="st2" points="34.5,252 34.5,4 221.5,4 221.5,182.2 151.7,252 	"/>
	<g>
		
			<linearGradient id="SVGID_1_" gradientUnits="userSpaceOnUse" x1="336.0005" y1="-2221.9512" x2="336.0005" y2="-1977.9512" gradientTransform="matrix(1 0 0 -1 -208.0005 -1971.9512)">
			<stop  offset="0" style="stop-color:#512DA8"/>
			<stop  offset="8.000000e-03" style="stop-color:#D32F2F"/>
			<stop  offset="0.3041" style="stop-color:#E33932"/>
			<stop  offset="0.6579" style="stop-color:#F04035"/>
			<stop  offset="1" style="stop-color:#F44336"/>
		</linearGradient>
		<path class="st3" d="M150.9,250l68.6-68.6V6h-183v244H150.9z"/>
		<polygon class="st4" points="147.1,177.6 147.1,250 150.9,250 219.5,181.4 219.5,177.6 		"/>
		<path class="st5" d="M150.9,181.4h68.6L150.9,250V181.4z"/>
		<path class="st6" d="M148.9,134.9h-10.8v10.8h10.8V134.9z M133.7,106.1h-10.8v10.8h10.8V106.1z M148.9,120.5h-10.8v10.8h10.8
			V120.5z M164,106.1h-10.8v10.8H164V106.1z M133.7,120.5h-10.8v10.8h10.8V120.5z M148.9,106.1h-10.8v10.8h10.8V106.1z M164,120.5
			h-10.8v10.8H164V120.5z M103.3,134.9H92.5v10.8h10.8V134.9z M103.3,120.5H92.5v10.8h10.8C103.3,131.2,103.3,120.5,103.3,120.5z
			 M161.3,68.1v4.7c1.9,1.6,3,4,3,6.7c0,5-4,9-9,9s-9-4-9-9c0-2.7,1.2-5.1,3-6.7v-4.7h-41.9v4.7c1.9,1.6,3,4,3,6.7c0,5-4,9-9,9
			s-9-4-9-9c0-2.7,1.2-5.1,3-6.7v-4.7h-20v95.5h104.9V68.1H161.3z M170.9,154H85.1V94.3h85.7L170.9,154L170.9,154z M118.5,106.1
			h-10.8v10.8h10.8V106.1z M118.5,134.9h-10.8v10.8h10.8V134.9z M133.7,134.9h-10.8v10.8h10.8V134.9z M118.5,120.5h-10.8v10.8h10.8
			V120.5z M101.5,84.8c2.5,0,4.5-2,4.5-4.5V64.2c0-2.5-2-4.5-4.5-4.5s-4.5,2-4.5,4.5v16.1C97,82.8,99,84.8,101.5,84.8z M155.3,84.8
			c2.5,0,4.5-2,4.5-4.5V64.2c0-2.5-2-4.5-4.5-4.5s-4.5,2-4.5,4.5v16.1C150.8,82.8,152.8,84.8,155.3,84.8z"/>
		<g>
			<path class="st7" d="M217.5,8v172.5L150,248H97.5h-59V8H217.5 M219.5,6h-183v244h61h53.4l68.6-68.6V6L219.5,6z"/>
		</g>
	</g>
</g>
</svg>
