<?xml version="1.0" encoding="utf-8"?>
<!-- Generator: Adobe Illustrator 21.0.0, SVG Export Plug-In . SVG Version: 6.00 Build 0)  -->
<svg version="1.1" id="图层_1" xmlns="http://www.w3.org/2000/svg" xmlns:xlink="http://www.w3.org/1999/xlink" x="0px" y="0px"
	 viewBox="0 0 256 256" style="enable-background:new 0 0 256 256;" xml:space="preserve">
<style type="text/css">
	.st0{opacity:0.08;enable-background:new    ;}
	.st1{opacity:0.1;enable-background:new    ;}
	.st2{opacity:0.2;enable-background:new    ;}
	.st3{fill:url(#SVGID_1_);}
	.st4{fill:#512DA8;fill-opacity:0.3922;}
	.st5{fill:#FFFFFF;fill-opacity:0.3922;}
	.st6{opacity:0.8;fill:#FFFFFF;enable-background:new    ;}
	.st7{fill:#311B92;}
</style>
<g id="surface1">
	<polygon class="st0" points="34.5,256 34.5,4 225.5,4 225.5,185 154.5,256 	"/>
	<polygon class="st1" points="36.5,254 36.5,6 223.5,6 223.5,184.2 153.7,254 	"/>
	<polygon class="st2" points="34.5,252 34.5,4 221.5,4 221.5,182.2 151.7,252 	"/>
</g>
<g>
	
		<linearGradient id="SVGID_1_" gradientUnits="userSpaceOnUse" x1="294.4004" y1="2337.9609" x2="294.4004" y2="2093.9609" gradientTransform="matrix(1 0 0 1 -166.4004 -2087.9609)">
		<stop  offset="0" style="stop-color:#512DA8"/>
		<stop  offset="8.000000e-03" style="stop-color:#512DA8"/>
		<stop  offset="0.0504" style="stop-color:#5733AB"/>
		<stop  offset="0.2927" style="stop-color:#7250BA"/>
		<stop  offset="0.5337" style="stop-color:#8564C4"/>
		<stop  offset="0.771" style="stop-color:#9171CB"/>
		<stop  offset="1" style="stop-color:#9575CD"/>
	</linearGradient>
	<path class="st3" d="M150.9,250l68.6-68.6V6h-183v244H150.9z"/>
	<polygon class="st4" points="147.1,177.6 147.1,250 150.9,250 219.5,181.4 219.5,177.6 	"/>
	<path class="st5" d="M150.9,181.4h68.6L150.9,250V181.4z"/>
	<path class="st6" d="M122.9,67h10.2c15.3,0,17.8,17.9,17.8,17.9v17.8c0,6-12.7,18.2-12.7,18.2v6l20.3,11.8v12l-33,0.2h-28v-12
		l20.3-12v-6c0,0-12.7-12.2-12.7-18.2V85C105.1,85,107.7,67,122.9,67z"/>
	<g>
		<path class="st7" d="M217.5,8v172.5L150,248H97.5h-59V8H217.5 M219.5,6h-183v244h61h53.4l68.6-68.6V6L219.5,6z"/>
	</g>
</g>
</svg>
