<?xml version="1.0" encoding="utf-8"?>
<!-- Generator: Adobe Illustrator 21.0.0, SVG Export Plug-In . SVG Version: 6.00 Build 0)  -->
<svg version="1.1" id="svg" xmlns="http://www.w3.org/2000/svg" xmlns:xlink="http://www.w3.org/1999/xlink" x="0px" y="0px"
	 viewBox="0 0 512 512" style="enable-background:new 0 0 512 512;" xml:space="preserve">
<style type="text/css">
	.st0{opacity:0.2;fill:#040000;enable-background:new    ;}
	.st1{opacity:0.08;fill:#040000;enable-background:new    ;}
	.st2{opacity:0.1;fill:#040000;enable-background:new    ;}
	.st3{fill:#5C4037;}
	.st4{fill:url(#SVGID_1_);}
	.st5{opacity:0.3;fill:#DA706F;enable-background:new    ;}
	.st6{fill:#AE1F24;}
	.st7{fill:#720914;}
	.st8{fill:#F8CACE;}
	.st9{opacity:0.65;fill:url(#SVGID_2_);enable-background:new    ;}
	.st10{fill:url(#SVGID_3_);}
</style>
<path class="st0" d="M57,504V119H29V54h132V8h190v46h132v65h-28v385H57z M310.3,54V38H201.5v16H310.3z"/>
<path class="st1" d="M57,512V127H29V54h132V8h198v46h132v73h-28v385H57z M310.3,54v-8H209.5v8H310.3z"/>
<path class="st2" d="M61,508V123H33V58h132V12h190v46h132v65h-28v385H61z M314.3,58V42H205.5v16H314.3z"/>
<path class="st3" d="M61,500V115H33V58h132V12h182v46h132v57h-28v385H61z M314.3,58V34H197.5v24H314.3z"/>
<linearGradient id="SVGID_1_" gradientUnits="userSpaceOnUse" x1="63" y1="583" x2="449" y2="583" gradientTransform="matrix(1 0 0 1 0 -278)">
	<stop  offset="0" style="stop-color:#F8CACE"/>
	<stop  offset="0.48" style="stop-color:#DA706F"/>
	<stop  offset="0.49" style="stop-color:#DA706F"/>
	<stop  offset="0.52" style="stop-color:#DA706F"/>
	<stop  offset="1" style="stop-color:#F8CACE"/>
</linearGradient>
<rect x="63" y="112" class="st4" width="386" height="386"/>
<rect x="63" y="112" class="st5" width="386" height="18.2"/>
<rect x="375" y="185" class="st6" width="35" height="284"/>
<rect x="375" y="179" class="st7" width="35" height="6"/>
<rect x="375" y="465" class="st8" width="35" height="5"/>
<rect x="284" y="185" class="st6" width="35" height="284"/>
<rect x="284" y="179" class="st7" width="35" height="6"/>
<rect x="284" y="465" class="st8" width="35" height="5"/>
<rect x="193" y="185" class="st6" width="35" height="284"/>
<rect x="193" y="179" class="st7" width="35" height="6"/>
<rect x="193" y="465" class="st8" width="35" height="5"/>
<rect x="102" y="185" class="st6" width="35" height="284"/>
<rect x="102" y="179" class="st7" width="35" height="6"/>
<rect x="102" y="465" class="st8" width="35" height="5"/>
<rect x="35" y="60" class="st6" width="442" height="53"/>
<linearGradient id="SVGID_2_" gradientUnits="userSpaceOnUse" x1="35" y1="-1443.78" x2="477" y2="-1443.78" gradientTransform="matrix(1 0 0 -1 0 -1359.28)">
	<stop  offset="0.05" style="stop-color:#DA706F"/>
	<stop  offset="0.25" style="stop-color:#DA706F"/>
	<stop  offset="0.51" style="stop-color:#AE1F24"/>
	<stop  offset="0.74" style="stop-color:#DA706F"/>
	<stop  offset="1" style="stop-color:#DA706F"/>
</linearGradient>
<rect x="35" y="60" class="st9" width="442" height="49"/>
<linearGradient id="SVGID_3_" gradientUnits="userSpaceOnUse" x1="167" y1="-1396.28" x2="345" y2="-1396.28" gradientTransform="matrix(1 0 0 -1 0 -1359.28)">
	<stop  offset="0.05" style="stop-color:#AE1F24"/>
	<stop  offset="0.25" style="stop-color:#DA706F"/>
	<stop  offset="0.51" style="stop-color:#DA706F"/>
	<stop  offset="0.74" style="stop-color:#DA706F"/>
	<stop  offset="1" style="stop-color:#AE1F24"/>
</linearGradient>
<polygon class="st10" points="167,14 167,60 195.5,60 195.5,28.8 316.3,28.8 316.3,60 345,60 345,14 "/>
<rect x="195.5" y="28" class="st7" width="121" height="4"/>
<rect x="35" y="109" class="st7" width="442" height="4"/>
</svg>
