<?xml version="1.0" encoding="utf-8"?>
<!-- Generator: Adobe Illustrator 23.0.3, SVG Export Plug-In . SVG Version: 6.00 Build 0)  -->
<svg version="1.1" id="appointment-new" xmlns="http://www.w3.org/2000/svg" xmlns:xlink="http://www.w3.org/1999/xlink" x="0px"
	 y="0px" viewBox="0 0 16 16" style="enable-background:new 0 0 16 16;" xml:space="preserve">
<style type="text/css">
	.st0{fill:#808080;}
</style>
<polygon class="st0" points="15,13 13,13 13,11 12,11 12,13 10,13 10,14 12,14 12,16 13,16 13,14 15,14 "/>
<g id="_16_1_">
	<polygon class="st0" points="2,14 1,14 1,2 2,2 	"/>
	<rect x="1" y="5" class="st0" width="14" height="1"/>
	<polygon class="st0" points="15,11 14,11 14,2 15,2 	"/>
	<rect x="1" y="2" class="st0" width="14" height="1"/>
	<rect x="4" y="1" class="st0" width="1" height="3"/>
	<rect x="11" y="1" class="st0" width="1" height="3"/>
	<rect x="4" y="7" class="st0" width="1" height="1"/>
	<rect x="7" y="7" class="st0" width="1" height="1"/>
	<rect x="1" y="13" class="st0" width="8" height="1"/>
	<rect x="4" y="10" class="st0" width="1" height="1"/>
	<rect x="7" y="10" class="st0" width="1" height="1"/>
	<rect x="10" y="10" class="st0" width="1" height="1"/>
	<rect x="10" y="7" class="st0" width="1" height="1"/>
</g>
</svg>
