<?xml version="1.0" encoding="utf-8"?>
<!-- Generator: Adobe Illustrator 23.0.3, SVG Export Plug-In . SVG Version: 6.00 Build 0)  -->
<svg version="1.1" id="bookmark_add" xmlns="http://www.w3.org/2000/svg" xmlns:xlink="http://www.w3.org/1999/xlink" x="0px"
	 y="0px" viewBox="0 0 16 16" style="enable-background:new 0 0 16 16;" xml:space="preserve">
<style type="text/css">
	.st0{display:none;}
	.st1{display:inline;fill:none;stroke:#808080;stroke-miterlimit:10;}
	.st2{fill:#808080;}
</style>
<title>16</title>
<g id="_16" class="st0">
	<polyline id="_16-2" class="st1" points="10.8,9.7 14.5,6.5 9.8,6.5 8,1.6 6.4,6.5 1.5,6.5 5.4,9.7 4.3,14.6 8,11.8 	"/>
</g>
<g>
	<path class="st2" d="M0,1v13c0,0,8,0,9,0v-1h0c-1,0-8,0-8,0V2c0,0,8,0,9,0v6l1.5,1L13,8V1H0z M13,1v1h2v8h1V1H13z M3,4v1h3V4H3z
		 M3,6v1h3V6H3z M3,8v1h3V8H3z M3,10v1h3v-1H3z"/>
	<path class="st2" d="M13,11v2h-2v1h2v2h1v-2h2v-1h-2v-2H13z"/>
</g>
</svg>
