<?xml version="1.0" encoding="utf-8"?>
<!-- Generator: Adobe Illustrator 23.0.3, SVG Export Plug-In . SVG Version: 6.00 Build 0)  -->
<svg version="1.1" id="表-2" xmlns="http://www.w3.org/2000/svg" xmlns:xlink="http://www.w3.org/1999/xlink" x="0px" y="0px"
	 viewBox="0 0 16 16" style="enable-background:new 0 0 16 16;" xml:space="preserve">
<style type="text/css">
	.st0{fill:#999999;}
</style>
<title>16</title>
<g id="_16">
	<path class="st0" d="M8,16c-4.4,0-8-3.6-8-8s3.6-8,8-8s8,3.6,8,8S12.4,16,8,16z M8,1C4.1,1,1,4.1,1,8s3.1,7,7,7s7-3.1,7-7
		S11.9,1,8,1z"/>
	<rect x="7" y="2" class="st0" width="1" height="1"/>
	<rect x="2" y="8" class="st0" width="1" height="1"/>
	<rect x="13" y="8" class="st0" width="1" height="1"/>
	<rect x="7" y="13" class="st0" width="1" height="1"/>
	<rect x="7" y="4" class="st0" width="1" height="5"/>
	<rect x="7" y="8" class="st0" width="5" height="1"/>
</g>
</svg>
