<?xml version="1.0" encoding="utf-8"?>
<!-- Generator: Adobe Illustrator 23.0.1, SVG Export Plug-In . SVG Version: 6.00 Build 0)  -->
<svg version="1.1" id="剪刀" xmlns="http://www.w3.org/2000/svg" xmlns:xlink="http://www.w3.org/1999/xlink" x="0px" y="0px"
	 width="16px" height="16px" viewBox="0 0 16 16" style="enable-background:new 0 0 16 16;" xml:space="preserve">
<style type="text/css">
	.st0{fill:#7E8080;}
</style>
<g id="_16">
	<path class="st0" d="M3,11c1.1,0,2,0.9,2,2s-0.9,2-2,2s-2-0.9-2-2S1.9,11,3,11 M3,10c-1.7,0-3,1.3-3,3s1.3,3,3,3s3-1.3,3-3
		S4.7,10,3,10z"/>
	<path class="st0" d="M13,11c1.1,0,2,0.9,2,2s-0.9,2-2,2s-2-0.9-2-2S11.9,11,13,11 M13,10c-1.7,0-3,1.3-3,3s1.3,3,3,3s3-1.3,3-3
		S14.7,10,13,10z"/>
	<g>
		<rect x="4.5" y="10" transform="matrix(0.8261 -0.5635 0.5635 0.8261 -4.8851 5.1209)" class="st0" width="2.7" height="1"/>
	</g>
	<g>
		<rect x="9.7" y="9.2" transform="matrix(0.5633 -0.8263 0.8263 0.5633 -4.2619 13.0366)" class="st0" width="1" height="2.7"/>
	</g>
	<path class="st0" d="M8,9c0.3,0,0.5,0.2,0.5,0.5S8.3,10,8,10S7.5,9.8,7.5,9.5S7.7,9,8,9 M8,8C7.2,8,6.5,8.7,6.5,9.5S7.2,11,8,11
		s1.5-0.7,1.5-1.5S8.8,8,8,8z"/>
	<path class="st0" d="M1.4,0l7.5,8.7c0,0-3.3,0.1-5.3-1.9C1.5,4.7,1.4,0,1.4,0z"/>
	<path class="st0" d="M14.6,0L7.1,8.7c0,0,3.3,0.1,5.3-1.9C14.4,4.7,14.6,0,14.6,0z"/>
</g>
</svg>
