<?xml version="1.0" encoding="utf-8"?>
<!-- Generator: Adobe Illustrator 21.0.0, SVG Export Plug-In . SVG Version: 6.00 Build 0)  -->
<svg version="1.1" id="安装" xmlns="http://www.w3.org/2000/svg" xmlns:xlink="http://www.w3.org/1999/xlink" x="0px" y="0px"
	 viewBox="0 0 14 14" style="enable-background:new 0 0 14 14;" xml:space="preserve">
<style type="text/css">
	.st0{fill:none;stroke:#808080;stroke-miterlimit:10;}
</style>
<title>14</title>
<g id="_14">
	<path class="st0" d="M3.5,0.5c-0.3,0-0.7,0.1-1,0.2L3.8,2L2,3.8L0.7,2.5C0.1,4.1,0.9,5.8,2.5,6.3s3.3-0.3,3.8-1.8S6.1,1.2,4.5,0.7
		C4.2,0.6,3.8,0.5,3.5,0.5z"/>
	<path class="st0" d="M10.5,13.5c0.3,0,0.7-0.1,1-0.2L10.2,12l1.8-1.8l1.3,1.3c0.6-1.6-0.3-3.3-1.8-3.8S8.2,7.9,7.7,9.5
		s0.3,3.3,1.8,3.8C9.8,13.4,10.1,13.5,10.5,13.5L10.5,13.5z"/>
	<line class="st0" x1="6" y1="4.5" x2="9.1" y2="7.5"/>
	<line class="st0" x1="4.9" y1="6.5" x2="8" y2="9.5"/>
</g>
</svg>
