<?xml version="1.0" encoding="utf-8"?>
<!-- Generator: Adobe Illustrator 21.0.0, SVG Export Plug-In . SVG Version: 6.00 Build 0)  -->
<svg version="1.1" id="邮件" xmlns="http://www.w3.org/2000/svg" xmlns:xlink="http://www.w3.org/1999/xlink" x="0px" y="0px"
	 viewBox="0 0 14 14" style="enable-background:new 0 0 14 14;" xml:space="preserve">
<style type="text/css">
	.st0{fill:#808080;}
</style>
<title>14</title>
<g id="_14">
	<path class="st0" d="M0,4.9l4,2.6l0.3,1.5L4.7,12l0,0l2.8-2l2.9,2L14,2L0,4.9z M11,3.4L4.3,6.9L1.8,5.3L11,3.4z M5.5,8.1L5,9.4
		L4.7,7.6L11.1,4L5.5,8.1z M5.2,10.7L6,8.9l1,0.7L5.2,10.7L5.2,10.7z M10.1,10.9l-1.6-1l0,0L6.4,8.3l6.3-4.8L10.1,10.9z"/>
</g>
</svg>
