<?xml version="1.0" encoding="utf-8"?>
<!-- Generator: Adobe Illustrator 21.0.0, SVG Export Plug-In . SVG Version: 6.00 Build 0)  -->
<svg version="1.1" id="mail-mark-junk" xmlns="http://www.w3.org/2000/svg" xmlns:xlink="http://www.w3.org/1999/xlink" x="0px"
	 y="0px" viewBox="0 0 14 14" style="enable-background:new 0 0 14 14;" xml:space="preserve">
<style type="text/css">
	.st0{fill:#EA572A;}
	.st1{fill:#808080;}
</style>
<rect x="10.1" y="8" transform="matrix(0.7071 -0.7071 0.7071 0.7071 -4.3374 10.489)" class="st0" width="0.8" height="4.9"/>
<rect x="8.1" y="10.1" transform="matrix(0.7071 -0.7071 0.7071 0.7071 -4.3423 10.5133)" class="st0" width="4.9" height="0.8"/>
<path class="st0" d="M10.5,14C8.6,14,7,12.4,7,10.5S8.6,7,10.5,7S14,8.6,14,10.5S12.4,14,10.5,14z M10.5,7.8C9,7.8,7.8,9,7.8,10.5
	s1.2,2.7,2.7,2.7s2.7-1.2,2.7-2.7S12,7.8,10.5,7.8z"/>
<polygon class="st1" points="13.9,2.8 13.3,2.2 7,6.8 0.9,2.2 0.2,2.8 4,5.8 7,8 7,8 7,8 "/>
<polygon class="st1" points="5.5,6.6 0.7,11.2 1.4,11.8 6.2,7.3 "/>
<polygon class="st1" points="0,2 14,2 14,7 13,7 13,3 1,3 1,11 6,11 6,12 0,12 "/>
</svg>
