<?xml version="1.0" encoding="utf-8"?>
<!-- Generator: Adobe Illustrator 21.1.0, SVG Export Plug-In . SVG Version: 6.00 Build 0)  -->
<svg version="1.1" id="mail-send" xmlns="http://www.w3.org/2000/svg" xmlns:xlink="http://www.w3.org/1999/xlink" x="0px" y="0px"
	 viewBox="0 0 16 16" style="enable-background:new 0 0 16 16;" xml:space="preserve">
<style type="text/css">
	.st0{fill:#808080;}
</style>
<title>16</title>
<path class="st0" d="M0,5.7l4.5,2.9l0.3,1.7l0.6,3.1l0,0l3.2-2.1l3.4,2.2l4-11L0,5.7z M12.6,4L4.9,7.9L2.1,6.1L12.6,4z M6.3,9.2
	l-0.6,1.5L5.3,8.6l7.4-3.9L6.3,9.2z M6,12.1L6.8,10L8,10.8L6,12.1L6,12.1z M11.6,12.3l-1.8-1.2l0,0L7.3,9.4l7.2-5.3L11.6,12.3z"/>
</svg>
