<?xml version="1.0" encoding="utf-8"?>
<!-- Generator: Adobe Illustrator 21.0.0, SVG Export Plug-In . SVG Version: 6.00 Build 0)  -->
<svg version="1.1" id="结" xmlns="http://www.w3.org/2000/svg" xmlns:xlink="http://www.w3.org/1999/xlink" x="0px" y="0px"
	 viewBox="0 0 14 14" style="enable-background:new 0 0 14 14;" xml:space="preserve">
<style type="text/css">
	.st0{fill:#808080;}
	.st1{fill:#61A232;}
</style>
<title>14</title>
<g id="_14">
	<rect y="11" class="st0" width="3" height="1"/>
	<rect x="11" y="11" class="st0" width="3" height="1"/>
	<path class="st0" d="M2,10v4h4v-4H2z M5,13H3v-2h2V13z"/>
	<path class="st0" d="M8,10v4h4v-4H8z M11,13H9v-2h2V13z"/>
	<polygon class="st1" points="4.5,7 7,10 9.5,7 	"/>
	<rect x="6" y="5" class="st1" width="2" height="2"/>
	<rect y="1" class="st0" width="3" height="1"/>
	<rect x="11" y="1" class="st0" width="3" height="1"/>
	<path class="st0" d="M2,0v4h4V0H2z M5,3H3V1h2V3z"/>
	<path class="st0" d="M8,0v4h4V0H8z M11,3H9V1h2V3z"/>
	<rect x="6" y="1" class="st0" width="2" height="1"/>
</g>
</svg>
