<?xml version="1.0" encoding="utf-8"?>
<!-- Generator: Adobe Illustrator 21.0.0, SVG Export Plug-In . SVG Version: 6.00 Build 0)  -->
<svg version="1.1" id="盒子" xmlns="http://www.w3.org/2000/svg" xmlns:xlink="http://www.w3.org/1999/xlink" x="0px" y="0px"
	 viewBox="0 0 14 14" style="enable-background:new 0 0 14 14;" xml:space="preserve">
<style type="text/css">
	.st0{fill:none;stroke:#888888;stroke-miterlimit:10;}
	.st1{fill:#EA572A;}
</style>
<title>14</title>
<g id="_14">
	<path class="st0" d="M6.5,13.5l-6-1.9V3.3l6.9-2.8l6,1.9V7"/>
	<line class="st0" x1="6.5" y1="13.9" x2="6.5" y2="5"/>
	<polyline class="st0" points="0.5,3.5 6.5,5.5 13.5,2.5 	"/>
	<rect x="10" y="9" class="st1" width="1" height="2"/>
	<rect x="10" y="11.5" class="st1" width="1" height="1"/>
	<path class="st1" d="M10.5,7C8.6,7,7,8.6,7,10.5S8.6,14,10.5,14s3.5-1.6,3.5-3.5S12.4,7,10.5,7z M10.5,13.2c-1.5,0-2.7-1.2-2.7-2.7
		S9,7.8,10.5,7.8s2.7,1.2,2.7,2.7C13.2,12,12,13.2,10.5,13.2C10.5,13.2,10.5,13.2,10.5,13.2z"/>
</g>
</svg>
