<?xml version="1.0" encoding="utf-8"?>
<!-- Generator: Adobe Illustrator 23.0.3, SVG Export Plug-In . SVG Version: 6.00 Build 0)  -->
<svg version="1.1" id="mail-send" xmlns="http://www.w3.org/2000/svg" xmlns:xlink="http://www.w3.org/1999/xlink" x="0px" y="0px"
	 viewBox="0 0 16 16" style="enable-background:new 0 0 16 16;" xml:space="preserve">
<style type="text/css">
	.st0{fill:#808080;}
	.st1{fill:none;stroke:#808080;stroke-miterlimit:10;}
</style>
<path class="st0" d="M15,3.5C15,2.1,13.9,1,12.5,1C11.1,1,10,2.1,10,3.5C10,4.9,11.1,6,12.5,6S15,4.9,15,3.5z M15,13.5
	c0-1.4-1.1-2.5-2.5-2.5c-1.4,0-2.5,1.1-2.5,2.5c0,1.4,1.1,2.5,2.5,2.5S15,14.9,15,13.5z M14,3.5C14,4.3,13.3,5,12.5,5S11,4.3,11,3.5
	S11.7,2,12.5,2S14,2.7,14,3.5z M14,13.5c0,0.8-0.7,1.5-1.5,1.5S11,14.3,11,13.5s0.7-1.5,1.5-1.5S14,12.7,14,13.5z"/>
<g>
	<path class="st0" d="M3.5,7C4.3,7,5,7.7,5,8.5C5,9.3,4.3,10,3.5,10S2,9.3,2,8.5C2,7.7,2.7,7,3.5,7 M3.5,6C2.1,6,1,7.1,1,8.5
		C1,9.9,2.1,11,3.5,11S6,9.9,6,8.5S4.9,6,3.5,6L3.5,6z"/>
</g>
<g>
	<line class="st1" x1="5.5" y1="7.5" x2="10.5" y2="4.5"/>
</g>
<g>
	<line class="st1" x1="5.5" y1="9.5" x2="10.5" y2="12.5"/>
</g>
</svg>
