<?xml version="1.0" encoding="utf-8"?>
<!-- Generator: Adobe Illustrator 21.0.0, SVG Export Plug-In . SVG Version: 6.00 Build 0)  -->
<svg version="1.1" id="回收站" xmlns="http://www.w3.org/2000/svg" xmlns:xlink="http://www.w3.org/1999/xlink" x="0px" y="0px"
	 viewBox="0 0 14 14" style="enable-background:new 0 0 14 14;" xml:space="preserve">
<style type="text/css">
	.st0{fill:#808080;}
</style>
<title>16</title>
<g id="_16">
	<path class="st0" d="M1,3.5v0.9h0.9L2.7,14h8.6l0.9-9.6H13V3.5H1z M8.7,3.5H5.3 M10.4,13.1H3.6L2.7,4.4h8.6L10.4,13.1z"/>
	<rect x="5.3" y="5.3" class="st0" width="0.9" height="7"/>
	<rect x="7.9" y="5.3" class="st0" width="0.9" height="7"/>
	<polygon class="st0" points="7.7,4.4 7.3,2.9 10.5,1.9 11.2,4.4 12.1,4.4 11.2,0.9 6.2,2.2 6.7,4.4 	"/>
	<polygon class="st0" points="2.5,3.5 2.2,2 5.5,1.1 6.1,3.5 7,3.5 6.1,0 1.1,1.3 1.7,3.5 	"/>
</g>
</svg>
