<?xml version="1.0" encoding="utf-8"?>
<!-- Generator: Adobe Illustrator 21.0.0, SVG Export Plug-In . SVG Version: 6.00 Build 0)  -->
<svg version="1.1" id="缩放" xmlns="http://www.w3.org/2000/svg" xmlns:xlink="http://www.w3.org/1999/xlink" x="0px" y="0px"
	 viewBox="0 0 14 14" style="enable-background:new 0 0 14 14;" xml:space="preserve">
<style type="text/css">
	.st0{fill:#808080;}
	.st1{fill:#2196F3;}
	.st2{fill:none;stroke:#2196F3;stroke-miterlimit:10;}
</style>
<title>14</title>
<g id="_14">
	<polygon class="st0" points="3,7 2,7 1,7 1,8 1,9 2,9 2,8 3,8 	"/>
	<polygon class="st0" points="5,7 6,7 7,7 7,8 7,9 6,9 6,8 5,8 	"/>
	<polygon class="st0" points="5,13 6,13 7,13 7,12 7,11 6,11 6,12 5,12 	"/>
	<polyline class="st1" points="7,3 7,7 11,7 	"/>
	<polygon class="st0" points="1,11 1,12 1,13 2,13 3,13 3,12 2,12 2,11 	"/>
	<polygon class="st0" points="1,1 13,1 13,13 9,13 9,12 12,12 12,2 2,2 2,5 1,5 	"/>
</g>
<line class="st2" x1="9" y1="5" x2="11" y2="3"/>
</svg>
