<?xml version="1.0" encoding="utf-8"?>
<!-- Generator: Adobe Illustrator 21.0.0, SVG Export Plug-In . SVG Version: 6.00 Build 0)  -->
<svg version="1.1" id="stock_video-conferencing" xmlns="http://www.w3.org/2000/svg" xmlns:xlink="http://www.w3.org/1999/xlink"
	 x="0px" y="0px" viewBox="0 0 14 14" style="enable-background:new 0 0 14 14;" xml:space="preserve">
<style type="text/css">
	.st0{fill:#808080;}
</style>
<title>14</title>
<g id="_14">
	<g>
		<path class="st0" d="M12,2v10H2V2H12 M13,1H1v12h12V1L13,1z"/>
	</g>
	<path class="st0" d="M7,3C4.8,3,3,4.8,3,7s1.8,4,4,4s4-1.8,4-4S9.2,3,7,3z M7,10c-1.7,0-3-1.3-3-3s1.3-3,3-3s3,1.3,3,3S8.7,10,7,10
		z"/>
	<path class="st0" d="M5.5,7H5c0,1.1,0.9,2,2,2V8.5C6.2,8.5,5.5,7.8,5.5,7z"/>
</g>
</svg>
