<?xml version="1.0" encoding="utf-8"?>
<!-- Generator: Adobe Illustrator 23.0.1, SVG Export Plug-In . SVG Version: 6.00 Build 0)  -->
<svg version="1.1" xmlns="http://www.w3.org/2000/svg" xmlns:xlink="http://www.w3.org/1999/xlink" x="0px" y="0px" width="16px"
	 height="16px" viewBox="0 0 16 16" style="enable-background:new 0 0 16 16;" xml:space="preserve">
<style type="text/css">
	.st0{display:none;}
	.st1{display:inline;}
	.st2{fill:#808080;}
	.st3{fill:#A5A5A5;}
	.st4{fill:#7E8080;}
</style>
<g id="图层_6" class="st0">
	<g class="st1">
		<rect x="2" y="3" class="st2" width="4" height="3"/>
	</g>
	<g class="st1">
		<rect x="9" y="3" class="st2" width="4" height="3"/>
	</g>
	<g class="st1">
		<rect x="9" y="9" class="st2" width="4" height="3"/>
	</g>
	<g class="st1">
		<path class="st3" d="M8,1H7H0v6v1v6h7h1h7V8V7V1H8z M1,2h6v5H1V2z M7,13H1V8h6V13z M14,13H8V8h6V13z M8,7V2h6v5H8z"/>
		<g>
			<rect x="2" y="9" class="st2" width="4" height="3"/>
		</g>
	</g>
</g>
<g id="图层_2">
	<rect x="14" y="1" class="st4" width="1" height="13"/>
	<rect y="1" class="st4" width="1" height="13"/>
	<rect x="3" y="4" class="st4" width="1" height="9"/>
	<rect x="8" y="4" class="st4" width="1" height="9"/>
	<rect x="1" y="13" class="st4" width="13" height="1"/>
	<path class="st4" d="M1,1v3h13V1H1z M13,3h-1V2h1V3z M11,3h-1V2h1V3z"/>
</g>
</svg>
