<?xml version="1.0" encoding="utf-8"?>
<!-- Generator: Adobe Illustrator 23.0.3, SVG Export Plug-In . SVG Version: 6.00 Build 0)  -->
<svg version="1.1" id="gtk-zoom-in" xmlns="http://www.w3.org/2000/svg" xmlns:xlink="http://www.w3.org/1999/xlink" x="0px"
	 y="0px" viewBox="0 0 16 16" style="enable-background:new 0 0 16 16;" xml:space="preserve">
<style type="text/css">
	.st0{fill:#808080;}
	.st1{fill-rule:evenodd;clip-rule:evenodd;fill:#808080;}
</style>
<title>16</title>
<g>
	<path class="st0" d="M7.5,1C3.9,1,1,3.9,1,7.5C1,11.1,3.9,14,7.5,14S14,11.1,14,7.5S11.1,1,7.5,1z M7.5,2c3,0,5.5,2.4,5.5,5.5
		S10.5,13,7.5,13C4.5,13,2,10.5,2,7.5c0,0,0,0,0,0C2,4.5,4.5,2,7.5,2z"/>
	<path class="st1" d="M11.9,11.1l-0.7,0.7l3.5,3.5l0.7-0.7L11.9,11.1z"/>
	<path class="st0" d="M7,5v2H5v1h2v2h1V8h2V7H8V5H7z"/>
</g>
</svg>
