<?xml version="1.0" encoding="utf-8"?>
<!-- Generator: Adobe Illustrator 21.0.0, SVG Export Plug-In . SVG Version: 6.00 Build 0)  -->
<svg version="1.1" id="图层_1" xmlns="http://www.w3.org/2000/svg" xmlns:xlink="http://www.w3.org/1999/xlink" x="0px" y="0px"
	 viewBox="0 0 64 64" style="enable-background:new 0 0 64 64;" xml:space="preserve">
<style type="text/css">
	.st0{opacity:0.08;enable-background:new    ;}
	.st1{opacity:0.1;enable-background:new    ;}
	.st2{opacity:0.2;enable-background:new    ;}
	.st3{fill:url(#SVGID_1_);}
	.st4{fill:#EE6F0B;fill-opacity:0.3922;}
	.st5{fill:#FFFFFF;fill-opacity:0.3922;}
	.st6{opacity:0.8;fill:#FFFFFF;enable-background:new    ;}
	.st7{fill:#EE6F0B;}
</style>
<g id="surface1_1_">
	<polygon class="st0" points="9.3,64 9.3,2 56.8,2 56.8,46.5 39.3,64 	"/>
	<polygon class="st1" points="10.3,63 10.3,3 55.8,3 55.8,46.1 38.9,63 	"/>
	<polygon class="st2" points="9.3,62 9.3,2 54.8,2 54.8,45.1 37.9,62 	"/>
	<g>
		
			<linearGradient id="SVGID_1_" gradientUnits="userSpaceOnUse" x1="198.4004" y1="2340.9609" x2="198.4004" y2="2282.9609" gradientTransform="matrix(1 0 0 1 -166.4004 -2279.9609)">
			<stop  offset="0" style="stop-color:#F57C00"/>
			<stop  offset="0.099" style="stop-color:#F78B0C"/>
			<stop  offset="0.3289" style="stop-color:#FAA823"/>
			<stop  offset="0.5576" style="stop-color:#FDBC33"/>
			<stop  offset="0.7827" style="stop-color:#FEC93D"/>
			<stop  offset="1" style="stop-color:#FFCD40"/>
		</linearGradient>
		<path class="st3" d="M37.4,61l16.3-16.3V3H10.3v58H37.4z"/>
		<polygon class="st4" points="36.5,43.8 36.5,61 37.4,61 53.8,44.7 53.8,43.8 		"/>
		<path class="st5" d="M37.4,44.7h16.3L37.4,61V44.7z"/>
		<path class="st6" d="M32,13.9c-1,0-1.8,0.6-2.2,1.4c-0.8-0.5-1.8-0.6-2.6-0.1c-0.8,0.5-1.3,1.4-1.2,2.2c-0.9-0.1-1.9,0.3-2.3,1.1
			c-0.5,0.8-0.4,1.8,0.1,2.5c-0.8,0.4-1.4,1.1-1.4,2.1c0,0.9,0.6,1.7,1.4,2.1c-0.5,0.7-0.6,1.7-0.1,2.5s1.4,1.2,2.3,1.1
			c-0.1,0.9,0.4,1.8,1.2,2.2c0.4,0.2,0.8,0.3,1.2,0.3v9.8l3.6-3.4l3.6,3.4v-9.8c0.4,0,0.8-0.1,1.2-0.3c0.8-0.5,1.3-1.4,1.2-2.2
			c0.9,0.1,1.9-0.3,2.3-1.1c0.5-0.8,0.4-1.8-0.1-2.5c0.8-0.4,1.4-1.1,1.4-2.1c0-0.9-0.6-1.7-1.4-2.1c0.5-0.7,0.6-1.7,0.1-2.5
			s-1.4-1.2-2.3-1.1c0.1-0.9-0.4-1.8-1.2-2.2c-0.9-0.5-1.9-0.4-2.6,0.1C33.8,14.4,33,13.9,32,13.9z M32,17.3c3.3,0,6,2.6,6,5.7
			s-2.7,5.7-6,5.7s-6-2.6-6-5.7S28.7,17.3,32,17.3z M32,18.4c-2.7,0-4.8,2-4.8,4.6c0,2.5,2.2,4.6,4.8,4.6s4.8-2.1,4.8-4.6
			S34.7,18.4,32,18.4z"/>
		<g>
			<path class="st7" d="M53.3,3.5v41l-16,16H24.8h-14v-57H53.3 M53.8,3H10.3v58h14.5h12.7l16.3-16.3V3L53.8,3z"/>
		</g>
	</g>
</g>
</svg>
