<?xml version="1.0" encoding="utf-8"?>
<!-- Generator: Adobe Illustrator 21.0.0, SVG Export Plug-In . SVG Version: 6.00 Build 0)  -->
<svg version="1.1" id="图层_1" xmlns="http://www.w3.org/2000/svg" xmlns:xlink="http://www.w3.org/1999/xlink" x="0px" y="0px"
	 viewBox="0 0 64 64" style="enable-background:new 0 0 64 64;" xml:space="preserve">
<style type="text/css">
	.st0{opacity:0.1;enable-background:new    ;}
	.st1{opacity:0.2;enable-background:new    ;}
	.st2{fill:#3E2723;}
	.st3{fill:url(#SVGID_1_);}
	.st4{fill:#795548;fill-opacity:0.7;}
	.st5{opacity:0.39;fill:#FFFFFF;enable-background:new    ;}
	.st6{fill:#FFFFFF;}
	.st7{opacity:0.8;fill:#FFFFFF;enable-background:new    ;}
	.st8{enable-background:new    ;}
	.st9{fill:#5D4037;}
</style>
<polygon class="st0" points="9.2,64 9.2,2 56.8,2 56.8,46.5 39.3,64 "/>
<polygon class="st0" points="10.2,63 10.2,3 55.8,3 55.8,46.1 38.9,63 "/>
<polygon class="st1" points="9.2,62 9.2,2 54.8,2 54.8,45.1 37.9,62 "/>
<polygon class="st2" points="10.1,61 10.1,3 53.9,3 53.9,44.7 37.5,61 "/>
<g>
	<g>
		
			<linearGradient id="SVGID_1_" gradientUnits="userSpaceOnUse" x1="73.6001" y1="-805.4004" x2="73.6001" y2="-862.4004" gradientTransform="matrix(1 0 0 -1 -41.6001 -801.9004)">
			<stop  offset="0" style="stop-color:#785548"/>
			<stop  offset="1" style="stop-color:#9F9E9F"/>
		</linearGradient>
		<polygon class="st3" points="10.6,60.5 10.6,3.5 53.4,3.5 53.4,44.4 37.5,60.5 		"/>
		<polygon class="st4" points="53.4,44.5 53.4,43.8 36.4,43.8 36.4,60.5 37.3,60.5 		"/>
		<path class="st5" d="M37.3,44.5h16.1l-16,16L37.3,44.5z"/>
	</g>
	<path class="st6" d="M25.9,14.5h-1.4V33h-1.1V14.5H22V33h-1.1V14.5h-1.4V33h-1.1V14.5H17V33h-0.4v7.8h9.9V33H26
		C25.9,33,25.9,14.5,25.9,14.5z M25,38.6h-7V34h7V38.6z"/>
	<g>
		<rect x="10.6" y="3.5" class="st7" width="42.7" height="10.9"/>
		<g class="st8">
			<path class="st9" d="M25.4,6c-0.3,0.3-0.6,0.6-1,1.1C24,7.5,23.6,8,23.2,8.5s-0.8,1-1.2,1.6c-0.4,0.5-0.8,1.1-1.1,1.5h4.6v1.6
				h-7.1v-1.1c0.2-0.4,0.5-0.9,0.9-1.4c0.3-0.5,0.7-1,1.1-1.5s0.8-1,1.2-1.5c0.4-0.5,0.8-0.9,1.1-1.3h-4V4.7h6.7
				C25.4,4.7,25.4,6,25.4,6z"/>
			<path class="st9" d="M35.3,9c0,0.7-0.1,1.4-0.3,1.9c-0.2,0.6-0.5,1-0.9,1.4s-0.9,0.7-1.4,0.8c-0.5,0.2-1.1,0.3-1.8,0.3
				c-0.6,0-1.2-0.1-1.7-0.3s-1-0.5-1.4-0.8c-0.4-0.4-0.7-0.8-1-1.4c-0.2-0.6-0.4-1.2-0.4-1.9s0.1-1.4,0.4-1.9c0.2-0.6,0.6-1,1-1.4
				s0.9-0.7,1.4-0.8c0.5-0.2,1.1-0.3,1.7-0.3s1.2,0.1,1.7,0.3c0.5,0.2,1,0.5,1.4,0.8s0.7,0.8,1,1.3C35.2,7.6,35.3,8.2,35.3,9z
				 M28.5,9c0,0.4,0.1,0.8,0.2,1.1s0.3,0.6,0.5,0.9c0.2,0.2,0.4,0.4,0.7,0.6c0.3,0.1,0.6,0.2,1,0.2s0.7-0.1,1-0.2
				c0.3-0.1,0.5-0.3,0.8-0.6c0.2-0.2,0.4-0.5,0.5-0.9c0.1-0.3,0.2-0.7,0.2-1.1s-0.1-0.8-0.2-1.1c-0.1-0.3-0.3-0.6-0.5-0.9
				c-0.2-0.2-0.5-0.4-0.8-0.6c-0.3-0.1-0.6-0.2-1-0.2s-0.7,0.1-1,0.2S29.4,6.7,29.2,7c-0.2,0.2-0.4,0.5-0.5,0.9
				C28.5,8.2,28.5,8.5,28.5,9z"/>
			<path class="st9" d="M45.5,9c0,0.7-0.1,1.4-0.3,1.9c-0.2,0.6-0.5,1-0.9,1.4s-0.9,0.7-1.4,0.8c-0.5,0.2-1.1,0.3-1.8,0.3
				c-0.6,0-1.2-0.1-1.7-0.3s-1-0.5-1.4-0.8c-0.4-0.4-0.7-0.8-1-1.4c-0.2-0.6-0.4-1.2-0.4-1.9s0.1-1.4,0.4-2c0.2-0.6,0.6-1,1-1.4
				s0.9-0.7,1.4-0.8c0.5-0.2,1.1-0.3,1.7-0.3c0.6,0,1.2,0.1,1.7,0.3c0.5,0.2,1,0.5,1.4,0.8c0.4,0.4,0.7,0.8,1,1.4
				C45.4,7.6,45.5,8.2,45.5,9z M38.7,9c0,0.4,0.1,0.8,0.2,1.1c0.1,0.3,0.3,0.6,0.5,0.9c0.2,0.2,0.4,0.4,0.7,0.6
				c0.3,0.1,0.6,0.2,1,0.2s0.7-0.1,1-0.2c0.3-0.1,0.5-0.3,0.8-0.6c0.2-0.2,0.4-0.5,0.5-0.9c0.1-0.3,0.2-0.7,0.2-1.1
				s-0.1-0.8-0.2-1.1c-0.1-0.3-0.3-0.6-0.5-0.9c-0.2-0.2-0.5-0.4-0.8-0.6c-0.3-0.1-0.6-0.2-1-0.2s-0.7,0.1-1,0.2S39.6,6.7,39.4,7
				c-0.2,0.2-0.4,0.5-0.5,0.9C38.7,8.2,38.7,8.5,38.7,9z"/>
		</g>
	</g>
</g>
</svg>
