<?xml version="1.0" encoding="utf-8"?>
<!-- Generator: Adobe Illustrator 16.0.0, SVG Export Plug-In . SVG Version: 6.00 Build 0)  -->
<!DOCTYPE svg PUBLIC "-//W3C//DTD SVG 1.1//EN" "http://www.w3.org/Graphics/SVG/1.1/DTD/svg11.dtd">
<svg version="1.1" id="图层_1" xmlns="http://www.w3.org/2000/svg" xmlns:xlink="http://www.w3.org/1999/xlink" x="0px" y="0px"
	 width="64px" height="64px" viewBox="0 0 64 64" enable-background="new 0 0 64 64" xml:space="preserve">
<rect x="9.148" y="2" opacity="0.2" enable-background="new    " width="45.704" height="60"/>
<rect x="9.148" y="2" opacity="0.08" enable-background="new    " width="47.704" height="62"/>
<rect x="10.148" y="3" opacity="0.1" enable-background="new    " width="45.704" height="60"/>
<rect x="10.148" y="3" fill="#0D47A1" width="43.704" height="58"/>
<g>
	
		<linearGradient id="SVGID_1_" gradientUnits="userSpaceOnUse" x1="115.1992" y1="885.3008" x2="115.1992" y2="828.3008" gradientTransform="matrix(1 0 0 1 -83.2002 -824.8008)">
		<stop  offset="0" style="stop-color:#1976D2"/>
		<stop  offset="0.0226" style="stop-color:#1C79D3"/>
		<stop  offset="0.2859" style="stop-color:#3B93E2"/>
		<stop  offset="0.5416" style="stop-color:#52A6ED"/>
		<stop  offset="0.7843" style="stop-color:#5FB1F4"/>
		<stop  offset="1" style="stop-color:#64B5F6"/>
	</linearGradient>
	<rect x="10.647" y="3.5" fill="url(#SVGID_1_)" width="42.705" height="57"/>
	<g>
		<path fill="#64B5F6" d="M45.3,33.9c0,7.34-5.96,13.3-13.3,13.3c-7.341,0-13.3-5.96-13.3-13.3c0-7.341,5.959-13.3,13.3-13.3
			C39.34,20.6,45.3,26.56,45.3,33.9z"/>
		<path fill="#FFFFFF" fill-opacity="0.8" d="M23.275,23.88c0,0,0.274,0.145,0.382,0.378c0.082,0.23,0.379,0.23,0.379,0.23h0.427
			l0.62-0.186l-0.148,0.334c0,0-3.259,1.514-2.598,2.404c0.66,0.898,0.423,1.128,0.423,1.41c0,0.275,0.196,0.041,0.196,0.041
			l0.189-0.508l0.274-0.382l0.282-0.427l0.082-0.237l0.386-0.653l0.468-0.278l0.423,0.278c0,0,0.192,0.082,0.148,0.23
			c-0.041,0.148-0.086,0.423-0.086,0.423s0.086,0.196,0.234,0.196c0.152,0,0.386-0.152,0.386-0.152l0.193,0.341l0.148,0.62
			l0.378,0.382l0.197,0.423l-0.197,0.386l0.197,0.148l0.427,0.467l0.081,0.23l-0.705-0.037c0,0-0.081-0.197-0.229-0.197
			s-0.746-0.041-0.746-0.041l-0.346,0.085l-0.186,0.234c0,0-0.237,0.378-0.386,0.378c-0.145,0-0.505-0.082-0.505-0.082
			s-0.281-0.085-0.43,0.193s0.229,0.423,0.229,0.423l-0.653,0.193l-0.196,0.089c0,0-0.472,0.189-0.472,0.341
			c0,0.148,0,0.148,0,0.148l-0.141,0.382v0.23l-0.342,0.279l-0.341,0.229l-0.148,0.282v0.468c0,0-0.045,0.233-0.045,0.382
			c0,0.152,0,0.512,0,0.512s-0.148,0.148-0.233-0.151c-0.086-0.274-0.086-0.274-0.086-0.274l-0.148-0.342
			c0,0,0.148-0.045-0.044-0.193c-0.186-0.145-0.383-0.189-0.383-0.189s-0.081-0.081-0.278-0.081c-0.188,0,0.238,0.041-0.188,0
			c-0.427-0.048-0.427-0.048-0.427-0.048l-0.342,0.277v0.234c0,0-0.082,1.662,0.386,1.893h0.193l0.274-0.423l0.237,0.081v0.193
			l-0.044,0.346v0.188l0.229,0.237l0.148,0.424c0.193,0.341,0.089,0.426,0.23,0.508c0.152,0.086,0.282,0.346,0.282,0.346
			l0.188,0.081c0,0,0.152,0.045,0.278,0.082c0.148,0.044,0.148,0.044,0.148,0.044l0.045,0.216l0.048,0.171l0.189,0.229
			c0,0-0.148,0,0.193,0c0.341,0,0.341,0,0.341,0s0,0.089,0.238,0.196c0.229,0.082,0.044,0.045,0.229,0.082
			c0.193,0.045,0.513,0.086,0.513,0.086c0.337-0.045,0.337-0.045,0.337-0.045l0.234,0.346c0,0,0.148,0,0.192,0.145
			c0.045,0.148-0.229,0,0.045,0.148c0.274,0.152,0,0.048,0.274,0.152c0.274,0.104-0.089,0.085,0.274,0.085
			c0.36,0,0.424,0,0.572,0.04c0.151,0.045,0.237,0.387,0.237,0.387c0.274,0.338,0.274,0.338,0.274,0.338l0.045,0.426
			c0,0-0.148,0.086,0.192,0.086c0.342,0,0.082,0,0.342,0c0.252,0-0.045-0.086,0.233,0c0.274,0.082,0.274,0.082,0.274,0.082
			s0.427,0.345,0.575,0.345s0.427-0.048,0.579,0c0.148,0.041,0.23,0.271,0.505,0.338c0.278,0.048,0.386,0,0.575,0.151
			c0.197,0.148,0.197,0.148,0.197,0.148l0.04,0.506l-0.151,0.277l-0.383,0.148l-0.044,0.472l-0.197,0.472v0.229
			c0,0,0.237,0.196-0.186,0.237s-0.423,0.041-0.423,0.041l-0.193,0.189c0,0,0,0.049-0.089,0.193
			c-0.082,0.148-0.189,0.386-0.189,0.386l0.045,0.427v0.274l-0.148,0.229c0,0-0.13,0.067,0.229,0.301
			c0.383,0.234,0.68,0.234,0.769,0.379c0.082,0.152,0.319,0.278,0.319,0.278l-0.512-0.104l-0.319-0.108l-0.535-0.145l-1.017-0.534
			c0,0-1.536-1.255-2.004-2.274c0,0-0.4-0.598-1.083-0.85c0,0-1.686-1.537-1.834-1.919l-0.063-0.257v-0.125l-0.063-0.067v-0.145
			l-0.044-0.108l0.025-0.471l0.019-0.319l0.022-0.171l-0.022-0.126c0,0-0.081-0.081-0.081-0.104s-0.067-0.216-0.067-0.216
			l-0.022-0.063l0.26-0.215l-0.07-0.193l0.045-0.104l0.148-0.108c0,0,0.085-0.126,0.085-0.148c0-0.04-0.148-0.148-0.148-0.148
			l-0.06,0.022l-0.07,0.193h-0.078c0,0-0.089-0.045-0.089-0.067s-0.081-0.104-0.081-0.104l-0.108-0.045c0,0-0.085-0.022-0.107-0.063
			c-0.022-0.04-0.126-0.107-0.126-0.129c0-0.022-0.082-0.148-0.082-0.148L20.911,37.5c0,0-0.13-0.193-0.13-0.238
			c0-0.018-0.063-0.126-0.063-0.126s-0.148-0.171-0.148-0.192c0-0.022-0.067-0.171-0.067-0.171h-0.104l-0.233-0.089l-0.152-0.186
			l-0.167-0.193c0,0-0.086-0.148-0.086-0.193c0-0.044-0.066-0.081-0.066-0.081h-0.104h-0.06l-0.152-0.13l-0.382-0.531l-0.067-0.237
			l-0.06-0.256l-0.044-0.427v-0.274l-0.171-1.978C18.719,32.215,19.294,27.32,23.275,23.88z"/>
		<path fill="#FFFFFF" fill-opacity="0.8" d="M38.298,22.21l0.423,0.349l0.219,0.104l0.148,0.171l0.022,0.171
			c0,0,0.044,0.17,0.025,0.211c-0.025,0.048-0.048,0.278-0.048,0.278s0.193,0.341,0.193,0.386c0,0.037,0.019,0.23-0.022,0.275
			c-0.041,0.022-0.278,0.17-0.297,0.104c-0.022-0.066-0.171-0.215-0.212-0.215c-0.048-0.022-0.174-0.148-0.174-0.148l0.341-0.045
			l-0.041-0.215c0,0-0.233-0.082-0.3-0.082c-0.067-0.022-0.301-0.148-0.301-0.148l-0.253-0.063c0,0-0.423-0.104-0.471-0.13
			c-0.041-0.019-0.212-0.082-0.212-0.082H36.98c0,0-0.175,0.082-0.212,0.126c-0.022,0.045-0.237,0.278-0.237,0.278
			s-0.019,0.275-0.019,0.319s-0.063,0.152-0.063,0.274c0,0.13-0.025,0.301-0.025,0.345s0,0.104,0,0.104l-0.041,0.189l-0.148,0.089
			l-0.193,0.152c0,0-0.167,0.122-0.167,0.167c0,0.044,0,0.215,0.063,0.341c0.063,0.126,0.041,0.249,0.126,0.315
			s0.126,0.148,0.193,0.174c0.066,0.019,0.019,0.041,0.126,0.041c0.085,0,0.171,0.022,0.211-0.022
			c0.049-0.019,0.152-0.019,0.197-0.082c0.044-0.067-0.045-0.022,0.044-0.067c0.078-0.022,0.078-0.082,0.148-0.022
			c0.082,0.067,0.146,0.152,0.171,0.193c0.019,0.044,0.082,0.148,0.152,0.215c0.074,0.037,0.138,0.208,0.138,0.208l0.133,0.126
			c0,0,0.022,0.022,0.104,0.022c0.081,0,0.215-0.022,0.215-0.022l0.045-0.082c0,0,0.081,0.022,0.104-0.022
			c0.022-0.045,0.022-0.104,0.022-0.104s-0.045-0.134-0.085-0.171c-0.026-0.044-0.071-0.148-0.071-0.148l0.026-0.152l0.078-0.085
			l0.029-0.104v-0.126l-0.089-0.045l-0.148-0.089c0,0-0.082,0.022-0.082-0.082C37.7,25.302,37.7,25.302,37.7,25.302l-0.189-0.041
			l-0.13-0.066l0.152-0.108c0.085-0.145,0.104-0.189,0.104-0.23s-0.019-0.171-0.019-0.171s-0.085-0.026-0.085-0.13
			c-0.022-0.104-0.022-0.17-0.022-0.17l0.022-0.082c0,0,0.019-0.067,0.085-0.067c0.041,0,0.126,0.067,0.171,0.067
			c0.041,0,0.122,0.022,0.122,0.022s0.045,0.015,0.045,0.082c0,0.045-0.019,0.148-0.019,0.148l0.078-0.126v0.148l-0.019,0.171v0.17
			l0.085,0.171l0.082,0.13c0,0,0.107,0.107,0.152,0.152c0.048,0.015,0.151,0.097,0.151,0.097l0.127,0.067l0.085,0.022l0.082-0.089
			c0,0,0.151,0.022,0.151-0.022c0.022-0.044,0.022-0.044,0.022-0.044s0.171-0.019,0.212-0.019c0.048,0,0.134,0,0.134,0
			s0.063,0.126,0.019,0.126c-0.045,0-0.067,0.041-0.171,0.085c-0.107,0.022-0.152,0-0.171,0.045
			c-0.022,0.044-0.082,0.148-0.082,0.148l0.082,0.022h0.063l0.085,0.089c0,0,0.022,0.019,0,0.082s0.082,0.044-0.022,0.063
			c-0.126,0.026-0.189-0.019-0.189-0.019s-0.019-0.107-0.085-0.063c-0.048,0.044-0.066,0.148-0.066,0.148v0.145l0.081,0.215
			c0,0,0.045,0.044,0,0.07c-0.037,0.019-0.186,0.189-0.186,0.189s-0.022,0.06-0.085,0.06c-0.045,0-0.104,0-0.216,0.022
			c-0.081,0.022-0.081,0.022-0.167,0.044c-0.089,0.022-0.148,0.037-0.281,0.063c-0.127,0.019-0.356,0.019-0.445,0.019
			c-0.078,0-0.104,0-0.146-0.019c-0.044-0.026-0.021,0-0.081-0.085c-0.063-0.085-0.13-0.148-0.13-0.215c0-0.044,0-0.063-0.03-0.148
			c-0.019-0.082-0.019-0.148-0.077-0.148c-0.086,0-0.086,0-0.086,0s-0.167,0.13-0.148,0.171c0.022,0.044-0.019,0,0.126,0.104
			c0.148,0.108,0.193,0.26,0.193,0.26l-0.026,0.148l-0.271,0.148l-0.193,0.06l-0.021,0.134c0,0,0,0.044-0.041,0.104
			c-0.045,0.06-0.152,0.148-0.152,0.148s-0.085,0.022-0.104,0.085c-0.022,0.044-0.09,0.211-0.09,0.211S36.086,27.874,36,27.94
			c-0.085,0.066,0.022,0.066-0.17,0.148c-0.193,0.082-0.193,0.082-0.193,0.082l-0.212-0.015l-0.126,0.041
			c0,0-0.171,0.019-0.192,0.063c-0.022,0.044-0.108,0.171-0.108,0.171s-0.04,0.085,0,0.085c0.045,0.019,0.108,0,0.212,0.019
			c0.089,0.026,0.107,0.026,0.178,0.066c0.063,0.022,0.127,0.085,0.127,0.085l0.229,0.211l0.13,0.275l-0.025,0.215l-0.253,0.085
			c0,0-0.145,0-0.211,0c-0.049,0-0.026,0-0.278,0c-0.257,0-0.297,0-0.342,0s-0.212-0.026-0.212-0.026l-0.151,0.026l-0.104,0.085
			l-0.063,0.022c0,0,0.085,0.189,0.085,0.252c0,0.066,0,0.148,0,0.148l-0.022,0.133l-0.063,0.148l-0.09,0.148l0.03,0.082
			c0,0-0.03,0.067,0.019,0.067c0.044,0,0.167-0.022,0.167,0.022c0,0.041-0.104,0.215-0.104,0.215l0.216,0.041
			c0,0-0.019-0.019,0.104,0.022c0.126,0.015,0.212,0.059,0.212,0.059l0.145,0.104l0.048,0.085l0.045-0.085
			c0,0,0.23-0.019,0.274-0.041c0.045-0.022,0.152-0.022,0.152-0.022h0.186c0,0,0.045,0.022,0.085-0.022
			c0.022-0.037,0.022-0.037,0.022-0.037S35.96,30.813,36,30.768c0.041-0.019,0.063-0.148,0.063-0.148s0.066-0.041,0.066-0.082
			c0-0.041-0.044-0.148-0.044-0.148V30.3l0.063-0.082c0,0,0.019-0.022,0.086-0.085c0.066-0.063,0.066-0.063,0.066-0.063
			s-0.025-0.022,0.06-0.067c0.089-0.022,0.152-0.085,0.193-0.085c0.04,0-0.041,0.048,0.04,0c0.086-0.044,0.108-0.082,0.108-0.148
			c0-0.041,0.025-0.278,0.025-0.278l0.078-0.126l0.215,0.022l0.104,0.022c0,0,0.13,0.022,0.152-0.022
			c0.021-0.045,0.085-0.082,0.085-0.082l0.171-0.089c0,0-0.022-0.019,0.066-0.019c0.082,0,0.212,0,0.271,0c0.048,0,0.151,0,0.151,0
			s0.086,0.041,0.127,0.078c0.021,0.044,0.085,0.152,0.085,0.152l0.063,0.089h0.07c0.081,0.063,0.122,0.107,0.271,0.145
			c0.148,0.044,0.256,0.085,0.256,0.085s0.041,0.085,0.082,0.126c0.045,0.044,0.085,0.085,0.148,0.13
			c0.045,0.022,0.085,0.067,0.107,0.104c0.019,0.044,0.089,0.13,0.089,0.13l0.078,0.085l0.049-0.085v-0.148l-0.022-0.082
			c0,0-0.082-0.063,0.022-0.063c0.085,0,0.151,0,0.151,0l-0.085-0.134l-0.107-0.041l-0.148-0.107l-0.063-0.067l-0.066-0.015
			l-0.063-0.044l-0.089-0.063c0,0-0.148-0.026-0.148-0.085c-0.019-0.045-0.019-0.045-0.019-0.045l-0.152-0.022
			c0,0-0.148-0.082-0.148-0.123c0-0.048-0.019-0.174-0.019-0.174l-0.126-0.019c0,0,0.019-0.085,0.019-0.148
			c0-0.044,0.048-0.108,0.048-0.108l0.271-0.019l0.06,0.145l0.107,0.067l0.152,0.063l0.063,0.085l0.063,0.059
			c0,0,0.025,0.022,0.107,0.048c0.085,0.019,0.148,0.041,0.148,0.041s0.085,0.082,0.148,0.082c0.066,0.022,0.089,0.044,0.156,0.067
			c-0.049,0.044-0.049,0.044-0.049,0.044s0.022,0.044,0.086,0.085c0.063,0.041,0.126,0.126,0.126,0.17
			c0,0.041,0.044,0.189,0.085,0.211c0.045,0.022,0.063,0.022,0.145,0.108c0.086,0.082,0.086,0.167,0.152,0.211
			c0.086,0.022,0.148,0,0.148,0.082c0.022,0.089,0.022,0.152,0.022,0.152s0.066,0.026,0.107,0.026s0.126-0.085,0.126-0.085
			s0.086-0.13,0.022-0.156c-0.041-0.019-0.145-0.019-0.145-0.063s0-0.275,0-0.275l0.063-0.152l0.081-0.123l0.13,0.037l0.126-0.082
			l0.13,0.148l-0.04,0.17c0,0,0.019,0.104,0.077,0.189c0.049,0.085,0.148,0.197,0.148,0.197l0.22,0.193l0.297,0.082l0.066-0.022
			l0.445-0.085c0,0,0.066,0,0.104,0c0.045,0,0.257,0.36,0.257,0.36s0,0.152,0,0.234c0,0.085,0,0.3,0,0.3s-0.148,0.148-0.212,0.148
			c-0.066,0-0.233,0.082-0.233,0.082l-0.36,0.085l-0.233-0.019l-0.424-0.026c0,0-0.427-0.019-0.471-0.019c-0.045,0-0.193,0-0.234,0
			c-0.04,0-0.107,0.044-0.151,0.171c-0.041,0.126-0.127,0.167-0.127,0.167s0,0.063-0.085,0.063c-0.082,0-0.082,0.03-0.145-0.019
			c-0.07-0.044-0.364-0.107-0.364-0.107l-0.278-0.186l-0.151-0.126l-0.148-0.022h-0.427l-0.278-0.022l0.048-0.449l0.037,0.13
			l-0.085-0.297l-0.127-0.089l-0.3-0.063L37.7,30.768l-0.256,0.067l-0.253,0.085l-0.152,0.045l-0.716,0.122l-0.26,0.111
			c0,0-0.107,0.063-0.148,0.082c-0.041,0.022-0.212,0.022-0.212,0.022s-0.13-0.022-0.192-0.041c-0.06-0.019-0.212-0.019-0.278-0.019
			c-0.063,0-0.193-0.022-0.234,0c-0.04,0.019-0.085,0.019-0.126,0.082c-0.044,0.067-0.192,0.237-0.192,0.237
			s-0.082,0.082-0.127,0.126c-0.021,0.037-0.126,0.167-0.126,0.167l-0.174,0.278l-0.108,0.126l0.03,0.152v0.107
			c0,0-0.067,0.06-0.107,0.082c-0.049,0.021-0.134,0.066-0.134,0.066s-0.063,0.019-0.126,0.082c-0.06,0.044-0.06,0.066-0.108,0.104
			c-0.044,0.045-0.192,0.148-0.192,0.148s-0.082,0.066-0.148,0.13c-0.037,0.063-0.126,0.145-0.148,0.192
			c-0.019,0.045-0.082,0.086-0.126,0.104c-0.037,0.026-0.127,0.196-0.148,0.241c-0.022,0.037-0.148,0.23-0.148,0.23l-0.09,0.359
			l-0.015,0.167c0,0,0.015,0.067,0.063,0.111c0.041,0.037,0.085,0.212,0.085,0.212v0.152c0,0-0.044,0.126-0.066,0.17
			c-0.019,0.037,0.022,0.253,0.022,0.253v0.126c0,0,0,0.045-0.067,0.104c-0.066,0.067-0.085,0.152-0.085,0.152L32.72,35.9
			l0.067,0.13v0.081l0.081,0.148c0,0,0.045,0.045,0.082,0.086c0.052,0.021,0.066,0.021,0.155,0.085
			c0.086,0.045,0.086,0.045,0.086,0.045s0.13,0.148,0.13,0.212c0,0.044,0.081,0.129,0.081,0.129l0.148,0.148
			c0,0,0.022,0.082,0.104,0.148c0.085,0.067,0.171,0.104,0.215,0.148c0.045,0.022,0.171,0.127,0.274,0.148
			c0.09,0.022,0.13,0.045,0.175,0.045c0.041,0-0.066-0.134,0.233,0.019c0.297,0.152,0.49,0.216,0.49,0.216l0.215,0.085
			c0,0,0.346,0.022,0.379-0.022c0.045-0.022,0.107-0.022,0.145-0.022c0.045,0,0.156,0,0.241,0c0.078,0,0.379-0.044,0.379-0.044
			l0.338-0.127c0,0,0.107-0.063,0.155-0.085c0.041-0.019,0.163-0.104,0.212-0.122c0.048-0.03,0.256-0.03,0.256-0.03s0-0.063,0.082,0
			c0.089,0.067,0.089,0.089,0.107,0.134c0.025,0.045,0.025,0.148,0.085,0.148c0.063,0.022,0.216,0.066,0.216,0.066
			s0.215-0.025,0.274,0c0.063,0.02,0.215,0.02,0.215,0.02l0.063,0.085l0.025,0.188v0.175c0,0-0.025,0.067,0,0.126
			c0.019,0.067,0.082,0.171,0.082,0.171s-0.082,0.126-0.13,0.146c-0.045,0.021-0.148,0.151-0.148,0.151l0.297,0.274l0.171,0.171
			l0.126,0.152c0,0,0.026,0.063,0.026,0.104c0,0.04-0.026,0.148,0,0.211c0.021,0.049,0.021,0.215,0.021,0.215
			s0.019,0.127,0.019,0.171c0,0.048-0.04,0.253-0.04,0.253l-0.026,0.152l-0.085,0.256l-0.104,0.126l-0.148,0.148l-0.107,0.171
			l-0.019,0.229l-0.089,0.148c0,0,0.022,0.134,0.022,0.196c0,0.063,0.133,0.294,0.133,0.294l-0.029,0.192
			c0,0-0.078,0.282-0.078,0.346c0,0.066-0.066,0.148-0.066,0.215c0,0.041-0.022,0.234-0.022,0.234l0.022,0.229l0.081,0.233
			l-0.081,0.212c0,0-0.045,0.171-0.045,0.278c0,0.082,0.152,0.189,0.189,0.189c0.048,0,0.237-0.022,0.319-0.082
			c0.089-0.044,0.301-0.107,0.345-0.133c0.041-0.02,0.082,0.025,0.216-0.082c0.122-0.082,0.318-0.237,0.318-0.237
			s0.146-0.104,0.212-0.146c0.041-0.044,0.252-0.277,0.252-0.277s0.148-0.148,0.257-0.216c0.104-0.063,0-0.019,0.104-0.077
			c0.107-0.067,0.445-0.346,0.445-0.346l0.345-0.342c0,0,0.297-0.382,0.342-0.445c0.045-0.07,0.319-0.423,0.363-0.452
			c0.037-0.019,0.424-0.271,0.509-0.338c0.082-0.067,0.193-0.513,0.23-0.579c0.04-0.041,0.278-0.571,0.278-0.571l0.215-0.616
			l0.36-0.92l0.359-0.643c0,0,0.145-0.274,0.212-0.355c0.044-0.086,0.386-0.746,0.386-0.746l0.13-0.549l0.041-0.469h-0.212
			l-0.237,0.212l-0.215-0.063l-0.208,0.026l0.233-0.3l-0.066-0.234l-0.189-0.148l-0.256-0.383v-0.382l-0.274-0.445l-0.171-0.705
			c0,0-0.319-0.341-0.274-0.423c0.019-0.089,0.104-0.345,0.104-0.345l0.171,0.085c0,0,0.126,0.342,0.189,0.359
			c0.07,0.02,0.151,0.189,0.178,0.234c0.019,0.045,0.041,0.193,0.078,0.234c0.025,0.04,0.171,0.318,0.171,0.318
			s0.107,0.278,0.13,0.342c0.019,0.045,0.126,0.211,0.148,0.338c0.025,0.133,0.085,0.534,0.085,0.578c0,0.045,0.104,0.49,0.104,0.49
			s0.148-0.045,0.167-0.082c0.026-0.044,0.026-0.066,0.071-0.104c0.021-0.045,0.274-0.237,0.274-0.237l0.107-0.342
			c0,0,0.066-0.148,0.082-0.215c0.025-0.063,0.151-0.297,0.151-0.342c0-0.04-0.021-0.212,0-0.274
			c0.019-0.045,0.082-0.297,0.082-0.342c0-0.044,0.022-0.215,0.022-0.215l-0.022-0.383l0.171-0.211l0.085-0.237
			C45.277,32.241,44.662,25.558,38.298,22.21z"/>
	</g>
	<g>
		<rect x="10.636" y="3.5" opacity="0.8" fill="#FFFFFF" enable-background="new    " width="42.729" height="10.925"/>
		<g enable-background="new    ">
			<path fill="#1976D2" d="M28.089,8.896c0,0.728-0.115,1.37-0.342,1.922c-0.23,0.553-0.542,1.017-0.938,1.388
				c-0.397,0.371-0.869,0.653-1.418,0.838c-0.546,0.193-1.136,0.286-1.763,0.286c-0.612,0-1.191-0.093-1.733-0.286
				c-0.545-0.186-1.017-0.467-1.425-0.838c-0.404-0.371-0.724-0.835-0.953-1.388c-0.234-0.553-0.353-1.195-0.353-1.922
				c0-0.731,0.122-1.373,0.363-1.924c0.241-0.553,0.567-1.017,0.976-1.396c0.412-0.376,0.884-0.659,1.426-0.846
				c0.538-0.189,1.102-0.284,1.699-0.284c0.612,0,1.188,0.095,1.733,0.284c0.541,0.188,1.017,0.47,1.421,0.846
				c0.404,0.378,0.724,0.842,0.957,1.396C27.974,7.522,28.089,8.165,28.089,8.896z M21.249,8.896c0,0.416,0.052,0.794,0.16,1.128
				c0.107,0.337,0.263,0.624,0.467,0.868c0.201,0.241,0.449,0.427,0.742,0.557c0.294,0.134,0.631,0.201,1.01,0.201
				c0.371,0,0.705-0.067,1.002-0.201c0.297-0.13,0.546-0.315,0.75-0.557c0.204-0.245,0.355-0.531,0.464-0.868
				c0.107-0.334,0.163-0.712,0.163-1.128c0-0.419-0.056-0.798-0.163-1.135c-0.108-0.341-0.26-0.633-0.464-0.874
				s-0.453-0.429-0.75-0.561c-0.297-0.13-0.631-0.196-1.002-0.196c-0.379,0-0.716,0.068-1.01,0.204
				c-0.293,0.135-0.541,0.323-0.742,0.564c-0.204,0.243-0.359,0.532-0.467,0.87C21.301,8.109,21.249,8.487,21.249,8.896z"/>
			<path fill="#1976D2" d="M36.123,4.643v1.635h-2.705v6.878h-2.02V6.278h-2.701V4.643H36.123z"/>
			<path fill="#1976D2" d="M42.817,4.643h2.019v8.513h-2.019V9.545h-3.385v3.611h-2.019V4.643h2.019v3.258h3.385V4.643z"/>
		</g>
	</g>
</g>
</svg>
