<?xml version="1.0" encoding="utf-8"?>
<!-- Generator: Adobe Illustrator 21.0.0, SVG Export Plug-In . SVG Version: 6.00 Build 0)  -->
<svg version="1.1" id="图层_1" xmlns="http://www.w3.org/2000/svg" xmlns:xlink="http://www.w3.org/1999/xlink" x="0px" y="0px"
	 viewBox="0 0 64 64" style="enable-background:new 0 0 64 64;" xml:space="preserve">
<style type="text/css">
	.st0{opacity:0.1;enable-background:new    ;}
	.st1{opacity:0.2;enable-background:new    ;}
	.st2{fill:#AE2124;}
	.st3{fill:url(#SVGID_1_);}
	.st4{fill:#AE2124;fill-opacity:0.3922;}
	.st5{fill:#FFFFFF;fill-opacity:0.3922;}
	.st6{opacity:0.8;enable-background:new    ;}
	.st7{fill:#FFFFFF;}
	.st8{opacity:0.8;fill:#FFFFFF;enable-background:new    ;}
	.st9{enable-background:new    ;}
	.st10{fill:#E64A19;}
</style>
<polygon class="st0" points="9.2,64 9.2,2 56.8,2 56.8,46.5 39.3,64 "/>
<polygon class="st0" points="10.2,63 10.2,3 55.8,3 55.8,46.1 38.9,63 "/>
<polygon class="st1" points="9.2,62 9.2,2 54.8,2 54.8,45.1 37.9,62 "/>
<polygon class="st2" points="10.1,61 10.1,3 53.9,3 53.9,44.7 37.5,61 "/>
<g>
	<g>
		<g>
			
				<linearGradient id="SVGID_1_" gradientUnits="userSpaceOnUse" x1="115.1997" y1="-1281.3008" x2="115.1997" y2="-1224.3008" gradientTransform="matrix(1 0 0 -1 -83.1997 -1220.8008)">
				<stop  offset="0" style="stop-color:#C7312F"/>
				<stop  offset="0.1635" style="stop-color:#D9412C"/>
				<stop  offset="0.3476" style="stop-color:#E74E29"/>
				<stop  offset="0.5725" style="stop-color:#EA552A"/>
				<stop  offset="0.9516" style="stop-color:#EA582B"/>
			</linearGradient>
			<polygon class="st3" points="10.6,60.5 10.6,3.5 53.4,3.5 53.4,44.5 37.3,60.5 			"/>
		</g>
		<polygon class="st4" points="53.4,44.5 53.4,43.8 36.4,43.8 36.4,60.5 37.3,60.5 		"/>
		<path class="st5" d="M37.3,44.5h16.1l-16,16L37.3,44.5z"/>
	</g>
	<g class="st6">
		<g>
			<path class="st7" d="M37.4,19.8c0.1,0,0.2,0,0.2,0C37.5,19.8,37.4,19.8,37.4,19.8z"/>
			<path class="st7" d="M36.8,19.7c0.1,0,0.2,0,0.3,0C36.9,19.7,36.9,19.7,36.8,19.7z"/>
			<path class="st7" d="M37.9,19.9c0.1,0,0.1,0,0.2,0C38.1,19.9,38,19.9,37.9,19.9z"/>
			<path class="st7" d="M38.5,20c0.1,0,0.1,0,0.2,0C38.6,20,38.6,20,38.5,20z"/>
			<path class="st7" d="M36.2,19.6c0.1,0,0.2,0,0.3,0C36.3,19.6,36.3,19.6,36.2,19.6z"/>
			<path class="st7" d="M39.6,20.2c0,0,0.1,0,0.2,0C39.7,20.2,39.6,20.2,39.6,20.2z"/>
			<path class="st7" d="M39.1,20.1c0,0,0.1,0,0.2,0C39.2,20.1,39.1,20.1,39.1,20.1z"/>
			<path class="st7" d="M19.3,22.8L19.3,22.8L19.3,22.8z"/>
			<path class="st7" d="M32.9,19.4c0.1,0,0.3,0,0.5,0C33.2,19.4,33,19.4,32.9,19.4z"/>
			<path class="st7" d="M40.1,20.3h0.1C40.2,20.3,40.1,20.3,40.1,20.3z"/>
			<path class="st7" d="M35.5,19.5c0.1,0,0.2,0,0.3,0C35.8,19.6,35.7,19.6,35.5,19.5z"/>
			<path class="st7" d="M30.7,19.4c0.1,0,0.3,0,0.4,0C31,19.4,30.8,19.4,30.7,19.4z"/>
			<path class="st7" d="M34.3,19.4c0.1,0,0.2,0,0.4,0C34.5,19.5,34.4,19.4,34.3,19.4z"/>
			<path class="st7" d="M34.9,19.5c0.1,0,0.2,0,0.3,0C35.1,19.5,35,19.5,34.9,19.5z"/>
			<path class="st7" d="M43,21.4L43,21.4L43,21.4z"/>
			<path class="st7" d="M44.2,22.2L44.2,22.2L44.2,22.2z"/>
			<path class="st7" d="M43.4,21.6L43.4,21.6L43.4,21.6z"/>
			<path class="st7" d="M43.6,21.8C43.7,21.8,43.7,21.8,43.6,21.8C43.7,21.8,43.7,21.8,43.6,21.8z"/>
			<path class="st7" d="M40.6,20.5h0.1C40.6,20.5,40.6,20.5,40.6,20.5z"/>
			<path class="st7" d="M44.4,22.4L44.4,22.4L44.4,22.4z"/>
			<path class="st7" d="M32,19.4c-0.2,0-0.4,0-0.7,0C31.6,19.4,31.8,19.4,32,19.4z"/>
			<path class="st7" d="M43.9,22L43.9,22L43.9,22z"/>
			<path class="st7" d="M41.9,20.9C41.9,20.9,42,20.9,41.9,20.9C42,20.9,41.9,20.9,41.9,20.9z"/>
			<path class="st7" d="M32,19.4c0.2,0,0.5,0,0.7,0C32.5,19.4,32.2,19.4,32,19.4z"/>
			<path class="st7" d="M41,20.6C41,20.6,41.1,20.6,41,20.6C41.1,20.6,41.1,20.6,41,20.6z"/>
			<path class="st7" d="M41.5,20.7C41.5,20.7,41.5,20.8,41.5,20.7C41.5,20.8,41.5,20.8,41.5,20.7z"/>
			<path class="st7" d="M42.3,21.1C42.3,21.1,42.4,21.1,42.3,21.1L42.3,21.1z"/>
			<path class="st7" d="M42.7,21.2C42.7,21.2,42.7,21.3,42.7,21.2C42.7,21.3,42.7,21.2,42.7,21.2z"/>
			<path class="st7" d="M33.6,19.4c0.1,0,0.3,0,0.4,0C33.9,19.4,33.7,19.4,33.6,19.4z"/>
			<path class="st7" d="M21,21.4L21,21.4L21,21.4z"/>
			<path class="st7" d="M20.6,21.6L20.6,21.6L20.6,21.6z"/>
			<path class="st7" d="M20.3,21.8C20.3,21.8,20.4,21.8,20.3,21.8C20.4,21.8,20.3,21.8,20.3,21.8z"/>
			<path class="st7" d="M21.3,21.3C21.3,21.3,21.3,21.2,21.3,21.3C21.3,21.2,21.3,21.3,21.3,21.3z"/>
			<path class="st7" d="M22,20.9C22,20.9,22.1,20.9,22,20.9C22.1,20.9,22,20.9,22,20.9z"/>
			<path class="st7" d="M21.6,21.1C21.7,21.1,21.7,21.1,21.6,21.1C21.7,21.1,21.7,21.1,21.6,21.1z"/>
			<path class="st7" d="M30,19.4c0.1,0,0.3,0,0.4,0C30.3,19.4,30.1,19.4,30,19.4z"/>
			<path class="st7" d="M32,28.2c-7.2,0-13.1-2-13.1-4.4v4c0,2.4,5.8,4.4,13.1,4.4c7.2,0,13.1-2,13.1-4.4l0,0v-4
				C45.1,26.2,39.2,28.2,32,28.2z"/>
			<path class="st7" d="M18.9,23.7v0.1C18.9,23.8,18.9,23.7,18.9,23.7L18.9,23.7z"/>
			<path class="st7" d="M22.4,20.8C22.5,20.8,22.5,20.8,22.4,20.8C22.5,20.8,22.5,20.8,22.4,20.8z"/>
			<path class="st7" d="M19.8,22.2L19.8,22.2L19.8,22.2z"/>
			<path class="st7" d="M45.1,23.7v0.1V23.7L45.1,23.7z"/>
			<path class="st7" d="M19.4,22.6L19.4,22.6L19.4,22.6z"/>
			<path class="st7" d="M19.6,22.4L19.6,22.4L19.6,22.4z"/>
			<path class="st7" d="M20.1,22L20.1,22L20.1,22z"/>
			<path class="st7" d="M27.6,19.6c0.1,0,0.2,0,0.3,0C27.7,19.6,27.7,19.6,27.6,19.6z"/>
			<path class="st7" d="M27,19.7c0.1,0,0.2,0,0.3,0C27.1,19.7,27.1,19.7,27,19.7z"/>
			<path class="st7" d="M28.2,19.6c0.1,0,0.2,0,0.3,0C28.3,19.6,28.2,19.6,28.2,19.6z"/>
			<path class="st7" d="M22.9,20.6L22.9,20.6L22.9,20.6z"/>
			<path class="st7" d="M29.4,19.5c0.1,0,0.2,0,0.4,0C29.6,19.4,29.5,19.5,29.4,19.5z"/>
			<path class="st7" d="M26.4,19.8c0.1,0,0.2,0,0.2,0S26.5,19.8,26.4,19.8z"/>
			<path class="st7" d="M28.8,19.5c0.1,0,0.2,0,0.3,0C29,19.5,28.9,19.5,28.8,19.5z"/>
			<path class="st7" d="M23.8,20.4h0.1C23.9,20.3,23.8,20.3,23.8,20.4z"/>
			<path class="st7" d="M23.3,20.5h0.1C23.4,20.5,23.4,20.5,23.3,20.5z"/>
			<path class="st7" d="M24.3,20.2c0,0,0.1,0,0.2,0C24.4,20.2,24.3,20.2,24.3,20.2z"/>
			<path class="st7" d="M24.8,20.1c0.1,0,0.1,0,0.2,0C24.9,20.1,24.8,20.1,24.8,20.1z"/>
			<path class="st7" d="M25.3,20c0.1,0,0.1,0,0.2,0C25.4,20,25.4,20,25.3,20z"/>
			<path class="st7" d="M25.8,19.9c0.1,0,0.1,0,0.2,0C26,19.9,25.9,19.9,25.8,19.9z"/>
		</g>
		<g>
			<path class="st7" d="M37.4,24.4c0.1,0,0.2,0,0.2,0C37.5,24.4,37.4,24.4,37.4,24.4z"/>
			<path class="st7" d="M36.8,24.3c0.1,0,0.2,0,0.3,0C36.9,24.3,36.9,24.3,36.8,24.3z"/>
			<path class="st7" d="M37.9,24.5c0.1,0,0.1,0,0.2,0C38.1,24.5,38,24.5,37.9,24.5z"/>
			<path class="st7" d="M38.5,24.6c0.1,0,0.1,0,0.2,0C38.6,24.6,38.6,24.6,38.5,24.6z"/>
			<path class="st7" d="M36.2,24.2c0.1,0,0.2,0,0.3,0C36.3,24.3,36.3,24.3,36.2,24.2z"/>
			<path class="st7" d="M39.6,24.8c0,0,0.1,0,0.2,0C39.7,24.9,39.6,24.9,39.6,24.8z"/>
			<path class="st7" d="M39.1,24.7c0,0,0.1,0,0.2,0C39.2,24.7,39.1,24.7,39.1,24.7z"/>
			<path class="st7" d="M19.3,27.4L19.3,27.4L19.3,27.4z"/>
			<path class="st7" d="M32.9,24c0.1,0,0.3,0,0.5,0C33.2,24,33,24,32.9,24z"/>
			<path class="st7" d="M40.1,25h0.1C40.2,25,40.1,25,40.1,25z"/>
			<path class="st7" d="M35.5,24.2c0.1,0,0.2,0,0.3,0C35.8,24.2,35.7,24.2,35.5,24.2z"/>
			<path class="st7" d="M30.7,24c0.1,0,0.3,0,0.4,0C31,24,30.8,24,30.7,24z"/>
			<path class="st7" d="M34.3,24.1c0.1,0,0.2,0,0.4,0C34.5,24.1,34.4,24.1,34.3,24.1z"/>
			<path class="st7" d="M34.9,24.1c0.1,0,0.2,0,0.3,0C35.1,24.1,35,24.1,34.9,24.1z"/>
			<path class="st7" d="M43,26.1L43,26.1L43,26.1z"/>
			<path class="st7" d="M44.2,26.8L44.2,26.8L44.2,26.8z"/>
			<path class="st7" d="M43.4,26.3L43.4,26.3L43.4,26.3z"/>
			<path class="st7" d="M43.6,26.4C43.7,26.4,43.7,26.4,43.6,26.4C43.7,26.4,43.7,26.4,43.6,26.4z"/>
			<path class="st7" d="M40.6,25.1h0.1C40.6,25.1,40.6,25.1,40.6,25.1z"/>
			<path class="st7" d="M44.4,27L44.4,27L44.4,27z"/>
			<path class="st7" d="M32,24c-0.2,0-0.4,0-0.7,0C31.6,24,31.8,24,32,24z"/>
			<path class="st7" d="M43.9,26.6L43.9,26.6L43.9,26.6z"/>
			<path class="st7" d="M41.9,25.5C41.9,25.5,42,25.6,41.9,25.5C42,25.6,41.9,25.6,41.9,25.5z"/>
			<path class="st7" d="M32,24c0.2,0,0.5,0,0.7,0C32.5,24,32.2,24,32,24z"/>
			<path class="st7" d="M41,25.2C41,25.2,41.1,25.3,41,25.2C41.1,25.3,41.1,25.3,41,25.2z"/>
			<path class="st7" d="M41.5,25.4L41.5,25.4L41.5,25.4z"/>
			<path class="st7" d="M42.3,25.7C42.3,25.7,42.4,25.7,42.3,25.7L42.3,25.7z"/>
			<path class="st7" d="M42.7,25.9L42.7,25.9L42.7,25.9z"/>
			<path class="st7" d="M33.6,24c0.1,0,0.3,0,0.4,0C33.9,24,33.7,24,33.6,24z"/>
			<path class="st7" d="M21,26.1L21,26.1L21,26.1z"/>
			<path class="st7" d="M20.6,26.3L20.6,26.3L20.6,26.3z"/>
			<path class="st7" d="M20.3,26.4C20.3,26.4,20.4,26.4,20.3,26.4C20.4,26.4,20.3,26.4,20.3,26.4z"/>
			<path class="st7" d="M21.3,25.9L21.3,25.9L21.3,25.9z"/>
			<path class="st7" d="M22,25.6C22,25.6,22.1,25.6,22,25.6C22.1,25.6,22,25.6,22,25.6z"/>
			<path class="st7" d="M21.6,25.7C21.7,25.7,21.7,25.7,21.6,25.7C21.7,25.7,21.7,25.7,21.6,25.7z"/>
			<path class="st7" d="M30,24.1c0.1,0,0.3,0,0.4,0C30.3,24,30.1,24,30,24.1z"/>
			<path class="st7" d="M32,32.9c-7.2,0-13.1-2-13.1-4.4v4c0,2.4,5.8,4.4,13.1,4.4c7.2,0,13.1-2,13.1-4.4l0,0v-4
				C45.1,30.9,39.2,32.9,32,32.9z"/>
			<path class="st7" d="M18.9,28.3v0.1V28.3L18.9,28.3z"/>
			<path class="st7" d="M22.4,25.4C22.5,25.4,22.5,25.4,22.4,25.4C22.5,25.4,22.5,25.4,22.4,25.4z"/>
			<path class="st7" d="M19.8,26.8L19.8,26.8L19.8,26.8z"/>
			<path class="st7" d="M45.1,28.3v0.1V28.3L45.1,28.3z"/>
			<path class="st7" d="M19.4,27.2L19.4,27.2L19.4,27.2z"/>
			<path class="st7" d="M19.6,27L19.6,27L19.6,27z"/>
			<path class="st7" d="M20.1,26.6L20.1,26.6L20.1,26.6z"/>
			<path class="st7" d="M27.6,24.3c0.1,0,0.2,0,0.3,0C27.7,24.3,27.7,24.3,27.6,24.3z"/>
			<path class="st7" d="M27,24.4c0.1,0,0.2,0,0.3,0C27.1,24.3,27.1,24.3,27,24.4z"/>
			<path class="st7" d="M28.2,24.2c0.1,0,0.2,0,0.3,0C28.3,24.2,28.2,24.2,28.2,24.2z"/>
			<path class="st7" d="M22.9,25.3L22.9,25.3L22.9,25.3z"/>
			<path class="st7" d="M29.4,24.1c0.1,0,0.2,0,0.4,0C29.6,24.1,29.5,24.1,29.4,24.1z"/>
			<path class="st7" d="M26.4,24.5c0.1,0,0.2,0,0.2,0C26.6,24.4,26.5,24.4,26.4,24.5z"/>
			<path class="st7" d="M28.8,24.1c0.1,0,0.2,0,0.3,0C29,24.1,28.9,24.1,28.8,24.1z"/>
			<path class="st7" d="M23.8,25h0.1H23.8z"/>
			<path class="st7" d="M23.3,25.1h0.1C23.4,25.1,23.4,25.1,23.3,25.1z"/>
			<path class="st7" d="M24.3,24.9c0,0,0.1,0,0.2,0C24.4,24.9,24.3,24.9,24.3,24.9z"/>
			<path class="st7" d="M24.8,24.8c0.1,0,0.1,0,0.2,0C24.9,24.7,24.8,24.7,24.8,24.8z"/>
			<path class="st7" d="M25.3,24.6c0.1,0,0.1,0,0.2,0C25.4,24.6,25.4,24.6,25.3,24.6z"/>
			<path class="st7" d="M25.8,24.5c0.1,0,0.1,0,0.2,0C26,24.5,25.9,24.5,25.8,24.5z"/>
		</g>
		<g>
			<path class="st7" d="M37.4,29c0.1,0,0.2,0,0.2,0C37.5,29.1,37.4,29.1,37.4,29z"/>
			<path class="st7" d="M36.8,29c0.1,0,0.2,0,0.3,0C36.9,29,36.9,29,36.8,29z"/>
			<path class="st7" d="M37.9,29.1c0.1,0,0.1,0,0.2,0C38.1,29.2,38,29.2,37.9,29.1z"/>
			<path class="st7" d="M38.5,29.2c0.1,0,0.1,0,0.2,0C38.6,29.3,38.6,29.2,38.5,29.2z"/>
			<path class="st7" d="M36.2,28.9c0.1,0,0.2,0,0.3,0C36.3,28.9,36.3,28.9,36.2,28.9z"/>
			<path class="st7" d="M39.6,29.5c0,0,0.1,0,0.2,0C39.7,29.5,39.6,29.5,39.6,29.5z"/>
			<path class="st7" d="M39.1,29.3c0,0,0.1,0,0.2,0C39.2,29.4,39.1,29.4,39.1,29.3z"/>
			<path class="st7" d="M19.3,32.1L19.3,32.1L19.3,32.1z"/>
			<path class="st7" d="M32.9,28.7c0.1,0,0.3,0,0.5,0C33.2,28.7,33,28.7,32.9,28.7z"/>
			<path class="st7" d="M40.1,29.6h0.1C40.2,29.6,40.1,29.6,40.1,29.6z"/>
			<path class="st7" d="M35.5,28.8c0.1,0,0.2,0,0.3,0C35.8,28.8,35.7,28.8,35.5,28.8z"/>
			<path class="st7" d="M30.7,28.7c0.1,0,0.3,0,0.4,0C31,28.7,30.8,28.7,30.7,28.7z"/>
			<path class="st7" d="M34.3,28.7c0.1,0,0.2,0,0.4,0C34.5,28.7,34.4,28.7,34.3,28.7z"/>
			<path class="st7" d="M34.9,28.8c0.1,0,0.2,0,0.3,0C35.1,28.8,35,28.8,34.9,28.8z"/>
			<path class="st7" d="M43,30.7L43,30.7L43,30.7z"/>
			<path class="st7" d="M44.2,31.5L44.2,31.5L44.2,31.5z"/>
			<path class="st7" d="M43.4,30.9L43.4,30.9L43.4,30.9z"/>
			<path class="st7" d="M43.6,31.1C43.7,31.1,43.7,31.1,43.6,31.1C43.7,31.1,43.7,31.1,43.6,31.1z"/>
			<path class="st7" d="M40.6,29.7h0.1C40.6,29.8,40.6,29.7,40.6,29.7z"/>
			<path class="st7" d="M44.4,31.7L44.4,31.7L44.4,31.7z"/>
			<path class="st7" d="M32,28.7c-0.2,0-0.4,0-0.7,0C31.6,28.7,31.8,28.7,32,28.7z"/>
			<path class="st7" d="M43.9,31.3L43.9,31.3L43.9,31.3z"/>
			<path class="st7" d="M41.9,30.2C41.9,30.2,42,30.2,41.9,30.2C42,30.2,41.9,30.2,41.9,30.2z"/>
			<path class="st7" d="M32,28.7c0.2,0,0.5,0,0.7,0C32.5,28.7,32.2,28.7,32,28.7z"/>
			<path class="st7" d="M41,29.9C41,29.9,41.1,29.9,41,29.9C41.1,29.9,41.1,29.9,41,29.9z"/>
			<path class="st7" d="M41.5,30C41.5,30,41.5,30.1,41.5,30C41.5,30.1,41.5,30.1,41.5,30z"/>
			<path class="st7" d="M42.3,30.4C42.3,30.4,42.4,30.4,42.3,30.4L42.3,30.4z"/>
			<path class="st7" d="M42.7,30.5C42.7,30.5,42.7,30.6,42.7,30.5C42.7,30.6,42.7,30.5,42.7,30.5z"/>
			<path class="st7" d="M33.6,28.7c0.1,0,0.3,0,0.4,0C33.9,28.7,33.7,28.7,33.6,28.7z"/>
			<path class="st7" d="M21,30.7L21,30.7L21,30.7z"/>
			<path class="st7" d="M20.6,30.9L20.6,30.9L20.6,30.9z"/>
			<path class="st7" d="M20.3,31.1C20.3,31.1,20.4,31.1,20.3,31.1C20.4,31.1,20.3,31.1,20.3,31.1z"/>
			<path class="st7" d="M21.3,30.6C21.3,30.6,21.3,30.5,21.3,30.6C21.3,30.5,21.3,30.6,21.3,30.6z"/>
			<path class="st7" d="M22,30.2C22,30.2,22.1,30.2,22,30.2C22.1,30.2,22,30.2,22,30.2z"/>
			<path class="st7" d="M21.6,30.4C21.7,30.4,21.7,30.4,21.6,30.4C21.7,30.4,21.7,30.4,21.6,30.4z"/>
			<path class="st7" d="M30,28.7c0.1,0,0.3,0,0.4,0C30.3,28.7,30.1,28.7,30,28.7z"/>
			<path class="st7" d="M32,37.5c-7.2,0-13.1-2-13.1-4.4v4c0,2.4,5.8,4.4,13.1,4.4c7.2,0,13.1-2,13.1-4.4l0,0v-4
				C45.1,35.5,39.2,37.5,32,37.5z"/>
			<path class="st7" d="M18.9,33v0.1C18.9,33,18.9,33,18.9,33L18.9,33z"/>
			<path class="st7" d="M22.4,30.1C22.5,30.1,22.5,30,22.4,30.1C22.5,30.1,22.5,30.1,22.4,30.1z"/>
			<path class="st7" d="M19.8,31.5L19.8,31.5L19.8,31.5z"/>
			<path class="st7" d="M45.1,33v0.1V33L45.1,33z"/>
			<path class="st7" d="M19.4,31.9L19.4,31.9L19.4,31.9z"/>
			<path class="st7" d="M19.6,31.7L19.6,31.7L19.6,31.7z"/>
			<path class="st7" d="M20.1,31.3L20.1,31.3L20.1,31.3z"/>
			<path class="st7" d="M27.6,28.9c0.1,0,0.2,0,0.3,0C27.7,28.9,27.7,28.9,27.6,28.9z"/>
			<path class="st7" d="M27,29c0.1,0,0.2,0,0.3,0C27.1,29,27.1,29,27,29z"/>
			<path class="st7" d="M28.2,28.8c0.1,0,0.2,0,0.3,0C28.3,28.8,28.2,28.8,28.2,28.8z"/>
			<path class="st7" d="M22.9,29.9L22.9,29.9L22.9,29.9z"/>
			<path class="st7" d="M29.4,28.7c0.1,0,0.2,0,0.4,0C29.6,28.7,29.5,28.7,29.4,28.7z"/>
			<path class="st7" d="M26.4,29.1c0.1,0,0.2,0,0.2,0S26.5,29.1,26.4,29.1z"/>
			<path class="st7" d="M28.8,28.8c0.1,0,0.2,0,0.3,0C29,28.8,28.9,28.8,28.8,28.8z"/>
			<path class="st7" d="M23.8,29.7h0.1C23.9,29.6,23.8,29.6,23.8,29.7z"/>
			<path class="st7" d="M23.3,29.8h0.1C23.4,29.7,23.4,29.8,23.3,29.8z"/>
			<path class="st7" d="M24.3,29.5c0,0,0.1,0,0.2,0C24.4,29.5,24.3,29.5,24.3,29.5z"/>
			<path class="st7" d="M24.8,29.4c0.1,0,0.1,0,0.2,0C24.9,29.4,24.8,29.4,24.8,29.4z"/>
			<path class="st7" d="M25.3,29.3c0.1,0,0.1,0,0.2,0C25.4,29.2,25.4,29.3,25.3,29.3z"/>
			<path class="st7" d="M25.8,29.2c0.1,0,0.1,0,0.2,0C26,29.2,25.9,29.2,25.8,29.2z"/>
		</g>
		<path class="st7" d="M32,18.7c7.2,0,13.1,2,13.1,4.4s-5.8,4.4-13.1,4.4c-7.2,0-13.1-2-13.1-4.4C18.9,20.7,24.8,18.7,32,18.7z"/>
	</g>
	<g>
		<rect x="10.6" y="3.5" class="st8" width="42.7" height="10.9"/>
		<g class="st9">
			<path class="st10" d="M27.3,8.9c0,0.7-0.1,1.4-0.3,1.9c-0.2,0.6-0.5,1-0.9,1.4s-0.9,0.7-1.4,0.8c-0.5,0.2-1.1,0.3-1.8,0.3
				c-0.6,0-1.2-0.1-1.7-0.3s-1-0.5-1.4-0.8c-0.4-0.4-0.7-0.8-1-1.4c-0.2-0.6-0.3-1.2-0.3-1.9s0.1-1.4,0.4-1.9c0.2-0.6,0.6-1,1-1.4
				s0.9-0.7,1.4-0.8c0.5-0.2,1.1-0.3,1.7-0.3s1.2,0.1,1.7,0.3c0.5,0.2,1,0.5,1.4,0.8C26.4,6,26.7,6.4,27,7
				C27.2,7.5,27.3,8.2,27.3,8.9z M20.5,8.9c0,0.4,0.1,0.8,0.2,1.1s0.3,0.6,0.5,0.9c0.2,0.2,0.4,0.4,0.7,0.6c0.3,0.1,0.6,0.2,1,0.2
				s0.7-0.1,1-0.2c0.3-0.1,0.5-0.3,0.8-0.6c0.2-0.2,0.4-0.5,0.5-0.9c0.1-0.3,0.2-0.7,0.2-1.1s-0.1-0.8-0.2-1.1s-0.3-0.6-0.5-0.9
				c-0.2-0.2-0.5-0.4-0.8-0.6c-0.3-0.1-0.6-0.2-1-0.2s-0.7,0.1-1,0.2s-0.5,0.3-0.7,0.6c-0.2,0.2-0.4,0.5-0.5,0.9
				C20.5,8.1,20.5,8.5,20.5,8.9z"/>
			<path class="st10" d="M36.8,8.9c0,0.7-0.1,1.4-0.4,1.9c-0.2,0.5-0.6,1-1,1.4s-1,0.6-1.6,0.8s-1.4,0.3-2.1,0.3c-0.4,0-0.8,0-1.3,0
				s-1-0.1-1.4-0.2V4.8c0.5-0.1,1-0.1,1.5-0.2c0.5,0,0.9,0,1.3,0c0.8,0,1.5,0.1,2.1,0.2C34.5,5,35,5.2,35.5,5.6
				c0.4,0.4,0.8,0.8,1,1.4C36.7,7.5,36.8,8.1,36.8,8.9z M31,11.6c0.1,0,0.2,0,0.3,0c0.1,0,0.3,0,0.4,0c1,0,1.8-0.2,2.2-0.7
				c0.5-0.5,0.7-1.2,0.7-2c0-0.9-0.2-1.6-0.7-2c-0.5-0.5-1.2-0.7-2.2-0.7c-0.1,0-0.3,0-0.4,0s-0.3,0-0.4,0v5.4H31z"/>
			<path class="st10" d="M41.5,13.3c-0.5,0-1,0-1.5,0s-1-0.1-1.5-0.2V4.8c0.4-0.1,0.9-0.1,1.4-0.2c0.5,0,1-0.1,1.4-0.1
				c0.6,0,1.1,0,1.6,0.1s0.9,0.2,1.2,0.4c0.3,0.2,0.6,0.4,0.8,0.7s0.3,0.7,0.3,1.1c0,0.7-0.3,1.2-1,1.6c0.6,0.2,1,0.5,1.2,0.8
				c0.2,0.4,0.3,0.8,0.3,1.2c0,0.9-0.3,1.6-1,2C43.9,13,42.9,13.3,41.5,13.3z M40.5,8h1c0.6,0,1.1-0.1,1.3-0.2
				c0.3-0.2,0.4-0.4,0.4-0.7c0-0.3-0.1-0.6-0.4-0.7c-0.3-0.1-0.7-0.2-1.2-0.2c-0.2,0-0.4,0-0.6,0c-0.2,0-0.4,0-0.5,0V8L40.5,8z
				 M40.5,9.4v2.2c0.1,0,0.3,0,0.5,0s0.4,0,0.6,0c0.6,0,1.1-0.1,1.5-0.2c0.4-0.2,0.6-0.5,0.6-0.9s-0.2-0.7-0.5-0.8
				c-0.3-0.2-0.8-0.3-1.3-0.3H40.5L40.5,9.4z"/>
		</g>
	</g>
</g>
</svg>
