<?xml version="1.0" encoding="utf-8"?>
<!-- Generator: Adobe Illustrator 16.0.0, SVG Export Plug-In . SVG Version: 6.00 Build 0)  -->
<!DOCTYPE svg PUBLIC "-//W3C//DTD SVG 1.1//EN" "http://www.w3.org/Graphics/SVG/1.1/DTD/svg11.dtd">
<svg version="1.1" id="图层_1" xmlns="http://www.w3.org/2000/svg" xmlns:xlink="http://www.w3.org/1999/xlink" x="0px" y="0px"
	 width="64px" height="64px" viewBox="0 0 64 64" enable-background="new 0 0 64 64" xml:space="preserve">
<polygon opacity="0.1" enable-background="new    " points="9.155,64 9.155,2 56.846,2 56.846,46.498 39.343,64 "/>
<polygon opacity="0.1" enable-background="new    " points="10.155,63 10.155,3 55.846,3 55.846,46.084 38.93,63 "/>
<polygon opacity="0.2" enable-background="new    " points="9.155,62 9.155,2 54.846,2 54.846,45.084 37.93,62 "/>
<polygon fill="#3E2723" points="10.148,61 10.148,3 53.852,3 53.852,44.67 37.518,61 "/>
<g>
	<g>
		
			<linearGradient id="SVGID_1_" gradientUnits="userSpaceOnUse" x1="73.6016" y1="-103.4004" x2="73.6016" y2="-160.4009" gradientTransform="matrix(1 0 0 -1 -41.6001 -99.9004)">
			<stop  offset="0" style="stop-color:#785548"/>
			<stop  offset="1" style="stop-color:#9F9E9F"/>
		</linearGradient>
		<polygon fill="url(#SVGID_1_)" points="10.649,60.5 10.649,3.5 53.355,3.5 53.355,44.446 37.479,60.5 		"/>
		<polygon fill="#795548" fill-opacity="0.7" points="53.355,44.469 53.355,43.778 36.447,43.778 36.447,60.5 37.324,60.5 		"/>
		<path opacity="0.39" fill="#FFFFFF" enable-background="new    " d="M37.301,44.469l16.055,0.022L37.324,60.5L37.301,44.469z"/>
	</g>
	<path fill="#FFFFFF" d="M25.909,14.488h-1.447v18.51H23.37v-18.51h-1.44v18.51h-1.091v-18.51h-1.44v18.51h-1.091v-18.51h-1.44
		v18.51H16.49v7.842h9.908v-7.842h-0.489V14.488z M24.958,38.561H17.93v-4.545h7.028V38.561z"/>
	<g>
		<rect x="10.638" y="3.5" opacity="0.8" fill="#FFFFFF" enable-background="new    " width="42.723" height="10.925"/>
		<g enable-background="new    ">
			<path fill="#5D4037" d="M21.615,13.394c-1.455,0-2.564-0.386-3.329-1.156c-0.764-0.77-1.146-1.863-1.146-3.28
				c0-0.703,0.119-1.333,0.353-1.885c0.23-0.553,0.549-1.021,0.954-1.401c0.408-0.38,0.891-0.67,1.451-0.867
				c0.56-0.196,1.169-0.295,1.822-0.295c0.378,0,0.724,0.028,1.036,0.08c0.312,0.054,0.583,0.115,0.816,0.186
				c0.23,0.068,0.427,0.141,0.579,0.215c0.156,0.073,0.267,0.13,0.338,0.171L23.905,6.71c-0.275-0.139-0.598-0.258-0.965-0.356
				c-0.364-0.098-0.779-0.148-1.247-0.148c-0.308,0-0.612,0.05-0.909,0.148c-0.301,0.099-0.564,0.256-0.791,0.472
				c-0.23,0.217-0.412,0.499-0.549,0.842c-0.137,0.343-0.208,0.763-0.208,1.252c0,0.393,0.044,0.761,0.137,1.1
				c0.089,0.34,0.237,0.633,0.438,0.879c0.204,0.245,0.467,0.44,0.794,0.583c0.331,0.143,0.728,0.215,1.191,0.215
				c0.293,0,0.557-0.017,0.791-0.05c0.23-0.032,0.438-0.071,0.62-0.115c0.182-0.046,0.341-0.096,0.479-0.154s0.264-0.111,0.375-0.16
				l0.556,1.535c-0.285,0.165-0.686,0.312-1.202,0.443C22.895,13.327,22.298,13.394,21.615,13.394z"/>
			<path fill="#5D4037" d="M28.599,4.608c1.34,0,2.363,0.224,3.076,0.669c0.72,0.447,1.077,1.178,1.077,2.193
				c0,1.024-0.364,1.763-1.087,2.217s-1.76,0.683-3.106,0.683h-0.631v2.85h-2.019V4.829c0.441-0.082,0.905-0.139,1.396-0.171
				C27.797,4.625,28.228,4.608,28.599,4.608z M28.729,6.242c-0.148,0-0.29,0.004-0.431,0.013c-0.145,0.007-0.268,0.015-0.371,0.024
				v2.457h0.631c0.701,0,1.225-0.089,1.581-0.271c0.353-0.18,0.53-0.516,0.53-1.008c0-0.237-0.048-0.432-0.137-0.588
				c-0.09-0.156-0.22-0.282-0.387-0.375c-0.17-0.095-0.374-0.16-0.615-0.197S29.022,6.242,28.729,6.242z"/>
			<path fill="#5D4037" d="M34.24,4.706h2.014v8.515H34.24V4.706z"/>
			<path fill="#5D4037" d="M46.861,8.957c0,0.729-0.115,1.371-0.342,1.924c-0.23,0.553-0.543,1.015-0.939,1.388
				s-0.869,0.653-1.418,0.84c-0.545,0.189-1.135,0.284-1.762,0.284c-0.617,0-1.191-0.095-1.736-0.284
				c-0.543-0.188-1.018-0.467-1.422-0.84s-0.725-0.835-0.953-1.388c-0.238-0.553-0.354-1.195-0.354-1.924
				c0-0.729,0.123-1.37,0.363-1.922c0.242-0.553,0.568-1.017,0.977-1.396c0.408-0.376,0.883-0.659,1.426-0.846
				c0.533-0.189,1.102-0.284,1.699-0.284c0.607,0,1.188,0.095,1.729,0.284c0.545,0.187,1.018,0.469,1.426,0.846
				c0.404,0.379,0.723,0.843,0.957,1.396C46.742,7.587,46.861,8.228,46.861,8.957z M40.018,8.957c0,0.417,0.055,0.796,0.164,1.13
				c0.107,0.338,0.26,0.625,0.467,0.867c0.201,0.243,0.445,0.428,0.742,0.56c0.289,0.13,0.631,0.197,1.01,0.197
				c0.371,0,0.705-0.067,1.002-0.197c0.297-0.132,0.545-0.317,0.75-0.56c0.199-0.241,0.355-0.529,0.463-0.867
				c0.107-0.334,0.164-0.712,0.164-1.13s-0.057-0.796-0.164-1.136c-0.107-0.339-0.264-0.631-0.463-0.872
				c-0.205-0.241-0.453-0.429-0.75-0.56c-0.297-0.13-0.631-0.197-1.002-0.197c-0.379,0-0.721,0.068-1.01,0.204
				c-0.297,0.135-0.541,0.323-0.742,0.564c-0.207,0.243-0.359,0.533-0.467,0.872C40.072,8.174,40.018,8.549,40.018,8.957z"/>
		</g>
	</g>
</g>
</svg>
