<?xml version="1.0" encoding="utf-8"?>
<!-- Generator: Adobe Illustrator 16.0.0, SVG Export Plug-In . SVG Version: 6.00 Build 0)  -->
<!DOCTYPE svg PUBLIC "-//W3C//DTD SVG 1.1//EN" "http://www.w3.org/Graphics/SVG/1.1/DTD/svg11.dtd">
<svg version="1.1" id="图层_1" xmlns="http://www.w3.org/2000/svg" xmlns:xlink="http://www.w3.org/1999/xlink" x="0px" y="0px"
	 width="64px" height="64px" viewBox="0 0 64 64" enable-background="new 0 0 64 64" xml:space="preserve">
<polygon opacity="0.1" enable-background="new    " points="9.155,64 9.155,2 56.846,2 56.846,46.498 39.343,64 "/>
<polygon opacity="0.1" enable-background="new    " points="10.155,63 10.155,3 55.846,3 55.846,46.084 38.93,63 "/>
<polygon opacity="0.2" enable-background="new    " points="9.155,62 9.155,2 54.846,2 54.846,45.084 37.93,62 "/>
<polygon fill="#3E2723" points="10.148,61 10.148,3 53.852,3 53.852,44.67 37.518,61 "/>
<g>
	<g>
		
			<linearGradient id="SVGID_1_" gradientUnits="userSpaceOnUse" x1="73.6016" y1="-103.4004" x2="73.6016" y2="-160.4009" gradientTransform="matrix(1 0 0 -1 -41.6001 -99.9004)">
			<stop  offset="0" style="stop-color:#785548"/>
			<stop  offset="1" style="stop-color:#9F9E9F"/>
		</linearGradient>
		<polygon fill="url(#SVGID_1_)" points="10.649,60.5 10.649,3.5 53.355,3.5 53.355,44.446 37.479,60.5 		"/>
		<polygon fill="#795548" fill-opacity="0.7" points="53.355,44.469 53.355,43.778 36.447,43.778 36.447,60.5 37.324,60.5 		"/>
		<path opacity="0.39" fill="#FFFFFF" enable-background="new    " d="M37.301,44.469l16.055,0.022L37.324,60.5L37.301,44.469z"/>
	</g>
	<path fill="#FFFFFF" d="M25.909,14.488h-1.447v18.51H23.37v-18.51h-1.44v18.51h-1.091v-18.51h-1.44v18.51h-1.091v-18.51h-1.44
		v18.51H16.49v7.842h9.908v-7.842h-0.489V14.488z M24.958,38.561H17.93v-4.545h7.028V38.561z"/>
	<g>
		<rect x="10.638" y="3.5" opacity="0.8" fill="#FFFFFF" enable-background="new    " width="42.723" height="10.925"/>
		<g enable-background="new    ">
			<path fill="#5D4037" d="M21.837,11.575v1.646h-5.989V4.706h2.019v6.869H21.837z"/>
			<path fill="#5D4037" d="M29.686,6.033c-0.274,0.271-0.604,0.622-0.983,1.052c-0.382,0.428-0.771,0.898-1.176,1.406
				c-0.408,0.506-0.81,1.032-1.203,1.572c-0.4,0.542-0.753,1.058-1.064,1.549h4.568v1.608H22.78v-1.143
				c0.241-0.417,0.534-0.881,0.883-1.393c0.353-0.512,0.716-1.028,1.095-1.549c0.378-0.52,0.765-1.022,1.157-1.511
				c0.394-0.488,0.758-0.924,1.092-1.308h-4.023v-1.61h6.702V6.033z"/>
			<path fill="#5D4037" d="M39.631,8.957c0,0.729-0.115,1.371-0.34,1.924c-0.23,0.553-0.543,1.015-0.939,1.388
				s-0.869,0.653-1.418,0.84c-0.545,0.189-1.135,0.284-1.762,0.284c-0.617,0-1.191-0.095-1.738-0.284
				c-0.541-0.188-1.016-0.467-1.42-0.84s-0.724-0.835-0.954-1.388c-0.237-0.553-0.353-1.195-0.353-1.924
				c0-0.729,0.123-1.37,0.364-1.922s0.567-1.017,0.976-1.396c0.408-0.376,0.883-0.659,1.424-0.846
				c0.535-0.189,1.104-0.284,1.701-0.284c0.607,0,1.188,0.095,1.729,0.284c0.545,0.187,1.018,0.469,1.426,0.846
				c0.404,0.379,0.723,0.843,0.957,1.396C39.514,7.587,39.631,8.228,39.631,8.957z M32.789,8.957c0,0.417,0.055,0.796,0.162,1.13
				c0.107,0.338,0.26,0.625,0.469,0.867c0.199,0.243,0.445,0.428,0.742,0.56c0.289,0.13,0.631,0.197,1.01,0.197
				c0.371,0,0.705-0.067,1.002-0.197c0.297-0.132,0.545-0.317,0.748-0.56c0.201-0.241,0.357-0.529,0.465-0.867
				c0.107-0.334,0.162-0.712,0.162-1.13s-0.055-0.796-0.162-1.136c-0.107-0.339-0.264-0.631-0.465-0.872
				c-0.203-0.241-0.451-0.429-0.748-0.56c-0.297-0.13-0.631-0.197-1.002-0.197c-0.379,0-0.721,0.068-1.01,0.204
				c-0.297,0.135-0.543,0.323-0.742,0.564c-0.209,0.243-0.361,0.533-0.469,0.872C32.844,8.174,32.789,8.549,32.789,8.957z"/>
			<path fill="#5D4037" d="M44.004,4.608c1.336,0,2.359,0.224,3.076,0.669c0.715,0.447,1.072,1.178,1.072,2.193
				c0,1.024-0.361,1.763-1.084,2.217c-0.727,0.455-1.76,0.683-3.105,0.683h-0.635v2.85h-2.016V4.829
				c0.441-0.082,0.902-0.139,1.395-0.171C43.201,4.625,43.633,4.608,44.004,4.608z M44.129,6.242c-0.145,0-0.289,0.004-0.43,0.013
				c-0.141,0.007-0.268,0.015-0.371,0.024v2.457h0.635c0.701,0,1.225-0.089,1.576-0.271c0.357-0.18,0.535-0.516,0.535-1.008
				c0-0.237-0.049-0.432-0.141-0.588c-0.09-0.156-0.217-0.282-0.387-0.375c-0.168-0.095-0.371-0.16-0.615-0.197
				C44.693,6.261,44.426,6.242,44.129,6.242z"/>
		</g>
	</g>
</g>
</svg>
