<?xml version="1.0" encoding="utf-8"?>
<!-- Generator: Adobe Illustrator 16.0.0, SVG Export Plug-In . SVG Version: 6.00 Build 0)  -->
<!DOCTYPE svg PUBLIC "-//W3C//DTD SVG 1.1//EN" "http://www.w3.org/Graphics/SVG/1.1/DTD/svg11.dtd">
<svg version="1.1" id="图层_1" xmlns="http://www.w3.org/2000/svg" xmlns:xlink="http://www.w3.org/1999/xlink" x="0px" y="0px"
	 width="64px" height="64px" viewBox="0 0 64 64" enable-background="new 0 0 64 64" xml:space="preserve">
<polygon opacity="0.1" enable-background="new    " points="9.155,64 9.155,2 56.846,2 56.846,46.498 39.343,64 "/>
<polygon opacity="0.1" enable-background="new    " points="10.155,63 10.155,3 55.846,3 55.846,46.084 38.93,63 "/>
<polygon opacity="0.2" enable-background="new    " points="9.155,62 9.155,2 54.846,2 54.846,45.084 37.93,62 "/>
<polygon fill="#0D47A1" points="10.148,61 10.148,3 53.852,3 53.852,44.67 37.518,61 "/>
<g>
	<g>
		<g>
			<g>
				<linearGradient id="SVGID_1_" gradientUnits="userSpaceOnUse" x1="32.019" y1="60.5" x2="32.019" y2="3.5005">
					<stop  offset="0" style="stop-color:#3F51B5"/>
					<stop  offset="1" style="stop-color:#64B5F6"/>
				</linearGradient>
				<polygon fill="url(#SVGID_1_)" points="10.666,60.5 10.666,3.5 53.371,3.5 53.371,44.469 37.34,60.5 				"/>
			</g>
			<polygon fill="#2196F3" fill-opacity="0.7" points="53.371,44.469 53.371,43.778 36.461,43.778 36.461,60.5 37.34,60.5 			"/>
			<path opacity="0.39" fill="#FFFFFF" d="M37.317,44.469l16.058,0.022L37.34,60.5L37.317,44.469z"/>
		</g>
		<g opacity="0.8">
			<linearGradient id="SVGID_2_" gradientUnits="userSpaceOnUse" x1="16.9966" y1="22.9434" x2="47.0186" y2="22.9434">
				<stop  offset="0" style="stop-color:#F6F5F5"/>
				<stop  offset="0.341" style="stop-color:#F1F2F3"/>
				<stop  offset="0.6434" style="stop-color:#E7EAEB"/>
				<stop  offset="0.9302" style="stop-color:#D5DBDF"/>
				<stop  offset="1" style="stop-color:#CFD7DB"/>
			</linearGradient>
			<rect x="16.997" y="22.201" opacity="0.8" fill="url(#SVGID_2_)" enable-background="new    " width="30.022" height="1.484"/>
			<linearGradient id="SVGID_3_" gradientUnits="userSpaceOnUse" x1="16.9966" y1="18.3047" x2="47.0186" y2="18.3047">
				<stop  offset="0" style="stop-color:#F6F5F5"/>
				<stop  offset="0.341" style="stop-color:#F1F2F3"/>
				<stop  offset="0.6434" style="stop-color:#E7EAEB"/>
				<stop  offset="0.9302" style="stop-color:#D5DBDF"/>
				<stop  offset="1" style="stop-color:#CFD7DB"/>
			</linearGradient>
			<rect x="16.997" y="17.561" opacity="0.8" fill="url(#SVGID_3_)" enable-background="new    " width="30.022" height="1.488"/>
			<linearGradient id="SVGID_4_" gradientUnits="userSpaceOnUse" x1="31.3188" y1="34.4033" x2="46.9961" y2="34.4033">
				<stop  offset="0" style="stop-color:#F6F5F5"/>
				<stop  offset="0.341" style="stop-color:#F1F2F3"/>
				<stop  offset="0.6434" style="stop-color:#E7EAEB"/>
				<stop  offset="0.9302" style="stop-color:#D5DBDF"/>
				<stop  offset="1" style="stop-color:#CFD7DB"/>
			</linearGradient>
			<rect x="31.319" y="26.569" opacity="0.8" fill="url(#SVGID_4_)" enable-background="new    " width="15.677" height="15.669"/>
			<g opacity="0.8">
				<linearGradient id="SVGID_5_" gradientUnits="userSpaceOnUse" x1="16.9966" y1="27.582" x2="30.0371" y2="27.582">
					<stop  offset="0" style="stop-color:#F6F5F5"/>
					<stop  offset="0.341" style="stop-color:#F1F2F3"/>
					<stop  offset="0.6434" style="stop-color:#E7EAEB"/>
					<stop  offset="0.9302" style="stop-color:#D5DBDF"/>
					<stop  offset="1" style="stop-color:#CFD7DB"/>
				</linearGradient>
				<rect x="16.997" y="26.838" fill="url(#SVGID_5_)" width="13.041" height="1.488"/>
				<linearGradient id="SVGID_6_" gradientUnits="userSpaceOnUse" x1="16.9966" y1="32.2227" x2="30.0371" y2="32.2227">
					<stop  offset="0" style="stop-color:#F6F5F5"/>
					<stop  offset="0.341" style="stop-color:#F1F2F3"/>
					<stop  offset="0.6434" style="stop-color:#E7EAEB"/>
					<stop  offset="0.9302" style="stop-color:#D5DBDF"/>
					<stop  offset="1" style="stop-color:#CFD7DB"/>
				</linearGradient>
				<rect x="16.997" y="31.482" fill="url(#SVGID_6_)" width="13.041" height="1.48"/>
				<linearGradient id="SVGID_7_" gradientUnits="userSpaceOnUse" x1="16.9966" y1="36.8799" x2="30.0371" y2="36.8799">
					<stop  offset="0" style="stop-color:#F6F5F5"/>
					<stop  offset="0.341" style="stop-color:#F1F2F3"/>
					<stop  offset="0.6434" style="stop-color:#E7EAEB"/>
					<stop  offset="0.9302" style="stop-color:#D5DBDF"/>
					<stop  offset="1" style="stop-color:#CFD7DB"/>
				</linearGradient>
				<rect x="16.997" y="36.138" fill="url(#SVGID_7_)" width="13.041" height="1.484"/>
				<linearGradient id="SVGID_8_" gradientUnits="userSpaceOnUse" x1="16.9966" y1="41.5186" x2="30.0371" y2="41.5186">
					<stop  offset="0" style="stop-color:#F6F5F5"/>
					<stop  offset="0.341" style="stop-color:#F1F2F3"/>
					<stop  offset="0.6434" style="stop-color:#E7EAEB"/>
					<stop  offset="0.9302" style="stop-color:#D5DBDF"/>
					<stop  offset="1" style="stop-color:#CFD7DB"/>
				</linearGradient>
				<rect x="16.997" y="40.776" fill="url(#SVGID_8_)" width="13.041" height="1.484"/>
			</g>
		</g>
	</g>
	<g>
		<rect x="10.625" y="3.5" opacity="0.8" fill="#FFFFFF" width="42.728" height="10.925"/>
	</g>
	<g>
		<path fill="#1976D2" d="M23.393,4.595c1.345,0,2.375,0.228,3.091,0.683c0.716,0.455,1.074,1.162,1.074,2.119
			c0,0.598-0.145,1.083-0.434,1.457c-0.29,0.373-0.705,0.664-1.247,0.877c0.18,0.213,0.369,0.457,0.568,0.731
			c0.198,0.274,0.395,0.562,0.588,0.861c0.195,0.299,0.382,0.608,0.564,0.933c0.18,0.323,0.349,0.64,0.502,0.952h-2.254
			c-0.165-0.278-0.332-0.561-0.499-0.848c-0.169-0.286-0.343-0.564-0.52-0.835c-0.178-0.271-0.353-0.527-0.527-0.768
			c-0.172-0.241-0.345-0.46-0.518-0.657h-0.997v3.108h-2.017V4.815c0.439-0.082,0.894-0.139,1.364-0.17
			C22.602,4.611,23.023,4.595,23.393,4.595z M23.509,6.229c-0.146,0-0.278,0.003-0.393,0.013c-0.117,0.008-0.227,0.015-0.331,0.024
			v2.31h0.57c0.757,0,1.301-0.091,1.629-0.271c0.327-0.18,0.492-0.488,0.492-0.922c0-0.417-0.167-0.714-0.499-0.891
			S24.157,6.229,23.509,6.229z"/>
		<path fill="#1976D2" d="M35.915,4.693v1.635h-2.707v6.88h-2.017v-6.88h-2.703V4.693H35.915z"/>
		<path fill="#1976D2" d="M37.206,13.208V4.693h6.005v1.611h-3.985v1.781h3.54v1.608h-3.54v3.515H37.206z"/>
	</g>
</g>
</svg>
