<?xml version="1.0" encoding="utf-8"?>
<!-- Generator: Adobe Illustrator 21.0.0, SVG Export Plug-In . SVG Version: 6.00 Build 0)  -->
<svg version="1.1" id="图层_1" xmlns="http://www.w3.org/2000/svg" xmlns:xlink="http://www.w3.org/1999/xlink" x="0px" y="0px"
	 viewBox="0 0 64 64" style="enable-background:new 0 0 64 64;" xml:space="preserve">
<style type="text/css">
	.st0{opacity:0.1;enable-background:new    ;}
	.st1{opacity:0.2;enable-background:new    ;}
	.st2{fill:#3E2723;}
	.st3{fill:url(#SVGID_1_);}
	.st4{fill:#795548;fill-opacity:0.7;}
	.st5{opacity:0.39;fill:#FFFFFF;enable-background:new    ;}
	.st6{fill:#FFFFFF;}
	.st7{opacity:0.8;fill:#FFFFFF;enable-background:new    ;}
	.st8{enable-background:new    ;}
	.st9{fill:#5D4037;}
</style>
<polygon class="st0" points="9.2,64 9.2,2 56.8,2 56.8,46.5 39.3,64 "/>
<polygon class="st0" points="10.2,63 10.2,3 55.8,3 55.8,46.1 38.9,63 "/>
<polygon class="st1" points="9.2,62 9.2,2 54.8,2 54.8,45.1 37.9,62 "/>
<polygon class="st2" points="10.1,61 10.1,3 53.9,3 53.9,44.7 37.5,61 "/>
<g>
	<g>
		
			<linearGradient id="SVGID_1_" gradientUnits="userSpaceOnUse" x1="73.6001" y1="-805.4004" x2="73.6001" y2="-862.4004" gradientTransform="matrix(1 0 0 -1 -41.6001 -801.9004)">
			<stop  offset="0" style="stop-color:#785548"/>
			<stop  offset="1" style="stop-color:#9F9E9F"/>
		</linearGradient>
		<polygon class="st3" points="10.6,60.5 10.6,3.5 53.4,3.5 53.4,44.4 37.5,60.5 		"/>
		<polygon class="st4" points="53.4,44.5 53.4,43.8 36.4,43.8 36.4,60.5 37.3,60.5 		"/>
		<path class="st5" d="M37.3,44.5h16.1l-16,16L37.3,44.5z"/>
	</g>
	<path class="st6" d="M25.9,14.5h-1.4V33h-1.1V14.5H22V33h-1.1V14.5h-1.4V33h-1.1V14.5H17V33h-0.4v7.8h9.9V33H26
		C25.9,33,25.9,14.5,25.9,14.5z M25,38.6h-7V34h7V38.6z"/>
	<g>
		<rect x="10.6" y="3.5" class="st7" width="42.7" height="10.9"/>
		<g class="st8">
			<path class="st9" d="M21.2,13.3c-0.5,0-1,0-1.5,0s-1-0.1-1.5-0.2V4.8c0.4-0.1,0.9-0.1,1.4-0.2s1-0.1,1.4-0.1c0.6,0,1.1,0,1.6,0.1
				s0.9,0.2,1.2,0.4c0.3,0.2,0.6,0.4,0.8,0.7c0.2,0.3,0.3,0.7,0.3,1.1c0,0.7-0.3,1.2-1,1.6c0.6,0.2,1,0.5,1.2,0.8
				c0.2,0.4,0.3,0.8,0.3,1.2c0,0.9-0.3,1.6-1,2C23.6,13.1,22.6,13.3,21.2,13.3z M20.2,8h1c0.6,0,1.1-0.1,1.3-0.2
				c0.3-0.2,0.4-0.4,0.4-0.7c0-0.3-0.1-0.6-0.4-0.7s-0.7-0.2-1.2-0.2c-0.2,0-0.4,0-0.6,0s-0.4,0-0.5,0C20.2,6.2,20.2,8,20.2,8z
				 M20.2,9.5v2.2c0.1,0,0.3,0,0.5,0s0.4,0,0.6,0c0.6,0,1.1-0.1,1.5-0.2c0.4-0.2,0.6-0.5,0.6-0.9s-0.2-0.7-0.5-0.8
				c-0.3-0.2-0.8-0.3-1.3-0.3H20.2L20.2,9.5z"/>
			<path class="st9" d="M33.3,6c-0.3,0.3-0.6,0.6-1,1.1c-0.4,0.4-0.8,0.9-1.2,1.4c-0.4,0.5-0.8,1-1.2,1.6c-0.4,0.5-0.8,1.1-1.1,1.5
				h4.6v1.6h-7v-1.1c0.2-0.4,0.5-0.9,0.9-1.4c0.3-0.5,0.7-1,1.1-1.5s0.8-1,1.2-1.5c0.4-0.5,0.8-0.9,1.1-1.3h-4V4.7h6.7L33.3,6
				L33.3,6z"/>
			<path class="st9" d="M34.8,4.7h2v8.5h-2V4.7z"/>
			<path class="st9" d="M41.6,4.6c1.3,0,2.4,0.2,3.1,0.7c0.7,0.4,1.1,1.2,1.1,2.2s-0.4,1.8-1.1,2.2c-0.7,0.5-1.8,0.7-3.1,0.7H41v2.8
				h-2V4.8c0.4-0.1,0.9-0.1,1.4-0.2C40.8,4.6,41.2,4.6,41.6,4.6z M41.7,6.2c-0.1,0-0.3,0-0.4,0c-0.1,0-0.3,0-0.4,0v2.5h0.6
				c0.7,0,1.2-0.1,1.6-0.3c0.4-0.2,0.5-0.5,0.5-1c0-0.2,0-0.4-0.1-0.6s-0.2-0.3-0.4-0.4s-0.4-0.2-0.6-0.2C42.3,6.3,42,6.2,41.7,6.2z
				"/>
		</g>
	</g>
</g>
</svg>
