<?xml version="1.0" encoding="utf-8"?>
<!-- Generator: Adobe Illustrator 16.0.0, SVG Export Plug-In . SVG Version: 6.00 Build 0)  -->
<!DOCTYPE svg PUBLIC "-//W3C//DTD SVG 1.1//EN" "http://www.w3.org/Graphics/SVG/1.1/DTD/svg11.dtd">
<svg version="1.1" id="图层_1" xmlns="http://www.w3.org/2000/svg" xmlns:xlink="http://www.w3.org/1999/xlink" x="0px" y="0px"
	 width="64px" height="64px" viewBox="0 0 64 64" enable-background="new 0 0 64 64" xml:space="preserve">
<rect x="9.148" y="2" opacity="0.2" enable-background="new    " width="45.704" height="60"/>
<rect x="9.148" y="2" opacity="0.08" enable-background="new    " width="47.704" height="62"/>
<rect x="10.148" y="3" opacity="0.1" enable-background="new    " width="45.704" height="60"/>
<rect x="10.148" y="3" fill="#1B5E20" width="43.704" height="58"/>
<g>
	
		<linearGradient id="SVGID_1_" gradientUnits="userSpaceOnUse" x1="115.1992" y1="885.3008" x2="115.1992" y2="828.3008" gradientTransform="matrix(1 0 0 1 -83.2002 -824.8008)">
		<stop  offset="0" style="stop-color:#388E3C"/>
		<stop  offset="0.0757" style="stop-color:#43953E"/>
		<stop  offset="0.3246" style="stop-color:#62A943"/>
		<stop  offset="0.5665" style="stop-color:#79B747"/>
		<stop  offset="0.796" style="stop-color:#86C049"/>
		<stop  offset="1" style="stop-color:#8BC34A"/>
	</linearGradient>
	<rect x="10.647" y="3.5" fill="url(#SVGID_1_)" width="42.705" height="57"/>
	<path opacity="0.8" fill="#FFFFFF" enable-background="new    " d="M33.091,21.602v-0.048h-2.182v0.048H16.8v27.505h30.4V21.602
		H33.091z M18.985,29.77h6.788v4.394h-6.788V29.77z M18.985,36.353h6.788v4.395h-6.788V36.353z M28.033,36.353h16.981v4.395H28.033
		V36.353z M28.033,34.163V29.77h16.981v4.394H28.033z M45.015,23.813v3.774H28.033v-3.774H45.015z M25.773,23.813v3.774h-6.788
		v-3.774H25.773z M18.985,42.955h6.788v3.944h-6.788V42.955z M28.033,46.899v-3.944h16.981v3.944H28.033z"/>
	<g>
		<rect x="10.636" y="3.5" opacity="0.8" fill="#FFFFFF" width="42.729" height="10.925"/>
	</g>
	<g>
		<path fill="#388E3C" d="M28.875,8.896c0,0.728-0.111,1.37-0.341,1.922c-0.23,0.553-0.542,1.017-0.936,1.388
			c-0.4,0.371-0.872,0.653-1.417,0.838c-0.55,0.193-1.136,0.286-1.767,0.286c-0.612,0-1.188-0.093-1.733-0.286
			c-0.545-0.186-1.017-0.467-1.421-0.838c-0.408-0.371-0.728-0.835-0.958-1.388c-0.233-0.553-0.349-1.195-0.349-1.922
			c0-0.731,0.119-1.373,0.364-1.922c0.237-0.557,0.563-1.017,0.972-1.396s0.884-0.661,1.425-0.846
			c0.538-0.193,1.106-0.286,1.7-0.286c0.612,0,1.188,0.093,1.732,0.286c0.546,0.186,1.018,0.468,1.422,0.846
			c0.408,0.378,0.728,0.839,0.957,1.396C28.761,7.522,28.875,8.165,28.875,8.896z M22.036,8.896c0,0.416,0.056,0.794,0.159,1.128
			c0.111,0.337,0.264,0.624,0.468,0.868c0.2,0.241,0.449,0.427,0.742,0.557c0.293,0.134,0.631,0.201,1.01,0.201
			c0.371,0,0.705-0.067,1.002-0.201c0.297-0.13,0.549-0.315,0.749-0.557c0.204-0.245,0.356-0.531,0.468-0.868
			c0.104-0.334,0.16-0.712,0.16-1.128c0-0.419-0.056-0.798-0.16-1.135c-0.111-0.341-0.264-0.631-0.468-0.876
			c-0.2-0.237-0.452-0.427-0.749-0.557c-0.297-0.133-0.631-0.2-1.002-0.2c-0.379,0-0.717,0.07-1.01,0.208
			c-0.293,0.134-0.542,0.319-0.742,0.564c-0.204,0.241-0.356,0.53-0.468,0.868C22.092,8.109,22.036,8.487,22.036,8.896z"/>
		<path fill="#388E3C" d="M36.906,4.643v1.633h-2.702v6.88h-2.019v-6.88h-2.701V4.643H36.906z"/>
		<path fill="#388E3C" d="M40.646,11.694c0.282,0,0.52-0.022,0.705-0.067s0.334-0.104,0.445-0.186
			c0.111-0.074,0.193-0.167,0.23-0.274c0.044-0.104,0.066-0.223,0.066-0.356c0-0.278-0.134-0.512-0.416-0.694
			c-0.274-0.182-0.749-0.382-1.417-0.598c-0.297-0.096-0.587-0.208-0.884-0.334c-0.289-0.126-0.557-0.29-0.786-0.482
			C38.36,8.51,38.168,8.28,38.02,8.005c-0.148-0.274-0.216-0.608-0.216-1.002c0-0.393,0.074-0.75,0.23-1.061
			c0.155-0.319,0.378-0.586,0.66-0.809c0.282-0.219,0.631-0.39,1.032-0.508c0.408-0.119,0.86-0.178,1.373-0.178
			c0.601,0,1.128,0.063,1.565,0.186c0.438,0.123,0.802,0.256,1.084,0.404L43.17,6.55c-0.252-0.126-0.527-0.234-0.839-0.327
			c-0.304-0.096-0.675-0.141-1.105-0.141c-0.482,0-0.824,0.059-1.039,0.189c-0.208,0.126-0.319,0.323-0.319,0.583
			c0,0.156,0.045,0.29,0.119,0.394c0.081,0.104,0.186,0.2,0.334,0.29c0.141,0.085,0.304,0.163,0.489,0.23
			c0.186,0.074,0.386,0.145,0.616,0.215c0.46,0.167,0.868,0.327,1.21,0.49c0.349,0.156,0.631,0.341,0.86,0.557
			c0.23,0.215,0.401,0.464,0.513,0.75c0.111,0.29,0.171,0.635,0.171,1.046c0,0.794-0.297,1.41-0.884,1.848
			c-0.586,0.438-1.47,0.657-2.649,0.657c-0.394,0-0.757-0.026-1.076-0.07s-0.602-0.097-0.846-0.163
			c-0.245-0.067-0.453-0.134-0.631-0.208c-0.179-0.074-0.327-0.145-0.445-0.208l0.563-1.525c0.268,0.137,0.602,0.263,0.995,0.375
			C39.6,11.642,40.075,11.694,40.646,11.694z"/>
	</g>
</g>
</svg>
