<?xml version="1.0" encoding="utf-8"?>
<!-- Generator: Adobe Illustrator 16.0.0, SVG Export Plug-In . SVG Version: 6.00 Build 0)  -->
<!DOCTYPE svg PUBLIC "-//W3C//DTD SVG 1.1//EN" "http://www.w3.org/Graphics/SVG/1.1/DTD/svg11.dtd">
<svg version="1.1" id="图层_1" xmlns="http://www.w3.org/2000/svg" xmlns:xlink="http://www.w3.org/1999/xlink" x="0px" y="0px"
	 width="64px" height="64px" viewBox="0 0 64 64" enable-background="new 0 0 64 64" xml:space="preserve">
<polygon opacity="0.1" enable-background="new    " points="9.155,64 9.155,2 56.846,2 56.846,46.498 39.343,64 "/>
<polygon opacity="0.1" enable-background="new    " points="10.155,63 10.155,3 55.846,3 55.846,46.084 38.93,63 "/>
<polygon opacity="0.2" enable-background="new    " points="9.155,62 9.155,2 54.846,2 54.846,45.084 37.93,62 "/>
<polygon fill="#0D47A1" points="10.148,61 10.148,3 53.852,3 53.852,44.672 37.516,61 "/>
<g>
	<g>
		<g>
			<g>
				
					<linearGradient id="SVGID_1_" gradientUnits="userSpaceOnUse" x1="115.1992" y1="885.3008" x2="115.1992" y2="828.3008" gradientTransform="matrix(1 0 0 1 -83.2002 -824.8008)">
					<stop  offset="0" style="stop-color:#1976D2"/>
					<stop  offset="0.0226" style="stop-color:#1C79D3"/>
					<stop  offset="0.2859" style="stop-color:#3B93E2"/>
					<stop  offset="0.5416" style="stop-color:#52A6ED"/>
					<stop  offset="0.7843" style="stop-color:#5FB1F4"/>
					<stop  offset="1" style="stop-color:#64B5F6"/>
				</linearGradient>
				<polygon fill="url(#SVGID_1_)" points="10.647,60.5 10.647,3.5 53.353,3.5 53.353,44.469 37.321,60.5 				"/>
			</g>
			<polygon fill="#0D47A1" fill-opacity="0.39" points="53.353,44.469 53.353,43.778 36.442,43.778 36.442,60.5 37.321,60.5 			"/>
			<path fill="#FFFFFF" fill-opacity="0.45" d="M37.299,44.469l16.058,0.022L37.321,60.5L37.299,44.469z"/>
		</g>
		<g>
			<path fill="#64B5F6" d="M45.267,30.131C45.267,37.455,39.321,43.4,32,43.4c-7.325,0-13.271-5.945-13.271-13.269
				c0-7.321,5.945-13.267,13.271-13.267C39.321,16.865,45.267,22.81,45.267,30.131z"/>
			<path fill="#FFFFFF" fill-opacity="0.8" d="M23.294,20.136c0,0,0.274,0.145,0.382,0.378c0.086,0.232,0.383,0.232,0.383,0.232
				h0.423l0.62-0.189l-0.152,0.338c0,0-3.243,1.507-2.591,2.399c0.661,0.893,0.424,1.125,0.424,1.403
				c0,0.275,0.192,0.041,0.192,0.041l0.193-0.507l0.274-0.38l0.278-0.428l0.085-0.234l0.379-0.655l0.468-0.274l0.427,0.274
				c0,0,0.189,0.082,0.145,0.23c-0.037,0.15-0.082,0.425-0.082,0.425s0.082,0.195,0.23,0.195c0.152,0,0.386-0.15,0.386-0.15
				l0.193,0.339L26.1,24.19l0.378,0.38l0.193,0.425l-0.193,0.38l0.193,0.15l0.427,0.467l0.082,0.232l-0.702-0.041
				c0,0-0.081-0.195-0.229-0.195s-0.742-0.043-0.742-0.043l-0.346,0.087l-0.186,0.23c0,0-0.233,0.382-0.386,0.382
				c-0.145,0-0.505-0.082-0.505-0.082s-0.278-0.085-0.427,0.189c-0.148,0.278,0.23,0.425,0.23,0.425l-0.657,0.193l-0.192,0.085
				c0,0-0.468,0.191-0.468,0.339c0,0.15,0,0.15,0,0.15l-0.145,0.38v0.232l-0.342,0.278l-0.341,0.23l-0.146,0.278v0.468
				c0,0-0.044,0.232-0.044,0.382c0,0.148,0,0.509,0,0.509s-0.152,0.15-0.234-0.148c-0.085-0.277-0.085-0.277-0.085-0.277
				l-0.148-0.343c0,0,0.148-0.039-0.041-0.189c-0.192-0.145-0.386-0.189-0.386-0.189s-0.082-0.082-0.274-0.082
				c-0.189,0,0.233,0.039-0.189,0c-0.427-0.044-0.427-0.044-0.427-0.044l-0.342,0.274v0.23c0,0-0.077,1.659,0.387,1.893h0.192
				l0.274-0.425l0.234,0.085v0.191l-0.045,0.343v0.189l0.23,0.236l0.152,0.425c0.192,0.337,0.081,0.423,0.229,0.505
				c0.148,0.085,0.278,0.343,0.278,0.343l0.189,0.082c0,0,0.148,0.044,0.274,0.085c0.152,0.045,0.152,0.045,0.152,0.045l0.048,0.211
				l0.045,0.171l0.186,0.23c0,0-0.145,0,0.193,0c0.341,0,0.341,0,0.341,0s0,0.089,0.234,0.196c0.233,0.078,0.048,0.045,0.233,0.078
				c0.193,0.049,0.509,0.086,0.509,0.086c0.337-0.041,0.337-0.041,0.337-0.041l0.238,0.341c0,0,0.145,0,0.186,0.146
				c0.044,0.151-0.23,0,0.044,0.151c0.278,0.148,0,0.045,0.278,0.148c0.274,0.108-0.089,0.085,0.271,0.085
				c0.359,0,0.423,0,0.575,0.041c0.148,0.041,0.233,0.387,0.233,0.387c0.274,0.338,0.274,0.338,0.274,0.338l0.045,0.422
				c0,0-0.148,0.086,0.189,0.086c0.345,0,0.085,0,0.345,0c0.252,0-0.045-0.086,0.23,0c0.274,0.082,0.274,0.082,0.274,0.082
				s0.423,0.345,0.575,0.345c0.148,0,0.427-0.048,0.575,0c0.148,0.041,0.23,0.271,0.505,0.338c0.278,0.044,0.382,0,0.571,0.148
				c0.196,0.148,0.196,0.148,0.196,0.148l0.041,0.505l-0.148,0.277l-0.382,0.148l-0.045,0.472l-0.196,0.472v0.227
				c0,0,0.237,0.196-0.186,0.237c-0.423,0.037-0.423,0.037-0.423,0.037l-0.193,0.192c0,0,0,0.049-0.085,0.193
				c-0.082,0.145-0.189,0.386-0.189,0.386l0.044,0.423v0.275l-0.148,0.229c0,0-0.133,0.067,0.23,0.301
				c0.379,0.229,0.676,0.229,0.765,0.375c0.081,0.155,0.319,0.282,0.319,0.282l-0.513-0.107l-0.319-0.108l-0.526-0.145l-1.021-0.53
				c0,0-1.529-1.255-2.001-2.268c0,0-0.396-0.598-1.076-0.85c0,0-1.681-1.533-1.829-1.915l-0.063-0.257v-0.125l-0.066-0.067v-0.145
				l-0.037-0.108l0.022-0.471l0.022-0.315l0.019-0.171l-0.019-0.126c0,0-0.09-0.081-0.09-0.104c0-0.018-0.063-0.215-0.063-0.215
				l-0.019-0.059l0.252-0.216l-0.066-0.192l0.044-0.108l0.148-0.104c0,0,0.086-0.126,0.086-0.148c0-0.041-0.148-0.148-0.148-0.148
				l-0.063,0.022l-0.066,0.192h-0.082c0,0-0.085-0.044-0.085-0.066s-0.082-0.104-0.082-0.104l-0.107-0.044
				c0,0-0.085-0.022-0.104-0.063c-0.026-0.041-0.134-0.104-0.134-0.13c0-0.019-0.082-0.148-0.082-0.148l-0.104-0.037
				c0,0-0.134-0.192-0.134-0.235c0-0.019-0.063-0.125-0.063-0.125s-0.148-0.17-0.148-0.192c0-0.021-0.063-0.171-0.063-0.171h-0.104
				l-0.233-0.089l-0.152-0.186l-0.167-0.192c0,0-0.085-0.151-0.085-0.192c0-0.044-0.067-0.085-0.067-0.085H19.62h-0.06l-0.148-0.126
				l-0.382-0.529l-0.07-0.235l-0.06-0.256l-0.045-0.425v-0.276l-0.171-1.973C18.752,28.452,19.323,23.569,23.294,20.136z"/>
			<path fill="#FFFFFF" fill-opacity="0.8" d="M38.286,18.474l0.427,0.343l0.212,0.106l0.145,0.168l0.026,0.171
				c0,0,0.04,0.171,0.021,0.213c-0.021,0.044-0.048,0.274-0.048,0.274s0.193,0.343,0.193,0.386c0,0.039,0.021,0.23-0.019,0.274
				c-0.045,0.021-0.278,0.169-0.301,0.104c-0.019-0.065-0.167-0.213-0.212-0.213c-0.044-0.024-0.171-0.148-0.171-0.148l0.342-0.046
				l-0.045-0.213c0,0-0.229-0.082-0.297-0.082c-0.063-0.019-0.3-0.145-0.3-0.145l-0.253-0.065c0,0-0.423-0.105-0.468-0.13
				c-0.04-0.02-0.215-0.082-0.215-0.082h-0.356c0,0-0.174,0.082-0.215,0.126c-0.019,0.044-0.234,0.276-0.234,0.276
				s-0.019,0.274-0.019,0.317c0,0.044-0.063,0.152-0.063,0.276c0,0.128-0.026,0.299-0.026,0.343s0,0.105,0,0.105l-0.041,0.186
				l-0.148,0.089l-0.188,0.15c0,0-0.167,0.124-0.167,0.168c0,0.045,0,0.213,0.063,0.34c0.06,0.126,0.041,0.25,0.123,0.315
				c0.085,0.065,0.126,0.148,0.192,0.174c0.067,0.019,0.019,0.039,0.126,0.039c0.086,0,0.171,0.026,0.212-0.021
				c0.045-0.019,0.152-0.019,0.196-0.083c0.041-0.065-0.044-0.022,0.041-0.065c0.082-0.021,0.082-0.082,0.152-0.021
				c0.082,0.063,0.148,0.15,0.167,0.189c0.022,0.044,0.085,0.15,0.152,0.215c0.081,0.044,0.148,0.213,0.148,0.213l0.126,0.13
				c0,0,0.019,0.019,0.104,0.019c0.086,0,0.212-0.019,0.212-0.019l0.048-0.085c0,0,0.078,0.022,0.104-0.021
				c0.022-0.044,0.022-0.106,0.022-0.106s-0.049-0.13-0.082-0.168c-0.026-0.045-0.07-0.15-0.07-0.15l0.025-0.148l0.078-0.087
				l0.026-0.104v-0.131l-0.093-0.045l-0.148-0.085c0,0-0.082,0.02-0.082-0.085c-0.022-0.083-0.022-0.083-0.022-0.083L37.5,21.513
				l-0.13-0.066l0.148-0.106c0.085-0.145,0.107-0.189,0.107-0.23c0-0.041-0.022-0.171-0.022-0.171s-0.085-0.022-0.085-0.13
				C37.5,20.706,37.5,20.641,37.5,20.641l0.019-0.082c0,0,0.021-0.067,0.085-0.067c0.045,0,0.126,0.067,0.171,0.067
				c0.041,0,0.122,0.021,0.122,0.021s0.045,0.017,0.045,0.085c0,0.041-0.019,0.145-0.019,0.145l0.081-0.124v0.15l-0.021,0.169v0.169
				l0.085,0.171l0.082,0.13c0,0,0.104,0.104,0.151,0.148c0.049,0.017,0.152,0.102,0.152,0.102l0.126,0.065l0.082,0.02l0.085-0.085
				c0,0,0.152,0.02,0.152-0.024c0.022-0.044,0.022-0.044,0.022-0.044s0.171-0.019,0.215-0.019c0.041,0,0.127,0,0.127,0
				s0.063,0.125,0.021,0.125c-0.044,0-0.066,0.044-0.174,0.085c-0.107,0.021-0.148,0-0.167,0.043
				c-0.022,0.044-0.086,0.152-0.086,0.152l0.086,0.022h0.06l0.089,0.085c0,0,0.019,0.019,0,0.082
				c-0.026,0.063,0.078,0.044-0.026,0.063c-0.122,0.026-0.186-0.019-0.186-0.019s-0.022-0.107-0.089-0.061
				c-0.045,0.044-0.066,0.148-0.066,0.148v0.146l0.089,0.213c0,0,0.037,0.044,0,0.069c-0.041,0.019-0.189,0.187-0.189,0.187
				s-0.026,0.062-0.089,0.062c-0.037,0-0.101,0-0.216,0.022c-0.077,0.021-0.077,0.021-0.163,0.045
				c-0.085,0.02-0.148,0.037-0.278,0.061c-0.126,0.021-0.359,0.021-0.438,0.021c-0.089,0-0.107,0-0.156-0.021
				c-0.041-0.024-0.022,0-0.081-0.085c-0.063-0.085-0.13-0.148-0.13-0.213c0-0.044,0-0.063-0.026-0.15
				c-0.019-0.082-0.019-0.145-0.078-0.145c-0.089,0-0.089,0-0.089,0s-0.163,0.128-0.145,0.171c0.019,0.042-0.019,0,0.126,0.104
				c0.145,0.106,0.193,0.256,0.193,0.256l-0.026,0.148l-0.274,0.15l-0.189,0.061l-0.022,0.128c0,0,0,0.044-0.041,0.106
				c-0.044,0.061-0.151,0.148-0.151,0.148s-0.086,0.021-0.104,0.085c-0.022,0.044-0.085,0.209-0.085,0.209s-0.086-0.021-0.171,0.044
				c-0.082,0.065,0.022,0.065-0.171,0.15c-0.189,0.082-0.189,0.082-0.189,0.082l-0.215-0.017l-0.126,0.041
				c0,0-0.167,0.02-0.189,0.065c-0.022,0.042-0.107,0.168-0.107,0.168s-0.041,0.085,0,0.085c0.044,0.019,0.107,0,0.211,0.019
				c0.086,0.026,0.108,0.026,0.175,0.065c0.063,0.026,0.126,0.087,0.126,0.087l0.23,0.208l0.134,0.277l-0.026,0.213l-0.252,0.085
				c0,0-0.148,0-0.212,0c-0.048,0-0.029,0-0.278,0c-0.252,0-0.297,0-0.342,0c-0.044,0-0.211-0.024-0.211-0.024l-0.148,0.024
				l-0.107,0.085l-0.063,0.021c0,0,0.089,0.191,0.089,0.254c0,0.065,0,0.146,0,0.146l-0.025,0.133l-0.063,0.148l-0.085,0.147
				l0.025,0.083c0,0-0.025,0.065,0.022,0.065c0.041,0,0.163-0.021,0.163,0.024c0,0.041-0.1,0.213-0.1,0.213l0.215,0.041
				c0,0-0.022-0.019,0.101,0.024c0.126,0.013,0.211,0.058,0.211,0.058l0.145,0.104l0.049,0.087l0.044-0.087
				c0,0,0.23-0.019,0.271-0.043c0.048-0.019,0.152-0.019,0.152-0.019h0.188c0,0,0.045,0.019,0.086-0.026
				c0.019-0.037,0.019-0.037,0.019-0.037s0.215-0.083,0.256-0.128c0.045-0.021,0.063-0.15,0.063-0.15s0.066-0.041,0.066-0.082
				c0-0.041-0.045-0.148-0.045-0.148v-0.089l0.063-0.082c0,0,0.022-0.024,0.085-0.085c0.067-0.065,0.067-0.065,0.067-0.065
				s-0.026-0.019,0.06-0.063c0.089-0.024,0.151-0.085,0.192-0.085s-0.041,0.045,0.041,0c0.085-0.044,0.107-0.082,0.107-0.148
				c0-0.042,0.026-0.276,0.026-0.276l0.078-0.126l0.211,0.021l0.111,0.024c0,0,0.126,0.021,0.145-0.024
				c0.022-0.043,0.086-0.082,0.086-0.082l0.171-0.087c0,0-0.019-0.021,0.066-0.021c0.082,0,0.212,0,0.278,0c0.041,0,0.145,0,0.145,0
				s0.086,0.041,0.126,0.082c0.022,0.043,0.086,0.148,0.086,0.148l0.066,0.085h0.063c0.085,0.065,0.122,0.109,0.274,0.148
				c0.148,0.046,0.256,0.085,0.256,0.085s0.041,0.085,0.078,0.126c0.045,0.044,0.085,0.085,0.148,0.13
				c0.045,0.019,0.085,0.063,0.107,0.106c0.026,0.042,0.089,0.128,0.089,0.128l0.078,0.085l0.049-0.085v-0.15l-0.019-0.082
				c0,0-0.086-0.063,0.019-0.063c0.085,0,0.151,0,0.151,0l-0.085-0.13l-0.107-0.043l-0.145-0.107l-0.067-0.063l-0.066-0.021
				l-0.063-0.042l-0.085-0.063c0,0-0.145-0.024-0.145-0.085c-0.026-0.043-0.026-0.043-0.026-0.043l-0.148-0.022
				c0,0-0.145-0.083-0.145-0.125c0-0.044-0.026-0.174-0.026-0.174L38.35,25.25c0,0,0.019-0.083,0.019-0.148
				c0-0.045,0.044-0.106,0.044-0.106l0.275-0.021l0.059,0.146l0.104,0.063l0.152,0.065l0.063,0.085l0.07,0.065
				c0,0,0.022,0.019,0.104,0.045c0.081,0.02,0.145,0.039,0.145,0.039s0.089,0.085,0.152,0.085c0.063,0.022,0.085,0.044,0.152,0.067
				c-0.049,0.039-0.049,0.039-0.049,0.039s0.022,0.044,0.086,0.085c0.063,0.041,0.126,0.126,0.126,0.17
				c0,0.043,0.044,0.189,0.085,0.213c0.041,0.021,0.063,0.021,0.148,0.104c0.078,0.082,0.078,0.171,0.145,0.215
				c0.086,0.021,0.148,0,0.148,0.082c0.026,0.085,0.026,0.148,0.026,0.148s0.066,0.024,0.104,0.024c0.041,0,0.127-0.083,0.127-0.083
				s0.089-0.13,0.025-0.154c-0.041-0.021-0.148-0.021-0.148-0.065c0-0.042,0-0.274,0-0.274l0.063-0.15l0.085-0.125l0.126,0.039
				l0.127-0.08l0.13,0.148l-0.041,0.167c0,0,0.019,0.105,0.078,0.189c0.048,0.085,0.148,0.195,0.148,0.195l0.215,0.193l0.301,0.082
				l0.066-0.021l0.441-0.085c0,0,0.067,0,0.104,0c0.044,0,0.256,0.362,0.256,0.362s0,0.148,0,0.23c0,0.085,0,0.299,0,0.299
				s-0.148,0.148-0.212,0.148c-0.066,0-0.233,0.082-0.233,0.082l-0.356,0.087l-0.233-0.022l-0.423-0.022
				c0,0-0.427-0.022-0.472-0.022s-0.193,0-0.233,0c-0.041,0-0.104,0.044-0.146,0.171c-0.048,0.126-0.13,0.168-0.13,0.168
				s0,0.065-0.081,0.065c-0.089,0-0.089,0.024-0.152-0.02c-0.063-0.045-0.36-0.106-0.36-0.106l-0.278-0.189l-0.151-0.126
				l-0.148-0.019h-0.424l-0.278-0.026l0.049-0.443l0.041,0.126l-0.09-0.297l-0.126-0.083l-0.297-0.065l-0.189,0.021l-0.248,0.065
				l-0.26,0.083l-0.152,0.044l-0.716,0.125l-0.26,0.107c0,0-0.108,0.063-0.146,0.083c-0.04,0.021-0.215,0.021-0.215,0.021
				s-0.126-0.021-0.189-0.041c-0.063-0.019-0.215-0.019-0.278-0.019c-0.063,0-0.192-0.022-0.233,0
				c-0.041,0.019-0.086,0.019-0.126,0.083c-0.045,0.065-0.193,0.234-0.193,0.234s-0.078,0.085-0.126,0.126
				c-0.019,0.041-0.126,0.169-0.126,0.169l-0.171,0.276l-0.107,0.13l0.025,0.148v0.106c0,0-0.066,0.063-0.104,0.085
				c-0.049,0.019-0.134,0.065-0.134,0.065s-0.063,0.019-0.126,0.08c-0.06,0.044-0.06,0.069-0.104,0.106
				c-0.048,0.044-0.196,0.148-0.196,0.148s-0.082,0.065-0.145,0.13c-0.041,0.065-0.13,0.146-0.148,0.191
				c-0.022,0.044-0.089,0.083-0.134,0.104c-0.033,0.024-0.126,0.195-0.141,0.239c-0.022,0.035-0.152,0.23-0.152,0.23l-0.086,0.36
				l-0.019,0.168c0,0,0.019,0.065,0.063,0.106s0.085,0.215,0.085,0.215v0.148c0,0-0.044,0.126-0.066,0.17
				c-0.019,0.041,0.022,0.254,0.022,0.254v0.126c0,0,0,0.045-0.063,0.104c-0.066,0.065-0.085,0.15-0.085,0.15l0.085,0.193
				l0.063,0.126v0.085l0.081,0.145c0,0,0.045,0.047,0.086,0.087c0.044,0.022,0.066,0.022,0.155,0.087
				c0.082,0.041,0.082,0.041,0.082,0.041s0.13,0.148,0.13,0.214c0,0.044,0.082,0.13,0.082,0.13l0.148,0.148
				c0,0,0.025,0.082,0.104,0.146c0.085,0.066,0.175,0.105,0.215,0.148c0.045,0.021,0.167,0.126,0.275,0.146
				c0.085,0.022,0.13,0.045,0.174,0.045c0.037,0-0.066-0.131,0.23,0.02c0.301,0.15,0.489,0.214,0.489,0.214l0.216,0.085
				c0,0,0.345,0.022,0.378-0.021c0.041-0.022,0.104-0.022,0.146-0.022c0.04,0,0.151,0,0.237,0c0.081,0,0.378-0.045,0.378-0.045
				l0.338-0.124c0,0,0.107-0.064,0.152-0.086c0.045-0.02,0.167-0.104,0.215-0.124c0.045-0.026,0.253-0.026,0.253-0.026
				s0-0.063,0.085,0c0.086,0.065,0.086,0.086,0.107,0.131c0.026,0.044,0.026,0.15,0.086,0.15c0.063,0.02,0.211,0.063,0.211,0.063
				s0.216-0.021,0.275,0c0.07,0.021,0.215,0.021,0.215,0.021l0.066,0.085l0.019,0.193v0.171c0,0-0.019,0.066,0,0.126
				c0.022,0.06,0.09,0.171,0.09,0.171s-0.09,0.126-0.134,0.145c-0.049,0.019-0.148,0.148-0.148,0.148l0.297,0.274l0.171,0.171
				l0.13,0.152c0,0,0.021,0.063,0.021,0.104c0,0.041-0.021,0.148,0,0.212c0.019,0.048,0.019,0.215,0.019,0.215
				s0.022,0.127,0.022,0.171s-0.041,0.253-0.041,0.253l-0.021,0.148l-0.093,0.256l-0.101,0.126l-0.152,0.148l-0.104,0.171
				l-0.019,0.229l-0.089,0.146c0,0,0.025,0.133,0.025,0.196s0.126,0.297,0.126,0.297l-0.021,0.192c0,0-0.082,0.279-0.082,0.342
				c0,0.066-0.066,0.148-0.066,0.215c0,0.041-0.022,0.23-0.022,0.23l0.022,0.234l0.077,0.229l-0.077,0.216
				c0,0-0.045,0.166-0.045,0.273c0,0.082,0.152,0.189,0.193,0.189c0.044,0,0.233-0.021,0.322-0.081
				c0.078-0.045,0.29-0.104,0.338-0.13c0.045-0.022,0.085,0.025,0.212-0.082c0.126-0.085,0.318-0.23,0.318-0.23
				s0.152-0.107,0.216-0.148c0.037-0.048,0.248-0.285,0.248-0.285s0.148-0.145,0.253-0.211c0.107-0.067,0-0.02,0.107-0.078
				c0.104-0.063,0.441-0.346,0.441-0.346l0.346-0.338c0,0,0.297-0.382,0.341-0.445c0.045-0.07,0.315-0.426,0.36-0.452
				c0.041-0.019,0.423-0.271,0.508-0.338c0.082-0.067,0.193-0.513,0.23-0.575c0.041-0.041,0.278-0.571,0.278-0.571l0.215-0.616
				l0.356-0.916l0.36-0.639c0,0,0.145-0.277,0.211-0.358c0.045-0.085,0.387-0.744,0.387-0.744l0.13-0.547l0.04-0.467h-0.211
				l-0.237,0.213l-0.216-0.065l-0.208,0.024l0.238-0.299l-0.067-0.23l-0.189-0.15l-0.256-0.38v-0.384l-0.274-0.443l-0.171-0.702
				c0,0-0.319-0.343-0.274-0.423c0.019-0.087,0.104-0.343,0.104-0.343l0.171,0.083c0,0,0.126,0.339,0.189,0.36
				c0.07,0.021,0.148,0.191,0.175,0.23c0.021,0.046,0.04,0.195,0.081,0.236c0.022,0.041,0.167,0.319,0.167,0.319
				s0.107,0.275,0.13,0.34c0.022,0.044,0.126,0.215,0.152,0.339c0.022,0.13,0.082,0.531,0.082,0.575
				c0,0.043,0.104,0.488,0.104,0.488s0.148-0.041,0.167-0.08c0.026-0.046,0.026-0.065,0.07-0.107
				c0.022-0.043,0.274-0.234,0.274-0.234l0.108-0.339c0,0,0.066-0.148,0.077-0.213c0.026-0.065,0.152-0.299,0.152-0.34
				c0-0.044-0.019-0.215,0-0.28c0.022-0.039,0.086-0.295,0.086-0.337c0-0.044,0.019-0.215,0.019-0.215l-0.019-0.38L45.2,28.79
				l0.085-0.234C45.248,28.479,44.632,21.81,38.286,18.474z"/>
		</g>
	</g>
	<g>
		<rect x="10.636" y="3.5" opacity="0.8" fill="#FFFFFF" enable-background="new    " width="42.729" height="10.925"/>
		<g enable-background="new    ">
			<path fill="#1976D2" d="M28.089,8.894c0,0.729-0.115,1.371-0.342,1.924c-0.229,0.553-0.542,1.017-0.938,1.388
				c-0.397,0.371-0.869,0.653-1.418,0.838c-0.546,0.193-1.136,0.286-1.763,0.286c-0.612,0-1.191-0.093-1.733-0.286
				c-0.545-0.186-1.017-0.467-1.425-0.838c-0.404-0.371-0.724-0.835-0.953-1.388c-0.234-0.553-0.353-1.195-0.353-1.924
				c0-0.729,0.122-1.37,0.363-1.922c0.241-0.553,0.567-1.017,0.976-1.396c0.412-0.376,0.884-0.659,1.426-0.846
				c0.538-0.189,1.102-0.284,1.699-0.284c0.612,0,1.188,0.095,1.733,0.284c0.541,0.188,1.017,0.47,1.421,0.846
				c0.404,0.378,0.724,0.842,0.958,1.396C27.974,7.524,28.089,8.165,28.089,8.894z M21.249,8.894c0,0.417,0.052,0.796,0.16,1.13
				c0.107,0.337,0.263,0.625,0.467,0.866c0.201,0.243,0.449,0.429,0.742,0.559c0.294,0.134,0.631,0.201,1.01,0.201
				c0.371,0,0.705-0.067,1.002-0.201c0.297-0.13,0.546-0.315,0.75-0.559c0.204-0.241,0.355-0.529,0.464-0.866
				c0.107-0.334,0.163-0.712,0.163-1.13s-0.056-0.796-0.163-1.136c-0.108-0.339-0.26-0.631-0.464-0.872s-0.453-0.429-0.75-0.561
				c-0.297-0.13-0.631-0.196-1.002-0.196c-0.379,0-0.716,0.068-1.01,0.204c-0.293,0.135-0.541,0.323-0.742,0.564
				c-0.204,0.243-0.359,0.532-0.467,0.872C21.301,8.111,21.249,8.486,21.249,8.894z"/>
			<path fill="#1976D2" d="M36.123,4.643v1.635h-2.705v6.878h-2.02V6.278h-2.701V4.643H36.123z"/>
			<path fill="#1976D2" d="M42.817,4.643h2.019v8.513h-2.019V9.545h-3.385v3.611h-2.019V4.643h2.019v3.256h3.385V4.643z"/>
		</g>
	</g>
</g>
</svg>
