<?xml version="1.0" encoding="utf-8"?>
<!-- Generator: Adobe Illustrator 21.0.0, SVG Export Plug-In . SVG Version: 6.00 Build 0)  -->
<svg version="1.1" id="图层_1" xmlns="http://www.w3.org/2000/svg" xmlns:xlink="http://www.w3.org/1999/xlink" x="0px" y="0px"
	 viewBox="0 0 64 64" style="enable-background:new 0 0 64 64;" xml:space="preserve">
<style type="text/css">
	.st0{opacity:0.1;enable-background:new    ;}
	.st1{opacity:0.2;enable-background:new    ;}
	.st2{fill:#0D47A1;}
	.st3{fill:url(#SVGID_1_);}
	.st4{fill:#0D47A1;fill-opacity:0.39;}
	.st5{fill:#FFFFFF;fill-opacity:0.45;}
	.st6{fill:#64B5F6;}
	.st7{fill:#FFFFFF;fill-opacity:0.8;}
	.st8{opacity:0.8;fill:#FFFFFF;enable-background:new    ;}
	.st9{enable-background:new    ;}
	.st10{fill:#1976D2;}
</style>
<polygon class="st0" points="9.2,64 9.2,2 56.8,2 56.8,46.5 39.3,64 "/>
<polygon class="st0" points="10.2,63 10.2,3 55.8,3 55.8,46.1 38.9,63 "/>
<polygon class="st1" points="9.2,62 9.2,2 54.8,2 54.8,45.1 37.9,62 "/>
<polygon class="st2" points="10.1,61 10.1,3 53.9,3 53.9,44.7 37.5,61 "/>
<g>
	<g>
		<g>
			<g>
				
					<linearGradient id="SVGID_1_" gradientUnits="userSpaceOnUse" x1="115.2002" y1="1611.3008" x2="115.2002" y2="1554.3008" gradientTransform="matrix(1 0 0 1 -83.2002 -1550.8008)">
					<stop  offset="0" style="stop-color:#1976D2"/>
					<stop  offset="0.0226" style="stop-color:#1C79D3"/>
					<stop  offset="0.2859" style="stop-color:#3B93E2"/>
					<stop  offset="0.5416" style="stop-color:#52A6ED"/>
					<stop  offset="0.7843" style="stop-color:#5FB1F4"/>
					<stop  offset="1" style="stop-color:#64B5F6"/>
				</linearGradient>
				<polygon class="st3" points="10.6,60.5 10.6,3.5 53.4,3.5 53.4,44.5 37.3,60.5 				"/>
			</g>
			<polygon class="st4" points="53.4,44.5 53.4,43.8 36.4,43.8 36.4,60.5 37.3,60.5 			"/>
			<path class="st5" d="M37.3,44.5h16.1l-16,16L37.3,44.5z"/>
		</g>
		<g>
			<path class="st6" d="M45.3,30.1c0,7.3-5.9,13.3-13.3,13.3c-7.3,0-13.3-5.9-13.3-13.3c0-7.3,5.9-13.3,13.3-13.3
				C39.3,16.9,45.3,22.8,45.3,30.1z"/>
			<path class="st7" d="M23.3,20.1c0,0,0.3,0.1,0.4,0.4c0.1,0.2,0.4,0.2,0.4,0.2h0.4l0.6-0.2L25,20.9c0,0-3.2,1.5-2.6,2.4
				c0.7,0.9,0.4,1.1,0.4,1.4s0.2,0,0.2,0l0.2-0.5l0.3-0.4l0.3-0.4l0.1-0.2l0.4-0.7l0.5-0.3l0.4,0.3c0,0,0.2,0.1,0.1,0.2
				c0,0.1-0.1,0.4-0.1,0.4s0.1,0.2,0.2,0.2c0.2,0,0.4-0.1,0.4-0.1l0.2,0.3l0.1,0.6l0.4,0.4l0.2,0.4l-0.2,0.4l0.2,0.1l0.4,0.5
				l0.1,0.2h-0.7c0,0-0.1-0.2-0.2-0.2s-0.7,0-0.7,0L25.2,26L25,26.3c0,0-0.2,0.4-0.4,0.4c-0.1,0-0.5-0.1-0.5-0.1s-0.3-0.1-0.4,0.2
				c-0.1,0.3,0.2,0.4,0.2,0.4l-0.7,0.2L23,27.5c0,0-0.5,0.2-0.5,0.3c0,0.1,0,0.1,0,0.1l-0.1,0.4v0.2l-0.3,0.3L21.8,29l-0.1,0.3v0.5
				c0,0,0,0.2,0,0.4c0,0.1,0,0.5,0,0.5s-0.2,0.1-0.2-0.1c-0.1-0.3-0.1-0.3-0.1-0.3L21.3,30c0,0,0.1,0,0-0.2
				c-0.2-0.1-0.4-0.2-0.4-0.2s-0.1-0.1-0.3-0.1c-0.2,0,0.2,0-0.2,0c-0.4,0-0.4,0-0.4,0l-0.3,0.3V30c0,0-0.1,1.7,0.4,1.9H20l0.3-0.4
				l0.2,0.1v0.2v0.3v0.2l0.2,0.2l0.2,0.4c0.2,0.3,0.1,0.4,0.2,0.5s0.3,0.3,0.3,0.3l0.2,0.1c0,0,0.1,0,0.3,0.1c0.2,0,0.2,0,0.2,0v0.2
				v0.2l0.2,0.2c0,0-0.1,0,0.2,0c0.3,0,0.3,0,0.3,0s0,0.1,0.2,0.2c0.2,0.1,0,0,0.2,0.1c0.2,0,0.5,0.1,0.5,0.1c0.3,0,0.3,0,0.3,0
				l0.2,0.3c0,0,0.1,0,0.2,0.1c0,0.2-0.2,0,0,0.2c0.3,0.1,0,0,0.3,0.1s-0.1,0.1,0.3,0.1s0.4,0,0.6,0c0.1,0,0.2,0.4,0.2,0.4
				c0.3,0.3,0.3,0.3,0.3,0.3v0.4c0,0-0.1,0.1,0.2,0.1c0.3,0,0.1,0,0.3,0c0.3,0,0-0.1,0.2,0c0.3,0.1,0.3,0.1,0.3,0.1s0.4,0.3,0.6,0.3
				c0.1,0,0.4,0,0.6,0c0.1,0,0.2,0.3,0.5,0.3s0.4,0,0.6,0.1s0.2,0.1,0.2,0.1v0.5l-0.1,0.3L29.2,39v0.5L29,39.9v0.2
				c0,0,0.2,0.2-0.2,0.2c-0.4,0-0.4,0-0.4,0l-0.2,0.2c0,0,0,0-0.1,0.2c-0.1,0.1-0.2,0.4-0.2,0.4v0.4v0.3L27.8,42
				c0,0-0.1,0.1,0.2,0.3c0.4,0.2,0.7,0.2,0.8,0.4c0.1,0.2,0.3,0.3,0.3,0.3l-0.5,0l-0.3-0.1l-0.5-0.1l-1-0.5c0,0-1.5-1.3-2-2.3
				c0,0-0.4-0.6-1.1-0.8c0,0-1.7-1.5-1.8-1.9L21.8,37v-0.1l-0.1-0.1v-0.1v-0.1v-0.5v-0.3v-0.2v-0.1l-0.1-0.1l-0.1-0.2v-0.1l0.3-0.2
				l-0.1-0.2v-0.1l0.1-0.1l0.1-0.1l-0.1-0.1h-0.1l-0.1,0.2h-0.1c0,0-0.1,0-0.1-0.1s-0.1-0.1-0.1-0.1h-0.1c0,0-0.1,0-0.1-0.1L21,34.1
				L20.9,34h-0.1l-0.1-0.2l-0.1-0.1l-0.1-0.2l-0.1-0.2h-0.1l-0.2-0.1L20,32.7l-0.2-0.2l-0.1-0.2l-0.1-0.1h-0.1h-0.1l-0.1-0.1
				L19,31.6v-0.2l-0.1-0.3v-0.4v-0.3l-0.2-2C18.8,28.5,19.3,23.6,23.3,20.1z"/>
			<path class="st7" d="M38.3,18.5l0.4,0.3l0.2,0.1l0.1,0.2v0.2v0.2v0.3c0,0,0.2,0.3,0.2,0.4c0,0,0,0.2,0,0.3c0,0-0.3,0.2-0.3,0.1
				s-0.2-0.2-0.2-0.2l-0.2-0.1h0.3v-0.2c0,0-0.2-0.1-0.3-0.1s-0.3-0.1-0.3-0.1L38,19.6c0,0-0.4-0.1-0.5-0.1l-0.2-0.1H37l-0.2,0.1
				l-0.2,0.3v0.3c0,0-0.1,0.2-0.1,0.3c0,0.1,0,0.3,0,0.3v0.1V21l-0.1,0.1L36,21.3c0,0-0.2,0.1-0.2,0.2c0,0,0,0.2,0.1,0.3
				c0.1,0.1,0,0.3,0.1,0.3c0.1,0.1,0.1,0.1,0.2,0.2c0.1,0,0,0,0.1,0s0.2,0,0.2,0s0.2,0,0.2-0.1s0,0,0-0.1c0.1,0,0.1-0.1,0.2,0
				c0.1,0.1,0.1,0.1,0.2,0.2c0,0,0.1,0.1,0.2,0.2c0.1,0,0.1,0.2,0.1,0.2l0.1,0.1c0,0,0,0,0.1,0s0.2,0,0.2,0v-0.1h0.1v-0.1
				c0,0,0-0.1-0.1-0.2l-0.1-0.1v-0.1l0.1-0.1V22v-0.1h-0.1l-0.1-0.1c0,0-0.1,0-0.1-0.1s0-0.1,0-0.1h-0.2l-0.1-0.1l0.1-0.1
				c0.1-0.1,0.1-0.2,0.1-0.2V21c0,0-0.1,0-0.1-0.1s0-0.2,0-0.2v-0.1c0,0,0-0.1,0.1-0.1c0,0,0.1,0.1,0.2,0.1h0.1c0,0,0,0,0,0.1v0.1
				l0.1-0.1v0.1V21v0.2l0.1,0.2l0.1,0.1c0,0,0.1,0.1,0.2,0.1l0.2,0.1l0.1,0.1h0.1l0.1-0.1h0.2l0,0h0.2h0.1c0,0,0.1,0.1,0,0.1
				c0,0-0.1,0-0.2,0.1c-0.1,0-0.1,0-0.2,0l-0.1,0.2h0.1H39l0.1,0.1c0,0,0,0,0,0.1s0.1,0,0,0.1c-0.1,0-0.2,0-0.2,0s0-0.1-0.1-0.1
				l-0.1,0.1v0.1l0.1,0.2c0,0,0,0,0,0.1L38.6,23c0,0,0,0.1-0.1,0.1c0,0-0.1,0-0.2,0c-0.1,0-0.1,0-0.2,0c-0.1,0-0.1,0-0.3,0.1
				c-0.1,0-0.4,0-0.4,0c-0.1,0-0.1,0-0.2,0c0,0,0,0-0.1-0.1S37,23,37,22.9v-0.1c0-0.1,0-0.1-0.1-0.1s-0.1,0-0.1,0s-0.2,0.1-0.1,0.2
				c0,0,0,0,0.1,0.1s0.2,0.3,0.2,0.3v0.1l-0.3,0.1l-0.2,0.1v0.1c0,0,0,0,0,0.1s-0.2,0.1-0.2,0.1s-0.1,0-0.1,0.1l-0.1,0.2
				c0,0-0.1,0-0.2,0c-0.1,0.1,0,0.1-0.2,0.1c-0.2,0.1-0.2,0.1-0.2,0.1h-0.2h-0.1c0,0-0.2,0-0.2,0.1l-0.1,0.2v0.1c0,0,0.1,0,0.2,0
				c0.1,0,0.1,0,0.2,0.1c0.1,0,0.1,0.1,0.1,0.1l0.2,0.2l0.1,0.3v0.2l-0.3,0.1c0,0-0.1,0-0.2,0c0,0,0,0-0.3,0s-0.3,0-0.3,0h-0.2h-0.1
				l-0.1,0.1h-0.1c0,0,0.1,0.2,0.1,0.3c0,0.1,0,0.1,0,0.1v0.1l-0.1,0.1L34,26.6v0.1v0.1h0.2L34.1,27h0.2c0,0,0,0,0.1,0
				s0.2,0.1,0.2,0.1l0.1,0.1v0.1v-0.1c0,0,0.2,0,0.3,0h0.2h0.2c0,0,0,0,0.1,0l0,0c0,0,0.5-0.1,0.5-0.2l0.1-0.1c0,0,0.1,0,0.1-0.1
				s0-0.1,0-0.1v-0.1l0.1-0.1c0,0,0,0,0.1-0.1s0.1-0.1,0.1-0.1s0,0,0.1-0.1c0.1,0,0.2-0.1,0.2-0.1l0,0c0.1,0,0.1-0.1,0.1-0.1v-0.3
				l0.1-0.1h0.2h0.1h0.1l0.1-0.1l0.2-0.1c0,0,0,0,0.1,0s0.2,0,0.3,0h0.1c0,0,0.1,0,0.1,0.1l0.1,0.1l0.1,0.1h0.1
				c0.1,0.1,0.1,0.1,0.3,0.1c0.1,0,0.3,0.1,0.3,0.1s0,0.1,0.1,0.1l0.1,0.1l0.1,0.1l0.1,0.1l0.1,0.1v-0.1v-0.1v-0.1
				c0,0-0.1-0.1,0-0.1s0.2,0,0.2,0l-0.1-0.1h-0.1l-0.1-0.1l-0.1-0.1h-0.1h-0.1l-0.3,0c0,0-0.1,0-0.1-0.1l0,0h-0.1l-0.1-0.1v-0.2
				h-0.1v-0.1v-0.1h0.3l0.1,0.1l0.1,0.1l0.2,0.1l0.1,0.1l0.1,0.1c0,0,0,0,0.1,0s0.1,0,0.1,0s0.1,0.1,0.2,0.1c0.1,0,0.1,0,0.2,0.1
				l0,0c0,0,0,0,0.1,0.1c0.1,0,0.1,0.1,0.1,0.2c0,0,0,0.2,0.1,0.2c0,0,0.1,0,0.1,0.1c0.1,0.1,0.1,0.2,0.1,0.2c0.1,0,0.1,0,0.1,0.1
				s0,0.1,0,0.1h0.1l0.1-0.1c0,0,0.1-0.1,0-0.2c0,0-0.1,0-0.1-0.1v-0.3l0.1-0.1l0.1-0.1h0.1l0.1-0.1L41,26v0.2c0,0,0,0.1,0.1,0.2
				c0,0.1,0.1,0.2,0.1,0.2l0.2,0.2l0.3,0.1h0.1l0.4-0.1h0.1l0.3,0.4c0,0,0,0.1,0,0.2s0,0.3,0,0.3s-0.1,0.1-0.2,0.1
				c-0.1,0-0.2,0.1-0.2,0.1L41.8,28h-0.2h-0.4c0,0-0.4,0-0.5,0s-0.2,0-0.2,0s-0.1,0-0.1,0.2c0,0.1-0.1,0.2-0.1,0.2s0,0.1-0.1,0.1
				s-0.1,0-0.2,0c-0.1,0-0.4-0.1-0.4-0.1l-0.3-0.2l-0.2-0.1H39h-0.4h-0.3v-0.4v0.1l-0.1-0.3l-0.1-0.1L37.9,27h-0.2l-0.2,0.1
				l-0.3,0.1H37l-0.7,0.1L36,27.4l-0.1,0.1h-0.2c0,0-0.1,0-0.2,0c-0.1,0-0.2,0-0.3,0s-0.2,0-0.2,0s-0.1,0-0.1,0.1s-0.2,0.2-0.2,0.2
				l-0.1,0.1l-0.1,0.2l-0.2,0.3l-0.1,0.1v0.1v0.1l-0.1,0.1L34,28.9c0,0-0.1,0-0.1,0.1c-0.1,0-0.1,0.1-0.1,0.1l-0.2,0.1l-0.1,0.1
				c0,0.1-0.1,0.1-0.1,0.2l-0.1,0.1l-0.1,0.2L33,30l-0.1,0.4v0.2c0,0,0,0.1,0.1,0.1s0.1,0.2,0.1,0.2V31c0,0,0,0.1-0.1,0.2v0.3v0.1
				c0,0,0,0-0.1,0.1s-0.1,0.1-0.1,0.1l0.1,0.2l0.1,0.1v0.1l0.1,0.1c0,0,0,0,0.1,0.1c0,0,0.1,0,0.2,0.1c0.1,0,0.1,0,0.1,0
				s0.1,0.1,0.1,0.2l0.1,0.1l0.1,0.1c0,0,0,0.1,0.1,0.1c0.1,0.1,0.2,0.1,0.2,0.1s0.2,0.1,0.3,0.1s0.1,0,0.2,0c0,0-0.1-0.1,0.2,0
				c0.3,0.2,0.5,0.2,0.5,0.2l0.2,0.1c0,0,0.3,0,0.4,0H36h0.2c0.1,0,0.4,0,0.4,0l0.3-0.1c0,0,0.1-0.1,0.2-0.1l0.2-0.1h0.3
				c0,0,0-0.1,0.1,0s0.1,0.1,0.1,0.1s0,0.2,0.1,0.2s0.2,0.1,0.2,0.1s0.2,0,0.3,0s0.2,0,0.2,0l0.1,0.1v0.2v0.2v0.1
				c0,0.1,0.1,0.2,0.1,0.2l-0.1,0.1l-0.1,0.1l0.3,0.3l0.2,0.2l0.1,0.2v0.1c0,0,0,0.1,0,0.2v0.2c0,0,0,0.1,0,0.2s0,0.3,0,0.3v0.1
				l-0.1,0.3L38.6,37l-0.2,0.1l-0.1,0.2v0.2l-0.1,0.1c0,0,0,0.1,0,0.2s0.1,0.3,0.1,0.3v0.2l-0.1,0.3c0,0.1-0.1,0.1-0.1,0.2V39v0.2
				l0.1,0.2l-0.1,0.2c0,0,0,0.2,0,0.3s0.2,0.2,0.2,0.2s0.2,0,0.3-0.1c0.1,0,0.3-0.1,0.3-0.1s0.1,0,0.2-0.1c0.1-0.1,0.3-0.2,0.3-0.2
				l0.2-0.1l0.2-0.3c0,0,0.1-0.1,0.3-0.2c0.1-0.1,0,0,0.1-0.1s0.4-0.3,0.4-0.3l0.3-0.3l0.3-0.4c0-0.1,0.3-0.4,0.4-0.5
				c0,0,0.4-0.3,0.5-0.3c0.1-0.1,0.2-0.5,0.2-0.6l0.3-0.6l0.2-0.6l0.4-0.9l0.4-0.6c0,0,0.1-0.3,0.2-0.4c0-0.1,0.4-0.7,0.4-0.7
				l0.1-0.5v-0.5h-0.2l0.1,0.3L44,31.9h-0.2l0.2-0.3l-0.1-0.2l-0.2-0.1l-0.3-0.4v-0.4L43.2,30L43,29.3c0,0-0.3-0.3-0.3-0.4
				s0.1-0.3,0.1-0.3l0.2,0.1c0,0,0.1,0.3,0.2,0.4c0.1,0,0.1,0.2,0.2,0.2c0,0,0,0.2,0.1,0.2l0.2,0.3l0.1,0.3c0,0,0.1,0.2,0.2,0.3
				c0,0.1,0.1,0.5,0.1,0.6l0.1,0.5c0,0,0.1,0,0.2-0.1c0,0,0-0.1,0.1-0.1l0.3-0.2l0.1-0.3c0,0,0.1-0.1,0.1-0.2s0.2-0.3,0.2-0.3
				s0-0.2,0-0.3l0.1-0.3v-0.2v-0.4l0.2-0.2l0.1-0.2C45.2,28.5,44.6,21.8,38.3,18.5z"/>
		</g>
	</g>
	<g>
		<rect x="10.6" y="3.5" class="st8" width="42.7" height="10.9"/>
		<g class="st9">
			<path class="st10" d="M28.1,8.9c0,0.7-0.1,1.4-0.3,1.9c-0.2,0.6-0.5,1-0.9,1.4S26,12.9,25.5,13c-0.5,0.2-1.1,0.3-1.8,0.3
				c-0.6,0-1.2-0.1-1.7-0.3s-1-0.5-1.4-0.8c-0.4-0.4-0.7-0.8-1-1.4c-0.2-0.6-0.4-1.2-0.4-1.9s0.1-1.4,0.4-1.9c0.2-0.6,0.6-1,1-1.4
				s0.9-0.7,1.4-0.8c0.5-0.2,1.1-0.3,1.7-0.3s1.2,0.1,1.7,0.3c0.5,0.2,1,0.5,1.4,0.8c0.4,0.4,0.7,0.8,1,1.4
				C28,7.5,28.1,8.2,28.1,8.9z M21.2,8.9c0,0.4,0.1,0.8,0.2,1.1s0.3,0.6,0.5,0.9c0.2,0.2,0.4,0.4,0.7,0.6c0.3,0.1,0.6,0.2,1,0.2
				s0.7-0.1,1-0.2c0.3-0.1,0.5-0.3,0.8-0.6c0.2-0.2,0.4-0.5,0.5-0.9C26,9.7,26,9.3,26,8.9s0-0.8-0.2-1.1c-0.1-0.3-0.3-0.6-0.5-0.9
				s-0.5-0.4-0.8-0.6c-0.3-0.1-0.6-0.2-1-0.2s-0.7,0.1-1,0.2S22,6.6,21.8,6.9c-0.2,0.2-0.4,0.5-0.5,0.9C21.3,8.1,21.2,8.5,21.2,8.9z
				"/>
			<path class="st10" d="M36.1,4.6v1.6h-2.7v6.9h-2V6.3h-2.7V4.6H36.1z"/>
			<path class="st10" d="M42.8,4.6h2v8.5h-2V9.5h-3.4v3.6h-2V4.6h2v3.3h3.4V4.6z"/>
		</g>
	</g>
</g>
</svg>
