<?xml version="1.0" encoding="utf-8"?>
<!-- Generator: Adobe Illustrator 16.0.0, SVG Export Plug-In . SVG Version: 6.00 Build 0)  -->
<!DOCTYPE svg PUBLIC "-//W3C//DTD SVG 1.1//EN" "http://www.w3.org/Graphics/SVG/1.1/DTD/svg11.dtd">
<svg version="1.1" id="图层_1" xmlns="http://www.w3.org/2000/svg" xmlns:xlink="http://www.w3.org/1999/xlink" x="0px" y="0px"
	 width="64px" height="64px" viewBox="0 0 64 64" enable-background="new 0 0 64 64" xml:space="preserve">
<polygon opacity="0.1" enable-background="new    " points="9.155,64 9.155,2 56.846,2 56.846,46.498 39.343,64 "/>
<polygon opacity="0.1" enable-background="new    " points="10.155,63 10.155,3 55.846,3 55.846,46.084 38.93,63 "/>
<polygon opacity="0.2" enable-background="new    " points="9.155,62 9.155,2 54.846,2 54.846,45.084 37.93,62 "/>
<polygon fill="#3E2723" points="10.148,61 10.148,3 53.852,3 53.852,44.67 37.518,61 "/>
<g>
	<g>
		
			<linearGradient id="SVGID_1_" gradientUnits="userSpaceOnUse" x1="73.6016" y1="-103.4004" x2="73.6016" y2="-160.4009" gradientTransform="matrix(1 0 0 -1 -41.6001 -99.9004)">
			<stop  offset="0" style="stop-color:#785548"/>
			<stop  offset="1" style="stop-color:#9F9E9F"/>
		</linearGradient>
		<polygon fill="url(#SVGID_1_)" points="10.649,60.5 10.649,3.5 53.355,3.5 53.355,44.446 37.479,60.5 		"/>
		<polygon fill="#795548" fill-opacity="0.7" points="53.355,44.469 53.355,43.778 36.447,43.778 36.447,60.5 37.324,60.5 		"/>
		<path opacity="0.39" fill="#FFFFFF" enable-background="new    " d="M37.301,44.469l16.055,0.022L37.324,60.5L37.301,44.469z"/>
	</g>
	<path fill="#FFFFFF" d="M25.909,14.488h-1.447v18.51H23.37v-18.51h-1.44v18.51h-1.091v-18.51h-1.44v18.51h-1.091v-18.51h-1.44
		v18.51H16.49v7.842h9.908v-7.842h-0.489V14.488z M24.958,38.561H17.93v-4.545h7.028V38.561z"/>
	<g>
		<rect x="10.638" y="3.5" opacity="0.8" fill="#FFFFFF" enable-background="new    " width="42.723" height="10.925"/>
		<g enable-background="new    ">
			<path fill="#5D4037" d="M21.233,13.332c-0.49,0-0.98-0.015-1.466-0.044c-0.49-0.028-0.995-0.095-1.521-0.202V4.829
				c0.416-0.072,0.868-0.128,1.358-0.165s0.95-0.056,1.37-0.056c0.571,0,1.095,0.039,1.573,0.117s0.891,0.211,1.236,0.399
				c0.341,0.189,0.612,0.436,0.805,0.744c0.196,0.308,0.293,0.687,0.293,1.135c0,0.681-0.345,1.217-1.035,1.611
				c0.568,0.204,0.957,0.482,1.165,0.835c0.204,0.353,0.309,0.75,0.309,1.191c0,0.895-0.342,1.566-1.028,2.015
				C23.608,13.106,22.587,13.332,21.233,13.332z M20.212,8.048h0.983c0.62,0,1.065-0.074,1.332-0.227
				c0.267-0.152,0.401-0.395,0.401-0.731c0-0.345-0.141-0.586-0.416-0.726c-0.275-0.139-0.679-0.208-1.217-0.208
				c-0.171,0-0.356,0.001-0.553,0.005c-0.2,0.004-0.375,0.015-0.53,0.03V8.048z M20.212,9.51v2.201
				c0.145,0.015,0.304,0.028,0.479,0.035c0.171,0.009,0.36,0.013,0.568,0.013c0.605,0,1.091-0.082,1.462-0.245
				c0.371-0.165,0.557-0.467,0.557-0.909c0-0.393-0.156-0.673-0.467-0.842c-0.308-0.167-0.753-0.252-1.333-0.252H20.212z"/>
			<path fill="#5D4037" d="M33.26,6.033c-0.275,0.271-0.602,0.622-0.98,1.052c-0.382,0.428-0.771,0.898-1.18,1.406
				c-0.404,0.506-0.806,1.032-1.202,1.572c-0.397,0.542-0.75,1.058-1.062,1.549h4.568v1.608h-7.046v-1.143
				c0.237-0.417,0.534-0.881,0.883-1.393c0.349-0.512,0.713-1.028,1.091-1.549c0.383-0.52,0.769-1.022,1.158-1.511
				c0.394-0.488,0.757-0.924,1.095-1.308h-4.022v-1.61h6.698V6.033z"/>
			<path fill="#5D4037" d="M34.826,4.706h2.018v8.515h-2.018V4.706z"/>
			<path fill="#5D4037" d="M41.602,4.608c1.336,0,2.361,0.224,3.08,0.669c0.713,0.447,1.072,1.178,1.072,2.193
				c0,1.024-0.359,1.763-1.086,2.217c-0.725,0.455-1.76,0.683-3.104,0.683H40.93v2.85h-2.014V4.829
				c0.438-0.082,0.9-0.139,1.395-0.171C40.801,4.625,41.23,4.608,41.602,4.608z M41.732,6.242c-0.145,0-0.293,0.004-0.436,0.013
				c-0.141,0.007-0.262,0.015-0.367,0.024v2.457h0.635c0.697,0,1.225-0.089,1.578-0.271c0.352-0.18,0.529-0.516,0.529-1.008
				c0-0.237-0.043-0.432-0.137-0.588c-0.088-0.156-0.219-0.282-0.389-0.375c-0.164-0.095-0.371-0.16-0.613-0.197
				C42.293,6.261,42.025,6.242,41.732,6.242z"/>
		</g>
	</g>
</g>
</svg>
