<?xml version="1.0" encoding="utf-8"?>
<!-- Generator: Adobe Illustrator 16.0.0, SVG Export Plug-In . SVG Version: 6.00 Build 0)  -->
<!DOCTYPE svg PUBLIC "-//W3C//DTD SVG 1.1//EN" "http://www.w3.org/Graphics/SVG/1.1/DTD/svg11.dtd">
<svg version="1.1" id="图层_1" xmlns="http://www.w3.org/2000/svg" xmlns:xlink="http://www.w3.org/1999/xlink" x="0px" y="0px"
	 width="64px" height="64px" viewBox="0 0 64 64" enable-background="new 0 0 64 64" xml:space="preserve">
<polygon opacity="0.1" points="9.155,64 9.155,2 56.845,2 56.845,46.498 39.343,64 "/>
<polygon opacity="0.1" points="10.155,63 10.155,3 55.845,3 55.845,46.084 38.929,63 "/>
<polygon opacity="0.2" points="9.155,62 9.155,2 54.845,2 54.845,45.084 37.929,62 "/>
<polygon fill="#2D2183" points="10.155,61 10.155,3 53.845,3 53.845,44.67 37.515,61 "/>
<g>
	<g>
		
			<linearGradient id="SVGID_1_" gradientUnits="userSpaceOnUse" x1="318.6016" y1="-404.3999" x2="318.6016" y2="-347.4004" gradientTransform="matrix(1 0 0 -1 -286.5996 -343.9004)">
			<stop  offset="0" style="stop-color:#4A3591"/>
			<stop  offset="0.008" style="stop-color:#4C3591"/>
			<stop  offset="0.1976" style="stop-color:#6A4498"/>
			<stop  offset="0.4086" style="stop-color:#82529E"/>
			<stop  offset="0.6159" style="stop-color:#965EA3"/>
			<stop  offset="0.8158" style="stop-color:#A165A7"/>
			<stop  offset="1" style="stop-color:#A567A8"/>
		</linearGradient>
		<polygon fill="url(#SVGID_1_)" points="10.649,60.5 10.649,3.5 53.353,3.5 53.353,44.469 37.319,60.5 		"/>
	</g>
	<polygon fill="#5A4096" fill-opacity="0.3922" points="53.353,44.469 53.353,43.78 36.442,43.78 36.442,60.5 37.319,60.5 	"/>
	<path fill="#FFFFFF" fill-opacity="0.3922" d="M37.296,44.469l16.057,0.023L37.319,60.5L37.296,44.469z"/>
</g>
<g opacity="0.8">
	<g>
		<rect x="28.39" y="17.845" fill="#FFFFFF" width="19.404" height="2.28"/>
	</g>
	<g>
		<rect x="28.39" y="22.144" fill="#FFFFFF" width="19.404" height="2.28"/>
	</g>
	<g>
		<rect x="28.39" y="26.466" fill="#FFFFFF" width="19.404" height="2.28"/>
	</g>
	<g>
		<rect x="28.39" y="31.002" fill="#FFFFFF" width="19.404" height="2.281"/>
	</g>
	<g>
		<rect x="28.39" y="35.301" fill="#FFFFFF" width="19.404" height="2.28"/>
	</g>
</g>
<path opacity="0.8" fill="#FFFFFF" enable-background="new    " d="M24.305,24.803l-2.66-0.57v-3.301l3.61,0.784v-2.518
	l-5.415-1.163v2.517l0,0v13.062c-0.285-0.07-0.593-0.118-0.927-0.118c-1.496,0-2.708,0.927-2.708,2.066s1.211,2.067,2.708,2.067
	c1.497,0,2.708-0.928,2.708-2.044l0,0v-9.523l2.66,0.57L24.305,24.803L24.305,24.803z"/>
</svg>
