<?xml version="1.0" encoding="utf-8"?>
<!-- Generator: Adobe Illustrator 16.0.0, SVG Export Plug-In . SVG Version: 6.00 Build 0)  -->
<!DOCTYPE svg PUBLIC "-//W3C//DTD SVG 1.1//EN" "http://www.w3.org/Graphics/SVG/1.1/DTD/svg11.dtd">
<svg version="1.1" id="图层_1" xmlns="http://www.w3.org/2000/svg" xmlns:xlink="http://www.w3.org/1999/xlink" x="0px" y="0px"
	 width="64px" height="64px" viewBox="0 0 64 64" enable-background="new 0 0 64 64" xml:space="preserve">
<rect x="9.148" y="2" opacity="0.2" enable-background="new    " width="45.704" height="60"/>
<rect x="9.148" y="2" opacity="0.08" enable-background="new    " width="47.704" height="62"/>
<rect x="10.148" y="3" opacity="0.1" enable-background="new    " width="45.704" height="60"/>
<rect x="10.148" y="3" fill="#E65100" width="43.704" height="58"/>
<g>
	
		<linearGradient id="SVGID_1_" gradientUnits="userSpaceOnUse" x1="115.1992" y1="885.3008" x2="115.1992" y2="828.3008" gradientTransform="matrix(1 0 0 1 -83.2002 -824.8008)">
		<stop  offset="0" style="stop-color:#EE6F0B"/>
		<stop  offset="1" style="stop-color:#FFB74D"/>
	</linearGradient>
	<rect x="10.647" y="3.5" fill="url(#SVGID_1_)" width="42.705" height="57"/>
	<g opacity="0.8">
		<rect x="16.206" y="25.439" fill="#FFFFFF" width="4.561" height="22.852"/>
		<rect x="23.807" y="36.843" fill="#FFFFFF" width="4.561" height="11.422"/>
		<rect x="31.384" y="41.496" fill="#FFFFFF" width="4.558" height="6.843"/>
		<g>
			<path fill="#FFFFFF" d="M37.581,21.409l0.052,9.092l9.096-0.045c0.026,5.032-4.041,9.118-9.073,9.141
				c-5.039,0.029-9.121-4.038-9.147-9.07C28.485,25.513,32.549,21.431,37.581,21.409z"/>
			<path fill="#FFFFFF" d="M38.65,20.355c5.035-0.022,9.121,4.042,9.144,9.077l-9.092,0.052L38.65,20.355z"/>
		</g>
	</g>
	<g>
		<rect x="10.636" y="3.5" opacity="0.8" fill="#FFFFFF" enable-background="new    " width="42.729" height="10.925"/>
		<g enable-background="new    ">
			<path fill="#E64A19" d="M28.382,8.896c0,0.728-0.115,1.37-0.345,1.922c-0.227,0.553-0.542,1.017-0.936,1.388
				c-0.397,0.371-0.868,0.653-1.418,0.838c-0.549,0.193-1.135,0.286-1.766,0.286c-0.612,0-1.188-0.093-1.733-0.286
				c-0.542-0.186-1.017-0.467-1.421-0.838c-0.405-0.371-0.724-0.835-0.958-1.388c-0.233-0.553-0.349-1.195-0.349-1.922
				c0-0.731,0.122-1.373,0.363-1.922c0.241-0.557,0.564-1.017,0.977-1.396c0.408-0.378,0.883-0.661,1.421-0.846
				c0.538-0.193,1.106-0.286,1.7-0.286c0.612,0,1.19,0.093,1.732,0.286c0.546,0.186,1.017,0.468,1.425,0.846
				c0.405,0.378,0.724,0.839,0.958,1.396C28.263,7.522,28.382,8.165,28.382,8.896z M21.539,8.896c0,0.416,0.056,0.794,0.163,1.128
				c0.107,0.337,0.26,0.624,0.464,0.868c0.204,0.241,0.449,0.427,0.742,0.557c0.293,0.134,0.631,0.201,1.01,0.201
				c0.371,0,0.705-0.067,1.002-0.201c0.3-0.13,0.549-0.315,0.753-0.557c0.2-0.245,0.356-0.531,0.464-0.868
				C26.244,9.69,26.3,9.312,26.3,8.896c0-0.419-0.056-0.798-0.163-1.135c-0.107-0.341-0.264-0.631-0.464-0.876
				c-0.204-0.237-0.453-0.427-0.753-0.557c-0.297-0.133-0.631-0.2-1.002-0.2c-0.379,0-0.717,0.07-1.01,0.208
				c-0.293,0.134-0.538,0.319-0.742,0.564c-0.204,0.241-0.356,0.53-0.464,0.868C21.595,8.109,21.539,8.487,21.539,8.896z"/>
			<path fill="#E64A19" d="M36.408,4.643v1.633h-2.701v6.88h-2.015v-6.88h-2.706V4.643H36.408z"/>
			<path fill="#E64A19" d="M40.395,4.546c1.336,0,2.359,0.223,3.076,0.668c0.716,0.445,1.072,1.18,1.072,2.193
				c0,1.024-0.36,1.763-1.084,2.215c-0.727,0.457-1.759,0.683-3.105,0.683h-0.635v2.85h-2.015v-8.39
				c0.441-0.082,0.901-0.138,1.395-0.171C39.593,4.562,40.023,4.546,40.395,4.546z M40.521,6.179c-0.145,0-0.29,0.004-0.431,0.015
				c-0.141,0.007-0.268,0.015-0.371,0.022v2.457h0.635c0.701,0,1.225-0.089,1.577-0.271c0.356-0.182,0.534-0.516,0.534-1.006
				c0-0.237-0.048-0.434-0.141-0.59c-0.09-0.156-0.216-0.282-0.387-0.375c-0.167-0.097-0.371-0.16-0.615-0.197
				C41.084,6.198,40.817,6.179,40.521,6.179z"/>
		</g>
	</g>
</g>
</svg>
