<?xml version="1.0" encoding="utf-8"?>
<!-- Generator: Adobe Illustrator 16.0.0, SVG Export Plug-In . SVG Version: 6.00 Build 0)  -->
<!DOCTYPE svg PUBLIC "-//W3C//DTD SVG 1.1//EN" "http://www.w3.org/Graphics/SVG/1.1/DTD/svg11.dtd">
<svg version="1.1" id="图层_1" xmlns="http://www.w3.org/2000/svg" xmlns:xlink="http://www.w3.org/1999/xlink" x="0px" y="0px"
	 width="64px" height="64px" viewBox="0 0 64 64" enable-background="new 0 0 64 64" xml:space="preserve">
<polygon opacity="0.1" enable-background="new    " points="9.155,64 9.155,2 56.846,2 56.846,46.498 39.343,64 "/>
<polygon opacity="0.1" enable-background="new    " points="10.155,63 10.155,3 55.846,3 55.846,46.084 38.93,63 "/>
<polygon opacity="0.2" enable-background="new    " points="9.155,62 9.155,2 54.846,2 54.846,45.084 37.93,62 "/>
<polygon fill="#607D8B" points="10.148,61 10.148,3 53.852,3 53.852,44.67 37.517,61 "/>
<g>
	<g>
		<g>
			
				<linearGradient id="SVGID_1_" gradientUnits="userSpaceOnUse" x1="73.5996" y1="-357.4004" x2="73.5996" y2="-414.4009" gradientTransform="matrix(1 0 0 -1 -41.6001 -353.9004)">
				<stop  offset="0" style="stop-color:#F5F5F5"/>
				<stop  offset="0.341" style="stop-color:#F1F2F3"/>
				<stop  offset="0.6434" style="stop-color:#E7EAEC"/>
				<stop  offset="0.9302" style="stop-color:#D5DCE0"/>
				<stop  offset="1" style="stop-color:#CFD8DC"/>
			</linearGradient>
			<polygon fill="url(#SVGID_1_)" points="10.646,60.5 10.646,3.5 53.354,3.5 53.354,44.469 37.322,60.5 			"/>
		</g>
		<polygon fill="#455A64" fill-opacity="0.7" points="53.354,44.469 53.354,43.779 36.442,43.779 36.442,60.5 37.322,60.5 		"/>
		<path fill="#90A4AE" d="M37.296,44.469l16.058,0.021L37.322,60.5L37.296,44.469z"/>
	</g>
	<g opacity="0.8" enable-background="new    ">
		<rect x="16.303" y="11.672" fill="#607D8B" width="31.588" height="3.369"/>
		<rect x="16.303" y="20.767" fill="#607D8B" width="31.588" height="1.566"/>
		<rect x="16.303" y="25.684" fill="#607D8B" width="31.588" height="1.566"/>
		<rect x="16.303" y="30.623" fill="#607D8B" width="31.588" height="1.566"/>
		<rect x="16.303" y="35.541" fill="#607D8B" width="31.588" height="1.564"/>
		<rect x="16.303" y="40.479" fill="#607D8B" width="19.522" height="1.566"/>
	</g>
</g>
</svg>
