<?xml version="1.0" encoding="utf-8"?>
<!-- Generator: Adobe Illustrator 16.0.0, SVG Export Plug-In . SVG Version: 6.00 Build 0)  -->
<!DOCTYPE svg PUBLIC "-//W3C//DTD SVG 1.1//EN" "http://www.w3.org/Graphics/SVG/1.1/DTD/svg11.dtd">
<svg version="1.1" id="图层_1" xmlns="http://www.w3.org/2000/svg" xmlns:xlink="http://www.w3.org/1999/xlink" x="0px" y="0px"
	 width="64px" height="64px" viewBox="0 0 64 64" enable-background="new 0 0 64 64" xml:space="preserve">
<g id="surface1_1_">
	<polygon opacity="0.08" enable-background="new    " points="9.25,64 9.25,2 56.75,2 56.75,46.516 39.266,64 	"/>
	<polygon opacity="0.1" enable-background="new    " points="10.25,63 10.25,3 55.75,3 55.75,46.102 38.852,63 	"/>
	<polygon opacity="0.2" enable-background="new    " points="9.25,62 9.25,2 54.75,2 54.75,45.102 37.852,62 	"/>
	<g>
		
			<linearGradient id="SVGID_1_" gradientUnits="userSpaceOnUse" x1="198.4004" y1="1614.9609" x2="198.4004" y2="1556.9609" gradientTransform="matrix(1 0 0 1 -166.4004 -1553.9609)">
			<stop  offset="0" style="stop-color:#F57C00"/>
			<stop  offset="0.099" style="stop-color:#F78B0C"/>
			<stop  offset="0.3289" style="stop-color:#FAA823"/>
			<stop  offset="0.5576" style="stop-color:#FDBC33"/>
			<stop  offset="0.7827" style="stop-color:#FEC93D"/>
			<stop  offset="1" style="stop-color:#FFCD40"/>
		</linearGradient>
		<path fill="url(#SVGID_1_)" d="M37.438,61L53.75,44.688V3h-43.5v58H37.438z"/>
		<polygon fill="#EE6F0B" fill-opacity="0.3922" points="36.531,43.781 36.531,61 37.438,61 53.75,44.688 53.75,43.781 		"/>
		<path fill="#FFFFFF" fill-opacity="0.3922" d="M37.438,44.688h16.299L37.438,61V44.688z"/>
		<path opacity="0.8" fill="#FFFFFF" d="M32,13.874c-0.984,0-1.813,0.566-2.188,1.363c-0.751-0.517-1.792-0.609-2.648-0.138
			c-0.842,0.457-1.288,1.353-1.203,2.216c-0.914-0.082-1.855,0.347-2.344,1.15c-0.488,0.804-0.39,1.795,0.148,2.503
			c-0.842,0.357-1.43,1.147-1.43,2.078c0,0.935,0.587,1.717,1.43,2.078c-0.538,0.712-0.637,1.696-0.148,2.507
			c0.488,0.804,1.43,1.225,2.344,1.144c-0.085,0.87,0.361,1.759,1.203,2.223c0.383,0.209,0.8,0.29,1.211,0.29v9.774L32,37.62
			l3.625,3.441v-9.774c0.41,0,0.828-0.081,1.211-0.29c0.842-0.464,1.288-1.353,1.203-2.223c0.914,0.081,1.855-0.34,2.344-1.144
			c0.488-0.811,0.39-1.795-0.148-2.507c0.842-0.361,1.43-1.143,1.43-2.078c0-0.931-0.588-1.721-1.43-2.078
			c0.538-0.708,0.637-1.699,0.148-2.503c-0.488-0.803-1.43-1.232-2.344-1.15c0.085-0.864-0.361-1.759-1.203-2.216
			c-0.857-0.471-1.897-0.378-2.648,0.138C33.813,14.44,32.984,13.874,32,13.874z M32,17.276c3.335,0,6.039,2.57,6.039,5.735
			c0,3.165-2.704,5.728-6.039,5.728s-6.039-2.563-6.039-5.728C25.961,19.846,28.665,17.276,32,17.276z M32,18.427
			c-2.669,0-4.836,2.049-4.836,4.584c0,2.527,2.167,4.584,4.836,4.584s4.836-2.057,4.836-4.584
			C36.836,20.476,34.669,18.427,32,18.427z"/>
		<g>
			<path fill="#EE6F0B" d="M53.25,3.5v40.98L37.23,60.5H24.75h-14v-57H53.25 M53.75,3h-43.5v58h14.5h12.688L53.75,44.688V3L53.75,3z
				"/>
		</g>
	</g>
</g>
</svg>
