<?xml version="1.0" encoding="utf-8"?>
<!-- Generator: Adobe Illustrator 16.0.0, SVG Export Plug-In . SVG Version: 6.00 Build 0)  -->
<!DOCTYPE svg PUBLIC "-//W3C//DTD SVG 1.1//EN" "http://www.w3.org/Graphics/SVG/1.1/DTD/svg11.dtd">
<svg version="1.1" id="图层_1" xmlns="http://www.w3.org/2000/svg" xmlns:xlink="http://www.w3.org/1999/xlink" x="0px" y="0px"
	 width="64px" height="64px" viewBox="0 0 64 64" enable-background="new 0 0 64 64" xml:space="preserve">
<rect x="2" y="2" opacity="0.2" width="60" height="60"/>
<rect x="2" y="2" opacity="0.08" width="62" height="62"/>
<rect x="3" y="3" opacity="0.1" width="60" height="60"/>
<rect x="3" y="3" fill="#455A64" width="58" height="58"/>
<g>
	
		<linearGradient id="SVGID_1_" gradientUnits="userSpaceOnUse" x1="73.5996" y1="-103.4004" x2="73.5996" y2="-160.4009" gradientTransform="matrix(1 0 0 -1 -41.6001 -99.9004)">
		<stop  offset="0" style="stop-color:#90A4AE"/>
		<stop  offset="0.1378" style="stop-color:#849AA5"/>
		<stop  offset="0.4226" style="stop-color:#708A97"/>
		<stop  offset="0.7096" style="stop-color:#64808E"/>
		<stop  offset="1" style="stop-color:#607D8B"/>
	</linearGradient>
	<rect x="3.5" y="3.5" fill="url(#SVGID_1_)" width="57" height="57"/>
	<path opacity="0.8" fill="#FFFFFF" enable-background="new    " d="M46.131,39.532c0.063-0.087,0.092-0.175,0.147-0.262
		c0.091-0.173,0.177-0.32,0.236-0.493c0,0,0-0.026,0.023-0.026c0.41-0.904,0.758-1.868,0.992-2.882h3.811v-7.65h-3.78
		c-0.378-1.6-1.022-3.079-1.835-4.449l2.676-2.676l-5.407-5.41l-2.679,2.677c-1.396-0.844-2.904-1.485-4.534-1.892h0.027v-3.811
		h-7.646v3.811h0.028c-1.631,0.407-3.142,1.018-4.537,1.864l-2.676-2.677l-5.38,5.412l2.672,2.672
		c-0.811,1.364-1.447,2.849-1.831,4.451h-3.783v7.646h3.81c0.382,1.603,1.021,3.083,1.837,4.479l0,0l-2.676,2.679l5.411,5.407
		l2.672-2.676c1.366,0.845,2.879,1.457,4.481,1.864v3.777h7.646V47.59l0,0l0,0c1.603-0.407,3.113-1.02,4.479-1.864l2.679,2.676
		l5.407-5.407l-2.676-2.679l0,0c0.087-0.145,0.177-0.317,0.26-0.463C46.021,39.737,46.075,39.618,46.131,39.532z M32,44.216
		c-6.745,0-12.219-5.465-12.219-12.216c0-6.745,5.474-12.217,12.219-12.217c1.334,0,2.616,0.209,3.837,0.609l0,0
		c4.858,1.604,8.379,6.197,8.379,11.608c0,0.32,0,0.668-0.033,0.99v0.027c-0.084,0.99-0.259,1.919-0.579,2.819
		c0,0.032-0.029,0.06-0.029,0.09c-0.203,0.582-0.434,1.131-0.698,1.659c-0.025,0.024-0.025,0.054-0.025,0.086
		c-0.149,0.263-0.292,0.521-0.438,0.755c0,0.03-0.029,0.03-0.029,0.061c-0.146,0.23-0.322,0.492-0.499,0.728l-0.024,0.029
		c-0.175,0.229-0.35,0.465-0.557,0.662c-0.027,0.032-0.056,0.063-0.085,0.092c-0.38,0.438-0.783,0.841-1.221,1.221
		c-0.028,0.029-0.06,0.058-0.115,0.085c-0.205,0.177-0.438,0.352-0.668,0.525c-0.034,0.031-0.062,0.056-0.117,0.056
		c-0.201,0.145-0.438,0.296-0.671,0.438c-0.029,0.03-0.06,0.03-0.083,0.061c-0.238,0.145-0.469,0.29-0.733,0.403
		c-0.056,0.029-0.115,0.063-0.171,0.089c-0.263,0.118-0.493,0.231-0.758,0.351c-0.027,0-0.054,0.027-0.087,0.027
		c-0.229,0.092-0.466,0.173-0.698,0.261C34.704,43.983,33.396,44.216,32,44.216z"/>
</g>
</svg>
