<?xml version="1.0" encoding="utf-8"?>
<!-- Generator: Adobe Illustrator 21.0.0, SVG Export Plug-In . SVG Version: 6.00 Build 0)  -->
<svg version="1.1" id="图层_1" xmlns="http://www.w3.org/2000/svg" xmlns:xlink="http://www.w3.org/1999/xlink" x="0px" y="0px"
	 viewBox="0 0 64 64" style="enable-background:new 0 0 64 64;" xml:space="preserve">
<style type="text/css">
	.st0{opacity:0.2;enable-background:new    ;}
	.st1{opacity:0.08;enable-background:new    ;}
	.st2{opacity:0.1;enable-background:new    ;}
	.st3{fill:#1B5E20;}
	.st4{fill:url(#SVGID_1_);}
	.st5{opacity:0.8;fill:#FFFFFF;enable-background:new    ;}
</style>
<rect x="9.1" y="2" class="st0" width="45.7" height="60"/>
<rect x="9.1" y="2" class="st1" width="47.7" height="62"/>
<rect x="10.1" y="3" class="st2" width="45.7" height="60"/>
<rect x="10.1" y="3" class="st3" width="43.7" height="58"/>
<g>
	
		<linearGradient id="SVGID_1_" gradientUnits="userSpaceOnUse" x1="73.5501" y1="-862.4004" x2="73.5501" y2="-805.4004" gradientTransform="matrix(1 0 0 -1 -41.6001 -801.9004)">
		<stop  offset="0" style="stop-color:#388E3C"/>
		<stop  offset="0.0757" style="stop-color:#43953E"/>
		<stop  offset="0.3246" style="stop-color:#62A943"/>
		<stop  offset="0.5665" style="stop-color:#79B747"/>
		<stop  offset="0.796" style="stop-color:#86C049"/>
		<stop  offset="1" style="stop-color:#8BC34A"/>
	</linearGradient>
	<rect x="10.6" y="3.5" class="st4" width="42.7" height="57"/>
	<path class="st5" d="M33.1,14L33.1,14h-2.2l0,0H16.8v27.5h30.4V14H33.1z M19,22.2h6.8v4.4H19V22.2z M19,28.7h6.8v4.4H19V28.7z
		 M28,28.7h17v4.4H28V28.7z M28,26.6v-4.4h17v4.4H28z M45,16.2V20H28v-3.8H45z M25.8,16.2V20H19v-3.8H25.8z M19,35.3h6.8v3.9H19
		V35.3z M28,39.3v-3.9h17v3.9H28z"/>
</g>
</svg>
