<?xml version="1.0" encoding="utf-8"?>
<!-- Generator: Adobe Illustrator 16.0.0, SVG Export Plug-In . SVG Version: 6.00 Build 0)  -->
<!DOCTYPE svg PUBLIC "-//W3C//DTD SVG 1.1//EN" "http://www.w3.org/Graphics/SVG/1.1/DTD/svg11.dtd">
<svg version="1.1" id="图层_1" xmlns="http://www.w3.org/2000/svg" xmlns:xlink="http://www.w3.org/1999/xlink" x="0px" y="0px"
	 width="64px" height="64px" viewBox="0 0 64 64" enable-background="new 0 0 64 64" xml:space="preserve">
<polygon opacity="0.1" enable-background="new    " points="9.155,64 9.155,2 56.846,2 56.846,46.498 39.343,64 "/>
<polygon opacity="0.1" enable-background="new    " points="10.155,63 10.155,3 55.846,3 55.846,46.084 38.93,63 "/>
<polygon opacity="0.2" enable-background="new    " points="9.155,62 9.155,2 54.846,2 54.846,45.084 37.93,62 "/>
<polygon fill="#3E2723" points="10.148,61 10.148,3 53.852,3 53.852,44.67 37.518,61 "/>
<g>
	<g>
		
			<linearGradient id="SVGID_1_" gradientUnits="userSpaceOnUse" x1="73.6016" y1="-103.4004" x2="73.6016" y2="-160.4009" gradientTransform="matrix(1 0 0 -1 -41.6001 -99.9004)">
			<stop  offset="0" style="stop-color:#785548"/>
			<stop  offset="1" style="stop-color:#9F9E9F"/>
		</linearGradient>
		<polygon fill="url(#SVGID_1_)" points="10.649,60.5 10.649,3.5 53.355,3.5 53.355,44.446 37.479,60.5 		"/>
		<polygon fill="#795548" fill-opacity="0.7" points="53.355,44.469 53.355,43.778 36.447,43.778 36.447,60.5 37.324,60.5 		"/>
		<path opacity="0.39" fill="#FFFFFF" enable-background="new    " d="M37.301,44.469l16.055,0.022L37.324,60.5L37.301,44.469z"/>
	</g>
	<path fill="#FFFFFF" d="M25.909,14.488h-1.447v18.51H23.37v-18.51h-1.44v18.51h-1.091v-18.51h-1.44v18.51h-1.091v-18.51h-1.44
		v18.51H16.49v7.842h9.908v-7.842h-0.489V14.488z M24.958,38.561H17.93v-4.545h7.028V38.561z"/>
	<g>
		<rect x="10.638" y="3.5" opacity="0.8" fill="#FFFFFF" enable-background="new    " width="42.723" height="10.925"/>
		<g enable-background="new    ">
			<path fill="#5D4037" d="M27.49,4.706v1.635h-2.706v6.88h-2.015v-6.88h-2.705V4.706H27.49z"/>
			<path fill="#5D4037" d="M31.768,13.332c-0.493,0-0.983-0.015-1.466-0.044c-0.49-0.028-0.994-0.095-1.521-0.202V4.829
				c0.416-0.072,0.868-0.128,1.358-0.165c0.489-0.037,0.95-0.056,1.369-0.056c0.567,0,1.095,0.039,1.57,0.117
				c0.482,0.078,0.891,0.211,1.24,0.399c0.34,0.189,0.611,0.436,0.805,0.744c0.197,0.308,0.293,0.687,0.293,1.135
				c0,0.681-0.35,1.217-1.035,1.611c0.568,0.204,0.953,0.482,1.162,0.835c0.207,0.353,0.311,0.75,0.311,1.191
				c0,0.895-0.342,1.566-1.027,2.015C34.139,13.106,33.123,13.332,31.768,13.332z M30.748,8.048h0.979
				c0.624,0,1.07-0.074,1.335-0.227c0.268-0.152,0.402-0.395,0.402-0.731c0-0.345-0.143-0.586-0.416-0.726
				c-0.275-0.139-0.683-0.208-1.217-0.208c-0.171,0-0.356,0.001-0.557,0.005c-0.197,0.004-0.371,0.015-0.527,0.03V8.048z
				 M30.748,9.51v2.201c0.145,0.015,0.305,0.028,0.475,0.035c0.175,0.009,0.364,0.013,0.572,0.013c0.601,0,1.09-0.082,1.461-0.245
				c0.371-0.165,0.557-0.467,0.557-0.909c0-0.393-0.156-0.673-0.467-0.842c-0.313-0.167-0.758-0.252-1.333-0.252H30.748z"/>
			<path fill="#5D4037" d="M43.795,6.033c-0.273,0.271-0.605,0.622-0.982,1.052c-0.383,0.428-0.773,0.898-1.178,1.406
				c-0.408,0.506-0.809,1.032-1.201,1.572c-0.4,0.542-0.754,1.058-1.063,1.549h4.564v1.608h-7.047v-1.143
				c0.242-0.417,0.539-0.881,0.887-1.393c0.35-0.512,0.713-1.028,1.092-1.549c0.379-0.52,0.764-1.022,1.158-1.511
				c0.393-0.488,0.756-0.924,1.09-1.308h-4.021v-1.61h6.701V6.033z"/>
		</g>
	</g>
</g>
</svg>
