<?xml version="1.0" encoding="utf-8"?>
<!-- Generator: Adobe Illustrator 21.0.0, SVG Export Plug-In . SVG Version: 6.00 Build 0)  -->
<svg version="1.1" id="图层_1" xmlns="http://www.w3.org/2000/svg" xmlns:xlink="http://www.w3.org/1999/xlink" x="0px" y="0px"
	 viewBox="0 0 64 64" style="enable-background:new 0 0 64 64;" xml:space="preserve">
<style type="text/css">
	.st0{opacity:0.2;enable-background:new    ;}
	.st1{opacity:0.1;enable-background:new    ;}
	.st2{opacity:0.08;enable-background:new    ;}
	.st3{fill:#292676;}
	.st4{fill:url(#SVGID_1_);}
	.st5{fill:#563E8D;fill-opacity:0.3922;}
	.st6{fill:#FFFFFF;fill-opacity:0.3922;}
	.st7{opacity:0.8;fill:#FFFFFF;enable-background:new    ;}
</style>
<polygon class="st0" points="9.2,62 9.2,2 54.8,2 54.8,45.1 37.9,62 "/>
<polygon class="st1" points="10.2,63 10.2,3 55.8,3 55.8,46.1 38.9,63 "/>
<polygon class="st2" points="9.2,64 9.2,2 56.8,2 56.8,46.5 39.3,64 "/>
<polygon class="st1" points="10.2,63 10.2,3 55.8,3 55.8,46.1 38.9,63 "/>
<polygon class="st3" points="10.2,61 10.2,3 53.8,3 53.8,44.7 37.5,61 "/>
<g>
	<g>
		
			<linearGradient id="SVGID_1_" gradientUnits="userSpaceOnUse" x1="421.4697" y1="1576.0303" x2="421.4697" y2="1519.0303" gradientTransform="matrix(1 0 0 1 -389.4697 -1515.5303)">
			<stop  offset="0" style="stop-color:#463488"/>
			<stop  offset="8.000000e-03" style="stop-color:#483489"/>
			<stop  offset="0.1976" style="stop-color:#654290"/>
			<stop  offset="0.4086" style="stop-color:#7C4F95"/>
			<stop  offset="0.6159" style="stop-color:#8F5B9B"/>
			<stop  offset="0.8158" style="stop-color:#99619E"/>
			<stop  offset="1" style="stop-color:#9D639F"/>
		</linearGradient>
		<polygon class="st4" points="10.6,60.5 10.6,3.5 53.4,3.5 53.4,44.5 37.3,60.5 		"/>
	</g>
	<polygon class="st5" points="53.4,44.5 53.4,43.8 36.4,43.8 36.4,60.5 37.3,60.5 	"/>
	<path class="st6" d="M37.3,44.5h16.1l-16,16L37.3,44.5z"/>
</g>
<path class="st7" d="M23.6,17.1L23.6,17.1v7.2l0,0v2.2l0,0V37c-0.4-0.1-0.8-0.1-1.2-0.1c-1.9,0-3.5,1.1-3.5,2.5s1.6,2.5,3.5,2.5
	s3.5-1.1,3.5-2.5l0,0V26.1L39,23.4v10c-0.4-0.1-0.8-0.1-1.2-0.1c-1.9,0-3.5,1.1-3.5,2.5s1.6,2.5,3.5,2.5s3.5-1.1,3.5-2.5l0,0V16.6
	v-3.1L23.6,17.1z M39,21.1l-13.2,2.7v-4.1L39,17.1V21.1z"/>
</svg>
