<?xml version="1.0" encoding="utf-8"?>
<!-- Generator: Adobe Illustrator 16.0.0, SVG Export Plug-In . SVG Version: 6.00 Build 0)  -->
<!DOCTYPE svg PUBLIC "-//W3C//DTD SVG 1.1//EN" "http://www.w3.org/Graphics/SVG/1.1/DTD/svg11.dtd">
<svg version="1.1" id="图层_1" xmlns="http://www.w3.org/2000/svg" xmlns:xlink="http://www.w3.org/1999/xlink" x="0px" y="0px"
	 width="64px" height="64px" viewBox="0 0 64 64" enable-background="new 0 0 64 64" xml:space="preserve">
<g id="surface1_1_">
	<polygon opacity="0.08" enable-background="new    " points="9.25,64 9.25,2 56.75,2 56.75,46.516 39.266,64 	"/>
	<polygon opacity="0.1" enable-background="new    " points="10.25,63 10.25,3 55.75,3 55.75,46.102 38.852,63 	"/>
	<polygon opacity="0.2" enable-background="new    " points="9.25,62 9.25,2 54.75,2 54.75,45.102 37.852,62 	"/>
	
		<linearGradient id="SVGID_1_" gradientUnits="userSpaceOnUse" x1="198.4004" y1="1614.9609" x2="198.4004" y2="1556.9609" gradientTransform="matrix(1 0 0 1 -166.4004 -1553.9609)">
		<stop  offset="0" style="stop-color:#455A64"/>
		<stop  offset="0.0238" style="stop-color:#465C66"/>
		<stop  offset="0.3557" style="stop-color:#556E7A"/>
		<stop  offset="0.6835" style="stop-color:#5D7987"/>
		<stop  offset="1" style="stop-color:#607D8B"/>
	</linearGradient>
	<path fill="url(#SVGID_1_)" d="M37.438,61L53.75,44.688V3h-43.5v58H37.438z"/>
	<polygon fill="#263238" fill-opacity="0.3922" points="36.531,43.781 36.531,61 37.438,61 53.75,44.688 53.75,43.781 	"/>
	<path fill="#FFFFFF" fill-opacity="0.3922" d="M37.438,44.688h16.299L37.438,61V44.688z"/>
	<g opacity="0.8">
		<path fill="#FFFFFF" d="M26.375,16.606c-4.167,0-9.413,3.94-9.363,10.043c0.042,5.908,2.007,9.108,3.512,12.73l4.457-1.852
			c-1.023-2.082-2.361-4.142-2.835-5.176c-1.324-2.885-1.773-4.185-1.66-6.383c0.103-2.124,0.811-3.423,2.113-4.68
			c1.299-1.253,3.104-1.887,5.25-1.589c3.098,0.425,4.729,2.159,5.516,3.742c0.442-0.063,0.896-0.117,1.398-0.113
			c0.389,0,0.782,0.028,1.168,0.113C35.098,20.154,30.998,16.606,26.375,16.606z M28.265,22.345c-1.897-0.124-4.662,0.8-4.645,3.703
			c0.011,2.743,1.731,4.8,3.774,5.625c-0.042-0.69,0.003-1.455,0.113-2.227c-1.108-0.602-1.781-1.675-1.887-3.172
			c-0.128-1.664,1.525-3.345,4.152-2.492c0.425,0.135,0.439-0.598-0.036-0.984C29.426,22.554,28.896,22.388,28.265,22.345z
			 M34.762,24.536c-0.333,0-0.648,0.011-0.945,0.039c0.077,0.294,0.134,0.591,0.152,0.828c0.19-0.01,0.399-0.007,0.602,0
			c0.559,0.028,1.076,0.117,1.551,0.266c0.018-0.312,0.007-0.609,0-0.906C35.671,24.621,35.215,24.54,34.762,24.536z M33.855,26.575
			c-0.298,1.278-1.193,2.847-3.023,3.285c-0.043,0.266-0.085,0.514-0.075,0.68c0.021,0.351,0.096,0.839,0.301,1.359
			c3.133-0.573,4.478-2.771,4.91-5.023c-0.418-0.166-0.896-0.272-1.473-0.301C34.272,26.564,34.05,26.558,33.855,26.575z
			 M28.68,29.899c-0.064,0.584-0.11,1.165-0.075,1.699c0.007,0.128,0.014,0.248,0.036,0.379c0.233,0.032,0.449,0.109,0.68,0.113
			c0.198,0,0.382-0.028,0.566-0.039c-0.184-0.521-0.312-1.016-0.34-1.434c-0.011-0.181-0.014-0.394,0-0.605
			C29.246,29.998,28.948,29.952,28.68,29.899z"/>
		<path fill="#CFD8DC" d="M43.568,16.624c1.509,3.615,3.505,6.801,3.548,12.713c0.046,6.103-5.226,10.05-9.396,10.05
			c-5.045,0-9.484-4.23-9.717-7.731c-0.212-3.161,0.92-7.76,6.772-7.728c2.793,0.018,5.696,2.428,5.71,6.018
			c0.021,3.873-4.871,4.255-6.103,3.268c-0.475-0.383-0.461-1.144-0.043-1.006c2.634,0.85,4.259-0.828,4.139-2.492
			c-0.163-2.269-1.516-3.614-3.94-3.724c-3.498-0.166-4.475,3.207-4.386,4.581c0.109,1.667,1.571,5.094,6.124,5.717
			c2.148,0.298,3.933-0.34,5.229-1.593c1.3-1.257,2.036-2.553,2.142-4.677c0.11-2.194-0.371-3.483-1.695-6.368
			c-0.475-1.034-1.795-3.104-2.821-5.187l4.442-1.841"/>
	</g>
	<g>
		<path fill="#263238" d="M53.25,3.5v40.98L37.23,60.5H24.75h-14v-57H53.25 M53.75,3h-43.5v58h14.5h12.688L53.75,44.688V3L53.75,3z"
			/>
	</g>
</g>
</svg>
