<?xml version="1.0" encoding="utf-8"?>
<!-- Generator: Adobe Illustrator 16.0.0, SVG Export Plug-In . SVG Version: 6.00 Build 0)  -->
<!DOCTYPE svg PUBLIC "-//W3C//DTD SVG 1.1//EN" "http://www.w3.org/Graphics/SVG/1.1/DTD/svg11.dtd">
<svg version="1.1" id="图层_1" xmlns="http://www.w3.org/2000/svg" xmlns:xlink="http://www.w3.org/1999/xlink" x="0px" y="0px"
	 width="64px" height="64px" viewBox="0 0 64 64" enable-background="new 0 0 64 64" xml:space="preserve">
<polygon opacity="0.1" enable-background="new    " points="9.155,64 9.155,2 56.846,2 56.846,46.498 39.343,64 "/>
<polygon opacity="0.1" enable-background="new    " points="10.155,63 10.155,3 55.846,3 55.846,46.084 38.93,63 "/>
<polygon opacity="0.2" enable-background="new    " points="9.155,62 9.155,2 54.846,2 54.846,45.084 37.93,62 "/>
<polygon fill="#3E2723" points="10.148,61 10.148,3 53.852,3 53.852,44.67 37.518,61 "/>
<g>
	<g>
		
			<linearGradient id="SVGID_1_" gradientUnits="userSpaceOnUse" x1="73.6016" y1="-103.4004" x2="73.6016" y2="-160.4009" gradientTransform="matrix(1 0 0 -1 -41.6001 -99.9004)">
			<stop  offset="0" style="stop-color:#785548"/>
			<stop  offset="1" style="stop-color:#9F9E9F"/>
		</linearGradient>
		<polygon fill="url(#SVGID_1_)" points="10.649,60.5 10.649,3.5 53.355,3.5 53.355,44.446 37.479,60.5 		"/>
		<polygon fill="#795548" fill-opacity="0.7" points="53.355,44.469 53.355,43.778 36.447,43.778 36.447,60.5 37.324,60.5 		"/>
		<path opacity="0.39" fill="#FFFFFF" enable-background="new    " d="M37.301,44.469l16.055,0.022L37.324,60.5L37.301,44.469z"/>
	</g>
	<path fill="#FFFFFF" d="M25.909,14.488h-1.447v18.51H23.37v-18.51h-1.44v18.51h-1.091v-18.51h-1.44v18.51h-1.091v-18.51h-1.44
		v18.51H16.49v7.842h9.908v-7.842h-0.489V14.488z M24.958,38.561H17.93v-4.545h7.028V38.561z"/>
	<g>
		<rect x="10.638" y="3.5" opacity="0.8" fill="#FFFFFF" enable-background="new    " width="42.723" height="10.925"/>
		<g enable-background="new    ">
			<path fill="#5D4037" d="M25.371,6.033c-0.274,0.271-0.605,0.622-0.983,1.052c-0.379,0.428-0.772,0.898-1.177,1.406
				c-0.404,0.506-0.805,1.032-1.202,1.572c-0.397,0.542-0.753,1.058-1.062,1.549h4.568v1.608h-7.051v-1.143
				c0.241-0.417,0.538-0.881,0.887-1.393c0.349-0.512,0.713-1.028,1.091-1.549c0.382-0.52,0.768-1.022,1.158-1.511
				c0.394-0.488,0.757-0.924,1.095-1.308h-4.022v-1.61h6.698V6.033z"/>
			<path fill="#5D4037" d="M35.316,8.957c0,0.729-0.111,1.371-0.342,1.924c-0.23,0.553-0.543,1.015-0.936,1.388
				c-0.4,0.373-0.869,0.653-1.418,0.84c-0.548,0.189-1.135,0.284-1.766,0.284c-0.612,0-1.188-0.095-1.732-0.284
				c-0.546-0.188-1.018-0.467-1.422-0.84c-0.408-0.373-0.728-0.835-0.957-1.388c-0.234-0.553-0.353-1.195-0.353-1.924
				c0-0.729,0.122-1.37,0.367-1.922c0.237-0.553,0.564-1.017,0.973-1.396c0.411-0.376,0.883-0.659,1.425-0.846
				c0.538-0.189,1.105-0.284,1.699-0.284c0.612,0,1.188,0.095,1.733,0.284c0.545,0.187,1.018,0.469,1.422,0.846
				c0.408,0.379,0.727,0.843,0.957,1.396C35.201,7.587,35.316,8.228,35.316,8.957z M28.476,8.957c0,0.417,0.056,0.796,0.16,1.13
				c0.111,0.338,0.264,0.625,0.468,0.867c0.2,0.243,0.448,0.428,0.742,0.56c0.293,0.13,0.631,0.197,1.009,0.197
				c0.371,0,0.705-0.067,1.002-0.197c0.297-0.132,0.55-0.317,0.75-0.56c0.203-0.241,0.355-0.529,0.467-0.867
				c0.104-0.334,0.164-0.712,0.164-1.13s-0.061-0.796-0.164-1.136c-0.111-0.339-0.264-0.631-0.467-0.872
				c-0.201-0.241-0.454-0.429-0.75-0.56c-0.297-0.13-0.631-0.197-1.002-0.197c-0.378,0-0.716,0.068-1.009,0.204
				c-0.294,0.135-0.542,0.323-0.742,0.564c-0.204,0.243-0.356,0.533-0.468,0.872C28.532,8.174,28.476,8.549,28.476,8.957z"/>
			<path fill="#5D4037" d="M45.535,8.957c0,0.729-0.119,1.371-0.344,1.924c-0.227,0.553-0.543,1.015-0.939,1.388
				c-0.395,0.373-0.869,0.653-1.418,0.84c-0.545,0.189-1.135,0.284-1.762,0.284c-0.613,0-1.191-0.095-1.734-0.284
				c-0.541-0.188-1.016-0.467-1.424-0.84c-0.402-0.373-0.721-0.835-0.955-1.388c-0.232-0.553-0.352-1.195-0.352-1.924
				c0-0.729,0.125-1.37,0.363-1.922c0.244-0.553,0.568-1.017,0.98-1.396c0.408-0.376,0.883-0.659,1.42-0.846
				c0.539-0.189,1.104-0.284,1.701-0.284c0.611,0,1.189,0.095,1.732,0.284c0.541,0.187,1.016,0.469,1.424,0.846
				c0.402,0.379,0.721,0.843,0.959,1.396C45.416,7.587,45.535,8.228,45.535,8.957z M38.693,8.957c0,0.417,0.051,0.796,0.162,1.13
				c0.104,0.338,0.26,0.625,0.465,0.867c0.203,0.243,0.449,0.428,0.742,0.56c0.293,0.13,0.631,0.197,1.01,0.197
				c0.371,0,0.705-0.067,1.002-0.197c0.299-0.132,0.545-0.317,0.752-0.56c0.201-0.241,0.357-0.529,0.461-0.867
				c0.111-0.334,0.162-0.712,0.162-1.13s-0.051-0.796-0.162-1.136c-0.104-0.339-0.26-0.631-0.461-0.872
				c-0.207-0.241-0.453-0.429-0.752-0.56c-0.297-0.13-0.631-0.197-1.002-0.197c-0.379,0-0.717,0.068-1.01,0.204
				C39.77,6.532,39.523,6.719,39.32,6.96c-0.205,0.243-0.361,0.533-0.465,0.872C38.744,8.174,38.693,8.549,38.693,8.957z"/>
		</g>
	</g>
</g>
</svg>
