<?xml version="1.0" encoding="utf-8"?>
<!-- Generator: Adobe Illustrator 16.0.0, SVG Export Plug-In . SVG Version: 6.00 Build 0)  -->
<!DOCTYPE svg PUBLIC "-//W3C//DTD SVG 1.1//EN" "http://www.w3.org/Graphics/SVG/1.1/DTD/svg11.dtd">
<svg version="1.1" id="图层_1" xmlns="http://www.w3.org/2000/svg" xmlns:xlink="http://www.w3.org/1999/xlink" x="0px" y="0px"
	 width="64px" height="64px" viewBox="0 0 64 64" enable-background="new 0 0 64 64" xml:space="preserve">
<g id="surface1_1_">
	<polygon opacity="0.08" enable-background="new    " points="9.25,64 9.25,2 56.75,2 56.75,46.516 39.266,64 	"/>
	<polygon opacity="0.1" enable-background="new    " points="10.25,63 10.25,3 55.75,3 55.75,46.102 38.852,63 	"/>
	<polygon opacity="0.2" enable-background="new    " points="9.25,62 9.25,2 54.75,2 54.75,45.102 37.852,62 	"/>
	<g>
		
			<linearGradient id="SVGID_1_" gradientUnits="userSpaceOnUse" x1="198.4004" y1="1614.9609" x2="198.4004" y2="1556.9609" gradientTransform="matrix(1 0 0 1 -166.4004 -1553.9609)">
			<stop  offset="0" style="stop-color:#512DA8"/>
			<stop  offset="0.008" style="stop-color:#D32F2F"/>
			<stop  offset="0.3041" style="stop-color:#E33932"/>
			<stop  offset="0.6579" style="stop-color:#F04035"/>
			<stop  offset="1" style="stop-color:#F44336"/>
		</linearGradient>
		<path fill="url(#SVGID_1_)" d="M37.438,61L53.75,44.688V3h-43.5v58H37.438z"/>
		<polygon fill="#B71C1C" fill-opacity="0.3922" points="36.531,43.781 36.531,61 37.438,61 53.75,44.688 53.75,43.781 		"/>
		<path fill="#FFFFFF" fill-opacity="0.3922" d="M37.438,44.688h16.299L37.438,61V44.688z"/>
		<g opacity="0.8">
			<path fill="#FFFFFF" d="M23.964,27.212c0.935,0.042,1.961,0.638,2.726,1.147c2.237,1.486,4.029,3.957,3.674,6.789
				c0.333-0.537,0.354-1.324,0.354-1.947c0-1.989-1.069-4.035-2.422-5.422c-0.446-0.468-0.92-0.998-1.508-1.281l6.662-7.888
				l1.601-1.89c0.12-0.149,0.53-0.481,0.438-0.701c-0.078-0.198-0.46-0.326-0.645-0.411c-0.205-0.092-0.573-0.29-0.807-0.205
				c-0.227,0.085-0.425,0.418-0.58,0.602l-1.226,1.431l-5.763,6.761l-1.707,1.997C24.495,26.511,24.141,26.831,23.964,27.212z"/>
			<path fill="#FFFFFF" d="M20.19,29.52c2.287-2.436,4.312-5.154,6.507-7.682l2.768-3.278c0.637-0.729,1.395-1.473,1.905-2.301
				c-0.333-0.099-1.091-0.163-1.409,0c-0.34,0.17-0.623,0.638-0.871,0.921l-1.579,1.791c-0.227,0.276-0.502,0.701-0.821,0.871
				c-0.467,0.233-1.31,0.142-1.82,0.155l-1.862,0.149c-1.388,0.099-2.974,0.099-3.661,1.593c-0.552,1.189-0.467,2.896-0.523,4.191
				c-0.113,2.719-0.206,5.479,0.049,8.192c0.106,1.168-0.021,2.646,0.574,3.688c0.58,1.02,1.699,1.24,2.754,1.338
				c2.046,0.191,4.496,0.135,6.146-1.303c1.961-1.705,1.685-4.75-0.099-6.427C26.301,29.577,22.725,28.65,20.19,29.52z"/>
			<path fill="#FFFFFF" d="M27.086,39.396c0.375,0.164,1.005,0.107,1.416,0.107l2.57,0.049c3.257,0,6.472-0.205,9.721-0.354
				c1.544-0.07,3.285-0.127,3.923-1.848c0.411-1.092,0.333-2.486,0.411-3.633c0.184-2.662,0.254-5.388,0.007-8.042
				c-0.12-1.239,0.028-2.79-0.51-3.937c-0.829-1.784-3.342-1.65-4.991-1.692c-0.411-0.014-1.169-0.255-1.544-0.071
				c-0.283,0.134-0.453,0.871-0.588,1.147l-1.458,3.222c-1.728,3.815-3.342,7.724-5.211,11.469
				C30.103,37.266,28.793,39.1,27.086,39.396z"/>
		</g>
		<g>
			<path fill="#B71C1C" d="M53.25,3.5v40.98L37.23,60.5H24.75h-14v-57H53.25 M53.75,3h-43.5v58h14.5h12.688L53.75,44.688V3L53.75,3z
				"/>
		</g>
	</g>
</g>
</svg>
