<?xml version="1.0" encoding="utf-8"?>
<!-- Generator: Adobe Illustrator 16.0.0, SVG Export Plug-In . SVG Version: 6.00 Build 0)  -->
<!DOCTYPE svg PUBLIC "-//W3C//DTD SVG 1.1//EN" "http://www.w3.org/Graphics/SVG/1.1/DTD/svg11.dtd">
<svg version="1.1" id="图层_1" xmlns="http://www.w3.org/2000/svg" xmlns:xlink="http://www.w3.org/1999/xlink" x="0px" y="0px"
	 width="64px" height="64px" viewBox="0 0 64 64" enable-background="new 0 0 64 64" xml:space="preserve">
<polygon opacity="0.1" enable-background="new    " points="9.155,64 9.155,2 56.846,2 56.846,46.498 39.343,64 "/>
<polygon opacity="0.1" enable-background="new    " points="10.155,63 10.155,3 55.846,3 55.846,46.084 38.93,63 "/>
<polygon opacity="0.2" enable-background="new    " points="9.155,62 9.155,2 54.846,2 54.846,45.084 37.93,62 "/>
<polygon fill="#3E2723" points="10.148,61 10.148,3 53.852,3 53.852,44.67 37.518,61 "/>
<g>
	<g>
		
			<linearGradient id="SVGID_1_" gradientUnits="userSpaceOnUse" x1="73.6016" y1="-103.4004" x2="73.6016" y2="-160.4009" gradientTransform="matrix(1 0 0 -1 -41.6001 -99.9004)">
			<stop  offset="0" style="stop-color:#785548"/>
			<stop  offset="1" style="stop-color:#9F9E9F"/>
		</linearGradient>
		<polygon fill="url(#SVGID_1_)" points="10.649,60.5 10.649,3.5 53.355,3.5 53.355,44.446 37.479,60.5 		"/>
		<polygon fill="#795548" fill-opacity="0.7" points="53.355,44.469 53.355,43.778 36.447,43.778 36.447,60.5 37.324,60.5 		"/>
		<path opacity="0.39" fill="#FFFFFF" enable-background="new    " d="M37.301,44.469l16.055,0.022L37.324,60.5L37.301,44.469z"/>
	</g>
	<path fill="#FFFFFF" d="M25.909,14.488h-1.447v18.51H23.37v-18.51h-1.44v18.51h-1.091v-18.51h-1.44v18.51h-1.091v-18.51h-1.44
		v18.51H16.49v7.842h9.908v-7.842h-0.489V14.488z M24.958,38.561H17.93v-4.545h7.028V38.561z"/>
	<g>
		<rect x="10.638" y="3.5" opacity="0.8" fill="#FFFFFF" enable-background="new    " width="42.723" height="10.925"/>
		<g enable-background="new    ">
			<path fill="#5D4037" d="M27.441,4.725v1.633h-2.705v6.88h-2.015v-6.88h-2.705V4.725H27.441z"/>
			<path fill="#5D4037" d="M32.811,6.198c-0.942,0-1.618,0.249-2.041,0.742c-0.416,0.498-0.624,1.176-0.624,2.034
				c0,0.419,0.053,0.798,0.156,1.139c0.104,0.338,0.26,0.631,0.46,0.876c0.208,0.249,0.468,0.438,0.779,0.571
				c0.312,0.137,0.676,0.204,1.083,0.204c0.23,0,0.416-0.003,0.58-0.011c0.154-0.011,0.297-0.026,0.422-0.052V8.74h2.012v4.216
				c-0.238,0.089-0.623,0.186-1.158,0.29c-0.541,0.1-1.195,0.152-1.981,0.152c-0.676,0-1.284-0.096-1.834-0.293
				c-0.541-0.197-1.009-0.482-1.402-0.861c-0.386-0.375-0.683-0.839-0.898-1.388c-0.207-0.549-0.318-1.176-0.318-1.881
				c0-0.712,0.118-1.343,0.355-1.889c0.23-0.549,0.55-1.017,0.95-1.396c0.408-0.382,0.884-0.672,1.433-0.868
				c0.549-0.197,1.128-0.293,1.752-0.293c0.422,0,0.801,0.026,1.143,0.078c0.342,0.056,0.639,0.115,0.883,0.186
				c0.244,0.07,0.445,0.141,0.609,0.215c0.154,0.074,0.273,0.13,0.34,0.17l-0.586,1.537c-0.273-0.138-0.586-0.26-0.949-0.36
				C33.619,6.25,33.234,6.198,32.811,6.198z"/>
			<path fill="#5D4037" d="M43.84,6.049c-0.275,0.271-0.602,0.624-0.98,1.054c-0.385,0.427-0.771,0.898-1.18,1.406
				c-0.408,0.505-0.809,1.032-1.201,1.57c-0.402,0.542-0.75,1.058-1.063,1.551h4.564v1.606h-7.043v-1.143
				c0.238-0.416,0.535-0.88,0.883-1.392c0.35-0.512,0.713-1.028,1.092-1.551c0.379-0.52,0.764-1.021,1.158-1.51
				c0.393-0.486,0.756-0.924,1.09-1.307h-4.021v-1.61h6.701V6.049z"/>
		</g>
	</g>
</g>
</svg>
