<?xml version="1.0" encoding="utf-8"?>
<!-- Generator: Adobe Illustrator 16.0.0, SVG Export Plug-In . SVG Version: 6.00 Build 0)  -->
<!DOCTYPE svg PUBLIC "-//W3C//DTD SVG 1.1//EN" "http://www.w3.org/Graphics/SVG/1.1/DTD/svg11.dtd">
<svg version="1.1" id="图层_1" xmlns="http://www.w3.org/2000/svg" xmlns:xlink="http://www.w3.org/1999/xlink" x="0px" y="0px"
	 width="64px" height="64px" viewBox="0 0 64 64" enable-background="new 0 0 64 64" xml:space="preserve">
<polygon opacity="0.1" enable-background="new    " points="9.155,64 9.155,2 56.846,2 56.846,46.498 39.343,64 "/>
<polygon opacity="0.1" enable-background="new    " points="10.155,63 10.155,3 55.846,3 55.846,46.084 38.93,63 "/>
<polygon opacity="0.2" enable-background="new    " points="9.155,62 9.155,2 54.846,2 54.846,45.084 37.93,62 "/>
<polygon fill="#3E2723" points="10.148,61 10.148,3 53.852,3 53.852,44.67 37.518,61 "/>
<g>
	<g>
		
			<linearGradient id="SVGID_1_" gradientUnits="userSpaceOnUse" x1="73.6016" y1="-103.4004" x2="73.6016" y2="-160.4009" gradientTransform="matrix(1 0 0 -1 -41.6001 -99.9004)">
			<stop  offset="0" style="stop-color:#785548"/>
			<stop  offset="1" style="stop-color:#9F9E9F"/>
		</linearGradient>
		<polygon fill="url(#SVGID_1_)" points="10.649,60.5 10.649,3.5 53.355,3.5 53.355,44.446 37.479,60.5 		"/>
		<polygon fill="#795548" fill-opacity="0.7" points="53.355,44.469 53.355,43.778 36.447,43.778 36.447,60.5 37.324,60.5 		"/>
		<path opacity="0.39" fill="#FFFFFF" enable-background="new    " d="M37.301,44.469l16.055,0.022L37.324,60.5L37.301,44.469z"/>
	</g>
	<path fill="#FFFFFF" d="M25.909,14.488h-1.447v18.51H23.37v-18.51h-1.44v18.51h-1.091v-18.51h-1.44v18.51h-1.091v-18.51h-1.44
		v18.51H16.49v7.842h9.908v-7.842h-0.489V14.488z M24.958,38.561H17.93v-4.545h7.028V38.561z"/>
	<g>
		<rect x="10.638" y="3.5" opacity="0.8" fill="#FFFFFF" enable-background="new    " width="42.723" height="10.925"/>
		<g enable-background="new    ">
			<path fill="#5D4037" d="M22.617,6.181c-0.938,0-1.618,0.247-2.037,0.742c-0.419,0.497-0.627,1.174-0.627,2.034
				c0,0.417,0.052,0.798,0.156,1.137c0.104,0.34,0.26,0.633,0.464,0.878c0.208,0.247,0.467,0.436,0.775,0.571
				c0.312,0.135,0.675,0.202,1.087,0.202c0.227,0,0.416-0.003,0.575-0.011c0.16-0.009,0.301-0.024,0.423-0.05V8.723h2.016v4.216
				c-0.241,0.089-0.628,0.186-1.162,0.288c-0.538,0.102-1.195,0.154-1.981,0.154c-0.672,0-1.28-0.098-1.83-0.295
				c-0.545-0.197-1.013-0.482-1.403-0.859c-0.386-0.376-0.687-0.84-0.898-1.39c-0.211-0.547-0.319-1.174-0.319-1.879
				c0-0.712,0.119-1.343,0.353-1.891c0.23-0.549,0.549-1.015,0.954-1.396c0.408-0.38,0.883-0.67,1.432-0.867
				c0.546-0.196,1.128-0.295,1.752-0.295c0.423,0,0.801,0.028,1.143,0.08c0.342,0.054,0.635,0.115,0.88,0.186
				c0.245,0.068,0.449,0.141,0.608,0.215c0.159,0.073,0.274,0.13,0.342,0.171l-0.583,1.536c-0.274-0.139-0.59-0.26-0.95-0.362
				C23.43,6.231,23.04,6.181,22.617,6.181z"/>
			<path fill="#5D4037" d="M33.65,6.033c-0.279,0.271-0.605,0.622-0.984,1.052c-0.378,0.428-0.772,0.898-1.18,1.406
				c-0.4,0.506-0.802,1.032-1.202,1.572c-0.394,0.542-0.75,1.058-1.062,1.549h4.573v1.608h-7.051v-1.143
				c0.241-0.417,0.534-0.881,0.883-1.393c0.353-0.512,0.717-1.028,1.095-1.549c0.383-0.52,0.769-1.022,1.158-1.511
				c0.394-0.488,0.757-0.924,1.095-1.308h-4.022v-1.61h6.699V6.033z"/>
			<path fill="#5D4037" d="M35.211,4.706h2.02v8.515h-2.02V4.706z"/>
			<path fill="#5D4037" d="M41.988,4.608c1.34,0,2.363,0.224,3.08,0.669c0.717,0.447,1.076,1.178,1.076,2.193
				c0,1.024-0.363,1.763-1.092,2.217c-0.719,0.455-1.758,0.683-3.102,0.683H41.32v2.85h-2.02V4.829
				c0.438-0.082,0.906-0.139,1.396-0.171C41.186,4.625,41.617,4.608,41.988,4.608z M42.121,6.242c-0.148,0-0.293,0.004-0.434,0.013
				c-0.145,0.007-0.264,0.015-0.367,0.024v2.457h0.631c0.697,0,1.225-0.089,1.58-0.271c0.35-0.18,0.527-0.516,0.527-1.008
				c0-0.237-0.045-0.432-0.133-0.588c-0.09-0.156-0.223-0.282-0.391-0.375c-0.166-0.095-0.375-0.16-0.611-0.197
				C42.678,6.261,42.41,6.242,42.121,6.242z"/>
		</g>
	</g>
</g>
</svg>
