<?xml version="1.0" encoding="utf-8"?>
<!-- Generator: Adobe Illustrator 16.0.0, SVG Export Plug-In . SVG Version: 6.00 Build 0)  -->
<!DOCTYPE svg PUBLIC "-//W3C//DTD SVG 1.1//EN" "http://www.w3.org/Graphics/SVG/1.1/DTD/svg11.dtd">
<svg version="1.1" id="图层_1" xmlns="http://www.w3.org/2000/svg" xmlns:xlink="http://www.w3.org/1999/xlink" x="0px" y="0px"
	 width="64px" height="64px" viewBox="0 0 64 64" enable-background="new 0 0 64 64" xml:space="preserve">
<g id="surface1_1_">
	<polygon opacity="0.08" enable-background="new    " points="9.25,64 9.25,2 56.75,2 56.75,46.516 39.266,64 	"/>
	<polygon opacity="0.1" enable-background="new    " points="10.25,63 10.25,3 55.75,3 55.75,46.102 38.852,63 	"/>
	<polygon opacity="0.2" enable-background="new    " points="9.25,62 9.25,2 54.75,2 54.75,45.102 37.852,62 	"/>
	<g>
		
			<linearGradient id="SVGID_1_" gradientUnits="userSpaceOnUse" x1="240.001" y1="-1714.9512" x2="240.001" y2="-1656.9512" gradientTransform="matrix(1 0 0 -1 -208.0005 -1653.9512)">
			<stop  offset="0" style="stop-color:#F57C00"/>
			<stop  offset="0.099" style="stop-color:#F78B0C"/>
			<stop  offset="0.3289" style="stop-color:#FAA823"/>
			<stop  offset="0.5576" style="stop-color:#FDBC33"/>
			<stop  offset="0.7827" style="stop-color:#FEC93D"/>
			<stop  offset="1" style="stop-color:#FFCD40"/>
		</linearGradient>
		<path fill="url(#SVGID_1_)" d="M37.438,61L53.75,44.688V3h-43.5v58H37.438z"/>
		<polygon fill="#EE6F0B" fill-opacity="0.3922" points="36.531,43.781 36.531,61 37.438,61 53.75,44.688 53.75,43.781 		"/>
		<path fill="#FFFFFF" fill-opacity="0.3922" d="M37.438,44.688h16.299L37.438,61V44.688z"/>
		<g>
			<path fill="#EE6F0B" d="M53.25,3.5v40.98L37.23,60.5H24.75h-14v-57H53.25 M53.75,3h-43.5v58h14.5h12.688L53.75,44.688V3L53.75,3z
				"/>
		</g>
	</g>
	<g opacity="0.8">
		<path fill="#FFFFFF" d="M28.081,35.205c0,0-1.144,0.634,0.811,0.847c2.372,0.258,3.579,0.223,6.188-0.248
			c0,0,0.68,0.403,1.639,0.754C30.874,38.937,23.493,36.42,28.081,35.205"/>
		<path fill="#FFFFFF" d="M27.362,32.107c0,0-1.281,0.903,0.673,1.087c2.535,0.248,4.527,0.27,7.982-0.36
			c0,0,0.481,0.463,1.229,0.711C30.184,35.51,22.304,33.701,27.362,32.107"/>
		<path fill="#FFFFFF" d="M33.392,26.854c1.437,1.564-0.386,2.984-0.386,2.984s3.66-1.799,1.982-4.036
			c-1.568-2.092-2.775-3.125,3.741-6.711C38.729,19.091,28.506,21.516,33.392,26.854"/>
		<path fill="#FFFFFF" d="M41.115,37.499c0,0,0.85,0.666-0.931,1.172c-3.374,0.967-14.04,1.261-17.007,0.036
			c-1.059-0.433,0.932-1.052,1.568-1.172c0.655-0.139,1.023-0.11,1.023-0.11c-1.183-0.793-7.66,1.551-3.281,2.224
			C34.407,41.482,44.213,38.827,41.115,37.499"/>
		<path fill="#FFFFFF" d="M28.627,28.9c0,0-5.432,1.215-1.92,1.657c1.477,0.194,4.426,0.148,7.184-0.074
			c2.237-0.174,4.496-0.553,4.496-0.553s-0.793,0.315-1.363,0.694c-5.512,1.373-16.16,0.726-13.098-0.677
			C26.523,28.763,28.627,28.9,28.627,28.9"/>
		<path fill="#FFFFFF" d="M38.361,34.052c5.604-2.755,3.013-5.409,1.207-5.052c-0.442,0.085-0.637,0.166-0.637,0.166
			s0.155-0.248,0.478-0.351c3.579-1.196,6.326,3.512-1.161,5.385C38.248,34.2,38.34,34.126,38.361,34.052"/>
		<path fill="#FFFFFF" d="M34.988,13.311c0,0,3.104,2.941-2.942,7.469c-4.85,3.629-1.108,5.696,0,8.064
			c-2.828-2.425-4.913-4.553-3.522-6.535C30.57,19.396,36.241,17.987,34.988,13.311"/>
		<path fill="#FFFFFF" d="M29.179,41.539c5.374,0.321,13.633-0.188,13.838-2.592c0,0-0.379,0.913-4.453,1.639
			c-4.592,0.811-10.252,0.719-13.604,0.195C24.959,40.781,25.649,41.326,29.179,41.539"/>
	</g>
</g>
</svg>
