<?xml version="1.0" encoding="utf-8"?>
<!-- Generator: Adobe Illustrator 16.0.0, SVG Export Plug-In . SVG Version: 6.00 Build 0)  -->
<!DOCTYPE svg PUBLIC "-//W3C//DTD SVG 1.1//EN" "http://www.w3.org/Graphics/SVG/1.1/DTD/svg11.dtd">
<svg version="1.1" id="图层_1" xmlns="http://www.w3.org/2000/svg" xmlns:xlink="http://www.w3.org/1999/xlink" x="0px" y="0px"
	 width="64px" height="64px" viewBox="0 0 64 64" enable-background="new 0 0 64 64" xml:space="preserve">
<polygon opacity="0.1" enable-background="new    " points="9.155,64 9.155,2 56.846,2 56.846,46.498 39.343,64 "/>
<polygon opacity="0.1" enable-background="new    " points="10.155,63 10.155,3 55.846,3 55.846,46.084 38.93,63 "/>
<polygon opacity="0.2" enable-background="new    " points="9.155,62 9.155,2 54.846,2 54.846,45.084 37.93,62 "/>
<polygon fill="#3E2723" points="10.148,61 10.148,3 53.852,3 53.852,44.67 37.518,61 "/>
<g>
	<g>
		
			<linearGradient id="SVGID_1_" gradientUnits="userSpaceOnUse" x1="73.6016" y1="-103.4004" x2="73.6016" y2="-160.4009" gradientTransform="matrix(1 0 0 -1 -41.6001 -99.9004)">
			<stop  offset="0" style="stop-color:#785548"/>
			<stop  offset="1" style="stop-color:#9F9E9F"/>
		</linearGradient>
		<polygon fill="url(#SVGID_1_)" points="10.649,60.5 10.649,3.5 53.355,3.5 53.355,44.446 37.479,60.5 		"/>
		<polygon fill="#795548" fill-opacity="0.7" points="53.355,44.469 53.355,43.778 36.447,43.778 36.447,60.5 37.324,60.5 		"/>
		<path opacity="0.39" fill="#FFFFFF" enable-background="new    " d="M37.301,44.469l16.055,0.022L37.324,60.5L37.301,44.469z"/>
	</g>
	<path fill="#FFFFFF" d="M25.909,14.488h-1.447v18.51H23.37v-18.51h-1.44v18.51h-1.091v-18.51h-1.44v18.51h-1.091v-18.51h-1.44
		v18.51H16.49v7.842h9.908v-7.842h-0.489V14.488z M24.958,38.561H17.93v-4.545h7.028V38.561z"/>
	<g>
		<rect x="10.638" y="3.5" opacity="0.8" fill="#FFFFFF" enable-background="new    " width="42.723" height="10.925"/>
		<g enable-background="new    ">
			<path fill="#5D4037" d="M17.885,11.761c0.282,0,0.52-0.022,0.705-0.067c0.186-0.048,0.334-0.111,0.445-0.186
				c0.111-0.082,0.189-0.171,0.234-0.278c0.041-0.108,0.063-0.227,0.063-0.356c0-0.278-0.137-0.51-0.416-0.694
				c-0.274-0.184-0.75-0.382-1.421-0.596c-0.293-0.098-0.586-0.211-0.879-0.337C16.323,9.12,16.06,8.959,15.83,8.768
				c-0.234-0.193-0.423-0.427-0.571-0.701c-0.145-0.275-0.219-0.609-0.219-1c0-0.394,0.078-0.748,0.234-1.063
				s0.375-0.584,0.657-0.805c0.286-0.221,0.631-0.392,1.036-0.51c0.404-0.119,0.864-0.178,1.373-0.178
				c0.601,0,1.124,0.062,1.562,0.186c0.442,0.123,0.802,0.258,1.087,0.405l-0.583,1.512c-0.249-0.125-0.527-0.232-0.835-0.327
				c-0.304-0.095-0.672-0.141-1.102-0.141c-0.486,0-0.832,0.063-1.043,0.191c-0.211,0.126-0.315,0.321-0.315,0.583
				c0,0.156,0.037,0.288,0.115,0.393c0.078,0.106,0.186,0.202,0.33,0.29c0.141,0.085,0.304,0.163,0.49,0.232
				c0.186,0.07,0.39,0.143,0.616,0.215c0.464,0.165,0.868,0.327,1.213,0.486c0.345,0.16,0.635,0.345,0.861,0.559
				c0.23,0.213,0.401,0.464,0.512,0.75c0.111,0.288,0.167,0.635,0.167,1.043c0,0.794-0.293,1.41-0.879,1.848
				c-0.586,0.441-1.47,0.661-2.65,0.661c-0.397,0-0.757-0.022-1.076-0.067c-0.319-0.044-0.601-0.104-0.846-0.167
				c-0.245-0.063-0.457-0.137-0.635-0.211c-0.174-0.071-0.323-0.141-0.445-0.208l0.571-1.521c0.268,0.141,0.594,0.264,0.987,0.375
				C16.835,11.701,17.314,11.761,17.885,11.761z"/>
			<path fill="#5D4037" d="M28.373,4.706h2.015v8.517h-2.015V9.608h-3.388v3.614h-2.019V4.706h2.019v3.256h3.388V4.706z"/>
			<path fill="#5D4037" d="M38.471,13.223c-0.098-0.297-0.205-0.601-0.32-0.913c-0.115-0.312-0.23-0.623-0.342-0.931h-3.502
				c-0.111,0.308-0.227,0.62-0.342,0.931c-0.111,0.312-0.215,0.616-0.314,0.913h-2.097c0.337-0.92,0.66-1.767,0.96-2.546
				c0.301-0.777,0.598-1.51,0.887-2.199c0.289-0.688,0.58-1.341,0.857-1.959c0.283-0.618,0.576-1.223,0.877-1.813h1.91
				c0.297,0.59,0.586,1.195,0.873,1.813c0.285,0.618,0.574,1.271,0.863,1.959c0.289,0.688,0.586,1.421,0.891,2.199
				c0.305,0.779,0.623,1.625,0.961,2.546H38.471z M36.051,6.636c-0.049,0.123-0.111,0.292-0.201,0.505
				c-0.084,0.213-0.186,0.458-0.297,0.736c-0.111,0.28-0.232,0.586-0.371,0.922c-0.133,0.336-0.273,0.687-0.416,1.056h2.561
				c-0.133-0.369-0.266-0.722-0.396-1.06c-0.129-0.336-0.248-0.644-0.367-0.922c-0.115-0.28-0.215-0.525-0.305-0.739
				C36.174,6.923,36.102,6.756,36.051,6.636z"/>
			<path fill="#5D4037" d="M44.408,4.608c1.342,0,2.375,0.228,3.09,0.683c0.717,0.455,1.072,1.162,1.072,2.119
				c0,0.597-0.141,1.083-0.43,1.457c-0.289,0.373-0.705,0.664-1.246,0.877c0.178,0.213,0.367,0.457,0.563,0.731
				c0.201,0.275,0.398,0.559,0.594,0.863c0.193,0.297,0.379,0.609,0.561,0.932s0.35,0.642,0.506,0.954h-2.256
				c-0.168-0.282-0.332-0.564-0.502-0.85c-0.166-0.286-0.342-0.564-0.52-0.835c-0.178-0.271-0.35-0.527-0.527-0.769
				c-0.17-0.241-0.342-0.46-0.516-0.657h-0.998v3.11h-2.016V4.829c0.441-0.082,0.895-0.139,1.363-0.171
				C43.617,4.625,44.037,4.608,44.408,4.608z M44.525,6.242c-0.148,0-0.281,0.004-0.393,0.013c-0.119,0.007-0.23,0.015-0.334,0.024
				v2.31h0.572c0.756,0,1.299-0.091,1.629-0.271c0.326-0.18,0.492-0.488,0.492-0.922c0-0.417-0.17-0.714-0.5-0.891
				S45.172,6.242,44.525,6.242z"/>
		</g>
	</g>
</g>
</svg>
