<?xml version="1.0" encoding="utf-8"?>
<!-- Generator: Adobe Illustrator 21.0.0, SVG Export Plug-In . SVG Version: 6.00 Build 0)  -->
<svg version="1.1" id="图层_1" xmlns="http://www.w3.org/2000/svg" xmlns:xlink="http://www.w3.org/1999/xlink" x="0px" y="0px"
	 viewBox="0 0 64 64" style="enable-background:new 0 0 64 64;" xml:space="preserve">
<style type="text/css">
	.st0{opacity:0.1;enable-background:new    ;}
	.st1{opacity:0.2;enable-background:new    ;}
	.st2{fill:#5F7B89;}
	.st3{fill:url(#SVGID_1_);}
	.st4{fill:#455963;fill-opacity:0.7;}
	.st5{fill:#8DA1AC;}
	.st6{fill:#607D8B;}
	.st7{font-family:'Ubuntu-Italic';}
	.st8{font-size:32.3px;}
</style>
<polygon class="st0" points="9.2,64 9.2,2 56.8,2 56.8,46.5 39.3,64 "/>
<polygon class="st0" points="10.2,63 10.2,3 55.8,3 55.8,46.1 38.9,63 "/>
<polygon class="st1" points="9.2,62 9.2,2 54.8,2 54.8,45.1 37.9,62 "/>
<polygon class="st2" points="10.2,61 10.2,3 53.8,3 53.8,44.7 37.5,61 "/>
<g>
	<g>
		<g>
			<g>
				<g>
					<g>
						<g>
							
								<linearGradient id="SVGID_1_" gradientUnits="userSpaceOnUse" x1="156.7998" y1="1973.2012" x2="156.7998" y2="2030.2012" gradientTransform="matrix(1 0 0 1 -124.7998 -1969.7012)">
								<stop  offset="0" style="stop-color:#F6F5F5"/>
								<stop  offset="0.341" style="stop-color:#F1F2F3"/>
								<stop  offset="0.6434" style="stop-color:#E7EAEB"/>
								<stop  offset="0.9302" style="stop-color:#D5DBDF"/>
								<stop  offset="1" style="stop-color:#CFD7DB"/>
							</linearGradient>
							<polygon class="st3" points="10.6,60.5 10.6,3.5 53.4,3.5 53.4,44.5 37.3,60.5 							"/>
						</g>
						<polygon class="st4" points="53.4,44.5 53.4,43.8 36.4,43.8 36.4,60.5 37.3,60.5 						"/>
						<path class="st5" d="M37.3,44.5h16.1l-16,16L37.3,44.5z"/>
					</g>
				</g>
			</g>
		</g>
	</g>
	<text transform="matrix(1 0 0 1 19.6992 37.792)" class="st6 st7 st8">A</text>
</g>
</svg>
