<?xml version="1.0" encoding="utf-8"?>
<!-- Generator: Adobe Illustrator 21.0.0, SVG Export Plug-In . SVG Version: 6.00 Build 0)  -->
<svg version="1.1" id="图层_1" xmlns="http://www.w3.org/2000/svg" xmlns:xlink="http://www.w3.org/1999/xlink" x="0px" y="0px"
	 viewBox="0 0 64 64" style="enable-background:new 0 0 64 64;" xml:space="preserve">
<style type="text/css">
	.st0{opacity:0.1;enable-background:new    ;}
	.st1{opacity:0.2;enable-background:new    ;}
	.st2{fill:#455A64;}
	.st3{fill:url(#SVGID_1_);}
	.st4{fill:#455A64;fill-opacity:0.39;}
	.st5{fill:#FFFFFF;fill-opacity:0.39;}
	.st6{opacity:0.8;fill:#FFFFFF;enable-background:new    ;}
</style>
<polygon class="st0" points="9.2,64 9.2,2 56.8,2 56.8,46.5 39.3,64 "/>
<polygon class="st0" points="10.2,63 10.2,3 55.8,3 55.8,46.1 38.9,63 "/>
<polygon class="st1" points="9.2,62 9.2,2 54.8,2 54.8,45.1 37.9,62 "/>
<polygon class="st2" points="10.1,61 10.1,3 53.9,3 53.9,44.7 37.5,61 "/>
<g>
	<g>
		<g>
			
				<linearGradient id="SVGID_1_" gradientUnits="userSpaceOnUse" x1="73.6001" y1="-805.4004" x2="73.6001" y2="-862.4004" gradientTransform="matrix(1 0 0 -1 -41.6001 -801.9004)">
				<stop  offset="0" style="stop-color:#90A4AE"/>
				<stop  offset="0.1378" style="stop-color:#849AA5"/>
				<stop  offset="0.4226" style="stop-color:#708A97"/>
				<stop  offset="0.7096" style="stop-color:#64808E"/>
				<stop  offset="1" style="stop-color:#607D8B"/>
			</linearGradient>
			<polygon class="st3" points="10.6,60.5 10.6,3.5 53.4,3.5 53.4,44.5 37.3,60.5 			"/>
		</g>
		<polygon class="st4" points="53.4,44.5 53.4,43.8 36.4,43.8 36.4,60.5 37.3,60.5 		"/>
		<path class="st5" d="M37.3,44.5h16.1l-16,16L37.3,44.5z"/>
	</g>
	<path class="st6" d="M42,33c0-0.1,0.1-0.1,0.1-0.2c0-0.1,0.1-0.2,0.2-0.4l0,0c0.3-0.6,0.5-1.3,0.7-2h2.7V25H43
		c-0.3-1.1-0.7-2.2-1.3-3.1l1.9-1.9l-3.8-3.8l-1.9,1.9c-1-0.6-2-1-3.2-1.3l0,0v-2.7h-5.4v2.7l0,0c-1.1,0.3-2.2,0.7-3.2,1.3l-1.9-1.9
		L20.4,20l1.9,1.9c-0.6,1-1,2-1.3,3.1h-2.7v5.4H21c0.3,1.1,0.7,2.2,1.3,3.2l0,0l-1.9,1.9l3.8,3.8l1.9-1.9c1,0.6,2,1,3.2,1.3v2.7h5.4
		v-2.7l0,0l0,0c1.1-0.3,2.2-0.7,3.2-1.3l1.9,1.9l3.8-3.8l-1.9-1.9l0,0c0.1-0.1,0.1-0.2,0.2-0.3C41.9,33.2,42,33.1,42,33z M32,36.3
		c-4.8,0-8.6-3.9-8.6-8.6s3.9-8.6,8.6-8.6c0.9,0,1.9,0.1,2.7,0.4l0,0c3.4,1.1,5.9,4.4,5.9,8.2c0,0.2,0,0.5,0,0.7l0,0
		c0,0.7-0.2,1.4-0.4,2l0,0c-0.1,0.4-0.3,0.8-0.5,1.2c0,0,0,0,0,0.1c-0.1,0.2-0.2,0.4-0.3,0.5l0,0c-0.1,0.2-0.2,0.3-0.3,0.5l0,0
		c-0.1,0.2-0.2,0.3-0.4,0.5c0,0,0,0-0.1,0.1c-0.3,0.3-0.5,0.6-0.9,0.9c0,0,0,0-0.1,0.1s-0.3,0.3-0.5,0.4c0,0,0,0-0.1,0
		c-0.1,0.1-0.3,0.2-0.5,0.3c0,0,0,0-0.1,0c-0.2,0.1-0.3,0.2-0.5,0.3c0,0-0.1,0-0.1,0.1c-0.2,0.1-0.4,0.2-0.5,0.2c0,0,0,0-0.1,0
		c-0.2,0.1-0.3,0.1-0.5,0.2C33.9,36.2,33,36.3,32,36.3z"/>
</g>
</svg>
