<?xml version="1.0" encoding="utf-8"?>
<!-- Generator: Adobe Illustrator 21.0.0, SVG Export Plug-In . SVG Version: 6.00 Build 0)  -->
<svg version="1.1" id="图层_1" xmlns="http://www.w3.org/2000/svg" xmlns:xlink="http://www.w3.org/1999/xlink" x="0px" y="0px"
	 viewBox="0 0 64 64" style="enable-background:new 0 0 64 64;" xml:space="preserve">
<style type="text/css">
	.st0{opacity:0.08;enable-background:new    ;}
	.st1{opacity:0.1;enable-background:new    ;}
	.st2{opacity:0.2;enable-background:new    ;}
	.st3{fill:url(#SVGID_1_);}
	.st4{fill:#EE6F0B;fill-opacity:0.3922;}
	.st5{fill:#FFFFFF;fill-opacity:0.3922;}
	.st6{fill:#B71C1C;fill-opacity:0.1961;}
	.st7{fill:#FFE0B2;}
	.st8{opacity:0.8;}
	.st9{fill:#FFFFFF;}
	.st10{fill:#EE6F0B;}
</style>
<g id="surface1">
	<g id="surface1_1_">
		<polygon class="st0" points="9.3,64 9.3,2 56.8,2 56.8,46.5 39.3,64 		"/>
		<polygon class="st1" points="10.3,63 10.3,3 55.8,3 55.8,46.1 38.9,63 		"/>
		<polygon class="st2" points="9.3,62 9.3,2 54.8,2 54.8,45.1 37.9,62 		"/>
		<g>
			
				<linearGradient id="SVGID_1_" gradientUnits="userSpaceOnUse" x1="323.2012" y1="-3193.9316" x2="323.2012" y2="-3135.9316" gradientTransform="matrix(1 0 0 -1 -291.2012 -3132.9316)">
				<stop  offset="0" style="stop-color:#F57C00"/>
				<stop  offset="0.099" style="stop-color:#F78B0C"/>
				<stop  offset="0.3289" style="stop-color:#FAA823"/>
				<stop  offset="0.5576" style="stop-color:#FDBC33"/>
				<stop  offset="0.7827" style="stop-color:#FEC93D"/>
				<stop  offset="1" style="stop-color:#FFCD40"/>
			</linearGradient>
			<path class="st3" d="M37.4,61l16.3-16.3V3H10.3v58H37.4z"/>
			<polygon class="st4" points="36.5,43.8 36.5,61 37.4,61 53.8,44.7 53.8,43.8 			"/>
			<path class="st5" d="M37.4,44.7h16.3L37.4,61V44.7z"/>
			<path class="st6" d="M10.3,3v14.5h43.5V3H10.3z"/>
			<g>
				<path class="st7" d="M26,12.3c0,0.5-0.1,1-0.2,1.4s-0.4,0.8-0.7,1.2c-0.3,0.3-0.7,0.6-1.2,0.8S22.8,16,22,16s-1.4-0.1-1.9-0.3
					s-0.9-0.4-1.3-0.6l0.9-1.6c0.3,0.2,0.6,0.3,1,0.5s0.8,0.2,1.2,0.2c0.6,0,1-0.1,1.4-0.4c0.4-0.3,0.5-0.8,0.5-1.6v-5H20V5.5h6
					V12.3"/>
				<path class="st7" d="M33.7,15.7l-0.5-2.4h-3l-0.5,2.4h-2.3c0.5-2,1.1-3.8,1.6-5.5c0.5-1.7,1-3.2,1.5-4.7H33
					c0.5,1.5,1.1,3.1,1.6,4.8s1,3.5,1.6,5.4L33.7,15.7 M31.7,7.5c-0.1,0.4-0.2,0.8-0.3,1.1c-0.1,0.3-0.2,0.7-0.3,1
					c-0.1,0.3-0.2,0.7-0.3,1c-0.1,0.3-0.1,0.7-0.2,1.1h2.2c-0.1-0.4-0.1-0.7-0.2-1.1c-0.1-0.3-0.2-0.7-0.3-1s-0.2-0.7-0.3-1
					C31.9,8.2,31.8,7.8,31.7,7.5"/>
				<path class="st7" d="M40.2,5.4c0.6,0,1.2,0.1,1.7,0.2s1,0.3,1.3,0.6c0.4,0.3,0.7,0.6,0.9,1.1c0.2,0.4,0.3,0.9,0.3,1.5
					c0,0.6-0.1,1.1-0.4,1.6c-0.3,0.5-0.7,0.8-1.3,1.1c0.2,0.3,0.4,0.6,0.7,1c0.2,0.3,0.5,0.7,0.7,1.1c0.2,0.4,0.4,0.7,0.6,1.1
					c0.2,0.4,0.4,0.7,0.5,1.1h-2.4c-0.3-0.7-0.6-1.3-1-1.9c-0.4-0.6-0.8-1.2-1.2-1.9h-1.2v3.8h-2.2v-10c0.2,0,0.4-0.1,0.7-0.1
					s0.5-0.1,0.8-0.1s0.5,0,0.8,0C39.8,5.4,40,5.4,40.2,5.4 M42.1,8.7c0-0.5-0.2-0.9-0.5-1.2c-0.4-0.2-0.8-0.4-1.4-0.4
					c-0.1,0-0.2,0-0.3,0s-0.2,0-0.4,0v3.1H40c0.8,0,1.3-0.1,1.7-0.4C42,9.6,42.1,9.2,42.1,8.7"/>
			</g>
			<g class="st8">
				<path class="st9" d="M29,37c0,0-0.9,0.5,0.6,0.6c1.8,0.2,2.7,0.2,4.7-0.2c0,0,0.5,0.3,1.3,0.6C31.1,39.9,25.5,38,29,37"/>
				<path class="st9" d="M28.4,34.7c0,0-1,0.7,0.5,0.8c1.9,0.2,3.5,0.2,6.1-0.3c0,0,0.4,0.4,0.9,0.5C30.6,37.3,24.5,35.9,28.4,34.7"
					/>
				<path class="st9" d="M33.1,30.6c1.1,1.2-0.3,2.3-0.3,2.3s2.8-1.4,1.5-3.1c-1.2-1.6-2.1-2.4,2.9-5.2
					C37.2,24.7,29.3,26.5,33.1,30.6"/>
				<path class="st9" d="M39,38.8c0,0,0.7,0.5-0.7,0.9c-2.6,0.8-10.8,1-13.1,0c-0.8-0.3,0.7-0.8,1.2-0.9c0.5-0.1,0.8-0.1,0.8-0.1
					c-0.9-0.6-5.9,1.2-2.5,1.7C33.8,41.9,41.4,39.8,39,38.8"/>
				<path class="st9" d="M29.4,32.2c0,0-4.2,0.9-1.5,1.3c1.1,0.1,3.4,0.1,5.5-0.1c1.7-0.1,3.5-0.4,3.5-0.4s-0.6,0.2-1,0.5
					c-4.2,1.1-12.4,0.6-10.1-0.5C27.8,32.1,29.4,32.2,29.4,32.2"/>
				<path class="st9" d="M36.9,36.2c4.3-2.1,2.3-4.2,0.9-3.9c-0.3,0.1-0.5,0.1-0.5,0.1s0.1-0.2,0.4-0.3c2.7-0.9,4.9,2.7-0.9,4.1
					C36.8,36.3,36.9,36.2,36.9,36.2"/>
				<path class="st9" d="M34.3,20.2c0,0,2.4,2.3-2.3,5.7c-3.7,2.8-0.9,4.4,0,6.2c-2.2-1.9-3.8-3.5-2.7-5
					C30.9,24.9,35.3,23.8,34.3,20.2"/>
				<path class="st9" d="M29.8,41.9c4.1,0.3,10.5-0.1,10.6-2c0,0-0.3,0.7-3.4,1.3c-3.5,0.6-7.9,0.6-10.5,0.2
					C26.6,41.3,27.1,41.7,29.8,41.9"/>
			</g>
			<g>
				<path class="st10" d="M53.3,3.5v41l-16,16H24.8h-14v-57H53.3 M53.8,3H10.3v58h14.5h12.7l16.3-16.3V3L53.8,3z"/>
			</g>
		</g>
	</g>
</g>
</svg>
