<?xml version="1.0" encoding="utf-8"?>
<!-- Generator: Adobe Illustrator 16.0.0, SVG Export Plug-In . SVG Version: 6.00 Build 0)  -->
<!DOCTYPE svg PUBLIC "-//W3C//DTD SVG 1.1//EN" "http://www.w3.org/Graphics/SVG/1.1/DTD/svg11.dtd">
<svg version="1.1" id="图层_1" xmlns="http://www.w3.org/2000/svg" xmlns:xlink="http://www.w3.org/1999/xlink" x="0px" y="0px"
	 width="64px" height="64px" viewBox="0 0 64 64" enable-background="new 0 0 64 64" xml:space="preserve">
<g id="surface1_2_">
	<polygon opacity="0.08" enable-background="new    " points="9.25,64 9.25,2 56.75,2 56.75,46.516 39.266,64 	"/>
	<polygon opacity="0.1" enable-background="new    " points="10.25,63 10.25,3 55.75,3 55.75,46.102 38.852,63 	"/>
	<polygon opacity="0.2" enable-background="new    " points="9.25,62 9.25,2 54.75,2 54.75,45.102 37.852,62 	"/>
	
		<linearGradient id="SVGID_1_" gradientUnits="userSpaceOnUse" x1="281.6006" y1="2391.9414" x2="281.6006" y2="2333.9414" gradientTransform="matrix(1 0 0 1 -249.6006 -2330.9414)">
		<stop  offset="0" style="stop-color:#3F51B5"/>
		<stop  offset="0.258" style="stop-color:#4355B7"/>
		<stop  offset="0.5253" style="stop-color:#5060BB"/>
		<stop  offset="0.7959" style="stop-color:#6473C3"/>
		<stop  offset="1" style="stop-color:#7986CB"/>
	</linearGradient>
	<path fill="url(#SVGID_1_)" d="M37.438,61L53.75,44.688V3h-43.5v58H37.438z"/>
	<polygon fill="#311B92" fill-opacity="0.3922" points="36.531,43.781 36.531,61 37.438,61 53.75,44.688 53.75,43.781 	"/>
	<path fill="#FFFFFF" fill-opacity="0.3922" d="M37.438,44.688h16.299L37.438,61V44.688z"/>
	<g>
		<path fill="#311B92" d="M53.25,3.5v40.98L37.23,60.5H24.75h-14v-57H53.25 M53.75,3h-43.5v58h14.5h12.688L53.75,44.688V3L53.75,3z"
			/>
	</g>
	<g opacity="0.8">
		<path fill="#FFFFFF" d="M38.896,24.357c-0.291,0-0.566,0.131-0.836,0.41c-0.27,0.27-0.488,0.634-0.651,1.094
			c-0.163,0.453-0.241,0.956-0.241,1.512c0,0.322,0.078,0.584,0.234,0.782c0.155,0.188,0.375,0.29,0.651,0.29
			c0.283,0,0.552-0.145,0.813-0.421c0.256-0.279,0.461-0.665,0.623-1.146c0.156-0.499,0.241-0.981,0.241-1.455
			C39.731,24.707,39.448,24.357,38.896,24.357z"/>
		<path fill="#FFFFFF" d="M27.164,24.357c-0.29,0-0.573,0.131-0.842,0.41c-0.269,0.27-0.481,0.634-0.644,1.094
			c-0.163,0.453-0.241,0.956-0.241,1.512c0,0.322,0.078,0.584,0.234,0.782c0.156,0.188,0.368,0.29,0.644,0.29
			c0.283,0,0.56-0.145,0.814-0.421c0.262-0.279,0.467-0.665,0.623-1.146c0.163-0.499,0.241-0.981,0.241-1.455
			C27.993,24.707,27.717,24.357,27.164,24.357z"/>
		<path fill="#FFFFFF" d="M32,16.594c-8.008,0-14.5,4.46-14.5,9.969c0,5.508,6.492,9.969,14.5,9.969s14.5-4.461,14.5-9.969
			C46.5,21.054,40.008,16.594,32,16.594z M41.226,27.593c-0.283,0.715-0.68,1.278-1.183,1.702c-0.51,0.415-1.063,0.627-1.664,0.627
			c-0.354,0-0.658-0.074-0.913-0.227c-0.255-0.145-0.488-0.4-0.701-0.768h-0.057c-0.05,0.65-0.142,1.242-0.269,1.798l-0.461,2.067
			h-1.911l0.665-2.995h-1.854l0.871-3.972c0.063-0.279,0.099-0.521,0.099-0.726c0-0.496-0.227-0.743-0.687-0.743
			c-0.39,0-0.743,0.227-1.062,0.693c-0.319,0.46-0.566,1.102-0.75,1.937l-0.616,2.811h-1.918l0.356-1.602
			c-0.245,0.426-0.521,0.808-0.866,1.099c-0.502,0.415-1.055,0.627-1.664,0.627c-0.354,0-0.651-0.074-0.906-0.227
			c-0.255-0.145-0.489-0.4-0.708-0.768h-0.05c-0.05,0.65-0.142,1.242-0.276,1.798l-0.453,2.067h-1.911l2.173-9.795h1.458
			l-0.106,1.029h0.057c0.581-0.774,1.253-1.16,2.011-1.16c0.616,0,1.104,0.219,1.466,0.658c0.28,0.348,0.449,0.804,0.51,1.365
			l1.013-4.559h1.911c-0.17,0.733-0.297,1.292-0.382,1.688c-0.092,0.393-0.27,1.023-0.545,1.884h0.049
			c0.262-0.315,0.553-0.563,0.878-0.751c0.318-0.191,0.694-0.286,1.119-0.286c0.58,0,1.033,0.177,1.352,0.513
			c0.319,0.333,0.482,0.817,0.482,1.451c0,0.107-0.014,0.236-0.027,0.363l0.487-2.196h1.458l-0.105,1.029h0.057
			c0.587-0.774,1.26-1.16,2.018-1.16c0.615,0,1.104,0.219,1.458,0.658c0.361,0.438,0.538,1.044,0.538,1.826
			C41.664,26.123,41.522,26.878,41.226,27.593z"/>
	</g>
</g>
</svg>
