<?xml version="1.0" encoding="utf-8"?>
<!-- Generator: Adobe Illustrator 16.0.0, SVG Export Plug-In . SVG Version: 6.00 Build 0)  -->
<!DOCTYPE svg PUBLIC "-//W3C//DTD SVG 1.1//EN" "http://www.w3.org/Graphics/SVG/1.1/DTD/svg11.dtd">
<svg version="1.1" id="图层_1" xmlns="http://www.w3.org/2000/svg" xmlns:xlink="http://www.w3.org/1999/xlink" x="0px" y="0px"
	 width="64px" height="64px" viewBox="0 0 64 64" enable-background="new 0 0 64 64" xml:space="preserve">
<polygon opacity="0.1" enable-background="new    " points="9.155,64 9.155,2 56.846,2 56.846,46.498 39.343,64 "/>
<polygon opacity="0.1" enable-background="new    " points="10.155,63 10.155,3 55.846,3 55.846,46.084 38.93,63 "/>
<polygon opacity="0.2" enable-background="new    " points="9.155,62 9.155,2 54.846,2 54.846,45.084 37.93,62 "/>
<polygon fill="#E65100" points="10.148,61 10.148,3 53.852,3 53.852,44.67 37.517,61 "/>
<g>
	<g>
		<g>
			
				<linearGradient id="SVGID_1_" gradientUnits="userSpaceOnUse" x1="73.6006" y1="-160.3999" x2="73.6006" y2="-103.4004" gradientTransform="matrix(1 0 0 -1 -41.6001 -99.9004)">
				<stop  offset="0" style="stop-color:#EE6F0B"/>
				<stop  offset="1" style="stop-color:#FFB74D"/>
			</linearGradient>
			<polygon fill="url(#SVGID_1_)" points="10.647,60.5 10.647,3.5 53.353,3.5 53.353,44.469 37.321,60.5 			"/>
		</g>
		<polygon fill="#E65100" fill-opacity="0.3922" points="53.353,44.469 53.353,43.778 36.442,43.778 36.442,60.5 37.321,60.5 		"/>
		<path fill="#FFFFFF" fill-opacity="0.3922" d="M37.296,44.469l16.057,0.022L37.321,60.5L37.296,44.469z"/>
	</g>
	<g opacity="0.8">
		<rect x="16.206" y="25.443" fill="#FFFFFF" width="4.561" height="22.848"/>
		<rect x="23.806" y="36.843" fill="#FFFFFF" width="4.562" height="11.423"/>
		<rect x="31.384" y="41.496" fill="#FFFFFF" width="4.561" height="6.844"/>
		<g>
			<path fill="#FFFFFF" d="M37.581,21.405l0.049,9.096l9.095-0.048c0.026,5.036-4.037,9.122-9.073,9.143
				c-5.031,0.026-9.117-4.037-9.144-9.069C28.485,25.513,32.546,21.428,37.581,21.405z"/>
			<path fill="#FFFFFF" d="M38.65,20.359c5.035-0.022,9.121,4.038,9.144,9.073l-9.096,0.048L38.65,20.359z"/>
		</g>
	</g>
	<g>
		<rect x="10.636" y="3.5" opacity="0.8" fill="#FFFFFF" enable-background="new    " width="42.729" height="10.925"/>
		<g enable-background="new    ">
			<path fill="#E64A19" d="M27.436,8.896c0,0.728-0.115,1.37-0.342,1.922c-0.229,0.553-0.542,1.017-0.938,1.388
				c-0.397,0.371-0.868,0.653-1.418,0.838c-0.545,0.193-1.136,0.286-1.763,0.286c-0.612,0-1.191-0.093-1.732-0.286
				c-0.546-0.186-1.018-0.467-1.426-0.838c-0.404-0.371-0.724-0.835-0.953-1.388c-0.234-0.553-0.353-1.195-0.353-1.922
				c0-0.731,0.122-1.373,0.363-1.924c0.241-0.553,0.568-1.017,0.977-1.396c0.411-0.376,0.883-0.659,1.425-0.846
				c0.538-0.189,1.102-0.284,1.699-0.284c0.612,0,1.188,0.095,1.733,0.284c0.542,0.188,1.017,0.47,1.421,0.846
				c0.404,0.378,0.724,0.842,0.958,1.396C27.32,7.522,27.436,8.165,27.436,8.896z M20.596,8.896c0,0.416,0.053,0.794,0.16,1.128
				c0.107,0.337,0.264,0.624,0.468,0.868c0.2,0.241,0.448,0.427,0.742,0.557c0.293,0.134,0.631,0.201,1.009,0.201
				c0.371,0,0.705-0.067,1.002-0.201c0.297-0.13,0.546-0.315,0.75-0.557c0.204-0.245,0.356-0.531,0.464-0.868
				c0.107-0.334,0.163-0.712,0.163-1.128c0-0.419-0.056-0.798-0.163-1.135c-0.107-0.341-0.26-0.633-0.464-0.874
				s-0.453-0.429-0.75-0.561c-0.297-0.13-0.631-0.196-1.002-0.196c-0.378,0-0.716,0.068-1.009,0.204
				c-0.294,0.135-0.542,0.323-0.742,0.564c-0.204,0.243-0.36,0.532-0.468,0.87C20.648,8.109,20.596,8.487,20.596,8.896z"/>
			<path fill="#E64A19" d="M36.969,8.896c0,0.735-0.122,1.381-0.363,1.93c-0.241,0.549-0.587,1.002-1.028,1.362
				c-0.441,0.36-0.983,0.631-1.621,0.813c-0.639,0.178-1.354,0.267-2.149,0.267c-0.359,0-0.783-0.015-1.266-0.044
				c-0.482-0.026-0.957-0.085-1.425-0.178v-8.29c0.468-0.082,0.95-0.137,1.455-0.167c0.505-0.028,0.938-0.043,1.299-0.043
				c0.771,0,1.466,0.082,2.093,0.247c0.624,0.163,1.158,0.421,1.61,0.773c0.445,0.353,0.791,0.804,1.032,1.351
				S36.969,8.124,36.969,8.896z M31.135,11.597c0.097,0.007,0.204,0.015,0.331,0.019c0.122,0.004,0.271,0.004,0.445,0.004
				c1.009,0,1.755-0.238,2.245-0.72c0.486-0.486,0.728-1.154,0.728-2.004c0-0.894-0.23-1.569-0.698-2.028
				c-0.464-0.458-1.202-0.688-2.212-0.688c-0.133,0-0.278,0.002-0.423,0.006C31.402,6.19,31.265,6.2,31.135,6.216V11.597z"/>
			<path fill="#E64A19" d="M41.341,4.544c1.336,0,2.359,0.225,3.076,0.67c0.716,0.447,1.072,1.178,1.072,2.193
				c0,1.024-0.36,1.763-1.084,2.215c-0.727,0.457-1.759,0.683-3.105,0.683h-0.635v2.85H38.65v-8.39
				c0.441-0.082,0.901-0.139,1.395-0.171C40.539,4.562,40.97,4.544,41.341,4.544z M41.467,6.179c-0.145,0-0.29,0.004-0.431,0.013
				c-0.141,0.007-0.268,0.015-0.371,0.024v2.457H41.3c0.701,0,1.225-0.089,1.577-0.271c0.356-0.182,0.534-0.516,0.534-1.006
				c0-0.239-0.048-0.434-0.141-0.59c-0.09-0.156-0.216-0.282-0.387-0.375c-0.167-0.095-0.371-0.16-0.615-0.197
				C42.03,6.198,41.764,6.179,41.467,6.179z"/>
		</g>
	</g>
</g>
</svg>
