<?xml version="1.0" encoding="utf-8"?>
<!-- Generator: Adobe Illustrator 16.0.0, SVG Export Plug-In . SVG Version: 6.00 Build 0)  -->
<!DOCTYPE svg PUBLIC "-//W3C//DTD SVG 1.1//EN" "http://www.w3.org/Graphics/SVG/1.1/DTD/svg11.dtd">
<svg version="1.1" id="图层_1" xmlns="http://www.w3.org/2000/svg" xmlns:xlink="http://www.w3.org/1999/xlink" x="0px" y="0px"
	 width="64px" height="64px" viewBox="0 0 64 64" enable-background="new 0 0 64 64" xml:space="preserve">
<polygon opacity="0.1" enable-background="new    " points="9.155,64 9.155,2 56.846,2 56.846,46.498 39.343,64 "/>
<polygon opacity="0.1" enable-background="new    " points="10.155,63 10.155,3 55.846,3 55.846,46.084 38.93,63 "/>
<polygon opacity="0.2" enable-background="new    " points="9.155,62 9.155,2 54.846,2 54.846,45.084 37.93,62 "/>
<polygon fill="#3E2723" points="10.148,61 10.148,3 53.852,3 53.852,44.67 37.518,61 "/>
<g>
	<g>
		
			<linearGradient id="SVGID_1_" gradientUnits="userSpaceOnUse" x1="73.5977" y1="-103.4004" x2="73.5977" y2="-160.4009" gradientTransform="matrix(1 0 0 -1 -41.6001 -99.9004)">
			<stop  offset="0" style="stop-color:#785548"/>
			<stop  offset="1" style="stop-color:#9F9E9F"/>
		</linearGradient>
		<polygon fill="url(#SVGID_1_)" points="10.645,60.5 10.645,3.5 53.352,3.5 53.352,44.447 37.475,60.5 		"/>
		<polygon fill="#795548" fill-opacity="0.7" points="53.352,44.469 53.352,43.779 36.443,43.779 36.443,60.5 37.32,60.5 		"/>
		<path opacity="0.39" fill="#FFFFFF" enable-background="new    " d="M37.297,44.469l16.059,0.021L37.32,60.5L37.297,44.469z"/>
	</g>
	<path fill="#FFFFFF" d="M25.905,14.488h-1.442V33h-1.098V14.488h-1.437V33h-1.092V14.488H19.4V33h-1.095V14.488h-1.439V33H16.49
		v7.84h9.908V33h-0.493V14.488z M24.956,38.561h-7.029v-4.546h7.029V38.561z"/>
	<g>
		<g>
			<rect x="10.645" y="3.5" opacity="0.8" fill="#FFFFFF" enable-background="new    " width="42.71" height="10.921"/>
			<g enable-background="new    ">
				<path fill="#5D4037" d="M29.208,6.03c-0.278,0.271-0.604,0.622-0.983,1.053c-0.385,0.428-0.771,0.895-1.18,1.405
					c-0.408,0.506-0.806,1.031-1.203,1.572c-0.397,0.541-0.748,1.056-1.061,1.548h4.567v1.609H22.3v-1.145
					c0.244-0.417,0.536-0.877,0.888-1.392c0.353-0.512,0.715-1.027,1.092-1.549c0.379-0.518,0.764-1.022,1.158-1.511
					c0.396-0.486,0.756-0.922,1.093-1.306h-4.024v-1.61h6.701V6.03z"/>
				<path fill="#5D4037" d="M30.774,4.705h2.011v8.513h-2.011V4.705z"/>
				<path fill="#5D4037" d="M37.541,4.608c1.342,0,2.365,0.223,3.072,0.669c0.725,0.445,1.082,1.177,1.082,2.192
					c0,1.023-0.363,1.762-1.092,2.215c-0.719,0.455-1.758,0.684-3.105,0.684h-0.627v2.85h-2.02V4.828
					c0.439-0.083,0.906-0.141,1.393-0.171C36.738,4.623,37.168,4.608,37.541,4.608z M37.672,6.239c-0.146,0-0.287,0.005-0.43,0.015
					c-0.146,0.008-0.268,0.015-0.371,0.024v2.456h0.627c0.703,0,1.229-0.09,1.584-0.273c0.352-0.178,0.529-0.513,0.529-1.005
					c0-0.237-0.047-0.432-0.135-0.587c-0.09-0.159-0.221-0.285-0.391-0.376c-0.166-0.094-0.371-0.159-0.617-0.195
					C38.229,6.261,37.965,6.239,37.672,6.239z"/>
			</g>
		</g>
	</g>
</g>
</svg>
