<?xml version="1.0" encoding="utf-8"?>
<!-- Generator: Adobe Illustrator 16.0.0, SVG Export Plug-In . SVG Version: 6.00 Build 0)  -->
<!DOCTYPE svg PUBLIC "-//W3C//DTD SVG 1.1//EN" "http://www.w3.org/Graphics/SVG/1.1/DTD/svg11.dtd">
<svg version="1.1" id="图层_1" xmlns="http://www.w3.org/2000/svg" xmlns:xlink="http://www.w3.org/1999/xlink" x="0px" y="0px"
	 width="64px" height="64px" viewBox="0 0 64 64" enable-background="new 0 0 64 64" xml:space="preserve">
<polygon opacity="0.1" enable-background="new    " points="9.155,64 9.155,2 56.846,2 56.846,46.498 39.343,64 "/>
<polygon opacity="0.1" enable-background="new    " points="10.155,63 10.155,3 55.846,3 55.846,46.084 38.93,63 "/>
<polygon opacity="0.2" enable-background="new    " points="9.155,62 9.155,2 54.846,2 54.846,45.084 37.93,62 "/>
<polygon fill="#3E2723" points="10.148,61 10.148,3 53.852,3 53.852,44.67 37.518,61 "/>
<g>
	<g>
		
			<linearGradient id="SVGID_1_" gradientUnits="userSpaceOnUse" x1="73.5996" y1="-103.4004" x2="73.5996" y2="-160.4009" gradientTransform="matrix(1 0 0 -1 -41.6001 -99.9004)">
			<stop  offset="0" style="stop-color:#785548"/>
			<stop  offset="1" style="stop-color:#9F9E9F"/>
		</linearGradient>
		<polygon fill="url(#SVGID_1_)" points="10.646,60.5 10.646,3.5 53.354,3.5 53.354,44.447 37.479,60.5 		"/>
		<polygon fill="#795548" fill-opacity="0.7" points="53.354,44.469 53.354,43.779 36.445,43.779 36.445,60.5 37.322,60.5 		"/>
		<path opacity="0.39" fill="#FFFFFF" enable-background="new    " d="M37.299,44.469l16.055,0.021L37.322,60.5L37.299,44.469z"/>
	</g>
	<path fill="#FFFFFF" d="M25.906,14.488h-1.444v18.51h-1.095v-18.51h-1.435v18.51h-1.092v-18.51h-1.439v18.51h-1.095v-18.51h-1.439
		v18.51h-0.376v7.842h9.908v-7.842h-0.493V14.488z M24.957,38.561h-7.029v-4.546h7.029V38.561z"/>
	<g>
		<rect x="10.639" y="3.5" opacity="0.8" fill="#FFFFFF" enable-background="new    " width="42.723" height="10.925"/>
		<g enable-background="new    ">
			<path fill="#5D4037" d="M26.868,13.221c-0.096-0.295-0.204-0.6-0.318-0.912c-0.116-0.312-0.23-0.623-0.342-0.932h-3.504
				c-0.111,0.31-0.225,0.622-0.336,0.934c-0.114,0.312-0.221,0.615-0.318,0.909h-2.094c0.334-0.917,0.657-1.765,0.956-2.544
				c0.306-0.777,0.603-1.51,0.891-2.199c0.289-0.688,0.575-1.341,0.854-1.959c0.284-0.618,0.575-1.223,0.878-1.813h1.913
				c0.295,0.59,0.583,1.195,0.87,1.813c0.283,0.618,0.575,1.271,0.863,1.959c0.289,0.689,0.586,1.422,0.891,2.199
				c0.306,0.779,0.623,1.627,0.96,2.544H26.868z M24.448,6.636C24.4,6.758,24.337,6.927,24.25,7.141
				c-0.085,0.213-0.186,0.458-0.295,0.737c-0.111,0.28-0.235,0.586-0.371,0.921c-0.138,0.336-0.278,0.687-0.418,1.056h2.563
				c-0.135-0.37-0.271-0.722-0.4-1.059c-0.124-0.336-0.249-0.644-0.363-0.922c-0.119-0.281-0.22-0.525-0.305-0.738
				C24.573,6.923,24.501,6.756,24.448,6.636z"/>
			<path fill="#5D4037" d="M32.806,4.608c1.344,0,2.375,0.228,3.091,0.683S36.97,6.452,36.97,7.41c0,0.598-0.141,1.083-0.432,1.457
				c-0.289,0.373-0.705,0.664-1.246,0.877c0.178,0.213,0.368,0.456,0.564,0.731c0.199,0.274,0.397,0.56,0.594,0.86
				c0.193,0.299,0.379,0.608,0.56,0.933c0.183,0.323,0.35,0.64,0.506,0.953h-2.258c-0.167-0.278-0.329-0.561-0.501-0.848
				c-0.167-0.286-0.34-0.564-0.52-0.835c-0.178-0.271-0.348-0.527-0.525-0.769c-0.172-0.241-0.342-0.46-0.517-0.656h-0.999v3.108
				h-2.015V4.828c0.442-0.081,0.896-0.139,1.362-0.17C32.016,4.624,32.435,4.608,32.806,4.608z M32.925,6.242
				c-0.148,0-0.283,0.004-0.395,0.013c-0.117,0.008-0.229,0.015-0.334,0.024v2.31h0.572c0.758,0,1.299-0.09,1.63-0.271
				c0.326-0.18,0.493-0.488,0.493-0.922c0-0.417-0.172-0.714-0.501-0.891C34.06,6.33,33.569,6.242,32.925,6.242z"/>
			<path fill="#5D4037" d="M44.042,10.357c0,0.417-0.048,0.811-0.148,1.181c-0.096,0.367-0.268,0.69-0.515,0.965
				c-0.246,0.274-0.575,0.492-0.996,0.651c-0.419,0.16-0.946,0.24-1.583,0.24c-0.588,0-1.092-0.069-1.516-0.204
				c-0.422-0.134-0.771-0.292-1.045-0.472l0.671-1.488c0.249,0.139,0.517,0.264,0.801,0.37c0.286,0.106,0.599,0.159,0.933,0.159
				c0.49,0,0.846-0.114,1.061-0.343c0.215-0.229,0.323-0.614,0.323-1.156V4.706h2.015V10.357z"/>
		</g>
	</g>
</g>
</svg>
