<?xml version="1.0" encoding="utf-8"?>
<!-- Generator: Adobe Illustrator 16.0.0, SVG Export Plug-In . SVG Version: 6.00 Build 0)  -->
<!DOCTYPE svg PUBLIC "-//W3C//DTD SVG 1.1//EN" "http://www.w3.org/Graphics/SVG/1.1/DTD/svg11.dtd">
<svg version="1.1" id="图层_1" xmlns="http://www.w3.org/2000/svg" xmlns:xlink="http://www.w3.org/1999/xlink" x="0px" y="0px"
	 width="64px" height="64px" viewBox="0 0 64 64" enable-background="new 0 0 64 64" xml:space="preserve">
<polygon opacity="0.1" enable-background="new    " points="9.155,64 9.155,2 56.846,2 56.846,46.498 39.343,64 "/>
<polygon opacity="0.1" enable-background="new    " points="10.155,63 10.155,3 55.846,3 55.846,46.084 38.93,63 "/>
<polygon opacity="0.2" enable-background="new    " points="9.155,62 9.155,2 54.846,2 54.846,45.084 37.93,62 "/>
<polygon fill="#AE2124" points="10.148,61 10.148,3 53.852,3 53.852,44.67 37.521,61 "/>
<g>
	<g>
		<g>
			
				<linearGradient id="SVGID_1_" gradientUnits="userSpaceOnUse" x1="115.2002" y1="-579.3003" x2="115.2002" y2="-522.3008" gradientTransform="matrix(1 0 0 -1 -83.1997 -518.8008)">
				<stop  offset="0" style="stop-color:#C7312F"/>
				<stop  offset="0.1635" style="stop-color:#D9412C"/>
				<stop  offset="0.3476" style="stop-color:#E74E29"/>
				<stop  offset="0.5725" style="stop-color:#EA552A"/>
				<stop  offset="0.9516" style="stop-color:#EA582B"/>
			</linearGradient>
			<polygon fill="url(#SVGID_1_)" points="10.647,60.5 10.647,3.5 53.353,3.5 53.353,44.469 37.321,60.5 			"/>
		</g>
		<polygon fill="#AE2124" fill-opacity="0.3922" points="53.353,44.469 53.353,43.778 36.442,43.778 36.442,60.5 37.321,60.5 		"/>
		<path fill="#FFFFFF" fill-opacity="0.3922" d="M37.296,44.469l16.057,0.025L37.321,60.5L37.296,44.469z"/>
	</g>
	<g opacity="0.8" enable-background="new    ">
		<g>
			<path fill="#FFFFFF" d="M37.37,19.771c0.07,0.026,0.167,0.026,0.237,0.046C37.533,19.796,37.44,19.771,37.37,19.771z"/>
			<path fill="#FFFFFF" d="M36.772,19.678c0.097,0,0.167,0.024,0.264,0.024C36.939,19.702,36.869,19.702,36.772,19.678z"/>
			<path fill="#FFFFFF" d="M37.938,19.863c0.07,0.024,0.145,0.024,0.219,0.05C38.082,19.888,38.008,19.863,37.938,19.863z"/>
			<path fill="#FFFFFF" d="M38.505,19.958c0.071,0.026,0.146,0.026,0.189,0.05C38.628,19.984,38.579,19.958,38.505,19.958z"/>
			<path fill="#FFFFFF" d="M36.156,19.604c0.097,0,0.189,0.024,0.286,0.024C36.346,19.628,36.253,19.604,36.156,19.604z"/>
			<path fill="#FFFFFF" d="M39.578,20.197c0.044,0.024,0.093,0.024,0.167,0.05C39.671,20.222,39.622,20.197,39.578,20.197z"/>
			<path fill="#FFFFFF" d="M39.055,20.079c0.048,0.024,0.118,0.024,0.167,0.048C39.173,20.103,39.103,20.079,39.055,20.079z"/>
			<path fill="#FFFFFF" d="M19.271,22.784L19.271,22.784L19.271,22.784z"/>
			<path fill="#FFFFFF" d="M32.88,19.388c0.141,0,0.308,0,0.452,0C33.188,19.388,33.021,19.388,32.88,19.388z"/>
			<path fill="#FFFFFF" d="M40.079,20.318c0.048,0.024,0.096,0.024,0.137,0.048C40.175,20.342,40.123,20.342,40.079,20.318z"/>
			<path fill="#FFFFFF" d="M35.54,19.533c0.093,0,0.189,0.024,0.286,0.024C35.752,19.557,35.659,19.557,35.54,19.533z"/>
			<path fill="#FFFFFF" d="M30.675,19.388c0.137,0,0.282,0,0.449,0C30.979,19.388,30.813,19.388,30.675,19.388z"/>
			<path fill="#FFFFFF" d="M34.256,19.437c0.119,0,0.238,0.026,0.356,0.026C34.494,19.462,34.375,19.437,34.256,19.437z"/>
			<path fill="#FFFFFF" d="M34.921,19.483c0.118,0,0.211,0.024,0.334,0.024C35.132,19.507,35.017,19.483,34.921,19.483z"/>
			<path fill="#FFFFFF" d="M43.021,21.431c0,0,0.026,0,0.026,0.026C43.044,21.431,43.021,21.431,43.021,21.431z"/>
			<path fill="#FFFFFF" d="M44.161,22.192L44.161,22.192L44.161,22.192z"/>
			<path fill="#FFFFFF" d="M43.355,21.598C43.355,21.598,43.355,21.623,43.355,21.598C43.355,21.623,43.355,21.598,43.355,21.598z"
				/>
			<path fill="#FFFFFF" d="M43.638,21.79C43.663,21.79,43.663,21.79,43.638,21.79C43.663,21.79,43.663,21.79,43.638,21.79z"/>
			<path fill="#FFFFFF" d="M40.576,20.457c0.048,0,0.07,0.026,0.118,0.026C40.646,20.483,40.599,20.457,40.576,20.457z"/>
			<path fill="#FFFFFF" d="M44.372,22.383L44.372,22.383L44.372,22.383z"/>
			<path fill="#FFFFFF" d="M32,19.368c-0.211,0-0.449,0-0.664,0C31.551,19.368,31.789,19.368,32,19.368z"/>
			<path fill="#FFFFFF" d="M43.923,21.979L43.923,21.979L43.923,21.979z"/>
			<path fill="#FFFFFF" d="M41.904,20.912c0.022,0,0.049,0.024,0.067,0.024C41.953,20.936,41.927,20.912,41.904,20.912z"/>
			<path fill="#FFFFFF" d="M32,19.368c0.215,0,0.453,0,0.664,0C32.453,19.368,32.215,19.368,32,19.368z"/>
			<path fill="#FFFFFF" d="M41.025,20.602c0.025,0,0.07,0.024,0.093,0.024C41.096,20.624,41.073,20.602,41.025,20.602z"/>
			<path fill="#FFFFFF" d="M41.478,20.743c0.022,0,0.045,0.026,0.07,0.026C41.522,20.769,41.5,20.769,41.478,20.743z"/>
			<path fill="#FFFFFF" d="M42.309,21.075c0.022,0,0.049,0.024,0.049,0.024C42.331,21.099,42.309,21.075,42.309,21.075z"/>
			<path fill="#FFFFFF" d="M42.665,21.242c0.022,0,0.022,0.026,0.049,0.026C42.71,21.268,42.688,21.242,42.665,21.242z"/>
			<path fill="#FFFFFF" d="M33.592,19.415c0.119,0,0.264,0,0.379,0.022C33.855,19.415,33.711,19.415,33.592,19.415z"/>
			<path fill="#FFFFFF" d="M20.956,21.431c0.026,0,0.026-0.022,0.052-0.022C20.979,21.431,20.956,21.431,20.956,21.431z"/>
			<path fill="#FFFFFF" d="M20.622,21.623c0,0,0.026,0,0.026-0.024C20.645,21.598,20.645,21.623,20.622,21.623z"/>
			<path fill="#FFFFFF" d="M20.34,21.812C20.34,21.79,20.362,21.79,20.34,21.812C20.362,21.79,20.34,21.79,20.34,21.812z"/>
			<path fill="#FFFFFF" d="M21.29,21.268c0.022,0,0.022-0.026,0.048-0.026C21.313,21.242,21.29,21.268,21.29,21.268z"/>
			<path fill="#FFFFFF" d="M22.025,20.936c0.022,0,0.048-0.024,0.071-0.024C22.073,20.912,22.047,20.936,22.025,20.936z"/>
			<path fill="#FFFFFF" d="M21.646,21.099c0.026,0,0.048-0.024,0.07-0.024C21.695,21.075,21.669,21.099,21.646,21.099z"/>
			<path fill="#FFFFFF" d="M30.029,19.415c0.115,0,0.26,0,0.379-0.026C30.289,19.415,30.145,19.415,30.029,19.415z"/>
			<path fill="#FFFFFF" d="M32,28.224c-7.222,0-13.066-1.971-13.066-4.418v3.991c0,2.445,5.841,4.418,13.066,4.418
				c7.222,0,13.063-1.973,13.063-4.418l0,0v-3.991C45.063,26.231,39.222,28.224,32,28.224z"/>
			<path fill="#FFFFFF" d="M18.938,23.667v0.145C18.938,23.762,18.938,23.713,18.938,23.667L18.938,23.667z"/>
			<path fill="#FFFFFF" d="M22.43,20.791c0.022,0,0.07-0.022,0.093-0.022C22.5,20.769,22.474,20.769,22.43,20.791z"/>
			<path fill="#FFFFFF" d="M19.843,22.192L19.843,22.192L19.843,22.192z"/>
			<path fill="#FFFFFF" d="M45.063,23.667c0,0.048,0,0.095,0,0.145V23.667L45.063,23.667z"/>
			<path fill="#FFFFFF" d="M19.435,22.597L19.435,22.597L19.435,22.597z"/>
			<path fill="#FFFFFF" d="M19.624,22.383L19.624,22.383L19.624,22.383z"/>
			<path fill="#FFFFFF" d="M20.077,22.003C20.077,21.979,20.077,21.979,20.077,22.003C20.077,21.979,20.077,21.979,20.077,22.003z"
				/>
			<path fill="#FFFFFF" d="M27.558,19.628c0.096,0,0.189-0.024,0.282-0.024C27.747,19.604,27.654,19.628,27.558,19.628z"/>
			<path fill="#FFFFFF" d="M26.968,19.722c0.093-0.024,0.164-0.024,0.26-0.024C27.131,19.702,27.061,19.702,26.968,19.722z"/>
			<path fill="#FFFFFF" d="M28.152,19.557c0.096,0,0.189-0.024,0.308-0.024C28.341,19.557,28.248,19.557,28.152,19.557z"/>
			<path fill="#FFFFFF" d="M22.856,20.624c0.026,0,0.07-0.024,0.093-0.024C22.927,20.602,22.904,20.624,22.856,20.624z"/>
			<path fill="#FFFFFF" d="M29.388,19.462c0.119,0,0.237-0.026,0.356-0.026C29.625,19.437,29.506,19.462,29.388,19.462z"/>
			<path fill="#FFFFFF" d="M26.396,19.796c0.07-0.026,0.167-0.026,0.237-0.048C26.56,19.771,26.467,19.796,26.396,19.796z"/>
			<path fill="#FFFFFF" d="M28.771,19.507c0.119,0,0.211-0.024,0.33-0.024C28.983,19.483,28.864,19.507,28.771,19.507z"/>
			<path fill="#FFFFFF" d="M23.784,20.366c0.044-0.024,0.093-0.024,0.141-0.048C23.877,20.342,23.829,20.342,23.784,20.366z"/>
			<path fill="#FFFFFF" d="M23.309,20.483c0.048-0.026,0.07-0.026,0.119-0.048C23.402,20.457,23.354,20.483,23.309,20.483z"/>
			<path fill="#FFFFFF" d="M24.255,20.222c0.048-0.024,0.119-0.024,0.167-0.048C24.374,20.197,24.33,20.222,24.255,20.222z"/>
			<path fill="#FFFFFF" d="M24.778,20.103c0.071-0.024,0.119-0.024,0.189-0.048C24.897,20.079,24.827,20.103,24.778,20.103z"/>
			<path fill="#FFFFFF" d="M25.302,20.008c0.07-0.024,0.141-0.024,0.211-0.05C25.42,19.958,25.372,19.984,25.302,20.008z"/>
			<path fill="#FFFFFF" d="M25.847,19.888c0.071-0.024,0.141-0.024,0.215-0.048C25.988,19.863,25.918,19.888,25.847,19.888z"/>
		</g>
		<g>
			<path fill="#FFFFFF" d="M37.37,24.402c0.07,0.026,0.167,0.026,0.237,0.05C37.533,24.428,37.44,24.428,37.37,24.402z"/>
			<path fill="#FFFFFF" d="M36.772,24.332c0.097,0,0.167,0.024,0.264,0.024C36.939,24.332,36.869,24.332,36.772,24.332z"/>
			<path fill="#FFFFFF" d="M37.938,24.499c0.07,0.022,0.145,0.022,0.219,0.048C38.082,24.521,38.008,24.521,37.938,24.499z"/>
			<path fill="#FFFFFF" d="M38.505,24.589c0.071,0.024,0.146,0.024,0.189,0.048C38.628,24.613,38.579,24.613,38.505,24.589z"/>
			<path fill="#FFFFFF" d="M36.156,24.233c0.097,0,0.189,0.024,0.286,0.024C36.346,24.257,36.253,24.257,36.156,24.233z"/>
			<path fill="#FFFFFF" d="M39.578,24.829c0.044,0.024,0.093,0.024,0.167,0.048C39.671,24.853,39.622,24.853,39.578,24.829z"/>
			<path fill="#FFFFFF" d="M39.055,24.708c0.048,0.026,0.118,0.026,0.167,0.05C39.173,24.734,39.103,24.734,39.055,24.708z"/>
			<path fill="#FFFFFF" d="M19.271,27.443L19.271,27.443L19.271,27.443z"/>
			<path fill="#FFFFFF" d="M32.88,24.02c0.141,0,0.308,0,0.452,0C33.188,24.02,33.021,24.02,32.88,24.02z"/>
			<path fill="#FFFFFF" d="M40.079,24.972c0.048,0.026,0.096,0.026,0.137,0.05C40.175,24.998,40.123,24.972,40.079,24.972z"/>
			<path fill="#FFFFFF" d="M35.54,24.187c0.093,0,0.189,0.026,0.286,0.026C35.752,24.187,35.659,24.187,35.54,24.187z"/>
			<path fill="#FFFFFF" d="M30.675,24.044c0.137,0,0.282,0,0.449,0C30.979,24.02,30.813,24.02,30.675,24.044z"/>
			<path fill="#FFFFFF" d="M34.256,24.068c0.119,0,0.238,0.026,0.356,0.026C34.494,24.094,34.375,24.094,34.256,24.068z"/>
			<path fill="#FFFFFF" d="M34.921,24.118c0.118,0,0.211,0.022,0.334,0.022C35.132,24.138,35.017,24.138,34.921,24.118z"/>
			<path fill="#FFFFFF" d="M43.021,26.063c0,0,0.026,0,0.026,0.026C43.044,26.063,43.021,26.063,43.021,26.063z"/>
			<path fill="#FFFFFF" d="M44.161,26.827L44.161,26.827L44.161,26.827z"/>
			<path fill="#FFFFFF" d="M43.355,26.255L43.355,26.255L43.355,26.255z"/>
			<path fill="#FFFFFF" d="M43.638,26.443C43.663,26.443,43.663,26.443,43.638,26.443C43.663,26.443,43.663,26.443,43.638,26.443z"
				/>
			<path fill="#FFFFFF" d="M40.576,25.092c0.048,0,0.07,0.024,0.118,0.024C40.646,25.116,40.599,25.116,40.576,25.092z"/>
			<path fill="#FFFFFF" d="M44.372,27.013L44.372,27.013L44.372,27.013z"/>
			<path fill="#FFFFFF" d="M32,24.02c-0.211,0-0.449,0-0.664,0C31.551,24.02,31.789,24.02,32,24.02z"/>
			<path fill="#FFFFFF" d="M43.923,26.632L43.923,26.632L43.923,26.632z"/>
			<path fill="#FFFFFF" d="M41.904,25.541c0.022,0,0.049,0.026,0.067,0.026C41.953,25.567,41.927,25.567,41.904,25.541z"/>
			<path fill="#FFFFFF" d="M32,24.02c0.215,0,0.453,0,0.664,0C32.453,24.02,32.215,24.02,32,24.02z"/>
			<path fill="#FFFFFF" d="M41.025,25.233c0.025,0,0.07,0.024,0.093,0.024C41.096,25.253,41.073,25.253,41.025,25.233z"/>
			<path fill="#FFFFFF" d="M41.478,25.398c0.022,0,0.045,0.024,0.07,0.024C41.522,25.422,41.5,25.398,41.478,25.398z"/>
			<path fill="#FFFFFF" d="M42.309,25.708c0.022,0,0.049,0.024,0.049,0.024C42.331,25.732,42.309,25.732,42.309,25.708z"/>
			<path fill="#FFFFFF" d="M42.665,25.899c0.022,0,0.022,0.022,0.049,0.022C42.71,25.899,42.688,25.899,42.665,25.899z"/>
			<path fill="#FFFFFF" d="M33.592,24.044c0.119,0,0.264,0,0.379,0.024C33.855,24.044,33.711,24.044,33.592,24.044z"/>
			<path fill="#FFFFFF" d="M20.956,26.088c0.026,0,0.026-0.026,0.052-0.026C20.979,26.063,20.956,26.063,20.956,26.088z"/>
			<path fill="#FFFFFF" d="M20.622,26.255c0,0,0.026,0,0.026-0.024C20.645,26.255,20.645,26.255,20.622,26.255z"/>
			<path fill="#FFFFFF" d="M20.34,26.443C20.34,26.443,20.362,26.443,20.34,26.443C20.362,26.443,20.34,26.443,20.34,26.443z"/>
			<path fill="#FFFFFF" d="M21.29,25.899c0.022,0,0.022-0.026,0.048-0.026C21.313,25.899,21.29,25.899,21.29,25.899z"/>
			<path fill="#FFFFFF" d="M22.025,25.587c0.022,0,0.048-0.022,0.071-0.022C22.073,25.567,22.047,25.567,22.025,25.587z"/>
			<path fill="#FFFFFF" d="M21.646,25.732c0.026,0,0.048-0.024,0.07-0.024C21.695,25.732,21.669,25.732,21.646,25.732z"/>
			<path fill="#FFFFFF" d="M30.029,24.068c0.115,0,0.26,0,0.379-0.024C30.289,24.044,30.145,24.044,30.029,24.068z"/>
			<path fill="#FFFFFF" d="M32,32.857c-7.222,0-13.066-1.973-13.066-4.42v3.993c0,2.441,5.841,4.416,13.066,4.416
				c7.222,0,13.063-1.975,13.063-4.416l0,0v-3.993C45.063,30.887,39.222,32.857,32,32.857z"/>
			<path fill="#FFFFFF" d="M18.938,28.296v0.145C18.938,28.393,18.938,28.343,18.938,28.296L18.938,28.296z"/>
			<path fill="#FFFFFF" d="M22.43,25.422c0.022,0,0.07-0.024,0.093-0.024C22.5,25.398,22.474,25.422,22.43,25.422z"/>
			<path fill="#FFFFFF" d="M19.843,26.827L19.843,26.827L19.843,26.827z"/>
			<path fill="#FFFFFF" d="M45.063,28.296c0,0.05,0,0.097,0,0.145V28.296L45.063,28.296z"/>
			<path fill="#FFFFFF" d="M19.435,27.228L19.435,27.228L19.435,27.228z"/>
			<path fill="#FFFFFF" d="M19.624,27.039C19.624,27.013,19.624,27.013,19.624,27.039C19.624,27.013,19.624,27.013,19.624,27.039z"
				/>
			<path fill="#FFFFFF" d="M20.077,26.632L20.077,26.632L20.077,26.632z"/>
			<path fill="#FFFFFF" d="M27.558,24.283c0.096,0,0.189-0.026,0.282-0.026C27.747,24.257,27.654,24.257,27.558,24.283z"/>
			<path fill="#FFFFFF" d="M26.968,24.354c0.093-0.024,0.164-0.024,0.26-0.024C27.131,24.332,27.061,24.332,26.968,24.354z"/>
			<path fill="#FFFFFF" d="M28.152,24.212c0.096,0,0.189-0.026,0.308-0.026C28.341,24.187,28.248,24.187,28.152,24.212z"/>
			<path fill="#FFFFFF" d="M22.856,25.278c0.026,0,0.07-0.024,0.093-0.024C22.927,25.253,22.904,25.253,22.856,25.278z"/>
			<path fill="#FFFFFF" d="M29.388,24.094c0.119,0,0.237-0.026,0.356-0.026C29.625,24.094,29.506,24.094,29.388,24.094z"/>
			<path fill="#FFFFFF" d="M26.396,24.452c0.07-0.024,0.167-0.024,0.237-0.05C26.56,24.428,26.467,24.428,26.396,24.452z"/>
			<path fill="#FFFFFF" d="M28.771,24.138c0.093,0,0.211-0.024,0.33-0.024C28.983,24.138,28.864,24.138,28.771,24.138z"/>
			<path fill="#FFFFFF" d="M23.784,24.998c0.044-0.026,0.093-0.026,0.141-0.05C23.877,24.972,23.829,24.998,23.784,24.998z"/>
			<path fill="#FFFFFF" d="M23.309,25.139c0.048-0.024,0.07-0.024,0.119-0.05C23.402,25.116,23.354,25.116,23.309,25.139z"/>
			<path fill="#FFFFFF" d="M24.255,24.877c0.048-0.024,0.119-0.024,0.167-0.048C24.374,24.853,24.33,24.853,24.255,24.877z"/>
			<path fill="#FFFFFF" d="M24.778,24.758c0.071-0.024,0.119-0.024,0.189-0.05C24.897,24.734,24.827,24.734,24.778,24.758z"/>
			<path fill="#FFFFFF" d="M25.302,24.638c0.07-0.024,0.141-0.024,0.211-0.048C25.42,24.613,25.372,24.613,25.302,24.638z"/>
			<path fill="#FFFFFF" d="M25.847,24.546c0.071-0.026,0.141-0.026,0.215-0.048C25.988,24.521,25.918,24.521,25.847,24.546z"/>
		</g>
		<g>
			<path fill="#FFFFFF" d="M37.37,29.033c0.07,0.024,0.167,0.024,0.237,0.048C37.533,29.057,37.44,29.057,37.37,29.033z"/>
			<path fill="#FFFFFF" d="M36.772,28.962c0.097,0,0.167,0.024,0.264,0.024C36.939,28.983,36.869,28.962,36.772,28.962z"/>
			<path fill="#FFFFFF" d="M37.938,29.128c0.07,0.024,0.145,0.024,0.219,0.05C38.082,29.152,38.008,29.152,37.938,29.128z"/>
			<path fill="#FFFFFF" d="M38.505,29.249c0.071,0.022,0.146,0.022,0.189,0.048C38.628,29.271,38.579,29.249,38.505,29.249z"/>
			<path fill="#FFFFFF" d="M36.156,28.888c0.097,0,0.189,0.026,0.286,0.026C36.346,28.915,36.253,28.888,36.156,28.888z"/>
			<path fill="#FFFFFF" d="M39.578,29.484c0.044,0.024,0.093,0.024,0.167,0.048C39.671,29.508,39.622,29.484,39.578,29.484z"/>
			<path fill="#FFFFFF" d="M39.055,29.339c0.048,0.024,0.118,0.024,0.167,0.048C39.173,29.388,39.103,29.363,39.055,29.339z"/>
			<path fill="#FFFFFF" d="M19.271,32.074L19.271,32.074L19.271,32.074z"/>
			<path fill="#FFFFFF" d="M32.88,28.653c0.141,0,0.308,0,0.452,0C33.188,28.677,33.021,28.677,32.88,28.653z"/>
			<path fill="#FFFFFF" d="M40.079,29.603c0.048,0.024,0.096,0.024,0.137,0.048C40.175,29.627,40.123,29.627,40.079,29.603z"/>
			<path fill="#FFFFFF" d="M35.54,28.818c0.093,0,0.189,0.026,0.286,0.026C35.752,28.844,35.659,28.818,35.54,28.818z"/>
			<path fill="#FFFFFF" d="M30.675,28.677c0.137,0,0.282,0,0.449,0C30.979,28.677,30.813,28.677,30.675,28.677z"/>
			<path fill="#FFFFFF" d="M34.256,28.723c0.119,0,0.238,0.024,0.356,0.024C34.494,28.723,34.375,28.723,34.256,28.723z"/>
			<path fill="#FFFFFF" d="M34.921,28.77c0.118,0,0.211,0.024,0.334,0.024C35.132,28.77,35.017,28.77,34.921,28.77z"/>
			<path fill="#FFFFFF" d="M43.021,30.694c0,0,0.026,0,0.026,0.024C43.044,30.718,43.021,30.718,43.021,30.694z"/>
			<path fill="#FFFFFF" d="M44.161,31.457L44.161,31.457L44.161,31.457z"/>
			<path fill="#FFFFFF" d="M43.355,30.887L43.355,30.887L43.355,30.887z"/>
			<path fill="#FFFFFF" d="M43.638,31.076C43.663,31.076,43.663,31.076,43.638,31.076C43.663,31.076,43.663,31.076,43.638,31.076z"
				/>
			<path fill="#FFFFFF" d="M40.576,29.748c0.048,0,0.07,0.024,0.118,0.024C40.646,29.771,40.599,29.748,40.576,29.748z"/>
			<path fill="#FFFFFF" d="M44.372,31.671L44.372,31.671L44.372,31.671z"/>
			<path fill="#FFFFFF" d="M32,28.653c-0.211,0-0.449,0-0.664,0C31.551,28.653,31.789,28.653,32,28.653z"/>
			<path fill="#FFFFFF" d="M43.923,31.263L43.923,31.263L43.923,31.263z"/>
			<path fill="#FFFFFF" d="M41.904,30.198c0.022,0,0.049,0.024,0.067,0.024C41.953,30.223,41.927,30.198,41.904,30.198z"/>
			<path fill="#FFFFFF" d="M32,28.653c0.215,0,0.453,0,0.664,0C32.453,28.653,32.215,28.653,32,28.653z"/>
			<path fill="#FFFFFF" d="M41.025,29.889c0.025,0,0.07,0.02,0.093,0.02C41.096,29.909,41.073,29.889,41.025,29.889z"/>
			<path fill="#FFFFFF" d="M41.478,30.028c0.022,0,0.045,0.026,0.07,0.026C41.522,30.054,41.5,30.054,41.478,30.028z"/>
			<path fill="#FFFFFF" d="M42.309,30.362c0.022,0,0.049,0.026,0.049,0.026C42.331,30.362,42.309,30.362,42.309,30.362z"/>
			<path fill="#FFFFFF" d="M42.665,30.529c0.022,0,0.022,0.024,0.049,0.024C42.71,30.553,42.688,30.529,42.665,30.529z"/>
			<path fill="#FFFFFF" d="M33.592,28.677c0.119,0,0.264,0,0.379,0.024C33.855,28.701,33.711,28.701,33.592,28.677z"/>
			<path fill="#FFFFFF" d="M20.956,30.718c0.026,0,0.026-0.024,0.052-0.024C20.979,30.718,20.956,30.718,20.956,30.718z"/>
			<path fill="#FFFFFF" d="M20.622,30.909c0,0,0.026,0,0.026-0.024C20.645,30.887,20.645,30.887,20.622,30.909z"/>
			<path fill="#FFFFFF" d="M20.34,31.076C20.34,31.076,20.362,31.076,20.34,31.076C20.362,31.076,20.34,31.076,20.34,31.076z"/>
			<path fill="#FFFFFF" d="M21.29,30.553c0.022,0,0.022-0.024,0.048-0.024C21.313,30.529,21.29,30.553,21.29,30.553z"/>
			<path fill="#FFFFFF" d="M22.025,30.223c0.022,0,0.048-0.024,0.071-0.024C22.073,30.198,22.047,30.223,22.025,30.223z"/>
			<path fill="#FFFFFF" d="M21.646,30.388c0.026,0,0.048-0.026,0.07-0.026C21.695,30.362,21.669,30.362,21.646,30.388z"/>
			<path fill="#FFFFFF" d="M30.029,28.701c0.115,0,0.26,0,0.379-0.024C30.289,28.701,30.145,28.701,30.029,28.701z"/>
			<path fill="#FFFFFF" d="M32,37.515c-7.222,0-13.066-1.975-13.066-4.424v3.993c0,2.441,5.841,4.416,13.066,4.416
				c7.222,0,13.063-1.975,13.063-4.416l0,0v-3.993C45.063,35.518,39.222,37.515,32,37.515z"/>
			<path fill="#FFFFFF" d="M18.938,32.95v0.141C18.938,33.047,18.938,32.998,18.938,32.95L18.938,32.95z"/>
			<path fill="#FFFFFF" d="M22.43,30.054c0.022,0,0.07-0.026,0.093-0.026C22.5,30.054,22.474,30.054,22.43,30.054z"/>
			<path fill="#FFFFFF" d="M19.843,31.479C19.843,31.457,19.843,31.457,19.843,31.479C19.843,31.457,19.843,31.457,19.843,31.479z"
				/>
			<path fill="#FFFFFF" d="M45.063,32.95c0,0.048,0,0.097,0,0.141V32.95L45.063,32.95z"/>
			<path fill="#FFFFFF" d="M19.435,31.883C19.435,31.859,19.435,31.859,19.435,31.883C19.435,31.859,19.435,31.859,19.435,31.883z"
				/>
			<path fill="#FFFFFF" d="M19.624,31.671L19.624,31.671L19.624,31.671z"/>
			<path fill="#FFFFFF" d="M20.077,31.263L20.077,31.263L20.077,31.263z"/>
			<path fill="#FFFFFF" d="M27.558,28.915c0.096,0,0.189-0.026,0.282-0.026C27.747,28.888,27.654,28.915,27.558,28.915z"/>
			<path fill="#FFFFFF" d="M26.968,28.983c0.093-0.022,0.164-0.022,0.26-0.022C27.131,28.962,27.061,28.983,26.968,28.983z"/>
			<path fill="#FFFFFF" d="M28.152,28.844c0.096,0,0.189-0.026,0.308-0.026C28.341,28.818,28.248,28.844,28.152,28.844z"/>
			<path fill="#FFFFFF" d="M22.856,29.909c0.026,0,0.07-0.02,0.093-0.02C22.927,29.889,22.904,29.909,22.856,29.909z"/>
			<path fill="#FFFFFF" d="M29.388,28.748c0.119,0,0.237-0.024,0.356-0.024C29.625,28.723,29.506,28.723,29.388,28.748z"/>
			<path fill="#FFFFFF" d="M26.396,29.082c0.07-0.024,0.163-0.024,0.234-0.048C26.56,29.057,26.467,29.057,26.396,29.082z"/>
			<path fill="#FFFFFF" d="M28.771,28.794c0.093,0,0.211-0.024,0.33-0.024C28.983,28.77,28.864,28.77,28.771,28.794z"/>
			<path fill="#FFFFFF" d="M23.784,29.651c0.044-0.024,0.093-0.024,0.141-0.048C23.877,29.603,23.829,29.627,23.784,29.651z"/>
			<path fill="#FFFFFF" d="M23.309,29.771c0.048-0.024,0.07-0.024,0.119-0.05C23.402,29.748,23.354,29.771,23.309,29.771z"/>
			<path fill="#FFFFFF" d="M24.255,29.508c0.048-0.024,0.119-0.024,0.167-0.05C24.374,29.484,24.33,29.508,24.255,29.508z"/>
			<path fill="#FFFFFF" d="M24.778,29.388c0.071-0.024,0.119-0.024,0.189-0.048C24.897,29.363,24.827,29.388,24.778,29.388z"/>
			<path fill="#FFFFFF" d="M25.302,29.271c0.07-0.022,0.141-0.022,0.211-0.048C25.42,29.249,25.372,29.271,25.302,29.271z"/>
			<path fill="#FFFFFF" d="M25.847,29.178c0.071-0.026,0.141-0.026,0.215-0.05C25.988,29.152,25.918,29.152,25.847,29.178z"/>
		</g>
		<path fill="#FFFFFF" d="M32,18.678c7.214,0,13.063,1.978,13.063,4.42c0,2.44-5.849,4.417-13.063,4.417
			c-7.218,0-13.066-1.978-13.066-4.417C18.934,20.656,24.782,18.678,32,18.678z"/>
	</g>
	<g>
		<rect x="10.636" y="3.5" opacity="0.8" fill="#FFFFFF" enable-background="new    " width="42.728" height="10.925"/>
		<g enable-background="new    ">
			<path fill="#E64A19" d="M20.83,12.158c-0.074-0.223-0.156-0.453-0.241-0.688c-0.087-0.236-0.174-0.471-0.26-0.703h-2.644
				C17.6,11,17.513,11.235,17.427,11.471c-0.085,0.235-0.165,0.464-0.239,0.687h-1.583c0.254-0.692,0.496-1.334,0.724-1.922
				c0.23-0.586,0.453-1.141,0.672-1.661c0.219-0.52,0.434-1.013,0.647-1.48c0.211-0.468,0.432-0.924,0.661-1.37h1.445
				c0.223,0.445,0.441,0.902,0.659,1.37c0.215,0.467,0.432,0.961,0.651,1.48c0.221,0.52,0.443,1.074,0.673,1.661
				c0.229,0.588,0.471,1.23,0.726,1.922H20.83z M19,7.183c-0.035,0.093-0.085,0.219-0.15,0.38s-0.139,0.347-0.223,0.557
				c-0.085,0.211-0.178,0.443-0.282,0.698c-0.102,0.252-0.208,0.518-0.315,0.796h1.937c-0.104-0.278-0.204-0.545-0.301-0.8
				c-0.098-0.254-0.189-0.486-0.276-0.698c-0.089-0.209-0.165-0.395-0.23-0.557C19.093,7.4,19.04,7.274,19,7.183z"/>
			<path fill="#E64A19" d="M26.176,12.288c-1.101,0-1.939-0.292-2.516-0.872c-0.575-0.583-0.865-1.408-0.865-2.479
				c0-0.533,0.089-1.007,0.264-1.425c0.176-0.417,0.417-0.77,0.724-1.058s0.671-0.507,1.095-0.655
				C25.3,5.65,25.76,5.576,26.253,5.576c0.288,0,0.547,0.021,0.783,0.062c0.234,0.039,0.44,0.085,0.614,0.139
				c0.176,0.052,0.323,0.105,0.439,0.161c0.119,0.056,0.203,0.1,0.254,0.13l-0.44,1.171c-0.208-0.106-0.451-0.197-0.727-0.271
				s-0.592-0.111-0.943-0.111c-0.233,0-0.464,0.037-0.688,0.111c-0.225,0.074-0.425,0.195-0.598,0.358
				c-0.172,0.163-0.31,0.376-0.414,0.636c-0.106,0.26-0.158,0.575-0.158,0.946c0,0.297,0.035,0.573,0.104,0.831
				c0.069,0.256,0.178,0.477,0.333,0.663c0.152,0.188,0.353,0.334,0.601,0.441c0.247,0.11,0.545,0.164,0.898,0.164
				c0.221,0,0.419-0.013,0.596-0.037c0.176-0.026,0.332-0.056,0.469-0.089c0.137-0.033,0.258-0.072,0.362-0.115
				c0.104-0.044,0.199-0.083,0.284-0.121l0.419,1.16c-0.215,0.124-0.518,0.235-0.909,0.334
				C27.144,12.237,26.691,12.288,26.176,12.288z"/>
			<path fill="#E64A19" d="M32.264,12.288c-1.101,0-1.939-0.292-2.516-0.872c-0.575-0.583-0.865-1.408-0.865-2.479
				c0-0.533,0.089-1.007,0.264-1.425c0.176-0.417,0.417-0.77,0.724-1.058s0.671-0.507,1.095-0.655
				c0.423-0.148,0.883-0.223,1.376-0.223c0.288,0,0.547,0.021,0.783,0.062c0.234,0.039,0.44,0.085,0.614,0.139
				c0.177,0.052,0.325,0.105,0.44,0.161c0.118,0.056,0.204,0.1,0.256,0.13l-0.441,1.171c-0.208-0.106-0.451-0.197-0.728-0.271
				s-0.592-0.111-0.943-0.111c-0.234,0-0.464,0.037-0.688,0.111c-0.224,0.074-0.425,0.195-0.597,0.358
				c-0.173,0.163-0.31,0.376-0.414,0.636c-0.105,0.26-0.158,0.575-0.158,0.946c0,0.297,0.036,0.573,0.104,0.831
				c0.069,0.256,0.178,0.477,0.332,0.663c0.152,0.188,0.353,0.334,0.602,0.441c0.247,0.11,0.545,0.164,0.898,0.164
				c0.22,0,0.419-0.013,0.595-0.037c0.177-0.026,0.332-0.056,0.47-0.089c0.138-0.033,0.258-0.072,0.362-0.115
				c0.102-0.044,0.198-0.083,0.283-0.121l0.42,1.16c-0.216,0.124-0.52,0.235-0.909,0.334C33.232,12.237,32.779,12.288,32.264,12.288
				z"/>
			<path fill="#E64A19" d="M41.44,8.937c0,0.557-0.097,1.043-0.274,1.457c-0.186,0.416-0.445,0.759-0.779,1.032
				c-0.334,0.272-0.742,0.477-1.225,0.612c-0.482,0.135-1.024,0.204-1.622,0.204c-0.274,0-0.594-0.011-0.957-0.032
				c-0.367-0.022-0.724-0.067-1.076-0.135V5.808c0.353-0.061,0.716-0.104,1.103-0.124c0.378-0.022,0.705-0.034,0.979-0.034
				c0.579,0,1.105,0.062,1.577,0.186c0.471,0.125,0.879,0.319,1.213,0.584c0.342,0.267,0.602,0.607,0.787,1.022
				C41.344,7.856,41.44,8.356,41.44,8.937z M37.032,10.979c0.07,0.005,0.155,0.011,0.248,0.013c0.093,0.004,0.204,0.006,0.338,0.006
				c0.761,0,1.329-0.184,1.692-0.549c0.371-0.364,0.557-0.868,0.557-1.512c0-0.673-0.178-1.186-0.534-1.531
				c-0.349-0.347-0.905-0.521-1.666-0.521c-0.104,0-0.212,0.002-0.323,0.006c-0.111,0.003-0.215,0.011-0.312,0.022V10.979z"/>
			<path fill="#E64A19" d="M44.966,12.241c-0.371,0-0.742-0.011-1.113-0.032c-0.363-0.022-0.749-0.074-1.143-0.154V5.817
				c0.312-0.056,0.653-0.096,1.024-0.124s0.712-0.043,1.031-0.043c0.431,0,0.831,0.03,1.188,0.089
				c0.363,0.057,0.676,0.159,0.936,0.3c0.26,0.143,0.467,0.331,0.608,0.563c0.148,0.232,0.223,0.518,0.223,0.859
				c0,0.512-0.26,0.918-0.779,1.215c0.431,0.154,0.72,0.366,0.876,0.631c0.155,0.267,0.237,0.566,0.237,0.9
				c0,0.675-0.26,1.182-0.779,1.523C46.755,12.07,45.982,12.241,44.966,12.241z M44.194,8.25h0.742c0.468,0,0.802-0.058,1.002-0.172
				c0.208-0.113,0.304-0.299,0.304-0.551c0-0.26-0.104-0.443-0.312-0.549c-0.208-0.104-0.512-0.158-0.92-0.158
				c-0.126,0-0.268,0.002-0.416,0.006c-0.155,0.003-0.289,0.011-0.4,0.022V8.25z M44.194,9.354v1.663
				c0.111,0.011,0.229,0.021,0.356,0.028c0.133,0.005,0.274,0.009,0.43,0.009c0.461,0,0.824-0.063,1.106-0.186
				c0.282-0.125,0.423-0.353,0.423-0.688c0-0.297-0.119-0.508-0.356-0.635c-0.229-0.128-0.571-0.191-1.002-0.191H44.194z"/>
		</g>
	</g>
</g>
</svg>
