<?xml version="1.0" encoding="utf-8"?>
<!-- Generator: Adobe Illustrator 16.0.0, SVG Export Plug-In . SVG Version: 6.00 Build 0)  -->
<!DOCTYPE svg PUBLIC "-//W3C//DTD SVG 1.1//EN" "http://www.w3.org/Graphics/SVG/1.1/DTD/svg11.dtd">
<svg version="1.1" id="图层_1" xmlns="http://www.w3.org/2000/svg" xmlns:xlink="http://www.w3.org/1999/xlink" x="0px" y="0px"
	 width="64px" height="64px" viewBox="0 0 64 64" enable-background="new 0 0 64 64" xml:space="preserve">
<polygon opacity="0.1" points="9.155,64 9.155,2 56.845,2 56.845,46.498 39.343,64 "/>
<polygon opacity="0.1" points="10.155,63 10.155,3 55.845,3 55.845,46.084 38.929,63 "/>
<polygon opacity="0.2" points="9.155,62 9.155,2 54.845,2 54.845,45.084 37.929,62 "/>
<polygon fill="#5F7B89" points="10.148,61 10.148,3 53.852,3 53.852,44.67 37.517,61 "/>
<g>
	<g>
		<g>
			
				<linearGradient id="SVGID_1_" gradientUnits="userSpaceOnUse" x1="73.6006" y1="422.3994" x2="73.6006" y2="479.4004" gradientTransform="matrix(1 0 0 1 -41.5996 -418.9004)">
				<stop  offset="0" style="stop-color:#F6F5F5"/>
				<stop  offset="0.341" style="stop-color:#F1F2F3"/>
				<stop  offset="0.6434" style="stop-color:#E7EAEB"/>
				<stop  offset="0.9302" style="stop-color:#D5DBDF"/>
				<stop  offset="1" style="stop-color:#CFD7DB"/>
			</linearGradient>
			<polygon fill="url(#SVGID_1_)" points="10.646,60.5 10.646,3.5 53.354,3.5 53.354,44.469 37.32,60.5 			"/>
		</g>
		<polygon fill="#455963" fill-opacity="0.7" points="53.354,44.469 53.354,43.779 36.442,43.779 36.442,60.5 37.32,60.5 		"/>
		<path fill="#8DA1AC" d="M37.296,44.469l16.058,0.021L37.32,60.5L37.296,44.469z"/>
	</g>
	<g>
		<rect x="16.157" y="20.886" opacity="0.8" fill="#5F7B89" enable-background="new    " width="31.662" height="1.566"/>
		<rect x="16.157" y="15.991" opacity="0.8" fill="#5F7B89" enable-background="new    " width="31.662" height="1.569"/>
		<rect x="31.266" y="25.491" opacity="0.8" fill="#5F7B89" enable-background="new    " width="16.527" height="16.53"/>
		<g opacity="0.8">
			<rect x="16.157" y="25.776" fill="#5F7B89" width="13.754" height="1.569"/>
			<rect x="16.157" y="30.672" fill="#5F7B89" width="13.754" height="1.567"/>
			<rect x="16.157" y="35.584" fill="#5F7B89" width="13.754" height="1.568"/>
			<rect x="16.157" y="40.479" fill="#5F7B89" width="13.754" height="1.566"/>
		</g>
	</g>
</g>
</svg>
