<?xml version="1.0" encoding="utf-8"?>
<!-- Generator: Adobe Illustrator 16.0.0, SVG Export Plug-In . SVG Version: 6.00 Build 0)  -->
<!DOCTYPE svg PUBLIC "-//W3C//DTD SVG 1.1//EN" "http://www.w3.org/Graphics/SVG/1.1/DTD/svg11.dtd">
<svg version="1.1" id="图层_1" xmlns="http://www.w3.org/2000/svg" xmlns:xlink="http://www.w3.org/1999/xlink" x="0px" y="0px"
	 width="64px" height="64px" viewBox="0 0 64 64" enable-background="new 0 0 64 64" xml:space="preserve">
<polygon opacity="0.1" enable-background="new    " points="9.155,64 9.155,2 56.846,2 56.846,46.498 39.343,64 "/>
<polygon opacity="0.1" enable-background="new    " points="10.155,63 10.155,3 55.846,3 55.846,46.084 38.93,63 "/>
<polygon opacity="0.2" enable-background="new    " points="9.155,62 9.155,2 54.846,2 54.846,45.084 37.93,62 "/>
<polygon fill="#3E2723" points="10.148,61 10.148,3 53.852,3 53.852,44.67 37.518,61 "/>
<g>
	<g>
		
			<linearGradient id="SVGID_1_" gradientUnits="userSpaceOnUse" x1="73.6016" y1="-103.4004" x2="73.6016" y2="-160.4009" gradientTransform="matrix(1 0 0 -1 -41.6001 -99.9004)">
			<stop  offset="0" style="stop-color:#785548"/>
			<stop  offset="1" style="stop-color:#9F9E9F"/>
		</linearGradient>
		<polygon fill="url(#SVGID_1_)" points="10.649,60.5 10.649,3.5 53.355,3.5 53.355,44.446 37.479,60.5 		"/>
		<polygon fill="#795548" fill-opacity="0.7" points="53.355,44.469 53.355,43.778 36.447,43.778 36.447,60.5 37.324,60.5 		"/>
		<path opacity="0.39" fill="#FFFFFF" enable-background="new    " d="M37.301,44.469l16.055,0.022L37.324,60.5L37.301,44.469z"/>
	</g>
	<path fill="#FFFFFF" d="M25.909,14.488h-1.447v18.51H23.37v-18.51h-1.44v18.51h-1.091v-18.51h-1.44v18.51h-1.091v-18.51h-1.44
		v18.51H16.49v7.842h9.908v-7.842h-0.489V14.488z M24.958,38.561H17.93v-4.545h7.028V38.561z"/>
	<g>
		<rect x="10.638" y="3.5" opacity="0.8" fill="#FFFFFF" enable-background="new    " width="42.723" height="10.925"/>
		<g enable-background="new    ">
			<path fill="#5D4037" d="M27.267,4.706v1.635h-2.702v6.88h-2.019v-6.88h-2.702V4.706H27.267z"/>
			<path fill="#5D4037" d="M33.508,13.221c-0.096-0.295-0.199-0.599-0.318-0.911c-0.111-0.312-0.23-0.623-0.342-0.931h-3.502
				c-0.111,0.31-0.223,0.622-0.342,0.933c-0.111,0.312-0.215,0.616-0.312,0.909h-2.097c0.338-0.917,0.656-1.765,0.961-2.544
				c0.301-0.777,0.594-1.51,0.883-2.199c0.29-0.688,0.579-1.341,0.861-1.959c0.282-0.618,0.571-1.223,0.876-1.813h1.907
				c0.297,0.59,0.586,1.195,0.875,1.813c0.283,0.618,0.572,1.271,0.861,1.959c0.289,0.688,0.586,1.421,0.891,2.199
				c0.305,0.779,0.623,1.627,0.965,2.544H33.508z M31.089,6.636c-0.045,0.123-0.111,0.292-0.201,0.505
				c-0.081,0.213-0.186,0.458-0.297,0.736c-0.111,0.28-0.229,0.586-0.371,0.922c-0.133,0.336-0.274,0.687-0.415,1.056h2.561
				c-0.134-0.369-0.268-0.722-0.394-1.06c-0.134-0.336-0.252-0.644-0.371-0.922c-0.111-0.28-0.215-0.525-0.305-0.739
				C31.215,6.923,31.141,6.756,31.089,6.636z"/>
			<path fill="#5D4037" d="M39.445,4.608c1.344,0,2.375,0.228,3.096,0.683c0.713,0.455,1.068,1.162,1.068,2.119
				c0,0.597-0.141,1.083-0.43,1.457c-0.289,0.373-0.705,0.664-1.248,0.877c0.18,0.213,0.371,0.457,0.564,0.731
				c0.201,0.275,0.4,0.561,0.594,0.861c0.193,0.299,0.379,0.609,0.564,0.934c0.178,0.323,0.35,0.64,0.504,0.952h-2.256
				c-0.17-0.278-0.334-0.56-0.504-0.848c-0.164-0.286-0.342-0.564-0.52-0.835c-0.178-0.271-0.35-0.527-0.527-0.769
				c-0.17-0.241-0.342-0.46-0.512-0.657h-1.002v3.108h-2.012V4.829c0.438-0.082,0.891-0.139,1.357-0.171
				C38.66,4.625,39.074,4.608,39.445,4.608z M39.564,6.242c-0.148,0-0.281,0.004-0.393,0.013c-0.119,0.007-0.23,0.015-0.334,0.024
				v2.31h0.57c0.758,0,1.299-0.091,1.633-0.271c0.328-0.18,0.49-0.488,0.49-0.922c0-0.417-0.17-0.714-0.496-0.891
				C40.701,6.33,40.211,6.242,39.564,6.242z"/>
		</g>
	</g>
</g>
</svg>
