<?xml version="1.0" encoding="utf-8"?>
<!-- Generator: Adobe Illustrator 21.0.0, SVG Export Plug-In . SVG Version: 6.00 Build 0)  -->
<svg version="1.1" id="图层_1" xmlns="http://www.w3.org/2000/svg" xmlns:xlink="http://www.w3.org/1999/xlink" x="0px" y="0px"
	 viewBox="0 0 64 64" style="enable-background:new 0 0 64 64;" xml:space="preserve">
<style type="text/css">
	.st0{opacity:0.08;enable-background:new    ;}
	.st1{opacity:0.1;enable-background:new    ;}
	.st2{opacity:0.2;enable-background:new    ;}
	.st3{fill:url(#SVGID_1_);}
	.st4{fill:#EE6F0B;fill-opacity:0.3922;}
	.st5{fill:#FFFFFF;fill-opacity:0.3922;}
	.st6{fill:#EE6F0B;}
	.st7{opacity:0.8;}
	.st8{fill:#FFFFFF;}
</style>
<g id="surface1_1_">
	<polygon class="st0" points="9.3,64 9.3,2 56.8,2 56.8,46.5 39.3,64 	"/>
	<polygon class="st1" points="10.3,63 10.3,3 55.8,3 55.8,46.1 38.9,63 	"/>
	<polygon class="st2" points="9.3,62 9.3,2 54.8,2 54.8,45.1 37.9,62 	"/>
	<g>
		
			<linearGradient id="SVGID_1_" gradientUnits="userSpaceOnUse" x1="240.0005" y1="-2416.9512" x2="240.0005" y2="-2358.9512" gradientTransform="matrix(1 0 0 -1 -208.0005 -2355.9512)">
			<stop  offset="0" style="stop-color:#F57C00"/>
			<stop  offset="0.099" style="stop-color:#F78B0C"/>
			<stop  offset="0.3289" style="stop-color:#FAA823"/>
			<stop  offset="0.5576" style="stop-color:#FDBC33"/>
			<stop  offset="0.7827" style="stop-color:#FEC93D"/>
			<stop  offset="1" style="stop-color:#FFCD40"/>
		</linearGradient>
		<path class="st3" d="M37.4,61l16.3-16.3V3H10.3v58H37.4z"/>
		<polygon class="st4" points="36.5,43.8 36.5,61 37.4,61 53.8,44.7 53.8,43.8 		"/>
		<path class="st5" d="M37.4,44.7h16.3L37.4,61V44.7z"/>
		<g>
			<path class="st6" d="M53.3,3.5v41l-16,16H24.8h-14v-57H53.3 M53.8,3H10.3v58h14.5h12.7l16.3-16.3V3L53.8,3z"/>
		</g>
	</g>
	<g class="st7">
		<path class="st8" d="M28.1,35.2c0,0-1.1,0.6,0.8,0.8c2.4,0.3,3.6,0.2,6.2-0.2c0,0,0.7,0.4,1.6,0.8C30.9,38.9,23.5,36.4,28.1,35.2"
			/>
		<path class="st8" d="M27.4,32.1c0,0-1.3,0.9,0.7,1.1c2.5,0.2,4.5,0.3,8-0.4c0,0,0.5,0.5,1.2,0.7C30.2,35.5,22.3,33.7,27.4,32.1"/>
		<path class="st8" d="M33.4,26.9c1.4,1.6-0.4,3-0.4,3s3.7-1.8,2-4c-1.6-2.1-2.8-3.1,3.7-6.7C38.7,19.1,28.5,21.5,33.4,26.9"/>
		<path class="st8" d="M41.1,37.5c0,0,0.8,0.7-0.9,1.2c-3.4,1-14,1.3-17,0c-1.1-0.4,0.9-1.1,1.6-1.2c0.7-0.1,1-0.1,1-0.1
			c-1.2-0.8-7.7,1.6-3.3,2.2C34.4,41.5,44.2,38.8,41.1,37.5"/>
		<path class="st8" d="M28.6,28.9c0,0-5.4,1.2-1.9,1.7c1.5,0.2,4.4,0.1,7.2-0.1c2.2-0.2,4.5-0.6,4.5-0.6s-0.8,0.3-1.4,0.7
			c-5.5,1.4-16.2,0.7-13.1-0.7C26.5,28.8,28.6,28.9,28.6,28.9"/>
		<path class="st8" d="M38.4,34.1c5.6-2.8,3-5.4,1.2-5.1c-0.4,0.1-0.6,0.2-0.6,0.2s0.2-0.2,0.5-0.4c3.6-1.2,6.3,3.5-1.2,5.4
			C38.2,34.2,38.3,34.1,38.4,34.1"/>
		<path class="st8" d="M35,13.3c0,0,3.1,2.9-2.9,7.5c-4.9,3.6-1.1,5.7,0,8.1c-2.8-2.4-4.9-4.6-3.5-6.5C30.6,19.4,36.2,18,35,13.3"/>
		<path class="st8" d="M29.2,41.5c5.4,0.3,13.6-0.2,13.8-2.6c0,0-0.4,0.9-4.5,1.6C34,41.4,28.3,41.3,25,40.8
			C25,40.8,25.6,41.3,29.2,41.5"/>
	</g>
</g>
</svg>
