<?xml version="1.0" encoding="utf-8"?>
<!-- Generator: Adobe Illustrator 16.0.0, SVG Export Plug-In . SVG Version: 6.00 Build 0)  -->
<!DOCTYPE svg PUBLIC "-//W3C//DTD SVG 1.1//EN" "http://www.w3.org/Graphics/SVG/1.1/DTD/svg11.dtd">
<svg version="1.1" id="图层_1" xmlns="http://www.w3.org/2000/svg" xmlns:xlink="http://www.w3.org/1999/xlink" x="0px" y="0px"
	 width="64px" height="64px" viewBox="0 0 64 64" enable-background="new 0 0 64 64" xml:space="preserve">
<g id="surface1">
	<polygon opacity="0.08" points="9.25,64 9.25,2 56.75,2 56.75,46.516 39.266,64 	"/>
	<polygon opacity="0.1" points="10.25,63 10.25,3 55.75,3 55.75,46.102 38.852,63 	"/>
	<polygon opacity="0.2" points="9.25,62 9.25,2 54.75,2 54.75,45.102 37.852,62 	"/>
	
		<linearGradient id="SVGID_1_" gradientUnits="userSpaceOnUse" x1="156.8008" y1="-937.9707" x2="156.8008" y2="-879.9707" gradientTransform="matrix(1 0 0 -1 -124.8003 -876.9707)">
		<stop  offset="0" style="stop-color:#512DA8"/>
		<stop  offset="0.008" style="stop-color:#532EA8"/>
		<stop  offset="0.2103" style="stop-color:#7843B4"/>
		<stop  offset="0.4127" style="stop-color:#9553BD"/>
		<stop  offset="0.6129" style="stop-color:#A95FC3"/>
		<stop  offset="0.8099" style="stop-color:#B666C7"/>
		<stop  offset="1" style="stop-color:#BA68C8"/>
	</linearGradient>
	<path fill="url(#SVGID_1_)" d="M37.438,61L53.75,44.688V3h-43.5v58H37.438z"/>
	<polygon fill="#673AB7" fill-opacity="0.3922" points="36.531,43.781 36.531,61 37.438,61 53.75,44.688 53.75,43.781 	"/>
	<path fill="#FFFFFF" fill-opacity="0.3922" d="M37.438,44.688h16.298L37.438,61V44.688z"/>
	<path opacity="0.8" fill="#FFFFFF" enable-background="new    " d="M44.688,27.471c0-6.988-5.7-12.69-12.688-12.69
		c-6.988,0-12.688,5.702-12.688,12.69c0,6.988,5.699,12.683,12.688,12.683C38.987,40.156,44.688,34.459,44.688,27.471z
		 M22.488,27.471c0-5.277,4.24-9.515,9.512-9.515s9.512,4.238,9.512,9.515c0,5.271-4.24,9.517-9.512,9.517
		S22.488,32.743,22.488,27.471z M37.438,27.471l-9.063-5.438v10.878L37.438,27.471z"/>
	<g>
		<path fill="#311B92" d="M53.25,3.5v40.98L37.23,60.5H24.75h-14v-57H53.25 M53.75,3h-43.5v58h14.5h12.688L53.75,44.688V3L53.75,3z"
			/>
	</g>
</g>
</svg>
