<?xml version="1.0" encoding="utf-8"?>
<!-- Generator: Adobe Illustrator 16.0.0, SVG Export Plug-In . SVG Version: 6.00 Build 0)  -->
<!DOCTYPE svg PUBLIC "-//W3C//DTD SVG 1.1//EN" "http://www.w3.org/Graphics/SVG/1.1/DTD/svg11.dtd">
<svg version="1.1" id="图层_1" xmlns="http://www.w3.org/2000/svg" xmlns:xlink="http://www.w3.org/1999/xlink" x="0px" y="0px"
	 width="64px" height="64px" viewBox="0 0 64 64" enable-background="new 0 0 64 64" xml:space="preserve">
<polygon opacity="0.1" enable-background="new    " points="9.155,64 9.155,2 56.846,2 56.846,46.498 39.343,64 "/>
<polygon opacity="0.1" enable-background="new    " points="10.155,63 10.155,3 55.846,3 55.846,46.084 38.93,63 "/>
<polygon opacity="0.2" enable-background="new    " points="9.155,62 9.155,2 54.846,2 54.846,45.084 37.93,62 "/>
<polygon fill="#3E2723" points="10.148,61 10.148,3 53.852,3 53.852,44.67 37.518,61 "/>
<g>
	<g>
		
			<linearGradient id="SVGID_1_" gradientUnits="userSpaceOnUse" x1="73.6016" y1="-103.4004" x2="73.6016" y2="-160.4009" gradientTransform="matrix(1 0 0 -1 -41.6001 -99.9004)">
			<stop  offset="0" style="stop-color:#785548"/>
			<stop  offset="1" style="stop-color:#9F9E9F"/>
		</linearGradient>
		<polygon fill="url(#SVGID_1_)" points="10.649,60.5 10.649,3.5 53.355,3.5 53.355,44.446 37.479,60.5 		"/>
		<polygon fill="#795548" fill-opacity="0.7" points="53.355,44.469 53.355,43.778 36.447,43.778 36.447,60.5 37.324,60.5 		"/>
		<path opacity="0.39" fill="#FFFFFF" enable-background="new    " d="M37.301,44.469l16.055,0.022L37.324,60.5L37.301,44.469z"/>
	</g>
	<path fill="#FFFFFF" d="M25.909,14.488h-1.447v18.51H23.37v-18.51h-1.44v18.51h-1.091v-18.51h-1.44v18.51h-1.091v-18.51h-1.44
		v18.51H16.49v7.842h9.908v-7.842h-0.489V14.488z M24.958,38.561H17.93v-4.545h7.028V38.561z"/>
	<g>
		<rect x="10.638" y="3.5" opacity="0.8" fill="#FFFFFF" enable-background="new    " width="42.723" height="10.925"/>
		<g enable-background="new    ">
			<path fill="#5D4037" d="M26.235,4.706v1.635H23.53v6.88h-2.015v-6.88H18.81V4.706H26.235z"/>
			<path fill="#5D4037" d="M32.93,4.706h2.02v8.515h-2.02V9.608h-3.384v3.612h-2.019V4.706h2.019v3.256h3.384V4.706z"/>
			<path fill="#5D4037" d="M43.031,13.221c-0.102-0.295-0.209-0.599-0.32-0.911c-0.117-0.312-0.229-0.623-0.344-0.931h-3.5
				c-0.115,0.31-0.23,0.622-0.342,0.933c-0.111,0.312-0.219,0.616-0.318,0.909h-2.094c0.334-0.917,0.656-1.765,0.957-2.544
				c0.305-0.777,0.602-1.51,0.891-2.199c0.291-0.688,0.576-1.341,0.854-1.959c0.283-0.618,0.576-1.223,0.877-1.813h1.914
				c0.297,0.59,0.586,1.195,0.869,1.813c0.289,0.618,0.574,1.271,0.867,1.959c0.291,0.688,0.588,1.421,0.887,2.199
				c0.305,0.779,0.625,1.627,0.963,2.544H43.031z M40.607,6.636c-0.049,0.123-0.111,0.292-0.197,0.505
				c-0.088,0.213-0.186,0.458-0.297,0.736c-0.111,0.28-0.236,0.586-0.371,0.922c-0.137,0.336-0.273,0.687-0.414,1.056h2.561
				c-0.139-0.369-0.271-0.722-0.402-1.06c-0.125-0.336-0.248-0.644-0.363-0.922c-0.119-0.28-0.215-0.525-0.305-0.739
				C40.73,6.923,40.664,6.756,40.607,6.636z"/>
		</g>
	</g>
</g>
</svg>
