<?xml version="1.0" encoding="utf-8"?>
<!-- Generator: Adobe Illustrator 21.0.0, SVG Export Plug-In . SVG Version: 6.00 Build 0)  -->
<svg version="1.1" id="图层_1" xmlns="http://www.w3.org/2000/svg" xmlns:xlink="http://www.w3.org/1999/xlink" x="0px" y="0px"
	 viewBox="0 0 64 64" style="enable-background:new 0 0 64 64;" xml:space="preserve">
<style type="text/css">
	.st0{opacity:0.1;enable-background:new    ;}
	.st1{opacity:0.2;enable-background:new    ;}
	.st2{fill:#1B5E20;}
	.st3{fill:url(#SVGID_1_);}
	.st4{fill:#1B5E20;fill-opacity:0.39;}
	.st5{fill:#FFFFFF;fill-opacity:0.3922;}
	.st6{opacity:0.8;fill:#FFFFFF;enable-background:new    ;}
	.st7{enable-background:new    ;}
	.st8{fill:#38883B;}
</style>
<polygon class="st0" points="9.2,64 9.2,2 56.8,2 56.8,46.5 39.3,64 "/>
<polygon class="st0" points="10.2,63 10.2,3 55.8,3 55.8,46.1 38.9,63 "/>
<polygon class="st1" points="9.2,62 9.2,2 54.8,2 54.8,45.1 37.9,62 "/>
<polygon class="st2" points="10.1,61 10.1,3 53.9,3 53.9,44.7 37.5,61 "/>
<g>
	<g>
		<g>
			<g>
				<g>
					
						<linearGradient id="SVGID_1_" gradientUnits="userSpaceOnUse" x1="115.1502" y1="-1281.3008" x2="115.1502" y2="-1224.3008" gradientTransform="matrix(1 0 0 -1 -83.2002 -1220.8008)">
						<stop  offset="0" style="stop-color:#388E3C"/>
						<stop  offset="0.0757" style="stop-color:#43953E"/>
						<stop  offset="0.3246" style="stop-color:#62A943"/>
						<stop  offset="0.5665" style="stop-color:#79B747"/>
						<stop  offset="0.796" style="stop-color:#86C049"/>
						<stop  offset="1" style="stop-color:#8BC34A"/>
					</linearGradient>
					<polygon class="st3" points="10.6,60.5 10.6,3.5 53.3,3.5 53.3,44.5 37.3,60.5 					"/>
				</g>
				<polygon class="st4" points="53.3,44.5 53.3,43.8 36.4,43.8 36.4,60.5 37.3,60.5 				"/>
				<path class="st5" d="M37.3,44.5h16.1l-16,16L37.3,44.5z"/>
			</g>
			<path class="st6" d="M33.1,16.1L33.1,16.1H31l0,0H17.3v26.6h29.4V16.1H33.1z M19.4,24H26v4.2h-6.6V24z M19.4,30.3H26v4.2h-6.6
				V30.3z M28.2,30.3h16.4v4.2H28.2V30.3z M28.2,28.2V24h16.4v4.2H28.2z M44.6,18.2v3.6H28.2v-3.6H44.6z M26,18.2v3.6h-6.6v-3.6H26z
				 M19.4,36.7H26v3.8h-6.6V36.7z M28.2,40.5v-3.8h16.4v3.8H28.2z"/>
		</g>
	</g>
	<g>
		<g>
			<rect x="10.6" y="3.5" class="st6" width="42.7" height="10.9"/>
		</g>
		<g class="st7">
			<path class="st8" d="M27.9,8.9c0,0.7-0.1,1.4-0.3,1.9c-0.2,0.6-0.5,1-0.9,1.4s-0.9,0.7-1.4,0.8c-0.5,0.2-1.1,0.3-1.8,0.3
				c-0.6,0-1.2-0.1-1.7-0.3s-1-0.5-1.4-0.8c-0.4-0.4-0.7-0.8-1-1.4c-0.2-0.6-0.3-1.2-0.3-1.9s0.1-1.4,0.4-1.9c0.2-0.6,0.6-1,1-1.4
				s0.9-0.7,1.4-0.8c0.5-0.2,1.1-0.3,1.7-0.3s1.2,0.1,1.7,0.3c0.5,0.2,1,0.5,1.4,0.8C27,6,27.3,6.4,27.5,7
				C27.8,7.5,27.9,8.2,27.9,8.9z M21,8.9c0,0.4,0.1,0.8,0.2,1.1s0.3,0.6,0.5,0.9c0.2,0.2,0.5,0.4,0.7,0.6c0.3,0.1,0.6,0.2,1,0.2
				s0.7-0.1,1-0.2c0.3-0.1,0.5-0.3,0.8-0.6c0.2-0.2,0.4-0.5,0.5-0.9c0.1-0.3,0.2-0.7,0.2-1.1c0-0.4-0.1-0.8-0.2-1.1
				c-0.1-0.3-0.3-0.6-0.5-0.9c-0.2-0.2-0.5-0.4-0.8-0.6c-0.3-0.1-0.6-0.2-1-0.2s-0.7,0.1-1,0.2s-0.5,0.3-0.7,0.6
				c-0.2,0.2-0.4,0.5-0.5,0.9C21.1,8.1,21,8.5,21,8.9z"/>
			<path class="st8" d="M37.4,8.9c0,0.7-0.1,1.4-0.4,1.9c-0.2,0.5-0.6,1-1,1.4s-1,0.6-1.6,0.8s-1.4,0.3-2.2,0.3c-0.4,0-0.8,0-1.3,0
				s-1-0.1-1.4-0.2V4.8c0.5-0.1,1-0.1,1.5-0.2c0.5,0,0.9,0,1.3,0c0.8,0,1.5,0.1,2.1,0.2C35,5,35.5,5.2,36,5.6C36.4,6,36.8,6.4,37,7
				C37.3,7.5,37.4,8.1,37.4,8.9z M31.6,11.6c0.1,0,0.2,0,0.3,0c0.1,0,0.3,0,0.4,0c1,0,1.8-0.2,2.2-0.7c0.5-0.5,0.7-1.2,0.7-2
				c0-0.9-0.2-1.6-0.7-2c-0.5-0.5-1.2-0.7-2.2-0.7c-0.1,0-0.3,0-0.4,0s-0.3,0-0.4,0L31.6,11.6L31.6,11.6z"/>
			<path class="st8" d="M41.5,11.7c0.3,0,0.5,0,0.7-0.1s0.3-0.1,0.4-0.2c0.1-0.1,0.2-0.2,0.2-0.3s0.1-0.2,0.1-0.4
				c0-0.3-0.1-0.5-0.4-0.7c-0.3-0.2-0.8-0.4-1.4-0.6c-0.3-0.1-0.6-0.2-0.9-0.3c-0.3-0.1-0.6-0.3-0.8-0.5C39.2,8.5,39,8.3,38.9,8
				s-0.2-0.6-0.2-1s0.1-0.8,0.2-1.1c0.2-0.3,0.4-0.6,0.7-0.8c0.3-0.2,0.6-0.4,1-0.5C41,4.5,41.5,4.4,42,4.4c0.6,0,1.1,0.1,1.6,0.2
				c0.4,0.2,0.7,0.3,1,0.4L44,6.6c-0.2-0.1-0.5-0.2-0.8-0.3c-0.3-0.1-0.7-0.1-1.1-0.1c-0.5,0-0.8,0.1-1,0.2S40.8,6.7,40.8,7
				c0,0.2,0,0.3,0.1,0.4s0.2,0.2,0.3,0.3c0.1,0.1,0.3,0.2,0.5,0.2C41.9,8,42.1,8,42.3,8.1c0.5,0.2,0.9,0.3,1.2,0.5s0.6,0.3,0.9,0.6
				c0.2,0.2,0.4,0.5,0.5,0.8s0.2,0.6,0.2,1c0,0.8-0.3,1.4-0.9,1.8s-1.5,0.7-2.7,0.7c-0.4,0-0.8,0-1.1-0.1c-0.3,0-0.6-0.1-0.8-0.2
				C39.4,13,39.1,13,39,12.9c-0.2-0.1-0.3-0.1-0.4-0.2l0.6-1.5c0.3,0.1,0.6,0.3,1,0.4C40.5,11.6,41,11.7,41.5,11.7z"/>
		</g>
	</g>
</g>
</svg>
