<?xml version="1.0" encoding="utf-8"?>
<!-- Generator: Adobe Illustrator 16.0.0, SVG Export Plug-In . SVG Version: 6.00 Build 0)  -->
<!DOCTYPE svg PUBLIC "-//W3C//DTD SVG 1.1//EN" "http://www.w3.org/Graphics/SVG/1.1/DTD/svg11.dtd">
<svg version="1.1" id="图层_1" xmlns="http://www.w3.org/2000/svg" xmlns:xlink="http://www.w3.org/1999/xlink" x="0px" y="0px"
	 width="64px" height="64px" viewBox="0 0 64 64" enable-background="new 0 0 64 64" xml:space="preserve">
<polygon opacity="0.1" enable-background="new    " points="9.155,64 9.155,2 56.846,2 56.846,46.498 39.343,64 "/>
<polygon opacity="0.1" enable-background="new    " points="10.155,63 10.155,3 55.846,3 55.846,46.084 38.93,63 "/>
<polygon opacity="0.2" enable-background="new    " points="9.155,62 9.155,2 54.846,2 54.846,45.084 37.93,62 "/>
<polygon fill="#1B5E20" points="10.148,61 10.148,3 53.852,3 53.852,44.67 37.518,61 "/>
<g>
	<g>
		<g>
			<g>
				<g>
					
						<linearGradient id="SVGID_1_" gradientUnits="userSpaceOnUse" x1="115.1973" y1="-579.3003" x2="115.1973" y2="-522.3008" gradientTransform="matrix(1 0 0 -1 -83.2002 -518.8008)">
						<stop  offset="0" style="stop-color:#388E3C"/>
						<stop  offset="0.0757" style="stop-color:#43953E"/>
						<stop  offset="0.3246" style="stop-color:#62A943"/>
						<stop  offset="0.5665" style="stop-color:#79B747"/>
						<stop  offset="0.796" style="stop-color:#86C049"/>
						<stop  offset="1" style="stop-color:#8BC34A"/>
					</linearGradient>
					<polygon fill="url(#SVGID_1_)" points="10.644,60.5 10.644,3.5 53.35,3.5 53.35,44.469 37.318,60.5 					"/>
				</g>
				<polygon fill="#1B5E20" fill-opacity="0.39" points="53.35,44.469 53.35,43.778 36.438,43.778 36.438,60.5 37.318,60.5 				"/>
				<path fill="#FFFFFF" fill-opacity="0.3922" d="M37.295,44.469l16.059,0.022L37.318,60.5L37.295,44.469z"/>
			</g>
			<path opacity="0.8" fill="#FFFFFF" enable-background="new    " d="M33.055,16.087v-0.048h-2.112v0.048H17.32v26.551h29.354
				V16.087H33.055z M19.431,23.97h6.554v4.245h-6.554V23.97z M19.431,30.326h6.554v4.238h-6.554V30.326z M28.167,30.326h16.396
				v4.238H28.167V30.326z M28.167,28.215V23.97h16.396v4.245H28.167z M44.563,18.218v3.647H28.167v-3.647H44.563z M25.985,18.218
				v3.647h-6.554v-3.647H25.985z M19.431,36.698h6.554v3.812h-6.554V36.698z M28.167,40.51v-3.812h16.396v3.812H28.167z"/>
		</g>
	</g>
	<g>
		<g>
			<rect x="10.636" y="3.5" opacity="0.8" fill="#FFFFFF" enable-background="new    " width="42.727" height="10.925"/>
		</g>
		<g enable-background="new    ">
			<path fill="#38883B" d="M27.87,8.896c0,0.728-0.118,1.37-0.349,1.922c-0.223,0.553-0.542,1.017-0.935,1.388
				c-0.394,0.371-0.869,0.653-1.418,0.838c-0.549,0.193-1.136,0.286-1.767,0.286c-0.608,0-1.188-0.093-1.729-0.286
				c-0.541-0.186-1.017-0.467-1.425-0.838c-0.401-0.371-0.72-0.835-0.958-1.388c-0.23-0.553-0.349-1.195-0.349-1.922
				c0-0.731,0.126-1.373,0.364-1.922c0.245-0.557,0.564-1.017,0.979-1.396c0.408-0.378,0.884-0.661,1.418-0.846
				c0.542-0.193,1.105-0.286,1.699-0.286c0.616,0,1.195,0.093,1.737,0.286c0.541,0.186,1.017,0.468,1.425,0.846
				c0.4,0.378,0.72,0.839,0.957,1.396C27.751,7.522,27.87,8.165,27.87,8.896z M21.027,8.896c0,0.416,0.052,0.794,0.163,1.128
				c0.104,0.337,0.26,0.624,0.461,0.868c0.207,0.241,0.452,0.427,0.742,0.557c0.297,0.134,0.631,0.201,1.009,0.201
				c0.371,0,0.705-0.067,1.002-0.201c0.305-0.13,0.55-0.315,0.757-0.557c0.201-0.245,0.356-0.531,0.461-0.868
				c0.111-0.334,0.163-0.712,0.163-1.128c0-0.419-0.052-0.798-0.163-1.135c-0.104-0.341-0.26-0.631-0.461-0.876
				c-0.207-0.237-0.452-0.427-0.757-0.557c-0.297-0.133-0.631-0.2-1.002-0.2c-0.378,0-0.712,0.07-1.009,0.208
				c-0.29,0.134-0.535,0.319-0.742,0.564c-0.201,0.241-0.356,0.53-0.461,0.868C21.079,8.109,21.027,8.487,21.027,8.896z"/>
			<path fill="#38883B" d="M37.4,8.896c0,0.735-0.127,1.381-0.365,1.93c-0.244,0.549-0.586,1.002-1.031,1.362
				c-0.438,0.36-0.979,0.631-1.617,0.813c-0.639,0.178-1.359,0.267-2.153,0.267c-0.356,0-0.779-0.015-1.262-0.044
				c-0.482-0.026-0.957-0.085-1.425-0.178v-8.29c0.468-0.082,0.95-0.137,1.455-0.167c0.504-0.026,0.935-0.041,1.299-0.041
				c0.771,0,1.462,0.082,2.093,0.245c0.623,0.163,1.156,0.423,1.609,0.772c0.445,0.356,0.787,0.805,1.031,1.351
				C37.273,7.463,37.4,8.124,37.4,8.896z M31.566,11.597c0.097,0.007,0.2,0.015,0.327,0.019c0.126,0.004,0.274,0.004,0.445,0.004
				c1.009,0,1.759-0.238,2.248-0.72c0.482-0.486,0.729-1.154,0.729-2.004c0-0.894-0.23-1.569-0.697-2.026
				c-0.469-0.46-1.203-0.69-2.212-0.69c-0.134,0-0.282,0-0.423,0.007c-0.148,0.004-0.29,0.015-0.416,0.03V11.597z"/>
			<path fill="#38883B" d="M41.525,11.694c0.283,0,0.52-0.022,0.705-0.067s0.334-0.104,0.445-0.186
				c0.111-0.074,0.186-0.167,0.23-0.274c0.045-0.104,0.066-0.223,0.066-0.356c0-0.278-0.141-0.512-0.414-0.694
				c-0.275-0.182-0.75-0.382-1.426-0.598c-0.289-0.096-0.586-0.208-0.875-0.334c-0.297-0.126-0.557-0.29-0.787-0.482
				c-0.238-0.193-0.424-0.423-0.572-0.698c-0.148-0.274-0.223-0.608-0.223-1.002c0-0.393,0.082-0.75,0.238-1.061
				c0.156-0.319,0.371-0.586,0.652-0.809c0.289-0.219,0.631-0.39,1.039-0.508c0.4-0.119,0.861-0.178,1.373-0.178
				c0.602,0,1.121,0.063,1.559,0.186c0.445,0.123,0.803,0.256,1.092,0.404L44.043,6.55c-0.246-0.126-0.527-0.234-0.832-0.327
				c-0.305-0.096-0.676-0.141-1.105-0.141c-0.482,0-0.832,0.059-1.039,0.189c-0.215,0.126-0.32,0.323-0.32,0.583
				c0,0.156,0.037,0.29,0.119,0.394c0.074,0.104,0.186,0.2,0.326,0.29c0.143,0.085,0.305,0.163,0.49,0.23
				c0.186,0.074,0.395,0.145,0.617,0.215c0.467,0.167,0.867,0.327,1.217,0.49c0.342,0.156,0.631,0.341,0.861,0.557
				c0.229,0.215,0.4,0.464,0.512,0.75c0.111,0.29,0.162,0.635,0.162,1.046c0,0.794-0.289,1.41-0.875,1.848s-1.469,0.657-2.65,0.657
				c-0.4,0-0.756-0.026-1.076-0.07c-0.318-0.044-0.6-0.097-0.846-0.163c-0.244-0.067-0.459-0.134-0.639-0.208
				c-0.17-0.074-0.318-0.145-0.445-0.208l0.572-1.525c0.268,0.137,0.594,0.263,0.986,0.375
				C40.473,11.642,40.955,11.694,41.525,11.694z"/>
		</g>
	</g>
</g>
</svg>
