<?xml version="1.0" encoding="utf-8"?>
<!-- Generator: Adobe Illustrator 16.0.0, SVG Export Plug-In . SVG Version: 6.00 Build 0)  -->
<!DOCTYPE svg PUBLIC "-//W3C//DTD SVG 1.1//EN" "http://www.w3.org/Graphics/SVG/1.1/DTD/svg11.dtd">
<svg version="1.1" id="图层_1" xmlns="http://www.w3.org/2000/svg" xmlns:xlink="http://www.w3.org/1999/xlink" x="0px" y="0px"
	 width="64px" height="64px" viewBox="0 0 64 64" enable-background="new 0 0 64 64" xml:space="preserve">
<polygon opacity="0.1" enable-background="new    " points="9.155,64 9.155,2 56.846,2 56.846,46.498 39.343,64 "/>
<polygon opacity="0.1" enable-background="new    " points="10.155,63 10.155,3 55.846,3 55.846,46.084 38.93,63 "/>
<polygon opacity="0.2" enable-background="new    " points="9.155,62 9.155,2 54.846,2 54.846,45.084 37.93,62 "/>
<polygon fill="#3E2723" points="10.148,61 10.148,3 53.852,3 53.852,44.67 37.518,61 "/>
<g>
	<g>
		
			<linearGradient id="SVGID_1_" gradientUnits="userSpaceOnUse" x1="73.6016" y1="-103.4004" x2="73.6016" y2="-160.4009" gradientTransform="matrix(1 0 0 -1 -41.6001 -99.9004)">
			<stop  offset="0" style="stop-color:#785548"/>
			<stop  offset="1" style="stop-color:#9F9E9F"/>
		</linearGradient>
		<polygon fill="url(#SVGID_1_)" points="10.649,60.5 10.649,3.5 53.355,3.5 53.355,44.446 37.479,60.5 		"/>
		<polygon fill="#795548" fill-opacity="0.7" points="53.355,44.469 53.355,43.778 36.447,43.778 36.447,60.5 37.324,60.5 		"/>
		<path opacity="0.39" fill="#FFFFFF" enable-background="new    " d="M37.301,44.469l16.055,0.022L37.324,60.5L37.301,44.469z"/>
	</g>
	<path fill="#FFFFFF" d="M25.909,14.488h-1.447v18.51H23.37v-18.51h-1.44v18.51h-1.091v-18.51h-1.44v18.51h-1.091v-18.51h-1.44
		v18.51H16.49v7.842h9.908v-7.842h-0.489V14.488z M24.958,38.561H17.93v-4.545h7.028V38.561z"/>
	<g>
		<rect x="10.638" y="3.5" opacity="0.8" fill="#FFFFFF" enable-background="new    " width="42.723" height="10.925"/>
		<g enable-background="new    ">
			<path fill="#5D4037" d="M20.995,11.759c0.286,0,0.52-0.022,0.705-0.067c0.186-0.046,0.334-0.107,0.445-0.186
				c0.115-0.078,0.189-0.169,0.234-0.276c0.044-0.106,0.067-0.225,0.067-0.356c0-0.278-0.141-0.51-0.416-0.694
				c-0.275-0.184-0.75-0.382-1.421-0.596c-0.293-0.098-0.586-0.211-0.879-0.337c-0.293-0.126-0.557-0.288-0.791-0.479
				c-0.234-0.193-0.423-0.427-0.568-0.701c-0.148-0.275-0.219-0.609-0.219-1c0-0.394,0.074-0.748,0.23-1.063
				s0.375-0.584,0.661-0.805c0.286-0.221,0.631-0.392,1.035-0.51s0.861-0.178,1.369-0.178c0.605,0,1.125,0.062,1.566,0.186
				c0.438,0.123,0.801,0.258,1.087,0.405l-0.583,1.512c-0.252-0.125-0.531-0.232-0.835-0.327c-0.308-0.095-0.675-0.141-1.106-0.141
				c-0.482,0-0.831,0.063-1.042,0.191c-0.208,0.126-0.315,0.321-0.315,0.583c0,0.156,0.041,0.288,0.115,0.393
				c0.078,0.106,0.189,0.202,0.331,0.29c0.145,0.085,0.308,0.163,0.494,0.232c0.186,0.07,0.39,0.143,0.612,0.215
				c0.467,0.165,0.872,0.327,1.217,0.486c0.345,0.16,0.631,0.345,0.861,0.559c0.226,0.213,0.397,0.464,0.508,0.75
				c0.111,0.288,0.17,0.635,0.17,1.045c0,0.794-0.293,1.41-0.879,1.848c-0.586,0.439-1.473,0.659-2.653,0.659
				c-0.397,0-0.753-0.024-1.072-0.069c-0.319-0.044-0.601-0.1-0.846-0.165c-0.249-0.065-0.457-0.136-0.635-0.21
				c-0.178-0.072-0.326-0.143-0.445-0.208l0.568-1.523c0.267,0.139,0.598,0.264,0.991,0.375
				C19.945,11.703,20.427,11.759,20.995,11.759z"/>
			<path fill="#5D4037" d="M26.076,4.706h2.019v8.515h-2.019V4.706z"/>
			<path fill="#5D4037" d="M36.811,4.706v1.635h-2.705v6.88h-2.014v-6.88h-2.706V4.706H36.811z"/>
			<path fill="#5D4037" d="M43.592,13.221c-0.254-0.475-0.527-0.954-0.828-1.441c-0.301-0.486-0.646-0.896-1.035-1.234
				c-0.119,0.128-0.275,0.304-0.457,0.529c-0.186,0.226-0.371,0.465-0.557,0.718c-0.182,0.254-0.359,0.516-0.52,0.789
				c-0.16,0.273-0.277,0.486-0.359,0.64h-2.301c0.379-0.664,0.824-1.351,1.336-2.06c0.512-0.707,1.084-1.458,1.715-2.254
				L37.66,4.706h2.449l1.707,2.466l1.744-2.466h2.301l-2.908,4.11c0.764,0.907,1.391,1.74,1.885,2.496
				c0.494,0.757,0.883,1.394,1.166,1.909H43.592z"/>
		</g>
	</g>
</g>
</svg>
