<?xml version="1.0" encoding="utf-8"?>
<!-- Generator: Adobe Illustrator 16.0.0, SVG Export Plug-In . SVG Version: 6.00 Build 0)  -->
<!DOCTYPE svg PUBLIC "-//W3C//DTD SVG 1.1//EN" "http://www.w3.org/Graphics/SVG/1.1/DTD/svg11.dtd">
<svg version="1.1" id="图层_1" xmlns="http://www.w3.org/2000/svg" xmlns:xlink="http://www.w3.org/1999/xlink" x="0px" y="0px"
	 width="64px" height="64px" viewBox="0 0 64 64" enable-background="new 0 0 64 64" xml:space="preserve">
<polygon opacity="0.1" enable-background="new    " points="9.155,64 9.155,2 56.846,2 56.846,46.498 39.343,64 "/>
<polygon opacity="0.1" enable-background="new    " points="10.155,63 10.155,3 55.846,3 55.846,46.084 38.93,63 "/>
<polygon opacity="0.2" enable-background="new    " points="9.155,62 9.155,2 54.846,2 54.846,45.084 37.93,62 "/>
<polygon fill="#1B5E20" points="10.148,61 10.148,3 53.852,3 53.852,44.67 37.517,61 "/>
<g>
	<g>
		<g>
			
				<linearGradient id="SVGID_1_" gradientUnits="userSpaceOnUse" x1="73.5996" y1="479.4004" x2="73.5996" y2="422.4004" gradientTransform="matrix(1 0 0 1 -41.6001 -418.9004)">
				<stop  offset="0" style="stop-color:#388E3C"/>
				<stop  offset="0.0757" style="stop-color:#43953E"/>
				<stop  offset="0.3246" style="stop-color:#62A943"/>
				<stop  offset="0.5665" style="stop-color:#79B747"/>
				<stop  offset="0.796" style="stop-color:#86C049"/>
				<stop  offset="1" style="stop-color:#8BC34A"/>
			</linearGradient>
			<polygon fill="url(#SVGID_1_)" points="10.646,60.5 10.646,3.5 53.354,3.5 53.354,44.469 37.322,60.5 			"/>
		</g>
		<polygon fill="#1B5E20" fill-opacity="0.39" points="53.354,44.469 53.354,43.779 36.442,43.779 36.442,60.5 37.322,60.5 		"/>
		<path fill="#FFFFFF" fill-opacity="0.3922" d="M37.296,44.469l16.058,0.021L37.322,60.5L37.296,44.469z"/>
	</g>
	<path opacity="0.8" fill="#FFFFFF" enable-background="new    " d="M33.095,13.998V13.95h-2.187v0.048H16.799V41.5h30.4V13.998
		H33.095z M18.985,22.166h6.791v4.394h-6.791V22.166z M18.985,28.745h6.791v4.395h-6.791V28.745z M28.032,28.745h16.982v4.395
		H28.032V28.745z M28.032,26.56v-4.394h16.982v4.394H28.032z M45.015,16.206v3.778H28.032v-3.778H45.015z M25.776,16.206v3.778
		h-6.791v-3.778H25.776z M18.985,35.348h6.791v3.944h-6.791V35.348z M28.032,39.292v-3.944h16.982v3.944H28.032z"/>
</g>
</svg>
