<?xml version="1.0" encoding="utf-8"?>
<!-- Generator: Adobe Illustrator 21.0.0, SVG Export Plug-In . SVG Version: 6.00 Build 0)  -->
<svg version="1.1" id="图层_1" xmlns="http://www.w3.org/2000/svg" xmlns:xlink="http://www.w3.org/1999/xlink" x="0px" y="0px"
	 viewBox="0 0 64 64" style="enable-background:new 0 0 64 64;" xml:space="preserve">
<style type="text/css">
	.st0{opacity:0.08;enable-background:new    ;}
	.st1{opacity:0.1;enable-background:new    ;}
	.st2{opacity:0.2;enable-background:new    ;}
	.st3{fill:url(#SVGID_1_);}
	.st4{fill:#0D47A1;fill-opacity:0.3922;}
	.st5{fill:#FFFFFF;fill-opacity:0.3922;}
	.st6{fill:#0D47A1;}
	.st7{opacity:0.8;fill:#FFFFFF;enable-background:new    ;}
</style>
<g id="surface1_2_">
	<polygon class="st0" points="9.3,64 9.3,2 56.8,2 56.8,46.5 39.3,64 	"/>
	<polygon class="st1" points="10.3,63 10.3,3 55.8,3 55.8,46.1 38.9,63 	"/>
	<polygon class="st2" points="9.3,62 9.3,2 54.8,2 54.8,45.1 37.9,62 	"/>
	
		<linearGradient id="SVGID_1_" gradientUnits="userSpaceOnUse" x1="240.0005" y1="-2416.9512" x2="240.0005" y2="-2358.9512" gradientTransform="matrix(1 0 0 -1 -208.0005 -2355.9512)">
		<stop  offset="0" style="stop-color:#1976D2"/>
		<stop  offset="0.0626" style="stop-color:#227DD6"/>
		<stop  offset="0.3018" style="stop-color:#3F96E4"/>
		<stop  offset="0.5397" style="stop-color:#53A7EE"/>
		<stop  offset="0.7739" style="stop-color:#60B1F4"/>
		<stop  offset="1" style="stop-color:#64B5F6"/>
	</linearGradient>
	<path class="st3" d="M37.4,61l16.3-16.3V3H10.3v58H37.4z"/>
	<polygon class="st4" points="36.5,43.8 36.5,61 37.4,61 53.8,44.7 53.8,43.8 	"/>
	<path class="st5" d="M37.4,44.7h16.3L37.4,61V44.7z"/>
	<g>
		<path class="st6" d="M53.3,3.5v41l-16,16H24.8h-14v-57H53.3 M53.8,3H10.3v58h14.5h12.7l16.3-16.3V3L53.8,3z"/>
	</g>
	<path class="st7" d="M32,12.6c-7.7,0-13.9,6.2-13.9,13.9S24.3,40.4,32,40.4s13.9-6.2,13.9-13.9S39.7,12.6,32,12.6z M33.9,36.9h-4.3
		v-13h4.3V36.9z M31.8,22.3c-1.7,0-3.1-1.4-3.1-3.1s1.4-3.1,3.1-3.1s3.1,1.4,3.1,3.1S33.5,22.3,31.8,22.3z"/>
</g>
</svg>
