<?xml version="1.0" encoding="utf-8"?>
<!-- Generator: Adobe Illustrator 16.0.0, SVG Export Plug-In . SVG Version: 6.00 Build 0)  -->
<!DOCTYPE svg PUBLIC "-//W3C//DTD SVG 1.1//EN" "http://www.w3.org/Graphics/SVG/1.1/DTD/svg11.dtd">
<svg version="1.1" id="图层_1" xmlns="http://www.w3.org/2000/svg" xmlns:xlink="http://www.w3.org/1999/xlink" x="0px" y="0px"
	 width="64px" height="64px" viewBox="0 0 64 64" enable-background="new 0 0 64 64" xml:space="preserve">
<polygon opacity="0.1" enable-background="new    " points="9.155,64 9.155,2 56.846,2 56.846,46.498 39.343,64 "/>
<polygon opacity="0.1" enable-background="new    " points="10.155,63 10.155,3 55.846,3 55.846,46.084 38.93,63 "/>
<polygon opacity="0.2" enable-background="new    " points="9.155,62 9.155,2 54.846,2 54.846,45.084 37.93,62 "/>
<polygon fill="#3E2723" points="10.148,61 10.148,3 53.852,3 53.852,44.67 37.518,61 "/>
<g>
	<g>
		
			<linearGradient id="SVGID_1_" gradientUnits="userSpaceOnUse" x1="73.6016" y1="-103.4004" x2="73.6016" y2="-160.4009" gradientTransform="matrix(1 0 0 -1 -41.6001 -99.9004)">
			<stop  offset="0" style="stop-color:#785548"/>
			<stop  offset="1" style="stop-color:#9F9E9F"/>
		</linearGradient>
		<polygon fill="url(#SVGID_1_)" points="10.649,60.5 10.649,3.5 53.355,3.5 53.355,44.446 37.479,60.5 		"/>
		<polygon fill="#795548" fill-opacity="0.7" points="53.355,44.469 53.355,43.778 36.447,43.778 36.447,60.5 37.324,60.5 		"/>
		<path opacity="0.39" fill="#FFFFFF" enable-background="new    " d="M37.301,44.469l16.055,0.022L37.324,60.5L37.301,44.469z"/>
	</g>
	<path fill="#FFFFFF" d="M25.909,14.488h-1.447v18.51H23.37v-18.51h-1.44v18.51h-1.091v-18.51h-1.44v18.51h-1.091v-18.51h-1.44
		v18.51H16.49v7.842h9.908v-7.842h-0.489V14.488z M24.958,38.561H17.93v-4.545h7.028V38.561z"/>
	<g>
		<rect x="10.638" y="3.5" opacity="0.8" fill="#FFFFFF" enable-background="new    " width="42.723" height="10.925"/>
		<g enable-background="new    ">
			<path fill="#5D4037" d="M26.064,13.221c-0.1-0.295-0.207-0.599-0.322-0.911c-0.115-0.312-0.23-0.623-0.342-0.931h-3.503
				c-0.111,0.31-0.227,0.622-0.338,0.933c-0.115,0.312-0.219,0.616-0.319,0.909h-2.093c0.334-0.917,0.657-1.765,0.958-2.544
				c0.304-0.777,0.601-1.51,0.891-2.199c0.29-0.688,0.575-1.341,0.854-1.959c0.282-0.618,0.575-1.223,0.876-1.813h1.915
				c0.293,0.59,0.583,1.195,0.868,1.813c0.286,0.618,0.575,1.271,0.865,1.959c0.289,0.688,0.586,1.421,0.891,2.199
				c0.304,0.779,0.623,1.627,0.961,2.544H26.064z M23.641,6.636c-0.048,0.123-0.111,0.292-0.2,0.505
				c-0.085,0.213-0.186,0.458-0.293,0.736c-0.111,0.28-0.237,0.586-0.371,0.922c-0.137,0.336-0.278,0.687-0.419,1.056h2.564
				c-0.138-0.369-0.271-0.722-0.4-1.06c-0.126-0.336-0.249-0.644-0.364-0.922c-0.119-0.28-0.219-0.525-0.304-0.739
				C23.764,6.923,23.693,6.756,23.641,6.636z"/>
			<path fill="#5D4037" d="M31.999,4.608c1.343,0,2.375,0.228,3.091,0.683c0.715,0.455,1.072,1.162,1.072,2.119
				c0,0.597-0.141,1.083-0.432,1.457c-0.289,0.373-0.705,0.664-1.246,0.877c0.178,0.213,0.367,0.457,0.564,0.731
				c0.199,0.275,0.396,0.561,0.594,0.861c0.193,0.299,0.379,0.609,0.561,0.934c0.182,0.323,0.348,0.64,0.504,0.952h-2.256
				c-0.168-0.278-0.33-0.56-0.502-0.848c-0.166-0.286-0.34-0.564-0.52-0.835c-0.178-0.271-0.348-0.527-0.525-0.769
				c-0.172-0.241-0.342-0.46-0.516-0.657h-0.999v3.108h-2.015V4.829c0.441-0.082,0.895-0.139,1.362-0.171
				C31.208,4.625,31.627,4.608,31.999,4.608z M32.117,6.242c-0.148,0-0.282,0.004-0.394,0.013c-0.118,0.007-0.229,0.015-0.334,0.024
				v2.31h0.572c0.757,0,1.298-0.091,1.628-0.271c0.326-0.18,0.494-0.488,0.494-0.922c0-0.417-0.172-0.714-0.502-0.891
				S32.762,6.242,32.117,6.242z"/>
			<path fill="#5D4037" d="M41.854,13.394c-1.453,0-2.566-0.386-3.332-1.156c-0.76-0.77-1.143-1.863-1.143-3.28
				c0-0.703,0.119-1.333,0.35-1.885c0.232-0.553,0.553-1.021,0.957-1.401c0.408-0.38,0.891-0.67,1.447-0.867
				c0.564-0.196,1.172-0.295,1.826-0.295c0.377,0,0.723,0.028,1.031,0.08c0.311,0.054,0.586,0.115,0.816,0.186
				c0.234,0.068,0.43,0.141,0.582,0.215c0.156,0.073,0.268,0.13,0.338,0.171L44.145,6.71c-0.279-0.139-0.598-0.258-0.965-0.356
				c-0.367-0.098-0.783-0.148-1.248-0.148c-0.307,0-0.611,0.05-0.908,0.148c-0.301,0.099-0.564,0.256-0.795,0.472
				c-0.227,0.217-0.408,0.499-0.549,0.842c-0.133,0.343-0.203,0.763-0.203,1.252c0,0.393,0.043,0.761,0.137,1.1
				c0.088,0.34,0.236,0.633,0.438,0.879c0.201,0.245,0.467,0.44,0.795,0.583c0.326,0.143,0.727,0.215,1.191,0.215
				c0.293,0,0.553-0.017,0.789-0.05c0.23-0.032,0.438-0.071,0.617-0.115c0.186-0.046,0.34-0.096,0.482-0.154
				c0.137-0.058,0.26-0.111,0.371-0.16l0.557,1.535c-0.283,0.165-0.684,0.312-1.203,0.443
				C43.135,13.327,42.537,13.394,41.854,13.394z"/>
		</g>
	</g>
</g>
</svg>
