<?xml version="1.0" encoding="utf-8"?>
<!-- Generator: Adobe Illustrator 21.0.0, SVG Export Plug-In . SVG Version: 6.00 Build 0)  -->
<svg version="1.1" id="图层_1" xmlns="http://www.w3.org/2000/svg" xmlns:xlink="http://www.w3.org/1999/xlink" x="0px" y="0px"
	 viewBox="0 0 64 64" style="enable-background:new 0 0 64 64;" xml:space="preserve">
<style type="text/css">
	.st0{opacity:0.2;enable-background:new    ;}
	.st1{opacity:0.08;enable-background:new    ;}
	.st2{opacity:0.1;enable-background:new    ;}
	.st3{fill:#E65100;}
	.st4{fill:url(#SVGID_1_);}
	.st5{opacity:0.8;}
	.st6{fill:#FFFFFF;}
</style>
<rect x="9.1" y="2" class="st0" width="45.7" height="60"/>
<rect x="9.1" y="2" class="st1" width="47.7" height="62"/>
<rect x="10.1" y="3" class="st2" width="45.7" height="60"/>
<rect x="10.1" y="3" class="st3" width="43.7" height="58"/>
<g>
	
		<linearGradient id="SVGID_1_" gradientUnits="userSpaceOnUse" x1="73.5501" y1="-862.4004" x2="73.5501" y2="-805.4004" gradientTransform="matrix(1 0 0 -1 -41.6001 -801.9004)">
		<stop  offset="0" style="stop-color:#EE6F0B"/>
		<stop  offset="1" style="stop-color:#FFB74D"/>
	</linearGradient>
	<rect x="10.6" y="3.5" class="st4" width="42.7" height="57"/>
	<g class="st5">
		<rect x="16.2" y="18.8" class="st6" width="4.6" height="22.8"/>
		<rect x="23.8" y="30.2" class="st6" width="4.6" height="11.4"/>
		<rect x="31.4" y="34.9" class="st6" width="4.6" height="6.8"/>
		<g>
			<path class="st6" d="M37.6,14.8v9.1h9.1c0,5-4,9.1-9.1,9.1c-5,0-9.1-4-9.1-9.1C28.5,18.9,32.5,14.8,37.6,14.8z"/>
			<path class="st6" d="M38.7,13.7c5,0,9.1,4,9.1,9.1h-9.1L38.7,13.7z"/>
		</g>
	</g>
</g>
</svg>
