<?xml version="1.0" encoding="utf-8"?>
<!-- Generator: Adobe Illustrator 16.0.0, SVG Export Plug-In . SVG Version: 6.00 Build 0)  -->
<!DOCTYPE svg PUBLIC "-//W3C//DTD SVG 1.1//EN" "http://www.w3.org/Graphics/SVG/1.1/DTD/svg11.dtd">
<svg version="1.1" id="图层_1" xmlns="http://www.w3.org/2000/svg" xmlns:xlink="http://www.w3.org/1999/xlink" x="0px" y="0px"
	 width="64px" height="64px" viewBox="0 0 64 64" enable-background="new 0 0 64 64" xml:space="preserve">
<polygon opacity="0.1" enable-background="new    " points="9.155,64 9.155,2 56.846,2 56.846,46.498 39.343,64 "/>
<polygon opacity="0.1" enable-background="new    " points="10.155,63 10.155,3 55.846,3 55.846,46.084 38.93,63 "/>
<polygon opacity="0.2" enable-background="new    " points="9.155,62 9.155,2 54.846,2 54.846,45.084 37.93,62 "/>
<polygon fill="#311B92" points="10.148,61 10.148,3 53.852,3 53.852,44.67 37.517,61 "/>
<g>
	<g>
		<g>
			
				<linearGradient id="SVGID_1_" gradientUnits="userSpaceOnUse" x1="73.6006" y1="-160.3999" x2="73.6006" y2="-103.4004" gradientTransform="matrix(1 0 0 -1 -41.6001 -99.9004)">
				<stop  offset="0" style="stop-color:#512DA8"/>
				<stop  offset="0.008" style="stop-color:#532EA8"/>
				<stop  offset="0.1976" style="stop-color:#7541B2"/>
				<stop  offset="0.4086" style="stop-color:#9352BC"/>
				<stop  offset="0.6159" style="stop-color:#A95EC3"/>
				<stop  offset="0.8158" style="stop-color:#B666C7"/>
				<stop  offset="1" style="stop-color:#BA68C8"/>
			</linearGradient>
			<polygon fill="url(#SVGID_1_)" points="10.646,60.5 10.646,3.5 53.354,3.5 53.354,44.469 37.322,60.5 			"/>
		</g>
		<polygon fill="#673AB7" fill-opacity="0.3922" points="53.354,44.469 53.354,43.78 36.441,43.78 36.441,60.5 37.322,60.5 		"/>
		<path fill="#FFFFFF" fill-opacity="0.3922" d="M37.296,44.469l16.058,0.021L37.322,60.5L37.296,44.469z"/>
	</g>
	<g opacity="0.8">
		<g>
			<rect x="41.526" y="17.847" fill="#FFFFFF" width="6.266" height="2.278"/>
		</g>
		<g>
			<rect x="41.526" y="22.144" fill="#FFFFFF" width="6.266" height="2.278"/>
		</g>
		<g>
			<rect x="41.526" y="26.467" fill="#FFFFFF" width="6.266" height="2.278"/>
		</g>
		<g>
			<rect x="28.391" y="31.003" fill="#FFFFFF" width="19.401" height="2.28"/>
		</g>
		<g>
			<rect x="28.391" y="35.304" fill="#FFFFFF" width="19.401" height="2.278"/>
		</g>
		<path fill="#FFFFFF" d="M24.302,24.805l-2.657-0.571v-3.3l3.607,0.784v-2.52l-5.413-1.161v2.516l0,0v13.063
			c-0.286-0.071-0.593-0.119-0.926-0.119c-1.498,0-2.71,0.928-2.71,2.067s1.212,2.067,2.71,2.067c1.495,0,2.707-0.928,2.707-2.047
			l0,0v-9.521l2.659,0.571L24.302,24.805L24.302,24.805z"/>
		<path fill="#FFFFFF" d="M38.509,26.159c0.022-0.026,0.022-0.049,0.048-0.074c0.022-0.045,0.043-0.093,0.07-0.142c0,0,0,0,0-0.021
			c0.116-0.287,0.238-0.573,0.307-0.858h1.141v-2.327h-1.141c-0.116-0.475-0.307-0.928-0.546-1.354l0.806-0.804l-1.639-1.641
			l-0.805,0.809c-0.43-0.263-0.881-0.452-1.379-0.571h0.021v-1.139H33.09v1.139h0.024c-0.501,0.119-0.949,0.309-1.376,0.571
			l-0.809-0.809l-1.641,1.641l0.809,0.804c-0.236,0.404-0.427,0.857-0.546,1.354h-1.138v2.305h1.138
			c0.119,0.475,0.31,0.924,0.546,1.354l0,0l-0.809,0.806l1.641,1.638l0.809-0.806c0.399,0.262,0.875,0.451,1.352,0.57v1.14h2.302
			v-1.14l0,0l0,0c0.478-0.119,0.949-0.308,1.358-0.57l0.805,0.806l1.639-1.638l-0.806-0.806l0,0
			c0.021-0.048,0.048-0.097,0.068-0.145C38.483,26.229,38.509,26.182,38.509,26.159z M34.253,27.584
			c-2.04,0-3.682-1.662-3.682-3.682c0-2.043,1.665-3.681,3.682-3.681c0.407,0,0.784,0.07,1.166,0.19l0,0
			c1.474,0.474,2.545,1.874,2.545,3.513c0,0.097,0,0.189,0,0.309l0,0c-0.027,0.285-0.075,0.571-0.17,0.856v0.022
			c-0.048,0.167-0.117,0.334-0.212,0.497c0,0,0,0.027-0.027,0.027c-0.048,0.07-0.095,0.167-0.143,0.237c0,0,0,0,0,0.022
			c-0.042,0.07-0.09,0.145-0.144,0.214c0,0,0,0,0,0.023c-0.048,0.07-0.096,0.144-0.164,0.216l-0.021,0.021
			c-0.122,0.146-0.238,0.264-0.382,0.383l-0.027,0.022c-0.068,0.048-0.138,0.118-0.186,0.167l-0.025,0.021
			c-0.07,0.049-0.123,0.097-0.191,0.146c0,0-0.021,0-0.021,0.021c-0.068,0.049-0.144,0.097-0.217,0.119
			c-0.021,0-0.021,0.022-0.048,0.022c-0.069,0.048-0.139,0.074-0.238,0.097h-0.022c-0.068,0.021-0.137,0.047-0.212,0.07
			C35.063,27.51,34.66,27.584,34.253,27.584z"/>
	</g>
</g>
</svg>
