<?xml version="1.0" encoding="utf-8"?>
<!-- Generator: Adobe Illustrator 16.0.0, SVG Export Plug-In . SVG Version: 6.00 Build 0)  -->
<!DOCTYPE svg PUBLIC "-//W3C//DTD SVG 1.1//EN" "http://www.w3.org/Graphics/SVG/1.1/DTD/svg11.dtd">
<svg version="1.1" id="图层_1" xmlns="http://www.w3.org/2000/svg" xmlns:xlink="http://www.w3.org/1999/xlink" x="0px" y="0px"
	 width="64px" height="64px" viewBox="0 0 64 64" enable-background="new 0 0 64 64" xml:space="preserve">
<polygon opacity="0.1" enable-background="new    " points="9.155,64 9.155,2 56.846,2 56.846,46.498 39.343,64 "/>
<polygon opacity="0.1" enable-background="new    " points="10.155,63 10.155,3 55.846,3 55.846,46.084 38.93,63 "/>
<polygon opacity="0.2" enable-background="new    " points="9.155,62 9.155,2 54.846,2 54.846,45.084 37.93,62 "/>
<polygon fill="#E65100" points="10.148,61 10.148,3 53.852,3 53.852,44.67 37.517,61 "/>
<g>
	<g>
		<g>
			
				<linearGradient id="SVGID_1_" gradientUnits="userSpaceOnUse" x1="73.6006" y1="-160.3999" x2="73.6006" y2="-103.4004" gradientTransform="matrix(1 0 0 -1 -41.6001 -99.9004)">
				<stop  offset="0" style="stop-color:#EE6F0B"/>
				<stop  offset="1" style="stop-color:#FFB74D"/>
			</linearGradient>
			<polygon fill="url(#SVGID_1_)" points="10.647,60.5 10.647,3.5 53.353,3.5 53.353,44.469 37.321,60.5 			"/>
		</g>
		<polygon fill="#E65100" fill-opacity="0.3922" points="53.353,44.469 53.353,43.778 36.442,43.778 36.442,60.5 37.321,60.5 		"/>
		<path fill="#FFFFFF" fill-opacity="0.3922" d="M37.296,44.469l16.057,0.022L37.321,60.5L37.296,44.469z"/>
	</g>
	<g opacity="0.8">
		<rect x="16.206" y="25.443" fill="#FFFFFF" width="4.561" height="22.848"/>
		<rect x="23.806" y="36.843" fill="#FFFFFF" width="4.562" height="11.423"/>
		<rect x="31.384" y="41.496" fill="#FFFFFF" width="4.561" height="6.844"/>
		<g>
			<path fill="#FFFFFF" d="M37.581,21.405l0.049,9.096l9.095-0.048c0.026,5.036-4.037,9.122-9.073,9.143
				c-5.031,0.026-9.117-4.037-9.144-9.069C28.485,25.513,32.546,21.428,37.581,21.405z"/>
			<path fill="#FFFFFF" d="M38.65,20.359c5.035-0.022,9.121,4.038,9.144,9.073l-9.096,0.048L38.65,20.359z"/>
		</g>
	</g>
	<g>
		<rect x="10.636" y="3.5" opacity="0.8" fill="#FFFFFF" enable-background="new    " width="42.729" height="10.925"/>
		<g enable-background="new    ">
			<path fill="#E64A19" d="M20.748,4.643c0.156,0.271,0.334,0.605,0.538,1.002s0.416,0.828,0.635,1.292
				c0.219,0.46,0.438,0.935,0.653,1.417c0.219,0.482,0.419,0.935,0.612,1.366c0.189-0.431,0.394-0.883,0.608-1.366
				s0.435-0.958,0.653-1.417c0.223-0.464,0.434-0.895,0.638-1.292c0.201-0.397,0.383-0.731,0.538-1.002h1.834
				c0.085,0.564,0.167,1.199,0.241,1.9c0.074,0.698,0.137,1.429,0.192,2.186c0.056,0.757,0.107,1.518,0.156,2.279
				c0.044,0.761,0.089,1.48,0.122,2.148h-1.967c-0.025-0.824-0.06-1.726-0.1-2.702c-0.045-0.972-0.111-1.959-0.197-2.946
				c-0.155,0.341-0.326,0.724-0.52,1.143c-0.189,0.416-0.378,0.831-0.563,1.25s-0.364,0.82-0.538,1.199
				c-0.171,0.378-0.319,0.705-0.442,0.976h-1.406c-0.122-0.271-0.271-0.598-0.441-0.976c-0.175-0.378-0.353-0.779-0.538-1.199
				c-0.189-0.419-0.375-0.835-0.564-1.25c-0.192-0.419-0.363-0.802-0.52-1.143c-0.089,0.987-0.151,1.974-0.196,2.946
				c-0.041,0.976-0.074,1.878-0.101,2.702h-1.967c0.034-0.668,0.074-1.388,0.123-2.148c0.048-0.761,0.1-1.521,0.155-2.279
				c0.056-0.757,0.119-1.488,0.193-2.186c0.074-0.701,0.152-1.336,0.241-1.9H20.748z"/>
			<path fill="#E64A19" d="M34.338,6.12c-0.938,0-1.618,0.245-2.037,0.742c-0.416,0.497-0.624,1.172-0.624,2.033
				c0,0.416,0.049,0.794,0.152,1.136c0.104,0.341,0.26,0.631,0.464,0.876c0.208,0.249,0.468,0.438,0.779,0.571
				c0.312,0.137,0.672,0.204,1.084,0.204c0.227,0,0.415-0.004,0.579-0.011c0.155-0.007,0.297-0.022,0.419-0.052V8.658h2.015v4.216
				c-0.237,0.089-0.627,0.186-1.161,0.289c-0.538,0.104-1.195,0.156-1.978,0.156c-0.676,0-1.284-0.101-1.834-0.297
				c-0.545-0.197-1.013-0.482-1.402-0.861c-0.386-0.375-0.687-0.838-0.898-1.388c-0.211-0.549-0.319-1.173-0.319-1.878
				c0-0.712,0.119-1.343,0.353-1.893c0.234-0.549,0.554-1.017,0.954-1.395c0.408-0.378,0.884-0.668,1.433-0.869
				c0.549-0.193,1.128-0.293,1.752-0.293c0.423,0,0.801,0.026,1.143,0.078c0.342,0.056,0.635,0.119,0.883,0.186
				c0.245,0.07,0.445,0.141,0.605,0.215c0.159,0.074,0.274,0.134,0.345,0.171l-0.586,1.536c-0.274-0.137-0.59-0.26-0.95-0.36
				C35.15,6.168,34.761,6.12,34.338,6.12z"/>
			<path fill="#E64A19" d="M41.733,4.546c1.34,0,2.364,0.223,3.08,0.668c0.717,0.445,1.076,1.18,1.076,2.193
				c0,1.024-0.363,1.763-1.091,2.215c-0.72,0.457-1.759,0.683-3.103,0.683h-0.631v2.85h-2.019v-8.39
				c0.438-0.082,0.905-0.138,1.396-0.171S41.362,4.546,41.733,4.546z M41.867,6.179c-0.148,0-0.293,0.004-0.434,0.015
				c-0.146,0.007-0.264,0.015-0.368,0.022v2.457h0.631c0.698,0,1.225-0.089,1.581-0.271c0.349-0.182,0.527-0.516,0.527-1.006
				c0-0.237-0.045-0.434-0.134-0.59c-0.089-0.156-0.223-0.282-0.39-0.375c-0.167-0.097-0.375-0.16-0.612-0.197
				C42.424,6.198,42.157,6.179,41.867,6.179z"/>
		</g>
	</g>
</g>
</svg>
