<?xml version="1.0" encoding="utf-8"?>
<!-- Generator: Adobe Illustrator 16.0.0, SVG Export Plug-In . SVG Version: 6.00 Build 0)  -->
<!DOCTYPE svg PUBLIC "-//W3C//DTD SVG 1.1//EN" "http://www.w3.org/Graphics/SVG/1.1/DTD/svg11.dtd">
<svg version="1.1" id="图层_1" xmlns="http://www.w3.org/2000/svg" xmlns:xlink="http://www.w3.org/1999/xlink" x="0px" y="0px"
	 width="64px" height="64px" viewBox="0 0 64 64" enable-background="new 0 0 64 64" xml:space="preserve">
<polygon opacity="0.1" enable-background="new    " points="9.155,64 9.155,2 56.846,2 56.846,46.498 39.343,64 "/>
<polygon opacity="0.1" enable-background="new    " points="10.155,63 10.155,3 55.846,3 55.846,46.084 38.93,63 "/>
<polygon opacity="0.2" enable-background="new    " points="9.155,62 9.155,2 54.846,2 54.846,45.084 37.93,62 "/>
<polygon fill="#455A64" points="10.148,61 10.148,3 53.852,3 53.852,44.67 37.518,61 "/>
<g>
	<g>
		<g>
			
				<linearGradient id="SVGID_1_" gradientUnits="userSpaceOnUse" x1="115.1904" y1="828.2998" x2="115.1904" y2="885.3008" gradientTransform="matrix(1 0 0 1 -83.2002 -824.8008)">
				<stop  offset="0" style="stop-color:#90A4AE"/>
				<stop  offset="0.1378" style="stop-color:#849AA5"/>
				<stop  offset="0.4226" style="stop-color:#708A97"/>
				<stop  offset="0.7096" style="stop-color:#64808E"/>
				<stop  offset="1" style="stop-color:#607D8B"/>
			</linearGradient>
			<polygon fill="url(#SVGID_1_)" points="10.639,60.5 10.639,3.5 53.341,3.5 53.341,44.472 37.312,60.5 			"/>
		</g>
		<polygon fill="#455A64" fill-opacity="0.39" points="53.341,44.472 53.341,43.777 36.432,43.777 36.432,60.5 37.312,60.5 		"/>
		<path fill="#FFFFFF" fill-opacity="0.39" d="M37.291,44.472l16.055,0.019L37.312,60.5L37.291,44.472z"/>
	</g>
	<path opacity="0.8" fill="#FFFFFF" enable-background="new    " d="M42.748,29.46c0.949,0,1.809,0.376,2.423,0.992v-5.338h-8.286
		c0.618-0.615,0.994-1.5,0.994-2.449c0-1.901-1.54-3.443-3.44-3.443c-1.903,0-3.445,1.542-3.445,3.443
		c0,0.949,0.379,1.808,0.996,2.449h-8.265v5.367c-0.615-0.623-1.474-1.002-2.423-1.002c-1.897,0-3.44,1.545-3.44,3.447
		c0,1.9,1.543,3.442,3.44,3.442c0.949,0,1.808-0.376,2.428-1.002v5.37h8.286c-0.62-0.617-0.996-1.498-0.996-2.446
		c0-1.9,1.537-3.443,3.443-3.443c1.897,0,3.44,1.543,3.44,3.443c0,0.948-0.382,1.808-1,2.449h8.289v-5.364
		c-0.615,0.617-1.474,0.993-2.423,0.993c-1.897,0-3.438-1.542-3.438-3.442C39.306,31.003,40.848,29.46,42.748,29.46z"/>
	<g>
		<rect x="10.639" y="3.5" opacity="0.8" fill="#FFFFFF" width="42.723" height="10.926"/>
		<g>
			<path fill="#455A64" d="M28.591,8.955c0,0.731-0.113,1.368-0.342,1.922c-0.23,0.554-0.543,1.015-0.938,1.389
				c-0.395,0.374-0.869,0.655-1.415,0.843c-0.549,0.188-1.137,0.281-1.766,0.281c-0.612,0-1.189-0.093-1.733-0.281
				c-0.543-0.188-1.018-0.469-1.423-0.843c-0.403-0.374-0.724-0.835-0.957-1.389c-0.23-0.554-0.348-1.19-0.348-1.922
				c0-0.729,0.119-1.371,0.36-1.923c0.241-0.553,0.567-1.018,0.976-1.395c0.411-0.376,0.886-0.66,1.426-0.848
				c0.536-0.188,1.104-0.282,1.699-0.282c0.612,0,1.19,0.094,1.731,0.282c0.546,0.188,1.018,0.472,1.423,0.848
				c0.406,0.376,0.724,0.842,0.957,1.395C28.475,7.584,28.591,8.226,28.591,8.955z M21.753,8.955c0,0.419,0.053,0.795,0.158,1.129
				c0.106,0.336,0.263,0.625,0.467,0.867c0.201,0.241,0.451,0.429,0.742,0.559c0.292,0.133,0.631,0.196,1.01,0.196
				c0.369,0,0.703-0.063,1.002-0.196c0.297-0.13,0.549-0.318,0.75-0.559c0.202-0.241,0.358-0.53,0.467-0.867
				c0.106-0.334,0.159-0.71,0.159-1.129c0-0.417-0.053-0.796-0.159-1.137c-0.108-0.339-0.265-0.629-0.467-0.871
				c-0.201-0.243-0.453-0.43-0.75-0.56C24.833,6.257,24.499,6.19,24.13,6.19c-0.379,0-0.718,0.069-1.01,0.203
				c-0.291,0.135-0.541,0.325-0.742,0.566c-0.204,0.241-0.36,0.533-0.467,0.872C21.806,8.172,21.753,8.545,21.753,8.955z"/>
			<path fill="#455A64" d="M34.675,13.217c-0.252-0.475-0.527-0.954-0.83-1.439c-0.3-0.49-0.644-0.898-1.033-1.232
				c-0.122,0.125-0.273,0.302-0.459,0.525c-0.186,0.228-0.368,0.466-0.554,0.721c-0.186,0.251-0.36,0.514-0.52,0.784
				c-0.162,0.276-0.281,0.488-0.36,0.642h-2.301c0.376-0.663,0.821-1.352,1.336-2.06c0.511-0.705,1.084-1.46,1.717-2.256
				l-2.926-4.197h2.443l1.707,2.465l1.747-2.465h2.301l-2.907,4.109c0.761,0.91,1.389,1.743,1.882,2.498
				c0.495,0.755,0.883,1.392,1.169,1.906H34.675z"/>
			<path fill="#455A64" d="M44.975,4.705v1.633h-2.703v6.88h-2.018v-6.88h-2.701V4.705H44.975z"/>
		</g>
	</g>
</g>
</svg>
