<?xml version="1.0" encoding="utf-8"?>
<!-- Generator: Adobe Illustrator 16.0.0, SVG Export Plug-In . SVG Version: 6.00 Build 0)  -->
<!DOCTYPE svg PUBLIC "-//W3C//DTD SVG 1.1//EN" "http://www.w3.org/Graphics/SVG/1.1/DTD/svg11.dtd">
<svg version="1.1" id="图层_1" xmlns="http://www.w3.org/2000/svg" xmlns:xlink="http://www.w3.org/1999/xlink" x="0px" y="0px"
	 width="64px" height="64px" viewBox="0 0 64 64" enable-background="new 0 0 64 64" xml:space="preserve">
<polygon opacity="0.1" enable-background="new    " points="9.155,64 9.155,2 56.846,2 56.846,46.498 39.343,64 "/>
<polygon opacity="0.1" enable-background="new    " points="10.155,63 10.155,3 55.846,3 55.846,46.084 38.93,63 "/>
<polygon opacity="0.2" enable-background="new    " points="9.155,62 9.155,2 54.846,2 54.846,45.084 37.93,62 "/>
<polygon fill="#212121" points="10.148,61 10.148,3 53.852,3 53.852,44.67 37.518,61 "/>
<g>
	<g>
		<g>
			<g>
				<linearGradient id="SVGID_1_" gradientUnits="userSpaceOnUse" x1="31.9985" y1="60.5" x2="31.9985" y2="3.5005">
					<stop  offset="0" style="stop-color:#616161"/>
					<stop  offset="1" style="stop-color:#90A4AE"/>
				</linearGradient>
				<polygon fill="url(#SVGID_1_)" points="10.646,60.5 10.646,3.5 53.351,3.5 53.351,44.469 37.319,60.5 				"/>
			</g>
			<polygon fill="#9E9E9E" fill-opacity="0.39" points="53.351,44.469 53.351,43.778 36.439,43.778 36.439,60.5 37.319,60.5 			"/>
			<path fill="#FFFFFF" fill-opacity="0.3922" d="M37.297,44.469l16.058,0.022L37.319,60.5L37.297,44.469z"/>
		</g>
	</g>
	<g opacity="0.8">
		<path fill="#FFFFFF" d="M34.395,40.595c-1.784,0-3.41-0.268-4.876-0.81c-1.466-0.549-2.724-1.343-3.777-2.382
			c-1.047-1.047-1.863-2.331-2.435-3.861c-0.575-1.533-0.861-3.284-0.861-5.257c0-1.972,0.323-3.724,0.973-5.254
			c0.646-1.531,1.521-2.818,2.62-3.861s2.382-1.837,3.848-2.38c1.466-0.544,3.032-0.816,4.688-0.816
			c1.054,0,2.004,0.068,2.843,0.204c0.846,0.135,1.573,0.295,2.196,0.477c0.624,0.182,1.136,0.362,1.521,0.544
			c0.394,0.182,0.661,0.317,0.81,0.408l-1.024,2.72c-0.223-0.135-0.542-0.282-0.958-0.441c-0.415-0.158-0.883-0.317-1.41-0.475
			c-0.526-0.16-1.098-0.29-1.722-0.392c-0.623-0.102-1.254-0.154-1.885-0.154c-1.344,0-2.554,0.217-3.63,0.647
			c-1.076,0.431-1.988,1.054-2.746,1.871c-0.761,0.816-1.343,1.807-1.744,2.976c-0.4,1.167-0.604,2.477-0.604,3.928
			c0,1.407,0.178,2.687,0.53,3.843c0.356,1.157,0.888,2.15,1.596,2.975c0.709,0.831,1.596,1.47,2.657,1.922
			c1.062,0.453,2.301,0.683,3.719,0.683c1.64,0,2.991-0.155,4.067-0.475s1.885-0.602,2.419-0.854l0.921,2.724
			c-0.171,0.111-0.476,0.253-0.921,0.423c-0.438,0.171-0.987,0.334-1.647,0.498c-0.66,0.155-1.433,0.289-2.309,0.408
			C36.369,40.543,35.419,40.595,34.395,40.595z"/>
	</g>
</g>
</svg>
