<?xml version="1.0" encoding="utf-8"?>
<!-- Generator: Adobe Illustrator 16.0.0, SVG Export Plug-In . SVG Version: 6.00 Build 0)  -->
<!DOCTYPE svg PUBLIC "-//W3C//DTD SVG 1.1//EN" "http://www.w3.org/Graphics/SVG/1.1/DTD/svg11.dtd">
<svg version="1.1" id="图层_1" xmlns="http://www.w3.org/2000/svg" xmlns:xlink="http://www.w3.org/1999/xlink" x="0px" y="0px"
	 width="64px" height="64px" viewBox="0 0 64 64" enable-background="new 0 0 64 64" xml:space="preserve">
<g id="surface1_1_">
	<polygon opacity="0.08" enable-background="new    " points="9.25,64 9.25,2 56.75,2 56.75,46.516 39.266,64 	"/>
	<polygon opacity="0.1" enable-background="new    " points="10.25,63 10.25,3 55.75,3 55.75,46.102 38.852,63 	"/>
	<polygon opacity="0.2" enable-background="new    " points="9.25,62 9.25,2 54.75,2 54.75,45.102 37.852,62 	"/>
	<g>
		
			<linearGradient id="SVGID_1_" gradientUnits="userSpaceOnUse" x1="240.001" y1="-1714.9512" x2="240.001" y2="-1656.9512" gradientTransform="matrix(1 0 0 -1 -208.0005 -1653.9512)">
			<stop  offset="0" style="stop-color:#512DA8"/>
			<stop  offset="0.008" style="stop-color:#D32F2F"/>
			<stop  offset="0.3041" style="stop-color:#E33932"/>
			<stop  offset="0.6579" style="stop-color:#F04035"/>
			<stop  offset="1" style="stop-color:#F44336"/>
		</linearGradient>
		<path fill="url(#SVGID_1_)" d="M37.438,61L53.75,44.688V3h-43.5v58H37.438z"/>
		<polygon fill="#B71C1C" fill-opacity="0.3922" points="36.531,43.781 36.531,61 37.438,61 53.75,44.688 53.75,43.781 		"/>
		<path fill="#FFFFFF" fill-opacity="0.3922" d="M37.438,44.688h16.299L37.438,61V44.688z"/>
		<g opacity="0.8">
			<path fill="#FFFFFF" d="M33.579,19.105v6.461h-10.63c-0.448,0-0.813-0.364-0.813-0.813v-4.836c0-0.448,0.364-0.813,0.813-0.813
				H33.579 M34.579,18.105h-11.63c-1.001,0-1.813,0.812-1.813,1.813v4.836c0,1,0.812,1.813,1.813,1.813h11.63V18.105L34.579,18.105z
				"/>
			<g>
				<path fill="#FFFFFF" d="M35.079,26.066v-5.765l3.403,5.26l3.419-5.276h-6.822v-1.679h5.973c0.724,0,1.313,0.589,1.313,1.313
					v4.836c0,0.724-0.589,1.313-1.313,1.313H35.079z"/>
				<path fill="#FFFFFF" d="M41.052,19.105c0.402,0,0.737,0.294,0.802,0.679h-0.872h-4.994h-0.408v-0.679H41.052 M41.864,21.261
					v3.493c0,0.448-0.364,0.813-0.813,0.813h-1.978l0.247-0.381l2.499-3.856L41.864,21.261 M35.579,21.995l2.063,3.19l0.247,0.382
					h-2.311V21.995 M41.052,18.105h-6.473v8.461h6.473c1.002,0,1.813-0.812,1.813-1.813v-4.836
					C42.864,18.917,42.054,18.105,41.052,18.105L41.052,18.105z M38.482,24.641l-2.495-3.856h4.994L38.482,24.641L38.482,24.641z"/>
			</g>
			<path fill="#FFFFFF" d="M38.021,31.191c2.113,0,3.832,1.719,3.832,3.832s-1.719,3.832-3.832,3.832s-3.832-1.719-3.832-3.832
				S35.908,31.191,38.021,31.191 M38.021,30.191c-2.668,0-4.832,2.164-4.832,4.832s2.164,4.832,4.832,4.832s4.832-2.164,4.832-4.832
				S40.689,30.191,38.021,30.191L38.021,30.191z"/>
			<g>
				<path fill="#FFFFFF" d="M28.988,30.191h-6.039c-1.001,0-1.813,0.812-1.813,1.813v6.039c0,1.001,0.812,1.813,1.813,1.813h6.039
					c1.001,0,1.813-0.812,1.813-1.813v-6.039C30.8,31.003,29.989,30.191,28.988,30.191z M25.68,38.136l-3.011-2.479l0.953-1.158
					l1.739,1.432L28.025,32l1.242,0.841L25.68,38.136z"/>
			</g>
			<g>
				<circle fill="#FFFFFF" cx="38.021" cy="35.023" r="2.307"/>
			</g>
		</g>
		<g>
			<path fill="#B71C1C" d="M53.25,3.5v40.98L37.23,60.5H24.75h-14v-57H53.25 M53.75,3h-43.5v58h14.5h12.688L53.75,44.688V3L53.75,3z
				"/>
		</g>
	</g>
</g>
</svg>
