<?xml version="1.0" encoding="utf-8"?>
<!-- Generator: Adobe Illustrator 16.0.0, SVG Export Plug-In . SVG Version: 6.00 Build 0)  -->
<!DOCTYPE svg PUBLIC "-//W3C//DTD SVG 1.1//EN" "http://www.w3.org/Graphics/SVG/1.1/DTD/svg11.dtd">
<svg version="1.1" id="图层_1" xmlns="http://www.w3.org/2000/svg" xmlns:xlink="http://www.w3.org/1999/xlink" x="0px" y="0px"
	 width="64px" height="64px" viewBox="0 0 64 64" enable-background="new 0 0 64 64" xml:space="preserve">
<g id="surface1_2_">
	<polygon opacity="0.08" enable-background="new    " points="9.25,64 9.25,2 56.75,2 56.75,46.516 39.266,64 	"/>
	<polygon opacity="0.1" enable-background="new    " points="10.25,63 10.25,3 55.75,3 55.75,46.102 38.852,63 	"/>
	<polygon opacity="0.2" enable-background="new    " points="9.25,62 9.25,2 54.75,2 54.75,45.102 37.852,62 	"/>
	
		<linearGradient id="SVGID_1_" gradientUnits="userSpaceOnUse" x1="240.001" y1="-1714.9512" x2="240.001" y2="-1656.9512" gradientTransform="matrix(1 0 0 -1 -208.0005 -1653.9512)">
		<stop  offset="0" style="stop-color:#3F51B5"/>
		<stop  offset="0.258" style="stop-color:#4355B7"/>
		<stop  offset="0.5253" style="stop-color:#5060BB"/>
		<stop  offset="0.7959" style="stop-color:#6473C3"/>
		<stop  offset="1" style="stop-color:#7986CB"/>
	</linearGradient>
	<path fill="url(#SVGID_1_)" d="M37.438,61L53.75,44.688V3h-43.5v58H37.438z"/>
	<polygon fill="#311B92" fill-opacity="0.3922" points="36.531,43.781 36.531,61 37.438,61 53.75,44.688 53.75,43.781 	"/>
	<path fill="#FFFFFF" fill-opacity="0.3922" d="M37.438,44.688h16.299L37.438,61V44.688z"/>
	<g>
		<path fill="#311B92" d="M53.25,3.5v40.98L37.23,60.5H24.75h-14v-57H53.25 M53.75,3h-43.5v58h14.5h12.688L53.75,44.688V3L53.75,3z"
			/>
	</g>
	<g opacity="0.8">
		<path fill="#FFFFFF" d="M32.262,13.813c-0.984,0.007-1.933,0.085-2.761,0.227c-2.429,0.425-2.945,0.552-2.945,2.188v3.625h6.046
			v1.211h-8.468c-1.664,0-2.754,1.02-3.207,2.91c-0.531,2.166-0.552,3.512,0,5.777c0.403,1.678,1.543,3.398,3.207,3.398h1.211
			v-3.625c0-1.877,1.685-3.625,3.625-3.625h6.046c1.601,0,2.422-0.828,2.422-2.422v-6.039c0-1.543-0.637-3.144-2.195-3.398
			C34.259,13.876,33.239,13.806,32.262,13.813z M30.181,16.227c0.672,0,1.21,0.545,1.21,1.211s-0.538,1.211-1.21,1.211
			c-0.666,0-1.211-0.545-1.211-1.211S29.515,16.227,30.181,16.227z"/>
		<path fill="#FFFFFF" d="M31.738,39.188c0.984-0.007,1.933-0.085,2.761-0.227c2.429-0.425,2.945-0.553,2.945-2.188v-3.625h-6.046
			v-1.211h8.468c1.663,0,2.754-1.02,3.207-2.91c0.531-2.166,0.552-3.512,0-5.777c-0.403-1.678-1.544-3.398-3.207-3.398h-1.211v3.625
			c0,1.877-1.685,3.625-3.625,3.625h-6.046c-1.6,0-2.421,0.828-2.421,2.422v6.039c0,1.543,0.637,3.144,2.195,3.398
			C29.741,39.124,30.761,39.194,31.738,39.188z M33.819,36.773c-0.673,0-1.21-0.545-1.21-1.211s0.537-1.211,1.21-1.211
			c0.666,0,1.211,0.545,1.211,1.211S34.485,36.773,33.819,36.773z"/>
	</g>
</g>
</svg>
