<?xml version="1.0" encoding="utf-8"?>
<!-- Generator: Adobe Illustrator 16.0.0, SVG Export Plug-In . SVG Version: 6.00 Build 0)  -->
<!DOCTYPE svg PUBLIC "-//W3C//DTD SVG 1.1//EN" "http://www.w3.org/Graphics/SVG/1.1/DTD/svg11.dtd">
<svg version="1.1" id="图层_1" xmlns="http://www.w3.org/2000/svg" xmlns:xlink="http://www.w3.org/1999/xlink" x="0px" y="0px"
	 width="64px" height="64px" viewBox="0 0 64 64" enable-background="new 0 0 64 64" xml:space="preserve">
<polygon opacity="0.1" enable-background="new    " points="9.155,64 9.155,2 56.846,2 56.846,46.498 39.343,64 "/>
<polygon opacity="0.1" enable-background="new    " points="10.155,63 10.155,3 55.846,3 55.846,46.084 38.93,63 "/>
<polygon opacity="0.2" enable-background="new    " points="9.155,62 9.155,2 54.846,2 54.846,45.084 37.93,62 "/>
<polygon fill="#0D47A1" points="10.148,61 10.148,3 53.852,3 53.852,44.67 37.518,61 "/>
<g>
	<g>
		<g>
			<g>
				<linearGradient id="SVGID_1_" gradientUnits="userSpaceOnUse" x1="32.019" y1="60.5" x2="32.019" y2="3.5005">
					<stop  offset="0" style="stop-color:#3F51B5"/>
					<stop  offset="1" style="stop-color:#64B5F6"/>
				</linearGradient>
				<polygon fill="url(#SVGID_1_)" points="10.666,60.5 10.666,3.5 53.371,3.5 53.371,44.469 37.34,60.5 				"/>
			</g>
			<polygon fill="#2196F3" fill-opacity="0.7" points="53.371,44.469 53.371,43.778 36.461,43.778 36.461,60.5 37.34,60.5 			"/>
			<path opacity="0.39" fill="#FFFFFF" d="M37.317,44.469l16.058,0.022L37.34,60.5L37.317,44.469z"/>
		</g>
		<g opacity="0.8">
			<linearGradient id="SVGID_2_" gradientUnits="userSpaceOnUse" x1="16.9966" y1="22.9443" x2="47.0186" y2="22.9443">
				<stop  offset="0" style="stop-color:#F6F5F5"/>
				<stop  offset="0.341" style="stop-color:#F1F2F3"/>
				<stop  offset="0.6434" style="stop-color:#E7EAEB"/>
				<stop  offset="0.9302" style="stop-color:#D5DBDF"/>
				<stop  offset="1" style="stop-color:#CFD7DB"/>
			</linearGradient>
			<rect x="16.997" y="22.201" opacity="0.8" fill="url(#SVGID_2_)" enable-background="new    " width="30.022" height="1.486"/>
			<linearGradient id="SVGID_3_" gradientUnits="userSpaceOnUse" x1="16.9966" y1="18.3047" x2="47.0186" y2="18.3047">
				<stop  offset="0" style="stop-color:#F6F5F5"/>
				<stop  offset="0.341" style="stop-color:#F1F2F3"/>
				<stop  offset="0.6434" style="stop-color:#E7EAEB"/>
				<stop  offset="0.9302" style="stop-color:#D5DBDF"/>
				<stop  offset="1" style="stop-color:#CFD7DB"/>
			</linearGradient>
			<rect x="16.997" y="17.561" opacity="0.8" fill="url(#SVGID_3_)" enable-background="new    " width="30.022" height="1.488"/>
			<linearGradient id="SVGID_4_" gradientUnits="userSpaceOnUse" x1="31.3208" y1="34.4023" x2="46.9961" y2="34.4023">
				<stop  offset="0" style="stop-color:#F6F5F5"/>
				<stop  offset="0.341" style="stop-color:#F1F2F3"/>
				<stop  offset="0.6434" style="stop-color:#E7EAEB"/>
				<stop  offset="0.9302" style="stop-color:#D5DBDF"/>
				<stop  offset="1" style="stop-color:#CFD7DB"/>
			</linearGradient>
			<rect x="31.321" y="26.567" opacity="0.8" fill="url(#SVGID_4_)" enable-background="new    " width="15.675" height="15.671"/>
			<g opacity="0.8">
				<linearGradient id="SVGID_5_" gradientUnits="userSpaceOnUse" x1="16.9966" y1="27.582" x2="30.0371" y2="27.582">
					<stop  offset="0" style="stop-color:#F6F5F5"/>
					<stop  offset="0.341" style="stop-color:#F1F2F3"/>
					<stop  offset="0.6434" style="stop-color:#E7EAEB"/>
					<stop  offset="0.9302" style="stop-color:#D5DBDF"/>
					<stop  offset="1" style="stop-color:#CFD7DB"/>
				</linearGradient>
				<rect x="16.997" y="26.838" fill="url(#SVGID_5_)" width="13.041" height="1.488"/>
				<linearGradient id="SVGID_6_" gradientUnits="userSpaceOnUse" x1="16.9966" y1="32.2227" x2="30.0371" y2="32.2227">
					<stop  offset="0" style="stop-color:#F6F5F5"/>
					<stop  offset="0.341" style="stop-color:#F1F2F3"/>
					<stop  offset="0.6434" style="stop-color:#E7EAEB"/>
					<stop  offset="0.9302" style="stop-color:#D5DBDF"/>
					<stop  offset="1" style="stop-color:#CFD7DB"/>
				</linearGradient>
				<rect x="16.997" y="31.48" fill="url(#SVGID_6_)" width="13.041" height="1.484"/>
				<linearGradient id="SVGID_7_" gradientUnits="userSpaceOnUse" x1="16.9966" y1="36.8799" x2="30.0371" y2="36.8799">
					<stop  offset="0" style="stop-color:#F6F5F5"/>
					<stop  offset="0.341" style="stop-color:#F1F2F3"/>
					<stop  offset="0.6434" style="stop-color:#E7EAEB"/>
					<stop  offset="0.9302" style="stop-color:#D5DBDF"/>
					<stop  offset="1" style="stop-color:#CFD7DB"/>
				</linearGradient>
				<rect x="16.997" y="36.138" fill="url(#SVGID_7_)" width="13.041" height="1.484"/>
				<linearGradient id="SVGID_8_" gradientUnits="userSpaceOnUse" x1="16.9966" y1="41.5186" x2="30.0371" y2="41.5186">
					<stop  offset="0" style="stop-color:#F6F5F5"/>
					<stop  offset="0.341" style="stop-color:#F1F2F3"/>
					<stop  offset="0.6434" style="stop-color:#E7EAEB"/>
					<stop  offset="0.9302" style="stop-color:#D5DBDF"/>
					<stop  offset="1" style="stop-color:#CFD7DB"/>
				</linearGradient>
				<rect x="16.997" y="40.776" fill="url(#SVGID_8_)" width="13.041" height="1.484"/>
			</g>
		</g>
	</g>
	<g>
		<rect x="10.625" y="3.5" opacity="0.8" fill="#FFFFFF" width="42.728" height="10.925"/>
	</g>
	<g>
		<path fill="#1976D2" d="M24.986,5.615c0.104,0.336,0.217,0.714,0.343,1.137c0.125,0.421,0.258,0.857,0.401,1.308
			c0.141,0.451,0.286,0.902,0.432,1.351c0.145,0.451,0.288,0.868,0.425,1.254c0.113-0.417,0.229-0.872,0.345-1.364
			c0.117-0.492,0.227-1,0.331-1.523c0.104-0.525,0.206-1.046,0.306-1.568c0.1-0.52,0.193-1.021,0.278-1.505h2.097
			c-0.305,1.425-0.653,2.872-1.048,4.338c-0.394,1.466-0.82,2.857-1.28,4.177H25.77c-0.301-0.787-0.594-1.61-0.878-2.475
			c-0.284-0.865-0.562-1.731-0.838-2.6c-0.277,0.869-0.553,1.735-0.828,2.6c-0.276,0.865-0.566,1.688-0.869,2.475h-1.844
			c-0.458-1.319-0.885-2.711-1.278-4.177c-0.395-1.466-0.742-2.913-1.046-4.338h2.186c0.087,0.484,0.182,0.985,0.286,1.505
			c0.104,0.521,0.213,1.042,0.325,1.568c0.113,0.523,0.229,1.032,0.345,1.523c0.117,0.492,0.236,0.946,0.358,1.364
			c0.154-0.403,0.306-0.828,0.453-1.279c0.146-0.451,0.29-0.9,0.429-1.351c0.137-0.451,0.265-0.885,0.38-1.303
			c0.117-0.417,0.223-0.79,0.319-1.119H24.986z"/>
		<path fill="#1976D2" d="M33.911,4.608c1.344,0,2.367,0.224,3.08,0.669c0.72,0.447,1.076,1.178,1.076,2.193
			c0,1.024-0.363,1.763-1.084,2.217c-0.727,0.455-1.759,0.683-3.109,0.683h-0.631v2.85h-2.019V4.829
			c0.438-0.082,0.905-0.139,1.395-0.171C33.109,4.625,33.54,4.608,33.911,4.608z M34.045,6.242c-0.148,0-0.29,0.004-0.431,0.013
			c-0.148,0.007-0.267,0.015-0.371,0.024v2.457h0.631c0.697,0,1.225-0.089,1.581-0.271c0.356-0.18,0.526-0.516,0.526-1.008
			c0-0.235-0.044-0.432-0.133-0.588c-0.09-0.156-0.223-0.282-0.387-0.375c-0.17-0.095-0.371-0.16-0.615-0.197
			C34.602,6.261,34.334,6.242,34.045,6.242z"/>
		<path fill="#1976D2" d="M41.993,11.759c0.29,0,0.52-0.022,0.705-0.067c0.186-0.046,0.334-0.107,0.453-0.186
			c0.111-0.078,0.186-0.169,0.23-0.276c0.044-0.106,0.066-0.225,0.066-0.356c0-0.278-0.141-0.51-0.416-0.694
			c-0.274-0.184-0.749-0.382-1.425-0.596c-0.289-0.098-0.586-0.211-0.876-0.337c-0.297-0.126-0.557-0.288-0.794-0.479
			c-0.229-0.193-0.423-0.427-0.563-0.701c-0.148-0.275-0.223-0.609-0.223-1c0-0.394,0.081-0.748,0.229-1.063
			c0.156-0.315,0.379-0.584,0.661-0.805c0.289-0.221,0.631-0.392,1.039-0.51c0.4-0.119,0.86-0.178,1.365-0.178
			c0.608,0,1.128,0.062,1.566,0.186c0.445,0.123,0.801,0.258,1.091,0.405l-0.587,1.512c-0.244-0.125-0.526-0.232-0.831-0.327
			c-0.304-0.095-0.675-0.141-1.105-0.141c-0.482,0-0.831,0.063-1.039,0.191c-0.216,0.126-0.319,0.321-0.319,0.583
			c0,0.156,0.037,0.288,0.119,0.393c0.074,0.106,0.186,0.202,0.326,0.29c0.141,0.085,0.305,0.163,0.49,0.232
			c0.186,0.07,0.393,0.143,0.615,0.215c0.468,0.165,0.869,0.327,1.218,0.486c0.341,0.16,0.631,0.345,0.86,0.559
			c0.223,0.213,0.394,0.464,0.513,0.75c0.111,0.288,0.163,0.635,0.163,1.045c0,0.794-0.289,1.41-0.876,1.848
			c-0.586,0.439-1.47,0.659-2.657,0.659c-0.393,0-0.749-0.024-1.068-0.069s-0.602-0.1-0.846-0.165
			c-0.245-0.065-0.461-0.136-0.639-0.21c-0.171-0.072-0.326-0.143-0.445-0.208l0.571-1.523c0.268,0.139,0.594,0.264,0.987,0.375
			C40.947,11.703,41.43,11.759,41.993,11.759z"/>
	</g>
</g>
</svg>
