<?xml version="1.0" encoding="utf-8"?>
<!-- Generator: Adobe Illustrator 16.0.0, SVG Export Plug-In . SVG Version: 6.00 Build 0)  -->
<!DOCTYPE svg PUBLIC "-//W3C//DTD SVG 1.1//EN" "http://www.w3.org/Graphics/SVG/1.1/DTD/svg11.dtd">
<svg version="1.1" id="图层_1" xmlns="http://www.w3.org/2000/svg" xmlns:xlink="http://www.w3.org/1999/xlink" x="0px" y="0px"
	 width="64px" height="64px" viewBox="0 0 64 64" enable-background="new 0 0 64 64" xml:space="preserve">
<rect x="9.148" y="2" opacity="0.2" enable-background="new    " width="45.704" height="60"/>
<rect x="9.148" y="2" opacity="0.08" enable-background="new    " width="47.704" height="62"/>
<rect x="10.148" y="3" opacity="0.1" enable-background="new    " width="45.704" height="60"/>
<rect x="10.148" y="3" fill="#0D47A1" width="43.704" height="58"/>
<g>
	<linearGradient id="SVGID_1_" gradientUnits="userSpaceOnUse" x1="32.002" y1="3.5" x2="32.0019" y2="60.5005">
		<stop  offset="0" style="stop-color:#64B5F6"/>
		<stop  offset="1" style="stop-color:#3F51B5"/>
	</linearGradient>
	<rect x="10.649" y="3.5" fill="url(#SVGID_1_)" width="42.707" height="57"/>
	<g opacity="0.8">
		<rect x="16.16" y="26.044" opacity="0.8" fill="#FFFFFF" enable-background="new    " width="31.663" height="1.563"/>
		<rect x="16.16" y="21.149" opacity="0.8" fill="#FFFFFF" enable-background="new    " width="31.663" height="1.569"/>
		<rect x="31.267" y="30.649" opacity="0.8" fill="#FFFFFF" enable-background="new    " width="16.532" height="16.536"/>
		<g opacity="0.8">
			<rect x="16.16" y="30.931" fill="#FFFFFF" width="13.753" height="1.574"/>
			<rect x="16.16" y="35.83" fill="#FFFFFF" width="13.753" height="1.565"/>
			<rect x="16.16" y="40.743" fill="#FFFFFF" width="13.753" height="1.565"/>
			<rect x="16.16" y="45.634" fill="#FFFFFF" width="13.753" height="1.566"/>
		</g>
	</g>
	<g>
		<rect x="10.638" y="3.5" opacity="0.8" fill="#FFFFFF" enable-background="new    " width="42.723" height="10.925"/>
		<g enable-background="new    ">
			<path fill="#236FB7" d="M26.803,8.955c0,0.742-0.123,1.38-0.364,1.93s-0.586,1.006-1.028,1.366
				c-0.441,0.36-0.983,0.631-1.622,0.809c-0.638,0.182-1.354,0.274-2.148,0.274c-0.36,0-0.783-0.015-1.266-0.044
				s-0.958-0.089-1.425-0.178V4.817c0.467-0.082,0.95-0.137,1.455-0.167c0.504-0.03,0.939-0.044,1.299-0.044
				c0.772,0,1.466,0.082,2.093,0.249c0.624,0.163,1.158,0.419,1.611,0.775c0.445,0.349,0.79,0.802,1.031,1.351
				S26.803,8.187,26.803,8.955z M20.969,11.66c0.097,0.011,0.204,0.015,0.33,0.019c0.123,0.004,0.271,0.008,0.445,0.008
				c1.01,0,1.755-0.245,2.245-0.728c0.486-0.482,0.728-1.15,0.728-2.004c0-0.891-0.23-1.566-0.698-2.026
				c-0.464-0.456-1.202-0.687-2.211-0.687c-0.134,0-0.278,0.004-0.423,0.004c-0.148,0.007-0.286,0.015-0.416,0.033V11.66z"/>
			<path fill="#236FB7" d="M37.02,8.955c0,0.731-0.115,1.373-0.346,1.926c-0.227,0.553-0.541,1.013-0.936,1.388
				c-0.396,0.375-0.867,0.653-1.418,0.842c-0.549,0.186-1.135,0.282-1.766,0.282c-0.609,0-1.187-0.097-1.729-0.282
				c-0.546-0.189-1.017-0.468-1.425-0.842c-0.404-0.375-0.724-0.835-0.958-1.388c-0.23-0.553-0.349-1.195-0.349-1.926
				c0-0.728,0.123-1.366,0.364-1.922c0.241-0.549,0.564-1.017,0.976-1.395c0.412-0.375,0.883-0.657,1.421-0.846
				c0.542-0.186,1.106-0.282,1.7-0.282c0.615,0,1.191,0.097,1.736,0.282c0.543,0.189,1.018,0.471,1.422,0.846
				c0.404,0.378,0.723,0.846,0.957,1.395C36.904,7.589,37.02,8.228,37.02,8.955z M30.18,8.955c0,0.419,0.052,0.798,0.16,1.132
				c0.107,0.338,0.264,0.627,0.464,0.865c0.204,0.245,0.453,0.43,0.742,0.564c0.297,0.126,0.631,0.193,1.009,0.193
				c0.371,0,0.705-0.067,1.002-0.193c0.301-0.134,0.549-0.319,0.754-0.564c0.203-0.238,0.355-0.527,0.463-0.865
				c0.107-0.334,0.164-0.712,0.164-1.132c0-0.416-0.057-0.794-0.164-1.136c-0.107-0.337-0.26-0.631-0.463-0.868
				c-0.205-0.245-0.453-0.431-0.754-0.564c-0.297-0.126-0.631-0.193-1.002-0.193c-0.378,0-0.712,0.066-1.009,0.2
				c-0.289,0.137-0.538,0.327-0.742,0.564c-0.2,0.245-0.356,0.535-0.464,0.876S30.18,8.547,30.18,8.955z"/>
			<path fill="#236FB7" d="M45.049,4.706v1.637h-2.705v6.88H40.33v-6.88h-2.707V4.706H45.049z"/>
		</g>
	</g>
</g>
</svg>
