<?xml version="1.0" encoding="utf-8"?>
<!-- Generator: Adobe Illustrator 21.0.0, SVG Export Plug-In . SVG Version: 6.00 Build 0)  -->
<svg version="1.1" id="图层_1" xmlns="http://www.w3.org/2000/svg" xmlns:xlink="http://www.w3.org/1999/xlink" x="0px" y="0px"
	 viewBox="0 0 64 64" style="enable-background:new 0 0 64 64;" xml:space="preserve">
<style type="text/css">
	.st0{opacity:0.2;enable-background:new    ;}
	.st1{opacity:0.08;enable-background:new    ;}
	.st2{opacity:0.1;enable-background:new    ;}
	.st3{fill:#0D47A1;}
	.st4{fill:url(#SVGID_1_);}
	.st5{opacity:0.8;}
	.st6{opacity:0.8;fill:#FFFFFF;enable-background:new    ;}
	.st7{fill:#FFFFFF;}
	.st8{enable-background:new    ;}
	.st9{fill:#236FB7;}
</style>
<rect x="9.1" y="2" class="st0" width="45.7" height="60"/>
<rect x="9.1" y="2" class="st1" width="47.7" height="62"/>
<rect x="10.1" y="3" class="st2" width="45.7" height="60"/>
<rect x="10.1" y="3" class="st3" width="43.7" height="58"/>
<g>
	
		<linearGradient id="SVGID_1_" gradientUnits="userSpaceOnUse" x1="31.9501" y1="729.4999" x2="31.9499" y2="786.5001" gradientTransform="matrix(1 0 0 1 0 -726)">
		<stop  offset="0" style="stop-color:#64B5F6"/>
		<stop  offset="1" style="stop-color:#3F51B5"/>
	</linearGradient>
	<rect x="10.6" y="3.5" class="st4" width="42.7" height="57"/>
	<g class="st5">
		<rect x="16.2" y="26" class="st6" width="31.7" height="1.6"/>
		<rect x="16.2" y="21.1" class="st6" width="31.7" height="1.6"/>
		<rect x="31.3" y="30.6" class="st6" width="16.5" height="16.5"/>
		<g class="st5">
			<rect x="16.2" y="30.9" class="st7" width="13.8" height="1.6"/>
			<rect x="16.2" y="35.8" class="st7" width="13.8" height="1.6"/>
			<rect x="16.2" y="40.7" class="st7" width="13.8" height="1.6"/>
			<rect x="16.2" y="45.6" class="st7" width="13.8" height="1.6"/>
		</g>
	</g>
	<g>
		<rect x="10.6" y="3.5" class="st6" width="42.7" height="10.9"/>
		<g class="st8">
			<path class="st9" d="M24.7,5.6c0.1,0.3,0.2,0.7,0.3,1.1c0.1,0.4,0.3,0.9,0.4,1.3c0.1,0.4,0.3,0.9,0.4,1.4
				c0.1,0.4,0.3,0.9,0.4,1.3c0.1-0.4,0.2-0.9,0.3-1.4c0.1-0.5,0.2-1,0.3-1.5s0.2-1,0.3-1.6c0.1-0.5,0.2-1,0.3-1.5h2.1
				c-0.3,1.4-0.7,2.9-1,4.3c-0.4,1.5-0.8,2.9-1.3,4.2h-1.8c-0.3-0.8-0.6-1.6-0.9-2.5S23.9,9,23.7,8.1c-0.3,0.9-0.6,1.7-0.8,2.6
				c-0.3,0.9-0.6,1.7-0.9,2.5h-1.8c-0.5-1.3-0.9-2.7-1.3-4.2s-0.7-2.9-1-4.3h2.2c0.1,0.5,0.2,1,0.3,1.5c0.1,0.5,0.2,1,0.3,1.6
				c0.1,0.5,0.2,1,0.3,1.5c0.1,0.5,0.2,0.9,0.4,1.4c0.2-0.4,0.3-0.8,0.5-1.3C22,8.9,22.2,8.5,22.3,8c0.1-0.4,0.3-0.9,0.4-1.3
				s0.2-0.8,0.3-1.1C23,5.6,24.7,5.6,24.7,5.6z"/>
			<path class="st9" d="M33.6,4.6c1.3,0,2.4,0.2,3.1,0.7c0.7,0.4,1.1,1.2,1.1,2.2s-0.4,1.8-1.1,2.2c-0.7,0.5-1.8,0.7-3.1,0.7H33v2.9
				h-2V4.8c0.4-0.1,0.9-0.1,1.4-0.2C32.8,4.6,33.3,4.6,33.6,4.6z M33.8,6.2c-0.1,0-0.3,0-0.4,0c-0.1,0-0.3,0-0.4,0v2.5h0.6
				c0.7,0,1.2-0.1,1.6-0.3c0.3-0.2,0.5-0.5,0.5-1c0-0.2,0-0.4-0.1-0.6s-0.2-0.3-0.4-0.4s-0.4-0.2-0.6-0.2
				C34.3,6.3,34.1,6.2,33.8,6.2z"/>
			<path class="st9" d="M46.1,4.7v1.6h-2.7v6.9h-2V6.3h-2.7V4.7H46.1z"/>
		</g>
	</g>
</g>
</svg>
