<?xml version="1.0" encoding="utf-8"?>
<!-- Generator: Adobe Illustrator 16.0.0, SVG Export Plug-In . SVG Version: 6.00 Build 0)  -->
<!DOCTYPE svg PUBLIC "-//W3C//DTD SVG 1.1//EN" "http://www.w3.org/Graphics/SVG/1.1/DTD/svg11.dtd">
<svg version="1.1" id="图层_1" xmlns="http://www.w3.org/2000/svg" xmlns:xlink="http://www.w3.org/1999/xlink" x="0px" y="0px"
	 width="64px" height="64px" viewBox="0 0 64 64" enable-background="new 0 0 64 64" xml:space="preserve">
<polygon opacity="0.1" enable-background="new    " points="9.155,64 9.155,2 56.846,2 56.846,46.498 39.343,64 "/>
<polygon opacity="0.1" enable-background="new    " points="10.155,63 10.155,3 55.846,3 55.846,46.084 38.93,63 "/>
<polygon opacity="0.2" enable-background="new    " points="9.155,62 9.155,2 54.846,2 54.846,45.084 37.93,62 "/>
<polygon fill="#E65100" points="10.148,61 10.148,3 53.852,3 53.852,44.67 37.517,61 "/>
<g>
	<g>
		<g>
			
				<linearGradient id="SVGID_1_" gradientUnits="userSpaceOnUse" x1="73.6006" y1="-160.3999" x2="73.6006" y2="-103.4004" gradientTransform="matrix(1 0 0 -1 -41.6001 -99.9004)">
				<stop  offset="0" style="stop-color:#EE6F0B"/>
				<stop  offset="1" style="stop-color:#FFB74D"/>
			</linearGradient>
			<polygon fill="url(#SVGID_1_)" points="10.647,60.5 10.647,3.5 53.353,3.5 53.353,44.469 37.321,60.5 			"/>
		</g>
		<polygon fill="#E65100" fill-opacity="0.3922" points="53.353,44.469 53.353,43.778 36.442,43.778 36.442,60.5 37.321,60.5 		"/>
		<path fill="#FFFFFF" fill-opacity="0.3922" d="M37.296,44.469l16.057,0.022L37.321,60.5L37.296,44.469z"/>
	</g>
	<g opacity="0.8">
		<rect x="16.206" y="25.443" fill="#FFFFFF" width="4.561" height="22.848"/>
		<rect x="23.806" y="36.843" fill="#FFFFFF" width="4.562" height="11.423"/>
		<rect x="31.384" y="41.496" fill="#FFFFFF" width="4.561" height="6.844"/>
		<g>
			<path fill="#FFFFFF" d="M37.581,21.405l0.049,9.096l9.095-0.048c0.026,5.036-4.037,9.122-9.073,9.143
				c-5.031,0.026-9.117-4.037-9.144-9.069C28.485,25.513,32.546,21.428,37.581,21.405z"/>
			<path fill="#FFFFFF" d="M38.65,20.359c5.035-0.022,9.121,4.038,9.144,9.073l-9.096,0.048L38.65,20.359z"/>
		</g>
	</g>
	<g>
		<rect x="10.636" y="3.5" opacity="0.8" fill="#FFFFFF" enable-background="new    " width="42.729" height="10.925"/>
		<g enable-background="new    ">
			<path fill="#E64A19" d="M22.952,4.546c1.34,0,2.364,0.223,3.08,0.668c0.717,0.445,1.073,1.18,1.073,2.193
				c0,1.024-0.36,1.763-1.088,2.215c-0.724,0.457-1.759,0.683-3.103,0.683h-0.634v2.85h-2.016v-8.39
				c0.438-0.082,0.902-0.138,1.396-0.171C22.151,4.562,22.581,4.546,22.952,4.546z M23.082,6.179c-0.145,0-0.289,0.004-0.43,0.015
				c-0.146,0.007-0.268,0.015-0.371,0.022v2.457h0.634c0.698,0,1.225-0.089,1.577-0.271c0.353-0.182,0.531-0.516,0.531-1.006
				c0-0.237-0.045-0.434-0.138-0.59C24.797,6.65,24.667,6.524,24.5,6.432c-0.167-0.097-0.375-0.16-0.616-0.197
				S23.376,6.179,23.082,6.179z"/>
			<path fill="#E64A19" d="M31.28,4.546c1.34,0,2.363,0.223,3.08,0.668c0.716,0.445,1.076,1.18,1.076,2.193
				c0,1.024-0.364,1.763-1.091,2.215c-0.721,0.457-1.76,0.683-3.103,0.683h-0.631v2.85h-2.02v-8.39
				c0.438-0.082,0.906-0.138,1.396-0.171C30.479,4.562,30.909,4.546,31.28,4.546z M31.413,6.179c-0.148,0-0.293,0.004-0.434,0.015
				c-0.145,0.007-0.264,0.015-0.367,0.022v2.457h0.631c0.697,0,1.225-0.089,1.581-0.271c0.349-0.182,0.526-0.516,0.526-1.006
				c0-0.237-0.044-0.434-0.134-0.59c-0.089-0.156-0.223-0.282-0.39-0.375c-0.167-0.097-0.374-0.16-0.612-0.197
				C31.971,6.198,31.703,6.179,31.413,6.179z"/>
			<path fill="#E64A19" d="M43.734,4.643v1.633h-2.702v6.88h-2.019v-6.88h-2.701V4.643H43.734z"/>
		</g>
	</g>
</g>
</svg>
