<?xml version="1.0" encoding="utf-8"?>
<!-- Generator: Adobe Illustrator 21.0.0, SVG Export Plug-In . SVG Version: 6.00 Build 0)  -->
<svg version="1.1" id="图层_1" xmlns="http://www.w3.org/2000/svg" xmlns:xlink="http://www.w3.org/1999/xlink" x="0px" y="0px"
	 viewBox="0 0 64 64" style="enable-background:new 0 0 64 64;" xml:space="preserve">
<style type="text/css">
	.st0{opacity:0.2;enable-background:new    ;}
	.st1{opacity:0.08;enable-background:new    ;}
	.st2{opacity:0.1;enable-background:new    ;}
	.st3{fill:#1B5E20;}
	.st4{fill:url(#SVGID_1_);}
	.st5{opacity:0.8;fill:#FFFFFF;enable-background:new    ;}
	.st6{fill:#388E3C;}
</style>
<rect x="9.1" y="2" class="st0" width="45.7" height="60"/>
<rect x="9.1" y="2" class="st1" width="47.7" height="62"/>
<rect x="10.1" y="3" class="st2" width="45.7" height="60"/>
<rect x="10.1" y="3" class="st3" width="43.7" height="58"/>
<g>
	
		<linearGradient id="SVGID_1_" gradientUnits="userSpaceOnUse" x1="115.1502" y1="1611.3008" x2="115.1502" y2="1554.3008" gradientTransform="matrix(1 0 0 1 -83.2002 -1550.8008)">
		<stop  offset="0" style="stop-color:#388E3C"/>
		<stop  offset="0.0757" style="stop-color:#43953E"/>
		<stop  offset="0.3246" style="stop-color:#62A943"/>
		<stop  offset="0.5665" style="stop-color:#79B747"/>
		<stop  offset="0.796" style="stop-color:#86C049"/>
		<stop  offset="1" style="stop-color:#8BC34A"/>
	</linearGradient>
	<rect x="10.6" y="3.5" class="st4" width="42.7" height="57"/>
	<path class="st5" d="M33.1,21.6L33.1,21.6l-2.2-0.1v0.1H16.8v27.5h30.4V21.6H33.1z M19,29.8h6.8v4.4H19V29.8z M19,36.4h6.8v4.4H19
		V36.4z M28,36.4h17v4.4H28V36.4z M28,34.2v-4.4h17v4.4H28z M45,23.8v3.8H28v-3.8H45z M25.8,23.8v3.8H19v-3.8H25.8z M19,43h6.8v3.9
		H19V43z M28,46.9V43h17v3.9H28z"/>
	<g>
		<rect x="10.6" y="3.5" class="st5" width="42.7" height="10.9"/>
	</g>
	<g>
		<path class="st6" d="M26.7,13.2c-0.3-0.5-0.5-1-0.8-1.4c-0.3-0.5-0.6-0.9-1-1.2c-0.1,0.1-0.3,0.3-0.5,0.5s-0.4,0.5-0.6,0.7
			c-0.2,0.3-0.4,0.5-0.5,0.8C23.2,12.8,23,13,23,13.2h-2.3c0.4-0.7,0.8-1.4,1.3-2.1s1.1-1.5,1.7-2.3l-2.9-4.2h2.4l1.7,2.5l1.7-2.5
			H29l-2.9,4.1c0.8,0.9,1.4,1.7,1.9,2.5s0.9,1.4,1.2,1.9h-2.5V13.2z"/>
		<path class="st6" d="M36.3,11.5v1.6h-6V4.6h2v6.9H36.3L36.3,11.5z"/>
		<path class="st6" d="M43.2,4.6v1.6h-2.7v6.9h-2V6.3h-2.7V4.6H43.2z"/>
	</g>
</g>
</svg>
