<?xml version="1.0" encoding="utf-8"?>
<!-- Generator: Adobe Illustrator 16.0.0, SVG Export Plug-In . SVG Version: 6.00 Build 0)  -->
<!DOCTYPE svg PUBLIC "-//W3C//DTD SVG 1.1//EN" "http://www.w3.org/Graphics/SVG/1.1/DTD/svg11.dtd">
<svg version="1.1" id="图层_1" xmlns="http://www.w3.org/2000/svg" xmlns:xlink="http://www.w3.org/1999/xlink" x="0px" y="0px"
	 width="64px" height="64px" viewBox="0 0 64 64" enable-background="new 0 0 64 64" xml:space="preserve">
<polygon opacity="0.1" enable-background="new    " points="9.155,64 9.155,2 56.846,2 56.846,46.498 39.343,64 "/>
<polygon opacity="0.1" enable-background="new    " points="10.155,63 10.155,3 55.846,3 55.846,46.084 38.93,63 "/>
<polygon opacity="0.2" enable-background="new    " points="9.155,62 9.155,2 54.846,2 54.846,45.084 37.93,62 "/>
<polygon fill="#E65100" points="10.148,61 10.148,3 53.852,3 53.852,44.67 37.517,61 "/>
<g>
	<g>
		<g>
			
				<linearGradient id="SVGID_1_" gradientUnits="userSpaceOnUse" x1="73.6016" y1="-160.3999" x2="73.6016" y2="-103.4004" gradientTransform="matrix(1 0 0 -1 -41.6001 -99.9004)">
				<stop  offset="0" style="stop-color:#EE6F0B"/>
				<stop  offset="1" style="stop-color:#FFB74D"/>
			</linearGradient>
			<polygon fill="url(#SVGID_1_)" points="10.647,60.5 10.647,3.5 53.354,3.5 53.354,44.469 37.322,60.5 			"/>
		</g>
		<polygon fill="#E65100" fill-opacity="0.3922" points="53.354,44.469 53.354,43.779 36.442,43.779 36.442,60.5 37.322,60.5 		"/>
		<path fill="#FFFFFF" fill-opacity="0.3922" d="M37.296,44.469l16.058,0.021L37.322,60.5L37.296,44.469z"/>
	</g>
	<g opacity="0.8">
		<rect x="16.206" y="25.442" fill="#FFFFFF" width="4.561" height="22.849"/>
		<rect x="23.807" y="36.843" fill="#FFFFFF" width="4.559" height="11.422"/>
		<rect x="31.385" y="41.494" fill="#FFFFFF" width="4.559" height="6.845"/>
		<g>
			<path fill="#FFFFFF" d="M37.582,21.405l0.048,9.096l9.095-0.049c0.026,5.036-4.037,9.124-9.073,9.145
				c-5.031,0.026-9.119-4.04-9.142-9.07C28.485,25.514,32.546,21.428,37.582,21.405z"/>
			<path fill="#FFFFFF" d="M38.65,20.358c5.036-0.021,9.121,4.038,9.143,9.073l-9.095,0.049L38.65,20.358z"/>
		</g>
	</g>
	<g>
		<rect x="10.636" y="3.5" opacity="0.8" fill="#FFFFFF" enable-background="new    " width="42.729" height="10.925"/>
		<g enable-background="new    ">
			<path fill="#E64A19" d="M27.934,8.896c0,0.735-0.125,1.381-0.366,1.93c-0.241,0.55-0.58,1.002-1.025,1.362
				C26.1,12.547,25.559,12.818,24.92,13c-0.639,0.178-1.354,0.268-2.149,0.268c-0.359,0-0.782-0.016-1.265-0.045
				c-0.482-0.026-0.958-0.085-1.422-0.178V4.754c0.464-0.081,0.95-0.137,1.455-0.167c0.505-0.025,0.935-0.04,1.299-0.04
				c0.768,0,1.462,0.081,2.089,0.244c0.624,0.164,1.162,0.424,1.61,0.772c0.445,0.356,0.79,0.805,1.031,1.351
				C27.809,7.463,27.934,8.124,27.934,8.896z M22.1,11.598c0.096,0.007,0.204,0.015,0.33,0.019c0.126,0.003,0.274,0.003,0.445,0.003
				c1.009,0,1.759-0.237,2.245-0.72c0.486-0.486,0.73-1.154,0.73-2.004c0-0.895-0.233-1.569-0.697-2.026
				c-0.468-0.46-1.202-0.689-2.212-0.689c-0.137,0-0.282,0-0.427,0.007c-0.148,0.004-0.285,0.015-0.415,0.03V11.598z"/>
			<path fill="#E64A19" d="M32.3,4.547c1.341,0,2.364,0.223,3.08,0.668c0.718,0.445,1.076,1.18,1.076,2.192
				c0,1.024-0.363,1.763-1.09,2.216c-0.721,0.456-1.76,0.683-3.104,0.683h-0.631v2.851h-2.018V4.766
				c0.438-0.082,0.904-0.138,1.395-0.171C31.499,4.562,31.929,4.547,32.3,4.547z M32.435,6.18c-0.148,0-0.294,0.003-0.435,0.015
				c-0.146,0.007-0.263,0.015-0.368,0.022v2.456h0.631c0.699,0,1.225-0.089,1.582-0.271c0.348-0.182,0.527-0.516,0.527-1.006
				c0-0.237-0.045-0.435-0.135-0.59c-0.088-0.156-0.223-0.282-0.39-0.375c-0.167-0.097-0.374-0.159-0.612-0.196
				C32.991,6.198,32.724,6.18,32.435,6.18z"/>
			<path fill="#E64A19" d="M40.384,11.693c0.284,0,0.52-0.021,0.705-0.066s0.334-0.104,0.445-0.186
				c0.114-0.074,0.191-0.167,0.236-0.274c0.042-0.104,0.063-0.223,0.063-0.356c0-0.278-0.138-0.512-0.416-0.694
				c-0.273-0.182-0.75-0.382-1.421-0.597c-0.294-0.097-0.586-0.208-0.88-0.334c-0.292-0.127-0.557-0.29-0.79-0.482
				c-0.23-0.193-0.424-0.424-0.567-0.698c-0.146-0.274-0.22-0.608-0.22-1.002s0.074-0.749,0.23-1.062
				c0.156-0.318,0.379-0.586,0.66-0.809c0.286-0.219,0.631-0.39,1.036-0.509c0.403-0.118,0.864-0.178,1.368-0.178
				c0.606,0,1.129,0.063,1.566,0.186s0.803,0.256,1.087,0.404l-0.581,1.515c-0.254-0.127-0.527-0.234-0.835-0.327
				c-0.31-0.097-0.673-0.141-1.103-0.141c-0.487,0-0.832,0.06-1.047,0.189c-0.207,0.126-0.313,0.322-0.313,0.582
				c0,0.156,0.037,0.29,0.111,0.394c0.082,0.104,0.19,0.2,0.334,0.289c0.143,0.086,0.305,0.164,0.49,0.23
				c0.186,0.074,0.39,0.145,0.617,0.215c0.464,0.167,0.867,0.327,1.212,0.49c0.347,0.156,0.636,0.342,0.861,0.557
				c0.228,0.215,0.397,0.464,0.509,0.75c0.111,0.289,0.17,0.634,0.17,1.046c0,0.794-0.292,1.41-0.878,1.849
				c-0.588,0.438-1.474,0.656-2.653,0.656c-0.395,0-0.755-0.025-1.073-0.07s-0.602-0.097-0.846-0.163
				c-0.249-0.067-0.456-0.134-0.636-0.208c-0.178-0.074-0.326-0.145-0.445-0.208l0.572-1.525c0.268,0.138,0.594,0.264,0.986,0.375
				C39.337,11.642,39.814,11.693,40.384,11.693z"/>
		</g>
	</g>
</g>
</svg>
