<?xml version="1.0" encoding="utf-8"?>
<!-- Generator: Adobe Illustrator 21.0.0, SVG Export Plug-In . SVG Version: 6.00 Build 0)  -->
<svg version="1.1" id="图层_1" xmlns="http://www.w3.org/2000/svg" xmlns:xlink="http://www.w3.org/1999/xlink" x="0px" y="0px"
	 viewBox="0 0 64 64" style="enable-background:new 0 0 64 64;" xml:space="preserve">
<style type="text/css">
	.st0{opacity:0.2;enable-background:new    ;}
	.st1{opacity:0.08;enable-background:new    ;}
	.st2{opacity:0.1;enable-background:new    ;}
	.st3{fill:#E65100;}
	.st4{fill:url(#SVGID_1_);}
	.st5{opacity:0.8;}
	.st6{fill:#FFFFFF;}
	.st7{opacity:0.8;fill:#FFFFFF;enable-background:new    ;}
	.st8{enable-background:new    ;}
	.st9{fill:#E64A19;}
</style>
<rect x="9.1" y="2" class="st0" width="45.7" height="60"/>
<rect x="9.1" y="2" class="st1" width="47.7" height="62"/>
<rect x="10.1" y="3" class="st2" width="45.7" height="60"/>
<rect x="10.1" y="3" class="st3" width="43.7" height="58"/>
<g>
	
		<linearGradient id="SVGID_1_" gradientUnits="userSpaceOnUse" x1="115.1502" y1="1611.3008" x2="115.1502" y2="1554.3008" gradientTransform="matrix(1 0 0 1 -83.2002 -1550.8008)">
		<stop  offset="0" style="stop-color:#EE6F0B"/>
		<stop  offset="1" style="stop-color:#FFB74D"/>
	</linearGradient>
	<rect x="10.6" y="3.5" class="st4" width="42.7" height="57"/>
	<g class="st5">
		<rect x="16.2" y="25.4" class="st6" width="4.6" height="22.9"/>
		<rect x="23.8" y="36.8" class="st6" width="4.6" height="11.4"/>
		<rect x="31.4" y="41.5" class="st6" width="4.6" height="6.8"/>
		<g>
			<path class="st6" d="M37.6,21.4l0.1,9.1h9.1c0,5-4,9.1-9.1,9.1c-5,0-9.1-4-9.1-9.1C28.5,25.5,32.5,21.4,37.6,21.4z"/>
			<path class="st6" d="M38.7,20.4c5,0,9.1,4,9.1,9.1l-9.1,0.1L38.7,20.4z"/>
		</g>
	</g>
	<g>
		<rect x="10.6" y="3.5" class="st7" width="42.7" height="10.9"/>
		<g class="st8">
			<path class="st9" d="M22.2,4.5c1.3,0,2.4,0.2,3.1,0.7s1.1,1.2,1.1,2.2S26,9.2,25.3,9.6c-0.7,0.5-1.8,0.7-3.1,0.7h-0.6v2.8h-2V4.8
				C20,4.7,20.5,4.7,21,4.6C21.4,4.6,21.9,4.5,22.2,4.5z M22.4,6.2c-0.1,0-0.3,0-0.4,0s-0.3,0-0.4,0v2.5h0.6c0.7,0,1.2-0.1,1.6-0.3
				s0.5-0.5,0.5-1c0-0.2,0-0.4-0.1-0.6S24,6.5,23.8,6.4c-0.2-0.1-0.4-0.2-0.6-0.2S22.7,6.2,22.4,6.2z"/>
			<path class="st9" d="M36.4,8.9c0,0.7-0.1,1.4-0.3,1.9c-0.2,0.6-0.5,1-0.9,1.4s-0.9,0.7-1.4,0.8c-0.5,0.2-1.1,0.3-1.8,0.3
				c-0.6,0-1.2-0.1-1.7-0.3s-1-0.5-1.4-0.8c-0.4-0.4-0.7-0.8-1-1.4c-0.2-0.6-0.4-1.2-0.4-1.9s0.1-1.4,0.4-1.9c0.2-0.6,0.6-1,1-1.4
				s0.9-0.7,1.4-0.8c0.5-0.2,1.1-0.3,1.7-0.3c0.6,0,1.2,0.1,1.7,0.3c0.5,0.2,1,0.5,1.4,0.8c0.4,0.4,0.7,0.8,1,1.4
				C36.3,7.5,36.4,8.2,36.4,8.9z M29.6,8.9c0,0.4,0.1,0.8,0.2,1.1s0.3,0.6,0.5,0.9c0.2,0.2,0.4,0.4,0.7,0.6c0.3,0.1,0.6,0.2,1,0.2
				c0.4,0,0.7-0.1,1-0.2c0.3-0.1,0.5-0.3,0.8-0.6c0.2-0.2,0.4-0.5,0.5-0.9c0.1-0.3,0.2-0.7,0.2-1.1c0-0.4-0.1-0.8-0.2-1.1
				c-0.1-0.3-0.3-0.6-0.5-0.9c-0.2-0.2-0.5-0.4-0.8-0.6c-0.3-0.1-0.6-0.2-1-0.2c-0.4,0-0.7,0.1-1,0.2s-0.5,0.3-0.7,0.6
				c-0.2,0.2-0.4,0.5-0.5,0.9C29.6,8.1,29.6,8.5,29.6,8.9z"/>
			<path class="st9" d="M44.4,4.6v1.6h-2.7v6.9h-2V6.3H37V4.6H44.4z"/>
		</g>
	</g>
</g>
</svg>
