<?xml version="1.0" encoding="utf-8"?>
<!-- Generator: Adobe Illustrator 16.0.0, SVG Export Plug-In . SVG Version: 6.00 Build 0)  -->
<!DOCTYPE svg PUBLIC "-//W3C//DTD SVG 1.1//EN" "http://www.w3.org/Graphics/SVG/1.1/DTD/svg11.dtd">
<svg version="1.1" id="图层_1" xmlns="http://www.w3.org/2000/svg" xmlns:xlink="http://www.w3.org/1999/xlink" x="0px" y="0px"
	 width="64px" height="64px" viewBox="0 0 64 64" enable-background="new 0 0 64 64" xml:space="preserve">
<polygon opacity="0.1" enable-background="new    " points="9.155,64 9.155,2 56.846,2 56.846,46.498 39.343,64 "/>
<polygon opacity="0.1" enable-background="new    " points="10.155,63 10.155,3 55.846,3 55.846,46.084 38.93,63 "/>
<polygon opacity="0.2" enable-background="new    " points="9.155,62 9.155,2 54.846,2 54.846,45.084 37.93,62 "/>
<polygon fill="#0D47A1" points="10.148,61 10.148,3 53.852,3 53.852,44.67 37.518,61 "/>
<g>
	<g>
		<g>
			<g>
				<linearGradient id="SVGID_1_" gradientUnits="userSpaceOnUse" x1="32.019" y1="60.5" x2="32.019" y2="3.5005">
					<stop  offset="0" style="stop-color:#3F51B5"/>
					<stop  offset="1" style="stop-color:#64B5F6"/>
				</linearGradient>
				<polygon fill="url(#SVGID_1_)" points="10.666,60.5 10.666,3.5 53.372,3.5 53.372,44.469 37.341,60.5 				"/>
			</g>
			<polygon fill="#2196F3" fill-opacity="0.7" points="53.372,44.469 53.372,43.779 36.461,43.779 36.461,60.5 37.341,60.5 			"/>
			<path opacity="0.39" fill="#FFFFFF" d="M37.317,44.469l16.058,0.021L37.341,60.5L37.317,44.469z"/>
		</g>
		<g opacity="0.8">
			<linearGradient id="SVGID_2_" gradientUnits="userSpaceOnUse" x1="16.9971" y1="22.9443" x2="47.0186" y2="22.9443">
				<stop  offset="0" style="stop-color:#F6F5F5"/>
				<stop  offset="0.341" style="stop-color:#F1F2F3"/>
				<stop  offset="0.6434" style="stop-color:#E7EAEB"/>
				<stop  offset="0.9302" style="stop-color:#D5DBDF"/>
				<stop  offset="1" style="stop-color:#CFD7DB"/>
			</linearGradient>
			<rect x="16.997" y="22.202" opacity="0.8" fill="url(#SVGID_2_)" enable-background="new    " width="30.021" height="1.486"/>
			<linearGradient id="SVGID_3_" gradientUnits="userSpaceOnUse" x1="16.9971" y1="18.3047" x2="47.0186" y2="18.3047">
				<stop  offset="0" style="stop-color:#F6F5F5"/>
				<stop  offset="0.341" style="stop-color:#F1F2F3"/>
				<stop  offset="0.6434" style="stop-color:#E7EAEB"/>
				<stop  offset="0.9302" style="stop-color:#D5DBDF"/>
				<stop  offset="1" style="stop-color:#CFD7DB"/>
			</linearGradient>
			<rect x="16.997" y="17.561" opacity="0.8" fill="url(#SVGID_3_)" enable-background="new    " width="30.021" height="1.488"/>
			<linearGradient id="SVGID_4_" gradientUnits="userSpaceOnUse" x1="31.3213" y1="34.4043" x2="46.9951" y2="34.4043">
				<stop  offset="0" style="stop-color:#F6F5F5"/>
				<stop  offset="0.341" style="stop-color:#F1F2F3"/>
				<stop  offset="0.6434" style="stop-color:#E7EAEB"/>
				<stop  offset="0.9302" style="stop-color:#D5DBDF"/>
				<stop  offset="1" style="stop-color:#CFD7DB"/>
			</linearGradient>
			<rect x="31.321" y="26.567" opacity="0.8" fill="url(#SVGID_4_)" enable-background="new    " width="15.674" height="15.673"/>
			<g opacity="0.8">
				<linearGradient id="SVGID_5_" gradientUnits="userSpaceOnUse" x1="16.9971" y1="27.582" x2="30.0371" y2="27.582">
					<stop  offset="0" style="stop-color:#F6F5F5"/>
					<stop  offset="0.341" style="stop-color:#F1F2F3"/>
					<stop  offset="0.6434" style="stop-color:#E7EAEB"/>
					<stop  offset="0.9302" style="stop-color:#D5DBDF"/>
					<stop  offset="1" style="stop-color:#CFD7DB"/>
				</linearGradient>
				<rect x="16.997" y="26.838" fill="url(#SVGID_5_)" width="13.04" height="1.488"/>
				<linearGradient id="SVGID_6_" gradientUnits="userSpaceOnUse" x1="16.9971" y1="32.2227" x2="30.0371" y2="32.2227">
					<stop  offset="0" style="stop-color:#F6F5F5"/>
					<stop  offset="0.341" style="stop-color:#F1F2F3"/>
					<stop  offset="0.6434" style="stop-color:#E7EAEB"/>
					<stop  offset="0.9302" style="stop-color:#D5DBDF"/>
					<stop  offset="1" style="stop-color:#CFD7DB"/>
				</linearGradient>
				<rect x="16.997" y="31.48" fill="url(#SVGID_6_)" width="13.04" height="1.484"/>
				<linearGradient id="SVGID_7_" gradientUnits="userSpaceOnUse" x1="16.9971" y1="36.8799" x2="30.0371" y2="36.8799">
					<stop  offset="0" style="stop-color:#F6F5F5"/>
					<stop  offset="0.341" style="stop-color:#F1F2F3"/>
					<stop  offset="0.6434" style="stop-color:#E7EAEB"/>
					<stop  offset="0.9302" style="stop-color:#D5DBDF"/>
					<stop  offset="1" style="stop-color:#CFD7DB"/>
				</linearGradient>
				<rect x="16.997" y="36.138" fill="url(#SVGID_7_)" width="13.04" height="1.484"/>
				<linearGradient id="SVGID_8_" gradientUnits="userSpaceOnUse" x1="16.9971" y1="41.5186" x2="30.0371" y2="41.5186">
					<stop  offset="0" style="stop-color:#F6F5F5"/>
					<stop  offset="0.341" style="stop-color:#F1F2F3"/>
					<stop  offset="0.6434" style="stop-color:#E7EAEB"/>
					<stop  offset="0.9302" style="stop-color:#D5DBDF"/>
					<stop  offset="1" style="stop-color:#CFD7DB"/>
				</linearGradient>
				<rect x="16.997" y="40.776" fill="url(#SVGID_8_)" width="13.04" height="1.484"/>
			</g>
		</g>
	</g>
	<g>
		<rect x="10.625" y="3.5" opacity="0.8" fill="#FFFFFF" width="42.729" height="10.925"/>
		<g>
			<path fill="#1976D2" d="M26.809,8.957c0,0.739-0.121,1.381-0.362,1.93c-0.241,0.55-0.584,1.004-1.028,1.364
				c-0.443,0.36-0.985,0.631-1.624,0.811c-0.638,0.18-1.352,0.271-2.147,0.271c-0.362,0-0.785-0.016-1.267-0.045
				c-0.482-0.028-0.957-0.087-1.421-0.178V4.817c0.464-0.082,0.95-0.138,1.454-0.167c0.505-0.028,0.937-0.042,1.299-0.042
				c0.769,0,1.464,0.081,2.09,0.247c0.625,0.163,1.161,0.421,1.609,0.774c0.448,0.353,0.794,0.803,1.035,1.351
				C26.688,7.528,26.809,8.187,26.809,8.957z M20.977,11.66c0.094,0.009,0.204,0.015,0.33,0.019
				c0.125,0.004,0.273,0.005,0.445,0.005c1.009,0,1.757-0.241,2.243-0.724c0.489-0.484,0.731-1.152,0.731-2.004
				c0-0.892-0.232-1.568-0.697-2.025c-0.466-0.458-1.203-0.689-2.212-0.689c-0.138,0-0.281,0.002-0.427,0.005
				c-0.147,0.006-0.284,0.016-0.414,0.032V11.66z"/>
			<path fill="#1976D2" d="M37.028,8.957c0,0.73-0.119,1.372-0.35,1.924c-0.223,0.553-0.533,1.015-0.934,1.388
				c-0.395,0.374-0.869,0.653-1.418,0.841c-0.546,0.188-1.138,0.284-1.763,0.284c-0.612,0-1.193-0.095-1.733-0.284
				c-0.542-0.188-1.017-0.468-1.423-0.841c-0.404-0.373-0.724-0.835-0.956-1.388c-0.233-0.553-0.35-1.194-0.35-1.924
				c0-0.729,0.122-1.369,0.363-1.922s0.566-1.017,0.976-1.396c0.408-0.375,0.885-0.659,1.425-0.846
				c0.538-0.189,1.1-0.284,1.699-0.284c0.612,0,1.19,0.094,1.733,0.284c0.541,0.187,1.016,0.471,1.424,0.846
				c0.4,0.379,0.721,0.843,0.957,1.396C36.909,7.587,37.028,8.228,37.028,8.957z M30.186,8.957c0,0.417,0.052,0.796,0.163,1.132
				c0.104,0.336,0.26,0.624,0.464,0.865c0.204,0.243,0.448,0.428,0.742,0.561c0.294,0.13,0.631,0.196,1.01,0.196
				c0.371,0,0.705-0.066,1.002-0.196c0.3-0.132,0.546-0.318,0.75-0.561c0.204-0.241,0.358-0.529,0.464-0.865
				c0.111-0.335,0.162-0.714,0.162-1.132s-0.051-0.795-0.162-1.135c-0.105-0.34-0.26-0.631-0.464-0.872s-0.45-0.429-0.75-0.561
				c-0.297-0.13-0.631-0.197-1.002-0.197c-0.379,0-0.715,0.069-1.01,0.204c-0.294,0.136-0.538,0.323-0.742,0.564
				c-0.204,0.243-0.36,0.533-0.464,0.872C30.237,8.174,30.186,8.548,30.186,8.957z"/>
			<path fill="#1976D2" d="M42.791,13.394c-1.458,0-2.568-0.386-3.329-1.156c-0.764-0.77-1.146-1.863-1.146-3.281
				c0-0.703,0.119-1.332,0.348-1.885c0.235-0.553,0.554-1.021,0.959-1.401c0.403-0.38,0.886-0.669,1.45-0.867
				c0.56-0.196,1.166-0.294,1.821-0.294c0.379,0,0.724,0.028,1.036,0.08c0.308,0.053,0.583,0.115,0.813,0.186
				c0.233,0.069,0.427,0.141,0.581,0.215c0.156,0.073,0.268,0.13,0.339,0.171L45.081,6.71c-0.278-0.139-0.597-0.258-0.965-0.356
				s-0.782-0.148-1.246-0.148c-0.313,0-0.617,0.05-0.914,0.148s-0.56,0.256-0.787,0.472c-0.229,0.217-0.411,0.499-0.549,0.842
				c-0.141,0.343-0.207,0.763-0.207,1.252c0,0.394,0.045,0.761,0.133,1.101c0.093,0.339,0.238,0.632,0.442,0.879
				c0.199,0.245,0.467,0.44,0.793,0.583c0.328,0.143,0.724,0.215,1.192,0.215c0.292,0,0.557-0.016,0.787-0.05
				c0.233-0.031,0.44-0.07,0.623-0.114c0.178-0.046,0.337-0.097,0.478-0.155c0.138-0.057,0.26-0.111,0.376-0.159l0.557,1.535
				c-0.286,0.165-0.687,0.312-1.206,0.443C44.071,13.326,43.475,13.394,42.791,13.394z"/>
		</g>
	</g>
</g>
</svg>
