<?xml version="1.0" encoding="utf-8"?>
<!-- Generator: Adobe Illustrator 16.0.0, SVG Export Plug-In . SVG Version: 6.00 Build 0)  -->
<!DOCTYPE svg PUBLIC "-//W3C//DTD SVG 1.1//EN" "http://www.w3.org/Graphics/SVG/1.1/DTD/svg11.dtd">
<svg version="1.1" id="图层_1" xmlns="http://www.w3.org/2000/svg" xmlns:xlink="http://www.w3.org/1999/xlink" x="0px" y="0px"
	 width="64px" height="64px" viewBox="0 0 64 64" enable-background="new 0 0 64 64" xml:space="preserve">
<rect x="9.148" y="2" opacity="0.2" enable-background="new    " width="45.704" height="60"/>
<rect x="9.148" y="2" opacity="0.08" enable-background="new    " width="47.704" height="62"/>
<rect x="10.148" y="3" opacity="0.1" enable-background="new    " width="45.704" height="60"/>
<rect x="10.148" y="3" fill="#E65100" width="43.704" height="58"/>
<g>
	
		<linearGradient id="SVGID_1_" gradientUnits="userSpaceOnUse" x1="115.1992" y1="885.3008" x2="115.1992" y2="828.3008" gradientTransform="matrix(1 0 0 1 -83.2002 -824.8008)">
		<stop  offset="0" style="stop-color:#EE6F0B"/>
		<stop  offset="1" style="stop-color:#FFB74D"/>
	</linearGradient>
	<rect x="10.647" y="3.5" fill="url(#SVGID_1_)" width="42.705" height="57"/>
	<g opacity="0.8">
		<rect x="16.206" y="25.439" fill="#FFFFFF" width="4.561" height="22.852"/>
		<rect x="23.807" y="36.843" fill="#FFFFFF" width="4.561" height="11.422"/>
		<rect x="31.384" y="41.496" fill="#FFFFFF" width="4.558" height="6.843"/>
		<g>
			<path fill="#FFFFFF" d="M37.581,21.409l0.052,9.092l9.096-0.045c0.026,5.032-4.041,9.118-9.073,9.141
				c-5.039,0.029-9.121-4.038-9.147-9.07C28.485,25.513,32.549,21.431,37.581,21.409z"/>
			<path fill="#FFFFFF" d="M38.65,20.355c5.035-0.022,9.121,4.042,9.144,9.077l-9.092,0.052L38.65,20.355z"/>
		</g>
	</g>
	<g>
		<rect x="10.636" y="3.5" opacity="0.8" fill="#FFFFFF" enable-background="new    " width="42.729" height="10.925"/>
		<g enable-background="new    ">
			<path fill="#E64A19" d="M27.514,8.896c0,0.735-0.123,1.381-0.364,1.93c-0.241,0.549-0.582,1.002-1.027,1.362
				c-0.441,0.36-0.983,0.631-1.622,0.813c-0.638,0.178-1.354,0.267-2.148,0.267c-0.36,0-0.783-0.015-1.266-0.044
				c-0.482-0.026-0.957-0.085-1.421-0.178v-8.29c0.464-0.082,0.95-0.137,1.454-0.167c0.505-0.026,0.936-0.041,1.299-0.041
				c0.769,0,1.463,0.082,2.09,0.245c0.623,0.163,1.161,0.423,1.61,0.772c0.445,0.356,0.79,0.805,1.031,1.351
				C27.391,7.463,27.514,8.124,27.514,8.896z M21.68,11.597c0.097,0.007,0.204,0.015,0.33,0.019
				c0.127,0.004,0.275,0.004,0.445,0.004c1.01,0,1.76-0.238,2.245-0.72c0.486-0.486,0.731-1.154,0.731-2.004
				c0-0.894-0.233-1.569-0.697-2.026c-0.468-0.46-1.203-0.69-2.212-0.69c-0.138,0-0.282,0-0.427,0.007
				c-0.148,0.004-0.286,0.015-0.416,0.03V11.597z"/>
			<path fill="#E64A19" d="M31.885,4.546c1.336,0,2.36,0.223,3.076,0.668c0.717,0.445,1.076,1.18,1.076,2.193
				c0,1.024-0.363,1.763-1.091,2.215c-0.72,0.457-1.759,0.683-3.103,0.683h-0.631v2.85h-2.019v-8.39
				c0.441-0.082,0.905-0.138,1.396-0.171C31.083,4.562,31.514,4.546,31.885,4.546z M32.015,6.179c-0.148,0-0.293,0.004-0.434,0.015
				c-0.142,0.007-0.264,0.015-0.368,0.022v2.457h0.631c0.698,0,1.225-0.089,1.581-0.271c0.349-0.182,0.527-0.516,0.527-1.006
				c0-0.237-0.045-0.434-0.134-0.59c-0.089-0.156-0.223-0.282-0.39-0.375c-0.167-0.097-0.375-0.16-0.612-0.197
				C32.571,6.198,32.305,6.179,32.015,6.179z"/>
			<path fill="#E64A19" d="M44.335,4.643v1.633h-2.701v6.88h-2.019v-6.88h-2.702V4.643H44.335z"/>
		</g>
	</g>
</g>
</svg>
