<?xml version="1.0" encoding="utf-8"?>
<!-- Generator: Adobe Illustrator 16.0.0, SVG Export Plug-In . SVG Version: 6.00 Build 0)  -->
<!DOCTYPE svg PUBLIC "-//W3C//DTD SVG 1.1//EN" "http://www.w3.org/Graphics/SVG/1.1/DTD/svg11.dtd">
<svg version="1.1" id="图层_1" xmlns="http://www.w3.org/2000/svg" xmlns:xlink="http://www.w3.org/1999/xlink" x="0px" y="0px"
	 width="64px" height="64px" viewBox="0 0 64 64" enable-background="new 0 0 64 64" xml:space="preserve">
<rect x="9.148" y="2" opacity="0.2" enable-background="new    " width="45.704" height="60"/>
<rect x="9.148" y="2" opacity="0.08" enable-background="new    " width="47.704" height="62"/>
<rect x="10.148" y="3" opacity="0.1" enable-background="new    " width="45.704" height="60"/>
<rect x="10.148" y="3" fill="#0D47A1" width="43.704" height="58"/>
<g>
	<linearGradient id="SVGID_1_" gradientUnits="userSpaceOnUse" x1="32.002" y1="3.5" x2="32.0019" y2="60.5005">
		<stop  offset="0" style="stop-color:#64B5F6"/>
		<stop  offset="1" style="stop-color:#3F51B5"/>
	</linearGradient>
	<rect x="10.649" y="3.5" fill="url(#SVGID_1_)" width="42.707" height="57"/>
	<g opacity="0.8">
		<rect x="16.16" y="26.044" opacity="0.8" fill="#FFFFFF" enable-background="new    " width="31.663" height="1.563"/>
		<rect x="16.16" y="21.149" opacity="0.8" fill="#FFFFFF" enable-background="new    " width="31.663" height="1.569"/>
		<rect x="31.267" y="30.649" opacity="0.8" fill="#FFFFFF" enable-background="new    " width="16.532" height="16.536"/>
		<g opacity="0.8">
			<rect x="16.16" y="30.931" fill="#FFFFFF" width="13.753" height="1.574"/>
			<rect x="16.16" y="35.83" fill="#FFFFFF" width="13.753" height="1.565"/>
			<rect x="16.16" y="40.743" fill="#FFFFFF" width="13.753" height="1.565"/>
			<rect x="16.16" y="45.634" fill="#FFFFFF" width="13.753" height="1.566"/>
		</g>
	</g>
	<g>
		<rect x="10.638" y="3.5" opacity="0.8" fill="#FFFFFF" enable-background="new    " width="42.723" height="10.925"/>
		<g enable-background="new    ">
			<path fill="#236FB7" d="M24.71,5.615c0.104,0.334,0.219,0.712,0.345,1.136c0.122,0.423,0.256,0.861,0.4,1.31
				c0.141,0.449,0.282,0.902,0.431,1.351c0.148,0.449,0.29,0.868,0.423,1.254c0.115-0.419,0.23-0.872,0.349-1.362
				c0.115-0.493,0.223-1.002,0.327-1.525c0.104-0.523,0.208-1.046,0.308-1.57c0.101-0.52,0.193-1.017,0.278-1.503h2.097
				c-0.304,1.425-0.653,2.872-1.046,4.338c-0.397,1.466-0.82,2.857-1.28,4.179h-1.848c-0.3-0.787-0.594-1.61-0.875-2.479
				c-0.286-0.861-0.564-1.729-0.839-2.598c-0.278,0.869-0.557,1.737-0.831,2.598c-0.275,0.869-0.564,1.692-0.869,2.479h-1.84
				c-0.46-1.321-0.887-2.713-1.28-4.179c-0.394-1.466-0.742-2.913-1.046-4.338h2.186c0.089,0.486,0.182,0.983,0.286,1.503
				c0.104,0.523,0.211,1.046,0.327,1.57c0.111,0.523,0.227,1.032,0.345,1.525c0.115,0.49,0.234,0.943,0.356,1.362
				c0.156-0.405,0.305-0.828,0.453-1.28c0.148-0.449,0.289-0.898,0.43-1.351c0.134-0.449,0.264-0.883,0.378-1.299
				c0.119-0.419,0.223-0.794,0.319-1.121H24.71z"/>
			<path fill="#236FB7" d="M33.635,4.606c1.34,0,2.363,0.226,3.08,0.671c0.717,0.449,1.076,1.177,1.076,2.193
				c0,1.024-0.363,1.763-1.092,2.219c-0.719,0.453-1.758,0.683-3.102,0.683h-0.631v2.85h-2.019V4.829
				c0.438-0.082,0.905-0.141,1.396-0.171C32.834,4.625,33.264,4.606,33.635,4.606z M33.768,6.242c-0.148,0-0.293,0.004-0.434,0.011
				c-0.145,0.007-0.264,0.015-0.367,0.026v2.457h0.631c0.697,0,1.225-0.089,1.58-0.271c0.35-0.178,0.527-0.516,0.527-1.009
				c0-0.238-0.045-0.431-0.133-0.586c-0.09-0.156-0.223-0.282-0.391-0.375c-0.166-0.093-0.375-0.16-0.611-0.197
				C34.324,6.261,34.059,6.242,33.768,6.242z"/>
			<path fill="#236FB7" d="M46.088,4.706v1.637h-2.701v6.88h-2.018v-6.88h-2.703V4.706H46.088z"/>
		</g>
	</g>
</g>
</svg>
