<?xml version="1.0" encoding="utf-8"?>
<!-- Generator: Adobe Illustrator 16.0.0, SVG Export Plug-In . SVG Version: 6.00 Build 0)  -->
<!DOCTYPE svg PUBLIC "-//W3C//DTD SVG 1.1//EN" "http://www.w3.org/Graphics/SVG/1.1/DTD/svg11.dtd">
<svg version="1.1" id="图层_1" xmlns="http://www.w3.org/2000/svg" xmlns:xlink="http://www.w3.org/1999/xlink" x="0px" y="0px"
	 width="64px" height="64px" viewBox="0 0 64 64" enable-background="new 0 0 64 64" xml:space="preserve">
<g id="surface1_1_">
	<polygon opacity="0.08" enable-background="new    " points="9.25,64 9.25,2 56.75,2 56.75,46.516 39.266,64 	"/>
	<polygon opacity="0.1" enable-background="new    " points="10.25,63 10.25,3 55.75,3 55.75,46.102 38.852,63 	"/>
	<polygon opacity="0.2" enable-background="new    " points="9.25,62 9.25,2 54.75,2 54.75,45.102 37.852,62 	"/>
	<g>
		
			<linearGradient id="SVGID_1_" gradientUnits="userSpaceOnUse" x1="198.4004" y1="1614.9609" x2="198.4004" y2="1556.9609" gradientTransform="matrix(1 0 0 1 -166.4004 -1553.9609)">
			<stop  offset="0" style="stop-color:#512DA8"/>
			<stop  offset="0.008" style="stop-color:#512DA8"/>
			<stop  offset="0.0504" style="stop-color:#5733AB"/>
			<stop  offset="0.2927" style="stop-color:#7250BA"/>
			<stop  offset="0.5337" style="stop-color:#8564C4"/>
			<stop  offset="0.771" style="stop-color:#9171CB"/>
			<stop  offset="1" style="stop-color:#9575CD"/>
		</linearGradient>
		<path fill="url(#SVGID_1_)" d="M37.438,61L53.75,44.688V3h-43.5v58H37.438z"/>
		<polygon fill="#512DA8" fill-opacity="0.3922" points="36.531,43.781 36.531,61 37.438,61 53.75,44.688 53.75,43.781 		"/>
		<path fill="#FFFFFF" fill-opacity="0.3922" d="M37.438,44.688h16.299L37.438,61V44.688z"/>
		<path opacity="0.8" fill="#FFFFFF" d="M30.789,17.499h2.422c3.625,0,4.227,4.255,4.227,4.255v4.228
			c0,1.426-3.023,4.329-3.023,4.329v1.423l4.836,2.804v2.85l-7.852,0.05H24.75v-2.846l4.836-2.851v-1.423
			c0,0-3.03-2.889-3.023-4.315v-4.227C26.563,21.775,27.164,17.499,30.789,17.499z"/>
		<g>
			<path fill="#311B92" d="M53.25,3.5v40.98L37.23,60.5H24.75h-14v-57H53.25 M53.75,3h-43.5v58h14.5h12.688L53.75,44.688V3L53.75,3z
				"/>
		</g>
	</g>
</g>
</svg>
