<?xml version="1.0" encoding="utf-8"?>
<!-- Generator: Adobe Illustrator 21.0.0, SVG Export Plug-In . SVG Version: 6.00 Build 0)  -->
<svg version="1.1" id="图层_39" xmlns="http://www.w3.org/2000/svg" xmlns:xlink="http://www.w3.org/1999/xlink" x="0px" y="0px"
	 viewBox="0 0 64 64" style="enable-background:new 0 0 64 64;" xml:space="preserve">
<style type="text/css">
	.st0{opacity:0.1;enable-background:new    ;}
	.st1{opacity:0.08;enable-background:new    ;}
	.st2{opacity:0.2;enable-background:new    ;}
	.st3{fill:#F57F17;}
	.st4{fill:url(#SVGID_1_);}
	.st5{fill:url(#rect2990_1_);}
	.st6{opacity:0.25;fill:#FDEFBA;enable-background:new    ;}
	.st7{opacity:0.1;fill:#E65100;enable-background:new    ;}
	.st8{opacity:0.05;fill:#E65100;enable-background:new    ;}
	.st9{opacity:0.39;}
</style>
<title>064folder-system</title>
<g id="_64">
	<polygon class="st0" points="3,59 3,18 6.5,18 6.5,6.5 21.5,6.5 25.5,10.5 59.5,10.5 59.5,18 63,18 63,59 	"/>
	<polygon class="st1" points="2,60 2,17 5.5,17 5.5,6 22.5,6 26,9.5 60.5,9.5 60.5,17 64,17 64,60 	"/>
	<polygon class="st2" points="2,58 2,17 5.5,17 5.5,6 21,6 24.5,9.5 58.5,9.5 58.5,17 62,17 62,58 	"/>
	<polygon class="st3" points="3,57 3,18 6.5,18 6.5,7 20.5,7 24,10.5 57.5,10.5 57.5,18 61,18 61,57 	"/>
	
		<linearGradient id="SVGID_1_" gradientUnits="userSpaceOnUse" x1="-636" y1="910.32" x2="-636" y2="917.25" gradientTransform="matrix(2 0 0 -2 1304 1842)">
		<stop  offset="0" style="stop-color:#F57C00"/>
		<stop  offset="0.16" style="stop-color:#F58F09"/>
		<stop  offset="0.36" style="stop-color:#F59D11"/>
		<stop  offset="0.6" style="stop-color:#F5A515"/>
		<stop  offset="0.99" style="stop-color:#F5A816"/>
	</linearGradient>
	<path class="st4" d="M57,11H23.5L20,7.5H7v12c0,1.1,0.9,1.9,1.9,1.9l0,0h46.2c1,0,1.9,0.1,1.9-0.9V11z"/>
	
		<linearGradient id="rect2990_1_" gradientUnits="userSpaceOnUse" x1="-636" y1="911.75" x2="-636" y2="892.75" gradientTransform="matrix(2 0 0 -2 1304 1842)">
		<stop  offset="0" style="stop-color:#FADD60"/>
		<stop  offset="0.99" style="stop-color:#F5A816"/>
	</linearGradient>
	<polyline id="rect2990" class="st5" points="60.5,18.5 60.5,56.5 3.5,56.5 3.5,18.5 	"/>
	<path id="rect3004" class="st6" d="M3.5,18.5v8c0-2.7,1.7-5,3.8-5h49.4c2.1,0,3.8,2.3,3.8,5v-8H3.5z"/>
	<path id="path3801" class="st7" d="M7,7.7V11c0-1.7,1.1-1.7,2.1-1.7h10.3c0.9-0.1,1.9,0.2,2.6,0.7c0.5,0.3,0.9,0.7,1.5,1L20,7.5H7
		V7.7z"/>
	<polygon class="st7" points="23.5,11 57,11 57,14 26.5,14 	"/>
	<rect x="7" y="16.5" class="st8" width="50" height="2"/>
</g>
<g id="_256">
	<g class="st9">
		<path class="st3" d="M32.1,45.3c-3.5,0-6.3-2.8-6.3-6.3s2.8-6.3,6.3-6.3s6.3,2.8,6.3,6.3l0,0C38.4,42.5,35.6,45.3,32.1,45.3z
			 M32.1,34.1c-2.7,0-4.8,2.2-4.8,4.8c0,2.7,2.2,4.8,4.8,4.8s4.8-2.1,4.8-4.8C36.9,36.3,34.8,34.1,32.1,34.1L32.1,34.1z"/>
	</g>
	<g class="st9">
		<path class="st3" d="M35.4,53l-3.6-3.1l-3,3.1l-4.2-1.5v-4.7l-4.5-0.2l-2.1-4l3.2-3.6L18,36l2.1-5.2l4.6,0.7l-0.1-4.3l4-2.2
			l3.2,3.4l3.4-3.3l4.9,1.9v4.5l4.7,0.3l1.3,4.7l-3.3,3.1l3.3,2.9l-2,4.5h-4.5v4.3L35.4,53z M26.2,50.5l2.3,0.8l3.3-3.5l4,3.5l2.4-1
			v-4.8h5l1.1-2.8l-3.8-3.2l3.8-3.6l-0.8-2.8l-5-0.3v-4.9l-3-1.1l-3.8,3.7l-3.5-3.6L26,28.1l0.2,5.2L21,32.5l-1.2,3.2l3.5,3.3
			l-3.5,3.9l1.2,2.3l5.1,0.2L26.2,50.5z"/>
	</g>
</g>
</svg>
