<?xml version="1.0" encoding="utf-8"?>
<!-- Generator: Adobe Illustrator 21.0.0, SVG Export Plug-In . SVG Version: 6.00 Build 0)  -->
<svg version="1.1" id="图层_39" xmlns="http://www.w3.org/2000/svg" xmlns:xlink="http://www.w3.org/1999/xlink" x="0px" y="0px"
	 viewBox="0 0 64 64" style="enable-background:new 0 0 64 64;" xml:space="preserve">
<style type="text/css">
	.st0{opacity:0.08;enable-background:new    ;}
	.st1{opacity:0.1;enable-background:new    ;}
	.st2{opacity:0.2;enable-background:new    ;}
	.st3{fill:#90A4AE;}
	.st4{fill:url(#SVGID_1_);}
	.st5{fill:#CFD8DC;}
	.st6{fill:#FF6E40;}
	.st7{fill:url(#rect3000_1_);}
	.st8{fill:url(#rect2998_1_);}
	.st9{fill:url(#rect2992_1_);}
	.st10{fill:#BBDEFB;}
	.st11{fill:#FF8A65;}
	.st12{fill:#F5F5F5;}
</style>
<title>064network-server</title>
<rect x="2" y="4.5" class="st0" width="62" height="57"/>
<rect x="3" y="5.5" class="st1" width="60" height="55"/>
<rect x="2" y="4.5" class="st2" width="60" height="55"/>
<rect x="3" y="5.5" class="st3" width="58" height="53"/>
<linearGradient id="SVGID_1_" gradientUnits="userSpaceOnUse" x1="32" y1="2586.72" x2="32" y2="2638.72" gradientTransform="matrix(1 0 0 1 0 -2580.72)">
	<stop  offset="0" style="stop-color:#FFFFFF"/>
	<stop  offset="0.53" style="stop-color:#ECECEC"/>
	<stop  offset="1" style="stop-color:#E0E0E0"/>
</linearGradient>
<rect x="3.5" y="6" class="st4" width="57" height="52"/>
<polygon class="st5" points="6.8,53.6 6.8,41 30.1,41 30.1,38.3 6.8,38.3 6.8,25.7 30.1,25.7 30.1,23 6.8,23 6.8,10.4 57.2,10.4 
	57.2,23 33.9,23 33.9,25.7 57.2,25.7 57.2,38.3 33.9,38.3 33.9,41 57.2,41 57.2,53.6 "/>
<rect id="rect3804" x="30.6" y="36" class="st6" width="2.8" height="6.6"/>
<rect id="rect3802" x="30.6" y="20.7" class="st6" width="2.8" height="6.6"/>
<linearGradient id="rect3000_1_" gradientUnits="userSpaceOnUse" x1="32" y1="2622.1499" x2="32" y2="2633.9302" gradientTransform="matrix(1 0 0 1 0 -2580.72)">
	<stop  offset="0" style="stop-color:#4FC3F7"/>
	<stop  offset="0.11" style="stop-color:#3EBDF6"/>
	<stop  offset="0.32" style="stop-color:#24B4F5"/>
	<stop  offset="0.53" style="stop-color:#12AEF5"/>
	<stop  offset="0.76" style="stop-color:#07AAF4"/>
	<stop  offset="1" style="stop-color:#03A9F4"/>
</linearGradient>
<rect id="rect3000" x="7.3" y="41.4" class="st7" width="49.4" height="11.8"/>
<linearGradient id="rect2998_1_" gradientUnits="userSpaceOnUse" x1="32" y1="2618.6199" x2="32" y2="2606.8398" gradientTransform="matrix(1 0 0 1 0 -2580.72)">
	<stop  offset="0" style="stop-color:#E64A19"/>
	<stop  offset="0.22" style="stop-color:#F04F1D"/>
	<stop  offset="0.59" style="stop-color:#FB5521"/>
	<stop  offset="1" style="stop-color:#FF5722"/>
</linearGradient>
<rect id="rect2998" x="7.3" y="26.1" class="st8" width="49.4" height="11.8"/>
<linearGradient id="rect2992_1_" gradientUnits="userSpaceOnUse" x1="32" y1="2591.54" x2="32" y2="2603.3198" gradientTransform="matrix(1 0 0 1 0 -2580.72)">
	<stop  offset="0" style="stop-color:#4FC3F7"/>
	<stop  offset="0.11" style="stop-color:#3EBDF6"/>
	<stop  offset="0.32" style="stop-color:#24B4F5"/>
	<stop  offset="0.53" style="stop-color:#12AEF5"/>
	<stop  offset="0.76" style="stop-color:#07AAF4"/>
	<stop  offset="1" style="stop-color:#03A9F4"/>
</linearGradient>
<rect id="rect2992" x="7.3" y="10.8" class="st9" width="49.4" height="11.8"/>
<rect id="rect3806" x="10.8" y="14.3" class="st10" width="24.7" height="4.7"/>
<path id="path3808" class="st10" d="M44.9,16.7c0,1.3-1,2.4-2.3,2.4c0,0,0,0-0.1,0c-1.3,0.1-2.3-0.9-2.4-2.2c0-0.1,0-0.1,0-0.2
	c-0.1-1.3,0.9-2.3,2.2-2.4c0.1,0,0.1,0,0.2,0C43.8,14.3,44.9,15.3,44.9,16.7L44.9,16.7z"/>
<path id="path3810" class="st10" d="M53.2,16.7c0,1.3-1,2.4-2.3,2.4c0,0,0,0-0.1,0c-1.3,0.1-2.3-0.9-2.4-2.2c0-0.1,0-0.1,0-0.2
	c-0.1-1.3,0.9-2.3,2.2-2.4c0.1,0,0.1,0,0.2,0C52.1,14.3,53.2,15.4,53.2,16.7z"/>
<rect id="rect3812" x="10.8" y="44.9" class="st10" width="24.7" height="4.7"/>
<path id="path3814" class="st10" d="M44.9,47.3c0,1.3-1,2.4-2.3,2.4c0,0,0,0-0.1,0c-1.3,0-2.4-1.1-2.4-2.4c0-1.3,1.1-2.4,2.4-2.4
	l0,0C43.8,44.9,44.9,45.9,44.9,47.3L44.9,47.3z"/>
<path id="path3816" class="st10" d="M53.2,47.3c0,1.3-1,2.4-2.3,2.4c0,0,0,0-0.1,0c-1.3,0-2.4-1.1-2.4-2.4c0-1.3,1.1-2.4,2.4-2.4
	l0,0C52.1,44.9,53.2,45.9,53.2,47.3L53.2,47.3z"/>
<rect id="rect3818" x="10.8" y="29.6" class="st11" width="24.7" height="4.7"/>
<path id="path3820" class="st11" d="M44.9,32c0,1.3-1,2.4-2.3,2.4c0,0,0,0-0.1,0c-1.3,0.1-2.3-0.9-2.4-2.2c0-0.1,0-0.1,0-0.2
	c0-1.3,1.1-2.4,2.4-2.4C43.8,29.6,44.9,30.7,44.9,32z"/>
<path id="path3822" class="st11" d="M53.2,32c0,1.3-1,2.4-2.3,2.4c0,0,0,0-0.1,0c-1.3,0.1-2.3-0.9-2.4-2.2c0-0.1,0-0.1,0-0.2
	c0-1.3,1.1-2.4,2.4-2.4C52.1,29.6,53.2,30.7,53.2,32z"/>
<rect x="10.8" y="14.8" class="st12" width="24.7" height="4.3"/>
<path class="st12" d="M42.6,14.8c-1.2,0-2.2,0.9-2.4,2.1c0.1,1.2,1.2,2.1,2.4,2.1s2.3-0.9,2.4-2.1C44.8,15.7,43.8,14.8,42.6,14.8z"
	/>
<path class="st12" d="M50.8,14.8c-1.2,0-2.2,0.9-2.4,2.1c0.1,1.2,1.2,2.1,2.4,2.1s2.3-0.9,2.4-2.1C53.1,15.7,52,14.8,50.8,14.8z"/>
<rect x="10.8" y="30.1" class="st12" width="24.7" height="4.3"/>
<path class="st12" d="M42.6,30.1c-1.2,0-2.2,0.9-2.4,2.1c0.1,1.2,1.2,2.1,2.4,2.1s2.3-0.9,2.4-2.1C44.8,31,43.8,30.1,42.6,30.1z"/>
<path class="st12" d="M50.8,30.1c-1.2,0-2.2,0.9-2.4,2.1c0.1,1.2,1.2,2.1,2.4,2.1s2.3-0.9,2.4-2.1C53.1,31,52,30.1,50.8,30.1z"/>
<rect x="10.8" y="45.4" class="st12" width="24.7" height="4.3"/>
<path class="st12" d="M42.6,45.4c-1.2,0-2.2,0.9-2.4,2.1c0.1,1.2,1.2,2.1,2.4,2.1s2.3-0.9,2.4-2.1C44.8,46.3,43.8,45.4,42.6,45.4z"
	/>
<path class="st12" d="M50.8,45.4c-1.2,0-2.2,0.9-2.4,2.1c0.1,1.2,1.2,2.1,2.4,2.1s2.3-0.9,2.4-2.1C53.1,46.3,52,45.4,50.8,45.4z"/>
</svg>
