<?xml version="1.0" encoding="iso-8859-1"?>
<!-- Generator: Adobe Illustrator 24.0.0, SVG Export Plug-In . SVG Version: 6.00 Build 0)  -->
<svg version="1.1" id="&#x56FE;&#x5C42;_8" xmlns="http://www.w3.org/2000/svg" xmlns:xlink="http://www.w3.org/1999/xlink" x="0px"
	 y="0px" viewBox="0 0 16 16" style="enable-background:new 0 0 16 16;" xml:space="preserve">
<title>16</title>
<g id="_16">
	<rect x="10" y="11" style="fill:#808080;" width="1" height="3"/>
	<rect x="10" y="9" style="fill:#808080;" width="1" height="1"/>
	<path style="fill:#808080;" d="M10.56,8c1.894-0.007,3.436,1.523,3.442,3.418c0,0.048-0.001,0.095-0.002,0.142
		c-0.033,1.933-1.627,3.472-3.56,3.439c-1.933-0.033-3.472-1.627-3.439-3.56C7.034,9.507,8.628,7.967,10.56,8 M10.56,7
		c-2.485-0.033-4.526,1.955-4.559,4.44c-0.033,2.485,1.955,4.526,4.44,4.559c2.485,0.033,4.526-1.954,4.559-4.439
		c0.083-2.434-1.823-4.475-4.257-4.558C10.682,7,10.621,7,10.56,7z"/>
	<path style="fill:none;stroke:#808080;stroke-linecap:round;stroke-miterlimit:10;" d="M5.5,14.5h-2c-0.552,0-1-0.448-1-1v-11
		c0-0.552,0.448-1,1-1h5.59c0.262,0.001,0.514,0.105,0.7,0.29l2.42,2.42c0.185,0.186,0.289,0.438,0.29,0.7V6.5"/>
	<line style="fill:none;stroke:#808080;stroke-miterlimit:10;" x1="9.5" y1="2" x2="9.5" y2="5"/>
	<line style="fill:none;stroke:#808080;stroke-miterlimit:10;" x1="12" y1="4.5" x2="9" y2="4.5"/>
</g>
</svg>
