<?xml version="1.0" encoding="utf-8"?>
<!-- Generator: Adobe Illustrator 25.0.0, SVG Export Plug-In . SVG Version: 6.00 Build 0)  -->
<svg version="1.1" id="图层_12" xmlns="http://www.w3.org/2000/svg" xmlns:xlink="http://www.w3.org/1999/xlink" x="0px" y="0px"
	 viewBox="0 0 16 16" style="enable-background:new 0 0 16 16;" xml:space="preserve">
<style type="text/css">
	.st0{opacity:0.75;}
	.st1{fill:#1F2022;}
</style>
<g id="_16" class="st0">
	<path class="st1" d="M10.9,7c1.3,0.1,2.4,0.8,3.1,1.9V9h-2V8H4v1H2V8.8c0.1-0.3,0.3-0.5,0.5-0.7C3.2,7.4,4.1,7,5.1,7H10.9 M10.9,6
		H5.1C3.9,6,2.7,6.5,1.8,7.4C1.5,7.7,1.3,8,1.1,8.4C1,8.5,1,8.7,1,8.8V10h4V9h6v1h4V8.9c0-0.2,0-0.4-0.1-0.5C14,7,12.5,6.1,10.9,6
		L10.9,6z"/>
</g>
</svg>
