<?xml version="1.0" encoding="utf-8"?>
<!-- Generator: Adobe Illustrator 24.0.0, SVG Export Plug-In . SVG Version: 6.00 Build 0)  -->
<svg version="1.1" id="图层_2_1_" xmlns="http://www.w3.org/2000/svg" xmlns:xlink="http://www.w3.org/1999/xlink" x="0px"
	 y="0px" viewBox="0 0 16 16" style="enable-background:new 0 0 16 16;" xml:space="preserve">
<style type="text/css">
	.st0{opacity:0.75;}
	.st1{fill:#1F2022;enable-background:new    ;}
</style>
<g class="st0">
	<path class="st1" d="M12,2H6V1H4v1C2.3,2,1,3.3,1,5v6c0,1.7,1.3,3,3,3h8c1.6,0,3-1.4,3-3V5C15,3.4,13.6,2,12,2z M14,11
		c0,1.1-0.9,2-2,2H4c-1.1,0-2-0.9-2-2V5c0-1.1,0.9-2,2-2h8c1.1,0,2,0.9,2,2V11z"/>
	<path class="st1" d="M8,4C5.8,4,4,5.8,4,8s1.8,4,4,4s4-1.8,4-4S10.2,4,8,4z M8,11c-1.7,0-3-1.3-3-3s1.3-3,3-3s3,1.3,3,3
		S9.7,11,8,11z"/>
	<circle class="st1" cx="8" cy="8" r="1"/>
	<circle class="st1" cx="12.5" cy="4.5" r="0.5"/>
</g>
</svg>
