<svg id="图层_2" data-name="图层 2" xmlns="http://www.w3.org/2000/svg" viewBox="0 0 16 16"><defs><style>.cls-1{opacity:0.75;}.cls-2{fill:#1f2022;}</style></defs><title>color-select-symbolic</title><g id="layer1" class="cls-1"><path id="path4746" class="cls-2" d="M14.47,1c-.1,0-.31.1-.31.2l-.51.5a.89.89,0,0,0-.71-.1,1.27,1.27,0,0,0-1,.5L10.28,3.7l-.91-.9A.59.59,0,0,0,9,2.6a.49.49,0,0,0-.51.49.51.51,0,0,0,.2.41l.92.9L3.35,10.5a1.23,1.23,0,0,0-.41,1.3v.6L1,14.3l.71.7,1.94-1.9h.51a1.52,1.52,0,0,0,1.33-.4l6.22-6.1.92.9a.5.5,0,0,0,.72-.7h0l-.92-.9,1.63-1.6a1.35,1.35,0,0,0,.31-1.7l.51-.5C15.18,1.5,14.88,1,14.47,1ZM10.28,4.9l.72.7L7.53,9H6.1Z"/></g></svg>