<?xml version="1.0" encoding="utf-8"?>
<!-- Generator: Adobe Illustrator 24.0.0, SVG Export Plug-In . SVG Version: 6.00 Build 0)  -->
<svg version="1.1" id="document-add" xmlns="http://www.w3.org/2000/svg" xmlns:xlink="http://www.w3.org/1999/xlink" x="0px"
	 y="0px" viewBox="0 0 16 16" style="enable-background:new 0 0 16 16;" xml:space="preserve">
<style type="text/css">
	.st0{opacity:0.75;}
	.st1{fill:#1F2022;enable-background:new    ;}
</style>
<title>document-new-symbolic</title>
<g class="st0">
	<polygon class="st1" points="12,12 12,9 11,9 11,12 8,12 8,13 11,13 11,16 12,16 12,13 15,13 15,12 	"/>
	<rect x="4" y="8" class="st1" width="4" height="1"/>
	<rect x="4" y="5" class="st1" width="4" height="1"/>
	<path class="st1" d="M2,14V2c0-0.6,0.4-1,1-1h6v4h4v4h1V4.8c0-0.3-0.1-0.6-0.3-0.8L13,3.3L10.7,1l-0.6-0.6C9.9,0.1,9.5,0,9.2,0H3
		C1.9,0,1,0.9,1,2v12c0,1.1,0.9,2,2,2h3v-1H3C2.4,15,2,14.6,2,14z M12.3,4H10V1.7L12.3,4z"/>
</g>
</svg>
