<?xml version="1.0" encoding="utf-8"?>
<!-- Generator: Adobe Illustrator 24.0.0, SVG Export Plug-In . SVG Version: 6.00 Build 0)  -->
<svg version="1.1" id="图层_2_1_" xmlns="http://www.w3.org/2000/svg" xmlns:xlink="http://www.w3.org/1999/xlink" x="0px"
	 y="0px" viewBox="0 0 16 16" style="enable-background:new 0 0 16 16;" xml:space="preserve">
<style type="text/css">
	.st0{opacity:0.75;}
	.st1{fill:#1F2022;}
	.st2{fill:#FFFFFF;}
</style>
<g class="st0">
	<g>
		<path class="st1" d="M6.5,15.5c-1.2,0-2-0.8-2-2h-1c-1.7,0-3-1.3-3-3v-3c0-1.3,0.8-2.4,2-2.8V3.5c0-1.7,1.3-3,3-3h5
			c1.7,0,3,1.3,3,3v1.2c1.2,0.4,2,1.5,2,2.8v3c0,1.7-1.3,3-3,3h-1c0,1.2-0.8,2-2,2H6.5z M6.5,13.5L6.5,13.5z M12.5,9.5v2
			c0.5,0,1-0.5,1-1v-3c0-0.5-0.5-1-1-1h-9c-0.5,0-1,0.5-1,1v3c0,0.5,0.5,1,1,1v-2H12.5z M4.5,3.5h7c0-0.5-0.5-1-1-1h-5
			C5,2.5,4.5,3,4.5,3.5v1V3.5z"/>
		<path class="st2" d="M10.5,1C11.9,1,13,2.1,13,3.5v1.6c1.1,0.2,2,1.2,2,2.4v3c0,1.4-1.1,2.5-2.5,2.5H11v0.5c0,0.9-0.6,1.5-1.5,1.5
			h-3C5.6,15,5,14.4,5,13.5V13H3.5C2.1,13,1,11.9,1,10.5v-3c0-1.2,0.9-2.2,2-2.4V3.5C3,2.1,4.1,1,5.5,1H10.5 M4,5h1V4h6v1h1V3.5
			C12,2.7,11.3,2,10.5,2h-5C4.7,2,4,2.7,4,3.5V5 M3.5,12H4v-2h8v2h0.5c0.8,0,1.5-0.7,1.5-1.5v-3C14,6.7,13.3,6,12.5,6h-9
			C2.7,6,2,6.7,2,7.5v3C2,11.3,2.7,12,3.5,12 M6.5,14h3c0.3,0,0.5-0.2,0.5-0.5V13H6v0.5C6,13.8,6.2,14,6.5,14 M10.5,0h-5
			C3.5,0,2,1.5,2,3.5v0.9C0.8,4.9,0,6.2,0,7.5v3c0,2,1.5,3.5,3.5,3.5H4c0.2,1.2,1.2,2,2.5,2h3c1.3,0,2.2-0.8,2.5-2h0.5
			c2,0,3.5-1.5,3.5-3.5v-3c0-1.3-0.8-2.6-2-3.1V3.5C14,1.5,12.5,0,10.5,0L10.5,0z M5.5,3h5H5.5L5.5,3z M3,10.5v-3C3,7.3,3.3,7,3.5,7
			h9C12.7,7,13,7.3,13,7.5V9h-1H4H3v1V10.5L3,10.5z"/>
	</g>
</g>
</svg>
