<?xml version="1.0" encoding="iso-8859-1"?>
<!-- Generator: Adobe Illustrator 24.0.0, SVG Export Plug-In . SVG Version: 6.00 Build 0)  -->
<svg version="1.1" id="&#x56FE;&#x5C42;_19" xmlns="http://www.w3.org/2000/svg" xmlns:xlink="http://www.w3.org/1999/xlink"
	 x="0px" y="0px" viewBox="0 0 16 16" style="enable-background:new 0 0 16 16;" xml:space="preserve">
<title>16</title>
<g id="_16">
	<path style="fill:#808080;" d="M14.85,11.35c0.193-0.181,0.203-0.485,0.022-0.678c-0.007-0.007-0.014-0.015-0.022-0.022L12,8v2
		H7.21c-0.552,0-1,0.448-1,1l0,0c0,0.552,0.448,1,1,1H12v2L14.85,11.35z"/>
	<path style="fill:none;stroke:#808080;stroke-linecap:round;stroke-miterlimit:10;" d="M9.5,14.5h-6c-0.552,0-1-0.448-1-1v-11
		c0-0.552,0.448-1,1-1h5.59c0.262,0.001,0.514,0.105,0.7,0.29l2.42,2.42c0.185,0.186,0.289,0.438,0.29,0.7V6.5"/>
	<line style="fill:none;stroke:#808080;stroke-miterlimit:10;" x1="9.5" y1="2" x2="9.5" y2="5"/>
	<line style="fill:none;stroke:#808080;stroke-miterlimit:10;" x1="12" y1="4.5" x2="9" y2="4.5"/>
</g>
</svg>
