<?xml version="1.0" encoding="utf-8"?>
<!-- Generator: Adobe Illustrator 24.0.0, SVG Export Plug-In . SVG Version: 6.00 Build 0)  -->
<svg version="1.1" id="保存" xmlns="http://www.w3.org/2000/svg" xmlns:xlink="http://www.w3.org/1999/xlink" x="0px" y="0px"
	 viewBox="0 0 16 16" style="enable-background:new 0 0 16 16;" xml:space="preserve">
<style type="text/css">
	.st0{display:none;fill:#0046B5;}
	.st1{opacity:0.75;enable-background:new    ;}
	.st2{fill:#1F2022;}
	.st3{fill:#FFFFFF;}
</style>
<rect class="st0" width="16" height="16"/>
<g class="st1">
	<path class="st2" d="M3,15.5c-1.4,0-2.5-1.1-2.5-2.5V3c0-1.4,1.1-2.5,2.5-2.5h10c1.4,0,2.5,1.1,2.5,2.5v10c0,1.4-1.1,2.5-2.5,2.5H3
		z M12,13.5c0.3,0,0.5-0.2,0.5-0.5v-2.5h-9V13c0,0.3,0.2,0.5,0.5,0.5h0.5v-2h3v2H12z M13.5,7.5V3c0-0.3-0.2-0.5-0.5-0.5H3
		C2.7,2.5,2.5,2.7,2.5,3v4.5H13.5z"/>
	<path class="st3" d="M13,1c1.1,0,2,0.9,2,2v10c0,1.1-0.9,2-2,2H3c-1.1,0-2-0.9-2-2V3c0-1.1,0.9-2,2-2H13 M2,8h12V3c0-0.6-0.4-1-1-1
		H3C2.4,2,2,2.4,2,3V8 M4,14h1v-2h2v2h5c0.6,0,1-0.4,1-1v-3H3v3C3,13.6,3.4,14,4,14 M13,0H3C1.3,0,0,1.3,0,3v10c0,1.7,1.3,3,3,3h10
		c1.7,0,3-1.3,3-3V3C16,1.3,14.7,0,13,0L13,0z M3,3h10v4H3V3L3,3z M8,11h4v2H8v-1V11L8,11z M4,11v1v1V11L4,11z"/>
</g>
</svg>
