<?xml version="1.0" encoding="utf-8"?>
<!-- Generator: Adobe Illustrator 22.0.0, SVG Export Plug-In . SVG Version: 6.00 Build 0)  -->
<svg version="1.1" id="edit-clear-rtl-symbolic" xmlns="http://www.w3.org/2000/svg" xmlns:xlink="http://www.w3.org/1999/xlink"
	 x="0px" y="0px" viewBox="0 0 16 16" style="enable-background:new 0 0 16 16;" xml:space="preserve">
<style type="text/css">
	.st0{opacity:0.75;}
	.st1{fill:#1F2022;}
</style>
<title>edit-clear-symbolic</title>
<g class="st0">
	<path class="st1" d="M8,1c3.9,0,7,3.1,7,7s-3.1,7-7,7s-7-3.1-7-7S4.1,1,8,1 M8,0C3.6,0,0,3.6,0,8s3.6,8,8,8s8-3.6,8-8S12.4,0,8,0z"
		/>
	<polygon class="st1" points="11.4,5.3 10.6,4.6 8,7.3 5.3,4.6 4.7,5.3 7.3,8 4.7,10.6 5.3,11.3 8,8.7 10.6,11.3 11.4,10.6 8.7,8 	
		"/>
</g>
</svg>
