<?xml version="1.0" encoding="utf-8"?>
<!-- Generator: Adobe Illustrator 24.0.0, SVG Export Plug-In . SVG Version: 6.00 Build 0)  -->
<svg version="1.1" id="图层_1" xmlns="http://www.w3.org/2000/svg" xmlns:xlink="http://www.w3.org/1999/xlink" x="0px" y="0px"
	 viewBox="0 0 16 16" style="enable-background:new 0 0 16 16;" xml:space="preserve">
<style type="text/css">
	.st0{opacity:0.75;fill:#1F2022;enable-background:new    ;}
</style>
<path class="st0" d="M15.3,3.3l-1.6-1.6c-0.2-0.2-0.4-0.3-0.7-0.3s-0.5,0.1-0.7,0.3l-0.7,0.7C10.5,1.8,9.2,1.5,8,1.5
	C4.7,1.5,2.3,3.7,2,6H0l2.5,4l0.4-0.6l0.6-1L5,6H3c0.3-1.7,2.2-3.5,5-3.5c1,0,2,0.2,2.9,0.6L4.4,9.6C4.2,9.8,4,10.1,3.9,10.4
	l-0.1,0.1l-1.4,3.4c-0.1,0.3,0.1,0.7,0.5,0.7c0.1,0,0.1,0,0.2,0l3.3-1.3c0.4-0.2,0.7-0.4,1-0.7l7.9-7.9C15.7,4.3,15.7,3.7,15.3,3.3z
	 M6.7,11.9c-0.2,0.2-0.4,0.3-0.7,0.4l-2.3,0.9l0.9-2.3l0.1-0.1c0.1-0.2,0.2-0.4,0.4-0.5L13,2.4L14.6,4L6.7,11.9z"/>
</svg>
