<?xml version="1.0" encoding="iso-8859-1"?>
<!-- Generator: Adobe Illustrator 24.0.0, SVG Export Plug-In . SVG Version: 6.00 Build 0)  -->
<svg version="1.1" id="e" xmlns="http://www.w3.org/2000/svg" xmlns:xlink="http://www.w3.org/1999/xlink" x="0px" y="0px"
	 viewBox="0 0 16 16" style="enable-background:new 0 0 16 16;" xml:space="preserve">
<title>16</title>
<g id="_16">
	<rect x="1" y="6" style="fill:#808080;" width="14" height="1"/>
	<path style="fill:#808080;" d="M13,4c0.552,0,1,0.448,1,1v8c0,0.552-0.448,1-1,1H3c-0.552,0-1-0.448-1-1V5c0-0.552,0.448-1,1-1H13
		 M13,3H3C1.895,3,1,3.895,1,5v8c0,1.105,0.895,2,2,2h10c1.105,0,2-0.895,2-2V5C15,3.895,14.105,3,13,3z"/>
	<line style="fill:none;stroke:#808080;stroke-linecap:round;stroke-miterlimit:10;" x1="4.5" y1="2.5" x2="4.5" y2="4.5"/>
	<line style="fill:none;stroke:#808080;stroke-linecap:round;stroke-miterlimit:10;" x1="11.5" y1="2.5" x2="11.5" y2="4.5"/>
	<path style="fill:#808080;" d="M4,9.5c0.276,0,0.5,0.224,0.5,0.5S4.276,10.5,4,10.5S3.5,10.276,3.5,10S3.724,9.5,4,9.5 M4,9
		C3.482,8.966,3.034,9.358,3,9.876C2.997,9.917,2.997,9.959,3,10c-0.034,0.518,0.358,0.966,0.876,1C3.917,11.003,3.959,11.003,4,11
		c0.518,0.034,0.966-0.358,1-0.876C5.003,10.083,5.003,10.041,5,10c0.034-0.518-0.358-0.966-0.876-1C4.083,8.997,4.041,8.997,4,9z"
		/>
	<path style="fill:#808080;" d="M12,9.5c0.276,0,0.5,0.224,0.5,0.5s-0.224,0.5-0.5,0.5s-0.5-0.224-0.5-0.5
		c-0.029-0.247,0.147-0.471,0.394-0.5C11.929,9.496,11.965,9.496,12,9.5 M12,9c-0.518-0.034-0.966,0.358-1,0.876
		C10.997,9.917,10.997,9.959,11,10c0,0.552,0.448,1,1,1s1-0.448,1-1c0.034-0.518-0.358-0.966-0.876-1
		C12.083,8.997,12.041,8.997,12,9z"/>
	
		<line style="fill:none;stroke:#808080;stroke-width:0.5;stroke-linecap:round;stroke-miterlimit:10;" x1="7.25" y1="9.25" x2="8.75" y2="10.75"/>
	
		<line style="fill:none;stroke:#808080;stroke-width:0.5;stroke-linecap:round;stroke-miterlimit:10;" x1="8.75" y1="9.25" x2="7.25" y2="10.75"/>
</g>
</svg>
