<svg id="图层_1" data-name="图层 1" xmlns="http://www.w3.org/2000/svg" viewBox="0 0 16 16"><defs><style>.cls-1{opacity:0.75;}.cls-2{fill:#1f2022;}</style></defs><title>b-新建文件夹</title><g class="cls-1"><path class="cls-2" d="M13.5,4h-4a1.51,1.51,0,0,1-1.54-.93C7.54,2,7,1,5.67,1H2A2.23,2.23,0,0,0,0,3v9.82A2.09,2.09,0,0,0,2,15h8.45a.5.5,0,1,0,0-1H2a1.13,1.13,0,0,1-1-1.14V3c0-.67.83-1,1-1H5.67c.5,0,.87.23,1.32,1.42A2.47,2.47,0,0,0,9.46,5h4C14,5,15,5.21,15,6V9a.5.5,0,0,0,1,0V6A2.24,2.24,0,0,0,13.5,4Z"/><path class="cls-2" d="M15.5,11H13V8.5a.5.5,0,0,0-1,0V11H9.5a.5.5,0,0,0,0,1H12v2.5a.5.5,0,0,0,1,0V12h2.5a.5.5,0,0,0,0-1Z"/></g></svg>