<?xml version="1.0" encoding="utf-8"?>
<!-- Generator: Adobe Illustrator 24.0.0, SVG Export Plug-In . SVG Version: 6.00 Build 0)  -->
<svg version="1.1" id="图层_2_1_" xmlns="http://www.w3.org/2000/svg" xmlns:xlink="http://www.w3.org/1999/xlink" x="0px"
	 y="0px" viewBox="0 0 16 16" style="enable-background:new 0 0 16 16;" xml:space="preserve">
<style type="text/css">
	.st0{opacity:0.75;fill:#1F2022;enable-background:new    ;}
</style>
<path class="st0" d="M14.5,15h-13C1.2,15,1,14.8,1,14.5S1.2,14,1.5,14h13c0.3,0,0.5,0.2,0.5,0.5S14.8,15,14.5,15z"/>
<path class="st0" d="M12.5,6h-9C3.2,6,3,5.8,3,5.5S3.2,5,3.5,5h9C12.8,5,13,5.2,13,5.5S12.8,6,12.5,6z"/>
<path class="st0" d="M14.5,3h-13C1.2,3,1,2.8,1,2.5S1.2,2,1.5,2h13C14.8,2,15,2.2,15,2.5S14.8,3,14.5,3z"/>
<path class="st0" d="M14.5,9h-13C1.2,9,1,8.8,1,8.5S1.2,8,1.5,8h13C14.8,8,15,8.2,15,8.5S14.8,9,14.5,9z"/>
<path class="st0" d="M12.5,12h-9C3.2,12,3,11.8,3,11.5S3.2,11,3.5,11h9c0.3,0,0.5,0.2,0.5,0.5S12.8,12,12.5,12z"/>
</svg>
