<svg id="房子" xmlns="http://www.w3.org/2000/svg" viewBox="0 0 16 16"><defs><style>.cls-1,.cls-3{fill:#1f2022;}.cls-1,.cls-2{opacity:0.75;}</style></defs><title>go-home-symbolic</title><path class="cls-1" d="M14,8.58V14a2,2,0,0,1-2,2H4a2,2,0,0,1-2-2V8.58l1-1V14a1,1,0,0,0,1,1h8a1,1,0,0,0,1-1V7.58Z"/><polygon class="cls-1" points="10 10 10 15 9 15 9 11 7 11 7 15 6 15 6 10 10 10"/><g class="cls-2"><polygon class="cls-3" points="14 3 12 3 12 5.17 14 7.17 14 3 14 3"/></g><path class="cls-1" d="M15.78,9l-.71.7L9.42,4l-.71-.71a1,1,0,0,0-1.42,0L6.58,4,.93,9.65.22,9,5.17,4,6.59,2.58a2,2,0,0,1,2.82,0L10.83,4Z"/></svg>