<?xml version="1.0" encoding="iso-8859-1"?>
<!-- Generator: Adobe Illustrator 24.0.0, SVG Export Plug-In . SVG Version: 6.00 Build 0)  -->
<svg version="1.1" id="g" xmlns="http://www.w3.org/2000/svg" xmlns:xlink="http://www.w3.org/1999/xlink" x="0px" y="0px"
	 viewBox="0 0 16 16" style="enable-background:new 0 0 16 16;" xml:space="preserve">
<title>16</title>
<g id="_16">
	<path style="fill:#808080;" d="M5.39,6.8c0-0.9,0.1-1.6,0.7-2c0.439-0.313,0.961-0.487,1.5-0.5c0.541-0.003,1.069,0.173,1.5,0.5
		c0.463,0.357,0.724,0.916,0.7,1.5c-0.026,0.702-0.354,1.358-0.9,1.8C8.596,8.374,8.328,8.676,8.09,9
		c-0.114,0.322-0.182,0.659-0.2,1H7c0.018-0.407,0.085-0.81,0.2-1.2c0.183-0.392,0.458-0.735,0.8-1l0.1-0.1c0.6-0.5,0.8-0.9,0.7-1.3
		c0.002-0.681-0.521-1.248-1.2-1.3H7.5c-0.9,0-1.4,0.6-1.4,1.7H5.39z"/>
	<rect x="6.99" y="11" style="fill:#808080;" width="1" height="1"/>
	<path style="fill:#808080;" d="M8,2c3.28-0.033,5.967,2.599,6,5.879C14,7.92,14,7.96,14,8c0.033,3.28-2.599,5.967-5.879,6
		C8.08,14,8.04,14,8,14c-3.28,0.033-5.967-2.599-6-5.879C2,8.08,2,8.04,2,8C1.967,4.72,4.599,2.033,7.879,2C7.92,2,7.96,2,8,2 M8,1
		C4.134,1,1,4.134,1,8s3.134,7,7,7s7-3.134,7-7S11.866,1,8,1z"/>
</g>
</svg>
