<?xml version="1.0" encoding="utf-8"?>
<!-- Generator: Adobe Illustrator 25.0.0, SVG Export Plug-In . SVG Version: 6.00 Build 0)  -->
<svg version="1.1" id="i" xmlns="http://www.w3.org/2000/svg" xmlns:xlink="http://www.w3.org/1999/xlink" x="0px" y="0px"
	 viewBox="0 0 16 16" style="enable-background:new 0 0 16 16;" xml:space="preserve">
<style type="text/css">
	.st0{opacity:0.75;fill:#1F2022;enable-background:new    ;}
	.st1{fill:#CE1B1B;}
	.st2{fill:#FFFFFF;}
</style>
<g id="_16">
	<path class="st0" d="M8,5.5c2.2,0.1,4.2,1,5.8,2.5c-1.6,1.5-3.6,2.4-5.8,2.5c-2.2-0.1-4.2-1-5.8-2.5C3.8,6.5,5.8,5.6,8,5.5 M8,4.5
		c-3.9,0-7,3-7,3.5s3.1,3.5,7,3.5s7-3,7-3.5S11.9,4.5,8,4.5z"/>
	<path class="st1" d="M8,5.5C6.6,5.5,5.5,6.6,5.5,8s1.1,2.5,2.5,2.5s2.5-1.1,2.5-2.5S9.4,5.5,8,5.5L8,5.5z"/>
	<circle class="st2" cx="8" cy="8" r="1"/>
</g>
</svg>
