<?xml version="1.0" encoding="iso-8859-1"?>
<!-- Generator: Adobe Illustrator 24.0.0, SVG Export Plug-In . SVG Version: 6.00 Build 0)  -->
<svg version="1.1" id="h" xmlns="http://www.w3.org/2000/svg" xmlns:xlink="http://www.w3.org/1999/xlink" x="0px" y="0px"
	 viewBox="0 0 16 16" style="enable-background:new 0 0 16 16;" xml:space="preserve">
<title>16</title>
<g id="_16">
	<path style="fill:#808080;" d="M12,5.83c0.004-0.481-0.175-0.946-0.5-1.3c-0.73-0.709-1.89-0.709-2.62,0l-7.35,7.33
		c-0.698,0.746-0.659,1.917,0.087,2.615C2.33,15.142,3.439,15.14,4.15,14.47l3-3l0,0l4.35-4.33C11.827,6.783,12.005,6.314,12,5.83z
		 M1.93,14.07c-0.445-0.372-0.503-1.035-0.131-1.479c0.04-0.047,0.083-0.091,0.131-0.131l0,0l4.23-4.22
		c0.487-0.372,1.173-0.33,1.61,0.1c0.4,0.424,0.4,1.086,0,1.51l-4.13,4.22c-0.433,0.472-1.167,0.504-1.639,0.071
		C1.976,14.118,1.953,14.095,1.93,14.07z M11,6.64L8.78,8.85C8.687,8.002,8.018,7.333,7.17,7.24L9.28,5
		c0.43-0.475,1.163-0.511,1.638-0.082C10.947,4.944,10.974,4.971,11,5c0.453,0.413,0.485,1.115,0.072,1.568
		C11.049,6.593,11.025,6.617,11,6.64z"/>
	<polygon style="fill:#808080;" points="7.66,2.94 7.16,3.14 7.06,3.84 6.56,3.34 5.96,3.44 6.26,2.94 5.96,2.34 6.56,2.44 
		7.06,1.94 7.16,2.64 	"/>
	<polygon style="fill:#808080;" points="12.46,1.74 11.86,2.54 12.16,3.34 11.36,3.04 10.56,3.54 10.56,2.64 9.86,2.14 10.76,1.94 
		11.06,1.04 11.56,1.74 	"/>
	<polygon style="fill:#808080;" points="14.96,7.44 14.56,7.64 14.46,8.04 14.16,7.74 13.76,7.84 13.96,7.44 13.76,7.04 14.16,7.04 
		14.46,6.74 14.56,7.24 	"/>
</g>
</svg>
