<?xml version="1.0" encoding="utf-8"?>
<!-- Generator: Adobe Illustrator 24.0.0, SVG Export Plug-In . SVG Version: 6.00 Build 0)  -->
<svg version="1.1" id="h" xmlns="http://www.w3.org/2000/svg" xmlns:xlink="http://www.w3.org/1999/xlink" x="0px" y="0px"
	 viewBox="0 0 16 16" style="enable-background:new 0 0 16 16;" xml:space="preserve">
<style type="text/css">
	.st0{opacity:0.75;}
	.st1{fill:#1F2022;enable-background:new    ;}
</style>
<g id="_16" class="st0">
	<path class="st1" d="M11.5,15c-0.3,0-0.5-0.2-0.5-0.5v-8C11,5.7,10.3,5,9.5,5h-8C1.2,5,1,4.8,1,4.5S1.2,4,1.5,4h8
		C10.9,4,12,5.1,12,6.5v8C12,14.8,11.8,15,11.5,15z"/>
	<path class="st1" d="M9.5,12h-3C5.1,12,4,10.9,4,9.5v-3C4,6.2,4.2,6,4.5,6S5,6.2,5,6.5v3C5,10.3,5.7,11,6.5,11h3
		c0.3,0,0.5,0.2,0.5,0.5S9.8,12,9.5,12z"/>
	<path class="st1" d="M4.5,3C4.2,3,4,2.8,4,2.5v-1C4,1.2,4.2,1,4.5,1S5,1.2,5,1.5v1C5,2.8,4.8,3,4.5,3z"/>
	<path class="st1" d="M14.5,12h-1c-0.3,0-0.5-0.2-0.5-0.5s0.2-0.5,0.5-0.5h1c0.3,0,0.5,0.2,0.5,0.5S14.8,12,14.5,12z"/>
</g>
</svg>
