<svg id="图片" xmlns="http://www.w3.org/2000/svg" viewBox="0 0 16 16"><defs><style>.cls-1{fill:#1f2022;opacity:0.75;}</style></defs><title>insert-object-symbolic</title><rect class="cls-1" x="3" y="3" width="9" height="1"/><polygon class="cls-1" points="12.5 16 9 11 16 11 12.5 16"/><path class="cls-1" d="M3.5,14A1.5,1.5,0,0,1,2,12.5v-9A1.5,1.5,0,0,1,3.5,2h8A1.5,1.5,0,0,1,13,3.5V9h1V3.5A2.5,2.5,0,0,0,11.5,1h-8A2.5,2.5,0,0,0,1,3.5v9A2.5,2.5,0,0,0,3.5,15H8V14Z"/><polygon class="cls-1" points="12 5 7 5 3 5 3 9 3 13 7 13 7 9 12 9 12 5"/></svg>