<?xml version="1.0" encoding="utf-8"?>
<!-- Generator: Adobe Illustrator 24.0.0, SVG Export Plug-In . SVG Version: 6.00 Build 0)  -->
<svg version="1.1" id="图层_1" xmlns="http://www.w3.org/2000/svg" xmlns:xlink="http://www.w3.org/1999/xlink" x="0px" y="0px"
	 viewBox="0 0 16 16" style="enable-background:new 0 0 16 16;" xml:space="preserve">
<style type="text/css">
	.st0{opacity:0.75;}
	.st1{fill:#1F2022;}
</style>
<g class="st0">
	<path class="st1" d="M11,12c-3.3,0-6-2.7-6-6c0-0.9,0.2-1.8,0.6-2.7c0.2-0.4,0.5-0.9,0.8-1.2c0,0,0,0,0,0c0,0,0,0,0,0
		c-0.5,0.1-1,0.2-1.5,0.4C1.6,3.9,0,7.7,1.4,11c1,2.5,3.4,4.1,6.1,4c1.8,0,3.6-0.8,4.8-2.1c0.4-0.4,0.7-0.8,0.9-1.3
		c-0.5,0.2-0.9,0.3-1.4,0.4C11.5,12,11.3,12,11,12z M3,11.7C1.2,9.2,1.8,5.8,4.3,4c0,0,0,0,0,0c0,0,0,0,0,0.1
		C3.2,7.8,5.3,11.6,9,12.7c0.5,0.1,1,0.2,1.5,0.3C8.1,14.7,4.8,14.1,3,11.7z"/>
	<path class="st1" d="M7.5,7h0.2L7.1,8.3C7,8.4,7,8.6,7.1,8.8S7.3,9,7.5,9h1C8.8,9,9,8.8,9,8.5S8.8,8,8.5,8H8.3l0.6-1.3
		C9,6.6,9,6.4,8.9,6.2C8.8,6.1,8.7,6,8.5,6h-1C7.2,6,7,6.2,7,6.5S7.2,7,7.5,7z"/>
	<path class="st1" d="M14.5,6h-0.8l1.1-1.1C15,4.7,15,4.5,15,4.3S14.7,4,14.5,4h-2C12.2,4,12,4.2,12,4.5S12.2,5,12.5,5h0.8l-1.1,1.1
		C12,6.3,12,6.5,12,6.7S12.3,7,12.5,7h2C14.8,7,15,6.8,15,6.5S14.8,6,14.5,6z"/>
	<path class="st1" d="M10.5,9h0.8l-1.1,1.1C10,10.3,10,10.5,10,10.7s0.3,0.3,0.5,0.3h2c0.3,0,0.5-0.2,0.5-0.5S12.8,10,12.5,10h-0.8
		l1.1-1.1C13,8.7,13,8.5,13,8.3S12.7,8,12.5,8h-2C10.2,8,10,8.2,10,8.5S10.2,9,10.5,9z"/>
</g>
</svg>
