<?xml version="1.0" encoding="utf-8"?>
<!-- Generator: Adobe Illustrator 24.0.0, SVG Export Plug-In . SVG Version: 6.00 Build 0)  -->
<svg version="1.1" id="图层_2_1_" xmlns="http://www.w3.org/2000/svg" xmlns:xlink="http://www.w3.org/1999/xlink" x="0px"
	 y="0px" viewBox="0 0 16 16" style="enable-background:new 0 0 16 16;" xml:space="preserve">
<style type="text/css">
	.st0{opacity:0.75;}
	.st1{fill:#1F2022;}
</style>
<g class="st0">
	<path class="st1" d="M5.8,2.1C5.6,2,5.4,2,5.3,2.1C5.1,2.1,5,2.3,5,2.5v2L1.8,2.1C1.6,2,1.4,2,1.3,2.1C1.1,2.1,1,2.3,1,2.5v11
		c0,0.2,0.1,0.4,0.3,0.4C1.3,14,1.4,14,1.5,14c0.1,0,0.2,0,0.3-0.1L5,11.6v1.9c0,0.2,0.1,0.4,0.3,0.4C5.3,14,5.4,14,5.5,14
		c0.1,0,0.2,0,0.3-0.1l7.5-5.5c0.1-0.1,0.2-0.2,0.2-0.4s-0.1-0.3-0.2-0.4L5.8,2.1z M2,12.5v-9l3,2.2v4.6L2,12.5z M6,12.5v-9L12.2,8
		L6,12.5z"/>
	<path class="st1" d="M14.5,3C14.2,3,14,3.2,14,3.5v9c0,0.3,0.2,0.5,0.5,0.5s0.5-0.2,0.5-0.5v-9C15,3.2,14.8,3,14.5,3z"/>
</g>
</svg>
