<?xml version="1.0" encoding="iso-8859-1"?>
<!-- Generator: Adobe Illustrator 24.0.0, SVG Export Plug-In . SVG Version: 6.00 Build 0)  -->
<svg version="1.1" id="n" xmlns="http://www.w3.org/2000/svg" xmlns:xlink="http://www.w3.org/1999/xlink" x="0px" y="0px"
	 viewBox="0 0 16 16" style="enable-background:new 0 0 16 16;" xml:space="preserve">
<title>16</title>
<g id="_16">
	<path style="fill:#808080;" d="M9,5c0.552,0,1,0.448,1,1v1c0,0.552-0.448,1-1,1H7C6.448,8,6,7.552,6,7V6c0-0.552,0.448-1,1-1H9
		 M9,4H7C5.895,4,5,4.895,5,6v1c0,1.105,0.895,2,2,2h2c1.105,0,2-0.895,2-2V6C11,4.895,10.105,4,9,4z"/>
	<line style="fill:none;stroke:#808080;stroke-linecap:round;stroke-miterlimit:10;" x1="1.5" y1="6.5" x2="5.5" y2="6.5"/>
	<line style="fill:none;stroke:#808080;stroke-linecap:round;stroke-miterlimit:10;" x1="10.5" y1="6.5" x2="14.5" y2="6.5"/>
	<polygon style="fill:#DD9F07;" points="11,9 11.9,11 14,11.3 12.5,12.8 12.9,15 11,14 9.1,15 9.5,12.8 8,11.3 10.1,11 	"/>
</g>
</svg>
