<?xml version="1.0" encoding="iso-8859-1"?>
<!-- Generator: Adobe Illustrator 24.0.0, SVG Export Plug-In . SVG Version: 6.00 Build 0)  -->
<svg version="1.1" id="&#x56FE;&#x5C42;_1" xmlns="http://www.w3.org/2000/svg" xmlns:xlink="http://www.w3.org/1999/xlink" x="0px"
	 y="0px" viewBox="0 0 16 16" style="enable-background:new 0 0 16 16;" xml:space="preserve">
<title>16</title>
<g id="n">
	<g id="_16">
		<path style="fill:#808080;" d="M5.22,8.35c0.262,0.001,0.514,0.105,0.7,0.29l1.44,1.44c0.392,0.389,0.395,1.022,0.006,1.414
			C7.364,11.496,7.362,11.498,7.36,11.5l-1.44,1.4c-0.186,0.185-0.438,0.289-0.7,0.29c-0.266,0.002-0.521-0.103-0.71-0.29L3.1,11.49
			c-0.388-0.39-0.388-1.02,0-1.41l1.4-1.43C4.689,8.457,4.949,8.348,5.22,8.35 M5.22,7.35C4.675,7.363,4.158,7.597,3.79,8L2.38,9.39
			c-0.769,0.779-0.769,2.031,0,2.81l1.4,1.4c0.376,0.378,0.887,0.59,1.42,0.59c0.52-0.002,1.018-0.207,1.39-0.57l1.44-1.41
			c0.784-0.778,0.789-2.044,0.012-2.828C8.038,9.378,8.034,9.374,8.03,9.37l-1.4-1.44C6.255,7.558,5.748,7.35,5.22,7.35z"/>
		<line style="fill:none;stroke:#808080;stroke-linecap:round;stroke-miterlimit:10;" x1="7" y1="9" x2="14.5" y2="1.5"/>
	</g>
</g>
</svg>
