<?xml version="1.0" encoding="iso-8859-1"?>
<!-- Generator: Adobe Illustrator 24.0.0, SVG Export Plug-In . SVG Version: 6.00 Build 0)  -->
<svg version="1.1" id="n" xmlns="http://www.w3.org/2000/svg" xmlns:xlink="http://www.w3.org/1999/xlink" x="0px" y="0px"
	 viewBox="0 0 16 16" style="enable-background:new 0 0 16 16;" xml:space="preserve">
<title>16</title>
<g id="_16">
	
		<rect x="3.806" y="7.511" transform="matrix(0.7071 -0.7071 0.7071 0.7071 -3.3785 7.8665)" style="fill:#808080;" width="8" height="1"/>
	<path style="fill:#808080;" d="M5,11v2H3v-2H5 M5,10H3c-0.552,0-1,0.448-1,1v2c0,0.552,0.448,1,1,1h2c0.552,0,1-0.448,1-1v-2
		C6,10.448,5.552,10,5,10z"/>
	<path style="fill:#808080;" d="M13,3v2h-2V3H13 M13,2h-2c-0.552,0-1,0.448-1,1v2c0,0.552,0.448,1,1,1h2c0.552,0,1-0.448,1-1V3
		C14,2.448,13.552,2,13,2z"/>
</g>
</svg>
