<?xml version="1.0" encoding="iso-8859-1"?>
<!-- Generator: Adobe Illustrator 24.0.0, SVG Export Plug-In . SVG Version: 6.00 Build 0)  -->
<svg version="1.1" id="O" xmlns="http://www.w3.org/2000/svg" xmlns:xlink="http://www.w3.org/1999/xlink" x="0px" y="0px"
	 viewBox="0 0 16 16" style="enable-background:new 0 0 16 16;" xml:space="preserve">
<title>16</title>
<g id="_16">
	<path style="fill:#808080;" d="M11.14,2.84l1.71,10.86l-1,0.16L10.15,3l1-0.15 M12,1.69L9,2.16L11,15l3-0.46L12,1.69z"/>
	<path style="fill:#808080;" d="M10.1,9.07L11,15l3-0.46l-0.93-5.93L10.1,9.07z M12.1,12.3c-0.276,0.044-0.536-0.144-0.58-0.42
		s0.144-0.536,0.42-0.58s0.536,0.144,0.58,0.42S12.376,12.256,12.1,12.3z"/>
	<path style="fill:#808080;" d="M8,3v11H7V3H8 M9,2H6v13h3V2z"/>
	<path style="fill:#808080;" d="M6,9v6h3V9H6z M7.5,12.5C7.224,12.5,7,12.276,7,12s0.224-0.5,0.5-0.5S8,11.724,8,12
		c0.017,0.259-0.179,0.483-0.438,0.5C7.541,12.501,7.521,12.501,7.5,12.5z"/>
	<path style="fill:#808080;" d="M4,3v11H3V3H4 M5,2H2v13h3V2z"/>
	<path style="fill:#808080;" d="M2,9v6h3V9H2z M3.5,12.5C3.224,12.5,3,12.276,3,12s0.224-0.5,0.5-0.5S4,11.724,4,12
		S3.776,12.5,3.5,12.5z"/>
</g>
</svg>
