<?xml version="1.0" encoding="utf-8"?>
<!-- Generator: Adobe Illustrator 24.0.0, SVG Export Plug-In . SVG Version: 6.00 Build 0)  -->
<svg version="1.1" id="图层_2_1_" xmlns="http://www.w3.org/2000/svg" xmlns:xlink="http://www.w3.org/1999/xlink" x="0px"
	 y="0px" viewBox="0 0 16 16" style="enable-background:new 0 0 16 16;" xml:space="preserve">
<style type="text/css">
	.st0{opacity:0.75;fill:#1F2022;}
</style>
<path class="st0" d="M9,1C6.5,1,4.3,2.3,3,4.4V1.5C3,1.2,2.8,1,2.5,1S2,1.2,2,1.5v4C2,5.8,2.2,6,2.5,6h4C6.8,6,7,5.8,7,5.5
	S6.8,5,6.5,5H3.8c1.1-1.8,3-3,5.2-3c3.3,0,6,2.7,6,6c0,3.3-2.7,6-6,6c-0.6,0-1.2-0.1-1.7-0.3C7,13.6,6.7,13.8,6.6,14
	c-0.1,0.3,0.1,0.5,0.3,0.6C7.6,14.9,8.3,15,9,15c3.9,0,7-3.1,7-7S12.9,1,9,1z"/>
</svg>
