<?xml version="1.0" encoding="utf-8"?>
<!-- Generator: Adobe Illustrator 24.0.0, SVG Export Plug-In . SVG Version: 6.00 Build 0)  -->
<svg version="1.1" id="p" xmlns="http://www.w3.org/2000/svg" xmlns:xlink="http://www.w3.org/1999/xlink" x="0px" y="0px"
	 viewBox="0 0 16 16" style="enable-background:new 0 0 16 16;" xml:space="preserve">
<style type="text/css">
	.st0{opacity:0.75;fill:#1F2022;enable-background:new    ;}
	.st1{fill:#61A232;}
</style>
<g id="_16">
	<path class="st0" d="M11.5,15h-10C1.2,15,1,14.8,1,14.5v-13C1,1.2,1.2,1,1.5,1h10C11.8,1,12,1.2,12,1.5S11.8,2,11.5,2H2v12h9.5
		c0.3,0,0.5,0.2,0.5,0.5S11.8,15,11.5,15z"/>
	<path class="st1" d="M14.7,7.6l-3.8-3.8c-0.2-0.2-0.5-0.2-0.7,0C10.1,4,10,4.1,10,4.2V6H5C4.4,6,4,6.4,4,7v2c0,0.6,0.4,1,1,1h5v1.8
		c0,0.3,0.2,0.5,0.5,0.5c0.1,0,0.3-0.1,0.4-0.2l3.8-3.8C14.9,8.1,14.9,7.8,14.7,7.6z"/>
</g>
</svg>
