<svg id="bookmark_add" data-name="bookmark add" xmlns="http://www.w3.org/2000/svg" viewBox="0 0 16 16"><defs><style>.cls-1,.cls-3{fill:#1f2022;}.cls-1,.cls-2{opacity:0.75;}</style></defs><title>star-new-symbolic</title><polygon class="cls-1" points="16 13 14 13 14 11 13 11 13 13 11 13 11 14 13 14 13 16 14 16 14 14 16 14 16 13"/><g id="_16-2" data-name=" 16-2" class="cls-2"><polygon class="cls-3" points="3.46 16 4.82 9.97 0 6.02 6.03 6.02 8 0 10.21 6.02 16 6.02 11.21 10.16 10.54 9.4 13.27 7.04 9.51 7.04 8.06 3.1 6.77 7.04 2.84 7.04 5.95 9.59 5.07 13.52 7.72 11.51 8.33 12.32 3.46 16"/></g></svg>