<?xml version="1.0" encoding="iso-8859-1"?>
<!-- Generator: Adobe Illustrator 24.0.0, SVG Export Plug-In . SVG Version: 6.00 Build 0)  -->
<svg version="1.1" id="s" xmlns="http://www.w3.org/2000/svg" xmlns:xlink="http://www.w3.org/1999/xlink" x="0px" y="0px"
	 viewBox="0 0 16 16" style="enable-background:new 0 0 16 16;" xml:space="preserve">
<title>16</title>
<g id="_16">
	<polygon style="fill:#61A232;" points="8.7,6 7.3,6 12.3,11 13,10.3 	"/>
	<polygon style="fill:#61A232;" points="7.3,6 3,10.3 3.7,11 8.7,6 	"/>
	<path style="fill:#808080;" d="M10,2c0.552,0,1,0.448,1,1v2c0,0.552-0.448,1-1,1H6C5.448,6,5,5.552,5,5V3c0-0.552,0.448-1,1-1H10
		 M10,1H6C4.895,1,4,1.895,4,3v2c0,1.105,0.895,2,2,2h4c1.105,0,2-0.895,2-2V3C12,1.895,11.105,1,10,1z"/>
	<path style="fill:#808080;" d="M6,12v2H2v-2H6 M6,11H2c-0.552,0-1,0.448-1,1v2c0,0.552,0.448,1,1,1h4c0.552,0,1-0.448,1-1v-2
		C7,11.448,6.552,11,6,11z"/>
	<path style="fill:#808080;" d="M14,12v2h-4v-2H14 M14,11h-4c-0.552,0-1,0.448-1,1v2c0,0.552,0.448,1,1,1h4c0.552,0,1-0.448,1-1v-2
		C15,11.448,14.552,11,14,11z"/>
	<polygon style="fill:#61A232;" points="2,9 2,12 5,12 	"/>
	<polygon style="fill:#61A232;" points="14,9 14,12 11,12 	"/>
</g>
</svg>
