<?xml version="1.0" encoding="utf-8"?>
<!-- Generator: Adobe Illustrator 24.0.0, SVG Export Plug-In . SVG Version: 6.00 Build 0)  -->
<svg version="1.1" id="application-exit" xmlns="http://www.w3.org/2000/svg" xmlns:xlink="http://www.w3.org/1999/xlink" x="0px"
	 y="0px" viewBox="0 0 16 16" style="enable-background:new 0 0 16 16;" xml:space="preserve">
<style type="text/css">
	.st0{opacity:0.75;}
	.st1{fill:#1F2022;}
</style>
<g class="st0">
	<path class="st1" d="M12.4,11.8c-0.9,1-2.6,2.2-4.9,2.2C3.9,14,1,11.1,1,7.5S3.9,1,7.5,1c1.7,0,3.5,0.8,4.8,2.2
		c0.2,0.2,0.5,0.2,0.7,0c0.2-0.2,0.2-0.5,0-0.7C11.6,1,9.5,0,7.5,0C3.3,0,0,3.3,0,7.5S3.3,15,7.5,15c2.7,0,4.6-1.4,5.7-2.6
		c0.2-0.2,0.2-0.5,0-0.7C12.9,11.5,12.6,11.6,12.4,11.8z"/>
	<path class="st1" d="M15.8,7.1l-2.5-2c-0.2-0.2-0.5-0.1-0.7,0.1c-0.2,0.2-0.1,0.5,0.1,0.7L14.1,7H8.5C8.2,7,8,7.2,8,7.5
		S8.2,8,8.5,8h5.6l-1.4,1.1c-0.2,0.2-0.3,0.5-0.1,0.7C12.7,9.9,12.9,10,13,10c0.1,0,0.2,0,0.3-0.1l2.5-2C15.9,7.8,16,7.7,16,7.5
		S15.9,7.2,15.8,7.1z"/>
</g>
</svg>
