<?xml version="1.0" encoding="utf-8"?>
<!-- Generator: Adobe Illustrator 24.0.0, SVG Export Plug-In . SVG Version: 6.00 Build 0)  -->
<svg version="1.1" id="图层_2_1_" xmlns="http://www.w3.org/2000/svg" xmlns:xlink="http://www.w3.org/1999/xlink" x="0px"
	 y="0px" viewBox="0 0 16 16" style="enable-background:new 0 0 16 16;" xml:space="preserve">
<style type="text/css">
	.st0{opacity:0.75;fill:#1F2022;}
</style>
<path class="st0" d="M10,5.5C10,5.8,10.2,6,10.5,6h4C14.8,6,15,5.8,15,5.5v-4C15,1.2,14.8,1,14.5,1S14,1.2,14,1.5v3
	c-0.2-0.3-0.4-0.7-0.6-0.9C12.1,1.9,10.1,1,8,1C4.1,1,1,4.1,1,8s3.1,7,7,7c3.4,0,6.3-2.5,6.9-5.9c0-0.3-0.1-0.5-0.4-0.6
	c-0.3,0-0.5,0.1-0.6,0.4c-0.5,2.9-3,5.1-5.9,5.1c-3.3,0-6-2.7-6-6c0-3.3,2.7-6,6-6c1.8,0,3.5,0.8,4.6,2.3C12.8,4.4,13,4.7,13.1,5
	h-2.6C10.2,5,10,5.2,10,5.5z"/>
</svg>
