<?xml version="1.0" encoding="utf-8"?>
<!-- Generator: Adobe Illustrator 24.0.0, SVG Export Plug-In . SVG Version: 6.00 Build 0)  -->
<svg version="1.1" id="s" xmlns="http://www.w3.org/2000/svg" xmlns:xlink="http://www.w3.org/1999/xlink" x="0px" y="0px"
	 viewBox="0 0 16 16" style="enable-background:new 0 0 16 16;" xml:space="preserve">
<style type="text/css">
	.st0{fill:#61A232;}
	.st1{opacity:0.75;}
	.st2{fill:#1F2022;}
</style>
<g id="_16">
	<path class="st0" d="M13,15c-0.1,0-0.3,0-0.4-0.1L11,13.2l-1.6,1.6c-0.2,0.2-0.5,0.2-0.7,0L7,13.2l-1.6,1.6c-0.2,0.2-0.5,0.2-0.7,0
		L3,13.2l-1.6,1.6c-0.2,0.2-0.5,0.2-0.7,0s-0.2-0.5,0-0.7l2-2c0.2-0.2,0.5-0.2,0.7,0L5,13.8l1.6-1.6c0.2-0.2,0.5-0.2,0.7,0L9,13.8
		l1.6-1.6c0.2-0.2,0.5-0.2,0.7,0l1.6,1.6l1.6-1.6c0.2-0.2,0.5-0.2,0.7,0s0.2,0.5,0,0.7l-2,2C13.3,15,13.1,15,13,15z"/>
	<g class="st1">
		<path class="st2" d="M5.5,1.8c-0.2-0.4-0.8-0.4-0.9,0L1,10.4c-0.1,0.3,0,0.5,0.3,0.7c0.3,0.1,0.5,0,0.7-0.3L3.1,8h3.8L8,10.8
			c0.1,0.2,0.3,0.3,0.5,0.3c0.1,0,0.1,0,0.2,0C8.9,11,9.1,10.7,9,10.4L5.5,1.8z M3.5,7L5,3.3L6.5,7H3.5z"/>
		<path class="st2" d="M14.6,6.4c-0.8-1.3-2.3-1.8-3.6-1.3V2c0-0.3-0.2-0.5-0.5-0.5S10,1.7,10,2v8.5c0,0.3,0.2,0.5,0.5,0.5
			c0.2,0,0.4-0.1,0.5-0.3c0.4,0.1,0.7,0.2,1.1,0.2c0.5,0,1-0.1,1.5-0.4c0.7-0.4,1.2-1,1.4-1.8C15.1,7.9,15,7.1,14.6,6.4z M14,8.5
			c-0.1,0.5-0.5,0.9-0.9,1.2c-0.7,0.3-1.4,0.3-2.1,0c0,0,0,0,0,0V6.2c0,0,0,0,0.1,0C12,5.7,13.2,6,13.8,7C14,7.4,14.1,8,14,8.5z"/>
	</g>
</g>
</svg>
