<?xml version="1.0" encoding="utf-8"?>
<!-- Generator: Adobe Illustrator 24.2.1, SVG Export Plug-In . SVG Version: 6.00 Build 0)  -->
<svg version="1.1" id="图层_1" xmlns="http://www.w3.org/2000/svg" xmlns:xlink="http://www.w3.org/1999/xlink" x="0px" y="0px"
	 viewBox="0 0 16 16" style="enable-background:new 0 0 16 16;" xml:space="preserve">
<style type="text/css">
	.st0{opacity:0.8;}
	.st1{fill:#1F2022;}
</style>
<g class="st0">
	<path class="st1" d="M11,7c-2.2,0-4,1.8-4,4s1.8,4,4,4s4-1.8,4-4S13.2,7,11,7z M8,11c0-0.7,0.2-1.3,0.5-1.7l4.2,4.2
		C12.3,13.8,11.7,14,11,14C9.3,14,8,12.7,8,11z M13.5,12.7L9.3,8.5C9.7,8.2,10.3,8,11,8c1.7,0,3,1.3,3,3
		C14,11.7,13.8,12.3,13.5,12.7z"/>
	<path class="st1" d="M10.1,3.3l2.6,2.6l-0.3,0.3c0.8,0.2,1.5,0.6,2.1,1.2L15,6.9L9.1,1L8.4,1.7l1,1L5.7,6.3l-3.9,1l3.1,3.1L1,14.3
		L1.7,15l3.9-3.9L6,11.5c0-0.1,0-0.3,0-0.5c0-0.3,0-0.6,0.1-0.8L3.8,7.8l2.4-0.6L10.1,3.3z"/>
</g>
</svg>
