<?xml version="1.0" encoding="iso-8859-1"?>
<!-- Generator: Adobe Illustrator 24.0.0, SVG Export Plug-In . SVG Version: 6.00 Build 0)  -->
<svg version="1.1" id="v" xmlns="http://www.w3.org/2000/svg" xmlns:xlink="http://www.w3.org/1999/xlink" x="0px" y="0px"
	 viewBox="0 0 16 16" style="enable-background:new 0 0 16 16;" xml:space="preserve">
<title>16</title>
<g id="_16">
	<path style="fill:#808080;" d="M13,4c0.552,0,1,0.448,1,1v7c0,0.552-0.448,1-1,1H3c-0.552,0-1-0.448-1-1V5c0-0.552,0.448-1,1-1H13
		 M13,3H3C1.895,3,1,3.895,1,5v7c0,1.105,0.895,2,2,2h10c1.105,0,2-0.895,2-2V5C15,3.895,14.105,3,13,3z"/>
	<rect x="1" y="6" style="fill:#808080;" width="14" height="1"/>
	<line style="fill:none;stroke:#808080;stroke-linecap:round;stroke-miterlimit:10;" x1="4.5" y1="10.5" x2="4.5" y2="8.5"/>
	<line style="fill:none;stroke:#808080;stroke-linecap:round;stroke-miterlimit:10;" x1="7.5" y1="10.5" x2="7.5" y2="8.5"/>
	<line style="fill:none;stroke:#808080;stroke-linecap:round;stroke-miterlimit:10;" x1="10.5" y1="10.5" x2="10.5" y2="8.5"/>
	<line style="fill:none;stroke:#808080;stroke-linecap:round;stroke-miterlimit:10;" x1="3.5" y1="9.5" x2="12.5" y2="9.5"/>
	<rect x="5" y="2" style="fill:#808080;" width="1" height="3"/>
	<rect x="10" y="2" style="fill:#808080;" width="1" height="3"/>
</g>
</svg>
