<?xml version="1.0" encoding="utf-8"?>
<!-- Generator: Adobe Illustrator 24.0.0, SVG Export Plug-In . SVG Version: 6.00 Build 0)  -->
<svg version="1.1" id="v" xmlns="http://www.w3.org/2000/svg" xmlns:xlink="http://www.w3.org/1999/xlink" x="0px" y="0px"
	 viewBox="0 0 16 16" style="enable-background:new 0 0 16 16;" xml:space="preserve">
<style type="text/css">
	.st0{opacity:0.75;}
	.st1{fill:#1F2022;}
</style>
<g id="_16" class="st0">
	<path class="st1" d="M7.5,14C7.2,14,7,13.8,7,13.5v-11C7,2.2,7.2,2,7.5,2S8,2.2,8,2.5v11C8,13.8,7.8,14,7.5,14z"/>
	<path class="st1" d="M14,3v3h-3V3H14 M14,2h-3c-0.6,0-1,0.4-1,1v3c0,0.6,0.4,1,1,1h3c0.6,0,1-0.4,1-1V3C15,2.4,14.6,2,14,2z"/>
	<path class="st1" d="M14,10v3h-3v-3H14 M14,9h-3c-0.6,0-1,0.4-1,1v3c0,0.6,0.4,1,1,1h3c0.6,0,1-0.4,1-1v-3C15,9.4,14.6,9,14,9z"/>
	<path class="st1" d="M4.5,13h-3C1.2,13,1,12.8,1,12.5S1.2,12,1.5,12h3C4.8,12,5,12.2,5,12.5S4.8,13,4.5,13z"/>
	<path class="st1" d="M4.5,10h-3C1.2,10,1,9.8,1,9.5S1.2,9,1.5,9h3C4.8,9,5,9.2,5,9.5S4.8,10,4.5,10z"/>
	<path class="st1" d="M4.5,7h-3C1.2,7,1,6.8,1,6.5S1.2,6,1.5,6h3C4.8,6,5,6.2,5,6.5S4.8,7,4.5,7z"/>
	<path class="st1" d="M4.5,4h-3C1.2,4,1,3.8,1,3.5S1.2,3,1.5,3h3C4.8,3,5,3.2,5,3.5S4.8,4,4.5,4z"/>
</g>
</svg>
