<?xml version="1.0" encoding="utf-8"?>
<!-- Generator: Adobe Illustrator 24.0.0, SVG Export Plug-In . SVG Version: 6.00 Build 0)  -->
<svg version="1.1" id="图层_2_1_" xmlns="http://www.w3.org/2000/svg" xmlns:xlink="http://www.w3.org/1999/xlink" x="0px"
	 y="0px" viewBox="0 0 16 16" style="enable-background:new 0 0 16 16;" xml:space="preserve">
<style type="text/css">
	.st0{opacity:0.75;fill:#1F2022;}
	.st1{display:none;fill:none;stroke:#1F2022;stroke-linecap:round;stroke-linejoin:round;stroke-miterlimit:10;}
</style>
<path class="st0" d="M13.5,1C13.2,1,13,1.2,13,1.5v2.9C11.7,2.3,9.5,1,7,1C3.1,1,0,4.1,0,8s3.1,7,7,7c0.7,0,1.4-0.1,2.1-0.3
	c0.3-0.1,0.4-0.4,0.3-0.6c-0.1-0.3-0.4-0.4-0.6-0.3C8.2,13.9,7.6,14,7,14c-3.3,0-6-2.7-6-6c0-3.3,2.7-6,6-6c2.1,0,4.1,1.2,5.2,3H9.5
	C9.2,5,9,5.2,9,5.5S9.2,6,9.5,6H13c0,0,0,0,0,0h0.5C13.8,6,14,5.8,14,5.5v-4C14,1.2,13.8,1,13.5,1z"/>
<path class="st1" d="M13.5,8c0,0.3,0,0.7-0.1,1c-0.5,3.1-3.2,5.5-6.4,5.5c-3.6,0-6.5-2.9-6.5-6.5S3.4,1.5,7,1.5c2,0,3.8,0.9,5,2.4
	C12.9,5,13.5,6.4,13.5,8z"/>
</svg>
