<?xml version="1.0" encoding="iso-8859-1"?>
<!-- Generator: Adobe Illustrator 24.0.0, SVG Export Plug-In . SVG Version: 6.00 Build 0)  -->
<svg version="1.1" id="v" xmlns="http://www.w3.org/2000/svg" xmlns:xlink="http://www.w3.org/1999/xlink" x="0px" y="0px"
	 viewBox="0 0 16 16" style="enable-background:new 0 0 16 16;" xml:space="preserve">
<title>16</title>
<g id="_16">
	<g id="_14">
		<polyline style="fill:none;stroke:#808080;stroke-linecap:round;stroke-linejoin:round;" points="3.5,10.5 3.5,12.5 5.5,12.5 		
			"/>
		<polyline style="fill:none;stroke:#808080;stroke-linecap:round;stroke-linejoin:round;" points="10.5,12.5 12.5,12.5 12.5,10.5 
					"/>
		<polyline style="fill:none;stroke:#808080;stroke-linecap:round;stroke-linejoin:round;" points="5.5,3.5 3.5,3.5 3.5,5.5 		"/>
		<polyline style="fill:none;stroke:#808080;stroke-linecap:round;stroke-linejoin:round;" points="12.5,5.5 12.5,3.5 10.5,3.5 		
			"/>
	</g>
	<path style="fill:#808080;" d="M13,2c0.552,0,1,0.448,1,1v10c0,0.552-0.448,1-1,1H3c-0.552,0-1-0.448-1-1V3c0-0.552,0.448-1,1-1H13
		 M13,1H3C1.895,1,1,1.895,1,3v10c0,1.105,0.895,2,2,2h10c1.105,0,2-0.895,2-2V3C15,1.895,14.105,1,13,1z"/>
	<line style="fill:none;stroke:#808080;stroke-linecap:round;stroke-miterlimit:10;" x1="3.5" y1="12.5" x2="5.83" y2="10.17"/>
	<polyline style="fill:none;stroke:#808080;stroke-linecap:round;stroke-miterlimit:10;" points="3.5,3.5 3.99,3.99 5.83,5.83 	"/>
	<line style="fill:none;stroke:#808080;stroke-linecap:round;stroke-miterlimit:10;" x1="12.5" y1="3.5" x2="10.17" y2="5.83"/>
	<line style="fill:none;stroke:#808080;stroke-linecap:round;stroke-miterlimit:10;" x1="12.5" y1="12.5" x2="10.17" y2="10.17"/>
</g>
</svg>
