<?xml version="1.0" encoding="utf-8"?>
<!-- Generator: Adobe Illustrator 24.0.0, SVG Export Plug-In . SVG Version: 6.00 Build 0)  -->
<svg version="1.1" id="图层_1" xmlns="http://www.w3.org/2000/svg" xmlns:xlink="http://www.w3.org/1999/xlink" x="0px" y="0px"
	 viewBox="0 0 96 96" enable-background="new 0 0 96 96" xml:space="preserve">
<title>96</title>
<g id="WPS">
	<g id="A">
		<g id="_96">
			<g id="底色-浅橙">
				
					<linearGradient id="_48_1_" gradientUnits="userSpaceOnUse" x1="48" y1="-612" x2="48" y2="-696" gradientTransform="matrix(1 0 0 -1 0 -606)">
					<stop  offset="0" style="stop-color:#D54549"/>
					<stop  offset="1" style="stop-color:#CC353A"/>
				</linearGradient>
				<path id="_48" fill="url(#_48_1_)" d="M82,69V15c0-5-4-9-9-9H23c-5,0-9,4-9,9v66c0,5,4,9,9,9h38.2L82,69z"/>
				
					<linearGradient id="SVGID_1_" gradientUnits="userSpaceOnUse" x1="63.9195" y1="-679.1906" x2="70.5395" y2="-684.7006" gradientTransform="matrix(1 0 0 -1 0 -606)">
					<stop  offset="0" style="stop-color:#FFFFFF;stop-opacity:0.4"/>
					<stop  offset="1" style="stop-color:#FFFFFF;stop-opacity:0.2"/>
				</linearGradient>
				<path fill="url(#SVGID_1_)" d="M68,69h14L61,90V76C61,72.1,64.1,69,68,69z"/>
			</g>
			<g opacity="0.4">
				<path fill="#FFFFFF" d="M48,56c5.5,0,8.9,1.3,9.8,2c-0.9,0.7-4.3,2-9.8,2s-8.9-1.3-9.8-2C39.1,57.3,42.5,56,48,56 M48,54
					c-6.6,0-12,1.8-12,4s5.4,4,12,4s12-1.8,12-4S54.6,54,48,54z"/>
				<path fill="none" stroke="#FFFFFF" stroke-width="2" stroke-miterlimit="10" d="M37,63.3c0,2,4.9,3.7,11,3.7s11-1.6,11-3.7"/>
				<path fill="none" stroke="#FFFFFF" stroke-width="2" stroke-miterlimit="10" d="M37,69.3c0,2,4.9,3.7,11,3.7s11-1.6,11-3.7"/>
				<line fill="none" stroke="#FFFFFF" stroke-width="2" stroke-miterlimit="10" x1="59" y1="58" x2="59" y2="69.5"/>
				<line fill="none" stroke="#FFFFFF" stroke-width="2" stroke-miterlimit="10" x1="37" y1="69.5" x2="37" y2="58"/>
			</g>
			
				<line fill="none" stroke="#FFFFFF" stroke-width="4" stroke-linecap="round" stroke-miterlimit="10" x1="48" y1="20" x2="67" y2="57"/>
			
				<line fill="none" stroke="#FFFFFF" stroke-width="4" stroke-linecap="round" stroke-miterlimit="10" x1="48" y1="20" x2="29" y2="57"/>
			<line fill="none" stroke="#FFFFFF" stroke-width="4" stroke-miterlimit="10" x1="36" y1="44" x2="59" y2="44"/>
		</g>
	</g>
</g>
</svg>
