<?xml version="1.0" encoding="utf-8"?>
<!-- Generator: Adobe Illustrator 24.0.0, SVG Export Plug-In . SVG Version: 6.00 Build 0)  -->
<svg version="1.1" id="图层_1" xmlns="http://www.w3.org/2000/svg" xmlns:xlink="http://www.w3.org/1999/xlink" x="0px" y="0px"
	 viewBox="0 0 96 96" enable-background="new 0 0 96 96" xml:space="preserve">
<title>96</title>
<g id="压缩文件_复制">
	<g id="_96">
		<g id="底色-浅橙">
			
				<linearGradient id="_48_1_" gradientUnits="userSpaceOnUse" x1="48" y1="-612" x2="48" y2="-696" gradientTransform="matrix(1 0 0 -1 0 -606)">
				<stop  offset="0" style="stop-color:#EDB281"/>
				<stop  offset="1" style="stop-color:#EAA065"/>
			</linearGradient>
			<path id="_48" fill="url(#_48_1_)" d="M82,69V15c0-5-4-9-9-9H23c-5,0-9,4-9,9v66c0,5,4,9,9,9h38.2L82,69z"/>
			
				<linearGradient id="SVGID_1_" gradientUnits="userSpaceOnUse" x1="63.9195" y1="-679.1906" x2="70.5395" y2="-684.7006" gradientTransform="matrix(1 0 0 -1 0 -606)">
				<stop  offset="0" style="stop-color:#FFFFFF;stop-opacity:0.4"/>
				<stop  offset="1" style="stop-color:#FFFFFF;stop-opacity:0.2"/>
			</linearGradient>
			<path fill="url(#SVGID_1_)" d="M68,69h14L61,90V76C61,72.1,64.1,69,68,69z"/>
		</g>
		<path fill="#A80030" d="M69,28.1c-0.4,0,0.1,0.2,0.6,0.3c0.2-0.1,0.3-0.2,0.4-0.4C69.7,28.2,69.4,28.2,69,28.1"/>
		<path fill="#A80030" d="M71.2,27.6c0.2-0.3,0.4-0.7,0.5-1.1c-0.1,0.3-0.2,0.5-0.3,0.8c-0.8,0.5-0.1-0.3,0-0.6
			C70.5,27.7,71.2,27.3,71.2,27.6"/>
		<path fill="#A80030" d="M72,25.5c0-0.7-0.1-0.5-0.2-0.2C71.9,25.3,71.9,25.8,72,25.5"/>
		<path fill="#A80030" d="M67.4,15.3c0.2,0,0.5,0.1,0.4,0.1C68.1,15.4,68.1,15.3,67.4,15.3"/>
		<path fill="#A80030" d="M67.8,15.4h-0.2H67.8L67.8,15.4"/>
		<path fill="#A80030" d="M74.7,25.8c0,0.5-0.1,1.1-0.4,1.6l-0.4,0.2c-0.3,0.6,0,0.4-0.2,0.8c-0.5,0.5-1.1,1-1.7,1.3
			c-0.2,0,0.2-0.3,0.2-0.4c-0.6,0.4-0.5,0.6-1.4,0.9v-0.1c-2.3,1.1-5.5-1.1-5.4-4c0,0.2-0.1,0.1-0.1,0.2c-0.1-1.5,0.7-3,2.1-3.6
			c1.3-0.6,2.8-0.4,3.9,0.5c-0.7-0.9-1.7-1.4-2.8-1.4c-1.1,0-2.2,0.6-2.8,1.6c-0.6,0.4-0.7,1.5-1,1.7c-0.4,2.7,0.7,3.9,2.5,5.2
			c0.3,0.2,0.1,0.2,0.1,0.4c-0.6-0.3-1.2-0.7-1.6-1.2c0.2,0.4,0.5,0.7,0.8,1c-0.6-0.2-1.3-1.4-1.5-1.4c1,1.7,3.9,3,5.5,2.4
			c-0.8,0.1-1.6,0-2.4-0.3c-0.3-0.2-0.8-0.5-0.7-0.6c2,0.9,4.4,0.5,6.1-0.9c0.5-0.4,1-1,1.1-1c-0.2,0.3,0,0.2-0.1,0.5
			c0.5-0.8-0.2-0.3,0.5-1.3l0.3,0.4c-0.1-0.6,0.8-1.4,0.7-2.4c0.2-0.3,0.2,0.3,0,1c0.3-0.8,0.1-0.9,0.2-1.5c0.1,0.2,0.2,0.4,0.2,0.7
			c-0.1-0.6,0-1.2,0.3-1.7c-0.1,0-0.3,0.3-0.3-0.5c0-0.4,0.1-0.2,0.1-0.3c-0.2-0.3-0.3-0.6-0.4-0.9c0.1-0.1,0.2,0.3,0.3,0.4
			c-0.1-0.3-0.2-0.7-0.2-1c-0.3-0.7-0.1,0.1-0.4-0.3c-0.4-1.1,0.3-0.3,0.3-0.8c0.5,0.8,0.8,1.7,1,2.5c-0.1-0.6-0.3-1.2-0.5-1.8
			c0.2,0.1-0.3-1.3,0.2-0.4c-0.6-1.9-2-3.6-3.8-4.6c0.2,0.2,0.4,0.4,0.3,0.4c-0.8-0.5-0.7-0.5-0.8-0.7c-0.6-0.3-0.7,0-1.1,0
			c-0.8-0.4-1.7-0.8-2.5-1v0.2c-0.8-0.3-0.9,0.1-1.8,0c0,0,0.3-0.1,0.5-0.2c-0.8,0.1-0.7-0.2-1.5,0c0.2-0.1,0.4-0.2,0.6-0.3
			c-0.6,0-1.5,0.4-1.2,0.1c-1.4,0.5-2.7,1.2-3.9,2.1v-0.2c-0.5,0.6-2,1.7-2.2,2.4h-0.1c-0.2,0.4-0.4,0.9-0.6,1.3s-0.5,0.2-0.4,0.3
			c-0.5,1-0.9,2.1-1.2,3.2c0.1,1,0.1,1.9,0.1,2.9c-0.3,5.7,4,11.2,8.7,12.5c0.8,0.2,1.7,0.3,2.6,0.3c-1-0.3-1.2-0.2-2.2-0.5
			c-0.7-0.3-0.9-0.7-1.4-1.2l0.2,0.4c-1-0.4-0.6-0.4-1.4-0.7l0.2-0.3c-0.4-0.1-0.8-0.4-1-0.8h-0.4c-0.3-0.3-0.6-0.7-0.6-1.2
			l-0.1,0.2c-0.1-0.2-1.6-2-0.8-1.6c-0.2-0.1-0.4-0.3-0.5-0.6l0.2-0.2c-0.3-0.4-0.5-0.8-0.6-1.2c0.1,0.2,0.3,0.3,0.5,0.3
			c-0.9-2.3-1-0.1-1.6-2.3H59c-0.1-0.2-0.2-0.3-0.3-0.5l0.1-0.6c-0.7-0.8-0.2-3.2-0.1-4.6c0.2-0.7,0.5-1.4,0.9-2h-0.2
			c0.4-0.7,2.4-3,3.3-2.9c0.5-0.6-0.1,0-0.2-0.1c1-1,1.3-0.7,2-0.9c0.7-0.4-0.6,0.2-0.3-0.2c1.2-0.3,0.9-0.7,2.5-0.9
			c0.2,0.1-0.4,0.1-0.5,0.3c1.6-0.5,3.2-0.4,4.7,0.3c2,1.1,3.4,3.1,3.7,5.3h0.1c0.1,0.9,0,1.9-0.2,2.8L74.7,25.8"/>
		<path fill="#A80030" d="M64.4,28.7L64.4,29c0.2,0.4,0.5,0.7,0.8,1C65,29.5,64.8,29.3,64.4,28.7"/>
		<path fill="#A80030" d="M65.1,28.7c-0.1-0.2-0.2-0.3-0.3-0.5c0.1,0.3,0.3,0.6,0.4,0.9L65.1,28.7"/>
		<path fill="#A80030" d="M76.4,26.2l-0.1,0.1c-0.1,0.8-0.4,1.6-0.7,2.3C76.1,27.9,76.3,27.1,76.4,26.2"/>
		<path fill="#A80030" d="M67.5,15.1c0.3-0.1,0.7,0,1-0.1c-0.4,0-0.8,0.1-1.2,0.1L67.5,15.1"/>
		<path fill="#A80030" d="M57.7,20.3c0.1,0.6-0.5,0.8,0.1,0.4C58.1,20.1,57.7,20.6,57.7,20.3"/>
		<path fill="#A80030" d="M57,23.1c0.1-0.3,0.2-0.6,0.2-0.9C56.8,22.7,57,22.8,57,23.1"/>
		<rect x="44" y="6" fill="#F2D5A5" width="8" height="84"/>
		<rect x="21" y="62" fill="#F9F9F9" width="18" height="12"/>
		<rect x="35" y="64" fill="#5D5D5D" width="2" height="8"/>
		<rect x="31" y="64" fill="#5D5D5D" width="2" height="8"/>
		<rect x="27" y="64" fill="#5D5D5D" width="2" height="8"/>
		<rect x="23" y="64" fill="#5D5D5D" width="2" height="8"/>
	</g>
</g>
</svg>
