<?xml version="1.0" encoding="utf-8"?>
<!-- Generator: Adobe Illustrator 24.0.0, SVG Export Plug-In . SVG Version: 6.00 Build 0)  -->
<svg version="1.1" id="图层_1" xmlns="http://www.w3.org/2000/svg" xmlns:xlink="http://www.w3.org/1999/xlink" x="0px" y="0px"
	 viewBox="0 0 96 96" enable-background="new 0 0 96 96" xml:space="preserve">
<title>96</title>
<g id="TS_复制">
	<g id="_96">
		
			<linearGradient id="_48_1_" gradientUnits="userSpaceOnUse" x1="48" y1="64" x2="48" y2="-20" gradientTransform="matrix(1 0 0 1 0 26)">
			<stop  offset="0" style="stop-color:#219AE7"/>
			<stop  offset="1" style="stop-color:#49ADEB"/>
		</linearGradient>
		<path id="_48" fill="url(#_48_1_)" d="M82,69V15c0-5-4-9-9-9H23c-5,0-9,4-9,9v66c0,5,4,9,9,9h38L82,69z"/>
		
			<linearGradient id="SVGID_1_" gradientUnits="userSpaceOnUse" x1="63.6598" y1="46.9703" x2="70.4798" y2="52.6503" gradientTransform="matrix(1 0 0 1 0 26)">
			<stop  offset="0" style="stop-color:#FFFFFF;stop-opacity:0.4"/>
			<stop  offset="1" style="stop-color:#FFFFFF;stop-opacity:0.2"/>
		</linearGradient>
		<path fill="url(#SVGID_1_)" d="M67,69h15L61,90V75C61,71.7,63.7,69,67,69z"/>
		<polygon fill="#83C7F2" points="48,34 25,46 25,29 48,17 		"/>
		<polygon fill="#CDE8FA" points="71,46 48,34 48,17 71,29 		"/>
		<polygon fill="#CBE7F9" points="48,69 25,57 25,29 48,41 		"/>
		<polygon fill="#7FC5F1" points="71,57 48,69 48,41 71,29 		"/>
	</g>
</g>
</svg>
