<?xml version="1.0" encoding="utf-8"?>
<!-- Generator: Adobe Illustrator 24.0.0, SVG Export Plug-In . SVG Version: 6.00 Build 0)  -->
<svg version="1.1" id="图层_1" xmlns="http://www.w3.org/2000/svg" xmlns:xlink="http://www.w3.org/1999/xlink" x="0px" y="0px"
	 viewBox="0 0 128 128" enable-background="new 0 0 128 128" xml:space="preserve">
<title>128</title>
<g id="红底">
	<g id="_128">
		<g id="底色-浅橙">
			
				<linearGradient id="_48_1_" gradientUnits="userSpaceOnUse" x1="64" y1="-582" x2="64" y2="-694" gradientTransform="matrix(1 0 0 -1 0 -574)">
				<stop  offset="0" style="stop-color:#F34236"/>
				<stop  offset="1" style="stop-color:#E23932"/>
			</linearGradient>
			<path id="_48" fill="url(#_48_1_)" d="M109,92V20c0-6.6-5.4-12-12-12H31c-6.6,0-12,5.4-12,12v88c0,6.6,5.4,12,12,12h50L109,92z"
				/>
			
				<linearGradient id="SVGID_1_" gradientUnits="userSpaceOnUse" x1="84.8071" y1="-671.5135" x2="93.7071" y2="-678.9235" gradientTransform="matrix(1 0 0 -1 0 -574)">
				<stop  offset="0" style="stop-color:#FFFFFF;stop-opacity:0.4"/>
				<stop  offset="1" style="stop-color:#FFFFFF;stop-opacity:0.2"/>
			</linearGradient>
			<path fill="url(#SVGID_1_)" d="M90,92h19l-28,28v-19C81,96,85,92,90,92L90,92z"/>
		</g>
		<polygon fill="#FFFFFF" points="46.3,38 50.3,52 35.1,52 		"/>
		<polygon fill="#FFFFFF" points="50.3,38 59.3,38 51.8,48.1 		"/>
		<polygon fill="#FFFFFF" points="63.8,38 53.7,52 74.5,52 		"/>
		<polygon fill="#FFFFFF" points="69.4,38 78,38 74.9,47.6 		"/>
		<polygon fill="#FFFFFF" points="81.8,38 77.1,52 92.9,52 		"/>
		<polygon fill="#FFFFFF" points="35.1,55 50.3,55 61.8,84.7 		"/>
		<polygon fill="#FFFFFF" points="53.8,55 74.9,55 63.8,80.7 		"/>
		<polygon fill="#FFFFFF" points="78,55 92.6,55 66.4,84.2 		"/>
	</g>
</g>
</svg>
