<?xml version="1.0" encoding="utf-8"?>
<!-- Generator: Adobe Illustrator 24.0.0, SVG Export Plug-In . SVG Version: 6.00 Build 0)  -->
<svg version="1.1" id="图层_1" xmlns="http://www.w3.org/2000/svg" xmlns:xlink="http://www.w3.org/1999/xlink" x="0px" y="0px"
	 viewBox="0 0 96 96" enable-background="new 0 0 96 96" xml:space="preserve">
<title>96</title>
<g id="白色">
	<g id="_96">
		<g id="_48">
			
				<linearGradient id="SVGID_1_" gradientUnits="userSpaceOnUse" x1="48" y1="6.5" x2="48" y2="89.5" gradientTransform="matrix(1 0 0 -1 0 96)">
				<stop  offset="0" style="stop-color:#D6D9E6"/>
				<stop  offset="1" style="stop-color:#F5F5F5"/>
			</linearGradient>
			<path fill="url(#SVGID_1_)" d="M23,89.5c-4.7,0-8.5-3.8-8.5-8.5V15c0-4.7,3.8-8.5,8.5-8.5h50c4.7,0,8.5,3.8,8.5,8.5v53.8
				L60.8,89.5H23z"/>
			<path fill="#C4C6CC" d="M73,7c4.4,0,8,3.6,8,8v53.6L60.6,89H23c-4.4,0-8-3.6-8-8V15c0-4.4,3.6-8,8-8H73 M73,6H23c-5,0-9,4-9,9v66
				c0,5,4,9,9,9h38l21-21V15C82,10,78,6,73,6z"/>
		</g>
		
			<linearGradient id="SVGID_2_" gradientUnits="userSpaceOnUse" x1="63.6598" y1="46.9703" x2="70.4798" y2="52.6503" gradientTransform="matrix(1 0 0 1 0 26)">
			<stop  offset="0" style="stop-color:#000000;stop-opacity:0.1"/>
			<stop  offset="1" style="stop-color:#000000;stop-opacity:5.000000e-02"/>
		</linearGradient>
		<path fill="url(#SVGID_2_)" d="M67,69h15L61,90V75C61,71.7,63.7,69,67,69z"/>
		<polyline fill="none" stroke="#888888" stroke-linecap="round" stroke-linejoin="round" points="53.5,65.5 57.5,73.5 61.5,65.5 		
			"/>
		<polyline fill="none" stroke="#888888" stroke-linecap="round" stroke-linejoin="round" points="32.5,65.5 35.5,73.5 38,65.5 
			40.5,73.5 43.2,65.5 		"/>
		<path fill="none" stroke="#888888" stroke-miterlimit="10" d="M46,65.5h3.5c1.1,0,2,0.9,2,2V74"/>
		<path fill="none" stroke="#888888" stroke-miterlimit="10" d="M51.3,73.5H48c-1.4,0-2.5-1.1-2.5-2.5l0,0c0-1.4,1.1-2.5,2.5-2.5
			h3.3"/>
		<polyline fill="none" stroke="#F0707F" stroke-width="3" stroke-miterlimit="10" points="37.5,56 37.5,22 62.5,18 62.5,52 		"/>
		<ellipse fill="#F0707F" cx="32" cy="56" rx="7" ry="6"/>
		<ellipse fill="#F0707F" cx="57" cy="52" rx="7" ry="6"/>
		<polygon fill="#F0707F" points="36,19 64,15 64,26 36,30 		"/>
	</g>
</g>
</svg>
