<?xml version="1.0" encoding="utf-8"?>
<!-- Generator: Adobe Illustrator 24.0.0, SVG Export Plug-In . SVG Version: 6.00 Build 0)  -->
<svg version="1.1" id="图层_1" xmlns="http://www.w3.org/2000/svg" xmlns:xlink="http://www.w3.org/1999/xlink" x="0px" y="0px"
	 viewBox="0 0 96 96" enable-background="new 0 0 96 96" xml:space="preserve">
<title>96</title>
<g id="白色">
	<g id="_96">
		<g id="_48">
			
				<linearGradient id="SVGID_1_" gradientUnits="userSpaceOnUse" x1="48" y1="6.5" x2="48" y2="89.5" gradientTransform="matrix(1 0 0 -1 0 96)">
				<stop  offset="0" style="stop-color:#D6D9E6"/>
				<stop  offset="1" style="stop-color:#F5F5F5"/>
			</linearGradient>
			<path fill="url(#SVGID_1_)" d="M23,89.5c-4.7,0-8.5-3.8-8.5-8.5V15c0-4.7,3.8-8.5,8.5-8.5h50c4.7,0,8.5,3.8,8.5,8.5v53.8
				L60.8,89.5H23z"/>
			<path fill="#C4C6CC" d="M73,7c4.4,0,8,3.6,8,8v53.6L60.6,89H23c-4.4,0-8-3.6-8-8V15c0-4.4,3.6-8,8-8H73 M73,6H23c-5,0-9,4-9,9v66
				c0,5,4,9,9,9h38l21-21V15C82,10,78,6,73,6z"/>
		</g>
		
			<linearGradient id="SVGID_2_" gradientUnits="userSpaceOnUse" x1="63.6598" y1="46.9703" x2="70.4798" y2="52.6503" gradientTransform="matrix(1 0 0 1 0 26)">
			<stop  offset="0" style="stop-color:#000000;stop-opacity:0.1"/>
			<stop  offset="1" style="stop-color:#000000;stop-opacity:5.000000e-02"/>
		</linearGradient>
		<path fill="url(#SVGID_2_)" d="M67,69h15L61,90V75C61,71.7,63.7,69,67,69z"/>
		
			<linearGradient id="SVGID_3_" gradientUnits="userSpaceOnUse" x1="27" y1="63.5" x2="52" y2="63.5" gradientTransform="matrix(1 0 0 -1 0 96)">
			<stop  offset="0" style="stop-color:#E72761"/>
			<stop  offset="0.99" style="stop-color:#FC7062"/>
		</linearGradient>
		<polyline fill="none" stroke="url(#SVGID_3_)" stroke-width="3" stroke-linecap="round" stroke-linejoin="round" points="
			28.5,19.5 28.5,45.5 50.5,32.5 28.5,19.5 		"/>
		
			<line fill="none" stroke="#E82B61" stroke-width="2" stroke-linecap="round" stroke-miterlimit="10" x1="37" y1="64" x2="67" y2="64"/>
		
			<line fill="none" stroke="#E82B61" stroke-width="2" stroke-linecap="round" stroke-miterlimit="10" x1="37" y1="55" x2="67" y2="55"/>
		
			<linearGradient id="SVGID_4_" gradientUnits="userSpaceOnUse" x1="27" y1="33.5" x2="32" y2="33.5" gradientTransform="matrix(1 0 0 -1 0 96)">
			<stop  offset="0" style="stop-color:#E72761"/>
			<stop  offset="0.99" style="stop-color:#FC7062"/>
		</linearGradient>
		<path fill="url(#SVGID_4_)" d="M28,60h3c0.6,0,1,0.4,1,1v3c0,0.6-0.4,1-1,1h-3c-0.6,0-1-0.4-1-1v-3C27,60.4,27.4,60,28,60z"/>
		
			<linearGradient id="SVGID_5_" gradientUnits="userSpaceOnUse" x1="27" y1="42.5" x2="32" y2="42.5" gradientTransform="matrix(1 0 0 -1 0 96)">
			<stop  offset="0" style="stop-color:#E72761"/>
			<stop  offset="0.99" style="stop-color:#FC7062"/>
		</linearGradient>
		<path fill="url(#SVGID_5_)" d="M28,51h3c0.6,0,1,0.4,1,1v3c0,0.6-0.4,1-1,1h-3c-0.6,0-1-0.4-1-1v-3C27,51.4,27.4,51,28,51z"/>
	</g>
</g>
</svg>
