<svg xmlns="http://www.w3.org/2000/svg" xmlns:xlink="http://www.w3.org/1999/xlink" viewBox="0 0 96 96"><defs><style>.cls-1{fill:url(#未命名的渐变_85);}.cls-2{fill:url(#未命名的渐变_102);}.cls-3{fill:url(#未命名的渐变_142);}.cls-4{fill:#ff7d02;}</style><linearGradient id="未命名的渐变_85" x1="48" y1="32" x2="48" y2="116" gradientTransform="matrix(1, 0, 0, -1, 0, 122)" gradientUnits="userSpaceOnUse"><stop offset="0" stop-color="#261300"/><stop offset="1" stop-color="#361300"/></linearGradient><linearGradient id="未命名的渐变_102" x1="14" y1="48" x2="82" y2="48" gradientUnits="userSpaceOnUse"><stop offset="0" stop-color="#f16a00"/><stop offset="1" stop-color="#fe7a00"/></linearGradient><linearGradient id="未命名的渐变_142" x1="63.66" y1="49.03" x2="70.48" y2="43.35" gradientTransform="matrix(1, 0, 0, -1, 0, 122)" gradientUnits="userSpaceOnUse"><stop offset="0" stop-color="#e07032" stop-opacity="0.5"/><stop offset="1" stop-color="#c25410" stop-opacity="0.7"/></linearGradient></defs><title>96</title><g id="ai"><g id="_96" data-name="96"><g id="_48" data-name=" 48"><path class="cls-1" d="M82,69V15a9,9,0,0,0-9-9H23a9,9,0,0,0-9,9V81a9,9,0,0,0,9,9H61Z"/><path class="cls-2" d="M73,10a5,5,0,0,1,5,5V67.34L59.34,86H23a5,5,0,0,1-5-5V15a5,5,0,0,1,5-5H73m0-4H23a9,9,0,0,0-9,9V81a9,9,0,0,0,9,9H61L82,69V15a9,9,0,0,0-9-9Z"/></g><path class="cls-3" d="M67,69H82L61,90V75A6,6,0,0,1,67,69Z"/><polygon class="cls-4" points="32.61 62 26 62 38.12 24 44.73 24 32.61 62"/><polygon class="cls-4" points="57.39 62 50.78 62 38.12 24 44.73 24 57.39 62"/><rect class="cls-4" x="34.61" y="46" width="14.87" height="6"/><rect class="cls-4" x="63" y="35" width="7" height="27"/><circle class="cls-4" cx="66.5" cy="26.5" r="4.5"/></g></g></svg>