<svg xmlns="http://www.w3.org/2000/svg" xmlns:xlink="http://www.w3.org/1999/xlink" viewBox="0 0 96 96"><defs><style>.cls-1{fill:url(#未命名的渐变_46);}.cls-2{fill:#c4c6cc;}.cls-3{fill:url(#未命名的渐变_250);}.cls-4{fill:#f9ce1d;}.cls-5{fill:#f42525;}.cls-6{fill:#1a237e;}.cls-7,.cls-8{fill:none;stroke:#1a237e;stroke-width:3px;}.cls-7{stroke-miterlimit:10;}.cls-8{stroke-linecap:round;stroke-linejoin:round;}</style><linearGradient id="未命名的渐变_46" x1="48" y1="89.5" x2="48" y2="6.5" gradientUnits="userSpaceOnUse"><stop offset="0" stop-color="#d6d9e6"/><stop offset="1" stop-color="#f5f5f5"/></linearGradient><linearGradient id="未命名的渐变_250" x1="63.66" y1="49.03" x2="70.48" y2="43.35" gradientTransform="matrix(1, 0, 0, -1, 0, 122)" gradientUnits="userSpaceOnUse"><stop offset="0" stop-opacity="0.1"/><stop offset="1" stop-opacity="0.05"/></linearGradient></defs><title>96</title><g id="白色"><g id="_96" data-name="96"><g id="_48" data-name=" 48"><path class="cls-1" d="M23,89.5A8.51,8.51,0,0,1,14.5,81V15A8.51,8.51,0,0,1,23,6.5H73A8.51,8.51,0,0,1,81.5,15V68.79L60.79,89.5Z"/><path class="cls-2" d="M73,7a8,8,0,0,1,8,8V68.59L60.59,89H23a8,8,0,0,1-8-8V15a8,8,0,0,1,8-8H73m0-1H23a9,9,0,0,0-9,9V81a9,9,0,0,0,9,9H61L82,69V15a9,9,0,0,0-9-9Z"/></g><path class="cls-3" d="M67,69H82L61,90V75A6,6,0,0,1,67,69Z"/><path class="cls-4" d="M60.37,44.23a1.48,1.48,0,0,0-1-.53l-.81-.09a1.51,1.51,0,0,0-1.08.32,1.45,1.45,0,0,0-.44.65,2.52,2.52,0,0,0-.15-.34,2.28,2.28,0,0,0-2-1.4,1.72,1.72,0,0,0-1,.39l-.06-.55a2,2,0,0,0-3.93,0l-.2,1.56a1.8,1.8,0,0,0-1.19-.45h-.08a2.13,2.13,0,0,0-.57.11l-.23-2a2.07,2.07,0,0,0-1.93-2h0a2.09,2.09,0,0,0-2,1.9l-.2,1.32A2,2,0,0,0,42.8,43h0a1.84,1.84,0,0,0-.77.17L42,42.66A2,2,0,0,0,40,40.71H40a2,2,0,0,0-1.89,2l-.24,3.57a1.47,1.47,0,0,0-.59,0l-.8.13a1.47,1.47,0,0,0-1.17,1.71h0l1.61,8.57.11.56.82,1,0,0a1.48,1.48,0,0,0,1,.44H39a2.06,2.06,0,0,0,1.85-2.06v-.25a1.81,1.81,0,0,0,.76.15h0a2.05,2.05,0,0,0,2-2v-.08h.23a1.77,1.77,0,0,0,1.42-.63l.22,1.94a2.05,2.05,0,0,0,2,2h0a1.93,1.93,0,0,0,1.83-1.48,1.9,1.9,0,0,0,1,.25A1.93,1.93,0,0,0,52,55.4,1.85,1.85,0,0,0,53.3,56h.06a2.09,2.09,0,0,0,2-1.89l.19-1.22L55.84,54a2,2,0,1,0,4-.35h0l.87-8.35A1.45,1.45,0,0,0,60.37,44.23Z"/><path class="cls-5" d="M39.1,57.41c-.5,0-.6-.59-.65-.84L36.8,47.83l1-.18,1.09,5.8L39.62,43c0-.31.06-.89.59-.89h0c.5,0,.57.56.61.86l1,7.85.59-5.58c0-.28.09-.89.62-.89h0c.52,0,.59.59.63.89l.49,4.23,1.11-7.33c0-.25.13-.85.65-.85h0c.53,0,.6.62.63.89l1.08,9.39.51-5.5c0-.27.08-.87.6-.9h0c.51,0,.61.59.65.85l1,5.8L51.46,43c0-.28.11-.89.64-.89h0c.52,0,.59.59.63.89l.89,7.92.89-5.81c.09-.55.31-.84.67-.86s.62.24.77.77l1.89,6.7.7-6.7,1,.11-.83,8.34c0,.2-.09.84-.62.89s-.72-.57-.78-.78l-2-7-1.13,7.25c0,.26-.13.85-.64.85h0c-.54,0-.6-.61-.63-.89l-.86-7.39-1,8c0,.26-.11.86-.64.89s-.63-.62-.66-.87L48.89,49l-.6,6.57c0,.31-.08.89-.61.89h0c-.52,0-.59-.57-.62-.89L45.83,45.08l-1.1,7.27c0,.25-.12.85-.64.85h0c-.53,0-.6-.62-.63-.9l-.41-3.43-.58,5.49c0,.29-.1.9-.62.9h0c-.52,0-.59-.59-.63-.9l-.87-7-.63,9.13c0,.26,0,.89-.58.89Z"/><path class="cls-6" d="M64,39.76a10.47,10.47,0,0,1,0,20.73Z"/><path class="cls-6" d="M32,39.76a10.47,10.47,0,0,0,0,20.73Z"/><path class="cls-7" d="M30.42,48.25V43a17.56,17.56,0,0,1,17.5-17.5h0A17.56,17.56,0,0,1,65.42,43v5.25"/><line class="cls-8" x1="35.5" y1="42.89" x2="35.5" y2="58.97"/><line class="cls-8" x1="60.5" y1="42.89" x2="60.5" y2="58.97"/></g></g></svg>