<?xml version="1.0" encoding="utf-8"?>
<!-- Generator: Adobe Illustrator 24.0.0, SVG Export Plug-In . SVG Version: 6.00 Build 0)  -->
<svg version="1.1" id="图层_1" xmlns="http://www.w3.org/2000/svg" xmlns:xlink="http://www.w3.org/1999/xlink" x="0px" y="0px"
	 viewBox="0 0 96 96" enable-background="new 0 0 96 96" xml:space="preserve">
<title>96</title>
<g id="白色">
	<g id="_96">
		<g id="_48">
			
				<linearGradient id="SVGID_1_" gradientUnits="userSpaceOnUse" x1="48" y1="6.5" x2="48" y2="89.5" gradientTransform="matrix(1 0 0 -1 0 96)">
				<stop  offset="0" style="stop-color:#D6D9E6"/>
				<stop  offset="1" style="stop-color:#F5F5F5"/>
			</linearGradient>
			<path fill="url(#SVGID_1_)" d="M23,89.5c-4.7,0-8.5-3.8-8.5-8.5V15c0-4.7,3.8-8.5,8.5-8.5h50c4.7,0,8.5,3.8,8.5,8.5v53.8
				L60.8,89.5H23z"/>
			<path fill="#C4C6CC" d="M73,7c4.4,0,8,3.6,8,8v53.6L60.6,89H23c-4.4,0-8-3.6-8-8V15c0-4.4,3.6-8,8-8H73 M73,6H23c-5,0-9,4-9,9v66
				c0,5,4,9,9,9h38l21-21V15C82,10,78,6,73,6z"/>
		</g>
		
			<linearGradient id="SVGID_2_" gradientUnits="userSpaceOnUse" x1="63.6598" y1="46.9703" x2="70.4798" y2="52.6503" gradientTransform="matrix(1 0 0 1 0 26)">
			<stop  offset="0" style="stop-color:#000000;stop-opacity:0.1"/>
			<stop  offset="1" style="stop-color:#000000;stop-opacity:5.000000e-02"/>
		</linearGradient>
		<path fill="url(#SVGID_2_)" d="M67,69h15L61,90V75C61,71.7,63.7,69,67,69z"/>
		<path fill="#F9CE1D" d="M60.4,44.2c-0.2-0.3-0.6-0.5-1-0.5l-0.8-0.1c-0.4,0-0.8,0.1-1.1,0.3c-0.2,0.2-0.4,0.4-0.4,0.7
			c0-0.1-0.1-0.2-0.2-0.3c-0.3-0.8-1.1-1.4-2-1.4c-0.4,0-0.7,0.2-1,0.4l-0.1-0.5c-0.2-1.1-1.3-1.8-2.3-1.6c-0.8,0.2-1.4,0.8-1.6,1.6
			l-0.2,1.6c-0.3-0.3-0.8-0.4-1.2-0.5h-0.1c-0.2,0-0.4,0-0.6,0.1l-0.2-2c0-1.1-0.9-1.9-1.9-2l0,0c-1,0-1.9,0.9-2,1.9l-0.2,1.3
			C43.3,43,43,43,42.8,43l0,0c-0.3,0-0.5,0.1-0.8,0.2l0-0.5c0-1.1-0.9-2-2-2l0,0c-1.1,0.1-1.9,0.9-1.9,2l-0.2,3.6
			c-0.2,0-0.4,0-0.6,0l-0.8,0.1c-0.8,0.2-1.3,0.9-1.2,1.7l0,0l1.6,8.6l0.1,0.6l0.8,1l0,0c0.3,0.3,0.6,0.4,1,0.4H39
			c1.1-0.1,1.9-1,1.8-2.1v-0.3c0.2,0.1,0.5,0.2,0.8,0.2l0,0c1.1,0,2-0.9,2-2v-0.1h0.2c0.5,0,1.1-0.2,1.4-0.6l0.2,1.9
			c0,1.1,0.9,2,2,2l0,0c0.9,0,1.6-0.6,1.8-1.5c0.3,0.2,0.6,0.3,1,0.3c0.7,0,1.4-0.5,1.7-1.1c0.3,0.4,0.8,0.6,1.3,0.6h0.1
			c1,0,1.9-0.8,2-1.9l0.2-1.2l0.3,1.1c0.1,1.1,1.1,1.9,2.2,1.8s1.9-1.1,1.8-2.2l0,0l0.9-8.3C60.7,44.9,60.6,44.5,60.4,44.2z"/>
		<path fill="#F42525" d="M39.1,57.4c-0.5,0-0.6-0.6-0.7-0.8l-1.6-8.7l1-0.2l1.1,5.8L39.6,43c0-0.3,0.1-0.9,0.6-0.9l0,0
			c0.5,0,0.6,0.6,0.6,0.9l1,7.8l0.6-5.6c0-0.3,0.1-0.9,0.6-0.9l0,0c0.5,0,0.6,0.6,0.6,0.9l0.5,4.2l1.1-7.3c0-0.3,0.1-0.8,0.7-0.8
			l0,0c0.5,0,0.6,0.6,0.6,0.9l1.1,9.4l0.5-5.5c0-0.3,0.1-0.9,0.6-0.9l0,0c0.5,0,0.6,0.6,0.7,0.8l1,5.8l1.1-8.8
			c0-0.3,0.1-0.9,0.6-0.9l0,0c0.5,0,0.6,0.6,0.6,0.9l0.9,7.9l0.9-5.8c0.1-0.5,0.3-0.8,0.7-0.9s0.6,0.2,0.8,0.8l1.9,6.7l0.7-6.7
			l1,0.1l-0.8,8.3c0,0.2-0.1,0.8-0.6,0.9s-0.7-0.6-0.8-0.8l-2-7l-1.1,7.3c0,0.3-0.1,0.8-0.6,0.8l0,0c-0.5,0-0.6-0.6-0.6-0.9L52,46.4
			l-1,8c0,0.3-0.1,0.9-0.6,0.9s-0.6-0.6-0.7-0.9L48.9,49l-0.6,6.6c0,0.3-0.1,0.9-0.6,0.9l0,0c-0.5,0-0.6-0.6-0.6-0.9l-1.2-10.5
			l-1.1,7.3c0,0.3-0.1,0.8-0.6,0.8l0,0c-0.5,0-0.6-0.6-0.6-0.9l-0.4-3.4l-0.6,5.5c0,0.3-0.1,0.9-0.6,0.9l0,0c-0.5,0-0.6-0.6-0.6-0.9
			l-0.9-7l-0.6,9.1C39.7,56.8,39.7,57.4,39.1,57.4L39.1,57.4z"/>
		<path fill="#1A237E" d="M64,39.8c5.7,0.8,9.7,6.1,8.9,11.8c-0.7,4.6-4.3,8.2-8.9,8.9V39.8z"/>
		<path fill="#1A237E" d="M32,39.8c-5.7,0.8-9.7,6.1-8.9,11.8c0.7,4.6,4.3,8.2,8.9,8.9V39.8z"/>
		<path fill="none" stroke="#1A237E" stroke-width="3" stroke-miterlimit="10" d="M30.4,48.3V43c0-9.7,7.8-17.5,17.5-17.5l0,0
			c9.7,0,17.5,7.8,17.5,17.5v5.3"/>
		
			<line fill="none" stroke="#1A237E" stroke-width="3" stroke-linecap="round" stroke-linejoin="round" x1="35.5" y1="42.9" x2="35.5" y2="59"/>
		
			<line fill="none" stroke="#1A237E" stroke-width="3" stroke-linecap="round" stroke-linejoin="round" x1="60.5" y1="42.9" x2="60.5" y2="59"/>
	</g>
</g>
</svg>
