<svg xmlns="http://www.w3.org/2000/svg" xmlns:xlink="http://www.w3.org/1999/xlink" viewBox="0 0 96 96"><defs><style>.cls-1{fill:url(#未命名的渐变_73);}.cls-2{fill:url(#未命名的渐变_223);}.cls-3{opacity:0.4;}.cls-4{fill:#fff;}.cls-5{fill:none;stroke:#fff;stroke-linecap:round;stroke-linejoin:round;stroke-width:4px;}</style><linearGradient id="未命名的渐变_73" x1="48" y1="708" x2="48" y2="792" gradientTransform="translate(0 -702)" gradientUnits="userSpaceOnUse"><stop offset="0" stop-color="#558ff2"/><stop offset="1" stop-color="#3f81e0"/></linearGradient><linearGradient id="未命名的渐变_223" x1="63.92" y1="775.19" x2="70.54" y2="780.7" gradientTransform="translate(0 -702)" gradientUnits="userSpaceOnUse"><stop offset="0" stop-color="#fff" stop-opacity="0.4"/><stop offset="1" stop-color="#fff" stop-opacity="0.2"/></linearGradient></defs><title>96</title><g id="WPS"><g id="W"><g id="_96" data-name="96"><g id="底色-浅橙"><path id="_48" data-name=" 48" class="cls-1" d="M82,69V15a9,9,0,0,0-9-9H23a9,9,0,0,0-9,9V81a9,9,0,0,0,9,9H61.16Z"/><path class="cls-2" d="M68,69H82L61,90V76A7,7,0,0,1,68,69Z"/></g><g id="线" class="cls-3"><rect class="cls-4" x="27" y="57" width="42" height="3" rx="1.5"/><rect class="cls-4" x="27" y="64" width="42" height="3" rx="1.5"/><rect class="cls-4" x="27" y="71" width="25.5" height="3" rx="1.5"/></g><polyline id="w-2" data-name="w" class="cls-5" points="29 19 29 52 48 35 67 52 67 19"/></g></g></g></svg>