<?xml version="1.0" encoding="utf-8"?>
<!-- Generator: Adobe Illustrator 24.0.0, SVG Export Plug-In . SVG Version: 6.00 Build 0)  -->
<svg version="1.1" id="图层_1" xmlns="http://www.w3.org/2000/svg" xmlns:xlink="http://www.w3.org/1999/xlink" x="0px" y="0px"
	 viewBox="0 0 128 128" enable-background="new 0 0 128 128" xml:space="preserve">
<title>128</title>
<g id="Jblender">
	<g id="_128">
		<g id="底色-浅橙">
			
				<linearGradient id="_48_1_" gradientUnits="userSpaceOnUse" x1="64" y1="-582" x2="64" y2="-694" gradientTransform="matrix(1 0 0 -1 0 -574)">
				<stop  offset="0" style="stop-color:#F88F52"/>
				<stop  offset="1" style="stop-color:#F46E34"/>
			</linearGradient>
			<path id="_48" fill="url(#_48_1_)" d="M109,92V20c0-6.6-5.4-12-12-12H31c-6.6,0-12,5.4-12,12v88c0,6.6,5.4,12,12,12h50L109,92z"
				/>
			
				<linearGradient id="SVGID_1_" gradientUnits="userSpaceOnUse" x1="84.8071" y1="-671.5135" x2="93.7071" y2="-678.9235" gradientTransform="matrix(1 0 0 -1 0 -574)">
				<stop  offset="0" style="stop-color:#FFFFFF;stop-opacity:0.4"/>
				<stop  offset="1" style="stop-color:#FFFFFF;stop-opacity:0.2"/>
			</linearGradient>
			<path fill="url(#SVGID_1_)" d="M90,92h19l-28,28v-19C81,96,85,92,90,92L90,92z"/>
		</g>
		<path fill="#FFFFFF" d="M64,34.6l22,12v26L64,84.4L42,72.5v-26L64,34.6 M64,30L38,44.2v30.7L64,89l26-14.1V44.2L64,30z"/>
		<polyline fill="none" stroke="#FFFFFF" stroke-width="4" stroke-miterlimit="10" points="40.4,45.4 64,58.4 87.6,45.4 		"/>
		<line fill="none" stroke="#FFFFFF" stroke-width="4" stroke-miterlimit="10" x1="64" y1="58.4" x2="64" y2="85.6"/>
	</g>
</g>
</svg>
