<svg xmlns="http://www.w3.org/2000/svg" xmlns:xlink="http://www.w3.org/1999/xlink" viewBox="0 0 96 96"><defs><style>.cls-1{fill:url(#未命名的渐变_56);}.cls-2{fill:url(#未命名的渐变_247);}.cls-3{fill:#818696;}.cls-4{fill:url(#未命名的渐变_239);}</style><linearGradient id="未命名的渐变_56" x1="48" y1="32" x2="48" y2="116" gradientTransform="matrix(1, 0, 0, -1, 0, 122)" gradientUnits="userSpaceOnUse"><stop offset="0" stop-color="#d6d9e6"/><stop offset="1" stop-color="#f5f5f5"/></linearGradient><linearGradient id="未命名的渐变_247" x1="63.66" y1="49.03" x2="70.48" y2="43.35" gradientTransform="matrix(1, 0, 0, -1, 0, 122)" gradientUnits="userSpaceOnUse"><stop offset="0" stop-opacity="0.1"/><stop offset="1" stop-opacity="0.05"/></linearGradient><linearGradient id="未命名的渐变_239" x1="47.84" y1="22.7" x2="33.49" y2="53.47" gradientUnits="userSpaceOnUse"><stop offset="0" stop-color="#818696"/><stop offset="0.98" stop-color="#4f618e"/></linearGradient></defs><title>96</title><g id="rtf"><g id="_96" data-name="96"><path id="_48" data-name=" 48" class="cls-1" d="M82,69V15a9,9,0,0,0-9-9H23a9,9,0,0,0-9,9V81a9,9,0,0,0,9,9H61Z"/><path class="cls-2" d="M67,69H82L61,90V75A6,6,0,0,1,67,69Z"/><rect class="cls-3" x="56" y="17" width="17" height="2"/><rect class="cls-3" x="56" y="24" width="17" height="2"/><rect class="cls-3" x="56" y="31" width="17" height="2"/><rect class="cls-3" x="56" y="38" width="17" height="2"/><rect class="cls-3" x="56" y="45" width="17" height="2"/><rect class="cls-3" x="22" y="52" width="51" height="2"/><rect class="cls-3" x="22" y="59" width="51" height="2"/><rect class="cls-3" x="22" y="66" width="51" height="2"/><rect class="cls-3" x="22" y="73" width="34" height="2"/><path class="cls-4" d="M49,45,38,17H35L25,45H22v2h7V45H27l2.6-7.29v.47H42.32L45,45H42v2H52V45ZM30.07,36.41,35.57,21l6.06,15.41Z"/></g></g></svg>