<svg xmlns="http://www.w3.org/2000/svg" xmlns:xlink="http://www.w3.org/1999/xlink" viewBox="0 0 96 96"><defs><style>.cls-1{fill:url(#未命名的渐变_56);}.cls-2{fill:url(#未命名的渐变_250);}.cls-3{fill:url(#未命名的渐变_59);}.cls-4{fill:url(#未命名的渐变_67);}</style><linearGradient id="未命名的渐变_56" x1="48" y1="32" x2="48" y2="116" gradientTransform="matrix(1, 0, 0, -1, 0, 122)" gradientUnits="userSpaceOnUse"><stop offset="0" stop-color="#d6d9e6"/><stop offset="1" stop-color="#f5f5f5"/></linearGradient><linearGradient id="未命名的渐变_250" x1="63.66" y1="49.03" x2="70.48" y2="43.35" gradientTransform="matrix(1, 0, 0, -1, 0, 122)" gradientUnits="userSpaceOnUse"><stop offset="0" stop-opacity="0.1"/><stop offset="1" stop-opacity="0.05"/></linearGradient><linearGradient id="未命名的渐变_59" x1="66.52" y1="63.68" x2="34.43" y2="24.19" gradientUnits="userSpaceOnUse"><stop offset="0" stop-color="#787878"/><stop offset="0.72" stop-color="#d6d6d6"/></linearGradient><linearGradient id="未命名的渐变_67" x1="73.31" y1="66.28" x2="46.47" y2="23.11" gradientTransform="translate(104.72 89.36) rotate(180)" gradientUnits="userSpaceOnUse"><stop offset="0" stop-color="#7b7b7b"/><stop offset="1" stop-color="#d7d7d7"/></linearGradient></defs><title>96</title><g id="json"><g id="_96" data-name="96"><path id="_48" data-name=" 48" class="cls-1" d="M82,69V15a9,9,0,0,0-9-9H23a9,9,0,0,0-9,9V81a9,9,0,0,0,9,9H61Z"/><path class="cls-2" d="M67,69H82L61,90V75A6,6,0,0,1,67,69Z"/><path class="cls-3" d="M48.25,19h-.63A19.45,19.45,0,0,1,57.87,23.5c3.76,3.31,6.77,9.45,6.77,16.64,0,10.06-6.38,17.42-12.62,17.43a12,12,0,0,1-11.77-12,14.68,14.68,0,0,1,8-13.43,10.5,10.5,0,0,0-11.5,2.23c-5.09,4.9-7.2,14.62-3.85,23.48s11,13.45,21.35,11.68c1.11-.19,2.21-.43,3.29-.7A25.76,25.76,0,0,0,48.25,19Z"/><path class="cls-4" d="M47.75,69.88l.5,0a19,19,0,0,1-10.12-4.45C34.37,62.1,31.36,56,31.36,48.77c0-10.06,6.38-17.42,12.62-17.43A12.5,12.5,0,0,1,56,43.7a14.73,14.73,0,0,1-7.75,13.18s5.56,2.95,11.06-2.7c5.15-5.28,7-14.14,3.69-23S52.38,17.51,41.75,19.4c-1.11.2-2.21.44-3.29.71a25.75,25.75,0,0,0,9.29,49.77Z"/></g></g></svg>