<svg xmlns="http://www.w3.org/2000/svg" xmlns:xlink="http://www.w3.org/1999/xlink" viewBox="0 0 128 128"><defs><style>.cls-1{fill:url(#未命名的渐变_79);}.cls-2{fill:url(#未命名的渐变_204);}.cls-3{fill:#fff;}</style><linearGradient id="未命名的渐变_79" x1="64" y1="710" x2="64" y2="822" gradientTransform="translate(0 -702)" gradientUnits="userSpaceOnUse"><stop offset="0" stop-color="#f34236"/><stop offset="1" stop-color="#e23932"/></linearGradient><linearGradient id="未命名的渐变_204" x1="84.81" y1="799.51" x2="93.71" y2="806.92" gradientTransform="translate(0 -702)" gradientUnits="userSpaceOnUse"><stop offset="0" stop-color="#fff" stop-opacity="0.4"/><stop offset="1" stop-color="#fff" stop-opacity="0.2"/></linearGradient></defs><title>128</title><g id="红底"><g id="_128" data-name="128"><g id="底色-浅橙"><path id="_48" data-name=" 48" class="cls-1" d="M109,92V20A12,12,0,0,0,97,8H31A12,12,0,0,0,19,20v88a12,12,0,0,0,12,12H81Z"/><path class="cls-2" d="M90,92h19L81,120V101A9,9,0,0,1,90,92Z"/></g><polygon class="cls-3" points="46.26 38 50.33 52 35.06 52 46.26 38"/><polygon class="cls-3" points="50.25 38 59.32 38 51.76 48.08 50.25 38"/><polygon class="cls-3" points="63.85 38 53.67 52 74.54 52 63.85 38"/><polygon class="cls-3" points="69.4 38 77.96 38 74.94 47.57 69.4 38"/><polygon class="cls-3" points="81.84 38 77.09 52 92.94 52 81.84 38"/><polygon class="cls-3" points="35.14 55 50.25 55 61.84 84.72 35.14 55"/><polygon class="cls-3" points="53.78 55 74.94 55 63.85 80.69 53.78 55"/><polygon class="cls-3" points="77.96 55 92.57 55 66.37 84.22 77.96 55"/></g></g></svg>