<svg xmlns="http://www.w3.org/2000/svg" xmlns:xlink="http://www.w3.org/1999/xlink" viewBox="0 0 96 96"><defs><style>.cls-1{fill:url(#未命名的渐变_15);}.cls-2{fill:url(#未命名的渐变_189);}.cls-3{fill:#a80030;}.cls-4{fill:#f2d5a5;}.cls-5{fill:#f9f9f9;}.cls-6{fill:#5d5d5d;}</style><linearGradient id="未命名的渐变_15" x1="48" y1="708" x2="48" y2="792" gradientTransform="translate(0 -702)" gradientUnits="userSpaceOnUse"><stop offset="0" stop-color="#edb281"/><stop offset="1" stop-color="#eaa065"/></linearGradient><linearGradient id="未命名的渐变_189" x1="63.92" y1="775.19" x2="70.54" y2="780.7" gradientTransform="translate(0 -702)" gradientUnits="userSpaceOnUse"><stop offset="0" stop-color="#fff" stop-opacity="0.4"/><stop offset="1" stop-color="#fff" stop-opacity="0.2"/></linearGradient></defs><title>96</title><g id="压缩文件_复制"><g id="_96" data-name="96"><g id="底色-浅橙"><path id="_48" data-name=" 48" class="cls-1" d="M82,69V15a9,9,0,0,0-9-9H23a9,9,0,0,0-9,9V81a9,9,0,0,0,9,9H61.16Z"/><path class="cls-2" d="M68,69H82L61,90V76A7,7,0,0,1,68,69Z"/></g><path class="cls-3" d="M69,28.15c-.41,0,.08.21.62.3.15-.12.28-.24.4-.35a3.16,3.16,0,0,1-1,0"/><path class="cls-3" d="M71.17,27.6a2.65,2.65,0,0,0,.48-1.09,2.57,2.57,0,0,1-.34.76c-.77.48-.07-.29,0-.59-.83,1.05-.11.63-.14.92"/><path class="cls-3" d="M72,25.47c0-.74-.14-.5-.21-.22.08,0,.14.52.21.22"/><path class="cls-3" d="M67.39,15.32c.22,0,.47.07.44.12.24,0,.29-.1-.44-.12"/><path class="cls-3" d="M67.83,15.44l-.16,0,.15,0v0"/><path class="cls-3" d="M74.69,25.76a3.56,3.56,0,0,1-.39,1.56l-.36.18c-.29.56,0,.36-.18.81a9.74,9.74,0,0,1-1.68,1.34c-.21,0,.15-.25.2-.35-.61.42-.49.63-1.42.88l0-.06c-2.3,1.08-5.5-1.06-5.45-4,0,.18-.07.13-.12.21a3.69,3.69,0,0,1,2.06-3.64,3.49,3.49,0,0,1,3.88.51,3.46,3.46,0,0,0-2.82-1.36,3.21,3.21,0,0,0-2.75,1.64c-.62.39-.69,1.52-1,1.72-.36,2.7.69,3.86,2.48,5.23.28.19.08.22.12.36a4.77,4.77,0,0,1-1.59-1.21,4,4,0,0,0,.83.95c-.56-.19-1.31-1.36-1.53-1.4,1,1.72,3.91,3,5.46,2.38A6.33,6.33,0,0,1,68,31.25c-.33-.18-.79-.53-.71-.6a6,6,0,0,0,6.11-.87c.46-.36,1-1,1.12-1-.23.33,0,.16-.14.45.47-.75-.2-.3.48-1.29l.25.35c-.09-.62.77-1.37.68-2.35.2-.3.22.32,0,1,.3-.76.08-.89.16-1.52.08.21.18.44.24.66a2.86,2.86,0,0,1,.29-1.67c-.1,0-.3.33-.34-.55,0-.37.1-.19.14-.29a1.69,1.69,0,0,1-.39-.89c.09-.13.23.34.35.36A10.63,10.63,0,0,1,76,22c-.34-.71-.12.1-.4-.31-.36-1.13.3-.26.35-.77a8.85,8.85,0,0,1,1,2.55,10,10,0,0,0-.51-1.82c.17.07-.27-1.29.22-.39a8.1,8.1,0,0,0-3.8-4.55c.19.18.43.4.35.43-.78-.46-.65-.5-.76-.7-.64-.25-.68,0-1.1,0a13.41,13.41,0,0,0-2.54-1l0,.23c-.79-.26-.92.1-1.78,0,0,0,.27-.15.54-.18-.77.1-.73-.16-1.48,0a5.39,5.39,0,0,1,.58-.32c-.63,0-1.5.36-1.23.06a14.53,14.53,0,0,0-3.86,2.06l0-.22c-.47.56-2,1.68-2.16,2.4l-.13,0c-.24.42-.4.88-.59,1.3s-.47.21-.42.3a19.78,19.78,0,0,0-1.21,3.2,18.22,18.22,0,0,1,.08,2.87c-.31,5.67,4,11.18,8.67,12.45a9.11,9.11,0,0,0,2.58.26c-1-.29-1.16-.15-2.16-.5-.72-.34-.87-.73-1.39-1.17l.21.36c-1-.36-.59-.44-1.4-.7l.21-.28a1.86,1.86,0,0,1-1-.84h-.36a2.18,2.18,0,0,1-.64-1.2l-.11.21c-.13-.23-1.57-2-.82-1.57a1.74,1.74,0,0,1-.53-.57l.15-.17A2.92,2.92,0,0,1,60,32.21a.77.77,0,0,0,.45.35c-.91-2.25-1-.12-1.64-2.29H59a5.28,5.28,0,0,1-.27-.53l.06-.63c-.65-.76-.18-3.22-.08-4.57a12.29,12.29,0,0,1,.91-2l-.22,0c.42-.74,2.43-3,3.35-2.87.45-.56-.09,0-.17-.14,1-1,1.29-.72,2-.91.72-.42-.62.17-.27-.16,1.24-.32.88-.72,2.5-.88.17.09-.4.15-.54.27a6.73,6.73,0,0,1,4.73.28,6.93,6.93,0,0,1,3.66,5.32l.09,0a10.27,10.27,0,0,1-.17,2.8l.2-.43"/><path class="cls-3" d="M64.45,28.72l-.06.29a5.41,5.41,0,0,0,.83,1c-.24-.48-.43-.68-.77-1.34"/><path class="cls-3" d="M65.09,28.69a2.26,2.26,0,0,1-.32-.54,3.42,3.42,0,0,0,.45.92l-.13-.38"/><path class="cls-3" d="M76.43,26.23l-.06.15a7.19,7.19,0,0,1-.72,2.29,7,7,0,0,0,.78-2.44"/><path class="cls-3" d="M67.47,15.12c.28-.1.68,0,1-.12-.38,0-.77.05-1.15.1l.17,0"/><path class="cls-3" d="M57.68,20.33c.06.59-.45.83.11.43.3-.67-.12-.18-.11-.43"/><path class="cls-3" d="M57,23.08a6.11,6.11,0,0,0,.2-.86c-.36.46-.16.55-.2.86"/><rect class="cls-4" x="44" y="6" width="8" height="84"/><rect class="cls-5" x="21" y="62" width="18" height="12"/><rect class="cls-6" x="35" y="64" width="2" height="8"/><rect class="cls-6" x="31" y="64" width="2" height="8"/><rect class="cls-6" x="27" y="64" width="2" height="8"/><rect class="cls-6" x="23" y="64" width="2" height="8"/></g></g></svg>