<?xml version="1.0" encoding="utf-8"?>
<!-- Generator: Adobe Illustrator 24.0.0, SVG Export Plug-In . SVG Version: 6.00 Build 0)  -->
<svg version="1.1" id="图层_1" xmlns="http://www.w3.org/2000/svg" xmlns:xlink="http://www.w3.org/1999/xlink" x="0px" y="0px"
	 viewBox="0 0 96 96" enable-background="new 0 0 96 96" xml:space="preserve">
<title>96</title>
<g id="libreoffice">
	<g id="libreoffice-document">
		<g id="_96">
			<g id="_48">
				
					<linearGradient id="SVGID_1_" gradientUnits="userSpaceOnUse" x1="48" y1="90" x2="48" y2="6" gradientTransform="matrix(1 0 0 -1 0 96)">
					<stop  offset="0" style="stop-color:#FFFFFF"/>
					<stop  offset="1" style="stop-color:#CCDCE5"/>
				</linearGradient>
				<path fill="url(#SVGID_1_)" d="M82,69V15c0-5-4-9-9-9H23c-5,0-9,4-9,9v66c0,5,4,9,9,9h38.2L82,69z"/>
				
					<linearGradient id="SVGID_2_" gradientUnits="userSpaceOnUse" x1="48" y1="90" x2="48" y2="6" gradientTransform="matrix(1 0 0 -1 0 96)">
					<stop  offset="0" style="stop-color:#1D9DD6"/>
					<stop  offset="1" style="stop-color:#0771AD"/>
				</linearGradient>
				<path fill="url(#SVGID_2_)" d="M73,10c2.8,0,5,2.2,5,5v52.3L59.5,86H23c-2.8,0-5-2.2-5-5V15c0-2.8,2.2-5,5-5H73 M73,6H23
					c-5,0-9,4-9,9v66c0,5,4,9,9,9h38.2L82,69V15C82,10,78,6,73,6z"/>
			</g>
			
				<linearGradient id="SVGID_3_" gradientUnits="userSpaceOnUse" x1="63.6598" y1="-678.9703" x2="70.4798" y2="-684.6503" gradientTransform="matrix(1 0 0 -1 0 -606)">
				<stop  offset="0" style="stop-color:#1C9BD5;stop-opacity:0.5"/>
				<stop  offset="1" style="stop-color:#0771AD;stop-opacity:0.7"/>
			</linearGradient>
			<path fill="url(#SVGID_3_)" d="M67,69h15L61,90V75C61,71.7,63.7,69,67,69z"/>
			<rect x="26" y="24" fill="#0771AD" width="15" height="3"/>
			<rect x="26" y="30" fill="#0771AD" width="15" height="3"/>
			<rect x="26" y="36" fill="#0771AD" width="15" height="3"/>
			<rect x="26" y="42" fill="#0771AD" width="15" height="3"/>
			<rect x="26" y="51" fill="#0771AD" width="45" height="3"/>
			<rect x="26" y="57" fill="#0771AD" width="45" height="3"/>
			<rect x="26" y="63" fill="#0771AD" width="27" height="3"/>
			<path fill="#63BBEE" d="M69,26H46v19h23V26z"/>
			<path fill="#006837" d="M69.5,40.3L69.5,40.3L69.3,40L69.5,40.3z"/>
			<polygon fill="#7E7F7F" points="51,33.5 46,41 56,41 			"/>
			<rect x="45.5" y="41" fill="#106802" width="24" height="3"/>
			<polygon fill="#666666" points="63.5,36.5 58,44 68.5,44 			"/>
			<path fill="#D4EC42" d="M68.8,31H69v-5h-5C64,28.7,66.1,30.9,68.8,31z"/>
			<path fill="#0071BC" d="M68,27v16H47V27H68 M71,24H44v22h27V24z"/>
		</g>
	</g>
</g>
</svg>
