<?xml version="1.0" encoding="utf-8"?>
<!-- Generator: Adobe Illustrator 24.0.0, SVG Export Plug-In . SVG Version: 6.00 Build 0)  -->
<svg version="1.1" id="图层_1" xmlns="http://www.w3.org/2000/svg" xmlns:xlink="http://www.w3.org/1999/xlink" x="0px" y="0px"
	 viewBox="0 0 96 96" enable-background="new 0 0 96 96" xml:space="preserve">
<title>96</title>
<g id="libreoffice">
	<g id="libreoffice-document_复制_3">
		<g id="_94">
			<g id="_48">
				
					<linearGradient id="SVGID_1_" gradientUnits="userSpaceOnUse" x1="48" y1="90" x2="48" y2="6" gradientTransform="matrix(1 0 0 -1 0 96)">
					<stop  offset="0" style="stop-color:#FFFFFF"/>
					<stop  offset="1" style="stop-color:#F9E6DE"/>
				</linearGradient>
				<path fill="url(#SVGID_1_)" d="M82,69V15c0-5-4-9-9-9H23c-5,0-9,4-9,9v66c0,5,4,9,9,9h38L82,69z"/>
				
					<linearGradient id="SVGID_2_" gradientUnits="userSpaceOnUse" x1="48" y1="90" x2="48" y2="6" gradientTransform="matrix(1 0 0 -1 0 96)">
					<stop  offset="0" style="stop-color:#E07032"/>
					<stop  offset="1" style="stop-color:#C25410"/>
				</linearGradient>
				<path fill="url(#SVGID_2_)" d="M73,10c2.8,0,5,2.2,5,5v52.3L59.3,86H23c-2.8,0-5-2.2-5-5V15c0-2.8,2.2-5,5-5H73 M73,6H23
					c-5,0-9,4-9,9v66c0,5,4,9,9,9h38l21-21V15C82,10,78,6,73,6z"/>
			</g>
			
				<linearGradient id="SVGID_3_" gradientUnits="userSpaceOnUse" x1="63.6598" y1="-678.9703" x2="70.4798" y2="-684.6503" gradientTransform="matrix(1 0 0 -1 0 -606)">
				<stop  offset="0" style="stop-color:#E07032;stop-opacity:0.5"/>
				<stop  offset="1" style="stop-color:#C25410;stop-opacity:0.7"/>
			</linearGradient>
			<path fill="url(#SVGID_3_)" d="M67,69h15L61,90V75C61,71.7,63.7,69,67,69z"/>
			<rect x="32" y="49" fill="#C25410" width="3" height="3"/>
			<rect x="32" y="43" fill="#C25410" width="3" height="3"/>
			<rect x="32" y="37" fill="#C25410" width="3" height="3"/>
			<polygon fill="#4F4F4F" points="51,58 55,58 55,55 41,55 41,58 45,58 40,65 44,65 48,60 52,65 56,65 			"/>
			<path fill="#C25410" d="M67,28v27H29V28H67 M70,25H26v33h44V25z"/>
			<rect x="32" y="31" fill="#C25410" width="32" height="3"/>
			<rect x="37" y="49" fill="#C25410" width="9" height="3"/>
			<rect x="37" y="43" fill="#C25410" width="9" height="3"/>
			<rect x="37" y="37" fill="#C25410" width="9" height="3"/>
			<g opacity="0.4">
				<path fill="#808080" d="M48,37v15h16V37H48z"/>
			</g>
			<polyline fill="none" stroke="#009245" stroke-width="2" stroke-linecap="round" stroke-linejoin="round" points="48.5,50.5 
				53.5,43 58.5,48 61,40.5 64,45 			"/>
		</g>
	</g>
</g>
</svg>
