<?xml version="1.0" encoding="utf-8"?>
<!-- Generator: Adobe Illustrator 24.0.0, SVG Export Plug-In . SVG Version: 6.00 Build 0)  -->
<svg version="1.1" id="图层_1" xmlns="http://www.w3.org/2000/svg" xmlns:xlink="http://www.w3.org/1999/xlink" x="0px" y="0px"
	 viewBox="0 0 96 96" enable-background="new 0 0 96 96" xml:space="preserve">
<title>96</title>
<g id="蓝底">
	<g id="_96">
		
			<linearGradient id="_48_1_" gradientUnits="userSpaceOnUse" x1="48" y1="64" x2="48" y2="-20" gradientTransform="matrix(1 0 0 1 0 26)">
			<stop  offset="0" style="stop-color:#3F95EA"/>
			<stop  offset="1" style="stop-color:#4AA6E5"/>
		</linearGradient>
		<path id="_48" fill="url(#_48_1_)" d="M82,69V15c0-5-4-9-9-9H23c-5,0-9,4-9,9v66c0,5,4,9,9,9h38L82,69z"/>
		
			<linearGradient id="SVGID_1_" gradientUnits="userSpaceOnUse" x1="63.6598" y1="46.9703" x2="70.4798" y2="52.6503" gradientTransform="matrix(1 0 0 1 0 26)">
			<stop  offset="0" style="stop-color:#FFFFFF;stop-opacity:0.4"/>
			<stop  offset="1" style="stop-color:#FFFFFF;stop-opacity:0.2"/>
		</linearGradient>
		<path fill="url(#SVGID_1_)" d="M67,69h15L61,90V75C61,71.7,63.7,69,67,69z"/>
		<path fill="none" stroke="#FFFFFF" stroke-miterlimit="10" d="M35.1,63.2v1.7c0,7.1,8.5,5.1,12.7,3.6c0.2,0,0.3-0.2,0.5-0.1
			c4.4,2,13,3.3,13-3V64"/>
		<path fill="none" stroke="#FFFFFF" stroke-linecap="round" stroke-linejoin="round" d="M37.4,34.6c0,1.5-8.7,17.5-4.8,25.3
			s11.2,5.4,15.4,3.9c0.2-0.1,0.3-0.2,0.5-0.2C53,65.7,63,66.8,65,57.2c1.7-8.5-6-21.4-6-22.2"/>
		<path fill="none" stroke="#FFFFFF" stroke-miterlimit="10" d="M61,39.3c0-0.7,4.7-10.6,1.3-15.8s-9.8-2.2-12-1.9c-2,0.2-4,0-6-0.4
			c-1.7-0.3-8.8-3.3-10.8,3.5c-1.7,5.8,1.7,14.3,1.7,15.4"/>
		<path fill="none" stroke="#FFFFFF" stroke-miterlimit="10" d="M34,22.5c-1.2-2.3-10.6-3.1-11-1.9s2.3,10,9.4,9.7"/>
		<path fill="none" stroke="#FFFFFF" stroke-miterlimit="10" d="M62,22.9c1.2-2.3,10.5-3.1,10.9-1.9s-2.3,10-9.4,9.7"/>
		<path fill="none" stroke="#FFFFFF" stroke-miterlimit="10" d="M38.8,28.8c0-1.5,6.2-1.9,6.2,0s-1.6,4.6-3.1,4.6
			C40,33.5,38.8,30.4,38.8,28.8z"/>
		<path fill="none" stroke="#FFFFFF" stroke-miterlimit="10" d="M51.3,28.8c0-1.5,6.2-1.9,6.2,0s-1.6,4.6-3.1,4.6
			C52.5,33.5,51.3,30.4,51.3,28.8z"/>
		<path fill="none" stroke="#FFFFFF" stroke-linecap="round" stroke-miterlimit="10" d="M40.4,42.8c0,0,4.3,10.4,7.8,10.4
			s7.4-10.4,7.4-10.4"/>
		<line fill="none" stroke="#FFFFFF" stroke-linecap="round" stroke-miterlimit="10" x1="48.2" y1="53.2" x2="48.2" y2="62.8"/>
	</g>
</g>
</svg>
