<svg xmlns="http://www.w3.org/2000/svg" xmlns:xlink="http://www.w3.org/1999/xlink" viewBox="0 0 96 96"><defs><style>.cls-1{fill:url(#未命名的渐变_19);}.cls-2{fill:url(#未命名的渐变_158);}.cls-3{fill:#907c3b;}.cls-4{fill:#eaeaea;}.cls-5{fill:none;stroke:#a08c53;stroke-linecap:round;stroke-linejoin:round;stroke-width:2px;}</style><linearGradient id="未命名的渐变_19" x1="48" y1="708" x2="48" y2="792" gradientTransform="translate(0 -702)" gradientUnits="userSpaceOnUse"><stop offset="0" stop-color="#feda3e"/><stop offset="1" stop-color="#e5b104"/></linearGradient><linearGradient id="未命名的渐变_158" x1="63.92" y1="775.19" x2="70.54" y2="780.7" gradientTransform="translate(0 -702)" gradientUnits="userSpaceOnUse"><stop offset="0" stop-color="#fff" stop-opacity="0.4"/><stop offset="1" stop-color="#fff" stop-opacity="0.2"/></linearGradient></defs><title>96</title><g id="压缩文件"><g id="_96" data-name="96"><g id="底色-浅橙"><path id="_48" data-name=" 48" class="cls-1" d="M82,69V15a9,9,0,0,0-9-9H23a9,9,0,0,0-9,9V81a9,9,0,0,0,9,9H61.16Z"/><path class="cls-2" d="M68,69H82L61,90V76A7,7,0,0,1,68,69Z"/></g><path class="cls-3" d="M28,50v8a5,5,0,0,0,5,5h1a5,5,0,0,0,5-5V50Zm8,10H31V56h5Z"/><rect class="cls-4" x="28" y="6" width="11" height="44"/><rect class="cls-3" x="32" y="9" width="7" height="3"/><rect class="cls-3" x="32" y="15" width="7" height="3"/><rect class="cls-3" x="32" y="21" width="7" height="3"/><rect class="cls-3" x="32" y="27" width="7" height="3"/><rect class="cls-3" x="32" y="33" width="7" height="3"/><rect class="cls-3" x="32" y="39" width="7" height="3"/><rect class="cls-3" x="32" y="45" width="7" height="3"/><rect class="cls-3" x="28" y="24" width="7" height="3"/><rect class="cls-3" x="28" y="18" width="7" height="3"/><rect class="cls-3" x="28" y="12" width="7" height="3"/><rect class="cls-3" x="28" y="6" width="7" height="3"/><rect class="cls-3" x="28" y="30" width="7" height="3"/><rect class="cls-3" x="28" y="42" width="7" height="3"/><rect class="cls-3" x="28" y="36" width="7" height="3"/><g id="zop"><polyline class="cls-5" points="58.19 53 65.87 53 58.19 62 65.87 62"/><polyline class="cls-5" points="45.23 49 53.63 49 48.97 63"/></g></g></g></svg>