<?xml version="1.0" encoding="utf-8"?>
<!-- Generator: Adobe Illustrator 24.0.0, SVG Export Plug-In . SVG Version: 6.00 Build 0)  -->
<svg version="1.1" id="图层_1" xmlns="http://www.w3.org/2000/svg" xmlns:xlink="http://www.w3.org/1999/xlink" x="0px" y="0px"
	 viewBox="0 0 96 96" enable-background="new 0 0 96 96" xml:space="preserve">
<title>96</title>
<g id="文档_复制">
	<g id="_96">
		
			<linearGradient id="_48_1_" gradientUnits="userSpaceOnUse" x1="48" y1="64" x2="48" y2="-20" gradientTransform="matrix(1 0 0 1 0 26)">
			<stop  offset="0" style="stop-color:#7868C1"/>
			<stop  offset="1" style="stop-color:#9881E5"/>
		</linearGradient>
		<path id="_48" fill="url(#_48_1_)" d="M82,69V15c0-5-4-9-9-9H23c-5,0-9,4-9,9v66c0,5,4,9,9,9h38L82,69z"/>
		
			<linearGradient id="SVGID_1_" gradientUnits="userSpaceOnUse" x1="63.6598" y1="46.9703" x2="70.4798" y2="52.6503" gradientTransform="matrix(1 0 0 1 0 26)">
			<stop  offset="0" style="stop-color:#FFFFFF;stop-opacity:0.4"/>
			<stop  offset="1" style="stop-color:#FFFFFF;stop-opacity:0.2"/>
		</linearGradient>
		<path fill="url(#SVGID_1_)" d="M67,69h15L61,90V75C61,71.7,63.7,69,67,69z"/>
		<path fill="none" stroke="#FFFFFF" stroke-width="3" stroke-miterlimit="10" d="M37.5,52.5L27,45.8l10.5-6.7"/>
		<path fill="none" stroke="#FFFFFF" stroke-width="3" stroke-miterlimit="10" d="M58.5,39.2L69,45.8l-10.5,6.7"/>
		<path fill="#FDFDFF" d="M54.4,39.2c0,1.1-0.3,2.2-0.8,3.2c-0.5,1-1.3,1.9-2.2,2.5c-0.8,0.6-1.4,1.3-1.9,2.2
			c-0.3,0.5-0.5,1-0.5,1.5v0.9h-2.4v-1.3c0-0.8,0.2-1.6,0.6-2.3c0.6-0.9,1.3-1.8,2.1-2.5c0.6-0.5,1.1-1.2,1.5-1.9
			c0.3-0.6,0.4-1.3,0.4-2c0.1-0.9-0.2-1.9-0.8-2.6c-0.6-0.6-1.4-0.9-2.3-0.9c-1,0-1.9,0.4-2.5,1.1c-0.8,1.1-1.1,2.4-1,3.7h-3.1
			c-0.1-2,0.6-4,2-5.6c1.2-1.2,2.9-1.8,4.6-1.8c1.7-0.1,3.4,0.5,4.6,1.7C53.9,36.1,54.5,37.6,54.4,39.2z M49.3,56.6h-3v-3.2h3V56.6z
			"/>
	</g>
</g>
</svg>
