<?xml version="1.0" encoding="utf-8"?>
<!-- Generator: Adobe Illustrator 24.0.0, SVG Export Plug-In . SVG Version: 6.00 Build 0)  -->
<svg version="1.1" id="图层_1" xmlns="http://www.w3.org/2000/svg" xmlns:xlink="http://www.w3.org/1999/xlink" x="0px" y="0px"
	 viewBox="0 0 96 96" enable-background="new 0 0 96 96" xml:space="preserve">
<title>96</title>
<g id="libreoffice">
	<g id="libreoffice-math_复制">
		<g id="_96">
			<g id="_48">
				
					<linearGradient id="SVGID_1_" gradientUnits="userSpaceOnUse" x1="48" y1="90" x2="48" y2="6" gradientTransform="matrix(1 0 0 -1 0 96)">
					<stop  offset="0" style="stop-color:#FFFFFF"/>
					<stop  offset="1" style="stop-color:#CCDCE5"/>
				</linearGradient>
				<path fill="url(#SVGID_1_)" d="M82,69V15c0-5-4-9-9-9H23c-5,0-9,4-9,9v66c0,5,4,9,9,9h38.2L82,69z"/>
				
					<linearGradient id="SVGID_2_" gradientUnits="userSpaceOnUse" x1="48" y1="90" x2="48" y2="6" gradientTransform="matrix(1 0 0 -1 0 96)">
					<stop  offset="0" style="stop-color:#727272"/>
					<stop  offset="1" style="stop-color:#606060"/>
				</linearGradient>
				<path fill="url(#SVGID_2_)" d="M73,10c2.8,0,5,2.2,5,5v52.3L59.5,86H23c-2.8,0-5-2.2-5-5V15c0-2.8,2.2-5,5-5H73 M73,6H23
					c-5,0-9,4-9,9v66c0,5,4,9,9,9h38.2L82,69V15C82,10,78,6,73,6z"/>
			</g>
			
				<linearGradient id="SVGID_3_" gradientUnits="userSpaceOnUse" x1="63.6598" y1="-678.9703" x2="70.4798" y2="-684.6503" gradientTransform="matrix(1 0 0 -1 0 -606)">
				<stop  offset="0" style="stop-color:#727272;stop-opacity:0.5"/>
				<stop  offset="1" style="stop-color:#606060;stop-opacity:0.7"/>
			</linearGradient>
			<path fill="url(#SVGID_3_)" d="M67,69h15L61,90V75C61,71.7,63.7,69,67,69z"/>
			<rect x="51" y="22" fill="#B5DCF2" width="20" height="20"/>
			<rect x="51" y="34" fill="#1B5576" width="15" height="3"/>
			<rect x="51" y="28" fill="#1B5F87" width="20" height="3"/>
			<rect x="51" y="22" fill="#03669F" width="20" height="3"/>
			<rect x="25" y="22" fill="#B5DCF2" width="20" height="20"/>
			<rect x="25" y="34" fill="#1B5576" width="15" height="3"/>
			<rect x="25" y="28" fill="#1B5F87" width="20" height="3"/>
			<rect x="25" y="22" fill="#03669F" width="20" height="3"/>
			<rect x="51" y="46" fill="#B5DCF2" width="20" height="20"/>
			<rect x="51" y="58" fill="#1B5576" width="15" height="3"/>
			<rect x="51" y="52" fill="#1B5F87" width="20" height="3"/>
			<rect x="51" y="46" fill="#03669F" width="20" height="3"/>
			<rect x="25" y="46" fill="#B5DCF2" width="20" height="20"/>
			<rect x="25" y="58" fill="#1B5576" width="15" height="3"/>
			<rect x="25" y="52" fill="#1B5F87" width="20" height="3"/>
			<rect x="25" y="46" fill="#03669F" width="20" height="3"/>
		</g>
	</g>
</g>
</svg>
