<?xml version="1.0" encoding="utf-8"?>
<!-- Generator: Adobe Illustrator 24.0.0, SVG Export Plug-In . SVG Version: 6.00 Build 0)  -->
<svg version="1.1" id="图层_1" xmlns="http://www.w3.org/2000/svg" xmlns:xlink="http://www.w3.org/1999/xlink" x="0px" y="0px"
	 viewBox="0 0 96 96" enable-background="new 0 0 96 96" xml:space="preserve">
<title>96</title>
<g id="白色">
	<g id="_96">
		<g id="_48">
			
				<linearGradient id="SVGID_1_" gradientUnits="userSpaceOnUse" x1="48" y1="6.5" x2="48" y2="89.5" gradientTransform="matrix(1 0 0 -1 0 96)">
				<stop  offset="0" style="stop-color:#D6D9E6"/>
				<stop  offset="1" style="stop-color:#F5F5F5"/>
			</linearGradient>
			<path fill="url(#SVGID_1_)" d="M23,89.5c-4.7,0-8.5-3.8-8.5-8.5V15c0-4.7,3.8-8.5,8.5-8.5h50c4.7,0,8.5,3.8,8.5,8.5v53.8
				L60.8,89.5H23z"/>
			<path fill="#C4C6CC" d="M73,7c4.4,0,8,3.6,8,8v53.6L60.6,89H23c-4.4,0-8-3.6-8-8V15c0-4.4,3.6-8,8-8H73 M73,6H23c-5,0-9,4-9,9v66
				c0,5,4,9,9,9h38l21-21V15C82,10,78,6,73,6z"/>
		</g>
		
			<linearGradient id="SVGID_2_" gradientUnits="userSpaceOnUse" x1="63.6598" y1="46.9703" x2="70.4798" y2="52.6503" gradientTransform="matrix(1 0 0 1 0 26)">
			<stop  offset="0" style="stop-color:#000000;stop-opacity:0.1"/>
			<stop  offset="1" style="stop-color:#000000;stop-opacity:5.000000e-02"/>
		</linearGradient>
		<path fill="url(#SVGID_2_)" d="M67,69h15L61,90V75C61,71.7,63.7,69,67,69z"/>
		<g id="_64">
			<path fill="#065493" d="M48,20c-13.3,0-24,10.7-24,24s10.7,24,24,24s24-10.7,24-24S61.3,20,48,20z M48,46.5
				c-1.4,0-2.5-1.1-2.5-2.5s1.1-2.5,2.5-2.5s2.5,1.1,2.5,2.5l0,0c0,1.3-1,2.5-2.4,2.5C48.1,46.5,48,46.5,48,46.5z"/>
			<path fill="#1580C3" d="M47.9,21.7c-12.3,0-22.3,10.1-22.3,22.4s10.1,22.3,22.4,22.3c12.3,0,22.3-10,22.3-22.3
				C70.3,31.7,60.3,21.7,47.9,21.7C48,21.7,47.9,21.7,47.9,21.7z M48,47.3c-1.8,0-3.3-1.5-3.3-3.3s1.5-3.3,3.3-3.3
				c1.8,0,3.3,1.5,3.3,3.3C51.3,45.8,49.8,47.3,48,47.3z"/>
			<path fill="#F6F5F5" d="M48,23.3c-11.4,0-20.7,9.3-20.7,20.7S36.6,64.7,48,64.7S68.7,55.4,68.7,44C68.7,32.6,59.4,23.3,48,23.3z
				 M48,47.3c-1.8,0-3.3-1.5-3.3-3.3s1.5-3.3,3.3-3.3c1.8,0,3.3,1.5,3.3,3.3l0,0C51.3,45.8,49.8,47.3,48,47.3z"/>
			<path fill="#2EA7E0" d="M48,28.3c-8.7,0-15.7,7-15.7,15.7s7,15.7,15.7,15.7s15.7-7,15.7-15.7C63.7,35.3,56.7,28.3,48,28.3
				C48,28.3,48,28.3,48,28.3z M48,49.8c-3.2,0-5.8-2.6-5.8-5.8c0-3.2,2.6-5.8,5.8-5.8c3.2,0,5.8,2.6,5.8,5.8
				C53.8,47.2,51.3,49.8,48,49.8C48.1,49.8,48,49.8,48,49.8z"/>
			<g opacity="0.6">
				<path fill="#FFFFFF" d="M54.3,44l9.4,0.7c0.2-2.3-0.1-4.6-1.1-6.7l-8.9,3.2C54.1,42.1,54.3,43.1,54.3,44"/>
				<path fill="#FFFFFF" d="M41.4,43.1l-9.3-0.7c-0.3,2.2,0,4.5,0.8,6.6l8.8-3.3C42.1,44.6,41.4,44,41.4,43.1"/>
			</g>
			<g opacity="0.6">
				<path fill="#FFFFFF" d="M53.3,40.2l8.1-4.7c0,0-2.2-3.5-4.9-4.9l-5.2,7.6C52.2,38.7,52.8,39.4,53.3,40.2"/>
				<path fill="#FFFFFF" d="M42.2,46.7L34,51.5c1.4,2.3,2.2,3.6,4.5,5.1l5.5-7.8C42.9,48.4,42.7,47.4,42.2,46.7"/>
			</g>
			<path fill="none" stroke="#1580C3" stroke-miterlimit="10" d="M48,37.8c-3.4,0-6.2,2.8-6.2,6.2c0,3.4,2.8,6.2,6.2,6.2
				c3.4,0,6.2-2.8,6.2-6.2l0,0l0,0c0.1-3.3-2.6-6.1-5.9-6.2H48"/>
		</g>
	</g>
</g>
</svg>
