<svg xmlns="http://www.w3.org/2000/svg" xmlns:xlink="http://www.w3.org/1999/xlink" viewBox="0 0 96 96"><defs><style>.cls-1{fill:url(#未命名的渐变_33);}.cls-2{fill:url(#未命名的渐变_218);}.cls-3{opacity:0.4;}.cls-4{fill:#fff;}.cls-5,.cls-6,.cls-7{fill:none;stroke:#fff;stroke-miterlimit:10;}.cls-5{stroke-width:2px;}.cls-6{stroke-linecap:round;}.cls-6,.cls-7{stroke-width:4px;}</style><linearGradient id="未命名的渐变_33" x1="48" y1="708" x2="48" y2="792" gradientTransform="translate(0 -702)" gradientUnits="userSpaceOnUse"><stop offset="0" stop-color="#d54549"/><stop offset="1" stop-color="#cc353a"/></linearGradient><linearGradient id="未命名的渐变_218" x1="63.92" y1="775.19" x2="70.54" y2="780.7" gradientTransform="translate(0 -702)" gradientUnits="userSpaceOnUse"><stop offset="0" stop-color="#fff" stop-opacity="0.4"/><stop offset="1" stop-color="#fff" stop-opacity="0.2"/></linearGradient></defs><title>96</title><g id="WPS"><g id="A"><g id="_96" data-name="96"><g id="底色-浅橙"><path id="_48" data-name=" 48" class="cls-1" d="M82,69V15a9,9,0,0,0-9-9H23a9,9,0,0,0-9,9V81a9,9,0,0,0,9,9H61.16Z"/><path class="cls-2" d="M68,69H82L61,90V76A7,7,0,0,1,68,69Z"/></g><g class="cls-3"><path class="cls-4" d="M48,56c5.53,0,8.88,1.26,9.82,2-.94.74-4.29,2-9.82,2s-8.88-1.26-9.82-2c.94-.74,4.29-2,9.82-2m0-2c-6.63,0-12,1.79-12,4s5.37,4,12,4,12-1.79,12-4-5.37-4-12-4Z"/><path class="cls-5" d="M37,63.33c0,2,4.92,3.67,11,3.67s11-1.64,11-3.67"/><path class="cls-5" d="M37,69.33c0,2,4.92,3.67,11,3.67s11-1.64,11-3.67"/><line class="cls-5" x1="59" y1="58" x2="59" y2="69.5"/><line class="cls-5" x1="37" y1="69.5" x2="37" y2="58"/></g><line class="cls-6" x1="48" y1="20" x2="67" y2="57"/><line class="cls-6" x1="48" y1="20" x2="29" y2="57"/><line class="cls-7" x1="36" y1="44" x2="59" y2="44"/></g></g></g></svg>