<?xml version="1.0" encoding="utf-8"?>
<!-- Generator: Adobe Illustrator 24.0.0, SVG Export Plug-In . SVG Version: 6.00 Build 0)  -->
<svg version="1.1" id="图层_1" xmlns="http://www.w3.org/2000/svg" xmlns:xlink="http://www.w3.org/1999/xlink" x="0px" y="0px"
	 viewBox="0 0 96 96" enable-background="new 0 0 96 96" xml:space="preserve">
<title>96</title>
<g id="压缩文件_复制_2">
	<g id="_96">
		<g id="底色-浅橙">
			
				<linearGradient id="_48_1_" gradientUnits="userSpaceOnUse" x1="48" y1="-612" x2="48" y2="-696" gradientTransform="matrix(1 0 0 -1 0 -606)">
				<stop  offset="0" style="stop-color:#9CCE45"/>
				<stop  offset="1" style="stop-color:#66AF12"/>
			</linearGradient>
			<path id="_48" fill="url(#_48_1_)" d="M82,69V15c0-5-4-9-9-9H23c-5,0-9,4-9,9v66c0,5,4,9,9,9h38.2L82,69z"/>
			
				<linearGradient id="SVGID_1_" gradientUnits="userSpaceOnUse" x1="63.9195" y1="-679.1906" x2="70.5395" y2="-684.7006" gradientTransform="matrix(1 0 0 -1 0 -606)">
				<stop  offset="0" style="stop-color:#FFFFFF;stop-opacity:0.4"/>
				<stop  offset="1" style="stop-color:#FFFFFF;stop-opacity:0.2"/>
			</linearGradient>
			<path fill="url(#SVGID_1_)" d="M68,69h14L61,90V76C61,72.1,64.1,69,68,69z"/>
		</g>
		
			<line fill="none" stroke="#5C8435" stroke-width="3" stroke-linecap="round" stroke-linejoin="round" x1="32.5" y1="45.5" x2="40.3" y2="53.3"/>
		
			<line fill="none" stroke="#5C8435" stroke-width="3" stroke-linecap="round" stroke-linejoin="round" x1="63.5" y1="45.5" x2="56.2" y2="52.8"/>
		<path fill="#5C8535" d="M48,48c-10.5,0-19,8.5-19,19h38C67,56.5,58.5,48,48,48z M42,61h-4v-4h4V61z M58,61h-4v-4h4V61z"/>
		
			<linearGradient id="SVGID_2_" gradientUnits="userSpaceOnUse" x1="38" y1="66.19" x2="38" y2="57.73" gradientTransform="matrix(1 0 0 -1 0 96)">
			<stop  offset="0" style="stop-color:#6A8F46"/>
			<stop  offset="1" style="stop-color:#5E8537"/>
		</linearGradient>
		<path fill="url(#SVGID_2_)" d="M33,28v7c0,2.8,2.2,5,5,5l0,0c2.8,0,5-2.2,5-5v-7H33z M40,37h-4v-4h4V37z"/>
		<rect x="33" y="6" fill="#DCEDC0" width="10" height="22"/>
		<rect x="37" y="8" fill="#5C8435" width="6" height="2"/>
		<rect x="37" y="12" fill="#5C8435" width="6" height="2"/>
		<rect x="37" y="16" fill="#5C8435" width="6" height="2"/>
		<rect x="37" y="20" fill="#5C8435" width="6" height="2"/>
		<rect x="37" y="24" fill="#5C8435" width="6" height="2"/>
		<rect x="33" y="18" fill="#5C8535" width="6" height="2"/>
		<rect x="33" y="14" fill="#5C8535" width="6" height="2"/>
		<rect x="33" y="22" fill="#5C8535" width="6" height="2"/>
		<rect x="33" y="10" fill="#5C8535" width="6" height="2"/>
		<rect x="33" y="6" fill="#5C8535" width="6" height="2"/>
	</g>
</g>
</svg>
