<?xml version="1.0" encoding="utf-8"?>
<!-- Generator: Adobe Illustrator 24.0.0, SVG Export Plug-In . SVG Version: 6.00 Build 0)  -->
<svg version="1.1" id="图层_1" xmlns="http://www.w3.org/2000/svg" xmlns:xlink="http://www.w3.org/1999/xlink" x="0px" y="0px"
	 viewBox="0 0 96 96" enable-background="new 0 0 96 96" xml:space="preserve">
<title>96</title>
<g id="阅读器">
	<g id="_96">
		<g id="底色-浅橙">
			
				<linearGradient id="_48_1_" gradientUnits="userSpaceOnUse" x1="48" y1="-612" x2="48" y2="-696" gradientTransform="matrix(1 0 0 -1 0 -606)">
				<stop  offset="0" style="stop-color:#F34236"/>
				<stop  offset="1" style="stop-color:#E23932"/>
			</linearGradient>
			<path id="_48" fill="url(#_48_1_)" d="M82,69V15c0-5-4-9-9-9H23c-5,0-9,4-9,9v66c0,5,4,9,9,9h38.2L82,69z"/>
			
				<linearGradient id="SVGID_1_" gradientUnits="userSpaceOnUse" x1="63.9195" y1="-679.1906" x2="70.5395" y2="-684.7006" gradientTransform="matrix(1 0 0 -1 0 -606)">
				<stop  offset="0" style="stop-color:#FFFFFF;stop-opacity:0.4"/>
				<stop  offset="1" style="stop-color:#FFFFFF;stop-opacity:0.2"/>
			</linearGradient>
			<path fill="url(#SVGID_1_)" d="M68,69h14L61,90V76C61,72.1,64.1,69,68,69z"/>
		</g>
		<path fill="#FFFFFF" d="M36,62h-7c-2.8,0-5-2.2-5-5V34c0-2.8,2.2-5,5-5h12.5L28.1,45c3.6-1,7.4-0.6,10.6,1.2
			c4.9,2.5,5.3,6.7,5.3,6.7c0.3,2-0.4,4-1.7,5.6C39.6,61.3,37.8,62,36,62z"/>
		<path fill="#FFFFFF" d="M67,62H39c0,0,1.8-0.1,4.5-2.5c4.4-4,15-30.5,15-30.5H67c2.8,0,5,2.2,5,5c0,0,0,0,0,0v23
			C72,59.8,69.8,62,67,62z"/>
		<path fill="#FFFFFF" d="M34.5,41.1c1.7,0.2,3.3,0.9,4.6,1.9c3.7,2.5,6.8,6.8,6.3,11.5c0.5-1,0.7-2.1,0.7-3.3
			c0-3.4-1.9-6.8-4.1-9.1c-0.7-0.9-1.5-1.7-2.5-2.2l11.3-13.4l2.7-3.2c0.2-0.2,0.8-0.8,0.7-1.2s-0.8-0.5-1-0.7
			c-0.3-0.2-1-0.5-1.4-0.3s-0.7,0.7-1,1l-2,2.4L38.9,36C38.9,36,34.7,40.4,34.5,41.1z"/>
		<path fill="#FFFFFF" d="M47,22.5L33.9,38.1v-3.5l10.4-11.8c0.3-0.3,0.7-0.4,1.1-0.5C46,22.3,46.5,22.4,47,22.5z"/>
	</g>
</g>
</svg>
