<?xml version="1.0" encoding="utf-8"?>
<!-- Generator: Adobe Illustrator 24.0.0, SVG Export Plug-In . SVG Version: 6.00 Build 0)  -->
<svg version="1.1" id="图层_1" xmlns="http://www.w3.org/2000/svg" xmlns:xlink="http://www.w3.org/1999/xlink" x="0px" y="0px"
	 viewBox="0 0 96 96" enable-background="new 0 0 96 96" xml:space="preserve">
<title>96</title>
<g id="TS">
	<g id="_96">
		
			<linearGradient id="_48_1_" gradientUnits="userSpaceOnUse" x1="48" y1="64" x2="48" y2="-20" gradientTransform="matrix(1 0 0 1 0 26)">
			<stop  offset="0" style="stop-color:#0074C1"/>
			<stop  offset="1" style="stop-color:#028ECC"/>
		</linearGradient>
		<path id="_48" fill="url(#_48_1_)" d="M82,69V15c0-5-4-9-9-9H23c-5,0-9,4-9,9v66c0,5,4,9,9,9h38L82,69z"/>
		
			<linearGradient id="SVGID_1_" gradientUnits="userSpaceOnUse" x1="63.6598" y1="46.9703" x2="70.4798" y2="52.6503" gradientTransform="matrix(1 0 0 1 0 26)">
			<stop  offset="0" style="stop-color:#FFFFFF;stop-opacity:0.4"/>
			<stop  offset="1" style="stop-color:#FFFFFF;stop-opacity:0.2"/>
		</linearGradient>
		<path fill="url(#SVGID_1_)" d="M67,69h15L61,90V75C61,71.7,63.7,69,67,69z"/>
		<rect x="28" y="30" fill="#FFFFFF" width="21" height="5"/>
		<rect x="36" y="35" fill="#FFFFFF" width="5" height="23"/>
		<path fill="#FFFFFF" d="M59.5,58c-5.4-0.1-8.2-1.6-8.5-4.4c-0.1-1.2,0.8-2.2,2-2.2c0.1,0,0.2,0,0.3,0c1,0.2,1.9,0.6,2.8,1.1
			c1.1,0.6,2.3,0.8,3.5,0.8c2.4-0.2,3.7-1.2,4-3.1s-1.9-3.7-6.6-4.9c-4-1.1-6-3.4-5.9-6.8c0.1-5.4,3-8.2,8.6-8.4
			c5,0.3,7.8,1.8,8.1,4.4c-0.2,1.6-1.2,2-2,2c-0.3,0-0.6,0-0.9-0.1c-0.2-0.1-0.5-0.2-1-0.4c-0.5-0.2-1-0.4-1.5-0.5
			c-1-0.3-2-0.5-3-0.5C57.4,35,56.2,36,56,38c0,1.2,1.6,2.3,4.6,3.3c0.3,0.1,0.7,0.2,0.9,0.3c4.6,1.4,7,4,7,7.7
			C68.6,55.1,65.6,58,59.5,58L59.5,58z"/>
	</g>
</g>
</svg>
