<?xml version="1.0" encoding="utf-8"?>
<!-- Generator: Adobe Illustrator 24.0.0, SVG Export Plug-In . SVG Version: 6.00 Build 0)  -->
<svg version="1.1" id="图层_1" xmlns="http://www.w3.org/2000/svg" xmlns:xlink="http://www.w3.org/1999/xlink" x="0px" y="0px"
	 viewBox="0 0 96 96" enable-background="new 0 0 96 96" xml:space="preserve">
<title>96</title>
<g id="文档">
	<g id="_96">
		<g id="_48">
			
				<linearGradient id="SVGID_1_" gradientUnits="userSpaceOnUse" x1="48" y1="63.5" x2="48" y2="-19.5" gradientTransform="matrix(1 0 0 1 0 26)">
				<stop  offset="0" style="stop-color:#D6D9E6"/>
				<stop  offset="1" style="stop-color:#F5F5F5"/>
			</linearGradient>
			<path fill="url(#SVGID_1_)" d="M23,89.5c-4.7,0-8.5-3.8-8.5-8.5V15c0-4.7,3.8-8.5,8.5-8.5h50c4.7,0,8.5,3.8,8.5,8.5v53.8
				L60.8,89.5H23z"/>
			<path fill="#C4C6CC" d="M73,7c4.4,0,8,3.6,8,8v53.6L60.6,89H23c-4.4,0-8-3.6-8-8V15c0-4.4,3.6-8,8-8H73 M73,6H23c-5,0-9,4-9,9v66
				c0,5,4,9,9,9h38l21-21V15C82,10,78,6,73,6z"/>
		</g>
		
			<linearGradient id="SVGID_2_" gradientUnits="userSpaceOnUse" x1="63.6598" y1="46.9703" x2="70.4798" y2="52.6503" gradientTransform="matrix(1 0 0 1 0 26)">
			<stop  offset="0" style="stop-color:#000000;stop-opacity:0.1"/>
			<stop  offset="1" style="stop-color:#000000;stop-opacity:5.000000e-02"/>
		</linearGradient>
		<path fill="url(#SVGID_2_)" d="M67,69h15L61,90V75C61,71.7,63.7,69,67,69z"/>
		<path fill="#D861BA" d="M70.2,48.3c-1.7-2-4.5-3.5-9.8-1.5c-0.3,0.1-1.6-2.3-0.6-5.9c0.2-0.5-2.5-1-2.8,0
			c-0.4,1.2-2.6,6.6-3.2,6.6c-0.8,0-0.9-3.2-0.4-5.4c0.1-0.3-1.3-0.3-2.2-0.2c-0.2,0-0.3,0.1-0.3,0.3c-0.6,1.4-3.7,9-4.1,9.8
			s-0.7,1.6-1,0.6s1-4,1.3-5.5c0.1-0.5-0.6-1.3-1.5-0.6c-0.2,0.1,0.6-2.7-1.2-2.9c-2.8-0.3-2.9,1.8-4.7,3.1c-1.3,0.8-2.6,1.5-4,2.1
			c-0.1,0.1-0.3,0.1-0.4,0c-0.9-0.8-5.1-4.1-5.9-5.3c-1.8-2.7-1.3-4.4,0.2-6.6c1.9-2.8,8.1-6.8,13-7.8s8.5,0,8.8,2.4
			c0.4,3.4-2.7,5.8-4.1,6.6c-2.1,1.5-4.7,2.3-7.3,2.3c-3-0.1-3.9-1.5-4.3-1.5s0.1,2.2,2.5,2.8c3.6,0.8,7.4,0.1,10.6-1.9
			c3.7-2.5,5-4.7,5.2-7.6c0.3-2.2-0.8-4.2-2.8-5.2c-3.6-1.6-9.6-1.2-15.2,1.6s-9.3,6.1-10.6,9.4c-1.1,3,0.9,5.9,2.4,7.2
			c1.8,1.5,5.6,4.2,6.1,4.7s-6.2,1.8-7.5,6.2c-0.9,3.2,0.4,4.6,3.2,4.6c2.7-0.2,5.2-1.7,6.5-4.1c0.9-2.1,1-4.5,0.2-6.6
			c0.8-0.5,1.7-1,2.6-1.4c0.4,0.3-1.7,4.5,0.5,6.9c1.5,1.6,2.3,0.8,2.8,0.3s1.4-3.6,1.6-3.8s-0.8,4.2,1.4,3.6s5-8.6,5.4-9.6
			c0.6-1.4,0.7,2.9,1.8,3.6c0.4,0.2-2.6,3.2-3,3.8c-0.7,1-0.7,1.8,1,1.8s4.6-1.5,4.6-3.4c0-2.4-0.8-2.1-0.6-2.6s2.3-4,2.8-4.7
			c0.3-0.5,0.3,2.2,1.3,3.2c0.7,0.7-2.7,1.3-2.7,4.7c0,1.8,1.8,1.2,2.4,1c0.8-0.3,3.5-1.2,2.8-5.3c-0.1-0.8,6.1-1.2,7.8,0.7
			c0.8,1,2.4,3.6-0.6,4.8c-0.4,0.2,0.6,0.8,1.8-0.2C71.3,51.9,71.4,49.8,70.2,48.3z M35,53.9c-0.8,3.1-5.5,5.5-5.9,3.6
			c-0.8-4.2,5.6-7.2,5.9-6.9S35.6,51.5,35,53.9z M42.5,52c-0.5,1.1-1.3,2.5-1.7,0.9c-0.3-2.3,0.2-4.7,1.6-6.5
			c1.7-2.4,2.1-0.7,2.1-0.7C44.5,47.5,43,50.8,42.5,52z M52.2,53.1c-1,1.1-1.6,0.7-1.2,0c0.2-0.5,1.8-2.3,2-2.2
			C53.5,51.1,53.2,51.8,52.2,53.1z M57.5,52.1c-1.1-0.7,1.5-3.3,1.7-3.2C60,49.1,58.5,52.7,57.5,52.1z"/>
	</g>
</g>
</svg>
