<?xml version="1.0" encoding="utf-8"?>
<!-- Generator: Adobe Illustrator 24.0.0, SVG Export Plug-In . SVG Version: 6.00 Build 0)  -->
<svg version="1.1" id="图层_1" xmlns="http://www.w3.org/2000/svg" xmlns:xlink="http://www.w3.org/1999/xlink" x="0px" y="0px"
	 viewBox="0 0 96 96" enable-background="new 0 0 96 96" xml:space="preserve">
<title>96</title>
<g id="蓝底">
	<g id="_96">
		
			<linearGradient id="_48_1_" gradientUnits="userSpaceOnUse" x1="48" y1="64" x2="48" y2="-20" gradientTransform="matrix(1 0 0 1 0 26)">
			<stop  offset="0" style="stop-color:#3F95EA"/>
			<stop  offset="1" style="stop-color:#4AA6E5"/>
		</linearGradient>
		<path id="_48" fill="url(#_48_1_)" d="M82,69V15c0-5-4-9-9-9H23c-5,0-9,4-9,9v66c0,5,4,9,9,9h38L82,69z"/>
		
			<linearGradient id="SVGID_1_" gradientUnits="userSpaceOnUse" x1="63.6598" y1="46.9703" x2="70.4798" y2="52.6503" gradientTransform="matrix(1 0 0 1 0 26)">
			<stop  offset="0" style="stop-color:#FFFFFF;stop-opacity:0.4"/>
			<stop  offset="1" style="stop-color:#FFFFFF;stop-opacity:0.2"/>
		</linearGradient>
		<path fill="url(#SVGID_1_)" d="M67,69h15L61,90V75C61,71.7,63.7,69,67,69z"/>
		<path fill="#FFFFFF" d="M39,61c-2.1,0-6.4-0.5-6.4-5.6c0-1.9,0.1-3.8,0.4-5.7c0.2-1.4,0.3-2.8,0.4-4.2c0-1.8-0.2-3.8-4.4-4.1v-0.8
			c4.3-0.3,4.4-2.3,4.4-4.1c0-1.4-0.1-2.8-0.3-4.2c-0.3-1.9-0.4-3.8-0.5-5.7c0-5.1,4.4-5.6,6.4-5.6v0.6c-3.5,0.5-3.9,2.3-3.9,4.5
			c0.1,1.6,0.2,3.1,0.4,4.7c0.2,1.3,0.6,3.7,0.6,4.9c0.2,2.6-1.6,4.8-4.1,5.3v0.1c2.5,0.5,4.3,2.8,4.1,5.3c-0.1,1.6-0.3,3.3-0.5,4.9
			c-0.2,1.6-0.4,3.1-0.4,4.7c0,2,0.4,3.8,3.9,4.4V61z"/>
		<path fill="#FFFFFF" d="M58,21c2.1,0,6.4,0.5,6.4,5.6c0,1.9-0.2,3.8-0.4,5.7c-0.2,2-0.4,3.2-0.4,4.2c0,1.8,0.1,3.8,4.4,4.1v0.8
			c-4.3,0.3-4.4,2.3-4.4,4.1c0,1.4,0.1,2.8,0.3,4.2c0.3,1.9,0.4,3.8,0.5,5.7c0,5.1-4.4,5.6-6.4,5.6v-0.6c3.5-0.5,3.9-2.3,3.9-4.5
			c-0.1-1.6-0.2-3.1-0.4-4.7c-0.1-1.3-0.5-3.7-0.5-5c-0.2-2.6,1.6-4.8,4.1-5.3v-0.1c-2.5-0.5-4.3-2.8-4.1-5.3
			c0.1-1.6,0.3-3.3,0.5-4.9c0.2-1.6,0.4-3.1,0.4-4.7c0-2-0.4-3.9-3.9-4.4V21z"/>
	</g>
</g>
</svg>
