<?xml version="1.0" encoding="utf-8"?>
<!-- Generator: Adobe Illustrator 24.0.0, SVG Export Plug-In . SVG Version: 6.00 Build 0)  -->
<svg version="1.1" id="图层_2" opacity="0.8" xmlns="http://www.w3.org/2000/svg" xmlns:xlink="http://www.w3.org/1999/xlink"
	 x="0px" y="0px" viewBox="0 0 16 16" style="enable-background:new 0 0 16 16;" xml:space="preserve">
<style type="text/css">
	.st0{fill:#1F2022;}
	.st1{fill:none;stroke:#1F2022;stroke-linecap:round;stroke-miterlimit:10;}
</style>
<g>
	<path class="st0" d="M13,2c0.6,0,1,0.4,1,1v10c0,0.6-0.4,1-1,1H3c-0.6,0-1-0.4-1-1V3c0-0.6,0.4-1,1-1H13 M13,1H3C1.9,1,1,1.9,1,3
		v10c0,1.1,0.9,2,2,2h10c1.1,0,2-0.9,2-2V3C15,1.9,14.1,1,13,1L13,1z"/>
</g>
<g>
	<path class="st0" d="M12,11v1h-2v-1H12 M12,10h-2c-0.6,0-1,0.4-1,1v1c0,0.6,0.4,1,1,1h2c0.6,0,1-0.4,1-1v-1C13,10.4,12.6,10,12,10
		L12,10z"/>
</g>
<path class="st1" d="M9.5,8.5h2c0.6,0,1,0.4,1,1V11"/>
<line class="st1" x1="10.5" y1="5.5" x2="11.5" y2="6.5"/>
</svg>
