<?xml version="1.0" encoding="utf-8"?>
<!-- Generator: Adobe Illustrator 24.0.0, SVG Export Plug-In . SVG Version: 6.00 Build 0)  -->
<svg version="1.1" id="字符映射表" xmlns="http://www.w3.org/2000/svg" xmlns:xlink="http://www.w3.org/1999/xlink" x="0px"
	 y="0px" viewBox="0 0 128 128" enable-background="new 0 0 128 128" xml:space="preserve">
<title>128</title>
<g id="_128">
	
		<linearGradient id="SVGID_1_" gradientUnits="userSpaceOnUse" x1="64" y1="82.94" x2="64" y2="-19.14" gradientTransform="matrix(1 0 0 1 0 32)">
		<stop  offset="0" style="stop-color:#CFD8DC"/>
		<stop  offset="1" style="stop-color:#E8E8E8"/>
	</linearGradient>
	<path fill="url(#SVGID_1_)" d="M20,8h88c6.6,0,12,5.4,12,12v88c0,6.6-5.4,12-12,12H20c-6.6,0-12-5.4-12-12V20C8,13.4,13.4,8,20,8z"
		/>
	<path d="M76.9,93.3c-2.8,2.5-6,4.5-9.4,5.9c-3.1,1.2-6.4,1.7-9.7,1.7c-5.7,0-10.1-1.4-13.1-4.2c-3-2.7-4.7-6.6-4.6-10.7
		c0-2.4,0.6-4.9,1.7-7c1.1-2,2.6-3.8,4.5-5.1c1.9-1.3,4.1-2.3,6.3-2.9c2.6-0.6,5.2-1,7.8-1.3c7.1-0.9,12.3-1.9,15.7-3
		c0-1.2,0.1-2,0.1-2.3c0-3.6-0.8-6.1-2.5-7.6c-2.2-2-5.6-3-10-3c-4.1,0-7.2,0.7-9.2,2.2s-3.4,4-4.4,7.7l-8.6-1.2
		c0.6-3.2,1.9-6.3,3.8-8.9c2-2.4,4.7-4.2,7.8-5.2C57,47.2,61,46.6,65,46.7c3.7-0.1,7.3,0.4,10.8,1.6c2.3,0.8,4.4,2.1,6.1,3.9
		c1.4,1.7,2.3,3.8,2.7,6c0.4,2.7,0.5,5.4,0.4,8.1V78c0,8.2,0.2,13.3,0.6,15.5s1.1,4.3,2.2,6.2h-9.2C77.7,97.7,77.1,95.6,76.9,93.3z
		 M76.2,73.7c-3.2,1.3-8,2.4-14.4,3.3c-2.6,0.3-5.2,0.9-7.7,1.8c-1.4,0.6-2.6,1.6-3.5,2.9c-2,3.2-1.4,7.5,1.4,10
		c1.8,1.6,4.4,2.3,7.8,2.3c3.1,0.1,6.2-0.7,9-2.2c2.5-1.4,4.6-3.5,5.8-6.1c0.9-2,1.4-4.9,1.4-8.8L76.2,73.7z"/>
	<polygon points="69.4,26 58.5,26 49,41 57,41 64,31 71,41 79,41 	"/>
</g>
</svg>
