<svg id="字符映射表" xmlns="http://www.w3.org/2000/svg" xmlns:xlink="http://www.w3.org/1999/xlink" viewBox="0 0 128 128"><defs><style>.cls-1{fill:url(#未命名的渐变_11);}</style><linearGradient id="未命名的渐变_11" x1="64" y1="114.94" x2="64" y2="12.86" gradientUnits="userSpaceOnUse"><stop offset="0" stop-color="#cfd8dc"/><stop offset="1" stop-color="#e8e8e8"/></linearGradient></defs><title>128</title><g id="_128" data-name="128"><rect class="cls-1" x="8" y="8" width="112" height="112" rx="12"/><path d="M76.94,93.35a32.63,32.63,0,0,1-9.4,5.86,27.13,27.13,0,0,1-9.69,1.71q-8.55,0-13.14-4.17a13.79,13.79,0,0,1-4.59-10.67,14.15,14.15,0,0,1,1.74-7,14.3,14.3,0,0,1,4.54-5.05,21.32,21.32,0,0,1,6.32-2.88,61.56,61.56,0,0,1,7.81-1.32q10.65-1.28,15.68-3c0-1.2.05-2,.05-2.3q0-5.37-2.49-7.56-3.37-3-10-3-6.21,0-9.16,2.17t-4.37,7.69l-8.59-1.17a21.38,21.38,0,0,1,3.85-8.91,17,17,0,0,1,7.77-5.23A34.6,34.6,0,0,1,65,46.72a31,31,0,0,1,10.79,1.57,14.21,14.21,0,0,1,6.1,3.93,13.77,13.77,0,0,1,2.73,6,48.34,48.34,0,0,1,.45,8.1V78q0,12.26.55,15.51a19.6,19.6,0,0,0,2.23,6.22H78.7A18.67,18.67,0,0,1,76.94,93.35Zm-.73-19.63q-4.78,2-14.36,3.32a33.6,33.6,0,0,0-7.66,1.76,7.7,7.7,0,0,0-3.47,2.86,7.77,7.77,0,0,0,1.44,10C53.94,93.26,56.53,94,60,94a18.12,18.12,0,0,0,9-2.22,13.68,13.68,0,0,0,5.81-6.08q1.42-3,1.42-8.79Z"/><polygon points="69.45 26 58.55 26 49 41 57 41 64 31 71 41 79 41 69.45 26"/></g></svg>