<?xml version="1.0" encoding="utf-8"?>
<!-- Generator: Adobe Illustrator 24.0.0, SVG Export Plug-In . SVG Version: 6.00 Build 0)  -->
<svg version="1.1" id="图层_1" xmlns="http://www.w3.org/2000/svg" xmlns:xlink="http://www.w3.org/1999/xlink" x="0px" y="0px"
	 viewBox="0 0 128 128" enable-background="new 0 0 128 128" xml:space="preserve">
<title>acetoneiso128</title>
<path fill="#333333" d="M34.6,60.5c0,17.9,11.6,32.4,25.8,32.4l0,0c14.3,0,25.8-14.5,25.8-32.4v-6.2c0-1,0-2.1-0.1-3.1H34.7
	c-0.1,1-0.1,2.1-0.1,3.1C34.6,54.3,34.6,60.5,34.6,60.5z"/>
<path fill="#4D4D4D" d="M115.4,53.1c-7.1-7.1-19-7.3-29.8-1.5c0,0.1,0,0.2-0.1,0.3l-2.3,8.7C79.8,74,72.7,85.1,64.4,91.8
	c0.8,3.5,2.6,6.6,5.1,9.1c2.1,2.1,4.6,3.6,7.4,4.5c10,7.4,24.4,6.2,33.6-3.4c5.1-5.3,7.9-12.5,7.6-19.9
	C123,71.3,122.3,59.9,115.4,53.1z"/>
<path fill="#CCCCCC" d="M115.8,52.8L115.8,52.8c8.2,8.5,9.8,25.3,2.3,31.4c-6.3,5.2-27.4-25.3-31.7-31.7c-0.4-0.6-0.3-1.5,0.3-2
	C95.6,43.7,108.2,44.7,115.8,52.8z"/>
<path fill="#CCCCCC" d="M68.7,94.7c0.9-9.9,13.6-23.7,29.7-19.5c11.8,3.1,15.6,25-1.3,32.6C83.9,113.7,67.8,104,68.7,94.7z"/>
<path fill="#4D4D4D" d="M53.1,64c-12.6-12.9-30.7-15.8-40.3-6.4C6,64.3,5.3,75.5,10.1,86.1c-0.2,7.2,2.5,14.3,7.6,19.4
	c9.2,9.4,23.5,10.6,33.5,3.4c2.8-0.9,5.3-2.4,7.4-4.4C68.2,95.1,65.8,77,53.1,64z"/>
<path fill="#CCCCCC" d="M22.6,97.2c0.9-10.3,14.1-24.7,30.9-20.3c12.3,3.2,16.2,26-1.3,34C38.5,117.1,21.8,106.9,22.6,97.2z"/>
<path fill="#CCCCCC" d="M11.6,57.5L11.6,57.5c-7.3,7.3-8.7,18.7-3.4,27.6c0.9,1.5,2,1.2,4.2,0.5c6.2-2,25.2-22.9,27.3-27.3
	c0.7-1.6,1-3.3-0.5-4.2C30.3,48.8,18.9,50.2,11.6,57.5z"/>
<path fill="#9C27B0" d="M87.6,41.8c0-15.1-12.3-27.3-27.4-27.3c-14.7,0-26.7,11.6-27.3,26.3c-0.1,3.2,0.7,8.9,1.7,10.4
	c1.5,2.3,48.8,2.3,51.3,0C87.3,49.9,87.6,44.6,87.6,41.8z"/>
</svg>
