<svg id="图层_1" data-name="图层 1" xmlns="http://www.w3.org/2000/svg" xmlns:xlink="http://www.w3.org/1999/xlink" viewBox="0 0 96 96"><defs><style>.cls-1{fill:#fff;}.cls-2{fill:url(#未命名的渐变_129);}.cls-3{fill:url(#未命名的渐变_100);}.cls-4{fill:#7c4028;}.cls-5{fill:url(#未命名的渐变_93);}.cls-6{fill:url(#未命名的渐变_127);}.cls-7{fill:url(#未命名的渐变_121);}.cls-8{fill:url(#未命名的渐变_156);}.cls-9{fill:#212020;}.cls-10{fill:url(#未命名的渐变_153);}.cls-11{fill:#383635;}</style><linearGradient id="未命名的渐变_129" x1="14.83" y1="50.46" x2="23.52" y2="50.46" gradientUnits="userSpaceOnUse"><stop offset="0.01" stop-color="#7e4115"/><stop offset="0.96" stop-color="#a86328"/></linearGradient><linearGradient id="未命名的渐变_100" x1="32.67" y1="59.14" x2="32.67" y2="16.49" gradientUnits="userSpaceOnUse"><stop offset="0.01" stop-color="#7e4115"/><stop offset="0.5" stop-color="#a86328"/></linearGradient><linearGradient id="未命名的渐变_93" x1="21.38" y1="66" x2="47" y2="66" gradientUnits="userSpaceOnUse"><stop offset="0.01" stop-color="#7e4115"/><stop offset="0.44" stop-color="#a86328"/></linearGradient><linearGradient id="未命名的渐变_127" x1="19.9" y1="66.24" x2="48.89" y2="66.24" gradientUnits="userSpaceOnUse"><stop offset="0.01" stop-color="#723621"/><stop offset="0.44" stop-color="#a86328"/></linearGradient><radialGradient id="未命名的渐变_121" cx="209.09" cy="118.33" fx="192.3045161707753" fy="137.9480429034118" r="38.54" gradientTransform="translate(-114.91 -44.21) scale(0.79 0.79)" gradientUnits="userSpaceOnUse"><stop offset="0" stop-color="#c69c6d"/><stop offset="0.63" stop-color="#a86328"/></radialGradient><linearGradient id="未命名的渐变_156" x1="50.85" y1="79.33" x2="75.84" y2="54.34" gradientUnits="userSpaceOnUse"><stop offset="0.16" stop-color="#b3b3b3"/><stop offset="0.74" stop-color="#f2f2f2"/></linearGradient><linearGradient id="未命名的渐变_153" x1="60.52" y1="79.73" x2="75.33" y2="51.27" gradientUnits="userSpaceOnUse"><stop offset="0" stop-color="#7c4028"/><stop offset="0.27" stop-color="#4d4d4d"/><stop offset="0.65" stop-color="#4d4d4d"/></linearGradient></defs><title>amule22</title><rect class="cls-1" x="6" y="6" width="84" height="84" rx="9"/><polygon class="cls-2" points="23.52 49.03 21.63 39.07 21.63 49.03 17.83 44.77 21.63 52.35 14.84 52.94 20.53 55.78 17.83 61.84 23.52 58.99 23.52 49.03"/><path class="cls-3" d="M28,28.65c-3.46,8.63-3.71,23.86-3.73,30.49,2.76-4,9.46-17.1,15.2-29.22l1.68-13.43C38,17.84,30.75,21.66,28,28.65Z"/><path class="cls-4" d="M42,14.11c-.48.16-11.84,4.05-15.75,13.83s-3.87,26.93-3.87,32.61c0,1.14.6,1.45,1,1.53a1.43,1.43,0,0,0,.23,0c1,0,3.75-2.07,17.69-31.51l2.17-17Zm-17.72,45c0-6.63.27-21.86,3.73-30.49,2.79-7,10-10.81,13.15-12.16L39.43,29.92C33.69,42,27,55.19,24.23,59.14Z"/><path class="cls-5" d="M21.87,79.05c2,.86,14,1.38,25.13,1.41V51.53H23.63A81.32,81.32,0,0,0,21.87,79.05Z"/><path class="cls-6" d="M22.57,50.11l-.2.69a79.6,79.6,0,0,0-1.93,28.84c.11.88.34,2.71,27.51,2.72h.94V50.11ZM47,80.46c-11,0-22.73-.55-24.72-1.39A80.27,80.27,0,0,1,24,52H47Z"/><path class="cls-7" d="M58.21,44.85c-1.85-3.65-3.24-6-5.58-5.22-.75.25-2,.66-2.36-.41-.77-2.34,18.22-10.59,19.08-10.88,4.9-1.61,7.51-3.72,7.51-4.63,0-.27-.45-.73-1.74-1.16a27.19,27.19,0,0,0-7.88-1c-6.91,0-15.9,1.68-22,6.51-1.35,1.07-2.85,2.15-4.41,3.28C31.6,38,20.13,46.31,24.39,63.16c3.66,14.51,15.24,14.48,23.38,13.09a1.74,1.74,0,0,1-.21-.55c-.26-1.35,1.13-2.49,2.67-3.51,5.8-3.87,8.92-9.22,8.92-12.3S61,51.8,61.79,49.83l0-.06C60.34,49,59.3,47,58.21,44.85Z"/><path class="cls-4" d="M75.72,20.75c-6.15-2-22-1.79-31.67,5.85-1.34,1-2.82,2.12-4.35,3.23C30,36.82,18,45.52,22.55,63.62c3.1,12.28,11.43,15.1,19,15.1a44.21,44.21,0,0,0,8.7-1,7.43,7.43,0,0,1-1.6-.66,2.4,2.4,0,0,1-.88-.81c-8.14,1.39-19.72,1.42-23.38-13.09C20.13,46.31,31.6,38,40.81,31.37c1.56-1.13,3.06-2.21,4.41-3.28,6.12-4.83,15.11-6.51,22-6.51a27.19,27.19,0,0,1,7.88,1c1.29.43,1.74.89,1.74,1.16,0,.91-2.61,3-7.51,4.63-.86.29-19.85,8.54-19.08,10.88.35,1.07,1.61.66,2.36.41,2.34-.77,3.73,1.57,5.58,5.22C59.3,47,60.34,49,61.83,49.77a1.75,1.75,0,0,1,.59-.75,1.84,1.84,0,0,1,1.07-.39,29.49,29.49,0,0,1,3.47.08,15.66,15.66,0,0,0-3.84-.5c-1.07,0-2.21-2.24-3.21-4.21-1.31-2.58-2.86-5.64-5.37-6.3,4.05-2.36,11.71-6.34,15.4-7.56,1.48-.48,8.82-3.06,8.82-6.43C78.76,22.41,77.74,21.42,75.72,20.75Z"/><path class="cls-8" d="M76.14,54.81a7.72,7.72,0,0,0-2.71-2.4,12.65,12.65,0,0,0-3-1.2,20.23,20.23,0,0,0-3.73-.61,13.61,13.61,0,0,0-3.6-.49,2.11,2.11,0,0,1-.35,0,2.71,2.71,0,0,1-.94-.29l0,.06c-.79,2-2.64,6.88-2.64,10.06S56,68.32,50.23,72.19c-1.54,1-2.93,2.16-2.67,3.51a1.74,1.74,0,0,0,.21.55l1.1-.19,1.4-.29c.53.17,1.26.35,2,.53l2,.44.25.05c1.19.25,2.49.53,3.86.88,5.1,1.27,7.35,1.7,10.92-.18a40.12,40.12,0,0,0,5.11-3.4,13.49,13.49,0,0,0,1.2-1C81,68,79.74,60.22,76.14,54.81Z"/><path class="cls-1" d="M52.36,51.33a5.31,5.31,0,0,1,3.36-1.92A13.11,13.11,0,0,0,55.21,48c-1.52-3.65-4.74-4.93-8.48-4.26-11.72,2.12-2.16,13.53,5,13.11A4.62,4.62,0,0,1,52.36,51.33Z"/><path class="cls-9" d="M54.69,55.78c1.33-1,2-3.21,1-6.37a5.31,5.31,0,0,0-3.36,1.92,4.62,4.62,0,0,0-.63,5.5A5.45,5.45,0,0,0,54.69,55.78Z"/><path class="cls-10" d="M77.71,53.76c-2.42-3.64-7.24-4.74-10.75-5a29.49,29.49,0,0,0-3.47-.08,1.84,1.84,0,0,0-1.07.39,1.75,1.75,0,0,0-.59.75,2.71,2.71,0,0,0,.94.29,2.11,2.11,0,0,0,.35,0,13.61,13.61,0,0,1,3.6.49,20.23,20.23,0,0,1,3.73.61,12.65,12.65,0,0,1,3,1.2,7.72,7.72,0,0,1,2.71,2.4C79.74,60.22,81,68,75.69,73.06a13.49,13.49,0,0,1-1.2,1,48.68,48.68,0,0,1-4.09,2.82c-2.63.33-4.61,0-5.86-1.12a4.21,4.21,0,0,1-1.42-2.92H61.23a6.16,6.16,0,0,0,2,4.32,6.8,6.8,0,0,0,2.9,1.42c-2.13.36-4.27-.1-7.71-1-1.37-.35-2.67-.63-3.86-.88l-.25-.05-2-.44c-.79-.18-1.52-.36-2-.53l-1.4.29-1.1.19a2.4,2.4,0,0,0,.88.81,7.43,7.43,0,0,0,1.6.66c1,.3,2.23.56,3.71.88,1.23.26,2.6.55,4,.91a29,29,0,0,0,6.76,1.13c3.32,0,6-1.37,10.87-5C83.25,69.89,82.06,60.27,77.71,53.76Z"/><ellipse class="cls-11" cx="65.35" cy="57.12" rx="2.41" ry="3.22" transform="translate(-11.61 97.26) rotate(-68.7)"/></svg>