<?xml version="1.0" encoding="utf-8"?>
<!-- Generator: Adobe Illustrator 24.0.0, SVG Export Plug-In . SVG Version: 6.00 Build 0)  -->
<svg version="1.1" id="自动运行提示" xmlns="http://www.w3.org/2000/svg" xmlns:xlink="http://www.w3.org/1999/xlink" x="0px"
	 y="0px" viewBox="0 0 128 128" enable-background="new 0 0 128 128" xml:space="preserve">
<title>128</title>
<g id="_128">
	<path fill="#5AA82E" d="M92,84.3v-12l-13.5-3.6c-0.5-1.4-1-2.7-1.7-4l7-12.2l-8.3-8.8L63,51c-1-0.5-2-0.9-3.1-1.3L56.3,36H43.8
		l-3.2,13.5c-1.1,0.4-2.2,0.8-3.2,1.3l-12.3-6.7l-8.8,8.1l6.9,12.6c-0.7,1.3-1.2,2.7-1.7,4.1L8,72.1v12.4l13.6,3.2
		c0.5,1.6,1.2,3.1,2,4.6l-7.4,12.1l8.1,8.6l13-7.9c1.1,0.5,2.1,0.9,3.3,1.3l3.2,13.5h12.7l3.8-13.8c0.8-0.3,1.6-0.6,2.4-1l12.7,7.6
		l8.5-8.3l-7.1-13.1c0.5-1.1,1-2.2,1.4-3.3L92,84.3z M50,92c-7.7,0-14-6.3-14-14s6.3-14,14-14s14,6.3,14,14S57.7,92,50,92z"/>
	<path fill="#448918" d="M120,24.6l-2.4-5.8l-7.4,0.9c-0.5-0.6-1-1.1-1.6-1.6l1.1-7.3L103.8,8L99,14c-0.6,0-1.2,0-1.8,0l-4.5-6
		l-6.2,2.4l1.1,7.2c-0.5,0.4-0.9,0.8-1.3,1.3L78.9,18l-2.8,5.7l5.9,4.9c-0.1,0.8-0.1,1.6,0,2.3L76,35l2.5,6l7.4-1
		c0.6,0.7,1.2,1.3,1.9,1.9l-1.3,7.3l5.7,2.6l4.9-6.4c0.6,0,1.2,0,1.9,0l4.3,6l6.3-2.5l-0.9-7.5c0.3-0.3,0.7-0.6,1-1l7.8,1.2L120,36
		l-6.1-5c0-0.6,0-1.3,0-1.9L120,24.6z M100.7,36.6c-3.8,1.5-8.2-0.3-9.7-4.1c-1.5-3.7,0.3-8,4-9.5h0.1c3.8-1.5,8.2,0.3,9.8,4.1
		C106.4,30.7,104.6,35,100.7,36.6C100.8,36.5,100.8,36.5,100.7,36.6L100.7,36.6z"/>
</g>
</svg>
