<svg id="图层_1" data-name="图层 1" xmlns="http://www.w3.org/2000/svg" viewBox="0 0 128 128"><defs><style>.cls-1{fill:#00979d;}.cls-2{fill:#fff;}.cls-3{fill:#f2f2f2;}</style></defs><title>arduino128</title><rect class="cls-1" x="8" y="8" width="112" height="112" rx="12.22"/><path class="cls-2" d="M87.45,31.4A25.5,25.5,0,0,0,66.54,41.68,30.82,30.82,0,0,0,64,45.56a32,32,0,0,0-2.3-3.6c-3.52-4.71-10.05-10.34-21.16-10.34-12.33,0-22.37,9.62-22.37,21.43s10,21.43,22.37,21.43A25.52,25.52,0,0,0,61.46,64.21,31.69,31.69,0,0,0,64,60.32a32,32,0,0,0,2.3,3.6c3.52,4.71,10,10.34,21.16,10.34,12.33,0,22.37-9.61,22.37-21.43S99.78,31.4,87.45,31.4Zm16.79,21.43c0,8.48-7.53,15.37-16.79,15.37-7.09,0-12.72-2.68-16.72-8a24.71,24.71,0,0,1-3.8-7.4,25.81,25.81,0,0,1,3.91-7.29,19.93,19.93,0,0,1,16.61-8.09C96.71,37.46,104.24,44.35,104.24,52.83ZM61.07,53a26,26,0,0,1-3.91,7.3,20,20,0,0,1-16.61,8.08c-9.26,0-16.79-6.89-16.79-15.37s7.53-15.37,16.79-15.37c7.09,0,12.72,2.68,16.72,8A24.71,24.71,0,0,1,61.07,53Z"/><rect class="cls-2" x="33.54" y="50.9" width="15.27" height="4.07"/><polygon class="cls-2" points="94.46 50.76 89 50.76 89 45.3 84.64 45.3 84.64 50.76 79.19 50.76 79.19 55.12 84.64 55.12 84.64 60.58 89 60.58 89 55.12 94.46 55.12 94.46 50.76"/><path class="cls-3" d="M25.12,82.6,19.73,96.28H22L23.28,93H29l1.24,3.3h2.69L27.49,82.6Zm3,8.36H24.08l2-5.33Z"/><path class="cls-3" d="M42.86,88.47A4,4,0,0,0,43.57,86a3.06,3.06,0,0,0-2.06-3,9.24,9.24,0,0,0-3.29-.4H34.28V96.28h2.53V90.8h1.45l4.15,5.48H45.5l-4.68-6.16A6,6,0,0,0,42.86,88.47Zm-2-2.11a2,2,0,0,1-.85,1.74,4,4,0,0,1-2.44.67h-.81V84.63h1a5.54,5.54,0,0,1,2.52.39A1.4,1.4,0,0,1,40.91,86.36Z"/><path class="cls-3" d="M50.62,82.6H46.39V96.28h3.68a10.65,10.65,0,0,0,3.58-.5A5.25,5.25,0,0,0,56,94.07a7.72,7.72,0,0,0,1.48-4.89C57.44,84.81,55.15,82.6,50.62,82.6Zm-1.7,2h1.31a4.7,4.7,0,0,1,3.51,1.1,5.5,5.5,0,0,1,1,3.77,4.9,4.9,0,0,1-1.15,3.67c-.76.72-2.09,1.08-4,1.08h-.76Z"/><path class="cls-3" d="M67.05,90.8a5.13,5.13,0,0,1-.63,2.93,2.34,2.34,0,0,1-2,.84,2.19,2.19,0,0,1-1.93-.83,5.18,5.18,0,0,1-.61-2.89V82.6H59.29v8.22a6.48,6.48,0,0,0,1.25,4.34,4.91,4.91,0,0,0,3.85,1.44,4.56,4.56,0,0,0,4.32-2.42,8,8,0,0,0,.62-3.68V82.6H67.05Z"/><polygon class="cls-3" points="72.17 84.63 75.71 84.63 75.71 94.25 72.17 94.25 72.17 96.28 81.78 96.28 81.78 94.25 78.24 94.25 78.24 84.63 81.78 84.63 81.78 82.6 72.17 82.6 72.17 84.63"/><polygon class="cls-3" points="92.55 91.53 86.89 82.56 84.58 82.56 84.58 96.28 86.74 96.28 86.74 87.2 92.45 96.28 94.71 96.28 94.71 82.56 92.55 82.56 92.55 91.53"/><path class="cls-3" d="M106.67,84.25a5.8,5.8,0,0,0-8.71,0,9.22,9.22,0,0,0,0,10.38,5.8,5.8,0,0,0,8.71,0,9.22,9.22,0,0,0,0-10.38Zm-6.77,9a8.82,8.82,0,0,1,0-7.68,2.91,2.91,0,0,1,4.83,0,8.82,8.82,0,0,1,0,7.68,2.91,2.91,0,0,1-4.83,0Z"/></svg>