<?xml version="1.0" encoding="utf-8"?>
<!-- Generator: Adobe Illustrator 24.0.0, SVG Export Plug-In . SVG Version: 6.00 Build 0)  -->
<svg version="1.1" id="图层_1" xmlns="http://www.w3.org/2000/svg" xmlns:xlink="http://www.w3.org/1999/xlink" x="0px" y="0px"
	 viewBox="0 0 128 128" enable-background="new 0 0 128 128" xml:space="preserve">
<title>arduino128</title>
<path fill="#00979D" d="M20.2,8h87.6c6.7,0,12.2,5.5,12.2,12.2v87.6c0,6.7-5.5,12.2-12.2,12.2H20.2C13.5,120,8,114.5,8,107.8V20.2
	C8,13.5,13.5,8,20.2,8z"/>
<path fill="#FFFFFF" d="M87.4,31.4c-8.2-0.1-16,3.7-20.9,10.3c-0.9,1.2-1.8,2.5-2.5,3.9c-0.7-1.2-1.5-2.5-2.3-3.6
	c-3.5-4.7-10-10.3-21.2-10.3c-12.3,0-22.4,9.6-22.4,21.4s10,21.4,22.4,21.4c8.2,0.1,16-3.7,20.9-10.3c0.9-1.2,1.8-2.5,2.5-3.9
	c0.7,1.2,1.5,2.5,2.3,3.6c3.5,4.7,10,10.3,21.2,10.3c12.3,0,22.4-9.6,22.4-21.4S99.8,31.4,87.4,31.4z M104.2,52.8
	c0,8.5-7.5,15.4-16.8,15.4c-7.1,0-12.7-2.7-16.7-8c-1.7-2.2-3-4.7-3.8-7.4c0.9-2.6,2.2-5.1,3.9-7.3c3.9-5.3,10.1-8.3,16.6-8.1
	C96.7,37.5,104.2,44.3,104.2,52.8z M61.1,53c-0.9,2.6-2.2,5.1-3.9,7.3c-3.9,5.2-10.1,8.3-16.6,8.1c-9.3,0-16.8-6.9-16.8-15.4
	s7.5-15.4,16.8-15.4c7.1,0,12.7,2.7,16.7,8C58.9,47.9,60.2,50.4,61.1,53z"/>
<rect x="33.5" y="50.9" fill="#FFFFFF" width="15.3" height="4.1"/>
<polygon fill="#FFFFFF" points="94.5,50.8 89,50.8 89,45.3 84.6,45.3 84.6,50.8 79.2,50.8 79.2,55.1 84.6,55.1 84.6,60.6 89,60.6 
	89,55.1 94.5,55.1 "/>
<path fill="#F2F2F2" d="M25.1,82.6l-5.4,13.7H22l1.3-3.3H29l1.2,3.3h2.7l-5.4-13.7H25.1z M28.1,91h-4l2-5.3L28.1,91z"/>
<path fill="#F2F2F2" d="M42.9,88.5c0.5-0.7,0.8-1.6,0.7-2.5c0-1.3-0.8-2.6-2.1-3c-1.1-0.3-2.2-0.5-3.3-0.4h-3.9v13.7h2.5v-5.5h1.5
	l4.2,5.5h3.1l-4.7-6.2C41.6,89.7,42.3,89.2,42.9,88.5z M40.9,86.4c0,0.7-0.3,1.3-0.8,1.7c-0.7,0.5-1.6,0.7-2.4,0.7h-0.8v-4.1h1
	c0.9-0.1,1.7,0.1,2.5,0.4C40.7,85.3,41,85.8,40.9,86.4L40.9,86.4z"/>
<path fill="#F2F2F2" d="M50.6,82.6h-4.2v13.7h3.7c1.2,0,2.4-0.1,3.6-0.5c0.9-0.3,1.7-0.9,2.3-1.7c1-1.4,1.6-3.1,1.5-4.9
	C57.4,84.8,55.2,82.6,50.6,82.6z M48.9,84.6h1.3c1.3-0.1,2.5,0.3,3.5,1.1c0.8,1.1,1.1,2.4,1,3.8c0.1,1.3-0.3,2.7-1.2,3.7
	c-0.8,0.7-2.1,1.1-4,1.1h-0.8L48.9,84.6z"/>
<path fill="#F2F2F2" d="M67.1,90.8c0.1,1-0.1,2-0.6,2.9c-0.5,0.6-1.2,0.9-2,0.8c-0.7,0.1-1.5-0.2-1.9-0.8c-0.5-0.9-0.7-1.9-0.6-2.9
	v-8.3h-2.6v8.2c-0.1,1.5,0.3,3.1,1.3,4.3c1,1,2.4,1.5,3.8,1.4c1.8,0.1,3.5-0.8,4.3-2.4c0.5-1.2,0.7-2.4,0.6-3.7v-7.9h-2.3V90.8z"/>
<polygon fill="#F2F2F2" points="72.2,84.6 75.7,84.6 75.7,94.3 72.2,94.3 72.2,96.3 81.8,96.3 81.8,94.3 78.2,94.3 78.2,84.6 
	81.8,84.6 81.8,82.6 72.2,82.6 "/>
<polygon fill="#F2F2F2" points="92.6,91.5 86.9,82.6 84.6,82.6 84.6,96.3 86.7,96.3 86.7,87.2 92.4,96.3 94.7,96.3 94.7,82.6 
	92.6,82.6 "/>
<path fill="#F2F2F2" d="M106.7,84.3c-2.1-2.4-5.8-2.6-8.2-0.5c-0.2,0.2-0.4,0.3-0.5,0.5c-2.1,3.1-2.1,7.2,0,10.4
	c2.1,2.4,5.8,2.6,8.2,0.5c0.2-0.2,0.4-0.3,0.5-0.5C108.8,91.5,108.8,87.4,106.7,84.3z M99.9,93.3c-1.2-2.4-1.2-5.3,0-7.7
	c0.9-1.3,2.7-1.7,4-0.8c0.3,0.2,0.6,0.5,0.8,0.8c1.2,2.4,1.2,5.3,0,7.7c-0.9,1.3-2.7,1.7-4,0.8C100.4,93.8,100.1,93.6,99.9,93.3z"/>
</svg>
