<svg id="图层_1" data-name="图层 1" xmlns="http://www.w3.org/2000/svg" xmlns:xlink="http://www.w3.org/1999/xlink" viewBox="0 0 128 128"><defs><style>.cls-1{fill:url(#未命名的渐变_47);}.cls-2{fill:#212121;}.cls-3{fill:url(#未命名的渐变_171);}.cls-4{fill:url(#未命名的渐变_67);}.cls-5{fill:#343636;}.cls-15,.cls-6{fill:#79797b;}.cls-7{fill:url(#未命名的渐变_47-2);}.cls-8{fill:url(#未命名的渐变_171-2);}.cls-9{fill:url(#未命名的渐变_67-2);}.cls-10{fill:#9c662b;}.cls-11{fill:url(#未命名的渐变_87);}.cls-12{fill:#4f5254;}.cls-13{fill:url(#未命名的渐变_145);}.cls-14{fill:url(#未命名的渐变_84);}.cls-15{opacity:0.51;}.cls-16{fill:none;}.cls-17{fill:url(#未命名的渐变_140);}.cls-18{fill:url(#未命名的渐变_183);}</style><linearGradient id="未命名的渐变_47" x1="90.48" y1="73.64" x2="112.57" y2="35.36" gradientUnits="userSpaceOnUse"><stop offset="0" stop-color="#1e1206"/><stop offset="0.11" stop-color="#271808"/><stop offset="0.28" stop-color="#41280e"/><stop offset="0.41" stop-color="#573613"/><stop offset="0.83" stop-color="#ffb800"/><stop offset="0.86" stop-color="#fbb500"/><stop offset="0.89" stop-color="#f0ad02"/><stop offset="0.91" stop-color="#de9e04"/><stop offset="0.93" stop-color="#c48a07"/><stop offset="0.96" stop-color="#a2700a"/><stop offset="0.98" stop-color="#7a510f"/><stop offset="0.99" stop-color="#573613"/></linearGradient><linearGradient id="未命名的渐变_171" x1="105.52" y1="58.16" x2="120.5" y2="58.16" gradientUnits="userSpaceOnUse"><stop offset="0.4" stop-color="#1d1700"/><stop offset="1" stop-color="#1d1700"/></linearGradient><linearGradient id="未命名的渐变_67" x1="100.27" y1="72.12" x2="124.13" y2="58.34" gradientUnits="userSpaceOnUse"><stop offset="0.09" stop-color="#573613"/><stop offset="0.13" stop-color="#633f12"/><stop offset="0.21" stop-color="#84590e"/><stop offset="0.31" stop-color="#b88108"/><stop offset="0.44" stop-color="#ffb800"/><stop offset="0.59" stop-color="#aa760a"/><stop offset="0.74" stop-color="#573613"/></linearGradient><linearGradient id="未命名的渐变_47-2" x1="23.52" y1="102.16" x2="55.74" y2="46.35" xlink:href="#未命名的渐变_47"/><linearGradient id="未命名的渐变_171-2" x1="46.42" y1="79.4" x2="71.8" y2="79.4" xlink:href="#未命名的渐变_171"/><linearGradient id="未命名的渐变_67-2" x1="38.52" y1="100.92" x2="76.48" y2="79" xlink:href="#未命名的渐变_67"/><linearGradient id="未命名的渐变_87" x1="13.77" y1="37.22" x2="103.7" y2="37.22" gradientUnits="userSpaceOnUse"><stop offset="0.29" stop-color="#fb0"/><stop offset="0.56" stop-color="#aa770a"/><stop offset="0.84" stop-color="#573613"/><stop offset="1" stop-color="#573613"/></linearGradient><linearGradient id="未命名的渐变_145" x1="114.22" y1="66.43" x2="92.63" y2="29.04" gradientUnits="userSpaceOnUse"><stop offset="0.37" stop-color="#573613"/><stop offset="0.64" stop-color="#583715"/><stop offset="0.74" stop-color="#5b3c1c"/><stop offset="0.81" stop-color="#604527"/><stop offset="0.86" stop-color="#675038"/><stop offset="0.91" stop-color="#70604e"/><stop offset="0.95" stop-color="#7c7369"/><stop offset="0.99" stop-color="#898988"/><stop offset="0.99" stop-color="#8a8b8b"/></linearGradient><linearGradient id="未命名的渐变_84" x1="30.27" y1="65.42" x2="104.7" y2="22.45" gradientUnits="userSpaceOnUse"><stop offset="0.47" stop-color="#fb0"/><stop offset="0.69" stop-color="#aa770a"/><stop offset="0.9" stop-color="#573613"/><stop offset="1" stop-color="#573613"/></linearGradient><linearGradient id="未命名的渐变_140" x1="83.67" y1="56.29" x2="69.91" y2="32.44" gradientUnits="userSpaceOnUse"><stop offset="0.54" stop-color="#212121"/><stop offset="0.74" stop-color="#232323"/><stop offset="0.81" stop-color="#2a2a2a"/><stop offset="0.87" stop-color="#353535"/><stop offset="0.91" stop-color="#464646"/><stop offset="0.94" stop-color="#5c5c5c"/><stop offset="0.98" stop-color="#767777"/><stop offset="0.99" stop-color="#8a8b8b"/></linearGradient><linearGradient id="未命名的渐变_183" x1="96.51" y1="76.65" x2="76.17" y2="41.41" gradientUnits="userSpaceOnUse"><stop offset="0" stop-color="#1e1206"/><stop offset="0.99" stop-color="#1e1206"/></linearGradient></defs><title>armagetronad-112</title><path class="cls-1" d="M120.5,54.2v0c0,.23,0,.45,0,.68s0,.62,0,.93l0,.48,0,.27,0,.33h0l-.06.52-.06.49a2,2,0,0,1,0,.24c0,.13,0,.27-.06.4s0,.33-.08.49v.07l-.09.47c0,.17-.07.34-.11.5s-.06.3-.1.46-.07.31-.11.46-.1.41-.16.62l-.12.42c-.06.22-.13.44-.19.66a28.45,28.45,0,0,1-1.83,4.49h0a22.16,22.16,0,0,1-4.18,5.46,18.77,18.77,0,0,1-3.34,2.52,16.17,16.17,0,0,1-8.29,2.31c-10.47,0-19-10.32-19-23A27.71,27.71,0,0,1,83.1,49c2-10.06,9.51-17.52,18.42-17.52S117.93,38.93,120,49h0A28.35,28.35,0,0,1,120.5,54.2Z"/><path class="cls-2" d="M120.5,54.2v0c0,.23,0,.45,0,.68s0,.62,0,.93l0,.48,0,.27,0,.33h0l-.06.52-.06.49a2,2,0,0,1,0,.24l-.06.4c0,.17,0,.33-.08.49v.07l-.09.47c0,.17-.07.34-.11.5s-.06.3-.1.46-.07.31-.11.46-.1.41-.16.62l-.12.42c-.06.22-.13.44-.19.66a28.45,28.45,0,0,1-1.83,4.49h0a22.16,22.16,0,0,1-4.18,5.46,18.77,18.77,0,0,1-3.34,2.52,7.12,7.12,0,0,1-6,.13c-2.76-1.27-4.66-4.35-5.5-8.3a21,21,0,0,1-.39-2.61,28.57,28.57,0,0,1,1.24-10.87c3-9.5,9.83-15.14,15.35-12.61,2.7,1.24,4.58,4.21,5.45,8h0A23.16,23.16,0,0,1,120.5,54.2Z"/><path class="cls-3" d="M120,49h0c-.87-3.82-2.75-6.79-5.45-8a6.64,6.64,0,0,0-3.84-.52,6.18,6.18,0,0,1,1.7.52c2.71,1.24,4.59,4.21,5.45,8h0a23.75,23.75,0,0,1,.54,5.19v0c0,.23,0,.45,0,.68s0,.62,0,.93,0,.32,0,.48a2.45,2.45,0,0,1,0,.27l0,.34h0l-.06.52-.06.49a2,2,0,0,0,0,.24l-.06.4c0,.17-.06.33-.08.49l0,.07-.09.47c0,.17-.06.34-.1.51s-.07.3-.1.45-.07.31-.11.46-.11.41-.16.62l-.12.43c-.06.21-.13.43-.2.65a27.51,27.51,0,0,1-1.82,4.49h0A22.21,22.21,0,0,1,111,72.71a19.2,19.2,0,0,1-3.35,2.52,8.28,8.28,0,0,1-2.15.65,7.56,7.56,0,0,0,4.29-.65,18.77,18.77,0,0,0,3.34-2.52,22,22,0,0,0,4.18-5.46h0a28.45,28.45,0,0,0,1.83-4.49c.06-.22.13-.44.19-.65l.12-.43c.06-.21.11-.41.16-.62s.08-.31.11-.46.07-.3.1-.45.08-.34.11-.51l.09-.47v-.07c0-.16.06-.32.08-.49l.06-.4a2,2,0,0,0,0-.24l.06-.49.06-.52h0l0-.34,0-.27,0-.48c0-.31,0-.62,0-.93s0-.45,0-.68v0A23.16,23.16,0,0,0,120,49Z"/><path class="cls-4" d="M120.4,51.88v0l0,.27,0,.33h0c0,.17,0,.34-.07.51s0,.33-.07.5l0,.24c0,.13,0,.27-.07.4l-.09.49,0,.07-.09.47-.12.5c0,.15-.07.3-.11.45a4.05,4.05,0,0,1-.12.47c0,.2-.11.41-.17.61s-.09.29-.13.43-.14.44-.22.65a26.72,26.72,0,0,1-2,4.5h0a22.58,22.58,0,0,1-4.56,5.46,20.63,20.63,0,0,1-3.65,2.52,8.4,8.4,0,0,1-6.54.13,9,9,0,0,1-3.83-3.19c.91,3.63,2.75,6.43,5.35,7.63a7.12,7.12,0,0,0,6-.13,18.77,18.77,0,0,0,3.34-2.52,22.16,22.16,0,0,0,4.18-5.46h0a28.45,28.45,0,0,0,1.83-4.49c.06-.22.13-.44.19-.66l.12-.42c.06-.21.11-.41.16-.62s.08-.31.11-.46.07-.31.1-.46.08-.33.11-.5l.09-.47v-.07c0-.16.06-.32.08-.49l.06-.4a2,2,0,0,0,0-.24l.06-.49.06-.52h0l0-.33,0-.27,0-.48c0-.31,0-.63,0-.93s0-.45,0-.68v0C120.5,53.41,120.47,52.63,120.4,51.88Z"/><ellipse class="cls-5" cx="107.77" cy="54.83" rx="5.44" ry="4.11" transform="translate(37.02 152.89) rotate(-81.15)"/><ellipse class="cls-6" cx="110.31" cy="55.69" rx="1.15" ry="1.2"/><polygon class="cls-5" points="112.18 69.79 30.05 100.09 15.56 55.24 98.74 28.21 112.18 69.79"/><path class="cls-7" d="M71.8,73.85v.07c0,.32,0,.63,0,1s0,.86-.07,1.3c0,.22,0,.45-.06.67s0,.25,0,.38,0,.31,0,.47h0c0,.24-.06.48-.1.72s-.07.46-.11.69l-.06.33c0,.19-.07.38-.1.57s-.09.46-.14.68l0,.1c0,.22-.1.44-.15.66s-.11.47-.17.7-.11.42-.17.64-.12.43-.19.65l-.27.86c-.07.2-.13.4-.21.6s-.21.6-.32.91a36.77,36.77,0,0,1-3.09,6.29h0a32.09,32.09,0,0,1-12.74,11.16A32.25,32.25,0,1,1,70.88,66.58v0A32,32,0,0,1,71.8,73.85Z"/><path class="cls-2" d="M71.8,73.85v.07c0,.32,0,.63,0,1s0,.86-.07,1.3c0,.22,0,.45-.06.67s0,.25,0,.38,0,.31,0,.47h0c0,.24-.06.48-.1.72s-.07.46-.11.69l-.06.33c0,.19-.07.38-.1.57s-.09.46-.14.68l0,.1c0,.22-.1.44-.15.66s-.11.47-.17.7-.11.42-.17.64-.12.43-.19.65l-.27.86c-.07.2-.13.4-.21.6s-.21.6-.32.91a36.77,36.77,0,0,1-3.09,6.29h0a32.09,32.09,0,0,1-12.74,11.16,14.31,14.31,0,0,1-10.16.18c-4.69-1.77-7.91-6.08-9.33-11.6a25,25,0,0,1-.65-3.65A33.26,33.26,0,0,1,35.65,73c5-13.28,16.64-21.18,26-17.64,4.58,1.73,7.76,5.89,9.23,11.24v0A26.77,26.77,0,0,1,71.8,73.85Z"/><path class="cls-8" d="M70.88,66.6v0c-1.47-5.35-4.65-9.51-9.23-11.24a13.47,13.47,0,0,0-6.51-.73,12.77,12.77,0,0,1,2.89.73c4.58,1.73,7.77,5.89,9.23,11.24,0,0,0,0,0,0a26.77,26.77,0,0,1,.91,7.25.09.09,0,0,1,0,.07c0,.32,0,.63,0,1s0,.86-.07,1.3l-.06.67c0,.13,0,.26,0,.38l-.06.47h0c0,.24-.06.48-.1.72s-.07.46-.1.69l-.06.33c0,.19-.07.38-.11.57s-.09.46-.14.68l0,.11-.15.65-.18.7c0,.21-.11.42-.17.64s-.12.43-.19.65-.17.57-.27.86-.13.4-.2.6l-.33.91a36,36,0,0,1-3.09,6.29h0a32.09,32.09,0,0,1-12.74,11.16,16.67,16.67,0,0,1-3.65.91,15,15,0,0,0,7.27-.91A32.09,32.09,0,0,0,66.43,92.11h0a36.77,36.77,0,0,0,3.09-6.29c.11-.3.22-.61.32-.91s.14-.4.21-.6l.27-.86c.07-.22.13-.44.19-.65s.11-.43.17-.64.12-.46.17-.7S71,81,71,80.8l0-.11c0-.22.09-.45.14-.68s.07-.38.1-.57l.06-.33c0-.23.08-.46.11-.69s.07-.48.1-.72h0c0-.15,0-.31,0-.47s0-.25,0-.38,0-.45.06-.67c0-.44.06-.87.07-1.3s0-.63,0-1v-.07A26.77,26.77,0,0,0,70.88,66.6Z"/><path class="cls-9" d="M71.63,70.6v0c0,.12,0,.25,0,.38a3.78,3.78,0,0,1-.06.47h0c0,.24-.06.49-.1.73l-.12.68a3.4,3.4,0,0,1-.07.34c0,.19-.07.38-.11.57l-.15.68,0,.1c0,.22-.11.44-.16.66l-.19.7c-.06.21-.13.42-.19.63s-.13.43-.21.65-.19.57-.29.86l-.22.6-.36.91A34.62,34.62,0,0,1,66,85.88v0a33.74,33.74,0,0,1-7.73,7.63A35.45,35.45,0,0,1,52,97.06a17,17,0,0,1-11.09.18,14.89,14.89,0,0,1-6.48-4.46c1.54,5.08,4.65,9,9.07,10.67a14.31,14.31,0,0,0,10.16-.18A32.09,32.09,0,0,0,66.43,92.11h0a36.77,36.77,0,0,0,3.09-6.29c.11-.31.22-.61.32-.91s.14-.4.21-.6l.27-.86c.07-.22.13-.44.19-.65s.11-.43.17-.64.12-.46.17-.7S71,81,71,80.79l0-.1c0-.22.09-.45.14-.68s.07-.38.1-.57l.06-.33c0-.23.08-.46.11-.69s.07-.48.1-.72h0c0-.16,0-.31,0-.47s0-.25,0-.38,0-.45.06-.67c0-.44.06-.87.07-1.3s0-.63,0-1v-.07A31.41,31.41,0,0,0,71.63,70.6Z"/><ellipse class="cls-5" cx="50.23" cy="74.73" rx="7.71" ry="6.87" transform="translate(-38.53 89.91) rotate(-65.79)"/><ellipse class="cls-6" cx="54.53" cy="75.94" rx="1.94" ry="1.67"/><path class="cls-10" d="M19.68,51.82c.51.9,4.43-.3,4.81-.41a16.86,16.86,0,0,0,5.87-3.24c1.31-1.1,5.61-3.62,14.22-8.66A108.46,108.46,0,0,1,59.37,32c7.05-2.87,10.64-3.38,12.06-3.55a39.39,39.39,0,0,1,10,.19,57.93,57.93,0,0,1,14.68,3.93c2.19.95,7.41,2.57,7.58,2.3.34-.5-7.93-5.34-11.46-7.47-8.77-5.27-18.84-3.09-28.67-1-14.88,3.21-24.75,9.74-31.35,14.2C26.76,44.34,18.9,50.41,19.68,51.82Z"/><path class="cls-11" d="M103.7,34.89a55.93,55.93,0,0,0-15.12-6.21,45.32,45.32,0,0,0-11.79-1.29C65.57,27.64,57.14,32.06,43,39.47c-1.1.57-2.17,1.15-3.21,1.72A186.72,186.72,0,0,0,22.36,52c-6.49,1.47-8.17.94-8.52.21C12.48,49.34,29.22,38.81,32.08,37h0c6-3.75,12.36-7.72,21.82-11,5.53-1.92,11.46-4,19.65-4.35a58.55,58.55,0,0,1,12.39.42c4.86.79,9.88,2.65,13.74,6.71A21.35,21.35,0,0,1,103.7,34.89Z"/><path class="cls-2" d="M88.58,28.68a45.32,45.32,0,0,0-11.79-1.29C65.57,27.64,57.14,32.06,43,39.47c-1.1.57-2.17,1.15-3.21,1.72L32.08,37c6-3.75,12.36-7.72,21.82-11,5.53-1.92,11.46-4,19.65-4.35a58.55,58.55,0,0,1,12.39.42Z"/><path class="cls-6" d="M117.49,37a4.15,4.15,0,0,0-1.87-2.9c-1-.5-1.53,0-2.18-.49-1-.79-.12-2.37-.91-4-.92-1.95-3.46-2.81-5.28-2.7a6.35,6.35,0,0,0-2.82,1l10.09,15.85C115.91,42,117.87,39.39,117.49,37Z"/><path class="cls-5" d="M116.78,59.34a3.67,3.67,0,0,1-1.39-2.3c-.16-1.94,2.3-2.39,2.31-4.37,0-1.67-1.72-3.37-2.52-4.15-1.09-1.08-1.84-1.32-2-2.15s.49-1.51,1.24-2.47l.09-.13L104.43,27.92a6.68,6.68,0,0,0-.84.64c-5.2,4.74-11.06,34.27-1.24,41.77a6.58,6.58,0,0,0,4.81.81L118.27,60A2.7,2.7,0,0,1,116.78,59.34Z"/><path class="cls-12" d="M107.16,71.14a27.55,27.55,0,0,0,7.46-2.41l5-1.88.07-6.51a3.13,3.13,0,0,0-1.46-.39Z"/><path class="cls-13" d="M107.62,48.33c-1.33,2-.05,3.26.52,8.81.75,7.39.14,12.92-.26,12.94L106,58l-3.38.14a3.49,3.49,0,0,0-1.15,0l-7.61.32c-.26-9.14,0-9.58,0-9.58.76-.25.92,0,2.53,0,.08,0,.06-.16,0-.26-.19-4.09-.27-8.82-.5-13.6,0-.68.79-3-2.45-3.35-1.06-.1-2.88-.41-4.43-.64,5-.91,10.24.23,15.18,2,2.53.89,9.47,2.33,8.79,4.82A61.27,61.27,0,0,1,107.62,48.33Z"/><path class="cls-10" d="M27.74,52.26c.46.92,4.81.09,5.19,0a53.75,53.75,0,0,0,8.58-3.62c6.49-2.84,11-5.52,18.11-8.5,6-2.54,6.82-3.59,13.43-5.9,7.18-2.52,10.54-2.71,12-2.8a30.33,30.33,0,0,1,8.48.28A59.24,59.24,0,0,1,107,35.64a19.83,19.83,0,0,0,6.42,2.3,27.23,27.23,0,0,0-7.85-6.65c-8.7-4.42-19.86-4.3-29.78-2.67-15,2.46-25,8.8-32,12.6C34.5,46.25,27,50.81,27.74,52.26Z"/><path class="cls-10" d="M23.22,52.15c.46.93,10.77-4.7,11.15-4.8a17,17,0,0,0,6-2.93c1.36-1,5.79-3.34,14.64-7.94a109,109,0,0,1,15.14-6.73c7.19-2.52,10.8-2.84,12.23-2.94a39.53,39.53,0,0,1,10,.69,58.52,58.52,0,0,1,14.46,4.66c2.14,1.07,6.56,6.1,6.56,5.78s-4.52-8.6-9-10.87c-8.7-4.42-19.86-4.3-29.78-2.67-15,2.46-25,8.79-32,12.6C33.38,42,22.5,50.71,23.22,52.15Z"/><path class="cls-14" d="M109.53,31.72a21,21,0,0,1,3.87,6.22c-11.63-7.2-21.45-8.15-26.72-8.16C75.46,29.77,66.92,34,52.59,41a187.63,187.63,0,0,0-20.91,12c-6.53,1.32-8.19.75-8.53,0-1.29-2.91,15.69-13,18.6-14.75,6-3.61,12.54-7.42,22.07-10.49C69.4,26.05,75.38,24.12,83.58,24,90.14,23.82,102.15,23.58,109.53,31.72Z"/><path class="cls-15" d="M90.53,70.48c.21,1.72,4.39,1.47,6.19,1.9,1.29.31,1.87-2.5,1.21-3.79-.76-1.49-2.94-1.4-3.27-1.38C92.53,67.32,90.35,69.09,90.53,70.48Z"/><path class="cls-15" d="M71.8,73.92v-.07a32,32,0,0,0-.92-7.25v0a30.69,30.69,0,0,0-1.33-4.17c1.61.27,3,3.43,3.36,5.84.2,1.47.24,4.51-1.11,5.87Z"/><path class="cls-16" d="M93.88,48.92a.39.39,0,0,0,0,.1l2.55-.09C94.8,48.93,94.64,48.67,93.88,48.92Z"/><path class="cls-17" d="M93.88,48.92c.76-.25.92,0,2.53,0,.08,0,.06-.16,0-.26-.19-4.09-.27-8.82-.5-13.6,0-.68.79-3-2.45-3.35-1.06-.1-2.88-.41-4.43-.64a20.1,20.1,0,0,0-2.4-.26c-9.63,0-17.29,3.08-28.32,8.43A27,27,0,0,0,51.08,44c-.06.07,0,0,0,.07A34.08,34.08,0,0,1,61,50.19L93.86,49A.39.39,0,0,1,93.88,48.92Z"/><path class="cls-18" d="M106,58l-3.38.14-1.15,0-7.61.32c-.21-7.48-.08-9.13,0-9.48L61,50.19A31.58,31.58,0,0,1,66,55.81c6.91,2.76,14.08,5.45,20.13,7.87,7.3,2.94,18.59-1,18.59-1L106,70.41l1.86-.33h0Z"/></svg>