<svg id="文档查看器" xmlns="http://www.w3.org/2000/svg" xmlns:xlink="http://www.w3.org/1999/xlink" viewBox="0 0 128 128"><defs><style>.cls-1{fill:url(#未命名的渐变_59);}.cls-2{fill:#607d8b;}.cls-3{fill:#f9f9fa;}.cls-4{fill:#c6171e;}</style><radialGradient id="未命名的渐变_59" cx="64" cy="64" r="56" gradientUnits="userSpaceOnUse"><stop offset="0" stop-color="#d7e7f4"/><stop offset="1" stop-color="#aac7e0"/></radialGradient></defs><title>128</title><g id="_128" data-name="128"><rect class="cls-1" x="8" y="8" width="112" height="112" rx="12"/><g id="atril-粉蓝色"><g id="_512" data-name=" 512"><g id="layer1"><rect id="rect4626" class="cls-2" x="29" y="91" width="65" height="4"/><rect id="rect4628" class="cls-2" x="29" y="98" width="65" height="4"/><rect id="rect4630" class="cls-2" x="29" y="105" width="42" height="4"/><path id="path4004" class="cls-3" d="M59.55,25C56.08,32.57,51,39.24,46.88,46.44c-4.73,7.71-12.59,12.75-19.08,18.9C24.87,67.89,21.67,70.17,19,73c3.43,1.56,7.74-.39,11-1.79,1.78-.67,3.78-3.44.82-.85C26.71,74.47,22.64,78.87,20,84.05c-.67,4.17,5.17-.38,6.8-1.5,7.82-5.8,14.38-13.47,23.52-17.43,4.23-2.59,6.7,1.09,8.34,4.4,2.92,4.51,6.07,9.15,11,11.79,3.65,1.69,8,1.24,11.9.7,8.92-2.29,17.67-6.93,23.08-14.39,3.36-5.87,1.62-12.8,1.26-19.17l-.39-4.53c-2.68,4.59-4.93,9.53-9,13.13-6,5.4-12.24,11.8-20.8,13-3.77,1.61-9.16-1.27-8.35-5.52,1.85-3.59,6.26-4.74,9.53-6.79C85.75,52.62,95.52,48.16,102,40c2.55-2.65,4.41-5.91,3.12-9.59-1.27-2.8-4.52-6.6-7-2.61C90.57,34.6,82,40.2,73.89,46.38c-2.77,1.33-7.57,6.59-10.1,3.54-1.8-8-1-16.5-3.64-24.36C60,25.38,59.89,24.91,59.55,25ZM56,44.67c.19,2.9.31,5.88-1.19,8.53-.66,1.83-7.23,7.22-5.4,2.18a52.5,52.5,0,0,1,6.62-10.71Z"/><path id="path3185" class="cls-4" d="M59.72,25.48c-.14.06-2.52,6.35-6,12.57C45.25,53,39.9,59.5,31.25,65.13c-3.74,2.43-9.63,5.5-10.92,7.18s-.48.62,4.51-.78C37.31,68,36.38,65.25,27,76.28c-12.84,15-6.38,10.35,7.06-1.92,6.14-5.62,12.86-9.54,14.61-10.23A16,16,0,0,1,54,62.82c2.77-.18,4.36.09,5.39,3.06a34.9,34.9,0,0,0,6,10.73A13.37,13.37,0,0,0,69,79.47a10.87,10.87,0,0,0,3.61,1.61,23.15,23.15,0,0,0,7,.22c4.43-.26,12-4.2,17.11-8.24,8.25-6.47,9.35-8.46,9.25-16.63l-.07-9.31-3.93,5.68C93.42,65.06,83.29,73.23,76.46,73.23c-15.09,0-17.1-11.37-2.77-17.12,12.37-5,27.82-14.93,31.74-21.17v-1.4a10.43,10.43,0,0,0-1-3.72A9.46,9.46,0,0,0,102,27.15c-.77-.53-1.23-.83-1.81-.77A1.76,1.76,0,0,0,99,27.68c-1.86,5.26-29.1,26.14-36.28,26.14-.69,0-1-5.36-1.56-13.47C60.52,31.93,60.74,25,59.72,25.48ZM56.66,42.71l.58,6.5A8.21,8.21,0,0,1,52,57c-2.66,1.09-5.28,3-5,0,.13-1.54,2.51-4,5.36-7.92Z"/></g></g></g></g></svg>