<?xml version="1.0" encoding="utf-8"?>
<!-- Generator: Adobe Illustrator 24.0.0, SVG Export Plug-In . SVG Version: 6.00 Build 0)  -->
<svg version="1.1" id="图层_1" xmlns="http://www.w3.org/2000/svg" xmlns:xlink="http://www.w3.org/1999/xlink" x="0px" y="0px"
	 viewBox="0 0 128 128" enable-background="new 0 0 128 128" xml:space="preserve">
<title>bleachbit-112</title>
<path fill="#ADADB0" d="M120.5,82.2v25.1c0,2.3-1.9,4.2-4.2,4.2l0,0h-94c-2.3,0-4.2-1.9-4.2-4.2l0,0V82.2c0,2.1,1.8,3.8,3.9,3.7
	h94.7C118.8,85.9,120.5,84.3,120.5,82.2z"/>
<path fill="#E3E5E6" d="M118.1,85.7v19.5c0,2.2-1.8,3.9-4,3.9l0,0H24.5c-2.2,0-4-1.7-4-3.9V85.6c-1.4-0.5-2.4-1.9-2.4-3.4v25.1
	c0,2.3,1.9,4.2,4.2,4.2l0,0h94.1c2.3,0,4.2-1.9,4.2-4.2l0,0V82.2C120.5,83.7,119.5,85.1,118.1,85.7z"/>
<path fill="#DDDFE0" d="M120.5,82.2c0,2.1-1.8,3.8-3.9,3.7H21.9c-2.1,0-3.8-1.6-3.9-3.7v-0.1c0-0.4,0.1-0.8,0.3-1.2l16.9-42.8
	c0.6-1.5,2-2.4,3.6-2.4h60.5c1.6,0,3,0.9,3.6,2.3l17.3,42.8C120.4,81.2,120.5,81.6,120.5,82.2C120.5,82.1,120.5,82.1,120.5,82.2z"/>
<path fill="#FAFCFE" d="M120.5,82.1c0-0.4-0.1-0.9-0.3-1.3L102.9,38c-0.6-1.4-2-2.4-3.6-2.4H38.8c-1.6,0-3,0.9-3.6,2.4L18.3,80.8
	c-0.2,0.4-0.2,0.8-0.3,1.2v0.1c0,2.1,1.8,3.8,3.9,3.7h94.7C118.7,85.8,120.4,84.2,120.5,82.1L120.5,82.1z M114.3,83.9h-90
	c-2,0.1-3.6-1.5-3.7-3.4v-0.1c0-0.4,0.1-0.8,0.2-1.1L36.9,40c0.6-1.4,1.9-2.2,3.4-2.2h57.5c1.5,0,2.8,0.8,3.4,2.2l16.5,39.3
	c0.2,0.4,0.2,0.7,0.2,1.1v0.1C117.9,82.4,116.3,83.9,114.3,83.9z"/>
<ellipse fill="#FAFCFE" cx="110.5" cy="79.6" rx="3.1" ry="2.3"/>
<ellipse fill="#FAFCFE" cx="28.1" cy="79.6" rx="3.1" ry="2.3"/>
<path fill="#FAFCFE" d="M69.3,79.1c-19.9,0-36.2-8.3-37.5-18.8c-0.1,0.5-0.1,0.9-0.1,1.4c0,11.2,16.8,20.2,37.6,20.2
	s37.6-9,37.6-20.2c0-0.5,0-0.9-0.1-1.4C105.5,70.8,89.2,79.1,69.3,79.1z"/>
<polygon fill="#9B9A9D" points="53.6,91.9 53.2,105 30.3,105 29.8,91.9 "/>
<polygon fill="#C6C6C8" points="53.6,91.9 53.6,105.8 29.8,105.8 29.8,91.9 30.3,105 53.2,105 "/>
<rect x="83.2" y="91.7" fill="#8C898D" width="27.7" height="13.9"/>
<rect x="83.2" y="91.3" fill="#BFBFC1" width="3" height="14.7"/>
<rect x="88.1" y="91.3" fill="#BFBFC1" width="3" height="14.7"/>
<rect x="93.1" y="91.3" fill="#BFBFC1" width="3" height="14.7"/>
<rect x="98" y="91.3" fill="#BFBFC1" width="3" height="14.7"/>
<rect x="102.9" y="91.3" fill="#BFBFC1" width="3" height="14.7"/>
<rect x="107.9" y="91.3" fill="#BFBFC1" width="3" height="14.7"/>
<path fill="#C0A300" d="M43,47.8L40.9,49l-16.3,9.6l-2,1.2l-7.2-4.3c-0.7-0.4-0.9-1.3-0.5-1.9c0.1-0.2,0.3-0.4,0.5-0.5l25.1-14.5
	c0.6-0.4,1.5-0.1,1.8,0.5c0.1,0.2,0.2,0.4,0.2,0.6L43,47.8z"/>
<path fill="#FAEA61" d="M40.9,49l-16.3,9.6l-6.1-4c-0.3-0.2-0.3-0.5-0.2-0.7c0-0.1,0.1-0.1,0.2-0.2c3.4-2,17.5-10.1,20.9-12
	c0.3-0.2,0.6-0.1,0.7,0.2c0,0.1,0.1,0.1,0.1,0.2C40.4,43.6,40.7,46.9,40.9,49z"/>
<path fill="#5D0000" d="M49.5,54.4c-0.3,0.7-0.8,1.2-1.4,1.6h-0.2L31,66l-2.6,1.5l-1,0.6c-1.6,0.9-3.7,0.4-4.7-1.2l-1.4-2.4
	c-1-1.6-0.4-3.7,1.2-4.6l0,0h0.1l2-1.2l2.4-1.5l2.3-1.4l0.9-0.5l13.1-7.7c1.6-1,3.7-0.4,4.7,1.2l1.4,2.4
	C49.9,52.2,49.9,53.4,49.5,54.4z"/>
<path fill="#C00500" d="M47.6,53.9L25.9,66.7c-0.3,0.2-0.8,0.1-1-0.3l-2.1-3.6c-0.2-0.3-0.1-0.8,0.2-1l0,0L44.7,49
	c0.3-0.2,0.8-0.1,1,0.2l0,0l2.1,3.6C48.1,53.3,48,53.7,47.6,53.9L47.6,53.9z"/>
<path fill="#795708" d="M12.1,31.2c-0.4-0.5-0.7-1.1-1-1.8c-1.8-4.4-1.7-8.2,2.2-10.3c3.4-1.5,7.1,0.1,9.8,3.9
	c0.4,0.6,0.8,1.3,1,1.9l7.4,18.8l2.2-1.3l-7-19.3c-0.3-0.8-0.6-1.5-1.1-2.2c-3-4.3-8.6-5.8-13-3.4s-6.1,8-4.2,12.8
	c0.3,0.7,0.7,1.4,1.1,2l12.4,16.8l2.6-1.5L12.1,31.2z"/>
<path fill="#DCB262" d="M23.1,23c-2.7-3.8-6.4-5.3-9.8-3.9c-3.9,2.1-4,5.9-2.2,10.3c0.3,0.6,0.6,1.2,1,1.8l12.4,16.5l1.3-0.7
	L15.4,31.8c-0.3-0.5-0.6-1-0.9-1.6c-0.3-0.7-0.6-1.5-0.9-2.2c-0.8-0.8-1.2-1.8-1.2-2.9c0-2.3,1.8-4.2,4.1-4.2c2.1,0,3.9,1.5,4.1,3.6
	c0.5,0.6,0.9,1.2,1.3,1.8c0.4,0.6,0.7,1.1,0.9,1.7L30,44.5l1.3-0.7L24,25C23.8,24.3,23.5,23.6,23.1,23z"/>
<path fill="#B97E00" d="M22,26.2c-0.4-0.6-0.9-1.2-1.4-1.8c0,0.2,0,0.4,0,0.6c0,2.3-1.9,4.1-4.1,4.1c-1.1,0-2.1-0.4-2.9-1.2
	c0.2,0.8,0.5,1.5,0.9,2.2c0.2,0.6,0.5,1.1,0.9,1.6L25.8,47l4.4-2.5L23,27.9C22.7,27.3,22.4,26.7,22,26.2z"/>
<path fill="#865800" d="M20.7,24.4c-0.3-2.3-2.4-3.8-4.7-3.5c-2.1,0.3-3.6,2.1-3.6,4.1c0,1.1,0.4,2.2,1.2,3c1.6,1.6,4.2,1.6,5.9,0
	c0.8-0.8,1.2-1.8,1.2-2.9C20.7,24.8,20.7,24.6,20.7,24.4z M16.6,27.1c-1.2,0-2.1-1-2.1-2.1c0-1.2,1-2.1,2.1-2.1c1.2,0,2.1,1,2.1,2.1
	C18.7,26.2,17.7,27.1,16.6,27.1L16.6,27.1z"/>
<path fill="#FFFFFF" d="M18.7,25c0-1.2-0.9-2.1-2.1-2.1s-2.1,0.9-2.1,2.1s0.9,2.1,2.1,2.1C17.7,27.1,18.7,26.2,18.7,25z"/>
<path fill="#B89B00" d="M89.8,84.7c-1.6,2-3.4,4-5.2,5.7c-0.5,0.5-1.1,1-1.7,1.5L82.8,92c-2.6,2.2-5.4,4.2-8.4,5.8l-1.6,0.9
	c-0.1,0.1-0.3,0.2-0.4,0.2c-2,1.1-3.8,2-5.4,2.8c-1,0.5-2,0.9-2.8,1.3c-1.5,0.7-2.8,1.2-4,1.6l-1.1,0.4c-0.9,0.3-1.8,0.7-2.5,0.9
	c-2.1,0.8-4.3,1.4-6.5,1.8c-0.7,0.1-1.1,0.2-1.4,0.2c-0.7,0.1-1.4,0.2-2.1,0.3c-1.4,0.1-2.7,0.2-3.6,0.2c-3.1-2.9-5.8-6.3-7.9-10
	c-1.9-3.5-3.4-7.2-4.4-11c-1.4-4.6-2.1-9.4-2.3-14.3c-0.1-1.9-0.1-3.8,0-5.7l19.7-11.6c0.6-0.4,1.1-0.9,1.4-1.6
	c0.7,0.1,1.3,0.3,2,0.6c1.9,0.8,3.7,1.9,5.2,3.2c3.4,2.8,5.8,5,5.8,5c4.3,4,6.5,6,7.3,6.8c1.8,1.7,4.3,3.9,7.3,6.5
	c4.4,3.8,6.2,5,8.2,6.1C86.7,83.4,88.3,84.1,89.8,84.7z"/>
<path fill="#EEDD6E" d="M86.3,85.6c-1.4,1.4-3.3,3-5.5,4.8c-2.6,2.1-4.7,3.5-6.1,4.4c-2.3,1.6-4.8,3.1-7.3,4.4
	c-2.9,1.4-5.8,2.7-8.8,3.8c-2.6,1.2-5.4,2.1-8.2,2.8c-2,0.4-4.1,0.6-6.1,0.7c-2.1-1.9-3.9-4-5.4-6.4c-2.2-3.3-3.8-6.8-4.9-10.6
	c-2-5.5-3.1-11.2-3.2-17c0-2.2,0.1-4.4,0.3-6.6l17-10c1.8,0.6,3.6,1.5,5.2,2.5c2.3,1.4,4.4,3.1,6.4,4.9c1.8,1.6,2.5,2.4,4.3,4.2
	c3.4,3.3,6.1,5.6,9.1,8.2c2.7,2.3,5.4,4.6,8.3,6.6C83.3,83.8,85.1,84.8,86.3,85.6z"/>
<path fill="#F5E112" d="M32.7,66.2l12.7-7.7c0.5-0.1,1-0.2,1.4-0.2c1.7,0,3.3,0.5,4.7,1.4c2.4,1.5,3.6,2.7,6.7,5.5
	c3.3,2.9,3.2,2.6,5.3,4.6c0.8,0.8,2.2,2.2,4.8,4.9c3.3,3.3,3.2,3.3,3.6,3.6c1.4,1.2,2.2,1.8,6.6,4.7l4.3,2.9c-1.3,1-3,2.3-5.2,3.9
	c-2.8,2.1-5.8,4.1-8.8,5.9c-3.1,1.8-5.4,2.8-8.3,4.2c-2,1-4.1,1.8-6.2,2.5c-1.6,0.5-3,0.8-3.7,0.9c-1.9,0.4-3.7,0.7-5.6,0.8
	c-1.2-1.2-2.3-2.4-3.3-3.7c-1.7-2.2-3.2-4.7-4.3-7.2c-1.7-3.7-2.8-7.6-3.5-11.6C33,76.5,32.6,71.3,32.7,66.2z"/>
<linearGradient id="SVGID_1_" gradientUnits="userSpaceOnUse" x1="50.26" y1="28.41" x2="82.455" y2="60.605" gradientTransform="matrix(1 0 0 1 0 32)">
	<stop  offset="0" style="stop-color:#B89B00;stop-opacity:0"/>
	<stop  offset="0.11" style="stop-color:#B89B00;stop-opacity:6.000000e-02"/>
	<stop  offset="0.31" style="stop-color:#B89B00;stop-opacity:0.22"/>
	<stop  offset="0.56" style="stop-color:#B89B00;stop-opacity:0.48"/>
	<stop  offset="0.86" style="stop-color:#B89B00;stop-opacity:0.83"/>
	<stop  offset="1" style="stop-color:#B89B00"/>
</linearGradient>
<path fill="url(#SVGID_1_)" d="M84.6,90.5c-0.5,0.5-1.1,1-1.7,1.5h-0.1c-0.6-0.4-1.3-0.9-2-1.4l-0.2-0.1l-0.1-0.1
	c-1.3-0.9-3.3-2.3-5.9-4.2c-4.9-3.7-7.3-5.5-9.4-7.3c-1.4-1.2-2.7-2.6-3.8-4c-0.9-1.1-1.9-2.3-3.7-4.1c-2.9-2.9-5.9-5.5-9.2-7.9
	c0.2-0.4,0.3-0.8,0.5-1.3c3.5,2.2,6.8,4.7,10,7.4c4.2,3.6,4.1,4.2,9.4,8.7c2.3,2,4.6,3.8,9.2,7.5c1.1,0.9,2.6,2.1,4.6,3.6
	c0.1,0.1,0.2,0.1,0.2,0.2L84.6,90.5z"/>
<linearGradient id="SVGID_2_" gradientUnits="userSpaceOnUse" x1="43.7336" y1="33.7664" x2="75.1336" y2="65.1664" gradientTransform="matrix(1 0 0 1 0 32)">
	<stop  offset="0" style="stop-color:#B89B00;stop-opacity:0"/>
	<stop  offset="0.11" style="stop-color:#B89B00;stop-opacity:6.000000e-02"/>
	<stop  offset="0.31" style="stop-color:#B89B00;stop-opacity:0.22"/>
	<stop  offset="0.56" style="stop-color:#B89B00;stop-opacity:0.48"/>
	<stop  offset="0.86" style="stop-color:#B89B00;stop-opacity:0.83"/>
	<stop  offset="1" style="stop-color:#B89B00"/>
</linearGradient>
<path fill="url(#SVGID_2_)" d="M74.4,97.9l-1.6,0.9c-0.1,0.1-0.3,0.2-0.4,0.2c-0.6-0.5-1.2-1-1.8-1.4l-0.1-0.1
	c-1.4-1.2-2.6-2.4-3.8-3.7c-1-1.1-2.6-3.3-5.8-7.6c-2.3-3.1-3.7-5-4.8-6.6c-0.3-0.5-0.7-1-1-1.4c-2.4-3.6-2.7-4.3-4.8-7.3
	s-3.8-5.2-5-6.7l1.5-0.5c2.6,3,5.1,6.1,7.4,9.3c2.3,3.3,2.8,4.4,6,8.9c1.3,1.8,0.6,0.8,5.1,6.8c2.8,3.7,3.5,4.7,4.9,6.1
	c0.6,0.6,1.3,1.2,1.9,1.7C73,96.9,73.7,97.4,74.4,97.9z"/>
<linearGradient id="SVGID_3_" gradientUnits="userSpaceOnUse" x1="38.0397" y1="36.8303" x2="69.0047" y2="67.7953" gradientTransform="matrix(1 0 0 1 0 32)">
	<stop  offset="0" style="stop-color:#B89B00;stop-opacity:0"/>
	<stop  offset="0.11" style="stop-color:#B89B00;stop-opacity:6.000000e-02"/>
	<stop  offset="0.31" style="stop-color:#B89B00;stop-opacity:0.22"/>
	<stop  offset="0.56" style="stop-color:#B89B00;stop-opacity:0.48"/>
	<stop  offset="0.86" style="stop-color:#B89B00;stop-opacity:0.83"/>
	<stop  offset="1" style="stop-color:#B89B00"/>
</linearGradient>
<path fill="url(#SVGID_3_)" d="M67,101.8c-1,0.5-2,0.9-2.8,1.3l-0.9-1.4c-0.1-0.1-0.2-0.3-0.3-0.4l-1-1.6c-1.1-1.8-3.1-4.9-5.5-9
	c-1-1.8-0.8-1.5-4.2-7.6l-1.2-2.2c-1.4-2.6-2.3-4-2.8-4.9c-1.7-2.8-3.5-5.5-5.5-8.2c-0.7-0.9-1.3-1.6-1.7-2.1l1.6-0.3
	c1.9,1.8,3.6,3.8,5.1,6c1,1.5,1.5,2.4,4.7,8c1.7,3.1,3,5.3,4.2,7.4c2.8,5,4.3,7.5,5.2,8.8c1,1.5,2.2,3,3.4,4.3
	C65.8,100.5,66.4,101.2,67,101.8z"/>
<linearGradient id="SVGID_4_" gradientUnits="userSpaceOnUse" x1="33.465" y1="40.315" x2="62.685" y2="69.535" gradientTransform="matrix(1 0 0 1 0 32)">
	<stop  offset="0" style="stop-color:#B89B00;stop-opacity:0"/>
	<stop  offset="0.11" style="stop-color:#B89B00;stop-opacity:6.000000e-02"/>
	<stop  offset="0.31" style="stop-color:#B89B00;stop-opacity:0.22"/>
	<stop  offset="0.56" style="stop-color:#B89B00;stop-opacity:0.48"/>
	<stop  offset="0.86" style="stop-color:#B89B00;stop-opacity:0.83"/>
	<stop  offset="1" style="stop-color:#B89B00"/>
</linearGradient>
<path fill="url(#SVGID_4_)" d="M59.1,105.1c-0.9,0.3-1.8,0.7-2.5,0.9c-0.4-0.3-0.8-0.7-1.2-1.1l-0.5-0.5l-0.6-0.6
	c-0.6-0.7-3.2-3.4-6.3-9.5c-1.3-2.6-2.5-5.3-3.5-8c-0.1-0.3-0.2-0.5-0.3-0.8c-1.5-4-1.6-5.3-3-9.3c-1.3-3.7-2.5-6.6-3.4-8.5l1.4-0.3
	c1.6,2.4,2.9,5,4,7.7c2.1,5.2,1.8,7.3,4.1,13.5c0.9,2.7,2.1,5.4,3.7,7.8c1.7,2.6,3.7,5,6.1,7C57.9,104.2,58.5,104.7,59.1,105.1z"/>
<linearGradient id="SVGID_5_" gradientUnits="userSpaceOnUse" x1="28.425" y1="45.075" x2="54.645" y2="71.295" gradientTransform="matrix(1 0 0 1 0 32)">
	<stop  offset="0" style="stop-color:#B89B00;stop-opacity:0"/>
	<stop  offset="0.11" style="stop-color:#B89B00;stop-opacity:6.000000e-02"/>
	<stop  offset="0.31" style="stop-color:#B89B00;stop-opacity:0.22"/>
	<stop  offset="0.56" style="stop-color:#B89B00;stop-opacity:0.48"/>
	<stop  offset="0.86" style="stop-color:#B89B00;stop-opacity:0.83"/>
	<stop  offset="1" style="stop-color:#B89B00"/>
</linearGradient>
<path fill="url(#SVGID_5_)" d="M50.1,107.8c-0.7,0.1-1.1,0.2-1.4,0.2c-0.7,0.1-1.4,0.2-2.1,0.3c-0.3-0.6-0.6-1.2-0.9-1.8
	c-0.1-0.2-0.2-0.4-0.3-0.6c-0.4-0.8-0.8-1.6-1.2-2.5c-1.3-2.9-2.9-6.3-4.5-10.6c-0.8-2.2-1.6-4.3-2.3-6.6c-0.6-1.8-1.1-3.7-1.5-5.8
	c-0.7-3.2-1.1-6.4-1.3-9.6l1,0.4c0.7,2.6,1.6,6,2.8,9.9c1,3.5,1.6,5.4,2.5,8c1.1,3.4,2.3,6.7,3.8,9.9c1.2,2.5,2.6,4.8,4.1,7.1
	C49.3,106.7,49.7,107.3,50.1,107.8z"/>
<path opacity="0.39" fill="#FFFFFF" enable-background="new    " d="M45.5,105.9l-0.8,0.7h-0.4c-1.1-1-2.1-2-3-3.1
	C39,98,37.7,92.2,37.5,86.2c0.7,2.3,1.5,4.4,2.3,6.6c1.6,4.3,3.2,7.7,4.5,10.6C44.7,104.3,45.1,105.1,45.5,105.9z"/>
<path opacity="0.39" fill="#FFFFFF" enable-background="new    " d="M54.9,104.5c-1.5,0.6-3,1-4.5,1.4l-0.8,0.2
	c-2.3-4.2-3.8-8.8-4.5-13.6c-0.3-2-0.5-4-0.5-6c1,2.7,2.1,5.4,3.5,8c3.1,6.2,5.7,8.8,6.3,9.5L54.9,104.5z"/>
<path opacity="0.39" fill="#FFFFFF" enable-background="new    " d="M63,101.3c-1.2,0.5-2.6,1.1-4.4,1.8l-0.2,0.1
	c-1-2.1-2.1-4.5-3.1-7c-1.9-4.9-3.3-10-4.2-15.2l1.2,2.2c3.3,6,3.1,5.7,4.2,7.6c2.4,4.1,4.3,7.2,5.5,9L63,101.3z"/>
<path opacity="0.39" fill="#FFFFFF" enable-background="new    " d="M70.6,97.5c-1,0.6-2,1.2-3.2,1.8c-0.7,0.3-1.3,0.7-1.9,1
	c-2.1-4.8-4.2-9.7-6.4-14.6c-1-2.1-1.9-4.2-2.8-6.2c1.1,1.6,2.5,3.5,4.8,6.6c3.2,4.3,4.8,6.5,5.8,7.6C68,95.1,69.2,96.3,70.6,97.5z"
	/>
<path opacity="0.39" fill="#FFFFFF" enable-background="new    " d="M80.7,90.5c-1.8,1.4-3.3,2.5-4.6,3.4C73.7,91,71.4,88.1,69,85
	c-2.7-3.4-5.2-6.8-7.5-10.2c1.2,1.4,2.5,2.8,3.8,4c2,1.8,4.5,3.7,9.4,7.3c2.5,1.9,4.6,3.3,5.9,4.2C80.6,90.4,80.6,90.5,80.7,90.5z"
	/>
</svg>
