<svg id="图层_1" data-name="图层 1" xmlns="http://www.w3.org/2000/svg" xmlns:xlink="http://www.w3.org/1999/xlink" viewBox="0 0 128 128"><defs><style>.cls-1{fill:#adadb0;}.cls-2{fill:#e3e5e6;}.cls-3{fill:#dddfe0;}.cls-4{fill:#fafcfe;}.cls-5{fill:#9b9a9d;}.cls-6{fill:#c6c6c8;}.cls-7{fill:#8c898d;}.cls-8{fill:#bfbfc1;}.cls-9{fill:#c0a300;}.cls-10{fill:#faea61;}.cls-11{fill:#5d0000;}.cls-12{fill:#c00500;}.cls-13{fill:#795708;}.cls-14{fill:#dcb262;}.cls-15{fill:#b97e00;}.cls-16{fill:#865800;}.cls-17,.cls-26{fill:#fff;}.cls-18{fill:#b89b00;}.cls-19{fill:#eedd6e;}.cls-20{fill:#f5e112;}.cls-21{fill:url(#未命名的渐变_10);}.cls-22{fill:url(#未命名的渐变_10-2);}.cls-23{fill:url(#未命名的渐变_10-3);}.cls-24{fill:url(#未命名的渐变_10-4);}.cls-25{fill:url(#未命名的渐变_10-5);}.cls-26{opacity:0.39;}</style><linearGradient id="未命名的渐变_10" x1="50.27" y1="60.36" x2="82.48" y2="92.57" gradientUnits="userSpaceOnUse"><stop offset="0" stop-color="#b89b00" stop-opacity="0"/><stop offset="0.11" stop-color="#b89b00" stop-opacity="0.06"/><stop offset="0.31" stop-color="#b89b00" stop-opacity="0.22"/><stop offset="0.56" stop-color="#b89b00" stop-opacity="0.48"/><stop offset="0.86" stop-color="#b89b00" stop-opacity="0.83"/><stop offset="1" stop-color="#b89b00"/></linearGradient><linearGradient id="未命名的渐变_10-2" x1="43.81" y1="65.63" x2="75.24" y2="97.06" xlink:href="#未命名的渐变_10"/><linearGradient id="未命名的渐变_10-3" x1="38.06" y1="68.82" x2="69.03" y2="99.79" xlink:href="#未命名的渐变_10"/><linearGradient id="未命名的渐变_10-4" x1="33.43" y1="72.35" x2="62.65" y2="101.57" xlink:href="#未命名的渐变_10"/><linearGradient id="未命名的渐变_10-5" x1="28.44" y1="77.06" x2="54.66" y2="103.28" xlink:href="#未命名的渐变_10"/></defs><title>bleachbit-112</title><path class="cls-1" d="M120.5,82.18v25.13a4.19,4.19,0,0,1-4.19,4.19h-94a4.18,4.18,0,0,1-4.2-4.19V82.19a3.8,3.8,0,0,0,3.86,3.73h94.72A3.81,3.81,0,0,0,120.5,82.18Z"/><path class="cls-2" d="M118.08,85.65v19.5a3.93,3.93,0,0,1-4,3.87H24.48a3.94,3.94,0,0,1-4-3.87V85.64a3.75,3.75,0,0,1-2.41-3.45v25.12a4.18,4.18,0,0,0,4.2,4.19h94.05a4.19,4.19,0,0,0,4.19-4.19V82.18A3.77,3.77,0,0,1,118.08,85.65Z"/><path class="cls-3" d="M120.5,82.18a3.81,3.81,0,0,1-3.86,3.74H21.92a3.8,3.8,0,0,1-3.86-3.73v-.12a3.59,3.59,0,0,1,.25-1.22L35.25,38.06a3.84,3.84,0,0,1,3.6-2.4H99.31A3.87,3.87,0,0,1,102.9,38l17.33,42.79a3.33,3.33,0,0,1,.26,1.25A.41.41,0,0,1,120.5,82.18Z"/><path class="cls-4" d="M120.49,82.07a3.33,3.33,0,0,0-.26-1.25L102.9,38a3.87,3.87,0,0,0-3.59-2.37H38.85a3.84,3.84,0,0,0-3.6,2.4L18.31,80.85a3.59,3.59,0,0,0-.25,1.22v.12a3.8,3.8,0,0,0,3.86,3.73h94.72a3.81,3.81,0,0,0,3.86-3.74A.41.41,0,0,0,120.49,82.07Zm-6.18,1.82H24.25a3.56,3.56,0,0,1-3.67-3.43v-.11a3.27,3.27,0,0,1,.24-1.12l16.1-39.34a3.68,3.68,0,0,1,3.43-2.2H97.83a3.67,3.67,0,0,1,3.41,2.18l16.49,39.34a2.92,2.92,0,0,1,.24,1.14.41.41,0,0,1,0,.11A3.56,3.56,0,0,1,114.31,83.89Z"/><ellipse class="cls-4" cx="110.46" cy="79.62" rx="3.06" ry="2.26"/><ellipse class="cls-4" cx="28.1" cy="79.62" rx="3.06" ry="2.26"/><path class="cls-4" d="M69.28,79.11c-19.9,0-36.18-8.31-37.51-18.82a10.7,10.7,0,0,0-.1,1.39c0,11.16,16.84,20.2,37.61,20.2s37.6-9,37.6-20.2a12.81,12.81,0,0,0-.09-1.39C105.46,70.8,89.18,79.11,69.28,79.11Z"/><polygon class="cls-5" points="53.62 91.92 53.2 104.99 30.31 104.99 29.8 91.92 53.62 91.92"/><polygon class="cls-6" points="53.62 91.92 53.62 105.84 29.8 105.84 29.8 91.92 30.31 104.99 53.2 104.99 53.62 91.92"/><rect class="cls-7" x="83.19" y="91.65" width="27.65" height="13.92"/><rect class="cls-8" x="83.19" y="91.27" width="2.98" height="14.69"/><rect class="cls-8" x="88.13" y="91.27" width="2.98" height="14.69"/><rect class="cls-8" x="93.06" y="91.27" width="2.98" height="14.69"/><rect class="cls-8" x="98" y="91.27" width="2.98" height="14.69"/><rect class="cls-8" x="102.93" y="91.27" width="2.98" height="14.69"/><rect class="cls-8" x="107.87" y="91.27" width="2.98" height="14.69"/><path class="cls-9" d="M43,47.77,40.93,49,24.61,58.61l-2,1.2-7.19-4.34a1.41,1.41,0,0,1,0-2.42L40.5,38.6a1.34,1.34,0,0,1,2,1.08Z"/><path class="cls-10" d="M40.91,49,24.59,58.62l-6.07-4a.54.54,0,0,1,0-.91c3.4-2,17.52-10.11,20.91-12.05a.54.54,0,0,1,.81.42C40.4,43.6,40.71,46.88,40.91,49Z"/><path class="cls-11" d="M49.49,54.37a3.34,3.34,0,0,1-1.39,1.57l-.16.09L31,66l-2.57,1.51-1,.6a3.41,3.41,0,0,1-4.66-1.21l-1.42-2.4a3.39,3.39,0,0,1,1.21-4.66l.07,0,2-1.18L27,57.19l2.31-1.36.85-.49,13.06-7.67a3.42,3.42,0,0,1,4.67,1.2l1.41,2.41A3.36,3.36,0,0,1,49.49,54.37Z"/><path class="cls-12" d="M47.6,53.93,25.86,66.7a.74.74,0,0,1-1-.26l-2.12-3.6a.71.71,0,0,1,.26-1L44.75,49.08a.71.71,0,0,1,1,.26l2.12,3.59A.72.72,0,0,1,47.6,53.93Z"/><path class="cls-13" d="M12.07,31.18a8.54,8.54,0,0,1-1-1.76c-1.75-4.36-1.71-8.16,2.23-10.29,3.37-1.46,7.07.07,9.79,3.87a7.9,7.9,0,0,1,1,1.94l7.36,18.79,2.16-1.25-7-19.27a9.16,9.16,0,0,0-1.1-2.16c-3-4.25-8.62-5.81-13-3.44s-6.12,8-4.16,12.83a8.91,8.91,0,0,0,1.13,2L21.87,49.23l2.62-1.51Z"/><path class="cls-14" d="M23.08,23c-2.72-3.8-6.42-5.33-9.79-3.87-3.94,2.13-4,5.93-2.23,10.29a8.54,8.54,0,0,0,1,1.76L24.49,47.72,25.81,47,15.41,31.75a9.52,9.52,0,0,1-.89-1.59,19.1,19.1,0,0,1-.86-2.23A4.06,4.06,0,0,1,12.43,25a4.14,4.14,0,0,1,8.24-.62A16.78,16.78,0,0,1,22,26.17a10.62,10.62,0,0,1,.9,1.74l7.22,16.55,1.27-.73L24.07,24.94A7.9,7.9,0,0,0,23.08,23Z"/><path class="cls-15" d="M22,26.17a16.78,16.78,0,0,0-1.37-1.81,4.6,4.6,0,0,1,0,.64,4.14,4.14,0,0,1-7.06,2.93,19.1,19.1,0,0,0,.86,2.23,9.52,9.52,0,0,0,.89,1.59L25.81,47l4.35-2.5L22.94,27.91A10.62,10.62,0,0,0,22,26.17Z"/><path class="cls-16" d="M20.67,24.36a4.14,4.14,0,0,0-8.24.62,4.06,4.06,0,0,0,1.23,2.95A4.14,4.14,0,0,0,20.72,25,4.6,4.6,0,0,0,20.67,24.36Zm-4.11,2.73A2.1,2.1,0,1,1,18.68,25,2.09,2.09,0,0,1,16.56,27.09Z"/><path class="cls-17" d="M18.68,25a2.11,2.11,0,0,0-2.1-2.11A2.1,2.1,0,1,0,18.68,25Z"/><path class="cls-18" d="M89.82,84.74a52.23,52.23,0,0,1-5.24,5.74c-.53.49-1.07,1-1.66,1.48l-.07.06a52.62,52.62,0,0,1-8.41,5.84l-1.55.89c-.14.09-.28.16-.42.24-2,1.11-3.79,2-5.45,2.81-1,.49-2,.91-2.84,1.28-1.52.65-2.85,1.18-4,1.61l-1.1.42c-.92.35-1.76.65-2.55.91a49.86,49.86,0,0,1-6.47,1.83c-.65.13-1.1.2-1.36.24-.74.1-1.44.19-2.09.25-1.44.13-2.67.17-3.62.17a42.75,42.75,0,0,1-7.91-10,46.61,46.61,0,0,1-4.42-11,58.13,58.13,0,0,1-2.3-14.26,45.42,45.42,0,0,1,0-5.69L48.1,55.94a3.34,3.34,0,0,0,1.39-1.57,16,16,0,0,1,2,.58,17.72,17.72,0,0,1,5.19,3.22c3.38,2.78,5.78,5,5.78,5,4.32,4,6.49,6,7.32,6.79,1.85,1.7,4.32,3.92,7.32,6.46,4.43,3.76,6.22,5,8.16,6.11A37,37,0,0,0,89.82,84.74Z"/><path class="cls-19" d="M86.33,85.59c-1.42,1.36-3.26,3-5.53,4.84-2.6,2.07-4.69,3.46-6.13,4.41a72.78,72.78,0,0,1-7.31,4.42,90,90,0,0,1-8.76,3.82,50.73,50.73,0,0,1-8.17,2.81,32.23,32.23,0,0,1-6.13.67,36.17,36.17,0,0,1-5.44-6.37,40.5,40.5,0,0,1-4.94-10.6,54.32,54.32,0,0,1-3.23-17A51.71,51.71,0,0,1,31,66l17-10a27.67,27.67,0,0,1,5.21,2.48,41,41,0,0,1,6.38,4.93c1.83,1.62,2.54,2.4,4.33,4.16,3.41,3.3,6.1,5.59,9.11,8.15a103.07,103.07,0,0,0,8.34,6.62C83.32,83.77,85.07,84.85,86.33,85.59Z"/><path class="cls-20" d="M32.73,66.15l12.68-7.72a6.73,6.73,0,0,1,1.44-.17,8.61,8.61,0,0,1,4.68,1.44c2.39,1.45,3.58,2.73,6.72,5.52,3.3,2.93,3.2,2.6,5.28,4.58.82.79,2.18,2.18,4.85,4.93C71.64,78.08,71.53,78,72,78.38c1.38,1.21,2.23,1.75,6.64,4.67l4.34,2.88c-1.27,1-3,2.35-5.19,3.91a100,100,0,0,1-8.85,5.86c-3.06,1.76-5.37,2.83-8.26,4.16a45.5,45.5,0,0,1-6.21,2.46c-1.64.49-3,.78-3.74.93a51.87,51.87,0,0,1-5.62.85,36.29,36.29,0,0,1-3.31-3.74,37.35,37.35,0,0,1-4.34-7.21,45.82,45.82,0,0,1-3.49-11.63A70.46,70.46,0,0,1,32.73,66.15Z"/><path class="cls-21" d="M84.58,90.48c-.53.49-1.07,1-1.66,1.48l-.07.06q-.94-.63-2-1.38l-.16-.12a1.1,1.1,0,0,1-.14-.09c-1.31-.91-3.33-2.35-5.87-4.24-4.89-3.65-7.34-5.47-9.36-7.31a35.66,35.66,0,0,1-3.85-4c-.9-1.08-1.88-2.27-3.72-4.13a76.51,76.51,0,0,0-9.19-7.89c.18-.42.34-.85.52-1.27A94.2,94.2,0,0,1,59.1,69c4.18,3.57,4.12,4.17,9.45,8.74,2.32,2,4.61,3.83,9.19,7.47,1.13.91,2.62,2.09,4.59,3.57a1.84,1.84,0,0,1,.22.17Z"/><path class="cls-22" d="M74.44,97.86l-1.55.89c-.14.09-.28.16-.42.24-.62-.49-1.21-1-1.75-1.43l-.13-.1a42.1,42.1,0,0,1-3.83-3.72c-1-1.12-2.62-3.31-5.78-7.64-2.28-3.11-3.7-5-4.81-6.63-.35-.5-.67-1-1-1.43-2.38-3.58-2.69-4.29-4.76-7.31s-3.81-5.2-5-6.7l1.53-.51a106.05,106.05,0,0,1,7.4,9.34c2.33,3.31,2.83,4.44,6,8.92,1.3,1.8.62.78,5.1,6.79,2.81,3.74,3.52,4.74,4.94,6.11a23.4,23.4,0,0,0,1.94,1.68A24.35,24.35,0,0,0,74.44,97.86Z"/><path class="cls-23" d="M67,101.8c-1,.49-2,.91-2.84,1.28l-.89-1.37c-.09-.14-.18-.29-.28-.43l-1-1.59c-1.12-1.76-3.09-4.88-5.45-9-1-1.84-.85-1.54-4.17-7.56l-1.22-2.21c-1.43-2.59-2.26-4-2.77-4.92a85.36,85.36,0,0,0-5.54-8.15c-.68-.89-1.27-1.61-1.7-2.12l1.61-.34a43.47,43.47,0,0,1,5.11,6c1,1.48,1.52,2.37,4.68,8,1.72,3.06,3,5.3,4.17,7.38,2.84,5,4.25,7.47,5.19,8.83a46.89,46.89,0,0,0,3.38,4.33C65.82,100.54,66.4,101.17,67,101.8Z"/><path class="cls-24" d="M59.11,105.11c-.92.35-1.76.65-2.55.91-.36-.3-.76-.66-1.19-1.06l-.47-.46-.56-.57c-.64-.67-3.16-3.36-6.29-9.51a73.43,73.43,0,0,1-3.46-8c-.1-.26-.19-.52-.29-.79-1.46-4-1.57-5.25-3-9.33-1.26-3.66-2.52-6.56-3.4-8.49l1.44-.25a43.92,43.92,0,0,1,4,7.72c2.09,5.23,1.75,7.3,4.09,13.5a38.26,38.26,0,0,0,3.66,7.81,30.73,30.73,0,0,0,6.11,7C57.88,104.19,58.51,104.68,59.11,105.11Z"/><path class="cls-25" d="M50.09,107.85c-.65.13-1.1.2-1.36.24-.74.1-1.44.19-2.09.25-.28-.56-.57-1.16-.89-1.83q-.15-.3-.3-.63c-.36-.76-.75-1.58-1.15-2.46-1.32-2.87-2.88-6.27-4.51-10.61-.82-2.19-1.6-4.28-2.31-6.57-.56-1.78-1.07-3.67-1.52-5.82a65.5,65.5,0,0,1-1.28-9.6l1,.43c.69,2.56,1.63,6,2.81,9.93,1,3.52,1.59,5.4,2.46,8a79.91,79.91,0,0,0,3.83,9.93,55.08,55.08,0,0,0,4.09,7.07C49.28,106.71,49.67,107.28,50.09,107.85Z"/><path class="cls-26" d="M45.45,105.88l-.79.68H44.3a35.37,35.37,0,0,1-3-3.11,49.12,49.12,0,0,1-3.84-17.21c.71,2.29,1.49,4.38,2.31,6.57,1.63,4.34,3.19,7.74,4.51,10.61C44.7,104.3,45.09,105.12,45.45,105.88Z"/><path class="cls-26" d="M54.9,104.5a34.82,34.82,0,0,1-4.47,1.39l-.85.17A42.74,42.74,0,0,1,45.06,92.5a42.09,42.09,0,0,1-.47-6,73.43,73.43,0,0,0,3.46,8c3.13,6.15,5.65,8.84,6.29,9.51Z"/><path class="cls-26" d="M63,101.28c-1.21.52-2.62,1.08-4.41,1.8l-.15.06c-1.05-2.14-2.09-4.49-3.06-7a83.79,83.79,0,0,1-4.23-15.2l1.22,2.21c3.32,6,3.12,5.72,4.17,7.56,2.36,4.12,4.33,7.24,5.45,9Z"/><path class="cls-26" d="M70.59,97.46c-1,.57-2,1.17-3.23,1.8-.67.34-1.3.66-1.94,1Q62.33,93.05,59,85.71q-1.43-3.15-2.85-6.24C57.28,81.07,58.7,83,61,86.1c3.16,4.33,4.76,6.52,5.78,7.64A42.1,42.1,0,0,0,70.59,97.46Z"/><path class="cls-26" d="M80.68,90.52c-1.79,1.42-3.33,2.52-4.58,3.37Q72.56,89.63,69,85q-4-5.16-7.54-10.17a35.66,35.66,0,0,0,3.85,4c2,1.84,4.47,3.66,9.36,7.31,2.54,1.89,4.56,3.33,5.87,4.24A1.1,1.1,0,0,0,80.68,90.52Z"/></svg>