<svg id="图层_1" data-name="图层 1" xmlns="http://www.w3.org/2000/svg" viewBox="0 0 128 128"><defs><style>.cls-1{fill:#212121;}.cls-2{fill:#393534;}.cls-3{fill:#0e0c09;}.cls-4{fill:#fff;}</style></defs><title>bomberclone-112</title><path class="cls-1" d="M108.5,76A44.49,44.49,0,1,1,64,31.42,44.52,44.52,0,0,1,108.5,76Z"/><path class="cls-2" d="M86.74,94.84a44.59,44.59,0,0,1-42.11-59,45.07,45.07,0,0,0-7,4.23A44.53,44.53,0,1,0,106.1,90.41,44.21,44.21,0,0,1,86.74,94.84Z"/><path class="cls-3" d="M65,116.33a44.52,44.52,0,0,1-44.5-44.54,44.05,44.05,0,0,1,.85-8.65,44.51,44.51,0,1,0,86.28,21.47A44.53,44.53,0,0,1,65,116.33Z"/><path class="cls-1" d="M30.7,42a1.78,1.78,0,0,1-1-.28c-5-3.32-7.42-10.46-5.89-17.78C26.07,13.31,34.94,9.51,41.41,7.57a1.75,1.75,0,1,1,1,3.35c-9,2.71-13.72,7-15.14,13.75-1.22,5.83.59,11.64,4.39,14.14a1.74,1.74,0,0,1-1,3.2Z"/><path class="cls-1" d="M37.63,40.08a44.92,44.92,0,0,0-7.39,6.86l-9.45-3L35.93,29.89Z"/><path class="cls-4" d="M84.5,53.86a1.72,1.72,0,0,1-1.31-.6,27.72,27.72,0,0,0-14.57-8.75,26.62,26.62,0,0,0-11.65,0,1.75,1.75,0,0,1-.75-3.42,30.27,30.27,0,0,1,13.16,0A31.22,31.22,0,0,1,85.81,51a1.75,1.75,0,0,1-1.31,2.9Z"/><path class="cls-4" d="M94.78,67a1.75,1.75,0,0,1-1.73-1.53,13.11,13.11,0,0,0-4.59-7.64,1.75,1.75,0,0,1,2.17-2.74,16.49,16.49,0,0,1,5.88,10A1.74,1.74,0,0,1,95,67Z"/></svg>