<?xml version="1.0" encoding="utf-8"?>
<!-- Generator: Adobe Illustrator 22.0.0, SVG Export Plug-In . SVG Version: 6.00 Build 0)  -->
<svg version="1.1" xmlns="http://www.w3.org/2000/svg" xmlns:xlink="http://www.w3.org/1999/xlink" x="0px" y="0px"
	 viewBox="0 0 128 128" style="enable-background:new 0 0 128 128;" xml:space="preserve">
<style type="text/css">
	.st0{fill:#8C8985;}
	.st1{fill:#A6A29E;}
	.st2{fill:url(#SVGID_1_);}
	.st3{fill:url(#SVGID_2_);}
	.st4{fill:url(#SVGID_3_);}
	.st5{fill:url(#SVGID_4_);}
	.st6{opacity:0.5;fill:#9E9E9E;}
	.st7{fill:#CB090F;}
	.st8{fill:url(#SVGID_5_);}
	.st9{fill:url(#SVGID_6_);}
	.st10{fill:url(#SVGID_7_);}
	.st11{fill:url(#SVGID_8_);}
	.st12{fill:url(#SVGID_9_);}
	.st13{fill:url(#SVGID_10_);}
	.st14{fill:url(#SVGID_11_);}
	.st15{fill:url(#SVGID_12_);}
	.st16{fill:url(#SVGID_13_);}
	.st17{fill:url(#SVGID_14_);}
	.st18{fill:url(#SVGID_15_);}
	.st19{fill:url(#SVGID_16_);}
	.st20{fill:url(#SVGID_17_);}
	.st21{fill:url(#SVGID_18_);}
	.st22{fill:url(#SVGID_19_);}
	.st23{fill:url(#SVGID_20_);}
	.st24{fill:url(#SVGID_21_);}
	.st25{fill:url(#SVGID_22_);}
	.st26{fill:url(#SVGID_23_);}
	.st27{fill:url(#SVGID_24_);}
	.st28{fill:url(#SVGID_25_);}
	.st29{fill:url(#SVGID_26_);}
	.st30{fill:url(#SVGID_27_);}
	.st31{fill:url(#SVGID_28_);}
	.st32{fill:url(#SVGID_29_);}
	.st33{fill:url(#SVGID_30_);}
	.st34{fill:url(#SVGID_31_);}
	.st35{fill:url(#SVGID_32_);}
	.st36{fill:url(#SVGID_33_);}
	.st37{fill:url(#SVGID_34_);}
	.st38{fill:url(#SVGID_35_);}
	.st39{fill:url(#SVGID_36_);}
	.st40{fill:#311B92;}
	.st41{fill:#512DA8;}
	.st42{fill:#9575CD;}
	.st43{fill:#673AB7;}
	.st44{fill:#CFD8DC;}
	.st45{fill:#F5A816;}
	.st46{fill:url(#SVGID_37_);}
	.st47{fill:url(#SVGID_38_);}
	.st48{fill:url(#SVGID_39_);}
	.st49{fill:url(#SVGID_40_);}
	.st50{fill:url(#SVGID_41_);}
	.st51{fill:url(#SVGID_42_);}
	.st52{fill:url(#SVGID_43_);}
	.st53{fill:url(#SVGID_44_);}
	.st54{fill:url(#SVGID_45_);}
	.st55{fill:url(#SVGID_46_);}
	.st56{fill:url(#SVGID_47_);}
	.st57{fill:url(#SVGID_48_);}
	.st58{fill:url(#SVGID_49_);}
	.st59{fill:url(#SVGID_50_);}
	.st60{fill:url(#SVGID_51_);}
	.st61{fill:url(#SVGID_52_);}
	.st62{fill:url(#SVGID_53_);}
	.st63{fill:url(#SVGID_54_);}
	.st64{fill:url(#SVGID_55_);}
	.st65{fill:url(#SVGID_56_);}
	.st66{fill:url(#SVGID_57_);}
	.st67{fill:url(#SVGID_58_);}
	.st68{fill:url(#SVGID_59_);}
	.st69{fill:url(#SVGID_60_);}
	.st70{fill:url(#SVGID_61_);}
	.st71{fill:url(#SVGID_62_);}
	.st72{fill:url(#SVGID_63_);}
	.st73{fill:url(#SVGID_64_);}
	.st74{fill:url(#SVGID_65_);}
	.st75{fill:url(#SVGID_66_);}
	.st76{fill:url(#SVGID_67_);}
	.st77{fill:url(#SVGID_68_);}
	.st78{fill:url(#SVGID_69_);}
	.st79{fill:url(#SVGID_70_);}
	.st80{fill:url(#SVGID_71_);}
	.st81{fill:url(#SVGID_72_);}
	.st82{fill:url(#SVGID_73_);}
	.st83{fill:url(#SVGID_74_);}
	.st84{fill:url(#SVGID_75_);}
	.st85{fill:url(#SVGID_76_);}
	.st86{fill:url(#SVGID_77_);}
	.st87{fill:url(#SVGID_78_);}
	.st88{fill:url(#SVGID_79_);}
	.st89{fill:url(#SVGID_80_);}
	.st90{fill:url(#SVGID_81_);}
	.st91{fill:url(#SVGID_82_);}
	.st92{fill:url(#SVGID_83_);}
	.st93{fill:url(#SVGID_84_);}
	.st94{fill:url(#SVGID_85_);}
	.st95{fill:url(#SVGID_86_);}
	.st96{fill:url(#SVGID_87_);}
	.st97{fill:url(#SVGID_88_);}
	.st98{fill:url(#SVGID_89_);}
	.st99{fill:url(#SVGID_90_);}
	.st100{fill:url(#SVGID_91_);}
	.st101{fill:url(#SVGID_92_);}
	.st102{fill:url(#SVGID_93_);}
	.st103{fill:url(#SVGID_94_);}
	.st104{fill:url(#SVGID_95_);}
	.st105{fill:url(#SVGID_96_);}
	.st106{fill:url(#SVGID_97_);}
	.st107{fill:url(#SVGID_98_);}
	.st108{fill:url(#SVGID_99_);}
	.st109{fill:url(#SVGID_100_);}
	.st110{fill:url(#SVGID_101_);}
	.st111{fill:url(#SVGID_102_);}
	.st112{fill:url(#SVGID_103_);}
	.st113{fill:url(#SVGID_104_);}
	.st114{fill:url(#SVGID_105_);}
	.st115{fill:url(#SVGID_106_);}
	.st116{fill:url(#SVGID_107_);}
	.st117{fill:url(#SVGID_108_);}
	.st118{fill:#689F38;}
	.st119{fill:#2196F3;}
	.st120{fill:#FF5722;}
	.st121{fill:#DCEDC8;}
	.st122{fill:#7C4DFF;}
	.st123{fill:#E64A19;}
	.st124{fill:#FFF9C4;}
	.st125{fill:#FADD60;}
	.st126{fill:#388E3C;}
	.st127{fill:#33691E;}
	.st128{fill:#FBC02D;}
	.st129{fill:#1A237E;}
	.st130{fill:url(#SVGID_109_);}
	.st131{fill:url(#SVGID_110_);}
	.st132{fill:url(#SVGID_111_);}
	.st133{fill:url(#SVGID_112_);}
	.st134{fill:url(#SVGID_113_);}
	.st135{fill:url(#SVGID_114_);}
	.st136{fill:url(#SVGID_115_);}
	.st137{fill:url(#SVGID_116_);}
	.st138{fill:url(#SVGID_117_);}
	.st139{display:none;}
	.st140{display:inline;}
	.st141{fill:none;stroke:#880E4F;stroke-miterlimit:10;stroke-dasharray:11.9822,11.9822;}
	.st142{fill:none;stroke:#880E4F;stroke-miterlimit:10;}
	.st143{fill:none;stroke:#880E4F;stroke-miterlimit:10;stroke-dasharray:12.1951,12.1951;}
	.st144{fill:none;stroke:#880E4F;stroke-miterlimit:10;stroke-dasharray:12.32,12.32;}
</style>
<g id="图层_1">
	<g>
		<g>
			<g>
				<g>
					<path class="st0" d="M56.9,28.9c-0.6-0.6-7.2-0.7-13.5,0.6c-1.5,0.3-5.3,1.1-13.6,4.7c-5.9,2.6-6.3,3.2-9.5,4.2
						C15.5,39.9,11,38.8,8,38.8c4.3,23.2,8.6,46.4,13,69.6c1.3,0.2,3.6,1,6,0.6c1.9-0.3,2.8-0.5,6.3-1.6c3.6-1.2,3.4-1.1,6.2-2
						c1.2-0.4,3.4-0.8,10-3.5c6.1-2.5,7.1-3.1,8.1-3.3c2.6-0.6,7.7-1.3,13,0.7L56.9,28.9z"/>
					<path class="st1" d="M56.9,28.9c-0.6-0.6-7.1-1.1-13.3,0.1c-1.5,0.3-5.2,1.1-13.3,4.6c-5.8,2.5-6.2,3.1-9.3,4.1
						c-4.8,1.5-9.3,0.5-12.2,0.4c4.3,23.2,8.7,46.4,13,69.6c1.3,0.2,3.5,1,5.9,0.6c1.9-0.3,2.8-0.5,6.1-1.6c3.5-1.1,3.4-1.1,6.1-2
						c1.2-0.4,3.5-0.6,9.8-3.5c6.2-2.8,7-3,8-3.3c2.6-0.6,7.7-0.8,12.9,1.1L56.9,28.9z"/>
					
						<linearGradient id="SVGID_1_" gradientUnits="userSpaceOnUse" x1="165.4468" y1="-222.7915" x2="213.8938" y2="-222.7915" gradientTransform="matrix(0.9816 -0.1911 0.1911 0.9816 -103.9901 321.8141)">
						<stop  offset="0" style="stop-color:#E0E0E0"/>
						<stop  offset="0.4818" style="stop-color:#DEDEDE"/>
						<stop  offset="0.6553" style="stop-color:#D7D7D7"/>
						<stop  offset="0.779" style="stop-color:#CCCCCC"/>
						<stop  offset="0.879" style="stop-color:#BBBBBB"/>
						<stop  offset="0.9637" style="stop-color:#A5A5A5"/>
						<stop  offset="1" style="stop-color:#999999"/>
					</linearGradient>
					<path class="st2" d="M56.9,28.9c-0.6-0.6-7.2-2.5-13.3-1.3c-1.5,0.3-5.1,1.1-13,4.6c-5.7,2.5-6.1,3.1-9.1,4.1
						c-4.7,1.5-8.8,1.7-11.7,1.6c4.3,23.2,8.7,46.4,13,69.5c1.3,0.2,3.2,0.3,5.5,0c1.8-0.3,3.1-0.3,6.3-1.4c3.5-1.1,3.2-1.2,5.9-2.1
						c1.2-0.4,3.2-0.9,9.4-3.8c5.9-2.7,6.5-2.8,7.7-3.1c2.5-0.5,7.6-0.8,12.7,1.2L56.9,28.9z"/>
					
						<linearGradient id="SVGID_2_" gradientUnits="userSpaceOnUse" x1="166.7259" y1="-223.6882" x2="213.8892" y2="-223.6882" gradientTransform="matrix(0.9816 -0.1911 0.1911 0.9816 -103.9901 321.8141)">
						<stop  offset="0" style="stop-color:#FFFFFF"/>
						<stop  offset="0.448" style="stop-color:#FDFDFD"/>
						<stop  offset="0.6093" style="stop-color:#F6F6F6"/>
						<stop  offset="0.7243" style="stop-color:#EBEBEB"/>
						<stop  offset="0.8173" style="stop-color:#DADADA"/>
						<stop  offset="0.897" style="stop-color:#C4C4C4"/>
						<stop  offset="0.9662" style="stop-color:#A9A9A9"/>
						<stop  offset="1" style="stop-color:#999999"/>
					</linearGradient>
					<path class="st3" d="M56.8,28.7l13.4,68.6c-5.1-2-10-1.4-10.9-1.3c-1.9,0.3-4.8,1.7-8.3,3.1c-4.8,2-6.4,2.9-7.5,3.2
						c-2.7,0.9-4.3,1.4-7.7,2.6c-3.3,1.1-4.6,1.1-6.4,1.4c-2.3,0.4-4.3,0.2-5.5,0C20.3,87,16.7,67.6,13.1,48.3
						C13,48,13,47.7,12.9,47.4c-0.7-3.5-1.3-7.1-2-10.6c2.8,0.1,7-0.1,11.7-1.6c3-1,3.4-1.6,9.1-4.1c7.9-3.5,11.5-4.3,13-4.6
						c6.1-1.2,8.5-0.3,10.1,0.6C55.6,27.5,56.3,28.1,56.8,28.7z"/>
				</g>
				<g>
					<path class="st0" d="M56.9,28.9c0.3-0.7,6.4-3.3,12.7-4.5c1.5-0.3,5.4-1,14.3-0.7c6.4,0.2,7.1,0.6,10.3,0.3
						c5.1-0.4,8.9-3.1,11.7-4.2c4.7,23.1,9.4,46.2,14.1,69.3c-1.2,0.7-3,2.2-5.4,2.8c-1.9,0.4-2.8,0.6-6.4,0.9
						c-3.8,0.3-3.6,0.2-6.6,0.4c-1.3,0.1-3.5,0.5-10.6,0.5c-6.6,0-7.8-0.2-8.7,0c-2.6,0.5-7.6,1.7-11.8,5.5L56.9,28.9z"/>
					<path class="st1" d="M56.9,28.9c0.3-0.7,6.2-3.7,12.4-4.9c1.5-0.3,5.3-0.9,14.1-0.7c6.3,0.2,6.9,0.6,10.2,0.3
						c5-0.4,8.8-3,11.5-4.2c4.7,23.1,9.4,46.2,14.1,69.3c-1.1,0.7-2.9,2.2-5.3,2.8c-1.8,0.4-2.8,0.6-6.3,0.8
						c-3.7,0.3-3.5,0.2-6.4,0.4c-1.3,0.1-3.5,0.8-10.4,0.5c-6.8-0.3-7.6-0.2-8.6,0c-2.6,0.4-7.4,2.1-11.5,5.9L56.9,28.9z"/>
					
						<linearGradient id="SVGID_3_" gradientUnits="userSpaceOnUse" x1="2274.8914" y1="-222.7727" x2="2323.3611" y2="-222.7727" gradientTransform="matrix(-0.9816 0.1911 0.1911 0.9816 2386.4868 -163.0281)">
						<stop  offset="0" style="stop-color:#E0E0E0"/>
						<stop  offset="0.4818" style="stop-color:#DEDEDE"/>
						<stop  offset="0.6553" style="stop-color:#D7D7D7"/>
						<stop  offset="0.779" style="stop-color:#CCCCCC"/>
						<stop  offset="0.879" style="stop-color:#BBBBBB"/>
						<stop  offset="0.9637" style="stop-color:#A5A5A5"/>
						<stop  offset="1" style="stop-color:#999999"/>
					</linearGradient>
					<path class="st4" d="M56.9,28.9c0.3-0.7,5.8-5,11.8-6.2c1.5-0.3,5.2-0.9,13.8-0.6c6.2,0.2,6.8,0.6,9.9,0.4
						c4.9-0.3,8.8-1.7,11.4-2.9c4.7,23.1,9.4,46.2,14.1,69.3c-1.1,0.6-2.9,1.5-5.1,2.1c-1.8,0.4-3,0.9-6.4,1.1
						c-3.6,0.3-3.4,0.1-6.2,0.3c-1.2,0.1-3.3,0.4-10.1,0c-6.5-0.3-7.1-0.2-8.3,0c-2.5,0.5-7.3,2.1-11.3,5.9L56.9,28.9z"/>
					
						<linearGradient id="SVGID_4_" gradientUnits="userSpaceOnUse" x1="2276.1711" y1="-223.6703" x2="2323.3591" y2="-223.6703" gradientTransform="matrix(-0.9816 0.1911 0.1911 0.9816 2386.4868 -163.0281)">
						<stop  offset="0" style="stop-color:#FFFFFF"/>
						<stop  offset="0.448" style="stop-color:#FDFDFD"/>
						<stop  offset="0.6093" style="stop-color:#F6F6F6"/>
						<stop  offset="0.7243" style="stop-color:#EBEBEB"/>
						<stop  offset="0.8173" style="stop-color:#DADADA"/>
						<stop  offset="0.897" style="stop-color:#C4C4C4"/>
						<stop  offset="0.9662" style="stop-color:#A9A9A9"/>
						<stop  offset="1" style="stop-color:#999999"/>
					</linearGradient>
					<path class="st5" d="M56.8,28.7l13.4,68.6c4-3.7,8.8-5.1,9.6-5.3c1.9-0.5,5-0.2,8.8-0.2c5.2,0.1,7,0.3,8.2,0.2
						c2.8-0.2,4.5-0.3,8.1-0.5c3.4-0.2,4.6-0.7,6.4-1.1c2.3-0.5,4-1.4,5.1-2.1c-3.9-19.3-7.8-38.6-11.8-57.9
						c-0.1-0.3-0.1-0.6-0.2-0.9c-0.7-3.5-1.4-7.1-2.2-10.6c-2.6,1.1-6.5,2.5-11.4,2.9c-3.1,0.2-3.8-0.2-9.9-0.4
						c-8.6-0.3-12.3,0.3-13.8,0.6c-6.1,1.2-8,2.9-9.1,4.3C57.6,27.2,57.1,28,56.8,28.7z"/>
				</g>
			</g>
			<g>
				<g>
					<path class="st6" d="M58.9,39.3l0.2,0.9c0,0,0,0,0,0c-0.6-0.6-1.3-1.1-2.1-1.6c-1.5-0.9-4-1.7-10.1-0.6
						c-1.5,0.3-5.1,1.1-13,4.6c-5.7,2.5-6.1,3.1-9.1,4.1c-4.6,1.5-8.8,1.7-11.6,1.6C13,48,13,47.7,12.9,47.4c2.8,0.1,7-0.1,11.6-1.6
						c3-1,3.4-1.6,9.1-4.1c7.9-3.5,11.6-4.3,13-4.6c6.1-1.2,8.6-0.3,10.1,0.6C57.6,38.1,58.3,38.7,58.9,39.3
						C58.9,39.3,58.9,39.3,58.9,39.3z"/>
					<path class="st6" d="M60.8,49.2l0.2,0.9c0,0,0,0,0,0c-0.6-0.6-1.3-1.1-2.1-1.6c-1.5-0.9-4-1.7-10.1-0.6
						c-1.5,0.3-5.1,1.1-13,4.6c-5.7,2.5-6.1,3.1-9.1,4.1C22,58,17.9,58.2,15,58.2c-0.1-0.3-0.1-0.6-0.2-0.9c2.8,0.1,7-0.1,11.6-1.6
						c3-1,3.4-1.6,9.1-4.1c7.9-3.5,11.6-4.3,13-4.6c6.1-1.2,8.6-0.3,10.1,0.6C59.6,48,60.3,48.6,60.8,49.2
						C60.8,49.2,60.8,49.2,60.8,49.2z"/>
					<path class="st6" d="M62.8,59.1l0.2,0.9c0,0,0,0,0,0c-0.6-0.6-1.3-1.1-2.1-1.6c-1.5-0.9-4-1.7-10.1-0.6
						c-1.5,0.3-5.1,1.1-13,4.6c-5.7,2.5-6.1,3.1-9.1,4.1c-4.6,1.5-8.8,1.7-11.6,1.6c-0.1-0.3-0.1-0.6-0.2-0.9
						c2.8,0.1,7-0.1,11.6-1.6c3-1,3.4-1.6,9.1-4.1c7.9-3.5,11.6-4.3,13-4.6c6.1-1.2,8.6-0.3,10.1,0.6C61.5,57.9,62.2,58.5,62.8,59.1
						C62.8,59.1,62.8,59.1,62.8,59.1z"/>
					<path class="st6" d="M64.7,69l0.2,0.9c0,0,0,0,0,0c-0.6-0.6-1.3-1.1-2.1-1.6c-1.5-0.9-4-1.7-10.1-0.6c-1.5,0.3-5.1,1.1-13,4.6
						c-5.7,2.5-6.1,3.1-9.1,4.1c-4.6,1.5-8.8,1.7-11.6,1.6c-0.1-0.3-0.1-0.6-0.2-0.9c2.8,0.1,7-0.1,11.6-1.6c3-1,3.4-1.6,9.1-4.1
						c7.9-3.5,11.6-4.3,13-4.6c6.1-1.2,8.6-0.3,10.1,0.6C63.4,67.8,64.1,68.4,64.7,69C64.7,69,64.7,69,64.7,69z"/>
					<path class="st6" d="M66.6,78.9l0.2,0.9c0,0,0,0,0,0c-0.6-0.6-1.3-1.1-2.1-1.6c-1.5-0.9-4-1.7-10.1-0.6
						c-1.5,0.3-5.1,1.1-13,4.6c-5.7,2.5-6.1,3.1-9.1,4.1c-4.6,1.5-8.8,1.7-11.6,1.6c-0.1-0.3-0.1-0.6-0.2-0.9
						c2.8,0.1,7-0.1,11.6-1.6c3-1,3.4-1.6,9.1-4.1c7.9-3.5,11.6-4.3,13-4.6c6.1-1.2,8.6-0.3,10.1,0.6C65.4,77.7,66,78.3,66.6,78.9
						C66.6,78.9,66.6,78.9,66.6,78.9z"/>
					<path class="st6" d="M68.5,88.8l0.2,0.9c0,0,0,0,0,0c-0.6-0.6-1.3-1.1-2.1-1.6c-1.5-0.9-4-1.7-10.1-0.6
						c-1.5,0.3-5.1,1.1-13,4.6c-5.7,2.5-6.1,3.1-9.1,4.1c-4.6,1.5-8.8,1.7-11.6,1.6c-0.1-0.3-0.1-0.6-0.2-0.9
						c2.8,0.1,7-0.1,11.6-1.6c3-1,3.4-1.6,9.1-4.1c7.9-3.5,11.6-4.3,13-4.6c6.1-1.2,8.6-0.3,10.1,0.6C67.3,87.6,68,88.2,68.5,88.8
						C68.5,88.8,68.5,88.8,68.5,88.8z"/>
				</g>
				<g>
					<path class="st6" d="M58.9,39.3l0.2,0.9c0,0,0,0,0,0c0.3-0.7,0.7-1.5,1.3-2.3c1.1-1.4,3.1-3.1,9.1-4.3
						c1.5-0.3,5.2-0.9,13.8-0.6c6.2,0.2,6.8,0.6,10,0.4c4.9-0.3,8.8-1.7,11.4-2.8c-0.1-0.3-0.1-0.6-0.2-0.9
						c-2.6,1.1-6.5,2.5-11.4,2.8c-3.2,0.2-3.8-0.2-10-0.4c-8.6-0.3-12.3,0.3-13.8,0.6c-6.1,1.2-8.1,2.9-9.1,4.3
						C59.6,37.7,59.2,38.5,58.9,39.3C58.9,39.3,58.9,39.3,58.9,39.3z"/>
					<path class="st6" d="M60.8,49.2l0.2,0.9c0,0,0,0,0,0c0.3-0.7,0.7-1.5,1.3-2.3c1.1-1.4,3.1-3.1,9.1-4.3
						c1.5-0.3,5.2-0.9,13.8-0.6c6.2,0.2,6.8,0.6,10,0.4c4.9-0.3,8.8-1.7,11.4-2.8c-0.1-0.3-0.1-0.6-0.2-0.9
						c-2.6,1.1-6.5,2.5-11.4,2.8c-3.2,0.2-3.8-0.2-10-0.4c-8.6-0.3-12.3,0.3-13.8,0.6c-6.1,1.2-8.1,2.9-9.1,4.3
						C61.6,47.6,61.1,48.4,60.8,49.2C60.8,49.2,60.8,49.2,60.8,49.2z"/>
					<path class="st6" d="M62.8,59.1l0.2,0.9c0,0,0,0,0,0c0.3-0.7,0.7-1.5,1.3-2.3c1.1-1.4,3.1-3.1,9.1-4.3
						c1.5-0.3,5.2-0.9,13.8-0.6c6.2,0.2,6.8,0.6,10,0.4c4.9-0.3,8.8-1.7,11.4-2.8c-0.1-0.3-0.1-0.6-0.2-0.9
						c-2.6,1.1-6.5,2.5-11.4,2.8c-3.2,0.2-3.8-0.2-10-0.4c-8.6-0.3-12.3,0.3-13.8,0.6c-6.1,1.2-8.1,2.9-9.1,4.3
						C63.5,57.5,63.1,58.3,62.8,59.1C62.8,59.1,62.8,59.1,62.8,59.1z"/>
					<path class="st6" d="M64.7,69l0.2,0.9c0,0,0,0,0,0c0.3-0.7,0.7-1.5,1.3-2.3c1.1-1.4,3.1-3.1,9.1-4.3c1.5-0.3,5.2-0.9,13.8-0.6
						c6.2,0.2,6.8,0.6,10,0.4c4.9-0.3,8.8-1.7,11.4-2.8c-0.1-0.3-0.1-0.6-0.2-0.9c-2.6,1.1-6.5,2.5-11.4,2.8
						c-3.2,0.2-3.8-0.2-10-0.4c-8.6-0.3-12.3,0.3-13.8,0.6c-6.1,1.2-8.1,2.9-9.1,4.3C65.4,67.4,65,68.2,64.7,69
						C64.7,69,64.7,69,64.7,69z"/>
					<path class="st6" d="M66.6,78.9l0.2,0.9c0,0,0,0,0,0c0.3-0.7,0.7-1.5,1.3-2.3c1.1-1.4,3.1-3.1,9.1-4.3
						c1.5-0.3,5.2-0.9,13.8-0.6c6.2,0.2,6.8,0.6,10,0.4c4.9-0.3,8.8-1.7,11.4-2.8c-0.1-0.3-0.1-0.6-0.2-0.9
						c-2.6,1.1-6.5,2.5-11.4,2.8c-3.2,0.2-3.8-0.2-10-0.4c-8.6-0.3-12.3,0.3-13.8,0.6C71,73.4,69,75.2,68,76.6
						C67.3,77.3,66.9,78.1,66.6,78.9C66.6,78.9,66.6,78.9,66.6,78.9z"/>
					<path class="st6" d="M68.5,88.8l0.2,0.9c0,0,0,0,0,0c0.3-0.7,0.7-1.5,1.3-2.3c1.1-1.4,3.1-3.1,9.1-4.3
						c1.5-0.3,5.2-0.9,13.8-0.6c6.2,0.2,6.8,0.6,10,0.4c4.9-0.3,8.8-1.7,11.4-2.8c-0.1-0.3-0.1-0.6-0.2-0.9
						c-2.6,1.1-6.5,2.5-11.4,2.8c-3.2,0.2-3.8-0.2-10-0.4c-8.6-0.3-12.3,0.3-13.8,0.6c-6.1,1.2-8.1,2.9-9.1,4.3
						C69.3,87.2,68.9,88,68.5,88.8C68.5,88.8,68.5,88.8,68.5,88.8z"/>
				</g>
			</g>
		</g>
		<path class="st7" d="M29.5,82.8c-0.2,0-0.4,0-0.6-0.1c-1.6-0.3-2.5-1.9-2.5-3.3c0-1.5,1.2-3.7,4.4-5.6l0,0
			c2.2-1.3,5.3-2.6,6.9-3.3c0.4-0.9,0.8-2,1.3-3.3c0,0,0.1-0.1,0.1-0.3c0.9-2,1.7-3.8,2.3-5.5c-2.5-4.5-2.7-6.2-2.8-7.4
			c-0.1-0.7,0-4.7,2.2-5.6c1.2-0.5,3,0.2,3.7,1.4c0.8,1.4,1,3.1,0.8,4.3c-0.2,2-1.1,4.6-2,7.2c0.6,1,1.2,2.1,2,3.3
			c0.9,1.4,1.7,2.6,2.3,3.5c1.5-0.2,3-0.4,4.2-0.3c0.8,0,2.8,0.2,4.1,1.5c0.9,0.9,1.4,2.4,0.7,3.5c-1.2,2-4.9,1-5.4,0.8
			c-1.4-0.4-2.6-1.2-4.5-3.6c-3.9,0.7-7.7,1.8-7.7,1.8c0,0-0.1,0-0.2,0.1c-1.1,2.7-1.6,4.1-3.2,6.1C34.4,79.8,32.1,82.8,29.5,82.8z
			 M31.6,75.4c-2.8,1.6-3.5,3.3-3.5,4c0,0.6,0.3,1.5,1.1,1.6c1.8,0.3,4.1-2.7,5.3-4.1c1.1-1.4,1.6-2.4,2.3-4.1
			C35.1,73.6,33.1,74.5,31.6,75.4L31.6,75.4z M48.9,69.7c1.4,1.7,2.2,2,3,2.3c1.5,0.4,3.1,0.4,3.4,0c0.2-0.3,0-1-0.4-1.4
			c-0.9-0.9-2.5-1-3-1C50.9,69.5,49.9,69.6,48.9,69.7z M42.5,63.4c-0.7,1.6-1.3,3.1-1.8,4.3l-0.1,0.2c-0.3,0.7-0.5,1.4-0.8,1.9
			c1.3-0.4,3.6-0.9,5.9-1.4c-0.6-0.8-1.2-1.8-1.9-2.9C43.4,64.8,42.9,64.1,42.5,63.4z M41.7,50c-0.1,0-0.2,0-0.3,0
			c-0.8,0.3-1.2,2.7-1.1,3.7c0.1,1,0.3,2.3,1.9,5.4c0.7-2.2,1.2-4,1.4-5.3c0.1-0.8,0-2.1-0.6-3.2C42.7,50.3,42.1,50,41.7,50z"/>
	</g>
</g>
<g id="图层_2" class="st139">
</g>
</svg>
