<?xml version="1.0" encoding="utf-8"?>
<!-- Generator: Adobe Illustrator 24.0.0, SVG Export Plug-In . SVG Version: 6.00 Build 0)  -->
<svg version="1.1" id="图层_1" xmlns="http://www.w3.org/2000/svg" xmlns:xlink="http://www.w3.org/1999/xlink" x="0px" y="0px"
	 viewBox="0 0 128 128" enable-background="new 0 0 128 128" xml:space="preserve">
<title>bpython128</title>
<path fill="#EDD364" d="M99.3,48.5H85.4v12.8h8c3.2,0,5.8,2.6,5.8,5.8l0,0v8.6c0,3.2-2.6,5.8-5.8,5.8l0,0h-23v12.7h30.1
	c7.4-0.7,13.1-6.9,13.1-14.3v-17C113.6,54.9,107.2,48.5,99.3,48.5z"/>
<path fill="#EDD364" d="M64.8,97.4V61.3H71c0-0.1,0-0.2,0-0.3v-8.6c0-1.4-0.5-2.8-1.5-3.8h-27v59c0,6,3.5,11.4,9,13.8
	c0.5,0.2,1,0.4,1.5,0.5c1.4,0.3,2.8,0.6,4.3,0.8c2.5,0.3,5.1,0.5,7.6,0.5c2.5,0,5.1-0.2,7.6-0.5c2.3-0.3,4.6-0.8,6.8-1.5
	c0.8-0.2,1.6-0.5,2.3-1c4.2-2.8,6.7-7.5,6.7-12.5V100H64.8V97.4z M76.5,105.4c3,0,5.5,2.5,5.5,5.5s-2.5,5.5-5.5,5.5
	s-5.5-2.5-5.5-5.5S73.5,105.4,76.5,105.4L76.5,105.4z"/>
<path fill="#3D79AA" d="M36.5,55.7V28h23.6v-7.5c0-5-2.5-9.7-6.7-12.5c-0.7-0.5-1.5-0.8-2.3-1c-2.3-0.7-4.5-1.1-6.9-1.5
	c-2.5-0.3-5-0.5-7.6-0.5S31.5,5.2,29,5.5c-1.5,0.2-2.9,0.5-4.3,0.8c-0.5,0.1-1,0.3-1.5,0.5c-5.5,2.4-9,7.8-9,13.8v59h28.3V66.7h-6
	L36.5,55.7z M48.3,11.6c3,0,5.5,2.4,5.5,5.5c0,3-2.4,5.5-5.5,5.5c-3,0-5.5-2.4-5.5-5.5l0,0C42.8,14.1,45.3,11.6,48.3,11.6L48.3,11.6
	z"/>
<path fill="#3D79AA" d="M72.3,33.8h-30v12.8h23c3.2,0,5.7,2.6,5.7,5.8V61c0,0.1,0,0.2,0,0.3c-0.2,3-2.7,5.4-5.7,5.4h-0.5v12.8h6.3
	c8,0,14.4-6.4,14.4-14.4l0,0v-17C85.4,40.7,79.8,34.5,72.3,33.8z"/>
</svg>
