<svg id="图层_1" data-name="图层 1" xmlns="http://www.w3.org/2000/svg" viewBox="0 0 128 128"><defs><style>.cls-1{fill:#edd364;}.cls-2{fill:#3d79aa;}</style></defs><title>bpython128</title><path class="cls-1" d="M99.27,48.48H85.45V61.29h8a5.76,5.76,0,0,1,5.76,5.76v8.64a5.76,5.76,0,0,1-5.76,5.76h-23V94.2h30.05a14.39,14.39,0,0,0,13.11-14.33v-17A14.4,14.4,0,0,0,99.27,48.48Z"/><path class="cls-1" d="M64.75,97.37V61.29H71c0-.11,0-.23,0-.34V52.31a5.73,5.73,0,0,0-1.46-3.83h-27v59a15,15,0,0,0,9,13.75,8.32,8.32,0,0,0,1.46.48c1.39.32,2.82.58,4.29.79a55.23,55.23,0,0,0,7.61.52,54.61,54.61,0,0,0,7.56-.52A49.66,49.66,0,0,0,79.29,121,8.41,8.41,0,0,0,81.63,120a15,15,0,0,0,6.7-12.51V100H64.75Zm11.78,8.06a5.48,5.48,0,1,1-5.48,5.48A5.47,5.47,0,0,1,76.53,105.43Z"/><path class="cls-2" d="M36.53,55.68V28H60.11v-7.5A15,15,0,0,0,53.41,8,8.28,8.28,0,0,0,51.07,7,49.66,49.66,0,0,0,44.2,5.52,54.39,54.39,0,0,0,36.64,5,55.23,55.23,0,0,0,29,5.52c-1.47.21-2.9.47-4.29.79a8,8,0,0,0-1.45.48,15,15,0,0,0-9,13.75v59H42.55V66.71h-6ZM48.31,11.62a5.48,5.48,0,1,1-5.47,5.47A5.47,5.47,0,0,1,48.31,11.62Z"/><path class="cls-2" d="M72.35,33.8H42.29V46.55h23A5.76,5.76,0,0,1,71,52.31V61c0,.11,0,.23,0,.34a5.75,5.75,0,0,1-5.74,5.42h-.51V79.52h6.3a14.4,14.4,0,0,0,14.4-14.4v-17A14.39,14.39,0,0,0,72.35,33.8Z"/></svg>