<?xml version="1.0" encoding="utf-8"?>
<!-- Generator: Adobe Illustrator 24.0.0, SVG Export Plug-In . SVG Version: 6.00 Build 0)  -->
<svg version="1.1" id="图层_1" xmlns="http://www.w3.org/2000/svg" xmlns:xlink="http://www.w3.org/1999/xlink" x="0px" y="0px"
	 viewBox="0 0 128 128" enable-background="new 0 0 128 128" xml:space="preserve">
<title>128</title>
<g id="_128">
	
		<linearGradient id="SVGID_1_" gradientUnits="userSpaceOnUse" x1="93.5104" y1="-19.1081" x2="34.4896" y2="83.1081" gradientTransform="matrix(1 0 0 1 0 32)">
		<stop  offset="0" style="stop-color:#179FFC"/>
		<stop  offset="1" style="stop-color:#086DFF"/>
	</linearGradient>
	<path fill="url(#SVGID_1_)" d="M64,5C31.4,5,5,31.4,5,64s26.4,59,59,59s59-26.4,59-59S96.6,5,64,5z M64,70.1
		c-3.4,0-6.1-2.7-6.1-6.1s2.7-6.1,6.1-6.1c3.4,0,6.1,2.7,6.1,6.1l0,0c0.1,3.3-2.6,6-5.9,6.1C64.1,70.1,64.1,70.1,64,70.1z"/>
	
		<linearGradient id="SVGID_2_" gradientUnits="userSpaceOnUse" x1="16.271" y1="4.476" x2="111.7043" y2="59.5668" gradientTransform="matrix(1 0 0 1 0 32)">
		<stop  offset="0" style="stop-color:#179FFC"/>
		<stop  offset="1" style="stop-color:#086DFF"/>
	</linearGradient>
	<path fill="url(#SVGID_2_)" d="M64,8.9C33.6,8.9,8.9,33.6,8.9,64s24.7,55.1,55.1,55.1s55.1-24.7,55.1-55.1C119,33.6,94.4,9,64,8.9z
		 M64,69.7c-3.1,0-5.7-2.6-5.7-5.7c0-3.1,2.6-5.7,5.7-5.7c3.1,0,5.7,2.6,5.7,5.7l0,0c0.1,3.1-2.4,5.6-5.5,5.7
		C64.1,69.7,64.1,69.7,64,69.7z"/>
	<path fill="#F6F5F5" d="M64,14.8c-27.2,0-49.2,22-49.2,49.2s22,49.2,49.2,49.2s49.2-22,49.2-49.2S91.2,14.8,64,14.8z M64,71.8
		c-4.3,0-7.9-3.5-7.9-7.9S59.6,56,64,56c4.3,0,7.9,3.5,7.9,7.9l0,0C71.9,68.3,68.3,71.9,64,71.8L64,71.8z"/>
	
		<linearGradient id="SVGID_3_" gradientUnits="userSpaceOnUse" x1="42.3457" y1="-5.5048" x2="85.6543" y2="69.5048" gradientTransform="matrix(1 0 0 1 0 32)">
		<stop  offset="0" style="stop-color:#00FCFC"/>
		<stop  offset="1" style="stop-color:#086DFF"/>
	</linearGradient>
	<circle fill="url(#SVGID_3_)" cx="64" cy="64" r="43.3"/>
	<g opacity="0.4">
		<path fill="#FFFFFF" d="M98.9,33.1c-4-4.5-8.9-8.2-14.3-10.9L64,64L98.9,33.1z"/>
		<path fill="#FFFFFF" d="M29.1,94.9c4,4.5,8.9,8.2,14.3,10.9L64,64L29.1,94.9z"/>
	</g>
	<g opacity="0.4">
		<path fill="#FFFFFF" d="M109.3,52.5c-1.4-5.9-4-11.5-7.5-16.5L64,63.7L109.3,52.5z"/>
		<path fill="#FFFFFF" d="M18.7,75c1.4,5.9,4,11.5,7.5,16.4L64,63.7L18.7,75z"/>
	</g>
	
		<linearGradient id="SVGID_4_" gradientUnits="userSpaceOnUse" x1="55.86" y1="32" x2="72.14" y2="32" gradientTransform="matrix(1 0 0 1 0 32)">
		<stop  offset="0" style="stop-color:#00FCFC"/>
		<stop  offset="0.34" style="stop-color:#086DFF"/>
		<stop  offset="0.75" style="stop-color:#00FCFC"/>
		<stop  offset="1" style="stop-color:#086DFF"/>
	</linearGradient>
	<circle fill="url(#SVGID_4_)" cx="64" cy="64" r="8.1"/>
	<path fill="#130F30" stroke="#FFFFFF" stroke-miterlimit="10" d="M64,49.3c-8.1,0-14.8,6.6-14.8,14.8S55.9,78.8,64,78.8
		S78.8,72.1,78.8,64l0,0l0,0c0.2-7.9-6.1-14.5-14-14.8L64,49.3"/>
	<circle fill="#FFFFFF" cx="64" cy="64" r="7.4"/>
	
		<linearGradient id="SVGID_5_" gradientUnits="userSpaceOnUse" x1="40.9" y1="32" x2="87.16" y2="32" gradientTransform="matrix(1 0 0 1 0 32)">
		<stop  offset="0" style="stop-color:#04C9FD"/>
		<stop  offset="1" style="stop-color:#086DFF"/>
	</linearGradient>
	
		<circle opacity="0.29" fill="#FFFFFF" stroke="url(#SVGID_5_)" stroke-width="3" stroke-miterlimit="10" enable-background="new    " cx="64" cy="64" r="21.6"/>
	
		<linearGradient id="SVGID_6_" gradientUnits="userSpaceOnUse" x1="42.8" y1="32" x2="85.14" y2="32" gradientTransform="matrix(1 0 0 1 0 32)">
		<stop  offset="0" style="stop-color:#04C9FD"/>
		<stop  offset="1" style="stop-color:#086DFF"/>
	</linearGradient>
	<circle fill="#FFFFFF" stroke="url(#SVGID_6_)" stroke-width="3" stroke-miterlimit="10" cx="64" cy="64" r="19.7"/>
	<circle fill="none" stroke="#02070C" stroke-width="6" stroke-miterlimit="10" cx="64" cy="64" r="10.5"/>
	
		<linearGradient id="SVGID_7_" gradientUnits="userSpaceOnUse" x1="83.6814" y1="45.7" x2="106.7645" y2="45.7" gradientTransform="matrix(1 0 0 1 0 32)">
		<stop  offset="0" style="stop-color:#FFCE33"/>
		<stop  offset="1" style="stop-color:#FF3C00"/>
	</linearGradient>
	<path fill="url(#SVGID_7_)" d="M92.4,109.9L92.4,109.9c1.5-0.2,9.6-6.4,9.6-18.4s-10.9-15-13.8-24.2C85,57.1,91,49.8,95.4,46
		c-0.1-0.6,0.1-1.2,0.6-1.7c0,0-16.3,8.8-11.4,24.2c2.9,9.2,13.8,12.1,13.8,24.2c0,12-8.1,18.3-9.5,18.4c6.1-0.6,12.1-2,17.9-4.2
		C102.1,108.4,97.3,109.4,92.4,109.9L92.4,109.9z"/>
	
		<linearGradient id="SVGID_8_" gradientUnits="userSpaceOnUse" x1="87.2974" y1="45.95" x2="126.6274" y2="45.95" gradientTransform="matrix(1 0 0 1 0 32)">
		<stop  offset="0" style="stop-color:#FFCE33"/>
		<stop  offset="1" style="stop-color:#FF5E33"/>
	</linearGradient>
	<path fill="url(#SVGID_8_)" d="M122.6,90.9c2.7-14.5-9.9-21.3-19-29.1c-5.5-4.7-8.3-12.3-8.2-15.8C91,49.8,85,57.1,88.2,67.3
		c2.9,9.2,13.8,12.1,13.8,24.2s-8.1,18.3-9.5,18.4c4.8-0.5,9.6-1.5,14.3-2.9C114,104.1,121.1,99.2,122.6,90.9z"/>
	
		<linearGradient id="SVGID_9_" gradientUnits="userSpaceOnUse" x1="92.8457" y1="64.15" x2="84.9357" y2="64.15" gradientTransform="matrix(1 0 0 1 0 32)">
		<stop  offset="0" style="stop-color:#FFCE33"/>
		<stop  offset="1" style="stop-color:#FF3C00"/>
	</linearGradient>
	<path fill="url(#SVGID_9_)" d="M88.2,78.4C88,79,87.8,79.5,87.6,80c2,3.8,7.7,13,0.6,19.5c-6,5.4-2.2,12.6-0.8,14.3
		c0.4,0,0.8,0.1,1.2,0.1c-1.3-1.5-5.3-8.8,0.8-14.3C97.8,91.8,88.2,80.2,88.2,78.4z"/>
	
		<linearGradient id="SVGID_10_" gradientUnits="userSpaceOnUse" x1="91.75" y1="64.9" x2="72.23" y2="64.9" gradientTransform="matrix(1 0 0 1 0 32)">
		<stop  offset="0" style="stop-color:#FFCE33"/>
		<stop  offset="1" style="stop-color:#FF5E33"/>
	</linearGradient>
	<path fill="url(#SVGID_10_)" d="M88.2,99.5c7.1-6.5,1.4-15.7-0.6-19.5c-3.2,7.3-12.4,8-14.2,17.8c-1.8,9.5,7.8,15.3,14,16
		C86,112.1,82.2,104.9,88.2,99.5z"/>
</g>
</svg>
