<svg id="图层_1" data-name="图层 1" xmlns="http://www.w3.org/2000/svg" viewBox="0 0 128 128"><defs><style>.cls-1{fill:#a41818;}.cls-2{fill:#781a1a;}.cls-3{fill:#fff;}</style></defs><title>calibre-112</title><rect class="cls-1" x="8" y="8" width="112" height="112" rx="12" ry="12"/><path class="cls-2" d="M62.39,95,51,89.9a45,45,0,0,0-21-3.7l-.48,0V34l8.32,1.1a64.49,64.49,0,0,1,15.54,4l9,3.63Z"/><path class="cls-2" d="M65.61,95,77,89.9a45,45,0,0,1,21-3.7l.48,0V34l-8.32,1.1a64.49,64.49,0,0,0-15.54,4l-9,3.63Z"/><path class="cls-3" d="M62.39,94,51,88.87a45,45,0,0,0-21-3.7l-.48,0V33l8.32,1.1a64.49,64.49,0,0,1,15.54,4l9,3.63Z"/><path class="cls-3" d="M65.61,94,77,88.87a45,45,0,0,1,21-3.7l.48,0V33l-8.32,1.1a64.49,64.49,0,0,0-15.54,4l-9,3.63Z"/></svg>