<svg id="图层_1" data-name="图层 1" xmlns="http://www.w3.org/2000/svg" viewBox="0 0 128 128"><defs><style>.cls-1{fill:#bb904c;}.cls-2{fill:#b59864;}.cls-3{fill:#9c9684;}.cls-4{fill:#c9a15e;}.cls-5{fill:#b16832;}.cls-22,.cls-6{fill:#e6d3b1;}.cls-7{fill:#be944f;}.cls-8{fill:#a7a392;}.cls-9{fill:#ba793c;}.cls-10{fill:#e8cba1;}.cls-11{fill:#aeada8;}.cls-12{fill:#ce9c5e;}.cls-13{fill:#a27f4a;}.cls-14{fill:#b4a390;}.cls-15{fill:#645445;}.cls-16{fill:#704d26;}.cls-17{fill:#562f0e;}.cls-18{fill:#ac5b03;}.cls-19{fill:#d08416;}.cls-20{fill:#d37400;}.cls-21{fill:#825627;opacity:0.7;}.cls-22{opacity:0.29;}.cls-23{fill:#eee6bb;}.cls-24{fill:#f2edd5;}.cls-25,.cls-26{fill:#aa974f;}.cls-25{opacity:0.64;}</style></defs><title>celestia-gnome-112</title><path class="cls-1" d="M95.81,18.63h-44a45.72,45.72,0,0,1,44,0Z"/><path class="cls-2" d="M100.27,21.43H47.39a45.69,45.69,0,0,1,4.46-2.8h44A44.53,44.53,0,0,1,100.27,21.43Z"/><path class="cls-3" d="M103.84,24.23h-60a41.72,41.72,0,0,1,3.56-2.8h52.88A43.5,43.5,0,0,1,103.84,24.23Z"/><path class="cls-4" d="M106.77,27H40.9a38.62,38.62,0,0,1,2.93-2.79h60C104.85,25.11,105.84,26,106.77,27Z"/><path class="cls-5" d="M109.27,29.82H38.4c.79-1,1.63-1.9,2.5-2.8h65.87C107.63,27.92,108.47,28.85,109.27,29.82Z"/><path class="cls-6" d="M114.08,37H33.59a45.4,45.4,0,0,1,4.81-7.15h70.87A46.82,46.82,0,0,1,114.08,37Z"/><path class="cls-7" d="M117.23,44.12H30.43A43.61,43.61,0,0,1,33.59,37h80.49A43.57,43.57,0,0,1,117.23,44.12Z"/><path class="cls-8" d="M118.08,46.91H29.58c.25-.94.53-1.87.85-2.79h86.8C117.55,45,117.84,46,118.08,46.91Z"/><path class="cls-9" d="M119.7,58H28a45.62,45.62,0,0,1,1.62-11.09h88.5A45.14,45.14,0,0,1,119.7,58Z"/><path class="cls-10" d="M119.72,59.12a46.06,46.06,0,0,1-1.08,10H29a46.69,46.69,0,0,1-1.07-10c0-.37,0-.74,0-1.12H119.7C119.72,58.38,119.72,58.75,119.72,59.12Z"/><path class="cls-11" d="M118.64,69.08c-.27,1.27-.61,2.51-1,3.73H30c-.37-1.22-.71-2.46-1-3.73Z"/><path class="cls-5" d="M117.66,72.81a45.79,45.79,0,0,1-2.78,7H32.79a44.82,44.82,0,0,1-2.79-7Z"/><path class="cls-12" d="M114.88,79.76a47.81,47.81,0,0,1-2.75,4.76H35.53a47.72,47.72,0,0,1-2.74-4.76Z"/><path class="cls-13" d="M112.13,84.52a42.59,42.59,0,0,1-3.58,4.76H39.11a45.18,45.18,0,0,1-3.58-4.76Z"/><path class="cls-14" d="M108.55,89.28c-.72.82-1.45,1.62-2.22,2.39h-65c-.77-.77-1.5-1.57-2.22-2.39Z"/><path class="cls-15" d="M106.33,91.67c-.81.83-1.67,1.63-2.54,2.39H43.88c-.88-.76-1.74-1.56-2.55-2.39Z"/><path class="cls-16" d="M103.79,94.06c-1,.83-2,1.62-3,2.37H46.86c-1-.75-2-1.54-3-2.37Z"/><path class="cls-17" d="M100.81,96.43a45.7,45.7,0,0,1-53.95,0Z"/><ellipse class="cls-18" cx="95.81" cy="81.05" rx="10.14" ry="5.8"/><ellipse class="cls-19" cx="95.81" cy="81.05" rx="6.07" ry="3.47"/><ellipse class="cls-20" cx="95.81" cy="81.05" rx="3.68" ry="1.31"/><path class="cls-21" d="M111.07,83.61l1-.58a45.54,45.54,0,0,1-20,4.63h0a45.48,45.48,0,0,1-27-8.82c-1-.74-2-1.54-3-2.37s-1.73-1.56-2.54-2.39-1.5-1.57-2.22-2.39a42.59,42.59,0,0,1-3.58-4.76A45.84,45.84,0,0,1,51,62.17a44.82,44.82,0,0,1-2.79-7c-.37-1.22-.71-2.46-1-3.73a46.06,46.06,0,0,1-1.08-10c0-.37,0-.74,0-1.12a45.06,45.06,0,0,1,1.62-11.08c.24-.95.53-1.88.85-2.8a43.57,43.57,0,0,1,3.15-7.15c.2-.37.41-.73.61-1.09l-.63.34a45.84,45.84,0,0,0-4.47,2.8,45.12,45.12,0,0,0-3.56,2.8c-1,.88-2,1.81-2.93,2.79s-1.71,1.83-2.5,2.8A45.4,45.4,0,0,0,33.45,37a43.57,43.57,0,0,0-3.15,7.15c-.32.92-.61,1.85-.86,2.79A46.12,46.12,0,0,0,27.82,58c0,.38,0,.75,0,1.12a46.06,46.06,0,0,0,1.08,10c.27,1.27.6,2.51,1,3.73a45.87,45.87,0,0,0,2.8,7,47.64,47.64,0,0,0,2.73,4.76A43.93,43.93,0,0,0,39,89.28c.72.82,1.45,1.62,2.21,2.39s1.67,1.63,2.55,2.39,2,1.62,3,2.37a45.54,45.54,0,0,0,27,8.81h0a45.46,45.46,0,0,0,20-4.62c-.31.2-.64.39-1,.58A45.22,45.22,0,0,0,101,96.43c1-.75,2-1.54,3-2.37s1.74-1.56,2.55-2.39,1.5-1.57,2.22-2.39a45.18,45.18,0,0,0,3.58-4.76c.47-.71.91-1.43,1.34-2.16C112.78,82.8,111.94,83.22,111.07,83.61Z"/><path class="cls-21" d="M77.62,102.76a45.48,45.48,0,0,1-27-8.82c-1-.74-2-1.54-3-2.37S45.93,90,45.11,89.18s-1.49-1.56-2.21-2.38A45.05,45.05,0,0,1,39.31,82a47.64,47.64,0,0,1-2.73-4.76,45.87,45.87,0,0,1-2.8-7c-.37-1.22-.7-2.46-1-3.73a46,46,0,0,1-1.08-10c0-.38,0-.75,0-1.12a46,46,0,0,1,1.62-11.09c.25-1,.54-1.88.86-2.8a43.57,43.57,0,0,1,3.15-7.15,45.87,45.87,0,0,1,4.81-7.15c.79-1,1.63-1.9,2.5-2.79s1.92-1.92,2.93-2.8,2-1.61,3-2.35c-1.09.64-2.15,1.31-3.18,2a45.12,45.12,0,0,0-3.56,2.8c-1,.88-2,1.81-2.93,2.79s-1.71,1.83-2.5,2.8A45.4,45.4,0,0,0,33.6,37a44.48,44.48,0,0,0-3.16,7.15c-.32.92-.6,1.85-.85,2.79A45.62,45.62,0,0,0,28,58c0,.38,0,.75,0,1.12a46.06,46.06,0,0,0,1.08,10c.27,1.27.6,2.51,1,3.73a43.88,43.88,0,0,0,2.8,7,45.76,45.76,0,0,0,2.73,4.76,43.93,43.93,0,0,0,3.59,4.76c.71.82,1.44,1.62,2.21,2.39S43,93.3,43.89,94.06s2,1.62,3,2.37a45.7,45.7,0,0,0,54,0l.05,0A45.49,45.49,0,0,1,77.62,102.76Z"/><path class="cls-22" d="M120,58a46.12,46.12,0,0,0-1.62-11.09c-.25-.94-.53-1.87-.86-2.79A43.57,43.57,0,0,0,114.36,37a45.4,45.4,0,0,0-4.81-7.15c-.79-1-1.63-1.9-2.5-2.8s-1.92-1.91-2.93-2.79a45.12,45.12,0,0,0-3.56-2.8,45.7,45.7,0,0,0-48.42-2.8c-.28.15-.54.32-.81.47a45.7,45.7,0,0,1,48.77,7.19c1,.88,2,1.81,2.93,2.79s1.71,1.83,2.5,2.8A45.4,45.4,0,0,1,110.34,39a43.57,43.57,0,0,1,3.15,7.15c.33.92.61,1.85.86,2.8A46,46,0,0,1,116,60.06c0,.38,0,.75,0,1.12a46.06,46.06,0,0,1-1.08,10c-.27,1.27-.6,2.51-1,3.73a44.82,44.82,0,0,1-2.79,6.95,47.72,47.72,0,0,1-2.74,4.76,43.93,43.93,0,0,1-3.59,4.76c-.72.82-1.44,1.62-2.21,2.39s-1.67,1.63-2.55,2.39-2,1.63-3,2.37a45.46,45.46,0,0,1-4.15,2.71,45.92,45.92,0,0,0,8.17-4.77c1-.75,2-1.54,3-2.37s1.73-1.56,2.55-2.39,1.49-1.57,2.21-2.39a43.93,43.93,0,0,0,3.59-4.76,47.72,47.72,0,0,0,2.74-4.76,46.89,46.89,0,0,0,2.79-7c.37-1.22.7-2.46,1-3.73a46.06,46.06,0,0,0,1.08-10C120,58.75,120,58.38,120,58Z"/><path class="cls-8" d="M49.79,110.11l.5-.37c.62-.48,1.21-1,1.79-1.51.06-.06.13-.11.19-.18.43-.4.84-.81,1.24-1.24.08-.08.15-.17.22-.25.51-.56,1-1.14,1.45-1.74l.39-.52q.42-.58.81-1.2c.24-.37.47-.76.69-1.15s.32-.57.47-.87c.27-.52.53-1,.76-1.59.09-.21.18-.43.26-.65.21-.5.39-1,.57-1.54,0-.17.11-.34.16-.51.21-.67.38-1.35.53-2,0-.17.07-.34.1-.52q.21-1.07.33-2.16c0-.14,0-.28,0-.41.07-.79.12-1.58.12-2.38A25.66,25.66,0,0,0,34.82,63.56c-.87,0-1.73,0-2.58.13-.42.05-.83.13-1.25.19s-.83.11-1.24.19c-.58.12-1.14.28-1.7.43-.23.07-.47.11-.69.18-.67.21-1.31.45-2,.71-.11,0-.22.07-.33.12-.72.3-1.41.63-2.09,1l-.09.05c-.14.07-.28.14-.41.22-.58.32-1.14.67-1.69,1-.19.12-.37.25-.54.37-.51.35-1,.72-1.48,1.11l-.27.21c-.55.46-1.07.94-1.58,1.44l-.43.44c-.41.43-.8.86-1.18,1.31-.1.12-.21.23-.31.36s-.33.42-.49.64h0c-.27.35-.53.71-.78,1.07l-.31.47a.36.36,0,0,1-.07.1l0,0q-.42.66-.81,1.35c-.09.16-.18.32-.26.48-.34.64-.66,1.29-.94,2-.07.14-.12.29-.18.43-.17.42-.33.84-.48,1.27l-.06.19c0,.09-.05.18-.08.26l-.18.56c-.08.28-.16.56-.23.84S10,83,10,83.21s-.14.55-.2.82c0,.1,0,.2,0,.3s0,.19-.05.29-.07.41-.11.62c-.05.36-.1.72-.14,1.09l-.06.53c0,.13,0,.26,0,.39-.05.67-.08,1.35-.08,2a25.31,25.31,0,0,0,.13,2.63,25.7,25.7,0,0,0,7.36,15.56,26.56,26.56,0,0,0,3.79,3.14A25.35,25.35,0,0,0,34.82,115c.58,0,1.15,0,1.72-.06l.5,0h.14l.42,0,.65-.08.52-.08c.33-.05.65-.1,1-.17l.4-.08.26-.06c.47-.1.94-.22,1.4-.35L42,114l.3-.08.5-.17c.52-.17,1-.36,1.53-.56l.66-.27c.54-.24,1.06-.5,1.58-.77l.87-.47.86-.52h0l.17-.11C48.92,110.72,49.36,110.43,49.79,110.11Z"/><ellipse class="cls-23" cx="33.59" cy="89.28" rx="25.59" ry="25.72"/><path class="cls-24" d="M33.59,63.56a25.42,25.42,0,0,0-17.75,7.22,25.38,25.38,0,0,1,15.58-5.35,25.73,25.73,0,0,1,17.75,44.22A25.73,25.73,0,0,0,33.59,63.56Z"/><path class="cls-25" d="M50.28,105.12A30.18,30.18,0,0,1,21.42,66.65,25.75,25.75,0,0,0,33.59,115a25.45,25.45,0,0,0,20.29-10.1A30.52,30.52,0,0,1,50.28,105.12Z"/><path class="cls-26" d="M37.77,112.77a27.32,27.32,0,0,1-24.5-39.1A25.73,25.73,0,0,0,33.59,115a25.28,25.28,0,0,0,13.47-3.88A27,27,0,0,1,37.77,112.77Z"/></svg>