<?xml version="1.0" encoding="utf-8"?>
<!-- Generator: Adobe Illustrator 24.0.0, SVG Export Plug-In . SVG Version: 6.00 Build 0)  -->
<svg version="1.1" id="图层_1" xmlns="http://www.w3.org/2000/svg" xmlns:xlink="http://www.w3.org/1999/xlink" x="0px" y="0px"
	 viewBox="0 0 128 128" enable-background="new 0 0 128 128" xml:space="preserve">
<title>codeblocks128</title>
<polygon fill="#1C174C" points="76.1,65.2 118.6,58.3 102.8,52.7 60,56.7 "/>
<polygon fill="#271E5B" points="60.4,96.7 77.3,109.3 76.1,65.2 57.9,55.5 "/>
<polygon fill="#5E44AD" points="118.6,102 77.3,109.3 76.1,65.2 118.6,58.3 "/>
<polygon fill="#4F471F" points="16.7,68.4 9.4,62.4 54.3,58.8 70.1,63.2 "/>
<polygon fill="#EACF5E" points="70.1,112.9 16.7,123 16.7,68.4 70.1,63.3 "/>
<polygon fill="#665F34" points="16.7,123 10.3,104.4 9.4,62.4 16.7,68.4 "/>
<polygon fill="#1B5E20" points="64.4,10.3 74.9,5 74.9,60 65.6,56.7 "/>
<polygon fill="#4CAF50" points="118.6,53.1 74.9,60 74.9,6.7 74.9,5 117.8,8.2 "/>
<polygon fill="#E24949" points="68.8,59.2 14.7,63.2 14.7,5 68.8,7 "/>
<polygon fill="#9B1B1B" points="14.7,5 9.4,10.7 9.4,59.2 14.7,63.2 "/>
</svg>
