<?xml version="1.0" encoding="utf-8"?>
<!-- Generator: Adobe Illustrator 24.0.0, SVG Export Plug-In . SVG Version: 6.00 Build 0)  -->
<svg version="1.1" id="图层_2" opacity="0.8" xmlns="http://www.w3.org/2000/svg" xmlns:xlink="http://www.w3.org/1999/xlink"
	 x="0px" y="0px" viewBox="0 0 16 16" style="enable-background:new 0 0 16 16;" xml:space="preserve">
<style type="text/css">
	.st0{fill:#1F2022;}
</style>
<g>
	<path class="st0" d="M6.1,9H1c-0.6,0-1,0.4-1,1v3c0,0.6,0.4,1,1,1h5.1c0.6,0,1-0.4,1-1v-3C7.1,9.4,6.6,9,6.1,9z M6,12.5
		C6,12.8,5.8,13,5.5,13h-2C3.2,13,3,12.8,3,12.5v-2C3,10.2,3.2,10,3.5,10h2C5.8,10,6,10.2,6,10.5V12.5z"/>
</g>
<g>
	<path class="st0" d="M14.1,2H9C8.4,2,8,2.4,8,3v3c0,0.6,0.4,1,1,1h5.1c0.6,0,1-0.4,1-1V3C15.1,2.4,14.6,2,14.1,2z M14,5.5
		C14,5.8,13.8,6,13.5,6h-2C11.2,6,11,5.8,11,5.5v-2C11,3.2,11.2,3,11.5,3h2C13.8,3,14,3.2,14,3.5V5.5z"/>
</g>
<g>
	<path class="st0" d="M14.1,9H9c-0.6,0-1,0.4-1,1v3c0,0.6,0.4,1,1,1h5.1c0.6,0,1-0.4,1-1v-3C15.1,9.4,14.6,9,14.1,9z M12,12.5
		c0,0.3-0.2,0.5-0.5,0.5h-2C9.2,13,9,12.8,9,12.5v-2C9,10.2,9.2,10,9.5,10h2c0.3,0,0.5,0.2,0.5,0.5V12.5z"/>
</g>
<g>
	<path class="st0" d="M6.1,2H1C0.4,2,0,2.4,0,3v3c0,0.6,0.4,1,1,1h5.1c0.6,0,1-0.4,1-1V3C7.1,2.4,6.6,2,6.1,2z M4,5.5
		C4,5.8,3.8,6,3.5,6h-2C1.2,6,1,5.8,1,5.5v-2C1,3.2,1.2,3,1.5,3h2C3.8,3,4,3.2,4,3.5V5.5z"/>
</g>
</svg>
