<svg id="微信" xmlns="http://www.w3.org/2000/svg" viewBox="0 0 128 128"><defs><style>.cls-1{fill:#66a925;}.cls-2{fill:#fff;}</style></defs><title>128</title><g id="_128" data-name="128"><rect class="cls-1" x="8" y="8" width="112" height="112" rx="12"/><path class="cls-2" d="M54.93,76c0,12.24,11.44,22.17,25.57,22.17a29.37,29.37,0,0,0,8-1.11l9.9,5a.34.34,0,0,0,.49-.36l-1.35-9.18A20.94,20.94,0,0,0,106.07,76c0-12.24-11.45-22.16-25.57-22.16S54.93,63.76,54.93,76Zm39.21-6.82a3.41,3.41,0,1,1-3.41-3.41A3.41,3.41,0,0,1,94.14,69.18Zm-27.28,0a3.41,3.41,0,1,1,3.41,3.41A3.41,3.41,0,0,1,66.86,69.18Z"/><path class="cls-2" d="M52,75.68C52,62,64.44,51,79.86,51c.65,0,1.29.05,1.93.08C80.1,38.08,67.42,28,52,28,35.43,28,22,39.64,22,54c0,7.7,3.88,14.61,10,19.37L30.44,84.15a.4.4,0,0,0,.58.41l11.6-5.86A34.28,34.28,0,0,0,52,80l.4,0A21.86,21.86,0,0,1,52,75.68ZM64,42a4,4,0,1,1-4,4A4,4,0,0,1,64,42ZM40,50a4,4,0,1,1,4-4A4,4,0,0,1,40,50Z"/></g></svg>