<?xml version="1.0" encoding="utf-8"?>
<!-- Generator: Adobe Illustrator 24.0.0, SVG Export Plug-In . SVG Version: 6.00 Build 0)  -->
<svg version="1.1" id="图层_1" xmlns="http://www.w3.org/2000/svg" xmlns:xlink="http://www.w3.org/1999/xlink" x="0px" y="0px"
	 viewBox="0 0 128 128" enable-background="new 0 0 128 128" xml:space="preserve">
<title>dia128</title>
<path fill="#CCCCCC" d="M9.5,110.5v-10h55.8c22.5,0,40.8-15.5,41.5-35.3c0-0.4,0-0.8,0-1.2s0-0.8,0-1.2c-0.7-19.8-19-35.3-41.5-35.3
	H9.5v-10h55.8c29.3,0,53.2,20.9,53.2,46.5s-23.9,46.5-53.2,46.5H9.5z"/>
<path fill="#999999" d="M65.3,19C93.8,19,117,39.2,117,64s-23.2,45-51.7,45H11v-7h54.3c23.4,0,42.3-16.1,43-36.7c0-0.4,0-0.9,0-1.3
	s0-0.9,0-1.3C107.6,42.1,88.7,26,65.3,26H11v-7H65.3 M65.3,16H8v13h57.3c21.7,0,39.3,14.8,40,33.8c0,0.4,0,0.8,0,1.2s0,0.8,0,1.2
	C104.6,84.2,87,99,65.3,99H8v13h57.3c30.2,0,54.7-21.5,54.7-48S95.5,16,65.3,16z"/>
<polygon fill="#CCCCCC" points="23,105.5 26.5,105.5 26.5,38.5 37.5,38.5 37.5,105.5 41,105.5 32,117.5 "/>
<path fill="#999999" d="M36,40v67h2l-6,8l-6-8h2V40H36 M39,37H25v67h-5l12,16l12-16h-5V37z"/>
<rect x="19.5" y="9.5" fill="#8BC34A" width="25" height="30"/>
<path fill="#467725" d="M43,11v27H21V11H43 M46,8H18v33h28V8z"/>
<path fill="#FFB74D" d="M47.1,84L67,44.2L86.9,84H47.1z M55.8,79h22.4L67,56.2L55.8,79z"/>
<path fill="#F7931E" d="M67,46.5L85.3,83H48.7L67,46.5 M54.2,80h25.6l-1.4-2.9l-9.6-19.5L67,53.9l-1.8,3.7l-9.6,19.5L54.2,80 M67,42
	L45.5,85h43L67,42z M57.4,78L67,58.5L76.6,78H57.4z"/>
</svg>
