<svg id="图层_1" data-name="图层 1" xmlns="http://www.w3.org/2000/svg" xmlns:xlink="http://www.w3.org/1999/xlink" viewBox="0 0 128 128"><defs><style>.cls-1{fill:#9ba560;}.cls-2{fill:#aed581;}.cls-3{fill:#b2ebf2;}.cls-4{fill:#5a6340;}.cls-5{fill:#767d46;}.cls-6{fill:url(#未命名的渐变_18);}.cls-7{fill:#8a5e3f;}.cls-8{fill:url(#未命名的渐变_18-2);}.cls-9{fill:#e09652;}.cls-10{fill:url(#未命名的渐变_11);}.cls-11{fill:url(#未命名的渐变_11-2);}.cls-12{fill:url(#未命名的渐变_11-3);}.cls-13{fill:url(#未命名的渐变_31);}.cls-14{fill:#564535;}.cls-15{fill:#eaa165;}.cls-16{fill:url(#未命名的渐变_18-3);}.cls-17{fill:url(#未命名的渐变_21);}.cls-18{fill:url(#未命名的渐变_20);}.cls-19{fill:url(#未命名的渐变_18-4);}.cls-20{fill:url(#未命名的渐变_18-5);}.cls-21{fill:url(#未命名的渐变_18-6);}.cls-22{fill:url(#未命名的渐变_18-7);}.cls-23{fill:url(#未命名的渐变_18-8);}.cls-24{fill:url(#未命名的渐变_20-2);}.cls-25{fill:url(#未命名的渐变_18-9);}.cls-26{fill:#91470f;}.cls-27{fill:#f9dec7;}.cls-28{fill:#2d2b25;}.cls-29{fill:#e89f5a;}.cls-30{fill:#725842;}.cls-31{fill:#388e3c;}.cls-32{fill:#abb26b;}</style><linearGradient id="未命名的渐变_18" x1="48.28" y1="105.73" x2="48.28" y2="68.88" gradientUnits="userSpaceOnUse"><stop offset="0" stop-color="#e09652"/><stop offset="1" stop-color="#c1723d"/></linearGradient><linearGradient id="未命名的渐变_18-2" x1="71.93" y1="82.17" x2="77.51" y2="82.17" xlink:href="#未命名的渐变_18"/><linearGradient id="未命名的渐变_11" x1="60.63" y1="69.84" x2="96.76" y2="105.97" gradientUnits="userSpaceOnUse"><stop offset="0" stop-color="#e09652"/><stop offset="1" stop-color="#f7ae72"/></linearGradient><linearGradient id="未命名的渐变_11-2" x1="36.41" y1="85.56" x2="55.92" y2="105.07" xlink:href="#未命名的渐变_11"/><linearGradient id="未命名的渐变_11-3" x1="46.44" y1="74.58" x2="62.11" y2="101.72" xlink:href="#未命名的渐变_11"/><linearGradient id="未命名的渐变_31" x1="48.86" y1="76.06" x2="79.05" y2="23.77" gradientUnits="userSpaceOnUse"><stop offset="0.35" stop-color="#e09652"/><stop offset="1" stop-color="#c1723d"/></linearGradient><linearGradient id="未命名的渐变_18-3" x1="18.42" y1="69.82" x2="23.09" y2="69.82" gradientTransform="translate(49.8 -42.92) rotate(-13.97)" xlink:href="#未命名的渐变_18"/><linearGradient id="未命名的渐变_21" x1="20.76" y1="70.65" x2="20.76" y2="67.93" gradientTransform="translate(49.8 -42.92) rotate(-13.97)" xlink:href="#未命名的渐变_31"/><linearGradient id="未命名的渐变_20" x1="21.09" y1="70.73" x2="21.09" y2="68.67" gradientTransform="translate(49.8 -42.92) rotate(-13.97)" gradientUnits="userSpaceOnUse"><stop offset="0.28" stop-color="#e09652"/><stop offset="1" stop-color="#c1723d"/></linearGradient><linearGradient id="未命名的渐变_18-4" x1="9.99" y1="70.8" x2="9.99" y2="67.83" gradientTransform="translate(49.8 -42.92) rotate(-13.97)" xlink:href="#未命名的渐变_18"/><linearGradient id="未命名的渐变_18-5" x1="9.99" y1="70.8" x2="9.99" y2="67.83" gradientTransform="translate(49.8 -42.92) rotate(-13.97)" xlink:href="#未命名的渐变_18"/><linearGradient id="未命名的渐变_18-6" x1="9.99" y1="72.01" x2="9.99" y2="69.04" gradientTransform="translate(49.8 -42.92) rotate(-13.97)" xlink:href="#未命名的渐变_18"/><linearGradient id="未命名的渐变_18-7" x1="14.43" y1="80.63" x2="17.33" y2="80.63" gradientTransform="translate(49.8 -42.92) rotate(-13.97)" xlink:href="#未命名的渐变_18"/><linearGradient id="未命名的渐变_18-8" x1="15.03" y1="79.15" x2="18.82" y2="79.15" gradientTransform="translate(49.8 -42.92) rotate(-13.97)" xlink:href="#未命名的渐变_18"/><linearGradient id="未命名的渐变_20-2" x1="15.68" y1="75.25" x2="15.68" y2="65.28" xlink:href="#未命名的渐变_20"/><linearGradient id="未命名的渐变_18-9" x1="15.16" y1="70.8" x2="15.16" y2="63.51" gradientTransform="translate(49.8 -42.92) rotate(-13.97)" xlink:href="#未命名的渐变_18"/></defs><title>diffuse128</title><path class="cls-1" d="M40.84,89.45c-3.24-.21-9.9-2.39-16.5-4.83-2.64,0-5.54-.06-7.94-.26a70,70,0,0,1-8.4-1V93a1.15,1.15,0,0,1,1.53,0c2.8,2.54,13.49-5.09,15.52.76,1.33,3.83,10.7-1.15,17.47-4.13C41.89,89.55,41.33,89.49,40.84,89.45Z"/><path class="cls-2" d="M98,118.54c-5.2-.83-2.49-.41-2.49-1.24s5-1.88,7.22-4,3-1.46,2.34-3.33c-.5-1.51,4.09,1.15,7.43,1.82l-.34-.24c-13.24-9.42-14.26-14.51-27.24-14-8.79.34-22.37-3.28-32.59-5.81,3.95,4.37,10.51,10.66,10.7,13.7.26,4.07,6.11,7.38,4.33,13.24a3.7,3.7,0,0,0-.16,1.27h40.63a11.64,11.64,0,0,0,1.45-.09q-1,0-1.92-.12A74.65,74.65,0,0,1,98,118.54Z"/><path class="cls-3" d="M38,50.76H48s14-1.27,17.57,0,9.92,1,11.71,0c1.39-.79,30.14,2.13,42.76,3.45v-34A12.22,12.22,0,0,0,107.78,8H20.22A12.22,12.22,0,0,0,8,20.22V52l8.65-5.6Z"/><path class="cls-4" d="M13.6,62.22C14.11,64.51,23,60.69,24,64s23.41-2,23.41-2,18.08,12.48,30.3,10.95-.51-13.75,7.89-13,24.43,4.58,24.94,6.62c.22.87,4.57,2.56,9.42,4.4V54.21C107.38,52.89,78.63,50,77.24,50.76c-1.79,1-8.15,1.28-11.71,0s-17.57,0-17.57,0H38L16.65,46.44,8,52V65.39C10.67,63.08,13.35,61.1,13.6,62.22Z"/><path class="cls-5" d="M120,71c-4.85-1.84-9.2-3.53-9.42-4.4-.51-2-16.54-5.86-24.94-6.62s4.32,11.45-7.89,13S47.45,62,47.45,62,25.05,67.31,24,64s-9.93.51-10.44-1.78c-.25-1.12-2.93.86-5.6,3.17V78.14C13.77,80.56,34.3,89,40.84,89.45c7.63.51,31.05,8.66,44,8.15s14,4.58,27.24,14a16.06,16.06,0,0,0,5.87,2.9,12.07,12.07,0,0,0,2-6.72Z"/><path class="cls-6" d="M46,74.4s-.61,7.28-.61,8.69S46,87.07,46,90a63.36,63.36,0,0,1-.61,7.28l-.61,5.66,1,2.83,1.62-1-.6-2.43,1.61-10.51s-.2-6.67,2.14-7.8c1.14-.54,1.3-10.79,1.3-13.22s-2.63-2-3.64-1.41S46,74.4,46,74.4Z"/><polygon class="cls-7" points="47.37 104.72 45.76 105.73 45.76 106.34 48.59 106.34 47.37 104.72"/><path class="cls-8" d="M74.26,69.75c.4,1.42-.61,7.08-1.42,9.3a36.82,36.82,0,0,0-.91,7.6c.25,2.43.53,5.26.53,5.93,0,1.08,1.39,11.74,1.8,12.23h1.8S75,99.06,75,97.8s-.54-4.68-.54-4.68.18-5,.54-7,0-4.14.36-7.37,2.34-5.58,2.16-9.18-1.41-9-1.44-10c-.53,1-1.52,2.77-1.8,3.35C73.85,63.69,73.85,68.34,74.26,69.75Z"/><path class="cls-9" d="M67.18,72c-.47,1.25.62,4.89,1.15,7A7.43,7.43,0,0,0,71,76.94s.36,4.67.54,6.29c.07.61.22,1.94.37,3.42a36.82,36.82,0,0,1,.91-7.6c.81-2.22,1.82-7.88,1.42-9.3s-.41-6.06,0-6.87c.28-.58,1.27-2.37,1.8-3.35v0a1.51,1.51,0,0,1,.1-.43L62.33,68.13Z"/><path class="cls-10" d="M76.06,59.53v0a1.51,1.51,0,0,1,.1-.43L62.33,68.13,67.18,72c-.47,1.25.62,4.89,1.15,7a7.73,7.73,0,0,1,.27,1.44c0,1.22.6,8.09.8,9.71s0,8.28,0,8.89-.2,5.66-.2,5.66h1.62c-.2-.61,1-14,1-15,0-.37,0-1.59.1-3.11a36.82,36.82,0,0,1,.91-7.6c.81-2.22,1.82-7.88,1.42-9.3s-.41-6.06,0-6.87C74.54,62.3,75.53,60.51,76.06,59.53Z"/><path class="cls-9" d="M54.81,103l-.51-2.3L53.69,98h0C53.66,98.28,54.29,100.9,54.81,103Z"/><path class="cls-9" d="M53.58,105.53h.06l-.09-.22A1.34,1.34,0,0,1,53.58,105.53Z"/><path class="cls-9" d="M82.53,25.33l-2-.7c-2,2.67-4.86,6.63-4.86,7.93,0,7.07-8.3,24-9.9,27.08-2.63,5.06-9.71,5.26-15.37,8.49a20.68,20.68,0,0,0-6,5.36c-.74,5.27-.32,12-.46,13.64h.8s2-12.77,2-13.13c0-.14.17.34.41,1V74.8L54.45,70s1.39,4.93,2.07,8.15a6.31,6.31,0,0,0,2.58,2c2.45.87,6.4.37,9.23-1-.53-2.16-1.62-5.8-1.15-7l-4.85-3.84,13.83-9.07a68,68,0,0,0,2.54-16.6C78.9,34.72,80.37,26.41,82.53,25.33Z"/><path class="cls-11" d="M55.46,105.53s-.3-1.16-.65-2.56l.57,2.56Z"/><path class="cls-9" d="M47.17,74.8V75a22.46,22.46,0,0,0,1.37,3.35c.53.72.53,5.39.53,6.11s-.89,3.42-.35,4.5,4.45,14.28,4.82,16.32l.09.22h1.74L54.81,103c-.52-2.07-1.15-4.69-1.12-4.94h0L51.78,89.7a18.67,18.67,0,0,0,1.66-4.18c.36-1.8.8-1.22,1.41-5.46.39-2.69,1.62-2,1.62-2l.05.06C55.84,74.88,54.45,70,54.45,70Z"/><path class="cls-12" d="M56.87,80.67a10.76,10.76,0,0,0-.35-2.57C55.84,74.88,54.45,70,54.45,70L47.17,74.8V75a22.46,22.46,0,0,0,1.37,3.35c.53.72.53,5.39.53,6.11s-.89,3.42-.35,4.5,4.45,14.28,4.82,16.32l.09.22h1.74L54.81,103c-.52-2.07-1.15-4.69-1.12-4.94h0a17.32,17.32,0,0,0-.86-4.63c-.61-1.82.2-2.63.61-4.45S56.67,82.08,56.87,80.67Z"/><polygon class="cls-7" points="55.26 104.52 53.64 105.53 53.64 106.14 56.47 106.14 55.26 104.52"/><polygon class="cls-7" points="70.82 103.71 69.2 104.72 69.2 105.33 72.03 105.33 70.82 103.71"/><polygon class="cls-7" points="75.87 103.71 74.25 104.72 74.25 105.33 77.08 105.33 75.87 103.71"/><path class="cls-13" d="M50.4,68.13c5.66-3.23,12.74-3.43,15.37-8.49,1.6-3.08,10.71-16.77,9.9-27.08-.1-1.29,2.83-5.26,4.86-7.93l-1.59-.56s-4.68,5-6.12,10.25-2,10.61-3.6,13.49a9.65,9.65,0,0,1-4.13,3.95,14.33,14.33,0,0,1-.72,3.78c-.54,1.08-3.18,6.29-7.5,6.73-5.86.61-8.49,2.63-10.71,5.66a13,13,0,0,0-1.76,5.56A20.68,20.68,0,0,1,50.4,68.13Z"/><path class="cls-14" d="M43.94,86.29l1,0,.8,3.63-.4,4.86-1-1.22L43.94,91a7.33,7.33,0,0,0-.81,2c-.21,1-.61-4.45-.61-4.45Z"/><path class="cls-15" d="M80.4,27.83c.64-1.62,1.08-2.35.84-4.17A4,4,0,0,0,81.1,23a6.47,6.47,0,0,0-.74-.34,3.63,3.63,0,0,1-1.77-1.8,3.19,3.19,0,0,0-.88,2c0,2.81,1.6,3.74,2.54,5.23A1.17,1.17,0,0,0,80.4,27.83Z"/><path class="cls-16" d="M88.85,19.12a2,2,0,0,0,0-.58,3.1,3.1,0,0,0-1.95.59c-1.13.73-1.48,1.4-1.53,1.9C86.46,20.87,88.6,20.39,88.85,19.12Z"/><path class="cls-17" d="M86.93,19.13a3.1,3.1,0,0,1,1.95-.59c-.13-1.11-1.51-1.07-2.79-.24-2.38,1.54-1.27,2.8-1.27,2.8A5.12,5.12,0,0,0,85.4,21C85.45,20.53,85.8,19.86,86.93,19.13Z"/><path class="cls-18" d="M88.85,19.12a2,2,0,0,0,0-.58,3.1,3.1,0,0,0-1.95.59c-1.13.73-1.48,1.4-1.53,1.9C86.46,20.87,88.6,20.39,88.85,19.12Z"/><path class="cls-19" d="M78.65,22.85h0a3.28,3.28,0,0,0-2-.92c-1.18-.22-2.24,0-2.48.7C75.22,24,78.65,22.85,78.65,22.85Z"/><path class="cls-20" d="M76.69,21.92a3.28,3.28,0,0,1,2,.92c0-.11.43-1.6-2.25-2.1-1.72-.32-3.18.39-2.23,1.82l0,.06C74.45,22,75.51,21.7,76.69,21.92Z"/><path class="cls-21" d="M78.65,22.85h0a3.28,3.28,0,0,0-2-.92c-1.18-.22-2.24,0-2.48.7C75.22,24,78.65,22.85,78.65,22.85Z"/><path class="cls-22" d="M83.68,31a4.2,4.2,0,0,1-.41-.44,3,3,0,0,0,0,1.37,2.72,2.72,0,0,0,.23.62,2.06,2.06,0,0,0,1.44.21,2.18,2.18,0,0,0,1.29-.93A3.52,3.52,0,0,1,83.68,31Z"/><path class="cls-23" d="M86.65,31a6.33,6.33,0,0,0,.25-2.79A3,3,0,0,0,83.44,30l.29.33A2.54,2.54,0,0,0,86.65,31Z"/><path class="cls-24" d="M84,19a7.59,7.59,0,0,0-1.12-2.85c.48,2.34,1,5.29.61,5.52C82.91,22,82.32,20.48,82,21s-1,.88-1.28-.1-.83-1.67-2.45-2.31L78,18.39a21.7,21.7,0,0,0,.69,2.38l-.06.06a3.63,3.63,0,0,0,1.77,1.8c1.62.64,2.2,1.33,2.45,2.31s1,.59,1.27.1.88,1,1.42.68-.28-4-.8-6.42A2.48,2.48,0,0,0,84,19Z"/><path class="cls-25" d="M82.15,15.17a1,1,0,0,1-.46.26,1,1,0,0,1-.39,0,3.66,3.66,0,0,0,.1.48c0,.19,1.08,2.71-.06,3.13-1.71.64-2.54-2.7-2.54-2.7a2.82,2.82,0,0,0-.18-.3.9.9,0,0,1-.46.25,1,1,0,0,1-.54,0,14,14,0,0,0,.34,2.1l.34.17c1.62.64,2.21,1.33,2.45,2.31s1,.59,1.28.1.88,1,1.42.68c.37-.23-.13-3.18-.61-5.52A10.67,10.67,0,0,0,82.15,15.17Z"/><path class="cls-26" d="M78.62,16.05c-.19-.26-.49-.57-.85-.48-.13,0-.17.3-.15.72a1,1,0,0,0,.54,0A.9.9,0,0,0,78.62,16.05Z"/><path class="cls-26" d="M82.15,15.17a2.11,2.11,0,0,0-.41-.38c-.49-.3-.5.22-.44.65a1,1,0,0,0,.39,0A1,1,0,0,0,82.15,15.17Z"/><path class="cls-27" d="M78.05,25.08a1,1,0,0,1,.59-1c.93-.44,1.72.2,1.62.64s-.84.83-1.08.68A7.26,7.26,0,0,0,78.05,25.08Z"/><path class="cls-28" d="M79.62,24.69a.44.44,0,0,1,.54-.34c.28.06.69.24.59.68a1.46,1.46,0,0,1-1.18,1.13,1.27,1.27,0,0,1-1.42-.69c-.24-.38-.34-1.37.44-.73A.73.73,0,0,0,79.62,24.69Z"/><path class="cls-29" d="M86.34,21.56A4.69,4.69,0,0,0,84.7,19.3c.52,2.4,1.22,6.16.8,6.42s-1.12-1.17-1.42-.68-1,.88-1.27-.1a2.85,2.85,0,0,0-1.71-2,4,4,0,0,1,.14.69c.24,1.82-.2,2.55-.84,4.17a1.17,1.17,0,0,1-.15.27,4,4,0,0,1,.44.9,6.47,6.47,0,0,0,2.83,3.52,2.72,2.72,0,0,1-.23-.62,3,3,0,0,1,3.61-3.69c0-.17-.05-.35-.08-.52C86.39,25.09,87.32,23.81,86.34,21.56Z"/><path class="cls-27" d="M84.77,23.62a1,1,0,0,1,.59-1c.93-.44,1.72.19,1.62.64s-.84.83-1.08.68A6.29,6.29,0,0,0,84.77,23.62Z"/><path class="cls-28" d="M86.34,23.23a.45.45,0,0,1,.54-.35c.28.07.69.25.59.69a1.48,1.48,0,0,1-1.18,1.13A1.29,1.29,0,0,1,84.87,24c-.24-.38-.34-1.37.44-.74A.74.74,0,0,0,86.34,23.23Z"/><ellipse class="cls-30" cx="84.74" cy="28.52" rx="0.4" ry="0.3" transform="translate(-2.62 9.48) rotate(-6.3)"/><ellipse class="cls-30" cx="85.97" cy="28.42" rx="0.4" ry="0.3" transform="matrix(0.99, -0.11, 0.11, 0.99, -2.6, 9.61)"/><path class="cls-26" d="M83.73,30.33,83.44,30c-1-1-.83-.27-.17.53a4.2,4.2,0,0,0,.41.44,3.52,3.52,0,0,0,2.57.83,3.15,3.15,0,0,0,.4-.8A2.54,2.54,0,0,1,83.73,30.33Z"/><path class="cls-31" d="M8,78.14v.12l.13-.07Z"/><path class="cls-1" d="M31.92,84.46c0-8-3.05-10.79-6.61-9.77S12.84,70.11,13.6,72.4s-.14,1.53-2.87,4.07a11.62,11.62,0,0,1-2.6,1.72c3,1.25,9.57,4,16.21,6.43C28.44,84.62,31.92,84.46,31.92,84.46Z"/><path class="cls-31" d="M24.34,84.62c-6.64-2.46-13.23-5.18-16.21-6.43L8,78.26v5.08a70,70,0,0,0,8.4,1C18.8,84.56,21.7,84.62,24.34,84.62Z"/><path class="cls-1" d="M24.34,84.62c-6.64-2.46-13.23-5.18-16.21-6.43L8,78.26v5.08a70,70,0,0,0,8.4,1C18.8,84.56,21.7,84.62,24.34,84.62Z"/><path class="cls-1" d="M40.83,90.83c0-8-3-10.79-6.61-9.78s-12.47-4.58-11.71-2.29-.14,1.53-2.87,4.08-8.84,3.81-8.84,4.83-3.31.51,3,1.53a94.63,94.63,0,0,0,11.46,1.53C31.42,91.24,40.83,90.83,40.83,90.83Z"/><path class="cls-2" d="M118,114.5a15.32,15.32,0,0,1-5.53-2.66c-3.34-.67-7.93-3.33-7.43-1.82.63,1.87-.11,1.25-2.34,3.33s-7.22,3.11-7.22,4-2.71.41,2.49,1.24a74.65,74.65,0,0,0,9.36,1.25q.91.08,1.92.12A12.18,12.18,0,0,0,118,114.5Z"/><path class="cls-32" d="M63,105.49c-.19-3-6.75-9.33-10.7-13.7a18.91,18.91,0,0,1-2.79-3.61c-.53-1.15-3.39-.12-7,1.47-6.77,3-16.14,8-17.47,4.13C23,87.93,12.33,95.56,9.53,93A1.15,1.15,0,0,0,8,93v14.75A12.22,12.22,0,0,0,20.22,120H67.15a3.7,3.7,0,0,1,.16-1.27C69.09,112.87,63.24,109.56,63,105.49Z"/><path class="cls-1" d="M118,114.5a15.32,15.32,0,0,1-5.53-2.66c-3.34-.67-7.93-3.33-7.43-1.82.63,1.87-.11,1.25-2.34,3.33s-7.22,3.11-7.22,4-2.71.41,2.49,1.24a74.65,74.65,0,0,0,9.36,1.25q.91.08,1.92.12A12.18,12.18,0,0,0,118,114.5Z"/></svg>