<?xml version="1.0" encoding="utf-8"?>
<!-- Generator: Adobe Illustrator 24.0.0, SVG Export Plug-In . SVG Version: 6.00 Build 0)  -->
<svg version="1.1" id="图层_1" xmlns="http://www.w3.org/2000/svg" xmlns:xlink="http://www.w3.org/1999/xlink" x="0px" y="0px"
	 viewBox="0 0 128 128" enable-background="new 0 0 128 128" xml:space="preserve">
<title>digikam128</title>
<circle fill="#C1D7E5" cx="64" cy="64" r="59"/>
<circle fill="#808080" cx="64" cy="64" r="48.5"/>
<path d="M64,18c25.4,0,46,20.6,46,46s-20.6,46-46,46S18,89.4,18,64S38.6,18,64,18 M64,13c-28.2,0-51,22.8-51,51s22.8,51,51,51
	s51-22.8,51-51S92.2,13,64,13z"/>
<circle fill="#1E89E2" cx="64" cy="64" r="39"/>
<path d="M64,26c21,0,38,17,38,38s-17,38-38,38S26,85,26,64S43,26,64,26 M64,24c-22.1,0-40,17.9-40,40s17.9,40,40,40s40-17.9,40-40
	S86.1,24,64,24z"/>
<path fill="#0D5E82" d="M93.8,60.5c-0.1-0.9-0.2-1.8-0.4-2.7C89.9,41.6,74,31.2,57.8,34.6c-11.6,2.5-20.7,11.5-23.1,23.1
	c-0.2,0.9-0.3,1.8-0.4,2.7c-0.3,2.3-0.3,4.7,0,7c0.1,0.9,0.2,1.8,0.4,2.7C38.1,86.4,54,96.8,70.2,93.3c11.6-2.5,20.7-11.5,23.1-23.1
	c0.2-0.9,0.3-1.8,0.4-2.7C94.1,65.2,94.1,62.8,93.8,60.5z M70.2,59.2V37.4c6.1,1.4,11.6,5,15.4,9.9L71.4,61.5c0,0,0,0,0,0.1
	c-0.3-0.9-0.7-1.8-1.3-2.5L70.2,59.2z M64,36.7c1.2,0,2.3,0.1,3.5,0.2V57l0.1,0.1c-0.9-0.5-1.8-0.7-2.8-0.8H65L49.6,40.8
	C53.9,38.1,58.9,36.7,64,36.7z M57.8,68.8v21.8c-6.1-1.4-11.6-5-15.4-9.9l14.2-14.2c0,0,0,0,0-0.1c0.3,0.9,0.7,1.8,1.3,2.5
	L57.8,68.8z M57,60.5c-0.4,0.8-0.7,1.6-0.8,2.5l0,0L40.8,78.4c-3.3-5.3-4.7-11.7-3.9-17.9H57c0.5-1.1,1.3-2,2.2-2.7H37.4
	c1.4-6.1,5-11.6,9.9-15.4l14.2,14.2l0,0c-0.8,0.3-1.6,0.7-2.3,1.2C58.3,58.5,57.5,59.4,57,60.5z M64,91.3c-1.2,0-2.3-0.1-3.5-0.2V71
	l-0.1-0.1c0.9,0.5,1.8,0.7,2.8,0.8H63l15.4,15.4C74.1,89.9,69.1,91.3,64,91.3z M80.7,85.6L66.5,71.4l0,0c0.8-0.3,1.6-0.7,2.3-1.2
	h21.8C89.1,76.3,85.6,81.8,80.7,85.6z M91.1,67.5H71c0.4-0.8,0.7-1.6,0.8-2.5l0,0l15.4-15.4C90.5,54.9,91.9,61.3,91.1,67.5z"/>
<linearGradient id="SVGID_1_" gradientUnits="userSpaceOnUse" x1="66.295" y1="25.405" x2="90.626" y2="1.074" gradientTransform="matrix(1 0 0 1 0 32)">
	<stop  offset="0" style="stop-color:#FFFFFF"/>
	<stop  offset="1" style="stop-color:#1E89E2"/>
</linearGradient>
<path opacity="0.4" fill="url(#SVGID_1_)" enable-background="new    " d="M97.6,40.9c-7.2-10-18.5-16.3-30.8-17.1
	C59,36,58.2,49.5,65.8,57c8.4,8.3,24.3,6.4,37.7-3.7C102.3,48.9,100.3,44.7,97.6,40.9z"/>
<linearGradient id="SVGID_2_" gradientUnits="userSpaceOnUse" x1="47.7619" y1="26.2153" x2="47.7619" y2="69.8" gradientTransform="matrix(1 0 0 1 0 32)">
	<stop  offset="0" style="stop-color:#FFFFFF"/>
	<stop  offset="1" style="stop-color:#1E89E2"/>
</linearGradient>
<path opacity="0.4" fill="url(#SVGID_2_)" enable-background="new    " d="M67.1,61c-6.9-6.7-23.9-0.9-38,13
	c-1.2,1.2-2.4,2.4-3.5,3.7c4.3,11.3,13.3,20.1,24.6,24.1c1.3-1.1,2.5-2.2,3.7-3.4C68,84.5,73.9,67.8,67.1,61z"/>
<linearGradient id="SVGID_3_" gradientUnits="userSpaceOnUse" x1="67.3559" y1="24.0866" x2="88.7341" y2="2.7085" gradientTransform="matrix(1 0 0 1 4.893697e-03 32.0025)">
	<stop  offset="0" style="stop-color:#FFFFFF"/>
	<stop  offset="0.96" style="stop-color:#1E89E2"/>
</linearGradient>
<path opacity="0.4" fill="url(#SVGID_3_)" enable-background="new    " d="M70.6,39c5.4-6.4,13.2-8.6,17.3-5.1s3,11.5-2.4,17.9
	s-13.2,8.6-17.3,5.1S65.1,45.4,70.6,39z"/>
<linearGradient id="SVGID_4_" gradientUnits="userSpaceOnUse" x1="51.7073" y1="27.4984" x2="51.7073" y2="61.4448" gradientTransform="matrix(1 0 0 1 -7.273369e-03 31.9986)">
	<stop  offset="0" style="stop-color:#FFFFFF"/>
	<stop  offset="1" style="stop-color:#1E89E2"/>
</linearGradient>
<path opacity="0.4" fill="url(#SVGID_4_)" enable-background="new    " d="M43.6,69.6c7.2-8.6,16.7-12.5,21.2-8.7s2.2,13.8-5,22.4
	S43.1,95.8,38.6,92S36.4,78.2,43.6,69.6z"/>
</svg>
