<?xml version="1.0" encoding="utf-8"?>
<!-- Generator: Adobe Illustrator 24.0.0, SVG Export Plug-In . SVG Version: 6.00 Build 0)  -->
<svg version="1.1"
	 id="svg7384" xmlns:cc="http://creativecommons.org/ns#" xmlns:dc="http://purl.org/dc/elements/1.1/" xmlns:osb="http://www.openswatchbook.org/uri/2009/osb" xmlns:rdf="http://www.w3.org/1999/02/22-rdf-syntax-ns#" xmlns:svg="http://www.w3.org/2000/svg" opacity="0.8"
	 xmlns="http://www.w3.org/2000/svg" xmlns:xlink="http://www.w3.org/1999/xlink" x="0px" y="0px" viewBox="0 0 16 16"
	 style="enable-background:new 0 0 16 16;" xml:space="preserve">
<style type="text/css">
	.st0{fill:#1F2022;}
	.st1{opacity:0.4;fill:#1F2022;enable-background:new    ;}
</style>
<g id="g1833" transform="translate(-472.00004,-239.99997)">
	<g id="path3375-1">
		<path class="st0" d="M480,241c3.9,0,7,3.1,7,7c0,3.9-3.1,7-7,7s-7-3.1-7-7C473,244.1,476.1,241,480,241 M480,240c-4.4,0-8,3.6-8,8
			s3.6,8,8,8s8-3.6,8-8S484.4,240,480,240L480,240z"/>
	</g>
	<path id="rect2629" class="st1" d="M480,248v8l5.5-2.5l0,0L480,248z"/>
	<g id="rect2629-5">
		<polygon class="st0" points="480,248 485.5,253.5 487.5,248 		"/>
	</g>
</g>
</svg>
