<svg id="图层_1" data-name="图层 1" xmlns="http://www.w3.org/2000/svg" viewBox="0 0 128 128"><defs><style>.cls-1{fill:#311b92;}.cls-2{fill:#512da8;}.cls-3{fill:#9575cd;}.cls-4{fill:#673ab7;}.cls-5{fill:#cfd8dc;}.cls-6{fill:#f5a816;}</style></defs><title>djvusmooth-112</title><path class="cls-1" d="M119,8.94V97.43L104.92,108.5c-.52.42-1.06.82-1.63,1.21L88.58,120H35.24V9H119Z"/><path class="cls-2" d="M118.05,8V96.49L104,107.56c-.52.42-1.06.82-1.63,1.2L87.63,119.05H34.3V8h83.74Z"/><path class="cls-3" d="M103,48.86H88.43Q87.67,38.2,77,38.19,65.84,39,65.47,47.34q-.78,8,13,9.9L80,58q25.26,5,24.88,19-.77,22.11-30.24,22.86-27.95-.37-27.18-23.24H62.79q0,12.57,11.86,13,13.78-.37,14.16-9.15,0-6.86-13.39-9.9c-1-.25-1.92-.51-2.68-.77Q49,64.88,49.39,50.39,50.53,29,78.86,27.15,101.83,28.67,103,48.86Z"/><path class="cls-1" d="M118.06,96.49,104,107.55c-.52.43-1.06.83-1.62,1.21l-14.73,10.3h0c7.66-7.58,8.87-13.28,7.58-19.26,5.53,1.36,15.11-1.42,22.86-3.31Z"/><path class="cls-4" d="M118.06,96.49,104,107.55c-.52.43-1.06.83-1.62,1.21l-14.73,10.3h0c7.66-7.58,10.54-15.19,9.25-21.17,5.53,1.37,13.44.49,21.19-1.4Z"/><path class="cls-1" d="M87.94,41.58,54.19,8h-4L85.93,43.58A10.82,10.82,0,0,1,70.6,58.84L34.31,22.73v4L68.59,60.84A13.65,13.65,0,0,0,87.94,41.58Z"/><path class="cls-5" d="M88.88,41.58,55.14,8h-4L86.88,43.58A10.82,10.82,0,1,1,71.54,58.84L34.31,21.79v4L69.54,60.84A13.65,13.65,0,1,0,88.88,41.58Z"/><polygon class="cls-1" points="105.07 64.07 81.62 70.26 75.4 46.92 98.85 40.73 105.07 64.07"/><polygon class="cls-6" points="104.12 63.12 80.67 69.32 74.45 45.98 97.9 39.78 104.12 63.12"/><path class="cls-1" d="M82.07,44,45.91,8h-4L80.07,46a5,5,0,0,1,0,7,5,5,0,0,1-7,0L43.41,23.52v4L71,55a7.8,7.8,0,0,0,11-11Z"/><path class="cls-5" d="M83,44,46.85,8h-4L81,46a5,5,0,0,1,0,7,4.94,4.94,0,0,1-3.51,1.44A5,5,0,0,1,74,53L44.36,23.52v4L72,55A7.8,7.8,0,1,0,83,44Z"/><rect class="cls-1" x="9.95" y="77.87" width="59.36" height="23.51"/><rect class="cls-6" x="9" y="76.93" width="59.36" height="23.51"/><path d="M25.21,93.38V81.71h3.16c3.08.05,4.63,2,4.66,5.87s-1.58,5.8-4.66,5.8Zm1.95-9.71v7.75h1.06c1.84.09,2.74-1.2,2.71-3.84s-.87-4-2.71-3.91Z"/><path d="M36.26,85.85H38V93.6c-.06,2.54-1,3.86-2.76,3.94s-2.66-1.23-2.75-3.81h1.78c0,1.41.32,2.12,1,2.12s.92-.71,1-2.12a1.08,1.08,0,0,1,0-.19Z"/><path d="M42.11,93.49l-3-11.38H41l2.13,9h0l2.13-9H47L44,93.49Z"/><path d="M52.58,86H54v4.79a2.94,2.94,0,0,1-5.87,0V86h1.46v4.17c-.1,1.7.4,2.52,1.5,2.43,1,.09,1.53-.73,1.45-2.43Z"/></svg>