<?xml version="1.0" encoding="utf-8"?>
<!-- Generator: Adobe Illustrator 24.0.0, SVG Export Plug-In . SVG Version: 6.00 Build 0)  -->
<svg version="1.1" id="图层_3" xmlns="http://www.w3.org/2000/svg" xmlns:xlink="http://www.w3.org/1999/xlink" x="0px" y="0px"
	 viewBox="0 0 16 16" style="enable-background:new 0 0 16 16;" xml:space="preserve">
<style type="text/css">
	.st0{opacity:0.75;fill:#1F2022;enable-background:new    ;}
	.st1{opacity:0.75;fill:none;stroke:#1F2022;stroke-linecap:round;stroke-linejoin:round;stroke-miterlimit:10;}
</style>
<polygon class="st0" points="13,4.7 13,5 9,5 9,1 9.3,1 10,1.7 10,4 12.3,4 "/>
<path class="st0" d="M13.7,3.9L13,3.3L10.7,1l-0.6-0.6C9.9,0.1,9.5,0,9.2,0H3C1.9,0,1,0.9,1,2v12c0,1.1,0.9,2,2,2h9c1.1,0,2-0.9,2-2
	V4.8C14,4.5,13.9,4.2,13.7,3.9z M3,15c-0.6,0-1-0.4-1-1V2c0-0.6,0.4-1,1-1h6.3L13,4.7V14c0,0.6-0.4,1-1,1H3z"/>
<line class="st1" x1="4.5" y1="11.5" x2="10.5" y2="11.5"/>
<line class="st1" x1="4.5" y1="8.5" x2="10.5" y2="8.5"/>
<line class="st1" x1="4.5" y1="5.5" x2="7.5" y2="5.5"/>
</svg>
