<?xml version="1.0" encoding="utf-8"?>
<!-- Generator: Adobe Illustrator 24.0.0, SVG Export Plug-In . SVG Version: 6.00 Build 0)  -->
<svg version="1.1" id="图层_1" xmlns="http://www.w3.org/2000/svg" xmlns:xlink="http://www.w3.org/1999/xlink" x="0px" y="0px"
	 viewBox="0 0 128 128" enable-background="new 0 0 128 128" xml:space="preserve">
<title>ekiga128</title>
<linearGradient id="SVGID_1_" gradientUnits="userSpaceOnUse" x1="5" y1="32" x2="123" y2="32" gradientTransform="matrix(1 0 0 1 0 32)">
	<stop  offset="0.28" style="stop-color:#F7643C"/>
	<stop  offset="0.96" style="stop-color:#F79D43"/>
	<stop  offset="1" style="stop-color:#F7931E"/>
</linearGradient>
<circle fill="url(#SVGID_1_)" cx="64" cy="64" r="59"/>
<path fill="#F9CE1D" d="M91.2,20.8c-1-0.9-2-1.7-3.1-2.3c-1-0.6-1.9-1.1-2.3-1.3c-6.3-3-13.2-4.6-20.2-4.6
	C37,11.6,13.2,34,12.3,62.5c0,1,0,2,0,2.9c0,1.8,0.2,3.5,0.4,5.3c0,0.5,0.4,0.8,0.9,0.8s0.8-0.4,0.8-0.9v-0.5
	c0.3-24.8,20.2-44.8,45-45.2c8-0.1,12.2,1,15.6,2.1c0.8,0.3,6.2,2.4,7.5,2.8c1.7,0.5,3.4,0.8,5.2,1c3.1,0,5.4-1.8,5.7-4.7
	C93.4,24.2,92.6,22.2,91.2,20.8z"/>
<path fill="#FC9917" d="M114.3,38.4c7.9,29.1-9.2,59.1-38.3,67.1c-25.3,6.9-51.9-5.1-63.4-28.6c8,29.1,38.1,46.2,67.1,38.2
	S125.9,77,117.9,48C117,44.7,115.8,41.5,114.3,38.4z"/>
<path fill="#E64A19" d="M59.9,35.2c0.2-3.5,0.5-7.1,1.1-10.6c0.6-3.7,1.5-7.3,2.6-10.8c0.2-0.6-0.2-1.2-0.7-1.4h-0.1h-0.1
	c-2.2-0.3-4.3,1.1-4.7,3.3l-2.8,15.7c-0.4,2.2,1.1,4.4,3.3,4.7l0,0c0.6,0.1,1.1-0.3,1.3-0.9C59.9,35.2,59.9,35.2,59.9,35.2z"/>
<path fill="#E64A19" d="M46.9,110.2c0.3-6.9,1.5-13.8,3.5-20.4c0.3-0.8-0.2-1.7-1-1.9c-0.1,0-0.2,0-0.2-0.1h-0.3
	c-1.8-0.3-3.5,0.9-3.9,2.7l0,0l-3,17.2c-0.3,1.8,0.9,3.5,2.7,3.9l0,0l0.3,0.1c0.8,0.2,1.6-0.4,1.8-1.2
	C46.9,110.4,46.9,110.3,46.9,110.2z"/>
<path fill="#F94C1E" d="M59.4,114.1c3.7-0.4,7.4-1.5,10.6-3.3c1.3-0.7,2.5-1.5,3.7-2.4c5.8-4.4,9.7-10.8,10.9-17.9l7.7-45.2
	c2.1-12.4-4.2-24.8-15.5-30.3c-0.2-0.2-0.4-0.3-0.7-0.3l0,0H76l-8.3-1.4c-0.4-0.1-0.8,0.2-0.9,0.5c-1.2,3.7-2.2,7.5-2.8,11.3
	c-0.6,3.7-1,7.4-1.2,11.1c0,0.4,0.3,0.7,0.7,0.8l7.5,1.1c0.5,0.1,1,0.3,1.4,0.6c1.8,2.1,3.8,8,4.2,12.7c0.2,1.7,0.2,3.3,0,5
	c-0.1,0.7-0.2,1.3-0.3,2L73.7,73c-0.1,0.7-0.3,1.3-0.4,2c-0.4,1.6-1,3.2-1.6,4.8c-1.8,4.1-4,8.6-8,10.3c-0.5,0.2-1.1,0.3-1.6,0.2
	l-7.5-1.5c-0.4-0.1-0.8,0.2-0.9,0.5c-2.3,7.3-3.6,14.9-3.8,22.5c0,0.4,0.3,0.7,0.7,0.8l8.3,1.4L59.4,114.1z"/>
<linearGradient id="SVGID_2_" gradientUnits="userSpaceOnUse" x1="16.9" y1="34.8683" x2="119.3" y2="34.8683" gradientTransform="matrix(1 0 0 1 0 32)">
	<stop  offset="0" style="stop-color:#FFFFFF"/>
	<stop  offset="0.25" style="stop-color:#FCEE21"/>
</linearGradient>
<path fill="url(#SVGID_2_)" d="M39.8,95.3h-0.2c-2.7-0.2-4.3-4.1-7.5-12.8c-2.3-6.1-5-13.7-8-16.8c-0.2-0.2-0.5-0.4-0.7-0.6
	c-0.3,0.3-1.7,2.1-2.5,10.6C20.5,80.9,20.5,86,20.5,86h-3.6c0-0.2,0-5.3,0.5-10.8c0.9-10.6,3-12.7,4.7-13.4c1.1-0.4,2.7-0.5,4.7,1.5
	c3.5,3.6,6.3,11.3,8.8,18c1.3,3.5,2.9,8,4.1,9.8c1.1-3.2,1.1-13.6,1-22.8c-0.1-19.1,0.2-27.6,3.4-29.5c0.9-0.5,2.1-0.5,3,0.1
	c4.2,2.4,5.6,13.4,7.1,28.8c0.3,2.9,0.6,6.3,1,8.9c0.5-2.3,0.9-5,1.2-7.7c0.9-6.7,1.6-12,4.7-13.1c1.5-0.5,3.2,0.1,4.9,1.8
	c3.3,3.3,5.5,10.3,7.4,16.5c1,3.1,2.3,7.3,3.2,8.7c0.5-0.7,0.8-1.5,1.1-2.4c2.9-7.7,1.3-17,0.6-21.5c-0.2-1-0.3-1.7-0.3-2.3
	s-0.2-2.2,1.2-2.8s2.4,0.8,2.8,1.3s0.9,1.3,1.6,2.5c2.7,4.5,5.1,6.7,7.8,7.1c3.5,0.6,8.2-1.7,14.8-7.3c1.9-1.6,4-0.7,5.4-0.2
	c1.9,0.8,2.8,1.2,4.5-1.9l3.2,1.7c-3.2,5.9-7,4.4-9.1,3.5c-1.2-0.5-1.5-0.6-1.7-0.4c-7.6,6.4-13.1,8.9-17.8,8.1
	c-3-0.5-5.6-2.3-8.2-5.7c0.7,5.3,1,12.6-1.4,19.1c-1,2.5-2.2,5-4.5,5h-0.1c-3-0.1-4.4-4.4-6.6-11.6c-1.7-5.5-3.8-12.3-6.5-15
	c-0.3-0.4-0.8-0.7-1.2-0.9c-0.6,0.9-1,1.9-1.2,3c-0.5,2-0.8,4.5-1.1,7.1c-0.6,4.6-1.2,9.3-2.6,12.3c-0.9,1.8-2,2.1-2.8,1.9
	c-1.9-0.3-2.4-2.7-2.8-5.7c-0.4-2.6-0.8-6.1-1.1-9.8C50,62.4,49.3,56.1,48.4,51c-1.1-5.9-2.2-8-2.8-8.7c-0.3,0.8-0.9,3-1.2,8.4
	c-0.3,5-0.2,11.4-0.2,17.5c0.1,13.6,0,22-1.7,25.1C42.1,94.4,41,95.3,39.8,95.3z"/>
</svg>
