<?xml version="1.0" encoding="utf-8"?>
<!-- Generator: Adobe Illustrator 24.0.0, SVG Export Plug-In . SVG Version: 6.00 Build 0)  -->
<svg version="1.1" id="图层_1" xmlns="http://www.w3.org/2000/svg" xmlns:xlink="http://www.w3.org/1999/xlink" x="0px" y="0px"
	 viewBox="0 0 128 128" enable-background="new 0 0 128 128" xml:space="preserve">
<title>engrampa-112</title>
<g id="g3952" opacity="0.6">
	
		<linearGradient id="rect3954_1_" gradientUnits="userSpaceOnUse" x1="17632.834" y1="-22983.1523" x2="17632.834" y2="-23589.332" gradientTransform="matrix(6.000000e-02 0 0 -3.000000e-02 -999.2201 -544.12)">
		<stop  offset="0" style="stop-color:#000000;stop-opacity:0"/>
		<stop  offset="0.5" style="stop-color:#000000"/>
		<stop  offset="1" style="stop-color:#000000;stop-opacity:0"/>
	</linearGradient>
	
		<rect id="rect3954" x="25.3" y="96.1" opacity="0.4" fill="url(#rect3954_1_)" enable-background="new    " width="66.9" height="16.9"/>
	
		<radialGradient id="path3956_1_" cx="92.57" cy="104.63" r="12.89" gradientTransform="matrix(1.000000e-02 0 0 -1.000000e-02 -264.8 147.28)" gradientUnits="userSpaceOnUse">
		<stop  offset="0" style="stop-color:#000000"/>
		<stop  offset="1" style="stop-color:#000000;stop-opacity:0"/>
	</radialGradient>
	<path id="path3956" opacity="0.4" fill="url(#path3956_1_)" enable-background="new    " d="M92.2,96.1V113
		c7.1,0,17.3-3.8,17.3-8.5S101.4,96.1,92.2,96.1z"/>
	
		<radialGradient id="path3958_1_" cx="8.42" cy="104.63" r="12.89" gradientTransform="matrix(-1.000000e-02 0 0 -1.000000e-02 -284.6 147.28)" gradientUnits="userSpaceOnUse">
		<stop  offset="0" style="stop-color:#000000"/>
		<stop  offset="1" style="stop-color:#000000;stop-opacity:0"/>
	</radialGradient>
	<path id="path3958" opacity="0.4" fill="url(#path3958_1_)" enable-background="new    " d="M25.3,96.1V113
		c-7.1,0-17.3-3.8-17.3-8.5S16,96.1,25.3,96.1z"/>
</g>
<path id="path5759" fill="#3465A4" stroke="#204A87" stroke-width="2.49" stroke-linejoin="round" d="M55.1,91.4l46.3,0.7
	c0.9,0,1.1,1.7,1.1,1.7c-1.9,7-9.7,10.9-14.9,10.9l-58.8,0.1c18-1.1,19.3-2.2,20.7-10.1C50.6,92.6,52.8,91.3,55.1,91.4z"/>
<linearGradient id="path5472_1_" gradientUnits="userSpaceOnUse" x1="48.4" y1="-103.3768" x2="48.4" y2="-52.4168" gradientTransform="matrix(1 0 0 -1.01 0 -2.94)">
	<stop  offset="0" style="stop-color:#BABDB6"/>
	<stop  offset="1" style="stop-color:#DDDEDB"/>
</linearGradient>
<path id="path5472" fill="url(#path5472_1_)" stroke="#555753" stroke-width="2.49" d="M28.5,47.5c-8.9,0-16.2,12.5-16.2,27.8
	s7.3,27.1,16.2,27.1c0.2,0,0.4-0.1,0.6-0.1v0.1h55.4v-55C84.5,47.4,47.6,47.9,28.5,47.5z"/>
<g id="path5503" opacity="0.42">
	
		<linearGradient id="SVGID_1_" gradientUnits="userSpaceOnUse" x1="57.3" y1="-68.34" x2="57.3" y2="-131.76" gradientTransform="matrix(1 0 0 -1 0 -10.76)">
		<stop  offset="0" style="stop-color:#FFFFFF"/>
		<stop  offset="0.16" style="stop-color:#FFFFFF;stop-opacity:0.83"/>
		<stop  offset="0.75" style="stop-color:#FFFFFF;stop-opacity:0.24"/>
		<stop  offset="1" style="stop-color:#FFFFFF;stop-opacity:0"/>
	</linearGradient>
	<path fill="url(#SVGID_1_)" d="M84.6,101.1H29.2c-8.5-0.6-15.3-12.1-15.3-26.2c0-14.4,7.2-26.2,16-26.2c17.2,0.4,54.3-0.1,54.7-0.1
		h1.3v0.2c8.3,1,14.8,12.4,14.8,26.1C100.6,89.4,93.4,101.1,84.6,101.1z M31.7,98.6h52.9c7.4,0,13.5-10.6,13.5-23.7
		S92,51.3,84.6,51.3l-1.2-0.1c-6.7,0.1-38.1,0.4-53.5,0.1c-7.4,0-13.5,10.6-13.5,23.7s6.1,23.7,13.5,23.7L31.7,98.6L31.7,98.6z"/>
</g>
<linearGradient id="SVGID_2_" gradientUnits="userSpaceOnUse" x1="90.9357" y1="65.092" x2="82.3856" y2="27.412" gradientTransform="matrix(1 0 0 1 0 32)">
	<stop  offset="0" style="stop-color:#888A85"/>
	<stop  offset="1" style="stop-color:#6B6D68"/>
</linearGradient>
<ellipse fill="url(#SVGID_2_)" cx="85.9" cy="74.9" rx="15" ry="26.2"/>
<linearGradient id="SVGID_3_" gradientUnits="userSpaceOnUse" x1="68.42" y1="42.9" x2="103.31" y2="42.9" gradientTransform="matrix(1 0 0 1 0 32)">
	<stop  offset="0" style="stop-color:#F1F1F0"/>
	<stop  offset="0.38" style="stop-color:#81827F"/>
	<stop  offset="0.4" style="stop-color:#7A7B78"/>
	<stop  offset="0.6" style="stop-color:#676865"/>
	<stop  offset="0.81" style="stop-color:#595B57"/>
	<stop  offset="1" style="stop-color:#555753"/>
</linearGradient>
<path fill="url(#SVGID_3_)" d="M85.9,48.7c8.3,0,15,11.7,15,26.2s-6.7,26.2-15,26.2s-15-11.7-15-26.2S77.6,48.7,85.9,48.7
	 M85.9,46.2c-9.8,0-17.4,12.6-17.4,28.7s7.7,28.7,17.4,28.7s17.4-12.6,17.4-28.7S95.6,46.2,85.9,46.2z"/>
<g id="path5503-2" opacity="0.42">
	
		<linearGradient id="SVGID_4_" gradientUnits="userSpaceOnUse" x1="90.15" y1="-68.54" x2="90.15" y2="-131.53" gradientTransform="matrix(1 0 0 -1 0 -10.76)">
		<stop  offset="0" style="stop-color:#FFFFFF"/>
		<stop  offset="0.16" style="stop-color:#FFFFFF;stop-opacity:0.83"/>
		<stop  offset="0.75" style="stop-color:#FFFFFF;stop-opacity:0.24"/>
		<stop  offset="1" style="stop-color:#FFFFFF;stop-opacity:0"/>
	</linearGradient>
	<path fill="url(#SVGID_4_)" d="M89.3,49.8c-0.4-0.2-0.9-0.4-1.4-0.5c-0.2-0.1-0.4-0.1-0.7-0.2c-1.3-0.3-2.7-0.2-4,0.2
		c-1.4,0.3-2.7,1-3.8,2h0.2c1.7,0,3,0,3.9,0h1.3c1.6,0,3.3,0.5,4.6,1.5c0.1,0,0.1,0.1,0.2,0.1c5.1,3.3,8.8,12,8.8,22.1
		s-3.7,18.9-8.8,22.2c-1.4,0.9-3,1.5-4.7,1.5H80c1.9,1.6,4.3,2.4,6.7,2.3c0.7-0.1,1.4-0.3,2-0.6c7-2.8,12.2-13.1,12.2-25.4
		C100.9,63,96,52.9,89.3,49.8z"/>
</g>
<g id="path5477">
	<path fill="#555753" d="M90.5,78l-2.2-1.1l-2.2-1.2l-2.2-1.2l1.2-2.2l26.6-48.5H58.9c-0.3,0-0.6,0.2-0.8,0.4l-12.2,23l-0.6,1.4
		h-8.4l1.8-3.7L51.9,20l0,0c1.5-2.4,4.2-3.8,7-3.7h54.4c2.4-0.1,4.7,1.2,5.9,3.4c1.1,1.8,1.2,4,0.2,5.9L91.7,75.8L90.5,78z
		 M89.5,74.7L89.5,74.7L89.5,74.7l27.6-50.4c0.5-1.1,0.5-2.4-0.2-3.5c-0.7-1.3-2.1-2.1-3.6-2.1H58.9c-1.9-0.1-3.8,0.9-4.8,2.5
		L40.9,46.1h2.8L56,22.9c0.7-1,1.8-1.6,2.9-1.6h54c0.7,0,1.3,0.3,1.7,0.9c0.3,0.5,0.3,1.2,0,1.7L87.3,73.5L89.5,74.7z"/>
</g>
<path id="path5477-2" fill="#BABDB6" stroke="#555753" stroke-width="2.49" d="M58.9,17.5c-2.4-0.1-4.6,1.1-5.9,3.1L39.8,45.5
	l-0.9,1.9h5.6l0.3-0.7L57,23.5c0.4-0.6,1.1-1,1.9-1h54c0.3,0,0.5,0.1,0.6,0.4c0,0.1,0,0.2-0.1,0.3L86.3,72.9L85.6,74l1.1,0.6
	l2.2,1.2l1.1,0.6l0.6-1.1L118.2,25c0.8-1.5,0.7-3.3-0.2-4.7c-1-1.7-2.8-2.8-4.8-2.7L58.9,17.5z"/>
<linearGradient id="rect6826_1_" gradientUnits="userSpaceOnUse" x1="29.0381" y1="-33.82" x2="29.0381" y2="-29.81" gradientTransform="matrix(1.05 0 0 -1 54.01 -12)">
	<stop  offset="0" style="stop-color:#555753"/>
	<stop  offset="1" style="stop-color:#838680"/>
</linearGradient>
<path id="rect6826" fill="url(#rect6826_1_)" stroke="#2E3436" stroke-width="2.49" stroke-linecap="square" d="M64.7,15h39.6
	c2.8,0,5,2.2,5,5l0,0c0,2.8-2.2,5-5,5H64.7c-2.8,0-5-2.2-5-5l0,0C59.7,17.2,61.9,15,64.7,15z"/>
<linearGradient id="rect5631_1_" gradientUnits="userSpaceOnUse" x1="40.2619" y1="-72.6794" x2="38.9819" y2="-87.2694" gradientTransform="matrix(1 0 0 -1 2.61 -12.15)">
	<stop  offset="0" style="stop-color:#F8F8F8"/>
	<stop  offset="1" style="stop-color:#C7C7C1"/>
</linearGradient>
<path id="rect5631" fill="url(#rect5631_1_)" d="M24.8,54.9h37.5c0.9-0.1,1.6,0.6,1.7,1.5c0,0.4-0.1,0.8-0.3,1.1
	c-6.5,10.8-4.1,25,0.2,35.3c0,1.2-0.9,2.1-2.1,2.1l0,0l-37.9,3.3c-1.2,0-1.7-1.3-1.7-2.5c-0.6-11.8-9.2-28.8,1.2-40.2
	C23.6,55.1,24.2,54.9,24.8,54.9z"/>
<g id="rect5631-2">
	
		<linearGradient id="SVGID_5_" gradientUnits="userSpaceOnUse" x1="45.9162" y1="-107.7617" x2="41.1562" y2="-69.2717" gradientTransform="matrix(1 0 0 -1 -1.06 -12)">
		<stop  offset="0" style="stop-color:#CBCBCB"/>
		<stop  offset="1" style="stop-color:#9F9F9F"/>
	</linearGradient>
	<path fill="url(#SVGID_5_)" d="M23.7,99.4L23.7,99.4c-2,0-3-1.9-3-3.7c-0.3-3.6-0.9-7.2-1.8-10.7c-2.2-10.2-4.6-21.7,3.3-30.4l0,0
		c0.7-0.6,1.6-1,2.5-0.9h37.5c1.1,0,2.1,0.6,2.7,1.6c0.5,0.9,0.3,2-0.3,2.8c-7.3,12.3-2.3,28,0.3,34.1l0.1,0.2v0.2
		c0,1.8-1.5,3.3-3.3,3.4L23.7,99.4z M24,56.4c-7,7.6-4.8,18-2.7,28.1c0.9,3.7,1.5,7.4,1.8,11.1v0.1c0,0.7,0.3,1.2,0.5,1.3l37.9-3.3
		h0.1c0.4,0,0.8-0.3,0.8-0.7c-2.7-6.7-7.8-23.1,0-36.1l0.1-0.1c0.1-0.2,0.1-0.3,0.1-0.3c-0.1-0.1-0.3-0.2-0.4-0.3H24.8
		C24.5,56.2,24.3,56.2,24,56.4L24,56.4L24,56.4L24,56.4z M24,56.4L24,56.4z"/>
</g>
<linearGradient id="path5677_1_" gradientUnits="userSpaceOnUse" x1="40.2619" y1="-72.1975" x2="43.9619" y2="-96.0575" gradientTransform="matrix(1 0 0 -1 0 -12)">
	<stop  offset="0" style="stop-color:#FFFFFF"/>
	<stop  offset="1" style="stop-color:#FFFFFF;stop-opacity:0"/>
</linearGradient>
<path id="path5677" fill="none" stroke="url(#path5677_1_)" stroke-width="2.49" stroke-linecap="square" d="M24.7,57.4
	c-4.4,4.9-4.9,10.9-4,17.6s3.3,14,3.6,20.5v0.1l36.5-3.2c-4-10.3-6-23.8-0.1-35H24.7z"/>
<linearGradient id="rect337_1_" gradientUnits="userSpaceOnUse" x1="49.3278" y1="-117.3131" x2="48.2778" y2="-82.8931" gradientTransform="matrix(1 0 0 -1 0 -12)">
	<stop  offset="0" style="stop-color:#4E83C7"/>
	<stop  offset="0.24" style="stop-color:#4573A9"/>
	<stop  offset="1" style="stop-color:#729FCF"/>
</linearGradient>
<path id="rect337" fill="url(#rect337_1_)" stroke="#204A87" stroke-width="2.49" stroke-linejoin="round" d="M58.3,77.2H35.9
	c-0.9,0-1.8-0.4-2.5-1c-0.3-0.3-1-5.3-1.2-5.4c-0.6-0.5-1.3-0.8-2-0.9l-19.3-0.1c-0.9,0-1.1,1.7-1.1,1.7
	c-0.4,13.3,4.8,33.3,19.4,33.3l58.7,0.1c-18-1.1-22.7-16.4-24.1-24.3C62.8,78.3,60.7,77.1,58.3,77.2z"/>
<linearGradient id="path5619_1_" gradientUnits="userSpaceOnUse" x1="44.1673" y1="-92.6" x2="44.6272" y2="-116.26" gradientTransform="matrix(1 0 0 -1 -9.000000e-02 -13.06)">
	<stop  offset="0" style="stop-color:#FFFFFF"/>
	<stop  offset="1" style="stop-color:#FFFFFF;stop-opacity:0"/>
</linearGradient>
<path id="path5619" opacity="0.38" fill="none" stroke="url(#path5619_1_)" stroke-width="2.49" enable-background="new    " d="
	M12.3,72.3c-0.1,6.2,1.1,13.7,3.8,19.6C19,98,23,102,29.1,102l44.2,0.1c-7.1-4.7-10-12.4-11.9-20.4c-0.5-1.3-1.8-2-3.2-1.8H35.7
	c-1.6,0-3-0.6-4.2-1.6c-0.8-0.6-0.7-0.9-0.8-1.1c-0.1-0.2-0.1-0.3-0.2-0.5c-0.1-0.3-0.2-0.6-0.2-0.9c-0.1-0.6-0.3-1.2-0.4-1.9
	s-0.1-1-0.2-1.5L12.3,72.3z"/>
<path id="path5795" opacity="0.29" fill="#FFFFFF" enable-background="new    " d="M101.2,93.5c-0.6,4.5-6.8,9-12.6,10.1
	C92.4,102,98,100.3,101.2,93.5z"/>
<linearGradient id="path5797_1_" gradientUnits="userSpaceOnUse" x1="102.0473" y1="-29.7897" x2="102.4873" y2="-38.8297" gradientTransform="matrix(1 0 0 -1 0 -12)">
	<stop  offset="0" style="stop-color:#FFFFFF"/>
	<stop  offset="1" style="stop-color:#FFFFFF;stop-opacity:0"/>
</linearGradient>
<path id="path5797" opacity="0.53" fill="url(#path5797_1_)" enable-background="new    " d="M98.8,16.3c-1.5,0.6-2.4,2-2.3,3.6
	c0,2,1.3,3.6,2.8,3.7h5.7c1.5-0.1,2.8-1.7,2.8-3.7s-1.3-3.5-2.8-3.6h-5.7C99.1,16.3,98.9,16.3,98.8,16.3z"/>
<linearGradient id="path5829_1_" gradientUnits="userSpaceOnUse" x1="-100.0455" y1="-31.7156" x2="-94.1455" y2="-32.7056" gradientTransform="matrix(1.22 0 0 -1 226.36 -11.98)">
	<stop  offset="0" style="stop-color:#FFFFFF"/>
	<stop  offset="1" style="stop-color:#FFFFFF;stop-opacity:0"/>
</linearGradient>
<path id="path5829" opacity="0.49" fill="url(#path5829_1_)" enable-background="new    " d="M107.6,19.9c0,1.6-1,2.9-2.1,2.9
	s-2.1-1.3-2.1-2.9s1-2.9,2.1-2.9S107.6,18.3,107.6,19.9z"/>
<path id="path6880" fill="#BABDB6" d="M113,18.7h-6.3c-1.7,0-1.5,2.5,0,2.5h5.6L113,18.7z"/>
<linearGradient id="path5804_1_" gradientUnits="userSpaceOnUse" x1="64.6251" y1="-31.6588" x2="64.8451" y2="-36.0687" gradientTransform="matrix(1 0 0 -1 0 -12)">
	<stop  offset="0" style="stop-color:#FFFFFF"/>
	<stop  offset="1" style="stop-color:#FFFFFF;stop-opacity:0"/>
</linearGradient>
<path id="path5804" opacity="0.53" fill="url(#path5804_1_)" enable-background="new    " d="M64.2,16.3c-1.8,0.2-3.2,1.7-3.1,3.6
	c0,2,1.4,3.8,3.1,3.8l3.9,0.1c-2.1-1-2.9-3.6-1.9-5.7c0.4-0.8,1-1.4,1.8-1.8C67.2,16.1,64.9,16.3,64.2,16.3z"/>
<linearGradient id="SVGID_6_" gradientUnits="userSpaceOnUse" x1="88.1621" y1="50.2622" x2="87.4425" y2="37.8186" gradientTransform="matrix(1 0 0 1 0 32)">
	<stop  offset="0" style="stop-color:#BABDB6"/>
	<stop  offset="1" style="stop-color:#DDDEDB"/>
</linearGradient>
<ellipse fill="url(#SVGID_6_)" cx="87.8" cy="76" rx="3.1" ry="6.2"/>
<path fill="#494949" d="M87.8,69.8c1.7,0,3.1,2.8,3.1,6.2s-1.4,6.2-3.1,6.2s-3.1-2.8-3.1-6.2S86.1,69.8,87.8,69.8 M87.8,67.3
	c-3.3,0-5.6,3.7-5.6,8.7s2.4,8.7,5.6,8.7s5.6-3.6,5.6-8.7S91.1,67.3,87.8,67.3L87.8,67.3z"/>
</svg>
