<svg id="档案管理" xmlns="http://www.w3.org/2000/svg" viewBox="0 0 128 128"><defs><style>.cls-1{fill:#689f38;}.cls-2{fill:#f9f9f9;}.cls-3{opacity:0.3;}.cls-4{fill:#d32f2f;}.cls-5{fill:#0288d1;}</style></defs><title>128</title><g id="_128" data-name="128"><rect class="cls-1" x="82" y="8" width="36" height="112" rx="7"/><rect class="cls-2" x="91" y="88" width="18" height="3" rx="1.5"/><rect class="cls-2" x="91" y="81" width="18" height="3" rx="1.5"/><rect class="cls-2" x="91" y="74" width="18" height="3" rx="1.5"/><rect class="cls-2" x="91" y="17" width="18" height="53" rx="4"/><circle class="cls-3" cx="100" cy="105" r="9"/><rect class="cls-4" x="46" y="8" width="36" height="112" rx="7"/><rect class="cls-2" x="55" y="88" width="18" height="3" rx="1.5"/><rect class="cls-2" x="55" y="81" width="18" height="3" rx="1.5"/><rect class="cls-2" x="55" y="74" width="18" height="3" rx="1.5"/><rect class="cls-2" x="55" y="17" width="18" height="53" rx="4"/><circle class="cls-3" cx="64" cy="105" r="9"/><rect class="cls-5" x="10" y="8" width="36" height="112" rx="7"/><rect class="cls-2" x="19" y="88" width="18" height="3" rx="1.5"/><rect class="cls-2" x="19" y="81" width="18" height="3" rx="1.5"/><rect class="cls-2" x="19" y="74" width="18" height="3" rx="1.5"/><rect class="cls-2" x="19" y="17" width="18" height="53" rx="4"/><circle class="cls-3" cx="28" cy="105" r="9"/></g></svg>