<svg id="图像查看器" xmlns="http://www.w3.org/2000/svg" xmlns:xlink="http://www.w3.org/1999/xlink" viewBox="0 0 128 128"><defs><style>.cls-1{fill:none;}.cls-2{fill:#398799;}.cls-3{fill:#62bfde;}.cls-4{fill:#fbfaf5;}.cls-5{clip-path:url(#clip-path);}.cls-6{fill:#36b49e;}.cls-7{fill:#31a28e;}.cls-8{fill:#f1c854;}</style><clipPath id="clip-path"><rect class="cls-1" x="22" y="40" width="98" height="80" rx="12"/></clipPath></defs><title>128</title><g id="_128" data-name="128"><rect class="cls-2" x="13.9" y="16.8" width="99.32" height="79.45" rx="12" transform="translate(-12.47 18.38) rotate(-15)"/><g id="_图层_" data-name="&lt;图层&gt;"><rect class="cls-3" x="22" y="40" width="98" height="80" rx="12"/><path class="cls-4" d="M72.05,57.6a6.69,6.69,0,0,0-1.69.24,6.5,6.5,0,0,0-11.59-.19c-.17,0-.33,0-.51,0a5.73,5.73,0,1,0,0,11.4H72.05a5.73,5.73,0,1,0,0-11.4Z"/><path class="cls-4" d="M49,74a4.61,4.61,0,0,0-1.18.17,4.54,4.54,0,0,0-8.11-.13c-.12,0-.23,0-.35,0a4,4,0,1,0,0,8H49a4,4,0,1,0,0-8Z"/><g class="cls-5"><ellipse class="cls-6" cx="58.49" cy="124" rx="37.49" ry="27"/><ellipse class="cls-7" cx="94.49" cy="112" rx="37.49" ry="31"/><circle class="cls-8" cx="116" cy="48" r="22"/></g></g></g></svg>