<?xml version="1.0" encoding="utf-8"?>
<!-- Generator: Adobe Illustrator 24.0.0, SVG Export Plug-In . SVG Version: 6.00 Build 0)  -->
<svg version="1.1" id="eufloria" xmlns="http://www.w3.org/2000/svg" xmlns:xlink="http://www.w3.org/1999/xlink" x="0px" y="0px"
	 viewBox="0 0 128 128" enable-background="new 0 0 128 128" xml:space="preserve">
<title>128</title>
<g id="_128">
	
		<linearGradient id="SVGID_1_" gradientUnits="userSpaceOnUse" x1="64" y1="86" x2="64" y2="-22.12" gradientTransform="matrix(1 0 0 1 0 32)">
		<stop  offset="0" style="stop-color:#FFC187"/>
		<stop  offset="1" style="stop-color:#FFE2C9"/>
	</linearGradient>
	<path fill="url(#SVGID_1_)" d="M20,8h88c6.6,0,12,5.4,12,12v88c0,6.6-5.4,12-12,12H20c-6.6,0-12-5.4-12-12V20C8,13.4,13.4,8,20,8z"
		/>
	<g>
		<g>
			<defs>
				<path id="SVGID_2_" d="M20,8h88c6.6,0,12,5.4,12,12v88c0,6.6-5.4,12-12,12H20c-6.6,0-12-5.4-12-12V20C8,13.4,13.4,8,20,8z"/>
			</defs>
			<clipPath id="SVGID_3_">
				<use xlink:href="#SVGID_2_"  overflow="visible"/>
			</clipPath>
			<g clip-path="url(#SVGID_3_)">
				<ellipse fill="#EF7F4F" cx="65.9" cy="129.7" rx="37.8" ry="26.3"/>
				<path fill="#675749" d="M65.9,157.7c-21.8,0-39.5-12.6-39.5-28s17.7-28,39.5-28s39.5,12.6,39.5,28S87.7,157.7,65.9,157.7z
					 M65.9,105.1c-19.9,0-36.1,11.1-36.1,24.6s16.2,24.6,36.1,24.6s36.1-11,36.1-24.6S85.8,105.1,65.9,105.1z"/>
				<polygon fill="#675749" points="41,66.5 29.8,66.5 29.8,64.2 39,64.2 33.3,54.7 35.2,53.6 41.9,64.8 				"/>
				<polygon fill="#675749" points="53.2,56.9 46.2,47 48,45.7 53.9,53.9 57.8,44.7 59.9,45.6 55.1,56.7 				"/>
				<polygon fill="#675749" points="66.7,102.9 64.5,102.9 64.5,85.9 53.7,71.3 40.6,66.4 41.4,64.3 54.8,69.3 55.3,69.7 66.5,84.8 
					66.7,85.5 				"/>
				<rect x="52.7" y="56.4" fill="#675749" width="2.2" height="14.6"/>
				<polygon fill="#675749" points="66.5,86.1 64.7,84.9 74.6,70.6 75.1,62.9 70.3,55.9 72.1,54.6 77.2,61.9 77.4,62.6 76.8,71 
					76.6,71.6 				"/>
				
					<rect x="75" y="58.3" transform="matrix(0.7372 -0.6757 0.6757 0.7372 -19.2682 69.3573)" fill="#675749" width="9.1" height="2.2"/>
				<polygon fill="#675749" points="76.1,72 75.3,69.9 86.8,65.5 93.8,56.8 95.6,58.2 88.3,67.2 87.8,67.5 				"/>
				
					<rect x="87.4" y="65.1" transform="matrix(0.9985 -5.547078e-02 5.547078e-02 0.9985 -3.53 5.2305)" fill="#675749" width="10.1" height="2.2"/>
				<path fill="#FF5E34" d="M71.1,121c-0.5-0.6-6.7-6.9-6.7-10v-5.9h2.2v5.9c0,1.7,4.5,6.7,6.1,8.5L71.1,121z"/>
				
					<ellipse transform="matrix(0.9994 -3.385385e-02 3.385385e-02 0.9994 -1.2721 1.0713)" fill="#06BE8C" cx="31" cy="38.1" rx="6.2" ry="2.4"/>
				
					<ellipse transform="matrix(0.9994 -3.385383e-02 3.385383e-02 0.9994 -1.0485 1.2741)" fill="#06BE8C" cx="37.1" cy="31.6" rx="2.4" ry="6.2"/>
				
					<ellipse transform="matrix(0.6828 -0.7306 0.7306 0.6828 -14.5032 35.277)" fill="#FF5E34" cx="33.4" cy="34.3" rx="2.5" ry="6.4"/>
				
					<ellipse transform="matrix(0.1726 -0.985 0.985 0.1726 -29.1465 75.7221)" fill="#06BE8C" cx="30.5" cy="55.2" rx="1.9" ry="4.8"/>
				
					<ellipse transform="matrix(0.1726 -0.985 0.985 0.1726 -20.6341 77.9761)" fill="#06BE8C" cx="36.1" cy="51.3" rx="4.8" ry="1.9"/>
				
					<ellipse transform="matrix(0.8186 -0.5744 0.5744 0.8186 -24.3559 28.4942)" fill="#FF5E34" cx="32.9" cy="52.8" rx="1.9" ry="5"/>
				
					<ellipse transform="matrix(0.9097 -0.4152 0.4152 0.9097 -12.3016 27.2006)" fill="#06BE8C" cx="56.4" cy="41.9" rx="1.9" ry="4.8"/>
				
					<ellipse transform="matrix(0.9097 -0.4152 0.4152 0.9097 -12.7305 30.0771)" fill="#06BE8C" cx="62.8" cy="44.3" rx="4.8" ry="1.9"/>
				
					<ellipse transform="matrix(0.3497 -0.9369 0.9369 0.3497 -0.9027 83.6274)" fill="#FF5E34" cx="59.8" cy="42.5" rx="5" ry="1.9"/>
				
					<ellipse transform="matrix(0.1695 -0.9855 0.9855 0.1695 0.8704 115.669)" fill="#06BE8C" cx="69.1" cy="57.3" rx="1.9" ry="4.8"/>
				
					<ellipse transform="matrix(0.1692 -0.9856 0.9856 0.1692 10.0239 117.9383)" fill="#06BE8C" cx="75" cy="53" rx="4.8" ry="1.9"/>
				
					<ellipse transform="matrix(0.8167 -0.577 0.577 0.8167 -18.5466 51.2379)" fill="#FF5E34" cx="71.4" cy="54.8" rx="1.9" ry="5"/>
				
					<ellipse transform="matrix(2.635022e-02 -0.9997 0.9997 2.635022e-02 23.3401 133.2743)" fill="#06BE8C" cx="80.1" cy="54.7" rx="4.8" ry="1.9"/>
				
					<ellipse transform="matrix(2.635022e-02 -0.9997 0.9997 2.635022e-02 23.0863 142.9321)" fill="#06BE8C" cx="84.9" cy="59.6" rx="1.9" ry="4.8"/>
				
					<ellipse transform="matrix(0.7255 -0.6882 0.6882 0.7255 -16.2509 72.6195)" fill="#FF5E34" cx="82.9" cy="56.7" rx="5" ry="1.9"/>
				
					<ellipse transform="matrix(0.9982 -5.989258e-02 5.989258e-02 0.9982 -2.969 5.7479)" fill="#06BE8C" cx="94.4" cy="52.4" rx="1.9" ry="4.8"/>
				
					<ellipse transform="matrix(0.9985 -5.564449e-02 5.564449e-02 0.9985 -3.0349 5.6089)" fill="#06BE8C" cx="99.2" cy="57.3" rx="4.8" ry="1.9"/>
				<ellipse transform="matrix(0.6667 -0.7454 0.7454 0.6667 -8.2752 90.4546)" fill="#FF5E34" cx="97" cy="54.5" rx="5" ry="1.9"/>
				
					<ellipse transform="matrix(0.83 -0.5577 0.5577 0.83 -17.7856 66.7996)" fill="#06BE8C" cx="100.7" cy="62.6" rx="4.8" ry="1.9"/>
				
					<ellipse transform="matrix(0.83 -0.5577 0.5577 0.83 -21.7953 67.1542)" fill="#06BE8C" cx="99.3" cy="69.3" rx="1.9" ry="4.8"/>
				
					<ellipse transform="matrix(0.1925 -0.9813 0.9813 0.1925 16.4465 152.0529)" fill="#FF5E34" cx="100.6" cy="66" rx="1.9" ry="5"/>
				
					<ellipse transform="matrix(0.707 -0.7072 0.7072 0.707 -40.4026 40.0174)" fill="#06BE8C" cx="28.1" cy="68.8" rx="4.8" ry="1.9"/>
				
					<ellipse transform="matrix(0.707 -0.7072 0.7072 0.707 -35.5159 37.9993)" fill="#06BE8C" cx="28.1" cy="61.9" rx="1.9" ry="4.8"/>
				<ellipse fill="#FF5E34" cx="27.5" cy="65.4" rx="5" ry="1.9"/>
			</g>
		</g>
	</g>
</g>
</svg>
