<svg id="图层_1" data-name="图层 1" xmlns="http://www.w3.org/2000/svg" viewBox="0 0 128 128"><defs><style>.cls-1{fill:#c7c1d6;}.cls-2{fill:#3f51b5;}.cls-3{fill:#7986cb;}.cls-4{fill:#d5d9ef;}.cls-5{fill:#50bcff;}.cls-6{fill:#0086ea;}.cls-7{fill:#0470bf;}</style></defs><title>fet128</title><circle class="cls-1" cx="64" cy="64" r="59"/><polygon class="cls-2" points="67.44 55.69 22.6 66.96 54.41 79.33 102.13 63.2 67.44 55.69"/><polygon class="cls-3" points="22.6 66.96 23.04 77.56 54.41 93.47 54.41 79.33 22.6 66.96"/><polygon class="cls-4" points="102.13 63.2 101.69 74.47 54.41 93.47 54.41 79.33 102.13 63.2"/><polygon class="cls-5" points="64.41 34.53 28.08 76.63 77.03 37.04 64.41 34.53"/><polygon class="cls-6" points="77.03 37.04 28.08 76.63 80.53 43.14 77.03 37.04"/><polygon class="cls-7" points="28.08 76.63 93.63 57.7 95.74 47.71 28.08 76.63"/><polygon class="cls-5" points="84.84 40.39 80.53 43.14 28.08 76.63 87.18 51.37 105.4 43.58 84.84 40.39"/></svg>