<svg id="图层_1" data-name="图层 1" xmlns="http://www.w3.org/2000/svg" xmlns:xlink="http://www.w3.org/1999/xlink" viewBox="0 0 128 128"><defs><style>.cls-1{fill:url(#未命名的渐变_15);}.cls-2{fill:url(#未命名的渐变_32);}.cls-3{fill:url(#未命名的渐变_32-2);}.cls-4{fill:url(#未命名的渐变_32-3);}.cls-5{fill:url(#未命名的渐变_32-4);}.cls-6{fill:url(#未命名的渐变_32-5);}.cls-7{fill:#f5a816;}.cls-8{fill:url(#未命名的渐变_48);}.cls-9{fill:url(#未命名的渐变_35);}</style><linearGradient id="未命名的渐变_15" x1="64" y1="35" x2="64" y2="93" gradientUnits="userSpaceOnUse"><stop offset="0" stop-color="#f45022"/><stop offset="0.99" stop-color="#b71c1c"/></linearGradient><linearGradient id="未命名的渐变_32" x1="19.75" y1="50.8" x2="19.75" y2="78.73" gradientUnits="userSpaceOnUse"><stop offset="0" stop-color="#ffebc6"/><stop offset="0.68" stop-color="#ffb33f"/><stop offset="0.99" stop-color="#ff9800"/></linearGradient><linearGradient id="未命名的渐变_32-2" x1="34.42" y1="50.8" x2="34.42" y2="78.73" xlink:href="#未命名的渐变_32"/><linearGradient id="未命名的渐变_32-3" x1="47.46" y1="50.8" x2="47.46" y2="78.73" xlink:href="#未命名的渐变_32"/><linearGradient id="未命名的渐变_32-4" x1="68.02" y1="50.8" x2="68.02" y2="78.73" xlink:href="#未命名的渐变_32"/><linearGradient id="未命名的渐变_32-5" x1="91.75" y1="50.71" x2="91.75" y2="77.29" xlink:href="#未命名的渐变_32"/><linearGradient id="未命名的渐变_48" x1="107.99" y1="39.83" x2="107.99" y2="55.8" gradientUnits="userSpaceOnUse"><stop offset="0" stop-color="#ffeb93"/><stop offset="0.99" stop-color="#f5a816"/></linearGradient><linearGradient id="未命名的渐变_35" x1="68.41" y1="35" x2="68.41" y2="54.46" gradientUnits="userSpaceOnUse"><stop offset="0" stop-color="#ffeb9d"/><stop offset="0.99" stop-color="#f5a816"/></linearGradient></defs><title>ffado-mixer-qt4-112</title><path class="cls-1" d="M120.5,52.1V75L102.59,93H15.83A8.38,8.38,0,0,1,7.5,84.62V43.38A8.38,8.38,0,0,1,15.83,35H103.5Z"/><path class="cls-2" d="M21,57h2.36L28,50.8H20.18a8.71,8.71,0,0,0-8.65,8.7V78.73h5.81V70.41H22.9V64.76H17.34v-4A3.7,3.7,0,0,1,21,57Z"/><path class="cls-3" d="M34.84,57h4.07l4.58-6.24H34a8.7,8.7,0,0,0-8.65,8.7V78.73h5.81V70.41h5.55V64.76H31.16v-4A3.69,3.69,0,0,1,34.84,57Z"/><path class="cls-4" d="M51.49,50.8v0A14.13,14.13,0,0,0,38.13,64.93v13.8h5.36V70.41h8v8.32h5.3V50.8Zm0,14h-8a8.36,8.36,0,0,1,8-7.85Z"/><path class="cls-5" d="M73.1,55.23a13.93,13.93,0,0,0-6.91-4A14.09,14.09,0,0,0,63,50.8h-3.8V78.73H63a13,13,0,0,0,1.55-.09A14,14,0,0,0,76.86,64.77h0A13.91,13.91,0,0,0,73.1,55.23ZM71.21,64c0,3.87-2.52,7.08-5.73,7.5a5.81,5.81,0,0,1-.72,0h-.23V56.45h.23a5.81,5.81,0,0,1,.72,0c3.21.42,5.73,3.63,5.73,7.5Z"/><path class="cls-6" d="M91.75,50.71A13.29,13.29,0,1,0,105,64,13.25,13.25,0,0,0,91.75,50.71Zm0,21.05A7.76,7.76,0,1,1,99.46,64,7.74,7.74,0,0,1,91.75,71.76Z"/><rect class="cls-7" x="82.41" y="83.27" width="18.59" height="5.46"/><polygon class="cls-8" points="111.14 55.8 100.05 44.65 104.84 39.83 115.93 50.99 111.14 55.8"/><path class="cls-9" d="M83.52,44.75l-9.65,9.71A13.83,13.83,0,0,0,67,50.4L53.3,36.66,55,35H73.82Z"/></svg>