<svg id="图层_1" data-name="图层 1" xmlns="http://www.w3.org/2000/svg" xmlns:xlink="http://www.w3.org/1999/xlink" viewBox="0 0 128 128"><defs><style>.cls-1{fill:#fff;}.cls-2{fill:url(#未命名的渐变_215);}.cls-3{fill:url(#未命名的渐变_183);}.cls-4{fill:url(#未命名的渐变_211);}.cls-5,.cls-9{fill:#a67c52;}.cls-5,.cls-6,.cls-7{opacity:0.35;}.cls-6{fill:url(#未命名的渐变_59);}.cls-7{fill:url(#未命名的渐变_59-2);}.cls-8{fill:none;}.cls-10{fill:url(#未命名的渐变_183-2);}.cls-11{fill:url(#未命名的渐变_230);}.cls-12{fill:url(#未命名的渐变_224);}.cls-13{fill:url(#未命名的渐变_192);}</style><linearGradient id="未命名的渐变_215" x1="80.73" y1="94.38" x2="80.73" y2="18.18" gradientUnits="userSpaceOnUse"><stop offset="0" stop-color="#fe4721"/><stop offset="0.63" stop-color="#ffd902"/></linearGradient><linearGradient id="未命名的渐变_183" x1="42.45" y1="49.5" x2="42.45" y2="35.89" gradientUnits="userSpaceOnUse"><stop offset="0.19" stop-color="#fe4721"/><stop offset="0.8" stop-color="#ffd902"/></linearGradient><radialGradient id="未命名的渐变_211" cx="63.23" cy="65.16" fx="56.75308792546318" fy="80.05591147833705" r="21.4" gradientUnits="userSpaceOnUse"><stop offset="0" stop-color="#5e24ea"/><stop offset="0.13" stop-color="#6423ea"/><stop offset="0.29" stop-color="#731fec"/><stop offset="0.47" stop-color="#8d18ee"/><stop offset="0.67" stop-color="#b20ff1"/><stop offset="0.87" stop-color="#e004f4"/><stop offset="0.9" stop-color="#e602f5"/></radialGradient><radialGradient id="未命名的渐变_59" cx="85.25" cy="174.22" fx="34.597910156732816" fy="256.09762660312646" r="176.53" gradientUnits="userSpaceOnUse"><stop offset="0.2" stop-color="#5e24ea"/><stop offset="0.75" stop-color="#d805f4"/><stop offset="0.93" stop-color="#e602f5"/></radialGradient><radialGradient id="未命名的渐变_59-2" cx="74.47" cy="171.91" fx="23.81716149358637" fy="253.78746617548018" r="176.53" xlink:href="#未命名的渐变_59"/><linearGradient id="未命名的渐变_183-2" x1="67.64" y1="88.49" x2="86.51" y2="55.81" xlink:href="#未命名的渐变_183"/><linearGradient id="未命名的渐变_230" x1="48.6" y1="73.1" x2="48.6" y2="55.14" gradientUnits="userSpaceOnUse"><stop offset="0.04" stop-color="#fe5a1d"/><stop offset="0.87" stop-color="#fda501"/></linearGradient><linearGradient id="未命名的渐变_224" x1="20.88" y1="76.84" x2="107.12" y2="76.84" gradientUnits="userSpaceOnUse"><stop offset="0.01" stop-color="#fe3a24"/><stop offset="0.2" stop-color="#fa0849"/><stop offset="0.68" stop-color="#fe0071"/><stop offset="1" stop-color="#fce725"/></linearGradient><linearGradient id="未命名的渐变_192" x1="44.17" y1="96.17" x2="82.27" y2="30.18" gradientUnits="userSpaceOnUse"><stop offset="0.09" stop-color="#fe152c"/><stop offset="0.77" stop-color="#ffcf04"/></linearGradient></defs><title>firefox128</title><rect class="cls-1" x="8" y="8" width="112" height="112" rx="12"/><path class="cls-2" d="M77.09,18.18a29.56,29.56,0,0,0,7.7,12.32c6.16,6.16,15.4,14.63,15.4,32.34S80.17,101.35,74,92.11,47.06,35.89,77.09,18.18Z"/><path class="cls-3" d="M36.28,45.13s9.24-9.24,11.55-9.24c0,0,0,10.78.77,13.09S36.28,45.13,36.28,45.13Z"/><circle class="cls-4" cx="63.23" cy="65.16" r="21.56"/><path class="cls-5" d="M62.84,86.72a18.53,18.53,0,0,1-3.18-.28,26.73,26.73,0,0,0,6.44,1,16.8,16.8,0,0,1-1.65-.81C63.92,86.69,63.39,86.72,62.84,86.72Z"/><path class="cls-6" d="M92.48,69.56A18.87,18.87,0,0,0,73.63,51.29c-.55,0-1.08,0-1.61.08a18.86,18.86,0,0,1-7.57,35.27,16.8,16.8,0,0,0,1.65.81c.33,0,.65,0,1,0A27,27,0,0,0,92.48,69.56Z"/><path class="cls-5" d="M90.9,77.75A35,35,0,0,1,70.05,88.68a19.14,19.14,0,0,0,3.58.35A18.86,18.86,0,0,0,90.9,77.75Z"/><path class="cls-7" d="M59.66,86.44a26.86,26.86,0,0,1-11.39-6.61A18.83,18.83,0,0,0,59.66,86.44Z"/><path class="cls-5" d="M48.27,79.83a18.93,18.93,0,0,1-3.86-8,23.17,23.17,0,0,0,1.52,5.41A28.75,28.75,0,0,0,48.27,79.83Z"/><path class="cls-8" d="M86.17,82l-.51.38Z"/><path class="cls-8" d="M85,82.86l-.45.3Z"/><path class="cls-8" d="M87.32,81.11l-.55.44Z"/><path class="cls-8" d="M90.9,77.75l-1,1Z"/><path class="cls-8" d="M83.79,83.65l-.38.24Z"/><path class="cls-8" d="M88.44,80.15l-.59.52Z"/><path class="cls-8" d="M89.56,79.11c-.22.21-.44.43-.66.63C89.12,79.54,89.34,79.32,89.56,79.11Z"/><polygon class="cls-8" points="72.26 88.29 72.26 88.29 72.26 88.29 72.26 88.29"/><path class="cls-8" d="M82.56,84.39l-.26.15Z"/><path class="cls-9" d="M89.92,78.77l-.36.34Z"/><path class="cls-10" d="M92.48,69.56A18.87,18.87,0,0,0,73.63,51.29c-.55,0-1.08,0-1.61.08a18.86,18.86,0,0,1-7.57,35.27l0,0c.52.29,1,.54,1.6.78a18.88,18.88,0,0,0,4,1.23c.75-.11,1.48-.24,2.21-.39h0a35,35,0,0,0,10-3.75l.26-.15.85-.5.38-.24.75-.49.45-.3.67-.47.51-.38.6-.46.55-.44.53-.44.59-.52.46-.41c.22-.2.44-.42.66-.63l.36-.34,1-1a18.82,18.82,0,0,0,1.59-7.59C92.49,70,92.48,69.76,92.48,69.56Z"/><path class="cls-9" d="M88.9,79.74l-.46.41Z"/><path class="cls-9" d="M87.85,80.67l-.53.44Z"/><path class="cls-9" d="M85.66,82.39l-.67.47Z"/><path class="cls-9" d="M84.54,83.16l-.75.49Z"/><path class="cls-9" d="M86.77,81.55l-.6.46Z"/><path class="cls-9" d="M83.41,83.89l-.85.5Z"/><path class="cls-9" d="M82.3,84.54a35,35,0,0,1-10,3.75A35,35,0,0,0,82.3,84.54Z"/><path class="cls-11" d="M51.68,58.22a34.54,34.54,0,0,1-3.62-1.3,26.77,26.77,0,0,0-9.47-1.78c-6.21,0-6.93,2.31-6.93,2.31s0,.77,3.08,3.85a8.13,8.13,0,0,0,6.93,2.31,23.63,23.63,0,0,0,3.65,9.49,6.83,6.83,0,0,1-.57-3.32c0-.21,0-.4.08-.59.63-3.66,3.87-5.28,7.13-6a25.85,25.85,0,0,1,6.21-.46A3.08,3.08,0,0,0,60.34,62l5.2-4.56S56.3,59,51.68,58.22Z"/><path class="cls-5" d="M97.6,67.22c.08-.21.17-.42.25-.64C97.77,66.8,97.68,67,97.6,67.22Z"/><path class="cls-5" d="M98.7,64.11c.08-.25.15-.5.22-.75C98.85,63.61,98.78,63.86,98.7,64.11Z"/><path class="cls-5" d="M98.18,65.69c.09-.23.16-.47.24-.7C98.34,65.22,98.27,65.46,98.18,65.69Z"/><path class="cls-5" d="M99.15,62.5l.18-.81Z"/><path class="cls-5" d="M99.81,59.18l.12-1Z"/><path class="cls-5" d="M99.51,60.86c.06-.3.11-.59.16-.89C99.62,60.27,99.57,60.57,99.51,60.86Z"/><path class="cls-5" d="M93.74,74.24c.07-.11.15-.21.23-.32C93.89,74,93.81,74.13,93.74,74.24Z"/><path class="cls-5" d="M100,57.48c0-.37.06-.75.08-1.13C100.08,56.73,100.06,57.11,100,57.48Z"/><path class="cls-5" d="M97,68.72c.09-.19.17-.39.26-.58C97.12,68.33,97,68.53,97,68.72Z"/><path class="cls-5" d="M92.81,75.49l.19-.24Z"/><path class="cls-5" d="M94.62,72.94l.25-.4Z"/><path class="cls-5" d="M96.23,70.17l.27-.52Z"/><path class="cls-5" d="M95.45,71.58l.27-.46Z"/><path class="cls-5" d="M91.86,76.67l.12-.15Z"/><path class="cls-5" d="M25.6,59c0-.49.07-1,.12-1.46C25.67,58.05,25.63,58.54,25.6,59Z"/><path class="cls-5" d="M25.5,61.69c0-.69,0-1.38.05-2.06C25.52,60.31,25.5,61,25.5,61.69Z"/><path class="cls-5" d="M26.47,53a39.24,39.24,0,0,1,2.64-7.81A39.24,39.24,0,0,0,26.47,53Z"/><path class="cls-5" d="M26.08,54.93c.09-.53.2-1.06.31-1.58C26.28,53.87,26.17,54.4,26.08,54.93Z"/><path class="cls-5" d="M25.79,56.93c.06-.48.12-1,.2-1.44C25.91,56,25.85,56.45,25.79,56.93Z"/><path class="cls-5" d="M100.15,55.75c0-.59,0-1.17,0-1.76C100.19,54.58,100.18,55.16,100.15,55.75Z"/><path class="cls-9" d="M100.1,56.35c0-.2,0-.4.05-.6C100.14,56,100.12,56.15,100.1,56.35Z"/><path class="cls-9" d="M94.87,72.54c.2-.32.39-.64.58-1C95.26,71.9,95.07,72.22,94.87,72.54Z"/><path class="cls-9" d="M96.5,69.65l.45-.93Z"/><path class="cls-9" d="M93,75.25c.25-.33.5-.67.74-1C93.5,74.58,93.25,74.92,93,75.25Z"/><path class="cls-9" d="M92,76.52c.28-.33.56-.68.83-1C92.54,75.84,92.26,76.19,92,76.52Z"/><path class="cls-9" d="M94,73.92c.22-.32.44-.65.65-1C94.41,73.27,94.19,73.6,94,73.92Z"/><path class="cls-9" d="M95.72,71.12l.51-1Z"/><path class="cls-9" d="M98.92,63.36c.07-.29.15-.57.23-.86C99.07,62.79,99,63.07,98.92,63.36Z"/><path class="cls-9" d="M99.33,61.69c.07-.28.13-.55.18-.83C99.46,61.14,99.4,61.41,99.33,61.69Z"/><path class="cls-9" d="M98.42,65c.1-.29.19-.58.28-.88C98.61,64.41,98.52,64.7,98.42,65Z"/><path class="cls-9" d="M99.67,60c0-.26.1-.52.14-.79C99.77,59.45,99.72,59.71,99.67,60Z"/><path class="cls-9" d="M99.93,58.21l.09-.73Z"/><path class="cls-9" d="M97.85,66.58c.12-.29.23-.59.33-.89C98.08,66,98,66.29,97.85,66.58Z"/><path class="cls-9" d="M97.21,68.14l.39-.92Z"/><path class="cls-12" d="M100.58,43.86a39.66,39.66,0,0,1-51.69,54A40.46,40.46,0,0,1,21.05,63c-.11,1.21-.17,2.44-.17,3.67a43.12,43.12,0,1,0,79.7-22.84Z"/><path class="cls-9" d="M25.55,59.63c0-.2,0-.4.05-.6C25.58,59.23,25.56,59.43,25.55,59.63Z"/><path class="cls-9" d="M26.39,53.35c0-.12.05-.24.08-.37C26.44,53.11,26.41,53.23,26.39,53.35Z"/><path class="cls-9" d="M25.72,57.57c0-.21.05-.43.07-.64C25.77,57.14,25.74,57.36,25.72,57.57Z"/><path class="cls-9" d="M26,55.49l.09-.56Z"/><path class="cls-13" d="M100.58,43.86a44.05,44.05,0,0,0-4-5.44A34.88,34.88,0,0,1,100.19,54c0,.59,0,1.17,0,1.76,0,.2,0,.4-.05.6,0,.38,0,.76-.08,1.13l-.09.73-.12,1c0,.27-.09.53-.14.79s-.1.59-.16.89-.11.55-.18.83l-.18.81c-.08.29-.16.57-.23.86s-.14.5-.22.75-.18.59-.28.88-.15.47-.24.7-.21.6-.33.89-.17.43-.25.64l-.39.92c-.09.19-.17.39-.26.58l-.45.93-.27.52-.51,1-.27.46c-.19.32-.38.64-.58,1l-.25.4c-.21.33-.43.66-.65,1-.08.11-.16.21-.23.32-.24.34-.49.68-.74,1l-.19.24c-.27.35-.55.7-.83,1l-.12.15c-.39.44-.78.88-1.18,1.31l-.21.22c-.33.34-.68.69-1,1l-.29.27c-.35.33-.71.66-1.08,1l-.22.2-1.2,1-.41.31-1,.7-.29.21-.33.22c-.32.22-.64.42-1,.63l-.29.18-.53.31-.62.36c-.35.2-.71.39-1.07.57l-.18.09a34.82,34.82,0,0,1-8.75,3.07h0c-.63.13-1.27.24-1.91.34l-.31,0a18.2,18.2,0,0,1-3.94-1.22c-.55-.24-1.08-.49-1.6-.78-.42,0-.84,0-1.27,0A18.49,18.49,0,0,1,45.51,73.49l-.19-.39a23.63,23.63,0,0,1-3.65-9.49,8.13,8.13,0,0,1-6.93-2.31c-3.08-3.08-3.08-3.85-3.08-3.85s.72-2.31,6.93-2.31a26.77,26.77,0,0,1,9.47,1.78,34.54,34.54,0,0,0,3.62,1.3c4.62.77,13.86-.77,13.86-.77-4.17-.75-8.15-3.38-11.48-6l-.21-.16c-3.35-2.68-6-5.36-7.56-6.13a6.18,6.18,0,0,0-1-.39c-3-.84-6.74.31-7.43-.38s-.21-9.47,0-12.25v0A46,46,0,0,0,21.05,63,40.46,40.46,0,0,0,48.89,97.86a39.66,39.66,0,0,0,51.69-54ZM26.47,53a39.24,39.24,0,0,1,2.64-7.81A39.24,39.24,0,0,0,26.47,53Z"/></svg>