<?xml version="1.0" encoding="utf-8"?>
<!-- Generator: Adobe Illustrator 24.0.0, SVG Export Plug-In . SVG Version: 6.00 Build 0)  -->
<svg version="1.1" id="图层_1" xmlns="http://www.w3.org/2000/svg" xmlns:xlink="http://www.w3.org/1999/xlink" x="0px" y="0px"
	 viewBox="0 0 128 128" enable-background="new 0 0 128 128" xml:space="preserve">
<title>firefox128</title>
<linearGradient id="SVGID_1_" gradientUnits="userSpaceOnUse" x1="85.5488" y1="71.1235" x2="85.5488" y2="-27" gradientTransform="matrix(1 0 0 1 0 32)">
	<stop  offset="0" style="stop-color:#FE4721"/>
	<stop  offset="0.63" style="stop-color:#FFD902"/>
</linearGradient>
<path fill="url(#SVGID_1_)" d="M80.9,5c0,0,2,7.9,9.9,15.9s19.8,18.8,19.8,41.6s-25.8,49.6-33.7,37.7S42.2,27.8,80.9,5z"/>
<linearGradient id="SVGID_2_" gradientUnits="userSpaceOnUse" x1="36.2713" y1="13.3264" x2="36.2713" y2="-4.19" gradientTransform="matrix(1 0 0 1 0 32)">
	<stop  offset="0.19" style="stop-color:#FE4721"/>
	<stop  offset="0.8" style="stop-color:#FFD902"/>
</linearGradient>
<path fill="url(#SVGID_2_)" d="M28.3,39.7c0,0,11.9-11.9,14.9-11.9c0,0,0,13.9,1,16.9S28.3,39.7,28.3,39.7z"/>
<radialGradient id="SVGID_3_" cx="63" cy="33.5" r="27.56" fx="54.6582" fy="52.6852" gradientTransform="matrix(1 0 0 1 0 32)" gradientUnits="userSpaceOnUse">
	<stop  offset="0" style="stop-color:#5E24EA"/>
	<stop  offset="0.13" style="stop-color:#6423EA"/>
	<stop  offset="0.29" style="stop-color:#731FEC"/>
	<stop  offset="0.47" style="stop-color:#8D18EE"/>
	<stop  offset="0.67" style="stop-color:#B20FF1"/>
	<stop  offset="0.87" style="stop-color:#E004F4"/>
	<stop  offset="0.9" style="stop-color:#E602F5"/>
</radialGradient>
<circle fill="url(#SVGID_3_)" cx="63" cy="65.5" r="27.8"/>
<path opacity="0.35" fill="#A67C52" enable-background="new    " d="M62.5,93.3c-1.4,0-2.7-0.1-4.1-0.3c2.7,0.8,5.5,1.2,8.3,1.3
	c-0.7-0.3-1.4-0.7-2.1-1C63.9,93.2,63.2,93.3,62.5,93.3z"/>
<radialGradient id="SVGID_4_" cx="91.36" cy="173.93" r="227.32" fx="26.139" fy="279.3638" gradientTransform="matrix(1 0 0 1 0 32)" gradientUnits="userSpaceOnUse">
	<stop  offset="0.2" style="stop-color:#5E24EA"/>
	<stop  offset="0.75" style="stop-color:#D805F4"/>
	<stop  offset="0.93" style="stop-color:#E602F5"/>
</radialGradient>
<path opacity="0.35" fill="url(#SVGID_4_)" enable-background="new    " d="M100.7,71.2c-0.4-13.1-11.2-23.5-24.3-23.5
	c-0.7,0-1.4,0-2.1,0.1c11.7,6.5,15.9,21.3,9.4,33c-3.9,7.1-11.1,11.7-19.2,12.4c0.7,0.4,1.4,0.7,2.1,1c0.4,0,0.8,0,1.3,0
	C82.6,94.2,95.7,85,100.7,71.2z"/>
<path opacity="0.35" fill="#A67C52" enable-background="new    " d="M98.6,81.7c-7,7.7-16.5,12.6-26.8,14.1c1.5,0.3,3,0.4,4.6,0.4
	C86,96.2,94.8,90.5,98.6,81.7z"/>
<radialGradient id="SVGID_5_" cx="77.48" cy="170.95" r="227.32" fx="12.2566" fy="276.389" gradientTransform="matrix(1 0 0 1 0 32)" gradientUnits="userSpaceOnUse">
	<stop  offset="0.2" style="stop-color:#5E24EA"/>
	<stop  offset="0.75" style="stop-color:#D805F4"/>
	<stop  offset="0.93" style="stop-color:#E602F5"/>
</radialGradient>
<path opacity="0.35" fill="url(#SVGID_5_)" enable-background="new    " d="M58.4,92.9c-5.5-1.6-10.6-4.5-14.7-8.5
	C47.4,88.9,52.7,91.9,58.4,92.9z"/>
<path opacity="0.35" fill="#A67C52" enable-background="new    " d="M43.7,84.4c-2.5-3-4.2-6.5-5-10.3c0.4,2.4,1,4.8,2,7
	C41.7,82.2,42.7,83.3,43.7,84.4z"/>
<path fill="none" d="M92.6,87.2c-0.2,0.2-0.4,0.3-0.7,0.5C92.1,87.5,92.3,87.4,92.6,87.2z"/>
<path fill="none" d="M91,88.3l-0.6,0.4L91,88.3z"/>
<path fill="none" d="M94,86c-0.2,0.2-0.5,0.4-0.7,0.6C93.6,86.4,93.8,86.2,94,86z"/>
<path fill="none" d="M98.6,81.7c-0.4,0.4-0.8,0.9-1.3,1.3C97.8,82.6,98.2,82.2,98.6,81.7z"/>
<path fill="none" d="M89.5,89.3L89,89.6L89.5,89.3z"/>
<path fill="none" d="M95.5,84.8l-0.8,0.7L95.5,84.8z"/>
<path fill="none" d="M96.9,83.5c-0.3,0.3-0.6,0.6-0.8,0.8C96.3,84,96.6,83.7,96.9,83.5z"/>
<path fill="none" d="M74.6,95.3L74.6,95.3L74.6,95.3z"/>
<path fill="none" d="M87.9,90.3l-0.3,0.2L87.9,90.3z"/>
<path fill="#A67C52" d="M97.4,83l-0.5,0.4L97.4,83z"/>
<linearGradient id="SVGID_6_" gradientUnits="userSpaceOnUse" x1="68.7117" y1="63.5465" x2="93.0278" y2="21.4486" gradientTransform="matrix(1 0 0 1 0 32)">
	<stop  offset="0.19" style="stop-color:#FE4721"/>
	<stop  offset="0.8" style="stop-color:#FFD902"/>
</linearGradient>
<path fill="url(#SVGID_6_)" d="M100.7,71.2c-0.4-13.1-11.2-23.5-24.3-23.5c-0.7,0-1.4,0-2.1,0.1c11.7,6.5,15.9,21.3,9.4,33
	c-3.9,7.1-11.1,11.7-19.2,12.4h0.1c0.7,0.4,1.3,0.7,2,1c1.6,0.7,3.3,1.2,5.1,1.6c1-0.1,1.9-0.3,2.8-0.5l0,0
	c4.5-0.9,8.9-2.6,12.9-4.8l0.3-0.2c0.4-0.2,0.7-0.4,1.1-0.7l0.5-0.3c0.3-0.2,0.7-0.4,1-0.6l0.6-0.4l0.9-0.6c0.2-0.2,0.4-0.3,0.7-0.5
	l0.8-0.6c0.2-0.2,0.5-0.4,0.7-0.6l0.7-0.6l0.8-0.7l0.6-0.5c0.3-0.3,0.6-0.5,0.8-0.8l0.5-0.4c0.4-0.4,0.9-0.9,1.3-1.3
	c1.3-3.1,2-6.4,2-9.8C100.7,71.7,100.7,71.4,100.7,71.2z"/>
<path fill="#A67C52" d="M96.1,84.3l-0.6,0.5L96.1,84.3z"/>
<path fill="#A67C52" d="M94.7,85.5L94,86L94.7,85.5z"/>
<path fill="#A67C52" d="M91.9,87.7L91,88.3L91.9,87.7z"/>
<path fill="#A67C52" d="M90.4,88.7c-0.3,0.2-0.6,0.4-1,0.6C89.8,89.1,90.1,88.9,90.4,88.7z"/>
<path fill="#A67C52" d="M93.3,86.6l-0.8,0.6L93.3,86.6z"/>
<path fill="#A67C52" d="M89,89.6c-0.4,0.2-0.7,0.4-1.1,0.7C88.3,90.1,88.6,89.8,89,89.6z"/>
<path fill="#A67C52" d="M87.6,90.4c-4,2.3-8.4,3.9-12.9,4.8C79.2,94.3,83.5,92.7,87.6,90.4z"/>
<linearGradient id="SVGID_7_" gradientUnits="userSpaceOnUse" x1="44.15" y1="43.7" x2="44.15" y2="20.6" gradientTransform="matrix(1 0 0 1 0 32)">
	<stop  offset="4.000000e-02" style="stop-color:#FE5A1D"/>
	<stop  offset="0.87" style="stop-color:#FDA501"/>
</linearGradient>
<path fill="url(#SVGID_7_)" d="M48.1,56.6c-1.6-0.5-3.1-1-4.7-1.7c-3.9-1.5-8-2.3-12.2-2.3c-8,0-8.9,3-8.9,3s0,1,4,5
	c2.3,2.4,5.6,3.5,8.9,3c0.7,4.3,2.3,8.5,4.7,12.1c-0.6-1.3-0.9-2.8-0.7-4.3c0-0.3,0.1-0.5,0.1-0.8c0.8-4.7,5-6.8,9.2-7.7
	c2.6-0.5,5.3-0.7,8-0.6c1,0,2-0.3,2.8-1l6.7-5.8C66,55.6,54.1,57.5,48.1,56.6z"/>
<path opacity="0.35" fill="#A67C52" enable-background="new    " d="M107.3,68.2c0.1-0.3,0.2-0.6,0.3-0.8
	C107.5,67.6,107.4,67.9,107.3,68.2z"/>
<path opacity="0.35" fill="#A67C52" enable-background="new    " d="M108.7,64.2c0.1-0.3,0.2-0.7,0.3-1
	C108.9,63.5,108.8,63.8,108.7,64.2z"/>
<path opacity="0.35" fill="#A67C52" enable-background="new    " d="M108,66.2c0.1-0.3,0.2-0.6,0.3-0.9
	C108.2,65.6,108.1,65.9,108,66.2z"/>
<path opacity="0.35" fill="#A67C52" enable-background="new    " d="M109.3,62.1l0.2-1L109.3,62.1z"/>
<path opacity="0.35" fill="#A67C52" enable-background="new    " d="M110.1,57.8c0.1-0.4,0.1-0.8,0.2-1.3
	C110.2,57,110.2,57.4,110.1,57.8z"/>
<path opacity="0.35" fill="#A67C52" enable-background="new    " d="M109.7,60c0.1-0.4,0.1-0.8,0.2-1.1
	C109.9,59.2,109.8,59.6,109.7,60z"/>
<path opacity="0.35" fill="#A67C52" enable-background="new    " d="M102.3,77.2l0.3-0.4L102.3,77.2z"/>
<path opacity="0.35" fill="#A67C52" enable-background="new    " d="M110.4,55.6c0.1-0.5,0.1-1,0.1-1.5
	C110.5,54.6,110.4,55.1,110.4,55.6z"/>
<path opacity="0.35" fill="#A67C52" enable-background="new    " d="M106.4,70.1c0.1-0.3,0.2-0.5,0.3-0.8
	C106.7,69.6,106.5,69.8,106.4,70.1z"/>
<path opacity="0.35" fill="#A67C52" enable-background="new    " d="M101.1,78.8l0.3-0.3L101.1,78.8z"/>
<path opacity="0.35" fill="#A67C52" enable-background="new    " d="M103.4,75.5l0.3-0.5L103.4,75.5z"/>
<path opacity="0.35" fill="#A67C52" enable-background="new    " d="M105.5,72l0.3-0.7L105.5,72z"/>
<path opacity="0.35" fill="#A67C52" enable-background="new    " d="M104.5,73.8l0.3-0.6L104.5,73.8z"/>
<path opacity="0.35" fill="#A67C52" enable-background="new    " d="M99.9,80.3l0.2-0.2L99.9,80.3z"/>
<path opacity="0.35" fill="#A67C52" enable-background="new    " d="M14.6,57.6c0-0.6,0.1-1.3,0.1-1.9C14.6,56.3,14.6,57,14.6,57.6z
	"/>
<path opacity="0.35" fill="#A67C52" enable-background="new    " d="M14.4,61c0-0.9,0-1.8,0.1-2.7C14.4,59.3,14.4,60.1,14.4,61z"/>
<path opacity="0.35" fill="#A67C52" enable-background="new    " d="M15.7,49.8c0.8-3.5,1.9-6.8,3.4-10.1
	C17.6,43,16.4,46.4,15.7,49.8z"/>
<path opacity="0.35" fill="#A67C52" enable-background="new    " d="M15.2,52.3c0.1-0.7,0.3-1.4,0.4-2C15.4,51,15.3,51.6,15.2,52.3z
	"/>
<path opacity="0.35" fill="#A67C52" enable-background="new    " d="M14.8,54.9c0.1-0.6,0.2-1.2,0.3-1.8
	C15,53.7,14.9,54.3,14.8,54.9z"/>
<path opacity="0.35" fill="#A67C52" enable-background="new    " d="M110.6,53.4c0-0.8,0.1-1.5,0.1-2.3
	C110.6,51.9,110.6,52.6,110.6,53.4z"/>
<path fill="#A67C52" d="M110.5,54.2l0.1-0.8L110.5,54.2z"/>
<path fill="#A67C52" d="M103.8,75c0.3-0.4,0.5-0.8,0.7-1.2C104.3,74.2,104,74.6,103.8,75z"/>
<path fill="#A67C52" d="M105.8,71.3c0.2-0.4,0.4-0.8,0.6-1.2C106.2,70.5,106,70.9,105.8,71.3z"/>
<path fill="#A67C52" d="M101.3,78.5c0.3-0.4,0.6-0.9,0.9-1.3C102,77.6,101.7,78.1,101.3,78.5z"/>
<path fill="#A67C52" d="M100,80.1c0.4-0.4,0.7-0.9,1.1-1.3C100.8,79.3,100.4,79.7,100,80.1z"/>
<path fill="#A67C52" d="M102.6,76.8c0.3-0.4,0.6-0.8,0.8-1.3C103.2,75.9,102.9,76.4,102.6,76.8z"/>
<path fill="#A67C52" d="M104.8,73.2c0.2-0.4,0.4-0.8,0.7-1.2C105.3,72.4,105.1,72.8,104.8,73.2z"/>
<path fill="#A67C52" d="M109,63.2l0.3-1.1L109,63.2z"/>
<path fill="#A67C52" d="M109.5,61c0.1-0.3,0.2-0.7,0.2-1.1C109.7,60.3,109.6,60.7,109.5,61z"/>
<path fill="#A67C52" d="M108.3,65.3c0.1-0.4,0.3-0.7,0.4-1.1C108.6,64.5,108.4,64.9,108.3,65.3z"/>
<path fill="#A67C52" d="M109.9,58.8c0-0.3,0.1-0.7,0.2-1C110.1,58.1,110,58.5,109.9,58.8z"/>
<path fill="#A67C52" d="M110.3,56.5c0-0.3,0.1-0.6,0.1-0.9C110.3,55.9,110.3,56.2,110.3,56.5z"/>
<path fill="#A67C52" d="M107.6,67.3c0.2-0.4,0.3-0.8,0.4-1.2C107.9,66.6,107.7,67,107.6,67.3z"/>
<path fill="#A67C52" d="M106.8,69.3c0.2-0.4,0.3-0.8,0.5-1.2C107.1,68.6,106.9,68.9,106.8,69.3z"/>
<linearGradient id="SVGID_8_" gradientUnits="userSpaceOnUse" x1="8.5" y1="48.55" x2="119.5" y2="48.55" gradientTransform="matrix(1 0 0 1 0 32)">
	<stop  offset="1.000000e-02" style="stop-color:#FE3A24"/>
	<stop  offset="0.2" style="stop-color:#FA0849"/>
	<stop  offset="0.68" style="stop-color:#FE0071"/>
	<stop  offset="1" style="stop-color:#FCE725"/>
</linearGradient>
<path fill="url(#SVGID_8_)" d="M111.1,38.1c12.7,25.2,2.5,55.9-22.6,68.6c-13.7,6.9-29.9,7.3-43.9,1c-19.9-6.4-34-24.1-35.9-44.8
	c-0.1,1.6-0.2,3.1-0.2,4.7C8.5,98.1,33.3,123,64,123s55.5-24.8,55.5-55.5C119.5,57.1,116.6,46.9,111.1,38.1z"/>
<path fill="#A67C52" d="M14.5,58.4l0.1-0.8L14.5,58.4z"/>
<path fill="#A67C52" d="M15.6,50.3c0-0.2,0.1-0.3,0.1-0.5C15.6,50,15.6,50.1,15.6,50.3z"/>
<path fill="#A67C52" d="M14.7,55.7c0-0.3,0.1-0.5,0.1-0.8C14.8,55.2,14.7,55.4,14.7,55.7z"/>
<path fill="#A67C52" d="M15.1,53l0.1-0.7L15.1,53z"/>
<linearGradient id="SVGID_9_" gradientUnits="userSpaceOnUse" x1="38.4874" y1="73.5302" x2="87.5719" y2="-11.4823" gradientTransform="matrix(1 0 0 1 0 32)">
	<stop  offset="9.000000e-02" style="stop-color:#FE152C"/>
	<stop  offset="0.77" style="stop-color:#FFCF04"/>
</linearGradient>
<path fill="url(#SVGID_9_)" d="M111.1,38.1c-1.5-2.5-3.3-4.8-5.2-7c3.1,6.2,4.7,13.1,4.7,20c0,0.8,0,1.5-0.1,2.3l-0.1,0.8
	c0,0.5-0.1,1-0.1,1.5c0,0.3-0.1,0.6-0.1,0.9s-0.1,0.8-0.2,1.3s-0.1,0.7-0.2,1s-0.1,0.8-0.2,1.1s-0.2,0.7-0.2,1.1l-0.2,1l-0.3,1.1
	c-0.1,0.3-0.2,0.7-0.3,1c-0.1,0.4-0.2,0.8-0.4,1.1s-0.2,0.6-0.3,0.9s-0.3,0.8-0.4,1.2s-0.2,0.6-0.3,0.8s-0.3,0.8-0.5,1.2
	s-0.2,0.5-0.3,0.8c-0.2,0.4-0.4,0.8-0.6,1.2l-0.3,0.7c-0.2,0.4-0.4,0.8-0.7,1.2l-0.3,0.6c-0.2,0.4-0.5,0.8-0.7,1.2l-0.3,0.5
	c-0.3,0.4-0.6,0.8-0.8,1.3l-0.3,0.4c-0.3,0.4-0.6,0.9-0.9,1.3l-0.3,0.3c-0.3,0.4-0.7,0.9-1.1,1.3l-0.2,0.2c-0.5,0.6-1,1.1-1.5,1.7
	l-0.3,0.3c-0.4,0.4-0.9,0.9-1.3,1.3L96.4,84c-0.4,0.4-0.9,0.8-1.4,1.3l-0.3,0.3c-0.5,0.4-1,0.8-1.5,1.3l-0.5,0.4l-1.2,0.9L91,88.3
	l-0.4,0.3c-0.4,0.3-0.8,0.6-1.3,0.8L89,89.7l-0.7,0.4l-0.8,0.5c-0.4,0.3-0.9,0.5-1.4,0.7l-0.2,0.1c-3.6,1.8-7.4,3.2-11.3,4l0,0
	c-0.8,0.2-1.6,0.3-2.5,0.4h-0.4c-1.7-0.4-3.5-0.9-5.1-1.6c-0.7-0.3-1.4-0.6-2-1c-0.6,0-1.1,0.1-1.6,0.1c-10.5,0-19.8-6.9-22.8-17
	C40.1,76.1,40,76,40,75.8c-2.5-3.7-4.1-7.9-4.8-12.2c-3.3,0.5-6.6-0.6-8.9-3c-4-4-4-5-4-5s0.9-3,8.9-3c4.2,0,8.3,0.8,12.2,2.3
	c1.5,0.6,3.1,1.2,4.7,1.7c6,1,17.9-1,17.9-1c-5.4-1-10.5-4.3-14.8-7.8l-0.3-0.2c-4.3-3.5-7.8-6.9-9.7-7.9c-0.4-0.2-0.9-0.4-1.3-0.5
	c-3.8-1.1-8.7,0.4-9.6-0.5S30,26.6,30.3,23l0,0c-4,3.2-7.6,7-10.6,11.2c-6.2,8.4-9.9,18.3-11,28.7c1.9,20.8,16,38.4,35.9,44.8
	c25.7,11.6,55.9,0.1,67.5-25.6C118.4,67.9,118,51.8,111.1,38.1z M15.7,49.8c0.8-3.5,1.9-6.8,3.4-10.1C17.6,43,16.4,46.4,15.7,49.8z"
	/>
</svg>
