<svg id="图层_1" data-name="图层 1" xmlns="http://www.w3.org/2000/svg" xmlns:xlink="http://www.w3.org/1999/xlink" viewBox="0 0 128 128"><defs><style>.cls-1{fill:url(#未命名的渐变_215);}.cls-2{fill:url(#未命名的渐变_183);}.cls-3{fill:url(#未命名的渐变_211);}.cls-4,.cls-8{fill:#a67c52;}.cls-4,.cls-5,.cls-6{opacity:0.35;}.cls-5{fill:url(#未命名的渐变_59);}.cls-6{fill:url(#未命名的渐变_59-2);}.cls-7{fill:none;}.cls-9{fill:url(#未命名的渐变_183-2);}.cls-10{fill:url(#未命名的渐变_230);}.cls-11{fill:url(#未命名的渐变_224);}.cls-12{fill:url(#未命名的渐变_192);}</style><linearGradient id="未命名的渐变_215" x1="85.54" y1="103.12" x2="85.54" y2="5" gradientUnits="userSpaceOnUse"><stop offset="0" stop-color="#fe4721"/><stop offset="0.63" stop-color="#ffd902"/></linearGradient><linearGradient id="未命名的渐变_183" x1="36.26" y1="45.33" x2="36.26" y2="27.81" gradientUnits="userSpaceOnUse"><stop offset="0.19" stop-color="#fe4721"/><stop offset="0.8" stop-color="#ffd902"/></linearGradient><radialGradient id="未命名的渐变_211" cx="63.01" cy="65.49" fx="54.66816282465358" fy="84.6751717250809" r="27.56" gradientUnits="userSpaceOnUse"><stop offset="0" stop-color="#5e24ea"/><stop offset="0.13" stop-color="#6423ea"/><stop offset="0.29" stop-color="#731fec"/><stop offset="0.47" stop-color="#8d18ee"/><stop offset="0.67" stop-color="#b20ff1"/><stop offset="0.87" stop-color="#e004f4"/><stop offset="0.9" stop-color="#e602f5"/></radialGradient><radialGradient id="未命名的渐变_59" cx="91.36" cy="205.93" fx="26.138975578807234" fy="311.3638088599862" r="227.32" gradientUnits="userSpaceOnUse"><stop offset="0.2" stop-color="#5e24ea"/><stop offset="0.75" stop-color="#d805f4"/><stop offset="0.93" stop-color="#e602f5"/></radialGradient><radialGradient id="未命名的渐变_59-2" cx="77.48" cy="202.95" fx="12.256622637580236" fy="308.3890189441994" r="227.32" xlink:href="#未命名的渐变_59"/><linearGradient id="未命名的渐变_183-2" x1="68.69" y1="95.53" x2="92.99" y2="53.46" xlink:href="#未命名的渐变_183"/><linearGradient id="未命名的渐变_230" x1="44.17" y1="75.72" x2="44.17" y2="52.6" gradientUnits="userSpaceOnUse"><stop offset="0.04" stop-color="#fe5a1d"/><stop offset="0.87" stop-color="#fda501"/></linearGradient><linearGradient id="未命名的渐变_224" x1="8.47" y1="80.53" x2="119.53" y2="80.53" gradientUnits="userSpaceOnUse"><stop offset="0.01" stop-color="#fe3a24"/><stop offset="0.2" stop-color="#fa0849"/><stop offset="0.68" stop-color="#fe0071"/><stop offset="1" stop-color="#fce725"/></linearGradient><linearGradient id="未命名的渐变_192" x1="38.47" y1="105.42" x2="87.53" y2="20.45" gradientUnits="userSpaceOnUse"><stop offset="0.09" stop-color="#fe152c"/><stop offset="0.77" stop-color="#ffcf04"/></linearGradient></defs><title>firefox128</title><path class="cls-1" d="M80.86,5s2,7.93,9.91,15.87,19.84,18.84,19.84,41.64-25.79,49.58-33.72,37.68S42.18,27.81,80.86,5Z"/><path class="cls-2" d="M28.3,39.71s11.9-11.9,14.88-11.9c0,0,0,13.88,1,16.85S28.3,39.71,28.3,39.71Z"/><circle class="cls-3" cx="63.01" cy="65.49" r="27.76"/><path class="cls-4" d="M62.51,93.25a24,24,0,0,1-4.1-.35,34.91,34.91,0,0,0,8.29,1.3c-.72-.32-1.44-.66-2.12-1Q63.56,93.25,62.51,93.25Z"/><path class="cls-5" d="M100.67,71.17A24.29,24.29,0,0,0,76.39,47.64c-.69,0-1.38,0-2.06.09a24.29,24.29,0,0,1-9.75,45.43c.68.38,1.4.72,2.12,1,.42,0,.84,0,1.27,0A34.72,34.72,0,0,0,100.67,71.17Z"/><path class="cls-4" d="M98.64,81.7A45,45,0,0,1,71.8,95.78a24,24,0,0,0,4.59.45A24.3,24.3,0,0,0,98.64,81.7Z"/><path class="cls-6" d="M58.41,92.9a34.66,34.66,0,0,1-14.67-8.52A24.28,24.28,0,0,0,58.41,92.9Z"/><path class="cls-4" d="M43.74,84.38a24.09,24.09,0,0,1-5-10.32,29,29,0,0,0,2,7A35.32,35.32,0,0,0,43.74,84.38Z"/><path class="cls-7" d="M92.55,87.19c-.22.17-.43.33-.65.48C92.12,87.52,92.33,87.36,92.55,87.19Z"/><path class="cls-7" d="M91,88.28l-.58.4Z"/><path class="cls-7" d="M94,86c-.23.19-.46.38-.7.56C93.56,86.42,93.79,86.23,94,86Z"/><path class="cls-7" d="M98.64,81.7c-.41.45-.84.89-1.27,1.32C97.8,82.59,98.23,82.15,98.64,81.7Z"/><path class="cls-7" d="M89.48,89.3l-.49.31Z"/><path class="cls-7" d="M95.47,84.8l-.76.67Z"/><path class="cls-7" d="M96.91,83.46c-.28.27-.56.55-.85.81C96.35,84,96.63,83.73,96.91,83.46Z"/><polygon class="cls-7" points="74.64 95.28 74.64 95.28 74.64 95.28 74.64 95.28"/><path class="cls-7" d="M87.9,90.26l-.34.18Z"/><path class="cls-8" d="M97.37,83l-.46.44Z"/><path class="cls-9" d="M100.67,71.17A24.29,24.29,0,0,0,76.39,47.64c-.69,0-1.38,0-2.06.09a24.29,24.29,0,0,1-9.75,45.43l.07,0c.66.37,1.35.7,2,1a25,25,0,0,0,5.1,1.58c1-.14,1.9-.31,2.84-.5h0a44.67,44.67,0,0,0,12.92-4.84l.34-.18c.37-.21.73-.43,1.09-.65l.49-.31c.33-.2.65-.41,1-.62l.58-.4.87-.61c.22-.15.43-.31.65-.48l.77-.59c.24-.18.47-.37.7-.56l.69-.57.76-.67.59-.53c.29-.26.57-.54.85-.81l.46-.44c.43-.43.86-.87,1.27-1.32a24.28,24.28,0,0,0,2-9.77C100.69,71.68,100.68,71.42,100.67,71.17Z"/><path class="cls-8" d="M96.06,84.27l-.59.53Z"/><path class="cls-8" d="M94.71,85.47,94,86Z"/><path class="cls-8" d="M91.9,87.67l-.87.61Z"/><path class="cls-8" d="M90.45,88.68c-.32.21-.64.42-1,.62C89.81,89.1,90.13,88.89,90.45,88.68Z"/><path class="cls-8" d="M93.32,86.6l-.77.59Z"/><path class="cls-8" d="M89,89.61c-.36.22-.72.44-1.09.65C88.27,90.05,88.63,89.83,89,89.61Z"/><path class="cls-8" d="M87.56,90.44a44.67,44.67,0,0,1-12.92,4.84A44.67,44.67,0,0,0,87.56,90.44Z"/><path class="cls-10" d="M48.13,56.56a43.91,43.91,0,0,1-4.66-1.68A34.58,34.58,0,0,0,31.28,52.6c-8,0-8.93,3-8.93,3s0,1,4,5a10.49,10.49,0,0,0,8.92,3A30.5,30.5,0,0,0,40,75.72a8.79,8.79,0,0,1-.74-4.28,6.32,6.32,0,0,1,.11-.76c.81-4.71,5-6.8,9.17-7.69a33.44,33.44,0,0,1,8-.58,4,4,0,0,0,2.79-1L66,55.57S54.08,57.55,48.13,56.56Z"/><path class="cls-4" d="M107.26,68.15c.12-.27.22-.55.33-.82C107.48,67.6,107.38,67.88,107.26,68.15Z"/><path class="cls-4" d="M108.68,64.15c.1-.33.19-.65.28-1C108.87,63.5,108.78,63.82,108.68,64.15Z"/><path class="cls-4" d="M108,66.17c.1-.29.2-.6.3-.9C108.22,65.57,108.12,65.88,108,66.17Z"/><path class="cls-4" d="M109.26,62.07l.24-1Z"/><path class="cls-4" d="M110.11,57.8c.06-.42.11-.84.16-1.26C110.22,57,110.17,57.38,110.11,57.8Z"/><path class="cls-4" d="M109.73,60c.08-.37.14-.76.21-1.14C109.87,59.19,109.81,59.58,109.73,60Z"/><path class="cls-4" d="M102.29,77.19l.3-.42Z"/><path class="cls-4" d="M110.38,55.6c.05-.48.08-1,.11-1.45C110.46,54.64,110.43,55.12,110.38,55.6Z"/><path class="cls-4" d="M106.42,70.08c.12-.25.23-.5.34-.75C106.65,69.58,106.54,69.83,106.42,70.08Z"/><path class="cls-4" d="M101.1,78.8l.25-.32Z"/><path class="cls-4" d="M103.43,75.51l.33-.51Z"/><path class="cls-4" d="M105.5,72l.35-.67Z"/><path class="cls-4" d="M104.5,73.76l.34-.59Z"/><path class="cls-4" d="M99.87,80.31l.16-.18Z"/><path class="cls-4" d="M14.55,57.6c0-.63.09-1.26.15-1.88C14.64,56.34,14.59,57,14.55,57.6Z"/><path class="cls-4" d="M14.42,61c0-.9,0-1.78.07-2.66C14.45,59.25,14.42,60.13,14.42,61Z"/><path class="cls-4" d="M15.67,49.82a50.57,50.57,0,0,1,3.4-10.07A49.94,49.94,0,0,0,15.67,49.82Z"/><path class="cls-4" d="M15.17,52.32c.12-.68.25-1.36.4-2C15.42,51,15.29,51.64,15.17,52.32Z"/><path class="cls-4" d="M14.8,54.89c.07-.62.16-1.23.25-1.84C15,53.66,14.87,54.27,14.8,54.89Z"/><path class="cls-4" d="M110.55,53.37c0-.75.06-1.5.06-2.26C110.61,51.87,110.58,52.62,110.55,53.37Z"/><path class="cls-8" d="M110.49,54.15l.06-.78Z"/><path class="cls-8" d="M103.76,75c.25-.41.5-.82.74-1.24C104.26,74.18,104,74.59,103.76,75Z"/><path class="cls-8" d="M105.85,71.28c.19-.4.39-.8.57-1.2C106.24,70.48,106,70.88,105.85,71.28Z"/><path class="cls-8" d="M101.35,78.48c.32-.42.63-.86.94-1.29C102,77.62,101.67,78.06,101.35,78.48Z"/><path class="cls-8" d="M100,80.13c.36-.44.72-.88,1.07-1.33C100.75,79.25,100.39,79.69,100,80.13Z"/><path class="cls-8" d="M102.59,76.77c.29-.41.56-.84.84-1.26C103.15,75.93,102.88,76.36,102.59,76.77Z"/><path class="cls-8" d="M104.84,73.17c.23-.41.45-.81.66-1.22C105.29,72.36,105.07,72.76,104.84,73.17Z"/><path class="cls-8" d="M109,63.17l.3-1.1Z"/><path class="cls-8" d="M109.5,61c.08-.35.16-.71.23-1.07C109.66,60.31,109.58,60.67,109.5,61Z"/><path class="cls-8" d="M108.32,65.27c.13-.37.25-.74.36-1.12C108.57,64.53,108.45,64.9,108.32,65.27Z"/><path class="cls-8" d="M109.94,58.81c0-.34.12-.67.17-1C110.06,58.14,110,58.47,109.94,58.81Z"/><path class="cls-8" d="M110.27,56.54c0-.31.08-.62.11-.94C110.35,55.92,110.31,56.23,110.27,56.54Z"/><path class="cls-8" d="M107.59,67.33c.15-.39.29-.77.43-1.16C107.88,66.56,107.74,67,107.59,67.33Z"/><path class="cls-8" d="M106.76,69.33c.17-.39.34-.78.5-1.18C107.1,68.55,106.93,68.94,106.76,69.33Z"/><path class="cls-11" d="M111.1,38.07A51.06,51.06,0,0,1,44.55,107.6,52.09,52.09,0,0,1,8.69,62.75c-.14,1.56-.22,3.14-.22,4.72A55.53,55.53,0,1,0,111.1,38.07Z"/><path class="cls-8" d="M14.49,58.37l.06-.77Z"/><path class="cls-8" d="M15.57,50.29c0-.16.06-.32.1-.47C15.63,50,15.6,50.13,15.57,50.29Z"/><path class="cls-8" d="M14.7,55.72c0-.28.07-.55.1-.83C14.77,55.17,14.73,55.44,14.7,55.72Z"/><path class="cls-8" d="M15.05,53.05l.12-.73Z"/><path class="cls-12" d="M111.1,38.07a55.06,55.06,0,0,0-5.2-7,44.8,44.8,0,0,1,4.71,20.05c0,.76,0,1.51-.06,2.26l-.06.78c0,.49-.06,1-.11,1.45,0,.32-.07.63-.11.94s-.1.84-.16,1.26-.12.67-.17,1-.13.77-.21,1.14-.15.72-.23,1.07l-.24,1-.3,1.1c-.09.33-.18.65-.28,1s-.23.75-.36,1.12-.2.61-.3.9-.28.77-.43,1.16-.21.55-.33.82-.33.79-.5,1.18-.22.5-.34.75c-.18.4-.38.8-.57,1.2l-.35.67c-.21.41-.43.81-.66,1.22l-.34.59c-.24.42-.49.83-.74,1.24l-.33.51c-.28.42-.55.85-.84,1.26l-.3.42c-.31.43-.62.87-.94,1.29l-.25.32c-.35.45-.71.89-1.07,1.33l-.16.18c-.49.58-1,1.14-1.52,1.69l-.27.28c-.43.45-.86.89-1.31,1.32L96.4,84c-.45.43-.92.84-1.39,1.25l-.29.26c-.5.43-1,.85-1.54,1.25l-.53.41-1.24.9-.38.26-.42.29c-.41.28-.83.55-1.25.81l-.37.23-.67.4-.81.46c-.45.26-.91.5-1.37.74l-.23.12a44.87,44.87,0,0,1-11.27,4h0c-.82.16-1.64.31-2.46.44l-.4,0A24.16,24.16,0,0,1,66.7,94.2c-.7-.31-1.39-.64-2-1-.55,0-1.09.06-1.64.06a23.81,23.81,0,0,1-22.82-17c-.08-.17-.17-.34-.24-.51A30.5,30.5,0,0,1,35.24,63.5a10.49,10.49,0,0,1-8.92-3c-4-4-4-5-4-5s.93-3,8.93-3a34.58,34.58,0,0,1,12.19,2.28,43.91,43.91,0,0,0,4.66,1.68c5.95,1,17.85-1,17.85-1-5.36-1-10.49-4.35-14.78-7.76l-.27-.21c-4.31-3.46-7.76-6.91-9.74-7.89a7,7,0,0,0-1.34-.51c-3.85-1.08-8.68.4-9.56-.49S30,26.52,30.22,22.93v0A57.66,57.66,0,0,0,19.66,34.08a58.57,58.57,0,0,0-11,28.67A52.09,52.09,0,0,0,44.55,107.6,51.06,51.06,0,0,0,111.1,38.07ZM15.67,49.82a49.94,49.94,0,0,1,3.4-10.07A50.57,50.57,0,0,0,15.67,49.82Z"/></svg>