<?xml version="1.0" encoding="utf-8"?>
<!-- Generator: Adobe Illustrator 24.0.0, SVG Export Plug-In . SVG Version: 6.00 Build 0)  -->
<svg version="1.1" id="图层_1" xmlns="http://www.w3.org/2000/svg" xmlns:xlink="http://www.w3.org/1999/xlink" x="0px" y="0px"
	 viewBox="0 0 128 128" enable-background="new 0 0 128 128" xml:space="preserve">
<title>fldigi-112</title>
<ellipse fill="#686868" cx="63.3" cy="105.2" rx="49.1" ry="8.8"/>
<path fill="#33A913" d="M64.1,25.2c0.8,0.8,1.9,2,3.4,3.4c1,1,2.3,2.1,5.6,5c5,4.4,5.1,4.3,5.6,5c1.6,2.3,1.9,4.7,2.3,7.8
	c0.2,1.4,0.1,1.2,0.2,8.4c0.1,4.6,0.1,5.4-0.4,6.8c-0.8,2-2,3.8-3.8,5.1c-2.6,2.1-5.3,2.4-8.1,2.8c-1.3,0.2-2.5,0.3-3.8,0.3
	c-2.3,0-4.6-0.4-6.8-1.2c-2-0.7-3.9-1.8-5.6-3.2c-1.8-1.4-3.2-3.2-4.1-5.3c-0.4-0.9-0.9-2.5-0.4-9.1c0.5-5.4,0.7-8,1.6-10.1
	c1.4-2.9,3.4-5.6,5.9-7.7c1.7-1.2,3.3-2.5,4.8-3.9C61.9,28,63.1,26.7,64.1,25.2 M63.1,14l-4.9,7.2c-0.7,1.1-1.6,2.1-2.5,3
	c-0.7,0.7-1.5,1.3-2.3,1.9c-0.6,0.4-1.3,0.9-2.1,1.6c-3.3,2.8-6,6.3-7.9,10.3c-1.4,3.2-1.7,6.5-2.2,12.5c-0.6,7.1-0.1,10,0.9,12.4
	c1.4,3.1,3.4,5.8,6,8c2.3,1.9,4.9,3.4,7.7,4.5c3,1.1,6.1,1.6,9.2,1.6c1.6,0,3.2-0.1,4.8-0.4c3.1-0.4,7.4-1,11.5-4.3
	c2.7-2.2,4.8-5.1,6-8.4c0.9-2.5,0.8-4.1,0.8-8.1v-1.1c0-2.8,0-4.5,0-5.5c0-1.2,0-2.5-0.2-3.7c-0.5-3.5-1-7.1-3.5-10.8
	c-0.9-1.3-2-2.4-3.3-3.4l-3.5-3c-3.3-2.9-4.5-4-5.3-4.8c-1.1-1-2.2-2.1-3.2-3.2L63.1,14L63.1,14z"/>
<linearGradient id="SVGID_1_" gradientUnits="userSpaceOnUse" x1="64.6992" y1="-6.8" x2="64.6992" y2="37.8" gradientTransform="matrix(1 0 0 1 0 32)">
	<stop  offset="0" style="stop-color:#FFFFFF"/>
	<stop  offset="4.000000e-02" style="stop-color:#F0FEEC"/>
	<stop  offset="0.19" style="stop-color:#C6FDB5"/>
	<stop  offset="0.33" style="stop-color:#A2FB86"/>
	<stop  offset="0.47" style="stop-color:#84FA5F"/>
	<stop  offset="0.61" style="stop-color:#6DF941"/>
	<stop  offset="0.74" style="stop-color:#5CF92B"/>
	<stop  offset="0.87" style="stop-color:#52F81E"/>
	<stop  offset="0.99" style="stop-color:#4FF81A"/>
</linearGradient>
<path fill="url(#SVGID_1_)" d="M64.1,25.2c-1,1.5-2.1,2.8-3.4,4.1c-1.5,1.4-3.1,2.7-4.8,3.9c-2.5,2.1-4.5,4.7-5.9,7.7
	c-1,2.1-1.2,4.8-1.7,10.1c-0.5,6.6,0,8.2,0.4,9.1c0.9,2.1,2.3,3.9,4.1,5.3c1.7,1.4,3.5,2.5,5.6,3.2c3.4,1.2,7,1.5,10.6,0.9
	c2.8-0.4,5.5-0.8,8.1-2.8c1.7-1.3,3-3.1,3.8-5.2c0.5-1.4,0.4-2.2,0.4-6.8c-0.1-7.2,0-6.9-0.2-8.4c-0.4-3.2-0.8-5.5-2.3-7.8
	c-0.5-0.7-0.5-0.6-5.6-5c-3.3-2.8-4.5-4-5.6-5C66,27.2,64.8,26,64.1,25.2z"/>
<path fill="#33A913" d="M97.1,34.3c1.5,5.1,2.3,10.4,2.4,15.8c0.2,2.8-0.1,5.7-0.7,8.4c-1.1,4.4-3.1,7.1-7.1,12.6
	c-3,4.1-4.6,6.2-7.1,7.5c-1.8,0.9-3.9,1.1-8,1.4c-2.6,0.2-4.9,0.4-7.5,0.4c-1.8,0-3.5-0.1-5.3-0.3c-3.5-0.3-7-1.1-10.3-2.4
	c-2.3-1-4.6-2.2-6.6-3.7c2.1-0.5,4.1-1.1,6.2-1.8c3.5-1.3,6.9-2.9,10.1-4.9c3-1.6,5.8-3.4,8.5-5.3c2.3-1.7,4.5-3.6,6.6-5.6
	c2.3-2.1,4.4-4.2,6.5-6.5c1.2-1.2,2.2-2.5,7.6-9.6C94.4,37.9,96,35.8,97.1,34.3 M99.9,18.9L91.4,30c-1.5,2-3,4-4.6,6
	c-5.3,6.9-6.3,8.1-7.3,9.2c-2.6,2.9-4.8,4.9-6,6c-1.9,1.8-3.9,3.5-6,5.1c-2.5,1.8-5.1,3.4-7.7,4.8c-2.9,1.7-5.9,3.2-9.1,4.4
	c-1.7,0.6-3.5,1.1-5.3,1.5L30,70.6l12.8,9.3c2.5,1.8,5.2,3.3,8.1,4.5c3.9,1.5,7.9,2.5,12.1,2.8c2,0.2,4.1,0.4,6.1,0.3
	c2.8,0,5.4-0.2,8.1-0.4c4.6-0.4,7.6-0.7,10.6-2.1c4.1-2,6.5-5.2,9.7-9.7c4.2-5.8,6.8-9.3,8.2-15c0.8-3.4,1.1-6.9,1-10.3
	c-0.1-6-1-12-2.7-17.7L99.9,18.9L99.9,18.9z"/>
<linearGradient id="SVGID_2_" gradientUnits="userSpaceOnUse" x1="146.3291" y1="2.3" x2="146.3291" y2="48.3795" gradientTransform="matrix(-1 0 0 1 219.56 32)">
	<stop  offset="0" style="stop-color:#FFFFFF"/>
	<stop  offset="4.000000e-02" style="stop-color:#F0FEEC"/>
	<stop  offset="0.19" style="stop-color:#C6FDB5"/>
	<stop  offset="0.33" style="stop-color:#A2FB86"/>
	<stop  offset="0.47" style="stop-color:#84FA5F"/>
	<stop  offset="0.61" style="stop-color:#6DF941"/>
	<stop  offset="0.74" style="stop-color:#5CF92B"/>
	<stop  offset="0.87" style="stop-color:#52F81E"/>
	<stop  offset="0.99" style="stop-color:#4FF81A"/>
</linearGradient>
<path fill="url(#SVGID_2_)" d="M97.1,34.3c-1.1,1.5-2.7,3.6-4.6,6C87,47.5,86,48.8,84.8,50c-2.1,2.3-4.2,4.5-6.5,6.5
	c-2.1,2-4.3,3.9-6.6,5.6c-2.7,2-5.6,3.8-8.5,5.3c-3.2,1.9-6.6,3.6-10.1,4.9c-2,0.7-4.1,1.3-6.2,1.8c2.1,1.5,4.3,2.7,6.6,3.7
	c3.3,1.3,6.7,2.1,10.3,2.4c4.2,0.4,8.5,0.4,12.8-0.1c4.2-0.4,6.3-0.6,8-1.4c2.5-1.2,4.1-3.3,7.1-7.5c4-5.4,6-8.2,7.1-12.6
	c0.6-2.8,0.9-5.6,0.7-8.4C99.4,44.8,98.6,39.5,97.1,34.3z"/>
<path fill="#33A913" d="M32.1,34.3c1.1,1.5,2.7,3.6,4.6,6c5.4,7.1,6.5,8.4,7.6,9.6c2,2.3,4.2,4.5,6.5,6.5c2.1,2,4.3,3.9,6.6,5.6
	c2.7,2,5.6,3.8,8.5,5.4c3.2,1.9,6.6,3.6,10.1,4.9c2,0.7,4.1,1.3,6.2,1.8c-2.1,1.5-4.3,2.7-6.6,3.7c-3.3,1.3-6.7,2.1-10.3,2.4
	c-1.8,0.2-3.5,0.3-5.3,0.3c-2.5,0-4.9-0.2-7.5-0.4c-4.2-0.4-6.3-0.6-8-1.4c-2.5-1.2-4.1-3.3-7.1-7.5c-4-5.4-6-8.2-7.1-12.6
	c-0.6-2.8-0.9-5.6-0.7-8.4C29.8,44.8,30.6,39.5,32.1,34.3 M29.3,18.9l-4,13.4C23.6,38.1,22.7,44,22.6,50c-0.2,3.5,0.1,6.9,0.9,10.3
	c1.5,5.7,4,9.2,8.2,15c3.2,4.5,5.5,7.7,9.7,9.7c3,1.5,6,1.7,10.5,2.1c2.7,0.2,5.2,0.4,8.1,0.4c2,0,4.1-0.1,6.1-0.3
	c4.2-0.4,8.3-1.3,12.2-2.8c2.9-1.2,5.6-2.7,8.1-4.5l12.8-9.3l-15.4-3.5c-1.8-0.4-3.6-0.9-5.3-1.5c-3.2-1.2-6.2-2.7-9.1-4.4
	c-2.7-1.4-5.3-3.1-7.8-4.8c-2.1-1.6-4.1-3.3-6-5.1c-1.2-1.1-3.4-3.2-6-6c-1-1.1-2-2.3-7.3-9.2c-1.5-2-3.1-4-4.6-6L29.3,18.9z"/>
<linearGradient id="SVGID_3_" gradientUnits="userSpaceOnUse" x1="-59.1309" y1="2.3" x2="-59.1309" y2="48.3795" gradientTransform="matrix(1 0 0 1 115 32)">
	<stop  offset="0" style="stop-color:#FFFFFF"/>
	<stop  offset="4.000000e-02" style="stop-color:#F0FEEC"/>
	<stop  offset="0.19" style="stop-color:#C6FDB5"/>
	<stop  offset="0.33" style="stop-color:#A2FB86"/>
	<stop  offset="0.47" style="stop-color:#84FA5F"/>
	<stop  offset="0.61" style="stop-color:#6DF941"/>
	<stop  offset="0.74" style="stop-color:#5CF92B"/>
	<stop  offset="0.87" style="stop-color:#52F81E"/>
	<stop  offset="0.99" style="stop-color:#4FF81A"/>
</linearGradient>
<path fill="url(#SVGID_3_)" d="M32.1,34.3c1.1,1.5,2.7,3.6,4.6,6c5.4,7.1,6.5,8.4,7.6,9.6c2,2.3,4.2,4.5,6.5,6.5
	c2.1,2,4.3,3.9,6.6,5.6c2.7,2,5.6,3.8,8.5,5.4c3.2,1.9,6.6,3.6,10.1,4.9c2,0.7,4.1,1.3,6.2,1.8c-2.1,1.5-4.3,2.7-6.6,3.7
	c-3.3,1.3-6.7,2.1-10.3,2.4c-4.2,0.4-8.5,0.4-12.8-0.1c-4.2-0.4-6.3-0.6-8-1.4c-2.5-1.2-4.1-3.3-7.1-7.5c-4-5.4-6-8.2-7.1-12.6
	c-0.6-2.8-0.9-5.6-0.7-8.4C29.8,44.8,30.6,39.5,32.1,34.3z"/>
<ellipse fill="#989900" cx="64.3" cy="71.7" rx="33.7" ry="33.9"/>
<ellipse fill="#FEFE00" cx="64.3" cy="71.7" rx="26.1" ry="26.2"/>
<path fill="#33A913" d="M18,53.9c1.1,1.5,2.7,3.6,4.6,6c5.4,7.1,6.5,8.4,7.6,9.6c2.1,2.3,4.2,4.5,6.5,6.5c2.1,2,4.3,3.8,6.6,5.6
	c2.7,2,5.6,3.8,8.5,5.3c3.2,1.9,6.6,3.6,10.2,4.9c2,0.7,4.1,1.3,6.1,1.8c-2.1,1.5-4.3,2.7-6.6,3.7c-3.3,1.3-6.7,2.1-10.3,2.4
	c-1.7,0.2-3.5,0.3-5.3,0.3c-2.5,0-4.9-0.2-7.5-0.4c-4.2-0.4-6.3-0.6-8-1.4c-2.5-1.2-4.1-3.3-7.1-7.5c-4-5.5-6-8.2-7.1-12.6
	c-0.6-2.8-0.9-5.6-0.7-8.4C15.7,64.3,16.5,59,18,53.9 M15.2,38.5l-4,13.4c-1.7,5.8-2.6,11.7-2.7,17.7c-0.2,3.5,0.1,6.9,0.9,10.3
	c1.5,5.7,4,9.2,8.2,15c3.2,4.4,5.6,7.6,9.7,9.7c3,1.5,6,1.7,10.6,2.1c2.7,0.2,5.2,0.4,8.1,0.4c2,0,4.1-0.1,6.1-0.3
	c4.2-0.3,8.3-1.3,12.2-2.8c2.9-1.2,5.6-2.7,8.1-4.5l12.8-9.3l-15.4-3.4c-1.8-0.4-3.6-0.9-5.3-1.5c-3.2-1.2-6.2-2.6-9.1-4.4
	c-2.7-1.4-5.3-3.1-7.8-4.8c-2.1-1.6-4.1-3.3-6-5.1c-1.2-1.1-3.4-3.2-6-6c-1-1.1-2-2.3-7.3-9.2l-4.6-6L15.2,38.5z"/>
<linearGradient id="SVGID_4_" gradientUnits="userSpaceOnUse" x1="41.7691" y1="21.9" x2="41.7691" y2="67.9885" gradientTransform="matrix(1 0 0 1 0 32)">
	<stop  offset="0" style="stop-color:#FFFFFF"/>
	<stop  offset="4.000000e-02" style="stop-color:#F0FEEC"/>
	<stop  offset="0.19" style="stop-color:#C6FDB5"/>
	<stop  offset="0.33" style="stop-color:#A2FB86"/>
	<stop  offset="0.47" style="stop-color:#84FA5F"/>
	<stop  offset="0.61" style="stop-color:#6DF941"/>
	<stop  offset="0.74" style="stop-color:#5CF92B"/>
	<stop  offset="0.87" style="stop-color:#52F81E"/>
	<stop  offset="0.99" style="stop-color:#4FF81A"/>
</linearGradient>
<path fill="url(#SVGID_4_)" d="M18,53.9c1.1,1.5,2.7,3.6,4.6,6c5.4,7.1,6.5,8.4,7.6,9.6c2.1,2.3,4.2,4.5,6.5,6.5
	c2.1,2,4.3,3.8,6.6,5.6c2.7,2,5.6,3.8,8.5,5.3c3.2,1.9,6.6,3.6,10.2,4.9c2,0.7,4.1,1.3,6.1,1.8c-2.1,1.5-4.3,2.7-6.6,3.7
	c-3.3,1.3-6.7,2.1-10.3,2.4c-4.2,0.4-8.5,0.4-12.8-0.1c-4.2-0.4-6.3-0.6-8-1.4c-2.5-1.2-4.1-3.3-7.1-7.5c-4-5.5-6-8.2-7.1-12.6
	c-0.6-2.8-0.9-5.6-0.7-8.4C15.7,64.3,16.5,59,18,53.9z"/>
<path fill="#33A913" d="M110,53.9c1.5,5.1,2.4,10.4,2.4,15.8c0.2,2.8-0.1,5.7-0.7,8.4c-1.1,4.4-3.1,7.1-7.1,12.6
	c-3,4.1-4.6,6.2-7.1,7.5c-1.8,0.9-3.9,1.1-8,1.4c-2.6,0.2-4.9,0.4-7.5,0.4c-1.8,0-3.5-0.1-5.3-0.3c-3.5-0.3-7-1.1-10.3-2.4
	c-2.3-1-4.6-2.2-6.6-3.7c2.1-0.5,4.1-1.1,6.1-1.8c3.5-1.3,6.9-2.9,10.2-4.9c3-1.6,5.8-3.4,8.5-5.3c2.3-1.7,4.5-3.6,6.6-5.6
	c2.3-2.1,4.4-4.2,6.5-6.5c1.1-1.2,2.2-2.5,7.6-9.6C107.3,57.5,108.9,55.4,110,53.9 M112.8,38.4l-8.4,11.2l-4.6,6
	c-5.3,6.9-6.3,8.1-7.3,9.2c-2.6,2.9-4.8,4.9-6,6c-1.9,1.8-3.9,3.5-6,5.1c-2.5,1.8-5.1,3.4-7.8,4.8c-2.9,1.7-5.9,3.2-9.1,4.4
	c-1.7,0.6-3.5,1.1-5.3,1.5l-15.5,3.5l12.8,9.3c2.5,1.8,5.2,3.3,8.1,4.5c3.9,1.5,8,2.5,12.2,2.8c2,0.2,4.1,0.4,6.1,0.3
	c2.8,0,5.4-0.2,8.1-0.4c4.6-0.4,7.6-0.7,10.6-2.1c4.1-2,6.4-5.2,9.7-9.7c4.2-5.8,6.8-9.3,8.2-15c0.8-3.4,1.1-6.8,0.9-10.3
	c-0.1-6-1-12-2.7-17.7L112.8,38.4L112.8,38.4z"/>
<linearGradient id="SVGID_5_" gradientUnits="userSpaceOnUse" x1="133.3291" y1="21.9" x2="133.3291" y2="67.9885" gradientTransform="matrix(-1 0 0 1 219.56 32)">
	<stop  offset="0" style="stop-color:#FFFFFF"/>
	<stop  offset="4.000000e-02" style="stop-color:#F0FEEC"/>
	<stop  offset="0.19" style="stop-color:#C6FDB5"/>
	<stop  offset="0.33" style="stop-color:#A2FB86"/>
	<stop  offset="0.47" style="stop-color:#84FA5F"/>
	<stop  offset="0.61" style="stop-color:#6DF941"/>
	<stop  offset="0.74" style="stop-color:#5CF92B"/>
	<stop  offset="0.87" style="stop-color:#52F81E"/>
	<stop  offset="0.99" style="stop-color:#4FF81A"/>
</linearGradient>
<path fill="url(#SVGID_5_)" d="M110,53.9c-1.1,1.5-2.7,3.6-4.6,6c-5.4,7.1-6.5,8.4-7.6,9.6c-2.1,2.3-4.2,4.5-6.5,6.5
	c-2.1,2-4.3,3.8-6.6,5.6c-2.7,2-5.6,3.8-8.5,5.3c-3.2,1.9-6.6,3.6-10.2,4.9c-2,0.7-4.1,1.3-6.1,1.8c2.1,1.5,4.3,2.7,6.6,3.7
	c3.3,1.3,6.7,2.1,10.3,2.4c4.2,0.4,8.5,0.4,12.8-0.1c4.2-0.4,6.3-0.6,8-1.4c2.5-1.2,4.1-3.3,7.1-7.5c4-5.5,6-8.2,7.1-12.6
	c0.6-2.8,0.9-5.6,0.7-8.4C112.3,64.3,111.5,59,110,53.9z"/>
<path fill="#33A913" d="M63.7,61.9c0.8,0.8,1.9,2,3.4,3.4c1,1,2.3,2.1,5.6,5c5.1,4.4,5.1,4.3,5.6,5c1.6,2.3,1.9,4.7,2.3,7.8
	c0.2,1.4,0.1,1.2,0.2,8.4c0.1,4.6,0.1,5.4-0.4,6.8c-0.7,2-2,3.8-3.8,5.2c-2.6,2.1-5.3,2.4-8.1,2.8c-1.3,0.2-2.5,0.3-3.8,0.3
	c-2.3,0-4.6-0.4-6.8-1.2c-2-0.7-3.9-1.8-5.6-3.2c-1.8-1.4-3.2-3.3-4.1-5.3c-0.4-0.9-0.9-2.5-0.4-9.1c0.5-5.4,0.7-8,1.6-10.1
	c1.4-2.9,3.4-5.6,5.9-7.7c1.7-1.2,3.3-2.5,4.8-4C61.6,64.7,62.7,63.4,63.7,61.9 M62.7,50.7l-4.9,7.2c-0.7,1.1-1.6,2.1-2.5,3
	c-0.7,0.7-1.5,1.3-2.3,1.9c-0.6,0.4-1.3,0.9-2.1,1.6c-3.3,2.8-6,6.3-7.8,10.2c-1.4,3.2-1.7,6.5-2.2,12.5c-0.6,7.1-0.1,10,0.9,12.4
	c1.3,3.1,3.4,5.8,6,8c2.3,2,5,3.5,7.8,4.5c3,1.1,6.1,1.6,9.2,1.6c1.6,0,3.2-0.1,4.8-0.4c3.1-0.4,7.4-1,11.5-4.3
	c2.7-2.2,4.8-5.1,6-8.4c0.9-2.5,0.8-4.1,0.8-8.1v-1.1c0-2.8,0-4.4-0.1-5.5c0-1.2,0-2.5-0.2-3.7c-0.5-3.5-1-7.1-3.5-10.8
	c-0.9-1.3-2-2.4-3.3-3.3c-0.7-0.6-1.9-1.6-3.5-3c-3.3-3-4.4-4-5.3-4.9c-1.1-1-2.2-2.1-3.2-3.2L62.7,50.7L62.7,50.7z"/>
<linearGradient id="SVGID_6_" gradientUnits="userSpaceOnUse" x1="64.3992" y1="29.9" x2="64.3992" y2="74.5" gradientTransform="matrix(1 0 0 1 0 32)">
	<stop  offset="0" style="stop-color:#FFFFFF"/>
	<stop  offset="4.000000e-02" style="stop-color:#F0FEEC"/>
	<stop  offset="0.19" style="stop-color:#C6FDB5"/>
	<stop  offset="0.33" style="stop-color:#A2FB86"/>
	<stop  offset="0.47" style="stop-color:#84FA5F"/>
	<stop  offset="0.61" style="stop-color:#6DF941"/>
	<stop  offset="0.74" style="stop-color:#5CF92B"/>
	<stop  offset="0.87" style="stop-color:#52F81E"/>
	<stop  offset="0.99" style="stop-color:#4FF81A"/>
</linearGradient>
<path fill="url(#SVGID_6_)" d="M63.7,61.9c-1,1.5-2.1,2.8-3.4,4.1c-1.5,1.4-3.1,2.7-4.8,3.9C53,72,51,74.6,49.6,77.6
	c-0.9,2.1-1.2,4.8-1.6,10.1c-0.5,6.6,0,8.2,0.4,9.1c0.9,2.1,2.3,3.9,4.1,5.3c1.7,1.4,3.5,2.5,5.6,3.2c3.4,1.2,7,1.5,10.6,0.9
	c2.8-0.4,5.5-0.8,8.1-2.8c1.7-1.3,3-3.1,3.8-5.2c0.5-1.4,0.4-2.2,0.4-6.8c-0.1-7.2,0-6.9-0.2-8.4c-0.4-3.2-0.8-5.5-2.3-7.8
	c-0.5-0.7-0.5-0.6-5.6-5c-3.3-2.8-4.5-4-5.6-5C65.7,63.9,64.5,62.7,63.7,61.9z"/>
</svg>
