<?xml version="1.0" encoding="utf-8"?>
<!-- Generator: Adobe Illustrator 24.0.0, SVG Export Plug-In . SVG Version: 6.00 Build 0)  -->
<svg version="1.1" id="fluxgui" xmlns="http://www.w3.org/2000/svg" xmlns:xlink="http://www.w3.org/1999/xlink" x="0px" y="0px"
	 viewBox="0 0 128 128" style="enable-background:new 0 0 128 128;" xml:space="preserve">
<linearGradient id="SVGID_1_" gradientUnits="userSpaceOnUse" x1="64" y1="-14.73" x2="64" y2="-128.78" gradientTransform="matrix(1 0 0 1 0 136)">
	<stop  offset="0" style="stop-color:#FF8A65"/>
	<stop  offset="1" style="stop-color:#FFEF61"/>
</linearGradient>
<circle style="fill:url(#SVGID_1_);" cx="64" cy="64" r="59"/>
<g>
	<path style="opacity:0.2;fill:#FFFFFF;enable-background:new    ;" d="M80,87c-14.9,0-27-12.1-27-27s12.1-27,27-27s27,12.1,27,27
		S94.9,87,80,87L80,87z"/>
	
		<linearGradient id="SVGID_2_" gradientUnits="userSpaceOnUse" x1="95.1421" y1="609.1818" x2="63.3421" y2="644.5018" gradientTransform="matrix(1 0 0 1 0 -566)">
		<stop  offset="0" style="stop-color:#ED8A48"/>
		<stop  offset="1" style="stop-color:#FFA466"/>
	</linearGradient>
	<path style="fill:url(#SVGID_2_);" d="M102,60c0,12.2-9.8,22-22,22s-22-9.8-22-22s9.8-22,22-22S102,47.8,102,60"/>
	<linearGradient id="SVGID_3_" gradientUnits="userSpaceOnUse" x1="62.2099" y1="54.7951" x2="55.9283" y2="122.5084">
		<stop  offset="0" style="stop-color:#70A3D5"/>
		<stop  offset="1" style="stop-color:#5A85B2"/>
	</linearGradient>
	<path style="fill:url(#SVGID_3_);" d="M5.4,70.7C8.7,100.1,33.7,123,64,123c20.9,0,39.3-10.9,49.8-27.3
		C89.9,74.4,57,52.7,40.6,52.9C28.2,53,15.8,60.3,5.4,70.7z"/>
</g>
</svg>
