<?xml version="1.0" encoding="utf-8"?>
<!-- Generator: Adobe Illustrator 24.0.0, SVG Export Plug-In . SVG Version: 6.00 Build 0)  -->
<svg version="1.1" id="福昕" xmlns="http://www.w3.org/2000/svg" xmlns:xlink="http://www.w3.org/1999/xlink" x="0px" y="0px"
	 viewBox="0 0 128 128" enable-background="new 0 0 128 128" xml:space="preserve">
<title>128</title>
<g id="_128">
	
		<linearGradient id="SVGID_1_" gradientUnits="userSpaceOnUse" x1="64" y1="-24" x2="64" y2="88" gradientTransform="matrix(1 0 0 1 0 32)">
		<stop  offset="0" style="stop-color:#F68A1E"/>
		<stop  offset="1" style="stop-color:#EA7206"/>
	</linearGradient>
	<path fill="url(#SVGID_1_)" d="M20,8h88c6.6,0,12,5.4,12,12v88c0,6.6-5.4,12-12,12H20c-6.6,0-12-5.4-12-12V20C8,13.4,13.4,8,20,8z"
		/>
	<path fill="#FFFFFF" d="M103.8,54.9c0,0.1,0.1,0.1,0.2,0l0.1-0.1C103.3,50.7,98.2,27,70.2,27c-12.4-0.1-24.3,4.8-33,13.6
		C29.1,49,24,60.7,24,75.5c0,9.7,5.6,18.7,13.9,23.7c7.4,4.5,17.2,5.4,23,5.4c8.8,0,35.2-7.4,35.2-33.3c0-9.1-6-15.6-6-13.5
		s-0.8,9.6-0.8,9.6s-4.9-7.6-6.6-8.4s3.5,19.9-19.4,16.8c-3.2-0.4,7,10.4,16.7,9c3-0.4-6.6,6.5-15.9,5.8S47,82.6,47,71.2
		S58.4,46,74.4,46c10,0,13.6,4.6,15.5,6.5c0.5,0.5,1.4-8.6-16.3-15.6c0,0,10.2-0.6,17.3,4C98.3,45.7,102,52.1,103.8,54.9z"/>
</g>
</svg>
