<svg id="图层_1" data-name="图层 1" xmlns="http://www.w3.org/2000/svg" xmlns:xlink="http://www.w3.org/1999/xlink" viewBox="0 0 128 128"><defs><style>.cls-1{fill:#fff176;}.cls-2{fill:url(#未命名的渐变_40);}.cls-3{fill:url(#未命名的渐变_40-2);}.cls-4{fill:url(#未命名的渐变_31);}.cls-5{fill:url(#未命名的渐变_40-3);}.cls-6{fill:url(#未命名的渐变_40-4);}.cls-7{fill:#cfd8dc;}.cls-8{fill:#d32f2f;}.cls-9{fill:#e57373;}</style><linearGradient id="未命名的渐变_40" x1="87.75" y1="65.48" x2="120.57" y2="65.48" gradientUnits="userSpaceOnUse"><stop offset="0" stop-color="#f5a816"/><stop offset="0.64" stop-color="#fcc335"/><stop offset="1" stop-color="#ffcd40"/></linearGradient><linearGradient id="未命名的渐变_40-2" x1="62.19" y1="106.44" x2="62.19" y2="89.62" xlink:href="#未命名的渐变_40"/><linearGradient id="未命名的渐变_31" x1="54.09" y1="39.34" x2="54.09" y2="101.21" gradientUnits="userSpaceOnUse"><stop offset="0" stop-color="#f9ce1d"/><stop offset="0.58" stop-color="#fdcd35"/><stop offset="1" stop-color="#ffcd40"/></linearGradient><linearGradient id="未命名的渐变_40-3" x1="61.68" y1="62" x2="61.68" y2="39.92" xlink:href="#未命名的渐变_40"/><linearGradient id="未命名的渐变_40-4" x1="61.68" y1="47.18" x2="61.68" y2="31.21" xlink:href="#未命名的渐变_40"/></defs><title>geany128</title><ellipse class="cls-1" cx="60.44" cy="104.26" rx="48.51" ry="18.74"/><path class="cls-2" d="M108.23,39.05h0c-6.82,0-12.35,6-12.35,13.49l-2,26.71c-15.65,11.31,2.79,12.67,9.61,12.67h0c6.82,0,17.08-4.41,17.08-11.86V52.54C120.57,45.09,115.05,39.05,108.23,39.05Zm8.18,39.87c-1.4,6.64-7,8.09-13.13,9h-.65c-11.35.7-21.39-1.11-6.38-8.68l3.12-23.1c1.06-4.91,2.44-10.32,6.1-11.17,0,0,0,0,0,0l.68-.09c6.14-.52,10.18,2.89,10.26,10.63Z"/><ellipse class="cls-3" cx="62.19" cy="98.03" rx="20.62" ry="8.41"/><path class="cls-4" d="M61.68,39.34c-20.38,0-36.89,5.33-36.89,11.91V68c0,.31,0,.62,0,.93h-.23A3.63,3.63,0,0,1,21,65.55a1.48,1.48,0,0,1,0-.21V53.28c0-.64-2.54-1.16-5.67-1.16s-5.66.52-5.66,1.16V63a5.86,5.86,0,0,0,.29,1.84h0v0A55.11,55.11,0,0,0,77.8,98.81,33.19,33.19,0,0,0,98.57,68V51.25C98.57,44.67,82.05,39.34,61.68,39.34Z"/><ellipse class="cls-5" cx="61.68" cy="50.96" rx="34.19" ry="11.04"/><ellipse class="cls-6" cx="61.68" cy="39.2" rx="7.7" ry="7.99"/><path class="cls-7" d="M29.86,25.11a8.45,8.45,0,0,0-1.67-3.91A10.31,10.31,0,1,0,9.53,16.84a9.92,9.92,0,0,0,1,3A8.43,8.43,0,0,0,12.74,34.1a8.37,8.37,0,0,0-1.85,6.62,8.71,8.71,0,0,0,.71,2.34,7,7,0,1,0,9.69,5.36,6.22,6.22,0,0,0-.15-.75,8.42,8.42,0,0,0,5.66-4.51,8.43,8.43,0,0,0,2.59-7.41A8.34,8.34,0,0,0,27.81,32,8.41,8.41,0,0,0,29.86,25.11Z"/><polygon class="cls-8" points="62.62 91.05 56.13 80.7 62.62 70.35 69.12 80.7 62.62 91.05"/><polygon class="cls-9" points="62.62 86.47 59 80.7 62.62 74.92 66.25 80.7 62.62 86.47"/><polygon class="cls-8" points="36.04 81.17 31.55 74.02 36.04 66.86 40.54 74.02 36.04 81.17"/><polygon class="cls-9" points="36.04 78.01 33.54 74.02 36.04 70.03 38.55 74.02 36.04 78.01"/><polygon class="cls-8" points="89.2 81.17 84.71 74.02 89.2 66.86 93.69 74.02 89.2 81.17"/><polygon class="cls-9" points="89.2 78.01 86.7 74.02 89.2 70.03 91.71 74.02 89.2 78.01"/></svg>