<svg id="图层_1" data-name="图层 1" xmlns="http://www.w3.org/2000/svg" xmlns:xlink="http://www.w3.org/1999/xlink" viewBox="0 0 128 128"><defs><style>.cls-1{fill:#fee8a3;}.cls-2{fill:#f5a816;}.cls-3{fill:#eee;}.cls-4{fill:#e0e0e0;}.cls-5{fill:#9e9e9e;}.cls-6{fill:#b3b3b3;}.cls-7{fill:url(#未命名的渐变_12);}</style><linearGradient id="未命名的渐变_12" x1="8" y1="98.11" x2="120" y2="98.11" gradientUnits="userSpaceOnUse"><stop offset="0" stop-color="#f7931e"/><stop offset="0.51" stop-color="#fbb03b"/><stop offset="1" stop-color="#f7931e"/></linearGradient></defs><title>geary128</title><rect class="cls-1" x="8" y="8" width="112" height="80.44" rx="12.22"/><path class="cls-2" d="M102.18,112.36H25.82a10.17,10.17,0,0,1-10.18-10.18V20.73a5.09,5.09,0,0,1,5.09-5.09h86.54a5.09,5.09,0,0,1,5.09,5.09v81.45A10.17,10.17,0,0,1,102.18,112.36Z"/><rect class="cls-3" x="17.67" y="20.58" width="92.91" height="58.55"/><rect class="cls-4" x="17.16" y="79.02" width="94.18" height="2.55"/><rect class="cls-5" x="17.16" y="81.56" width="94.18" height="2.55"/><rect class="cls-4" x="17.16" y="83.85" width="94.18" height="2.55"/><rect class="cls-5" x="17.16" y="86.4" width="94.18" height="2.55"/><rect class="cls-4" x="17.16" y="88.69" width="94.18" height="2.55"/><rect class="cls-5" x="17.67" y="91.24" width="94.18" height="2.55"/><rect class="cls-4" x="17.67" y="93.53" width="94.18" height="2.55"/><polygon class="cls-6" points="76.87 51.41 99.82 68.44 100.39 68.44 78.69 49.86 76.87 51.41"/><polygon class="cls-6" points="27.86 68.44 28.44 68.44 51.38 51.41 49.57 49.86 27.86 68.44"/><polyline class="cls-6" points="27.86 31.27 49.57 49.86 51.38 51.41 64.13 62.32 76.87 51.41 78.69 49.86 100.39 31.27 100.33 31.27 100.4 31.16 100.4 31.16 64.28 59.34 28.01 31.28"/><path class="cls-1" d="M115.42,80.41v-1.9H92.76v9.93h15A12.22,12.22,0,0,0,120,76.22V70.87A12.21,12.21,0,0,1,115.42,80.41Z"/><path class="cls-1" d="M12.84,80.61A12.19,12.19,0,0,1,8,70.87v5.35A12.22,12.22,0,0,0,20.22,88.44H41.85V78.51h-29Z"/><path class="cls-1" d="M87.67,94.25H47A5.09,5.09,0,0,1,42.2,91h-.35v8.1a5.09,5.09,0,0,0,5.1,5.09H87.67a5.09,5.09,0,0,0,5.09-5.09V91h-.34A5.1,5.1,0,0,1,87.67,94.25Z"/><path class="cls-7" d="M107.78,88.44h-15v8.1a5.09,5.09,0,0,1-5.09,5.09H47a5.09,5.09,0,0,1-5.1-5.09v-8.1H20.22A12.22,12.22,0,0,1,8,76.22v31.56A12.22,12.22,0,0,0,20.22,120h87.56A12.22,12.22,0,0,0,120,107.78V76.22A12.22,12.22,0,0,1,107.78,88.44Z"/></svg>