<svg id="图层_1" data-name="图层 1" xmlns="http://www.w3.org/2000/svg" xmlns:xlink="http://www.w3.org/1999/xlink" viewBox="0 0 128 128"><defs><style>.cls-1{fill:url(#未命名的渐变_37);}.cls-2{fill:url(#未命名的渐变_37-2);}.cls-3{fill:url(#未命名的渐变_37-3);}.cls-4{fill:url(#未命名的渐变_38);}.cls-5{fill:url(#未命名的渐变_51);}.cls-6{fill:#93bbff;}.cls-6,.cls-8{opacity:0.72;}.cls-7{fill:url(#未命名的渐变_53);}.cls-8{fill:#9bd1ff;}.cls-9{fill:url(#未命名的渐变_41);}.cls-10{fill:#fff;}.cls-11{fill:#bbdefb;opacity:0.31;}.cls-12{fill:#7986cb;}.cls-13{fill:url(#未命名的渐变_19);}.cls-14{fill:url(#未命名的渐变_23);}.cls-15{fill:url(#未命名的渐变_25);}.cls-16{fill:url(#未命名的渐变_21);}.cls-17{fill:#536dfe;opacity:0.15;}</style><linearGradient id="未命名的渐变_37" x1="51.06" y1="48.95" x2="109.81" y2="82.87" gradientUnits="userSpaceOnUse"><stop offset="0" stop-color="#fad249"/><stop offset="0.11" stop-color="#fad450"/><stop offset="0.27" stop-color="#fbd863"/><stop offset="0.46" stop-color="#fce082"/><stop offset="0.67" stop-color="#fdebad"/><stop offset="0.9" stop-color="#fef8e4"/><stop offset="1" stop-color="#fff"/></linearGradient><linearGradient id="未命名的渐变_37-2" x1="87.03" y1="55.49" x2="87.03" y2="11.5" xlink:href="#未命名的渐变_37"/><linearGradient id="未命名的渐变_37-3" x1="35.88" y1="50.62" x2="69.24" y2="62.76" xlink:href="#未命名的渐变_37"/><linearGradient id="未命名的渐变_38" x1="38.97" y1="35" x2="58.36" y2="15.61" gradientUnits="userSpaceOnUse"><stop offset="0" stop-color="#fad249"/><stop offset="0.17" stop-color="#fad34c"/><stop offset="0.32" stop-color="#fad657"/><stop offset="0.46" stop-color="#fbda69"/><stop offset="0.6" stop-color="#fce083"/><stop offset="0.73" stop-color="#fce8a3"/><stop offset="0.86" stop-color="#fef2cc"/><stop offset="0.99" stop-color="#fffefa"/><stop offset="1" stop-color="#fff"/></linearGradient><linearGradient id="未命名的渐变_51" x1="70.24" y1="53.86" x2="43.87" y2="99.54" gradientUnits="userSpaceOnUse"><stop offset="0" stop-color="#a8cdff"/><stop offset="0.43" stop-color="#d0e2fa"/><stop offset="0.79" stop-color="#ebf0f6"/><stop offset="1" stop-color="#f5f5f5"/></linearGradient><linearGradient id="未命名的渐变_53" x1="73.44" y1="66.02" x2="96.42" y2="105.82" gradientUnits="userSpaceOnUse"><stop offset="0" stop-color="#a8cdff"/><stop offset="1" stop-color="#f5f5f5"/></linearGradient><linearGradient id="未命名的渐变_41" x1="96.62" y1="66.16" x2="96.62" y2="55.34" gradientUnits="userSpaceOnUse"><stop offset="0" stop-color="#fad249"/><stop offset="0.13" stop-color="#fad34e"/><stop offset="0.28" stop-color="#fbd75c"/><stop offset="0.44" stop-color="#fbdd74"/><stop offset="0.61" stop-color="#fce596"/><stop offset="0.79" stop-color="#fdf0c1"/><stop offset="0.97" stop-color="#fffdf5"/><stop offset="1" stop-color="#fff"/></linearGradient><linearGradient id="未命名的渐变_19" x1="41.01" y1="76.48" x2="30.16" y2="70.21" gradientUnits="userSpaceOnUse"><stop offset="0" stop-color="#c9dcff" stop-opacity="0.2"/><stop offset="0.59" stop-color="#99a8e0" stop-opacity="0.68"/><stop offset="1" stop-color="#7986cb"/></linearGradient><linearGradient id="未命名的渐变_23" x1="24.69" y1="99.53" x2="35.33" y2="105.67" gradientUnits="userSpaceOnUse"><stop offset="0" stop-color="#c9dcff" stop-opacity="0.2"/><stop offset="0.32" stop-color="#b1c2f0" stop-opacity="0.44"/><stop offset="1" stop-color="#7986cb"/></linearGradient><linearGradient id="未命名的渐变_25" x1="21.65" y1="79.08" x2="12.77" y2="94.47" gradientUnits="userSpaceOnUse"><stop offset="0" stop-color="#c9dcff" stop-opacity="0.2"/><stop offset="0.4" stop-color="#a8b9ea" stop-opacity="0.53"/><stop offset="1" stop-color="#7986cb"/></linearGradient><linearGradient id="未命名的渐变_21" x1="43.64" y1="96.77" x2="52.64" y2="81.17" gradientUnits="userSpaceOnUse"><stop offset="0" stop-color="#c9dcff" stop-opacity="0.2"/><stop offset="0.6" stop-color="#9aa9e0" stop-opacity="0.67"/><stop offset="1" stop-color="#7986cb"/></linearGradient></defs><title>geeqie-112</title><polygon class="cls-1" points="96.62 105.71 64.25 76.48 64.25 26.11 96.62 55.34 96.62 105.71"/><polygon class="cls-2" points="96.62 55.49 64.25 26.26 77.44 11.5 109.81 40.73 96.62 55.49"/><polygon class="cls-3" points="64.25 76.48 40.87 87.27 40.87 36.91 64.25 26.11 64.25 76.48"/><polygon class="cls-4" points="64.25 26.11 40.87 36.91 33.08 24.5 56.45 13.71 64.25 26.11"/><polygon class="cls-5" points="73.24 116.5 40.87 87.27 40.87 36.91 73.24 66.14 73.24 116.5"/><polygon class="cls-6" points="66.41 101.51 47.7 84.61 47.7 55.49 66.41 72.39 66.41 101.51"/><polygon class="cls-7" points="96.62 105.71 73.24 116.5 73.24 66.14 96.62 55.34 96.62 105.71"/><polygon class="cls-8" points="78.97 106.01 90.89 100.51 90.89 87.92 78.97 93.42 78.97 106.01"/><polygon class="cls-8" points="78.97 91.62 90.89 86.12 90.89 83.42 78.97 88.92 78.97 91.62"/><polygon class="cls-8" points="78.97 87.12 90.89 81.62 90.89 78.92 78.97 84.42 78.97 87.12"/><polygon class="cls-9" points="96.62 55.37 73.24 66.16 96.62 66.14 120 55.34 96.62 55.37"/><path class="cls-10" d="M57,83.7A24.71,24.71,0,0,0,34.17,63.26c-.49,0-1,0-1.48,0A24.71,24.71,0,0,0,8,87.91a24,24,0,0,0,.33,4,24.66,24.66,0,0,0,11.06,16.81,24.41,24.41,0,0,0,12,3.85c.44,0,.89,0,1.34,0A24.71,24.71,0,0,0,57,83.7ZM32.69,90.84a2.92,2.92,0,0,1-2.89-2.55,2.43,2.43,0,0,1,0-.38,2.93,2.93,0,0,1,.51-1.65,2.84,2.84,0,0,1,2-1.23,1.75,1.75,0,0,1,.4,0,2.93,2.93,0,0,1,2.07.86h0a3.06,3.06,0,0,1,.79,1.47,3.8,3.8,0,0,1,.06.59,2.94,2.94,0,0,1-2.92,2.93Z"/><path class="cls-11" d="M57,83.7A24.71,24.71,0,0,0,34.17,63.26c-.49,0-1,0-1.48,0A24.71,24.71,0,0,0,8,87.91a24,24,0,0,0,.33,4,24.66,24.66,0,0,0,11.06,16.81,24.41,24.41,0,0,0,12,3.85c.44,0,.89,0,1.34,0A24.71,24.71,0,0,0,57,83.7ZM32.69,90.84a2.92,2.92,0,0,1-2.89-2.55,2.43,2.43,0,0,1,0-.38,2.93,2.93,0,0,1,.51-1.65,2.84,2.84,0,0,1,2-1.23,1.75,1.75,0,0,1,.4,0,2.93,2.93,0,0,1,2.07.86h0a3.06,3.06,0,0,1,.79,1.47,3.8,3.8,0,0,1,.06.59,2.94,2.94,0,0,1-2.92,2.93Z"/><path class="cls-12" d="M32.69,83.76a4.15,4.15,0,1,0,4.14,4.15A4.15,4.15,0,0,0,32.69,83.76Zm0,7.07a2.92,2.92,0,1,1,2.92-2.92A2.92,2.92,0,0,1,32.69,90.83Z"/><path class="cls-13" d="M46.3,67.31,35.41,84.79a4.13,4.13,0,0,0-2.72-1,1.37,1.37,0,0,0-.29,0l1.77-20.52A24.59,24.59,0,0,1,46.3,67.31Z"/><path class="cls-14" d="M33,92.05l-1.67,20.52a24.41,24.41,0,0,1-12-3.85L29.82,90.91a4.18,4.18,0,0,0,2.87,1.15Z"/><path class="cls-15" d="M28.55,87.91a2.78,2.78,0,0,0,.05.58L8.33,91.91a24,24,0,0,1-.33-4,24.55,24.55,0,0,1,4.46-14.14l16.82,11.8A4.06,4.06,0,0,0,28.55,87.91Z"/><path class="cls-16" d="M57.38,87.91a24.43,24.43,0,0,1-4.5,14.2L36.07,90.32a4.07,4.07,0,0,0,.77-2.41,3.42,3.42,0,0,0-.09-.79L57,83.7A24.41,24.41,0,0,1,57.38,87.91Z"/><path class="cls-17" d="M32.69,82.34a5.57,5.57,0,1,1-5.57,5.57,5.58,5.58,0,0,1,5.57-5.57m0-1.64a7.21,7.21,0,1,0,7.2,7.21,7.23,7.23,0,0,0-7.2-7.21Z"/></svg>