<?xml version="1.0" encoding="utf-8"?>
<!-- Generator: Adobe Illustrator 24.0.0, SVG Export Plug-In . SVG Version: 6.00 Build 0)  -->
<svg version="1.1" id="图层_1" xmlns="http://www.w3.org/2000/svg" xmlns:xlink="http://www.w3.org/1999/xlink" x="0px" y="0px"
	 viewBox="0 0 128 128" enable-background="new 0 0 128 128" xml:space="preserve">
<title>geeqie-112</title>
<linearGradient id="SVGID_1_" gradientUnits="userSpaceOnUse" x1="51.1035" y1="16.9565" x2="109.7965" y2="50.8435" gradientTransform="matrix(1 0 0 1 0 32)">
	<stop  offset="0" style="stop-color:#FAD249"/>
	<stop  offset="0.11" style="stop-color:#FAD450"/>
	<stop  offset="0.27" style="stop-color:#FBD863"/>
	<stop  offset="0.46" style="stop-color:#FCE082"/>
	<stop  offset="0.67" style="stop-color:#FDEBAD"/>
	<stop  offset="0.9" style="stop-color:#FEF8E4"/>
	<stop  offset="1" style="stop-color:#FFFFFF"/>
</linearGradient>
<polygon fill="url(#SVGID_1_)" points="96.6,105.7 64.3,76.5 64.3,26.1 96.6,55.3 "/>
<linearGradient id="SVGID_2_" gradientUnits="userSpaceOnUse" x1="87.05" y1="23.5" x2="87.05" y2="-20.5" gradientTransform="matrix(1 0 0 1 0 32)">
	<stop  offset="0" style="stop-color:#FAD249"/>
	<stop  offset="0.11" style="stop-color:#FAD450"/>
	<stop  offset="0.27" style="stop-color:#FBD863"/>
	<stop  offset="0.46" style="stop-color:#FCE082"/>
	<stop  offset="0.67" style="stop-color:#FDEBAD"/>
	<stop  offset="0.9" style="stop-color:#FEF8E4"/>
	<stop  offset="1" style="stop-color:#FFFFFF"/>
</linearGradient>
<polygon fill="url(#SVGID_2_)" points="96.6,55.5 64.3,26.3 77.4,11.5 109.8,40.7 "/>
<linearGradient id="SVGID_3_" gradientUnits="userSpaceOnUse" x1="35.9055" y1="18.6247" x2="69.2945" y2="30.7753" gradientTransform="matrix(1 0 0 1 0 32)">
	<stop  offset="0" style="stop-color:#FAD249"/>
	<stop  offset="0.11" style="stop-color:#FAD450"/>
	<stop  offset="0.27" style="stop-color:#FBD863"/>
	<stop  offset="0.46" style="stop-color:#FCE082"/>
	<stop  offset="0.67" style="stop-color:#FDEBAD"/>
	<stop  offset="0.9" style="stop-color:#FEF8E4"/>
	<stop  offset="1" style="stop-color:#FFFFFF"/>
</linearGradient>
<polygon fill="url(#SVGID_3_)" points="64.3,76.5 40.9,87.3 40.9,36.9 64.3,26.1 "/>
<linearGradient id="SVGID_4_" gradientUnits="userSpaceOnUse" x1="38.98" y1="3.02" x2="58.38" y2="-16.38" gradientTransform="matrix(1 0 0 1 0 32)">
	<stop  offset="0" style="stop-color:#FAD249"/>
	<stop  offset="0.17" style="stop-color:#FAD34C"/>
	<stop  offset="0.32" style="stop-color:#FAD657"/>
	<stop  offset="0.46" style="stop-color:#FBDA69"/>
	<stop  offset="0.6" style="stop-color:#FCE083"/>
	<stop  offset="0.73" style="stop-color:#FCE8A3"/>
	<stop  offset="0.86" style="stop-color:#FEF2CC"/>
	<stop  offset="0.99" style="stop-color:#FFFEFA"/>
	<stop  offset="1" style="stop-color:#FFFFFF"/>
</linearGradient>
<polygon fill="url(#SVGID_4_)" points="64.3,26.1 40.9,36.9 33.1,24.5 56.5,13.7 "/>
<linearGradient id="SVGID_5_" gradientUnits="userSpaceOnUse" x1="70.2461" y1="21.8408" x2="43.8539" y2="67.5592" gradientTransform="matrix(1 0 0 1 0 32)">
	<stop  offset="0" style="stop-color:#A8CDFF"/>
	<stop  offset="0.43" style="stop-color:#D0E2FA"/>
	<stop  offset="0.79" style="stop-color:#EBF0F6"/>
	<stop  offset="1" style="stop-color:#F5F5F5"/>
</linearGradient>
<polygon fill="url(#SVGID_5_)" points="73.2,116.5 40.9,87.3 40.9,36.9 73.2,66.1 "/>
<polygon opacity="0.72" fill="#93BBFF" enable-background="new    " points="66.4,101.5 47.7,84.6 47.7,55.5 66.4,72.4 "/>
<linearGradient id="SVGID_6_" gradientUnits="userSpaceOnUse" x1="73.4281" y1="34.0314" x2="96.4265" y2="73.8633" gradientTransform="matrix(1 0 0 1 0 32)">
	<stop  offset="0" style="stop-color:#A8CDFF"/>
	<stop  offset="1" style="stop-color:#F5F5F5"/>
</linearGradient>
<polygon fill="url(#SVGID_6_)" points="96.6,105.7 73.2,116.5 73.2,66.1 96.6,55.3 "/>
<polygon opacity="0.72" fill="#9BD1FF" enable-background="new    " points="79,106 90.9,100.5 90.9,87.9 79,93.4 "/>
<polygon opacity="0.72" fill="#9BD1FF" enable-background="new    " points="79,91.6 90.9,86.1 90.9,83.4 79,88.9 "/>
<polygon opacity="0.72" fill="#9BD1FF" enable-background="new    " points="79,87.1 90.9,81.6 90.9,78.9 79,84.4 "/>
<linearGradient id="SVGID_7_" gradientUnits="userSpaceOnUse" x1="96.6" y1="34.16" x2="96.6" y2="23.34" gradientTransform="matrix(1 0 0 1 0 32)">
	<stop  offset="0" style="stop-color:#FAD249"/>
	<stop  offset="0.13" style="stop-color:#FAD34E"/>
	<stop  offset="0.28" style="stop-color:#FBD75C"/>
	<stop  offset="0.44" style="stop-color:#FBDD74"/>
	<stop  offset="0.61" style="stop-color:#FCE596"/>
	<stop  offset="0.79" style="stop-color:#FDF0C1"/>
	<stop  offset="0.97" style="stop-color:#FFFDF5"/>
	<stop  offset="1" style="stop-color:#FFFFFF"/>
</linearGradient>
<polygon fill="url(#SVGID_7_)" points="96.6,55.4 73.2,66.2 96.6,66.1 120,55.3 "/>
<path fill="#FFFFFF" d="M57,83.7C55,72.4,45.6,64,34.2,63.3c-0.5,0-1,0-1.5,0C19.1,63.3,8,74.3,8,87.9c0,1.3,0.1,2.7,0.3,4
	c1.1,6.9,5.2,13,11.1,16.8c3.6,2.3,7.7,3.6,12,3.8c0.4,0,0.9,0,1.3,0c13.6,0,24.7-11.2,24.6-24.8C57.3,86.4,57.2,85,57,83.7z
	 M32.7,90.8c-1.5,0-2.7-1.1-2.9-2.6c0-0.1,0-0.3,0-0.4c0-0.6,0.2-1.2,0.5-1.7c0.5-0.7,1.2-1.1,2-1.2c0.1,0,0.3,0,0.4,0
	c0.8,0,1.5,0.3,2.1,0.9l0,0c0.4,0.4,0.7,0.9,0.8,1.5c0,0.2,0.1,0.4,0.1,0.6C35.6,89.6,34.3,90.9,32.7,90.8L32.7,90.8z"/>
<path opacity="0.31" fill="#BBDEFB" enable-background="new    " d="M57,83.7C55,72.4,45.6,64,34.2,63.3c-0.5,0-1,0-1.5,0
	C19.1,63.3,8,74.3,8,87.9c0,1.3,0.1,2.7,0.3,4c1.1,6.9,5.2,13,11.1,16.8c3.6,2.3,7.7,3.6,12,3.8c0.4,0,0.9,0,1.3,0
	c13.6,0,24.7-11.2,24.6-24.8C57.3,86.4,57.2,85,57,83.7z M32.7,90.8c-1.5,0-2.7-1.1-2.9-2.6c0-0.1,0-0.3,0-0.4
	c0-0.6,0.2-1.2,0.5-1.7c0.5-0.7,1.2-1.1,2-1.2c0.1,0,0.3,0,0.4,0c0.8,0,1.5,0.3,2.1,0.9l0,0c0.4,0.4,0.7,0.9,0.8,1.5
	c0,0.2,0.1,0.4,0.1,0.6C35.6,89.6,34.3,90.9,32.7,90.8L32.7,90.8z"/>
<path fill="#7986CB" d="M32.7,83.8c-2.3,0-4.2,1.8-4.2,4.1c0,2.3,1.8,4.2,4.1,4.2s4.2-1.8,4.2-4.1l0,0C36.8,85.6,35,83.8,32.7,83.8z
	 M32.7,90.8c-1.6,0-2.9-1.3-2.9-2.9s1.3-2.9,2.9-2.9c1.6,0,2.9,1.3,2.9,2.9l0,0C35.6,89.5,34.3,90.8,32.7,90.8z"/>
<linearGradient id="SVGID_8_" gradientUnits="userSpaceOnUse" x1="40.9985" y1="44.4741" x2="30.155" y2="38.2079" gradientTransform="matrix(1 0 0 1 0 32)">
	<stop  offset="0" style="stop-color:#C9DCFF;stop-opacity:0.2"/>
	<stop  offset="0.59" style="stop-color:#99A8E0;stop-opacity:0.68"/>
	<stop  offset="1" style="stop-color:#7986CB"/>
</linearGradient>
<path fill="url(#SVGID_8_)" d="M46.3,67.3L35.4,84.8c-0.8-0.7-1.7-1-2.7-1c-0.1,0-0.2,0-0.3,0l1.8-20.5
	C38.5,63.5,42.7,64.9,46.3,67.3z"/>
<linearGradient id="SVGID_9_" gradientUnits="userSpaceOnUse" x1="24.6502" y1="67.599" x2="35.2975" y2="73.7431" gradientTransform="matrix(1 0 0 1 0 32)">
	<stop  offset="0" style="stop-color:#C9DCFF;stop-opacity:0.2"/>
	<stop  offset="0.32" style="stop-color:#B1C2F0;stop-opacity:0.44"/>
	<stop  offset="1" style="stop-color:#7986CB"/>
</linearGradient>
<path fill="url(#SVGID_9_)" d="M33,92.1l-1.7,20.5c-4.3-0.2-8.4-1.5-12-3.8L29.8,91c0.8,0.7,1.8,1.1,2.9,1.2L33,92.1z"/>
<linearGradient id="SVGID_10_" gradientUnits="userSpaceOnUse" x1="21.6378" y1="47.0725" x2="12.7537" y2="62.4698" gradientTransform="matrix(1 0 0 1 0 32)">
	<stop  offset="0" style="stop-color:#C9DCFF;stop-opacity:0.2"/>
	<stop  offset="0.4" style="stop-color:#A8B9EA;stop-opacity:0.53"/>
	<stop  offset="1" style="stop-color:#7986CB"/>
</linearGradient>
<path fill="url(#SVGID_10_)" d="M28.5,87.9c0,0.2,0,0.4,0,0.6L8.3,91.9c-0.2-1.3-0.3-2.7-0.3-4c0-5.1,1.6-10,4.5-14.1l16.8,11.8
	C28.8,86.3,28.5,87.1,28.5,87.9z"/>
<linearGradient id="SVGID_11_" gradientUnits="userSpaceOnUse" x1="43.6489" y1="64.7844" x2="52.6466" y2="49.1884" gradientTransform="matrix(1 0 0 1 0 32)">
	<stop  offset="0" style="stop-color:#C9DCFF;stop-opacity:0.2"/>
	<stop  offset="0.6" style="stop-color:#9AA9E0;stop-opacity:0.67"/>
	<stop  offset="1" style="stop-color:#7986CB"/>
</linearGradient>
<path fill="url(#SVGID_11_)" d="M57.4,87.9c0,5.1-1.6,10.1-4.5,14.2L36.1,90.3c0.5-0.7,0.8-1.5,0.8-2.4c0-0.3,0-0.5-0.1-0.8L57,83.7
	C57.2,85.1,57.4,86.5,57.4,87.9z"/>
<path opacity="0.15" fill="#536DFE" enable-background="new    " d="M32.7,82.3c3.1,0,5.6,2.5,5.6,5.6s-2.5,5.6-5.6,5.6
	s-5.6-2.5-5.6-5.6l0,0C27.1,84.8,29.6,82.3,32.7,82.3 M32.7,80.7c-4,0-7.2,3.2-7.2,7.2s3.2,7.2,7.2,7.2s7.2-3.2,7.2-7.2l0,0
	C39.9,83.9,36.7,80.7,32.7,80.7z"/>
</svg>
