<svg id="图层_1" data-name="图层 1" xmlns="http://www.w3.org/2000/svg" viewBox="0 0 64 64"><defs><style>.cls-1{fill:#ddd;}.cls-2{fill:#b3b3b3;}.cls-3{fill:#3756d5;}.cls-4{fill:#f2f2f2;}.cls-5{fill:#1a1a1a;}</style></defs><title>gftp128</title><polygon class="cls-1" points="38.68 6 10 6 10 60 53 60 53 19.02 38.68 6"/><polygon class="cls-2" points="40.68 4 12 4 12 58 55 58 55 17.02 40.68 4"/><ellipse class="cls-3" cx="33" cy="33" rx="19" ry="15"/><path class="cls-4" d="M19.39,42.16A2.7,2.7,0,0,1,18,39.75,3.37,3.37,0,0,1,19.79,37v-.09a2.18,2.18,0,0,1-1.1-2A2.8,2.8,0,0,1,20,32.65v-.08a4,4,0,0,1-1.57-3.25,4,4,0,0,1,1.32-3.13A4.46,4.46,0,0,1,23,25a5,5,0,0,1,1.67.31h4.19v1.41H26.26a3.47,3.47,0,0,1,1,2.62A4,4,0,0,1,26,32.43,4.36,4.36,0,0,1,23,33.57a3.9,3.9,0,0,1-1.86-.45,2,2,0,0,0-.81,1.53c0,.91.72,1.36,2.15,1.36h2.42Q29,36,29,38.88a3.47,3.47,0,0,1-1.63,2.88A7.25,7.25,0,0,1,23,43,6.61,6.61,0,0,1,19.39,42.16Zm6.76-1.22a2.2,2.2,0,0,0,1.07-1.8c0-1-.84-1.58-2.53-1.58H22.48a6.51,6.51,0,0,1-1.55-.21,2.67,2.67,0,0,0-1.32,2.17,1.84,1.84,0,0,0,1,1.62,5,5,0,0,0,2.67.6A5.06,5.06,0,0,0,26.15,40.94Zm-1.3-9.45a3.06,3.06,0,0,0,.8-2.17,3,3,0,0,0-.8-2.17,2.55,2.55,0,0,0-1.9-.78,2.58,2.58,0,0,0-1.93.78,3,3,0,0,0-.78,2.17,3.06,3.06,0,0,0,.8,2.17,2.6,2.6,0,0,0,3.81,0Z"/><path class="cls-4" d="M30.12,29.9h4.67v.78H31.05v2.9h3.17v.79H31.05v3.75h-.93Z"/><path class="cls-4" d="M38,30.68h-2.5V29.9h6v.78H38.91v7.44H38Z"/><path class="cls-4" d="M42.92,29.9H45.2c2,0,3,.79,3,2.38a2.26,2.26,0,0,1-.83,1.9,3.41,3.41,0,0,1-2.18.61H43.85v3.33h-.93ZM45.11,34c1.48,0,2.22-.58,2.22-1.75A1.42,1.42,0,0,0,46.76,31a3.2,3.2,0,0,0-1.7-.35H43.85V34Z"/><path class="cls-5" d="M55,27V29.2c2.37,1.56,4.13,3.37,4.13,5.28s-1.38,3.71-3.74,5.28C50.62,42.91,41.82,45.07,32,45.07c-7.64,0-14.66-1.31-19.65-3.37-.66-.28-1.28-.57-1.87-.87-3.5-1.78-5.61-4-5.61-6.35S6.8,30.12,10,28.38V26.24c-4.37,2.19-7,5.05-7,8.24S5.82,40.74,10.48,43c.6.28,1.22.56,1.87.81A55.15,55.15,0,0,0,32,47c9.7,0,18.15-2,23.39-5C58.93,39.89,61,37.31,61,34.48S58.54,29.06,55,27Z"/></svg>