<svg id="图层_1" data-name="图层 1" xmlns="http://www.w3.org/2000/svg" viewBox="0 0 64 64"><defs><style>.cls-1{fill:#ccc;}.cls-2{fill:#b3b3b3;}.cls-3{fill:#3756d5;}.cls-4{fill:#f2f2f2;}.cls-5{fill:none;}.cls-6{fill:#2e3192;}.cls-7{fill:#1a1a1a;}</style></defs><title>gftp128</title><path class="cls-1" d="M38.94,6.26H11.23V41.12q.84.42,1.8.81v1.94c-.63-.24-1.23-.5-1.8-.76V58.65H52.77V18.89Z"/><path class="cls-2" d="M13,43.87V57.74H54.58V42.19C49.52,45.07,41.37,46.9,32,46.9A54.78,54.78,0,0,1,13,43.87Z"/><path class="cls-2" d="M40.75,5.35H13V41.93A52.85,52.85,0,0,0,32,45.1c9.49,0,18-2,22.58-5V18Z"/><ellipse class="cls-3" cx="32" cy="34.08" rx="18.97" ry="15.81"/><path class="cls-4" d="M19.22,42a2.63,2.63,0,0,1-1.34-2.33,3.25,3.25,0,0,1,1.73-2.68v-.09a2.12,2.12,0,0,1-1.06-1.92,2.69,2.69,0,0,1,1.3-2.16v-.09a3.81,3.81,0,0,1-1.51-3.13,3.88,3.88,0,0,1,1.27-3,4.29,4.29,0,0,1,3.05-1.15,4.72,4.72,0,0,1,1.62.3h4V27H25.86a3.37,3.37,0,0,1,1,2.53,3.87,3.87,0,0,1-1.23,3,4.2,4.2,0,0,1-3,1.11,3.74,3.74,0,0,1-1.79-.44,1.94,1.94,0,0,0-.78,1.47q0,1.32,2.07,1.32H24.5q4,0,4,2.77a3.36,3.36,0,0,1-1.58,2.78,7,7,0,0,1-4.24,1.21A6.45,6.45,0,0,1,19.22,42Zm6.53-1.18a2.13,2.13,0,0,0,1-1.74c0-1-.82-1.53-2.45-1.53H22.21a6.4,6.4,0,0,1-1.49-.19,2.54,2.54,0,0,0-1.28,2.09A1.77,1.77,0,0,0,20.37,41a4.82,4.82,0,0,0,2.57.58A4.89,4.89,0,0,0,25.75,40.77ZM24.5,31.65a3,3,0,0,0,.77-2.1,2.94,2.94,0,0,0-.77-2.1,2.66,2.66,0,0,0-3.7,0,3.28,3.28,0,0,0,0,4.2,2.52,2.52,0,0,0,3.68,0Z"/><path class="cls-4" d="M29.59,30.11H34.1v.76H30.49v2.79h3.05v.76H30.49V38h-.9Z"/><path class="cls-4" d="M37.16,30.87H34.75v-.76H40.5v.76H38.08V38h-.92Z"/><path class="cls-4" d="M41.94,30.11h2.21c2,0,2.94.77,2.94,2.3a2.17,2.17,0,0,1-.8,1.83,3.28,3.28,0,0,1-2.1.6H42.84V38h-.9Zm2.12,4c1.43,0,2.14-.57,2.14-1.69a1.38,1.38,0,0,0-.55-1.24A3.1,3.1,0,0,0,44,30.84H42.84V34.1Z"/><path class="cls-5" d="M58.19,35.16c0-1.79-1.32-3.48-3.61-4.95v9.9C56.87,38.64,58.19,37,58.19,35.16Z"/><path class="cls-5" d="M5.81,35.16c0,2.59,2.77,5,7.22,6.77V28.39C8.58,30.18,5.81,32.57,5.81,35.16Z"/><path class="cls-5" d="M5.81,35.16c0,2.22,2,4.29,5.42,6V29.2C7.85,30.87,5.81,33,5.81,35.16Z"/><path class="cls-6" d="M32,45.1a52.85,52.85,0,0,1-19-3.17v1.94a54.78,54.78,0,0,0,19,3c9.37,0,17.52-1.83,22.58-4.71V40.11C50,43.06,41.49,45.1,32,45.1Z"/><path class="cls-7" d="M54.58,28.14v2.07c2.29,1.47,3.61,3.16,3.61,4.95s-1.32,3.48-3.61,5c-4.6,3-13.09,5-22.58,5a52.85,52.85,0,0,1-19-3.17q-1-.39-1.8-.81c-3.38-1.67-5.42-3.74-5.42-6s2-4.29,5.42-6v-2C6.72,29.29,4,32.07,4,35.16s2.72,5.87,7.23,8c.57.26,1.17.52,1.8.76a54.78,54.78,0,0,0,19,3c9.37,0,17.52-1.83,22.58-4.71C58,40.24,60,37.82,60,35.16S58,30.08,54.58,28.14Z"/></svg>