<svg id="图层_1" data-name="图层 1" xmlns="http://www.w3.org/2000/svg" viewBox="0 0 128 128"><defs><style>.cls-1{fill:#90a4ae;}.cls-2{fill:#ffab40;}.cls-3{fill:#616161;}</style></defs><title>ghextris-112</title><rect class="cls-1" x="8" y="8" width="112" height="112" rx="12" ry="12"/><polygon class="cls-2" points="50.95 53.17 38.22 53.17 31.86 64.19 38.22 75.21 50.95 75.21 57.31 64.19 50.95 53.17"/><polygon class="cls-2" points="50.95 75.21 38.22 75.21 31.86 86.23 38.22 97.26 50.95 97.26 57.31 86.23 50.95 75.21"/><polygon class="cls-2" points="31.88 86.23 19.15 86.23 12.79 97.26 19.15 108.28 31.88 108.28 38.24 97.26 31.88 86.23"/><polygon class="cls-2" points="70.02 86.23 57.29 86.23 50.92 97.26 57.29 108.28 70.02 108.28 76.38 97.26 70.02 86.23"/><path d="M51.31,75.85H37.85L31.12,64.19l6.73-11.66H51.31l6.74,11.66ZM38.59,74.58h12l6-10.39-6-10.38h-12l-6,10.38Z"/><path d="M51.31,97.89H37.85L31.12,86.24l6.73-11.66H51.31l6.74,11.66ZM38.59,96.62h12l6-10.38-6-10.39h-12l-6,10.39Z"/><path d="M32.25,108.92H18.78L12.05,97.26,18.78,85.6H32.25L39,97.26Zm-12.73-1.28h12l6-10.38-6-10.39h-12l-6,10.39Z"/><path d="M70.38,108.92H56.92L50.19,97.26,56.92,85.6H70.38l6.73,11.66Zm-12.72-1.28h12l6-10.38-6-10.39h-12l-6,10.39Z"/><polygon class="cls-3" points="89.84 30.74 77.12 30.74 70.75 41.77 77.12 52.79 89.84 52.79 96.21 41.77 89.84 30.74"/><polygon class="cls-3" points="70.84 19.72 58.11 19.72 51.75 30.74 58.11 41.77 70.84 41.77 77.2 30.74 70.84 19.72"/><polygon class="cls-3" points="89.84 52.79 77.12 52.79 70.75 63.81 77.12 74.83 89.84 74.83 96.21 63.81 89.84 52.79"/><polygon class="cls-3" points="108.85 41.77 96.12 41.77 89.76 52.79 96.12 63.81 108.85 63.81 115.21 52.79 108.85 41.77"/><path d="M90.21,53.42H76.75L70,41.76l6.73-11.65H90.21l6.73,11.65ZM77.48,52.15h12l6-10.39-6-10.38h-12l-6,10.38Z"/><path d="M71.2,42.4H57.74L51,30.74l6.73-11.66H71.2l6.74,11.66ZM58.48,41.13h12l6-10.39-6-10.38h-12l-6,10.38Z"/><path d="M90.21,75.47H76.75L70,63.81l6.73-11.66H90.21l6.73,11.66ZM77.48,74.19h12l6-10.38-6-10.39h-12l-6,10.39Z"/><path d="M109.22,64.45H95.75L89,52.79l6.73-11.66h13.47L116,52.79ZM96.49,63.17h12l6-10.38-6-10.39h-12l-6,10.39Z"/></svg>