<svg id="图层_1" data-name="图层 1" xmlns="http://www.w3.org/2000/svg" viewBox="0 0 128 128"><defs><style>.cls-1{fill:#4caf50;}.cls-2{fill:#ff5252;}.cls-3{fill:#455a64;}</style></defs><title>git-cola128</title><path class="cls-1" d="M54.76,5V19.61H29.4V29H54.76V43.6h11V29H99.15V25.13a5.52,5.52,0,0,0-5.51-5.52H65.79V5Z"/><polygon class="cls-2" points="51.73 46.91 51.73 43.87 29.4 43.87 29.4 54.35 99.15 54.35 99.15 43.87 68.27 43.87 68.27 46.91 51.73 46.91"/><path class="cls-3" d="M61.66,68.14v22.6H71V68.29a22.88,22.88,0,0,1-4.41,45.34H61.11a22.88,22.88,0,0,1-6.93-44.69l-2.43-9.07A32.26,32.26,0,0,0,61.11,123h5.51a32.23,32.23,0,0,0,23-54.86h9.55V58.76H61.66Z"/></svg>