<?xml version="1.0" encoding="utf-8"?>
<!-- Generator: Adobe Illustrator 24.0.0, SVG Export Plug-In . SVG Version: 6.00 Build 0)  -->
<svg version="1.1" id="图层_1" xmlns="http://www.w3.org/2000/svg" xmlns:xlink="http://www.w3.org/1999/xlink" x="0px" y="0px"
	 viewBox="0 0 128 128" enable-background="new 0 0 128 128" xml:space="preserve">
<title>globs-112</title>
<path fill="#212121" d="M20,8h88c6.6,0,12,5.4,12,12v88c0,6.6-5.4,12-12,12H20c-6.6,0-12-5.4-12-12V20C8,13.4,13.4,8,20,8z"/>
<path fill="#536DFE" d="M33.3,64.8V72c-0.8,0.4-1.7,0.6-2.6,0.6c-2.1,0-4.1-1.1-5.2-2.8c-1.5-2.1-2.2-4.6-2.1-7.1
	c-0.1-2.7,0.9-5.3,2.6-7.4c1.5-2,3.9-3.1,6.4-3.1c2.4-0.1,4.7,1,6.1,3c1.5,2,2.2,4.9,2.2,8.6v6.9c0.1,3.2-0.7,6.3-2.5,9
	c-1.4,2.2-3.8,3.5-6.4,3.5c-1.2,0-2.5-0.3-3.6-0.7v-7.1c0.8,0.5,1.8,0.8,2.8,0.9c1,0,1.9-0.6,2.4-1.4c0.7-1.2,1-2.6,0.9-4v-7.8
	c0-2.2-0.7-3.3-2.2-3.3c-0.6,0-1.2,0.3-1.6,0.8c-0.5,0.6-0.7,1.3-0.7,2s0.2,1.4,0.7,2c0.3,0.5,0.9,0.8,1.4,0.8
	C32.4,65.2,32.8,65.1,33.3,64.8z"/>
<path fill="#536DFE" d="M50.7,44.9v28.6h-6.4V44.9H50.7z"/>
<path fill="#536DFE" d="M62.3,52.2c2.5,0,4.8,1.2,6.3,3.2c3.5,4.5,3.5,10.8,0,15.4c-2.5,3.5-7.3,4.2-10.8,1.7
	c-0.7-0.5-1.3-1.1-1.7-1.7c-3.5-4.5-3.5-10.8,0-15.4C57.5,53.4,59.8,52.2,62.3,52.2z M62.3,66.2c0.7,0,1.4-0.3,1.8-0.9
	c1-1.3,1-3.1,0-4.5c-0.8-1-2.2-1.2-3.2-0.5c-0.2,0.1-0.3,0.3-0.5,0.5c-1,1.3-1,3.1,0,4.5C60.9,65.9,61.6,66.2,62.3,66.2z"/>
<path fill="#536DFE" d="M79.9,44.9v17.2c0,2.8,0.8,4.2,2.4,4.2c0.7,0,1.3-0.3,1.8-0.9s0.7-1.4,0.7-2.1c0-0.8-0.2-1.5-0.6-2.1
	c-0.4-0.5-0.9-0.8-1.6-0.8c-0.6,0-1.3,0.3-1.7,0.7v-8.7c0.6-0.1,1.1-0.1,1.7-0.1c2.4,0,4.7,1.2,6.1,3.2c1.7,2.2,2.7,4.9,2.6,7.7
	c0.1,2.8-0.9,5.5-2.6,7.7c-1.5,2-3.9,3.2-6.4,3.2s-4.8-1.2-6.3-3.3c-1.7-2.4-2.6-5.4-2.5-8.4V44.9H79.9z"/>
<path fill="#536DFE" d="M104.7,52.6v8.2c-1,0-1.7,0.2-2,0.6c-0.4,0.7-0.6,1.4-0.6,2.2c-0.5,6.5-3.5,9.8-8.9,9.8h-0.9v-8.3
	c0.9,0.1,1.8-0.2,2.5-0.8c0.5-0.8,0.8-1.8,0.8-2.8c0-1.4,0.2-2.7,0.4-4.1c0.2-0.9,0.6-1.7,1.2-2.3c0.6-0.8,1.4-1.5,2.3-1.9
	c1-0.5,2.1-0.7,3.2-0.7L104.7,52.6z"/>
</svg>
