<?xml version="1.0" encoding="utf-8"?>
<!-- Generator: Adobe Illustrator 24.0.0, SVG Export Plug-In . SVG Version: 6.00 Build 0)  -->
<svg version="1.1" id="图层_1" xmlns="http://www.w3.org/2000/svg" xmlns:xlink="http://www.w3.org/1999/xlink" x="0px" y="0px"
	 viewBox="0 0 128 128" enable-background="new 0 0 128 128" xml:space="preserve">
<title>gmult-112</title>
<path fill="#E0E0E0" d="M20,8h88c6.6,0,12,5.4,12,12v88c0,6.6-5.4,12-12,12H20c-6.6,0-12-5.4-12-12V20C8,13.4,13.4,8,20,8z"/>
<rect x="16.3" y="16.3" fill="#FFFFFF" width="48.4" height="48.4"/>
<rect x="63.4" y="63.4" fill="#FFFFFF" width="48.4" height="48.4"/>
<path d="M48.5,32.5l-6.2,19h-3.9l-5.8-19l-0.1,0.1v18.9H28V29.4h7.8l4.7,16.1h0.1l5-16.1H53v22.1h-4.4L48.5,32.5L48.5,32.5z"/>
<path d="M84.3,98.6h-4.7V76.5h6.8c6-0.1,9,2.2,9,6.8c-0.2,4.3-2.7,6.6-7.6,6.8h-3.5C84.3,90.1,84.3,98.6,84.3,98.6z M84.3,80.2v6.2
	c0.2,0,0.7,0,1.4,0.1c3.2,0.3,4.7-0.8,4.7-3.2c0-2.2-1.5-3.2-4.7-3.1C85.3,80.3,84.8,80.3,84.3,80.2z"/>
<polygon points="50.1,85.4 41.2,85.4 41.2,76.4 36.9,76.4 36.9,85.4 28,85.4 28,89.6 36.9,89.6 36.9,98.6 41.2,98.6 41.2,89.6 
	50.1,89.6 "/>
<polygon points="95.4,32.1 92.1,29.5 86.9,36 81.8,29.4 78.4,32 84.2,39.5 78.3,46.8 81.7,49.5 86.9,42.9 92,49.5 95.3,46.9 
	89.6,39.5 "/>
<path d="M108.2,66.9v41.2H66.9V66.9H108.2 M111.7,63.4H63.4v48.4h48.4C111.7,111.7,111.7,63.4,111.7,63.4z"/>
<path d="M61.1,19.8V61H19.8V19.8H61.1 M64.6,16.3H16.3v48.4h48.4L64.6,16.3L64.6,16.3z"/>
</svg>
