<svg id="图层_1" data-name="图层 1" xmlns="http://www.w3.org/2000/svg" viewBox="0 0 128 128"><defs><style>.cls-1{fill:#e0e0e0;}.cls-2{fill:#fff;}</style></defs><title>gmult-112</title><rect class="cls-1" x="8" y="8" width="112" height="112" rx="12" ry="12"/><rect class="cls-2" x="16.27" y="16.27" width="48.36" height="48.36"/><rect class="cls-2" x="63.36" y="63.36" width="48.36" height="48.36"/><path d="M48.51,32.52l-6.21,19H38.37l-5.85-19-.12.12V51.49H28V29.42h7.75l4.65,16.11h.12l5-16.11h7.39V51.49H48.51v-19Z"/><path d="M84.32,98.58H79.67V76.51h6.8q9-.12,9,6.8-.24,6.45-7.64,6.8H84.32Zm0-18.37v6.2q.36,0,1.44.12,4.77.48,4.65-3.22,0-3.23-4.65-3.1A4.08,4.08,0,0,1,84.32,80.21Z"/><polygon points="50.13 85.39 41.18 85.39 41.18 76.44 36.94 76.44 36.94 85.39 27.99 85.39 27.99 89.63 36.94 89.63 36.94 98.58 41.18 98.58 41.18 89.63 50.13 89.63 50.13 85.39"/><polygon points="95.42 32.1 92.1 29.47 86.9 36.03 81.76 29.42 78.41 32.02 84.19 39.45 78.34 46.82 81.66 49.45 86.86 42.89 92 49.51 95.34 46.91 89.57 39.48 95.42 32.1"/><path d="M108.16,66.93v41.23H66.93V66.93h41.23m3.57-3.57H63.36v48.37h48.37V63.36Z"/><path d="M61.07,19.84V61.07H19.84V19.84H61.07m3.57-3.57H16.27V64.64H64.64V16.27Z"/></svg>