<svg xmlns="http://www.w3.org/2000/svg" xmlns:xlink="http://www.w3.org/1999/xlink" viewBox="0 0 128 128"><defs><style>.cls-1{fill:url(#未命名的渐变_30);}.cls-2{fill:#fff;}.cls-3{fill:#f8f8f8;}.cls-4{fill:#e2e2e2;}.cls-5{fill:#049604;}.cls-6{fill:#ee333a;}.cls-7{fill:#1b5eb5;}</style><linearGradient id="未命名的渐变_30" x1="64" y1="8" x2="64" y2="120" gradientUnits="userSpaceOnUse"><stop offset="0" stop-color="#f68a1e"/><stop offset="1" stop-color="#ea7206"/></linearGradient></defs><title>128</title><g id="福昕"><g id="_128" data-name="128"><rect class="cls-1" x="8" y="8" width="112" height="112" rx="12"/><path class="cls-2" d="M103.76,54.89a.13.13,0,0,0,.24-.09C103.32,50.7,98.18,27,70.18,27a45.48,45.48,0,0,0-33,13.64C29.07,49,24,60.68,24,75.47c0,9.66,5.65,18.74,13.89,23.73,7.42,4.5,17.16,5.38,23,5.38,8.76,0,35.17-7.38,35.17-33.28,0-9.14-6-15.64-6-13.52s-.75,9.64-.75,9.64S84.44,59.79,82.69,59s3.5,19.9-19.4,16.77c-3.22-.44,7,10.39,16.65,9,3-.42-6.64,6.54-15.9,5.76s-17.14-8-17.14-19.4S58.41,46,74.43,46c10,0,13.64,4.63,15.52,6.51.53.53,1.44-8.64-16.27-15.64,0,0,10.17-.6,17.26,4C98.33,45.72,102,52.06,103.76,54.89Z"/></g></g><g id="扫雷"><g id="_128-2" data-name="128"><rect class="cls-3" x="10" y="10" width="108" height="108" rx="10"/><path class="cls-4" d="M108,12a8,8,0,0,1,8,8v88a8,8,0,0,1-8,8H20a8,8,0,0,1-8-8V20a8,8,0,0,1,8-8h88m0-4H20A12,12,0,0,0,8,20v88a12,12,0,0,0,12,12h88a12,12,0,0,0,12-12V20A12,12,0,0,0,108,8Z"/><path class="cls-4" d="M64,64h56a0,0,0,0,1,0,0v44a12,12,0,0,1-12,12H64a0,0,0,0,1,0,0V64A0,0,0,0,1,64,64Z"/><rect class="cls-4" x="62" y="8" width="4" height="112"/><rect class="cls-4" x="8" y="62" width="112" height="4"/><polygon class="cls-5" points="28 17 28 57 33 57 33 37 55 37 28 17"/><path class="cls-6" d="M105.37,96,112,92l-6.62-4h0a13.76,13.76,0,0,0-1.09-2.66h0L106,78l-7.34,1.68h0A13.76,13.76,0,0,0,96,78.59h0L92,72l-4,6.59h0a13.76,13.76,0,0,0-2.66,1.09h0L78,78l1.68,7.34h0A13.76,13.76,0,0,0,78.59,88h0L72,92l6.64,4h0a13.76,13.76,0,0,0,1.09,2.66h0L77.92,106l7.42-1.64h0A13.76,13.76,0,0,0,88,105.41v0L92,112l4-6.54v0a13.76,13.76,0,0,0,2.66-1.09h0L106,106l-1.68-7.34h0A13.76,13.76,0,0,0,105.41,96Z"/><polygon class="cls-7" points="40 105 40 74 28 74 28 79 35 79 35 105 28 105 28 110 47 110 47 105 40 105"/></g></g></svg>