<?xml version="1.0" encoding="utf-8"?>
<!-- Generator: Adobe Illustrator 24.0.0, SVG Export Plug-In . SVG Version: 6.00 Build 0)  -->
<svg version="1.1" id="声音" xmlns="http://www.w3.org/2000/svg" xmlns:xlink="http://www.w3.org/1999/xlink" x="0px" y="0px"
	 viewBox="0 0 128 128" enable-background="new 0 0 128 128" xml:space="preserve">
<title>128</title>
<g id="_128">
	<path fill="#34495C" d="M20,8h88c6.6,0,12,5.4,12,12v88c0,6.6-5.4,12-12,12H20c-6.6,0-12-5.4-12-12V20C8,13.4,13.4,8,20,8z"/>
	<path fill="#4DDDFF" d="M112,60L112,60c1.1,0,2,0.9,2,2v4c0,1.1-0.9,2-2,2l0,0c-1.1,0-2-0.9-2-2v-4C110,60.9,110.9,60,112,60z"/>
	<path fill="#4DDDFF" d="M104,56L104,56c1.1,0,2,0.9,2,2v12c0,1.1-0.9,2-2,2l0,0c-1.1,0-2-0.9-2-2V58C102,56.9,102.9,56,104,56z"/>
	<path fill="#4DDDFF" d="M96,49L96,49c1.1,0,2,0.9,2,2v26c0,1.1-0.9,2-2,2l0,0c-1.1,0-2-0.9-2-2V51C94,49.9,94.9,49,96,49z"/>
	<path fill="#4DDDFF" d="M80,49L80,49c1.1,0,2,0.9,2,2v26c0,1.1-0.9,2-2,2l0,0c-1.1,0-2-0.9-2-2V51C78,49.9,78.9,49,80,49z"/>
	<path fill="#4DDDFF" d="M88,37L88,37c1.1,0,2,0.9,2,2v50c0,1.1-0.9,2-2,2l0,0c-1.1,0-2-0.9-2-2V39C86,37.9,86.9,37,88,37z"/>
	<path fill="#4DDDFF" d="M72,56L72,56c1.1,0,2,0.9,2,2v12c0,1.1-0.9,2-2,2l0,0c-1.1,0-2-0.9-2-2V58C70,56.9,70.9,56,72,56z"/>
	<path fill="#4DDDFF" d="M64,49L64,49c1.1,0,2,0.9,2,2v26c0,1.1-0.9,2-2,2l0,0c-1.1,0-2-0.9-2-2V51C62,49.9,62.9,49,64,49z"/>
	<path fill="#4DDDFF" d="M56,37L56,37c1.1,0,2,0.9,2,2v50c0,1.1-0.9,2-2,2l0,0c-1.1,0-2-0.9-2-2V39C54,37.9,54.9,37,56,37z"/>
	<path fill="#4DDDFF" d="M16,60L16,60c1.1,0,2,0.9,2,2v4c0,1.1-0.9,2-2,2l0,0c-1.1,0-2-0.9-2-2v-4C14,60.9,14.9,60,16,60z"/>
	<path fill="#4DDDFF" d="M24,56L24,56c1.1,0,2,0.9,2,2v12c0,1.1-0.9,2-2,2l0,0c-1.1,0-2-0.9-2-2V58C22,56.9,22.9,56,24,56z"/>
	<path fill="#4DDDFF" d="M32,49L32,49c1.1,0,2,0.9,2,2v26c0,1.1-0.9,2-2,2l0,0c-1.1,0-2-0.9-2-2V51C30,49.9,30.9,49,32,49z"/>
	<path fill="#4DDDFF" d="M40,37L40,37c1.1,0,2,0.9,2,2v50c0,1.1-0.9,2-2,2l0,0c-1.1,0-2-0.9-2-2V39C38,37.9,38.9,37,40,37z"/>
	<path fill="#4DDDFF" d="M48,28L48,28c1.1,0,2,0.9,2,2v68c0,1.1-0.9,2-2,2l0,0c-1.1,0-2-0.9-2-2V30C46,28.9,46.9,28,48,28z"/>
</g>
</svg>
