<svg id="图层_1" data-name="图层 1" xmlns="http://www.w3.org/2000/svg" viewBox="0 0 128 128"><defs><style>.cls-1{fill:none;}.cls-10,.cls-2{fill:#476f9b;}.cls-3{fill:#fdfffc;}.cls-4{fill:#5988bb;}.cls-5,.cls-9{fill:#f6e0d7;}.cls-6{fill:#d15d46;}.cls-7{fill:#344f70;}.cls-8{fill:#8eaac9;}.cls-9{opacity:0.75;}.cls-10{opacity:0.9;}.cls-11{fill:#e1e7ea;}.cls-12{fill:#acaca8;}.cls-13{fill:#2f281f;}.cls-14{fill:#2b3ba1;}.cls-15{fill:#90beff;}</style></defs><title>gnome-commander-112</title><polygon class="cls-1" points="103.54 115.66 103.54 109.73 103.54 79.13 24.46 79.13 24.46 111.75 24.46 115.66 24.46 118.23 103.54 118.23 103.54 115.66"/><polygon points="117 9.5 11 9.5 11 118.5 24.46 118.5 24.46 118.23 24.46 115.66 13.83 115.66 13.83 12.34 114.17 12.34 114.17 115.66 103.54 115.66 103.54 118.23 103.54 118.5 117 118.5 117 9.5"/><polygon class="cls-2" points="24.46 79.13 103.54 79.13 103.54 109.73 103.54 115.66 114.17 115.66 114.17 12.34 13.83 12.34 13.83 115.66 24.46 115.66 24.46 111.75 24.46 79.13"/><rect class="cls-3" x="18.91" y="12.34" width="90.18" height="59"/><path class="cls-4" d="M106.26,15.06V68.63H21.74V15.06h84.52m2.83-2.72H18.91v59h90.18v-59Z"/><rect class="cls-5" x="21.74" y="12.34" width="84.52" height="2.71"/><rect class="cls-6" x="21.74" y="15.06" width="84.52" height="2.71"/><rect class="cls-2" x="24.46" y="79.84" width="79.09" height="34.09"/><path class="cls-7" d="M101.18,81.53V113.7H26.82V81.53h74.36m2.36-2.4H24.46v37h79.08v-37Z"/><rect x="24.46" y="113.7" width="79.09" height="2.4"/><rect class="cls-8" x="26.82" y="81.53" width="2.24" height="32.16"/><rect class="cls-9" x="21.74" y="12.34" width="2.83" height="56.29"/><rect class="cls-9" x="21.74" y="65.79" width="84.52" height="2.84"/><rect class="cls-10" x="103.54" y="12.34" width="2.83" height="56.29"/><rect class="cls-11" x="41.34" y="79.13" width="59.84" height="39.37"/><path d="M98.82,81.5v34.63H43.7V81.5H98.82m2.36-2.37H41.34V118.5h59.84V79.13Z"/><rect class="cls-2" x="71.26" y="85.13" width="16.29" height="27.37"/><path d="M85.19,87.5v22.63H73.62V87.5H85.19m2.36-2.37H71.26V112.5H87.55V85.13Z"/><rect class="cls-8" x="43.7" y="81.5" width="2.24" height="34.63"/><rect class="cls-8" x="43.7" y="113.97" width="55.12" height="2.25"/><rect class="cls-12" x="31.54" y="29.55" width="64.92" height="2.84"/><ellipse class="cls-13" cx="31.54" cy="30.97" rx="1.42" ry="1.42"/><ellipse class="cls-13" cx="96.46" cy="30.97" rx="1.42" ry="1.42"/><rect class="cls-12" x="31.54" y="43.45" width="64.92" height="2.84"/><ellipse class="cls-13" cx="31.54" cy="44.87" rx="1.42" ry="1.42"/><ellipse class="cls-13" cx="96.46" cy="44.87" rx="1.42" ry="1.42"/><rect class="cls-12" x="31.54" y="57.35" width="64.92" height="2.84"/><ellipse class="cls-13" cx="31.54" cy="58.77" rx="1.42" ry="1.42"/><ellipse class="cls-13" cx="96.46" cy="58.77" rx="1.42" ry="1.42"/><path class="cls-14" d="M61,36.51a22.12,22.12,0,0,1,12.63,4.17,18,18,0,0,1,7.11,10.66,18.18,18.18,0,0,1-2.08,12.19,21.87,21.87,0,0,1-6.56,7.57c-2.63,2-5.32,4.11-9.41,4.4l-.93,0a14.8,14.8,0,0,1-13.51-9.26c-.6-1.49-1.45-3.31-.44-5.16A3.48,3.48,0,0,1,50,59.57a5.44,5.44,0,0,1,1.53-.22,7.46,7.46,0,0,1,3.65,1c1.12.74,1.89,1.76,2.88,4.32,1,2.74,2.16,2.71,3.21,3.11a3.5,3.5,0,0,0,1.24.22,4.88,4.88,0,0,0,2.15-.55A4.44,4.44,0,0,0,67,64a4.67,4.67,0,0,0-1.43-3.63,27.19,27.19,0,0,0-4.15-3.15c-1.56-1.07-1.17-.86-3.61-2.78-2-1.52-2.45-1.74-5-3.73-2.43-1.88-2.94-2.41-3.39-3.19a5.63,5.63,0,0,1-.87-4,5.64,5.64,0,0,1,1.86-2.86A14.64,14.64,0,0,1,56,37.28a16.27,16.27,0,0,1,5-.77m0-2a18,18,0,0,0-5.58.86A16.4,16.4,0,0,0,49,39.27a7.89,7.89,0,0,0-2.41,3.86,7.59,7.59,0,0,0,1.1,5.36c.66,1.12,1.38,1.82,3.9,3.76,1.33,1,2.13,1.6,2.84,2.1s1.25.9,2.17,1.62,1.39,1.09,1.75,1.39c.66.53.91.73,2,1.46l1.11.77a17.86,17.86,0,0,1,2.81,2.18,2.71,2.71,0,0,1,.81,2,2.45,2.45,0,0,1-1.26,1.92,2.88,2.88,0,0,1-1.22.32A1.33,1.33,0,0,1,62,66l-.54-.18c-.64-.21-1-.31-1.53-1.79-1.07-2.78-2.06-4.21-3.63-5.26a9.32,9.32,0,0,0-4.74-1.35,7.25,7.25,0,0,0-2.1.3l-.06,0a5.31,5.31,0,0,0-3.29,2.46c-1.4,2.57-.41,5,.24,6.6l.1.25a16.8,16.8,0,0,0,15.34,10.5c.35,0,.71,0,1.07,0,4.68-.33,7.75-2.7,10.47-4.8a23.84,23.84,0,0,0,7.12-8.24,20.18,20.18,0,0,0,2.25-13.49,18.36,18.36,0,0,0-3.92-8.11A23.63,23.63,0,0,0,61,34.54Z"/><path class="cls-15" d="M49.35,47.49c.45.78,1,1.31,3.39,3.19,2.59,2,3.09,2.21,5,3.73,2.44,1.92,2,1.71,3.61,2.78a27.19,27.19,0,0,1,4.15,3.15A4.67,4.67,0,0,1,67,64a4.44,4.44,0,0,1-2.3,3.51,4.35,4.35,0,0,1-3.39.33c-1.05-.4-2.16-.37-3.21-3.11-1-2.56-1.76-3.58-2.88-4.32A6.94,6.94,0,0,0,50,59.57a3.48,3.48,0,0,0-2.19,1.54c-1,1.85-.16,3.67.44,5.16A14.77,14.77,0,0,0,62.7,75.5c4.09-.29,6.78-2.37,9.41-4.4a21.87,21.87,0,0,0,6.56-7.57,18.18,18.18,0,0,0,2.08-12.19,18,18,0,0,0-7.11-10.66A20.9,20.9,0,0,0,65.11,37a17.79,17.79,0,0,0-9.08.33,14.64,14.64,0,0,0-5.69,3.4,5.64,5.64,0,0,0-1.86,2.86A5.63,5.63,0,0,0,49.35,47.49Z"/><path class="cls-15" d="M40.74,20.91A5.68,5.68,0,0,0,42.12,24a24.57,24.57,0,0,0,4.52,4.51,6.19,6.19,0,0,0,2.66,1.14,3.51,3.51,0,0,0,2.89-.12c1.23-.86,1-2.94,1-3.73A9.33,9.33,0,0,0,51,21.17a8.12,8.12,0,0,0-2.71-2.78A7.13,7.13,0,0,0,44,17.62c-1.09.09-2.07.18-2.66.94A3.55,3.55,0,0,0,40.74,20.91Z"/><path class="cls-14" d="M45,17.56a6.7,6.7,0,0,1,3.3.83A8.12,8.12,0,0,1,51,21.17a9.33,9.33,0,0,1,2.13,4.62c.08.79.28,2.87-1,3.73a2.29,2.29,0,0,1-1.35.38,5.61,5.61,0,0,1-1.54-.26,6.19,6.19,0,0,1-2.66-1.14A24.57,24.57,0,0,1,42.12,24a5.68,5.68,0,0,1-1.38-3.08,3.55,3.55,0,0,1,.59-2.35c.59-.76,1.57-.85,2.66-.94a8.69,8.69,0,0,1,1-.06m0-2.13c-.5,0-.92,0-1.19.06a5.34,5.34,0,0,0-4.17,1.78,5.63,5.63,0,0,0-1,4h0a7.67,7.67,0,0,0,1.79,4.05,25.7,25.7,0,0,0,4.8,4.8l.1.08a7.44,7.44,0,0,0,3.09,1.44l.29.07a7.67,7.67,0,0,0,2.12.35,4.36,4.36,0,0,0,2.57-.77c2.25-1.58,1.94-4.68,1.84-5.69a11.12,11.12,0,0,0-2.52-5.66,10.05,10.05,0,0,0-3.4-3.4A8.81,8.81,0,0,0,45,15.43Z"/><path class="cls-15" d="M64.41,20.83a1.23,1.23,0,0,0-1.15.82c0,.12-.1.25-.15.41-.39,1.16-1,3.09-.23,4.74.17.36.54,1.12,1.23,1.24a2,2,0,0,0,1.83-1.12,4,4,0,0,0,.77-2.67,5.45,5.45,0,0,0-.85-2.9C65.73,21.19,65.45,20.83,64.41,20.83Z"/><path class="cls-14" d="M64.43,20.83c1,0,1.3.36,1.43.52a5.45,5.45,0,0,1,.85,2.9,4,4,0,0,1-.77,2.67,2.13,2.13,0,0,1-1.63,1.14l-.2,0c-.69-.12-1.06-.88-1.23-1.24-.81-1.65-.16-3.58.23-4.74,0-.16.1-.29.15-.41a1.23,1.23,0,0,1,1.15-.82h0m0-2.13h0a3.36,3.36,0,0,0-3.13,2.2c-.06.15-.11.31-.17.48-.46,1.37-1.32,3.92-.13,6.36a4,4,0,0,0,2.77,2.4,3.66,3.66,0,0,0,.57.05A4.25,4.25,0,0,0,67.79,28a1.18,1.18,0,0,1,.11-.19,5.87,5.87,0,0,0,.94-3.54A7.48,7.48,0,0,0,67.5,20a3.68,3.68,0,0,0-3.07-1.3Z"/><path class="cls-15" d="M76.89,26.15a1.56,1.56,0,0,0-2.17-.06,4.59,4.59,0,0,0-.69.79c-1.08,1.55-1.3,4-.12,5.13a2.13,2.13,0,0,0,1.62.59,2.27,2.27,0,0,0,1.53-1.1c.45-.7.41-1.59.31-3.36-.07-1.34-.21-1.69-.47-2Z"/><path class="cls-14" d="M75.8,25.68a1.49,1.49,0,0,1,1.09.47v0c.26.28.4.63.47,2,.1,1.77.14,2.66-.31,3.36a2.27,2.27,0,0,1-1.53,1.1h-.2a2.24,2.24,0,0,1-1.42-.6c-1.18-1.12-1-3.58.12-5.13a4.59,4.59,0,0,1,.69-.79,1.64,1.64,0,0,1,1.08-.41m0-2.13a3.73,3.73,0,0,0-2.49.95,6.58,6.58,0,0,0-1,1.16c-1.56,2.24-1.94,5.9.16,7.9a4.29,4.29,0,0,0,2.88,1.19,3.15,3.15,0,0,0,.44,0,4.2,4.2,0,0,0,3.07-2.06c.83-1.28.76-2.61.66-4.63a4.9,4.9,0,0,0-1-3.3l0,0a3.63,3.63,0,0,0-2.64-1.14Z"/><path class="cls-15" d="M84.63,32.61a4.53,4.53,0,0,0-2.34,1.65,2.77,2.77,0,0,0-.59,2.49,2.35,2.35,0,0,0,1.77,1.42c1.71.29,2.94-1.68,3.07-1.89.69-1.14,1.11-3.07.24-3.68A2.57,2.57,0,0,0,84.63,32.61Z"/><path class="cls-14" d="M85.86,32.36a1.61,1.61,0,0,1,.92.24c.87.61.45,2.54-.24,3.68-.12.2-1.2,1.92-2.73,1.92l-.34,0a2.35,2.35,0,0,1-1.77-1.42,2.77,2.77,0,0,1,.59-2.49,4.53,4.53,0,0,1,2.34-1.65,3.39,3.39,0,0,1,1.23-.25m0-2.13a5.33,5.33,0,0,0-1.91.36A6.74,6.74,0,0,0,80.58,33a4.61,4.61,0,0,0-.87,4.49,4.48,4.48,0,0,0,3.41,2.79,5.34,5.34,0,0,0,.69,0c2.56,0,4.13-2.25,4.55-2.94,1.3-2.14,1.61-5.16-.37-6.54a3.66,3.66,0,0,0-2.13-.62Z"/></svg>