<?xml version="1.0" encoding="utf-8"?>
<!-- Generator: Adobe Illustrator 24.0.0, SVG Export Plug-In . SVG Version: 6.00 Build 0)  -->
<svg version="1.1" id="图层_1" xmlns="http://www.w3.org/2000/svg" xmlns:xlink="http://www.w3.org/1999/xlink" x="0px" y="0px"
	 viewBox="0 0 128 128" enable-background="new 0 0 128 128" xml:space="preserve">
<title>gnumeric128</title>
<path fill="#B7C5CE" d="M14,8h82c3.3,0,6,2.7,6,6v100c0,3.3-2.7,6-6,6H14c-3.3,0-6-2.7-6-6V14C8,10.7,10.7,8,14,8z"/>
<rect x="35" y="8" fill="#CFD8DC" width="5" height="112"/>
<rect x="70" y="8" fill="#CFD8DC" width="5" height="112"/>
<rect x="8" y="82" fill="#CFD8DC" width="94" height="5"/>
<rect x="8" y="97" fill="#CFD8DC" width="94" height="5"/>
<rect x="8" y="52" fill="#CFD8DC" width="94" height="5"/>
<rect x="8" y="67" fill="#CFD8DC" width="94" height="5"/>
<rect x="8" y="22" fill="#CFD8DC" width="94" height="5"/>
<rect x="8" y="37" fill="#CFD8DC" width="94" height="5"/>
<path fill="#E55C5C" d="M69.8,90.9L69.8,90.9C69.8,91.1,69.8,91,69.8,90.9z"/>
<path fill="#C62E2E" d="M49,82.5v10.6l0,0c0,0.2,0,0.4,0,0.6c0,10.9,10.6,20.8,23.3,24.8l2.2-10.7C59.8,104.6,49,94.5,49,82.5z"/>
<path fill="#E55C5C" d="M114.7,107.6l-3.5,3.5C112.4,110,113.6,108.8,114.7,107.6z"/>
<path fill="#F45151" d="M84.5,56.2C65,56.2,49.1,67.9,49,82.3v0.2c0,12,10.8,22.1,25.6,25.3l9.9-25.5l28.3-4.5l6.4-1
	C115.7,65,101.5,56.2,84.5,56.2z"/>
<path fill="#83C13A" d="M96.7,118.4l-4.3-10.3c-2.6,0.4-5.2,0.6-7.9,0.7c-3.3,0-6.7-0.3-9.9-1l-2.2,10.7c4,0.9,8.1,1.4,12.2,1.5
	C88.6,119.9,92.7,119.4,96.7,118.4z"/>
<path fill="#92DD47" d="M74.6,107.8c3.3,0.7,6.6,1,9.9,1c2.6,0,5.3-0.2,7.9-0.7l-7.9-25.8L74.6,107.8z"/>
<path fill="#168CDB" d="M120,93.7c0-0.2,0-0.4,0-0.6l0,0V82.5c0,12.5-11.7,22.9-27.4,25.6l4.4,10.2c5.2-1.2,10.1-3.7,14.2-7.3
	l3.5-3.5C118,103.7,119.9,98.8,120,93.7z"/>
<path fill="#2196F3" d="M120,82.3L120,82.3z"/>
<path fill="#2196F3" d="M116.5,82.3h3.5c0-1.9-0.3-3.7-0.8-5.5l-6.4,1C114.2,79.2,115.4,80.7,116.5,82.3z"/>
<path fill="#2196F3" d="M116.5,82.3c-1.1-1.6-2.3-3.1-3.7-4.5l-28.3,4.5l8.1,25.8C108.3,105.4,120,95,120,82.5v-0.2H116.5z"/>
<path fill="#2196F3" d="M96.7,118.4l0.3-0.1l-4.4-10.2h-0.2L96.7,118.4z"/>
<path fill="#2196F3" d="M92.4,108.2h0.2l-8.1-25.8L92.4,108.2z"/>
</svg>
