<svg id="图层_1" data-name="图层 1" xmlns="http://www.w3.org/2000/svg" xmlns:xlink="http://www.w3.org/1999/xlink" viewBox="0 0 128 128"><defs><style>.cls-1{fill:#e65100;}.cls-2{fill:#bf360c;}.cls-3{fill:#ad2c0e;}.cls-4{fill:#fbc02d;}.cls-5{fill:url(#未命名的渐变_71);}.cls-6{fill:url(#未命名的渐变_68);}.cls-7{fill:gray;}.cls-8{fill:#666;}.cls-9{fill:#999;}.cls-10{fill:url(#未命名的渐变_114);}.cls-11{fill:#e6e6e6;}.cls-12{fill:url(#未命名的渐变_116);}.cls-13{fill:#ccc;}</style><linearGradient id="未命名的渐变_71" x1="13.33" y1="59.06" x2="64.74" y2="59.06" gradientUnits="userSpaceOnUse"><stop offset="0.03" stop-color="#e6e6e6"/><stop offset="1" stop-color="#b3b3b3"/></linearGradient><linearGradient id="未命名的渐变_68" x1="115.64" y1="59.06" x2="64.23" y2="59.06" gradientUnits="userSpaceOnUse"><stop offset="0.03" stop-color="#e6e6e6"/><stop offset="1" stop-color="#ccc"/></linearGradient><linearGradient id="未命名的渐变_114" x1="10.74" y1="108.73" x2="117.99" y2="108.73" gradientUnits="userSpaceOnUse"><stop offset="0" stop-color="#ccc"/><stop offset="0.5" stop-color="#4d4d4d"/><stop offset="1" stop-color="#ccc"/></linearGradient><linearGradient id="未命名的渐变_116" x1="115.61" y1="60.48" x2="64.19" y2="60.48" gradientUnits="userSpaceOnUse"><stop offset="0.4" stop-color="#e6e6e6"/><stop offset="1" stop-color="#ccc"/></linearGradient></defs><title>goldendict128</title><path class="cls-1" d="M114.59,30.89,100.64,17h-82a3.88,3.88,0,0,0-4,3.2L6.74,91.93l19.73,19.63h75.78l19.08-19Z"/><path class="cls-2" d="M68.37,15.85a8.66,8.66,0,0,1-4.16,1A9.64,9.64,0,0,1,60.4,16l-2.66,95.67h0v.11h0c.21.76,3,1.37,6.46,1.37s6.22-.6,6.45-1.36h0Z"/><path class="cls-3" d="M67.21,15.85a4.68,4.68,0,0,1-2.89,1A5.16,5.16,0,0,1,61.66,16l-1.85,95.67h0v.11h0c.14.76,2.1,1.37,4.5,1.37s4.33-.6,4.49-1.36h0Z"/><path class="cls-4" d="M123,107.69l-1.65-15.11-19.08,19h16.69C121.34,111.56,123.21,109.77,123,107.69Z"/><path class="cls-4" d="M5,107.69c-.23,2.08,1.64,3.87,4,3.87H26.47L6.74,91.93Z"/><path class="cls-4" d="M113.43,20.28A4,4,0,0,0,109.32,17h-8.68l14,13.87Z"/><path class="cls-4" d="M14.5,20.28A4,4,0,0,1,18.61,17h8.68L13.34,30.89Z"/><path class="cls-5" d="M64.74,18.56l-.25,78.35s-7.69-3.75-13.75-3.24c-11.75,1-33.25,11-37.25,9.46-1.36-.51,6-83.37,7.5-83.07,3.75.74,24.5-5.23,33.5-5.23C61.24,14.83,64,17.32,64.74,18.56Z"/><path class="cls-6" d="M64.23,18.56l.25,78.35s7.69-3.75,13.75-3.24c11.75,1,33.25,11,37.25,9.46,1.36-.51-6-83.37-7.5-83.07-3.75.74-24.5-5.23-33.5-5.23C67.73,14.83,65,17.32,64.23,18.56Z"/><path class="cls-7" d="M109.53,20.56a.94.94,0,0,0-.08-.15l-3.21-.12A18,18,0,0,0,109.53,20.56Z"/><path class="cls-7" d="M10.86,108.42a.31.31,0,0,1,.09-.07c0-.34,0-.73,0-1.15C10.93,107.71,10.89,108.11,10.86,108.42Z"/><path class="cls-7" d="M17.22,31.51c.57-5,1.07-8.61,1.43-10.17C18.29,22.25,17.79,26,17.22,31.51Z"/><path class="cls-8" d="M50.13,100.37c-8,.7-20.34,5.52-29.13,8.35,11.32-.31,29.24-1.74,39.28-2.5a3.52,3.52,0,0,1,2.49-3.14C60.05,101.93,54.66,100,50.13,100.37Z"/><path class="cls-8" d="M65.85,103.25a3.45,3.45,0,0,1,1.93,3c10.15.86,29.69,2.55,41.21,2.8-8.84-2.78-21.78-7.93-30.08-8.65C74.14,100,68.41,102.14,65.85,103.25Z"/><path class="cls-9" d="M62.94,18.84v-.16l1.4.05a3,3,0,0,1,.18-.25c-1.08-1.42-4-3.65-10.46-3.65-9.43,0-31.15,6.48-35.08,5.67-.09,0-.2.28-.33.84l.06-.14Z"/><path class="cls-9" d="M11,107.2c.88-9.69,4.1-55,6.25-75.69C14.88,52,11.28,94.81,11,107.2Z"/><path class="cls-9" d="M64.53,103.87Z"/><path class="cls-9" d="M64.47,102.91l-.18-84,.09-.16-1.4,0v.15L18.75,21.19a.64.64,0,0,0-.06.14c-.36,1.56-.86,5.2-1.44,10.16-2.17,20.71-5.43,66-6.32,75.68,0,.43,0,.81,0,1.16a.39.39,0,0,1,.24,0c1.25.44,4.91.52,9.81.39,8.79-2.82,21.13-7.63,29.14-8.32C54.63,100,60,102,62.74,103.1a4.56,4.56,0,0,1,1.39-.21Z"/><path class="cls-9" d="M64.51,103.87h0Z"/><path class="cls-9" d="M64.77,18.74l1.11-.06v.1l40.37,1.51C98.51,19.13,82.66,14.83,75,14.83c-6.42,0-9.38,2.23-10.46,3.65a3.1,3.1,0,0,1,.18.26Z"/><path class="cls-9" d="M118,108.37s-6.47-83.17-8.46-87.81a18,18,0,0,1-3.29-.27L65.87,18.78v-.1l-1.11.06H64.7l.09.14-.26,84a3.68,3.68,0,0,1,1.32.36c2.56-1.11,8.29-3.3,13.06-2.88,8.3.72,21.24,5.87,30.08,8.65C113.92,109.13,117.38,109,118,108.37Z"/><path class="cls-9" d="M64.7,18.74a3.1,3.1,0,0,0-.18-.26,3,3,0,0,0-.18.25Z"/><path class="cls-9" d="M64.25,18.88l.26,84h0l.26-84-.09-.14h-.36A1.19,1.19,0,0,0,64.25,18.88Z"/><path class="cls-10" d="M10.74,108.67c0,.59,0,.47.12-.25A.37.37,0,0,0,10.74,108.67Z"/><path class="cls-11" d="M64.71,18.68l-.25,80.88s-7.69-3.87-13.75-3.34c-11.75,1-33.25,11.3-37.25,9.76-1.36-.53,6-86.06,7.5-85.76,3.75.78,24.5-5.39,33.5-5.39C61.21,14.83,64,17.4,64.71,18.68Z"/><path class="cls-12" d="M64.19,18.68l.25,80.88s7.69-3.87,13.75-3.34c11.75,1,33.25,11.3,37.25,9.76,1.37-.53-6-86.06-7.5-85.76-3.75.78-24.5-5.39-33.5-5.39C67.69,14.83,64.94,17.4,64.19,18.68Z"/><path class="cls-13" d="M22.19,30c3.78.62,19.21-5.84,28.24-6.52,4.72-.36,10.7,2.21,10.85,2.28v0h0l0,9.06s-6.07-2.65-10.85-2.29c-9.27.71-26,6.92-29.4,6.68C20.64,39.24,21.8,35.38,22.19,30Z"/><path class="cls-13" d="M20.38,47.84c3.95.71,20.1-6.69,29.55-7.47C54.87,40,61.12,42.91,61.27,43v0h0l0,10.38s-6.35-3-11.35-2.62c-9.7.81-27.24,7.92-30.76,7.65C18.76,58.4,20,54,20.38,47.84Z"/><path class="cls-13" d="M19.13,65.81c4.07.72,20.72-6.89,30.45-7.7,5.09-.42,11.53,2.62,11.69,2.69v0h0l0,10.69s-6.54-3.12-11.7-2.7c-10,.83-28.08,8.16-31.7,7.88C17.46,76.67,18.7,72.12,19.13,65.81Z"/><path class="cls-13" d="M17.88,83.48c4.19.88,21.33-8.36,31.35-9.34,5.25-.52,11.88,3.17,12,3.26v0h0l0,13s-6.74-3.79-12.05-3.27c-10.3,1-28.91,9.9-32.64,9.56C16.15,96.67,17.44,91.14,17.88,83.48Z"/><path class="cls-13" d="M106.6,30c-3.77.62-19.21-5.84-28.24-6.52-4.72-.36-10.7,2.21-10.84,2.28v0h0l0,9.06s6.07-2.65,10.85-2.29c9.28.71,26,6.92,29.4,6.68C108.15,39.24,107,35.38,106.6,30Z"/><path class="cls-13" d="M108.41,47.84c-4,.71-20.1-6.69-29.55-7.47C73.92,40,67.67,42.91,67.52,43v0h0l0,10.38s6.35-3,11.35-2.62c9.71.81,27.25,7.92,30.76,7.65C110,58.4,108.82,54,108.41,47.84Z"/><path class="cls-13" d="M109.66,65.81c-4.07.72-20.71-6.89-30.45-7.7-5.09-.42-11.53,2.62-11.69,2.69v0h0l0,10.69s6.54-3.12,11.7-2.7c10,.83,28.08,8.16,31.7,7.88C111.34,76.67,110.09,72.12,109.66,65.81Z"/><path class="cls-13" d="M110.92,83.48c-4.2.88-21.34-8.36-31.36-9.34-5.24-.52-11.88,3.17-12,3.26v0h0l0,13s6.74-3.79,12-3.27c10.3,1,28.91,9.9,32.65,9.56C112.64,96.67,111.35,91.14,110.92,83.48Z"/></svg>