<?xml version="1.0" encoding="utf-8"?>
<!-- Generator: Adobe Illustrator 24.0.0, SVG Export Plug-In . SVG Version: 6.00 Build 0)  -->
<svg version="1.1" id="gpick" xmlns="http://www.w3.org/2000/svg" xmlns:xlink="http://www.w3.org/1999/xlink" x="0px" y="0px"
	 viewBox="0 0 128 128" enable-background="new 0 0 128 128" xml:space="preserve">
<title>128</title>
<g id="_128">
	<circle fill="#FEFE00" cx="64" cy="64" r="59"/>
	<path fill="#67C902" d="M64,5C31.4,5,5,31.4,5,64h59V5z"/>
	<path fill="#0098BF" d="M64,123C31.4,123,5,96.6,5,64h59V123z"/>
	<path fill="#FF6203" d="M64,123c32.6,0,59-26.4,59-59H64V123z"/>
	<circle opacity="0.9" fill="#FFFFFF" enable-background="new    " cx="64" cy="64" r="40"/>
	<g id="吸管">
		<polygon fill="#0098BF" points="73.4,69.4 39.9,72.1 37.2,86.8 31.8,92.2 34.5,96.2 41.2,90.8 54.6,88.1 		"/>
		<path fill="#282828" d="M87,34.6c3.5,0,6.4,2.9,6.4,6.4c0,1.7-0.7,3.3-1.9,4.5L81.1,55.9L79,58.1l2.1,2.1l2.4,2.4
			c1.2,1.2,1.2,3.1,0,4.3c-1.2,1.2-3.1,1.2-4.3,0l0,0l-18-18c-1.2-1.2-1.2-3.1,0-4.2l0,0c1.2-1.2,3.1-1.2,4.3,0l2.4,2.4l2.1,2.1
			l2.1-2.1l10.4-10.4C83.7,35.3,85.3,34.6,87,34.6 M87,31.6c-2.5,0-4.9,1-6.6,2.7L69.9,44.8l-2.4-2.4c-2.4-2.4-6.2-2.4-8.6,0
			c-2.4,2.4-2.4,6.2,0,8.6l18,18c2.4,2.4,6.2,2.4,8.5,0c2.4-2.4,2.4-6.2,0-8.5L83,58.1l10.5-10.5c3.7-3.7,3.6-9.6,0-13.3
			C91.9,32.6,89.5,31.6,87,31.6L87,31.6z"/>
		<path fill="none" stroke="#282828" stroke-width="3" stroke-miterlimit="10" d="M61.4,51.4L39.6,73.2l-2.8,14.2L32,92.2
			c-0.5,0.5-0.5,1.4,0,1.9l1.9,1.9c0.5,0.5,1.4,0.5,1.9,0l4.8-4.7l14.2-2.8l21.8-21.8L61.4,51.4z"/>
	</g>
</g>
</svg>
