<svg id="图层_1" data-name="图层 1" xmlns="http://www.w3.org/2000/svg" xmlns:xlink="http://www.w3.org/1999/xlink" viewBox="0 0 128 128"><defs><style>.cls-1{fill:#f5f5f5;}.cls-2{fill:url(#未命名的渐变_81);}.cls-3{fill:url(#未命名的渐变_109);}.cls-4{fill:url(#未命名的渐变_133);}.cls-5{fill:#a4ad34;}.cls-6{fill:#ed722b;}.cls-7{fill:#ed6135;}.cls-8{fill:#d46135;}.cls-9{fill:url(#未命名的渐变_176);}.cls-10{fill:url(#未命名的渐变_176-2);}.cls-11{fill:url(#未命名的渐变_176-3);}.cls-12{fill:#4a148c;}.cls-13{fill:#8b6ad3;}.cls-14{fill:#4b0067;}.cls-15{fill:#bdaae8;}.cls-16{fill:#945cff;opacity:0.38;}.cls-17{fill:#fff;}</style><linearGradient id="未命名的渐变_81" x1="62.77" y1="-26.3" x2="62.77" y2="-73.3" gradientTransform="translate(5.68 109.4) rotate(-12.95)" gradientUnits="userSpaceOnUse"><stop offset="0" stop-color="#cce0f4"/><stop offset="0" stop-color="#cadbeb"/><stop offset="0" stop-color="#c5ccd1"/><stop offset="0" stop-color="#bdb5a8"/><stop offset="0" stop-color="#b2956f"/><stop offset="0" stop-color="#aa7d45"/><stop offset="0.55" stop-color="#a69693"/><stop offset="0.89" stop-color="#4264a1"/></linearGradient><linearGradient id="未命名的渐变_109" x1="66.05" y1="80.66" x2="66.05" y2="33.68" gradientUnits="userSpaceOnUse"><stop offset="0" stop-color="#cce0f4"/><stop offset="0" stop-color="#cad9eb"/><stop offset="0" stop-color="#c5c5d1"/><stop offset="0" stop-color="#bca4a8"/><stop offset="0" stop-color="#b1786f"/><stop offset="0" stop-color="#aa5f4f"/><stop offset="0.48" stop-color="#b26945"/><stop offset="0.89" stop-color="#b98d50"/></linearGradient><linearGradient id="未命名的渐变_133" x1="121.63" y1="174.77" x2="121.63" y2="127.77" gradientTransform="translate(-7.91 -106.6) rotate(12.34)" gradientUnits="userSpaceOnUse"><stop offset="0" stop-color="#cce0f4"/><stop offset="0" stop-color="#cdddeb"/><stop offset="0" stop-color="#d0d5d1"/><stop offset="0" stop-color="#d5c8a7"/><stop offset="0" stop-color="#dcb66e"/><stop offset="0" stop-color="#e59f25"/><stop offset="0" stop-color="#e99300"/><stop offset="0.1" stop-color="#e29e1b"/><stop offset="0.48" stop-color="#c9c57f"/><stop offset="0.89" stop-color="#3f88da"/></linearGradient><linearGradient id="未命名的渐变_176" x1="121.88" y1="151.47" x2="121.88" y2="141.01" gradientTransform="translate(-7.91 -106.6) rotate(12.34)" gradientUnits="userSpaceOnUse"><stop offset="0" stop-color="#cce0f4"/><stop offset="0" stop-color="#cddeeb" stop-opacity="0.98"/><stop offset="0" stop-color="#d1d8d4" stop-opacity="0.92"/><stop offset="0" stop-color="#d7cfaf" stop-opacity="0.83"/><stop offset="0" stop-color="#e0c27b" stop-opacity="0.7"/><stop offset="0" stop-color="#ebb239" stop-opacity="0.54"/><stop offset="0" stop-color="#edaf2b" stop-opacity="0.5"/><stop offset="0.08" stop-color="#edaf2b" stop-opacity="0.58"/><stop offset="0.55" stop-color="#edaf2b"/><stop offset="0.89" stop-color="#edaf2b"/></linearGradient><linearGradient id="未命名的渐变_176-2" x1="125.35" y1="151.82" x2="125.35" y2="145.79" xlink:href="#未命名的渐变_176"/><linearGradient id="未命名的渐变_176-3" x1="118.29" y1="151.81" x2="118.29" y2="146.74" xlink:href="#未命名的渐变_176"/></defs><title>gthumb-112</title><polygon class="cls-1" points="97.3 64.12 25.82 80.6 14.1 29.48 85.58 13 97.3 64.12"/><polygon class="cls-2" points="93.79 62.12 28.11 77.26 17.61 31.48 83.29 16.34 93.79 62.12"/><rect class="cls-1" x="29.37" y="30.94" width="73.35" height="52.45"/><rect class="cls-3" x="32.35" y="33.68" width="67.39" height="46.97"/><polygon class="cls-1" points="108.82 100.64 37.17 84.92 48.34 33.68 120 49.4 108.82 100.64"/><polygon class="cls-4" points="106.5 97.32 40.66 82.88 50.67 37 116.51 51.44 106.5 97.32"/><path class="cls-5" d="M66.39,60.71c.86-1.63-.17-2.28.81-5.13A8.48,8.48,0,0,1,70,51.33a6.61,6.61,0,0,1,4.39-1.49c3.12.18,5,2.9,5.28,3.23,1.49,2.16,1.2,4.22,2.47,4.55.62.16.89-.29,2-.65a10.92,10.92,0,0,1,6.43.45,8.87,8.87,0,0,1,3.71,2.7,7.56,7.56,0,0,1,2.28,5,5.39,5.39,0,0,1-.9,3.42c-.68.89-1.46,1.76-1.46,1.76a19.31,19.31,0,0,1,1.57,1.58c1.56,1.78,1.92,2.25,1.94,4.5a7.31,7.31,0,0,1-1.17,4.23c-.23.46-2.84,5.23-4.19,4.84-.41-.13-.63-.78-1.08-2.09a5.53,5.53,0,0,0-1.15-2.35c-.69-.73-.92-1-2.78-1.44-4.37-1.13-4.61-1.82-5.83-1.43-.82.26-1.19,0-3.06,2.41-1.14,1.46-1.6,1.94-2.86,1.84-2.18-.19-4.37-3.56-5.32-5.87C69.16,74,69.27,72.2,68.3,72c-.79-.18-1.29.93-2.74,2-2.88,2.17-7.28,2.61-8.32,1.18a4,4,0,0,1-.9-3.83c.46-2.21,1.86-5.2,3.37-6.41C62.53,62.66,65,63.41,66.39,60.71Z"/><path class="cls-6" d="M76.29,58.47c.41-.25,1.26-2.5,3.56-4a5,5,0,0,1,3.9-1c2,.56,3.28,3.14,3.48,5.15.18,1.73.22,3.59.22,3.59s1,.54,2.69,1.36a14.52,14.52,0,0,1,3.91,2.86c1,1.08,1.85,1.93,1.63,2.74-.27,1-2,1.48-3.11,1.55-1.66.11-3.17-.59-5.31-.62a1.45,1.45,0,0,0-1.15.36,1.53,1.53,0,0,0-.26,1.17c.13,1.28.25,2.56.31,3.85a17.26,17.26,0,0,1-.2,4.11A14,14,0,0,1,84.85,84c-.27.57-.41.86-.57.88-1.22.15-5-6.79-6.61-10.54a1,1,0,0,0-1.42-.54C74.41,75,73.84,75.17,71,76.71c-2.17,1.19-3.42,2.32-4.17,1.86-1-.59-.4-3.12-.11-4.41a14.29,14.29,0,0,1,1.8-4.38,22.54,22.54,0,0,1,2.65-3.35c.37-.48-.37-1.23-1.33-1.67a14.55,14.55,0,0,1-4.42-2.59c-.31-.29-1.74-1.64-1.41-2.69.47-1.49,4.21-1.53,5.25-1.55A37.53,37.53,0,0,1,76.29,58.47Z"/><ellipse class="cls-7" cx="79.49" cy="65.96" rx="4.74" ry="5.78" transform="translate(-2.12 129.28) rotate(-77.49)"/><ellipse class="cls-8" cx="79.09" cy="67.78" rx="2.88" ry="5.31" transform="translate(-4.09 130.48) rotate(-77.6)"/><path class="cls-9" d="M78.54,67.35h0a.47.47,0,0,1-.32-.56l2.55-9.22a.45.45,0,0,1,.86.24L79.07,67A.44.44,0,0,1,78.54,67.35Z"/><path class="cls-10" d="M80.56,68.15a.43.43,0,0,1-.21-.11.45.45,0,0,1,0-.64l4.18-4.33a.45.45,0,1,1,.64.63L81,68A.46.46,0,0,1,80.56,68.15Z"/><path class="cls-11" d="M76.53,67.27a.43.43,0,0,1-.32-.28l-1.75-4.66A.45.45,0,1,1,75.3,62l1.75,4.66a.45.45,0,0,1-.26.58A.46.46,0,0,1,76.53,67.27Z"/><path class="cls-12" d="M14.13,114a3.82,3.82,0,0,1-.36-.34l-4.61-4.87a4.46,4.46,0,0,1-.59-.8,4.23,4.23,0,0,1,1-5.4l29-23.65,2.14,2.18L43,83.41,45.55,86,20.13,113.6A4.35,4.35,0,0,1,14.13,114Z"/><path class="cls-13" d="M40.74,81.1,8.57,108a4.23,4.23,0,0,1,1-5.4l29-23.65Z"/><path class="cls-14" d="M14.13,114,43,83.41,45.55,86,20.13,113.6A4.35,4.35,0,0,1,14.13,114Z"/><path class="cls-15" d="M83.71,42.55a30.15,30.15,0,1,0-1.12,42.69A30,30,0,0,0,83.71,42.55ZM61.19,89A25.66,25.66,0,1,1,79.49,82,25.46,25.46,0,0,1,61.19,89Z"/><path class="cls-12" d="M82.08,44.1A27.81,27.81,0,1,1,62.6,35.4a27.8,27.8,0,0,1,19.48,8.7m1.63-1.55a30.15,30.15,0,1,0-1.12,42.69,30,30,0,0,0,1.12-42.69Z"/><path class="cls-16" d="M79.49,82a25.73,25.73,0,1,1,8-17.95A25.37,25.37,0,0,1,79.49,82Z"/><path class="cls-17" d="M39.53,61.44a1.81,1.81,0,0,0,1.72,1.81h.08a1.8,1.8,0,0,0,1.8-1.81,14.77,14.77,0,0,1,.62-4.24,1.8,1.8,0,0,0-1-2.18h0a1.79,1.79,0,0,0-2.4,1.15A18.37,18.37,0,0,0,39.53,61.44Z"/><path class="cls-17" d="M64.58,41.53a1.82,1.82,0,0,0-1.95-1.64l-.45,0a25,25,0,0,0-10.51,2.78l-.06,0c-2.51,1.39-6.32,3.5-8.74,8l-.17.32a1.81,1.81,0,0,0,1,2.53h0a1.79,1.79,0,0,0,2.2-.87c0-.09.09-.18.14-.27C48,48.88,51,47.23,53.35,45.9l.06,0a21.58,21.58,0,0,1,9.09-2.34l.45,0A1.8,1.8,0,0,0,64.58,41.53Z"/></svg>