<svg id="图层_1" data-name="图层 1" xmlns="http://www.w3.org/2000/svg" xmlns:xlink="http://www.w3.org/1999/xlink" viewBox="0 0 128 128"><defs><style>.cls-1{fill:#e0e0e0;}.cls-2,.cls-5{fill:#fff;}.cls-2{opacity:0.59;}.cls-3{fill:url(#未命名的渐变_62);}.cls-4{fill:url(#未命名的渐变_43);}.cls-6{fill:url(#未命名的渐变_193);}.cls-7{fill:#cfd8dc;}</style><linearGradient id="未命名的渐变_62" x1="74.19" y1="28.5" x2="74.19" y2="99.41" gradientUnits="userSpaceOnUse"><stop offset="0" stop-color="#f5f5f5"/><stop offset="0.34" stop-color="#f3f3f3" stop-opacity="0.99"/><stop offset="0.49" stop-color="#eee" stop-opacity="0.98"/><stop offset="0.6" stop-color="#e5e5e5" stop-opacity="0.94"/><stop offset="0.69" stop-color="#d7d7d7" stop-opacity="0.9"/><stop offset="0.76" stop-color="#c6c6c6" stop-opacity="0.84"/><stop offset="0.83" stop-color="#b0b0b0" stop-opacity="0.77"/><stop offset="0.9" stop-color="#979797" stop-opacity="0.68"/><stop offset="0.96" stop-color="#7a7a7a" stop-opacity="0.58"/><stop offset="1" stop-color="#616161" stop-opacity="0.5"/></linearGradient><linearGradient id="未命名的渐变_43" x1="29.73" y1="99.47" x2="29.73" y2="28.5" gradientUnits="userSpaceOnUse"><stop offset="0" stop-color="#0075be"/><stop offset="0.15" stop-color="#037ac1" stop-opacity="0.97"/><stop offset="0.31" stop-color="#0e87c9" stop-opacity="0.86"/><stop offset="0.48" stop-color="#1e9cd7" stop-opacity="0.7"/><stop offset="0.86" stop-color="#005b97"/></linearGradient><linearGradient id="未命名的渐变_193" x1="79.35" y1="71.71" x2="118.18" y2="84.88" gradientUnits="userSpaceOnUse"><stop offset="0.03" stop-color="#005b97"/><stop offset="0.56" stop-color="#1ebdf1"/><stop offset="0.98" stop-color="#0075be"/></linearGradient></defs><title>gtick-112</title><ellipse class="cls-1" cx="99.07" cy="97.26" rx="18.15" ry="2.24"/><polygon class="cls-1" points="8 86.95 22.15 88.1 22.15 94.28 8 86.95"/><path class="cls-2" d="M99.07,78.63l-.26.33h0l-.1.13a2.4,2.4,0,0,1,.11-.23v-.11l.06,0h0Z"/><polygon class="cls-3" points="111.08 92.22 37.31 99.41 37.31 28.5 111.08 29.39 111.08 92.22"/><polygon class="cls-4" points="37.31 99.47 22.15 94.28 22.15 31.39 37.31 28.5 37.31 99.47"/><ellipse class="cls-5" cx="99.02" cy="78.38" rx="20.98" ry="20.84"/><path class="cls-6" d="M117.39,69.32c-.06-.12-.12-.24-.19-.36A20.18,20.18,0,0,0,112,62.64a20.5,20.5,0,0,0-3.67-2.39l-.3-.15A20.43,20.43,0,0,0,80.82,87.79l.12.24a20.42,20.42,0,0,0,8.7,8.48l.32.16a20.6,20.6,0,0,0,27.46-9.29A20.23,20.23,0,0,0,117.39,69.32Z"/><ellipse class="cls-5" cx="99.02" cy="78.38" rx="9.51" ry="9.45"/><ellipse class="cls-7" cx="99.02" cy="78.38" rx="8.63" ry="8.57"/><ellipse class="cls-5" cx="99.02" cy="78.38" rx="3.73" ry="3.7"/><path class="cls-2" d="M80.82,87.79c2.45-1.21,5.91-2.93,9.83-4.91a9.37,9.37,0,0,0,2.56,3L86.3,94.38A20.47,20.47,0,0,1,80.94,88Z"/><path class="cls-2" d="M112,62.64A20.18,20.18,0,0,1,117.2,69c.07.12.13.24.19.36l-9.79,5a9.53,9.53,0,0,0-2.46-3.16Z"/><path class="cls-2" d="M98.82,78.86V79h0l-.1.13A2.4,2.4,0,0,1,98.82,78.86Z"/><path class="cls-2" d="M98.83,78.75l.06,0-.07.14Z"/></svg>