<svg id="图层_1" data-name="图层 1" xmlns="http://www.w3.org/2000/svg" xmlns:xlink="http://www.w3.org/1999/xlink" viewBox="0 0 128 128"><defs><style>.cls-1{fill:#c0c9c1;}.cls-2{fill:#363b33;}.cls-3{fill:#6c6e6d;}.cls-4{fill:#feffff;}.cls-5{fill:#53290e;}.cls-6{fill:#d2ae93;}.cls-7{fill:#5f2a2d;}.cls-8{fill:#3b1317;}.cls-9{fill:#e5bcc1;}.cls-10{fill:url(#未命名的渐变_27);}.cls-11{fill:#6d6a65;}.cls-12{fill:#74695c;}.cls-13{fill:#0a0000;}.cls-14{fill:#473134;}.cls-15{fill:#3e2629;}.cls-16{fill:#4a4340;}.cls-17{fill:#e8e8dd;}</style><radialGradient id="未命名的渐变_27" cx="366.27" cy="-715.48" r="80.55" gradientTransform="translate(-27.21 230.86) scale(0.25 0.24)" gradientUnits="userSpaceOnUse"><stop offset="0" stop-color="#d0d2cf"/><stop offset="0.39" stop-color="#bec3c7"/><stop offset="1" stop-color="#99938b"/></radialGradient></defs><title>gtkorphan-112</title><path class="cls-1" d="M45.76,106.48l2.79-4.27L58.86,113l-1.16,1.8-1.9,3a7.36,7.36,0,0,1-12.18-5.6v-.08a7.48,7.48,0,0,1,1.28-4.29Z"/><polygon class="cls-2" points="58.02 114.34 58.86 113.03 48.55 102.21 47.7 103.51 58.02 114.34"/><path class="cls-3" d="M51.43,117.51a8.29,8.29,0,0,1-7.41-7.7v-.21a7.28,7.28,0,0,0-.4,2.5v.08a7.36,7.36,0,0,0,12.18,5.6l.74-1.15A9.18,9.18,0,0,1,51.43,117.51Z"/><path class="cls-1" d="M82.82,107.4,80,103.12,69.72,114l1.16,1.8,1.91,2.94A7.35,7.35,0,0,0,85,113.1V113a7.68,7.68,0,0,0-1.28-4.29Z"/><polygon class="cls-2" points="70.56 115.25 69.72 113.95 80.04 103.13 80.89 104.43 70.56 115.25"/><path class="cls-3" d="M77.16,118.43a8.28,8.28,0,0,0,7.4-7.7v-.09s0-.08,0-.12A7,7,0,0,1,85,113v.09a7.35,7.35,0,0,1-12.18,5.59L72,117.54A9.22,9.22,0,0,0,77.16,118.43Z"/><path d="M77,98.46a3.65,3.65,0,0,1-.59-2V86h-.12C75.49,78.09,70.3,72,64,72S52.51,78.09,51.71,86h-.12V97.56l-3,4.66L58.86,113l5.14-8,5.72,8.9L80,103.12Z"/><path d="M58.11,84.54c0-4,.73-7.31-3.14-7.41-2.1-.06-7.88.72-9.23,2.17h0l-6.29,5.32L47.58,95C51.89,92,58.08,87.27,58.11,84.54Z"/><path d="M69.89,84.54c0-4-.73-7.31,3.14-7.41,2.1-.06,7.88.72,9.23,2.17h0l6.29,5.32L80.42,95C76.11,92,69.92,87.27,69.89,84.54Z"/><path class="cls-1" d="M35.42,88l-4.54,3.84a3.94,3.94,0,0,0-1.37,2.77,7.61,7.61,0,0,0,5.46,7.9l.08,0a4.74,4.74,0,0,0,4.21-1.14l4.24-3.74s1.77-1.09,4.08-2.69L39.45,84.62Z"/><path class="cls-4" d="M31.3,93.85l5.33-4.51L40.55,86l-1.11-1.41-4,3.41-4.54,3.84a3.94,3.94,0,0,0-1.37,2.77,8.25,8.25,0,0,0,.2,2.28A4.6,4.6,0,0,1,31.3,93.85Z"/><path class="cls-3" d="M43.54,95.05s-3,2.67-5,4.4a5.56,5.56,0,0,1-4.94,1.34l-.1,0a7.9,7.9,0,0,1-2.72-1.27A7.07,7.07,0,0,0,35,102.54l.08,0a4.74,4.74,0,0,0,4.21-1.14l4.24-3.74s1.77-1.09,4.08-2.69l-1.32-1.68C44.63,94.38,43.54,95.05,43.54,95.05Z"/><path class="cls-1" d="M92.58,88l4.54,3.84a3.94,3.94,0,0,1,1.37,2.77,7.61,7.61,0,0,1-5.46,7.9l-.08,0a4.74,4.74,0,0,1-4.21-1.14L84.5,97.68S82.73,96.59,80.42,95l8.13-10.37Z"/><path class="cls-4" d="M96.7,93.85l-5.33-4.51L87.45,86l1.11-1.41,4,3.41,4.54,3.84a3.94,3.94,0,0,1,1.37,2.77,8.25,8.25,0,0,1-.2,2.28A4.6,4.6,0,0,0,96.7,93.85Z"/><path class="cls-3" d="M84.46,95.05s3,2.67,5,4.4a5.56,5.56,0,0,0,4.94,1.34l.1,0a7.9,7.9,0,0,0,2.72-1.27A7.07,7.07,0,0,1,93,102.54l-.08,0a4.74,4.74,0,0,1-4.21-1.14L84.5,97.68S82.73,96.59,80.42,95l1.32-1.68C83.37,94.38,84.46,95.05,84.46,95.05Z"/><rect class="cls-5" x="60.01" y="81.29" width="7.91" height="8.3"/><polygon class="cls-6" points="67.92 84.33 65.03 84.33 65.03 81.29 62.91 81.29 62.91 84.33 60.01 84.33 60.01 86.55 62.91 86.55 62.91 89.59 65.03 89.59 65.03 86.55 67.92 86.55 67.92 84.33"/><rect class="cls-7" x="57.11" y="94.84" width="13.72" height="4.65"/><rect class="cls-8" x="57.11" y="94.84" width="2.17" height="4.65"/><rect class="cls-8" x="68.66" y="94.84" width="2.17" height="4.65"/><rect class="cls-9" x="59.27" y="97.17" width="9.39" height="2.32"/><path d="M64,29a24.38,24.38,0,0,0-11.44,2.84C41,38,37.18,52.19,43.26,63.57c4.82,9,12.6,14.83,20.74,14.83s15.92-5.82,20.74-14.83C90.82,52.19,87,38,75.44,31.81A24.38,24.38,0,0,0,64,29Z"/><path class="cls-10" d="M83.6,44.21a6.55,6.55,0,0,0-11.15-3.34L64,47.72l-8.45-6.85A6.55,6.55,0,0,0,44.4,44.21h0a30.13,30.13,0,0,0,6.07,25.26l2,2.46a14.93,14.93,0,0,0,23.1,0l2-2.46A30.13,30.13,0,0,0,83.6,44.21Z"/><path class="cls-11" d="M77.05,40.51a5.17,5.17,0,0,1,4.94,4,28.55,28.55,0,0,1-5.75,24l-2,2.46a13.28,13.28,0,0,1-20.52,0l-2-2.46a28.55,28.55,0,0,1-5.75-24,5.17,5.17,0,0,1,4.94-4,4.81,4.81,0,0,1,2.41.66,4.57,4.57,0,0,1,1,.79l.06.07.08.06L63,49l1,.85,1-.85,8.46-6.86.08-.06.06-.07a4.38,4.38,0,0,1,1-.79,4.75,4.75,0,0,1,2.4-.66m0-1.59a6.55,6.55,0,0,0-3.24.87,6.73,6.73,0,0,0-1.36,1.08L64,47.72l-8.45-6.85a6.73,6.73,0,0,0-1.36-1.08A6.55,6.55,0,0,0,51,38.92a6.77,6.77,0,0,0-6.55,5.29h0a30.13,30.13,0,0,0,6.07,25.26l2,2.46a14.93,14.93,0,0,0,23.1,0l2-2.46A30.13,30.13,0,0,0,83.6,44.21h0a6.77,6.77,0,0,0-6.55-5.29Z"/><path class="cls-11" d="M49.91,40.61c-1.62-2.21-3.95-5.44-6.69-9.42-4.23-6.13-4.84-7.38-5.34-8.76-2.11-5.81-1.9-13.06,1-14.54.58-.29,1.72-.6,2.06-.2s-.29,1.27-.82,2.39a24.45,24.45,0,0,0-1.24,4.58c-.72,3.44,2.52,8.71,4.93,12.35,5.63,8.5,9.71,12.58,8.75,13.72C52.33,41,51.68,41.19,49.91,40.61Z"/><path class="cls-11" d="M75.21,40.79A27.74,27.74,0,0,1,76.92,34a29.6,29.6,0,0,1,5.75-9.73c4.25-4.8,7.59-6.88,10.28-8s4.21-.63,4.49-.39c.56.46.19,1.42-.18,2-.48.75-1.71.34-3.49.79a9.24,9.24,0,0,0-3.29,1.8c-.83.59-4,2.54-8.15,8.36A25.65,25.65,0,0,0,79.59,34a23.11,23.11,0,0,0-1.88,6.57Z"/><rect class="cls-12" x="59.45" y="69.56" width="9.1" height="2.63" rx="1.3" ry="1.3"/><rect class="cls-13" x="61.58" y="69.56" width="4.84" height="2.63" rx="1.3" ry="1.3"/><rect class="cls-14" x="56.14" y="33.53" width="16.3" height="3.05"/><rect class="cls-15" x="56.14" y="33.53" width="9.28" height="3.05"/><path class="cls-11" d="M54.47,62.08c-1.39,1.22-4.15.45-6.17-1.72a6.61,6.61,0,0,1-1.9-3.94,2.56,2.56,0,0,1,.76-2.19c1.06-.92,2.91-.69,4.62.42A8.22,8.22,0,0,1,53.34,56C55.35,58.13,55.86,60.87,54.47,62.08Z"/><path class="cls-16" d="M51.78,54.65a7.14,7.14,0,0,0-4.16.9,6.87,6.87,0,0,0-1.22.87,2.56,2.56,0,0,1,.76-2.19C48.22,53.31,50.07,53.54,51.78,54.65Z"/><ellipse class="cls-17" cx="51.5" cy="58.69" rx="1.8" ry="1.33"/><path class="cls-11" d="M73.53,62.08c1.39,1.22,4.15.45,6.17-1.72a6.61,6.61,0,0,0,1.9-3.94,2.56,2.56,0,0,0-.76-2.19c-1.06-.92-2.91-.69-4.62.42A8.17,8.17,0,0,0,74.67,56C72.65,58.13,72.14,60.87,73.53,62.08Z"/><path class="cls-16" d="M76.22,54.65a7.13,7.13,0,0,1,4.16.9,6.87,6.87,0,0,1,1.22.87,2.56,2.56,0,0,0-.76-2.19C79.78,53.31,77.93,53.54,76.22,54.65Z"/><ellipse class="cls-17" cx="76.5" cy="58.69" rx="1.8" ry="1.33"/></svg>