<svg id="图层_1" data-name="图层 1" xmlns="http://www.w3.org/2000/svg" viewBox="0 0 128 128"><defs><style>.cls-1{fill:#444b3d;}.cls-2{fill:#60655a;}.cls-3{fill:#666a60;}.cls-4{fill:#b71c1c;}.cls-5{fill:#fff;}.cls-6{fill:#9ea09c;}.cls-7{fill:#fffdfd;}</style></defs><title>gupnp-tools-112</title><path class="cls-1" d="M89.22,12.28a8.06,8.06,0,0,0-3.42-.75H49.37c-4.84,0-8.79,4.27-8.79,9.49l1.17,25.65q.9,20,0,40l-1.17,25.66A9.9,9.9,0,0,0,42.36,118,9.56,9.56,0,0,1,37,109.26l1.16-25.65q.9-20,0-40L37,18c0-5.22,4-9.49,8.78-9.49H82.21A8.59,8.59,0,0,1,89.22,12.28Z"/><path class="cls-1" d="M89.82,83.2,91,109.26a9.59,9.59,0,0,1-5.15,8.64,9.92,9.92,0,0,0,1.63-5.5L86.3,86.33q-.89-19.56,0-39.14l1.18-26.06a9.56,9.56,0,0,0-5.36-8.74,8.06,8.06,0,0,0-3.42-.75H48a7.42,7.42,0,0,1,1.34-.11H85.8a8.06,8.06,0,0,1,3.42.75A9.9,9.9,0,0,1,91,18L89.82,44.06Q88.94,63.62,89.82,83.2Z"/><path class="cls-2" d="M86.3,86.33l1.18,26.07a9.92,9.92,0,0,1-1.63,5.5,8.15,8.15,0,0,1-3.64.85l-9.59.52a158.8,158.8,0,0,1-17.18,0l-9.66-.52a8.22,8.22,0,0,1-3.42-.75,9.9,9.9,0,0,1-1.78-5.71l1.17-25.66q.9-20,0-40L40.58,21A9.33,9.33,0,0,1,48,11.64H78.7a8.06,8.06,0,0,1,3.42.75,9.56,9.56,0,0,1,5.36,8.74L86.3,47.19Q85.42,66.75,86.3,86.33Z"/><path class="cls-3" d="M90.55,14.91a9.31,9.31,0,0,0-4.88-5.66,8.22,8.22,0,0,0-3.42-.75H45.82a8.9,8.9,0,0,0-8.31,6.41Z"/><ellipse class="cls-1" cx="78.67" cy="25.33" rx="3.57" ry="3.6"/><path class="cls-1" d="M69.27,45.68H80.19a1.91,1.91,0,0,0,1.91-1.93V42.26a1.92,1.92,0,0,0-1.91-1.93H69.27a1.93,1.93,0,0,0-1.92,1.93v1.49A1.92,1.92,0,0,0,69.27,45.68Z"/><path class="cls-1" d="M80.16,66.14H76.68a2.09,2.09,0,0,0-2.08,2.1v2.59a2.09,2.09,0,0,0,2.08,2.1h3.48a2.09,2.09,0,0,0,2.08-2.1V68.24A2.09,2.09,0,0,0,80.16,66.14Z"/><path class="cls-1" d="M67.41,64.53H59.25a2.09,2.09,0,0,0-2.08,2.1v5.73a2.09,2.09,0,0,0,2.08,2.09h8.16a2.1,2.1,0,0,0,2.09-2.09V66.63A2.1,2.1,0,0,0,67.41,64.53Z"/><path class="cls-1" d="M50,66.14H46.51a2.09,2.09,0,0,0-2.08,2.1v2.59a2.09,2.09,0,0,0,2.08,2.1H50a2.1,2.1,0,0,0,2.09-2.1V68.24A2.1,2.1,0,0,0,50,66.14Z"/><path class="cls-1" d="M71.82,47.19H69.27a1.93,1.93,0,0,0-1.92,1.93v1.49a1.92,1.92,0,0,0,1.92,1.93h2.55a1.92,1.92,0,0,0,1.92-1.93V49.12A1.93,1.93,0,0,0,71.82,47.19Z"/><path class="cls-1" d="M82.1,49.12a1.92,1.92,0,0,0-1.91-1.93H77.64a1.93,1.93,0,0,0-1.92,1.93v1.49a1.92,1.92,0,0,0,1.92,1.93h2.55a1.91,1.91,0,0,0,1.91-1.93Z"/><path class="cls-1" d="M71.82,54.05H69.27A1.92,1.92,0,0,0,67.35,56v1.49a1.93,1.93,0,0,0,1.92,1.93h2.55a1.93,1.93,0,0,0,1.92-1.93V56A1.92,1.92,0,0,0,71.82,54.05Z"/><path class="cls-1" d="M80.19,54.05H77.64A1.92,1.92,0,0,0,75.72,56v1.49a1.93,1.93,0,0,0,1.92,1.93h2.55a1.92,1.92,0,0,0,1.91-1.93V56A1.91,1.91,0,0,0,80.19,54.05Z"/><ellipse class="cls-1" cx="48.28" cy="36.15" rx="2.48" ry="2.67"/><ellipse class="cls-1" cx="55.41" cy="36.15" rx="2.48" ry="2.67"/><path class="cls-1" d="M62.54,38.82a2.68,2.68,0,1,0-2.48-2.67A2.58,2.58,0,0,0,62.54,38.82Z"/><ellipse class="cls-1" cx="48.28" cy="43.01" rx="2.48" ry="2.67"/><ellipse class="cls-1" cx="55.41" cy="43.01" rx="2.48" ry="2.67"/><path class="cls-1" d="M62.54,45.68A2.68,2.68,0,1,0,60.06,43,2.58,2.58,0,0,0,62.54,45.68Z"/><ellipse class="cls-1" cx="48.28" cy="49.87" rx="2.48" ry="2.67"/><ellipse class="cls-1" cx="55.41" cy="49.87" rx="2.48" ry="2.67"/><path class="cls-1" d="M62.54,52.54a2.68,2.68,0,1,0-2.48-2.67A2.58,2.58,0,0,0,62.54,52.54Z"/><ellipse class="cls-1" cx="55.41" cy="56.72" rx="2.48" ry="2.67"/><path class="cls-1" d="M62.54,59.4a2.68,2.68,0,1,0-2.48-2.68A2.59,2.59,0,0,0,62.54,59.4Z"/><ellipse class="cls-1" cx="48.28" cy="56.72" rx="2.48" ry="2.67"/><path class="cls-1" d="M69.27,38.82h2.55a1.92,1.92,0,0,0,1.92-1.93V35.41a1.92,1.92,0,0,0-1.92-1.93H69.27a1.92,1.92,0,0,0-1.92,1.93v1.48A1.92,1.92,0,0,0,69.27,38.82Z"/><path class="cls-1" d="M77.64,33.48a1.92,1.92,0,0,0-1.92,1.93v1.48a1.92,1.92,0,0,0,1.92,1.93h2.55a1.91,1.91,0,0,0,1.91-1.93V35.41a1.91,1.91,0,0,0-1.91-1.93Z"/><ellipse class="cls-4" cx="78.36" cy="25.08" rx="3.57" ry="3.6"/><path class="cls-5" d="M79.63,24.07a1.56,1.56,0,1,1-2.53,0,.21.21,0,0,0-.17-.33h0a.21.21,0,0,0-.17.08A2,2,0,1,0,80.34,25,2,2,0,0,0,80,23.82a.23.23,0,0,0-.17-.08h0A.21.21,0,0,0,79.63,24.07Z"/><path class="cls-5" d="M78.36,25.31a.22.22,0,0,1-.21-.22V23.41a.21.21,0,0,1,.21-.21.21.21,0,0,1,.21.21v1.68A.21.21,0,0,1,78.36,25.31Z"/><path class="cls-6" d="M69,45.43H79.88A1.92,1.92,0,0,0,81.8,43.5V42a1.92,1.92,0,0,0-1.92-1.93H69A1.92,1.92,0,0,0,67.05,42V43.5A1.92,1.92,0,0,0,69,45.43Z"/><path class="cls-6" d="M79.85,65.89H76.38A2.09,2.09,0,0,0,74.3,68v2.59a2.09,2.09,0,0,0,2.08,2.1h3.47a2.1,2.1,0,0,0,2.09-2.1V68A2.1,2.1,0,0,0,79.85,65.89Z"/><path class="cls-6" d="M67.11,64.28H59a2.09,2.09,0,0,0-2.08,2.1v5.73A2.09,2.09,0,0,0,59,74.21h8.16a2.09,2.09,0,0,0,2.08-2.1V66.38A2.09,2.09,0,0,0,67.11,64.28Z"/><path class="cls-6" d="M49.68,65.89H46.21A2.1,2.1,0,0,0,44.12,68v2.59a2.1,2.1,0,0,0,2.09,2.1h3.47a2.09,2.09,0,0,0,2.08-2.1V68A2.09,2.09,0,0,0,49.68,65.89Z"/><path class="cls-6" d="M71.52,46.94H69a1.93,1.93,0,0,0-1.92,1.94v1.48A1.92,1.92,0,0,0,69,52.29h2.55a1.92,1.92,0,0,0,1.91-1.93V48.88A1.93,1.93,0,0,0,71.52,46.94Z"/><path class="cls-6" d="M81.8,48.88a1.93,1.93,0,0,0-1.92-1.94H77.34a1.93,1.93,0,0,0-1.92,1.94v1.48a1.92,1.92,0,0,0,1.92,1.93h2.54a1.92,1.92,0,0,0,1.92-1.93Z"/><path class="cls-6" d="M71.52,53.8H69a1.93,1.93,0,0,0-1.92,1.93v1.49A1.93,1.93,0,0,0,69,59.15h2.55a1.93,1.93,0,0,0,1.91-1.93V55.73A1.93,1.93,0,0,0,71.52,53.8Z"/><path class="cls-6" d="M79.88,53.8H77.34a1.93,1.93,0,0,0-1.92,1.93v1.49a1.93,1.93,0,0,0,1.92,1.93h2.54a1.93,1.93,0,0,0,1.92-1.93V55.73A1.93,1.93,0,0,0,79.88,53.8Z"/><ellipse class="cls-6" cx="47.98" cy="35.9" rx="2.48" ry="2.67"/><ellipse class="cls-6" cx="55.11" cy="35.9" rx="2.48" ry="2.67"/><ellipse class="cls-6" cx="62.24" cy="35.9" rx="2.48" ry="2.67"/><ellipse class="cls-6" cx="47.98" cy="42.76" rx="2.48" ry="2.67"/><ellipse class="cls-6" cx="55.11" cy="42.76" rx="2.48" ry="2.67"/><ellipse class="cls-6" cx="62.24" cy="42.76" rx="2.48" ry="2.67"/><ellipse class="cls-6" cx="47.98" cy="49.62" rx="2.48" ry="2.67"/><ellipse class="cls-6" cx="55.11" cy="49.62" rx="2.48" ry="2.67"/><ellipse class="cls-6" cx="62.24" cy="49.62" rx="2.48" ry="2.67"/><ellipse class="cls-6" cx="55.11" cy="56.48" rx="2.48" ry="2.67"/><ellipse class="cls-6" cx="62.24" cy="56.48" rx="2.48" ry="2.67"/><ellipse class="cls-6" cx="47.98" cy="56.48" rx="2.48" ry="2.67"/><path class="cls-6" d="M69,38.57h2.55a1.92,1.92,0,0,0,1.91-1.93V35.16a1.92,1.92,0,0,0-1.91-1.93H69a1.92,1.92,0,0,0-1.92,1.93v1.48A1.92,1.92,0,0,0,69,38.57Z"/><path class="cls-6" d="M77.34,38.57h2.54a1.92,1.92,0,0,0,1.92-1.93V35.16a1.92,1.92,0,0,0-1.92-1.93H77.34a1.92,1.92,0,0,0-1.92,1.93v1.48A1.92,1.92,0,0,0,77.34,38.57Z"/><path class="cls-5" d="M71.7,42.76H69.36v-.33H71.7Z"/><path class="cls-5" d="M79.49,42.68h-.95v1h-.35v-1h-1v-.36h1v-1h.35v1h.95Z"/><rect class="cls-5" x="76.75" y="67.91" width="2.74" height="2.76"/><polygon class="cls-5" points="65.58 69.24 61.28 66.75 61.28 71.74 65.58 69.24"/><rect class="cls-5" x="46.56" y="67.91" width="0.91" height="2.76"/><rect class="cls-5" x="48.42" y="67.91" width="0.91" height="2.76"/><polygon class="cls-5" points="80.29 49.62 78.85 48.78 78.85 50.45 80.29 49.62"/><polygon class="cls-5" points="78.85 49.62 77.42 48.78 77.42 50.45 78.85 49.62"/><polygon class="cls-5" points="68.71 49.62 70.14 48.78 70.14 50.45 68.71 49.62"/><polygon class="cls-5" points="70.14 49.62 71.58 48.78 71.58 50.45 70.14 49.62"/><polygon class="cls-5" points="68.71 56.48 70.14 55.64 70.14 57.31 68.71 56.48"/><polygon class="cls-5" points="70.14 56.48 71.58 55.64 71.58 57.31 70.14 56.48"/><rect class="cls-5" x="68.51" y="55.64" width="0.2" height="1.67"/><polygon class="cls-5" points="80.29 56.48 78.85 55.64 78.85 57.31 80.29 56.48"/><polygon class="cls-5" points="78.85 56.48 77.42 55.64 77.42 57.31 78.85 56.48"/><rect class="cls-5" x="80.29" y="55.64" width="0.2" height="1.67"/><path class="cls-5" d="M48.17,37h-.29V34.72h-.42l.18-.3h.53Z"/><path class="cls-5" d="M56,37H54.2l1-1.07a2.9,2.9,0,0,0,.35-.42.61.61,0,0,0,.11-.35.46.46,0,0,0-.15-.34.55.55,0,0,0-.37-.14.49.49,0,0,0-.38.16.7.7,0,0,0-.16.44h-.29a.94.94,0,0,1,.26-.65.78.78,0,0,1,.58-.24.78.78,0,0,1,.57.23.74.74,0,0,1,.23.54.76.76,0,0,1-.13.44,2.59,2.59,0,0,1-.37.48l-.58.63H56Z"/><path class="cls-5" d="M62.66,35.54a.74.74,0,0,1,.31.27.69.69,0,0,1,.12.39.79.79,0,0,1-.25.58.83.83,0,0,1-.62.25.82.82,0,0,1-.56-.2,1,1,0,0,1-.29-.58h.29a.76.76,0,0,0,.2.37.53.53,0,0,0,.37.12.57.57,0,0,0,.4-.15.49.49,0,0,0,.16-.38.43.43,0,0,0-.18-.37.93.93,0,0,0-.55-.14v-.28a.72.72,0,0,0,.42-.11.32.32,0,0,0,.16-.28.34.34,0,0,0-.12-.27.44.44,0,0,0-.3-.11.39.39,0,0,0-.28.1.86.86,0,0,0-.19.3h-.3a1,1,0,0,1,.28-.51.71.71,0,0,1,.49-.18.73.73,0,0,1,.51.2A.59.59,0,0,1,63,35,.6.6,0,0,1,62.66,35.54Z"/><path class="cls-5" d="M48.86,43.25h-.3v.58h-.29v-.58H47.06l1.42-2h.08V43h.3ZM48.27,43V42l-.66.94Z"/><path class="cls-5" d="M55.87,41.57H55l-.12.62a1,1,0,0,1,.28,0,.74.74,0,0,1,.56.24.85.85,0,0,1,.22.61.92.92,0,0,1-.24.63.84.84,0,0,1-.64.26.82.82,0,0,1-.53-.19.86.86,0,0,1-.26-.53h.3a.54.54,0,0,0,.19.32.44.44,0,0,0,.31.11.55.55,0,0,0,.41-.18.6.6,0,0,0,.16-.44.52.52,0,0,0-.14-.39.54.54,0,0,0-.4-.15,1.61,1.61,0,0,0-.58.14l.24-1.3h1.12Z"/><path class="cls-5" d="M62.14,42.35a.76.76,0,0,1,.21,0,.67.67,0,0,1,.5.23.8.8,0,0,1,.22.56.74.74,0,0,1-.24.55.8.8,0,0,1-1.12,0,.76.76,0,0,1-.22-.56,1,1,0,0,1,.06-.33,2.44,2.44,0,0,1,.22-.41l.77-1.15.25.16Zm.14,1.25a.49.49,0,0,0,.35-.15.5.5,0,0,0,.14-.35.52.52,0,0,0-.14-.36.47.47,0,0,0-.35-.14.48.48,0,0,0-.36.14.52.52,0,0,0-.14.36.47.47,0,0,0,.15.35A.45.45,0,0,0,62.28,43.6Z"/><path class="cls-5" d="M48.88,48.14l-1.36,2.62-.24-.14,1.14-2.19H47.24v-.29Z"/><path class="cls-5" d="M55.52,49.29a.72.72,0,0,1,.45.65.78.78,0,0,1-.24.58.89.89,0,0,1-.63.23.85.85,0,0,1-.62-.23.76.76,0,0,1-.24-.56.74.74,0,0,1,.46-.67.59.59,0,0,1-.34-.54.62.62,0,0,1,.22-.47.79.79,0,0,1,.53-.2.73.73,0,0,1,.53.2.64.64,0,0,1,.22.48A.61.61,0,0,1,55.52,49.29Zm-.41,1.17a.55.55,0,0,0,.4-.15.46.46,0,0,0,.16-.36.5.5,0,0,0-.16-.36.57.57,0,0,0-.4-.15.55.55,0,0,0-.4.16.5.5,0,0,0-.17.37.43.43,0,0,0,.16.35A.55.55,0,0,0,55.11,50.46Zm0-1.29a.48.48,0,0,0,.31-.13.41.41,0,0,0,.13-.29.35.35,0,0,0-.13-.27.52.52,0,0,0-.64,0,.35.35,0,0,0-.13.27.38.38,0,0,0,.14.29A.48.48,0,0,0,55.12,49.17Z"/><path class="cls-5" d="M62.35,49.61a.69.69,0,0,1-.2,0,.73.73,0,0,1-.52-.22.82.82,0,0,1-.2-.56.75.75,0,0,1,.23-.56.76.76,0,0,1,.56-.22.77.77,0,0,1,.78.78.92.92,0,0,1-.07.36,2.54,2.54,0,0,1-.21.39L62,50.76l-.24-.16Zm-.14-.24a.49.49,0,0,0,.36-.15.51.51,0,0,0,0-.7.49.49,0,0,0-.36-.15.47.47,0,0,0-.35.15.51.51,0,0,0,0,.7A.47.47,0,0,0,62.21,49.37Z"/><path class="cls-5" d="M55.09,54.94a.75.75,0,0,1,.65.34,1.72,1.72,0,0,1,.24,1,1.65,1.65,0,0,1-.25,1,.73.73,0,0,1-.64.34.72.72,0,0,1-.63-.33,2.38,2.38,0,0,1,0-2A.72.72,0,0,1,55.09,54.94Zm0,2.39a.48.48,0,0,0,.44-.28,1.62,1.62,0,0,0,.16-.78,1.5,1.5,0,0,0-.17-.78.48.48,0,0,0-.43-.27.47.47,0,0,0-.43.27,1.68,1.68,0,0,0-.15.79C54.52,57,54.71,57.33,55.1,57.33Z"/><polygon class="cls-5" points="61.44 55.91 61.44 57.05 63.04 57.97 63.04 54.98 61.44 55.91"/><rect class="cls-5" x="46.99" y="55.17" width="0.25" height="2.6"/><rect class="cls-7" x="47.09" y="56.35" width="1.75" height="0.25"/><path class="cls-5" d="M47.11,55.05H47v.25h.12c.89,0,1.61.53,1.61,1.18s-.72,1.17-1.61,1.17H47v.25h.12a1.47,1.47,0,1,0,0-2.85Z"/><path class="cls-5" d="M80.35,38H76.79V33.79h3.56ZM77,37.76h3.07V34H77Z"/><rect class="cls-5" x="77.42" y="35.09" width="2.26" height="0.25"/><rect class="cls-5" x="76.92" y="36.41" width="3.31" height="0.25"/><polygon class="cls-5" points="71.68 35.9 70.24 36.73 70.24 35.07 71.68 35.9"/><rect class="cls-5" x="69.68" y="35.07" width="0.28" height="1.67"/><rect class="cls-5" x="68.94" y="35.07" width="0.58" height="1.67"/><path class="cls-5" d="M59.35,107.1a.71.71,0,0,0-.4-.3,4.7,4.7,0,0,0-.77-.1,3.69,3.69,0,0,1-.72-.08.23.23,0,0,1-.13-.24.33.33,0,0,1,.25-.32,1.71,1.71,0,0,0,.43.06,1.11,1.11,0,0,0,.86-.34,1.16,1.16,0,0,0,.32-.84,1.22,1.22,0,0,0-.08-.47l-.06-.14-.11-.18a.5.5,0,0,1,.14-.32.24.24,0,0,1,.09-.06.55.55,0,0,0,.17-.2.64.64,0,0,0-.25-.29h0a.64.64,0,0,0-.2,0l0,0a1,1,0,0,0-.2.53h0l-.15-.06a1.2,1.2,0,0,0-.27-.08l-.22,0a1.14,1.14,0,0,0-.86.34,1.18,1.18,0,0,0-.33.87,1.09,1.09,0,0,0,.43.94.8.8,0,0,0-.5.73.67.67,0,0,0,.37.6.69.69,0,0,0-.49.71.79.79,0,0,0,.33.67,1.67,1.67,0,0,0,1,.26,2,2,0,0,0,1.14-.29,1,1,0,0,0,.39-.85A1,1,0,0,0,59.35,107.1ZM58,104.21c.31,0,.46.24.46.72s-.16.71-.48.71-.48-.23-.48-.7S57.68,104.21,58,104.21Zm0,4.09a1.21,1.21,0,0,1-.63-.13.43.43,0,0,1-.19-.38.5.5,0,0,1,.3-.47l.57,0a1.4,1.4,0,0,1,.6.11.37.37,0,0,1,.15.34C58.85,108.13,58.59,108.3,58.05,108.3Z"/><path class="cls-5" d="M61.84,102.74v2.15c0,.89-.22,1.3-.75,1.26s-.8-.37-.75-1.26v-2.15h-.75v2.47a1.5,1.5,0,1,0,3,0v-2.47Z"/><path class="cls-5" d="M64.3,102.74H63.24v3.94H64v-1.51h.53A1.13,1.13,0,0,0,65.69,104C65.69,103.13,65.23,102.73,64.3,102.74Zm-.11,1.79-.22,0V103.4a.38.38,0,0,0,.22,0c.48,0,.72.17.72.55S64.68,104.59,64.19,104.53Z"/><path class="cls-5" d="M68.35,104.47A.75.75,0,0,0,68,104a1.72,1.72,0,0,0-.68-.13,1.7,1.7,0,0,0-.89.24h0a1.08,1.08,0,0,0-.32.78v1.76h.71V105c0-.4.16-.61.42-.64s.42.23.43.64v1.64h.72v-1.82C68.4,104.76,68.38,104.62,68.35,104.47Z"/><path class="cls-5" d="M70.08,102.74H69v3.94h.72v-1.51h.54A1.13,1.13,0,0,0,71.47,104C71.47,103.13,71,102.73,70.08,102.74ZM70,104.53l-.23,0V103.4a.43.43,0,0,0,.23,0c.48,0,.72.17.72.55S70.46,104.59,70,104.53Z"/></svg>