<svg id="Vim" xmlns="http://www.w3.org/2000/svg" viewBox="0 0 128 128"><defs><style>.cls-1{fill:#018201;}.cls-2{fill:#ccc;}.cls-3{fill:gray;}</style></defs><title>128</title><g id="_128" data-name="128"><rect class="cls-1" x="22.28" y="22.28" width="83.44" height="83.44" transform="translate(64 -26.51) rotate(45)"/><polygon class="cls-2" points="21.5 109.5 21.5 26.5 10.5 26.5 10.5 14.5 51.5 14.5 51.5 26.5 39.5 26.5 39.5 76.81 86.45 26.5 72.5 26.5 72.5 14.5 117.5 14.5 117.5 26.5 111.34 26.5 35.34 109.5 21.5 109.5"/><path class="cls-3" d="M116,16v9h-5.32l-.89,1L34.68,108H23V25H12V16H50v9H38V80.61l5.19-5.56,42-45L89.9,25H74V16h42m3-3H71V28H83L41,73V28H53V13H9V28H20v83H36l76-83h7V13Z"/><polygon class="cls-2" points="58.01 108.5 64.01 87.5 62.5 87.5 62.5 81.5 75.99 81.5 69.99 102.5 71.5 102.5 71.5 108.5 58.01 108.5"/><path class="cls-3" d="M74,83l-6,21h2v3H60l6-21H64V83H74m4-3H61v9h1l-4.9,17.18L56,110H73v-9H72l4.9-17.18L78,80Z"/><circle class="cls-2" cx="72" cy="74" r="5"/><path class="cls-3" d="M72,70.5A3.5,3.5,0,1,1,68.5,74,3.5,3.5,0,0,1,72,70.5m0-3A6.5,6.5,0,1,0,78.5,74,6.51,6.51,0,0,0,72,67.5Z"/><polygon class="cls-2" points="106.11 108.5 110.11 91.5 102.76 91.5 99.94 102.5 101.5 102.5 101.5 108.5 90.11 108.5 94.11 91.5 87.13 91.5 83.99 102.5 85.5 102.5 85.5 108.5 74.01 108.5 80.01 87.5 78.5 87.5 78.5 81.5 89.08 81.5 90.08 84.5 93.92 84.5 94.92 81.5 104.08 81.5 105.08 84.5 109.69 84.5 111.03 81.5 116.8 81.5 119.6 85.7 115.87 102.5 117.5 102.5 117.5 108.5 106.11 108.5"/><path class="cls-3" d="M116,83l2,3-4,18h2v3h-8l4-17H101.6L98,104h2v3H92l4-17H86l-4,14h2v3H76l6-21H80V83h8l1,3h6l1-3h7l1,3h6.67L112,83h4m1.61-3h-7.56l-.79,1.78L108.72,83h-2.56l-.31-1-.69-2H93.84l-.69,2-.31,1H91.16l-.31-1-.69-2H77v9h1l-4.9,17.18L72,110H87v-9H86l2.28-8h3.95l-3.13,13.31L88.21,110H103v-9h-1.13l2.06-8h4.28l-3.13,13.31-.87,3.69H119v-9h-1.26l3.19-14.35.28-1.25-.71-1.06-2-3L117.61,80Z"/></g></svg>