<svg id="图层_1" data-name="图层 1" xmlns="http://www.w3.org/2000/svg" viewBox="0 0 128 128"><defs><style>.cls-1{fill:#f5f5f5;}.cls-2{fill:#263238;}.cls-3{fill:#b3e5fc;}.cls-4{fill:#616161;}.cls-5{fill:#c2185b;}.cls-6{fill:#0d47a1;}.cls-7{fill:#33691e;}.cls-8{fill:#bbdefb;opacity:0.12;}.cls-9{fill:#f06292;}</style></defs><title>gwenview-112</title><path class="cls-1" d="M53.2,24.09C27.51,35.63,10,71.27,10,71.27S50.14,94.45,83,82.12C109.39,72.2,118,30,118,30S77,13.41,53.2,24.09Z"/><path class="cls-2" d="M89,55a23.25,23.25,0,0,1-5.08,14.55h0A23.18,23.18,0,0,1,42.74,57.71q-.08-.63-.12-1.29c0-.48,0-1,0-1.45,0-.76,0-1.52.11-2.26a22.5,22.5,0,0,1,.73-4A23.27,23.27,0,0,1,65.79,31.67h.66a23,23,0,0,1,9,2.09,22.71,22.71,0,0,1,4.25,2.53,23.44,23.44,0,0,1,4.53,4.48c.35.46.69.94,1,1.43A23.27,23.27,0,0,1,89,55Z"/><path class="cls-3" d="M46.1,81.62A228.38,228.38,0,0,1,10,71.28a145.88,145.88,0,0,1,17.49-19.6c3.08-1,5.46-1.46,6.17-1,1.63,1-6,6-6.92,12.79A9.34,9.34,0,0,0,27,67.15a12.33,12.33,0,0,0,3.38,5.46C35.07,77.28,43,80,46.1,81.62Z"/><path class="cls-3" d="M118,30S110.08,60,87.09,75.38a.78.78,0,0,1-.39,0c-2.08-.95,13.9-17,12.94-31.18a15.4,15.4,0,0,0-3.08-8.38,19.22,19.22,0,0,0-2.44-2.65h0c-6.88-6.15-17.57-7.31-16.86-9.5.2-.62,1.3-1.21,3-1.7h0A248.71,248.71,0,0,1,118,30Z"/><path class="cls-4" d="M109.17,54.87a25.27,25.27,0,0,0,0-5.22h0a18.06,18.06,0,0,0-.71-3.54,15.22,15.22,0,0,0-2.81-5.27,16.72,16.72,0,0,0-2.14-2.15c-8.34-7-23.45-6.48-29.81-6.9-1.92-.13-3-.33-2.93-.86a.75.75,0,0,1,.2-.33c16.66-6.24,34.57-3.83,45.21-1.32,1.14.42,1.76.67,1.76.67A113.79,113.79,0,0,1,109.17,54.87Z"/><path class="cls-5" d="M116.24,29.28a158.18,158.18,0,0,0-27.41-7.34h0c-12-2-25.39-2.44-35.62,2.15-12.71,5.71-23.42,17.32-31,27.59A143.08,143.08,0,0,0,10,71.28,126.18,126.18,0,0,0,35.2,81.62c14,4.08,31.75,6.52,47.77.5a36.72,36.72,0,0,0,11.12-6.74c6.49-5.6,11.43-13.17,15.08-20.51A113.79,113.79,0,0,0,118,30S117.38,29.7,116.24,29.28ZM103.8,44.17C97.62,54.6,86.5,70.5,73.72,75.3c-17,6.38-38.27,1.07-49.51-2.69-4.82-1.62-7.79-3-7.79-3s2-2.52,5.26-6.24c7.23-8.18,20.83-22.16,33.9-28,5-2.25,11.48-3.28,18.18-3.6a150.21,150.21,0,0,1,25.76,1.35h0c5.67.75,9.42,1.5,9.42,1.5s-1.16,2.47-3.24,6.2C105.14,41.86,104.5,43,103.8,44.17Z"/><path class="cls-5" d="M62.58,96.54C41.3,95.46,20.61,80.61,10,71.27c7,10.76,24.27,32,50.15,35.85,19.92,2.93,42.48-11.65,53.77-20.23C113.84,86.92,87.36,97.78,62.58,96.54Z"/><ellipse class="cls-6" cx="61.37" cy="43.74" rx="9.34" ry="9.38"/><path class="cls-7" d="M66.28,70.84l-4.8-11.08a4.1,4.1,0,0,1,2.1-5.37l6.36-2.78a4.08,4.08,0,0,1,5.35,2.11L80.1,64.8A4.1,4.1,0,0,1,78,70.17L71.63,73A4.07,4.07,0,0,1,66.28,70.84Z"/><ellipse class="cls-1" cx="71.88" cy="49.09" rx="5.33" ry="5.35"/><path class="cls-8" d="M85.21,42.21,83.91,42A44.71,44.71,0,0,0,42.74,57.71q-.08-.63-.12-1.29c0-.48,0-1,0-1.45,0-.76,0-1.52.11-2.26a22.5,22.5,0,0,1,.73-4A44.61,44.61,0,0,1,79.67,36.3a23.44,23.44,0,0,1,4.53,4.48C84.55,41.24,84.89,41.72,85.21,42.21Z"/><path class="cls-9" d="M28.1,49.6C27.59,49.11,36.65,32.23,55,25c17.2-6.81,34.17-1.8,34.15-1.17s-14.89-2.92-31.81,3.52C38.05,34.64,28.6,50.07,28.1,49.6Z"/><path class="cls-9" d="M107.49,42.57c-.8-.44-5.92,17.65-22.18,28.42C61.84,86.55,31.71,75.9,31.6,76.86s30.26,12.62,53.61-3.23C101.84,62.34,108.35,43,107.49,42.57Z"/><path class="cls-9" d="M23.14,81.92c.3-.51,13.11,11.3,33.56,14.94,23.86,4.26,42.73-5.36,42.91-4.68s-19.09,11.74-42,7.91C36.7,96.6,22.81,82.46,23.14,81.92Z"/></svg>