<?xml version="1.0" encoding="utf-8"?>
<!-- Generator: Adobe Illustrator 24.0.0, SVG Export Plug-In . SVG Version: 6.00 Build 0)  -->
<svg version="1.1" id="图层_1" xmlns="http://www.w3.org/2000/svg" xmlns:xlink="http://www.w3.org/1999/xlink" x="0px" y="0px"
	 viewBox="0 0 128 128" enable-background="new 0 0 128 128" xml:space="preserve">
<title>hardinfo128</title>
<polygon fill="#333333" points="104,31 90,31 90,35 95,35 95,43 99,43 99,35 104,35 "/>
<path fill="#666666" d="M64,41V19.9l0,0c-7.6,0-12,6.2-12,13.7V41H27v-7.4c0-7.6-4.4-13.7-12-13.7V41l-4.6,0.1
	c-3,0.1-5.4,2.6-5.4,5.6V64h98v6l9,8l3-14h8V41H64z"/>
<path fill="#808080" d="M5,64v15.5l0,0v0.2l0,0C5.1,88.2,11.9,95,20.4,95h39.2C68,95,74.9,88.2,75,79.7l0,0v-0.2l0,0V64H5z"/>
<rect x="13.5" y="56.5" fill="#FFFFFF" width="54" height="42"/>
<path fill="#006837" d="M66,58v39H15V58H66 M69,55H12v45h57V55z"/>
<rect x="16" y="64" fill="#90A82C" width="49" height="32"/>
<path fill="#72FF31" d="M64,65v30H17V65H64 M66,63H15v34h51V63z"/>
<rect x="23" y="90" fill="#FFF208" width="4" height="16"/>
<rect x="33" y="90" fill="#FFF208" width="4" height="16"/>
<rect x="43" y="90" fill="#FFF208" width="4" height="16"/>
<rect x="53" y="90" fill="#FFF208" width="4" height="16"/>
<rect x="39" y="59" fill="#666666" width="4" height="25"/>
<rect x="29" y="59" fill="#666666" width="4" height="25"/>
<rect x="21" y="73" fill="#666666" width="30" height="4"/>
<rect x="21" y="65" fill="#666666" width="30" height="4"/>
<rect x="26" y="63" fill="#FFFFFF" width="20" height="16"/>
<path fill="#666666" d="M45,64v14H27V64H45 M47,62H25v18h22V62z"/>
<rect x="17" y="45" fill="#333333" width="6" height="6"/>
<rect x="29" y="45" fill="#333333" width="6" height="6"/>
<rect x="41" y="45" fill="#333333" width="6" height="6"/>
<rect x="53" y="45" fill="#333333" width="6" height="6"/>
<rect x="75" y="53" fill="#E6E6E6" width="6" height="6"/>
<rect x="87" y="53" fill="#E6E6E6" width="6" height="6"/>
<rect x="99" y="53" fill="#E6E6E6" width="6" height="6"/>
<rect x="111" y="53" fill="#E6E6E6" width="6" height="6"/>
<rect x="75" y="41" fill="#4D4D4D" width="48" height="6"/>
</svg>
