<svg id="图层_1" data-name="图层 1" xmlns="http://www.w3.org/2000/svg" viewBox="0 0 128 128"><defs><style>.cls-1{fill:#263238;}.cls-2{fill:#f9ce1d;}.cls-3{fill:#616161;}.cls-4{fill:#ffeb3b;}</style></defs><title>hardinfo-112</title><path class="cls-1" d="M121,49.11h-9.93a48.9,48.9,0,0,0-3.26-7.86l7-7L108.62,28l-5.68,5.68a49.64,49.64,0,0,0-8.63-8.63L100,19.38l-6.21-6.21-7,7a48.9,48.9,0,0,0-7.86-3.26V7H70.1v8a49.15,49.15,0,0,0-12.2,0V7H49.11v9.93a49.28,49.28,0,0,0-7.86,3.26l-7-7L28,19.38l5.69,5.68a49.35,49.35,0,0,0-8.64,8.63L19.38,28l-6.21,6.21,7,7a48,48,0,0,0-3.27,7.86H7V57.9h8a50.47,50.47,0,0,0,0,12.2H7v8.79h9.93a48,48,0,0,0,3.27,7.86l-7,7L19.38,100l5.68-5.69a49.07,49.07,0,0,0,8.64,8.64L28,108.62l6.22,6.21,7-7a47.94,47.94,0,0,0,7.85,3.27V121H57.9v-8a50.47,50.47,0,0,0,12.2,0v8h8.79v-9.93a48.41,48.41,0,0,0,7.86-3.27l7,7,6.21-6.21-5.68-5.68a49.35,49.35,0,0,0,8.63-8.64l5.68,5.69,6.22-6.21-7-7a48.9,48.9,0,0,0,3.26-7.86H121V70.1h-8a49.15,49.15,0,0,0,0-12.2h8Zm-15.89,21a41,41,0,0,1-2.31,8.79c-.25.68-.53,1.35-.83,2a40.65,40.65,0,0,1-4.59,7.84,41.77,41.77,0,0,1-8.63,8.63A41.13,41.13,0,0,1,80.91,102c-.67.3-1.34.58-2,.84a40.45,40.45,0,0,1-8.79,2.3,41.57,41.57,0,0,1-12.2,0,40.45,40.45,0,0,1-8.79-2.3c-.68-.25-1.35-.53-2-.83A41.74,41.74,0,0,1,30.62,88.75,41.13,41.13,0,0,1,26,80.91c-.31-.67-.59-1.34-.84-2a41,41,0,0,1-2.31-8.79,42.5,42.5,0,0,1,0-12.2,41,41,0,0,1,2.31-8.79c.25-.68.53-1.35.84-2a41.13,41.13,0,0,1,4.58-7.84,41.77,41.77,0,0,1,8.63-8.63A40.65,40.65,0,0,1,47.09,26c.67-.3,1.34-.58,2-.83a41.54,41.54,0,0,1,29.78,0c.68.25,1.36.53,2,.83a40.65,40.65,0,0,1,7.84,4.59,41.53,41.53,0,0,1,8.63,8.63A40.65,40.65,0,0,1,102,47.09c.3.67.58,1.34.83,2a41.55,41.55,0,0,1,2.31,21Z"/><path class="cls-2" d="M105.56,64a41.53,41.53,0,0,1-2.76,14.89c-.25.68-.53,1.35-.83,2a40.65,40.65,0,0,1-4.59,7.84,41.77,41.77,0,0,1-8.63,8.63A41.13,41.13,0,0,1,80.91,102c-.67.3-1.34.58-2,.84a40.45,40.45,0,0,1-8.79,2.3,41.57,41.57,0,0,1-12.2,0,40.45,40.45,0,0,1-8.79-2.3c-.68-.25-1.35-.53-2-.83A41.74,41.74,0,0,1,30.62,88.75,41.13,41.13,0,0,1,26,80.91c-.31-.67-.59-1.34-.84-2a41,41,0,0,1-2.31-8.79,42.5,42.5,0,0,1,0-12.2,41,41,0,0,1,2.31-8.79c.25-.68.53-1.35.84-2a41.13,41.13,0,0,1,4.58-7.84,41.77,41.77,0,0,1,8.63-8.63A40.65,40.65,0,0,1,47.09,26c.67-.3,1.34-.58,2-.83a41.54,41.54,0,0,1,29.78,0c.68.25,1.36.53,2,.83a40.65,40.65,0,0,1,7.84,4.59,41.53,41.53,0,0,1,8.63,8.63A40.65,40.65,0,0,1,102,47.09c.3.67.58,1.34.83,2A41.53,41.53,0,0,1,105.56,64Z"/><path class="cls-3" d="M39.67,41.58V72.83H86.86V41.58ZM84.42,70.39H42.11V44H84.42Z"/><rect class="cls-4" x="42.11" y="44.02" width="42.31" height="26.36"/><path class="cls-1" d="M86.86,72.83H39.67L35.19,86.18l57.62.24ZM41.42,75.27H85.27L89.07,84l-50.49-.22Z"/><polygon class="cls-4" points="89.06 83.96 38.58 83.74 41.42 75.27 85.27 75.27 89.06 83.96"/><path class="cls-1" d="M55.9,83.7,72.68,48.56a8.06,8.06,0,0,0,8.88-4.42,8.49,8.49,0,0,0,.65-2,1.81,1.81,0,0,0-1-1.94L81,40.07a1.84,1.84,0,0,0-2.6,1.36,4.15,4.15,0,1,1-7.83-2.55A3.92,3.92,0,0,1,71.1,38a1.87,1.87,0,0,0-.58-2.92L70.35,35a1.88,1.88,0,0,0-2.23.49,7.92,7.92,0,0,0-1.32,2.22,8.13,8.13,0,0,0,2.36,9.16L52.38,82a8.07,8.07,0,0,0-9.53,6.44,1.84,1.84,0,0,0,1,2l.22.1a1.85,1.85,0,0,0,2.6-1.36,4,4,0,0,1,.73-1.7,4.15,4.15,0,0,1,7.09,4.25,3.92,3.92,0,0,1-.56.87,1.88,1.88,0,0,0,.58,2.93l.17.08a1.87,1.87,0,0,0,2.23-.49,7.94,7.94,0,0,0,1.33-2.22A8.13,8.13,0,0,0,55.9,83.7Z"/></svg>