<svg id="图层_1" data-name="图层 1" xmlns="http://www.w3.org/2000/svg" viewBox="0 0 128 128"><defs><style>.cls-1{fill:#333;}.cls-2{fill:#666;}.cls-3{fill:gray;}.cls-4{fill:#fff;}.cls-5{fill:#006837;}.cls-6{fill:#90a82c;}.cls-7{fill:#72ff31;}.cls-8{fill:#fff208;}.cls-9{fill:#e6e6e6;}.cls-10{fill:#4d4d4d;}</style></defs><title>hardinfo128</title><polygon class="cls-1" points="104 31 90 31 90 35 95 35 95 43 99 43 99 35 104 35 104 31"/><path class="cls-2" d="M64,41V19.85h0c-7.56,0-12,6.17-12,13.73V41l-25,0V33.58C27,26,22.56,19.85,15,19.85V41l-4.64.07A5.56,5.56,0,0,0,5,46.67V64h98v6l9,8,3-14h8V41Z"/><path class="cls-3" d="M5,64V79.54H5v.2H5A15.42,15.42,0,0,0,20.39,95H59.61A15.42,15.42,0,0,0,75,79.74h0v-.2h0V64Z"/><rect class="cls-4" x="13.5" y="56.5" width="54" height="42"/><path class="cls-5" d="M66,58V97H15V58H66m3-3H12v45H69V55Z"/><rect class="cls-6" x="16" y="64" width="49" height="32"/><path class="cls-7" d="M64,65V95H17V65H64m2-2H15V97H66V63Z"/><rect class="cls-8" x="23" y="90" width="4" height="16"/><rect class="cls-8" x="33" y="90" width="4" height="16"/><rect class="cls-8" x="43" y="90" width="4" height="16"/><rect class="cls-8" x="53" y="90" width="4" height="16"/><rect class="cls-2" x="39" y="59" width="4" height="25"/><rect class="cls-2" x="29" y="59" width="4" height="25"/><rect class="cls-2" x="34" y="60" width="4" height="30" transform="translate(-39 111) rotate(-90)"/><rect class="cls-2" x="34" y="52" width="4" height="30" transform="translate(-31 103) rotate(-90)"/><rect class="cls-4" x="26" y="63" width="20" height="16"/><path class="cls-2" d="M45,64V78H27V64H45m2-2H25V80H47V62Z"/><rect class="cls-1" x="17" y="45" width="6" height="6"/><rect class="cls-1" x="29" y="45" width="6" height="6"/><rect class="cls-1" x="41" y="45" width="6" height="6"/><rect class="cls-1" x="53" y="45" width="6" height="6"/><rect class="cls-9" x="75" y="53" width="6" height="6"/><rect class="cls-9" x="87" y="53" width="6" height="6"/><rect class="cls-9" x="99" y="53" width="6" height="6"/><rect class="cls-9" x="111" y="53" width="6" height="6"/><rect class="cls-10" x="75" y="41" width="48" height="6"/></svg>