<?xml version="1.0" encoding="utf-8"?>
<!-- Generator: Adobe Illustrator 24.0.0, SVG Export Plug-In . SVG Version: 6.00 Build 0)  -->
<svg version="1.1" id="图层_1" xmlns="http://www.w3.org/2000/svg" xmlns:xlink="http://www.w3.org/1999/xlink" x="0px" y="0px"
	 viewBox="0 0 128 128" enable-background="new 0 0 128 128" xml:space="preserve">
<title>inkscape128</title>
<path d="M117.2,59.5c0-7.9-19.5-38.5-38.9-49.6C73.2,6.8,67.9,5,62.9,5C42.9,5,5,48.1,5,58.1c0,2.5,1.5,4.9,3.8,5.9
	c6,2.7,11.3,3.8,16.4,6.5c1.8,0.9,3.5,2,4.9,3.3c5.6,5.7-17.4,7.4-17.4,10.9c0,0.4,0.1,0.8,0.4,1.1c2.5,3.6,17,6.2,31.4,8.1
	c0.3,0,0.5,0.1,0.8,0.1c11.4,2.1-3.5,14.8-0.8,19.8c7.3,3.1,16.2,3.4,28.8,8.9c3.3,1.4,16.2-3.8,12.8-8.8
	c-7.7-11.4,10.5-15.8,14.9-24.8c1.2-2.6,0.3-4.6-1.7-6.2c-2.4-2.1-6.3-3.6-9.3-5c-0.2-0.3-0.3-0.6-0.3-1
	C91.1,65.2,117.2,71.2,117.2,59.5z"/>
<path d="M38.5,97.4c0,0-10.2,2.7-6.9,7.7c3.1,4.7,12.2-4.7,11.8-6.7C42.9,95.3,38.5,97.4,38.5,97.4z"/>
<path d="M112.8,90.7c0,0,9.6,4.4,10.1-1.6c0.5-5.6-12.3-4.2-13.4-2.4C108.1,89.5,112.8,90.7,112.8,90.7z"/>
<path d="M106.8,98.5c0,0,2.5,5.1,4.8,2.8c2.1-2.2-3.8-6-4.8-5.6C105.3,96.3,106.8,98.5,106.8,98.5z"/>
<linearGradient id="SVGID_1_" gradientUnits="userSpaceOnUse" x1="85.4807" y1="70.8607" x2="44.8441" y2="111.4973" gradientTransform="matrix(1 0 0 -1 0 128)">
	<stop  offset="0.23" style="stop-color:#030303"/>
	<stop  offset="0.63" style="stop-color:#E6E6E6"/>
</linearGradient>
<path fill="url(#SVGID_1_)" d="M51.1,14.3c0,0-24.1,15-22.5,22.3s16.9,5.2,19,4.2c3.6-1.8,7.7-8.3,7.7-8.3c0.7,4.1,1.9,8.1,3.5,11.9
	c2.6,5.2,3.5-7.4,10.8-6.2c6.7,1,5.6,3.1,12.8,6.2s7.7-10.4,11.8-8.8s9.2,3.6,9.2,3.6s-21-29-39.5-29C59.3,10.2,54.8,11.6,51.1,14.3
	z"/>
<linearGradient id="SVGID_2_" gradientUnits="userSpaceOnUse" x1="50.3491" y1="37.7819" x2="60.832" y2="55.9269" gradientTransform="matrix(1 0 0 -1 0 128)">
	<stop  offset="9.000000e-02" style="stop-color:#000000"/>
	<stop  offset="1" style="stop-color:#454A59"/>
</linearGradient>
<path fill="url(#SVGID_2_)" d="M47.5,87.6c-5.5-2-18.8-7.9-7.1-9.5s35.7-0.8,35.3,3.6s-25.7-0.6-27,0c-3.5,1.6,13.2,3.4,7,5.9
	C51.8,89.2,47.5,87.6,47.5,87.6z"/>
</svg>
