<svg id="图层_1" data-name="图层 1" xmlns="http://www.w3.org/2000/svg" viewBox="0 0 128 128"><defs><style>.cls-1{fill:#294249;}.cls-2{fill:#467bad;}.cls-3{fill:#fff;}.cls-4{fill:#fadd4b;}.cls-5{fill:#fad940;}</style></defs><title>ipython3-qtconsole-112</title><rect class="cls-1" x="8" y="8" width="112" height="112" rx="12" ry="12"/><path class="cls-2" d="M79.3,54.8V71A6.31,6.31,0,0,1,73,77.3H54.29A6.31,6.31,0,0,0,48,83.65V92.9a12,12,0,0,1-1.22.15l-.61,0C39.44,93.07,34,86.63,34,78.69c0-.27,0-.54,0-.81a15.87,15.87,0,0,1,2.62-8.1A11,11,0,0,1,44,65.12h.06A10.94,10.94,0,0,1,45.7,65H65.43V62.45h-15V54.16a1.63,1.63,0,0,1,.4-1.07h0a3.84,3.84,0,0,1,1.24-1.47,20.17,20.17,0,0,1,9.7-3.36,28.08,28.08,0,0,1,6.17,0h0c4.27.46,7.94,1.86,10.24,3.78a2.77,2.77,0,0,1,.7,1.05v0A4,4,0,0,1,79.3,54.8Z"/><circle class="cls-3" cx="56.63" cy="55.84" r="2.94"/><path class="cls-4" d="M48.7,101.46V85.31A6.3,6.3,0,0,1,55,79H73.71A6.32,6.32,0,0,0,80,72.6V63.35a9.68,9.68,0,0,1,1.22-.14l.61,0C88.56,63.19,94,69.63,94,77.56c0,.28,0,.55,0,.81a15.87,15.87,0,0,1-2.62,8.11A11,11,0,0,1,84,91.14h-.06a9.74,9.74,0,0,1-1.62.12H62.57V93.8h15v8.29a1.59,1.59,0,0,1-.4,1.07h0a3.94,3.94,0,0,1-1.24,1.48,20.27,20.27,0,0,1-9.7,3.36A29.82,29.82,0,0,1,60,108h0c-4.27-.47-7.94-1.86-10.24-3.79a2.62,2.62,0,0,1-.7-1v0A3.9,3.9,0,0,1,48.7,101.46Z"/><circle class="cls-3" cx="71.37" cy="100.41" r="2.94"/><circle class="cls-5" cx="64" cy="32.51" r="12.68"/></svg>