<svg id="图层_1" data-name="图层 1" xmlns="http://www.w3.org/2000/svg" viewBox="0 0 128 128"><defs><style>.cls-1{fill:#dcedc8;}.cls-2{fill:#7c4dff;}.cls-3{fill:#e64a19;}.cls-4{fill:#fff9c4;}.cls-5{fill:#fadd60;}.cls-6{fill:#f5a816;}.cls-7{fill:#388e3c;}.cls-8{fill:#33691e;}.cls-9{fill:#fbc02d;}</style></defs><title>jester-112</title><path class="cls-1" d="M61.33,73.23c0,2.06.14,3.28.18,4.89l-2.17,0h-.85c-3,0-5.83.08-8.51.23a43.81,43.81,0,0,0,1.07-5.1,44.43,44.43,0,0,0,.35-9c0-.28,0-.54,0-.8s0-.26,0-.39c0-.64-.08-1.25-.13-1.83l-.06-.6c0-.12,0-.24,0-.35s0-.4-.07-.59a3.31,3.31,0,0,0,0-.33q0-.24-.06-.45a.2.2,0,0,1,0-.07c0-.12-.05-.25-.07-.38s0-.24-.07-.36-.06-.34-.1-.51-.07-.28-.1-.42l0-.11-.09-.34c0-.14-.08-.28-.12-.43s-.09-.28-.14-.43a3,3,0,0,0-.11-.32,1.43,1.43,0,0,0-.08-.22c-.14-.4-.31-.81-.5-1.23a21.52,21.52,0,0,0-6.73-8.24l-.3-.22h0l-.31-.23-.68-.48-.35-.23c-.31-.2-.64-.41-1-.6L39.94,44c-.32-.18-.66-.35-1-.52l-.39-.17a15,15,0,0,0-2.84-.9,15.93,15.93,0,0,0-8.27.48,16.81,16.81,0,0,0-7.57,5.38,21.91,21.91,0,0,0-4.13,8.12A53.4,53.4,0,0,0,13.3,70a24.12,24.12,0,0,1-.65-2.46,25.09,25.09,0,0,1,5.43-22.22,25.19,25.19,0,0,1,9.45-7.88c7-3.18,13.74-1.54,16.43-.84a31.09,31.09,0,0,1,7.57,3,22.05,22.05,0,0,1,9.21,9.5,21.52,21.52,0,0,1,1.72,5.46,30.27,30.27,0,0,1,.4,3.86c.3,5.8-1.49,6.85-1.53,14.46Z"/><path class="cls-2" d="M51.05,73.23A43.81,43.81,0,0,1,50,78.33C39,79,31,80.78,31,82.93v0A6.13,6.13,0,0,1,31.79,80c1-2.11,1.82-4.61,2.6-6.81,1.89-5.38,2.41-5.79,3-8.49A17,17,0,0,0,37.05,56a9.7,9.7,0,0,0-1-2.13,11.79,11.79,0,0,0-2.47-2.76,8.83,8.83,0,0,0-4.26-1.9A9.67,9.67,0,0,0,23,50.65c-3.35,1.92-4.82,5-6.38,8.36a36.07,36.07,0,0,0-2.36,7.05,43.38,43.38,0,0,0-.83,4.42L13.3,70a53.4,53.4,0,0,1,2.42-13.57,21.91,21.91,0,0,1,4.13-8.12,16.81,16.81,0,0,1,7.57-5.38,15.93,15.93,0,0,1,8.27-.48A15.46,15.46,0,0,1,39.94,44a24.09,24.09,0,0,1,2.84,1.88,21.52,21.52,0,0,1,6.73,8.24,20.54,20.54,0,0,1,1.69,7.14c.08.93.13,1.92.2,3A44.43,44.43,0,0,1,51.05,73.23Z"/><path class="cls-3" d="M104.46,69.88q-1-2.09-2-4.42c-1.86-4.43-1.45-5.83-3.08-8.72-.3-.54-.63-1.12-1-1.7a8.77,8.77,0,0,0-3.84-3.44,8.87,8.87,0,0,0-6-.24c-4.13,1.28-5.93,5.13-6.38,6.1a19.8,19.8,0,0,0-1.84,9.86,20.34,20.34,0,0,0,2,8.53c1.18,2.92,2.62,3.82,3.35,6.05,0,.12.08.24.11.36-1.29-1.62-7.11-3-15.12-3.67,0-.43,0-.86-.07-1.29,0-.15,0-.29,0-.44s0-.55,0-.82a.57.57,0,0,1,0-.13v-.37c0-.5,0-1,0-1.52v-1.3c0-.49,0-1,0-1.52,0-5,0-7.49,1-10.76a29.6,29.6,0,0,1,4.14-8.6c1.61-2.45,2.84-4.27,5.19-5.85a12.92,12.92,0,0,1,5.79-2.27,13.24,13.24,0,0,1,9.1,2.51c2.56,1.82,4.19,4.32,5.67,8.12l.2.5c.05.16.11.32.17.47s.13.35.19.53l.21.63c0,.15.1.29.14.44s.1.29.14.43.09.29.13.44.09.28.13.43l.12.43c.08.29.16.58.23.87s.08.3.11.45c.12.46.22.91.32,1.37,0,.16.07.33.1.49.1.49.19,1,.28,1.47,0,.17,0,.33.08.49l.15,1c0,.13,0,.26.05.4s.07.47.1.71l.09.79v0c0,.27.06.54.08.81s0,.27,0,.41l0,.4c0,.07,0,.14,0,.21s0,.39,0,.58,0,.22,0,.33Z"/><path class="cls-4" d="M104.57,70.12a2.56,2.56,0,0,1-.11-.24c0-.26,0-.52,0-.78s0-.38,0-.58,0-.14,0-.21c0-.27,0-.54-.07-.81s0-.54-.08-.81v0l-.09-.79c0-.24-.06-.48-.1-.71s0-.27-.05-.4l-.15-1c0-.16,0-.32-.08-.49-.09-.48-.18-1-.28-1.47,0-.16-.07-.33-.1-.49-.13-.61-.27-1.21-.43-1.82-.07-.29-.15-.58-.23-.87l-.12-.43c-.08-.29-.17-.58-.26-.87s-.09-.29-.14-.43-.09-.29-.14-.44c-.13-.38-.26-.77-.4-1.16-.06-.15-.12-.31-.17-.47l-.2-.5c-1.48-3.8-3.11-6.3-5.67-8.12a13.24,13.24,0,0,0-9.1-2.51A12.92,12.92,0,0,0,80.7,46c-2.35,1.58-3.58,3.4-5.19,5.85a29.6,29.6,0,0,0-4.14,8.6c-.93,3.27-1,5.81-1,10.76,0,.52,0,1,0,1.52V74c0,.52,0,1,0,1.52v.37a.57.57,0,0,0,0,.13c0,.27,0,.55,0,.82s0,.29,0,.44c0,.43,0,.86.07,1.29-2.79-.24-5.84-.4-9.07-.47,0-1.61-.18-2.83-.18-4.89v-.36c0-7.61,1.83-8.66,1.53-14.46a30.27,30.27,0,0,0-.4-3.86c.25-.71.5-1.41.76-2.11a29.41,29.41,0,0,1,2.28-5.09,22.16,22.16,0,0,1,3.39-4.47,22.47,22.47,0,0,1,7.92-5.25,18.51,18.51,0,0,1,21.85,5.13,17.88,17.88,0,0,1,1.7,2.27h0a28.26,28.26,0,0,1,3.27,8.48,42.56,42.56,0,0,1,.94,16.61Z"/><path class="cls-5" d="M85.43,88.64h0c-.1-.93-2.59-1.78-6.64-2.43-2-.33-4.49-.61-7.23-.82h0c-3.13-.24-6.65-.4-10.4-.45H58.65c-3.94,0-7.68.12-11,.34-3.58.23-6.73.56-9.26,1-4,.66-6.48,1.52-6.48,2.47a.58.58,0,0,0,0,.18.42.42,0,0,1,0-.1,18.51,18.51,0,0,0-.19-2.67A28.13,28.13,0,0,1,31,83v-.06c0-2.15,8-4,19-4.6,2.68-.15,5.54-.23,8.51-.23h.85l2.17,0c3.23.07,6.28.23,9.07.47,8,.69,13.83,2,15.12,3.67h0A1.1,1.1,0,0,1,86,83a.91.91,0,0,1-.06.32A12.16,12.16,0,0,1,85.43,88.64Z"/><path class="cls-6" d="M85.43,88.72a.73.73,0,0,1-.24.5c-1,1.11-5.48,2.06-11.78,2.65h0c-3.46.33-7.49.54-11.83.61l-2.93,0c-14.24,0-25.88-1.57-26.73-3.55,0,0,0,0,0,0h0a.58.58,0,0,1,0-.18c0-1,2.44-1.81,6.48-2.47,2.53-.42,5.68-.75,9.26-1,3.37-.22,7.11-.34,11-.34h2.49c3.75,0,7.27.21,10.4.45h0c2.74.21,5.18.49,7.23.82,4,.65,6.54,1.5,6.64,2.43h0A.11.11,0,0,1,85.43,88.72Z"/><path class="cls-7" d="M115.27,70.12a25.14,25.14,0,0,1-.65,4.3,32.42,32.42,0,0,0-1.84-5.79,23.9,23.9,0,0,0-4-6.81,21.93,21.93,0,0,0-4.3-3.87,44.05,44.05,0,0,0-.9-4.44A28.26,28.26,0,0,0,100.36,45a21.62,21.62,0,0,1,5.51,3c6.07,4.68,7.83,11.51,8.57,14.39A25.6,25.6,0,0,1,115.27,70.12Z"/><path class="cls-7" d="M98.37,55a16.6,16.6,0,0,0-2.72-.45c-1.66-.13-6.53-.5-10.1,2.87a11.83,11.83,0,0,0-3.19,5.73c-1.14,4-.2,7.46,1.06,12.19A51.51,51.51,0,0,0,85.67,82l-.08,0c-.73-2.23-2.17-3.13-3.35-6.05a20.34,20.34,0,0,1-2-8.53,19.8,19.8,0,0,1,1.84-9.86c.45-1,2.25-4.82,6.38-6.1a8.87,8.87,0,0,1,6,.24A8.77,8.77,0,0,1,98.37,55Z"/><path class="cls-8" d="M37.05,56l-1,.74a24.37,24.37,0,0,0-5,5.26,43.62,43.62,0,0,0-3.19,4.77A34.16,34.16,0,0,1,29.31,60a34.55,34.55,0,0,1,4.26-8.86A11.79,11.79,0,0,1,36,53.87,9.7,9.7,0,0,1,37.05,56Z"/><path class="cls-8" d="M65.5,47.35a29.41,29.41,0,0,0-2.28,5.09c-.26.7-.51,1.4-.76,2.11a21.52,21.52,0,0,0-1.72-5.46,22.05,22.05,0,0,0-9.21-9.5c.35,0,.7,0,1,.07a15.46,15.46,0,0,1,4.49,1.19,19.09,19.09,0,0,1,7.21,4.9A16.14,16.14,0,0,1,65.5,47.35Z"/><ellipse class="cls-9" cx="13.3" cy="68.08" rx="5.8" ry="5.86"/><ellipse class="cls-9" cx="29.37" cy="64.1" rx="5.8" ry="5.86"/><ellipse class="cls-9" cx="103.1" cy="68.81" rx="5.8" ry="5.86"/><ellipse class="cls-9" cx="114.7" cy="72.72" rx="5.8" ry="5.86"/></svg>