<svg id="附加驱动" xmlns="http://www.w3.org/2000/svg" viewBox="0 0 128 128"><defs><style>.cls-1{fill:#263238;}.cls-2{fill:#e0e0e0;}.cls-3{fill:#455a64;}.cls-4{fill:#b9c1c3;}.cls-5{fill:#08bc08;}.cls-6{fill:#00a000;}.cls-7{fill:none;stroke:#00a000;stroke-miterlimit:10;stroke-width:4px;}</style></defs><title>128</title><g id="_128" data-name="128"><g id="g6"><path id="path10" class="cls-1" d="M8,102v12a6,6,0,0,0,6,6H114a6,6,0,0,0,6-6V102Z"/><path class="cls-2" d="M120,102,104.91,20.9A6,6,0,0,0,99,16H29a6,6,0,0,0-5.9,4.9L8,102Z"/><polygon class="cls-3" points="9.71 93 8 102 120 102 118.29 93 9.71 93"/></g><g id="g12"><path id="path14" class="cls-4" d="M52,115H47v-8h5Z"/><path id="path14-2" data-name="path14" class="cls-4" d="M42,115H37v-8h5Z"/><path id="path14-3" data-name="path14" class="cls-4" d="M32,115H27v-8h5Z"/><path id="path14-4" data-name="path14" class="cls-4" d="M22,115H17v-8h5Z"/><path id="path16" class="cls-5" d="M94,115h14v-8H94Z"/></g><rect class="cls-6" x="60" y="34" width="4" height="40"/><circle class="cls-6" cx="62" cy="79" r="6"/><polygon class="cls-6" points="61.67 25 54.33 34.33 69 34.33 61.67 25"/><path class="cls-7" d="M50,52v4.92A10.11,10.11,0,0,0,60.08,67h0"/><path class="cls-7" d="M74,42v6.92A10.11,10.11,0,0,1,63.92,59h0"/><circle class="cls-6" cx="50" cy="49" r="5"/><rect class="cls-6" x="69" y="36" width="10" height="10"/></g></svg>