<svg id="图层_1" data-name="图层 1" xmlns="http://www.w3.org/2000/svg" viewBox="0 0 128 128"><defs><style>.cls-1{fill:#e4c791;}.cls-2{fill:#cda769;}.cls-3{fill:#263238;}.cls-4{fill:#795548;}.cls-5{fill:#f5f5f5;}.cls-6{fill:#a1887f;}.cls-7{fill:#5d4037;}.cls-8{fill:#e0e0e0;}.cls-9{fill:#fff;}</style></defs><title>kanatest-112</title><path class="cls-1" d="M101,12v99.88H16.18v-77a5,5,0,0,1,1.31-3.37h0l0,0,.24-.13,34.72-19.1h0L53,12Z"/><path class="cls-2" d="M53,12,27.66,41.26c-.37-.6-.67-4.48-1.42-7.09A12.93,12.93,0,0,0,25,31.73c-2.35-2.67-6.21-.93-7.26-.38l34.72-19.1h0Z"/><path class="cls-3" d="M67.08,93.45a14.92,14.92,0,0,1-4.79-.78c-4.61-1.58-7.27-5.11-9.64-9.48a31.28,31.28,0,0,1-5,3.51c-3.7,2.11-9.91,5.64-14.12,2.71-4-2.81-3.32-9.69-2.38-12.93,1.7-5.88,6.38-9.11,9.49-11.25a39.85,39.85,0,0,1,5-3c-.17-1.22-.3-2.49-.4-3.83a72.36,72.36,0,0,1,3.14-27,1.38,1.38,0,0,1,2.64.81,69.7,69.7,0,0,0-3,26c.08,1,.17,1.95.28,2.88A44.26,44.26,0,0,1,64.3,58a2.88,2.88,0,0,0-.52-1.34c-.87-1.19-3-1.76-5.91-1.6a1.38,1.38,0,0,1-.14-2.76c4-.21,6.79.7,8.28,2.72a5.77,5.77,0,0,1,1.08,3c.58,0,1.12.06,1.63.11C76,58.84,82.94,59.43,86.43,65c3.9,6.26.92,15-3.49,20.42C79.37,89.85,73.25,93.45,67.08,93.45ZM54.73,81.22c2.23,4.26,4.52,7.49,8.45,8.83,6.41,2.19,13.71-1.53,17.61-6.35,3.19-3.93,6.7-11.76,3.3-17.22-2.76-4.42-8.72-4.93-15.61-5.52-.5-.05-1-.08-1.64-.11-.78,3.5-3.18,7.48-5.39,11.17A48.52,48.52,0,0,1,54.73,81.22ZM46.16,65.15a36.18,36.18,0,0,0-3.93,2.36c-2.94,2-7,4.8-8.4,9.73-.84,2.89-1.22,8.14,1.31,9.9,2.78,1.94,8.24-1.17,11.18-2.84a28.65,28.65,0,0,0,5-3.64c-.32-.64-.64-1.3-1-2A52.21,52.21,0,0,1,46.16,65.15Zm2.6-1.21a49.9,49.9,0,0,0,4.11,13.55c.18.38.37.75.55,1.11a48.75,48.75,0,0,0,5.67-8c1.81-3,4.06-6.78,4.91-9.79A40.88,40.88,0,0,0,48.76,63.94Z"/><path class="cls-3" d="M44.11,49.86h-.54a24.29,24.29,0,0,1-14.08-5.54,1.38,1.38,0,0,1,1.7-2.18,21.58,21.58,0,0,0,12.46,5c3.54.1,6.83-1.05,13.39-3.32,2.89-1,5.76-2.13,8.53-3.36A1.38,1.38,0,0,1,66.69,43c-2.84,1.25-5.78,2.41-8.74,3.44C51.38,48.67,47.93,49.86,44.11,49.86Z"/><path class="cls-4" d="M84.94,86.06,12.4,115.79A2.84,2.84,0,0,1,9.14,115a2.64,2.64,0,0,1-.4-.67,2.79,2.79,0,0,1-.24-1.12,2.83,2.83,0,0,1,1.62-2.56L81,77.05h0l2.39,5.47Z"/><path class="cls-5" d="M119.5,65.38S105,81.94,90.66,84.93l-.46.1c-1,.2-1.8.3-2.45.4A12.45,12.45,0,0,0,85,86l0,0L83.4,82.52,81,77.05h0c2.06-1.18,1.56-2,5.41-4.35C100.56,64,115.7,65,118.89,65.31Z"/><path class="cls-6" d="M81.69,78.6,9,111.6a2.81,2.81,0,0,1,1.14-1L81,77.05l.69,1.55Z"/><path class="cls-7" d="M85,86l0,0L12.4,115.79A2.84,2.84,0,0,1,9.14,115L83.4,82.52Z"/><path class="cls-8" d="M119.5,65.38S105,81.94,90.66,84.93l-.46.1c-1,.2-1.8.3-2.45.4A12.45,12.45,0,0,0,85,86c1.88-.88,6.89-2.6,9.37-3.93C109.14,74.16,116.83,67,119.5,65.38Z"/><path class="cls-8" d="M119.5,65.38s-20.42.09-32.89,8.47L81,77.05c2.06-1.18,1.56-2,5.41-4.35C100.56,64,115.7,65,118.89,65.31Z"/><path class="cls-9" d="M82.4,80.23s10-6.37,16.76-8.69c17.44-6,20.34-6.16,20.34-6.16L83.08,81.77Z"/></svg>