<svg id="图层_1" data-name="图层 1" xmlns="http://www.w3.org/2000/svg" xmlns:xlink="http://www.w3.org/1999/xlink" viewBox="0 0 96 96"><defs><style>.cls-1{fill:#fff;}.cls-2{fill:url(#未命名的渐变_38);}.cls-3{fill:url(#未命名的渐变_21);}.cls-4{fill:#348a63;}.cls-5{fill:none;}.cls-6{fill:url(#未命名的渐变_27);}.cls-7{fill:#266647;}.cls-8{fill:url(#未命名的渐变_12);}.cls-9{fill:url(#未命名的渐变_37);}</style><linearGradient id="未命名的渐变_38" x1="27.65" y1="53" x2="27.65" y2="35.37" gradientUnits="userSpaceOnUse"><stop offset="0" stop-color="#fff"/><stop offset="1" stop-color="#b3b3b3"/></linearGradient><linearGradient id="未命名的渐变_21" x1="38.15" y1="58.55" x2="73.27" y2="38.27" gradientUnits="userSpaceOnUse"><stop offset="0.68" stop-color="#fff"/><stop offset="1" stop-color="#b3b3b3"/></linearGradient><linearGradient id="未命名的渐变_27" x1="20.97" y1="44.28" x2="82.09" y2="44.28" gradientUnits="userSpaceOnUse"><stop offset="0" stop-color="#266647"/><stop offset="1" stop-color="#348a63"/></linearGradient><linearGradient id="未命名的渐变_12" x1="59.09" y1="41.95" x2="75.67" y2="25.38" xlink:href="#未命名的渐变_38"/><linearGradient id="未命名的渐变_37" x1="45.55" y1="28.96" x2="45.55" y2="51.77" gradientUnits="userSpaceOnUse"><stop offset="0" stop-color="#2196f3"/><stop offset="0.96" stop-color="#01579b"/><stop offset="1" stop-color="#0288d1"/></linearGradient></defs><title>kchmviewer22</title><rect class="cls-1" x="6" y="6" width="84" height="84" rx="9"/><polygon class="cls-2" points="21.62 35.37 22.07 43.05 33.68 53 21.62 35.37"/><polygon class="cls-3" points="26.25 37.94 54.19 76.77 81.04 59.65 80.8 51.32 26.25 37.94"/><path class="cls-4" d="M82.06,50.29,22.17,41.82,53.82,78.67,82.36,60.33Zm-1.26,1L81,59.65,54.19,76.77,24.64,41.85Z"/><polygon class="cls-1" points="51.15 20.98 44.46 24.37 56.94 26.09 51.15 20.98"/><polygon class="cls-5" points="80 50.18 80 50.18 80 50.18 80 50.18"/><polygon class="cls-5" points="68.39 38.42 51.15 20.98 22.02 35.74 52.36 67.41 80 50.18 56.95 63.93 68.39 38.42"/><polygon class="cls-1" points="69.1 36.84 68.99 37.08 70.75 38.85 69.1 36.84"/><polygon class="cls-1" points="56.95 63.93 80 50.18 80 50.18 80 50.18 68.39 38.42 56.95 63.93"/><polygon class="cls-1" points="80 50.18 80 50.18 80 50.18 80 50.18"/><path class="cls-6" d="M70.75,38.85,69,37.08,51.68,19.67l-.33-.29L21,35.51,51.83,68.76l.4.42L82.09,50.26ZM52.36,67.41,22,35.74,51.15,21,68.39,38.42,80,50.18h0Z"/><polygon class="cls-7" points="22.02 35.74 24.84 38.67 28.66 32.37 22.02 35.74"/><polygon class="cls-1" points="72.93 28.29 56.94 26.09 69.1 36.84 72.93 28.29"/><polygon class="cls-1" points="34.37 22.98 28.66 32.37 44.46 24.37 34.37 22.98"/><path class="cls-4" d="M34,22.06,13.7,55.41l-.06.11.67,9.19L53.8,73,74.14,27.6ZM53.33,72l-38.2-8-.68-8.23L34.37,23l38.56,5.31Z"/><polygon class="cls-1" points="56.94 26.09 44.46 24.37 28.66 32.37 24.84 38.67 14.45 55.77 15.13 64 53.34 72.01 56.95 63.93 69.1 36.84 56.94 26.09"/><polyline class="cls-8" points="70.95 20.66 73.13 28.52 65.25 45.22 60.22 43.08 70.95 20.8"/><polygon class="cls-1" points="69.78 22.06 45.42 47.93 15.37 55.21 51.3 61.59 69.78 22.06"/><polygon class="cls-4" points="69.78 22.06 70.19 21.18 37.22 18.23 15.11 55.17 15.37 55.21 45.42 47.93 69.78 22.06"/><ellipse class="cls-9" cx="45.55" cy="40.37" rx="10.84" ry="11.41"/><path class="cls-1" d="M45.55,28.36c-6.3,0-11.44,5.38-11.44,12s5.14,12,11.44,12S57,47,57,40.37,51.86,28.36,45.55,28.36Zm0,23.41c-6,0-10.83-5.11-10.83-11.4S39.58,29,45.55,29s10.84,5.12,10.84,11.41S51.53,51.77,45.55,51.77Z"/><path class="cls-4" d="M36.79,17.33l-23,38.47,36.49,6.9L71.45,20.43ZM15.11,55.17,37.22,18.23l33,2.95L49.79,61.74Z"/><path class="cls-1" d="M46.44,32.44H44.07V34h2.37c1.91,0,3.47,1.29,3.47,2.87v1.82c0,1.58-1.56,2.87-3.47,2.87H39.51v5.21h4.56V45.21H41.33V43h5.11c2.92,0,5.29-2,5.29-4.38V36.82C51.73,34.41,49.36,32.44,46.44,32.44Z"/><rect class="cls-1" x="45.17" y="45.21" width="4.56" height="1.51"/></svg>