<?xml version="1.0" encoding="utf-8"?>
<!-- Generator: Adobe Illustrator 24.0.0, SVG Export Plug-In . SVG Version: 6.00 Build 0)  -->
<svg version="1.1" id="图层_1" xmlns="http://www.w3.org/2000/svg" xmlns:xlink="http://www.w3.org/1999/xlink" x="0px" y="0px"
	 viewBox="0 0 128 128" enable-background="new 0 0 128 128" xml:space="preserve">
<title>kig128</title>
<linearGradient id="SVGID_1_" gradientUnits="userSpaceOnUse" x1="70.79" y1="8.66" x2="70.79" y2="115.33" gradientTransform="matrix(1 0 0 -1 0 128)">
	<stop  offset="0" style="stop-color:#E6E6E6"/>
	<stop  offset="1" style="stop-color:#FFFFFF"/>
</linearGradient>
<rect x="26.8" y="12.7" fill="url(#SVGID_1_)" width="87.9" height="106.7"/>
<path fill="#90A4AE" d="M24.2,10.1v111.9h93.2V10.1H24.2z M114.7,119.3H26.8V12.7h87.9L114.7,119.3z"/>
<path fill="#F44336" d="M97.3,67.3c-0.1,0.4-0.2,0.7-0.3,1.1s-0.2,0.7-0.4,1.1h9.4v40.8H68V90.3h-1.1h-0.1h-0.9v22h42.2v-45
	L97.3,67.3z"/>
<path fill="#F44336" d="M67,89.3h1.1V69.5h27.4c0.1-0.3,0.3-0.7,0.4-1.1s0.2-0.7,0.3-1.1H65.9v21.9L67,89.3L67,89.3z"/>
<path fill="#2196F3" d="M66.8,26.7C49.2,26.8,35,41.2,35.1,58.8c0.1,17.1,13.7,31.1,30.8,31.7H67h1.1c12.9-0.5,24.2-8.8,28.7-20.9
	c0.1-0.3,0.2-0.7,0.4-1.1s0.2-0.7,0.3-1.1c4.8-16.9-5-34.6-21.9-39.4C72.7,27.1,69.8,26.7,66.8,26.7z M66.8,28
	c16.9,0,30.6,13.7,30.5,30.6c0,2.9-0.4,5.9-1.3,8.7c-0.1,0.4-0.2,0.7-0.3,1.1s-0.2,0.7-0.4,1.1C91,80.9,80.3,88.6,68,89.1h-1.1h-0.1
	h-0.9C49,88.7,35.7,74.7,36.1,57.8C36.5,41.2,50.2,28,66.8,28L66.8,28z"/>
<polygon fill="none" points="112.6,36.7 112.6,15.9 80.7,15.9 "/>
<path fill="#FADD60" d="M121.4,58.6V7.7H43.5L121.4,58.6z M114.2,39.7L75.3,14.3h38.8L114.2,39.7z"/>
<path fill="#F57C00" d="M75.3,14.3l38.8,25.4V14.3H75.3z M112.6,36.7L80.7,15.9h31.9L112.6,36.7z"/>
<path fill="#F57C00" d="M38.1,6.1L123,61.5V6.1H38.1z M121.4,58.6L43.5,7.7h77.9V58.6z"/>
<path fill="#FDEFBA" d="M64.5,31.9c-0.1-6.9-0.1-6.9-6.6-6.6h-4.8c-1.1,0-2.2,0.3-3.2,0.8L63.7,40c0.5-1,0.8-2.1,0.8-3.2V31.9z"/>
<path fill="#FDEFBA" d="M59.9,26.8c-0.7,0-1.5,0-2.5,0.1h-4.9c-1,0-1.9,0.2-2.8,0.7c-0.5,0.3-0.9,0.6-1.3,1L8.3,68.7
	c-2.3,2.3-2.3,6,0,8.3l4.8,4.8c2.3,2.3,6,2.3,8.3,0c0,0,0,0,0,0l40.1-40.1c0.4-0.4,0.7-0.8,1-1.3c0.5-0.9,0.7-1.8,0.7-2.8v-4.8
	c0-3,0-4.8-0.7-5.4C62.2,26.9,61.3,26.8,59.9,26.8z"/>
<path fill="#F69113" d="M47.8,28L7.7,68.1c-2.6,2.6-2.6,6.8,0,9.4l4.9,4.8c2.6,2.6,6.8,2.6,9.4,0c0,0,0,0,0,0l40.1-40.1
	c0.4-0.4,0.8-0.9,1.1-1.5L49.3,26.9C48.8,27.2,48.3,27.6,47.8,28z"/>
<path fill="#F44336" d="M62.9,26.8l0.5,0.5c0.2,0.3,0.7,0.4,1,0.2l1.2-1.2c0.2-0.3,0.2-0.8-0.1-1c0,0,0,0,0,0l-0.5-0.5
	c-0.2-0.3-0.7-0.4-1-0.2l-1.2,1.2C62.5,26.1,62.5,26.5,62.9,26.8C62.9,26.7,62.9,26.8,62.9,26.8z"/>
<path fill="#F44336" d="M63.7,26.1c-1.1-1-2.8-1-6.3-0.9h-4.9c-1.3,0-2.5,0.3-3.6,0.9c-0.6,0.3-1.2,0.8-1.7,1.3L7.2,67.5
	c-2.9,2.9-2.9,7.6,0,10.5l4.8,4.8c2.9,2.9,7.6,2.9,10.5,0l40.1-40.1c0.5-0.5,0.9-1.1,1.3-1.7c0.6-1.1,0.9-2.3,0.9-3.6v-4.9
	C64.8,29,64.8,27.2,63.7,26.1z M63.2,37.5c0,1-0.2,2-0.7,2.8c-0.3,0.5-0.6,0.9-1,1.3L21.4,81.8c-2.3,2.3-6,2.3-8.3,0c0,0,0,0,0,0
	l-4.8-4.8c-2.3-2.3-2.3-6,0-8.3l40.1-40.1c0.4-0.4,0.8-0.7,1.3-1c0.9-0.5,1.8-0.7,2.8-0.7h4.9c1,0,1.8-0.1,2.5-0.1
	c1.4,0,2.3,0.1,2.7,0.5c0.6,0.6,0.6,2.4,0.7,5.4L63.2,37.5z"/>
</svg>
