<svg id="图层_1" data-name="图层 1" xmlns="http://www.w3.org/2000/svg" xmlns:xlink="http://www.w3.org/1999/xlink" viewBox="0 0 128 128"><defs><style>.cls-1{fill:#2f2f98;}.cls-2{fill:url(#未命名的渐变_75);}.cls-3{fill:url(#未命名的渐变_61);}</style><linearGradient id="未命名的渐变_75" x1="80.23" y1="93.83" x2="80.23" y2="35.74" gradientUnits="userSpaceOnUse"><stop offset="0" stop-color="#8e4600"/><stop offset="0.58" stop-color="#e49c1d"/><stop offset="1" stop-color="#8e4600"/></linearGradient><linearGradient id="未命名的渐变_61" x1="37.64" y1="85.69" x2="37.64" y2="48.81" gradientUnits="userSpaceOnUse"><stop offset="0" stop-color="#171500"/><stop offset="0.1" stop-color="#392300"/><stop offset="0.24" stop-color="#673600"/><stop offset="0.36" stop-color="#834200"/><stop offset="0.42" stop-color="#8e4600"/><stop offset="0.68" stop-color="#5c3100"/><stop offset="1" stop-color="#171500"/></linearGradient></defs><title>kiki-the-nano-bot-112</title><path class="cls-1" d="M117.57,55.42A47.46,47.46,0,0,0,110,35.13h0a41.48,41.48,0,0,0-2.62-3.44c-6.2-7.3-14.44-11.49-22.91-10.67-15.56,1.52-25.95,19.38-23.23,39.9s17.55,35.92,33.1,34.4c9.13-.89,16.49-7.41,20.45-16.79a39.65,39.65,0,0,0,2.14-6.72A47.05,47.05,0,0,0,117.57,55.42ZM89,75.71c-3.08.3-6.46-6.13-7.55-14.38S82,46.17,85,45.87,91.48,52,92.57,60.25,92.06,75.41,89,75.71Z"/><path class="cls-2" d="M97.93,61c-.34.93-.72,1.92-1.16,2.94a50,50,0,0,1-8.21,13.57c-5.06,6-6.24,7.26-10,9.82A45.65,45.65,0,0,1,69,92.39,37.23,37.23,0,0,1,65,93.83a44,44,0,0,0,2-4.69,55.11,55.11,0,0,0,2.26-8.3,67.58,67.58,0,0,0,.67-20.22A65,65,0,0,0,62,35.74c2.19.22,4.37.48,5.67.68a36.17,36.17,0,0,1,10,3,55.38,55.38,0,0,1,9.59,5.41,75.18,75.18,0,0,1,7.76,6A9.25,9.25,0,0,1,97.93,61Z"/><path class="cls-1" d="M69.88,60.62A65,65,0,0,0,62,35.74l-.11-.19h0a46.34,46.34,0,0,0-2.76-4.25c-6.54-9-15.24-14.19-24.17-13.17C18.55,20,7.58,42.05,10.46,67.39S29,111.74,45.37,109.87c8.28-.94,15.16-7,19.59-16a44,44,0,0,0,2-4.69,55.11,55.11,0,0,0,2.26-8.3A67.58,67.58,0,0,0,69.88,60.62ZM39.73,85.67c-3.24.37-6.81-7.58-8-17.76s.54-18.72,3.79-19.09,6.81,7.58,8,17.76S43,85.3,39.73,85.67Z"/><path class="cls-3" d="M39.73,85.67c-3.25.37-6.81-7.58-8-17.76s.54-18.72,3.79-19.09,6.8,7.58,8,17.76S43,85.3,39.73,85.67Z"/></svg>