<svg id="图层_1" data-name="图层 1" xmlns="http://www.w3.org/2000/svg" viewBox="0 0 128 128"><defs><style>.cls-1{fill:#164072;}.cls-2{fill:#263238;}.cls-3{fill:#fff;}</style></defs><title>kile-112</title><rect class="cls-1" x="8" y="8" width="112" height="112" rx="12" ry="12"/><path class="cls-2" d="M39.92,40V61.63L56.72,40H69.19L50.76,62.44,70.81,90.09H57.53L39.92,64.61V90.09H29.08V40Z"/><path class="cls-2" d="M76,80.69V75.6h24.15v5.09Z"/><path class="cls-2" d="M93.14,55.89V67c2.87.08,4.26-.87,4.18-2.88A2.87,2.87,0,0,0,95.23,61V56.41q5.08.8,5.22,7.7,0,8.1-8.61,8t-8.88-8q0-5.22,3.92-7.17a14.6,14.6,0,0,1,3-.92h1.43A10.62,10.62,0,0,1,93.14,55.89ZM89.75,67V61.11q-3.52,0-3.53,3Q86.22,66.85,89.75,67Z"/><rect class="cls-2" x="83.35" y="84.87" width="16.84" height="5.09"/><circle class="cls-2" cx="78.59" cy="87.41" r="2.55"/><path class="cls-3" d="M38.39,37.91V59.59l16.8-21.68H67.66L49.23,60.41,69.29,88.05H56L38.39,62.58V88.05H27.55V37.91Z"/><path class="cls-3" d="M74.52,78.65V73.56H98.66v5.09Z"/><path class="cls-3" d="M91.61,53.86V65c2.87.09,4.27-.87,4.18-2.87A2.85,2.85,0,0,0,93.7,59V54.38q5.08.78,5.22,7.7,0,8.08-8.61,8t-8.88-8c0-3.48,1.31-5.88,3.92-7.18a14,14,0,0,1,3-.91h1.44A9.51,9.51,0,0,1,91.61,53.86ZM88.22,65V59.08q-3.52,0-3.52,3Q84.7,64.81,88.22,65Z"/><rect class="cls-3" x="81.82" y="82.83" width="16.84" height="5.09"/><circle class="cls-3" cx="77.06" cy="85.37" r="2.55"/></svg>