<?xml version="1.0" encoding="utf-8"?>
<!-- Generator: Adobe Illustrator 24.0.0, SVG Export Plug-In . SVG Version: 6.00 Build 0)  -->
<svg version="1.1" id="图层_1" xmlns="http://www.w3.org/2000/svg" xmlns:xlink="http://www.w3.org/1999/xlink" x="0px" y="0px"
	 viewBox="0 0 128 128" enable-background="new 0 0 128 128" xml:space="preserve">
<title>kimagemapeditor-112</title>
<path fill="#1F5990" d="M120.5,64c0,31.2-25.3,56.5-56.5,56.5c-19.6,0-37.8-10.2-48.1-26.8c-4.9-7.8-7.7-16.7-8.3-25.9
	c-0.1-1.2-0.1-2.5-0.1-3.8c0-19.8,10.4-38.2,27.3-48.4c1-0.6,2-1.1,3-1.7l0,0c6.8-3.6,14.4-5.7,22.1-6.3l0,0
	c1.3-0.1,2.7-0.2,4.1-0.2c0.9,0,1.7,0,2.5,0.1C96.7,8.9,120.5,33.8,120.5,64z"/>
<path fill="#467A2C" d="M35.2,21.6c-0.9,3.9-4,6.4-5.7,7.7c-2.3,1.9-5.1,3.2-8.1,3.7c-1.5,0.2-3.1,0.2-4.6,0
	c4.6-7.1,10.8-13,18-17.4C35.5,17.6,35.6,19.6,35.2,21.6z"/>
<path fill="#467A2C" d="M52.5,14.1c0.4,1.6,3.8,1.1,4.9,3.2s-0.9,4.9-2.3,6.4c-0.9,1-2.3,2.1-9.7,4.1c-5.3,1.4-9,2.4-9.4,1.5
	c-0.3-0.8,1.7-2.5,3.2-3.6c3-2.5,4.7-2.7,8.1-5.5c2.8-2.2,3-3.2,2.9-3.8c-0.2-0.7-0.9-1.3-1.7-1.4c-1.5-0.1-2.4,2-4.4,4.1
	c-1.7,1.7-3.7,3.1-5.9,4c0.4-0.3,2.5-1.9,2.4-4.3c-0.1-1.3-0.6-2.5-1.5-3.5c-0.4-0.5-0.8-1-1.2-1.4c6.8-3.6,14.4-5.7,22.1-6.3
	c-0.9,0.4-1.8,0.9-2.7,1.5C55.7,10.1,52.1,12.4,52.5,14.1z"/>
<path fill="#467A2C" d="M85.7,102.8c-0.7-0.1-0.8,1.4-2.9,3.8c-1.2,1.3-2,1.8-2.1,2.9c-0.1,0.8,0.2,1.6,0.9,2.1
	c1,0.7,2.5-0.2,2.9-0.4c1.1-0.7,2-1.9,2.3-3.2C87.3,105.7,86.6,102.9,85.7,102.8z"/>
<path fill="#467A2C" d="M15.9,93.7c-4.9-7.8-7.7-16.7-8.3-25.9c0.9,1.8,1.8,3.9,2.8,6.2c1.4,3.2,2.6,6.5,3.6,9.9
	C15,87,15.6,90.3,15.9,93.7z"/>
<path fill="#467A2C" d="M66.5,7.6c0.9,0.4,1.7,0.8,2.4,1.1c2.7,1.2,5.2,2.8,7.3,4.9c1.4,1.3,2.1,2.4,1.8,3.2c-0.4,1.4-3.2,1-3.7,2.4
	c-0.4,1.2,1.6,2.1,1.7,4.4c0,1-0.3,2.4-1.1,2.6c-1.3,0.4-2.8-3.2-3.7-2.9c-0.7,0.3-0.5,3,0,5.2c0.4,1.7,1,2.3,0.6,2.7
	c-0.5,0.7-2.3-0.4-5.9-1.2c-2.8-0.6-4.2-0.9-5.6-0.3c-1,0.4-2,1.8-3.8,4.4C53.9,38,54,38.9,54,39.4c0.3,1.7,1.8,2.2,1.5,3.3
	c-0.5,1.4-1.9,2.2-3.3,2C50,44,51,39.3,48.5,38.2c-1.3-0.4-2.7,0-3.6,0.9c-2,1.9-0.7,5.5-0.6,5.8c0.9,2.5,2.5,2.8,2.4,4.4
	c-0.3,1.5-1.3,2.8-2.7,3.3c-2,0.8-3.3-0.4-4.4,0.5s-0.2,2.9-0.9,5.5c-0.9,3.1-3.3,3.2-7,7c-2.3,2.1-3.9,4.7-4.9,7.6
	c-0.2,0.6-1.7,6.7,2.1,11.6c1.9,2.3,4.5,3.9,7.5,4.6c3.5,0.7,4.8-0.8,7.6,0.3c2.6,1.1,3.9,3.3,5,5.2c0.5,0.8,1.5,2.6,2.9,9.4
	c1.3,6.3,1,7.4,2.4,9.3c1.6,2,3.9,3.4,6.4,4c2.5,0.7,5.2,0.6,7.7-0.2c6.2-1.9,8.9-7.6,9.3-8.5c2-4.4,0-5.7,2.3-10
	c1.5-2.8,2.6-2.8,6.1-7.8c1.9-2.7,4.2-5.9,3.3-7c-1-1.2-5.6,1.3-5.9,0.6s2.4-2.7,4.4-4.1c4.5-3.1,6.4-3.2,6.8-5
	c0.6-2.3-2.2-4.8-2.7-5.3c-0.9-0.8-2.4-1.8-2.9-1.4s0.2,1.4-0.3,1.8c-0.7,0.6-3,0-3.5-1.5c-0.2-0.9,0-1.9,0.7-2.5
	c0.8-0.9,2.1-1.3,9.7,0c3.6,0.6,5.4,0.9,6.1,1.4c2.6,1.9,2.2,4.6,5.6,7.2c0.6,0.4,2.5,1.9,3.3,1.4s-0.5-3.2-0.9-8.1
	c-0.3-3.3-0.4-5.4,0.9-6.7c1.5-1.3,3.7-1.4,5.3-0.3c1.3,1.2,1,3.4,0.9,4.4c-0.2,2.6,0,6.3,1.9,11.6c7.4-30.3-11.1-60.9-41.4-68.3
	C73.9,8.2,70.2,7.7,66.5,7.6z M60,53.4c-2.5,3.6-6.1,4.9-8.1,5.6c-3.5,1.3-7.9,1.6-8.2,0.6c-0.1-0.3,0.2-0.7,2.1-2.3
	c3.5-2.8,4.5-2.9,6.1-4.3c2.9-2.4,2-4.2,5.3-8.2c1.2-1.5,2.6-2.8,4.1-4C61.6,41.8,63.6,48,60,53.4z M75.3,56c-0.2,0.8-1.4,1.2-2,1.4
	c-0.8,0.2-1.3,0.2-3.8,0s-3-0.3-3.2-0.6c-0.8-1.1,0.6-3.3,0.8-3.5c1.7-0.7,3.6-0.8,5.3-0.2C73.7,53.6,75.5,54.9,75.3,56z M84.9,59.3
	c-0.6,0.2-1.4-1-2.3-2.3c-0.9-1.3-1.7-2.8-2.3-4.3c0.3,0,3.5,0.2,4.7,2.6C85.8,56.9,85.6,59.1,84.9,59.3L84.9,59.3z"/>
<path fill="#467A2C" d="M46,31c-0.5,0.3-0.8,0.9-0.8,1.5c0.3,0.8,1.2,1.3,2,1.1c0.9-0.2,1.5-1.2,1.2-2.2c0,0,0-0.1,0-0.1
	C47.8,30.6,46.8,30.4,46,31z"/>
<path fill="#467A2C" d="M61.5,23.4c-0.3,0.4-0.4,1-0.2,1.5c0.3,0.8,1.2,1.3,2,1.1c0.8-0.6,0.9-1.8,0.3-2.6c0-0.1-0.1-0.1-0.2-0.2
	C62.9,22.8,62,22.9,61.5,23.4z"/>
<path fill="#FFFF00" d="M28.6,52.3l-15.4-7v-2.1l15.4-7v2.6l-11.9,5.5l11.9,5.5V52.3z"/>
<path fill="#FFFF00" d="M55.9,55.1h-2.5v-8.8c0-1-0.1-2.1-0.3-3.1c-0.2-0.7-0.6-1.2-1.1-1.7c-0.6-0.5-1.4-0.7-2.2-0.7
	c-0.9,0-1.8,0.3-2.6,0.9c-0.8,0.6-1.4,1.4-1.7,2.4c-0.4,1.5-0.5,3-0.5,4.5v6.4h-2.4v-8.3c0-1.2-0.1-2.3-0.3-3.5
	c-0.2-0.7-0.5-1.3-1.1-1.8c-0.6-0.5-1.4-0.7-2.2-0.7c-0.9,0-1.8,0.3-2.5,0.8c-0.8,0.5-1.3,1.3-1.7,2.1c-0.5,1.4-0.7,2.9-0.6,4.4v6.9
	H32V39h2.4v2.3c1.2-1.7,3.1-2.7,5.2-2.7c1.1,0,2.2,0.3,3.1,0.9c0.9,0.6,1.6,1.5,2,2.6c0.6-1.1,1.5-1.9,2.5-2.6
	c1-0.6,2.1-0.9,3.2-0.9c1.5,0,2.9,0.6,3.9,1.6c1.1,1.1,1.6,3.1,1.6,6.1L55.9,55.1z"/>
<path fill="#FFFF00" d="M75.8,55.1h-2.4v-2.4c-1.5,1.8-3.7,2.9-6.1,2.9c-2.2,0-4.4-0.9-5.9-2.5C59.9,51.5,59,49.3,59,47
	c0-2.2,0.9-4.4,2.5-6c1.6-1.6,3.7-2.5,6-2.5c2.3,0,4.5,1,5.9,2.9V39h2.4L75.8,55.1z M67.5,53.3c1.6,0,3.1-0.6,4.2-1.8
	c1.2-1.2,1.8-2.8,1.8-4.4c0-1.7-0.6-3.3-1.8-4.4c-1.1-1.2-2.7-1.8-4.3-1.8c-1.6,0-3.2,0.6-4.3,1.8c-2.4,2.4-2.4,6.3,0,8.7
	C64.3,52.7,65.9,53.4,67.5,53.3z"/>
<path fill="#FFFF00" d="M82.4,41.4c1.4-1.8,3.6-2.9,5.9-2.9c2.3,0,4.4,0.9,6,2.5c1.6,1.6,2.5,3.7,2.5,6c0,2.2-0.8,4.4-2.4,6
	c-1.5,1.6-3.6,2.5-5.9,2.5c-2.4,0-4.6-1.1-6.1-2.9v8.1H80V39h2.4L82.4,41.4z M88.4,53.3c1.6,0,3.1-0.7,4.2-1.8
	c2.4-2.5,2.4-6.3,0-8.8c-2.3-2.4-6.1-2.4-8.5-0.1c0,0-0.1,0.1-0.1,0.1c-1.1,1.2-1.8,2.8-1.7,4.4c0,1.7,0.6,3.3,1.8,4.4
	C85.2,52.8,86.7,53.4,88.4,53.3z"/>
<path fill="#FFFF00" d="M114.8,45.3l-15.3,7v-2.6l11.8-5.5l-11.8-5.5v-2.6l15.3,7V45.3z"/>
<path fill="#FFFFFF" d="M58.8,99.2h19.3c0.7,0,1.4-0.5,1.5-1.2c0.3-1.2,0.7-3.2,1.1-4.8c0.8-2.6,1-4.3,1.9-8.4
	c1.7-8.3,1.6-10.2,1.2-11c-0.3-0.4-0.9-3.2-3.8-3c-1.1,0.1-2.7,1.3-3.2,1.8c0.2-1.1,0.2-2.3-0.2-3.3c-0.1-0.3-1-2.8-2.7-2.9
	c-1.6-0.1-3,0.9-3.6,2.3c-0.1-1-0.4-2-1-2.8c-0.6-1-1.7-1.7-2.8-1.8c-1.8,0-3,1.8-3.3,2.2c-0.6,0.9-0.8,1.9-0.8,3V52.1
	c0-1.4-0.7-2.8-1.9-3.6l-0.1-0.1c-0.2-0.2-1.3-1-3.4,0.1l0,0c-1.1,0.6-1.8,1.7-1.8,3v24.9c-0.3-1-2.4-3.3-4.8-5.3
	c-1.2-1-2.8-2.7-4.5-2.2c-0.8,0.3-1.5,0.9-1.8,1.6c-0.8,1.8,0.3,4,0.8,4.9c1.9,3.5,6.2,11.7,12,22.7C57.4,98.8,58.1,99.2,58.8,99.2z
	"/>
<path d="M59.1,48c0.5,0,1,0.1,1.4,0.5l0.1,0.1c1.2,0.8,1.9,2.2,1.9,3.6v16.8c0-1,0.3-1.9,0.8-2.8c0.3-0.4,1.4-2.2,3.2-2.2h0.1
	c1.2,0.1,2.2,0.8,2.8,1.8c0.6,0.8,0.9,1.8,1,2.8c0.6-1.4,1.9-2.3,3.4-2.3H74c1.7,0.1,2.6,2.6,2.7,2.9c0.3,1.1,0.4,2.2,0.2,3.3
	c0.5-0.4,2.1-1.7,3.2-1.8h0.2c2.7,0,3.3,2.6,3.5,3c0.4,0.7,0.5,2.6-1.2,11c-0.8,4.1-1.1,5.8-1.9,8.4c-0.5,1.6-0.9,3.6-1.1,4.8
	c-0.1,0.7-0.8,1.2-1.5,1.2H58.8c-0.7,0-1.4-0.4-1.7-1c-5.9-11-10.1-19.2-12-22.7c-0.5-0.9-1.7-3-0.8-4.9c0.4-0.8,1-1.4,1.8-1.6
	c0.2-0.1,0.4-0.1,0.6-0.1c1.5,0,2.8,1.4,3.9,2.3c2.4,2,4.5,4.3,4.8,5.3V51.6c0-1.3,0.7-2.4,1.8-3l0,0C57.7,48.3,58.4,48.1,59.1,48
	 M59.1,46.8c-0.9,0-1.8,0.3-2.5,0.7c-1.5,0.8-2.4,2.4-2.5,4.1v21.2c-1.2-1.3-2.5-2.4-2.8-2.6l-0.5-0.4c-1.1-1-2.5-2.2-4.2-2.2
	c-0.3,0-0.6,0-0.9,0.1c-1.2,0.4-2.1,1.2-2.6,2.3c-1.1,2.3,0.3,5,0.8,5.9c0.8,1.5,2.1,3.9,3.7,7c2.1,4,5,9.5,8.3,15.8
	c0.6,1,1.6,1.7,2.8,1.7h19.2c1.3,0,2.4-0.9,2.7-2.2c0.3-1.3,0.7-3.2,1.1-4.7c0.6-2.1,0.9-3.5,1.4-6c0.2-0.7,0.3-1.5,0.5-2.4
	c1.9-9.2,1.6-10.8,1.1-11.8c0-0.1-0.1-0.1-0.1-0.2c-0.6-2-2.4-3.4-4.5-3.5H80c-0.6,0.1-1.3,0.3-1.8,0.6c0-0.5-0.2-1-0.3-1.4l0,0
	c-1.1-2.9-2.7-3.6-3.8-3.6h-0.2c-1,0-2,0.3-2.9,0.8c-0.2-0.4-0.4-0.7-0.6-1c-0.8-1.3-2.2-2.2-3.8-2.3h-0.1c-1,0-2,0.4-2.8,1.1V52.1
	c0-1.8-0.9-3.6-2.4-4.6l-0.1-0.1C60.6,47,59.9,46.8,59.1,46.8L59.1,46.8z"/>
</svg>
