<svg id="图层_1" data-name="图层 1" xmlns="http://www.w3.org/2000/svg" viewBox="0 0 128 128"><defs><style>.cls-1{fill:#1f5990;}.cls-2{fill:#467a2c;}.cls-3{fill:#ff0;}.cls-4{fill:#fff;}</style></defs><title>kimagemapeditor-112</title><path class="cls-1" d="M120.5,64A56.5,56.5,0,0,1,15.92,93.68,56,56,0,0,1,7.63,67.75C7.54,66.51,7.5,65.26,7.5,64A56.55,56.55,0,0,1,34.83,15.61q1.45-.88,3-1.68h0A56,56,0,0,1,59.9,7.65h0c1.35-.1,2.72-.15,4.09-.15.85,0,1.69,0,2.53.06A56.49,56.49,0,0,1,120.5,64Z"/><path class="cls-2" d="M35.22,21.65c-.9,3.94-4,6.42-5.67,7.7A16.69,16.69,0,0,1,21.44,33a15.34,15.34,0,0,1-4.65,0,56.45,56.45,0,0,1,18-17.36A11,11,0,0,1,35.22,21.65Z"/><path class="cls-2" d="M52.51,14.15c.39,1.62,3.85,1.06,4.86,3.19s-.91,4.91-2.28,6.39c-.94,1-2.34,2.11-9.73,4.1-5.25,1.42-9,2.43-9.43,1.52-.35-.75,1.73-2.45,3.2-3.65,3-2.48,4.68-2.74,8.06-5.47,2.76-2.24,3-3.17,2.88-3.8a2,2,0,0,0-1.67-1.37c-1.52-.13-2.42,2-4.41,4.11a16.79,16.79,0,0,1-5.93,3.95c.41-.31,2.46-1.91,2.44-4.26A6.23,6.23,0,0,0,39,15.36a14.7,14.7,0,0,0-1.17-1.43A56,56,0,0,1,59.9,7.65a29.31,29.31,0,0,0-2.68,1.48C55.7,10.09,52.08,12.39,52.51,14.15Z"/><path class="cls-2" d="M85.66,102.79c-.7-.08-.76,1.44-2.89,3.81-1.22,1.35-2,1.79-2.13,2.89a2.29,2.29,0,0,0,.91,2.12c1,.65,2.46-.2,2.89-.45a5.34,5.34,0,0,0,2.28-3.2C87.34,105.66,86.57,102.91,85.66,102.79Z"/><path class="cls-2" d="M15.92,93.68A56,56,0,0,1,7.63,67.75c.87,1.81,1.8,3.87,2.76,6.15A76.38,76.38,0,0,1,14,83.79,53.17,53.17,0,0,1,15.92,93.68Z"/><path class="cls-2" d="M66.53,7.56c.87.43,1.68.8,2.4,1.11a25.11,25.11,0,0,1,7.3,4.87c1.37,1.33,2.08,2.36,1.82,3.19-.43,1.39-3.21,1-3.65,2.44C74,20.41,76,21.26,76.08,23.58c0,1-.34,2.39-1.07,2.58-1.28.35-2.8-3.22-3.65-2.89-.69.27-.54,3,0,5.17.44,1.73,1,2.33.61,2.74-.54.66-2.3-.43-5.93-1.22-2.79-.6-4.18-.9-5.63-.3-1,.43-2,1.76-3.8,4.41C53.91,38,54,38.93,54,39.39c.27,1.7,1.76,2.15,1.52,3.34a3,3,0,0,1-3.35,2c-2.13-.69-1.15-5.47-3.65-6.54a3.61,3.61,0,0,0-3.64.91c-2,1.9-.7,5.53-.61,5.78.88,2.45,2.52,2.76,2.43,4.41A4.39,4.39,0,0,1,44,52.62c-2,.85-3.26-.39-4.41.45s-.17,2.92-.91,5.48c-.89,3.06-3.35,3.17-7,7a17.61,17.61,0,0,0-4.87,7.6c-.17.63-1.7,6.69,2.13,11.56a13.3,13.3,0,0,0,7.45,4.56c3.55.69,4.79-.84,7.6.31,2.59,1.05,3.94,3.35,5,5.17.48.8,1.47,2.64,2.89,9.42,1.32,6.33,1,7.41,2.43,9.28a11.82,11.82,0,0,0,6.39,4,13.79,13.79,0,0,0,7.75-.15c6.17-1.93,8.88-7.63,9.28-8.52,2-4.45,0-5.67,2.28-10,1.47-2.85,2.55-2.75,6.08-7.76,1.94-2.73,4.2-5.94,3.35-7-1-1.22-5.56,1.31-5.93.61s2.41-2.71,4.41-4.11c4.48-3.12,6.42-3.22,6.84-5,.55-2.35-2.15-4.8-2.74-5.33-.92-.84-2.36-1.76-2.89-1.37s.19,1.37-.3,1.83c-.65.62-3,0-3.5-1.52A2.58,2.58,0,0,1,86,66.61c.76-.86,2.14-1.26,9.73,0,3.62.6,5.44.91,6.08,1.36,2.64,1.89,2.24,4.56,5.63,7.15.59.45,2.53,1.94,3.34,1.37s-.48-3.19-.91-8.06c-.29-3.3-.45-5.41.91-6.69a4.33,4.33,0,0,1,5.33-.3c1.3,1.16,1,3.43.91,4.41-.24,2.57,0,6.3,1.9,11.59A56.5,56.5,0,0,0,66.53,7.56ZM60,53.38C57.53,57,53.88,58.3,51.9,59c-3.54,1.26-7.88,1.56-8.21.61-.1-.28.16-.7,2.13-2.28,3.48-2.78,4.52-2.93,6.08-4.26,2.86-2.42,2-4.16,5.32-8.21a23.7,23.7,0,0,1,4.11-4C61.62,41.79,63.56,48,60,53.38ZM75.32,56c-.17.8-1.38,1.18-2,1.37-.76.24-1.28.22-3.8,0s-3-.28-3.2-.61c-.79-1.06.61-3.25.76-3.49a7.28,7.28,0,0,1,5.33-.16C73.73,53.6,75.54,54.89,75.32,56Zm9.58,3.35c-.56.17-1.4-1-2.29-2.28a21.17,21.17,0,0,1-2.28-4.26c.32,0,3.52.22,4.72,2.58C85.84,56.93,85.57,59.1,84.9,59.31Z"/><path class="cls-2" d="M46,31a1.58,1.58,0,0,0-.76,1.52,1.66,1.66,0,0,0,2,1.06,1.76,1.76,0,0,0,1.21-2.28A1.8,1.8,0,0,0,46,31Z"/><path class="cls-2" d="M61.48,23.42a1.55,1.55,0,0,0-.15,1.52,1.7,1.7,0,0,0,2,1.07,1.83,1.83,0,0,0,.16-2.74A1.52,1.52,0,0,0,61.48,23.42Z"/><path class="cls-3" d="M28.62,52.31l-15.35-7V43.19l15.35-7v2.58L16.77,44.28l11.85,5.48Z"/><path class="cls-3" d="M55.9,55.1H53.41V46.3a14,14,0,0,0-.25-3.08,3.09,3.09,0,0,0-1.1-1.65,3.49,3.49,0,0,0-2.22-.66,4.26,4.26,0,0,0-2.59.89,4.58,4.58,0,0,0-1.69,2.41,16.09,16.09,0,0,0-.47,4.52V55.1h-2.4V46.83a16.63,16.63,0,0,0-.26-3.49,3,3,0,0,0-1.11-1.75,3.32,3.32,0,0,0-2.16-.68,4.26,4.26,0,0,0-2.47.81A4.92,4.92,0,0,0,35,43.85a12,12,0,0,0-.57,4.37V55.1H32V39h2.43v2.28a6.31,6.31,0,0,1,5.19-2.69,5.48,5.48,0,0,1,3.06.9,4.93,4.93,0,0,1,2,2.56,7.14,7.14,0,0,1,2.52-2.57,6.14,6.14,0,0,1,3.2-.89,5.36,5.36,0,0,1,3.94,1.63c1.08,1.08,1.63,3.13,1.63,6.13Z"/><path class="cls-3" d="M75.83,55.1h-2.4V52.73a8,8,0,0,1-6.07,2.9,7.91,7.91,0,0,1-5.88-2.53A8.41,8.41,0,0,1,59,47.05a8.3,8.3,0,0,1,2.45-6,8.09,8.09,0,0,1,6-2.5,7.46,7.46,0,0,1,5.94,2.87V39h2.4Zm-8.29-1.75a5.74,5.74,0,0,0,4.23-1.78,6,6,0,0,0,1.78-4.43A6.09,6.09,0,0,0,71.8,42.7a5.72,5.72,0,0,0-4.28-1.79,5.64,5.64,0,0,0-4.28,1.85,6.29,6.29,0,0,0,0,8.74A5.73,5.73,0,0,0,67.54,53.35Z"/><path class="cls-3" d="M82.44,41.41a7.43,7.43,0,0,1,5.92-2.87,8.06,8.06,0,0,1,6,2.5,8.3,8.3,0,0,1,2.46,6,8.39,8.39,0,0,1-2.43,6,7.84,7.84,0,0,1-5.86,2.52,8,8,0,0,1-6.07-2.9v8.08H80V39h2.43Zm5.92,11.94a5.73,5.73,0,0,0,4.22-1.82,6.34,6.34,0,0,0,0-8.8,6,6,0,0,0-8.59,0,6.13,6.13,0,0,0-1.73,4.43,6,6,0,0,0,1.78,4.43A5.82,5.82,0,0,0,88.36,53.35Z"/><path class="cls-3" d="M114.78,45.32l-15.34,7V49.76l11.85-5.48L99.44,38.75V36.17l15.34,7Z"/><path class="cls-4" d="M58.8,99.2H78.06A1.53,1.53,0,0,0,79.57,98c.25-1.24.67-3.21,1.13-4.8.75-2.6,1-4.3,1.87-8.36,1.73-8.32,1.63-10.22,1.22-11-.25-.43-.91-3.19-3.75-3-1.07.06-2.67,1.32-3.2,1.75a6.89,6.89,0,0,0-.15-3.35c-.14-.34-1-2.82-2.72-2.92a3.69,3.69,0,0,0-3.56,2.29,5.3,5.3,0,0,0-1-2.84,3.89,3.89,0,0,0-2.83-1.82c-1.82,0-3,1.8-3.25,2.23a5.54,5.54,0,0,0-.81,3V52.1a4.28,4.28,0,0,0-1.89-3.57l-.09-.06c-.23-.15-1.33-1-3.41.11h0a3.46,3.46,0,0,0-1.81,3V76.5c-.26-1-2.38-3.26-4.76-5.27-1.23-1-2.8-2.68-4.46-2.23a3.12,3.12,0,0,0-1.83,1.62c-.84,1.81.35,4,.82,4.86,1.86,3.47,6.15,11.69,12,22.69A1.94,1.94,0,0,0,58.8,99.2Z"/><path d="M59.08,48a2.41,2.41,0,0,1,1.44.45l.09.06A4.28,4.28,0,0,1,62.5,52.1V68.92a5.5,5.5,0,0,1,.81-2.76c.27-.43,1.4-2.23,3.18-2.23h.07a3.89,3.89,0,0,1,2.83,1.82,5.3,5.3,0,0,1,1,2.84,3.71,3.71,0,0,1,3.4-2.3H74c1.7.1,2.58,2.58,2.72,2.92a6.89,6.89,0,0,1,.15,3.35c.53-.43,2.13-1.69,3.2-1.75h.22c2.66,0,3.29,2.62,3.53,3,.41.73.51,2.63-1.22,11-.84,4.06-1.12,5.76-1.87,8.36-.46,1.59-.88,3.56-1.13,4.8a1.53,1.53,0,0,1-1.51,1.23H58.8a1.94,1.94,0,0,1-1.72-1c-5.86-11-10.15-19.22-12-22.69-.47-.86-1.66-3-.82-4.86A3.12,3.12,0,0,1,46.08,69a2.24,2.24,0,0,1,.57-.08c1.45,0,2.8,1.39,3.89,2.31,2.38,2,4.5,4.29,4.76,5.27V51.61a3.46,3.46,0,0,1,1.81-3h0a4.25,4.25,0,0,1,2-.56m0-1.22a5.44,5.44,0,0,0-2.54.71,4.67,4.67,0,0,0-2.45,4.1V72.87c-1.23-1.27-2.52-2.36-2.77-2.57l-.45-.4c-1.12-1-2.52-2.2-4.22-2.2a3.35,3.35,0,0,0-.89.12,4.29,4.29,0,0,0-2.61,2.29c-1.1,2.35.31,5,.84,5.94.8,1.5,2.07,3.9,3.68,7,2.11,4,5,9.47,8.34,15.75a3.16,3.16,0,0,0,2.79,1.67H78.06a2.75,2.75,0,0,0,2.7-2.21c.26-1.31.67-3.19,1.1-4.7.6-2.05.9-3.54,1.4-6,.15-.72.31-1.53.5-2.45,1.92-9.22,1.64-10.81,1.1-11.78a1,1,0,0,1-.07-.17,4.87,4.87,0,0,0-4.53-3.51H80a4.31,4.31,0,0,0-1.82.59,5.32,5.32,0,0,0-.33-1.43l0,0c-1.12-2.88-2.66-3.57-3.75-3.64h-.24A5.21,5.21,0,0,0,71,66a5.78,5.78,0,0,0-.59-1,5.09,5.09,0,0,0-3.79-2.32h-.09a4.23,4.23,0,0,0-2.77,1.09V52.1a5.47,5.47,0,0,0-2.43-4.58l-.1-.07a3.61,3.61,0,0,0-2.11-.65Z"/></svg>