<svg id="图层_1" data-name="图层 1" xmlns="http://www.w3.org/2000/svg" viewBox="0 0 128 128"><defs><style>.cls-1{fill:#ccb392;}.cls-2{fill:#fff;}.cls-3{fill:#bbb;}.cls-4{fill:#128320;}</style></defs><title>klavaro128</title><rect class="cls-1" x="8" y="8" width="112" height="112" rx="12"/><rect class="cls-2" x="20.5" y="19.5" width="37" height="37" rx="4.5"/><path class="cls-3" d="M53,21a3,3,0,0,1,3,3V52a3,3,0,0,1-3,3H25a3,3,0,0,1-3-3V24a3,3,0,0,1,3-3H53m0-3H25a6,6,0,0,0-6,6V52a6,6,0,0,0,6,6H53a6,6,0,0,0,6-6V24a6,6,0,0,0-6-6Z"/><path d="M35.49,36.84h.44A3.12,3.12,0,0,0,37,36.66,4.27,4.27,0,0,0,38.17,36a24.52,24.52,0,0,0,2.1-1.83c1.14-1.06,1.93-1.84,2.36-2.31a7.71,7.71,0,0,0,1.13-1.43,2.61,2.61,0,0,0,.33-.84.9.9,0,0,0-.19-.87,1.45,1.45,0,0,0-.88-.34l.13-.73h6.5l-.13.73a3.82,3.82,0,0,0-1,.37,6,6,0,0,0-1.07.71c-.38.31-.94.81-1.69,1.5l-6,5.64,4,7.89a10.71,10.71,0,0,0,1.05,1.75,2.81,2.81,0,0,0,.81.73,2.47,2.47,0,0,0,.9.31l-.13.73H39.84l.13-.73a2,2,0,0,0,.84-.21.65.65,0,0,0,.34-.49,1.37,1.37,0,0,0,0-.65,4.88,4.88,0,0,0-.39-.92l-2.56-5.17a7.74,7.74,0,0,0-.68-1.23,1.47,1.47,0,0,0-.53-.44,2.16,2.16,0,0,0-.86-.14h-.79l-1.1,6.25A11.14,11.14,0,0,0,34,45.73a1.69,1.69,0,0,0,.1.73,1,1,0,0,0,.38.45,3.43,3.43,0,0,0,.93.36l-.13.73H29l.13-.73a3.78,3.78,0,0,0,1.33-.53,1.82,1.82,0,0,0,.56-.83,12.1,12.1,0,0,0,.38-1.64l2.28-12.9a12,12,0,0,0,.19-1.5,1.79,1.79,0,0,0-.12-.73,1,1,0,0,0-.38-.42,4.42,4.42,0,0,0-.91-.35l.13-.73h6.28l-.13.73a4.6,4.6,0,0,0-1,.33,1.75,1.75,0,0,0-.54.41,2.2,2.2,0,0,0-.38.74,9.77,9.77,0,0,0-.35,1.52Z"/><rect class="cls-2" x="68.5" y="19.5" width="37" height="37" rx="4.5"/><path class="cls-3" d="M101,21a3,3,0,0,1,3,3V52a3,3,0,0,1-3,3H73a3,3,0,0,1-3-3V24a3,3,0,0,1,3-3h28m0-3H73a6,6,0,0,0-6,6V52a6,6,0,0,0,6,6h28a6,6,0,0,0,6-6V24a6,6,0,0,0-6-6Z"/><path d="M84.78,46.63h3.9a6.67,6.67,0,0,0,1.09-.08,2.76,2.76,0,0,0,.78-.23,2.52,2.52,0,0,0,.63-.43,5.3,5.3,0,0,0,.6-.72A10.08,10.08,0,0,0,92.4,44c.21-.45.5-1.13.86-2h1.5l-1.35,6H80l.13-.73a3.78,3.78,0,0,0,1.33-.53,1.82,1.82,0,0,0,.56-.83,12.1,12.1,0,0,0,.38-1.64l2.28-12.9a12,12,0,0,0,.19-1.5,1.79,1.79,0,0,0-.12-.73,1,1,0,0,0-.38-.42,4.42,4.42,0,0,0-.91-.35l.13-.73h6.28l-.13.73a6.79,6.79,0,0,0-1,.32,1.79,1.79,0,0,0-.52.38,2.23,2.23,0,0,0-.4.73,9.63,9.63,0,0,0-.36,1.57Z"/><rect class="cls-2" x="23.5" y="69.5" width="37" height="37" rx="4.5"/><path class="cls-3" d="M56,71a3,3,0,0,1,3,3v28a3,3,0,0,1-3,3H28a3,3,0,0,1-3-3V74a3,3,0,0,1,3-3H56m0-3H28a6,6,0,0,0-6,6v28a6,6,0,0,0,6,6H56a6,6,0,0,0,6-6V74a6,6,0,0,0-6-6Z"/><path class="cls-4" d="M48.46,91.75a4.83,4.83,0,0,1-.73.13h-.16a6,6,0,0,1,.12-1.32l1.2-6.79c.41-2.33.16-4-.77-5.06s-2.52-1.58-4.91-1.58a20.22,20.22,0,0,0-6.39,1.18l-.57.19-.89,5.07,1.78-.86a12,12,0,0,1,5.1-1.33c1.2,0,1.54.29,1.62.38s.3.45.09,1.6l-.09.55h-1a12.68,12.68,0,0,0-6.71,1.68,6.9,6.9,0,0,0-3.42,4.75,4.54,4.54,0,0,0,1.14,4.09A5.53,5.53,0,0,0,38.07,96a10,10,0,0,0,5.19-1.67A3.25,3.25,0,0,0,46.33,96a9.63,9.63,0,0,0,2.61-.52l.7-.22.09-3.79ZM37.89,90.19c.28-1.55,2.06-2.37,5.28-2.42l-.43,2.47a6.52,6.52,0,0,1-3.47,1.37c-.84,0-1.1-.29-1.18-.38A1.12,1.12,0,0,1,37.89,90.19Z"/><rect class="cls-2" x="71.5" y="69.5" width="37" height="37" rx="4.5"/><path class="cls-3" d="M104,71a3,3,0,0,1,3,3v28a3,3,0,0,1-3,3H76a3,3,0,0,1-3-3V74a3,3,0,0,1,3-3h28m0-3H76a6,6,0,0,0-6,6v28a6,6,0,0,0,6,6h28a6,6,0,0,0,6-6V74a6,6,0,0,0-6-6Z"/><path d="M85.84,80l-.13.73a4.56,4.56,0,0,0-1.1.3,1.58,1.58,0,0,0-.63.51,2.16,2.16,0,0,0-.33.88,5.5,5.5,0,0,0-.07,1.1,11.33,11.33,0,0,0,.11,1.32L85,97l6.44-12.26c.1-.19.19-.39.29-.6s.18-.41.26-.61A4.68,4.68,0,0,0,92.2,83a4.19,4.19,0,0,0,.1-.42,1.65,1.65,0,0,0-.18-1.31,2.1,2.1,0,0,0-1.3-.56L91,80h6.27l-.13.73a3.13,3.13,0,0,0-1.06.44,3.69,3.69,0,0,0-.9.91,16.73,16.73,0,0,0-1.24,2l-9.11,16.52h-2L80.74,84a10.77,10.77,0,0,0-.36-1.93,2.25,2.25,0,0,0-.51-.87,2,2,0,0,0-.9-.44l.12-.73Z"/></svg>