<?xml version="1.0" encoding="utf-8"?>
<!-- Generator: Adobe Illustrator 24.0.0, SVG Export Plug-In . SVG Version: 6.00 Build 0)  -->
<svg version="1.1" id="图层_1" xmlns="http://www.w3.org/2000/svg" xmlns:xlink="http://www.w3.org/1999/xlink" x="0px" y="0px"
	 viewBox="0 0 128 128" enable-background="new 0 0 128 128" xml:space="preserve">
<title>klavaro128</title>
<path fill="#CCB392" d="M20,8h88c6.6,0,12,5.4,12,12v88c0,6.6-5.4,12-12,12H20c-6.6,0-12-5.4-12-12V20C8,13.4,13.4,8,20,8z"/>
<path fill="#FFFFFF" d="M25,19.5h28c2.5,0,4.5,2,4.5,4.5v28c0,2.5-2,4.5-4.5,4.5H25c-2.5,0-4.5-2-4.5-4.5V24
	C20.5,21.5,22.5,19.5,25,19.5z"/>
<path fill="#BBBBBB" d="M53,21c1.7,0,3,1.3,3,3v28c0,1.7-1.3,3-3,3H25c-1.7,0-3-1.3-3-3V24c0-1.7,1.3-3,3-3H53 M53,18H25
	c-3.3,0-6,2.7-6,6v28c0,3.3,2.7,6,6,6h28c3.3,0,6-2.7,6-6V24C59,20.7,56.3,18,53,18z"/>
<path d="M35.5,36.8h0.4c0.4,0,0.7-0.1,1.1-0.2c0.4-0.2,0.8-0.4,1.2-0.7c0.7-0.6,1.4-1.2,2.1-1.8c1.1-1.1,1.9-1.8,2.4-2.3
	c0.4-0.4,0.8-0.9,1.1-1.4c0.2-0.3,0.3-0.5,0.3-0.8c0.1-0.3,0-0.6-0.2-0.9c-0.2-0.2-0.6-0.3-0.9-0.3l0.1-0.7h6.5l-0.1,0.7
	c-0.3,0.1-0.7,0.2-1,0.4c-0.4,0.2-0.7,0.4-1.1,0.7c-0.4,0.3-0.9,0.8-1.7,1.5l-6,5.6l4,7.9c0.3,0.6,0.6,1.2,1,1.8
	c0.2,0.3,0.5,0.5,0.8,0.7c0.3,0.2,0.6,0.3,0.9,0.3L46.4,48h-6.6l0.1-0.7c0.3,0,0.6-0.1,0.8-0.2c0.2-0.1,0.3-0.3,0.3-0.5
	c0.1-0.2,0.1-0.4,0-0.7c-0.1-0.3-0.2-0.6-0.4-0.9l-2.6-5.2c-0.2-0.4-0.4-0.8-0.7-1.2c-0.1-0.2-0.3-0.3-0.5-0.4
	c-0.3-0.1-0.6-0.2-0.9-0.1h-0.8l-1.1,6.3c-0.1,0.5-0.2,1-0.2,1.5c0,0.2,0,0.5,0.1,0.7c0.1,0.2,0.2,0.3,0.4,0.5
	c0.3,0.2,0.6,0.3,0.9,0.4L35.3,48H29l0.1-0.7c0.5-0.1,0.9-0.3,1.3-0.5c0.3-0.2,0.5-0.5,0.6-0.8c0.2-0.5,0.3-1.1,0.4-1.6l2.3-12.9
	c0.1-0.5,0.2-1,0.2-1.5c0-0.2,0-0.5-0.1-0.7c-0.1-0.2-0.2-0.3-0.4-0.4c-0.3-0.1-0.6-0.3-0.9-0.4l0.1-0.7h6.3l-0.1,0.7
	c-0.3,0.1-0.7,0.2-1,0.3c-0.2,0.1-0.4,0.2-0.5,0.4c-0.2,0.2-0.3,0.5-0.4,0.7c-0.2,0.5-0.3,1-0.3,1.5L35.5,36.8z"/>
<path fill="#FFFFFF" d="M73,19.5h28c2.5,0,4.5,2,4.5,4.5v28c0,2.5-2,4.5-4.5,4.5H73c-2.5,0-4.5-2-4.5-4.5V24
	C68.5,21.5,70.5,19.5,73,19.5z"/>
<path fill="#BBBBBB" d="M101,21c1.7,0,3,1.3,3,3v28c0,1.7-1.3,3-3,3H73c-1.7,0-3-1.3-3-3V24c0-1.7,1.3-3,3-3H101 M101,18H73
	c-3.3,0-6,2.7-6,6v28c0,3.3,2.7,6,6,6h28c3.3,0,6-2.7,6-6V24C107,20.7,104.3,18,101,18z"/>
<path d="M84.8,46.6h3.9c0.4,0,0.7,0,1.1-0.1c0.3,0,0.5-0.1,0.8-0.2c0.2-0.1,0.4-0.3,0.6-0.4c0.2-0.2,0.4-0.5,0.6-0.7
	c0.2-0.4,0.4-0.8,0.6-1.2c0.2-0.5,0.5-1.1,0.9-2h1.5l-1.3,6H80l0.1-0.7c0.5-0.1,0.9-0.3,1.3-0.5c0.3-0.2,0.5-0.5,0.6-0.8
	c0.2-0.5,0.3-1.1,0.4-1.6l2.3-12.9c0.1-0.5,0.2-1,0.2-1.5c0-0.2,0-0.5-0.1-0.7c-0.1-0.2-0.2-0.3-0.4-0.4c-0.3-0.1-0.6-0.3-0.9-0.4
	l0.1-0.7h6.3l-0.1,0.7c-0.3,0.1-0.7,0.2-1,0.3c-0.2,0.1-0.4,0.2-0.5,0.4c-0.2,0.2-0.3,0.5-0.4,0.7c-0.2,0.5-0.3,1-0.4,1.6L84.8,46.6
	z"/>
<path fill="#FFFFFF" d="M28,69.5h28c2.5,0,4.5,2,4.5,4.5v28c0,2.5-2,4.5-4.5,4.5H28c-2.5,0-4.5-2-4.5-4.5V74
	C23.5,71.5,25.5,69.5,28,69.5z"/>
<path fill="#BBBBBB" d="M56,71c1.7,0,3,1.3,3,3v28c0,1.7-1.3,3-3,3H28c-1.7,0-3-1.3-3-3V74c0-1.7,1.3-3,3-3H56 M56,68H28
	c-3.3,0-6,2.7-6,6v28c0,3.3,2.7,6,6,6h28c3.3,0,6-2.7,6-6V74C62,70.7,59.3,68,56,68z"/>
<path fill="#128320" d="M48.5,91.8c-0.2,0.1-0.5,0.1-0.7,0.1h-0.2c0-0.4,0-0.9,0.1-1.3l1.2-6.8c0.4-2.3,0.2-4-0.8-5.1
	s-2.5-1.6-4.9-1.6c-2.2,0-4.3,0.4-6.4,1.2l-0.6,0.2l-0.9,5.1l1.8-0.9c1.6-0.8,3.3-1.3,5.1-1.3c1.2,0,1.5,0.3,1.6,0.4
	s0.3,0.4,0.1,1.6l-0.1,0.6h-1c-2.3-0.1-4.7,0.5-6.7,1.7c-1.8,1-3,2.7-3.4,4.8c-0.3,1.5,0.1,3,1.1,4.1c1.1,1.1,2.6,1.7,4.2,1.6
	c1.9-0.1,3.6-0.6,5.2-1.7c0.6,1.1,1.8,1.8,3.1,1.7c0.9-0.1,1.8-0.2,2.6-0.5l0.7-0.2l0.1-3.8L48.5,91.8z M37.9,90.2
	c0.3-1.6,2.1-2.4,5.3-2.4l-0.4,2.5c-1,0.8-2.2,1.3-3.5,1.4c-0.8,0-1.1-0.3-1.2-0.4C37.9,90.9,37.8,90.5,37.9,90.2z"/>
<path fill="#FFFFFF" d="M76,69.5h28c2.5,0,4.5,2,4.5,4.5v28c0,2.5-2,4.5-4.5,4.5H76c-2.5,0-4.5-2-4.5-4.5V74
	C71.5,71.5,73.5,69.5,76,69.5z"/>
<path fill="#BBBBBB" d="M104,71c1.7,0,3,1.3,3,3v28c0,1.7-1.3,3-3,3H76c-1.7,0-3-1.3-3-3V74c0-1.7,1.3-3,3-3H104 M104,68H76
	c-3.3,0-6,2.7-6,6v28c0,3.3,2.7,6,6,6h28c3.3,0,6-2.7,6-6V74C110,70.7,107.3,68,104,68z"/>
<path d="M85.8,80l-0.1,0.7c-0.4,0.1-0.7,0.2-1.1,0.3c-0.3,0.1-0.5,0.3-0.6,0.5c-0.2,0.3-0.3,0.6-0.3,0.9c-0.1,0.4-0.1,0.7-0.1,1.1
	c0,0.4,0,0.9,0.1,1.3L85,97l6.4-12.3c0.1-0.2,0.2-0.4,0.3-0.6s0.2-0.4,0.3-0.6c0.1-0.2,0.2-0.3,0.2-0.5c0-0.1,0.1-0.3,0.1-0.4
	c0.1-0.4,0.1-0.9-0.2-1.3c-0.4-0.3-0.8-0.5-1.3-0.6L91,80h6.3l-0.1,0.7c-0.4,0.1-0.7,0.2-1.1,0.4c-0.4,0.2-0.7,0.6-0.9,0.9
	c-0.5,0.6-0.9,1.3-1.2,2l-9.1,16.5h-2L80.7,84c-0.1-0.7-0.2-1.3-0.4-1.9c-0.1-0.3-0.3-0.6-0.5-0.9c-0.3-0.2-0.6-0.4-0.9-0.4l0.1-0.7
	L85.8,80z"/>
</svg>
