<svg id="图层_1" data-name="图层 1" xmlns="http://www.w3.org/2000/svg" viewBox="0 0 128 128"><defs><style>.cls-1{fill:#90a4ae;}.cls-2{fill:#455a64;}.cls-3{fill:#4caf50;}.cls-4{fill:#fff;}.cls-5{fill:#263238;}</style></defs><title>klavaro-112</title><rect class="cls-1" x="8" y="8" width="112" height="112" rx="12" ry="12"/><rect class="cls-2" x="23.27" y="48.22" width="81.45" height="50.91" rx="9" ry="9"/><path class="cls-3" d="M75.85,61.81,66,67.4a4.06,4.06,0,0,1-4,0l-9.84-5.59a3.63,3.63,0,0,1-1.9-3.16V32.56a3.81,3.81,0,0,1,3.91-3.69H73.84a3.81,3.81,0,0,1,3.91,3.69V58.65A3.63,3.63,0,0,1,75.85,61.81Z"/><circle class="cls-4" cx="35.49" cy="76.6" r="3.95"/><circle class="cls-4" cx="49.75" cy="76.6" r="3.95"/><circle class="cls-4" cx="64" cy="76.6" r="3.95"/><circle class="cls-4" cx="78.25" cy="76.6" r="3.95"/><circle class="cls-4" cx="92.51" cy="76.6" r="3.95"/><rect class="cls-5" x="31.42" y="84.62" width="64.91" height="6.11" rx="1.92" ry="1.92"/><circle class="cls-4" cx="46.05" cy="65.15" r="3.95"/><circle class="cls-4" cx="81.95" cy="65.15" r="3.95"/><path class="cls-4" d="M68.69,55.94l-6-8.29L59.9,50.44v5.5h-3V38.44h3v8.28l8.28-8.28h4.06l-7.61,7.35,8,10.15Z"/></svg>