<svg id="图层_1" data-name="图层 1" xmlns="http://www.w3.org/2000/svg" xmlns:xlink="http://www.w3.org/1999/xlink" viewBox="0 0 128 128"><defs><style>.cls-1{fill:#c1bfa8;}.cls-2{fill:#999;}.cls-3{fill:#e6e6e6;}.cls-4{fill:#666;}.cls-5{fill:#f44336;}.cls-6{fill:#4caf50;}.cls-7{opacity:0.6;fill:url(#未命名的渐变_17);}</style><linearGradient id="未命名的渐变_17" x1="65.6" y1="38.78" x2="65.6" y2="19.41" gradientUnits="userSpaceOnUse"><stop offset="0" stop-color="#4caf50"/><stop offset="1" stop-color="#f2f2f2"/></linearGradient></defs><title>ktouch128</title><rect class="cls-1" x="8" y="8" width="112" height="112" rx="12"/><rect class="cls-2" x="28" y="87" width="30" height="26" rx="5"/><rect class="cls-3" x="28" y="83" width="30" height="26" rx="5"/><path class="cls-4" d="M39.65,93.93H38.17l-.62-1.84h-3L34,93.93H32.8l2.56-7.71h1.71Zm-2.47-3-1.12-3.43L34.93,91Z"/><rect class="cls-2" x="65" y="87" width="30" height="26" rx="5"/><rect class="cls-3" x="65" y="83" width="30" height="26" rx="5"/><path class="cls-4" d="M69.11,92.07l1.35-.29c.16.77.78,1.15,1.86,1.15a2,2,0,0,0,1.14-.29.89.89,0,0,0,.39-.73,1,1,0,0,0-.18-.59,1.36,1.36,0,0,0-.77-.42l-1.47-.38a3.48,3.48,0,0,1-1.12-.45,1.8,1.8,0,0,1-.58-.71,2.3,2.3,0,0,1-.22-1,2,2,0,0,1,.77-1.66,3,3,0,0,1,2-.62,3.57,3.57,0,0,1,1.77.43,2,2,0,0,1,1,1.23l-1.32.33a1.35,1.35,0,0,0-1.43-.88,1.58,1.58,0,0,0-1,.27.88.88,0,0,0-.34.69c0,.44.36.75,1.07.93l1.31.33a2.66,2.66,0,0,1,1.6.88,2.22,2.22,0,0,1,.41,1.29,2.14,2.14,0,0,1-.86,1.79,3.58,3.58,0,0,1-2.21.65,4,4,0,0,1-2-.48A2.37,2.37,0,0,1,69.11,92.07Z"/><rect class="cls-2" x="15" y="53" width="30" height="26" rx="5"/><rect class="cls-3" x="15" y="49" width="30" height="26" rx="5"/><path class="cls-4" d="M26.66,61.91v1.17l-.79.05q-1.71,0-1.71-1.5l-.52,0a2.79,2.79,0,0,1-2.38-1.13,4.71,4.71,0,0,1-.83-2.87,4.53,4.53,0,0,1,.86-2.84,2.87,2.87,0,0,1,2.42-1.13,2.8,2.8,0,0,1,1.8.53,3.65,3.65,0,0,1,1.07,1.39,4.75,4.75,0,0,1,.4,2,3.91,3.91,0,0,1-1.64,3.54c-.18.12-.26.21-.26.3a.42.42,0,0,0,.17.34.73.73,0,0,0,.47.14l.6,0Zm-3-1.42c1.2,0,1.8-1,1.8-2.84A3.86,3.86,0,0,0,25,55.46a1.51,1.51,0,0,0-1.27-.66c-1.2,0-1.79,1-1.79,2.92S22.51,60.49,23.67,60.49Z"/><rect class="cls-2" x="48.5" y="47.5" width="33" height="33" rx="6.5"/><path class="cls-5" d="M75,49a5,5,0,0,1,5,5V74a5,5,0,0,1-5,5H55a5,5,0,0,1-5-5V54a5,5,0,0,1,5-5H75m0-3H55a8,8,0,0,0-8,8V74a8,8,0,0,0,8,8H75a8,8,0,0,0,8-8V54a8,8,0,0,0-8-8Z"/><rect class="cls-3" x="50" y="49" width="30" height="26" rx="5"/><path class="cls-4" d="M63.39,53.8l-2.06,7.7H59.87l-1.53-5.67L57,61.5H55.52l-2.11-7.7h1.48l1.49,5.61,1.38-5.61h1.41l1.53,5.61,1.47-5.61Z"/><rect class="cls-2" x="85" y="53" width="30" height="26" rx="5"/><rect class="cls-3" x="85" y="49" width="30" height="26" rx="5"/><path class="cls-4" d="M95,61.5H90V53.8h5v1.14H91.39V57h2.87v1.12H91.39V60.3H95Z"/><polygon class="cls-6" points="83 38 83 18 48 18 48 38 43 38 65.63 56.24 88 38 83 38"/><polygon class="cls-7" points="49.47 19.41 49.47 38.78 81.73 19.41 49.47 19.41"/></svg>