<svg id="图层_1" data-name="图层 1" xmlns="http://www.w3.org/2000/svg" viewBox="0 0 128 128"><defs><style>.cls-1{fill:#9e9e9e;}.cls-2{fill:#d32f2f;}.cls-3{fill:#e57373;}.cls-4{fill:#d85a1b;}.cls-5{fill:#ffb74d;}</style></defs><title>kvpnc-112</title><path class="cls-1" d="M107.29,54.1l8.63-8.8-.21-10.7-2.23-.78-12.32,12.4a95.46,95.46,0,0,0-8.8-8.87,98.25,98.25,0,0,0-11-8.48L90.11,20l-.22-10.7L87.67,8.5,72.55,23.72c-16.13-8.14-31.48-9-38.88-.78l-7.41,8.21A52.92,52.92,0,0,0,30.41,106h0a53.82,53.82,0,0,0,75.4-4.11l7.41-8.22C120.84,85.26,117.94,69.56,107.29,54.1Z"/><path class="cls-2" d="M31,22.71l-7.22,8a51.61,51.61,0,0,0,4,73h0a52.49,52.49,0,0,0,73.54-4l7.22-8Z"/><ellipse class="cls-3" cx="69.74" cy="57.22" rx="27.55" ry="51.92" transform="translate(-19.33 71.54) rotate(-48.5)"/><polygon class="cls-4" points="56.26 50.12 57.28 38.1 85.78 9.4 85.99 19.83 56.26 50.12"/><polygon class="cls-4" points="81.44 74.81 82.46 62.79 110.96 34.09 111.17 44.53 81.44 74.81"/><polygon class="cls-5" points="54.09 49.35 55.11 37.34 83.61 8.63 83.82 19.07 54.09 49.35"/><polygon class="cls-4" points="83.61 8.63 85.78 9.4 85.99 19.83 83.82 19.07 83.61 8.63"/><polygon class="cls-4" points="54.09 49.35 56.26 50.12 85.99 19.83 83.82 19.07 54.09 49.35"/><polygon class="cls-5" points="79.27 74.05 80.29 62.03 108.79 33.33 109 43.77 79.27 74.05"/><polygon class="cls-4" points="108.79 33.33 110.96 34.09 111.17 44.53 109 43.77 108.79 33.33"/><polygon class="cls-4" points="79.27 74.05 81.44 74.81 111.17 44.53 109 43.77 79.27 74.05"/></svg>