<svg id="麒麟APP" xmlns="http://www.w3.org/2000/svg" xmlns:xlink="http://www.w3.org/1999/xlink" viewBox="0 0 128 128"><defs><style>.cls-1,.cls-17{fill:none;}.cls-2{fill:#c7c7c7;}.cls-3{fill:#62aee0;}.cls-4{fill:#9fd6fa;}.cls-5{fill:url(#未命名的渐变_41);}.cls-6{fill:#c4e0f2;}.cls-7{fill:#278ddc;}.cls-8{fill:#2a95de;}.cls-9{fill:#eaf5ff;}.cls-10{fill:#1c82c6;}.cls-11{fill:#fff;}.cls-12{fill:#9ece42;}.cls-13{clip-path:url(#clip-path);}.cls-14{fill:#71a724;}.cls-15{fill:#fde6a0;}.cls-16{clip-path:url(#clip-path-2);}.cls-17{stroke:#eaae36;stroke-miterlimit:10;stroke-width:2.5px;}.cls-18{fill:#90b6de;}.cls-19{fill:url(#未命名的渐变_6);}.cls-20{fill:url(#未命名的渐变_6-2);}</style><radialGradient id="未命名的渐变_41" cx="62.14" cy="764.43" r="40.13" gradientTransform="translate(4.84 -737.15) scale(0.98 0.98)" gradientUnits="userSpaceOnUse"><stop offset="0" stop-color="#fff"/><stop offset="1" stop-color="#d9e9f9"/></radialGradient><clipPath id="clip-path"><path class="cls-1" d="M63.87,112c-16.76,0-31.93-4.28-38.31-11-14.37-14.44-14.37-62.56,0-77,6.38-6.69,21.55-11,38.31-11s31.92,4.27,38.31,11c14.36,14.43,14.36,62.82,0,77.26C95.79,107.72,80.63,112,63.87,112Z"/></clipPath><clipPath id="clip-path-2"><path class="cls-1" d="M45.32,97.31c.81,0,1.08.26,1.08,1.07s-.81,1.33-1.35,2.4-.54,3.48,1.35,3.48H80.24c2.17,0,2.71-.8,2.71-1.61a3,3,0,0,0-1.08-3.2c-1.36-1.34,0-2.68,1.62-2.41a3.47,3.47,0,0,1,2.71,2.67,16,16,0,0,1,0,5.08,4.11,4.11,0,0,1-3.52,2.68L46.13,108a4.84,4.84,0,0,1-4.33-2.67,7.49,7.49,0,0,1,1.63-6.69C44.24,97.31,44.78,97,45.32,97.31Z"/></clipPath><radialGradient id="未命名的渐变_6" cx="31.88" cy="820.14" r="11.52" gradientTransform="translate(-0.15 -746.24)" gradientUnits="userSpaceOnUse"><stop offset="0" stop-color="#deebf5"/><stop offset="1" stop-color="#cbdff4"/></radialGradient><radialGradient id="未命名的渐变_6-2" cx="93.61" cy="819.36" r="13.43" gradientTransform="translate(0 -746.28)" xlink:href="#未命名的渐变_6"/></defs><title>128</title><g id="麒麟助手"><g id="_128" data-name="128"><path class="cls-2" d="M108,120H20A12,12,0,0,1,8,108V20A12,12,0,0,1,20,8h88a12,12,0,0,1,12,12v88A12,12,0,0,1,108,120Z"/><g id="组_1_副本" data-name="组 1 副本"><path class="cls-3" d="M37.63,62.49A12,12,0,0,1,26.29,73.83C19.16,73.83,16,68.56,16,62.49s2.9-10.82,9-10.82S37.63,56.42,37.63,62.49Z"/><path class="cls-4" d="M37.63,60.9A11.61,11.61,0,0,1,26.29,72.25C19.16,72.25,16,67,16,60.9s2.9-10.82,9-10.82S37.63,54.83,37.63,60.9Z"/><path class="cls-3" d="M90.37,62.49a12,12,0,0,0,11.34,11.34c7.13,0,10.29-5.27,10.29-11.34s-2.9-10.82-9-10.82S90.37,56.42,90.37,62.49Z"/><path class="cls-4" d="M90.37,60.9a11.61,11.61,0,0,0,11.34,11.35C108.84,72.25,112,67,112,60.9s-2.9-10.82-9-10.82S90.37,54.83,90.37,60.9Z"/><path class="cls-5" d="M104.88,64.33C104.88,84.65,86.68,96,64,96S23.38,84.65,23.38,64.33,41.58,22.64,64,22.64,104.88,44,104.88,64.33Z"/><path class="cls-6" d="M101.45,47.18a5.1,5.1,0,0,0-6.86-1.85A4.71,4.71,0,0,0,92,49.56v.79c0,.52.26.79.26,1A23.86,23.86,0,0,1,93,57.47C93,72,79.82,80.17,63.74,80.17s-29-8.18-29-22.7c0-2.11,1.05-7.39,1.05-7.91A5.4,5.4,0,0,0,31,44.28a5.51,5.51,0,0,0-4.22,2.11,8.2,8.2,0,0,0-1.32,3.17,52.19,52.19,0,0,0-.79,9c0,19.53,17.67,30.61,39.56,30.61s39.56-11.08,39.56-30.61A43.29,43.29,0,0,0,101.45,47.18Z"/><path class="cls-7" d="M32.88,54.83c0,.79-.26,1.85-.26,2.64,0,17.42,14,27.45,31.12,27.45s31.38-10,31.38-27.45a11,11,0,0,0-.26-2.9,80.8,80.8,0,0,0-30.6-5A85.27,85.27,0,0,0,32.88,54.83Z"/><path class="cls-8" d="M64,81.49a30.4,30.4,0,0,1-19.52-6.34,21.39,21.39,0,0,1-7.91-17.41V56.15a83,83,0,0,1,27.69-4,85.66,85.66,0,0,1,27.17,3.7v1.85a21,21,0,0,1-7.91,17.41A29,29,0,0,1,64,81.49Z"/><path class="cls-6" d="M64,24.75c22.15,0,40.09,17.94,40.88,38V61.69C104.88,41.37,86.68,20,64,20S23.38,41.37,23.38,61.69v1.06C23.91,42.69,41.85,24.75,64,24.75Z"/><path class="cls-9" d="M102.77,49.82a5.18,5.18,0,0,0-6.86-2.11,5.11,5.11,0,0,0-2.64,4.48V53c0,.52.27.79.27,1.32a25.89,25.89,0,0,1,.79,6.33c0,15-13.71,23.49-30.33,23.49S33.67,75.68,33.67,60.64c0-2.38,1.06-7.39,1.06-8.18a5.08,5.08,0,0,0-5.28-5,5.66,5.66,0,0,0-4,1.85,8.88,8.88,0,0,0-1.31,3.17,56.75,56.75,0,0,0-.8,9.23c0,20.32,18.2,31.67,40.88,31.67S105.14,82,105.14,61.69A45,45,0,0,0,102.77,49.82Z"/><path id="形状_1_副本_拷贝_2" data-name="形状 1 副本 拷贝 2" class="cls-10" d="M51.08,66.44h25S77.45,81,63.47,81,51.08,66.44,51.08,66.44Z"/><path id="形状_1_副本_拷贝_2-2" data-name="形状 1 副本 拷贝 2-2" class="cls-11" d="M51.08,65.39h25S77.45,79.9,63.47,79.9,51.08,65.39,51.08,65.39Z"/></g><path id="矩形_3" data-name="矩形 3" class="cls-12" d="M8,89H120v19a12,12,0,0,1-12,12H20A12,12,0,0,1,8,108Z"/><g class="cls-13"><rect id="矩形_3-2" data-name="矩形 3-2" class="cls-14" x="8" y="89" width="112" height="31"/><circle id="形状_3_副本_拷贝" data-name="形状 3 副本 拷贝" cx="46" cy="99" r="4"/><circle id="形状_3_副本_拷贝_2" data-name="形状 3 副本 拷贝 2" cx="84" cy="99" r="4"/><path class="cls-15" d="M45.32,97.31c.81,0,1.08.26,1.08,1.07s-.81,1.33-1.35,2.4-.54,3.48,1.35,3.48H80.24c2.17,0,2.71-.8,2.71-1.61a3,3,0,0,0-1.08-3.2c-1.36-1.34,0-2.68,1.62-2.41a3.47,3.47,0,0,1,2.71,2.67,16,16,0,0,1,0,5.08,4.11,4.11,0,0,1-3.52,2.68L46.13,108a4.84,4.84,0,0,1-4.33-2.67,7.49,7.49,0,0,1,1.63-6.69C44.24,97.31,44.78,97,45.32,97.31Z"/><g class="cls-16"><g id="组_11_拷贝_2" data-name="组 11 拷贝 2"><path id="形状_5" data-name="形状 5" class="cls-17" d="M62.38,101.58s0-1.07,2.16,1.88,3.79,6.14,4.33,5.88"/><path id="形状_5_拷贝_14" data-name="形状 5 拷贝 14" class="cls-17" d="M68.6,101.58s0-1.07,2.17,1.88,3.79,6.14,4.33,5.88"/><path id="形状_5_拷贝_15" data-name="形状 5 拷贝 15" class="cls-17" d="M74.56,101.58s0-1.07,2.16,1.88,3.79,6.14,4.33,5.88"/><path id="形状_5_拷贝_19" data-name="形状 5 拷贝 19" class="cls-17" d="M81.05,101.85a14.56,14.56,0,0,1,2.17,1.61c.54,1.06,3.52,4,4.33,3.74"/><path id="形状_5_拷贝_23" data-name="形状 5 拷贝 23" class="cls-17" d="M80,100h3.79A8.79,8.79,0,0,0,87.82,97"/><path id="形状_5_拷贝_6" data-name="形状 5 拷贝 6" class="cls-17" d="M56.42,101.58s0-1.07,2.17,1.88,3.79,6.14,4.33,5.88"/><path id="形状_5_拷贝_10" data-name="形状 5 拷贝 10" class="cls-17" d="M50.19,101.58s0-1.07,2.17,1.88,3.79,6.14,4.33,5.88"/><path id="形状_6" data-name="形状 6" class="cls-17" d="M42.62,98.91c1.89,2.14,6.76,11.5,8.12,12.3"/><path id="形状_6_拷贝_4" data-name="形状 6 拷贝 4" class="cls-17" d="M47,100.78c-3.79-1.87-6-1.6-7.85-.27"/></g></g><path class="cls-18" d="M42.32,91.13c0,3.74-3.73,4.81-8.51,4.81S25,95.14,25,91.13a9.65,9.65,0,0,1,8.51-8.82A9.68,9.68,0,0,1,42.32,91.13Z"/><path class="cls-19" d="M39.66,90.06c0,3.74-3.73,5.08-8.52,5.08s-8.51-1.34-8.51-5.08a8.93,8.93,0,0,1,8.51-8.29C35.67,81.77,39.13,85.51,39.66,90.06Z"/><path class="cls-18" d="M103,91.13c0,3.74-3.72,4.81-8.51,4.81S86,95.14,86,91.13a9.65,9.65,0,0,1,8.51-8.82A9.9,9.9,0,0,1,103,91.13Z"/><path class="cls-20" d="M105.63,90.06c0,3.74-3.72,5.08-8.51,5.08s-8.51-1.34-8.51-5.08a8.43,8.43,0,0,1,8.51-8.56C101.64,81.24,105.63,85.25,105.63,90.06Z"/></g></g></g></svg>