<?xml version="1.0" encoding="utf-8"?>
<!-- Generator: Adobe Illustrator 24.1.2, SVG Export Plug-In . SVG Version: 6.00 Build 0)  -->
<svg version="1.1" id="图层_1" xmlns="http://www.w3.org/2000/svg" xmlns:xlink="http://www.w3.org/1999/xlink" x="0px" y="0px"
	 viewBox="0 0 96 96" enable-background="new 0 0 96 96" xml:space="preserve">
<g id="_x39_6-2_1_">
	
		<linearGradient id="SVGID_1_" gradientUnits="userSpaceOnUse" x1="48" y1="5.8898" x2="48" y2="89.8898" gradientTransform="matrix(1 0 0 -1 0 95.8898)">
		<stop  offset="0" style="stop-color:#2691FD"/>
		<stop  offset="1" style="stop-color:#35DCF6"/>
	</linearGradient>
	<path fill="url(#SVGID_1_)" d="M81,90H15c-5,0-9-4-9-9V15c0-5,4-9,9-9h66c5,0,9,4,9,9v66C90,86,86,90,81,90z"/>
	<g>
		<g>
			<g id="组_1_副本_12_">
				<path opacity="8.000000e-02" fill="#130F30" enable-background="new    " d="M47.7,87C22.7,87,6,73.1,6,52.5C6,32.4,24.3,9,48,9
					c23.8,0,41.7,23,41.7,43.5C89.7,72.8,72.4,87,47.7,87z"/>
				<path opacity="0.1" fill="#130F30" enable-background="new    " d="M47.7,84C24.5,84,9,71.3,9,52.5C9,33.8,26,12,48,12
					c22.1,0,38.7,21.4,38.7,40.5C86.7,71.1,70.6,84,47.7,84z"/>
				
					<linearGradient id="SVGID_2_" gradientUnits="userSpaceOnUse" x1="12" y1="47.8898" x2="83.7" y2="47.8898" gradientTransform="matrix(1 0 0 -1 0 95.8898)">
					<stop  offset="1.519901e-03" style="stop-color:#DDE3E9"/>
					<stop  offset="0.1171" style="stop-color:#EBEFF2"/>
					<stop  offset="0.2902" style="stop-color:#FAFBFC"/>
					<stop  offset="0.433" style="stop-color:#FFFFFF"/>
					<stop  offset="0.6155" style="stop-color:#FAFBFC"/>
					<stop  offset="0.8412" style="stop-color:#EBEEF2"/>
					<stop  offset="0.9848" style="stop-color:#DDE3E9"/>
				</linearGradient>
				<path fill="url(#SVGID_2_)" d="M83.7,52.5c0,18.1-16,28.5-36,28.5S12,70.6,12,52.5S28.3,15,48,15S83.7,34.5,83.7,52.5z"/>
				<linearGradient id="SVGID_3_" gradientUnits="userSpaceOnUse" x1="75.2077" y1="45.1864" x2="88.9822" y2="58.9609">
					<stop  offset="0" style="stop-color:#29AAE1"/>
					<stop  offset="1" style="stop-color:#4824F3"/>
				</linearGradient>
				<path fill="url(#SVGID_3_)" d="M90,57.6V46.3c-1.3-2.4-3.6-4.1-6.7-4.1c-5.2,0-11.5,4.1-11.5,9.6c0,5.6,4.5,10.1,10.1,10.1
					C85.4,61.9,88.4,60.2,90,57.6z"/>
				<linearGradient id="SVGID_4_" gradientUnits="userSpaceOnUse" x1="18.5196" y1="42.0152" x2="9.3281" y2="63.462">
					<stop  offset="0" style="stop-color:#29AAE1"/>
					<stop  offset="1" style="stop-color:#4824F3"/>
				</linearGradient>
				<path fill="url(#SVGID_4_)" d="M12.7,42.1c-3.1,0-5.4,1.6-6.7,4.1v11.3c1.6,2.7,4.6,4.3,8.1,4.3c5.6,0,10.1-4.5,10.1-10.1
					C24.2,46.1,18,42.1,12.7,42.1z"/>
				
					<radialGradient id="SVGID_5_" cx="34.8085" cy="76.6558" r="65.5574" gradientTransform="matrix(1 0 0 -1 0 95.8898)" gradientUnits="userSpaceOnUse">
					<stop  offset="0" style="stop-color:#FFFFFF"/>
					<stop  offset="0.8301" style="stop-color:#A6B4C4"/>
				</radialGradient>
				<path fill="url(#SVGID_5_)" d="M47.7,79.5c-20.4,0-34.2-10.8-34.2-27c0-16.7,15.1-36,34.5-36c19.2,0,34.2,19.4,34.2,36
					C82.2,68.7,68.3,79.5,47.7,79.5z"/>
				
					<linearGradient id="SVGID_6_" gradientUnits="userSpaceOnUse" x1="18" y1="36.8559" x2="78" y2="36.8559" gradientTransform="matrix(1 0 0 -1 0 95.8898)">
					<stop  offset="0" style="stop-color:#29AAE1"/>
					<stop  offset="1" style="stop-color:#4824F3"/>
				</linearGradient>
				<path fill="url(#SVGID_6_)" d="M18,47.2c0,0.7,0,1.5,0,2.6c0,16.7,13.3,26.3,30,26.3s30-9.3,30-26.3c0-1.1,0-1.9-0.4-3
					C68.4,43.5,58.4,41.7,48,42C38,42,27.6,43.5,18,47.2z"/>
				<g>
					<g>
						<defs>
							<path id="SVGID_7_" d="M18,47.2c0,0.7,0,1.5,0,2.6c0,16.7,13.3,26.3,30,26.3s30-9.3,30-26.3c0-1.1,0-1.9-0.4-3
								C68.4,43.5,58.4,41.7,48,42C38,42,27.6,43.5,18,47.2z"/>
						</defs>
						<clipPath id="SVGID_8_">
							<use xlink:href="#SVGID_7_"  overflow="visible"/>
						</clipPath>
						<g clip-path="url(#SVGID_8_)">
							
								<linearGradient id="SVGID_9_" gradientUnits="userSpaceOnUse" x1="24.7462" y1="28.6573" x2="9.5883" y2="54.0468" gradientTransform="matrix(1 0 0 -1 0 95.8898)">
								<stop  offset="0" style="stop-color:#FFFFFF;stop-opacity:0"/>
								<stop  offset="1" style="stop-color:#FFFFFF"/>
							</linearGradient>
							<path opacity="0.48" fill="url(#SVGID_9_)" enable-background="new    " d="M17.1,44.7l12.5,12.5c-0.6,0.9-1,2-1.3,3.1H10.6
								c-0.9,0-1.6-0.8-1.5-1.8c0.7-5.1,2.7-9.8,5.7-13.7C15.3,44.1,16.4,44,17.1,44.7z"/>
							
								<linearGradient id="SVGID_10_" gradientUnits="userSpaceOnUse" x1="51.8724" y1="44.8521" x2="36.7145" y2="70.2416" gradientTransform="matrix(1 0 0 -1 0 95.8898)">
								<stop  offset="0" style="stop-color:#FFFFFF;stop-opacity:0"/>
								<stop  offset="1" style="stop-color:#FFFFFF"/>
							</linearGradient>
							<path opacity="0.48" fill="url(#SVGID_10_)" enable-background="new    " d="M56.6,41.3L44,53.8c-0.9-0.6-2-1-3.1-1.3V34.8
								c0-0.9,0.8-1.6,1.8-1.5C47.8,34,52.5,36,56.4,39C57.1,39.5,57.2,40.6,56.6,41.3z"/>
							
								<linearGradient id="SVGID_11_" gradientUnits="userSpaceOnUse" x1="40.2539" y1="37.9157" x2="25.096" y2="63.3051" gradientTransform="matrix(1 0 0 -1 0 95.8898)">
								<stop  offset="0" style="stop-color:#FFFFFF;stop-opacity:0"/>
								<stop  offset="1" style="stop-color:#FFFFFF"/>
							</linearGradient>
							<path opacity="0.48" fill="url(#SVGID_11_)" enable-background="new    " d="M36.1,34.8v17.7c-1.1,0.3-2.2,0.7-3.1,1.3
								L20.4,41.3c-0.7-0.7-0.6-1.7,0.2-2.3c3.9-3,8.6-5,13.7-5.7C35.3,33.1,36.1,33.8,36.1,34.8z"/>
						</g>
					</g>
				</g>
				
					<linearGradient id="SVGID_12_" gradientUnits="userSpaceOnUse" x1="18" y1="49.8059" x2="78" y2="49.8059" gradientTransform="matrix(1 0 0 -1 0 95.8898)">
					<stop  offset="0" style="stop-color:#01579B"/>
					<stop  offset="0.9351" style="stop-color:#1A237E"/>
				</linearGradient>
				<path fill="url(#SVGID_12_)" d="M77.6,47.8c0.3,0.9,0.3,1.6,0.4,2.4c0-0.1,0-0.2,0-0.3c0-1.1,0-1.9-0.4-3
					C68.4,43.5,58.4,41.7,48,42c-10,0-20.4,1.5-30,5.2c0,0.3,0,0.6,0,0.9c9.6-3.7,20-5.2,30-5.2C58.4,42.6,68.4,44.4,77.6,47.8z"/>
				
					<linearGradient id="SVGID_13_" gradientUnits="userSpaceOnUse" x1="10.5" y1="36.0398" x2="85.5" y2="36.0398" gradientTransform="matrix(1 0 0 -1 0 95.8898)">
					<stop  offset="1.519901e-03" style="stop-color:#DDE3E9"/>
					<stop  offset="0.1171" style="stop-color:#EBEFF2"/>
					<stop  offset="0.2902" style="stop-color:#FAFBFC"/>
					<stop  offset="0.433" style="stop-color:#FFFFFF"/>
					<stop  offset="0.6155" style="stop-color:#FAFBFC"/>
					<stop  offset="0.8412" style="stop-color:#EBEEF2"/>
					<stop  offset="0.9848" style="stop-color:#DDE3E9"/>
				</linearGradient>
				<path fill="url(#SVGID_13_)" d="M83.4,41.4c-1.9-2.7-4.4-2.8-6.4-1.7s-2.5,2.4-2.5,3.8c0,0.3,0.1,1.1,0.4,1.7
					c0.4,1.7,0.7,3.8,0.7,5.6C75.6,64.4,63.6,69,48,69s-28.3-4.6-28.3-18.2c0-2.1,1.1-6.6,1.1-7.3c0-2.4-2.1-4.5-4.6-4.5
					c-1.4,0-2.8,0.7-3.5,1.7s-1.1,1.7-1.4,3.1c-0.7,2.2-0.7,5.3-0.7,8.3C10.3,70.3,27.1,80.7,48,80.7s37.5-10.4,37.5-28.5
					C85.5,47.8,85.3,44.2,83.4,41.4z"/>
				
					<linearGradient id="SVGID_14_" gradientUnits="userSpaceOnUse" x1="11.2969" y1="35.8398" x2="84.8" y2="35.8398" gradientTransform="matrix(1 0 0 -1 0 95.8898)">
					<stop  offset="0" style="stop-color:#A6B4C4"/>
					<stop  offset="0.4916" style="stop-color:#E4E4E4"/>
					<stop  offset="0.9972" style="stop-color:#A6B4C4"/>
				</linearGradient>
				<path fill="url(#SVGID_14_)" d="M48,80.1c-12.4,0-23.3-3.8-29.8-10.4c-4.7-4.7-7-10.5-6.9-17.3v-0.7c0-2.7,0-5.5,0.7-7.4
					c0.4-1.4,0.7-2,1.3-2.9c0.6-0.8,1.7-1.4,2.9-1.4c2.1,0,3.8,1.8,3.8,3.8c0,0.2-0.1,1-0.3,1.9c-0.3,1.7-0.8,4-0.8,5.4
					C18.9,64.2,30.4,73,47.6,73s28.7-8.9,28.7-22c0-1.5-0.2-3.3-0.7-5.7c-0.3-0.7-0.3-1.3-0.3-1.6c0-1.4,0.7-2.4,2.1-3.2
					c0.7-0.4,1.4-0.5,2-0.5c1.3,0,2.4,0.7,3.4,2c1.7,2.4,2,5.6,2,10.3C84.7,68.9,70,80.1,48,80.1z"/>
				<circle fill="#FFFFFF" cx="60.8" cy="54.8" r="3.8"/>
				<circle fill="#FFFFFF" cx="35.3" cy="54.8" r="3.8"/>
			</g>
		</g>
	</g>
</g>
</svg>
