<?xml version="1.0" encoding="utf-8"?>
<!-- Generator: Adobe Illustrator 24.0.0, SVG Export Plug-In . SVG Version: 6.00 Build 0)  -->
<svg version="1.1" id="麒麟更新管理器" xmlns="http://www.w3.org/2000/svg" xmlns:xlink="http://www.w3.org/1999/xlink"
	 x="0px" y="0px" viewBox="0 0 128 128" enable-background="new 0 0 128 128" xml:space="preserve">
<title>128</title>
<g id="_128">
	
		<linearGradient id="SVGID_1_" gradientUnits="userSpaceOnUse" x1="64" y1="17.78" x2="64" y2="111.3" gradientTransform="matrix(1 0 0 -1 0 128)">
		<stop  offset="0" style="stop-color:#2984FF"/>
		<stop  offset="1" style="stop-color:#1CC2FF"/>
	</linearGradient>
	<circle fill="url(#SVGID_1_)" cx="64" cy="64" r="59"/>
	
		<linearGradient id="SVGID_2_" gradientUnits="userSpaceOnUse" x1="64" y1="36.13" x2="64" y2="91.87" gradientTransform="matrix(1 0 0 -1 0 128)">
		<stop  offset="0" style="stop-color:#D2ECFF"/>
		<stop  offset="1" style="stop-color:#FCFDFF"/>
	</linearGradient>
	<polygon fill="url(#SVGID_2_)" points="91.5,56.1 84.8,58.2 80.7,64.3 76.7,66.5 73.7,68.1 63.9,64.1 56.8,58.8 61.5,52.2 
		59.8,45.3 62.9,36.1 62.9,36.1 55.6,43.6 54.6,43.4 56.5,38.7 55,41.5 56.5,38.7 49.8,45.6 49.3,45.9 43.4,49.6 40.5,55.7 
		36.5,62.7 40.3,72.3 41.5,79.7 43,83.5 40.5,86.6 37.8,89.9 45.1,89.9 46.1,83.1 49,78.5 53.9,79.4 59.4,77.2 63.5,75 67.2,78.1 
		62.8,83.4 57.9,88 65.4,88.2 65.4,85.1 65.4,85.1 65.5,85.1 65.5,85 70.6,80.8 73.4,83 67.3,91.8 75,91.9 74.7,87.5 80.3,82.3 
		77.4,76.4 77.1,69.3 82.8,65.9 86,66.6 86,66.5 90.3,65 90.3,65 91.5,56.1 	"/>
	
		<linearGradient id="SVGID_3_" gradientUnits="userSpaceOnUse" x1="81.0118" y1="175.5843" x2="81.0118" y2="273.5844" gradientTransform="matrix(0.94 -0.34 -0.34 -0.94 64.45 302.8)">
		<stop  offset="0" style="stop-color:#A2D1FE"/>
		<stop  offset="1" style="stop-color:#FCFDFF"/>
	</linearGradient>
	<path fill="none" stroke="url(#SVGID_3_)" stroke-width="6" stroke-miterlimit="10" d="M110,69.1c-2.8,25.3-25.6,43.5-50.8,40.7
		S15.6,84.3,18.4,59S44,15.5,69.3,18.3c17.4,1.9,32.2,13.6,38.2,30l-13.1-0.4"/>
</g>
</svg>
