<svg xmlns="http://www.w3.org/2000/svg" xmlns:xlink="http://www.w3.org/1999/xlink" viewBox="0 0 96 96"><defs><style>.cls-1{fill:#5b2d0e;opacity:0.2;}.cls-1,.cls-3,.cls-5,.cls-6,.cls-7{isolation:isolate;}.cls-2{fill:url(#未命名的渐变_22);}.cls-3{opacity:0.6;fill:url(#未命名的渐变_35);}.cls-4{opacity:0.4;}.cls-5{fill:#595959;opacity:0.5;}.cls-6{fill:#fff;opacity:0.7;}.cls-7{fill:#1f1f28;opacity:0.9;}.cls-8{fill:url(#未命名的渐变_29);}.cls-9{fill:url(#未命名的渐变_27);}.cls-10{fill:url(#未命名的渐变_26);}</style><linearGradient id="未命名的渐变_22" x1="48" y1="35" x2="48" y2="113" gradientTransform="matrix(1, 0, 0, -1, 0, 122)" gradientUnits="userSpaceOnUse"><stop offset="0" stop-color="#f5f5f5"/><stop offset="1" stop-color="#dcdcdc"/></linearGradient><linearGradient id="未命名的渐变_35" x1="48" y1="9" x2="48" y2="87" gradientUnits="userSpaceOnUse"><stop offset="0" stop-color="#fff"/><stop offset="1" stop-color="#fff" stop-opacity="0"/></linearGradient><linearGradient id="未命名的渐变_29" x1="22.5" y1="90" x2="22.5" y2="101" gradientTransform="matrix(1, 0, 0, -1, 0, 122)" gradientUnits="userSpaceOnUse"><stop offset="0" stop-color="#108ee9"/><stop offset="1" stop-color="#69bfff"/></linearGradient><linearGradient id="未命名的渐变_27" x1="22.5" y1="55" x2="22.5" y2="66" gradientTransform="matrix(1, 0, 0, -1, 0, 122)" gradientUnits="userSpaceOnUse"><stop offset="0" stop-color="#ffa437"/><stop offset="1" stop-color="#ffb65f"/></linearGradient><linearGradient id="未命名的渐变_26" x1="22.5" y1="73" x2="22.5" y2="84" gradientTransform="matrix(1, 0, 0, -1, 0, 122)" gradientUnits="userSpaceOnUse"><stop offset="0" stop-color="#f04134"/><stop offset="1" stop-color="#ff9377"/></linearGradient></defs><title>96</title><g id="便签本"><g id="_96" data-name="96"><path class="cls-1" d="M81,6H15a9,9,0,0,0-9,9V81a9,9,0,0,0,9,9H81a9,9,0,0,0,9-9V15A9,9,0,0,0,81,6Z"/><path class="cls-2" d="M81,9H15a6,6,0,0,0-6,6V81a6,6,0,0,0,6,6H81a6,6,0,0,0,6-6V15A6,6,0,0,0,81,9Z"/><path class="cls-3" d="M80.62,9H15.38A6.38,6.38,0,0,0,9,15.38V80.62A6.38,6.38,0,0,0,15.38,87H80.62A6.38,6.38,0,0,0,87,80.62V15.38A6.38,6.38,0,0,0,80.62,9ZM83,79.2A3.52,3.52,0,0,1,79.2,83H16.8A3.52,3.52,0,0,1,13,79.2V16.8A3.52,3.52,0,0,1,16.8,13H79.2A3.52,3.52,0,0,1,83,16.8Z"/><g class="cls-4"><rect class="cls-5" x="21" y="24" width="55" height="4"/><rect class="cls-5" x="21" y="41" width="55" height="4"/><rect class="cls-5" x="21" y="59" width="55" height="4"/></g><path class="cls-6" d="M31.27,85.16a2.48,2.48,0,0,1-.22-.88,2.63,2.63,0,0,1,.36-1,1.75,1.75,0,0,1,1-.88c.44-.15.59,0,.52.59a2.37,2.37,0,0,0,.22,1.47,1,1,0,0,0,1.1.51,1.83,1.83,0,0,0,1.32-.81,18.8,18.8,0,0,0,1.18-2,13.23,13.23,0,0,0,1.1-2.87,18.41,18.41,0,0,0,.59-3.08,17.22,17.22,0,0,0,.07-2.65,8.92,8.92,0,0,0-.44-2.13,2.32,2.32,0,0,0-1.47-1.39,2.82,2.82,0,0,1-1.4-1,1.37,1.37,0,0,1,.08-1.4,2,2,0,0,1,2-.15c.51.3,1.1.67,1.54,1a9.93,9.93,0,0,1,1.4,1.18c.44.44.88.73,1.25,1.1a7.14,7.14,0,0,1,1.1,1A16.4,16.4,0,0,0,43.76,73c.44.37.88.81,1.32,1.25s.66.37.73-.29a12.9,12.9,0,0,1,.59-2.65c.29-1.1.59-2.06.81-2.79a16.84,16.84,0,0,1,.95-2.42,25.14,25.14,0,0,1,1.25-2.36A14.06,14.06,0,0,1,51,61.5a7.63,7.63,0,0,1,1.91-1.62,10.31,10.31,0,0,1,1.91-.66,7.24,7.24,0,0,1,1.69-.07,3.49,3.49,0,0,1,1.32.44,4.2,4.2,0,0,1,1.4,1.76c0,.52-.08.74-.37.88s-.51-.07-.88-.58a2,2,0,0,0-1.25-1,4.89,4.89,0,0,0-1.4-.22,4.67,4.67,0,0,0-1.54.37,4.15,4.15,0,0,0-1.54.95A9,9,0,0,0,51,63.56c-.45.73-.89,1.54-1.4,2.57a19.41,19.41,0,0,0-1.32,3.3,22.2,22.2,0,0,0-.74,3.24c-.14,1-.22,1.83-.29,2.64a6.92,6.92,0,0,0,.22,2.43,14.64,14.64,0,0,1,.37,2.35,4.14,4.14,0,0,1-.22,2c-.67.22-1.11.22-1.25-.07a1.7,1.7,0,0,1-.22-1.1,7.49,7.49,0,0,0-.22-1.62,9.09,9.09,0,0,0-.67-1.84,6.58,6.58,0,0,0-1.17-1.69,10.63,10.63,0,0,0-1.4-1.25,6.94,6.94,0,0,0-1.1-.73c-.37-.15-.59-.07-.66.37s-.22,1-.37,1.83a14.22,14.22,0,0,1-.73,2.72,25.39,25.39,0,0,1-1.47,3.6,11.4,11.4,0,0,1-2.06,3.23,4.36,4.36,0,0,1-2.06,1.33,1.8,1.8,0,0,1-1.54-.22c-.44-.15-.88-.66-1.39-1.47m21.3-9.11a1,1,0,0,0,.88.07,1.41,1.41,0,0,0,.66-.66,6.44,6.44,0,0,1,.59-.88,4.76,4.76,0,0,0,.66-1,1.07,1.07,0,0,0,.08-1,1.21,1.21,0,0,0-.74-.59c-.36-.07-.59-.22-.66-.51a.85.85,0,0,1,.07-.74,4,4,0,0,1,1-.73,1.18,1.18,0,0,1,1.32.29A2,2,0,0,1,57,71.42c.07.44.37.66,1,.73a1.65,1.65,0,0,0,1.39-.36c.3-.3.59-.3.81,0s.15.66.08.73a2.29,2.29,0,0,1-.74.59,2.66,2.66,0,0,1-1.61.37c-.74,0-1.18.14-1.33.44a8.25,8.25,0,0,1-.73,1.25,10.93,10.93,0,0,1-1,1.46,4.53,4.53,0,0,1-1.47,1.11,2.85,2.85,0,0,1-1.62-.22,2.89,2.89,0,0,1-1-1.11,2.15,2.15,0,0,1,.14-1.47,10.29,10.29,0,0,1,.74-1.61,3.58,3.58,0,0,1,.88-1.18c.37-.29.66-.44.88-.36a3.07,3.07,0,0,1,.66.36,1,1,0,0,1,.22.59.78.78,0,0,1-.29.52,7.82,7.82,0,0,1-.66.58,2.65,2.65,0,0,0-.81,1.1c-.22.52-.3,1,.07,1.11m7.28-4.12a6.16,6.16,0,0,1-.08-1.25,8.09,8.09,0,0,1,.59-2.2A11.68,11.68,0,0,0,61,65.91a4.89,4.89,0,0,1-1,.66.39.39,0,0,1-.51-.15.58.58,0,0,1-.08-.59,3.1,3.1,0,0,1,.67-.66c.36-.29.73-.51,1.17-.88.37-1.1.74-2.06,1-2.72s.51-1.47.8-2.2a14.51,14.51,0,0,1,1-2.13,2.37,2.37,0,0,1,1-1.18c.37.15.37.74.07,1.62a17,17,0,0,0-.73,2.13c-.15.59-.37,1.1-.52,1.62s-.36,1.1-.51,1.83c.51-.36,1.32-.88,2.35-1.61s2.13-1.4,3.23-2.13,2.28-1.4,3.38-2.13,2.28-1.4,3.45-2,2.36-1.25,3.6-1.83,2.28-1.11,3.09-1.4A3.39,3.39,0,0,1,84.6,52a3.25,3.25,0,0,1-1.24.81c-.45.14-.89.36-1.33.51l-1.61.81c-.59.37-1.4.73-2.28,1.25s-1.84,1-2.79,1.54a32.21,32.21,0,0,0-3,1.76c-1,.67-1.92,1.25-2.8,1.84s-1.83,1.18-2.79,1.76-1.69,1-2.06,1.33a6,6,0,0,0-1,.66,2.08,2.08,0,0,0-.59.51,5.56,5.56,0,0,0-.37.66,10.24,10.24,0,0,0-.37,1.11,17.15,17.15,0,0,0-.44,1.76c-.14.73-.29,1.32-.44,1.84a2.91,2.91,0,0,0-.15,1.32,1,1,0,0,0,.37.81,1,1,0,0,0,.81.14A4.79,4.79,0,0,0,64,71.2a9.19,9.19,0,0,0,1.32-1.69,4.48,4.48,0,0,1,.59-.81c.15-.15.29-.22.44-.07s.15.36-.07.88a6.75,6.75,0,0,1-.66,1.25,8.31,8.31,0,0,1-.81,1,7.88,7.88,0,0,1-1.1,1c-.3.22-.59.37-.81.52l-.52.22a2.51,2.51,0,0,1-1.17.22,1.18,1.18,0,0,1-.81-.37,1.34,1.34,0,0,1-.44-.51v-.08c0-.22-.07-.51-.07-.88m7.2-4.85a3.37,3.37,0,0,0,1-1.39.65.65,0,0,0,0-.74c-.14-.14-.29-.07-.58.3a1.52,1.52,0,0,0-.44,1v.88M66.16,69a5.73,5.73,0,0,1-.51-1.47,5.27,5.27,0,0,1,.22-1.39c.15-.52.37-1,.51-1.4a2.3,2.3,0,0,1,.81-1l.37-.22a3.08,3.08,0,0,1,1.1-.22,1,1,0,0,1,.81.81,1.88,1.88,0,0,1-.07,1.54,4.08,4.08,0,0,1-1,1.47c-.44.44-.66.74-.66.89s.14.22.44.29a5.15,5.15,0,0,0,1.54-.44,9.83,9.83,0,0,0,1.76-1.1,5.74,5.74,0,0,0,1-1c.22-.29.37-.51.51-.66s.3-.15.52.07a2.89,2.89,0,0,1-.52,1.47,6.54,6.54,0,0,1-1,1.25,7.8,7.8,0,0,1-1.83,1.32l-.44.22a5.67,5.67,0,0,1-1.91.52,3.51,3.51,0,0,1-1-.15c-.07-.22-.37-.44-.59-.81M74,65.1a.62.62,0,0,0,.89.07,4,4,0,0,0,.73-.8,7.32,7.32,0,0,0,.44-1.25c.08-.52.08-.81,0-.89A10.75,10.75,0,0,1,75,64.07c-.29.3-.59.66-1,1m-2.13.15a3.27,3.27,0,0,1-.29-.88.77.77,0,0,1,.15-.59,1.2,1.2,0,0,1,.51-.37c.22-.07.59.22,1.1.88a4.55,4.55,0,0,0,1-1c.3-.36.52-.73.74-1a10.64,10.64,0,0,1,.81-1.1c.29-.44.58-.81.88-1.25a6.27,6.27,0,0,0,.51-1.1,3.74,3.74,0,0,0,.07-.88.94.94,0,0,1,.22-.66,1.35,1.35,0,0,1,.67-.15c.14,0,.36.22.58.59a1.29,1.29,0,0,1,.15.51,4.32,4.32,0,0,1-.15.81,4.22,4.22,0,0,1-.44.88c-.22.3-.36.59-.58,1a6.08,6.08,0,0,0-.52,1.25,4.76,4.76,0,0,0-.22,1.32v1a1.72,1.72,0,0,1-.37,1,3.83,3.83,0,0,1-2.35,1.4,3.25,3.25,0,0,1-1.25-.44,3.15,3.15,0,0,1-1.25-1.1"/><path class="cls-7" d="M30.82,83.69A1.6,1.6,0,0,1,31,81.85,1.75,1.75,0,0,1,32,81c.44-.15.59,0,.51.59A2.38,2.38,0,0,0,32.74,83a1,1,0,0,0,1.1.51,1.83,1.83,0,0,0,1.32-.81,20.69,20.69,0,0,0,1.18-2,13.23,13.23,0,0,0,1.1-2.87A17.38,17.38,0,0,0,38,74.8a16.11,16.11,0,0,0,.08-2.65A9.43,9.43,0,0,0,37.66,70a2.32,2.32,0,0,0-1.47-1.39,2.76,2.76,0,0,1-1.4-1,1.37,1.37,0,0,1,.08-1.4,1.94,1.94,0,0,1,2-.14c.51.29,1.1.66,1.54,1a9.93,9.93,0,0,1,1.4,1.18c.44.44.88.73,1.25,1.1a7.14,7.14,0,0,1,1.1,1c.29.36.73.73,1.17,1.17s.89.81,1.33,1.25.66.37.73-.29A12.9,12.9,0,0,1,46,69.8c.29-1.1.59-2.06.81-2.79a16.84,16.84,0,0,1,.95-2.42A25.14,25.14,0,0,1,49,62.23,14.54,14.54,0,0,1,50.59,60a7.63,7.63,0,0,1,1.91-1.62,10.31,10.31,0,0,1,1.91-.66,7.24,7.24,0,0,1,1.69-.07,3.49,3.49,0,0,1,1.32.44,4.2,4.2,0,0,1,1.4,1.76c0,.52-.08.74-.37.89s-.51-.08-.88-.59a2,2,0,0,0-1.25-1,5.33,5.33,0,0,0-1.4-.22,4.67,4.67,0,0,0-1.54.37,4.15,4.15,0,0,0-1.54,1,9.8,9.8,0,0,0-1.33,1.77c-.44.73-.88,1.54-1.39,2.57A18.42,18.42,0,0,0,47.8,68a21.81,21.81,0,0,0-.74,3.23c-.15,1-.22,1.83-.29,2.64A6.7,6.7,0,0,0,47,76.27a14.82,14.82,0,0,1,.37,2.35,4.14,4.14,0,0,1-.22,2c-.67.22-1.11.22-1.25-.07a1.7,1.7,0,0,1-.22-1.1,7.49,7.49,0,0,0-.22-1.62A9.09,9.09,0,0,0,44.78,76a6.58,6.58,0,0,0-1.17-1.69A11.31,11.31,0,0,0,42.21,73a7.42,7.42,0,0,0-1.1-.73c-.37-.15-.59-.07-.66.37s-.22,1-.37,1.83a15,15,0,0,1-.73,2.72,25.39,25.39,0,0,1-1.47,3.6,11.62,11.62,0,0,1-2.06,3.24,4.46,4.46,0,0,1-2.06,1.32,1.8,1.8,0,0,1-1.54-.22c-.44-.15-.88-.74-1.4-1.47m21.31-9.11a1,1,0,0,0,.88.07,1.41,1.41,0,0,0,.66-.66,6.44,6.44,0,0,1,.59-.88,4.76,4.76,0,0,0,.66-1,1.07,1.07,0,0,0,.08-1,1.21,1.21,0,0,0-.74-.59c-.37-.07-.59-.22-.66-.51a.86.86,0,0,1,.07-.74,4,4,0,0,1,1-.73,1.18,1.18,0,0,1,1.32.29A2,2,0,0,1,56.54,70c.07.44.37.66,1,.73A1.65,1.65,0,0,0,59,70.32c.3-.3.59-.3.81,0s.15.66.08.73a2.29,2.29,0,0,1-.74.59,2.67,2.67,0,0,1-1.62.37c-.73,0-1.17.14-1.32.44a10.43,10.43,0,0,1-.73,1.25,11.72,11.72,0,0,1-1,1.47,4.65,4.65,0,0,1-1.47,1.1,2.85,2.85,0,0,1-1.62-.22,3,3,0,0,1-1-1.11,2.19,2.19,0,0,1,.15-1.46,10,10,0,0,1,.74-1.62,3.58,3.58,0,0,1,.88-1.18c.36-.29.66-.44.88-.36a3.07,3.07,0,0,1,.66.36,1,1,0,0,1,.22.59.78.78,0,0,1-.29.52,7.82,7.82,0,0,1-.66.58,2.62,2.62,0,0,0-.81,1.11c-.3.58-.3.88.07,1.1m7.27-4.12a7,7,0,0,1-.07-1.25,8.09,8.09,0,0,1,.59-2.2,11.68,11.68,0,0,0,.66-2.57,4.89,4.89,0,0,1-1,.66A.39.39,0,0,1,59,65a.56.56,0,0,1-.08-.58,3,3,0,0,1,.66-.67c.37-.29.74-.51,1.18-.88.37-1.1.74-2,1-2.72s.51-1.47.8-2.2a14.51,14.51,0,0,1,1-2.13,2.37,2.37,0,0,1,1-1.18c.36.15.36.74.07,1.62a17,17,0,0,0-.73,2.13c-.15.59-.37,1.1-.52,1.62a17.41,17.41,0,0,0-.51,1.83c.51-.36,1.32-.88,2.35-1.61s2.13-1.4,3.23-2.13,2.28-1.4,3.38-2.13,2.28-1.4,3.45-2,2.35-1.25,3.6-1.83S81.15,51,82,50.7a3.39,3.39,0,0,1,2.2-.22,3.21,3.21,0,0,1-1.25.81c-.44.14-.88.37-1.32.51L80,52.61c-.59.37-1.4.73-2.28,1.25s-1.84,1-2.79,1.54a31.58,31.58,0,0,0-3,1.77c-1,.66-1.91,1.24-2.79,1.83s-1.83,1.18-2.79,1.77-1.69,1-2.06,1.32a6.58,6.58,0,0,0-1,.66,2.16,2.16,0,0,0-.58.51,5.56,5.56,0,0,0-.37.66A10.24,10.24,0,0,0,61.9,65a17.86,17.86,0,0,0-.44,1.76c-.15.73-.29,1.32-.44,1.84A2.91,2.91,0,0,0,60.87,70a1,1,0,0,0,.37.81,1,1,0,0,0,.81.14,4.79,4.79,0,0,0,1.47-1.17A9.19,9.19,0,0,0,64.84,68a4.48,4.48,0,0,1,.59-.81c.15-.15.29-.22.44-.07s.15.36-.07.88a6.75,6.75,0,0,1-.66,1.25,10.79,10.79,0,0,1-.81,1,7.46,7.46,0,0,1-1.11,1c-.29.23-.58.37-.8.52l-.52.22a2.51,2.51,0,0,1-1.17.22,1.18,1.18,0,0,1-.81-.37,1.27,1.27,0,0,1-.44-.51v-.08a1.91,1.91,0,0,0-.08-.88m7.2-4.92a3.4,3.4,0,0,0,1-1.4.64.64,0,0,0,0-.73c-.14-.15-.29-.07-.58.29a1.59,1.59,0,0,0-.45,1,3.24,3.24,0,0,1,0,.88m-.88,2a5.82,5.82,0,0,1-.51-1.46,5.28,5.28,0,0,1,.22-1.4c.15-.52.37-1,.51-1.4a2.35,2.35,0,0,1,.81-1l.37-.22a3.08,3.08,0,0,1,1.1-.22,1,1,0,0,1,.81.81A1.88,1.88,0,0,1,69,64.14a4.08,4.08,0,0,1-1,1.47c-.44.45-.66.74-.66.89s.14.22.44.29a5.22,5.22,0,0,0,1.54-.44A9.83,9.83,0,0,0,71,65.25a5.74,5.74,0,0,0,1-1c.22-.29.37-.51.51-.66s.3-.15.52.07a2.89,2.89,0,0,1-.52,1.47,7,7,0,0,1-1,1.25,8,8,0,0,1-1.83,1.32l-.44.23a5.89,5.89,0,0,1-1.91.51,3.45,3.45,0,0,1-1-.15c-.07-.22-.37-.44-.59-.81m7.86-4a.62.62,0,0,0,.89.07,3.77,3.77,0,0,0,.73-.81,7.56,7.56,0,0,0,.44-1.25c.07-.51.07-.8,0-.88a11.18,11.18,0,0,1-1.1,1.84,6.24,6.24,0,0,1-1,1m-2.13.14a3.16,3.16,0,0,1-.29-.88.58.58,0,0,1,.15-.59,1.28,1.28,0,0,1,.51-.36c.22-.08.59.22,1.1.88a4.55,4.55,0,0,0,1-1c.3-.37.52-.73.74-1a10.9,10.9,0,0,1,.8-1.1c.3-.44.59-.81.89-1.25a6.63,6.63,0,0,0,.51-1.1,3.78,3.78,0,0,0,.07-.88.9.9,0,0,1,.22-.66,1.35,1.35,0,0,1,.67-.15c.14,0,.36.22.58.59a1.2,1.2,0,0,1,.15.51,4.32,4.32,0,0,1-.15.81,4.22,4.22,0,0,1-.44.88,10.09,10.09,0,0,0-.59,1,6.31,6.31,0,0,0-.51,1.24,4.88,4.88,0,0,0-.22,1.33v1a1.72,1.72,0,0,1-.37,1,5,5,0,0,1-1.25,1,5,5,0,0,1-1.1.37c-.29.07-.66-.15-1.25-.44a3.12,3.12,0,0,1-1.25-1.11"/><circle class="cls-8" cx="22.5" cy="26.5" r="5.5"/><circle class="cls-9" cx="22.5" cy="61.5" r="5.5"/><circle class="cls-10" cx="22.5" cy="43.5" r="5.5"/></g></g></svg>