<?xml version="1.0" encoding="utf-8"?>
<!-- Generator: Adobe Illustrator 24.0.0, SVG Export Plug-In . SVG Version: 6.00 Build 0)  -->
<svg version="1.1" id="系统监视器" xmlns="http://www.w3.org/2000/svg" xmlns:xlink="http://www.w3.org/1999/xlink" x="0px"
	 y="0px" viewBox="0 0 96 96" enable-background="new 0 0 96 96" xml:space="preserve">
<title>96</title>
<g id="_96">
	
		<linearGradient id="SVGID_1_" gradientUnits="userSpaceOnUse" x1="6" y1="48" x2="90" y2="48" gradientTransform="matrix(1 0 0 -1 0 96)">
		<stop  offset="0" style="stop-color:#01B993"/>
		<stop  offset="1" style="stop-color:#5BD564"/>
	</linearGradient>
	<path fill="url(#SVGID_1_)" d="M15,6h66c5,0,9,4,9,9v66c0,5-4,9-9,9H15c-5,0-9-4-9-9V15C6,10,10,6,15,6z"/>
	<g id="_96-2">
		<g>
			<defs>
				<path id="SVGID_2_" d="M15,6h66c5,0,9,4,9,9v66c0,5-4,9-9,9H15c-5,0-9-4-9-9V15C6,10,10,6,15,6z"/>
			</defs>
			<clipPath id="SVGID_3_">
				<use xlink:href="#SVGID_2_"  overflow="visible"/>
			</clipPath>
			<g clip-path="url(#SVGID_3_)">
				<g opacity="0.1">
					<line fill="none" stroke="#FFFFFF" stroke-width="2.85" stroke-miterlimit="10" x1="6" y1="85" x2="90" y2="85"/>
					<line fill="none" stroke="#FFFFFF" stroke-width="2.85" stroke-miterlimit="10" x1="6" y1="72.9" x2="90" y2="72.9"/>
					<line fill="none" stroke="#FFFFFF" stroke-width="2.85" stroke-miterlimit="10" x1="6" y1="60.8" x2="90" y2="60.8"/>
					<line fill="none" stroke="#FFFFFF" stroke-width="2.85" stroke-miterlimit="10" x1="6" y1="48.7" x2="90" y2="48.7"/>
					<line fill="none" stroke="#FFFFFF" stroke-width="2.85" stroke-miterlimit="10" x1="6" y1="36.6" x2="90" y2="36.6"/>
					<line fill="none" stroke="#FFFFFF" stroke-width="2.85" stroke-miterlimit="10" x1="6" y1="24.5" x2="90" y2="24.5"/>
					<line fill="none" stroke="#FFFFFF" stroke-width="2.85" stroke-miterlimit="10" x1="6" y1="12.4" x2="90" y2="12.4"/>
				</g>
			</g>
		</g>
		<path fill="none" stroke="#FFFFFF" stroke-width="4.5" stroke-miterlimit="10" d="M84.2,49.4L81,53.9c-1.4,1.9-4.1,2.4-6.1,1
			c-0.5-0.4-1-0.9-1.3-1.5L69.2,45c-1.1-2.1-3.8-2.9-5.9-1.8c-0.7,0.4-1.4,1-1.8,1.7l-3.2,5.8c-1.1,2.1-3.8,2.9-5.9,1.7
			c-1.1-0.6-1.8-1.6-2.1-2.7l-3.5-13.3c-0.6-2.3-3-3.7-5.3-3.1c-1.6,0.4-2.8,1.7-3.1,3.3l-3.7,17c-0.5,2.3-2.8,3.8-5.2,3.3
			c-1.3-0.3-2.3-1.1-2.9-2.3l-1.6-3.2c-1.1-2.1-3.7-3-5.8-1.9c0,0,0,0-0.1,0c-0.1,0.1-0.3,0.2-0.4,0.2l-9,6"/>
	</g>
</g>
</svg>
