<?xml version="1.0" encoding="utf-8"?>
<!-- Generator: Adobe Illustrator 24.0.0, SVG Export Plug-In . SVG Version: 6.00 Build 0)  -->
<svg version="1.1" id="图层_1" xmlns="http://www.w3.org/2000/svg" xmlns:xlink="http://www.w3.org/1999/xlink" x="0px" y="0px"
	 viewBox="0 0 128 128" enable-background="new 0 0 128 128" xml:space="preserve">
<title>kylin-ipmsg128</title>
<path fill="#1976D2" d="M20,8h88c6.6,0,12,5.4,12,12v88c0,6.6-5.4,12-12,12H20c-6.6,0-12-5.4-12-12V20C8,13.4,13.4,8,20,8z"/>
<path fill="#FFFFFF" d="M93.8,34.4c-16.4-16.4-43-16.3-59.4,0.1s-16.3,43,0.1,59.4c2.8,2.8,6,5.2,9.5,7.1c-2.5,1.6-5.1,2.9-7.8,3.9
	c6.1,1.4,12.4,1.5,18.6,0.1c22.6,5.2,45.1-9,50.3-31.6C108.2,59.3,104,44.6,93.8,34.4z"/>
<circle fill="#1976D2" cx="44" cy="60" r="5"/>
<circle fill="#1976D2" cx="65" cy="60" r="5"/>
<circle fill="#1976D2" cx="85" cy="60" r="5"/>
</svg>
