<?xml version="1.0" encoding="utf-8"?>
<!-- Generator: Adobe Illustrator 24.0.0, SVG Export Plug-In . SVG Version: 6.00 Build 0)  -->
<svg version="1.1" id="libreoffice" xmlns="http://www.w3.org/2000/svg" xmlns:xlink="http://www.w3.org/1999/xlink" x="0px"
	 y="0px" viewBox="0 0 128 128" enable-background="new 0 0 128 128" xml:space="preserve">
<title>128</title>
<g id="base">
	<g id="_128">
		
			<linearGradient id="SVGID_1_" gradientUnits="userSpaceOnUse" x1="64" y1="120" x2="64" y2="8" gradientTransform="matrix(1 0 0 -1 0 128)">
			<stop  offset="0" style="stop-color:#FFFFFF"/>
			<stop  offset="1" style="stop-color:#F5DEFF"/>
		</linearGradient>
		<path fill="url(#SVGID_1_)" d="M20,8h88c6.6,0,12,5.4,12,12v88c0,6.6-5.4,12-12,12H20c-6.6,0-12-5.4-12-12V20C8,13.4,13.4,8,20,8z
			"/>
		
			<linearGradient id="SVGID_2_" gradientUnits="userSpaceOnUse" x1="8" y1="64" x2="120" y2="64" gradientTransform="matrix(1 0 0 -1 0 128)">
			<stop  offset="0" style="stop-color:#A223B5"/>
			<stop  offset="1" style="stop-color:#9323B5"/>
		</linearGradient>
		<path fill="url(#SVGID_2_)" d="M108,16c2.2,0,4,1.8,4,4v88c0,2.2-1.8,4-4,4H20c-2.2,0-4-1.8-4-4V20c0-2.2,1.8-4,4-4H108 M108,8H20
			C13.4,8,8,13.4,8,20v88c0,6.6,5.4,12,12,12h88c6.6,0,12-5.4,12-12V20C120,13.4,114.6,8,108,8z"/>
		<rect x="27" y="34" fill="#C07CCA" width="14" height="5"/>
		<rect x="47" y="34" fill="#C07CCA" width="14" height="5"/>
		<rect x="87" y="34" fill="#C07CCA" width="14" height="5"/>
		<rect x="67" y="34" fill="#C07CCA" width="14" height="5"/>
		<rect x="27" y="45" fill="#C07CCA" width="14" height="5"/>
		<rect x="47" y="45" fill="#C07CCA" width="14" height="5"/>
		<rect x="87" y="45" fill="#C07CCA" width="14" height="5"/>
		<rect x="67" y="45" fill="#C07CCA" width="14" height="5"/>
		<rect x="27" y="56" fill="#C07CCA" width="14" height="5"/>
		<rect x="47" y="56" fill="#C07CCA" width="14" height="5"/>
		<rect x="87" y="56" fill="#C07CCA" width="14" height="5"/>
		<rect x="67" y="56" fill="#C07CCA" width="14" height="5"/>
		<rect x="27" y="67" fill="#C07CCA" width="14" height="5"/>
		<rect x="47" y="67" fill="#C07CCA" width="14" height="5"/>
		<rect x="87" y="67" fill="#C07CCA" width="14" height="5"/>
		<rect x="67" y="67" fill="#C07CCA" width="14" height="5"/>
		<rect x="27" y="78" fill="#C07CCA" width="14" height="5"/>
		<rect x="47" y="78" fill="#C07CCA" width="14" height="5"/>
		<rect x="87" y="78" fill="#C07CCA" width="14" height="5"/>
		<rect x="67" y="78" fill="#C07CCA" width="14" height="5"/>
		<rect x="27" y="89" fill="#C07CCA" width="14" height="5"/>
		<rect x="47" y="89" fill="#C07CCA" width="14" height="5"/>
		<rect x="87" y="89" fill="#C07CCA" width="14" height="5"/>
		<rect x="67" y="89" fill="#C07CCA" width="14" height="5"/>
		
			<linearGradient id="SVGID_3_" gradientUnits="userSpaceOnUse" x1="38" y1="38" x2="90" y2="38" gradientTransform="matrix(1 0 0 1 0 26)">
			<stop  offset="0" style="stop-color:#E699F2"/>
			<stop  offset="0.51" style="stop-color:#D766E9"/>
			<stop  offset="1" style="stop-color:#F1C1FA"/>
		</linearGradient>
		<path fill="url(#SVGID_3_)" d="M64,90c-17.2,0-24.8-9.2-26-10.4V46.8c1.2-1.6,9.6-8.8,26-8.8s24.4,6.8,26,8.8v32.4
			C89.2,80.4,81.2,90,64,90z"/>
		<path fill="#A223B5" d="M64,40c14.7,0,22,5.6,24,7.4v30.9c-1.8,2.1-9.1,9.6-24,9.6s-22.2-7.2-24-9.3V47.6C42,45.4,49.7,40,64,40
			 M64,36c-18.8,0-27.6,8.8-28,10.4V80c0.4,1.2,9.2,12,28,12s27.6-11.2,28-12.4V46C91.6,44.8,82.8,36,64,36z"/>
		<path fill="none" stroke="#A223B5" stroke-width="4" stroke-miterlimit="10" d="M90,46c0,6.8-11.6,12-26,12s-26-5.2-26-12"/>
		<path fill="none" stroke="#A223B5" stroke-width="4" stroke-miterlimit="10" d="M90,62.3C90,68.9,78.1,74,64,74s-26-5.1-26-11.7"
			/>
	</g>
</g>
</svg>
