<?xml version="1.0" encoding="utf-8"?>
<!-- Generator: Adobe Illustrator 24.0.0, SVG Export Plug-In . SVG Version: 6.00 Build 0)  -->
<svg version="1.1" id="图层_1" xmlns="http://www.w3.org/2000/svg" xmlns:xlink="http://www.w3.org/1999/xlink" x="0px" y="0px"
	 viewBox="0 0 96 96" enable-background="new 0 0 96 96" xml:space="preserve">
<g id="_x39_6_1_">
	
		<linearGradient id="SVGID_1_" gradientUnits="userSpaceOnUse" x1="48" y1="90" x2="48" y2="2" gradientTransform="matrix(1 0 0 1 0 2)">
		<stop  offset="7.000000e-02" style="stop-color:#44EB9E"/>
		<stop  offset="0.28" style="stop-color:#55F0CA"/>
		<stop  offset="0.75" style="stop-color:#39B496"/>
		<stop  offset="1" style="stop-color:#24996B"/>
	</linearGradient>
	<circle fill="url(#SVGID_1_)" cx="48" cy="48" r="44"/>
	
		<linearGradient id="SVGID_2_" gradientUnits="userSpaceOnUse" x1="48" y1="2" x2="48" y2="90" gradientTransform="matrix(1 0 0 1 0 2)">
		<stop  offset="0" style="stop-color:#80E3B1"/>
		<stop  offset="0.32" style="stop-color:#26C47B"/>
		<stop  offset="0.63" style="stop-color:#39B44A"/>
		<stop  offset="1" style="stop-color:#249962"/>
	</linearGradient>
	<path opacity="0.5" fill="url(#SVGID_2_)" enable-background="new    " d="M92,48c0,24.3-19.7,44-44,44S4,72.3,4,48S23.7,4,48,4
		S92,23.7,92,48z M48,6C24.8,6,6,24.8,6,48s18.8,42,42,42s42-18.8,42-42S71.2,6,48,6z"/>
	<path fill="#536055" d="M84,48c0,19.9-16.1,36-36,36S12,67.9,12,48s16.1-36,36-36S84,28.1,84,48z"/>
	
		<linearGradient id="SVGID_3_" gradientUnits="userSpaceOnUse" x1="48" y1="11" x2="48" y2="81" gradientTransform="matrix(1 0 0 1 0 2)">
		<stop  offset="0" style="stop-color:#515D62"/>
		<stop  offset="0.85" style="stop-color:#A2C0C8"/>
		<stop  offset="1" style="stop-color:#B9C8CC"/>
	</linearGradient>
	<path fill="url(#SVGID_3_)" d="M83,48c0,19.3-15.7,35-35,35S13,67.3,13,48s15.7-35,35-35S83,28.7,83,48z"/>
	<circle fill="#E8F2F4" cx="48" cy="48" r="33"/>
	<g>
		
			<line fill="none" stroke="#000000" stroke-width="2" stroke-linecap="round" stroke-miterlimit="10" x1="48" y1="48" x2="55.5" y2="21.5"/>
		
			<line fill="none" stroke="#000000" stroke-width="3" stroke-linecap="round" stroke-miterlimit="10" x1="48" y1="48" x2="32" y2="56"/>
		
			<line fill="none" stroke="#F43A0F" stroke-width="2" stroke-linecap="round" stroke-miterlimit="10" x1="43" y1="45" x2="75" y2="64"/>
		<circle fill="#F43A0F" cx="48" cy="48" r="4"/>
	</g>
	<circle fill="#536055" cx="48" cy="77" r="1.5"/>
	<circle fill="#536055" cx="48" cy="19" r="1.5"/>
	<circle fill="#536055" cx="19" cy="48" r="1.5"/>
	<circle fill="#536055" cx="77" cy="48" r="1.5"/>
</g>
</svg>
