<svg id="图层_1" data-name="图层 1" xmlns="http://www.w3.org/2000/svg" xmlns:xlink="http://www.w3.org/1999/xlink" viewBox="0 0 128 128"><defs><style>.cls-1{fill:#1a1a1a;opacity:0.2;}.cls-2{fill:#fbc02d;}.cls-3{fill:url(#未命名的渐变_27);}.cls-4{fill:url(#未命名的渐变_22);}.cls-5{fill:#dce775;}.cls-6{fill:url(#未命名的渐变_27-2);}.cls-7{fill:#991a24;}</style><linearGradient id="未命名的渐变_27" x1="33.6" y1="38.92" x2="78.18" y2="83.49" gradientUnits="userSpaceOnUse"><stop offset="0" stop-color="#d11523"/><stop offset="0.5" stop-color="#e21a24"/><stop offset="1" stop-color="#ed1d25"/></linearGradient><linearGradient id="未命名的渐变_22" x1="61.78" y1="-76.91" x2="61.78" y2="-183.41" gradientTransform="translate(-72.96 137.44) rotate(30)" gradientUnits="userSpaceOnUse"><stop offset="0" stop-color="#ed1d25"/><stop offset="0.1" stop-color="#ef2a32"/><stop offset="0.51" stop-color="#f45b64"/><stop offset="0.82" stop-color="#f87a82"/><stop offset="1" stop-color="#f9858e"/></linearGradient><linearGradient id="未命名的渐变_27-2" x1="94.88" y1="-129.48" x2="52.02" y2="-129.48" gradientTransform="translate(-72.96 137.44) rotate(30)" xlink:href="#未命名的渐变_27"/></defs><title>medit128</title><ellipse class="cls-1" cx="66.78" cy="106.98" rx="46.62" ry="12.04" transform="translate(-23.23 18.65) rotate(-13.56)"/><rect class="cls-2" x="20.99" y="110.55" width="8.01" height="9.61" rx="4" transform="translate(61.03 2.96) rotate(30)"/><path class="cls-3" d="M90.21,10.09a21.37,21.37,0,0,1,2.13,24.4L73.59,67,66.88,63.1,85.63,30.62A21.35,21.35,0,0,0,83.5,6.22a21.36,21.36,0,0,0-25.61,9.46L18.38,84.1c-5.89,10.22-.78,27,6.62,31.25h0c7.4,4.28,24.47.32,30.37-9.89L94.88,37A21.35,21.35,0,0,0,90.21,10.09Z"/><path class="cls-4" d="M74,15.65C76.05,12,71.51,6,66.05,10.2a14.15,14.15,0,0,0-3.43,4.22L22,84.82c-2.8,4.84-2.48,11.52-.35,17.87.5,1.5,3,2,3.16.59a15.27,15.27,0,0,1,1.84-5.61l17-29.47L67.28,27.27Z"/><path class="cls-5" d="M85.63,30.62,66.88,63.1,73.59,67,92.34,34.49a21.37,21.37,0,0,0-2.13-24.4,20.5,20.5,0,0,0-3.15-2.23h0A20.76,20.76,0,0,0,83.5,6.22,21.35,21.35,0,0,1,85.63,30.62Z"/><path class="cls-6" d="M72.69,68l-31.14-18a3.46,3.46,0,1,0-3.45,6L69.23,74a3.46,3.46,0,0,0,3.46-6Z"/><path class="cls-7" d="M73.38,66.83l-31.14-18a4.84,4.84,0,0,0-4.84,8.38l31.14,18a4.84,4.84,0,1,0,4.84-8.38ZM69.23,74,38.1,56a3.46,3.46,0,1,1,3.45-6L72.69,68a3.46,3.46,0,0,1-3.46,6Z"/></svg>