<svg id="图层_1" data-name="图层 1" xmlns="http://www.w3.org/2000/svg" viewBox="0 0 128 128"><defs><style>.cls-1{fill:#f4e6cc;}.cls-2{fill:#9b6600;}.cls-3{fill:#d18f03;}.cls-4{fill:#9e6d04;}.cls-5{fill:#fff;}.cls-6{fill:#e0e0e0;opacity:0.5;}.cls-7{fill:#d1a047;}.cls-8{fill:#e9c584;}</style></defs><title>melting-gui-112</title><polygon class="cls-1" points="40.47 33.9 31.26 48.98 29.8 49.4 13.16 54.17 38.41 33.9 40.47 33.9"/><polygon class="cls-2" points="41.32 32.5 40.47 33.9 38.41 33.9 13.16 54.17 31.26 48.98 30.18 50.76 13.66 55.5 7.5 57.27 12.01 53.21 37.74 32.5 41.32 32.5"/><polygon class="cls-3" points="114.84 54.17 97.18 49.1 96.79 48.99 96.74 48.98 87.53 33.9 89.38 33.9 114.84 54.17"/><polygon class="cls-2" points="120.5 57.27 114.34 55.5 97.82 50.76 96.74 48.98 114.84 54.17 89.38 33.9 87.53 33.9 86.68 32.5 90.06 32.5 115.99 53.21 120.5 57.27"/><polygon class="cls-4" points="96.73 48.98 31.26 48.98 39.61 35.3 39.66 35.22 40.42 33.98 40.47 33.9 87.53 33.9 87.58 33.98 88.34 35.22 88.39 35.3 96.73 48.98"/><ellipse class="cls-5" cx="56.27" cy="48.01" rx="8.83" ry="8.92"/><path class="cls-6" d="M56.27,39.09H56.1a11.13,11.13,0,0,1,0,17.83h.17a8.93,8.93,0,0,0,0-17.85Z"/><ellipse class="cls-5" cx="70.35" cy="48.01" rx="8.83" ry="8.92"/><path class="cls-6" d="M70.35,39.09h-.17a11.11,11.11,0,0,1,0,17.83h.17a8.93,8.93,0,0,0,0-17.85Z"/><rect class="cls-7" x="30.89" y="62.54" width="64.83" height="30.62"/><polygon class="cls-2" points="95.72 93.16 30.89 93.16 30.89 62.54 28.58 62.54 28.58 93.16 28.58 95.5 30.89 95.5 95.72 95.5 98.04 95.5 98.04 93.16 98.04 62.54 95.72 62.54 95.72 93.16"/><polygon class="cls-8" points="105.67 61.24 21.16 61.24 29.8 52.48 33.26 48.98 94.87 48.98 97.18 51.61 105.67 61.24"/><polygon class="cls-2" points="108.7 62.51 17.92 62.51 19.96 60.45 29.25 51.02 29.8 50.47 31.26 48.98 33.25 48.98 29.8 52.48 21.16 61.24 105.67 61.24 97.18 51.61 94.87 48.98 96.78 48.98 96.79 48.99 97.18 49.45 98.52 50.96 106.92 60.5 108.7 62.51"/><polygon class="cls-2" points="87.53 33.9 40.47 33.9 41.32 32.5 86.68 32.5 87.53 33.9"/><polygon class="cls-8" points="88.34 35.22 39.66 35.22 40.42 33.98 40.47 33.9 87.53 33.9 87.58 33.98 88.34 35.22"/></svg>