<svg id="图层_1" data-name="图层 1" xmlns="http://www.w3.org/2000/svg" viewBox="0 0 128 128"><defs><style>.cls-1{fill:#68c553;}.cls-2{fill:#388e3c;}.cls-3{fill:#fff;}</style></defs><title>midori-112</title><rect class="cls-1" x="8" y="8" width="112" height="112" rx="12" ry="12"/><path class="cls-2" d="M99.62,25.34c.06.44-5.81.82-13.83,4.24C80.23,32,73.13,38,72,39a27.69,27.69,0,0,0-6.71,7.56c-.59,1-2.9,6-1.19,7.82,2.43,2.55,12.16-2.2,17.25-5.11C89,44.88,91.9,41.6,96.2,36.74c1.44-1.64,2.07-3.6,3-3.45,2.06.35,2.17,9.33,2.23,14.19a98,98,0,0,1-1.84,23.46,82.56,82.56,0,0,1-7.9,21.86c-3.16,5.92-5.79,9-9.62,10.08a10.91,10.91,0,0,1-6.45-.27c-6-2.14-7.75-9.45-8-10.6-2.17-8.71,2.79-15.94.92-17C67.46,74.45,65,76.3,64.06,78a22.28,22.28,0,0,0-2.6,10.26c.12,4.06,1,7.44,3.39,9.09,1.22.85,2.36.72,2.63,1.59.44,1.37-1.81,3.59-4,4.64-3.63,1.79-8.43.95-11.72-1.46-3.86-2.82-4.88-7.24-5.4-9.67-2.69-12.55,5.1-23.36,2.9-24.66-1.13-.66-3.71,1.86-3.82,2a17.56,17.56,0,0,0-3.66,6.82c-1.14,2.78-.17,10,.46,13.83a1.7,1.7,0,0,1-2.07,1.93c-2-.5-4.78-1.44-6.45-3.09-8.05-8-4.56-22.75-4.09-24.66,3.5-14,14.75-21.84,20.68-26C59.47,32.26,68,30,74.47,28.26,87.83,24.69,99.54,24.73,99.62,25.34Z"/><path class="cls-3" d="M97.59,23.81c.07.44-5.81.82-13.83,4.24-5.56,2.38-12.66,8.44-13.82,9.41A27.6,27.6,0,0,0,63.22,45c-.59,1-2.9,6-1.19,7.82,2.44,2.55,12.17-2.2,17.26-5.11,7.64-4.38,10.59-7.66,14.88-12.52,1.45-1.64,2.07-3.6,3-3.44,2.06.34,2.18,9.32,2.24,14.18.08,6.73.17,13.77-1.85,23.46a82.19,82.19,0,0,1-7.9,21.86c-3.15,5.92-5.79,9-9.61,10.08a10.94,10.94,0,0,1-6.46-.27c-6-2.14-7.75-9.45-8-10.6-2.16-8.71,2.79-15.94.92-17C65.43,72.92,63,74.77,62,76.43a22.41,22.41,0,0,0-2.6,10.26c.12,4.06,1,7.44,3.39,9.09,1.23.85,2.36.72,2.64,1.59.43,1.37-1.81,3.59-3.95,4.64-3.64,1.79-8.43.95-11.73-1.46-3.86-2.82-4.87-7.24-5.4-9.67-2.69-12.55,5.1-23.36,2.9-24.65-1.13-.67-3.71,1.85-3.82,2A17.44,17.44,0,0,0,39.81,75c-1.15,2.78-.17,10,.46,13.83a1.7,1.7,0,0,1-2.07,1.93c-2-.5-4.79-1.44-6.46-3.09-8-8-4.56-22.75-4.08-24.66,3.5-14,14.74-21.84,20.68-26,9.1-6.34,17.59-8.61,24.1-10.34C85.8,23.16,97.51,23.2,97.59,23.81Z"/></svg>