<svg id="图层_1" data-name="图层 1" xmlns="http://www.w3.org/2000/svg" viewBox="0 0 128 128"><defs><style>.cls-1{fill:#616161;}.cls-2{fill:#e0e0e0;}.cls-3{fill:#212121;}</style></defs><title>neverball-112</title><path class="cls-1" d="M114.17,104.87c0,4.68-22.46,14.63-50.17,14.63s-50.17-10-50.17-14.63S36.29,96.41,64,96.41,114.17,100.2,114.17,104.87Z"/><path class="cls-2" d="M64,8.5A51,51,0,0,0,13.53,52.11a222.6,222.6,0,0,1,50.47-6Z"/><path class="cls-3" d="M65.19,46.08a222.63,222.63,0,0,1,49.19,5.46A51,51,0,0,0,64,8.5V46.08Z"/><path class="cls-3" d="M64,110.49V46.08a222.6,222.6,0,0,0-50.47,6A51,51,0,0,0,64,110.49Z"/><path class="cls-2" d="M64,46.08v64.41a51,51,0,0,0,50.38-58.95,222.63,222.63,0,0,0-49.19-5.46Z"/></svg>