<svg id="图层_1" data-name="图层 1" xmlns="http://www.w3.org/2000/svg" viewBox="0 0 128 128"><defs><style>.cls-1{fill:#f5f5f5;}.cls-2,.cls-3{fill:#afb42b;}.cls-2{opacity:0.25;}.cls-3{opacity:0.37;}.cls-4{fill:#fff;}.cls-10,.cls-11,.cls-5,.cls-8,.cls-9{fill:#cfd8dc;}.cls-5,.cls-7{opacity:0.33;}.cls-6{opacity:0.76;}.cls-9{opacity:0.16;}.cls-10{opacity:0.18;}.cls-11{opacity:0.19;}.cls-12{fill:#700800;}</style></defs><title>nomacs-112</title><rect class="cls-1" x="37.1" y="17.32" width="71.59" height="93.36"/><path class="cls-2" d="M82.71,61.89a4.37,4.37,0,0,1-.62,2.2,0,0,0,0,0,0,0,0,0,0,0,1,0,0,7.55,7.55,0,0,1-1.47,1.76h0L54.94,96.47a4.74,4.74,0,0,1-7.41,0L21.59,65.53a6.6,6.6,0,0,1-.88-1.06l-.08-.11a4.51,4.51,0,0,1-.79-2.47,3.49,3.49,0,0,1,.05-.65c7.47,3.08,18.76,5.05,31.38,5.05s23.91-2,31.39-5.05A3.49,3.49,0,0,1,82.71,61.89Z"/><path class="cls-3" d="M82.66,61.24c-7.48,3.08-18.77,5.05-31.39,5.05s-23.91-2-31.38-5.05c.93-5.7,14.16-10.24,30.51-10.4h1.69c.54,0,1.07,0,1.6,0C69.31,51.29,81.75,55.72,82.66,61.24Z"/><path class="cls-4" d="M51.27,51.31h.82c.52,0,1.06,0,1.59,0A66.41,66.41,0,0,1,73.55,54.6c4.91,1.75,7.94,4,8.58,6.34C74.41,64,63.2,65.81,51.27,65.81S28.13,64,20.41,60.94c.67-2.41,3.95-4.76,9.09-6.52a69.47,69.47,0,0,1,20.92-3.1h.85m0-.48H50.4c-16.35.16-29.58,4.7-30.51,10.4,7.47,3.08,18.76,5.05,31.38,5.05s23.91-2,31.39-5.05c-.91-5.52-13.35-10-29-10.37-.53,0-1.06,0-1.6,0Z"/><path class="cls-5" d="M92.05,52.32a5.54,5.54,0,0,1-.83,2.82h0L89.3,57.37l-1.61,1.87-33,38.45h0a4.28,4.28,0,0,1-.73.69,4.39,4.39,0,0,1-2.48.91h-.36a4.35,4.35,0,0,1-2.43-.86,4.23,4.23,0,0,1-.74-.67l-.06-.07-9.48-11L14.79,59.24l-1.86-2.17-1.4-1.63a5.53,5.53,0,0,1-1-3.12c0-7.59,17.65-13.76,39.64-14h2.2l2.07,0,1,0H56l.74,0,1.45.07.91.06.53,0,.57,0,.66.05,1.6.14,1.11.12,1.09.12,1,.13.14,0,.65.08.12,0,.36.05,1.11.17.24,0,.85.14,1.67.3.12,0,.76.15.63.12a5.59,5.59,0,0,0,.56.12l.35.08.65.15.46.11L75,41l.56.14.14,0,.3.07.25.07.2,0,.4.11.62.18.64.18.52.16.51.16.91.3.61.22.52.19.28.1.06,0,.75.29.37.15.31.13,0,0,.7.3.4.18.27.13.06,0,.59.29c.2.1.39.19.58.3l.25.14.33.18.48.27.15.1a1,1,0,0,1,.17.1l.22.14.57.37.21.15c.31.22.61.45.9.68l.29.24.06.07.23.19.27.27a1.29,1.29,0,0,1,.17.16l.2.2.22.24.2.24.21.26c0,.07.1.13.15.21a1,1,0,0,1,.11.17,2,2,0,0,1,.16.24c0,.08.1.15.14.23l.18.33.15.33c0,.09.07.18.1.26s0,0,0,0a0,0,0,0,0,0,0h0a.06.06,0,0,1,0,0,.42.42,0,0,1,0,.1,1.05,1.05,0,0,1,0,.19,0,0,0,0,1,0,0,2.5,2.5,0,0,1,.07.26.19.19,0,0,0,0,.07h0v.06a.43.43,0,0,1,0,.11l0,.2A1.27,1.27,0,0,1,92,52C92,52.09,92.05,52.2,92.05,52.32Z"/><path class="cls-5" d="M92.05,52.32a5.47,5.47,0,0,1-.83,2.81h0a9.76,9.76,0,0,1-1.92,2.23,23.77,23.77,0,0,1-6.64,3.87c-.91-5.52-13.35-10-29-10.37-.53,0-1.06,0-1.6,0H50.4c-16.35.16-29.58,4.7-30.51,10.4a22.73,22.73,0,0,1-7-4.17,9.06,9.06,0,0,1-1.4-1.63,5.51,5.51,0,0,1-1-3.12c0-7.59,17.65-13.76,39.64-14h2.2l2.07,0C75.46,38.94,92.05,45,92.05,52.32Z"/><g class="cls-6"><path class="cls-1" d="M92,52.15A1,1,0,0,0,92,52a.61.61,0,0,0,0-.14c0-.13,0-.26,0-.39h0l0-.08v0h0s0,0,0,0,0-.11,0-.16a.65.65,0,0,0,0-.13h0v0l0-.15a.14.14,0,0,0,0-.06s0,0,0-.05h0v0a0,0,0,0,1,0,0v0l0-.1a1.11,1.11,0,0,1-.07-.16c0-.06-.05-.11-.07-.16L91.47,50l0,0h0a2.6,2.6,0,0,0-.15-.28.67.67,0,0,0-.07-.11l0-.06c0-.06-.07-.13-.11-.18h0c0-.06-.09-.13-.14-.2l-.11-.15,0-.06-.06-.08-.21-.26-.2-.24L90.1,48l-.1-.1-.1-.1-.07-.08h0l-.14-.14-.07-.07h0l-.08-.08-.16-.15-.14-.12,0,0h0c-.1-.07-.18-.15-.27-.22h0l-.22-.17-.22-.17-.23-.17L88,46.23l-.21-.15-.57-.37L87,45.57l0,0-.07,0-.14-.08-.08-.05-.24-.14-.24-.13L86.06,45l-.3-.17-.08,0-.37-.19L85,44.48l-.59-.29,0,0-.11-.05L84.1,44l-.2-.09-.4-.18-.5-.21h0l-.31-.13c-6.85-2.83-16.9-4.72-28.24-5-.68,0-1.38,0-2.07,0h-2.2c-22,.21-39.64,6.38-39.64,14a5.53,5.53,0,0,0,1,3.12,9.06,9.06,0,0,0,1.4,1.63c5.67,5.38,20.7,9.22,38.35,9.22a109.48,109.48,0,0,0,17.64-1.37c1.22-.2,2.4-.43,3.55-.67l.15,0c7.52-1.58,13.42-4,16.67-6.84h0a9.67,9.67,0,0,0,1.91-2.22h0a5.54,5.54,0,0,0,.83-2.82A.91.91,0,0,0,92,52.15Zm-3.35,4.42c-3,2.64-8.34,4.84-15,6.36l-.27.06c-1.12.25-2.29.49-3.49.7a107,107,0,0,1-18.6,1.57c-16.9,0-32.06-3.61-37.72-9a7.91,7.91,0,0,1-1.25-1.45,4.56,4.56,0,0,1-.85-2.52c0-3.14,4-6.33,10.91-8.77C29.73,41,39.6,39.49,50.16,39.39h2.18c.76,0,1.44,0,2,0,12,.31,21.61,2.31,28,5,.71.29,1.38.6,2,.91a24.44,24.44,0,0,1,2.19,1.23c3,1.85,4.53,3.86,4.53,5.79a4.37,4.37,0,0,1-.64,2.18l-.2.22v.1A8.85,8.85,0,0,1,88.69,56.57Z"/></g><g class="cls-7"><path class="cls-8" d="M93.63,36.51,87.2,44.67l-.64.82L73.64,61.9l-1,1.29c-1.19.25-2.43.48-3.7.69l1-1.23L84.37,44.27l.65-.83,6.77-8.6Z"/></g><path class="cls-9" d="M54.64,97.69v13H47.9V97.76a4.4,4.4,0,0,0,6.74-.07Z"/><path class="cls-10" d="M53.91,98.38v12.3H48.64V98.43a4.35,4.35,0,0,0,2.43.86h.36A4.39,4.39,0,0,0,53.91,98.38Z"/><path class="cls-11" d="M83.74,60.77a55.05,55.05,0,0,1-11.12,3.45l-.15,0a60.4,60.4,0,0,1-4.58,5.53A57.8,57.8,0,0,1,38.36,86.66l9.48,11,.06.07a5,5,0,0,0,.4.4,2.88,2.88,0,0,0,.34.27,4.35,4.35,0,0,0,2.43.86h.36a4.39,4.39,0,0,0,2.48-.91,4.28,4.28,0,0,0,.73-.69h0L87.69,59.24l1.6-1.86A22.51,22.51,0,0,1,83.74,60.77Z"/><path class="cls-12" d="M28.29,8.5v111H117.5V8.5Zm80.4,102.18H37.1V17.32h71.59Z"/></svg>