<svg id="图层_1" data-name="图层 1" xmlns="http://www.w3.org/2000/svg" xmlns:xlink="http://www.w3.org/1999/xlink" viewBox="0 0 96 96"><defs><style>.cls-1{fill:#fff;}.cls-2{fill:url(#未命名的渐变_67);}.cls-3{fill:#e6e6e6;}.cls-4{fill:#3090cc;}.cls-5{fill:#455a64;}.cls-6{fill:#ffb74d;}.cls-7{opacity:0.7;}.cls-8{fill:#ff9800;}</style><linearGradient id="未命名的渐变_67" x1="-18.66" y1="223.71" x2="-69.24" y2="173.14" gradientTransform="translate(32.98 -151.54) rotate(-15)" gradientUnits="userSpaceOnUse"><stop offset="0.54" stop-color="#e6e6e6"/><stop offset="1" stop-color="#ccc"/></linearGradient></defs><title>okular22</title><rect class="cls-1" x="6" y="6" width="84" height="84" rx="9"/><path class="cls-2" d="M36.3,56.57c-8.36-9.63-4.61-26.65,8.27-38.77l-29,7.74L30.22,80,73.37,68.5l-2.9-10.78C57.76,65.08,43.58,65,36.3,56.57Z"/><path class="cls-3" d="M50.06,16.33c-.86,1-1.7,2-2.51,3C36.09,34.2,34,51.74,42.86,58.56c6.47,5,17,2.85,26.65-4.41L58.72,14Z"/><path class="cls-4" d="M42.86,58.56C34,51.74,36.09,34.2,47.55,19.36c.81-1.05,1.65-2.06,2.51-3L44.57,17.8C31.69,29.92,27.94,46.94,36.3,56.57c7.28,8.4,21.46,8.51,34.17,1.15l-1-3.57C59.85,61.41,49.33,63.52,42.86,58.56Z"/><path class="cls-5" d="M24,79.59l8.42-9.14c4.47-4.86,13.35-10.26,19.77-12l7.45-2.07.39,1.41-7.43,2.06c-5,1.38-11.41,5-16,8.77A38.11,38.11,0,0,0,27.13,81a1.69,1.69,0,0,1-1.12.93l-.11,0a1,1,0,0,1-.66,0l-.81-.38A1.21,1.21,0,0,1,24,79.59Z"/><path class="cls-6" d="M81.42,50.31a.75.75,0,0,1,.92.5.73.73,0,0,1-.52.9l-21.76,6-.39-1.41Z"/><path class="cls-5" d="M78.67,64.94,66.8,61.41c-6.31-1.87-16.72-2.08-23.19-.47L36.1,62.81l.37,1.35L44,62.3c5-1.25,12.4-1.36,18.28-.44a39.12,39.12,0,0,1,14.45,5.73,1.76,1.76,0,0,0,1.43.24l.11,0a1,1,0,0,0,.55-.37l.52-.7A1.14,1.14,0,0,0,78.67,64.94Z"/><path class="cls-6" d="M14.2,68.26a.7.7,0,1,0,.35,1.36l21.92-5.46-.37-1.35Z"/><path class="cls-5" d="M46.3,55.76a25.58,25.58,0,0,0-3.89,1.39h0a7.22,7.22,0,0,1,1.16,1.11,25.26,25.26,0,0,1,3.11-1.06,23.62,23.62,0,0,1,4.3-.74A6.43,6.43,0,0,1,51.36,55,25.24,25.24,0,0,0,46.3,55.76Z"/><g class="cls-7"><path class="cls-8" d="M63.17,46.18C57.23,47.77,52.71,51.29,51.35,55A6.43,6.43,0,0,0,51,56.46a5.32,5.32,0,0,0,0,.79,5.45,5.45,0,0,0,.18,1.38l0,.09c1,3.5,5.4,5.55,10.85,5.49.49,0,1,0,1.5-.07a24.32,24.32,0,0,0,4.32-.75c7.94-2.12,13.34-7.7,12.07-12.45S71.12,44.06,63.17,46.18Z"/><path class="cls-8" d="M44.6,60.23A5.48,5.48,0,0,0,44,58.88a5.24,5.24,0,0,0-.44-.61,6.79,6.79,0,0,0-1.15-1.12c-3.06-2.38-8.63-3.11-14.46-1.56C20,57.72,14.59,63.29,15.87,68s8.75,6.88,16.69,4.76a23.73,23.73,0,0,0,3-1c.46-.19.91-.39,1.35-.61,5.43-2.66,8.7-7,7.67-10.8Z"/></g></svg>