<svg id="截图" xmlns="http://www.w3.org/2000/svg" xmlns:xlink="http://www.w3.org/1999/xlink" viewBox="0 0 128 128"><defs><style>.cls-1{fill:url(#未命名的渐变_179);}.cls-2,.cls-3{fill:#007ffc;}.cls-3{opacity:0.2;}.cls-4{fill:none;stroke:#666;stroke-miterlimit:10;stroke-width:6px;}.cls-5{fill:#258c03;}.cls-6{fill:#d14905;}</style><linearGradient id="未命名的渐变_179" x1="64" y1="112.01" x2="64" y2="14.12" gradientUnits="userSpaceOnUse"><stop offset="0.01" stop-color="#dae2e5"/><stop offset="1" stop-color="#e2e5ed"/></linearGradient></defs><title>128</title><g id="_128" data-name="128"><rect class="cls-1" x="12" y="12" width="104" height="104"/><polygon class="cls-2" points="31 8 8 8 8 31 15 31 15 15 31 15 31 8"/><polygon class="cls-2" points="31 120 8 120 8 97 15 97 15 113 31 113 31 120"/><polygon class="cls-2" points="97 8 120 8 120 31 113 31 113 15 97 15 97 8"/><polygon class="cls-2" points="97 120 120 120 120 97 113 97 113 113 97 113 97 120"/><rect class="cls-3" x="32" y="36" width="64" height="56" rx="3"/><path class="cls-4" d="M97,24V81A12,12,0,0,1,85,93H20"/><path class="cls-4" d="M31,104V47A12,12,0,0,1,43,35h65"/><polygon class="cls-5" points="40 80 52 60 58 70 62 64 68 72 76 58 88 80 40 80"/><circle class="cls-6" cx="58" cy="50" r="6"/></g></svg>