<?xml version="1.0" encoding="utf-8"?>
<!-- Generator: Adobe Illustrator 24.0.0, SVG Export Plug-In . SVG Version: 6.00 Build 0)  -->
<svg version="1.1" id="图层_1" xmlns="http://www.w3.org/2000/svg" xmlns:xlink="http://www.w3.org/1999/xlink" x="0px" y="0px"
	 viewBox="0 0 128 128" enable-background="new 0 0 128 128" xml:space="preserve">
<title>out-of-order-112</title>
<path d="M20,8h88c6.6,0,12,5.4,12,12v88c0,6.6-5.4,12-12,12H20c-6.6,0-12-5.4-12-12V20C8,13.4,13.4,8,20,8z"/>
<path fill="#18FFFF" d="M39.6,32.6c4.3,0,8.4,1.3,11.8,3.8c8.4,6.2,8.1,16.9,8,17.9C51,57.2,41.8,52.6,39,44.2
	C37.8,40.4,38,36.2,39.6,32.6z"/>
<path fill="#18FFFF" d="M69.1,51.3c2.6-0.8,5.3-0.8,7.9,0c6.3,2.2,8.2,8.7,8.4,9.3c-4.6,3.4-11,2.4-14.4-2.2
	C69.6,56.4,68.9,53.9,69.1,51.3z"/>
<path fill="#18FFFF" d="M74.3,71.5c6-0.9,8.7,1.1,9.5,1.9c1.5,1.3,2.1,3.4,3.4,7.6c1.4,4.4,1.2,5.8,2.7,8c1.2,1.7,2.7,3.2,4.6,4.2
	c-0.7,0.5-4.1,2.8-8,1.9c-4.9-1.1-6.9-6.2-7.3-7.2c-1.2-3-0.3-4.3-1.1-8C77.5,76.9,76.2,74.1,74.3,71.5z"/>
<path fill="#18FFFF" d="M42.4,67.7h10.3c5,0,9,4,9,9l0,0c0,5-4,9-9,9H42.4c-5,0-9-4-9-9l0,0C33.5,71.7,37.5,67.7,42.4,67.7z"/>
</svg>
