<svg id="图层_1" data-name="图层 1" xmlns="http://www.w3.org/2000/svg" viewBox="0 0 128 128"><defs><style>.cls-1{fill:#18ffff;}</style></defs><title>out-of-order-112</title><rect x="8" y="8" width="112" height="112" rx="12" ry="12"/><path class="cls-1" d="M39.56,32.59A20,20,0,0,1,51.4,36.41c8.4,6.24,8.07,16.94,8,17.94A16.11,16.11,0,0,1,39.56,32.59Z"/><path class="cls-1" d="M69.14,51.33a12.78,12.78,0,0,1,7.92,0c6.32,2.15,8.21,8.71,8.38,9.32a10.27,10.27,0,0,1-16.3-9.32Z"/><path class="cls-1" d="M74.31,71.53c6-.94,8.68,1.11,9.54,1.91,1.46,1.35,2.12,3.45,3.44,7.64,1.38,4.38,1.22,5.78,2.67,8a13,13,0,0,0,4.58,4.2c-.73.53-4.06,2.82-8,1.91C81.64,94.08,79.66,89,79.27,88c-1.15-3-.34-4.28-1.14-8A22.31,22.31,0,0,0,74.31,71.53Z"/><rect class="cls-1" x="33.46" y="67.71" width="28.25" height="17.94" rx="8.97" ry="8.97"/></svg>