<svg id="图层_1" data-name="图层 1" xmlns="http://www.w3.org/2000/svg" viewBox="0 0 128 128"><defs><style>.cls-1{fill:#212121;}.cls-2{fill:#e0e0e0;}.cls-3{fill:#bf360c;}.cls-4{fill:#9e9e9e;}.cls-5{fill:#616161;}</style></defs><title>parole-112</title><rect class="cls-1" x="8" y="8" width="112" height="112" rx="12.22" ry="12.22"/><path class="cls-2" d="M120,88.18v19.6A12.26,12.26,0,0,1,107.78,120H20.22A12.26,12.26,0,0,1,8,107.78V88.18Z"/><path class="cls-2" d="M64,22.51A27.49,27.49,0,1,0,91.49,50,27.49,27.49,0,0,0,64,22.51Zm0,53.2A25.71,25.71,0,1,1,89.71,50,25.71,25.71,0,0,1,64,75.71Z"/><polygon class="cls-2" points="78.82 50 55.7 36.65 55.7 63.35 78.82 50"/><rect class="cls-3" x="17.99" y="100.27" width="37.71" height="7.64"/><rect class="cls-4" x="55.7" y="100.27" width="12.96" height="7.64"/><rect class="cls-5" x="68.67" y="100.27" width="41.34" height="7.64"/></svg>