<svg id="图层_1" data-name="图层 1" xmlns="http://www.w3.org/2000/svg" viewBox="0 0 128 128"><defs><style>.cls-1{fill:#2196f3;}.cls-2{fill:#9c27b0;}.cls-3{fill:#ff9800;}.cls-4{fill:#4caf50;}.cls-5{fill:#4dd0e1;}.cls-6{fill:#ff5252;}</style></defs><title>pdfshuffler128</title><rect class="cls-1" x="14.05" y="21.72" width="33.8" height="51.77"/><rect class="cls-2" x="21.55" y="21.47" width="36.85" height="51.77"/><polygon class="cls-3" points="46.82 83.47 5 67 34.45 21.11 73.47 35 46.82 83.47"/><polygon class="cls-4" points="52.3 85.91 9.67 69.77 39.23 22.1 77.88 36.88 52.3 85.91"/><polygon class="cls-5" points="57.81 25.49 20.21 58.95 85.4 106.89 123 56.88 57.81 25.49"/><path class="cls-6" d="M32.24,54.78a11.07,11.07,0,0,1,1.57-1.28A3.48,3.48,0,0,1,35.07,53a3,3,0,0,1,1.52.1,3,3,0,0,1,1.28.84,3.31,3.31,0,0,1,.91,1.85,3.11,3.11,0,0,1-.44,2,4.63,4.63,0,0,1-.56.74,12.66,12.66,0,0,1-.9.92l-2.5,2.33,3.22,3.47-1.32,1.23-7.7-8.27Zm3.24,4a8.33,8.33,0,0,0,1.43-1.7,1.77,1.77,0,0,0-2-2.34,5.56,5.56,0,0,0-1.68,1.11L30.88,58l2.52,2.71Z"/><path class="cls-6" d="M40.49,47.09a14.85,14.85,0,0,1,1.86-1.51A4.23,4.23,0,0,1,43.87,45l.06,0H44a4.8,4.8,0,0,1,2.54.27,7,7,0,0,1,4,4.94A4.6,4.6,0,0,1,50,53.39a7.82,7.82,0,0,1-.65.83c-.28.32-.62.66-1,1L45,58.35l-7.7-8.27Zm4.84,9,1.91-1.77a8.34,8.34,0,0,0,1.08-1.18,3.61,3.61,0,0,0,.53-1,3.07,3.07,0,0,0-.07-2,5.84,5.84,0,0,0-1.31-2,5.2,5.2,0,0,0-1.77-1.29,3.13,3.13,0,0,0-1.85-.19,3.36,3.36,0,0,0-1.08.45,9.82,9.82,0,0,0-1.32,1.07l-1.87,1.74Z"/><path class="cls-6" d="M53.23,35.24l1,1L49,41.13l2.29,2.46,4.56-4.24,1,1-4.56,4.24,3.46,3.72-1.32,1.24-7.7-8.27Z"/></svg>