<?xml version="1.0" encoding="utf-8"?>
<!-- Generator: Adobe Illustrator 24.0.0, SVG Export Plug-In . SVG Version: 6.00 Build 0)  -->
<svg version="1.1" id="图层_1" xmlns="http://www.w3.org/2000/svg" xmlns:xlink="http://www.w3.org/1999/xlink" x="0px" y="0px"
	 viewBox="0 0 128 128" enable-background="new 0 0 128 128" xml:space="preserve">
<title>pinta128</title>
<path fill="#C1C7C9" d="M50.4,67.7c-15.3,25.4-24.5,45.8-21.4,48S46.7,101,63.2,76.6c-1.3-0.8-2.7-1.7-4.1-2.7
	C56,71.8,53,69.7,50.4,67.7z"/>
<path fill="#FF9800" d="M99.5,5.2C95.9,2.7,77.1,25.5,57.7,56c-1.5,2.3-2.9,4.6-4.3,6.9c-1,1.6-2,3.3-3,4.9c2.6,2,5.5,4.1,8.7,6.2
	c1.4,0.9,2.8,1.8,4.1,2.7c1.1-1.7,2.3-3.4,3.4-5.1c1.4-2.2,2.8-4.3,4.3-6.6C90.4,34.3,103.2,7.6,99.5,5.2z"/>
<path fill="#263238" d="M34.1,119c1.7-3.2,0.5-7.2-2.7-9c-0.1,0-0.1-0.1-0.2-0.1c-3.4-1.5-6.6-0.2-9,2.4L12,123l20.2-0.4L34.1,119z"
	/>
<path fill="#CFD8DC" d="M116,123l-4.8-54.8c-7.5-1-15.1-1.5-22.7-1.4c-7.4-0.1-14.8,0.4-22.2,1.4L61.7,123H116z"/>
<path fill="#A2B5BC" d="M88.9,88.1c-12.9,0-23.4,12.6-23.4,28.1h46.8C112.3,100.7,101.8,88.1,88.9,88.1z"/>
<path fill="#2196F3" d="M98,37.1H79.5c-3.8,0-7-2-7-4.5l-0.9-13c0-2.5,3.1-4.5,7-4.5h20.6c3.8,0,6.9,2,6.9,4.5l-1.1,13
	C105,35.1,101.9,37.1,98,37.1z"/>
<path fill="#E6E6E6" d="M81.2,18.6L81.2,18.6L81.2,18.6v9.1l0,0h-5.4l0,0V24C75.8,21,78.3,18.6,81.2,18.6z"/>
<rect x="83.1" y="18.6" fill="#9DD1F4" width="4.5" height="9.1"/>
<rect x="89.9" y="18.6" opacity="0.9" fill="#3FADEA" enable-background="new    " width="4.5" height="9.1"/>
<rect x="96.7" y="18.6" opacity="0.9" fill="#35A4EF" enable-background="new    " width="4.5" height="9.1"/>
<path fill="#CFD8DC" d="M73.2,47.5h30.7c3,0,5.7,1.8,6.9,4.6l-0.2-5.9c0.1-8-6.3-14.6-14.3-14.7H81.4c-8,0.1-14.4,6.7-14.3,14.7
	L67,50.8C68.4,48.7,70.7,47.5,73.2,47.5z"/>
<path fill="#2196F3" d="M111.3,68.3l-0.5-16.2c-1.2-2.8-3.9-4.6-6.9-4.6H73.2c-2.5,0-4.8,1.2-6.2,3.3l-0.6,17.4
	c7.3-1,14.8-1.4,22.2-1.4C96.2,66.7,103.8,67.2,111.3,68.3z"/>
<rect x="61.7" y="112.9" fill="#7C929B" width="54.3" height="10.1"/>
</svg>
