<?xml version="1.0" encoding="utf-8"?>
<!-- Generator: Adobe Illustrator 24.0.0, SVG Export Plug-In . SVG Version: 6.00 Build 0)  -->
<svg version="1.1" id="图层_2" opacity="0.8" xmlns="http://www.w3.org/2000/svg" xmlns:xlink="http://www.w3.org/1999/xlink"
	 x="0px" y="0px" viewBox="0 0 16 16" style="enable-background:new 0 0 16 16;" xml:space="preserve">
<style type="text/css">
	.st0{fill:#1F2022;}
	.st1{fill:none;stroke:#1F2022;stroke-linecap:round;stroke-miterlimit:10;}
</style>
<g>
	<path class="st0" d="M14,3c0.6,0,1,0.4,1,1v9c0,0.6-0.4,1-1,1H2c-0.6,0-1-0.4-1-1V4c0-0.6,0.4-1,1-1H14 M14,2H2C0.9,2,0,2.9,0,4v9
		c0,1.1,0.9,2,2,2h12c1.1,0,2-0.9,2-2V4C16,2.9,15.1,2,14,2L14,2z"/>
</g>
<path class="st1" d="M14.3,9.4c-0.3,0.4-0.8,0.5-1.1,0.2c-0.1-0.1-0.2-0.2-0.3-0.3L12,7.7c-0.2-0.4-0.7-0.6-1.1-0.3
	c-0.1,0.1-0.3,0.2-0.3,0.3L10,8.8C9.8,9.2,9.3,9.4,8.9,9.2C8.7,9.1,8.5,8.9,8.5,8.6L7.8,6.1c-0.1-0.4-0.6-0.7-1-0.6c0,0,0,0,0,0
	C6.5,5.6,6.2,5.8,6.2,6.1L5.4,9.4c-0.1,0.4-0.5,0.7-1,0.6C4.2,10,4,9.8,3.9,9.6L3.6,9C3.4,8.6,2.9,8.4,2.5,8.6c0,0,0,0,0,0H2.4"/>
</svg>
