<?xml version="1.0" encoding="utf-8"?>
<!-- Generator: Adobe Illustrator 24.0.0, SVG Export Plug-In . SVG Version: 6.00 Build 0)  -->
<svg version="1.1" id="键盘" xmlns="http://www.w3.org/2000/svg" xmlns:xlink="http://www.w3.org/1999/xlink" x="0px" y="0px"
	 viewBox="0 0 128 128" enable-background="new 0 0 128 128" xml:space="preserve">
<title>128</title>
<g id="_128">
	<path fill="none" stroke="#677A89" stroke-width="6" stroke-miterlimit="10" d="M44,20h8.8C59,20,64,25,64,31.2V52"/>
	<path fill="none" stroke="#677A89" stroke-width="6" stroke-miterlimit="10" d="M49.6,20h-8.4C35,20,30,14.2,30,8"/>
	<path fill="#DBDEE5" d="M18,40h92c5.5,0,10,4.5,10,10v60c0,5.5-4.5,10-10,10H18c-5.5,0-10-4.5-10-10V50C8,44.5,12.5,40,18,40z"/>
	<rect x="37" y="93" fill="#CC533E" width="52" height="12"/>
	<rect x="17" y="93" fill="#677A89" width="12" height="12"/>
	<rect x="97" y="93" fill="#677A89" width="12" height="12"/>
	<rect x="17" y="53" fill="#677A89" width="12" height="12"/>
	<rect x="37" y="53" fill="#677A89" width="12" height="12"/>
	<rect x="57" y="53" fill="#677A89" width="12" height="12"/>
	<rect x="77" y="53" fill="#677A89" width="12" height="12"/>
	<rect x="17" y="73" fill="#677A89" width="12" height="12"/>
	<rect x="37" y="73" fill="#677A89" width="12" height="12"/>
	<rect x="57" y="73" fill="#677A89" width="12" height="12"/>
	<rect x="77" y="73" fill="#677A89" width="32" height="12"/>
	<rect x="97" y="53" fill="#677A89" width="12" height="12"/>
</g>
</svg>
