<?xml version="1.0" encoding="utf-8"?>
<!-- Generator: Adobe Illustrator 24.0.0, SVG Export Plug-In . SVG Version: 6.00 Build 0)  -->
<svg version="1.1"
	 id="svg7384" xmlns:cc="http://creativecommons.org/ns#" xmlns:dc="http://purl.org/dc/elements/1.1/" xmlns:osb="http://www.openswatchbook.org/uri/2009/osb" xmlns:rdf="http://www.w3.org/1999/02/22-rdf-syntax-ns#" xmlns:svg="http://www.w3.org/2000/svg" opacity="0.8"
	 xmlns="http://www.w3.org/2000/svg" xmlns:xlink="http://www.w3.org/1999/xlink" x="0px" y="0px" viewBox="0 0 16 16"
	 style="enable-background:new 0 0 16 16;" xml:space="preserve">
<style type="text/css">
	.st0{fill:#1F2022;}
	.st1{fill-rule:evenodd;clip-rule:evenodd;fill:#1F2022;}
	.st2{fill-rule:evenodd;clip-rule:evenodd;fill:none;stroke:#1F2022;stroke-linecap:round;stroke-miterlimit:10;}
</style>
<g id="g1833" transform="translate(-612.00004,-160)">
	<g id="circle4880">
		<path class="st0" d="M620.5,161c3.6,0,6.5,2.9,6.5,6.5s-2.9,6.5-6.5,6.5s-6.5-2.9-6.5-6.5S616.9,161,620.5,161 M620.5,160
			c-4.1,0-7.5,3.4-7.5,7.5s3.4,7.5,7.5,7.5s7.5-3.4,7.5-7.5S624.6,160,620.5,160L620.5,160z"/>
	</g>
	<path id="path4882" class="st1" d="M613.5,167v1h14v-1H613.5z"/>
	<path id="path4884_1_" class="st2" d="M620.5,174.5c2.2-2.2,3-4.5,3-7c0-2.5-0.8-4.8-3-7"/>
	<path id="path4886_1_" class="st2" d="M620.5,160.5c-2.2,2.2-3,4.6-3,7c0,2.5,0.8,4.7,3,7"/>
</g>
</svg>
