<?xml version="1.0" encoding="utf-8"?>
<!-- Generator: Adobe Illustrator 24.0.0, SVG Export Plug-In . SVG Version: 6.00 Build 0)  -->
<svg version="1.1" id="图层_2_1_" opacity="0.8" xmlns="http://www.w3.org/2000/svg" xmlns:xlink="http://www.w3.org/1999/xlink"
	 x="0px" y="0px" viewBox="0 0 16 16" style="enable-background:new 0 0 16 16;" xml:space="preserve">
<style type="text/css">
	.st0{fill:#1F2022;}
	.st1{fill:none;stroke:#1F2022;stroke-miterlimit:10;}
</style>
<g>
	<path class="st0" d="M11,14.4c-0.7,0.1-1.3-0.4-1.3-1.1c0-0.1,0-0.2,0-0.3H6.3c0.1,0.7-0.4,1.3-1.1,1.4c-0.1,0-0.2,0-0.3,0l0,0
		c-0.5,0-0.5,0.6,0,0.6H11c0.2,0,0.4-0.1,0.4-0.3s-0.1-0.4-0.3-0.4C11.1,14.3,11,14.3,11,14.4z"/>
	<g>
		<path class="st0" d="M14,2c0.6,0,1,0.4,1,1v7c0,0.6-0.4,1-1,1H2c-0.6,0-1-0.4-1-1V3c0-0.6,0.4-1,1-1H14 M14,1H2C0.9,1,0,1.9,0,3v7
			c0,1.1,0.9,2,2,2h12c1.1,0,2-0.9,2-2V3C16,1.9,15.1,1,14,1L14,1z"/>
	</g>
</g>
<path class="st1" d="M15.5,7.5h-4c-1.1,0-2-0.9-2-2v-4"/>
<path class="st0" d="M9,1h5c1.1,0,2,0.9,2,2l0,5L9,1z"/>
</svg>
