<svg id="图层_1" data-name="图层 1" xmlns="http://www.w3.org/2000/svg" viewBox="0 0 128 128"><defs><style>.cls-1{fill:#263238;}.cls-2{fill:#d32f2f;}.cls-3{fill:#7d7c00;}.cls-4{fill:#14b900;}.cls-5{fill:#adb482;}.cls-6{fill:#061076;}.cls-7{fill:#06085c;}.cls-8{fill:#2c2d0b;}.cls-9{fill:#9d9d53;}.cls-10{fill:#717149;}.cls-11{fill:#d1d170;}.cls-12{fill:#b7b75f;}.cls-13{fill:#71713a;}.cls-14{fill:#7f7f41;}</style></defs><title>pyragua-112</title><path class="cls-1" d="M120.5,36.41v0a.59.59,0,0,1-.06.2.43.43,0,0,1-.24.22h0l-.19,0h0l-.35,0a36,36,0,0,0-4-.4,11.05,11.05,0,0,0-2.89.38c-4.92,1.31-5.43,5.07-10.63,8.79a27.86,27.86,0,0,1-12.69,4.67,27.34,27.34,0,0,1-3.83.23h-.24a33.26,33.26,0,0,0,.58,5c.85,4.62,1.39,7.55,3.54,10.33C92.14,69.3,94,68.32,97,72c1.22,1.48,4.26,5.17,3.4,9.44a8.92,8.92,0,0,1-1.53,3.41c-.26,1.16-1,3-4,6.61-2.38,2.81-5.87,6.29-13,11.08a85.5,85.5,0,0,1-12.55,7.34c-5.48,2.57-9.07,3.46-16.24,5.24a16.49,16.49,0,0,1-9.3,0c-1.25-.41-3.15-1.06-3.68-2.69a2.67,2.67,0,0,1-.14-1c-1.21,1.24-2.25,2.5-3.17,3.6-2.7,3.26-3.6,5.15-4.87,4.94-1.7-.27-2.33-4-2.36-4.19a10.14,10.14,0,0,1,1.18-6.14c.06-.11.12-.22.17-.33a8,8,0,0,0,2.93,1.46,17,17,0,0,0,9.55,0c7.37-1.81,11-2.72,16.69-5.35A88.18,88.18,0,0,0,73,98c7.32-4.9,10.91-8.45,13.35-11.31,3.12-3.64,3.89-5.57,4.16-6.75a9,9,0,0,0,1.57-3.49c.89-4.35-2.24-8.12-3.49-9.63-3.16-3.8-5-2.8-7.74-6.26C78.6,57.67,78.05,54.67,77.18,50a35.15,35.15,0,0,1-.6-5.06,29.32,29.32,0,0,0,4.18-.23,28.85,28.85,0,0,0,13-4.77c4.44-3.15,5.55-6.33,8.7-8.09a2.35,2.35,0,0,1,.22.45,4.07,4.07,0,0,1,.09,2.08v0a1,1,0,0,0,0,.17v.12a.65.65,0,0,0,0,.13l0,.07,0,.05L103,35s0,0,0,0a.34.34,0,0,0,.22.07c1.14,0,3.41-3.49,6.83-4.34,1.23.17,2.08.36,2.43.06a.53.53,0,0,0,.11-.14v0a9.74,9.74,0,0,1,2.51.73h0a12.88,12.88,0,0,1,3.4,2.2,10.5,10.5,0,0,1,.82.81l0,0a7.64,7.64,0,0,1,.6.76l0,0a4.17,4.17,0,0,1,.37.67v0A1.19,1.19,0,0,1,120.5,36.41Z"/><path class="cls-1" d="M74.79,83.89a67.38,67.38,0,0,1-9.55,6.57c-5,2.92-7.54,4.39-9.25,5A55.23,55.23,0,0,1,46.43,98c-1.81.35-3.19.57-4.48.82,0,0,0,0,0,0,1.09-1.09,3.4-3.42,3.13-5.28a44.66,44.66,0,0,0,10.43-4.38c2.51-1.42,5.62-3.6,11.83-8a18,18,0,0,1,5.16-3.66c1.91-.9,3-1,4-.61a4,4,0,0,1,.84.47,2.83,2.83,0,0,1,1.08,1.33,1.21,1.21,0,0,0,0,.18C78.74,80.23,77.45,81.69,74.79,83.89Z"/><path class="cls-1" d="M95.92,28.58l0,0a3,3,0,0,1-.35.23l-.1.06-.11.05-.1,0-.18.05h0a.46.46,0,0,1-.29-.06l-.07,0-.06-.08,0,0h0s0-.05,0-.07,0,0,0-.08a1.5,1.5,0,0,1,0-.3c0-.05,0-.1,0-.15s0-.22,0-.35c.15.1.31.2.49.3S95.63,28.44,95.92,28.58Z"/><path class="cls-1" d="M90.91,23.69l-1.29-.43L89,23.05A17.29,17.29,0,0,1,86.52,22l-.36-.22a10.47,10.47,0,0,1-1-.7,8,8,0,0,1-.85-.78,9.19,9.19,0,0,1-.66-.76,1,1,0,0,1-.12-.16l-.12-.15-.26-.38-.07-.1-.21-.33c-.33-.5-.63-1-1-1.55-.1-.15-.19-.3-.3-.45l-.07-.12a18.08,18.08,0,0,1,7.92,5.28A19.49,19.49,0,0,1,90.91,23.69Z"/><path class="cls-1" d="M35.75,50.35a13.76,13.76,0,0,1-1.5,5.73,13.18,13.18,0,0,1-2,2.81,7.47,7.47,0,0,1-2.09-1.12c-1.48-1.17-1.37-2.21-1.9-3.88a13.58,13.58,0,0,0,6.45-2.48,6.77,6.77,0,0,0,.76-.68,3.31,3.31,0,0,0,.31-.36Z"/><path class="cls-2" d="M42,98.74s0,0,0,0c-.54.1-1.07.21-1.6.34l-.29.06-1.21.33-.88.27-.25.08-.7.24c-2.73,1-4.38,1.89-5.61,3.51a6.5,6.5,0,0,0-1.5,3.38c-1.25,1.27-2.32,2.55-3.25,3.68-2.78,3.33-3.7,5.26-5,5-1.76-.28-2.4-4.1-2.43-4.27a10.2,10.2,0,0,1,1.22-6.27c1.45-2.9,2.83-3.31,8.19-8.25l1.09-1,.93-.89a46,46,0,0,0,6.07-.1,41.28,41.28,0,0,0,8.38-1.43C45.37,95.32,43.06,97.65,42,98.74Z"/><path class="cls-3" d="M92.05,76.4a9,9,0,0,1-1.57,3.49c0-.16.07-.3.09-.43a12.11,12.11,0,0,0-4.25-11.31c-5.15-4.06-11.88-1.56-13.19-1.07-3.81,1.41-3.81,2.65-10.7,7.84A60.72,60.72,0,0,1,52,81.17a33.91,33.91,0,0,1-11.53,3.49,20.3,20.3,0,0,1-10.46-1.54,72.87,72.87,0,0,1-6.73-3.39c-1.86-1.06-3-1.8-3-1.8-1.94-1.29-4.29-2.8-6.26-2.45A2.33,2.33,0,0,0,12.4,77.1a12.85,12.85,0,0,1,3.09-7.43A26.78,26.78,0,0,1,23.33,64c3.8-2,4.69-1.57,7.13-3.51a16.45,16.45,0,0,0,1.74-1.62,13.18,13.18,0,0,0,2-2.81,13.76,13.76,0,0,0,1.5-5.73c0-.23,0-.41,0-.54a12.53,12.53,0,0,1,1-4.06h0c.2-.49.43-1,.69-1.51a27,27,0,0,1,2.1-3.52h0l.17-.25a31,31,0,0,1,2-2.47,31.51,31.51,0,0,1,2.75-2.8,27.42,27.42,0,0,1,4.83-3.5,21.75,21.75,0,0,1,3.36-1.55l1.11-.36a17.51,17.51,0,0,1,3.46-.68c.48-.05,1-.07,1.45-.08H59a17.19,17.19,0,0,1,1.74.09h0a22.25,22.25,0,0,1,9,3h0l.24.15h0a18.62,18.62,0,0,1,1.61,1.14l.07.06c.13.09.24.19.36.28l.26.23h0q.57.49,1.08,1a13,13,0,0,1,1.56,2,10.92,10.92,0,0,1,1.14,2.23l.06.17A9,9,0,0,1,76.57,43c0,.56,0,1.18,0,1.93a35.15,35.15,0,0,0,.6,5.06c.87,4.71,1.42,7.71,3.64,10.55C83.53,64,85.4,63,88.56,66.77,89.81,68.28,92.94,72.05,92.05,76.4Z"/><path class="cls-4" d="M90.57,79.46c0,.13,0,.27-.09.43-.27,1.18-1,3.11-4.16,6.75C83.88,89.5,80.29,93.05,73,98a88.18,88.18,0,0,1-12.89,7.48c-5.64,2.63-9.32,3.54-16.69,5.35a17,17,0,0,1-9.55,0,8,8,0,0,1-2.93-1.46,3,3,0,0,1-.86-1.29,2.75,2.75,0,0,1-.14-1,6.5,6.5,0,0,1,1.5-3.38c1.23-1.62,2.88-2.55,5.61-3.51l.7-.24.25-.08.88-.27,1.21-.33.29-.06c.53-.13,1.06-.24,1.6-.34,1.29-.25,2.67-.47,4.48-.82A55.23,55.23,0,0,0,56,95.5c1.71-.65,4.23-2.12,9.25-5a67.38,67.38,0,0,0,9.55-6.57c2.66-2.2,3.95-3.66,3.65-5a1.21,1.21,0,0,1,0-.18,2.83,2.83,0,0,0-1.08-1.33,4,4,0,0,0-.84-.47c-.94-.36-2-.29-4,.61a18,18,0,0,0-5.16,3.66c-6.21,4.35-9.32,6.53-11.83,8A44.66,44.66,0,0,1,45.1,93.46a41.28,41.28,0,0,1-8.38,1.43,46,46,0,0,1-6.07.1,23.52,23.52,0,0,1-2.43-.28,20.94,20.94,0,0,1-6.67-2.27,20.72,20.72,0,0,1-8.19-7.94C12,82.2,11.68,80.67,12,78.78a7.26,7.26,0,0,1,.42-1.68h0a2.33,2.33,0,0,1,1.68-1.62c2-.35,4.32,1.16,6.26,2.45,0,0,1.12.74,3,1.8a72.87,72.87,0,0,0,6.73,3.39,20.3,20.3,0,0,0,10.46,1.54A33.91,33.91,0,0,0,52,81.17a60.72,60.72,0,0,0,10.39-6.25c6.89-5.19,6.89-6.43,10.7-7.84,1.31-.49,8-3,13.19,1.07A12.11,12.11,0,0,1,90.57,79.46Z"/><path class="cls-5" d="M68.54,54.61q0,.35,0,.69A7.7,7.7,0,1,1,59,47.07a7.82,7.82,0,0,1,1.82-.22A7.73,7.73,0,0,1,68.54,54.61Z"/><path class="cls-6" d="M68.54,54.61q0,.35,0,.69a6.3,6.3,0,0,1-11.1-.86,6.76,6.76,0,0,0,11.08-.7A8.46,8.46,0,0,1,68.54,54.61Z"/><path class="cls-7" d="M68.49,53.74a6.76,6.76,0,0,1-11.08.7,6.31,6.31,0,0,1-.54-2.58A6.38,6.38,0,0,1,59,47.07a7.82,7.82,0,0,1,1.82-.22A7.72,7.72,0,0,1,68.49,53.74Z"/><path class="cls-5" d="M52,54.61c0,.17,0,.35,0,.51A5.77,5.77,0,1,1,44.92,49a6,6,0,0,1,1.36-.16A5.79,5.79,0,0,1,52,54.61Z"/><path class="cls-6" d="M52,54.61c0,.17,0,.35,0,.51a4.71,4.71,0,0,1-8.31-.63A5.06,5.06,0,0,0,52,54,4.63,4.63,0,0,1,52,54.61Z"/><path class="cls-7" d="M52,54a5.06,5.06,0,0,1-8.29.53A4.79,4.79,0,0,1,44.92,49a6,6,0,0,1,1.36-.16A5.77,5.77,0,0,1,52,54Z"/><ellipse class="cls-8" cx="35.96" cy="78.78" rx="2.58" ry="2.6"/><ellipse class="cls-8" cx="24.28" cy="77.1" rx="1.82" ry="1.84"/><path class="cls-9" d="M44.26,13.45h0l-.28.2-.27.21c-.53.4-1,.81-1.45,1.19h0c-.57.51-1.07,1-1.49,1.41l-.14.14c-.28.28-.52.54-.72.76l-.11.11-.09.1c-.2.21-.5.54-.86,1l-.38.45-.24.29-.5.62-.06.08-.21.27a1.47,1.47,0,0,1-.1.13l-.21.29c-.1.12-.19.24-.28.37l0,0-.34.47-.32.47a27.81,27.81,0,0,0-1.73,2.84l-.15.27-.14.28c-.19.37-.37.75-.54,1.13l-.12.29-.12.29c-.07.18-.13.36-.2.53l-.12.34-.18.59-.06.2h0l0,.1c0,.09,0,.19-.07.28s0,.2-.07.29,0,.15,0,.22-.05.27-.08.41l0,.25a2.72,2.72,0,0,0,0,.3l0,.25a.13.13,0,0,0,0,.06s0,.07,0,.11v.07s0,0,0,.06v.09s0,0,0,.06v.17h0a1,1,0,0,0,0,.17v.27h0c0,.07,0,.14,0,.21a.92.92,0,0,0,0,.16v0a.31.31,0,0,0,0,.1.57.57,0,0,0,0,.13.22.22,0,0,0,0,.08,1.64,1.64,0,0,0,0,.22c0,.14,0,.28.07.41a6.42,6.42,0,0,0,.15.63h0c0,.12.06.23.1.35l.1.27c0,.1.08.2.13.3a2,2,0,0,0,.1.21l0,.09a.2.2,0,0,1,0,.08h0a.33.33,0,0,0,0,.06q.09.16.18.3l.09.14a4.09,4.09,0,0,0,.38.52l.2.24c1.38,1.5,3.28,2,5.22,3.92h0l.15.14.08.08.08.08a12.44,12.44,0,0,1,1.47,1.86l0,0h0l.12.18.12.2a12.31,12.31,0,0,1,1.5,3.44,7.53,7.53,0,0,0-5.13,1.31,4.47,4.47,0,0,0-.85.81l-.16.21a4.64,4.64,0,0,0-.25.42l-.11.21-.16.31c-.07.14-.16.28-.26.44l-.15.21,0,0a3.31,3.31,0,0,1-.31.36,6.77,6.77,0,0,1-.76.68,13.58,13.58,0,0,1-6.45,2.48c-3.15.41-6.4-.11-8.42-1.69a4.75,4.75,0,0,1-.46-.41,3.33,3.33,0,0,1-.36-.4l-.06-.08a3.5,3.5,0,0,1-.29-.49l0-.08c-.06-.14-.12-.28-.17-.43-.15-.43-.25-.9-.39-1.43a2,2,0,0,0-.09-.33l-.06-.23a.36.36,0,0,1,0-.11c0-.08,0-.16-.08-.24a11.07,11.07,0,0,0-1.3-2.58c-3.06-4.65-6.45-4.14-8.19-7.34a6.38,6.38,0,0,1-.75-2.77v0c0-.2,0-.41,0-.61a.09.09,0,0,1,0,0h0c0-.11,0-.21,0-.31a.2.2,0,0,0,0-.07l0-.29v-.06h0c0-.2,0-.41.09-.61L7.72,33a1.94,1.94,0,0,0,0-.2l.05-.18s0-.05,0-.07,0-.17.07-.26L8,32c.1-.33.22-.65.34-1,0-.13.11-.26.16-.38l.07-.17c.06-.15.13-.3.2-.45s.17-.36.26-.53l.18-.36.24-.43A28.55,28.55,0,0,1,11,26.24c.11-.15.22-.31.33-.45s.21-.3.32-.44c.33-.43.65-.84,1-1.21,1.08-1.31,2-2.25,2.35-2.6a28.57,28.57,0,0,1,7-5.32c.33-.18.66-.35,1-.52.69-.34,1.43-.66,2.21-1s1.62-.58,2.5-.83A35.63,35.63,0,0,1,44.26,13.45Z"/><path class="cls-10" d="M44.26,13.45h0l-.28.2-.27.21c-.53.4-1,.81-1.45,1.19h0a35.48,35.48,0,0,0-14.58.82A28.36,28.36,0,0,0,14.93,23.5c-.84.85-5,5.19-6.73,9.82a5,5,0,0,1-.29-1.07c1.41-4.95,6.12-9.81,7-10.71a28.36,28.36,0,0,1,12.75-7.63A35.63,35.63,0,0,1,44.26,13.45Z"/><path class="cls-11" d="M41.06,42.58A6.39,6.39,0,0,0,38,43.82a4.26,4.26,0,0,0-.49.42,5.14,5.14,0,0,0-1.07,1.6,7.57,7.57,0,0,1-5.86-.92,2.39,2.39,0,0,1-.45-.45,7.24,7.24,0,0,0,2.34-1.17c1.24-.95.78-1.43,1.86-2.25,1.37-1,2.93-.88,5-.64h0l.15.14.08.08.08.08A12.44,12.44,0,0,1,41.06,42.58Z"/><path class="cls-10" d="M42.82,46.43a7.53,7.53,0,0,0-5.13,1.31,4.47,4.47,0,0,0-.85.81l-.16.21a4.64,4.64,0,0,0-.25.42l-.11.21-.16.31-.26.44-.15.21,0,0a3.31,3.31,0,0,1-.31.36,6.77,6.77,0,0,1-.76.68,13.58,13.58,0,0,1-6.45,2.48c-3.15.41-6.4-.11-8.42-1.69a4.75,4.75,0,0,1-.46-.41,3.33,3.33,0,0,1-.36-.4l-.06-.08a3.5,3.5,0,0,1-.29-.49l0-.08a3.2,3.2,0,0,1-.17-.43c-.15-.43-.25-.9-.39-1.43a2,2,0,0,0-.09-.33l-.06-.23a.36.36,0,0,1,0-.11c0-.08,0-.16-.08-.24a11.07,11.07,0,0,0-1.3-2.58c-3.06-4.65-6.45-4.14-8.19-7.34a6.24,6.24,0,0,1-.7-2.19,12,12,0,0,1,.64-2.54,4.37,4.37,0,0,0,.36.8c1.74,3.2,5.12,2.69,8.19,7.34,2.37,3.6,1.11,5.07,3.33,6.81a10.22,10.22,0,0,0,6.06,1.82A14.42,14.42,0,0,0,35,47.49a5.07,5.07,0,0,0,1.47-1.65,5.14,5.14,0,0,1,1.07-1.6,4.26,4.26,0,0,1,.49-.42,6.39,6.39,0,0,1,3.08-1.24l0,0h0l.12.18.12.2A12.31,12.31,0,0,1,42.82,46.43Z"/><path class="cls-12" d="M39.28,40.41c-2-.24-3.6-.38-5,.64-1.08.82-.62,1.3-1.86,2.25a7.24,7.24,0,0,1-2.34,1.17c-2.36.73-5.19.56-6.78-.68-1.37-1.07-.59-2-2-4.18-1.88-2.85-4-2.54-5-4.5-2.07-3.8,3.32-9.35,4.09-10.13a17.35,17.35,0,0,1,7.82-4.68,21.75,21.75,0,0,1,9.56-.4l-.06.08-.21.27a1.47,1.47,0,0,1-.1.13l-.21.29c-.1.12-.19.24-.28.37l0,0-.34.47-.32.47a27.81,27.81,0,0,0-1.73,2.84l-.15.27-.14.28c-.19.37-.37.75-.54,1.13l-.12.29-.12.29c-.07.18-.13.36-.2.53l-.12.34-.18.59-.06.2h0l0,.1c0,.09,0,.19-.07.28s0,.2-.07.29,0,.15,0,.22-.05.27-.08.41l0,.25a2.72,2.72,0,0,0,0,.3l0,.25a.13.13,0,0,0,0,.06s0,.07,0,.11v.07s0,0,0,.06v.09s0,0,0,.06v.17h0a1,1,0,0,0,0,.17v.27h0c0,.07,0,.14,0,.21a.92.92,0,0,0,0,.16v0a.31.31,0,0,0,0,.1.57.57,0,0,0,0,.13.22.22,0,0,0,0,.08,1.64,1.64,0,0,0,0,.22c0,.14,0,.28.07.41a6.42,6.42,0,0,0,.15.63h0c0,.12.06.23.1.35l.1.27c0,.1.08.2.13.3a2,2,0,0,0,.1.21l0,.09a.2.2,0,0,1,0,.08h0a.33.33,0,0,0,0,.06q.09.16.18.3l.09.14a4.09,4.09,0,0,0,.38.52l.2.24C35.44,38,37.34,38.53,39.28,40.41Z"/><path class="cls-9" d="M101.31,27a18.73,18.73,0,0,0-2.61,2.65,27,27,0,0,1-4.89,4.63A25.07,25.07,0,0,1,88.92,37,31.72,31.72,0,0,1,80.76,39a31,31,0,0,1-4.7.22c-1.08,0-2.09-.12-3-.22h0c-1.38-.15-2.63-.33-3.79-.45-2.64-.28-4.77-.24-6.67,1.29a5.46,5.46,0,0,0-1.64,2.31,5.15,5.15,0,0,1-1,1.24c-.12.12-.27.24-.42.38-3.94,3.25-11.31,3.82-14.87.84a4.13,4.13,0,0,1-1.41-2.13c-.1-.32-.17-.65-.26-1s-.12-.52-.2-.81A11.76,11.76,0,0,0,41.71,38l-.39-.66c-3-4.88-6.32-4.44-8.09-7.66a31.81,31.81,0,0,1,5.55-8.88c.17-.21.34-.4.48-.56l.4-.45.14-.15a30.21,30.21,0,0,1,4.67-4.18,25.7,25.7,0,0,1,2.18-1.41h0a26.85,26.85,0,0,1,5.9-2.57c9-2.72,20.15-1.1,26.24,3.94h0a14.73,14.73,0,0,1,2,2c2,2.47,2.41,4.85,5.76,6.73s7,1.82,7.89,4.2a2.07,2.07,0,0,1,.1.33v0s0,.06,0,.08c.27,1.19-.33,2.11.19,2.42s1.55-.7,2.93-1.87A11.63,11.63,0,0,1,101.31,27Z"/><path class="cls-13" d="M94.56,27.84h0c0,.12,0,.24,0,.35a.76.76,0,0,0,0,.15,1.5,1.5,0,0,0,0,.3v0a2.07,2.07,0,0,0-.1-.33c-.92-2.38-4.6-2.37-7.89-4.2s-3.75-4.26-5.76-6.73a14.73,14.73,0,0,0-2-2h0c-6.09-5-17.22-6.66-26.24-3.94a26.85,26.85,0,0,0-5.9,2.57h0a25.7,25.7,0,0,0-2.18,1.41,30.21,30.21,0,0,0-4.67,4.18l-.14.15-.4.45c-.14.16-.31.35-.48.56a31.81,31.81,0,0,0-5.55,8.88,13.55,13.55,0,0,0-.79,3.16l0-.26c0-.08,0-.15,0-.23v0c0-.17,0-.34,0-.5s0-.22,0-.32v-.17s0,0,0-.06v-.09s0,0,0-.06v-.07s0-.07,0-.11a.13.13,0,0,1,0-.06l0-.25a2.72,2.72,0,0,1,0-.3l0-.25c0-.14,0-.27.08-.41s0-.14,0-.22.05-.19.07-.29.05-.19.07-.28l0-.1h0l.06-.2.18-.59.12-.34c.07-.17.13-.35.2-.53l.12-.29.12-.29c.17-.38.35-.76.54-1.13l.14-.28.15-.27A27.81,27.81,0,0,1,36.18,22l.32-.47.34-.47,0,0c.09-.13.18-.25.28-.37l.21-.29a1.47,1.47,0,0,0,.1-.13l.21-.27.06-.08.5-.62.24-.29.38-.45c.36-.43.66-.76.86-1l.09-.1.11-.11c.2-.22.44-.48.72-.76l.14-.14c.42-.43.92-.9,1.49-1.41h0c.44-.38.92-.79,1.45-1.19l.27-.21.28-.2h0a26.92,26.92,0,0,1,8.29-4.14A32.12,32.12,0,0,1,61.75,8h1.07l1,0,.48,0h.16l.55.05h.08l1,.11,1.09.16.51.08.48.09.3.06h0l.43.09.67.15.57.15c.41.1.81.22,1.21.34l.43.14.16.05.58.2L73,10l.06,0c.38.14.75.29,1.12.46l.46.21.16.07.38.19c.35.18.69.36,1,.55l.23.13.35.21.44.28c.19.12.38.26.57.39l.33.24.36.28.18.14.36.31.38.33.39.37.2.21.18.19,0,0,.18.19.18.22.18.22.09.11.09.12a2,2,0,0,1,.18.23l.17.23.16.23a.76.76,0,0,0,.08.11l.07.12c.11.15.2.3.3.45.33.53.63,1.05,1,1.55l.21.33.07.1c.08.13.17.25.26.38l.12.15a1,1,0,0,0,.12.16,7.63,7.63,0,0,0,.66.76,8,8,0,0,0,.85.78l.48.36.26.17.27.17.36.22A17.29,17.29,0,0,0,89,23.05l.61.21,1.29.43c.53.19,1,.37,1.47.58l.23.11.23.12.16.09.15.1.3.21a3.17,3.17,0,0,1,.34.3,2.69,2.69,0,0,1,.62,1A3.26,3.26,0,0,1,94.56,27.84Z"/><path class="cls-13" d="M112.68,30.33a.37.37,0,0,1,0,.11h0v.07h0s0,0,0,0,0,0,0,0v0a.76.76,0,0,1-.11.14l-.13.08-.1,0h0a1.69,1.69,0,0,1-.33,0c-.1-.12-.21-.26-.33-.39-1.81-2-5.52-4.4-9-3.9a6.1,6.1,0,0,0-1.29.33,11.63,11.63,0,0,0-3.66,2.29c-1.38,1.17-2.35,2.21-2.93,1.87s.08-1.23-.19-2.42c0,0,0,.05,0,.07h0l0,0,.06.08.07,0A.46.46,0,0,0,95,29h0a.61.61,0,0,0,.18-.05l.1,0,.11-.05.1-.06a3,3,0,0,0,.35-.23l0,0,0,0c.57-.44,1.26-1.11,2.08-1.78l.38-.3.26-.2.13-.1c.27-.19.55-.38.85-.56l.14-.09.22-.13.23-.11h0l.23-.12.08,0,.2-.1.22-.09.22-.09.56-.18.21,0,.34-.07.13,0,.14,0a4.34,4.34,0,0,1,.71-.06,6.42,6.42,0,0,1,1,0,7.63,7.63,0,0,1,1.25.23l.41.11.27.08.4.14.06,0,.13.06h.06l.11.05.1,0,.13.06.06,0,.09,0,.07,0h0l.26.13.06,0,.23.12.3.16.14.08.14.08h0l.09.05.09,0,.09.06h0l0,0,0,0,.14.1.2.13.1.07h0l0,0,.46.34,0,0,.09.07.07.05.06.05.09.07.14.12h0l.15.12.07.07.06.06.14.12h0l.12.12.09.07a.12.12,0,0,0,0,.05l.12.13,0,0,.19.19.11.13,0,0,0,.06.08.08.06.08.15.19a4.22,4.22,0,0,1,.27.36s0,0,0,0v0a.43.43,0,0,0,0,.07h0l0,0h0l.06.1.06.09v0l.06.1v0l0,0h0a0,0,0,0,1,0,0l0,.09,0,.1,0,.09s0,0,0,0l0,.11v.05a0,0,0,0,1,0,0h0v0A.06.06,0,0,1,112.68,30.33Z"/><path class="cls-12" d="M52.84,40c-1.93.93-4.6.92-6-.26-1.06-.89-.46-1.64-1.59-3.47-1.46-2.37-3.07-2.11-3.89-3.74-1.61-3.15,2.57-7.76,3.17-8.4a13.51,13.51,0,0,1,5.31-3.63,4.48,4.48,0,0,0-.64,3.25c.36,1.56,1.6,1.93,2.55,3.54-1.49,1.54-2.83,3.55-2.37,5.5s2.23,2.05,3.16,4.92A6.4,6.4,0,0,1,52.84,40Z"/><path class="cls-11" d="M90,30.58c-.37.44-1.71-.85-4-.77-2.73.1-3.48,2-6.67,3.3h0a8.43,8.43,0,0,1-1.21-.9,4.62,4.62,0,0,1-1.29-1.9c-.27-.69-.42-1.4-.78-2.17q-.17-.33-.36-.66c-2.16-3.49-7.74-5.84-12.85-5.6l-.34,0A15,15,0,0,0,55,24.58a21.14,21.14,0,0,0-3.24,2.68c-1-1.61-2.19-2-2.55-3.54a4.48,4.48,0,0,1,.64-3.25,17.26,17.26,0,0,1,5-4.94,15.14,15.14,0,0,1,7.49-2.67C67.8,12.48,74,15.17,75.84,19.1c.71,1.48.61,2.74,2.07,4.07s3.3,1.73,3.47,3c.09.76-.45,1.22-.2,1.46.49.47,2.39-1.54,4.56-1.37C88.4,26.51,90.57,29.94,90,30.58Z"/><path class="cls-14" d="M88.92,37A31.72,31.72,0,0,1,80.76,39a31,31,0,0,1-4.7.22c-1.08,0-2.09-.12-3-.22h0c-1.38-.15-2.63-.33-3.79-.45-2.64-.28-4.77-.24-6.67,1.29a5.46,5.46,0,0,0-1.64,2.31,5.15,5.15,0,0,1-1,1.24c-2.35.66-5.41,0-6.66-1.66A2.5,2.5,0,0,1,52.84,40a6.4,6.4,0,0,0-.31-2.29c-.93-2.87-2.72-3-3.16-4.92s.88-4,2.37-5.5A21.14,21.14,0,0,1,55,24.58a15,15,0,0,1,7.49-2.67l.34,0c5.11-.24,10.69,2.11,12.85,5.6q.2.33.36.66c.36.77.51,1.48.78,2.17a4.62,4.62,0,0,0,1.29,1.9,8.43,8.43,0,0,0,1.21.9c1.1.7,2.13,1.18,2.25,2.14.1.75-.45,1.22-.2,1.45.49.47,2.4-1.54,4.57-1.36A4.89,4.89,0,0,1,88.92,37Z"/><path class="cls-10" d="M112.68,30.37s0,.05,0,.07h0v.07h0s0,0,0,0,0,0,0,0v0a.53.53,0,0,1-.11.14l-.13.08-.1,0h0a1.69,1.69,0,0,1-.33,0h-.25c-.29,0-.63-.07-1-.13l-.54-.08a12.88,12.88,0,0,0-5.35.2,9.18,9.18,0,0,0-2.22.88c-3.15,1.76-4.26,4.94-8.7,8.09a28.85,28.85,0,0,1-13,4.77,29.32,29.32,0,0,1-4.18.23c-4.42-.06-7.76-1-10.52-.76h0a6.29,6.29,0,0,0-3.49,1.37l-.06.05a4.9,4.9,0,0,0-.79.81l-.16.23c-.06.09-.11.18-.16.27h0l-.09.18-.11.22c0,.11-.1.22-.16.33s-.16.31-.26.47l-.17.25-.14.19-.17.2a7.78,7.78,0,0,1-.76.73A11.31,11.31,0,0,1,56.92,51a14.72,14.72,0,0,1-5.39,1.21,10.29,10.29,0,0,1-6.87-1.94l-.38-.35-.11-.12a3.55,3.55,0,0,1-.36-.45l0,0-.09-.15-.17-.31-.07-.15a2.77,2.77,0,0,1-.1-.26c-.06-.17-.12-.34-.17-.53s0-.18-.07-.27-.09-.39-.14-.59-.09-.42-.15-.64A12.31,12.31,0,0,0,41.32,43l-.12-.2-.12-.18h0l0,0a12.44,12.44,0,0,0-1.47-1.86l-.08-.08-.08-.08-.15-.14h0c-1.94-1.88-3.84-2.42-5.22-3.92l-.2-.24a4.09,4.09,0,0,1-.38-.52l-.09-.14q-.09-.14-.18-.3a.33.33,0,0,1,0-.06h0a.2.2,0,0,0,0-.08l0-.09a2,2,0,0,1-.1-.21c-.05-.1-.09-.2-.13-.3l-.1-.27c0-.12-.07-.23-.1-.35h0a6.42,6.42,0,0,1-.15-.63c0-.13,0-.27-.07-.41a1.64,1.64,0,0,1,0-.22.22.22,0,0,1,0-.08.57.57,0,0,1,0-.13.31.31,0,0,1,0-.1v0a.92.92,0,0,1,0-.16c0-.07,0-.14,0-.21h0v-.27a1,1,0,0,1,0-.17h0v-.11h0v-.05s0,0,0-.06v-.09s0,0,0-.06v-.07s0-.07,0-.11a.13.13,0,0,1,0-.06l0-.25a2.72,2.72,0,0,1,0-.3l0-.25c0-.14,0-.27.08-.41s0-.14,0-.22.05-.19.07-.29.05-.19.07-.28l0-.1a6.36,6.36,0,0,0,.31.71c0,.07.07.13.1.19,1.77,3.22,5.09,2.78,8.09,7.66l.39.66a11.76,11.76,0,0,1,1.08,2.7c.08.29.14.55.2.81h0c.09.36.16.68.26,1a4.13,4.13,0,0,0,1.41,2.13c3.56,3,10.93,2.41,14.87-.84.15-.14.3-.26.42-.38a5.15,5.15,0,0,0,1-1.24,5.46,5.46,0,0,1,1.64-2.31c1.9-1.53,4-1.57,6.67-1.29,1.16.12,2.41.3,3.79.45h0c1,.1,2,.18,3,.22a31,31,0,0,0,4.7-.22A31.72,31.72,0,0,0,88.92,37a25.07,25.07,0,0,0,4.89-2.69,27,27,0,0,0,4.89-4.63A18.73,18.73,0,0,1,101.31,27a9.06,9.06,0,0,1,3.42-1.69,10.75,10.75,0,0,1,1.76-.32h0l.28.11h0l.25.1.13.06.22.09.3.15.13.06.16.09.3.16.14.08.14.09.09.05.19.12,0,0,.18.12.2.13.1.07h0l0,0,.46.34,0,0,.09.07.13.1.09.07.14.12h0l.22.19.2.18h0l.12.12.09.07a.12.12,0,0,0,0,.05l.12.13,0,0,.19.19.11.13,0,0,0,.06.08.08.06.08.15.19a4.22,4.22,0,0,1,.27.36s0,0,0,0h0v0h0l0,0s0,0,0,0h0l0,0h0l0,0,0,.06h0l0,.09v0h0l0,.1h0v0l0,0h0a0,0,0,0,1,0,0h0l0,.07s0,0,0,0h0l0,.1h0a0,0,0,0,0,0,0s0,0,0,.06,0,0,0,0,0,0,0,.06h0v.09a0,0,0,0,1,0,0h0v0a.06.06,0,0,1,0,0Z"/></svg>