<svg id="Python" xmlns="http://www.w3.org/2000/svg" viewBox="0 0 128 128"><defs><style>.cls-1{fill:#1976d2;}.cls-2{fill:#f9ce1d;}</style></defs><title>128</title><g id="_128" data-name="128"><path class="cls-1" d="M36,33V23.78A13.86,13.86,0,0,1,39.65,13.7,19,19,0,0,1,50.34,8.58,84.73,84.73,0,0,1,61.26,8c7.47,0,15.28.29,22.05,3.9a14.71,14.71,0,0,1,7.21,7.9A62.89,62.89,0,0,1,92,33V49.86C92,55.29,85.13,63,77.52,63h-22c-6.54,0-12.39-1.23-17.29,3.8C35.32,70,35.22,74,35,78.25c0,1-.23,12.75,0,12.75H22.9c-5-.2-9.5-3.62-11.81-8A32.47,32.47,0,0,1,8,69.47V53.89c.19-3.63,2.11-7.12,4.32-10A20.3,20.3,0,0,1,23.39,37H64V33Z"/><path class="cls-2" d="M92,96v8a15.73,15.73,0,0,1-3.44,10.34,19.08,19.08,0,0,1-10.7,5.13,84.69,84.69,0,0,1-10.92.52c-7.46,0-15.28-.24-22-3.84A11.35,11.35,0,0,1,39,105.94c.06-4.48,0-16.49,0-19.35V78.2c.33-2.94-.41-5.68,1.68-7.79,2.54-2.74,6.06-3.2,9.8-3.41H79.07C87.94,67,96,55.72,96,49.66c0-1,.23-13.66,0-13.66h9.1c5,.2,9.5,4.53,11.81,8.93a31.66,31.66,0,0,1,2.89,13.51A78,78,0,0,1,119.36,74a18,18,0,0,1-3.68,10,19.57,19.57,0,0,1-10.93,6.64A36.12,36.12,0,0,1,94.84,92H64v4Z"/></g></svg>