<?xml version="1.0" encoding="utf-8"?>
<!-- Generator: Adobe Illustrator 24.0.0, SVG Export Plug-In . SVG Version: 6.00 Build 0)  -->
<svg version="1.1" id="Python" xmlns="http://www.w3.org/2000/svg" xmlns:xlink="http://www.w3.org/1999/xlink" x="0px" y="0px"
	 viewBox="0 0 128 128" enable-background="new 0 0 128 128" xml:space="preserve">
<title>128</title>
<g id="_128">
	<path fill="#1976D2" d="M36,33v-9.2c-0.2-3.7,1.1-7.3,3.7-10.1c2.9-2.8,6.7-4.6,10.7-5.1C54,8.2,57.6,8,61.3,8
		c7.5,0,15.3,0.3,22,3.9c3.3,1.6,5.9,4.5,7.2,7.9c1,4.3,1.5,8.8,1.5,13.2v16.9C92,55.3,85.1,63,77.5,63h-22
		c-6.5,0-12.4-1.2-17.3,3.8c-2.9,3.2-3,7.2-3.2,11.4c0,1-0.2,12.8,0,12.8H22.9c-5-0.2-9.5-3.6-11.8-8c-2-4.2-3-8.9-3.1-13.5V53.9
		c0.2-3.6,2.1-7.1,4.3-10C15.2,40.4,19,38,23.4,37H64v-4H36z"/>
	<path fill="#F9CE1D" d="M92,96v8c0.1,3.7-1.1,7.4-3.4,10.3c-2.9,2.8-6.7,4.6-10.7,5.1c-3.6,0.4-7.3,0.6-10.9,0.5
		c-7.5,0-15.3-0.2-22-3.8c-3.7-2-6-6-5.9-10.2c0.1-4.5,0-16.5,0-19.3v-8.4c0.3-2.9-0.4-5.7,1.7-7.8c2.5-2.7,6.1-3.2,9.8-3.4h28.6
		C87.9,67,96,55.7,96,49.7c0-1,0.2-13.7,0-13.7h9.1c5,0.2,9.5,4.5,11.8,8.9c1.9,4.2,2.9,8.8,2.9,13.5c0.4,5.2,0.2,10.4-0.4,15.6
		c-0.2,3.6-1.5,7.1-3.7,10c-2.8,3.4-6.6,5.7-10.9,6.6c-3.2,0.9-6.6,1.4-9.9,1.4H64v4H92z"/>
</g>
</svg>
