<svg id="图层_1" data-name="图层 1" xmlns="http://www.w3.org/2000/svg" xmlns:xlink="http://www.w3.org/1999/xlink" viewBox="0 0 128 128"><defs><style>.cls-1{fill:#4d4d4d;}.cls-2{fill:#959595;}.cls-3{fill:url(#未命名的渐变_156);}.cls-4{fill:url(#未命名的渐变_152);}.cls-5{fill:url(#未命名的渐变_154);}.cls-6{fill:url(#未命名的渐变_150);}</style><linearGradient id="未命名的渐变_156" x1="55.81" y1="85.24" x2="55.81" y2="118" gradientUnits="userSpaceOnUse"><stop offset="0" stop-opacity="0.9"/><stop offset="0.92" stop-color="#d2d2d2" stop-opacity="0.16"/><stop offset="1" stop-color="#fff" stop-opacity="0"/></linearGradient><linearGradient id="未命名的渐变_152" x1="55.72" y1="90.12" x2="55.72" y2="118" gradientUnits="userSpaceOnUse"><stop offset="0" stop-color="#4d4d4d" stop-opacity="0.9"/><stop offset="0.27" stop-color="#555" stop-opacity="0.86"/><stop offset="0.5" stop-color="#707070" stop-opacity="0.72"/><stop offset="0.71" stop-color="#9c9c9c" stop-opacity="0.5"/><stop offset="0.91" stop-color="#dbdbdb" stop-opacity="0.18"/><stop offset="1" stop-color="#fff" stop-opacity="0"/></linearGradient><linearGradient id="未命名的渐变_154" x1="55.69" y1="92.16" x2="55.69" y2="118" gradientUnits="userSpaceOnUse"><stop offset="0" stop-color="#959595" stop-opacity="0.9"/><stop offset="0.2" stop-color="#989898" stop-opacity="0.88"/><stop offset="0.38" stop-color="#a0a0a0" stop-opacity="0.81"/><stop offset="0.53" stop-color="#adadad" stop-opacity="0.69"/><stop offset="0.68" stop-color="#c1c1c1" stop-opacity="0.53"/><stop offset="0.83" stop-color="#dadada" stop-opacity="0.32"/><stop offset="0.97" stop-color="#f8f8f8" stop-opacity="0.06"/><stop offset="1" stop-color="#fff" stop-opacity="0"/></linearGradient><linearGradient id="未命名的渐变_150" x1="56.47" y1="92.36" x2="56.47" xlink:href="#未命名的渐变_156"/></defs><title>pytrainer-112</title><path d="M77.32,10A38.43,38.43,0,1,0,115.5,48.43,38.35,38.35,0,0,0,77.32,10Zm0,69.89a31.47,31.47,0,1,1,31.26-31.46A31.39,31.39,0,0,1,77.32,79.89Z"/><path class="cls-1" d="M77.32,17a31.47,31.47,0,1,0,31.26,31.47A31.4,31.4,0,0,0,77.32,17Zm0,60a28.55,28.55,0,1,1,28.36-28.54A28.45,28.45,0,0,1,77.32,77Z"/><path class="cls-2" d="M105.68,48.43A28.36,28.36,0,1,1,77.32,19.88,28.45,28.45,0,0,1,105.68,48.43Z"/><path d="M103.32,46.3H85.2l15.69-9.12a2.14,2.14,0,0,0,.77-2.9,2.1,2.1,0,0,0-2.88-.77L83.09,42.62l9.06-15.79a2.13,2.13,0,0,0-.78-2.9,2.1,2.1,0,0,0-2.88.78L79.43,40.5V22.26a2.11,2.11,0,1,0-4.22,0V40.5L66.15,24.71a2.1,2.1,0,0,0-2.88-.78,2.13,2.13,0,0,0-.78,2.9l9.06,15.79L55.86,33.51a2.1,2.1,0,0,0-2.88.77,2.14,2.14,0,0,0,.77,2.9L69.44,46.3H51.32a2.13,2.13,0,0,0,0,4.25H69.44L53.75,59.67a2.14,2.14,0,0,0-.77,2.9,2.11,2.11,0,0,0,2.88.78l15.69-9.12L62.49,70a2.14,2.14,0,0,0,.78,2.9,2.11,2.11,0,0,0,2.88-.78l9.06-15.79V74.59a2.11,2.11,0,1,0,4.22,0V56.36l9.06,15.79a2.11,2.11,0,0,0,2.88.78,2.14,2.14,0,0,0,.78-2.9l-9.06-15.8,15.69,9.12a2.11,2.11,0,0,0,2.88-.78,2.14,2.14,0,0,0-.77-2.9L85.2,50.55h18.12a2.13,2.13,0,0,0,0-4.25Z"/><path class="cls-3" d="M50.05,92.66C69.42,87,87.7,91.13,90.8,101.89,92.29,107,90,112.79,85.16,118h7.67c5.15-6,7.44-12.52,5.75-18.38-3.8-13.14-26.13-18.2-49.78-11.27C29.06,94.12,14.56,106.45,12.5,118h7.68C21.13,108.24,33.28,97.57,50.05,92.66Z"/><path class="cls-4" d="M90.8,101.89C87.7,91.13,69.42,87,50.05,92.66,33.28,97.57,21.13,108.24,20.18,118h3.25c.44-9,11.59-19,27.14-23.53,17.6-5.15,34.15-1.4,37,8.38,1.4,4.85-.85,10.28-5.63,15.15h3.24C90,112.79,92.29,107,90.8,101.89Z"/><path class="cls-5" d="M46.46,113.45,27.19,113c-1.23,0-1.86-.72-1.39-1.54A3.76,3.76,0,0,1,28.9,110l19.27.49-13-6.81c-.83-.44-.68-1.36.35-2a3.69,3.69,0,0,1,3.37-.47l13,6.81L48.63,96.64c-.21-.72.68-1.63,2-2s2.54-.1,2.75.63l3.27,11.3L64,93.79a3.75,3.75,0,0,1,3.1-1.43c1.24,0,1.86.73,1.39,1.55l-7.35,12.77,16-10.82a3.73,3.73,0,0,1,3.38-.46c.83.43.67,1.36-.35,2l-16,10.82,20.36-6c1.3-.38,2.54-.1,2.75.62s-.69,1.63-2,2l-20.36,6,19.27.49c1.23,0,1.86.73,1.39,1.55a3.76,3.76,0,0,1-3.1,1.43l-19.27-.49L71.07,118H81.92c4.78-4.87,7-10.3,5.63-15.15-2.83-9.78-19.38-13.53-37-8.38C35,99,23.87,109,23.43,118h7.48Z"/><path class="cls-6" d="M82.47,114.37a3.76,3.76,0,0,0,3.1-1.43c.47-.82-.16-1.51-1.39-1.55l-19.27-.49,20.36-6c1.3-.38,2.2-1.29,2-2s-1.45-1-2.75-.62l-20.36,6,16-10.82c1-.69,1.18-1.62.35-2a3.73,3.73,0,0,0-3.38.46l-16,10.82,7.35-12.77c.47-.82-.15-1.52-1.39-1.55A3.75,3.75,0,0,0,64,93.79l-7.34,12.77-3.27-11.3c-.21-.73-1.45-1-2.75-.63s-2.2,1.29-2,2L51.89,108l-13-6.81a3.69,3.69,0,0,0-3.37.47c-1,.69-1.18,1.61-.35,2l13,6.81L28.9,110a3.76,3.76,0,0,0-3.1,1.43c-.47.82.16,1.51,1.39,1.54l19.27.5L30.91,118h9.76l6.55-1.92L44.38,118h5.38l.49-.33-.19.33h4.55l.12-.22.07.22h5.14l-.46-1.6,3.06,1.6h8.53l-7.87-4.12Z"/></svg>