<svg id="图层_1" data-name="图层 1" xmlns="http://www.w3.org/2000/svg" viewBox="0 0 128 128"><defs><style>.cls-1{fill:#bbdefb;}.cls-2{fill:#255fb5;}.cls-3{fill:#8cb0dc;}.cls-4{fill:#fff;}</style></defs><title>qbittorrent-112</title><circle class="cls-1" cx="64" cy="64" r="59"/><path class="cls-2" d="M64,5A39.94,39.94,0,1,1,24.06,44.94,39.94,39.94,0,0,1,64,5a59,59,0,1,0,59,59A59,59,0,0,0,64,5Z"/><path class="cls-3" d="M64,5h1A55.15,55.15,0,1,1,63,5h1a59,59,0,1,0,59,59A59,59,0,0,0,64,5Z"/><path class="cls-4" d="M58,95.92H51.57V79.27a13.21,13.21,0,0,1-4.48,4.32A12.23,12.23,0,0,1,41,85a14.34,14.34,0,0,1-10.89-4.8q-4.49-4.8-4.48-14.09t4.48-13.93A14.58,14.58,0,0,1,41,47.57a13.53,13.53,0,0,1,6.08,1.28A11.74,11.74,0,0,1,51.57,53v-4.8H58ZM51.57,66.14c0-4-.91-7.21-2.72-9.45a8.18,8.18,0,0,0-6.56-3.36,8.29,8.29,0,0,0-7.21,3.36c-1.6,2.24-2.4,5.4-2.4,9.45s.8,7.26,2.4,9.6a8.13,8.13,0,0,0,7.21,3.53,8,8,0,0,0,6.56-3.53Q51.57,72.23,51.57,66.14Z"/><path class="cls-4" d="M99.92,66.14q0,9.28-4.48,13.93a14.59,14.59,0,0,1-10.89,4.64,13.5,13.5,0,0,1-6.08-1.28A11.74,11.74,0,0,1,74,79.27v4.8H67.58V29.32H74V53a13.21,13.21,0,0,1,4.48-4.32,12.21,12.21,0,0,1,6.08-1.44,14.35,14.35,0,0,1,10.89,4.8Q99.93,56.85,99.92,66.14Zm-7,0q0-6.07-2.4-9.61A8.17,8.17,0,0,0,83.27,53a8.08,8.08,0,0,0-6.56,3.52Q74,60.06,74,66.14t2.72,9.44A8.16,8.16,0,0,0,83.27,79c3.2,0,5.61-1.12,7.21-3.37S92.88,70.2,92.88,66.14Z"/></svg>