<?xml version="1.0" encoding="utf-8"?>
<!-- Generator: Adobe Illustrator 24.0.0, SVG Export Plug-In . SVG Version: 6.00 Build 0)  -->
<svg version="1.1" id="图层_1" xmlns="http://www.w3.org/2000/svg" xmlns:xlink="http://www.w3.org/1999/xlink" x="0px" y="0px"
	 viewBox="0 0 128 128" enable-background="new 0 0 128 128" xml:space="preserve">
<title>quodlibet128</title>
<path fill="#455A64" d="M20,8h88c6.6,0,12,5.4,12,12v88c0,6.6-5.4,12-12,12H20c-6.6,0-12-5.4-12-12V20C8,13.4,13.4,8,20,8z"/>
<path fill="#FFFFFF" d="M89.3,56.8L89.3,56.8c-1.1-1-2.4-1.9-3.7-2.6L85.3,54c-0.3-0.1-0.6-0.1-0.8,0.2l0,0
	c-0.2,0.2-0.1,0.6,0.1,0.8c8.7,7,10.1,19.7,3.2,28.4c-3.1,3.9-7.6,6.5-12.6,7.3c-0.5,0.1-1.1-0.2-1.3-0.8v18.9c2.3-8,6-10.5,11-15
	c6.1-5.5,10-13,10-21C95.1,65.9,93.3,60.9,89.3,56.8z"/>
<line fill="none" stroke="#FFFFFF" stroke-width="4" stroke-miterlimit="10" x1="72" y1="35.4" x2="72" y2="108.8"/>
<ellipse transform="matrix(0.2033 -0.9791 0.9791 0.2033 10.988 79.3056)" fill="#FFFFFF" cx="54.2" cy="32.9" rx="14.4" ry="20"/>
</svg>
