<svg id="图层_1" data-name="图层 1" xmlns="http://www.w3.org/2000/svg" viewBox="0 0 128 128"><defs><style>.cls-1{fill:#e0e0e0;}.cls-2{fill:#9e9e9e;}.cls-3{fill:#ff7800;}.cls-4{fill:#ff4c04;}.cls-5{fill:#0b9c00;}.cls-6{fill:#70c005;}.cls-7{fill:#ffbb02;}.cls-8{fill:#fffb06;}.cls-9{fill:#008fbb;}.cls-10{fill:#b90163;}.cls-11{fill:#fe0000;}.cls-12{fill:#010e98;}.cls-13{fill:#0151a8;}.cls-14{fill:#4d0090;}</style></defs><title>rawtherapee-112</title><rect class="cls-1" x="8" y="8" width="112" height="112" rx="12" ry="12"/><path class="cls-2" d="M65.13,24.63a40,40,0,1,0,40,40A40,40,0,0,0,65.13,24.63Zm0,63.8a23.81,23.81,0,1,1,23.8-23.8A23.81,23.81,0,0,1,65.13,88.43Z"/><path class="cls-3" d="M86.68,63.38c0,.54,0,1.08-.05,1.62h16.21c0-.54,0-1.08,0-1.62A39.86,39.86,0,0,0,98.2,44.6l-14,8.11A23.59,23.59,0,0,1,86.68,63.38Z"/><path class="cls-4" d="M84.16,52.71l14-8.11A40.23,40.23,0,0,0,83.58,29.14l-8.1,14A23.9,23.9,0,0,1,84.16,52.71Z"/><path class="cls-5" d="M51.68,84.39l-8.1,14a39.79,39.79,0,0,0,19.3,5V87.18A23.74,23.74,0,0,1,51.68,84.39Z"/><path class="cls-6" d="M62.88,87.18v16.19a39.78,39.78,0,0,0,19.29-5l-8.1-14A23.73,23.73,0,0,1,62.88,87.18Z"/><path class="cls-7" d="M86.63,65a23.69,23.69,0,0,1-3.88,11.48l14,8.1a39.72,39.72,0,0,0,6-19.58Z"/><path class="cls-8" d="M74.07,84.39l8.1,14A40.19,40.19,0,0,0,96.79,84.58l-14-8.1A23.82,23.82,0,0,1,74.07,84.39Z"/><path class="cls-9" d="M43,76.48l-14,8.1A40.19,40.19,0,0,0,43.58,98.42l8.1-14A23.82,23.82,0,0,1,43,76.48Z"/><path class="cls-10" d="M62.88,39.57V23.38a39.83,39.83,0,0,0-20.71,5.76l8.1,14A23.77,23.77,0,0,1,62.88,39.57Z"/><path class="cls-11" d="M75.48,43.17l8.1-14a39.82,39.82,0,0,0-20.7-5.76V39.57A23.76,23.76,0,0,1,75.48,43.17Z"/><path class="cls-12" d="M39.07,63.38a23.59,23.59,0,0,1,2.52-10.67l-14-8.11a39.85,39.85,0,0,0-4.67,18.78q0,.81,0,1.62H39.12C39.09,64.46,39.07,63.92,39.07,63.38Z"/><path class="cls-13" d="M39.12,65H22.91A39.72,39.72,0,0,0,29,84.58l14-8.1A23.69,23.69,0,0,1,39.12,65Z"/><path class="cls-14" d="M50.27,43.17l-8.1-14A40.23,40.23,0,0,0,27.55,44.6l14,8.11A23.9,23.9,0,0,1,50.27,43.17Z"/></svg>