<svg id="图层_1" data-name="图层 1" xmlns="http://www.w3.org/2000/svg" viewBox="0 0 128 128"><defs><style>.cls-1{fill:#ff761a;}.cls-2{fill:#ff1a1a;}.cls-3{fill:#ff1ae9;}.cls-4{fill:#8f1aff;}.cls-5{fill:#1a1aff;}.cls-6{fill:#1a72ff;}.cls-7{fill:#1afff3;}.cls-8{fill:#1aff2a;}.cls-9{fill:#74ff1a;}.cls-10{fill:#ffee1a;}.cls-11{fill:#ffa71a;}.cls-12{fill:#ff451a;}.cls-13{fill:none;}.cls-14{fill:#ff9945;}.cls-15{fill:#ff403b;}.cls-16{fill:#ff39e3;}.cls-17{fill:#a129ff;}.cls-18{fill:#2929ff;}.cls-19{fill:#3679ff;}.cls-20{fill:#2efff9;}.cls-21{fill:#39ff50;}.cls-22{fill:#86ff40;}.cls-23{fill:#fffa40;}.cls-24{fill:#ffbe4a;}.cls-25{fill:#ff693b;}.cls-26{fill:#1a1a1a;}</style></defs><title>rawtherapee128</title><path class="cls-1" d="M109.21,37.52,114,34.74a58.37,58.37,0,0,0-21.11-21l-3,5.14A52.5,52.5,0,0,1,109.21,37.52Z"/><path class="cls-2" d="M64,12.17V6h-.26A57.59,57.59,0,0,0,35,13.8L38,19A53,53,0,0,1,64,12.17Z"/><path class="cls-3" d="M38,19,35,13.8l-.22.14A58.45,58.45,0,0,0,13.8,35l4.82,2.78A52.52,52.52,0,0,1,38,19Z"/><path class="cls-4" d="M18.62,37.8,13.8,35l-.12.22A57.57,57.57,0,0,0,6,64h5.38A51,51,0,0,1,18.62,37.8Z"/><path class="cls-5" d="M11.41,64H6v.26A57.59,57.59,0,0,0,13.8,93l4.82-2.78A51,51,0,0,1,11.41,64Z"/><path class="cls-6" d="M18.62,90.2,13.8,93l.14.22A58.45,58.45,0,0,0,35,114.2l3-5.15A52.52,52.52,0,0,1,18.62,90.2Z"/><path class="cls-7" d="M38,109.05l-3,5.15.22.12A57.57,57.57,0,0,0,64,122v-6.14A53,53,0,0,1,38,109.05Z"/><path class="cls-8" d="M64,115.83V122h.26a57.7,57.7,0,0,0,29-7.92l-3-5.14A52.88,52.88,0,0,1,64,115.83Z"/><path class="cls-9" d="M90.26,108.91l3,5.14.22-.13a58.44,58.44,0,0,0,21-21.44l-4.81-2.77A52.43,52.43,0,0,1,90.26,108.91Z"/><path class="cls-10" d="M122,63.48h-5.39c0,.17,0,.35,0,.52a51,51,0,0,1-6.92,25.71l4.81,2.77.12-.22A57.64,57.64,0,0,0,122,64Z"/><path class="cls-11" d="M116.58,63.48H122a2.26,2.26,0,0,0,0-.26A57.56,57.56,0,0,0,114.16,35c0-.08-.09-.15-.13-.22l-4.82,2.78A51,51,0,0,1,116.58,63.48Z"/><path class="cls-12" d="M90,18.91l3-5.14-.22-.13A57.68,57.68,0,0,0,64,6v6.14A52.94,52.94,0,0,1,90,18.91Z"/><path class="cls-13" d="M78.3,39.09,78.08,39A28.58,28.58,0,0,0,64,35.27h-.26a28.59,28.59,0,0,0-14.1,3.85l-.22.14a28.94,28.94,0,0,0-10.3,10.38l-.12.22A28.57,28.57,0,0,0,35.27,64v.26a28.59,28.59,0,0,0,3.85,14.1l.14.22a28.94,28.94,0,0,0,10.38,10.3l.22.12A28.57,28.57,0,0,0,64,92.73h.26a28.57,28.57,0,0,0,14.35-4l.22-.13A29,29,0,0,0,89.16,77.86l.12-.22A28.56,28.56,0,0,0,92.73,64c0-.17,0-.35,0-.52v-.26a28.49,28.49,0,0,0-3.88-13.64c0-.08-.09-.15-.13-.22A29,29,0,0,0,78.3,39.09Z"/><path class="cls-14" d="M88.71,49.36l20.5-11.84A52.5,52.5,0,0,0,90,18.91L78.3,39.09A29,29,0,0,1,88.71,49.36Z"/><path class="cls-15" d="M63.74,35.27H64V12.17A53,53,0,0,0,38,19L49.64,39.12A28.59,28.59,0,0,1,63.74,35.27Z"/><path class="cls-16" d="M49.42,39.26l.22-.14L38,19A52.52,52.52,0,0,0,18.62,37.8l20.5,11.84A28.94,28.94,0,0,1,49.42,39.26Z"/><path class="cls-17" d="M39,49.86l.12-.22L18.62,37.8A51,51,0,0,0,11.41,64H35.27A28.57,28.57,0,0,1,39,49.86Z"/><path class="cls-18" d="M35.27,64.26V64H11.41a51,51,0,0,0,7.21,26.2l20.5-11.84A28.59,28.59,0,0,1,35.27,64.26Z"/><path class="cls-19" d="M39.26,78.58l-.14-.22L18.62,90.2A52.52,52.52,0,0,0,38,109.05L49.64,88.88A28.94,28.94,0,0,1,39.26,78.58Z"/><path class="cls-20" d="M49.86,89l-.22-.12L38,109.05a53,53,0,0,0,26,6.78V92.73A28.57,28.57,0,0,1,49.86,89Z"/><path class="cls-21" d="M64.26,92.73H64v23.1a52.88,52.88,0,0,0,26.26-6.92L78.61,88.73A28.57,28.57,0,0,1,64.26,92.73Z"/><path class="cls-22" d="M78.83,88.6l-.22.13,11.65,20.18a52.43,52.43,0,0,0,19.41-19.2L89.16,77.86A29,29,0,0,1,78.83,88.6Z"/><path class="cls-23" d="M92.73,64a28.56,28.56,0,0,1-3.45,13.64l-.12.22,20.51,11.85A51,51,0,0,0,116.59,64c0-.17,0-.35,0-.52H92.72C92.73,63.65,92.73,63.83,92.73,64Z"/><path class="cls-24" d="M88.71,49.36c0,.07.09.14.13.22a28.49,28.49,0,0,1,3.88,13.64v.26h23.86a51,51,0,0,0-7.37-26Z"/><path class="cls-25" d="M78.08,39l.22.13L90,18.91A52.94,52.94,0,0,0,64,12.17v23.1A28.58,28.58,0,0,1,78.08,39Z"/><path class="cls-26" d="M64,38.27a25.7,25.7,0,0,1,12.6,3.3l.11.07.09,0a26,26,0,0,1,9.34,9.22l.11.18a25.68,25.68,0,0,1,3.47,12.2v.25c0,.15,0,.31,0,.46a25.75,25.75,0,0,1-3.08,12.2l-.06.1-.06.11A25.87,25.87,0,0,1,77.28,86l-.11.07-.09.05a25.66,25.66,0,0,1-12.85,3.58H64a25.62,25.62,0,0,1-12.66-3.34l-.05,0-.15-.08a25.92,25.92,0,0,1-9.3-9.22L41.79,77l-.07-.12a25.67,25.67,0,0,1-3.45-12.64V64a25.65,25.65,0,0,1,3.35-12.68l.1-.18A26,26,0,0,1,51,41.83l.07,0,.12-.08a25.67,25.67,0,0,1,12.63-3.45H64m0-3h-.26a28.59,28.59,0,0,0-14.1,3.85l-.22.14a28.94,28.94,0,0,0-10.3,10.38l-.12.22A28.57,28.57,0,0,0,35.27,64v.26a28.59,28.59,0,0,0,3.85,14.1l.13.22a29.05,29.05,0,0,0,10.39,10.3l.22.12A28.57,28.57,0,0,0,64,92.73h.26a28.57,28.57,0,0,0,14.35-4l.22-.13A29,29,0,0,0,89.16,77.86l.12-.22A28.56,28.56,0,0,0,92.73,64c0-.17,0-.35,0-.52v-.26a28.49,28.49,0,0,0-3.88-13.64c0-.08-.09-.15-.13-.22A29,29,0,0,0,78.3,39.09L78.08,39A28.58,28.58,0,0,0,64,35.27Z"/><path class="cls-26" d="M64,8a56,56,0,0,1,27.74,7.32l.09.06.12.07a56.48,56.48,0,0,1,20.41,20.28l.12.2A55.85,55.85,0,0,1,120,63.26V64a55.94,55.94,0,0,1-7.09,27.32l-.08.14,0,.08a56.7,56.7,0,0,1-20.33,20.72l-.11.06-.11.06a55.87,55.87,0,0,1-28,7.62H64a55.91,55.91,0,0,1-27.8-7.36l-.09,0-.12-.07A57.11,57.11,0,0,1,24.4,103.6a56.31,56.31,0,0,1-8.8-11.39l-.12-.2A55.88,55.88,0,0,1,8,64.26V64a55.91,55.91,0,0,1,7.36-27.8l.06-.1.06-.11a56.55,56.55,0,0,1,20.3-20.38l.11-.07.1-.06A55.9,55.9,0,0,1,63.76,8H64m0-3h-.26a58.71,58.71,0,0,0-29.25,7.89l-.22.13A59.47,59.47,0,0,0,12.89,34.49a2.53,2.53,0,0,0-.13.22A58.67,58.67,0,0,0,5,64v.26a58.71,58.71,0,0,0,7.89,29.25,2.53,2.53,0,0,0,.13.22,59.72,59.72,0,0,0,9.26,12,59.07,59.07,0,0,0,12.21,9.39l.22.13A58.67,58.67,0,0,0,64,123h.26a58.73,58.73,0,0,0,29.5-8l.22-.13a59.92,59.92,0,0,0,11.74-9.12A59.26,59.26,0,0,0,115.4,93l.13-.23A58.74,58.74,0,0,0,123,64c0-.17,0-.35,0-.52v-.26a58.57,58.57,0,0,0-7.91-28.79l-.13-.22a59.61,59.61,0,0,0-21.5-21.36l-.22-.13A58.65,58.65,0,0,0,64,5Z"/></svg>