<svg id="图层_1" data-name="图层 1" xmlns="http://www.w3.org/2000/svg" xmlns:xlink="http://www.w3.org/1999/xlink" viewBox="0 0 128 128"><defs><style>.cls-1{fill:#9e9e9e;}.cls-2{fill:#9d1c1c;}.cls-3{fill:#c01c1c;}.cls-4{fill:#f5f5f5;}.cls-5{fill:url(#未命名的渐变_24);}.cls-6{fill:#ffeb3b;}.cls-7{fill:#f09712;}.cls-8{fill:#ffab40;}.cls-9{fill:#f3c88e;}.cls-10{fill:#f4f3d9;}.cls-11{fill:#daa88e;}.cls-12{fill:#263238;}.cls-13{fill:#e0e0e0;}.cls-14{fill:#616161;}.cls-15{fill:#f28987;}</style><linearGradient id="未命名的渐变_24" x1="98.4" y1="66.04" x2="31.77" y2="66.04" gradientUnits="userSpaceOnUse"><stop offset="0" stop-opacity="0.4"/><stop offset="0.06" stop-color="#090202" stop-opacity="0.43"/><stop offset="0.16" stop-color="#230609" stop-opacity="0.52"/><stop offset="0.29" stop-color="#4c0e14" stop-opacity="0.67"/><stop offset="0.45" stop-color="#851923" stop-opacity="0.88"/><stop offset="0.53" stop-color="#a81f2c"/><stop offset="1" stop-color="#a81f2c" stop-opacity="0.2"/></linearGradient></defs><title>rednotebook-112</title><path class="cls-1" d="M45.06,115.85l.12,0L118,99.88l-1.5-4.32c0-.36.06-.72.11-1.08l.31-2.25-1.47.31h0l2.08-.44-24-74.85L24.41,27.67l-.53,0,0,.13L21.3,30.09a5.22,5.22,0,0,0-1.67,5.16l1.6,6.68-.18-.1-.24-.13h0l-1.16-.62v0L19,40.72l-.24-.13h0L17.58,40h0l-.68-.36L15.75,39h0l-1.39-.79a4.19,4.19,0,0,0-5.67,1.52l-.09.16a4.23,4.23,0,0,0,1.53,5.82l1.69,1h0l.78.43,1.15.62.92.5,1.15.63.92.5,1.15.63.92.5.64.35h0l.42.23.09,0h0l.63.34,3.35,1.77,13.93,58.21a6.18,6.18,0,0,0,1.57,2.92,5.1,5.1,0,0,0,2,1.28,6.64,6.64,0,0,0,3.48.23h0Z"/><polygon class="cls-2" points="120 94.64 46.96 110.63 25.91 22.47 92.56 15.71 120 94.64"/><polygon class="cls-3" points="119.53 86.86 45.87 102.13 34.55 56.55 31.77 45.37 26.09 22.47 95.58 12 119.53 86.86"/><path class="cls-2" d="M47.91,110.38l-.24.07a6.74,6.74,0,0,1-4.19-.06,5.1,5.1,0,0,1-2-1.28,6.13,6.13,0,0,1-1.57-2.92L21.66,30a5.23,5.23,0,0,1,1.67-5.17l2.76-2.37Z"/><path class="cls-4" d="M118.51,94.2,46,110.27a2.46,2.46,0,0,1-1.77-.23L44.1,110a3,3,0,0,1-1.14-2.4v-1.46a3.87,3.87,0,0,1,1.8-3.27h0a6.92,6.92,0,0,1,2.39-1L118.92,87l-.31,2.26a16.77,16.77,0,0,0-.16,2.92Z"/><path class="cls-1" d="M118.92,87,47.15,101.87a6.92,6.92,0,0,0-2.39,1h0a3.92,3.92,0,0,0-.91.81l74.89-15.34Z"/><path class="cls-5" d="M94.16,83.05l-11-9.49-51.4-28.2,2.78,11.19L79.31,80.26l13.74,4.65,5.35,1.81Z"/><polygon class="cls-6" points="82.5 77.93 22.62 46.21 27.01 38.67 86.36 71.23 82.5 77.93"/><polygon class="cls-7" points="82.5 77.93 22.62 46.21 24.07 43.71 83.96 75.4 82.5 77.93"/><polygon class="cls-8" points="85.15 73.33 25.68 40.95 27.01 38.67 86.36 71.23 85.15 73.33"/><polygon class="cls-9" points="86.36 71.23 82.5 77.93 96.24 82.58 97.35 80.72 86.36 71.23"/><polygon class="cls-10" points="86.36 71.23 85.15 73.33 96.92 81.45 97.35 80.72 86.36 71.23"/><polygon class="cls-11" points="83.96 75.4 82.5 77.93 96.24 82.58 96.42 82.27 83.96 75.4"/><polygon class="cls-12" points="97.35 80.72 96.24 82.58 101.59 84.39 97.35 80.72"/><polygon class="cls-13" points="27 38.67 22.62 46.21 21.98 45.86 20.83 45.23 19.91 44.73 18.76 44.1 17.84 43.6 16.69 42.98 15.77 42.48 14.62 41.85 13.57 41.28 17.78 33.76 18.92 34.37 20.08 34.98 21 35.48 22.16 36.09 23.08 36.58 24.23 37.2 25.16 37.69 26.32 38.3 27 38.67"/><polygon class="cls-14" points="20.77 35.33 16.46 42.83 15.31 42.2 19.61 34.72 20.77 35.33"/><polygon class="cls-14" points="22.85 36.44 18.53 43.95 17.38 43.33 21.69 35.83 22.85 36.44"/><polygon class="cls-14" points="24.93 37.55 20.6 45.08 19.45 44.45 23.77 36.93 24.93 37.55"/><polygon class="cls-14" points="27.01 38.67 22.62 46.21 21.47 45.58 25.91 38.09 27.01 38.67"/><polygon class="cls-13" points="25.68 40.95 24.78 42.5 24.04 42.1 22.89 41.47 21.97 40.97 20.82 40.34 19.9 39.84 18.75 39.22 17.83 38.72 16.68 38.09 15.67 37.53 16.49 36.06 17.63 36.67 18.78 37.28 19.7 37.78 20.86 38.39 21.78 38.88 22.94 39.5 23.87 39.99 25.02 40.6 25.68 40.95"/><path class="cls-15" d="M18,33.92l-4.2,7.52-1.69-1a4.22,4.22,0,0,1-1.53-5.81l.09-.17A4.18,4.18,0,0,1,16.38,33Z"/></svg>