<?xml version="1.0" encoding="utf-8"?>
<!-- Generator: Adobe Illustrator 24.0.0, SVG Export Plug-In . SVG Version: 6.00 Build 0)  -->
<svg version="1.1" id="图层_1" xmlns="http://www.w3.org/2000/svg" xmlns:xlink="http://www.w3.org/1999/xlink" x="0px" y="0px"
	 viewBox="0 0 128 128" enable-background="new 0 0 128 128" xml:space="preserve">
<title>rednotebook-112</title>
<path fill="#9E9E9E" d="M45.1,115.8h0.1l72.8-16l-1.5-4.3c0-0.4,0.1-0.7,0.1-1.1l0.3-2.3l-1.5,0.3l0,0l2.1-0.4l-24-74.8L24.4,27.7
	h-0.5v0.1l-2.6,2.3c-1.5,1.3-2.1,3.3-1.7,5.2l1.6,6.7L21,41.8l-0.2-0.1l0,0l-1.2-0.6l0,0L19,40.7l-0.2-0.1l0,0L17.6,40l0,0l-0.7-0.4
	L15.8,39l0,0l-1.4-0.8c-2-1.1-4.5-0.4-5.7,1.5l-0.1,0.2c-1.2,2-0.5,4.6,1.5,5.8c0,0,0,0,0,0l1.7,1l0,0l0.8,0.4l1.1,0.6l0.9,0.5
	l1.1,0.6l0.9,0.5l1.1,0.6l0.9,0.5l0.6,0.3l0,0l0.4,0.2H20l0,0l0.6,0.3l3.4,1.8l13.9,58.2c0.2,1.1,0.8,2.1,1.6,2.9
	c0.6,0.6,1.2,1,2,1.3c1.1,0.4,2.3,0.5,3.5,0.2l0,0H45.1z"/>
<polygon fill="#9D1C1C" points="120,94.6 47,110.6 25.9,22.5 92.6,15.7 "/>
<polygon fill="#C01C1C" points="119.5,86.9 45.9,102.1 34.5,56.5 31.8,45.4 26.1,22.5 95.6,12 "/>
<path fill="#9D1C1C" d="M47.9,110.4l-0.2,0.1c-1.4,0.4-2.8,0.4-4.2-0.1c-0.8-0.3-1.4-0.7-2-1.3c-0.8-0.8-1.3-1.8-1.6-2.9L21.7,30
	c-0.5-1.9,0.2-3.9,1.7-5.2l2.8-2.4L47.9,110.4z"/>
<path fill="#F5F5F5" d="M118.5,94.2L46,110.3c-0.6,0.1-1.2,0.1-1.8-0.2l-0.1,0c-0.7-0.6-1.2-1.5-1.1-2.4v-1.5c0-1.3,0.7-2.6,1.8-3.3
	l0,0c0.7-0.5,1.5-0.8,2.4-1L118.9,87l-0.3,2.3c-0.1,1-0.2,1.9-0.2,2.9L118.5,94.2z"/>
<path fill="#9E9E9E" d="M118.9,87l-71.8,14.9c-0.9,0.2-1.7,0.5-2.4,1l0,0c-0.3,0.2-0.7,0.5-0.9,0.8l74.9-15.3L118.9,87z"/>
<linearGradient id="SVGID_1_" gradientUnits="userSpaceOnUse" x1="98.4" y1="61.96" x2="31.76" y2="61.96" gradientTransform="matrix(1 0 0 -1 0 128)">
	<stop  offset="0" style="stop-color:#000000;stop-opacity:0.4"/>
	<stop  offset="6.000000e-02" style="stop-color:#090202;stop-opacity:0.43"/>
	<stop  offset="0.16" style="stop-color:#230609;stop-opacity:0.52"/>
	<stop  offset="0.29" style="stop-color:#4C0E14;stop-opacity:0.67"/>
	<stop  offset="0.45" style="stop-color:#851923;stop-opacity:0.88"/>
	<stop  offset="0.53" style="stop-color:#A81F2C"/>
	<stop  offset="1" style="stop-color:#A81F2C;stop-opacity:0.2"/>
</linearGradient>
<path fill="url(#SVGID_1_)" d="M94.2,83.1l-11-9.5L31.8,45.4l2.8,11.2l44.8,23.7L93,84.9l5.3,1.8L94.2,83.1z"/>
<polygon fill="#FFEB3B" points="82.5,77.9 22.6,46.2 27,38.7 86.4,71.2 "/>
<polygon fill="#F09712" points="82.5,77.9 22.6,46.2 24.1,43.7 84,75.4 "/>
<polygon fill="#FFAB40" points="85.2,73.3 25.7,41 27,38.7 86.4,71.2 "/>
<polygon fill="#F3C88E" points="86.4,71.2 82.5,77.9 96.2,82.6 97.3,80.7 "/>
<polygon fill="#F4F3D9" points="86.4,71.2 85.2,73.3 96.9,81.4 97.3,80.7 "/>
<polygon fill="#DAA88E" points="84,75.4 82.5,77.9 96.2,82.6 96.4,82.3 "/>
<polygon fill="#263238" points="97.3,80.7 96.2,82.6 101.6,84.4 "/>
<polygon fill="#E0E0E0" points="27,38.7 22.6,46.2 22,45.9 20.8,45.2 19.9,44.7 18.8,44.1 17.8,43.6 16.7,43 15.8,42.5 14.6,41.8 
	13.6,41.3 17.8,33.8 18.9,34.4 20.1,35 21,35.5 22.2,36.1 23.1,36.6 24.2,37.2 25.2,37.7 26.3,38.3 "/>
<polygon fill="#616161" points="20.8,35.3 16.5,42.8 15.3,42.2 19.6,34.7 "/>
<polygon fill="#616161" points="22.9,36.4 18.5,44 17.4,43.3 21.7,35.8 "/>
<polygon fill="#616161" points="24.9,37.5 20.6,45.1 19.5,44.5 23.8,36.9 "/>
<polygon fill="#616161" points="27,38.7 22.6,46.2 21.5,45.6 25.9,38.1 "/>
<polygon fill="#E0E0E0" points="25.7,41 24.8,42.5 24,42.1 22.9,41.5 22,41 20.8,40.3 19.9,39.8 18.8,39.2 17.8,38.7 16.7,38.1 
	15.7,37.5 16.5,36.1 17.6,36.7 18.8,37.3 19.7,37.8 20.9,38.4 21.8,38.9 22.9,39.5 23.9,40 25,40.6 "/>
<path fill="#F28987" d="M18,33.9l-4.2,7.5l-1.7-1c-2-1.2-2.7-3.7-1.6-5.8c0,0,0,0,0,0l0.1-0.2c1.2-2,3.7-2.6,5.7-1.5L18,33.9z"/>
</svg>
