<?xml version="1.0" encoding="utf-8"?>
<!-- Generator: Adobe Illustrator 24.0.0, SVG Export Plug-In . SVG Version: 6.00 Build 0)  -->
<svg version="1.1" id="图层_1" xmlns="http://www.w3.org/2000/svg" xmlns:xlink="http://www.w3.org/1999/xlink" x="0px" y="0px"
	 viewBox="0 0 128 128" enable-background="new 0 0 128 128" xml:space="preserve">
<title>128</title>
<g id="扫描易">
	<g id="_128">
		<polygon fill="#ECECEC" points="10.9,99 29.4,51 98.6,51 117.1,99 		"/>
		<path fill="#5B6C74" d="M97.3,53l16.9,44H13.8l16.9-44H97.3 M100,49H28L8,101h112L100,49z"/>
		<path fill="#515151" d="M108,120H20c-6.6,0-12-5.4-12-12v-7h112v7C120,114.6,114.6,120,108,120z"/>
		<rect x="101" y="106" fill="#6CA524" width="8" height="8"/>
		<polygon fill="#13BFD7" points="36,54 23,92 106,92 92,54 		"/>
		<polygon fill="#E0E0E0" points="10.9,78 29.4,30 98.6,30 117.1,78 		"/>
		<path fill="#5B6C74" d="M97.3,32l16.9,44H13.8l16.9-44H97.3 M100,28H28L8,80h112L100,28z"/>
	</g>
</g>
</svg>
