<?xml version="1.0" encoding="utf-8"?>
<!-- Generator: Adobe Illustrator 24.0.0, SVG Export Plug-In . SVG Version: 6.00 Build 0)  -->
<svg version="1.1"
	 id="svg7384" xmlns:cc="http://creativecommons.org/ns#" xmlns:dc="http://purl.org/dc/elements/1.1/" xmlns:osb="http://www.openswatchbook.org/uri/2009/osb" xmlns:rdf="http://www.w3.org/1999/02/22-rdf-syntax-ns#" xmlns:svg="http://www.w3.org/2000/svg" opacity="0.8"
	 xmlns="http://www.w3.org/2000/svg" xmlns:xlink="http://www.w3.org/1999/xlink" x="0px" y="0px" viewBox="0 0 16 16"
	 style="enable-background:new 0 0 16 16;" xml:space="preserve">
<style type="text/css">
	.st0{fill:#1F2022;}
	.st1{fill:none;stroke:#1F2022;stroke-linecap:round;stroke-miterlimit:10;}
</style>
<g id="g1833" transform="translate(-652.00004,-280)">
	<rect id="rect8648" x="665" y="288" class="st0" width="1" height="1"/>
	<rect id="rect8648-2" x="653" y="288" class="st0" width="1" height="1"/>
	<rect id="rect8648-45" x="665" y="284" class="st0" width="1" height="1"/>
	<rect id="rect8648-2-8" x="653" y="284" class="st0" width="1" height="1"/>
	<rect id="rect8648-6" x="665" y="282" class="st0" width="1" height="1"/>
	<rect id="rect8648-2-0" x="653" y="282" class="st0" width="1" height="1"/>
	<rect id="rect8648-2-2" x="653" y="290" class="st0" width="1" height="1"/>
	<rect id="rect8648-2-6" x="653" y="292" class="st0" width="1" height="1"/>
	<rect id="rect8648-2-65" x="655" y="292" class="st0" width="1" height="1"/>
	<rect id="rect8648-2-1" x="657" y="292" class="st0" width="1" height="1"/>
	<rect id="rect8648-2-9" x="659" y="292" class="st0" width="1" height="1"/>
	<rect id="rect8648-2-01" x="655" y="282" class="st0" width="1" height="1"/>
	<rect id="rect8648-2-39" x="657" y="282" class="st0" width="1" height="1"/>
	<rect id="rect8648-2-50" x="659" y="282" class="st0" width="1" height="1"/>
	<rect id="rect8648-2-05" x="663" y="282" class="st0" width="1" height="1"/>
	<rect id="rect8648-2-9-6" x="661" y="292" class="st0" width="1" height="1"/>
	<rect id="rect8648-2-50-6" x="661" y="282" class="st0" width="1" height="1"/>
	<rect id="rect8648-45-3" x="665" y="286" class="st0" width="1" height="1"/>
	<rect id="rect8648-2-8-6" x="653" y="286" class="st0" width="1" height="1"/>
</g>
<line class="st1" x1="13.5" y1="10.5" x2="13.5" y2="14.5"/>
<line class="st1" x1="15.5" y1="12.5" x2="11.5" y2="12.5"/>
</svg>
