<svg id="图层_1" data-name="图层 1" xmlns="http://www.w3.org/2000/svg" xmlns:xlink="http://www.w3.org/1999/xlink" viewBox="0 0 128 128"><defs><style>.cls-1{fill:#e6e6e6;}.cls-2{fill:url(#未命名的渐变_27);}.cls-3{fill:#76c92f;}.cls-4{fill:#5f9b26;}.cls-5{fill:#457018;}.cls-6{fill:#cfd8dc;}.cls-7{fill:url(#未命名的渐变_13);}.cls-8{fill:#331e18;}.cls-9{fill:url(#未命名的渐变_7);}.cls-10{fill:#1a1a1a;}.cls-11{fill:#fff9c4;}</style><linearGradient id="未命名的渐变_27" x1="82.58" y1="41.35" x2="82.58" y2="8.65" gradientUnits="userSpaceOnUse"><stop offset="0" stop-color="#76c642"/><stop offset="0.99" stop-color="#5f9624"/></linearGradient><linearGradient id="未命名的渐变_13" x1="71.07" y1="89.06" x2="71.07" y2="43.13" gradientUnits="userSpaceOnUse"><stop offset="0" stop-color="#ef572e"/><stop offset="1" stop-color="#a52f14"/></linearGradient><linearGradient id="未命名的渐变_7" x1="45.08" y1="72" x2="45.08" y2="21.65" gradientUnits="userSpaceOnUse"><stop offset="0" stop-color="#29abe2"/><stop offset="1" stop-color="#0071bc"/></linearGradient></defs><title>shotwell128</title><rect class="cls-1" x="42" y="5" width="81" height="97" rx="8"/><path class="cls-2" d="M67.44,31.91c4.35-5,18.07,4.65,25.77,4.32s9.37,5.31,14.06,1.66c2.76-2.16,6.47-2,12.13-.76V8.65H45.77v32.7c3.4-.61,6.78-1.12,9.62-1.8C65.1,37.22,63.09,36.89,67.44,31.91Z"/><path class="cls-3" d="M45.77,55.1a5.27,5.27,0,0,1,1.25.06c9.37,1.66,10.71-8.64,17.74-7s12.72,7,15.73,5.65,1.68-6.31,16.74-2.32c10.09,2.67,16.57-3,22.17-4.35v-10c-5.66-1.24-9.37-1.4-12.13.76-4.69,3.65-6.36-2-14.06-1.66s-21.42-9.31-25.77-4.32-2.34,5.31-12,7.64c-2.84.68-6.22,1.19-9.62,1.8V55.1Z"/><path class="cls-4" d="M97.23,51.51c-15.06-4-13.73,1-16.74,2.32s-8.7-4-15.73-5.65-8.37,8.64-17.74,7a5.27,5.27,0,0,0-1.25-.06V65.24c2.92-2.22,6.49-3.47,10.62-2.11,12,4,14.73,3.33,22.09,0s13.39,6.32,22.09,4.65c5.14-1,12.61-5,18.83-6.29V47.16C113.8,48.5,107.32,54.18,97.23,51.51Z"/><path class="cls-5" d="M119.4,78V61.07c-6.22,1.33-13.69,5.32-18.83,6.3-8.7,1.66-14.72-8-22.09-4.65s-10,4-22.09,0c-4.13-1.37-7.7-.12-10.62,2.11V78Z"/><path class="cls-1" d="M115,11a2,2,0,0,1,2,2V94a2,2,0,0,1-2,2H50a2,2,0,0,1-2-2V13a2,2,0,0,1,2-2h65m0-6H50a8,8,0,0,0-8,8V94a8,8,0,0,0,8,8h65a8,8,0,0,0,8-8V13a8,8,0,0,0-8-8Z"/><path class="cls-6" d="M99.91,40H42.09A6.05,6.05,0,0,0,36,46v71a6.05,6.05,0,0,0,6.09,6H99.91a6.06,6.06,0,0,0,6.09-6V46A6.05,6.05,0,0,0,99.91,40Z"/><path class="cls-7" d="M49,89.06c-.09-2,8.41-25.47,8.41-25.47s2.9,10.8,2.9,10,2-12.22,2-12.22l11.57,10.8.58-4.55,4.92,8.53,8.68-15.35,8.38,17.91L100.21,77l2.68,5V43.13H39.25V88.88l5.43-7.95S48.43,87.86,49,89.06Z"/><path class="cls-8" d="M102.89,103V82.16l-2.68-5-3.76,1.71L88.07,60.93,79.39,76.28l-4.92-8.53-.58,4.55L62.32,61.5s-2,11.37-2,12.22-2.9-9.95-2.9-9.95S48.9,87.23,49,89.24c.08.17.1.22,0,.12a.21.21,0,0,1,0-.12c-.56-1.19-4.31-8.13-4.31-8.13l-5.43,8V103Z"/><path class="cls-6" d="M99.91,46H100v71a.13.13,0,0,1-.09,0H42s0,0,0,0V46s0,0,.1,0H99.91m0-6H42.09A6.05,6.05,0,0,0,36,46v71a6.05,6.05,0,0,0,6.09,6H99.91a6.06,6.06,0,0,0,6.09-6V46a6.05,6.05,0,0,0-6.09-6Z"/><rect class="cls-1" x="5" y="18" width="80" height="97" rx="8"/><polygon class="cls-9" points="8.72 21.65 9 72 81 71 81.45 21.65 8.72 21.65"/><polygon class="cls-10" points="76 69 72 69 72 66 64 66 64 69 61 69 61 63 57 63 57 69 55 69 55 54 53 54 53 69 52 69 52 63 50 63 50 57 46 57 46 63 44 63 44 69 41 69 41 65 27 65 27 69 24 69 24 62 17 62 17 69 14 69 14 65 9 65 8.72 91 81.45 91 81.45 61.1 76 61 76 69"/><circle class="cls-11" cx="29" cy="41" r="6"/><path class="cls-1" d="M77,24a2,2,0,0,1,2,2v81a2,2,0,0,1-2,2H13a2,2,0,0,1-2-2V26a2,2,0,0,1,2-2H77m0-6H13a8,8,0,0,0-8,8v81a8,8,0,0,0,8,8H77a8,8,0,0,0,8-8V26a8,8,0,0,0-8-8Z"/></svg>