<svg id="图层_1" data-name="图层 1" xmlns="http://www.w3.org/2000/svg" viewBox="0 0 128 128"><defs><style>.cls-1{fill:#44d600;}.cls-14,.cls-2,.cls-5,.cls-8{fill:#fff;}.cls-2{opacity:0.34;}.cls-3{fill:#36b100;}.cls-4{fill:#293277;}.cls-5{opacity:0.24;}.cls-6{fill:#1a237e;}.cls-7{fill:#d82323;}.cls-8{opacity:0.33;}.cls-9{fill:#b71c1c;}.cls-10{fill:#cfd8dc;}.cls-11{fill:#e7d8df;}.cls-12{fill:#90a4ae;}.cls-13{fill:#ffff39;}.cls-14{opacity:0.43;}.cls-15{fill:#e3eb30;}</style></defs><title>simon-112</title><path class="cls-1" d="M119.73,23.24a6.64,6.64,0,0,0-1.31-2.85,6.46,6.46,0,0,0-2.81-1.95,9.62,9.62,0,0,0-4.25-.39,21.67,21.67,0,0,0-5.18.84,23,23,0,0,0-3.86,1.56l0,0a23.41,23.41,0,0,0-5.59,3.93L72.83,46.85a4.72,4.72,0,0,0-1.27,1.67,5.21,5.21,0,0,0-.4,2.4,4.94,4.94,0,0,0,.33,1.88,5,5,0,0,0,1.38,1.82,5.79,5.79,0,0,0,1.57,1.17,5.92,5.92,0,0,0,2.48.59h0a7,7,0,0,0,3.82-1l31.61-18.67a13.88,13.88,0,0,0,2.48-1.82l0,0a17.45,17.45,0,0,0,2.68-3.24c1.31-2,2-3,2.29-4.68A8.87,8.87,0,0,0,119.73,23.24Z"/><path class="cls-2" d="M116.88,22.32a2.91,2.91,0,0,0-1.17-1.17c-1-.58-1.93-.48-3.41-.45a12.38,12.38,0,0,0-3.27.52,20.11,20.11,0,0,0-3.47,1.36,33.26,33.26,0,0,0-3.47,1.89c-1,.59-1.75,1.16-2.36,1.62h0L74.42,49.36a5.92,5.92,0,0,0-1.06,1.28h0a2.83,2.83,0,0,0-.52,1.25,1.89,1.89,0,0,0,.52,1.43,2.33,2.33,0,0,0,3-.15l35.09-21.64h0a10.11,10.11,0,0,0,1.89-1.29,11.41,11.41,0,0,0,3.08-4.42C117.38,23.56,117.05,22.66,116.88,22.32Z"/><path class="cls-3" d="M116.61,21.25a2.85,2.85,0,0,0-1.17-1.17c-1-.58-1.93-.48-3.41-.46a13.27,13.27,0,0,0-3.27.52,20.16,20.16,0,0,0-3.47,1.37,33.41,33.41,0,0,0-3.47,1.88c-1,.6-1.75,1.16-2.36,1.63h0L74.15,48.29a5.87,5.87,0,0,0-1.06,1.27v0a2.78,2.78,0,0,0-.52,1.25,1.9,1.9,0,0,0,.52,1.43,2.35,2.35,0,0,0,3-.15l35.09-21.64h0A10.62,10.62,0,0,0,113,29.18a11.48,11.48,0,0,0,3.08-4.42C117.11,22.48,116.78,21.59,116.61,21.25Z"/><path class="cls-4" d="M11.87,107.76a6.78,6.78,0,0,1-2.52-1.9,6.48,6.48,0,0,1-1.28-3.16,9.28,9.28,0,0,1,.57-4.21,20.68,20.68,0,0,1,2-4.81A22.63,22.63,0,0,1,13,90.29l0,0a23.23,23.23,0,0,1,5.11-4.53L45.54,67.66a4.77,4.77,0,0,1,1.92-.85A5.15,5.15,0,0,1,49.9,67a5,5,0,0,1,1.78.74,5.16,5.16,0,0,1,1.48,1.74,5.85,5.85,0,0,1,.8,1.78,6,6,0,0,1,0,2.54v0a6.85,6.85,0,0,1-1.83,3.47L26.73,103.67a14.32,14.32,0,0,1-2.34,2l0,0a18.14,18.14,0,0,1-3.79,1.87c-2.23.82-3.41,1.25-5.11,1.17A9.12,9.12,0,0,1,11.87,107.76Z"/><path class="cls-5" d="M11.14,104.83a2.8,2.8,0,0,1-.88-1.4c-.35-1.06,0-2,.31-3.39A12.16,12.16,0,0,1,11.82,97a18.92,18.92,0,0,1,2.11-3A32.67,32.67,0,0,1,16.56,91c.8-.79,1.53-1.43,2.12-1.92h0L47.19,69.8a5.92,5.92,0,0,1,1.49-.74h0a2.77,2.77,0,0,1,1.36-.23,1.92,1.92,0,0,1,1.28.83,2.28,2.28,0,0,1-.81,2.81L21.43,101.58h0a10.47,10.47,0,0,1-1.7,1.54,11.46,11.46,0,0,1-5,2C12.25,105.59,11.44,105.07,11.14,104.83Z"/><path class="cls-6" d="M10.6,104.3a2.84,2.84,0,0,1-.88-1.4c-.35-1.07,0-2,.31-3.4a12.16,12.16,0,0,1,1.25-3,18.92,18.92,0,0,1,2.11-3A32.67,32.67,0,0,1,16,90.46c.8-.79,1.53-1.43,2.12-1.92h0L46.65,69.26a5.92,5.92,0,0,1,1.49-.74h0a2.87,2.87,0,0,1,1.35-.23,1.92,1.92,0,0,1,1.29.83A2.31,2.31,0,0,1,50,71.94L20.89,101h0a10.93,10.93,0,0,1-1.7,1.55,11.54,11.54,0,0,1-5,2C11.71,105.05,10.9,104.54,10.6,104.3Z"/><path class="cls-7" d="M65.17,39.33a3.94,3.94,0,0,0-1.66-3.16,2.89,2.89,0,0,0-.6-.33c-.32-.14-1.4-.56-4.19.26a21,21,0,0,0-4.84,2.21,34.81,34.81,0,0,0-5.44,3.76,28.7,28.7,0,0,0-4,4.23,6.87,6.87,0,0,0-1.71,3.44v0a3.43,3.43,0,0,0,1.45,3.16l9.82,7h0a6.85,6.85,0,0,0,1.76.46,8.13,8.13,0,0,0,4.65-1.11,9.24,9.24,0,0,0,3.73-2.79l.25-.36a7.75,7.75,0,0,0,1.22-4.52Z"/><path class="cls-8" d="M63.67,38.85h0a1.86,1.86,0,0,0-1-1.24A2.66,2.66,0,0,0,61,37.37,14,14,0,0,0,58.7,38a21.83,21.83,0,0,0-3.13,1.42c-.82.44-1.47.88-2.51,1.55a25.54,25.54,0,0,0-3.63,3A29.92,29.92,0,0,0,47,46.4a26.9,26.9,0,0,0-1.72,2.28,6.14,6.14,0,0,0-1,1.91h0a1.85,1.85,0,0,0,.87,2.11L52.52,57a3.46,3.46,0,0,0,3.1.2h0l1.43-.66a6.88,6.88,0,0,0,1.21-.69c.59-.41,1.62-1.16,3.11-2.3a9.2,9.2,0,0,0,2.11-2.26h0A3.12,3.12,0,0,0,64,49.44Z"/><path class="cls-9" d="M63.66,38.09h0a1.87,1.87,0,0,0-1-1.28,2.62,2.62,0,0,0-1.73-.25,15.79,15.79,0,0,0-2.33.63,23.08,23.08,0,0,0-3.2,1.47c-.85.45-1.52.9-2.59,1.59A25.94,25.94,0,0,0,49,43.31a27.56,27.56,0,0,0-2.52,2.53,25.28,25.28,0,0,0-1.77,2.34,6.38,6.38,0,0,0-1.07,2h0a1.92,1.92,0,0,0,.9,2.17L52.2,56.7a3.56,3.56,0,0,0,3.19.21h0l1.47-.67a7.37,7.37,0,0,0,1.25-.72c.61-.42,1.66-1.18,3.19-2.36a9.3,9.3,0,0,0,2.16-2.32h0A3.29,3.29,0,0,0,64,49Z"/><path class="cls-10" d="M70.62,58l-2.81-3.73a1.32,1.32,0,0,1,.25.52,3.61,3.61,0,0,1-.51,2.57,15.91,15.91,0,0,1-4.64,5,16.23,16.23,0,0,1-6.18,3h0a3.5,3.5,0,0,1-2.78-.34l.06.18.47.61,2,2.66c1.2,1.6,5.35.54,9.26-2.35S71.82,59.62,70.62,58Z"/><path class="cls-11" d="M54.41,65.78a4.85,4.85,0,0,0,2.19,0h0a17,17,0,0,0,6.48-3.09A16.57,16.57,0,0,0,68,57.47a4.49,4.49,0,0,0,.62-2.18l-.76-1a1.32,1.32,0,0,1,.25.52,3.61,3.61,0,0,1-.51,2.57,15.91,15.91,0,0,1-4.64,5,16.23,16.23,0,0,1-6.18,3h0a3.5,3.5,0,0,1-2.78-.34l.06.18Z"/><path class="cls-12" d="M67.55,57.39a16,16,0,0,1-4.64,5,16.42,16.42,0,0,1-6.18,3h0c-1.41.26-2.53.07-3.07-.64-1.2-1.6,1-5.24,4.9-8.14s8.06-3.94,9.26-2.34C68.35,55,68.21,56.11,67.55,57.39Z"/><path class="cls-13" d="M97,83.59c0-3.23-.61-4.5-.88-5-.07-.14-.14-.28-.22-.41A8.05,8.05,0,0,0,93,75.34L73.28,63.69a4.53,4.53,0,0,0-2.59-.64h0a11.26,11.26,0,0,0-3.53.86A16.6,16.6,0,0,0,63.47,66a15.69,15.69,0,0,0-2.57,2.21,14.46,14.46,0,0,0-1.79,2.38l0,0a8,8,0,0,0-1.08,4V100.8a6.53,6.53,0,0,0,.53,2.69v0c2.07,4.7,7.68,6,8.38,6.19a15.46,15.46,0,0,0,6.67-.17,26.66,26.66,0,0,0,8.65-3.33A27.11,27.11,0,0,0,92.4,97.1c1.85-2.59,3.09-4.33,3.89-7A20.34,20.34,0,0,0,97,83.59Z"/><path class="cls-14" d="M69.76,64.34c.86.38,3.3,1.52,4.63,2.17s3.12,1.57,6,3.19c4.4,2.52,7.18,4.34,8.9,5.52,3.36,2.31,4,3,4.51,4a10.25,10.25,0,0,1,.79,6.24A18.21,18.21,0,0,1,91.87,93a26.42,26.42,0,0,1-6.81,7.41,37,37,0,0,1-6.48,4.16,27,27,0,0,1-7.46,2.85,12.67,12.67,0,0,1-5.76.26c-1.18-.26-3.75-.8-5.24-2.92-.86-1.22-1-2.69-1.18-5.59a53.22,53.22,0,0,1,0-5.65c0-1.59,0-3.55-.06-7.47-.09-4.63-.2-6.34,0-9.55.06-1.08.14-2,.19-2.54a5.74,5.74,0,0,1,1.67-3.88,41.21,41.21,0,0,1,3.85-3.43A21.36,21.36,0,0,1,69.76,64.34Z"/><path class="cls-15" d="M69.22,63.27c.86.38,3.29,1.52,4.63,2.17S77,67,79.8,68.62C84.21,71.14,87,73,88.71,74.15c3.36,2.3,4,3,4.51,4A10.25,10.25,0,0,1,94,84.35,18.21,18.21,0,0,1,91.33,92a26.22,26.22,0,0,1-6.81,7.4A36.44,36.44,0,0,1,78,103.51a26.65,26.65,0,0,1-7.46,2.86,12.71,12.71,0,0,1-5.77.26c-1.17-.26-3.74-.8-5.23-2.92-.86-1.22-1-2.7-1.18-5.59a53.22,53.22,0,0,1,0-5.65c0-1.59,0-3.55-.07-7.47-.08-4.63-.19-6.35,0-9.55.07-1.09.15-2,.2-2.54A5.76,5.76,0,0,1,60.2,69a42.08,42.08,0,0,1,3.85-3.42A21.36,21.36,0,0,1,69.22,63.27Z"/></svg>