<svg id="图层_1" data-name="图层 1" xmlns="http://www.w3.org/2000/svg" xmlns:xlink="http://www.w3.org/1999/xlink" viewBox="0 0 128 128"><defs><style>.cls-1{fill:#f5f5f5;}.cls-2{fill:url(#未命名的渐变_81);}.cls-3{fill:url(#未命名的渐变_109);}.cls-4{fill:url(#未命名的渐变_133);}</style><linearGradient id="未命名的渐变_81" x1="-116.32" y1="-210.48" x2="-116.32" y2="-269.35" gradientTransform="translate(329.93 83.22) rotate(-60)" gradientUnits="userSpaceOnUse"><stop offset="0" stop-color="#cce0f4"/><stop offset="0" stop-color="#cadbeb"/><stop offset="0" stop-color="#c5ccd1"/><stop offset="0" stop-color="#bdb5a8"/><stop offset="0" stop-color="#b2956f"/><stop offset="0" stop-color="#aa7d45"/><stop offset="0.55" stop-color="#a69693"/><stop offset="0.89" stop-color="#4264a1"/></linearGradient><linearGradient id="未命名的渐变_109" x1="69.07" y1="192.11" x2="69.07" y2="133.33" gradientTransform="matrix(0.82, -0.57, 0.57, 0.82, -85.92, -29.67)" gradientUnits="userSpaceOnUse"><stop offset="0" stop-color="#cce0f4"/><stop offset="0" stop-color="#cad9eb"/><stop offset="0" stop-color="#c5c5d1"/><stop offset="0" stop-color="#bca4a8"/><stop offset="0" stop-color="#b1786f"/><stop offset="0" stop-color="#aa5f4f"/><stop offset="0.48" stop-color="#b26945"/><stop offset="0.89" stop-color="#b98d50"/></linearGradient><linearGradient id="未命名的渐变_133" x1="216.51" y1="664.16" x2="216.51" y2="605.55" gradientTransform="translate(-259.46 -523.61) rotate(-10)" gradientUnits="userSpaceOnUse"><stop offset="0" stop-color="#cce0f4"/><stop offset="0" stop-color="#cdddeb"/><stop offset="0" stop-color="#d0d5d1"/><stop offset="0" stop-color="#d5c8a7"/><stop offset="0" stop-color="#dcb66e"/><stop offset="0" stop-color="#e59f25"/><stop offset="0" stop-color="#e99300"/><stop offset="0.1" stop-color="#e29e1b"/><stop offset="0.48" stop-color="#c9c57f"/><stop offset="0.89" stop-color="#3f88da"/></linearGradient></defs><title>simple-image-reducer-112</title><polygon class="cls-1" points="115.41 40.68 69.43 120 12.59 87.32 58.57 8 115.41 40.68"/><polygon class="cls-2" points="110.58 42.2 68.33 115.07 17.42 85.8 59.67 12.93 110.58 42.2"/><polygon class="cls-1" points="120.5 64.5 45.15 117.03 7.5 63.5 82.85 10.97 120.5 64.5"/><polygon class="cls-3" points="115.48 63.84 46.24 112.1 12.52 64.16 81.76 15.9 115.48 63.84"/><polygon class="cls-1" points="115 88.23 24.41 104.12 13 39.77 103.59 23.88 115 88.23"/><polygon class="cls-4" points="110.73 85.52 27.49 100.12 17.27 42.48 100.51 27.88 110.73 85.52"/></svg>