<?xml version="1.0" encoding="utf-8"?>
<!-- Generator: Adobe Illustrator 24.0.0, SVG Export Plug-In . SVG Version: 6.00 Build 0)  -->
<svg version="1.1" id="图层_1" xmlns="http://www.w3.org/2000/svg" xmlns:xlink="http://www.w3.org/1999/xlink" x="0px" y="0px"
	 viewBox="0 0 128 128" enable-background="new 0 0 128 128" xml:space="preserve">
<title>sm-112</title>
<polygon fill="#263238" points="119,105.5 9.1,105.5 9,102.6 26.1,78.2 101.9,78.2 119,102.6 "/>
<rect x="26.1" y="22.5" fill="#263238" width="75.8" height="55.7"/>
<polygon fill="#F5F5F5" points="117.9,102.5 9.9,102.6 28.3,76.6 99.7,76.5 "/>
<rect x="28.3" y="24.1" fill="#E0E0E0" width="71.5" height="52.5"/>
<rect x="30.1" y="26.9" fill="#607D8B" width="67.7" height="46.8"/>
<rect x="32.5" y="29.3" fill="#FFFFFF" width="62.9" height="42"/>
<polygon fill="#CFD8DC" points="112,100.7 96.3,78.3 31.7,78.3 16,100.7 "/>
<polygon fill="#9E9E9E" points="99.9,95.2 28,95.2 29.4,93.2 30,92.4 30.9,91.1 31.4,90.3 32.3,89 32.9,88.2 33.8,86.9 34.4,86.1 
	35.3,84.8 35.9,83.9 37,82.3 90.8,82.3 92,83.9 92.5,84.8 93.4,86.1 94,86.9 94.9,88.2 95.5,89 96.4,90.3 97,91.1 97.9,92.4 
	98.5,93.2 "/>
<path d="M68.3,66.7l-2.8-7H52.6l-2.9,7h-5l12.1-28.9h4.6l12.1,28.9H68.3z M54.3,55.6h9.6l-3.9-10.1c-0.4-0.9-0.6-1.8-0.7-2.8h-0.1
	c-0.1,1-0.4,1.9-0.8,2.8L54.3,55.6z"/>
<rect x="78.7" y="37" width="4.7" height="20.3"/>
<rect x="78.7" y="61.3" width="4.7" height="5.2"/>
<polygon fill="#263238" points="92.5,84.8 35.3,84.8 35.9,83.9 92,83.9 "/>
<polygon fill="#263238" points="94,86.9 33.8,86.9 34.4,86.1 93.4,86.1 "/>
<polygon fill="#263238" points="95.5,89 32.3,89 32.9,88.2 94.9,88.2 "/>
<polygon fill="#263238" points="97,91.1 30.9,91.1 31.4,90.3 96.4,90.3 "/>
<polygon fill="#263238" points="98.5,93.2 29.4,93.2 30,92.4 97.9,92.4 "/>
<polygon fill="#263238" points="40.4,82.3 39.5,83.9 38.9,84.8 38.1,86.1 37.6,86.9 36.8,88.2 36.3,89 35.5,90.3 35,91.1 34.2,92.4 
	33.7,93.2 32.4,95.2 31.8,95.2 33,93.2 33.6,92.4 34.4,91.1 34.9,90.3 35.7,89 36.2,88.2 37,86.9 37.5,86.1 38.3,84.8 38.8,83.9 
	39.8,82.3 "/>
<polygon fill="#263238" points="43.8,82.3 42.9,83.9 42.4,84.8 41.7,86.1 41.3,86.9 40.5,88.2 40.1,89 39.3,90.3 38.9,91.1 
	38.2,92.4 37.7,93.2 36.6,95.2 36,95.2 37.1,93.2 37.6,92.4 38.3,91.1 38.7,90.3 39.5,89 39.9,88.2 40.7,86.9 41.1,86.1 41.8,84.8 
	42.3,83.9 43.2,82.3 "/>
<polygon fill="#263238" points="46.9,82.3 46.1,83.9 45.7,84.8 45,86.1 44.6,86.9 44,88.2 43.5,89 42.9,90.3 42.5,91.1 41.8,92.4 
	41.4,93.2 40.4,95.2 39.8,95.2 40.8,93.2 41.2,92.4 41.9,91.1 42.3,90.3 43,89 43.4,88.2 44,86.9 44.4,86.1 45.1,84.8 45.5,83.9 
	46.3,82.3 "/>
<polygon fill="#263238" points="50.2,82.3 49.5,83.9 49.1,84.8 48.5,86.1 48.2,86.9 47.6,88.2 47.2,89 46.7,90.3 46.3,91.1 
	45.7,92.4 45.3,93.2 44.5,95.2 43.9,95.2 44.8,93.2 45.1,92.4 45.7,91.1 46.1,90.3 46.7,89 47,88.2 47.6,86.9 48,86.1 48.5,84.8 
	48.9,83.9 49.6,82.3 "/>
<polygon fill="#263238" points="53.3,82.3 52.8,83.9 52.4,84.8 52,86.1 51.6,86.9 51.1,88.2 50.8,89 50.3,90.3 50,91.1 49.5,92.4 
	49.2,93.2 48.5,95.2 47.9,95.2 48.7,93.2 49,92.4 49.5,91.1 49.8,90.3 50.3,89 50.6,88.2 51.1,86.9 51.4,86.1 51.9,84.8 52.2,83.9 
	52.8,82.3 "/>
<polygon fill="#263238" points="56.4,82.3 56,83.9 55.8,84.8 55.4,86.1 55.2,86.9 54.9,88.2 54.7,89 54.3,90.3 54.1,91.1 53.8,92.4 
	53.5,93.2 53,95.2 52.5,95.2 53,93.2 53.2,92.4 53.6,91.1 53.8,90.3 54.1,89 54.3,88.2 54.7,86.9 54.9,86.1 55.2,84.8 55.4,83.9 
	55.9,82.3 "/>
<polygon fill="#263238" points="59.5,82.3 59.2,83.9 59.1,84.8 58.9,86.1 58.8,86.9 58.6,88.2 58.5,89 58.3,90.3 58.2,91.1 58,92.4 
	57.9,93.2 57.6,95.2 57.1,95.2 57.3,93.2 57.5,92.4 57.7,91.1 57.8,90.3 58,89 58.1,88.2 58.3,86.9 58.4,86.1 58.6,84.8 58.7,83.9 
	58.9,82.3 "/>
<polygon fill="#263238" points="62.3,82.3 62.3,83.9 62.3,84.8 62.2,86.1 62.2,86.9 62.1,88.2 62.1,89 62,90.3 62,91.1 62,92.4 
	61.9,93.2 61.9,95.2 61.3,95.2 61.4,93.2 61.4,92.4 61.5,91.1 61.5,90.3 61.6,89 61.6,88.2 61.6,86.9 61.7,86.1 61.7,84.8 
	61.8,83.9 61.8,82.3 "/>
<polygon fill="#263238" points="66.3,95.2 65.8,95.2 65.7,93.2 65.6,92.4 65.6,91.1 65.6,90.3 65.5,89 65.5,88.2 65.4,86.9 
	65.4,86.1 65.3,84.8 65.3,83.9 65.2,82.3 65.8,82.3 65.8,83.9 65.9,84.8 65.9,86.1 65.9,86.9 66,88.2 66,89 66.1,90.3 66.1,91.1 
	66.2,92.4 66.2,93.2 "/>
<polygon fill="#263238" points="70.3,95.2 69.8,95.2 69.6,93.2 69.5,92.4 69.4,91.1 69.3,90.3 69.2,89 69.1,88.2 69,86.9 68.9,86.1 
	68.8,84.8 68.7,83.9 68.6,82.3 69.1,82.3 69.3,83.9 69.3,84.8 69.5,86.1 69.6,86.9 69.7,88.2 69.7,89 69.9,90.3 69.9,91.1 
	70.1,92.4 70.1,93.2 "/>
<polygon fill="#263238" points="74.8,95.2 74.3,95.2 73.9,93.2 73.7,92.4 73.5,91.1 73.3,90.3 73.1,89 72.9,88.2 72.6,86.9 
	72.5,86.1 72.2,84.8 72,83.9 71.7,82.3 72.3,82.3 72.6,83.9 72.7,84.8 73,86.1 73.2,86.9 73.4,88.2 73.6,89 73.8,90.3 74,91.1 
	74.3,92.4 74.4,93.2 "/>
<polygon fill="#263238" points="79.5,95.2 79,95.2 78.3,93.2 78.1,92.4 77.7,91.1 77.4,90.3 77,89 76.8,88.2 76.4,86.9 76.1,86.1 
	75.7,84.8 75.4,83.9 74.9,82.3 75.5,82.3 76,83.9 76.3,84.8 76.7,86.1 76.9,86.9 77.3,88.2 77.6,89 78,90.3 78.3,91.1 78.7,92.4 
	78.9,93.2 "/>
<polygon fill="#263238" points="84,95.2 83.4,95.2 82.6,93.2 82.3,92.4 81.8,91.1 81.4,90.3 80.9,89 80.6,88.2 80.1,86.9 79.7,86.1 
	79.2,84.8 78.9,83.9 78.2,82.3 78.8,82.3 79.4,83.9 79.8,84.8 80.3,86.1 80.6,86.9 81.2,88.2 81.5,89 82,90.3 82.3,91.1 82.9,92.4 
	83.2,93.2 "/>
<polygon fill="#263238" points="88.3,95.2 87.7,95.2 86.8,93.2 86.4,92.4 85.8,91.1 85.4,90.3 84.8,89 84.5,88.2 83.9,86.9 
	83.5,86.1 82.9,84.8 82.5,83.9 81.8,82.3 82.4,82.3 83.1,83.9 83.5,84.8 84.1,86.1 84.5,86.9 85.1,88.2 85.4,89 86,90.3 86.4,91.1 
	87,92.4 87.4,93.2 "/>
<polygon fill="#263238" points="92.1,95.2 91.5,95.2 90.4,93.2 90,92.4 89.4,91.1 89,90.3 88.3,89 87.9,88.2 87.2,86.9 86.8,86.1 
	86.2,84.8 85.8,83.9 84.9,82.3 85.5,82.3 86.3,83.9 86.8,84.8 87.4,86.1 87.8,86.9 88.5,88.2 88.9,89 89.6,90.3 90,91.1 90.6,92.4 
	91,93.2 "/>
<polygon fill="#263238" points="88.7,82.3 89.6,83.9 90.1,84.8 90.8,86.1 91.3,86.9 92.1,88.2 92.5,89 93.3,90.3 93.7,91.1 
	94.5,92.4 95,93.2 96.1,95.2 95.5,95.2 94.3,93.2 93.9,92.4 93.1,91.1 92.7,90.3 91.9,89 91.4,88.2 90.7,86.9 90.2,86.1 89.5,84.8 
	89,83.9 88.1,82.3 "/>
</svg>
