<?xml version="1.0" encoding="utf-8"?>
<!-- Generator: Adobe Illustrator 22.0.0, SVG Export Plug-In . SVG Version: 6.00 Build 0)  -->
<svg version="1.1" xmlns="http://www.w3.org/2000/svg" xmlns:xlink="http://www.w3.org/1999/xlink" x="0px" y="0px"
	 viewBox="0 0 128 128" style="enable-background:new 0 0 128 128;" xml:space="preserve">
<style type="text/css">
	.st0{fill:url(#SVGID_1_);}
	.st1{fill:url(#SVGID_2_);}
	.st2{fill:url(#SVGID_3_);}
	.st3{fill:url(#SVGID_4_);}
	.st4{fill:url(#SVGID_5_);}
	.st5{opacity:0.72;fill:#93BBFF;}
	.st6{fill:url(#SVGID_6_);}
	.st7{opacity:0.72;fill:#9BD1FF;}
	.st8{fill:url(#SVGID_7_);}
	.st9{fill:#FFFFFF;}
	.st10{opacity:0.31;fill:#BBDEFB;}
	.st11{fill:#7986CB;}
	.st12{fill:url(#SVGID_8_);}
	.st13{fill:url(#SVGID_9_);}
	.st14{fill:url(#SVGID_10_);}
	.st15{fill:url(#SVGID_11_);}
	.st16{opacity:0.15;fill:#536DFE;}
	.st17{fill:url(#SVGID_12_);}
	.st18{fill:url(#SVGID_13_);}
	.st19{fill:url(#SVGID_14_);}
	.st20{fill:url(#SVGID_15_);}
	.st21{fill:url(#SVGID_16_);}
	.st22{fill:url(#SVGID_17_);}
	.st23{fill:url(#SVGID_18_);}
	.st24{fill:url(#SVGID_19_);}
	.st25{fill:url(#SVGID_20_);}
	.st26{fill:url(#SVGID_21_);}
	.st27{fill:url(#SVGID_22_);}
	.st28{fill:url(#SVGID_23_);}
	.st29{fill:url(#SVGID_24_);}
	.st30{fill:url(#SVGID_25_);}
	.st31{fill:url(#SVGID_26_);}
	.st32{fill:url(#SVGID_27_);}
	.st33{fill:url(#SVGID_28_);}
	.st34{fill:url(#SVGID_29_);}
	.st35{fill:url(#SVGID_30_);}
	.st36{fill:url(#SVGID_31_);}
	.st37{fill:url(#SVGID_32_);}
	.st38{fill:url(#SVGID_33_);}
	.st39{fill:url(#SVGID_34_);}
	.st40{fill:url(#SVGID_35_);}
	.st41{fill:url(#SVGID_36_);}
	.st42{fill:url(#SVGID_37_);}
	.st43{fill:url(#SVGID_38_);}
	.st44{fill:url(#SVGID_39_);}
	.st45{fill:url(#SVGID_40_);}
	.st46{fill:url(#SVGID_41_);}
	.st47{fill:url(#SVGID_42_);}
	.st48{fill:url(#SVGID_43_);}
	.st49{fill:url(#SVGID_44_);}
	.st50{fill:url(#SVGID_45_);}
	.st51{fill:url(#SVGID_46_);}
	.st52{fill:url(#SVGID_47_);}
	.st53{fill:url(#SVGID_48_);}
	.st54{fill:url(#SVGID_49_);}
	.st55{fill:url(#SVGID_50_);}
	.st56{fill:url(#SVGID_51_);}
	.st57{fill:url(#SVGID_52_);}
	.st58{fill:url(#SVGID_53_);}
	.st59{fill:url(#SVGID_54_);}
	.st60{fill:url(#SVGID_55_);}
	.st61{fill:url(#SVGID_56_);}
	.st62{fill:url(#SVGID_57_);}
	.st63{fill:url(#SVGID_58_);}
	.st64{fill:url(#SVGID_59_);}
	.st65{fill:url(#SVGID_60_);}
	.st66{fill:url(#SVGID_61_);}
	.st67{fill:url(#SVGID_62_);}
	.st68{fill:url(#SVGID_63_);}
	.st69{fill:url(#SVGID_64_);}
	.st70{fill:url(#SVGID_65_);}
	.st71{fill:url(#SVGID_66_);}
	.st72{fill:url(#SVGID_67_);}
	.st73{fill:url(#SVGID_68_);}
	.st74{fill:url(#SVGID_69_);}
	.st75{fill:url(#SVGID_70_);}
	.st76{fill:url(#SVGID_71_);}
	.st77{fill:url(#SVGID_72_);}
	.st78{fill:url(#SVGID_73_);}
	.st79{fill:url(#SVGID_74_);}
	.st80{fill:url(#SVGID_75_);}
	.st81{fill:url(#SVGID_76_);}
	.st82{fill:url(#SVGID_77_);}
	.st83{fill:url(#SVGID_78_);}
	.st84{fill:url(#SVGID_79_);}
	.st85{fill:url(#SVGID_80_);}
	.st86{fill:url(#SVGID_81_);}
	.st87{fill:url(#SVGID_82_);}
	.st88{fill:url(#SVGID_83_);}
	.st89{fill:url(#SVGID_84_);}
	.st90{fill:url(#SVGID_85_);}
	.st91{fill:url(#SVGID_86_);}
	.st92{fill:url(#SVGID_87_);}
	.st93{fill:url(#SVGID_88_);}
	.st94{fill:url(#SVGID_89_);}
	.st95{fill:url(#SVGID_90_);}
	.st96{fill:url(#SVGID_91_);}
	.st97{fill:url(#SVGID_92_);}
	.st98{fill:url(#SVGID_93_);}
	.st99{fill:url(#SVGID_94_);}
	.st100{fill:url(#SVGID_95_);}
	.st101{fill:url(#SVGID_96_);}
	.st102{fill:url(#SVGID_97_);}
	.st103{fill:url(#SVGID_98_);}
	.st104{fill:url(#SVGID_99_);}
	.st105{fill:#BB904C;}
	.st106{fill:#B59864;}
	.st107{fill:#9C9684;}
	.st108{fill:#C9A15E;}
	.st109{fill:#B16832;}
	.st110{fill:#E6D3B1;}
	.st111{fill:#BE944F;}
	.st112{fill:#A7A392;}
	.st113{fill:#BA793C;}
	.st114{fill:#E8CBA1;}
	.st115{fill:#AEADA8;}
	.st116{fill:#CE9C5E;}
	.st117{fill:#A27F4A;}
	.st118{fill:#B4A390;}
	.st119{fill:#645445;}
	.st120{fill:#704D26;}
	.st121{fill:#562F0E;}
	.st122{fill:#AC5B03;}
	.st123{fill:#D08416;}
	.st124{fill:#D37400;}
	.st125{opacity:0.7;fill:#825627;}
	.st126{opacity:0.29;fill:#E6D3B1;}
	.st127{fill:#EEE6BB;}
	.st128{fill:#F2EDD5;}
	.st129{opacity:0.64;fill:#AA974F;}
	.st130{fill:#AA974F;}
	.st131{fill:#2672BA;}
	.st132{fill:#32A328;}
	.st133{fill:#B3E5FC;}
	.st134{fill:#B71C1C;}
	.st135{fill:url(#SVGID_100_);}
	.st136{fill:url(#SVGID_101_);}
	.st137{fill:url(#SVGID_102_);}
	.st138{fill:url(#SVGID_103_);}
	.st139{fill:url(#SVGID_104_);}
	.st140{fill:url(#SVGID_105_);}
	.st141{fill:#602513;}
	.st142{fill:#8C8985;}
	.st143{fill:#A6A29E;}
	.st144{fill:url(#SVGID_106_);}
	.st145{fill:url(#SVGID_107_);}
	.st146{fill:url(#SVGID_108_);}
	.st147{fill:url(#SVGID_109_);}
	.st148{opacity:0.5;fill:#9E9E9E;}
	.st149{fill:#9E9E9E;}
	.st150{fill:url(#SVGID_110_);}
	.st151{fill:url(#SVGID_111_);}
	.st152{fill:url(#SVGID_112_);}
	.st153{fill:url(#SVGID_113_);}
	.st154{fill:url(#SVGID_114_);}
	.st155{fill:url(#SVGID_115_);}
	.st156{fill:url(#SVGID_116_);}
	.st157{fill:url(#SVGID_117_);}
	.st158{fill:url(#SVGID_118_);}
	.st159{fill:url(#SVGID_119_);}
	.st160{fill:url(#SVGID_120_);}
	.st161{fill:url(#SVGID_121_);}
	.st162{fill:url(#SVGID_122_);}
	.st163{fill:url(#SVGID_123_);}
	.st164{fill:url(#SVGID_124_);}
	.st165{fill:url(#SVGID_125_);}
	.st166{fill:url(#SVGID_126_);}
	.st167{fill:url(#SVGID_127_);}
	.st168{fill:url(#SVGID_128_);}
	.st169{fill:url(#SVGID_129_);}
	.st170{fill:url(#SVGID_130_);}
	.st171{fill:url(#SVGID_131_);}
	.st172{fill:url(#SVGID_132_);}
	.st173{fill:url(#SVGID_133_);}
	.st174{fill:url(#SVGID_134_);}
	.st175{fill:url(#SVGID_135_);}
	.st176{fill:url(#SVGID_136_);}
	.st177{fill:url(#SVGID_137_);}
	.st178{fill:url(#SVGID_138_);}
	.st179{fill:url(#SVGID_139_);}
	.st180{fill:url(#SVGID_140_);}
	.st181{fill:url(#SVGID_141_);}
	.st182{fill:url(#SVGID_142_);}
	.st183{fill:url(#SVGID_143_);}
	.st184{fill:url(#SVGID_144_);}
	.st185{fill:url(#SVGID_145_);}
	.st186{fill:url(#SVGID_146_);}
	.st187{fill:url(#SVGID_147_);}
	.st188{fill:url(#SVGID_148_);}
	.st189{fill:url(#SVGID_149_);}
	.st190{fill:url(#SVGID_150_);}
	.st191{fill:url(#SVGID_151_);}
	.st192{fill:url(#SVGID_152_);}
	.st193{fill:url(#SVGID_153_);}
	.st194{fill:url(#SVGID_154_);}
	.st195{fill:url(#SVGID_155_);}
	.st196{fill:url(#SVGID_156_);}
	.st197{fill:url(#SVGID_157_);}
	.st198{fill:url(#SVGID_158_);}
	.st199{fill:url(#SVGID_159_);}
	.st200{fill:url(#SVGID_160_);}
	.st201{fill:url(#SVGID_161_);}
	.st202{fill:url(#SVGID_162_);}
	.st203{fill:url(#SVGID_163_);}
	.st204{fill:url(#SVGID_164_);}
	.st205{fill:url(#SVGID_165_);}
	.st206{fill:url(#SVGID_166_);}
	.st207{fill:url(#SVGID_167_);}
	.st208{fill:url(#SVGID_168_);}
	.st209{fill:url(#SVGID_169_);}
	.st210{fill:url(#SVGID_170_);}
	.st211{fill:url(#SVGID_171_);}
	.st212{fill:url(#SVGID_172_);}
	.st213{fill:url(#SVGID_173_);}
	.st214{fill:url(#SVGID_174_);}
	.st215{fill:url(#SVGID_175_);}
	.st216{fill:url(#SVGID_176_);}
	.st217{fill:url(#SVGID_177_);}
	.st218{fill:url(#SVGID_178_);}
	.st219{fill:url(#SVGID_179_);}
	.st220{fill:url(#SVGID_180_);}
	.st221{fill:url(#SVGID_181_);}
	.st222{fill:url(#SVGID_182_);}
	.st223{fill:url(#SVGID_183_);}
	.st224{fill:url(#SVGID_184_);}
	.st225{fill:url(#SVGID_185_);}
	.st226{fill:url(#SVGID_186_);}
	.st227{fill:url(#SVGID_187_);}
	.st228{fill:url(#SVGID_188_);}
	.st229{fill:url(#SVGID_189_);}
	.st230{fill:url(#SVGID_190_);}
	.st231{fill:url(#SVGID_191_);}
	.st232{fill:url(#SVGID_192_);}
	.st233{fill:url(#SVGID_193_);}
	.st234{fill:url(#SVGID_194_);}
	.st235{fill:url(#SVGID_195_);}
	.st236{fill:url(#SVGID_196_);}
	.st237{fill:url(#SVGID_197_);}
	.st238{fill:url(#SVGID_198_);}
	.st239{fill:url(#SVGID_199_);}
	.st240{fill:url(#SVGID_200_);}
	.st241{fill:url(#SVGID_201_);}
	.st242{fill:url(#SVGID_202_);}
	.st243{fill:url(#SVGID_203_);}
	.st244{fill:url(#SVGID_204_);}
	.st245{fill:url(#SVGID_205_);}
	.st246{fill:url(#SVGID_206_);}
	.st247{fill:url(#SVGID_207_);}
	.st248{fill:url(#SVGID_208_);}
	.st249{fill:url(#SVGID_209_);}
	.st250{fill:url(#SVGID_210_);}
	.st251{fill:url(#SVGID_211_);}
	.st252{fill:url(#SVGID_212_);}
	.st253{fill:url(#SVGID_213_);}
	.st254{fill:url(#SVGID_214_);}
	.st255{fill:url(#SVGID_215_);}
	.st256{fill:url(#SVGID_216_);}
	.st257{fill:url(#SVGID_217_);}
	.st258{fill:url(#SVGID_218_);}
	.st259{fill:url(#SVGID_219_);}
	.st260{fill:url(#SVGID_220_);}
	.st261{fill:url(#SVGID_221_);}
	.st262{fill:url(#SVGID_222_);}
	.st263{fill:url(#SVGID_223_);}
	.st264{fill:url(#SVGID_224_);}
	.st265{fill:url(#SVGID_225_);}
	.st266{fill:url(#SVGID_226_);}
	.st267{fill:url(#SVGID_227_);}
	.st268{fill:url(#SVGID_228_);}
	.st269{fill:url(#SVGID_229_);}
	.st270{fill:url(#SVGID_230_);}
	.st271{fill:url(#SVGID_231_);}
	.st272{fill:url(#SVGID_232_);}
	.st273{fill:url(#SVGID_233_);}
	.st274{fill:url(#SVGID_234_);}
	.st275{fill:url(#SVGID_235_);}
	.st276{fill:url(#SVGID_236_);}
	.st277{fill:url(#SVGID_237_);}
	.st278{fill:url(#SVGID_238_);}
	.st279{fill:url(#SVGID_239_);}
	.st280{fill:url(#SVGID_240_);}
	.st281{fill:url(#SVGID_241_);}
	.st282{fill:url(#SVGID_242_);}
	.st283{fill:url(#SVGID_243_);}
	.st284{fill:url(#SVGID_244_);}
	.st285{fill:url(#SVGID_245_);}
	.st286{fill:url(#SVGID_246_);}
	.st287{fill:url(#SVGID_247_);}
	.st288{fill:url(#SVGID_248_);}
	.st289{fill:url(#SVGID_249_);}
	.st290{fill:url(#SVGID_250_);}
	.st291{fill:url(#SVGID_251_);}
	.st292{fill:url(#SVGID_252_);}
	.st293{fill:#FFFF00;}
	.st294{fill:#1F5990;}
	.st295{fill:#467A2C;}
	.st296{fill:#5B96D6;}
	.st297{fill:#E0E0E0;}
	.st298{fill:#BF360C;}
	.st299{display:none;}
	.st300{display:inline;}
	.st301{fill:none;stroke:#880E4F;stroke-miterlimit:10;stroke-dasharray:11.9822,11.9822;}
	.st302{fill:none;stroke:#880E4F;stroke-miterlimit:10;}
	.st303{fill:none;stroke:#880E4F;stroke-miterlimit:10;stroke-dasharray:12.1951,12.1951;}
	.st304{fill:none;stroke:#880E4F;stroke-miterlimit:10;stroke-dasharray:12.32,12.32;}
</style>
<g id="图层_1">
	<g>
		
			<linearGradient id="SVGID_1_" gradientUnits="userSpaceOnUse" x1="-61.0586" y1="47.6026" x2="-61.0586" y2="121.5102" gradientTransform="matrix(0.9816 -0.1911 0.1911 0.9816 80.6594 -25.411)">
			<stop  offset="0" style="stop-color:#EDAD00"/>
			<stop  offset="0.1104" style="stop-color:#D79100"/>
			<stop  offset="0.2569" style="stop-color:#C07400"/>
			<stop  offset="0.4121" style="stop-color:#AD5C00"/>
			<stop  offset="0.5781" style="stop-color:#A04C00"/>
			<stop  offset="0.7621" style="stop-color:#984200"/>
			<stop  offset="1" style="stop-color:#963F00"/>
		</linearGradient>
		<path class="st0" d="M50.6,29l-38.5,7.5c-2.5,0.5-4.1,2.8-3.6,5.3L21,105.4c0.5,2.4,2.9,4,5.3,3.6l39.7-7.7L52.1,30
			C52,29.3,51.3,28.8,50.6,29z"/>
		<linearGradient id="SVGID_2_" gradientUnits="userSpaceOnUse" x1="90.8367" y1="19" x2="90.8367" y2="99.2717">
			<stop  offset="0" style="stop-color:#EDAD00"/>
			<stop  offset="0.1104" style="stop-color:#D79100"/>
			<stop  offset="0.2569" style="stop-color:#C07400"/>
			<stop  offset="0.4121" style="stop-color:#AD5C00"/>
			<stop  offset="0.5781" style="stop-color:#A04C00"/>
			<stop  offset="0.7621" style="stop-color:#984200"/>
			<stop  offset="1" style="stop-color:#963F00"/>
		</linearGradient>
		<path class="st1" d="M115.8,91.6l-39.7,7.7l0-0.2c0,0,0,0,0,0l-1.2-6.2l0-0.2L74.7,92l-0.2-0.9c0,0,0,0,0,0L73,83.3l-0.1-0.8
			l-1.5-7.8L71.2,74l-0.3-1.6l-1.2-6.2l-0.1-0.8L68,57.7l-0.1-0.8l-1.5-7.8l-0.1-0.8l-1.5-7.8L64.5,40l0-0.2L63.2,33l-0.1-0.3
			L63,31.9l-0.2-1.3L62.2,28c-0.1-0.7,0.3-1.3,1-1.5l38.5-7.4c2.5-0.5,4.8,1.1,5.3,3.6l3.5,17.9l0.2,1.1l0.4,2.1l0.7,3.6l7.6,38.9
			C119.9,88.7,118.3,91.1,115.8,91.6z"/>
		<linearGradient id="SVGID_3_" gradientUnits="userSpaceOnUse" x1="57.4418" y1="30.9455" x2="70.7849" y2="97.9956">
			<stop  offset="0" style="stop-color:#EDCE00"/>
			<stop  offset="1.990813e-02" style="stop-color:#EAC800"/>
			<stop  offset="0.1534" style="stop-color:#D6A400"/>
			<stop  offset="0.2939" style="stop-color:#C58600"/>
			<stop  offset="0.4415" style="stop-color:#B86E00"/>
			<stop  offset="0.5992" style="stop-color:#AF5E00"/>
			<stop  offset="0.774" style="stop-color:#AA5400"/>
			<stop  offset="1" style="stop-color:#A85100"/>
		</linearGradient>
		<path class="st2" d="M29.8,106c-0.2,0-0.4-0.2-0.5-0.4c-0.1-0.3,0.1-0.5,0.4-0.6l3.9-0.8c0.3-0.1,0.5,0.1,0.6,0.4
			c0.1,0.3-0.1,0.5-0.4,0.6L29.8,106C29.9,106,29.8,106,29.8,106z M26,105.6c-0.1,0-0.2,0-0.3-0.1c-0.6-0.5-1.1-1.3-1.2-2.1
			l-0.4-1.8c-0.1-0.3,0.1-0.5,0.4-0.6c0.3-0.1,0.5,0.1,0.6,0.4l0.4,1.8c0.1,0.6,0.4,1.1,0.9,1.5c0.2,0.2,0.2,0.5,0.1,0.7
			C26.3,105.5,26.1,105.6,26,105.6z M37.7,104.5c-0.2,0-0.4-0.2-0.5-0.4c-0.1-0.3,0.1-0.5,0.4-0.6l3.9-0.8c0.3-0.1,0.5,0.1,0.6,0.4
			c0.1,0.3-0.1,0.5-0.4,0.6L37.7,104.5C37.8,104.5,37.7,104.5,37.7,104.5z M45.6,102.9c-0.2,0-0.4-0.2-0.5-0.4
			c-0.1-0.3,0.1-0.5,0.4-0.6l3.9-0.8c0.3-0.1,0.5,0.1,0.6,0.4c0.1,0.3-0.1,0.5-0.4,0.6L45.6,102.9C45.7,102.9,45.6,102.9,45.6,102.9
			z M53.5,101.4c-0.2,0-0.4-0.2-0.5-0.4c-0.1-0.3,0.1-0.5,0.4-0.6l3.9-0.8c0.3-0.1,0.5,0.1,0.6,0.4c0.1,0.3-0.1,0.5-0.4,0.6
			L53.5,101.4C53.6,101.3,53.5,101.4,53.5,101.4z M61.4,99.8c-0.2,0-0.4-0.2-0.5-0.4c-0.1-0.3,0.1-0.5,0.4-0.6l3.9-0.8
			c0.3-0.1,0.5,0.1,0.6,0.4c0.1,0.3-0.1,0.5-0.4,0.6L61.4,99.8C61.5,99.8,61.4,99.8,61.4,99.8z M69.3,98.2c-0.2,0-0.4-0.2-0.5-0.4
			c-0.1-0.3,0.1-0.5,0.4-0.6l3.9-0.8c0.3-0.1,0.5,0.1,0.6,0.4c0.1,0.3-0.1,0.5-0.4,0.6L69.3,98.2C69.4,98.2,69.3,98.2,69.3,98.2z
			 M23.8,98c-0.2,0-0.4-0.2-0.5-0.4l-0.8-3.9c-0.1-0.3,0.1-0.5,0.4-0.6c0.3-0.1,0.5,0.1,0.6,0.4l0.8,3.9C24.3,97.7,24.1,98,23.8,98
			C23.8,98,23.8,98,23.8,98z M77.2,96.7c-0.2,0-0.4-0.2-0.5-0.4c-0.1-0.3,0.1-0.5,0.4-0.6l3.9-0.8c0.3-0.1,0.5,0.1,0.6,0.4
			c0.1,0.3-0.1,0.5-0.4,0.6L77.2,96.7C77.3,96.7,77.2,96.7,77.2,96.7z M85.1,95.1c-0.2,0-0.4-0.2-0.5-0.4c-0.1-0.3,0.1-0.5,0.4-0.6
			l3.9-0.8c0.3-0.1,0.5,0.1,0.6,0.4c0.1,0.3-0.1,0.5-0.4,0.6L85.1,95.1C85.2,95.1,85.1,95.1,85.1,95.1z M93,93.5
			c-0.2,0-0.4-0.2-0.5-0.4c-0.1-0.3,0.1-0.5,0.4-0.6l3.9-0.8c0.3-0.1,0.5,0.1,0.6,0.4c0.1,0.3-0.1,0.5-0.4,0.6L93,93.5
			C93.1,93.5,93,93.5,93,93.5z M100.9,92c-0.2,0-0.4-0.2-0.5-0.4c-0.1-0.3,0.1-0.5,0.4-0.6l3.9-0.8c0.3-0.1,0.5,0.1,0.6,0.4
			c0.1,0.3-0.1,0.5-0.4,0.6L100.9,92C101,92,100.9,92,100.9,92z M108.8,90.4c-0.2,0-0.4-0.2-0.5-0.4c-0.1-0.3,0.1-0.5,0.4-0.6
			l3.9-0.8c0,0,0,0,0,0c0.3,0,0.5,0.1,0.6,0.4c0.1,0.3-0.1,0.5-0.4,0.6c0,0,0,0,0,0L108.8,90.4C108.9,90.4,108.8,90.4,108.8,90.4z
			 M22.2,90.2c-0.2,0-0.4-0.2-0.5-0.4l-0.8-3.9c-0.1-0.3,0.1-0.5,0.4-0.6c0.3-0.1,0.5,0.1,0.6,0.4l0.8,3.9
			C22.7,89.8,22.6,90.1,22.2,90.2C22.3,90.2,22.2,90.2,22.2,90.2z M115.3,86.9C115.3,86.9,115.3,86.9,115.3,86.9
			c-0.3,0-0.5-0.3-0.5-0.6c0-0.1,0-0.2,0-0.3c0-0.2,0-0.4-0.1-0.5l-0.6-2.9c-0.1-0.3,0.1-0.5,0.4-0.6c0.3-0.1,0.5,0.1,0.6,0.4
			l0.6,2.9c0,0.2,0.1,0.5,0.1,0.7c0,0.1,0,0.3,0,0.4C115.8,86.7,115.6,86.9,115.3,86.9z M20.6,82.3c-0.2,0-0.4-0.2-0.5-0.4L19.3,78
			c-0.1-0.3,0.1-0.5,0.4-0.6c0.3-0.1,0.5,0.1,0.6,0.4l0.8,3.9C21.2,82,21,82.3,20.6,82.3C20.7,82.3,20.6,82.3,20.6,82.3z M113.9,79
			c-0.2,0-0.4-0.2-0.5-0.4l-0.8-3.9c-0.1-0.3,0.1-0.5,0.4-0.6c0.3-0.1,0.5,0.1,0.6,0.4l0.8,3.9C114.4,78.7,114.3,79,113.9,79
			C114,79,113.9,79,113.9,79z M19,74.5c-0.2,0-0.4-0.2-0.5-0.4l-0.8-3.9c-0.1-0.3,0.1-0.5,0.4-0.6c0.3-0.1,0.5,0.1,0.6,0.4l0.8,3.9
			C19.6,74.1,19.4,74.4,19,74.5C19.1,74.5,19.1,74.5,19,74.5z M112.3,71.2c-0.2,0-0.4-0.2-0.5-0.4l-0.8-3.9
			c-0.1-0.3,0.1-0.5,0.4-0.6c0.3-0.1,0.5,0.1,0.6,0.4l0.8,3.9C112.9,70.8,112.7,71.1,112.3,71.2C112.4,71.2,112.4,71.2,112.3,71.2z
			 M17.5,66.6c-0.2,0-0.4-0.2-0.5-0.4l-0.8-3.9c-0.1-0.3,0.1-0.5,0.4-0.6c0.3-0.1,0.5,0.1,0.6,0.4L18,66
			C18,66.3,17.8,66.6,17.5,66.6C17.5,66.6,17.5,66.6,17.5,66.6z M110.7,63.3c-0.2,0-0.4-0.2-0.5-0.4l-0.8-3.9
			c-0.1-0.3,0.1-0.5,0.4-0.6c0.3-0.1,0.5,0.1,0.6,0.4l0.8,3.9C111.3,63,111.1,63.3,110.7,63.3C110.8,63.3,110.8,63.3,110.7,63.3z
			 M15.9,58.8c-0.2,0-0.4-0.2-0.5-0.4l-0.8-3.9c-0.1-0.3,0.1-0.5,0.4-0.6c0.3-0.1,0.5,0.1,0.6,0.4l0.8,3.9
			C16.4,58.4,16.3,58.7,15.9,58.8C16,58.8,15.9,58.8,15.9,58.8z M109.2,55.5c-0.2,0-0.4-0.2-0.5-0.4l-0.8-3.9
			c-0.1-0.3,0.1-0.5,0.4-0.6c0.3-0.1,0.5,0.1,0.6,0.4l0.8,3.9C109.7,55.1,109.5,55.4,109.2,55.5C109.2,55.5,109.2,55.5,109.2,55.5z
			 M14.3,50.9c-0.2,0-0.4-0.2-0.5-0.4l-0.8-3.9c-0.1-0.3,0.1-0.5,0.4-0.6c0.3-0.1,0.5,0.1,0.6,0.4l0.8,3.9
			C14.9,50.6,14.7,50.8,14.3,50.9C14.4,50.9,14.4,50.9,14.3,50.9z M107.6,47.6c-0.2,0-0.4-0.2-0.5-0.4l-0.8-3.9
			c-0.1-0.3,0.1-0.5,0.4-0.6c0.3-0.1,0.5,0.1,0.6,0.4l0.8,3.9C108.1,47.3,108,47.6,107.6,47.6C107.7,47.6,107.6,47.6,107.6,47.6z
			 M12.9,43C12.9,43,12.9,43,12.9,43c-0.3,0-0.5-0.3-0.5-0.6c0.2-1.6,1.4-2.9,3-3.2c0.3-0.1,0.5,0.1,0.6,0.4
			c0.1,0.3-0.1,0.5-0.4,0.6c-1.2,0.2-2,1.2-2.2,2.3C13.4,42.9,13.2,43,12.9,43z M106,39.8c-0.2,0-0.4-0.2-0.5-0.4l-0.8-3.9
			c-0.1-0.3,0.1-0.5,0.4-0.6c0.3-0.1,0.5,0.1,0.6,0.4l0.8,3.9C106.6,39.4,106.4,39.7,106,39.8C106.1,39.8,106.1,39.8,106,39.8z
			 M19.4,39.5c-0.2,0-0.4-0.2-0.5-0.4c-0.1-0.3,0.1-0.5,0.4-0.6l3.9-0.8c0.3-0.1,0.5,0.1,0.6,0.4c0.1,0.3-0.1,0.5-0.4,0.6L19.4,39.5
			C19.5,39.5,19.5,39.5,19.4,39.5z M27.3,38c-0.2,0-0.4-0.2-0.5-0.4C26.8,37.3,27,37,27.2,37l3.9-0.8c0.3-0.1,0.5,0.1,0.6,0.4
			c0.1,0.3-0.1,0.5-0.4,0.6L27.3,38C27.4,38,27.4,38,27.3,38z M35.2,36.4c-0.2,0-0.4-0.2-0.5-0.4c-0.1-0.3,0.1-0.5,0.4-0.6l3.9-0.8
			c0.3-0.1,0.5,0.1,0.6,0.4c0.1,0.3-0.1,0.5-0.4,0.6L35.2,36.4C35.3,36.4,35.3,36.4,35.2,36.4z M43.1,34.8c-0.2,0-0.4-0.2-0.5-0.4
			c-0.1-0.3,0.1-0.5,0.4-0.6l3.9-0.8c0.3-0.1,0.5,0.1,0.6,0.4c0.1,0.3-0.1,0.5-0.4,0.6L43.1,34.8C43.2,34.8,43.2,34.8,43.1,34.8z
			 M51,33.3c-0.2,0-0.4-0.2-0.5-0.4c-0.1-0.3,0.1-0.5,0.4-0.6l3.9-0.8c0.3-0.1,0.5,0.1,0.6,0.4c0.1,0.3-0.1,0.5-0.4,0.6L51,33.3
			C51.1,33.3,51.1,33.3,51,33.3z M104.5,31.9c-0.2,0-0.4-0.2-0.5-0.4l-0.8-3.9c-0.1-0.3,0.1-0.5,0.4-0.6c0.3-0.1,0.5,0.1,0.6,0.4
			l0.8,3.9C105,31.6,104.8,31.9,104.5,31.9C104.5,31.9,104.5,31.9,104.5,31.9z M58.9,31.7c-0.2,0-0.4-0.2-0.5-0.4
			c-0.1-0.3,0.1-0.5,0.4-0.6l3.9-0.8c0.3-0.1,0.5,0.1,0.6,0.4c0.1,0.3-0.1,0.5-0.4,0.6L58.9,31.7C59,31.7,58.9,31.7,58.9,31.7z
			 M66.8,30.1c-0.2,0-0.4-0.2-0.5-0.4c-0.1-0.3,0.1-0.5,0.4-0.6l3.9-0.8c0.3-0.1,0.5,0.1,0.6,0.4c0.1,0.3-0.1,0.5-0.4,0.6L66.8,30.1
			C66.9,30.1,66.8,30.1,66.8,30.1z M74.7,28.6c-0.2,0-0.4-0.2-0.5-0.4c-0.1-0.3,0.1-0.5,0.4-0.6l3.9-0.8c0.3-0.1,0.5,0.1,0.6,0.4
			c0.1,0.3-0.1,0.5-0.4,0.6L74.7,28.6C74.8,28.6,74.7,28.6,74.7,28.6z M82.6,27c-0.2,0-0.4-0.2-0.5-0.4c-0.1-0.3,0.1-0.5,0.4-0.6
			l3.9-0.8c0.3-0.1,0.5,0.1,0.6,0.4c0.1,0.3-0.1,0.5-0.4,0.6L82.6,27C82.7,27,82.6,27,82.6,27z M90.5,25.5c-0.2,0-0.4-0.2-0.5-0.4
			c-0.1-0.3,0.1-0.5,0.4-0.6l3.9-0.8c0.3-0.1,0.5,0.1,0.6,0.4c0.1,0.3-0.1,0.5-0.4,0.6L90.5,25.5C90.6,25.5,90.5,25.5,90.5,25.5z
			 M102.2,24.4c-0.1,0-0.2,0-0.3-0.1c-0.6-0.5-1.5-0.7-2.3-0.6l-1.1,0.2c-0.3,0.1-0.5-0.1-0.6-0.4c-0.1-0.3,0.1-0.5,0.4-0.6l1.1-0.2
			c1.1-0.2,2.3,0.1,3.1,0.8c0.2,0.2,0.2,0.5,0.1,0.7C102.5,24.3,102.4,24.4,102.2,24.4z"/>
		<g>
			
				<linearGradient id="SVGID_4_" gradientUnits="userSpaceOnUse" x1="-33.4372" y1="48.7436" x2="-33.4372" y2="121.5197" gradientTransform="matrix(0.9816 -0.1911 0.1911 0.9816 80.6594 -25.411)">
				<stop  offset="0" style="stop-color:#FF7100"/>
				<stop  offset="6.090879e-02" style="stop-color:#EB6803"/>
				<stop  offset="0.1888" style="stop-color:#C75709"/>
				<stop  offset="0.3234" style="stop-color:#A9490E"/>
				<stop  offset="0.4648" style="stop-color:#913E12"/>
				<stop  offset="0.6159" style="stop-color:#813615"/>
				<stop  offset="0.7834" style="stop-color:#773116"/>
				<stop  offset="1" style="stop-color:#743017"/>
			</linearGradient>
			<path class="st3" d="M76.1,99L62.2,27.9l-10.1,2L66,101c0,0.1,0,0.2,0.1,0.2l10-1.9C76.1,99.2,76.1,99.1,76.1,99z"/>
			
				<linearGradient id="SVGID_5_" gradientUnits="userSpaceOnUse" x1="-38.0545" y1="48.7436" x2="-38.0545" y2="121.5112" gradientTransform="matrix(0.9816 -0.1911 0.1911 0.9816 80.6594 -25.411)">
				<stop  offset="0" style="stop-color:#FF7100"/>
				<stop  offset="8.373320e-02" style="stop-color:#E26504"/>
				<stop  offset="0.213" style="stop-color:#BD550A"/>
				<stop  offset="0.3482" style="stop-color:#9E470F"/>
				<stop  offset="0.489" style="stop-color:#863D12"/>
				<stop  offset="0.6377" style="stop-color:#753615"/>
				<stop  offset="0.7998" style="stop-color:#6B3117"/>
				<stop  offset="1" style="stop-color:#683017"/>
			</linearGradient>
			<path class="st4" d="M67,100.8L53.1,29.6l-1,0.2L66,101c0,0.1,0,0.2,0,0.2l1-0.2C67.1,101,67,100.9,67,100.8z"/>
			
				<linearGradient id="SVGID_6_" gradientUnits="userSpaceOnUse" x1="-28.844" y1="48.752" x2="-28.844" y2="121.5197" gradientTransform="matrix(0.9816 -0.1911 0.1911 0.9816 80.6594 -25.411)">
				<stop  offset="0" style="stop-color:#FF7100"/>
				<stop  offset="8.373320e-02" style="stop-color:#E26504"/>
				<stop  offset="0.213" style="stop-color:#BD550A"/>
				<stop  offset="0.3482" style="stop-color:#9E470F"/>
				<stop  offset="0.489" style="stop-color:#863D12"/>
				<stop  offset="0.6377" style="stop-color:#753615"/>
				<stop  offset="0.7998" style="stop-color:#6B3117"/>
				<stop  offset="1" style="stop-color:#683017"/>
			</linearGradient>
			<path class="st6" d="M76.1,99L62.1,27.9l-1,0.2L75,99.2c0,0.1,0,0.2,0,0.2l1-0.2C76.1,99.2,76.1,99.1,76.1,99z"/>
			<path class="st141" d="M66.1,101.2c0.2,0.6,0.9,1,1.5,0.8l7.4-1.4c0.7-0.1,1.1-0.7,1.1-1.3L66.1,101.2z"/>
		</g>
		<g>
			<g>
				<g>
					<g>
						<path class="st142" d="M58.4,35.2c-0.5-0.5-6.2-0.6-11.7,0.5c-1.3,0.3-4.6,1-11.7,4c-5.1,2.2-5.5,2.7-8.2,3.6
							c-4.2,1.3-8.2,0.4-10.7,0.4c3.7,20,7.5,40,11.2,60c1.1,0.2,3.1,0.8,5.2,0.5c1.6-0.3,2.5-0.4,5.4-1.4c3.1-1,3-1,5.4-1.8
							c1.1-0.3,3-0.7,8.7-3c5.3-2.2,6.2-2.7,7-2.8c2.3-0.5,6.7-1.1,11.2,0.6L58.4,35.2z"/>
						<path class="st143" d="M58.4,35.2c-0.5-0.5-6.2-1-11.5,0.1c-1.3,0.3-4.5,1-11.5,4c-5,2.2-5.4,2.7-8,3.6
							c-4.1,1.3-8,0.4-10.6,0.4c3.7,20,7.5,40,11.2,60c1.1,0.2,3.1,0.8,5.1,0.5c1.6-0.2,2.4-0.4,5.3-1.4c3.1-1,2.9-1,5.3-1.8
							c1-0.3,3-0.5,8.5-3c5.4-2.5,6.1-2.6,6.9-2.8c2.2-0.5,6.6-0.7,11.1,1L58.4,35.2z"/>
						
							<linearGradient id="SVGID_7_" gradientUnits="userSpaceOnUse" x1="-75.3466" y1="84.5564" x2="-33.4062" y2="84.5564" gradientTransform="matrix(0.9816 -0.1911 0.1911 0.9816 80.6594 -25.411)">
							<stop  offset="0" style="stop-color:#E0E0E0"/>
							<stop  offset="0.4818" style="stop-color:#DEDEDE"/>
							<stop  offset="0.6553" style="stop-color:#D7D7D7"/>
							<stop  offset="0.779" style="stop-color:#CCCCCC"/>
							<stop  offset="0.879" style="stop-color:#BBBBBB"/>
							<stop  offset="0.9637" style="stop-color:#A5A5A5"/>
							<stop  offset="1" style="stop-color:#999999"/>
						</linearGradient>
						<path class="st8" d="M58.4,35.2c-0.5-0.5-6.3-2.1-11.5-1.1c-1.3,0.3-4.4,0.9-11.3,4c-4.9,2.2-5.3,2.7-7.8,3.5
							c-4,1.3-7.6,1.5-10.1,1.4c3.7,20,7.5,40,11.2,60c1.1,0.2,2.8,0.3,4.8,0c1.6-0.2,2.7-0.3,5.5-1.2c3-1,2.8-1,5.1-1.8
							c1-0.3,2.8-0.8,8.1-3.2c5.1-2.4,5.6-2.5,6.7-2.7c2.2-0.4,6.6-0.7,11,1L58.4,35.2z"/>
						
							<linearGradient id="SVGID_8_" gradientUnits="userSpaceOnUse" x1="-74.2397" y1="83.7829" x2="-33.4108" y2="83.7829" gradientTransform="matrix(0.9816 -0.1911 0.1911 0.9816 80.6594 -25.411)">
							<stop  offset="0" style="stop-color:#FFFFFF"/>
							<stop  offset="0.448" style="stop-color:#FDFDFD"/>
							<stop  offset="0.6093" style="stop-color:#F6F6F6"/>
							<stop  offset="0.7243" style="stop-color:#EBEBEB"/>
							<stop  offset="0.8173" style="stop-color:#DADADA"/>
							<stop  offset="0.897" style="stop-color:#C4C4C4"/>
							<stop  offset="0.9662" style="stop-color:#A9A9A9"/>
							<stop  offset="1" style="stop-color:#999999"/>
						</linearGradient>
						<path class="st12" d="M58.3,35l11.6,59.2c-4.4-1.7-8.7-1.2-9.4-1.1c-1.7,0.2-4.1,1.4-7.2,2.7c-4.1,1.7-5.5,2.5-6.5,2.8
							c-2.3,0.8-3.7,1.2-6.7,2.2c-2.8,0.9-3.9,0.9-5.5,1.2c-2,0.3-3.7,0.2-4.8,0c-3.1-16.7-6.3-33.4-9.4-50.1c0-0.3-0.1-0.5-0.1-0.8
							c-0.6-3.1-1.1-6.1-1.7-9.2c2.5,0.1,6.1-0.1,10.1-1.4c2.6-0.8,3-1.4,7.8-3.5c6.8-3,10-3.7,11.3-4c5.2-1,7.4-0.3,8.7,0.5
							C57.2,34,57.8,34.5,58.3,35z"/>
					</g>
					<g>
						<path class="st142" d="M58.4,35.2c0.3-0.6,5.5-2.8,11-3.9c1.3-0.3,4.6-0.8,12.4-0.6c5.6,0.1,6.1,0.5,8.9,0.3
							c4.4-0.3,7.7-2.6,10.1-3.6c4.1,19.9,8.2,39.9,12.2,59.8c-1,0.6-2.6,1.9-4.6,2.4c-1.6,0.4-2.4,0.5-5.5,0.7
							c-3.3,0.2-3.1,0.2-5.7,0.4c-1.1,0.1-3,0.4-9.2,0.4c-5.7,0-6.7-0.2-7.6,0c-2.3,0.4-6.6,1.5-10.2,4.7L58.4,35.2z"/>
						<path class="st143" d="M58.4,35.2c0.3-0.6,5.4-3.2,10.7-4.2c1.3-0.3,4.6-0.8,12.2-0.6c5.5,0.2,6,0.5,8.8,0.3
							c4.3-0.3,7.6-2.6,9.9-3.6c4.1,19.9,8.1,39.9,12.2,59.8c-1,0.6-2.5,1.9-4.6,2.4c-1.6,0.4-2.4,0.5-5.4,0.7
							c-3.2,0.2-3.1,0.2-5.6,0.4c-1.1,0.1-3,0.7-9,0.4c-5.9-0.3-6.6-0.2-7.4,0c-2.3,0.4-6.4,1.8-10,5.1L58.4,35.2z"/>
						
							<linearGradient id="SVGID_9_" gradientUnits="userSpaceOnUse" x1="-887.3018" y1="84.5985" x2="-845.3072" y2="84.5985" gradientTransform="matrix(-0.9816 0.1911 0.1911 0.9816 -781.9149 142.5137)">
							<stop  offset="0" style="stop-color:#E0E0E0"/>
							<stop  offset="0.4818" style="stop-color:#DEDEDE"/>
							<stop  offset="0.6553" style="stop-color:#D7D7D7"/>
							<stop  offset="0.779" style="stop-color:#CCCCCC"/>
							<stop  offset="0.879" style="stop-color:#BBBBBB"/>
							<stop  offset="0.9637" style="stop-color:#A5A5A5"/>
							<stop  offset="1" style="stop-color:#999999"/>
						</linearGradient>
						<path class="st13" d="M58.4,35.2c0.3-0.6,5-4.3,10.2-5.3c1.3-0.2,4.5-0.8,11.9-0.5c5.4,0.2,5.9,0.5,8.6,0.3
							c4.2-0.3,7.6-1.5,9.9-2.5c4.1,19.9,8.1,39.9,12.2,59.8c-1,0.6-2.5,1.3-4.4,1.8c-1.6,0.4-2.6,0.7-5.5,1c-3.1,0.2-3,0.1-5.4,0.3
							c-1.1,0.1-2.9,0.3-8.7,0c-5.7-0.3-6.1-0.2-7.2,0c-2.2,0.4-6.3,1.8-9.8,5.1L58.4,35.2z"/>
						
							<linearGradient id="SVGID_10_" gradientUnits="userSpaceOnUse" x1="-886.1934" y1="83.823" x2="-845.3088" y2="83.823" gradientTransform="matrix(-0.9816 0.1911 0.1911 0.9816 -781.9149 142.5137)">
							<stop  offset="0" style="stop-color:#FFFFFF"/>
							<stop  offset="0.448" style="stop-color:#FDFDFD"/>
							<stop  offset="0.6093" style="stop-color:#F6F6F6"/>
							<stop  offset="0.7243" style="stop-color:#EBEBEB"/>
							<stop  offset="0.8173" style="stop-color:#DADADA"/>
							<stop  offset="0.897" style="stop-color:#C4C4C4"/>
							<stop  offset="0.9662" style="stop-color:#A9A9A9"/>
							<stop  offset="1" style="stop-color:#999999"/>
						</linearGradient>
						<path class="st14" d="M58.3,35l11.6,59.2c3.5-3.2,7.6-4.4,8.3-4.5c1.6-0.4,4.4-0.2,7.7-0.2c4.5,0.1,6,0.2,7.1,0.2
							c2.5-0.2,3.9-0.2,7-0.4c3-0.2,4-0.6,5.6-1c2-0.5,3.5-1.2,4.4-1.8c-3.4-16.7-6.8-33.3-10.2-50c-0.1-0.3-0.1-0.5-0.2-0.8
							c-0.6-3-1.2-6.1-1.9-9.1c-2.3,1-5.7,2.2-9.9,2.5c-2.7,0.2-3.3-0.2-8.6-0.3c-7.5-0.3-10.6,0.3-11.9,0.5c-5.2,1-6.9,2.5-7.9,3.7
							C59,33.7,58.6,34.4,58.3,35z"/>
					</g>
				</g>
				<g>
					<g>
						<path class="st148" d="M60.1,44.1l0.1,0.8c0,0,0,0,0,0c-0.5-0.5-1.1-1-1.8-1.4C57.1,42.7,55,42,49.7,43
							c-1.3,0.3-4.5,0.9-11.3,4c-4.9,2.2-5.3,2.7-7.9,3.5c-4,1.3-7.6,1.5-10.1,1.4c0-0.3-0.1-0.5-0.1-0.8c2.5,0.1,6-0.1,10.1-1.4
							c2.6-0.8,3-1.4,7.9-3.5c6.8-3,10-3.7,11.3-4c5.3-1,7.4-0.3,8.7,0.5C59,43.2,59.6,43.7,60.1,44.1
							C60.1,44.1,60.1,44.1,60.1,44.1z"/>
						<path class="st148" d="M61.8,52.7l0.1,0.8c0,0,0,0,0,0c-0.5-0.5-1.1-1-1.8-1.4c-1.3-0.8-3.5-1.5-8.7-0.5
							c-1.3,0.3-4.5,0.9-11.3,4c-4.9,2.2-5.3,2.7-7.9,3.5c-4,1.3-7.6,1.5-10.1,1.4c0-0.3-0.1-0.5-0.1-0.8c2.5,0.1,6-0.1,10.1-1.4
							c2.6-0.8,3-1.4,7.9-3.5c6.8-3,10-3.7,11.3-4c5.3-1,7.4-0.3,8.7,0.5C60.7,51.7,61.3,52.2,61.8,52.7
							C61.8,52.7,61.8,52.7,61.8,52.7z"/>
						<path class="st148" d="M63.5,61.2l0.1,0.8c0,0,0,0,0,0c-0.5-0.5-1.1-1-1.8-1.4c-1.3-0.8-3.5-1.5-8.7-0.5
							c-1.3,0.3-4.5,0.9-11.3,4c-4.9,2.2-5.3,2.7-7.9,3.5c-4,1.3-7.6,1.5-10.1,1.4c0-0.3-0.1-0.5-0.1-0.8c2.5,0.1,6-0.1,10.1-1.4
							c2.6-0.8,3-1.4,7.9-3.5c6.8-3,10-3.7,11.3-4c5.3-1,7.4-0.3,8.7,0.5C62.4,60.3,63,60.7,63.5,61.2
							C63.5,61.2,63.5,61.2,63.5,61.2z"/>
						<path class="st148" d="M65.1,69.8l0.1,0.8c0,0,0,0,0,0c-0.5-0.5-1.1-1-1.8-1.4c-1.3-0.8-3.5-1.5-8.7-0.5
							c-1.3,0.3-4.5,0.9-11.3,4c-4.9,2.2-5.3,2.7-7.9,3.5c-4,1.3-7.6,1.5-10.1,1.4c0-0.3-0.1-0.5-0.1-0.8c2.5,0.1,6-0.1,10.1-1.4
							c2.6-0.8,3-1.4,7.9-3.5c6.8-3,10-3.7,11.3-4c5.3-1,7.4-0.3,8.7,0.5C64,68.8,64.6,69.3,65.1,69.8
							C65.1,69.8,65.1,69.8,65.1,69.8z"/>
						<path class="st148" d="M66.8,78.3l0.1,0.8c0,0,0,0,0,0c-0.5-0.5-1.1-1-1.8-1.4c-1.3-0.8-3.5-1.5-8.7-0.5
							c-1.3,0.3-4.5,0.9-11.3,4c-4.9,2.2-5.3,2.7-7.9,3.5c-4,1.3-7.6,1.5-10.1,1.4c0-0.3-0.1-0.5-0.1-0.8c2.5,0.1,6-0.1,10.1-1.4
							c2.6-0.8,3-1.4,7.9-3.5c6.8-3,10-3.7,11.3-4c5.3-1,7.4-0.3,8.7,0.5C65.7,77.3,66.3,77.8,66.8,78.3
							C66.8,78.3,66.8,78.3,66.8,78.3z"/>
						<path class="st148" d="M68.5,86.9l0.1,0.8c0,0,0,0,0,0c-0.5-0.5-1.1-1-1.8-1.4c-1.3-0.8-3.5-1.5-8.7-0.5
							c-1.3,0.3-4.5,0.9-11.3,4c-4.9,2.2-5.3,2.7-7.9,3.5c-4,1.3-7.6,1.5-10.1,1.4c0-0.3-0.1-0.5-0.1-0.8c2.5,0.1,6-0.1,10.1-1.4
							c2.6-0.8,3-1.4,7.9-3.5c6.8-3,10-3.7,11.3-4c5.3-1,7.4-0.3,8.7,0.5C67.4,85.9,68,86.4,68.5,86.9
							C68.5,86.9,68.5,86.9,68.5,86.9z"/>
					</g>
					<g>
						<path class="st148" d="M60.1,44.1l0.1,0.8c0,0,0,0,0,0c0.3-0.6,0.6-1.3,1.2-2c0.9-1.2,2.7-2.7,7.9-3.7c1.3-0.2,4.5-0.8,12-0.5
							c5.4,0.2,5.9,0.5,8.6,0.3c4.2-0.3,7.6-1.5,9.9-2.4c-0.1-0.3-0.1-0.5-0.2-0.8c-2.3,1-5.7,2.1-9.9,2.4c-2.7,0.2-3.3-0.2-8.6-0.3
							c-7.5-0.2-10.7,0.3-12,0.5c-5.3,1-7,2.5-7.9,3.7C60.8,42.8,60.4,43.5,60.1,44.1C60.1,44.1,60.1,44.1,60.1,44.1z"/>
						<path class="st148" d="M61.8,52.7l0.1,0.8c0,0,0,0,0,0c0.3-0.6,0.6-1.3,1.2-2c0.9-1.2,2.7-2.7,7.9-3.7c1.3-0.2,4.5-0.8,12-0.5
							c5.4,0.2,5.9,0.5,8.6,0.3c4.2-0.3,7.6-1.5,9.9-2.4c-0.1-0.3-0.1-0.5-0.2-0.8c-2.3,1-5.7,2.1-9.9,2.4c-2.7,0.2-3.3-0.2-8.6-0.3
							c-7.5-0.2-10.7,0.3-12,0.5c-5.3,1-7,2.5-7.9,3.7C62.4,51.4,62.1,52.1,61.8,52.7C61.8,52.7,61.8,52.7,61.8,52.7z"/>
						<path class="st148" d="M63.5,61.2l0.1,0.8c0,0,0,0,0,0c0.3-0.6,0.6-1.3,1.2-2c0.9-1.2,2.7-2.7,7.9-3.7c1.3-0.2,4.5-0.8,12-0.5
							c5.4,0.2,5.9,0.5,8.6,0.3c4.2-0.3,7.6-1.5,9.9-2.4c-0.1-0.3-0.1-0.5-0.2-0.8c-2.3,1-5.7,2.1-9.9,2.4c-2.7,0.2-3.3-0.2-8.6-0.3
							c-7.5-0.2-10.7,0.3-12,0.5c-5.3,1-7,2.5-7.9,3.7C64.1,59.9,63.7,60.6,63.5,61.2C63.5,61.2,63.5,61.2,63.5,61.2z"/>
						<path class="st148" d="M65.1,69.8l0.1,0.8c0,0,0,0,0,0c0.3-0.6,0.6-1.3,1.2-2c0.9-1.2,2.7-2.7,7.9-3.7c1.3-0.2,4.5-0.8,12-0.5
							c5.4,0.2,5.9,0.5,8.6,0.3c4.2-0.3,7.6-1.5,9.9-2.4c-0.1-0.3-0.1-0.5-0.2-0.8c-2.3,1-5.7,2.1-9.9,2.4c-2.7,0.2-3.3-0.2-8.6-0.3
							c-7.5-0.2-10.7,0.3-12,0.5c-5.3,1-7,2.5-7.9,3.7C65.8,68.5,65.4,69.1,65.1,69.8C65.1,69.8,65.1,69.8,65.1,69.8z"/>
						<path class="st148" d="M66.8,78.3l0.1,0.8c0,0,0,0,0,0c0.3-0.6,0.6-1.3,1.2-2c0.9-1.2,2.7-2.7,7.9-3.7c1.3-0.2,4.5-0.8,12-0.5
							c5.4,0.2,5.9,0.5,8.6,0.3c4.2-0.3,7.6-1.5,9.9-2.4c-0.1-0.3-0.1-0.5-0.2-0.8c-2.3,1-5.7,2.1-9.9,2.4c-2.7,0.2-3.3-0.2-8.6-0.3
							c-7.5-0.2-10.7,0.3-12,0.5c-5.3,1-7,2.5-7.9,3.7C67.4,77,67.1,77.7,66.8,78.3C66.8,78.3,66.8,78.3,66.8,78.3z"/>
						<path class="st148" d="M68.5,86.9l0.1,0.8c0,0,0,0,0,0c0.3-0.6,0.6-1.3,1.2-2c0.9-1.2,2.7-2.7,7.9-3.7c1.3-0.2,4.5-0.8,12-0.5
							c5.4,0.2,5.9,0.5,8.6,0.3c4.2-0.3,7.6-1.5,9.9-2.4c-0.1-0.3-0.1-0.5-0.2-0.8c-2.3,1-5.7,2.1-9.9,2.4c-2.7,0.2-3.3-0.2-8.6-0.3
							c-7.5-0.2-10.7,0.3-12,0.5c-5.3,1-7,2.5-7.9,3.7C69.1,85.6,68.7,86.2,68.5,86.9C68.5,86.9,68.5,86.9,68.5,86.9z"/>
					</g>
				</g>
			</g>
			<g>
				<path class="st149" d="M37.9,48.3L37,48.7l-6.7,2.7l-0.9,0.4l0.6,2.2l0,0l1.4,5.2c-0.5,0.1-1.1,0.5-1.5,1.1
					c-0.6,1-0.6,2.1,0.1,2.6c0.7,0.5,1.8,0,2.4-0.9C33,61,33,60,32.5,59.5L31,53.6l6.7-2.7L39,56c-0.5,0.1-1.1,0.5-1.5,1.1
					c-0.6,1-0.6,2.1,0.1,2.6c0.7,0.5,1.8,0,2.4-0.9c0.6-0.9,0.6-1.9,0.1-2.4L37.9,48.3z"/>
				<path class="st149" d="M46.1,74.4L45,74.8l0.7,2.7l0,0l1.6,6.2c-0.7,0.1-1.4,0.6-1.8,1.3c-0.8,1.2-0.7,2.6,0.1,3.1
					c0.8,0.5,2.1,0,2.9-1.1c0.7-1.1,0.7-2.3,0.1-2.9l-1.9-7.1L46.1,74.4z"/>
				<path class="st149" d="M71.3,36.4l-1.1,0.4l0.7,2.7l0,0l1.6,6.2c-0.7,0.1-1.4,0.6-1.8,1.3c-0.8,1.2-0.7,2.6,0.1,3.1
					c0.8,0.5,2.1,0,2.9-1.1c0.7-1.1,0.7-2.3,0.1-2.9L72,39.1L71.3,36.4z"/>
				<ellipse transform="matrix(0.9382 -0.346 0.346 0.9382 -26.5525 17.3514)" class="st149" cx="35.3" cy="83" rx="2.8" ry="2.3"/>
				
					<ellipse transform="matrix(0.9382 -0.346 0.346 0.9382 -20.7288 30.2657)" class="st149" cx="74.4" cy="73.2" rx="2.8" ry="2.3"/>
				<path class="st149" d="M52.5,57.1l-0.3-1c1.4-0.2,2.8,0,4,0.5c-0.6-2-3.2-3-5.7-2.4l0.6,2.1l0,0l0.3,1.3l0,0l1.7,6.3
					c-0.7,0.1-1.4,0.6-1.9,1.3c-0.8,1.2-0.7,2.6,0.1,3.1c0.8,0.5,2.1,0,2.9-1.1c0.7-1.1,0.7-2.3,0.1-2.9L52.5,57.1z"/>
				<path class="st149" d="M86.8,57.3l-0.3-1c1.4-0.2,2.8,0,4,0.5c-0.6-2-3.2-3-5.7-2.4l0.6,2.1l0,0l0.3,1.3l0,0l1.7,6.3
					c-0.7,0.1-1.4,0.6-1.9,1.3c-0.8,1.2-0.7,2.6,0.1,3.1c0.8,0.5,2.1,0,2.9-1.1c0.7-1.1,0.7-2.3,0.1-2.9L86.8,57.3z"/>
			</g>
		</g>
		<g>
			<linearGradient id="SVGID_11_" gradientUnits="userSpaceOnUse" x1="102.6809" y1="70.6021" x2="91.3963" y2="66.0429">
				<stop  offset="0" style="stop-color:#616161;stop-opacity:0.2"/>
				<stop  offset="1" style="stop-color:#616161"/>
			</linearGradient>
			<path class="st15" d="M111.8,47.4c-1.1,3.4-2.6,7.5-4.6,11c0,0,0,0,0,0c-0.2,0.3-0.4,0.6-0.5,0.8c-0.3,0.4-0.6,0.7-0.8,0.9
				c-0.3,0.3-0.6,0.4-0.9,0.7c0,0-0.1,0-0.1,0c0,0,0,0,0,0c-0.1,0-0.3,0.1-0.4,0.1l0.3-0.7l0.8-1.8v0l0.7-1.6v0l0.5-1.2v0l1.2-2.8
				c0,0,0-0.1,0-0.1l2.8-8l-0.9-0.3c-1,3.1-2.1,6.4-3.4,9.8c0,0.1,0,0.1-0.1,0.2c-0.2,0.4-0.3,0.9-0.5,1.3c-0.2,0.6-0.4,1.1-0.6,1.7
				c0,0,0,0,0,0.1v0c-0.2,0.6-0.5,1.3-0.7,1.9c-0.3,0.8-0.6,1.6-0.9,2.4c0,0.1-0.1,0.2-0.1,0.4c-0.1,0.2-0.2,0.4-0.2,0.6
				c-0.3,0.7-0.5,1.3-0.8,2l0,0c-0.2,0.5-0.4,1-0.6,1.5c-0.2,0.5-0.4,1-0.6,1.4h0c-0.6,1.5-1.2,2.9-1.9,4.4
				c-0.1,0.3-0.2,0.6-0.4,0.8c-1.3,2.9-2.5,5.6-3.7,8c-0.1,0.2-0.2,0.5-0.4,0.7c-1.5,3-2.9,5.7-4.2,8c-0.1,0.2-0.2,0.4-0.3,0.5
				c-0.1,0.2-0.3,0.4-0.4,0.7c0,0,0,0,0,0.1c0,0.1-0.1,0.1-0.1,0.2c-1.1,1.8-2.1,3.3-2.9,4.3h0c-1.1,1.4-2,2-2.6,1.8
				c-0.6-0.2-0.8-1.2-0.7-2.9l0,0c0-0.9,0.2-2,0.4-3.2c0-0.1,0.1-0.3,0.1-0.4c0-0.2,0.1-0.5,0.1-0.7c0-0.1,0.1-0.3,0.1-0.5
				c0.1-0.3,0.1-0.6,0.2-1c0.5-2.1,1.1-4.5,1.9-7.2c0.1-0.3,0.1-0.5,0.2-0.8c0.7-2.4,1.5-5,2.4-7.7c0.1-0.2,0.2-0.5,0.3-0.7
				c0.8-2.4,1.7-4.9,2.7-7.5c0-0.1,0.1-0.3,0.1-0.4l0.1-0.4c0.3-0.8,0.6-1.6,0.9-2.4c0.4-0.9,0.7-1.8,1.1-2.8c0.4-1,0.8-1.9,1.1-2.9
				c0.1-0.3,0.2-0.6,0.3-0.8v0c0.2-0.4,0.3-0.8,0.5-1.2c0.4-1,0.8-1.9,1.2-2.9c0.8-1.8,1.5-3.5,2.3-5.1c0.1-0.3,0.3-0.7,0.4-1
				c0.3-0.6,0.6-1.2,0.8-1.8v0c0.3-0.6,0.5-1.1,0.8-1.7c0.2-0.5,0.5-1,0.7-1.5c0-0.1,0.1-0.2,0.1-0.3v0h0c0.1-0.3,0.3-0.5,0.4-0.8
				c0-0.1,0.1-0.2,0.1-0.3c0.1-0.2,0.3-0.4,0.6-0.4c0.2,0,0.4,0,0.7,0c2.3,0,4.5,1,6,2.5l0.2,1.1c-0.1,0.2-0.1,0.4-0.2,0.7
				c0,0,0,0,0,0c-0.1,0.4-0.2,0.7-0.3,1.1l0.9,0.4l0,0l0,0L111.8,47.4z"/>
			<g>
				<g>
					<linearGradient id="SVGID_12_" gradientUnits="userSpaceOnUse" x1="108.9998" y1="41.188" x2="101.375" y2="38.1074">
						<stop  offset="0" style="stop-color:#CFD8DC"/>
						<stop  offset="0.1942" style="stop-color:#D2DADE"/>
						<stop  offset="0.3105" style="stop-color:#DAE1E4"/>
						<stop  offset="0.4061" style="stop-color:#E8ECEE"/>
						<stop  offset="0.4903" style="stop-color:#FCFDFD"/>
						<stop  offset="0.5" style="stop-color:#FFFFFF"/>
						<stop  offset="0.5749" style="stop-color:#F1F4F5"/>
						<stop  offset="0.7114" style="stop-color:#DEE4E7"/>
						<stop  offset="0.8516" style="stop-color:#D3DBDF"/>
						<stop  offset="1" style="stop-color:#CFD8DC"/>
					</linearGradient>
					<path class="st17" d="M108.9,41.2c-0.1,0.3-0.2,0.6-0.3,1c-1.7-1.8-4-2.9-6.7-2.9c-0.4,0-0.7,0-1.1,0.1
						c0.2-0.4,0.4-0.7,0.5-1.1c0.1-0.2,0.3-0.4,0.6-0.4c0.2,0,0.4,0,0.7,0c2.4,0,4.6,1,6.1,2.7C108.9,40.7,109,41,108.9,41.2z"/>
					<linearGradient id="SVGID_13_" gradientUnits="userSpaceOnUse" x1="84.6278" y1="96.4133" x2="81.4412" y2="95.1258">
						<stop  offset="0" style="stop-color:#CFD8DC"/>
						<stop  offset="0.1432" style="stop-color:#D8DFE2"/>
						<stop  offset="0.3723" style="stop-color:#EFF2F3"/>
						<stop  offset="0.5" style="stop-color:#FFFFFF"/>
						<stop  offset="0.8149" style="stop-color:#DDE4E7"/>
						<stop  offset="1" style="stop-color:#CFD8DC"/>
					</linearGradient>
					<path class="st18" d="M85.1,95.2c-1.1,1.4-2,2-2.6,1.8c-0.6-0.2-0.8-1.2-0.7-2.9c0.7,0.7,1.6,1.2,2.7,1.2
						C84.7,95.2,84.9,95.2,85.1,95.2z"/>
					<linearGradient id="SVGID_14_" gradientUnits="userSpaceOnUse" x1="98.6725" y1="69.2271" x2="89.6421" y2="65.5785">
						<stop  offset="0" style="stop-color:#212121"/>
						<stop  offset="0.1189" style="stop-color:#272727"/>
						<stop  offset="0.2836" style="stop-color:#393838"/>
						<stop  offset="0.4742" style="stop-color:#565555"/>
						<stop  offset="0.5" style="stop-color:#5B5959"/>
						<stop  offset="0.5203" style="stop-color:#575656"/>
						<stop  offset="0.7143" style="stop-color:#3A3939"/>
						<stop  offset="0.881" style="stop-color:#272727"/>
						<stop  offset="1" style="stop-color:#212121"/>
					</linearGradient>
					<path class="st19" d="M108.6,42.1c-0.1,0.4-0.2,0.7-0.3,1.1c-0.1,0.4-0.2,0.7-0.3,1.1c-1,3.1-2.1,6.4-3.4,9.8
						c-0.4,1-0.8,2.1-1.2,3.1c-0.6,1.6-1.2,3.1-1.8,4.7c-0.3,0.9-0.7,1.7-1,2.6c-0.4,1-0.8,1.9-1.2,2.9c-4,9.7-8,17.9-11.2,23.2
						c-1.1,1.9-2.2,3.4-3,4.5c-0.2,0-0.4,0-0.6,0c-1.1,0-2-0.4-2.7-1.2c0.1-1.5,0.4-3.4,0.9-5.7c1.3-6,4-14.6,7.6-24.3
						c0.3-0.9,0.7-1.8,1.1-2.8c0.4-0.9,0.7-1.8,1.1-2.8c0.7-1.7,1.3-3.3,2-4.9c0.4-1,0.8-1.9,1.2-2.9c1.8-4.1,3.5-8,5.2-11.4v0h0
						c0.3,0,0.7-0.1,1.1-0.1c0.2,0,0.3,0,0.5,0c0.7,0,1.3,0.1,1.9,0.3c1.5,0.4,2.9,1.2,4,2.2C108.4,41.9,108.5,42,108.6,42.1z"/>
					<linearGradient id="SVGID_15_" gradientUnits="userSpaceOnUse" x1="100.1528" y1="65.5679" x2="91.1671" y2="61.9375">
						<stop  offset="0" style="stop-color:#CFD8DC"/>
						<stop  offset="0.1942" style="stop-color:#D2DADE"/>
						<stop  offset="0.3105" style="stop-color:#DAE1E4"/>
						<stop  offset="0.4061" style="stop-color:#E8ECEE"/>
						<stop  offset="0.4903" style="stop-color:#FCFDFD"/>
						<stop  offset="0.5" style="stop-color:#FFFFFF"/>
						<stop  offset="0.5749" style="stop-color:#F1F4F5"/>
						<stop  offset="0.7114" style="stop-color:#DEE4E7"/>
						<stop  offset="0.8516" style="stop-color:#D3DBDF"/>
						<stop  offset="1" style="stop-color:#CFD8DC"/>
					</linearGradient>
					<path class="st20" d="M100.5,64.6c-0.4,1-0.8,1.9-1.2,2.9c-1.7-2.2-4.3-3.6-7.3-3.6c-0.5,0-1,0-1.4,0.1c-0.1,0-0.2,0-0.2,0
						c0.3-0.9,0.7-1.8,1.1-2.8c0.1,0,0.3-0.1,0.4-0.1c0.5-0.1,0.9-0.1,1.4-0.1C96.2,61.1,98.9,62.5,100.5,64.6z"/>
				</g>
				<g>
					<linearGradient id="SVGID_16_" gradientUnits="userSpaceOnUse" x1="107.9187" y1="43.9845" x2="109.2161" y2="43.9845">
						<stop  offset="0" style="stop-color:#FFFFFF"/>
						<stop  offset="0.5463" style="stop-color:#E2E8EA"/>
						<stop  offset="1" style="stop-color:#CFD8DC"/>
					</linearGradient>
					<path class="st21" d="M109.2,43.6l-0.4,1.1l-0.9-0.3c0.1-0.4,0.2-0.7,0.3-1.1L109.2,43.6z"/>
					<path class="st9" d="M110.4,44.1c-0.1,0.2-0.1,0.5-0.2,0.7c-1,3.5-2.6,8.5-5,12.8c0,0.1-0.1,0.1-0.1,0.2c-1.2,2-0.8,1.3-2.1,3
						c0,0,0,0-0.1,0.1c0,0,0.1,0,0.1,0c0.7-0.6,1.3-0.8,2.2-2.5c2.7-4.7,4.6-10.5,5.6-14.1L110.4,44.1z"/>
					<linearGradient id="SVGID_17_" gradientUnits="userSpaceOnUse" x1="107.873" y1="53.0663" x2="105.7534" y2="52.21">
						<stop  offset="1.295337e-02" style="stop-color:#CFD8DC"/>
						<stop  offset="0.5" style="stop-color:#FFFFFF"/>
						<stop  offset="0.7731" style="stop-color:#E2E8EA"/>
						<stop  offset="1" style="stop-color:#CFD8DC"/>
					</linearGradient>
					<path class="st22" d="M103,60.7c1.3-1.7,0.9-0.9,2.1-3c0-0.1,0.1-0.1,0.1-0.2c2.5-4.3,4-9.3,5-12.8c0.1-0.2,0.1-0.5,0.2-0.7
						l-1.2-0.5l0,0.1l-0.4,1.1l-2.8,8c0,0,0,0.1,0,0.1l-3.4,8.1C102.7,60.9,102.8,60.9,103,60.7C102.9,60.8,103,60.8,103,60.7z"/>
				</g>
			</g>
		</g>
	</g>
</g>
<g id="图层_2" class="st299">
</g>
</svg>
