<svg id="图层_1" data-name="图层 1" xmlns="http://www.w3.org/2000/svg" xmlns:xlink="http://www.w3.org/1999/xlink" viewBox="0 0 128 128"><defs><style>.cls-1{fill:#1c2860;}.cls-2{fill:#999;}.cls-3{fill:#e6e6e6;}.cls-4{fill:#b3b3b3;}.cls-5{fill:#29abe2;}.cls-6{fill:#394699;}.cls-7{fill:url(#未命名的渐变_43);}.cls-8{fill:url(#未命名的渐变_52);}.cls-9{fill:url(#未命名的渐变_52-2);}.cls-10{fill:url(#未命名的渐变_43-2);}.cls-11{fill:url(#未命名的渐变_46);}.cls-12{fill:#2163be;}.cls-13{fill:url(#未命名的渐变_147);}.cls-14{fill:url(#未命名的渐变_128);}.cls-15{fill:url(#未命名的渐变_156);}.cls-16{fill:url(#未命名的渐变_172);}.cls-17{fill:url(#未命名的渐变_86);}.cls-18{fill:url(#未命名的渐变_75);}.cls-19{fill:#1a1a1a;}.cls-20{fill:#fff;}.cls-21{fill:url(#未命名的渐变_89);}.cls-22{fill:url(#未命名的渐变_91);}</style><linearGradient id="未命名的渐变_43" x1="92.5" y1="82.38" x2="121" y2="82.38" gradientUnits="userSpaceOnUse"><stop offset="0" stop-color="#1ba0d5"/><stop offset="0.2" stop-color="#1c96d1"/><stop offset="0.55" stop-color="#1e7ac7"/><stop offset="0.82" stop-color="#2061bd"/></linearGradient><linearGradient id="未命名的渐变_52" x1="63.2" y1="8.04" x2="66.72" y2="11.57" gradientUnits="userSpaceOnUse"><stop offset="0" stop-color="#1ba0d5"/><stop offset="0.16" stop-color="#1c96d1"/><stop offset="0.44" stop-color="#1e7ac7"/><stop offset="0.64" stop-color="#2061bd"/></linearGradient><linearGradient id="未命名的渐变_52-2" x1="68.64" y1="9.65" x2="72.01" y2="13.02" xlink:href="#未命名的渐变_52"/><linearGradient id="未命名的渐变_43-2" x1="115.58" y1="75.05" x2="91.26" y2="50.74" xlink:href="#未命名的渐变_43"/><linearGradient id="未命名的渐变_46" x1="55.61" y1="62.54" x2="7" y2="62.54" gradientUnits="userSpaceOnUse"><stop offset="0" stop-color="#1ba0d5"/><stop offset="0.19" stop-color="#1c96d1"/><stop offset="0.51" stop-color="#1e7ac7"/><stop offset="0.76" stop-color="#2061bd"/></linearGradient><linearGradient id="未命名的渐变_147" x1="46.06" y1="21.89" x2="84.75" y2="60.57" gradientUnits="userSpaceOnUse"><stop offset="0" stop-color="#1ba0d5"/><stop offset="0.11" stop-color="#1c96ce"/><stop offset="0.3" stop-color="#1e7abc"/><stop offset="0.47" stop-color="#205ba7"/><stop offset="0.84" stop-color="#1c4a9b"/></linearGradient><linearGradient id="未命名的渐变_128" x1="106.77" y1="57.34" x2="72.2" y2="22.78" gradientUnits="userSpaceOnUse"><stop offset="0" stop-color="#1ba0d5"/><stop offset="0.16" stop-color="#1b96ce"/><stop offset="0.45" stop-color="#1c7abc"/><stop offset="0.71" stop-color="#1c5ba7"/><stop offset="1" stop-color="#265ba8"/></linearGradient><linearGradient id="未命名的渐变_156" x1="37.55" y1="67.61" x2="61.83" y2="43.32" gradientTransform="translate(2.7 -11.37) rotate(-1.76)" gradientUnits="userSpaceOnUse"><stop offset="0" stop-color="#4081cb"/><stop offset="0.29" stop-color="#367fc6"/><stop offset="0.73" stop-color="#1e79bb"/></linearGradient><linearGradient id="未命名的渐变_172" x1="41.94" y1="53.12" x2="47.72" y2="59.27" gradientTransform="translate(2.7 -11.37) rotate(-1.76)" gradientUnits="userSpaceOnUse"><stop offset="0" stop-color="#1c8dc8"/><stop offset="0.38" stop-color="#1d81c0"/><stop offset="0.83" stop-color="#1f6db3"/></linearGradient><linearGradient id="未命名的渐变_86" x1="42.7" y1="60.58" x2="47.35" y2="60.58" gradientTransform="translate(2.7 -11.37) rotate(-1.76)" gradientUnits="userSpaceOnUse"><stop offset="0" stop-color="#1b1464"/><stop offset="0.68" stop-color="#1b1e5d"/><stop offset="1" stop-color="#1b2559"/></linearGradient><linearGradient id="未命名的渐变_75" x1="43.68" y1="60.9" x2="47.01" y2="60.9" gradientTransform="translate(2.7 -11.37) rotate(-1.76)" gradientUnits="userSpaceOnUse"><stop offset="0" stop-color="#f15a24"/><stop offset="0.27" stop-color="#f26423"/><stop offset="0.73" stop-color="#f58020"/><stop offset="1" stop-color="#f7931e"/></linearGradient><linearGradient id="未命名的渐变_89" x1="36" y1="55.19" x2="43.45" y2="62.63" gradientUnits="userSpaceOnUse"><stop offset="0" stop-color="#a1d4d7"/><stop offset="0.24" stop-color="#97cfd8"/><stop offset="0.65" stop-color="#7bc0db"/><stop offset="1" stop-color="#5fb1de"/></linearGradient><linearGradient id="未命名的渐变_91" x1="39.52" y1="60.59" x2="44.99" y2="60.59" gradientUnits="userSpaceOnUse"><stop offset="0" stop-color="#53ace0"/><stop offset="0.89" stop-color="#5db0de"/><stop offset="1" stop-color="#5fb1de"/></linearGradient></defs><title>thunderbird128</title><path class="cls-1" d="M34.86,84.52s2.88,16.35,8,22.45c0,0-8.65-4.49-11.53-9.94,0,0-2.24,7.37,5.76,21.16,0,0-9.93-3.85-13.13-9.62-2.8-5-7.68-17.31-7.68-19.56S23,87.73,23,87.73Z"/><polygon class="cls-2" points="110.59 59.87 49.73 85.86 26.98 39.67 26.02 39.43 13.53 91.24 100.38 112.23 112.87 60.42 110.59 59.87"/><polygon class="cls-2" points="107.23 59.05 30.34 40.48 50.54 82.49 107.23 59.05"/><polygon class="cls-3" points="110.59 58.9 49.73 84.89 26.98 38.7 26.02 38.47 13.53 90.28 100.38 111.26 112.87 59.45 110.59 58.9"/><polygon class="cls-3" points="107.23 58.09 30.34 39.52 50.54 81.53 107.23 58.09"/><polygon class="cls-4" points="108.91 58.5 107.23 58.09 50.54 81.53 30.34 39.52 28.66 39.11 26.98 38.7 49.73 84.89 110.59 58.9 108.91 58.5"/><path class="cls-5" d="M101.41,83.25v0Z"/><path class="cls-6" d="M109.31,98.12s3.64-6,2.29-8.61a53.41,53.41,0,0,0,3-19.36s-1.43-18.87-16.88,25.08l-.11.12c0,.2-.1.38-.14.57C92.81,107.64,70,120,70,120a59.22,59.22,0,0,0,19.65-5.4A56.71,56.71,0,0,1,81.29,123c17.35-3.93,26.9-15.71,34.39-30.08A22.79,22.79,0,0,1,109.31,98.12Z"/><path class="cls-7" d="M120.93,66a19.91,19.91,0,0,1-4,7.76,19.79,19.79,0,0,0-3-8.75s.85,7.86-4.27,13.76c0,0,.68-7.24-2.48-8.3,0,0-2.65,7.92-5.68,12.79.1-.17,1-2-1.54-5.29-.26-.33-1.83-1-2.15-1.35.11,1.3-.59,2-.1,4.71,1,5.13-5.12,17.31-5.12,17.31,2.41-1,4.33-1,6.4-3.53a10.36,10.36,0,0,0,2.47-4.42,9.86,9.86,0,0,1-1.8,9.08c8.62-3.69,11.5-9.79,11.5-9.79,1.16,3.26-1.76,8.15-1.76,8.15,4.32-1.09,5-3,6.37-5.2A57,57,0,0,0,121,68.81C121,67.86,121,66.92,120.93,66Z"/><path class="cls-8" d="M65,13.34A32.15,32.15,0,0,1,66.24,5l-4.48,5.77.64,2.57Z"/><path class="cls-9" d="M71,14a16.44,16.44,0,0,1,.65-7.38L67.2,12.37l.64,2.57Z"/><path class="cls-5" d="M71.87,40.24c.85.45,1.66.91,2.45,1.39-.75-.49-1.54-1-2.35-1.41Z"/><path class="cls-10" d="M120.93,66a56.74,56.74,0,0,0-9.83-29.33c-.78-1.14-1.59-2.24-2.44-3.32a33.19,33.19,0,0,1,1.45,3.25,20.93,20.93,0,0,1,1,13.45c-.18.59-.39,1.18-.64,1.78a15.59,15.59,0,0,0-1.23-2.22A18.27,18.27,0,0,0,105,45.08a17.09,17.09,0,0,1,1.17,3.82,16.13,16.13,0,0,1-.86,9.42s-1.59-6.5-4.79-6.5c0,0,0,4.06-.5,8.26a36.35,36.35,0,0,1-.79,4.56s.1-3.85-4.8-6.41c0,0,.1.69.2,1.78.24,2.68.44,7.74-1.06,10.54a50.72,50.72,0,0,1-.1,17.18,11.46,11.46,0,0,0,5.44-10.9.47.47,0,0,1,.1.1c.32.36.61.7.87,1,2.59,3.33,1.64,5.12,1.54,5.29,3-4.87,5.68-12.79,5.68-12.79,3.16,1.06,2.48,8.3,2.48,8.3,5.12-5.9,4.27-13.76,4.27-13.76a19.79,19.79,0,0,1,3,8.75A19.91,19.91,0,0,0,120.93,66Z"/><path class="cls-11" d="M7,68.81a57,57,0,0,0,20.6,43.92A52.17,52.17,0,0,1,17.89,82a54.39,54.39,0,0,1,.39-6.56,24.19,24.19,0,0,0,9.21,6.24c-4.94-14.6.49-29.19,2.13-33a42.94,42.94,0,0,1,6.45-6.21c.65-3.3,2.62-8,9.36-11.76a44.3,44.3,0,0,1,10.18-18.3A57.06,57.06,0,0,0,7,68.81Z"/><path class="cls-12" d="M63.89,11.74h-.58l-.27.63Z"/><path class="cls-13" d="M74.32,41.63c-.75-.49-1.54-1-2.35-1.41A41,41,0,0,0,59.2,35.78l2.3-1.16C68,31.42,86.26,22.58,95,20.94a55.64,55.64,0,0,0-7.7-4.21,56.27,56.27,0,0,0-18.78-4.81L71.69,6.6a43.65,43.65,0,0,0-7.37,4.49A12.72,12.72,0,0,0,62.72,13l1-1.93L66.24,5a31.24,31.24,0,0,0-10.63,7.35,44.3,44.3,0,0,0-10.18,18.3c-6.74,3.78-8.71,8.46-9.36,11.76-.12.63-.2,1.2-.25,1.71-.29,2.94,1.79,7,1.59,9.66A3.11,3.11,0,0,1,37.1,55c-3.24,6.49,3.32,11,3.32,11a30.39,30.39,0,0,1,2.12-6.81A6.83,6.83,0,0,1,45,56.83c3.72-2.48,10.52-5,13.89-5,4.48,0,13.77,3.2,23.69,4.81a15.47,15.47,0,0,0,6.24-.12A39.53,39.53,0,0,0,74.32,41.63Z"/><path class="cls-14" d="M110.11,36.59a33.19,33.19,0,0,0-1.45-3.25A57.58,57.58,0,0,0,95.88,21.49L95,20.94C86.26,22.58,68,31.42,61.5,34.62l-2.3,1.16A41,41,0,0,1,72,40.22c.81.45,1.6.92,2.35,1.41A39.53,39.53,0,0,1,88.81,56.51a43.7,43.7,0,0,1,4.75,14c1.5-2.8,1.3-7.86,1.06-10.54-.1-1.09-.2-1.78-.2-1.78,4.9,2.56,4.8,6.41,4.8,6.41a36.35,36.35,0,0,0,.79-4.56c.49-4.2.5-8.26.5-8.26,3.2,0,4.79,6.5,4.79,6.5a16.13,16.13,0,0,0,.86-9.42A17.09,17.09,0,0,0,105,45.08a18.27,18.27,0,0,1,4.21,4.52,15.59,15.59,0,0,1,1.23,2.22c.25-.6.46-1.19.64-1.78A20.93,20.93,0,0,0,110.11,36.59Z"/><path class="cls-15" d="M42.63,55.35a44.39,44.39,0,0,0,8.51-4.43C54.27,48.58,62.71,31,64.25,29s-7.61,5.45-7.61,5.45Z"/><path class="cls-16" d="M42.63,55.35s-1.86-8.28,0-10.9C46.5,38.91,53,36.75,57.34,33.73c2.81-1.93-5.15,9.46-8.2,14.69A18.53,18.53,0,0,1,42.63,55.35Z"/><path class="cls-17" d="M51.44,49c.81-1.25.29-3.11.05-3.78a.36.36,0,0,0-.36-.24c-.71,0-2.62.31-3.44,1.55s-.29,3.1-.06,3.78a.38.38,0,0,0,.37.24C48.71,50.54,50.62,50.28,51.44,49Z"/><path class="cls-18" d="M51.2,49a3.3,3.3,0,0,0,.15-2.59.38.38,0,0,0-.38-.26,3.21,3.21,0,0,0-2.38,1,3.26,3.26,0,0,0-.15,2.59.37.37,0,0,0,.37.26A3.23,3.23,0,0,0,51.2,49Z"/><circle class="cls-19" cx="49.45" cy="48.09" r="0.96"/><circle class="cls-20" cx="49.12" cy="47.78" r="0.32"/><path class="cls-21" d="M39.66,60.15c.27-1.86,2.3-4.17,3-4.89l-.1.08C40,57.91,38,54.91,37.41,53.78A3.11,3.11,0,0,1,37.1,55c-2.9,5.81,2.06,10,3.12,10.83A11.16,11.16,0,0,1,39.66,60.15Z"/><path class="cls-22" d="M42.54,59.19A6.83,6.83,0,0,1,45,56.83c-2.34.11-1.69-2.1-2.35-1.57-.68.72-2.71,3-3,4.89a11.16,11.16,0,0,0,.56,5.7l.2.15A30.39,30.39,0,0,1,42.54,59.19Z"/></svg>