<?xml version="1.0" encoding="utf-8"?>
<!-- Generator: Adobe Illustrator 24.0.0, SVG Export Plug-In . SVG Version: 6.00 Build 0)  -->
<svg version="1.1" id="BT下载工具" xmlns="http://www.w3.org/2000/svg" xmlns:xlink="http://www.w3.org/1999/xlink" x="0px"
	 y="0px" viewBox="0 0 128 128" enable-background="new 0 0 128 128" xml:space="preserve">
<title>128</title>
<g id="_128">
	<path fill="#E90101" d="M27,8h74c4.4,0,8,3.6,8,8l0,0c0,4.4-3.6,8-8,8H27c-4.4,0-8-3.6-8-8l0,0C19,11.6,22.6,8,27,8z"/>
	<path fill="#A3A5A0" d="M102.3,120H25.7c-8.1,0-14.7,1-14.7-7l8.4-62.6C20.4,42.8,26,36,34.1,36h60.3c8.1,0,13.3,6.6,14.3,14.2
		L117,113C117,121,110.4,120,102.3,120z"/>
	<path fill="#F0F2EF" d="M94.4,99l-60.8-0.1c-5.2,0.1-9.5-4.1-9.6-9.3l5.7-37.3c0.5-5.1,4.3-9.3,9.6-9.3h49.3c5.3,0,9,4.2,9.6,9.2
		l5.7,37.5C103.9,94.9,99.6,99.1,94.4,99z"/>
	<path fill="#797B76" d="M17,108h94c3.3,0,6,2.7,6,6l0,0c0,3.3-2.7,6-6,6H17c-3.3,0-6-2.7-6-6l0,0C11,110.7,13.7,108,17,108z"/>
	<polygon fill="#555958" points="53,74 42,74 64,92 86,74 75,74 71.8,56 56.2,56 	"/>
	<rect x="56" y="8" fill="#A3A5A0" width="16" height="52"/>
</g>
</svg>
