<?xml version="1.0" encoding="utf-8"?>
<!-- Generator: Adobe Illustrator 24.0.0, SVG Export Plug-In . SVG Version: 6.00 Build 0)  -->
<svg version="1.1" id="transmageddon" xmlns="http://www.w3.org/2000/svg" xmlns:xlink="http://www.w3.org/1999/xlink" x="0px"
	 y="0px" viewBox="0 0 128 128" enable-background="new 0 0 128 128" xml:space="preserve">
<title>128</title>
<g id="_128">
	
		<linearGradient id="SVGID_1_" gradientUnits="userSpaceOnUse" x1="20.8204" y1="100.9205" x2="107.2604" y2="27.0105" gradientTransform="matrix(1 0 0 -1 0 128)">
		<stop  offset="0" style="stop-color:#8960FE"/>
		<stop  offset="1" style="stop-color:#2BB6EF"/>
	</linearGradient>
	<circle fill="url(#SVGID_1_)" cx="64" cy="64" r="59"/>
	<path fill="none" stroke="#FFFFFF" stroke-width="4" stroke-miterlimit="10" d="M110.3,84.1c-11.1,25.5-40.8,37.1-66.2,26
		C25.7,102.1,13.9,84,13.9,64l12.7,6.7"/>
	<path fill="none" stroke="#FFFFFF" stroke-width="4" stroke-miterlimit="10" d="M17.9,43.9C29,18.4,58.7,6.8,84.1,17.9
		c18.3,8,30.2,26.1,30.2,46.1l-12.7-6.7"/>
	<path fill="#FFFFFF" d="M35,43v43h58V43H35z M45,83h-7v-5h7V83z M45,75h-7v-5h7V75z M45,67h-7v-5h7V67z M45,59h-7v-5h7V59z M45,51
		h-7v-5h7V51z M55,75V53l19.6,11L55,75z M90,83h-7v-5h7V83z M90,75h-7v-5h7V75z M90,67h-7v-5h7V67z M90,59h-7v-5h7V59z M90,51h-7v-5
		h7V51z"/>
</g>
</svg>
