<svg id="图层_1" data-name="图层 1" xmlns="http://www.w3.org/2000/svg" xmlns:xlink="http://www.w3.org/1999/xlink" viewBox="0 0 128 128"><defs><style>.cls-1{fill:#616161;}.cls-2{fill:#f5f5f5;}.cls-3{fill:#9e9e9e;}.cls-4{fill:#ae4a43;}.cls-5{fill:url(#未命名的渐变_22);}</style><linearGradient id="未命名的渐变_22" x1="64" y1="10" x2="64" y2="97.56" gradientUnits="userSpaceOnUse"><stop offset="0" stop-color="#e6e6e6"/><stop offset="0.17" stop-color="#e3e3e3"/><stop offset="0.32" stop-color="#d8d9d9"/><stop offset="0.45" stop-color="#c6c8c9"/><stop offset="0.59" stop-color="#aeb1b3"/><stop offset="0.71" stop-color="#8e9396"/><stop offset="0.84" stop-color="#666e72"/><stop offset="0.96" stop-color="#384349"/><stop offset="1" stop-color="#263238"/></linearGradient></defs><title>transmission-gtk-112</title><path class="cls-1" d="M101.58,118H26.42a11.43,11.43,0,0,1-11.32-13L22.87,47a7.06,7.06,0,0,1,7-6.13H96.94a7.06,7.06,0,0,1,7,6l8.94,58A11.43,11.43,0,0,1,101.58,118Z"/><path class="cls-2" d="M91.89,102.16H36.11c-5.13,0-9.08-4.27-8.4-9.07l5.76-40.68a5.16,5.16,0,0,1,5.2-4.3H88.45a5.16,5.16,0,0,1,5.18,4.2l6.64,40.62C101.06,97.79,97.09,102.16,91.89,102.16Z"/><path class="cls-3" d="M88.45,49.13a4.13,4.13,0,0,1,4.18,3.35L99.26,93.1a6.6,6.6,0,0,1-1.53,5.41,7.62,7.62,0,0,1-5.84,2.64H36.11a7.6,7.6,0,0,1-5.79-2.59,6.63,6.63,0,0,1-1.61-5.33l5.77-40.68a4.15,4.15,0,0,1,4.19-3.42H88.45m0-1H38.67a5.16,5.16,0,0,0-5.2,4.3L27.71,93.09c-.68,4.8,3.27,9.07,8.4,9.07H91.89c5.2,0,9.17-4.37,8.38-9.23L93.63,52.31a5.16,5.16,0,0,0-5.18-4.2Z"/><rect class="cls-4" x="23.95" y="14.91" width="80.09" height="16.37" rx="8.15" ry="8.15"/><polygon class="cls-5" points="72.23 82.26 71.67 10 56.32 10 55.77 82.26 40.49 82.26 64 97.56 87.51 82.26 72.23 82.26"/><path class="cls-4" d="M53.78,108.51h4.6a6.2,6.2,0,0,1,1.51,3.95,5.17,5.17,0,0,1-1.74,3.92A6.1,6.1,0,0,1,53.83,118a7.58,7.58,0,0,1-3.94-1.11A7.82,7.82,0,0,1,47,113.78a9,9,0,0,1-1.06-4.3A8.81,8.81,0,0,1,47,105.21a7.63,7.63,0,0,1,3-3,8.15,8.15,0,0,1,4.08-1.09,8,8,0,0,1,2.75.49v4.83a5.36,5.36,0,0,0-2.24-.54A3.45,3.45,0,0,0,51.89,107a3.91,3.91,0,0,0-1,2.7,3.5,3.5,0,0,0,3.71,3.62c.73,0,1.09-.21,1.09-.64s-.24-.46-.73-.46H53.78Z"/><path class="cls-4" d="M64.38,101.46v4.66h2v4.71h-2a3.14,3.14,0,0,0,.44,2,2,2,0,0,0,1.63.54V118a6.46,6.46,0,0,1-4.8-1.74,6.74,6.74,0,0,1-1.73-4.94v-9.86Z"/><path class="cls-4" d="M74.22,101.46v16.27H69.76V101.46ZM81,105.85l-2.19,4.32,3.24,7.56H77.17L74.39,110l2-4.13Z"/></svg>