<svg id="图层_1" data-name="图层 1" xmlns="http://www.w3.org/2000/svg" viewBox="0 0 128 128"><defs><style>.cls-1{fill:#f5a816;}.cls-2{fill:#cfd8dc;}.cls-3{fill:red;}.cls-4{fill:#212121;}.cls-5{fill:#ffccbc;}</style></defs><title>traverso-112</title><polygon class="cls-1" points="75.8 118 52.42 118 67.77 41.27 91.15 41.27 75.8 118"/><polygon class="cls-2" points="52.33 118 45.13 117.98 60.48 41.25 67.68 41.27 52.33 118"/><path class="cls-3" d="M98.5,40.3l-1.12,5.62-13,65.21L75.81,118,90.15,46l1.1-5.47Q94.67,40.47,98.5,40.3Z"/><polygon class="cls-4" points="58.2 118 54.7 118 70.04 41.27 73.54 41.27 58.2 118"/><polygon class="cls-4" points="65.22 118 61.73 118 77.07 41.27 80.57 41.27 65.22 118"/><polygon class="cls-4" points="72.25 118 68.76 118 84.1 41.27 87.6 41.27 72.25 118"/><path class="cls-3" d="M66.87,50.53c-17-.33-31-7.33-31.37-11.92C35,32.47,38.91,27.79,60.33,10l-8.45.06c-24,19-23,26.25-22,30.38,1.57,6.12,14,15,35.83,15.54Z"/><path class="cls-5" d="M31.8,40.09c-.46-1.87-.64-5.34,2.46-10.46C30,34.93,30.45,38,31,40.07c1.33,5.37,12.92,13.39,33.6,14.36v0C44.42,53.26,33.11,45.39,31.8,40.09Z"/><path class="cls-3" d="M98.5,40.3l-1.12,5.62q-3.76.09-7.23.09Q55,46,52.59,36.43,51.06,30.23,63.33,20h8.45C66.36,24.59,61,31.15,61.65,34q1.77,7.08,29.6,6.58Q94.67,40.47,98.5,40.3Z"/><path class="cls-5" d="M55.27,37.18c-.6-1.28-1-3.73,1.65-7.55-3.85,4-3.16,6.14-2.48,7.6,1.73,3.7,13.9,8.59,34.59,7.88v0C68.85,45.64,57,40.84,55.27,37.18Z"/><polygon class="cls-5" points="81.86 110.53 82.17 110.58 93.99 50.26 93.69 50.21 81.86 110.53"/></svg>