<?xml version="1.0" encoding="utf-8"?>
<!-- Generator: Adobe Illustrator 24.0.0, SVG Export Plug-In . SVG Version: 6.00 Build 0)  -->
<svg version="1.1" id="图层_1" xmlns="http://www.w3.org/2000/svg" xmlns:xlink="http://www.w3.org/1999/xlink" x="0px" y="0px"
	 viewBox="0 0 128 128" enable-background="new 0 0 128 128" xml:space="preserve">
<title>traverso-112</title>
<polygon fill="#F5A816" points="75.8,118 52.4,118 67.8,41.3 91.2,41.3 "/>
<polygon fill="#CFD8DC" points="52.3,118 45.1,118 60.5,41.3 67.7,41.3 "/>
<path fill="#FF0000" d="M98.5,40.3l-1.1,5.6l-13,65.2l-8.6,6.9l14.3-72l1.1-5.5C93.5,40.5,95.9,40.4,98.5,40.3z"/>
<polygon fill="#212121" points="58.2,118 54.7,118 70,41.3 73.5,41.3 "/>
<polygon fill="#212121" points="65.2,118 61.7,118 77.1,41.3 80.6,41.3 "/>
<polygon fill="#212121" points="72.3,118 68.8,118 84.1,41.3 87.6,41.3 "/>
<path fill="#FF0000" d="M66.9,50.5c-17-0.3-31-7.3-31.4-11.9C35,32.5,38.9,27.8,60.3,10l-8.5,0.1c-24,19-23,26.3-22,30.4
	c1.6,6.1,14,15,35.8,15.5L66.9,50.5z"/>
<path fill="#FFCCBC" d="M31.8,40.1c-0.5-1.9-0.6-5.3,2.5-10.5C30,34.9,30.5,38,31,40.1c1.3,5.4,12.9,13.4,33.6,14.4l0,0
	C44.4,53.3,33.1,45.4,31.8,40.1z"/>
<path fill="#FF0000" d="M98.5,40.3l-1.1,5.6C94.9,46,92.5,46,90.1,46c-23.4,0-36-3.2-37.6-9.6c-1-4.1,2.6-9.6,10.7-16.4h8.4
	C66.4,24.6,61,31.1,61.7,34c1.2,4.7,11,6.9,29.6,6.6C93.5,40.5,95.9,40.4,98.5,40.3z"/>
<path fill="#FFCCBC" d="M55.3,37.2c-0.6-1.3-1-3.7,1.7-7.5c-3.8,4-3.2,6.1-2.5,7.6c1.7,3.7,13.9,8.6,34.6,7.9l0,0
	C68.8,45.6,57,40.8,55.3,37.2z"/>
<polygon fill="#FFCCBC" points="81.9,110.5 82.2,110.6 94,50.3 93.7,50.2 "/>
</svg>
