<svg id="图层_1" data-name="图层 1" xmlns="http://www.w3.org/2000/svg" viewBox="0 0 128 128"><defs><style>.cls-1{fill:#e0e0e0;}.cls-2{fill:#cfd8dc;}.cls-3{fill:#ff9800;}.cls-4{fill:#9e9e9e;}.cls-5{fill:#f57f17;}.cls-6{font-size:16.01px;}.cls-6,.cls-7,.cls-8{font-family:STXinwei-NUDT_Demo, STXinwei-NUDT_Demo;}.cls-7{font-size:16.4px;}.cls-8{font-size:12.96px;}</style></defs><title>tuxmath-112</title><path d="M102.43,67.13a52.26,52.26,0,0,1-6.05,24.72,50.15,50.15,0,0,1-2.66,4.36c-7,10.1-17.49,16.54-29.26,16.54-21,0-38-20.43-38-45.62s17-45.63,38-45.63h.92c15.56.45,28.8,12.13,34.31,28.57A53.54,53.54,0,0,1,102.43,67.13Z"/><polygon points="101.74 57.75 89.52 71.75 113.96 71.75 101.74 57.75"/><polygon points="27.18 57.75 14.96 71.75 39.4 71.75 27.18 57.75"/><path class="cls-1" d="M92.16,90.5a13.49,13.49,0,0,1-1.28,5.62C87,104.6,74.92,111,64.47,111a33.93,33.93,0,0,1-14.27-3.45,31.83,31.83,0,0,1-8.69-6c-3.2-3.21-5.23-7-5.23-11,0-11.12,15.65-34.25,28.32-34.25,9.86,0,21.08,14,25.56,25.5A25.29,25.29,0,0,1,92.16,90.5Z"/><ellipse class="cls-2" cx="56.82" cy="42.25" rx="6.77" ry="8.5"/><ellipse class="cls-2" cx="72.11" cy="42.25" rx="6.77" ry="8.5"/><path class="cls-3" d="M65.21,59.85l6.73-9.28a1.46,1.46,0,0,0-1.19-2.32H58.37a1.46,1.46,0,0,0-1.19,2.32l6.73,9.28A.81.81,0,0,0,65.21,59.85Z"/><ellipse cx="59.08" cy="42.75" rx="2.26" ry="2.25"/><ellipse cx="59.08" cy="42.75" rx="2.26" ry="2.25"/><path class="cls-4" d="M90.88,96.12C87,104.6,74.92,111,64.47,111a33.93,33.93,0,0,1-14.27-3.45,31.83,31.83,0,0,1-8.69-6,42.35,42.35,0,0,0,20.58,5.73C74.12,107.26,83.94,101.43,90.88,96.12Z"/><path class="cls-3" d="M59.7,110.88c0,1.24-1,2.39-2.75,3.33-2.58,1.39-6.73,2.29-11.41,2.29-6.11,0-11.33-1.54-13.31-3.7a2.9,2.9,0,0,1-.85-1.92c0-3.11,6.34-5.63,14.16-5.63S59.7,107.77,59.7,110.88Z"/><path class="cls-5" d="M57,114.21c-2.58,1.39-6.73,2.29-11.41,2.29-6.11,0-11.33-1.54-13.31-3.7a41.88,41.88,0,0,1,8.68-1.55A35.21,35.21,0,0,1,57,114.21Z"/><path class="cls-3" d="M69.22,110.87c0,1.25,1,2.4,2.75,3.34,2.58,1.39,6.73,2.29,11.41,2.29,6.12,0,11.33-1.54,13.31-3.7a2.86,2.86,0,0,0,.85-1.92c0-3.11-6.34-5.63-14.16-5.63S69.22,107.77,69.22,110.87Z"/><path class="cls-5" d="M72,114.21c2.58,1.39,6.73,2.29,11.41,2.29,6.12,0,11.33-1.54,13.31-3.7A41.78,41.78,0,0,0,88,111.25,35.23,35.23,0,0,0,72,114.21Z"/><rect x="68.21" y="41.13" width="6.58" height="1.58" rx="0.79" ry="0.79" transform="translate(-11.31 45.35) rotate(-32.75)"/><rect x="71.09" y="40.33" width="1.58" height="6.58" rx="0.79" ry="0.79" transform="translate(19.77 109.61) rotate(-82.95)"/><path d="M58.25,86.82H44.87a.7.7,0,1,1,0-1.4H58.25a.7.7,0,1,1,0,1.4Z"/><path d="M69.88,85.09H62.52c-.23,0-.42-.31-.42-.7s.19-.7.42-.7h7.36c.22,0,.41.31.41.7S70.1,85.09,69.88,85.09Z"/><path d="M69.88,88.55H62.52c-.23,0-.42-.31-.42-.7s.19-.7.42-.7h7.36c.22,0,.41.31.41.7S70.1,88.55,69.88,88.55Z"/><text class="cls-6" transform="translate(46.58 83.53) scale(1.11 1)">6</text><text class="cls-7" transform="matrix(1.25, -0.17, 0.16, 0.99, 47.37, 100.42)">3</text><text class="cls-8" transform="matrix(1.71, -0.21, 0.14, 0.99, 72.25, 91.47)">2</text></svg>