<svg id="图层_1" data-name="图层 1" xmlns="http://www.w3.org/2000/svg" xmlns:xlink="http://www.w3.org/1999/xlink" viewBox="0 0 128 128"><defs><style>.cls-1{fill:#998675;}.cls-2{fill:none;}.cls-3{fill:#0d47a1;}.cls-4{fill:#fff;}.cls-5{fill:#e6e6e6;}.cls-6{fill:url(#未命名的渐变_8);}.cls-7{fill:#f2f2f2;}.cls-8{fill:#ffca48;}.cls-9{fill:#d8b405;}.cls-10{fill:url(#未命名的渐变_14);}.cls-11{fill:url(#未命名的渐变_8-2);}.cls-12{fill:url(#未命名的渐变_8-3);}.cls-13{fill:#ffc02e;}.cls-14{opacity:0.6;fill:url(#未命名的渐变_8-4);}</style><linearGradient id="未命名的渐变_8" x1="62.85" y1="47.2" x2="62.85" y2="34.62" gradientUnits="userSpaceOnUse"><stop offset="0"/><stop offset="1" stop-color="#999"/></linearGradient><linearGradient id="未命名的渐变_14" x1="64.25" y1="70.83" x2="64.25" y2="89.95" gradientUnits="userSpaceOnUse"><stop offset="0" stop-color="#ccc"/><stop offset="1" stop-color="#fff"/></linearGradient><linearGradient id="未命名的渐变_8-2" x1="40.72" y1="91.95" x2="40.72" y2="61.78" xlink:href="#未命名的渐变_8"/><linearGradient id="未命名的渐变_8-3" x1="82.69" y1="90.75" x2="82.69" y2="67.42" xlink:href="#未命名的渐变_8"/><linearGradient id="未命名的渐变_8-4" x1="41.65" y1="87.31" x2="45.28" y2="83.69" xlink:href="#未命名的渐变_8"/></defs><title>tuxmath128</title><rect class="cls-1" x="8" y="8" width="112" height="112" rx="12"/><path class="cls-2" d="M75.72,24.38a1.72,1.72,0,0,0-1.24.57,3.4,3.4,0,0,0-.81,1.56,2,2,0,0,0-.1.44,2.69,2.69,0,0,0,0,.4,1.29,1.29,0,0,0,.3.9,1.1,1.1,0,0,0,.85.33,1.58,1.58,0,0,0,1.23-.53,3.87,3.87,0,0,0,.7-1.16,1.25,1.25,0,0,0,.09-.25l.08-.24q0-.21.06-.39a2.16,2.16,0,0,0,0-.35,1.37,1.37,0,0,0-.3-.95A1.08,1.08,0,0,0,75.72,24.38Z"/><path class="cls-3" d="M29.73,24v3.14H26.31v8.48H22.38V27.14H19V24Z"/><path class="cls-3" d="M35.22,24v7.32a1.68,1.68,0,0,0,.54,1.32,1.88,1.88,0,0,0,1.19.5h.15l.08,0a1.82,1.82,0,0,0,1.09-.52,1.64,1.64,0,0,0,.49-1.27V24h3.92v7.32a4.17,4.17,0,0,1-1.52,3.49A6.65,6.65,0,0,1,37,36a6.12,6.12,0,0,1-4.1-1.23,4.56,4.56,0,0,1-1.44-3.69V24Z"/><path class="cls-3" d="M48.55,24l1.64,2.88,2-2.88h4.42l-4.42,5.68,4,5.94H51.84l-1.78-3.13-1.88,3.13h-4.3l4-5.94L44.13,24Z"/><path class="cls-3" d="M63.88,31.06l2-7.06h4.67V35.62H67V31.06l.25-2.5-2,7.06H62.49l-2-7.19.25,2.63v4.56H57.19V24h4.68Z"/><path class="cls-3" d="M79.6,24l4.16,11.62H79.85l-.38-1.51H75.68l-.41,1.51H71.39L75.55,24Zm-.92,7.73-1.11-3.8-1.14,3.8Z"/><path class="cls-3" d="M95.17,24v3.14H91.76v8.48H87.82V27.14H84.45V24Z"/><path class="cls-3" d="M100.67,24v3.93h3.41V24H108V35.62h-3.92V31.19h-3.41v4.43H96.75V24Z"/><path d="M81,93.14c-4.6,4-10,3.8-8.19-.4,1.6-3.79,9.39-3.19,9-12A33.82,33.82,0,0,0,77,64.58a2.1,2.1,0,0,1-.36-1.49,12.57,12.57,0,0,1-2-5.9c-.29-6.2.4-11-.8-15.18-1.4-4.8-5.21-8.73-13-8.19-8.59.6-11.18,6.39-12,10.59-1,5.28.36,7.39.2,11.38-.2,4.79-14.19,10-15.78,27.57-1.35,14.77,10,23.77,17,24.57s8.78-1.2,13.78-1.2a71.25,71.25,0,0,1,13,1.2c4.29.68,8.49-8.64,10-19.23C85.73,91.19,84.27,90.32,81,93.14Z"/><path class="cls-4" d="M60.25,52c2,.12,9.19,1.64,10,2.21s1,1.29,1.6,7c.4,3.82,4.12,9.76,7,16.39,3.2,7.38,3.8,26.15-14.58,26-18.65-.19-20.18-9.1-20.38-16.68s9.59-18.47,11.19-26.07C56.54,53.75,57.06,51.79,60.25,52Z"/><ellipse class="cls-5" cx="64.25" cy="63.01" rx="6.19" ry="4.94"/><ellipse class="cls-6" cx="62.85" cy="40.91" rx="9.39" ry="6.29"/><path d="M76.67,63.09A2.1,2.1,0,0,0,77,64.58a33.82,33.82,0,0,1,4.8,16.18c.4,8.79-7.39,8.19-9,12-1.77,4.2,3.59,4.4,8.19.4,3.24-2.82,5.84,2.3,7.19-.2.26-1.75.7-4.6.8-6.39C89.48,78.44,80.44,69.35,76.67,63.09Z"/><ellipse class="cls-7" cx="59.95" cy="48.8" rx="3.9" ry="5.19"/><ellipse cx="60.31" cy="49.8" rx="2.12" ry="2.83"/><ellipse class="cls-7" cx="60.84" cy="48.41" rx="0.71" ry="0.99"/><ellipse class="cls-7" cx="68.54" cy="49.07" rx="3.1" ry="4.13"/><ellipse cx="68.26" cy="49.86" rx="1.69" ry="2.25"/><ellipse class="cls-7" cx="67.84" cy="48.76" rx="0.56" ry="0.79"/><path class="cls-8" d="M62.31,61.33l0,0a43,43,0,0,0-6.39-2.1c-1.59-.24-2.35-3.37.12-5l0,0,7.45-3.71,0,0a3.21,3.21,0,0,1,3.71.08l4.7,3.39a2.79,2.79,0,0,1-.06,4.6l-.15.1C69.64,60,68,61.16,68,61.16,66.87,62,63.46,62,62.31,61.33Z"/><path class="cls-9" d="M65.44,59.59a5.74,5.74,0,0,1-.71,0,17.4,17.4,0,0,1-6.39-2.2,6.52,6.52,0,0,0-2.28-.91V56a6.58,6.58,0,0,1,2.46,1,17,17,0,0,0,6.25,2.16c4.18.43,7.28-3.44,7.31-3.48l.32.24C72.27,56.07,69.47,59.59,65.44,59.59Z"/><ellipse class="cls-10" cx="64.25" cy="80.39" rx="11.99" ry="9.56"/><path class="cls-4" d="M46.67,67.18s-9,11-4.19,19.37l1.39-.8S41.28,80,42.87,75C44,71.47,45.67,69.17,46.67,67.18Z"/><path class="cls-11" d="M46.07,61.78s-7,7-9.39,14.79c-1.73,5.61-1.8,12,0,15.38l3.4-1S38,81,39.08,76.37C40.48,70.57,41.68,68.38,46.07,61.78Z"/><path class="cls-4" d="M79,69.77s4,5.4,2.6,10.79c-.84,3.25-4,6-4.4,6l2.2,1S83,84,83,79.56C83,76.37,81,71.57,79,69.77Z"/><path class="cls-12" d="M78.23,67.58c0-1.28,5.39,5.39,7.39,10.58S88,89,84.42,90.75H83s2.6-6.39,1.8-10.39C83.27,72.6,78.23,68.57,78.23,67.58Z"/><path class="cls-13" d="M93,91.74c3,.6,4.8,3.39,3,6.19-2.1,3.26,1.17,7.1-1.19,9.61-3.65,3.88-8.8-.42-13.68,1.75-6.38,2.84-12.1-2.17-11.1-6.37,1.34-5.62,4.2-5.79,9.59-13.78C86.9,78.37,90.16,91.17,93,91.74Z"/><path class="cls-13" d="M36.81,88.47c-3.05-.09-5.44,2.23-4.32,5.36,1.31,3.65-2.74,6.65-1,9.63,2.67,4.6,8.66,1.57,12.92,4.79,5.58,4.21,12.28.61,12.26-3.7,0-5.78-2.78-6.59-6.24-15.59C45.78,76.82,39.72,88.56,36.81,88.47Z"/><path class="cls-4" d="M38.18,85.28a30.72,30.72,0,0,1,5.06-2.87,2.83,2.83,0,0,1,3.58,1.65.25.25,0,0,0,0-.08,3,3,0,0,0-4-2.51,32.87,32.87,0,0,0-5.39,3.06c-1.4,1-1.1,3.77.12,4.68a6.69,6.69,0,0,0,.62.4C37.13,88.69,36.89,86.2,38.18,85.28Z"/><path d="M46.45,89.26A22.42,22.42,0,0,0,46.84,85a2.73,2.73,0,0,0-3-2.76,2.68,2.68,0,0,0-.56.13,30.72,30.72,0,0,0-5.06,2.87,2.83,2.83,0,0,0-.74,3,2.67,2.67,0,0,0,1.36,1.64,19.65,19.65,0,0,0,4.05,1.55C44.66,91.88,46.05,91.33,46.45,89.26Z"/><path class="cls-14" d="M45.25,86.59a11,11,0,0,0,.2-2.14,1.38,1.38,0,0,0-1.54-1.39,1,1,0,0,0-.28.07,14.78,14.78,0,0,0-2.57,1.45,1.45,1.45,0,0,0-.37,1.53,1.36,1.36,0,0,0,.69.83,10.13,10.13,0,0,0,2,.79A1.34,1.34,0,0,0,45.25,86.59Z"/></svg>