<?xml version="1.0" encoding="utf-8"?>
<!-- Generator: Adobe Illustrator 24.0.0, SVG Export Plug-In . SVG Version: 6.00 Build 0)  -->
<svg version="1.1"
	 id="svg7384" xmlns:cc="http://creativecommons.org/ns#" xmlns:dc="http://purl.org/dc/elements/1.1/" xmlns:osb="http://www.openswatchbook.org/uri/2009/osb" xmlns:rdf="http://www.w3.org/1999/02/22-rdf-syntax-ns#" xmlns:svg="http://www.w3.org/2000/svg" opacity="0.8"
	 xmlns="http://www.w3.org/2000/svg" xmlns:xlink="http://www.w3.org/1999/xlink" x="0px" y="0px" viewBox="0 0 16 16"
	 style="enable-background:new 0 0 16 16;" xml:space="preserve">
<style type="text/css">
	.st0{fill:#1F2022;}
</style>
<g id="layer9" transform="translate(-813.00024,67.000031)">
</g>
<g id="layer2" transform="translate(-572.00004,-299.99997)">
</g>
<g id="layer4" transform="translate(-572.00004,-299.99997)">
</g>
<g id="g1812" transform="translate(-572.00004,-299.99997)">
</g>
<g id="g6217" transform="translate(-572.00004,-299.99997)">
</g>
<g id="layer3" transform="translate(-572.00004,-299.99997)">
</g>
<g id="g1833" transform="translate(-572.00004,-299.99997)">
	<g id="path7069-0-9">
		<path class="st0" d="M580,301c3.9,0,7,3.1,7,7s-3.1,7-7,7s-7-3.1-7-7S576.1,301,580,301 M580,300c-4.4,0-8,3.6-8,8s3.6,8,8,8
			s8-3.6,8-8S584.4,300,580,300L580,300z"/>
	</g>
	<path id="rect4814" class="st0" d="M578,304v4h-2l3.6,5.4c0.2,0.3,0.6,0.3,0.8,0l3.6-5.4h-2v-4c0-0.6-0.4-1-1-1h-2
		C578.4,303,578,303.4,578,304z"/>
</g>
<g id="layer1" transform="translate(-572.00004,-299.99997)">
</g>
</svg>
