<svg id="图层_1" data-name="图层 1" xmlns="http://www.w3.org/2000/svg" viewBox="0 0 128 128"><defs><style>.cls-1{fill:#8bc34a;}.cls-2{fill:#455a64;}.cls-3{fill:#f5f5f5;}</style></defs><title>uget-112</title><rect class="cls-1" x="8" y="8" width="112" height="112" rx="12" ry="12"/><path class="cls-2" d="M78.13,63.37v8.81h7.13L70.36,89.45,55.47,72.18H62.6V41.1H78.13V57.26H97.62v-22H59.27A15.66,15.66,0,0,0,43.61,50.89V79.65A15.66,15.66,0,0,0,59.27,95.31H82A15.66,15.66,0,0,0,97.62,79.65V63.37Z"/><path class="cls-2" d="M49.47,72.15V82.33H36.25a8.13,8.13,0,0,1-5.17-1.8l-.33-.28a8.17,8.17,0,0,1-2.66-6.11V49H38.27V72.15Z"/><path class="cls-3" d="M80.42,60.82v8.81h7.13L72.66,86.9,57.76,69.63h7.13V38.55H80.42V54.72H99.91v-22H61.56A15.65,15.65,0,0,0,45.91,48.35V77.11A15.65,15.65,0,0,0,61.56,92.76h22.7A15.65,15.65,0,0,0,99.91,77.11V60.82Z"/><path class="cls-3" d="M51.76,69.6V79.78H38.54A8.18,8.18,0,0,1,33.37,78L33,77.7a8.2,8.2,0,0,1-2.66-6.1V46.44H40.56V69.6Z"/></svg>