<svg id="启动盘" xmlns="http://www.w3.org/2000/svg" viewBox="0 0 128 128"><defs><style>.cls-1{fill:#263238;}.cls-2{fill:#47b5f8;}.cls-3{fill:#455a64;}.cls-4{fill:#b9c1c3;}.cls-5{opacity:0.7;}.cls-6{fill:#fff;}</style></defs><title>128</title><g id="_128" data-name="128"><g id="g6"><path id="path10" class="cls-1" d="M8,102v12a6,6,0,0,0,6,6H114a6,6,0,0,0,6-6V102Z"/><path class="cls-2" d="M120,102,104.91,20.9A6,6,0,0,0,99,16H29a6,6,0,0,0-5.9,4.9L8,102Z"/><polygon class="cls-3" points="9.71 93 8 102 120 102 118.29 93 9.71 93"/></g><g id="g12"><path id="path14" class="cls-4" d="M52,115H47v-8h5Z"/><path id="path14-2" data-name="path14" class="cls-4" d="M42,115H37v-8h5Z"/><path id="path14-3" data-name="path14" class="cls-4" d="M32,115H27v-8h5Z"/><path id="path14-4" data-name="path14" class="cls-4" d="M22,115H17v-8h5Z"/><path id="path16" class="cls-2" d="M94,115h14v-8H94Z"/></g><g class="cls-5"><path class="cls-6" d="M64,26A27,27,0,1,1,37,53,27,27,0,0,1,64,26m0-3A30,30,0,1,0,94,53,30,30,0,0,0,64,23Z"/><path class="cls-6" d="M79.75,37.23A.87.87,0,0,0,79.1,37a38.92,38.92,0,0,0-10.39,2.15,28.89,28.89,0,0,0-11,6.67c-.64.64-1.27,1.32-1.86,2a6.32,6.32,0,0,0-6.52-.38C46,49.21,44,54,44,57.43a.87.87,0,0,0,.53.8,1,1,0,0,0,.34.06.85.85,0,0,0,.61-.25,5.51,5.51,0,0,1,4.58-1.54l.3.31A32.57,32.57,0,0,0,48.93,61c-.12.5,6.57,7.16,7,7a31.23,31.23,0,0,0,4.21-1.43l.3.3a5.5,5.5,0,0,1-1.54,4.58A.86.86,0,0,0,59.55,73c3.43,0,8.22-2,10-5.33a6.35,6.35,0,0,0-.37-6.53c.7-.59,1.38-1.21,2-1.86a28.89,28.89,0,0,0,6.67-11A38.46,38.46,0,0,0,80,37.88.87.87,0,0,0,79.75,37.23ZM70,53.15A4.33,4.33,0,1,1,70,47,4.35,4.35,0,0,1,70,53.15Z"/></g></g></svg>