<?xml version="1.0" encoding="utf-8"?>
<!-- Generator: Adobe Illustrator 24.0.0, SVG Export Plug-In . SVG Version: 6.00 Build 0)  -->
<svg version="1.1" id="启动盘" xmlns="http://www.w3.org/2000/svg" xmlns:xlink="http://www.w3.org/1999/xlink" x="0px" y="0px"
	 viewBox="0 0 128 128" enable-background="new 0 0 128 128" xml:space="preserve">
<title>128</title>
<g id="_128">
	<g id="g6">
		<path id="path10" fill="#263238" d="M8,102v12c0,3.3,2.7,6,6,6h100c3.3,0,6-2.7,6-6v-12H8z"/>
		<path fill="#47B5F8" d="M120,102l-15.1-81.1c-0.5-2.8-3-4.9-5.9-4.9H29c-2.9,0-5.4,2.1-5.9,4.9L8,102H120z"/>
		<polygon fill="#455A64" points="9.7,93 8,102 120,102 118.3,93 		"/>
	</g>
	<g id="g12">
		<path id="path14" fill="#B9C1C3" d="M52,115h-5v-8h5V115z"/>
		<path id="path14-2" fill="#B9C1C3" d="M42,115h-5v-8h5V115z"/>
		<path id="path14-3" fill="#B9C1C3" d="M32,115h-5v-8h5V115z"/>
		<path id="path14-4" fill="#B9C1C3" d="M22,115h-5v-8h5V115z"/>
		<path id="path16" fill="#47B5F8" d="M94,115h14v-8H94V115z"/>
	</g>
	<g opacity="0.7">
		<path fill="#FFFFFF" d="M64,26c14.9,0,27,12.1,27,27S78.9,80,64,80S37,67.9,37,53S49.1,26,64,26 M64,23c-16.6,0-30,13.4-30,30
			s13.4,30,30,30s30-13.4,30-30S80.6,23,64,23z"/>
		<path fill="#FFFFFF" d="M79.8,37.2c-0.2-0.2-0.4-0.2-0.7-0.2c-3.5,0.2-7,1-10.4,2.2c-4.1,1.4-7.9,3.7-11,6.7
			c-0.6,0.6-1.3,1.3-1.9,2c-1.9-1.3-4.4-1.5-6.5-0.4C46,49.2,44,54,44,57.4c0,0.5,0.4,0.9,0.9,0.9c0.2,0,0.4-0.1,0.6-0.2
			c1.2-1.2,2.9-1.8,4.6-1.5l0.3,0.3c-0.6,1.4-1.1,2.8-1.4,4.2c-0.1,0.5,6.6,7.2,7,7c1.4-0.4,2.8-0.9,4.2-1.4l0.3,0.3
			c0.2,1.7-0.3,3.4-1.5,4.6c-0.4,0.3-0.5,0.8-0.2,1.2c0.2,0.3,0.5,0.4,0.8,0.3c3.4,0,8.2-2,10-5.3c1.1-2.1,0.9-4.6-0.4-6.5
			c0.7-0.6,1.4-1.2,2-1.9c3-3.1,5.3-6.9,6.7-11c1.2-3.4,1.9-6.9,2.2-10.4C80,37.6,79.9,37.4,79.8,37.2z M70,53.2
			c-1.7,1.7-4.4,1.7-6.1,0c-1.7-1.7-1.7-4.4,0-6.1c1.7-1.7,4.4-1.7,6.1,0C71.7,48.7,71.7,51.4,70,53.2C70,53.1,70,53.1,70,53.2z"/>
	</g>
</g>
</svg>
