<?xml version="1.0" encoding="utf-8"?>
<!-- Generator: Adobe Illustrator 24.0.0, SVG Export Plug-In . SVG Version: 6.00 Build 0)  -->
<svg version="1.1" id="桌面" xmlns="http://www.w3.org/2000/svg" xmlns:xlink="http://www.w3.org/1999/xlink" x="0px" y="0px"
	 viewBox="0 0 128 128" enable-background="new 0 0 128 128" xml:space="preserve">
<title>128</title>
<g id="_128">
	
		<linearGradient id="SVGID_1_" gradientUnits="userSpaceOnUse" x1="64" y1="9.95" x2="64" y2="110.86" gradientTransform="matrix(1 0 0 -1 0 128)">
		<stop  offset="0.19" style="stop-color:#1083C3"/>
		<stop  offset="0.41" style="stop-color:#2CA5EE"/>
	</linearGradient>
	<path fill="url(#SVGID_1_)" d="M20,8h88c6.6,0,12,5.4,12,12v88c0,6.6-5.4,12-12,12H20c-6.6,0-12-5.4-12-12V20C8,13.4,13.4,8,20,8z"
		/>
	<path opacity="0.5" enable-background="new    " d="M108,120H20c-6.6,0-12-5.4-12-12v-7h112v7C120,114.6,114.6,120,108,120z"/>
	<g>
		<defs>
			<path id="SVGID_2_" d="M14,57h100c3.3,0,6,2.7,6,6v40c0,3.3-2.7,6-6,6H14c-3.3,0-6-2.7-6-6V63C8,59.7,10.7,57,14,57z"/>
		</defs>
		<clipPath id="SVGID_3_">
			<use xlink:href="#SVGID_2_"  overflow="visible"/>
		</clipPath>
		<g clip-path="url(#SVGID_3_)">
			<path fill="#016091" d="M8.4,67.7c4.2-0.9,12.4,7,17.1,6c9.9-2.1,19.1-6,22.1-6c4.4,0,17.5,6.7,17.5,6.7s8.8-6.7,12.2-6.7
				c1.8,0,5.3,6.7,5.3,6.7s3.4-8,8.7-8c3.1,0,12.2,6.7,12.2,6.7s9.3-4.3,12.4-3.2c3.9,1.3,9.1,3.8,9.1,3.8l-1,7.3H0
				C0,81,1.1,69.3,8.4,67.7z"/>
		</g>
	</g>
	<radialGradient id="SVGID_4_" cx="88" cy="62" r="28" gradientTransform="matrix(1 0 0 -1 0 128)" gradientUnits="userSpaceOnUse">
		<stop  offset="0" style="stop-color:#FFFFFF"/>
		<stop  offset="1" style="stop-color:#FFFFFF;stop-opacity:0"/>
	</radialGradient>
	<path opacity="0.9" fill="url(#SVGID_4_)" enable-background="new    " d="M88,38c-15.5,0-28,12.5-28,28s12.5,28,28,28
		s28-12.5,28-28S103.5,38,88,38z M88,84.7c-10.3,0-18.7-8.4-18.7-18.7c0-10.3,8.4-18.7,18.7-18.7s18.7,8.4,18.7,18.7c0,0,0,0,0,0
		C106.7,76.3,98.3,84.7,88,84.7z"/>
	<rect x="20" y="48" opacity="0.6" fill="#FFFFFF" enable-background="new    " width="8" height="8"/>
	<rect x="20" y="34" opacity="0.6" fill="#FFFFFF" enable-background="new    " width="8" height="8"/>
	<rect x="20" y="20" opacity="0.6" fill="#FFFFFF" enable-background="new    " width="8" height="8"/>
</g>
</svg>
