<?xml version="1.0" encoding="utf-8"?>
<!-- Generator: Adobe Illustrator 24.0.0, SVG Export Plug-In . SVG Version: 6.00 Build 0)  -->
<svg version="1.1" id="图层_2" xmlns="http://www.w3.org/2000/svg" xmlns:xlink="http://www.w3.org/1999/xlink" x="0px" y="0px"
	 viewBox="0 0 128 128" style="enable-background:new 0 0 128 128;" xml:space="preserve">
<linearGradient id="SVGID_1_" gradientUnits="userSpaceOnUse" x1="62.9873" y1="256.64" x2="64.8173" y2="154.29" gradientTransform="matrix(1 0 0 -1 0 264)">
	<stop  offset="0" style="stop-color:#6D5FFF"/>
	<stop  offset="1" style="stop-color:#5237D9"/>
</linearGradient>
<circle style="fill:url(#SVGID_1_);" cx="64" cy="64" r="59"/>
<g style="opacity:0.1;">
	<path style="fill:#FFFFFF;" d="M40.2,118h47.5c2.6-1.2,5.1-2.5,7.5-4H32.7C35.1,115.5,37.6,116.8,40.2,118z"/>
	<path style="fill:#FFFFFF;" d="M18.1,101H110c1-1.3,2-2.6,3-4H15.1C16,98.4,17,99.7,18.1,101z"/>
	<path style="fill:#FFFFFF;" d="M8.5,84h111c0.5-1.3,0.9-2.6,1.3-4H7.2C7.6,81.4,8,82.7,8.5,84z"/>
	<path style="fill:#FFFFFF;" d="M5,63c0,0.3,0,0.7,0,1c0,1,0,2,0.1,3h117.8c0-1,0.1-2,0.1-3c0-0.3,0-0.7,0-1H5z"/>
	<path style="fill:#FFFFFF;" d="M120.2,46H7.8c-0.4,1.3-0.8,2.6-1.1,4h114.6C121,48.6,120.6,47.3,120.2,46z"/>
	<path style="fill:#FFFFFF;" d="M111.5,29h-95c-1,1.3-1.9,2.6-2.7,4h100.4C113.3,31.6,112.4,30.3,111.5,29z"/>
	<path style="fill:#FFFFFF;" d="M91.9,12H36.1c-2.2,1.2-4.4,2.5-6.4,4h68.6C96.2,14.5,94.1,13.2,91.9,12z"/>
</g>
<path style="fill:none;stroke:#FFFFFF;stroke-width:8;stroke-miterlimit:10;" d="M114.9,66l-4.4,6.2c-2,2.7-5.8,3.4-8.5,1.4
	c-0.8-0.5-1.4-1.3-1.8-2.1l-6.3-11.8c-1.6-3-5.3-4.1-8.3-2.5c-1,0.6-1.9,1.4-2.5,2.4l-4.5,8.2c-1.6,3-5.3,4-8.3,2.4
	c-1.5-0.8-2.5-2.2-3-3.8l-4.9-18.7c-0.9-3.3-4.2-5.2-7.4-4.4c-2.2,0.6-3.9,2.4-4.4,4.6L45.2,72c-0.7,3.3-4,5.4-7.3,4.7
	c-1.8-0.4-3.3-1.5-4.1-3.2L31.5,69c-1.6-3-5.2-4.2-8.2-2.6c-0.2,0.1-0.4,0.2-0.6,0.3L10,75.2"/>
</svg>
