<?xml version="1.0" encoding="utf-8"?>
<!-- Generator: Adobe Illustrator 24.0.0, SVG Export Plug-In . SVG Version: 6.00 Build 0)  -->
<svg version="1.1" id="图层_1" xmlns="http://www.w3.org/2000/svg" xmlns:xlink="http://www.w3.org/1999/xlink" x="0px" y="0px"
	 viewBox="0 0 96 96" enable-background="new 0 0 96 96" xml:space="preserve">
<title>96</title>
<g id="播放-x">
	<g id="_96">
		
			<linearGradient id="_48_1_" gradientUnits="userSpaceOnUse" x1="48" y1="-8" x2="48" y2="-92" gradientTransform="matrix(1 0 0 1 0 98)">
			<stop  offset="0" style="stop-color:#7868C1"/>
			<stop  offset="1" style="stop-color:#9881E5"/>
		</linearGradient>
		<path id="_48" fill="url(#_48_1_)" d="M82,69V15c0-5-4-9-9-9H23c-5,0-9,4-9,9v66c0,5,4,9,9,9h38L82,69z"/>
		
			<linearGradient id="SVGID_1_" gradientUnits="userSpaceOnUse" x1="63.6598" y1="-25.0297" x2="70.4798" y2="-19.3497" gradientTransform="matrix(1 0 0 1 0 98)">
			<stop  offset="0" style="stop-color:#FFFFFF;stop-opacity:0.4"/>
			<stop  offset="1" style="stop-color:#FFFFFF;stop-opacity:0.2"/>
		</linearGradient>
		<path fill="url(#SVGID_1_)" d="M67,69h15L61,90V75C61,71.7,63.7,69,67,69z"/>
		<path opacity="0.9" fill="#FFFFFF" enable-background="new    " d="M37,30.2v29.7c0,1.1,0.9,2,2,2c0.3,0,0.7-0.1,1-0.3l25.3-15.2
			c1-0.6,1.3-1.8,0.7-2.7c-0.2-0.3-0.4-0.5-0.7-0.7L40,28.4c-1-0.6-2.2-0.2-2.7,0.7C37.1,29.5,37,29.8,37,30.2z"/>
	</g>
</g>
</svg>
