<?xml version="1.0" encoding="utf-8"?>
<!-- Generator: Adobe Illustrator 24.0.0, SVG Export Plug-In . SVG Version: 6.00 Build 0)  -->
<svg version="1.1" id="图层_1" xmlns="http://www.w3.org/2000/svg" xmlns:xlink="http://www.w3.org/1999/xlink" x="0px" y="0px"
	 viewBox="0 0 16 16" enable-background="new 0 0 16 16" xml:space="preserve">
<title>16</title>
<g id="视频">
	<g id="_16">
		
			<linearGradient id="SVGID_1_" gradientUnits="userSpaceOnUse" x1="8" y1="-83" x2="8" y2="-97" gradientTransform="matrix(1 0 0 1 0 98)">
			<stop  offset="0" style="stop-color:#8738B2"/>
			<stop  offset="1" style="stop-color:#B268DA"/>
		</linearGradient>
		<path fill="url(#SVGID_1_)" d="M14,13V3c0-1.1-0.9-2-2-2H4C2.9,1,2,1.9,2,3v10c0,1.1,0.9,2,2,2h7h1C13.1,15,14,14.1,14,13z"/>
		
			<linearGradient id="SVGID_2_" gradientUnits="userSpaceOnUse" x1="6" y1="10.18" x2="11" y2="10.18" gradientTransform="matrix(1 0 0 -1 0 18)">
			<stop  offset="0" style="stop-color:#FFFFFF"/>
			<stop  offset="1" style="stop-color:#FFFFFF;stop-opacity:0.7"/>
		</linearGradient>
		<path fill="url(#SVGID_2_)" d="M10.7,7.4L6.8,5.1C6.5,4.9,6.2,5,6.1,5.3C6,5.4,6,5.5,6,5.6v4.5c0,0.3,0.2,0.5,0.5,0.5
			c0.1,0,0.2,0,0.3-0.1l3.9-2.3C11,8.1,11.1,7.8,11,7.6C10.9,7.5,10.8,7.4,10.7,7.4z"/>
	</g>
</g>
</svg>
