<?xml version="1.0" encoding="utf-8"?>
<!-- Generator: Adobe Illustrator 24.0.0, SVG Export Plug-In . SVG Version: 6.00 Build 0)  -->
<svg version="1.1" id="图层_1" xmlns="http://www.w3.org/2000/svg" xmlns:xlink="http://www.w3.org/1999/xlink" x="0px" y="0px"
	 viewBox="0 0 128 128" enable-background="new 0 0 128 128" xml:space="preserve">
<title>viewpdf128</title>
<path fill="#808080" d="M20,8h88c6.6,0,12,5.4,12,12v88c0,6.6-5.4,12-12,12H20c-6.6,0-12-5.4-12-12V20C8,13.4,13.4,8,20,8z"/>
<polygon fill="#C1272D" points="26,16 26,112 102,112 102,30.3 86.9,16 "/>
<text transform="matrix(0.99 0 0 1 27.8999 58.3799)" fill="#FFFFFF" font-family="'HelveticaObl-Heavy'" font-size="32.42px">PDF</text>
<g>
	<defs>
		<path id="SVGID_1_" d="M20,8h88c6.6,0,12,5.4,12,12v88c0,6.6-5.4,12-12,12H20c-6.6,0-12-5.4-12-12V20C8,13.4,13.4,8,20,8z"/>
	</defs>
	<clipPath id="SVGID_2_">
		<use xlink:href="#SVGID_1_"  overflow="visible"/>
	</clipPath>
	<g clip-path="url(#SVGID_2_)">
		<path fill="#E6E6E6" d="M120,57.1V46.7c-11.6,36.8-57.2,64.4-111.6,64.6c0.3,1.4,1,2.7,1.8,3.8C60.9,114.5,103.9,90.4,120,57.1z"
			/>
	</g>
</g>
<path fill="#FFFFFF" d="M97.3,79.5L97.3,79.5L97.3,79.5z"/>
<path fill="#E6E6E6" d="M97.3,79.5L97.3,79.5L97.3,79.5C89.9,71.9,77.7,71.6,70,79c-5.8,5.6-7.5,14.2-4.3,21.6
	c0.1,0.1,0.2,0.2,0.3,0.3s0,0.3,0,0.4c4.6,9.6,16.1,13.7,25.7,9.1s13.7-16.1,9.1-25.7C99.9,82.8,98.7,81,97.3,79.5z"/>
<polygon fill="#0071BC" points="97,106.6 76.7,99.6 69.7,79.3 89.9,86.3 "/>
<circle fill="#E6E6E6" cx="83.3" cy="93" r="4.8"/>
</svg>
