<svg id="图层_1" data-name="图层 1" xmlns="http://www.w3.org/2000/svg" viewBox="0 0 128 128"><defs><style>.cls-1{fill:gray;}.cls-2{fill:#c1272d;}.cls-3{font-size:32.6px;font-family:HelveticaObl-Heavy;font-weight:800;}.cls-3,.cls-5{fill:#fff;}.cls-4{fill:#e6e6e6;}.cls-6{fill:#0071bc;}</style></defs><title>viewpdf128</title><path class="cls-1" d="M108.41,8H19.59A11.59,11.59,0,0,0,8,19.59v88.82a11.45,11.45,0,0,0,.38,2.89c54.41-.12,100-27.73,111.62-64.57V19.59A11.59,11.59,0,0,0,108.41,8Z"/><path class="cls-1" d="M10.16,115.13A11.56,11.56,0,0,0,19.59,120h88.82A11.59,11.59,0,0,0,120,108.41V57.13C103.93,90.43,60.88,114.46,10.16,115.13Z"/><polygon class="cls-2" points="25.38 15.72 25.38 112.28 102.62 112.28 102.62 30.12 87.27 15.72 25.38 15.72"/><text class="cls-3" transform="translate(27.31 58.35)">PDF</text><path class="cls-4" d="M120,57.13V46.73C108.38,83.57,62.79,111.18,8.38,111.3a11.39,11.39,0,0,0,1.78,3.83C60.88,114.46,103.93,90.43,120,57.13Z"/><path class="cls-5" d="M97.27,79.52l0,0v0Z"/><path class="cls-4" d="M97.27,79.52h0v0a19.26,19.26,0,0,0-31.51,21.09c.08.09.16.19.25.28s0,.26,0,.39A19.3,19.3,0,1,0,97.27,79.52Z"/><polygon class="cls-6" points="96.97 106.62 76.68 99.59 69.66 79.31 89.94 86.34 96.97 106.62"/><circle class="cls-4" cx="83.31" cy="92.97" r="4.83"/></svg>