<svg id="图层_1" data-name="图层 1" xmlns="http://www.w3.org/2000/svg" xmlns:xlink="http://www.w3.org/1999/xlink" viewBox="0 0 128 128"><defs><style>.cls-1{fill:none;}.cls-2{fill:gray;}.cls-3{fill:#c1272d;}.cls-4{font-size:32.42px;font-family:HelveticaObl-Heavy;font-weight:800;}.cls-4,.cls-7{fill:#fff;}.cls-5{clip-path:url(#clip-path);}.cls-6{fill:#e6e6e6;}.cls-8{fill:#0071bc;}</style><clipPath id="clip-path"><rect class="cls-1" x="8" y="8" width="112" height="112" rx="12"/></clipPath></defs><title>viewpdf128</title><rect class="cls-2" x="8" y="8" width="112" height="112" rx="12"/><polygon class="cls-3" points="26 16 26 112 102 112 102 30.31 86.89 16 26 16"/><text class="cls-4" transform="translate(27.9 58.38) scale(0.99 1)">PDF</text><g class="cls-5"><path class="cls-6" d="M120,57.13V46.73C108.38,83.57,62.79,111.18,8.38,111.3a11.39,11.39,0,0,0,1.78,3.83C60.88,114.46,103.93,90.43,120,57.13Z"/></g><path class="cls-7" d="M97.27,79.52l0,0v0Z"/><path class="cls-6" d="M97.27,79.52h0v0a19.26,19.26,0,0,0-31.51,21.09c.08.09.16.19.25.28s0,.26,0,.39A19.3,19.3,0,1,0,97.27,79.52Z"/><polygon class="cls-8" points="96.97 106.62 76.68 99.59 69.66 79.31 89.94 86.34 96.97 106.62"/><circle class="cls-6" cx="83.31" cy="92.97" r="4.83"/></svg>