<svg id="图层_1" data-name="图层 1" xmlns="http://www.w3.org/2000/svg" viewBox="0 0 128 128"><defs><style>.cls-1{fill:#263238;}</style></defs><title>wifi-radar-112</title><path class="cls-1" d="M64,90.44c4,0,7.44,2.9,9.43,7.28a1.15,1.15,0,0,0,1.59.65l.06,0a1.55,1.55,0,0,0,.57-2C73.23,91,68.91,87.49,64,87.49S54.77,91,52.35,96.35a1.55,1.55,0,0,0,.57,2l.06,0a1.15,1.15,0,0,0,1.59-.65C56.56,93.34,60,90.44,64,90.44Z"/><path class="cls-1" d="M64,74.32c9,0,17,6.6,21.51,16.53a1.51,1.51,0,0,0,2.09.85h0a2,2,0,0,0,.77-2.59C83.29,78,74.27,70.53,64,70.53S44.71,78,39.63,89.11a2,2,0,0,0,.77,2.59h0a1.51,1.51,0,0,0,2.09-.85C47,80.92,55,74.32,64,74.32Z"/><path class="cls-1" d="M64,57.42c14.15,0,26.59,10.36,33.66,25.93a2.34,2.34,0,0,0,3.25,1.29h0a3.16,3.16,0,0,0,1.17-4.06c-7.93-17.43-22-29-38.08-29S33.85,63.15,25.92,80.58a3.16,3.16,0,0,0,1.17,4.06h0a2.34,2.34,0,0,0,3.25-1.29C37.41,67.78,49.85,57.42,64,57.42Z"/><path class="cls-1" d="M64,40c19.17,0,36.1,13.7,46.07,34.48a4.2,4.2,0,0,0,5.78,2.23h0c2.41-1.28,3.37-4.7,2.07-7.39a89.5,89.5,0,0,0-8.09-13.66C97.64,38.8,81.36,29.5,64,29.5S30.36,38.8,18.17,55.67a89.5,89.5,0,0,0-8.09,13.66c-1.3,2.69-.34,6.11,2.07,7.39h0a4.2,4.2,0,0,0,5.78-2.23C27.9,53.71,44.83,40,64,40Z"/></svg>