<svg id="图层_1" data-name="图层 1" xmlns="http://www.w3.org/2000/svg" xmlns:xlink="http://www.w3.org/1999/xlink" viewBox="0 0 128 128"><defs><style>.cls-1{fill:#89ba36;}.cls-2{fill:url(#未命名的渐变_14);}</style><linearGradient id="未命名的渐变_14" x1="64" y1="74.92" x2="64" y2="15.64" gradientUnits="userSpaceOnUse"><stop offset="0" stop-color="#fff" stop-opacity="0.3"/><stop offset="0.01" stop-color="#fff" stop-opacity="0.29"/><stop offset="0.15" stop-color="#fff" stop-opacity="0.18"/><stop offset="0.31" stop-color="#fff" stop-opacity="0.1"/><stop offset="0.48" stop-color="#fff" stop-opacity="0.04"/><stop offset="0.68" stop-color="#fff" stop-opacity="0.01"/><stop offset="1" stop-color="#fff" stop-opacity="0"/></linearGradient></defs><title>wordnet-gui-112</title><rect class="cls-1" x="8" y="8" width="112" height="112" rx="12" ry="12"/><path d="M26.74,50.11l-.29.31v61.33H46.16l.29-.3V50.11Zm18.69,60.62h-18V51.13h18Z"/><path d="M61.25,33.56l-1,1L45.72,50.11l-.29.32v61.32h.73l.29-.3L62,94.89V33.56ZM61,94.49,46.45,110V50.82L61,35.36Z"/><path d="M42.28,33.56,26.74,50.11l-.29.31v.71H46.16l.29-.3h0L61,35.36l1-1.09v-.71Zm3.44,16.55H28.14L42.72,34.58H60.3Z"/><path d="M100.06,81.17l-.47-.67L86.32,93.34a8.27,8.27,0,0,1-5.23-7.42,7.47,7.47,0,0,1,1.1-3.87h0l4.85-9.9L99.9,45.89a9.5,9.5,0,0,0,1.65-5.37,9.6,9.6,0,0,0-17-6.11L66.66,53.27l-.17.19h0A10.43,10.43,0,0,0,80.36,68.88L77.69,74,65,98.22a8,8,0,0,0-.71,1.31h-.09v.21a8.55,8.55,0,0,0-.64,3.24c0,5.17,4.61,9.38,10.28,9.38a10.54,10.54,0,0,0,8.56-4.2L97.87,93a8.78,8.78,0,0,0,1.38-1.27l.23-.17,0,0a8.37,8.37,0,0,0,.62-10.32ZM74.27,69.84a9.43,9.43,0,1,1,9.42-9.43A9.43,9.43,0,0,1,74.27,69.84Zm8.28,35.88a9.24,9.24,0,0,1-8.74,5.63c-5.11,0-9.26-3.76-9.26-8.37a7.7,7.7,0,0,1,.55-2.83L78.94,73.78l3.87-7.37v0a10.32,10.32,0,0,0,1.89-6A10.45,10.45,0,0,0,74.27,50a10.59,10.59,0,0,0-3.74.69L85.28,35.09A8.59,8.59,0,0,1,99,45.4l-.93,1.85L85.75,72.46l-4.34,8.85h-.09v.19A8.35,8.35,0,0,0,80,85.92a9.24,9.24,0,0,0,5.49,8.18l-4.17,4,.37.52A7.77,7.77,0,0,1,83.06,103,7.49,7.49,0,0,1,82.55,105.72Zm16-14.78h0a8.54,8.54,0,0,1-1.36,1.26L95.45,93.8l-11.7,11.55a1.36,1.36,0,0,0,0-.17v0a8.28,8.28,0,0,0,.28-2.17,8.75,8.75,0,0,0-1.42-4.76L99.41,82.08a7.35,7.35,0,0,1,1.09,3.84A7.53,7.53,0,0,1,98.55,90.94Z"/><path d="M74.25,52.81a7.61,7.61,0,1,0,7.61,7.6A7.62,7.62,0,0,0,74.25,52.81Zm0,14.19a6.59,6.59,0,1,1,6.59-6.59A6.6,6.6,0,0,1,74.25,67Z"/><path d="M74.25,55.1a5.32,5.32,0,1,0,5.31,5.31A5.31,5.31,0,0,0,74.25,55.1Zm0,9.61a4.3,4.3,0,1,1,4.29-4.3A4.3,4.3,0,0,1,74.25,64.71Z"/><path d="M74.25,57.65A2.77,2.77,0,1,0,77,60.41,2.77,2.77,0,0,0,74.25,57.65Zm0,4.51A1.75,1.75,0,1,1,76,60.41,1.75,1.75,0,0,1,74.25,62.16Z"/><polygon points="46.02 34.58 31.45 50.12 30.05 50.12 44.63 34.58 46.02 34.58"/><polygon points="49.11 34.58 34.54 50.12 33.14 50.12 47.72 34.58 49.11 34.58"/><polygon points="52.2 34.58 37.63 50.12 36.23 50.12 50.81 34.58 52.2 34.58"/><polygon points="55.3 34.58 40.72 50.12 39.32 50.12 53.9 34.58 55.3 34.58"/><polygon points="58.39 34.58 43.81 50.12 43.77 50.16 42.41 50.12 56.99 34.58 58.39 34.58"/><path class="cls-2" d="M120,27.85V54.28c-7.78,8.13-19.32,14.46-32.94,17.86l-1.31.32q-3.33.78-6.81,1.32L77.69,74a97.09,97.09,0,0,1-13.69,1l-2,0-1,0a95.64,95.64,0,0,1-14.51-1.54l-1-.19a83.76,83.76,0,0,1-18-5.6l-1-.46A60.83,60.83,0,0,1,8,54.28V27.85A12.25,12.25,0,0,1,20.22,15.64h87.56A12.25,12.25,0,0,1,120,27.85Z"/></svg>