<?xml version="1.0" encoding="utf-8"?>
<!-- Generator: Adobe Illustrator 24.0.0, SVG Export Plug-In . SVG Version: 6.00 Build 0)  -->
<svg version="1.1" id="WPS" xmlns="http://www.w3.org/2000/svg" xmlns:xlink="http://www.w3.org/1999/xlink" x="0px" y="0px"
	 viewBox="0 0 128 128" enable-background="new 0 0 128 128" xml:space="preserve">
<title>128</title>
<g id="WPS-文字">
	<g id="_128">
		<path fill="#4954FE" d="M20,8h88c6.6,0,12,5.4,12,12v88c0,6.6-5.4,12-12,12H20c-6.6,0-12-5.4-12-12V20C8,13.4,13.4,8,20,8z"/>
		<polygon fill="#9DBBFF" points="43,78 43,98 46,98 64,80 82,98 85,98 85,78 64,57 		"/>
		<rect x="30" y="30" fill="#FFFFFF" width="16" height="68"/>
		<rect x="82" y="30" fill="#FFFFFF" width="16" height="68"/>
	</g>
</g>
<g id="wps-演示">
	<g id="_128-2">
		<path fill="#FF7A57" d="M20,8h88c6.6,0,12,5.4,12,12v88c0,6.6-5.4,12-12,12H20c-6.6,0-12-5.4-12-12V20C8,13.4,13.4,8,20,8z"/>
		
			<linearGradient id="SVGID_1_" gradientUnits="userSpaceOnUse" x1="48" y1="61" x2="82" y2="61" gradientTransform="matrix(1 0 0 -1 0 128)">
			<stop  offset="0" style="stop-color:#FEC4B0"/>
			<stop  offset="1" style="stop-color:#FFFFFF"/>
		</linearGradient>
		<rect x="48" y="59" fill="url(#SVGID_1_)" width="34" height="16"/>
		<polygon fill="#FFFFFF" points="32,32 32,96 48,96 48,48 80,48 80,75 96,75 96,32 		"/>
	</g>
</g>
<g id="wps-表格">
	<g id="_128-3">
		<path fill="#6DB900" d="M20,8h88c6.6,0,12,5.4,12,12v88c0,6.6-5.4,12-12,12H20c-6.6,0-12-5.4-12-12V20C8,13.4,13.4,8,20,8z"/>
		
			<linearGradient id="SVGID_2_" gradientUnits="userSpaceOnUse" x1="45" y1="64" x2="83" y2="64" gradientTransform="matrix(1 0 0 -1 0 128)">
			<stop  offset="0" style="stop-color:#A3E17C"/>
			<stop  offset="1" style="stop-color:#FFFFFF"/>
		</linearGradient>
		<rect x="45" y="56" fill="url(#SVGID_2_)" width="38" height="16"/>
		<polygon fill="#FFFFFF" points="98,30 30,30 30,72 46,72 46,46 98,46 		"/>
		<polygon fill="#FFFFFF" points="82,56 82,82 30,82 30,98 98,98 98,56 		"/>
	</g>
</g>
</svg>
