<?xml version="1.0" encoding="utf-8"?>
<!-- Generator: Adobe Illustrator 24.0.0, SVG Export Plug-In . SVG Version: 6.00 Build 0)  -->
<svg version="1.1" id="图层_1" xmlns="http://www.w3.org/2000/svg" xmlns:xlink="http://www.w3.org/1999/xlink" x="0px" y="0px"
	 viewBox="0 0 128 128" enable-background="new 0 0 128 128" xml:space="preserve">
<title>xacobeo-112</title>
<path fill="#5B96D6" d="M20,8h88c6.6,0,12,5.4,12,12v88c0,6.6-5.4,12-12,12H20c-6.6,0-12-5.4-12-12V20C8,13.4,13.4,8,20,8z"/>
<path fill="#7986CB" d="M101,65.9c-0.1-0.1-0.2-0.2-0.3-0.3l-0.4-0.3l0,0l-32.2-32c-2.3-2.3-6-2.3-8.3,0l-32.2,32l-0.4,0.3
	c-0.1,0.1-0.2,0.2-0.3,0.3c-1.8,1.9-2.7,4.4-2.5,7c0.1,1.6,0.8,3.2,2,4.3c1,1,2.3,1.7,3.7,1.9c0.6,0.1,1.2,0.1,1.8,0.1
	c0,0.7,0,1.5,0.2,2.2c0.3,1.2,0.9,2.3,1.8,3.2c1.8,1.7,4.4,2.4,6.9,1.8c0.1,0.3,0.2,0.6,0.4,0.9l0,0c0.6,1.1,1.5,2.1,2.6,2.8
	c1.7,1,3.8,1.2,5.8,0.6c0.3,1.4,1,2.7,2,3.8l0,0c0.4,0.4,0.8,0.7,1.3,1c0.4,0.2,0.8,0.4,1.2,0.6c3.5,1.3,7.7-0.4,9.9-4.2l0.1-0.1
	l0.1,0.1c2.3,3.7,6.5,5.4,9.9,4.2c0.4-0.1,0.8-0.3,1.2-0.6c0.5-0.3,0.9-0.6,1.3-1l0,0c1-1,1.7-2.3,2-3.8c1.9,0.6,4,0.4,5.8-0.6
	c1.1-0.7,2-1.6,2.6-2.8l0,0c0.2-0.3,0.3-0.7,0.4-1c2.4,0.6,4.9-0.1,6.8-1.7c0.9-0.9,1.5-2,1.8-3.3c0.2-0.7,0.2-1.4,0.2-2.2
	c0.6,0,1.2,0,1.8-0.1c1.4-0.2,2.7-0.9,3.7-1.9c1.2-1.2,1.9-2.7,2-4.3l0,0C103.6,70.3,102.7,67.8,101,65.9z"/>
<path fill="#E0E0E0" d="M99.5,65.9l-0.3-0.3l-0.3-0.3l0,0L68,34.4c-2.2-2.2-5.7-2.2-7.9,0L29.2,65.2l-0.4,0.3l-0.3,0.3
	c-1.7,1.8-2.6,4.2-2.4,6.7c0.2,3,2.5,5.5,5.4,5.9c0.6,0.1,1.1,0.1,1.7,0.1c0,0.7,0,1.4,0.2,2.1c0.3,1.2,0.9,2.3,1.7,3.1
	c1.8,1.7,4.3,2.3,6.6,1.7c0.1,0.3,0.2,0.6,0.4,0.9l0,0c0.6,1.1,1.4,2,2.5,2.7c1.7,1,3.7,1.2,5.5,0.6c0.2,1.4,0.9,2.6,1.8,3.6l0,0
	c0.4,0.4,0.8,0.7,1.2,1c0.4,0.2,0.7,0.4,1.1,0.5c3.3,1.2,7.4-0.4,9.5-4l0.1-0.1l0.1,0.1c2.2,3.6,6.2,5.2,9.5,4
	c0.4-0.1,0.8-0.3,1.1-0.5c0.5-0.3,0.9-0.6,1.2-1l0,0c1-1,1.6-2.3,1.9-3.6c1.8,0.6,3.9,0.4,5.5-0.6c1.1-0.6,1.9-1.5,2.4-2.6l0,0
	c0.2-0.3,0.3-0.6,0.4-0.9c2.4,0.6,4.9,0,6.6-1.7c0.9-0.9,1.5-2,1.7-3.1c0.2-0.7,0.2-1.4,0.2-2.1c0.6,0,1.1,0,1.7-0.1
	c1.3-0.2,2.6-0.8,3.5-1.8c1.1-1.1,1.8-2.6,1.9-4.1l0,0C102,70.1,101.2,67.7,99.5,65.9z"/>
<path fill="#BF360C" d="M63.9,87.7L63.9,87.7c0,0-4.2-11.6-4.2-15l-1-20.7c0-3.4,2.3-6.2,5.2-6.2l0,0c2.9,0,5.2,2.8,5.2,6.2l-1,20.7
	C68.1,76.1,63.9,87.7,63.9,87.7z"/>
<ellipse fill="#BF360C" cx="63.9" cy="38.6" rx="7.2" ry="7.1"/>
<path fill="#BF360C" d="M83.8,54.8c-2.2,3.8-7.1,5.1-10.9,2.9c-3.8-2.2-3.3-6-1.1-9.8s5.3-6.2,9.1-4C84.7,46.1,86.1,51,83.8,54.8z"
	/>
<path fill="#BF360C" d="M44.2,54.4c2.2,3.8,7.1,5.1,10.9,2.9c3.8-2.2,3.3-6,1.1-9.8s-5.3-6.2-9.1-4C43.3,45.7,41.9,50.5,44.2,54.4z"
	/>
</svg>
