<svg id="图层_1" data-name="图层 1" xmlns="http://www.w3.org/2000/svg" viewBox="0 0 128 128"><defs><style>.cls-1{fill:#5b96d6;}.cls-2{fill:#7986cb;}.cls-3{fill:#e0e0e0;}.cls-4{fill:#bf360c;}</style></defs><title>xacobeo-112</title><rect class="cls-1" x="8" y="8" width="112" height="112" rx="12" ry="12"/><path class="cls-2" d="M101,65.94c-.11-.12-.22-.24-.34-.35l-.36-.35h0l-32.15-32a5.86,5.86,0,0,0-8.26,0l-32.15,32-.36.35c-.12.11-.23.23-.34.35a9.26,9.26,0,0,0-2.49,7,6.88,6.88,0,0,0,2,4.31,6.79,6.79,0,0,0,3.68,1.88,8,8,0,0,0,1.77.11,7.84,7.84,0,0,0,.19,2.17A6.74,6.74,0,0,0,34,84.62a7.35,7.35,0,0,0,6.89,1.8,6,6,0,0,0,.4.94h0a6.79,6.79,0,0,0,2.56,2.76,7.14,7.14,0,0,0,5.77.62,7.28,7.28,0,0,0,2,3.78h0a6.63,6.63,0,0,0,1.28,1,6.21,6.21,0,0,0,1.17.55c3.45,1.25,7.68-.44,9.94-4.18l.06-.1.06.1c2.26,3.74,6.48,5.43,9.94,4.18a5.85,5.85,0,0,0,1.16-.55,6.4,6.4,0,0,0,1.29-1h0a7.28,7.28,0,0,0,2-3.78,7.14,7.14,0,0,0,5.77-.62,6.86,6.86,0,0,0,2.56-2.76h0a7.31,7.31,0,0,0,.4-1A7.36,7.36,0,0,0,94,84.62a6.74,6.74,0,0,0,1.81-3.26A7.84,7.84,0,0,0,96,79.19a8.08,8.08,0,0,0,1.78-.11,6.86,6.86,0,0,0,3.68-1.88,6.94,6.94,0,0,0,2-4.31h0A9.25,9.25,0,0,0,101,65.94Z"/><path class="cls-3" d="M99.52,65.87l-.33-.35-.35-.33h0L68,34.42a5.63,5.63,0,0,0-7.93,0L29.16,65.19l-.35.33-.33.35a8.81,8.81,0,0,0-2.38,6.67,6.46,6.46,0,0,0,5.43,5.94,8.06,8.06,0,0,0,1.7.11,7.57,7.57,0,0,0,.18,2.08,6.58,6.58,0,0,0,1.74,3.14,7.08,7.08,0,0,0,6.62,1.72,5.63,5.63,0,0,0,.38.91h0a6.53,6.53,0,0,0,2.46,2.65,6.84,6.84,0,0,0,5.54.6A7,7,0,0,0,52,93.32h0a6.18,6.18,0,0,0,1.24,1,6,6,0,0,0,1.12.53c3.31,1.2,7.37-.42,9.54-4l.06-.1.06.1c2.16,3.59,6.22,5.21,9.54,4a6.34,6.34,0,0,0,1.12-.53,6.18,6.18,0,0,0,1.24-1h0a7.08,7.08,0,0,0,1.89-3.63,6.84,6.84,0,0,0,5.54-.6,6.42,6.42,0,0,0,2.45-2.64h0a5.67,5.67,0,0,0,.39-.91,7.08,7.08,0,0,0,6.62-1.72,6.48,6.48,0,0,0,1.73-3.14,7.58,7.58,0,0,0,.19-2.08,8.06,8.06,0,0,0,1.7-.11,6.55,6.55,0,0,0,3.53-1.8,6.64,6.64,0,0,0,1.9-4.14h0A8.84,8.84,0,0,0,99.52,65.87Z"/><path class="cls-4" d="M63.9,87.67h0s-4.23-11.59-4.23-15L58.72,52c0-3.44,2.32-6.23,5.18-6.23h0c2.86,0,5.19,2.79,5.19,6.23l-1,20.66C68.13,76.08,63.9,87.67,63.9,87.67Z"/><ellipse class="cls-4" cx="63.9" cy="38.63" rx="7.15" ry="7.13"/><path class="cls-4" d="M83.85,54.84a8,8,0,0,1-10.91,2.91c-3.83-2.19-3.32-6-1.12-9.83s5.28-6.16,9.11-4A8,8,0,0,1,83.85,54.84Z"/><path class="cls-4" d="M44.15,54.36a8,8,0,0,0,10.91,2.91c3.83-2.2,3.32-6,1.12-9.83s-5.28-6.16-9.11-4A8,8,0,0,0,44.15,54.36Z"/></svg>