<?xml version="1.0" encoding="utf-8"?>
<!-- Generator: Adobe Illustrator 24.0.0, SVG Export Plug-In . SVG Version: 6.00 Build 0)  -->
<svg version="1.1" id="图层_1" xmlns="http://www.w3.org/2000/svg" xmlns:xlink="http://www.w3.org/1999/xlink" x="0px" y="0px"
	 viewBox="0 0 128 128" enable-background="new 0 0 128 128" xml:space="preserve">
<title>xchat-gnome-112</title>
<polygon fill="#F44336" points="117.1,99.9 82.7,65.6 117.1,31.2 98.4,12.5 64,46.9 29.6,12.5 10.9,31.2 45.3,65.6 10.9,99.9 
	29.6,118.6 64,84.2 98.4,118.6 "/>
<path d="M98.4,119.5L64,85.1l-34.4,34.4L10,99.9l34.4-34.4L10,31.2l19.6-19.6L64,46l34.4-34.4L118,31.2L83.6,65.6L118,99.9
	L98.4,119.5z M64,83.3l34.4,34.4l17.8-17.8L81.8,65.6l34.4-34.4L98.4,13.4L64,47.8L29.6,13.4L11.8,31.2l34.4,34.4L11.8,99.9
	l17.8,17.8L64,83.3z"/>
<path fill="#FFF176" d="M77.5,76.9c3.9-1.9,8.6,0.7,9.3,1s4.3,2.4,5.4,5.8c1.9,6.4-6.2,15.2-14.4,18.7c-10.8,4.6-21.2-0.2-23.1-1
	C44.3,96.6,40,87.5,37.7,82.5c-2.2-4.7-5-10.8-3.5-18.3c1.3-6.8,5.4-11.1,8-13.8c5.6-5.8,12.9-9.5,20.8-10.7
	c5.1-0.9,10.4-0.4,15.2,1.5c3.2,1.2,7.6,2.9,9.5,7.4c1,2.5,1.2,5.4,0.4,8c-0.9,3.2-3.1,5.5-14.8,13.4C65.7,75,62.3,77,61,81.3
	c-0.3,1-1.1,3.8,0.4,6c1.3,1.8,3.5,2.6,5.6,2.2c1.6-0.4,2.1-1.5,5.4-6.2C76.2,77.7,76.8,77.3,77.5,76.9z"/>
<path d="M67.8,105.1c-4.7-0.1-9.3-1.1-13.5-3.1c-10.6-4.9-14.9-14.2-17.2-19.2c-2.1-4.6-5.1-11-3.5-18.7c1.4-7,5.7-11.4,8.2-14.1
	c5.7-5.9,13.1-9.7,21.2-10.9c5.2-0.9,10.6-0.4,15.6,1.5c3.3,1.3,7.8,3,9.8,7.7c1.1,2.7,1.2,5.7,0.4,8.5c-1,3.4-3.3,5.9-15.1,13.7
	l-2.1,1.4c-6.1,4.1-8.9,5.9-10,9.6c-0.3,1-1,3.5,0.3,5.4c1.1,1.5,3,2.3,4.9,2c1.1-0.3,1.6-1,3.8-4.3l1.1-1.6
	c3.9-5.7,4.5-6.2,5.4-6.6l0,0c3.9-1.9,8.5,0.3,9.9,1c1.7,0.9,4.7,3,5.7,6.1c2,6.7-6.1,15.8-14.8,19.5
	C74.7,104.4,71.3,105.1,67.8,105.1z M68.2,39.9c-1.7,0-3.4,0.1-5,0.4c-7.8,1.2-15,4.9-20.4,10.5c-2.6,2.7-6.6,6.9-7.9,13.5
	c-1.4,7.3,1.3,13.2,3.5,17.9s6.5,13.9,16.6,18.6c3.6,1.7,13,5.1,22.5,1c8-3.4,15.9-12,14.1-18c-0.8-2.7-3.5-4.6-5.1-5.4
	c-1.2-0.7-5.3-2.7-8.7-1c-0.6,0.3-1.3,0.9-4.9,6.2l-1.1,1.7c-2.3,3.4-3,4.4-4.6,4.8c-2.4,0.4-4.8-0.5-6.2-2.5
	c-1.7-2.4-0.8-5.4-0.5-6.5c1.2-4.1,4.3-6.2,10.5-10.3l2.1-1.4c11.4-7.6,13.7-10,14.6-13c0.7-2.5,0.6-5.2-0.4-7.6
	c-1.8-4.2-6-5.9-9.1-7.1C74.9,40.5,71.6,39.9,68.2,39.9z"/>
<path fill="#FFF176" d="M28.7,33.1c-0.7,1.4-1,3-1,4.5c0,3.6,2,7,5.2,8.8c0.6,0.3,4.5,2.3,6.8,0.6c2.8-2.1,1.4-8.3-0.5-11.7
	c-0.3-0.6-3.4-6.3-6.8-5.8C30.4,29.9,29.1,32.3,28.7,33.1z"/>
<path d="M37.3,48.4c-5.7-0.3-10.3-5-10.3-10.8c0-1.7,0.3-3.3,1.1-4.8l0,0l0.6,0.3l-0.6-0.3c0.5-0.8,1.9-3.4,4.2-3.8
	c3.7-0.6,6.9,5,7.5,6.1c2,3.8,3.4,10.2,0.2,12.5C39.2,48.2,38.2,48.4,37.3,48.4z M28.7,33.1l0.5,0.3c-0.7,1.3-1,2.7-1,4.2
	c0,3.4,1.9,6.6,4.8,8.3c0.4,0.2,4.1,2.1,6.1,0.7c2.4-1.8,1.2-7.5-0.6-10.9c-1.2-2.2-3.8-5.8-6.1-5.4c-1.7,0.3-2.9,2.5-3.3,3.2
	L28.7,33.1z"/>
<path fill="#FFF176" d="M43.1,21.2c-1.5,2-2.3,4.5-2.1,7c-0.1,2.9,0.9,5.8,2.9,8c0.9,0.9,2.5,2.7,4.5,2.5c2.6-0.3,4.1-3.6,4.7-5.2
	c1.4-3.2,1.5-6.8,0.2-10.1c-0.7-1.5-2-4.7-4.7-5.1S43.5,20.6,43.1,21.2z"/>
<path d="M48.1,39.3c-2.1,0-3.8-1.7-4.7-2.7c-2.1-2.3-3.1-5.4-3-8.5c-0.2-2.7,0.6-5.3,2.2-7.4c1.9-2.3,4.1-3.4,6.1-3.1
	c3.1,0.5,4.5,3.9,5.2,5.5c1.4,3.4,1.3,7.2-0.2,10.6c-0.7,1.7-2.3,5.2-5.3,5.5L48.1,39.3z M48,18.9c-1.5,0-3,0.9-4.5,2.7l0,0
	c-1.4,1.9-2.1,4.2-1.9,6.6c-0.1,2.8,0.9,5.5,2.7,7.6c0.8,0.9,2.3,2.4,4,2.3c2.2-0.2,3.6-3.3,4.2-4.8c1.4-3,1.4-6.5,0.2-9.6
	c-0.6-1.4-1.9-4.4-4.3-4.8C48.4,18.9,48.2,18.9,48,18.9z"/>
<path fill="#FFF176" d="M60.6,13.4c-1.6,1.6-2.7,3.6-3.3,5.8c-1,3-1.1,6.2-0.4,9.3c0.5,2.3,1,4.6,3.1,6.2c1.2,1,2.6,1.5,4.1,1.4
	c4-0.3,6.2-6.1,7-8.4c0.9-2.5,2.7-7.4,0.4-11.9c-0.3-0.5-2.5-4.9-6-4.9C63.4,10.6,61.7,12.3,60.6,13.4z"/>
<path d="M63.7,36.6c-1.5-0.1-3-0.6-4.1-1.6c-2.3-1.7-2.8-4.2-3.3-6.5c-0.7-3.2-0.6-6.5,0.4-9.6c0.6-2.3,1.8-4.3,3.5-6
	c1.2-1.1,2.9-2.9,5.3-2.9h0.1c3.6,0.1,5.9,4.1,6.5,5.3c2.4,4.8,0.5,10-0.4,12.4s-3.1,8.5-7.5,8.9H63.7z M65.4,11.3
	c-1.9,0-3.3,1.4-4.4,2.5l0,0c-1.5,1.5-2.6,3.4-3.1,5.5c-0.9,2.9-1.1,6-0.4,8.9c0.5,2.2,1,4.4,2.9,5.8c1,0.9,2.3,1.3,3.7,1.3
	c3.6-0.3,5.7-5.9,6.5-8c0.9-2.5,2.6-7.1,0.4-11.4C70.4,14.9,68.4,11.4,65.4,11.3L65.4,11.3z"/>
<path fill="#FFF176" d="M84.3,12.1c-2.8,1.7-5,4.1-6.6,7c-1.7,3.1-2,5.6-2.5,9.7c-0.6,5.3,0.3,6.8,0.6,7.2c1.2,1.5,2.9,2.4,4.7,2.7
	c3.4,0.5,6-1.5,9.1-3.7c3.2-2.4,5.9-5.4,7.8-8.9c1.9-3.3,3.2-5.5,2.9-8.6c-0.1-0.6-0.5-5.3-4.1-7.4C91.8,7.5,86.3,10.9,84.3,12.1z"
	/>
<path d="M81.6,39.4c-0.4,0-0.8,0-1.1-0.1c-2-0.3-3.9-1.3-5.2-2.9c-0.3-0.5-1.4-2-0.7-7.6c0.5-4,0.8-6.7,2.6-9.9
	c1.6-2.9,4-5.4,6.8-7.2l0.3,0.5l-0.3-0.5c2.2-1.3,7.9-4.8,12.6-2.1c3.8,2.2,4.3,7,4.4,7.9c0.3,3.3-1.1,5.7-3,9c-2,3.5-4.7,6.6-8,9
	C87.3,37.5,84.7,39.4,81.6,39.4z M92.6,9.8c-3.3,0-6.5,2-8,2.9l0,0c-2.7,1.7-4.9,4-6.4,6.8c-1.6,3-1.9,5.4-2.4,9.4
	c-0.3,2.4-0.4,5.5,0.5,6.8c1.1,1.3,2.6,2.2,4.3,2.4c3.1,0.5,5.7-1.4,8.6-3.6c3.1-2.3,5.7-5.3,7.7-8.7c1.8-3.2,3-5.3,2.8-8.3
	c-0.1-0.8-0.6-5-3.8-6.9C94.9,10,93.8,9.7,92.6,9.8L92.6,9.8z"/>
</svg>
