<svg id="图层_1" data-name="图层 1" xmlns="http://www.w3.org/2000/svg" viewBox="0 0 128 128"><defs><style>.cls-1{fill:#f44336;}.cls-2{fill:#fff176;}</style></defs><title>xchat-gnome-112</title><polygon class="cls-1" points="117.11 99.92 82.7 65.55 117.11 31.18 98.4 12.49 64 46.86 29.6 12.49 10.89 31.18 45.3 65.55 10.89 99.92 29.6 118.61 64 84.24 98.4 118.61 117.11 99.92"/><path d="M98.4,119.5,64,85.13,29.6,119.5,10,99.92,44.4,65.55,10,31.18,29.6,11.6,64,46,98.4,11.6,118,31.18,83.6,65.55,118,99.92ZM64,83.35l34.4,34.37,17.82-17.8L81.81,65.55l34.41-34.37L98.4,13.38,64,47.75,29.6,13.38,11.78,31.18,46.19,65.55,11.78,99.92l17.82,17.8Z"/><path class="cls-2" d="M77.47,76.94c3.9-1.93,8.64.68,9.27,1s4.33,2.38,5.36,5.76c1.93,6.39-6.22,15.21-14.42,18.73-10.82,4.64-21.22-.18-23.07-1C44.26,96.64,40,87.49,37.72,82.5c-2.18-4.72-5-10.78-3.5-18.32,1.34-6.79,5.43-11.07,8-13.78A36.63,36.63,0,0,1,63.06,39.69,29.51,29.51,0,0,1,78.3,41.14c3.15,1.22,7.55,2.94,9.47,7.4a12.4,12.4,0,0,1,.42,8c-.93,3.17-3.06,5.51-14.83,13.37C65.73,75,62.27,77,61,81.26c-.31,1-1.12,3.78.41,6A5.57,5.57,0,0,0,67,89.49c1.56-.37,2.14-1.51,5.36-6.17C76.17,77.74,76.78,77.29,77.47,76.94Z"/><path d="M67.85,105.06A33.08,33.08,0,0,1,54.35,102c-10.56-4.89-14.88-14.22-17.2-19.24-2.14-4.63-5.07-11-3.55-18.7,1.38-7,5.65-11.44,8.2-14.1A37.25,37.25,0,0,1,63,39.07a30.25,30.25,0,0,1,15.56,1.48c3.29,1.28,7.79,3,9.82,7.74a13.08,13.08,0,0,1,.44,8.46c-1,3.4-3.32,5.86-15.09,13.72l-2.09,1.39c-6.13,4.06-8.93,5.91-10,9.58-.28,1-1,3.49.33,5.43a5,5,0,0,0,4.89,2c1.09-.26,1.6-1,3.85-4.26L71.81,83c3.92-5.68,4.54-6.17,5.38-6.58h0c3.9-1.93,8.53.31,9.86,1,1.7.93,4.7,3,5.65,6.13,2,6.66-6.13,15.78-14.77,19.49A25.49,25.49,0,0,1,67.85,105.06Zm.35-65.14a33.61,33.61,0,0,0-5.05.4A35.92,35.92,0,0,0,42.71,50.83c-2.62,2.73-6.57,6.86-7.87,13.47-1.44,7.34,1.27,13.21,3.45,17.93s6.45,13.94,16.59,18.63c3.6,1.67,13,5.11,22.55,1,8-3.42,15.87-12,14.07-18-.83-2.72-3.53-4.55-5.06-5.39-1.19-.66-5.34-2.67-8.69-1-.59.3-1.26.89-4.91,6.18l-1.13,1.65c-2.3,3.37-3,4.39-4.59,4.77a6.24,6.24,0,0,1-6.23-2.51c-1.7-2.44-.83-5.39-.5-6.51,1.22-4.1,4.33-6.16,10.53-10.27L73,69.42c11.44-7.64,13.67-10,14.57-13a11.71,11.71,0,0,0-.39-7.6c-1.82-4.22-6-5.87-9.12-7.07A27.16,27.16,0,0,0,68.2,39.92Z"/><path class="cls-2" d="M28.66,33.11a9.42,9.42,0,0,0-1,4.53,10.4,10.4,0,0,0,5.15,8.85c.64.34,4.47,2.29,6.8.61C42.45,45,41,38.84,39.16,35.37c-.34-.64-3.4-6.32-6.79-5.76C30.36,29.94,29.09,32.32,28.66,33.11Z"/><path d="M37.26,48.41A10.75,10.75,0,0,1,27,37.65a10.05,10.05,0,0,1,1.1-4.84h0l.56.3-.56-.3C28.56,32,30,29.37,32.26,29c3.73-.62,6.87,5,7.46,6.09,2,3.82,3.41,10.23.22,12.53A4.42,4.42,0,0,1,37.26,48.41Zm-8.6-15.3.55.3a8.68,8.68,0,0,0-.95,4.21,9.72,9.72,0,0,0,4.82,8.31c.41.22,4.1,2.13,6.13.66,2.43-1.76,1.21-7.47-.6-10.92-1.16-2.21-3.76-5.83-6.14-5.44-1.7.28-2.87,2.46-3.26,3.18Z"/><path class="cls-2" d="M43.08,21.17a10.26,10.26,0,0,0-2.06,7,11.68,11.68,0,0,0,2.88,8c.89.94,2.52,2.66,4.53,2.47,2.61-.26,4.06-3.59,4.74-5.15a13.12,13.12,0,0,0,.21-10.08c-.65-1.54-2-4.73-4.74-5.15S43.55,20.61,43.08,21.17Z"/><path d="M48.11,39.31c-2.13,0-3.76-1.73-4.67-2.68a12,12,0,0,1-3-8.45,10.94,10.94,0,0,1,2.2-7.41c1.93-2.31,4.11-3.41,6.14-3.1,3.1.48,4.53,3.88,5.23,5.52a13.69,13.69,0,0,1-.21,10.58c-.74,1.7-2.28,5.23-5.26,5.52Zm-.06-20.43c-1.45,0-3,.94-4.49,2.7h0a9.69,9.69,0,0,0-1.91,6.59,10.71,10.71,0,0,0,2.71,7.59c.81.86,2.31,2.44,4,2.28,2.24-.22,3.58-3.29,4.22-4.77a12.4,12.4,0,0,0,.21-9.59c-.61-1.43-1.86-4.4-4.26-4.76A2.63,2.63,0,0,0,48.05,18.88Z"/><path class="cls-2" d="M60.58,13.35a13.25,13.25,0,0,0-3.29,5.77,17.71,17.71,0,0,0-.41,9.26c.5,2.28,1,4.57,3.09,6.17A6.16,6.16,0,0,0,64.09,36c4-.35,6.15-6.15,7-8.44.93-2.5,2.72-7.35.41-11.93-.27-.54-2.46-4.88-6-4.94C63.36,10.64,61.71,12.25,60.58,13.35Z"/><path d="M63.69,36.64a6.84,6.84,0,0,1-4.11-1.59c-2.26-1.74-2.8-4.18-3.32-6.54a18.44,18.44,0,0,1,.43-9.59,13.9,13.9,0,0,1,3.45-6c1.17-1.13,2.92-2.85,5.31-2.85h.09c3.61.06,5.91,4.06,6.52,5.29,2.44,4.82.54,10-.38,12.43s-3.14,8.47-7.54,8.85Zm1.76-25.33c-1.87,0-3.35,1.44-4.42,2.49h0a12.69,12.69,0,0,0-3.14,5.51,17.17,17.17,0,0,0-.4,8.93c.5,2.24,1,4.35,2.86,5.81A5.32,5.32,0,0,0,64,35.36c3.61-.31,5.69-5.91,6.47-8,.92-2.48,2.63-7.1.44-11.44-.54-1.06-2.52-4.54-5.42-4.59Z"/><path class="cls-2" d="M84.27,12.12a19.36,19.36,0,0,0-6.59,7c-1.7,3.08-2,5.65-2.47,9.67-.62,5.3.3,6.75.62,7.2a7.19,7.19,0,0,0,4.73,2.68c3.38.49,6-1.49,9.07-3.71a28.77,28.77,0,0,0,7.82-8.85c1.87-3.25,3.16-5.51,2.89-8.64-.06-.64-.53-5.33-4.12-7.41C91.83,7.52,86.27,10.9,84.27,12.12Z"/><path d="M81.6,39.37a8.83,8.83,0,0,1-1.13-.08,7.76,7.76,0,0,1-5.16-2.94c-.34-.48-1.39-2-.73-7.63.47-4,.79-6.71,2.55-9.91a19.92,19.92,0,0,1,6.81-7.23l.33.54-.33-.54c2.16-1.31,7.88-4.79,12.59-2.06,3.76,2.17,4.35,7,4.43,7.9.29,3.32-1.07,5.71-3,9a29.41,29.41,0,0,1-8,9C87.29,37.47,84.71,39.37,81.6,39.37Zm11-29.61c-3.26,0-6.54,2-8,2.9h0a18.59,18.59,0,0,0-6.37,6.76c-1.64,3-1.93,5.41-2.4,9.44-.27,2.37-.41,5.46.51,6.77A6.45,6.45,0,0,0,80.65,38c3.12.46,5.66-1.42,8.6-3.58a28.26,28.26,0,0,0,7.66-8.66c1.84-3.22,3-5.34,2.8-8.28-.07-.82-.59-5-3.81-6.91A6.42,6.42,0,0,0,92.61,9.76Z"/></svg>