<?xml version="1.0" encoding="utf-8"?>
<!-- Generator: Adobe Illustrator 24.0.0, SVG Export Plug-In . SVG Version: 6.00 Build 0)  -->
<svg version="1.1" id="X诊断工具" xmlns="http://www.w3.org/2000/svg" xmlns:xlink="http://www.w3.org/1999/xlink" x="0px"
	 y="0px" viewBox="0 0 128 128" enable-background="new 0 0 128 128" xml:space="preserve">
<title>128</title>
<g id="_128">
	
		<linearGradient id="SVGID_1_" gradientUnits="userSpaceOnUse" x1="64" y1="116.6" x2="64" y2="11.4" gradientTransform="matrix(1 0 0 -1 0 128)">
		<stop  offset="0" style="stop-color:#53D70E"/>
		<stop  offset="1" style="stop-color:#05A654"/>
	</linearGradient>
	<path fill="url(#SVGID_1_)" d="M20,8h88c6.6,0,12,5.4,12,12v88c0,6.6-5.4,12-12,12H20c-6.6,0-12-5.4-12-12V20C8,13.4,13.4,8,20,8z"
		/>
	<path fill="none" stroke="#FFFFFF" stroke-width="6" stroke-miterlimit="10" d="M43,50V36c0-3.3,2.7-6,6-6h30c3.3,0,6,2.7,6,6v15"
		/>
	<path fill="#FFFFFF" d="M84,66v5h-5v-5H50v5h-5v-5H28v26c0,3.3,2.7,6,6,6h60c3.3,0,6-2.7,6-6V66H84z"/>
	<path fill="#FFFFFF" d="M94,44H34c-3.3,0-6,2.7-6,6v11h17v-5h5v5h29v-5h5v5h16V50C100,46.7,97.3,44,94,44z"/>
</g>
</svg>
