<svg id="图层_1" data-name="图层 1" xmlns="http://www.w3.org/2000/svg" viewBox="0 0 128 128"><defs><style>.cls-1{fill:#2672ba;}.cls-2{fill:#32a328;}.cls-3{fill:#b3e5fc;}.cls-4{fill:#b71c1c;}</style></defs><title>xdx-112</title><path class="cls-1" d="M120.5,64A56.44,56.44,0,0,1,94,111.87h0A56.51,56.51,0,0,1,12.74,40.22q.75-1.63,1.62-3.21A56.5,56.5,0,0,1,63.72,7.5H64a56.56,56.56,0,0,1,19.33,3.39h0A56.46,56.46,0,0,1,120.5,64Z"/><path class="cls-2" d="M29.5,108.74A56.52,56.52,0,0,1,12.74,40.22C12.22,46.77,11.69,52,11.27,56c-.81,7.43-1.57,13,1.67,18.42,1.35,2.23,2.2,2.45,5.58,6.69A81.2,81.2,0,0,1,26.33,92.8C28.94,97.81,29.63,103.53,29.5,108.74Z"/><path class="cls-2" d="M93.3,53.25a39.93,39.93,0,0,0-5.65.42c-5.44.54-6-.55-10.05.21a16.21,16.21,0,0,0-12.14,8.58,16.88,16.88,0,0,0-2.09,5.44c-.38,2-1,5.4.84,8.16a9.29,9.29,0,0,0,5,3.35c4.61,1.67,6.13-.12,10.26.84,6.15,1.42,10,7,10.67,8.16,2.15,3.34,1.38,4.58,4,7.74,1.41,1.72,4.2,5.11,7.54,4.6a6.52,6.52,0,0,0,4.81-4.39c1.08-3.33-1.7-4.88-.84-8.37s4.31-3.94,4.19-6.49c-.08-1.59-1.94-3-5.65-5.86s-5.44-3.39-6.07-5.44c-.46-1.5-.36-3.67.84-4.6s2.87.38,6.27-.21c1.37-.24,3.34-.58,4.19-2.09a4.7,4.7,0,0,0-1.26-5.44c-1.54-1.29-2.67-.12-5.65-1.26-2.55-1-2.57-2.16-5.23-2.93A13.94,13.94,0,0,0,93.3,53.25Z"/><path class="cls-3" d="M94,111.87a56.6,56.6,0,0,1-49.25,5.27,31.67,31.67,0,0,1,5.85-1.32c6-.75,9.28.62,16.74-.84,4-.78,5.59-1.67,8.37-2.51C79.86,111.23,85.82,110.37,94,111.87Z"/><path class="cls-2" d="M52.28,23.75a.56.56,0,0,1-.31.48c-.73.52-2.61.9-4.43,2.17-4,2.76-2.81,6.46-5.58,7.81-3.15,1.53-5.86-2.67-11.72-2.79-4.29-.09-7.15,2.08-9.49,3.35A22,22,0,0,1,14.36,37,56.5,56.5,0,0,1,63.72,7.5c-7.42,1.65-14.78,4.19-16,7.88-.34,1-1.22,3.57,0,5.44C49.06,22.92,52.24,22.75,52.28,23.75Z"/><path class="cls-2" d="M117.06,44.54A26.4,26.4,0,0,1,108.78,51c-2.49,1.21-6.79,3.31-10.46,1.67-.86-.38-.87-.6-4.19-2.92s-4.92-3.45-5.86-3.77c-4.21-1.41-8.62.42-9.62.84-3.12,1.29-4.66,3.09-5.44,2.51s.91-2.87,0-5.44c-1-2.74-4-2.92-4.19-4.61-.16-1.19,1.06-3,7.12-5.86-1.28-5.18-.84-5.86-.84-5.86,1.06-1.66,3.89,0,6.28-1.67a4.94,4.94,0,0,0,1.73-2.19c.75-1.78.72-4,.78-6.18a24.15,24.15,0,0,0-.75-6.58,56.67,56.67,0,0,1,33.72,33.65Z"/><path class="cls-3" d="M84.09,17.47c-.06,2.16,0,4.4-.78,6.18-2.08-.77-4.82-1.83-7.59-3-2.25-.92-3.48-1.48-5.3-1.38-3,.14-4.29,1.87-7.68,3.34a29.45,29.45,0,0,1-8.09,1.68A12.35,12.35,0,0,1,52,24.23a.56.56,0,0,0,.31-.48c0-1-3.22-.83-4.6-2.93-1.22-1.87-.34-4.46,0-5.44,1.26-3.69,8.62-6.23,16-7.88H64a56.56,56.56,0,0,1,19.33,3.39h0A24.15,24.15,0,0,1,84.09,17.47Z"/><path class="cls-2" d="M67.78,19.92c-1.49.67-2.81,1.74-5,2.71a14.93,14.93,0,0,1-2.08.66A8,8,0,0,1,59,25c-1.93,1.42-3,.54-4.19,1.68C52,29.34,54.55,37.5,56.47,37.56c1.08,0,.93-2.56,4.18-7.12.52-.72,2.35-3.22,5-6.27,1.87-2.14,2.82-3,2.52-3.77A1.23,1.23,0,0,0,67.78,19.92Z"/><path class="cls-4" d="M32.8,82.46,25.4,94.23H18.17L29.1,78.09l-10.26-15h8.24l6.39,10.59L40.2,63.12h7.07L37,78.09,47.94,94.23H39.7Z"/><path class="cls-4" d="M51.3,94.23V63.12H61.9q15.46.16,15.64,15.64Q77.38,94.24,61.9,94.23Zm6.56-25.9V89h3.53q9.26.33,9.09-10.26.17-10.59-9.09-10.43Z"/><path class="cls-4" d="M94.69,82.46l-7.4,11.77H80.06L91,78.09l-10.25-15H89l6.39,10.59,6.72-10.59h7.07l-10.26,15,10.93,16.14h-8.24Z"/></svg>