<svg id="图层_1" data-name="图层 1" xmlns="http://www.w3.org/2000/svg" viewBox="0 0 128 128"><defs><style>.cls-1{fill:red;}.cls-2{fill:lime;}.cls-3{fill:#ffe7c7;}</style></defs><title>xjump-112</title><path d="M115.66,56,87,80.69H35.82a27.73,27.73,0,0,0-6.22-4.28c-2.42-1.22-3-1.06-6.45-2.38-4.89-1.87-8.19-3.14-10.52-6.19a13,13,0,0,1-2.39-5.47H48.48c1.64,1.17,3.47,2.38,5.5,3.57a69.18,69.18,0,0,0,6.46,3.33H71.91a21.79,21.79,0,0,1,4.3-3.8,24.44,24.44,0,0,1,7.89-3.34A47.1,47.1,0,0,0,97.49,56h18.17m3.84-1.43H97.06l-.35.23a46.56,46.56,0,0,1-13,6l-.36.09a25,25,0,0,0-8,3.43,23.7,23.7,0,0,0-4.14,3.56H60.75a67.65,67.65,0,0,1-6-3.13c-1.84-1.08-3.65-2.25-5.39-3.49L49,61H8.5l.33,1.69a14.35,14.35,0,0,0,2.66,6.07c2.57,3.36,6.17,4.74,11.14,6.65,1.51.58,2.5.89,3.29,1.13a16.75,16.75,0,0,1,3,1.19,26.72,26.72,0,0,1,5.9,4.06l.41.38H87.51l.4-.35L102.25,69.4,116.59,57l2.91-2.51Z"/><path class="cls-1" d="M10.24,62.37H48.48c1.64,1.17,3.47,2.38,5.5,3.57a69.18,69.18,0,0,0,6.46,3.33H71.91a21.79,21.79,0,0,1,4.3-3.8,24.44,24.44,0,0,1,7.89-3.34A47.1,47.1,0,0,0,97.49,56h18.17L87,80.69H35.82a27.73,27.73,0,0,0-6.22-4.28c-2.42-1.22-3-1.06-6.45-2.38-4.89-1.87-8.19-3.14-10.52-6.19A13,13,0,0,1,10.24,62.37Z"/><path d="M87.74,82.12c1.4.44,2,.67,3.85,1.42a43.12,43.12,0,0,1,4.07,1.93A71.07,71.07,0,0,1,102.14,89c5.14,3.23,8.58,8.07,12.88,12.35a5.52,5.52,0,0,1-.24,3.56,5.31,5.31,0,0,1-2.87,2.86,4.19,4.19,0,0,1-1.5.26,6.14,6.14,0,0,1-3.12-.93,20.69,20.69,0,0,0-9-2.74,18.7,18.7,0,0,1-4.32-.87,19.61,19.61,0,0,1-2.89-1.23,7,7,0,0,0-2.83-.79l-11.46-.79a7.11,7.11,0,0,1-5.28-3.06l-.24-.32a9.51,9.51,0,0,0-7.4-3.11,10.57,10.57,0,0,0-6.23,1.92,9.26,9.26,0,0,0-1,.86,9.2,9.2,0,0,1-6.37,2.77l-12.41.15a3.2,3.2,0,0,0-3,2.11h0a1.89,1.89,0,0,1-1.78,1.25H11.35A1.4,1.4,0,0,1,10.28,101a60.09,60.09,0,0,1,5.06-5.29c8-7.41,15.16-11.38,21.25-13.56H87.74M88,80.69H36.34l-.24.08c-7.38,2.65-14.7,7.31-21.74,13.86a66.31,66.31,0,0,0-5.18,5.42,2.83,2.83,0,0,0,2.17,4.67H33.13a3.34,3.34,0,0,0,3.13-2.2,1.76,1.76,0,0,1,1.63-1.16l12.41-.16A10.55,10.55,0,0,0,57.68,98a6.84,6.84,0,0,1,.82-.71,9.1,9.1,0,0,1,5.38-1.64,8,8,0,0,1,6.28,2.57l.19.26a8.52,8.52,0,0,0,6.35,3.65l11.46.79a5.68,5.68,0,0,1,2.26.63,20.15,20.15,0,0,0,7.76,2.26,19.23,19.23,0,0,1,8.37,2.55,7.57,7.57,0,0,0,3.86,1.13,5.64,5.64,0,0,0,2-.36,6.68,6.68,0,0,0,3.68-3.63,6.89,6.89,0,0,0,.3-4.5l-.1-.36-.27-.27c-1.27-1.27-2.49-2.62-3.68-3.92-2.79-3.08-5.69-6.27-9.44-8.63a73.46,73.46,0,0,0-6.62-3.64l-1.49-.75a22.42,22.42,0,0,0-2.67-1.22L91.67,82c-1.57-.63-2.16-.86-3.49-1.28L88,80.69Z"/><path class="cls-2" d="M36.59,82.12H87.74c1.4.44,2,.67,3.85,1.42a43.12,43.12,0,0,1,4.07,1.93A71.07,71.07,0,0,1,102.14,89c5.14,3.23,8.58,8.07,12.88,12.35a5.52,5.52,0,0,1-.24,3.56,5.31,5.31,0,0,1-2.87,2.86,5.4,5.4,0,0,1-4.62-.67,20.69,20.69,0,0,0-9-2.74,18.7,18.7,0,0,1-4.32-.87,19.61,19.61,0,0,1-2.89-1.23,7,7,0,0,0-2.83-.79l-11.46-.79a7.11,7.11,0,0,1-5.28-3.06l-.24-.32c-2.93-3.62-9.61-4.15-13.63-1.19a9.26,9.26,0,0,0-1,.86,9.2,9.2,0,0,1-6.37,2.77l-12.41.15a3.2,3.2,0,0,0-3,2.11h0a1.89,1.89,0,0,1-1.78,1.25H11.35A1.4,1.4,0,0,1,10.28,101a60.09,60.09,0,0,1,5.06-5.29C23.3,88.27,30.5,84.3,36.59,82.12Z"/><ellipse class="cls-3" cx="64" cy="45.24" rx="24.99" ry="24.5" transform="translate(1.02 91.88) rotate(-71.78)"/><path d="M88.56,35.33A25.94,25.94,0,0,0,64.28,18.5,27,27,0,0,0,40.59,57.72,25.9,25.9,0,0,0,63.73,72,27,27,0,0,0,88.56,35.33ZM87.7,51.46a25,25,0,0,1-24,18.73A24.22,24.22,0,0,1,41.85,56.26a25.24,25.24,0,0,1,22.43-36,23.93,23.93,0,0,1,6.12.8,24.2,24.2,0,0,1,16.13,14A25.09,25.09,0,0,1,87.7,51.46Z"/><path d="M88.56,35.33l-1.82-.25-.21,0c-5.38-.67-10.7-1.31-17.24,0a32,32,0,0,0-11,4.05c-3.13,1.92-4.79,3.78-9.8,9.51l-6.64,7.62-1.26,1.46A27,27,0,0,1,64.28,18.5,25.94,25.94,0,0,1,88.56,35.33Z"/><ellipse cx="76.42" cy="48.39" rx="3.17" ry="3.15"/></svg>