<svg id="图层_1" data-name="图层 1" xmlns="http://www.w3.org/2000/svg" viewBox="0 0 128 128"><defs><style>.cls-1{fill:#fff;}.cls-2{fill:#5c5c5c;}.cls-3{fill:#9e9e9e;}.cls-4{fill:#f5f5f5;}.cls-5{fill:#7f3b20;}.cls-6{fill:#9e482b;}.cls-7{fill:#713b20;}</style></defs><title>xmabacus-112</title><path d="M8,8V120H120V8ZM117.2,117.2H10.8V10.8H117.2Z"/><rect class="cls-1" x="10.8" y="10.8" width="106.41" height="106.41"/><path class="cls-2" d="M116.33,11.67V116.33H11.67V11.67H116.33m.87-.87H10.8V117.2H117.2V10.8Z"/><rect class="cls-3" x="24.68" y="10.8" width="2.62" height="106.4"/><rect class="cls-4" x="23.75" y="10.8" width="0.93" height="106.4"/><rect class="cls-2" x="27.3" y="10.8" width="0.93" height="106.4"/><ellipse class="cls-5" cx="25.99" cy="21.65" rx="8.67" ry="7.35"/><path class="cls-6" d="M18.12,22c0-4.06,3.88-7.35,8.67-7.35a9.79,9.79,0,0,1,3.67.7A9.67,9.67,0,0,0,26,14.29c-4.79,0-8.67,3.29-8.67,7.36a7.38,7.38,0,0,0,5,6.65A7.21,7.21,0,0,1,18.12,22Z"/><path class="cls-7" d="M31.35,15.87a6.75,6.75,0,0,1,2.21,4.9c0,4.06-3.88,7.36-8.66,7.36a9.67,9.67,0,0,1-5.36-1.58A9.36,9.36,0,0,0,26,29c4.78,0,8.66-3.29,8.66-7.35A7,7,0,0,0,31.35,15.87Z"/><ellipse class="cls-5" cx="25.99" cy="65.82" rx="8.67" ry="6.67"/><path class="cls-6" d="M18.2,66.11c0-3.68,3.88-6.67,8.66-6.67a10.89,10.89,0,0,1,3,.42A10.84,10.84,0,0,0,26,59.15c-4.79,0-8.67,3-8.67,6.67,0,2.87,2.36,5.31,5.66,6.26C20.15,71,18.2,68.72,18.2,66.11Z"/><path class="cls-7" d="M30.94,60.35a6.14,6.14,0,0,1,3,5c0,3.69-3.88,6.68-8.67,6.68a10.42,10.42,0,0,1-5-1.21A10.22,10.22,0,0,0,26,72.5c4.78,0,8.66-3,8.66-6.68A6.41,6.41,0,0,0,30.94,60.35Z"/><ellipse class="cls-5" cx="25.99" cy="80.49" rx="8.67" ry="6.67"/><path class="cls-6" d="M18.2,80.78c0-3.68,3.88-6.67,8.66-6.67a10.89,10.89,0,0,1,3,.42A10.84,10.84,0,0,0,26,73.82c-4.79,0-8.67,3-8.67,6.67,0,2.87,2.36,5.31,5.66,6.25C20.15,85.65,18.2,83.39,18.2,80.78Z"/><path class="cls-7" d="M30.94,75a6.14,6.14,0,0,1,3,5c0,3.69-3.88,6.67-8.67,6.67a10.41,10.41,0,0,1-5-1.2A10.22,10.22,0,0,0,26,87.16c4.78,0,8.66-3,8.66-6.67A6.4,6.4,0,0,0,30.94,75Z"/><ellipse class="cls-5" cx="25.99" cy="95.16" rx="8.67" ry="6.67"/><path class="cls-6" d="M18.2,95.45c0-3.69,3.88-6.67,8.66-6.67a10.89,10.89,0,0,1,3,.42A10.84,10.84,0,0,0,26,88.49c-4.79,0-8.67,3-8.67,6.67,0,2.87,2.36,5.31,5.66,6.25C20.15,100.32,18.2,98.06,18.2,95.45Z"/><path class="cls-7" d="M30.94,89.69a6.14,6.14,0,0,1,3,5c0,3.68-3.88,6.67-8.67,6.67a10.41,10.41,0,0,1-5-1.2A10.22,10.22,0,0,0,26,101.83c4.78,0,8.66-3,8.66-6.67A6.38,6.38,0,0,0,30.94,89.69Z"/><ellipse class="cls-5" cx="25.99" cy="109.83" rx="8.67" ry="6.67"/><path class="cls-6" d="M18.2,110.12c0-3.69,3.88-6.67,8.66-6.67a10.89,10.89,0,0,1,3,.42,10.63,10.63,0,0,0-3.88-.72c-4.79,0-8.67,3-8.67,6.68,0,2.87,2.36,5.31,5.66,6.25C20.15,115,18.2,112.73,18.2,110.12Z"/><path class="cls-7" d="M30.94,104.36a6.14,6.14,0,0,1,3,5c0,3.68-3.88,6.67-8.67,6.67a10.53,10.53,0,0,1-5-1.2A10.22,10.22,0,0,0,26,116.5c4.78,0,8.66-3,8.66-6.67A6.38,6.38,0,0,0,30.94,104.36Z"/><rect class="cls-3" x="50.02" y="10.8" width="2.62" height="106.4"/><rect class="cls-4" x="49.09" y="10.8" width="0.93" height="106.4"/><rect class="cls-2" x="52.64" y="10.8" width="0.93" height="106.4"/><ellipse class="cls-5" cx="51.33" cy="21.65" rx="8.67" ry="7.35"/><path class="cls-6" d="M43.46,22c0-4.06,3.88-7.35,8.67-7.35a9.75,9.75,0,0,1,3.67.7,9.64,9.64,0,0,0-4.47-1.07c-4.79,0-8.67,3.29-8.67,7.36a7.38,7.38,0,0,0,5,6.65A7.21,7.21,0,0,1,43.46,22Z"/><path class="cls-7" d="M56.69,15.87a6.75,6.75,0,0,1,2.21,4.9c0,4.06-3.88,7.36-8.66,7.36a9.67,9.67,0,0,1-5.36-1.58A9.38,9.38,0,0,0,51.33,29C56.12,29,60,25.71,60,21.65A7,7,0,0,0,56.69,15.87Z"/><ellipse class="cls-5" cx="51.33" cy="65.82" rx="8.67" ry="6.67"/><path class="cls-6" d="M43.54,66.11c0-3.68,3.88-6.67,8.66-6.67a10.89,10.89,0,0,1,3,.42,10.84,10.84,0,0,0-3.88-.71c-4.79,0-8.67,3-8.67,6.67,0,2.87,2.36,5.31,5.67,6.26C45.49,71,43.54,68.72,43.54,66.11Z"/><path class="cls-7" d="M56.28,60.35a6.14,6.14,0,0,1,3,5c0,3.69-3.88,6.68-8.67,6.68a10.42,10.42,0,0,1-5-1.21,10.22,10.22,0,0,0,5.68,1.65c4.79,0,8.66-3,8.66-6.68A6.41,6.41,0,0,0,56.28,60.35Z"/><ellipse class="cls-5" cx="51.33" cy="80.49" rx="8.67" ry="6.67"/><path class="cls-6" d="M43.54,80.78c0-3.68,3.88-6.67,8.66-6.67a10.89,10.89,0,0,1,3,.42,10.84,10.84,0,0,0-3.88-.71c-4.79,0-8.67,3-8.67,6.67,0,2.87,2.36,5.31,5.67,6.25C45.49,85.65,43.54,83.39,43.54,80.78Z"/><path class="cls-7" d="M56.28,75a6.14,6.14,0,0,1,3,5c0,3.69-3.88,6.67-8.67,6.67a10.41,10.41,0,0,1-5-1.2,10.22,10.22,0,0,0,5.68,1.64c4.79,0,8.66-3,8.66-6.67A6.4,6.4,0,0,0,56.28,75Z"/><ellipse class="cls-5" cx="51.33" cy="95.16" rx="8.67" ry="6.67"/><path class="cls-6" d="M43.54,95.45c0-3.69,3.88-6.67,8.66-6.67a10.89,10.89,0,0,1,3,.42,10.84,10.84,0,0,0-3.88-.71c-4.79,0-8.67,3-8.67,6.67,0,2.87,2.36,5.31,5.67,6.25C45.49,100.32,43.54,98.06,43.54,95.45Z"/><path class="cls-7" d="M56.28,89.69a6.14,6.14,0,0,1,3,5c0,3.68-3.88,6.67-8.67,6.67a10.41,10.41,0,0,1-5-1.2,10.22,10.22,0,0,0,5.68,1.64c4.79,0,8.66-3,8.66-6.67A6.38,6.38,0,0,0,56.28,89.69Z"/><ellipse class="cls-5" cx="51.33" cy="109.83" rx="8.67" ry="6.67"/><path class="cls-6" d="M43.54,110.12c0-3.69,3.88-6.67,8.66-6.67a10.89,10.89,0,0,1,3,.42,10.63,10.63,0,0,0-3.88-.72c-4.79,0-8.67,3-8.67,6.68,0,2.87,2.36,5.31,5.67,6.25C45.49,115,43.54,112.73,43.54,110.12Z"/><path class="cls-7" d="M56.28,104.36a6.14,6.14,0,0,1,3,5c0,3.68-3.88,6.67-8.67,6.67a10.53,10.53,0,0,1-5-1.2,10.22,10.22,0,0,0,5.68,1.64c4.79,0,8.66-3,8.66-6.67A6.38,6.38,0,0,0,56.28,104.36Z"/><rect class="cls-3" x="75.36" y="10.8" width="2.62" height="106.4"/><rect class="cls-4" x="74.43" y="10.8" width="0.93" height="106.4"/><rect class="cls-2" x="77.98" y="10.8" width="0.93" height="106.4"/><ellipse class="cls-5" cx="76.67" cy="21.65" rx="8.67" ry="7.35"/><path class="cls-6" d="M68.81,22c0-4.06,3.88-7.35,8.66-7.35a9.75,9.75,0,0,1,3.67.7,9.77,9.77,0,0,0-4.47-1.07c-4.79,0-8.66,3.29-8.66,7.36a7.37,7.37,0,0,0,5,6.65A7.2,7.2,0,0,1,68.81,22Z"/><path class="cls-7" d="M82,15.87a6.75,6.75,0,0,1,2.21,4.9c0,4.06-3.88,7.36-8.66,7.36a9.7,9.7,0,0,1-5.36-1.58A9.4,9.4,0,0,0,76.67,29c4.79,0,8.67-3.29,8.67-7.35A7,7,0,0,0,82,15.87Z"/><ellipse class="cls-5" cx="76.67" cy="65.82" rx="8.67" ry="6.67"/><path class="cls-6" d="M68.88,66.11c0-3.68,3.88-6.67,8.66-6.67a10.89,10.89,0,0,1,3,.42,10.8,10.8,0,0,0-3.88-.71c-4.79,0-8.66,3-8.66,6.67,0,2.87,2.35,5.31,5.66,6.26C70.83,71,68.88,68.72,68.88,66.11Z"/><path class="cls-7" d="M81.62,60.35a6.14,6.14,0,0,1,3,5c0,3.69-3.88,6.68-8.67,6.68a10.42,10.42,0,0,1-5-1.21,10.22,10.22,0,0,0,5.68,1.65c4.79,0,8.67-3,8.67-6.68A6.4,6.4,0,0,0,81.62,60.35Z"/><ellipse class="cls-5" cx="76.67" cy="80.49" rx="8.67" ry="6.67"/><path class="cls-6" d="M68.88,80.78c0-3.68,3.88-6.67,8.66-6.67a10.89,10.89,0,0,1,3,.42,10.8,10.8,0,0,0-3.88-.71c-4.79,0-8.66,3-8.66,6.67,0,2.87,2.35,5.31,5.66,6.25C70.83,85.65,68.88,83.39,68.88,80.78Z"/><path class="cls-7" d="M81.62,75a6.14,6.14,0,0,1,3,5c0,3.69-3.88,6.67-8.67,6.67a10.41,10.41,0,0,1-5-1.2,10.22,10.22,0,0,0,5.68,1.64c4.79,0,8.67-3,8.67-6.67A6.39,6.39,0,0,0,81.62,75Z"/><ellipse class="cls-5" cx="76.67" cy="95.16" rx="8.67" ry="6.67"/><path class="cls-6" d="M68.88,95.45c0-3.69,3.88-6.67,8.66-6.67a10.89,10.89,0,0,1,3,.42,10.8,10.8,0,0,0-3.88-.71c-4.79,0-8.66,3-8.66,6.67,0,2.87,2.35,5.31,5.66,6.25C70.83,100.32,68.88,98.06,68.88,95.45Z"/><path class="cls-7" d="M81.62,89.69a6.14,6.14,0,0,1,3,5c0,3.68-3.88,6.67-8.67,6.67a10.41,10.41,0,0,1-5-1.2,10.22,10.22,0,0,0,5.68,1.64c4.79,0,8.67-3,8.67-6.67A6.38,6.38,0,0,0,81.62,89.69Z"/><ellipse class="cls-5" cx="76.67" cy="109.83" rx="8.67" ry="6.67"/><path class="cls-6" d="M68.88,110.12c0-3.69,3.88-6.67,8.66-6.67a10.89,10.89,0,0,1,3,.42,10.59,10.59,0,0,0-3.88-.72c-4.79,0-8.66,3-8.66,6.68,0,2.87,2.35,5.31,5.66,6.25C70.83,115,68.88,112.73,68.88,110.12Z"/><path class="cls-7" d="M81.62,104.36a6.14,6.14,0,0,1,3,5c0,3.68-3.88,6.67-8.67,6.67a10.53,10.53,0,0,1-5-1.2,10.22,10.22,0,0,0,5.68,1.64c4.79,0,8.67-3,8.67-6.67A6.38,6.38,0,0,0,81.62,104.36Z"/><rect class="cls-3" x="100.7" y="10.8" width="2.62" height="106.4"/><rect class="cls-4" x="99.77" y="10.8" width="0.93" height="106.4"/><rect class="cls-2" x="103.32" y="10.8" width="0.93" height="106.4"/><ellipse class="cls-5" cx="102.01" cy="21.65" rx="8.67" ry="7.35"/><path class="cls-6" d="M94.15,22c0-4.06,3.88-7.35,8.66-7.35a9.84,9.84,0,0,1,3.68.7A9.84,9.84,0,0,0,102,14.29c-4.78,0-8.66,3.29-8.66,7.36a7.37,7.37,0,0,0,5,6.65A7.2,7.2,0,0,1,94.15,22Z"/><path class="cls-7" d="M107.37,15.87a6.76,6.76,0,0,1,2.22,4.9c0,4.06-3.88,7.36-8.67,7.36a9.72,9.72,0,0,1-5.36-1.58A9.4,9.4,0,0,0,102,29c4.79,0,8.67-3.29,8.67-7.35A7,7,0,0,0,107.37,15.87Z"/><ellipse class="cls-5" cx="102.01" cy="65.82" rx="8.67" ry="6.67"/><path class="cls-6" d="M94.22,66.11c0-3.68,3.88-6.67,8.67-6.67a10.87,10.87,0,0,1,3,.42,10.8,10.8,0,0,0-3.88-.71c-4.78,0-8.66,3-8.66,6.67,0,2.87,2.36,5.31,5.66,6.26C96.17,71,94.22,68.72,94.22,66.11Z"/><path class="cls-7" d="M107,60.35a6.15,6.15,0,0,1,3,5c0,3.69-3.88,6.68-8.67,6.68a10.42,10.42,0,0,1-5-1.21A10.25,10.25,0,0,0,102,72.5c4.79,0,8.67-3,8.67-6.68A6.41,6.41,0,0,0,107,60.35Z"/><ellipse class="cls-5" cx="102.01" cy="80.49" rx="8.67" ry="6.67"/><path class="cls-6" d="M94.22,80.78c0-3.68,3.88-6.67,8.67-6.67a10.87,10.87,0,0,1,3,.42,10.8,10.8,0,0,0-3.88-.71c-4.78,0-8.66,3-8.66,6.67,0,2.87,2.36,5.31,5.66,6.25C96.17,85.65,94.22,83.39,94.22,80.78Z"/><path class="cls-7" d="M107,75a6.15,6.15,0,0,1,3,5c0,3.69-3.88,6.67-8.67,6.67a10.41,10.41,0,0,1-5-1.2A10.24,10.24,0,0,0,102,87.16c4.79,0,8.67-3,8.67-6.67A6.4,6.4,0,0,0,107,75Z"/><ellipse class="cls-5" cx="102.01" cy="95.16" rx="8.67" ry="6.67"/><path class="cls-6" d="M94.22,95.45c0-3.69,3.88-6.67,8.67-6.67a10.87,10.87,0,0,1,3,.42,10.8,10.8,0,0,0-3.88-.71c-4.78,0-8.66,3-8.66,6.67,0,2.87,2.36,5.31,5.66,6.25C96.17,100.32,94.22,98.06,94.22,95.45Z"/><path class="cls-7" d="M107,89.69a6.15,6.15,0,0,1,3,5c0,3.68-3.88,6.67-8.67,6.67a10.41,10.41,0,0,1-5-1.2,10.24,10.24,0,0,0,5.68,1.64c4.79,0,8.67-3,8.67-6.67A6.38,6.38,0,0,0,107,89.69Z"/><ellipse class="cls-5" cx="102.01" cy="109.83" rx="8.67" ry="6.67"/><path class="cls-6" d="M94.22,110.12c0-3.69,3.88-6.67,8.67-6.67a10.87,10.87,0,0,1,3,.42,10.59,10.59,0,0,0-3.88-.72c-4.78,0-8.66,3-8.66,6.68,0,2.87,2.36,5.31,5.66,6.25C96.17,115,94.22,112.73,94.22,110.12Z"/><path class="cls-7" d="M107,104.36a6.15,6.15,0,0,1,3,5c0,3.68-3.88,6.67-8.67,6.67a10.53,10.53,0,0,1-5-1.2A10.24,10.24,0,0,0,102,116.5c4.79,0,8.67-3,8.67-6.67A6.38,6.38,0,0,0,107,104.36Z"/><rect x="10.8" y="40.66" width="106.4" height="4.66"/><rect class="cls-2" x="10.8" y="40.66" width="106.4" height="0.71"/></svg>