<svg id="图层_1" data-name="图层 1" xmlns="http://www.w3.org/2000/svg" viewBox="0 0 128 128"><defs><style>.cls-1{fill:#c6412f;}.cls-2{fill:#0b36b6;}.cls-3{fill:#bbdefb;}.cls-4{fill:#263238;}</style></defs><title>xmlcopyeditor-112</title><path class="cls-1" d="M55.93,8V44.1L44.47,48.47,8,23.79V20A12,12,0,0,1,20,8Z"/><path class="cls-2" d="M119.9,18.64c0-.26-.08-.52-.13-.78l-38.88,37L58.48,44.17V8H108A12,12,0,0,1,119.9,18.64Z"/><path class="cls-3" d="M120,20v88a12,12,0,0,1-12,12H20A12,12,0,0,1,8,108V23.79L44.47,48.47,55.93,44.1V8h2.55V44.17L80.89,54.82l38.88-37c0,.26.09.52.13.78s0,.49.07.74v0a.49.49,0,0,0,0,.12C120,19.69,120,19.84,120,20Z"/><path class="cls-4" d="M120,20.22c0-.27,0-.54,0-.8v0c0-.25,0-.49-.07-.74s-.08-.52-.13-.78l-38.88,37L58.48,44.17V8H55.93V44.1L44.47,48.47,8,23.79v3.07L42.66,50.31,25.73,82.69,8,91v2.82l18.68-8.76,36.05,15.73V120h2.54V100.48L83.76,81.66,120,100.36V97.5L84.71,79.29,82.46,56.83,120,21.15ZM63.7,98.44,28.42,83,45.21,50.91l11.94-4.56L79.94,57.18l2.24,22.45Z"/></svg>