<?xml version="1.0" encoding="utf-8"?>
<!-- Generator: Adobe Illustrator 24.0.0, SVG Export Plug-In . SVG Version: 6.00 Build 0)  -->
<svg version="1.1" id="图层_1" xmlns="http://www.w3.org/2000/svg" xmlns:xlink="http://www.w3.org/1999/xlink" x="0px" y="0px"
	 viewBox="0 0 128 128" enable-background="new 0 0 128 128" xml:space="preserve">
<title>zenmap128</title>
<path fill="#26193A" d="M20,8h88c6.6,0,12,5.4,12,12v88c0,6.6-5.4,12-12,12H20c-6.6,0-12-5.4-12-12V20C8,13.4,13.4,8,20,8z"/>
<linearGradient id="SVGID_1_" gradientUnits="userSpaceOnUse" x1="64" y1="85.61" x2="64" y2="42.39" gradientTransform="matrix(1 0 0 -1 0 128)">
	<stop  offset="0" style="stop-color:#AAE0E5"/>
	<stop  offset="0.99" style="stop-color:#6DC7CC"/>
</linearGradient>
<path fill="url(#SVGID_1_)" d="M63.7,81.3c20.3,0,19.9-10.4,44.6-19.2c0.2-0.1,0.4-0.2,0.6-0.3c-0.2-0.2-0.4-0.4-0.6-0.6
	c-6.7-5.7-24-18.7-44.3-18.7s-37.7,13-44.3,18.7c-0.2,0.2-0.4,0.4-0.6,0.7c0.2,0.1,0.4,0.2,0.6,0.3C44.9,69.9,43.4,81.3,63.7,81.3z"
	/>
<linearGradient id="SVGID_2_" gradientUnits="userSpaceOnUse" x1="63.9848" y1="85.61" x2="63.9848" y2="42.39" gradientTransform="matrix(1 0 0 -1 0 128)">
	<stop  offset="0" style="stop-color:#AAE0E5"/>
	<stop  offset="0.99" style="stop-color:#6DC7CC"/>
</linearGradient>
<path fill="url(#SVGID_2_)" d="M109.4,62.4c0,0.9-0.6,1.6-1.4,1.9c-24.7,8.9-24.3,19.2-44.6,19.2S44.5,72.1,19.2,64.3
	c-0.4-0.1-0.7-0.3-1-0.7c-0.3,1.1,0.3,2.4,1.4,2.7c25.2,7.8,23.7,19.2,44.1,19.2s19.9-10.4,44.6-19.2
	C110,65.8,110.1,63.9,109.4,62.4z"/>
<path fill="#A5E5F9" d="M19.2,64.3C44.5,72.1,43,83.5,63.3,83.5s19.9-10.4,44.6-19.2c0.8-0.3,1.4-1,1.4-1.9
	c-0.1-0.3-0.3-0.5-0.4-0.7c-0.2,0.1-0.4,0.2-0.6,0.3c-24.8,8.9-24.3,19.2-44.6,19.2S44.9,69.9,19.7,62c-0.2-0.1-0.4-0.2-0.6-0.3
	c-0.4,0.6-0.7,1.2-0.8,1.9C18.5,63.9,18.8,64.2,19.2,64.3z"/>
<linearGradient id="SVGID_3_" gradientUnits="userSpaceOnUse" x1="64.001" y1="49.23" x2="64.001" y2="79.28" gradientTransform="matrix(1 0 0 -1 0 128)">
	<stop  offset="0" style="stop-color:#EEFBFF"/>
	<stop  offset="0.99" style="stop-color:#8BCAD8"/>
</linearGradient>
<linearGradient id="SVGID_4_" gradientUnits="userSpaceOnUse" x1="30.2108" y1="64.275" x2="97.7913" y2="64.275" gradientTransform="matrix(1 0 0 -1 0 128)">
	<stop  offset="0" style="stop-color:#67C5E5"/>
	<stop  offset="0.99" style="stop-color:#8BCAD8"/>
</linearGradient>
<path fill="url(#SVGID_3_)" stroke="url(#SVGID_4_)" stroke-miterlimit="10" d="M96.2,61.9c1.2,1.1,1.6,3.3,0,3.8
	c-18,6.4-17.3,13-32.1,13s-14-7.3-32.3-13c-1.6-0.5-1.2-2.8,0-3.8c4.8-4.2,17.4-13.2,32.2-13.2S91.4,57.7,96.2,61.9z"/>
<linearGradient id="SVGID_5_" gradientUnits="userSpaceOnUse" x1="63.9989" y1="49.2495" x2="63.9989" y2="79.27" gradientTransform="matrix(1 0 0 -1 0 128)">
	<stop  offset="0" style="stop-color:#B5E0EA"/>
	<stop  offset="1" style="stop-color:#79CAD8"/>
</linearGradient>
<path fill="url(#SVGID_5_)" d="M79.8,63.7c0-6.4-3.9-12.2-9.8-14.6c-1.8-0.3-3.7-0.4-5.5-0.4c-2.5,0-4.9,0.3-7.3,0.9
	c-7.8,3.8-11,13.3-7.2,21.1c1.5,3.1,3.9,5.5,7,7.1c2.5,0.7,5,1,7.6,1c1.9,0,3.9-0.2,5.8-0.5C76,75.8,79.7,70.1,79.8,63.7z"/>
<linearGradient id="SVGID_6_" gradientUnits="userSpaceOnUse" x1="64" y1="55.01" x2="64" y2="73.51" gradientTransform="matrix(1 0 0 -1 0 128)">
	<stop  offset="0" style="stop-color:#89D8E5"/>
	<stop  offset="0.99" style="stop-color:#68B4C1"/>
</linearGradient>
<circle fill="url(#SVGID_6_)" cx="64" cy="63.7" r="9.3"/>
<circle fill="#445F6D" cx="64" cy="63.7" r="5.3"/>
<circle fill="#445F6D" cx="64" cy="63.7" r="3.7"/>
<path fill="#FFFFFF" d="M64,67.5c-2.1,0-3.8-1.7-3.8-3.8c0-2.1,1.7-3.8,3.8-3.8s3.8,1.7,3.8,3.8c0,0,0,0,0,0
	C67.8,65.8,66.1,67.5,64,67.5z M64,60.2c-1.9,0-3.5,1.6-3.5,3.5c0,1.9,1.6,3.5,3.5,3.5c1.9,0,3.5-1.6,3.5-3.5c0,0,0,0,0,0
	C67.5,61.8,65.9,60.2,64,60.2z"/>
<circle fill="#FFFFFF" cx="64" cy="63.7" r="1.3"/>
<g opacity="0.2">
	<path fill="#FFFFFF" d="M63.9,76.7C56.8,76.7,51,71,51,63.9C51,56.7,56.8,51,63.9,51c7.1,0,12.9,5.8,12.9,12.9c0,0,0,0,0,0
		C76.8,70.9,71,76.7,63.9,76.7z M63.9,51.2c-7,0-12.7,5.7-12.7,12.7s5.7,12.7,12.7,12.7s12.7-5.7,12.7-12.7l0,0
		C76.6,56.8,70.9,51.2,63.9,51.2z"/>
	<circle fill="none" cx="63.7" cy="64" r="12.9"/>
	<path fill="#FFFFFF" d="M64,74.9c-6.1,0-11.1-5-11.1-11.1c0-6.1,5-11.1,11.1-11.1c6.1,0,11.1,5,11.1,11.1
		C75.1,69.9,70.1,74.9,64,74.9z M64,52.9c-6,0-10.9,4.9-10.9,10.9c0,6,4.9,10.9,10.9,10.9c6,0,10.9-4.9,10.9-10.9c0,0,0,0,0,0
		C74.9,57.7,70,52.8,64,52.9L64,52.9z"/>
	<path fill="#FFFFFF" d="M64,78c-7.9,0-14.3-6.4-14.3-14.3S56.1,49.4,64,49.4c7.9,0,14.3,6.4,14.3,14.3c0,0,0,0,0,0
		C78.3,71.6,71.9,78,64,78z M64,49.6c-7.8,0-14.1,6.3-14.1,14.1S56.2,77.8,64,77.8c7.8,0,14.1-6.3,14.1-14.1
		C78.1,56,71.8,49.7,64,49.6L64,49.6z"/>
	<rect x="73.3" y="63.6" fill="#FFFFFF" width="6.4" height="0.2"/>
	<polygon fill="#FFFFFF" points="79.2,59.8 73,61.4 72.9,61.2 79.1,59.6 	"/>
	<polygon fill="#FFFFFF" points="77.7,56 72.1,59.2 72,59 77.5,55.8 	"/>
	<polygon fill="#FFFFFF" points="75.2,52.8 70.7,57.3 70.5,57.1 75.1,52.6 	"/>
	<polygon fill="#FFFFFF" points="72,50.3 68.8,55.8 68.6,55.7 71.8,50.2 	"/>
	<polygon fill="#FFFFFF" points="68.2,48.7 66.6,54.8 66.4,54.8 68,48.6 	"/>
	<rect x="64" y="48.1" fill="#FFFFFF" width="0.2" height="6.4"/>
	<polygon fill="#FFFFFF" points="60.2,48.6 61.8,54.8 61.6,54.8 60,48.6 	"/>
	<polygon fill="#FFFFFF" points="56.4,50.1 59.6,55.6 59.4,55.7 56.2,50.2 	"/>
	<polygon fill="#FFFFFF" points="53.1,52.5 57.7,57 57.5,57.2 53,52.7 	"/>
	<polygon fill="#FFFFFF" points="50.6,55.7 56.2,58.9 56,59.1 50.5,55.9 	"/>
	<polygon fill="#FFFFFF" points="49,59.4 55.2,61.1 55.1,61.3 48.9,59.6 	"/>
	<rect x="48.4" y="63.5" fill="#FFFFFF" width="6.4" height="0.2"/>
	<polygon fill="#FFFFFF" points="48.9,67.5 55.1,65.8 55.2,66 49,67.7 	"/>
	<polygon fill="#FFFFFF" points="50.4,71.2 56,68.1 56.1,68.2 50.5,71.4 	"/>
	<polygon fill="#FFFFFF" points="52.9,74.5 57.4,70 57.5,70.1 53,74.6 	"/>
	<polygon fill="#FFFFFF" points="56.1,77 59.3,71.5 59.5,71.6 56.2,77.1 	"/>
	<polygon fill="#FFFFFF" points="59.8,78.6 61.5,72.4 61.7,72.5 60,78.6 	"/>
	<rect x="63.8" y="72.8" fill="#FFFFFF" width="0.2" height="6.4"/>
	<polygon fill="#FFFFFF" points="67.9,78.7 66.2,72.5 66.4,72.4 68.1,78.6 	"/>
	<polygon fill="#FFFFFF" points="71.7,77.2 68.5,71.6 68.7,71.5 71.9,77.1 	"/>
	<polygon fill="#FFFFFF" points="74.9,74.8 70.4,70.3 70.5,70.1 75.1,74.6 	"/>
	<polygon fill="#FFFFFF" points="77.4,71.6 71.9,68.4 72,68.2 77.5,71.4 	"/>
	<polygon fill="#FFFFFF" points="79,67.9 72.8,66.3 72.9,66.1 79.1,67.7 	"/>
</g>
<polygon fill="#FFFFFF" points="71.2,63.5 64,63.5 64,56.4 63.8,56.4 63.8,63.5 56.7,63.5 56.7,63.7 63.8,63.7 63.8,70.9 64,70.9 
	64,63.7 71.2,63.7 "/>
<path fill="#EEFEFF" d="M71.4,54.5c-1.2-0.6-2.6-0.8-3.9-0.4c-2.3,0.4-3.9,2.3-3.7,2.3c1.2,0,1.2,1.9,3.1,1.5s4.3,1,5.2-0.4
	c0.7-0.8,0.5-2-0.3-2.7C71.6,54.7,71.5,54.6,71.4,54.5z"/>
</svg>
