<svg id="图层_1" data-name="图层 1" xmlns="http://www.w3.org/2000/svg" viewBox="0 0 96 96"><defs><style>.cls-1{fill:#fff;}.cls-2{fill:#d32f2f;}.cls-3{fill:#0d47a1;}.cls-4{fill:#689f38;}.cls-5{fill:#f8e76b;}.cls-6{fill:#f7931e;}.cls-7{fill:#4caf50;}.cls-8{fill:#009245;}</style></defs><title>zim22</title><rect class="cls-1" x="6" y="6" width="84" height="84" rx="9"/><rect class="cls-2" x="19.13" y="56.36" width="25.29" height="1.88" rx="0.22" transform="translate(-29.31 33.6) rotate(-39.78)"/><rect class="cls-2" x="13.64" y="61.86" width="12.57" height="6.28" rx="0.75"/><rect class="cls-2" x="42.3" y="54.4" width="1.88" height="25.29" rx="0.22" transform="translate(-27.73 30.6) rotate(-30)"/><rect class="cls-2" x="46.62" y="73.95" width="12.57" height="6.28" rx="0.75"/><rect class="cls-2" x="43.79" y="56.38" width="25.29" height="1.88" rx="0.22" transform="translate(-7.94 9.09) rotate(-8.61)"/><rect class="cls-2" x="66.88" y="54.63" width="12.57" height="6.28" rx="0.75"/><rect class="cls-2" x="14.74" y="28.87" width="12.57" height="6.28" rx="0.75"/><rect class="cls-2" x="33.51" y="29.42" width="1.88" height="25.29" rx="0.22" transform="translate(-19.66 36.68) rotate(-45)"/><rect class="cls-2" x="44.5" y="20.55" width="12.57" height="6.28" rx="0.75"/><rect class="cls-2" x="29.66" y="35.31" width="25.29" height="1.88" rx="0.22" transform="translate(-4.86 65.92) rotate(-72.77)"/><path class="cls-3" d="M50.82,32.56a.44.44,0,0,1-.1.08l-.25.17-.39-.43a19.25,19.25,0,0,0-3.74-.5c-.35.14-.63.25-.49.25a3.29,3.29,0,0,1,.94,0,.72.72,0,0,0,.43,0,.68.68,0,0,1,.51.42c.17.35-.26.43-.08.6s-.18.26-.18.26,0-.86-.17-.86,0-.17-.17-.08,0,.08-.25.43-1,1-1.46,1h-.6c-.08,0-.17,0-.59.34s-.6.35-.6.35.6.42.51.68-.51.34-.77.43-.08-.26-.08-.35A3.6,3.6,0,0,0,43.2,35s-.43.17-.34,0a1.22,1.22,0,0,0,.08-.43,2.87,2.87,0,0,0-.85.26c-.26.17.26-.43.08-.35s-.25,0-.51.18-.85.17-.68.34.25.25.42.25.18-.08.43-.08h.24s0,0,0,0h0l-.24.17c-.34.26-.6.26-.6.34s.09.09.17.26a4,4,0,0,0,.26.51c.09.09.09.26,0,.26a.32.32,0,0,0-.17.08s.26.26.17.34A4.6,4.6,0,0,1,40,38.54c-1,.51-1.54.51-1.88.77s-.6.25-.43.34-.09.34-.09.25a1.33,1.33,0,0,0-.17-.34.46.46,0,0,0-.43.09c-.25.17-.94.34-.76.77s.94,1.19.76,1.53a6.31,6.31,0,0,1-.68,1,3.78,3.78,0,0,1-.68.6c-.09.08-.09-.51-.26-.51s-.34-.18-.43-.26a2.56,2.56,0,0,0-.34-.26l-.17-.17s-.26-.08-.26.34-.42.52-.34.77.26.26.26.26a3.54,3.54,0,0,0,.25.6c.09.08.52.08.52.42a1.28,1.28,0,0,0,.17.69c.08.17.51.51.17.6a.66.66,0,0,1-.86-.35c-.25-.42-.34-.94-.51-1.19s-.25-.26-.25-.26a7.94,7.94,0,0,1,.08-1.19c.09-.35.26-.35.17-.6a9,9,0,0,1-.17-.94,1.78,1.78,0,0,1-.51.34c-.26.08-.17-.26-.17-.6s-.26-.6-.26-.77.09-.51-.17-.43-.43.35-.68.43-.26.09-.52.51-1.45,1.46-1.54,1.8-.42.08-.42.6a2.27,2.27,0,0,1-.26,1.36c-.26.35-.34.86-.51.86a2.57,2.57,0,0,1-.26-2.05,9.91,9.91,0,0,0,.34-1.71h0a19.32,19.32,0,1,0,22.07-9.32ZM29.35,46.14c-.26.17-.43-.25-.26-.6s.35-.34.35-.59C29.44,45,29.61,46,29.35,46.14Zm15.56,0c.51.34.6.94,1.2.69s.08-.6.68-.43,2.65.68,2.74,1,.68.6.68.77-.26.17-.26.17a9.49,9.49,0,0,0,.69.86c.25.25.77.34.6.51s-.69.09-1-.17-.77-.77-.94-.77-.43-.43-.51-.17.08.51-.26.51a4.09,4.09,0,0,1-.94-.25c-.34-.09-.51-.26-.68-.17s.08-.18,0-.52-.26-.6-.86-.77-.51-.17-.77-.25-.6-.69-.77-.77S44.4,45.8,44.91,46.14Zm-2.65-3.25.09-.17a.41.41,0,0,1,.34.17,1.58,1.58,0,0,1,.08.6c0,.17-.17.26-.25.09s-.17.08-.17.17V44s-.09.08-.35,0-.17-.43-.25-.6-.26.08-.43.17-.26.17-.26,0,.17-.26.26-.34.17-.09.43-.09.08.09.25,0S42.17,43.07,42.26,42.89Zm-1.62-2a3.65,3.65,0,0,1,.17-.42c.08-.17.08-.43.17-.43s.34-.09.51,0-.09.26,0,.43-.26.42-.34.59a.33.33,0,0,0,.08.35h.35c.17,0,.17.08.34.25s0,.34,0,.26-.43-.26-.43-.26h-.34a.67.67,0,0,1-.26.34c-.17.09,0,0-.08-.17s0-.25-.09-.42S40.55,41,40.64,40.84Zm-.43,5.81a.92.92,0,0,1,.08-.34l.17-.51c.09-.26.18-.09.35-.17s.17,0,.51.08a.85.85,0,0,0,.51,0c.09,0,.34-.25.34-.25s.09.08,0,.34-.59.51-.59.6-.18.17-.26.08-.17,0-.17.35a.67.67,0,0,0,.43.59c.08,0-.18.26-.26.09s-.17.26-.26.26-.08-.18-.17-.35a1.47,1.47,0,0,0-.25-.34V48c0,.26-.18.09-.35,0s0-.51,0-.6-.17-.08-.25-.25S40.21,46.83,40.21,46.65Zm-2.82-1.11,1.28-.85c.77-.51.68-.86.68-.86a1.38,1.38,0,0,0,.52.43c.34.17,0,.17-.26.43s.34.68.26,1.11-.35.43-.69.77,0,.85-.51,1.11a1.3,1.3,0,0,1-1.37-.34,2.91,2.91,0,0,1-.6-1.45C36.62,45.29,37.13,45.71,37.39,45.54ZM35,48.28A11.56,11.56,0,0,1,34,47a9.08,9.08,0,0,0-.69-.86c-.25-.25-.59-.94-.51-1a.53.53,0,0,1,.6.08c.34.26.68.86.85.94s.86.17.86.43a1.38,1.38,0,0,0,.43.77c.17.17.51.85.25,1.11S35.51,48.79,35,48.28Zm2.91.85a11,11,0,0,0-1.62,0c-.52,0-.52-.25-.43-.51s.68,0,.85,0a4.81,4.81,0,0,0,1.2,0c.51-.09.51.34,1.2.43s.51-.09.94-.17a8.75,8.75,0,0,1,1.62-.09c.6,0-.08.17-.26.26a3.77,3.77,0,0,1-1.19.08,3.66,3.66,0,0,0-1,.09A3.15,3.15,0,0,1,37.9,49.13Zm13.59,6.16a12.9,12.9,0,0,1-.94,3.07c-.43.51-.77.94-.77.94s-1,.43-1.11.26-.26.51-1.11-.17-.51-1.54-1.2-1.54-2.22-1.37-3.33-.77-1.28.6-1.8.94-1.36.51-1.53-.51-.69-1.46-.77-2.22a2.67,2.67,0,0,1,1.45-2.4c.94-.42,1.79-2.22,2.48-2a3.57,3.57,0,0,0,1.11.25s.08-1.45,1.2-1.19.85.17,1.19.85-.25.34-.42.6,1,.17,1.36.51.69-.6.69-1,.42-1.54.42-1.2.52.86.86,1.71S51.75,54.17,51.49,55.29Z"/><path class="cls-4" d="M42.07,35.12h0S42.12,35.09,42.07,35.12Z"/><path class="cls-4" d="M52.05,31.86h0Z"/><path class="cls-4" d="M28.41,43.58a2.57,2.57,0,0,0,.26,2.05c.17,0,.25-.51.51-.86a2.27,2.27,0,0,0,.26-1.36c0-.52.34-.26.42-.6s1.29-1.37,1.54-1.8.26-.42.52-.51.42-.34.68-.43.17.26.17.43.26.43.26.77-.09.68.17.6a1.78,1.78,0,0,0,.51-.34,9,9,0,0,0,.17.94c.09.25-.08.25-.17.6a7.94,7.94,0,0,0-.08,1.19s.08,0,.25.26.26.77.51,1.19a.66.66,0,0,0,.86.35c.34-.09-.09-.43-.17-.6a1.28,1.28,0,0,1-.17-.69c0-.34-.43-.34-.52-.42a3.54,3.54,0,0,1-.25-.6s-.17,0-.26-.26.34-.34.34-.77.26-.34.26-.34l.17.17a2.56,2.56,0,0,1,.34.26c.09.08.26.26.43.26s.17.59.26.51a3.78,3.78,0,0,0,.68-.6A6.31,6.31,0,0,0,37,42c.18-.34-.59-1.11-.76-1.53s.51-.6.76-.77a.46.46,0,0,1,.43-.09,1.33,1.33,0,0,1,.17.34c0,.09.26-.17.09-.25s.08-.09.43-.34.85-.26,1.88-.77a4.6,4.6,0,0,0,1.62-1.46c.09-.08-.17-.34-.17-.34a.32.32,0,0,1,.17-.08c.09,0,.09-.17,0-.26a4,4,0,0,1-.26-.51c-.08-.17-.17-.17-.17-.26s.26-.08.6-.34l.24-.17h-.24c-.25,0-.25.08-.43.08s-.25-.08-.42-.25.42-.17.68-.34.34-.09.51-.18-.34.52-.08.35a2.87,2.87,0,0,1,.85-.26,1.22,1.22,0,0,1-.08.43c-.09.17.34,0,.34,0a3.6,3.6,0,0,1,.09.42c0,.09-.18.43.08.35s.68-.17.77-.43-.51-.68-.51-.68.17,0,.6-.35.51-.34.59-.34h.6c.43,0,1.2-.68,1.46-1s.08-.35.25-.43,0,.08.17.08.17.86.17.86.35-.09.18-.26.25-.25.08-.6a.68.68,0,0,0-.51-.42.72.72,0,0,1-.43,0,3.29,3.29,0,0,0-.94,0c-.14,0,.14-.11.49-.25h-.66a19.3,19.3,0,0,0-16.93,10h0A9.91,9.91,0,0,1,28.41,43.58Z"/><path class="cls-4" d="M50.47,32.81l.25-.17a.44.44,0,0,0,.1-.08c-.24-.06-.49-.13-.74-.18Z"/><path class="cls-4" d="M48.41,49.73c0-.34-.42.77-.42,1.2s-.34,1.36-.69,1-1.54-.25-1.36-.51.76.09.42-.6-.08-.6-1.19-.85S44,51.18,44,51.18a3.57,3.57,0,0,1-1.11-.25c-.69-.26-1.54,1.54-2.48,2a2.67,2.67,0,0,0-1.45,2.4c.08.76.59,1.19.77,2.22s1,.85,1.53.51.69-.34,1.8-.94,2.65.77,3.33.77.34.85,1.2,1.54,1,0,1.11.17,1.11-.26,1.11-.26.34-.43.77-.94a12.9,12.9,0,0,0,.94-3.07c.26-1.12-1.88-3-2.22-3.85S48.41,50.07,48.41,49.73Z"/><path class="cls-4" d="M29.09,45.54c-.17.35,0,.77.26.6s.09-1.19.09-1.19C29.44,45.2,29.27,45.2,29.09,45.54Z"/><path class="cls-4" d="M35.51,47.34a1.38,1.38,0,0,1-.43-.77c0-.26-.69-.34-.86-.43s-.51-.68-.85-.94a.53.53,0,0,0-.6-.08c-.08.08.26.77.51,1A9.08,9.08,0,0,1,34,47a11.56,11.56,0,0,0,1,1.28c.52.51.52.43.77.17S35.68,47.51,35.51,47.34Z"/><path class="cls-4" d="M37.3,47.34a1.3,1.3,0,0,0,1.37.34c.51-.26.17-.77.51-1.11s.6-.34.69-.77-.52-.85-.26-1.11.6-.26.26-.43a1.38,1.38,0,0,1-.52-.43s.09.35-.68.86l-1.28.85c-.26.17-.77-.25-.69.35A2.91,2.91,0,0,0,37.3,47.34Z"/><path class="cls-4" d="M40.21,49.13a3.77,3.77,0,0,0,1.19-.08c.18-.09.86-.26.26-.26a8.75,8.75,0,0,0-1.62.09c-.43.08-.26.25-.94.17s-.69-.52-1.2-.43a4.81,4.81,0,0,1-1.2,0c-.17,0-.77-.26-.85,0s-.09.51.43.51a11,11,0,0,1,1.62,0,3.15,3.15,0,0,0,1.28.09A3.66,3.66,0,0,1,40.21,49.13Z"/><path class="cls-4" d="M44.48,46.4c.17.08.52.68.77.77s.17.08.77.25.77.43.86.77-.18.6,0,.52.34.08.68.17a4.09,4.09,0,0,0,.94.25c.34,0,.17-.25.26-.51s.34.17.51.17.6.51.94.77.85.34,1,.17-.35-.26-.6-.51a9.49,9.49,0,0,1-.69-.86s.26,0,.26-.17-.6-.42-.68-.77-2.14-.85-2.74-1-.09.17-.68.43-.69-.35-1.2-.69S44.31,46.31,44.48,46.4Z"/><path class="cls-4" d="M40.81,41.78c.08.17-.09.26.08.17a.67.67,0,0,0,.26-.34h.34s.43.17.43.26.17-.09,0-.26-.17-.25-.34-.25h-.35a.33.33,0,0,1-.08-.35c.08-.17.43-.42.34-.59s.17-.35,0-.43-.43,0-.51,0-.09.26-.17.43a3.65,3.65,0,0,0-.17.42c-.09.17,0,.35.08.52S40.72,41.61,40.81,41.78Z"/><path class="cls-4" d="M41.75,43.15c-.26,0-.35,0-.43.09s-.26.17-.26.34.09.08.26,0,.34-.34.43-.17,0,.51.25.6.35,0,.35,0v-.26c0-.09.08-.34.17-.17s.25.08.25-.09a1.58,1.58,0,0,0-.08-.6.41.41,0,0,0-.34-.17l-.09.17c-.09.18-.09.18-.26.26S42,43.15,41.75,43.15Z"/><path class="cls-4" d="M40.29,47.42c0,.09-.17.52,0,.6s.35.26.35,0v-.94a1.47,1.47,0,0,1,.25.34c.09.17.09.35.17.35s.17-.43.26-.26.34-.09.26-.09a.67.67,0,0,1-.43-.59c0-.35.08-.43.17-.35s.26,0,.26-.08.51-.34.59-.6,0-.34,0-.34-.25.25-.34.25a.85.85,0,0,1-.51,0c-.34-.08-.34-.17-.51-.08s-.26-.09-.35.17l-.17.51a.92.92,0,0,0-.08.34c0,.18-.26.35-.17.52S40.29,47.34,40.29,47.42Z"/><path class="cls-5" d="M57.16,46.84A2.71,2.71,0,0,0,61,44.62a7.3,7.3,0,0,0-7.85-8.06,2.7,2.7,0,0,0-2.32,3.73,7.64,7.64,0,0,1-2,7.7,8.36,8.36,0,0,1-.79.68.48.48,0,0,0,0,.72h0a.48.48,0,0,0,.72,0,8.5,8.5,0,0,1,.7-.78A7.63,7.63,0,0,1,57.16,46.84Z"/><path class="cls-6" d="M48.23,49.71a.75.75,0,0,1-.34-.2.8.8,0,0,1-.23-.58.56.56,0,0,1,.21-.39,7.15,7.15,0,0,0,.78-.66,7.47,7.47,0,0,0,2-7.54A3.18,3.18,0,0,1,51,37.58a2.77,2.77,0,0,1,2.13-1.18,7.47,7.47,0,0,1,8,8.23,2.78,2.78,0,0,1-1.23,2.1,3.18,3.18,0,0,1-2.76.26h0a7.43,7.43,0,0,0-7.59,1.79,7.08,7.08,0,0,0-.68.76.56.56,0,0,1-.4.2A.83.83,0,0,1,48.23,49.71ZM55.63,37a7.1,7.1,0,0,0-2.52-.25,2.43,2.43,0,0,0-1.89,1,2.88,2.88,0,0,0-.29,2.49,7.77,7.77,0,0,1-2.06,7.85,6.7,6.7,0,0,1-.81.69A.22.22,0,0,0,48,49a.43.43,0,0,0,.13.32.41.41,0,0,0,.32.14.22.22,0,0,0,.17-.08,8.88,8.88,0,0,1,.71-.79,7.76,7.76,0,0,1,7.9-1.86,2.92,2.92,0,0,0,2.5-.22A2.48,2.48,0,0,0,60.8,44.6,7.15,7.15,0,0,0,55.63,37Z"/><rect class="cls-6" x="50.98" y="41.88" width="0.38" height="8.85" transform="translate(48.59 -22.66) rotate(45.72)"/><rect class="cls-5" x="54.12" y="41.91" width="0.75" height="2.29" rx="0.09" transform="translate(47.27 -26.02) rotate(45.72)"/><path class="cls-6" d="M53.82,44.13a.45.45,0,0,1-.21-.12l-.09-.09a.47.47,0,0,1,0-.67l1.19-1.16a.47.47,0,0,1,.66,0l.09.09a.47.47,0,0,1,0,.67L54.27,44a.51.51,0,0,1-.33.13Zm0-.34a.15.15,0,0,0,.22,0l1.19-1.16a.16.16,0,0,0,0-.11.21.21,0,0,0,0-.11l-.09-.09a.16.16,0,0,0-.22,0l-1.19,1.16a.15.15,0,0,0,0,.22Z"/><path class="cls-7" d="M68.49,38c10.14-9.9,15.36-19.3,13.24-21.48S71,18.42,60.21,28.92a15.52,15.52,0,0,0-4.34,6.89l5.9,6A14.15,14.15,0,0,0,68.49,38Z"/><path class="cls-8" d="M61.73,42l-6-6.19.16-.43a15.29,15.29,0,0,1,4.25-6.61c6.39-6.23,11.16-9.42,14-11,3.83-2.1,6.56-2.61,7.71-1.44,2.37,2.44-3.69,12.38-13.25,21.7a13.69,13.69,0,0,1-6.16,3.73l-.62.2Zm-5.68-6.27,5.77,5.91.52-.17a13.39,13.39,0,0,0,6-3.65c10.26-10,15.21-19.24,13.24-21.26-1-1.05-3.69-.5-7.33,1.49a69.87,69.87,0,0,0-14,11,15,15,0,0,0-4.18,6.49Z"/><rect class="cls-5" x="53.59" y="38.62" width="9.42" height="1.45" rx="0.17" transform="translate(45.76 -29.86) rotate(45.72)"/><path class="cls-6" d="M60.87,43.09a.73.73,0,0,1-.35-.2L54.82,37a.79.79,0,0,1-.23-.56.8.8,0,0,1,.24-.55l.14-.14a.74.74,0,0,1,.56-.22.75.75,0,0,1,.55.23l5.71,5.85a.82.82,0,0,1,.22.56.77.77,0,0,1-.24.55l-.14.14a.78.78,0,0,1-.56.22A.64.64,0,0,1,60.87,43.09Zm-.13-.42a.48.48,0,0,0,.34.14.47.47,0,0,0,.33-.14l.14-.13a.47.47,0,0,0,0-.67L55.86,36a.48.48,0,0,0-.67,0l-.14.14a.47.47,0,0,0,0,.67Z"/></svg>