<?xml version="1.0" encoding="utf-8"?>
<!-- Generator: Adobe Illustrator 24.0.0, SVG Export Plug-In . SVG Version: 6.00 Build 0)  -->
<svg version="1.1" id="图层_1" xmlns="http://www.w3.org/2000/svg" xmlns:xlink="http://www.w3.org/1999/xlink" x="0px" y="0px"
	 viewBox="0 0 96 96" enable-background="new 0 0 96 96" xml:space="preserve">
<title>zim22</title>
<path fill="#FFFFFF" d="M15,6h66c5,0,9,4,9,9v66c0,5-4,9-9,9H15c-5,0-9-4-9-9V15C6,10,10,6,15,6z"/>
<path fill="#D32F2F" d="M21.6,64.5l19.1-15.9c0.1-0.1,0.2-0.1,0.3,0l0.9,1.1c0.1,0.1,0.1,0.2,0,0.3L22.8,66c-0.1,0.1-0.2,0.1-0.3,0
	l-0.9-1.1C21.5,64.7,21.5,64.6,21.6,64.5z"/>
<path fill="#D32F2F" d="M14.4,61.9h11.1c0.4,0,0.8,0.3,0.8,0.8v4.8c0,0.4-0.3,0.8-0.8,0.8H14.4c-0.4,0-0.8-0.3-0.8-0.8v-4.8
	C13.6,62.2,14,61.9,14.4,61.9z"/>
<path fill="#D32F2F" d="M36.3,56.5l1.2-0.7c0.1-0.1,0.2,0,0.3,0.1l12.4,21.5c0.1,0.1,0,0.2-0.1,0.3l-1.2,0.7c-0.1,0.1-0.2,0-0.3-0.1
	L36.2,56.8C36.2,56.6,36.2,56.5,36.3,56.5z"/>
<path fill="#D32F2F" d="M47.4,73.9h11.1c0.4,0,0.8,0.3,0.8,0.8v4.8c0,0.4-0.3,0.8-0.8,0.8H47.4c-0.4,0-0.8-0.3-0.8-0.8v-4.8
	C46.6,74.3,47,73.9,47.4,73.9z"/>
<path fill="#D32F2F" d="M44,58.2l24.6-3.7c0.1,0,0.2,0.1,0.3,0.2l0.2,1.4c0,0.1-0.1,0.2-0.2,0.3l-24.6,3.7c-0.1,0-0.2-0.1-0.3-0.2
	l-0.2-1.4C43.8,58.4,43.9,58.3,44,58.2z"/>
<path fill="#D32F2F" d="M67.6,54.6h11.1c0.4,0,0.8,0.3,0.8,0.8v4.8c0,0.4-0.3,0.8-0.8,0.8H67.6c-0.4,0-0.8-0.3-0.8-0.8v-4.8
	C66.9,55,67.2,54.6,67.6,54.6z"/>
<path fill="#D32F2F" d="M15.5,28.9h11.1c0.4,0,0.8,0.3,0.8,0.8v4.8c0,0.4-0.3,0.8-0.8,0.8H15.5c-0.4,0-0.8-0.3-0.8-0.8v-4.8
	C14.7,29.2,15.1,28.9,15.5,28.9z"/>
<path fill="#D32F2F" d="M25,33.6l1-1c0.1-0.1,0.2-0.1,0.3,0l17.6,17.6c0.1,0.1,0.1,0.2,0,0.3l-1,1c-0.1,0.1-0.2,0.1-0.3,0L25,33.9
	C24.9,33.9,24.9,33.7,25,33.6z"/>
<path fill="#D32F2F" d="M45.3,20.5h11.1c0.4,0,0.8,0.3,0.8,0.8v4.8c0,0.4-0.3,0.8-0.8,0.8H45.3c-0.4,0-0.8-0.3-0.8-0.8v-4.8
	C44.5,20.9,44.8,20.5,45.3,20.5z"/>
<path fill="#D32F2F" d="M37.7,47.8l7.4-23.7c0-0.1,0.2-0.2,0.3-0.1l1.4,0.4c0.1,0,0.2,0.2,0.1,0.3l-7.4,23.7c0,0.1-0.2,0.2-0.3,0.1
	l-1.4-0.4C37.7,48.1,37.7,48,37.7,47.8z"/>
<path fill="#0D47A1" d="M50.8,32.6C50.8,32.6,50.8,32.6,50.8,32.6l-0.3,0.3l-0.4-0.4c-1.2-0.3-2.5-0.5-3.7-0.5
	c-0.3,0.1-0.6,0.3-0.5,0.3c0.3,0,0.6,0,0.9,0c0.1,0,0.3,0,0.4,0c0.2,0,0.4,0.2,0.5,0.4c0.2,0.3-0.3,0.4-0.1,0.6s-0.2,0.3-0.2,0.3
	s0-0.9-0.2-0.9s0-0.2-0.2-0.1s0,0.1-0.3,0.4s-1,1-1.5,1h-0.6c-0.1,0-0.2,0-0.6,0.3s-0.6,0.3-0.6,0.3s0.6,0.4,0.5,0.7
	s-0.5,0.3-0.8,0.4s-0.1-0.3-0.1-0.3c0-0.1-0.1-0.2-0.1-0.3c0,0-0.4,0.2-0.3,0c0.1-0.1,0.1-0.3,0.1-0.4c-0.3,0-0.6,0.1-0.8,0.3
	c-0.3,0.2,0.3-0.4,0.1-0.3s-0.3,0-0.5,0.2S40.8,34.8,41,35s0.3,0.3,0.4,0.3s0.2-0.1,0.4-0.1h0.2l0,0l0,0l-0.2,0.2
	c-0.3,0.3-0.6,0.3-0.6,0.3s0.1,0.1,0.2,0.3c0.1,0.2,0.2,0.3,0.3,0.5c0.1,0.1,0.1,0.3,0,0.3c-0.1,0-0.1,0-0.2,0.1
	c0,0,0.3,0.3,0.2,0.3c-0.4,0.6-1,1.1-1.7,1.4c-1,0.5-1.5,0.5-1.9,0.8s-0.6,0.3-0.4,0.3s-0.1,0.3-0.1,0.3c0-0.1-0.1-0.2-0.2-0.3
	c-0.1,0-0.3,0-0.4,0.1c-0.3,0.2-0.9,0.3-0.8,0.8s0.9,1.2,0.8,1.5c-0.2,0.4-0.4,0.7-0.7,1c-0.2,0.2-0.4,0.4-0.7,0.6
	c-0.1,0.1-0.1-0.5-0.3-0.5S35,42.9,35,42.8c-0.1-0.1-0.2-0.2-0.3-0.3l-0.2-0.2c0,0-0.3-0.1-0.3,0.3s-0.4,0.5-0.3,0.8
	s0.3,0.3,0.3,0.3c0.1,0.2,0.1,0.4,0.3,0.6c0.1,0.1,0.5,0.1,0.5,0.4c0,0.2,0,0.5,0.2,0.7c0.1,0.2,0.5,0.5,0.2,0.6
	c-0.3,0.1-0.7,0-0.9-0.3c-0.3-0.4-0.3-0.9-0.5-1.2s-0.3-0.3-0.3-0.3c0-0.4,0-0.8,0.1-1.2c0.1-0.3,0.3-0.3,0.2-0.6
	c-0.1-0.3-0.1-0.6-0.2-0.9c-0.1,0.1-0.3,0.3-0.5,0.3c-0.3,0.1-0.2-0.3-0.2-0.6s-0.3-0.6-0.3-0.8s0.1-0.5-0.2-0.4s-0.4,0.3-0.7,0.4
	s-0.3,0.1-0.5,0.5s-1.5,1.5-1.5,1.8s-0.4,0.1-0.4,0.6c0.1,0.5,0,0.9-0.3,1.4c-0.3,0.3-0.3,0.9-0.5,0.9c-0.4-0.6-0.5-1.4-0.3-2
	c0.2-0.6,0.3-1.1,0.3-1.7l0,0c-5.1,9.4-1.7,21.1,7.6,26.2s21.1,1.7,26.2-7.6s1.7-21.1-7.6-26.2C53.6,33.5,52.2,32.9,50.8,32.6
	L50.8,32.6z M29.4,46.1c-0.3,0.2-0.4-0.3-0.3-0.6s0.4-0.3,0.4-0.6C29.4,45,29.6,46,29.4,46.1z M44.9,46.1c0.5,0.3,0.6,0.9,1.2,0.7
	s0.1-0.6,0.7-0.4s2.7,0.7,2.7,1s0.7,0.6,0.7,0.8S50,48.3,50,48.3c0.2,0.3,0.4,0.6,0.7,0.9c0.3,0.3,0.8,0.3,0.6,0.5s-0.7,0.1-1-0.2
	s-0.8-0.8-0.9-0.8s-0.4-0.4-0.5-0.2s0.1,0.5-0.3,0.5c-0.3,0-0.6-0.1-0.9-0.3c-0.3-0.1-0.5-0.3-0.7-0.2s0.1-0.2,0-0.5
	s-0.3-0.6-0.9-0.8s-0.5-0.2-0.8-0.3s-0.6-0.7-0.8-0.8S44.4,45.8,44.9,46.1z M42.3,42.9l0.1-0.2c0.1,0,0.3,0.1,0.3,0.2
	c0.1,0.2,0.1,0.4,0.1,0.6c0,0.2-0.2,0.3-0.3,0.1s-0.2,0.1-0.2,0.2V44c0,0-0.1,0.1-0.3,0s-0.2-0.4-0.3-0.6s-0.3,0.1-0.4,0.2
	s-0.3,0.2-0.3,0s0.2-0.3,0.3-0.3s0.2-0.1,0.4-0.1s0.1,0.1,0.3,0S42.2,43.1,42.3,42.9z M40.6,40.9c0-0.1,0.1-0.3,0.2-0.4
	c0.1-0.2,0.1-0.4,0.2-0.4s0.3-0.1,0.5,0s-0.1,0.3,0,0.4s-0.3,0.4-0.3,0.6c0,0.1,0,0.3,0.1,0.3h0.3c0.2,0,0.2,0.1,0.3,0.3
	s0,0.3,0,0.3s-0.4-0.3-0.4-0.3h-0.3c0,0.1-0.1,0.3-0.3,0.3c-0.2,0.1,0,0-0.1-0.2s0-0.3-0.1-0.4S40.5,41,40.6,40.9L40.6,40.9z
	 M40.2,46.7c0-0.1,0-0.2,0.1-0.3l0.2-0.5c0.1-0.3,0.2-0.1,0.3-0.2s0.2,0,0.5,0.1c0.2,0.1,0.3,0.1,0.5,0c0.1,0,0.3-0.3,0.3-0.3
	s0.1,0.1,0,0.3s-0.6,0.5-0.6,0.6s-0.2,0.2-0.3,0.1s-0.2,0-0.2,0.3c0,0.3,0.2,0.5,0.4,0.6c0.1,0-0.2,0.3-0.3,0.1s-0.2,0.3-0.3,0.3
	s-0.1-0.2-0.2-0.3c-0.1-0.1-0.2-0.2-0.3-0.3V48c0,0.3-0.2,0.1-0.3,0s0-0.5,0-0.6s-0.2-0.1-0.3-0.3S40.2,46.8,40.2,46.7L40.2,46.7z
	 M37.4,45.6l1.3-0.8c0.8-0.5,0.7-0.9,0.7-0.9c0.1,0.2,0.3,0.3,0.5,0.4c0.3,0.2,0,0.2-0.3,0.4s0.3,0.7,0.3,1.1s-0.3,0.4-0.7,0.8
	s0,0.8-0.5,1.1c-0.5,0.2-1,0-1.4-0.3c-0.3-0.4-0.5-0.9-0.6-1.5C36.6,45.3,37.1,45.7,37.4,45.6L37.4,45.6z M35,48.3
	c-0.4-0.4-0.7-0.8-1-1.3c-0.2-0.3-0.4-0.6-0.7-0.9c-0.3-0.3-0.6-0.9-0.5-1c0.2-0.1,0.4-0.1,0.6,0.1c0.3,0.3,0.7,0.9,0.8,0.9
	s0.9,0.2,0.9,0.4c0.1,0.3,0.2,0.6,0.4,0.8c0.2,0.2,0.5,0.8,0.3,1.1S35.5,48.8,35,48.3z M37.9,49.1c-0.5,0-1.1,0-1.6,0
	c-0.5,0-0.5-0.3-0.4-0.5s0.7,0,0.8,0c0.4,0.1,0.8,0.1,1.2,0c0.5-0.1,0.5,0.3,1.2,0.4s0.5-0.1,0.9-0.2c0.5-0.1,1.1-0.1,1.6-0.1
	c0.6,0-0.1,0.2-0.3,0.3c-0.4,0.1-0.8,0.1-1.2,0.1c-0.3,0-0.7,0-1,0.1C38.8,49.3,38.3,49.3,37.9,49.1L37.9,49.1z M51.5,55.3
	c-0.2,1.1-0.5,2.1-0.9,3.1c-0.4,0.5-0.8,0.9-0.8,0.9s-1,0.4-1.1,0.3s-0.3,0.5-1.1-0.2s-0.5-1.5-1.2-1.5s-2.2-1.4-3.3-0.8
	s-1.3,0.6-1.8,0.9s-1.4,0.5-1.5-0.5S39,56,38.9,55.3c0-1,0.6-1.9,1.5-2.4c0.9-0.4,1.8-2.2,2.5-2c0.4,0.1,0.7,0.2,1.1,0.3
	c0,0,0.1-1.5,1.2-1.2s0.8,0.2,1.2,0.8s-0.3,0.3-0.4,0.6s1,0.2,1.4,0.5s0.7-0.6,0.7-1s0.4-1.5,0.4-1.2s0.5,0.9,0.9,1.7
	S51.8,54.2,51.5,55.3L51.5,55.3z"/>
<path fill="#689F38" d="M42.1,35.1L42.1,35.1C42.1,35.1,42.1,35.1,42.1,35.1z"/>
<path fill="#689F38" d="M52,31.9L52,31.9z"/>
<path fill="#689F38" d="M28.4,43.6c-0.2,0.7-0.1,1.4,0.3,2c0.2,0,0.3-0.5,0.5-0.9c0.2-0.4,0.3-0.9,0.3-1.4c0-0.5,0.3-0.3,0.4-0.6
	s1.3-1.4,1.5-1.8s0.3-0.4,0.5-0.5c0.3-0.1,0.4-0.3,0.7-0.4s0.2,0.3,0.2,0.4s0.3,0.4,0.3,0.8s-0.1,0.7,0.2,0.6
	c0.2-0.1,0.4-0.2,0.5-0.3c0,0.3,0.1,0.6,0.2,0.9c0.1,0.3-0.1,0.3-0.2,0.6c-0.1,0.4-0.1,0.8-0.1,1.2c0,0,0.1,0,0.3,0.3
	s0.3,0.8,0.5,1.2c0.1,0.3,0.5,0.5,0.9,0.3c0.3-0.1-0.1-0.4-0.2-0.6c-0.1-0.2-0.2-0.4-0.2-0.7c0-0.3-0.4-0.3-0.5-0.4
	c-0.1-0.2-0.2-0.4-0.3-0.6c0,0-0.2,0-0.3-0.3s0.3-0.3,0.3-0.8s0.3-0.3,0.3-0.3l0.2,0.2c0.1,0.1,0.2,0.2,0.3,0.3
	c0.1,0.1,0.3,0.3,0.4,0.3s0.2,0.6,0.3,0.5c0.2-0.2,0.5-0.4,0.7-0.6c0.2-0.3,0.5-0.6,0.6-1c0.2-0.3-0.6-1.1-0.8-1.5s0.5-0.6,0.8-0.8
	c0.1-0.1,0.3-0.1,0.4-0.1c0.1,0.1,0.1,0.2,0.2,0.3c0,0.1,0.3-0.2,0.1-0.3s0.1-0.1,0.4-0.3s0.8-0.3,1.9-0.8c0.6-0.3,1.2-0.9,1.6-1.5
	c0.1-0.1-0.2-0.3-0.2-0.3c0,0,0.1-0.1,0.2-0.1c0.1,0,0.1-0.2,0-0.3c-0.1-0.2-0.2-0.3-0.3-0.5c-0.1-0.2-0.2-0.2-0.2-0.3
	s0.3-0.1,0.6-0.3l0.2-0.2h-0.2c-0.3,0-0.3,0.1-0.4,0.1s-0.3-0.1-0.4-0.3s0.4-0.2,0.7-0.3s0.3-0.1,0.5-0.2S41.8,35,42,34.8
	c0.3-0.1,0.6-0.2,0.8-0.3c0,0.1,0,0.3-0.1,0.4c-0.1,0.2,0.3,0,0.3,0c0,0.1,0.1,0.3,0.1,0.4c0,0.1-0.2,0.4,0.1,0.3s0.7-0.2,0.8-0.4
	s-0.5-0.7-0.5-0.7s0.2,0,0.6-0.3s0.5-0.3,0.6-0.3h0.6c0.4,0,1.2-0.7,1.5-1s0.1-0.3,0.3-0.4s0,0.1,0.2,0.1s0.2,0.9,0.2,0.9
	s0.3-0.1,0.2-0.3s0.3-0.3,0.1-0.6c-0.1-0.2-0.3-0.4-0.5-0.4c-0.1,0-0.3,0-0.4,0c-0.3,0-0.6,0-0.9,0c-0.1,0,0.1-0.1,0.5-0.3h-0.7
	c-7,0-13.5,3.8-16.9,10l0,0C28.7,42.5,28.6,43,28.4,43.6z"/>
<path fill="#689F38" d="M50.5,32.8l0.3-0.2c0,0,0.1,0,0.1-0.1c-0.2-0.1-0.5-0.1-0.7-0.2L50.5,32.8z"/>
<path fill="#689F38" d="M48.4,49.7c0-0.3-0.4,0.8-0.4,1.2s-0.3,1.4-0.7,1s-1.5-0.3-1.4-0.5s0.8,0.1,0.4-0.6s-0.1-0.6-1.2-0.8
	S44,51.2,44,51.2c-0.4,0-0.8-0.1-1.1-0.3c-0.7-0.3-1.5,1.5-2.5,2c-0.9,0.5-1.5,1.4-1.5,2.4c0.1,0.8,0.6,1.2,0.8,2.2s1,0.8,1.5,0.5
	s0.7-0.3,1.8-0.9s2.7,0.8,3.3,0.8s0.3,0.8,1.2,1.5s1,0,1.1,0.2s1.1-0.3,1.1-0.3s0.3-0.4,0.8-0.9c0.4-1,0.8-2,0.9-3.1
	c0.3-1.1-1.9-3-2.2-3.8S48.4,50.1,48.4,49.7z"/>
<path fill="#689F38" d="M29.1,45.5c-0.2,0.3,0,0.8,0.3,0.6s0.1-1.2,0.1-1.2C29.4,45.2,29.3,45.2,29.1,45.5z"/>
<path fill="#689F38" d="M35.5,47.3c-0.2-0.2-0.4-0.5-0.4-0.8c0-0.3-0.7-0.3-0.9-0.4s-0.5-0.7-0.8-0.9c-0.2-0.1-0.4-0.2-0.6-0.1
	c-0.1,0.1,0.3,0.8,0.5,1c0.3,0.3,0.5,0.6,0.7,0.9c0.3,0.4,0.6,0.9,1,1.3c0.5,0.5,0.5,0.4,0.8,0.2S35.7,47.5,35.5,47.3z"/>
<path fill="#689F38" d="M37.3,47.3c0.4,0.4,0.9,0.5,1.4,0.3c0.5-0.3,0.2-0.8,0.5-1.1s0.6-0.3,0.7-0.8s-0.5-0.8-0.3-1.1
	s0.6-0.3,0.3-0.4c-0.2-0.1-0.4-0.2-0.5-0.4c0,0,0.1,0.3-0.7,0.9l-1.3,0.8c-0.3,0.2-0.8-0.3-0.7,0.3C36.8,46.4,37,46.9,37.3,47.3z"/>
<path fill="#689F38" d="M40.2,49.1c0.4,0,0.8,0,1.2-0.1c0.2-0.1,0.9-0.3,0.3-0.3c-0.5,0-1.1,0-1.6,0.1c-0.4,0.1-0.3,0.3-0.9,0.2
	s-0.7-0.5-1.2-0.4c-0.4,0.1-0.8,0.1-1.2,0c-0.2,0-0.8-0.3-0.8,0s-0.1,0.5,0.4,0.5c0.5,0,1.1,0,1.6,0c0.4,0.1,0.9,0.1,1.3,0.1
	C39.5,49.1,39.9,49.1,40.2,49.1z"/>
<path fill="#689F38" d="M44.5,46.4c0.2,0.1,0.5,0.7,0.8,0.8s0.2,0.1,0.8,0.3s0.8,0.4,0.9,0.8s-0.2,0.6,0,0.5s0.3,0.1,0.7,0.2
	c0.3,0.1,0.6,0.2,0.9,0.3c0.3,0,0.2-0.3,0.3-0.5s0.3,0.2,0.5,0.2s0.6,0.5,0.9,0.8s0.8,0.3,1,0.2s-0.3-0.3-0.6-0.5
	c-0.2-0.3-0.5-0.6-0.7-0.9c0,0,0.3,0,0.3-0.2s-0.6-0.4-0.7-0.8s-2.1-0.8-2.7-1s-0.1,0.2-0.7,0.4s-0.7-0.3-1.2-0.7
	S44.3,46.3,44.5,46.4z"/>
<path fill="#689F38" d="M40.8,41.8c0.1,0.2-0.1,0.3,0.1,0.2c0.1-0.1,0.2-0.2,0.3-0.3h0.3c0,0,0.4,0.2,0.4,0.3s0.2-0.1,0-0.3
	s-0.2-0.3-0.3-0.3h-0.3c-0.1-0.1-0.1-0.2-0.1-0.3c0.1-0.2,0.4-0.4,0.3-0.6s0.2-0.3,0-0.4s-0.4,0-0.5,0s-0.1,0.3-0.2,0.4
	c-0.1,0.1-0.1,0.3-0.2,0.4c-0.1,0.2,0,0.3,0.1,0.5S40.7,41.6,40.8,41.8z"/>
<path fill="#689F38" d="M41.8,43.2c-0.3,0-0.3,0-0.4,0.1s-0.3,0.2-0.3,0.3s0.1,0.1,0.3,0s0.3-0.3,0.4-0.2s0,0.5,0.3,0.6s0.3,0,0.3,0
	v-0.3c0-0.1,0.1-0.3,0.2-0.2s0.3,0.1,0.3-0.1c0-0.2,0-0.4-0.1-0.6c-0.1-0.1-0.2-0.2-0.3-0.2l-0.1,0.2c-0.1,0.2-0.1,0.2-0.3,0.3
	S42,43.2,41.8,43.2z"/>
<path fill="#689F38" d="M40.3,47.4c0,0.1-0.2,0.5,0,0.6s0.3,0.3,0.3,0v-0.9c0.1,0.1,0.2,0.2,0.3,0.3c0.1,0.2,0.1,0.3,0.2,0.3
	s0.2-0.4,0.3-0.3s0.3-0.1,0.3-0.1c-0.2-0.1-0.4-0.3-0.4-0.6c0-0.3,0.1-0.4,0.2-0.3s0.3,0,0.3-0.1s0.5-0.3,0.6-0.6s0-0.3,0-0.3
	s-0.3,0.3-0.3,0.3c-0.2,0.1-0.3,0.1-0.5,0c-0.3-0.1-0.3-0.2-0.5-0.1s-0.3-0.1-0.3,0.2l-0.2,0.5c0,0.1-0.1,0.2-0.1,0.3
	c0,0.2-0.3,0.3-0.2,0.5S40.3,47.3,40.3,47.4z"/>
<path fill="#F8E76B" d="M57.2,46.8c1.4,0.6,3,0,3.6-1.3c0.1-0.3,0.2-0.6,0.2-0.9c0.4-4-2.5-7.6-6.5-8c-0.5,0-0.9-0.1-1.4,0
	c-1.5,0.1-2.6,1.4-2.5,2.9c0,0.3,0.1,0.6,0.2,0.9c0.8,2.7,0.1,5.7-2,7.7c-0.2,0.2-0.5,0.5-0.8,0.7c-0.2,0.2-0.2,0.5,0,0.7
	c0,0,0,0,0,0l0,0c0.2,0.2,0.5,0.2,0.7,0c0,0,0,0,0,0c0.2-0.3,0.5-0.5,0.7-0.8C51.5,46.6,54.5,46,57.2,46.8z"/>
<path fill="#F7931E" d="M48.2,49.7c-0.1,0-0.2-0.1-0.3-0.2c-0.2-0.2-0.2-0.4-0.2-0.6c0-0.2,0.1-0.3,0.2-0.4c0.3-0.2,0.5-0.4,0.8-0.7
	c2-1.9,2.8-4.9,2-7.5c-0.3-0.9-0.2-1.9,0.4-2.8c0.5-0.7,1.3-1.1,2.1-1.2c4.1-0.3,7.7,2.8,8,6.9c0,0.5,0,0.9,0,1.4
	c-0.1,0.9-0.5,1.6-1.2,2.1c-0.8,0.5-1.8,0.6-2.8,0.3l0,0c-2.7-0.9-5.6-0.2-7.6,1.8c-0.2,0.2-0.5,0.5-0.7,0.8
	c-0.1,0.1-0.2,0.2-0.4,0.2C48.4,49.7,48.3,49.7,48.2,49.7z M55.6,37c-0.8-0.2-1.7-0.3-2.5-0.3c-0.8,0-1.4,0.4-1.9,1
	c-0.5,0.7-0.6,1.7-0.3,2.5c0.8,2.8,0,5.8-2.1,7.8c-0.3,0.3-0.5,0.5-0.8,0.7C48,48.8,48,48.9,48,49c0,0.1,0,0.2,0.1,0.3
	c0.1,0.1,0.2,0.1,0.3,0.1c0.1,0,0.1,0,0.2-0.1c0.2-0.3,0.5-0.5,0.7-0.8c2.1-2.1,5.1-2.8,7.9-1.9c0.8,0.3,1.7,0.2,2.5-0.2
	c0.6-0.4,1-1.1,1.1-1.9C61.1,41.1,59,37.9,55.6,37z"/>
<rect x="46.7" y="46.1" transform="matrix(0.7159 -0.6982 0.6982 0.7159 -17.7934 48.8737)" fill="#F7931E" width="8.9" height="0.4"/>
<path fill="#F8E76B" d="M55.1,42.1l0.4,0.4c0,0,0,0.1,0,0.1L54,44.1c0,0-0.1,0-0.1,0l-0.4-0.4c0,0,0-0.1,0-0.1L55,42
	C55,42,55.1,42,55.1,42.1z"/>
<path fill="#F7931E" d="M53.8,44.1c-0.1,0-0.2-0.1-0.2-0.1l-0.1-0.1c-0.2-0.2-0.2-0.5,0-0.7c0,0,0,0,0,0l1.2-1.2
	c0.2-0.2,0.5-0.2,0.7,0l0.1,0.1c0.2,0.2,0.2,0.5,0,0.7c0,0,0,0,0,0L54.3,44c-0.1,0.1-0.2,0.1-0.3,0.1H53.8z M53.8,43.8
	c0.1,0.1,0.2,0.1,0.2,0c0,0,0,0,0,0l1.2-1.2c0,0,0-0.1,0-0.1c0,0,0-0.1,0-0.1l-0.1-0.1c-0.1-0.1-0.2-0.1-0.2,0l-1.2,1.2
	C53.7,43.5,53.7,43.6,53.8,43.8C53.7,43.7,53.7,43.7,53.8,43.8L53.8,43.8z"/>
<path fill="#4CAF50" d="M68.5,38c10.1-9.9,15.4-19.3,13.2-21.5S71,18.4,60.2,28.9c-2,1.9-3.5,4.2-4.3,6.9l5.9,6
	C64.3,41.2,66.6,39.9,68.5,38z"/>
<path fill="#009245" d="M61.7,42l-6-6.2l0.2-0.4c0.8-2.5,2.3-4.8,4.3-6.6c6.4-6.2,11.2-9.4,14-11c3.8-2.1,6.6-2.6,7.7-1.4
	c2.4,2.4-3.7,12.4-13.3,21.7c-1.7,1.8-3.8,3.1-6.2,3.7L61.7,42L61.7,42z M56,35.7l5.8,5.9l0.5-0.2c2.3-0.7,4.4-1.9,6-3.7
	c10.3-10,15.2-19.2,13.2-21.3c-1-1.1-3.7-0.5-7.3,1.5c-5.1,3.1-9.8,6.8-14,11c-1.9,1.8-3.4,4-4.2,6.5L56,35.7z"/>
<path fill="#F8E76B" d="M55.6,35.6l6.3,6.5c0.1,0.1,0.1,0.2,0,0.2l-0.8,0.8c-0.1,0.1-0.2,0.1-0.2,0l-6.3-6.5c-0.1-0.1-0.1-0.2,0-0.2
	l0.8-0.8C55.5,35.5,55.6,35.5,55.6,35.6z"/>
<path fill="#F7931E" d="M60.9,43.1c-0.1,0-0.3-0.1-0.3-0.2L54.8,37c-0.1-0.1-0.2-0.4-0.2-0.6c0-0.2,0.1-0.4,0.2-0.5l0.1-0.1
	c0.1-0.1,0.4-0.2,0.6-0.2c0.2,0,0.4,0.1,0.5,0.2l5.7,5.8c0.1,0.2,0.2,0.4,0.2,0.6c0,0.2-0.1,0.4-0.2,0.5l-0.1,0.1
	c-0.1,0.1-0.4,0.2-0.6,0.2C61,43.1,60.9,43.1,60.9,43.1z M60.7,42.7c0.1,0.1,0.2,0.1,0.3,0.1c0.1,0,0.2-0.1,0.3-0.1l0.1-0.1
	c0.2-0.2,0.2-0.5,0-0.7c0,0,0,0,0,0L55.9,36c-0.2-0.2-0.5-0.2-0.7,0l-0.1,0.1c-0.2,0.2-0.2,0.5,0,0.7c0,0,0,0,0,0L60.7,42.7z"/>
</svg>
