<svg id="文件夹" xmlns="http://www.w3.org/2000/svg" xmlns:xlink="http://www.w3.org/1999/xlink" viewBox="0 0 128 128"><defs><style>.cls-1{fill:url(#未命名的渐变_3);}.cls-2{fill:#fff;}.cls-3{fill:url(#未命名的渐变_2);}</style><linearGradient id="未命名的渐变_3" x1="55.5" y1="18.94" x2="55.5" y2="65" gradientUnits="userSpaceOnUse"><stop offset="0.07" stop-color="#f6af1f"/><stop offset="1" stop-color="#f7d33c"/></linearGradient><linearGradient id="未命名的渐变_2" x1="64" y1="106.32" x2="64" y2="42.07" gradientUnits="userSpaceOnUse"><stop offset="0.03" stop-color="#f1c528"/><stop offset="1" stop-color="#f7d33c"/></linearGradient></defs><title>128</title><g id="白面"><g id="_128" data-name="128"><path class="cls-1" d="M97,23H44.11l-4.25-5.3a2,2,0,0,0-1.6-.7H12.77C10.14,17,8,18.62,8,20.61V72a6,6,0,0,0,6,6H97a6,6,0,0,0,6-6V29A6,6,0,0,0,97,23Z"/><path class="cls-2" d="M19,29H91.92A4.08,4.08,0,0,1,96,33.08V69.92A4.08,4.08,0,0,1,91.92,74H19.08A4.08,4.08,0,0,1,15,69.92V33A4,4,0,0,1,19,29Z"/><path class="cls-3" d="M15,37h98a7,7,0,0,1,7,7v57a10,10,0,0,1-10,10H18A10,10,0,0,1,8,101V44a7,7,0,0,1,7-7Z"/></g></g></svg>