<?xml version="1.0" encoding="utf-8"?>
<!-- Generator: Adobe Illustrator 24.0.0, SVG Export Plug-In . SVG Version: 6.00 Build 0)  -->
<svg version="1.1" id="mail-send" xmlns="http://www.w3.org/2000/svg" xmlns:xlink="http://www.w3.org/1999/xlink" x="0px" y="0px"
	 viewBox="0 0 16 16" style="enable-background:new 0 0 16 16;" xml:space="preserve">
<path style="fill:#808080;enable-background:new    ;" d="M12.5,11c-0.7,0-1.4,0.3-1.9,0.9L5.9,9.3c0.1-0.5,0.1-1,0-1.5l4.7-2.6
	c0.9,1,2.5,1.2,3.5,0.3s1.2-2.5,0.3-3.5c-0.9-1-2.5-1.2-3.5-0.3C10.3,2.1,10,2.8,10,3.5c0,0.3,0,0.5,0.1,0.8L5.4,6.9
	c-0.9-1-2.5-1.2-3.5-0.3s-1.2,2.5-0.3,3.5s2.5,1.2,3.5,0.3c0.1-0.1,0.2-0.2,0.3-0.3l4.7,2.6C10,13,10,13.2,10,13.5
	c0,1.4,1.1,2.5,2.5,2.5s2.5-1.1,2.5-2.5S13.9,11,12.5,11L12.5,11z M11,3.5C11,2.7,11.7,2,12.5,2S14,2.7,14,3.5S13.3,5,12.5,5
	c-0.4,0-0.7-0.1-1-0.4c-0.3-0.2-0.4-0.5-0.5-0.9C11,3.7,11,3.6,11,3.5z M3.5,10C2.7,10,2,9.3,2,8.5S2.7,7,3.5,7c0.4,0,0.7,0.1,1,0.4
	C4.8,7.6,4.9,7.9,5,8.3c0,0.2,0,0.3,0,0.5C4.9,9.1,4.8,9.4,4.5,9.6C4.2,9.9,3.9,10,3.5,10z M12.5,15c-0.8,0-1.5-0.7-1.5-1.5
	c0-0.1,0-0.2,0-0.3c0.1-0.3,0.2-0.6,0.5-0.9c0.3-0.2,0.6-0.4,1-0.4c0.8,0,1.5,0.7,1.5,1.5S13.3,15,12.5,15L12.5,15z"/>
</svg>
