<?xml version="1.0" encoding="utf-8"?>
<!-- Generator: Adobe Illustrator 21.0.0, SVG Export Plug-In . SVG Version: 6.00 Build 0)  -->
<svg version="1.1" id="图层_1" opacity="0.8" xmlns="http://www.w3.org/2000/svg" xmlns:xlink="http://www.w3.org/1999/xlink"
	 x="0px" y="0px" viewBox="0 0 16 16" style="enable-background:new 0 0 16 16;" xml:space="preserve">
<style type="text/css">
	.st0{fill:#1F2022;}
</style>
<g>
	<g>
		<path class="st0" d="M12,1C12,1,12,1,12,1l0,9.9c-0.1,0.2-0.3,0.8-1,2.5c-0.7-1.7-0.9-2.3-1-2.5L10,1c0,0,0,0,0,0H12 M12,0h-2
			C9,0,9,1,9,1v10.1l0,0.1c0.1,0.3,1,2.4,1.5,3.8c0.1,0.2,0.3,0.3,0.5,0.3c0.2,0,0.4-0.1,0.5-0.3c0.6-1.4,1.5-3.7,1.5-3.8l0-0.1V1
			C13,0,12,0,12,0L12,0z"/>
	</g>
	<path class="st0" d="M3,0.5v14C3,14.8,3.2,15,3.5,15h4C7.8,15,8,14.8,8,14.5v-14C8,0.2,7.8,0,7.5,0h-4C3.2,0,3,0.2,3,0.5z M4,1.5
		C4,1.2,4.2,1,4.5,1H7v1H6v1h1v1H6v1h1v1H6v1h1v1H6v1h1v1H6v1h1v1H6v1h1v1H4.5C4.2,14,4,13.8,4,13.5V1.5z"/>
</g>
</svg>
