<?xml version="1.0" encoding="utf-8"?>
<!-- Generator: Adobe Illustrator 21.0.0, SVG Export Plug-In . SVG Version: 6.00 Build 0)  -->
<svg version="1.1" id="图层_1" opacity="0.8" xmlns="http://www.w3.org/2000/svg" xmlns:xlink="http://www.w3.org/1999/xlink"
	 x="0px" y="0px" viewBox="0 0 16 16" style="enable-background:new 0 0 16 16;" xml:space="preserve">
<style type="text/css">
	.st0{fill:#1F2022;}
	.st1{fill:none;stroke:#1F2022;stroke-miterlimit:10;}
</style>
<g>
	<path class="st0" d="M10,3h3v1h-3V3z"/>
	<path class="st1" d="M14.5,4V1.5c0-0.6-0.4-1-1-1h-11c-0.6,0-1,0.4-1,1V4"/>
	<path class="st0" d="M10,13h3v1h-3V13z"/>
	<g>
		<path class="st0" d="M14,12v3H2v-3H14 M14,11H2c-0.6,0-1,0.4-1,1v3c0,0.6,0.4,1,1,1h12c0.6,0,1-0.4,1-1v-3C15,11.4,14.6,11,14,11
			L14,11z"/>
	</g>
</g>
<path class="st0" d="M10,7h3v1h-3V7z"/>
<g>
	<path class="st0" d="M14,6v3H2V6H14 M14,5H2C1.4,5,1,5.4,1,6v3c0,0.6,0.4,1,1,1h12c0.6,0,1-0.4,1-1V6C15,5.4,14.6,5,14,5L14,5z"/>
</g>
</svg>
