<?xml version="1.0" encoding="utf-8"?>
<!-- Generator: Adobe Illustrator 24.0.0, SVG Export Plug-In . SVG Version: 6.00 Build 0)  -->
<svg version="1.1" id="回收站" xmlns="http://www.w3.org/2000/svg" xmlns:xlink="http://www.w3.org/1999/xlink" x="0px" y="0px"
	 viewBox="0 0 96 96" style="enable-background:new 0 0 96 96;" xml:space="preserve">
<style type="text/css">
	.st0{fill:#F9F9F9;}
	.st1{fill:#E2E2E2;}
	.st2{fill:url(#SVGID_1_);}
	.st3{fill:url(#桶口_1_);}
	.st4{fill:#00BB81;}
</style>
<title>96</title>
<g id="_96">
	<g id="桶">
		<path class="st0" d="M30.1,89.3c-5.2,0-9.5-3.8-10.3-8.9l-10-65.6h76.3l-9.9,65.6c-0.7,5.1-5.1,8.9-10.3,8.9H30.1z"/>
		<path class="st1" d="M85.3,15.5l-9.8,64.8c-0.7,4.7-4.8,8.2-9.5,8.2H30.1c-4.8,0-8.9-3.5-9.5-8.2l-9.8-64.8H85.3 M87,14H9
			l10.1,66.5c0.8,5.5,5.5,9.5,11,9.5h35.8c5.5,0,10.2-4.1,11-9.5L87,14z"/>
		<g id="渐变">
			
				<linearGradient id="SVGID_1_" gradientUnits="userSpaceOnUse" x1="48" y1="83.28" x2="48" y2="6" gradientTransform="matrix(1 0 0 -1 0 96)">
				<stop  offset="0.13" style="stop-color:#E6E6E6;stop-opacity:0.2"/>
				<stop  offset="1" style="stop-color:#808080;stop-opacity:0.1"/>
			</linearGradient>
			<path class="st2" d="M87,13L9,12.7l10.1,67.7c0.8,5.5,5.5,9.6,11,9.6h35.8c5.5,0,10.2-4.1,11-9.6L87,13z"/>
		</g>
		
			<linearGradient id="桶口_1_" gradientUnits="userSpaceOnUse" x1="48" y1="90" x2="48" y2="75" gradientTransform="matrix(1 0 0 -1 0 96)">
			<stop  offset="0" style="stop-color:#E5E8EB"/>
			<stop  offset="1" style="stop-color:#C0C3C7"/>
		</linearGradient>
		<ellipse id="桶口" class="st3" cx="48" cy="13.5" rx="39" ry="7.5"/>
	</g>
	<g id="logo">
		<path class="st4" d="M52,56.5l-3.3,5.1l3.1,4.7v-2h2.6c1,0,1.9-0.4,2.6-1.1l4.7-6.2c0.7-0.9,0.8-2.2,0.3-3.2l-2.6-4.9l-6.3,3.3
			l3.5,6c0.1,0.3-0.1,0.5-0.5,0.5H52L52,56.5L52,56.5z"/>
		<path class="st4" d="M43.5,55.8l-3.7-5.5h-7l2.4,1.2L34,53.9c-0.4,0.9-0.3,1.9,0.2,2.8l4.6,6.3c0.7,0.8,1.8,1.3,2.9,1.3h5.5l0-5.7
			h-7.3c-0.2,0-0.4-0.2-0.4-0.4c0-0.1,0-0.2,0.1-0.3l1.9-3.3L43.5,55.8L43.5,55.8z"/>
		<path class="st4" d="M48.5,49.1h7.1l4-6.1l-2.5,1.4l-1.4-2.6c-0.6-1-1.6-1.7-2.8-1.9h-9.3c-1.4,0.1-2.6,0.8-3.3,2l-2.8,5.5
			l6.3,3.4l3.9-6.8c0.3-0.3,0.6-0.3,0.8,0.1l2.2,3.8L48.5,49.1L48.5,49.1z"/>
	</g>
</g>
</svg>
