<svg id="ICONS" xmlns="http://www.w3.org/2000/svg" xmlns:xlink="http://www.w3.org/1999/xlink" viewBox="0 0 128 128"><defs><style>.cls-1{fill:#f9f9f9;}.cls-2{fill:url(#未命名的渐变_7);}.cls-3{fill:url(#未命名的渐变_443);}.cls-4{fill:#00bb81;}</style><linearGradient id="未命名的渐变_7" x1="64" y1="16.96" x2="64" y2="120" gradientUnits="userSpaceOnUse"><stop offset="0.12" stop-color="#e6e6e6" stop-opacity="0.2"/><stop offset="1" stop-color="gray" stop-opacity="0.1"/></linearGradient><linearGradient id="未命名的渐变_443" x1="64" y1="8" x2="64" y2="28.16" gradientUnits="userSpaceOnUse"><stop offset="0" stop-color="#e5e8eb"/><stop offset="1" stop-color="#c0c3c7"/></linearGradient></defs><title>128</title><g id="_128" data-name="128"><path class="cls-1" d="M115,17H13l13.18,90.23A14.74,14.74,0,0,0,40.6,120H87.4a14.74,14.74,0,0,0,14.42-12.81Z"/><path class="cls-2" d="M115,17H13l13.18,90.23A14.74,14.74,0,0,0,40.6,120H87.4a14.74,14.74,0,0,0,14.42-12.81Z"/><ellipse class="cls-3" cx="64" cy="18.08" rx="51" ry="10.08"/><path class="cls-4" d="M69.29,75.62l-4.43,6.79L69,88.64,69,86l3.49,0A5.12,5.12,0,0,0,76,84.39l6.19-8.33a4.09,4.09,0,0,0,.35-4.22L79.1,65.25l-8.32,4.46,4.59,8c.15.41-.15.73-.68.72l-5.46,0,.06-2.84Z"/><path class="cls-4" d="M58,74.56,53.09,67.2l-9.25.06L47,68.91,45.5,72.05a4.23,4.23,0,0,0,.19,3.75l6.1,8.39A5.11,5.11,0,0,0,55.66,86l7.28,0-.06-7.56-9.74,0a.53.53,0,0,1-.43-.86l2.49-4.43L58,74.56Z"/><path class="cls-4" d="M64.73,65.69l9.37-.07,5.27-8.16-3.31,1.86-1.9-3.52a5.11,5.11,0,0,0-3.69-2.49l-12.32-.06a5.48,5.48,0,0,0-4.4,2.67L50,63.21l8.38,4.53,5.14-8.95c.33-.42.83-.34,1.12.17l3,5.09-2.91,1.64Z"/></g></svg>