<svg xmlns="http://www.w3.org/2000/svg" xmlns:xlink="http://www.w3.org/1999/xlink" viewBox="0 0 96 96"><defs><style>.cls-1{fill:#f9f9f9;}.cls-2{fill:#ccc;}.cls-3{fill:url(#未命名的渐变_443);}.cls-4{fill:#00bb81;}</style><linearGradient id="未命名的渐变_443" x1="48" y1="6" x2="48" y2="21.12" gradientUnits="userSpaceOnUse"><stop offset="0" stop-color="#e5e8eb"/><stop offset="1" stop-color="#c0c3c7"/></linearGradient></defs><title>96</title><g id="icon"><g id="回收站-空"><g id="_96" data-name="96"><g id="桶"><g id="垃圾组"><path class="cls-1" d="M30.1,89.78A10.63,10.63,0,0,1,19.58,80.6L9.58,14H86.42l-10,66.6A10.63,10.63,0,0,1,65.9,89.78Z"/><path class="cls-2" d="M85.84,14.5l-9.91,66a10.14,10.14,0,0,1-10,8.75H30.1a10.14,10.14,0,0,1-10-8.75l-9.91-66H85.84m1.16-1H9L19.08,80.67a11.19,11.19,0,0,0,11,9.61H65.9a11.19,11.19,0,0,0,11-9.61L87,13.5Z"/></g><ellipse id="桶口" class="cls-3" cx="48" cy="13.56" rx="39" ry="7.56"/></g><g id="logo"><path class="cls-4" d="M52,56.71l-3.34,5.1,3.09,4.67,0-2,2.64,0a3.91,3.91,0,0,0,2.64-1.14L61.74,57A3,3,0,0,0,62,53.88l-2.6-4.94-6.28,3.34,3.46,6c.12.3-.11.54-.51.54l-4.12,0,0-2.13Z"/><path class="cls-4" d="M43.5,55.92,39.76,50.4l-7,0,2.42,1.24L34,54a3.15,3.15,0,0,0,.15,2.81l4.61,6.29a3.81,3.81,0,0,0,2.91,1.34l5.5,0-.05-5.67-7.35,0a.39.39,0,0,1-.32-.64l1.88-3.32,2.14,1.08Z"/><path class="cls-4" d="M48.55,49.27l7.07-.05,4-6.12-2.5,1.39-1.43-2.64A3.85,3.85,0,0,0,52.89,40l-9.31,0a4.14,4.14,0,0,0-3.32,2l-2.81,5.47,6.33,3.4,3.88-6.72c.25-.31.63-.26.85.13L50.74,48l-2.19,1.24Z"/></g></g></g></g></svg>