<?xml version="1.0" encoding="utf-8"?>
<!-- Generator: Adobe Illustrator 24.0.0, SVG Export Plug-In . SVG Version: 6.00 Build 0)  -->
<svg version="1.1" id="图层_1" xmlns="http://www.w3.org/2000/svg" xmlns:xlink="http://www.w3.org/1999/xlink" x="0px" y="0px"
	 viewBox="0 0 16 16" style="enable-background:new 0 0 16 16;" xml:space="preserve">
<style type="text/css">
	.st0{fill:#808080;}
</style>
<title>b-主文件夹</title>
<g>
	<path class="st0" d="M10,16c-0.6,0-1-0.4-1-1v-3.2c0-0.7-0.1-0.7-0.2-0.7H7.2c0,0-0.1,0-0.2,0C7,11.3,7,11.5,7,11.8V15
		c0,0.6-0.4,1-1,1H3.5C2.7,16,2,15.4,2,14.5c0-0.1,0-0.1,0-0.2V8.5c0-0.2,0.1-0.3,0.2-0.4l5-4C7.6,3.6,8.3,3.6,8.7,4
		c0,0,0.1,0.1,0.1,0.1l0,0l5,4C14,8.2,14,8.4,14,8.5v5.9c-0.1,0.9-0.9,1.7-1.8,1.6H10z M7.2,10.1h1.6c1.2,0,1.2,1.2,1.2,1.7V15h2.2
		c0.4,0,0.8-0.3,0.8-0.6V8.7L8.2,4.9C8.1,4.8,8.1,4.8,8,4.7c0,0-0.1,0.1-0.2,0.2L3,8.7v5.6C3,14.8,3.2,15,3.5,15H6v-3.2
		C6,11.2,6,10.1,7.2,10.1z"/>
	<path class="st0" d="M15.5,7c-0.1,0-0.2,0-0.3-0.1L8,1.1L0.8,6.9c-0.2,0.2-0.5,0.2-0.7,0s-0.2-0.5,0-0.7c0,0,0,0,0.1-0.1l7.5-6
		C7.9,0,8.1,0,8.3,0.1l7.5,6c0.2,0.2,0.3,0.5,0.1,0.7C15.8,6.9,15.7,7,15.5,7z"/>
</g>
</svg>
