<?xml version="1.0" encoding="utf-8"?>
<!-- Generator: Adobe Illustrator 24.0.0, SVG Export Plug-In . SVG Version: 6.00 Build 0)  -->
<svg version="1.1" id="图层_1" xmlns="http://www.w3.org/2000/svg" xmlns:xlink="http://www.w3.org/1999/xlink" x="0px" y="0px"
	 viewBox="0 0 96 96" enable-background="new 0 0 96 96" xml:space="preserve">
<title>96</title>
<g id="icon">
	<g id="回收站-空">
		<g id="_96">
			<g id="桶">
				<g id="垃圾组">
					<path fill="#F9F9F9" d="M30.1,89.8c-5.3,0-9.8-3.9-10.5-9.2L9.6,14h76.8l-10,66.6c-0.7,5.3-5.2,9.2-10.5,9.2H30.1z"/>
					<path fill="#CCCCCC" d="M85.8,14.5l-9.9,66c-0.7,5-5,8.7-10,8.8H30.1c-5,0-9.3-3.8-10-8.8l-9.9-66H85.8 M87,13.5H9l10.1,67.2
						c0.8,5.5,5.5,9.6,11,9.6h35.8c5.5,0,10.2-4.1,11-9.6L87,13.5z"/>
				</g>
				
					<linearGradient id="桶口_1_" gradientUnits="userSpaceOnUse" x1="48" y1="90" x2="48" y2="74.88" gradientTransform="matrix(1 0 0 -1 0 96)">
					<stop  offset="0" style="stop-color:#E5E8EB"/>
					<stop  offset="1" style="stop-color:#C0C3C7"/>
				</linearGradient>
				<ellipse id="桶口" fill="url(#桶口_1_)" cx="48" cy="13.6" rx="39" ry="7.6"/>
			</g>
			<g id="logo">
				<path fill="#00BB81" d="M52,56.7l-3.3,5.1l3.1,4.7v-2h2.6c1,0,1.9-0.4,2.6-1.1l4.7-6.3c0.7-0.9,0.8-2.1,0.3-3.1l-2.6-4.9
					l-6.3,3.3l3.5,6c0.1,0.3-0.1,0.5-0.5,0.5H52L52,56.7L52,56.7z"/>
				<path fill="#00BB81" d="M43.5,55.9l-3.7-5.5h-7l2.4,1.2L34,54c-0.4,0.9-0.3,1.9,0.2,2.8l4.6,6.3c0.7,0.9,1.8,1.3,2.9,1.3h5.5
					l0-5.7h-7.3c-0.2,0-0.4-0.2-0.4-0.4c0-0.1,0-0.2,0.1-0.3l1.9-3.3L43.5,55.9L43.5,55.9z"/>
				<path fill="#00BB81" d="M48.5,49.3l7.1,0l4-6.1l-2.5,1.4l-1.4-2.6c-0.6-1-1.6-1.7-2.8-1.9h-9.3c-1.4,0.1-2.6,0.8-3.3,2l-2.8,5.5
					l6.3,3.4l3.9-6.7c0.3-0.3,0.6-0.3,0.8,0.1l2.2,3.7L48.5,49.3L48.5,49.3z"/>
			</g>
		</g>
	</g>
</g>
</svg>
