<svg id="图层_1" data-name="图层 1" xmlns="http://www.w3.org/2000/svg" viewBox="0 0 16 16"><defs><style>.cls-1{opacity:0.75;}.cls-2{fill:#1f2022;}</style></defs><title>b-视频</title><g class="cls-1"><path class="cls-2" d="M13.5,2A1.5,1.5,0,0,1,15,3.5v9A1.5,1.5,0,0,1,13.5,14H2.5A1.5,1.5,0,0,1,1,12.5v-9A1.5,1.5,0,0,1,2.5,2h11m0-1H2.5A2.5,2.5,0,0,0,0,3.5v9A2.5,2.5,0,0,0,2.5,15h11A2.5,2.5,0,0,0,16,12.5v-9A2.5,2.5,0,0,0,13.5,1Z"/><path class="cls-2" d="M10.82,7.6,6.73,5A.48.48,0,0,0,6,5.4v5.2a.48.48,0,0,0,.73.4l4.09-2.6A.47.47,0,0,0,10.82,7.6Z"/></g></svg>