<?xml version="1.0" encoding="utf-8"?>
<!-- Generator: Adobe Illustrator 21.0.0, SVG Export Plug-In . SVG Version: 6.00 Build 0)  -->
<svg version="1.1" id="图层_1" xmlns="http://www.w3.org/2000/svg" xmlns:xlink="http://www.w3.org/1999/xlink" x="0px" y="0px"
	 viewBox="0 0 16 16" enable-background="new 0 0 16 16" xml:space="preserve">
<g id="_16">
	<polygon fill="#FFFFFF" points="6,3 10,3 8,6 	"/>
	<path fill="#FFFFFF" d="M14,0h-1.1H3H2v1h1C2.8,4.1,3.4,5.5,5.9,7.3C6.5,7.7,6.6,7.9,6.6,8c0,0.1-0.1,0.3-0.7,0.8
		c-3.3,2.5-3.5,4.6-3,6.3H2v1h1.2h9.7H14v-1h-0.8c0.4-1.8-0.2-3.5-3.6-6.6C9.4,8.3,9.4,8.2,9.4,8.2c0-0.1,0.1-0.4,0.9-1.1
		C12.2,5.6,13.2,3.3,13,1h1V0z M9.7,6.3C8.8,7.1,8.4,7.6,8.4,8.2c0,0.4,0.2,0.7,0.5,1c3,2.7,3.6,4.1,3.4,5.3C11.6,13.6,10,13,8,13
		c-2,0-3.6,0.6-4.3,1.4c-0.2-1.1,0.1-2.8,2.8-4.9C7,9.1,7.6,8.6,7.6,7.9c0-0.7-0.6-1.1-1.1-1.5C4.3,4.9,3.7,3.8,4,1h8.1
		C12.2,3,11.3,5,9.7,6.3z"/>
</g>
</svg>
