<?xml version="1.0" encoding="iso-8859-1"?>
<!-- Generator: Adobe Illustrator 21.0.0, SVG Export Plug-In . SVG Version: 6.00 Build 0)  -->
<svg version="1.1" id="&#x56FE;&#x5C42;_1" xmlns="http://www.w3.org/2000/svg" xmlns:xlink="http://www.w3.org/1999/xlink" x="0px"
	 y="0px" viewBox="0 0 24 24" style="enable-background:new 0 0 24 24;" xml:space="preserve">
<title>画板 24</title>
<g id="&#x5176;&#x4ED6;">
	<g id="&#x8033;&#x9EA6;">
		<g id="_24">
			
				<linearGradient id="SVGID_1_" gradientUnits="userSpaceOnUse" x1="15.43" y1="3.45" x2="8.44" y2="24.95" gradientTransform="matrix(1 0 0 -1 0 26)">
				<stop  offset="0" style="stop-color:#4DD0E1"/>
				<stop  offset="0.94" style="stop-color:#1976D2"/>
			</linearGradient>
			<path style="fill:url(#SVGID_1_);" d="M12,22.75C6.063,22.75,1.25,17.937,1.25,12S6.063,1.25,12,1.25S22.75,6.063,22.75,12
				C22.744,17.935,17.935,22.744,12,22.75z"/>
			<path style="fill:#455A64;" d="M12,1.5c5.799,0,10.5,4.701,10.5,10.5S17.799,22.5,12,22.5S1.5,17.799,1.5,12S6.201,1.5,12,1.5
				 M12,1C5.925,1,1,5.925,1,12s4.925,11,11,11s11-4.925,11-11S18.075,1,12,1z"/>
			<path style="opacity:0.2;enable-background:new    ;" d="M18.12,13.25c0.014-1.416-0.946-2.658-2.32-3
				c-0.045-0.617-0.193-1.222-0.44-1.79C14.78,7.134,13.446,6.3,12,6.36c-1.453-0.055-2.789,0.793-3.36,2.13
				C8.393,9.058,8.245,9.663,8.2,10.28c-1.625,0.465-2.564,2.16-2.099,3.784c0.366,1.276,1.512,2.171,2.839,2.216v-5.71
				c0.019-0.606,0.151-1.203,0.39-1.76C9.75,7.72,10.835,7.033,12,7.12c1.165-0.087,2.25,0.6,2.67,1.69
				c0.239,0.557,0.371,1.154,0.39,1.76v5.74c0.284-0.001,0.567-0.041,0.84-0.12c-0.025,0.173-0.098,0.336-0.21,0.47
				c-0.144,0.147-0.345,0.224-0.55,0.21h-1.42c-0.138-0.187-0.357-0.298-0.59-0.3h-1.48c-0.414,0-0.75,0.336-0.75,0.75l0,0
				c0,0.414,0.336,0.75,0.75,0.75h1.48c0.293-0.001,0.559-0.173,0.68-0.44h1.33c0.424,0.004,0.831-0.17,1.12-0.48
				c0.301-0.372,0.454-0.842,0.43-1.32l0,0C17.577,15.272,18.117,14.298,18.12,13.25z"/>
			
				<linearGradient id="SVGID_2_" gradientUnits="userSpaceOnUse" x1="12.051" y1="20.0732" x2="12.051" y2="8.36" gradientTransform="matrix(1 0 0 -1 0 26)">
				<stop  offset="0.38" style="stop-color:#FFFFFF"/>
				<stop  offset="1" style="stop-color:#CCCCCC"/>
			</linearGradient>
			<path style="fill:url(#SVGID_2_);" d="M18.12,12.81c0.014-1.416-0.946-2.658-2.32-3c-0.045-0.617-0.193-1.222-0.44-1.79
				C14.777,6.698,13.443,5.869,12,5.93c-1.451-0.056-2.786,0.786-3.36,2.12C8.392,8.621,8.243,9.229,8.2,9.85
				c-1.625,0.465-2.564,2.16-2.099,3.784c0.366,1.276,1.512,2.171,2.839,2.216v-5.72c0.019-0.606,0.151-1.203,0.39-1.76
				C9.753,7.284,10.837,6.602,12,6.69c1.165-0.087,2.25,0.6,2.67,1.69c0.239,0.557,0.371,1.154,0.39,1.76v5.74
				c0.284-0.001,0.567-0.041,0.84-0.12c-0.025,0.173-0.098,0.336-0.21,0.47c-0.144,0.147-0.345,0.224-0.55,0.21h-1.42
				c-0.138-0.187-0.357-0.298-0.59-0.3h-1.48c-0.414,0-0.75,0.336-0.75,0.75l0,0c0,0.414,0.336,0.75,0.75,0.75h1.48
				c0.293-0.001,0.559-0.173,0.68-0.44h1.33c0.424,0.004,0.831-0.17,1.12-0.48c0.301-0.372,0.454-0.842,0.43-1.32l0,0
				C17.58,14.84,18.12,13.862,18.12,12.81z"/>
			<ellipse style="opacity:0.24;fill:#FFFFFF;enable-background:new    ;" cx="11.94" cy="8.3" rx="7.93" ry="5.96"/>
		</g>
	</g>
</g>
<g id="&#x89C4;&#x8303;">
	<rect x="-54.67" y="-32.3" style="fill:none;stroke:#FF0000;stroke-miterlimit:10;" width="90.61" height="84.25"/>
</g>
</svg>
