<svg xmlns="http://www.w3.org/2000/svg" xmlns:xlink="http://www.w3.org/1999/xlink" viewBox="0 0 24 24"><defs><style>.cls-1{fill:url(#未命名的渐变_51);}.cls-2{fill:#455a64;}.cls-3{opacity:0.2;}.cls-4{fill:url(#linear-gradient);}.cls-5{fill:#fff;opacity:0.24;}.cls-6{fill:none;stroke:red;stroke-miterlimit:10;}</style><linearGradient id="未命名的渐变_51" x1="15.43" y1="22.55" x2="8.44" y2="1.05" gradientUnits="userSpaceOnUse"><stop offset="0" stop-color="#4dd0e1"/><stop offset="0.94" stop-color="#1976d2"/></linearGradient><linearGradient id="linear-gradient" x1="12" y1="5.93" x2="12" y2="17.64" gradientUnits="userSpaceOnUse"><stop offset="0.38" stop-color="#fff"/><stop offset="1" stop-color="#ccc"/></linearGradient></defs><title>画板 24</title><g id="其他"><g id="耳麦"><g id="_24" data-name="24"><path class="cls-1" d="M12,22.75A10.75,10.75,0,1,1,22.75,12,10.76,10.76,0,0,1,12,22.75Z"/><path class="cls-2" d="M12,1.5A10.5,10.5,0,1,1,1.5,12,10.5,10.5,0,0,1,12,1.5M12,1A11,11,0,1,0,23,12,11,11,0,0,0,12,1Z"/><path class="cls-3" d="M18.12,13.25a3.06,3.06,0,0,0-2.32-3,5.48,5.48,0,0,0-.44-1.79A3.51,3.51,0,0,0,12,6.36,3.51,3.51,0,0,0,8.64,8.49a5.48,5.48,0,0,0-.44,1.79,3.06,3.06,0,0,0,.74,6V10.57a4.85,4.85,0,0,1,.39-1.76A2.65,2.65,0,0,1,12,7.12a2.65,2.65,0,0,1,2.67,1.69,4.85,4.85,0,0,1,.39,1.76v5.74a3.06,3.06,0,0,0,.84-.12.94.94,0,0,1-.21.47.7.7,0,0,1-.55.21H13.72a.74.74,0,0,0-.59-.3H11.65a.75.75,0,0,0-.75.75h0a.75.75,0,0,0,.75.75h1.48a.75.75,0,0,0,.68-.44h1.33a1.51,1.51,0,0,0,1.12-.48,1.94,1.94,0,0,0,.43-1.32h0A3.06,3.06,0,0,0,18.12,13.25Z"/><path class="cls-4" d="M18.12,12.81a3.06,3.06,0,0,0-2.32-3,5.48,5.48,0,0,0-.44-1.79A3.51,3.51,0,0,0,12,5.93,3.51,3.51,0,0,0,8.64,8.05,5.48,5.48,0,0,0,8.2,9.85a3.06,3.06,0,0,0,.74,6V10.13a4.85,4.85,0,0,1,.39-1.76A2.65,2.65,0,0,1,12,6.69a2.65,2.65,0,0,1,2.67,1.69,4.85,4.85,0,0,1,.39,1.76v5.74a3.06,3.06,0,0,0,.84-.12.94.94,0,0,1-.21.47.7.7,0,0,1-.55.21H13.72a.74.74,0,0,0-.59-.3H11.65a.75.75,0,0,0-.75.75h0a.75.75,0,0,0,.75.75h1.48a.75.75,0,0,0,.68-.44h1.33a1.51,1.51,0,0,0,1.12-.48,1.94,1.94,0,0,0,.43-1.32h0A3.06,3.06,0,0,0,18.12,12.81Z"/><ellipse class="cls-5" cx="11.94" cy="8.3" rx="7.93" ry="5.96"/></g></g></g><g id="规范"><rect class="cls-6" x="-54.67" y="-32.3" width="90.61" height="84.25"/></g></svg>