<svg xmlns="http://www.w3.org/2000/svg" xmlns:xlink="http://www.w3.org/1999/xlink" viewBox="0 0 24 24"><defs><style>.cls-1{fill:#455a64;}.cls-2{fill:url(#linear-gradient);}.cls-15,.cls-16,.cls-3,.cls-4{fill-rule:evenodd;}.cls-3{fill:url(#linear-gradient-2);}.cls-4{fill:url(#linear-gradient-3);}.cls-5{fill:url(#linear-gradient-4);}.cls-6{fill:url(#linear-gradient-5);}.cls-7{fill:url(#linear-gradient-6);}.cls-8{fill:#fff;opacity:0.24;}.cls-14,.cls-15,.cls-16,.cls-8{isolation:isolate;}.cls-9{fill:url(#linear-gradient-7);}.cls-10{fill:url(#GradientFill_77);}.cls-11{fill:url(#linear-gradient-8);}.cls-12{fill:url(#linear-gradient-9);}.cls-13{fill:url(#linear-gradient-10);}.cls-15{fill:#33691e;}.cls-16{fill:#dcedc8;}.cls-17{fill:none;stroke:red;stroke-miterlimit:10;}</style><linearGradient id="linear-gradient" x1="5.96" y1="22.13" x2="18.09" y2="22.13" gradientUnits="userSpaceOnUse"><stop offset="0" stop-color="#adc1c9"/><stop offset="1" stop-color="#6c91a3"/></linearGradient><linearGradient id="linear-gradient-2" x1="9.33" y1="2.16" x2="14.69" y2="2.16" gradientUnits="userSpaceOnUse"><stop offset="0" stop-color="#cde0e8"/><stop offset="1" stop-color="#90a4ae"/></linearGradient><linearGradient id="linear-gradient-3" x1="9.33" y1="2.33" x2="14.69" y2="2.33" xlink:href="#linear-gradient"/><linearGradient id="linear-gradient-4" x1="5.96" y1="3.34" x2="18.09" y2="3.34" xlink:href="#linear-gradient"/><linearGradient id="linear-gradient-5" x1="6.21" y1="2.84" x2="17.8" y2="2.84" xlink:href="#linear-gradient-2"/><linearGradient id="linear-gradient-6" x1="12" y1="21.55" x2="12" y2="4.04" gradientUnits="userSpaceOnUse"><stop offset="0.24" stop-color="#689f38"/><stop offset="0.94" stop-color="#8bc34a"/></linearGradient><linearGradient id="linear-gradient-7" x1="5.96" y1="21.63" x2="18.04" y2="21.63" gradientUnits="userSpaceOnUse"><stop offset="0" stop-color="#dce775"/><stop offset="1" stop-color="#aed581"/></linearGradient><linearGradient id="GradientFill_77" x1="5.96" y1="21.76" x2="18.04" y2="21.76" gradientUnits="userSpaceOnUse"><stop offset="0" stop-color="#f6f7f7"/><stop offset="0.12" stop-color="#dedede"/><stop offset="0.24" stop-color="#f5f4f4"/><stop offset="0.56" stop-color="#f5f4f4"/><stop offset="0.61" stop-color="#e1e3df"/><stop offset="0.88" stop-color="#9f9e9b"/><stop offset="0.92" stop-color="#ced1cd"/><stop offset="1" stop-color="#f6f7f7"/></linearGradient><linearGradient id="linear-gradient-8" x1="5.96" y1="21.76" x2="18.04" y2="21.76" xlink:href="#linear-gradient-2"/><linearGradient id="linear-gradient-9" x1="5.96" y1="3.96" x2="18.04" y2="3.96" gradientUnits="userSpaceOnUse"><stop offset="0" stop-color="#90a4ae"/><stop offset="1" stop-color="#607d8b"/></linearGradient><linearGradient id="linear-gradient-10" x1="5.96" y1="4.07" x2="18.04" y2="4.07" xlink:href="#linear-gradient-7"/></defs><title>画板 24</title><g id="其他"><g id="电池"><path class="cls-1" d="M18,2.29H15.14V1.77A.85.85,0,0,0,14.22,1H9.78a.85.85,0,0,0-.92.77v.52H5.49V23h13V2.29Z"/><rect class="cls-2" x="5.96" y="21.75" width="12.07" height="0.77"/><path class="cls-3" d="M14.22,1.48H9.78c-.24,0-.45.13-.45.29V2.83h5.33V1.77C14.67,1.61,14.47,1.48,14.22,1.48Z"/><path class="cls-4" d="M14.22,1.65H9.78c-.24,0-.45.13-.45.29V3h5.33V1.94C14.67,1.78,14.47,1.65,14.22,1.65Z"/><rect class="cls-5" x="5.96" y="2.77" width="12.07" height="1.12"/><rect class="cls-6" x="5.96" y="2.77" width="12.07" height="0.14"/><rect class="cls-7" x="5.96" y="3.98" width="12.07" height="17.71"/><rect class="cls-8" x="8.28" y="2.77" width="3.15" height="19.75"/><rect class="cls-8" x="10.16" y="1.48" width="2.04" height="1.29"/><rect class="cls-9" x="5.96" y="21.57" width="12.07" height="0.13"/><rect class="cls-10" x="5.96" y="21.7" width="12.07" height="0.13"/><rect class="cls-11" x="5.96" y="21.7" width="12.07" height="0.13"/><rect class="cls-12" x="5.96" y="3.9" width="12.07" height="0.13"/><rect class="cls-13" x="5.96" y="4.01" width="12.07" height="0.13"/><g class="cls-14"><polygon class="cls-15" points="12.4 5.5 13.85 6.95 10.95 6.95 12.4 5.5"/><polygon class="cls-15" points="12.08 8.1 12.72 8.1 12.72 9.61 14.22 9.61 14.22 10.25 12.72 10.25 12.72 11.75 12.08 11.75 12.08 10.25 10.57 10.25 10.57 9.61 12.08 9.61 12.08 8.1"/></g><polygon class="cls-16" points="11.97 5.09 13.42 6.54 10.53 6.54 11.97 5.09"/><polygon class="cls-16" points="11.65 7.69 12.29 7.69 12.29 9.2 13.8 9.2 13.8 9.84 12.29 9.84 12.29 11.34 11.65 11.34 11.65 9.84 10.15 9.84 10.15 9.2 11.65 9.2 11.65 7.69"/></g></g><g id="规范"><rect class="cls-17" x="-54.67" y="-32.3" width="90.61" height="84.25"/></g></svg>