<?xml version="1.0" encoding="iso-8859-1"?>
<!-- Generator: Adobe Illustrator 21.0.0, SVG Export Plug-In . SVG Version: 6.00 Build 0)  -->
<svg version="1.1" id="&#x56FE;&#x5C42;_1" xmlns="http://www.w3.org/2000/svg" xmlns:xlink="http://www.w3.org/1999/xlink" x="0px"
	 y="0px" viewBox="0 0 24 24" style="enable-background:new 0 0 24 24;" xml:space="preserve">
<title>画板 24</title>
<g id="&#x5176;&#x4ED6;">
	<g id="&#x7535;&#x6C60;">
		<path style="fill:#455A64;" d="M18,2.29h-2.86V1.77C15.098,1.304,14.686,0.96,14.22,1H9.78C9.314,0.96,8.902,1.304,8.86,1.77v0.52
			H5.49V23h13V2.29H18z"/>
		
			<linearGradient id="SVGID_1_" gradientUnits="userSpaceOnUse" x1="5.96" y1="3.865" x2="18.09" y2="3.865" gradientTransform="matrix(1 0 0 -1 0 26)">
			<stop  offset="0" style="stop-color:#ADC1C9"/>
			<stop  offset="1" style="stop-color:#6C91A3"/>
		</linearGradient>
		<rect x="5.96" y="21.75" style="fill:url(#SVGID_1_);" width="12.07" height="0.77"/>
		
			<linearGradient id="SVGID_2_" gradientUnits="userSpaceOnUse" x1="9.33" y1="23.845" x2="14.69" y2="23.845" gradientTransform="matrix(1 0 0 -1 0 26)">
			<stop  offset="0" style="stop-color:#CDE0E8"/>
			<stop  offset="1" style="stop-color:#90A4AE"/>
		</linearGradient>
		<path style="fill:url(#SVGID_2_);" d="M14.22,1.48H9.78c-0.24,0-0.45,0.13-0.45,0.29v1.06h5.33V1.77
			C14.67,1.61,14.47,1.48,14.22,1.48z"/>
		
			<linearGradient id="SVGID_3_" gradientUnits="userSpaceOnUse" x1="9.33" y1="23.675" x2="14.69" y2="23.675" gradientTransform="matrix(1 0 0 -1 0 26)">
			<stop  offset="0" style="stop-color:#ADC1C9"/>
			<stop  offset="1" style="stop-color:#6C91A3"/>
		</linearGradient>
		<path style="fill:url(#SVGID_3_);" d="M14.22,1.65H9.78c-0.24,0-0.45,0.13-0.45,0.29V3h5.33V1.94
			C14.67,1.78,14.47,1.65,14.22,1.65z"/>
		
			<linearGradient id="SVGID_4_" gradientUnits="userSpaceOnUse" x1="5.96" y1="22.67" x2="18.09" y2="22.67" gradientTransform="matrix(1 0 0 -1 0 26)">
			<stop  offset="0" style="stop-color:#ADC1C9"/>
			<stop  offset="1" style="stop-color:#6C91A3"/>
		</linearGradient>
		<rect x="5.96" y="2.77" style="fill:url(#SVGID_4_);" width="12.07" height="1.12"/>
		
			<linearGradient id="SVGID_5_" gradientUnits="userSpaceOnUse" x1="6.21" y1="23.16" x2="17.8" y2="23.16" gradientTransform="matrix(1 0 0 -1 0 26)">
			<stop  offset="0" style="stop-color:#CDE0E8"/>
			<stop  offset="1" style="stop-color:#90A4AE"/>
		</linearGradient>
		<rect x="5.96" y="2.77" style="fill:url(#SVGID_5_);" width="12.07" height="0.14"/>
		
			<linearGradient id="SVGID_6_" gradientUnits="userSpaceOnUse" x1="11.995" y1="4.45" x2="11.995" y2="21.96" gradientTransform="matrix(1 0 0 -1 0 26)">
			<stop  offset="0.24" style="stop-color:#689F38"/>
			<stop  offset="0.94" style="stop-color:#8BC34A"/>
		</linearGradient>
		<rect x="5.96" y="3.98" style="fill:url(#SVGID_6_);" width="12.07" height="17.71"/>
		<rect x="8.28" y="2.77" style="opacity:0.24;fill:#FFFFFF;enable-background:new    ;" width="3.15" height="19.75"/>
		<rect x="10.16" y="1.48" style="opacity:0.24;fill:#FFFFFF;enable-background:new    ;" width="2.04" height="1.29"/>
		
			<linearGradient id="SVGID_7_" gradientUnits="userSpaceOnUse" x1="5.96" y1="4.365" x2="18.03" y2="4.365" gradientTransform="matrix(1 0 0 -1 0 26)">
			<stop  offset="0" style="stop-color:#DCE775"/>
			<stop  offset="1" style="stop-color:#AED581"/>
		</linearGradient>
		<rect x="5.96" y="21.57" style="fill:url(#SVGID_7_);" width="12.07" height="0.13"/>
		
			<linearGradient id="SVGID_8_" gradientUnits="userSpaceOnUse" x1="5.96" y1="4.235" x2="18.03" y2="4.235" gradientTransform="matrix(1 0 0 -1 0 26)">
			<stop  offset="0" style="stop-color:#F6F7F7"/>
			<stop  offset="0.12" style="stop-color:#DEDEDE"/>
			<stop  offset="0.24" style="stop-color:#F5F4F4"/>
			<stop  offset="0.56" style="stop-color:#F5F4F4"/>
			<stop  offset="0.61" style="stop-color:#E1E3DF"/>
			<stop  offset="0.88" style="stop-color:#9F9E9B"/>
			<stop  offset="0.92" style="stop-color:#CED1CD"/>
			<stop  offset="1" style="stop-color:#F6F7F7"/>
		</linearGradient>
		<rect x="5.96" y="21.7" style="fill:url(#SVGID_8_);" width="12.07" height="0.13"/>
		
			<linearGradient id="SVGID_9_" gradientUnits="userSpaceOnUse" x1="5.96" y1="4.235" x2="18.03" y2="4.235" gradientTransform="matrix(1 0 0 -1 0 26)">
			<stop  offset="0" style="stop-color:#CDE0E8"/>
			<stop  offset="1" style="stop-color:#90A4AE"/>
		</linearGradient>
		<rect x="5.96" y="21.7" style="fill:url(#SVGID_9_);" width="12.07" height="0.13"/>
		
			<linearGradient id="SVGID_10_" gradientUnits="userSpaceOnUse" x1="5.96" y1="22.035" x2="18.03" y2="22.035" gradientTransform="matrix(1 0 0 -1 0 26)">
			<stop  offset="0" style="stop-color:#90A4AE"/>
			<stop  offset="1" style="stop-color:#607D8B"/>
		</linearGradient>
		<rect x="5.96" y="3.9" style="fill:url(#SVGID_10_);" width="12.07" height="0.13"/>
		
			<linearGradient id="SVGID_11_" gradientUnits="userSpaceOnUse" x1="5.96" y1="21.925" x2="18.03" y2="21.925" gradientTransform="matrix(1 0 0 -1 0 26)">
			<stop  offset="0" style="stop-color:#DCE775"/>
			<stop  offset="1" style="stop-color:#AED581"/>
		</linearGradient>
		<rect x="5.96" y="4.01" style="fill:url(#SVGID_11_);" width="12.07" height="0.13"/>
		<g>
			<polygon style="fill:#33691E;" points="12.4,5.5 13.85,6.95 10.95,6.95 			"/>
			<polygon style="fill:#33691E;" points="12.08,8.1 12.72,8.1 12.72,9.61 14.22,9.61 14.22,10.25 12.72,10.25 12.72,11.75 
				12.08,11.75 12.08,10.25 10.57,10.25 10.57,9.61 12.08,9.61 			"/>
		</g>
		<polygon style="fill:#DCEDC8;" points="11.97,5.09 13.42,6.54 10.53,6.54 		"/>
		<polygon style="fill:#DCEDC8;" points="11.65,7.69 12.29,7.69 12.29,9.2 13.8,9.2 13.8,9.84 12.29,9.84 12.29,11.34 11.65,11.34 
			11.65,9.84 10.15,9.84 10.15,9.2 11.65,9.2 		"/>
	</g>
</g>
<g id="&#x89C4;&#x8303;">
	<rect x="-54.67" y="-32.3" style="fill:none;stroke:#FF0000;stroke-miterlimit:10;" width="90.61" height="84.25"/>
</g>
</svg>
