<?xml version="1.0" encoding="utf-8"?>
<!-- Generator: Adobe Illustrator 18.0.0, SVG Export Plug-In . SVG Version: 6.00 Build 0)  -->
<!DOCTYPE svg PUBLIC "-//W3C//DTD SVG 1.1//EN" "http://www.w3.org/Graphics/SVG/1.1/DTD/svg11.dtd">
<svg version="1.1" xmlns="http://www.w3.org/2000/svg" xmlns:xlink="http://www.w3.org/1999/xlink" x="0px" y="0px"
	 viewBox="1111 0 24 24" enable-background="new 1111 0 24 24" xml:space="preserve">
<g id="svg2" xmlns:sodipodi="http://sodipodi.sourceforge.net/DTD/sodipodi-0.dtd" xmlns:svg="http://www.w3.org/2000/svg" xmlns:dc="http://purl.org/dc/elements/1.1/" xmlns:inkscape="http://www.inkscape.org/namespaces/inkscape" xmlns:rdf="http://www.w3.org/1999/02/22-rdf-syntax-ns#" xmlns:cc="http://creativecommons.org/ns#" inkscape:version="0.48.4 r9939" sodipodi:docname="computer.svg">
	<g id="电脑" display="none">
		<g display="inline">
			<path fill="#212121" d="M1116.9,21.2c-0.6,0-1-0.4-1-1v-1.3h4v-1.1h-7.9v-15h22v15h-7.9v1.1h4v1.3c0,0.6-0.4,1-1,1H1116.9z"/>
			<g>
				<linearGradient id="rect3008_69_" gradientUnits="userSpaceOnUse" x1="1122.999" y1="4.5474" x2="1122.999" y2="15.5386">
					<stop  offset="0" style="stop-color:#B3E5FC"/>
					<stop  offset="1" style="stop-color:#0288D1"/>
				</linearGradient>
				<rect id="rect3008_3_" x="1113.8" y="4.5" fill="url(#rect3008_69_)" width="18.4" height="11"/>
				<path fill="#455A64" d="M1129.1,19.4h-12.2h-0.5v0.5v0.3c0,0.3,0.2,0.5,0.5,0.5h12.2c0.3,0,0.5-0.2,0.5-0.5v-0.3v-0.5H1129.1z"
					/>
				<rect x="1120.4" y="17.2" fill="#1D272B" width="5.3" height="2.2"/>
				<linearGradient id="SVGID_1_" gradientUnits="userSpaceOnUse" x1="1123" y1="3.2856" x2="1123" y2="17.314">
					<stop  offset="0" style="stop-color:#455A64"/>
					<stop  offset="1" style="stop-color:#263238"/>
				</linearGradient>
				<path fill="url(#SVGID_1_)" d="M1112.5,3.3v14h21v-14H1112.5z M1132.2,15.5h-18.4v-11h18.4V15.5z"/>
				<path id="rect3008-0_5_" opacity="0.2318" fill="#EEE8D5" enable-background="new    " d="M1125.4,4.5l-4.8,11h11.6v-11H1125.4z
					"/>
			</g>
		</g>
	</g>
	<g id="电脑_1_" display="none">
		<g display="inline">
			<path fill="#263238" d="M1116.9,21.2c-0.6,0-1-0.4-1-1v-1.3h4v-1.1h-7.9v-15h22v15h-7.9v1.1h4v1.3c0,0.6-0.4,1-1,1H1116.9z"/>
			<g>
				<linearGradient id="rect3008_70_" gradientUnits="userSpaceOnUse" x1="1122.999" y1="4.5474" x2="1122.999" y2="15.5386">
					<stop  offset="0" style="stop-color:#B3E5FC"/>
					<stop  offset="1" style="stop-color:#0288D1"/>
				</linearGradient>
				<rect id="rect3008_38_" x="1113.8" y="4.5" fill="url(#rect3008_70_)" width="18.4" height="11"/>
				<path fill="#90A4AE" d="M1129.1,19.4h-12.2h-0.5v0.5v0.3c0,0.3,0.2,0.5,0.5,0.5h12.2c0.3,0,0.5-0.2,0.5-0.5v-0.3v-0.5H1129.1z"
					/>
				<rect x="1120.4" y="17.2" fill="#293A3F" width="5.3" height="2.2"/>
				<linearGradient id="SVGID_2_" gradientUnits="userSpaceOnUse" x1="1123" y1="3.2856" x2="1123" y2="17.314">
					<stop  offset="0" style="stop-color:#607D8B"/>
					<stop  offset="1" style="stop-color:#455A64"/>
				</linearGradient>
				<path fill="url(#SVGID_2_)" d="M1112.5,3.3v14h21v-14H1112.5z M1132.2,15.5h-18.4v-11h18.4V15.5z"/>
				<path id="rect3008-0_29_" opacity="0.2318" fill="#EEE8D5" enable-background="new    " d="M1125.4,4.5l-4.8,11h11.6v-11H1125.4
					z"/>
			</g>
		</g>
	</g>
	<g id="显示器_1_" display="none">
		<g display="inline">
			<g>
				<path fill="#212121" d="M1116.9,21.2c-0.6,0-1-0.4-1-1v-1.3h4v-1.1h-7.9v-15h22v15h-7.9v1.1h4v1.3c0,0.6-0.4,1-1,1H1116.9z"/>
				<g>
					<linearGradient id="rect3008_71_" gradientUnits="userSpaceOnUse" x1="1122.999" y1="4.5474" x2="1122.999" y2="15.5386">
						<stop  offset="0" style="stop-color:#B3E5FC"/>
						<stop  offset="1" style="stop-color:#0288D1"/>
					</linearGradient>
					<rect id="rect3008_19_" x="1113.8" y="4.5" fill="url(#rect3008_71_)" width="18.4" height="11"/>
					<path fill="#455A64" d="M1129.1,19.4h-12.2h-0.5v0.5v0.3c0,0.3,0.2,0.5,0.5,0.5h12.2c0.3,0,0.5-0.2,0.5-0.5v-0.3v-0.5H1129.1z"
						/>
					<rect x="1120.4" y="17.2" fill="#1D272B" width="5.3" height="2.2"/>
					<linearGradient id="SVGID_3_" gradientUnits="userSpaceOnUse" x1="1123" y1="3.2856" x2="1123" y2="17.314">
						<stop  offset="0" style="stop-color:#455A64"/>
						<stop  offset="1" style="stop-color:#263238"/>
					</linearGradient>
					<path fill="url(#SVGID_3_)" d="M1112.5,3.3v14h21v-14H1112.5z M1132.2,15.5h-18.4v-11h18.4V15.5z"/>
					<path id="rect3008-0_12_" opacity="0.2318" fill="#EEE8D5" enable-background="new    " d="M1125.4,4.5l-4.8,11h11.6v-11
						H1125.4z"/>
				</g>
			</g>
			<g>
				<polyline fill="none" stroke="#FFFFFF" stroke-miterlimit="10" points="1117.6,6.2 1116,6.2 1116,7.9 				"/>
				<polyline fill="none" stroke="#FFFFFF" stroke-miterlimit="10" points="1128.4,6.2 1130,6.2 1130,7.9 				"/>
				<polyline fill="none" stroke="#FFFFFF" stroke-miterlimit="10" points="1117.6,13.9 1116,13.9 1116,12.2 				"/>
				<polyline fill="none" stroke="#FFFFFF" stroke-miterlimit="10" points="1128.4,13.9 1130,13.9 1130,12.2 				"/>
			</g>
		</g>
	</g>
	<g id="网络" display="none">
		<g display="inline">
			<path fill="#212121" d="M1117.2,23v-2.8h4.4v-2.3h-4.2c-0.5,0-1-0.4-1-1v-1.3h3.6v-0.9h-7.2V1h20.2v13.8h-7.2v0.9h3.6V17
				c0,0.5-0.4,1-1,1h-4.1v2.3h4.3V23H1117.2z"/>
			<g>
				<g>
					<linearGradient id="rect3008_72_" gradientUnits="userSpaceOnUse" x1="1122.999" y1="2.6538" x2="1122.999" y2="12.7031">
						<stop  offset="0" style="stop-color:#B3E5FC"/>
						<stop  offset="1" style="stop-color:#0288D1"/>
					</linearGradient>
					<rect id="rect3008_36_" x="1114.6" y="2.7" fill="url(#rect3008_72_)" width="16.8" height="10"/>
					<path fill="#455A64" d="M1128.6,16.2h-11.1h-0.5v0.5V17c0,0.3,0.2,0.5,0.5,0.5h11.1c0.3,0,0.5-0.2,0.5-0.5v-0.3v-0.5H1128.6z"
						/>
					<rect x="1120.6" y="14.2" fill="#1D272B" width="4.8" height="2"/>
					<linearGradient id="SVGID_4_" gradientUnits="userSpaceOnUse" x1="1123" y1="1.5" x2="1123" y2="14.3267">
						<stop  offset="0" style="stop-color:#455A64"/>
						<stop  offset="1" style="stop-color:#263238"/>
					</linearGradient>
					<path fill="url(#SVGID_4_)" d="M1113.4,1.5v12.8h19.2V1.5H1113.4z M1131.4,12.7h-16.8v-10h16.8V12.7z"/>
					<path id="rect3008-0_22_" opacity="0.2318" fill="#EEE8D5" enable-background="new    " d="M1125.2,2.7l-4.3,10h10.6v-10
						H1125.2z"/>
				</g>
			</g>
			<g>
				<g>
					<g>
						<g>
							
								<linearGradient id="SVGID_5_" gradientUnits="userSpaceOnUse" x1="499.125" y1="1141.7412" x2="500.8784" y2="1141.7412" gradientTransform="matrix(0 -1 1 0 -18.7412 521.625)">
								<stop  offset="0" style="stop-color:#404040"/>
								<stop  offset="0.3345" style="stop-color:#DEDEDE"/>
								<stop  offset="0.4622" style="stop-color:#DCDCDC"/>
								<stop  offset="0.5229" style="stop-color:#D4D4D4"/>
								<stop  offset="0.5695" style="stop-color:#C7C7C7"/>
								<stop  offset="0.6089" style="stop-color:#B5B5B5"/>
								<stop  offset="0.6437" style="stop-color:#9D9D9D"/>
								<stop  offset="0.6749" style="stop-color:#808080"/>
								<stop  offset="0.703" style="stop-color:#5E5E5E"/>
								<stop  offset="0.7063" style="stop-color:#616161"/>
								<stop  offset="0.7579" style="stop-color:#8B8B8B"/>
								<stop  offset="0.8082" style="stop-color:#ACACAC"/>
								<stop  offset="0.8562" style="stop-color:#C3C3C3"/>
								<stop  offset="0.901" style="stop-color:#D1D1D1"/>
								<stop  offset="0.9394" style="stop-color:#D6D6D6"/>
								<stop  offset="1" style="stop-color:#333333"/>
							</linearGradient>
							<rect x="1117.7" y="20.7" fill="url(#SVGID_5_)" width="10.6" height="1.8"/>
							
								<linearGradient id="SVGID_6_" gradientUnits="userSpaceOnUse" x1="908.5332" y1="-237.3436" x2="910.3701" y2="-237.3436" gradientTransform="matrix(1 0 0 1 213.5977 256.8307)">
								<stop  offset="0" style="stop-color:#333333"/>
								<stop  offset="6.060610e-002" style="stop-color:#D6D6D6"/>
								<stop  offset="9.900098e-002" style="stop-color:#D1D1D1"/>
								<stop  offset="0.1438" style="stop-color:#C3C3C3"/>
								<stop  offset="0.1918" style="stop-color:#ACACAC"/>
								<stop  offset="0.2421" style="stop-color:#8B8B8B"/>
								<stop  offset="0.2937" style="stop-color:#616161"/>
								<stop  offset="0.297" style="stop-color:#5E5E5E"/>
								<stop  offset="0.3317" style="stop-color:#808080"/>
								<stop  offset="0.3701" style="stop-color:#9D9D9D"/>
								<stop  offset="0.4131" style="stop-color:#B5B5B5"/>
								<stop  offset="0.4616" style="stop-color:#C7C7C7"/>
								<stop  offset="0.5191" style="stop-color:#D4D4D4"/>
								<stop  offset="0.594" style="stop-color:#DCDCDC"/>
								<stop  offset="0.7515" style="stop-color:#DEDEDE"/>
								<stop  offset="1" style="stop-color:#404040"/>
							</linearGradient>
							<rect x="1122.1" y="17.4" fill="url(#SVGID_6_)" width="1.8" height="4.1"/>
							<g>
								<polygon fill="#212121" points="1125.7,20.8 1124,20.8 1124,18.9 1122.1,18.9 1122.1,20.8 1120.3,20.8 1120.3,22.5 
									1122.7,22.5 1123.4,22.5 1125.7,22.5 								"/>
							</g>
						</g>
						<rect x="1120.3" y="21.9" opacity="0.6" fill="#0C0C0C" width="5.4" height="0.6"/>
					</g>
				</g>
			</g>
		</g>
	</g>
	<g id="电池" display="none">
		<g display="inline">
			<path fill="#455A64" d="M1129,2.3h-2.9V1.8c0-0.4-0.4-0.8-0.9-0.8h-4.4c-0.5,0-0.9,0.3-0.9,0.8v0.5l-2.9,0l-0.5,0v0.5v19.7V23
				h0.5h12.1h0.5v-0.5V2.8V2.3H1129z"/>
			<g>
				<linearGradient id="SVGID_7_" gradientUnits="userSpaceOnUse" x1="1116.9639" y1="22.1346" x2="1129.094" y2="22.1346">
					<stop  offset="0" style="stop-color:#ADC1C9"/>
					<stop  offset="1" style="stop-color:#6C91A3"/>
				</linearGradient>
				<rect x="1117" y="21.7" fill-rule="evenodd" clip-rule="evenodd" fill="url(#SVGID_7_)" width="12.1" height="0.8"/>
				<linearGradient id="SVGID_8_" gradientUnits="userSpaceOnUse" x1="1120.333" y1="2.156" x2="1125.6917" y2="2.156">
					<stop  offset="0" style="stop-color:#CDE0E8"/>
					<stop  offset="1" style="stop-color:#90A4AE"/>
				</linearGradient>
				<path fill-rule="evenodd" clip-rule="evenodd" fill="url(#SVGID_8_)" d="M1125.2,1.5h-4.4c-0.2,0-0.4,0.1-0.4,0.3v1.1h5.3V1.8
					C1125.7,1.6,1125.5,1.5,1125.2,1.5z"/>
				<linearGradient id="SVGID_9_" gradientUnits="userSpaceOnUse" x1="1120.333" y1="2.3296" x2="1125.6917" y2="2.3296">
					<stop  offset="0" style="stop-color:#ADC1C9"/>
					<stop  offset="1" style="stop-color:#6C91A3"/>
				</linearGradient>
				<path fill-rule="evenodd" clip-rule="evenodd" fill="url(#SVGID_9_)" d="M1125.2,1.7h-4.4c-0.2,0-0.4,0.1-0.4,0.3V3h5.3V1.9
					C1125.7,1.8,1125.5,1.7,1125.2,1.7z"/>
				<linearGradient id="SVGID_10_" gradientUnits="userSpaceOnUse" x1="1116.9639" y1="3.3354" x2="1129.094" y2="3.3354">
					<stop  offset="0" style="stop-color:#ADC1C9"/>
					<stop  offset="1" style="stop-color:#6C91A3"/>
				</linearGradient>
				<rect x="1117" y="2.8" fill-rule="evenodd" clip-rule="evenodd" fill="url(#SVGID_10_)" width="12.1" height="1.1"/>
				<linearGradient id="SVGID_11_" gradientUnits="userSpaceOnUse" x1="1117.2053" y1="2.8416" x2="1128.7982" y2="2.8416">
					<stop  offset="0" style="stop-color:#CDE0E8"/>
					<stop  offset="1" style="stop-color:#90A4AE"/>
				</linearGradient>
				<rect x="1117" y="2.8" fill-rule="evenodd" clip-rule="evenodd" fill="url(#SVGID_11_)" width="12.1" height="0.1"/>
				<linearGradient id="SVGID_12_" gradientUnits="userSpaceOnUse" x1="1123" y1="21.5509" x2="1123" y2="4.0417">
					<stop  offset="0.2366" style="stop-color:#689F38"/>
					<stop  offset="0.9366" style="stop-color:#8BC34A"/>
				</linearGradient>
				<rect x="1117" y="4" fill-rule="evenodd" clip-rule="evenodd" fill="url(#SVGID_12_)" width="12.1" height="17.7"/>
				<rect x="1119.3" y="2.8" opacity="0.24" fill="#FFFFFF" enable-background="new    " width="3.2" height="19.8"/>
				<rect x="1121.2" y="1.5" opacity="0.24" fill="#FFFFFF" enable-background="new    " width="2" height="1.3"/>
				<linearGradient id="SVGID_13_" gradientUnits="userSpaceOnUse" x1="1116.9639" y1="21.6284" x2="1129.0361" y2="21.6284">
					<stop  offset="0" style="stop-color:#DCE775"/>
					<stop  offset="1" style="stop-color:#AED581"/>
				</linearGradient>
				<rect x="1117" y="21.6" fill-rule="evenodd" clip-rule="evenodd" fill="url(#SVGID_13_)" width="12.1" height="0.1"/>
				<linearGradient id="SVGID_14_" gradientUnits="userSpaceOnUse" x1="1116.9639" y1="21.7617" x2="1129.0361" y2="21.7617">
					<stop  offset="0" style="stop-color:#F6F7F7"/>
					<stop  offset="0.12" style="stop-color:#DEDEDE"/>
					<stop  offset="0.24" style="stop-color:#F5F4F4"/>
					<stop  offset="0.56" style="stop-color:#F5F4F4"/>
					<stop  offset="0.61" style="stop-color:#E1E3DF"/>
					<stop  offset="0.88" style="stop-color:#9F9E9B"/>
					<stop  offset="0.92" style="stop-color:#CED1CD"/>
					<stop  offset="1" style="stop-color:#F6F7F7"/>
				</linearGradient>
				<rect x="1117" y="21.7" fill-rule="evenodd" clip-rule="evenodd" fill="url(#SVGID_14_)" width="12.1" height="0.1"/>
				<linearGradient id="SVGID_15_" gradientUnits="userSpaceOnUse" x1="1116.9639" y1="21.7617" x2="1129.0361" y2="21.7617">
					<stop  offset="0" style="stop-color:#CDE0E8"/>
					<stop  offset="1" style="stop-color:#90A4AE"/>
				</linearGradient>
				<rect x="1117" y="21.7" fill-rule="evenodd" clip-rule="evenodd" fill="url(#SVGID_15_)" width="12.1" height="0.1"/>
				<linearGradient id="SVGID_16_" gradientUnits="userSpaceOnUse" x1="1116.9639" y1="3.9612" x2="1129.0361" y2="3.9612">
					<stop  offset="0" style="stop-color:#90A4AE"/>
					<stop  offset="1" style="stop-color:#607D8B"/>
				</linearGradient>
				<rect x="1117" y="3.9" fill-rule="evenodd" clip-rule="evenodd" fill="url(#SVGID_16_)" width="12.1" height="0.1"/>
				<linearGradient id="SVGID_17_" gradientUnits="userSpaceOnUse" x1="1116.9639" y1="4.0728" x2="1129.0361" y2="4.0728">
					<stop  offset="0" style="stop-color:#DCE775"/>
					<stop  offset="1" style="stop-color:#AED581"/>
				</linearGradient>
				<rect x="1117" y="4" fill-rule="evenodd" clip-rule="evenodd" fill="url(#SVGID_17_)" width="12.1" height="0.1"/>
				<g>
					<g enable-background="new    ">
						<polygon fill-rule="evenodd" clip-rule="evenodd" fill="#33691E" enable-background="new    " points="1123.4,5.5 1124.8,6.9 
							1121.9,6.9 						"/>
						<polygon fill-rule="evenodd" clip-rule="evenodd" fill="#33691E" enable-background="new    " points="1123.1,8.1 1123.7,8.1 
							1123.7,9.6 1125.2,9.6 1125.2,10.2 1123.7,10.2 1123.7,11.8 1123.1,11.8 1123.1,10.2 1121.6,10.2 1121.6,9.6 1123.1,9.6 
													"/>
					</g>
					<g>
						<polygon fill-rule="evenodd" clip-rule="evenodd" fill="#DCEDC8" enable-background="new    " points="1123,5.1 1124.4,6.5 
							1121.5,6.5 						"/>
						<polygon fill-rule="evenodd" clip-rule="evenodd" fill="#DCEDC8" enable-background="new    " points="1122.7,7.7 1123.3,7.7 
							1123.3,9.2 1124.8,9.2 1124.8,9.8 1123.3,9.8 1123.3,11.3 1122.7,11.3 1122.7,9.8 1121.1,9.8 1121.1,9.2 1122.7,9.2 						"/>
					</g>
				</g>
			</g>
		</g>
	</g>
	<g id="光盘" display="none">
		<g display="inline">
			<path fill="#01579B" d="M1123,23c-6.1,0-11-4.9-11-11c0-6.1,4.9-11,11-11s11,4.9,11,11C1134,18.1,1129.1,23,1123,23z M1123,11.1
				c-0.5,0-0.9,0.4-0.9,0.9s0.4,0.9,0.9,0.9s0.9-0.4,0.9-0.9S1123.5,11.1,1123,11.1z"/>
			<path fill="#0288D1" d="M1123,1.5c-5.8,0-10.5,4.7-10.5,10.5c0,5.8,4.7,10.5,10.5,10.5s10.5-4.7,10.5-10.5
				C1133.5,6.2,1128.8,1.5,1123,1.5z M1123,22.2c-5.6,0-10.2-4.6-10.2-10.2c0-5.6,4.6-10.2,10.2-10.2s10.2,4.6,10.2,10.2
				C1133.2,17.6,1128.6,22.2,1123,22.2z"/>
			
				<radialGradient id="SVGID_18_" cx="1130.252" cy="10.922" r="9.1566" gradientTransform="matrix(0.9556 0 0 0.9556 42.9312 1.5629)" gradientUnits="userSpaceOnUse">
				<stop  offset="0" style="stop-color:#4DD0E1"/>
				<stop  offset="0.3925" style="stop-color:#40BEE7"/>
				<stop  offset="0.6129" style="stop-color:#3FBDE7"/>
				<stop  offset="0.6613" style="stop-color:#44C4E8"/>
				<stop  offset="0.7527" style="stop-color:#2CBEE8"/>
				<stop  offset="1" style="stop-color:#2196F3"/>
			</radialGradient>
			<path fill="url(#SVGID_18_)" d="M1123,3.3c-4.8,0-8.8,3.9-8.8,8.8c0,4.8,3.9,8.8,8.8,8.8s8.8-3.9,8.8-8.8
				C1131.8,7.2,1127.8,3.3,1123,3.3z M1123,15.1c-1.7,0-3.1-1.4-3.1-3.1c0-1.7,1.4-3.1,3.1-3.1s3.1,1.4,3.1,3.1
				C1126.1,13.7,1124.7,15.1,1123,15.1z"/>
			<g opacity="0.7" enable-background="new    ">
				<path fill="#FFFFFF" d="M1126.1,12.2l5.4,0.4l0.3,0c0.1-1.3-0.1-2.5-0.6-3.7l-5.3,2C1126,11.3,1126.1,11.8,1126.1,12.2z"/>
				<path fill="#FFFFFF" d="M1119.9,11.8l-5.4-0.4l-0.3,0c-0.1,1.3,0.1,2.5,0.6,3.7l5.3-2C1120,12.7,1119.9,12.2,1119.9,11.8z"/>
			</g>
			<g opacity="0.7" enable-background="new    ">
				<path fill="#FFFFFF" d="M1125.6,10.5l4.7-2.7l0.2-0.2c-0.6-1.1-1.5-2-2.5-2.7l-3.3,4.6C1125.1,9.7,1125.4,10.1,1125.6,10.5z"/>
				<path fill="#FFFFFF" d="M1120.4,13.5l-4.7,2.7l-0.2,0.2c0.6,1.1,1.5,2,2.5,2.7l3.3-4.6C1120.9,14.3,1120.6,13.9,1120.4,13.5z"/>
			</g>
			<path fill="#F5F5F5" enable-background="new    " d="M1123,1.8c-5.6,0-10.2,4.6-10.2,10.2c0,5.6,4.6,10.2,10.2,10.2
				s10.2-4.6,10.2-10.2C1133.2,6.4,1128.6,1.8,1123,1.8z M1123,20.8c-4.8,0-8.8-3.9-8.8-8.8c0-4.8,3.9-8.8,8.8-8.8s8.8,3.9,8.8,8.8
				C1131.8,16.8,1127.8,20.8,1123,20.8z"/>
			<path fill="#0288D1" d="M1123,8.9c-1.7,0-3.1,1.4-3.1,3.1c0,1.7,1.4,3.1,3.1,3.1s3.1-1.4,3.1-3.1
				C1126.1,10.3,1124.7,8.9,1123,8.9z M1123,14.7c-1.5,0-2.7-1.2-2.7-2.7c0-1.5,1.2-2.7,2.7-2.7s2.7,1.2,2.7,2.7
				C1125.7,13.5,1124.5,14.7,1123,14.7z"/>
			<path fill="#F5F5F5" enable-background="new    " d="M1123,9.3c-1.5,0-2.7,1.2-2.7,2.7c0,1.5,1.2,2.7,2.7,2.7s2.7-1.2,2.7-2.7
				C1125.7,10.5,1124.5,9.3,1123,9.3z M1123,13.4c-0.8,0-1.4-0.6-1.4-1.4c0-0.8,0.6-1.4,1.4-1.4s1.4,0.6,1.4,1.4
				C1124.4,12.8,1123.8,13.4,1123,13.4z"/>
		</g>
	</g>
	<g id="光盘-音乐" display="none">
		<g display="inline">
			<path fill="#01579B" d="M1123,23c-6.1,0-11-4.9-11-11c0-6.1,4.9-11,11-11s11,4.9,11,11C1134,18.1,1129.1,23,1123,23z M1123,11.1
				c-0.5,0-0.9,0.4-0.9,0.9s0.4,0.9,0.9,0.9s0.9-0.4,0.9-0.9S1123.5,11.1,1123,11.1z"/>
			<path fill="#0288D1" d="M1123,1.5c-5.8,0-10.5,4.7-10.5,10.5c0,5.8,4.7,10.5,10.5,10.5s10.5-4.7,10.5-10.5
				C1133.5,6.2,1128.8,1.5,1123,1.5z M1123,22.2c-5.6,0-10.2-4.6-10.2-10.2c0-5.6,4.6-10.2,10.2-10.2s10.2,4.6,10.2,10.2
				C1133.2,17.6,1128.6,22.2,1123,22.2z"/>
			
				<radialGradient id="SVGID_19_" cx="1130.252" cy="10.922" r="9.1566" gradientTransform="matrix(0.9556 0 0 0.9556 42.9312 1.5629)" gradientUnits="userSpaceOnUse">
				<stop  offset="0" style="stop-color:#4DD0E1"/>
				<stop  offset="0.3925" style="stop-color:#40BEE7"/>
				<stop  offset="0.6129" style="stop-color:#3FBDE7"/>
				<stop  offset="0.6613" style="stop-color:#44C4E8"/>
				<stop  offset="0.7527" style="stop-color:#2CBEE8"/>
				<stop  offset="1" style="stop-color:#2196F3"/>
			</radialGradient>
			<path fill="url(#SVGID_19_)" d="M1123,3.3c-4.8,0-8.8,3.9-8.8,8.8c0,4.8,3.9,8.8,8.8,8.8s8.8-3.9,8.8-8.8
				C1131.8,7.2,1127.8,3.3,1123,3.3z M1123,15.1c-1.7,0-3.1-1.4-3.1-3.1c0-1.7,1.4-3.1,3.1-3.1s3.1,1.4,3.1,3.1
				C1126.1,13.7,1124.7,15.1,1123,15.1z"/>
			<g opacity="0.7" enable-background="new    ">
				<path fill="#FFFFFF" d="M1126.1,12.2l5.4,0.4l0.3,0c0.1-1.3-0.1-2.5-0.6-3.7l-5.3,2C1126,11.3,1126.1,11.8,1126.1,12.2z"/>
				<path fill="#FFFFFF" d="M1119.9,11.8l-5.4-0.4l-0.3,0c-0.1,1.3,0.1,2.5,0.6,3.7l5.3-2C1120,12.7,1119.9,12.2,1119.9,11.8z"/>
			</g>
			<g opacity="0.7" enable-background="new    ">
				<path fill="#FFFFFF" d="M1125.6,10.5l4.7-2.7l0.2-0.2c-0.6-1.1-1.5-2-2.5-2.7l-3.3,4.6C1125.1,9.7,1125.4,10.1,1125.6,10.5z"/>
				<path fill="#FFFFFF" d="M1120.4,13.5l-4.7,2.7l-0.2,0.2c0.6,1.1,1.5,2,2.5,2.7l3.3-4.6C1120.9,14.3,1120.6,13.9,1120.4,13.5z"/>
			</g>
			<path fill="#F5F5F5" enable-background="new    " d="M1123,1.8c-5.6,0-10.2,4.6-10.2,10.2c0,5.6,4.6,10.2,10.2,10.2
				s10.2-4.6,10.2-10.2C1133.2,6.4,1128.6,1.8,1123,1.8z M1123,20.8c-4.8,0-8.8-3.9-8.8-8.8c0-4.8,3.9-8.8,8.8-8.8s8.8,3.9,8.8,8.8
				C1131.8,16.8,1127.8,20.8,1123,20.8z"/>
			<path fill="#0288D1" d="M1123,8.9c-1.7,0-3.1,1.4-3.1,3.1c0,1.7,1.4,3.1,3.1,3.1s3.1-1.4,3.1-3.1
				C1126.1,10.3,1124.7,8.9,1123,8.9z M1123,14.7c-1.5,0-2.7-1.2-2.7-2.7c0-1.5,1.2-2.7,2.7-2.7s2.7,1.2,2.7,2.7
				C1125.7,13.5,1124.5,14.7,1123,14.7z"/>
			<path fill="#F5F5F5" enable-background="new    " d="M1123,9.3c-1.5,0-2.7,1.2-2.7,2.7c0,1.5,1.2,2.7,2.7,2.7s2.7-1.2,2.7-2.7
				C1125.7,10.5,1124.5,9.3,1123,9.3z M1123,13.4c-0.8,0-1.4-0.6-1.4-1.4c0-0.8,0.6-1.4,1.4-1.4s1.4,0.6,1.4,1.4
				C1124.4,12.8,1123.8,13.4,1123,13.4z"/>
		</g>
		<g display="inline">
			<radialGradient id="SVGID_20_" cx="1127.8519" cy="7.6716" r="6.4153" gradientUnits="userSpaceOnUse">
				<stop  offset="0" style="stop-color:#607D8B"/>
				<stop  offset="0.3523" style="stop-color:#607D8B"/>
				<stop  offset="0.5982" style="stop-color:#607D8B"/>
				<stop  offset="1" style="stop-color:#455A64"/>
			</radialGradient>
			<path fill="url(#SVGID_20_)" stroke="#263238" stroke-width="0.5" stroke-miterlimit="10" d="M1125.1,2.6L1125.1,2.6v9.9
				c-0.2,0-0.4-0.1-0.6-0.1c-1,0-1.7,0.6-1.7,1.3c0,0.7,0.8,1.3,1.7,1.3s1.7-0.6,1.7-1.3l0,0V7l6.6-1.4v5c-0.2,0-0.4-0.1-0.6-0.1
				c-1,0-1.7,0.6-1.7,1.3c0,0.7,0.8,1.3,1.7,1.3s1.7-0.6,1.7-1.3l0,0V0.7L1125.1,2.6z M1132.8,4.6l-6.6,1.4v-2l6.6-1.4V4.6z"/>
			<g>
				<defs>
					<path id="SVGID_291_" d="M1125.1,2.6L1125.1,2.6v9.9c-0.2,0-0.4-0.1-0.6-0.1c-1,0-1.7,0.6-1.7,1.3c0,0.7,0.8,1.3,1.7,1.3
						s1.7-0.6,1.7-1.3l0,0V7l6.6-1.4v5c-0.2,0-0.4-0.1-0.6-0.1c-1,0-1.7,0.6-1.7,1.3c0,0.7,0.8,1.3,1.7,1.3s1.7-0.6,1.7-1.3l0,0V0.7
						L1125.1,2.6z M1132.8,4.6l-6.6,1.4v-2l6.6-1.4V4.6z"/>
				</defs>
				<clipPath id="SVGID_21_">
					<use xlink:href="#SVGID_291_"  overflow="visible"/>
				</clipPath>
				
					<radialGradient id="SVGID_22_" cx="917.4235" cy="69.1592" r="1.5058" gradientTransform="matrix(1.3028 0 0 1.0766 -70.9641 -61.2303)" gradientUnits="userSpaceOnUse">
					<stop  offset="0.3734" style="stop-color:#5F7B8A"/>
					<stop  offset="1" style="stop-color:#455A64;stop-opacity:0"/>
				</radialGradient>
				<ellipse clip-path="url(#SVGID_21_)" fill="url(#SVGID_22_)" cx="1124.4" cy="13.3" rx="1.6" ry="1.3"/>
				
					<radialGradient id="SVGID_23_" cx="923.1379" cy="67.7679" r="1.5061" gradientTransform="matrix(1.3028 0 0 1.0766 -70.9641 -61.4927)" gradientUnits="userSpaceOnUse">
					<stop  offset="0.3734" style="stop-color:#5F7B8A"/>
					<stop  offset="1" style="stop-color:#455A64;stop-opacity:0"/>
				</radialGradient>
				<ellipse clip-path="url(#SVGID_21_)" fill="url(#SVGID_23_)" cx="1131.9" cy="11.5" rx="1.6" ry="1.3"/>
			</g>
		</g>
	</g>
	<g display="none">
		<g display="inline">
			<path fill="#616161" d="M1121.4,23c-2.7,0-5.2-1.3-6.8-3.6h-2.6v-3.5l0.2-1.4l2.2-13.5h16.5l2.8,13.5l0.2,1.3l0,3.6h-5.8
				C1126.6,21.7,1124.1,23,1121.4,23z"/>
			<g>
				<g>
					<g>
						<g>
							<g id="g4_7_">
								<g id="g6_7_" transform="translate(-38.38147 -1006.10034)">
									<path id="path10_7_" fill="#263238" d="M1150.9,1022v3h21v-3H1150.9z"/>
									<polygon fill="#E0E0E0" points="1171.6,1020.7 1168.9,1007.6 1153.3,1007.6 1151.1,1020.7 									"/>
									<polygon opacity="0.25" fill="#9E9E9E" enable-background="new    " points="1171.6,1020.7 1168.9,1007.6 1163.4,1007.6 
										1160.2,1020.7 									"/>
									<polygon fill="#E0E0E0" points="1151.1,1020.7 1150.9,1022 1171.9,1022 1171.6,1020.7 									"/>
									<polygon opacity="0.45" fill="#FFFFFF" enable-background="new    " points="1154.6,1020.7 1155.2,1007.6 1154,1007.6 
										1151.8,1020.7 									"/>
								</g>
								<g id="g12_7_" transform="translate(-39.59798 -1004.3622)">
									
										<linearGradient id="path14_9_" gradientUnits="userSpaceOnUse" x1="-2171.4026" y1="3583.4792" x2="-2171.4026" y2="3582.519" gradientTransform="matrix(1 0 0 1 3332.4287 -2561.3149)">
										<stop  offset="0" style="stop-color:#455A64"/>
										<stop  offset="0.2052" style="stop-color:#36474F"/>
										<stop  offset="1" style="stop-color:#000000"/>
									</linearGradient>
									<path id="path14_7_" fill="url(#path14_9_)" d="M1168.6,1022.2h-15.2v-1c4.9,0,10.7,0,15.2,0V1022.2L1168.6,1022.2z"/>
									
										<linearGradient id="path16_9_" gradientUnits="userSpaceOnUse" x1="-2161.366" y1="3583.4792" x2="-2161.366" y2="3582.519" gradientTransform="matrix(1 0 0 1 3332.4287 -2561.3149)">
										<stop  offset="0" style="stop-color:#38A3E7"/>
										<stop  offset="1" style="stop-color:#1976D2"/>
									</linearGradient>
									<path id="path16_7_" fill="url(#path16_9_)" d="M1170.4,1022.2h1.4v-1h-1.4V1022.2z"/>
								</g>
							</g>
							<g>
								<path fill="#E0E0E0" d="M1121.4,22.3c3.4,0,6.3-2.3,7.3-5.5h-1.2c-0.9,2.5-3.3,4.3-6.1,4.3c-0.7,0-1.3-0.1-1.9-0.3l-0.1,0.2
									l-2.1-0.5l0.5-0.6c-0.3-0.2-0.7-0.5-1-0.8l-0.7,0.5l-1.1-1.2l0.9-0.5c-0.2-0.4-0.4-0.8-0.6-1.2h-1.2
									C1115.1,20,1118,22.3,1121.4,22.3z"/>
								<path fill="#949494" d="M1128.9,16.8h-0.2c-1,3.2-3.9,5.5-7.3,5.5s-6.3-2.3-7.3-5.5h-0.2c1,3.3,4,5.7,7.5,5.7
									S1127.9,20.1,1128.9,16.8z"/>
								<path fill="#949494" d="M1118.2,16.8h-2.9c0.2,0.4,0.4,0.8,0.6,1.2L1118.2,16.8z"/>
								<path fill="#949494" d="M1119.5,17.4l-2.7,1.8c0.3,0.3,0.6,0.6,1,0.8l2-2.4C1119.7,17.5,1119.6,17.5,1119.5,17.4z"/>
								<path fill="#949494" d="M1121.4,18c-0.3,0-0.6,0-0.9-0.1l-1,3c0.6,0.2,1.3,0.3,1.9,0.3c2.8,0,5.2-1.8,6.1-4.3h-3.6
									C1123.3,17.5,1122.4,18,1121.4,18z"/>
								<path fill="#E0E0E0" d="M1117.3,20.6l2.1,0.5l0.1-0.2c-0.6-0.2-1.2-0.5-1.7-0.8L1117.3,20.6z"/>
								<path opacity="0.86" fill="#E0E0E0" enable-background="new    " d="M1117.3,20.6l2.1,0.5l0.1-0.2c-0.6-0.2-1.2-0.5-1.7-0.8
									L1117.3,20.6z"/>
								<path fill="#949494" d="M1119.8,17.6l-2,2.4c0.5,0.4,1.1,0.6,1.7,0.8l1-3C1120.3,17.8,1120,17.7,1119.8,17.6z"/>
								<path opacity="0.86" fill="#E0E0E0" enable-background="new    " d="M1119.8,17.6l-2,2.4c0.5,0.4,1.1,0.6,1.7,0.8l1-3
									C1120.3,17.8,1120,17.7,1119.8,17.6z"/>
								<path fill="#E0E0E0" d="M1115,18.5l1.1,1.2l0.7-0.5c-0.3-0.4-0.6-0.7-0.9-1.2L1115,18.5z"/>
								<path opacity="0.86" fill="#E0E0E0" enable-background="new    " d="M1115,18.5l1.1,1.2l0.7-0.5c-0.3-0.4-0.6-0.7-0.9-1.2
									L1115,18.5z"/>
								<path fill="#949494" d="M1116.8,19.2l2.7-1.8c-0.2-0.2-0.5-0.4-0.6-0.6h-0.7l-2.3,1.2C1116.1,18.4,1116.4,18.8,1116.8,19.2z
									"/>
								<path opacity="0.86" fill="#E0E0E0" enable-background="new    " d="M1116.8,19.2l2.7-1.8c-0.2-0.2-0.5-0.4-0.6-0.6h-0.7
									l-2.3,1.2C1116.1,18.4,1116.4,18.8,1116.8,19.2z"/>
								<path fill="#A5A5A5" d="M1119.5,17.4c0.1,0.1,0.2,0.1,0.3,0.2c0.2,0.1,0.5,0.2,0.7,0.3c0.3,0.1,0.6,0.1,0.9,0.1
									c1,0,1.9-0.4,2.5-1.1h-0.5c-0.5,0.5-1.2,0.8-2,0.8s-1.5-0.3-2-0.8h-0.5C1119,17.1,1119.3,17.2,1119.5,17.4z"/>
								<path fill="#E0E0E0" d="M1121.4,17.6c0.8,0,1.5-0.3,2-0.8h-4C1119.9,17.3,1120.6,17.6,1121.4,17.6z"/>
							</g>
						</g>
					</g>
				</g>
			</g>
		</g>
	</g>
	<g id="内存卡" display="none">
		<g display="inline">
			<path d="M1116.1,18.8l-4.1-2.2V6.1c0-0.5,0.4-0.9,0.9-0.9h20.3c0.5,0,0.9,0.4,0.9,0.9v2.1l-0.1,0.1c-0.1,0.2-0.2,0.5-0.3,0.8
				l0,0.2c0,0.2,0,0.3,0,0.3c0,0.3,0.1,0.6,0.3,0.8l0,0.1l0,0.1l0,0.1v7.2c0,0.5-0.4,0.9-0.9,0.9H1116.1z"/>
			<g>
				<path fill="#221E1F" d="M1133.3,10.8C1133.3,10.8,1133.3,10.8,1133.3,10.8c0-0.1-0.1-0.2-0.1-0.4c0,0,0,0,0,0c0-0.1,0-0.2,0-0.3
					l0,0c0-0.2-0.1-0.3-0.1-0.5c0,0,0,0,0,0c0-0.1,0-0.2,0-0.2l0,0c0-0.1,0-0.2,0-0.2c0,0,0,0,0,0c0,0,0,0,0-0.1
					c0-0.4,0.2-0.7,0.3-1V7.4c0-0.2-0.2-0.4-0.4-0.4h-20.3c-0.2,0-0.4,0.2-0.4,0.4v8.9l3.7,2h16.9c0.2,0,0.4-0.2,0.4-0.4v-6.7l0,0
					C1133.4,11.1,1133.4,11,1133.3,10.8z"/>
				<path fill="#221E1F" d="M1133.5,10.7L1133.5,10.7L1133.5,10.7c-0.2-0.3-0.3-0.6-0.3-1c0,0,0,0,0,0c0,0,0,0,0,0
					c0-0.1,0-0.2,0-0.3c0,0,0-0.1,0-0.1c0,0,0,0,0,0c0-0.1,0-0.2,0-0.2l0,0c0-0.1,0-0.2,0-0.2c0,0,0,0,0,0c0-0.4,0.2-0.7,0.4-1V6.1
					c0-0.2-0.2-0.4-0.4-0.4h-20.3c-0.2,0-0.4,0.2-0.4,0.4v9.2l3.7,2.1h16.9c0.2,0,0.4-0.1,0.4-0.3L1133.5,10.7L1133.5,10.7
					C1133.5,10.7,1133.5,10.7,1133.5,10.7z"/>
				<linearGradient id="SVGID_24_" gradientUnits="userSpaceOnUse" x1="1123.0317" y1="6.5602" x2="1123.0317" y2="17.7111">
					<stop  offset="0" style="stop-color:#6C6E70"/>
					<stop  offset="0" style="stop-color:#67696B"/>
					<stop  offset="0" style="stop-color:#535455"/>
					<stop  offset="0" style="stop-color:#434444"/>
					<stop  offset="0" style="stop-color:#383839"/>
					<stop  offset="0" style="stop-color:#323232"/>
					<stop  offset="0" style="stop-color:#303030"/>
					<stop  offset="1" style="stop-color:#303030"/>
				</linearGradient>
				<path fill="url(#SVGID_24_)" d="M1133.2,10.7c-0.1-0.1-0.1-0.2-0.1-0.3v0c0,0,0,0,0,0c0,0,0,0,0,0c-0.1-0.3-0.2-0.7-0.2-1
					c0,0,0-0.1,0-0.1c0,0,0,0,0,0c0-0.1,0-0.2,0-0.2l0,0c0-0.1,0-0.2,0-0.2c0,0,0,0,0,0c0-0.4,0.2-0.7,0.4-1V6.8
					c0-0.2-0.2-0.4-0.4-0.4h-19.7c-0.2,0-0.4,0.2-0.4,0.4v8.9l3.4,2h16.7c0.2,0,0.4-0.2,0.4-0.4L1133.2,10.7L1133.2,10.7
					C1133.2,10.8,1133.2,10.8,1133.2,10.7z"/>
				<linearGradient id="SVGID_25_" gradientUnits="userSpaceOnUse" x1="1124.5996" y1="14.7579" x2="1124.5996" y2="7.4861">
					<stop  offset="1.075270e-002" style="stop-color:#6C6E70"/>
					<stop  offset="1.166943e-002" style="stop-color:#595B5C"/>
					<stop  offset="1.300527e-002" style="stop-color:#444546"/>
					<stop  offset="1.458401e-002" style="stop-color:#343535"/>
					<stop  offset="1.653608e-002" style="stop-color:#29292A"/>
					<stop  offset="1.927593e-002" style="stop-color:#232323"/>
					<stop  offset="2.688170e-002" style="stop-color:#212121"/>
					<stop  offset="1" style="stop-color:#212121"/>
				</linearGradient>
				<path fill="url(#SVGID_25_)" d="M1132,14.4c0,0.2-0.2,0.4-0.4,0.4h-13.9c-0.2,0-0.4-0.2-0.4-0.4V7.9c0-0.2,0.2-0.4,0.4-0.4h13.9
					c0.2,0,0.4,0.2,0.4,0.4V14.4z"/>
				<text transform="matrix(0.9497 0 0 1 1114.1006 15.4268)"><tspan x="0" y="0" fill="#BBBDBF" font-family="'Arial-Black'" font-size="1.1411">32</tspan><tspan x="1.5" y="0" fill="#BBBDBF" font-family="'Arial-Black'" font-size="0.7746">GB</tspan></text>
				<text transform="matrix(0.9497 0 0 1 1123.3359 9.0576)"><tspan x="0" y="0" fill="#BBBDBF" font-family="'Arial-Black'" font-size="1.1411">TOTAL 32</tspan><tspan x="6.1" y="0" fill="#BBBDBF" font-family="'Arial-Black'" font-size="0.7746">GB</tspan></text>
				<g>
					
						<text transform="matrix(0.9832 0 0 1 1118.8652 13.9668)" fill="#A6A8AB" font-family="'BankGothicBT-Medium'" font-size="1.3827">MEMORY</text>
					
						<text transform="matrix(0.9832 0 0 1 1126.3145 13.9453)" fill="#A6A8AB" font-family="'BankGothicBT-Medium'" font-size="1.3827">STICK</text>
				</g>
				<polygon fill="#FFFFFF" points="1113.3,15 1113.5,14.8 1113.8,14.6 1113.8,15 1113.8,15.4 1113.5,15.2 				"/>
				<path fill="#FFFFFF" d="M1114.9,7.6c-0.8,0-1.5,0.7-1.5,1.5c0,0.8,0.7,1.5,1.5,1.5s1.5-0.7,1.5-1.5
					C1116.3,8.3,1115.7,7.6,1114.9,7.6z M1115.4,8c0.1,0,0.2,0.1,0.2,0.2c0,0.1-0.1,0.2-0.2,0.2c-0.1,0-0.2-0.1-0.2-0.2
					C1115.2,8.1,1115.3,8,1115.4,8z M1113.9,9.3c-0.1,0-0.2-0.1-0.2-0.2c0-0.1,0.1-0.2,0.2-0.2s0.2,0.1,0.2,0.2
					C1114.1,9.2,1114,9.3,1113.9,9.3z M1114,9.3c0.1,0,0.1-0.1,0.1-0.2c0-0.1-0.1-0.2-0.1-0.2c0-0.2,0.2-0.4,0.4-0.5l0.1,0.2
					c-0.1,0.1-0.2,0.2-0.2,0.5c0,0.2,0.1,0.4,0.2,0.5l-0.1,0.2C1114.3,9.7,1114.1,9.4,1114,9.3z M1114.8,8.7l0.1-0.1v0L1114.8,8.7
					l0.1,0.1l-0.1,0.1l0.1,0.1l0.1,0.1l0,0l0.1,0l0.1-0.1l0.1,0l0,0.1h0l-0.1,0l0,0l-0.1,0.1l0,0.1l0,0.1l-0.1,0.1l0,0.1h-0.1
					l0.1-0.1l0,0l0,0l-0.1,0.1v0l0,0l0,0l0,0l-0.1,0l0.1-0.1l0.1-0.1l-0.1,0l-0.1,0l-0.1,0l-0.1,0l0,0.1l0,0.1h-0.1l0,0l0,0l0-0.1
					l0-0.1l-0.1-0.1l0.1-0.1l0-0.1L1114.8,8.7L1114.8,8.7L1114.8,8.7L1114.8,8.7L1114.8,8.7L1114.8,8.7z M1115.4,10.1
					c-0.1,0-0.2-0.1-0.2-0.2c0-0.1,0.1-0.2,0.2-0.2c0.1,0,0.2,0.1,0.2,0.2C1115.6,10,1115.5,10.1,1115.4,10.1z M1115.5,9.7
					c0,0-0.1,0-0.1,0c-0.1,0-0.2,0.1-0.2,0.2c-0.3,0.1-0.5,0-0.6-0.1l0.1-0.2c0.1,0,0.3,0.1,0.5,0c0.2-0.1,0.2-0.3,0.3-0.4l0.3,0
					C1115.7,9.4,1115.6,9.5,1115.5,9.7z M1115.5,9c0-0.2-0.2-0.4-0.3-0.5c-0.2-0.1-0.4,0-0.5,0l-0.1-0.2c0.2-0.1,0.5-0.1,0.6-0.1
					c0,0,0,0.1,0.1,0.2c0.1,0,0.2,0,0.2,0c0.2,0.1,0.2,0.4,0.3,0.5H1115.5z"/>
			</g>
		</g>
	</g>
	<g id="软驱" display="none">
		<g display="inline">
			<path d="M1113.3,23c-0.7,0-1.2-0.6-1.2-1.2V2.3c0-0.7,0.6-1.2,1.2-1.2l1.6,0l0.1,0.3l2.2,0V1h14.7l2,2v18.8
				c0,0.7-0.5,1.2-1.2,1.2H1113.3z"/>
			<g>
				<g>
					<linearGradient id="SVGID_26_" gradientUnits="userSpaceOnUse" x1="1123" y1="1.5107" x2="1123" y2="40.4114">
						<stop  offset="0" style="stop-color:#211D1E"/>
						<stop  offset="0.55" style="stop-color:#58595B"/>
						<stop  offset="1" style="stop-color:#ABB6BE"/>
					</linearGradient>
					<path fill-rule="evenodd" clip-rule="evenodd" fill="url(#SVGID_26_)" d="M1133.4,21.8c0,0.4-0.3,0.7-0.7,0.7h-19.4
						c-0.4,0-0.7-0.3-0.7-0.7V2.3c0-0.4,0.3-0.7,0.7-0.7l0,0l1.3,0c0.1,0.2,0.3,0.3,0.5,0.3l13.6,0c0.2,0,0.4-0.1,0.5-0.3l2.4,0
						l1.7,1.7V21.8z"/>
					<linearGradient id="SVGID_27_" gradientUnits="userSpaceOnUse" x1="1123.209" y1="10.19" x2="1123.209" y2="23.8052">
						<stop  offset="0" style="stop-color:#FFFFFF"/>
						<stop  offset="1" style="stop-color:#CFD8DC"/>
					</linearGradient>
					<path fill-rule="evenodd" clip-rule="evenodd" fill="url(#SVGID_27_)" d="M1115.7,10.5h15c0.4,0,0.8,0.3,0.8,0.8v11.3h-16.6
						V11.2C1114.9,10.8,1115.3,10.5,1115.7,10.5z"/>
					<path fill-rule="evenodd" clip-rule="evenodd" fill="#221E1F" d="M1115.4,9.1c-0.3,0-0.6-0.2-0.6-0.5V1.8
						c0.1,0,0.2,0.1,0.2,0.1v6.7c0,0.3,0.2,0.5,0.6,0.5L1115.4,9.1z"/>
					<path fill-rule="evenodd" clip-rule="evenodd" fill="#040000" d="M1115.5,10.4h15.1c0.2,0,0.3,0.1,0.5,0.2
						c-0.1,0-0.2-0.1-0.2-0.1h-15.1c-0.4,0-0.8,0.3-0.8,0.8v11.2h-0.2V11.2C1114.8,10.7,1115.1,10.4,1115.5,10.4z"/>
					<path fill-rule="evenodd" clip-rule="evenodd" fill="#BAC6D1" d="M1131,10.5c0.4,0.1,0.6,0.4,0.6,0.7v9h0v0.8h0v1.4h-0.3V11.2
						C1131.4,10.9,1131.3,10.7,1131,10.5z"/>
					<path fill-rule="evenodd" clip-rule="evenodd" fill="#616161" d="M1129.2,1.6l0,6.9c0,0.3-0.3,0.5-0.6,0.5l-13,0
						c-0.2,0-0.4-0.1-0.5-0.3c0,0,0.4,0.2,0.5,0.2l12.8,0c0.3,0,0.5-0.2,0.5-0.5l0-6.6C1129.1,1.8,1129.2,1.7,1129.2,1.6L1129.2,1.6
						z M1128.7,1.8l-8.2,0l0,0L1128.7,1.8z"/>
					<path fill-rule="evenodd" clip-rule="evenodd" fill="#221E1F" d="M1117.7,1.5h10.9v6.3c0,0.4-0.3,0.8-0.8,0.8l-9.4,0
						c-0.4,0-0.8-0.3-0.8-0.8V1.5L1117.7,1.5z M1124.8,2.3c-0.3,0-0.5,0.2-0.5,0.5v5c0,0.3,0.2,0.5,0.5,0.5l2.1,0
						c0.3,0,0.5-0.2,0.5-0.5v-5c0-0.3-0.2-0.5-0.5-0.5H1124.8z"/>
					<linearGradient id="SVGID_28_" gradientUnits="userSpaceOnUse" x1="1107.8326" y1="6.5849" x2="1130.2084" y2="4.2331">
						<stop  offset="0" style="stop-color:#BFD7B1"/>
						<stop  offset="0.36" style="stop-color:#CFD1D2"/>
						<stop  offset="1" style="stop-color:#FFFFFF"/>
					</linearGradient>
					<path fill-rule="evenodd" clip-rule="evenodd" fill="url(#SVGID_28_)" d="M1117.7,1.5l10.9,0v6.2c0,0.4-0.4,0.8-0.8,0.8l-9.4,0
						c-0.4,0-0.8-0.3-0.8-0.8V1.5L1117.7,1.5z M1124.7,2.2c-0.3,0-0.5,0.2-0.5,0.5v5c0,0.3,0.2,0.5,0.5,0.5l2.1,0
						c0.3,0,0.5-0.2,0.5-0.5v-5c0-0.3-0.2-0.5-0.5-0.5H1124.7z"/>
					<path fill-rule="evenodd" clip-rule="evenodd" fill="#FFFFFF" d="M1117.7,1.5h10.9v0.1L1117.7,1.5l0.1,6.3
						c0,0.2,0.1,0.3,0.2,0.5c-0.1-0.1-0.2-0.3-0.2-0.6V1.5L1117.7,1.5z M1127.3,2.4c0.1,0.1,0.1,0.2,0.1,0.3v5
						c0,0.3-0.2,0.5-0.5,0.5l-2.1,0c-0.1,0-0.3-0.1-0.3-0.1c0.1,0.1,0.3,0.2,0.4,0.2l2.1,0c0.3,0,0.5-0.2,0.5-0.5v-5
						C1127.5,2.6,1127.4,2.5,1127.3,2.4z"/>
				</g>
			</g>
			<g>
				<rect x="1117.9" y="13.6" fill="#90A4AE" width="10.5" height="0.8"/>
			</g>
			<g>
				<rect x="1117.9" y="18" fill="#90A4AE" width="10.5" height="0.8"/>
			</g>
		</g>
	</g>
	<g id="sd" display="none">
		<g>
			<path display="inline" fill-rule="evenodd" clip-rule="evenodd" d="M1114.2,23c-0.7,0-1.3-0.6-1.3-1.3v-7.5h0.6V7.4h-0.6V2.3
				c0-0.7,0.6-1.3,1.3-1.3h16.8l2.1,2.1V8h-0.6v2.5h0.6v11.2c0,0.7-0.6,1.3-1.3,1.3H1114.2z"/>
			<linearGradient id="SVGID_29_" gradientUnits="userSpaceOnUse" x1="1123" y1="1.5" x2="1123" y2="40.4233">
				<stop  offset="0" style="stop-color:#211D1E"/>
				<stop  offset="0.55" style="stop-color:#58595B"/>
				<stop  offset="1" style="stop-color:#ABB6BE"/>
			</linearGradient>
			<path display="inline" fill-rule="evenodd" clip-rule="evenodd" fill="url(#SVGID_29_)" d="M1132,11.1V7.5h0.6V3.3l-1.8-1.8
				h-16.6c-0.4,0-0.8,0.4-0.8,0.8v4.6h0.6v7.8h-0.6v7c0,0.4,0.4,0.8,0.8,0.8h17.6c0.4,0,0.8-0.3,0.8-0.8V11.1H1132z"/>
			<g display="inline">
				<g>
					<path fill="#616161" d="M1130.5,2.2l1.4,1.4v3.3h-0.5h-0.1V7v4.6v0.1h0.1h0.5v10c0,0.1-0.1,0.1-0.1,0.1h-17.6
						c-0.1,0-0.1,0-0.1-0.1v-6.3h0.5h0.1v-0.1V6.4V6.2h-0.1h-0.5v-4c0-0.1,0-0.1,0.1-0.1H1130.5 M1130.6,2.1h-16.4
						c-0.1,0-0.2,0.1-0.2,0.2v4.1h0.6v8.9h-0.6v6.4c0,0.1,0.1,0.2,0.2,0.2h17.6c0.1,0,0.2-0.1,0.2-0.2V11.6h-0.6V7h0.6V3.5
						L1130.6,2.1L1130.6,2.1z"/>
				</g>
			</g>
			<g display="inline">
				<g>
					<g>
						<rect x="1115.8" y="3.6" fill-rule="evenodd" clip-rule="evenodd" fill="#B71C1C" width="14.5" height="17.4"/>
						<linearGradient id="SVGID_30_" gradientUnits="userSpaceOnUse" x1="1123" y1="3.4104" x2="1123" y2="22.6557">
							<stop  offset="0" style="stop-color:#F44336"/>
							<stop  offset="1" style="stop-color:#D32F2F"/>
						</linearGradient>
						<rect x="1115.9" y="3.8" fill-rule="evenodd" clip-rule="evenodd" fill="url(#SVGID_30_)" width="14.1" height="17"/>
					</g>
				</g>
			</g>
			
				<text transform="matrix(1 0 0 1 1120.252 19.1738)" display="inline" fill="#FFFFFF" font-family="'Arial-BoldMT'" font-size="6.5049">SD</text>
			
				<text transform="matrix(1 0 0 1 1123.7363 13.854)" display="inline" fill="#FFFFFF" font-family="'ArialMT'" font-size="1.8499">MMC</text>
			<rect x="1120.2" y="3.8" display="inline" fill-rule="evenodd" clip-rule="evenodd" fill="#212121" width="5.5" height="5.2"/>
			
				<text transform="matrix(1.0547 0 0 1 1120.8066 8.4229)" display="inline" fill="#FFFFFF" font-family="'Arial-Black'" font-size="1.9195">32G</text>
			<path display="inline" fill="#131313" fill-opacity="0.2" d="M1115.9,3.8h14.1v2.6h-14.1V3.8z"/>
		</g>
		<g display="inline">
			<path fill-rule="evenodd" clip-rule="evenodd" d="M1114.2,23c-0.7,0-1.3-0.6-1.3-1.3v-7.5h0.6V7.4h-0.6V2.3
				c0-0.7,0.6-1.3,1.3-1.3h16.8l2.1,2.1V8h-0.6v2.5h0.6v11.2c0,0.7-0.6,1.3-1.3,1.3H1114.2z"/>
			<g>
				<linearGradient id="SVGID_31_" gradientUnits="userSpaceOnUse" x1="1123" y1="1.5" x2="1123" y2="40.4233">
					<stop  offset="0" style="stop-color:#211D1E"/>
					<stop  offset="0.55" style="stop-color:#58595B"/>
					<stop  offset="1" style="stop-color:#ABB6BE"/>
				</linearGradient>
				<path fill-rule="evenodd" clip-rule="evenodd" fill="url(#SVGID_31_)" d="M1132,11.1V7.5h0.6V3.3l-1.8-1.8h-16.6
					c-0.4,0-0.8,0.4-0.8,0.8v4.6h0.6v7.8h-0.6v7c0,0.4,0.4,0.8,0.8,0.8h17.6c0.4,0,0.8-0.3,0.8-0.8V11.1H1132z"/>
				<g>
					<g>
						<path fill="#616161" d="M1130.5,2.2l1.4,1.4v3.3h-0.5h-0.1V7v4.6v0.1h0.1h0.5v10c0,0.1-0.1,0.1-0.1,0.1h-17.6
							c-0.1,0-0.1,0-0.1-0.1v-6.3h0.5h0.1v-0.1V6.4V6.2h-0.1h-0.5v-4c0-0.1,0-0.1,0.1-0.1H1130.5 M1130.6,2.1h-16.4
							c-0.1,0-0.2,0.1-0.2,0.2v4.1h0.6v8.9h-0.6v6.4c0,0.1,0.1,0.2,0.2,0.2h17.6c0.1,0,0.2-0.1,0.2-0.2V11.6h-0.6V7h0.6V3.5
							L1130.6,2.1L1130.6,2.1z"/>
					</g>
				</g>
				<g>
					<g>
						<g>
							<rect x="1115.8" y="3.6" fill-rule="evenodd" clip-rule="evenodd" fill="#B71C1C" width="14.5" height="17.4"/>
							<linearGradient id="SVGID_32_" gradientUnits="userSpaceOnUse" x1="1123" y1="3.4104" x2="1123" y2="22.6557">
								<stop  offset="0" style="stop-color:#F44336"/>
								<stop  offset="1" style="stop-color:#D32F2F"/>
							</linearGradient>
							<rect x="1115.9" y="3.8" fill-rule="evenodd" clip-rule="evenodd" fill="url(#SVGID_32_)" width="14.1" height="17"/>
						</g>
					</g>
				</g>
				<text transform="matrix(1 0 0 1 1117.1943 18.5317)" fill="#FFFFFF" font-family="'Arial-BoldMT'" font-size="8.2119">SD</text>
				<rect x="1120.2" y="3.8" fill-rule="evenodd" clip-rule="evenodd" fill="#212121" width="5.5" height="5.2"/>
				<path fill="#131313" fill-opacity="0.2" d="M1115.9,3.8h14.1v2.6h-14.1V3.8z"/>
				<line fill="none" stroke="#FFFFFF" stroke-width="1.125" stroke-miterlimit="10" x1="1121.3" y1="7.6" x2="1122.9" y2="7.6"/>
				<line fill="none" stroke="#FFFFFF" stroke-width="1.125" stroke-miterlimit="10" x1="1123.7" y1="7.6" x2="1124.8" y2="7.6"/>
			</g>
		</g>
	</g>
	<g id="sm" display="none">
		<g display="inline">
			<path fill-rule="evenodd" clip-rule="evenodd" d="M1114.2,23.5c-0.7,0-1.3-0.6-1.3-1.3V1.8c0-0.7,0.6-1.3,1.3-1.3h16.7l2.2,2.2
				v19.5c0,0.7-0.6,1.3-1.3,1.3H1114.2z"/>
			<linearGradient id="SVGID_33_" gradientUnits="userSpaceOnUse" x1="1123" y1="1" x2="1123" y2="41.7768">
				<stop  offset="0" style="stop-color:#211D1E"/>
				<stop  offset="0.55" style="stop-color:#58595B"/>
				<stop  offset="1" style="stop-color:#ABB6BE"/>
			</linearGradient>
			<path fill-rule="evenodd" clip-rule="evenodd" fill="url(#SVGID_33_)" d="M1132.6,2.9l-1.9-1.9h-16.5c-0.5,0-0.8,0.4-0.8,0.8
				v20.3c0,0.5,0.4,0.8,0.8,0.8h17.6c0.5,0,0.8-0.3,0.8-0.8V2.9z"/>
			<g>
				<g>
					<g>
						<path fill="#616161" d="M1130.4,1.7l1.5,1.5v19c0,0.1-0.1,0.1-0.1,0.1h-17.6c-0.1,0-0.1,0-0.1-0.1V1.8c0-0.1,0-0.1,0.1-0.1
							H1130.4 M1130.5,1.6h-16.2c-0.1,0-0.3,0.1-0.3,0.2v20.3c0,0.1,0.1,0.2,0.3,0.2h17.6c0.1,0,0.3-0.1,0.3-0.2V3.1L1130.5,1.6
							L1130.5,1.6z"/>
					</g>
				</g>
				<path fill="#F9CE1D" stroke="#212121" stroke-width="0.6077" d="M1116.4,3.2h13.1c0.6,0,1,0.5,1,1v7.1c0,0.6-0.5,1-1,1h-13.1
					c-0.6,0-1-0.5-1-1V4.3C1115.4,3.7,1115.9,3.2,1116.4,3.2z"/>
				<g>
					<linearGradient id="SVGID_34_" gradientUnits="userSpaceOnUse" x1="1122.9692" y1="22.8184" x2="1122.9692" y2="17.6504">
						<stop  offset="0" style="stop-color:#616161"/>
						<stop  offset="0.1882" style="stop-color:#FFFFFF"/>
					</linearGradient>
					<path fill="url(#SVGID_34_)" d="M1115.6,22.8v-4.3c0-0.5,0.4-0.8,0.8-0.8h13.1c0.5,0,0.8,0.4,0.8,0.8v4.3H1115.6z"/>
					<path fill="#212121" d="M1129.5,17.8c0.4,0,0.7,0.3,0.7,0.7v4.1h-14.4v-4.1c0-0.4,0.3-0.7,0.7-0.7H1129.5 M1129.5,17.5h-13.1
						c-0.6,0-1,0.5-1,1V23h15.1v-4.5C1130.5,17.9,1130.1,17.5,1129.5,17.5L1129.5,17.5z"/>
				</g>
				<g>
					<linearGradient id="SVGID_35_" gradientUnits="userSpaceOnUse" x1="1115.7764" y1="18.5977" x2="1130.1631" y2="18.5977">
						<stop  offset="0" style="stop-color:#F57C00"/>
						<stop  offset="1" style="stop-color:#FF5722"/>
					</linearGradient>
					<path fill="url(#SVGID_35_)" d="M1115.8,19.4v-0.9c0-0.4,0.3-0.7,0.7-0.7h13.1c0.4,0,0.7,0.3,0.7,0.7v0.9H1115.8z"/>
				</g>
				
					<linearGradient id="SVGID_36_" gradientUnits="userSpaceOnUse" x1="-1806.4542" y1="2688.3669" x2="-1807.9275" y2="2691.2153" gradientTransform="matrix(2.6667 0 0 -2.6667 5942.5928 7181.4478)">
					<stop  offset="0" style="stop-color:#F9CE1D"/>
					<stop  offset="0.5" style="stop-color:#F5A816"/>
					<stop  offset="1" style="stop-color:#F9CE1D"/>
				</linearGradient>
				<path fill="url(#SVGID_36_)" stroke="#C39F00" stroke-width="0.2026" d="M1116.4,3.2h13.1c0.6,0,1,0.5,1,1v7.1c0,0.6-0.5,1-1,1
					h-13.1c-0.6,0-1-0.5-1-1V4.3C1115.4,3.7,1115.9,3.2,1116.4,3.2z"/>
				<path fill="none" stroke="#FFFFFF" stroke-width="0.2026" stroke-opacity="0.447" d="M1116.6,3.8h12.8c0.3,0,0.6,0.3,0.6,0.6
					l0,6.9c0,0.3-0.3,0.6-0.6,0.6h-12.8c-0.3,0-0.6-0.3-0.6-0.6l0-6.9C1116,4.1,1116.3,3.8,1116.6,3.8z"/>
				<path fill="#FFFFFF" fill-opacity="0.447" d="M1116.8,3.5v3.2c3.9-1.5,8.1,2.1,12.4,1.1V3.5h0.5v8.6h-0.5V8.9
					c-4.7,1-8.4-2.7-12.4-1.1v4.3h-0.5V3.5L1116.8,3.5L1116.8,3.5z"/>
				<path fill="#FFFFFF" fill-opacity="0.447" d="M1117.3,3.5v2.6l0.5-0.1V3.5H1117.3z"/>
				<path fill="#FFFFFF" fill-opacity="0.447" d="M1118.4,5.9V3.5h0.5v2.4L1118.4,5.9z"/>
				<path fill="#FFFFFF" fill-opacity="0.447" d="M1119.5,5.9V3.5h0.5V6L1119.5,5.9z"/>
				<path fill="#FFFFFF" fill-opacity="0.447" d="M1120.5,6.1V3.5h0.5v2.7L1120.5,6.1z"/>
				<path fill="#FFFFFF" fill-opacity="0.447" d="M1121.6,6.3V3.5h0.5v2.9L1121.6,6.3z"/>
				<path fill="#FFFFFF" fill-opacity="0.447" d="M1122.7,6.6V3.5h0.5v3.1L1122.7,6.6z"/>
				<path fill="#FFFFFF" fill-opacity="0.447" d="M1123.8,6.9V3.5h0.5V7L1123.8,6.9z"/>
				<path fill="#FFFFFF" fill-opacity="0.447" d="M1124.9,7.1V3.5h0.5v3.7L1124.9,7.1z"/>
				<path fill="#FFFFFF" fill-opacity="0.447" d="M1125.9,7.3V3.5h0.5v3.9L1125.9,7.3z"/>
				<path fill="#FFFFFF" fill-opacity="0.447" d="M1127,7.4V3.5h0.5v3.9H1127z"/>
				<path fill="#FFFFFF" fill-opacity="0.447" d="M1128.1,7.4V3.5h0.5v3.9L1128.1,7.4z"/>
				<path fill="#FFFFFF" fill-opacity="0.447" d="M1117.3,12.1v-4l0.5-0.1v4.1H1117.3z"/>
				<path fill="#FFFFFF" fill-opacity="0.447" d="M1118.4,8v4.1h0.5V8L1118.4,8z"/>
				<path fill="#FFFFFF" fill-opacity="0.447" d="M1119.5,8v4.2h0.5V8L1119.5,8z"/>
				<path fill="#FFFFFF" fill-opacity="0.447" d="M1120.5,8.2v3.9h0.5V8.3L1120.5,8.2z"/>
				<path fill="#FFFFFF" fill-opacity="0.447" d="M1121.6,8.4v3.7h0.5V8.6L1121.6,8.4z"/>
				<path fill="#FFFFFF" fill-opacity="0.447" d="M1122.7,8.8v3.4h0.5V9L1122.7,8.8z"/>
				<path fill="#FFFFFF" fill-opacity="0.447" d="M1123.8,9.1v3.1h0.5V9.2L1123.8,9.1z"/>
				<path fill="#FFFFFF" fill-opacity="0.447" d="M1124.9,9.3v2.8h0.5V9.4L1124.9,9.3z"/>
				<path fill="#FFFFFF" fill-opacity="0.447" d="M1125.9,9.5v2.6h0.5V9.5L1125.9,9.5L1125.9,9.5z"/>
				<path fill="#FFFFFF" fill-opacity="0.447" d="M1127,9.6v2.5h0.5V9.5L1127,9.6z"/>
				<path fill="#FFFFFF" fill-opacity="0.447" d="M1128.1,9.6v2.5h0.5V9.5L1128.1,9.6z"/>
			</g>
			<radialGradient id="SVGID_37_" cx="1129.4092" cy="16.5455" r="2.7788" gradientUnits="userSpaceOnUse">
				<stop  offset="0" style="stop-color:#9E9E9E"/>
				<stop  offset="1" style="stop-color:#212121"/>
			</radialGradient>
			<circle fill-rule="evenodd" clip-rule="evenodd" fill="url(#SVGID_37_)" cx="1129.5" cy="15" r="1.5"/>
			<circle fill-rule="evenodd" clip-rule="evenodd" fill="#0F0F0F" cx="1129.5" cy="15" r="1"/>
			<rect x="1116.8" y="18.4" fill="#FF8A65" width="4.8" height="1"/>
			<rect x="1122.9" y="18.4" fill="#FF8A65" width="2.3" height="1"/>
		</g>
	</g>
	<g id="无线网卡" display="none">
		<g display="inline">
			<polygon fill="#263238" points="1112,18.4 1112,5.6 1131.9,5.6 1131.9,7.2 1134,7.2 1134,16.8 1131.9,16.8 1131.9,18.4 			"/>
			<linearGradient id="SVGID_38_" gradientUnits="userSpaceOnUse" x1="1123" y1="17.8765" x2="1123" y2="6.1235">
				<stop  offset="0" style="stop-color:#CFD8DC"/>
				<stop  offset="1" style="stop-color:#90A4AE"/>
			</linearGradient>
			<polygon fill="url(#SVGID_38_)" points="1133.5,7.7 1131.4,7.7 1131.4,6.1 1112.5,6.1 1112.5,17.9 1131.4,17.9 1131.4,16.3 
				1133.5,16.3 			"/>
			<linearGradient id="SVGID_39_" gradientUnits="userSpaceOnUse" x1="1123" y1="17.6751" x2="1123" y2="6.325">
				<stop  offset="0" style="stop-color:#CFD8DC"/>
				<stop  offset="1" style="stop-color:#CFD8DC"/>
			</linearGradient>
			<polygon fill="none" stroke="url(#SVGID_39_)" stroke-width="0.4029" stroke-miterlimit="10" points="1112.9,17.5 1112.9,6.5 
				1131,6.5 1131,8.1 1133.1,8.1 1133.1,15.9 1131,15.9 1131,17.5 			"/>
			<rect x="1115.2" y="6.3" fill="#FF9800" width="4.3" height="0.4"/>
			<rect x="1115.2" y="17.3" fill="#FF9800" width="4.3" height="0.4"/>
			<linearGradient id="SVGID_40_" gradientUnits="userSpaceOnUse" x1="1120.6582" y1="16.2808" x2="1120.6582" y2="7.7187">
				<stop  offset="0" style="stop-color:#CFD8DC"/>
				<stop  offset="1" style="stop-color:#F5F5F5"/>
			</linearGradient>
			<rect x="1112.5" y="7.7" fill="url(#SVGID_40_)" width="16.3" height="8.6"/>
			<linearGradient id="SVGID_41_" gradientUnits="userSpaceOnUse" x1="1120.7589" y1="16.4823" x2="1120.7589" y2="7.5173">
				<stop  offset="0.8495" style="stop-color:#455A64"/>
				<stop  offset="0.9516" style="stop-color:#CFD8DC"/>
			</linearGradient>
			<polyline fill="none" stroke="url(#SVGID_41_)" stroke-width="0.4029" stroke-miterlimit="10" points="1112.5,16.3 1128.8,16.3 
				1128.8,7.7 1112.5,7.7 			"/>
			<g>
				<g>
					<path fill="#455A64" d="M1116.4,14.6c-0.3,0-0.6-0.3-0.6-0.6V10c0-0.3,0.3-0.6,0.6-0.6h10.3c0.3,0,0.6,0.3,0.6,0.6V14
						c0,0.3-0.3,0.6-0.6,0.6H1116.4z"/>
					<path fill="#FFFFFF" d="M1126.7,9.4c0.3,0,0.5,0.2,0.5,0.5V14c0,0.3-0.2,0.5-0.5,0.5h-10.3c-0.3,0-0.5-0.2-0.5-0.5V10
						c0-0.3,0.2-0.5,0.5-0.5H1126.7 M1126.7,9.3h-10.3c-0.4,0-0.7,0.3-0.7,0.7V14c0,0.4,0.3,0.7,0.7,0.7h10.3c0.4,0,0.7-0.3,0.7-0.7
						V10C1127.3,9.6,1127,9.3,1126.7,9.3L1126.7,9.3z"/>
				</g>
				<text transform="matrix(1 0 0 1 1118.7188 13.8784)" fill="#FFFFFF" font-family="'Arial-Black'" font-size="1.7723">PCMCIA</text>
				<linearGradient id="SVGID_42_" gradientUnits="userSpaceOnUse" x1="1122.6313" y1="11.9756" x2="1122.6313" y2="11.0293">
					<stop  offset="0" style="stop-color:#F57C00"/>
					<stop  offset="1" style="stop-color:#F9CE1D"/>
				</linearGradient>
				<rect x="1118.7" y="11" fill="url(#SVGID_42_)" width="7.8" height="0.9"/>
			</g>
		</g>
	</g>
</g>
<g id="_x33_2_x26_24-开始菜单应用图标">
	<g id="光盘刻录" display="none">
		<g id="光盘_1_" display="inline">
			<g>
				<path fill="#01579B" d="M1123,23c-6.1,0-11-4.9-11-11c0-6.1,4.9-11,11-11s11,4.9,11,11C1134,18.1,1129.1,23,1123,23z M1123,11.1
					c-0.5,0-0.9,0.4-0.9,0.9s0.4,0.9,0.9,0.9s0.9-0.4,0.9-0.9S1123.5,11.1,1123,11.1z"/>
				<path fill="#0288D1" d="M1123,1.5c-5.8,0-10.5,4.7-10.5,10.5c0,5.8,4.7,10.5,10.5,10.5s10.5-4.7,10.5-10.5
					C1133.5,6.2,1128.8,1.5,1123,1.5z M1123,22.2c-5.6,0-10.2-4.6-10.2-10.2c0-5.6,4.6-10.2,10.2-10.2s10.2,4.6,10.2,10.2
					C1133.2,17.6,1128.6,22.2,1123,22.2z"/>
				
					<radialGradient id="SVGID_43_" cx="1130.252" cy="10.922" r="9.1566" gradientTransform="matrix(0.9556 0 0 0.9556 42.9312 1.5629)" gradientUnits="userSpaceOnUse">
					<stop  offset="0" style="stop-color:#4DD0E1"/>
					<stop  offset="0.3925" style="stop-color:#40BEE7"/>
					<stop  offset="0.6129" style="stop-color:#3FBDE7"/>
					<stop  offset="0.6613" style="stop-color:#44C4E8"/>
					<stop  offset="0.7527" style="stop-color:#2CBEE8"/>
					<stop  offset="1" style="stop-color:#2196F3"/>
				</radialGradient>
				<path fill="url(#SVGID_43_)" d="M1123,3.3c-4.8,0-8.8,3.9-8.8,8.8c0,4.8,3.9,8.8,8.8,8.8s8.8-3.9,8.8-8.8
					C1131.8,7.2,1127.8,3.3,1123,3.3z M1123,15.1c-1.7,0-3.1-1.4-3.1-3.1c0-1.7,1.4-3.1,3.1-3.1s3.1,1.4,3.1,3.1
					C1126.1,13.7,1124.7,15.1,1123,15.1z"/>
				<g opacity="0.7" enable-background="new    ">
					<path fill="#FFFFFF" d="M1126.1,12.2l5.4,0.4l0.3,0c0.1-1.3-0.1-2.5-0.6-3.7l-5.3,2C1126,11.3,1126.1,11.8,1126.1,12.2z"/>
					<path fill="#FFFFFF" d="M1119.9,11.8l-5.4-0.4l-0.3,0c-0.1,1.3,0.1,2.5,0.6,3.7l5.3-2C1120,12.7,1119.9,12.2,1119.9,11.8z"/>
				</g>
				<g opacity="0.7" enable-background="new    ">
					<path fill="#FFFFFF" d="M1125.6,10.5l4.7-2.7l0.2-0.2c-0.6-1.1-1.5-2-2.5-2.7l-3.3,4.6C1125.1,9.7,1125.4,10.1,1125.6,10.5z"/>
					<path fill="#FFFFFF" d="M1120.4,13.5l-4.7,2.7l-0.2,0.2c0.6,1.1,1.5,2,2.5,2.7l3.3-4.6C1120.9,14.3,1120.6,13.9,1120.4,13.5z"
						/>
				</g>
				<path fill="#F5F5F5" enable-background="new    " d="M1123,1.8c-5.6,0-10.2,4.6-10.2,10.2c0,5.6,4.6,10.2,10.2,10.2
					s10.2-4.6,10.2-10.2C1133.2,6.4,1128.6,1.8,1123,1.8z M1123,20.8c-4.8,0-8.8-3.9-8.8-8.8c0-4.8,3.9-8.8,8.8-8.8s8.8,3.9,8.8,8.8
					C1131.8,16.8,1127.8,20.8,1123,20.8z"/>
				<path fill="#0288D1" d="M1123,8.9c-1.7,0-3.1,1.4-3.1,3.1c0,1.7,1.4,3.1,3.1,3.1s3.1-1.4,3.1-3.1
					C1126.1,10.3,1124.7,8.9,1123,8.9z M1123,14.7c-1.5,0-2.7-1.2-2.7-2.7c0-1.5,1.2-2.7,2.7-2.7s2.7,1.2,2.7,2.7
					C1125.7,13.5,1124.5,14.7,1123,14.7z"/>
				<path fill="#F5F5F5" enable-background="new    " d="M1123,9.3c-1.5,0-2.7,1.2-2.7,2.7c0,1.5,1.2,2.7,2.7,2.7s2.7-1.2,2.7-2.7
					C1125.7,10.5,1124.5,9.3,1123,9.3z M1123,13.4c-0.8,0-1.4-0.6-1.4-1.4c0-0.8,0.6-1.4,1.4-1.4s1.4,0.6,1.4,1.4
					C1124.4,12.8,1123.8,13.4,1123,13.4z"/>
			</g>
			<g>
				<g>
					<linearGradient id="SVGID_44_" gradientUnits="userSpaceOnUse" x1="1129.9371" y1="23.1299" x2="1129.9371" y2="15.2234">
						<stop  offset="0" style="stop-color:#EE6F0B"/>
						<stop  offset="1" style="stop-color:#FFEB3B"/>
					</linearGradient>
					<path fill="url(#SVGID_44_)" d="M1132.1,20.3c-0.4-1.5-0.1-1.8-0.1-1.8s-0.8,0.5-0.8,1.4c0,0-1.6-1.4-0.6-4.6
						c0,0-1.1,0.4-1.4,1.5c-0.2,0.7-0.2,1.3-0.2,1.6c0,0.2,0,0.3,0,0.3s0-0.1,0-0.3c0-0.4-0.2-1.2-0.6-1.7c0,0,0.1,0.9-0.3,1.6
						c-0.4,0.7-0.9,2.1,0.4,4.1c0,0-0.1,0-0.3-0.1c0.6,0.4,1.2,0.6,2,0.6c0.7,0,1.3-0.2,1.8-0.5c-0.3,0.1-0.6,0.2-0.9,0.3
						C1131.1,22.9,1132.5,21.8,1132.1,20.3z"/>
					<linearGradient id="SVGID_45_" gradientUnits="userSpaceOnUse" x1="1129.6718" y1="23.3763" x2="1129.6718" y2="7.563">
						<stop  offset="0" style="stop-color:#F44336"/>
						<stop  offset="1" style="stop-color:#F5A816"/>
					</linearGradient>
					<path fill="url(#SVGID_45_)" d="M1133.9,18.4c0-0.1-0.1-0.2-0.1-0.3c-0.1-0.2-0.2-0.5-0.3-0.8c-0.3-1.4-0.2-3.3-0.2-3.3
						c-0.6,0.7-0.8,1.4-0.9,2c-0.1,0.8,0.1,1.4,0.1,1.4s-0.4-0.4-0.5-1.7c0-0.6,0-1.4,0.1-2.4c0.5-3.3-2.1-5.7-2.1-5.7
						c1.1,4.7-1.8,7.5-1.8,7.5c0.1-1.8-0.9-3.1-0.9-3.1c0.2,3-2.5,5.6-1.7,7.8c0.6,1.7,2.2,2.5,2.8,2.7c0.2,0.1,0.3,0.1,0.3,0.1
						c-1.3-2-0.8-3.4-0.4-4.1c0.4-0.7,0.3-1.6,0.3-1.6c0.4,0.4,0.6,1.2,0.6,1.7c0-0.3,0-0.9,0.2-1.6c0.3-1.1,1.4-1.5,1.4-1.5
						c-0.9,3.2,0.6,4.6,0.6,4.6c0-0.9,0.8-1.4,0.8-1.4s-0.3,0.3,0.1,1.8c0.4,1.5-1,2.6-1,2.6c0.3,0,0.6-0.1,0.9-0.3
						c1.2-0.7,1.9-2,1.9-3.5C1134,18.9,1134,18.6,1133.9,18.4z"/>
				</g>
				<path fill="none" stroke="#F44336" stroke-width="0.5" stroke-linejoin="round" stroke-miterlimit="10" d="M1133.9,18.4
					c0-0.1-0.1-0.2-0.1-0.3c-0.1-0.2-0.2-0.5-0.3-0.8c-0.3-1.4-0.2-3.3-0.2-3.3c-0.6,0.7-0.8,1.4-0.9,2c-0.1,0.8,0.1,1.4,0.1,1.4
					s-0.4-0.4-0.5-1.7c0-0.6,0-1.4,0.1-2.4c0.5-3.3-2.1-5.7-2.1-5.7c1.1,4.7-1.8,7.5-1.8,7.5c0.1-1.8-0.9-3.1-0.9-3.1
					c0.2,3-2.5,5.6-1.7,7.8c0.6,1.7,1.7,2.3,2.4,2.7c0.7,0.4,1.5,0.5,2.2,0.5c0.7,0,1.3,0.1,1.9-0.4c1.1-0.7,1.9-2,1.9-3.5
					C1134,18.9,1134,18.6,1133.9,18.4z"/>
			</g>
		</g>
	</g>
	<g id="桌面分享_1_" display="none">
		<g display="inline">
			<path fill="#212121" d="M1116.9,21.2c-0.6,0-1-0.4-1-1v-1.3h4v-1.1h-7.9v-15h22v15h-7.9v1.1h4v1.3c0,0.6-0.4,1-1,1H1116.9z"/>
			<g>
				<linearGradient id="rect3008_73_" gradientUnits="userSpaceOnUse" x1="1122.999" y1="4.5474" x2="1122.999" y2="15.5386">
					<stop  offset="0" style="stop-color:#B3E5FC"/>
					<stop  offset="1" style="stop-color:#0288D1"/>
				</linearGradient>
				<rect id="rect3008_87_" x="1113.8" y="4.5" fill="url(#rect3008_73_)" width="18.4" height="11"/>
				<path fill="#455A64" d="M1129.1,19.4h-12.2h-0.5v0.5v0.3c0,0.3,0.2,0.5,0.5,0.5h12.2c0.3,0,0.5-0.2,0.5-0.5v-0.3v-0.5H1129.1z"
					/>
				<rect x="1120.4" y="17.2" fill="#1D272B" width="5.3" height="2.2"/>
				<linearGradient id="SVGID_46_" gradientUnits="userSpaceOnUse" x1="1123" y1="3.2856" x2="1123" y2="17.314">
					<stop  offset="0" style="stop-color:#455A64"/>
					<stop  offset="1" style="stop-color:#263238"/>
				</linearGradient>
				<path fill="url(#SVGID_46_)" d="M1112.5,3.3v14h21v-14H1112.5z M1132.2,15.5h-18.4v-11h18.4V15.5z"/>
				<path id="rect3008-0_48_" opacity="0.2318" fill="#EEE8D5" enable-background="new    " d="M1125.4,4.5l-4.8,11h11.6v-11H1125.4
					z"/>
			</g>
		</g>
		<g display="inline">
			<g>
				<rect x="1124.8" y="9" fill="#FFFFFF" width="5.5" height="4.5"/>
				<rect x="1124.8" y="9" fill="#90A4AE" width="5.5" height="1"/>
				<line fill="none" stroke="#263238" stroke-width="0.5" stroke-miterlimit="10" x1="1125.7" y1="11.5" x2="1129.2" y2="11.5"/>
			</g>
			<g>
				<rect x="1116" y="6.5" fill="#FFFFFF" width="7" height="6"/>
				<rect x="1116" y="6.5" fill="#0097A7" width="7" height="1.6"/>
				<line fill="none" stroke="#263238" stroke-width="0.5" stroke-miterlimit="10" x1="1117.1" y1="9.5" x2="1121.9" y2="9.5"/>
			</g>
		</g>
	</g>
	<g id="终端_1_" display="none">
		<g display="inline">
			<g>
				<linearGradient id="SVGID_47_" gradientUnits="userSpaceOnUse" x1="1123" y1="20" x2="1123" y2="4">
					<stop  offset="0" style="stop-color:#C0C8CC"/>
					<stop  offset="1" style="stop-color:#CFD8DC"/>
				</linearGradient>
				<rect x="1112.8" y="4" fill="url(#SVGID_47_)" width="20.5" height="16"/>
				<path fill="#90A4AE" d="M1133,4.3v15.5h-20V4.3H1133 M1133.5,3.8h-21v16.5h21V3.8L1133.5,3.8z"/>
			</g>
			<g>
				<linearGradient id="SVGID_48_" gradientUnits="userSpaceOnUse" x1="1123" y1="17.6875" x2="1123" y2="6.3125">
					<stop  offset="0" style="stop-color:#101517"/>
					<stop  offset="1" style="stop-color:#263238"/>
				</linearGradient>
				<rect x="1114.9" y="6.3" fill="url(#SVGID_48_)" width="16.3" height="11.4"/>
				<path d="M1130.6,6.8v10.4h-15.3V6.8H1130.6 M1131.6,5.8h-17.3v12.4h17.3V5.8L1131.6,5.8z"/>
			</g>
			<polygon opacity="0.15" fill="#F5F5F5" enable-background="new    " points="1133.5,3.8 1126.8,3.8 1120.1,20.3 1133.5,20.3 			
				"/>
			<polyline fill="none" stroke="#FFFFFF" stroke-miterlimit="10" points="1116.6,8 1118.7,10 1116.7,12 			"/>
			<line fill="none" stroke="#FFFFFF" stroke-miterlimit="10" x1="1120" y1="12" x2="1123.8" y2="12"/>
		</g>
	</g>
	<g id="系统监控器" display="none">
		<g display="inline">
			<g>
				<linearGradient id="SVGID_49_" gradientUnits="userSpaceOnUse" x1="1123" y1="20" x2="1123" y2="4">
					<stop  offset="0" style="stop-color:#C0C8CC"/>
					<stop  offset="1" style="stop-color:#CFD8DC"/>
				</linearGradient>
				<rect x="1112.8" y="4" fill="url(#SVGID_49_)" width="20.5" height="16"/>
				<path fill="#90A4AE" d="M1133,4.3v15.5h-20V4.3H1133 M1133.5,3.8h-21v16.5h21V3.8L1133.5,3.8z"/>
			</g>
			<g>
				<linearGradient id="SVGID_50_" gradientUnits="userSpaceOnUse" x1="1123" y1="17.6875" x2="1123" y2="6.3125">
					<stop  offset="0" style="stop-color:#689F38"/>
					<stop  offset="0.1166" style="stop-color:#568334"/>
					<stop  offset="0.2875" style="stop-color:#41602F"/>
					<stop  offset="0.4612" style="stop-color:#30452B"/>
					<stop  offset="0.6366" style="stop-color:#243128"/>
					<stop  offset="0.8148" style="stop-color:#1C2627"/>
					<stop  offset="1" style="stop-color:#1A2226"/>
				</linearGradient>
				<rect x="1114.9" y="6.3" fill="url(#SVGID_50_)" width="16.3" height="11.4"/>
				<g>
					<path d="M1130.6,6.8v10.4h-15.3V6.8H1130.6 M1131.6,5.8h-17.3v12.4h17.3V5.8L1131.6,5.8z"/>
				</g>
			</g>
			<polygon opacity="0.15" fill="#F5F5F5" enable-background="new    " points="1133.5,3.8 1126.8,3.8 1120.1,20.3 1133.5,20.3 			
				"/>
			<path fill="none" stroke="#FFFFFF" stroke-miterlimit="10" d="M1116.7,12"/>
			<path fill="none" stroke="#FFFFFF" stroke-miterlimit="10" d="M1116.6,8"/>
		</g>
		<polyline display="inline" fill="none" stroke="#8BC34A" stroke-width="0.8" stroke-miterlimit="10" points="1116.3,11.8 
			1119.1,11.8 1120.3,9 1121.6,15 1122.5,12.3 1123,13 1124.4,10.4 1125.4,15 1127.6,11.8 1129.7,11.8 		"/>
	</g>
	<g id="图层_4" display="none">
	</g>
	<rect x="1067.4" y="-30.8" display="none" fill="none" stroke="#FF0000" stroke-miterlimit="10" width="71.9" height="84.3"/>
	<g id="光盘_2_">
		<g>
			<path fill="#454545" d="M1123,23c-6.1,0-11-4.9-11-11c0-6.1,4.9-11,11-11s11,4.9,11,11C1134,18.1,1129.1,23,1123,23z M1123,11.1
				c-0.5,0-0.9,0.4-0.9,0.9s0.4,0.9,0.9,0.9s0.9-0.4,0.9-0.9S1123.5,11.1,1123,11.1z"/>
			<path fill="#686868" d="M1123,1.5c-5.8,0-10.5,4.7-10.5,10.5c0,5.8,4.7,10.5,10.5,10.5s10.5-4.7,10.5-10.5
				C1133.5,6.2,1128.8,1.5,1123,1.5z M1123,22.2c-5.6,0-10.2-4.6-10.2-10.2c0-5.6,4.6-10.2,10.2-10.2s10.2,4.6,10.2,10.2
				C1133.2,17.6,1128.6,22.2,1123,22.2z"/>
			
				<radialGradient id="SVGID_51_" cx="1130.252" cy="10.922" r="9.1566" gradientTransform="matrix(0.9556 0 0 0.9556 42.9312 1.5629)" gradientUnits="userSpaceOnUse">
				<stop  offset="0" style="stop-color:#ABABAB"/>
				<stop  offset="0.3925" style="stop-color:#9D9D9D"/>
				<stop  offset="0.6129" style="stop-color:#9C9C9C"/>
				<stop  offset="0.6613" style="stop-color:#A2A2A2"/>
				<stop  offset="0.7527" style="stop-color:#979797"/>
				<stop  offset="1" style="stop-color:#7D7D7D"/>
			</radialGradient>
			<path fill="url(#SVGID_51_)" d="M1123,3.3c-4.8,0-8.8,3.9-8.8,8.8c0,4.8,3.9,8.8,8.8,8.8s8.8-3.9,8.8-8.8
				C1131.8,7.2,1127.8,3.3,1123,3.3z M1123,15.1c-1.7,0-3.1-1.4-3.1-3.1c0-1.7,1.4-3.1,3.1-3.1s3.1,1.4,3.1,3.1
				C1126.1,13.7,1124.7,15.1,1123,15.1z"/>
			<g opacity="0.7" enable-background="new    ">
				<path fill="#FFFFFF" d="M1126.1,12.2l5.4,0.4l0.3,0c0.1-1.3-0.1-2.5-0.6-3.7l-5.3,2C1126,11.3,1126.1,11.8,1126.1,12.2z"/>
				<path fill="#FFFFFF" d="M1119.9,11.8l-5.4-0.4l-0.3,0c-0.1,1.3,0.1,2.5,0.6,3.7l5.3-2C1120,12.7,1119.9,12.2,1119.9,11.8z"/>
			</g>
			<g opacity="0.7" enable-background="new    ">
				<path fill="#FFFFFF" d="M1125.6,10.5l4.7-2.7l0.2-0.2c-0.6-1.1-1.5-2-2.5-2.7l-3.3,4.6C1125.1,9.7,1125.4,10.1,1125.6,10.5z"/>
				<path fill="#FFFFFF" d="M1120.4,13.5l-4.7,2.7l-0.2,0.2c0.6,1.1,1.5,2,2.5,2.7l3.3-4.6C1120.9,14.3,1120.6,13.9,1120.4,13.5z"/>
			</g>
			<path fill="#F5F5F5" enable-background="new    " d="M1123,1.8c-5.6,0-10.2,4.6-10.2,10.2c0,5.6,4.6,10.2,10.2,10.2
				s10.2-4.6,10.2-10.2C1133.2,6.4,1128.6,1.8,1123,1.8z M1123,20.8c-4.8,0-8.8-3.9-8.8-8.8c0-4.8,3.9-8.8,8.8-8.8s8.8,3.9,8.8,8.8
				C1131.8,16.8,1127.8,20.8,1123,20.8z"/>
			<path fill="#686868" d="M1123,8.9c-1.7,0-3.1,1.4-3.1,3.1c0,1.7,1.4,3.1,3.1,3.1s3.1-1.4,3.1-3.1
				C1126.1,10.3,1124.7,8.9,1123,8.9z M1123,14.7c-1.5,0-2.7-1.2-2.7-2.7c0-1.5,1.2-2.7,2.7-2.7s2.7,1.2,2.7,2.7
				C1125.7,13.5,1124.5,14.7,1123,14.7z"/>
			<path fill="#F5F5F5" enable-background="new    " d="M1123,9.3c-1.5,0-2.7,1.2-2.7,2.7c0,1.5,1.2,2.7,2.7,2.7s2.7-1.2,2.7-2.7
				C1125.7,10.5,1124.5,9.3,1123,9.3z M1123,13.4c-0.8,0-1.4-0.6-1.4-1.4c0-0.8,0.6-1.4,1.4-1.4s1.4,0.6,1.4,1.4
				C1124.4,12.8,1123.8,13.4,1123,13.4z"/>
		</g>
	</g>
</g>
</svg>
