<?xml version="1.0" encoding="iso-8859-1"?>
<!-- Generator: Adobe Illustrator 21.0.0, SVG Export Plug-In . SVG Version: 6.00 Build 0)  -->
<svg version="1.1" id="&#x56FE;&#x5C42;_1" xmlns="http://www.w3.org/2000/svg" xmlns:xlink="http://www.w3.org/1999/xlink" x="0px"
	 y="0px" viewBox="0 0 24 24" style="enable-background:new 0 0 24 24;" xml:space="preserve">
<title>画板 24</title>
<g id="&#x5F00;&#x59CB;&#x83DC;&#x5355;&#x5E94;&#x7528;&#x56FE;&#x6807;">
	<g id="&#x5E73;&#x677F;">
		<g id="_24">
			
				<linearGradient id="SVGID_1_" gradientUnits="userSpaceOnUse" x1="12" y1="24.5" x2="12" y2="3.5" gradientTransform="matrix(1 0 0 -1 0 26)">
				<stop  offset="0" style="stop-color:#455A64"/>
				<stop  offset="1" style="stop-color:#263238"/>
			</linearGradient>
			<path style="fill:url(#SVGID_1_);stroke:#212121;stroke-width:0.5;stroke-miterlimit:10;" d="M4.5,1.5h15
				C20.328,1.5,21,2.172,21,3v18c0,0.828-0.672,1.5-1.5,1.5h-15C3.672,22.5,3,21.828,3,21V3C3,2.172,3.672,1.5,4.5,1.5z"/>
			
				<linearGradient id="SVGID_2_" gradientUnits="userSpaceOnUse" x1="13.5826" y1="22.1817" x2="10.4126" y2="8.0917" gradientTransform="matrix(1 0 0 -1 0 26)">
				<stop  offset="0" style="stop-color:#B3E5FC"/>
				<stop  offset="1" style="stop-color:#0288D1"/>
			</linearGradient>
			<rect x="5.14" y="3.64" style="fill:url(#SVGID_2_);" width="13.71" height="14.47"/>
			<polygon style="opacity:0.23;fill:#EEE8D5;enable-background:new    ;" points="18.87,18.14 9.33,18.14 13.24,3.67 18.87,3.67 
							"/>
			<circle style="fill:#1D272B;" cx="12" cy="20.23" r="1.51"/>
			<circle style="fill:#455A64;" cx="11.9" cy="20.33" r="1.22"/>
		</g>
	</g>
</g>
<g id="&#x89C4;&#x8303;">
	<rect x="-54.67" y="-32.3" style="fill:none;stroke:#FF0000;stroke-miterlimit:10;" width="90.61" height="84.25"/>
</g>
</svg>
