<svg xmlns="http://www.w3.org/2000/svg" xmlns:xlink="http://www.w3.org/1999/xlink" viewBox="0 0 24 24"><defs><style>.cls-1,.cls-16{fill:none;}.cls-2{fill:#455a64;}.cls-3{fill:#263238;}.cls-4{fill:url(#linear-gradient);}.cls-5{fill:url(#linear-gradient-2);}.cls-6{clip-path:url(#clip-path);}.cls-7{opacity:0.4;}.cls-8{opacity:0.7;fill:url(#linear-gradient-3);}.cls-9{opacity:0.8;fill:url(#linear-gradient-4);}.cls-10{opacity:0.12;isolation:isolate;fill:url(#linear-gradient-5);}.cls-11{fill:url(#linear-gradient-6);}.cls-12{opacity:0.2;fill:url(#radial-gradient);}.cls-13{opacity:0.6;fill:url(#linear-gradient-7);}.cls-14{fill:#1d272b;}.cls-15{fill:url(#linear-gradient-8);}.cls-16{stroke:red;stroke-miterlimit:10;}</style><linearGradient id="linear-gradient" x1="12.07" y1="22.21" x2="12.07" y2="19.68" gradientUnits="userSpaceOnUse"><stop offset="0" stop-color="#455a64"/><stop offset="1" stop-color="#263238"/></linearGradient><linearGradient id="linear-gradient-2" x1="12" y1="3.34" x2="12" y2="17.18" gradientUnits="userSpaceOnUse"><stop offset="0" stop-color="#b3e5fc"/><stop offset="1" stop-color="#0288d1"/></linearGradient><clipPath id="clip-path"><rect id="rect3008" class="cls-1" x="2.82" y="3.34" width="18.36" height="13.84"/></clipPath><linearGradient id="linear-gradient-3" x1="15.5" y1="11.52" x2="26.47" y2="0.55" gradientUnits="userSpaceOnUse"><stop offset="0" stop-color="#00698c"/><stop offset="1" stop-color="#00698c" stop-opacity="0"/></linearGradient><linearGradient id="linear-gradient-4" x1="10.95" y1="16.07" x2="21.92" y2="5.1" xlink:href="#linear-gradient-3"/><linearGradient id="linear-gradient-5" x1="-415.01" y1="964.43" x2="-415.01" y2="974.56" gradientTransform="matrix(0.71, 0.71, 0.71, -0.71, -377.77, 989.74)" gradientUnits="userSpaceOnUse"><stop offset="0"/><stop offset="1" stop-opacity="0"/></linearGradient><linearGradient id="linear-gradient-6" x1="-926.96" y1="987.28" x2="-920.36" y2="987.28" gradientTransform="translate(15.71 -2244.6) rotate(-45) scale(1.72 1.61)" gradientUnits="userSpaceOnUse"><stop offset="0" stop-color="#d7e866"/><stop offset="0.69" stop-color="#a4c33a"/><stop offset="1" stop-color="#7a9525" stop-opacity="0"/></linearGradient><radialGradient id="radial-gradient" cx="-925.49" cy="985.39" r="4.88" gradientTransform="translate(15.71 -2244.6) rotate(-45) scale(1.72 1.61)" gradientUnits="userSpaceOnUse"><stop offset="0" stop-color="#b0ff04"/><stop offset="0.56" stop-color="#5ac306"/><stop offset="0.74" stop-color="#13a400"/></radialGradient><linearGradient id="linear-gradient-7" x1="10.8" y1="14.27" x2="20.71" y2="4.36" gradientUnits="userSpaceOnUse"><stop offset="0" stop-color="#fff"/><stop offset="1" stop-color="#fff" stop-opacity="0"/></linearGradient><linearGradient id="linear-gradient-8" x1="12" y1="2.44" x2="12" y2="18.6" xlink:href="#linear-gradient"/></defs><title>画板 24</title><g id="控制面板"><g id="显示"><g id="_24" data-name="24"><path class="cls-2" d="M6.06,21.81a.74.74,0,0,1-.77-.71v-.62L8.56,19h.56v-.11H1.25V2.19h21.5V18.85H14.88V19h.57l3.4,1.52v.62a.74.74,0,0,1-.77.71Z"/><path class="cls-3" d="M22.5,2.44V18.6H14.63v.61h.76l3.21,1.44v.46a.49.49,0,0,1-.52.46h-12a.49.49,0,0,1-.52-.46v-.46l3.08-1.44h.76V18.6H1.5V2.44h21m.5-.5H1V19.1H7.67L5.32,20.19,5,20.33v.78a1,1,0,0,0,1,1h12a1,1,0,0,0,1-1v-.78l-.3-.13L16.36,19.1H23V1.94Z"/><polygon class="cls-4" points="5.54 20.64 8.62 19.21 15.39 19.21 18.59 20.64 5.54 20.64"/><g id="rect3008-2" data-name="rect3008"><rect class="cls-5" x="2.82" y="3.34" width="18.36" height="13.84"/></g><g class="cls-6"><g class="cls-7"><path class="cls-8" d="M17.05,8.8a1,1,0,0,1-1-1V-5.89h-.71a1,1,0,0,0-1,1V9.81a1,1,0,0,0,1,1h18.4a1,1,0,0,0,1-1v-1Z"/><path class="cls-9" d="M12.5,13.35a1,1,0,0,1-1-1V-1.34h-.71a1,1,0,0,0-1,1V14.36a1,1,0,0,0,1,1h18.4a1,1,0,0,0,1-1v-1Z"/></g></g><g id="layer4"><path id="path4238" class="cls-10" d="M12.32,9.25,10.75,7.68a.13.13,0,0,0-.23.09v6.63a.13.13,0,0,0,.13.14H17.3a.13.13,0,0,0,.13-.14.13.13,0,0,0,0-.09l-1.57-1.57,4.94-8.54Z"/><path id="path3288-2" class="cls-11" d="M17.4,14.31H10.75V7.67l1.66,1.66,8.36-5.12-5,8.44Z"/><path id="path3288-2-2" data-name="path3288-2" class="cls-12" d="M17.4,14.31H10.75V7.67l1.66,1.66,8.36-5.12-5,8.44Z"/><path id="path4200" class="cls-13" d="M20.68,4.32,12.32,9.64l.11.11,8.14-5.32-5.25,8.21.11.11ZM10.91,8v6.13H17l-1.61-1.61-.11.11L16.66,14h-5.6V8.42l1.34,1.34.11-.11Z"/></g><rect class="cls-14" x="9.38" y="18.43" width="5.25" height="1.57"/><path class="cls-15" d="M1.5,2.44V18.6h21V2.44ZM21.18,16.78H2.82v-13H21.18Z"/><path class="cls-2" d="M18.07,20.64H5.54v.46a.49.49,0,0,0,.52.46h12a.49.49,0,0,0,.52-.46v-.46Z"/></g></g></g><g id="规范"><rect class="cls-16" x="-54.67" y="-32.3" width="90.61" height="84.25"/></g></svg>