<?xml version="1.0" encoding="iso-8859-1"?>
<!-- Generator: Adobe Illustrator 21.0.0, SVG Export Plug-In . SVG Version: 6.00 Build 0)  -->
<svg version="1.1" id="&#x56FE;&#x5C42;_1" xmlns="http://www.w3.org/2000/svg" xmlns:xlink="http://www.w3.org/1999/xlink" x="0px"
	 y="0px" viewBox="0 0 24 24" style="enable-background:new 0 0 24 24;" xml:space="preserve">
<title>画板 24</title>
<g id="&#x63A7;&#x5236;&#x9762;&#x677F;">
	<g id="&#x663E;&#x793A;">
		<g id="_24">
			<path style="fill:#455A64;" d="M6.06,21.81c-0.408,0.017-0.753-0.3-0.77-0.709c0,0,0-0.001,0-0.001v-0.62L8.56,19h0.56v-0.11
				H1.25V2.19h21.5v16.66h-7.87V19h0.57l3.4,1.52v0.62c-0.016,0.408-0.36,0.726-0.769,0.71c0,0-0.001,0-0.001,0L6.06,21.81z"/>
			<path style="fill:#263238;" d="M22.5,2.44V18.6h-7.87v0.61h0.76l3.21,1.44v0.46c-0.016,0.27-0.248,0.476-0.518,0.46
				c-0.001,0-0.001,0-0.002,0h-12c-0.27,0.017-0.503-0.188-0.52-0.458c0-0.001,0-0.001,0-0.002v-0.46l3.08-1.44H9.4V18.6H1.5V2.44
				H22.5 M23,1.94H1V19.1h6.67l-2.35,1.09L5,20.33v0.78c0,0.552,0.448,1,1,1h12c0.552,0,1-0.448,1-1v-0.78l-0.3-0.13l-2.34-1.1H23
				V1.94z"/>
			
				<linearGradient id="SVGID_1_" gradientUnits="userSpaceOnUse" x1="12.065" y1="3.79" x2="12.065" y2="6.32" gradientTransform="matrix(1 0 0 -1 0 26)">
				<stop  offset="0" style="stop-color:#455A64"/>
				<stop  offset="1" style="stop-color:#263238"/>
			</linearGradient>
			<polygon style="fill:url(#SVGID_1_);" points="5.54,20.64 8.62,19.21 15.39,19.21 18.59,20.64 			"/>
			<g id="rect3008-2">
				
					<linearGradient id="SVGID_2_" gradientUnits="userSpaceOnUse" x1="12" y1="22.66" x2="12" y2="8.82" gradientTransform="matrix(1 0 0 -1 0 26)">
					<stop  offset="0" style="stop-color:#B3E5FC"/>
					<stop  offset="1" style="stop-color:#0288D1"/>
				</linearGradient>
				<rect x="2.82" y="3.34" style="fill:url(#SVGID_2_);" width="18.36" height="13.84"/>
			</g>
			<g>
				<defs>
					<rect id="SVGID_3_" x="2.82" y="3.34" width="18.36" height="13.84"/>
				</defs>
				<clipPath id="SVGID_4_">
					<use xlink:href="#SVGID_3_"  style="overflow:visible;"/>
				</clipPath>
				<g style="clip-path:url(#SVGID_4_);">
					<g style="opacity:0.4;">
						
							<linearGradient id="SVGID_5_" gradientUnits="userSpaceOnUse" x1="15.49" y1="14.49" x2="26.46" y2="25.46" gradientTransform="matrix(1 0 0 -1 0 26)">
							<stop  offset="0" style="stop-color:#00698C"/>
							<stop  offset="1" style="stop-color:#00698C;stop-opacity:0"/>
						</linearGradient>
						<path style="opacity:0.7;fill:url(#SVGID_5_);enable-background:new    ;" d="M17.05,8.8c-0.552,0-1-0.448-1-1V-5.89h-0.71
							c-0.552,0-1,0.448-1,1v14.7c0,0.552,0.448,1,1,1h18.4c0.552,0,1-0.448,1-1v-1L17.05,8.8z"/>
						
							<linearGradient id="SVGID_6_" gradientUnits="userSpaceOnUse" x1="10.94" y1="9.94" x2="21.91" y2="20.91" gradientTransform="matrix(1 0 0 -1 0 26)">
							<stop  offset="0" style="stop-color:#00698C"/>
							<stop  offset="1" style="stop-color:#00698C;stop-opacity:0"/>
						</linearGradient>
						<path style="opacity:0.8;fill:url(#SVGID_6_);enable-background:new    ;" d="M12.5,13.35c-0.552,0-1-0.448-1-1V-1.34h-0.71
							c-0.552,0-1,0.448-1,1v14.7c0,0.552,0.448,1,1,1h18.4c0.552,0,1-0.448,1-1v-1L12.5,13.35z"/>
					</g>
				</g>
			</g>
			<g id="layer4">
				
					<linearGradient id="path4238_1_" gradientUnits="userSpaceOnUse" x1="-410.8792" y1="-927.4863" x2="-410.8792" y2="-937.6163" gradientTransform="matrix(0.71 0.71 -0.71 0.71 -353.27 961.78)">
					<stop  offset="0" style="stop-color:#000000"/>
					<stop  offset="1" style="stop-color:#000000;stop-opacity:0"/>
				</linearGradient>
				<path id="path4238" style="opacity:0.12;fill:url(#path4238_1_);enable-background:new    ;" d="M12.32,9.25l-1.57-1.57
					c-0.046-0.055-0.128-0.063-0.183-0.017c-0.032,0.026-0.049,0.066-0.047,0.107v6.63c-0.006,0.072,0.048,0.134,0.12,0.14
					c0.003,0,0.007,0,0.01,0h6.65c0.072,0,0.13-0.058,0.13-0.13c0-0.003,0-0.007,0-0.01c0.011-0.029,0.011-0.061,0-0.09l-1.57-1.57
					L20.8,4.2L12.32,9.25z"/>
				
					<linearGradient id="path3288-2_1_" gradientUnits="userSpaceOnUse" x1="-1261.1829" y1="-1050.9885" x2="-1254.5829" y2="-1050.9885" gradientTransform="matrix(1.2162 -1.2162 -1.1384 -1.1384 352.6879 -2720.6018)">
					<stop  offset="0" style="stop-color:#D7E866"/>
					<stop  offset="0.69" style="stop-color:#A4C33A"/>
					<stop  offset="1" style="stop-color:#7A9525;stop-opacity:0"/>
				</linearGradient>
				<path id="path3288-2" style="fill:url(#path3288-2_1_);" d="M17.4,14.31h-6.65V7.67l1.66,1.66l8.36-5.12l-5,8.44L17.4,14.31z"/>
				
					<radialGradient id="path3288-2-2_1_" cx="-1259.7129" cy="-1046.4487" r="4.88" gradientTransform="matrix(1.2162 -1.2162 -1.1384 -1.1384 352.6879 -2720.6018)" gradientUnits="userSpaceOnUse">
					<stop  offset="0" style="stop-color:#B0FF04"/>
					<stop  offset="0.56" style="stop-color:#5AC306"/>
					<stop  offset="0.74" style="stop-color:#13A400"/>
				</radialGradient>
				<path id="path3288-2-2" style="opacity:0.2;fill:url(#path3288-2-2_1_);enable-background:new    ;" d="M17.4,14.31h-6.65V7.67
					l1.66,1.66l8.36-5.12l-5,8.44L17.4,14.31z"/>
				
					<linearGradient id="path4200_1_" gradientUnits="userSpaceOnUse" x1="10.775" y1="11.755" x2="20.685" y2="21.665" gradientTransform="matrix(1 0 0 -1 0 26)">
					<stop  offset="0" style="stop-color:#FFFFFF"/>
					<stop  offset="1" style="stop-color:#FFFFFF;stop-opacity:0"/>
				</linearGradient>
				<path id="path4200" style="opacity:0.6;fill:url(#path4200_1_);enable-background:new    ;" d="M20.68,4.32l-8.36,5.32
					l0.11,0.11l8.14-5.32l-5.25,8.21l0.11,0.11L20.68,4.32z M10.91,8v6.13H17l-1.61-1.61l-0.11,0.11L16.66,14h-5.6V8.42l1.34,1.34
					l0.11-0.11L10.91,8z"/>
			</g>
			<rect x="9.38" y="18.43" style="fill:#1D272B;" width="5.25" height="1.57"/>
			
				<linearGradient id="SVGID_7_" gradientUnits="userSpaceOnUse" x1="12" y1="23.56" x2="12" y2="7.4" gradientTransform="matrix(1 0 0 -1 0 26)">
				<stop  offset="0" style="stop-color:#455A64"/>
				<stop  offset="1" style="stop-color:#263238"/>
			</linearGradient>
			<path style="fill:url(#SVGID_7_);" d="M1.5,2.44V18.6h21V2.44H1.5z M21.18,16.78H2.82v-13h18.36V16.78z"/>
			<path style="fill:#455A64;" d="M18.07,20.64H5.54v0.46c0.016,0.27,0.248,0.476,0.518,0.46c0.001,0,0.001,0,0.002,0h12
				c0.27,0.017,0.503-0.188,0.52-0.458c0-0.001,0-0.001,0-0.002v-0.46H18.07z"/>
		</g>
	</g>
</g>
<g id="&#x89C4;&#x8303;">
	<rect x="-54.67" y="-32.3" style="fill:none;stroke:#FF0000;stroke-miterlimit:10;" width="90.61" height="84.25"/>
</g>
</svg>
