<svg xmlns="http://www.w3.org/2000/svg" xmlns:xlink="http://www.w3.org/1999/xlink" viewBox="0 0 24 24"><defs><style>.cls-1{fill:#1b5e20;}.cls-2{fill:url(#linear-gradient);}.cls-3,.cls-7{fill:#fff;}.cls-3{opacity:0.24;}.cls-3,.cls-4,.cls-5,.cls-7,.cls-8{isolation:isolate;}.cls-4{fill:#33691e;}.cls-5{fill:#dcedc8;}.cls-6{fill:#657b83;}.cls-7{opacity:0.31;}.cls-8{fill:#073642;opacity:0.65;}.cls-9{fill:none;stroke:red;stroke-miterlimit:10;}</style><linearGradient id="linear-gradient" x1="7.38" y1="17.46" x2="16.45" y2="1.91" gradientUnits="userSpaceOnUse"><stop offset="0.24" stop-color="#689f38"/><stop offset="0.94" stop-color="#8bc34a"/></linearGradient></defs><title>画板 24</title><g id="其他"><g id="U盘"><g id="_24" data-name="24"><polygon class="cls-1" points="17.44 1 6.56 1 6.31 1 6.31 1.25 6.31 17.77 6.31 18.02 6.56 18.02 7.95 18.02 7.95 22.75 7.95 23 8.2 23 15.8 23 16.05 23 16.05 22.75 16.05 18.02 17.44 18.02 17.69 18.02 17.69 17.77 17.69 1.25 17.69 1 17.44 1"/><rect class="cls-2" x="6.75" y="1.5" width="10.5" height="16.07"/><rect class="cls-3" x="7.85" y="1.5" width="3.08" height="16.07"/><path id="path1334" class="cls-4" d="M9.22,8.82a.82.82,0,0,0,.55.74v.83a1.13,1.13,0,0,0,.38.77h0l1.55,1.26a.49.49,0,0,1,.13.29v.72a1,1,0,0,0-.8,1,1.1,1.1,0,0,0,1.17,1,1.1,1.1,0,0,0,1.17-1,1,1,0,0,0-.8-1v-.71h0s0,0,0,0V11.52a.47.47,0,0,1,.13-.29l.77-.63.54-.44.17-.15.05,0h0v0h0a1.12,1.12,0,0,0,.38-.77V8.39h.52V6.78H13.46V8.39H14v.77a.46.46,0,0,1-.13.29l-1.23,1V6h.81L12.24,4.1,11,6h.84v5.71l-1.23-1a.49.49,0,0,1-.13-.29V9.57a.82.82,0,0,0,.57-.75A.89.89,0,0,0,10.16,8,.88.88,0,0,0,9.22,8.82Z"/><path id="path1334-2" data-name="path1334" class="cls-5" d="M9,8.66a.82.82,0,0,0,.56.74v.83a1.13,1.13,0,0,0,.38.77h0l1.55,1.26a.49.49,0,0,1,.13.29v.72a1,1,0,0,0-.8,1,1.1,1.1,0,0,0,1.17,1,1.1,1.1,0,0,0,1.17-1,1,1,0,0,0-.8-1v-.71h0V11.36a.47.47,0,0,1,.13-.29l.77-.63.54-.44L14,9.86l.05,0h0v0h0A1.13,1.13,0,0,0,14.5,9V8.22H15V6.61h-1.8V8.22h.52V9a.47.47,0,0,1-.13.29l-1.23,1V5.82h.81L12,3.93,10.8,5.82h.84v5.71l-1.23-1a.49.49,0,0,1-.13-.29V9.4a.82.82,0,0,0,.57-.75.89.89,0,0,0-.94-.82A.88.88,0,0,0,9,8.66Z"/><rect class="cls-6" x="8.38" y="18.03" width="7.24" height="4.55"/><rect id="rect3765" class="cls-7" x="9.35" y="18.03" width="2.65" height="4.55"/><rect id="rect3767" class="cls-8" x="12.88" y="19.86" width="1.77" height="1.78"/><rect id="rect3769" class="cls-8" x="9.35" y="19.86" width="1.77" height="1.78"/></g></g></g><g id="规范"><rect class="cls-9" x="-54.67" y="-32.3" width="90.61" height="84.25"/></g></svg>