<?xml version="1.0" encoding="iso-8859-1"?>
<!-- Generator: Adobe Illustrator 21.0.0, SVG Export Plug-In . SVG Version: 6.00 Build 0)  -->
<svg version="1.1" id="&#x56FE;&#x5C42;_1" xmlns="http://www.w3.org/2000/svg" xmlns:xlink="http://www.w3.org/1999/xlink" x="0px"
	 y="0px" viewBox="0 0 24 24" style="enable-background:new 0 0 24 24;" xml:space="preserve">
<title>画板 24</title>
<g id="&#x5F00;&#x59CB;&#x83DC;&#x5355;&#x5E94;&#x7528;&#x56FE;&#x6807;">
	<g id="&#x786C;&#x76D8;">
		<g id="_24">
			<g id="g4">
				<g id="g6">
					<path id="path10" style="fill:#263238;" d="M1.5,18.1v3.2h21v-3.2H1.5z"/>
					<polygon style="fill:#E0E0E0;" points="22.2,16.8 19.5,2.7 3.9,2.7 1.7,16.8 					"/>
					<polygon style="opacity:0.25;fill:#9E9E9E;enable-background:new    ;" points="22.2,16.8 19.5,2.7 14.1,2.7 10.8,16.8 					
						"/>
					<polygon style="fill:#455A64;" points="1.7,16.8 1.5,18.1 22.5,18.1 22.2,16.8 					"/>
					<polygon style="opacity:0.45;fill:#FFFFFF;enable-background:new    ;" points="5.1,16.8 5.8,2.7 4.6,2.7 2.5,16.8 					"/>
				</g>
				<g id="g12">
					
						<linearGradient id="path14_1_" gradientUnits="userSpaceOnUse" x1="-2177.8499" y1="-4194.5801" x2="-2177.8499" y2="-4193.6201" gradientTransform="matrix(1 0 0 -1 2185.95 -4174.3101)">
						<stop  offset="0" style="stop-color:#455A64"/>
						<stop  offset="0.21" style="stop-color:#36474F"/>
						<stop  offset="1" style="stop-color:#000000"/>
					</linearGradient>
					<path id="path14" style="fill:url(#path14_1_);" d="M13,20.3H3.2v-1H13V20.3z"/>
					
						<linearGradient id="path16_1_" gradientUnits="userSpaceOnUse" x1="-2167.2" y1="-4194.5801" x2="-2167.2" y2="-4193.6201" gradientTransform="matrix(1 0 0 -1 2185.95 -4174.3101)">
						<stop  offset="0" style="stop-color:#38A3E7"/>
						<stop  offset="1" style="stop-color:#1976D2"/>
					</linearGradient>
					<path id="path16" style="fill:url(#path16_1_);" d="M18,20.3h1.5v-1H18V20.3z"/>
				</g>
				<path style="fill:#616161;" d="M19.5,2.7l2.7,14.1l0.3,1.4v3.2h-21v-3.2l0.2-1.4l2.2-14h0.8L14,2.7l0,0H19.5 M19.9,2.2h-6.2l0,0
					h-9H3.4v0.4l-2.2,14L1,18.1v3.8h22v-3.8l-0.3-1.4L20,2.6L19.9,2.2L19.9,2.2z"/>
			</g>
		</g>
	</g>
</g>
</svg>
