<?xml version="1.0" encoding="iso-8859-1"?>
<!-- Generator: Adobe Illustrator 21.0.0, SVG Export Plug-In . SVG Version: 6.00 Build 0)  -->
<svg version="1.1" id="&#x56FE;&#x5C42;_1" xmlns="http://www.w3.org/2000/svg" xmlns:xlink="http://www.w3.org/1999/xlink" x="0px"
	 y="0px" viewBox="0 0 24 24" style="enable-background:new 0 0 24 24;" xml:space="preserve">
<title>画板 24</title>
<g id="&#x5176;&#x4ED6;">
	<g id="U&#x76D8;">
		<g id="_24">
			<polygon style="fill:#1B5E20;" points="17.44,1 6.56,1 6.31,1 6.31,1.25 6.31,17.77 6.31,18.02 6.56,18.02 7.95,18.02 
				7.95,22.75 7.95,23 8.2,23 15.8,23 16.05,23 16.05,22.75 16.05,18.02 17.44,18.02 17.69,18.02 17.69,17.77 17.69,1.25 17.69,1 
							"/>
			
				<linearGradient id="SVGID_1_" gradientUnits="userSpaceOnUse" x1="7.3781" y1="8.5411" x2="16.4481" y2="24.0911" gradientTransform="matrix(1 0 0 -1 0 26)">
				<stop  offset="0.24" style="stop-color:#689F38"/>
				<stop  offset="0.94" style="stop-color:#8BC34A"/>
			</linearGradient>
			<rect x="6.75" y="1.5" style="fill:url(#SVGID_1_);" width="10.5" height="16.07"/>
			<rect x="7.85" y="1.5" style="opacity:0.24;fill:#FFFFFF;enable-background:new    ;" width="3.08" height="16.07"/>
			<path id="path1334" style="fill:#33691E;" d="M9.22,8.82c0.014,0.336,0.232,0.63,0.55,0.74v0.83
				c0.02,0.297,0.157,0.573,0.38,0.77l0,0l1.55,1.26c0.074,0.08,0.12,0.182,0.13,0.29v0.72c-0.473,0.096-0.81,0.517-0.8,1
				c0.053,0.596,0.573,1.04,1.17,1c0.597,0.04,1.117-0.404,1.17-1c0.01-0.483-0.327-0.904-0.8-1v-0.71l0,0l0,0v-1.2
				c0.008-0.109,0.054-0.211,0.13-0.29l0.77-0.63l0.54-0.44l0.17-0.15h0.05l0,0l0,0l0,0c0.224-0.196,0.361-0.473,0.38-0.77V8.39
				h0.52V6.78h-1.67v1.61H14v0.77c-0.008,0.109-0.054,0.212-0.13,0.29l-1.23,1V6h0.81l-1.21-1.9L11,6h0.84v5.71l-1.23-1
				c-0.074-0.08-0.12-0.182-0.13-0.29V9.57c0.329-0.105,0.557-0.405,0.57-0.75C11.013,8.356,10.625,7.999,10.16,8
				C9.675,7.966,9.254,8.331,9.22,8.816C9.22,8.817,9.22,8.819,9.22,8.82z"/>
			<path id="path1334-2" style="fill:#DCEDC8;" d="M9,8.66C9.016,8.999,9.238,9.293,9.56,9.4v0.83c0.02,0.297,0.157,0.573,0.38,0.77
				l0,0l1.55,1.26c0.074,0.08,0.12,0.182,0.13,0.29v0.72c-0.473,0.096-0.81,0.517-0.8,1c0.053,0.596,0.573,1.04,1.17,1
				c0.597,0.04,1.117-0.404,1.17-1c0.01-0.483-0.327-0.904-0.8-1v-0.71l0,0v-1.2c0.008-0.109,0.054-0.211,0.13-0.29l0.77-0.63
				L13.8,10L14,9.86h0.05l0,0l0,0l0,0C14.322,9.656,14.487,9.34,14.5,9V8.22H15V6.61h-1.8v1.61h0.52V9
				c-0.008,0.109-0.054,0.211-0.13,0.29l-1.23,1V5.82h0.81L12,3.93l-1.2,1.89h0.84v5.71l-1.23-1c-0.074-0.08-0.12-0.182-0.13-0.29
				V9.4c0.329-0.105,0.557-0.405,0.57-0.75c-0.037-0.484-0.455-0.849-0.94-0.82C9.431,7.813,9.027,8.182,9,8.66z"/>
			<rect x="8.38" y="18.03" style="fill:#657B83;" width="7.24" height="4.55"/>
			
				<rect id="rect3765" x="9.35" y="18.03" style="opacity:0.31;fill:#FFFFFF;enable-background:new    ;" width="2.65" height="4.55"/>
			
				<rect id="rect3767" x="12.88" y="19.86" style="opacity:0.65;fill:#073642;enable-background:new    ;" width="1.77" height="1.78"/>
			
				<rect id="rect3769" x="9.35" y="19.86" style="opacity:0.65;fill:#073642;enable-background:new    ;" width="1.77" height="1.78"/>
		</g>
	</g>
</g>
<g id="&#x89C4;&#x8303;">
	<rect x="-54.67" y="-32.3" style="fill:none;stroke:#FF0000;stroke-miterlimit:10;" width="90.61" height="84.25"/>
</g>
</svg>
