<svg xmlns="http://www.w3.org/2000/svg" xmlns:xlink="http://www.w3.org/1999/xlink" viewBox="0 0 24 24"><defs><style>.cls-1{fill:#616161;}.cls-2{fill:#263238;}.cls-3,.cls-9{fill:#e0e0e0;}.cls-4{fill:#9e9e9e;opacity:0.25;}.cls-4,.cls-5,.cls-9{isolation:isolate;}.cls-5{fill:#fff;opacity:0.45;}.cls-6{fill:url(#linear-gradient);}.cls-7{fill:url(#linear-gradient-2);}.cls-8{fill:#949494;}.cls-9{opacity:0.86;}.cls-10{fill:#a5a5a5;}.cls-11{fill:none;stroke:red;stroke-miterlimit:10;}</style><linearGradient id="linear-gradient" x1="-3322" y1="2579.12" x2="-3322" y2="2578.16" gradientTransform="translate(3332.43 -2561.31)" gradientUnits="userSpaceOnUse"><stop offset="0" stop-color="#455a64"/><stop offset="0.21" stop-color="#36474f"/><stop offset="1"/></linearGradient><linearGradient id="linear-gradient-2" x1="-3311.96" y1="2579.12" x2="-3311.96" y2="2578.16" gradientTransform="translate(3332.43 -2561.31)" gradientUnits="userSpaceOnUse"><stop offset="0" stop-color="#38a3e7"/><stop offset="1" stop-color="#1976d2"/></linearGradient></defs><title>画板 24</title><g id="其他"><g id="光驱"><path class="cls-1" d="M10.41,23a8.25,8.25,0,0,1-6.78-3.6H1V15.91l.22-1.37L3.45,1H20l2.79,13.53L23,15.82V19.4h-5.8A8.25,8.25,0,0,1,10.41,23Z"/><g id="g4"><g id="g6"><path id="path10" class="cls-2" d="M1.5,15.91v3h21v-3Z"/><polygon class="cls-3" points="22.25 14.63 19.55 1.5 3.88 1.5 1.71 14.63 22.25 14.63"/><polygon class="cls-4" points="22.25 14.63 19.55 1.5 14.04 1.5 10.85 14.63 22.25 14.63"/><polygon class="cls-3" points="1.71 14.63 1.5 15.91 22.5 15.91 22.25 14.63 1.71 14.63"/><polygon class="cls-5" points="5.17 14.63 5.84 1.5 4.61 1.5 2.47 14.63 5.17 14.63"/></g><g id="g12"><path id="path14" class="cls-6" d="M18,17.81H2.83v-1H18v1Z"/><path id="path16" class="cls-7" d="M19.77,17.81h1.4v-1h-1.4Z"/></g></g><path class="cls-3" d="M10.41,22.32a7.67,7.67,0,0,0,7.29-5.47H16.51a6.49,6.49,0,0,1-8,4l-.09.24L6.25,20.6l.5-.59a6.78,6.78,0,0,1-1-.82l-.7.45L4,18.49,4.87,18a6.71,6.71,0,0,1-.58-1.18H3.11A7.68,7.68,0,0,0,10.41,22.32Z"/><path class="cls-8" d="M17.88,16.85H17.7a7.69,7.69,0,0,1-7.29,5.47,7.67,7.67,0,0,1-7.29-5.47H2.93a7.85,7.85,0,0,0,7.48,5.65A7.85,7.85,0,0,0,17.88,16.85Z"/><path class="cls-8" d="M7.16,16.85H4.3A7.54,7.54,0,0,0,4.88,18Z"/><path class="cls-8" d="M8.51,17.41,5.78,19.19a6.78,6.78,0,0,0,1,.82l2-2.43Z"/><path class="cls-8" d="M10.41,18a3.34,3.34,0,0,1-.89-.12l-1,3a6.46,6.46,0,0,0,1.94.3,6.54,6.54,0,0,0,6.11-4.3H13A3.42,3.42,0,0,1,10.41,18Z"/><path class="cls-3" d="M6.25,20.6l2.13.49.09-.24A6.54,6.54,0,0,1,6.75,20Z"/><path class="cls-9" d="M6.25,20.6l2.13.49.09-.24A6.54,6.54,0,0,1,6.75,20Z"/><path class="cls-8" d="M8.78,17.57,6.75,20a6.49,6.49,0,0,0,1.71.84l1-3A2.66,2.66,0,0,1,8.78,17.57Z"/><path class="cls-9" d="M8.78,17.57,6.75,20a6.49,6.49,0,0,0,1.71.84l1-3A2.66,2.66,0,0,1,8.78,17.57Z"/><path class="cls-3" d="M4,18.49l1.09,1.15.7-.45A6.44,6.44,0,0,1,4.88,18Z"/><path class="cls-9" d="M4,18.49l1.09,1.15.7-.45A6.44,6.44,0,0,1,4.88,18Z"/><path class="cls-8" d="M5.77,19.19,8.5,17.41a3.63,3.63,0,0,1-.65-.56h-.7L4.87,18A7.27,7.27,0,0,0,5.77,19.19Z"/><path class="cls-9" d="M5.77,19.19,8.5,17.41a3.63,3.63,0,0,1-.65-.56h-.7L4.87,18A7.27,7.27,0,0,0,5.77,19.19Z"/><path class="cls-10" d="M8.51,17.41l.27.17a3.43,3.43,0,0,0,.73.3,3.4,3.4,0,0,0,3.44-1h-.53a3.07,3.07,0,0,1-4,0H7.86A3.68,3.68,0,0,0,8.51,17.41Z"/><path class="cls-3" d="M10.41,17.6a3,3,0,0,0,2-.75h-4A3.09,3.09,0,0,0,10.41,17.6Z"/></g></g><g id="规范"><rect class="cls-11" x="-54.67" y="-32.3" width="90.61" height="84.25"/></g></svg>