<svg xmlns="http://www.w3.org/2000/svg" xmlns:xlink="http://www.w3.org/1999/xlink" viewBox="0 0 24 24"><defs><style>.cls-1{fill:#263238;}.cls-2{fill:#64c4f9;}.cls-3{fill:#47b5f8;}.cls-4{fill:#455a64;}.cls-5{fill:#87d2fb;}.cls-6{fill:url(#linear-gradient);}.cls-7{fill:url(#linear-gradient-2);}.cls-8{fill:#01579b;}.cls-9{fill:none;stroke:red;stroke-miterlimit:10;}</style><linearGradient id="linear-gradient" x1="-2177.87" y1="-3428.58" x2="-2177.87" y2="-3427.62" gradientTransform="matrix(1, 0, 0, -1, 2185.95, -3408.31)" gradientUnits="userSpaceOnUse"><stop offset="0" stop-color="#455a64"/><stop offset="0.21" stop-color="#36474f"/><stop offset="1"/></linearGradient><linearGradient id="linear-gradient-2" x1="-2167.14" y1="-3428.58" x2="-2167.14" y2="-3427.62" gradientTransform="matrix(1, 0, 0, -1, 2185.95, -3408.31)" gradientUnits="userSpaceOnUse"><stop offset="0" stop-color="#38a3e7"/><stop offset="1" stop-color="#1976d2"/></linearGradient></defs><title>画板 24</title><g id="开始菜单应用图标"><g id="备份硬盘"><g id="_24" data-name="24"><g id="g4"><g id="g6"><path id="path10" class="cls-1" d="M1.5,18.15v3.18h21V18.15Z"/><polygon class="cls-2" points="22.24 16.76 19.53 2.68 3.86 2.73 1.7 16.76 22.24 16.76"/><polygon class="cls-3" points="22.24 16.76 19.53 2.68 14.05 2.68 10.82 16.76 22.24 16.76"/><polygon class="cls-4" points="1.7 16.76 1.5 18.15 22.5 18.15 22.24 16.76 1.7 16.76"/><polygon class="cls-5" points="5.14 16.76 5.84 2.73 4.6 2.73 2.47 16.76 5.14 16.76"/></g><g id="g12"><path id="path14" class="cls-6" d="M13,20.27H3.18v-1H13Z"/><path id="path16" class="cls-7" d="M18,20.27h1.54v-1H18Z"/></g><path class="cls-8" d="M19.53,2.68l2.71,14.09.26,1.38v3.18H1.5V18.15l.2-1.38,2.15-14h.75L14,2.7v0h5.48m.41-.5H13.65v0l-9,0H3.43l-.06.42-2.15,14L1,18.07v3.75H23V18.06l-.26-1.38L20,2.58l-.08-.41Z"/></g></g></g></g><g id="规范"><rect class="cls-9" x="-54.67" y="-32.3" width="90.61" height="84.25"/></g></svg>