<svg xmlns="http://www.w3.org/2000/svg" xmlns:xlink="http://www.w3.org/1999/xlink" viewBox="0 0 24 24"><defs><style>.cls-1,.cls-12{fill:none;}.cls-2{fill:#01579b;}.cls-3{fill:#0288d1;}.cls-4{fill:url(#radial-gradient);}.cls-5{opacity:0.7;}.cls-5,.cls-7{isolation:isolate;}.cls-6{fill:#fff;}.cls-7{fill:#f5f5f5;}.cls-8{stroke:#263238;stroke-width:0.5px;fill:url(#radial-gradient-2);}.cls-12,.cls-8{stroke-miterlimit:10;}.cls-9{clip-path:url(#clip-path);}.cls-10{fill:url(#radial-gradient-3);}.cls-11{fill:url(#radial-gradient-4);}.cls-12{stroke:red;}</style><radialGradient id="radial-gradient" cx="22.13" cy="11.62" r="9.16" gradientTransform="translate(-9.15 1.03) scale(0.96)" gradientUnits="userSpaceOnUse"><stop offset="0" stop-color="#4dd0e1"/><stop offset="0.39" stop-color="#40bee7"/><stop offset="0.61" stop-color="#3fbde7"/><stop offset="0.66" stop-color="#44c4e8"/><stop offset="0.75" stop-color="#2cbee8"/><stop offset="1" stop-color="#2196f3"/></radialGradient><radialGradient id="radial-gradient-2" cx="16.85" cy="7.81" r="6.42" gradientUnits="userSpaceOnUse"><stop offset="0" stop-color="#607d8b"/><stop offset="0.35" stop-color="#607d8b"/><stop offset="0.6" stop-color="#607d8b"/><stop offset="1" stop-color="#455a64"/></radialGradient><clipPath id="clip-path"><path class="cls-1" d="M14.11,2.69h0v9.95a2.4,2.4,0,0,0-.59-.07c-1,0-1.75.57-1.75,1.27s.79,1.27,1.75,1.27,1.75-.57,1.75-1.27h0V7.16l6.58-1.35v5a2.41,2.41,0,0,0-.59-.07c-1,0-1.75.57-1.75,1.27s.78,1.27,1.75,1.27S23,12.72,23,12h0V.86Zm7.73,2L15.25,6V4l6.58-1.35Z"/></clipPath><radialGradient id="radial-gradient-3" cx="-207.99" cy="66.75" r="1.51" gradientTransform="translate(284.22 -58.5) scale(1.3 1.08)" gradientUnits="userSpaceOnUse"><stop offset="0.37" stop-color="#5f7b8a"/><stop offset="1" stop-color="#455a64" stop-opacity="0"/></radialGradient><radialGradient id="radial-gradient-4" cx="-202.27" cy="65.36" r="1.51" gradientTransform="translate(284.22 -58.76) scale(1.3 1.08)" xlink:href="#radial-gradient-3"/></defs><title>画板 24</title><g id="其他"><g id="光盘-音乐"><path class="cls-2" d="M12,23.14a11,11,0,1,1,11-11A11,11,0,0,1,12,23.14Zm0-11.9a.9.9,0,1,0,.9.9A.9.9,0,0,0,12,11.23Z"/><path class="cls-3" d="M12,1.64a10.5,10.5,0,1,0,10.5,10.5A10.5,10.5,0,0,0,12,1.64Zm0,20.69A10.19,10.19,0,1,1,22.19,12.14,10.2,10.2,0,0,1,12,22.33Z"/><path class="cls-4" d="M12,3.39a8.75,8.75,0,1,0,8.75,8.75A8.76,8.76,0,0,0,12,3.39ZM12,15.2a3.06,3.06,0,1,1,3.06-3.06A3.07,3.07,0,0,1,12,15.2Z"/><g class="cls-5"><path class="cls-6" d="M15.05,12.34l5.37.35h.31A8.79,8.79,0,0,0,20.17,9l-5.31,2A3.07,3.07,0,0,1,15.05,12.34Z"/><path class="cls-6" d="M8.95,11.94l-5.37-.35H3.27a8.79,8.79,0,0,0,.56,3.66l5.31-2A3.07,3.07,0,0,1,8.95,11.94Z"/></g><g class="cls-5"><path class="cls-6" d="M14.65,10.6,19.3,7.89l.25-.18A8.8,8.8,0,0,0,17,5L13.76,9.64A3.08,3.08,0,0,1,14.65,10.6Z"/><path class="cls-6" d="M9.35,13.68,4.7,16.39l-.25.18A8.81,8.81,0,0,0,7,19.29l3.27-4.65A3.08,3.08,0,0,1,9.35,13.68Z"/></g><path class="cls-7" d="M12,1.94A10.19,10.19,0,1,0,22.19,12.14,10.21,10.21,0,0,0,12,1.94Zm0,18.94a8.75,8.75,0,1,1,8.75-8.75A8.76,8.76,0,0,1,12,20.89Z"/><path class="cls-3" d="M12,9.08a3.06,3.06,0,1,0,3.06,3.06A3.07,3.07,0,0,0,12,9.08Zm0,5.81a2.75,2.75,0,1,1,2.75-2.75A2.75,2.75,0,0,1,12,14.88Z"/><path class="cls-7" d="M12,9.39a2.75,2.75,0,1,0,2.75,2.75A2.75,2.75,0,0,0,12,9.39Zm0,4.15a1.4,1.4,0,1,1,1.4-1.4A1.4,1.4,0,0,1,12,13.54Z"/><path class="cls-8" d="M14.11,2.69h0v9.95a2.4,2.4,0,0,0-.59-.07c-1,0-1.75.57-1.75,1.27s.79,1.27,1.75,1.27,1.75-.57,1.75-1.27h0V7.16l6.58-1.35v5a2.41,2.41,0,0,0-.59-.07c-1,0-1.75.57-1.75,1.27s.78,1.27,1.75,1.27S23,12.72,23,12h0V.86Zm7.73,2L15.25,6V4l6.58-1.35Z"/><g class="cls-9"><ellipse class="cls-10" cx="13.41" cy="13.4" rx="1.62" ry="1.32"/><ellipse class="cls-11" cx="20.85" cy="11.64" rx="1.62" ry="1.32"/></g></g></g><g id="规范"><rect class="cls-12" x="-54.67" y="-32.3" width="90.61" height="84.25"/></g></svg>