<svg xmlns="http://www.w3.org/2000/svg" xmlns:xlink="http://www.w3.org/1999/xlink" viewBox="0 0 24 24"><defs><style>.cls-1,.cls-2{fill-rule:evenodd;}.cls-2{fill:url(#新建渐变色板_1);}.cls-3{fill:#616161;}.cls-4{fill:#b71c1c;}.cls-5{fill:url(#linear-gradient);}.cls-6{font-size:8.21px;fill:#fff;font-family:Arial-BoldMT, Arial;font-weight:700;}.cls-7{fill:#212121;}.cls-8{fill:#131313;fill-opacity:0.2;}.cls-10,.cls-9{fill:none;stroke-miterlimit:10;}.cls-9{stroke:#fff;stroke-width:1.13px;}.cls-10{stroke:red;}</style><linearGradient id="新建渐变色板_1" x1="12" y1="1.5" x2="12" y2="40.42" gradientUnits="userSpaceOnUse"><stop offset="0" stop-color="#211d1e"/><stop offset="0.55" stop-color="#58595b"/><stop offset="1" stop-color="#abb6be"/></linearGradient><linearGradient id="linear-gradient" x1="12" y1="3.41" x2="12" y2="22.66" gradientUnits="userSpaceOnUse"><stop offset="0" stop-color="#f44336"/><stop offset="1" stop-color="#d32f2f"/></linearGradient></defs><title>画板 24</title><g id="其他"><g id="sd"><path class="cls-1" d="M3.19,23A1.29,1.29,0,0,1,1.9,21.71V14.23h.62V7.43H1.9V2.29A1.29,1.29,0,0,1,3.18,1H20L22.1,3.07V8h-.59v2.54h.59V21.74A1.26,1.26,0,0,1,20.81,23Z"/><path class="cls-2" d="M21,11.06V7.51h.59V3.28L19.79,1.5H3.19a.79.79,0,0,0-.79.79V6.93H3v7.79H2.4v7a.79.79,0,0,0,.79.79H20.81a.77.77,0,0,0,.79-.76V11.06Z"/><path class="cls-3" d="M19.51,2.19l1.41,1.38V6.83h-.59v4.92h.59v10c0,.06-.08.07-.1.07H3.19a.1.1,0,0,1-.1-.1v-6.3H3.7V6.24H3.08v-4a.1.1,0,0,1,.1-.1H19.51m.06-.14H3.18a.24.24,0,0,0-.24.24V6.38h.62v8.9H2.95v6.43a.24.24,0,0,0,.24.24H20.81a.22.22,0,0,0,.24-.21V11.61h-.59V7h.59V3.52L19.57,2.05Z"/><rect class="cls-4" x="4.76" y="3.64" width="14.48" height="17.35"/><rect class="cls-5" x="4.94" y="3.82" width="14.12" height="16.99"/><text class="cls-6" transform="translate(6.19 18.53)">SD</text><rect class="cls-7" x="9.23" y="3.82" width="5.54" height="5.18"/><path class="cls-8" d="M4.94,3.82H19.06V6.41H4.94Z"/><line class="cls-9" x1="10.25" y1="7.56" x2="11.88" y2="7.56"/><line class="cls-9" x1="12.68" y1="7.56" x2="13.75" y2="7.56"/></g></g><g id="规范"><rect class="cls-10" x="-54.67" y="-32.3" width="90.61" height="84.25"/></g></svg>