<svg id="其他" xmlns="http://www.w3.org/2000/svg" xmlns:xlink="http://www.w3.org/1999/xlink" viewBox="0 0 128 128"><defs><style>.cls-1{opacity:0.08;}.cls-2{opacity:0.1;}.cls-3{opacity:0.2;}.cls-4{fill:url(#未命名的渐变_51);}.cls-5{fill:#455a64;}.cls-6{fill:url(#linear-gradient);}.cls-7{fill:#fff;opacity:0.24;}</style><linearGradient id="未命名的渐变_51" x1="82.37" y1="120.42" x2="44.94" y2="5.45" gradientUnits="userSpaceOnUse"><stop offset="0" stop-color="#4dd0e1"/><stop offset="0.94" stop-color="#1976d2"/></linearGradient><linearGradient id="linear-gradient" x1="64" y1="31.02" x2="64" y2="94.62" gradientUnits="userSpaceOnUse"><stop offset="0.38" stop-color="#fff"/><stop offset="1" stop-color="#ccc"/></linearGradient></defs><title>画板 19</title><g id="耳麦"><g id="_128" data-name="128"><path class="cls-1" d="M66,128a62,62,0,1,1,62-62A62.07,62.07,0,0,1,66,128Z"/><path class="cls-2" d="M66,126a60,60,0,1,1,60-60A60.07,60.07,0,0,1,66,126Z"/><path class="cls-3" d="M64,124a60,60,0,1,1,60-60A60.07,60.07,0,0,1,64,124Z"/><path class="cls-4" d="M64,121.5A57.5,57.5,0,1,1,121.5,64,57.56,57.56,0,0,1,64,121.5Z"/><path class="cls-5" d="M64,7A57,57,0,1,1,7,64,57,57,0,0,1,64,7m0-1a58,58,0,1,0,58,58A58.07,58.07,0,0,0,64,6Z"/><path class="cls-3" d="M97.24,70.77a16.59,16.59,0,0,0-12.59-16.1,29.76,29.76,0,0,0-2.4-9.74C79.69,39.27,74.12,33.38,64,33.38S48.31,39.27,45.76,44.93a29.76,29.76,0,0,0-2.4,9.74,16.6,16.6,0,0,0,4,32.72V56.23a26.31,26.31,0,0,1,2.14-9.54C51.65,42,55.42,37.53,64,37.53S76.35,42,78.48,46.69a26.32,26.32,0,0,1,2.14,9.54V87.39a16.62,16.62,0,0,0,4.54-.63A5.09,5.09,0,0,1,84,89.28a3.77,3.77,0,0,1-3,1.16H73.36a4,4,0,0,0-3.19-1.65H62.12A4.09,4.09,0,0,0,58,92.88h0A4.09,4.09,0,0,0,62.12,97h8.05a4.07,4.07,0,0,0,3.69-2.38H81a8.21,8.21,0,0,0,6.1-2.6,10.52,10.52,0,0,0,2.34-7.14v0A16.6,16.6,0,0,0,97.24,70.77Z"/><path class="cls-6" d="M97.24,68.41a16.59,16.59,0,0,0-12.59-16.1,29.76,29.76,0,0,0-2.4-9.74C79.69,36.91,74.12,31,64,31S48.31,36.91,45.76,42.58a29.76,29.76,0,0,0-2.4,9.74,16.6,16.6,0,0,0,4,32.72V53.87a26.31,26.31,0,0,1,2.14-9.54c2.12-4.72,5.9-9.15,14.48-9.15s12.35,4.43,14.48,9.15a26.32,26.32,0,0,1,2.14,9.54V85a16.62,16.62,0,0,0,4.54-.63A5.09,5.09,0,0,1,84,86.93a3.77,3.77,0,0,1-3,1.16H73.36a4,4,0,0,0-3.19-1.65H62.12A4.09,4.09,0,0,0,58,90.53h0a4.09,4.09,0,0,0,4.09,4.09h8.05a4.07,4.07,0,0,0,3.69-2.38H81a8.21,8.21,0,0,0,6.1-2.6,10.52,10.52,0,0,0,2.34-7.14v0A16.6,16.6,0,0,0,97.24,68.41Z"/><ellipse class="cls-7" cx="63.67" cy="43.89" rx="43.06" ry="32.38"/></g></g></svg>