<?xml version="1.0" encoding="iso-8859-1"?>
<!-- Generator: Adobe Illustrator 21.0.0, SVG Export Plug-In . SVG Version: 6.00 Build 0)  -->
<svg version="1.1" id="&#x5176;&#x4ED6;" xmlns="http://www.w3.org/2000/svg" xmlns:xlink="http://www.w3.org/1999/xlink" x="0px"
	 y="0px" viewBox="0 0 128 128" style="enable-background:new 0 0 128 128;" xml:space="preserve">
<title>画板 19</title>
<g id="&#x7535;&#x8111;">
	<path style="opacity:0.1;enable-background:new    ;" d="M33.43,119.26c-4.236,0.089-7.746-3.264-7.85-7.5v-5.68l7.78-3.62H4V12.74
		h124v89.72H99.15l8,3.56v5.74c-0.104,4.236-3.614,7.589-7.85,7.5L33.43,119.26z"/>
	<path style="opacity:0.1;enable-background:new    ;" d="M33.43,117.26c-3.132,0.09-5.747-2.369-5.85-5.5v-4.41l14.83-6.89H6V14.74
		h120v85.72H89.77l15.36,6.86v4.44c-0.103,3.131-2.718,5.59-5.85,5.5H33.43z"/>
	<path style="opacity:0.2;enable-background:new    ;" d="M31.43,115.26c-3.132,0.09-5.747-2.369-5.85-5.5v-4.41l14.83-6.89H4V12.74
		h120v85.72H87.77l15.36,6.86v4.44c-0.103,3.131-2.718,5.59-5.85,5.5H31.43z"/>
	<path style="fill:#263238;" d="M31.43,113.26c-2.027,0.091-3.748-1.473-3.85-3.5v-3.13l17.66-8.21h37.54l18.35,8.2v3.14
		c-0.102,2.027-1.823,3.591-3.85,3.5H31.43z"/>
	<path style="fill:#455A64;" d="M82.56,99.42h-37.1l-16.88,7.84v2.5c0.107,1.472,1.376,2.586,2.85,2.5h65.85
		c1.474,0.086,2.743-1.028,2.85-2.5v-2.5L82.56,99.42z"/>
	
		<linearGradient id="SVGID_1_" gradientUnits="userSpaceOnUse" x1="64.355" y1="14.18" x2="64.355" y2="28.01" gradientTransform="matrix(1 0 0 -1 0 130)">
		<stop  offset="0" style="stop-color:#90A4AE"/>
		<stop  offset="1" style="stop-color:#455A64"/>
	</linearGradient>
	<polygon style="fill:url(#SVGID_1_);" points="28.58,107.27 45.46,99.42 82.56,99.42 100.13,107.27 	"/>
	<path style="fill:#90A4AE;" d="M97.28,107.27h-68.7v2.5c0.107,1.472,1.376,2.586,2.85,2.5h65.85c1.474,0.086,2.743-1.028,2.85-2.5
		v-2.5H97.28z"/>
	<path style="opacity:0.08;enable-background:new    ;" d="M110.94,83.34V29H21.06v54.34H110.94z"/>
	<path style="opacity:0.1;enable-background:new    ;" d="M112.94,85.27v-58.2H19.06v58.2L112.94,85.27z"/>
	<path style="fill:#263238;" d="M6,14.74v81.72h42.8V104h30.4v-7.54H122V14.74H6z M112.94,23.22v62.05H15.06V23.22H112.94z"/>
	<g id="&#x6700;&#x8FD1;&#x6587;&#x4EF6;">
		
			<linearGradient id="rect3008_1_" gradientUnits="userSpaceOnUse" x1="63.995" y1="107.63" x2="63.995" y2="43.87" gradientTransform="matrix(1 0 0 -1 0 130)">
			<stop  offset="0" style="stop-color:#B3E5FC"/>
			<stop  offset="1" style="stop-color:#0288D1"/>
		</linearGradient>
		<rect id="rect3008" x="14.17" y="22.37" style="fill:url(#rect3008_1_);" width="99.65" height="63.76"/>
		
			<linearGradient id="rect3008-2_1_" gradientUnits="userSpaceOnUse" x1="63.995" y1="107.63" x2="63.995" y2="43.87" gradientTransform="matrix(1 0 0 -1 0 130)">
			<stop  offset="0" style="stop-color:#B3E5FC"/>
			<stop  offset="1" style="stop-color:#0288D1"/>
		</linearGradient>
		
			<rect id="rect3008-2" x="14.17" y="22.37" style="fill:url(#rect3008-2_1_);stroke:#01579B;stroke-width:4;stroke-miterlimit:10;" width="99.65" height="63.76"/>
		
			<linearGradient id="SVGID_2_" gradientUnits="userSpaceOnUse" x1="16.18" y1="104.79" x2="111.78" y2="104.79" gradientTransform="matrix(1 0 0 -1 0 130)">
			<stop  offset="0" style="stop-color:#FFFFFF"/>
			<stop  offset="1" style="stop-color:#4FC3F7"/>
		</linearGradient>
		<rect x="16.18" y="24.31" style="opacity:0.8;fill:url(#SVGID_2_);enable-background:new    ;" width="95.6" height="1.8"/>
		
			<linearGradient id="SVGID_3_" gradientUnits="userSpaceOnUse" x1="-1139.04" y1="481.725" x2="-1080.98" y2="481.725" gradientTransform="matrix(6.123234e-17 -1 -1 -6.123234e-17 498.84 -1054.87)">
			<stop  offset="0" style="stop-color:#0288D1"/>
			<stop  offset="1" style="stop-color:#FFFFFF"/>
		</linearGradient>
		<rect x="16.18" y="26.11" style="opacity:0.8;fill:url(#SVGID_3_);enable-background:new    ;" width="1.87" height="58.06"/>
		<rect x="49.75" y="94.94" style="fill:#293A3F;" width="28.5" height="8.14"/>
		
			<linearGradient id="SVGID_4_" gradientUnits="userSpaceOnUse" x1="64" y1="114.3" x2="64" y2="34.5" gradientTransform="matrix(1 0 0 -1 0 130)">
			<stop  offset="0" style="stop-color:#607D8B"/>
			<stop  offset="1" style="stop-color:#455A64"/>
		</linearGradient>
		<path style="fill:url(#SVGID_4_);" d="M7,15.7v79.8h114V15.7H7z M113.82,86.12H14.18V22.37h99.63L113.82,86.12z"/>
	</g>
	<circle style="fill:#1D272B;" cx="63.98" cy="90.62" r="4.1"/>
	<circle style="fill:#03A9F4;" cx="63.98" cy="90.89" r="3.11"/>
	<path id="rect3008-0" style="opacity:0.23;fill:#EEE8D5;enable-background:new    ;" d="M76.76,22.36L51,86h62.84V22.36H76.76z"/>
</g>
</svg>
