<svg id="其他" xmlns="http://www.w3.org/2000/svg" xmlns:xlink="http://www.w3.org/1999/xlink" viewBox="0 0 128 128"><defs><style>.cls-1,.cls-8{opacity:0.1;}.cls-1,.cls-17,.cls-2{isolation:isolate;}.cls-2{opacity:0.2;}.cls-3{fill:#263238;}.cls-4{fill:#455a64;}.cls-5{fill:url(#linear-gradient);}.cls-6{fill:#90a4ae;}.cls-7{opacity:0.08;}.cls-10,.cls-9{fill:url(#linear-gradient-2);}.cls-10{stroke:#01579b;stroke-miterlimit:10;stroke-width:4px;}.cls-11,.cls-12{opacity:0.8;}.cls-11{fill:url(#linear-gradient-4);}.cls-12{fill:url(#linear-gradient-5);}.cls-13{fill:#293a3f;}.cls-14{fill:url(#linear-gradient-6);}.cls-15{fill:#1d272b;}.cls-16{fill:#03a9f4;}.cls-17{fill:#eee8d5;opacity:0.23;}</style><linearGradient id="linear-gradient" x1="64.36" y1="115.82" x2="64.36" y2="101.99" gradientUnits="userSpaceOnUse"><stop offset="0" stop-color="#90a4ae"/><stop offset="1" stop-color="#455a64"/></linearGradient><linearGradient id="linear-gradient-2" x1="63.99" y1="22.37" x2="63.99" y2="86.12" gradientUnits="userSpaceOnUse"><stop offset="0" stop-color="#b3e5fc"/><stop offset="1" stop-color="#0288d1"/></linearGradient><linearGradient id="linear-gradient-4" x1="16.18" y1="25.21" x2="111.78" y2="25.21" gradientUnits="userSpaceOnUse"><stop offset="0" stop-color="#fff"/><stop offset="1" stop-color="#4fc3f7"/></linearGradient><linearGradient id="linear-gradient-5" x1="-619.05" y1="-601.72" x2="-560.99" y2="-601.72" gradientTransform="translate(618.84 -534.87) rotate(-90)" gradientUnits="userSpaceOnUse"><stop offset="0" stop-color="#0288d1"/><stop offset="1" stop-color="#fff"/></linearGradient><linearGradient id="linear-gradient-6" x1="64" y1="15.7" x2="64" y2="95.5" gradientUnits="userSpaceOnUse"><stop offset="0" stop-color="#607d8b"/><stop offset="1" stop-color="#455a64"/></linearGradient></defs><title>画板 19</title><g id="电脑"><path class="cls-1" d="M33.43,119.26a7.69,7.69,0,0,1-7.85-7.5v-5.68l7.78-3.62H4V12.74H128v89.72H99.15l8,3.56v5.74a7.69,7.69,0,0,1-7.85,7.5Z"/><path class="cls-1" d="M33.43,117.26a5.69,5.69,0,0,1-5.85-5.5v-4.41l14.83-6.89H6V14.74H126v85.72H89.77l15.36,6.86v4.44a5.69,5.69,0,0,1-5.85,5.5Z"/><path class="cls-2" d="M31.43,115.26a5.69,5.69,0,0,1-5.85-5.5v-4.41l14.83-6.89H4V12.74H124V98.46H87.77l15.36,6.86v4.44a5.69,5.69,0,0,1-5.85,5.5Z"/><path class="cls-3" d="M31.43,113.26a3.69,3.69,0,0,1-3.85-3.5v-3.13l17.66-8.21H82.78l18.35,8.2v3.14a3.69,3.69,0,0,1-3.85,3.5Z"/><path class="cls-4" d="M82.56,99.42H45.46l-16.88,7.84v2.5a2.7,2.7,0,0,0,2.85,2.5H97.28a2.7,2.7,0,0,0,2.85-2.5v-2.5Z"/><polygon class="cls-5" points="28.58 107.27 45.46 99.42 82.56 99.42 100.13 107.27 28.58 107.27"/><path class="cls-6" d="M97.28,107.27H28.58v2.5a2.7,2.7,0,0,0,2.85,2.5H97.28a2.7,2.7,0,0,0,2.85-2.5v-2.5Z"/><path class="cls-7" d="M110.94,83.34V29H21.06V83.34Z"/><path class="cls-8" d="M112.94,85.27V27.07H19.06v58.2Z"/><path class="cls-3" d="M6,14.74V96.46H48.8V104H79.2V96.46H122V14.74Zm106.94,8.48V85.27H15.06V23.22Z"/><g id="最近文件"><rect id="rect3008" class="cls-9" x="14.17" y="22.37" width="99.65" height="63.76"/><rect id="rect3008-2" data-name="rect3008" class="cls-10" x="14.17" y="22.37" width="99.65" height="63.76"/><rect class="cls-11" x="16.18" y="24.31" width="95.6" height="1.8"/><rect class="cls-12" x="16.18" y="26.11" width="1.87" height="58.06"/><rect class="cls-13" x="49.75" y="94.94" width="28.5" height="8.14"/><path class="cls-14" d="M7,15.7V95.5H121V15.7ZM113.82,86.12H14.18V22.37h99.63Z"/></g><circle class="cls-15" cx="63.98" cy="90.62" r="4.1"/><circle class="cls-16" cx="63.98" cy="90.89" r="3.11"/><path id="rect3008-0" class="cls-17" d="M76.76,22.36,51,86h62.84V22.36Z"/></g></svg>