<?xml version="1.0" encoding="iso-8859-1"?>
<!-- Generator: Adobe Illustrator 21.0.0, SVG Export Plug-In . SVG Version: 6.00 Build 0)  -->
<svg version="1.1" id="&#x56FE;&#x5C42;_1" xmlns="http://www.w3.org/2000/svg" xmlns:xlink="http://www.w3.org/1999/xlink" x="0px"
	 y="0px" viewBox="0 0 128 128" style="enable-background:new 0 0 128 128;" xml:space="preserve">
<title>画板 19</title>
<g id="&#x5F00;&#x59CB;&#x83DC;&#x5355;&#x5E94;&#x7528;&#x56FE;&#x6807;">
	<g id="&#x5E73;&#x677F;">
		<g id="_128">
			<path style="opacity:0.08;enable-background:new    ;" d="M25.28,4.5h81.43c6.981,0,12.64,5.659,12.64,12.64v97.72
				c0,6.981-5.659,12.64-12.64,12.64H25.28c-6.981,0-12.64-5.659-12.64-12.64V17.14C12.64,10.159,18.299,4.5,25.28,4.5z"/>
			<path style="opacity:0.1;enable-background:new    ;" d="M25.28,6.5h81.43c5.876,0,10.64,4.764,10.64,10.64v97.72
				c0,5.876-4.764,10.64-10.64,10.64H25.28c-5.876,0-10.64-4.764-10.64-10.64V17.14C14.64,11.264,19.404,6.5,25.28,6.5z"/>
			<path style="opacity:0.2;enable-background:new    ;" d="M23.28,4.5h81.43c5.876,0,10.64,4.764,10.64,10.64v97.72
				c0,5.876-4.764,10.64-10.64,10.64H23.28c-5.876,0-10.64-4.764-10.64-10.64V15.14C12.64,9.264,17.404,4.5,23.28,4.5z"/>
			<path style="fill:#212121;" d="M23.28,6.5h81.43c4.772,0,8.64,3.868,8.64,8.64v97.72c0,4.772-3.868,8.64-8.64,8.64H23.28
				c-4.772,0-8.64-3.868-8.64-8.64V15.14C14.64,10.368,18.508,6.5,23.28,6.5z"/>
			
				<linearGradient id="SVGID_1_" gradientUnits="userSpaceOnUse" x1="63.995" y1="123" x2="63.995" y2="9" gradientTransform="matrix(1 0 0 -1 0 130)">
				<stop  offset="0" style="stop-color:#455A64"/>
				<stop  offset="1" style="stop-color:#263238"/>
			</linearGradient>
			<path style="fill:url(#SVGID_1_);" d="M23.28,7h81.43c4.496,0,8.14,3.644,8.14,8.14v97.72c0,4.496-3.644,8.14-8.14,8.14H23.28
				c-4.496,0-8.14-3.644-8.14-8.14V15.14C15.14,10.644,18.784,7,23.28,7z"/>
			<path style="fill:#212121;" d="M104.71,6.5H23.29c-4.769,0.006-8.634,3.871-8.64,8.64v97.71c0.006,4.769,3.871,8.634,8.64,8.64
				h81.43c4.769-0.006,8.634-3.871,8.64-8.64V15.14C113.354,10.367,109.483,6.5,104.71,6.5z M112.35,112.86
				c-0.006,4.217-3.423,7.634-7.64,7.64H23.29c-4.217-0.006-7.634-3.423-7.64-7.64V15.14c0.006-4.217,3.423-7.634,7.64-7.64h81.43
				c4.217,0.006,7.634,3.423,7.64,7.64L112.35,112.86z"/>
			
				<linearGradient id="SVGID_2_" gradientUnits="userSpaceOnUse" x1="23.29" y1="72.11" x2="104.72" y2="72.11" gradientTransform="matrix(1 0 0 -1 0 130)">
				<stop  offset="0" style="stop-color:#B3E5FC"/>
				<stop  offset="1" style="stop-color:#0288D1"/>
			</linearGradient>
			
				<rect x="23.29" y="15.14" style="fill:url(#SVGID_2_);stroke:#01579B;stroke-width:1.5;stroke-miterlimit:10;" width="81.43" height="85.5"/>
			
				<linearGradient id="SVGID_3_" gradientUnits="userSpaceOnUse" x1="72.8975" y1="111.6506" x2="55.1175" y2="32.6806" gradientTransform="matrix(1 0 0 -1 0 130)">
				<stop  offset="0" style="stop-color:#B3E5FC"/>
				<stop  offset="1" style="stop-color:#0288D1"/>
			</linearGradient>
			<rect x="25.58" y="17.34" style="fill:url(#SVGID_3_);" width="76.83" height="81.1"/>
			<polygon style="opacity:0.23;fill:#EEE8D5;enable-background:new    ;" points="102.49,98.6 49.06,98.6 70.94,17.5 102.49,17.5 
							"/>
			<circle style="fill:#1D272B;" cx="64" cy="110.82" r="6.62"/>
			<circle style="fill:#455A64;" cx="63.57" cy="111.25" r="5.34"/>
		</g>
	</g>
</g>
</svg>
