<svg xmlns="http://www.w3.org/2000/svg" xmlns:xlink="http://www.w3.org/1999/xlink" viewBox="0 0 128 128"><defs><style>.cls-1{opacity:0.08;}.cls-2{opacity:0.1;}.cls-3{opacity:0.2;}.cls-4{fill:#212121;}.cls-5{fill:url(#linear-gradient);}.cls-6{stroke:#01579b;stroke-miterlimit:10;stroke-width:1.5px;fill:url(#linear-gradient-2);}.cls-7{fill:url(#linear-gradient-3);}.cls-8{fill:#eee8d5;opacity:0.23;isolation:isolate;}.cls-9{fill:#1d272b;}.cls-10{fill:#455a64;}</style><linearGradient id="linear-gradient" x1="64" y1="7" x2="64" y2="121" gradientUnits="userSpaceOnUse"><stop offset="0" stop-color="#455a64"/><stop offset="1" stop-color="#263238"/></linearGradient><linearGradient id="linear-gradient-2" x1="23.29" y1="57.89" x2="104.71" y2="57.89" gradientUnits="userSpaceOnUse"><stop offset="0" stop-color="#b3e5fc"/><stop offset="1" stop-color="#0288d1"/></linearGradient><linearGradient id="linear-gradient-3" x1="72.9" y1="18.35" x2="55.12" y2="97.32" xlink:href="#linear-gradient-2"/></defs><title>画板 19</title><g id="开始菜单应用图标"><g id="平板"><g id="_128" data-name="128"><rect class="cls-1" x="12.64" y="4.5" width="106.71" height="123" rx="12.64" ry="12.64"/><rect class="cls-2" x="14.64" y="6.5" width="102.71" height="119" rx="10.64" ry="10.64"/><rect class="cls-3" x="12.64" y="4.5" width="102.71" height="119" rx="10.64" ry="10.64"/><rect class="cls-4" x="14.64" y="6.5" width="98.71" height="115" rx="8.64" ry="8.64"/><rect class="cls-5" x="15.14" y="7" width="97.71" height="114" rx="8.14" ry="8.14"/><path class="cls-4" d="M104.71,6.5H23.29a8.65,8.65,0,0,0-8.64,8.64v97.71a8.65,8.65,0,0,0,8.64,8.64h81.43a8.65,8.65,0,0,0,8.64-8.64V15.14A8.65,8.65,0,0,0,104.71,6.5Zm7.64,106.36a7.65,7.65,0,0,1-7.64,7.64H23.29a7.65,7.65,0,0,1-7.64-7.64V15.14A7.65,7.65,0,0,1,23.29,7.5h81.43a7.65,7.65,0,0,1,7.64,7.64Z"/><rect class="cls-6" x="23.29" y="15.14" width="81.43" height="85.5"/><rect class="cls-7" x="25.58" y="17.34" width="76.83" height="81.1"/><polygon class="cls-8" points="102.49 98.6 49.06 98.6 70.94 17.5 102.49 17.5 102.49 98.6"/><circle class="cls-9" cx="64" cy="110.82" r="6.62"/><circle class="cls-10" cx="63.57" cy="111.25" r="5.34"/></g></g></g></svg>