<svg xmlns="http://www.w3.org/2000/svg" xmlns:xlink="http://www.w3.org/1999/xlink" viewBox="0 0 128 128"><defs><style>.cls-1{fill:none;}.cls-2{clip-path:url(#clip-path);}.cls-3{opacity:0.4;}.cls-14,.cls-4{opacity:0.7;}.cls-4{fill:url(#linear-gradient);}.cls-15,.cls-5{opacity:0.8;}.cls-5{fill:url(#linear-gradient-2);}.cls-6{opacity:0.08;}.cls-7{opacity:0.1;}.cls-18,.cls-8{opacity:0.2;}.cls-9{fill:#455a64;}.cls-10{fill:#263238;}.cls-11{fill:url(#linear-gradient-3);}.cls-12{fill:url(#linear-gradient-4);}.cls-13{clip-path:url(#clip-path-2);}.cls-14{fill:url(#linear-gradient-5);}.cls-15{fill:url(#linear-gradient-6);}.cls-16{opacity:0.12;isolation:isolate;fill:url(#linear-gradient-7);}.cls-17{fill:url(#linear-gradient-8);}.cls-18{fill:url(#radial-gradient);}.cls-19{opacity:0.6;fill:url(#linear-gradient-9);}.cls-20{fill:#1d272b;}.cls-21{fill:url(#linear-gradient-10);}</style><clipPath id="clip-path"><rect id="rect3008" class="cls-1" x="-256.91" y="29.02" width="209.78" height="158.16"/></clipPath><linearGradient id="linear-gradient" x1="-112.05" y1="122.57" x2="13.41" y2="-2.89" gradientUnits="userSpaceOnUse"><stop offset="0" stop-color="#00698c"/><stop offset="1" stop-color="#00698c" stop-opacity="0"/></linearGradient><linearGradient id="linear-gradient-2" x1="-164.05" y1="174.56" x2="-38.6" y2="49.11" xlink:href="#linear-gradient"/><linearGradient id="linear-gradient-3" x1="64.35" y1="119.42" x2="64.35" y2="105.68" gradientUnits="userSpaceOnUse"><stop offset="0" stop-color="#455a64"/><stop offset="1" stop-color="#263238"/></linearGradient><linearGradient id="linear-gradient-4" x1="63.99" y1="16.99" x2="63.99" y2="92.11" gradientUnits="userSpaceOnUse"><stop offset="0" stop-color="#b3e5fc"/><stop offset="1" stop-color="#0288d1"/></linearGradient><clipPath id="clip-path-2"><rect id="rect3008-2" data-name="rect3008" class="cls-1" x="14.17" y="16.99" width="99.65" height="75.13"/></clipPath><linearGradient id="linear-gradient-5" x1="82.98" y1="61.42" x2="142.57" y2="1.83" xlink:href="#linear-gradient"/><linearGradient id="linear-gradient-6" x1="58.27" y1="86.12" x2="117.87" y2="26.53" xlink:href="#linear-gradient"/><linearGradient id="linear-gradient-7" x1="-234.71" y1="703.51" x2="-234.71" y2="758.47" gradientTransform="matrix(0.71, 0.71, 0.71, -0.71, -274.38, 740.14)" gradientUnits="userSpaceOnUse"><stop offset="0"/><stop offset="1" stop-opacity="0"/></linearGradient><linearGradient id="linear-gradient-8" x1="-719.66" y1="880.3" x2="-683.84" y2="880.3" gradientTransform="translate(-61.77 -1814.12) rotate(-45) scale(1.72 1.61)" gradientUnits="userSpaceOnUse"><stop offset="0" stop-color="#d7e866"/><stop offset="0.69" stop-color="#a4c33a"/><stop offset="1" stop-color="#7a9525" stop-opacity="0"/></linearGradient><radialGradient id="radial-gradient" cx="-711.67" cy="870.03" r="26.51" gradientTransform="translate(-61.77 -1814.12) rotate(-45) scale(1.72 1.61)" gradientUnits="userSpaceOnUse"><stop offset="0" stop-color="#b0ff04"/><stop offset="0.56" stop-color="#5ac306"/><stop offset="0.74" stop-color="#13a400"/></radialGradient><linearGradient id="linear-gradient-9" x1="57.5" y1="76.33" x2="111.29" y2="22.54" gradientUnits="userSpaceOnUse"><stop offset="0" stop-color="#fff"/><stop offset="1" stop-color="#fff" stop-opacity="0"/></linearGradient><linearGradient id="linear-gradient-10" x1="64" y1="12.12" x2="64" y2="99.81" xlink:href="#linear-gradient-3"/></defs><title>画板 19</title><g id="控制面板"><g id="显示"><g id="_256" data-name="256"><g class="cls-2"><g class="cls-3"><path class="cls-4" d="M-94.28,91.38a11,11,0,0,1-11-11V-76.41h-8.16a11,11,0,0,0-11,11V103a11,11,0,0,0,11,11H96.86a11,11,0,0,0,11-11V91.38Z"/><path class="cls-5" d="M-146.28,143.38a11,11,0,0,1-11-11V-24.41h-8.16a11,11,0,0,0-11,11V155a11,11,0,0,0,11,11H44.86a11,11,0,0,0,10.95-11V143.38Z"/></g></g></g><g id="_128" data-name="128"><path class="cls-6" d="M33.73,122.88a7.67,7.67,0,0,1-7.83-7.48v-5.67l6.29-2.93H4V9.12H128v97.69H100.38l6.42,2.88v5.72A7.67,7.67,0,0,1,99,122.88Z"/><path class="cls-7" d="M33.73,120.88a5.67,5.67,0,0,1-5.83-5.48V111l13.31-6.2H6V11.12H126v93.69H91L104.8,111v4.42A5.67,5.67,0,0,1,99,120.88Z"/><path class="cls-8" d="M31.73,118.88a5.67,5.67,0,0,1-5.83-5.48V109l13.31-6.2H4V9.12H124v93.69H89L102.8,109v4.42A5.67,5.67,0,0,1,97,118.88Z"/><path class="cls-9" d="M31.73,116.38a3.17,3.17,0,0,1-3.33-3v-2.8l17.11-8h3.73v-2.32H6.5V11.62h115v88.69H78.75v2.32H82.5l17.8,8v2.81a3.17,3.17,0,0,1-3.33,3Z"/><path class="cls-10" d="M121,12.12V99.81H78.25v3.32h4.14l17.41,7.8v2.48A2.68,2.68,0,0,1,97,115.88H31.73a2.68,2.68,0,0,1-2.82-2.48v-2.48l16.72-7.8h4.12V99.81H7V12.12H121m1-1H6v89.69H48.75v1.32H45.41l-.2.09L28.48,110l-.58.27v3.12a3.67,3.67,0,0,0,3.82,3.48H97a3.67,3.67,0,0,0,3.83-3.48v-3.13l-.59-.26-17.41-7.8-.19-.09H79.25v-1.32H122V11.12Z"/><polygon class="cls-11" points="28.91 110.92 45.63 103.13 82.39 103.13 99.8 110.92 28.91 110.92"/><g id="rect3008-3" data-name="rect3008"><rect class="cls-12" x="14.17" y="16.99" width="99.65" height="75.13"/></g><g class="cls-13"><g class="cls-3"><path class="cls-14" d="M91.42,46.61a5.2,5.2,0,0,1-5.2-5.21v-74.5H82.34a5.21,5.21,0,0,0-5.21,5.21v80a5.21,5.21,0,0,0,5.21,5.2h99.87a5.21,5.21,0,0,0,5.21-5.2V46.61Z"/><path class="cls-15" d="M66.72,71.31a5.2,5.2,0,0,1-5.21-5.2V-8.39H57.63a5.2,5.2,0,0,0-5.2,5.2v80A5.2,5.2,0,0,0,57.63,82h99.87a5.2,5.2,0,0,0,5.2-5.21V71.31Z"/></g></g><g id="layer4"><path id="path4238" class="cls-16" d="M65.72,49.06l-8.51-8.5a.73.73,0,0,0-1.25.51l-.05,36a.73.73,0,0,0,.72.74h0l36.11.05a.72.72,0,0,0,.72-.74.7.7,0,0,0-.21-.51l-8.5-8.51,26.81-46.34Z"/><path id="path3288-2" class="cls-17" d="M93.33,76.56l-36.1,0,0-36,9,9,45.36-27.8L84.31,67.55Z"/><path id="path3288-2-2" data-name="path3288-2" class="cls-18" d="M93.33,76.56l-36.1,0,0-36,9,9,45.36-27.8L84.31,67.55Z"/><path id="path4200" class="cls-19" d="M111.12,22.32,65.72,51.21l.62.61,44.18-28.87L82,67.49l.62.62Zm-53,20.11L58,75.69l33.36.05L82.63,67,82,67.6l7.27,7.27-30.37-.05L59,44.55l7.27,7.27.62-.61Z"/></g><rect class="cls-20" x="49.75" y="98.88" width="28.5" height="8.5"/><path class="cls-21" d="M7,12.12V99.81H121V12.12ZM113.82,89.94H14.19V19.14h99.63Z"/><path class="cls-9" d="M97,110.92H28.91v2.48a2.68,2.68,0,0,0,2.82,2.48H97a2.68,2.68,0,0,0,2.83-2.48v-2.48Z"/></g></g></g></svg>