<svg id="其他" xmlns="http://www.w3.org/2000/svg" xmlns:xlink="http://www.w3.org/1999/xlink" viewBox="0 0 128 128"><defs><style>.cls-1{opacity:0.08;}.cls-2{opacity:0.1;}.cls-3{opacity:0.2;}.cls-4{fill:#616161;}.cls-5{fill:#263238;}.cls-12,.cls-6{fill:#e0e0e0;}.cls-7{fill:#9e9e9e;opacity:0.25;}.cls-12,.cls-7,.cls-8{isolation:isolate;}.cls-8{fill:#fff;opacity:0.45;}.cls-9{fill:url(#linear-gradient);}.cls-10{fill:url(#linear-gradient-2);}.cls-11{fill:#949494;}.cls-12{opacity:0.86;}.cls-13{fill:#a5a5a5;}</style><linearGradient id="linear-gradient" x1="-3276.96" y1="2656.81" x2="-3276.96" y2="2651.6" gradientTransform="translate(3332.43 -2561.31)" gradientUnits="userSpaceOnUse"><stop offset="0" stop-color="#455a64"/><stop offset="0.21" stop-color="#36474f"/><stop offset="1"/></linearGradient><linearGradient id="linear-gradient-2" x1="-3222.48" y1="2656.81" x2="-3222.48" y2="2651.6" gradientTransform="translate(3332.43 -2561.31)" gradientUnits="userSpaceOnUse"><stop offset="0" stop-color="#38a3e7"/><stop offset="1" stop-color="#1976d2"/></linearGradient></defs><title>画板 19</title><g id="光驱"><path class="cls-1" d="M57.35,128a47.26,47.26,0,0,1-38.1-19.56H4V86.84l1.21-7.38L17.65,4h93.4l15.49,75.26L128,86.78v21.66H95.46A47.28,47.28,0,0,1,57.35,128Z"/><path class="cls-2" d="M57.35,126a45.16,45.16,0,0,1-37.07-19.56H6V87L7.2,79.78,19.34,6h90.08l15.16,73.66L126,87v19.47H94.43A45.17,45.17,0,0,1,57.35,126Z"/><path class="cls-3" d="M55.35,124a45.16,45.16,0,0,1-37.07-19.56H4V85L5.2,77.78,17.34,4h90.08l15.16,73.66L124,85v19.47H92.43A45.17,45.17,0,0,1,55.35,124Z"/><path class="cls-4" d="M55.35,122a43.13,43.13,0,0,1-36-19.56H6V85.17l1.15-7.06L19,6h86.75l14.84,72.07L122,85.15v17.29H91.37A43.15,43.15,0,0,1,55.35,122Z"/><g id="g4"><g id="g6"><path id="path10" class="cls-5" d="M7,85.25v16.19H121V85.25Z"/><polygon class="cls-6" points="119.65 78.27 104.98 7 19.89 7 8.16 78.27 119.65 78.27"/><polygon class="cls-7" points="119.65 78.27 104.98 7 75.06 7 57.78 78.27 119.65 78.27"/><polygon class="cls-6" points="8.16 78.27 7.02 85.25 120.98 85.25 119.65 78.27 8.16 78.27"/><polygon class="cls-8" points="26.92 78.27 30.57 7 23.88 7 12.25 78.27 26.92 78.27"/></g><g id="g12"><path id="path14" class="cls-9" d="M96.71,95.52H14.23V90.3H96.71v5.22Z"/><path id="path16" class="cls-10" d="M106.16,95.52h7.6V90.3h-7.6Z"/></g></g><path class="cls-6" d="M55.35,120a41.64,41.64,0,0,0,39.6-29.67H88.49a35.2,35.2,0,0,1-43.68,21.75l-.47,1.28L32.8,110.7l2.71-3.23A36.33,36.33,0,0,1,30.23,103l-3.8,2.47L20.5,99.21l4.79-2.47a36.44,36.44,0,0,1-3.13-6.41H15.75C21,107.47,36.79,120,55.35,120Z"/><path class="cls-11" d="M95.95,90.33h-1c-5.32,17.14-21,29.67-39.6,29.67a41.64,41.64,0,0,1-39.6-29.67h-1C20.07,108.09,36.26,121,55.35,121S90.68,108,95.95,90.33Z"/><path class="cls-11" d="M37.74,90.33H22.21a40.07,40.07,0,0,0,3.13,6.41Z"/><path class="cls-11" d="M45,93.37,30.23,103a36.33,36.33,0,0,0,5.27,4.46l11-13.2C46,93.94,45.52,93.65,45,93.37Z"/><path class="cls-11" d="M55.35,96.5a18.05,18.05,0,0,1-4.84-.67L44.81,112A35.19,35.19,0,0,0,88.49,90.28H69.17A18.59,18.59,0,0,1,55.35,96.5Z"/><path class="cls-6" d="M32.8,110.7l11.54,2.66.47-1.28a35.29,35.29,0,0,1-9.31-4.56Z"/><path class="cls-12" d="M32.8,110.7l11.54,2.66.47-1.28a35.29,35.29,0,0,1-9.31-4.56Z"/><path class="cls-11" d="M46.52,94.22l-11,13.2A35.29,35.29,0,0,0,44.81,112l5.7-16.19A14.52,14.52,0,0,1,46.52,94.22Z"/><path class="cls-12" d="M46.52,94.22l-11,13.2A35.29,35.29,0,0,0,44.81,112l5.7-16.19A14.52,14.52,0,0,1,46.52,94.22Z"/><path class="cls-6" d="M20.5,99.21l5.93,6.27,3.8-2.47a34.76,34.76,0,0,1-4.89-6.27Z"/><path class="cls-12" d="M20.5,99.21l5.93,6.27,3.8-2.47a34.76,34.76,0,0,1-4.89-6.27Z"/><path class="cls-11" d="M30.19,103,45,93.37a19.45,19.45,0,0,1-3.51-3h-3.8L25.29,96.74A39.09,39.09,0,0,0,30.19,103Z"/><path class="cls-12" d="M30.19,103,45,93.37a19.45,19.45,0,0,1-3.51-3h-3.8L25.29,96.74A39.09,39.09,0,0,0,30.19,103Z"/><path class="cls-13" d="M45,93.37a15.29,15.29,0,0,0,1.47.9,18.44,18.44,0,0,0,22.65-3.89h-2.9a16.64,16.64,0,0,1-21.84,0h-2.9A19.68,19.68,0,0,0,45,93.37Z"/><path class="cls-6" d="M55.35,94.41a16.51,16.51,0,0,0,10.92-4.08H44.43A16.76,16.76,0,0,0,55.35,94.41Z"/></g></svg>