<?xml version="1.0" encoding="iso-8859-1"?>
<!-- Generator: Adobe Illustrator 21.0.0, SVG Export Plug-In . SVG Version: 6.00 Build 0)  -->
<svg version="1.1" id="&#x5176;&#x4ED6;" xmlns="http://www.w3.org/2000/svg" xmlns:xlink="http://www.w3.org/1999/xlink" x="0px"
	 y="0px" viewBox="0 0 128 128" style="enable-background:new 0 0 128 128;" xml:space="preserve">
<title>画板 19</title>
<g id="U&#x76D8;">
	<g id="_128">
		<polygon style="opacity:0.2;enable-background:new    ;" points="40.65,124 40.65,97.73 32,97.73 32,4 96,4 96,97.73 87.36,97.73 
			87.36,124 		"/>
		<polygon style="opacity:0.08;enable-background:new    ;" points="40.65,128 40.65,101.73 32,101.73 32,4 100,4 100,101.73 
			91.36,101.73 91.36,128 		"/>
		<polygon style="opacity:0.1;enable-background:new    ;" points="42.65,126 42.65,99.73 34,99.73 34,6 98,6 98,99.73 89.36,99.73 
			89.36,126 		"/>
		<polygon style="fill:#1B5E20;" points="92.67,6 35.33,6 34,6 34,7.33 34,94.39 34,95.73 35.33,95.73 42.65,95.73 42.65,120.67 
			42.65,122 43.98,122 84.02,122 85.36,122 85.36,120.67 85.36,95.73 92.67,95.73 94,95.73 94,94.39 94,7.33 94,6 		"/>
		
			<linearGradient id="SVGID_1_" gradientUnits="userSpaceOnUse" x1="38.6277" y1="35.6113" x2="88.4177" y2="121.0213" gradientTransform="matrix(1 0 0 -1 0 130)">
			<stop  offset="0.24" style="stop-color:#689F38"/>
			<stop  offset="0.94" style="stop-color:#8BC34A"/>
		</linearGradient>
		<rect x="35" y="6.83" style="fill:url(#SVGID_1_);" width="58" height="88.07"/>
		<rect x="41.08" y="6.83" style="opacity:0.24;fill:#FFFFFF;enable-background:new    ;" width="17" height="88.07"/>
		<path id="path1334" style="fill:#33691E;" d="M48.67,47c0.109,1.833,1.32,3.416,3.06,4v4.53c0.106,1.638,0.857,3.166,2.09,4.25
			l0,0l0,0l0.05,0.07l0.05,0.07l0,0l0,0H54l0,0L62.64,67c0.412,0.441,0.662,1.009,0.71,1.61v4c-2.471,0.573-4.267,2.708-4.41,5.24
			c0,3,2.9,5.51,6.48,5.51c3.58,0,6.48-2.46,6.48-5.51c-0.14-2.534-1.938-4.67-4.41-5.24v-3.94l0,0l0,0v-6.92
			c0.047-0.59,0.298-1.145,0.71-1.57l4.26-3.45l3-2.39l1-0.8l0.28-0.22h0.08l0,0h0.08l0,0l0,0l0.05-0.09L77,53l0,0l0,0l0,0l0,0
			c1.216-1.073,1.96-2.582,2.07-4.2v-4.23H82v-8.83h-9.91v8.82H75v4.22c-0.047,0.59-0.298,1.145-0.71,1.57l-6.78,5.48V31.41H72
			l-6.67-10.35L58.7,31.41h4.66v31.27l-6.78-5.46c-0.412-0.441-0.662-1.009-0.71-1.61V51c1.768-0.561,3.011-2.149,3.13-4
			c0-2.47-2.33-4.49-5.18-4.49S48.67,44.49,48.67,47z"/>
		<path id="path1334-2" style="fill:#DCEDC8;" d="M47.33,46c0.081,1.859,1.297,3.476,3.06,4.07v4.53
			c0.106,1.638,0.857,3.166,2.09,4.25l0,0l0,0l0.05,0.07l0.05,0.07l0,0l0,0h0.08l0,0l8.57,6.92c0.478,0.483,0.753,1.131,0.77,1.81v4
			c-2.471,0.573-4.267,2.708-4.41,5.24c0,3,2.9,5.51,6.48,5.51c3.58,0,6.48-2.46,6.48-5.51c-0.143-2.532-1.939-4.667-4.41-5.24v-4
			l0,0v-6.88c0.047-0.59,0.298-1.145,0.71-1.57l4.26-3.45l3-2.39l1-0.8l0.28-0.22h0.08l0,0h0.08l0,0l0,0l0.05-0.09h0.05l0,0l0,0l0,0
			l0,0c1.216-1.073,1.96-2.582,2.07-4.2v-4.46h2.88v-8.83h-9.85v8.83h2.9v4.22c-0.046,0.59-0.297,1.146-0.71,1.57l-6.78,5.49V30.5
			h4.47L64,20.15L57.37,30.5H62v31.27l-6.78-5.46c-0.412-0.441-0.662-1.009-0.71-1.61v-4.56c1.822-0.572,3.085-2.231,3.15-4.14
			c0-2.47-2.33-4.49-5.18-4.49S47.33,43.58,47.33,46z"/>
		<rect x="43.5" y="95.73" style="fill:#657B83;" width="41" height="25.54"/>
		
			<rect id="rect3765" x="48.98" y="95.73" style="opacity:0.31;fill:#FFFFFF;enable-background:new    ;" width="15.02" height="25.54"/>
		
			<rect id="rect3767" x="69.01" y="106" style="opacity:0.65;fill:#073642;enable-background:new    ;" width="10.01" height="9.98"/>
		
			<rect id="rect3769" x="48.98" y="106" style="opacity:0.65;fill:#073642;enable-background:new    ;" width="10.01" height="9.98"/>
	</g>
</g>
</svg>
