<svg id="其他" xmlns="http://www.w3.org/2000/svg" xmlns:xlink="http://www.w3.org/1999/xlink" viewBox="0 0 128 128"><defs><style>.cls-1{opacity:0.2;}.cls-2{opacity:0.08;}.cls-3{opacity:0.1;}.cls-10,.cls-11,.cls-4,.cls-5,.cls-6,.cls-7,.cls-8,.cls-9{fill-rule:evenodd;}.cls-4{fill:url(#新建渐变色板_1);}.cls-5{fill:url(#linear-gradient);}.cls-6{fill:#221e1f;}.cls-7{fill:#040000;}.cls-8{fill:#bac6d1;}.cls-9{fill:#616161;}.cls-10{fill:url(#linear-gradient-2);}.cls-11{fill:#fff;}.cls-12{fill:#90a4ae;}</style><linearGradient id="新建渐变色板_1" x1="64" y1="7.07" x2="64" y2="218.23" gradientUnits="userSpaceOnUse"><stop offset="0" stop-color="#211d1e"/><stop offset="0.55" stop-color="#58595b"/><stop offset="1" stop-color="#abb6be"/></linearGradient><linearGradient id="linear-gradient" x1="65.13" y1="54.18" x2="65.13" y2="128.09" gradientUnits="userSpaceOnUse"><stop offset="0" stop-color="#fff"/><stop offset="1" stop-color="#cfd8dc"/></linearGradient><linearGradient id="linear-gradient-2" x1="-18.34" y1="34.61" x2="103.14" y2="21.84" gradientUnits="userSpaceOnUse"><stop offset="0" stop-color="#bfd7b1"/><stop offset="0.36" stop-color="#cfd1d2"/><stop offset="1" stop-color="#fff"/></linearGradient></defs><title>画板 19</title><g id="软驱"><path class="cls-1" d="M11.34,124a7.07,7.07,0,0,1-7.07-7V11.11a7.05,7.05,0,0,1,7.05-7h8.9L21,5.76l.12,0,11,0V4.22L35.12,4l62.14.08v.09h15.36L123.73,15V117.09a6.91,6.91,0,0,1-7.07,6.91Z"/><path class="cls-2" d="M13.34,128a9.07,9.07,0,0,1-9.07-9V13.11a9.06,9.06,0,0,1,9.05-9H23.48l.84,1.73H32.2V4.36L37.05,4l64,.08v.08h14.35l12.29,11.92v103a8.89,8.89,0,0,1-9.07,8.9Z"/><path class="cls-3" d="M13.34,126a7.07,7.07,0,0,1-7.07-7V13.11a7.05,7.05,0,0,1,7.05-7h8.9L23,7.76l.12,0,11,0V6.22L37.12,6l62.14.08v.09h15.36L125.73,17V119.09a6.91,6.91,0,0,1-7.07,6.9Z"/><path d="M11.34,122a5.06,5.06,0,0,1-5.07-5V11.11a5.05,5.05,0,0,1,5.05-5H19l.27.56a2.07,2.07,0,0,0,.87.89,2.36,2.36,0,0,0,.33.15,2.16,2.16,0,0,0,.49.11l.26,0,13,0V6.08l1-.07,60.24.08.09,1v.8a2.24,2.24,0,0,0,.66-.18l.24-.13.1-.06.15-.1.11-.1.83.59-.73-.68a1.73,1.73,0,0,0,.17-.2l.13-.19.06-.11.28-.56h14.3l9.91,9.62V117.09a4.94,4.94,0,0,1-5.07,4.91Z"/><path class="cls-4" d="M120.73,117.09a4,4,0,0,1-4.07,3.91H11.34a4.06,4.06,0,0,1-4.07-4V11.11a4.05,4.05,0,0,1,4.07-4h7a3.15,3.15,0,0,0,2.85,1.74l74.09.09a3.17,3.17,0,0,0,2.85-1.73h13.27l9.32,9Z"/><path class="cls-5" d="M24.32,55.76h81.61a4.17,4.17,0,0,1,4.16,4.13V121H20.18V59.89A4.13,4.13,0,0,1,24.32,55.76Z"/><path class="cls-6" d="M22.55,48a3,3,0,0,1-3-3V8.37a3.21,3.21,0,0,0,1.3.42V44.94a3,3,0,0,0,3,3Z"/><path class="cls-7" d="M23.54,55.34h81.87a4.27,4.27,0,0,1,2.6,1,4.22,4.22,0,0,0-1.29-.31H24.84a4.16,4.16,0,0,0-4.16,4.13V121h-1.3V59.47A4.15,4.15,0,0,1,23.54,55.34Z"/><path class="cls-8" d="M107.7,56.13a4.15,4.15,0,0,1,3.37,4.07v48.64h0v4.47h0V121h-1.49V59.58A4.13,4.13,0,0,0,107.7,56.13Z"/><path class="cls-9" d="M97.88,7.59l-.16,37.62a3,3,0,0,1-3,3L24,48.1a3,3,0,0,1-2.66-1.62,10.29,10.29,0,0,0,2.61.87l69.42.08a2.94,2.94,0,0,0,2.94-2.92l.16-35.84a3.11,3.11,0,0,0,1.4-1.09Zm-3,1.31L50.14,8.84h0Z"/><path class="cls-6" d="M35.3,7.08H94.53V41.47a4.2,4.2,0,0,1-4.2,4.17L39.5,45.58a4.22,4.22,0,0,1-4.2-4.2V7.08Zm38.26,4.11A2.81,2.81,0,0,0,70.74,14V41.15A2.82,2.82,0,0,0,73.56,44H85.05a2.82,2.82,0,0,0,2.82-2.81V14a2.84,2.84,0,0,0-2.82-2.82Z"/><path class="cls-10" d="M35.2,7l59.24.08V41a4.22,4.22,0,0,1-4.21,4.18L39.4,45.09a4.21,4.21,0,0,1-4.2-4.19V7Zm38.27,3.69a2.83,2.83,0,0,0-2.83,2.81V40.66a2.84,2.84,0,0,0,2.84,2.82H84.95a2.82,2.82,0,0,0,2.83-2.8V13.52a2.84,2.84,0,0,0-2.83-2.83Z"/><path class="cls-11" d="M35.2,7.08H94.44v.49L35.62,7.5V41.39a4.13,4.13,0,0,0,.85,2.5,4.14,4.14,0,0,1-1.27-3V7.08Zm52.08,4.85a2.78,2.78,0,0,1,.5,1.59V40.68a2.82,2.82,0,0,1-2.83,2.8H73.47a2.83,2.83,0,0,1-1.9-.73A2.84,2.84,0,0,0,73.9,44H85.38a2.83,2.83,0,0,0,2.83-2.81V14A2.84,2.84,0,0,0,87.28,11.93Z"/><rect class="cls-12" x="36.31" y="73.55" width="57.17" height="2.83"/><rect class="cls-12" x="36.31" y="97.48" width="57.17" height="2.83"/></g></svg>