<svg id="其他" xmlns="http://www.w3.org/2000/svg" xmlns:xlink="http://www.w3.org/1999/xlink" viewBox="0 0 128 128"><defs><style>.cls-1{opacity:0.2;}.cls-2{opacity:0.08;}.cls-3{opacity:0.1;}.cls-4{fill:#221e1f;}.cls-5{fill:url(#linear-gradient);}.cls-6{fill:url(#linear-gradient-2);}.cls-7{font-size:6.19px;fill:#bbbdbf;font-family:Arial-Black, Arial;}.cls-8{font-size:4.2px;}.cls-9{font-size:7.51px;fill:#a6a8ab;font-family:BankGothicBT-Medium, BankGothic Md BT;}.cls-10{fill:#fff;}</style><linearGradient id="linear-gradient" x1="64.01" y1="34.47" x2="64.01" y2="95" gradientUnits="userSpaceOnUse"><stop offset="0" stop-color="#6c6e70"/><stop offset="0" stop-color="#67696b"/><stop offset="0" stop-color="#535455"/><stop offset="0" stop-color="#434444"/><stop offset="0" stop-color="#383839"/><stop offset="0" stop-color="#323232"/><stop offset="0" stop-color="#303030"/><stop offset="1" stop-color="#303030"/></linearGradient><linearGradient id="linear-gradient-2" x1="72.52" y1="78.97" x2="72.52" y2="39.49" gradientUnits="userSpaceOnUse"><stop offset="0.01" stop-color="#6c6e70"/><stop offset="0.01" stop-color="#595b5c"/><stop offset="0.01" stop-color="#444546"/><stop offset="0.01" stop-color="#343535"/><stop offset="0.02" stop-color="#29292a"/><stop offset="0.02" stop-color="#232323"/><stop offset="0.03" stop-color="#212121"/><stop offset="1" stop-color="#212121"/></linearGradient></defs><title>画板 19</title><g id="内存卡"><path class="cls-1" d="M26.31,101.09,3.84,89V31.85a4.94,4.94,0,0,1,4.94-4.94H118.9a4.94,4.94,0,0,1,4.94,4.94V43.46l-.44.72A10.71,10.71,0,0,0,122,48.43c0,.19,0,.29-.06.38l0,.11c0,.09,0,.21,0,.34l0,.25v.13a12.25,12.25,0,0,0,.07,1.53,10.93,10.93,0,0,0,1.34,4.23l.07.12.09.19h0l.4.84V96.15a4.94,4.94,0,0,1-4.94,4.94Z"/><path class="cls-2" d="M27.81,105.09l-24-12.85V33.85a7,7,0,0,1,6.94-6.94H120.9a6.94,6.94,0,0,1,6.94,6.94V46l-.73,1.2a8.7,8.7,0,0,0-1.16,3.45c0,.29-.07.41-.09.53v0l0,.19v.26a10.07,10.07,0,0,0,.06,1.28A8.89,8.89,0,0,0,127,56.39l.12.2.26.57.45.93v0l.33.71-.33.12V98.15a6.94,6.94,0,0,1-6.94,6.94Z"/><path class="cls-3" d="M28.31,103.09,5.84,91V33.85a4.94,4.94,0,0,1,4.94-4.94H120.9a4.94,4.94,0,0,1,4.94,4.94V45.46l-.44.72A10.71,10.71,0,0,0,124,50.43c0,.19,0,.29-.06.38l0,.11c0,.09,0,.21,0,.34l0,.25v.13a12.25,12.25,0,0,0,.07,1.53,10.93,10.93,0,0,0,1.34,4.23l.07.12.09.19h0l.4.84V98.15a4.94,4.94,0,0,1-4.94,4.94Z"/><path d="M26.82,99.09l-21-11.24v-56a2.94,2.94,0,0,1,2.94-2.94H118.9a2.94,2.94,0,0,1,2.94,2.94v11l-.15.24A12.71,12.71,0,0,0,120,48.19c0,.11,0,.18,0,.26s0,.09,0,.14c0,.24,0,.44-.06.64v.08l0,.3v.07a13.82,13.82,0,0,0,.08,1.71v.09a12.82,12.82,0,0,0,1.59,4.93l0,.06,0,.06.07.16.15.32V96.15a2.94,2.94,0,0,1-2.94,2.94Z"/><path class="cls-4" d="M120,57.73v0a14.17,14.17,0,0,1-.52-1.89l0-.2c-.09-.46-.13-.92-.17-1.39h0a14.66,14.66,0,0,1-.46-2.84s0-.06,0-.09c0-.44,0-.88,0-1.32v-.15c0-.45.06-.9.12-1.34v0c0-.13.05-.25.07-.38a13.68,13.68,0,0,1,1.86-5.45V39.07a1.94,1.94,0,0,0-1.94-1.94H8.78a1.94,1.94,0,0,0-1.94,1.94V87.25L27.07,98.09H118.9a1.94,1.94,0,0,0,1.94-1.94V59.61h0A12.92,12.92,0,0,1,120,57.73Z"/><path class="cls-4" d="M120.69,56.9h0A13.76,13.76,0,0,1,119,51.58v-.09h0a14.68,14.68,0,0,1-.09-1.83c0-.21-.06-.42-.07-.64,0,0,0-.06,0-.09,0-.44,0-.88,0-1.32v-.15c0-.45.06-.9.12-1.34v0a13.6,13.6,0,0,1,1.93-5.39V31.85a1.94,1.94,0,0,0-1.94-1.94H8.78a1.94,1.94,0,0,0-1.94,1.94V81.9L27.07,93.21H118.9c1.07,0,1.94-.4,1.94-1.47V57.23h0C120.78,57.13,120.74,57,120.69,56.9Z"/><path class="cls-5" d="M119.33,57.15a12.51,12.51,0,0,1-.8-1.67h0l-.06-.15h0a14.47,14.47,0,0,1-1-5.63c0-.15,0-.29,0-.44s0-.06,0-.09q0-.66,0-1.32v-.15c0-.45.06-.9.12-1.34v0a13.77,13.77,0,0,1,1.9-5.39V36A1.92,1.92,0,0,0,117.56,34H10.45A1.92,1.92,0,0,0,8.54,36V84.14L27.07,95h90.49A1.92,1.92,0,0,0,119.47,93V57.47h0C119.42,57.37,119.38,57.25,119.33,57.15Z"/><rect class="cls-6" x="32.38" y="39.51" width="80.28" height="39.75" rx="2.34" ry="2.34"/><text class="cls-7" transform="translate(15.53 82.6) scale(0.95 1)">32<tspan class="cls-8" x="8.26" y="0">GB</tspan></text><text class="cls-7" transform="translate(65.66 48.03) scale(0.95 1)">TOTAL 32<tspan class="cls-8" x="33.39" y="0">GB</tspan></text><text class="cls-9" transform="translate(41.4 74.68) scale(0.98 1)">MEMORY</text><text class="cls-9" transform="translate(81.83 74.56) scale(0.98 1)">STICK</text><polygon class="cls-10" points="10.92 80.25 12.32 79.08 13.72 77.91 13.72 80.25 13.72 82.58 12.32 81.41 10.92 80.25"/><path class="cls-10" d="M19.77,40.13A7.91,7.91,0,1,0,27.68,48,7.91,7.91,0,0,0,19.77,40.13Zm2.69,2.18a1.06,1.06,0,1,1-1.06,1.06A1.06,1.06,0,0,1,22.46,42.31Zm-8.07,6.78A1.06,1.06,0,1,1,15.45,48,1.06,1.06,0,0,1,14.39,49.09Zm.81.18a1.47,1.47,0,0,0,0-2.47,6,6,0,0,1,2.07-2.6L18,45.5A3,3,0,0,0,16.69,48a3.27,3.27,0,0,0,1.3,2.6l-.77,1.28A5.72,5.72,0,0,1,15.2,49.26Zm4-3.18.59-.61h0l-.25.75.14.56-.38.54.58.43.8.33L20.9,48l.33-.18.34-.5.55-.17-.1.73h0l-.35.13-.26-.05-.46.27,0,.58.23.48-.46.43,0,.36h-.63l.49-.72-.17-.22h0l-.47.38h0v.25h-.62l.4-.38.39-.47-.33-.22-.33.17L19,49l-.4-.07-.24.38-.08.55h-.6l.22-.27.21-.25L18,49l-.1-.61-.31-.78.33-.57.23-.5.48-.31,0,0,.55-.57h0l-.15.39Zm3.28,7.68a1.06,1.06,0,1,1,1.06-1.06A1.06,1.06,0,0,1,22.46,53.76ZM23,51.31a1.2,1.2,0,0,0-.65-.1,1.35,1.35,0,0,0-1.28,1.24,4.57,4.57,0,0,1-3.32-.31l.73-1.3a3.66,3.66,0,0,0,2.91-.19A3.52,3.52,0,0,0,22.8,48.3l1.55,0A4.51,4.51,0,0,1,23,51.31Zm-.12-3.58a3.14,3.14,0,0,0-4.41-2.52l-.71-1.31a4.54,4.54,0,0,1,3.24-.3,1.63,1.63,0,0,0,.76,1.05,1.56,1.56,0,0,0,1.24.1,4.42,4.42,0,0,1,1.37,3Z"/></g></svg>