<?xml version="1.0" encoding="utf-8"?>
<!-- Generator: Adobe Illustrator 21.0.0, SVG Export Plug-In . SVG Version: 6.00 Build 0)  -->
<svg version="1.1"
	 id="svg2" inkscape:version="0.48.4 r9939" sodipodi:docname="computer.svg" xmlns:cc="http://creativecommons.org/ns#" xmlns:dc="http://purl.org/dc/elements/1.1/" xmlns:inkscape="http://www.inkscape.org/namespaces/inkscape" xmlns:rdf="http://www.w3.org/1999/02/22-rdf-syntax-ns#" xmlns:sodipodi="http://sodipodi.sourceforge.net/DTD/sodipodi-0.dtd" xmlns:svg="http://www.w3.org/2000/svg"
	 xmlns="http://www.w3.org/2000/svg" xmlns:xlink="http://www.w3.org/1999/xlink" x="0px" y="0px" viewBox="0 0 128 128"
	 style="enable-background:new 0 0 128 128;" xml:space="preserve">
<style type="text/css">
	.st0{opacity:0.2;enable-background:new    ;}
	.st1{opacity:0.08;enable-background:new    ;}
	.st2{opacity:0.1;enable-background:new    ;}
	.st3{fill:#01579B;}
	.st4{fill:#0288D1;}
	.st5{fill:url(#SVGID_1_);}
	.st6{opacity:0.7;enable-background:new    ;}
	.st7{fill:#FFFFFF;}
	.st8{fill:#F5F5F5;}
</style>
<g>
	<path class="st0" d="M64,124C30.9,124,4,97.1,4,64S30.9,4,64,4s60,26.9,60,60S97.1,124,64,124z M64,59.4c-2.5,0-4.6,2.1-4.6,4.6
		s2.1,4.6,4.6,4.6s4.6-2.1,4.6-4.6S66.5,59.4,64,59.4z"/>
	<path class="st1" d="M66,128c-34.2,0-62-27.8-62-62S31.8,4,66,4s62,27.8,62,62S100.2,128,66,128z M66,63.4c-1.4,0-2.6,1.2-2.6,2.6
		s1.2,2.6,2.6,2.6s2.6-1.2,2.6-2.6S67.4,63.4,66,63.4z"/>
	<path class="st2" d="M66,126C32.9,126,6,99.1,6,66S32.9,6,66,6s60,26.9,60,60S99.1,126,66,126z M66,61.4c-2.5,0-4.6,2.1-4.6,4.6
		s2.1,4.6,4.6,4.6s4.6-2.1,4.6-4.6S68.5,61.4,66,61.4z"/>
	<path class="st3" d="M64,122C32,122,6,96,6,64S32,6,64,6s58,26,58,58S96,122,64,122z M64,57.5c-3.5,0-6.5,3-6.5,6.5s3,6.5,6.5,6.5
		s6.5-3,6.5-6.5S67.5,57.5,64,57.5z"/>
	<path class="st4" d="M64,7C32.5,7,7,32.5,7,64s25.5,57,57,57s57-25.5,57-57S95.5,7,64,7z M64,119.3C33.5,119.3,8.8,94.5,8.8,64
		S33.5,8.8,64,8.8s55.3,24.8,55.3,55.3S94.5,119.3,64,119.3z"/>
	
		<radialGradient id="SVGID_1_" cx="72.8192" cy="-973.736" r="48.3313" gradientTransform="matrix(0.9828 0 0 -0.9828 -7.5667 -892.9878)" gradientUnits="userSpaceOnUse">
		<stop  offset="0" style="stop-color:#4DD0E1"/>
		<stop  offset="0.3925" style="stop-color:#40BEE7"/>
		<stop  offset="0.6129" style="stop-color:#3FBDE7"/>
		<stop  offset="0.6613" style="stop-color:#44C4E8"/>
		<stop  offset="0.7527" style="stop-color:#2CBEE8"/>
		<stop  offset="1" style="stop-color:#2196F3"/>
	</radialGradient>
	<path class="st5" d="M64,16.5c-26.2,0-47.5,21.3-47.5,47.5s21.3,47.5,47.5,47.5s47.5-21.3,47.5-47.5S90.2,16.5,64,16.5z M64,80.8
		c-9.3,0-16.8-7.6-16.8-16.8S54.8,47.3,64,47.3S80.8,54.8,80.8,64S73.3,80.8,64,80.8z"/>
	<g class="st6">
		<path class="st7" d="M80.6,65.1l29.2,1.9l1.7-0.1c0.4-6.8-0.6-13.6-3-19.9L79.7,58C80.4,60.3,80.7,62.7,80.6,65.1z"/>
		<path class="st7" d="M47.4,62.9L18.3,61l-1.7,0.1c-0.4,6.8,0.6,13.6,3,19.9l28.8-11C47.6,67.7,47.3,65.3,47.4,62.9z"/>
	</g>
	<g class="st6">
		<path class="st7" d="M78.4,55.6l25.2-14.7l1.3-1C101.4,34,96.8,29,91.3,25.1L73.5,50.3C75.5,51.8,77.1,53.6,78.4,55.6z"/>
		<path class="st7" d="M49.6,72.4L24.4,87.1l-1.4,1c3.5,5.9,8.1,10.9,13.6,14.8l17.8-25.2C52.5,76.2,50.9,74.4,49.6,72.4z"/>
	</g>
	<path class="st8" d="M64,8.8C33.5,8.8,8.9,33.5,8.9,64s24.8,55.3,55.2,55.3s55.2-24.8,55.2-55.3S94.5,8.8,64,8.8z M64,111.5
		c-26.2,0-47.5-21.3-47.5-47.5S37.8,16.5,64,16.5s47.5,21.3,47.5,47.5S90.2,111.5,64,111.5z"/>
	<path class="st4" d="M64,47c-9.4,0-17,7.7-17,17s7.7,17,17,17s17-7.7,17-17S73.4,47,64,47z M64,79c-8.3,0-15-6.7-15-15
		s6.7-15,15-15s15,6.7,15,15S72.3,79,64,79z"/>
	<path class="st8" d="M64,49c-8.3,0-15,6.7-15,15s6.7,15,15,15s15-6.7,15-15S72.3,49,64,49z M64,71.7c-4.2,0-7.7-3.4-7.7-7.7
		s3.4-7.7,7.7-7.7s7.7,3.4,7.7,7.7S68.2,71.7,64,71.7z"/>
</g>
<g id="新建符号_7">
</g>
</svg>
