<svg id="其他" xmlns="http://www.w3.org/2000/svg" xmlns:xlink="http://www.w3.org/1999/xlink" viewBox="0 0 128 128"><defs><style>.cls-1,.cls-2,.cls-3,.cls-4,.cls-5{fill-rule:evenodd;}.cls-1{opacity:0.2;}.cls-2{opacity:0.08;}.cls-3{opacity:0.1;}.cls-5{fill:url(#新建渐变色板_1);}.cls-6{fill:#616161;}.cls-7{fill:#b71c1c;}.cls-8{fill:url(#linear-gradient);}.cls-9{font-size:35.31px;font-family:Arial-BoldMT, Arial;font-weight:700;}.cls-10,.cls-12,.cls-9{fill:#fff;}.cls-10{font-size:10.04px;font-family:ArialMT, Arial;}.cls-11{fill:#212121;}.cls-12{font-size:10.42px;font-family:Arial-Black, Arial;}.cls-13{fill:#131313;fill-opacity:0.2;}</style><linearGradient id="新建渐变色板_1" x1="64" y1="7" x2="64" y2="218.3" gradientUnits="userSpaceOnUse"><stop offset="0" stop-color="#211d1e"/><stop offset="0.55" stop-color="#58595b"/><stop offset="1" stop-color="#abb6be"/></linearGradient><linearGradient id="linear-gradient" x1="64" y1="17.37" x2="64" y2="121.85" gradientUnits="userSpaceOnUse"><stop offset="0" stop-color="#f44336"/><stop offset="1" stop-color="#d32f2f"/></linearGradient></defs><title>画板 19</title><g id="sd"><path class="cls-1" d="M16.16,124a7.3,7.3,0,0,1-7.3-7.28V75.8h3.37V39.49H8.86V11.27A7.29,7.29,0,0,1,16.14,4h91.37l11.62,11.43V42.64h-3.2V55.88h3.2v61a7.14,7.14,0,0,1-7.3,7.13Z"/><path class="cls-2" d="M18.16,128a9.3,9.3,0,0,1-9.3-9.28V75.8h3.37V43.49H8.86V13.27A9.29,9.29,0,0,1,18.14,4h92.19l12.8,12.59V46.64h-3.2v9.24h3.2v63a9.12,9.12,0,0,1-9.3,9.13Z"/><path class="cls-3" d="M18.16,126a7.3,7.3,0,0,1-7.3-7.28V77.8h3.37V41.49H10.86V13.27A7.29,7.29,0,0,1,18.14,6h91.37l11.62,11.43V44.64h-3.2V57.88h3.2v61a7.14,7.14,0,0,1-7.3,7.13Z"/><path class="cls-4" d="M16.16,122a5.3,5.3,0,0,1-5.3-5.28V77.8h3.37V37.49H10.86V11.27A5.28,5.28,0,0,1,16.14,6H106.7l10.44,10.26V40.64h-3.2V57.88h3.2v59a5.16,5.16,0,0,1-5.3,5.13Z"/><path class="cls-5" d="M112.94,58.88V39.64h3.2v-23L106.29,7H16.16a4.29,4.29,0,0,0-4.3,4.27V36.49h3.37V78.8H11.86v37.92a4.29,4.29,0,0,0,4.3,4.28h95.68a4.18,4.18,0,0,0,4.3-4.13v-58Z"/><path class="cls-6" d="M104.76,10.74l7.64,7.51V35.91h-3.2V62.62h3.2v54.25c0,.32-.42.39-.56.39H16.16a.56.56,0,0,1-.56-.55V82.54H19V32.75H15.6V11.27a.54.54,0,0,1,.55-.54h88.62m.31-.75H16.14a1.29,1.29,0,0,0-1.29,1.28V33.5h3.37V81.79H14.85v34.93A1.3,1.3,0,0,0,16.16,118h95.68a1.22,1.22,0,0,0,1.31-1.14v-55h-3.2V36.66h3.2V17.94L105.07,10Z"/><rect class="cls-7" x="24.69" y="18.61" width="78.63" height="94.21"/><rect class="cls-8" x="25.68" y="19.61" width="76.63" height="92.21"/><text class="cls-9" transform="translate(49.09 102.94)">SD</text><text class="cls-10" transform="translate(68 74.06)">MMC</text><rect class="cls-11" x="48.97" y="19.61" width="30.05" height="28.12"/><text class="cls-12" transform="translate(52.09 44.58) scale(1.05 1)">32G</text><path class="cls-13" d="M25.68,19.61h76.63V33.67H25.68Z"/></g></svg>