<svg id="其他" xmlns="http://www.w3.org/2000/svg" xmlns:xlink="http://www.w3.org/1999/xlink" viewBox="0 0 128 128"><defs><style>.cls-1{fill:none;}.cls-2{opacity:0.2;}.cls-3{opacity:0.08;}.cls-4{opacity:0.1;}.cls-5{fill:#01579b;}.cls-6{fill:#0288d1;}.cls-7{fill:url(#radial-gradient);}.cls-8{opacity:0.7;}.cls-10,.cls-8{isolation:isolate;}.cls-9{fill:#fff;}.cls-10{fill:#f5f5f5;}.cls-11{stroke:#263238;stroke-miterlimit:10;fill:url(#radial-gradient-2);}.cls-12{clip-path:url(#clip-path);}.cls-13{fill:url(#radial-gradient-3);}.cls-14{fill:url(#radial-gradient-4);}</style><radialGradient id="radial-gradient" cx="64.01" cy="63.87" r="48.33" gradientTransform="translate(1.09 1.23) scale(0.98)" gradientUnits="userSpaceOnUse"><stop offset="0" stop-color="#4dd0e1"/><stop offset="0.39" stop-color="#40bee7"/><stop offset="0.61" stop-color="#3fbde7"/><stop offset="0.66" stop-color="#44c4e8"/><stop offset="0.75" stop-color="#2cbee8"/><stop offset="1" stop-color="#2196f3"/></radialGradient><radialGradient id="radial-gradient-2" cx="88.4" cy="43.43" r="34.36" gradientUnits="userSpaceOnUse"><stop offset="0" stop-color="#607d8b"/><stop offset="0.35" stop-color="#607d8b"/><stop offset="0.6" stop-color="#607d8b"/><stop offset="1" stop-color="#455a64"/></radialGradient><clipPath id="clip-path"><path class="cls-1" d="M73.71,16h0V69.3a12.85,12.85,0,0,0-3.18-.38c-5.16,0-9.36,3.06-9.36,6.81s4.2,6.81,9.36,6.81,9.36-3.06,9.36-6.81h0V40l35.26-7.26V59.56a12.86,12.86,0,0,0-3.18-.38c-5.16,0-9.36,3.06-9.36,6.81s4.2,6.81,9.36,6.81,9.36-3.06,9.36-6.81h0V6.21Zm41.38,10.69L79.82,34V23.08l35.27-7.26Z"/></clipPath><radialGradient id="radial-gradient-3" cx="-83.05" cy="114.02" r="8.07" gradientTransform="translate(177.33 -49.59) scale(1.3 1.08)" gradientUnits="userSpaceOnUse"><stop offset="0.37" stop-color="#5f7b8a"/><stop offset="1" stop-color="#455a64" stop-opacity="0"/></radialGradient><radialGradient id="radial-gradient-4" cx="-52.44" cy="106.57" r="8.07" gradientTransform="translate(177.33 -50.99) scale(1.3 1.08)" xlink:href="#radial-gradient-3"/></defs><title>画板 19</title><g id="光盘-音乐"><path class="cls-2" d="M64,124a60,60,0,1,1,60-60A60.07,60.07,0,0,1,64,124Zm0-64.62A4.62,4.62,0,1,0,68.62,64,4.62,4.62,0,0,0,64,59.38Z"/><path class="cls-3" d="M66,128a62,62,0,1,1,62-62A62.07,62.07,0,0,1,66,128Zm0-64.62A2.62,2.62,0,1,0,68.62,66,2.62,2.62,0,0,0,66,63.38Z"/><path class="cls-4" d="M66,126a60,60,0,1,1,60-60A60.07,60.07,0,0,1,66,126Zm0-64.62A4.62,4.62,0,1,0,70.62,66,4.62,4.62,0,0,0,66,61.38Z"/><path class="cls-5" d="M64,122a58,58,0,1,1,58-58A58.07,58.07,0,0,1,64,122Zm0-64.62A6.62,6.62,0,1,0,70.62,64,6.62,6.62,0,0,0,64,57.38Z"/><path class="cls-6" d="M64,7a57,57,0,1,0,57,57A57,57,0,0,0,64,7Zm0,112.34A55.34,55.34,0,1,1,119.34,64,55.4,55.4,0,0,1,64,119.34Z"/><path class="cls-7" d="M64,16.5A47.5,47.5,0,1,0,111.5,64,47.55,47.55,0,0,0,64,16.5Zm0,64.13A16.63,16.63,0,1,1,80.63,64,16.64,16.64,0,0,1,64,80.63Z"/><g class="cls-8"><path class="cls-9" d="M80.58,65.09,109.74,67,111.4,67a47.74,47.74,0,0,0-3-19.87l-28.84,11A16.71,16.71,0,0,1,80.58,65.09Z"/><path class="cls-9" d="M47.42,62.9,18.26,61,16.6,61a47.76,47.76,0,0,0,3,19.87l28.84-11A16.69,16.69,0,0,1,47.42,62.9Z"/></g><g class="cls-8"><path class="cls-9" d="M78.36,55.63l25.25-14.71,1.35-1A47.76,47.76,0,0,0,91.32,25.17L73.56,50.41A16.7,16.7,0,0,1,78.36,55.63Z"/><path class="cls-9" d="M49.64,72.37,24.39,87.07l-1.35,1a47.75,47.75,0,0,0,13.63,14.77L54.44,77.59A16.7,16.7,0,0,1,49.64,72.37Z"/></g><path class="cls-10" d="M64,8.66A55.34,55.34,0,1,0,119.34,64,55.4,55.4,0,0,0,64,8.66ZM64,111.5A47.5,47.5,0,1,1,111.5,64,47.55,47.55,0,0,1,64,111.5Z"/><path class="cls-6" d="M64,47.38A16.63,16.63,0,1,0,80.63,64,16.64,16.64,0,0,0,64,47.38ZM64,78.9A14.91,14.91,0,1,1,78.91,64,14.92,14.92,0,0,1,64,78.9Z"/><path class="cls-10" d="M64,49.09A14.91,14.91,0,1,0,78.91,64,14.92,14.92,0,0,0,64,49.09Zm0,22.52A7.62,7.62,0,1,1,71.62,64,7.63,7.63,0,0,1,64,71.62Z"/><path class="cls-11" d="M73.71,16h0V69.3a12.85,12.85,0,0,0-3.18-.38c-5.16,0-9.36,3.06-9.36,6.81s4.2,6.81,9.36,6.81,9.36-3.06,9.36-6.81h0V40l35.26-7.26V59.56a12.86,12.86,0,0,0-3.18-.38c-5.16,0-9.36,3.06-9.36,6.81s4.2,6.81,9.36,6.81,9.36-3.06,9.36-6.81h0V6.21Zm41.38,10.69L79.82,34V23.08l35.27-7.26Z"/><g class="cls-12"><ellipse class="cls-13" cx="69.95" cy="73.34" rx="8.68" ry="7.06"/><ellipse class="cls-14" cx="109.83" cy="63.91" rx="8.68" ry="7.06"/></g></g></svg>