<?xml version="1.0" encoding="iso-8859-1"?>
<!-- Generator: Adobe Illustrator 21.0.0, SVG Export Plug-In . SVG Version: 6.00 Build 0)  -->
<svg version="1.1" id="&#x5176;&#x4ED6;" xmlns="http://www.w3.org/2000/svg" xmlns:xlink="http://www.w3.org/1999/xlink" x="0px"
	 y="0px" viewBox="0 0 128 128" style="enable-background:new 0 0 128 128;" xml:space="preserve">
<title>画板 19</title>
<g id="&#x5149;&#x76D8;-&#x97F3;&#x4E50;">
	<path style="opacity:0.2;enable-background:new    ;" d="M64,124C30.863,124,4,97.137,4,64S30.863,4,64,4s60,26.863,60,60
		C123.961,97.121,97.121,123.961,64,124z M64,59.38c-2.552,0-4.62,2.068-4.62,4.62c0,2.552,2.068,4.62,4.62,4.62
		c2.552,0,4.62-2.068,4.62-4.62C68.62,61.448,66.552,59.38,64,59.38C64,59.38,64,59.38,64,59.38z"/>
	<path style="opacity:0.08;enable-background:new    ;" d="M66,128c-34.242,0-62-27.758-62-62S31.758,4,66,4s62,27.758,62,62
		C127.961,100.226,100.226,127.961,66,128z M66,63.38c-1.447,0-2.62,1.173-2.62,2.62c0,1.447,1.173,2.62,2.62,2.62
		c1.447,0,2.62-1.173,2.62-2.62S67.447,63.38,66,63.38C66,63.38,66,63.38,66,63.38z"/>
	<path style="opacity:0.1;enable-background:new    ;" d="M66,126C32.863,126,6,99.137,6,66S32.863,6,66,6s60,26.863,60,60
		C125.961,99.121,99.121,125.961,66,126z M66,61.38c-2.552,0-4.62,2.068-4.62,4.62c0,2.552,2.068,4.62,4.62,4.62
		c2.552,0,4.62-2.068,4.62-4.62C70.62,63.448,68.552,61.38,66,61.38C66,61.38,66,61.38,66,61.38z"/>
	<path style="fill:#01579B;" d="M64,122C31.967,122,6,96.033,6,64S31.967,6,64,6s58,25.967,58,58
		C121.961,96.017,96.017,121.961,64,122z M64,57.38c-3.656,0-6.62,2.964-6.62,6.62c0,3.656,2.964,6.62,6.62,6.62
		c3.656,0,6.62-2.964,6.62-6.62C70.62,60.344,67.656,57.38,64,57.38C64,57.38,64,57.38,64,57.38z"/>
	<path style="fill:#0288D1;" d="M64,7C32.52,7,7,32.52,7,64s25.52,57,57,57s57-25.52,57-57S95.48,7,64,7z M64,119.34
		C33.437,119.34,8.66,94.563,8.66,64S33.437,8.66,64,8.66S119.34,33.437,119.34,64c0,0,0,0,0,0
		C119.307,94.55,94.55,119.307,64,119.34z"/>
	
		<radialGradient id="SVGID_1_" cx="71.8671" cy="63.3749" r="48.33" gradientTransform="matrix(0.98 0 0 -0.98 -6.61 125.93)" gradientUnits="userSpaceOnUse">
		<stop  offset="0" style="stop-color:#4DD0E1"/>
		<stop  offset="0.39" style="stop-color:#40BEE7"/>
		<stop  offset="0.61" style="stop-color:#3FBDE7"/>
		<stop  offset="0.66" style="stop-color:#44C4E8"/>
		<stop  offset="0.75" style="stop-color:#2CBEE8"/>
		<stop  offset="1" style="stop-color:#2196F3"/>
	</radialGradient>
	<path style="fill:url(#SVGID_1_);" d="M64,16.5c-26.234,0-47.5,21.266-47.5,47.5s21.266,47.5,47.5,47.5s47.5-21.266,47.5-47.5
		C111.472,37.778,90.222,16.528,64,16.5z M64,80.63c-9.184,0-16.63-7.446-16.63-16.63S54.816,47.37,64,47.37S80.63,54.816,80.63,64
		v0C80.624,73.182,73.182,80.624,64,80.63z"/>
	<g style="opacity:0.7;">
		<path style="fill:#FFFFFF;" d="M80.58,65.09L109.74,67h1.66c0.421-6.761-0.602-13.535-3-19.87l-28.84,11
			C80.39,60.351,80.738,62.724,80.58,65.09z"/>
		<path style="fill:#FFFFFF;" d="M47.42,62.9L18.26,61H16.6c-0.42,6.761,0.602,13.534,3,19.87l28.84-11
			C47.608,67.646,47.26,65.269,47.42,62.9z"/>
	</g>
	<g style="opacity:0.7;">
		<path style="fill:#FFFFFF;" d="M78.36,55.63l25.25-14.71l1.35-1c-3.449-5.828-8.099-10.856-13.64-14.75L73.56,50.41
			C75.515,51.786,77.152,53.566,78.36,55.63z"/>
		<path style="fill:#FFFFFF;" d="M49.64,72.37l-25.25,14.7l-1.35,1c3.444,5.835,8.09,10.869,13.63,14.77l17.77-25.25
			C52.485,76.214,50.848,74.434,49.64,72.37z"/>
	</g>
	<path style="fill:#F5F5F5;" d="M64,8.66C33.437,8.66,8.66,33.437,8.66,64S33.437,119.34,64,119.34S119.34,94.563,119.34,64l0,0
		C119.307,33.45,94.55,8.693,64,8.66z M64,111.5c-26.234,0-47.5-21.266-47.5-47.5S37.766,16.5,64,16.5s47.5,21.266,47.5,47.5
		C111.472,90.222,90.222,111.472,64,111.5z"/>
	<path style="fill:#0288D1;" d="M64,47.38c-9.184,0-16.63,7.446-16.63,16.63S54.816,80.64,64,80.64s16.63-7.446,16.63-16.63
		c0-0.003,0-0.007,0-0.01C80.619,54.822,73.178,47.386,64,47.38z M64,78.9c-8.235,0-14.91-6.675-14.91-14.91S55.765,49.08,64,49.08
		s14.91,6.675,14.91,14.91c0,0.003,0,0.007,0,0.01C78.899,72.228,72.228,78.894,64,78.9z"/>
	<path style="fill:#F5F5F5;" d="M64,49.09c-8.235,0-14.91,6.675-14.91,14.91S55.765,78.91,64,78.91c8.235,0,14.91-6.675,14.91-14.91
		C78.904,55.768,72.232,49.096,64,49.09z M64,71.61c-4.208,0-7.62-3.412-7.62-7.62c0-4.208,3.412-7.62,7.62-7.62
		c4.208,0,7.62,3.412,7.62,7.62c0,0.003,0,0.007,0,0.01c-0.006,4.206-3.414,7.614-7.62,7.62V71.61z"/>
	
		<radialGradient id="SVGID_2_" cx="88.4" cy="86.57" r="34.36" gradientTransform="matrix(1 0 0 -1 0 130)" gradientUnits="userSpaceOnUse">
		<stop  offset="0" style="stop-color:#607D8B"/>
		<stop  offset="0.35" style="stop-color:#607D8B"/>
		<stop  offset="0.6" style="stop-color:#607D8B"/>
		<stop  offset="1" style="stop-color:#455A64"/>
	</radialGradient>
	<path style="fill:url(#SVGID_2_);stroke:#263238;stroke-miterlimit:10;" d="M73.71,16L73.71,16v53.3
		c-1.04-0.259-2.108-0.386-3.18-0.38c-5.16,0-9.36,3.06-9.36,6.81s4.2,6.81,9.36,6.81s9.36-3.06,9.36-6.81l0,0V40l35.26-7.26v26.82
		c-1.04-0.259-2.108-0.386-3.18-0.38c-5.16,0-9.36,3.06-9.36,6.81c0,3.75,4.2,6.81,9.36,6.81s9.36-3.06,9.36-6.81l0,0V6.21L73.71,16
		z M115.09,26.69L79.82,34V23.08l35.27-7.26V26.69z"/>
	<g>
		<defs>
			<path id="SVGID_3_" d="M73.71,16L73.71,16v53.3c-1.04-0.259-2.108-0.386-3.18-0.38c-5.16,0-9.36,3.06-9.36,6.81
				s4.2,6.81,9.36,6.81s9.36-3.06,9.36-6.81l0,0V40l35.26-7.26v26.82c-1.04-0.259-2.108-0.386-3.18-0.38
				c-5.16,0-9.36,3.06-9.36,6.81c0,3.75,4.2,6.81,9.36,6.81s9.36-3.06,9.36-6.81l0,0V6.21L73.71,16z M115.09,26.69L79.82,34V23.08
				l35.27-7.26V26.69z"/>
		</defs>
		<clipPath id="SVGID_4_">
			<use xlink:href="#SVGID_3_"  style="overflow:visible;"/>
		</clipPath>
		<g style="clip-path:url(#SVGID_4_);">
			
				<radialGradient id="SVGID_5_" cx="-171.8961" cy="25.98" r="8.07" gradientTransform="matrix(1.3 0 0 -1.08 292.83 101.61)" gradientUnits="userSpaceOnUse">
				<stop  offset="0.37" style="stop-color:#5F7B8A"/>
				<stop  offset="1" style="stop-color:#455A64;stop-opacity:0"/>
			</radialGradient>
			<ellipse style="fill:url(#SVGID_5_);" cx="69.95" cy="73.34" rx="8.68" ry="7.06"/>
			
				<radialGradient id="SVGID_6_" cx="-141.2861" cy="33.43" r="8.07" gradientTransform="matrix(1.3 0 0 -1.08 292.83 100.21)" gradientUnits="userSpaceOnUse">
				<stop  offset="0.37" style="stop-color:#5F7B8A"/>
				<stop  offset="1" style="stop-color:#455A64;stop-opacity:0"/>
			</radialGradient>
			<ellipse style="fill:url(#SVGID_6_);" cx="109.83" cy="63.91" rx="8.68" ry="7.06"/>
		</g>
	</g>
</g>
</svg>
