<svg xmlns="http://www.w3.org/2000/svg" xmlns:xlink="http://www.w3.org/1999/xlink" viewBox="0 0 128 128"><defs><style>.cls-1,.cls-2,.cls-3,.cls-4{fill:#040000;}.cls-1{opacity:0.2;}.cls-2{opacity:0.08;}.cls-3{opacity:0.1;}.cls-5{fill:url(#linear-gradient);}.cls-6{fill:url(#linear-gradient-2);}.cls-7{fill:#1c2938;}.cls-8{fill:#090c0f;}.cls-9{fill:#ececde;}.cls-10{fill:url(#linear-gradient-3);}.cls-11,.cls-15{fill:none;stroke-miterlimit:10;}.cls-11{stroke:#000;}.cls-12{fill:#bdbdb2;}.cls-13{fill:#fff;}.cls-14{fill:#8f9396;}.cls-15{stroke:#8f9396;}</style><linearGradient id="linear-gradient" x1="64" y1="63.78" x2="64" y2="30.38" gradientUnits="userSpaceOnUse"><stop offset="0" stop-color="#455a64"/><stop offset="1" stop-color="#607d8b"/></linearGradient><linearGradient id="linear-gradient-2" x1="64" y1="97.19" x2="64" y2="63.78" gradientUnits="userSpaceOnUse"><stop offset="0" stop-color="#1a1a1a"/><stop offset="1" stop-color="#263238"/></linearGradient><linearGradient id="linear-gradient-3" x1="110.26" y1="75.54" x2="110.49" y2="66.82" gradientUnits="userSpaceOnUse"><stop offset="0.24" stop-color="#689f38"/><stop offset="0.94" stop-color="#8bc34a"/></linearGradient></defs><title>画板 19</title><g id="开始菜单应用图标"><g id="打印机"><g id="_128" data-name="128"><polygon class="cls-1" points="21.92 123 21.92 99.19 6.88 99.19 6.88 28.38 26.93 28.38 26.93 5 87 5 101.07 18.6 101.07 28.38 121.11 28.38 121.11 99.19 106.08 99.19 106.08 123 21.92 123"/><polygon class="cls-2" points="21.92 127 21.92 103.19 6.88 103.19 6.88 28.38 26.93 28.38 26.93 5 89.81 5 105.07 19.75 105.07 28.38 125.11 28.38 125.11 103.19 110.08 103.19 110.08 127 21.92 127"/><polygon class="cls-3" points="23.92 125 23.92 101.19 8.88 101.19 8.88 30.38 28.93 30.38 28.93 7 89 7 103.07 20.6 103.07 30.38 123.11 30.38 123.11 101.19 108.08 101.19 108.08 125 23.92 125"/><polygon class="cls-4" points="99.07 30.38 99.07 19.45 86.19 7 28.93 7 28.93 30.38 8.88 30.38 8.88 63.78 8.88 97.19 23.92 97.19 23.92 121 104.08 121 104.08 97.19 119.11 97.19 119.11 63.78 119.11 30.38 99.07 30.38"/><rect class="cls-5" x="8.88" y="30.38" width="110.23" height="33.4"/><rect class="cls-6" x="8.88" y="63.78" width="110.23" height="33.4"/><rect class="cls-7" x="23.92" y="42.07" width="80.17" height="10.02"/><rect class="cls-7" x="23.92" y="77.58" width="80.17" height="43.42"/><rect class="cls-8" x="23.92" y="77.58" width="80.17" height="4.35"/><rect class="cls-9" x="28.93" y="81.92" width="70.15" height="33.4"/><circle class="cls-8" cx="110.35" cy="72.14" r="5.25"/><circle class="cls-10" cx="110.35" cy="72.14" r="3.76"/><polygon class="cls-11" points="8.88 30.38 8.88 63.78 8.88 97.19 23.92 97.19 23.92 121 104.08 121 104.08 97.19 119.11 97.19 119.11 63.78 119.11 30.38 8.88 30.38"/><polygon class="cls-9" points="86.19 18.77 86.19 7 28.93 7 28.93 47.08 99.07 47.08 99.07 19.45 98.37 18.77 86.19 18.77"/><polygon class="cls-12" points="99.07 32.7 86.19 19.36 86.62 11.35 99.07 19.45 99.07 32.7"/><polygon class="cls-13" points="99.07 19.36 86.19 7 86.19 19.36 99.07 19.36"/><rect class="cls-14" x="37.28" y="17.02" width="43.42" height="3.34"/><rect class="cls-14" x="37.28" y="27.04" width="43.42" height="3.34"/><rect class="cls-14" x="37.28" y="37.06" width="43.42" height="3.34"/><polygon class="cls-15" points="86.19 7 28.93 7 28.93 47.08 99.07 47.08 99.07 32.7 99.07 19.45 86.19 7"/></g></g></g></svg>