<?xml version="1.0" encoding="utf-8"?>
<!-- Generator: Adobe Illustrator 24.0.0, SVG Export Plug-In . SVG Version: 6.00 Build 0)  -->
<svg version="1.1" xmlns="http://www.w3.org/2000/svg" xmlns:xlink="http://www.w3.org/1999/xlink" x="0px" y="0px"
	 viewBox="0 0 16 16" style="enable-background:new 0 0 16 16;" xml:space="preserve">
<style type="text/css">
	.st0{fill:none;stroke:#808080;stroke-miterlimit:10;}
	.st1{fill:#808080;}
</style>
<g id="图层_1">
	<g id="图层_91">
		<path class="st0" d="M5.5,11V7.8V5c0-0.3,0.2-0.5,0.5-0.5h5c0.3,0,0.5,0.2,0.5,0.5v1.5V10"/>
		<line class="st0" x1="5.5" y1="6.5" x2="11" y2="6.5"/>
		<ellipse class="st1" cx="4.5" cy="11" rx="1.5" ry="1"/>
		<ellipse class="st1" cx="10.5" cy="10" rx="1.5" ry="1"/>
	</g>
</g>
<g id="图层_2">
	<g>
		<path class="st1" d="M8,1c3.9,0,7,3.1,7,7s-3.1,7-7,7s-7-3.1-7-7S4.1,1,8,1 M8,0C3.6,0,0,3.6,0,8s3.6,8,8,8s8-3.6,8-8S12.4,0,8,0
			L8,0z"/>
	</g>
</g>
</svg>
