<?xml version="1.0" encoding="utf-8"?>
<!-- Generator: Adobe Illustrator 24.0.0, SVG Export Plug-In . SVG Version: 6.00 Build 0)  -->
<svg version="1.1" id="图层_15" xmlns="http://www.w3.org/2000/svg" xmlns:xlink="http://www.w3.org/1999/xlink" x="0px" y="0px"
	 viewBox="0 0 96 96" enable-background="new 0 0 96 96" xml:space="preserve">
<title>96</title>
<g id="_96">
	<circle fill="#FFFFFF" cx="48" cy="48" r="43.5"/>
	<path fill="#DDDDDD" d="M48,5c23.7,0,43,19.3,43,43S71.7,91,48,91S5,71.7,5,48S24.3,5,48,5 M48,4C23.7,4,4,23.7,4,48s19.7,44,44,44
		s44-19.7,44-44S72.3,4,48,4z"/>
	<path fill="none" stroke="#999999" stroke-width="4" stroke-miterlimit="10" d="M64,42H32c-2.2,0-4,1.8-4,4v22c0,2.2,1.8,4,4,4h32
		c2.2,0,4-1.8,4-4V46C68,43.8,66.2,42,64,42z"/>
	<path fill="#999999" d="M52,60c0,2.2-1.8,4-4,4s-4-1.8-4-4v-6c0-2.2,1.8-4,4-4s4,1.8,4,4V60z"/>
	<path fill="none" stroke="#999999" stroke-width="4" stroke-miterlimit="10" d="M35,44v-7c0-7.2,5.8-13,13-13l0,0
		c7.2,0,13,5.8,13,13v7"/>
</g>
</svg>
