<?xml version="1.0" encoding="utf-8"?>
<!-- Generator: Adobe Illustrator 16.0.0, SVG Export Plug-In . SVG Version: 6.00 Build 0)  -->
<!DOCTYPE svg PUBLIC "-//W3C//DTD SVG 1.1//EN" "http://www.w3.org/Graphics/SVG/1.1/DTD/svg11.dtd">
<svg version="1.1" id="图层_1" xmlns="http://www.w3.org/2000/svg" xmlns:xlink="http://www.w3.org/1999/xlink" x="0px" y="0px"
	 width="64px" height="64px" viewBox="0 0 64 64" enable-background="new 0 0 64 64" xml:space="preserve">
<polygon opacity="0.1" enable-background="new    " points="9.155,64 9.155,2 56.846,2 56.846,46.498 39.343,64 "/>
<polygon opacity="0.1" enable-background="new    " points="10.155,63 10.155,3 55.846,3 55.846,46.084 38.93,63 "/>
<polygon opacity="0.2" enable-background="new    " points="9.155,62 9.155,2 54.846,2 54.846,45.084 37.93,62 "/>
<polygon fill="#01579B" points="10.148,61 10.148,3 53.852,3 53.852,44.67 37.518,61 "/>
<g>
	<g>
		<g>
			<g>
				
					<linearGradient id="SVGID_1_" gradientUnits="userSpaceOnUse" x1="115.1973" y1="-579.3003" x2="115.1973" y2="-522.3008" gradientTransform="matrix(1 0 0 -1 -83.2002 -518.8008)">
					<stop  offset="0" style="stop-color:#2196F3"/>
					<stop  offset="0.5828" style="stop-color:#3DBAE8"/>
					<stop  offset="1" style="stop-color:#4DD0E1"/>
				</linearGradient>
				<polygon fill="url(#SVGID_1_)" points="10.644,60.5 10.644,3.5 53.35,3.5 53.35,44.469 37.318,60.5 				"/>
			</g>
			<polygon fill="#01579B" fill-opacity="0.39" points="53.35,44.469 53.35,43.778 36.438,43.778 36.438,60.5 37.318,60.5 			"/>
			<path fill="#FFFFFF" fill-opacity="0.3922" d="M37.295,44.469l16.059,0.022L37.318,60.5L37.295,44.469z"/>
		</g>
		<g>
			<circle opacity="0.8" fill="#FFFFFF" enable-background="new    " cx="39.574" cy="26.42" r="3.018"/>
			<path opacity="0.8" fill="#FFFFFF" enable-background="new    " d="M17.153,20.127V39.6h29.691V20.127H17.153z M44.703,22.263
				v15.2l0,0l-6.889-4.892l-4.92,3.014l-6.312-7.623l-7.292,9.5v-15.2H44.703z"/>
		</g>
	</g>
	<g>
		<rect x="10.636" y="3.5" opacity="0.8" fill="#FFFFFF" enable-background="new    " width="42.727" height="10.925"/>
		<g enable-background="new    ">
			<path fill="#0288D1" d="M26.979,6.118c-0.935,0-1.617,0.247-2.033,0.742c-0.423,0.497-0.631,1.174-0.631,2.034
				c0,0.417,0.052,0.798,0.156,1.137c0.104,0.339,0.26,0.633,0.467,0.877c0.208,0.247,0.468,0.436,0.772,0.572
				c0.312,0.135,0.675,0.202,1.091,0.202c0.223,0,0.416-0.004,0.579-0.011c0.155-0.009,0.297-0.024,0.415-0.05V8.66h2.02v4.215
				c-0.238,0.089-0.631,0.186-1.166,0.288c-0.534,0.102-1.194,0.154-1.981,0.154c-0.668,0-1.276-0.099-1.825-0.295
				c-0.55-0.197-1.018-0.482-1.403-0.859c-0.386-0.376-0.69-0.84-0.897-1.39c-0.216-0.547-0.319-1.174-0.319-1.879
				c0-0.713,0.118-1.344,0.349-1.891c0.23-0.549,0.549-1.015,0.957-1.395s0.884-0.67,1.433-0.867
				c0.542-0.197,1.128-0.295,1.752-0.295c0.423,0,0.802,0.028,1.143,0.08c0.342,0.054,0.631,0.115,0.884,0.186
				c0.244,0.069,0.445,0.141,0.601,0.215c0.163,0.072,0.274,0.13,0.349,0.171l-0.586,1.536c-0.274-0.139-0.594-0.26-0.95-0.362
				C27.795,6.168,27.403,6.118,26.979,6.118z"/>
			<path fill="#0288D1" d="M31.692,4.643h2.019v8.515h-2.019V4.643z"/>
			<path fill="#0288D1" d="M35.773,13.158V4.643h6.006v1.61h-3.986v1.781h3.547v1.609h-3.547v3.514H35.773z"/>
		</g>
	</g>
</g>
</svg>
