<?xml version="1.0" encoding="utf-8"?>
<!-- Generator: Adobe Illustrator 21.0.0, SVG Export Plug-In . SVG Version: 6.00 Build 0)  -->
<svg version="1.1" id="图层_1" xmlns="http://www.w3.org/2000/svg" xmlns:xlink="http://www.w3.org/1999/xlink" x="0px" y="0px"
	 viewBox="0 0 64 64" style="enable-background:new 0 0 64 64;" xml:space="preserve">
<style type="text/css">
	.st0{opacity:0.1;enable-background:new    ;}
	.st1{opacity:0.2;enable-background:new    ;}
	.st2{fill:#E65100;}
	.st3{fill:url(#SVGID_1_);}
	.st4{fill:#E65100;fill-opacity:0.3922;}
	.st5{fill:#FFFFFF;fill-opacity:0.3922;}
	.st6{opacity:0.8;}
	.st7{fill:#FFFFFF;}
</style>
<polygon class="st0" points="9.2,64 9.2,2 56.8,2 56.8,46.5 39.3,64 "/>
<polygon class="st0" points="10.2,63 10.2,3 55.8,3 55.8,46.1 38.9,63 "/>
<polygon class="st1" points="9.2,62 9.2,2 54.8,2 54.8,45.1 37.9,62 "/>
<polygon class="st2" points="10.1,61 10.1,3 53.9,3 53.9,44.7 37.5,61 "/>
<g>
	<g>
		<g>
			
				<linearGradient id="SVGID_1_" gradientUnits="userSpaceOnUse" x1="73.6001" y1="-862.4004" x2="73.6001" y2="-805.4004" gradientTransform="matrix(1 0 0 -1 -41.6001 -801.9004)">
				<stop  offset="0" style="stop-color:#EE6F0B"/>
				<stop  offset="1" style="stop-color:#FFB74D"/>
			</linearGradient>
			<polygon class="st3" points="10.6,60.5 10.6,3.5 53.4,3.5 53.4,44.5 37.3,60.5 			"/>
		</g>
		<polygon class="st4" points="53.4,44.5 53.4,43.8 36.4,43.8 36.4,60.5 37.3,60.5 		"/>
		<path class="st5" d="M37.3,44.5h16.1l-16,16L37.3,44.5z"/>
	</g>
	<g class="st6">
		<rect x="16.2" y="18.8" class="st7" width="4.6" height="22.8"/>
		<rect x="23.8" y="30.2" class="st7" width="4.6" height="11.4"/>
		<rect x="31.4" y="34.9" class="st7" width="4.6" height="6.8"/>
		<g>
			<path class="st7" d="M37.6,14.8v9.1h9.1c0,5-4,9.1-9.1,9.1c-5,0-9.1-4-9.1-9.1C28.5,18.9,32.5,14.8,37.6,14.8z"/>
			<path class="st7" d="M38.7,13.7c5,0,9.1,4,9.1,9.1h-9.1L38.7,13.7z"/>
		</g>
	</g>
</g>
</svg>
