<?xml version="1.0" encoding="utf-8"?>
<!-- Generator: Adobe Illustrator 21.0.0, SVG Export Plug-In . SVG Version: 6.00 Build 0)  -->
<svg version="1.1" id="图层_1" xmlns="http://www.w3.org/2000/svg" xmlns:xlink="http://www.w3.org/1999/xlink" x="0px" y="0px"
	 viewBox="0 0 64 64" style="enable-background:new 0 0 64 64;" xml:space="preserve">
<style type="text/css">
	.st0{opacity:0.2;enable-background:new    ;}
	.st1{opacity:0.08;enable-background:new    ;}
	.st2{opacity:0.1;enable-background:new    ;}
	.st3{fill:#455A64;}
	.st4{fill:url(#SVGID_1_);}
	.st5{opacity:0.8;fill:#FFFFFF;enable-background:new    ;}
</style>
<rect x="2" y="2" class="st0" width="60" height="60"/>
<rect x="2" y="2" class="st1" width="62" height="62"/>
<rect x="3" y="3" class="st2" width="60" height="60"/>
<rect x="3" y="3" class="st3" width="58" height="58"/>
<g>
	
		<linearGradient id="SVGID_1_" gradientUnits="userSpaceOnUse" x1="73.6001" y1="-805.4004" x2="73.6001" y2="-862.4004" gradientTransform="matrix(1 0 0 -1 -41.6001 -801.9004)">
		<stop  offset="0" style="stop-color:#90A4AE"/>
		<stop  offset="0.1378" style="stop-color:#849AA5"/>
		<stop  offset="0.4226" style="stop-color:#708A97"/>
		<stop  offset="0.7096" style="stop-color:#64808E"/>
		<stop  offset="1" style="stop-color:#607D8B"/>
	</linearGradient>
	<rect x="3.5" y="3.5" class="st4" width="57" height="57"/>
	<path class="st5" d="M46.1,39.5c0.1-0.1,0.1-0.2,0.1-0.3c0.1-0.2,0.2-0.3,0.2-0.5l0,0c0.4-0.9,0.8-1.9,1-2.9h3.8v-7.6h-3.8
		c-0.4-1.6-1-3.1-1.8-4.4l2.7-2.7L43,15.7l-2.7,2.7c-1.4-0.8-2.9-1.5-4.5-1.9l0,0v-3.8h-7.6v3.8l0,0c-1.6,0.4-3.1,1-4.5,1.9L21,15.7
		l-5.4,5.4l2.7,2.7c-0.8,1.4-1.4,2.8-1.8,4.5h-3.8v7.6h3.8c0.4,1.6,1,3.1,1.8,4.5l0,0L15.6,43l5.4,5.4l2.7-2.7
		c1.4,0.8,2.9,1.5,4.5,1.9v3.8h7.6v-3.8l0,0l0,0c1.6-0.4,3.1-1,4.5-1.9l2.7,2.7l5.4-5.4l-2.7-2.7l0,0c0.1-0.1,0.2-0.3,0.3-0.5
		C46,39.7,46.1,39.6,46.1,39.5z M32,44.2c-6.7,0-12.2-5.5-12.2-12.2S25.3,19.8,32,19.8c1.3,0,2.6,0.2,3.8,0.6l0,0
		c4.9,1.6,8.4,6.2,8.4,11.6c0,0.3,0,0.7,0,1l0,0c-0.1,1-0.3,1.9-0.6,2.8v0.1c-0.2,0.6-0.4,1.1-0.7,1.7v0.1c-0.1,0.3-0.3,0.5-0.4,0.8
		c0,0,0,0,0,0.1c-0.1,0.2-0.3,0.5-0.5,0.7l0,0c-0.2,0.2-0.3,0.5-0.6,0.7l-0.1,0.1c-0.4,0.4-0.8,0.8-1.2,1.2L40,41.4
		c-0.2,0.2-0.4,0.4-0.7,0.5L39.2,42c-0.2,0.1-0.4,0.3-0.7,0.4c0,0-0.1,0-0.1,0.1c-0.2,0.1-0.5,0.3-0.7,0.4c-0.1,0-0.1,0.1-0.2,0.1
		c-0.3,0.1-0.5,0.2-0.8,0.4h-0.1c-0.2,0.1-0.5,0.2-0.7,0.3C34.7,44,33.4,44.2,32,44.2z"/>
</g>
</svg>
