<?xml version="1.0" encoding="utf-8"?>
<!-- Generator: Adobe Illustrator 21.0.0, SVG Export Plug-In . SVG Version: 6.00 Build 0)  -->
<svg version="1.1" id="图层_1" xmlns="http://www.w3.org/2000/svg" xmlns:xlink="http://www.w3.org/1999/xlink" x="0px" y="0px"
	 viewBox="0 0 64 64" style="enable-background:new 0 0 64 64;" xml:space="preserve">
<style type="text/css">
	.st0{opacity:0.1;enable-background:new    ;}
	.st1{opacity:0.2;enable-background:new    ;}
	.st2{fill:#455A64;}
	.st3{fill:url(#SVGID_1_);}
	.st4{fill:#455A64;fill-opacity:0.39;}
	.st5{fill:#FFFFFF;fill-opacity:0.39;}
	.st6{opacity:0.8;}
	.st7{fill:#FFFFFF;}
</style>
<polygon class="st0" points="9.2,64 9.2,2 56.8,2 56.8,46.5 39.3,64 "/>
<polygon class="st0" points="10.2,63 10.2,3 55.8,3 55.8,46.1 38.9,63 "/>
<polygon class="st1" points="9.2,62 9.2,2 54.8,2 54.8,45.1 37.9,62 "/>
<polygon class="st2" points="10.1,61 10.1,3 53.9,3 53.9,44.7 37.5,61 "/>
<g>
	<g>
		<g>
			
				<linearGradient id="SVGID_1_" gradientUnits="userSpaceOnUse" x1="73.6001" y1="1148.4004" x2="73.6001" y2="1205.4004" gradientTransform="matrix(1 0 0 1 -41.6001 -1144.9004)">
				<stop  offset="0" style="stop-color:#90A4AE"/>
				<stop  offset="0.1378" style="stop-color:#849AA5"/>
				<stop  offset="0.4226" style="stop-color:#708A97"/>
				<stop  offset="0.7096" style="stop-color:#64808E"/>
				<stop  offset="1" style="stop-color:#607D8B"/>
			</linearGradient>
			<polygon class="st3" points="10.6,60.5 10.6,3.5 53.4,3.5 53.4,44.5 37.3,60.5 			"/>
		</g>
		<polygon class="st4" points="53.4,44.5 53.4,43.8 36.4,43.8 36.4,60.5 37.3,60.5 		"/>
		<path class="st5" d="M37.3,44.5h16.1l-16,16L37.3,44.5z"/>
	</g>
	<g class="st6">
		<g>
			<polygon class="st7" points="27,29.7 20.6,25.4 26.3,23.7 			"/>
		</g>
		<polygon class="st7" points="31.5,36.7 34,36.7 34,34.5 31.5,34.5 30.2,35.6 		"/>
		<g>
			<polygon class="st7" points="35.4,27.1 41.7,22.7 41.2,28.7 			"/>
			<g>
				<polygon class="st7" points="41.3,27.1 39.9,25 38.1,26.2 39.5,28.2 41.2,28.7 				"/>
				<polygon class="st7" points="46.3,34.2 41.9,27.9 41.7,29.5 40.1,29.1 43.8,34.5 34.6,34.5 34.6,36.7 44.6,36.7 44.6,36.7 
					44.6,36.7 				"/>
			</g>
			<g>
				<polygon class="st7" points="24.7,24.2 23.2,26.3 25,27.4 26.5,25.4 26.3,23.7 				"/>
				<polygon class="st7" points="33.7,16 30.3,16 25.2,23.4 26.8,22.9 27,24.6 32,17.4 37.7,25.7 39.5,24.5 				"/>
				<polygon class="st7" points="20.2,34.5 24.7,28 22.9,26.8 17.8,34.2 17.8,34.2 17.8,34.2 18.9,35.9 19.4,36.7 30.5,36.7 
					29.2,35.6 30.5,34.5 				"/>
			</g>
		</g>
		<g>
			<polygon class="st7" points="34.8,31.8 34.8,39.5 30.2,35.6 			"/>
		</g>
		<polygon class="st7" points="22.9,26.8 23.9,25.4 26.2,25.9 24.5,28.2 		"/>
		<polygon class="st7" points="36.9,24.4 38.4,26.6 40.2,25.4 38.7,23.3 		"/>
		<rect x="33.4" y="34.5" class="st7" width="1.6" height="2.1"/>
	</g>
</g>
</svg>
