<?xml version="1.0" encoding="utf-8"?>
<!-- Generator: Adobe Illustrator 16.0.0, SVG Export Plug-In . SVG Version: 6.00 Build 0)  -->
<!DOCTYPE svg PUBLIC "-//W3C//DTD SVG 1.1//EN" "http://www.w3.org/Graphics/SVG/1.1/DTD/svg11.dtd">
<svg version="1.1" id="图层_1" xmlns="http://www.w3.org/2000/svg" xmlns:xlink="http://www.w3.org/1999/xlink" x="0px" y="0px"
	 width="64px" height="64px" viewBox="0 0 64 64" enable-background="new 0 0 64 64" xml:space="preserve">
<polygon opacity="0.1" enable-background="new    " points="9.155,64 9.155,2 56.846,2 56.846,46.498 39.343,64 "/>
<polygon opacity="0.1" enable-background="new    " points="10.155,63 10.155,3 55.846,3 55.846,46.084 38.93,63 "/>
<polygon opacity="0.2" enable-background="new    " points="9.155,62 9.155,2 54.846,2 54.846,45.084 37.93,62 "/>
<polygon fill="#01579B" points="10.148,61 10.148,3 53.852,3 53.852,44.67 37.518,61 "/>
<g>
	<g>
		<g>
			<g>
				
					<linearGradient id="SVGID_1_" gradientUnits="userSpaceOnUse" x1="115.1973" y1="-579.3003" x2="115.1973" y2="-522.3008" gradientTransform="matrix(1 0 0 -1 -83.2002 -518.8008)">
					<stop  offset="0" style="stop-color:#2196F3"/>
					<stop  offset="0.5828" style="stop-color:#3DBAE8"/>
					<stop  offset="1" style="stop-color:#4DD0E1"/>
				</linearGradient>
				<polygon fill="url(#SVGID_1_)" points="10.644,60.5 10.644,3.5 53.35,3.5 53.35,44.469 37.318,60.5 				"/>
			</g>
			<polygon fill="#01579B" fill-opacity="0.39" points="53.35,44.469 53.35,43.778 36.438,43.778 36.438,60.5 37.318,60.5 			"/>
			<path fill="#FFFFFF" fill-opacity="0.3922" d="M37.295,44.469l16.059,0.022L37.318,60.5L37.295,44.469z"/>
		</g>
		<g>
			<circle opacity="0.8" fill="#FFFFFF" enable-background="new    " cx="39.574" cy="26.42" r="3.018"/>
			<path opacity="0.8" fill="#FFFFFF" enable-background="new    " d="M17.153,20.127V39.6h29.691V20.127H17.153z M44.703,22.263
				v15.2l0,0l-6.889-4.892l-4.92,3.014l-6.312-7.623l-7.292,9.5v-15.2H44.703z"/>
		</g>
	</g>
	<g>
		<rect x="10.636" y="3.5" opacity="0.8" fill="#FFFFFF" enable-background="new    " width="42.727" height="10.925"/>
		<g enable-background="new    ">
			<path fill="#0288D1" d="M21.658,4.643h2.019v8.515h-2.019V4.643z"/>
			<path fill="#0288D1" d="M29.83,13.33c-1.455,0-2.568-0.386-3.333-1.156c-0.764-0.77-1.143-1.863-1.143-3.28
				c0-0.704,0.119-1.333,0.349-1.885c0.23-0.553,0.55-1.021,0.958-1.401s0.891-0.67,1.447-0.867
				c0.563-0.197,1.172-0.295,1.825-0.295c0.379,0,0.72,0.028,1.032,0.08c0.312,0.054,0.586,0.115,0.816,0.186
				c0.229,0.069,0.43,0.141,0.578,0.215c0.156,0.072,0.267,0.13,0.341,0.171l-0.585,1.549c-0.275-0.139-0.594-0.258-0.965-0.356
				c-0.364-0.098-0.779-0.148-1.247-0.148c-0.305,0-0.608,0.05-0.905,0.148c-0.305,0.099-0.564,0.256-0.795,0.471
				c-0.229,0.217-0.408,0.5-0.549,0.843c-0.134,0.343-0.208,0.762-0.208,1.252c0,0.393,0.045,0.761,0.142,1.1
				c0.089,0.339,0.237,0.633,0.438,0.879c0.2,0.245,0.468,0.44,0.794,0.583c0.327,0.143,0.728,0.215,1.188,0.215
				c0.297,0,0.557-0.017,0.794-0.05c0.23-0.032,0.438-0.071,0.616-0.115c0.186-0.046,0.342-0.097,0.482-0.154
				c0.134-0.058,0.26-0.111,0.371-0.16l0.557,1.534c-0.283,0.166-0.683,0.312-1.203,0.444C31.106,13.264,30.512,13.33,29.83,13.33z"
				/>
			<path fill="#0288D1" d="M42.336,8.894c0,0.729-0.111,1.371-0.342,1.924c-0.23,0.553-0.543,1.015-0.936,1.388
				c-0.4,0.373-0.869,0.653-1.418,0.84c-0.549,0.189-1.135,0.284-1.766,0.284c-0.617,0-1.188-0.094-1.736-0.284
				c-0.543-0.188-1.018-0.468-1.418-0.84c-0.408-0.373-0.729-0.835-0.957-1.388c-0.238-0.553-0.35-1.195-0.35-1.924
				c0-0.729,0.119-1.37,0.363-1.922c0.238-0.553,0.564-1.017,0.973-1.396c0.408-0.376,0.883-0.659,1.426-0.846
				c0.533-0.189,1.105-0.284,1.699-0.284c0.607,0,1.188,0.095,1.729,0.284c0.549,0.188,1.018,0.47,1.426,0.846
				c0.408,0.378,0.727,0.842,0.957,1.396C42.217,7.524,42.336,8.165,42.336,8.894z M35.492,8.894c0,0.417,0.059,0.796,0.164,1.13
				c0.111,0.337,0.26,0.625,0.467,0.866c0.201,0.243,0.445,0.429,0.742,0.561c0.289,0.13,0.631,0.197,1.01,0.197
				c0.371,0,0.705-0.067,1.002-0.197c0.297-0.132,0.549-0.317,0.75-0.561c0.199-0.241,0.355-0.529,0.467-0.866
				c0.104-0.334,0.164-0.712,0.164-1.13s-0.061-0.796-0.164-1.136c-0.111-0.339-0.268-0.631-0.467-0.872
				c-0.201-0.241-0.453-0.429-0.75-0.561c-0.297-0.13-0.631-0.196-1.002-0.196c-0.379,0-0.721,0.068-1.01,0.204
				c-0.297,0.135-0.541,0.323-0.742,0.564c-0.207,0.243-0.355,0.532-0.467,0.872C35.551,8.111,35.492,8.486,35.492,8.894z"/>
		</g>
	</g>
</g>
</svg>
