<?xml version="1.0" encoding="utf-8"?>
<!-- Generator: Adobe Illustrator 21.0.0, SVG Export Plug-In . SVG Version: 6.00 Build 0)  -->
<svg version="1.1" id="图层_1" xmlns="http://www.w3.org/2000/svg" xmlns:xlink="http://www.w3.org/1999/xlink" x="0px" y="0px"
	 viewBox="0 0 64 64" style="enable-background:new 0 0 64 64;" xml:space="preserve">
<style type="text/css">
	.st0{opacity:0.1;enable-background:new    ;}
	.st1{opacity:0.2;enable-background:new    ;}
	.st2{fill:#0D47A1;}
	.st3{fill:url(#SVGID_1_);}
	.st4{fill:#2196F3;fill-opacity:0.7;}
	.st5{opacity:0.39;fill:#FFFFFF;enable-background:new    ;}
	.st6{opacity:0.8;}
	.st7{opacity:0.8;fill:url(#SVGID_2_);enable-background:new    ;}
	.st8{opacity:0.8;fill:url(#SVGID_3_);enable-background:new    ;}
	.st9{opacity:0.8;fill:url(#SVGID_4_);enable-background:new    ;}
	.st10{fill:url(#SVGID_5_);}
	.st11{fill:url(#SVGID_6_);}
	.st12{fill:url(#SVGID_7_);}
	.st13{fill:url(#SVGID_8_);}
	.st14{opacity:0.8;fill:#FFFFFF;enable-background:new    ;}
	.st15{fill:#1976D2;}
</style>
<polygon class="st0" points="9.2,64 9.2,2 56.8,2 56.8,46.5 39.3,64 "/>
<polygon class="st0" points="10.2,63 10.2,3 55.8,3 55.8,46.1 38.9,63 "/>
<polygon class="st1" points="9.2,62 9.2,2 54.8,2 54.8,45.1 37.9,62 "/>
<polygon class="st2" points="10.1,61 10.1,3 53.9,3 53.9,44.7 37.5,61 "/>
<g>
	<g>
		<g>
			<g>
				
					<linearGradient id="SVGID_1_" gradientUnits="userSpaceOnUse" x1="32.05" y1="786.5" x2="32.05" y2="729.5" gradientTransform="matrix(1 0 0 1 0 -726)">
					<stop  offset="0" style="stop-color:#3F51B5"/>
					<stop  offset="1" style="stop-color:#64B5F6"/>
				</linearGradient>
				<polygon class="st3" points="10.7,60.5 10.7,3.5 53.4,3.5 53.4,44.5 37.3,60.5 				"/>
			</g>
			<polygon class="st4" points="53.4,44.5 53.4,43.8 36.5,43.8 36.5,60.5 37.3,60.5 			"/>
			<path class="st5" d="M37.3,44.5h16.1l-16,16L37.3,44.5z"/>
		</g>
		<g class="st6">
			
				<linearGradient id="SVGID_2_" gradientUnits="userSpaceOnUse" x1="17" y1="748.95" x2="47" y2="748.95" gradientTransform="matrix(1 0 0 1 0 -726)">
				<stop  offset="0" style="stop-color:#F6F5F5"/>
				<stop  offset="0.341" style="stop-color:#F1F2F3"/>
				<stop  offset="0.6434" style="stop-color:#E7EAEB"/>
				<stop  offset="0.9302" style="stop-color:#D5DBDF"/>
				<stop  offset="1" style="stop-color:#CFD7DB"/>
			</linearGradient>
			<rect x="17" y="22.2" class="st7" width="30" height="1.5"/>
			
				<linearGradient id="SVGID_3_" gradientUnits="userSpaceOnUse" x1="17" y1="744.35" x2="47" y2="744.35" gradientTransform="matrix(1 0 0 1 0 -726)">
				<stop  offset="0" style="stop-color:#F6F5F5"/>
				<stop  offset="0.341" style="stop-color:#F1F2F3"/>
				<stop  offset="0.6434" style="stop-color:#E7EAEB"/>
				<stop  offset="0.9302" style="stop-color:#D5DBDF"/>
				<stop  offset="1" style="stop-color:#CFD7DB"/>
			</linearGradient>
			<rect x="17" y="17.6" class="st8" width="30" height="1.5"/>
			
				<linearGradient id="SVGID_4_" gradientUnits="userSpaceOnUse" x1="31.319" y1="760.45" x2="46.996" y2="760.45" gradientTransform="matrix(1 0 0 1 0 -726)">
				<stop  offset="0" style="stop-color:#F6F5F5"/>
				<stop  offset="0.341" style="stop-color:#F1F2F3"/>
				<stop  offset="0.6434" style="stop-color:#E7EAEB"/>
				<stop  offset="0.9302" style="stop-color:#D5DBDF"/>
				<stop  offset="1" style="stop-color:#CFD7DB"/>
			</linearGradient>
			<rect x="31.3" y="26.6" class="st9" width="15.7" height="15.7"/>
			<g class="st6">
				
					<linearGradient id="SVGID_5_" gradientUnits="userSpaceOnUse" x1="17" y1="753.55" x2="30.041" y2="753.55" gradientTransform="matrix(1 0 0 1 0 -726)">
					<stop  offset="0" style="stop-color:#F6F5F5"/>
					<stop  offset="0.341" style="stop-color:#F1F2F3"/>
					<stop  offset="0.6434" style="stop-color:#E7EAEB"/>
					<stop  offset="0.9302" style="stop-color:#D5DBDF"/>
					<stop  offset="1" style="stop-color:#CFD7DB"/>
				</linearGradient>
				<rect x="17" y="26.8" class="st10" width="13" height="1.5"/>
				
					<linearGradient id="SVGID_6_" gradientUnits="userSpaceOnUse" x1="17" y1="758.25" x2="30.041" y2="758.25" gradientTransform="matrix(1 0 0 1 0 -726)">
					<stop  offset="0" style="stop-color:#F6F5F5"/>
					<stop  offset="0.341" style="stop-color:#F1F2F3"/>
					<stop  offset="0.6434" style="stop-color:#E7EAEB"/>
					<stop  offset="0.9302" style="stop-color:#D5DBDF"/>
					<stop  offset="1" style="stop-color:#CFD7DB"/>
				</linearGradient>
				<rect x="17" y="31.5" class="st11" width="13" height="1.5"/>
				
					<linearGradient id="SVGID_7_" gradientUnits="userSpaceOnUse" x1="17" y1="762.85" x2="30.041" y2="762.85" gradientTransform="matrix(1 0 0 1 0 -726)">
					<stop  offset="0" style="stop-color:#F6F5F5"/>
					<stop  offset="0.341" style="stop-color:#F1F2F3"/>
					<stop  offset="0.6434" style="stop-color:#E7EAEB"/>
					<stop  offset="0.9302" style="stop-color:#D5DBDF"/>
					<stop  offset="1" style="stop-color:#CFD7DB"/>
				</linearGradient>
				<rect x="17" y="36.1" class="st12" width="13" height="1.5"/>
				
					<linearGradient id="SVGID_8_" gradientUnits="userSpaceOnUse" x1="17" y1="767.55" x2="30.041" y2="767.55" gradientTransform="matrix(1 0 0 1 0 -726)">
					<stop  offset="0" style="stop-color:#F6F5F5"/>
					<stop  offset="0.341" style="stop-color:#F1F2F3"/>
					<stop  offset="0.6434" style="stop-color:#E7EAEB"/>
					<stop  offset="0.9302" style="stop-color:#D5DBDF"/>
					<stop  offset="1" style="stop-color:#CFD7DB"/>
				</linearGradient>
				<rect x="17" y="40.8" class="st13" width="13" height="1.5"/>
			</g>
		</g>
	</g>
	<g>
		<rect x="10.6" y="3.5" class="st14" width="42.7" height="10.9"/>
	</g>
	<g>
		<path class="st15" d="M23.4,4.6c1.3,0,2.4,0.2,3.1,0.7s1.1,1.2,1.1,2.1c0,0.6-0.1,1.1-0.4,1.5S26.5,9.6,26,9.8
			c0.2,0.2,0.4,0.5,0.6,0.7c0.2,0.3,0.4,0.6,0.6,0.9c0.2,0.3,0.4,0.6,0.6,0.9c0.2,0.3,0.3,0.6,0.5,1H26c-0.2-0.3-0.3-0.6-0.5-0.8
			c-0.2-0.3-0.3-0.6-0.5-0.8c-0.2-0.3-0.4-0.5-0.5-0.8c-0.2-0.2-0.3-0.5-0.5-0.7h-1v3.1h-2V4.8c0.4-0.1,0.9-0.1,1.4-0.2
			C22.6,4.6,23,4.6,23.4,4.6z M23.5,6.2c-0.1,0-0.3,0-0.4,0s-0.2,0-0.3,0v2.3h0.6c0.8,0,1.3-0.1,1.6-0.3c0.3-0.2,0.5-0.5,0.5-0.9
			S25.3,6.6,25,6.4S24.2,6.2,23.5,6.2z"/>
		<path class="st15" d="M35.9,4.7v1.6h-2.7v6.9h-2V6.3h-2.7V4.7H35.9z"/>
		<path class="st15" d="M37.2,13.2V4.7h6v1.6h-4v1.8h3.5v1.6h-3.5v3.5H37.2z"/>
	</g>
</g>
</svg>
