<?xml version="1.0" encoding="utf-8"?>
<!-- Generator: Adobe Illustrator 21.0.0, SVG Export Plug-In . SVG Version: 6.00 Build 0)  -->
<svg version="1.1" id="图层_1" xmlns="http://www.w3.org/2000/svg" xmlns:xlink="http://www.w3.org/1999/xlink" x="0px" y="0px"
	 viewBox="0 0 64 64" style="enable-background:new 0 0 64 64;" xml:space="preserve">
<style type="text/css">
	.st0{opacity:0.1;enable-background:new    ;}
	.st1{opacity:0.2;enable-background:new    ;}
	.st2{fill:#607D8B;}
	.st3{fill:url(#SVGID_1_);}
	.st4{fill:#455A64;fill-opacity:0.7;}
	.st5{fill:#90A4AE;}
	.st6{opacity:0.8;enable-background:new    ;}
</style>
<polygon class="st0" points="9.2,64 9.2,2 56.8,2 56.8,46.5 39.3,64 "/>
<polygon class="st0" points="10.2,63 10.2,3 55.8,3 55.8,46.1 38.9,63 "/>
<polygon class="st1" points="9.2,62 9.2,2 54.8,2 54.8,45.1 37.9,62 "/>
<polygon class="st2" points="10.1,61 10.1,3 53.9,3 53.9,44.7 37.5,61 "/>
<g>
	<g>
		<g>
			
				<linearGradient id="SVGID_1_" gradientUnits="userSpaceOnUse" x1="73.6001" y1="-1059.4004" x2="73.6001" y2="-1116.4004" gradientTransform="matrix(1 0 0 -1 -41.6001 -1055.9004)">
				<stop  offset="0" style="stop-color:#F5F5F5"/>
				<stop  offset="0.341" style="stop-color:#F1F2F3"/>
				<stop  offset="0.6434" style="stop-color:#E7EAEC"/>
				<stop  offset="0.9302" style="stop-color:#D5DCE0"/>
				<stop  offset="1" style="stop-color:#CFD8DC"/>
			</linearGradient>
			<polygon class="st3" points="10.6,60.5 10.6,3.5 53.4,3.5 53.4,44.5 37.3,60.5 			"/>
		</g>
		<polygon class="st4" points="53.4,44.5 53.4,43.8 36.4,43.8 36.4,60.5 37.3,60.5 		"/>
		<path class="st5" d="M37.3,44.5h16.1l-16,16L37.3,44.5z"/>
	</g>
	<g class="st6">
		<rect x="16.3" y="11.7" class="st2" width="31.6" height="3.4"/>
		<rect x="16.3" y="20.8" class="st2" width="31.6" height="1.6"/>
		<rect x="16.3" y="25.7" class="st2" width="31.6" height="1.6"/>
		<rect x="16.3" y="30.6" class="st2" width="31.6" height="1.6"/>
		<rect x="16.3" y="35.5" class="st2" width="31.6" height="1.6"/>
		<rect x="16.3" y="40.5" class="st2" width="19.5" height="1.6"/>
	</g>
</g>
</svg>
