<?xml version="1.0" encoding="utf-8"?>
<!-- Generator: Adobe Illustrator 21.0.0, SVG Export Plug-In . SVG Version: 6.00 Build 0)  -->
<svg version="1.1" id="图层_1" xmlns="http://www.w3.org/2000/svg" xmlns:xlink="http://www.w3.org/1999/xlink" x="0px" y="0px"
	 viewBox="0 0 64 64" style="enable-background:new 0 0 64 64;" xml:space="preserve">
<style type="text/css">
	.st0{opacity:0.1;enable-background:new    ;}
	.st1{opacity:0.2;enable-background:new    ;}
	.st2{fill:#311B92;}
	.st3{fill:url(#SVGID_1_);}
	.st4{fill:#673AB7;fill-opacity:0.3922;}
	.st5{fill:#FFFFFF;fill-opacity:0.3922;}
	.st6{opacity:0.8;}
	.st7{fill:#FFFFFF;}
</style>
<polygon class="st0" points="9.2,64 9.2,2 56.8,2 56.8,46.5 39.3,64 "/>
<polygon class="st0" points="10.2,63 10.2,3 55.8,3 55.8,46.1 38.9,63 "/>
<polygon class="st1" points="9.2,62 9.2,2 54.8,2 54.8,45.1 37.9,62 "/>
<polygon class="st2" points="10.1,61 10.1,3 53.9,3 53.9,44.7 37.5,61 "/>
<g>
	<g>
		<g>
			
				<linearGradient id="SVGID_1_" gradientUnits="userSpaceOnUse" x1="73.6001" y1="-862.4004" x2="73.6001" y2="-805.4004" gradientTransform="matrix(1 0 0 -1 -41.6001 -801.9004)">
				<stop  offset="0" style="stop-color:#512DA8"/>
				<stop  offset="8.000000e-03" style="stop-color:#532EA8"/>
				<stop  offset="0.1976" style="stop-color:#7541B2"/>
				<stop  offset="0.4086" style="stop-color:#9352BC"/>
				<stop  offset="0.6159" style="stop-color:#A95EC3"/>
				<stop  offset="0.8158" style="stop-color:#B666C7"/>
				<stop  offset="1" style="stop-color:#BA68C8"/>
			</linearGradient>
			<polygon class="st3" points="10.6,60.5 10.6,3.5 53.4,3.5 53.4,44.5 37.3,60.5 			"/>
		</g>
		<polygon class="st4" points="53.4,44.5 53.4,43.8 36.4,43.8 36.4,60.5 37.3,60.5 		"/>
		<path class="st5" d="M37.3,44.5h16.1l-16,16L37.3,44.5z"/>
	</g>
	<g class="st6">
		<g>
			<rect x="41.5" y="17.8" class="st7" width="6.3" height="2.3"/>
		</g>
		<g>
			<rect x="41.5" y="22.1" class="st7" width="6.3" height="2.3"/>
		</g>
		<g>
			<rect x="41.5" y="26.5" class="st7" width="6.3" height="2.3"/>
		</g>
		<g>
			<rect x="28.4" y="31" class="st7" width="19.4" height="2.3"/>
		</g>
		<g>
			<rect x="28.4" y="35.3" class="st7" width="19.4" height="2.3"/>
		</g>
		<path class="st7" d="M24.3,24.8l-2.7-0.6v-3.3l3.6,0.8v-2.5L19.8,18v2.5l0,0v13.1c-0.3-0.1-0.6-0.1-0.9-0.1
			c-1.5,0-2.7,0.9-2.7,2.1s1.2,2.1,2.7,2.1s2.7-0.9,2.7-2l0,0v-9.5l2.7,0.6L24.3,24.8L24.3,24.8z"/>
		<path class="st7" d="M38.5,26.2C38.5,26.1,38.5,26.1,38.5,26.2c0.1-0.1,0.1-0.2,0.1-0.2l0,0c0.1-0.3,0.2-0.6,0.3-0.9H40v-2.3h-1.1
			c-0.1-0.5-0.3-0.9-0.5-1.4l0.8-0.8L37.6,19l-0.8,0.8c-0.4-0.3-0.9-0.5-1.4-0.6l0,0V18h-2.3v1.1l0,0c-0.5,0.1-0.9,0.3-1.4,0.6
			l-0.8-0.8l-1.6,1.6l0.8,0.8c-0.2,0.4-0.4,0.9-0.5,1.4h-1.1V25h1.1c0.1,0.5,0.3,0.9,0.5,1.4l0,0l-0.8,0.8l1.6,1.6l0.8-0.8
			c0.4,0.3,0.9,0.5,1.4,0.6v1.1h2.3v-1.1l0,0l0,0c0.5-0.1,0.9-0.3,1.4-0.6l0.8,0.8l1.6-1.6l-0.8-0.8l0,0
			C38.4,26.3,38.4,26.3,38.5,26.2L38.5,26.2z M34.3,27.6c-2,0-3.7-1.7-3.7-3.7s1.7-3.7,3.7-3.7c0.4,0,0.8,0.1,1.2,0.2l0,0
			c1.5,0.5,2.5,1.9,2.5,3.5c0,0.1,0,0.2,0,0.3l0,0c0,0.3-0.1,0.6-0.2,0.9l0,0c0,0.2-0.1,0.3-0.2,0.5l0,0c0,0.1-0.1,0.2-0.1,0.2l0,0
			c0,0.1-0.1,0.1-0.1,0.2l0,0c0,0.1-0.1,0.1-0.2,0.2l0,0c-0.1,0.1-0.2,0.3-0.4,0.4l0,0c-0.1,0-0.1,0.1-0.2,0.2l0,0
			c-0.1,0-0.1,0.1-0.2,0.1l0,0c-0.1,0-0.1,0.1-0.2,0.1l0,0c-0.1,0-0.1,0.1-0.2,0.1l0,0c-0.1,0-0.1,0-0.2,0.1
			C35.1,27.5,34.7,27.6,34.3,27.6z"/>
	</g>
</g>
</svg>
