<?xml version="1.0" encoding="utf-8"?>
<!-- Generator: Adobe Illustrator 21.0.0, SVG Export Plug-In . SVG Version: 6.00 Build 0)  -->
<svg version="1.1" id="图层_1" xmlns="http://www.w3.org/2000/svg" xmlns:xlink="http://www.w3.org/1999/xlink" x="0px" y="0px"
	 viewBox="0 0 64 64" style="enable-background:new 0 0 64 64;" xml:space="preserve">
<style type="text/css">
	.st0{opacity:0.1;enable-background:new    ;}
	.st1{opacity:0.2;enable-background:new    ;}
	.st2{fill:#455A64;}
	.st3{fill:url(#SVGID_1_);}
	.st4{fill:#455A64;fill-opacity:0.39;}
	.st5{fill:#FFFFFF;fill-opacity:0.39;}
	.st6{opacity:0.8;}
	.st7{fill:#FFFFFF;}
</style>
<polygon class="st0" points="9.2,64 9.2,2 56.8,2 56.8,46.5 39.3,64 "/>
<polygon class="st0" points="10.2,63 10.2,3 55.8,3 55.8,46.1 38.9,63 "/>
<polygon class="st1" points="9.2,62 9.2,2 54.8,2 54.8,45.1 37.9,62 "/>
<polygon class="st2" points="10.1,61 10.1,3 53.9,3 53.9,44.7 37.5,61 "/>
<g>
	<g>
		<g>
			
				<linearGradient id="SVGID_1_" gradientUnits="userSpaceOnUse" x1="73.6001" y1="1148.4004" x2="73.6001" y2="1205.4004" gradientTransform="matrix(1 0 0 1 -41.6001 -1144.9004)">
				<stop  offset="0" style="stop-color:#90A4AE"/>
				<stop  offset="0.1378" style="stop-color:#849AA5"/>
				<stop  offset="0.4226" style="stop-color:#708A97"/>
				<stop  offset="0.7096" style="stop-color:#64808E"/>
				<stop  offset="1" style="stop-color:#607D8B"/>
			</linearGradient>
			<polygon class="st3" points="10.6,60.5 10.6,3.5 53.4,3.5 53.4,44.5 37.3,60.5 			"/>
		</g>
		<polygon class="st4" points="53.4,44.5 53.4,43.8 36.4,43.8 36.4,60.5 37.3,60.5 		"/>
		<path class="st5" d="M37.3,44.5h16.1l-16,16L37.3,44.5z"/>
	</g>
	<g class="st6">
		<path class="st7" d="M34.8,27.6c0-0.1,0-0.1,0.1-0.1c0-0.1,0.1-0.2,0.1-0.3l0,0c0.2-0.5,0.4-1,0.5-1.5h2v-4h-2
			c-0.2-0.8-0.5-1.6-1-2.4l1.4-1.4L33.1,15l-1.4,1.4c-0.7-0.5-1.5-0.8-2.4-1l0,0v-1.9h-4v2l0,0c-0.9,0.2-1.7,0.6-2.4,1L21.6,15
			l-2.9,2.9l1.4,1.4c-0.4,0.7-0.8,1.5-1,2.3h-2v4h2c0.2,0.8,0.6,1.6,1,2.4l0,0l-1.4,1.4l2.9,2.8l1.4-1.4c0.7,0.5,1.5,0.8,2.4,1v2h4
			v-2l0,0l0,0c0.8-0.2,1.6-0.5,2.4-1l1.4,1.4l2.8-2.8L34.6,28l0,0c0-0.1,0.1-0.2,0.1-0.2C34.7,27.7,34.8,27.7,34.8,27.6z M27.4,30.1
			c-3.6,0-6.4-2.9-6.4-6.4c0-3.6,2.9-6.4,6.4-6.4c0.7,0,1.4,0.1,2,0.3l0,0c2.6,0.9,4.4,3.3,4.4,6.1c0,0.2,0,0.4,0,0.5l0,0
			c-0.1,0.5-0.1,1-0.3,1.5l0,0c-0.1,0.3-0.2,0.6-0.4,0.9l0,0C33,26.7,33,26.9,32.9,27l0,0c-0.1,0.1-0.2,0.3-0.3,0.4l0,0
			c-0.1,0.1-0.2,0.2-0.3,0.4c0,0,0,0-0.1,0c-0.2,0.2-0.4,0.5-0.6,0.6l0,0c-0.1,0.1-0.2,0.2-0.4,0.3c0,0,0,0,0,0.1
			C31.1,28.9,31,29,30.8,29l0,0c-0.1,0.1-0.3,0.1-0.4,0.2c0,0,0,0-0.1,0c-0.1,0.1-0.3,0.1-0.4,0.2c0,0,0,0-0.1,0s-0.2,0.1-0.4,0.1
			C28.8,30,28.1,30.1,27.4,30.1z"/>
		<path class="st7" d="M45.9,30C45.9,30,45.9,29.9,45.9,30c0-0.1,0-0.2,0-0.3l0,0c0-0.3,0-0.6,0-0.9l1-0.4L46,26.3l-1,0.4
			c-0.3-0.4-0.6-0.7-1-1l0.4-1l-2.1-0.9l-0.4,1c-0.5-0.1-0.9-0.1-1.4,0l0,0l-0.4-1L38,24.7l0.4,1l0,0c-0.4,0.3-0.7,0.6-1,1l-1-0.4
			l-0.9,2.1l1,0.4c-0.1,0.5-0.1,0.9,0,1.4l-1,0.4l0.9,2.1l1-0.4c0.3,0.4,0.6,0.7,1,1l0,0l-0.4,1l2.1,0.9l0.4-1
			c0.5,0.1,0.9,0.1,1.4,0l0.4,1l2.1-0.9l-0.4-1l0,0l0,0c0.4-0.3,0.7-0.6,1-1l1,0.4l0.9-2.1l-1-0.4l0,0C45.8,30.2,45.8,30.1,45.9,30
			C45.8,30,45.8,30,45.9,30z M42.6,32.8c-1.8,0.8-3.9-0.1-4.7-1.9c-0.8-1.8,0.1-3.9,1.9-4.6c0.4-0.1,0.7-0.2,1.1-0.3l0,0
			c1.5-0.1,3,0.7,3.6,2.2c0,0.1,0.1,0.2,0.1,0.3l0,0c0.1,0.3,0.1,0.6,0.2,0.8l0,0c0,0.2,0,0.4,0,0.5l0,0c0,0.1,0,0.2,0,0.3l0,0
			c0,0.1,0,0.2,0,0.2l0,0c0,0.1,0,0.2-0.1,0.2l0,0c0,0.2-0.1,0.3-0.2,0.5l0,0c0,0.1-0.1,0.1-0.1,0.2l0,0c0,0.1-0.1,0.1-0.1,0.2l0,0
			c0,0.1-0.1,0.1-0.1,0.2l0,0c0,0.1-0.1,0.1-0.2,0.2l0,0c0,0-0.1,0.1-0.2,0.1C43.3,32.5,43,32.7,42.6,32.8z"/>
		<path class="st7" d="M36.9,37.4L36.9,37.4c0-0.1,0-0.2,0-0.2l0,0c0-0.3,0-0.5,0-0.8l0.9-0.4L37,34.2l-0.9,0.4
			c-0.2-0.3-0.5-0.6-0.9-0.9l0.4-0.9l-1.8-0.7L33.4,33c-0.4-0.1-0.8-0.1-1.3,0l0,0l-0.4-0.9L30,32.8l0.4,0.9l0,0
			c-0.3,0.3-0.6,0.5-0.9,0.9l-0.9-0.4L27.8,36l0.9,0.4c-0.1,0.4-0.1,0.8,0,1.2L27.8,38l0.8,1.8l0.9-0.4c0.2,0.3,0.5,0.6,0.9,0.9l0,0
			L30,41.2l1.8,0.7l0.4-0.9c0.4,0.1,0.8,0.1,1.2,0l0.4,0.9l1.8-0.8l-0.4-0.9l0,0l0,0c0.3-0.2,0.6-0.5,0.9-0.9l0.9,0.4l0.7-1.8
			l-0.9-0.4l0,0C36.8,37.6,36.8,37.5,36.9,37.4C36.9,37.5,36.9,37.5,36.9,37.4z M34,39.9c-1.6,0.7-3.4-0.1-4.1-1.7
			c-0.7-1.6,0.1-3.4,1.7-4.1c0.3-0.1,0.6-0.2,1-0.2l0,0c1.3-0.1,2.6,0.6,3.1,1.9c0,0.1,0.1,0.2,0.1,0.2l0,0c0.1,0.2,0.1,0.5,0.1,0.7
			l0,0c0,0.2,0,0.3,0,0.5l0,0c0,0.1,0,0.1,0,0.2l0,0c0,0.1,0,0.1,0,0.2l0,0c0,0.1,0,0.1-0.1,0.2l0,0c-0.1,0.1-0.1,0.3-0.2,0.4l0,0
			c0,0.1-0.1,0.1-0.1,0.2l0,0c0,0-0.1,0.1-0.1,0.2l0,0c0,0.1-0.1,0.1-0.1,0.2c0,0,0,0,0,0.1c-0.1,0-0.1,0.1-0.1,0.2l0,0
			c-0.1,0-0.1,0.1-0.1,0.1C34.6,39.6,34.3,39.8,34,39.9z"/>
	</g>
</g>
</svg>
