<?xml version="1.0" encoding="utf-8"?>
<!-- Generator: Adobe Illustrator 21.0.0, SVG Export Plug-In . SVG Version: 6.00 Build 0)  -->
<svg version="1.1" id="call-start" xmlns="http://www.w3.org/2000/svg" xmlns:xlink="http://www.w3.org/1999/xlink" x="0px" y="0px"
	 viewBox="0 0 14 14" style="enable-background:new 0 0 14 14;" xml:space="preserve">
<style type="text/css">
	.st0{fill:#61A232;}
</style>
<title>14</title>
<g id="_14">
	<path class="st0" d="M1.8,1.1l2.5,2.5L4,3.8C3.1,4.7,3.1,6.1,4,7l3,3c0.9,0.9,2.4,0.9,3.3,0c0,0,0,0,0,0l0.2-0.2l2.5,2.5l-0.5,0.5
		l-0.1,0.1C12,13,11.6,13,11.3,13c-1.3,0-2.6-0.5-3.6-1.5L2.5,6.4C1.3,5.2,0.8,3.4,1.1,1.8l0.1-0.1L1.8,1.1 M1.8,0
		C1.6,0,1.3,0.1,1.2,0.3L0.5,0.9L0.2,1.2c-0.5,2.1,0.1,4.3,1.6,5.8l5.1,5.1c1.1,1.1,2.7,1.8,4.3,1.8c0.5,0,1-0.1,1.5-0.2l0.4-0.4
		l0.6-0.6c0.3-0.3,0.4-0.9,0-1.2c0,0,0,0,0,0l-2.7-2.7c-0.2-0.2-0.4-0.3-0.6-0.3c-0.2,0-0.5,0.1-0.6,0.3L9.5,9.3
		C9,9.8,8.2,9.8,7.7,9.3c0,0,0,0,0,0L4.8,6.3C4.2,5.8,4.2,5,4.7,4.5c0,0,0,0,0,0l0.3-0.3c0.3-0.3,0.4-0.9,0-1.2c0,0,0,0,0,0L2.4,0.3
		C2.2,0.1,2,0,1.8,0z"/>
</g>
</svg>
