<?xml version="1.0" encoding="utf-8"?>
<!-- Generator: Adobe Illustrator 21.0.0, SVG Export Plug-In . SVG Version: 6.00 Build 0)  -->
<svg version="1.1" id="文档" xmlns="http://www.w3.org/2000/svg" xmlns:xlink="http://www.w3.org/1999/xlink" x="0px" y="0px"
	 viewBox="0 0 14 14" style="enable-background:new 0 0 14 14;" xml:space="preserve">
<style type="text/css">
	.st0{fill:none;stroke:#808080;stroke-miterlimit:10;}
	.st1{fill:#2196F3;}
</style>
<title>14</title>
<g id="_14">
	<line class="st0" x1="9.5" y1="1" x2="9.5" y2="4"/>
	<line class="st0" x1="12" y1="3.5" x2="9" y2="3.5"/>
	<polyline class="st0" points="6,13.5 1.5,13.5 1.5,0.5 9.5,0.5 12.5,3.5 12.5,6 	"/>
	<rect x="9.7" y="9.8" class="st1" width="1" height="2"/>
	<rect x="9.7" y="7.8" class="st1" width="1" height="1"/>
	<path class="st1" d="M10.1,6.1c-2.2,0-4,1.7-4,3.9c0,2.2,1.7,4,3.9,4c2.2,0,4-1.7,4-3.9c0,0,0,0,0,0C14,7.8,12.3,6.1,10.1,6.1
		C10.1,6.1,10.1,6.1,10.1,6.1z M10.1,13.1c-1.7,0-3.1-1.3-3.1-3c0-1.7,1.3-3.1,3-3.1c1.7,0,3.1,1.3,3.1,3c0,0,0,0,0,0.1
		C13.1,11.7,11.8,13,10.1,13.1C10.1,13.1,10.1,13.1,10.1,13.1z"/>
</g>
</svg>
