<?xml version="1.0" encoding="utf-8"?>
<!-- Generator: Adobe Illustrator 21.0.0, SVG Export Plug-In . SVG Version: 6.00 Build 0)  -->
<svg version="1.1" id="剪刀" xmlns="http://www.w3.org/2000/svg" xmlns:xlink="http://www.w3.org/1999/xlink" x="0px" y="0px"
	 viewBox="0 0 14 14" style="enable-background:new 0 0 14 14;" xml:space="preserve">
<style type="text/css">
	.st0{fill:#808080;}
	.st1{fill:none;stroke:#808080;stroke-miterlimit:10;}
</style>
<title>14</title>
<g id="_14">
	<path class="st0" d="M2.5,10C3.3,10,4,10.7,4,11.5S3.3,13,2.5,13S1,12.3,1,11.5S1.7,10,2.5,10 M2.5,9C1.1,9,0,10.1,0,11.5
		S1.1,14,2.5,14S5,12.9,5,11.5S3.9,9,2.5,9z"/>
	<path class="st0" d="M11.5,10c0.8,0,1.5,0.7,1.5,1.5S12.3,13,11.5,13S10,12.3,10,11.5S10.7,10,11.5,10 M11.5,9
		C10.1,9,9,10.1,9,11.5s1.1,2.5,2.5,2.5s2.5-1.1,2.5-2.5S12.9,9,11.5,9z"/>
	<line class="st1" x1="4.1" y1="9.9" x2="6.1" y2="8.6"/>
	<line class="st1" x1="9.9" y1="9.9" x2="8" y2="8.6"/>
	<path class="st0" d="M7,8c0.3,0,0.5,0.2,0.5,0.5S7.3,9,7,9S6.5,8.8,6.5,8.5S6.7,8,7,8 M7,7C6.2,7,5.5,7.7,5.5,8.5S6.2,10,7,10
		s1.5-0.7,1.5-1.5S7.8,7,7,7z"/>
	<path class="st0" d="M1.3,0l6.6,7.6C6.1,7.7,4.5,7.1,3.2,6C1.4,4.1,1.3,0,1.3,0z"/>
	<path class="st0" d="M12.7,0L6.2,7.6c1.7,0,3.3-0.6,4.6-1.6C12.6,4.1,12.7,0,12.7,0z"/>
</g>
</svg>
