<?xml version="1.0" encoding="utf-8"?>
<!-- Generator: Adobe Illustrator 21.0.0, SVG Export Plug-In . SVG Version: 6.00 Build 0)  -->
<svg version="1.1" id="眼睛" xmlns="http://www.w3.org/2000/svg" xmlns:xlink="http://www.w3.org/1999/xlink" x="0px" y="0px"
	 viewBox="0 0 14 14" style="enable-background:new 0 0 14 14;" xml:space="preserve">
<style type="text/css">
	.st0{fill:#808080;}
	.st1{fill:#CE1B1B;}
	.st2{fill:#FFFFFF;}
</style>
<title>14</title>
<g id="_14">
	<path class="st0" d="M7,4c2.2,0.1,4.2,1,5.8,2.5C11.2,8,9.2,8.9,7,9C4.8,8.9,2.8,8,1.2,6.5C2.8,5,4.8,4.1,7,4 M7,3C3.1,3,0,6,0,6.5
		S3.1,10,7,10s7-3,7-3.5S10.9,3,7,3z"/>
	<path class="st1" d="M7,4C5.6,4,4.5,5.1,4.5,6.5S5.6,9,7,9s2.5-1.1,2.5-2.5S8.4,4,7,4z"/>
	<circle class="st2" cx="7" cy="6.5" r="1"/>
</g>
</svg>
