<?xml version="1.0" encoding="utf-8"?>
<!-- Generator: Adobe Illustrator 21.0.0, SVG Export Plug-In . SVG Version: 6.00 Build 0)  -->
<svg version="1.1" id="邮件" xmlns="http://www.w3.org/2000/svg" xmlns:xlink="http://www.w3.org/1999/xlink" x="0px" y="0px"
	 viewBox="0 0 14 14" style="enable-background:new 0 0 14 14;" xml:space="preserve">
<style type="text/css">
	.st0{fill:none;stroke:#808080;stroke-miterlimit:10;}
	.st1{fill:#EA572A;}
</style>
<title>14</title>
<g id="_14">
	<polyline class="st0" points="13.5,7 13.5,2.5 0.5,2.5 0.5,11.5 6,11.5 	"/>
	<line class="st0" x1="6.5" y1="7.5" x2="0.5" y2="11.5"/>
	<polyline class="st0" points="13.5,2.5 7,7.9 0.5,2.5 	"/>
	<rect x="10" y="9" class="st1" width="1" height="2"/>
	<rect x="10" y="11.5" class="st1" width="1" height="1"/>
	<path class="st1" d="M10.5,8c1.4,0,2.5,1.1,2.5,2.5S11.9,13,10.5,13S8,11.9,8,10.5S9.1,8,10.5,8 M10.5,7C8.6,7,7,8.6,7,10.5
		S8.6,14,10.5,14s3.5-1.6,3.5-3.5S12.4,7,10.5,7z"/>
</g>
</svg>
