<?xml version="1.0" encoding="utf-8"?>
<!-- Generator: Adobe Illustrator 21.0.0, SVG Export Plug-In . SVG Version: 6.00 Build 0)  -->
<svg version="1.1" id="文字编辑" xmlns="http://www.w3.org/2000/svg" xmlns:xlink="http://www.w3.org/1999/xlink" x="0px"
	 y="0px" viewBox="0 0 14 14" style="enable-background:new 0 0 14 14;" xml:space="preserve">
<style type="text/css">
	.st0{fill:#808080;}
</style>
<title>14</title>
<g id="_14">
	<path class="st0" d="M3.5,9.5V9C3.4,9.2,3.2,9.3,2.9,9.4C2.7,9.6,2.4,9.6,2.2,9.6C1.6,9.6,1,9.4,0.6,8.9C0.2,8.5,0,8,0,7.4
		c0-0.3,0-0.6,0.2-0.8c0.1-0.3,0.2-0.5,0.4-0.7C0.8,5.7,1,5.5,1.3,5.4c0.3-0.1,0.6-0.2,0.8-0.2c0.3,0,0.5,0,0.8,0.2
		c0.2,0.1,0.5,0.3,0.7,0.5V5.3h0.8v4.1H3.5z M0.8,7.4c0,0.4,0.1,0.8,0.4,1.1c0.3,0.3,0.6,0.4,1,0.4c0.4,0,0.7-0.1,1-0.4
		c0.3-0.3,0.4-0.6,0.4-1c0-0.4-0.2-0.7-0.4-1C2.9,6.1,2.6,6,2.2,6c-0.4,0-0.7,0.1-1,0.4C0.9,6.7,0.8,7,0.8,7.4z"/>
	<path class="st0" d="M5.8,9v0.5H5V4h0.7v1.8c0.2-0.2,0.4-0.4,0.7-0.5c0.2-0.1,0.5-0.2,0.8-0.2c0.3,0,0.6,0.1,0.8,0.2
		c0.3,0.1,0.5,0.3,0.7,0.5C8.9,6.1,9,6.3,9.1,6.6c0.1,0.3,0.2,0.5,0.1,0.8c0,0.6-0.2,1.1-0.6,1.6c-0.4,0.4-1,0.6-1.6,0.6
		c-0.3,0-0.5,0-0.8-0.1C6.1,9.3,5.9,9.2,5.8,9z M5.8,7.5c0,0.4,0.1,0.7,0.4,1c0.3,0.3,0.6,0.4,1,0.4c0.4,0,0.7-0.1,1-0.4
		c0.3-0.3,0.4-0.7,0.4-1.1C8.6,6.6,8,6,7.2,6c0,0,0,0-0.1,0c-0.4,0-0.7,0.1-1,0.4C5.9,6.7,5.7,7.1,5.8,7.5L5.8,7.5z"/>
	<path class="st0" d="M14.1,8.1c-0.1,0.4-0.4,0.8-0.8,1.1c-0.4,0.3-0.8,0.4-1.3,0.4c-0.3,0-0.6-0.1-0.8-0.2
		c-0.3-0.1-0.5-0.3-0.7-0.5c-0.2-0.2-0.3-0.4-0.4-0.7c-0.4-1.1,0.1-2.4,1.1-2.8c0.3-0.1,0.6-0.2,0.9-0.2c0.4,0,0.9,0.1,1.2,0.4
		c0.4,0.3,0.6,0.7,0.8,1.1h-0.8C13,6.3,12.5,6,12,6c-0.4,0-0.7,0.1-0.9,0.4c-0.3,0.3-0.4,0.6-0.4,1c0,0.4,0.1,0.7,0.4,1
		c0.3,0.3,0.6,0.4,1,0.4c0.3,0,0.5-0.1,0.7-0.2C13,8.5,13.2,8.3,13.3,8L14.1,8.1z"/>
	<rect y="7" class="st0" width="14" height="1"/>
</g>
</svg>
