<?xml version="1.0" encoding="iso-8859-1"?>
<!-- Generator: Adobe Illustrator 21.0.0, SVG Export Plug-In . SVG Version: 6.00 Build 0)  -->
<svg version="1.1" id="&#x5176;&#x4ED6;" xmlns="http://www.w3.org/2000/svg" xmlns:xlink="http://www.w3.org/1999/xlink" x="0px"
	 y="0px" viewBox="0 0 48 48" style="enable-background:new 0 0 48 48;" xml:space="preserve">
<title>画板 22</title>
<g id="&#x8F6F;&#x9A71;">
	<path style="opacity:0.08;enable-background:new    ;" d="M6.06,48c-2.209,0-4-1.791-4-4V6c0-2.209,1.791-4,4-4h4.09l0.31,0.63
		h1.69v-0.5L14.54,2h23.94l0,0h4.58l4.84,4.76v37.33c0.006,2.148-1.73,3.895-3.878,3.902c-0.041,0-0.081,0-0.122-0.002H6.06V48z"/>
	<path style="opacity:0.1;enable-background:new    ;" d="M6.06,47c-1.657,0-3-1.343-3-3V6c0-1.657,1.343-3,3-3h3.46l0.31,0.64h3.31
		V3.08L14.59,3h22.89l0,0h5.18l4.24,4.18v36.91c0.001,1.602-1.297,2.901-2.898,2.902c-0.034,0-0.068-0.001-0.102-0.002H6.06V47z"/>
	<path style="opacity:0.2;enable-background:new    ;" d="M5.06,46c-1.657,0-3-1.343-3-3V5c0-1.657,1.343-3,3-3h3.46l0.31,0.64h3.31
		V2.08L13.59,2h22.89l0,0h5.18l4.24,4.18v36.91c0.001,1.602-1.297,2.901-2.898,2.902c-0.034,0-0.068-0.001-0.102-0.002H5.06V46z"/>
	<path d="M5.06,45c-1.105,0-2-0.895-2-2V5c0-1.105,0.895-2,2-2h2.83L8,3.3c0.078,0.152,0.216,0.264,0.38,0.31h0.2h4.54V3h0.5h21.86
		v0.61h0.08l0.13-0.09l0.07-0.07c0.027-0.031,0.05-0.064,0.07-0.1L36,3.06h5.28L44.9,6.6v36.49
		c-0.004,1.055-0.863,1.906-1.918,1.902c-0.027,0-0.055-0.001-0.082-0.002H5.06V45z"/>
	
		<linearGradient id="SVGID_1_" gradientUnits="userSpaceOnUse" x1="23.9998" y1="46.48" x2="23.9998" y2="-29.47" gradientTransform="matrix(1 0 0 -1 0 50)">
		<stop  offset="0" style="stop-color:#211D1E"/>
		<stop  offset="0.55" style="stop-color:#58595B"/>
		<stop  offset="1" style="stop-color:#ABB6BE"/>
	</linearGradient>
	<path style="fill:url(#SVGID_1_);" d="M44.4,43.09c-0.011,0.784-0.655,1.411-1.439,1.4c-0.007,0-0.014,0-0.021,0H5.06
		c-0.806,0-1.46-0.653-1.46-1.46c0-0.01,0-0.02,0-0.03V5C3.589,4.194,4.234,3.531,5.04,3.52c0.007,0,0.013,0,0.02,0h2.52
		c0.188,0.381,0.575,0.625,1,0.63h26.65c0.422-0.005,0.807-0.244,1-0.62H41l3.4,3.28V43.09z"/>
	
		<linearGradient id="SVGID_2_" gradientUnits="userSpaceOnUse" x1="24.405" y1="29.53" x2="24.405" y2="2.95" gradientTransform="matrix(1 0 0 -1 0 50)">
		<stop  offset="0" style="stop-color:#FFFFFF"/>
		<stop  offset="1" style="stop-color:#CFD8DC"/>
	</linearGradient>
	<path style="fill:url(#SVGID_2_);" d="M9.73,21h29.35c0.821,0.005,1.485,0.669,1.49,1.49v22H8.24v-22C8.24,21.667,8.907,21,9.73,21
		z"/>
	<path style="fill:#221E1F;" d="M9.09,18.24C8.494,18.246,8.006,17.767,8,17.17c0,0,0,0,0,0V4c0.144,0.083,0.304,0.135,0.47,0.15v13
		c0.005,0.593,0.487,1.07,1.08,1.07L9.09,18.24z"/>
	<path style="fill:#040000;" d="M9.45,20.88h29.44c0.341,0.014,0.669,0.14,0.93,0.36c-0.147-0.06-0.302-0.097-0.46-0.11H9.92
		c-0.821,0.005-1.485,0.669-1.49,1.49V44.5H8V22.37C8,21.562,8.643,20.902,9.45,20.88z"/>
	<path style="fill:#BAC6D1;" d="M39.71,21.17c0.701,0.134,1.208,0.746,1.21,1.46v17.49l0,0v1.61l0,0v2.77h-0.54V22.41
		C40.379,21.91,40.127,21.445,39.71,21.17z"/>
	<path style="fill:#616161;" d="M36.18,3.71l-0.06,13.53c-0.005,0.596-0.493,1.076-1.089,1.071c-0.01,0-0.021,0-0.031-0.001H9.57
		c-0.417,0.016-0.807-0.21-1-0.58C8.899,17.869,9.245,17.96,9.6,18h25c0.563,0.001,1.028-0.438,1.06-1l0.02-12.9
		C35.881,4.021,36.054,3.885,36.18,3.71z M35.1,4.18L19,4.16l0,0L35.1,4.18z"/>
	<path style="fill:#221E1F;" d="M13.68,3.53H35v12.36c-0.005,0.83-0.68,1.5-1.51,1.5H15.21c-0.832-0.005-1.505-0.678-1.51-1.51V3.53
		H13.68z M27.44,5c-0.552,0-1,0.448-1,1v9.77c0,0.552,0.448,1,1,1h4.13c0.552,0,1-0.448,1-1V6c0-0.552-0.448-1-1-1H27.44z"/>
	
		<linearGradient id="SVGID_3_" gradientUnits="userSpaceOnUse" x1="-5.6104" y1="36.5738" x2="38.0796" y2="41.1638" gradientTransform="matrix(1 0 0 -1 0 50)">
		<stop  offset="0" style="stop-color:#BFD7B1"/>
		<stop  offset="0.36" style="stop-color:#CFD1D2"/>
		<stop  offset="1" style="stop-color:#FFFFFF"/>
	</linearGradient>
	<path style="fill:url(#SVGID_3_);" d="M13.64,3.5h21.31v12.22c-0.011,0.832-0.688,1.5-1.52,1.5H15.15
		c-0.834,0-1.51-0.676-1.51-1.51c0,0,0,0,0,0S13.64,3.5,13.64,3.5z M27.4,4.83c-0.552,0-1,0.448-1,1v9.77c0,0.552,0.448,1,1,1h4.13
		c0.552,0,1-0.448,1-1V5.84c0-0.552-0.448-1-1-1L27.4,4.83z"/>
	<path style="fill:#FFFFFF;" d="M13.64,3.53h21.31V3.7H13.8v12.16c-0.001,0.325,0.105,0.641,0.3,0.9
		c-0.295-0.282-0.461-0.672-0.46-1.08C13.64,15.68,13.64,3.53,13.64,3.53z M32.37,5.27c0.117,0.167,0.18,0.366,0.18,0.57v9.77
		c0,0.552-0.448,1-1,1h-4.14c-0.251,0.002-0.494-0.091-0.68-0.26c0.186,0.276,0.497,0.441,0.83,0.44h4.13c0.552,0,1-0.448,1-1V6
		C32.689,5.723,32.573,5.458,32.37,5.27z"/>
	<rect x="14.04" y="27.43" style="fill:#90A4AE;" width="20.56" height="1.02"/>
	<rect x="14.04" y="36.04" style="fill:#90A4AE;" width="20.56" height="1.02"/>
</g>
</svg>
