<svg id="其他" xmlns="http://www.w3.org/2000/svg" xmlns:xlink="http://www.w3.org/1999/xlink" viewBox="0 0 48 48"><defs><style>.cls-1{opacity:0.1;}.cls-2{opacity:0.2;}.cls-3{opacity:0.08;}.cls-4{fill:#263238;}.cls-5{fill:#455a64;}.cls-6{fill:url(#linear-gradient);}.cls-7{fill:#90a4ae;}.cls-8,.cls-9{fill:url(#linear-gradient-2);}.cls-9{stroke:#01579b;stroke-miterlimit:10;stroke-width:1.5px;}.cls-10,.cls-11{opacity:0.8;}.cls-10{fill:url(#linear-gradient-4);}.cls-11{fill:url(#linear-gradient-5);}.cls-12{fill:#293a3f;}.cls-13{fill:url(#linear-gradient-6);}.cls-14{fill:#eee8d5;opacity:0.23;isolation:isolate;}.cls-15{fill:#1d272b;}.cls-16{fill:#03a9f4;}</style><linearGradient id="linear-gradient" x1="24.12" y1="42.69" x2="24.12" y2="37.69" gradientUnits="userSpaceOnUse"><stop offset="0" stop-color="#90a4ae"/><stop offset="1" stop-color="#455a64"/></linearGradient><linearGradient id="linear-gradient-2" x1="24" y1="8.96" x2="24" y2="31.9" gradientUnits="userSpaceOnUse"><stop offset="0" stop-color="#b3e5fc"/><stop offset="1" stop-color="#0288d1"/></linearGradient><linearGradient id="linear-gradient-4" x1="6.81" y1="9.99" x2="41.16" y2="9.99" gradientUnits="userSpaceOnUse"><stop offset="0" stop-color="#fff"/><stop offset="1" stop-color="#4fc3f7"/></linearGradient><linearGradient id="linear-gradient-5" x1="-638.79" y1="-566.43" x2="-617.93" y2="-566.43" gradientTransform="translate(573.59 -607.62) rotate(-90)" gradientUnits="userSpaceOnUse"><stop offset="0" stop-color="#0288d1"/><stop offset="1" stop-color="#fff"/></linearGradient><linearGradient id="linear-gradient-6" x1="24" y1="6.56" x2="24" y2="35.28" gradientUnits="userSpaceOnUse"><stop offset="0" stop-color="#607d8b"/><stop offset="1" stop-color="#455a64"/></linearGradient></defs><title>画板 22</title><g id="电脑"><path class="cls-1" d="M13.2,44.9a3.47,3.47,0,0,1-3.53-3.4V39l.65-.3H2V5.1H48V38.7H40l.61.27V41.5A3.47,3.47,0,0,1,37,44.9Z"/><path class="cls-1" d="M13.2,43.9a2.47,2.47,0,0,1-2.53-2.4V39.64l4.17-1.94H3V6.1H47V37.7H35.27l4.31,1.92V41.5A2.47,2.47,0,0,1,37,43.9Z"/><path class="cls-2" d="M12.2,42.9a2.47,2.47,0,0,1-2.53-2.4V38.64l4.17-1.94H2V5.1H46V36.7H34.27l4.31,1.92V40.5A2.47,2.47,0,0,1,36,42.9Z"/><path class="cls-3" d="M40.72,30.68V12.06H9.28V30.68Z"/><path class="cls-1" d="M41.72,31.65V11.1H8.28V31.65Z"/><path class="cls-4" d="M12.2,41.9a1.47,1.47,0,0,1-1.53-1.4V39.28l6.5-3H30.82l6.75,3V40.5A1.47,1.47,0,0,1,36,41.9Z"/><path class="cls-5" d="M30.71,36.76H17.28L11.17,39.6v.9a1,1,0,0,0,1,.9H36a1,1,0,0,0,1-.9v-.9Z"/><polygon class="cls-6" points="11.17 39.6 17.28 36.76 30.71 36.76 37.08 39.6 11.17 39.6"/><path class="cls-7" d="M36,39.6H11.17v.9a1,1,0,0,0,1,.9H36a1,1,0,0,0,1-.9v-.9Z"/><path class="cls-4" d="M3,6.1V35.7H18.5v2.75h11V35.7H45V6.1ZM41.72,9.17V31.65H6.28V9.17Z"/><rect id="rect3008" class="cls-8" x="6.08" y="8.96" width="35.84" height="22.94"/><rect id="rect3008-2" data-name="rect3008" class="cls-9" x="6.08" y="8.96" width="35.84" height="22.94"/><rect class="cls-10" x="6.81" y="9.66" width="34.34" height="0.65"/><rect class="cls-11" x="6.81" y="10.31" width="0.67" height="20.86"/><rect class="cls-12" x="18.88" y="35.08" width="10.25" height="2.93"/><path class="cls-13" d="M3.5,6.56V35.28h41V6.56ZM41.92,31.9H6.08V9H41.92Z"/><path id="rect3008-0" class="cls-14" d="M28.59,9,19.32,31.87h22.6V9Z"/><circle class="cls-15" cx="23.99" cy="33.57" r="1.48"/><circle class="cls-16" cx="23.99" cy="33.67" r="1.13"/></g></svg>