<svg xmlns="http://www.w3.org/2000/svg" xmlns:xlink="http://www.w3.org/1999/xlink" viewBox="0 0 48 48"><defs><style>.cls-1{opacity:0.08;}.cls-2{opacity:0.1;}.cls-3{opacity:0.2;}.cls-4{fill:#212121;}.cls-5{fill:url(#linear-gradient);}.cls-6{stroke:#01579b;stroke-miterlimit:10;stroke-width:0.7px;fill:url(#linear-gradient-2);}.cls-7{fill:url(#linear-gradient-3);}.cls-8{fill:#eee8d5;opacity:0.23;isolation:isolate;}.cls-9{fill:#1d272b;}.cls-10{fill:#455a64;}</style><linearGradient id="linear-gradient" x1="24" y1="3.5" x2="24" y2="44.5" gradientUnits="userSpaceOnUse"><stop offset="0" stop-color="#455a64"/><stop offset="1" stop-color="#263238"/></linearGradient><linearGradient id="linear-gradient-2" x1="9.36" y1="21.8" x2="38.64" y2="21.8" gradientUnits="userSpaceOnUse"><stop offset="0" stop-color="#b3e5fc"/><stop offset="1" stop-color="#0288d1"/></linearGradient><linearGradient id="linear-gradient-3" x1="27.14" y1="7.87" x2="20.87" y2="35.69" xlink:href="#linear-gradient-2"/></defs><title>画板 22</title><g id="开始菜单应用图标"><g id="平板"><g id="_48" data-name="48"><rect class="cls-1" x="5.18" y="2.25" width="39.64" height="45.5" rx="5.18" ry="5.18"/><rect class="cls-2" x="6.18" y="3.25" width="37.64" height="43.5" rx="4.18" ry="4.18"/><rect class="cls-3" x="5.18" y="2.25" width="37.64" height="43.5" rx="4.18" ry="4.18"/><rect class="cls-4" x="6.18" y="3.25" width="35.64" height="41.5" rx="3.18" ry="3.18"/><rect class="cls-5" x="6.43" y="3.5" width="35.14" height="41" rx="2.93" ry="2.93"/><path class="cls-4" d="M38.64,3.25H9.36A3.18,3.18,0,0,0,6.18,6.43V41.57a3.18,3.18,0,0,0,3.18,3.18H38.64a3.18,3.18,0,0,0,3.18-3.18V6.43A3.18,3.18,0,0,0,38.64,3.25Zm2.68,38.32a2.68,2.68,0,0,1-2.68,2.68H9.36a2.68,2.68,0,0,1-2.68-2.68V6.43A2.68,2.68,0,0,1,9.36,3.75H38.64a2.68,2.68,0,0,1,2.68,2.68Z"/><rect class="cls-6" x="9.36" y="6.43" width="29.29" height="30.75"/><rect class="cls-7" x="10.46" y="7.52" width="27.07" height="28.57"/><polygon class="cls-8" points="37.56 36.15 18.74 36.15 26.44 7.57 37.56 7.57 37.56 36.15"/><circle class="cls-9" cx="24" cy="40.84" r="2.38"/><circle class="cls-10" cx="23.84" cy="41" r="1.92"/></g></g></g></svg>