<?xml version="1.0" encoding="iso-8859-1"?>
<!-- Generator: Adobe Illustrator 21.0.0, SVG Export Plug-In . SVG Version: 6.00 Build 0)  -->
<svg version="1.1" id="&#x56FE;&#x5C42;_1" xmlns="http://www.w3.org/2000/svg" xmlns:xlink="http://www.w3.org/1999/xlink" x="0px"
	 y="0px" viewBox="0 0 48 48" style="enable-background:new 0 0 48 48;" xml:space="preserve">
<title>画板 22</title>
<g id="&#x5F00;&#x59CB;&#x83DC;&#x5355;&#x5E94;&#x7528;&#x56FE;&#x6807;">
	<g id="&#x5E73;&#x677F;">
		<g id="_48">
			<path style="opacity:0.08;enable-background:new    ;" d="M10.36,2.25h29.28c2.861,0,5.18,2.319,5.18,5.18v35.14
				c0,2.861-2.319,5.18-5.18,5.18H10.36c-2.861,0-5.18-2.319-5.18-5.18V7.43C5.18,4.569,7.499,2.25,10.36,2.25z"/>
			<path style="opacity:0.1;enable-background:new    ;" d="M10.36,3.25h29.28c2.309,0,4.18,1.871,4.18,4.18v35.14
				c0,2.309-1.871,4.18-4.18,4.18H10.36c-2.309,0-4.18-1.871-4.18-4.18V7.43C6.18,5.121,8.051,3.25,10.36,3.25z"/>
			<path style="opacity:0.2;enable-background:new    ;" d="M9.36,2.25h29.28c2.309,0,4.18,1.871,4.18,4.18v35.14
				c0,2.309-1.871,4.18-4.18,4.18H9.36c-2.309,0-4.18-1.871-4.18-4.18V6.43C5.18,4.121,7.051,2.25,9.36,2.25z"/>
			<path style="fill:#212121;" d="M9.36,3.25h29.28c1.756,0,3.18,1.424,3.18,3.18v35.14c0,1.756-1.424,3.18-3.18,3.18H9.36
				c-1.756,0-3.18-1.424-3.18-3.18V6.43C6.18,4.674,7.604,3.25,9.36,3.25z"/>
			
				<linearGradient id="SVGID_1_" gradientUnits="userSpaceOnUse" x1="24" y1="46.5" x2="24" y2="5.5" gradientTransform="matrix(1 0 0 -1 0 50)">
				<stop  offset="0" style="stop-color:#455A64"/>
				<stop  offset="1" style="stop-color:#263238"/>
			</linearGradient>
			<path style="fill:url(#SVGID_1_);" d="M9.36,3.5h29.28c1.618,0,2.93,1.312,2.93,2.93v35.14c0,1.618-1.312,2.93-2.93,2.93H9.36
				c-1.618,0-2.93-1.312-2.93-2.93V6.43C6.43,4.812,7.742,3.5,9.36,3.5z"/>
			<path style="fill:#212121;" d="M38.64,3.25H9.36c-1.756,0-3.18,1.424-3.18,3.18v35.14c0,1.756,1.424,3.18,3.18,3.18l0,0h29.28
				c1.756,0,3.18-1.424,3.18-3.18l0,0V6.43C41.82,4.674,40.396,3.25,38.64,3.25L38.64,3.25z M41.32,41.57c0,1.48-1.2,2.68-2.68,2.68
				l0,0H9.36c-1.48,0-2.68-1.2-2.68-2.68l0,0V6.43c0-1.48,1.2-2.68,2.68-2.68l0,0h29.28c1.48,0,2.68,1.2,2.68,2.68c0,0,0,0,0,0
				V41.57z"/>
			
				<linearGradient id="SVGID_2_" gradientUnits="userSpaceOnUse" x1="9.36" y1="28.195" x2="38.65" y2="28.195" gradientTransform="matrix(1 0 0 -1 0 50)">
				<stop  offset="0" style="stop-color:#B3E5FC"/>
				<stop  offset="1" style="stop-color:#0288D1"/>
			</linearGradient>
			
				<rect x="9.36" y="6.43" style="fill:url(#SVGID_2_);stroke:#01579B;stroke-width:0.7;stroke-miterlimit:10;" width="29.29" height="30.75"/>
			
				<linearGradient id="SVGID_3_" gradientUnits="userSpaceOnUse" x1="27.1358" y1="42.1309" x2="20.8658" y2="14.3109" gradientTransform="matrix(1 0 0 -1 0 50)">
				<stop  offset="0" style="stop-color:#B3E5FC"/>
				<stop  offset="1" style="stop-color:#0288D1"/>
			</linearGradient>
			<rect x="10.46" y="7.52" style="fill:url(#SVGID_3_);" width="27.07" height="28.57"/>
			<polygon style="opacity:0.23;fill:#EEE8D5;enable-background:new    ;" points="37.56,36.15 18.74,36.15 26.44,7.57 37.56,7.57 
							"/>
			<circle style="fill:#1D272B;" cx="24" cy="40.84" r="2.38"/>
			<circle style="fill:#455A64;" cx="23.84" cy="41" r="1.92"/>
		</g>
	</g>
</g>
</svg>
