<?xml version="1.0" encoding="iso-8859-1"?>
<!-- Generator: Adobe Illustrator 21.0.0, SVG Export Plug-In . SVG Version: 6.00 Build 0)  -->
<svg version="1.1" id="&#x56FE;&#x5C42;_1" xmlns="http://www.w3.org/2000/svg" xmlns:xlink="http://www.w3.org/1999/xlink" x="0px"
	 y="0px" viewBox="0 0 48 48" style="enable-background:new 0 0 48 48;" xml:space="preserve">
<title>画板 22</title>
<g id="&#x63A7;&#x5236;&#x9762;&#x677F;">
	<g id="&#x663E;&#x793A;">
		<g id="_64">
			<g>
				<defs>
					<rect id="SVGID_1_" x="-79.34" y="8.09" width="50.64" height="38.18"/>
				</defs>
				<clipPath id="SVGID_2_">
					<use xlink:href="#SVGID_1_"  style="overflow:visible;"/>
				</clipPath>
				<g style="clip-path:url(#SVGID_2_);">
					<g style="opacity:0.4;">
						
							<linearGradient id="SVGID_3_" gradientUnits="userSpaceOnUse" x1="-44.3774" y1="19.3374" x2="-14.0974" y2="49.6174" gradientTransform="matrix(1 0 0 -1 0 50)">
							<stop  offset="0" style="stop-color:#00698C"/>
							<stop  offset="1" style="stop-color:#00698C;stop-opacity:0"/>
						</linearGradient>
						<path style="opacity:0.7;fill:url(#SVGID_3_);enable-background:new    ;" d="M-40.08,23.14c-1.458,0-2.64-1.182-2.64-2.64
							c0-0.003,0-0.007,0-0.01v-37.85h-2c-1.464,0-2.65,1.186-2.65,2.65v0V26c0.027,1.452,1.218,2.611,2.67,2.6H6.06
							C7.5,28.595,8.673,27.44,8.7,26v-2.86H-40.08z"/>
					</g>
				</g>
			</g>
		</g>
		<g id="_48">
			<path style="opacity:0.08;enable-background:new    ;" d="M13.39,46.16c-1.907,0.033-3.482-1.483-3.52-3.39v-2.39H2V3.84h46
				v36.54h-7.62v2.39c-0.038,1.907-1.613,3.423-3.52,3.39H13.39z"/>
			<path style="opacity:0.1;enable-background:new    ;" d="M13.39,45.16c-1.355,0.034-2.482-1.035-2.52-2.39v-1.85l3.31-1.54H3
				V4.84h44v34.54H36l3.41,1.52v1.86c-0.038,1.355-1.165,2.424-2.52,2.39L13.39,45.16z"/>
			<path style="opacity:0.2;enable-background:new    ;" d="M12.39,44.16c-1.355,0.034-2.482-1.035-2.52-2.39v-1.85l3.31-1.54H2
				V3.84h44v34.54H35l3.41,1.52v1.86c-0.038,1.355-1.165,2.424-2.52,2.39L12.39,44.16z"/>
			<path style="fill:#455A64;" d="M12.39,42.91c-0.665,0.034-1.232-0.475-1.27-1.14v-1.05l6.21-2.89h1.29v-0.69H3.25v-32h41.5v32
				H29.38v0.69h1.29l6.46,2.89v1.05c-0.038,0.665-0.605,1.174-1.27,1.14H12.39z"/>
			<path style="fill:#263238;" d="M44.5,5.34v31.54H29.13v1.19h1.49l6.26,2.8v0.89c-0.056,0.509-0.488,0.893-1,0.89H12.39
				c-0.512,0.003-0.944-0.381-1-0.89v-0.89l6-2.8h1.48v-1.19H3.5V5.34H44.5 M45,4.84H3v32.54h15.38v0.19h-1.1h-0.1l-6,2.8
				l-0.29,0.13v1.21c0.038,0.803,0.717,1.424,1.52,1.39h23.45c0.803,0.034,1.482-0.587,1.52-1.39v-1.16l-0.3-0.13l-6.26-2.8h-0.1
				h-1.1v-0.19H45V4.84z"/>
			
				<linearGradient id="SVGID_4_" gradientUnits="userSpaceOnUse" x1="24.13" y1="6.07" x2="24.13" y2="11.01" gradientTransform="matrix(1 0 0 -1 0 50)">
				<stop  offset="0" style="stop-color:#455A64"/>
				<stop  offset="1" style="stop-color:#263238"/>
			</linearGradient>
			<polygon style="fill:url(#SVGID_4_);" points="11.38,40.88 17.39,38.07 30.62,38.07 36.88,40.88 			"/>
			<g id="rect3008-3">
				
					<linearGradient id="SVGID_5_" gradientUnits="userSpaceOnUse" x1="24" y1="42.91" x2="24" y2="15.89" gradientTransform="matrix(1 0 0 -1 0 50)">
					<stop  offset="0" style="stop-color:#B3E5FC"/>
					<stop  offset="1" style="stop-color:#0288D1"/>
				</linearGradient>
				<rect x="6.08" y="7.09" style="fill:url(#SVGID_5_);" width="35.84" height="27.02"/>
			</g>
			<g>
				<defs>
					<rect id="SVGID_6_" x="6.08" y="7.09" width="35.84" height="27.02"/>
				</defs>
				<clipPath id="SVGID_7_">
					<use xlink:href="#SVGID_6_"  style="overflow:visible;"/>
				</clipPath>
				<g style="clip-path:url(#SVGID_7_);">
					<g style="opacity:0.4;">
						
							<linearGradient id="SVGID_8_" gradientUnits="userSpaceOnUse" x1="30.8157" y1="26.9343" x2="52.2557" y2="48.3643" gradientTransform="matrix(1 0 0 -1 0 50)">
							<stop  offset="0" style="stop-color:#00698C"/>
							<stop  offset="1" style="stop-color:#00698C;stop-opacity:0"/>
						</linearGradient>
						<path style="opacity:0.7;fill:url(#SVGID_8_);enable-background:new    ;" d="M33.86,17.74C32.831,17.734,32,16.899,32,15.87
							v-26.79h-1.4c-1.033-0.006-1.875,0.827-1.881,1.859c0,0.02,0,0.04,0.001,0.061v28.73c0,1.033,0.837,1.87,1.87,1.87h0h35.92
							c1.033,0,1.87-0.837,1.87-1.87c0,0,0,0,0,0v-2L33.86,17.74z"/>
						
							<linearGradient id="SVGID_9_" gradientUnits="userSpaceOnUse" x1="21.9524" y1="18.0376" x2="43.3824" y2="39.4676" gradientTransform="matrix(1 0 0 -1 0 50)">
							<stop  offset="0" style="stop-color:#00698C"/>
							<stop  offset="1" style="stop-color:#00698C;stop-opacity:0"/>
						</linearGradient>
						<path style="opacity:0.8;fill:url(#SVGID_9_);enable-background:new    ;" d="M25,26.63c-1.033,0-1.87-0.837-1.87-1.87v0V-2
							h-1.42c-1.021,0-1.854,0.819-1.87,1.84v28.78c0,1.033,0.837,1.87,1.87,1.87h0h35.92c1.033,0,1.87-0.837,1.87-1.87v-2L25,26.63
							z"/>
					</g>
				</g>
			</g>
			<g id="layer4">
				
					<linearGradient id="path4238_1_" gradientUnits="userSpaceOnUse" x1="-364.0255" y1="-830.3264" x2="-364.0255" y2="-850.0963" gradientTransform="matrix(0.71 0.71 -0.71 0.71 -307 874.01)">
					<stop  offset="0" style="stop-color:#000000"/>
					<stop  offset="1" style="stop-color:#000000;stop-opacity:0"/>
				</linearGradient>
				<path id="path4238" style="opacity:0.12;fill:url(#path4238_1_);enable-background:new    ;" d="M24.62,18.63l-3.06-3.06
					c-0.098-0.105-0.263-0.111-0.367-0.013c-0.053,0.05-0.083,0.12-0.083,0.193V28.7c0,0.144,0.116,0.26,0.26,0.26l0,0l0,0h13
					c0.144,0,0.26-0.116,0.26-0.26c-0.001-0.068-0.03-0.133-0.08-0.18l-3.06-3.06l9.62-16.65L24.62,18.63z"/>
				
					<linearGradient id="path3288-2_1_" gradientUnits="userSpaceOnUse" x1="-1180.3629" y1="-988.0438" x2="-1167.4729" y2="-988.0438" gradientTransform="matrix(1.2162 -1.2162 -1.1384 -1.1384 338.0745 -2537.6655)">
					<stop  offset="0" style="stop-color:#D7E866"/>
					<stop  offset="0.69" style="stop-color:#A4C33A"/>
					<stop  offset="1" style="stop-color:#7A9525;stop-opacity:0"/>
				</linearGradient>
				<path id="path3288-2" style="fill:url(#path3288-2_1_);" d="M34.55,28.52h-13v-13l3.24,3.24l16.31-10l-9.79,16.52L34.55,28.52z"
					/>
				
					<radialGradient id="path3288-2-2_1_" cx="-1177.4929" cy="-981.8181" r="9.53" gradientTransform="matrix(1.2162 -1.2162 -1.1384 -1.1384 338.0745 -2537.6655)" gradientUnits="userSpaceOnUse">
					<stop  offset="0" style="stop-color:#B0FF04"/>
					<stop  offset="0.56" style="stop-color:#5AC306"/>
					<stop  offset="0.74" style="stop-color:#13A400"/>
				</radialGradient>
				<path id="path3288-2-2" style="opacity:0.2;fill:url(#path3288-2-2_1_);enable-background:new    ;" d="M34.55,28.52h-13v-13
					l3.24,3.24l16.31-10l-9.79,16.52L34.55,28.52z"/>
				
					<linearGradient id="path4200_1_" gradientUnits="userSpaceOnUse" x1="21.6684" y1="21.5616" x2="41.0184" y2="40.9016" gradientTransform="matrix(1 0 0 -1 0 50)">
					<stop  offset="0" style="stop-color:#FFFFFF"/>
					<stop  offset="1" style="stop-color:#FFFFFF;stop-opacity:0"/>
				</linearGradient>
				<path id="path4200" style="opacity:0.6;fill:url(#path4200_1_);enable-background:new    ;" d="M40.95,9L24.62,19.4l0.22,0.22
					L40.73,9.24l-10.25,16l0.22,0.22L40.95,9z M21.87,16.24v12h12l-3.17-3.17l-0.22,0.22l2.62,2.61H22.18V17.02l2.61,2.61L25,19.4
					L21.87,16.24z"/>
			</g>
			<rect x="18.88" y="36.54" style="fill:#1D272B;" width="10.25" height="3.06"/>
			
				<linearGradient id="SVGID_10_" gradientUnits="userSpaceOnUse" x1="24" y1="44.66" x2="24" y2="13.12" gradientTransform="matrix(1 0 0 -1 0 50)">
				<stop  offset="0" style="stop-color:#455A64"/>
				<stop  offset="1" style="stop-color:#263238"/>
			</linearGradient>
			<path style="fill:url(#SVGID_10_);" d="M3.5,5.34v31.54h41V5.34H3.5z M41.92,33.34H6.08V7.86h35.84V33.34z"/>
			<path style="fill:#455A64;" d="M35.86,40.88H11.38v0.89c0.056,0.509,0.488,0.893,1,0.89h23.48c0.512,0.003,0.944-0.381,1-0.89
				v-0.89H35.86z"/>
		</g>
	</g>
</g>
</svg>
