<svg xmlns="http://www.w3.org/2000/svg" xmlns:xlink="http://www.w3.org/1999/xlink" viewBox="0 0 48 48"><defs><style>.cls-1{fill:none;}.cls-2{clip-path:url(#clip-path);}.cls-3{opacity:0.4;}.cls-13,.cls-4{opacity:0.7;}.cls-4{fill:url(#linear-gradient);}.cls-5{opacity:0.08;}.cls-6{opacity:0.1;}.cls-17,.cls-7{opacity:0.2;}.cls-8{fill:#455a64;}.cls-9{fill:#263238;}.cls-10{fill:url(#linear-gradient-2);}.cls-11{fill:url(#linear-gradient-3);}.cls-12{clip-path:url(#clip-path-2);}.cls-13{fill:url(#linear-gradient-4);}.cls-14{opacity:0.8;fill:url(#linear-gradient-5);}.cls-15{opacity:0.12;isolation:isolate;fill:url(#linear-gradient-6);}.cls-16{fill:url(#linear-gradient-7);}.cls-17{fill:url(#radial-gradient);}.cls-18{opacity:0.6;fill:url(#linear-gradient-8);}.cls-19{fill:#1d272b;}.cls-20{fill:url(#linear-gradient-9);}</style><clipPath id="clip-path"><rect id="rect3008" class="cls-1" x="-79.34" y="8.09" width="50.64" height="38.18"/></clipPath><linearGradient id="linear-gradient" x1="-44.37" y1="30.67" x2="-14.09" y2="0.39" gradientUnits="userSpaceOnUse"><stop offset="0" stop-color="#00698c"/><stop offset="1" stop-color="#00698c" stop-opacity="0"/></linearGradient><linearGradient id="linear-gradient-2" x1="24.13" y1="43.93" x2="24.13" y2="38.99" gradientUnits="userSpaceOnUse"><stop offset="0" stop-color="#455a64"/><stop offset="1" stop-color="#263238"/></linearGradient><linearGradient id="linear-gradient-3" x1="24" y1="7.09" x2="24" y2="34.11" gradientUnits="userSpaceOnUse"><stop offset="0" stop-color="#b3e5fc"/><stop offset="1" stop-color="#0288d1"/></linearGradient><clipPath id="clip-path-2"><rect id="rect3008-2" data-name="rect3008" class="cls-1" x="6.08" y="7.09" width="35.84" height="27.02"/></clipPath><linearGradient id="linear-gradient-4" x1="30.82" y1="23.07" x2="52.26" y2="1.64" xlink:href="#linear-gradient"/><linearGradient id="linear-gradient-5" x1="21.94" y1="31.95" x2="43.37" y2="10.52" xlink:href="#linear-gradient"/><linearGradient id="linear-gradient-6" x1="-363.04" y1="879.27" x2="-363.04" y2="899.04" gradientTransform="matrix(0.71, 0.71, 0.71, -0.71, -343.5, 907.01)" gradientUnits="userSpaceOnUse"><stop offset="0"/><stop offset="1" stop-opacity="0"/></linearGradient><linearGradient id="linear-gradient-7" x1="-858.14" y1="946.99" x2="-845.25" y2="946.99" gradientTransform="translate(-9.97 -2101.92) rotate(-45) scale(1.72 1.61)" gradientUnits="userSpaceOnUse"><stop offset="0" stop-color="#d7e866"/><stop offset="0.69" stop-color="#a4c33a"/><stop offset="1" stop-color="#7a9525" stop-opacity="0"/></linearGradient><radialGradient id="radial-gradient" cx="-855.27" cy="943.3" r="9.53" gradientTransform="translate(-9.97 -2101.92) rotate(-45) scale(1.72 1.61)" gradientUnits="userSpaceOnUse"><stop offset="0" stop-color="#b0ff04"/><stop offset="0.56" stop-color="#5ac306"/><stop offset="0.74" stop-color="#13a400"/></radialGradient><linearGradient id="linear-gradient-8" x1="21.66" y1="28.43" x2="41.01" y2="9.09" gradientUnits="userSpaceOnUse"><stop offset="0" stop-color="#fff"/><stop offset="1" stop-color="#fff" stop-opacity="0"/></linearGradient><linearGradient id="linear-gradient-9" x1="24" y1="5.34" x2="24" y2="36.88" xlink:href="#linear-gradient-2"/></defs><title>画板 22</title><g id="控制面板"><g id="显示"><g id="_64" data-name="64"><g class="cls-2"><g class="cls-3"><path class="cls-4" d="M-40.08,23.14a2.64,2.64,0,0,1-2.64-2.65V-17.36h-2a2.65,2.65,0,0,0-2.65,2.65V26A2.65,2.65,0,0,0-44.7,28.6H6.06A2.65,2.65,0,0,0,8.7,26V23.14Z"/></g></g></g><g id="_48" data-name="48"><path class="cls-5" d="M13.39,46.16a3.46,3.46,0,0,1-3.52-3.39V40.38H2V3.84H48V40.38H40.38v2.39a3.46,3.46,0,0,1-3.52,3.39Z"/><path class="cls-6" d="M13.39,45.16a2.46,2.46,0,0,1-2.52-2.39V40.92l3.31-1.54H3V4.84H47V39.38H36l3.41,1.52v1.86a2.46,2.46,0,0,1-2.52,2.39Z"/><path class="cls-7" d="M12.39,44.16a2.46,2.46,0,0,1-2.52-2.39V39.92l3.31-1.54H2V3.84H46V38.38H35l3.41,1.52v1.86a2.46,2.46,0,0,1-2.52,2.39Z"/><path class="cls-8" d="M12.39,42.91a1.21,1.21,0,0,1-1.27-1.14V40.72l6.21-2.89h1.29v-.69H3.25v-32h41.5v32H29.38v.69h1.29l6.46,2.89v1.05a1.21,1.21,0,0,1-1.27,1.14Z"/><path class="cls-9" d="M44.5,5.34V36.88H29.13v1.19h1.49l6.26,2.8v.89a1,1,0,0,1-1,.89H12.39a1,1,0,0,1-1-.89v-.89l6-2.8h1.48V36.88H3.5V5.34h41m.5-.5H3V37.38H18.38v.19H17.28l-.1,0-6,2.8-.29.13v1.21a1.46,1.46,0,0,0,1.52,1.39H35.86a1.46,1.46,0,0,0,1.52-1.39V40.55l-.3-.13-6.26-2.8-.1,0h-1.1v-.19H45V4.84Z"/><polygon class="cls-10" points="11.38 40.88 17.39 38.07 30.62 38.07 36.88 40.88 11.38 40.88"/><g id="rect3008-3" data-name="rect3008"><rect class="cls-11" x="6.08" y="7.09" width="35.84" height="27.02"/></g><g class="cls-12"><g class="cls-3"><path class="cls-13" d="M33.86,17.74A1.87,1.87,0,0,1,32,15.87V-10.92H30.6A1.87,1.87,0,0,0,28.72-9V19.73a1.87,1.87,0,0,0,1.87,1.87H66.51a1.87,1.87,0,0,0,1.87-1.87v-2Z"/><path class="cls-14" d="M25,26.63a1.87,1.87,0,0,1-1.87-1.87V-2H21.71A1.87,1.87,0,0,0,19.84-.16V28.62a1.87,1.87,0,0,0,1.87,1.87H57.63a1.87,1.87,0,0,0,1.87-1.87v-2Z"/></g></g><g id="layer4"><path id="path4238" class="cls-15" d="M24.62,18.63l-3.06-3.06a.26.26,0,0,0-.45.18l0,12.95a.26.26,0,0,0,.26.26h0l13,0a.26.26,0,0,0,.26-.26.25.25,0,0,0-.08-.18l-3.06-3.06L41.11,8.81Z"/><path id="path3288-2" class="cls-16" d="M34.55,28.52l-13,0,0-13,3.24,3.24,16.31-10L31.31,25.28Z"/><path id="path3288-2-2" data-name="path3288-2" class="cls-17" d="M34.55,28.52l-13,0,0-13,3.24,3.24,16.31-10L31.31,25.28Z"/><path id="path4200" class="cls-18" d="M40.95,9,24.62,19.4l.22.22L40.73,9.24l-10.25,16,.22.22ZM21.87,16.24l0,12,12,0L30.7,25.07l-.22.22,2.62,2.61-10.92,0,0-10.88,2.61,2.61L25,19.4Z"/></g><rect class="cls-19" x="18.88" y="36.54" width="10.25" height="3.06"/><path class="cls-20" d="M3.5,5.34V36.88h41V5.34Zm38.42,28H6.08V7.86H41.92Z"/><path class="cls-8" d="M35.86,40.88H11.38v.89a1,1,0,0,0,1,.89H35.86a1,1,0,0,0,1-.89v-.89Z"/></g></g></g></svg>