<?xml version="1.0" encoding="utf-8"?>
<!-- Generator: Adobe Illustrator 21.0.0, SVG Export Plug-In . SVG Version: 6.00 Build 0)  -->
<svg version="1.1"
	 id="svg2" inkscape:version="0.48.4 r9939" sodipodi:docname="computer.svg" xmlns:cc="http://creativecommons.org/ns#" xmlns:dc="http://purl.org/dc/elements/1.1/" xmlns:inkscape="http://www.inkscape.org/namespaces/inkscape" xmlns:rdf="http://www.w3.org/1999/02/22-rdf-syntax-ns#" xmlns:sodipodi="http://sodipodi.sourceforge.net/DTD/sodipodi-0.dtd" xmlns:svg="http://www.w3.org/2000/svg"
	 xmlns="http://www.w3.org/2000/svg" xmlns:xlink="http://www.w3.org/1999/xlink" x="0px" y="0px" viewBox="0 0 48 48"
	 style="enable-background:new 0 0 48 48;" xml:space="preserve">
<style type="text/css">
	.st0{opacity:0.2;enable-background:new    ;}
	.st1{opacity:0.08;enable-background:new    ;}
	.st2{opacity:0.1;enable-background:new    ;}
	.st3{fill:#01579B;}
	.st4{fill:#0288D1;}
	.st5{fill:url(#SVGID_1_);}
	.st6{opacity:0.7;enable-background:new    ;}
	.st7{fill:#FFFFFF;}
	.st8{fill:#F5F5F5;}
</style>
<g>
	<path class="st0" d="M24,46C11.9,46,2,36.1,2,24S11.9,2,24,2s22,9.9,22,22S36.1,46,24,46z M24,22.8c-0.7,0-1.2,0.6-1.2,1.2
		s0.6,1.2,1.2,1.2s1.2-0.6,1.2-1.2S24.7,22.8,24,22.8z"/>
	<path class="st1" d="M25,48C12.3,48,2,37.7,2,25S12.3,2,25,2s23,10.3,23,23S37.7,48,25,48z M25,24.8c-0.1,0-0.2,0.1-0.2,0.2
		s0.1,0.2,0.2,0.2s0.2-0.1,0.2-0.2S25.1,24.8,25,24.8z"/>
	<path class="st2" d="M25,47C12.9,47,3,37.1,3,25S12.9,3,25,3s22,9.9,22,22S37.1,47,25,47z M25,23.8c-0.7,0-1.2,0.6-1.2,1.2
		s0.6,1.2,1.2,1.2s1.2-0.6,1.2-1.2S25.7,23.8,25,23.8z"/>
	<path class="st3" d="M24,45C12.4,45,3,35.6,3,24S12.4,3,24,3s21,9.4,21,21S35.6,45,24,45z M24,21.8c-1.2,0-2.2,1-2.2,2.2
		s1,2.2,2.2,2.2s2.2-1,2.2-2.2S25.2,21.8,24,21.8z"/>
	<path class="st4" d="M24,3.5C12.7,3.5,3.5,12.7,3.5,24S12.7,44.5,24,44.5S44.5,35.3,44.5,24S35.3,3.5,24,3.5z M24,43.9
		C13,43.9,4.1,35,4.1,24S13,4.1,24,4.1S43.9,13,43.9,24S35,43.9,24,43.9z"/>
	
		<radialGradient id="SVGID_1_" cx="23.6315" cy="799.2112" r="17.8648" gradientTransform="matrix(0.9556 0 0 0.9556 1.4177 -739.7262)" gradientUnits="userSpaceOnUse">
		<stop  offset="0" style="stop-color:#4DD0E1"/>
		<stop  offset="0.3925" style="stop-color:#40BEE7"/>
		<stop  offset="0.6129" style="stop-color:#3FBDE7"/>
		<stop  offset="0.6613" style="stop-color:#44C4E8"/>
		<stop  offset="0.7527" style="stop-color:#2CBEE8"/>
		<stop  offset="1" style="stop-color:#2196F3"/>
	</radialGradient>
	<path class="st5" d="M24,6.9C14.6,6.9,6.9,14.6,6.9,24S14.6,41.1,24,41.1S41.1,33.4,41.1,24S33.4,6.9,24,6.9z M24,30
		c-3.3,0-6-2.7-6-6s2.7-6,6-6s6,2.7,6,6S27.3,30,24,30z"/>
	<g class="st6">
		<path class="st7" d="M30,24.4l10.5,0.7h0.6c0.1-2.4-0.2-4.9-1.1-7.1l-10.4,4C29.9,22.7,30,23.5,30,24.4z"/>
		<path class="st7" d="M18,23.6L7.5,22.9H6.9C6.8,25.3,7.1,27.8,8,30l10.4-4C18.1,25.3,18,24.5,18,23.6z"/>
	</g>
	<g class="st6">
		<path class="st7" d="M29.2,21l9.1-5.3l0.5-0.4c-1.2-2.1-2.9-3.9-4.9-5.3l-6.4,9.1C28.1,19.6,28.7,20.2,29.2,21z"/>
		<path class="st7" d="M18.8,27l-9.1,5.3l-0.5,0.4c1.2,2.1,2.9,3.9,4.9,5.3l6.4-9.1C19.9,28.4,19.3,27.8,18.8,27z"/>
	</g>
	<path class="st8" d="M24,4.1C13,4.1,4.1,13,4.1,24S13,43.9,24,43.9S43.9,35,43.9,24S35,4.1,24,4.1z M24,41.1
		c-9.4,0-17.1-7.7-17.1-17.1S14.6,6.9,24,6.9S41.1,14.6,41.1,24S33.4,41.1,24,41.1z"/>
	<path class="st4" d="M24,18c-3.3,0-6,2.7-6,6s2.7,6,6,6s6-2.7,6-6S27.3,18,24,18z M24,29.4c-3,0-5.4-2.4-5.4-5.4s2.4-5.4,5.4-5.4
		s5.4,2.4,5.4,5.4S27,29.4,24,29.4z"/>
	<path class="st8" d="M24,18.6c-3,0-5.4,2.4-5.4,5.4s2.4,5.4,5.4,5.4s5.4-2.4,5.4-5.4S27,18.6,24,18.6z M24,26.7
		c-1.5,0-2.7-1.2-2.7-2.7s1.2-2.7,2.7-2.7s2.7,1.2,2.7,2.7S25.5,26.7,24,26.7z"/>
</g>
</svg>
