<svg id="其他" xmlns="http://www.w3.org/2000/svg" xmlns:xlink="http://www.w3.org/1999/xlink" viewBox="0 0 48 48"><defs><style>.cls-1{opacity:0.2;}.cls-2{opacity:0.1;}.cls-3{opacity:0.08;}.cls-4{fill:#1b5e20;}.cls-5{fill:url(#linear-gradient);}.cls-10,.cls-6{fill:#fff;}.cls-6{opacity:0.24;}.cls-10,.cls-11,.cls-6,.cls-7,.cls-8{isolation:isolate;}.cls-7{fill:#33691e;}.cls-8{fill:#dcedc8;}.cls-9{fill:#657b83;}.cls-10{opacity:0.31;}.cls-11{fill:#073642;opacity:0.65;}</style><linearGradient id="linear-gradient" x1="14.43" y1="35.49" x2="33.21" y2="3.27" gradientUnits="userSpaceOnUse"><stop offset="0.24" stop-color="#689f38"/><stop offset="0.94" stop-color="#8bc34a"/></linearGradient></defs><title>画板 22</title><g id="U盘"><g id="_48" data-name="48"><polygon class="cls-1" points="14.99 46.75 14.99 36.9 11.75 36.9 11.75 1.25 36.25 1.25 36.25 36.9 33.01 36.9 33.01 46.75 14.99 46.75"/><polygon class="cls-2" points="15.99 47.75 15.99 37.9 12.75 37.9 12.75 2.25 37.25 2.25 37.25 37.9 34.01 37.9 34.01 47.75 15.99 47.75"/><polygon class="cls-3" points="14.99 48.75 14.99 38.9 11.75 38.9 11.75 1.25 38.25 1.25 38.25 38.9 35.01 38.9 35.01 48.75 14.99 48.75"/><polygon class="cls-4" points="34.75 2.25 13.25 2.25 12.75 2.25 12.75 2.75 12.75 35.4 12.75 35.9 13.25 35.9 15.99 35.9 15.99 45.25 15.99 45.75 16.49 45.75 31.51 45.75 32.01 45.75 32.01 45.25 32.01 35.9 34.75 35.9 35.25 35.9 35.25 35.4 35.25 2.75 35.25 2.25 34.75 2.25"/><rect class="cls-5" x="13" y="2.5" width="22" height="33.15"/><path class="cls-4" d="M34.75,2.75V35.4H13.25V2.75h21.5m.5-.5H12.75V35.9h22.5V2.25Z"/><rect class="cls-6" x="15.41" y="2.75" width="6.37" height="32.65"/><path id="path1334" class="cls-7" d="M18.25,17.61a1.69,1.69,0,0,0,1.15,1.53v1.7a2.32,2.32,0,0,0,.78,1.59v0h0l0,0,0,0h0l0,0h0l3.21,2.6a1,1,0,0,1,.27.61v1.48a2.14,2.14,0,0,0-1.65,2,2.27,2.27,0,0,0,2.43,2.07A2.27,2.27,0,0,0,27,29.19a2.14,2.14,0,0,0-1.65-2V25.74a.05.05,0,0,0,0,0V23.16a1,1,0,0,1,.27-.59l1.6-1.29,1.12-.9.36-.3.11-.08,0,0v0l0,0h0l0,0,0,0h0v0a2.31,2.31,0,0,0,.77-1.58V16.71h1.08V13.4H27v3.31h1.09V18.3a1,1,0,0,1-.27.59l-2.54,2.06V11.78H27L24.5,7.9,22,11.78h1.75V23.51l-2.54-2a1,1,0,0,1-.27-.61V19.14a1.69,1.69,0,0,0,1.18-1.53,1.83,1.83,0,0,0-1.94-1.68A1.82,1.82,0,0,0,18.25,17.61Z"/><path id="path1334-2" data-name="path1334" class="cls-8" d="M17.75,17.27a1.69,1.69,0,0,0,1.15,1.53v1.7a2.32,2.32,0,0,0,.78,1.59v0h0l0,0,0,0h0l0,0h0L23,24.79a1,1,0,0,1,.27.61v1.48a2.14,2.14,0,0,0-1.65,2A2.27,2.27,0,0,0,24,30.91a2.27,2.27,0,0,0,2.43-2.06,2.14,2.14,0,0,0-1.65-2V25.4s0,0,0,0V22.82a1,1,0,0,1,.27-.59l1.6-1.29,1.12-.9.36-.3.11-.08,0,0v0l0,0h0l0,0,0,0h0v0a2.31,2.31,0,0,0,.77-1.58V16.37h1.08V13.06H26.53v3.31h1.09V18a1,1,0,0,1-.27.59L24.81,20.6V11.44h1.68L24,7.55l-2.49,3.88h1.75V23.16l-2.54-2a1,1,0,0,1-.27-.61V18.8a1.69,1.69,0,0,0,1.18-1.53,1.83,1.83,0,0,0-1.94-1.68A1.82,1.82,0,0,0,17.75,17.27Z"/><g id="rect3763"><rect class="cls-9" x="16.24" y="35.65" width="15.52" height="9.85"/><path class="cls-4" d="M31.51,35.9v9.35h-15V35.9h15m.5-.5H16V45.75H32V35.4Z"/></g><rect id="rect3765" class="cls-10" x="18.37" y="35.9" width="5.63" height="9.35"/><rect id="rect3767" class="cls-11" x="25.88" y="39.64" width="3.75" height="3.74"/><rect id="rect3769" class="cls-11" x="18.37" y="39.64" width="3.75" height="3.74"/></g></g></svg>