<?xml version="1.0" encoding="iso-8859-1"?>
<!-- Generator: Adobe Illustrator 21.0.0, SVG Export Plug-In . SVG Version: 6.00 Build 0)  -->
<svg version="1.1" id="&#x5176;&#x4ED6;" xmlns="http://www.w3.org/2000/svg" xmlns:xlink="http://www.w3.org/1999/xlink" x="0px"
	 y="0px" viewBox="0 0 48 48" style="enable-background:new 0 0 48 48;" xml:space="preserve">
<title>画板 22</title>
<g id="U&#x76D8;">
	<g id="_48">
		<polygon style="opacity:0.2;enable-background:new    ;" points="14.99,46.75 14.99,36.9 11.75,36.9 11.75,1.25 36.25,1.25 
			36.25,36.9 33.01,36.9 33.01,46.75 		"/>
		<polygon style="opacity:0.1;enable-background:new    ;" points="15.99,47.75 15.99,37.9 12.75,37.9 12.75,2.25 37.25,2.25 
			37.25,37.9 34.01,37.9 34.01,47.75 		"/>
		<polygon style="opacity:0.08;enable-background:new    ;" points="14.99,48.75 14.99,38.9 11.75,38.9 11.75,1.25 38.25,1.25 
			38.25,38.9 35.01,38.9 35.01,48.75 		"/>
		<polygon style="fill:#1B5E20;" points="34.75,2.25 13.25,2.25 12.75,2.25 12.75,2.75 12.75,35.4 12.75,35.9 13.25,35.9 
			15.99,35.9 15.99,45.25 15.99,45.75 16.49,45.75 31.51,45.75 32.01,45.75 32.01,45.25 32.01,35.9 34.75,35.9 35.25,35.9 
			35.25,35.4 35.25,2.75 35.25,2.25 		"/>
		
			<linearGradient id="SVGID_1_" gradientUnits="userSpaceOnUse" x1="14.4317" y1="14.509" x2="33.2117" y2="46.729" gradientTransform="matrix(1 0 0 -1 0 50)">
			<stop  offset="0.24" style="stop-color:#689F38"/>
			<stop  offset="0.94" style="stop-color:#8BC34A"/>
		</linearGradient>
		<rect x="13" y="2.5" style="fill:url(#SVGID_1_);" width="22" height="33.15"/>
		<path style="fill:#1B5E20;" d="M34.75,2.75V35.4h-21.5V2.75H34.75 M35.25,2.25h-22.5V35.9h22.5V2.25z"/>
		<rect x="15.41" y="2.75" style="opacity:0.24;fill:#FFFFFF;enable-background:new    ;" width="6.37" height="32.65"/>
		<path id="path1334" style="fill:#33691E;" d="M18.25,17.61c0.03,0.699,0.487,1.307,1.15,1.53v1.7c0.04,0.612,0.32,1.184,0.78,1.59
			l0,0l0,0l0,0l0,0l0,0l0,0l0,0l3.21,2.6c0.157,0.166,0.252,0.382,0.27,0.61v1.48c-0.937,0.22-1.612,1.038-1.65,2
			c0.106,1.239,1.19,2.162,2.43,2.07c1.242,0.168,2.386-0.703,2.553-1.946c0.002-0.018,0.005-0.036,0.007-0.054
			c-0.038-0.962-0.713-1.78-1.65-2v-1.45l0,0v-2.58c0.022-0.221,0.117-0.429,0.27-0.59l1.6-1.29l1.12-0.9l0.36-0.3L28.81,20l0,0l0,0
			l0,0l0,0l0,0l0,0l0,0l0,0c0.455-0.405,0.732-0.972,0.77-1.58v-1.71h1.08V13.4H27v3.31h1.09v1.59
			c-0.022,0.221-0.117,0.429-0.27,0.59l-2.54,2.06v-9.17H27L24.5,7.9L22,11.78h1.75v11.73l-2.54-2
			c-0.157-0.166-0.252-0.382-0.27-0.61v-1.76c0.675-0.213,1.146-0.823,1.18-1.53c-0.08-0.996-0.943-1.743-1.94-1.68
			C19.185,15.867,18.325,16.616,18.25,17.61z"/>
		<path id="path1334-2" style="fill:#DCEDC8;" d="M17.75,17.27c0.03,0.699,0.487,1.307,1.15,1.53v1.7
			c0.04,0.612,0.32,1.184,0.78,1.59l0,0l0,0l0,0l0,0l0,0l0,0l0,0l3.32,2.7c0.157,0.166,0.252,0.382,0.27,0.61v1.48
			c-0.937,0.22-1.612,1.038-1.65,2c0.126,1.203,1.173,2.095,2.38,2.03c1.237,0.092,2.319-0.825,2.43-2.06
			c-0.038-0.962-0.713-1.78-1.65-2V25.4l0,0v-2.58c0.022-0.221,0.117-0.429,0.27-0.59l1.6-1.29l1.12-0.9l0.36-0.3l0.11-0.08l0,0l0,0
			l0,0l0,0l0,0l0,0l0,0l0,0c0.455-0.405,0.732-0.972,0.77-1.58v-1.71h1.08v-3.31h-3.56v3.31h1.09V18
			c-0.022,0.221-0.117,0.429-0.27,0.59l-2.54,2.01v-9.16h1.68L24,7.55l-2.49,3.88h1.75v11.73l-2.54-2
			c-0.157-0.166-0.252-0.382-0.27-0.61V18.8c0.675-0.213,1.146-0.823,1.18-1.53c-0.08-0.996-0.943-1.743-1.94-1.68
			C18.691,15.521,17.825,16.272,17.75,17.27z"/>
		<g id="rect3763">
			<rect x="16.24" y="35.65" style="fill:#657B83;" width="15.52" height="9.85"/>
			<path style="fill:#1B5E20;" d="M31.51,35.9v9.35h-15V35.9H31.51 M32.01,35.4H16v10.35h16V35.4H32.01z"/>
		</g>
		
			<rect id="rect3765" x="18.37" y="35.9" style="opacity:0.31;fill:#FFFFFF;enable-background:new    ;" width="5.63" height="9.35"/>
		
			<rect id="rect3767" x="25.88" y="39.64" style="opacity:0.65;fill:#073642;enable-background:new    ;" width="3.75" height="3.74"/>
		
			<rect id="rect3769" x="18.37" y="39.64" style="opacity:0.65;fill:#073642;enable-background:new    ;" width="3.75" height="3.74"/>
	</g>
</g>
</svg>
