<svg id="其他" xmlns="http://www.w3.org/2000/svg" xmlns:xlink="http://www.w3.org/1999/xlink" viewBox="0 0 48 48"><defs><style>.cls-1{opacity:0.2;}.cls-2{opacity:0.08;}.cls-3{opacity:0.1;}.cls-4{fill:#01579b;}.cls-5{fill:#0288d1;}.cls-6{fill:url(#radial-gradient);}.cls-7{opacity:0.7;}.cls-7,.cls-9{isolation:isolate;}.cls-8{fill:#fff;}.cls-9{fill:#f5f5f5;}</style><radialGradient id="radial-gradient" cx="29.25" cy="24.04" r="17.88" gradientTransform="translate(-3.96 1.03) scale(0.96)" gradientUnits="userSpaceOnUse"><stop offset="0" stop-color="#4dd0e1"/><stop offset="0.39" stop-color="#40bee7"/><stop offset="0.61" stop-color="#3fbde7"/><stop offset="0.66" stop-color="#44c4e8"/><stop offset="0.75" stop-color="#2cbee8"/><stop offset="1" stop-color="#2196f3"/></radialGradient></defs><title>画板 22</title><g id="光盘"><path class="cls-1" d="M24,46A22,22,0,1,1,46,24,22,22,0,0,1,24,46Zm0-23.24A1.24,1.24,0,1,0,25.24,24,1.24,1.24,0,0,0,24,22.76Z"/><path class="cls-2" d="M25,48A23,23,0,1,1,48,25,23,23,0,0,1,25,48Zm0-23.24a.24.24,0,1,0,.24.24A.24.24,0,0,0,25,24.76Z"/><path class="cls-3" d="M25,47A22,22,0,1,1,47,25,22,22,0,0,1,25,47Zm0-23.24A1.24,1.24,0,1,0,26.24,25,1.24,1.24,0,0,0,25,23.76Z"/><path class="cls-4" d="M24,45A21,21,0,1,1,45,24,21,21,0,0,1,24,45Zm0-23.24A2.24,2.24,0,1,0,26.24,24,2.24,2.24,0,0,0,24,21.76Z"/><path class="cls-5" d="M24,3.5A20.5,20.5,0,1,0,44.5,24,20.5,20.5,0,0,0,24,3.5Zm0,40.4A19.9,19.9,0,1,1,43.9,24,19.93,19.93,0,0,1,24,43.9Z"/><path class="cls-6" d="M24,6.92A17.08,17.08,0,1,0,41.08,24,17.1,17.1,0,0,0,24,6.92ZM24,30a6,6,0,1,1,6-6A6,6,0,0,1,24,30Z"/><g class="cls-7"><path class="cls-8" d="M30,24.39l10.49.69.6,0A17.16,17.16,0,0,0,40,17.92l-10.37,4A6,6,0,0,1,30,24.39Z"/><path class="cls-8" d="M18,23.61,7.55,22.91l-.6,0A17.16,17.16,0,0,0,8,30.08l10.37-4A6,6,0,0,1,18,23.61Z"/></g><g class="cls-7"><path class="cls-8" d="M29.17,21l9.08-5.29.49-.35A17.17,17.17,0,0,0,33.83,10l-6.39,9.08A6,6,0,0,1,29.17,21Z"/><path class="cls-8" d="M18.84,27,9.76,32.3l-.49.35A17.17,17.17,0,0,0,14.17,38l6.39-9.08A6,6,0,0,1,18.84,27Z"/></g><path class="cls-9" d="M24,4.1A19.9,19.9,0,1,0,43.9,24,19.93,19.93,0,0,0,24,4.1Zm0,37A17.08,17.08,0,1,1,41.08,24,17.1,17.1,0,0,1,24,41.08Z"/><path class="cls-5" d="M24,18a6,6,0,1,0,6,6A6,6,0,0,0,24,18Zm0,11.34A5.36,5.36,0,1,1,29.36,24,5.37,5.37,0,0,1,24,29.36Z"/><path class="cls-9" d="M24,18.64A5.36,5.36,0,1,0,29.36,24,5.37,5.37,0,0,0,24,18.64Zm0,8.1A2.74,2.74,0,1,1,26.74,24,2.74,2.74,0,0,1,24,26.74Z"/></g></svg>