<svg id="其他" xmlns="http://www.w3.org/2000/svg" xmlns:xlink="http://www.w3.org/1999/xlink" viewBox="0 0 48 48"><defs><style>.cls-1,.cls-2,.cls-3,.cls-4,.cls-5{fill-rule:evenodd;}.cls-1{opacity:0.2;}.cls-2{opacity:0.08;}.cls-3{opacity:0.1;}.cls-5{fill:url(#新建渐变色板_1);}.cls-6{fill:#616161;}.cls-7{fill:#b71c1c;}.cls-8{fill:url(#linear-gradient);}.cls-9{font-size:12.7px;font-family:Arial-BoldMT, Arial;font-weight:700;}.cls-10,.cls-12,.cls-9{fill:#fff;}.cls-10{font-size:3.61px;font-family:ArialMT, Arial;}.cls-11{fill:#212121;}.cls-12{font-size:3.75px;font-family:Arial-Black, Arial;}.cls-13{fill:#131313;fill-opacity:0.2;}</style><linearGradient id="新建渐变色板_1" x1="24" y1="3.5" x2="24" y2="79.49" gradientUnits="userSpaceOnUse"><stop offset="0" stop-color="#211d1e"/><stop offset="0.55" stop-color="#58595b"/><stop offset="1" stop-color="#abb6be"/></linearGradient><linearGradient id="linear-gradient" x1="24" y1="7.23" x2="24" y2="44.81" gradientUnits="userSpaceOnUse"><stop offset="0" stop-color="#f44336"/><stop offset="1" stop-color="#d32f2f"/></linearGradient></defs><title>画板 22</title><g id="sd"><path class="cls-1" d="M6.79,46a3,3,0,0,1-3-3V27.82H5V15.61H3.75V5a3,3,0,0,1,3-3h33l4.43,4.35V16.74H43.1v3.92h1.15V43a3,3,0,0,1-3,3Z"/><path class="cls-2" d="M7.79,48a4,4,0,0,1-4-4V27.82H5V17.61H3.75V6a4,4,0,0,1,4-4H41.23l5,4.94V18.74H45.1v1.92h1.15V44a4,4,0,0,1-4,4Z"/><path class="cls-3" d="M7.79,47a3,3,0,0,1-3-3V28.82H6V16.61H4.75V6a3,3,0,0,1,3-3h33l4.43,4.35V17.74H44.1v3.92h1.15V44a3,3,0,0,1-3,3Z"/><path class="cls-4" d="M6.79,45a2,2,0,0,1-2-2V28.82H6V14.61H4.75V5a2,2,0,0,1,2-2H39.41l3.84,3.77v9H42.1v5.92h1.15V43a2,2,0,0,1-2,2Z"/><path class="cls-5" d="M41.6,22.16V15.24h1.15V7L39.21,3.5H6.79A1.54,1.54,0,0,0,5.25,5v9.07H6.46V29.32H5.25V43A1.54,1.54,0,0,0,6.79,44.5H41.21A1.5,1.5,0,0,0,42.75,43V22.16Z"/><path class="cls-6" d="M38.66,4.84l2.75,2.7V13.9H40.26v9.6h1.15V43c0,.14-.2.14-.2.14H6.79a.2.2,0,0,1-.2-.2V30.67H7.8V12.76H6.59V5a.19.19,0,0,1,.2-.19H38.66m.11-.27h-32A.46.46,0,0,0,6.32,5v8H7.53V30.4H6.32V43a.47.47,0,0,0,.47.47H41.21a.44.44,0,0,0,.47-.41V23.23H40.53V14.17h1.15V7.43L38.77,4.57Z"/><rect class="cls-7" x="9.86" y="7.68" width="28.28" height="33.88"/><rect class="cls-8" x="10.22" y="8.03" width="27.56" height="33.16"/><text class="cls-9" transform="translate(18.64 38.01)">SD</text><text class="cls-10" transform="translate(25.44 27.62)">MMC</text><rect class="cls-11" x="18.6" y="8.03" width="10.81" height="10.11"/><text class="cls-12" transform="translate(19.72 17.02) scale(1.05 1)">32G</text><path class="cls-13" d="M10.22,8H37.78v5.06H10.22Z"/></g></svg>