<svg id="其他" xmlns="http://www.w3.org/2000/svg" xmlns:xlink="http://www.w3.org/1999/xlink" viewBox="0 0 48 48"><defs><style>.cls-1,.cls-2,.cls-3,.cls-4,.cls-5{fill-rule:evenodd;}.cls-1{opacity:0.2;}.cls-2{opacity:0.08;}.cls-3{opacity:0.1;}.cls-5{fill:url(#新建渐变色板_1);}.cls-6{fill:#616161;}.cls-7{fill:#f9ce1d;stroke:#212121;stroke-width:1.13px;}.cls-8{fill:url(#linear-gradient);}.cls-9{fill:#212121;}.cls-10{fill:url(#linear-gradient-2);}.cls-11{stroke:#c39f00;fill:url(#linear-gradient-3);}.cls-11,.cls-12{stroke-width:0.38px;}.cls-12{fill:none;stroke:#fff;stroke-opacity:0.45;}.cls-13{fill:#fff;fill-opacity:0.45;}.cls-14{fill:url(#radial-gradient);}.cls-15{fill:#0f0f0f;}.cls-16{fill:#ff8a65;}</style><linearGradient id="新建渐变色板_1" x1="24" y1="3.5" x2="24" y2="79.49" gradientUnits="userSpaceOnUse"><stop offset="0" stop-color="#211d1e"/><stop offset="0.55" stop-color="#58595b"/><stop offset="1" stop-color="#abb6be"/></linearGradient><linearGradient id="linear-gradient" x1="23.94" y1="44.16" x2="23.94" y2="34.53" gradientUnits="userSpaceOnUse"><stop offset="0" stop-color="#616161"/><stop offset="0.19" stop-color="#fff"/></linearGradient><linearGradient id="linear-gradient-2" x1="10.54" y1="36.3" x2="37.35" y2="36.3" gradientUnits="userSpaceOnUse"><stop offset="0" stop-color="#f57c00"/><stop offset="1" stop-color="#ff5722"/></linearGradient><linearGradient id="linear-gradient-3" x1="-2877.83" y1="2667.24" x2="-2880.57" y2="2672.55" gradientTransform="matrix(2.67, 0, 0, -2.67, 7702.63, 7137.45)" gradientUnits="userSpaceOnUse"><stop offset="0" stop-color="#f9ce1d"/><stop offset="0.5" stop-color="#f5a816"/><stop offset="1" stop-color="#f9ce1d"/></linearGradient><radialGradient id="radial-gradient" cx="35.94" cy="32.47" r="5.18" gradientUnits="userSpaceOnUse"><stop offset="0" stop-color="#9e9e9e"/><stop offset="1" stop-color="#212121"/></radialGradient></defs><title>画板 22</title><g id="sm"><path class="cls-1" d="M7.64,46a3,3,0,0,1-3-3V5a3,3,0,0,1,3-3H39L43.4,6.35V43a3,3,0,0,1-3,3Z"/><path class="cls-2" d="M8.64,48a4,4,0,0,1-4-4V6a4,4,0,0,1,4-4H40.38l5,4.94V44a4,4,0,0,1-4,4Z"/><path class="cls-3" d="M8.64,47a3,3,0,0,1-3-3V6a3,3,0,0,1,3-3H40L44.4,7.35V44a3,3,0,0,1-3,3Z"/><path class="cls-4" d="M7.64,45a2,2,0,0,1-2-2V5a2,2,0,0,1,2-2H38.57L42.4,6.77V43a2,2,0,0,1-2,2Z"/><path class="cls-5" d="M41.9,7,38.36,3.5H7.64A1.54,1.54,0,0,0,6.1,5V43A1.54,1.54,0,0,0,7.64,44.5H40.36A1.5,1.5,0,0,0,41.9,43Z"/><path class="cls-6" d="M37.81,4.84l2.75,2.7V43c0,.12-.15.14-.2.14H7.64a.2.2,0,0,1-.2-.2V5a.2.2,0,0,1,.2-.19H37.81m.11-.27H7.64A.46.46,0,0,0,7.17,5V43a.47.47,0,0,0,.47.46H40.36a.44.44,0,0,0,.47-.41V7.43L37.92,4.58Z"/><path class="cls-7" d="M11.77,7.68H36.12A1.91,1.91,0,0,1,38,9.59v13.3a1.91,1.91,0,0,1-1.91,1.91H11.77a1.91,1.91,0,0,1-1.91-1.91V9.59A1.91,1.91,0,0,1,11.77,7.68Z"/><path class="cls-8" d="M10.2,44.16V36.1a1.57,1.57,0,0,1,1.57-1.57H36.12a1.57,1.57,0,0,1,1.57,1.57v8.06Z"/><path class="cls-9" d="M36.12,34.87a1.23,1.23,0,0,1,1.23,1.23v7.72H10.54V36.1a1.23,1.23,0,0,1,1.23-1.23H36.12m0-.68H11.77A1.91,1.91,0,0,0,9.86,36.1v8.4H38V36.1a1.91,1.91,0,0,0-1.91-1.91Z"/><path class="cls-10" d="M10.54,37.72V36.1a1.23,1.23,0,0,1,1.23-1.23H36.12a1.23,1.23,0,0,1,1.23,1.23v1.62Z"/><path class="cls-11" d="M11.77,7.68H36.12A1.91,1.91,0,0,1,38,9.59v13.3a1.91,1.91,0,0,1-1.91,1.91H11.77a1.91,1.91,0,0,1-1.91-1.91V9.59A1.91,1.91,0,0,1,11.77,7.68Z"/><path class="cls-12" d="M12.07,8.68H35.93a1.14,1.14,0,0,1,1.15,1.15L37,22.63a1.16,1.16,0,0,1-1.16,1.15H12a1.15,1.15,0,0,1-1.15-1.15l.07-12.79A1.16,1.16,0,0,1,12.07,8.68Z"/><path class="cls-13" d="M12.38,8.18v6c7.25-2.88,15.16,4,23.16,2v-8h1v16h-1v-6c-8.72,2-15.66-5.08-23.16-2v8.05h-1V8.18h1Z"/><path class="cls-13" d="M13.38,8.18v4.77l1-.24V8.18Z"/><path class="cls-13" d="M15.4,12.71V8.18h1v4.44Z"/><path class="cls-13" d="M17.41,12.62V8.18h1v4.59Z"/><path class="cls-13" d="M19.42,13V8.18h1v5Z"/><path class="cls-13" d="M21.44,13.37V8.18h1v5.37Z"/><path class="cls-13" d="M23.45,13.91V8.18h1V14Z"/><path class="cls-13" d="M25.46,14.44V8.18h1v6.44Z"/><path class="cls-13" d="M27.48,14.84V8.18h1V15Z"/><path class="cls-13" d="M29.49,15.33V8.18h1v7.24Z"/><path class="cls-13" d="M31.5,15.51V8.18h1v7.33Z"/><path class="cls-13" d="M33.52,15.51V8.18h1v7.19Z"/><path class="cls-13" d="M13.38,24.24V16.76l1-.11v7.6Z"/><path class="cls-13" d="M15.4,16.6v7.64h1V16.47Z"/><path class="cls-13" d="M17.41,16.47v7.77h1V16.58Z"/><path class="cls-13" d="M19.42,16.89v7.35h1V17.12Z"/><path class="cls-13" d="M21.44,17.36v6.88h1V17.62Z"/><path class="cls-13" d="M23.45,18v6.26h1v-5.9Z"/><path class="cls-13" d="M25.46,18.51v5.73h1V18.78Z"/><path class="cls-13" d="M27.48,19v5.28h1v-5.1Z"/><path class="cls-13" d="M29.49,19.31v4.93h1V19.36l-1,0Z"/><path class="cls-13" d="M31.5,19.54v4.7h1V19.4Z"/><path class="cls-13" d="M33.52,19.49v4.75h1V19.31Z"/><circle class="cls-14" cx="36.03" cy="29.68" r="2.71"/><circle class="cls-15" cx="36.03" cy="29.68" r="1.86"/><rect class="cls-16" x="12.48" y="35.94" width="8.96" height="1.78"/><rect class="cls-16" x="23.81" y="35.94" width="4.32" height="1.78"/></g></svg>