<svg id="其他" xmlns="http://www.w3.org/2000/svg" xmlns:xlink="http://www.w3.org/1999/xlink" viewBox="0 0 48 48"><defs><style>.cls-1{fill:none;}.cls-2{opacity:0.2;}.cls-3{opacity:0.08;}.cls-4{opacity:0.1;}.cls-5{fill:#01579b;}.cls-6{fill:#0288d1;}.cls-7{fill:url(#radial-gradient);}.cls-8{opacity:0.7;}.cls-10,.cls-8{isolation:isolate;}.cls-9{fill:#fff;}.cls-10{fill:#f5f5f5;}.cls-11{stroke:#263238;stroke-miterlimit:10;stroke-width:0.5px;fill:url(#radial-gradient-2);}.cls-12{clip-path:url(#clip-path);}.cls-13{fill:url(#radial-gradient-3);}.cls-14{fill:url(#radial-gradient-4);}</style><radialGradient id="radial-gradient" cx="29.25" cy="24.17" r="17.88" gradientTransform="translate(-3.96 1.03) scale(0.96)" gradientUnits="userSpaceOnUse"><stop offset="0" stop-color="#4dd0e1"/><stop offset="0.39" stop-color="#40bee7"/><stop offset="0.61" stop-color="#3fbde7"/><stop offset="0.66" stop-color="#44c4e8"/><stop offset="0.75" stop-color="#2cbee8"/><stop offset="1" stop-color="#2196f3"/></radialGradient><radialGradient id="radial-gradient-2" cx="33.7" cy="15.78" r="12.83" gradientUnits="userSpaceOnUse"><stop offset="0" stop-color="#607d8b"/><stop offset="0.35" stop-color="#607d8b"/><stop offset="0.6" stop-color="#607d8b"/><stop offset="1" stop-color="#455a64"/></radialGradient><clipPath id="clip-path"><path class="cls-1" d="M28.21,5.54h0v19.9A4.78,4.78,0,0,0,27,25.3c-1.93,0-3.5,1.14-3.5,2.54s1.57,2.54,3.5,2.54,3.5-1.14,3.5-2.54h0V14.48l13.17-2.71v10a4.8,4.8,0,0,0-1.19-.14c-1.93,0-3.5,1.14-3.5,2.54s1.57,2.54,3.5,2.54S46,25.61,46,24.21h0V1.88Zm15.46,4L30.5,12.24V8.18L43.67,5.47Z"/></clipPath><radialGradient id="radial-gradient-3" cx="-170.62" cy="77.44" r="3.01" gradientTransform="translate(248.79 -56.49) scale(1.3 1.08)" gradientUnits="userSpaceOnUse"><stop offset="0.37" stop-color="#5f7b8a"/><stop offset="1" stop-color="#455a64" stop-opacity="0"/></radialGradient><radialGradient id="radial-gradient-4" cx="-159.19" cy="74.66" r="3.01" gradientTransform="translate(248.79 -57.01) scale(1.3 1.08)" xlink:href="#radial-gradient-3"/></defs><title>画板 22</title><g id="光盘-音乐"><path class="cls-2" d="M24,46.12a22,22,0,1,1,22-22A22,22,0,0,1,24,46.12Zm0-23.24a1.24,1.24,0,1,0,1.24,1.24A1.24,1.24,0,0,0,24,22.88Z"/><path class="cls-3" d="M25,48.12a23,23,0,1,1,23-23A23,23,0,0,1,25,48.12Zm0-23.24a.24.24,0,1,0,.24.24A.24.24,0,0,0,25,24.88Z"/><path class="cls-4" d="M25,47.12a22,22,0,1,1,22-22A22,22,0,0,1,25,47.12Zm0-23.24a1.24,1.24,0,1,0,1.24,1.24A1.24,1.24,0,0,0,25,23.88Z"/><path class="cls-5" d="M24,45.12a21,21,0,1,1,21-21A21,21,0,0,1,24,45.12Zm0-23.24a2.24,2.24,0,1,0,2.24,2.24A2.24,2.24,0,0,0,24,21.88Z"/><path class="cls-6" d="M24,3.62a20.5,20.5,0,1,0,20.5,20.5A20.5,20.5,0,0,0,24,3.62ZM24,44a19.9,19.9,0,1,1,19.9-19.9A19.93,19.93,0,0,1,24,44Z"/><path class="cls-7" d="M24,7A17.08,17.08,0,1,0,41.08,24.12,17.1,17.1,0,0,0,24,7ZM24,30.1a6,6,0,1,1,6-6A6,6,0,0,1,24,30.1Z"/><g class="cls-8"><path class="cls-9" d="M30,24.52l10.49.69.6,0A17.16,17.16,0,0,0,40,18L29.58,22A6,6,0,0,1,30,24.52Z"/><path class="cls-9" d="M18,23.73,7.55,23l-.6,0A17.16,17.16,0,0,0,8,30.2l10.37-4A6,6,0,0,1,18,23.73Z"/></g><g class="cls-8"><path class="cls-9" d="M29.17,21.11l9.08-5.29.49-.35a17.17,17.17,0,0,0-4.9-5.31l-6.39,9.08A6,6,0,0,1,29.17,21.11Z"/><path class="cls-9" d="M18.84,27.13,9.76,32.42l-.49.35a17.17,17.17,0,0,0,4.9,5.31L20.56,29A6,6,0,0,1,18.84,27.13Z"/></g><path class="cls-10" d="M24,4.22a19.9,19.9,0,1,0,19.9,19.9A19.93,19.93,0,0,0,24,4.22Zm0,37A17.08,17.08,0,1,1,41.08,24.12,17.1,17.1,0,0,1,24,41.21Z"/><path class="cls-6" d="M24,18.14a6,6,0,1,0,6,6A6,6,0,0,0,24,18.14Zm0,11.34a5.36,5.36,0,1,1,5.36-5.36A5.37,5.37,0,0,1,24,29.48Z"/><path class="cls-10" d="M24,18.76a5.36,5.36,0,1,0,5.36,5.36A5.37,5.37,0,0,0,24,18.76Zm0,8.1a2.74,2.74,0,1,1,2.74-2.74A2.74,2.74,0,0,1,24,26.86Z"/><path class="cls-11" d="M28.21,5.54h0v19.9A4.78,4.78,0,0,0,27,25.3c-1.93,0-3.5,1.14-3.5,2.54s1.57,2.54,3.5,2.54,3.5-1.14,3.5-2.54h0V14.48l13.17-2.71v10a4.8,4.8,0,0,0-1.19-.14c-1.93,0-3.5,1.14-3.5,2.54s1.57,2.54,3.5,2.54S46,25.61,46,24.21h0V1.88Zm15.46,4L30.5,12.24V8.18L43.67,5.47Z"/><g class="cls-12"><ellipse class="cls-13" cx="26.81" cy="26.95" rx="3.24" ry="2.64"/><ellipse class="cls-14" cx="41.71" cy="23.43" rx="3.24" ry="2.64"/></g></g></svg>