<svg xmlns="http://www.w3.org/2000/svg" xmlns:xlink="http://www.w3.org/1999/xlink" viewBox="0 0 48 48"><defs><style>.cls-1,.cls-2,.cls-3,.cls-4{fill:#040000;}.cls-1{opacity:0.2;}.cls-2{opacity:0.08;}.cls-3{opacity:0.1;}.cls-5{fill:url(#linear-gradient);}.cls-6{fill:url(#linear-gradient-2);}.cls-7{fill:#1c2938;}.cls-8{fill:#090c0f;}.cls-9{fill:#ececde;}.cls-10{fill:url(#linear-gradient-3);}.cls-11,.cls-15{fill:none;stroke-miterlimit:10;stroke-width:0.5px;}.cls-11{stroke:#000;}.cls-12{fill:#bdbdb2;}.cls-13{fill:#fff;}.cls-14{fill:#8f9396;}.cls-15{stroke:#8f9396;}</style><linearGradient id="linear-gradient" x1="24" y1="23.92" x2="24" y2="11.91" gradientUnits="userSpaceOnUse"><stop offset="0" stop-color="#455a64"/><stop offset="1" stop-color="#607d8b"/></linearGradient><linearGradient id="linear-gradient-2" x1="24" y1="35.94" x2="24" y2="23.92" gradientUnits="userSpaceOnUse"><stop offset="0" stop-color="#1a1a1a"/><stop offset="1" stop-color="#263238"/></linearGradient><linearGradient id="linear-gradient-3" x1="40.64" y1="28.15" x2="40.72" y2="25.01" gradientUnits="userSpaceOnUse"><stop offset="0.24" stop-color="#689f38"/><stop offset="0.94" stop-color="#8bc34a"/></linearGradient></defs><title>画板 22</title><g id="开始菜单应用图标"><g id="打印机"><g id="_48" data-name="48"><polygon class="cls-1" points="8.58 45.5 8.58 36.94 3.18 36.94 3.18 10.91 10.39 10.91 10.39 2.5 32.39 2.5 37.61 7.55 37.61 10.91 44.82 10.91 44.82 36.94 39.41 36.94 39.41 45.5 8.58 45.5"/><polygon class="cls-2" points="8.58 47.5 8.58 38.94 3.18 38.94 3.18 10.91 10.39 10.91 10.39 2.5 33.79 2.5 39.61 8.13 39.61 10.91 46.82 10.91 46.82 38.94 41.41 38.94 41.41 47.5 8.58 47.5"/><polygon class="cls-3" points="9.58 46.5 9.58 37.94 4.18 37.94 4.18 11.91 11.39 11.91 11.39 3.5 33.39 3.5 38.61 8.55 38.61 11.91 45.82 11.91 45.82 37.94 40.41 37.94 40.41 46.5 9.58 46.5"/><polygon class="cls-4" points="36.61 11.91 36.61 7.98 31.98 3.5 11.39 3.5 11.39 11.91 4.18 11.91 4.18 23.92 4.18 35.94 9.58 35.94 9.58 44.5 38.41 44.5 38.41 35.94 43.82 35.94 43.82 23.92 43.82 11.91 36.61 11.91"/><rect class="cls-5" x="4.18" y="11.91" width="39.64" height="12.01"/><rect class="cls-6" x="4.18" y="23.92" width="39.64" height="12.01"/><rect class="cls-7" x="9.58" y="16.11" width="28.83" height="3.6"/><rect class="cls-7" x="9.58" y="28.88" width="28.83" height="15.62"/><rect class="cls-8" x="9.58" y="28.88" width="28.83" height="1.56"/><rect class="cls-9" x="11.39" y="30.45" width="25.23" height="12.01"/><circle class="cls-8" cx="40.67" cy="26.93" r="1.89"/><circle class="cls-10" cx="40.67" cy="26.93" r="1.35"/><polygon class="cls-11" points="4.18 11.91 4.18 23.92 4.18 35.94 9.58 35.94 9.58 44.5 38.41 44.5 38.41 35.94 43.82 35.94 43.82 23.92 43.82 11.91 4.18 11.91"/><polygon class="cls-9" points="31.98 7.73 31.98 3.5 11.39 3.5 11.39 17.92 36.61 17.92 36.61 7.98 36.36 7.73 31.98 7.73"/><polygon class="cls-12" points="36.61 12.74 31.98 7.95 32.13 5.06 36.61 7.98 36.61 12.74"/><polygon class="cls-13" points="36.61 7.95 31.98 3.5 31.98 7.95 36.61 7.95"/><rect class="cls-14" x="14.39" y="7.1" width="15.62" height="1.2"/><rect class="cls-14" x="14.39" y="10.71" width="15.62" height="1.2"/><rect class="cls-14" x="14.39" y="14.31" width="15.62" height="1.2"/><polygon class="cls-15" points="31.98 3.5 11.39 3.5 11.39 17.92 36.61 17.92 36.61 12.74 36.61 7.98 31.98 3.5"/></g></g></g></svg>