<svg xmlns="http://www.w3.org/2000/svg" xmlns:xlink="http://www.w3.org/1999/xlink" viewBox="0 0 96 96"><defs><style>.cls-1{fill:url(#未命名的渐变_6);}.cls-2{fill:url(#未命名的渐变_184);}.cls-3,.cls-4,.cls-5{fill:none;stroke:#fff;}.cls-3,.cls-5{stroke-miterlimit:10;}.cls-4,.cls-5{stroke-linecap:round;}.cls-4{stroke-linejoin:round;}</style><linearGradient id="未命名的渐变_6" x1="48" y1="32" x2="48" y2="116" gradientTransform="matrix(1, 0, 0, -1, 0, 122)" gradientUnits="userSpaceOnUse"><stop offset="0" stop-color="#3f95ea"/><stop offset="1" stop-color="#4aa6e5"/></linearGradient><linearGradient id="未命名的渐变_184" x1="63.66" y1="49.03" x2="70.48" y2="43.35" gradientTransform="matrix(1, 0, 0, -1, 0, 122)" gradientUnits="userSpaceOnUse"><stop offset="0" stop-color="#fff" stop-opacity="0.4"/><stop offset="1" stop-color="#fff" stop-opacity="0.2"/></linearGradient></defs><title>96</title><g id="蓝底"><g id="_96" data-name="96"><path id="_48" data-name=" 48" class="cls-1" d="M82,69V15a9,9,0,0,0-9-9H23a9,9,0,0,0-9,9V81a9,9,0,0,0,9,9H61Z"/><path class="cls-2" d="M67,69H82L61,90V75A6,6,0,0,1,67,69Z"/><path class="cls-3" d="M35.14,63.23v1.69c0,7.13,8.53,5.06,12.69,3.56.16,0,.34-.22.51-.14,4.42,2,12.95,3.33,12.95-3V64"/><path class="cls-4" d="M37.44,34.64c0,1.54-8.67,17.54-4.82,25.25s11.17,5.4,15.4,3.86c.16-.06.35-.23.51-.15C53,65.67,63,66.83,65,57.19c1.69-8.45-6-21.4-6-22.17"/><path class="cls-3" d="M61,39.31c0-.74,4.7-10.6,1.32-15.81s-9.77-2.23-12-1.86a21.23,21.23,0,0,1-6-.37C42.61,21,35.56,18,33.56,24.81c-1.69,5.76,1.69,14.32,1.69,15.43"/><path class="cls-3" d="M34,22.46C32.79,20.15,23.43,19.37,23,20.53s2.34,10,9.36,9.66"/><path class="cls-3" d="M62,22.85c1.18-2.32,10.54-3.09,10.93-1.93s-2.34,10-9.36,9.66"/><path class="cls-3" d="M38.85,28.84c0-1.55,6.24-1.93,6.24,0S43.53,33.48,42,33.48C40,33.48,38.85,30.39,38.85,28.84Z"/><path class="cls-3" d="M51.34,28.84c0-1.55,6.24-1.93,6.24,0S56,33.48,54.46,33.48C52.51,33.48,51.34,30.39,51.34,28.84Z"/><path class="cls-5" d="M40.41,42.75s4.29,10.44,7.8,10.44,7.42-10.44,7.42-10.44"/><line class="cls-5" x1="48.21" y1="53.19" x2="48.21" y2="62.85"/></g></g></svg>