<svg xmlns="http://www.w3.org/2000/svg" xmlns:xlink="http://www.w3.org/1999/xlink" viewBox="0 0 96 96"><defs><style>.cls-1{fill:url(#未命名的渐变_19);}.cls-2{fill:url(#未命名的渐变_194);}.cls-3{fill:#fff;isolation:isolate;}</style><linearGradient id="未命名的渐变_19" x1="48" y1="708" x2="48" y2="792" gradientTransform="translate(0 -702)" gradientUnits="userSpaceOnUse"><stop offset="0" stop-color="#feda3e"/><stop offset="1" stop-color="#e5b104"/></linearGradient><linearGradient id="未命名的渐变_194" x1="63.92" y1="775.19" x2="70.54" y2="780.7" gradientTransform="translate(0 -702)" gradientUnits="userSpaceOnUse"><stop offset="0" stop-color="#fff" stop-opacity="0.4"/><stop offset="1" stop-color="#fff" stop-opacity="0.2"/></linearGradient></defs><title>96</title><g id="JS"><g id="_96" data-name="96"><g id="底色-浅橙"><path id="_48" data-name=" 48" class="cls-1" d="M82,69V15a9,9,0,0,0-9-9H23a9,9,0,0,0-9,9V81a9,9,0,0,0,9,9H61.16Z"/><path class="cls-2" d="M68,69H82L61,90V76A7,7,0,0,1,68,69Z"/></g><g id="js-2" data-name="js"><path class="cls-3" d="M36,23h7V58H24V51H36Z"/><path class="cls-3" d="M50,23H71v7H57v7H71V58H50V51H64V44H50Z"/></g></g></g></svg>