<svg xmlns="http://www.w3.org/2000/svg" xmlns:xlink="http://www.w3.org/1999/xlink" viewBox="0 0 96 96"><defs><style>.cls-1{fill:url(#未命名的渐变_34);}.cls-2{fill:url(#未命名的渐变_101);}.cls-3{fill:url(#未命名的渐变_103);}.cls-4{fill:#c07cca;}.cls-5{fill:url(#未命名的渐变_99);}.cls-6{fill:#a223b5;}.cls-7{fill:none;stroke:#a223b5;stroke-miterlimit:10;stroke-width:2px;}</style><linearGradient id="未命名的渐变_34" x1="48" y1="6" x2="48" y2="90" gradientUnits="userSpaceOnUse"><stop offset="0" stop-color="#fff"/><stop offset="0.99" stop-color="#f2dff7"/></linearGradient><linearGradient id="未命名的渐变_101" x1="14" y1="48" x2="82" y2="48" gradientUnits="userSpaceOnUse"><stop offset="0" stop-color="#a727c1"/><stop offset="1" stop-color="#9323b5"/></linearGradient><linearGradient id="未命名的渐变_103" x1="63.66" y1="774.97" x2="70.48" y2="780.65" gradientTransform="translate(0 -702)" gradientUnits="userSpaceOnUse"><stop offset="0" stop-color="#a727c1" stop-opacity="0.5"/><stop offset="1" stop-color="#9323b5" stop-opacity="0.7"/></linearGradient><linearGradient id="未命名的渐变_99" x1="33.18" y1="78.5" x2="63.82" y2="78.5" gradientTransform="matrix(1, 0, 0, -1, 0, 122)" gradientUnits="userSpaceOnUse"><stop offset="0" stop-color="#e699f2"/><stop offset="0.51" stop-color="#d766e9"/><stop offset="1" stop-color="#f1c1fa"/></linearGradient></defs><title>96</title><g id="libreoffice"><g id="libreoffice-bse"><g id="_96" data-name="96"><g id="_48" data-name=" 48"><path class="cls-1" d="M82,69V15a9,9,0,0,0-9-9H23a9,9,0,0,0-9,9V81a9,9,0,0,0,9,9H61.16Z"/><path class="cls-2" d="M73,10a5,5,0,0,1,5,5V67.35L59.49,86H23a5,5,0,0,1-5-5V15a5,5,0,0,1,5-5H73m0-4H23a9,9,0,0,0-9,9V81a9,9,0,0,0,9,9H61.16L82,69V15a9,9,0,0,0-9-9Z"/></g><path class="cls-3" d="M67,69H82L61,90V75A6,6,0,0,1,67,69Z"/><rect class="cls-4" x="61" y="23" width="9" height="3"/><rect class="cls-4" x="61" y="29" width="9" height="3"/><rect class="cls-4" x="61" y="35" width="9" height="3"/><rect class="cls-4" x="61" y="41" width="9" height="3"/><rect class="cls-4" x="61" y="41" width="9" height="3"/><rect class="cls-4" x="61" y="47" width="9" height="3"/><rect class="cls-4" x="61" y="53" width="9" height="3"/><rect class="cls-4" x="61" y="53" width="9" height="3"/><rect class="cls-4" x="61" y="59" width="9" height="3"/><rect class="cls-4" x="61" y="65" width="9" height="3"/><rect class="cls-4" x="44" y="23" width="9" height="3"/><rect class="cls-4" x="44" y="29" width="9" height="3"/><rect class="cls-4" x="44" y="35" width="9" height="3"/><rect class="cls-4" x="44" y="41" width="9" height="3"/><rect class="cls-4" x="44" y="41" width="9" height="3"/><rect class="cls-4" x="44" y="47" width="9" height="3"/><rect class="cls-4" x="44" y="53" width="9" height="3"/><rect class="cls-4" x="44" y="53" width="9" height="3"/><rect class="cls-4" x="44" y="59" width="9" height="3"/><rect class="cls-4" x="44" y="65" width="9" height="3"/><rect class="cls-4" x="26" y="23" width="9" height="3"/><rect class="cls-4" x="26" y="29" width="9" height="3"/><rect class="cls-4" x="26" y="35" width="9" height="3"/><rect class="cls-4" x="26" y="41" width="9" height="3"/><rect class="cls-4" x="26" y="41" width="9" height="3"/><rect class="cls-4" x="26" y="47" width="9" height="3"/><rect class="cls-4" x="26" y="53" width="9" height="3"/><rect class="cls-4" x="26" y="53" width="9" height="3"/><rect class="cls-4" x="26" y="59" width="9" height="3"/><rect class="cls-4" x="26" y="65" width="9" height="3"/><path class="cls-5" d="M48.5,58.82c-10.14,0-14.61-5.42-15.32-6.13V33.36c.71-.94,5.66-5.18,15.32-5.18s14.38,4,15.32,5.18v19.1C63.35,53.16,58.64,58.82,48.5,58.82Z"/><path class="cls-6" d="M48.5,29C57,29,61.74,32.27,63,33.56V52.09C62,53.25,57.55,58,48.5,58S35,53.45,34,52.31V33.7c1-1.17,5.64-4.7,14.5-4.7m0-2C37.42,27,32.24,32.19,32,33.13v19.8c.24.71,5.42,7.07,16.5,7.07S64.76,53.4,65,52.69V32.89c-.24-.7-5.42-5.89-16.5-5.89Z"/><path class="cls-7" d="M64,34c0,4-7,7-15.5,7S33,38,33,34"/><path class="cls-7" d="M64,43c0,4-7,7-15.5,7S33,47,33,43"/></g></g></g></svg>