<svg xmlns="http://www.w3.org/2000/svg" xmlns:xlink="http://www.w3.org/1999/xlink" viewBox="0 0 96 96"><defs><style>.cls-1{fill:url(#未命名的渐变_46);}.cls-2{fill:#c4c6cc;}.cls-3{fill:url(#未命名的渐变_250);}.cls-4{fill:#065493;}.cls-5{fill:#1580c3;}.cls-6{fill:#f6f5f5;}.cls-7{fill:#2ea7e0;}.cls-8{opacity:0.6;}.cls-9{fill:#fff;}.cls-10{fill:none;stroke:#1580c3;stroke-miterlimit:10;}</style><linearGradient id="未命名的渐变_46" x1="48" y1="89.5" x2="48" y2="6.5" gradientUnits="userSpaceOnUse"><stop offset="0" stop-color="#d6d9e6"/><stop offset="1" stop-color="#f5f5f5"/></linearGradient><linearGradient id="未命名的渐变_250" x1="63.66" y1="49.03" x2="70.48" y2="43.35" gradientTransform="matrix(1, 0, 0, -1, 0, 122)" gradientUnits="userSpaceOnUse"><stop offset="0" stop-opacity="0.1"/><stop offset="1" stop-opacity="0.05"/></linearGradient></defs><title>96</title><g id="白色"><g id="_96" data-name="96"><g id="_48" data-name=" 48"><path class="cls-1" d="M23,89.5A8.51,8.51,0,0,1,14.5,81V15A8.51,8.51,0,0,1,23,6.5H73A8.51,8.51,0,0,1,81.5,15V68.79L60.79,89.5Z"/><path class="cls-2" d="M73,7a8,8,0,0,1,8,8V68.59L60.59,89H23a8,8,0,0,1-8-8V15a8,8,0,0,1,8-8H73m0-1H23a9,9,0,0,0-9,9V81a9,9,0,0,0,9,9H61L82,69V15a9,9,0,0,0-9-9Z"/></g><path class="cls-3" d="M67,69H82L61,90V75A6,6,0,0,1,67,69Z"/><g id="_64" data-name=" 64"><path class="cls-4" d="M48,20A24,24,0,1,0,72,44,24,24,0,0,0,48,20Zm0,26.48A2.48,2.48,0,1,1,50.48,44,2.43,2.43,0,0,1,48,46.48Z"/><path class="cls-5" d="M47.92,21.66A22.34,22.34,0,1,0,70.34,44,22.35,22.35,0,0,0,47.92,21.66ZM48,47.31A3.31,3.31,0,1,1,51.31,44,3.32,3.32,0,0,1,48,47.31Z"/><path class="cls-6" d="M48,23.31A20.69,20.69,0,1,0,68.69,44,20.7,20.7,0,0,0,48,23.31Zm0,24A3.31,3.31,0,1,1,51.31,44,3.32,3.32,0,0,1,48,47.31Z"/><path class="cls-7" d="M48,28.28A15.72,15.72,0,1,0,63.72,44,15.71,15.71,0,0,0,48,28.28Zm0,21.51A5.79,5.79,0,1,1,53.79,44,5.75,5.75,0,0,1,48,49.79Z"/><g class="cls-8"><path class="cls-9" d="M54.29,44l9.43.66A13.17,13.17,0,0,0,62.65,38l-8.86,3.23a8.08,8.08,0,0,1,.5,2.81"/><path class="cls-9" d="M41.38,43.09l-9.27-.66A13.32,13.32,0,0,0,32.86,49l8.85-3.31c.41-1.08-.33-1.66-.33-2.57"/></g><g class="cls-8"><path class="cls-9" d="M53.3,40.19l8.11-4.71S59.17,32,56.52,30.59l-5.21,7.62a5.12,5.12,0,0,1,2,2"/><path class="cls-9" d="M42.21,46.65,34,51.53c1.41,2.32,2.16,3.56,4.47,5.13l5.46-7.78c-1-.49-1.24-1.49-1.73-2.23"/></g><path class="cls-10" d="M48,37.79A6.21,6.21,0,1,0,54.21,44h0a6.09,6.09,0,0,0-5.88-6.21H48"/></g></g></g></svg>