<svg xmlns="http://www.w3.org/2000/svg" xmlns:xlink="http://www.w3.org/1999/xlink" viewBox="0 0 96 96"><defs><style>.cls-1{fill:url(#未命名的渐变_35);}.cls-2{fill:url(#未命名的渐变_226);}.cls-3{opacity:0.4;}.cls-4{fill:#fff;}.cls-5{fill:none;stroke:#fff;stroke-linecap:round;stroke-miterlimit:10;stroke-width:4px;}</style><linearGradient id="未命名的渐变_35" x1="48" y1="708" x2="48" y2="792" gradientTransform="translate(0 -702)" gradientUnits="userSpaceOnUse"><stop offset="0" stop-color="#f9875f"/><stop offset="1" stop-color="#f2733d"/></linearGradient><linearGradient id="未命名的渐变_226" x1="63.92" y1="775.19" x2="70.54" y2="780.7" gradientTransform="translate(0 -702)" gradientUnits="userSpaceOnUse"><stop offset="0" stop-color="#fff" stop-opacity="0.4"/><stop offset="1" stop-color="#fff" stop-opacity="0.2"/></linearGradient></defs><title>96</title><g id="WPS"><g id="P"><g id="_96" data-name="96"><g id="底色-浅橙"><path id="_48" data-name=" 48" class="cls-1" d="M82,69V15a9,9,0,0,0-9-9H23a9,9,0,0,0-9,9V81a9,9,0,0,0,9,9H61.16Z"/><path class="cls-2" d="M68,69H82L61,90V76A7,7,0,0,1,68,69Z"/></g><g class="cls-3"><path class="cls-4" d="M43,51v8H38V51h5m0-2H38a2,2,0,0,0-2,2v8a2,2,0,0,0,2,2h5a2,2,0,0,0,2-2V51a2,2,0,0,0-2-2Z"/><path class="cls-4" d="M69,51v8H51V51H69m0-2H51a2,2,0,0,0-2,2v8a2,2,0,0,0,2,2H69a2,2,0,0,0,2-2V51a2,2,0,0,0-2-2Z"/></g><g id="P-2" data-name="P"><path class="cls-5" d="M29,60V42.8A3.81,3.81,0,0,1,32.8,39H49"/><path class="cls-5" d="M29,23H59c4.4,0,8,3.95,8,8.77V31a7.77,7.77,0,0,1-8,8H39"/></g></g></g></g></svg>