<svg xmlns="http://www.w3.org/2000/svg" xmlns:xlink="http://www.w3.org/1999/xlink" viewBox="0 0 96 96"><defs><style>.cls-1{fill:url(#未命名的渐变_46);}.cls-2{fill:#c4c6cc;}.cls-3{fill:url(#未命名的渐变_250);}.cls-4{fill:url(#未命名的渐变_59);}.cls-5{fill:url(#未命名的渐变_67);}</style><linearGradient id="未命名的渐变_46" x1="48" y1="32.5" x2="48" y2="115.5" gradientTransform="matrix(1, 0, 0, -1, 0, 122)" gradientUnits="userSpaceOnUse"><stop offset="0" stop-color="#d6d9e6"/><stop offset="1" stop-color="#f5f5f5"/></linearGradient><linearGradient id="未命名的渐变_250" x1="63.66" y1="49.03" x2="70.48" y2="43.35" gradientTransform="matrix(1, 0, 0, -1, 0, 122)" gradientUnits="userSpaceOnUse"><stop offset="0" stop-opacity="0.1"/><stop offset="1" stop-opacity="0.05"/></linearGradient><linearGradient id="未命名的渐变_59" x1="65.81" y1="62.96" x2="34.95" y2="24.99" gradientUnits="userSpaceOnUse"><stop offset="0" stop-color="#787878"/><stop offset="0.72" stop-color="#d6d6d6"/></linearGradient><linearGradient id="未命名的渐变_67" x1="72.68" y1="65.44" x2="46.86" y2="23.93" gradientTransform="translate(104.72 89.36) rotate(180)" gradientUnits="userSpaceOnUse"><stop offset="0" stop-color="#7b7b7b"/><stop offset="1" stop-color="#d7d7d7"/></linearGradient></defs><title>96</title><g id="json"><g id="_96" data-name="96"><g id="_48" data-name=" 48"><path class="cls-1" d="M23,89.5A8.51,8.51,0,0,1,14.5,81V15A8.51,8.51,0,0,1,23,6.5H73A8.51,8.51,0,0,1,81.5,15V68.79L60.79,89.5Z"/><path class="cls-2" d="M73,7a8,8,0,0,1,8,8V68.59L60.59,89H23a8,8,0,0,1-8-8V15a8,8,0,0,1,8-8H73m0-1H23a9,9,0,0,0-9,9V81a9,9,0,0,0,9,9H61L82,69V15a9,9,0,0,0-9-9Z"/></g><path class="cls-3" d="M67,69H82L61,90V75A6,6,0,0,1,67,69Z"/><path class="cls-4" d="M48.24,20h-.61a18.63,18.63,0,0,1,9.86,4.3c3.61,3.18,6.51,9.08,6.51,16C64,50,57.87,57.08,51.87,57.09A11.52,11.52,0,0,1,40.55,45.53a14.13,14.13,0,0,1,7.69-12.92,10.09,10.09,0,0,0-11.06,2.15c-4.89,4.71-6.92,14.05-3.7,22.57S44.09,70.27,54,68.57c1.07-.19,2.12-.42,3.16-.68A24.76,24.76,0,0,0,48.24,20Z"/><path class="cls-5" d="M47.76,68.92h.48a18.36,18.36,0,0,1-9.73-4.29C34.9,61.44,32,55.54,32,48.63,32,39,38.13,31.87,44.13,31.86A12,12,0,0,1,55.7,43.75a14.16,14.16,0,0,1-7.46,12.67s5.34,2.84,10.64-2.59c4.95-5.08,6.76-13.6,3.54-22.12S52.21,18.57,42,20.39c-1.07.19-2.12.41-3.16.67a24.76,24.76,0,0,0,8.93,47.86Z"/></g></g></svg>