<svg xmlns="http://www.w3.org/2000/svg" xmlns:xlink="http://www.w3.org/1999/xlink" viewBox="0 0 96 96"><defs><style>.cls-1{fill:url(#未命名的渐变_86);}.cls-2{fill:url(#未命名的渐变_184);}.cls-3{fill:#83c7f2;}.cls-4{fill:#cde8fa;}.cls-5{fill:#cbe7f9;}.cls-6{fill:#7fc5f1;}</style><linearGradient id="未命名的渐变_86" x1="48" y1="32" x2="48" y2="116" gradientTransform="matrix(1, 0, 0, -1, 0, 122)" gradientUnits="userSpaceOnUse"><stop offset="0" stop-color="#219ae7"/><stop offset="1" stop-color="#49adeb"/></linearGradient><linearGradient id="未命名的渐变_184" x1="63.66" y1="49.03" x2="70.48" y2="43.35" gradientTransform="matrix(1, 0, 0, -1, 0, 122)" gradientUnits="userSpaceOnUse"><stop offset="0" stop-color="#fff" stop-opacity="0.4"/><stop offset="1" stop-color="#fff" stop-opacity="0.2"/></linearGradient></defs><title>96</title><g id="TS_复制"><g id="_96" data-name="96"><path id="_48" data-name=" 48" class="cls-1" d="M82,69V15a9,9,0,0,0-9-9H23a9,9,0,0,0-9,9V81a9,9,0,0,0,9,9H61Z"/><path class="cls-2" d="M67,69H82L61,90V75A6,6,0,0,1,67,69Z"/><polygon class="cls-3" points="48 34 25 46 25 29 48 17 48 34"/><polygon class="cls-4" points="71 46 48 34 48 17 71 29 71 46"/><polygon class="cls-5" points="48 69 25 57 25 29 48 41 48 69"/><polygon class="cls-6" points="71 57 48 69 48 41 71 29 71 57"/></g></g></svg>