<svg xmlns="http://www.w3.org/2000/svg" xmlns:xlink="http://www.w3.org/1999/xlink" viewBox="0 0 96 96"><defs><style>.cls-1{fill:url(#未命名的渐变_21);}.cls-2{fill:url(#未命名的渐变_172);}.cls-3{fill:none;stroke:#5c8435;stroke-linecap:round;stroke-linejoin:round;stroke-width:3px;}.cls-4{fill:#5c8535;}.cls-5{fill:url(#未命名的渐变_23);}.cls-6{fill:#dcedc0;}.cls-7{fill:#5c8435;}</style><linearGradient id="未命名的渐变_21" x1="48" y1="708" x2="48" y2="792" gradientTransform="translate(0 -702)" gradientUnits="userSpaceOnUse"><stop offset="0" stop-color="#9cce45"/><stop offset="1" stop-color="#66af12"/></linearGradient><linearGradient id="未命名的渐变_172" x1="63.92" y1="775.19" x2="70.54" y2="780.7" gradientTransform="translate(0 -702)" gradientUnits="userSpaceOnUse"><stop offset="0" stop-color="#fff" stop-opacity="0.4"/><stop offset="1" stop-color="#fff" stop-opacity="0.2"/></linearGradient><linearGradient id="未命名的渐变_23" x1="38" y1="29.81" x2="38" y2="38.27" gradientUnits="userSpaceOnUse"><stop offset="0" stop-color="#6a8f46"/><stop offset="1" stop-color="#5e8537"/></linearGradient></defs><title>96</title><g id="压缩文件_复制_2"><g id="_96" data-name="96"><g id="底色-浅橙"><path id="_48" data-name=" 48" class="cls-1" d="M82,69V15a9,9,0,0,0-9-9H23a9,9,0,0,0-9,9V81a9,9,0,0,0,9,9H61.16Z"/><path class="cls-2" d="M68,69H82L61,90V76A7,7,0,0,1,68,69Z"/></g><line class="cls-3" x1="32.5" y1="45.5" x2="40.27" y2="53.27"/><line class="cls-3" x1="63.5" y1="45.5" x2="56.16" y2="52.84"/><path class="cls-4" d="M48,48A19,19,0,0,0,29,67H67A19,19,0,0,0,48,48ZM42,61H38V57h4Zm16,0H54V57h4Z"/><path class="cls-5" d="M33,28v7a5,5,0,0,0,5,5h0a5,5,0,0,0,5-5V28Zm7,9H36V33h4Z"/><rect class="cls-6" x="33" y="6" width="10" height="22"/><rect class="cls-7" x="37" y="8" width="6" height="2"/><rect class="cls-7" x="37" y="12" width="6" height="2"/><rect class="cls-7" x="37" y="16" width="6" height="2"/><rect class="cls-7" x="37" y="20" width="6" height="2"/><rect class="cls-7" x="37" y="24" width="6" height="2"/><rect class="cls-4" x="33" y="18" width="6" height="2"/><rect class="cls-4" x="33" y="14" width="6" height="2"/><rect class="cls-4" x="33" y="22" width="6" height="2"/><rect class="cls-4" x="33" y="10" width="6" height="2"/><rect class="cls-4" x="33" y="6" width="6" height="2"/></g></g></svg>