<svg xmlns="http://www.w3.org/2000/svg" xmlns:xlink="http://www.w3.org/1999/xlink" viewBox="0 0 96 96"><defs><style>.cls-1{fill:url(#未命名的渐变_79);}.cls-2{fill:url(#未命名的渐变_199);}.cls-3{fill:#fff;}</style><linearGradient id="未命名的渐变_79" x1="48" y1="708" x2="48" y2="792" gradientTransform="translate(0 -702)" gradientUnits="userSpaceOnUse"><stop offset="0" stop-color="#f34236"/><stop offset="1" stop-color="#e23932"/></linearGradient><linearGradient id="未命名的渐变_199" x1="63.92" y1="775.19" x2="70.54" y2="780.7" gradientTransform="translate(0 -702)" gradientUnits="userSpaceOnUse"><stop offset="0" stop-color="#fff" stop-opacity="0.4"/><stop offset="1" stop-color="#fff" stop-opacity="0.2"/></linearGradient></defs><title>96</title><g id="阅读器-2"><g id="_96" data-name="96"><g id="底色-浅橙"><path id="_48" data-name=" 48" class="cls-1" d="M82,69V15a9,9,0,0,0-9-9H23a9,9,0,0,0-9,9V81a9,9,0,0,0,9,9H61.16Z"/><path class="cls-2" d="M68,69H82L61,90V76A7,7,0,0,1,68,69Z"/></g><g id="application-pdf"><path class="cls-3" d="M47.08,24s1.38,12.75-8.39,29.58S26.05,68.14,25,67.57s-2.36-2.49,2-6.26,6-3.72,6-3.72a21,21,0,0,0-5.51,4.74c-1.5,2.32-2.79,3.77-2.43,4.49s4.8-2.68,6.63-5.51c2.92-4.5,8.44-12.9,11-20.91S47.08,24,47.08,24Z"/><path class="cls-3" d="M71.16,53.51s-.22.58-2.79.37S55.8,50.54,50.44,44.12s-5.81-15.22-6.17-19.8,1.67-3.3,2-2.73a3.74,3.74,0,0,1,.69,1.64,5.33,5.33,0,0,0-1-2.69c-.81-.79-1.5-.81-2.34.59s-1.17,5.23-.51,9,3.42,12.17,6.77,16.1S60,53.6,65,54.6s6.17-1.08,6.17-1.08Z"/><path class="cls-3" d="M38.6,55.19a104.12,104.12,0,0,1,18.89-4c9.18-.87,12.35.08,13.15.74a2,2,0,0,1,.81,1.38,1.74,1.74,0,0,0,.36-2.06c-.59-1.08-1.5-2-8.74-1.72A64.13,64.13,0,0,0,48.6,51.26,23.72,23.72,0,0,0,38.6,55.19Z"/></g></g></g></svg>