<svg xmlns="http://www.w3.org/2000/svg" xmlns:xlink="http://www.w3.org/1999/xlink" viewBox="0 0 96 96"><defs><style>.cls-1{fill:url(#未命名的渐变_46);}.cls-2{fill:#c4c6cc;}.cls-3{fill:url(#未命名的渐变_250);}.cls-4,.cls-6,.cls-7{fill:none;stroke-miterlimit:10;stroke-width:3px;}.cls-4{stroke:#f3a64d;}.cls-5{fill:#f3a64d;}.cls-6,.cls-7{stroke:#8e8e8e;}.cls-6{stroke-linecap:round;}</style><linearGradient id="未命名的渐变_46" x1="48" y1="89.5" x2="48" y2="6.5" gradientUnits="userSpaceOnUse"><stop offset="0" stop-color="#d6d9e6"/><stop offset="1" stop-color="#f5f5f5"/></linearGradient><linearGradient id="未命名的渐变_250" x1="63.66" y1="49.03" x2="70.48" y2="43.35" gradientTransform="matrix(1, 0, 0, -1, 0, 122)" gradientUnits="userSpaceOnUse"><stop offset="0" stop-opacity="0.1"/><stop offset="1" stop-opacity="0.05"/></linearGradient></defs><title>96</title><g id="白色"><g id="_96" data-name="96"><g id="_48" data-name=" 48"><path class="cls-1" d="M23,89.5A8.51,8.51,0,0,1,14.5,81V15A8.51,8.51,0,0,1,23,6.5H73A8.51,8.51,0,0,1,81.5,15V68.79L60.79,89.5Z"/><path class="cls-2" d="M73,7a8,8,0,0,1,8,8V68.59L60.59,89H23a8,8,0,0,1-8-8V15a8,8,0,0,1,8-8H73m0-1H23a9,9,0,0,0-9,9V81a9,9,0,0,0,9,9H61L82,69V15a9,9,0,0,0-9-9Z"/></g><path class="cls-3" d="M67,69H82L61,90V75A6,6,0,0,1,67,69Z"/><line class="cls-4" x1="66.5" y1="55" x2="66.5" y2="68"/><line class="cls-4" x1="61.5" y1="55" x2="61.5" y2="68"/><line class="cls-4" x1="51.5" y1="55" x2="51.5" y2="68"/><line class="cls-4" x1="46.5" y1="55" x2="46.5" y2="68"/><polygon class="cls-5" points="65.55 68 65.55 65 73.39 65 76 68 65.55 68"/><polygon class="cls-5" points="37 68 33.5 68 44.5 55 48 55 37 68"/><polygon class="cls-5" points="27.5 68 24 68 37 55 40.5 55 27.5 68"/><polygon class="cls-5" points="33.5 62 30 62 22 55 25.5 55 33.5 62"/><polygon class="cls-5" points="59.5 55 56.5 59 53.5 55 50 55 55.5 62 57.5 62 63 55 59.5 55"/><path class="cls-6" d="M48.5,17.5c-12.76,0-18.73,4.71-19,5.57v18c.27.64,6.24,6.43,19,6.43s18.73-6,19-6.64v-18c-.27-.65-6.24-5.36-19-5.36Z"/><path class="cls-7" d="M29.5,31.73c.27.67,6.24,6.77,19,6.77s18.73-6.32,19-7"/><path class="cls-7" d="M29.5,22.73c.27.67,6.24,6.77,19,6.77s18.73-6.32,19-7"/></g></g></svg>