<svg xmlns="http://www.w3.org/2000/svg" xmlns:xlink="http://www.w3.org/1999/xlink" viewBox="0 0 96 96"><defs><style>.cls-1{fill:url(#未命名的渐变_46);}.cls-2{fill:#c4c6cc;}.cls-3{fill:url(#未命名的渐变_250);}.cls-4,.cls-5{fill:none;stroke-linecap:round;}.cls-4{stroke-linejoin:round;stroke-width:3px;stroke:url(#未命名的渐变_53);}.cls-5{stroke:#e82b61;stroke-miterlimit:10;stroke-width:2px;}.cls-6{fill:url(#未命名的渐变_53-2);}.cls-7{fill:url(#未命名的渐变_53-3);}</style><linearGradient id="未命名的渐变_46" x1="48" y1="89.5" x2="48" y2="6.5" gradientUnits="userSpaceOnUse"><stop offset="0" stop-color="#d6d9e6"/><stop offset="1" stop-color="#f5f5f5"/></linearGradient><linearGradient id="未命名的渐变_250" x1="63.66" y1="49.03" x2="70.48" y2="43.35" gradientTransform="matrix(1, 0, 0, -1, 0, 122)" gradientUnits="userSpaceOnUse"><stop offset="0" stop-opacity="0.1"/><stop offset="1" stop-opacity="0.05"/></linearGradient><linearGradient id="未命名的渐变_53" x1="27" y1="32.5" x2="52" y2="32.5" gradientUnits="userSpaceOnUse"><stop offset="0" stop-color="#e72761"/><stop offset="0.99" stop-color="#fc7062"/></linearGradient><linearGradient id="未命名的渐变_53-2" y1="62.5" x2="32" y2="62.5" xlink:href="#未命名的渐变_53"/><linearGradient id="未命名的渐变_53-3" y1="53.5" x2="32" y2="53.5" xlink:href="#未命名的渐变_53"/></defs><title>96</title><g id="白色"><g id="_96" data-name="96"><g id="_48" data-name=" 48"><path class="cls-1" d="M23,89.5A8.51,8.51,0,0,1,14.5,81V15A8.51,8.51,0,0,1,23,6.5H73A8.51,8.51,0,0,1,81.5,15V68.79L60.79,89.5Z"/><path class="cls-2" d="M73,7a8,8,0,0,1,8,8V68.59L60.59,89H23a8,8,0,0,1-8-8V15a8,8,0,0,1,8-8H73m0-1H23a9,9,0,0,0-9,9V81a9,9,0,0,0,9,9H61L82,69V15a9,9,0,0,0-9-9Z"/></g><path class="cls-3" d="M67,69H82L61,90V75A6,6,0,0,1,67,69Z"/><polyline class="cls-4" points="28.5 19.5 28.5 45.5 50.5 32.5 28.5 19.5"/><line class="cls-5" x1="37" y1="64" x2="67" y2="64"/><line class="cls-5" x1="37" y1="55" x2="67" y2="55"/><rect class="cls-6" x="27" y="60" width="5" height="5" rx="1"/><rect class="cls-7" x="27" y="51" width="5" height="5" rx="1"/></g></g></svg>