<svg xmlns="http://www.w3.org/2000/svg" xmlns:xlink="http://www.w3.org/1999/xlink" viewBox="0 0 96 96"><defs><style>.cls-1{fill:url(#未命名的渐变_46);}.cls-2{fill:#c4c6cc;}.cls-3{fill:url(#未命名的渐变_250);}.cls-4,.cls-5{fill:none;stroke-miterlimit:10;}.cls-4{stroke:#888;}.cls-5{stroke:#f0707f;stroke-width:3px;}.cls-6{fill:#f0707f;}</style><linearGradient id="未命名的渐变_46" x1="48" y1="89.5" x2="48" y2="6.5" gradientUnits="userSpaceOnUse"><stop offset="0" stop-color="#d6d9e6"/><stop offset="1" stop-color="#f5f5f5"/></linearGradient><linearGradient id="未命名的渐变_250" x1="63.66" y1="49.03" x2="70.48" y2="43.35" gradientTransform="matrix(1, 0, 0, -1, 0, 122)" gradientUnits="userSpaceOnUse"><stop offset="0" stop-opacity="0.1"/><stop offset="1" stop-opacity="0.05"/></linearGradient></defs><title>96</title><g id="白色"><g id="_96" data-name="96"><g id="_48" data-name=" 48"><path class="cls-1" d="M23,89.5A8.51,8.51,0,0,1,14.5,81V15A8.51,8.51,0,0,1,23,6.5H73A8.51,8.51,0,0,1,81.5,15V68.79L60.79,89.5Z"/><path class="cls-2" d="M73,7a8,8,0,0,1,8,8V68.59L60.59,89H23a8,8,0,0,1-8-8V15a8,8,0,0,1,8-8H73m0-1H23a9,9,0,0,0-9,9V81a9,9,0,0,0,9,9H61L82,69V15a9,9,0,0,0-9-9Z"/></g><path class="cls-3" d="M67,69H82L61,90V75A6,6,0,0,1,67,69Z"/><path class="cls-4" d="M31.5,79V68A2.5,2.5,0,0,1,34,65.5h1.5"/><line class="cls-4" x1="31.5" y1="70.5" x2="36" y2="70.5"/><path class="cls-4" d="M42,78.5h0A2.5,2.5,0,0,1,39.5,76V67"/><path class="cls-4" d="M44,70.5h3.5a2,2,0,0,1,2,2V79"/><path class="cls-4" d="M49.33,78.5H46A2.5,2.5,0,0,1,43.5,76h0A2.5,2.5,0,0,1,46,73.5h3.33"/><path class="cls-4" d="M59,78.5H57A4.51,4.51,0,0,1,52.5,74h0A4.51,4.51,0,0,1,57,69.5h2"/><polyline class="cls-5" points="37.5 56 37.5 22 62.5 18 62.5 52"/><ellipse class="cls-6" cx="32" cy="56" rx="7" ry="6"/><ellipse class="cls-6" cx="57" cy="52" rx="7" ry="6"/><polygon class="cls-6" points="36 19 64 15 64 26 36 30 36 19"/></g></g></svg>