<svg xmlns="http://www.w3.org/2000/svg" xmlns:xlink="http://www.w3.org/1999/xlink" viewBox="0 0 96 96"><defs><style>.cls-1{fill:url(#未命名的渐变_46);}.cls-2{fill:#c4c6cc;}.cls-3{fill:url(#未命名的渐变_250);}.cls-4{fill:#d3caf9;}.cls-5,.cls-7{fill:none;stroke-miterlimit:10;stroke-width:2px;}.cls-5{stroke:#976adc;}.cls-6{fill:#f34f17;}.cls-7{stroke:#f34f17;}.cls-8{fill:#a591e9;}</style><linearGradient id="未命名的渐变_46" x1="48" y1="89.5" x2="48" y2="6.5" gradientUnits="userSpaceOnUse"><stop offset="0" stop-color="#d6d9e6"/><stop offset="1" stop-color="#f5f5f5"/></linearGradient><linearGradient id="未命名的渐变_250" x1="63.66" y1="49.03" x2="70.48" y2="43.35" gradientTransform="matrix(1, 0, 0, -1, 0, 122)" gradientUnits="userSpaceOnUse"><stop offset="0" stop-opacity="0.1"/><stop offset="1" stop-opacity="0.05"/></linearGradient></defs><title>96</title><g id="白色"><g id="_96" data-name="96"><g id="_48" data-name=" 48"><path class="cls-1" d="M23,89.5A8.51,8.51,0,0,1,14.5,81V15A8.51,8.51,0,0,1,23,6.5H73A8.51,8.51,0,0,1,81.5,15V68.79L60.79,89.5Z"/><path class="cls-2" d="M73,7a8,8,0,0,1,8,8V68.59L60.59,89H23a8,8,0,0,1-8-8V15a8,8,0,0,1,8-8H73m0-1H23a9,9,0,0,0-9,9V81a9,9,0,0,0,9,9H61L82,69V15a9,9,0,0,0-9-9Z"/></g><path class="cls-3" d="M67,69H82L61,90V75A6,6,0,0,1,67,69Z"/><path class="cls-4" d="M43,44.09A11.5,11.5,0,1,1,55.25,25"/><path class="cls-4" d="M49,47.4A11.5,11.5,0,1,1,37,67"/><path class="cls-5" d="M49,47.4A11.5,11.5,0,1,1,37,67"/><path class="cls-5" d="M43,44.09A11.5,11.5,0,1,1,55.25,25"/><path class="cls-6" d="M26,35a2,2,0,1,1-2,2,2,2,0,0,1,2-2m0-2a4,4,0,1,0,4,4,4,4,0,0,0-4-4Z"/><path class="cls-6" d="M66,52a2,2,0,1,1-2,2,2,2,0,0,1,2-2m0-2a4,4,0,1,0,4,4,4,4,0,0,0-4-4Z"/><line class="cls-7" x1="43" y1="44.34" x2="29.5" y2="38.5"/><line class="cls-7" x1="63" y1="53" x2="49.14" y2="47"/><path class="cls-8" d="M48,44v4H44V44h4m2-2H42v8h8V42Z"/><path class="cls-8" d="M36,64v4H32V64h4m2-2H30v8h8V62Z"/><path class="cls-8" d="M60,25v4H56V25h4m2-2H54v8h8V23Z"/></g></g></svg>