<svg xmlns="http://www.w3.org/2000/svg" xmlns:xlink="http://www.w3.org/1999/xlink" viewBox="0 0 96 96"><defs><style>.cls-1{fill:url(#未命名的渐变_46);}.cls-2{fill:#c4c6cc;}.cls-3{fill:url(#未命名的渐变_250);}.cls-4{fill:url(#未命名的渐变_55);}.cls-5{fill:url(#未命名的渐变_2);}.cls-6{fill:#4d4d4d;}.cls-7{fill:#f2f2f2;}.cls-8{fill:#333;}.cls-11,.cls-9{fill:#e6e6e6;}.cls-9{opacity:0.4;isolation:isolate;}.cls-10{fill:#fff;}.cls-12{fill:#1a1a1a;}.cls-13{fill:#ea6a42;}.cls-14{fill:#d9d9d9;}.cls-15{fill:url(#未命名的渐变_3);}</style><linearGradient id="未命名的渐变_46" x1="48" y1="89.5" x2="48" y2="6.5" gradientUnits="userSpaceOnUse"><stop offset="0" stop-color="#d6d9e6"/><stop offset="1" stop-color="#f5f5f5"/></linearGradient><linearGradient id="未命名的渐变_250" x1="63.66" y1="49.03" x2="70.48" y2="43.35" gradientTransform="matrix(1, 0, 0, -1, 0, 122)" gradientUnits="userSpaceOnUse"><stop offset="0" stop-opacity="0.1"/><stop offset="1" stop-opacity="0.05"/></linearGradient><radialGradient id="未命名的渐变_55" cx="-439.48" cy="1265.9" fx="-456.48850464966495" r="24.71" gradientTransform="matrix(0.07, 0.7, 0.79, -0.08, -923.92, 443.25)" gradientUnits="userSpaceOnUse"><stop offset="0.01" stop-color="#49453a"/><stop offset="0.52" stop-color="#7c7667"/><stop offset="1" stop-color="#4c4940"/></radialGradient><radialGradient id="未命名的渐变_2" cx="86.76" cy="274.53" r="10.07" gradientTransform="matrix(0.57, 0.41, 0.41, -0.57, -131.46, 161.83)" gradientUnits="userSpaceOnUse"><stop offset="0" stop-color="#4d4d4d"/><stop offset="0.55" stop-color="#2f2f2f"/><stop offset="1" stop-color="#1a1a1a"/></radialGradient><linearGradient id="未命名的渐变_3" x1="66.32" y1="62.59" x2="68.3" y2="62.59" gradientTransform="matrix(1, 0, 0, -1, 0, 122)" gradientUnits="userSpaceOnUse"><stop offset="0.09" stop-color="#1a1a1a"/><stop offset="0.49" stop-color="#2b2b2b"/><stop offset="1" stop-color="#1a1a1a"/></linearGradient></defs><title>96</title><g id="白色"><g id="_96" data-name="96"><g id="_48" data-name=" 48"><path class="cls-1" d="M23,89.5A8.51,8.51,0,0,1,14.5,81V15A8.51,8.51,0,0,1,23,6.5H73A8.51,8.51,0,0,1,81.5,15V68.79L60.79,89.5Z"/><path class="cls-2" d="M73,7a8,8,0,0,1,8,8V68.59L60.59,89H23a8,8,0,0,1-8-8V15a8,8,0,0,1,8-8H73m0-1H23a9,9,0,0,0-9,9V81a9,9,0,0,0,9,9H61L82,69V15a9,9,0,0,0-9-9Z"/></g><path class="cls-3" d="M67,69H82L61,90V75A6,6,0,0,1,67,69Z"/><path class="cls-4" d="M34.11,27.54s6.23,6.09,14.77,6.23C55.82,33.88,66.09,26,66.3,25c0,0,4.2,24.62-10.45,28.3C43.11,56.52,31,45,27.39,42a14,14,0,0,1,11.45-1.56S33.87,34.26,34.11,27.54Z"/><ellipse class="cls-5" cx="29.43" cy="41.45" rx="4.99" ry="6.93" transform="translate(-16.21 19.06) rotate(-28.49)"/><ellipse class="cls-6" cx="28.09" cy="38.9" rx="2.28" ry="3.06" transform="translate(-15.13 18.06) rotate(-28.42)"/><ellipse class="cls-7" cx="49.98" cy="37.29" rx="5.5" ry="5.88" transform="translate(5.9 81.39) rotate(-81.74)"/><ellipse class="cls-8" cx="51" cy="39.12" rx="2.26" ry="2.42" transform="translate(4.96 83.98) rotate(-81.74)"/><ellipse cx="50.83" cy="38.88" rx="1.04" ry="1.11" transform="translate(5.06 83.6) rotate(-81.74)"/><ellipse class="cls-9" cx="49.69" cy="36.26" rx="2.4" ry="2.78" transform="matrix(0.89, -0.46, 0.46, 0.89, -11.16, 27.22)"/><ellipse class="cls-10" cx="49.98" cy="37.11" rx="1.1" ry="1.18" transform="translate(6.08 81.24) rotate(-81.74)"/><ellipse class="cls-7" cx="38.89" cy="38.41" rx="4.16" ry="4.19" transform="translate(-0.52 0.53) rotate(-0.78)"/><ellipse class="cls-8" cx="39.69" cy="39.55" rx="1.67" ry="1.67" transform="translate(-0.53 0.54) rotate(-0.78)"/><circle cx="39.69" cy="39.55" r="0.91"/><ellipse class="cls-9" cx="38.66" cy="37.38" rx="1.67" ry="2.11" transform="translate(-13.51 24.34) rotate(-30)"/><circle class="cls-10" cx="39.05" cy="37.82" r="0.91"/><ellipse class="cls-11" cx="27.69" cy="38.16" rx="1.97" ry="2.21" transform="translate(-14.4 16.92) rotate(-27.26)"/><path class="cls-12" d="M50.05,47.61s6.06,1,7.76-.91c0,0-.48-1-1.17-1,0,0,1-.6,1.78.92.82,1.67.21,2.37.21,2.37a5.36,5.36,0,0,0-.42-1.36C57.32,48.55,53.55,49.11,50.05,47.61Z"/><path class="cls-13" d="M58,47.4s5.6,3.68,6,4.54-1.15,1.57-2,.79c-.7-.61-4.74-4.52-4.91-4.84S57.43,47,58,47.4Z"/><path class="cls-14" d="M62.3,52.78a.7.7,0,0,0,.31.39,43.24,43.24,0,0,0,3.65,3.12c.42.19,1.34-.43,1.15-1.1a10.33,10.33,0,0,0-3.73-3.37A1.17,1.17,0,0,0,62.3,52.78Z"/><path class="cls-12" d="M70,55.62a2.81,2.81,0,0,0-3.1-.25,2.88,2.88,0,0,0-1.09,3.81c.79,1.4,3.09,4.35,6.3,3.74C71.34,59.6,71.23,56.66,70,55.62Z"/><path class="cls-15" d="M66.32,57.94A3.17,3.17,0,0,0,68,60.81c.64.31.21-.7-.7-1.4A2.25,2.25,0,0,1,66.32,57.94Z"/></g></g></svg>