<svg xmlns="http://www.w3.org/2000/svg" xmlns:xlink="http://www.w3.org/1999/xlink" viewBox="0 0 96 96"><defs><style>.cls-1{fill:url(#未命名的渐变_79);}.cls-2{fill:url(#未命名的渐变_204);}.cls-3{fill:#fff;}</style><linearGradient id="未命名的渐变_79" x1="48" y1="708" x2="48" y2="792" gradientTransform="translate(0 -702)" gradientUnits="userSpaceOnUse"><stop offset="0" stop-color="#f34236"/><stop offset="1" stop-color="#e23932"/></linearGradient><linearGradient id="未命名的渐变_204" x1="63.92" y1="775.19" x2="70.54" y2="780.7" gradientTransform="translate(0 -702)" gradientUnits="userSpaceOnUse"><stop offset="0" stop-color="#fff" stop-opacity="0.4"/><stop offset="1" stop-color="#fff" stop-opacity="0.2"/></linearGradient></defs><title>96</title><g id="阅读器"><g id="_96" data-name="96"><g id="底色-浅橙"><path id="_48" data-name=" 48" class="cls-1" d="M82,69V15a9,9,0,0,0-9-9H23a9,9,0,0,0-9,9V81a9,9,0,0,0,9,9H61.16Z"/><path class="cls-2" d="M68,69H82L61,90V76A7,7,0,0,1,68,69Z"/></g><path class="cls-3" d="M36,62l-7,0a5,5,0,0,1-5-5V34a5,5,0,0,1,5-5H41.53L28.06,45A13.92,13.92,0,0,1,38.7,46.19c4.92,2.51,5.33,6.7,5.33,6.7a7.15,7.15,0,0,1-1.67,5.56C39.64,61.27,37.84,62,36,62Z"/><path class="cls-3" d="M67,62H39s1.83-.08,4.49-2.49c4.4-4,15-30.51,15-30.51H67a5,5,0,0,1,5,5V57A5,5,0,0,1,67,62Z"/><path class="cls-3" d="M34.49,41.09A9.16,9.16,0,0,1,39.06,43c3.72,2.54,6.76,6.77,6.26,11.5A6.93,6.93,0,0,0,46,51.24c0-3.38-1.86-6.77-4.06-9.13a7.78,7.78,0,0,0-2.53-2.2L50.73,26.55l2.7-3.22c.17-.17.85-.84.68-1.18s-.84-.51-1-.68c-.34-.17-1-.51-1.36-.34s-.67.68-1,1l-2,2.37L38.89,36S34.66,40.41,34.49,41.09Z"/><path class="cls-3" d="M47,22.49,33.89,38.08V34.54L44.31,22.75a1.65,1.65,0,0,1,1.11-.45A7.91,7.91,0,0,1,47,22.49Z"/></g></g></svg>