<svg xmlns="http://www.w3.org/2000/svg" xmlns:xlink="http://www.w3.org/1999/xlink" viewBox="0 0 128 128"><defs><style>.cls-1{fill:url(#未命名的渐变_57);}.cls-2{fill:url(#未命名的渐变_215);}.cls-3{fill:#fff;}.cls-4{fill:none;stroke:#fff;stroke-miterlimit:10;stroke-width:4px;}</style><linearGradient id="未命名的渐变_57" x1="64" y1="710" x2="64" y2="822" gradientTransform="translate(0 -702)" gradientUnits="userSpaceOnUse"><stop offset="0" stop-color="#f88f52"/><stop offset="1" stop-color="#f46e34"/></linearGradient><linearGradient id="未命名的渐变_215" x1="84.81" y1="799.51" x2="93.71" y2="806.92" gradientTransform="translate(0 -702)" gradientUnits="userSpaceOnUse"><stop offset="0" stop-color="#fff" stop-opacity="0.4"/><stop offset="1" stop-color="#fff" stop-opacity="0.2"/></linearGradient></defs><title>128</title><g id="Jblender"><g id="_128" data-name="128"><g id="底色-浅橙"><path id="_48" data-name=" 48" class="cls-1" d="M109,92V20A12,12,0,0,0,97,8H31A12,12,0,0,0,19,20v88a12,12,0,0,0,12,12H81Z"/><path class="cls-2" d="M90,92h19L81,120V101A9,9,0,0,1,90,92Z"/></g><path class="cls-3" d="M64,34.56l22,12v26L64,84.45,42,72.53v-26l22-12M64,30,38,44.18V74.91L64,89,90,74.91V44.18L64,30Z"/><polyline class="cls-4" points="40.36 45.36 64 58.36 87.64 45.36"/><line class="cls-4" x1="64" y1="58.36" x2="64" y2="85.55"/></g></g></svg>