<svg xmlns="http://www.w3.org/2000/svg" xmlns:xlink="http://www.w3.org/1999/xlink" viewBox="0 0 96 96"><defs><style>.cls-1{fill:url(#未命名的渐变_8);}.cls-2{fill:url(#未命名的渐变_184);}.cls-3{opacity:0.7;}.cls-4,.cls-5{fill:none;stroke:#fff;stroke-miterlimit:10;}.cls-4{stroke-width:2px;}.cls-5{stroke-width:3px;}.cls-6{fill:#fff;}</style><linearGradient id="未命名的渐变_8" x1="48" y1="32" x2="48" y2="116" gradientTransform="matrix(1, 0, 0, -1, 0, 122)" gradientUnits="userSpaceOnUse"><stop offset="0" stop-color="#3882d9"/><stop offset="1" stop-color="#4aa6e5"/></linearGradient><linearGradient id="未命名的渐变_184" x1="63.66" y1="49.03" x2="70.48" y2="43.35" gradientTransform="matrix(1, 0, 0, -1, 0, 122)" gradientUnits="userSpaceOnUse"><stop offset="0" stop-color="#fff" stop-opacity="0.4"/><stop offset="1" stop-color="#fff" stop-opacity="0.2"/></linearGradient></defs><title>96</title><g id="sql"><g id="_96" data-name="96"><path id="_48" data-name=" 48" class="cls-1" d="M82,69V15a9,9,0,0,0-9-9H23a9,9,0,0,0-9,9V81a9,9,0,0,0,9,9H61Z"/><path class="cls-2" d="M67,69H82L61,90V75A6,6,0,0,1,67,69Z"/><g class="cls-3"><polyline class="cls-4" points="57 60 57 71 62 71"/><rect class="cls-4" x="46" y="61" width="6" height="10"/><line class="cls-4" x1="50" y1="69" x2="53.7" y2="72.7"/><polyline class="cls-4" points="34 66 41 66 41 71 34 71"/><polyline class="cls-4" points="42 66 35 66 35 61 42 61"/></g><path class="cls-5" d="M64.5,48c0,3.58-7.39,6.48-16.5,6.48S31.5,51.6,31.5,48"/><path class="cls-5" d="M64.5,39c0,3.58-7.39,6.48-16.5,6.48S31.5,42.6,31.5,39"/><path class="cls-5" d="M64.5,30c0,3.58-7.39,6.48-16.5,6.48S31.5,33.6,31.5,30"/><path class="cls-6" d="M48,19c8.87,0,14,2.36,14.91,3.5C62,23.64,56.87,26,48,26s-14-2.36-14.91-3.5C34,21.36,39.13,19,48,19m0-3c-9.94,0-18,2.91-18,6.5S38.06,29,48,29s18-2.91,18-6.5S57.94,16,48,16Z"/><line class="cls-5" x1="64.5" y1="22.98" x2="64.5" y2="48"/><line class="cls-5" x1="31.5" y1="22.98" x2="31.5" y2="48"/></g></g></svg>