<svg xmlns="http://www.w3.org/2000/svg" xmlns:xlink="http://www.w3.org/1999/xlink" viewBox="0 0 96 96"><defs><style>.cls-1{fill:url(#未命名的渐变_46);}.cls-2{fill:#c4c6cc;}.cls-3{fill:url(#未命名的渐变_250);}.cls-4{fill:#fda463;}.cls-5{fill:none;stroke:#8e8e8e;stroke-linecap:round;stroke-miterlimit:10;stroke-width:2px;}.cls-6{fill:#37a6e6;}</style><linearGradient id="未命名的渐变_46" x1="48" y1="89.5" x2="48" y2="6.5" gradientUnits="userSpaceOnUse"><stop offset="0" stop-color="#d6d9e6"/><stop offset="1" stop-color="#f5f5f5"/></linearGradient><linearGradient id="未命名的渐变_250" x1="63.66" y1="49.03" x2="70.48" y2="43.35" gradientTransform="matrix(1, 0, 0, -1, 0, 122)" gradientUnits="userSpaceOnUse"><stop offset="0" stop-opacity="0.1"/><stop offset="1" stop-opacity="0.05"/></linearGradient></defs><title>96</title><g id="白色"><g id="_96" data-name="96"><g id="_48" data-name=" 48"><path class="cls-1" d="M23,89.5A8.51,8.51,0,0,1,14.5,81V15A8.51,8.51,0,0,1,23,6.5H73A8.51,8.51,0,0,1,81.5,15V68.79L60.79,89.5Z"/><path class="cls-2" d="M73,7a8,8,0,0,1,8,8V68.59L60.59,89H23a8,8,0,0,1-8-8V15a8,8,0,0,1,8-8H73m0-1H23a9,9,0,0,0-9,9V81a9,9,0,0,0,9,9H61L82,69V15a9,9,0,0,0-9-9Z"/></g><path class="cls-3" d="M67,69H82L61,90V75A6,6,0,0,1,67,69Z"/><path class="cls-4" d="M38,26A11,11,0,1,0,49,37H38Z"/><line class="cls-5" x1="27" y1="64" x2="52" y2="64"/><line class="cls-5" x1="27" y1="58" x2="68" y2="58"/><line class="cls-5" x1="27" y1="52" x2="68" y2="52"/><line class="cls-5" x1="56" y1="45" x2="68" y2="45"/><line class="cls-5" x1="56" y1="39" x2="68" y2="39"/><line class="cls-5" x1="56" y1="33" x2="68" y2="33"/><line class="cls-5" x1="56" y1="27" x2="68" y2="27"/><path class="cls-6" d="M52,34A11,11,0,0,0,41,23V34Z"/></g></g></svg>