<svg xmlns="http://www.w3.org/2000/svg" xmlns:xlink="http://www.w3.org/1999/xlink" viewBox="0 0 96 96"><defs><style>.cls-1{fill:url(#未命名的渐变_7);}.cls-2{fill:url(#未命名的渐变_184);}.cls-3{fill:#fff;}</style><linearGradient id="未命名的渐变_7" x1="48" y1="32" x2="48" y2="116" gradientTransform="matrix(1, 0, 0, -1, 0, 122)" gradientUnits="userSpaceOnUse"><stop offset="0" stop-color="#168ccc"/><stop offset="1" stop-color="#34d7da"/></linearGradient><linearGradient id="未命名的渐变_184" x1="63.66" y1="49.03" x2="70.48" y2="43.35" gradientTransform="matrix(1, 0, 0, -1, 0, 122)" gradientUnits="userSpaceOnUse"><stop offset="0" stop-color="#fff" stop-opacity="0.4"/><stop offset="1" stop-color="#fff" stop-opacity="0.2"/></linearGradient></defs><title>96</title><g id="markdown"><g id="_96" data-name="96"><path id="_48" data-name=" 48" class="cls-1" d="M82,69V15a9,9,0,0,0-9-9H23a9,9,0,0,0-9,9V81a9,9,0,0,0,9,9H61Z"/><path class="cls-2" d="M67,69H82L61,90V75A6,6,0,0,1,67,69Z"/><path class="cls-3" d="M68,35V57H28V35H68m0-4H28a4,4,0,0,0-4,4V57a4,4,0,0,0,4,4H68a4,4,0,0,0,4-4V35a4,4,0,0,0-4-4Z"/><polygon class="cls-3" points="32 39 32 53 36 53 36 44 40 49 44 44 44 53 48 53 48 39 43 39 40 43 37 39 32 39"/><rect class="cls-3" x="56" y="39" width="4" height="11"/><polygon class="cls-3" points="52 47 64 47 58 53 52 47"/></g></g></svg>