<svg xmlns="http://www.w3.org/2000/svg" xmlns:xlink="http://www.w3.org/1999/xlink" viewBox="0 0 96 96"><defs><style>.cls-1{fill:url(#未命名的渐变_46);}.cls-2{fill:#c4c6cc;}.cls-3{fill:url(#未命名的渐变_250);}.cls-4,.cls-5,.cls-6,.cls-7{fill:none;stroke-miterlimit:10;stroke-width:2px;}.cls-4{stroke:#76c22b;}.cls-5{stroke:#46a926;}.cls-6{stroke:#f66777;}.cls-7{stroke:#9a83e7;}</style><linearGradient id="未命名的渐变_46" x1="48" y1="89.5" x2="48" y2="6.5" gradientUnits="userSpaceOnUse"><stop offset="0" stop-color="#d6d9e6"/><stop offset="1" stop-color="#f5f5f5"/></linearGradient><linearGradient id="未命名的渐变_250" x1="63.66" y1="49.03" x2="70.48" y2="43.35" gradientTransform="matrix(1, 0, 0, -1, 0, 122)" gradientUnits="userSpaceOnUse"><stop offset="0" stop-opacity="0.1"/><stop offset="1" stop-opacity="0.05"/></linearGradient></defs><title>96</title><g id="白色"><g id="_96" data-name="96"><g id="_48" data-name=" 48"><path class="cls-1" d="M23,89.5A8.51,8.51,0,0,1,14.5,81V15A8.51,8.51,0,0,1,23,6.5H73A8.51,8.51,0,0,1,81.5,15V68.79L60.79,89.5Z"/><path class="cls-2" d="M73,7a8,8,0,0,1,8,8V68.59L60.59,89H23a8,8,0,0,1-8-8V15a8,8,0,0,1,8-8H73m0-1H23a9,9,0,0,0-9,9V81a9,9,0,0,0,9,9H61L82,69V15a9,9,0,0,0-9-9Z"/></g><path class="cls-3" d="M67,69H82L61,90V75A6,6,0,0,1,67,69Z"/><line class="cls-4" x1="26" y1="70" x2="53" y2="70"/><line class="cls-4" x1="44" y1="65" x2="71" y2="65"/><line class="cls-5" x1="26" y1="65" x2="41" y2="65"/><line class="cls-6" x1="60" y1="60" x2="71" y2="60"/><line class="cls-4" x1="33" y1="60" x2="56" y2="60"/><line class="cls-4" x1="44" y1="55" x2="56" y2="55"/><line class="cls-5" x1="26" y1="55" x2="41" y2="55"/><line class="cls-7" x1="33" y1="50" x2="59" y2="50"/><line class="cls-6" x1="48" y1="45" x2="59" y2="45"/><line class="cls-7" x1="33" y1="45" x2="44" y2="45"/><line class="cls-7" x1="33" y1="40" x2="48" y2="40"/><line class="cls-5" x1="26" y1="35" x2="41" y2="35"/><line class="cls-4" x1="37" y1="30" x2="52" y2="30"/><line class="cls-5" x1="26" y1="30" x2="33" y2="30"/><line class="cls-4" x1="37" y1="25" x2="71" y2="25"/><line class="cls-5" x1="26" y1="25" x2="33" y2="25"/><line class="cls-4" x1="37" y1="20" x2="59" y2="20"/><line class="cls-5" x1="26" y1="20" x2="33" y2="20"/></g></g></svg>