<svg xmlns="http://www.w3.org/2000/svg" xmlns:xlink="http://www.w3.org/1999/xlink" viewBox="0 0 96 96"><defs><style>.cls-1{fill:url(#未命名的渐变_46);}.cls-2{fill:#c4c6cc;}.cls-3{fill:url(#未命名的渐变_250);}.cls-4{fill:#597fe4;}</style><linearGradient id="未命名的渐变_46" x1="48" y1="89.5" x2="48" y2="6.5" gradientUnits="userSpaceOnUse"><stop offset="0" stop-color="#d6d9e6"/><stop offset="1" stop-color="#f5f5f5"/></linearGradient><linearGradient id="未命名的渐变_250" x1="63.66" y1="49.03" x2="70.48" y2="43.35" gradientTransform="matrix(1, 0, 0, -1, 0, 122)" gradientUnits="userSpaceOnUse"><stop offset="0" stop-opacity="0.1"/><stop offset="1" stop-opacity="0.05"/></linearGradient></defs><title>96</title><g id="白色"><g id="_96" data-name="96"><g id="_48" data-name=" 48"><path class="cls-1" d="M23,89.5A8.51,8.51,0,0,1,14.5,81V15A8.51,8.51,0,0,1,23,6.5H73A8.51,8.51,0,0,1,81.5,15V68.79L60.79,89.5Z"/><path class="cls-2" d="M73,7a8,8,0,0,1,8,8V68.59L60.59,89H23a8,8,0,0,1-8-8V15a8,8,0,0,1,8-8H73m0-1H23a9,9,0,0,0-9,9V81a9,9,0,0,0,9,9H61L82,69V15a9,9,0,0,0-9-9Z"/></g><path class="cls-3" d="M67,69H82L61,90V75A6,6,0,0,1,67,69Z"/><path class="cls-4" d="M58.91,49.78,64,51.07a17.27,17.27,0,0,1-5.76,9.62A15.78,15.78,0,0,1,48.08,64,18.18,18.18,0,0,1,38,61.45,15.9,15.9,0,0,1,32,54.08a26.56,26.56,0,0,1-2-10.37,22.77,22.77,0,0,1,2.3-10.54,15.69,15.69,0,0,1,6.53-6.83A18.94,18.94,0,0,1,48.15,24a15.71,15.71,0,0,1,9.71,3,15.35,15.35,0,0,1,5.48,8.31l-5,1.18a11.9,11.9,0,0,0-3.88-6.14,10.28,10.28,0,0,0-6.4-1.93,12.33,12.33,0,0,0-7.41,2.14,11.24,11.24,0,0,0-4.19,5.74,23.3,23.3,0,0,0-1.2,7.42,23.63,23.63,0,0,0,1.43,8.62,10.68,10.68,0,0,0,4.44,5.5,12.46,12.46,0,0,0,6.54,1.82,10.93,10.93,0,0,0,7.24-2.48A12.74,12.74,0,0,0,58.91,49.78Z"/></g></g></svg>