<svg xmlns="http://www.w3.org/2000/svg" xmlns:xlink="http://www.w3.org/1999/xlink" viewBox="0 0 96 96"><defs><style>.cls-1{fill:url(#未命名的渐变_63);}.cls-2{fill:url(#未命名的渐变_228);}.cls-3{fill:none;stroke:#fff;stroke-miterlimit:10;stroke-width:3px;}</style><linearGradient id="未命名的渐变_63" x1="48" y1="32" x2="48" y2="116" gradientTransform="matrix(1, 0, 0, -1, 0, 122)" gradientUnits="userSpaceOnUse"><stop offset="0" stop-color="#b238aa"/><stop offset="1" stop-color="#da68cd"/></linearGradient><linearGradient id="未命名的渐变_228" x1="63.66" y1="49.03" x2="70.48" y2="43.35" gradientTransform="matrix(1, 0, 0, -1, 0, 122)" gradientUnits="userSpaceOnUse"><stop offset="0" stop-color="#fff" stop-opacity="0.4"/><stop offset="1" stop-color="#fff" stop-opacity="0.2"/></linearGradient></defs><title>96</title><g id="文档"><g id="_96" data-name="96"><path id="_48" data-name=" 48" class="cls-1" d="M82,69V15a9,9,0,0,0-9-9H23a9,9,0,0,0-9,9V81a9,9,0,0,0,9,9H61Z"/><path class="cls-2" d="M67,69H82L61,90V75A6,6,0,0,1,67,69Z"/><path class="cls-3" d="M40.36,53.64,27,46l13.36-7.64"/><line class="cls-3" x1="51.95" y1="31.25" x2="44.05" y2="60.75"/><path class="cls-3" d="M55.64,38.36,69,46,55.64,53.64"/></g></g></svg>