<svg xmlns="http://www.w3.org/2000/svg" xmlns:xlink="http://www.w3.org/1999/xlink" viewBox="0 0 96 96"><defs><style>.cls-1{fill:url(#未命名的渐变_46);}.cls-2{fill:#c4c6cc;}.cls-3{fill:url(#未命名的渐变_256);}.cls-4{fill:#d861ba;}</style><linearGradient id="未命名的渐变_46" x1="48" y1="32.5" x2="48" y2="115.5" gradientTransform="matrix(1, 0, 0, -1, 0, 122)" gradientUnits="userSpaceOnUse"><stop offset="0" stop-color="#d6d9e6"/><stop offset="1" stop-color="#f5f5f5"/></linearGradient><linearGradient id="未命名的渐变_256" x1="63.66" y1="49.03" x2="70.48" y2="43.35" gradientTransform="matrix(1, 0, 0, -1, 0, 122)" gradientUnits="userSpaceOnUse"><stop offset="0" stop-opacity="0.1"/><stop offset="1" stop-opacity="0.05"/></linearGradient></defs><title>96</title><g id="文档"><g id="_96" data-name="96"><g id="_48" data-name=" 48"><path class="cls-1" d="M23,89.5A8.51,8.51,0,0,1,14.5,81V15A8.51,8.51,0,0,1,23,6.5H73A8.51,8.51,0,0,1,81.5,15V68.79L60.79,89.5Z"/><path class="cls-2" d="M73,7a8,8,0,0,1,8,8V68.59L60.59,89H23a8,8,0,0,1-8-8V15a8,8,0,0,1,8-8H73m0-1H23a9,9,0,0,0-9,9V81a9,9,0,0,0,9,9H61L82,69V15a9,9,0,0,0-9-9Z"/></g><path class="cls-3" d="M67,69H82L61,90V75A6,6,0,0,1,67,69Z"/><path class="cls-4" d="M70.22,48.27c-1.74-2-4.54-3.53-9.76-1.46-.35.13-1.63-2.33-.61-5.92.15-.53-2.47-1-2.79,0-.38,1.22-2.59,6.63-3.15,6.63-.76,0-.91-3.24-.44-5.44.06-.31-1.35-.25-2.18-.22a.39.39,0,0,0-.35.25c-.59,1.44-3.7,9-4.06,9.75s-.71,1.57-1,.6,1-4,1.3-5.49c.1-.54-.59-1.34-1.53-.62-.17.13.61-2.7-1.24-2.88-2.8-.27-2.89,1.82-4.65,3.1a33.76,33.76,0,0,1-4,2.12.38.38,0,0,1-.42,0c-.94-.75-5.09-4.08-5.88-5.27-1.77-2.68-1.34-4.37.19-6.57,1.92-2.78,8.09-6.75,13-7.78s8.5,0,8.78,2.39c.4,3.4-2.69,5.77-4.11,6.64a12,12,0,0,1-7.35,2.26c-3-.06-3.91-1.52-4.31-1.52s.11,2.17,2.5,2.77a14.5,14.5,0,0,0,10.58-1.87c3.66-2.54,5-4.69,5.19-7.58a5.05,5.05,0,0,0-2.8-5.19c-3.6-1.57-9.57-1.19-15.16,1.6s-9.33,6.13-10.57,9.37c-1.14,3,.85,5.93,2.39,7.19,1.84,1.49,5.61,4.18,6.12,4.68S27.66,51.62,26.44,56c-.9,3.19.41,4.61,3.2,4.61a7.89,7.89,0,0,0,6.47-4.11,8.77,8.77,0,0,0,.2-6.59,15.56,15.56,0,0,1,2.59-1.39c.37.32-1.69,4.47.5,6.92,1.45,1.62,2.25.85,2.85.25s1.44-3.58,1.64-3.78-.8,4.19,1.4,3.59,5-8.58,5.38-9.58c.57-1.39.72,2.9,1.8,3.59.36.24-2.59,3.2-3,3.79-.68,1-.65,1.83,1,1.83s4.63-1.53,4.63-3.44c0-2.44-.81-2.06-.59-2.62s2.35-4,2.75-4.68c.28-.49.27,2.18,1.3,3.21.71.71-2.66,1.31-2.66,4.71,0,1.85,1.84,1.22,2.41,1,.84-.34,3.46-1.17,2.78-5.28-.13-.75,6.11-1.22,7.78.7.84,1,2.44,3.56-.6,4.78-.43.18.56.76,1.79-.2A4,4,0,0,0,70.22,48.27ZM35,53.91c-.76,3.06-5.55,5.55-5.9,3.57-.76-4.19,5.62-7.17,5.88-6.91S35.64,51.54,35,53.91ZM42.45,52c-.54,1.14-1.35,2.52-1.65.92a8.87,8.87,0,0,1,1.63-6.55c1.68-2.37,2.11-.71,2.11-.71C44.54,47.47,43,50.78,42.45,52Zm9.71,1.1c-1,1.14-1.61.71-1.23,0,.24-.45,1.78-2.28,2-2.19C53.46,51.08,53.24,51.82,52.16,53.1Zm5.34-1c-1.07-.65,1.53-3.3,1.74-3.23C60,49.12,58.55,52.74,57.5,52.1Z"/></g></g></svg>