<svg xmlns="http://www.w3.org/2000/svg" xmlns:xlink="http://www.w3.org/1999/xlink" viewBox="0 0 96 96"><defs><style>.cls-1{fill:url(#未命名的渐变_14);}.cls-2{fill:url(#未命名的渐变_184);}.cls-3{fill:none;stroke:#fff;stroke-linecap:round;stroke-linejoin:round;stroke-width:2px;}.cls-4{fill:#fff;}</style><linearGradient id="未命名的渐变_14" x1="48" y1="32" x2="48" y2="116" gradientTransform="matrix(1, 0, 0, -1, 0, 122)" gradientUnits="userSpaceOnUse"><stop offset="0" stop-color="#7665ac"/><stop offset="1" stop-color="#897cb8"/></linearGradient><linearGradient id="未命名的渐变_184" x1="63.66" y1="49.03" x2="70.48" y2="43.35" gradientTransform="matrix(1, 0, 0, -1, 0, 122)" gradientUnits="userSpaceOnUse"><stop offset="0" stop-color="#fff" stop-opacity="0.4"/><stop offset="1" stop-color="#fff" stop-opacity="0.2"/></linearGradient></defs><title>96</title><g id="bittorrent"><g id="_96" data-name="96"><path id="_48" data-name=" 48" class="cls-1" d="M82,69V15a9,9,0,0,0-9-9H23a9,9,0,0,0-9,9V81a9,9,0,0,0,9,9H61Z"/><path class="cls-2" d="M67,69H82L61,90V75A6,6,0,0,1,67,69Z"/><path class="cls-3" d="M32,53H30a2,2,0,0,1-2-2V35"/><path class="cls-3" d="M43,53H38a4,4,0,0,1-4-4V45a4,4,0,0,1,4-4h2a4,4,0,0,1,4,4v2"/><line class="cls-3" x1="34" y1="47" x2="44" y2="47"/><path class="cls-3" d="M50,47h3a3,3,0,0,1,3,3h0a3,3,0,0,1-3,3H47.5"/><path class="cls-3" d="M53,47H50a3,3,0,0,1-3-3h0a3,3,0,0,1,3-3h3a3,3,0,0,1,3,3"/><path class="cls-3" d="M62,47h3a3,3,0,0,1,3,3h0a3,3,0,0,1-3,3H59.5"/><path class="cls-3" d="M65,47H62a3,3,0,0,1-3-3h0a3,3,0,0,1,3-3h3a3,3,0,0,1,3,3"/><path class="cls-4" d="M25.5,59c-1.55,0-4.77-.36-4.77-4.17a30.66,30.66,0,0,1,.3-4.25,28.85,28.85,0,0,0,.29-3.17c0-1.39-.11-2.89-3.32-3.11v-.6c3.21-.22,3.32-1.75,3.32-3.07a26.2,26.2,0,0,0-.25-3.18,33.47,33.47,0,0,1-.34-4.28C20.73,29.36,24,29,25.5,29v.43c-2.66.39-3,1.75-3,3.35a33.84,33.84,0,0,0,.3,3.5c.11,1,.44,2.78.44,3.71a3.73,3.73,0,0,1-3.1,4v.1a3.78,3.78,0,0,1,3.1,4,33.45,33.45,0,0,1-.4,3.67,26.4,26.4,0,0,0-.34,3.53c0,1.54.34,2.89,3,3.32Z"/><path class="cls-4" d="M70.5,29c1.55,0,4.77.36,4.77,4.17a38.71,38.71,0,0,1-.3,4.25c-.15,1.5-.29,2.39-.29,3.17,0,1.39.11,2.89,3.32,3.11v.6c-3.21.22-3.32,1.75-3.32,3.07a26.2,26.2,0,0,0,.25,3.18,33.47,33.47,0,0,1,.34,4.28C75.27,58.64,72,59,70.5,59v-.43c2.66-.39,3-1.75,3-3.35a33.84,33.84,0,0,0-.3-3.5c-.11-1-.44-2.78-.44-3.71a3.73,3.73,0,0,1,3.1-4V44a3.78,3.78,0,0,1-3.1-4,33.45,33.45,0,0,1,.4-3.67,26.4,26.4,0,0,0,.34-3.53c0-1.54-.34-2.89-3-3.32Z"/></g></g></svg>