<svg xmlns="http://www.w3.org/2000/svg" xmlns:xlink="http://www.w3.org/1999/xlink" viewBox="0 0 96 96"><defs><style>.cls-1{fill:url(#未命名的渐变_46);}.cls-2{fill:#c4c6cc;}.cls-3{fill:url(#未命名的渐变_250);}.cls-4{fill:#898989;}</style><linearGradient id="未命名的渐变_46" x1="48" y1="89.5" x2="48" y2="6.5" gradientUnits="userSpaceOnUse"><stop offset="0" stop-color="#d6d9e6"/><stop offset="1" stop-color="#f5f5f5"/></linearGradient><linearGradient id="未命名的渐变_250" x1="63.66" y1="49.03" x2="70.48" y2="43.35" gradientTransform="matrix(1, 0, 0, -1, 0, 122)" gradientUnits="userSpaceOnUse"><stop offset="0" stop-opacity="0.1"/><stop offset="1" stop-opacity="0.05"/></linearGradient></defs><title>96</title><g id="白色"><g id="_96" data-name="96"><g id="_48" data-name=" 48"><path class="cls-1" d="M23,89.5A8.51,8.51,0,0,1,14.5,81V15A8.51,8.51,0,0,1,23,6.5H73A8.51,8.51,0,0,1,81.5,15V68.79L60.79,89.5Z"/><path class="cls-2" d="M73,7a8,8,0,0,1,8,8V68.59L60.59,89H23a8,8,0,0,1-8-8V15a8,8,0,0,1,8-8H73m0-1H23a9,9,0,0,0-9,9V81a9,9,0,0,0,9,9H61L82,69V15a9,9,0,0,0-9-9Z"/></g><path class="cls-3" d="M67,69H82L61,90V75A6,6,0,0,1,67,69Z"/><path class="cls-4" d="M47.91,52.6H43.84v-2a8.53,8.53,0,0,1,1-4.23,13.25,13.25,0,0,1,3.52-3.74A15.2,15.2,0,0,0,51.89,39,7,7,0,0,0,53,35.16a4.94,4.94,0,0,0-1.65-3.82,6.43,6.43,0,0,0-4.49-1.5,10.82,10.82,0,0,0-7.87,3.4V28.46A15.79,15.79,0,0,1,47.47,26a10.58,10.58,0,0,1,7.28,2.4,8,8,0,0,1,2.7,6.3,9.84,9.84,0,0,1-1.26,4.94A18,18,0,0,1,52,44.33a19.15,19.15,0,0,0-3.22,3.16,5.72,5.72,0,0,0-.82,3.28Zm-2.06,4.9a2.93,2.93,0,0,1,2.13.87,2.94,2.94,0,0,1,0,4.23,3,3,0,0,1-2.13.85,2.92,2.92,0,0,1-2.08-.84,2.78,2.78,0,0,1-.89-2.13,2.84,2.84,0,0,1,.87-2.12A2.92,2.92,0,0,1,45.85,57.5Z"/></g></g></svg>