<?xml version="1.0" encoding="utf-8"?>
<!-- Generator: Adobe Illustrator 16.0.0, SVG Export Plug-In . SVG Version: 6.00 Build 0)  -->
<!DOCTYPE svg PUBLIC "-//W3C//DTD SVG 1.1//EN" "http://www.w3.org/Graphics/SVG/1.1/DTD/svg11.dtd">
<svg version="1.1" id="图层_1" xmlns="http://www.w3.org/2000/svg" xmlns:xlink="http://www.w3.org/1999/xlink" x="0px" y="0px"
	 width="48px" height="48px" viewBox="0 0 48 48" enable-background="new 0 0 48 48" xml:space="preserve">
<g id="surface1">
	<polygon opacity="0.2" enable-background="new    " points="7.25,46 7.25,2 40.75,2 40.75,33.602 28.352,46 	"/>
	<polygon opacity="0.08" enable-background="new    " points="7.25,48 7.25,2 42.75,2 42.75,35.016 29.766,48 	"/>
	<polygon opacity="0.1" enable-background="new    " points="8.25,47 8.25,3 41.75,3 41.75,34.602 29.352,47 	"/>
	<g>
		
			<linearGradient id="SVGID_1_" gradientUnits="userSpaceOnUse" x1="232.001" y1="-1714.9512" x2="232.001" y2="-1672.9512" gradientTransform="matrix(1 0 0 -1 -208.0005 -1669.9512)">
			<stop  offset="0" style="stop-color:#F57C00"/>
			<stop  offset="0.099" style="stop-color:#F78B0C"/>
			<stop  offset="0.3289" style="stop-color:#FAA823"/>
			<stop  offset="0.5576" style="stop-color:#FDBC33"/>
			<stop  offset="0.7827" style="stop-color:#FEC93D"/>
			<stop  offset="1" style="stop-color:#FFCD40"/>
		</linearGradient>
		<path fill="url(#SVGID_1_)" d="M27.938,45L39.75,33.188V3H8.25v42H27.938z"/>
		<polygon fill="#EE6F0B" fill-opacity="0.3922" points="27.281,32.531 27.281,45 27.938,45 39.75,33.188 39.75,32.531 		"/>
		<path fill="#FFFFFF" fill-opacity="0.3922" d="M27.938,33.188H39.74L27.938,45V33.188z"/>
		<g>
			<path fill="#EE6F0B" d="M39.25,3.5v29.48L27.73,44.5h-8.98h-10v-41H39.25 M39.75,3H8.25v42h10.5h9.188L39.75,33.188V3L39.75,3z"
				/>
		</g>
	</g>
</g>
<g opacity="0.8">
	<path fill="#FFFFFF" d="M21.162,26.321c0,0-0.828,0.459,0.587,0.612c1.718,0.188,2.592,0.162,4.481-0.179
		c0,0,0.492,0.292,1.187,0.546C23.185,29.023,17.84,27.2,21.162,26.321"/>
	<path fill="#FFFFFF" d="M20.642,24.078c0,0-0.928,0.653,0.487,0.787c1.836,0.18,3.278,0.194,5.78-0.262c0,0,0.349,0.336,0.89,0.516
		C22.685,26.542,16.979,25.231,20.642,24.078"/>
	<path fill="#FFFFFF" d="M25.008,20.274c1.04,1.133-0.279,2.161-0.279,2.161s2.65-1.303,1.436-2.923
		c-1.136-1.515-2.01-2.263,2.709-4.86C28.873,14.652,21.47,16.408,25.008,20.274"/>
	<path fill="#FFFFFF" d="M30.601,27.982c0,0,0.615,0.481-0.674,0.849c-2.443,0.699-10.167,0.912-12.315,0.025
		c-0.767-0.313,0.675-0.762,1.136-0.849c0.475-0.1,0.741-0.079,0.741-0.079c-0.856-0.574-5.547,1.123-2.376,1.609
		C25.743,30.866,32.844,28.943,30.601,27.982"/>
	<path fill="#FFFFFF" d="M21.558,21.755c0,0-3.934,0.88-1.391,1.2c1.069,0.141,3.205,0.107,5.202-0.054
		c1.62-0.126,3.256-0.4,3.256-0.4s-0.574,0.229-0.987,0.503c-3.991,0.995-11.702,0.525-9.484-0.49
		C20.034,21.656,21.558,21.755,21.558,21.755"/>
	<path fill="#FFFFFF" d="M28.606,25.485c4.058-1.995,2.182-3.917,0.874-3.658c-0.32,0.062-0.461,0.12-0.461,0.12
		s0.112-0.18,0.346-0.254c2.592-0.866,4.581,2.543-0.841,3.899C28.524,25.593,28.591,25.539,28.606,25.485"/>
	<path fill="#FFFFFF" d="M26.164,10.466c0,0,2.248,2.13-2.131,5.408c-3.512,2.628-0.803,4.125,0,5.84
		c-2.048-1.756-3.558-3.297-2.551-4.732C22.965,14.873,27.071,13.853,26.164,10.466"/>
	<path fill="#FFFFFF" d="M21.957,30.907c3.892,0.233,9.872-0.136,10.021-1.876c0,0-0.274,0.661-3.225,1.187
		c-3.325,0.587-7.424,0.521-9.852,0.141C18.901,30.358,19.401,30.754,21.957,30.907"/>
</g>
</svg>
