<?xml version="1.0" encoding="utf-8"?>
<!-- Generator: Adobe Illustrator 16.0.0, SVG Export Plug-In . SVG Version: 6.00 Build 0)  -->
<!DOCTYPE svg PUBLIC "-//W3C//DTD SVG 1.1//EN" "http://www.w3.org/Graphics/SVG/1.1/DTD/svg11.dtd">
<svg version="1.1" id="图层_1" xmlns="http://www.w3.org/2000/svg" xmlns:xlink="http://www.w3.org/1999/xlink" x="0px" y="0px"
	 width="48px" height="48px" viewBox="0 0 48 48" enable-background="new 0 0 48 48" xml:space="preserve">
<g id="surface1">
	<polygon opacity="0.2" enable-background="new    " points="7.25,46 7.25,2 40.75,2 40.75,33.602 28.352,46 	"/>
	<polygon opacity="0.08" enable-background="new    " points="7.25,48 7.25,2 42.75,2 42.75,35.016 29.766,48 	"/>
	<polygon opacity="0.1" enable-background="new    " points="8.25,47 8.25,3 41.75,3 41.75,34.602 29.352,47 	"/>
	<g>
		
			<linearGradient id="SVGID_1_" gradientUnits="userSpaceOnUse" x1="315.2012" y1="-2507.9316" x2="315.2012" y2="-2465.9316" gradientTransform="matrix(1 0 0 -1 -291.2012 -2462.9316)">
			<stop  offset="0" style="stop-color:#F57C00"/>
			<stop  offset="0.099" style="stop-color:#F78B0C"/>
			<stop  offset="0.3289" style="stop-color:#FAA823"/>
			<stop  offset="0.5576" style="stop-color:#FDBC33"/>
			<stop  offset="0.7827" style="stop-color:#FEC93D"/>
			<stop  offset="1" style="stop-color:#FFCD40"/>
		</linearGradient>
		<path fill="url(#SVGID_1_)" d="M27.938,45L39.75,33.188V3H8.25v42H27.938z"/>
		<polygon fill="#EE6F0B" fill-opacity="0.3922" points="27.281,32.531 27.281,45 27.938,45 39.75,33.188 39.75,32.531 		"/>
		<path fill="#FFFFFF" fill-opacity="0.3922" d="M27.938,33.188H39.74L27.938,45V33.188z"/>
		<g>
			<path fill="#B71C1C" fill-opacity="0.1961" d="M8.25,3v10.5h31.5V3H8.25z"/>
			<g>
				<path fill="#FFE0B2" d="M19.686,9.709c0,0.356-0.052,0.697-0.157,1.015c-0.097,0.313-0.264,0.591-0.505,0.833
					c-0.224,0.238-0.523,0.428-0.892,0.574c-0.369,0.133-0.814,0.203-1.346,0.203c-0.554,0-1.01-0.062-1.379-0.193
					c-0.37-0.128-0.682-0.285-0.938-0.469l0.62-1.166c0.224,0.126,0.465,0.25,0.726,0.368c0.274,0.123,0.546,0.18,0.833,0.18
					c0.418,0,0.758-0.096,1.01-0.298c0.26-0.206,0.395-0.584,0.395-1.133v-3.61h-2.725V4.794h4.358V9.709"/>
				<path fill="#FFE0B2" d="M25.236,12.177l-0.389-1.705h-2.172l-0.369,1.705H20.62c0.387-1.453,0.777-2.781,1.174-3.971
					c0.397-1.202,0.777-2.339,1.143-3.412h1.766c0.384,1.077,0.77,2.228,1.143,3.445c0.393,1.213,0.76,2.521,1.123,3.938H25.236
					 M23.783,6.225c-0.091,0.277-0.172,0.546-0.252,0.797c-0.066,0.246-0.138,0.492-0.209,0.744
					c-0.062,0.233-0.124,0.479-0.184,0.725c-0.052,0.246-0.104,0.502-0.157,0.764h1.598c-0.058-0.262-0.107-0.518-0.165-0.764
					c-0.049-0.246-0.109-0.492-0.181-0.725c-0.063-0.252-0.131-0.498-0.208-0.744C23.951,6.771,23.872,6.502,23.783,6.225"/>
				<path fill="#FFE0B2" d="M29.909,4.709c0.464,0,0.888,0.046,1.262,0.142c0.379,0.095,0.705,0.246,0.978,0.441
					c0.273,0.2,0.48,0.456,0.619,0.764c0.151,0.303,0.225,0.659,0.225,1.071c0,0.431-0.096,0.823-0.29,1.174
					c-0.195,0.346-0.513,0.613-0.961,0.797c0.151,0.207,0.308,0.436,0.475,0.692c0.169,0.246,0.33,0.51,0.486,0.789
					c0.157,0.267,0.31,0.541,0.446,0.821c0.149,0.271,0.279,0.531,0.385,0.777h-1.704c-0.198-0.477-0.437-0.934-0.709-1.374
					c-0.261-0.441-0.546-0.894-0.854-1.346h-0.843v2.72h-1.618V4.9c0.157-0.034,0.323-0.062,0.514-0.082
					c0.189-0.034,0.385-0.051,0.574-0.062c0.196-0.018,0.379-0.028,0.553-0.034C29.625,4.709,29.775,4.709,29.909,4.709
					 M31.346,7.117c0-0.39-0.138-0.674-0.397-0.859c-0.261-0.18-0.608-0.274-1.039-0.274c-0.062,0-0.134,0.005-0.224,0.011
					c-0.09,0-0.18,0.013-0.264,0.028v2.218h0.354c0.552,0,0.953-0.095,1.199-0.286C31.223,7.752,31.346,7.473,31.346,7.117"/>
			</g>
			<g opacity="0.8">
				<path fill="#FFFFFF" d="M21.821,27.65c0,0-0.636,0.348,0.452,0.467c1.317,0.145,1.989,0.124,3.44-0.139
					c0,0,0.379,0.228,0.913,0.427C23.374,29.721,19.267,28.328,21.821,27.65"/>
				<path fill="#FFFFFF" d="M21.42,25.923c0,0-0.712,0.501,0.375,0.61c1.41,0.137,2.518,0.148,4.439-0.205
					c0,0,0.268,0.256,0.682,0.395C22.989,27.814,18.605,26.811,21.42,25.923"/>
				<path fill="#FFFFFF" d="M24.773,23.001c0.8,0.872-0.215,1.66-0.215,1.66s2.035-0.994,1.103-2.241
					c-0.872-1.164-1.544-1.743,2.081-3.737C27.742,18.684,22.056,20.032,24.773,23.001"/>
				<path fill="#FFFFFF" d="M29.07,28.928c0,0,0.471,0.363-0.519,0.646c-1.877,0.543-7.808,0.701-9.46,0.025
					c-0.588-0.246,0.518-0.586,0.872-0.656c0.364-0.076,0.569-0.063,0.569-0.063c-0.656-0.441-4.261,0.864-1.825,1.24
					C25.338,31.137,30.793,29.66,29.07,28.928"/>
				<path fill="#FFFFFF" d="M22.124,24.138c0,0-3.021,0.68-1.067,0.928c0.82,0.103,2.461,0.076,3.994-0.043
					c1.246-0.103,2.504-0.313,2.504-0.313s-0.441,0.18-0.76,0.385c-3.067,0.764-8.988,0.41-7.287-0.373
					C20.954,24.062,22.124,24.138,22.124,24.138"/>
				<path fill="#FFFFFF" d="M27.537,27.01c3.117-1.537,1.677-3.015,0.672-2.815c-0.246,0.051-0.354,0.093-0.354,0.093
					s0.088-0.138,0.268-0.195c1.988-0.662,3.516,1.958-0.646,2.995C27.477,27.086,27.527,27.045,27.537,27.01"/>
				<path fill="#FFFFFF" d="M25.661,15.469c0,0,1.728,1.636-1.636,4.153c-2.697,2.02-0.615,3.173,0,4.486
					c-1.574-1.343-2.732-2.532-1.958-3.635C23.205,18.853,26.357,18.069,25.661,15.469"/>
				<path fill="#FFFFFF" d="M22.431,31.168c2.989,0.184,7.583-0.098,7.696-1.441c0,0-0.211,0.508-2.477,0.914
					c-2.553,0.455-5.702,0.398-7.567,0.112C20.082,30.746,20.467,31.049,22.431,31.168"/>
			</g>
		</g>
		<g>
			<path fill="#EE6F0B" d="M39.25,3.5v29.48L27.73,44.5h-8.98h-10v-41H39.25 M39.75,3H8.25v42h10.5h9.188L39.75,33.188V3L39.75,3z"
				/>
		</g>
	</g>
</g>
</svg>
