<?xml version="1.0" encoding="utf-8"?>
<!-- Generator: Adobe Illustrator 21.0.0, SVG Export Plug-In . SVG Version: 6.00 Build 0)  -->
<svg version="1.1" id="图层_1" xmlns="http://www.w3.org/2000/svg" xmlns:xlink="http://www.w3.org/1999/xlink" x="0px" y="0px"
	 viewBox="0 0 48 48" style="enable-background:new 0 0 48 48;" xml:space="preserve">
<style type="text/css">
	.st0{opacity:0.2;enable-background:new    ;}
	.st1{opacity:0.08;enable-background:new    ;}
	.st2{opacity:0.1;enable-background:new    ;}
	.st3{fill:url(#SVGID_1_);}
	.st4{fill:#311B92;fill-opacity:0.3922;}
	.st5{fill:#FFFFFF;fill-opacity:0.3922;}
	.st6{fill:#311B92;}
	.st7{opacity:0.8;}
	.st8{fill:#FFFFFF;}
</style>
<g id="surface1">
	<polygon class="st0" points="7.3,46 7.3,2 40.8,2 40.8,33.6 28.4,46 	"/>
	<polygon class="st1" points="7.3,48 7.3,2 42.8,2 42.8,35 29.8,48 	"/>
	<polygon class="st2" points="8.3,47 8.3,3 41.8,3 41.8,34.6 29.4,47 	"/>
</g>
<linearGradient id="SVGID_1_" gradientUnits="userSpaceOnUse" x1="273.6006" y1="3133.9414" x2="273.6006" y2="3091.9414" gradientTransform="matrix(1 0 0 1 -249.6006 -3088.9414)">
	<stop  offset="0" style="stop-color:#3F51B5"/>
	<stop  offset="0.258" style="stop-color:#4355B7"/>
	<stop  offset="0.5253" style="stop-color:#5060BB"/>
	<stop  offset="0.7959" style="stop-color:#6473C3"/>
	<stop  offset="1" style="stop-color:#7986CB"/>
</linearGradient>
<path class="st3" d="M27.9,45l11.8-11.8V3H8.3v42H27.9z"/>
<polygon class="st4" points="27.3,32.5 27.3,45 27.9,45 39.8,33.2 39.8,32.5 "/>
<path class="st5" d="M27.9,33.2h11.8L27.9,45V33.2z"/>
<g>
	<g>
		<path class="st6" d="M39.3,3.5V33L27.7,44.5h-9h-10v-41H39.3 M39.8,3H8.3v42h10.5H28l11.8-11.8V3L39.8,3z"/>
	</g>
</g>
<g class="st7">
	<path class="st8" d="M29,18.5c-0.2,0-0.4,0.1-0.6,0.3c-0.2,0.2-0.4,0.5-0.5,0.8s-0.2,0.7-0.2,1.1c0,0.2,0.1,0.4,0.2,0.6
		c0.1,0.1,0.3,0.2,0.5,0.2s0.4-0.1,0.6-0.3c0.2-0.2,0.3-0.5,0.5-0.8c0.1-0.4,0.2-0.7,0.2-1.1C29.6,18.7,29.4,18.5,29,18.5z"/>
	<path class="st8" d="M20.5,18.5c-0.2,0-0.4,0.1-0.6,0.3c-0.2,0.2-0.3,0.5-0.5,0.8c-0.1,0.3-0.2,0.7-0.2,1.1c0,0.2,0.1,0.4,0.2,0.6
		c0.1,0.1,0.3,0.2,0.5,0.2s0.4-0.1,0.6-0.3c0.2-0.2,0.3-0.5,0.5-0.8c0.1-0.4,0.2-0.7,0.2-1.1C21.1,18.7,20.9,18.5,20.5,18.5z"/>
	<path class="st8" d="M24,12.8c-5.8,0-10.5,3.2-10.5,7.2s4.7,7.2,10.5,7.2S34.5,24,34.5,20S29.8,12.8,24,12.8z M30.7,20.8
		c-0.2,0.5-0.5,0.9-0.9,1.2c-0.4,0.3-0.8,0.5-1.2,0.5c-0.3,0-0.5-0.1-0.7-0.2s-0.4-0.3-0.5-0.6l0,0c0,0.5-0.1,0.9-0.2,1.3l-0.3,1.5
		h-1.4l0.5-2.2h-1.3l0.6-2.9c0-0.2,0.1-0.4,0.1-0.5c0-0.4-0.2-0.5-0.5-0.5s-0.5,0.2-0.8,0.5c-0.2,0.3-0.4,0.8-0.5,1.4l-0.4,2h-1.4
		l0.3-1.2c-0.2,0.3-0.4,0.6-0.6,0.8c-0.4,0.3-0.8,0.5-1.2,0.5c-0.3,0-0.5-0.1-0.7-0.2s-0.4-0.3-0.5-0.6l0,0c0,0.5-0.1,0.9-0.2,1.3
		l-0.3,1.5H17l1.6-7.1h1.1L19.6,18l0,0c0.4-0.6,0.9-0.8,1.5-0.8c0.4,0,0.8,0.2,1.1,0.5c0.2,0.3,0.3,0.6,0.4,1l0.7-3.3h1.4
		c-0.1,0.5-0.2,0.9-0.3,1.2c-0.1,0.3-0.2,0.7-0.4,1.4l0,0c0.2-0.2,0.4-0.4,0.6-0.5s0.5-0.2,0.8-0.2c0.4,0,0.7,0.1,1,0.4
		c0.2,0.2,0.4,0.6,0.4,1.1c0,0.1,0,0.2,0,0.3l0.4-1.6h1.1l-0.1,0.7l0,0c0.4-0.6,0.9-0.8,1.5-0.8c0.4,0,0.8,0.2,1.1,0.5
		c0.3,0.3,0.4,0.8,0.4,1.3C31,19.7,30.9,20.3,30.7,20.8z"/>
</g>
</svg>
