<?xml version="1.0" encoding="utf-8"?>
<!-- Generator: Adobe Illustrator 16.0.0, SVG Export Plug-In . SVG Version: 6.00 Build 0)  -->
<!DOCTYPE svg PUBLIC "-//W3C//DTD SVG 1.1//EN" "http://www.w3.org/Graphics/SVG/1.1/DTD/svg11.dtd">
<svg version="1.1" id="图层_1" xmlns="http://www.w3.org/2000/svg" xmlns:xlink="http://www.w3.org/1999/xlink" x="0px" y="0px"
	 width="48px" height="48px" viewBox="0 0 48 48" enable-background="new 0 0 48 48" xml:space="preserve">
<polygon opacity="0.06" enable-background="new    " points="7.181,48 7.181,2 42.818,2 42.818,35.003 29.82,48 "/>
<polygon opacity="0.1" enable-background="new    " points="8.181,47 8.181,3 41.818,3 41.818,34.589 29.407,47 "/>
<polygon opacity="0.2" enable-background="new    " points="7.181,46 7.181,2 40.818,2 40.818,33.589 28.408,46 "/>
<polygon fill="#3E2723" points="8.143,45 8.143,3 39.857,3 39.857,33.175 28.004,45 "/>
<g>
	<g>
		
			<linearGradient id="SVGID_1_" gradientUnits="userSpaceOnUse" x1="65.5996" y1="-119.4004" x2="65.5996" y2="-160.4009" gradientTransform="matrix(1 0 0 -1 -41.6001 -115.9004)">
			<stop  offset="0" style="stop-color:#785548"/>
			<stop  offset="1" style="stop-color:#9F9E9F"/>
		</linearGradient>
		<polygon fill="url(#SVGID_1_)" points="8.641,44.5 8.641,3.5 39.359,3.5 39.359,32.953 27.941,44.5 		"/>
		<polygon fill="#795548" fill-opacity="0.7" points="39.359,32.969 39.359,32.473 27.199,32.473 27.199,44.5 27.829,44.5 		"/>
		<path opacity="0.39" fill="#FFFFFF" enable-background="new    " d="M27.813,32.969l11.547,0.016L27.829,44.5L27.813,32.969z"/>
	</g>
	<path fill="#FFFFFF" d="M19.617,11.404h-1.039v13.315h-0.787V11.404h-1.033v13.315h-0.785V11.404h-1.036v13.315H14.15V11.404
		h-1.034v13.315h-0.271v5.64h7.127v-5.64h-0.355V11.404z M18.934,28.719h-5.056v-3.27h5.056V28.719z"/>
	<g>
		<rect x="8.634" y="3.5" opacity="0.8" fill="#FFFFFF" enable-background="new    " width="30.731" height="7.858"/>
		<g enable-background="new    ">
			<path fill="#5D4037" d="M19.335,9.308v1.184h-4.308V4.368h1.452v4.94H19.335z"/>
			<path fill="#5D4037" d="M24.153,4.368h1.45v6.125h-1.45V7.894h-2.437v2.599h-1.452V4.368h1.452V6.71h2.437V4.368z"/>
			<path fill="#5D4037" d="M31.416,10.492c-0.068-0.212-0.146-0.431-0.229-0.655c-0.083-0.224-0.166-0.449-0.246-0.67h-2.52
				c-0.08,0.223-0.163,0.447-0.246,0.671c-0.08,0.224-0.154,0.443-0.227,0.654h-1.508c0.242-0.659,0.475-1.269,0.691-1.83
				c0.216-0.56,0.43-1.086,0.638-1.582c0.208-0.496,0.416-0.965,0.616-1.41c0.203-0.444,0.414-0.879,0.631-1.304h1.374
				c0.214,0.424,0.422,0.859,0.628,1.304c0.205,0.444,0.413,0.914,0.621,1.41c0.209,0.495,0.422,1.022,0.641,1.582
				c0.219,0.561,0.449,1.17,0.691,1.83H31.416z M29.676,5.755c-0.034,0.088-0.08,0.209-0.144,0.363
				c-0.062,0.153-0.134,0.33-0.214,0.53c-0.08,0.202-0.168,0.422-0.267,0.663c-0.097,0.242-0.198,0.494-0.3,0.76h1.842
				c-0.096-0.266-0.191-0.52-0.285-0.762c-0.094-0.242-0.179-0.463-0.264-0.664c-0.083-0.201-0.155-0.377-0.219-0.531
				C29.764,5.962,29.713,5.842,29.676,5.755z"/>
		</g>
	</g>
</g>
</svg>
