<?xml version="1.0" encoding="utf-8"?>
<!-- Generator: Adobe Illustrator 21.0.0, SVG Export Plug-In . SVG Version: 6.00 Build 0)  -->
<svg version="1.1" id="图层_1" xmlns="http://www.w3.org/2000/svg" xmlns:xlink="http://www.w3.org/1999/xlink" x="0px" y="0px"
	 viewBox="0 0 48 48" style="enable-background:new 0 0 48 48;" xml:space="preserve">
<style type="text/css">
	.st0{opacity:0.06;enable-background:new    ;}
	.st1{opacity:0.1;enable-background:new    ;}
	.st2{opacity:0.2;enable-background:new    ;}
	.st3{fill:#3E2723;}
	.st4{fill:url(#SVGID_1_);}
	.st5{fill:#795548;fill-opacity:0.7;}
	.st6{opacity:0.39;fill:#FFFFFF;enable-background:new    ;}
	.st7{fill:#FFFFFF;}
	.st8{opacity:0.8;fill:#FFFFFF;enable-background:new    ;}
	.st9{enable-background:new    ;}
	.st10{fill:#5D4037;}
</style>
<polygon class="st0" points="7.2,48 7.2,2 42.8,2 42.8,35 29.8,48 "/>
<polygon class="st1" points="8.2,47 8.2,3 41.8,3 41.8,34.6 29.4,47 "/>
<polygon class="st2" points="7.2,46 7.2,2 40.8,2 40.8,33.6 28.4,46 "/>
<polygon class="st3" points="8.1,45 8.1,3 39.9,3 39.9,33.2 28,45 "/>
<g>
	<g>
		
			<linearGradient id="SVGID_1_" gradientUnits="userSpaceOnUse" x1="65.6001" y1="-837.4004" x2="65.6001" y2="-878.4004" gradientTransform="matrix(1 0 0 -1 -41.6001 -833.9004)">
			<stop  offset="0" style="stop-color:#785548"/>
			<stop  offset="1" style="stop-color:#9F9E9F"/>
		</linearGradient>
		<polygon class="st4" points="8.6,44.5 8.6,3.5 39.4,3.5 39.4,33 27.9,44.5 		"/>
		<polygon class="st5" points="39.4,33 39.4,32.5 27.2,32.5 27.2,44.5 27.8,44.5 		"/>
		<path class="st6" d="M27.8,33h11.5L27.8,44.5V33z"/>
	</g>
	<path class="st7" d="M19.6,11.4h-1v13.3h-0.8V11.4h-1v13.3H16V11.4h-1v13.3h-0.8V11.4h-1v13.3h-0.3v5.6H20v-5.6h-0.4V11.4z
		 M18.9,28.7h-5.1v-3.3h5.1V28.7z"/>
	<g>
		<rect x="8.6" y="3.5" class="st8" width="30.7" height="7.9"/>
		<g class="st9">
			<path class="st10" d="M15.7,9.3v1.2h-4.3V4.4h1.4v4.9C12.8,9.3,15.7,9.3,15.7,9.3z"/>
			<path class="st10" d="M21.3,5.3c-0.2,0.2-0.4,0.4-0.7,0.8c-0.3,0.3-0.6,0.6-0.8,1c-0.3,0.4-0.6,0.7-0.9,1.1
				c-0.3,0.4-0.5,0.8-0.8,1.1h3.3v1.2h-5.1V9.7c0.2-0.3,0.4-0.6,0.6-1c0.3-0.4,0.5-0.7,0.8-1.1s0.6-0.7,0.8-1.1
				c0.3-0.4,0.5-0.7,0.8-0.9h-2.9V4.4h4.8v0.9H21.3z"/>
			<path class="st10" d="M24.1,4.4c0.1,0.2,0.2,0.4,0.4,0.7C24.7,5.4,24.8,5.7,25,6s0.3,0.7,0.5,1s0.3,0.7,0.4,1
				c0.1-0.3,0.3-0.6,0.4-1c0.2-0.3,0.3-0.7,0.5-1s0.3-0.6,0.5-0.9s0.3-0.5,0.4-0.7H29c0.1,0.4,0.1,0.9,0.2,1.4s0.1,1,0.1,1.6
				c0,0.5,0.1,1.1,0.1,1.6s0.1,1.1,0.1,1.5h-1.4c0-0.6,0-1.2-0.1-1.9c0-0.7-0.1-1.4-0.1-2.1c-0.1,0.2-0.2,0.5-0.4,0.8
				c-0.1,0.3-0.3,0.6-0.4,0.9s-0.3,0.6-0.4,0.9c-0.1,0.3-0.2,0.5-0.3,0.7h-1C25.3,9.5,25.2,9.3,25,9c-0.1-0.3-0.3-0.6-0.4-0.9
				c-0.1-0.3-0.3-0.6-0.4-0.9S24,6.7,23.9,6.4c-0.1,0.7-0.1,1.4-0.1,2.1s-0.1,1.4-0.1,1.9h-1.4c0-0.5,0.1-1,0.1-1.5s0.1-1.1,0.1-1.6
				s0.1-1.1,0.1-1.6c0.1-0.5,0.1-1,0.2-1.4h1.3V4.4z"/>
			<path class="st10" d="M35.1,10.5c-0.1-0.2-0.1-0.4-0.2-0.7c-0.1-0.2-0.2-0.4-0.2-0.7h-2.5C32.1,9.3,32,9.5,32,9.8
				s-0.2,0.4-0.2,0.7h-1.5c0.2-0.7,0.5-1.3,0.7-1.8c0.2-0.6,0.4-1.1,0.6-1.6s0.4-1,0.6-1.4s0.4-0.9,0.6-1.3h1.4
				c0.2,0.4,0.4,0.9,0.6,1.3c0.2,0.4,0.4,0.9,0.6,1.4c0.2,0.5,0.4,1,0.6,1.6c0.2,0.6,0.4,1.2,0.7,1.8H35.1z M33.4,5.8
				c0,0.1-0.1,0.2-0.1,0.4c-0.1,0.2-0.1,0.3-0.2,0.5c-0.1,0.2-0.2,0.4-0.3,0.7c-0.1,0.2-0.2,0.5-0.3,0.8h1.8
				c-0.1-0.3-0.2-0.5-0.3-0.8c-0.1-0.2-0.2-0.5-0.3-0.7s-0.2-0.4-0.2-0.5C33.4,6,33.4,5.8,33.4,5.8z"/>
		</g>
	</g>
</g>
</svg>
