<?xml version="1.0" encoding="utf-8"?>
<!-- Generator: Adobe Illustrator 16.0.0, SVG Export Plug-In . SVG Version: 6.00 Build 0)  -->
<!DOCTYPE svg PUBLIC "-//W3C//DTD SVG 1.1//EN" "http://www.w3.org/Graphics/SVG/1.1/DTD/svg11.dtd">
<svg version="1.1" id="图层_1" xmlns="http://www.w3.org/2000/svg" xmlns:xlink="http://www.w3.org/1999/xlink" x="0px" y="0px"
	 width="48px" height="48px" viewBox="0 0 48 48" enable-background="new 0 0 48 48" xml:space="preserve">
<polygon opacity="0.06" enable-background="new    " points="7.181,48 7.181,2 42.818,2 42.818,35.003 29.82,48 "/>
<polygon opacity="0.1" enable-background="new    " points="8.181,47 8.181,3 41.818,3 41.818,34.589 29.407,47 "/>
<polygon opacity="0.2" enable-background="new    " points="7.181,46 7.181,2 40.818,2 40.818,33.589 28.408,46 "/>
<polygon fill="#455A64" points="8.143,45 8.143,3 39.857,3 39.857,33.175 28.004,45 "/>
<g>
	<g>
		<g>
			
				<linearGradient id="SVGID_1_" gradientUnits="userSpaceOnUse" x1="65.5996" y1="-119.4004" x2="65.5996" y2="-160.4009" gradientTransform="matrix(1 0 0 -1 -41.6001 -115.9004)">
				<stop  offset="0" style="stop-color:#90A4AE"/>
				<stop  offset="0.1378" style="stop-color:#849AA5"/>
				<stop  offset="0.4226" style="stop-color:#708A97"/>
				<stop  offset="0.7096" style="stop-color:#64808E"/>
				<stop  offset="1" style="stop-color:#607D8B"/>
			</linearGradient>
			<polygon fill="url(#SVGID_1_)" points="8.641,44.5 8.641,3.5 39.359,3.5 39.359,32.969 27.828,44.5 			"/>
		</g>
		<polygon fill="#455A64" fill-opacity="0.39" points="39.359,32.969 39.359,32.473 27.195,32.473 27.195,44.5 27.828,44.5 		"/>
		<path fill="#FFFFFF" fill-opacity="0.39" d="M27.81,32.969l11.55,0.016L27.828,44.5L27.81,32.969z"/>
	</g>
	<path opacity="0.8" fill="#FFFFFF" enable-background="new    " d="M31.173,24.734c0.019-0.052,0.053-0.086,0.072-0.136
		c0.034-0.086,0.084-0.171,0.118-0.257c0,0,0-0.015,0.015-0.015c0.222-0.463,0.378-0.959,0.516-1.453h1.929v-3.878h-1.929
		c-0.206-0.803-0.516-1.573-0.942-2.255l1.369-1.367l-2.749-2.75l-1.369,1.367c-0.702-0.427-1.469-0.753-2.308-0.958h0.02v-1.931
		h-3.879v1.931h0.015c-0.815,0.205-1.605,0.531-2.307,0.958l-1.366-1.367l-2.697,2.75l1.366,1.367
		c-0.41,0.683-0.734,1.453-0.938,2.255h-1.932v3.878h1.932c0.204,0.801,0.512,1.569,0.938,2.271l0,0l-1.366,1.368l2.751,2.747
		l1.365-1.365c0.7,0.428,1.469,0.752,2.273,0.939v1.931h3.879v-1.931l0,0l0,0c0.82-0.205,1.571-0.512,2.269-0.939l1.369,1.365
		l2.75-2.747l-1.369-1.368l0,0c0.053-0.084,0.088-0.153,0.141-0.24C31.123,24.854,31.157,24.805,31.173,24.734z M23.999,27.125
		c-3.433,0-6.202-2.784-6.202-6.2c0-3.417,2.785-6.201,6.202-6.201c0.683,0,1.335,0.101,1.949,0.307l0,0
		c2.475,0.82,4.252,3.144,4.252,5.894c0,0.171,0,0.341-0.016,0.498v0.015c-0.034,0.496-0.137,0.974-0.293,1.436
		c0,0.017-0.016,0.017-0.016,0.033c-0.103,0.29-0.221,0.582-0.358,0.839c0,0.015-0.02,0.034-0.02,0.049
		c-0.068,0.137-0.133,0.256-0.221,0.393c0,0.019-0.02,0.019-0.02,0.034c-0.083,0.12-0.148,0.24-0.236,0.361l-0.019,0.017
		c-0.084,0.118-0.172,0.24-0.271,0.341c-0.016,0.016-0.035,0.035-0.05,0.052c-0.19,0.222-0.393,0.427-0.618,0.616
		c-0.015,0.016-0.034,0.032-0.05,0.051c-0.103,0.084-0.225,0.188-0.343,0.256c-0.016,0.016-0.034,0.016-0.05,0.035
		c-0.103,0.085-0.221,0.152-0.328,0.221c-0.015,0.016-0.03,0.016-0.049,0.034c-0.122,0.068-0.236,0.138-0.358,0.204
		c-0.034,0.018-0.05,0.034-0.084,0.053c-0.122,0.067-0.256,0.117-0.378,0.17c-0.015,0-0.034,0.018-0.05,0.018
		c-0.122,0.051-0.24,0.086-0.362,0.135C25.384,27.005,24.698,27.125,23.999,27.125z"/>
</g>
</svg>
