<?xml version="1.0" encoding="utf-8"?>
<!-- Generator: Adobe Illustrator 21.0.0, SVG Export Plug-In . SVG Version: 6.00 Build 0)  -->
<svg version="1.1" id="图层_1" xmlns="http://www.w3.org/2000/svg" xmlns:xlink="http://www.w3.org/1999/xlink" x="0px" y="0px"
	 viewBox="0 0 48 48" style="enable-background:new 0 0 48 48;" xml:space="preserve">
<style type="text/css">
	.st0{opacity:0.2;enable-background:new    ;}
	.st1{opacity:0.08;enable-background:new    ;}
	.st2{opacity:0.1;enable-background:new    ;}
	.st3{fill:url(#SVGID_1_);}
	.st4{fill:#EE6F0B;fill-opacity:0.3922;}
	.st5{fill:#FFFFFF;fill-opacity:0.3922;}
	.st6{fill:#B71C1C;fill-opacity:0.1961;}
	.st7{fill:#FFE0B2;}
	.st8{opacity:0.8;}
	.st9{fill:#FFFFFF;}
	.st10{fill:#EE6F0B;}
</style>
<g id="surface1">
	<polygon class="st0" points="7.3,46 7.3,2 40.8,2 40.8,33.6 28.4,46 	"/>
	<polygon class="st1" points="7.3,48 7.3,2 42.8,2 42.8,35 29.8,48 	"/>
	<polygon class="st2" points="8.3,47 8.3,3 41.8,3 41.8,34.6 29.4,47 	"/>
	<g>
		
			<linearGradient id="SVGID_1_" gradientUnits="userSpaceOnUse" x1="315.2012" y1="-3225.9316" x2="315.2012" y2="-3183.9316" gradientTransform="matrix(1 0 0 -1 -291.2012 -3180.9316)">
			<stop  offset="0" style="stop-color:#F57C00"/>
			<stop  offset="0.099" style="stop-color:#F78B0C"/>
			<stop  offset="0.3289" style="stop-color:#FAA823"/>
			<stop  offset="0.5576" style="stop-color:#FDBC33"/>
			<stop  offset="0.7827" style="stop-color:#FEC93D"/>
			<stop  offset="1" style="stop-color:#FFCD40"/>
		</linearGradient>
		<path class="st3" d="M27.9,45l11.8-11.8V3H8.3v42H27.9z"/>
		<polygon class="st4" points="27.3,32.5 27.3,45 27.9,45 39.8,33.2 39.8,32.5 		"/>
		<path class="st5" d="M27.9,33.2h11.8L27.9,45V33.2z"/>
		<g>
			<path class="st6" d="M8.3,3v10.5h31.5V3H8.3z"/>
			<g>
				<path class="st7" d="M19.7,9.7c0,0.4-0.1,0.7-0.2,1s-0.3,0.6-0.5,0.8s-0.5,0.4-0.9,0.6c-0.4,0.1-0.8,0.2-1.3,0.2
					c-0.6,0-1-0.1-1.4-0.2c-0.4-0.1-0.7-0.3-0.9-0.5l0.6-1.2c0.2,0.1,0.5,0.3,0.7,0.4c0.3,0.1,0.5,0.2,0.8,0.2c0.4,0,0.8-0.1,1-0.3
					c0.3-0.2,0.4-0.6,0.4-1.1V6h-2.7V4.8h4.4L19.7,9.7"/>
				<path class="st7" d="M25.2,12.2l-0.4-1.7h-2.2l-0.4,1.7h-1.7c0.4-1.5,0.8-2.8,1.2-4c0.4-1.2,0.8-2.3,1.1-3.4h1.8
					C25,5.9,25.4,7,25.7,8.2c0.4,1.2,0.8,2.5,1.1,3.9h-1.6 M23.8,6.2c-0.1,0.3-0.2,0.5-0.3,0.8c-0.1,0.2-0.1,0.5-0.2,0.7
					s-0.1,0.5-0.2,0.7C23.1,8.7,23,9,23,9.3h1.6c-0.1-0.3-0.1-0.5-0.2-0.8c0-0.2-0.1-0.5-0.2-0.7c0-0.3-0.1-0.5-0.2-0.8
					C24,6.8,23.9,6.5,23.8,6.2"/>
				<path class="st7" d="M29.9,4.7c0.5,0,0.9,0,1.3,0.1s0.7,0.2,1,0.4c0.3,0.2,0.5,0.5,0.6,0.8C32.9,6.4,33,6.7,33,7.1
					s-0.1,0.8-0.3,1.2c-0.2,0.3-0.5,0.6-1,0.8c0.2,0.2,0.3,0.4,0.5,0.7c0.2,0.2,0.3,0.5,0.5,0.8s0.3,0.5,0.4,0.8
					c0.1,0.3,0.3,0.5,0.4,0.8h-1.7c-0.2-0.5-0.4-0.9-0.7-1.4c-0.3-0.4-0.5-0.9-0.9-1.3h-0.8v2.7h-1.6V4.9c0.2,0,0.3-0.1,0.5-0.1
					s0.4-0.1,0.6-0.1s0.4,0,0.6,0C29.6,4.7,29.8,4.7,29.9,4.7 M31.3,7.1c0-0.4-0.1-0.7-0.4-0.9c-0.3-0.2-0.6-0.3-1-0.3
					c-0.1,0-0.1,0-0.2,0s-0.2,0-0.3,0v2.2h0.4c0.6,0,1-0.1,1.2-0.3C31.2,7.8,31.3,7.5,31.3,7.1"/>
			</g>
			<g class="st8">
				<path class="st9" d="M21.8,27.6c0,0-0.6,0.3,0.5,0.5c1.3,0.1,2,0.1,3.4-0.1c0,0,0.4,0.2,0.9,0.4C23.4,29.7,19.3,28.3,21.8,27.6"
					/>
				<path class="st9" d="M21.4,25.9c0,0-0.7,0.5,0.4,0.6c1.4,0.1,2.5,0.1,4.4-0.2c0,0,0.3,0.3,0.7,0.4C23,27.8,18.6,26.8,21.4,25.9"
					/>
				<path class="st9" d="M24.8,23c0.8,0.9-0.2,1.7-0.2,1.7s2-1,1.1-2.2s-1.5-1.7,2.1-3.7C27.7,18.7,22.1,20,24.8,23"/>
				<path class="st9" d="M29.1,28.9c0,0,0.5,0.4-0.5,0.6c-1.9,0.5-7.8,0.7-9.5,0c-0.6-0.2,0.5-0.6,0.9-0.7s0.6-0.1,0.6-0.1
					c-0.7-0.4-4.3,0.9-1.8,1.2C25.3,31.1,30.8,29.7,29.1,28.9"/>
				<path class="st9" d="M22.1,24.1c0,0-3,0.7-1.1,0.9c0.8,0.1,2.5,0.1,4,0c1.2-0.1,2.5-0.3,2.5-0.3s-0.4,0.2-0.8,0.4
					c-3.1,0.8-9,0.4-7.3-0.4C21,24.1,22.1,24.1,22.1,24.1"/>
				<path class="st9" d="M27.5,27c3.1-1.5,1.7-3,0.7-2.8c-0.2,0.1-0.4,0.1-0.4,0.1s0.1-0.1,0.3-0.2C30.1,23.4,31.6,26.1,27.5,27
					C27.5,27.1,27.5,27,27.5,27"/>
				<path class="st9" d="M25.7,15.5c0,0,1.7,1.6-1.6,4.2c-2.7,2-0.6,3.2,0,4.5c-1.6-1.3-2.7-2.5-2-3.6
					C23.2,18.9,26.4,18.1,25.7,15.5"/>
				<path class="st9" d="M22.4,31.2c3,0.2,7.6-0.1,7.7-1.4c0,0-0.2,0.5-2.5,0.9c-2.6,0.5-5.7,0.4-7.6,0.1
					C20.1,30.7,20.5,31,22.4,31.2"/>
			</g>
		</g>
		<g>
			<path class="st10" d="M39.3,3.5V33L27.7,44.5h-9h-10v-41H39.3 M39.8,3H8.3v42h10.5H28l11.8-11.8V3L39.8,3z"/>
		</g>
	</g>
</g>
</svg>
