<?xml version="1.0" encoding="utf-8"?>
<!-- Generator: Adobe Illustrator 21.0.0, SVG Export Plug-In . SVG Version: 6.00 Build 0)  -->
<svg version="1.1" id="图层_1" xmlns="http://www.w3.org/2000/svg" xmlns:xlink="http://www.w3.org/1999/xlink" x="0px" y="0px"
	 viewBox="0 0 48 48" style="enable-background:new 0 0 48 48;" xml:space="preserve">
<style type="text/css">
	.st0{opacity:0.08;enable-background:new    ;}
	.st1{opacity:0.1;enable-background:new    ;}
	.st2{opacity:0.2;enable-background:new    ;}
	.st3{fill:#3D2723;}
	.st4{fill:url(#SVGID_1_);}
	.st5{fill:#5D4037;fill-opacity:0.3922;}
	.st6{fill:#FFFFFF;fill-opacity:0.3922;}
	.st7{opacity:0.8;}
	.st8{fill:#FFFFFF;}
</style>
<polygon class="st0" points="7.2,48 7.2,2 42.8,2 42.8,35 29.8,48 "/>
<polygon class="st0" points="8.2,47 8.2,3 41.8,3 41.8,34.6 29.4,47 "/>
<polygon class="st1" points="8.2,47 8.2,3 41.8,3 41.8,34.6 29.4,47 "/>
<polygon class="st2" points="7.2,46 7.2,2 40.8,2 40.8,33.6 28.4,46 "/>
<polygon class="st3" points="8.2,45 8.2,3 39.8,3 39.8,33.2 28,45 "/>
<g>
	
		<linearGradient id="SVGID_1_" gradientUnits="userSpaceOnUse" x1="179.8701" y1="-993.1299" x2="179.8701" y2="-952.1299" gradientTransform="matrix(1 0 0 -1 -155.8701 -948.6299)">
		<stop  offset="0" style="stop-color:#785548"/>
		<stop  offset="1" style="stop-color:#9F9E9F"/>
	</linearGradient>
	<polygon class="st4" points="8.6,44.5 8.6,3.5 39.4,3.5 39.4,33 27.8,44.5 	"/>
</g>
<polygon class="st5" points="39.4,33 39.4,32.5 27.2,32.5 27.2,44.5 27.8,44.5 "/>
<path class="st6" d="M27.8,33h11.5L27.8,44.5V33z"/>
<g class="st7">
	<path class="st8" d="M19.4,22.1V3.5h-1.1v18.6h-0.8V3.5h-1.1v18.6h-0.8V3.5h-1.1v18.6h-0.8V3.5h-1.1v18.6h-0.3V28h7.4v-5.9
		C19.7,22.1,19.4,22.1,19.4,22.1z M18.6,26.3h-5.3v-3.4h5.3V26.3L18.6,26.3z"/>
	<rect x="14.4" y="23.3" class="st8" width="3.3" height="2.1"/>
</g>
</svg>
