<?xml version="1.0" encoding="utf-8"?>
<!-- Generator: Adobe Illustrator 16.0.0, SVG Export Plug-In . SVG Version: 6.00 Build 0)  -->
<!DOCTYPE svg PUBLIC "-//W3C//DTD SVG 1.1//EN" "http://www.w3.org/Graphics/SVG/1.1/DTD/svg11.dtd">
<svg version="1.1" id="图层_1" xmlns="http://www.w3.org/2000/svg" xmlns:xlink="http://www.w3.org/1999/xlink" x="0px" y="0px"
	 width="48px" height="48px" viewBox="0 0 48 48" enable-background="new 0 0 48 48" xml:space="preserve">
<rect x="7.143" y="2" opacity="0.2" enable-background="new    " width="33.714" height="44"/>
<rect x="7.143" y="2" opacity="0.08" enable-background="new    " width="35.714" height="46"/>
<rect x="8.143" y="3" opacity="0.1" enable-background="new    " width="33.714" height="44"/>
<rect x="8.143" y="3" fill="#0D47A1" width="31.714" height="42"/>
<g>
	
		<linearGradient id="SVGID_1_" gradientUnits="userSpaceOnUse" x1="107.2002" y1="869.3008" x2="107.2002" y2="828.3008" gradientTransform="matrix(1 0 0 1 -83.2002 -824.8008)">
		<stop  offset="0" style="stop-color:#1976D2"/>
		<stop  offset="0.0226" style="stop-color:#1C79D3"/>
		<stop  offset="0.2859" style="stop-color:#3B93E2"/>
		<stop  offset="0.5416" style="stop-color:#52A6ED"/>
		<stop  offset="0.7843" style="stop-color:#5FB1F4"/>
		<stop  offset="1" style="stop-color:#64B5F6"/>
	</linearGradient>
	<rect x="8.641" y="3.5" fill="url(#SVGID_1_)" width="30.718" height="41"/>
	<g>
		<path fill="#64B5F6" d="M33.566,25.367c0,5.279-4.287,9.566-9.568,9.566c-5.28,0-9.565-4.287-9.565-9.566
			c0-5.28,4.286-9.567,9.565-9.567C29.279,15.8,33.566,20.087,33.566,25.367z"/>
		<path fill="#FFFFFF" fill-opacity="0.8" d="M17.725,18.16c0,0,0.197,0.104,0.273,0.272c0.062,0.165,0.275,0.165,0.275,0.165h0.306
			l0.447-0.133l-0.109,0.24c0,0-2.341,1.089-1.869,1.73c0.475,0.646,0.307,0.811,0.307,1.014c0,0.197,0.14,0.029,0.14,0.029
			l0.136-0.366l0.199-0.275l0.2-0.307l0.062-0.171l0.275-0.47l0.337-0.2l0.306,0.2c0,0,0.138,0.059,0.105,0.166
			c-0.029,0.107-0.062,0.304-0.062,0.304s0.062,0.142,0.168,0.142c0.109,0,0.276-0.109,0.276-0.109l0.139,0.246l0.108,0.446
			l0.273,0.275l0.14,0.304l-0.14,0.278l0.14,0.106l0.306,0.336l0.059,0.166l-0.505-0.027c0,0-0.061-0.141-0.165-0.141
			c-0.108,0-0.538-0.029-0.538-0.029l-0.247,0.061l-0.135,0.168c0,0-0.169,0.272-0.276,0.272c-0.105,0-0.365-0.059-0.365-0.059
			s-0.2-0.062-0.309,0.139c-0.108,0.2,0.167,0.305,0.167,0.305l-0.473,0.139l-0.14,0.064c0,0-0.337,0.136-0.337,0.246
			c0,0.107,0,0.107,0,0.107l-0.103,0.275v0.166l-0.247,0.2l-0.246,0.165L16.5,24.801v0.336c0,0-0.032,0.168-0.032,0.275
			c0,0.109,0,0.368,0,0.368s-0.108,0.106-0.168-0.109c-0.062-0.197-0.062-0.197-0.062-0.197l-0.108-0.245c0,0,0.108-0.033-0.03-0.14
			c-0.136-0.104-0.276-0.136-0.276-0.136s-0.059-0.059-0.199-0.059c-0.137,0,0.168,0.029-0.137,0
			c-0.306-0.035-0.306-0.035-0.306-0.035l-0.246,0.2v0.169c0,0-0.059,1.195,0.275,1.361h0.14l0.198-0.305l0.169,0.059v0.139
			l-0.032,0.248v0.137l0.166,0.17l0.108,0.305c0.14,0.246,0.063,0.307,0.167,0.365c0.108,0.063,0.202,0.249,0.202,0.249l0.136,0.059
			c0,0,0.108,0.032,0.199,0.059c0.109,0.032,0.109,0.032,0.109,0.032l0.032,0.154l0.033,0.123l0.136,0.166c0,0-0.105,0,0.14,0
			c0.244,0,0.244,0,0.244,0s0,0.063,0.169,0.141c0.166,0.059,0.032,0.033,0.166,0.059c0.14,0.033,0.368,0.063,0.368,0.063
			c0.245-0.033,0.245-0.033,0.245-0.033l0.169,0.249c0,0,0.105,0,0.136,0.104c0.033,0.106-0.166,0,0.033,0.106
			c0.197,0.109,0,0.034,0.197,0.109c0.199,0.075-0.063,0.062,0.196,0.062c0.26,0,0.307,0,0.414,0.029
			c0.108,0.031,0.169,0.277,0.169,0.277c0.197,0.243,0.197,0.243,0.197,0.243l0.034,0.307c0,0-0.108,0.062,0.136,0.062
			c0.247,0,0.062,0,0.247,0c0.182,0-0.031-0.062,0.168,0c0.198,0.059,0.198,0.059,0.198,0.059s0.306,0.248,0.415,0.248
			c0.107,0,0.306-0.034,0.414,0c0.107,0.029,0.166,0.195,0.365,0.243c0.2,0.034,0.276,0,0.414,0.109
			c0.14,0.106,0.14,0.106,0.14,0.106l0.031,0.363l-0.109,0.2l-0.275,0.107l-0.032,0.339l-0.14,0.339v0.165
			c0,0,0.171,0.142-0.136,0.171c-0.303,0.029-0.303,0.029-0.303,0.029l-0.14,0.137c0,0,0,0.034-0.062,0.139
			c-0.059,0.106-0.138,0.277-0.138,0.277l0.032,0.307v0.198l-0.107,0.165c0,0-0.093,0.048,0.166,0.217
			c0.274,0.168,0.49,0.168,0.554,0.271c0.059,0.109,0.229,0.2,0.229,0.2l-0.37-0.074l-0.231-0.077l-0.382-0.104l-0.734-0.385
			c0,0-1.103-0.902-1.441-1.636c0,0-0.289-0.43-0.778-0.611c0,0-1.21-1.104-1.317-1.38l-0.046-0.185v-0.091l-0.047-0.048v-0.104
			l-0.029-0.077l0.017-0.339l0.015-0.229l0.015-0.123l-0.015-0.091c0,0-0.061-0.059-0.061-0.074s-0.047-0.155-0.047-0.155
			l-0.015-0.046l0.184-0.154l-0.049-0.139l0.032-0.074l0.106-0.078c0,0,0.063-0.09,0.063-0.106c0-0.029-0.108-0.106-0.108-0.106
			l-0.044,0.016l-0.049,0.139H16.53c0,0-0.063-0.031-0.063-0.048s-0.059-0.075-0.059-0.075l-0.078-0.031
			c0,0-0.061-0.017-0.077-0.046s-0.092-0.077-0.092-0.093c0-0.017-0.059-0.107-0.059-0.107l-0.079-0.026c0,0-0.094-0.14-0.094-0.171
			c0-0.014-0.045-0.091-0.045-0.091s-0.108-0.123-0.108-0.139c0-0.017-0.047-0.123-0.047-0.123h-0.073l-0.169-0.063l-0.108-0.134
			l-0.121-0.14c0,0-0.063-0.105-0.063-0.139c0-0.031-0.045-0.059-0.045-0.059h-0.076H15.03l-0.108-0.094l-0.273-0.381l-0.05-0.171
			l-0.044-0.185l-0.032-0.307v-0.197l-0.122-1.423C14.447,24.155,14.862,20.634,17.725,18.16z"/>
		<path fill="#FFFFFF" fill-opacity="0.8" d="M28.529,16.958l0.305,0.251l0.158,0.075l0.105,0.123l0.017,0.123
			c0,0,0.032,0.123,0.019,0.152c-0.019,0.035-0.035,0.2-0.035,0.2s0.14,0.246,0.14,0.278c0,0.027,0.013,0.166-0.017,0.197
			c-0.029,0.016-0.199,0.123-0.213,0.075c-0.016-0.048-0.123-0.155-0.152-0.155c-0.035-0.016-0.125-0.106-0.125-0.106l0.245-0.032
			l-0.029-0.155c0,0-0.169-0.059-0.216-0.059c-0.049-0.016-0.217-0.107-0.217-0.107l-0.182-0.045c0,0-0.305-0.075-0.339-0.093
			c-0.029-0.013-0.151-0.059-0.151-0.059h-0.26c0,0-0.125,0.059-0.152,0.091c-0.016,0.032-0.17,0.2-0.17,0.2
			s-0.014,0.197-0.014,0.229c0,0.032-0.045,0.109-0.045,0.197c0,0.094-0.02,0.216-0.02,0.249c0,0.032,0,0.075,0,0.075l-0.029,0.136
			l-0.107,0.064l-0.139,0.109c0,0-0.119,0.088-0.119,0.12c0,0.032,0,0.155,0.045,0.246s0.029,0.179,0.091,0.227
			c0.062,0.048,0.091,0.107,0.139,0.125c0.048,0.014,0.014,0.029,0.091,0.029c0.062,0,0.123,0.016,0.152-0.016
			c0.035-0.014,0.109-0.014,0.141-0.059c0.033-0.048-0.031-0.016,0.033-0.048c0.056-0.016,0.056-0.059,0.106-0.016
			c0.059,0.048,0.104,0.109,0.122,0.139c0.014,0.032,0.059,0.107,0.109,0.155c0.055,0.026,0.1,0.149,0.1,0.149l0.096,0.091
			c0,0,0.016,0.016,0.074,0.016c0.06,0,0.156-0.016,0.156-0.016l0.031-0.059c0,0,0.059,0.016,0.074-0.016
			c0.017-0.032,0.017-0.075,0.017-0.075s-0.032-0.096-0.062-0.123c-0.019-0.032-0.051-0.107-0.051-0.107l0.02-0.109l0.055-0.062
			l0.021-0.075v-0.091l-0.063-0.032l-0.106-0.064c0,0-0.059,0.016-0.059-0.059c-0.02-0.061-0.02-0.061-0.02-0.061l-0.136-0.029
			l-0.093-0.048l0.109-0.077c0.061-0.104,0.074-0.136,0.074-0.166s-0.014-0.123-0.014-0.123s-0.061-0.019-0.061-0.093
			c-0.017-0.075-0.017-0.123-0.017-0.123l0.017-0.059c0,0,0.013-0.048,0.061-0.048c0.029,0,0.091,0.048,0.123,0.048
			c0.029,0,0.088,0.016,0.088,0.016s0.032,0.011,0.032,0.059c0,0.032-0.013,0.107-0.013,0.107l0.055-0.091v0.107l-0.013,0.123v0.123
			l0.062,0.123l0.059,0.093c0,0,0.078,0.078,0.109,0.11c0.035,0.01,0.109,0.069,0.109,0.069l0.091,0.048l0.062,0.016l0.059-0.064
			c0,0,0.109,0.016,0.109-0.016c0.016-0.032,0.016-0.032,0.016-0.032s0.123-0.013,0.152-0.013c0.035,0,0.097,0,0.097,0
			s0.046,0.091,0.013,0.091c-0.031,0-0.047,0.029-0.123,0.062c-0.076,0.016-0.109,0-0.122,0.032
			c-0.017,0.032-0.059,0.107-0.059,0.107l0.059,0.016h0.046l0.061,0.064c0,0,0.016,0.013,0,0.059s0.059,0.032-0.016,0.045
			c-0.091,0.019-0.137-0.013-0.137-0.013s-0.013-0.078-0.061-0.045c-0.035,0.032-0.049,0.106-0.049,0.106v0.104l0.059,0.155
			c0,0,0.033,0.032,0,0.051c-0.025,0.013-0.133,0.136-0.133,0.136s-0.016,0.043-0.062,0.043c-0.032,0-0.075,0-0.155,0.016
			C28.5,20.284,28.5,20.284,28.439,20.3c-0.064,0.016-0.107,0.027-0.203,0.045c-0.091,0.013-0.256,0.013-0.32,0.013
			c-0.057,0-0.074,0-0.104-0.013c-0.032-0.019-0.016,0-0.059-0.062c-0.046-0.061-0.093-0.106-0.093-0.155
			c0-0.032,0-0.045-0.021-0.106c-0.014-0.059-0.014-0.107-0.057-0.107c-0.061,0-0.061,0-0.061,0s-0.121,0.093-0.107,0.123
			c0.016,0.032-0.014,0,0.091,0.075c0.106,0.077,0.139,0.187,0.139,0.187l-0.019,0.107l-0.195,0.107l-0.139,0.042l-0.016,0.096
			c0,0,0,0.032-0.029,0.075c-0.032,0.042-0.109,0.107-0.109,0.107s-0.062,0.016-0.075,0.061c-0.017,0.032-0.063,0.152-0.063,0.152
			s-0.059-0.016-0.121,0.032c-0.061,0.048,0.017,0.048-0.122,0.107c-0.14,0.059-0.14,0.059-0.14,0.059l-0.151-0.01l-0.091,0.029
			c0,0-0.123,0.013-0.139,0.045c-0.016,0.032-0.078,0.123-0.078,0.123s-0.029,0.062,0,0.062c0.033,0.013,0.078,0,0.152,0.013
			c0.064,0.019,0.078,0.019,0.129,0.048c0.045,0.016,0.09,0.061,0.09,0.061l0.166,0.152l0.094,0.197l-0.02,0.155l-0.182,0.062
			c0,0-0.104,0-0.151,0c-0.034,0-0.019,0-0.2,0c-0.185,0-0.214,0-0.246,0c-0.031,0-0.152-0.019-0.152-0.019l-0.109,0.019
			l-0.074,0.062l-0.045,0.016c0,0,0.061,0.136,0.061,0.181c0,0.048,0,0.107,0,0.107l-0.016,0.096l-0.045,0.107l-0.064,0.106
			l0.021,0.059c0,0-0.021,0.048,0.014,0.048c0.031,0,0.119-0.016,0.119,0.016c0,0.029-0.074,0.155-0.074,0.155l0.154,0.029
			c0,0-0.014-0.013,0.075,0.016c0.091,0.011,0.151,0.042,0.151,0.042l0.105,0.075l0.034,0.062l0.032-0.062
			c0,0,0.165-0.013,0.197-0.029c0.031-0.016,0.109-0.016,0.109-0.016h0.133c0,0,0.033,0.016,0.063-0.016
			c0.016-0.027,0.016-0.027,0.016-0.027s0.154-0.064,0.184-0.096c0.029-0.013,0.046-0.107,0.046-0.107s0.048-0.029,0.048-0.059
			s-0.031-0.107-0.031-0.107v-0.064l0.045-0.059c0,0,0.014-0.016,0.061-0.062c0.049-0.045,0.049-0.045,0.049-0.045
			s-0.019-0.016,0.043-0.048c0.064-0.016,0.109-0.062,0.139-0.062s-0.029,0.035,0.029,0c0.061-0.032,0.077-0.059,0.077-0.106
			c0-0.03,0.019-0.2,0.019-0.2l0.057-0.091l0.154,0.016l0.074,0.016c0,0,0.094,0.016,0.11-0.016
			c0.016-0.032,0.062-0.059,0.062-0.059l0.123-0.064c0,0-0.017-0.013,0.047-0.013c0.059,0,0.152,0,0.195,0c0.035,0,0.109,0,0.109,0
			s0.062,0.029,0.091,0.056c0.017,0.032,0.062,0.11,0.062,0.11l0.045,0.064h0.051c0.059,0.045,0.088,0.077,0.195,0.104
			c0.107,0.032,0.184,0.062,0.184,0.062s0.029,0.061,0.059,0.091c0.033,0.032,0.063,0.061,0.107,0.093
			c0.032,0.016,0.062,0.048,0.078,0.075c0.013,0.032,0.063,0.093,0.063,0.093l0.056,0.062l0.035-0.062v-0.106l-0.016-0.059
			c0,0-0.059-0.045,0.016-0.045c0.061,0,0.109,0,0.109,0l-0.062-0.096l-0.077-0.029l-0.107-0.078l-0.045-0.048l-0.049-0.011
			l-0.045-0.032l-0.064-0.045c0,0-0.105-0.019-0.105-0.062c-0.014-0.032-0.014-0.032-0.014-0.032l-0.109-0.016
			c0,0-0.107-0.059-0.107-0.088c0-0.035-0.014-0.125-0.014-0.125l-0.09-0.014c0,0,0.014-0.061,0.014-0.106
			c0-0.032,0.034-0.078,0.034-0.078l0.194-0.013l0.043,0.104l0.078,0.048l0.109,0.045l0.045,0.062l0.045,0.043
			c0,0,0.02,0.016,0.078,0.035c0.061,0.013,0.106,0.029,0.106,0.029s0.062,0.059,0.106,0.059c0.049,0.016,0.064,0.032,0.112,0.048
			c-0.034,0.032-0.034,0.032-0.034,0.032s0.016,0.032,0.061,0.062c0.046,0.029,0.092,0.091,0.092,0.123
			c0,0.029,0.031,0.136,0.061,0.152c0.032,0.016,0.045,0.016,0.104,0.077c0.062,0.059,0.062,0.12,0.109,0.152
			c0.062,0.016,0.106,0,0.106,0.059c0.016,0.064,0.016,0.109,0.016,0.109s0.049,0.019,0.078,0.019s0.091-0.062,0.091-0.062
			s0.062-0.093,0.017-0.112c-0.03-0.013-0.105-0.013-0.105-0.045c0-0.032,0-0.197,0-0.197l0.046-0.109l0.06-0.088l0.093,0.027
			l0.091-0.059l0.094,0.106l-0.029,0.123c0,0,0.013,0.075,0.056,0.136c0.034,0.061,0.106,0.141,0.106,0.141l0.158,0.139l0.213,0.059
			l0.049-0.016l0.32-0.062c0,0,0.047,0,0.074,0c0.031,0,0.184,0.259,0.184,0.259s0,0.109,0,0.168c0,0.062,0,0.216,0,0.216
			s-0.106,0.107-0.152,0.107c-0.047,0-0.168,0.059-0.168,0.059l-0.258,0.062l-0.169-0.014l-0.304-0.019c0,0-0.308-0.013-0.34-0.013
			c-0.031,0-0.139,0-0.168,0s-0.077,0.032-0.109,0.123c-0.029,0.091-0.091,0.12-0.091,0.12s0,0.045-0.062,0.045
			c-0.059,0-0.059,0.021-0.104-0.013c-0.051-0.032-0.262-0.078-0.262-0.078l-0.2-0.133l-0.109-0.091l-0.106-0.016h-0.308l-0.2-0.016
			l0.035-0.323l0.026,0.093l-0.062-0.213l-0.091-0.064l-0.216-0.045L28.1,23.114l-0.184,0.048l-0.182,0.062l-0.109,0.032
			l-0.516,0.088l-0.187,0.08c0,0-0.077,0.045-0.106,0.059c-0.029,0.016-0.152,0.016-0.152,0.016s-0.094-0.016-0.139-0.029
			c-0.043-0.013-0.152-0.013-0.201-0.013c-0.045,0-0.139-0.016-0.168,0c-0.029,0.013-0.061,0.013-0.09,0.059
			c-0.032,0.048-0.139,0.171-0.139,0.171s-0.059,0.059-0.092,0.091c-0.016,0.026-0.09,0.12-0.09,0.12l-0.126,0.2l-0.077,0.091
			l0.021,0.109v0.077c0,0-0.049,0.043-0.078,0.059c-0.034,0.016-0.096,0.048-0.096,0.048s-0.045,0.013-0.091,0.059
			c-0.042,0.032-0.042,0.049-0.076,0.074c-0.032,0.033-0.14,0.107-0.14,0.107s-0.059,0.048-0.105,0.094
			c-0.028,0.045-0.094,0.104-0.108,0.139c-0.013,0.031-0.06,0.061-0.092,0.074c-0.026,0.02-0.091,0.142-0.105,0.174
			c-0.015,0.027-0.108,0.166-0.108,0.166l-0.062,0.258l-0.013,0.121c0,0,0.013,0.048,0.047,0.08c0.03,0.026,0.06,0.152,0.06,0.152
			v0.109c0,0-0.032,0.09-0.048,0.122c-0.012,0.026,0.016,0.182,0.016,0.182v0.091c0,0,0,0.032-0.047,0.074
			c-0.049,0.049-0.061,0.109-0.061,0.109l0.061,0.139l0.047,0.094v0.059l0.059,0.107c0,0,0.032,0.031,0.062,0.061
			c0.034,0.017,0.048,0.017,0.11,0.063c0.063,0.031,0.063,0.031,0.063,0.031s0.093,0.107,0.093,0.152
			c0,0.032,0.059,0.094,0.059,0.094l0.106,0.106c0,0,0.018,0.06,0.076,0.106c0.061,0.049,0.123,0.075,0.154,0.107
			c0.031,0.016,0.123,0.091,0.197,0.106c0.064,0.017,0.094,0.032,0.125,0.032c0.029,0-0.048-0.096,0.168,0.014
			c0.214,0.109,0.354,0.154,0.354,0.154l0.154,0.062c0,0,0.248,0.017,0.271-0.017c0.033-0.016,0.078-0.016,0.105-0.016
			c0.031,0,0.111,0,0.173,0c0.056,0,0.272-0.031,0.272-0.031l0.242-0.092c0,0,0.078-0.045,0.113-0.061
			c0.029-0.014,0.117-0.075,0.151-0.088c0.034-0.021,0.185-0.021,0.185-0.021s0-0.046,0.059,0c0.064,0.048,0.064,0.063,0.077,0.096
			c0.019,0.032,0.019,0.107,0.062,0.107c0.045,0.016,0.154,0.047,0.154,0.047s0.155-0.018,0.197,0
			c0.046,0.014,0.156,0.014,0.156,0.014l0.045,0.062l0.019,0.136v0.126c0,0-0.019,0.048,0,0.091
			c0.013,0.048,0.059,0.123,0.059,0.123s-0.059,0.09-0.093,0.104c-0.033,0.016-0.107,0.109-0.107,0.109l0.213,0.197l0.123,0.123
			l0.092,0.109c0,0,0.018,0.046,0.018,0.075s-0.018,0.106,0,0.151c0.017,0.035,0.017,0.155,0.017,0.155s0.013,0.091,0.013,0.123
			c0,0.034-0.029,0.182-0.029,0.182l-0.018,0.109l-0.063,0.185l-0.074,0.09l-0.107,0.107l-0.076,0.123l-0.014,0.165l-0.064,0.106
			c0,0,0.016,0.096,0.016,0.142s0.097,0.211,0.097,0.211l-0.021,0.139c0,0-0.056,0.203-0.056,0.248c0,0.049-0.049,0.107-0.049,0.155
			c0,0.029-0.016,0.168-0.016,0.168l0.016,0.166l0.059,0.168L28.5,32.393c0,0-0.031,0.122-0.031,0.2
			c0,0.059,0.109,0.136,0.136,0.136c0.034,0,0.171-0.016,0.229-0.059c0.064-0.032,0.217-0.077,0.248-0.097
			c0.029-0.013,0.059,0.02,0.155-0.059c0.088-0.059,0.229-0.171,0.229-0.171s0.104-0.074,0.152-0.104
			c0.029-0.032,0.182-0.2,0.182-0.2s0.106-0.107,0.184-0.155c0.074-0.045,0-0.013,0.074-0.056c0.078-0.048,0.32-0.248,0.32-0.248
			l0.249-0.246c0,0,0.214-0.274,0.245-0.32c0.032-0.05,0.23-0.304,0.262-0.325c0.027-0.014,0.305-0.195,0.365-0.243
			c0.06-0.048,0.14-0.368,0.166-0.417c0.029-0.029,0.2-0.41,0.2-0.41l0.155-0.443l0.259-0.662l0.259-0.462
			c0,0,0.104-0.197,0.152-0.256c0.031-0.062,0.277-0.536,0.277-0.536l0.094-0.396l0.029-0.337h-0.152l-0.171,0.152l-0.155-0.045
			l-0.148,0.019l0.168-0.216l-0.049-0.168l-0.136-0.107l-0.185-0.275v-0.274l-0.197-0.32l-0.123-0.507c0,0-0.229-0.246-0.197-0.305
			c0.014-0.064,0.074-0.248,0.074-0.248l0.123,0.061c0,0,0.092,0.246,0.137,0.259c0.051,0.014,0.109,0.136,0.128,0.168
			c0.013,0.032,0.029,0.139,0.056,0.168c0.02,0.029,0.123,0.23,0.123,0.23s0.078,0.199,0.094,0.244
			c0.014,0.033,0.09,0.152,0.106,0.244c0.019,0.096,0.062,0.384,0.062,0.416c0,0.031,0.074,0.352,0.074,0.352
			s0.107-0.031,0.121-0.059c0.018-0.031,0.018-0.047,0.051-0.074c0.016-0.032,0.197-0.171,0.197-0.171l0.077-0.245
			c0,0,0.048-0.107,0.059-0.155c0.019-0.046,0.109-0.214,0.109-0.245c0-0.029-0.016-0.152,0-0.197
			c0.014-0.033,0.06-0.215,0.06-0.246c0-0.032,0.016-0.154,0.016-0.154l-0.016-0.275l0.122-0.152l0.062-0.171
			C33.551,24.173,33.107,19.366,28.529,16.958z"/>
	</g>
	<g>
		<rect x="8.633" y="3.5" opacity="0.8" fill="#FFFFFF" enable-background="new    " width="30.734" height="7.858"/>
		<g enable-background="new    ">
			<path fill="#1976D2" d="M21.187,7.38c0,0.524-0.083,0.986-0.246,1.384c-0.166,0.398-0.39,0.731-0.675,0.999
				c-0.286,0.267-0.625,0.47-1.02,0.603c-0.393,0.139-0.817,0.206-1.268,0.206c-0.44,0-0.857-0.066-1.247-0.206
				c-0.392-0.133-0.731-0.336-1.025-0.603c-0.291-0.267-0.521-0.601-0.686-0.999c-0.168-0.397-0.253-0.859-0.253-1.384
				s0.088-0.985,0.262-1.383c0.173-0.397,0.408-0.731,0.702-1.003c0.296-0.271,0.635-0.474,1.025-0.609
				c0.387-0.136,0.793-0.204,1.223-0.204c0.44,0,0.854,0.068,1.247,0.204c0.39,0.135,0.731,0.338,1.022,0.609
				c0.291,0.272,0.521,0.606,0.688,1.003C21.104,6.395,21.187,6.855,21.187,7.38z M16.267,7.38c0,0.3,0.038,0.572,0.115,0.813
				c0.078,0.243,0.189,0.45,0.336,0.624c0.144,0.175,0.323,0.308,0.534,0.402c0.211,0.096,0.454,0.144,0.726,0.144
				c0.267,0,0.507-0.048,0.721-0.144c0.214-0.094,0.393-0.227,0.539-0.402c0.147-0.173,0.256-0.38,0.334-0.624
				c0.077-0.24,0.117-0.512,0.117-0.813s-0.04-0.573-0.117-0.817c-0.078-0.244-0.187-0.454-0.334-0.627
				c-0.146-0.173-0.325-0.308-0.539-0.403c-0.213-0.093-0.454-0.142-0.721-0.142c-0.272,0-0.515,0.049-0.726,0.147
				c-0.211,0.097-0.39,0.232-0.534,0.406c-0.147,0.175-0.259,0.383-0.336,0.627C16.305,6.816,16.267,7.086,16.267,7.38z"/>
			<path fill="#1976D2" d="M26.965,4.322v1.176H25.02v4.947h-1.452V5.498h-1.943V4.322H26.965z"/>
			<path fill="#1976D2" d="M31.781,4.322h1.451v6.123h-1.451V7.848h-2.435v2.597h-1.452V4.322h1.452v2.342h2.435V4.322z"/>
		</g>
	</g>
</g>
</svg>
