<?xml version="1.0" encoding="utf-8"?>
<!-- Generator: Adobe Illustrator 21.0.0, SVG Export Plug-In . SVG Version: 6.00 Build 0)  -->
<svg version="1.1" id="图层_1" xmlns="http://www.w3.org/2000/svg" xmlns:xlink="http://www.w3.org/1999/xlink" x="0px" y="0px"
	 viewBox="0 0 48 48" style="enable-background:new 0 0 48 48;" xml:space="preserve">
<style type="text/css">
	.st0{opacity:0.2;enable-background:new    ;}
	.st1{opacity:0.08;enable-background:new    ;}
	.st2{opacity:0.1;enable-background:new    ;}
	.st3{fill:#455A64;}
	.st4{fill:url(#SVGID_1_);}
	.st5{opacity:0.8;fill:#FFFFFF;enable-background:new    ;}
</style>
<rect x="2" y="2" class="st0" width="44" height="44"/>
<rect x="2" y="2" class="st1" width="46" height="46"/>
<rect x="3" y="3" class="st2" width="44" height="44"/>
<rect x="3" y="3" class="st3" width="42" height="42"/>
<g>
	
		<linearGradient id="SVGID_1_" gradientUnits="userSpaceOnUse" x1="65.6001" y1="-837.4004" x2="65.6001" y2="-878.4004" gradientTransform="matrix(1 0 0 -1 -41.6001 -833.9004)">
		<stop  offset="0" style="stop-color:#90A4AE"/>
		<stop  offset="0.1378" style="stop-color:#849AA5"/>
		<stop  offset="0.4226" style="stop-color:#708A97"/>
		<stop  offset="0.7096" style="stop-color:#64808E"/>
		<stop  offset="1" style="stop-color:#607D8B"/>
	</linearGradient>
	<rect x="3.5" y="3.5" class="st4" width="41" height="41"/>
	<path class="st5" d="M34.2,29.4c0-0.1,0.1-0.1,0.1-0.2c0.1-0.1,0.1-0.2,0.2-0.4l0,0c0.3-0.7,0.5-1.3,0.7-2.1h2.7v-5.5h-2.7
		C34.9,20,34.5,19,33.9,18l1.9-1.9l-3.9-3.9l-1.9,2c-1-0.6-2.1-1.1-3.3-1.4l0,0v-2.7h-5.5v2.7l0,0c-1.2,0.3-2.3,0.7-3.3,1.3L16,12.2
		l-3.9,3.9L14,18c-0.6,1-1,2-1.3,3.2H10v5.5h2.7c0.3,1.2,0.7,2.2,1.3,3.2l0,0l-1.9,1.9l3.9,3.9l1.9-1.9c1,0.6,2.1,1,3.2,1.3v2.7h5.5
		v-2.7l0,0l0,0c1.2-0.3,2.2-0.7,3.2-1.3l1.9,1.9l3.9-3.9L33.9,30l0,0c0.1-0.1,0.1-0.2,0.2-0.3C34.1,29.6,34.1,29.5,34.2,29.4z
		 M24,32.8c-4.9,0-8.8-3.9-8.8-8.8s3.9-8.8,8.8-8.8c1,0,1.9,0.1,2.8,0.4l0,0c3.5,1.2,6,4.5,6,8.4c0,0.2,0,0.5,0,0.7l0,0
		c-0.1,0.7-0.2,1.4-0.4,2c0,0,0,0,0,0.1c-0.1,0.4-0.3,0.8-0.5,1.2c0,0,0,0,0,0.1c-0.1,0.2-0.2,0.4-0.3,0.5l0,0
		c-0.1,0.2-0.2,0.4-0.4,0.5l0,0c-0.1,0.2-0.3,0.3-0.4,0.5c0,0,0,0-0.1,0.1c-0.3,0.3-0.6,0.6-0.9,0.9c0,0,0,0-0.1,0.1
		s-0.3,0.3-0.5,0.4c0,0,0,0-0.1,0c-0.1,0.1-0.3,0.2-0.5,0.3c0,0,0,0-0.1,0c-0.2,0.1-0.3,0.2-0.5,0.3c0,0-0.1,0-0.1,0.1
		c-0.2,0.1-0.4,0.2-0.5,0.3c0,0,0,0-0.1,0c-0.2,0.1-0.3,0.1-0.5,0.2C25.9,32.6,25,32.8,24,32.8z"/>
</g>
</svg>
