<?xml version="1.0" encoding="utf-8"?>
<!-- Generator: Adobe Illustrator 16.0.0, SVG Export Plug-In . SVG Version: 6.00 Build 0)  -->
<!DOCTYPE svg PUBLIC "-//W3C//DTD SVG 1.1//EN" "http://www.w3.org/Graphics/SVG/1.1/DTD/svg11.dtd">
<svg version="1.1" id="图层_1" xmlns="http://www.w3.org/2000/svg" xmlns:xlink="http://www.w3.org/1999/xlink" x="0px" y="0px"
	 width="48px" height="48px" viewBox="0 0 48 48" enable-background="new 0 0 48 48" xml:space="preserve">
<polygon opacity="0.06" enable-background="new    " points="7.181,48 7.181,2 42.818,2 42.818,35.003 29.82,48 "/>
<polygon opacity="0.1" enable-background="new    " points="8.181,47 8.181,3 41.818,3 41.818,34.589 29.407,47 "/>
<polygon opacity="0.2" enable-background="new    " points="7.181,46 7.181,2 40.818,2 40.818,33.589 28.408,46 "/>
<polygon fill="#3E2723" points="8.143,45 8.143,3 39.857,3 39.857,33.175 28.004,45 "/>
<g>
	<g>
		
			<linearGradient id="SVGID_1_" gradientUnits="userSpaceOnUse" x1="65.5996" y1="-119.4004" x2="65.5996" y2="-160.4009" gradientTransform="matrix(1 0 0 -1 -41.6001 -115.9004)">
			<stop  offset="0" style="stop-color:#785548"/>
			<stop  offset="1" style="stop-color:#9F9E9F"/>
		</linearGradient>
		<polygon fill="url(#SVGID_1_)" points="8.641,44.5 8.641,3.5 39.359,3.5 39.359,32.953 27.941,44.5 		"/>
		<polygon fill="#795548" fill-opacity="0.7" points="39.359,32.969 39.359,32.473 27.199,32.473 27.199,44.5 27.829,44.5 		"/>
		<path opacity="0.39" fill="#FFFFFF" enable-background="new    " d="M27.813,32.969l11.547,0.016L27.829,44.5L27.813,32.969z"/>
	</g>
	<path fill="#FFFFFF" d="M19.617,11.404h-1.039v13.315h-0.787V11.404h-1.033v13.315h-0.785V11.404h-1.036v13.315H14.15V11.404
		h-1.034v13.315h-0.271v5.64h7.127v-5.64h-0.355V11.404z M18.934,28.719h-5.056v-3.27h5.056V28.719z"/>
	<g>
		<rect x="8.634" y="3.5" opacity="0.8" fill="#FFFFFF" enable-background="new    " width="30.731" height="7.858"/>
		<g enable-background="new    ">
			<path fill="#5D4037" d="M13.848,9.442c0.203,0,0.374-0.016,0.507-0.048c0.134-0.035,0.24-0.08,0.32-0.133
				c0.08-0.059,0.136-0.123,0.168-0.2c0.029-0.077,0.045-0.163,0.045-0.256c0-0.2-0.099-0.367-0.299-0.499
				c-0.197-0.132-0.539-0.275-1.022-0.428c-0.211-0.071-0.422-0.152-0.633-0.243s-0.4-0.207-0.566-0.344
				c-0.168-0.139-0.304-0.307-0.411-0.504C11.854,6.587,11.8,6.347,11.8,6.065c0-0.283,0.056-0.538,0.168-0.765
				c0.112-0.227,0.27-0.42,0.473-0.579c0.206-0.159,0.454-0.282,0.745-0.367s0.622-0.128,0.987-0.128
				c0.433,0,0.809,0.044,1.124,0.133c0.317,0.088,0.577,0.186,0.782,0.291L15.66,5.738c-0.179-0.089-0.379-0.167-0.601-0.235
				c-0.219-0.068-0.483-0.102-0.792-0.102c-0.35,0-0.598,0.045-0.75,0.138c-0.152,0.09-0.227,0.23-0.227,0.419
				c0,0.112,0.027,0.207,0.083,0.283c0.056,0.076,0.134,0.146,0.238,0.208c0.102,0.061,0.219,0.117,0.353,0.167
				c0.133,0.051,0.28,0.103,0.443,0.155c0.333,0.119,0.625,0.235,0.873,0.35c0.248,0.115,0.456,0.248,0.619,0.401
				c0.166,0.154,0.288,0.334,0.368,0.54c0.08,0.207,0.12,0.456,0.12,0.75c0,0.571-0.211,1.014-0.632,1.329
				c-0.422,0.318-1.057,0.475-1.906,0.475c-0.286,0-0.545-0.016-0.774-0.048c-0.229-0.032-0.432-0.075-0.608-0.12
				s-0.329-0.099-0.457-0.152c-0.125-0.051-0.232-0.102-0.32-0.149l0.411-1.094c0.192,0.101,0.427,0.189,0.71,0.27
				C13.092,9.399,13.437,9.442,13.848,9.442z"/>
			<path fill="#5D4037" d="M21.391,4.368h1.45v6.126h-1.45v-2.6h-2.437v2.6h-1.452V4.368h1.452V6.71h2.437V4.368z"/>
			<path fill="#5D4037" d="M28.654,10.494c-0.07-0.214-0.147-0.433-0.23-0.657c-0.082-0.224-0.165-0.449-0.245-0.67h-2.52
				c-0.08,0.221-0.163,0.446-0.245,0.67c-0.08,0.224-0.155,0.443-0.228,0.657h-1.508c0.243-0.662,0.475-1.271,0.691-1.831
				c0.216-0.56,0.429-1.086,0.638-1.582c0.208-0.496,0.416-0.965,0.616-1.41c0.203-0.444,0.414-0.879,0.63-1.304h1.375
				c0.213,0.424,0.422,0.859,0.627,1.304c0.206,0.444,0.414,0.914,0.622,1.41c0.208,0.495,0.422,1.022,0.641,1.582
				c0.22,0.561,0.448,1.169,0.691,1.831H28.654z M26.914,5.755c-0.035,0.088-0.08,0.209-0.145,0.363
				c-0.062,0.153-0.134,0.33-0.214,0.53c-0.08,0.202-0.168,0.422-0.267,0.663c-0.096,0.242-0.197,0.494-0.299,0.76h1.842
				c-0.096-0.266-0.192-0.52-0.286-0.762c-0.093-0.242-0.179-0.463-0.265-0.664c-0.082-0.201-0.154-0.377-0.219-0.531
				C27.002,5.962,26.951,5.842,26.914,5.755z"/>
			<path fill="#5D4037" d="M32.925,4.297c0.966,0,1.708,0.164,2.224,0.491c0.516,0.327,0.771,0.835,0.771,1.524
				c0,0.43-0.102,0.779-0.311,1.048c-0.207,0.268-0.506,0.478-0.896,0.631c0.129,0.153,0.264,0.328,0.406,0.526
				c0.145,0.197,0.285,0.401,0.428,0.621c0.139,0.213,0.271,0.438,0.402,0.67c0.131,0.232,0.25,0.461,0.363,0.686h-1.623
				c-0.121-0.203-0.238-0.406-0.361-0.611c-0.119-0.206-0.245-0.406-0.373-0.601s-0.251-0.379-0.379-0.553
				c-0.123-0.173-0.246-0.331-0.371-0.472h-0.719v2.237h-1.449V4.456c0.318-0.059,0.644-0.1,0.98-0.123
				C32.355,4.309,32.658,4.297,32.925,4.297z M33.01,5.473c-0.106,0-0.203,0.002-0.283,0.009c-0.085,0.005-0.165,0.011-0.24,0.018
				v1.662h0.412c0.544,0,0.934-0.065,1.172-0.195c0.234-0.129,0.354-0.351,0.354-0.663c0-0.3-0.122-0.514-0.36-0.641
				C33.827,5.535,33.475,5.473,33.01,5.473z"/>
		</g>
	</g>
</g>
</svg>
