<?xml version="1.0" encoding="utf-8"?>
<!-- Generator: Adobe Illustrator 16.0.0, SVG Export Plug-In . SVG Version: 6.00 Build 0)  -->
<!DOCTYPE svg PUBLIC "-//W3C//DTD SVG 1.1//EN" "http://www.w3.org/Graphics/SVG/1.1/DTD/svg11.dtd">
<svg version="1.1" id="图层_1" xmlns="http://www.w3.org/2000/svg" xmlns:xlink="http://www.w3.org/1999/xlink" x="0px" y="0px"
	 width="48px" height="48px" viewBox="0 0 48 48" enable-background="new 0 0 48 48" xml:space="preserve">
<polygon opacity="0.06" enable-background="new    " points="7.181,48 7.181,2 42.818,2 42.818,35.003 29.82,48 "/>
<polygon opacity="0.1" enable-background="new    " points="8.181,47 8.181,3 41.818,3 41.818,34.589 29.407,47 "/>
<polygon opacity="0.2" enable-background="new    " points="7.181,46 7.181,2 40.818,2 40.818,33.589 28.408,46 "/>
<polygon fill="#01579B" points="8.143,45 8.143,3 39.857,3 39.857,33.174 28.004,45 "/>
<g>
	<g>
		<g>
			<g>
				
					<linearGradient id="SVGID_1_" gradientUnits="userSpaceOnUse" x1="107.1982" y1="-579.3003" x2="107.1982" y2="-538.3008" gradientTransform="matrix(1 0 0 -1 -83.2002 -534.8008)">
					<stop  offset="0" style="stop-color:#2196F3"/>
					<stop  offset="0.5828" style="stop-color:#3DBAE8"/>
					<stop  offset="1" style="stop-color:#4DD0E1"/>
				</linearGradient>
				<polygon fill="url(#SVGID_1_)" points="8.639,44.5 8.639,3.5 39.356,3.5 39.356,32.969 27.825,44.5 				"/>
			</g>
			<polygon fill="#01579B" fill-opacity="0.39" points="39.356,32.969 39.356,32.473 27.192,32.473 27.192,44.5 27.825,44.5 			"/>
			<path fill="#FFFFFF" fill-opacity="0.3922" d="M27.81,32.969l11.55,0.016L27.825,44.5L27.81,32.969z"/>
		</g>
		<g>
			<circle opacity="0.8" fill="#FFFFFF" enable-background="new    " cx="29.448" cy="19.986" r="2.171"/>
			<path opacity="0.8" fill="#FFFFFF" enable-background="new    " d="M13.322,15.459v14.007h21.355V15.459H13.322z M33.138,16.996
				V27.93l0,0l-4.954-3.519l-3.54,2.167l-4.54-5.482l-5.246,6.834V16.996H33.138z"/>
		</g>
	</g>
	<g>
		<rect x="8.633" y="3.5" opacity="0.8" fill="#FFFFFF" enable-background="new    " width="30.734" height="7.858"/>
		<g enable-background="new    ">
			<path fill="#0288D1" d="M16.83,4.251c0.963,0,1.7,0.162,2.215,0.482c0.516,0.321,0.771,0.847,0.771,1.577
				c0,0.737-0.259,1.268-0.782,1.595c-0.521,0.327-1.265,0.491-2.231,0.491h-0.456v2.05h-1.449V4.41
				c0.314-0.059,0.648-0.1,1.003-0.123C16.253,4.263,16.563,4.251,16.83,4.251z M16.923,5.427c-0.104,0-0.208,0.002-0.31,0.009
				c-0.104,0.005-0.192,0.011-0.267,0.018v1.767h0.456c0.502,0,0.881-0.064,1.135-0.195c0.254-0.129,0.382-0.371,0.382-0.725
				c0-0.171-0.032-0.311-0.099-0.423c-0.064-0.112-0.158-0.203-0.278-0.27c-0.12-0.068-0.27-0.115-0.442-0.142
				C17.326,5.44,17.134,5.427,16.923,5.427z"/>
			<path fill="#0288D1" d="M25.21,10.447c-0.417-0.701-0.865-1.394-1.346-2.077c-0.485-0.684-0.998-1.328-1.547-1.935v4.012h-1.431
				V4.322h1.18c0.206,0.195,0.433,0.434,0.683,0.717c0.245,0.281,0.496,0.584,0.758,0.905c0.256,0.321,0.513,0.654,0.764,1
				c0.256,0.344,0.496,0.675,0.715,0.993V4.322h1.447v6.125H25.21z"/>
			<path fill="#0288D1" d="M31.061,5.383c-0.673,0-1.164,0.177-1.463,0.534c-0.304,0.358-0.453,0.845-0.453,1.463
				c0,0.3,0.037,0.574,0.111,0.818c0.075,0.245,0.188,0.455,0.337,0.631c0.149,0.178,0.336,0.314,0.555,0.411
				c0.225,0.098,0.486,0.146,0.785,0.146c0.16,0,0.299-0.002,0.411-0.008c0.117-0.007,0.219-0.018,0.304-0.036v-2.13H33.1v3.033
				c-0.176,0.064-0.453,0.133-0.838,0.207c-0.384,0.074-0.859,0.111-1.425,0.111c-0.48,0-0.919-0.071-1.313-0.212
				c-0.396-0.141-0.731-0.347-1.009-0.618c-0.278-0.271-0.497-0.604-0.646-1c-0.154-0.394-0.229-0.845-0.229-1.352
				c0-0.513,0.085-0.966,0.251-1.36c0.165-0.396,0.395-0.73,0.688-1.004s0.636-0.482,1.03-0.623c0.39-0.142,0.812-0.212,1.26-0.212
				c0.305,0,0.577,0.02,0.822,0.058c0.246,0.039,0.454,0.083,0.63,0.133c0.177,0.049,0.326,0.102,0.438,0.155
				c0.117,0.052,0.197,0.093,0.245,0.123l-0.416,1.105c-0.198-0.1-0.428-0.187-0.684-0.26C31.647,5.419,31.365,5.383,31.061,5.383z"
				/>
		</g>
	</g>
</g>
</svg>
