<?xml version="1.0" encoding="utf-8"?>
<!-- Generator: Adobe Illustrator 21.0.0, SVG Export Plug-In . SVG Version: 6.00 Build 0)  -->
<svg version="1.1" id="图层_1" xmlns="http://www.w3.org/2000/svg" xmlns:xlink="http://www.w3.org/1999/xlink" x="0px" y="0px"
	 viewBox="0 0 48 48" style="enable-background:new 0 0 48 48;" xml:space="preserve">
<style type="text/css">
	.st0{opacity:0.06;enable-background:new    ;}
	.st1{opacity:0.1;enable-background:new    ;}
	.st2{opacity:0.2;enable-background:new    ;}
	.st3{fill:#0D47A1;}
	.st4{fill:url(#SVGID_1_);}
	.st5{fill:#2196F3;fill-opacity:0.7;}
	.st6{opacity:0.39;fill:#FFFFFF;enable-background:new    ;}
	.st7{opacity:0.8;}
	.st8{opacity:0.8;fill:#FFFFFF;enable-background:new    ;}
	.st9{fill:#FFFFFF;}
</style>
<polygon class="st0" points="7.2,48 7.2,2 42.8,2 42.8,35 29.8,48 "/>
<polygon class="st1" points="8.2,47 8.2,3 41.8,3 41.8,34.6 29.4,47 "/>
<polygon class="st2" points="7.2,46 7.2,2 40.8,2 40.8,33.6 28.4,46 "/>
<polygon class="st3" points="8.1,45 8.1,3 39.9,3 39.9,33.2 28,45 "/>
<g>
	<g>
		<g>
			<g>
				
					<linearGradient id="SVGID_1_" gradientUnits="userSpaceOnUse" x1="65.6001" y1="-878.4004" x2="65.6001" y2="-837.4004" gradientTransform="matrix(1 0 0 -1 -41.6001 -833.9004)">
					<stop  offset="0" style="stop-color:#3F51B5"/>
					<stop  offset="1" style="stop-color:#64B5F6"/>
				</linearGradient>
				<polygon class="st4" points="8.6,44.5 8.6,3.5 39.4,3.5 39.4,33 27.8,44.5 				"/>
			</g>
			<polygon class="st5" points="39.4,33 39.4,32.5 27.2,32.5 27.2,44.5 27.8,44.5 			"/>
			<path class="st6" d="M27.8,33h11.6L27.8,44.5V33z"/>
		</g>
	</g>
	<g class="st7">
		<rect x="12.6" y="16" class="st8" width="22.8" height="1.1"/>
		<rect x="12.6" y="12.5" class="st8" width="22.8" height="1.1"/>
		<rect x="23.5" y="19.3" class="st8" width="11.9" height="11.9"/>
		<g class="st7">
			<rect x="12.6" y="19.5" class="st9" width="9.9" height="1.1"/>
			<rect x="12.6" y="23" class="st9" width="9.9" height="1.1"/>
			<rect x="12.6" y="26.6" class="st9" width="9.9" height="1.1"/>
			<rect x="12.6" y="30.1" class="st9" width="9.9" height="1.1"/>
		</g>
	</g>
</g>
</svg>
