<?xml version="1.0" encoding="utf-8"?>
<!-- Generator: Adobe Illustrator 16.0.0, SVG Export Plug-In . SVG Version: 6.00 Build 0)  -->
<!DOCTYPE svg PUBLIC "-//W3C//DTD SVG 1.1//EN" "http://www.w3.org/Graphics/SVG/1.1/DTD/svg11.dtd">
<svg version="1.1" id="图层_1" xmlns="http://www.w3.org/2000/svg" xmlns:xlink="http://www.w3.org/1999/xlink" x="0px" y="0px"
	 width="48px" height="48px" viewBox="0 0 48 48" enable-background="new 0 0 48 48" xml:space="preserve">
<polygon opacity="0.06" enable-background="new    " points="7.181,48 7.181,2 42.818,2 42.818,35.003 29.82,48 "/>
<polygon opacity="0.1" enable-background="new    " points="8.181,47 8.181,3 41.818,3 41.818,34.589 29.407,47 "/>
<polygon opacity="0.2" enable-background="new    " points="7.181,46 7.181,2 40.818,2 40.818,33.589 28.408,46 "/>
<polygon fill="#1B5E20" points="8.143,45 8.143,3 39.857,3 39.857,33.174 28.004,45 "/>
<g>
	<g>
		<g>
			<g>
				<g>
					
						<linearGradient id="SVGID_1_" gradientUnits="userSpaceOnUse" x1="107.1982" y1="-579.3003" x2="107.1982" y2="-538.3008" gradientTransform="matrix(1 0 0 -1 -83.2002 -534.8008)">
						<stop  offset="0" style="stop-color:#388E3C"/>
						<stop  offset="0.0757" style="stop-color:#43953E"/>
						<stop  offset="0.3246" style="stop-color:#62A943"/>
						<stop  offset="0.5665" style="stop-color:#79B747"/>
						<stop  offset="0.796" style="stop-color:#86C049"/>
						<stop  offset="1" style="stop-color:#8BC34A"/>
					</linearGradient>
					<polygon fill="url(#SVGID_1_)" points="8.639,44.5 8.639,3.5 39.356,3.5 39.356,32.969 27.825,44.5 					"/>
				</g>
				<polygon fill="#1B5E20" fill-opacity="0.39" points="39.356,32.969 39.356,32.473 27.192,32.473 27.192,44.5 27.825,44.5 				
					"/>
				<path fill="#FFFFFF" fill-opacity="0.3922" d="M27.81,32.969l11.55,0.016L27.825,44.5L27.81,32.969z"/>
			</g>
			<path opacity="0.8" fill="#FFFFFF" enable-background="new    " d="M24.759,12.554V12.52h-1.52v0.035h-9.798v19.098h21.113
				V12.554H24.759z M14.96,18.224h4.715v3.054H14.96V18.224z M14.96,22.796h4.715v3.047H14.96V22.796z M21.243,22.796h11.793v3.047
				H21.243V22.796z M21.243,21.277v-3.054h11.793v3.054H21.243z M33.036,14.088v2.623H21.243v-2.623H33.036z M19.675,14.088v2.623
				H14.96v-2.623H19.675z M14.96,27.379h4.715v2.742H14.96V27.379z M21.243,30.121v-2.742h11.793v2.742H21.243z"/>
		</g>
	</g>
	<g>
		<g>
			<rect x="8.633" y="3.5" opacity="0.8" fill="#FFFFFF" enable-background="new    " width="30.734" height="7.858"/>
		</g>
		<g enable-background="new    ">
			<path fill="#38883B" d="M21.029,7.38c0,0.524-0.085,0.986-0.25,1.384c-0.16,0.398-0.391,0.731-0.673,0.999
				c-0.284,0.267-0.623,0.47-1.019,0.603c-0.396,0.139-0.816,0.206-1.271,0.206c-0.44,0-0.854-0.066-1.247-0.206
				c-0.39-0.133-0.73-0.336-1.021-0.603c-0.291-0.267-0.521-0.601-0.689-0.999c-0.168-0.397-0.251-0.859-0.251-1.384
				s0.089-0.985,0.262-1.383c0.174-0.397,0.406-0.731,0.702-1.003c0.294-0.271,0.636-0.474,1.022-0.609
				c0.387-0.136,0.796-0.204,1.223-0.204c0.44,0,0.856,0.068,1.246,0.204c0.393,0.135,0.731,0.338,1.026,0.609
				c0.289,0.272,0.519,0.606,0.689,1.003C20.944,6.395,21.029,6.855,21.029,7.38z M16.106,7.38c0,0.3,0.04,0.572,0.117,0.813
				c0.077,0.243,0.187,0.45,0.334,0.624c0.146,0.175,0.323,0.308,0.533,0.402c0.211,0.096,0.454,0.144,0.727,0.144
				c0.267,0,0.507-0.048,0.721-0.144c0.216-0.094,0.395-0.227,0.542-0.402c0.144-0.173,0.256-0.38,0.333-0.624
				c0.078-0.24,0.118-0.512,0.118-0.813s-0.04-0.573-0.118-0.817c-0.077-0.244-0.189-0.454-0.333-0.627
				c-0.147-0.173-0.326-0.308-0.542-0.403c-0.214-0.093-0.454-0.142-0.721-0.142c-0.272,0-0.516,0.049-0.727,0.147
				c-0.21,0.097-0.387,0.232-0.533,0.406c-0.147,0.175-0.257,0.383-0.334,0.627C16.146,6.816,16.106,7.086,16.106,7.38z"/>
			<path fill="#38883B" d="M27.884,7.38c0,0.531-0.09,0.993-0.261,1.388c-0.177,0.396-0.422,0.722-0.742,0.981
				c-0.315,0.259-0.705,0.454-1.164,0.585c-0.459,0.128-0.977,0.192-1.548,0.192c-0.257,0-0.561-0.011-0.908-0.032
				c-0.347-0.019-0.688-0.062-1.024-0.128V4.402c0.336-0.059,0.683-0.099,1.046-0.12c0.363-0.02,0.673-0.031,0.935-0.031
				c0.555,0,1.052,0.059,1.505,0.177c0.449,0.118,0.833,0.303,1.159,0.557c0.32,0.254,0.565,0.578,0.742,0.972
				C27.794,6.352,27.884,6.826,27.884,7.38z M23.688,9.324c0.069,0.005,0.144,0.011,0.234,0.014c0.091,0.002,0.197,0.002,0.32,0.002
				c0.727,0,1.266-0.171,1.618-0.519c0.347-0.349,0.522-0.829,0.522-1.441c0-0.642-0.165-1.128-0.502-1.458
				c-0.336-0.33-0.864-0.495-1.591-0.495c-0.096,0-0.202,0.001-0.304,0.004c-0.107,0.004-0.208,0.011-0.299,0.023V9.324z"/>
			<path fill="#38883B" d="M30.853,9.394c0.203,0,0.374-0.016,0.507-0.048c0.134-0.032,0.24-0.075,0.32-0.133
				c0.08-0.054,0.134-0.12,0.166-0.198c0.032-0.076,0.048-0.162,0.048-0.256c0-0.2-0.102-0.367-0.299-0.499
				s-0.539-0.275-1.025-0.428c-0.208-0.071-0.422-0.152-0.63-0.243c-0.214-0.091-0.4-0.207-0.565-0.344
				c-0.171-0.139-0.305-0.307-0.411-0.504c-0.107-0.198-0.16-0.438-0.16-0.719c0-0.283,0.059-0.538,0.171-0.765
				c0.111-0.227,0.267-0.42,0.47-0.579c0.208-0.159,0.453-0.282,0.747-0.367c0.288-0.085,0.619-0.128,0.987-0.128
				c0.433,0,0.807,0.044,1.121,0.133c0.32,0.088,0.577,0.186,0.785,0.291l-0.422,1.088c-0.176-0.089-0.379-0.167-0.598-0.235
				c-0.219-0.068-0.486-0.102-0.796-0.102c-0.347,0-0.598,0.045-0.747,0.138c-0.155,0.09-0.229,0.23-0.229,0.419
				c0,0.112,0.026,0.207,0.085,0.283c0.054,0.076,0.134,0.146,0.235,0.208c0.102,0.061,0.219,0.117,0.353,0.167
				c0.133,0.051,0.282,0.103,0.442,0.155c0.337,0.119,0.625,0.235,0.876,0.35c0.245,0.115,0.454,0.248,0.619,0.401
				c0.166,0.154,0.288,0.334,0.368,0.54c0.08,0.207,0.118,0.456,0.118,0.751c0,0.573-0.209,1.016-0.63,1.331
				c-0.422,0.315-1.058,0.472-1.906,0.472c-0.288,0-0.545-0.019-0.774-0.051c-0.229-0.032-0.433-0.069-0.608-0.117
				c-0.176-0.048-0.331-0.096-0.459-0.149c-0.123-0.054-0.229-0.104-0.32-0.149l0.411-1.097c0.192,0.099,0.427,0.189,0.71,0.27
				S30.441,9.394,30.853,9.394z"/>
		</g>
	</g>
</g>
</svg>
