<?xml version="1.0" encoding="utf-8"?>
<!-- Generator: Adobe Illustrator 16.0.0, SVG Export Plug-In . SVG Version: 6.00 Build 0)  -->
<!DOCTYPE svg PUBLIC "-//W3C//DTD SVG 1.1//EN" "http://www.w3.org/Graphics/SVG/1.1/DTD/svg11.dtd">
<svg version="1.1" id="图层_1" xmlns="http://www.w3.org/2000/svg" xmlns:xlink="http://www.w3.org/1999/xlink" x="0px" y="0px"
	 width="48px" height="48px" viewBox="0 0 48 48" enable-background="new 0 0 48 48" xml:space="preserve">
<polygon opacity="0.06" enable-background="new    " points="7.181,48 7.181,2 42.818,2 42.818,35.003 29.82,48 "/>
<polygon opacity="0.1" enable-background="new    " points="8.181,47 8.181,3 41.818,3 41.818,34.589 29.407,47 "/>
<polygon opacity="0.2" enable-background="new    " points="7.181,46 7.181,2 40.818,2 40.818,33.589 28.408,46 "/>
<polygon fill="#0D47A1" points="8.143,45 8.143,3 39.857,3 39.857,33.175 28.004,45 "/>
<g>
	<g>
		<g>
			<g>
				<linearGradient id="SVGID_1_" gradientUnits="userSpaceOnUse" x1="24.0142" y1="44.5" x2="24.0142" y2="3.5005">
					<stop  offset="0" style="stop-color:#3F51B5"/>
					<stop  offset="1" style="stop-color:#64B5F6"/>
				</linearGradient>
				<polygon fill="url(#SVGID_1_)" points="8.654,44.5 8.654,3.5 39.373,3.5 39.373,32.969 27.842,44.5 				"/>
			</g>
			<polygon fill="#2196F3" fill-opacity="0.7" points="39.373,32.969 39.373,32.473 27.209,32.473 27.209,44.5 27.842,44.5 			"/>
			<path opacity="0.39" fill="#FFFFFF" d="M27.825,32.969l11.55,0.016L27.842,44.5L27.825,32.969z"/>
		</g>
		<g opacity="0.8">
			<linearGradient id="SVGID_2_" gradientUnits="userSpaceOnUse" x1="13.208" y1="17.4873" x2="34.8027" y2="17.4873">
				<stop  offset="0" style="stop-color:#F6F5F5"/>
				<stop  offset="0.341" style="stop-color:#F1F2F3"/>
				<stop  offset="0.6434" style="stop-color:#E7EAEB"/>
				<stop  offset="0.9302" style="stop-color:#D5DBDF"/>
				<stop  offset="1" style="stop-color:#CFD7DB"/>
			</linearGradient>
			<rect x="13.208" y="16.953" opacity="0.8" fill="url(#SVGID_2_)" enable-background="new    " width="21.595" height="1.068"/>
			<linearGradient id="SVGID_3_" gradientUnits="userSpaceOnUse" x1="13.208" y1="14.1489" x2="34.8027" y2="14.1489">
				<stop  offset="0" style="stop-color:#F6F5F5"/>
				<stop  offset="0.341" style="stop-color:#F1F2F3"/>
				<stop  offset="0.6434" style="stop-color:#E7EAEB"/>
				<stop  offset="0.9302" style="stop-color:#D5DBDF"/>
				<stop  offset="1" style="stop-color:#CFD7DB"/>
			</linearGradient>
			<rect x="13.208" y="13.614" opacity="0.8" fill="url(#SVGID_3_)" enable-background="new    " width="21.595" height="1.07"/>
			<linearGradient id="SVGID_4_" gradientUnits="userSpaceOnUse" x1="23.5103" y1="25.7285" x2="34.7871" y2="25.7285">
				<stop  offset="0" style="stop-color:#F6F5F5"/>
				<stop  offset="0.341" style="stop-color:#F1F2F3"/>
				<stop  offset="0.6434" style="stop-color:#E7EAEB"/>
				<stop  offset="0.9302" style="stop-color:#D5DBDF"/>
				<stop  offset="1" style="stop-color:#CFD7DB"/>
			</linearGradient>
			<rect x="23.51" y="20.092" opacity="0.8" fill="url(#SVGID_4_)" enable-background="new    " width="11.277" height="11.272"/>
			<g opacity="0.8">
				<linearGradient id="SVGID_5_" gradientUnits="userSpaceOnUse" x1="13.208" y1="20.8223" x2="22.5879" y2="20.8223">
					<stop  offset="0" style="stop-color:#F6F5F5"/>
					<stop  offset="0.341" style="stop-color:#F1F2F3"/>
					<stop  offset="0.6434" style="stop-color:#E7EAEB"/>
					<stop  offset="0.9302" style="stop-color:#D5DBDF"/>
					<stop  offset="1" style="stop-color:#CFD7DB"/>
				</linearGradient>
				<rect x="13.208" y="20.287" fill="url(#SVGID_5_)" width="9.38" height="1.07"/>
				<linearGradient id="SVGID_6_" gradientUnits="userSpaceOnUse" x1="13.208" y1="24.1602" x2="22.5879" y2="24.1602">
					<stop  offset="0" style="stop-color:#F6F5F5"/>
					<stop  offset="0.341" style="stop-color:#F1F2F3"/>
					<stop  offset="0.6434" style="stop-color:#E7EAEB"/>
					<stop  offset="0.9302" style="stop-color:#D5DBDF"/>
					<stop  offset="1" style="stop-color:#CFD7DB"/>
				</linearGradient>
				<rect x="13.208" y="23.626" fill="url(#SVGID_6_)" width="9.38" height="1.068"/>
				<linearGradient id="SVGID_7_" gradientUnits="userSpaceOnUse" x1="13.208" y1="27.5098" x2="22.5879" y2="27.5098">
					<stop  offset="0" style="stop-color:#F6F5F5"/>
					<stop  offset="0.341" style="stop-color:#F1F2F3"/>
					<stop  offset="0.6434" style="stop-color:#E7EAEB"/>
					<stop  offset="0.9302" style="stop-color:#D5DBDF"/>
					<stop  offset="1" style="stop-color:#CFD7DB"/>
				</linearGradient>
				<rect x="13.208" y="26.977" fill="url(#SVGID_7_)" width="9.38" height="1.067"/>
				<linearGradient id="SVGID_8_" gradientUnits="userSpaceOnUse" x1="13.208" y1="30.8467" x2="22.5879" y2="30.8467">
					<stop  offset="0" style="stop-color:#F6F5F5"/>
					<stop  offset="0.341" style="stop-color:#F1F2F3"/>
					<stop  offset="0.6434" style="stop-color:#E7EAEB"/>
					<stop  offset="0.9302" style="stop-color:#D5DBDF"/>
					<stop  offset="1" style="stop-color:#CFD7DB"/>
				</linearGradient>
				<rect x="13.208" y="30.313" fill="url(#SVGID_8_)" width="9.38" height="1.068"/>
			</g>
		</g>
	</g>
	<g>
		<rect x="8.625" y="3.5" opacity="0.8" fill="#FFFFFF" width="30.734" height="7.858"/>
	</g>
	<g>
		<path fill="#1976D2" d="M17.809,4.288c0.968,0,1.708,0.163,2.224,0.491c0.515,0.328,0.772,0.835,0.772,1.524
			c0,0.43-0.104,0.779-0.312,1.046c-0.208,0.27-0.507,0.48-0.897,0.633c0.129,0.152,0.266,0.328,0.408,0.525
			c0.143,0.198,0.285,0.406,0.423,0.62c0.14,0.213,0.275,0.438,0.406,0.672c0.129,0.229,0.251,0.459,0.362,0.684h-1.622
			c-0.119-0.2-0.239-0.403-0.359-0.609c-0.121-0.208-0.247-0.406-0.374-0.603c-0.128-0.192-0.253-0.379-0.379-0.55
			c-0.125-0.176-0.249-0.331-0.373-0.475h-0.717v2.237h-1.451V4.445c0.316-0.059,0.644-0.099,0.981-0.123
			C17.24,4.301,17.543,4.288,17.809,4.288z M17.893,5.464c-0.105,0-0.2,0-0.283,0.008c-0.084,0.005-0.163,0.011-0.238,0.019v1.66
			h0.41c0.545,0,0.936-0.064,1.172-0.195c0.235-0.131,0.354-0.35,0.354-0.665c0-0.299-0.12-0.512-0.359-0.641
			C18.709,5.526,18.358,5.464,17.893,5.464z"/>
		<path fill="#1976D2" d="M26.816,4.359v1.175h-1.947v4.949h-1.451V5.534h-1.944V4.359H26.816z"/>
		<path fill="#1976D2" d="M27.745,10.483V4.359h4.319v1.159h-2.867v1.281h2.547v1.156h-2.547v2.528H27.745z"/>
	</g>
</g>
</svg>
