<?xml version="1.0" encoding="utf-8"?>
<!-- Generator: Adobe Illustrator 17.1.0, SVG Export Plug-In . SVG Version: 6.00 Build 0)  -->
<!DOCTYPE svg PUBLIC "-//W3C//DTD SVG 1.1//EN" "http://www.w3.org/Graphics/SVG/1.1/DTD/svg11.dtd" [
	<!ENTITY ns_extend "http://ns.adobe.com/Extensibility/1.0/">
	<!ENTITY ns_ai "http://ns.adobe.com/AdobeIllustrator/10.0/">
	<!ENTITY ns_graphs "http://ns.adobe.com/Graphs/1.0/">
	<!ENTITY ns_vars "http://ns.adobe.com/Variables/1.0/">
	<!ENTITY ns_imrep "http://ns.adobe.com/ImageReplacement/1.0/">
	<!ENTITY ns_sfw "http://ns.adobe.com/SaveForWeb/1.0/">
	<!ENTITY ns_custom "http://ns.adobe.com/GenericCustomNamespace/1.0/">
	<!ENTITY ns_adobe_xpath "http://ns.adobe.com/XPath/1.0/">
]>
<svg version="1.1"
	 id="svg2" xmlns:x="&ns_extend;" xmlns:i="&ns_ai;" xmlns:graph="&ns_graphs;" inkscape:version="0.48.4 r9939" sodipodi:docname="computer.svg" xmlns:dc="http://purl.org/dc/elements/1.1/" xmlns:sodipodi="http://sodipodi.sourceforge.net/DTD/sodipodi-0.dtd" xmlns:rdf="http://www.w3.org/1999/02/22-rdf-syntax-ns#" xmlns:svg="http://www.w3.org/2000/svg" xmlns:cc="http://creativecommons.org/ns#" xmlns:inkscape="http://www.inkscape.org/namespaces/inkscape"
	 xmlns="http://www.w3.org/2000/svg" xmlns:xlink="http://www.w3.org/1999/xlink" x="0px" y="0px" width="48px" height="48px"
	 viewBox="0 0 48 48" style="enable-background:new 0 0 48 48;" xml:space="preserve">
<metadata  id="metadata26">
	<rdf:RDF>
		<cc:Work  rdf:about="">
			<dc:format>image/svg+xml</dc:format>
			<dc:type  rdf:resource="http://purl.org/dc/dcmitype/StillImage"></dc:type>
		</cc:Work>
	</rdf:RDF>
	<sfw  xmlns="&ns_sfw;">
		<slices></slices>
		<sliceSourceBounds  height="46" width="35.6" x="403.2" y="571.6" bottomLeftOrigin="true"></sliceSourceBounds>
	</sfw>
</metadata>
<polygon style="opacity:6.000000e-002;enable-background:new    ;" points="7.2,48 7.2,2 42.8,2 42.8,35 29.8,48 "/>
<polygon style="opacity:0.1;enable-background:new    ;" points="8.2,47 8.2,3 41.8,3 41.8,34.6 29.4,47 "/>
<polygon style="opacity:0.2;enable-background:new    ;" points="7.2,46 7.2,2 40.8,2 40.8,33.6 28.4,46 "/>
<polygon style="fill:#0D47A1;" points="8.1,45 8.1,3 39.9,3 39.9,33.2 28,45 "/>
<g>
	<g>
		<g>
			<g>
				
					<linearGradient id="SVGID_1_" gradientUnits="userSpaceOnUse" x1="24.05" y1="723.05" x2="24.05" y2="682.05" gradientTransform="matrix(1 0 0 1 0 -678.55)">
					<stop  offset="0" style="stop-color:#3F51B5"/>
					<stop  offset="1" style="stop-color:#64B5F6"/>
				</linearGradient>
				<polygon style="fill:url(#SVGID_1_);" points="8.7,44.5 8.7,3.5 39.4,3.5 39.4,33 27.8,44.5 				"/>
			</g>
			<polygon style="fill:#2196F3;fill-opacity:0.7;" points="39.4,33 39.4,32.5 27.2,32.5 27.2,44.5 27.8,44.5 			"/>
			<path style="opacity:0.39;fill:#FFFFFF;enable-background:new    ;" d="M27.8,33h11.6L27.9,44.5L27.8,33z"/>
		</g>
	</g>
</g>
<path style="opacity:0.8;fill:#FFFFFF;enable-background:new    ;" d="M29.2,13.1c-0.6,0-1.1,0.4-1.3,0.8h-5.3c0,0-1.3-0.1-2.4,0.4
	s-2.3,1.8-2.3,3.8s1.2,3.3,2.3,3.8c0.5,0.3,1.1,0.4,1.5,0.4v0.3l-2.1,2c-0.1,0-0.1,0-0.2,0c-0.4,0-0.8,0.3-0.8,0.7
	c0,0.4,0.3,0.7,0.8,0.7c0.4,0,0.8-0.3,0.8-0.7c0-0.1,0-0.1,0-0.2l2.1-2h2.5v-0.7h0.8c0,0,0.8,0,1.6,0.4c0.8,0.4,1.5,0.9,1.5,2.5
	s-0.7,2.1-1.5,2.5s-1.8,0.4-1.8,0.4h-5.3c-0.3-0.4-0.8-0.8-1.3-0.8c-0.8,0-1.5,0.6-1.5,1.4s0.7,1.4,1.5,1.4c0.6,0,1.1-0.4,1.3-0.8
	h5.3c0,0,1.3,0.1,2.4-0.4s2.3-1.8,2.3-3.8s-1.2-3.3-2.3-3.8c-1.1-0.5-2.2-0.5-2.2-0.5h-0.8v-0.2l2.1-2c0.1,0,0.1,0,0.2,0
	c0.4,0,0.8-0.3,0.8-0.7c0-0.4-0.3-0.7-0.8-0.7s-0.8,0.3-0.8,0.7c0,0.1,0,0.1,0,0.2l-2.1,2h-2.5v0.6c-0.3-0.1-0.5-0.1-0.8-0.3
	c-0.8-0.4-1.5-0.9-1.5-2.5c0-1.5,0.7-2.1,1.5-2.5s1.8-0.4,1.8-0.4H28c0.3,0.4,0.8,0.8,1.3,0.8c0.8,0,1.5-0.6,1.5-1.4
	C30.7,13.7,30.1,13.1,29.2,13.1z"/>
</svg>
