<?xml version="1.0" encoding="utf-8"?>
<!-- Generator: Adobe Illustrator 16.0.0, SVG Export Plug-In . SVG Version: 6.00 Build 0)  -->
<!DOCTYPE svg PUBLIC "-//W3C//DTD SVG 1.1//EN" "http://www.w3.org/Graphics/SVG/1.1/DTD/svg11.dtd">
<svg version="1.1" id="图层_1" xmlns="http://www.w3.org/2000/svg" xmlns:xlink="http://www.w3.org/1999/xlink" x="0px" y="0px"
	 width="48px" height="48px" viewBox="0 0 48 48" enable-background="new 0 0 48 48" xml:space="preserve">
<polygon opacity="0.06" enable-background="new    " points="7.181,48 7.181,2 42.818,2 42.818,35.003 29.82,48 "/>
<polygon opacity="0.1" enable-background="new    " points="8.181,47 8.181,3 41.818,3 41.818,34.589 29.407,47 "/>
<polygon opacity="0.2" enable-background="new    " points="7.181,46 7.181,2 40.818,2 40.818,33.589 28.408,46 "/>
<polygon fill="#3E2723" points="8.143,45 8.143,3 39.857,3 39.857,33.175 28.004,45 "/>
<g>
	<g>
		
			<linearGradient id="SVGID_1_" gradientUnits="userSpaceOnUse" x1="65.5996" y1="-119.4004" x2="65.5996" y2="-160.4009" gradientTransform="matrix(1 0 0 -1 -41.6001 -115.9004)">
			<stop  offset="0" style="stop-color:#785548"/>
			<stop  offset="1" style="stop-color:#9F9E9F"/>
		</linearGradient>
		<polygon fill="url(#SVGID_1_)" points="8.641,44.5 8.641,3.5 39.359,3.5 39.359,32.953 27.941,44.5 		"/>
		<polygon fill="#795548" fill-opacity="0.7" points="39.359,32.969 39.359,32.473 27.199,32.473 27.199,44.5 27.829,44.5 		"/>
		<path opacity="0.39" fill="#FFFFFF" enable-background="new    " d="M27.813,32.969l11.547,0.016L27.829,44.5L27.813,32.969z"/>
	</g>
	<path fill="#FFFFFF" d="M19.617,11.404h-1.039v13.315h-0.787V11.404h-1.033v13.315h-0.785V11.404h-1.036v13.315H14.15V11.404
		h-1.034v13.315h-0.271v5.64h7.127v-5.64h-0.355V11.404z M18.934,28.719h-5.056v-3.27h5.056V28.719z"/>
	<g>
		<rect x="8.634" y="3.5" opacity="0.8" fill="#FFFFFF" enable-background="new    " width="30.731" height="7.858"/>
		<g enable-background="new    ">
			<path fill="#5D4037" d="M20.721,4.381v1.174h-1.944v4.949h-1.451V5.555h-1.945V4.381H20.721z"/>
			<path fill="#5D4037" d="M24.583,5.44c-0.678,0-1.164,0.179-1.468,0.534c-0.299,0.357-0.449,0.846-0.449,1.462
				c0,0.302,0.038,0.574,0.112,0.82c0.075,0.243,0.187,0.454,0.331,0.63c0.149,0.179,0.336,0.315,0.561,0.411
				c0.224,0.099,0.486,0.146,0.779,0.146c0.166,0,0.298-0.002,0.417-0.008c0.112-0.008,0.214-0.019,0.304-0.038v-2.13h1.447v3.032
				c-0.171,0.064-0.448,0.133-0.833,0.208c-0.39,0.072-0.859,0.11-1.425,0.11c-0.486,0-0.923-0.07-1.318-0.211
				c-0.39-0.142-0.726-0.347-1.009-0.62c-0.277-0.27-0.491-0.603-0.646-0.998c-0.149-0.395-0.229-0.846-0.229-1.354
				c0-0.512,0.085-0.966,0.256-1.358c0.166-0.395,0.395-0.731,0.684-1.004c0.293-0.275,0.635-0.483,1.03-0.625
				s0.812-0.211,1.26-0.211c0.304,0,0.577,0.019,0.822,0.056c0.245,0.04,0.459,0.083,0.636,0.133
				c0.176,0.051,0.32,0.102,0.438,0.155c0.111,0.054,0.197,0.094,0.245,0.123l-0.422,1.105c-0.197-0.099-0.421-0.187-0.683-0.259
				C25.165,5.478,24.888,5.44,24.583,5.44z"/>
			<path fill="#5D4037" d="M32.516,5.334c-0.197,0.195-0.432,0.448-0.704,0.758c-0.277,0.307-0.556,0.646-0.849,1.012
				c-0.294,0.363-0.582,0.742-0.865,1.129c-0.288,0.39-0.539,0.761-0.764,1.116h3.283v1.156h-5.066V9.682
				c0.172-0.299,0.385-0.633,0.636-1.001c0.251-0.369,0.513-0.739,0.785-1.116c0.272-0.374,0.55-0.734,0.833-1.086
				c0.283-0.35,0.544-0.665,0.784-0.939h-2.894V4.381h4.82V5.334z"/>
		</g>
	</g>
</g>
</svg>
