<?xml version="1.0" encoding="utf-8"?>
<!-- Generator: Adobe Illustrator 16.0.0, SVG Export Plug-In . SVG Version: 6.00 Build 0)  -->
<!DOCTYPE svg PUBLIC "-//W3C//DTD SVG 1.1//EN" "http://www.w3.org/Graphics/SVG/1.1/DTD/svg11.dtd">
<svg version="1.1" id="图层_1" xmlns="http://www.w3.org/2000/svg" xmlns:xlink="http://www.w3.org/1999/xlink" x="0px" y="0px"
	 width="48px" height="48px" viewBox="0 0 48 48" enable-background="new 0 0 48 48" xml:space="preserve">
<polygon opacity="0.06" enable-background="new    " points="7.181,48 7.181,2 42.818,2 42.818,35.003 29.82,48 "/>
<polygon opacity="0.1" enable-background="new    " points="8.181,47 8.181,3 41.818,3 41.818,34.589 29.407,47 "/>
<polygon opacity="0.2" enable-background="new    " points="7.181,46 7.181,2 40.818,2 40.818,33.589 28.408,46 "/>
<polygon fill="#3E2723" points="8.143,45 8.143,3 39.857,3 39.857,33.175 28.004,45 "/>
<g>
	<g>
		
			<linearGradient id="SVGID_1_" gradientUnits="userSpaceOnUse" x1="65.5996" y1="-119.4004" x2="65.5996" y2="-160.4009" gradientTransform="matrix(1 0 0 -1 -41.6001 -115.9004)">
			<stop  offset="0" style="stop-color:#785548"/>
			<stop  offset="1" style="stop-color:#9F9E9F"/>
		</linearGradient>
		<polygon fill="url(#SVGID_1_)" points="8.641,44.5 8.641,3.5 39.359,3.5 39.359,32.953 27.941,44.5 		"/>
		<polygon fill="#795548" fill-opacity="0.7" points="39.359,32.969 39.359,32.473 27.199,32.473 27.199,44.5 27.829,44.5 		"/>
		<path opacity="0.39" fill="#FFFFFF" enable-background="new    " d="M27.813,32.969l11.547,0.016L27.829,44.5L27.813,32.969z"/>
	</g>
	<path fill="#FFFFFF" d="M19.617,11.404h-1.039v13.315h-0.787V11.404h-1.033v13.315h-0.785V11.404h-1.036v13.315H14.15V11.404
		h-1.034v13.315h-0.271v5.64h7.127v-5.64h-0.355V11.404z M18.934,28.719h-5.056v-3.27h5.056V28.719z"/>
	<g>
		<rect x="8.634" y="3.5" opacity="0.8" fill="#FFFFFF" enable-background="new    " width="30.731" height="7.858"/>
		<g enable-background="new    ">
			<path fill="#5D4037" d="M17.251,5.429c-0.676,0-1.164,0.177-1.466,0.534c-0.301,0.358-0.451,0.845-0.451,1.463
				c0,0.3,0.038,0.574,0.112,0.818s0.187,0.455,0.333,0.631c0.15,0.178,0.336,0.313,0.558,0.411
				c0.224,0.098,0.486,0.146,0.782,0.146c0.163,0,0.299-0.003,0.414-0.008c0.115-0.007,0.216-0.018,0.304-0.036v-2.13h1.45v3.032
				c-0.174,0.064-0.451,0.134-0.835,0.207c-0.387,0.073-0.86,0.111-1.426,0.111c-0.483,0-0.921-0.071-1.316-0.212
				c-0.392-0.141-0.729-0.347-1.009-0.618c-0.278-0.271-0.494-0.604-0.646-1c-0.152-0.394-0.229-0.845-0.229-1.352
				c0-0.513,0.085-0.966,0.253-1.36c0.166-0.395,0.395-0.73,0.686-1.003c0.293-0.273,0.635-0.482,1.03-0.623
				c0.393-0.142,0.812-0.212,1.26-0.212c0.305,0,0.577,0.02,0.822,0.057c0.246,0.039,0.457,0.083,0.633,0.134
				c0.176,0.049,0.323,0.102,0.438,0.155c0.115,0.052,0.198,0.093,0.246,0.123L18.775,5.8c-0.198-0.1-0.424-0.187-0.683-0.26
				C17.835,5.464,17.555,5.429,17.251,5.429z"/>
			<path fill="#5D4037" d="M25.187,5.322c-0.2,0.195-0.435,0.447-0.708,0.757c-0.272,0.308-0.555,0.646-0.849,1.012
				c-0.289,0.364-0.577,0.742-0.865,1.13c-0.283,0.39-0.54,0.761-0.764,1.114h3.289v1.157h-5.072V9.67
				c0.174-0.3,0.385-0.634,0.636-1.002c0.253-0.368,0.515-0.739,0.787-1.114c0.275-0.374,0.553-0.735,0.833-1.086
				c0.283-0.351,0.544-0.665,0.787-0.941h-2.893V4.368h4.818V5.322z"/>
			<path fill="#5D4037" d="M26.311,4.368h1.451v6.125h-1.451V4.368z"/>
			<path fill="#5D4037" d="M31.185,4.297c0.964,0,1.7,0.162,2.216,0.482c0.515,0.321,0.773,0.847,0.773,1.577
				c0,0.737-0.262,1.268-0.785,1.595c-0.518,0.327-1.265,0.491-2.23,0.491h-0.454v2.05h-1.452V4.456
				c0.314-0.059,0.651-0.1,1.004-0.123C30.607,4.309,30.918,4.297,31.185,4.297z M31.28,5.473c-0.106,0-0.211,0.002-0.312,0.009
				c-0.104,0.005-0.189,0.011-0.265,0.018v1.767h0.454c0.502,0,0.881-0.064,1.137-0.195c0.251-0.129,0.379-0.371,0.379-0.725
				c0-0.171-0.032-0.311-0.096-0.423c-0.064-0.112-0.16-0.203-0.281-0.27c-0.119-0.068-0.27-0.115-0.439-0.142
				C31.681,5.486,31.488,5.473,31.28,5.473z"/>
		</g>
	</g>
</g>
</svg>
