<?xml version="1.0" encoding="utf-8"?>
<!-- Generator: Adobe Illustrator 21.0.0, SVG Export Plug-In . SVG Version: 6.00 Build 0)  -->
<svg version="1.1" id="图层_1" xmlns="http://www.w3.org/2000/svg" xmlns:xlink="http://www.w3.org/1999/xlink" x="0px" y="0px"
	 viewBox="0 0 48 48" style="enable-background:new 0 0 48 48;" xml:space="preserve">
<style type="text/css">
	.st0{opacity:0.06;enable-background:new    ;}
	.st1{opacity:0.1;enable-background:new    ;}
	.st2{opacity:0.2;enable-background:new    ;}
	.st3{fill:#455A64;}
	.st4{fill:url(#SVGID_1_);}
	.st5{fill:#455A64;fill-opacity:0.39;}
	.st6{fill:#FFFFFF;fill-opacity:0.39;}
	.st7{opacity:0.8;fill:#FFFFFF;enable-background:new    ;}
</style>
<polygon class="st0" points="7.2,48 7.2,2 42.8,2 42.8,35 29.8,48 "/>
<polygon class="st1" points="8.2,47 8.2,3 41.8,3 41.8,34.6 29.4,47 "/>
<polygon class="st2" points="7.2,46 7.2,2 40.8,2 40.8,33.6 28.4,46 "/>
<polygon class="st3" points="8.1,45 8.1,3 39.9,3 39.9,33.2 28,45 "/>
<g>
	<g>
		<g>
			
				<linearGradient id="SVGID_1_" gradientUnits="userSpaceOnUse" x1="65.6001" y1="-837.4004" x2="65.6001" y2="-878.4004" gradientTransform="matrix(1 0 0 -1 -41.6001 -833.9004)">
				<stop  offset="0" style="stop-color:#90A4AE"/>
				<stop  offset="0.1378" style="stop-color:#849AA5"/>
				<stop  offset="0.4226" style="stop-color:#708A97"/>
				<stop  offset="0.7096" style="stop-color:#64808E"/>
				<stop  offset="1" style="stop-color:#607D8B"/>
			</linearGradient>
			<polygon class="st4" points="8.6,44.5 8.6,3.5 39.4,3.5 39.4,33 27.8,44.5 			"/>
		</g>
		<polygon class="st5" points="39.4,33 39.4,32.5 27.2,32.5 27.2,44.5 27.8,44.5 		"/>
		<path class="st6" d="M27.8,33h11.6L27.8,44.5V33z"/>
	</g>
	<path class="st7" d="M31.2,24.7c0-0.1,0.1-0.1,0.1-0.1c0-0.1,0.1-0.2,0.1-0.3l0,0c0.2-0.5,0.4-1,0.5-1.5h1.9V19h-1.9
		c-0.2-0.8-0.5-1.6-0.9-2.3l1.4-1.4l-2.7-2.8L28.2,14c-0.7-0.4-1.5-0.8-2.3-1l0,0v-1.9H22V13l0,0c-0.8,0.2-1.6,0.5-2.3,1l-1.4-1.4
		l-2.7,2.8l1.4,1.4c-0.4,0.7-0.7,1.5-0.9,2.3h-1.9V23h1.9c0.2,0.8,0.5,1.6,0.9,2.3l0,0l-1.4,1.4l2.8,2.7l1.4-1.4
		c0.7,0.4,1.5,0.8,2.3,0.9v1.9H26v-1.9l0,0l0,0c0.8-0.2,1.6-0.5,2.3-0.9l1.4,1.4l2.8-2.7L31,25.1l0,0c0.1-0.1,0.1-0.2,0.1-0.2
		S31.2,24.8,31.2,24.7z M24,27.1c-3.4,0-6.2-2.8-6.2-6.2s2.8-6.2,6.2-6.2c0.7,0,1.3,0.1,1.9,0.3l0,0c2.5,0.8,4.3,3.1,4.3,5.9
		c0,0.2,0,0.3,0,0.5l0,0c0,0.5-0.1,1-0.3,1.4l0,0c-0.1,0.3-0.2,0.6-0.4,0.8l0,0c-0.1,0.1-0.1,0.3-0.2,0.4l0,0
		c-0.1,0.1-0.1,0.2-0.2,0.4l0,0c-0.1,0.1-0.2,0.2-0.3,0.3c0,0,0,0,0,0.1c-0.2,0.2-0.4,0.4-0.6,0.6c0,0,0,0,0,0.1
		c-0.1,0.1-0.2,0.2-0.3,0.3l0,0c-0.1,0.1-0.2,0.2-0.3,0.2l0,0c-0.1,0.1-0.2,0.1-0.4,0.2c0,0,0,0-0.1,0.1s-0.3,0.1-0.4,0.2l0,0
		c-0.1,0.1-0.2,0.1-0.4,0.1C25.4,27,24.7,27.1,24,27.1z"/>
</g>
</svg>
