<?xml version="1.0" encoding="utf-8"?>
<!-- Generator: Adobe Illustrator 16.0.0, SVG Export Plug-In . SVG Version: 6.00 Build 0)  -->
<!DOCTYPE svg PUBLIC "-//W3C//DTD SVG 1.1//EN" "http://www.w3.org/Graphics/SVG/1.1/DTD/svg11.dtd">
<svg version="1.1" id="图层_1" xmlns="http://www.w3.org/2000/svg" xmlns:xlink="http://www.w3.org/1999/xlink" x="0px" y="0px"
	 width="48px" height="48px" viewBox="0 0 48 48" enable-background="new 0 0 48 48" xml:space="preserve">
<polygon opacity="0.06" enable-background="new    " points="7.181,48 7.181,2 42.818,2 42.818,35.003 29.82,48 "/>
<polygon opacity="0.1" enable-background="new    " points="8.181,47 8.181,3 41.818,3 41.818,34.589 29.407,47 "/>
<polygon opacity="0.2" enable-background="new    " points="7.181,46 7.181,2 40.818,2 40.818,33.589 28.408,46 "/>
<polygon fill="#3E2723" points="8.143,45 8.143,3 39.857,3 39.857,33.175 28.004,45 "/>
<g>
	<g>
		
			<linearGradient id="SVGID_1_" gradientUnits="userSpaceOnUse" x1="65.5996" y1="-119.4004" x2="65.5996" y2="-160.4009" gradientTransform="matrix(1 0 0 -1 -41.6001 -115.9004)">
			<stop  offset="0" style="stop-color:#785548"/>
			<stop  offset="1" style="stop-color:#9F9E9F"/>
		</linearGradient>
		<polygon fill="url(#SVGID_1_)" points="8.641,44.5 8.641,3.5 39.359,3.5 39.359,32.953 27.941,44.5 		"/>
		<polygon fill="#795548" fill-opacity="0.7" points="39.359,32.969 39.359,32.473 27.199,32.473 27.199,44.5 27.829,44.5 		"/>
		<path opacity="0.39" fill="#FFFFFF" enable-background="new    " d="M27.813,32.969l11.547,0.016L27.829,44.5L27.813,32.969z"/>
	</g>
	<path fill="#FFFFFF" d="M19.617,11.404h-1.039v13.315h-0.787V11.404h-1.033v13.315h-0.785V11.404h-1.036v13.315H14.15V11.404
		h-1.034v13.315h-0.271v5.64h7.127v-5.64h-0.355V11.404z M18.934,28.719h-5.056v-3.27h5.056V28.719z"/>
	<g>
		<rect x="8.634" y="3.5" opacity="0.8" fill="#FFFFFF" enable-background="new    " width="30.731" height="7.858"/>
		<g enable-background="new    ">
			<path fill="#5D4037" d="M16.65,4.297c0.966,0,1.708,0.164,2.223,0.491c0.515,0.327,0.771,0.835,0.771,1.524
				c0,0.43-0.104,0.779-0.312,1.048c-0.206,0.268-0.507,0.478-0.897,0.631c0.131,0.153,0.267,0.328,0.408,0.526
				c0.144,0.197,0.286,0.401,0.424,0.621c0.139,0.213,0.275,0.438,0.406,0.67c0.128,0.232,0.251,0.461,0.363,0.686h-1.623
				c-0.12-0.203-0.238-0.406-0.36-0.611c-0.12-0.206-0.246-0.406-0.374-0.601c-0.128-0.195-0.254-0.379-0.379-0.553
				c-0.123-0.173-0.248-0.331-0.371-0.472h-0.718v2.237h-1.449V4.456c0.315-0.059,0.643-0.1,0.979-0.123
				C16.082,4.309,16.383,4.297,16.65,4.297z M16.733,5.473c-0.104,0-0.2,0.002-0.283,0.009c-0.083,0.005-0.163,0.011-0.238,0.018
				v1.662h0.411c0.544,0,0.934-0.065,1.172-0.195c0.235-0.129,0.352-0.351,0.352-0.663c0-0.3-0.12-0.514-0.357-0.641
				C17.55,5.535,17.2,5.473,16.733,5.473z"/>
			<path fill="#5D4037" d="M25.579,10.494c-0.072-0.214-0.147-0.433-0.232-0.657c-0.08-0.224-0.165-0.449-0.245-0.67h-2.521
				c-0.08,0.221-0.16,0.446-0.243,0.67s-0.158,0.443-0.227,0.657h-1.508c0.243-0.662,0.472-1.271,0.691-1.831
				c0.216-0.56,0.43-1.086,0.638-1.582c0.208-0.496,0.414-0.965,0.617-1.41c0.203-0.444,0.411-0.879,0.63-1.304h1.375
				c0.211,0.424,0.419,0.859,0.628,1.304c0.202,0.444,0.41,0.914,0.619,1.41c0.208,0.495,0.422,1.022,0.641,1.582
				c0.219,0.561,0.448,1.169,0.693,1.831H25.579z M23.836,5.755c-0.032,0.088-0.08,0.209-0.144,0.363
				c-0.059,0.153-0.134,0.33-0.211,0.53c-0.08,0.202-0.168,0.422-0.267,0.663c-0.099,0.242-0.2,0.494-0.302,0.76h1.845
				c-0.099-0.266-0.194-0.52-0.286-0.762c-0.093-0.242-0.182-0.463-0.264-0.664c-0.083-0.201-0.158-0.377-0.219-0.531
				C23.927,5.962,23.873,5.842,23.836,5.755z"/>
			<path fill="#5D4037" d="M29.848,4.297c0.969,0,1.711,0.164,2.226,0.491c0.513,0.327,0.771,0.835,0.771,1.524
				c0,0.43-0.104,0.779-0.313,1.048c-0.208,0.268-0.507,0.478-0.897,0.631c0.129,0.153,0.268,0.328,0.409,0.526
				c0.142,0.197,0.286,0.401,0.425,0.621c0.139,0.213,0.271,0.438,0.405,0.67c0.128,0.232,0.251,0.461,0.362,0.686h-1.622
				c-0.12-0.203-0.24-0.406-0.36-0.611s-0.248-0.406-0.374-0.601c-0.128-0.195-0.253-0.379-0.379-0.553
				c-0.126-0.173-0.248-0.331-0.371-0.472h-0.718v2.237h-1.449V4.456c0.314-0.059,0.641-0.1,0.979-0.123
				C29.281,4.309,29.583,4.297,29.848,4.297z M29.933,5.473c-0.106,0-0.2,0.002-0.283,0.009c-0.085,0.005-0.163,0.011-0.237,0.018
				v1.662h0.408c0.545,0,0.938-0.065,1.174-0.195c0.235-0.129,0.354-0.351,0.354-0.663c0-0.3-0.121-0.514-0.358-0.641
				C30.749,5.535,30.396,5.473,29.933,5.473z"/>
		</g>
	</g>
</g>
</svg>
