<?xml version="1.0" encoding="utf-8"?>
<!-- Generator: Adobe Illustrator 21.0.0, SVG Export Plug-In . SVG Version: 6.00 Build 0)  -->
<svg version="1.1" id="图层_1" xmlns="http://www.w3.org/2000/svg" xmlns:xlink="http://www.w3.org/1999/xlink" x="0px" y="0px"
	 viewBox="0 0 48 48" style="enable-background:new 0 0 48 48;" xml:space="preserve">
<style type="text/css">
	.st0{opacity:0.08;enable-background:new    ;}
	.st1{opacity:0.1;enable-background:new    ;}
	.st2{opacity:0.2;enable-background:new    ;}
	.st3{fill:#292676;}
	.st4{fill:url(#SVGID_1_);}
	.st5{fill:#563E8D;fill-opacity:0.3922;}
	.st6{fill:#FFFFFF;fill-opacity:0.3922;}
	.st7{opacity:0.8;fill:#FFFFFF;enable-background:new    ;}
</style>
<polygon class="st0" points="7.2,48 7.2,2 42.8,2 42.8,35 29.8,48 "/>
<polygon class="st1" points="8.2,47 8.2,3 41.8,3 41.8,34.6 29.4,47 "/>
<polygon class="st1" points="8.2,47 8.2,3 41.8,3 41.8,34.6 29.4,47 "/>
<polygon class="st2" points="7.2,46 7.2,2 40.8,2 40.8,33.6 28.4,46 "/>
<polygon class="st3" points="8.2,45 8.2,3 39.8,3 39.8,33.2 28,45 "/>
<g>
	<g>
		
			<linearGradient id="SVGID_1_" gradientUnits="userSpaceOnUse" x1="413.4697" y1="1576.0303" x2="413.4697" y2="1535.0303" gradientTransform="matrix(1 0 0 1 -389.4697 -1531.5303)">
			<stop  offset="0" style="stop-color:#463488"/>
			<stop  offset="8.000000e-03" style="stop-color:#483489"/>
			<stop  offset="0.1976" style="stop-color:#654290"/>
			<stop  offset="0.4086" style="stop-color:#7C4F95"/>
			<stop  offset="0.6159" style="stop-color:#8F5B9B"/>
			<stop  offset="0.8158" style="stop-color:#99619E"/>
			<stop  offset="1" style="stop-color:#9D639F"/>
		</linearGradient>
		<polygon class="st4" points="8.6,44.5 8.6,3.5 39.4,3.5 39.4,33 27.8,44.5 		"/>
	</g>
	<polygon class="st5" points="39.4,33 39.4,32.5 27.2,32.5 27.2,44.5 27.8,44.5 	"/>
	<path class="st6" d="M27.8,33h11.5L27.8,44.5V33z"/>
</g>
<path class="st7" d="M17.9,13.3L17.9,13.3v5.2l0,0v1.6l0,0v7.5c-0.3-0.1-0.5-0.1-0.9-0.1c-1.4,0-2.5,0.8-2.5,1.8s1.1,1.8,2.5,1.8
	s2.5-0.8,2.5-1.8l0,0v-9.6l9.5-1.9V25c-0.3-0.1-0.5-0.1-0.9-0.1c-1.4,0-2.5,0.8-2.5,1.8s1.1,1.8,2.5,1.8s2.5-0.8,2.5-1.8l0,0V12.9
	v-2.2L17.9,13.3z M29,16.2l-9.5,1.9v-2.9l9.5-1.9C29,13.3,29,16.2,29,16.2z"/>
</svg>
