<?xml version="1.0" encoding="utf-8"?>
<!-- Generator: Adobe Illustrator 16.0.0, SVG Export Plug-In . SVG Version: 6.00 Build 0)  -->
<!DOCTYPE svg PUBLIC "-//W3C//DTD SVG 1.1//EN" "http://www.w3.org/Graphics/SVG/1.1/DTD/svg11.dtd">
<svg version="1.1" id="图层_1" xmlns="http://www.w3.org/2000/svg" xmlns:xlink="http://www.w3.org/1999/xlink" x="0px" y="0px"
	 width="48px" height="48px" viewBox="0 0 48 48" enable-background="new 0 0 48 48" xml:space="preserve">
<rect x="7.143" y="2" opacity="0.2" width="33.715" height="44"/>
<rect x="7.143" y="2" opacity="0.08" width="35.715" height="46"/>
<rect x="8.143" y="3" opacity="0.1" width="33.715" height="44"/>
<rect x="8.143" y="3" fill="#0D47A1" width="31.715" height="42"/>
<g>
	
		<linearGradient id="SVGID_1_" gradientUnits="userSpaceOnUse" x1="65.6006" y1="-160.3999" x2="65.6006" y2="-119.4004" gradientTransform="matrix(1 0 0 -1 -41.6001 -115.9004)">
		<stop  offset="0" style="stop-color:#1976D2"/>
		<stop  offset="0.0226" style="stop-color:#1C79D3"/>
		<stop  offset="0.2859" style="stop-color:#3B93E2"/>
		<stop  offset="0.5416" style="stop-color:#52A6ED"/>
		<stop  offset="0.7843" style="stop-color:#5FB1F4"/>
		<stop  offset="1" style="stop-color:#64B5F6"/>
	</linearGradient>
	<rect x="8.641" y="3.5" fill="url(#SVGID_1_)" width="30.719" height="41"/>
	<path fill="#64B5F6" d="M34.677,20.925c0,5.894-4.783,10.677-10.677,10.677s-10.677-4.783-10.677-10.677S18.106,10.248,24,10.248
		S34.677,15.031,34.677,20.925z"/>
	<path fill="#FFFFFF" fill-opacity="0.8" d="M16.995,12.879c0,0,0.222,0.118,0.308,0.307c0.07,0.187,0.307,0.187,0.307,0.187h0.341
		l0.498-0.152l-0.12,0.272c0,0-2.614,1.211-2.086,1.93c0.532,0.718,0.343,0.905,0.343,1.129c0,0.221,0.155,0.032,0.155,0.032
		l0.154-0.409l0.221-0.307l0.222-0.341l0.07-0.189l0.307-0.528l0.376-0.222l0.341,0.222c0,0,0.153,0.067,0.118,0.187
		c-0.032,0.12-0.066,0.341-0.066,0.341s0.066,0.154,0.187,0.154s0.308-0.12,0.308-0.12l0.154,0.272l0.12,0.497l0.307,0.307
		l0.154,0.341l-0.154,0.307l0.154,0.12l0.344,0.376l0.066,0.187l-0.564-0.033c0,0-0.068-0.154-0.187-0.154
		c-0.12,0-0.597-0.034-0.597-0.034l-0.276,0.068l-0.151,0.187c0,0-0.19,0.307-0.311,0.307c-0.116,0-0.408-0.067-0.408-0.067
		s-0.221-0.069-0.341,0.152c-0.12,0.224,0.187,0.341,0.187,0.341l-0.528,0.156l-0.156,0.069c0,0-0.375,0.151-0.375,0.271
		s0,0.12,0,0.12l-0.118,0.307v0.187l-0.274,0.224l-0.273,0.187l-0.12,0.222v0.376c0,0-0.034,0.187-0.034,0.307s0,0.411,0,0.411
		s-0.12,0.12-0.187-0.12c-0.068-0.222-0.068-0.222-0.068-0.222l-0.12-0.275c0,0,0.12-0.032-0.033-0.152
		c-0.154-0.12-0.309-0.154-0.309-0.154s-0.066-0.067-0.223-0.067c-0.151,0,0.19,0.032-0.151,0c-0.343-0.034-0.343-0.034-0.343-0.034
		l-0.274,0.221v0.187c0,0-0.066,1.335,0.307,1.521h0.154l0.224-0.341l0.188,0.069v0.152l-0.034,0.275v0.152l0.187,0.19l0.12,0.341
		c0.154,0.273,0.069,0.342,0.188,0.409c0.12,0.069,0.223,0.274,0.223,0.274l0.152,0.067c0,0,0.12,0.034,0.222,0.07
		c0.12,0.034,0.12,0.034,0.12,0.034l0.036,0.17l0.034,0.136l0.152,0.187c0,0-0.118,0,0.154,0s0.272,0,0.272,0s0,0.069,0.189,0.155
		c0.187,0.066,0.034,0.035,0.187,0.066c0.154,0.035,0.412,0.069,0.412,0.069c0.271-0.034,0.271-0.034,0.271-0.034l0.19,0.274
		c0,0,0.116,0,0.152,0.118c0.035,0.12-0.187,0,0.035,0.12c0.221,0.12,0,0.034,0.221,0.12c0.222,0.086-0.066,0.068,0.222,0.068
		c0.291,0,0.341,0,0.461,0.033s0.19,0.309,0.19,0.309c0.222,0.272,0.222,0.272,0.222,0.272l0.034,0.341c0,0-0.12,0.07,0.152,0.07
		c0.274,0,0.068,0,0.274,0c0.204,0-0.034-0.07,0.188,0c0.221,0.067,0.221,0.067,0.221,0.067s0.343,0.274,0.463,0.274
		s0.342-0.034,0.462,0c0.12,0.032,0.187,0.221,0.408,0.272c0.225,0.034,0.309,0,0.461,0.12c0.154,0.12,0.154,0.12,0.154,0.12
		l0.036,0.408l-0.12,0.222l-0.307,0.119l-0.036,0.378l-0.154,0.376v0.187c0,0,0.19,0.154-0.152,0.188
		c-0.342,0.033-0.342,0.033-0.342,0.033l-0.154,0.154c0,0,0,0.034-0.068,0.156c-0.067,0.116-0.152,0.305-0.152,0.305l0.034,0.344
		v0.221l-0.12,0.188c0,0-0.105,0.053,0.187,0.24c0.307,0.186,0.547,0.186,0.616,0.307c0.066,0.119,0.257,0.221,0.257,0.221
		l-0.411-0.086l-0.256-0.084l-0.427-0.117l-0.82-0.428c0,0-1.229-1.009-1.607-1.828c0,0-0.322-0.479-0.869-0.685
		c0,0-1.352-1.229-1.472-1.537l-0.05-0.206V26.29l-0.052-0.054V26.12l-0.034-0.086l0.02-0.376l0.015-0.257l0.018-0.136l-0.018-0.104
		c0,0-0.068-0.067-0.068-0.086c0-0.015-0.052-0.171-0.052-0.171l-0.015-0.051l0.205-0.17l-0.053-0.155l0.034-0.085l0.12-0.086
		c0,0,0.068-0.101,0.068-0.117c0-0.034-0.12-0.12-0.12-0.12l-0.05,0.016l-0.053,0.154h-0.067c0,0-0.07-0.034-0.07-0.05
		c0-0.019-0.066-0.086-0.066-0.086l-0.086-0.034c0,0-0.068-0.019-0.084-0.05c-0.019-0.036-0.104-0.086-0.104-0.104
		c0-0.016-0.067-0.12-0.067-0.12l-0.085-0.033c0,0-0.104-0.154-0.104-0.189c0-0.016-0.052-0.101-0.052-0.101s-0.12-0.136-0.12-0.155
		c0-0.016-0.051-0.136-0.051-0.136H14.69l-0.188-0.069l-0.12-0.153l-0.137-0.154c0,0-0.068-0.12-0.068-0.152
		c0-0.034-0.052-0.07-0.052-0.07H14.04h-0.05l-0.12-0.101l-0.307-0.427l-0.054-0.19l-0.051-0.205l-0.035-0.342v-0.221l-0.135-1.588
		C13.339,19.575,13.8,15.645,16.995,12.879z"/>
	<path fill="#FFFFFF" fill-opacity="0.8" d="M29.055,11.545l0.343,0.275l0.17,0.085l0.12,0.136l0.019,0.137
		c0,0,0.033,0.136,0.016,0.17c-0.016,0.034-0.034,0.221-0.034,0.221s0.154,0.275,0.154,0.31c0,0.033,0.018,0.187-0.017,0.222
		c-0.033,0.016-0.224,0.136-0.239,0.085c-0.019-0.05-0.135-0.17-0.171-0.17c-0.034-0.019-0.136-0.12-0.136-0.12l0.272-0.035
		l-0.034-0.171c0,0-0.187-0.067-0.238-0.067c-0.054-0.018-0.24-0.12-0.24-0.12l-0.206-0.05c0,0-0.341-0.085-0.375-0.104
		c-0.033-0.016-0.172-0.067-0.172-0.067h-0.288c0,0-0.139,0.067-0.172,0.101c-0.017,0.036-0.188,0.222-0.188,0.222
		s-0.015,0.221-0.015,0.256c0,0.035-0.052,0.12-0.052,0.221c0,0.104-0.02,0.24-0.02,0.275c0,0.035,0,0.085,0,0.085l-0.034,0.153
		l-0.118,0.068l-0.154,0.12c0,0-0.136,0.102-0.136,0.136c0,0.036,0,0.171,0.05,0.273c0.052,0.104,0.036,0.205,0.104,0.256
		c0.068,0.053,0.103,0.12,0.154,0.138c0.049,0.016,0.015,0.033,0.101,0.033c0.068,0,0.14,0.018,0.172-0.017
		c0.034-0.016,0.12-0.016,0.154-0.069c0.034-0.051-0.034-0.016,0.034-0.051c0.066-0.016,0.066-0.066,0.12-0.016
		c0.066,0.051,0.118,0.12,0.136,0.153c0.017,0.034,0.066,0.12,0.12,0.17c0.066,0.034,0.118,0.17,0.118,0.17l0.104,0.104
		c0,0,0.016,0.016,0.084,0.016c0.066,0,0.172-0.016,0.172-0.016l0.034-0.068c0,0,0.066,0.018,0.086-0.016
		c0.015-0.036,0.015-0.086,0.015-0.086s-0.034-0.104-0.068-0.136c-0.015-0.035-0.052-0.12-0.052-0.12l0.02-0.12l0.066-0.069
		l0.02-0.086v-0.101l-0.068-0.035l-0.12-0.067c0,0-0.067,0.017-0.067-0.069c-0.019-0.069-0.019-0.069-0.019-0.069l-0.153-0.032
		l-0.104-0.053l0.12-0.086c0.07-0.117,0.086-0.151,0.086-0.187c0-0.034-0.016-0.135-0.016-0.135s-0.07-0.019-0.07-0.105
		c-0.016-0.084-0.016-0.135-0.016-0.135l0.016-0.067c0,0,0.018-0.053,0.07-0.053c0.033,0,0.102,0.053,0.136,0.053
		s0.101,0.016,0.101,0.016s0.037,0.016,0.037,0.069c0,0.033-0.018,0.117-0.018,0.117l0.066-0.101v0.12l-0.015,0.137v0.136
		l0.066,0.135l0.068,0.105c0,0,0.086,0.084,0.12,0.12c0.034,0.015,0.12,0.084,0.12,0.084l0.102,0.051l0.07,0.016l0.066-0.067
		c0,0,0.12,0.017,0.12-0.018c0.016-0.035,0.016-0.035,0.016-0.035s0.139-0.016,0.172-0.016c0.034,0,0.103,0,0.103,0
		s0.052,0.102,0.018,0.102s-0.052,0.034-0.138,0.069c-0.084,0.016-0.12,0-0.136,0.035c-0.019,0.034-0.068,0.12-0.068,0.12
		l0.068,0.016h0.052l0.068,0.069c0,0,0.016,0.016,0,0.067c-0.019,0.051,0.067,0.034-0.019,0.051
		c-0.102,0.018-0.152-0.017-0.152-0.017s-0.018-0.085-0.069-0.05c-0.034,0.034-0.051,0.12-0.051,0.12v0.117l0.066,0.17
		c0,0,0.036,0.036,0,0.054c-0.03,0.016-0.15,0.152-0.15,0.152s-0.02,0.051-0.07,0.051c-0.035,0-0.086,0-0.17,0.019
		c-0.066,0.015-0.066,0.015-0.138,0.034c-0.068,0.016-0.12,0.032-0.221,0.05c-0.105,0.017-0.292,0.017-0.36,0.017
		c-0.067,0-0.086,0-0.118-0.017c-0.034-0.018-0.018,0-0.069-0.069c-0.051-0.067-0.101-0.12-0.101-0.171c0-0.034,0-0.05-0.02-0.12
		c-0.015-0.066-0.015-0.117-0.066-0.117c-0.068,0-0.068,0-0.068,0s-0.138,0.101-0.12,0.137c0.017,0.034-0.018,0,0.103,0.084
		c0.118,0.086,0.152,0.206,0.152,0.206l-0.015,0.117l-0.224,0.12l-0.154,0.051l-0.015,0.104c0,0,0,0.035-0.034,0.085
		c-0.037,0.051-0.12,0.12-0.12,0.12s-0.071,0.016-0.086,0.067c-0.018,0.035-0.071,0.17-0.071,0.17s-0.066-0.015-0.135,0.036
		c-0.067,0.05,0.019,0.05-0.136,0.12c-0.156,0.066-0.156,0.066-0.156,0.066l-0.17-0.016l-0.101,0.034c0,0-0.138,0.016-0.156,0.052
		c-0.016,0.034-0.084,0.135-0.084,0.135s-0.032,0.069,0,0.069c0.034,0.017,0.084,0,0.17,0.017c0.07,0.019,0.085,0.019,0.139,0.05
		c0.052,0.019,0.102,0.07,0.102,0.07l0.187,0.17l0.104,0.222l-0.019,0.171l-0.202,0.069c0,0-0.12,0-0.172,0
		c-0.034,0-0.019,0-0.225,0c-0.202,0-0.236,0-0.271,0c-0.037,0-0.172-0.019-0.172-0.019l-0.12,0.019l-0.086,0.067l-0.05,0.018
		c0,0,0.068,0.152,0.068,0.206c0,0.05,0,0.117,0,0.117l-0.019,0.104l-0.05,0.12l-0.07,0.118l0.019,0.069
		c0,0-0.019,0.051,0.016,0.051c0.036,0,0.138-0.016,0.138,0.019c0,0.032-0.086,0.17-0.086,0.17l0.172,0.033
		c0,0-0.018-0.017,0.083,0.018c0.105,0.016,0.172,0.051,0.172,0.051l0.12,0.085l0.034,0.069l0.034-0.069
		c0,0,0.188-0.016,0.224-0.034c0.034-0.017,0.12-0.017,0.12-0.017h0.15c0,0,0.036,0.017,0.07-0.019
		c0.016-0.031,0.016-0.031,0.016-0.031s0.172-0.07,0.206-0.104c0.034-0.016,0.052-0.12,0.052-0.12s0.053-0.032,0.053-0.067
		c0-0.035-0.036-0.12-0.036-0.12v-0.069l0.052-0.067c0,0,0.015-0.019,0.068-0.069c0.052-0.051,0.052-0.051,0.052-0.051
		s-0.02-0.016,0.052-0.05c0.068-0.019,0.12-0.07,0.154-0.07c0.032,0-0.034,0.034,0.032,0c0.068-0.035,0.084-0.066,0.084-0.12
		c0-0.032,0.019-0.222,0.019-0.222l0.067-0.101l0.171,0.017l0.086,0.018c0,0,0.104,0.016,0.12-0.018
		c0.018-0.036,0.068-0.067,0.068-0.067l0.136-0.07c0,0-0.016-0.016,0.052-0.016c0.068,0,0.172,0,0.221,0c0.034,0,0.12,0,0.12,0
		s0.071,0.033,0.105,0.067c0.015,0.035,0.066,0.12,0.066,0.12l0.05,0.069h0.053c0.067,0.051,0.104,0.086,0.224,0.117
		c0.12,0.036,0.204,0.07,0.204,0.07s0.032,0.07,0.066,0.101c0.036,0.035,0.07,0.069,0.12,0.105c0.036,0.015,0.07,0.05,0.086,0.084
		c0.018,0.036,0.07,0.102,0.07,0.102l0.067,0.069l0.034-0.069v-0.12L29.962,17.8c0,0-0.068-0.052,0.018-0.052c0.068,0,0.12,0,0.12,0
		l-0.071-0.104l-0.083-0.034l-0.12-0.086l-0.052-0.05l-0.052-0.016l-0.05-0.034l-0.07-0.051c0,0-0.12-0.019-0.12-0.069
		c-0.016-0.036-0.016-0.036-0.016-0.036l-0.12-0.015c0,0-0.12-0.069-0.12-0.102c0-0.034-0.015-0.138-0.015-0.138l-0.104-0.016
		c0,0,0.018-0.07,0.018-0.12c0-0.035,0.034-0.086,0.034-0.086l0.222-0.016l0.051,0.12l0.086,0.051l0.12,0.051l0.05,0.069
		l0.052,0.051c0,0,0.019,0.016,0.086,0.034c0.068,0.016,0.12,0.033,0.12,0.033s0.068,0.069,0.12,0.069
		c0.049,0.015,0.068,0.034,0.12,0.051c-0.037,0.034-0.037,0.034-0.037,0.034s0.018,0.035,0.071,0.069
		c0.049,0.033,0.101,0.101,0.101,0.137c0,0.034,0.034,0.151,0.068,0.17c0.033,0.016,0.052,0.016,0.118,0.086
		c0.069,0.066,0.069,0.135,0.12,0.17c0.069,0.016,0.12,0,0.12,0.067c0.016,0.069,0.016,0.12,0.016,0.12s0.054,0.018,0.09,0.018
		c0.032,0,0.101-0.069,0.101-0.069s0.069-0.102,0.016-0.12c-0.03-0.016-0.116-0.016-0.116-0.051c0-0.034,0-0.221,0-0.221l0.05-0.12
		l0.066-0.101l0.104,0.031l0.102-0.066l0.104,0.12l-0.034,0.136c0,0,0.016,0.086,0.066,0.152c0.035,0.069,0.12,0.155,0.12,0.155
		l0.17,0.154l0.24,0.067l0.052-0.016l0.356-0.069c0,0,0.054,0,0.086,0c0.034,0,0.206,0.291,0.206,0.291s0,0.12,0,0.187
		c0,0.07,0,0.24,0,0.24s-0.12,0.12-0.172,0.12c-0.05,0-0.187,0.067-0.187,0.067l-0.29,0.069l-0.187-0.016l-0.342-0.019
		c0,0-0.343-0.015-0.378-0.015c-0.034,0-0.154,0-0.188,0c-0.036,0-0.086,0.034-0.12,0.135c-0.032,0.102-0.103,0.136-0.103,0.136
		s0,0.051-0.069,0.051c-0.066,0-0.066,0.019-0.118-0.016c-0.053-0.035-0.289-0.085-0.289-0.085l-0.222-0.155l-0.12-0.102
		l-0.12-0.016h-0.343l-0.222-0.018l0.034-0.357l0.033,0.101l-0.067-0.237l-0.103-0.07l-0.238-0.05l-0.154,0.016l-0.206,0.051
		l-0.202,0.069l-0.12,0.034l-0.584,0.101l-0.203,0.086c0,0-0.086,0.05-0.119,0.07c-0.034,0.016-0.171,0.016-0.171,0.016
		s-0.104-0.016-0.154-0.036c-0.05-0.016-0.17-0.016-0.222-0.016s-0.154-0.015-0.188,0c-0.032,0.016-0.066,0.016-0.104,0.07
		c-0.034,0.05-0.154,0.187-0.154,0.187s-0.066,0.07-0.101,0.102c-0.016,0.035-0.102,0.138-0.102,0.138l-0.139,0.222l-0.086,0.101
		l0.019,0.12v0.086c0,0-0.051,0.051-0.085,0.069c-0.035,0.016-0.104,0.051-0.104,0.051s-0.052,0.015-0.103,0.067
		c-0.05,0.034-0.05,0.053-0.084,0.084c-0.036,0.036-0.156,0.12-0.156,0.12s-0.066,0.051-0.116,0.104
		c-0.034,0.052-0.104,0.118-0.12,0.153c-0.02,0.034-0.07,0.069-0.104,0.085c-0.033,0.018-0.102,0.155-0.117,0.189
		c-0.019,0.032-0.12,0.187-0.12,0.187l-0.07,0.292l-0.015,0.135c0,0,0.015,0.052,0.049,0.086c0.036,0.034,0.071,0.17,0.071,0.17
		v0.12c0,0-0.035,0.102-0.054,0.137c-0.018,0.034,0.019,0.206,0.019,0.206v0.101c0,0,0,0.035-0.051,0.086
		c-0.054,0.051-0.069,0.12-0.069,0.12l0.069,0.154l0.051,0.101v0.07L24.7,22.82c0,0,0.034,0.035,0.068,0.069
		c0.034,0.017,0.052,0.017,0.12,0.07c0.066,0.032,0.066,0.032,0.066,0.032s0.105,0.12,0.105,0.171c0,0.034,0.066,0.104,0.066,0.104
		l0.12,0.12c0,0,0.018,0.066,0.084,0.117c0.07,0.053,0.138,0.086,0.171,0.12c0.035,0.019,0.136,0.104,0.222,0.12
		c0.07,0.016,0.104,0.035,0.139,0.035c0.033,0-0.053-0.105,0.188,0.015s0.393,0.172,0.393,0.172l0.17,0.068
		c0,0,0.276,0.016,0.307-0.018C26.955,24,27.005,24,27.039,24c0.036,0,0.12,0,0.19,0c0.067,0,0.308-0.034,0.308-0.034l0.272-0.102
		c0,0,0.084-0.051,0.12-0.07c0.034-0.015,0.135-0.084,0.17-0.101c0.034-0.019,0.205-0.019,0.205-0.019s0-0.05,0.067,0
		c0.068,0.054,0.068,0.07,0.086,0.105c0.019,0.034,0.019,0.12,0.068,0.12c0.052,0.015,0.172,0.051,0.172,0.051s0.169-0.02,0.221,0
		c0.052,0.016,0.172,0.016,0.172,0.016l0.05,0.068l0.019,0.153v0.139c0,0-0.019,0.05,0,0.101c0.016,0.05,0.066,0.136,0.066,0.136
		s-0.066,0.104-0.101,0.12s-0.12,0.12-0.12,0.12l0.24,0.222l0.136,0.136l0.101,0.12c0,0,0.02,0.05,0.02,0.086
		c0,0.034-0.02,0.12,0,0.17c0.017,0.034,0.017,0.172,0.017,0.172s0.018,0.101,0.018,0.137c0,0.034-0.034,0.204-0.034,0.204
		l-0.02,0.12l-0.066,0.205l-0.084,0.102l-0.12,0.12l-0.086,0.138l-0.018,0.187l-0.068,0.118c0,0,0.016,0.105,0.016,0.156
		c0,0.05,0.104,0.236,0.104,0.236l-0.019,0.156c0,0-0.067,0.222-0.067,0.271c0,0.053-0.049,0.121-0.049,0.172
		c0,0.033-0.02,0.189-0.02,0.189l0.02,0.188l0.066,0.188l-0.066,0.17c0,0-0.037,0.138-0.037,0.222c0,0.068,0.12,0.152,0.153,0.152
		c0.034,0,0.19-0.016,0.257-0.065c0.068-0.036,0.24-0.087,0.274-0.104s0.067,0.018,0.17-0.066c0.104-0.069,0.258-0.191,0.258-0.191
		s0.12-0.084,0.169-0.116c0.037-0.036,0.206-0.225,0.206-0.225s0.118-0.116,0.204-0.17c0.084-0.052,0-0.017,0.084-0.068
		c0.09-0.05,0.362-0.274,0.362-0.274l0.271-0.271c0,0,0.24-0.309,0.276-0.357c0.035-0.055,0.256-0.342,0.29-0.361
		c0.032-0.017,0.342-0.221,0.408-0.272c0.07-0.05,0.156-0.411,0.19-0.462c0.032-0.033,0.222-0.461,0.222-0.461l0.171-0.494
		l0.29-0.736l0.288-0.513c0,0,0.12-0.221,0.172-0.288c0.034-0.07,0.309-0.598,0.309-0.598l0.103-0.446l0.035-0.376h-0.172
		l-0.188,0.17l-0.172-0.05l-0.17,0.019l0.188-0.24l-0.051-0.187l-0.155-0.12l-0.205-0.307v-0.31l-0.222-0.357l-0.135-0.563
		c0,0-0.258-0.274-0.222-0.341c0.016-0.069,0.084-0.275,0.084-0.275l0.138,0.069c0,0,0.101,0.273,0.152,0.291
		c0.053,0.016,0.12,0.152,0.137,0.187c0.018,0.036,0.032,0.156,0.067,0.19c0.019,0.032,0.137,0.256,0.137,0.256
		s0.086,0.221,0.104,0.272c0.017,0.035,0.103,0.171,0.12,0.272c0.017,0.104,0.066,0.427,0.066,0.461
		c0,0.035,0.086,0.393,0.086,0.393s0.12-0.032,0.137-0.066c0.018-0.035,0.018-0.051,0.054-0.086
		c0.016-0.034,0.222-0.189,0.222-0.189l0.085-0.272c0,0,0.05-0.12,0.067-0.17c0.017-0.051,0.12-0.24,0.12-0.273
		c0-0.034-0.018-0.17,0-0.224c0.017-0.032,0.068-0.237,0.068-0.272c0-0.034,0.016-0.171,0.016-0.171L34.49,20.02l0.136-0.171
		l0.07-0.189C34.662,19.593,34.164,14.228,29.055,11.545z"/>
</g>
</svg>
