<?xml version="1.0" encoding="utf-8"?>
<!-- Generator: Adobe Illustrator 21.0.0, SVG Export Plug-In . SVG Version: 6.00 Build 0)  -->
<svg version="1.1" id="图层_1" xmlns="http://www.w3.org/2000/svg" xmlns:xlink="http://www.w3.org/1999/xlink" x="0px" y="0px"
	 viewBox="0 0 48 48" style="enable-background:new 0 0 48 48;" xml:space="preserve">
<style type="text/css">
	.st0{opacity:0.06;enable-background:new    ;}
	.st1{opacity:0.1;enable-background:new    ;}
	.st2{opacity:0.2;enable-background:new    ;}
	.st3{fill:#AE2124;}
	.st4{fill:url(#SVGID_1_);}
	.st5{fill:#AE2124;fill-opacity:0.3922;}
	.st6{fill:#FFFFFF;fill-opacity:0.3922;}
	.st7{opacity:0.8;enable-background:new    ;}
	.st8{fill:#FFFFFF;}
</style>
<polygon class="st0" points="7.2,48 7.2,2 42.8,2 42.8,35 29.8,48 "/>
<polygon class="st1" points="8.2,47 8.2,3 41.8,3 41.8,34.6 29.4,47 "/>
<polygon class="st2" points="7.2,46 7.2,2 40.8,2 40.8,33.6 28.4,46 "/>
<polygon class="st3" points="8.1,45 8.1,3 39.9,3 39.9,33.2 28,45 "/>
<g>
	<g>
		<g>
			
				<linearGradient id="SVGID_1_" gradientUnits="userSpaceOnUse" x1="65.5996" y1="1205.4004" x2="65.5996" y2="1164.4004" gradientTransform="matrix(1 0 0 1 -41.5996 -1160.9004)">
				<stop  offset="0" style="stop-color:#C7312F"/>
				<stop  offset="0.1635" style="stop-color:#D9412C"/>
				<stop  offset="0.3476" style="stop-color:#E74E29"/>
				<stop  offset="0.5725" style="stop-color:#EA552A"/>
				<stop  offset="0.9516" style="stop-color:#EA582B"/>
			</linearGradient>
			<polygon class="st4" points="8.6,44.5 8.6,3.5 39.4,3.5 39.4,33 27.8,44.5 			"/>
		</g>
		<polygon class="st5" points="39.4,33 39.4,32.5 27.2,32.5 27.2,44.5 27.8,44.5 		"/>
		<path class="st6" d="M27.8,33h11.5L27.8,44.5V33z"/>
	</g>
	<g class="st7">
		<g>
			<path class="st8" d="M27.9,13.5c0.1,0,0.1,0,0.2,0C28,13.5,27.9,13.5,27.9,13.5z"/>
			<path class="st8" d="M27.4,13.4c0.1,0,0.1,0,0.2,0C27.6,13.5,27.5,13.5,27.4,13.4z"/>
			<path class="st8" d="M28.3,13.6c0.1,0,0.1,0,0.2,0C28.4,13.6,28.3,13.6,28.3,13.6z"/>
			<path class="st8" d="M28.7,13.6c0.1,0,0.1,0,0.1,0C28.8,13.7,28.7,13.6,28.7,13.6z"/>
			<path class="st8" d="M27,13.4c0.1,0,0.1,0,0.2,0C27.1,13.4,27.1,13.4,27,13.4z"/>
			<path class="st8" d="M29.5,13.8h0.1C29.5,13.8,29.5,13.8,29.5,13.8z"/>
			<path class="st8" d="M29.1,13.7h0.1C29.2,13.8,29.1,13.7,29.1,13.7z"/>
			<path class="st8" d="M14.8,15.7L14.8,15.7L14.8,15.7z"/>
			<path class="st8" d="M24.6,13.2c0.1,0,0.2,0,0.3,0C24.9,13.2,24.7,13.2,24.6,13.2z"/>
			<path class="st8" d="M29.8,13.9h0.1H29.8z"/>
			<path class="st8" d="M26.5,13.3c0.1,0,0.1,0,0.2,0C26.7,13.4,26.6,13.4,26.5,13.3z"/>
			<path class="st8" d="M23,13.2c0.1,0,0.2,0,0.3,0C23.3,13.2,23.1,13.2,23,13.2z"/>
			<path class="st8" d="M25.6,13.3c0.1,0,0.2,0,0.3,0C25.8,13.3,25.7,13.3,25.6,13.3z"/>
			<path class="st8" d="M26.1,13.3c0.1,0,0.2,0,0.2,0C26.3,13.3,26.2,13.3,26.1,13.3z"/>
			<path class="st8" d="M31.9,14.7L31.9,14.7L31.9,14.7z"/>
			<path class="st8" d="M32.7,15.3L32.7,15.3L32.7,15.3z"/>
			<path class="st8" d="M32.2,14.8L32.2,14.8L32.2,14.8z"/>
			<path class="st8" d="M32.4,15L32.4,15L32.4,15z"/>
			<path class="st8" d="M30.2,14L30.2,14L30.2,14z"/>
			<path class="st8" d="M32.9,15.4L32.9,15.4L32.9,15.4z"/>
			<path class="st8" d="M24,13.2c-0.2,0-0.3,0-0.5,0C23.7,13.2,23.8,13.2,24,13.2z"/>
			<path class="st8" d="M32.6,15.1L32.6,15.1L32.6,15.1z"/>
			<path class="st8" d="M31.1,14.3C31.1,14.3,31.2,14.3,31.1,14.3C31.2,14.3,31.1,14.3,31.1,14.3z"/>
			<path class="st8" d="M24,13.2c0.2,0,0.3,0,0.5,0C24.3,13.2,24.2,13.2,24,13.2z"/>
			<path class="st8" d="M30.5,14.1L30.5,14.1L30.5,14.1z"/>
			<path class="st8" d="M30.8,14.2C30.8,14.2,30.9,14.2,30.8,14.2C30.9,14.2,30.8,14.2,30.8,14.2z"/>
			<path class="st8" d="M31.4,14.4C31.4,14.4,31.4,14.5,31.4,14.4C31.4,14.5,31.4,14.4,31.4,14.4z"/>
			<path class="st8" d="M31.7,14.6L31.7,14.6L31.7,14.6z"/>
			<path class="st8" d="M25.1,13.3c0.1,0,0.2,0,0.3,0C25.3,13.3,25.2,13.3,25.1,13.3z"/>
			<path class="st8" d="M16.1,14.7L16.1,14.7L16.1,14.7z"/>
			<path class="st8" d="M15.8,14.8L15.8,14.8L15.8,14.8z"/>
			<path class="st8" d="M15.6,15L15.6,15L15.6,15z"/>
			<path class="st8" d="M16.3,14.6L16.3,14.6L16.3,14.6z"/>
			<path class="st8" d="M16.8,14.3C16.8,14.3,16.9,14.3,16.8,14.3C16.9,14.3,16.8,14.3,16.8,14.3z"/>
			<path class="st8" d="M16.6,14.5C16.6,14.5,16.6,14.4,16.6,14.5C16.6,14.4,16.6,14.5,16.6,14.5z"/>
			<path class="st8" d="M22.6,13.3c0.1,0,0.2,0,0.3,0C22.8,13.3,22.7,13.3,22.6,13.3z"/>
			<path class="st8" d="M24,19.6c-5.2,0-9.4-1.4-9.4-3.2v2.9c0,1.8,4.2,3.2,9.4,3.2s9.4-1.4,9.4-3.2l0,0v-2.9
				C33.4,18.2,29.2,19.6,24,19.6z"/>
			<path class="st8" d="M14.6,16.3v0.1V16.3L14.6,16.3z"/>
			<path class="st8" d="M17.1,14.2C17.1,14.2,17.2,14.2,17.1,14.2C17.2,14.2,17.1,14.2,17.1,14.2z"/>
			<path class="st8" d="M15.3,15.3L15.3,15.3L15.3,15.3z"/>
			<path class="st8" d="M33.4,16.3v0.1V16.3L33.4,16.3z"/>
			<path class="st8" d="M15,15.5L15,15.5L15,15.5z"/>
			<path class="st8" d="M15.1,15.4L15.1,15.4L15.1,15.4z"/>
			<path class="st8" d="M15.4,15.1L15.4,15.1L15.4,15.1z"/>
			<path class="st8" d="M20.8,13.4c0.1,0,0.1,0,0.2,0C20.9,13.4,20.9,13.4,20.8,13.4z"/>
			<path class="st8" d="M20.4,13.5c0.1,0,0.1,0,0.2,0C20.5,13.5,20.4,13.5,20.4,13.5z"/>
			<path class="st8" d="M21.2,13.4c0.1,0,0.1,0,0.2,0C21.4,13.4,21.3,13.4,21.2,13.4z"/>
			<path class="st8" d="M17.4,14.1C17.4,14.1,17.5,14.1,17.4,14.1C17.5,14.1,17.5,14.1,17.4,14.1z"/>
			<path class="st8" d="M22.1,13.3c0.1,0,0.2,0,0.3,0C22.3,13.3,22.2,13.3,22.1,13.3z"/>
			<path class="st8" d="M20,13.5c0.1,0,0.1,0,0.2,0C20.1,13.5,20,13.5,20,13.5z"/>
			<path class="st8" d="M21.7,13.3c0.1,0,0.2,0,0.2,0C21.8,13.3,21.7,13.3,21.7,13.3z"/>
			<path class="st8" d="M18.1,13.9h0.1H18.1z"/>
			<path class="st8" d="M17.7,14C17.8,14,17.8,14,17.7,14C17.8,14,17.8,14,17.7,14z"/>
			<path class="st8" d="M18.4,13.8h0.1C18.5,13.8,18.5,13.8,18.4,13.8z"/>
			<path class="st8" d="M18.8,13.8c0.1,0,0.1,0,0.1,0C18.9,13.7,18.8,13.8,18.8,13.8z"/>
			<path class="st8" d="M19.2,13.7c0.1,0,0.1,0,0.2,0C19.3,13.6,19.2,13.7,19.2,13.7z"/>
			<path class="st8" d="M19.6,13.6c0,0,0.1,0,0.2,0C19.7,13.6,19.6,13.6,19.6,13.6z"/>
		</g>
		<g>
			<path class="st8" d="M27.9,16.8c0.1,0,0.1,0,0.2,0C28,16.9,27.9,16.9,27.9,16.8z"/>
			<path class="st8" d="M27.4,16.8c0.1,0,0.1,0,0.2,0C27.6,16.8,27.5,16.8,27.4,16.8z"/>
			<path class="st8" d="M28.3,16.9c0.1,0,0.1,0,0.2,0C28.4,16.9,28.3,16.9,28.3,16.9z"/>
			<path class="st8" d="M28.7,17c0.1,0,0.1,0,0.1,0C28.8,17,28.7,17,28.7,17z"/>
			<path class="st8" d="M27,16.7c0.1,0,0.1,0,0.2,0C27.1,16.7,27.1,16.7,27,16.7z"/>
			<path class="st8" d="M29.5,17.1h0.1C29.5,17.2,29.5,17.2,29.5,17.1z"/>
			<path class="st8" d="M29.1,17.1h0.1H29.1z"/>
			<path class="st8" d="M14.8,19L14.8,19L14.8,19z"/>
			<path class="st8" d="M24.6,16.6c0.1,0,0.2,0,0.3,0C24.9,16.6,24.7,16.6,24.6,16.6z"/>
			<path class="st8" d="M29.8,17.3h0.1H29.8z"/>
			<path class="st8" d="M26.5,16.7c0.1,0,0.1,0,0.2,0C26.7,16.7,26.6,16.7,26.5,16.7z"/>
			<path class="st8" d="M23,16.6c0.1,0,0.2,0,0.3,0C23.3,16.6,23.1,16.6,23,16.6z"/>
			<path class="st8" d="M25.6,16.6c0.1,0,0.2,0,0.3,0C25.8,16.6,25.7,16.6,25.6,16.6z"/>
			<path class="st8" d="M26.1,16.6c0.1,0,0.2,0,0.2,0C26.3,16.7,26.2,16.7,26.1,16.6z"/>
			<path class="st8" d="M31.9,18L31.9,18L31.9,18z"/>
			<path class="st8" d="M32.7,18.6L32.7,18.6L32.7,18.6z"/>
			<path class="st8" d="M32.2,18.2L32.2,18.2L32.2,18.2z"/>
			<path class="st8" d="M32.4,18.3L32.4,18.3L32.4,18.3z"/>
			<path class="st8" d="M30.2,17.3C30.2,17.3,30.2,17.4,30.2,17.3C30.2,17.4,30.2,17.4,30.2,17.3z"/>
			<path class="st8" d="M32.9,18.7L32.9,18.7L32.9,18.7z"/>
			<path class="st8" d="M24,16.6c-0.2,0-0.3,0-0.5,0C23.7,16.6,23.8,16.6,24,16.6z"/>
			<path class="st8" d="M32.6,18.4L32.6,18.4L32.6,18.4z"/>
			<path class="st8" d="M31.1,17.7C31.1,17.7,31.2,17.7,31.1,17.7C31.2,17.7,31.1,17.7,31.1,17.7z"/>
			<path class="st8" d="M24,16.6c0.2,0,0.3,0,0.5,0C24.3,16.6,24.2,16.6,24,16.6z"/>
			<path class="st8" d="M30.5,17.4C30.5,17.4,30.5,17.5,30.5,17.4C30.5,17.5,30.5,17.5,30.5,17.4z"/>
			<path class="st8" d="M30.8,17.6C30.8,17.6,30.9,17.6,30.8,17.6C30.9,17.6,30.8,17.6,30.8,17.6z"/>
			<path class="st8" d="M31.4,17.8L31.4,17.8L31.4,17.8z"/>
			<path class="st8" d="M31.7,17.9L31.7,17.9L31.7,17.9z"/>
			<path class="st8" d="M25.1,16.6c0.1,0,0.2,0,0.3,0C25.3,16.6,25.2,16.6,25.1,16.6z"/>
			<path class="st8" d="M16.1,18.1C16.1,18.1,16.1,18,16.1,18.1C16.1,18,16.1,18,16.1,18.1z"/>
			<path class="st8" d="M15.8,18.2L15.8,18.2L15.8,18.2z"/>
			<path class="st8" d="M15.6,18.3L15.6,18.3L15.6,18.3z"/>
			<path class="st8" d="M16.3,17.9L16.3,17.9L16.3,17.9z"/>
			<path class="st8" d="M16.8,17.7C16.8,17.7,16.9,17.7,16.8,17.7C16.9,17.7,16.8,17.7,16.8,17.7z"/>
			<path class="st8" d="M16.6,17.8L16.6,17.8L16.6,17.8z"/>
			<path class="st8" d="M22.6,16.6c0.1,0,0.2,0,0.3,0C22.8,16.6,22.7,16.6,22.6,16.6z"/>
			<path class="st8" d="M24,22.9c-5.2,0-9.4-1.4-9.4-3.2v2.9c0,1.8,4.2,3.2,9.4,3.2s9.4-1.4,9.4-3.2l0,0v-2.9
				C33.4,21.5,29.2,22.9,24,22.9z"/>
			<path class="st8" d="M14.6,19.6v0.1C14.6,19.7,14.6,19.7,14.6,19.6L14.6,19.6z"/>
			<path class="st8" d="M17.1,17.6C17.1,17.6,17.2,17.6,17.1,17.6C17.2,17.6,17.1,17.6,17.1,17.6z"/>
			<path class="st8" d="M15.3,18.6L15.3,18.6L15.3,18.6z"/>
			<path class="st8" d="M33.4,19.6v0.1V19.6L33.4,19.6z"/>
			<path class="st8" d="M15,18.9L15,18.9L15,18.9z"/>
			<path class="st8" d="M15.1,18.7L15.1,18.7L15.1,18.7z"/>
			<path class="st8" d="M15.4,18.4L15.4,18.4L15.4,18.4z"/>
			<path class="st8" d="M20.8,16.8c0.1,0,0.1,0,0.2,0C20.9,16.7,20.9,16.7,20.8,16.8z"/>
			<path class="st8" d="M20.4,16.8c0.1,0,0.1,0,0.2,0C20.5,16.8,20.4,16.8,20.4,16.8z"/>
			<path class="st8" d="M21.2,16.7c0.1,0,0.1,0,0.2,0C21.4,16.7,21.3,16.7,21.2,16.7z"/>
			<path class="st8" d="M17.4,17.5C17.4,17.5,17.5,17.5,17.4,17.5C17.5,17.5,17.5,17.5,17.4,17.5z"/>
			<path class="st8" d="M22.1,16.6c0.1,0,0.2,0,0.3,0C22.3,16.6,22.2,16.6,22.1,16.6z"/>
			<path class="st8" d="M20,16.9c0.1,0,0.1,0,0.2,0C20.1,16.9,20,16.9,20,16.9z"/>
			<path class="st8" d="M21.7,16.7c0.1,0,0.2,0,0.2,0C21.8,16.7,21.7,16.7,21.7,16.7z"/>
			<path class="st8" d="M18.1,17.3h0.1H18.1z"/>
			<path class="st8" d="M17.7,17.4C17.8,17.4,17.8,17.4,17.7,17.4C17.8,17.4,17.8,17.4,17.7,17.4z"/>
			<path class="st8" d="M18.4,17.2h0.1C18.5,17.2,18.5,17.2,18.4,17.2z"/>
			<path class="st8" d="M18.8,17.1c0.1,0,0.1,0,0.1,0H18.8z"/>
			<path class="st8" d="M19.2,17c0.1,0,0.1,0,0.2,0C19.3,17,19.2,17,19.2,17z"/>
			<path class="st8" d="M19.6,16.9c0,0,0.1,0,0.2,0C19.7,16.9,19.6,16.9,19.6,16.9z"/>
		</g>
		<g>
			<path class="st8" d="M27.9,20.2c0.1,0,0.1,0,0.2,0C28,20.2,27.9,20.2,27.9,20.2z"/>
			<path class="st8" d="M27.4,20.1c0.1,0,0.1,0,0.2,0C27.6,20.1,27.5,20.1,27.4,20.1z"/>
			<path class="st8" d="M28.3,20.2c0.1,0,0.1,0,0.2,0C28.4,20.3,28.3,20.3,28.3,20.2z"/>
			<path class="st8" d="M28.7,20.3c0.1,0,0.1,0,0.1,0C28.8,20.3,28.7,20.3,28.7,20.3z"/>
			<path class="st8" d="M27,20.1c0.1,0,0.1,0,0.2,0C27.1,20.1,27.1,20.1,27,20.1z"/>
			<path class="st8" d="M29.5,20.5h0.1C29.5,20.5,29.5,20.5,29.5,20.5z"/>
			<path class="st8" d="M29.1,20.4h0.1H29.1z"/>
			<path class="st8" d="M14.8,22.4L14.8,22.4L14.8,22.4z"/>
			<path class="st8" d="M24.6,19.9c0.1,0,0.2,0,0.3,0C24.9,19.9,24.7,19.9,24.6,19.9z"/>
			<path class="st8" d="M29.8,20.6h0.1H29.8z"/>
			<path class="st8" d="M26.5,20c0.1,0,0.1,0,0.2,0C26.7,20,26.6,20,26.5,20z"/>
			<path class="st8" d="M23,19.9c0.1,0,0.2,0,0.3,0C23.3,19.9,23.1,19.9,23,19.9z"/>
			<path class="st8" d="M25.6,20c0.1,0,0.2,0,0.3,0C25.8,20,25.7,20,25.6,20z"/>
			<path class="st8" d="M26.1,20c0.1,0,0.2,0,0.2,0C26.3,20,26.2,20,26.1,20z"/>
			<path class="st8" d="M31.9,21.4L31.9,21.4L31.9,21.4z"/>
			<path class="st8" d="M32.7,21.9L32.7,21.9L32.7,21.9z"/>
			<path class="st8" d="M32.2,21.5L32.2,21.5L32.2,21.5z"/>
			<path class="st8" d="M32.4,21.6L32.4,21.6L32.4,21.6z"/>
			<path class="st8" d="M30.2,20.7L30.2,20.7L30.2,20.7z"/>
			<path class="st8" d="M32.9,22.1L32.9,22.1L32.9,22.1z"/>
			<path class="st8" d="M24,19.9c-0.2,0-0.3,0-0.5,0C23.7,19.9,23.8,19.9,24,19.9z"/>
			<path class="st8" d="M32.6,21.8L32.6,21.8L32.6,21.8z"/>
			<path class="st8" d="M31.1,21C31.1,21,31.2,21,31.1,21C31.2,21,31.1,21,31.1,21z"/>
			<path class="st8" d="M24,19.9c0.2,0,0.3,0,0.5,0C24.3,19.9,24.2,19.9,24,19.9z"/>
			<path class="st8" d="M30.5,20.8L30.5,20.8L30.5,20.8z"/>
			<path class="st8" d="M30.8,20.9C30.8,20.9,30.9,20.9,30.8,20.9C30.9,20.9,30.8,20.9,30.8,20.9z"/>
			<path class="st8" d="M31.4,21.1L31.4,21.1L31.4,21.1z"/>
			<path class="st8" d="M31.7,21.2C31.7,21.2,31.7,21.3,31.7,21.2C31.7,21.3,31.7,21.2,31.7,21.2z"/>
			<path class="st8" d="M25.1,19.9c0.1,0,0.2,0,0.3,0C25.3,19.9,25.2,19.9,25.1,19.9z"/>
			<path class="st8" d="M16.1,21.4L16.1,21.4L16.1,21.4z"/>
			<path class="st8" d="M15.8,21.5L15.8,21.5L15.8,21.5z"/>
			<path class="st8" d="M15.6,21.6L15.6,21.6L15.6,21.6z"/>
			<path class="st8" d="M16.3,21.3C16.3,21.3,16.3,21.2,16.3,21.3C16.3,21.2,16.3,21.3,16.3,21.3z"/>
			<path class="st8" d="M16.8,21C16.8,21,16.9,21,16.8,21C16.9,21,16.8,21,16.8,21z"/>
			<path class="st8" d="M16.6,21.1L16.6,21.1L16.6,21.1z"/>
			<path class="st8" d="M22.6,19.9c0.1,0,0.2,0,0.3,0C22.8,19.9,22.7,19.9,22.6,19.9z"/>
			<path class="st8" d="M24,26.3c-5.2,0-9.4-1.4-9.4-3.2V26c0,1.8,4.2,3.2,9.4,3.2s9.4-1.4,9.4-3.2l0,0v-2.9
				C33.4,24.8,29.2,26.3,24,26.3z"/>
			<path class="st8" d="M14.6,23v0.1V23L14.6,23z"/>
			<path class="st8" d="M17.1,20.9C17.1,20.9,17.2,20.9,17.1,20.9C17.2,20.9,17.1,20.9,17.1,20.9z"/>
			<path class="st8" d="M15.3,21.9L15.3,21.9L15.3,21.9z"/>
			<path class="st8" d="M33.4,23v0.1V23L33.4,23z"/>
			<path class="st8" d="M15,22.2L15,22.2L15,22.2z"/>
			<path class="st8" d="M15.1,22.1L15.1,22.1L15.1,22.1z"/>
			<path class="st8" d="M15.4,21.8L15.4,21.8L15.4,21.8z"/>
			<path class="st8" d="M20.8,20.1c0.1,0,0.1,0,0.2,0C20.9,20.1,20.9,20.1,20.8,20.1z"/>
			<path class="st8" d="M20.4,20.1c0.1,0,0.1,0,0.2,0C20.5,20.1,20.4,20.1,20.4,20.1z"/>
			<path class="st8" d="M21.2,20c0.1,0,0.1,0,0.2,0C21.4,20,21.3,20,21.2,20z"/>
			<path class="st8" d="M17.4,20.8C17.4,20.8,17.5,20.8,17.4,20.8C17.5,20.8,17.5,20.8,17.4,20.8z"/>
			<path class="st8" d="M22.1,20c0.1,0,0.2,0,0.3,0C22.3,20,22.2,20,22.1,20z"/>
			<path class="st8" d="M20,20.2c0.1,0,0.1,0,0.2,0C20.1,20.2,20,20.2,20,20.2z"/>
			<path class="st8" d="M21.7,20c0.1,0,0.2,0,0.2,0C21.8,20,21.7,20,21.7,20z"/>
			<path class="st8" d="M18.1,20.6h0.1H18.1z"/>
			<path class="st8" d="M17.7,20.7C17.8,20.7,17.8,20.7,17.7,20.7C17.8,20.7,17.8,20.7,17.7,20.7z"/>
			<path class="st8" d="M18.4,20.5h0.1C18.5,20.5,18.5,20.5,18.4,20.5z"/>
			<path class="st8" d="M18.8,20.4c0.1,0,0.1,0,0.1,0H18.8z"/>
			<path class="st8" d="M19.2,20.3c0.1,0,0.1,0,0.2,0C19.3,20.3,19.2,20.3,19.2,20.3z"/>
			<path class="st8" d="M19.6,20.3c0,0,0.1,0,0.2,0C19.7,20.3,19.6,20.3,19.6,20.3z"/>
		</g>
		<ellipse class="st8" cx="24" cy="15.9" rx="9.4" ry="3.2"/>
	</g>
</g>
</svg>
