<?xml version="1.0" encoding="utf-8"?>
<!-- Generator: Adobe Illustrator 21.0.0, SVG Export Plug-In . SVG Version: 6.00 Build 0)  -->
<svg version="1.1" id="图层_1" xmlns="http://www.w3.org/2000/svg" xmlns:xlink="http://www.w3.org/1999/xlink" x="0px" y="0px"
	 viewBox="0 0 48 48" style="enable-background:new 0 0 48 48;" xml:space="preserve">
<style type="text/css">
	.st0{opacity:0.2;enable-background:new    ;}
	.st1{opacity:0.08;enable-background:new    ;}
	.st2{opacity:0.1;enable-background:new    ;}
	.st3{fill:#1B5E20;}
	.st4{fill:url(#SVGID_1_);}
	.st5{opacity:0.8;fill:#FFFFFF;enable-background:new    ;}
</style>
<rect x="7.1" y="2" class="st0" width="33.7" height="44"/>
<rect x="7.1" y="2" class="st1" width="35.7" height="46"/>
<rect x="8.1" y="3" class="st2" width="33.7" height="44"/>
<rect x="8.1" y="3" class="st3" width="31.7" height="42"/>
<g>
	
		<linearGradient id="SVGID_1_" gradientUnits="userSpaceOnUse" x1="65.5501" y1="-878.4004" x2="65.5501" y2="-837.4004" gradientTransform="matrix(1 0 0 -1 -41.6001 -833.9004)">
		<stop  offset="0" style="stop-color:#388E3C"/>
		<stop  offset="0.0757" style="stop-color:#43953E"/>
		<stop  offset="0.3246" style="stop-color:#62A943"/>
		<stop  offset="0.5665" style="stop-color:#79B747"/>
		<stop  offset="0.796" style="stop-color:#86C049"/>
		<stop  offset="1" style="stop-color:#8BC34A"/>
	</linearGradient>
	<rect x="8.6" y="3.5" class="st4" width="30.7" height="41"/>
	<path class="st5" d="M24.8,11.1L24.8,11.1h-1.6l0,0H13.1v19.8H35V11.1H24.8z M14.6,16.9h4.9v3.2h-4.9V16.9z M14.6,21.7h4.9v3.2
		h-4.9V21.7z M21.1,21.7h12.2v3.2H21.1V21.7z M21.1,20.1v-3.2h12.2v3.2H21.1z M33.4,12.6v2.7H21.1v-2.7H33.4z M19.5,12.6v2.7h-4.9
		v-2.7H19.5z M14.6,26.4h4.9v2.8h-4.9V26.4z M21.1,29.2v-2.8h12.2v2.8H21.1z"/>
</g>
</svg>
