<?xml version="1.0" encoding="utf-8"?>
<!-- Generator: Adobe Illustrator 21.0.0, SVG Export Plug-In . SVG Version: 6.00 Build 0)  -->
<svg version="1.1" id="图层_1" xmlns="http://www.w3.org/2000/svg" xmlns:xlink="http://www.w3.org/1999/xlink" x="0px" y="0px"
	 viewBox="0 0 48 48" style="enable-background:new 0 0 48 48;" xml:space="preserve">
<style type="text/css">
	.st0{opacity:0.06;enable-background:new    ;}
	.st1{opacity:0.1;enable-background:new    ;}
	.st2{opacity:0.2;enable-background:new    ;}
	.st3{fill:#1B5E20;}
	.st4{fill:url(#SVGID_1_);}
	.st5{fill:#1B5E20;fill-opacity:0.39;}
	.st6{fill:#FFFFFF;fill-opacity:0.3922;}
	.st7{opacity:0.8;fill:#FFFFFF;enable-background:new    ;}
	.st8{enable-background:new    ;}
	.st9{fill:#38883B;}
</style>
<polygon class="st0" points="7.2,48 7.2,2 42.8,2 42.8,35 29.8,48 "/>
<polygon class="st1" points="8.2,47 8.2,3 41.8,3 41.8,34.6 29.4,47 "/>
<polygon class="st2" points="7.2,46 7.2,2 40.8,2 40.8,33.6 28.4,46 "/>
<polygon class="st3" points="8.1,45 8.1,3 39.9,3 39.9,33.2 28,45 "/>
<g>
	<g>
		<g>
			<g>
				<g>
					
						<linearGradient id="SVGID_1_" gradientUnits="userSpaceOnUse" x1="107.2002" y1="-1297.3008" x2="107.2002" y2="-1256.3008" gradientTransform="matrix(1 0 0 -1 -83.2002 -1252.8008)">
						<stop  offset="0" style="stop-color:#388E3C"/>
						<stop  offset="0.0757" style="stop-color:#43953E"/>
						<stop  offset="0.3246" style="stop-color:#62A943"/>
						<stop  offset="0.5665" style="stop-color:#79B747"/>
						<stop  offset="0.796" style="stop-color:#86C049"/>
						<stop  offset="1" style="stop-color:#8BC34A"/>
					</linearGradient>
					<polygon class="st4" points="8.6,44.5 8.6,3.5 39.4,3.5 39.4,33 27.8,44.5 					"/>
				</g>
				<polygon class="st5" points="39.4,33 39.4,32.5 27.2,32.5 27.2,44.5 27.8,44.5 				"/>
				<path class="st6" d="M27.8,33h11.6L27.8,44.5V33z"/>
			</g>
			<path class="st7" d="M24.8,12.6L24.8,12.6h-1.5l0,0h-9.8v19.1h21.1V12.6H24.8z M15,18.2h4.7v3.1H15V18.2z M15,22.8h4.7v3H15V22.8
				z M21.2,22.8H33v3H21.2V22.8z M21.2,21.3v-3.1H33v3.1H21.2z M33,14.1v2.6H21.2v-2.6H33z M19.7,14.1v2.6H15v-2.6H19.7z M15,27.4
				h4.7v2.7H15V27.4z M21.2,30.1v-2.7H33v2.7H21.2z"/>
		</g>
	</g>
	<g>
		<g>
			<rect x="8.6" y="3.5" class="st7" width="30.7" height="7.9"/>
		</g>
		<g class="st8">
			<path class="st9" d="M21,7.4c0,0.5-0.1,1-0.3,1.4c-0.2,0.4-0.4,0.7-0.7,1c-0.3,0.3-0.6,0.5-1,0.6s-0.8,0.2-1.3,0.2
				c-0.4,0-0.9-0.1-1.2-0.2c-0.4-0.1-0.7-0.3-1-0.6s-0.5-0.6-0.7-1s-0.3-0.9-0.3-1.4s0.1-1,0.3-1.4s0.4-0.7,0.7-1s0.6-0.5,1-0.6
				s0.8-0.2,1.2-0.2c0.4,0,0.9,0.1,1.2,0.2c0.4,0.1,0.7,0.3,1,0.6c0.3,0.3,0.5,0.6,0.7,1C20.9,6.4,21,6.9,21,7.4z M16.1,7.4
				c0,0.3,0,0.6,0.1,0.8s0.2,0.4,0.3,0.6C16.6,9,16.8,9.1,17,9.2c0.2,0.1,0.5,0.1,0.7,0.1c0.3,0,0.5,0,0.7-0.1s0.4-0.2,0.5-0.4
				s0.3-0.4,0.3-0.6c0.1-0.2,0.1-0.5,0.1-0.8s0-0.6-0.1-0.8C19.1,6.4,19,6.1,18.9,6c-0.1-0.2-0.3-0.3-0.5-0.4s-0.5-0.1-0.7-0.1
				c-0.3,0-0.5,0-0.7,0.1S16.6,5.8,16.5,6c-0.1,0.2-0.3,0.4-0.3,0.6C16.1,6.8,16.1,7.1,16.1,7.4z"/>
			<path class="st9" d="M27.9,7.4c0,0.5-0.1,1-0.3,1.4c-0.2,0.4-0.4,0.7-0.7,1c-0.3,0.3-0.7,0.5-1.2,0.6s-1,0.2-1.5,0.2
				c-0.3,0-0.6,0-0.9,0s-0.7-0.1-1-0.1v-6c0.3-0.1,0.7-0.1,1-0.1c0.4,0,0.7,0,0.9,0c0.6,0,1.1,0.1,1.5,0.2s0.8,0.3,1.2,0.6
				c0.3,0.3,0.6,0.6,0.7,1C27.8,6.4,27.9,6.8,27.9,7.4z M23.7,9.3c0.1,0,0.1,0,0.2,0s0.2,0,0.3,0c0.7,0,1.3-0.2,1.6-0.5
				c0.3-0.3,0.5-0.8,0.5-1.4s-0.2-1.1-0.5-1.5c-0.3-0.3-0.9-0.5-1.6-0.5c-0.1,0-0.2,0-0.3,0c-0.1,0-0.2,0-0.3,0L23.7,9.3L23.7,9.3z"
				/>
			<path class="st9" d="M30.9,9.4c0.2,0,0.4,0,0.5,0s0.2-0.1,0.3-0.1c0.1-0.1,0.1-0.1,0.2-0.2c0-0.1,0-0.2,0-0.3
				c0-0.2-0.1-0.4-0.3-0.5s-0.5-0.3-1-0.4c-0.2-0.1-0.4-0.2-0.6-0.2c-0.2-0.1-0.4-0.2-0.6-0.3c-0.2-0.1-0.3-0.3-0.4-0.5
				s-0.2-0.4-0.2-0.7c0-0.3,0.1-0.5,0.2-0.8c0.1-0.2,0.3-0.4,0.5-0.6s0.5-0.3,0.7-0.4c0.3-0.1,0.6-0.1,1-0.1s0.8,0,1.1,0.1
				s0.6,0.2,0.8,0.3l-0.4,1.1c-0.2-0.1-0.4-0.2-0.6-0.2c-0.2-0.1-0.5-0.1-0.8-0.1s-0.6,0-0.7,0.1c-0.2,0.1-0.2,0.2-0.2,0.4
				c0,0.1,0,0.2,0.1,0.3c0.1,0.1,0.1,0.1,0.2,0.2s0.2,0.1,0.4,0.2c0.1,0.1,0.3,0.1,0.4,0.2C31.7,6.8,32,7,32.3,7.1
				c0.2,0.1,0.5,0.2,0.6,0.4c0.2,0.2,0.3,0.3,0.4,0.5c0.1,0.2,0.1,0.5,0.1,0.8c0,0.6-0.2,1-0.6,1.3c-0.4,0.3-1.1,0.5-1.9,0.5
				c-0.3,0-0.5,0-0.8-0.1s-0.4-0.1-0.6-0.1s-0.3-0.1-0.5-0.1c-0.1-0.1-0.2-0.1-0.3-0.1L29.1,9c0.2,0.1,0.4,0.2,0.7,0.3
				S30.4,9.4,30.9,9.4z"/>
		</g>
	</g>
</g>
</svg>
