<?xml version="1.0" encoding="utf-8"?>
<!-- Generator: Adobe Illustrator 16.0.0, SVG Export Plug-In . SVG Version: 6.00 Build 0)  -->
<!DOCTYPE svg PUBLIC "-//W3C//DTD SVG 1.1//EN" "http://www.w3.org/Graphics/SVG/1.1/DTD/svg11.dtd">
<svg version="1.1" id="图层_1" xmlns="http://www.w3.org/2000/svg" xmlns:xlink="http://www.w3.org/1999/xlink" x="0px" y="0px"
	 width="48px" height="48px" viewBox="0 0 48 48" enable-background="new 0 0 48 48" xml:space="preserve">
<polygon opacity="0.06" enable-background="new    " points="7.181,48 7.181,2 42.818,2 42.818,35.003 29.82,48 "/>
<polygon opacity="0.1" enable-background="new    " points="8.181,47 8.181,3 41.818,3 41.818,34.589 29.407,47 "/>
<polygon opacity="0.2" enable-background="new    " points="7.181,46 7.181,2 40.818,2 40.818,33.589 28.408,46 "/>
<polygon fill="#01579B" points="8.143,45 8.143,3 39.857,3 39.857,33.174 28.004,45 "/>
<g>
	<g>
		<g>
			<g>
				
					<linearGradient id="SVGID_1_" gradientUnits="userSpaceOnUse" x1="107.1982" y1="-579.3003" x2="107.1982" y2="-538.3008" gradientTransform="matrix(1 0 0 -1 -83.2002 -534.8008)">
					<stop  offset="0" style="stop-color:#2196F3"/>
					<stop  offset="0.5828" style="stop-color:#3DBAE8"/>
					<stop  offset="1" style="stop-color:#4DD0E1"/>
				</linearGradient>
				<polygon fill="url(#SVGID_1_)" points="8.639,44.5 8.639,3.5 39.356,3.5 39.356,32.969 27.825,44.5 				"/>
			</g>
			<polygon fill="#01579B" fill-opacity="0.39" points="39.356,32.969 39.356,32.473 27.192,32.473 27.192,44.5 27.825,44.5 			"/>
			<path fill="#FFFFFF" fill-opacity="0.3922" d="M27.81,32.969l11.55,0.016L27.825,44.5L27.81,32.969z"/>
		</g>
		<g>
			<circle opacity="0.8" fill="#FFFFFF" enable-background="new    " cx="29.448" cy="19.986" r="2.171"/>
			<path opacity="0.8" fill="#FFFFFF" enable-background="new    " d="M13.322,15.459v14.007h21.355V15.459H13.322z M33.138,16.996
				V27.93l0,0l-4.954-3.519l-3.54,2.167l-4.54-5.482l-5.246,6.834V16.996H33.138z"/>
		</g>
	</g>
	<g>
		<rect x="8.633" y="3.5" opacity="0.8" fill="#FFFFFF" enable-background="new    " width="30.734" height="7.858"/>
		<g enable-background="new    ">
			<path fill="#0288D1" d="M16.563,4.322h1.449v6.125h-1.449V4.322z"/>
			<path fill="#0288D1" d="M22.44,10.571c-1.049,0-1.847-0.277-2.396-0.832c-0.551-0.554-0.822-1.34-0.822-2.359
				c0-0.506,0.082-0.958,0.251-1.356c0.165-0.398,0.395-0.734,0.688-1.008c0.291-0.273,0.638-0.482,1.041-0.623
				c0.403-0.142,0.841-0.212,1.313-0.212c0.271,0,0.516,0.02,0.74,0.058c0.225,0.039,0.422,0.083,0.587,0.133
				c0.166,0.049,0.31,0.102,0.417,0.155c0.111,0.052,0.191,0.093,0.245,0.123l-0.422,1.115c-0.197-0.1-0.427-0.186-0.693-0.256
				C23.128,5.437,22.829,5.4,22.494,5.4c-0.222,0-0.44,0.036-0.654,0.107c-0.216,0.071-0.403,0.184-0.568,0.339
				c-0.166,0.156-0.297,0.359-0.396,0.606s-0.149,0.549-0.149,0.901c0,0.283,0.032,0.547,0.099,0.792
				c0.067,0.244,0.171,0.455,0.318,0.633c0.144,0.176,0.336,0.316,0.571,0.419c0.234,0.103,0.521,0.155,0.854,0.155
				c0.213,0,0.399-0.012,0.57-0.036c0.165-0.022,0.314-0.051,0.442-0.083c0.134-0.034,0.246-0.069,0.348-0.111
				c0.096-0.042,0.187-0.08,0.267-0.115l0.4,1.104c-0.203,0.119-0.491,0.224-0.865,0.319C23.357,10.523,22.931,10.571,22.44,10.571z
				"/>
			<path fill="#0288D1" d="M31.435,7.38c0,0.524-0.08,0.986-0.246,1.384c-0.165,0.398-0.39,0.73-0.672,0.999
				c-0.289,0.268-0.625,0.47-1.021,0.604c-0.395,0.136-0.816,0.204-1.271,0.204c-0.442,0-0.854-0.068-1.249-0.204
				c-0.39-0.135-0.731-0.336-1.02-0.604c-0.294-0.269-0.523-0.601-0.688-0.999c-0.171-0.397-0.251-0.859-0.251-1.384
				s0.085-0.985,0.262-1.383c0.171-0.397,0.405-0.731,0.699-1.003c0.294-0.271,0.635-0.474,1.024-0.609
				c0.385-0.136,0.796-0.204,1.223-0.204c0.438,0,0.854,0.068,1.244,0.204c0.396,0.135,0.731,0.338,1.025,0.609
				c0.293,0.272,0.522,0.606,0.688,1.003C31.349,6.395,31.435,6.855,31.435,7.38z M26.513,7.38c0,0.3,0.042,0.572,0.117,0.813
				c0.08,0.243,0.187,0.45,0.336,0.624c0.145,0.175,0.32,0.308,0.534,0.403c0.208,0.094,0.454,0.142,0.726,0.142
				c0.268,0,0.508-0.048,0.721-0.142c0.214-0.095,0.396-0.228,0.539-0.403c0.145-0.173,0.257-0.38,0.337-0.624
				c0.074-0.24,0.117-0.512,0.117-0.813s-0.043-0.573-0.117-0.817c-0.08-0.244-0.192-0.454-0.337-0.627
				c-0.144-0.173-0.325-0.308-0.539-0.403c-0.213-0.093-0.453-0.142-0.721-0.142c-0.271,0-0.518,0.049-0.726,0.147
				c-0.214,0.097-0.39,0.232-0.534,0.406c-0.149,0.175-0.256,0.383-0.336,0.627C26.555,6.816,26.513,7.086,26.513,7.38z"/>
		</g>
	</g>
</g>
</svg>
