<?xml version="1.0" encoding="utf-8"?>
<!-- Generator: Adobe Illustrator 21.0.0, SVG Export Plug-In . SVG Version: 6.00 Build 0)  -->
<svg version="1.1" id="图层_1" xmlns="http://www.w3.org/2000/svg" xmlns:xlink="http://www.w3.org/1999/xlink" x="0px" y="0px"
	 viewBox="0 0 48 48" style="enable-background:new 0 0 48 48;" xml:space="preserve">
<style type="text/css">
	.st0{opacity:0.2;enable-background:new    ;}
	.st1{opacity:0.08;enable-background:new    ;}
	.st2{opacity:0.1;enable-background:new    ;}
	.st3{fill:url(#SVGID_1_);}
	.st4{fill:#B71C1C;fill-opacity:0.3922;}
	.st5{fill:#FFFFFF;fill-opacity:0.3922;}
	.st6{opacity:0.8;}
	.st7{fill:#FFFFFF;}
	.st8{fill:#B71C1C;}
</style>
<g id="surface1">
	<polygon class="st0" points="7.3,46 7.3,2 40.8,2 40.8,33.6 28.4,46 	"/>
	<polygon class="st1" points="7.3,48 7.3,2 42.8,2 42.8,35 29.8,48 	"/>
	<polygon class="st2" points="8.3,47 8.3,3 41.8,3 41.8,34.6 29.4,47 	"/>
	<g>
		
			<linearGradient id="SVGID_1_" gradientUnits="userSpaceOnUse" x1="232.0005" y1="-2432.9512" x2="232.0005" y2="-2390.9512" gradientTransform="matrix(1 0 0 -1 -208.0005 -2387.9512)">
			<stop  offset="0" style="stop-color:#512DA8"/>
			<stop  offset="8.000000e-03" style="stop-color:#D32F2F"/>
			<stop  offset="0.3041" style="stop-color:#E33932"/>
			<stop  offset="0.6579" style="stop-color:#F04035"/>
			<stop  offset="1" style="stop-color:#F44336"/>
		</linearGradient>
		<path class="st3" d="M27.9,45l11.8-11.8V3H8.3v42H27.9z"/>
		<polygon class="st4" points="27.3,32.5 27.3,45 27.9,45 39.8,33.2 39.8,32.5 		"/>
		<path class="st5" d="M27.9,33.2h11.8L27.9,45V33.2z"/>
		<g class="st6">
			<path class="st7" d="M18.2,20.5c0.7,0,1.4,0.5,2,0.8c1.6,1.1,2.9,2.9,2.7,4.9c0.2-0.4,0.3-1,0.3-1.4c0-1.4-0.8-2.9-1.8-3.9
				c-0.3-0.3-0.7-0.7-1.1-0.9l4.8-5.7l1.2-1.4c0.1-0.1,0.4-0.3,0.3-0.5c-0.1-0.1-0.3-0.2-0.5-0.3C26,12,25.7,11.9,25.5,12
				c-0.2,0.1-0.3,0.3-0.4,0.4l-0.9,1L20,18.3l-1.2,1.4C18.6,20,18.3,20.3,18.2,20.5z"/>
			<path class="st7" d="M15.4,22.2c1.7-1.8,3.1-3.7,4.7-5.6l2-2.4c0.5-0.5,1-1.1,1.4-1.7c-0.2-0.1-0.8-0.1-1,0S22,13,21.9,13.2
				l-1.1,1.3c-0.2,0.2-0.4,0.5-0.6,0.6c-0.3,0.2-0.9,0.1-1.3,0.1l-1.3,0.1c-1,0.1-2.2,0.1-2.7,1.2c-0.4,0.9-0.3,2.1-0.4,3
				c-0.1,2-0.1,4,0,5.9c0.1,0.8,0,1.9,0.4,2.7c0.4,0.7,1.2,0.9,2,1c1.5,0.1,3.3,0.1,4.5-0.9c1.4-1.2,1.2-3.4-0.1-4.7
				C19.9,22.2,17.3,21.6,15.4,22.2z"/>
			<path class="st7" d="M20.4,29.4c0.3,0.1,0.7,0.1,1,0.1h1.9c2.4,0,4.7-0.1,7-0.3c1.1-0.1,2.4-0.1,2.8-1.3c0.3-0.8,0.2-1.8,0.3-2.6
				c0.1-1.9,0.2-3.9,0-5.8c-0.1-0.9,0-2-0.4-2.9c-0.6-1.3-2.4-1.2-3.6-1.2c-0.3,0-0.8-0.2-1.1-0.1c-0.2,0.1-0.3,0.6-0.4,0.8
				l-1.1,2.3c-1.3,2.8-2.4,5.6-3.8,8.3C22.6,27.8,21.7,29.1,20.4,29.4z"/>
		</g>
		<g>
			<path class="st8" d="M39.3,3.5V33L27.7,44.5h-9h-10v-41H39.3 M39.8,3H8.3v42h10.5H28l11.8-11.8V3L39.8,3z"/>
		</g>
	</g>
</g>
</svg>
