<?xml version="1.0" encoding="utf-8"?>
<!-- Generator: Adobe Illustrator 16.0.0, SVG Export Plug-In . SVG Version: 6.00 Build 0)  -->
<!DOCTYPE svg PUBLIC "-//W3C//DTD SVG 1.1//EN" "http://www.w3.org/Graphics/SVG/1.1/DTD/svg11.dtd">
<svg version="1.1" id="图层_1" xmlns="http://www.w3.org/2000/svg" xmlns:xlink="http://www.w3.org/1999/xlink" x="0px" y="0px"
	 width="48px" height="48px" viewBox="0 0 48 48" enable-background="new 0 0 48 48" xml:space="preserve">
<polygon opacity="0.06" enable-background="new    " points="7.181,48 7.181,2 42.818,2 42.818,35.003 29.82,48 "/>
<polygon opacity="0.1" enable-background="new    " points="8.181,47 8.181,3 41.818,3 41.818,34.589 29.407,47 "/>
<polygon opacity="0.2" enable-background="new    " points="7.181,46 7.181,2 40.818,2 40.818,33.589 28.408,46 "/>
<polygon fill="#3E2723" points="8.143,45 8.143,3 39.857,3 39.857,33.175 28.004,45 "/>
<g>
	<g>
		
			<linearGradient id="SVGID_1_" gradientUnits="userSpaceOnUse" x1="65.5996" y1="-119.4004" x2="65.5996" y2="-160.4009" gradientTransform="matrix(1 0 0 -1 -41.6001 -115.9004)">
			<stop  offset="0" style="stop-color:#785548"/>
			<stop  offset="1" style="stop-color:#9F9E9F"/>
		</linearGradient>
		<polygon fill="url(#SVGID_1_)" points="8.641,44.5 8.641,3.5 39.359,3.5 39.359,32.953 27.941,44.5 		"/>
		<polygon fill="#795548" fill-opacity="0.7" points="39.359,32.969 39.359,32.473 27.199,32.473 27.199,44.5 27.829,44.5 		"/>
		<path opacity="0.39" fill="#FFFFFF" enable-background="new    " d="M27.813,32.969l11.547,0.016L27.829,44.5L27.813,32.969z"/>
	</g>
	<path fill="#FFFFFF" d="M19.617,11.404h-1.039v13.315h-0.787V11.404h-1.033v13.315h-0.785V11.404h-1.036v13.315H14.15V11.404
		h-1.034v13.315h-0.271v5.64h7.127v-5.64h-0.355V11.404z M18.934,28.719h-5.056v-3.27h5.056V28.719z"/>
	<g>
		<rect x="8.634" y="3.5" opacity="0.8" fill="#FFFFFF" enable-background="new    " width="30.731" height="7.858"/>
		<g enable-background="new    ">
			<path fill="#5D4037" d="M20.595,4.368v1.176h-1.944v4.949H17.2V5.543h-1.945V4.368H20.595z"/>
			<path fill="#5D4037" d="M25.085,10.492c-0.069-0.212-0.144-0.431-0.229-0.655c-0.08-0.224-0.166-0.449-0.246-0.67H22.09
				c-0.08,0.223-0.16,0.447-0.246,0.671c-0.08,0.224-0.155,0.443-0.225,0.654h-1.508c0.243-0.659,0.472-1.269,0.691-1.83
				c0.216-0.56,0.427-1.086,0.635-1.582c0.208-0.496,0.417-0.965,0.619-1.41s0.411-0.879,0.63-1.304h1.372
				c0.213,0.424,0.422,0.859,0.629,1.304c0.203,0.444,0.412,0.914,0.619,1.41c0.209,0.495,0.422,1.022,0.641,1.582
				c0.22,0.561,0.449,1.17,0.695,1.83H25.085z M23.345,5.755c-0.032,0.088-0.08,0.209-0.144,0.363
				c-0.059,0.153-0.134,0.33-0.214,0.53c-0.08,0.202-0.166,0.422-0.267,0.663c-0.096,0.242-0.198,0.494-0.299,0.76h1.842
				c-0.096-0.266-0.192-0.52-0.283-0.762c-0.096-0.242-0.182-0.463-0.267-0.664c-0.08-0.201-0.155-0.377-0.219-0.531
				C23.436,5.962,23.382,5.842,23.345,5.755z"/>
			<path fill="#5D4037" d="M29.355,4.297c0.967,0,1.709,0.164,2.227,0.491c0.513,0.327,0.769,0.835,0.769,1.524
				c0,0.43-0.101,0.779-0.31,1.048c-0.208,0.268-0.507,0.478-0.896,0.631c0.128,0.153,0.267,0.328,0.405,0.526
				c0.145,0.197,0.288,0.403,0.427,0.619c0.139,0.215,0.273,0.438,0.406,0.671c0.128,0.232,0.251,0.46,0.363,0.685h-1.623
				c-0.123-0.2-0.24-0.403-0.363-0.61c-0.117-0.206-0.246-0.406-0.373-0.601c-0.129-0.195-0.252-0.379-0.379-0.553
				c-0.123-0.173-0.246-0.331-0.369-0.472h-0.721v2.235h-1.447V4.456c0.315-0.059,0.641-0.1,0.978-0.123
				C28.79,4.309,29.089,4.297,29.355,4.297z M29.441,5.473c-0.107,0-0.203,0.002-0.283,0.009c-0.086,0.005-0.166,0.011-0.24,0.018
				v1.662h0.411c0.544,0,0.935-0.065,1.175-0.195c0.234-0.129,0.352-0.351,0.352-0.663c0-0.3-0.122-0.514-0.357-0.641
				C30.258,5.535,29.906,5.473,29.441,5.473z"/>
		</g>
	</g>
</g>
</svg>
