<?xml version="1.0" encoding="utf-8"?>
<!-- Generator: Adobe Illustrator 21.0.0, SVG Export Plug-In . SVG Version: 6.00 Build 0)  -->
<svg version="1.1" id="图层_1" xmlns="http://www.w3.org/2000/svg" xmlns:xlink="http://www.w3.org/1999/xlink" x="0px" y="0px"
	 viewBox="0 0 48 48" style="enable-background:new 0 0 48 48;" xml:space="preserve">
<style type="text/css">
	.st0{opacity:0.2;enable-background:new    ;}
	.st1{opacity:0.08;enable-background:new    ;}
	.st2{opacity:0.1;enable-background:new    ;}
	.st3{fill:#0D47A1;}
	.st4{fill:url(#SVGID_1_);}
	.st5{opacity:0.8;}
	.st6{opacity:0.8;fill:#FFFFFF;enable-background:new    ;}
	.st7{fill:#FFFFFF;}
	.st8{enable-background:new    ;}
	.st9{fill:#236FB7;}
</style>
<rect x="7.1" y="2" class="st0" width="33.7" height="44"/>
<rect x="7.1" y="2" class="st1" width="35.7" height="46"/>
<rect x="8.1" y="3" class="st2" width="33.7" height="44"/>
<rect x="8.1" y="3" class="st3" width="31.7" height="42"/>
<g>
	
		<linearGradient id="SVGID_1_" gradientUnits="userSpaceOnUse" x1="23.95" y1="745.5" x2="23.95" y2="786.5" gradientTransform="matrix(1 0 0 1 0 -742)">
		<stop  offset="0" style="stop-color:#64B5F6"/>
		<stop  offset="1" style="stop-color:#3F51B5"/>
	</linearGradient>
	<rect x="8.6" y="3.5" class="st4" width="30.7" height="41"/>
	<g class="st5">
		<rect x="12.6" y="19.7" class="st6" width="22.8" height="1.1"/>
		<rect x="12.6" y="16.2" class="st6" width="22.8" height="1.1"/>
		<rect x="23.5" y="23" class="st6" width="11.9" height="11.9"/>
		<g class="st5">
			<rect x="12.6" y="23.2" class="st7" width="9.9" height="1.1"/>
			<rect x="12.6" y="26.8" class="st7" width="9.9" height="1.1"/>
			<rect x="12.6" y="30.3" class="st7" width="9.9" height="1.1"/>
			<rect x="12.6" y="33.8" class="st7" width="9.9" height="1.1"/>
		</g>
	</g>
	<g>
		<rect x="8.6" y="3.5" class="st6" width="30.7" height="7.9"/>
		<g class="st8">
			<path class="st9" d="M21.3,7.4c0,0.5-0.1,1-0.2,1.4s-0.4,0.7-0.7,1c-0.3,0.3-0.6,0.5-1,0.6s-0.8,0.2-1.3,0.2
				c-0.4,0-0.9-0.1-1.2-0.2c-0.4-0.1-0.7-0.3-1-0.6c-0.3-0.3-0.5-0.6-0.7-1S14.9,8,14.9,7.4c0-0.5,0.1-1,0.3-1.4s0.4-0.7,0.7-1
				c0.3-0.3,0.6-0.5,1-0.6s0.8-0.2,1.2-0.2c0.4,0,0.9,0.1,1.2,0.2c0.4,0.1,0.7,0.3,1,0.6c0.3,0.3,0.5,0.6,0.7,1
				C21.3,6.4,21.3,6.9,21.3,7.4z M16.4,7.4c0,0.3,0,0.6,0.1,0.8s0.2,0.4,0.3,0.6C17,9,17.2,9.2,17.4,9.3c0.2,0.1,0.5,0.1,0.7,0.1
				c0.3,0,0.5,0,0.7-0.1s0.4-0.2,0.5-0.4s0.3-0.4,0.3-0.6c0.1-0.2,0.1-0.5,0.1-0.8s0-0.6-0.1-0.8c-0.1-0.2-0.2-0.5-0.3-0.6
				c-0.1-0.2-0.3-0.3-0.5-0.4s-0.5-0.1-0.7-0.1c-0.3,0-0.5,0-0.7,0.1c-0.2,0-0.4,0.1-0.5,0.3s-0.3,0.4-0.3,0.6
				C16.5,6.9,16.4,7.1,16.4,7.4z"/>
			<path class="st9" d="M27.1,4.4v1.2h-1.9v5h-1.5v-5h-1.9V4.4H27.1z"/>
			<path class="st9" d="M33.1,4.4v1.2h-1.9v5h-1.5v-5h-1.9V4.4H33.1z"/>
		</g>
	</g>
</g>
</svg>
