<?xml version="1.0" encoding="utf-8"?>
<!-- Generator: Adobe Illustrator 16.0.0, SVG Export Plug-In . SVG Version: 6.00 Build 0)  -->
<!DOCTYPE svg PUBLIC "-//W3C//DTD SVG 1.1//EN" "http://www.w3.org/Graphics/SVG/1.1/DTD/svg11.dtd">
<svg version="1.1" id="图层_1" xmlns="http://www.w3.org/2000/svg" xmlns:xlink="http://www.w3.org/1999/xlink" x="0px" y="0px"
	 width="48px" height="48px" viewBox="0 0 48 48" enable-background="new 0 0 48 48" xml:space="preserve">
<polygon opacity="0.06" enable-background="new    " points="7.181,48 7.181,2 42.818,2 42.818,35.003 29.82,48 "/>
<polygon opacity="0.1" enable-background="new    " points="8.181,47 8.181,3 41.818,3 41.818,34.589 29.407,47 "/>
<polygon opacity="0.2" enable-background="new    " points="7.181,46 7.181,2 40.818,2 40.818,33.589 28.408,46 "/>
<polygon fill="#3E2723" points="8.143,45 8.143,3 39.857,3 39.857,33.175 28.004,45 "/>
<g>
	<g>
		
			<linearGradient id="SVGID_1_" gradientUnits="userSpaceOnUse" x1="65.5996" y1="-119.4004" x2="65.5996" y2="-160.4009" gradientTransform="matrix(1 0 0 -1 -41.6001 -115.9004)">
			<stop  offset="0" style="stop-color:#785548"/>
			<stop  offset="1" style="stop-color:#9F9E9F"/>
		</linearGradient>
		<polygon fill="url(#SVGID_1_)" points="8.64,44.5 8.64,3.5 39.359,3.5 39.359,32.953 27.941,44.5 		"/>
		<polygon fill="#795548" fill-opacity="0.7" points="39.359,32.969 39.359,32.473 27.197,32.473 27.197,44.5 27.828,44.5 		"/>
		<path opacity="0.39" fill="#FFFFFF" enable-background="new    " d="M27.812,32.969l11.548,0.016L27.828,44.5L27.812,32.969z"/>
	</g>
	<path fill="#FFFFFF" d="M19.617,11.404h-1.039v13.314H17.79V11.404h-1.031v13.314h-0.786V11.404h-1.035v13.314H14.15V11.404h-1.035
		v13.314h-0.271v5.641h7.127v-5.641h-0.354V11.404z M18.934,28.719h-5.056v-3.27h5.056V28.719z"/>
	<g>
		<rect x="8.635" y="3.5" opacity="0.8" fill="#FFFFFF" enable-background="new    " width="30.73" height="7.858"/>
		<g enable-background="new    ">
			<path fill="#5D4037" d="M20.309,10.493c-0.068-0.213-0.146-0.432-0.229-0.656c-0.084-0.224-0.166-0.448-0.246-0.67h-2.521
				c-0.08,0.223-0.162,0.447-0.242,0.672c-0.082,0.224-0.158,0.442-0.229,0.654h-1.506c0.24-0.66,0.473-1.27,0.688-1.831
				c0.219-0.559,0.433-1.086,0.641-1.582c0.208-0.495,0.414-0.965,0.614-1.409c0.204-0.444,0.414-0.88,0.631-1.304h1.376
				c0.212,0.424,0.419,0.86,0.625,1.304c0.204,0.444,0.414,0.914,0.622,1.409c0.208,0.496,0.421,1.023,0.641,1.582
				c0.219,0.561,0.448,1.171,0.69,1.831H20.309z M18.568,5.755c-0.034,0.088-0.08,0.21-0.143,0.363
				c-0.061,0.154-0.133,0.33-0.211,0.53c-0.08,0.201-0.169,0.421-0.267,0.663c-0.099,0.242-0.2,0.494-0.301,0.76h1.844
				c-0.097-0.266-0.194-0.52-0.288-0.762c-0.09-0.242-0.179-0.463-0.261-0.664c-0.086-0.202-0.158-0.377-0.219-0.531
				C18.658,5.962,18.606,5.842,18.568,5.755z"/>
			<path fill="#5D4037" d="M24.58,4.297c0.967,0,1.708,0.164,2.223,0.491c0.515,0.327,0.771,0.835,0.771,1.524
				c0,0.43-0.101,0.779-0.311,1.047c-0.207,0.268-0.507,0.478-0.896,0.631c0.128,0.153,0.265,0.328,0.405,0.526
				c0.144,0.198,0.287,0.402,0.428,0.619c0.139,0.216,0.272,0.438,0.402,0.671c0.131,0.232,0.252,0.46,0.364,0.686h-1.624
				c-0.121-0.2-0.236-0.403-0.361-0.61c-0.119-0.206-0.244-0.406-0.373-0.601c-0.128-0.195-0.25-0.379-0.378-0.553
				c-0.124-0.174-0.245-0.331-0.372-0.472h-0.718v2.236h-1.449V4.455c0.318-0.058,0.645-0.1,0.98-0.122
				C24.011,4.309,24.313,4.297,24.58,4.297z M24.666,5.472c-0.107,0-0.205,0.003-0.285,0.01c-0.084,0.006-0.164,0.01-0.24,0.017
				v1.662h0.412c0.545,0,0.935-0.065,1.173-0.194c0.234-0.13,0.354-0.351,0.354-0.664c0-0.3-0.124-0.514-0.36-0.641
				C25.481,5.535,25.129,5.472,24.666,5.472z"/>
			<path fill="#5D4037" d="M32.662,8.433c0,0.3-0.035,0.583-0.107,0.849c-0.068,0.264-0.192,0.497-0.369,0.694
				c-0.178,0.197-0.414,0.354-0.717,0.468c-0.302,0.115-0.682,0.173-1.139,0.173c-0.424,0-0.785-0.05-1.091-0.147
				c-0.304-0.096-0.555-0.21-0.751-0.339l0.482-1.071c0.18,0.1,0.371,0.19,0.576,0.266s0.43,0.114,0.67,0.114
				c0.354,0,0.609-0.082,0.764-0.247c0.154-0.165,0.232-0.441,0.232-0.832V4.368h1.449V8.433z"/>
		</g>
	</g>
</g>
</svg>
