<?xml version="1.0" encoding="utf-8"?>
<!-- Generator: Adobe Illustrator 16.0.0, SVG Export Plug-In . SVG Version: 6.00 Build 0)  -->
<!DOCTYPE svg PUBLIC "-//W3C//DTD SVG 1.1//EN" "http://www.w3.org/Graphics/SVG/1.1/DTD/svg11.dtd">
<svg version="1.1" id="图层_1" xmlns="http://www.w3.org/2000/svg" xmlns:xlink="http://www.w3.org/1999/xlink" x="0px" y="0px"
	 width="48px" height="48px" viewBox="0 0 48 48" enable-background="new 0 0 48 48" xml:space="preserve">
<polygon opacity="0.08" points="7.181,48 7.181,2 42.819,2 42.819,35.003 29.821,48 "/>
<polygon opacity="0.1" points="8.181,47 8.181,3 41.819,3 41.819,34.589 29.407,47 "/>
<polygon opacity="0.1" points="8.181,47 8.181,3 41.819,3 41.819,34.589 29.407,47 "/>
<polygon opacity="0.2" points="7.181,46 7.181,2 40.819,2 40.819,33.589 28.407,46 "/>
<polygon fill="#2D2183" points="8.181,45 8.181,3 39.819,3 39.819,33.175 27.993,45 "/>
<g>
	<g>
		
			<linearGradient id="SVGID_1_" gradientUnits="userSpaceOnUse" x1="310.6006" y1="-404.3999" x2="310.6006" y2="-363.3999" gradientTransform="matrix(1 0 0 -1 -286.5996 -359.9004)">
			<stop  offset="0" style="stop-color:#4A3591"/>
			<stop  offset="0.008" style="stop-color:#4C3591"/>
			<stop  offset="0.1976" style="stop-color:#6A4498"/>
			<stop  offset="0.4086" style="stop-color:#82529E"/>
			<stop  offset="0.6159" style="stop-color:#965EA3"/>
			<stop  offset="0.8158" style="stop-color:#A165A7"/>
			<stop  offset="1" style="stop-color:#A567A8"/>
		</linearGradient>
		<polygon fill="url(#SVGID_1_)" points="8.642,44.5 8.642,3.5 39.358,3.5 39.358,32.969 27.826,44.5 		"/>
	</g>
	<polygon fill="#5A4096" fill-opacity="0.3922" points="39.358,32.969 39.358,32.474 27.194,32.474 27.194,44.5 27.826,44.5 	"/>
	<path fill="#FFFFFF" fill-opacity="0.3922" d="M27.81,32.969l11.549,0.017L27.826,44.5L27.81,32.969z"/>
</g>
<g opacity="0.8">
	<g>
		<rect x="21.403" y="13.818" fill="#FFFFFF" width="13.957" height="1.64"/>
	</g>
	<g>
		<rect x="21.403" y="16.91" fill="#FFFFFF" width="13.957" height="1.64"/>
	</g>
	<g>
		<rect x="21.403" y="20.02" fill="#FFFFFF" width="13.957" height="1.64"/>
	</g>
	<g>
		<rect x="21.403" y="23.282" fill="#FFFFFF" width="13.957" height="1.641"/>
	</g>
	<g>
		<rect x="21.403" y="26.375" fill="#FFFFFF" width="13.957" height="1.64"/>
	</g>
</g>
<path opacity="0.8" fill="#FFFFFF" enable-background="new    " d="M18.465,18.824l-1.913-0.41v-2.375l2.596,0.564v-1.811
	l-3.895-0.837v1.811l0,0v9.396c-0.205-0.052-0.427-0.086-0.667-0.086c-1.076,0-1.947,0.666-1.947,1.486s0.871,1.486,1.947,1.486
	c1.077,0,1.948-0.666,1.948-1.47l0,0v-6.85l1.913,0.41L18.465,18.824L18.465,18.824z"/>
</svg>
