<?xml version="1.0" encoding="utf-8"?>
<!-- Generator: Adobe Illustrator 16.0.0, SVG Export Plug-In . SVG Version: 6.00 Build 0)  -->
<!DOCTYPE svg PUBLIC "-//W3C//DTD SVG 1.1//EN" "http://www.w3.org/Graphics/SVG/1.1/DTD/svg11.dtd">
<svg version="1.1" id="图层_1" xmlns="http://www.w3.org/2000/svg" xmlns:xlink="http://www.w3.org/1999/xlink" x="0px" y="0px"
	 width="48px" height="48px" viewBox="0 0 48 48" enable-background="new 0 0 48 48" xml:space="preserve">
<polygon opacity="0.06" enable-background="new    " points="7.181,48 7.181,2 42.818,2 42.818,35.003 29.82,48 "/>
<polygon opacity="0.1" enable-background="new    " points="8.181,47 8.181,3 41.818,3 41.818,34.589 29.407,47 "/>
<polygon opacity="0.2" enable-background="new    " points="7.181,46 7.181,2 40.818,2 40.818,33.589 28.408,46 "/>
<polygon fill="#3E2723" points="8.143,45 8.143,3 39.857,3 39.857,33.175 28.004,45 "/>
<g>
	<g>
		
			<linearGradient id="SVGID_1_" gradientUnits="userSpaceOnUse" x1="65.5996" y1="-119.4004" x2="65.5996" y2="-160.4009" gradientTransform="matrix(1 0 0 -1 -41.6001 -115.9004)">
			<stop  offset="0" style="stop-color:#785548"/>
			<stop  offset="1" style="stop-color:#9F9E9F"/>
		</linearGradient>
		<polygon fill="url(#SVGID_1_)" points="8.641,44.5 8.641,3.5 39.359,3.5 39.359,32.953 27.941,44.5 		"/>
		<polygon fill="#795548" fill-opacity="0.7" points="39.359,32.969 39.359,32.473 27.199,32.473 27.199,44.5 27.829,44.5 		"/>
		<path opacity="0.39" fill="#FFFFFF" enable-background="new    " d="M27.813,32.969l11.547,0.016L27.829,44.5L27.813,32.969z"/>
	</g>
	<path fill="#FFFFFF" d="M19.617,11.404h-1.039v13.315h-0.787V11.404h-1.033v13.315h-0.785V11.404h-1.036v13.315H14.15V11.404
		h-1.034v13.315h-0.271v5.64h7.127v-5.64h-0.355V11.404z M18.934,28.719h-5.056v-3.27h5.056V28.719z"/>
	<g>
		<rect x="8.634" y="3.5" opacity="0.8" fill="#FFFFFF" enable-background="new    " width="30.731" height="7.858"/>
		<g enable-background="new    ">
			<path fill="#5D4037" d="M18.038,10.616c-1.049,0-1.847-0.277-2.397-0.833c-0.547-0.553-0.822-1.339-0.822-2.358
				c0-0.506,0.083-0.958,0.251-1.356c0.168-0.398,0.398-0.734,0.689-1.008S16.396,4.58,16.8,4.438
				c0.403-0.142,0.841-0.212,1.313-0.212c0.272,0,0.521,0.02,0.742,0.057c0.224,0.039,0.419,0.083,0.587,0.134
				c0.168,0.049,0.307,0.102,0.419,0.155c0.112,0.052,0.192,0.093,0.24,0.123l-0.417,1.115c-0.2-0.1-0.43-0.186-0.694-0.256
				s-0.563-0.107-0.897-0.107c-0.224,0-0.443,0.036-0.657,0.107c-0.213,0.071-0.403,0.184-0.568,0.339
				c-0.163,0.156-0.296,0.359-0.395,0.606c-0.099,0.247-0.147,0.548-0.147,0.901c0,0.283,0.032,0.547,0.096,0.792
				c0.067,0.244,0.171,0.455,0.317,0.633c0.145,0.176,0.336,0.315,0.571,0.419s0.521,0.155,0.857,0.155
				c0.211,0,0.398-0.013,0.566-0.035c0.168-0.024,0.318-0.054,0.446-0.085c0.131-0.032,0.246-0.069,0.344-0.109
				c0.102-0.04,0.189-0.08,0.27-0.115l0.4,1.105c-0.203,0.117-0.491,0.224-0.865,0.317C18.959,10.568,18.527,10.616,18.038,10.616z"
				/>
			<path fill="#5D4037" d="M25.713,10.494c-0.075-0.214-0.15-0.433-0.232-0.657c-0.083-0.224-0.166-0.449-0.246-0.67h-2.52
				c-0.08,0.221-0.163,0.446-0.243,0.67c-0.083,0.224-0.157,0.443-0.229,0.657h-1.505c0.24-0.662,0.473-1.271,0.688-1.831
				c0.219-0.56,0.433-1.086,0.641-1.582c0.208-0.496,0.414-0.965,0.614-1.41c0.203-0.444,0.414-0.879,0.63-1.304h1.377
				c0.211,0.424,0.419,0.859,0.625,1.304c0.205,0.444,0.41,0.914,0.621,1.41c0.209,0.495,0.422,1.022,0.639,1.582
				c0.219,0.561,0.448,1.169,0.693,1.831H25.713z M23.969,5.755c-0.035,0.088-0.08,0.209-0.144,0.363
				c-0.062,0.153-0.133,0.33-0.211,0.53c-0.08,0.202-0.171,0.422-0.267,0.663c-0.099,0.242-0.2,0.494-0.301,0.76h1.845
				c-0.1-0.266-0.195-0.52-0.289-0.762c-0.09-0.242-0.179-0.463-0.261-0.664c-0.085-0.201-0.158-0.377-0.219-0.531
				C24.058,5.962,24.007,5.842,23.969,5.755z"/>
			<path fill="#5D4037" d="M30.242,10.574c-0.355,0-0.707-0.011-1.055-0.032c-0.352-0.021-0.715-0.069-1.094-0.147V4.456
				c0.299-0.052,0.624-0.092,0.977-0.119c0.353-0.027,0.684-0.04,0.984-0.04c0.409,0,0.788,0.028,1.13,0.084
				c0.347,0.056,0.641,0.152,0.892,0.287c0.245,0.136,0.439,0.313,0.579,0.535c0.142,0.221,0.211,0.494,0.211,0.817
				c0,0.49-0.251,0.875-0.745,1.158c0.408,0.147,0.686,0.347,0.836,0.601c0.149,0.253,0.225,0.539,0.225,0.857
				c0,0.643-0.246,1.126-0.74,1.449C31.947,10.408,31.217,10.574,30.242,10.574z M29.508,6.771h0.705
				c0.448,0,0.769-0.053,0.961-0.163c0.191-0.109,0.288-0.284,0.288-0.526c0-0.248-0.102-0.422-0.299-0.522
				c-0.198-0.1-0.491-0.149-0.876-0.149c-0.123,0-0.256,0.001-0.4,0.004c-0.141,0.003-0.267,0.011-0.379,0.021V6.771z M29.508,7.823
				v1.582c0.104,0.011,0.219,0.021,0.342,0.027c0.125,0.005,0.262,0.011,0.411,0.011c0.433,0,0.784-0.059,1.052-0.176
				c0.268-0.12,0.4-0.338,0.4-0.655c0-0.283-0.112-0.484-0.336-0.606c-0.225-0.12-0.545-0.182-0.959-0.182H29.508z"/>
		</g>
	</g>
</g>
</svg>
