<?xml version="1.0" encoding="utf-8"?>
<!-- Generator: Adobe Illustrator 17.1.0, SVG Export Plug-In . SVG Version: 6.00 Build 0)  -->
<!DOCTYPE svg PUBLIC "-//W3C//DTD SVG 1.1//EN" "http://www.w3.org/Graphics/SVG/1.1/DTD/svg11.dtd">
<svg version="1.1"
	 id="svg2" inkscape:version="0.48.4 r9939" sodipodi:docname="computer.svg" xmlns:dc="http://purl.org/dc/elements/1.1/" xmlns:rdf="http://www.w3.org/1999/02/22-rdf-syntax-ns#" xmlns:sodipodi="http://sodipodi.sourceforge.net/DTD/sodipodi-0.dtd" xmlns:cc="http://creativecommons.org/ns#" xmlns:svg="http://www.w3.org/2000/svg" xmlns:inkscape="http://www.inkscape.org/namespaces/inkscape"
	 xmlns="http://www.w3.org/2000/svg" xmlns:xlink="http://www.w3.org/1999/xlink" x="0px" y="0px" width="48px" height="48px"
	 viewBox="1015 0 48 48" enable-background="new 1015 0 48 48" xml:space="preserve">
<polygon opacity="6.000000e-002" enable-background="new    " points="1022.2,48 1022.2,2 1057.8,2 1057.8,35 1044.8,48 "/>
<polygon opacity="0.1" enable-background="new    " points="1023.2,47 1023.2,3 1056.8,3 1056.8,34.6 1044.4,47 "/>
<polygon opacity="0.2" enable-background="new    " points="1022.2,46 1022.2,2 1055.8,2 1055.8,33.6 1043.4,46 "/>
<polygon fill="#0D47A1" points="1023.1,45 1023.1,3 1054.9,3 1054.9,33.2 1043,45 "/>
<g>
	<g>
		<g>
			<g>
				
					<linearGradient id="SVGID_1_" gradientUnits="userSpaceOnUse" x1="1039.0135" y1="467.5" x2="1039.0135" y2="508.5" gradientTransform="matrix(1 0 0 -1 0 512)">
					<stop  offset="0" style="stop-color:#3F51B5"/>
					<stop  offset="1" style="stop-color:#64B5F6"/>
				</linearGradient>
				<polygon fill="url(#SVGID_1_)" points="1023.7,44.5 1023.7,3.5 1054.4,3.5 1054.4,33 1042.8,44.5 				"/>
			</g>
			<polygon fill="#2196F3" fill-opacity="0.7" points="1054.4,33 1054.4,32.5 1042.2,32.5 1042.2,44.5 1042.8,44.5 			"/>
			<path opacity="0.39" fill="#FFFFFF" enable-background="new    " d="M1042.8,33l11.6,0l-11.5,11.5L1042.8,33z"/>
		</g>
	</g>
	<g>
		<rect x="1023.6" y="3.5" opacity="0.8" fill="#FFFFFF" enable-background="new    " width="30.7" height="7.9"/>
	</g>
</g>
<g>
	<polygon opacity="0.8" fill="#FFFFFF" enable-background="new    " points="1032.1,15.3 1037.4,15.3 1037.4,14 1030.9,14 
		1030.9,20.5 1032.1,20.5 	"/>
	<polygon opacity="0.8" fill="#FFFFFF" enable-background="new    " points="1040.6,14 1040.6,15.3 1045.8,15.3 1045.8,20.5 
		1047.1,20.5 1047.1,14 	"/>
	<polygon opacity="0.8" fill="#FFFFFF" enable-background="new    " points="1047.1,23.8 1045.8,23.8 1045.8,29 1040.6,29 
		1040.6,30.2 1047.1,30.2 	"/>
	<polygon opacity="0.8" fill="#FFFFFF" enable-background="new    " points="1032.1,29 1032.1,23.8 1030.9,23.8 1030.9,30.2 
		1037.4,30.2 1037.4,29 	"/>
</g>
<g>
	<g>
		<path fill="#1976D2" d="M1034.8,7.4c0,0.5-0.1,1-0.2,1.4c-0.2,0.4-0.4,0.7-0.6,1c-0.3,0.3-0.6,0.5-1,0.6c-0.4,0.1-0.8,0.2-1.2,0.2
			c-0.4,0-0.8-0.1-1.2-0.2c-0.4-0.1-0.7-0.3-1-0.6c-0.3-0.3-0.5-0.6-0.7-1c-0.2-0.4-0.2-0.9-0.2-1.4c0-0.5,0.1-1,0.2-1.4
			s0.4-0.7,0.7-1c0.3-0.3,0.6-0.5,1-0.6c0.4-0.1,0.8-0.2,1.2-0.2c0.4,0,0.8,0.1,1.2,0.2c0.4,0.1,0.7,0.3,1,0.6
			c0.3,0.3,0.5,0.6,0.7,1S1034.8,6.9,1034.8,7.4z M1030.2,7.4c0,0.3,0,0.6,0.1,0.8c0.1,0.2,0.2,0.4,0.3,0.6c0.1,0.2,0.3,0.3,0.5,0.4
			c0.2,0.1,0.4,0.1,0.7,0.1c0.3,0,0.5,0,0.7-0.1c0.2-0.1,0.4-0.2,0.5-0.4c0.1-0.2,0.2-0.4,0.3-0.6c0.1-0.2,0.1-0.5,0.1-0.8
			c0-0.3,0-0.6-0.1-0.8c-0.1-0.2-0.2-0.5-0.3-0.6c-0.1-0.2-0.3-0.3-0.5-0.4c-0.2-0.1-0.4-0.1-0.7-0.1c-0.3,0-0.5,0-0.7,0.1
			c-0.2,0.1-0.4,0.2-0.5,0.4c-0.1,0.2-0.2,0.4-0.3,0.6C1030.2,6.9,1030.2,7.1,1030.2,7.4z"/>
		<path fill="#1976D2" d="M1041.3,7.4c0,0.5-0.1,1-0.2,1.4s-0.4,0.7-0.7,1c-0.3,0.3-0.7,0.5-1.1,0.6c-0.4,0.1-0.9,0.2-1.5,0.2
			c-0.2,0-0.5,0-0.9,0c-0.3,0-0.7-0.1-1-0.1V4.5c0.3-0.1,0.6-0.1,1-0.1s0.6,0,0.9,0c0.5,0,1,0.1,1.4,0.2c0.4,0.1,0.8,0.3,1.1,0.6
			c0.3,0.3,0.5,0.6,0.7,1S1041.3,6.9,1041.3,7.4z M1037.4,9.4c0.1,0,0.1,0,0.2,0c0.1,0,0.2,0,0.3,0c0.7,0,1.2-0.2,1.5-0.5
			c0.3-0.3,0.5-0.8,0.5-1.4c0-0.6-0.2-1.1-0.5-1.5c-0.3-0.3-0.8-0.5-1.5-0.5c-0.1,0-0.2,0-0.3,0c-0.1,0-0.2,0-0.3,0V9.4z"/>
		<path fill="#1976D2" d="M1044.1,4.4c0.1,0.2,0.2,0.4,0.4,0.7c0.1,0.3,0.3,0.6,0.4,0.9c0.2,0.3,0.3,0.7,0.4,1
			c0.1,0.3,0.3,0.7,0.4,1c0.1-0.3,0.3-0.6,0.4-1c0.1-0.3,0.3-0.7,0.4-1c0.2-0.3,0.3-0.6,0.4-0.9c0.1-0.3,0.3-0.5,0.4-0.7h1.3
			c0.1,0.4,0.1,0.9,0.2,1.4c0,0.5,0.1,1,0.1,1.6c0,0.5,0.1,1.1,0.1,1.6c0,0.5,0.1,1.1,0.1,1.5h-1.3c0-0.6,0-1.2-0.1-1.9
			s-0.1-1.4-0.1-2.1c-0.1,0.2-0.2,0.5-0.4,0.8c-0.1,0.3-0.3,0.6-0.4,0.9c-0.1,0.3-0.2,0.6-0.4,0.9c-0.1,0.3-0.2,0.5-0.3,0.7h-1
			c-0.1-0.2-0.2-0.4-0.3-0.7c-0.1-0.3-0.2-0.6-0.4-0.9c-0.1-0.3-0.3-0.6-0.4-0.9c-0.1-0.3-0.2-0.6-0.4-0.8c-0.1,0.7-0.1,1.4-0.1,2.1
			s-0.1,1.3-0.1,1.9h-1.3c0-0.5,0.1-1,0.1-1.5c0-0.5,0.1-1.1,0.1-1.6c0-0.5,0.1-1.1,0.1-1.6c0.1-0.5,0.1-1,0.2-1.4H1044.1z"/>
	</g>
</g>
</svg>
