<?xml version="1.0" encoding="utf-8"?>
<!-- Generator: Adobe Illustrator 16.0.0, SVG Export Plug-In . SVG Version: 6.00 Build 0)  -->
<!DOCTYPE svg PUBLIC "-//W3C//DTD SVG 1.1//EN" "http://www.w3.org/Graphics/SVG/1.1/DTD/svg11.dtd">
<svg version="1.1" id="图层_1" xmlns="http://www.w3.org/2000/svg" xmlns:xlink="http://www.w3.org/1999/xlink" x="0px" y="0px"
	 width="48px" height="48px" viewBox="0 0 48 48" enable-background="new 0 0 48 48" xml:space="preserve">
<polygon opacity="0.06" enable-background="new    " points="7.181,48 7.181,2 42.818,2 42.818,35.003 29.82,48 "/>
<polygon opacity="0.1" enable-background="new    " points="8.181,47 8.181,3 41.818,3 41.818,34.589 29.407,47 "/>
<polygon opacity="0.2" enable-background="new    " points="7.181,46 7.181,2 40.818,2 40.818,33.589 28.408,46 "/>
<polygon fill="#1B5E20" points="8.143,45 8.143,3 39.857,3 39.857,33.174 28.004,45 "/>
<g>
	<g>
		<g>
			
				<linearGradient id="SVGID_1_" gradientUnits="userSpaceOnUse" x1="65.5996" y1="463.4004" x2="65.5996" y2="422.4004" gradientTransform="matrix(1 0 0 1 -41.6001 -418.9004)">
				<stop  offset="0" style="stop-color:#388E3C"/>
				<stop  offset="0.0757" style="stop-color:#43953E"/>
				<stop  offset="0.3246" style="stop-color:#62A943"/>
				<stop  offset="0.5665" style="stop-color:#79B747"/>
				<stop  offset="0.796" style="stop-color:#86C049"/>
				<stop  offset="1" style="stop-color:#8BC34A"/>
			</linearGradient>
			<polygon fill="url(#SVGID_1_)" points="8.641,44.5 8.641,3.5 39.359,3.5 39.359,32.969 27.829,44.5 			"/>
		</g>
		<polygon fill="#1B5E20" fill-opacity="0.39" points="39.359,32.969 39.359,32.473 27.195,32.473 27.195,44.5 27.829,44.5 		"/>
		<path fill="#FFFFFF" fill-opacity="0.3922" d="M27.81,32.969l11.55,0.016L27.829,44.5L27.81,32.969z"/>
	</g>
	<path opacity="0.8" fill="#FFFFFF" enable-background="new    " d="M24.788,11.051v-0.034h-1.573v0.034H13.065v19.783h21.867
		V11.051H24.788z M14.639,16.926h4.885v3.16h-4.885V16.926z M14.639,21.659h4.885v3.162h-4.885V21.659z M21.146,21.659h12.215v3.162
		H21.146V21.659z M21.146,20.086v-3.16h12.215v3.16H21.146z M33.361,12.639v2.718H21.146v-2.718H33.361z M19.523,12.639v2.718
		h-4.885v-2.718H19.523z M14.639,26.408h4.885v2.837h-4.885V26.408z M21.146,29.245v-2.837h12.215v2.837H21.146z"/>
</g>
</svg>
