<?xml version="1.0" encoding="utf-8"?>
<!-- Generator: Adobe Illustrator 16.0.0, SVG Export Plug-In . SVG Version: 6.00 Build 0)  -->
<!DOCTYPE svg PUBLIC "-//W3C//DTD SVG 1.1//EN" "http://www.w3.org/Graphics/SVG/1.1/DTD/svg11.dtd">
<svg version="1.1" id="图层_1" xmlns="http://www.w3.org/2000/svg" xmlns:xlink="http://www.w3.org/1999/xlink" x="0px" y="0px"
	 width="48px" height="48px" viewBox="0 0 48 48" enable-background="new 0 0 48 48" xml:space="preserve">
<polygon opacity="0.06" enable-background="new    " points="7.181,48 7.181,2 42.818,2 42.818,35.003 29.82,48 "/>
<polygon opacity="0.1" enable-background="new    " points="8.181,47 8.181,3 41.818,3 41.818,34.589 29.407,47 "/>
<polygon opacity="0.2" enable-background="new    " points="7.181,46 7.181,2 40.818,2 40.818,33.589 28.408,46 "/>
<polygon fill="#3E2723" points="8.143,45 8.143,3 39.857,3 39.857,33.175 28.004,45 "/>
<g>
	<g>
		
			<linearGradient id="SVGID_1_" gradientUnits="userSpaceOnUse" x1="65.5996" y1="-119.4004" x2="65.5996" y2="-160.4009" gradientTransform="matrix(1 0 0 -1 -41.6001 -115.9004)">
			<stop  offset="0" style="stop-color:#785548"/>
			<stop  offset="1" style="stop-color:#9F9E9F"/>
		</linearGradient>
		<polygon fill="url(#SVGID_1_)" points="8.641,44.5 8.641,3.5 39.359,3.5 39.359,32.953 27.941,44.5 		"/>
		<polygon fill="#795548" fill-opacity="0.7" points="39.359,32.969 39.359,32.473 27.199,32.473 27.199,44.5 27.829,44.5 		"/>
		<path opacity="0.39" fill="#FFFFFF" enable-background="new    " d="M27.813,32.969l11.547,0.016L27.829,44.5L27.813,32.969z"/>
	</g>
	<path fill="#FFFFFF" d="M19.617,11.404h-1.039v13.315h-0.787V11.404h-1.033v13.315h-0.785V11.404h-1.036v13.315H14.15V11.404
		h-1.034v13.315h-0.271v5.64h7.127v-5.64h-0.355V11.404z M18.934,28.719h-5.056v-3.27h5.056V28.719z"/>
	<g>
		<rect x="8.634" y="3.5" opacity="0.8" fill="#FFFFFF" enable-background="new    " width="30.731" height="7.858"/>
		<g enable-background="new    ">
			<path fill="#5D4037" d="M19.781,10.494c0.037-0.433,0.117-0.881,0.235-1.346c0.118-0.464,0.262-0.921,0.433-1.369
				c0.17-0.447,0.36-0.87,0.571-1.268c0.211-0.397,0.425-0.741,0.641-1.029h-2.8V4.359h4.514v0.955
				c-0.2,0.206-0.417,0.491-0.657,0.856s-0.464,0.78-0.678,1.241c-0.214,0.463-0.4,0.96-0.561,1.49
				c-0.158,0.53-0.256,1.061-0.294,1.592H19.781z"/>
			<path fill="#5D4037" d="M29.038,5.322c-0.197,0.195-0.435,0.447-0.707,0.757c-0.274,0.308-0.556,0.646-0.847,1.012
				c-0.293,0.364-0.582,0.742-0.864,1.13c-0.288,0.39-0.542,0.762-0.764,1.114h3.283v1.159h-5.069V9.671
				c0.173-0.302,0.387-0.635,0.638-1.004c0.25-0.368,0.512-0.739,0.785-1.114c0.271-0.374,0.549-0.735,0.832-1.086
				s0.545-0.665,0.785-0.941h-2.894V4.368h4.82V5.322z"/>
		</g>
	</g>
</g>
</svg>
