<?xml version="1.0" encoding="utf-8"?>
<!-- Generator: Adobe Illustrator 16.0.0, SVG Export Plug-In . SVG Version: 6.00 Build 0)  -->
<!DOCTYPE svg PUBLIC "-//W3C//DTD SVG 1.1//EN" "http://www.w3.org/Graphics/SVG/1.1/DTD/svg11.dtd">
<svg version="1.1" id="图层_1" xmlns="http://www.w3.org/2000/svg" xmlns:xlink="http://www.w3.org/1999/xlink" x="0px" y="0px"
	 width="48px" height="48px" viewBox="0 0 48 48" enable-background="new 0 0 48 48" xml:space="preserve">
<polygon opacity="0.06" enable-background="new    " points="7.181,48 7.181,2 42.818,2 42.818,35.003 29.82,48 "/>
<polygon opacity="0.1" enable-background="new    " points="8.181,47 8.181,3 41.818,3 41.818,34.589 29.407,47 "/>
<polygon opacity="0.2" enable-background="new    " points="7.181,46 7.181,2 40.818,2 40.818,33.589 28.408,46 "/>
<polygon fill="#3E2723" points="8.143,45 8.143,3 39.857,3 39.857,33.175 28.004,45 "/>
<g>
	<g>
		
			<linearGradient id="SVGID_1_" gradientUnits="userSpaceOnUse" x1="65.5996" y1="-119.4004" x2="65.5996" y2="-160.4009" gradientTransform="matrix(1 0 0 -1 -41.6001 -115.9004)">
			<stop  offset="0" style="stop-color:#785548"/>
			<stop  offset="1" style="stop-color:#9F9E9F"/>
		</linearGradient>
		<polygon fill="url(#SVGID_1_)" points="8.641,44.5 8.641,3.5 39.359,3.5 39.359,32.953 27.941,44.5 		"/>
		<polygon fill="#795548" fill-opacity="0.7" points="39.359,32.969 39.359,32.473 27.199,32.473 27.199,44.5 27.829,44.5 		"/>
		<path opacity="0.39" fill="#FFFFFF" enable-background="new    " d="M27.813,32.969l11.547,0.016L27.829,44.5L27.813,32.969z"/>
	</g>
	<path fill="#FFFFFF" d="M19.617,11.404h-1.039v13.315h-0.787V11.404h-1.033v13.315h-0.785V11.404h-1.036v13.315H14.15V11.404
		h-1.034v13.315h-0.271v5.64h7.127v-5.64h-0.355V11.404z M18.934,28.719h-5.056v-3.27h5.056V28.719z"/>
	<g>
		<rect x="8.634" y="3.5" opacity="0.8" fill="#FFFFFF" enable-background="new    " width="30.731" height="7.858"/>
		<g enable-background="new    ">
			<path fill="#5D4037" d="M16.69,9.308v1.184h-4.309V4.368h1.452v4.94H16.69z"/>
			<path fill="#5D4037" d="M22.336,5.322c-0.198,0.195-0.436,0.447-0.708,0.757c-0.275,0.308-0.555,0.646-0.846,1.012
				c-0.293,0.364-0.582,0.742-0.865,1.13c-0.289,0.39-0.542,0.761-0.766,1.114h3.286v1.157h-5.069V9.67
				c0.173-0.3,0.384-0.634,0.635-1.002c0.253-0.368,0.515-0.739,0.788-1.114c0.272-0.374,0.55-0.735,0.833-1.086
				c0.283-0.351,0.545-0.665,0.785-0.941h-2.894V4.368h4.821V5.322z"/>
			<path fill="#5D4037" d="M29.489,7.425c0,0.524-0.083,0.986-0.245,1.384c-0.166,0.398-0.391,0.73-0.676,0.999
				c-0.285,0.268-0.625,0.47-1.02,0.604c-0.393,0.136-0.816,0.204-1.268,0.204c-0.443,0-0.857-0.068-1.25-0.204
				c-0.389-0.135-0.731-0.336-1.022-0.604c-0.291-0.269-0.521-0.601-0.686-0.999C23.152,8.412,23.07,7.95,23.07,7.425
				s0.088-0.985,0.262-1.383c0.173-0.398,0.408-0.731,0.702-1.003c0.294-0.271,0.635-0.474,1.025-0.609
				c0.385-0.136,0.793-0.204,1.223-0.204c0.438,0,0.854,0.068,1.244,0.204c0.392,0.135,0.73,0.338,1.024,0.609
				c0.291,0.272,0.521,0.605,0.688,1.003C29.404,6.44,29.489,6.901,29.489,7.425z M24.567,7.425c0,0.3,0.04,0.572,0.117,0.813
				c0.077,0.243,0.187,0.45,0.337,0.624c0.144,0.175,0.32,0.308,0.533,0.403c0.209,0.094,0.454,0.142,0.727,0.142
				c0.267,0,0.507-0.048,0.721-0.142c0.213-0.095,0.393-0.228,0.539-0.403c0.145-0.174,0.256-0.38,0.334-0.624
				c0.076-0.24,0.117-0.512,0.117-0.813s-0.041-0.573-0.117-0.817c-0.078-0.244-0.189-0.454-0.334-0.627
				c-0.146-0.173-0.326-0.308-0.539-0.403c-0.214-0.094-0.454-0.142-0.721-0.142c-0.272,0-0.518,0.049-0.727,0.147
				c-0.213,0.097-0.39,0.232-0.533,0.406c-0.15,0.175-0.26,0.383-0.337,0.627C24.607,6.862,24.567,7.131,24.567,7.425z"/>
			<path fill="#5D4037" d="M32.634,4.297c0.961,0,1.698,0.162,2.212,0.482c0.516,0.321,0.771,0.847,0.771,1.577
				c0,0.737-0.258,1.268-0.779,1.595c-0.522,0.327-1.265,0.491-2.233,0.491h-0.456v2.05h-1.449V4.456
				c0.316-0.059,0.648-0.1,1.003-0.123C32.057,4.309,32.367,4.297,32.634,4.297z M32.725,5.473c-0.104,0-0.209,0.002-0.31,0.009
				c-0.102,0.005-0.192,0.011-0.267,0.018v1.767h0.456c0.505,0,0.881-0.064,1.134-0.195c0.257-0.129,0.385-0.371,0.385-0.725
				c0-0.171-0.035-0.311-0.102-0.423c-0.064-0.112-0.154-0.203-0.277-0.27c-0.12-0.068-0.268-0.115-0.443-0.142
				C33.131,5.486,32.938,5.473,32.725,5.473z"/>
		</g>
	</g>
</g>
</svg>
