<?xml version="1.0" encoding="utf-8"?>
<!-- Generator: Adobe Illustrator 21.0.0, SVG Export Plug-In . SVG Version: 6.00 Build 0)  -->
<svg version="1.1" id="图层_1" xmlns="http://www.w3.org/2000/svg" xmlns:xlink="http://www.w3.org/1999/xlink" x="0px" y="0px"
	 viewBox="0 0 48 48" style="enable-background:new 0 0 48 48;" xml:space="preserve">
<style type="text/css">
	.st0{opacity:0.06;enable-background:new    ;}
	.st1{opacity:0.1;enable-background:new    ;}
	.st2{opacity:0.2;enable-background:new    ;}
	.st3{fill:#3E2723;}
	.st4{fill:url(#SVGID_1_);}
	.st5{fill:#795548;fill-opacity:0.7;}
	.st6{opacity:0.39;fill:#FFFFFF;enable-background:new    ;}
	.st7{fill:#FFFFFF;}
	.st8{opacity:0.8;fill:#FFFFFF;enable-background:new    ;}
	.st9{enable-background:new    ;}
	.st10{fill:#5D4037;}
</style>
<polygon class="st0" points="7.2,48 7.2,2 42.8,2 42.8,35 29.8,48 "/>
<polygon class="st1" points="8.2,47 8.2,3 41.8,3 41.8,34.6 29.4,47 "/>
<polygon class="st2" points="7.2,46 7.2,2 40.8,2 40.8,33.6 28.4,46 "/>
<polygon class="st3" points="8.1,45 8.1,3 39.9,3 39.9,33.2 28,45 "/>
<g>
	<g>
		
			<linearGradient id="SVGID_1_" gradientUnits="userSpaceOnUse" x1="65.6001" y1="-837.4004" x2="65.6001" y2="-878.4004" gradientTransform="matrix(1 0 0 -1 -41.6001 -833.9004)">
			<stop  offset="0" style="stop-color:#785548"/>
			<stop  offset="1" style="stop-color:#9F9E9F"/>
		</linearGradient>
		<polygon class="st4" points="8.6,44.5 8.6,3.5 39.4,3.5 39.4,33 27.9,44.5 		"/>
		<polygon class="st5" points="39.4,33 39.4,32.5 27.2,32.5 27.2,44.5 27.8,44.5 		"/>
		<path class="st6" d="M27.8,33h11.5L27.8,44.5V33z"/>
	</g>
	<path class="st7" d="M19.6,11.4h-1v13.3h-0.8V11.4h-1v13.3H16V11.4h-1v13.3h-0.8V11.4h-1v13.3h-0.3v5.6H20v-5.6h-0.4V11.4z
		 M18.9,28.7h-5.1v-3.3h5.1V28.7z"/>
	<g>
		<rect x="8.6" y="3.5" class="st8" width="30.7" height="7.9"/>
		<g class="st9">
			<path class="st10" d="M16.1,9.4c0.2,0,0.4,0,0.5,0s0.2-0.1,0.3-0.1C17,9.2,17,9.1,17.1,9.1c0-0.1,0-0.2,0-0.3
				c0-0.2-0.1-0.4-0.3-0.5c-0.2-0.1-0.5-0.3-1-0.4c-0.2-0.1-0.4-0.2-0.6-0.2c-0.2-0.1-0.4-0.2-0.6-0.3c-0.2-0.1-0.3-0.3-0.4-0.5
				C14.1,6.6,14,6.3,14,6.1c0-0.3,0.1-0.5,0.2-0.8c0.1-0.2,0.3-0.4,0.5-0.6s0.5-0.3,0.7-0.4s0.6-0.1,1-0.1s0.8,0,1.1,0.1
				c0.3,0.1,0.6,0.2,0.8,0.3l-0.4,1.1c-0.2-0.1-0.4-0.2-0.6-0.2c-0.2-0.1-0.5-0.1-0.8-0.1s-0.6,0-0.8,0.1c-0.1,0.1-0.2,0.2-0.2,0.4
				c0,0.1,0,0.2,0.1,0.3c0.1,0.1,0.1,0.1,0.2,0.2c0.1,0.1,0.2,0.1,0.4,0.2c0.1,0.1,0.3,0.1,0.4,0.2C17,6.9,17.3,7,17.5,7.1
				s0.5,0.2,0.6,0.4c0.2,0.2,0.3,0.3,0.4,0.5s0.1,0.5,0.1,0.8c0,0.6-0.2,1-0.6,1.3s-1.1,0.5-1.9,0.5c-0.3,0-0.5,0-0.8,0
				s-0.4-0.1-0.6-0.1c-0.2,0-0.3-0.1-0.5-0.2c-0.1-0.1-0.2-0.1-0.3-0.1l0.4-1.1c0.2,0.1,0.4,0.2,0.7,0.3C15.3,9.4,15.7,9.4,16.1,9.4
				z"/>
			<path class="st10" d="M19.7,4.4h1.5v6.1h-1.5V4.4z"/>
			<path class="st10" d="M27.5,4.4v1.2h-1.9v4.9h-1.4v-5h-1.9V4.4H27.5z"/>
			<path class="st10" d="M32.3,10.5c-0.2-0.3-0.4-0.7-0.6-1c-0.2-0.4-0.5-0.6-0.7-0.9c-0.1,0.1-0.2,0.2-0.3,0.4
				c-0.1,0.2-0.3,0.3-0.4,0.5C30.1,9.6,30,9.8,29.9,10s-0.2,0.4-0.3,0.5H28c0.3-0.5,0.6-1,1-1.5s0.8-1,1.2-1.6l-2.1-3h1.8l1.2,1.8
				l1.3-1.8H34l-2.1,3c0.5,0.7,1,1.3,1.4,1.8c0.4,0.5,0.6,1,0.8,1.4C34.1,10.5,32.3,10.5,32.3,10.5z"/>
		</g>
	</g>
</g>
</svg>
