<?xml version="1.0" encoding="utf-8"?>
<!-- Generator: Adobe Illustrator 16.0.0, SVG Export Plug-In . SVG Version: 6.00 Build 0)  -->
<!DOCTYPE svg PUBLIC "-//W3C//DTD SVG 1.1//EN" "http://www.w3.org/Graphics/SVG/1.1/DTD/svg11.dtd">
<svg version="1.1" id="图层_1" xmlns="http://www.w3.org/2000/svg" xmlns:xlink="http://www.w3.org/1999/xlink" x="0px" y="0px"
	 width="48px" height="48px" viewBox="0 0 48 48" enable-background="new 0 0 48 48" xml:space="preserve">
<g id="surface1">
	<polygon opacity="0.2" enable-background="new    " points="7.25,46 7.25,2 40.75,2 40.75,33.602 28.352,46 	"/>
	<polygon opacity="0.08" enable-background="new    " points="7.25,48 7.25,2 42.75,2 42.75,35.016 29.766,48 	"/>
	<polygon opacity="0.1" enable-background="new    " points="8.25,47 8.25,3 41.75,3 41.75,34.602 29.352,47 	"/>
	<g>
		
			<linearGradient id="SVGID_1_" gradientUnits="userSpaceOnUse" x1="190.4004" y1="1598.9609" x2="190.4004" y2="1556.9609" gradientTransform="matrix(1 0 0 1 -166.4004 -1553.9609)">
			<stop  offset="0" style="stop-color:#512DA8"/>
			<stop  offset="0.008" style="stop-color:#D32F2F"/>
			<stop  offset="0.3041" style="stop-color:#E33932"/>
			<stop  offset="0.6579" style="stop-color:#F04035"/>
			<stop  offset="1" style="stop-color:#F44336"/>
		</linearGradient>
		<path fill="url(#SVGID_1_)" d="M27.938,45L39.75,33.188V3H8.25v42H27.938z"/>
		<polygon fill="#B71C1C" fill-opacity="0.3922" points="27.281,32.531 27.281,45 27.938,45 39.75,33.188 39.75,32.531 		"/>
		<path fill="#FFFFFF" fill-opacity="0.3922" d="M27.938,33.188H39.74L27.938,45V33.188z"/>
		<g opacity="0.8">
			<path fill="#FFFFFF" d="M22.866,11.979c0,0,0.605,5.573-3.666,12.936c-4.271,7.357-5.526,6.367-5.973,6.115
				c-0.451-0.256-1.03-1.086,0.866-2.742c1.892-1.656,2.63-1.625,2.63-1.625s-1.733,1.051-2.405,2.07
				c-0.677,1.021-1.22,1.656-1.061,1.943s2.097-1.174,2.897-2.414c1.276-1.975,3.686-5.645,4.809-9.147
				C22.086,15.609,22.866,11.979,22.866,11.979z"/>
			<path fill="#FFFFFF" d="M33.392,24.878c0,0-0.098,0.258-1.221,0.164c-1.123-0.096-5.491-1.465-7.833-4.27
				c-2.343-2.805-2.538-6.66-2.697-8.665c-0.164-2.004,0.729-1.446,0.856-1.195c0.2,0.169,0.297,0.718,0.297,0.718
				s-0.072-0.82-0.425-1.174c-0.354-0.349-0.667-0.354-1.021,0.251c-0.354,0.605-0.513,2.292-0.226,3.917
				c0.292,1.625,1.481,5.353,2.958,7.07c1.477,1.723,4.43,3.22,6.614,3.666c2.185,0.447,2.697-0.477,2.697-0.477V24.878z"/>
			<path fill="#FFFFFF" d="M19.164,25.612c0,0,4.24-1.37,8.254-1.749c4.015-0.385,5.399,0.03,5.748,0.317
				c0.354,0.287,0.354,0.605,0.354,0.605s0.451-0.446,0.153-0.897c-0.251-0.472-0.636-0.856-3.814-0.759
				c-3.179,0.093-3.404,0.221-6.326,0.764C20.61,24.438,19.164,25.612,19.164,25.612z"/>
		</g>
		<g>
			<path fill="#B71C1C" d="M39.25,3.5v29.48L27.73,44.5h-8.98h-10v-41H39.25 M39.75,3H8.25v42h10.5h9.188L39.75,33.188V3L39.75,3z"
				/>
		</g>
	</g>
</g>
</svg>
