<?xml version="1.0" encoding="utf-8"?>
<!-- Generator: Adobe Illustrator 16.0.0, SVG Export Plug-In . SVG Version: 6.00 Build 0)  -->
<!DOCTYPE svg PUBLIC "-//W3C//DTD SVG 1.1//EN" "http://www.w3.org/Graphics/SVG/1.1/DTD/svg11.dtd">
<svg version="1.1" id="图层_1" xmlns="http://www.w3.org/2000/svg" xmlns:xlink="http://www.w3.org/1999/xlink" x="0px" y="0px"
	 width="48px" height="48px" viewBox="0 0 48 48" enable-background="new 0 0 48 48" xml:space="preserve">
<polygon opacity="0.06" points="7.181,48 7.181,2 42.819,2 42.819,35.003 29.821,48 "/>
<polygon opacity="0.1" points="8.181,47 8.181,3 41.819,3 41.819,34.589 29.407,47 "/>
<polygon opacity="0.2" points="7.181,46 7.181,2 40.819,2 40.819,33.589 28.408,46 "/>
<polygon fill="#AE2124" points="8.143,45 8.143,3 39.857,3 39.857,33.175 28.006,45 "/>
<g>
	<g>
		<g>
			
				<linearGradient id="SVGID_1_" gradientUnits="userSpaceOnUse" x1="65.5996" y1="463.4004" x2="65.5996" y2="422.4004" gradientTransform="matrix(1 0 0 1 -41.5996 -418.9004)">
				<stop  offset="0" style="stop-color:#C7312F"/>
				<stop  offset="0.1635" style="stop-color:#D9412C"/>
				<stop  offset="0.3476" style="stop-color:#E74E29"/>
				<stop  offset="0.5725" style="stop-color:#EA552A"/>
				<stop  offset="0.9516" style="stop-color:#EA582B"/>
			</linearGradient>
			<polygon fill="url(#SVGID_1_)" points="8.643,44.5 8.643,3.5 39.357,3.5 39.357,32.969 27.827,44.5 			"/>
		</g>
		<polygon fill="#AE2124" fill-opacity="0.3922" points="39.357,32.969 39.357,32.473 27.195,32.473 27.195,44.5 27.827,44.5 		"/>
		<path fill="#FFFFFF" fill-opacity="0.3922" d="M27.81,32.969l11.548,0.018L27.827,44.5L27.81,32.969z"/>
	</g>
	<g opacity="0.8" enable-background="new    ">
		<g>
			<path fill="#FFFFFF" d="M27.861,13.512c0.052,0.017,0.12,0.017,0.172,0.032C27.981,13.529,27.913,13.512,27.861,13.512z"/>
			<path fill="#FFFFFF" d="M27.434,13.443c0.069,0,0.12,0.017,0.189,0.017C27.554,13.46,27.503,13.46,27.434,13.443z"/>
			<path fill="#FFFFFF" d="M28.271,13.579c0.051,0.017,0.103,0.017,0.154,0.034C28.374,13.596,28.322,13.579,28.271,13.579z"/>
			<path fill="#FFFFFF" d="M28.681,13.647c0.052,0.017,0.104,0.017,0.138,0.034C28.767,13.664,28.732,13.647,28.681,13.647z"/>
			<path fill="#FFFFFF" d="M26.99,13.392c0.068,0,0.137,0.017,0.205,0.017C27.127,13.409,27.059,13.392,26.99,13.392z"/>
			<path fill="#FFFFFF" d="M29.451,13.819c0.032,0.017,0.066,0.017,0.118,0.034C29.518,13.836,29.483,13.819,29.451,13.819z"/>
			<path fill="#FFFFFF" d="M29.074,13.733c0.034,0.017,0.085,0.017,0.12,0.034C29.159,13.75,29.108,13.733,29.074,13.733z"/>
			<path fill="#FFFFFF" d="M14.845,15.68L14.845,15.68L14.845,15.68z"/>
			<path fill="#FFFFFF" d="M24.633,13.237c0.102,0,0.222,0,0.324,0C24.854,13.237,24.734,13.237,24.633,13.237z"/>
			<path fill="#FFFFFF" d="M29.81,13.904c0.034,0.017,0.068,0.017,0.102,0.035C29.878,13.921,29.844,13.921,29.81,13.904z"/>
			<path fill="#FFFFFF" d="M26.546,13.34c0.068,0,0.137,0.018,0.206,0.018C26.7,13.357,26.632,13.357,26.546,13.34z"/>
			<path fill="#FFFFFF" d="M23.045,13.237c0.102,0,0.204,0,0.324,0C23.267,13.237,23.146,13.237,23.045,13.237z"/>
			<path fill="#FFFFFF" d="M25.623,13.271c0.086,0,0.171,0.017,0.257,0.017C25.794,13.289,25.709,13.271,25.623,13.271z"/>
			<path fill="#FFFFFF" d="M26.102,13.306c0.086,0,0.154,0.017,0.24,0.017C26.256,13.323,26.17,13.306,26.102,13.306z"/>
			<path fill="#FFFFFF" d="M31.928,14.707c0,0,0.018,0,0.018,0.017C31.945,14.707,31.928,14.707,31.928,14.707z"/>
			<path fill="#FFFFFF" d="M32.748,15.252L32.748,15.252L32.748,15.252z"/>
			<path fill="#FFFFFF" d="M32.166,14.825C32.166,14.825,32.166,14.842,32.166,14.825C32.166,14.842,32.166,14.825,32.166,14.825z"
				/>
			<path fill="#FFFFFF" d="M32.372,14.962C32.39,14.962,32.39,14.962,32.372,14.962C32.39,14.962,32.39,14.962,32.372,14.962z"/>
			<path fill="#FFFFFF" d="M30.168,14.005c0.034,0,0.052,0.017,0.086,0.017C30.22,14.022,30.186,14.005,30.168,14.005z"/>
			<path fill="#FFFFFF" d="M32.9,15.39L32.9,15.39L32.9,15.39z"/>
			<path fill="#FFFFFF" d="M24,13.22c-0.152,0-0.324,0-0.479,0C23.676,13.22,23.848,13.22,24,13.22z"/>
			<path fill="#FFFFFF" d="M32.576,15.1L32.576,15.1L32.576,15.1z"/>
			<path fill="#FFFFFF" d="M31.125,14.332c0.016,0,0.034,0.017,0.05,0.017C31.159,14.349,31.141,14.332,31.125,14.332z"/>
			<path fill="#FFFFFF" d="M24,13.22c0.154,0,0.326,0,0.479,0C24.326,13.22,24.154,13.22,24,13.22z"/>
			<path fill="#FFFFFF" d="M30.492,14.108c0.018,0,0.052,0.017,0.068,0.017C30.544,14.125,30.526,14.108,30.492,14.108z"/>
			<path fill="#FFFFFF" d="M30.816,14.211c0.018,0,0.034,0.017,0.052,0.017C30.851,14.229,30.834,14.229,30.816,14.211z"/>
			<path fill="#FFFFFF" d="M31.415,14.45c0.018,0,0.034,0.017,0.034,0.017C31.433,14.467,31.415,14.45,31.415,14.45z"/>
			<path fill="#FFFFFF" d="M31.671,14.57c0.017,0,0.017,0.017,0.034,0.017C31.705,14.587,31.688,14.57,31.671,14.57z"/>
			<path fill="#FFFFFF" d="M25.146,13.254c0.084,0,0.187,0,0.272,0.017C25.333,13.254,25.23,13.254,25.146,13.254z"/>
			<path fill="#FFFFFF" d="M16.058,14.707c0.017,0,0.017-0.017,0.034-0.017C16.074,14.707,16.058,14.707,16.058,14.707z"/>
			<path fill="#FFFFFF" d="M15.817,14.842c0,0,0.017,0,0.017-0.017C15.834,14.825,15.834,14.842,15.817,14.842z"/>
			<path fill="#FFFFFF" d="M15.613,14.98C15.613,14.962,15.63,14.962,15.613,14.98C15.63,14.962,15.613,14.962,15.613,14.98z"/>
			<path fill="#FFFFFF" d="M16.296,14.587c0.017,0,0.017-0.017,0.034-0.017C16.313,14.57,16.296,14.587,16.296,14.587z"/>
			<path fill="#FFFFFF" d="M16.825,14.349c0.018,0,0.035-0.017,0.052-0.017C16.86,14.332,16.843,14.349,16.825,14.349z"/>
			<path fill="#FFFFFF" d="M16.553,14.467c0.018,0,0.034-0.017,0.052-0.017C16.587,14.45,16.57,14.467,16.553,14.467z"/>
			<path fill="#FFFFFF" d="M22.584,13.254c0.084,0,0.187,0,0.272-0.017C22.771,13.254,22.668,13.254,22.584,13.254z"/>
			<path fill="#FFFFFF" d="M24,19.592c-5.193,0-9.396-1.417-9.396-3.176v2.87c0,1.76,4.202,3.178,9.396,3.178
				c5.194,0,9.396-1.418,9.396-3.178l0,0v-2.87C33.396,18.158,29.194,19.592,24,19.592z"/>
			<path fill="#FFFFFF" d="M14.604,16.313v0.103C14.604,16.381,14.604,16.347,14.604,16.313L14.604,16.313z"/>
			<path fill="#FFFFFF" d="M17.115,14.246c0.018,0,0.052-0.017,0.068-0.017C17.167,14.229,17.149,14.229,17.115,14.246z"/>
			<path fill="#FFFFFF" d="M15.255,15.252L15.255,15.252L15.255,15.252z"/>
			<path fill="#FFFFFF" d="M33.396,16.313c0,0.034,0,0.069,0,0.103V16.313L33.396,16.313z"/>
			<path fill="#FFFFFF" d="M14.963,15.544L14.963,15.544L14.963,15.544z"/>
			<path fill="#FFFFFF" d="M15.101,15.39L15.101,15.39L15.101,15.39z"/>
			<path fill="#FFFFFF" d="M15.424,15.117C15.424,15.1,15.424,15.1,15.424,15.117C15.424,15.1,15.424,15.1,15.424,15.117z"/>
			<path fill="#FFFFFF" d="M20.807,13.409c0.068,0,0.136-0.017,0.204-0.017C20.942,13.392,20.875,13.409,20.807,13.409z"/>
			<path fill="#FFFFFF" d="M20.38,13.478c0.068-0.018,0.118-0.018,0.187-0.018C20.498,13.46,20.448,13.46,20.38,13.478z"/>
			<path fill="#FFFFFF" d="M21.233,13.357c0.069,0,0.136-0.018,0.222-0.018C21.369,13.357,21.303,13.357,21.233,13.357z"/>
			<path fill="#FFFFFF" d="M17.424,14.125c0.018,0,0.05-0.017,0.067-0.017C17.474,14.108,17.459,14.125,17.424,14.125z"/>
			<path fill="#FFFFFF" d="M22.122,13.289c0.084,0,0.17-0.017,0.256-0.017C22.292,13.271,22.206,13.289,22.122,13.289z"/>
			<path fill="#FFFFFF" d="M19.97,13.529c0.052-0.017,0.118-0.017,0.17-0.034C20.088,13.512,20.021,13.529,19.97,13.529z"/>
			<path fill="#FFFFFF" d="M21.678,13.323c0.084,0,0.152-0.017,0.238-0.017C21.83,13.306,21.745,13.323,21.678,13.323z"/>
			<path fill="#FFFFFF" d="M18.09,13.939c0.034-0.018,0.068-0.018,0.103-0.035C18.158,13.921,18.124,13.921,18.09,13.939z"/>
			<path fill="#FFFFFF" d="M17.748,14.022c0.035-0.017,0.052-0.017,0.086-0.034C17.817,14.005,17.783,14.022,17.748,14.022z"/>
			<path fill="#FFFFFF" d="M18.431,13.836c0.034-0.017,0.086-0.017,0.12-0.035C18.517,13.819,18.482,13.836,18.431,13.836z"/>
			<path fill="#FFFFFF" d="M18.807,13.75c0.052-0.017,0.086-0.017,0.138-0.034C18.893,13.733,18.841,13.75,18.807,13.75z"/>
			<path fill="#FFFFFF" d="M19.183,13.681c0.051-0.017,0.103-0.017,0.154-0.034C19.268,13.647,19.233,13.664,19.183,13.681z"/>
			<path fill="#FFFFFF" d="M19.577,13.596c0.049-0.017,0.101-0.017,0.152-0.035C19.678,13.579,19.626,13.596,19.577,13.596z"/>
		</g>
		<g>
			<path fill="#FFFFFF" d="M27.861,16.843c0.052,0.017,0.12,0.017,0.172,0.034C27.981,16.86,27.913,16.86,27.861,16.843z"/>
			<path fill="#FFFFFF" d="M27.434,16.791c0.069,0,0.12,0.017,0.189,0.017C27.554,16.791,27.503,16.791,27.434,16.791z"/>
			<path fill="#FFFFFF" d="M28.271,16.911c0.051,0.017,0.103,0.017,0.154,0.034C28.374,16.928,28.322,16.928,28.271,16.911z"/>
			<path fill="#FFFFFF" d="M28.681,16.978c0.052,0.017,0.104,0.017,0.138,0.034C28.767,16.995,28.732,16.995,28.681,16.978z"/>
			<path fill="#FFFFFF" d="M26.99,16.723c0.068,0,0.137,0.017,0.205,0.017C27.127,16.74,27.059,16.74,26.99,16.723z"/>
			<path fill="#FFFFFF" d="M29.451,17.149c0.032,0.017,0.066,0.017,0.118,0.034C29.518,17.167,29.483,17.167,29.451,17.149z"/>
			<path fill="#FFFFFF" d="M29.074,17.063c0.034,0.018,0.085,0.018,0.12,0.035C29.159,17.081,29.108,17.081,29.074,17.063z"/>
			<path fill="#FFFFFF" d="M14.845,19.029L14.845,19.029L14.845,19.029z"/>
			<path fill="#FFFFFF" d="M24.633,16.568c0.102,0,0.222,0,0.324,0C24.854,16.568,24.734,16.568,24.633,16.568z"/>
			<path fill="#FFFFFF" d="M29.81,17.252c0.034,0.017,0.068,0.017,0.102,0.034C29.878,17.27,29.844,17.252,29.81,17.252z"/>
			<path fill="#FFFFFF" d="M26.546,16.688c0.068,0,0.137,0.017,0.206,0.017C26.7,16.688,26.632,16.688,26.546,16.688z"/>
			<path fill="#FFFFFF" d="M23.045,16.585c0.102,0,0.204,0,0.324,0C23.267,16.568,23.146,16.568,23.045,16.585z"/>
			<path fill="#FFFFFF" d="M25.623,16.603c0.086,0,0.171,0.017,0.257,0.017C25.794,16.62,25.709,16.62,25.623,16.603z"/>
			<path fill="#FFFFFF" d="M26.102,16.637c0.086,0,0.154,0.017,0.24,0.017C26.256,16.654,26.17,16.654,26.102,16.637z"/>
			<path fill="#FFFFFF" d="M31.928,18.038c0,0,0.018,0,0.018,0.017C31.945,18.038,31.928,18.038,31.928,18.038z"/>
			<path fill="#FFFFFF" d="M32.748,18.585L32.748,18.585L32.748,18.585z"/>
			<path fill="#FFFFFF" d="M32.166,18.175L32.166,18.175L32.166,18.175z"/>
			<path fill="#FFFFFF" d="M32.372,18.311C32.39,18.311,32.39,18.311,32.372,18.311C32.39,18.311,32.39,18.311,32.372,18.311z"/>
			<path fill="#FFFFFF" d="M30.168,17.338c0.034,0,0.052,0.017,0.086,0.017C30.22,17.355,30.186,17.355,30.168,17.338z"/>
			<path fill="#FFFFFF" d="M32.9,18.721L32.9,18.721L32.9,18.721z"/>
			<path fill="#FFFFFF" d="M24,16.568c-0.152,0-0.324,0-0.479,0C23.676,16.568,23.848,16.568,24,16.568z"/>
			<path fill="#FFFFFF" d="M32.576,18.448L32.576,18.448L32.576,18.448z"/>
			<path fill="#FFFFFF" d="M31.125,17.663c0.016,0,0.034,0.017,0.05,0.017C31.159,17.68,31.141,17.68,31.125,17.663z"/>
			<path fill="#FFFFFF" d="M24,16.568c0.154,0,0.326,0,0.479,0C24.326,16.568,24.154,16.568,24,16.568z"/>
			<path fill="#FFFFFF" d="M30.492,17.439c0.018,0,0.052,0.017,0.068,0.017C30.544,17.457,30.526,17.457,30.492,17.439z"/>
			<path fill="#FFFFFF" d="M30.816,17.56c0.018,0,0.034,0.017,0.052,0.017C30.851,17.577,30.834,17.56,30.816,17.56z"/>
			<path fill="#FFFFFF" d="M31.415,17.783c0.018,0,0.034,0.017,0.034,0.017C31.433,17.8,31.415,17.8,31.415,17.783z"/>
			<path fill="#FFFFFF" d="M31.671,17.918c0.017,0,0.017,0.017,0.034,0.017C31.705,17.918,31.688,17.918,31.671,17.918z"/>
			<path fill="#FFFFFF" d="M25.146,16.585c0.084,0,0.187,0,0.272,0.018C25.333,16.585,25.23,16.585,25.146,16.585z"/>
			<path fill="#FFFFFF" d="M16.058,18.055c0.017,0,0.017-0.017,0.034-0.017C16.074,18.038,16.058,18.038,16.058,18.055z"/>
			<path fill="#FFFFFF" d="M15.817,18.175c0,0,0.017,0,0.017-0.017C15.834,18.175,15.834,18.175,15.817,18.175z"/>
			<path fill="#FFFFFF" d="M15.613,18.311C15.613,18.311,15.63,18.311,15.613,18.311C15.63,18.311,15.613,18.311,15.613,18.311z"/>
			<path fill="#FFFFFF" d="M16.296,17.918c0.017,0,0.017-0.017,0.034-0.017C16.313,17.918,16.296,17.918,16.296,17.918z"/>
			<path fill="#FFFFFF" d="M16.825,17.697c0.018,0,0.035-0.017,0.052-0.017C16.86,17.68,16.843,17.68,16.825,17.697z"/>
			<path fill="#FFFFFF" d="M16.553,17.8c0.018,0,0.034-0.017,0.052-0.017C16.587,17.8,16.57,17.8,16.553,17.8z"/>
			<path fill="#FFFFFF" d="M22.584,16.603c0.084,0,0.187,0,0.272-0.018C22.771,16.585,22.668,16.585,22.584,16.603z"/>
			<path fill="#FFFFFF" d="M24,22.925c-5.193,0-9.396-1.418-9.396-3.179v2.87c0,1.76,4.202,3.178,9.396,3.178
				c5.194,0,9.396-1.418,9.396-3.178l0,0v-2.87C33.396,21.506,29.194,22.925,24,22.925z"/>
			<path fill="#FFFFFF" d="M14.604,19.644v0.103C14.604,19.712,14.604,19.678,14.604,19.644L14.604,19.644z"/>
			<path fill="#FFFFFF" d="M17.115,17.577c0.018,0,0.052-0.017,0.068-0.017C17.167,17.56,17.149,17.577,17.115,17.577z"/>
			<path fill="#FFFFFF" d="M15.255,18.585L15.255,18.585L15.255,18.585z"/>
			<path fill="#FFFFFF" d="M33.396,19.644c0,0.034,0,0.068,0,0.103V19.644L33.396,19.644z"/>
			<path fill="#FFFFFF" d="M14.963,18.875L14.963,18.875L14.963,18.875z"/>
			<path fill="#FFFFFF" d="M15.101,18.738C15.101,18.721,15.101,18.721,15.101,18.738C15.101,18.721,15.101,18.721,15.101,18.738z"
				/>
			<path fill="#FFFFFF" d="M15.424,18.448L15.424,18.448L15.424,18.448z"/>
			<path fill="#FFFFFF" d="M20.807,16.757c0.068,0,0.136-0.017,0.204-0.017C20.942,16.74,20.875,16.74,20.807,16.757z"/>
			<path fill="#FFFFFF" d="M20.38,16.808c0.068-0.017,0.118-0.017,0.187-0.017C20.498,16.791,20.448,16.791,20.38,16.808z"/>
			<path fill="#FFFFFF" d="M21.233,16.705c0.069,0,0.136-0.017,0.222-0.017C21.369,16.688,21.303,16.688,21.233,16.705z"/>
			<path fill="#FFFFFF" d="M17.424,17.474c0.018,0,0.05-0.017,0.067-0.017C17.474,17.457,17.459,17.457,17.424,17.474z"/>
			<path fill="#FFFFFF" d="M22.122,16.62c0.084,0,0.17-0.017,0.256-0.017C22.292,16.62,22.206,16.62,22.122,16.62z"/>
			<path fill="#FFFFFF" d="M19.97,16.877c0.052-0.017,0.118-0.017,0.17-0.034C20.088,16.86,20.021,16.86,19.97,16.877z"/>
			<path fill="#FFFFFF" d="M21.678,16.654c0.067,0,0.152-0.017,0.238-0.017C21.83,16.654,21.745,16.654,21.678,16.654z"/>
			<path fill="#FFFFFF" d="M18.09,17.27c0.034-0.017,0.068-0.017,0.103-0.034C18.158,17.252,18.124,17.27,18.09,17.27z"/>
			<path fill="#FFFFFF" d="M17.748,17.373c0.035-0.017,0.052-0.017,0.086-0.034C17.817,17.355,17.783,17.355,17.748,17.373z"/>
			<path fill="#FFFFFF" d="M18.431,17.184c0.034-0.017,0.086-0.017,0.12-0.034C18.517,17.167,18.482,17.167,18.431,17.184z"/>
			<path fill="#FFFFFF" d="M18.807,17.098c0.052-0.017,0.086-0.017,0.138-0.035C18.893,17.081,18.841,17.081,18.807,17.098z"/>
			<path fill="#FFFFFF" d="M19.183,17.012c0.051-0.017,0.103-0.017,0.154-0.034C19.268,16.995,19.233,16.995,19.183,17.012z"/>
			<path fill="#FFFFFF" d="M19.577,16.945c0.049-0.017,0.101-0.017,0.152-0.034C19.678,16.928,19.626,16.928,19.577,16.945z"/>
		</g>
		<g>
			<path fill="#FFFFFF" d="M27.861,20.173c0.052,0.017,0.12,0.017,0.172,0.034C27.981,20.19,27.913,20.19,27.861,20.173z"/>
			<path fill="#FFFFFF" d="M27.434,20.122c0.069,0,0.12,0.017,0.189,0.017C27.554,20.139,27.503,20.122,27.434,20.122z"/>
			<path fill="#FFFFFF" d="M28.271,20.242c0.051,0.017,0.103,0.017,0.154,0.034C28.374,20.259,28.322,20.259,28.271,20.242z"/>
			<path fill="#FFFFFF" d="M28.681,20.328c0.052,0.018,0.104,0.018,0.138,0.035C28.767,20.345,28.732,20.328,28.681,20.328z"/>
			<path fill="#FFFFFF" d="M26.99,20.07c0.068,0,0.137,0.017,0.205,0.017C27.127,20.087,27.059,20.07,26.99,20.07z"/>
			<path fill="#FFFFFF" d="M29.451,20.498c0.032,0.017,0.066,0.017,0.118,0.034C29.518,20.515,29.483,20.498,29.451,20.498z"/>
			<path fill="#FFFFFF" d="M29.074,20.395c0.034,0.017,0.085,0.017,0.12,0.034C29.159,20.429,29.108,20.412,29.074,20.395z"/>
			<path fill="#FFFFFF" d="M14.845,22.36L14.845,22.36L14.845,22.36z"/>
			<path fill="#FFFFFF" d="M24.633,19.901c0.102,0,0.222,0,0.324,0C24.854,19.918,24.734,19.918,24.633,19.901z"/>
			<path fill="#FFFFFF" d="M29.81,20.583c0.034,0.017,0.068,0.017,0.102,0.034C29.878,20.601,29.844,20.601,29.81,20.583z"/>
			<path fill="#FFFFFF" d="M26.546,20.019c0.068,0,0.137,0.017,0.206,0.017C26.7,20.036,26.632,20.019,26.546,20.019z"/>
			<path fill="#FFFFFF" d="M23.045,19.918c0.102,0,0.204,0,0.324,0C23.267,19.918,23.146,19.918,23.045,19.918z"/>
			<path fill="#FFFFFF" d="M25.623,19.95c0.086,0,0.171,0.017,0.257,0.017C25.794,19.95,25.709,19.95,25.623,19.95z"/>
			<path fill="#FFFFFF" d="M26.102,19.985c0.086,0,0.154,0.017,0.24,0.017C26.256,19.985,26.17,19.985,26.102,19.985z"/>
			<path fill="#FFFFFF" d="M31.928,21.369c0,0,0.018,0,0.018,0.018C31.945,21.386,31.928,21.386,31.928,21.369z"/>
			<path fill="#FFFFFF" d="M32.748,21.916L32.748,21.916L32.748,21.916z"/>
			<path fill="#FFFFFF" d="M32.166,21.506L32.166,21.506L32.166,21.506z"/>
			<path fill="#FFFFFF" d="M32.372,21.644C32.39,21.644,32.39,21.644,32.372,21.644C32.39,21.644,32.39,21.644,32.372,21.644z"/>
			<path fill="#FFFFFF" d="M30.168,20.687c0.034,0,0.052,0.017,0.086,0.017C30.22,20.704,30.186,20.687,30.168,20.687z"/>
			<path fill="#FFFFFF" d="M32.9,22.07L32.9,22.07L32.9,22.07z"/>
			<path fill="#FFFFFF" d="M24,19.901c-0.152,0-0.324,0-0.479,0C23.676,19.901,23.848,19.901,24,19.901z"/>
			<path fill="#FFFFFF" d="M32.576,21.779L32.576,21.779L32.576,21.779z"/>
			<path fill="#FFFFFF" d="M31.125,21.01c0.016,0,0.034,0.017,0.05,0.017C31.159,21.027,31.141,21.01,31.125,21.01z"/>
			<path fill="#FFFFFF" d="M24,19.901c0.154,0,0.326,0,0.479,0C24.326,19.901,24.154,19.901,24,19.901z"/>
			<path fill="#FFFFFF" d="M30.492,20.789c0.018,0,0.052,0.016,0.068,0.016C30.544,20.805,30.526,20.789,30.492,20.789z"/>
			<path fill="#FFFFFF" d="M30.816,20.89c0.018,0,0.034,0.017,0.052,0.017C30.851,20.907,30.834,20.907,30.816,20.89z"/>
			<path fill="#FFFFFF" d="M31.415,21.13c0.018,0,0.034,0.017,0.034,0.017C31.433,21.13,31.415,21.13,31.415,21.13z"/>
			<path fill="#FFFFFF" d="M31.671,21.249c0.017,0,0.017,0.018,0.034,0.018C31.705,21.266,31.688,21.249,31.671,21.249z"/>
			<path fill="#FFFFFF" d="M25.146,19.918c0.084,0,0.187,0,0.272,0.017C25.333,19.935,25.23,19.935,25.146,19.918z"/>
			<path fill="#FFFFFF" d="M16.058,21.386c0.017,0,0.017-0.018,0.034-0.018C16.074,21.386,16.058,21.386,16.058,21.386z"/>
			<path fill="#FFFFFF" d="M15.817,21.523c0,0,0.017,0,0.017-0.017C15.834,21.506,15.834,21.506,15.817,21.523z"/>
			<path fill="#FFFFFF" d="M15.613,21.644C15.613,21.644,15.63,21.644,15.613,21.644C15.63,21.644,15.613,21.644,15.613,21.644z"/>
			<path fill="#FFFFFF" d="M16.296,21.266c0.017,0,0.017-0.018,0.034-0.018C16.313,21.249,16.296,21.266,16.296,21.266z"/>
			<path fill="#FFFFFF" d="M16.825,21.027c0.018,0,0.035-0.017,0.052-0.017C16.86,21.01,16.843,21.027,16.825,21.027z"/>
			<path fill="#FFFFFF" d="M16.553,21.147c0.018,0,0.034-0.017,0.052-0.017C16.587,21.13,16.57,21.13,16.553,21.147z"/>
			<path fill="#FFFFFF" d="M22.584,19.935c0.084,0,0.187,0,0.272-0.017C22.771,19.935,22.668,19.935,22.584,19.935z"/>
			<path fill="#FFFFFF" d="M24,26.272c-5.193,0-9.396-1.418-9.396-3.178v2.87c0,1.76,4.202,3.179,9.396,3.179
				c5.194,0,9.396-1.419,9.396-3.179l0,0v-2.87C33.396,24.837,29.194,26.272,24,26.272z"/>
			<path fill="#FFFFFF" d="M14.604,22.991v0.103C14.604,23.06,14.604,23.026,14.604,22.991L14.604,22.991z"/>
			<path fill="#FFFFFF" d="M17.115,20.907c0.018,0,0.052-0.017,0.068-0.017C17.167,20.907,17.149,20.907,17.115,20.907z"/>
			<path fill="#FFFFFF" d="M15.255,21.933C15.255,21.916,15.255,21.916,15.255,21.933C15.255,21.916,15.255,21.916,15.255,21.933z"
				/>
			<path fill="#FFFFFF" d="M33.396,22.991c0,0.035,0,0.069,0,0.103V22.991L33.396,22.991z"/>
			<path fill="#FFFFFF" d="M14.963,22.223C14.963,22.206,14.963,22.206,14.963,22.223C14.963,22.206,14.963,22.206,14.963,22.223z"
				/>
			<path fill="#FFFFFF" d="M15.101,22.07L15.101,22.07L15.101,22.07z"/>
			<path fill="#FFFFFF" d="M15.424,21.779L15.424,21.779L15.424,21.779z"/>
			<path fill="#FFFFFF" d="M20.807,20.087c0.068,0,0.136-0.017,0.204-0.017C20.942,20.07,20.875,20.087,20.807,20.087z"/>
			<path fill="#FFFFFF" d="M20.38,20.139c0.068-0.017,0.118-0.017,0.187-0.017C20.498,20.122,20.448,20.139,20.38,20.139z"/>
			<path fill="#FFFFFF" d="M21.233,20.036c0.069,0,0.136-0.017,0.222-0.017C21.369,20.019,21.303,20.036,21.233,20.036z"/>
			<path fill="#FFFFFF" d="M17.424,20.805c0.018,0,0.05-0.016,0.067-0.016C17.474,20.789,17.459,20.805,17.424,20.805z"/>
			<path fill="#FFFFFF" d="M22.122,19.967c0.084,0,0.17-0.017,0.256-0.017C22.292,19.95,22.206,19.95,22.122,19.967z"/>
			<path fill="#FFFFFF" d="M19.97,20.208c0.052-0.017,0.118-0.017,0.17-0.034C20.088,20.19,20.021,20.19,19.97,20.208z"/>
			<path fill="#FFFFFF" d="M21.678,20.002c0.067,0,0.152-0.017,0.238-0.017C21.83,19.985,21.745,19.985,21.678,20.002z"/>
			<path fill="#FFFFFF" d="M18.09,20.618c0.034-0.017,0.068-0.017,0.103-0.034C18.158,20.583,18.124,20.601,18.09,20.618z"/>
			<path fill="#FFFFFF" d="M17.748,20.704c0.035-0.017,0.052-0.017,0.086-0.035C17.817,20.687,17.783,20.704,17.748,20.704z"/>
			<path fill="#FFFFFF" d="M18.431,20.515c0.034-0.017,0.086-0.017,0.12-0.034C18.517,20.498,18.482,20.515,18.431,20.515z"/>
			<path fill="#FFFFFF" d="M18.807,20.429c0.052-0.017,0.086-0.017,0.138-0.034C18.893,20.412,18.841,20.429,18.807,20.429z"/>
			<path fill="#FFFFFF" d="M19.183,20.345c0.051-0.018,0.103-0.018,0.154-0.035C19.268,20.328,19.233,20.345,19.183,20.345z"/>
			<path fill="#FFFFFF" d="M19.577,20.276c0.049-0.017,0.101-0.017,0.152-0.034C19.678,20.259,19.626,20.259,19.577,20.276z"/>
		</g>
		<ellipse fill="#FFFFFF" cx="24" cy="15.903" rx="9.396" ry="3.178"/>
	</g>
</g>
</svg>
