<?xml version="1.0" encoding="utf-8"?>
<!-- Generator: Adobe Illustrator 16.0.0, SVG Export Plug-In . SVG Version: 6.00 Build 0)  -->
<!DOCTYPE svg PUBLIC "-//W3C//DTD SVG 1.1//EN" "http://www.w3.org/Graphics/SVG/1.1/DTD/svg11.dtd">
<svg version="1.1" id="图层_1" xmlns="http://www.w3.org/2000/svg" xmlns:xlink="http://www.w3.org/1999/xlink" x="0px" y="0px"
	 width="48px" height="48px" viewBox="0 0 48 48" enable-background="new 0 0 48 48" xml:space="preserve">
<polygon opacity="0.06" enable-background="new    " points="7.181,48 7.181,2 42.818,2 42.818,35.003 29.82,48 "/>
<polygon opacity="0.1" enable-background="new    " points="8.181,47 8.181,3 41.818,3 41.818,34.589 29.407,47 "/>
<polygon opacity="0.2" enable-background="new    " points="7.181,46 7.181,2 40.818,2 40.818,33.589 28.408,46 "/>
<polygon fill="#01579B" points="8.143,45 8.143,3 39.857,3 39.857,33.174 28.004,45 "/>
<g>
	<g>
		<g>
			<g>
				
					<linearGradient id="SVGID_1_" gradientUnits="userSpaceOnUse" x1="107.1982" y1="-579.3003" x2="107.1982" y2="-538.3008" gradientTransform="matrix(1 0 0 -1 -83.2002 -534.8008)">
					<stop  offset="0" style="stop-color:#2196F3"/>
					<stop  offset="0.5828" style="stop-color:#3DBAE8"/>
					<stop  offset="1" style="stop-color:#4DD0E1"/>
				</linearGradient>
				<polygon fill="url(#SVGID_1_)" points="8.639,44.5 8.639,3.5 39.356,3.5 39.356,32.969 27.825,44.5 				"/>
			</g>
			<polygon fill="#01579B" fill-opacity="0.39" points="39.356,32.969 39.356,32.473 27.192,32.473 27.192,44.5 27.825,44.5 			"/>
			<path fill="#FFFFFF" fill-opacity="0.3922" d="M27.81,32.969l11.55,0.016L27.825,44.5L27.81,32.969z"/>
		</g>
		<g>
			<circle opacity="0.8" fill="#FFFFFF" enable-background="new    " cx="29.448" cy="19.986" r="2.171"/>
			<path opacity="0.8" fill="#FFFFFF" enable-background="new    " d="M13.322,15.459v14.007h21.355V15.459H13.322z M33.138,16.996
				V27.93l0,0l-4.954-3.519l-3.54,2.167l-4.54-5.482l-5.246,6.834V16.996H33.138z"/>
		</g>
	</g>
	<g>
		<rect x="8.633" y="3.5" opacity="0.8" fill="#FFFFFF" enable-background="new    " width="30.734" height="7.858"/>
		<g enable-background="new    ">
			<path fill="#0288D1" d="M17.548,4.251c0.962,0,1.699,0.162,2.214,0.482c0.516,0.321,0.772,0.847,0.772,1.577
				c0,0.737-0.26,1.268-0.781,1.595c-0.521,0.327-1.266,0.491-2.233,0.491h-0.455v2.05h-1.45V4.41
				c0.315-0.059,0.649-0.1,1.003-0.123C16.971,4.263,17.281,4.251,17.548,4.251z M17.642,5.427c-0.105,0-0.21,0.002-0.312,0.009
				c-0.103,0.005-0.19,0.011-0.266,0.018v1.767h0.455c0.503,0,0.881-0.064,1.136-0.195c0.254-0.129,0.382-0.371,0.382-0.725
				c0-0.171-0.033-0.311-0.099-0.423c-0.064-0.112-0.157-0.203-0.279-0.27c-0.12-0.068-0.268-0.115-0.441-0.142
				S17.852,5.427,17.642,5.427z"/>
			<path fill="#0288D1" d="M23.362,9.395c0.203,0,0.374-0.016,0.508-0.048c0.133-0.034,0.24-0.078,0.32-0.134
				c0.08-0.056,0.133-0.121,0.165-0.199c0.032-0.076,0.048-0.162,0.048-0.256c0-0.2-0.102-0.367-0.299-0.499
				s-0.539-0.275-1.02-0.428c-0.214-0.071-0.422-0.152-0.634-0.243c-0.211-0.091-0.4-0.207-0.567-0.344
				c-0.168-0.139-0.304-0.307-0.409-0.504c-0.105-0.198-0.158-0.438-0.158-0.719c0-0.283,0.055-0.538,0.167-0.765
				c0.112-0.227,0.27-0.42,0.474-0.579c0.206-0.159,0.454-0.282,0.744-0.367c0.293-0.085,0.619-0.128,0.987-0.128
				c0.432,0,0.806,0.044,1.126,0.133c0.315,0.088,0.577,0.186,0.779,0.291l-0.416,1.088c-0.182-0.089-0.385-0.167-0.604-0.235
				c-0.219-0.068-0.485-0.102-0.795-0.102c-0.348,0-0.598,0.045-0.748,0.138c-0.149,0.09-0.229,0.23-0.229,0.419
				c0,0.112,0.032,0.207,0.086,0.283c0.054,0.076,0.134,0.146,0.234,0.208c0.107,0.061,0.225,0.117,0.358,0.167
				c0.133,0.051,0.277,0.103,0.438,0.155c0.336,0.119,0.63,0.235,0.875,0.35c0.251,0.115,0.454,0.248,0.619,0.401
				c0.166,0.154,0.289,0.334,0.369,0.54c0.08,0.207,0.122,0.456,0.122,0.751c0,0.571-0.213,1.015-0.635,1.33
				c-0.422,0.316-1.058,0.474-1.906,0.474c-0.288,0-0.544-0.017-0.772-0.049c-0.229-0.032-0.433-0.072-0.608-0.119
				c-0.178-0.047-0.328-0.098-0.456-0.151c-0.127-0.052-0.234-0.103-0.32-0.149l0.409-1.096c0.192,0.1,0.429,0.189,0.712,0.27
				C22.607,9.355,22.951,9.395,23.362,9.395z"/>
			<path fill="#0288D1" d="M32.662,7.38c0,0.531-0.085,0.993-0.262,1.388c-0.171,0.396-0.416,0.722-0.736,0.981
				c-0.32,0.259-0.71,0.454-1.169,0.583s-0.972,0.195-1.543,0.195c-0.262,0-0.566-0.011-0.913-0.032
				c-0.347-0.02-0.688-0.063-1.02-0.128V4.402c0.331-0.059,0.684-0.099,1.046-0.12c0.363-0.02,0.673-0.031,0.935-0.031
				c0.55,0,1.052,0.059,1.5,0.177c0.448,0.118,0.838,0.303,1.158,0.557c0.32,0.254,0.571,0.578,0.742,0.972
				C32.577,6.352,32.662,6.826,32.662,7.38z M28.466,9.324c0.069,0.007,0.149,0.011,0.24,0.014c0.091,0.002,0.198,0.004,0.32,0.004
				c0.727,0,1.266-0.174,1.612-0.521c0.353-0.349,0.528-0.829,0.528-1.441c0-0.642-0.17-1.128-0.501-1.458
				c-0.337-0.33-0.865-0.495-1.591-0.495c-0.102,0-0.203,0.001-0.311,0.004c-0.106,0.004-0.202,0.011-0.299,0.023V9.324z"/>
		</g>
	</g>
</g>
</svg>
