<?xml version="1.0" encoding="utf-8"?>
<!-- Generator: Adobe Illustrator 16.0.0, SVG Export Plug-In . SVG Version: 6.00 Build 0)  -->
<!DOCTYPE svg PUBLIC "-//W3C//DTD SVG 1.1//EN" "http://www.w3.org/Graphics/SVG/1.1/DTD/svg11.dtd">
<svg version="1.1" id="图层_1" xmlns="http://www.w3.org/2000/svg" xmlns:xlink="http://www.w3.org/1999/xlink" x="0px" y="0px"
	 width="48px" height="48px" viewBox="0 0 48 48" enable-background="new 0 0 48 48" xml:space="preserve">
<polygon opacity="0.06" enable-background="new    " points="7.181,48 7.181,2 42.818,2 42.818,35.003 29.82,48 "/>
<polygon opacity="0.1" enable-background="new    " points="8.181,47 8.181,3 41.818,3 41.818,34.589 29.407,47 "/>
<polygon opacity="0.2" enable-background="new    " points="7.181,46 7.181,2 40.818,2 40.818,33.589 28.408,46 "/>
<polygon fill="#3E2723" points="8.143,45 8.143,3 39.857,3 39.857,33.175 28.004,45 "/>
<g>
	<g>
		
			<linearGradient id="SVGID_1_" gradientUnits="userSpaceOnUse" x1="65.5996" y1="-119.4004" x2="65.5996" y2="-160.4009" gradientTransform="matrix(1 0 0 -1 -41.6001 -115.9004)">
			<stop  offset="0" style="stop-color:#785548"/>
			<stop  offset="1" style="stop-color:#9F9E9F"/>
		</linearGradient>
		<polygon fill="url(#SVGID_1_)" points="8.641,44.5 8.641,3.5 39.359,3.5 39.359,32.953 27.941,44.5 		"/>
		<polygon fill="#795548" fill-opacity="0.7" points="39.359,32.969 39.359,32.473 27.199,32.473 27.199,44.5 27.829,44.5 		"/>
		<path opacity="0.39" fill="#FFFFFF" enable-background="new    " d="M27.813,32.969l11.547,0.016L27.829,44.5L27.813,32.969z"/>
	</g>
	<path fill="#FFFFFF" d="M19.617,11.404h-1.039v13.315h-0.787V11.404h-1.033v13.315h-0.785V11.404h-1.036v13.315H14.15V11.404
		h-1.034v13.315h-0.271v5.64h7.127v-5.64h-0.355V11.404z M18.934,28.719h-5.056v-3.27h5.056V28.719z"/>
	<g>
		<rect x="8.634" y="3.5" opacity="0.8" fill="#FFFFFF" enable-background="new    " width="30.731" height="7.858"/>
		<g enable-background="new    ">
			<path fill="#5D4037" d="M20.755,4.368v1.176H18.81v4.949h-1.451V5.543h-1.945V4.368H20.755z"/>
			<path fill="#5D4037" d="M23.833,10.572c-0.355,0-0.707-0.011-1.054-0.032c-0.353-0.02-0.715-0.068-1.094-0.146V4.456
				c0.299-0.052,0.625-0.092,0.977-0.119c0.353-0.027,0.684-0.04,0.985-0.04c0.408,0,0.787,0.028,1.129,0.084
				c0.348,0.056,0.641,0.152,0.892,0.287c0.245,0.136,0.44,0.313,0.579,0.535c0.142,0.221,0.211,0.494,0.211,0.817
				c0,0.49-0.251,0.875-0.744,1.158c0.408,0.147,0.686,0.347,0.835,0.601s0.224,0.539,0.224,0.857c0,0.643-0.245,1.126-0.738,1.449
				C25.539,10.409,24.808,10.572,23.833,10.572z M23.099,6.771h0.705c0.449,0,0.769-0.053,0.961-0.163s0.288-0.284,0.288-0.526
				c0-0.248-0.102-0.422-0.299-0.522s-0.491-0.149-0.875-0.149c-0.123,0-0.256,0.001-0.4,0.004
				c-0.141,0.003-0.267,0.011-0.379,0.021V6.771z M23.099,7.823v1.583c0.104,0.011,0.219,0.02,0.342,0.025
				c0.125,0.007,0.261,0.009,0.411,0.009c0.432,0,0.785-0.059,1.051-0.176c0.267-0.119,0.4-0.336,0.4-0.654
				c0-0.283-0.112-0.484-0.336-0.606c-0.225-0.12-0.545-0.182-0.958-0.182H23.099z"/>
			<path fill="#5D4037" d="M32.484,5.322c-0.197,0.195-0.436,0.447-0.707,0.757c-0.275,0.308-0.556,0.646-0.847,1.012
				c-0.294,0.364-0.582,0.742-0.864,1.13c-0.289,0.39-0.543,0.761-0.764,1.114h3.283v1.157h-5.069V9.67
				c0.174-0.3,0.388-0.634,0.638-1.002c0.252-0.368,0.513-0.739,0.785-1.114c0.272-0.374,0.55-0.735,0.833-1.086
				c0.282-0.351,0.544-0.665,0.784-0.941h-2.893V4.368h4.82V5.322z"/>
		</g>
	</g>
</g>
</svg>
