<?xml version="1.0" encoding="utf-8"?>
<!-- Generator: Adobe Illustrator 16.0.0, SVG Export Plug-In . SVG Version: 6.00 Build 0)  -->
<!DOCTYPE svg PUBLIC "-//W3C//DTD SVG 1.1//EN" "http://www.w3.org/Graphics/SVG/1.1/DTD/svg11.dtd">
<svg version="1.1" id="图层_1" xmlns="http://www.w3.org/2000/svg" xmlns:xlink="http://www.w3.org/1999/xlink" x="0px" y="0px"
	 width="48px" height="48px" viewBox="0 0 48 48" enable-background="new 0 0 48 48" xml:space="preserve">
<polygon opacity="0.06" enable-background="new    " points="7.181,48 7.181,2 42.818,2 42.818,35.003 29.82,48 "/>
<polygon opacity="0.1" enable-background="new    " points="8.181,47 8.181,3 41.818,3 41.818,34.589 29.407,47 "/>
<polygon opacity="0.2" enable-background="new    " points="7.181,46 7.181,2 40.818,2 40.818,33.589 28.408,46 "/>
<polygon fill="#0D47A1" points="8.143,45 8.143,3 39.857,3 39.857,33.176 28.002,45 "/>
<g>
	<g>
		<g>
			<g>
				
					<linearGradient id="SVGID_1_" gradientUnits="userSpaceOnUse" x1="107.2002" y1="869.3008" x2="107.2002" y2="828.3008" gradientTransform="matrix(1 0 0 1 -83.2002 -824.8008)">
					<stop  offset="0" style="stop-color:#1976D2"/>
					<stop  offset="0.0226" style="stop-color:#1C79D3"/>
					<stop  offset="0.2859" style="stop-color:#3B93E2"/>
					<stop  offset="0.5416" style="stop-color:#52A6ED"/>
					<stop  offset="0.7843" style="stop-color:#5FB1F4"/>
					<stop  offset="1" style="stop-color:#64B5F6"/>
				</linearGradient>
				<polygon fill="url(#SVGID_1_)" points="8.641,44.5 8.641,3.5 39.359,3.5 39.359,32.969 27.828,44.5 				"/>
			</g>
			<polygon fill="#0D47A1" fill-opacity="0.39" points="39.359,32.969 39.359,32.473 27.195,32.473 27.195,44.5 27.828,44.5 			"/>
			<path fill="#FFFFFF" fill-opacity="0.45" d="M27.812,32.969l11.55,0.016L27.828,44.5L27.812,32.969z"/>
		</g>
		<g>
			<path fill="#64B5F6" d="M33.543,22.655c0,5.269-4.276,9.545-9.544,9.545c-5.266,0-9.542-4.276-9.542-9.545
				c0-5.264,4.276-9.54,9.542-9.54C29.267,13.115,33.543,17.391,33.543,22.655z"/>
			<path fill="#FFFFFF" fill-opacity="0.8" d="M17.739,15.466c0,0,0.197,0.104,0.273,0.272c0.062,0.168,0.274,0.168,0.274,0.168
				h0.306l0.445-0.139l-0.109,0.246c0,0-2.334,1.083-1.863,1.724c0.474,0.641,0.306,0.809,0.306,1.009
				c0,0.197,0.139,0.029,0.139,0.029l0.136-0.366l0.199-0.272l0.2-0.31l0.062-0.166l0.273-0.472l0.336-0.198l0.306,0.198
				c0,0,0.137,0.059,0.105,0.165c-0.03,0.11-0.062,0.307-0.062,0.307s0.062,0.139,0.168,0.139c0.108,0,0.275-0.106,0.275-0.106
				l0.139,0.243l0.108,0.446l0.272,0.272l0.14,0.304l-0.14,0.275l0.14,0.109l0.306,0.336l0.059,0.166l-0.504-0.029
				c0,0-0.06-0.142-0.166-0.142c-0.107,0-0.535-0.029-0.535-0.029l-0.247,0.062l-0.133,0.166c0,0-0.17,0.277-0.278,0.277
				c-0.104,0-0.363-0.059-0.363-0.059s-0.2-0.064-0.309,0.133c-0.106,0.203,0.166,0.307,0.166,0.307l-0.471,0.139l-0.139,0.062
				c0,0-0.336,0.139-0.336,0.246c0,0.106,0,0.106,0,0.106l-0.103,0.272v0.168l-0.247,0.2l-0.246,0.166l-0.104,0.2v0.336
				c0,0-0.032,0.168-0.032,0.275c0,0.107,0,0.366,0,0.366s-0.108,0.109-0.168-0.107c-0.062-0.2-0.062-0.2-0.062-0.2l-0.106-0.245
				c0,0,0.106-0.027-0.031-0.136c-0.136-0.104-0.275-0.136-0.275-0.136s-0.059-0.059-0.199-0.059c-0.136,0,0.168,0.026-0.136,0
				c-0.306-0.032-0.306-0.032-0.306-0.032l-0.246,0.198v0.166c0,0-0.058,1.193,0.275,1.361h0.14l0.196-0.305l0.169,0.059v0.139
				l-0.032,0.246v0.139l0.166,0.168l0.108,0.307c0.139,0.24,0.062,0.304,0.167,0.363c0.107,0.059,0.2,0.245,0.2,0.245l0.136,0.059
				c0,0,0.107,0.032,0.197,0.063c0.11,0.031,0.11,0.031,0.11,0.031l0.033,0.152l0.032,0.123l0.136,0.165c0,0-0.105,0,0.139,0
				c0.244,0,0.244,0,0.244,0s0,0.063,0.168,0.142c0.167,0.057,0.033,0.031,0.167,0.057c0.139,0.034,0.367,0.061,0.367,0.061
				c0.243-0.029,0.243-0.029,0.243-0.029l0.169,0.246c0,0,0.105,0,0.136,0.104c0.032,0.109-0.166,0,0.032,0.109
				c0.199,0.107,0,0.032,0.199,0.107c0.197,0.077-0.064,0.061,0.195,0.061s0.306,0,0.414,0.029c0.107,0.029,0.168,0.278,0.168,0.278
				c0.197,0.243,0.197,0.243,0.197,0.243l0.032,0.304c0,0-0.107,0.062,0.136,0.062c0.247,0,0.063,0,0.247,0
				c0.182,0-0.031-0.062,0.167,0c0.197,0.059,0.197,0.059,0.197,0.059s0.306,0.248,0.414,0.248c0.106,0,0.306-0.034,0.412,0
				c0.108,0.029,0.166,0.195,0.364,0.243c0.2,0.032,0.275,0,0.413,0.106c0.14,0.107,0.14,0.107,0.14,0.107l0.031,0.363l-0.109,0.199
				L22,29.037l-0.032,0.339l-0.14,0.339v0.163c0,0,0.169,0.142-0.136,0.171c-0.303,0.026-0.303,0.026-0.303,0.026l-0.139,0.139
				c0,0,0,0.034-0.061,0.14c-0.059,0.104-0.138,0.277-0.138,0.277l0.033,0.304v0.197l-0.108,0.166c0,0-0.093,0.048,0.166,0.216
				c0.273,0.166,0.488,0.166,0.553,0.27c0.059,0.112,0.229,0.203,0.229,0.203l-0.369-0.077l-0.231-0.077l-0.38-0.104l-0.732-0.382
				c0,0-1.1-0.902-1.438-1.631c0,0-0.287-0.43-0.777-0.611c0,0-1.208-1.102-1.314-1.377l-0.047-0.185v-0.091l-0.046-0.048v-0.104
				l-0.028-0.077l0.016-0.339l0.016-0.227l0.015-0.123l-0.015-0.091c0,0-0.063-0.059-0.063-0.075c0-0.013-0.045-0.154-0.045-0.154
				l-0.015-0.043l0.184-0.154l-0.049-0.139l0.031-0.078l0.108-0.074c0,0,0.061-0.091,0.061-0.107c0-0.029-0.106-0.106-0.106-0.106
				l-0.044,0.017l-0.049,0.139h-0.059c0,0-0.062-0.032-0.062-0.049c0-0.016-0.059-0.074-0.059-0.074l-0.077-0.032
				c0,0-0.062-0.017-0.076-0.046c-0.018-0.029-0.094-0.074-0.094-0.093c0-0.013-0.059-0.106-0.059-0.106l-0.077-0.027
				c0,0-0.094-0.139-0.094-0.17c0-0.012-0.046-0.089-0.046-0.089s-0.107-0.122-0.107-0.139c0-0.013-0.047-0.122-0.047-0.122h-0.073
				l-0.168-0.064l-0.108-0.134l-0.122-0.139c0,0-0.063-0.109-0.063-0.136c0-0.032-0.045-0.064-0.045-0.064h-0.076h-0.044
				l-0.107-0.091l-0.273-0.379l-0.049-0.171l-0.044-0.182l-0.032-0.307v-0.2l-0.122-1.417
				C14.471,21.448,14.883,17.936,17.739,15.466z"/>
			<path fill="#FFFFFF" fill-opacity="0.8" d="M28.521,14.271l0.308,0.248l0.151,0.075l0.104,0.123l0.019,0.123
				c0,0,0.029,0.123,0.017,0.152c-0.017,0.032-0.035,0.198-0.035,0.198s0.139,0.248,0.139,0.277s0.017,0.166-0.014,0.198
				c-0.031,0.013-0.2,0.12-0.216,0.075c-0.014-0.045-0.12-0.152-0.152-0.152c-0.032-0.019-0.122-0.107-0.122-0.107l0.245-0.035
				l-0.032-0.152c0,0-0.165-0.059-0.213-0.059c-0.046-0.016-0.217-0.106-0.217-0.106l-0.182-0.045c0,0-0.304-0.078-0.336-0.093
				c-0.029-0.016-0.155-0.059-0.155-0.059h-0.256c0,0-0.126,0.059-0.155,0.091c-0.013,0.032-0.168,0.198-0.168,0.198
				s-0.013,0.197-0.013,0.229c0,0.032-0.046,0.109-0.046,0.197c0,0.094-0.019,0.216-0.019,0.249c0,0.032,0,0.077,0,0.077
				l-0.029,0.134l-0.106,0.064l-0.137,0.106c0,0-0.12,0.091-0.12,0.123s0,0.152,0.046,0.243c0.042,0.091,0.029,0.179,0.088,0.227
				c0.062,0.048,0.091,0.107,0.139,0.125c0.048,0.013,0.014,0.029,0.091,0.029c0.062,0,0.123,0.016,0.152-0.016
				c0.031-0.013,0.109-0.013,0.142-0.059c0.029-0.048-0.032-0.016,0.029-0.048c0.059-0.016,0.059-0.059,0.109-0.016
				c0.059,0.048,0.106,0.109,0.12,0.139c0.016,0.032,0.062,0.107,0.109,0.155c0.059,0.032,0.106,0.152,0.106,0.152l0.091,0.093
				c0,0,0.014,0.013,0.075,0.013c0.061,0,0.151-0.013,0.151-0.013l0.035-0.062c0,0,0.056,0.016,0.074-0.013
				c0.017-0.032,0.017-0.077,0.017-0.077s-0.035-0.094-0.059-0.12c-0.019-0.032-0.051-0.11-0.051-0.11l0.019-0.106l0.056-0.062
				l0.019-0.075v-0.096l-0.066-0.032l-0.106-0.062c0,0-0.059,0.013-0.059-0.062c-0.017-0.059-0.017-0.059-0.017-0.059l-0.136-0.032
				l-0.094-0.048l0.106-0.075c0.062-0.107,0.078-0.139,0.078-0.166c0-0.032-0.017-0.123-0.017-0.123s-0.062-0.016-0.062-0.096
				c-0.013-0.075-0.013-0.12-0.013-0.12l0.013-0.059c0,0,0.017-0.048,0.062-0.048c0.032,0,0.091,0.048,0.123,0.048
				c0.029,0,0.088,0.014,0.088,0.014s0.032,0.013,0.032,0.064c0,0.026-0.014,0.102-0.014,0.102l0.06-0.088v0.109l-0.017,0.12v0.12
				l0.062,0.123l0.059,0.096c0,0,0.075,0.075,0.109,0.106c0.035,0.011,0.109,0.072,0.109,0.072l0.091,0.045l0.059,0.016l0.062-0.062
				c0,0,0.109,0.013,0.109-0.019c0.017-0.032,0.017-0.032,0.017-0.032s0.122-0.011,0.154-0.011c0.029,0,0.091,0,0.091,0
				s0.046,0.088,0.017,0.088c-0.032,0-0.049,0.032-0.126,0.062c-0.077,0.016-0.106,0-0.12,0.032
				c-0.016,0.032-0.062,0.106-0.062,0.106l0.062,0.016h0.043l0.063,0.064c0,0,0.014,0.011,0,0.059
				c-0.019,0.042,0.057,0.032-0.019,0.042c-0.088,0.021-0.133-0.011-0.133-0.011s-0.017-0.08-0.064-0.045
				c-0.032,0.032-0.048,0.107-0.048,0.107v0.104l0.063,0.155c0,0,0.027,0.032,0,0.048c-0.029,0.016-0.136,0.136-0.136,0.136
				s-0.019,0.045-0.064,0.045c-0.026,0-0.071,0-0.154,0.016c-0.057,0.014-0.057,0.014-0.117,0.032
				c-0.062,0.013-0.107,0.027-0.2,0.042c-0.091,0.016-0.26,0.016-0.315,0.016c-0.064,0-0.077,0-0.112-0.016
				c-0.029-0.016-0.016,0-0.059-0.061c-0.045-0.062-0.094-0.107-0.094-0.152c0-0.032,0-0.048-0.019-0.109
				c-0.013-0.059-0.013-0.104-0.056-0.104c-0.064,0-0.064,0-0.064,0s-0.117,0.091-0.104,0.123c0.013,0.032-0.014,0,0.091,0.075
				c0.104,0.075,0.139,0.184,0.139,0.184l-0.019,0.107l-0.198,0.109l-0.136,0.043l-0.016,0.091c0,0,0,0.032-0.029,0.077
				c-0.032,0.045-0.11,0.107-0.11,0.107s-0.061,0.013-0.074,0.061c-0.016,0.032-0.062,0.15-0.062,0.15s-0.062-0.014-0.123,0.032
				c-0.059,0.048,0.017,0.048-0.122,0.109c-0.137,0.059-0.137,0.059-0.137,0.059l-0.154-0.014l-0.091,0.032
				c0,0-0.12,0.013-0.137,0.045c-0.016,0.029-0.077,0.12-0.077,0.12s-0.029,0.064,0,0.064c0.032,0.011,0.077,0,0.152,0.011
				c0.062,0.021,0.077,0.021,0.125,0.048c0.046,0.019,0.091,0.064,0.091,0.064l0.166,0.15l0.096,0.197l-0.019,0.155l-0.182,0.059
				c0,0-0.106,0-0.152,0c-0.034,0-0.021,0-0.2,0c-0.182,0-0.213,0-0.245,0s-0.152-0.016-0.152-0.016l-0.106,0.016l-0.078,0.064
				l-0.045,0.013c0,0,0.064,0.136,0.064,0.184c0,0.045,0,0.104,0,0.104l-0.02,0.096l-0.045,0.107l-0.062,0.104l0.019,0.062
				c0,0-0.019,0.045,0.017,0.045c0.029,0,0.117-0.014,0.117,0.019c0,0.029-0.072,0.152-0.072,0.152l0.155,0.032
				c0,0-0.017-0.016,0.071,0.016c0.091,0.011,0.152,0.042,0.152,0.042l0.104,0.075l0.034,0.061l0.032-0.061
				c0,0,0.166-0.016,0.195-0.032c0.034-0.013,0.109-0.013,0.109-0.013h0.136c0,0,0.032,0.013,0.062-0.019
				c0.014-0.026,0.014-0.026,0.014-0.026s0.154-0.059,0.184-0.091c0.032-0.016,0.046-0.109,0.046-0.109s0.048-0.029,0.048-0.059
				c0-0.029-0.032-0.106-0.032-0.106v-0.064l0.046-0.059c0,0,0.016-0.019,0.062-0.061c0.048-0.048,0.048-0.048,0.048-0.048
				s-0.019-0.011,0.042-0.042c0.064-0.019,0.11-0.064,0.14-0.064s-0.029,0.032,0.029,0c0.062-0.032,0.077-0.059,0.077-0.106
				c0-0.029,0.019-0.198,0.019-0.198l0.056-0.091l0.152,0.016l0.08,0.016c0,0,0.091,0.016,0.104-0.016
				c0.016-0.032,0.062-0.059,0.062-0.059l0.122-0.064c0,0-0.013-0.016,0.049-0.016c0.059,0,0.151,0,0.2,0c0.029,0,0.104,0,0.104,0
				s0.062,0.032,0.091,0.059c0.017,0.032,0.062,0.107,0.062,0.107l0.048,0.064h0.046c0.062,0.045,0.088,0.078,0.197,0.107
				c0.106,0.032,0.185,0.059,0.185,0.059s0.029,0.064,0.056,0.091c0.032,0.032,0.062,0.064,0.106,0.096
				c0.032,0.011,0.062,0.042,0.078,0.075c0.019,0.032,0.063,0.091,0.063,0.091l0.057,0.064l0.034-0.064v-0.107l-0.014-0.059
				c0,0-0.061-0.045,0.014-0.045c0.062,0,0.109,0,0.109,0l-0.062-0.094l-0.077-0.032l-0.104-0.075l-0.048-0.048l-0.048-0.013
				l-0.045-0.029l-0.062-0.048c0,0-0.104-0.016-0.104-0.059c-0.019-0.032-0.019-0.032-0.019-0.032l-0.106-0.016
				c0,0-0.104-0.059-0.104-0.091s-0.019-0.123-0.019-0.123l-0.088-0.013c0,0,0.013-0.062,0.013-0.107
				c0-0.032,0.032-0.077,0.032-0.077l0.197-0.013l0.043,0.104l0.075,0.048l0.109,0.045l0.045,0.062l0.051,0.048
				c0,0,0.017,0.011,0.075,0.032c0.059,0.013,0.104,0.027,0.104,0.027s0.064,0.061,0.109,0.061c0.046,0.016,0.062,0.032,0.109,0.048
				c-0.034,0.029-0.034,0.029-0.034,0.029s0.016,0.032,0.062,0.059c0.045,0.032,0.091,0.091,0.091,0.123
				c0,0.032,0.032,0.139,0.062,0.155c0.029,0.016,0.045,0.016,0.106,0.075c0.056,0.059,0.056,0.123,0.104,0.155
				c0.061,0.016,0.106,0,0.106,0.059c0.019,0.062,0.019,0.107,0.019,0.107s0.048,0.016,0.075,0.016c0.029,0,0.09-0.059,0.09-0.059
				s0.064-0.093,0.02-0.112c-0.029-0.014-0.107-0.014-0.107-0.045c0-0.029,0-0.198,0-0.198l0.046-0.109l0.062-0.088l0.091,0.029
				l0.09-0.059l0.094,0.107l-0.029,0.12c0,0,0.014,0.078,0.056,0.136c0.035,0.062,0.107,0.139,0.107,0.139l0.154,0.139l0.217,0.059
				l0.048-0.014l0.317-0.061c0,0,0.048,0,0.075,0c0.032,0,0.184,0.261,0.184,0.261s0,0.107,0,0.166c0,0.059,0,0.214,0,0.214
				s-0.106,0.106-0.151,0.106c-0.049,0-0.169,0.059-0.169,0.059l-0.256,0.064l-0.168-0.016l-0.305-0.016
				c0,0-0.307-0.016-0.339-0.016s-0.139,0-0.168,0s-0.075,0.032-0.104,0.123c-0.034,0.091-0.093,0.12-0.093,0.12s0,0.045-0.06,0.045
				c-0.063,0-0.063,0.019-0.109-0.014c-0.045-0.032-0.259-0.077-0.259-0.077l-0.2-0.133l-0.109-0.091l-0.106-0.016h-0.305
				l-0.2-0.016l0.035-0.32l0.029,0.091l-0.064-0.213l-0.091-0.059l-0.213-0.048l-0.137,0.016l-0.179,0.045l-0.187,0.061
				l-0.109,0.032l-0.516,0.088l-0.187,0.078c0,0-0.077,0.045-0.104,0.059c-0.029,0.016-0.154,0.016-0.154,0.016
				s-0.091-0.016-0.137-0.029c-0.045-0.013-0.154-0.013-0.2-0.013c-0.045,0-0.139-0.016-0.168,0
				c-0.029,0.013-0.062,0.013-0.091,0.059c-0.032,0.048-0.139,0.171-0.139,0.171s-0.056,0.059-0.091,0.091
				c-0.014,0.026-0.091,0.12-0.091,0.12l-0.123,0.2l-0.077,0.09l0.019,0.107v0.078c0,0-0.048,0.045-0.074,0.061
				c-0.035,0.014-0.096,0.048-0.096,0.048s-0.046,0.011-0.092,0.056c-0.043,0.032-0.043,0.05-0.076,0.077
				c-0.033,0.032-0.14,0.107-0.14,0.107s-0.059,0.045-0.105,0.091c-0.028,0.048-0.093,0.106-0.106,0.139
				c-0.016,0.032-0.062,0.059-0.094,0.075c-0.025,0.016-0.091,0.139-0.104,0.171c-0.016,0.027-0.109,0.166-0.109,0.166l-0.061,0.262
				l-0.014,0.12c0,0,0.014,0.045,0.047,0.077c0.031,0.027,0.061,0.155,0.061,0.155v0.107c0,0-0.033,0.091-0.049,0.123
				c-0.012,0.027,0.016,0.182,0.016,0.182v0.091c0,0,0,0.032-0.046,0.075c-0.048,0.048-0.06,0.107-0.06,0.107l0.06,0.139
				l0.046,0.091v0.064l0.06,0.102c0,0,0.032,0.035,0.06,0.064c0.035,0.016,0.05,0.016,0.112,0.064c0.06,0.027,0.06,0.027,0.06,0.027
				s0.094,0.106,0.094,0.154c0,0.032,0.059,0.094,0.059,0.094l0.107,0.107c0,0,0.018,0.059,0.074,0.104
				c0.062,0.048,0.125,0.078,0.155,0.107c0.032,0.016,0.12,0.09,0.197,0.105c0.062,0.017,0.094,0.033,0.126,0.033
				c0.026,0-0.049-0.094,0.165,0.016c0.216,0.106,0.353,0.152,0.353,0.152l0.154,0.061c0,0,0.249,0.017,0.272-0.016
				c0.029-0.016,0.075-0.016,0.104-0.016s0.109,0,0.171,0c0.059,0,0.272-0.032,0.272-0.032l0.242-0.091c0,0,0.078-0.045,0.109-0.059
				c0.032-0.016,0.12-0.074,0.155-0.091c0.032-0.019,0.182-0.019,0.182-0.019s0-0.045,0.062,0c0.061,0.045,0.061,0.061,0.077,0.094
				c0.019,0.031,0.019,0.106,0.062,0.106c0.045,0.016,0.152,0.048,0.152,0.048s0.154-0.016,0.197,0
				c0.051,0.014,0.154,0.014,0.154,0.014l0.049,0.061l0.013,0.139v0.123c0,0-0.013,0.049,0,0.092
				c0.017,0.042,0.064,0.122,0.064,0.122s-0.064,0.091-0.097,0.104c-0.034,0.014-0.106,0.106-0.106,0.106l0.214,0.198l0.122,0.122
				l0.094,0.109c0,0,0.017,0.046,0.017,0.075s-0.017,0.106,0,0.152c0.013,0.034,0.013,0.154,0.013,0.154s0.017,0.091,0.017,0.123
				c0,0.031-0.029,0.182-0.029,0.182l-0.017,0.106l-0.066,0.185l-0.072,0.09l-0.109,0.107L28.58,27.85l-0.013,0.165l-0.064,0.104
				c0,0,0.019,0.096,0.019,0.141c0,0.046,0.091,0.214,0.091,0.214l-0.016,0.139c0,0-0.059,0.2-0.059,0.245
				c0,0.049-0.049,0.107-0.049,0.155c0,0.03-0.016,0.165-0.016,0.165l0.016,0.169l0.057,0.165l-0.057,0.155
				c0,0-0.031,0.12-0.031,0.197c0,0.06,0.109,0.136,0.139,0.136c0.032,0,0.168-0.016,0.232-0.059
				c0.056-0.031,0.208-0.074,0.242-0.094c0.032-0.016,0.062,0.02,0.152-0.059c0.091-0.061,0.229-0.165,0.229-0.165
				s0.109-0.077,0.155-0.106c0.026-0.035,0.179-0.205,0.179-0.205s0.106-0.105,0.182-0.152c0.077-0.049,0-0.014,0.077-0.057
				c0.075-0.045,0.317-0.248,0.317-0.248l0.248-0.243c0,0,0.214-0.274,0.246-0.32c0.032-0.05,0.227-0.307,0.259-0.325
				c0.029-0.014,0.305-0.195,0.366-0.243c0.059-0.048,0.139-0.368,0.165-0.413c0.029-0.029,0.2-0.412,0.2-0.412l0.155-0.443
				l0.256-0.658l0.259-0.459c0,0,0.104-0.201,0.152-0.26c0.032-0.059,0.277-0.533,0.277-0.533l0.094-0.396l0.029-0.336h-0.152
				l-0.171,0.155l-0.154-0.048l-0.149,0.019l0.17-0.216l-0.048-0.165L32.43,23.45l-0.185-0.272V22.9l-0.197-0.32l-0.123-0.502
				c0,0-0.229-0.248-0.197-0.304c0.014-0.064,0.075-0.249,0.075-0.249l0.122,0.062c0,0,0.091,0.243,0.137,0.256
				c0.051,0.016,0.106,0.139,0.125,0.166c0.017,0.035,0.029,0.142,0.059,0.171c0.017,0.029,0.12,0.229,0.12,0.229
				s0.078,0.197,0.094,0.246c0.016,0.032,0.091,0.155,0.109,0.243c0.016,0.094,0.059,0.382,0.059,0.414
				c0,0.032,0.075,0.352,0.075,0.352s0.106-0.032,0.12-0.059c0.019-0.032,0.019-0.048,0.051-0.078
				c0.016-0.029,0.197-0.168,0.197-0.168l0.077-0.246c0,0,0.048-0.107,0.057-0.152c0.019-0.045,0.109-0.216,0.109-0.243
				c0-0.032-0.014-0.155,0-0.203c0.016-0.027,0.061-0.214,0.061-0.243c0-0.032,0.014-0.155,0.014-0.155l-0.014-0.275l0.12-0.152
				l0.062-0.168C33.529,21.467,33.086,16.67,28.521,14.271z"/>
		</g>
	</g>
	<g>
		<rect x="8.633" y="3.5" opacity="0.8" fill="#FFFFFF" enable-background="new    " width="30.734" height="7.858"/>
		<g enable-background="new    ">
			<path fill="#1976D2" d="M21.187,7.381c0,0.523-0.083,0.985-0.246,1.382c-0.166,0.398-0.39,0.731-0.675,0.999
				c-0.286,0.267-0.625,0.47-1.02,0.603c-0.393,0.139-0.817,0.206-1.268,0.206c-0.44,0-0.857-0.066-1.247-0.206
				c-0.392-0.133-0.731-0.336-1.025-0.603c-0.291-0.267-0.521-0.601-0.686-0.999c-0.168-0.397-0.253-0.859-0.253-1.382
				c0-0.526,0.088-0.988,0.262-1.384c0.173-0.397,0.408-0.731,0.702-1.003c0.296-0.271,0.635-0.474,1.025-0.609
				c0.387-0.136,0.793-0.204,1.223-0.204c0.44,0,0.854,0.068,1.247,0.204c0.39,0.135,0.731,0.338,1.022,0.609
				c0.291,0.272,0.521,0.606,0.688,1.003C21.104,6.394,21.187,6.855,21.187,7.381z M16.267,7.381c0,0.299,0.038,0.571,0.115,0.811
				c0.078,0.243,0.189,0.449,0.336,0.625c0.144,0.173,0.323,0.307,0.534,0.4c0.211,0.096,0.454,0.144,0.726,0.144
				c0.267,0,0.507-0.048,0.721-0.144c0.214-0.094,0.393-0.227,0.539-0.4c0.147-0.176,0.256-0.382,0.334-0.625
				c0.077-0.24,0.117-0.512,0.117-0.811c0-0.302-0.04-0.574-0.117-0.817c-0.078-0.246-0.187-0.455-0.334-0.629
				c-0.146-0.173-0.325-0.308-0.539-0.403c-0.213-0.093-0.454-0.142-0.721-0.142c-0.272,0-0.515,0.049-0.726,0.147
				c-0.211,0.097-0.39,0.232-0.534,0.406c-0.147,0.175-0.259,0.383-0.336,0.626C16.305,6.815,16.267,7.087,16.267,7.381z"/>
			<path fill="#1976D2" d="M26.966,4.322v1.176H25.02v4.947h-1.452V5.498h-1.943V4.322H26.966z"/>
			<path fill="#1976D2" d="M31.781,4.322h1.452v6.123h-1.452V7.848h-2.435v2.597h-1.452V4.322h1.452v2.343h2.435V4.322z"/>
		</g>
	</g>
</g>
</svg>
