<?xml version="1.0" encoding="utf-8"?>
<!-- Generator: Adobe Illustrator 16.0.0, SVG Export Plug-In . SVG Version: 6.00 Build 0)  -->
<!DOCTYPE svg PUBLIC "-//W3C//DTD SVG 1.1//EN" "http://www.w3.org/Graphics/SVG/1.1/DTD/svg11.dtd">
<svg version="1.1" id="图层_1" xmlns="http://www.w3.org/2000/svg" xmlns:xlink="http://www.w3.org/1999/xlink" x="0px" y="0px"
	 width="48px" height="48px" viewBox="0 0 48 48" enable-background="new 0 0 48 48" xml:space="preserve">
<polygon opacity="0.06" enable-background="new    " points="7.181,48 7.181,2 42.818,2 42.818,35.003 29.82,48 "/>
<polygon opacity="0.1" enable-background="new    " points="8.181,47 8.181,3 41.818,3 41.818,34.589 29.407,47 "/>
<polygon opacity="0.2" enable-background="new    " points="7.181,46 7.181,2 40.818,2 40.818,33.589 28.408,46 "/>
<polygon fill="#0D47A1" points="8.143,45 8.143,3 39.857,3 39.857,33.175 28.004,45 "/>
<g>
	<g>
		<g>
			<g>
				<linearGradient id="SVGID_1_" gradientUnits="userSpaceOnUse" x1="24.0142" y1="44.5" x2="24.0142" y2="3.5005">
					<stop  offset="0" style="stop-color:#3F51B5"/>
					<stop  offset="1" style="stop-color:#64B5F6"/>
				</linearGradient>
				<polygon fill="url(#SVGID_1_)" points="8.654,44.5 8.654,3.5 39.373,3.5 39.373,32.969 27.842,44.5 				"/>
			</g>
			<polygon fill="#2196F3" fill-opacity="0.7" points="39.373,32.969 39.373,32.473 27.209,32.473 27.209,44.5 27.842,44.5 			"/>
			<path opacity="0.39" fill="#FFFFFF" d="M27.825,32.969l11.55,0.016L27.842,44.5L27.825,32.969z"/>
		</g>
		<g opacity="0.8">
			<linearGradient id="SVGID_2_" gradientUnits="userSpaceOnUse" x1="13.208" y1="17.4873" x2="34.8027" y2="17.4873">
				<stop  offset="0" style="stop-color:#F6F5F5"/>
				<stop  offset="0.341" style="stop-color:#F1F2F3"/>
				<stop  offset="0.6434" style="stop-color:#E7EAEB"/>
				<stop  offset="0.9302" style="stop-color:#D5DBDF"/>
				<stop  offset="1" style="stop-color:#CFD7DB"/>
			</linearGradient>
			<rect x="13.208" y="16.953" opacity="0.8" fill="url(#SVGID_2_)" enable-background="new    " width="21.595" height="1.068"/>
			<linearGradient id="SVGID_3_" gradientUnits="userSpaceOnUse" x1="13.208" y1="14.1489" x2="34.8027" y2="14.1489">
				<stop  offset="0" style="stop-color:#F6F5F5"/>
				<stop  offset="0.341" style="stop-color:#F1F2F3"/>
				<stop  offset="0.6434" style="stop-color:#E7EAEB"/>
				<stop  offset="0.9302" style="stop-color:#D5DBDF"/>
				<stop  offset="1" style="stop-color:#CFD7DB"/>
			</linearGradient>
			<rect x="13.208" y="13.614" opacity="0.8" fill="url(#SVGID_3_)" enable-background="new    " width="21.595" height="1.07"/>
			<linearGradient id="SVGID_4_" gradientUnits="userSpaceOnUse" x1="23.5103" y1="25.7285" x2="34.7871" y2="25.7285">
				<stop  offset="0" style="stop-color:#F6F5F5"/>
				<stop  offset="0.341" style="stop-color:#F1F2F3"/>
				<stop  offset="0.6434" style="stop-color:#E7EAEB"/>
				<stop  offset="0.9302" style="stop-color:#D5DBDF"/>
				<stop  offset="1" style="stop-color:#CFD7DB"/>
			</linearGradient>
			<rect x="23.51" y="20.092" opacity="0.8" fill="url(#SVGID_4_)" enable-background="new    " width="11.277" height="11.272"/>
			<g opacity="0.8">
				<linearGradient id="SVGID_5_" gradientUnits="userSpaceOnUse" x1="13.208" y1="20.8223" x2="22.5879" y2="20.8223">
					<stop  offset="0" style="stop-color:#F6F5F5"/>
					<stop  offset="0.341" style="stop-color:#F1F2F3"/>
					<stop  offset="0.6434" style="stop-color:#E7EAEB"/>
					<stop  offset="0.9302" style="stop-color:#D5DBDF"/>
					<stop  offset="1" style="stop-color:#CFD7DB"/>
				</linearGradient>
				<rect x="13.208" y="20.287" fill="url(#SVGID_5_)" width="9.38" height="1.07"/>
				<linearGradient id="SVGID_6_" gradientUnits="userSpaceOnUse" x1="13.208" y1="24.1602" x2="22.5879" y2="24.1602">
					<stop  offset="0" style="stop-color:#F6F5F5"/>
					<stop  offset="0.341" style="stop-color:#F1F2F3"/>
					<stop  offset="0.6434" style="stop-color:#E7EAEB"/>
					<stop  offset="0.9302" style="stop-color:#D5DBDF"/>
					<stop  offset="1" style="stop-color:#CFD7DB"/>
				</linearGradient>
				<rect x="13.208" y="23.626" fill="url(#SVGID_6_)" width="9.38" height="1.068"/>
				<linearGradient id="SVGID_7_" gradientUnits="userSpaceOnUse" x1="13.208" y1="27.5098" x2="22.5879" y2="27.5098">
					<stop  offset="0" style="stop-color:#F6F5F5"/>
					<stop  offset="0.341" style="stop-color:#F1F2F3"/>
					<stop  offset="0.6434" style="stop-color:#E7EAEB"/>
					<stop  offset="0.9302" style="stop-color:#D5DBDF"/>
					<stop  offset="1" style="stop-color:#CFD7DB"/>
				</linearGradient>
				<rect x="13.208" y="26.977" fill="url(#SVGID_7_)" width="9.38" height="1.067"/>
				<linearGradient id="SVGID_8_" gradientUnits="userSpaceOnUse" x1="13.208" y1="30.8467" x2="22.5879" y2="30.8467">
					<stop  offset="0" style="stop-color:#F6F5F5"/>
					<stop  offset="0.341" style="stop-color:#F1F2F3"/>
					<stop  offset="0.6434" style="stop-color:#E7EAEB"/>
					<stop  offset="0.9302" style="stop-color:#D5DBDF"/>
					<stop  offset="1" style="stop-color:#CFD7DB"/>
				</linearGradient>
				<rect x="13.208" y="30.313" fill="url(#SVGID_8_)" width="9.38" height="1.068"/>
			</g>
		</g>
	</g>
	<g>
		<rect x="8.625" y="3.5" opacity="0.8" fill="#FFFFFF" width="30.734" height="7.858"/>
		<g>
			<path fill="#1976D2" d="M21.54,7.424c0,0.523-0.083,0.988-0.247,1.383c-0.164,0.4-0.39,0.731-0.674,0.998
				c-0.285,0.27-0.625,0.47-1.02,0.606c-0.394,0.136-0.817,0.206-1.269,0.206c-0.44,0-0.855-0.069-1.247-0.206
				s-0.731-0.336-1.024-0.606c-0.291-0.267-0.521-0.598-0.687-0.998c-0.168-0.395-0.252-0.86-0.252-1.383s0.088-0.985,0.262-1.383
				c0.173-0.397,0.407-0.731,0.702-1.003c0.293-0.27,0.635-0.475,1.023-0.609c0.387-0.136,0.794-0.203,1.223-0.203
				c0.44,0,0.855,0.067,1.247,0.203c0.391,0.134,0.731,0.339,1.023,0.609c0.291,0.272,0.521,0.606,0.688,1.003
				C21.456,6.439,21.54,6.901,21.54,7.424z M16.62,7.424c0,0.299,0.039,0.571,0.116,0.814c0.078,0.243,0.188,0.449,0.335,0.622
				c0.145,0.176,0.323,0.31,0.534,0.403c0.211,0.093,0.454,0.141,0.726,0.141c0.267,0,0.507-0.048,0.721-0.141
				c0.215-0.094,0.394-0.227,0.539-0.403c0.147-0.173,0.258-0.379,0.335-0.622c0.078-0.243,0.116-0.515,0.116-0.814
				s-0.039-0.571-0.116-0.817c-0.077-0.246-0.188-0.454-0.335-0.627c-0.146-0.174-0.324-0.307-0.539-0.403
				c-0.214-0.093-0.454-0.142-0.721-0.142c-0.272,0-0.515,0.051-0.726,0.147s-0.389,0.232-0.534,0.406
				c-0.147,0.176-0.258,0.384-0.335,0.627C16.658,6.861,16.62,7.13,16.62,7.424z"/>
			<path fill="#1976D2" d="M28.209,7.424c0,0.531-0.085,0.993-0.258,1.388c-0.177,0.395-0.422,0.721-0.74,0.982
				c-0.32,0.256-0.71,0.454-1.169,0.582c-0.459,0.128-0.974,0.195-1.544,0.195c-0.26,0-0.565-0.011-0.912-0.032
				c-0.347-0.019-0.689-0.062-1.022-0.128V4.445c0.333-0.059,0.683-0.096,1.046-0.117c0.363-0.021,0.674-0.032,0.935-0.032
				c0.553,0,1.055,0.059,1.502,0.176c0.449,0.117,0.836,0.304,1.158,0.558c0.324,0.254,0.569,0.58,0.746,0.972
				C28.124,6.396,28.209,6.869,28.209,7.424z M24.015,9.367c0.068,0.008,0.147,0.011,0.238,0.016c0.089,0,0.196,0.002,0.32,0.002
				c0.727,0,1.264-0.173,1.613-0.521c0.354-0.347,0.526-0.828,0.526-1.441c0-0.641-0.168-1.126-0.502-1.458
				c-0.333-0.331-0.864-0.497-1.591-0.497c-0.099,0-0.201,0.003-0.307,0.005c-0.105,0.005-0.205,0.011-0.298,0.021V9.367z"/>
			<path fill="#1976D2" d="M33.799,4.365v1.177h-1.943v4.949h-1.451V5.542h-1.943V4.365H33.799z"/>
		</g>
	</g>
</g>
</svg>
