<?xml version="1.0" encoding="utf-8"?>
<!-- Generator: Adobe Illustrator 21.0.0, SVG Export Plug-In . SVG Version: 6.00 Build 0)  -->
<svg version="1.1" id="图层_1" xmlns="http://www.w3.org/2000/svg" xmlns:xlink="http://www.w3.org/1999/xlink" x="0px" y="0px"
	 viewBox="0 0 48 48" style="enable-background:new 0 0 48 48;" xml:space="preserve">
<style type="text/css">
	.st0{opacity:0.06;enable-background:new    ;}
	.st1{opacity:0.1;enable-background:new    ;}
	.st2{opacity:0.2;enable-background:new    ;}
	.st3{fill:#E65100;}
	.st4{fill:url(#SVGID_1_);}
	.st5{fill:#E65100;fill-opacity:0.3922;}
	.st6{fill:#FFFFFF;fill-opacity:0.3922;}
	.st7{opacity:0.8;}
	.st8{fill:#FFFFFF;}
	.st9{opacity:0.8;fill:#FFFFFF;enable-background:new    ;}
	.st10{enable-background:new    ;}
	.st11{fill:#E64A19;}
</style>
<polygon class="st0" points="7.2,48 7.2,2 42.8,2 42.8,35 29.8,48 "/>
<polygon class="st1" points="8.2,47 8.2,3 41.8,3 41.8,34.6 29.4,47 "/>
<polygon class="st2" points="7.2,46 7.2,2 40.8,2 40.8,33.6 28.4,46 "/>
<polygon class="st3" points="8.1,45 8.1,3 39.9,3 39.9,33.2 28,45 "/>
<g>
	<g>
		<g>
			
				<linearGradient id="SVGID_1_" gradientUnits="userSpaceOnUse" x1="65.6001" y1="-878.4004" x2="65.6001" y2="-837.4004" gradientTransform="matrix(1 0 0 -1 -41.6001 -833.9004)">
				<stop  offset="0" style="stop-color:#EE6F0B"/>
				<stop  offset="1" style="stop-color:#FFB74D"/>
			</linearGradient>
			<polygon class="st4" points="8.6,44.5 8.6,3.5 39.4,3.5 39.4,33 27.8,44.5 			"/>
		</g>
		<polygon class="st5" points="39.4,33 39.4,32.5 27.2,32.5 27.2,44.5 27.8,44.5 		"/>
		<path class="st6" d="M27.8,33h11.6L27.8,44.5V33z"/>
	</g>
	<g class="st7">
		<rect x="12.6" y="19.3" class="st8" width="3.3" height="16.4"/>
		<rect x="18.1" y="27.5" class="st8" width="3.3" height="8.2"/>
		<rect x="23.6" y="30.8" class="st8" width="3.3" height="4.9"/>
		<g>
			<path class="st8" d="M28,16.4v6.5h6.5c0,3.6-2.9,6.6-6.5,6.6s-6.6-2.9-6.6-6.5C21.5,19.3,24.4,16.4,28,16.4z"/>
			<path class="st8" d="M28.8,15.6c3.6,0,6.6,2.9,6.6,6.5h-6.5L28.8,15.6z"/>
		</g>
	</g>
	<g>
		<rect x="8.6" y="3.5" class="st9" width="30.7" height="7.9"/>
		<g class="st10">
			<path class="st11" d="M15.9,4.3C16,4.5,16.1,4.8,16.3,5c0.1,0.3,0.3,0.6,0.5,0.9s0.3,0.7,0.5,1s0.3,0.7,0.4,1
				c0.1-0.3,0.3-0.6,0.4-1c0.2-0.3,0.3-0.7,0.5-1C18.7,5.6,18.9,5.3,19,5s0.3-0.5,0.4-0.7h1.3c0.1,0.4,0.1,0.9,0.2,1.4
				s0.1,1,0.1,1.6c0,0.5,0.1,1.1,0.1,1.6s0.1,1.1,0.1,1.5h-1.4c0-0.6,0-1.2-0.1-1.9c0-0.7-0.1-1.4-0.1-2.1c-0.1,0.2-0.2,0.5-0.4,0.8
				c-0.1,0.3-0.3,0.6-0.4,0.9S18.5,8.7,18.4,9c-0.1,0.3-0.2,0.5-0.3,0.7h-1C17,9.5,16.9,9.2,16.8,9c-0.1-0.3-0.3-0.6-0.4-0.9
				c-0.1-0.3-0.3-0.6-0.4-0.9s-0.3-0.6-0.4-0.8c-0.1,0.7-0.1,1.4-0.1,2.1s-0.1,1.4-0.1,1.9H14c0-0.5,0.1-1,0.1-1.5s0.1-1.1,0.1-1.6
				s0.1-1.1,0.1-1.6c0.1-0.5,0.1-1,0.2-1.4C14.5,4.3,15.9,4.3,15.9,4.3z"/>
			<path class="st11" d="M25.7,5.4c-0.7,0-1.2,0.2-1.5,0.5c-0.3,0.4-0.4,0.8-0.4,1.5c0,0.3,0,0.6,0.1,0.8s0.2,0.5,0.3,0.6
				c0.1,0.2,0.3,0.3,0.6,0.4c0.2,0.1,0.5,0.1,0.8,0.1c0.2,0,0.3,0,0.4,0s0.2,0,0.3,0V7.2h1.5v3c-0.2,0.1-0.5,0.1-0.8,0.2
				c-0.4,0.1-0.9,0.1-1.4,0.1s-0.9-0.1-1.3-0.2c-0.4-0.1-0.7-0.3-1-0.6s-0.5-0.6-0.6-1s-0.2-0.8-0.2-1.4c0-0.5,0.1-1,0.3-1.4
				c0.2-0.4,0.4-0.7,0.7-1c0.3-0.3,0.6-0.5,1-0.6s0.8-0.2,1.3-0.2c0.3,0,0.6,0,0.8,0.1c0.2,0,0.5,0.1,0.6,0.1
				c0.2,0.1,0.3,0.1,0.4,0.2s0.2,0.1,0.2,0.1l-0.4,1.1c-0.2-0.1-0.4-0.2-0.7-0.3C26.3,5.4,26,5.4,25.7,5.4z"/>
			<path class="st11" d="M31,4.3c1,0,1.7,0.2,2.2,0.5C33.7,5.1,34,5.6,34,6.3s-0.3,1.3-0.8,1.6S31.9,8.4,31,8.4h-0.5v2.1H29v-6
				c0.3-0.1,0.7-0.1,1-0.1C30.4,4.3,30.7,4.3,31,4.3z M31.1,5.4c-0.1,0-0.2,0-0.3,0c-0.1,0-0.2,0-0.3,0v1.8H31
				c0.5,0,0.9-0.1,1.1-0.2c0.3-0.1,0.4-0.4,0.4-0.7c0-0.2,0-0.3-0.1-0.4s-0.2-0.2-0.3-0.3c-0.1-0.1-0.3-0.1-0.4-0.1
				C31.5,5.4,31.3,5.4,31.1,5.4z"/>
		</g>
	</g>
</g>
</svg>
