<?xml version="1.0" encoding="utf-8"?>
<!-- Generator: Adobe Illustrator 16.0.0, SVG Export Plug-In . SVG Version: 6.00 Build 0)  -->
<!DOCTYPE svg PUBLIC "-//W3C//DTD SVG 1.1//EN" "http://www.w3.org/Graphics/SVG/1.1/DTD/svg11.dtd">
<svg version="1.1" id="图层_1" xmlns="http://www.w3.org/2000/svg" xmlns:xlink="http://www.w3.org/1999/xlink" x="0px" y="0px"
	 width="48px" height="48px" viewBox="0 0 48 48" enable-background="new 0 0 48 48" xml:space="preserve">
<polygon opacity="0.06" enable-background="new    " points="7.181,48 7.181,2 42.818,2 42.818,35.003 29.82,48 "/>
<polygon opacity="0.1" enable-background="new    " points="8.181,47 8.181,3 41.818,3 41.818,34.589 29.407,47 "/>
<polygon opacity="0.2" enable-background="new    " points="7.181,46 7.181,2 40.818,2 40.818,33.589 28.408,46 "/>
<polygon fill="#E65100" points="8.143,45 8.143,3 39.857,3 39.857,33.175 28.003,45 "/>
<g>
	<g>
		<g>
			
				<linearGradient id="SVGID_1_" gradientUnits="userSpaceOnUse" x1="65.6006" y1="-160.3999" x2="65.6006" y2="-119.4004" gradientTransform="matrix(1 0 0 -1 -41.6001 -115.9004)">
				<stop  offset="0" style="stop-color:#EE6F0B"/>
				<stop  offset="1" style="stop-color:#FFB74D"/>
			</linearGradient>
			<polygon fill="url(#SVGID_1_)" points="8.641,44.5 8.641,3.5 39.359,3.5 39.359,32.969 27.828,44.5 			"/>
		</g>
		<polygon fill="#E65100" fill-opacity="0.3922" points="39.359,32.969 39.359,32.473 27.195,32.473 27.195,44.5 27.828,44.5 		"/>
		<path fill="#FFFFFF" fill-opacity="0.3922" d="M27.809,32.969l11.551,0.016L27.828,44.5L27.809,32.969z"/>
	</g>
	<g opacity="0.8">
		<rect x="12.64" y="19.283" fill="#FFFFFF" width="3.28" height="16.435"/>
		<rect x="18.106" y="27.483" fill="#FFFFFF" width="3.28" height="8.216"/>
		<rect x="23.557" y="30.83" fill="#FFFFFF" width="3.281" height="4.923"/>
		<g>
			<path fill="#FFFFFF" d="M28.015,16.379l0.034,6.542l6.543-0.035c0.019,3.623-2.904,6.561-6.526,6.577
				c-3.62,0.019-6.559-2.903-6.577-6.523C21.472,19.334,24.393,16.395,28.015,16.379z"/>
			<path fill="#FFFFFF" d="M28.783,15.626c3.622-0.016,6.562,2.904,6.577,6.526l-6.542,0.035L28.783,15.626z"/>
		</g>
	</g>
	<g>
		<rect x="8.633" y="3.5" opacity="0.8" fill="#FFFFFF" enable-background="new    " width="30.734" height="7.858"/>
		<g enable-background="new    ">
			<path fill="#E64A19" d="M15.907,4.322c0.112,0.195,0.24,0.435,0.387,0.721c0.146,0.286,0.299,0.595,0.457,0.929
				c0.157,0.331,0.315,0.673,0.47,1.02c0.157,0.347,0.301,0.673,0.44,0.982c0.136-0.31,0.283-0.635,0.438-0.982
				c0.155-0.347,0.313-0.688,0.47-1.02c0.16-0.333,0.313-0.643,0.459-0.929c0.144-0.286,0.275-0.526,0.387-0.721h1.319
				c0.062,0.406,0.12,0.862,0.173,1.367c0.053,0.501,0.099,1.027,0.139,1.572c0.04,0.544,0.078,1.091,0.112,1.639
				c0.032,0.547,0.064,1.065,0.088,1.545h-1.415c-0.019-0.592-0.042-1.241-0.072-1.943c-0.032-0.7-0.08-1.41-0.141-2.12
				c-0.112,0.246-0.235,0.521-0.374,0.822c-0.136,0.299-0.272,0.598-0.406,0.899c-0.133,0.302-0.261,0.59-0.387,0.862
				c-0.123,0.272-0.229,0.507-0.318,0.702h-1.012c-0.088-0.195-0.195-0.43-0.317-0.702c-0.125-0.272-0.253-0.561-0.387-0.862
				c-0.136-0.302-0.27-0.601-0.406-0.899c-0.139-0.302-0.261-0.577-0.374-0.822c-0.064,0.71-0.109,1.42-0.142,2.12
				c-0.029,0.702-0.053,1.351-0.072,1.943h-1.415c0.024-0.48,0.054-0.998,0.088-1.545s0.072-1.094,0.112-1.639
				c0.04-0.545,0.085-1.071,0.139-1.572c0.053-0.505,0.109-0.961,0.173-1.367H15.907z"/>
			<path fill="#E64A19" d="M25.682,5.384c-0.676,0-1.164,0.176-1.465,0.534c-0.299,0.357-0.449,0.843-0.449,1.463
				c0,0.299,0.035,0.571,0.11,0.816c0.075,0.246,0.187,0.454,0.333,0.63c0.149,0.179,0.336,0.315,0.561,0.411
				c0.225,0.099,0.483,0.147,0.779,0.147c0.163,0,0.299-0.002,0.416-0.008c0.112-0.005,0.214-0.016,0.302-0.038V7.21h1.45v3.032
				c-0.171,0.064-0.451,0.133-0.836,0.208c-0.387,0.075-0.859,0.112-1.423,0.112c-0.485,0-0.924-0.072-1.318-0.214
				c-0.393-0.141-0.729-0.347-1.009-0.619c-0.277-0.27-0.494-0.603-0.646-0.998c-0.152-0.395-0.229-0.844-0.229-1.351
				c0-0.513,0.085-0.966,0.254-1.361c0.168-0.396,0.397-0.731,0.686-1.004c0.293-0.272,0.635-0.48,1.03-0.625
				c0.395-0.139,0.811-0.211,1.259-0.211c0.305,0,0.577,0.019,0.822,0.056c0.246,0.04,0.457,0.085,0.636,0.133
				c0.176,0.051,0.32,0.102,0.435,0.155c0.115,0.054,0.198,0.096,0.249,0.123l-0.422,1.105c-0.198-0.099-0.425-0.187-0.684-0.259
				C26.267,5.419,25.986,5.384,25.682,5.384z"/>
			<path fill="#E64A19" d="M31.002,4.253c0.963,0,1.7,0.16,2.215,0.48c0.516,0.32,0.774,0.849,0.774,1.577
				c0,0.737-0.262,1.268-0.785,1.594c-0.518,0.328-1.265,0.491-2.231,0.491h-0.453v2.05h-1.452V4.41
				c0.314-0.059,0.651-0.099,1.003-0.123C30.425,4.263,30.734,4.253,31.002,4.253z M31.098,5.427c-0.106,0-0.211,0.002-0.313,0.011
				c-0.104,0.005-0.189,0.011-0.264,0.016v1.767h0.453c0.502,0,0.881-0.064,1.138-0.195c0.251-0.13,0.379-0.371,0.379-0.723
				c0-0.171-0.032-0.313-0.097-0.424c-0.063-0.112-0.16-0.203-0.28-0.27c-0.12-0.069-0.27-0.115-0.44-0.142
				C31.498,5.44,31.306,5.427,31.098,5.427z"/>
		</g>
	</g>
</g>
</svg>
