<?xml version="1.0" encoding="utf-8"?>
<!-- Generator: Adobe Illustrator 21.0.0, SVG Export Plug-In . SVG Version: 6.00 Build 0)  -->
<svg version="1.1" id="图层_1" xmlns="http://www.w3.org/2000/svg" xmlns:xlink="http://www.w3.org/1999/xlink" x="0px" y="0px"
	 viewBox="0 0 48 48" style="enable-background:new 0 0 48 48;" xml:space="preserve">
<style type="text/css">
	.st0{opacity:0.06;enable-background:new    ;}
	.st1{opacity:0.1;enable-background:new    ;}
	.st2{opacity:0.2;enable-background:new    ;}
	.st3{fill:#455A64;}
	.st4{fill:url(#SVGID_1_);}
	.st5{fill:#455A64;fill-opacity:0.39;}
	.st6{fill:#FFFFFF;fill-opacity:0.39;}
	.st7{opacity:0.8;fill:#FFFFFF;enable-background:new    ;}
</style>
<polygon class="st0" points="7.2,48 7.2,2 42.8,2 42.8,35 29.8,48 "/>
<polygon class="st1" points="8.2,47 8.2,3 41.8,3 41.8,34.6 29.4,47 "/>
<polygon class="st2" points="7.2,46 7.2,2 40.8,2 40.8,33.6 28.4,46 "/>
<polygon class="st3" points="8.1,45 8.1,3 39.9,3 39.9,33.2 28,45 "/>
<g>
	<g>
		<g>
			
				<linearGradient id="SVGID_1_" gradientUnits="userSpaceOnUse" x1="107.2002" y1="1570.3008" x2="107.2002" y2="1611.3008" gradientTransform="matrix(1 0 0 1 -83.2002 -1566.8008)">
				<stop  offset="0" style="stop-color:#90A4AE"/>
				<stop  offset="0.1378" style="stop-color:#849AA5"/>
				<stop  offset="0.4226" style="stop-color:#708A97"/>
				<stop  offset="0.7096" style="stop-color:#64808E"/>
				<stop  offset="1" style="stop-color:#607D8B"/>
			</linearGradient>
			<polygon class="st4" points="8.6,44.5 8.6,3.5 39.4,3.5 39.4,33 27.8,44.5 			"/>
		</g>
		<polygon class="st5" points="39.4,33 39.4,32.5 27.2,32.5 27.2,44.5 27.8,44.5 		"/>
		<path class="st6" d="M27.8,33h11.5L27.8,44.5V33z"/>
	</g>
	<path class="st7" d="M31.7,22.2c0.7,0,1.3,0.3,1.7,0.7V19h-6c0.4-0.4,0.7-1.1,0.7-1.8c0-1.4-1.1-2.5-2.5-2.5s-2.5,1.1-2.5,2.5
		c0,0.7,0.3,1.3,0.7,1.8H18v3.9c-0.4-0.4-1.1-0.7-1.7-0.7c-1.4,0-2.5,1.1-2.5,2.5s1.1,2.5,2.5,2.5c0.7,0,1.3-0.3,1.7-0.7v3.9h6
		c-0.4-0.4-0.7-1.1-0.7-1.8c0-1.4,1.1-2.5,2.5-2.5s2.5,1.1,2.5,2.5c0,0.7-0.3,1.3-0.7,1.8h6v-3.9c-0.4,0.4-1.1,0.7-1.7,0.7
		c-1.4,0-2.5-1.1-2.5-2.5C29.3,23.3,30.4,22.2,31.7,22.2z"/>
	<g>
		<rect x="8.6" y="3.5" class="st7" width="30.7" height="7.9"/>
		<g>
			<path class="st3" d="M21.5,7.4c0,0.5-0.1,1-0.2,1.4c-0.2,0.4-0.4,0.7-0.7,1s-0.6,0.5-1,0.6s-0.8,0.2-1.3,0.2
				c-0.4,0-0.9-0.1-1.2-0.2c-0.4-0.1-0.7-0.3-1-0.6c-0.3-0.3-0.5-0.6-0.7-1s-0.3-0.9-0.3-1.4s0.1-1,0.3-1.4s0.4-0.7,0.7-1
				c0.3-0.3,0.6-0.5,1-0.6s0.8-0.2,1.2-0.2c0.4,0,0.9,0.1,1.2,0.2c0.4,0.1,0.7,0.3,1,0.6c0.3,0.3,0.5,0.6,0.7,1
				C21.5,6.4,21.5,6.9,21.5,7.4z M16.6,7.4c0,0.3,0,0.6,0.1,0.8s0.2,0.4,0.3,0.6c0.1,0.2,0.3,0.3,0.5,0.4c0.2,0.1,0.5,0.1,0.7,0.1
				c0.3,0,0.5,0,0.7-0.1s0.4-0.2,0.5-0.4s0.3-0.4,0.3-0.6C20,8,20.1,7.7,20.1,7.4c0-0.3,0-0.6-0.1-0.8c-0.1-0.2-0.2-0.5-0.3-0.6
				c-0.1-0.2-0.3-0.3-0.5-0.4s-0.5-0.1-0.7-0.1c-0.3,0-0.5,0.1-0.7,0.1c-0.2,0.1-0.4,0.2-0.5,0.4C17.2,6.2,17,6.4,17,6.6
				C16.7,6.9,16.6,7.1,16.6,7.4z"/>
			<path class="st3" d="M25.9,10.5c-0.2-0.3-0.4-0.7-0.6-1c-0.2-0.4-0.5-0.6-0.7-0.9c-0.1,0.1-0.2,0.2-0.3,0.4
				c-0.1,0.2-0.3,0.3-0.4,0.5s-0.3,0.4-0.4,0.6c-0.1,0.2-0.2,0.3-0.3,0.5h-1.7c0.3-0.5,0.6-1,1-1.5s0.8-1.1,1.2-1.6l-2.1-3h1.8
				l1.2,1.8l1.3-1.8h1.7l-2.1,3c0.5,0.7,1,1.3,1.4,1.8s0.6,1,0.8,1.4L25.9,10.5L25.9,10.5z"/>
			<path class="st3" d="M33.3,4.4v1.2h-1.9v4.9h-1.5v-5H28V4.4H33.3z"/>
		</g>
	</g>
</g>
</svg>
