<?xml version="1.0" encoding="utf-8"?>
<!-- Generator: Adobe Illustrator 21.0.0, SVG Export Plug-In . SVG Version: 6.00 Build 0)  -->
<svg version="1.1" id="图层_1" xmlns="http://www.w3.org/2000/svg" xmlns:xlink="http://www.w3.org/1999/xlink" x="0px" y="0px"
	 viewBox="0 0 48 48" style="enable-background:new 0 0 48 48;" xml:space="preserve">
<style type="text/css">
	.st0{opacity:0.2;enable-background:new    ;}
	.st1{opacity:0.08;enable-background:new    ;}
	.st2{opacity:0.1;enable-background:new    ;}
	.st3{fill:url(#SVGID_1_);}
	.st4{fill:#B71C1C;fill-opacity:0.3922;}
	.st5{fill:#FFFFFF;fill-opacity:0.3922;}
	.st6{opacity:0.8;fill:#FFFFFF;enable-background:new    ;}
	.st7{fill:#B71C1C;}
</style>
<g id="surface1">
	<polygon class="st0" points="7.3,46 7.3,2 40.8,2 40.8,33.6 28.4,46 	"/>
	<polygon class="st1" points="7.3,48 7.3,2 42.8,2 42.8,35 29.8,48 	"/>
	<polygon class="st2" points="8.3,47 8.3,3 41.8,3 41.8,34.6 29.4,47 	"/>
	<g>
		
			<linearGradient id="SVGID_1_" gradientUnits="userSpaceOnUse" x1="232.0005" y1="-2432.9512" x2="232.0005" y2="-2390.9512" gradientTransform="matrix(1 0 0 -1 -208.0005 -2387.9512)">
			<stop  offset="0" style="stop-color:#512DA8"/>
			<stop  offset="8.000000e-03" style="stop-color:#D32F2F"/>
			<stop  offset="0.3041" style="stop-color:#E33932"/>
			<stop  offset="0.6579" style="stop-color:#F04035"/>
			<stop  offset="1" style="stop-color:#F44336"/>
		</linearGradient>
		<path class="st3" d="M27.9,45l11.8-11.8V3H8.3v42H27.9z"/>
		<polygon class="st4" points="27.3,32.5 27.3,45 27.9,45 39.8,33.2 39.8,32.5 		"/>
		<path class="st5" d="M27.9,33.2h11.8L27.9,45V33.2z"/>
		<path class="st6" d="M17.4,13.7l-2.6,2.6v4.4l9.2,8.8l9.2-8.8v-4.4l-2.6-2.6L17.4,13.7L17.4,13.7z M20.1,15v5.2l3.9,7.9l-5.3-7.9
			v-3.9L20.1,15z"/>
		<g>
			<path class="st7" d="M39.3,3.5V33L27.7,44.5h-9h-10v-41H39.3 M39.8,3H8.3v42h10.5H28l11.8-11.8V3L39.8,3z"/>
		</g>
	</g>
</g>
</svg>
