<?xml version="1.0" encoding="utf-8"?>
<!-- Generator: Adobe Illustrator 16.0.0, SVG Export Plug-In . SVG Version: 6.00 Build 0)  -->
<!DOCTYPE svg PUBLIC "-//W3C//DTD SVG 1.1//EN" "http://www.w3.org/Graphics/SVG/1.1/DTD/svg11.dtd">
<svg version="1.1" id="图层_1" xmlns="http://www.w3.org/2000/svg" xmlns:xlink="http://www.w3.org/1999/xlink" x="0px" y="0px"
	 width="48px" height="48px" viewBox="0 0 48 48" enable-background="new 0 0 48 48" xml:space="preserve">
<g id="surface1">
	<polygon opacity="0.2" enable-background="new    " points="7.25,46 7.25,2 40.75,2 40.75,33.602 28.352,46 	"/>
	<polygon opacity="0.08" enable-background="new    " points="7.25,48 7.25,2 42.75,2 42.75,35.016 29.766,48 	"/>
	<polygon opacity="0.1" enable-background="new    " points="8.25,47 8.25,3 41.75,3 41.75,34.602 29.352,47 	"/>
</g>
<linearGradient id="SVGID_1_" gradientUnits="userSpaceOnUse" x1="232.001" y1="-1714.9512" x2="232.001" y2="-1672.9512" gradientTransform="matrix(1 0 0 -1 -208.0005 -1669.9512)">
	<stop  offset="0" style="stop-color:#3F51B5"/>
	<stop  offset="0.258" style="stop-color:#4355B7"/>
	<stop  offset="0.5253" style="stop-color:#5060BB"/>
	<stop  offset="0.7959" style="stop-color:#6473C3"/>
	<stop  offset="1" style="stop-color:#7986CB"/>
</linearGradient>
<path fill="url(#SVGID_1_)" d="M27.938,45L39.75,33.188V3H8.25v42H27.938z"/>
<polygon fill="#311B92" fill-opacity="0.3922" points="27.281,32.531 27.281,45 27.938,45 39.75,33.188 39.75,32.531 "/>
<path fill="#FFFFFF" fill-opacity="0.3922" d="M27.938,33.188H39.74L27.938,45V33.188z"/>
<g>
	<g>
		<path fill="#311B92" d="M39.25,3.5v29.48L27.73,44.5h-8.98h-10v-41H39.25 M39.75,3H8.25v42h10.5h9.188L39.75,33.188V3L39.75,3z"/>
	</g>
</g>
<g opacity="0.8">
	<path fill="#FFFFFF" d="M24.189,10.83c-0.713,0.005-1.399,0.062-1.999,0.164c-1.759,0.308-2.133,0.4-2.133,1.584v2.625h4.378v0.877
		h-6.132c-1.204,0-1.994,0.738-2.322,2.107c-0.385,1.568-0.399,2.543,0,4.184c0.292,1.215,1.118,2.461,2.322,2.461h0.877v-2.625
		c0-1.359,1.22-2.625,2.625-2.625h4.378c1.159,0,1.754-0.6,1.754-1.754v-4.373c0-1.118-0.461-2.276-1.59-2.461
		C25.636,10.875,24.897,10.825,24.189,10.83z M22.683,12.578c0.487,0,0.876,0.395,0.876,0.877s-0.389,0.877-0.876,0.877
		c-0.482,0-0.877-0.395-0.877-0.877S22.2,12.578,22.683,12.578z"/>
	<path fill="#FFFFFF" d="M23.811,29.205c0.713-0.005,1.399-0.062,1.999-0.164c1.759-0.308,2.133-0.4,2.133-1.584v-2.625h-4.378
		v-0.877h6.132c1.204,0,1.994-0.738,2.322-2.107c0.385-1.569,0.399-2.543,0-4.184c-0.292-1.215-1.118-2.461-2.322-2.461h-0.877
		v2.625c0,1.359-1.22,2.625-2.625,2.625h-4.378c-1.159,0-1.754,0.6-1.754,1.754v4.373c0,1.117,0.461,2.276,1.59,2.461
		C22.364,29.159,23.103,29.21,23.811,29.205z M25.317,27.457c-0.487,0-0.876-0.395-0.876-0.877s0.389-0.877,0.876-0.877
		c0.482,0,0.877,0.395,0.877,0.877S25.8,27.457,25.317,27.457z"/>
</g>
</svg>
