<?xml version="1.0" encoding="utf-8"?>
<!-- Generator: Adobe Illustrator 21.0.0, SVG Export Plug-In . SVG Version: 6.00 Build 0)  -->
<svg version="1.1" id="图层_1" xmlns="http://www.w3.org/2000/svg" xmlns:xlink="http://www.w3.org/1999/xlink" x="0px" y="0px"
	 viewBox="0 0 48 48" style="enable-background:new 0 0 48 48;" xml:space="preserve">
<style type="text/css">
	.st0{opacity:0.06;enable-background:new    ;}
	.st1{opacity:0.1;enable-background:new    ;}
	.st2{opacity:0.2;enable-background:new    ;}
	.st3{fill:#5F7B89;}
	.st4{fill:url(#SVGID_1_);}
	.st5{fill:#455963;fill-opacity:0.7;}
	.st6{fill:#8DA1AC;}
	.st7{fill:#607D8B;}
</style>
<polygon class="st0" points="7.2,48 7.2,2 42.8,2 42.8,35 29.8,48 "/>
<polygon class="st1" points="8.2,47 8.2,3 41.8,3 41.8,34.6 29.4,47 "/>
<polygon class="st2" points="7.2,46 7.2,2 40.8,2 40.8,33.6 28.4,46 "/>
<polygon class="st3" points="8.2,45 8.2,3 39.8,3 39.8,33.2 28,45 "/>
<g>
	<g>
		<g>
			<g>
				<g>
					<g>
						<g>
							<g>
								
									<linearGradient id="SVGID_1_" gradientUnits="userSpaceOnUse" x1="148.7998" y1="1989.2012" x2="148.7998" y2="2030.2012" gradientTransform="matrix(1 0 0 1 -124.7998 -1985.7012)">
									<stop  offset="0" style="stop-color:#F6F5F5"/>
									<stop  offset="0.341" style="stop-color:#F1F2F3"/>
									<stop  offset="0.6434" style="stop-color:#E7EAEB"/>
									<stop  offset="0.9302" style="stop-color:#D5DBDF"/>
									<stop  offset="1" style="stop-color:#CFD7DB"/>
								</linearGradient>
								<polygon class="st4" points="8.6,44.5 8.6,3.5 39.4,3.5 39.4,33 27.8,44.5 								"/>
							</g>
							<polygon class="st5" points="39.4,33 39.4,32.5 27.2,32.5 27.2,44.5 27.8,44.5 							"/>
							<path class="st6" d="M27.8,33h11.5L27.8,44.5V33z"/>
						</g>
					</g>
				</g>
			</g>
		</g>
	</g>
	<g>
		<path class="st7" d="M32.4,19.9c0,1.4-0.2,2.7-0.7,3.8c-0.5,1.1-1.1,2-1.9,2.8s-1.7,1.4-2.7,1.8s-2.1,0.6-3.2,0.6
			s-2.2-0.2-3.2-0.6s-1.9-1-2.7-1.8c-0.8-0.8-1.4-1.7-1.9-2.8c-0.5-1.1-0.7-2.4-0.7-3.8s0.2-2.7,0.7-3.8c0.5-1.1,1.1-2,1.9-2.8
			s1.7-1.4,2.7-1.8c1-0.4,2.1-0.6,3.2-0.6s2.2,0.2,3.2,0.6c1,0.4,1.9,1,2.7,1.8c0.8,0.8,1.4,1.7,1.9,2.8S32.4,18.5,32.4,19.9z
			 M30.6,19.9c0-1.1-0.2-2.1-0.5-3s-0.8-1.7-1.4-2.3s-1.3-1.1-2.1-1.5c-0.8-0.3-1.7-0.5-2.7-0.5s-1.9,0.2-2.7,0.5
			c-0.8,0.3-1.5,0.8-2.1,1.5c-0.6,0.6-1,1.4-1.4,2.3c-0.3,0.9-0.5,1.9-0.5,3s0.2,2.1,0.5,3s0.8,1.7,1.4,2.3c0.6,0.6,1.3,1.1,2.1,1.5
			c0.8,0.3,1.7,0.5,2.7,0.5s1.9-0.2,2.7-0.5c0.8-0.3,1.5-0.8,2.1-1.5c0.6-0.6,1-1.4,1.4-2.3C30.5,21.9,30.6,21,30.6,19.9z"/>
		<g>
			<path class="st7" d="M25.1,25.1h-2.2v-7.5h2.2V25.1z"/>
		</g>
		<circle class="st7" cx="24" cy="15.6" r="1.3"/>
	</g>
</g>
</svg>
