<?xml version="1.0" encoding="utf-8"?>
<!-- Generator: Adobe Illustrator 16.0.0, SVG Export Plug-In . SVG Version: 6.00 Build 0)  -->
<!DOCTYPE svg PUBLIC "-//W3C//DTD SVG 1.1//EN" "http://www.w3.org/Graphics/SVG/1.1/DTD/svg11.dtd">
<svg version="1.1" id="图层_1" xmlns="http://www.w3.org/2000/svg" xmlns:xlink="http://www.w3.org/1999/xlink" x="0px" y="0px"
	 width="48px" height="48px" viewBox="0 0 48 48" enable-background="new 0 0 48 48" xml:space="preserve">
<polygon opacity="0.06" enable-background="new    " points="7.181,48 7.181,2 42.818,2 42.818,35.003 29.82,48 "/>
<polygon opacity="0.1" enable-background="new    " points="8.181,47 8.181,3 41.818,3 41.818,34.589 29.407,47 "/>
<polygon opacity="0.2" enable-background="new    " points="7.181,46 7.181,2 40.818,2 40.818,33.589 28.408,46 "/>
<polygon fill="#AE2124" points="8.143,45 8.143,3 39.857,3 39.857,33.175 28.006,45 "/>
<g>
	<g>
		<g>
			
				<linearGradient id="SVGID_1_" gradientUnits="userSpaceOnUse" x1="107.2002" y1="-579.3003" x2="107.2002" y2="-538.3008" gradientTransform="matrix(1 0 0 -1 -83.1997 -534.8008)">
				<stop  offset="0" style="stop-color:#C7312F"/>
				<stop  offset="0.1635" style="stop-color:#D9412C"/>
				<stop  offset="0.3476" style="stop-color:#E74E29"/>
				<stop  offset="0.5725" style="stop-color:#EA552A"/>
				<stop  offset="0.9516" style="stop-color:#EA582B"/>
			</linearGradient>
			<polygon fill="url(#SVGID_1_)" points="8.641,44.5 8.641,3.5 39.359,3.5 39.359,32.969 27.828,44.5 			"/>
		</g>
		<polygon fill="#AE2124" fill-opacity="0.3922" points="39.359,32.969 39.359,32.473 27.195,32.473 27.195,44.5 27.828,44.5 		"/>
		<path fill="#FFFFFF" fill-opacity="0.3922" d="M27.809,32.969l11.551,0.019L27.828,44.5L27.809,32.969z"/>
	</g>
	<g opacity="0.8" enable-background="new    ">
		<g>
			<path fill="#FFFFFF" d="M27.862,15.204c0.051,0.019,0.12,0.019,0.171,0.033C27.98,15.222,27.913,15.204,27.862,15.204z"/>
			<path fill="#FFFFFF" d="M27.433,15.137c0.069,0,0.12,0.017,0.189,0.017C27.553,15.154,27.502,15.154,27.433,15.137z"/>
			<path fill="#FFFFFF" d="M28.271,15.27c0.051,0.018,0.104,0.018,0.156,0.036C28.375,15.288,28.322,15.27,28.271,15.27z"/>
			<path fill="#FFFFFF" d="M28.68,15.338c0.051,0.019,0.104,0.019,0.136,0.036C28.768,15.357,28.732,15.338,28.68,15.338z"/>
			<path fill="#FFFFFF" d="M26.99,15.083c0.068,0,0.135,0.017,0.205,0.017C27.125,15.101,27.059,15.083,26.99,15.083z"/>
			<path fill="#FFFFFF" d="M29.451,15.51c0.031,0.018,0.066,0.018,0.119,0.036C29.518,15.528,29.482,15.51,29.451,15.51z"/>
			<path fill="#FFFFFF" d="M29.074,15.425c0.035,0.018,0.086,0.018,0.12,0.035C29.16,15.442,29.109,15.425,29.074,15.425z"/>
			<path fill="#FFFFFF" d="M14.844,17.371L14.844,17.371L14.844,17.371z"/>
			<path fill="#FFFFFF" d="M24.633,14.929c0.102,0,0.221,0,0.326,0C24.854,14.929,24.734,14.929,24.633,14.929z"/>
			<path fill="#FFFFFF" d="M29.811,15.597c0.035,0.017,0.07,0.017,0.1,0.035C29.881,15.614,29.843,15.614,29.811,15.597z"/>
			<path fill="#FFFFFF" d="M26.547,15.033c0.066,0,0.136,0.017,0.205,0.017C26.699,15.05,26.632,15.05,26.547,15.033z"/>
			<path fill="#FFFFFF" d="M23.047,14.929c0.099,0,0.203,0,0.323,0C23.266,14.929,23.146,14.929,23.047,14.929z"/>
			<path fill="#FFFFFF" d="M25.623,14.963c0.086,0,0.171,0.019,0.256,0.019C25.794,14.982,25.709,14.963,25.623,14.963z"/>
			<path fill="#FFFFFF" d="M26.101,14.997c0.085,0,0.152,0.017,0.24,0.017C26.253,15.014,26.17,14.997,26.101,14.997z"/>
			<path fill="#FFFFFF" d="M31.928,16.398c0,0,0.019,0,0.019,0.019C31.943,16.398,31.928,16.398,31.928,16.398z"/>
			<path fill="#FFFFFF" d="M32.747,16.945L32.747,16.945L32.747,16.945z"/>
			<path fill="#FFFFFF" d="M32.168,16.518C32.168,16.518,32.168,16.535,32.168,16.518C32.168,16.535,32.168,16.518,32.168,16.518z"
				/>
			<path fill="#FFFFFF" d="M32.371,16.655C32.39,16.655,32.39,16.655,32.371,16.655C32.39,16.655,32.39,16.655,32.371,16.655z"/>
			<path fill="#FFFFFF" d="M30.169,15.697c0.034,0,0.051,0.019,0.085,0.019C30.22,15.716,30.185,15.697,30.169,15.697z"/>
			<path fill="#FFFFFF" d="M32.899,17.083L32.899,17.083L32.899,17.083z"/>
			<path fill="#FFFFFF" d="M24,14.914c-0.152,0-0.323,0-0.478,0C23.677,14.914,23.848,14.914,24,14.914z"/>
			<path fill="#FFFFFF" d="M32.576,16.792L32.576,16.792L32.576,16.792z"/>
			<path fill="#FFFFFF" d="M31.124,16.024c0.017,0,0.035,0.017,0.048,0.017C31.159,16.042,31.141,16.024,31.124,16.024z"/>
			<path fill="#FFFFFF" d="M24,14.914c0.155,0,0.326,0,0.478,0C24.326,14.914,24.155,14.914,24,14.914z"/>
			<path fill="#FFFFFF" d="M30.491,15.801c0.02,0,0.051,0.018,0.067,0.018C30.542,15.817,30.526,15.801,30.491,15.801z"/>
			<path fill="#FFFFFF" d="M30.817,15.903c0.016,0,0.032,0.019,0.051,0.019C30.85,15.921,30.833,15.921,30.817,15.903z"/>
			<path fill="#FFFFFF" d="M31.415,16.142c0.017,0,0.035,0.018,0.035,0.018C31.432,16.159,31.415,16.142,31.415,16.142z"/>
			<path fill="#FFFFFF" d="M31.672,16.262c0.016,0,0.016,0.019,0.034,0.019C31.703,16.28,31.688,16.262,31.672,16.262z"/>
			<path fill="#FFFFFF" d="M25.145,14.947c0.086,0,0.189,0,0.273,0.016C25.334,14.947,25.23,14.947,25.145,14.947z"/>
			<path fill="#FFFFFF" d="M16.056,16.398c0.019,0,0.019-0.016,0.038-0.016C16.072,16.398,16.056,16.398,16.056,16.398z"/>
			<path fill="#FFFFFF" d="M15.816,16.535c0,0,0.019,0,0.019-0.017C15.832,16.518,15.832,16.535,15.816,16.535z"/>
			<path fill="#FFFFFF" d="M15.613,16.671C15.613,16.655,15.629,16.655,15.613,16.671C15.629,16.655,15.613,16.655,15.613,16.671z"
				/>
			<path fill="#FFFFFF" d="M16.296,16.28c0.016,0,0.016-0.019,0.035-0.019C16.313,16.262,16.296,16.28,16.296,16.28z"/>
			<path fill="#FFFFFF" d="M16.825,16.042c0.016,0,0.035-0.017,0.05-0.017C16.86,16.024,16.841,16.042,16.825,16.042z"/>
			<path fill="#FFFFFF" d="M16.553,16.159c0.019,0,0.035-0.018,0.051-0.018C16.587,16.142,16.569,16.159,16.553,16.159z"/>
			<path fill="#FFFFFF" d="M22.583,14.947c0.083,0,0.187,0,0.272-0.019C22.77,14.947,22.666,14.947,22.583,14.947z"/>
			<path fill="#FFFFFF" d="M24,21.283c-5.194,0-9.398-1.416-9.398-3.176v2.872c0,1.756,4.201,3.176,9.398,3.176
				c5.194,0,9.396-1.42,9.396-3.176l0,0v-2.872C33.396,19.851,29.194,21.283,24,21.283z"/>
			<path fill="#FFFFFF" d="M14.604,18.006v0.104C14.604,18.074,14.604,18.04,14.604,18.006L14.604,18.006z"/>
			<path fill="#FFFFFF" d="M17.116,15.938c0.016,0,0.051-0.016,0.067-0.016C17.167,15.921,17.148,15.921,17.116,15.938z"/>
			<path fill="#FFFFFF" d="M15.255,16.945L15.255,16.945L15.255,16.945z"/>
			<path fill="#FFFFFF" d="M33.396,18.006c0,0.035,0,0.068,0,0.104V18.006L33.396,18.006z"/>
			<path fill="#FFFFFF" d="M14.962,17.236L14.962,17.236L14.962,17.236z"/>
			<path fill="#FFFFFF" d="M15.098,17.083L15.098,17.083L15.098,17.083z"/>
			<path fill="#FFFFFF" d="M15.424,16.809C15.424,16.792,15.424,16.792,15.424,16.809C15.424,16.792,15.424,16.792,15.424,16.809z"
				/>
			<path fill="#FFFFFF" d="M20.805,15.101c0.07,0,0.136-0.017,0.203-0.017C20.941,15.083,20.875,15.101,20.805,15.101z"/>
			<path fill="#FFFFFF" d="M20.38,15.169c0.067-0.018,0.118-0.018,0.187-0.018C20.498,15.154,20.447,15.154,20.38,15.169z"/>
			<path fill="#FFFFFF" d="M21.232,15.05c0.069,0,0.136-0.017,0.222-0.017C21.368,15.05,21.301,15.05,21.232,15.05z"/>
			<path fill="#FFFFFF" d="M17.423,15.817c0.019,0,0.051-0.018,0.067-0.018C17.474,15.801,17.458,15.817,17.423,15.817z"/>
			<path fill="#FFFFFF" d="M22.121,14.982c0.085,0,0.171-0.019,0.256-0.019C22.292,14.963,22.206,14.982,22.121,14.982z"/>
			<path fill="#FFFFFF" d="M19.969,15.222c0.051-0.019,0.12-0.019,0.171-0.035C20.087,15.204,20.02,15.222,19.969,15.222z"/>
			<path fill="#FFFFFF" d="M21.678,15.014c0.085,0,0.152-0.017,0.238-0.017C21.83,14.997,21.745,15.014,21.678,15.014z"/>
			<path fill="#FFFFFF" d="M18.09,15.632c0.032-0.018,0.066-0.018,0.102-0.035C18.157,15.614,18.122,15.614,18.09,15.632z"/>
			<path fill="#FFFFFF" d="M17.749,15.716c0.035-0.019,0.051-0.019,0.085-0.035C17.815,15.697,17.781,15.716,17.749,15.716z"/>
			<path fill="#FFFFFF" d="M18.429,15.528c0.035-0.018,0.085-0.018,0.12-0.035C18.515,15.51,18.482,15.528,18.429,15.528z"/>
			<path fill="#FFFFFF" d="M18.806,15.442c0.051-0.018,0.085-0.018,0.136-0.035C18.891,15.425,18.84,15.442,18.806,15.442z"/>
			<path fill="#FFFFFF" d="M19.182,15.374c0.051-0.017,0.101-0.017,0.152-0.036C19.268,15.338,19.233,15.357,19.182,15.374z"/>
			<path fill="#FFFFFF" d="M19.574,15.288c0.051-0.018,0.102-0.018,0.155-0.035C19.676,15.27,19.625,15.288,19.574,15.288z"/>
		</g>
		<g>
			<path fill="#FFFFFF" d="M27.862,18.535c0.051,0.019,0.12,0.019,0.171,0.036C27.98,18.553,27.913,18.553,27.862,18.535z"/>
			<path fill="#FFFFFF" d="M27.433,18.484c0.069,0,0.12,0.018,0.189,0.018C27.553,18.484,27.502,18.484,27.433,18.484z"/>
			<path fill="#FFFFFF" d="M28.271,18.604c0.051,0.016,0.104,0.016,0.156,0.035C28.375,18.62,28.322,18.62,28.271,18.604z"/>
			<path fill="#FFFFFF" d="M28.68,18.669c0.051,0.018,0.104,0.018,0.136,0.035C28.768,18.687,28.732,18.687,28.68,18.669z"/>
			<path fill="#FFFFFF" d="M26.99,18.413c0.068,0,0.135,0.018,0.205,0.018C27.125,18.431,27.059,18.431,26.99,18.413z"/>
			<path fill="#FFFFFF" d="M29.451,18.842c0.031,0.017,0.066,0.017,0.119,0.035C29.518,18.859,29.482,18.859,29.451,18.842z"/>
			<path fill="#FFFFFF" d="M29.074,18.755c0.035,0.019,0.086,0.019,0.12,0.036C29.16,18.773,29.109,18.773,29.074,18.755z"/>
			<path fill="#FFFFFF" d="M14.844,20.722L14.844,20.722L14.844,20.722z"/>
			<path fill="#FFFFFF" d="M24.633,18.26c0.102,0,0.221,0,0.326,0C24.854,18.26,24.734,18.26,24.633,18.26z"/>
			<path fill="#FFFFFF" d="M29.811,18.944c0.035,0.019,0.07,0.019,0.1,0.036C29.881,18.963,29.843,18.944,29.811,18.944z"/>
			<path fill="#FFFFFF" d="M26.547,18.38c0.066,0,0.136,0.019,0.205,0.019C26.699,18.38,26.632,18.38,26.547,18.38z"/>
			<path fill="#FFFFFF" d="M23.047,18.277c0.099,0,0.203,0,0.323,0C23.266,18.26,23.146,18.26,23.047,18.277z"/>
			<path fill="#FFFFFF" d="M25.623,18.294c0.086,0,0.171,0.019,0.256,0.019C25.794,18.313,25.709,18.313,25.623,18.294z"/>
			<path fill="#FFFFFF" d="M26.101,18.331c0.085,0,0.152,0.016,0.24,0.016C26.253,18.345,26.17,18.345,26.101,18.331z"/>
			<path fill="#FFFFFF" d="M31.928,19.729c0,0,0.019,0,0.019,0.019C31.943,19.729,31.928,19.729,31.928,19.729z"/>
			<path fill="#FFFFFF" d="M32.747,20.279L32.747,20.279L32.747,20.279z"/>
			<path fill="#FFFFFF" d="M32.168,19.868L32.168,19.868L32.168,19.868z"/>
			<path fill="#FFFFFF" d="M32.371,20.001C32.39,20.001,32.39,20.001,32.371,20.001C32.39,20.001,32.39,20.001,32.371,20.001z"/>
			<path fill="#FFFFFF" d="M30.169,19.031c0.034,0,0.051,0.017,0.085,0.017C30.22,19.048,30.185,19.048,30.169,19.031z"/>
			<path fill="#FFFFFF" d="M32.899,20.413L32.899,20.413L32.899,20.413z"/>
			<path fill="#FFFFFF" d="M24,18.26c-0.152,0-0.323,0-0.478,0C23.677,18.26,23.848,18.26,24,18.26z"/>
			<path fill="#FFFFFF" d="M32.576,20.14L32.576,20.14L32.576,20.14z"/>
			<path fill="#FFFFFF" d="M31.124,19.354c0.017,0,0.035,0.019,0.048,0.019C31.159,19.373,31.141,19.373,31.124,19.354z"/>
			<path fill="#FFFFFF" d="M24,18.26c0.155,0,0.326,0,0.478,0C24.326,18.26,24.155,18.26,24,18.26z"/>
			<path fill="#FFFFFF" d="M30.491,19.133c0.02,0,0.051,0.017,0.067,0.017C30.542,19.147,30.526,19.147,30.491,19.133z"/>
			<path fill="#FFFFFF" d="M30.817,19.251c0.016,0,0.032,0.017,0.051,0.017C30.85,19.269,30.833,19.251,30.817,19.251z"/>
			<path fill="#FFFFFF" d="M31.415,19.474c0.017,0,0.035,0.018,0.035,0.018C31.432,19.492,31.415,19.492,31.415,19.474z"/>
			<path fill="#FFFFFF" d="M31.672,19.612c0.016,0,0.016,0.016,0.034,0.016C31.703,19.612,31.688,19.612,31.672,19.612z"/>
			<path fill="#FFFFFF" d="M25.145,18.277c0.086,0,0.189,0,0.273,0.018C25.334,18.277,25.23,18.277,25.145,18.277z"/>
			<path fill="#FFFFFF" d="M16.056,19.748c0.019,0,0.019-0.019,0.038-0.019C16.072,19.729,16.056,19.729,16.056,19.748z"/>
			<path fill="#FFFFFF" d="M15.816,19.868c0,0,0.019,0,0.019-0.018C15.832,19.868,15.832,19.868,15.816,19.868z"/>
			<path fill="#FFFFFF" d="M15.613,20.001C15.613,20.001,15.629,20.001,15.613,20.001C15.629,20.001,15.613,20.001,15.613,20.001z"
				/>
			<path fill="#FFFFFF" d="M16.296,19.612c0.016,0,0.016-0.019,0.035-0.019C16.313,19.612,16.296,19.612,16.296,19.612z"/>
			<path fill="#FFFFFF" d="M16.825,19.388c0.016,0,0.035-0.016,0.05-0.016C16.86,19.373,16.841,19.373,16.825,19.388z"/>
			<path fill="#FFFFFF" d="M16.553,19.492c0.019,0,0.035-0.018,0.051-0.018C16.587,19.492,16.569,19.492,16.553,19.492z"/>
			<path fill="#FFFFFF" d="M22.583,18.294c0.083,0,0.187,0,0.272-0.018C22.77,18.277,22.666,18.277,22.583,18.294z"/>
			<path fill="#FFFFFF" d="M24,24.617c-5.194,0-9.398-1.418-9.398-3.18v2.872c0,1.757,4.201,3.177,9.398,3.177
				c5.194,0,9.396-1.42,9.396-3.177l0,0v-2.872C33.396,23.199,29.194,24.617,24,24.617z"/>
			<path fill="#FFFFFF" d="M14.604,21.336v0.104C14.604,21.405,14.604,21.368,14.604,21.336L14.604,21.336z"/>
			<path fill="#FFFFFF" d="M17.116,19.269c0.016,0,0.051-0.017,0.067-0.017C17.167,19.251,17.148,19.269,17.116,19.269z"/>
			<path fill="#FFFFFF" d="M15.255,20.279L15.255,20.279L15.255,20.279z"/>
			<path fill="#FFFFFF" d="M33.396,21.336c0,0.038,0,0.069,0,0.104V21.336L33.396,21.336z"/>
			<path fill="#FFFFFF" d="M14.962,20.567L14.962,20.567L14.962,20.567z"/>
			<path fill="#FFFFFF" d="M15.098,20.431C15.098,20.413,15.098,20.413,15.098,20.431C15.098,20.413,15.098,20.413,15.098,20.431z"
				/>
			<path fill="#FFFFFF" d="M15.424,20.14L15.424,20.14L15.424,20.14z"/>
			<path fill="#FFFFFF" d="M20.805,18.449c0.07,0,0.136-0.019,0.203-0.019C20.941,18.431,20.875,18.431,20.805,18.449z"/>
			<path fill="#FFFFFF" d="M20.38,18.5c0.067-0.018,0.118-0.018,0.187-0.018C20.498,18.484,20.447,18.484,20.38,18.5z"/>
			<path fill="#FFFFFF" d="M21.232,18.398c0.069,0,0.136-0.019,0.222-0.019C21.368,18.38,21.301,18.38,21.232,18.398z"/>
			<path fill="#FFFFFF" d="M17.423,19.165c0.019,0,0.051-0.017,0.067-0.017C17.474,19.147,17.458,19.147,17.423,19.165z"/>
			<path fill="#FFFFFF" d="M22.121,18.313c0.085,0,0.171-0.019,0.256-0.019C22.292,18.313,22.206,18.313,22.121,18.313z"/>
			<path fill="#FFFFFF" d="M19.969,18.571c0.051-0.018,0.12-0.018,0.171-0.036C20.087,18.553,20.02,18.553,19.969,18.571z"/>
			<path fill="#FFFFFF" d="M21.678,18.345c0.067,0,0.152-0.018,0.238-0.018C21.83,18.345,21.745,18.345,21.678,18.345z"/>
			<path fill="#FFFFFF" d="M18.09,18.963c0.032-0.019,0.066-0.019,0.102-0.036C18.157,18.944,18.122,18.963,18.09,18.963z"/>
			<path fill="#FFFFFF" d="M17.749,19.064c0.035-0.017,0.051-0.017,0.085-0.036C17.815,19.048,17.781,19.048,17.749,19.064z"/>
			<path fill="#FFFFFF" d="M18.429,18.876c0.035-0.018,0.085-0.018,0.12-0.035C18.515,18.859,18.482,18.859,18.429,18.876z"/>
			<path fill="#FFFFFF" d="M18.806,18.791c0.051-0.018,0.085-0.018,0.136-0.036C18.891,18.773,18.84,18.773,18.806,18.791z"/>
			<path fill="#FFFFFF" d="M19.182,18.704c0.051-0.017,0.101-0.017,0.152-0.035C19.268,18.687,19.233,18.687,19.182,18.704z"/>
			<path fill="#FFFFFF" d="M19.574,18.639c0.051-0.019,0.102-0.019,0.155-0.035C19.676,18.62,19.625,18.62,19.574,18.639z"/>
		</g>
		<g>
			<path fill="#FFFFFF" d="M27.862,21.865c0.051,0.019,0.12,0.019,0.171,0.037C27.98,21.883,27.913,21.883,27.862,21.865z"/>
			<path fill="#FFFFFF" d="M27.433,21.816c0.069,0,0.12,0.016,0.189,0.016C27.553,21.83,27.502,21.816,27.433,21.816z"/>
			<path fill="#FFFFFF" d="M28.271,21.934c0.051,0.016,0.104,0.016,0.156,0.037C28.375,21.95,28.322,21.95,28.271,21.934z"/>
			<path fill="#FFFFFF" d="M28.68,22.02c0.051,0.016,0.104,0.016,0.136,0.037C28.768,22.036,28.732,22.02,28.68,22.02z"/>
			<path fill="#FFFFFF" d="M26.99,21.763c0.068,0,0.135,0.016,0.205,0.016C27.125,21.779,27.059,21.763,26.99,21.763z"/>
			<path fill="#FFFFFF" d="M29.451,22.19c0.031,0.016,0.066,0.016,0.119,0.035C29.518,22.206,29.482,22.19,29.451,22.19z"/>
			<path fill="#FFFFFF" d="M29.074,22.086c0.035,0.019,0.086,0.019,0.12,0.035C29.16,22.121,29.109,22.105,29.074,22.086z"/>
			<path fill="#FFFFFF" d="M14.844,24.053L14.844,24.053L14.844,24.053z"/>
			<path fill="#FFFFFF" d="M24.633,21.592c0.102,0,0.221,0,0.326,0C24.854,21.608,24.734,21.608,24.633,21.592z"/>
			<path fill="#FFFFFF" d="M29.811,22.276c0.035,0.016,0.07,0.016,0.1,0.035C29.881,22.292,29.843,22.292,29.811,22.276z"/>
			<path fill="#FFFFFF" d="M26.547,21.71c0.066,0,0.136,0.021,0.205,0.021C26.699,21.731,26.632,21.71,26.547,21.71z"/>
			<path fill="#FFFFFF" d="M23.047,21.608c0.099,0,0.203,0,0.323,0C23.266,21.608,23.146,21.608,23.047,21.608z"/>
			<path fill="#FFFFFF" d="M25.623,21.643c0.086,0,0.171,0.019,0.256,0.019C25.794,21.643,25.709,21.643,25.623,21.643z"/>
			<path fill="#FFFFFF" d="M26.101,21.678c0.085,0,0.152,0.016,0.24,0.016C26.253,21.678,26.17,21.678,26.101,21.678z"/>
			<path fill="#FFFFFF" d="M31.928,23.061c0,0,0.019,0,0.019,0.016C31.943,23.077,31.928,23.077,31.928,23.061z"/>
			<path fill="#FFFFFF" d="M32.747,23.61L32.747,23.61L32.747,23.61z"/>
			<path fill="#FFFFFF" d="M32.168,23.199L32.168,23.199L32.168,23.199z"/>
			<path fill="#FFFFFF" d="M32.371,23.335C32.39,23.335,32.39,23.335,32.371,23.335C32.39,23.335,32.39,23.335,32.371,23.335z"/>
			<path fill="#FFFFFF" d="M30.169,22.38c0.034,0,0.051,0.019,0.085,0.019C30.22,22.398,30.185,22.38,30.169,22.38z"/>
			<path fill="#FFFFFF" d="M32.899,23.765L32.899,23.765L32.899,23.765z"/>
			<path fill="#FFFFFF" d="M24,21.592c-0.152,0-0.323,0-0.478,0C23.677,21.592,23.848,21.592,24,21.592z"/>
			<path fill="#FFFFFF" d="M32.576,23.472L32.576,23.472L32.576,23.472z"/>
			<path fill="#FFFFFF" d="M31.124,22.703c0.017,0,0.035,0.019,0.048,0.019C31.159,22.721,31.141,22.703,31.124,22.703z"/>
			<path fill="#FFFFFF" d="M24,21.592c0.155,0,0.326,0,0.478,0C24.326,21.592,24.155,21.592,24,21.592z"/>
			<path fill="#FFFFFF" d="M30.491,22.481c0.02,0,0.051,0.014,0.067,0.014C30.542,22.495,30.526,22.481,30.491,22.481z"/>
			<path fill="#FFFFFF" d="M30.817,22.58c0.016,0,0.032,0.021,0.051,0.021C30.85,22.601,30.833,22.601,30.817,22.58z"/>
			<path fill="#FFFFFF" d="M31.415,22.82c0.017,0,0.035,0.021,0.035,0.021C31.432,22.82,31.415,22.82,31.415,22.82z"/>
			<path fill="#FFFFFF" d="M31.672,22.943c0.016,0,0.016,0.016,0.034,0.016C31.703,22.959,31.688,22.943,31.672,22.943z"/>
			<path fill="#FFFFFF" d="M25.145,21.608c0.086,0,0.189,0,0.273,0.019C25.334,21.627,25.23,21.627,25.145,21.608z"/>
			<path fill="#FFFFFF" d="M16.056,23.077c0.019,0,0.019-0.016,0.038-0.016C16.072,23.077,16.056,23.077,16.056,23.077z"/>
			<path fill="#FFFFFF" d="M15.816,23.215c0,0,0.019,0,0.019-0.016C15.832,23.199,15.832,23.199,15.816,23.215z"/>
			<path fill="#FFFFFF" d="M15.613,23.335C15.613,23.335,15.629,23.335,15.613,23.335C15.629,23.335,15.613,23.335,15.613,23.335z"
				/>
			<path fill="#FFFFFF" d="M16.296,22.959c0.016,0,0.016-0.016,0.035-0.016C16.313,22.943,16.296,22.959,16.296,22.959z"/>
			<path fill="#FFFFFF" d="M16.825,22.721c0.016,0,0.035-0.019,0.05-0.019C16.86,22.703,16.841,22.721,16.825,22.721z"/>
			<path fill="#FFFFFF" d="M16.553,22.841c0.019,0,0.035-0.021,0.051-0.021C16.587,22.82,16.569,22.82,16.553,22.841z"/>
			<path fill="#FFFFFF" d="M22.583,21.627c0.083,0,0.187,0,0.272-0.019C22.77,21.627,22.666,21.627,22.583,21.627z"/>
			<path fill="#FFFFFF" d="M24,27.967c-5.194,0-9.398-1.42-9.398-3.182v2.871c0,1.757,4.201,3.178,9.398,3.178
				c5.194,0,9.396-1.421,9.396-3.178l0,0v-2.871C33.396,26.53,29.194,27.967,24,27.967z"/>
			<path fill="#FFFFFF" d="M14.604,24.684v0.102C14.604,24.753,14.604,24.719,14.604,24.684L14.604,24.684z"/>
			<path fill="#FFFFFF" d="M17.116,22.601c0.016,0,0.051-0.021,0.067-0.021C17.167,22.601,17.148,22.601,17.116,22.601z"/>
			<path fill="#FFFFFF" d="M15.255,23.626C15.255,23.61,15.255,23.61,15.255,23.626C15.255,23.61,15.255,23.61,15.255,23.626z"/>
			<path fill="#FFFFFF" d="M33.396,24.684c0,0.035,0,0.069,0,0.102V24.684L33.396,24.684z"/>
			<path fill="#FFFFFF" d="M14.962,23.915C14.962,23.898,14.962,23.898,14.962,23.915C14.962,23.898,14.962,23.898,14.962,23.915z"
				/>
			<path fill="#FFFFFF" d="M15.098,23.765L15.098,23.765L15.098,23.765z"/>
			<path fill="#FFFFFF" d="M15.424,23.472L15.424,23.472L15.424,23.472z"/>
			<path fill="#FFFFFF" d="M20.805,21.779c0.07,0,0.136-0.016,0.203-0.016C20.941,21.763,20.875,21.779,20.805,21.779z"/>
			<path fill="#FFFFFF" d="M20.38,21.83c0.067-0.016,0.118-0.016,0.187-0.016C20.498,21.816,20.447,21.83,20.38,21.83z"/>
			<path fill="#FFFFFF" d="M21.232,21.731c0.069,0,0.136-0.021,0.222-0.021C21.368,21.71,21.301,21.731,21.232,21.731z"/>
			<path fill="#FFFFFF" d="M17.423,22.495c0.019,0,0.051-0.014,0.067-0.014C17.474,22.481,17.458,22.495,17.423,22.495z"/>
			<path fill="#FFFFFF" d="M22.121,21.662c0.085,0,0.171-0.019,0.256-0.019C22.292,21.643,22.206,21.643,22.121,21.662z"/>
			<path fill="#FFFFFF" d="M19.969,21.902c0.051-0.019,0.118-0.019,0.168-0.037C20.087,21.883,20.02,21.883,19.969,21.902z"/>
			<path fill="#FFFFFF" d="M21.678,21.694c0.067,0,0.152-0.016,0.238-0.016C21.83,21.678,21.745,21.678,21.678,21.694z"/>
			<path fill="#FFFFFF" d="M18.09,22.311c0.032-0.019,0.066-0.019,0.102-0.035C18.157,22.276,18.122,22.292,18.09,22.311z"/>
			<path fill="#FFFFFF" d="M17.749,22.398c0.035-0.019,0.051-0.019,0.085-0.038C17.815,22.38,17.781,22.398,17.749,22.398z"/>
			<path fill="#FFFFFF" d="M18.429,22.206c0.035-0.016,0.085-0.016,0.12-0.035C18.515,22.19,18.482,22.206,18.429,22.206z"/>
			<path fill="#FFFFFF" d="M18.806,22.121c0.051-0.016,0.085-0.016,0.136-0.035C18.891,22.105,18.84,22.121,18.806,22.121z"/>
			<path fill="#FFFFFF" d="M19.182,22.036c0.051-0.016,0.101-0.016,0.152-0.032C19.268,22.02,19.233,22.036,19.182,22.036z"/>
			<path fill="#FFFFFF" d="M19.574,21.971c0.051-0.021,0.102-0.021,0.155-0.037C19.676,21.95,19.625,21.95,19.574,21.971z"/>
		</g>
		<path fill="#FFFFFF" d="M24,14.417c5.189,0,9.396,1.422,9.396,3.179c0,1.755-4.206,3.179-9.396,3.179
			c-5.192,0-9.398-1.424-9.398-3.179C14.602,15.84,18.808,14.417,24,14.417z"/>
	</g>
	<g>
		<rect x="8.633" y="3.5" opacity="0.8" fill="#FFFFFF" enable-background="new    " width="30.734" height="7.858"/>
		<g enable-background="new    ">
			<path fill="#E64A19" d="M18.317,8.525c0.176,0,0.323-0.013,0.438-0.042c0.115-0.028,0.208-0.066,0.278-0.115
				c0.069-0.048,0.117-0.105,0.144-0.172c0.026-0.067,0.04-0.14,0.04-0.222c0-0.173-0.085-0.316-0.256-0.431
				s-0.467-0.239-0.884-0.371c-0.184-0.062-0.365-0.131-0.547-0.209c-0.184-0.079-0.347-0.179-0.491-0.298
				c-0.144-0.12-0.262-0.265-0.353-0.435c-0.093-0.17-0.139-0.379-0.139-0.623s0.048-0.464,0.147-0.661
				c0.096-0.196,0.232-0.363,0.408-0.5c0.176-0.138,0.393-0.243,0.644-0.316c0.25-0.073,0.536-0.111,0.851-0.111
				c0.376,0,0.7,0.039,0.975,0.115c0.272,0.076,0.497,0.16,0.675,0.252l-0.363,0.938c-0.155-0.076-0.328-0.143-0.518-0.201
				c-0.189-0.059-0.419-0.088-0.689-0.088c-0.299,0-0.515,0.04-0.646,0.119c-0.131,0.079-0.198,0.199-0.198,0.361
				c0,0.098,0.024,0.179,0.072,0.246c0.048,0.065,0.117,0.125,0.206,0.179c0.088,0.053,0.189,0.101,0.307,0.145
				c0.115,0.043,0.24,0.088,0.382,0.134c0.288,0.102,0.539,0.203,0.755,0.302c0.213,0.099,0.393,0.215,0.534,0.347
				c0.142,0.134,0.249,0.289,0.318,0.466c0.069,0.179,0.104,0.395,0.104,0.65c0,0.494-0.182,0.877-0.547,1.149
				c-0.363,0.272-0.913,0.408-1.647,0.408c-0.245,0-0.47-0.013-0.667-0.042c-0.198-0.028-0.374-0.063-0.526-0.104
				c-0.155-0.04-0.286-0.084-0.395-0.129s-0.203-0.089-0.278-0.129l0.355-0.948c0.166,0.087,0.371,0.164,0.614,0.234
				C17.663,8.49,17.962,8.525,18.317,8.525z"/>
			<path fill="#E64A19" d="M26.781,6.783c0,0.373-0.048,0.708-0.145,1.005c-0.098,0.298-0.232,0.559-0.405,0.782
				c-0.177,0.224-0.384,0.411-0.624,0.558c-0.24,0.148-0.508,0.255-0.796,0.32c0.026,0.103,0.085,0.186,0.177,0.249
				c0.09,0.064,0.207,0.116,0.346,0.157c0.14,0.04,0.303,0.071,0.486,0.091c0.184,0.021,0.385,0.039,0.598,0.054l-0.256,0.871
				c-0.419-0.016-0.777-0.055-1.073-0.119c-0.299-0.064-0.55-0.151-0.755-0.263c-0.208-0.112-0.371-0.25-0.491-0.413
				c-0.12-0.163-0.213-0.352-0.277-0.566c-0.331-0.04-0.641-0.128-0.924-0.263c-0.285-0.135-0.531-0.318-0.739-0.546
				c-0.211-0.229-0.374-0.504-0.491-0.825c-0.117-0.322-0.176-0.685-0.176-1.093c0-0.453,0.075-0.852,0.224-1.194
				c0.149-0.345,0.352-0.633,0.608-0.868c0.253-0.233,0.547-0.41,0.884-0.526c0.333-0.117,0.686-0.176,1.057-0.176
				c0.379,0,0.74,0.059,1.076,0.176c0.339,0.116,0.633,0.292,0.886,0.526c0.251,0.235,0.448,0.523,0.595,0.868
				C26.709,5.932,26.781,6.331,26.781,6.783z M22.529,6.783c0,0.26,0.032,0.494,0.099,0.703c0.067,0.208,0.166,0.389,0.291,0.538
				c0.125,0.151,0.28,0.267,0.462,0.348c0.181,0.082,0.39,0.122,0.627,0.122c0.23,0,0.438-0.04,0.622-0.122
				c0.187-0.081,0.342-0.197,0.468-0.348c0.125-0.149,0.221-0.33,0.287-0.538c0.067-0.209,0.102-0.443,0.102-0.703
				c0-0.259-0.034-0.495-0.102-0.706c-0.066-0.211-0.162-0.393-0.287-0.542c-0.126-0.151-0.281-0.266-0.468-0.348
				c-0.184-0.082-0.392-0.122-0.622-0.122c-0.237,0-0.446,0.042-0.627,0.125c-0.182,0.084-0.336,0.202-0.462,0.353
				c-0.125,0.149-0.224,0.331-0.291,0.542C22.561,6.296,22.529,6.53,22.529,6.783z"/>
			<path fill="#E64A19" d="M31.549,8.41v1.023h-3.721V4.141h1.254v4.27H31.549z"/>
		</g>
	</g>
</g>
</svg>
