<?xml version="1.0" encoding="utf-8"?>
<!-- Generator: Adobe Illustrator 16.0.0, SVG Export Plug-In . SVG Version: 6.00 Build 0)  -->
<!DOCTYPE svg PUBLIC "-//W3C//DTD SVG 1.1//EN" "http://www.w3.org/Graphics/SVG/1.1/DTD/svg11.dtd">
<svg version="1.1" id="图层_1" xmlns="http://www.w3.org/2000/svg" xmlns:xlink="http://www.w3.org/1999/xlink" x="0px" y="0px"
	 width="48px" height="48px" viewBox="0 0 48 48" enable-background="new 0 0 48 48" xml:space="preserve">
<polygon opacity="0.06" enable-background="new    " points="7.181,48 7.181,2 42.818,2 42.818,35.003 29.82,48 "/>
<polygon opacity="0.1" enable-background="new    " points="8.181,47 8.181,3 41.818,3 41.818,34.589 29.407,47 "/>
<polygon opacity="0.2" enable-background="new    " points="7.181,46 7.181,2 40.818,2 40.818,33.589 28.408,46 "/>
<polygon fill="#5F7B89" points="8.181,45 8.181,3 39.818,3 39.818,33.175 27.994,45 "/>
<g>
	<g>
		<g>
			<g>
				<g>
					<g>
						<g>
							<g>
								
									<linearGradient id="SVGID_1_" gradientUnits="userSpaceOnUse" x1="148.7988" y1="1247.2002" x2="148.7988" y2="1288.2012" gradientTransform="matrix(1 0 0 1 -124.7998 -1243.7012)">
									<stop  offset="0" style="stop-color:#F6F5F5"/>
									<stop  offset="0.341" style="stop-color:#F1F2F3"/>
									<stop  offset="0.6434" style="stop-color:#E7EAEB"/>
									<stop  offset="0.9302" style="stop-color:#D5DBDF"/>
									<stop  offset="1" style="stop-color:#CFD7DB"/>
								</linearGradient>
								<polygon fill="url(#SVGID_1_)" points="8.64,44.5 8.64,3.5 39.357,3.5 39.357,32.969 27.826,44.5 								"/>
							</g>
							<polygon fill="#455963" fill-opacity="0.7" points="39.357,32.969 39.357,32.473 27.193,32.473 27.193,44.5 27.826,44.5 
															"/>
							<path fill="#8DA1AC" d="M27.811,32.969l11.549,0.019L27.826,44.5L27.811,32.969z"/>
						</g>
					</g>
				</g>
			</g>
		</g>
	</g>
	<g>
		<path fill="#607D8B" d="M32.447,19.864c0,1.399-0.23,2.655-0.689,3.767c-0.465,1.11-1.078,2.049-1.852,2.815
			c-0.775,0.766-1.672,1.351-2.697,1.754c-1.02,0.402-2.086,0.605-3.208,0.605c-1.121,0-2.191-0.203-3.211-0.605
			c-1.022-0.403-1.919-0.988-2.693-1.754c-0.774-0.766-1.391-1.705-1.852-2.815c-0.462-1.112-0.691-2.368-0.691-3.767
			c0-1.4,0.229-2.656,0.691-3.768c0.461-1.11,1.078-2.048,1.852-2.814c0.774-0.766,1.671-1.351,2.693-1.754
			c1.02-0.403,2.09-0.604,3.211-0.604c1.122,0,2.188,0.202,3.208,0.604c1.025,0.403,1.922,0.988,2.697,1.754
			c0.773,0.766,1.387,1.704,1.852,2.814C32.217,17.208,32.447,18.464,32.447,19.864z M30.643,19.864c0-1.087-0.16-2.079-0.492-2.976
			c-0.33-0.898-0.783-1.667-1.371-2.31c-0.582-0.642-1.281-1.136-2.098-1.481c-0.817-0.346-1.709-0.52-2.68-0.52
			c-0.972,0-1.866,0.174-2.68,0.52c-0.817,0.346-1.516,0.839-2.101,1.481c-0.584,0.643-1.041,1.412-1.369,2.31
			c-0.331,0.897-0.494,1.889-0.494,2.976c0,1.086,0.163,2.078,0.494,2.975c0.328,0.898,0.785,1.669,1.369,2.312
			c0.584,0.641,1.284,1.135,2.101,1.481c0.814,0.345,1.708,0.519,2.68,0.519c0.971,0,1.863-0.174,2.68-0.519
			c0.816-0.347,1.516-0.841,2.098-1.481c0.588-0.643,1.041-1.413,1.371-2.312C30.482,21.942,30.643,20.95,30.643,19.864z"/>
		<g>
			<path fill="#607D8B" d="M25.08,25.115h-2.16v-7.492h2.16V25.115z"/>
		</g>
		<circle fill="#607D8B" cx="24.001" cy="15.608" r="1.26"/>
	</g>
</g>
</svg>
