<?xml version="1.0" encoding="utf-8"?>
<!-- Generator: Adobe Illustrator 16.0.0, SVG Export Plug-In . SVG Version: 6.00 Build 0)  -->
<!DOCTYPE svg PUBLIC "-//W3C//DTD SVG 1.1//EN" "http://www.w3.org/Graphics/SVG/1.1/DTD/svg11.dtd">
<svg version="1.1" id="图层_1" xmlns="http://www.w3.org/2000/svg" xmlns:xlink="http://www.w3.org/1999/xlink" x="0px" y="0px"
	 width="48px" height="48px" viewBox="0 0 48 48" enable-background="new 0 0 48 48" xml:space="preserve">
<polygon opacity="0.06" enable-background="new    " points="7.181,48 7.181,2 42.818,2 42.818,35.003 29.82,48 "/>
<polygon opacity="0.1" enable-background="new    " points="8.181,47 8.181,3 41.818,3 41.818,34.589 29.407,47 "/>
<polygon opacity="0.2" enable-background="new    " points="7.181,46 7.181,2 40.818,2 40.818,33.589 28.408,46 "/>
<polygon fill="#212121" points="8.143,45 8.143,3 39.857,3 39.857,33.174 28.004,45 "/>
<g>
	<g>
		<g>
			<g>
				<linearGradient id="SVGID_1_" gradientUnits="userSpaceOnUse" x1="23.9995" y1="44.5" x2="23.9995" y2="3.5005">
					<stop  offset="0" style="stop-color:#616161"/>
					<stop  offset="1" style="stop-color:#90A4AE"/>
				</linearGradient>
				<polygon fill="url(#SVGID_1_)" points="8.64,44.5 8.64,3.5 39.358,3.5 39.358,32.969 27.827,44.5 				"/>
			</g>
			<polygon fill="#9E9E9E" fill-opacity="0.39" points="39.358,32.969 39.358,32.473 27.194,32.473 27.194,44.5 27.827,44.5 			"/>
			<path fill="#FFFFFF" fill-opacity="0.3922" d="M27.811,32.969l11.55,0.016L27.827,44.5L27.811,32.969z"/>
		</g>
	</g>
	<g>
		<g>
			<g opacity="0.8">
				<path fill="#FFFFFF" d="M17.585,27.881c-0.956,0-1.826-0.145-2.611-0.438c-0.784-0.293-1.46-0.715-2.022-1.275
					c-0.561-0.556-0.996-1.244-1.303-2.066c-0.31-0.82-0.465-1.759-0.465-2.813c0-1.057,0.177-1.997,0.521-2.813
					c0.35-0.819,0.817-1.511,1.404-2.069c0.59-0.558,1.275-0.982,2.063-1.273c0.784-0.294,1.623-0.438,2.506-0.438
					c0.566,0,1.076,0.038,1.524,0.109c0.454,0.072,0.841,0.158,1.177,0.254c0.334,0.099,0.606,0.195,0.814,0.291
					c0.211,0.099,0.353,0.17,0.433,0.219l-0.55,1.458c-0.117-0.072-0.288-0.152-0.513-0.235c-0.219-0.085-0.47-0.171-0.753-0.256
					c-0.282-0.085-0.59-0.155-0.923-0.208c-0.334-0.056-0.671-0.083-1.01-0.083c-0.718,0-1.366,0.115-1.943,0.344
					c-0.576,0.232-1.064,0.566-1.471,1.004c-0.405,0.438-0.715,0.966-0.932,1.593c-0.216,0.625-0.325,1.327-0.325,2.104
					c0,0.752,0.096,1.438,0.285,2.055c0.19,0.622,0.473,1.153,0.854,1.594c0.379,0.445,0.854,0.787,1.42,1.032
					c0.571,0.24,1.236,0.363,1.994,0.363c0.878,0,1.602-0.08,2.178-0.257c0.574-0.165,1.01-0.32,1.292-0.453l0.497,1.457
					c-0.091,0.059-0.257,0.134-0.497,0.225c-0.231,0.096-0.525,0.182-0.878,0.267c-0.357,0.085-0.769,0.155-1.238,0.225
					C18.642,27.854,18.135,27.881,17.585,27.881z"/>
			</g>
		</g>
		<g opacity="0.8">
			<path fill="#FFFFFF" d="M20.649,20.61h3.206v-3.494h1.355v3.494h3.209v1.34h-3.209v3.507h-1.355V21.95h-3.206V20.61z"/>
			<path fill="#FFFFFF" d="M29.044,20.61h3.209v-3.494h1.355v3.494h3.209v1.34h-3.209v3.507h-1.355V21.95h-3.209V20.61z"/>
		</g>
	</g>
</g>
</svg>
