<?xml version="1.0" encoding="utf-8"?>
<!-- Generator: Adobe Illustrator 21.0.0, SVG Export Plug-In . SVG Version: 6.00 Build 0)  -->
<svg version="1.1" id="图层_1" xmlns="http://www.w3.org/2000/svg" xmlns:xlink="http://www.w3.org/1999/xlink" x="0px" y="0px"
	 viewBox="0 0 48 48" style="enable-background:new 0 0 48 48;" xml:space="preserve">
<style type="text/css">
	.st0{opacity:0.06;enable-background:new    ;}
	.st1{opacity:0.1;enable-background:new    ;}
	.st2{opacity:0.2;enable-background:new    ;}
	.st3{fill:#212121;}
	.st4{fill:url(#SVGID_1_);}
	.st5{fill:#9E9E9E;fill-opacity:0.39;}
	.st6{fill:#FFFFFF;fill-opacity:0.3922;}
	.st7{opacity:0.8;}
	.st8{fill:#FFFFFF;}
</style>
<polygon class="st0" points="7.2,48 7.2,2 42.8,2 42.8,35 29.8,48 "/>
<polygon class="st1" points="8.2,47 8.2,3 41.8,3 41.8,34.6 29.4,47 "/>
<polygon class="st2" points="7.2,46 7.2,2 40.8,2 40.8,33.6 28.4,46 "/>
<polygon class="st3" points="8.1,45 8.1,3 39.9,3 39.9,33.2 28,45 "/>
<g>
	<g>
		<g>
			<g>
				
					<linearGradient id="SVGID_1_" gradientUnits="userSpaceOnUse" x1="24" y1="786.5" x2="24" y2="745.5" gradientTransform="matrix(1 0 0 1 0 -742)">
					<stop  offset="0" style="stop-color:#616161"/>
					<stop  offset="1" style="stop-color:#90A4AE"/>
				</linearGradient>
				<polygon class="st4" points="8.6,44.5 8.6,3.5 39.4,3.5 39.4,33 27.8,44.5 				"/>
			</g>
			<polygon class="st5" points="39.4,33 39.4,32.5 27.2,32.5 27.2,44.5 27.8,44.5 			"/>
			<path class="st6" d="M27.8,33h11.5L27.8,44.5V33z"/>
		</g>
	</g>
	<g class="st7">
		<path class="st8" d="M25.7,30.2c-1.3,0-2.5-0.2-3.5-0.6c-1.1-0.4-2-1-2.7-1.7c-0.8-0.8-1.3-1.7-1.8-2.8c-0.4-1.1-0.6-2.4-0.6-3.8
			s0.2-2.7,0.7-3.8s1.1-2,1.9-2.8s1.7-1.3,2.8-1.7s2.2-0.6,3.4-0.6c0.8,0,1.4,0.1,2,0.1c0.6,0.1,1.1,0.2,1.6,0.3
			c0.4,0.1,0.8,0.3,1.1,0.4c0.3,0.1,0.5,0.2,0.6,0.3l-0.7,2c-0.2-0.1-0.4-0.2-0.7-0.3c-0.3-0.1-0.6-0.2-1-0.3s-0.8-0.2-1.2-0.3
			s-0.9-0.1-1.4-0.1c-1,0-1.8,0.2-2.6,0.5s-1.4,0.8-2,1.3c-0.5,0.6-1,1.3-1.3,2.1c-0.3,0.8-0.4,1.8-0.4,2.8s0.1,1.9,0.4,2.8
			c0.3,0.8,0.6,1.5,1.1,2.1s1.1,1.1,1.9,1.4S25,28,26,28c1.2,0,2.2-0.1,2.9-0.3s1.4-0.4,1.7-0.6l0.7,2c-0.1,0.1-0.3,0.2-0.7,0.3
			c-0.3,0.1-0.7,0.2-1.2,0.4c-0.5,0.1-1,0.2-1.7,0.3C27.1,30.1,26.5,30.2,25.7,30.2z"/>
	</g>
</g>
</svg>
