<?xml version="1.0" encoding="utf-8"?>
<!-- Generator: Adobe Illustrator 21.0.0, SVG Export Plug-In . SVG Version: 6.00 Build 0)  -->
<svg version="1.1" id="图层_1" xmlns="http://www.w3.org/2000/svg" xmlns:xlink="http://www.w3.org/1999/xlink" x="0px" y="0px"
	 viewBox="0 0 48 48" style="enable-background:new 0 0 48 48;" xml:space="preserve">
<style type="text/css">
	.st0{opacity:0.06;enable-background:new    ;}
	.st1{opacity:0.1;enable-background:new    ;}
	.st2{opacity:0.2;enable-background:new    ;}
	.st3{fill:#0D47A1;}
	.st4{fill:url(#SVGID_1_);}
	.st5{fill:#0D47A1;fill-opacity:0.39;}
	.st6{fill:#FFFFFF;fill-opacity:0.45;}
	.st7{fill:#64B5F6;}
	.st8{fill:#FFFFFF;fill-opacity:0.8;}
</style>
<polygon class="st0" points="7.2,48 7.2,2 42.8,2 42.8,35 29.8,48 "/>
<polygon class="st1" points="8.2,47 8.2,3 41.8,3 41.8,34.6 29.4,47 "/>
<polygon class="st2" points="7.2,46 7.2,2 40.8,2 40.8,33.6 28.4,46 "/>
<polygon class="st3" points="8.1,45 8.1,3 39.9,3 39.9,33.2 28,45 "/>
<g>
	<g>
		<g>
			
				<linearGradient id="SVGID_1_" gradientUnits="userSpaceOnUse" x1="107.2002" y1="1603.3008" x2="107.2002" y2="1562.3008" gradientTransform="matrix(1 0 0 1 -83.2002 -1558.8008)">
				<stop  offset="0" style="stop-color:#1976D2"/>
				<stop  offset="0.0226" style="stop-color:#1C79D3"/>
				<stop  offset="0.2859" style="stop-color:#3B93E2"/>
				<stop  offset="0.5416" style="stop-color:#52A6ED"/>
				<stop  offset="0.7843" style="stop-color:#5FB1F4"/>
				<stop  offset="1" style="stop-color:#64B5F6"/>
			</linearGradient>
			<polygon class="st4" points="8.6,44.5 8.6,3.5 39.4,3.5 39.4,33 27.8,44.5 			"/>
		</g>
		<polygon class="st5" points="39.4,33 39.4,32.5 27.2,32.5 27.2,44.5 27.8,44.5 		"/>
		<path class="st6" d="M27.8,33h11.6L27.8,44.5V33z"/>
	</g>
	<path class="st7" d="M34.7,20.9c0,5.9-4.8,10.7-10.7,10.7s-10.7-4.8-10.7-10.7S18.1,10.2,24,10.2C29.9,10.2,34.7,15,34.7,20.9z"/>
	<path class="st8" d="M17,12.9c0,0,0.2,0.1,0.3,0.3c0.1,0.2,0.3,0.2,0.3,0.2h0.3l0.5-0.2l-0.1,0.3c0,0-2.6,1.2-2.1,1.9
		c0.5,0.7,0.3,0.9,0.3,1.1s0.2,0,0.2,0l0.2-0.4l0.2-0.3l0.2-0.3l0.1-0.2l0.3-0.5l0.4-0.2l0.3,0.2c0,0,0.2,0.1,0.1,0.2
		c0,0.1-0.1,0.3-0.1,0.3s0.1,0.2,0.2,0.2s0.3-0.1,0.3-0.1l0.2,0.3l0.1,0.5l0.3,0.3l0.2,0.3l-0.2,0.3l0.2,0.1l0.3,0.4l0.1,0.2h-0.6
		c0,0-0.1-0.2-0.2-0.2s-0.6,0-0.6,0l-0.3,0.1l-0.2,0.2c0,0-0.2,0.3-0.3,0.3c-0.1,0-0.4-0.1-0.4-0.1s-0.2-0.1-0.3,0.2
		c-0.1,0.2,0.2,0.3,0.2,0.3l-0.5,0.2l-0.2,0.1c0,0-0.4,0.2-0.4,0.3s0,0.1,0,0.1l-0.1,0.3v0.2L16,19.9l-0.3,0.2l-0.1,0.2v0.4
		c0,0,0,0.2,0,0.3s0,0.4,0,0.4s-0.1,0.1-0.2-0.1C15.3,21,15.3,21,15.3,21l-0.1-0.3c0,0,0.1,0,0-0.2c-0.2-0.1-0.3-0.2-0.3-0.2
		s-0.1-0.1-0.2-0.1c-0.1,0,0.2,0-0.1,0s-0.3,0-0.3,0L14,20.4v0.2c0,0-0.1,1.3,0.3,1.5h0.2l0.2-0.3l0.2,0.1v0.2v0.3v0.2l0.2,0.2
		l0.1,0.3c0.2,0.3,0.1,0.3,0.2,0.4c0.1,0.1,0.2,0.3,0.2,0.3l0.2,0.1c0,0,0.1,0,0.2,0.1c0.1,0,0.1,0,0.1,0v0.2v0.1l0.2,0.2
		c0,0-0.1,0,0.2,0s0.3,0,0.3,0s0,0.1,0.2,0.2s0,0,0.2,0.1c0.2,0,0.4,0.1,0.4,0.1c0.3,0,0.3,0,0.3,0l0.2,0.3c0,0,0.1,0,0.2,0.1
		c0,0.1-0.2,0,0,0.1s0,0,0.2,0.1s-0.1,0.1,0.2,0.1c0.3,0,0.3,0,0.5,0c0.1,0,0.2,0.3,0.2,0.3c0.2,0.3,0.2,0.3,0.2,0.3v0.3
		c0,0-0.1,0.1,0.2,0.1c0.3,0,0.1,0,0.3,0s0-0.1,0.2,0s0.2,0.1,0.2,0.1S20.8,27,21,27s0.3,0,0.5,0c0.1,0,0.2,0.2,0.4,0.3
		c0.2,0,0.3,0,0.5,0.1s0.2,0.1,0.2,0.1v0.4l-0.1,0.2l-0.3,0.1v0.4L22,29v0c0,0,0.2,0.2-0.1,0.2c-0.3,0-0.3,0-0.3,0l-0.2,0.2
		c0,0,0,0-0.1,0.2c-0.1,0.1-0.2,0.3-0.2,0.3v0.3v0.2L21,30.6c0,0-0.1,0.1,0.2,0.2c0.3,0.2,0.5,0.2,0.6,0.3c0.1,0.1,0.3,0.2,0.3,0.2
		l-0.4-0.1l-0.7,0l-0.4-0.1l-0.8-0.4c0,0-1.2-1-1.6-1.8c0,0-0.3-0.5-0.9-0.7c0,0-1.4-1.2-1.5-1.5v-0.2v-0.1l-0.1-0.1v-0.1v-0.1v-0.4
		v-0.3v-0.1v-0.1l-0.1-0.1l-0.1-0.2l0,0l0.2-0.2l-0.1-0.2v-0.1l0.1-0.1l0.1-0.1l-0.1-0.1h-0.1l-0.1,0.2h-0.1h-0.1l-0.1-0.1h-0.1H15
		l-0.1-0.1L14.8,24h-0.1l-0.1-0.2l-0.1-0.1c0,0-0.1-0.1-0.1-0.2l-0.1-0.1h-0.1L14,23.3l0.4-0.3l-0.1-0.2c0,0-0.1-0.1-0.1-0.2
		l-0.1-0.1H14l0,0l-0.1-0.1L13.6,22l-0.1-0.2l-0.1-0.2v-0.3v-0.2l-0.1-1.6C13.3,19.6,13.8,15.6,17,12.9z"/>
	<path class="st8" d="M29.1,11.5l0.3,0.3l0.2,0.1l0.1,0.1v0.1c0,0,0,0.1,0,0.2v0.2l0.2,0.3V13l-0.2,0.1c0-0.1-0.1-0.2-0.2-0.2
		l-0.1-0.1h0.3v-0.2l-0.2-0.1l-0.2-0.1l-0.2-0.1c0,0-0.3-0.1-0.4-0.1l-0.2-0.1H28c0,0-0.1,0.1-0.2,0.1l-0.2,0.2c0,0,0,0.2,0,0.3
		c0,0-0.1,0.1-0.1,0.2c0,0.1,0,0.2,0,0.3v0.1v0.2l-0.1,0.1l-0.2,0.1l-0.1,0.1c0,0,0,0.2,0.1,0.3c0,0.1,0,0.2,0.1,0.3
		s0.1,0.1,0.2,0.1s0,0,0.1,0s0.1,0,0.2,0c0,0,0.1,0,0.2-0.1c0-0.1,0,0,0-0.1c0.1,0,0.1-0.1,0.1,0c0.1,0.1,0.1,0.1,0.1,0.2
		c0,0,0.1,0.1,0.1,0.2c0.1,0,0.1,0.2,0.1,0.2l0.1,0.1c0,0,0,0,0.1,0s0.2,0,0.2,0v-0.1h0.1v-0.1c0,0,0-0.1-0.1-0.1l-0.1-0.1v-0.1
		l0.1-0.1v-0.1v-0.1h-0.1l-0.1-0.1c0,0-0.1,0-0.1-0.1s0-0.1,0-0.1h-0.2l-0.1-0.1l0.1-0.1c0.1-0.1,0.1-0.2,0.1-0.2v-0.1
		c0,0-0.1,0-0.1-0.1s0-0.1,0-0.1v-0.1c0,0,0-0.1,0.1-0.1l0.1,0.1h0.1c0,0,0,0,0,0.1v0.1l0.1-0.1v0.1v0.1v0.1l0.1,0.1L29,14l0.1,0.1
		l0.1,0.1l0.1,0.1h0.1l0.1-0.1h0.1l0,0c0,0,0.1,0,0.2,0h0.1v0.1c0,0,0,0-0.1,0.1c-0.1,0-0.1,0-0.1,0l-0.1,0.1h0.1l0,0l0.1,0.1
		c0,0,0,0,0,0.1s0.1,0,0,0.1c-0.1,0-0.1,0-0.1,0s0-0.1-0.1-0.1v0.1v0.1l0.1,0.2c0,0,0,0,0,0.1l-0.2,0.2c0,0,0,0.1-0.1,0.1
		c0,0-0.1,0-0.2,0s-0.1,0-0.1,0c-0.1,0-0.1,0-0.2,0.1c-0.1,0-0.3,0-0.4,0s-0.1,0-0.1,0s0,0-0.1-0.1c0-0.1-0.1-0.1-0.1-0.2v-0.1
		c0-0.1,0-0.1-0.1-0.1s-0.1,0-0.1,0l-0.1,0.1c0,0,0,0,0.1,0.1s0.2,0.2,0.2,0.2v0.1L28,15.7l-0.2,0.1v0.1c0,0,0,0,0,0.1l-0.1,0.1
		c0,0-0.1,0-0.1,0.1l-0.1,0.2h-0.1c-0.1,0,0,0-0.1,0.1c-0.2,0.1-0.2,0.1-0.2,0.1h-0.2h-0.1c0,0-0.1,0-0.2,0.1l-0.1,0.1v0.1
		c0,0,0.1,0,0.2,0s0.1,0,0.1,0c0.1,0,0.1,0.1,0.1,0.1l0.2,0.2l0.1,0.2v0.2L27,17.7c0,0-0.1,0-0.2,0c0,0,0,0-0.2,0s-0.2,0-0.3,0h-0.2
		H26l-0.1,0.1l0,0L26,18v0.1v0.1v0.1l-0.1,0.1v0.1v0.1H26l-0.1,0.2h0.2c0,0,0,0,0.1,0s0.2,0.1,0.2,0.1l0.1,0.1v0.1V19h0.2h0.1H27
		c0,0,0,0,0.1,0l0,0l0.2-0.1v-0.1c0,0,0.1,0,0.1-0.1v-0.1V18v-0.1c0,0,0,0,0.1-0.1c0-0.1,0-0.1,0-0.1s0,0,0-0.1
		c0.1,0,0.1-0.1,0.2-0.1s0,0,0,0l0.1-0.1v-0.2l0.1-0.1h0.2h0.1h0.1l0.1-0.1l0.1-0.1l0,0c0.1,0,0.2,0,0.2,0h0.1c0,0,0.1,0,0.1,0.1
		l0.1,0.1l0.1,0.1h0.1c0.1,0.1,0.1,0.1,0.2,0.1s0.2,0.1,0.2,0.1s0,0.1,0.1,0.1l0.1,0.1l0.1,0.1l0.1,0.1l0.1,0.1v-0.1v-0.1v-0.1
		c0,0-0.1-0.1,0-0.1s0.1,0,0.1,0L30,17.6h-0.1l-0.1-0.1l-0.1-0.1l0,0h-0.1l-0.1-0.1c0,0-0.1,0-0.1-0.1l0,0h-0.1l-0.1-0.1V17h-0.1
		v-0.1v-0.1h0.2l0.1,0.1l0.1,0.1l0.1,0.1v0.1l0.1,0.1c0,0,0,0,0.1,0s0.1,0,0.1,0l0.1,0.1h0.1l0,0c0,0,0,0,0.1,0.1l0.1,0.1
		c0,0,0,0.2,0.1,0.2c0,0,0,0,0.1,0.1s0.1,0.1,0.1,0.2c0.1,0,0.1,0,0.1,0.1s0,0.1,0,0.1h0.1l0.1-0.1L31,18h-0.1v-0.2v-0.1l0.1-0.1
		h0.1l0.1-0.1l0.1,0.1v0.1c0,0,0,0.1,0.1,0.2c0,0.1,0.1,0.2,0.1,0.2l0.2,0.2l0.2,0.1H32l0.4-0.1h0.1l0.2,0.3c0,0,0,0.1,0,0.2
		s0,0.2,0,0.2l-0.3,0l-0.2,0.1l-0.3,0.1h-0.2h-0.3c0,0-0.3,0-0.4,0h-0.2c0,0-0.1,0-0.1,0.1s-0.1,0.1-0.1,0.1s0,0.1-0.1,0.1
		s-0.1,0-0.1,0c-0.1,0-0.3-0.1-0.3-0.1l-0.2-0.2L29.8,19h-0.1h-0.3h-0.2v-0.4v0.1l-0.1-0.2L29,18.4h-0.2h-0.2l-0.2,0.1l-0.2,0.1
		h-0.1l-0.6,0.1l-0.2,0.1c0,0-0.1,0-0.1,0.1H27c0,0-0.1,0-0.2,0h-0.2h-0.2c0,0-0.1,0-0.1,0.1l-0.2,0.2L26,19.3l-0.1,0.1l-0.1,0.2
		l-0.1,0.1v0.1v0.1c0,0,0,0.1-0.1,0.1l-0.1,0.1c0,0,0,0-0.1,0.1c0,0,0,0-0.1,0.1l-0.2,0.1L25,20.5c0,0.1-0.1,0.1-0.1,0.2l-0.1,0.1
		L24.7,21l-0.1,0.2l-0.1,0.3v0.1c0,0,0,0.1,0.1,0.1l0.1,0.2V22c0,0,0,0.1-0.1,0.1v0.2v0.1c0,0,0,0,0,0.1c-0.1,0-0.1,0.1-0.1,0.1
		l0.1,0.2v0.1V23l0.1,0.1c0,0,0,0,0.1,0.1c0,0,0.1,0,0.1,0.1c0.1,0,0.1,0,0.1,0s0.1,0.1,0.1,0.2l0.1,0.1l0.1,0.1c0,0,0,0.1,0.1,0.1
		c0.1,0.1,0.1,0.1,0.2,0.1c0,0,0.1,0.1,0.2,0.1s0.1,0,0.1,0s-0.1-0.1,0.2,0s0.4,0.2,0.4,0.2l0.2,0.1H27h0.1c0,0,0.1,0,0.2,0
		s0.3,0,0.3,0l0.3-0.1c0,0,0.1,0,0.1-0.1c0,0,0.1-0.1,0.2-0.1h0.2c0,0,0,0,0.1,0c0.1,0.1,0.1,0.1,0.1,0.1s0,0.1,0.1,0.1
		s0.2,0.1,0.2,0.1h0.2c0.1,0,0.2,0,0.2,0l0.1,0.1v0.2v0.1c0,0,0,0,0,0.1l0.1,0.1L29.4,25l-0.1,0.1l0.2,0.2l0.1,0.1l0.1,0.1
		c0,0,0,0,0,0.1s0,0.1,0,0.2V26v0.1v0.2v0.1l-0.1,0.2l-0.1,0.1l-0.1,0.1l-0.1,0.1v0.2L29,27c0,0,0,0.1,0,0.2l0.1,0.2v0.2
		c0,0-0.1,0.2-0.1,0.3c0,0.1,0,0.1,0,0.2v0.2v0.2l0.1,0.2L29,28.8c0,0,0,0.1,0,0.2s0.1,0.1,0.2,0.1c0,0,0.2,0,0.3-0.1
		c0.1,0,0.2-0.1,0.3-0.1c0,0,0.1,0,0.2-0.1s0.3-0.2,0.3-0.2s0.1-0.1,0.2-0.1l0.2-0.2c0,0,0.1-0.1,0.2-0.2c0.1,0,0,0,0.1-0.1
		c0.1,0,0.4-0.3,0.4-0.3l0.3-0.3c0,0,0.2-0.3,0.3-0.4c0-0.1,0.3-0.3,0.3-0.4c0,0,0.3-0.2,0.4-0.3c0.1,0,0.2-0.4,0.2-0.5l0.2-0.5
		l0.2-0.5l0.3-0.7l0.3-0.5c0,0,0.1-0.2,0.2-0.3c0-0.1,0.3-0.6,0.3-0.6l0.1-0.4v-0.4H34l-0.2,0.2L33.6,22h-0.2l0.2-0.2l-0.1-0.2
		l-0.2-0.1l-0.2-0.3v-0.3L33,20.8l-0.1-0.6c0,0-0.3-0.3-0.2-0.3c0-0.1,0.1-0.3,0.1-0.3l0.1,0.1c0,0,0.1,0.3,0.2,0.3
		c0.1,0,0.1,0.2,0.1,0.2s0,0.2,0.1,0.2l0.1,0.3c0,0,0.1,0.2,0.1,0.3c0,0,0.1,0.2,0.1,0.3c0,0.1,0.1,0.4,0.1,0.5l0.1,0.4
		c0,0,0.1,0,0.1-0.1c0,0,0-0.1,0.1-0.1l0.2-0.2l0.1-0.3c0,0,0-0.1,0.1-0.2c0,0,0.1-0.2,0.1-0.3v-0.2c0,0,0.1-0.2,0.1-0.3
		s0-0.2,0-0.2V20l0.1-0.2l0.1-0.2C34.7,19.6,34.2,14.2,29.1,11.5z"/>
</g>
</svg>
