<?xml version="1.0" encoding="utf-8"?>
<!-- Generator: Adobe Illustrator 16.0.0, SVG Export Plug-In . SVG Version: 6.00 Build 0)  -->
<!DOCTYPE svg PUBLIC "-//W3C//DTD SVG 1.1//EN" "http://www.w3.org/Graphics/SVG/1.1/DTD/svg11.dtd">
<svg version="1.1" id="图层_1" xmlns="http://www.w3.org/2000/svg" xmlns:xlink="http://www.w3.org/1999/xlink" x="0px" y="0px"
	 width="48px" height="48px" viewBox="0 0 48 48" enable-background="new 0 0 48 48" xml:space="preserve">
<polygon opacity="0.06" enable-background="new    " points="7.181,48 7.181,2 42.818,2 42.818,35.003 29.82,48 "/>
<polygon opacity="0.1" enable-background="new    " points="8.181,47 8.181,3 41.818,3 41.818,34.589 29.407,47 "/>
<polygon opacity="0.2" enable-background="new    " points="7.181,46 7.181,2 40.818,2 40.818,33.589 28.408,46 "/>
<polygon fill="#0D47A1" points="8.143,45 8.143,3 39.857,3 39.857,33.176 28.002,45 "/>
<g>
	<g>
		<g>
			
				<linearGradient id="SVGID_1_" gradientUnits="userSpaceOnUse" x1="107.1992" y1="861.3008" x2="107.1992" y2="820.3008" gradientTransform="matrix(1 0 0 1 -83.2002 -816.8008)">
				<stop  offset="0" style="stop-color:#1976D2"/>
				<stop  offset="0.0226" style="stop-color:#1C79D3"/>
				<stop  offset="0.2859" style="stop-color:#3B93E2"/>
				<stop  offset="0.5416" style="stop-color:#52A6ED"/>
				<stop  offset="0.7843" style="stop-color:#5FB1F4"/>
				<stop  offset="1" style="stop-color:#64B5F6"/>
			</linearGradient>
			<polygon fill="url(#SVGID_1_)" points="8.641,44.5 8.641,3.5 39.359,3.5 39.359,32.969 27.828,44.5 			"/>
		</g>
		<polygon fill="#0D47A1" fill-opacity="0.39" points="39.359,32.969 39.359,32.473 27.195,32.473 27.195,44.5 27.828,44.5 		"/>
		<path fill="#FFFFFF" fill-opacity="0.45" d="M27.81,32.969l11.55,0.016L27.828,44.5L27.81,32.969z"/>
	</g>
	<path fill="#64B5F6" d="M34.677,20.925c0,5.894-4.781,10.679-10.677,10.679c-5.895,0-10.678-4.785-10.678-10.679
		c0-5.895,4.783-10.677,10.678-10.677C29.896,10.248,34.677,15.03,34.677,20.925z"/>
	<path fill="#FFFFFF" fill-opacity="0.8" d="M16.995,12.879c0,0,0.221,0.117,0.307,0.306c0.07,0.188,0.307,0.188,0.307,0.188h0.341
		l0.498-0.153l-0.118,0.274c0,0-2.615,1.211-2.086,1.93c0.531,0.719,0.344,0.904,0.344,1.129c0,0.22,0.155,0.033,0.155,0.033
		l0.151-0.41l0.221-0.307l0.221-0.341l0.07-0.189l0.308-0.529l0.376-0.222l0.341,0.222c0,0,0.153,0.067,0.119,0.188
		c-0.033,0.119-0.066,0.339-0.066,0.339s0.066,0.156,0.188,0.156s0.308-0.121,0.308-0.121l0.153,0.273l0.121,0.496l0.307,0.306
		l0.156,0.342l-0.156,0.306l0.156,0.121l0.342,0.377l0.066,0.187l-0.564-0.034c0,0-0.068-0.153-0.188-0.153
		c-0.121,0-0.597-0.035-0.597-0.035l-0.275,0.067l-0.153,0.188c0,0-0.191,0.306-0.311,0.306c-0.117,0-0.408-0.066-0.408-0.066
		s-0.22-0.069-0.339,0.152c-0.121,0.224,0.186,0.341,0.186,0.341l-0.529,0.156l-0.156,0.07c0,0-0.375,0.152-0.375,0.271
		s0,0.121,0,0.121l-0.116,0.305v0.187l-0.275,0.225l-0.274,0.187l-0.121,0.223v0.376c0,0-0.035,0.188-0.035,0.307s0,0.412,0,0.412
		s-0.117,0.118-0.183-0.123c-0.068-0.221-0.068-0.221-0.068-0.221l-0.121-0.275c0,0,0.121-0.033-0.034-0.152
		c-0.154-0.121-0.308-0.154-0.308-0.154s-0.066-0.067-0.223-0.067c-0.15,0,0.191,0.033-0.15,0c-0.344-0.034-0.344-0.034-0.344-0.034
		l-0.275,0.22v0.188c0,0-0.065,1.335,0.307,1.521h0.154l0.225-0.341l0.189,0.068v0.152l-0.035,0.276v0.151l0.188,0.19l0.121,0.344
		c0.153,0.271,0.068,0.341,0.188,0.408c0.121,0.068,0.223,0.274,0.223,0.274l0.151,0.067c0,0,0.121,0.035,0.222,0.07
		c0.121,0.036,0.121,0.036,0.121,0.036l0.037,0.169l0.035,0.134l0.151,0.188c0,0-0.119,0,0.154,0s0.273,0,0.273,0
		s0,0.07,0.189,0.156c0.188,0.066,0.035,0.035,0.188,0.066c0.154,0.035,0.412,0.068,0.412,0.068
		c0.271-0.035,0.271-0.035,0.271-0.035l0.191,0.276c0,0,0.116,0,0.151,0.118c0.035,0.122-0.187,0,0.035,0.122
		c0.224,0.12,0,0.034,0.222,0.12c0.22,0.086-0.066,0.066,0.22,0.066c0.291,0,0.342,0,0.461,0.034c0.121,0.034,0.191,0.31,0.191,0.31
		c0.221,0.273,0.221,0.273,0.221,0.273l0.035,0.34c0,0-0.121,0.072,0.152,0.072c0.275,0,0.07,0,0.275,0s-0.035-0.072,0.187,0
		c0.224,0.065,0.224,0.065,0.224,0.065s0.341,0.274,0.46,0.274s0.343-0.034,0.462,0c0.121,0.034,0.187,0.221,0.408,0.274
		c0.224,0.034,0.31,0,0.46,0.122c0.156,0.12,0.156,0.12,0.156,0.12l0.035,0.408l-0.121,0.22l-0.307,0.121l-0.035,0.378l-0.156,0.374
		v0.187c0,0,0.191,0.156-0.149,0.19c-0.345,0.034-0.345,0.034-0.345,0.034l-0.154,0.153c0,0,0,0.037-0.067,0.156
		c-0.067,0.117-0.153,0.307-0.153,0.307l0.036,0.342v0.221l-0.121,0.187c0,0-0.104,0.054,0.188,0.24
		c0.306,0.187,0.546,0.187,0.617,0.308c0.065,0.119,0.255,0.219,0.255,0.219l-0.415-0.092l-0.256-0.084l-0.428-0.117l-0.82-0.428
		c0,0-1.229-1.011-1.607-1.83c0,0-0.322-0.477-0.868-0.683c0,0-1.351-1.231-1.472-1.539l-0.049-0.204v-0.103l-0.052-0.054v-0.116
		l-0.035-0.086l0.021-0.374l0.015-0.259l0.019-0.134l-0.019-0.106c0,0-0.067-0.065-0.067-0.086c0-0.015-0.052-0.171-0.052-0.171
		l-0.015-0.049l0.204-0.172l-0.052-0.154l0.035-0.086l0.121-0.084c0,0,0.067-0.104,0.067-0.119c0-0.035-0.121-0.121-0.121-0.121
		l-0.053,0.019l-0.052,0.153h-0.069c0,0-0.07-0.036-0.07-0.049c0-0.02-0.065-0.086-0.065-0.086l-0.086-0.035
		c0,0-0.068-0.019-0.085-0.05c-0.019-0.036-0.104-0.084-0.104-0.104c0-0.015-0.067-0.121-0.067-0.121L15.1,23.81
		c0,0-0.104-0.154-0.104-0.19c0-0.016-0.052-0.1-0.052-0.1s-0.121-0.136-0.121-0.156c0-0.015-0.05-0.134-0.05-0.134h-0.084
		l-0.186-0.069l-0.121-0.151l-0.137-0.153c0,0-0.067-0.123-0.067-0.152c0-0.035-0.052-0.071-0.052-0.071h-0.088H13.99l-0.121-0.101
		l-0.307-0.428l-0.053-0.191l-0.05-0.203l-0.036-0.342v-0.22l-0.134-1.589C13.339,19.574,13.799,15.646,16.995,12.879z"/>
	<path fill="#FFFFFF" fill-opacity="0.8" d="M29.059,11.546l0.341,0.275l0.172,0.084l0.118,0.136l0.019,0.137
		c0,0,0.035,0.137,0.02,0.169c-0.02,0.033-0.038,0.221-0.038,0.221s0.156,0.275,0.156,0.311c0,0.033,0.016,0.187-0.02,0.222
		c-0.034,0.017-0.221,0.135-0.24,0.084c-0.015-0.05-0.133-0.169-0.167-0.169c-0.038-0.02-0.138-0.121-0.138-0.121l0.274-0.036
		l-0.036-0.171c0,0-0.188-0.067-0.238-0.067c-0.05-0.017-0.24-0.121-0.24-0.121l-0.206-0.05c0,0-0.339-0.084-0.371-0.104
		c-0.037-0.015-0.17-0.066-0.17-0.066h-0.292c0,0-0.139,0.066-0.17,0.101c-0.019,0.036-0.19,0.223-0.19,0.223
		s-0.016,0.22-0.016,0.255c0,0.036-0.051,0.121-0.051,0.22c0,0.104-0.021,0.24-0.021,0.276c0,0.035,0,0.085,0,0.085l-0.034,0.153
		l-0.116,0.068l-0.156,0.121c0,0-0.136,0.101-0.136,0.137c0,0.035,0,0.169,0.052,0.273c0.048,0.103,0.036,0.205,0.101,0.255
		c0.069,0.053,0.104,0.121,0.155,0.139c0.051,0.015,0.015,0.033,0.101,0.033c0.07,0,0.14,0.018,0.172-0.016
		c0.036-0.015,0.122-0.015,0.156-0.07c0.034-0.051-0.036-0.015,0.034-0.051c0.064-0.015,0.064-0.066,0.12-0.015
		c0.066,0.051,0.12,0.121,0.138,0.152c0.015,0.035,0.066,0.121,0.12,0.17c0.066,0.035,0.122,0.17,0.122,0.17l0.101,0.103
		c0,0,0.018,0.017,0.086,0.017s0.172-0.017,0.172-0.017l0.034-0.067c0,0,0.064,0.017,0.084-0.016
		c0.019-0.036,0.019-0.086,0.019-0.086s-0.038-0.103-0.066-0.136c-0.02-0.036-0.052-0.121-0.052-0.121l0.016-0.121l0.068-0.069
		l0.02-0.086v-0.097l-0.078-0.035l-0.12-0.068c0,0-0.065,0.016-0.065-0.071c-0.019-0.068-0.019-0.068-0.019-0.068l-0.153-0.033
		l-0.104-0.052l0.12-0.086c0.068-0.117,0.084-0.152,0.084-0.188c0-0.035-0.016-0.134-0.016-0.134s-0.068-0.02-0.068-0.106
		c-0.016-0.083-0.016-0.134-0.016-0.134l0.016-0.067c0,0,0.02-0.052,0.068-0.052c0.036,0,0.104,0.052,0.136,0.052
		c0.036,0,0.104,0.016,0.104,0.016s0.034,0.016,0.034,0.07c0,0.033-0.019,0.117-0.019,0.117l0.068-0.102v0.122l-0.017,0.136v0.137
		l0.068,0.135l0.066,0.105c0,0,0.086,0.083,0.122,0.121c0.034,0.013,0.118,0.082,0.118,0.082l0.104,0.05l0.068,0.016l0.066-0.066
		c0,0,0.12,0.016,0.12-0.018c0.02-0.035,0.02-0.035,0.02-0.035s0.135-0.016,0.172-0.016c0.032,0,0.103,0,0.103,0
		s0.05,0.102,0.016,0.102c-0.035,0-0.05,0.035-0.134,0.07c-0.088,0.016-0.122,0-0.138,0.035c-0.015,0.035-0.068,0.122-0.068,0.122
		l0.064,0.013h0.05l0.069,0.07c0,0,0.019,0.016,0,0.066c-0.02,0.051,0.066,0.035-0.02,0.051c-0.103,0.018-0.15-0.016-0.15-0.016
		s-0.02-0.085-0.07-0.05c-0.035,0.035-0.05,0.121-0.05,0.121v0.117l0.068,0.169c0,0,0.034,0.036,0,0.053
		c-0.034,0.015-0.152,0.152-0.152,0.152s-0.02,0.051-0.072,0.051c-0.031,0-0.084,0-0.168,0.02c-0.068,0.015-0.068,0.015-0.138,0.034
		c-0.066,0.016-0.122,0.033-0.221,0.051c-0.102,0.016-0.29,0.016-0.356,0.016c-0.071,0-0.086,0-0.12-0.016
		c-0.038-0.018-0.021,0-0.072-0.07c-0.048-0.067-0.102-0.121-0.102-0.17c0-0.035,0-0.051-0.019-0.121
		c-0.018-0.066-0.018-0.117-0.067-0.117c-0.068,0-0.068,0-0.068,0s-0.138,0.101-0.12,0.136c0.019,0.036-0.018,0,0.103,0.084
		c0.12,0.087,0.153,0.205,0.153,0.205l-0.018,0.117l-0.22,0.121l-0.156,0.052l-0.013,0.103c0,0,0,0.036-0.034,0.084
		c-0.037,0.049-0.122,0.121-0.122,0.121s-0.069,0.018-0.084,0.069c-0.016,0.035-0.069,0.169-0.069,0.169s-0.064-0.016-0.137,0.036
		c-0.065,0.05,0.019,0.05-0.134,0.121c-0.154,0.066-0.154,0.066-0.154,0.066l-0.172-0.015l-0.104,0.033c0,0-0.136,0.016-0.152,0.051
		c-0.02,0.035-0.088,0.134-0.088,0.134s-0.032,0.071,0,0.071c0.036,0.016,0.088,0,0.172,0.016c0.068,0.019,0.084,0.019,0.137,0.05
		c0.052,0.019,0.104,0.07,0.104,0.07l0.187,0.17l0.104,0.222l-0.019,0.17l-0.204,0.07c0,0-0.12,0-0.172,0c-0.034,0-0.019,0-0.221,0
		c-0.204,0-0.24,0-0.274,0c-0.035,0-0.172-0.019-0.172-0.019l-0.122,0.019l-0.084,0.069l-0.048,0.017c0,0,0.068,0.152,0.068,0.205
		c0,0.05,0,0.117,0,0.117l-0.021,0.104l-0.048,0.121l-0.07,0.117l0.019,0.07c0,0-0.019,0.052,0.02,0.052
		c0.034,0,0.134-0.017,0.134,0.019c0,0.033-0.084,0.169-0.084,0.169l0.171,0.033c0,0-0.019-0.016,0.084,0.018
		c0.104,0.016,0.172,0.051,0.172,0.051l0.12,0.084l0.036,0.069l0.036-0.069c0,0,0.188-0.016,0.22-0.035
		c0.036-0.017,0.122-0.017,0.122-0.017h0.152c0,0,0.034,0.017,0.068-0.019c0.016-0.031,0.016-0.031,0.016-0.031
		s0.172-0.071,0.206-0.103c0.034-0.016,0.049-0.121,0.049-0.121s0.054-0.033,0.054-0.067c0-0.035-0.034-0.121-0.034-0.121v-0.067
		l0.048-0.066c0,0,0.017-0.02,0.07-0.07c0.05-0.051,0.05-0.051,0.05-0.051s-0.021-0.016,0.05-0.051
		c0.068-0.019,0.122-0.07,0.154-0.07s-0.036,0.035,0.032,0s0.088-0.066,0.088-0.121c0-0.033,0.015-0.223,0.015-0.223l0.069-0.101
		l0.171,0.016l0.088,0.018c0,0,0.102,0.015,0.118-0.018c0.02-0.036,0.068-0.066,0.068-0.066l0.138-0.07c0,0-0.019-0.017,0.048-0.017
		c0.07,0,0.174,0,0.225,0c0.032,0,0.116,0,0.116,0s0.073,0.034,0.107,0.067c0.015,0.035,0.064,0.121,0.064,0.121l0.054,0.07h0.051
		c0.067,0.051,0.102,0.086,0.22,0.118c0.122,0.035,0.206,0.07,0.206,0.07s0.034,0.07,0.066,0.101c0.036,0.035,0.066,0.07,0.12,0.105
		c0.036,0.016,0.068,0.051,0.084,0.085c0.02,0.035,0.07,0.101,0.07,0.101l0.067,0.069l0.034-0.069v-0.119l-0.016-0.066
		c0,0-0.068-0.051,0.016-0.051c0.068,0,0.122,0,0.122,0l-0.069-0.103l-0.085-0.035l-0.12-0.086l-0.052-0.051l-0.048-0.015
		l-0.054-0.035l-0.066-0.051c0,0-0.12-0.019-0.12-0.07c-0.018-0.033-0.018-0.033-0.018-0.033l-0.12-0.016
		c0,0-0.118-0.07-0.118-0.101c0-0.035-0.019-0.139-0.019-0.139l-0.102-0.015c0,0,0.016-0.071,0.016-0.121
		c0-0.035,0.036-0.086,0.036-0.086l0.22-0.016l0.051,0.121l0.086,0.051l0.12,0.051l0.05,0.069l0.054,0.052
		c0,0,0.015,0.015,0.084,0.035c0.068,0.015,0.12,0.033,0.12,0.033s0.068,0.07,0.12,0.07c0.049,0.016,0.068,0.035,0.122,0.05
		c-0.035,0.03-0.035,0.03-0.035,0.03s0.018,0.035,0.069,0.07c0.049,0.034,0.099,0.101,0.099,0.137c0,0.035,0.036,0.152,0.072,0.169
		c0.035,0.016,0.048,0.016,0.12,0.086c0.067,0.066,0.067,0.135,0.116,0.17c0.073,0.015,0.122,0,0.122,0.066
		c0.02,0.07,0.02,0.121,0.02,0.121s0.052,0.018,0.088,0.018c0.03,0,0.099-0.069,0.099-0.069s0.069-0.101,0.016-0.121
		c-0.03-0.015-0.114-0.015-0.114-0.05s0-0.221,0-0.221l0.048-0.12l0.066-0.102l0.104,0.032l0.102-0.067l0.106,0.121l-0.036,0.136
		c0,0,0.018,0.086,0.066,0.152c0.034,0.069,0.122,0.155,0.122,0.155l0.168,0.154l0.24,0.066l0.052-0.016l0.356-0.07
		c0,0,0.054,0,0.088,0s0.204,0.291,0.204,0.291s0,0.121,0,0.188c0,0.071,0,0.24,0,0.24s-0.12,0.121-0.172,0.121
		c-0.048,0-0.188,0.067-0.188,0.067l-0.288,0.069l-0.188-0.015l-0.341-0.02c0,0-0.343-0.015-0.378-0.015c-0.034,0-0.154,0-0.19,0
		c-0.032,0-0.084,0.035-0.118,0.134c-0.034,0.102-0.103,0.137-0.103,0.137s0,0.051-0.067,0.051c-0.07,0-0.07,0.019-0.12-0.016
		c-0.051-0.035-0.291-0.085-0.291-0.085l-0.22-0.155l-0.122-0.102l-0.122-0.016h-0.341l-0.224-0.018l0.038-0.356l0.035,0.101
		l-0.069-0.238l-0.103-0.071l-0.24-0.05l-0.152,0.016l-0.204,0.051l-0.204,0.07l-0.122,0.035l-0.584,0.101l-0.203,0.086
		c0,0-0.086,0.05-0.12,0.07c-0.035,0.016-0.168,0.016-0.168,0.016s-0.107-0.016-0.156-0.036c-0.05-0.015-0.172-0.015-0.222-0.015
		s-0.154-0.016-0.19,0c-0.032,0.015-0.064,0.015-0.1,0.071c-0.038,0.05-0.156,0.187-0.156,0.187s-0.068,0.071-0.103,0.102
		c-0.016,0.035-0.102,0.138-0.102,0.138l-0.139,0.223l-0.086,0.101l0.021,0.121v0.086c0,0-0.049,0.051-0.087,0.068
		c-0.034,0.016-0.104,0.051-0.104,0.051s-0.05,0.016-0.101,0.067c-0.05,0.031-0.05,0.048-0.084,0.082
		c-0.036,0.036-0.154,0.121-0.154,0.121s-0.067,0.051-0.118,0.103c-0.036,0.052-0.107,0.119-0.122,0.153
		c-0.021,0.035-0.069,0.07-0.106,0.085c-0.03,0.018-0.101,0.155-0.117,0.19c-0.019,0.033-0.121,0.188-0.121,0.188l-0.069,0.291
		l-0.017,0.134c0,0,0.017,0.051,0.052,0.086c0.034,0.035,0.067,0.171,0.067,0.171v0.119c0,0-0.035,0.104-0.052,0.137
		c-0.016,0.035,0.019,0.206,0.019,0.206v0.101c0,0,0,0.036-0.05,0.086c-0.053,0.049-0.068,0.121-0.068,0.121l0.068,0.154l0.05,0.102
		v0.07l0.067,0.117c0,0,0.035,0.037,0.068,0.07c0.035,0.016,0.051,0.016,0.121,0.069c0.065,0.032,0.065,0.032,0.065,0.032
		s0.106,0.121,0.106,0.17c0,0.035,0.066,0.105,0.066,0.105l0.12,0.121c0,0,0.019,0.067,0.088,0.119
		c0.066,0.053,0.133,0.084,0.168,0.12c0.036,0.019,0.137,0.104,0.221,0.123c0.07,0.016,0.106,0.036,0.14,0.036
		c0.032,0-0.054-0.106,0.187,0.015s0.393,0.171,0.393,0.171l0.172,0.069c0,0,0.276,0.015,0.307-0.019C26.955,24,27.005,24,27.043,24
		c0.034,0,0.12,0,0.187,0c0.069,0,0.31-0.035,0.31-0.035l0.272-0.103c0,0,0.086-0.05,0.12-0.069
		c0.036-0.015,0.135-0.083,0.172-0.102c0.036-0.019,0.203-0.019,0.203-0.019s0-0.05,0.071,0c0.064,0.053,0.064,0.071,0.084,0.106
		c0.017,0.034,0.017,0.12,0.064,0.12C28.58,23.914,28.7,23.95,28.7,23.95s0.171-0.02,0.219,0c0.054,0.015,0.172,0.015,0.172,0.015
		l0.054,0.068l0.015,0.153v0.138c0,0-0.015,0.05,0,0.102c0.02,0.048,0.072,0.136,0.072,0.136s-0.072,0.104-0.106,0.119
		c-0.034,0.018-0.122,0.123-0.122,0.123l0.24,0.221l0.136,0.134l0.104,0.122c0,0,0.016,0.05,0.016,0.086s-0.016,0.12,0,0.17
		c0.019,0.034,0.019,0.172,0.019,0.172s0.02,0.103,0.02,0.137s-0.038,0.202-0.038,0.202l-0.016,0.122l-0.068,0.203l-0.084,0.102
		l-0.122,0.122l-0.086,0.138l-0.016,0.187l-0.07,0.122c0,0,0.02,0.104,0.02,0.152c0,0.05,0.103,0.236,0.103,0.236l-0.017,0.156
		c0,0-0.071,0.222-0.071,0.271c0,0.053-0.047,0.121-0.047,0.172c0,0.035-0.021,0.189-0.021,0.189l0.021,0.188l0.066,0.19
		l-0.066,0.172c0,0-0.037,0.138-0.037,0.222c0,0.066,0.122,0.15,0.155,0.15c0.032,0,0.188-0.016,0.257-0.067
		c0.065-0.034,0.236-0.083,0.271-0.103c0.036-0.018,0.069,0.02,0.174-0.064c0.102-0.073,0.256-0.193,0.256-0.193
		s0.12-0.084,0.171-0.116c0.036-0.036,0.204-0.225,0.204-0.225s0.12-0.118,0.204-0.172c0.086-0.05,0-0.015,0.086-0.065
		c0.086-0.049,0.358-0.277,0.358-0.277l0.272-0.271c0,0,0.24-0.305,0.276-0.357c0.036-0.055,0.256-0.344,0.29-0.363
		c0.034-0.017,0.342-0.221,0.408-0.272c0.07-0.048,0.156-0.411,0.19-0.46c0.034-0.035,0.222-0.461,0.222-0.461l0.171-0.496
		l0.29-0.736l0.286-0.512c0,0,0.122-0.22,0.172-0.289c0.034-0.069,0.309-0.597,0.309-0.597l0.103-0.448l0.037-0.375h-0.174
		l-0.187,0.17l-0.174-0.051l-0.17,0.02l0.19-0.24l-0.051-0.188l-0.155-0.119l-0.205-0.308v-0.309l-0.222-0.357l-0.134-0.564
		c0,0-0.257-0.274-0.221-0.341c0.016-0.07,0.084-0.275,0.084-0.275l0.137,0.07c0,0,0.104,0.274,0.153,0.291
		c0.053,0.016,0.122,0.152,0.137,0.188c0.018,0.036,0.032,0.157,0.065,0.189c0.019,0.033,0.137,0.256,0.137,0.256
		s0.086,0.22,0.104,0.271c0.019,0.035,0.103,0.172,0.122,0.273c0.017,0.104,0.064,0.428,0.064,0.46c0,0.033,0.088,0.393,0.088,0.393
		s0.12-0.033,0.137-0.066c0.016-0.033,0.016-0.051,0.052-0.086c0.016-0.035,0.222-0.189,0.222-0.189l0.085-0.273
		c0,0,0.05-0.121,0.065-0.171c0.019-0.05,0.122-0.24,0.122-0.272c0-0.035-0.018-0.169,0-0.224c0.019-0.033,0.068-0.238,0.068-0.273
		s0.016-0.169,0.016-0.169l-0.016-0.307l0.134-0.17l0.072-0.189C34.662,19.594,34.164,14.229,29.059,11.546z"/>
</g>
</svg>
