<?xml version="1.0" encoding="utf-8"?>
<!-- Generator: Adobe Illustrator 16.0.0, SVG Export Plug-In . SVG Version: 6.00 Build 0)  -->
<!DOCTYPE svg PUBLIC "-//W3C//DTD SVG 1.1//EN" "http://www.w3.org/Graphics/SVG/1.1/DTD/svg11.dtd">
<svg version="1.1" id="图层_1" xmlns="http://www.w3.org/2000/svg" xmlns:xlink="http://www.w3.org/1999/xlink" x="0px" y="0px"
	 width="48px" height="48px" viewBox="0 0 48 48" enable-background="new 0 0 48 48" xml:space="preserve">
<rect x="7.143" y="2" opacity="0.2" enable-background="new    " width="33.714" height="44"/>
<rect x="7.143" y="2" opacity="0.08" enable-background="new    " width="35.714" height="46"/>
<rect x="8.143" y="3" opacity="0.1" enable-background="new    " width="33.714" height="44"/>
<rect x="8.143" y="3" fill="#E65100" width="31.714" height="42"/>
<g>
	
		<linearGradient id="SVGID_1_" gradientUnits="userSpaceOnUse" x1="107.2002" y1="869.3008" x2="107.2002" y2="828.3008" gradientTransform="matrix(1 0 0 1 -83.2002 -824.8008)">
		<stop  offset="0" style="stop-color:#EE6F0B"/>
		<stop  offset="1" style="stop-color:#FFB74D"/>
	</linearGradient>
	<rect x="8.641" y="3.5" fill="url(#SVGID_1_)" width="30.718" height="41"/>
	<g opacity="0.8">
		<rect x="12.64" y="19.282" fill="#FFFFFF" width="3.28" height="16.437"/>
		<rect x="18.106" y="27.483" fill="#FFFFFF" width="3.28" height="8.216"/>
		<rect x="23.557" y="30.83" fill="#FFFFFF" width="3.278" height="4.923"/>
		<g>
			<path fill="#FFFFFF" d="M28.015,16.38l0.037,6.542l6.543-0.035c0.019,3.622-2.907,6.559-6.526,6.576
				c-3.625,0.021-6.562-2.903-6.58-6.523C21.473,19.334,24.396,16.396,28.015,16.38z"/>
			<path fill="#FFFFFF" d="M28.783,15.625c3.622-0.016,6.562,2.906,6.577,6.528l-6.54,0.036L28.783,15.625z"/>
		</g>
	</g>
	<g>
		<rect x="8.633" y="3.5" opacity="0.8" fill="#FFFFFF" enable-background="new    " width="30.734" height="7.858"/>
		<g enable-background="new    ">
			<path fill="#E64A19" d="M16.979,4.251c0.964,0,1.7,0.162,2.216,0.482c0.516,0.321,0.771,0.847,0.771,1.577
				c0,0.737-0.259,1.268-0.782,1.595c-0.521,0.327-1.266,0.491-2.231,0.491h-0.457v2.048h-1.449V4.41
				c0.315-0.059,0.648-0.1,1.003-0.123C16.403,4.263,16.713,4.251,16.979,4.251z M17.073,5.427c-0.104,0-0.208,0.002-0.31,0.009
				c-0.104,0.005-0.192,0.011-0.267,0.018v1.767h0.457c0.502,0,0.881-0.064,1.135-0.195c0.253-0.129,0.382-0.371,0.382-0.725
				c0-0.171-0.032-0.311-0.1-0.423c-0.063-0.112-0.157-0.203-0.277-0.27c-0.12-0.068-0.27-0.115-0.443-0.142
				C17.477,5.44,17.284,5.427,17.073,5.427z"/>
			<path fill="#E64A19" d="M27.177,7.38c0,0.524-0.083,0.986-0.246,1.384c-0.165,0.398-0.39,0.731-0.675,0.999
				c-0.286,0.267-0.625,0.47-1.02,0.603c-0.393,0.139-0.817,0.206-1.269,0.206c-0.44,0-0.856-0.066-1.246-0.206
				c-0.393-0.133-0.731-0.336-1.025-0.603c-0.291-0.267-0.521-0.601-0.686-0.999c-0.169-0.397-0.254-0.859-0.254-1.384
				s0.088-0.985,0.262-1.383c0.174-0.397,0.408-0.731,0.702-1.003c0.296-0.271,0.635-0.474,1.024-0.609
				c0.388-0.136,0.793-0.204,1.223-0.204c0.438,0,0.854,0.068,1.244,0.204c0.393,0.135,0.731,0.338,1.025,0.609
				c0.29,0.272,0.521,0.606,0.688,1.003C27.091,6.395,27.177,6.855,27.177,7.38z M22.257,7.38c0,0.3,0.037,0.572,0.115,0.813
				c0.077,0.243,0.189,0.45,0.336,0.624c0.145,0.175,0.323,0.308,0.534,0.402c0.211,0.096,0.453,0.144,0.726,0.144
				c0.268,0,0.508-0.048,0.721-0.144c0.214-0.094,0.393-0.227,0.539-0.402c0.145-0.173,0.257-0.38,0.334-0.624
				c0.077-0.24,0.117-0.512,0.117-0.813s-0.04-0.573-0.117-0.817s-0.189-0.454-0.334-0.627c-0.146-0.173-0.325-0.308-0.539-0.403
				c-0.213-0.093-0.453-0.142-0.721-0.142c-0.272,0-0.515,0.049-0.726,0.147c-0.211,0.097-0.39,0.232-0.534,0.406
				c-0.146,0.175-0.259,0.383-0.336,0.627C22.294,6.816,22.257,7.086,22.257,7.38z"/>
			<path fill="#E64A19" d="M32.953,4.322v1.176h-1.946v4.947h-1.449V5.498h-1.946V4.322H32.953z"/>
		</g>
	</g>
</g>
</svg>
