<?xml version="1.0" encoding="utf-8"?>
<!-- Generator: Adobe Illustrator 16.0.0, SVG Export Plug-In . SVG Version: 6.00 Build 0)  -->
<!DOCTYPE svg PUBLIC "-//W3C//DTD SVG 1.1//EN" "http://www.w3.org/Graphics/SVG/1.1/DTD/svg11.dtd">
<svg version="1.1" id="图层_1" xmlns="http://www.w3.org/2000/svg" xmlns:xlink="http://www.w3.org/1999/xlink" x="0px" y="0px"
	 width="48px" height="48px" viewBox="0 0 48 48" enable-background="new 0 0 48 48" xml:space="preserve">
<polygon opacity="0.06" enable-background="new    " points="7.181,48 7.181,2 42.818,2 42.818,35.003 29.82,48 "/>
<polygon opacity="0.1" enable-background="new    " points="8.181,47 8.181,3 41.818,3 41.818,34.589 29.407,47 "/>
<polygon opacity="0.2" enable-background="new    " points="7.181,46 7.181,2 40.818,2 40.818,33.589 28.408,46 "/>
<polygon fill="#1B5E20" points="8.143,45 8.143,3 39.857,3 39.857,33.174 28.004,45 "/>
<g>
	<g>
		<g>
			<g>
				
					<linearGradient id="SVGID_1_" gradientUnits="userSpaceOnUse" x1="109.2012" y1="-570.3003" x2="109.2012" y2="-555.3008" gradientTransform="matrix(1 0 0 -1 -83.2002 -534.8008)">
					<stop  offset="0" style="stop-color:#388E3C"/>
					<stop  offset="0.0757" style="stop-color:#43953E"/>
					<stop  offset="0.3246" style="stop-color:#62A943"/>
					<stop  offset="0.5665" style="stop-color:#79B747"/>
					<stop  offset="0.796" style="stop-color:#86C049"/>
					<stop  offset="1" style="stop-color:#8BC34A"/>
				</linearGradient>
				<polygon fill="url(#SVGID_1_)" points="20.381,35.5 20.381,20.5 31.619,20.5 31.619,31.281 27.4,35.5 				"/>
			</g>
			<polygon fill="#1B5E20" fill-opacity="0.39" points="31.619,31.281 31.619,31.1 27.169,31.1 27.169,35.5 27.4,35.5 			"/>
			<path fill="#FFFFFF" fill-opacity="0.3922" d="M27.395,31.281l4.226,0.006L27.4,35.5L27.395,31.281z"/>
		</g>
		<path opacity="0.8" fill="#FFFFFF" enable-background="new    " d="M26.278,23.813V23.8h-0.556v0.013h-3.585V30.8h7.725v-6.987
			H26.278z M22.693,25.887h1.725v1.117h-1.725V25.887z M22.693,27.56h1.725v1.115h-1.725V27.56z M24.992,27.56h4.314v1.115h-4.314
			V27.56z M24.992,27.004v-1.117h4.314v1.117H24.992z M29.307,24.374v0.959h-4.314v-0.959H29.307z M24.418,24.374v0.959h-1.725
			v-0.959H24.418z M22.693,29.236h1.725v1.003h-1.725V29.236z M24.992,30.239v-1.003h4.314v1.003H24.992z"/>
	</g>
	<g>
		<rect x="20.378" y="20.5" opacity="0.8" fill="#FFFFFF" enable-background="new    " width="11.245" height="2.875"/>
		<g enable-background="new    ">
			<path fill="#388E3C" d="M24.503,23.042c-0.066-0.125-0.139-0.251-0.218-0.379c-0.079-0.128-0.17-0.236-0.272-0.325
				c-0.032,0.034-0.072,0.08-0.121,0.139c-0.049,0.06-0.098,0.123-0.146,0.189c-0.048,0.067-0.094,0.136-0.137,0.208
				s-0.074,0.128-0.095,0.168h-0.605c0.099-0.175,0.216-0.355,0.352-0.542c0.135-0.186,0.286-0.384,0.452-0.593l-0.77-1.105h0.644
				l0.449,0.649l0.459-0.649h0.605l-0.765,1.082c0.201,0.239,0.366,0.458,0.496,0.657c0.13,0.199,0.231,0.367,0.308,0.502H24.503z"
				/>
			<path fill="#388E3C" d="M27.02,22.608v0.433h-1.574v-2.241h0.53v1.808H27.02z"/>
			<path fill="#388E3C" d="M28.061,22.657c0.076,0,0.137-0.006,0.186-0.018c0.049-0.012,0.088-0.028,0.117-0.049
				c0.031-0.021,0.051-0.044,0.063-0.073c0.012-0.028,0.018-0.059,0.018-0.094c0-0.073-0.037-0.134-0.109-0.183
				s-0.197-0.101-0.375-0.157c-0.076-0.026-0.154-0.056-0.23-0.089c-0.078-0.033-0.146-0.076-0.209-0.126
				c-0.061-0.051-0.111-0.112-0.148-0.185c-0.039-0.072-0.059-0.16-0.059-0.263c0-0.104,0.02-0.197,0.061-0.28
				s0.1-0.154,0.174-0.212c0.076-0.058,0.166-0.103,0.273-0.134c0.105-0.031,0.227-0.047,0.359-0.047
				c0.16,0,0.297,0.016,0.412,0.049c0.115,0.032,0.211,0.068,0.287,0.106l-0.154,0.398c-0.066-0.033-0.139-0.061-0.219-0.086
				c-0.082-0.025-0.178-0.037-0.291-0.037c-0.127,0-0.219,0.017-0.275,0.05c-0.055,0.033-0.082,0.084-0.082,0.153
				c0,0.041,0.01,0.076,0.029,0.104c0.021,0.028,0.051,0.053,0.088,0.076c0.037,0.022,0.08,0.043,0.129,0.061
				c0.049,0.019,0.104,0.038,0.162,0.057c0.123,0.043,0.229,0.086,0.32,0.128c0.09,0.042,0.166,0.091,0.227,0.147
				c0.059,0.056,0.104,0.122,0.133,0.197c0.029,0.076,0.045,0.167,0.045,0.275c0,0.209-0.076,0.371-0.23,0.486
				c-0.154,0.116-0.389,0.173-0.699,0.173c-0.104,0-0.197-0.006-0.281-0.018s-0.158-0.026-0.223-0.043
				c-0.066-0.017-0.121-0.036-0.168-0.055c-0.047-0.019-0.086-0.038-0.117-0.055l0.15-0.401c0.07,0.037,0.156,0.069,0.26,0.099
				C27.785,22.642,27.912,22.657,28.061,22.657z"/>
		</g>
	</g>
</g>
<g>
	<g>
		<g>
			<g>
				
					<linearGradient id="SVGID_2_" gradientUnits="userSpaceOnUse" x1="107.1982" y1="-579.3003" x2="107.1982" y2="-538.3008" gradientTransform="matrix(1 0 0 -1 -83.2002 -534.8008)">
					<stop  offset="0" style="stop-color:#388E3C"/>
					<stop  offset="0.0757" style="stop-color:#43953E"/>
					<stop  offset="0.3246" style="stop-color:#62A943"/>
					<stop  offset="0.5665" style="stop-color:#79B747"/>
					<stop  offset="0.796" style="stop-color:#86C049"/>
					<stop  offset="1" style="stop-color:#8BC34A"/>
				</linearGradient>
				<polygon fill="url(#SVGID_2_)" points="8.639,44.5 8.639,3.5 39.356,3.5 39.356,32.969 27.825,44.5 				"/>
			</g>
			<polygon fill="#1B5E20" fill-opacity="0.39" points="39.356,32.969 39.356,32.473 27.192,32.473 27.192,44.5 27.825,44.5 			"/>
			<path fill="#FFFFFF" fill-opacity="0.3922" d="M27.81,32.969l11.55,0.016L27.825,44.5L27.81,32.969z"/>
		</g>
		<path opacity="0.8" fill="#FFFFFF" enable-background="new    " d="M24.759,12.554V12.52h-1.52v0.035h-9.798v19.098h21.113V12.554
			H24.759z M14.96,18.224h4.715v3.054H14.96V18.224z M14.96,22.796h4.715v3.047H14.96V22.796z M21.243,22.796h11.793v3.047H21.243
			V22.796z M21.243,21.277v-3.054h11.793v3.054H21.243z M33.036,14.088v2.623H21.243v-2.623H33.036z M19.675,14.088v2.623H14.96
			v-2.623H19.675z M14.96,27.379h4.715v2.742H14.96V27.379z M21.243,30.121v-2.742h11.793v2.742H21.243z"/>
	</g>
	<g>
		<rect x="8.633" y="3.5" opacity="0.8" fill="#FFFFFF" enable-background="new    " width="30.734" height="7.858"/>
		<g enable-background="new    ">
			<path fill="#388E3C" d="M19.906,10.447c-0.182-0.342-0.381-0.686-0.596-1.037c-0.216-0.35-0.464-0.645-0.743-0.887
				c-0.087,0.092-0.197,0.219-0.33,0.38c-0.133,0.163-0.267,0.335-0.4,0.516c-0.132,0.183-0.257,0.371-0.373,0.567
				s-0.202,0.35-0.259,0.46H15.55c0.271-0.478,0.591-0.972,0.961-1.481c0.368-0.508,0.78-1.049,1.234-1.622l-2.104-3.021h1.76
				l1.228,1.773l1.256-1.773h1.655l-2.092,2.956c0.549,0.653,1,1.252,1.354,1.795c0.355,0.545,0.633,1.002,0.841,1.374H19.906z"/>
			<path fill="#388E3C" d="M26.784,9.263v1.184h-4.303V4.322h1.449v4.941H26.784z"/>
			<path fill="#388E3C" d="M29.63,9.395c0.208,0,0.374-0.016,0.507-0.048c0.134-0.034,0.24-0.078,0.32-0.134
				c0.086-0.056,0.14-0.121,0.171-0.199c0.032-0.076,0.049-0.162,0.049-0.256c0-0.2-0.102-0.367-0.3-0.499
				c-0.197-0.132-0.539-0.275-1.024-0.428c-0.208-0.071-0.422-0.152-0.63-0.243c-0.214-0.091-0.4-0.207-0.571-0.344
				c-0.166-0.139-0.305-0.307-0.406-0.504c-0.106-0.198-0.16-0.438-0.16-0.719c0-0.283,0.054-0.538,0.166-0.765
				c0.112-0.227,0.272-0.42,0.475-0.579c0.209-0.159,0.454-0.282,0.748-0.367c0.288-0.085,0.619-0.128,0.982-0.128
				c0.438,0,0.811,0.044,1.126,0.133c0.315,0.088,0.576,0.186,0.785,0.291l-0.422,1.088c-0.182-0.089-0.379-0.167-0.599-0.235
				c-0.224-0.068-0.485-0.102-0.795-0.102c-0.347,0-0.598,0.045-0.753,0.138c-0.149,0.09-0.224,0.23-0.224,0.419
				c0,0.112,0.026,0.207,0.08,0.283c0.059,0.076,0.139,0.146,0.24,0.208c0.101,0.061,0.219,0.117,0.352,0.167
				c0.134,0.051,0.283,0.103,0.443,0.155c0.336,0.119,0.625,0.235,0.876,0.35c0.245,0.115,0.453,0.248,0.619,0.401
				c0.16,0.154,0.282,0.334,0.362,0.54c0.08,0.207,0.123,0.456,0.123,0.751c0,0.571-0.208,1.015-0.63,1.33
				c-0.422,0.316-1.063,0.474-1.911,0.474c-0.283,0-0.539-0.017-0.769-0.049s-0.433-0.072-0.608-0.119
				c-0.182-0.047-0.331-0.098-0.459-0.151c-0.129-0.052-0.235-0.103-0.32-0.149l0.41-1.096c0.192,0.1,0.428,0.189,0.711,0.27
				C28.877,9.355,29.225,9.395,29.63,9.395z"/>
		</g>
	</g>
</g>
</svg>
