<?xml version="1.0" encoding="utf-8"?>
<!-- Generator: Adobe Illustrator 21.0.0, SVG Export Plug-In . SVG Version: 6.00 Build 0)  -->
<svg version="1.1" id="图层_1" xmlns="http://www.w3.org/2000/svg" xmlns:xlink="http://www.w3.org/1999/xlink" x="0px" y="0px"
	 viewBox="0 0 48 48" style="enable-background:new 0 0 48 48;" xml:space="preserve">
<style type="text/css">
	.st0{opacity:0.06;enable-background:new    ;}
	.st1{opacity:0.1;enable-background:new    ;}
	.st2{opacity:0.2;enable-background:new    ;}
	.st3{fill:#0D47A1;}
	.st4{fill:url(#SVGID_1_);}
	.st5{fill:#2196F3;fill-opacity:0.7;}
	.st6{opacity:0.39;fill:#FFFFFF;enable-background:new    ;}
	.st7{opacity:0.8;}
	.st8{opacity:0.8;fill:url(#SVGID_2_);enable-background:new    ;}
	.st9{opacity:0.8;fill:url(#SVGID_3_);enable-background:new    ;}
	.st10{opacity:0.8;fill:url(#SVGID_4_);enable-background:new    ;}
	.st11{fill:url(#SVGID_5_);}
	.st12{fill:url(#SVGID_6_);}
	.st13{fill:url(#SVGID_7_);}
	.st14{fill:url(#SVGID_8_);}
	.st15{opacity:0.8;fill:#FFFFFF;enable-background:new    ;}
	.st16{fill:#1976D2;}
</style>
<polygon class="st0" points="7.2,48 7.2,2 42.8,2 42.8,35 29.8,48 "/>
<polygon class="st1" points="8.2,47 8.2,3 41.8,3 41.8,34.6 29.4,47 "/>
<polygon class="st2" points="7.2,46 7.2,2 40.8,2 40.8,33.6 28.4,46 "/>
<polygon class="st3" points="8.1,45 8.1,3 39.9,3 39.9,33.2 28,45 "/>
<g>
	<g>
		<g>
			<g>
				
					<linearGradient id="SVGID_1_" gradientUnits="userSpaceOnUse" x1="24.05" y1="786.5" x2="24.05" y2="745.5" gradientTransform="matrix(1 0 0 1 0 -742)">
					<stop  offset="0" style="stop-color:#3F51B5"/>
					<stop  offset="1" style="stop-color:#64B5F6"/>
				</linearGradient>
				<polygon class="st4" points="8.7,44.5 8.7,3.5 39.4,3.5 39.4,33 27.8,44.5 				"/>
			</g>
			<polygon class="st5" points="39.4,33 39.4,32.5 27.2,32.5 27.2,44.5 27.8,44.5 			"/>
			<path class="st6" d="M27.8,33h11.6L27.8,44.5V33z"/>
		</g>
		<g class="st7">
			
				<linearGradient id="SVGID_2_" gradientUnits="userSpaceOnUse" x1="13.2" y1="759.55" x2="34.8" y2="759.55" gradientTransform="matrix(1 0 0 1 0 -742)">
				<stop  offset="0" style="stop-color:#F6F5F5"/>
				<stop  offset="0.341" style="stop-color:#F1F2F3"/>
				<stop  offset="0.6434" style="stop-color:#E7EAEB"/>
				<stop  offset="0.9302" style="stop-color:#D5DBDF"/>
				<stop  offset="1" style="stop-color:#CFD7DB"/>
			</linearGradient>
			<rect x="13.2" y="17" class="st8" width="21.6" height="1.1"/>
			
				<linearGradient id="SVGID_3_" gradientUnits="userSpaceOnUse" x1="13.2" y1="756.15" x2="34.8" y2="756.15" gradientTransform="matrix(1 0 0 1 0 -742)">
				<stop  offset="0" style="stop-color:#F6F5F5"/>
				<stop  offset="0.341" style="stop-color:#F1F2F3"/>
				<stop  offset="0.6434" style="stop-color:#E7EAEB"/>
				<stop  offset="0.9302" style="stop-color:#D5DBDF"/>
				<stop  offset="1" style="stop-color:#CFD7DB"/>
			</linearGradient>
			<rect x="13.2" y="13.6" class="st9" width="21.6" height="1.1"/>
			
				<linearGradient id="SVGID_4_" gradientUnits="userSpaceOnUse" x1="23.512" y1="767.75" x2="34.785" y2="767.75" gradientTransform="matrix(1 0 0 1 0 -742)">
				<stop  offset="0" style="stop-color:#F6F5F5"/>
				<stop  offset="0.341" style="stop-color:#F1F2F3"/>
				<stop  offset="0.6434" style="stop-color:#E7EAEB"/>
				<stop  offset="0.9302" style="stop-color:#D5DBDF"/>
				<stop  offset="1" style="stop-color:#CFD7DB"/>
			</linearGradient>
			<rect x="23.5" y="20.1" class="st10" width="11.3" height="11.3"/>
			<g class="st7">
				
					<linearGradient id="SVGID_5_" gradientUnits="userSpaceOnUse" x1="13.2" y1="762.85" x2="22.58" y2="762.85" gradientTransform="matrix(1 0 0 1 0 -742)">
					<stop  offset="0" style="stop-color:#F6F5F5"/>
					<stop  offset="0.341" style="stop-color:#F1F2F3"/>
					<stop  offset="0.6434" style="stop-color:#E7EAEB"/>
					<stop  offset="0.9302" style="stop-color:#D5DBDF"/>
					<stop  offset="1" style="stop-color:#CFD7DB"/>
				</linearGradient>
				<rect x="13.2" y="20.3" class="st11" width="9.4" height="1.1"/>
				
					<linearGradient id="SVGID_6_" gradientUnits="userSpaceOnUse" x1="13.2" y1="766.15" x2="22.58" y2="766.15" gradientTransform="matrix(1 0 0 1 0 -742)">
					<stop  offset="0" style="stop-color:#F6F5F5"/>
					<stop  offset="0.341" style="stop-color:#F1F2F3"/>
					<stop  offset="0.6434" style="stop-color:#E7EAEB"/>
					<stop  offset="0.9302" style="stop-color:#D5DBDF"/>
					<stop  offset="1" style="stop-color:#CFD7DB"/>
				</linearGradient>
				<rect x="13.2" y="23.6" class="st12" width="9.4" height="1.1"/>
				
					<linearGradient id="SVGID_7_" gradientUnits="userSpaceOnUse" x1="13.2" y1="769.55" x2="22.58" y2="769.55" gradientTransform="matrix(1 0 0 1 0 -742)">
					<stop  offset="0" style="stop-color:#F6F5F5"/>
					<stop  offset="0.341" style="stop-color:#F1F2F3"/>
					<stop  offset="0.6434" style="stop-color:#E7EAEB"/>
					<stop  offset="0.9302" style="stop-color:#D5DBDF"/>
					<stop  offset="1" style="stop-color:#CFD7DB"/>
				</linearGradient>
				<rect x="13.2" y="27" class="st13" width="9.4" height="1.1"/>
				
					<linearGradient id="SVGID_8_" gradientUnits="userSpaceOnUse" x1="13.2" y1="772.85" x2="22.58" y2="772.85" gradientTransform="matrix(1 0 0 1 0 -742)">
					<stop  offset="0" style="stop-color:#F6F5F5"/>
					<stop  offset="0.341" style="stop-color:#F1F2F3"/>
					<stop  offset="0.6434" style="stop-color:#E7EAEB"/>
					<stop  offset="0.9302" style="stop-color:#D5DBDF"/>
					<stop  offset="1" style="stop-color:#CFD7DB"/>
				</linearGradient>
				<rect x="13.2" y="30.3" class="st14" width="9.4" height="1.1"/>
			</g>
		</g>
	</g>
	<g>
		<rect x="8.6" y="3.5" class="st15" width="30.7" height="7.9"/>
		<g>
			<path class="st16" d="M20.3,7.4c0,0.5-0.1,1-0.3,1.4c-0.2,0.4-0.4,0.7-0.7,1c-0.3,0.3-0.7,0.5-1.2,0.6s-1,0.2-1.5,0.2
				c-0.3,0-0.6,0-0.9,0c-0.3,0-0.7-0.1-1-0.1v-6c0.3-0.1,0.7-0.1,1-0.1c0.4,0,0.7,0,0.9,0c0.6,0,1.1,0.1,1.5,0.2
				c0.5,0.1,0.8,0.3,1.2,0.6c0.3,0.3,0.6,0.6,0.7,1C20.2,6.4,20.3,6.9,20.3,7.4z M16.1,9.4c0.1,0,0.1,0,0.2,0s0.2,0,0.3,0
				c0.7,0,1.3-0.2,1.6-0.5c0.4-0.3,0.5-0.8,0.5-1.4S18.5,6.4,18.2,6c-0.3-0.3-0.9-0.5-1.6-0.5c-0.1,0-0.2,0-0.3,0
				c-0.1,0-0.2,0-0.3,0v3.9H16.1z"/>
			<path class="st16" d="M27.6,7.4c0,0.5-0.1,1-0.3,1.4c-0.2,0.4-0.4,0.7-0.7,1c-0.3,0.3-0.6,0.5-1,0.6s-0.8,0.2-1.3,0.2
				c-0.4,0-0.9-0.1-1.2-0.2c-0.4-0.1-0.7-0.3-1-0.6s-0.5-0.6-0.7-1s-0.3-0.9-0.3-1.4s0.1-1,0.3-1.4c0.2-0.4,0.4-0.7,0.7-1
				c0.3-0.3,0.6-0.5,1-0.6s0.8-0.2,1.2-0.2c0.4,0,0.9,0.1,1.2,0.2c0.4,0.1,0.7,0.3,1,0.6c0.3,0.3,0.5,0.6,0.7,1
				C27.5,6.4,27.6,6.9,27.6,7.4z M22.7,7.4c0,0.3,0,0.6,0.1,0.8s0.2,0.4,0.3,0.6c0.1,0.2,0.3,0.3,0.5,0.4c0.2,0.1,0.5,0.1,0.7,0.1
				c0.3,0,0.5-0.1,0.7-0.1c0.2-0.1,0.4-0.2,0.5-0.4s0.3-0.4,0.3-0.6c0.1-0.2,0.1-0.5,0.1-0.8s0-0.6-0.1-0.8
				c-0.1-0.2-0.2-0.5-0.3-0.6c-0.1-0.2-0.3-0.3-0.5-0.4s-0.5-0.1-0.7-0.1c-0.3,0-0.5,0.1-0.7,0.1c-0.2,0.1-0.4,0.2-0.5,0.4
				c-0.1,0.2-0.3,0.4-0.3,0.6C22.7,6.9,22.7,7.1,22.7,7.4z"/>
			<path class="st16" d="M31.8,10.6c-1,0-1.8-0.3-2.4-0.8c-0.5-0.6-0.8-1.3-0.8-2.4c0-0.5,0.1-1,0.3-1.4c0.2-0.4,0.4-0.7,0.7-1
				c0.3-0.3,0.6-0.5,1-0.6s0.8-0.2,1.3-0.2c0.3,0,0.5,0,0.7,0.1c0.2,0,0.4,0.1,0.6,0.1c0.2,0.1,0.3,0.1,0.4,0.2
				c0.1,0.1,0.2,0.1,0.2,0.1l-0.4,1.1c-0.2-0.1-0.4-0.2-0.7-0.3c-0.3-0.1-0.6-0.1-0.9-0.1c-0.2,0-0.4,0-0.7,0.1
				c-0.2,0.1-0.4,0.2-0.6,0.3c-0.2,0.2-0.3,0.4-0.4,0.6S30,6.9,30,7.3c0,0.3,0,0.5,0.1,0.8c0.1,0.2,0.2,0.5,0.3,0.6
				C30.6,9,30.8,9.1,31,9.2c0.2,0.1,0.5,0.2,0.9,0.2c0.2,0,0.4,0,0.6,0s0.3-0.1,0.4-0.1c0.1,0,0.2-0.1,0.3-0.1s0.2-0.1,0.3-0.1
				l0.4,1.1c-0.2,0.1-0.5,0.2-0.9,0.3C32.7,10.6,32.3,10.6,31.8,10.6z"/>
		</g>
	</g>
</g>
</svg>
