<?xml version="1.0" encoding="utf-8"?>
<!-- Generator: Adobe Illustrator 21.0.0, SVG Export Plug-In . SVG Version: 6.00 Build 0)  -->
<svg version="1.1" id="图层_1" xmlns="http://www.w3.org/2000/svg" xmlns:xlink="http://www.w3.org/1999/xlink" x="0px" y="0px"
	 viewBox="0 0 48 48" style="enable-background:new 0 0 48 48;" xml:space="preserve">
<style type="text/css">
	.st0{opacity:0.2;enable-background:new    ;}
	.st1{opacity:0.08;enable-background:new    ;}
	.st2{opacity:0.1;enable-background:new    ;}
	.st3{fill:#0D47A1;}
	.st4{fill:url(#SVGID_1_);}
	.st5{opacity:0.8;}
	.st6{opacity:0.8;fill:#FFFFFF;enable-background:new    ;}
	.st7{fill:#FFFFFF;}
	.st8{enable-background:new    ;}
	.st9{fill:#236FB7;}
</style>
<rect x="7.1" y="2" class="st0" width="33.7" height="44"/>
<rect x="7.1" y="2" class="st1" width="35.7" height="46"/>
<rect x="8.1" y="3" class="st2" width="33.7" height="44"/>
<rect x="8.1" y="3" class="st3" width="31.7" height="42"/>
<g>
	
		<linearGradient id="SVGID_1_" gradientUnits="userSpaceOnUse" x1="23.95" y1="745.5" x2="23.95" y2="786.5" gradientTransform="matrix(1 0 0 1 0 -742)">
		<stop  offset="0" style="stop-color:#64B5F6"/>
		<stop  offset="1" style="stop-color:#3F51B5"/>
	</linearGradient>
	<rect x="8.6" y="3.5" class="st4" width="30.7" height="41"/>
	<g class="st5">
		<rect x="12.6" y="19.7" class="st6" width="22.8" height="1.1"/>
		<rect x="12.6" y="16.2" class="st6" width="22.8" height="1.1"/>
		<rect x="23.5" y="23" class="st6" width="11.9" height="11.9"/>
		<g class="st5">
			<rect x="12.6" y="23.2" class="st7" width="9.9" height="1.1"/>
			<rect x="12.6" y="26.8" class="st7" width="9.9" height="1.1"/>
			<rect x="12.6" y="30.3" class="st7" width="9.9" height="1.1"/>
			<rect x="12.6" y="33.8" class="st7" width="9.9" height="1.1"/>
		</g>
	</g>
	<g>
		<rect x="8.6" y="3.5" class="st6" width="30.7" height="7.9"/>
		<g class="st8">
			<path class="st9" d="M18.8,5C18.9,5.2,19,5.5,19,5.8c0.1,0.3,0.2,0.6,0.3,0.9c0.1,0.3,0.2,0.6,0.3,1c0.1,0.3,0.2,0.6,0.3,0.9
				c0.1-0.3,0.2-0.6,0.3-1c0.1-0.4,0.2-0.7,0.2-1.1s0.1-0.8,0.2-1.1c0.1-0.4,0.1-0.7,0.2-1.1h1.5c-0.2,1-0.5,2.1-0.8,3.1
				c-0.3,1.1-0.6,2.1-0.9,3h-1.3c-0.2-0.6-0.4-1.2-0.6-1.8s-0.4-1.2-0.6-1.9c-0.2,0.6-0.4,1.2-0.6,1.9c-0.2,0.6-0.4,1.2-0.6,1.8
				h-1.3c-0.3-0.9-0.6-2-0.9-3c-0.3-1.1-0.5-2.1-0.8-3.1h1.6c0.1,0.3,0.1,0.7,0.2,1.1c0.1,0.4,0.2,0.8,0.2,1.1C16,7,16,7.3,16.1,7.7
				s0.2,0.7,0.3,1c0.1-0.3,0.2-0.6,0.3-0.9c0.1-0.3,0.2-0.6,0.3-1c0.1-0.3,0.2-0.6,0.3-0.9c0.1-0.3,0.2-0.6,0.2-0.8L18.8,5L18.8,5z"
				/>
			<path class="st9" d="M25.2,4.3c1,0,1.7,0.2,2.2,0.5s0.8,0.8,0.8,1.6c0,0.7-0.3,1.3-0.8,1.6s-1.3,0.5-2.2,0.5h-0.5v2.1h-1.5v-6
				c0.3-0.1,0.7-0.1,1-0.1C24.6,4.3,24.9,4.3,25.2,4.3z M25.3,5.5c-0.1,0-0.2,0-0.3,0c-0.1,0-0.2,0-0.3,0v1.8h0.5
				c0.5,0,0.9-0.1,1.1-0.2c0.3-0.1,0.4-0.4,0.4-0.7c0-0.2,0-0.3-0.1-0.4s-0.2-0.2-0.3-0.3c-0.1-0.1-0.3-0.1-0.4-0.1
				C25.7,5.5,25.5,5.5,25.3,5.5z"/>
			<path class="st9" d="M34.1,4.4v1.2h-1.9v4.9h-1.5v-5h-1.9V4.4H34.1z"/>
		</g>
	</g>
</g>
</svg>
