<?xml version="1.0" encoding="utf-8"?>
<!-- Generator: Adobe Illustrator 16.0.0, SVG Export Plug-In . SVG Version: 6.00 Build 0)  -->
<!DOCTYPE svg PUBLIC "-//W3C//DTD SVG 1.1//EN" "http://www.w3.org/Graphics/SVG/1.1/DTD/svg11.dtd">
<svg version="1.1" id="图层_1" xmlns="http://www.w3.org/2000/svg" xmlns:xlink="http://www.w3.org/1999/xlink" x="0px" y="0px"
	 width="48px" height="48px" viewBox="0 0 48 48" enable-background="new 0 0 48 48" xml:space="preserve">
<polygon opacity="0.06" enable-background="new    " points="7.181,48 7.181,2 42.818,2 42.818,35.003 29.82,48 "/>
<polygon opacity="0.1" enable-background="new    " points="8.181,47 8.181,3 41.818,3 41.818,34.589 29.407,47 "/>
<polygon opacity="0.2" enable-background="new    " points="7.181,46 7.181,2 40.818,2 40.818,33.589 28.408,46 "/>
<polygon fill="#E65100" points="8.143,45 8.143,3 39.857,3 39.857,33.175 28.003,45 "/>
<g>
	<g>
		<g>
			
				<linearGradient id="SVGID_1_" gradientUnits="userSpaceOnUse" x1="65.6006" y1="-160.3999" x2="65.6006" y2="-119.4004" gradientTransform="matrix(1 0 0 -1 -41.6001 -115.9004)">
				<stop  offset="0" style="stop-color:#EE6F0B"/>
				<stop  offset="1" style="stop-color:#FFB74D"/>
			</linearGradient>
			<polygon fill="url(#SVGID_1_)" points="8.641,44.5 8.641,3.5 39.359,3.5 39.359,32.969 27.828,44.5 			"/>
		</g>
		<polygon fill="#E65100" fill-opacity="0.3922" points="39.359,32.969 39.359,32.473 27.195,32.473 27.195,44.5 27.828,44.5 		"/>
		<path fill="#FFFFFF" fill-opacity="0.3922" d="M27.809,32.969l11.551,0.016L27.828,44.5L27.809,32.969z"/>
	</g>
	<g opacity="0.8">
		<rect x="12.64" y="19.283" fill="#FFFFFF" width="3.28" height="16.435"/>
		<rect x="18.106" y="27.483" fill="#FFFFFF" width="3.28" height="8.216"/>
		<rect x="23.557" y="30.83" fill="#FFFFFF" width="3.281" height="4.923"/>
		<g>
			<path fill="#FFFFFF" d="M28.015,16.379l0.034,6.542l6.543-0.035c0.019,3.623-2.904,6.561-6.526,6.577
				c-3.62,0.019-6.559-2.903-6.577-6.523C21.472,19.334,24.393,16.395,28.015,16.379z"/>
			<path fill="#FFFFFF" d="M28.783,15.626c3.622-0.016,6.562,2.904,6.577,6.526l-6.542,0.035L28.783,15.626z"/>
		</g>
	</g>
	<g>
		<rect x="8.633" y="3.5" opacity="0.8" fill="#FFFFFF" enable-background="new    " width="30.734" height="7.858"/>
		<g enable-background="new    ">
			<path fill="#E64A19" d="M17.492,4.253c0.964,0,1.701,0.16,2.216,0.48s0.771,0.849,0.771,1.577c0,0.737-0.259,1.268-0.782,1.594
				c-0.521,0.328-1.265,0.491-2.231,0.491h-0.457v2.05h-1.45V4.41c0.315-0.059,0.649-0.099,1.004-0.123
				C16.916,4.263,17.226,4.253,17.492,4.253z M17.586,5.427c-0.104,0-0.208,0.002-0.31,0.011c-0.104,0.005-0.192,0.011-0.267,0.016
				v1.767h0.457c0.501,0,0.881-0.064,1.134-0.195c0.253-0.13,0.382-0.371,0.382-0.723c0-0.171-0.032-0.313-0.099-0.424
				c-0.064-0.112-0.157-0.203-0.277-0.27c-0.12-0.069-0.27-0.115-0.443-0.142C17.989,5.44,17.796,5.427,17.586,5.427z"/>
			<path fill="#E64A19" d="M23.482,4.253c0.964,0,1.701,0.16,2.215,0.48c0.516,0.32,0.774,0.849,0.774,1.577
				c0,0.737-0.262,1.268-0.785,1.594c-0.518,0.328-1.265,0.491-2.231,0.491h-0.454v2.05H21.55V4.41
				c0.315-0.059,0.651-0.099,1.003-0.123C22.906,4.263,23.215,4.253,23.482,4.253z M23.578,5.427c-0.106,0-0.211,0.002-0.312,0.011
				c-0.104,0.005-0.189,0.011-0.265,0.016v1.767h0.454c0.502,0,0.881-0.064,1.137-0.195c0.251-0.13,0.379-0.371,0.379-0.723
				c0-0.171-0.032-0.313-0.096-0.424c-0.064-0.112-0.16-0.203-0.28-0.27c-0.121-0.069-0.27-0.115-0.441-0.142
				C23.979,5.44,23.787,5.427,23.578,5.427z"/>
			<path fill="#E64A19" d="M32.44,4.322v1.174h-1.943v4.949h-1.452V5.497h-1.943V4.322H32.44z"/>
		</g>
	</g>
</g>
</svg>
