<?xml version="1.0" encoding="utf-8"?>
<!-- Generator: Adobe Illustrator 16.0.0, SVG Export Plug-In . SVG Version: 6.00 Build 0)  -->
<!DOCTYPE svg PUBLIC "-//W3C//DTD SVG 1.1//EN" "http://www.w3.org/Graphics/SVG/1.1/DTD/svg11.dtd">
<svg version="1.1" id="图层_1" xmlns="http://www.w3.org/2000/svg" xmlns:xlink="http://www.w3.org/1999/xlink" x="0px" y="0px"
	 width="48px" height="48px" viewBox="0 0 48 48" enable-background="new 0 0 48 48" xml:space="preserve">
<polygon opacity="0.06" enable-background="new    " points="7.181,48 7.181,2 42.818,2 42.818,35.003 29.82,48 "/>
<polygon opacity="0.1" enable-background="new    " points="8.181,47 8.181,3 41.818,3 41.818,34.589 29.407,47 "/>
<polygon opacity="0.2" enable-background="new    " points="7.181,46 7.181,2 40.818,2 40.818,33.589 28.408,46 "/>
<polygon fill="#0D47A1" points="8.143,45 8.143,3 39.857,3 39.857,33.175 28.004,45 "/>
<g>
	<g>
		<g>
			<g>
				<linearGradient id="SVGID_1_" gradientUnits="userSpaceOnUse" x1="24.0142" y1="44.5" x2="24.0142" y2="3.5005">
					<stop  offset="0" style="stop-color:#3F51B5"/>
					<stop  offset="1" style="stop-color:#64B5F6"/>
				</linearGradient>
				<polygon fill="url(#SVGID_1_)" points="8.655,44.5 8.655,3.5 39.373,3.5 39.373,32.969 27.842,44.5 				"/>
			</g>
			<polygon fill="#2196F3" fill-opacity="0.7" points="39.373,32.969 39.373,32.473 27.209,32.473 27.209,44.5 27.842,44.5 			"/>
			<path opacity="0.39" fill="#FFFFFF" d="M27.824,32.969l11.551,0.016L27.842,44.5L27.824,32.969z"/>
		</g>
		<g opacity="0.8">
			<linearGradient id="SVGID_2_" gradientUnits="userSpaceOnUse" x1="13.2085" y1="17.4873" x2="34.8027" y2="17.4873">
				<stop  offset="0" style="stop-color:#F6F5F5"/>
				<stop  offset="0.341" style="stop-color:#F1F2F3"/>
				<stop  offset="0.6434" style="stop-color:#E7EAEB"/>
				<stop  offset="0.9302" style="stop-color:#D5DBDF"/>
				<stop  offset="1" style="stop-color:#CFD7DB"/>
			</linearGradient>
			<rect x="13.208" y="16.953" opacity="0.8" fill="url(#SVGID_2_)" enable-background="new    " width="21.594" height="1.068"/>
			<linearGradient id="SVGID_3_" gradientUnits="userSpaceOnUse" x1="13.2085" y1="14.1484" x2="34.8027" y2="14.1484">
				<stop  offset="0" style="stop-color:#F6F5F5"/>
				<stop  offset="0.341" style="stop-color:#F1F2F3"/>
				<stop  offset="0.6434" style="stop-color:#E7EAEB"/>
				<stop  offset="0.9302" style="stop-color:#D5DBDF"/>
				<stop  offset="1" style="stop-color:#CFD7DB"/>
			</linearGradient>
			<rect x="13.208" y="13.613" opacity="0.8" fill="url(#SVGID_3_)" enable-background="new    " width="21.594" height="1.071"/>
			<linearGradient id="SVGID_4_" gradientUnits="userSpaceOnUse" x1="23.5117" y1="25.7285" x2="34.7852" y2="25.7285">
				<stop  offset="0" style="stop-color:#F6F5F5"/>
				<stop  offset="0.341" style="stop-color:#F1F2F3"/>
				<stop  offset="0.6434" style="stop-color:#E7EAEB"/>
				<stop  offset="0.9302" style="stop-color:#D5DBDF"/>
				<stop  offset="1" style="stop-color:#CFD7DB"/>
			</linearGradient>
			<rect x="23.512" y="20.092" opacity="0.8" fill="url(#SVGID_4_)" enable-background="new    " width="11.273" height="11.273"/>
			<g opacity="0.8">
				<linearGradient id="SVGID_5_" gradientUnits="userSpaceOnUse" x1="13.2085" y1="20.8218" x2="22.5884" y2="20.8218">
					<stop  offset="0" style="stop-color:#F6F5F5"/>
					<stop  offset="0.341" style="stop-color:#F1F2F3"/>
					<stop  offset="0.6434" style="stop-color:#E7EAEB"/>
					<stop  offset="0.9302" style="stop-color:#D5DBDF"/>
					<stop  offset="1" style="stop-color:#CFD7DB"/>
				</linearGradient>
				<rect x="13.208" y="20.286" fill="url(#SVGID_5_)" width="9.38" height="1.071"/>
				<linearGradient id="SVGID_6_" gradientUnits="userSpaceOnUse" x1="13.2085" y1="24.1602" x2="22.5884" y2="24.1602">
					<stop  offset="0" style="stop-color:#F6F5F5"/>
					<stop  offset="0.341" style="stop-color:#F1F2F3"/>
					<stop  offset="0.6434" style="stop-color:#E7EAEB"/>
					<stop  offset="0.9302" style="stop-color:#D5DBDF"/>
					<stop  offset="1" style="stop-color:#CFD7DB"/>
				</linearGradient>
				<rect x="13.208" y="23.626" fill="url(#SVGID_6_)" width="9.38" height="1.068"/>
				<linearGradient id="SVGID_7_" gradientUnits="userSpaceOnUse" x1="13.2085" y1="27.5098" x2="22.5884" y2="27.5098">
					<stop  offset="0" style="stop-color:#F6F5F5"/>
					<stop  offset="0.341" style="stop-color:#F1F2F3"/>
					<stop  offset="0.6434" style="stop-color:#E7EAEB"/>
					<stop  offset="0.9302" style="stop-color:#D5DBDF"/>
					<stop  offset="1" style="stop-color:#CFD7DB"/>
				</linearGradient>
				<rect x="13.208" y="26.977" fill="url(#SVGID_7_)" width="9.38" height="1.067"/>
				<linearGradient id="SVGID_8_" gradientUnits="userSpaceOnUse" x1="13.2085" y1="30.8467" x2="22.5884" y2="30.8467">
					<stop  offset="0" style="stop-color:#F6F5F5"/>
					<stop  offset="0.341" style="stop-color:#F1F2F3"/>
					<stop  offset="0.6434" style="stop-color:#E7EAEB"/>
					<stop  offset="0.9302" style="stop-color:#D5DBDF"/>
					<stop  offset="1" style="stop-color:#CFD7DB"/>
				</linearGradient>
				<rect x="13.208" y="30.313" fill="url(#SVGID_8_)" width="9.38" height="1.068"/>
			</g>
		</g>
	</g>
	<g>
		<rect x="8.625" y="3.5" opacity="0.8" fill="#FFFFFF" width="30.734" height="7.859"/>
		<g>
			<path fill="#1976D2" d="M20.266,7.424c0,0.534-0.087,0.995-0.26,1.388c-0.174,0.396-0.42,0.724-0.74,0.982
				c-0.318,0.259-0.708,0.454-1.167,0.583c-0.458,0.13-0.973,0.197-1.544,0.197c-0.26,0-0.564-0.012-0.912-0.035
				c-0.347-0.019-0.688-0.061-1.021-0.125V4.448c0.333-0.059,0.683-0.099,1.045-0.12c0.363-0.019,0.674-0.031,0.935-0.031
				c0.553,0,1.053,0.057,1.503,0.177c0.45,0.117,0.835,0.303,1.157,0.557c0.322,0.253,0.571,0.578,0.745,0.97
				C20.179,6.398,20.266,6.871,20.266,7.424z M16.071,9.369c0.068,0.007,0.147,0.011,0.237,0.015c0.09,0.002,0.196,0.004,0.32,0.004
				c0.726,0,1.264-0.175,1.613-0.522c0.352-0.347,0.526-0.828,0.526-1.441c0-0.641-0.167-1.127-0.501-1.457
				c-0.335-0.328-0.865-0.496-1.591-0.496c-0.099,0-0.202,0.003-0.307,0.003c-0.106,0.006-0.204,0.012-0.297,0.023V9.369z"/>
			<path fill="#1976D2" d="M27.617,7.424c0,0.526-0.086,0.988-0.252,1.384c-0.16,0.398-0.383,0.732-0.672,0.999
				c-0.283,0.269-0.625,0.469-1.02,0.606c-0.393,0.133-0.818,0.202-1.268,0.202c-0.44,0-0.858-0.069-1.247-0.202
				c-0.39-0.137-0.731-0.337-1.024-0.606c-0.291-0.267-0.521-0.601-0.688-0.999c-0.167-0.396-0.251-0.858-0.251-1.384
				c0-0.522,0.088-0.984,0.261-1.38c0.173-0.398,0.407-0.732,0.702-1.005c0.293-0.269,0.637-0.475,1.025-0.608
				c0.387-0.138,0.791-0.204,1.222-0.204c0.44,0,0.855,0.066,1.246,0.204c0.39,0.133,0.73,0.339,1.024,0.608
				c0.288,0.273,0.519,0.606,0.688,1.005C27.531,6.44,27.617,6.901,27.617,7.424z M22.695,7.424c0,0.301,0.037,0.574,0.117,0.816
				c0.075,0.24,0.187,0.448,0.334,0.622c0.146,0.175,0.322,0.309,0.534,0.404c0.211,0.091,0.454,0.141,0.727,0.141
				c0.267,0,0.507-0.05,0.721-0.141c0.215-0.095,0.393-0.229,0.539-0.404C25.813,8.688,25.924,8.48,26,8.24
				c0.08-0.242,0.116-0.515,0.116-0.816c0-0.299-0.036-0.572-0.116-0.816c-0.076-0.244-0.188-0.454-0.334-0.625
				c-0.146-0.175-0.324-0.309-0.539-0.404c-0.214-0.093-0.454-0.141-0.721-0.141c-0.273,0-0.515,0.05-0.727,0.145
				c-0.211,0.099-0.387,0.232-0.534,0.408c-0.147,0.173-0.259,0.381-0.334,0.625C22.732,6.863,22.695,7.13,22.695,7.424z"/>
			<path fill="#1976D2" d="M31.762,10.616c-1.049,0-1.848-0.277-2.395-0.832c-0.549-0.553-0.824-1.338-0.824-2.36
				c0-0.503,0.086-0.957,0.25-1.354c0.17-0.398,0.398-0.736,0.69-1.009c0.29-0.272,0.637-0.482,1.043-0.624
				c0.402-0.141,0.839-0.211,1.31-0.211c0.273,0,0.521,0.021,0.746,0.057c0.221,0.038,0.419,0.082,0.585,0.133
				c0.168,0.05,0.308,0.101,0.417,0.154c0.113,0.054,0.193,0.094,0.244,0.122l-0.419,1.116c-0.2-0.101-0.429-0.185-0.694-0.257
				c-0.265-0.069-0.563-0.107-0.896-0.107c-0.225,0-0.443,0.038-0.657,0.107c-0.214,0.072-0.402,0.185-0.565,0.339
				C30.432,6.047,30.299,6.25,30.2,6.497c-0.101,0.248-0.148,0.549-0.148,0.9c0,0.284,0.032,0.549,0.095,0.793
				c0.067,0.244,0.172,0.454,0.318,0.633c0.144,0.175,0.336,0.316,0.57,0.419c0.236,0.103,0.521,0.153,0.858,0.153
				c0.21,0,0.4-0.012,0.565-0.035c0.168-0.023,0.317-0.051,0.449-0.084c0.127-0.032,0.242-0.068,0.343-0.11
				c0.099-0.042,0.187-0.08,0.271-0.114l0.4,1.104c-0.205,0.118-0.494,0.223-0.867,0.318C32.683,10.568,32.254,10.616,31.762,10.616
				z"/>
		</g>
	</g>
</g>
</svg>
