<?xml version="1.0" encoding="utf-8"?>
<!-- Generator: Adobe Illustrator 16.0.0, SVG Export Plug-In . SVG Version: 6.00 Build 0)  -->
<!DOCTYPE svg PUBLIC "-//W3C//DTD SVG 1.1//EN" "http://www.w3.org/Graphics/SVG/1.1/DTD/svg11.dtd">
<svg version="1.1" id="图层_1" xmlns="http://www.w3.org/2000/svg" xmlns:xlink="http://www.w3.org/1999/xlink" x="0px" y="0px"
	 width="48px" height="48px" viewBox="0 0 48 48" enable-background="new 0 0 48 48" xml:space="preserve">
<polygon opacity="0.06" enable-background="new    " points="7.181,48 7.181,2 42.818,2 42.818,35.003 29.82,48 "/>
<polygon opacity="0.1" enable-background="new    " points="8.181,47 8.181,3 41.818,3 41.818,34.589 29.407,47 "/>
<polygon opacity="0.2" enable-background="new    " points="7.181,46 7.181,2 40.818,2 40.818,33.589 28.408,46 "/>
<polygon fill="#E65100" points="8.143,45 8.143,3 39.857,3 39.857,33.175 28.003,45 "/>
<g>
	<g>
		<g>
			
				<linearGradient id="SVGID_1_" gradientUnits="userSpaceOnUse" x1="65.6006" y1="-160.3999" x2="65.6006" y2="-119.4004" gradientTransform="matrix(1 0 0 -1 -41.6001 -115.9004)">
				<stop  offset="0" style="stop-color:#EE6F0B"/>
				<stop  offset="1" style="stop-color:#FFB74D"/>
			</linearGradient>
			<polygon fill="url(#SVGID_1_)" points="8.641,44.5 8.641,3.5 39.359,3.5 39.359,32.969 27.828,44.5 			"/>
		</g>
		<polygon fill="#E65100" fill-opacity="0.3922" points="39.359,32.969 39.359,32.473 27.195,32.473 27.195,44.5 27.828,44.5 		"/>
		<path fill="#FFFFFF" fill-opacity="0.3922" d="M27.81,32.969l11.55,0.016L27.828,44.5L27.81,32.969z"/>
	</g>
	<g opacity="0.8">
		<rect x="12.639" y="19.283" fill="#FFFFFF" width="3.281" height="16.435"/>
		<rect x="18.106" y="27.483" fill="#FFFFFF" width="3.28" height="8.216"/>
		<rect x="23.558" y="30.829" fill="#FFFFFF" width="3.279" height="4.923"/>
		<g>
			<path fill="#FFFFFF" d="M28.016,16.379l0.034,6.542l6.541-0.034c0.02,3.623-2.903,6.563-6.526,6.578
				c-3.618,0.019-6.558-2.906-6.576-6.525C21.472,19.334,24.393,16.396,28.016,16.379z"/>
			<path fill="#FFFFFF" d="M28.784,15.626c3.622-0.015,6.561,2.906,6.575,6.526l-6.541,0.036L28.784,15.626z"/>
		</g>
	</g>
	<g>
		<rect x="8.633" y="3.5" opacity="0.8" fill="#FFFFFF" enable-background="new    " width="30.734" height="7.858"/>
		<g enable-background="new    ">
			<path fill="#E64A19" d="M21.075,7.381c0,0.529-0.089,0.994-0.263,1.388c-0.173,0.396-0.417,0.721-0.738,0.98
				c-0.318,0.258-0.708,0.454-1.167,0.584c-0.459,0.127-0.974,0.192-1.546,0.192c-0.258,0-0.563-0.011-0.91-0.032
				c-0.347-0.019-0.689-0.061-1.023-0.128V4.402c0.333-0.058,0.684-0.098,1.047-0.12c0.363-0.018,0.672-0.029,0.934-0.029
				c0.552,0,1.052,0.058,1.502,0.176c0.449,0.118,0.836,0.305,1.158,0.556c0.32,0.256,0.568,0.579,0.742,0.971
				C20.986,6.351,21.075,6.826,21.075,7.381z M16.879,9.325c0.068,0.005,0.146,0.011,0.237,0.013c0.09,0.002,0.197,0.002,0.32,0.002
				c0.726,0,1.265-0.17,1.615-0.518c0.35-0.35,0.525-0.83,0.525-1.441c0-0.644-0.168-1.128-0.501-1.458
				c-0.336-0.331-0.865-0.496-1.591-0.496c-0.098,0-0.203,0-0.307,0.004c-0.107,0.003-0.205,0.011-0.298,0.022V9.325z"/>
			<path fill="#E64A19" d="M24.215,4.253c0.965,0,1.701,0.16,2.215,0.48c0.517,0.32,0.774,0.849,0.774,1.577
				c0,0.737-0.262,1.268-0.783,1.594c-0.52,0.328-1.267,0.491-2.233,0.491h-0.454v2.051h-1.451V4.411
				c0.314-0.06,0.65-0.1,1.003-0.123C23.64,4.264,23.949,4.253,24.215,4.253z M24.313,5.428c-0.106,0-0.211,0.002-0.313,0.01
				c-0.105,0.005-0.189,0.011-0.265,0.016v1.767h0.454c0.503,0,0.88-0.064,1.138-0.194c0.25-0.131,0.379-0.371,0.379-0.724
				c0-0.17-0.032-0.313-0.097-0.424c-0.063-0.112-0.16-0.203-0.28-0.27c-0.12-0.07-0.269-0.115-0.44-0.141
				C24.713,5.441,24.521,5.428,24.313,5.428z"/>
			<path fill="#E64A19" d="M30.03,9.394c0.204,0,0.374-0.016,0.508-0.048c0.133-0.032,0.24-0.074,0.32-0.133
				c0.082-0.054,0.137-0.12,0.169-0.197c0.031-0.076,0.046-0.16,0.046-0.257c0-0.2-0.099-0.368-0.299-0.5
				c-0.196-0.13-0.54-0.274-1.022-0.429c-0.211-0.07-0.421-0.15-0.633-0.24c-0.21-0.092-0.4-0.209-0.568-0.347
				c-0.166-0.139-0.305-0.305-0.407-0.502c-0.105-0.197-0.159-0.438-0.159-0.721s0.054-0.539,0.166-0.764
				c0.113-0.229,0.273-0.421,0.475-0.582c0.206-0.157,0.454-0.28,0.746-0.366c0.29-0.085,0.621-0.128,0.983-0.128
				c0.437,0,0.813,0.046,1.127,0.133c0.314,0.088,0.578,0.184,0.782,0.291l-0.418,1.089c-0.183-0.091-0.379-0.168-0.601-0.235
				c-0.223-0.069-0.484-0.101-0.793-0.101c-0.351,0-0.599,0.043-0.753,0.136c-0.149,0.091-0.226,0.232-0.226,0.418
				c0,0.113,0.027,0.209,0.08,0.283c0.06,0.075,0.138,0.144,0.24,0.208c0.104,0.062,0.22,0.118,0.353,0.166
				c0.134,0.053,0.28,0.104,0.444,0.154c0.334,0.12,0.624,0.235,0.872,0.353c0.249,0.113,0.457,0.246,0.619,0.4
				c0.164,0.155,0.286,0.334,0.366,0.54c0.08,0.208,0.122,0.456,0.122,0.752c0,0.571-0.21,1.014-0.631,1.33
				c-0.424,0.315-1.061,0.472-1.909,0.472c-0.284,0-0.543-0.018-0.771-0.051c-0.229-0.032-0.434-0.069-0.608-0.117
				c-0.18-0.048-0.328-0.096-0.458-0.149c-0.128-0.054-0.234-0.104-0.32-0.15l0.412-1.097c0.192,0.099,0.427,0.189,0.709,0.27
				C29.277,9.356,29.621,9.394,30.03,9.394z"/>
		</g>
	</g>
</g>
</svg>
