<?xml version="1.0" encoding="utf-8"?>
<!-- Generator: Adobe Illustrator 16.0.0, SVG Export Plug-In . SVG Version: 6.00 Build 0)  -->
<!DOCTYPE svg PUBLIC "-//W3C//DTD SVG 1.1//EN" "http://www.w3.org/Graphics/SVG/1.1/DTD/svg11.dtd">
<svg version="1.1" id="图层_1" xmlns="http://www.w3.org/2000/svg" xmlns:xlink="http://www.w3.org/1999/xlink" x="0px" y="0px"
	 width="48px" height="48px" viewBox="0 0 48 48" enable-background="new 0 0 48 48" xml:space="preserve">
<rect x="7.143" y="2" opacity="0.2" enable-background="new    " width="33.714" height="44"/>
<rect x="7.143" y="2" opacity="0.08" enable-background="new    " width="35.714" height="46"/>
<rect x="8.143" y="3" opacity="0.1" enable-background="new    " width="33.714" height="44"/>
<rect x="8.143" y="3" fill="#0D47A1" width="31.714" height="42"/>
<g>
	<linearGradient id="SVGID_1_" gradientUnits="userSpaceOnUse" x1="24.0005" y1="3.5" x2="24.0005" y2="44.5005">
		<stop  offset="0" style="stop-color:#64B5F6"/>
		<stop  offset="1" style="stop-color:#3F51B5"/>
	</linearGradient>
	<rect x="8.643" y="3.5" fill="url(#SVGID_1_)" width="30.717" height="41"/>
	<g opacity="0.8">
		<rect x="12.606" y="19.716" opacity="0.8" fill="#FFFFFF" enable-background="new    " width="22.774" height="1.124"/>
		<rect x="12.606" y="16.195" opacity="0.8" fill="#FFFFFF" enable-background="new    " width="22.774" height="1.129"/>
		<rect x="23.473" y="23.028" opacity="0.8" fill="#FFFFFF" enable-background="new    " width="11.892" height="11.895"/>
		<g opacity="0.8">
			<rect x="12.606" y="23.231" fill="#FFFFFF" width="9.892" height="1.131"/>
			<rect x="12.606" y="26.755" fill="#FFFFFF" width="9.892" height="1.126"/>
			<rect x="12.606" y="30.289" fill="#FFFFFF" width="9.892" height="1.126"/>
			<rect x="12.606" y="33.807" fill="#FFFFFF" width="9.892" height="1.127"/>
		</g>
	</g>
	<g>
		<rect x="8.634" y="3.5" opacity="0.8" fill="#FFFFFF" enable-background="new    " width="30.731" height="7.858"/>
		<g enable-background="new    ">
			<path fill="#236FB7" d="M20.262,7.424c0,0.534-0.088,0.993-0.262,1.388c-0.173,0.395-0.422,0.723-0.739,0.982
				c-0.318,0.259-0.708,0.454-1.167,0.582c-0.459,0.131-0.974,0.198-1.545,0.198c-0.259,0-0.563-0.011-0.91-0.032
				c-0.347-0.021-0.689-0.064-1.025-0.128V4.448c0.336-0.059,0.684-0.099,1.046-0.12c0.363-0.021,0.675-0.032,0.935-0.032
				c0.555,0,1.054,0.059,1.505,0.179c0.448,0.118,0.833,0.302,1.158,0.558c0.32,0.251,0.569,0.577,0.742,0.972
				C20.174,6.399,20.262,6.871,20.262,7.424z M16.065,9.37c0.069,0.008,0.147,0.011,0.238,0.014c0.088,0.002,0.195,0.005,0.32,0.005
				c0.726,0,1.263-0.176,1.615-0.523c0.35-0.347,0.523-0.828,0.523-1.441c0-0.641-0.166-1.126-0.502-1.458
				c-0.333-0.328-0.865-0.494-1.591-0.494c-0.096,0-0.2,0.002-0.304,0.002C16.258,5.48,16.159,5.486,16.065,5.5V9.37z"/>
			<path fill="#236FB7" d="M27.609,7.424c0,0.526-0.082,0.988-0.248,1.385c-0.162,0.398-0.389,0.729-0.672,0.999
				c-0.285,0.27-0.625,0.47-1.02,0.606c-0.395,0.133-0.816,0.203-1.271,0.203c-0.438,0-0.854-0.069-1.244-0.203
				c-0.392-0.136-0.731-0.336-1.024-0.606c-0.291-0.27-0.521-0.601-0.689-0.999C21.276,8.412,21.19,7.95,21.19,7.424
				c0-0.523,0.088-0.982,0.262-1.383c0.173-0.395,0.406-0.731,0.702-1.003c0.297-0.27,0.636-0.473,1.022-0.609
				c0.39-0.133,0.796-0.203,1.223-0.203c0.443,0,0.857,0.069,1.25,0.203c0.389,0.136,0.73,0.339,1.021,0.609
				c0.291,0.272,0.521,0.608,0.689,1.003C27.527,6.441,27.609,6.901,27.609,7.424z M22.691,7.424c0,0.302,0.037,0.574,0.114,0.814
				c0.078,0.243,0.189,0.451,0.334,0.622c0.146,0.176,0.325,0.31,0.534,0.406c0.213,0.091,0.453,0.139,0.726,0.139
				c0.267,0,0.507-0.048,0.72-0.139c0.217-0.096,0.396-0.229,0.543-0.406c0.146-0.171,0.256-0.379,0.334-0.622
				c0.076-0.24,0.117-0.512,0.117-0.814c0-0.299-0.041-0.571-0.117-0.817c-0.078-0.243-0.188-0.454-0.334-0.625
				c-0.146-0.176-0.326-0.31-0.543-0.406c-0.213-0.091-0.453-0.139-0.72-0.139c-0.272,0-0.513,0.048-0.726,0.144
				c-0.209,0.099-0.388,0.235-0.534,0.406c-0.145,0.176-0.256,0.384-0.334,0.63C22.728,6.863,22.691,7.13,22.691,7.424z"/>
			<path fill="#236FB7" d="M33.387,4.368v1.177h-1.945v4.949H29.99V5.544h-1.945V4.368H33.387z"/>
		</g>
	</g>
</g>
</svg>
