<?xml version="1.0" encoding="utf-8"?>
<!-- Generator: Adobe Illustrator 16.0.0, SVG Export Plug-In . SVG Version: 6.00 Build 0)  -->
<!DOCTYPE svg PUBLIC "-//W3C//DTD SVG 1.1//EN" "http://www.w3.org/Graphics/SVG/1.1/DTD/svg11.dtd">
<svg version="1.1" id="图层_1" xmlns="http://www.w3.org/2000/svg" xmlns:xlink="http://www.w3.org/1999/xlink" x="0px" y="0px"
	 width="48px" height="48px" viewBox="0 0 48 48" enable-background="new 0 0 48 48" xml:space="preserve">
<polygon opacity="0.06" enable-background="new    " points="7.181,48 7.181,2 42.818,2 42.818,35.003 29.82,48 "/>
<polygon opacity="0.1" enable-background="new    " points="8.181,47 8.181,3 41.818,3 41.818,34.589 29.407,47 "/>
<polygon opacity="0.2" enable-background="new    " points="7.181,46 7.181,2 40.818,2 40.818,33.589 28.408,46 "/>
<polygon fill="#0D47A1" points="8.143,45 8.143,3 39.857,3 39.857,33.175 28.004,45 "/>
<g>
	<g>
		<g>
			<g>
				<linearGradient id="SVGID_1_" gradientUnits="userSpaceOnUse" x1="24.0142" y1="44.5" x2="24.0142" y2="3.5005">
					<stop  offset="0" style="stop-color:#3F51B5"/>
					<stop  offset="1" style="stop-color:#64B5F6"/>
				</linearGradient>
				<polygon fill="url(#SVGID_1_)" points="8.654,44.5 8.654,3.5 39.373,3.5 39.373,32.969 27.842,44.5 				"/>
			</g>
			<polygon fill="#2196F3" fill-opacity="0.7" points="39.373,32.969 39.373,32.473 27.209,32.473 27.209,44.5 27.842,44.5 			"/>
			<path opacity="0.39" fill="#FFFFFF" d="M27.825,32.969l11.55,0.016L27.842,44.5L27.825,32.969z"/>
		</g>
		<g opacity="0.8">
			<linearGradient id="SVGID_2_" gradientUnits="userSpaceOnUse" x1="13.208" y1="17.4873" x2="34.8027" y2="17.4873">
				<stop  offset="0" style="stop-color:#F6F5F5"/>
				<stop  offset="0.341" style="stop-color:#F1F2F3"/>
				<stop  offset="0.6434" style="stop-color:#E7EAEB"/>
				<stop  offset="0.9302" style="stop-color:#D5DBDF"/>
				<stop  offset="1" style="stop-color:#CFD7DB"/>
			</linearGradient>
			<rect x="13.208" y="16.953" opacity="0.8" fill="url(#SVGID_2_)" enable-background="new    " width="21.595" height="1.068"/>
			<linearGradient id="SVGID_3_" gradientUnits="userSpaceOnUse" x1="13.208" y1="14.1489" x2="34.8027" y2="14.1489">
				<stop  offset="0" style="stop-color:#F6F5F5"/>
				<stop  offset="0.341" style="stop-color:#F1F2F3"/>
				<stop  offset="0.6434" style="stop-color:#E7EAEB"/>
				<stop  offset="0.9302" style="stop-color:#D5DBDF"/>
				<stop  offset="1" style="stop-color:#CFD7DB"/>
			</linearGradient>
			<rect x="13.208" y="13.614" opacity="0.8" fill="url(#SVGID_3_)" enable-background="new    " width="21.595" height="1.07"/>
			<linearGradient id="SVGID_4_" gradientUnits="userSpaceOnUse" x1="23.5117" y1="25.7285" x2="34.7871" y2="25.7285">
				<stop  offset="0" style="stop-color:#F6F5F5"/>
				<stop  offset="0.341" style="stop-color:#F1F2F3"/>
				<stop  offset="0.6434" style="stop-color:#E7EAEB"/>
				<stop  offset="0.9302" style="stop-color:#D5DBDF"/>
				<stop  offset="1" style="stop-color:#CFD7DB"/>
			</linearGradient>
			<rect x="23.512" y="20.092" opacity="0.8" fill="url(#SVGID_4_)" enable-background="new    " width="11.275" height="11.272"/>
			<g opacity="0.8">
				<linearGradient id="SVGID_5_" gradientUnits="userSpaceOnUse" x1="13.208" y1="20.8223" x2="22.5879" y2="20.8223">
					<stop  offset="0" style="stop-color:#F6F5F5"/>
					<stop  offset="0.341" style="stop-color:#F1F2F3"/>
					<stop  offset="0.6434" style="stop-color:#E7EAEB"/>
					<stop  offset="0.9302" style="stop-color:#D5DBDF"/>
					<stop  offset="1" style="stop-color:#CFD7DB"/>
				</linearGradient>
				<rect x="13.208" y="20.287" fill="url(#SVGID_5_)" width="9.38" height="1.07"/>
				<linearGradient id="SVGID_6_" gradientUnits="userSpaceOnUse" x1="13.208" y1="24.1602" x2="22.5879" y2="24.1602">
					<stop  offset="0" style="stop-color:#F6F5F5"/>
					<stop  offset="0.341" style="stop-color:#F1F2F3"/>
					<stop  offset="0.6434" style="stop-color:#E7EAEB"/>
					<stop  offset="0.9302" style="stop-color:#D5DBDF"/>
					<stop  offset="1" style="stop-color:#CFD7DB"/>
				</linearGradient>
				<rect x="13.208" y="23.626" fill="url(#SVGID_6_)" width="9.38" height="1.068"/>
				<linearGradient id="SVGID_7_" gradientUnits="userSpaceOnUse" x1="13.208" y1="27.5098" x2="22.5879" y2="27.5098">
					<stop  offset="0" style="stop-color:#F6F5F5"/>
					<stop  offset="0.341" style="stop-color:#F1F2F3"/>
					<stop  offset="0.6434" style="stop-color:#E7EAEB"/>
					<stop  offset="0.9302" style="stop-color:#D5DBDF"/>
					<stop  offset="1" style="stop-color:#CFD7DB"/>
				</linearGradient>
				<rect x="13.208" y="26.977" fill="url(#SVGID_7_)" width="9.38" height="1.067"/>
				<linearGradient id="SVGID_8_" gradientUnits="userSpaceOnUse" x1="13.208" y1="30.8467" x2="22.5879" y2="30.8467">
					<stop  offset="0" style="stop-color:#F6F5F5"/>
					<stop  offset="0.341" style="stop-color:#F1F2F3"/>
					<stop  offset="0.6434" style="stop-color:#E7EAEB"/>
					<stop  offset="0.9302" style="stop-color:#D5DBDF"/>
					<stop  offset="1" style="stop-color:#CFD7DB"/>
				</linearGradient>
				<rect x="13.208" y="30.313" fill="url(#SVGID_8_)" width="9.38" height="1.068"/>
			</g>
		</g>
	</g>
	<g>
		<rect x="8.625" y="3.5" opacity="0.8" fill="#FFFFFF" width="30.734" height="7.858"/>
	</g>
	<g>
		<path fill="#1976D2" d="M18.955,5.021c0.075,0.24,0.156,0.513,0.247,0.817c0.089,0.304,0.186,0.619,0.288,0.942
			c0.102,0.323,0.206,0.648,0.311,0.971c0.104,0.323,0.207,0.625,0.306,0.902c0.082-0.302,0.164-0.627,0.248-0.979
			c0.084-0.355,0.163-0.721,0.238-1.097s0.148-0.753,0.22-1.129c0.072-0.374,0.139-0.731,0.2-1.081h1.508
			c-0.219,1.025-0.47,2.066-0.754,3.12c-0.283,1.055-0.59,2.056-0.921,3.006h-1.328c-0.216-0.566-0.427-1.159-0.631-1.783
			c-0.205-0.619-0.405-1.244-0.604-1.869c-0.199,0.625-0.397,1.25-0.595,1.869c-0.199,0.625-0.407,1.217-0.625,1.783h-1.327
			c-0.33-0.95-0.637-1.951-0.919-3.006c-0.285-1.054-0.534-2.095-0.753-3.12h1.572c0.063,0.35,0.131,0.707,0.206,1.081
			c0.075,0.376,0.153,0.752,0.233,1.129c0.082,0.376,0.164,0.742,0.249,1.097c0.084,0.352,0.169,0.678,0.257,0.979
			c0.111-0.291,0.22-0.595,0.326-0.921c0.105-0.323,0.208-0.646,0.308-0.972c0.099-0.323,0.191-0.635,0.274-0.934
			c0.084-0.302,0.16-0.571,0.229-0.806H18.955z"/>
		<path fill="#1976D2" d="M25.375,4.295c0.966,0,1.703,0.163,2.215,0.483c0.518,0.323,0.774,0.846,0.774,1.577
			c0,0.737-0.262,1.268-0.779,1.596c-0.523,0.326-1.265,0.491-2.237,0.491h-0.453v2.05h-1.453V4.456
			c0.315-0.059,0.651-0.102,1.004-0.123C24.799,4.309,25.107,4.295,25.375,4.295z M25.471,5.473c-0.107,0-0.208,0.002-0.31,0.008
			c-0.106,0.005-0.192,0.011-0.267,0.019v1.767h0.453c0.502,0,0.881-0.064,1.137-0.195c0.257-0.128,0.38-0.371,0.38-0.726
			c0-0.168-0.032-0.31-0.097-0.421c-0.063-0.112-0.16-0.203-0.277-0.27c-0.123-0.067-0.267-0.115-0.443-0.142
			C25.871,5.486,25.68,5.473,25.471,5.473z"/>
		<path fill="#1976D2" d="M31.188,9.442c0.208,0,0.374-0.016,0.507-0.048c0.134-0.035,0.24-0.08,0.326-0.133
			c0.08-0.059,0.133-0.123,0.165-0.2c0.032-0.077,0.048-0.163,0.048-0.256c0-0.2-0.102-0.366-0.299-0.499S31.396,8.03,30.91,7.877
			c-0.207-0.072-0.422-0.155-0.629-0.246c-0.214-0.09-0.4-0.206-0.572-0.341c-0.165-0.139-0.304-0.31-0.405-0.507
			c-0.106-0.198-0.16-0.438-0.16-0.718c0-0.283,0.06-0.536,0.165-0.766c0.113-0.225,0.273-0.419,0.476-0.577
			c0.208-0.16,0.454-0.283,0.747-0.369c0.289-0.085,0.619-0.128,0.982-0.128c0.438,0,0.813,0.042,1.127,0.133
			c0.32,0.088,0.576,0.187,0.785,0.291l-0.422,1.086c-0.177-0.088-0.379-0.166-0.598-0.235C32.187,5.435,31.92,5.4,31.609,5.4
			c-0.346,0-0.598,0.048-0.746,0.139c-0.155,0.09-0.23,0.229-0.23,0.419c0,0.112,0.027,0.206,0.086,0.283
			c0.053,0.078,0.133,0.147,0.234,0.208c0.102,0.061,0.219,0.117,0.353,0.168c0.134,0.048,0.283,0.102,0.443,0.155
			c0.337,0.118,0.624,0.235,0.876,0.347c0.245,0.117,0.453,0.251,0.619,0.403c0.16,0.152,0.283,0.334,0.367,0.54
			c0.08,0.205,0.118,0.456,0.118,0.75c0,0.571-0.208,1.014-0.63,1.329c-0.422,0.318-1.057,0.475-1.911,0.475
			c-0.283,0-0.54-0.016-0.769-0.048c-0.23-0.032-0.433-0.075-0.609-0.12c-0.176-0.045-0.33-0.099-0.459-0.152
			c-0.123-0.051-0.234-0.102-0.32-0.149l0.412-1.094c0.191,0.101,0.426,0.189,0.709,0.27C30.436,9.399,30.783,9.442,31.188,9.442z"
			/>
	</g>
</g>
</svg>
