<?xml version="1.0" encoding="utf-8"?>
<!-- Generator: Adobe Illustrator 21.0.0, SVG Export Plug-In . SVG Version: 6.00 Build 0)  -->
<svg version="1.1" id="图层_1" xmlns="http://www.w3.org/2000/svg" xmlns:xlink="http://www.w3.org/1999/xlink" x="0px" y="0px"
	 viewBox="0 0 48 48" style="enable-background:new 0 0 48 48;" xml:space="preserve">
<style type="text/css">
	.st0{opacity:0.2;enable-background:new    ;}
	.st1{opacity:0.08;enable-background:new    ;}
	.st2{opacity:0.1;enable-background:new    ;}
	.st3{fill:#1B5E20;}
	.st4{fill:url(#SVGID_1_);}
	.st5{opacity:0.8;fill:#FFFFFF;enable-background:new    ;}
	.st6{fill:#388E3C;}
</style>
<rect x="7.1" y="2" class="st0" width="33.7" height="44"/>
<rect x="7.1" y="2" class="st1" width="35.7" height="46"/>
<rect x="8.1" y="3" class="st2" width="33.7" height="44"/>
<rect x="8.1" y="3" class="st3" width="31.7" height="42"/>
<g>
	
		<linearGradient id="SVGID_1_" gradientUnits="userSpaceOnUse" x1="107.1502" y1="1611.3008" x2="107.1502" y2="1570.3008" gradientTransform="matrix(1 0 0 1 -83.2002 -1566.8008)">
		<stop  offset="0" style="stop-color:#388E3C"/>
		<stop  offset="0.0757" style="stop-color:#43953E"/>
		<stop  offset="0.3246" style="stop-color:#62A943"/>
		<stop  offset="0.5665" style="stop-color:#79B747"/>
		<stop  offset="0.796" style="stop-color:#86C049"/>
		<stop  offset="1" style="stop-color:#8BC34A"/>
	</linearGradient>
	<rect x="8.6" y="3.5" class="st4" width="30.7" height="41"/>
	<path class="st5" d="M24.8,16.5L24.8,16.5h-1.6l0,0H13.1v19.8H35V16.5H24.8z M14.6,22.4h4.9v3.2h-4.9V22.4z M14.6,27.1h4.9v3.2
		h-4.9V27.1z M21.1,27.1h12.2v3.2H21.1V27.1z M21.1,25.6v-3.2h12.2v3.2H21.1z M33.4,18.1v2.7H21.1v-2.7H33.4z M19.5,18.1v2.7h-4.9
		v-2.7H19.5z M14.6,31.9h4.9v2.8h-4.9V31.9z M21.1,34.7v-2.8h12.2v2.8H21.1z"/>
	<g>
		<rect x="8.6" y="3.5" class="st5" width="30.7" height="7.9"/>
	</g>
	<g>
		<path class="st6" d="M20.2,10.4c-0.2-0.3-0.4-0.7-0.6-1c-0.2-0.4-0.5-0.6-0.7-0.9c-0.1,0.1-0.2,0.2-0.3,0.4
			c-0.1,0.2-0.3,0.3-0.4,0.5C18,9.6,17.9,9.8,17.8,10s-0.2,0.4-0.3,0.5h-1.7c0.3-0.5,0.6-1,1-1.5s0.8-1,1.2-1.6l-2.1-3h1.8l1.2,1.8
			l1.3-1.8h1.7l-2.1,3c0.5,0.7,1,1.3,1.4,1.8s0.6,1,0.8,1.4h-1.8V10.4z"/>
		<path class="st6" d="M27.1,9.3v1.2h-4.3V4.3h1.4v4.9C24.2,9.3,27.1,9.3,27.1,9.3z"/>
		<path class="st6" d="M32.1,4.3v1.2h-1.9v4.9h-1.5V5.5h-1.9V4.3H32.1z"/>
	</g>
</g>
</svg>
