<?xml version="1.0" encoding="utf-8"?>
<!-- Generator: Adobe Illustrator 21.0.0, SVG Export Plug-In . SVG Version: 6.00 Build 0)  -->
<svg version="1.1" id="图层_1" xmlns="http://www.w3.org/2000/svg" xmlns:xlink="http://www.w3.org/1999/xlink" x="0px" y="0px"
	 viewBox="0 0 48 48" style="enable-background:new 0 0 48 48;" xml:space="preserve">
<style type="text/css">
	.st0{opacity:0.06;enable-background:new    ;}
	.st1{opacity:0.1;enable-background:new    ;}
	.st2{opacity:0.2;enable-background:new    ;}
	.st3{fill:#1B5E20;}
	.st4{fill:url(#SVGID_1_);}
	.st5{fill:#1B5E20;fill-opacity:0.39;}
	.st6{fill:#FFFFFF;fill-opacity:0.3922;}
	.st7{opacity:0.8;fill:#FFFFFF;enable-background:new    ;}
	.st8{enable-background:new    ;}
	.st9{fill:#388E3C;}
	.st10{fill:url(#SVGID_2_);}
</style>
<polygon class="st0" points="7.2,48 7.2,2 42.8,2 42.8,35 29.8,48 "/>
<polygon class="st1" points="8.2,47 8.2,3 41.8,3 41.8,34.6 29.4,47 "/>
<polygon class="st2" points="7.2,46 7.2,2 40.8,2 40.8,33.6 28.4,46 "/>
<polygon class="st3" points="8.1,45 8.1,3 39.9,3 39.9,33.2 28,45 "/>
<g>
	<g>
		<g>
			<g>
				
					<linearGradient id="SVGID_1_" gradientUnits="userSpaceOnUse" x1="109.2002" y1="-1288.3008" x2="109.2002" y2="-1273.3008" gradientTransform="matrix(1 0 0 -1 -83.2002 -1252.8008)">
					<stop  offset="0" style="stop-color:#388E3C"/>
					<stop  offset="0.0757" style="stop-color:#43953E"/>
					<stop  offset="0.3246" style="stop-color:#62A943"/>
					<stop  offset="0.5665" style="stop-color:#79B747"/>
					<stop  offset="0.796" style="stop-color:#86C049"/>
					<stop  offset="1" style="stop-color:#8BC34A"/>
				</linearGradient>
				<polygon class="st4" points="20.4,35.5 20.4,20.5 31.6,20.5 31.6,31.3 27.4,35.5 				"/>
			</g>
			<polygon class="st5" points="31.6,31.3 31.6,31.1 27.2,31.1 27.2,35.5 27.4,35.5 			"/>
			<path class="st6" d="M27.4,31.3h4.2l-4.2,4.2L27.4,31.3z"/>
		</g>
		<path class="st7" d="M26.3,23.8L26.3,23.8h-0.6l0,0h-3.6v7h7.7v-7H26.3z M22.7,25.9h1.7V27h-1.7V25.9z M22.7,27.6h1.7v1.1h-1.7
			V27.6z M25,27.6h4.3v1.1H25V27.6z M25,27v-1.1h4.3V27H25z M29.3,24.4v1H25v-1H29.3z M24.4,24.4v1h-1.7v-1H24.4z M22.7,29.2h1.7v1
			h-1.7V29.2z M25,30.2v-1h4.3v1H25z"/>
	</g>
	<g>
		<rect x="20.4" y="20.5" class="st7" width="11.2" height="2.9"/>
		<g class="st8">
			<path class="st9" d="M24.5,23c-0.1-0.1-0.1-0.3-0.2-0.4s-0.2-0.2-0.3-0.3l-0.1,0.1c0,0.1-0.1,0.1-0.1,0.2s-0.1,0.1-0.1,0.2
				S23.5,23,23.5,23h-0.6c0.1-0.2,0.2-0.4,0.4-0.5c0.1-0.2,0.3-0.4,0.5-0.6L23,20.8h0.6l0.4,0.6l0.5-0.6h0.6l-0.8,1.1
				c0.2,0.2,0.4,0.5,0.5,0.7s0.2,0.4,0.3,0.5L24.5,23L24.5,23z"/>
			<path class="st9" d="M27,22.6V23h-1.6v-2.2H26v1.8C26,22.6,27,22.6,27,22.6z"/>
			<path class="st9" d="M28.1,22.7c0.1,0,0.1,0,0.2,0h0.1c0,0,0.1,0,0.1-0.1v-0.1c0-0.1,0-0.1-0.1-0.2s-0.2-0.1-0.4-0.2
				c-0.1,0-0.2-0.1-0.2-0.1c-0.1,0-0.1-0.1-0.2-0.1c-0.1-0.1-0.1-0.1-0.1-0.2s-0.1-0.2-0.1-0.3c0-0.1,0-0.2,0.1-0.3s0.1-0.2,0.2-0.2
				c0.1-0.1,0.2-0.1,0.3-0.1c0.1,0,0.2,0,0.4,0c0.2,0,0.3,0,0.4,0s0.2,0.1,0.3,0.1l-0.2,0.4c-0.1,0-0.1-0.1-0.2-0.1s-0.2,0-0.3,0
				c-0.1,0-0.2,0-0.3,0c-0.1,0-0.1,0.1-0.1,0.2v0.1l0.1,0.1c0,0,0.1,0,0.1,0.1c0,0,0.1,0,0.2,0.1c0.1,0,0.2,0.1,0.3,0.1
				c0.1,0,0.2,0.1,0.2,0.1c0.1,0.1,0.1,0.1,0.1,0.2s0,0.2,0,0.3c0,0.2-0.1,0.4-0.2,0.5c-0.2,0.1-0.4,0.2-0.7,0.2c-0.1,0-0.2,0-0.3,0
				s-0.2,0-0.2,0c-0.1,0-0.1,0-0.2-0.1c0,0-0.1,0-0.1-0.1l0.1-0.4c0.1,0,0.2,0.1,0.3,0.1C27.8,22.6,27.9,22.7,28.1,22.7z"/>
		</g>
	</g>
</g>
<g>
	<g>
		<g>
			<g>
				
					<linearGradient id="SVGID_2_" gradientUnits="userSpaceOnUse" x1="107.2002" y1="-1297.3008" x2="107.2002" y2="-1256.3008" gradientTransform="matrix(1 0 0 -1 -83.2002 -1252.8008)">
					<stop  offset="0" style="stop-color:#388E3C"/>
					<stop  offset="0.0757" style="stop-color:#43953E"/>
					<stop  offset="0.3246" style="stop-color:#62A943"/>
					<stop  offset="0.5665" style="stop-color:#79B747"/>
					<stop  offset="0.796" style="stop-color:#86C049"/>
					<stop  offset="1" style="stop-color:#8BC34A"/>
				</linearGradient>
				<polygon class="st10" points="8.6,44.5 8.6,3.5 39.4,3.5 39.4,33 27.8,44.5 				"/>
			</g>
			<polygon class="st5" points="39.4,33 39.4,32.5 27.2,32.5 27.2,44.5 27.8,44.5 			"/>
			<path class="st6" d="M27.8,33h11.6L27.8,44.5V33z"/>
		</g>
		<path class="st7" d="M24.8,12.6L24.8,12.6h-1.5l0,0h-9.8v19.1h21.1V12.6H24.8z M15,18.2h4.7v3.1H15V18.2z M15,22.8h4.7v3H15V22.8z
			 M21.2,22.8H33v3H21.2V22.8z M21.2,21.3v-3.1H33v3.1H21.2z M33,14.1v2.6H21.2v-2.6H33z M19.7,14.1v2.6H15v-2.6H19.7z M15,27.4h4.7
			v2.7H15V27.4z M21.2,30.1v-2.7H33v2.7H21.2z"/>
	</g>
	<g>
		<rect x="8.6" y="3.5" class="st7" width="30.7" height="7.9"/>
		<g class="st8">
			<path class="st9" d="M19.9,10.4c-0.2-0.3-0.4-0.7-0.6-1c-0.2-0.4-0.5-0.6-0.7-0.9c-0.1,0.1-0.2,0.2-0.3,0.4
				c-0.1,0.2-0.3,0.3-0.4,0.5s-0.3,0.4-0.4,0.6s-0.2,0.4-0.3,0.5h-1.7c0.3-0.5,0.6-1,1-1.5s0.8-1,1.2-1.6l-2.1-3h1.8l1.2,1.8
				l1.3-1.8h1.7l-2.1,3c0.5,0.7,1,1.3,1.4,1.8s0.6,1,0.8,1.4C21.6,10.4,19.9,10.4,19.9,10.4z"/>
			<path class="st9" d="M26.8,9.3v1.2h-4.3V4.3h1.4v4.9C23.9,9.3,26.8,9.3,26.8,9.3z"/>
			<path class="st9" d="M29.6,9.4c0.2,0,0.4,0,0.5,0s0.2-0.1,0.3-0.1c0.1-0.1,0.1-0.1,0.2-0.2c0-0.1,0-0.2,0-0.3
				c0-0.2-0.1-0.4-0.3-0.5c-0.2-0.1-0.5-0.3-1-0.4c-0.2-0.1-0.4-0.2-0.6-0.2c-0.2-0.1-0.4-0.2-0.6-0.3c-0.2-0.1-0.3-0.3-0.4-0.5
				s-0.2-0.4-0.2-0.7c0-0.3,0.1-0.5,0.2-0.8S28,5,28.2,4.8s0.5-0.3,0.7-0.4c0.3-0.1,0.6-0.1,1-0.1s0.8,0,1.1,0.1
				c0.3,0.1,0.6,0.2,0.8,0.3l-0.4,1.1c-0.2-0.1-0.4-0.2-0.6-0.2c-0.2-0.1-0.5-0.1-0.8-0.1s-0.6,0-0.8,0.1C29.1,5.7,29,5.8,29,6
				c0,0.1,0,0.2,0.1,0.3c0.1,0.1,0.1,0.1,0.2,0.2s0.2,0.1,0.4,0.2c0.1,0.1,0.3,0.1,0.4,0.2C30.4,7,30.7,7.1,31,7.2
				c0.2,0.1,0.5,0.2,0.6,0.4C31.8,7.6,32,7.8,32,8c0.1,0.2,0.1,0.5,0.1,0.8c0,0.6-0.2,1-0.6,1.3s-1.1,0.5-1.9,0.5
				c-0.3,0-0.5,0-0.8,0s-0.4-0.1-0.6-0.1s-0.3-0.1-0.5-0.2c-0.1-0.1-0.2-0.1-0.3-0.1L27.9,9c0.2,0.1,0.4,0.2,0.7,0.3
				C28.9,9.4,29.2,9.4,29.6,9.4z"/>
		</g>
	</g>
</g>
</svg>
