<?xml version="1.0" encoding="utf-8"?>
<!-- Generator: Adobe Illustrator 21.0.0, SVG Export Plug-In . SVG Version: 6.00 Build 0)  -->
<svg version="1.1" id="图层_1" xmlns="http://www.w3.org/2000/svg" xmlns:xlink="http://www.w3.org/1999/xlink" x="0px" y="0px"
	 viewBox="0 0 48 48" style="enable-background:new 0 0 48 48;" xml:space="preserve">
<style type="text/css">
	.st0{opacity:0.06;enable-background:new    ;}
	.st1{opacity:0.1;enable-background:new    ;}
	.st2{opacity:0.2;enable-background:new    ;}
	.st3{fill:#E65100;}
	.st4{fill:url(#SVGID_1_);}
	.st5{fill:#E65100;fill-opacity:0.3922;}
	.st6{fill:#FFFFFF;fill-opacity:0.3922;}
	.st7{opacity:0.8;}
	.st8{fill:#FFFFFF;}
	.st9{opacity:0.8;fill:#FFFFFF;enable-background:new    ;}
	.st10{enable-background:new    ;}
	.st11{fill:#E64A19;}
</style>
<polygon class="st0" points="7.2,48 7.2,2 42.8,2 42.8,35 29.8,48 "/>
<polygon class="st1" points="8.2,47 8.2,3 41.8,3 41.8,34.6 29.4,47 "/>
<polygon class="st2" points="7.2,46 7.2,2 40.8,2 40.8,33.6 28.4,46 "/>
<polygon class="st3" points="8.1,45 8.1,3 39.9,3 39.9,33.2 28,45 "/>
<g>
	<g>
		<g>
			
				<linearGradient id="SVGID_1_" gradientUnits="userSpaceOnUse" x1="65.6001" y1="-878.4004" x2="65.6001" y2="-837.4004" gradientTransform="matrix(1 0 0 -1 -41.6001 -833.9004)">
				<stop  offset="0" style="stop-color:#EE6F0B"/>
				<stop  offset="1" style="stop-color:#FFB74D"/>
			</linearGradient>
			<polygon class="st4" points="8.6,44.5 8.6,3.5 39.4,3.5 39.4,33 27.8,44.5 			"/>
		</g>
		<polygon class="st5" points="39.4,33 39.4,32.5 27.2,32.5 27.2,44.5 27.8,44.5 		"/>
		<path class="st6" d="M27.8,33h11.6L27.8,44.5V33z"/>
	</g>
	<g class="st7">
		<rect x="12.6" y="19.3" class="st8" width="3.3" height="16.4"/>
		<rect x="18.1" y="27.5" class="st8" width="3.3" height="8.2"/>
		<rect x="23.6" y="30.8" class="st8" width="3.3" height="4.9"/>
		<g>
			<path class="st8" d="M28,16.4v6.5h6.5c0,3.6-2.9,6.6-6.5,6.6s-6.6-2.9-6.6-6.5C21.5,19.3,24.4,16.4,28,16.4z"/>
			<path class="st8" d="M28.8,15.6c3.6,0,6.6,2.9,6.6,6.5h-6.5L28.8,15.6z"/>
		</g>
	</g>
	<g>
		<rect x="8.6" y="3.5" class="st9" width="30.7" height="7.9"/>
		<g class="st10">
			<path class="st11" d="M17.5,4.3c1,0,1.7,0.2,2.2,0.5s0.8,0.8,0.8,1.6c0,0.7-0.3,1.3-0.8,1.6s-1.3,0.5-2.2,0.5H17v2.1h-1.4v-6
				c0.3-0.1,0.6-0.1,1-0.1C16.9,4.3,17.2,4.3,17.5,4.3z M17.6,5.4c-0.1,0-0.2,0-0.3,0c-0.1,0-0.2,0-0.3,0v1.8h0.5
				c0.5,0,0.9-0.1,1.1-0.2C18.9,6.9,19,6.7,19,6.3c0-0.2,0-0.3-0.1-0.4s-0.2-0.2-0.3-0.3c-0.1-0.1-0.3-0.1-0.4-0.1
				C18,5.4,17.8,5.4,17.6,5.4z"/>
			<path class="st11" d="M23.5,4.3c1,0,1.7,0.2,2.2,0.5s0.8,0.8,0.8,1.6c0,0.7-0.3,1.3-0.8,1.6s-1.3,0.5-2.2,0.5H23v2.1h-1.5v-6
				c0.3-0.1,0.7-0.1,1-0.1C22.9,4.3,23.2,4.3,23.5,4.3z M23.6,5.4c-0.1,0-0.2,0-0.3,0c-0.1,0-0.2,0-0.3,0v1.8h0.5
				c0.5,0,0.9-0.1,1.1-0.2C24.8,6.9,25,6.7,25,6.3c0-0.2,0-0.3-0.1-0.4s-0.2-0.2-0.3-0.3c-0.1-0.1-0.3-0.1-0.4-0.1
				C24,5.4,23.8,5.4,23.6,5.4z"/>
			<path class="st11" d="M32.4,4.3v1.2h-1.9v4.9H29V5.5h-1.9V4.3H32.4z"/>
		</g>
	</g>
</g>
</svg>
