<?xml version="1.0" encoding="utf-8"?>
<!-- Generator: Adobe Illustrator 21.0.0, SVG Export Plug-In . SVG Version: 6.00 Build 0)  -->
<svg version="1.1" id="图层_1" xmlns="http://www.w3.org/2000/svg" xmlns:xlink="http://www.w3.org/1999/xlink" x="0px" y="0px"
	 viewBox="0 0 48 48" style="enable-background:new 0 0 48 48;" xml:space="preserve">
<style type="text/css">
	.st0{opacity:0.2;enable-background:new    ;}
	.st1{opacity:0.08;enable-background:new    ;}
	.st2{opacity:0.1;enable-background:new    ;}
	.st3{fill:#E65100;}
	.st4{fill:url(#SVGID_1_);}
	.st5{opacity:0.8;}
	.st6{fill:#FFFFFF;}
	.st7{opacity:0.8;fill:#FFFFFF;enable-background:new    ;}
	.st8{enable-background:new    ;}
	.st9{fill:#E64A19;}
</style>
<rect x="7.1" y="2" class="st0" width="33.7" height="44"/>
<rect x="7.1" y="2" class="st1" width="35.7" height="46"/>
<rect x="8.1" y="3" class="st2" width="33.7" height="44"/>
<rect x="8.1" y="3" class="st3" width="31.7" height="42"/>
<g>
	
		<linearGradient id="SVGID_1_" gradientUnits="userSpaceOnUse" x1="107.1502" y1="1611.3008" x2="107.1502" y2="1570.3008" gradientTransform="matrix(1 0 0 1 -83.2002 -1566.8008)">
		<stop  offset="0" style="stop-color:#EE6F0B"/>
		<stop  offset="1" style="stop-color:#FFB74D"/>
	</linearGradient>
	<rect x="8.6" y="3.5" class="st4" width="30.7" height="41"/>
	<g class="st5">
		<rect x="12.6" y="19.3" class="st6" width="3.3" height="16.4"/>
		<rect x="18.1" y="27.5" class="st6" width="3.3" height="8.2"/>
		<rect x="23.6" y="30.8" class="st6" width="3.3" height="4.9"/>
		<g>
			<path class="st6" d="M28,16.4v6.5h6.5c0,3.6-2.9,6.6-6.5,6.6s-6.6-2.9-6.6-6.5C21.5,19.3,24.4,16.4,28,16.4z"/>
			<path class="st6" d="M28.8,15.6c3.6,0,6.6,2.9,6.6,6.5h-6.5L28.8,15.6z"/>
		</g>
	</g>
	<g>
		<rect x="8.6" y="3.5" class="st7" width="30.7" height="7.9"/>
		<g class="st8">
			<path class="st9" d="M17,4.3c1,0,1.7,0.2,2.2,0.5C19.7,5.1,20,5.6,20,6.3s-0.3,1.3-0.8,1.6S17.9,8.4,17,8.4h-0.5v2H15v-6
				c0.3-0.1,0.6-0.1,1-0.1C16.4,4.3,16.7,4.3,17,4.3z M17.1,5.4c-0.1,0-0.2,0-0.3,0c-0.1,0-0.2,0-0.3,0v1.8H17
				c0.5,0,0.9-0.1,1.1-0.2c0.3-0.1,0.4-0.4,0.4-0.7c0-0.2,0-0.3-0.1-0.4s-0.2-0.2-0.3-0.3c-0.1-0.1-0.3-0.1-0.4-0.1
				C17.5,5.4,17.3,5.4,17.1,5.4z"/>
			<path class="st9" d="M27.2,7.4c0,0.5-0.1,1-0.2,1.4c-0.2,0.4-0.4,0.7-0.7,1c-0.3,0.3-0.6,0.5-1,0.6s-0.8,0.2-1.3,0.2
				c-0.4,0-0.9-0.1-1.2-0.2c-0.4-0.1-0.7-0.3-1-0.6s-0.5-0.6-0.7-1s-0.3-0.9-0.3-1.4s0.1-1,0.3-1.4c0.2-0.4,0.4-0.7,0.7-1
				c0.3-0.3,0.6-0.5,1-0.6s0.8-0.2,1.2-0.2c0.4,0,0.9,0.1,1.2,0.2c0.4,0.1,0.7,0.3,1,0.6c0.3,0.3,0.5,0.6,0.7,1
				C27.1,6.4,27.2,6.9,27.2,7.4z M22.3,7.4c0,0.3,0,0.6,0.1,0.8s0.2,0.4,0.3,0.6C22.9,9,23,9.1,23.2,9.2c0.2,0.1,0.5,0.1,0.7,0.1
				c0.3,0,0.5,0,0.7-0.1S25,9,25.1,8.8s0.3-0.4,0.3-0.6c0.1-0.2,0.1-0.5,0.1-0.8s0-0.6-0.1-0.8S25.2,6.1,25.1,6
				c-0.1-0.2-0.3-0.3-0.5-0.4s-0.5-0.1-0.7-0.1c-0.3,0-0.5,0-0.7,0.1S22.8,5.8,22.7,6c-0.1,0.2-0.3,0.4-0.3,0.6
				C22.3,6.8,22.3,7.1,22.3,7.4z"/>
			<path class="st9" d="M33,4.3v1.2h-2v4.9h-1.4V5.5h-1.9V4.3H33z"/>
		</g>
	</g>
</g>
</svg>
