<?xml version="1.0" encoding="utf-8"?>
<!-- Generator: Adobe Illustrator 16.0.0, SVG Export Plug-In . SVG Version: 6.00 Build 0)  -->
<!DOCTYPE svg PUBLIC "-//W3C//DTD SVG 1.1//EN" "http://www.w3.org/Graphics/SVG/1.1/DTD/svg11.dtd">
<svg version="1.1" id="图层_1" xmlns="http://www.w3.org/2000/svg" xmlns:xlink="http://www.w3.org/1999/xlink" x="0px" y="0px"
	 width="48px" height="48px" viewBox="0 0 48 48" enable-background="new 0 0 48 48" xml:space="preserve">
<g id="surface1">
	<polygon opacity="0.2" enable-background="new    " points="7.25,46 7.25,2 40.75,2 40.75,33.602 28.352,46 	"/>
	<polygon opacity="0.08" enable-background="new    " points="7.25,48 7.25,2 42.75,2 42.75,35.016 29.766,48 	"/>
	<polygon opacity="0.1" enable-background="new    " points="8.25,47 8.25,3 41.75,3 41.75,34.602 29.352,47 	"/>
</g>
<g>
	
		<linearGradient id="SVGID_1_" gradientUnits="userSpaceOnUse" x1="190.4004" y1="1598.9609" x2="190.4004" y2="1556.9609" gradientTransform="matrix(1 0 0 1 -166.4004 -1553.9609)">
		<stop  offset="0" style="stop-color:#512DA8"/>
		<stop  offset="0.008" style="stop-color:#512DA8"/>
		<stop  offset="0.0504" style="stop-color:#5733AB"/>
		<stop  offset="0.2927" style="stop-color:#7250BA"/>
		<stop  offset="0.5337" style="stop-color:#8564C4"/>
		<stop  offset="0.771" style="stop-color:#9171CB"/>
		<stop  offset="1" style="stop-color:#9575CD"/>
	</linearGradient>
	<path fill="url(#SVGID_1_)" d="M27.938,45L39.75,33.188V3H8.25v42H27.938z"/>
	<polygon fill="#512DA8" fill-opacity="0.3922" points="27.281,32.531 27.281,45 27.938,45 39.75,33.188 39.75,32.531 	"/>
	<path fill="#FFFFFF" fill-opacity="0.3922" d="M27.938,33.188H39.74L27.938,45V33.188z"/>
	<path opacity="0.8" fill="#FFFFFF" d="M23.123,13.5h1.754c2.625,0,3.061,3.081,3.061,3.081v3.061c0,1.033-2.189,3.135-2.189,3.135
		v1.03l3.502,2.03V27.9l-5.686,0.036H18.75v-2.061l3.502-2.064v-1.03c0,0-2.194-2.092-2.189-3.125v-3.061
		C20.063,16.596,20.498,13.5,23.123,13.5z"/>
	<g>
		<path fill="#311B92" d="M39.25,3.5v29.48L27.73,44.5h-8.98h-10v-41H39.25 M39.75,3H8.25v42h10.5h9.188L39.75,33.188V3L39.75,3z"/>
	</g>
</g>
</svg>
