<?xml version="1.0" encoding="iso-8859-1"?>
<!-- Generator: Adobe Illustrator 21.0.0, SVG Export Plug-In . SVG Version: 6.00 Build 0)  -->
<svg version="1.1" id="&#x5176;&#x4ED6;" xmlns="http://www.w3.org/2000/svg" xmlns:xlink="http://www.w3.org/1999/xlink" x="0px"
	 y="0px" viewBox="0 0 16 16" style="enable-background:new 0 0 16 16;" xml:space="preserve">
<title>画板 26</title>
<g id="&#x8033;&#x9EA6;">
	<g id="_16">
		
			<linearGradient id="SVGID_1_" gradientUnits="userSpaceOnUse" x1="10.4779" y1="2.3993" x2="5.4279" y2="17.8893" gradientTransform="matrix(1 0 0 -1 0 18)">
			<stop  offset="0" style="stop-color:#4DD0E1"/>
			<stop  offset="0.94" style="stop-color:#1976D2"/>
		</linearGradient>
		<circle style="fill:url(#SVGID_1_);" cx="8" cy="8" r="7.75"/>
		<path style="fill:#455A64;" d="M8,0.5c4.142,0,7.5,3.358,7.5,7.5s-3.358,7.5-7.5,7.5S0.5,12.142,0.5,8S3.858,0.5,8,0.5 M8,0
			C3.582,0,0,3.582,0,8s3.582,8,8,8s8-3.582,8-8S12.418,0,8,0z"/>
		<path style="opacity:0.2;enable-background:new    ;" d="M12.37,8.89c0.001-1.005-0.684-1.88-1.66-2.12
			c-0.034-0.442-0.142-0.874-0.32-1.28C9.973,4.551,9.027,3.961,8,4C6.97,3.957,6.018,4.548,5.6,5.49
			C5.422,5.896,5.314,6.328,5.28,6.77C4.109,7.05,3.387,8.227,3.667,9.398c0.237,0.989,1.126,1.683,2.143,1.672V7
			C5.824,6.559,5.923,6.124,6.1,5.72C6.401,4.946,7.172,4.459,8,4.52c0.828-0.061,1.599,0.426,1.9,1.2
			c0.177,0.404,0.276,0.839,0.29,1.28v4.1c0.203,0.001,0.405-0.026,0.6-0.08c-0.019,0.122-0.071,0.236-0.15,0.33
			c-0.102,0.105-0.244,0.159-0.39,0.15h-1c-0.098-0.135-0.253-0.217-0.42-0.22H7.75c-0.298,0-0.54,0.242-0.54,0.54l0,0
			c0,0.298,0.242,0.54,0.54,0.54h1.06C9.032,12.352,9.226,12.209,9.3,12h0.95c0.303,0.004,0.593-0.12,0.8-0.34
			c0.216-0.264,0.326-0.599,0.31-0.94l0,0C11.986,10.322,12.367,9.632,12.37,8.89z"/>
		
			<linearGradient id="SVGID_2_" gradientUnits="userSpaceOnUse" x1="7.989" y1="14.3417" x2="7.989" y2="5.9717" gradientTransform="matrix(1 0 0 -1 0 18)">
			<stop  offset="0.38" style="stop-color:#FFFFFF"/>
			<stop  offset="1" style="stop-color:#CCCCCC"/>
		</linearGradient>
		<path style="fill:url(#SVGID_2_);" d="M12.37,8.58c0.001-1.005-0.684-1.88-1.66-2.12c-0.034-0.442-0.142-0.874-0.32-1.28
			C9.983,4.229,9.034,3.626,8,3.66C6.963,3.622,6.009,4.226,5.6,5.18C5.422,5.586,5.314,6.018,5.28,6.46
			C4.109,6.74,3.387,7.917,3.667,9.088c0.237,0.989,1.126,1.683,2.143,1.672V6.67C5.827,6.236,5.925,5.808,6.1,5.41
			C6.401,4.636,7.172,4.149,8,4.21c0.828-0.061,1.599,0.426,1.9,1.2c0.172,0.399,0.267,0.826,0.28,1.26v4.1
			c0.203,0.001,0.405-0.026,0.6-0.08c-0.019,0.122-0.071,0.236-0.15,0.33c-0.102,0.105-0.244,0.159-0.39,0.15h-1
			C9.13,11.051,8.972,10.988,8.81,11H7.75c-0.298,0-0.54,0.242-0.54,0.54l0,0c0,0.298,0.242,0.54,0.54,0.54h1.06
			c0.21,0.001,0.401-0.12,0.49-0.31h0.95c0.303,0.004,0.593-0.12,0.8-0.34c0.216-0.264,0.326-0.599,0.31-0.94l0,0
			C12.011,10.077,12.395,9.35,12.37,8.58z"/>
		<ellipse style="opacity:0.24;fill:#FFFFFF;enable-background:new    ;" cx="7.96" cy="5.35" rx="5.67" ry="4.26"/>
	</g>
</g>
</svg>
