<?xml version="1.0" encoding="iso-8859-1"?>
<!-- Generator: Adobe Illustrator 21.0.0, SVG Export Plug-In . SVG Version: 6.00 Build 0)  -->
<svg version="1.1" id="&#x56FE;&#x5C42;_1" xmlns="http://www.w3.org/2000/svg" xmlns:xlink="http://www.w3.org/1999/xlink" x="0px"
	 y="0px" viewBox="0 0 16 16" style="enable-background:new 0 0 16 16;" xml:space="preserve">
<title>画板 26</title>
<g id="&#x5F00;&#x59CB;&#x83DC;&#x5355;&#x5E94;&#x7528;&#x56FE;&#x6807;">
	<g id="&#x97F3;&#x9891;&#x7F16;&#x8F91;&#x5668;">
		<g id="_16">
			
				<linearGradient id="SVGID_1_" gradientUnits="userSpaceOnUse" x1="8" y1="2.5" x2="8" y2="17.5" gradientTransform="matrix(1 0 0 -1 0 18)">
				<stop  offset="0" style="stop-color:#CFD8DC"/>
				<stop  offset="1" style="stop-color:#FFFFFF"/>
			</linearGradient>
			<path style="fill:url(#SVGID_1_);" d="M14.88,11c0.836-1.913,0.836-4.087,0-6c-0.157-1.083-0.394-2.152-0.71-3.2
				C13.131,1.496,12.072,1.269,11,1.12c-1.913-0.836-4.087-0.836-6,0C3.917,1.278,2.848,1.515,1.8,1.83
				C1.496,2.869,1.269,3.928,1.12,5c-0.836,1.913-0.836,4.087,0,6c0.157,1.083,0.395,2.152,0.71,3.2
				c1.048,0.316,2.117,0.553,3.2,0.71c1.912,0.837,4.088,0.837,6,0c1.083-0.157,2.152-0.394,3.2-0.71
				C14.525,13.151,14.743,12.081,14.88,11z"/>
			<rect x="2" y="2" style="fill:#C9D3D7;" width="1" height="1"/>
			<rect x="13" y="2" style="fill:#C9D3D7;" width="1" height="1"/>
			<rect x="2" y="13" style="fill:#A1B2B7;" width="1" height="1"/>
			<rect x="13" y="13" style="fill:#A1B2B7;" width="1" height="1"/>
			
				<linearGradient id="SVGID_2_" gradientUnits="userSpaceOnUse" x1="8" y1="3.5" x2="8" y2="16.5" gradientTransform="matrix(1 0 0 -1 0 18)">
				<stop  offset="0" style="stop-color:#263238"/>
				<stop  offset="1" style="stop-color:#607D8B"/>
			</linearGradient>
			<circle style="fill:url(#SVGID_2_);" cx="8" cy="8" r="6.5"/>
			
				<linearGradient id="SVGID_3_" gradientUnits="userSpaceOnUse" x1="8" y1="5.09" x2="8" y2="14.91" gradientTransform="matrix(1 0 0 -1 0 18)">
				<stop  offset="0" style="stop-color:#000000"/>
				<stop  offset="1" style="stop-color:#333333"/>
			</linearGradient>
			<circle style="fill:url(#SVGID_3_);" cx="8" cy="8" r="4.91"/>
			
				<linearGradient id="SVGID_4_" gradientUnits="userSpaceOnUse" x1="8" y1="5.84" x2="8" y2="14.16" gradientTransform="matrix(1 0 0 -1 0 18)">
				<stop  offset="0" style="stop-color:#90A4AE"/>
				<stop  offset="1" style="stop-color:#E0E0E0"/>
			</linearGradient>
			<circle style="fill:url(#SVGID_4_);" cx="8" cy="8" r="4.15"/>
			
				<linearGradient id="SVGID_5_" gradientUnits="userSpaceOnUse" x1="8" y1="8.47" x2="8" y2="11.53" gradientTransform="matrix(1 0 0 -1 0 18)">
				<stop  offset="0" style="stop-color:#000000"/>
				<stop  offset="1" style="stop-color:#333333"/>
			</linearGradient>
			<circle style="fill:url(#SVGID_5_);" cx="8" cy="8" r="1.53"/>
			<path style="fill:#455A64;" d="M8,0.5c1.032-0.003,2.054,0.208,3,0.62c1.083,0.157,2.152,0.395,3.2,0.71
				c0.304,1.039,0.531,2.098,0.68,3.17c0.836,1.913,0.836,4.087,0,6c-0.157,1.083-0.394,2.152-0.71,3.2
				c-1.048,0.316-2.117,0.553-3.2,0.71c-1.912,0.837-4.088,0.837-6,0c-1.083-0.157-2.152-0.394-3.2-0.71
				c-0.295-1.049-0.512-2.119-0.65-3.2c-0.836-1.913-0.836-4.087,0-6c0.157-1.083,0.395-2.152,0.71-3.2
				C2.869,1.497,3.928,1.269,5,1.12C5.947,0.709,6.968,0.497,8,0.5 M8,0C6.932,0,5.874,0.214,4.89,0.63
				c-1.083,0.163-2.152,0.404-3.2,0.72L1.43,1.43L1.35,1.69c-0.316,1.048-0.557,2.117-0.72,3.2c-0.842,1.991-0.842,4.239,0,6.23
				c0.163,1.083,0.404,2.152,0.72,3.2l0.08,0.26l0.26,0.08c1.051,0.317,2.124,0.558,3.21,0.72c1.988,0.839,4.232,0.839,6.22,0
				c1.086-0.162,2.159-0.402,3.21-0.72l0.26-0.08l0.08-0.26c0.317-1.048,0.557-2.117,0.72-3.2c0.842-1.991,0.842-4.239,0-6.23
				c-0.163-1.083-0.403-2.152-0.72-3.2l-0.08-0.26l-0.26-0.08c-1.048-0.316-2.117-0.557-3.2-0.72C10.14,0.212,9.075-0.002,8,0z"/>
		</g>
	</g>
</g>
</svg>
