<svg id="其他" xmlns="http://www.w3.org/2000/svg" xmlns:xlink="http://www.w3.org/1999/xlink" viewBox="0 0 16 16"><defs><style>.cls-1{fill:url(#未命名的渐变_158);}.cls-2{fill:#455a64;}.cls-3{opacity:0.2;}.cls-4{fill:url(#linear-gradient);}.cls-5{fill:#fff;opacity:0.24;}</style><linearGradient id="未命名的渐变_158" x1="10.48" y1="15.6" x2="5.43" y2="0.11" gradientUnits="userSpaceOnUse"><stop offset="0.06" stop-color="#4dd0e1"/><stop offset="1" stop-color="#0097a7"/></linearGradient><linearGradient id="linear-gradient" x1="8" y1="3.71" x2="8" y2="12.29" gradientUnits="userSpaceOnUse"><stop offset="0.38" stop-color="#fff"/><stop offset="1" stop-color="#ccc"/></linearGradient></defs><title>画板 26</title><g id="麦克风"><g id="_16" data-name="16"><circle class="cls-1" cx="8" cy="8" r="7.75"/><path class="cls-2" d="M8,.5A7.5,7.5,0,1,1,.5,8,7.5,7.5,0,0,1,8,.5M8,0a8,8,0,1,0,8,8A8,8,0,0,0,8,0Z"/><path class="cls-3" d="M7.94,4.07A1.77,1.77,0,0,0,6.17,5.85V8.58a1.77,1.77,0,1,0,3.55,0V5.85A1.77,1.77,0,0,0,7.94,4.07ZM5.13,8.35s0,3.15,2.58,3.14v.59H6.85v.57H9.15v-.57H8.29v-.59c2.85-.18,2.58-3.14,2.58-3.14h-.58s0,2.58-2.29,2.58S5.71,8.35,5.71,8.35Z"/><path class="cls-4" d="M7.94,3.71A1.77,1.77,0,0,0,6.17,5.49V8.22a1.77,1.77,0,0,0,3.55,0V5.49A1.77,1.77,0,0,0,7.94,3.71ZM5.13,8s0,3.15,2.58,3.14v.59H6.85v.57H9.15v-.57H8.29v-.59C11.13,10.95,10.86,8,10.86,8h-.58s0,2.58-2.29,2.58S5.71,8,5.71,8Z"/><ellipse class="cls-5" cx="7.96" cy="5.35" rx="5.67" ry="4.26"/></g></g></svg>