<?xml version="1.0" encoding="iso-8859-1"?>
<!-- Generator: Adobe Illustrator 21.0.0, SVG Export Plug-In . SVG Version: 6.00 Build 0)  -->
<svg version="1.1" id="&#x5176;&#x4ED6;" xmlns="http://www.w3.org/2000/svg" xmlns:xlink="http://www.w3.org/1999/xlink" x="0px"
	 y="0px" viewBox="0 0 16 16" style="enable-background:new 0 0 16 16;" xml:space="preserve">
<title>画板 26</title>
<g id="&#x7535;&#x6C60;">
	<path style="fill:#455A64;" d="M10.21,1V0.46C10.179,0.176,9.924-0.029,9.64,0H6.36C6.075-0.035,5.816,0.168,5.781,0.453
		c0,0.002-0.001,0.005-0.001,0.007v0.49H3.3V16h9.4V1H10.21z"/>
	
		<linearGradient id="SVGID_1_" gradientUnits="userSpaceOnUse" x1="3.55" y1="2.535" x2="12.49" y2="2.535" gradientTransform="matrix(1 0 0 -1 0 18)">
		<stop  offset="0" style="stop-color:#ADC1C9"/>
		<stop  offset="1" style="stop-color:#6C91A3"/>
	</linearGradient>
	<rect x="3.55" y="15.18" style="fill:url(#SVGID_1_);" width="8.89" height="0.57"/>
	
		<linearGradient id="SVGID_2_" gradientUnits="userSpaceOnUse" x1="6.04" y1="17.25" x2="9.98" y2="17.25" gradientTransform="matrix(1 0 0 -1 0 18)">
		<stop  offset="0" style="stop-color:#CDE0E8"/>
		<stop  offset="1" style="stop-color:#90A4AE"/>
	</linearGradient>
	<path style="fill:url(#SVGID_2_);" d="M9.64,0.25H6.36C6.18,0.25,6,0.35,6,0.46v0.79h4V0.46C10,0.35,9.82,0.25,9.64,0.25z"/>
	
		<linearGradient id="SVGID_3_" gradientUnits="userSpaceOnUse" x1="6.04" y1="17.12" x2="9.98" y2="17.12" gradientTransform="matrix(1 0 0 -1 0 18)">
		<stop  offset="0" style="stop-color:#ADC1C9"/>
		<stop  offset="1" style="stop-color:#6C91A3"/>
	</linearGradient>
	<path style="fill:url(#SVGID_3_);" d="M9.64,0.38H6.36C6.18,0.38,6,0.47,6,0.59v0.79h4V0.59C10,0.47,9.82,0.38,9.64,0.38z"/>
	
		<linearGradient id="SVGID_4_" gradientUnits="userSpaceOnUse" x1="3.55" y1="16.385" x2="12.49" y2="16.385" gradientTransform="matrix(1 0 0 -1 0 18)">
		<stop  offset="0" style="stop-color:#ADC1C9"/>
		<stop  offset="1" style="stop-color:#6C91A3"/>
	</linearGradient>
	<rect x="3.55" y="1.2" style="fill:url(#SVGID_4_);" width="8.89" height="0.83"/>
	
		<linearGradient id="SVGID_5_" gradientUnits="userSpaceOnUse" x1="3.73" y1="16.75" x2="12.27" y2="16.75" gradientTransform="matrix(1 0 0 -1 0 18)">
		<stop  offset="0" style="stop-color:#CDE0E8"/>
		<stop  offset="1" style="stop-color:#90A4AE"/>
	</linearGradient>
	<rect x="3.55" y="1.2" style="fill:url(#SVGID_5_);" width="8.89" height="0.1"/>
	
		<linearGradient id="SVGID_6_" gradientUnits="userSpaceOnUse" x1="7.995" y1="2.97" x2="7.995" y2="15.86" gradientTransform="matrix(1 0 0 -1 0 18)">
		<stop  offset="0.24" style="stop-color:#689F38"/>
		<stop  offset="0.94" style="stop-color:#8BC34A"/>
	</linearGradient>
	<rect x="3.55" y="2.09" style="fill:url(#SVGID_6_);" width="8.89" height="13.05"/>
	<rect x="5.26" y="1.2" style="opacity:0.24;fill:#FFFFFF;enable-background:new    ;" width="2.32" height="14.55"/>
	<rect x="6.64" y="0.25" style="opacity:0.24;fill:#FFFFFF;enable-background:new    ;" width="1.5" height="0.95"/>
	
		<linearGradient id="SVGID_7_" gradientUnits="userSpaceOnUse" x1="3.55" y1="2.905" x2="12.45" y2="2.905" gradientTransform="matrix(1 0 0 -1 0 18)">
		<stop  offset="0" style="stop-color:#DCE775"/>
		<stop  offset="1" style="stop-color:#AED581"/>
	</linearGradient>
	<rect x="3.55" y="15.05" style="fill:url(#SVGID_7_);" width="8.89" height="0.09"/>
	
		<linearGradient id="SVGID_8_" gradientUnits="userSpaceOnUse" x1="3.55" y1="2.815" x2="12.45" y2="2.815" gradientTransform="matrix(1 0 0 -1 0 18)">
		<stop  offset="0" style="stop-color:#F6F7F7"/>
		<stop  offset="0.12" style="stop-color:#DEDEDE"/>
		<stop  offset="0.24" style="stop-color:#F5F4F4"/>
		<stop  offset="0.56" style="stop-color:#F5F4F4"/>
		<stop  offset="0.61" style="stop-color:#E1E3DF"/>
		<stop  offset="0.88" style="stop-color:#9F9E9B"/>
		<stop  offset="0.92" style="stop-color:#CED1CD"/>
		<stop  offset="1" style="stop-color:#F6F7F7"/>
	</linearGradient>
	<rect x="3.55" y="15.14" style="fill:url(#SVGID_8_);" width="8.89" height="0.09"/>
	
		<linearGradient id="SVGID_9_" gradientUnits="userSpaceOnUse" x1="3.55" y1="2.815" x2="12.45" y2="2.815" gradientTransform="matrix(1 0 0 -1 0 18)">
		<stop  offset="0" style="stop-color:#CDE0E8"/>
		<stop  offset="1" style="stop-color:#90A4AE"/>
	</linearGradient>
	<rect x="3.55" y="15.14" style="fill:url(#SVGID_9_);" width="8.89" height="0.09"/>
	
		<linearGradient id="SVGID_10_" gradientUnits="userSpaceOnUse" x1="3.55" y1="15.925" x2="12.45" y2="15.925" gradientTransform="matrix(1 0 0 -1 0 18)">
		<stop  offset="0" style="stop-color:#90A4AE"/>
		<stop  offset="1" style="stop-color:#607D8B"/>
	</linearGradient>
	<rect x="3.55" y="2.03" style="fill:url(#SVGID_10_);" width="8.89" height="0.09"/>
	
		<linearGradient id="SVGID_11_" gradientUnits="userSpaceOnUse" x1="3.55" y1="15.845" x2="12.45" y2="15.845" gradientTransform="matrix(1 0 0 -1 0 18)">
		<stop  offset="0" style="stop-color:#DCE775"/>
		<stop  offset="1" style="stop-color:#AED581"/>
	</linearGradient>
	<rect x="3.55" y="2.11" style="fill:url(#SVGID_11_);" width="8.89" height="0.09"/>
	<g>
		<polygon style="fill:#33691E;" points="8.29,3.21 9.36,4.28 7.23,4.28 		"/>
		<polygon style="fill:#33691E;" points="8.06,5.13 8.53,5.13 8.53,6.24 9.64,6.24 9.64,6.71 8.53,6.71 8.53,7.82 8.06,7.82 
			8.06,6.71 6.95,6.71 6.95,6.24 8.06,6.24 		"/>
	</g>
	<polygon style="fill:#DCEDC8;" points="7.98,2.91 9.05,3.98 6.92,3.98 	"/>
	<polygon style="fill:#DCEDC8;" points="7.75,4.83 8.22,4.83 8.22,5.93 9.32,5.93 9.32,6.41 8.22,6.41 8.22,7.51 7.75,7.51 
		7.75,6.41 6.64,6.41 6.64,5.93 7.75,5.93 	"/>
</g>
</svg>
