<?xml version="1.0" encoding="iso-8859-1"?>
<!-- Generator: Adobe Illustrator 21.0.0, SVG Export Plug-In . SVG Version: 6.00 Build 0)  -->
<svg version="1.1" id="&#x56FE;&#x5C42;_1" xmlns="http://www.w3.org/2000/svg" xmlns:xlink="http://www.w3.org/1999/xlink" x="0px"
	 y="0px" viewBox="0 0 16 16" style="enable-background:new 0 0 16 16;" xml:space="preserve">
<title>画板 26</title>
<g id="&#x5F00;&#x59CB;&#x83DC;&#x5355;&#x5E94;&#x7528;&#x56FE;&#x6807;">
	<g id="&#x7167;&#x76F8;&#x673A;">
		<g id="_16">
			<path style="fill:#455A64;" d="M4.21,3.44v0.3H4.7v1h2.85v-0.6c0.005-0.197,0.163-0.355,0.36-0.36h6.59v3H15
				c0.301,0.041,0.512,0.318,0.471,0.619C15.438,7.644,15.245,7.837,15,7.87h-0.45v4.75h-13V7.81H1
				C0.699,7.769,0.488,7.492,0.529,7.191C0.562,6.946,0.755,6.753,1,6.72h0.42v-2h1.24v-1h0.49v-0.3h1.06 M15,7.53
				c0.144,0,0.26-0.116,0.26-0.26c0-0.144-0.116-0.26-0.26-0.26c-0.144,0-0.26,0.116-0.26,0.26l0,0C14.74,7.414,14.856,7.53,15,7.53
				L15,7.53 M1,7.53c0.144,0,0.26-0.116,0.26-0.26c0-0.144-0.116-0.26-0.26-0.26S0.74,7.126,0.74,7.27c0,0,0,0,0,0
				C0.74,7.414,0.856,7.53,1,7.53 M4.71,2.94H2.64v0.3H2.16v1H1v2c-0.572,0-1.035,0.463-1.035,1.035S0.428,8.31,1,8.31v4.75h14V8.31
				c0.577,0,1.045-0.468,1.045-1.045S15.577,6.22,15,6.22v-3H7.92C7.447,3.225,7.065,3.607,7.06,4.08v0.1H5.19v-1H4.71v-0.3V2.94z"
				/>
			
				<linearGradient id="SVGID_1_" gradientUnits="userSpaceOnUse" x1="0.5" y1="10.735" x2="2" y2="10.735" gradientTransform="matrix(1 0 0 -1 0 18)">
				<stop  offset="0" style="stop-color:#E0E0E0"/>
				<stop  offset="1" style="stop-color:#9E9E9E"/>
			</linearGradient>
			<path style="fill:url(#SVGID_1_);" d="M1,6.72C0.699,6.679,0.422,6.89,0.381,7.191s0.17,0.578,0.471,0.619
				C0.901,7.817,0.951,7.817,1,7.81h1V6.72H1z M1,7.53c-0.144,0-0.26-0.116-0.26-0.26c0-0.144,0.116-0.26,0.26-0.26
				s0.26,0.116,0.26,0.26C1.26,7.414,1.144,7.53,1,7.53C1,7.53,1,7.53,1,7.53z"/>
			
				<linearGradient id="SVGID_2_" gradientUnits="userSpaceOnUse" x1="14" y1="10.735" x2="15.5" y2="10.735" gradientTransform="matrix(1 0 0 -1 0 18)">
				<stop  offset="0" style="stop-color:#9E9E9E"/>
				<stop  offset="1" style="stop-color:#E0E0E0"/>
			</linearGradient>
			<path style="fill:url(#SVGID_2_);" d="M14,6.72v1.09h1c0.301,0.041,0.578-0.17,0.619-0.471s-0.17-0.578-0.471-0.619
				c-0.049-0.007-0.099-0.007-0.148,0H14z M14.69,7.27c0-0.144,0.116-0.26,0.26-0.26c0.144,0,0.26,0.116,0.26,0.26
				c0,0.144-0.116,0.26-0.26,0.26l0,0C14.806,7.53,14.69,7.414,14.69,7.27c0-0.003,0-0.007,0-0.01V7.27z"/>
			
				<radialGradient id="SVGID_3_" cx="4109.96" cy="-540.31" r="31.89" gradientTransform="matrix(0.16 0 0 -0.16 -648.71 -77.96)" gradientUnits="userSpaceOnUse">
				<stop  offset="0" style="stop-color:#000000"/>
				<stop  offset="1" style="stop-color:#212121"/>
			</radialGradient>
			<rect x="1.46" y="5.68" style="fill:url(#SVGID_3_);" width="13.04" height="6.06"/>
			
				<radialGradient id="SVGID_4_" cx="4109.96" cy="-560.34" r="28.92" gradientTransform="matrix(0.16 0 0 -0.16 -648.71 -77.96)" gradientUnits="userSpaceOnUse">
				<stop  offset="0.36" style="stop-color:#E0E0E0"/>
				<stop  offset="0.53" style="stop-color:#DCDCDC"/>
				<stop  offset="0.68" style="stop-color:#D2D2D2"/>
				<stop  offset="0.82" style="stop-color:#BFBFBF"/>
				<stop  offset="0.96" style="stop-color:#A6A6A6"/>
				<stop  offset="1" style="stop-color:#9E9E9E"/>
			</radialGradient>
			<rect x="1.46" y="11.74" style="fill:url(#SVGID_4_);" width="13.04" height="0.33"/>
			<rect x="1.46" y="12.07" style="fill:#212121;" width="13.04" height="0.49"/>
			
				<radialGradient id="SVGID_5_" cx="1794.71" cy="478.69" r="44.83" gradientTransform="matrix(1 0 0 -1 0 18)" gradientUnits="userSpaceOnUse">
				<stop  offset="0.36" style="stop-color:#E0E0E0"/>
				<stop  offset="0.53" style="stop-color:#DCDCDC"/>
				<stop  offset="0.68" style="stop-color:#D2D2D2"/>
				<stop  offset="0.82" style="stop-color:#BFBFBF"/>
				<stop  offset="0.96" style="stop-color:#A6A6A6"/>
				<stop  offset="1" style="stop-color:#9E9E9E"/>
			</radialGradient>
			<rect x="1.46" y="5.87" style="fill:url(#SVGID_5_);" width="13.04" height="0.49"/>
			
				<radialGradient id="SVGID_6_" cx="1794.71" cy="487.5" r="51.69" gradientTransform="matrix(1 0 0 -1 0 18)" gradientUnits="userSpaceOnUse">
				<stop  offset="0.36" style="stop-color:#E0E0E0"/>
				<stop  offset="0.53" style="stop-color:#DCDCDC"/>
				<stop  offset="0.68" style="stop-color:#D2D2D2"/>
				<stop  offset="0.82" style="stop-color:#BFBFBF"/>
				<stop  offset="0.96" style="stop-color:#A6A6A6"/>
				<stop  offset="1" style="stop-color:#9E9E9E"/>
			</radialGradient>
			<path style="fill:url(#SVGID_6_);" d="M12.62,3.75h-4.7C7.723,3.755,7.565,3.913,7.56,4.11v0.6h-6.1v1h13V3.75H12.62z"/>
			<rect x="12.51" y="4.24" style="fill:#607D8B;" width="1.04" height="1.03"/>
			
				<linearGradient id="SVGID_7_" gradientUnits="userSpaceOnUse" x1="3.68" y1="13.29" x2="3.68" y2="14.25" gradientTransform="matrix(1 0 0 -1 0 18)">
				<stop  offset="0" style="stop-color:#90A4AE"/>
				<stop  offset="1" style="stop-color:#CFD8DC"/>
			</linearGradient>
			<rect x="2.66" y="3.75" style="fill:url(#SVGID_7_);" width="2.04" height="0.96"/>
			<rect x="3.14" y="3.44" style="fill:#F44336;" width="1.06" height="0.3"/>
			
				<linearGradient id="SVGID_8_" gradientUnits="userSpaceOnUse" x1="3.37" y1="9.055" x2="5.55" y2="9.055" gradientTransform="matrix(1 0 0 -1 0 18)">
				<stop  offset="0" style="stop-color:#E0E0E0"/>
				<stop  offset="1" style="stop-color:#9E9E9E"/>
			</linearGradient>
			<path style="fill:url(#SVGID_8_);" d="M4.14,8.18C3.718,8.228,3.414,8.61,3.463,9.033C3.503,9.388,3.784,9.669,4.14,9.71h1.41
				V8.18H4.14z M4.14,9.41c-0.254,0-0.46-0.206-0.46-0.46s0.206-0.46,0.46-0.46S4.6,8.696,4.6,8.95S4.394,9.41,4.14,9.41L4.14,9.41z
				"/>
			<circle style="fill:#2B2B2B;" cx="7.94" cy="8.95" r="3.04"/>
			
				<linearGradient id="SVGID_9_" gradientUnits="userSpaceOnUse" x1="7.94" y1="6.8" x2="7.94" y2="11.3" gradientTransform="matrix(1 0 0 -1 0 18)">
				<stop  offset="0" style="stop-color:#9E9E9E"/>
				<stop  offset="1" style="stop-color:#E0E0E0"/>
			</linearGradient>
			<circle style="fill:url(#SVGID_9_);" cx="7.94" cy="8.95" r="2.25"/>
			<circle style="fill:#FFFFFF;" cx="7.94" cy="8.95" r="1.13"/>
			<circle style="fill:#7F7F7F;" cx="7.94" cy="8.95" r="1.03"/>
			<g>
				<defs>
					<circle id="SVGID_10_" cx="7.94" cy="8.95" r="3.04"/>
				</defs>
				<clipPath id="SVGID_11_">
					<use xlink:href="#SVGID_10_"  style="overflow:visible;"/>
				</clipPath>
				<g style="clip-path:url(#SVGID_11_);">
					<polygon style="opacity:0.23;fill:#EEE8D5;enable-background:new    ;" points="12.12,12.4 7.01,12.4 9.1,4.66 12.12,4.66 
											"/>
				</g>
			</g>
			<circle style="fill:#F44336;" cx="9.87" cy="4.75" r="0.52"/>
		</g>
	</g>
</g>
</svg>
