<?xml version="1.0" encoding="iso-8859-1"?>
<!-- Generator: Adobe Illustrator 21.0.0, SVG Export Plug-In . SVG Version: 6.00 Build 0)  -->
<svg version="1.1" id="&#x5176;&#x4ED6;" xmlns="http://www.w3.org/2000/svg" xmlns:xlink="http://www.w3.org/1999/xlink" x="0px"
	 y="0px" viewBox="0 0 16 16" style="enable-background:new 0 0 16 16;" xml:space="preserve">
<title>画板 26</title>
<g id="&#x5149;&#x76D8;">
	<path style="fill:#01579B;" d="M8,16c-4.418,0-8-3.582-8-8s3.582-8,8-8s8,3.582,8,8S12.418,16,8,16z M8,7.25
		C7.586,7.25,7.25,7.586,7.25,8c0,0.414,0.336,0.75,0.75,0.75c0.414,0,0.75-0.336,0.75-0.75C8.75,7.586,8.414,7.25,8,7.25z"/>
	<path style="fill:#0288D1;" d="M8,0.5C3.858,0.5,0.5,3.858,0.5,8s3.358,7.5,7.5,7.5s7.5-3.358,7.5-7.5S12.142,0.5,8,0.5z M8,15.28
		c-4.021,0-7.28-3.259-7.28-7.28S3.979,0.72,8,0.72S15.28,3.979,15.28,8c0,0,0,0,0,0C15.274,12.018,12.018,15.274,8,15.28z"/>
	
		<radialGradient id="SVGID_1_" cx="39.995" cy="2.7517" r="6.54" gradientTransform="matrix(0.96 0 0 -0.96 -30.3 10.67)" gradientUnits="userSpaceOnUse">
		<stop  offset="0" style="stop-color:#4DD0E1"/>
		<stop  offset="0.39" style="stop-color:#40BEE7"/>
		<stop  offset="0.61" style="stop-color:#3FBDE7"/>
		<stop  offset="0.66" style="stop-color:#44C4E8"/>
		<stop  offset="0.75" style="stop-color:#2CBEE8"/>
		<stop  offset="1" style="stop-color:#2196F3"/>
	</radialGradient>
	<path style="fill:url(#SVGID_1_);" d="M8,1.75C4.548,1.75,1.75,4.548,1.75,8S4.548,14.25,8,14.25s6.25-2.798,6.25-6.25
		C14.244,4.551,11.449,1.756,8,1.75z M8,10.19c-1.21,0-2.19-0.98-2.19-2.19c0-1.21,0.98-2.19,2.19-2.19c1.21,0,2.19,0.98,2.19,2.19
		c0,0,0,0,0,0C10.19,9.21,9.21,10.19,8,10.19z"/>
	<g style="opacity:0.7;">
		<path style="fill:#FFFFFF;" d="M10.18,8.14L14,8.4h0.22c0.055-0.892-0.082-1.785-0.4-2.62L10,7.22
			C10.125,7.51,10.186,7.824,10.18,8.14z"/>
		<path style="fill:#FFFFFF;" d="M5.82,7.86L2,7.6H1.76c-0.053,0.889,0.083,1.778,0.4,2.61L6,8.78C5.875,8.49,5.814,8.176,5.82,7.86
			z"/>
	</g>
	<g style="opacity:0.7;">
		<path style="fill:#FFFFFF;" d="M9.89,6.9L13.21,5l0.18-0.13c-0.448-0.78-1.059-1.456-1.79-1.98L9.26,6.21
			C9.517,6.392,9.732,6.627,9.89,6.9z"/>
		<path style="fill:#FFFFFF;" d="M6.11,9.1L2.79,11l-0.18,0.13c0.448,0.78,1.059,1.456,1.79,1.98l2.34-3.32
			C6.483,9.608,6.268,9.373,6.11,9.1z"/>
	</g>
	<path style="fill:#F5F5F5;" d="M8,0.75C3.996,0.75,0.75,3.996,0.75,8S3.996,15.25,8,15.25s7.25-3.246,7.25-7.25
		C15.244,3.998,12.002,0.756,8,0.75z M8,14.22c-3.435,0-6.22-2.785-6.22-6.22c0-3.435,2.785-6.22,6.22-6.22
		c3.435,0,6.22,2.785,6.22,6.22C14.214,11.433,11.433,14.214,8,14.22z"/>
	<path style="fill:#0288D1;" d="M8,5.75C6.757,5.75,5.75,6.757,5.75,8S6.757,10.25,8,10.25S10.25,9.243,10.25,8S9.243,5.75,8,5.75z
		 M8,10c-1.105,0-2-0.895-2-2s0.895-2,2-2s2,0.895,2,2S9.105,10,8,10z"/>
	<path style="fill:#F5F5F5;" d="M8,6C6.895,6,6,6.895,6,8s0.895,2,2,2s2-0.895,2-2S9.105,6,8,6z M8,9C7.448,9,7,8.552,7,8
		s0.448-1,1-1s1,0.448,1,1S8.552,9,8,9z"/>
</g>
</svg>
