<svg id="其他" xmlns="http://www.w3.org/2000/svg" xmlns:xlink="http://www.w3.org/1999/xlink" viewBox="0 0 16 16"><defs><style>.cls-1{fill:#263238;}.cls-2{fill:url(#linear-gradient);}.cls-3{fill:#90a4ae;}.cls-4{fill:#293a3f;}.cls-5{fill:url(#linear-gradient-2);}.cls-6{fill:#eee8d5;opacity:0.23;isolation:isolate;}</style><linearGradient id="linear-gradient" x1="8" y1="2.29" x2="8" y2="10.91" gradientUnits="userSpaceOnUse"><stop offset="0" stop-color="#b3e5fc"/><stop offset="1" stop-color="#0288d1"/></linearGradient><linearGradient id="linear-gradient-2" x1="8" y1="1.39" x2="8" y2="12.18" gradientUnits="userSpaceOnUse"><stop offset="0" stop-color="#607d8b"/><stop offset="1" stop-color="#455a64"/></linearGradient></defs><title>画板 26</title><g id="电脑"><path class="cls-1" d="M3.79,15.11a1,1,0,0,1-1-1v-1H5.63v-.48H0V.89H16V12.68H10.38v.48h2.84v1a1,1,0,0,1-1,1Z"/><rect id="rect3008" class="cls-2" x="1.44" y="2.29" width="13.11" height="8.62"/><path class="cls-3" d="M12.21,13.66H3.29v.47a.49.49,0,0,0,.5.47h8.42a.49.49,0,0,0,.5-.47v-.47Z"/><rect class="cls-4" x="6.13" y="12.1" width="3.75" height="1.56"/><path class="cls-5" d="M.5,1.39V12.18h15V1.39Zm14.05,9.52H1.45V2.29H14.55Z"/><path id="rect3008-0" class="cls-6" d="M9.68,2.29,6.29,10.9h8.27V2.29Z"/></g></svg>