<svg xmlns="http://www.w3.org/2000/svg" xmlns:xlink="http://www.w3.org/1999/xlink" viewBox="0 0 16 16"><defs><style>.cls-1{fill:#263238;}.cls-2{fill:#e0e0e0;}.cls-3{fill:#9e9e9e;opacity:0.25;}.cls-3,.cls-5{isolation:isolate;}.cls-4{fill:#455a64;}.cls-5{fill:#fff;opacity:0.45;}.cls-6{fill:url(#linear-gradient);}.cls-7{fill:url(#linear-gradient-2);}.cls-8{fill:#616161;}</style><linearGradient id="linear-gradient" x1="-2180.75" y1="-3422.22" x2="-2180.75" y2="-3421.54" gradientTransform="matrix(1, 0, 0, -1, 2185.95, -3408.31)" gradientUnits="userSpaceOnUse"><stop offset="0" stop-color="#455a64"/><stop offset="0.21" stop-color="#36474f"/><stop offset="1"/></linearGradient><linearGradient id="linear-gradient-2" x1="-2173.09" y1="-3422.22" x2="-2173.09" y2="-3421.54" gradientTransform="matrix(1, 0, 0, -1, 2185.95, -3408.31)" gradientUnits="userSpaceOnUse"><stop offset="0" stop-color="#38a3e7"/><stop offset="1" stop-color="#1976d2"/></linearGradient></defs><title>画板 26</title><g id="开始菜单应用图标"><g id="硬盘"><g id="_16" data-name="16"><g id="g4"><g id="g6"><path id="path10" class="cls-1" d="M.5,12.39v2.27h15V12.39Z"/><polygon class="cls-2" points="15.32 11.4 13.38 1.34 2.18 1.38 0.65 11.4 15.32 11.4"/><polygon class="cls-3" points="15.32 11.4 13.38 1.34 9.46 1.34 7.16 11.4 15.32 11.4"/><polygon class="cls-4" points="0.65 11.4 0.5 12.39 15.5 12.39 15.32 11.4 0.65 11.4"/><polygon class="cls-5" points="3.1 11.4 3.6 1.38 2.71 1.38 1.2 11.4 3.1 11.4"/></g><g id="g12"><path id="path14" class="cls-6" d="M8.69,13.9h-7v-.7h7Z"/><path id="path16" class="cls-7" d="M12.31,13.9h1.1v-.7h-1.1Z"/></g><path class="cls-8" d="M13.38,1.34,15.32,11.4l.18,1v2.27H.5V12.39l.15-1,1.54-10h.54l6.74,0h3.92m.41-.5H9.06L2.72.88h-1l-.06.42-1.54,10-.15,1v2.84H16V12.3l-.18-1L13.87,1.25,13.79.84Z"/></g></g></g></g></svg>