<svg id="其他" xmlns="http://www.w3.org/2000/svg" xmlns:xlink="http://www.w3.org/1999/xlink" viewBox="0 0 16 16"><defs><style>.cls-1{fill:#1b5e20;}.cls-2{fill:url(#linear-gradient);}.cls-3,.cls-7{fill:#fff;}.cls-3{opacity:0.24;}.cls-3,.cls-4,.cls-5,.cls-7,.cls-8{isolation:isolate;}.cls-4{fill:#33691e;}.cls-5{fill:#dcedc8;}.cls-6{fill:#657b83;}.cls-7{opacity:0.31;}.cls-8{fill:#073642;opacity:0.65;}</style><linearGradient id="linear-gradient" x1="4.7" y1="11.9" x2="11.18" y2="0.79" gradientUnits="userSpaceOnUse"><stop offset="0.24" stop-color="#689f38"/><stop offset="0.94" stop-color="#8bc34a"/></linearGradient></defs><title>画板 26</title><g id="U盘"><g id="_16" data-name="16"><polygon class="cls-1" points="11.95 0 4.04 0 3.86 0 3.86 0.18 3.86 12.19 3.86 12.38 4.04 12.38 5.05 12.38 5.05 15.82 5.05 16 5.24 16 10.76 16 10.95 16 10.95 15.82 10.95 12.38 11.95 12.38 12.14 12.38 12.14 12.19 12.14 0.18 12.14 0 11.95 0"/><rect class="cls-2" x="4.25" y="0.5" width="7.5" height="11.48"/><rect class="cls-3" x="5.04" y="0.5" width="2.2" height="11.48"/><path id="path1334" class="cls-4" d="M6,5.73a.59.59,0,0,0,.39.53v.59a.81.81,0,0,0,.27.55h0l1.11.9a.35.35,0,0,1,.09.21v.52a.74.74,0,0,0-.57.68.78.78,0,0,0,.84.72A.79.79,0,0,0,9,9.76a.74.74,0,0,0-.57-.68V8.56h0s0,0,0,0V7.66a.34.34,0,0,1,.09-.2L9.09,7l.38-.31.13-.1,0,0h0A.81.81,0,0,0,10,6V5.42h.37V4.27H9V5.42h.38V6a.33.33,0,0,1-.09.21l-.88.72V3.7H9L8.17,2.35,7.31,3.7h.6V7.78L7,7.07a.35.35,0,0,1-.09-.21V6.26a.59.59,0,0,0,.41-.53.63.63,0,0,0-.67-.59A.63.63,0,0,0,6,5.73Z"/><path id="path1334-2" data-name="path1334" class="cls-5" d="M5.84,5.61a.59.59,0,0,0,.4.53v.59a.8.8,0,0,0,.27.55h0l1.11.9a.35.35,0,0,1,.09.21V9a.74.74,0,0,0-.57.68.78.78,0,0,0,.84.72.78.78,0,0,0,.84-.72A.74.74,0,0,0,8.28,9V8.44h0V7.54a.33.33,0,0,1,.09-.21l.55-.45.39-.31.13-.1,0,0h0a.81.81,0,0,0,.27-.55V5.3h.37V4.15H8.87V5.3h.37v.55a.33.33,0,0,1-.09.2l-.88.72V3.59h.58L8,2.24,7.14,3.59h.6V7.66L6.87,7a.35.35,0,0,1-.09-.21V6.15a.59.59,0,0,0,.41-.53A.63.63,0,0,0,6.51,5,.63.63,0,0,0,5.84,5.61Z"/><rect class="cls-6" x="5.42" y="12.37" width="5.17" height="3.25"/><rect id="rect3765" class="cls-7" x="6.11" y="12.37" width="1.89" height="3.25"/><rect id="rect3767" class="cls-8" x="8.63" y="13.68" width="1.26" height="1.27"/><rect id="rect3769" class="cls-8" x="6.11" y="13.68" width="1.26" height="1.27"/></g></g></svg>