<?xml version="1.0" encoding="utf-8"?>
<!-- Generator: Adobe Illustrator 21.0.0, SVG Export Plug-In . SVG Version: 6.00 Build 0)  -->
<svg version="1.1" id="其他" xmlns="http://www.w3.org/2000/svg" xmlns:xlink="http://www.w3.org/1999/xlink" x="0px" y="0px"
	 viewBox="0 0 16 16" style="enable-background:new 0 0 16 16;" xml:space="preserve">
<style type="text/css">
	.st0{fill:#01579B;}
	.st1{fill:#0288D1;}
	.st2{fill:url(#SVGID_1_);}
	.st3{opacity:0.7;}
	.st4{fill:#FFFFFF;}
	.st5{fill:#F5F5F5;}
</style>
<title>画板 26</title>
<g id="光盘">
	<path class="st0" d="M8,16c-4.4,0-8-3.6-8-8s3.6-8,8-8s8,3.6,8,8S12.4,16,8,16z M8,7.3C7.6,7.3,7.3,7.6,7.3,8
		c0,0.4,0.3,0.8,0.8,0.8c0.4,0,0.8-0.3,0.8-0.8C8.8,7.6,8.4,7.3,8,7.3z"/>
	<path class="st1" d="M8,0.5C3.9,0.5,0.5,3.9,0.5,8s3.4,7.5,7.5,7.5s7.5-3.4,7.5-7.5S12.1,0.5,8,0.5z M8,15.3C4,15.3,0.7,12,0.7,8
		S4,0.7,8,0.7S15.3,4,15.3,8l0,0C15.3,12,12,15.3,8,15.3z"/>
	
		<radialGradient id="SVGID_1_" cx="34.125" cy="797.54" r="6.5375" gradientTransform="matrix(0.96 0 0 0.96 -24.66 -757.61)" gradientUnits="userSpaceOnUse">
		<stop  offset="0" style="stop-color:#4DD0E1"/>
		<stop  offset="0.39" style="stop-color:#40BEE7"/>
		<stop  offset="0.61" style="stop-color:#3FBDE7"/>
		<stop  offset="0.66" style="stop-color:#44C4E8"/>
		<stop  offset="0.75" style="stop-color:#2CBEE8"/>
		<stop  offset="1" style="stop-color:#2196F3"/>
	</radialGradient>
	<path class="st2" d="M8,1.8C4.5,1.8,1.8,4.5,1.8,8s2.8,6.3,6.3,6.3s6.3-2.8,6.3-6.3C14.2,4.6,11.4,1.8,8,1.8z M8,10.2
		c-1.2,0-2.2-1-2.2-2.2s1-2.2,2.2-2.2s2.2,1,2.2,2.2l0,0C10.2,9.2,9.2,10.2,8,10.2z"/>
	<g class="st3">
		<path class="st4" d="M10.2,8.1L14,8.4h0.2c0.1-0.9-0.1-1.8-0.4-2.6L10,7.2C10.1,7.5,10.2,7.8,10.2,8.1z"/>
		<path class="st4" d="M5.8,7.9L2,7.6H1.8c-0.1,0.9,0.1,1.8,0.4,2.6L6,8.8C5.9,8.5,5.8,8.2,5.8,7.9z"/>
	</g>
	<g class="st3">
		<path class="st4" d="M9.9,6.9L13.2,5l0.2-0.1c-0.4-0.8-1.1-1.5-1.8-2L9.3,6.2C9.5,6.4,9.7,6.6,9.9,6.9z"/>
		<path class="st4" d="M6.1,9.1L2.8,11l-0.2,0.1c0.4,0.8,1.1,1.5,1.8,2l2.3-3.3C6.5,9.6,6.3,9.4,6.1,9.1z"/>
	</g>
	<path class="st5" d="M8,0.8C4,0.8,0.8,4,0.8,8S4,15.3,8,15.3S15.3,12,15.3,8C15.2,4,12,0.8,8,0.8z M8,14.2c-3.4,0-6.2-2.8-6.2-6.2
		S4.6,1.8,8,1.8s6.2,2.8,6.2,6.2S11.4,14.2,8,14.2z"/>
	<path class="st1" d="M8,5.8c-1.2,0-2.3,1-2.3,2.3s1,2.3,2.3,2.3s2.3-1,2.3-2.3S9.2,5.8,8,5.8z M8,10c-1.1,0-2-0.9-2-2s0.9-2,2-2
		s2,0.9,2,2S9.1,10,8,10z"/>
	<path class="st5" d="M8,6C6.9,6,6,6.9,6,8s0.9,2,2,2s2-0.9,2-2S9.1,6,8,6z M8,9C7.4,9,7,8.6,7,8s0.4-1,1-1s1,0.4,1,1S8.6,9,8,9z"/>
</g>
</svg>
