<svg id="其他" xmlns="http://www.w3.org/2000/svg" xmlns:xlink="http://www.w3.org/1999/xlink" viewBox="0 0 16 16"><defs><style>.cls-1{fill:#616161;}.cls-2{fill:#263238;}.cls-3,.cls-9{fill:#e0e0e0;}.cls-4{fill:#9e9e9e;opacity:0.25;}.cls-4,.cls-5,.cls-9{isolation:isolate;}.cls-5{fill:#fff;opacity:0.45;}.cls-6{fill:url(#linear-gradient);}.cls-7{fill:url(#linear-gradient-2);}.cls-8{fill:#949494;}.cls-9{opacity:0.86;}.cls-10{fill:#a5a5a5;}</style><linearGradient id="linear-gradient" x1="-3325.55" y1="2573.46" x2="-3325.55" y2="2572.77" gradientTransform="translate(3332.43 -2561.31)" gradientUnits="userSpaceOnUse"><stop offset="0" stop-color="#455a64"/><stop offset="0.21" stop-color="#36474f"/><stop offset="1"/></linearGradient><linearGradient id="linear-gradient-2" x1="-3318.38" y1="2573.46" x2="-3318.38" y2="2572.77" gradientTransform="translate(3332.43 -2561.31)" gradientUnits="userSpaceOnUse"><stop offset="0" stop-color="#38a3e7"/><stop offset="1" stop-color="#1976d2"/></linearGradient></defs><title>画板 26</title><g id="光驱"><path class="cls-1" d="M6.86,16a6,6,0,0,1-4.92-2.57H0V10.8l.16-1L1.77,0h12l2,9.78.18.93v2.72H11.78A6,6,0,0,1,6.86,16Z"/><g id="g4"><g id="g6"><path id="path10" class="cls-2" d="M.5,10.8v2.13h15V10.8Z"/><polygon class="cls-3" points="15.32 9.88 13.39 0.5 2.2 0.5 0.65 9.88 15.32 9.88"/><polygon class="cls-4" points="15.32 9.88 13.39 0.5 9.46 0.5 7.18 9.88 15.32 9.88"/><polygon class="cls-3" points="0.65 9.88 0.5 10.8 15.5 10.8 15.32 9.88 0.65 9.88"/><polygon class="cls-5" points="3.12 9.88 3.6 0.5 2.72 0.5 1.19 9.88 3.12 9.88"/></g><g id="g12"><path id="path14" class="cls-6" d="M12.3,12.15H1.45v-.69H12.3v.69Z"/><path id="path16" class="cls-7" d="M13.55,12.15h1v-.69h-1Z"/></g></g><path class="cls-3" d="M6.86,15.37a5.48,5.48,0,0,0,5.21-3.9h-.85a4.63,4.63,0,0,1-5.75,2.86l-.06.17-1.52-.35.36-.42a4.83,4.83,0,0,1-.69-.59l-.5.32-.78-.82.63-.32a4.83,4.83,0,0,1-.41-.84H1.65A5.49,5.49,0,0,0,6.86,15.37Z"/><path class="cls-8" d="M12.2,11.46h-.13a5.49,5.49,0,0,1-5.21,3.9,5.48,5.48,0,0,1-5.21-3.9H1.52a5.61,5.61,0,0,0,5.34,4A5.61,5.61,0,0,0,12.2,11.46Z"/><path class="cls-8" d="M4.54,11.46h-2a5.4,5.4,0,0,0,.41.84Z"/><path class="cls-8" d="M5.51,11.86,3.56,13.13a4.83,4.83,0,0,0,.69.59L5.7,12Z"/><path class="cls-8" d="M6.86,12.28a2.39,2.39,0,0,1-.64-.09l-.75,2.13a4.61,4.61,0,0,0,1.39.21,4.67,4.67,0,0,0,4.36-3.07H8.68A2.44,2.44,0,0,1,6.86,12.28Z"/><path class="cls-3" d="M3.89,14.14l1.52.35.06-.17a4.65,4.65,0,0,1-1.22-.6Z"/><path class="cls-9" d="M3.89,14.14l1.52.35.06-.17a4.65,4.65,0,0,1-1.22-.6Z"/><path class="cls-8" d="M5.7,12,4.25,13.71a4.63,4.63,0,0,0,1.22.6l.75-2.13A1.92,1.92,0,0,1,5.7,12Z"/><path class="cls-9" d="M5.7,12,4.25,13.71a4.63,4.63,0,0,0,1.22.6l.75-2.13A1.92,1.92,0,0,1,5.7,12Z"/><path class="cls-3" d="M2.28,12.63l.78.82.5-.32a4.64,4.64,0,0,1-.64-.82Z"/><path class="cls-9" d="M2.28,12.63l.78.82.5-.32a4.64,4.64,0,0,1-.64-.82Z"/><path class="cls-8" d="M3.55,13.13,5.5,11.86a2.6,2.6,0,0,1-.46-.4h-.5l-1.63.84A5.14,5.14,0,0,0,3.55,13.13Z"/><path class="cls-9" d="M3.55,13.13,5.5,11.86a2.6,2.6,0,0,1-.46-.4h-.5l-1.63.84A5.14,5.14,0,0,0,3.55,13.13Z"/><path class="cls-10" d="M5.51,11.86,5.7,12a2.43,2.43,0,0,0,3-.51H8.3a2.19,2.19,0,0,1-2.87,0H5A2.63,2.63,0,0,0,5.51,11.86Z"/><path class="cls-3" d="M6.86,12a2.17,2.17,0,0,0,1.44-.54H5.42A2.2,2.2,0,0,0,6.86,12Z"/></g></svg>