<?xml version="1.0" encoding="iso-8859-1"?>
<!-- Generator: Adobe Illustrator 21.0.0, SVG Export Plug-In . SVG Version: 6.00 Build 0)  -->
<svg version="1.1" id="&#x5176;&#x4ED6;" xmlns="http://www.w3.org/2000/svg" xmlns:xlink="http://www.w3.org/1999/xlink" x="0px"
	 y="0px" viewBox="0 0 16 16" style="enable-background:new 0 0 16 16;" xml:space="preserve">
<title>画板 26</title>
<g id="&#x952E;&#x76D8;">
	<g id="_16">
		<path style="fill:#263238;" d="M11.35,14.69c-0.29-0.003-0.561-0.144-0.73-0.38c-0.169,0.236-0.44,0.377-0.73,0.38h-7
			c-0.525-0.037-0.931-0.474-0.93-1V10.8c-0.002-0.174,0.039-0.346,0.12-0.5H1.16c-0.517-0.047-0.912-0.481-0.91-1V6.53
			c-0.002-0.519,0.393-0.953,0.91-1h0.17C1.25,5.383,1.209,5.218,1.21,5.05V2.29c-0.002-0.519,0.393-0.953,0.91-1h3.34
			c0.265,0.002,0.515,0.123,0.68,0.33c0.161-0.206,0.408-0.328,0.67-0.33h3.34c0.265,0.002,0.515,0.123,0.68,0.33
			c0.161-0.206,0.408-0.328,0.67-0.33h3.34c0.517,0.047,0.912,0.481,0.91,1v2.79c0.002,0.519-0.393,0.953-0.91,1h-0.17
			c0.08,0.147,0.121,0.312,0.12,0.48v2.76c0.002,0.163-0.036,0.325-0.11,0.47h0.13c0.525,0.037,0.931,0.474,0.93,1v2.89
			c0.001,0.526-0.405,0.963-0.93,1L11.35,14.69z"/>
		<path style="fill:#263238;" d="M14.84,1.56c0.383,0.022,0.677,0.347,0.66,0.73v2.79c0.017,0.383-0.277,0.708-0.66,0.73h-1
			c0.383,0.022,0.677,0.347,0.66,0.73v2.78c0.012,0.368-0.263,0.683-0.63,0.72h0.9c0.394,0.022,0.697,0.356,0.68,0.75v2.89
			c0.017,0.394-0.286,0.728-0.68,0.75h-3.42c-0.365-0.015-0.66-0.305-0.68-0.67h-0.11c-0.02,0.365-0.315,0.655-0.68,0.67h-7
			c-0.394-0.022-0.697-0.356-0.68-0.75V10.8c-0.045-0.395,0.239-0.752,0.635-0.796C2.85,10.002,2.865,10.001,2.88,10H1.16
			C0.795,9.984,0.505,9.686,0.5,9.32V6.53C0.478,6.15,0.768,5.823,1.148,5.801c0.004,0,0.008,0,0.012-0.001h1
			C1.777,5.778,1.483,5.453,1.5,5.07V2.29C1.483,1.907,1.777,1.582,2.16,1.56h3.3c0.383,0.022,0.677,0.347,0.66,0.73v0.07l0,0V2.29
			C6.103,1.907,6.397,1.582,6.78,1.56h3.34c0.381,0.016,0.677,0.337,0.661,0.718c0,0.004,0,0.008-0.001,0.012v0.07l0,0V2.29
			c-0.017-0.383,0.277-0.708,0.66-0.73h3.34 M14.78,1.06H11.5c-0.246-0.001-0.485,0.08-0.68,0.23c-0.195-0.15-0.434-0.231-0.68-0.23
			H6.81C6.564,1.059,6.325,1.14,6.13,1.29C5.935,1.14,5.696,1.059,5.45,1.06H2.12C1.477,1.103,0.982,1.646,1,2.29v2.79
			C0.993,5.16,0.993,5.24,1,5.32C0.415,5.423-0.009,5.936,0,6.53v2.79c-0.017,0.659,0.501,1.208,1.16,1.23h0.59
			c-0.008,0.083-0.008,0.167,0,0.25v2.89c-0.017,0.67,0.51,1.228,1.18,1.25h7c0.268-0.001,0.526-0.096,0.73-0.27
			c0.204,0.173,0.463,0.268,0.73,0.27h3.46c0.658-0.038,1.167-0.591,1.15-1.25V10.8c0.006-0.597-0.414-1.114-1-1.23
			c0.007-0.08,0.007-0.16,0-0.24v-2.8c0.007-0.08,0.007-0.16,0-0.24c0.585-0.103,1.009-0.616,1-1.21V2.29
			c0.017-0.659-0.501-1.208-1.16-1.23H14.78z"/>
		
			<linearGradient id="SVGID_1_" gradientUnits="userSpaceOnUse" x1="1.4484" y1="15.3966" x2="5.7784" y2="13.3966" gradientTransform="matrix(1 0 0 -1 0 18)">
			<stop  offset="0.48" style="stop-color:#E0E0E0"/>
			<stop  offset="1" style="stop-color:#90A4AE"/>
		</linearGradient>
		<path style="fill:url(#SVGID_1_);stroke:#211D1E;stroke-width:0.03;" d="M6.12,5.08c0.017,0.383-0.277,0.708-0.66,0.73H2.12
			C1.737,5.788,1.443,5.463,1.46,5.08V2.29C1.443,1.907,1.737,1.582,2.12,1.56h3.34c0.383,0.022,0.677,0.347,0.66,0.73V5.08z"/>
		
			<linearGradient id="SVGID_2_" gradientUnits="userSpaceOnUse" x1="2.1396" y1="14.65" x2="5.5504" y2="14.65" gradientTransform="matrix(1 0 0 -1 0 18)">
			<stop  offset="0" style="stop-color:#BBC3C7"/>
			<stop  offset="1" style="stop-color:#FFFFFF"/>
		</linearGradient>
		<path style="fill:url(#SVGID_2_);" d="M5.55,4.35c0.011,0.276-0.203,0.509-0.479,0.52c0,0-0.001,0-0.001,0H2.62
			C2.344,4.859,2.129,4.627,2.14,4.351c0,0,0-0.001,0-0.001v-2C2.129,2.074,2.343,1.841,2.619,1.83c0,0,0.001,0,0.001,0h2.45
			c0.276,0.011,0.491,0.243,0.48,0.519c0,0,0,0.001,0,0.001V4.35z"/>
		
			<linearGradient id="SVGID_3_" gradientUnits="userSpaceOnUse" x1="6.139" y1="15.3979" x2="10.469" y2="13.3979" gradientTransform="matrix(1 0 0 -1 0 18)">
			<stop  offset="0.48" style="stop-color:#E0E0E0"/>
			<stop  offset="1" style="stop-color:#90A4AE"/>
		</linearGradient>
		<path style="fill:url(#SVGID_3_);stroke:#211D1E;stroke-width:0.03;" d="M10.81,5.08c0.017,0.383-0.277,0.708-0.66,0.73H6.81
			C6.427,5.788,6.133,5.463,6.15,5.08V2.29C6.133,1.907,6.427,1.582,6.81,1.56h3.34c0.381,0.016,0.677,0.337,0.661,0.718
			c0,0.004,0,0.008-0.001,0.012L10.81,5.08z"/>
		
			<linearGradient id="SVGID_4_" gradientUnits="userSpaceOnUse" x1="6.83" y1="14.65" x2="10.24" y2="14.65" gradientTransform="matrix(1 0 0 -1 0 18)">
			<stop  offset="0" style="stop-color:#BBC3C7"/>
			<stop  offset="1" style="stop-color:#FFFFFF"/>
		</linearGradient>
		<path style="fill:url(#SVGID_4_);" d="M10.24,4.35c0.011,0.276-0.203,0.509-0.479,0.52c0,0-0.001,0-0.001,0H7.32
			C7.044,4.859,6.829,4.627,6.84,4.351c0,0,0-0.001,0-0.001v-2C6.829,2.074,7.043,1.841,7.319,1.83c0,0,0.001,0,0.001,0h2.44
			c0.276,0.011,0.491,0.243,0.48,0.519c0,0,0,0.001,0,0.001V4.35z"/>
		
			<linearGradient id="SVGID_5_" gradientUnits="userSpaceOnUse" x1="10.8284" y1="15.3966" x2="15.1584" y2="13.3966" gradientTransform="matrix(1 0 0 -1 0 18)">
			<stop  offset="0.48" style="stop-color:#E0E0E0"/>
			<stop  offset="1" style="stop-color:#90A4AE"/>
		</linearGradient>
		<path style="fill:url(#SVGID_5_);stroke:#211D1E;stroke-width:0.03;" d="M15.5,5.08c0.017,0.383-0.277,0.708-0.66,0.73H11.5
			c-0.383-0.022-0.677-0.347-0.66-0.73V2.29c-0.017-0.383,0.277-0.708,0.66-0.73h3.34c0.383,0.022,0.677,0.347,0.66,0.73V5.08z"/>
		
			<linearGradient id="SVGID_6_" gradientUnits="userSpaceOnUse" x1="11.53" y1="14.645" x2="14.93" y2="14.645" gradientTransform="matrix(1 0 0 -1 0 18)">
			<stop  offset="0" style="stop-color:#BBC3C7"/>
			<stop  offset="1" style="stop-color:#FFFFFF"/>
		</linearGradient>
		<path style="fill:url(#SVGID_6_);" d="M14.93,4.35c0.011,0.276-0.203,0.509-0.479,0.52c0,0-0.001,0-0.001,0H12
			c-0.276-0.011-0.491-0.243-0.48-0.519c0,0,0-0.001,0-0.001v-2C11.514,2.078,11.728,1.851,12,1.84h2.44
			c0.276,0.011,0.491,0.243,0.48,0.519c0,0,0,0.001,0,0.001L14.93,4.35z"/>
		
			<linearGradient id="SVGID_7_" gradientUnits="userSpaceOnUse" x1="0.4887" y1="11.1471" x2="4.8187" y2="9.1571" gradientTransform="matrix(1 0 0 -1 0 18)">
			<stop  offset="0.48" style="stop-color:#E0E0E0"/>
			<stop  offset="1" style="stop-color:#90A4AE"/>
		</linearGradient>
		<path style="fill:url(#SVGID_7_);stroke:#211D1E;stroke-width:0.03;" d="M5.15,9.32c0.017,0.383-0.277,0.708-0.66,0.73H1.16
			c-0.381-0.016-0.677-0.337-0.661-0.718c0-0.004,0-0.008,0.001-0.012V6.53C0.478,6.15,0.768,5.823,1.148,5.801
			c0.004,0,0.008,0,0.012-0.001h3.33c0.383,0.022,0.677,0.347,0.66,0.73L5.15,9.32z"/>
		
			<linearGradient id="SVGID_8_" gradientUnits="userSpaceOnUse" x1="1.1796" y1="10.4" x2="4.5904" y2="10.4" gradientTransform="matrix(1 0 0 -1 0 18)">
			<stop  offset="0" style="stop-color:#BBC3C7"/>
			<stop  offset="1" style="stop-color:#FFFFFF"/>
		</linearGradient>
		<path style="fill:url(#SVGID_8_);" d="M4.59,8.6c0.011,0.276-0.203,0.509-0.479,0.52c0,0-0.001,0-0.001,0H1.66
			C1.384,9.109,1.169,8.877,1.18,8.601c0,0,0-0.001,0-0.001v-2C1.169,6.324,1.383,6.091,1.659,6.08c0,0,0.001,0,0.001,0H4.1
			c0.276,0.011,0.491,0.243,0.48,0.519c0,0,0,0.001,0,0.001L4.59,8.6z"/>
		
			<linearGradient id="SVGID_9_" gradientUnits="userSpaceOnUse" x1="5.1795" y1="11.149" x2="9.5095" y2="9.159" gradientTransform="matrix(1 0 0 -1 0 18)">
			<stop  offset="0.48" style="stop-color:#E0E0E0"/>
			<stop  offset="1" style="stop-color:#90A4AE"/>
		</linearGradient>
		<path style="fill:url(#SVGID_9_);stroke:#211D1E;stroke-width:0.03;" d="M9.85,9.32c0.017,0.383-0.277,0.708-0.66,0.73H5.85
			c-0.381-0.016-0.677-0.337-0.661-0.718c0-0.004,0-0.008,0.001-0.012V6.53C5.168,6.15,5.458,5.823,5.838,5.801
			c0.004,0,0.008,0,0.012-0.001h3.34c0.383,0.022,0.677,0.347,0.66,0.73L9.85,9.32z"/>
		
			<linearGradient id="SVGID_10_" gradientUnits="userSpaceOnUse" x1="5.8696" y1="10.4" x2="9.2804" y2="10.4" gradientTransform="matrix(1 0 0 -1 0 18)">
			<stop  offset="0" style="stop-color:#BBC3C7"/>
			<stop  offset="1" style="stop-color:#FFFFFF"/>
		</linearGradient>
		<path style="fill:url(#SVGID_10_);" d="M9.28,8.6c0.011,0.276-0.203,0.509-0.479,0.52c0,0-0.001,0-0.001,0H6.35
			C6.074,9.109,5.859,8.877,5.87,8.601c0,0,0-0.001,0-0.001v-2C5.859,6.324,6.073,6.091,6.349,6.08c0,0,0.001,0,0.001,0H8.8
			c0.276,0.011,0.491,0.243,0.48,0.519c0,0,0,0.001,0,0.001V8.6z"/>
		
			<linearGradient id="SVGID_11_" gradientUnits="userSpaceOnUse" x1="9.8695" y1="11.149" x2="14.1995" y2="9.159" gradientTransform="matrix(1 0 0 -1 0 18)">
			<stop  offset="0.48" style="stop-color:#E0E0E0"/>
			<stop  offset="1" style="stop-color:#90A4AE"/>
		</linearGradient>
		<path style="fill:url(#SVGID_11_);stroke:#211D1E;stroke-width:0.03;" d="M14.54,9.32c0.017,0.383-0.277,0.708-0.66,0.73h-3.34
			c-0.381-0.016-0.677-0.337-0.661-0.718c0-0.004,0-0.008,0.001-0.012V6.53c-0.022-0.38,0.268-0.707,0.648-0.729
			c0.004,0,0.008,0,0.012-0.001h3.34c0.383,0.022,0.677,0.347,0.66,0.73V9.32z"/>
		
			<linearGradient id="SVGID_12_" gradientUnits="userSpaceOnUse" x1="10.56" y1="10.4019" x2="13.97" y2="10.4019" gradientTransform="matrix(1 0 0 -1 0 18)">
			<stop  offset="0" style="stop-color:#BBC3C7"/>
			<stop  offset="1" style="stop-color:#FFFFFF"/>
		</linearGradient>
		<path style="fill:url(#SVGID_12_);" d="M14,8.6c0.011,0.276-0.203,0.509-0.479,0.52c0,0-0.001,0-0.001,0H11
			c-0.276-0.011-0.491-0.243-0.48-0.519c0,0,0-0.001,0-0.001v-2c-0.011-0.276,0.203-0.509,0.479-0.52c0,0,0.001,0,0.001,0h2.44
			c0.274-0.033,0.523,0.162,0.557,0.436C14,6.544,14.001,6.572,14,6.6V8.6z"/>
		
			<linearGradient id="SVGID_13_" gradientUnits="userSpaceOnUse" x1="10.6482" y1="6.8761" x2="15.1382" y2="4.8061" gradientTransform="matrix(1 0 0 -1 0 18)">
			<stop  offset="0.48" style="stop-color:#E0E0E0"/>
			<stop  offset="1" style="stop-color:#90A4AE"/>
		</linearGradient>
		<path style="fill:url(#SVGID_13_);stroke:#211D1E;stroke-width:0.03;" d="M15.49,13.69c0.017,0.394-0.286,0.728-0.68,0.75h-3.46
			c-0.394-0.022-0.697-0.356-0.68-0.75V10.8c-0.017-0.394,0.286-0.728,0.68-0.75h3.46c0.394,0.022,0.697,0.356,0.68,0.75
			L15.49,13.69z"/>
		
			<linearGradient id="SVGID_14_" gradientUnits="userSpaceOnUse" x1="11.3696" y1="6.095" x2="14.9004" y2="6.095" gradientTransform="matrix(1 0 0 -1 0 18)">
			<stop  offset="0" style="stop-color:#BBC3C7"/>
			<stop  offset="1" style="stop-color:#FFFFFF"/>
		</linearGradient>
		<path style="fill:url(#SVGID_14_);" d="M14.9,12.94c0.011,0.287-0.212,0.529-0.499,0.54c0,0-0.001,0-0.001,0h-2.53
			c-0.287-0.011-0.511-0.252-0.5-0.539c0,0,0-0.001,0-0.001v-2.07c-0.011-0.287,0.212-0.529,0.499-0.54c0,0,0.001,0,0.001,0h2.53
			c0.287,0.011,0.511,0.252,0.5,0.539c0,0,0,0.001,0,0.001V12.94z"/>
		
			<linearGradient id="SVGID_15_" gradientUnits="userSpaceOnUse" x1="2.6281" y1="7.5176" x2="9.6181" y2="4.2976" gradientTransform="matrix(1 0 0 -1 0 18)">
			<stop  offset="0.48" style="stop-color:#E0E0E0"/>
			<stop  offset="1" style="stop-color:#90A4AE"/>
		</linearGradient>
		<path style="fill:url(#SVGID_15_);stroke:#211D1E;stroke-width:0.03;" d="M10.57,13.69c0.017,0.394-0.286,0.728-0.68,0.75h-7
			c-0.394-0.022-0.697-0.356-0.68-0.75V10.8c-0.044-0.395,0.24-0.751,0.635-0.796C2.867,10.002,2.888,10,2.91,10h7
			c0.394,0.022,0.697,0.356,0.68,0.75L10.57,13.69z"/>
		
			<linearGradient id="SVGID_16_" gradientUnits="userSpaceOnUse" x1="2.9296" y1="6.095" x2="9.9796" y2="6.095" gradientTransform="matrix(1 0 0 -1 0 18)">
			<stop  offset="0" style="stop-color:#BBC3C7"/>
			<stop  offset="1" style="stop-color:#FFFFFF"/>
		</linearGradient>
		<path style="fill:url(#SVGID_16_);" d="M10,12.94c0.011,0.287-0.212,0.529-0.499,0.54c0,0-0.001,0-0.001,0H3.43
			c-0.287-0.011-0.511-0.252-0.5-0.539c0,0,0-0.001,0-0.001v-2.07c-0.011-0.287,0.212-0.529,0.499-0.54c0,0,0.001,0,0.001,0h6.05
			c0.287,0.011,0.511,0.252,0.5,0.539c0,0,0,0.001,0,0.001L10,12.94z"/>
		<path style="fill:#455A64;" d="M3.05,3.24C3.048,3.121,3.068,3.002,3.11,2.89C3.145,2.796,3.2,2.711,3.27,2.64
			c0.068-0.067,0.15-0.118,0.24-0.15C3.603,2.456,3.701,2.439,3.8,2.44c0.096-0.001,0.191,0.016,0.28,0.05
			c0.086,0.033,0.165,0.084,0.23,0.15c0.07,0.071,0.125,0.156,0.16,0.25c0.041,0.112,0.061,0.231,0.06,0.35
			c0.016,0.103,0.016,0.207,0,0.31C4.504,3.633,4.463,3.711,4.41,3.78C4.36,3.844,4.299,3.898,4.23,3.94C4.142,3.979,4.046,4,3.95,4
			c-0.012,0.029-0.012,0.061,0,0.09l0.11,0.07h0.15h0.16L4.32,4.33H4.1L4,4.31C3.947,4.283,3.899,4.245,3.86,4.2
			C3.796,4.15,3.75,4.079,3.73,4C3.644,4.015,3.556,4.015,3.47,4C3.39,3.962,3.318,3.907,3.26,3.84
			C3.198,3.766,3.15,3.682,3.12,3.59C3.076,3.478,3.052,3.36,3.05,3.24z M3.28,3.24c-0.012,0.083-0.012,0.167,0,0.25
			c0.021,0.069,0.055,0.134,0.1,0.19C3.423,3.732,3.478,3.773,3.54,3.8c0.134,0.056,0.286,0.056,0.42,0
			c0.061-0.028,0.116-0.069,0.16-0.12c0.044-0.057,0.078-0.121,0.1-0.19c0.049-0.167,0.049-0.343,0-0.51
			c-0.021-0.069-0.055-0.133-0.1-0.19C4.088,2.743,4.047,2.702,4,2.67c-0.134-0.056-0.286-0.056-0.42,0
			C3.518,2.697,3.463,2.738,3.42,2.79c-0.045,0.056-0.079,0.121-0.1,0.19C3.293,3.064,3.28,3.152,3.28,3.24z"/>
		<path style="fill:#455A64;" d="M8.54,3.16c-0.06,0.2-0.12,0.38-0.19,0.55L8.16,4.2H7.94C7.86,3.973,7.79,3.733,7.73,3.48
			C7.67,3.23,7.61,2.95,7.56,2.66h0.22L7.86,3l0.07,0.34L8,3.66c0,0.1,0,0.19,0.07,0.28l0.19-0.51c0.07-0.19,0.13-0.38,0.19-0.58
			h0.19c0.06,0.2,0.12,0.39,0.19,0.58L9,3.93l0.07-0.27l0.07-0.31L9.22,3l0.07-0.35h0.22C9.46,2.95,9.4,3.22,9.34,3.47
			S9.21,3.96,9.13,4.19H8.91L8.72,3.7C8.66,3.54,8.6,3.35,8.54,3.16z"/>
		<path style="fill:#455A64;" d="M12.69,4.22V2.68h0.94v0.18H12.9v0.46h0.64V3.5H12.9V4h0.78v0.19L12.69,4.22z"/>
		<path style="fill:#455A64;" d="M3.36,8.37l-0.07-0.2L3.22,8h-0.7L2.38,8.39H2.16l0.17-0.45l0.15-0.39l0.15-0.36l0.15-0.34H3
			l0.15,0.34L3.3,7.55l0.15,0.39l0.17,0.45L3.36,8.37z M3.16,7.8L3,7.43L2.85,7.08L2.7,7.43L2.56,7.8H3.16z"/>
		<path style="fill:#455A64;" d="M7.46,8.22c0.23,0,0.34-0.08,0.34-0.23c0.011-0.039,0.011-0.081,0-0.12
			C7.78,7.834,7.753,7.804,7.72,7.78L7.6,7.72L7.46,7.67L7.27,7.6L7.14,7.51C7.102,7.477,7.071,7.436,7.05,7.39
			C6.982,7.223,7.026,7.031,7.16,6.91C7.27,6.83,7.404,6.791,7.54,6.8c0.083-0.01,0.167-0.01,0.25,0L8,6.89L7.93,7.07L7.76,7
			C7.69,6.99,7.62,6.99,7.55,7H7.43h-0.1C7.305,7.018,7.284,7.042,7.27,7.07c-0.009,0.033-0.009,0.067,0,0.1
			c-0.008,0.033-0.008,0.067,0,0.1c0.018,0.028,0.042,0.052,0.07,0.07l0.1,0.06l0.13,0.05l0.18,0.08
			c0.055,0.025,0.105,0.059,0.15,0.1C7.949,7.676,7.983,7.735,8,7.8C8.015,7.866,8.015,7.934,8,8c0.006,0.122-0.051,0.239-0.15,0.31
			C7.725,8.39,7.578,8.429,7.43,8.42H7.3H7.16h-0.1L7,8.3l0.06-0.18l0.16,0.06C7.297,8.206,7.378,8.219,7.46,8.22z"/>
		<path style="fill:#455A64;" d="M13,7.6c0.003,0.119-0.017,0.238-0.06,0.35c-0.04,0.093-0.102,0.175-0.18,0.24
			c-0.08,0.064-0.171,0.112-0.27,0.14c-0.116,0.017-0.234,0.017-0.35,0h-0.21h-0.2V6.85h0.2h0.21c0.116-0.017,0.234-0.017,0.35,0
			c0.099,0.028,0.191,0.075,0.27,0.14c0.078,0.065,0.139,0.147,0.18,0.24C12.986,7.348,13.006,7.474,13,7.6z M12.16,8.2
			c0.329,0.043,0.63-0.189,0.672-0.518c0.043-0.329-0.189-0.63-0.518-0.672c-0.051-0.007-0.103-0.007-0.155,0h-0.21v1.18h0.21V8.2z"
			/>
		<path style="fill:#455A64;" d="M5.18,12.65c-0.089,0.017-0.181,0.017-0.27,0c-0.079-0.031-0.151-0.078-0.21-0.14
			c-0.059-0.067-0.103-0.145-0.13-0.23c-0.017-0.103-0.017-0.207,0-0.31c-0.003-0.106,0.014-0.211,0.05-0.31
			c0.031-0.085,0.078-0.164,0.14-0.23c0.06-0.06,0.131-0.108,0.21-0.14c0.086-0.016,0.174-0.016,0.26,0h0.16h0.12h0.08l0,0
			l-0.06,0.16H5.48H5.4H5.31h-0.1c-0.066-0.014-0.134-0.014-0.2,0c-0.058,0.025-0.109,0.062-0.15,0.11
			c-0.045,0.052-0.08,0.114-0.1,0.18c-0.012,0.076-0.012,0.154,0,0.23c-0.011,0.076-0.011,0.154,0,0.23
			c0.017,0.065,0.048,0.127,0.09,0.18c0.041,0.048,0.092,0.085,0.15,0.11c0.066,0.014,0.134,0.014,0.2,0
			c0.073,0.011,0.147,0.011,0.22,0h0.13v0.16l0,0H5.46H5.33L5.18,12.65z"/>
		<path style="fill:#455A64;" d="M6,11.57h0.4v0.16H6v0.48c-0.005,0.043-0.005,0.087,0,0.13c-0.005,0.026-0.005,0.054,0,0.08h0.06
			h0.08h0.14h0.07v0.16h-0.1H6.09c-0.059,0.011-0.121,0.011-0.18,0c-0.043-0.017-0.081-0.044-0.11-0.08
			c-0.03-0.038-0.05-0.083-0.06-0.13c-0.007-0.06-0.007-0.12,0-0.18v-0.93h0.19L6,11.57z"/>
		<path style="fill:#455A64;" d="M7,11.55h0.21v0.16H7.14H6.88H6.81v0.88H6.63v-1H6.8L7,11.55z"/>
		<path style="fill:#455A64;" d="M7.72,12.64c-0.089,0.009-0.178-0.016-0.25-0.07c-0.052-0.061-0.077-0.14-0.07-0.22v-1.26h0.19
			v1.26c-0.004,0.027-0.004,0.053,0,0.08l0,0l0,0h0.08L7.72,12.64z"/>
		<path id="rect4274" style="fill:#455A64;" d="M13.17,10.95l-0.87,0.87h0.44v1.09h0.87v-1.09H14L13.17,10.95z M13.17,11.17
			l0.44,0.44h-0.22v1.09H13v-1.1h-0.22L13.17,11.17z"/>
	</g>
</g>
</svg>
