<svg id="其他" xmlns="http://www.w3.org/2000/svg" xmlns:xlink="http://www.w3.org/1999/xlink" viewBox="0 0 16 16"><defs><style>.cls-1{fill:#263238;}.cls-10,.cls-12,.cls-14,.cls-16,.cls-2,.cls-4,.cls-6,.cls-8{stroke:#211d1e;stroke-width:0.03px;}.cls-2{fill:url(#linear-gradient);}.cls-3{fill:url(#linear-gradient-2);}.cls-4{fill:url(#linear-gradient-3);}.cls-5{fill:url(#linear-gradient-4);}.cls-6{fill:url(#linear-gradient-5);}.cls-7{fill:url(#linear-gradient-6);}.cls-8{fill:url(#linear-gradient-7);}.cls-9{fill:url(#linear-gradient-8);}.cls-10{fill:url(#linear-gradient-9);}.cls-11{fill:url(#linear-gradient-10);}.cls-12{fill:url(#linear-gradient-11);}.cls-13{fill:url(#linear-gradient-12);}.cls-14{fill:url(#linear-gradient-13);}.cls-15{fill:url(#linear-gradient-14);}.cls-16{fill:url(#linear-gradient-15);}.cls-17{fill:url(#linear-gradient-16);}.cls-18{fill:#455a64;}</style><linearGradient id="linear-gradient" x1="1.45" y1="2.6" x2="5.78" y2="4.6" gradientUnits="userSpaceOnUse"><stop offset="0.48" stop-color="#e0e0e0"/><stop offset="1" stop-color="#90a4ae"/></linearGradient><linearGradient id="linear-gradient-2" x1="2.14" y1="3.36" x2="5.55" y2="3.36" gradientUnits="userSpaceOnUse"><stop offset="0" stop-color="#bbc3c7"/><stop offset="1" stop-color="#fff"/></linearGradient><linearGradient id="linear-gradient-3" x1="6.14" y1="2.6" x2="10.47" y2="4.6" xlink:href="#linear-gradient"/><linearGradient id="linear-gradient-4" x1="6.83" y1="3.36" x2="10.24" y2="3.36" xlink:href="#linear-gradient-2"/><linearGradient id="linear-gradient-5" x1="10.83" y1="2.6" x2="15.16" y2="4.6" xlink:href="#linear-gradient"/><linearGradient id="linear-gradient-6" x1="11.53" y1="3.36" x2="14.93" y2="3.36" xlink:href="#linear-gradient-2"/><linearGradient id="linear-gradient-7" x1="0.49" y1="6.85" x2="4.82" y2="8.84" xlink:href="#linear-gradient"/><linearGradient id="linear-gradient-8" x1="1.18" y1="7.6" x2="4.59" y2="7.6" xlink:href="#linear-gradient-2"/><linearGradient id="linear-gradient-9" x1="5.18" y1="6.85" x2="9.51" y2="8.84" xlink:href="#linear-gradient"/><linearGradient id="linear-gradient-10" x1="5.87" y1="7.6" x2="9.28" y2="7.6" xlink:href="#linear-gradient-2"/><linearGradient id="linear-gradient-11" x1="9.87" y1="6.85" x2="14.2" y2="8.84" xlink:href="#linear-gradient"/><linearGradient id="linear-gradient-12" x1="10.56" y1="7.6" x2="13.97" y2="7.6" xlink:href="#linear-gradient-2"/><linearGradient id="linear-gradient-13" x1="10.65" y1="11.12" x2="15.14" y2="13.19" xlink:href="#linear-gradient"/><linearGradient id="linear-gradient-14" x1="11.37" y1="11.9" x2="14.9" y2="11.9" xlink:href="#linear-gradient-2"/><linearGradient id="linear-gradient-15" x1="2.62" y1="10.5" x2="9.61" y2="13.72" xlink:href="#linear-gradient"/><linearGradient id="linear-gradient-16" x1="2.93" y1="11.9" x2="9.98" y2="11.9" xlink:href="#linear-gradient-2"/></defs><title>画板 26</title><g id="键盘"><g id="_16" data-name="16"><path class="cls-1" d="M11.35,14.69a.91.91,0,0,1-.73-.38.91.91,0,0,1-.73.38h-7a1,1,0,0,1-.93-1V10.8a1.05,1.05,0,0,1,.12-.5H1.16a1,1,0,0,1-.91-1V6.53a1,1,0,0,1,.91-1h.17a1,1,0,0,1-.12-.48V2.29a1,1,0,0,1,.91-1H5.46a.88.88,0,0,1,.68.33.86.86,0,0,1,.67-.33h3.34a.88.88,0,0,1,.68.33.86.86,0,0,1,.67-.33h3.34a1,1,0,0,1,.91,1V5.08a1,1,0,0,1-.91,1h-.17a1,1,0,0,1,.12.48V9.32a1,1,0,0,1-.11.47h.13a1,1,0,0,1,.93,1v2.89a1,1,0,0,1-.93,1Z"/><path class="cls-1" d="M14.84,1.56a.7.7,0,0,1,.66.73V5.08a.7.7,0,0,1-.66.73h-1a.7.7,0,0,1,.66.73V9.32a.7.7,0,0,1-.63.72h.9a.72.72,0,0,1,.68.75v2.89a.72.72,0,0,1-.68.75H11.35a.71.71,0,0,1-.68-.67h-.11a.71.71,0,0,1-.68.67h-7a.72.72,0,0,1-.68-.75V10.8A.72.72,0,0,1,2.88,10H1.16A.69.69,0,0,1,.5,9.32V6.53a.69.69,0,0,1,.66-.73h1a.7.7,0,0,1-.66-.73V2.29a.7.7,0,0,1,.66-.73H5.46a.7.7,0,0,1,.66.73v.07h0V2.29a.7.7,0,0,1,.66-.73h3.34a.69.69,0,0,1,.66.73v.07h0V2.29a.7.7,0,0,1,.66-.73h3.34m0-.5H11.5a1.11,1.11,0,0,0-.68.23,1.11,1.11,0,0,0-.68-.23H6.81a1.11,1.11,0,0,0-.68.23,1.11,1.11,0,0,0-.68-.23H2.12A1.2,1.2,0,0,0,1,2.29V5.08a1.3,1.3,0,0,0,0,.24A1.21,1.21,0,0,0,0,6.53V9.32a1.2,1.2,0,0,0,1.16,1.23h.59a1.34,1.34,0,0,0,0,.25v2.89a1.22,1.22,0,0,0,1.18,1.25h7a1.13,1.13,0,0,0,.73-.27,1.14,1.14,0,0,0,.73.27h3.46A1.22,1.22,0,0,0,16,13.69V10.8a1.24,1.24,0,0,0-1-1.23,1.3,1.3,0,0,0,0-.24V6.53a1.29,1.29,0,0,0,0-.24,1.21,1.21,0,0,0,1-1.21V2.29a1.2,1.2,0,0,0-1.16-1.23Z"/><path class="cls-2" d="M6.12,5.08a.7.7,0,0,1-.66.73H2.12a.7.7,0,0,1-.66-.73V2.29a.7.7,0,0,1,.66-.73H5.46a.7.7,0,0,1,.66.73Z"/><path class="cls-3" d="M5.55,4.35a.5.5,0,0,1-.48.52H2.62a.5.5,0,0,1-.48-.52v-2a.5.5,0,0,1,.48-.52H5.07a.5.5,0,0,1,.48.52Z"/><path class="cls-4" d="M10.81,5.08a.7.7,0,0,1-.66.73H6.81a.7.7,0,0,1-.66-.73V2.29a.7.7,0,0,1,.66-.73h3.34a.69.69,0,0,1,.66.73Z"/><path class="cls-5" d="M10.24,4.35a.5.5,0,0,1-.48.52H7.32a.5.5,0,0,1-.48-.52v-2a.5.5,0,0,1,.48-.52H9.76a.5.5,0,0,1,.48.52Z"/><path class="cls-6" d="M15.5,5.08a.7.7,0,0,1-.66.73H11.5a.7.7,0,0,1-.66-.73V2.29a.7.7,0,0,1,.66-.73h3.34a.7.7,0,0,1,.66.73Z"/><path class="cls-7" d="M14.93,4.35a.5.5,0,0,1-.48.52H12a.5.5,0,0,1-.48-.52v-2A.5.5,0,0,1,12,1.84h2.44a.5.5,0,0,1,.48.52Z"/><path class="cls-8" d="M5.15,9.32a.7.7,0,0,1-.66.73H1.16A.69.69,0,0,1,.5,9.32V6.53a.69.69,0,0,1,.66-.73H4.49a.7.7,0,0,1,.66.73Z"/><path class="cls-9" d="M4.59,8.6a.5.5,0,0,1-.48.52H1.66a.5.5,0,0,1-.48-.52v-2a.5.5,0,0,1,.48-.52H4.1a.5.5,0,0,1,.48.52Z"/><path class="cls-10" d="M9.85,9.32a.7.7,0,0,1-.66.73H5.85a.69.69,0,0,1-.66-.73V6.53a.69.69,0,0,1,.66-.73H9.19a.7.7,0,0,1,.66.73Z"/><path class="cls-11" d="M9.28,8.6a.5.5,0,0,1-.48.52H6.35a.5.5,0,0,1-.48-.52v-2a.5.5,0,0,1,.48-.52H8.8a.5.5,0,0,1,.48.52Z"/><path class="cls-12" d="M14.54,9.32a.7.7,0,0,1-.66.73H10.54a.69.69,0,0,1-.66-.73V6.53a.69.69,0,0,1,.66-.73h3.34a.7.7,0,0,1,.66.73Z"/><path class="cls-13" d="M14,8.6a.5.5,0,0,1-.48.52H11a.5.5,0,0,1-.48-.52v-2A.5.5,0,0,1,11,6.08h2.44A.5.5,0,0,1,14,6.6Z"/><path class="cls-14" d="M15.49,13.69a.72.72,0,0,1-.68.75H11.35a.72.72,0,0,1-.68-.75V10.8a.72.72,0,0,1,.68-.75h3.46a.72.72,0,0,1,.68.75Z"/><path class="cls-15" d="M14.9,12.94a.52.52,0,0,1-.5.54H11.87a.52.52,0,0,1-.5-.54V10.87a.52.52,0,0,1,.5-.54H14.4a.52.52,0,0,1,.5.54Z"/><path class="cls-16" d="M10.57,13.69a.72.72,0,0,1-.68.75h-7a.72.72,0,0,1-.68-.75V10.8A.72.72,0,0,1,2.91,10h7a.72.72,0,0,1,.68.75Z"/><path class="cls-17" d="M10,12.94a.52.52,0,0,1-.5.54H3.43a.52.52,0,0,1-.5-.54V10.87a.52.52,0,0,1,.5-.54H9.48a.52.52,0,0,1,.5.54Z"/><path class="cls-18" d="M3.05,3.24a.94.94,0,0,1,.06-.35.71.71,0,0,1,.16-.25.66.66,0,0,1,.24-.15.8.8,0,0,1,.29-.05.77.77,0,0,1,.28.05.66.66,0,0,1,.23.15.72.72,0,0,1,.16.25,1,1,0,0,1,.06.35,1,1,0,0,1,0,.31.75.75,0,0,1-.12.23.65.65,0,0,1-.18.16A.7.7,0,0,1,3.95,4a.12.12,0,0,0,0,.09l.11.07.15,0,.16,0-.05.17-.22,0L4,4.31a.47.47,0,0,1-.14-.11A.37.37,0,0,1,3.73,4,.75.75,0,0,1,3.47,4a.65.65,0,0,1-.21-.16.75.75,0,0,1-.14-.25A1,1,0,0,1,3.05,3.24Zm.23,0a.86.86,0,0,0,0,.25.56.56,0,0,0,.1.19.44.44,0,0,0,.16.12.55.55,0,0,0,.42,0,.47.47,0,0,0,.16-.12.6.6,0,0,0,.1-.19.91.91,0,0,0,0-.51.59.59,0,0,0-.1-.19A.46.46,0,0,0,4,2.67a.55.55,0,0,0-.42,0,.43.43,0,0,0-.16.12.56.56,0,0,0-.1.19A.86.86,0,0,0,3.28,3.24Z"/><path class="cls-18" d="M8.54,3.16c-.06.2-.12.38-.19.55l-.19.49H7.94q-.12-.34-.21-.72c-.06-.25-.12-.53-.17-.82h.22L7.86,3l.07.34L8,3.66c0,.1,0,.19.07.28l.19-.51c.07-.19.13-.38.19-.58h.19c.06.2.12.39.19.58L9,3.93l.07-.27.07-.31L9.22,3l.07-.35h.22c-.05.3-.11.57-.17.82s-.13.49-.21.72H8.91l-.19-.49C8.66,3.54,8.6,3.35,8.54,3.16Z"/><path class="cls-18" d="M12.69,4.22V2.68h.94v.18H12.9v.46h.64V3.5H12.9V4h.78v.19Z"/><path class="cls-18" d="M3.36,8.37l-.07-.2L3.22,8h-.7l-.14.39H2.16l.17-.45.15-.39.15-.36.15-.34H3l.15.34.15.36.15.39.17.45Zm-.2-.57L3,7.43l-.15-.35-.15.35-.14.37Z"/><path class="cls-18" d="M7.46,8.22c.23,0,.34-.08.34-.23a.23.23,0,0,0,0-.12.27.27,0,0,0-.08-.09l-.12-.06-.14-.05L7.27,7.6l-.13-.09a.37.37,0,0,1-.09-.12.43.43,0,0,1,.11-.48.58.58,0,0,1,.38-.11,1,1,0,0,1,.25,0L8,6.89l-.07.18L7.76,7a.72.72,0,0,0-.21,0H7.43L7.33,7a.2.2,0,0,0-.06.07.18.18,0,0,0,0,.1.21.21,0,0,0,0,.1.24.24,0,0,0,.07.07l.1.06.13.05.18.08a.59.59,0,0,1,.15.1A.36.36,0,0,1,8,7.8.46.46,0,0,1,8,8a.36.36,0,0,1-.15.31.7.7,0,0,1-.42.11H7.3l-.14,0-.1,0L7,8.3l.06-.18.16.06A.79.79,0,0,0,7.46,8.22Z"/><path class="cls-18" d="M13,7.6a.9.9,0,0,1-.06.35.65.65,0,0,1-.18.24.76.76,0,0,1-.27.14,1.2,1.2,0,0,1-.35,0h-.21l-.2,0V6.85l.2,0h.21a1.2,1.2,0,0,1,.35,0,.75.75,0,0,1,.27.14.66.66,0,0,1,.18.24A.9.9,0,0,1,13,7.6Zm-.84.6a.6.6,0,1,0,0-1.19h-.21V8.19h.21Z"/><path class="cls-18" d="M5.18,12.65a.72.72,0,0,1-.27,0,.58.58,0,0,1-.21-.14.63.63,0,0,1-.13-.23.93.93,0,0,1,0-.31.83.83,0,0,1,.05-.31.67.67,0,0,1,.14-.23.63.63,0,0,1,.21-.14.7.7,0,0,1,.26,0h.16l.12,0,.08,0,0,0-.06.16-.05,0-.08,0-.09,0h-.1a.49.49,0,0,0-.2,0,.41.41,0,0,0-.15.11.5.5,0,0,0-.1.18.75.75,0,0,0,0,.23.83.83,0,0,0,0,.23.5.5,0,0,0,.09.18.41.41,0,0,0,.15.11.49.49,0,0,0,.2,0,.73.73,0,0,0,.22,0l.13,0,0,.16,0,0-.09,0-.13,0Z"/><path class="cls-18" d="M6,11.57h.4v.16H6v.48a.61.61,0,0,0,0,.13.2.2,0,0,0,0,.08l.06,0h.08l.14,0,.07,0,0,.16-.1,0-.16,0a.48.48,0,0,1-.18,0,.27.27,0,0,1-.11-.08.32.32,0,0,1-.06-.13.8.8,0,0,1,0-.18v-.93l.19,0Z"/><path class="cls-18" d="M7,11.55h.21l0,.16-.07,0H6.88l-.07,0v.88H6.63v-1l.17,0Z"/><path class="cls-18" d="M7.72,12.64a.36.36,0,0,1-.25-.07.3.3,0,0,1-.07-.22V11.09l.19,0v1.26a.27.27,0,0,0,0,.08.1.1,0,0,0,0,0l0,0,.08,0Z"/><path id="rect4274" class="cls-18" d="M13.17,10.95l-.87.87h.44v1.09h.87V11.82H14Zm0,.22.44.44h-.22v1.09H13V11.6h-.22Z"/></g></g></svg>