<svg id="其他" xmlns="http://www.w3.org/2000/svg" xmlns:xlink="http://www.w3.org/1999/xlink" viewBox="0 0 16 16"><defs><style>.cls-1,.cls-2,.cls-3,.cls-4,.cls-5,.cls-6,.cls-7,.cls-8{fill-rule:evenodd;}.cls-1{fill:url(#新建渐变色板_1);}.cls-2{fill:url(#linear-gradient);}.cls-3{fill:#221e1f;}.cls-4{fill:#040000;}.cls-5{fill:#bac6d1;}.cls-6{fill:#616161;}.cls-7{fill:url(#linear-gradient-2);}.cls-8{fill:#fff;}.cls-9{fill:#90a4ae;}</style><linearGradient id="新建渐变色板_1" x1="8" y1="0.5" x2="8" y2="28.3" gradientUnits="userSpaceOnUse"><stop offset="0" stop-color="#211d1e"/><stop offset="0.55" stop-color="#58595b"/><stop offset="1" stop-color="#abb6be"/></linearGradient><linearGradient id="linear-gradient" x1="8.15" y1="6.7" x2="8.15" y2="16.43" gradientUnits="userSpaceOnUse"><stop offset="0" stop-color="#fff"/><stop offset="1" stop-color="#cfd8dc"/></linearGradient><linearGradient id="linear-gradient-2" x1="-2.88" y1="4.13" x2="13.17" y2="2.44" gradientUnits="userSpaceOnUse"><stop offset="0" stop-color="#bfd7b1"/><stop offset="0.36" stop-color="#cfd1d2"/><stop offset="1" stop-color="#fff"/></linearGradient></defs><title>画板 26</title><g id="软驱"><path d="M1,16a1,1,0,0,1-1-1V1A1,1,0,0,1,1,0H2.28l.14.28H3.69V0H14.47L16,1.49V15a1,1,0,0,1-1,1Z"/><path class="cls-1" d="M15.5,15a.52.52,0,0,1-.54.52H1A.54.54,0,0,1,.5,15V1A.53.53,0,0,1,1,.5H2a.42.42,0,0,0,.38.23h9.79a.42.42,0,0,0,.38-.23h1.75L15.5,1.71Z"/><path class="cls-2" d="M2.76,6.91H13.54a.55.55,0,0,1,.55.54v8H2.21v-8A.54.54,0,0,1,2.76,6.91Z"/><path class="cls-3" d="M2.52,5.89a.4.4,0,0,1-.4-.39V.67A.41.41,0,0,0,2.3.73V5.49a.39.39,0,0,0,.4.39Z"/><path class="cls-4" d="M2.65,6.86H13.47a.56.56,0,0,1,.34.13.55.55,0,0,0-.17,0H2.82a.55.55,0,0,0-.55.54v8H2.1V7.4A.55.55,0,0,1,2.65,6.86Z"/><path class="cls-5" d="M13.78,7a.55.55,0,0,1,.45.53v6.4h0v.59h0v1H14V7.41A.54.54,0,0,0,13.78,7Z"/><path class="cls-6" d="M12.48.57l0,5a.4.4,0,0,1-.4.39H2.71a.39.39,0,0,1-.35-.21,1.34,1.34,0,0,0,.34.12h9.18a.39.39,0,0,0,.39-.38l0-4.72a.41.41,0,0,0,.19-.14Zm-.4.17h0Z"/><path class="cls-3" d="M4.21.5H12V5a.55.55,0,0,1-.56.55H4.76A.56.56,0,0,1,4.21,5V.5ZM9.26,1a.37.37,0,0,0-.37.37V5a.37.37,0,0,0,.37.37h1.52A.37.37,0,0,0,11.16,5V1.42A.37.37,0,0,0,10.78,1Z"/><path class="cls-7" d="M4.19.49H12V5a.56.56,0,0,1-.56.55H4.75A.56.56,0,0,1,4.19,5V.49ZM9.25,1a.37.37,0,0,0-.37.37V4.92a.37.37,0,0,0,.38.37h1.52a.37.37,0,0,0,.37-.37V1.35A.37.37,0,0,0,10.77,1Z"/><path class="cls-8" d="M4.19.5H12V.57H4.25V5a.54.54,0,0,0,.11.33A.54.54,0,0,1,4.19,5V.49Zm6.88.64a.36.36,0,0,1,.07.21V4.93a.37.37,0,0,1-.37.37H9.25A.37.37,0,0,1,9,5.2a.37.37,0,0,0,.31.16h1.52A.37.37,0,0,0,11.2,5V1.42A.37.37,0,0,0,11.08,1.14Z"/><rect class="cls-9" x="4.34" y="9.07" width="7.56" height="0.75"/><rect class="cls-9" x="4.34" y="12.22" width="7.56" height="0.75"/></g></svg>