<svg id="其他" xmlns="http://www.w3.org/2000/svg" xmlns:xlink="http://www.w3.org/1999/xlink" viewBox="0 0 16 16"><defs><style>.cls-1{fill:#221e1f;}.cls-2{fill:url(#linear-gradient);}.cls-3{fill:url(#linear-gradient-2);}.cls-4{font-size:0.82px;fill:#bbbdbf;font-family:Arial-Black, Arial;}.cls-5,.cls-6{font-size:0.55px;}.cls-5{letter-spacing:0em;}.cls-7{font-size:0.99px;fill:#a6a8ab;font-family:BankGothicBT-Medium, BankGothic Md BT;}.cls-8{fill:#fff;}</style><linearGradient id="linear-gradient" x1="8.02" y1="4.11" x2="8.02" y2="12.08" gradientUnits="userSpaceOnUse"><stop offset="0" stop-color="#6c6e70"/><stop offset="0" stop-color="#67696b"/><stop offset="0" stop-color="#535455"/><stop offset="0" stop-color="#434444"/><stop offset="0" stop-color="#383839"/><stop offset="0" stop-color="#323232"/><stop offset="0" stop-color="#303030"/><stop offset="1" stop-color="#303030"/></linearGradient><linearGradient id="linear-gradient-2" x1="9.14" y1="9.97" x2="9.14" y2="4.78" gradientUnits="userSpaceOnUse"><stop offset="0.01" stop-color="#6c6e70"/><stop offset="0.01" stop-color="#595b5c"/><stop offset="0.01" stop-color="#444546"/><stop offset="0.01" stop-color="#343535"/><stop offset="0.02" stop-color="#29292a"/><stop offset="0.02" stop-color="#232323"/><stop offset="0.03" stop-color="#212121"/><stop offset="1" stop-color="#212121"/></linearGradient></defs><title>画板 26</title><g id="内存卡"><path d="M3,13,0,11.36V3.77A.76.76,0,0,1,.75,3H15.25a.76.76,0,0,1,.75.75V5.33l-.07.12a1.3,1.3,0,0,0-.18.52V6l0,.12s0,.07,0,.11v.08a1.31,1.31,0,0,0,.16.5l.06.11,0,.18v5.12a.76.76,0,0,1-.75.75Z"/><path class="cls-1" d="M15.39,7.18h0a1.81,1.81,0,0,1-.07-.25v0c0-.06,0-.12,0-.18h0a2,2,0,0,1-.06-.37h0c0-.06,0-.12,0-.17v0a1.51,1.51,0,0,1,0-.18h0v0a1.79,1.79,0,0,1,.24-.72V4.72a.26.26,0,0,0-.25-.25H.75a.26.26,0,0,0-.25.25v6.34l2.66,1.43H15.25a.26.26,0,0,0,.25-.25V7.42h0A1.68,1.68,0,0,1,15.39,7.18Z"/><path class="cls-1" d="M15.48,7.07h0a1.79,1.79,0,0,1-.23-.7h0a1.8,1.8,0,0,1,0-.24V6h0c0-.06,0-.12,0-.17v0a1.51,1.51,0,0,1,0-.18h0a1.8,1.8,0,0,1,.25-.71V3.77a.25.25,0,0,0-.25-.25H.75a.25.25,0,0,0-.25.25v6.59l2.66,1.49H15.25c.14,0,.25-.05.25-.19V7.11h0Z"/><path class="cls-2" d="M15.3,7.1a1.76,1.76,0,0,1-.11-.22h0v0h0a1.89,1.89,0,0,1-.13-.74V6.06h0c0-.06,0-.12,0-.17v0a1.76,1.76,0,0,1,0-.18h0A1.8,1.8,0,0,1,15.32,5V4.31a.25.25,0,0,0-.25-.25H1a.25.25,0,0,0-.25.25v6.34l2.44,1.43H15.07a.25.25,0,0,0,.25-.25V7.14h0Z"/><rect class="cls-3" x="3.86" y="4.78" width="10.56" height="5.23" rx="0.31" ry="0.31"/><text class="cls-4" transform="translate(1.64 10.45) scale(0.95 1)">32<tspan class="cls-5" x="1.09" y="0">GB</tspan></text><text class="cls-4" transform="translate(8.24 5.9) scale(0.95 1)">TOTAL 32<tspan class="cls-6" x="4.39" y="0">GB</tspan></text><text class="cls-7" transform="translate(5.05 9.41) scale(0.98 1)">MEMORY</text><text class="cls-7" transform="translate(10.37 9.39) scale(0.98 1)">STICK</text><polygon class="cls-8" points="1.04 10.14 1.22 9.98 1.41 9.83 1.41 10.14 1.41 10.44 1.22 10.29 1.04 10.14"/><path class="cls-8" d="M2.2,4.86a1,1,0,1,0,1,1A1,1,0,0,0,2.2,4.86Zm.35.29a.14.14,0,1,1-.14.14A.14.14,0,0,1,2.56,5.15ZM1.49,6a.14.14,0,1,1,.14-.14A.14.14,0,0,1,1.49,6Zm.11,0a.19.19,0,0,0,0-.32.8.8,0,0,1,.27-.34l.1.17a.4.4,0,0,0-.17.33A.43.43,0,0,0,2,6.23l-.1.17A.75.75,0,0,1,1.6,6.06Zm.53-.42.08-.08h0l0,.1,0,.07-.05.07.08.06.11,0,0,0,0,0,0-.07.07,0v.1h0l0,0h0l-.06,0V6l0,.06-.06.06v0H2.25l.07-.09,0,0h0l-.06.05h0v0H2.15l.05,0L2.25,6l0,0,0,0L2.11,6H2.05l0,.05v.07H1.93l0,0,0,0L2,6V6l0-.1,0-.07,0-.07.06,0h0l.07-.08h0l0,.05Zm.43,1a.14.14,0,1,1,.14-.14A.14.14,0,0,1,2.56,6.65Zm.07-.32H2.54a.18.18,0,0,0-.17.16.6.6,0,0,1-.44,0L2,6.27a.48.48,0,0,0,.38,0,.47.47,0,0,0,.19-.31h.2A.59.59,0,0,1,2.62,6.33Zm0-.47A.41.41,0,0,0,2,5.53l-.09-.17a.6.6,0,0,1,.43,0,.22.22,0,0,0,.1.14.2.2,0,0,0,.16,0,.58.58,0,0,1,.18.39Z"/></g></svg>