<svg id="其他" xmlns="http://www.w3.org/2000/svg" xmlns:xlink="http://www.w3.org/1999/xlink" viewBox="0 0 16 16"><defs><style>.cls-1{fill:none;}.cls-2{fill:#01579b;}.cls-3{fill:#0288d1;}.cls-4{fill:url(#radial-gradient);}.cls-5{opacity:0.7;}.cls-5,.cls-7{isolation:isolate;}.cls-6{fill:#fff;}.cls-7{fill:#f5f5f5;}.cls-8{stroke:#263238;stroke-miterlimit:10;stroke-width:0.5px;fill:url(#radial-gradient-2);}.cls-9{clip-path:url(#clip-path);}.cls-10{fill:url(#radial-gradient-3);}.cls-11{fill:url(#radial-gradient-4);}</style><radialGradient id="radial-gradient" cx="21.62" cy="7.29" r="6.54" gradientTransform="translate(-12.66 1.03) scale(0.96)" gradientUnits="userSpaceOnUse"><stop offset="0" stop-color="#4dd0e1"/><stop offset="0.39" stop-color="#40bee7"/><stop offset="0.61" stop-color="#3fbde7"/><stop offset="0.66" stop-color="#44c4e8"/><stop offset="0.75" stop-color="#2cbee8"/><stop offset="1" stop-color="#2196f3"/></radialGradient><radialGradient id="radial-gradient-2" cx="10.85" cy="5.86" r="4.98" gradientUnits="userSpaceOnUse"><stop offset="0" stop-color="#607d8b"/><stop offset="0.35" stop-color="#607d8b"/><stop offset="0.6" stop-color="#607d8b"/><stop offset="1" stop-color="#455a64"/></radialGradient><clipPath id="clip-path"><path class="cls-1" d="M8.72,1.89h0V9.61a1.87,1.87,0,0,0-.46-.06c-.75,0-1.36.44-1.36,1s.61,1,1.36,1,1.36-.44,1.36-1h0V5.36l5.11-1.05V8.2a1.85,1.85,0,0,0-.46-.06c-.75,0-1.36.44-1.36,1s.61,1,1.36,1,1.36-.44,1.36-1h0V.47Zm6,1.55L9.6,4.49V2.91l5.11-1.05Z"/></clipPath><radialGradient id="radial-gradient-3" cx="-230.34" cy="64.23" r="1.17" gradientTransform="translate(308.14 -58.98) scale(1.3 1.08)" gradientUnits="userSpaceOnUse"><stop offset="0.37" stop-color="#5f7b8a"/><stop offset="1" stop-color="#455a64" stop-opacity="0"/></radialGradient><radialGradient id="radial-gradient-4" cx="-225.91" cy="63.15" r="1.17" gradientTransform="translate(308.14 -59.18) scale(1.3 1.08)" xlink:href="#radial-gradient-3"/></defs><title>画板 26</title><g id="光盘-音乐"><path class="cls-2" d="M8,16a8,8,0,1,1,8-8A8,8,0,0,1,8,16ZM8,7.25A.75.75,0,1,0,8.75,8,.75.75,0,0,0,8,7.25Z"/><path class="cls-3" d="M8,.5A7.5,7.5,0,1,0,15.5,8,7.5,7.5,0,0,0,8,.5ZM8,15.28A7.28,7.28,0,1,1,15.28,8,7.29,7.29,0,0,1,8,15.28Z"/><path class="cls-4" d="M8,1.75A6.25,6.25,0,1,0,14.25,8,6.26,6.26,0,0,0,8,1.75Zm0,8.44A2.19,2.19,0,1,1,10.19,8,2.19,2.19,0,0,1,8,10.19Z"/><g class="cls-5"><path class="cls-6" d="M10.18,8.14,14,8.4h.22a6.28,6.28,0,0,0-.4-2.62L10,7.22A2.21,2.21,0,0,1,10.18,8.14Z"/><path class="cls-6" d="M5.82,7.86,2,7.6H1.76a6.28,6.28,0,0,0,.4,2.61L6,8.78A2.21,2.21,0,0,1,5.82,7.86Z"/></g><g class="cls-5"><path class="cls-6" d="M9.89,6.9,13.21,5l.18-.13A6.29,6.29,0,0,0,11.6,2.89L9.26,6.21A2.19,2.19,0,0,1,9.89,6.9Z"/><path class="cls-6" d="M6.11,9.1,2.79,11l-.18.13A6.29,6.29,0,0,0,4.4,13.11L6.74,9.79A2.19,2.19,0,0,1,6.11,9.1Z"/></g><path class="cls-7" d="M8,.75A7.25,7.25,0,1,0,15.25,8,7.26,7.26,0,0,0,8,.75ZM8,14.22A6.22,6.22,0,1,1,14.22,8,6.23,6.23,0,0,1,8,14.22Z"/><path class="cls-3" d="M8,5.75A2.25,2.25,0,1,0,10.25,8,2.25,2.25,0,0,0,8,5.75ZM8,10a2,2,0,1,1,2-2A2,2,0,0,1,8,10Z"/><path class="cls-7" d="M8,6a2,2,0,1,0,2,2A2,2,0,0,0,8,6ZM8,9A1,1,0,1,1,9,8,1,1,0,0,1,8,9Z"/><path class="cls-8" d="M8.72,1.89h0V9.61a1.87,1.87,0,0,0-.46-.06c-.75,0-1.36.44-1.36,1s.61,1,1.36,1,1.36-.44,1.36-1h0V5.36l5.11-1.05V8.2a1.85,1.85,0,0,0-.46-.06c-.75,0-1.36.44-1.36,1s.61,1,1.36,1,1.36-.44,1.36-1h0V.47Zm6,1.55L9.6,4.49V2.91l5.11-1.05Z"/><g class="cls-9"><ellipse class="cls-10" cx="8.17" cy="10.2" rx="1.26" ry="1.02"/><ellipse class="cls-11" cx="13.95" cy="8.83" rx="1.26" ry="1.02"/></g></g></svg>