<svg id="其他" xmlns="http://www.w3.org/2000/svg" xmlns:xlink="http://www.w3.org/1999/xlink" viewBox="0 0 16 16"><defs><style>.cls-1{stroke:#000;stroke-miterlimit:10;stroke-width:0.5px;fill:url(#未命名的渐变_46);}.cls-2{fill:#616161;}.cls-3,.cls-5,.cls-6{fill-rule:evenodd;}.cls-3{fill:url(#新建渐变色板_6);}.cls-4,.cls-6{fill:#fff;}.cls-5{fill:url(#未命名的渐变_38);}.cls-7{font-size:4.15px;fill:#263238;font-family:Arial-BoldMT, Arial;font-weight:700;}</style><linearGradient id="未命名的渐变_46" x1="8" y1="1.56" x2="8" y2="25.44" gradientUnits="userSpaceOnUse"><stop offset="0" stop-color="#211d1e"/><stop offset="0.55" stop-color="#58595b"/><stop offset="1" stop-color="#abb6be"/></linearGradient><linearGradient id="新建渐变色板_6" x1="8" y1="13.23" x2="8" y2="2.83" gradientUnits="userSpaceOnUse"><stop offset="0" stop-color="#cfd8dc"/><stop offset="1" stop-color="#fff"/></linearGradient><linearGradient id="未命名的渐变_38" x1="8" y1="7.29" x2="8" y2="3.44" gradientUnits="userSpaceOnUse"><stop offset="0" stop-color="#f5a816"/><stop offset="1" stop-color="#f9ce1d"/></linearGradient></defs><title>画板 26</title><g id="cf"><g id="_16" data-name="16"><rect class="cls-1" x="0.25" y="1.56" width="15.5" height="12.89" rx="0.61" ry="0.61"/><path class="cls-2" d="M15.11,2.2V13.8H.89V2.2H15.11m.1-.1H.79V13.9H15.21V2.1Z"/><path class="cls-3" d="M14.31,2.83H1.69a.38.38,0,0,0-.38.38V7.29h.38v5.56a.38.38,0,0,0,.38.38H13.93a.38.38,0,0,0,.38-.38V7.29h.38V3.21A.38.38,0,0,0,14.31,2.83Z"/><rect class="cls-4" x="3.37" y="2.13" width="9.25" height="11.86" rx="0.38" ry="0.38" transform="translate(16.06 0.06) rotate(90)"/><path class="cls-5" d="M13.93,7.29V3.82a.38.38,0,0,0-.38-.38H2.45a.38.38,0,0,0-.38.38V7.29Z"/><polygon class="cls-6" points="8.13 4.29 6.4 6.37 9.85 6.37 8.13 4.29"/><text class="cls-7" transform="translate(5.63 12.02)">CF2</text></g></g></svg>