<?xml version="1.0" encoding="utf-8"?>
<!-- Generator: Adobe Illustrator 17.1.0, SVG Export Plug-In . SVG Version: 6.00 Build 0)  -->
<!DOCTYPE svg PUBLIC "-//W3C//DTD SVG 1.1//EN" "http://www.w3.org/Graphics/SVG/1.1/DTD/svg11.dtd">
<svg version="1.1"
	 id="svg2" inkscape:version="0.48.4 r9939" sodipodi:docname="computer.svg" xmlns:cc="http://creativecommons.org/ns#" xmlns:sodipodi="http://sodipodi.sourceforge.net/DTD/sodipodi-0.dtd" xmlns:dc="http://purl.org/dc/elements/1.1/" xmlns:rdf="http://www.w3.org/1999/02/22-rdf-syntax-ns#" xmlns:svg="http://www.w3.org/2000/svg" xmlns:inkscape="http://www.inkscape.org/namespaces/inkscape"
	 xmlns="http://www.w3.org/2000/svg" xmlns:xlink="http://www.w3.org/1999/xlink" x="0px" y="0px" width="16px" height="16px"
	 viewBox="0 0 16 16" enable-background="new 0 0 16 16" xml:space="preserve">
<g>
	<path fill="#01579B" d="M8,16c-4.4,0-8-3.6-8-8s3.6-8,8-8s8,3.6,8,8S12.4,16,8,16z M7.9,7.3C7.5,7.3,7.3,7.5,7.3,8s0.2,0.8,0.7,0.8
		S8.8,8.5,8.8,8S8.3,7.3,7.9,7.3z"/>
	<path fill="#0288D1" d="M8,0.5C3.9,0.5,0.5,3.9,0.5,8s3.4,7.5,7.5,7.5s7.5-3.4,7.5-7.5S12.1,0.5,8,0.5z M8,15.2
		C4,15.2,0.8,12,0.8,8S4,0.8,8,0.8S15.3,4,15.3,8S12,15.2,8,15.2z"/>
	
		<radialGradient id="SVGID_1_" cx="-13.8158" cy="523.3978" r="6.5402" gradientTransform="matrix(0.948 0 0 0.948 21.0711 -488.2887)" gradientUnits="userSpaceOnUse">
		<stop  offset="0" style="stop-color:#4DD0E1"/>
		<stop  offset="0.3925" style="stop-color:#40BEE7"/>
		<stop  offset="0.6129" style="stop-color:#3FBDE7"/>
		<stop  offset="0.6613" style="stop-color:#44C4E8"/>
		<stop  offset="0.7527" style="stop-color:#2CBEE8"/>
		<stop  offset="1" style="stop-color:#2196F3"/>
	</radialGradient>
	<path fill="url(#SVGID_1_)" d="M8,1.8C4.6,1.8,1.8,4.5,1.8,8s2.8,6.3,6.3,6.3s6.3-2.8,6.3-6.3S11.4,1.8,8,1.8z M8,10.1
		c-1.2,0-2.2-1-2.2-2.2s1-2.2,2.2-2.2s2.2,1,2.2,2.2S9.2,10.1,8,10.1z"/>
	<g opacity="0.7" enable-background="new    ">
		<path fill="#FFFFFF" d="M10.3,8.1l3.8,0.3h0.2c0.1-0.9-0.1-1.8-0.4-2.6l-3.8,1.4C10.3,7.5,10.3,7.8,10.3,8.1z"/>
		<path fill="#FFFFFF" d="M5.8,7.9L2,7.6H1.8c-0.1,0.9,0.1,1.8,0.4,2.6L6,8.8C5.8,8.5,5.8,8.2,5.8,7.9z"/>
	</g>
	<g opacity="0.7" enable-background="new    ">
		<path fill="#FFFFFF" d="M10,7l3.4-1.8l0.2-0.1c-0.5-0.8-1.1-1.4-1.8-2L9.4,6.4C9.6,6.5,9.8,6.7,10,7z"/>
		<path fill="#FFFFFF" d="M6,9l-3.4,1.8l-0.2,0.1c0.5,0.8,1.1,1.4,1.8,2l2.5-3.2C6.4,9.5,6.2,9.3,6,9z"/>
	</g>
	<path fill="#F5F5F5" d="M7.9,0.7C3.9,0.7,0.7,4,0.7,8s3.2,7.3,7.2,7.3S15.3,12,15.3,8S11.9,0.7,7.9,0.7z M8,14.3
		c-3.4,0-6.3-2.8-6.3-6.3S4.6,1.8,8,1.8s6.3,2.8,6.3,6.2S11.4,14.3,8,14.3z"/>
	<path fill="#0288D1" d="M8,5.5C6.7,5.5,5.5,6.6,5.5,8s1.1,2.5,2.5,2.5s2.5-1.1,2.5-2.5S9.3,5.5,8,5.5z M8,10c-1.1,0-2-0.9-2-2
		s0.9-2,2-2s2,0.9,2,2S9.1,10,8,10z"/>
	<path fill="#F5F5F5" d="M8,6C6.9,6,6,6.9,6,8s0.9,2,2,2s2-0.9,2-2S9.1,6,8,6z M8,9C7.4,9,7,8.6,7,8s0.4-1,1-1s1,0.4,1,1S8.6,9,8,9z
		"/>
</g>
</svg>
