<svg id="其他" xmlns="http://www.w3.org/2000/svg" xmlns:xlink="http://www.w3.org/1999/xlink" viewBox="0 0 16 16"><defs><style>.cls-1{fill:#325468;}.cls-2{fill:#4e7693;}.cls-3{fill:url(#未命名的渐变_116);}.cls-4{opacity:0.7;}.cls-4,.cls-6{isolation:isolate;}.cls-5{fill:#fff;}.cls-6{fill:#f5f5f5;}</style><radialGradient id="未命名的渐变_116" cx="21.62" cy="7.29" r="6.54" gradientTransform="translate(-12.66 1.03) scale(0.96)" gradientUnits="userSpaceOnUse"><stop offset="0" stop-color="#789db8"/><stop offset="0.39" stop-color="#789db8"/><stop offset="0.61" stop-color="#789db8"/><stop offset="0.66" stop-color="#7ba0ba"/><stop offset="0.75" stop-color="#6e96b3"/><stop offset="1" stop-color="#6e96b3"/></radialGradient></defs><title>画板 26</title><g id="光盘"><path class="cls-1" d="M8,16a8,8,0,1,1,8-8A8,8,0,0,1,8,16ZM8,7.25A.75.75,0,1,0,8.75,8,.75.75,0,0,0,8,7.25Z"/><path class="cls-2" d="M8,.5A7.5,7.5,0,1,0,15.5,8,7.5,7.5,0,0,0,8,.5ZM8,15.28A7.28,7.28,0,1,1,15.28,8,7.29,7.29,0,0,1,8,15.28Z"/><path class="cls-3" d="M8,1.75A6.25,6.25,0,1,0,14.25,8,6.26,6.26,0,0,0,8,1.75Zm0,8.44A2.19,2.19,0,1,1,10.19,8,2.19,2.19,0,0,1,8,10.19Z"/><g class="cls-4"><path class="cls-5" d="M10.18,8.14,14,8.4h.22a6.28,6.28,0,0,0-.4-2.62L10,7.22A2.21,2.21,0,0,1,10.18,8.14Z"/><path class="cls-5" d="M5.82,7.86,2,7.6H1.76a6.28,6.28,0,0,0,.4,2.61L6,8.78A2.21,2.21,0,0,1,5.82,7.86Z"/></g><g class="cls-4"><path class="cls-5" d="M9.89,6.9,13.21,5l.18-.13A6.29,6.29,0,0,0,11.6,2.89L9.26,6.21A2.19,2.19,0,0,1,9.89,6.9Z"/><path class="cls-5" d="M6.11,9.1,2.79,11l-.18.13A6.29,6.29,0,0,0,4.4,13.11L6.74,9.79A2.19,2.19,0,0,1,6.11,9.1Z"/></g><path class="cls-6" d="M8,.75A7.25,7.25,0,1,0,15.25,8,7.26,7.26,0,0,0,8,.75ZM8,14.22A6.22,6.22,0,1,1,14.22,8,6.23,6.23,0,0,1,8,14.22Z"/><path class="cls-2" d="M8,5.75A2.25,2.25,0,1,0,10.25,8,2.25,2.25,0,0,0,8,5.75ZM8,10a2,2,0,1,1,2-2A2,2,0,0,1,8,10Z"/><path class="cls-6" d="M8,6a2,2,0,1,0,2,2A2,2,0,0,0,8,6ZM8,9A1,1,0,1,1,9,8,1,1,0,0,1,8,9Z"/></g></svg>