<svg xmlns="http://www.w3.org/2000/svg" xmlns:xlink="http://www.w3.org/1999/xlink" viewBox="0 0 16 16"><defs><style>.cls-1,.cls-10,.cls-7{fill:none;}.cls-2{fill:url(#radial-gradient);}.cls-3{fill:#455a64;}.cls-4{fill:#1f2f35;}.cls-5{fill:url(#radial-gradient-2);}.cls-6{clip-path:url(#clip-path);}.cls-7{stroke:#3b647a;stroke-width:1.7px;}.cls-10,.cls-7{stroke-miterlimit:10;}.cls-8{fill:url(#linear-gradient);}.cls-9{fill:url(#linear-gradient-2);}.cls-10{stroke:#121b1e;stroke-width:0.5px;}</style><radialGradient id="radial-gradient" cx="144.27" cy="9.58" r="18.14" gradientTransform="translate(-73.29 -0.39) scale(0.57)" gradientUnits="userSpaceOnUse"><stop offset="0" stop-color="#455a64"/><stop offset="1" stop-color="#263238"/></radialGradient><radialGradient id="radial-gradient-2" cx="143.82" cy="9.37" r="9.62" gradientTransform="translate(-73.29 -1.5) scale(0.57 0.5)" gradientUnits="userSpaceOnUse"><stop offset="0" stop-color="#263238"/><stop offset="1" stop-color="#161d21"/></radialGradient><clipPath id="clip-path"><rect class="cls-1" x="0.5" y="1.66" width="15" height="3"/></clipPath><linearGradient id="linear-gradient" x1="8.62" y1="6.27" x2="8.62" y2="12.77" gradientUnits="userSpaceOnUse"><stop offset="0" stop-color="#01579b"/><stop offset="1" stop-color="#008ac4"/></linearGradient><linearGradient id="linear-gradient-2" x1="8.56" y1="6.37" x2="8.56" y2="12.34" gradientUnits="userSpaceOnUse"><stop offset="0" stop-color="#03a9f4"/><stop offset="1" stop-color="#01579b"/></linearGradient></defs><title>画板 26</title><g id="开始菜单应用图标"><g id="视频"><g id="_16" data-name="16"><rect class="cls-2" x="0.5" y="1.66" width="15" height="12.68"/><rect class="cls-3" x="0.5" y="5.21" width="15" height="0.8"/><rect class="cls-4" x="0.5" y="1.8" width="15" height="3.55"/><rect class="cls-5" x="0.5" y="1.66" width="15" height="3"/><g class="cls-6"><line class="cls-7" x1="0.58" y1="0.9" x2="3.91" y2="7.82"/><line class="cls-7" x1="4.76" y1="0.9" x2="8.09" y2="7.82"/><line class="cls-7" x1="8.94" y1="0.9" x2="12.27" y2="7.82"/><line class="cls-7" x1="13.11" y1="0.9" x2="16.45" y2="7.82"/></g><polygon class="cls-8" points="5.8 6.27 11.43 9.52 5.8 12.77 5.8 6.27"/><polygon class="cls-9" points="5.96 6.52 11.15 9.52 5.96 12.52 5.96 6.52"/><rect class="cls-10" x="0.5" y="1.66" width="15" height="12.68"/></g></g></g></svg>