<?xml version="1.0" encoding="utf-8"?>
<!-- Generator: Adobe Illustrator 21.0.0, SVG Export Plug-In . SVG Version: 6.00 Build 0)  -->
<svg version="1.1" id="图层_1" xmlns="http://www.w3.org/2000/svg" xmlns:xlink="http://www.w3.org/1999/xlink" x="0px" y="0px"
	 viewBox="0 0 16 16" style="enable-background:new 0 0 16 16;" xml:space="preserve">
<style type="text/css">
	.st0{fill:url(#SVGID_1_);}
	.st1{fill:#1C3251;}
	.st2{fill:#FFFFFF;}
</style>
<title>16</title>
<g id="底板_复制">
	<g id="深蓝色">
		<g id="_16">
			
				<linearGradient id="SVGID_1_" gradientUnits="userSpaceOnUse" x1="8" y1="2.4975" x2="8" y2="17.4988" gradientTransform="matrix(1 0 0 -1 0 18)">
				<stop  offset="0" style="stop-color:#0E3A69"/>
				<stop  offset="1" style="stop-color:#5576BF"/>
			</linearGradient>
			<path class="st0" d="M13.8,13.8c-2.3,2.3-9.3,2.3-11.6,0s-2.3-9.3,0-11.6s9.3-2.3,11.6,0S16.1,11.5,13.8,13.8z"/>
		</g>
	</g>
</g>
<g id="samba-深蓝色">
	<polygon class="st1" points="5.8,5.7 11.6,5.7 11.6,6.3 13.2,5 11.6,3.7 11.6,4.3 4.4,4.3 4.4,9 10.8,9 10.8,10.8 5.1,10.8 
		5.1,10.2 3.5,11.5 5.1,12.8 5.1,12.2 12.2,12.2 12.2,7.7 12.2,7.6 5.8,7.6 	"/>
	<polygon class="st2" points="5.1,5.2 10.9,5.2 10.9,5.8 12.5,4.5 10.9,3.2 10.9,3.8 3.8,3.8 3.8,8.4 10.2,8.4 10.2,10.3 4.4,10.3 
		4.4,9.7 2.8,11 4.4,12.3 4.4,11.6 11.5,11.6 11.5,7.1 11.5,7.1 5.1,7.1 	"/>
</g>
</svg>
