<svg xmlns="http://www.w3.org/2000/svg" xmlns:xlink="http://www.w3.org/1999/xlink" viewBox="0 0 16 16"><defs><style>.cls-1{fill:#9e9e9e;}.cls-2{fill:#221e1f;}.cls-3{fill:url(#radial-gradient);}.cls-4{fill:#6c6e70;}.cls-11,.cls-5{opacity:0.7;}.cls-11,.cls-5,.cls-7{isolation:isolate;}.cls-5{fill:url(#linear-gradient);}.cls-6{fill:url(#linear-gradient-2);}.cls-7{fill:#fff;opacity:0.2;}.cls-8{fill:#616161;}.cls-9{fill:url(#linear-gradient-3);}.cls-10{opacity:0.8;fill:url(#linear-gradient-4);}.cls-11{fill:url(#linear-gradient-5);}.cls-12{opacity:0.5;}.cls-13{fill:#90a4ae;}.cls-14{fill:url(#linear-gradient-6);}.cls-15{fill:#8dc21f;}.cls-16{fill:none;stroke:#455a64;stroke-miterlimit:10;stroke-width:0.5px;}</style><radialGradient id="radial-gradient" cx="7.93" cy="9395.9" r="4.28" gradientTransform="translate(0.08 -553.41) scale(1 0.06)" gradientUnits="userSpaceOnUse"><stop offset="0" stop-color="#717573"/><stop offset="1" stop-color="#000102"/></radialGradient><linearGradient id="linear-gradient" x1="8.01" y1="11.54" x2="8.08" y2="7.98" gradientUnits="userSpaceOnUse"><stop offset="0" stop-color="#fff"/><stop offset="1" stop-color="#e0e0e0"/></linearGradient><linearGradient id="linear-gradient-2" x1="4.58" y1="798.36" x2="12.2" y2="806.42" gradientTransform="translate(0.08 -793.95)" gradientUnits="userSpaceOnUse"><stop offset="0" stop-color="#b3e5fc"/><stop offset="0.16" stop-color="#4dd0e1"/><stop offset="0.47" stop-color="#00bcd4"/><stop offset="0.9" stop-color="#0288d1"/><stop offset="1" stop-color="#1976d2"/></linearGradient><linearGradient id="linear-gradient-3" x1="4.44" y1="796.8" x2="12.32" y2="805.13" gradientTransform="translate(0.08 -793.95)" gradientUnits="userSpaceOnUse"><stop offset="0" stop-color="#808183"/><stop offset="1" stop-color="#221e1f"/></linearGradient><linearGradient id="linear-gradient-4" x1="3.87" y1="5.44" x2="17.67" y2="5.44" gradientUnits="userSpaceOnUse"><stop offset="0" stop-color="#fff"/><stop offset="1" stop-color="#fff" stop-opacity="0"/></linearGradient><linearGradient id="linear-gradient-5" x1="8" y1="-1.17" x2="8" y2="8.74" xlink:href="#linear-gradient"/><linearGradient id="linear-gradient-6" x1="13.56" y1="806.08" x2="13.93" y2="806.55" gradientTransform="translate(0.08 -793.95)" gradientUnits="userSpaceOnUse"><stop offset="0" stop-color="#006934"/><stop offset="1" stop-color="#8dc21f"/></linearGradient></defs><title>画板 26</title><g id="开始菜单应用图标"><g id="扫描仪"><g id="_16" data-name="16"><path class="cls-1" d="M15.39,12h0L13.54,3.41a1,1,0,0,0-.91-.66H3.28a.92.92,0,0,0-.34.11.88.88,0,0,0-.48.55c-.12.44-.87,4-1.37,6.43,0,0-.44,1.78-.49,2.07a2.66,2.66,0,0,0,0,1,.75.75,0,0,0,.21.36.89.89,0,0,0,.65.24H14.54a.74.74,0,0,0,.8-.61,3.59,3.59,0,0,0,.07-.78Z"/><path class="cls-2" d="M15,11.74a.67.67,0,0,0-.21-.56c-.1-.14-.57-.13-1.07-.13h-12a1.6,1.6,0,0,0-.69.13.41.41,0,0,0-.13.24s-.07.2-.07.26a2.1,2.1,0,0,0,0,.35c0,.08,0,.54,0,.58a2.38,2.38,0,0,0,.06.24c0,.06.11.23.18.26a3.78,3.78,0,0,0,.9.13H13.93a2.51,2.51,0,0,0,.75-.07l.17-.15h0l0,0A2.38,2.38,0,0,0,15,11.74"/><path class="cls-3" d="M15,11.44v1s-3,0-3.63,0S9.48,13,8,13a34.6,34.6,0,0,1-3.75-.53H1v-1Z"/><path class="cls-4" d="M2.84,3.5l-2,8.3a1,1,0,0,0,0,.28c0,.1.06.62.06.62.1.62.84.61.84.61H14.3a.72.72,0,0,0,.77-.59,3.41,3.41,0,0,0,.06-.74v-.16h0l-2-8.21c0-.48-.48-.65-.74-.68H3.66C3,3,2.87,3.29,2.84,3.5Zm.13,0c0-.2.17-.44.7-.44h8.71s.64.07.63.55v0l2,8.21h0V12a3.18,3.18,0,0,1-.06.73.59.59,0,0,1-.64.48H1.71a.6.6,0,0,1-.65-.47A6.78,6.78,0,0,1,1,12C1,11.8,3,3.51,3,3.51Z"/><path class="cls-5" d="M.87,12.05a1.08,1.08,0,0,1,.94-.74H14.45a.65.65,0,0,1,.68.52L13.35,3.59A.94.94,0,0,0,12.47,3H3.55a1,1,0,0,0-.89.66C2.47,4.26.87,12.05.87,12.05Z"/><polygon class="cls-6" points="2.08 11.05 13.94 11.05 12.3 3.14 3.78 3.14 3.62 3.14 2.08 11.05"/><path class="cls-7" d="M13.94,11C13.48,8.92,13.51,9,13.3,8c-1-.23-2.63.64-4.79,1.63-2.79,1.27-5.16.42-6.32.86,0,.29,0,.07-.11.58Z"/><polygon class="cls-8" points="0.5 8.4 0.5 8.76 15.5 8.76 15.5 8.4 13.44 2.48 2.65 2.48 2.44 2.48 0.5 8.4"/><polygon class="cls-9" points="0.5 8.4 15.5 8.4 13.44 2.48 2.65 2.48 2.44 2.48 0.5 8.4"/><polygon class="cls-10" points="13.44 2.48 3.87 2.48 6.37 8.4 15.5 8.4 13.44 2.48"/><polygon class="cls-11" points="0.5 8.4 15.5 8.4 13.44 2.48 2.65 2.48 2.44 2.48 0.5 8.4"/><g class="cls-12"><rect class="cls-13" x="2.44" y="2.48" width="10.99" height="0.27"/></g><path class="cls-14" d="M13.81,12.68a.33.33,0,1,0-.33-.33A.33.33,0,0,0,13.81,12.68Z"/><path class="cls-15" d="M13.81,12.62a.27.27,0,1,0-.27-.27A.27.27,0,0,0,13.81,12.62Z"/><path class="cls-16" d="M15.5,8.76V8.4L13.44,2.48h-11L.5,8.4v.36h.82L1.09,9.87S.65,11.64.59,11.93a2.66,2.66,0,0,0,0,1,.75.75,0,0,0,.21.36.89.89,0,0,0,.65.24H14.54a.74.74,0,0,0,.8-.61,3.59,3.59,0,0,0,.07-.78V12h0L14.7,8.76Z"/></g></g></g></svg>