<?xml version="1.0" encoding="iso-8859-1"?>
<!-- Generator: Adobe Illustrator 21.0.0, SVG Export Plug-In . SVG Version: 6.00 Build 0)  -->
<svg version="1.0" id="&#x56FE;&#x5C42;_1" xmlns="http://www.w3.org/2000/svg" xmlns:xlink="http://www.w3.org/1999/xlink" x="0px"
	 y="0px" width="32px" height="32px" viewBox="0 0 32 32" enable-background="new 0 0 32 32" xml:space="preserve">
<title>32</title>
<g id="&#x5E95;&#x677F;_&#x590D;&#x5236;">
	<g id="&#x6DF1;&#x7070;&#x8272;">
		<g id="_32">
			<g opacity="0.2">
				<path d="M16,30.5c-4.9,0-9.1-1.3-11.2-3.3S1.5,20.9,1.5,16S2.8,6.9,4.8,4.8S11.1,1.5,16,1.5s9.1,1.3,11.2,3.3s3.3,6.3,3.3,11.2
					s-1.3,9.1-3.3,11.2S20.9,30.5,16,30.5z"/>
			</g>
			<g opacity="8.000000e-02">
				<path d="M16.5,31.5c-5,0-9.4-1.3-11.5-3.5s-3.5-6.6-3.5-11.5S2.8,7.1,5,5s6.5-3.5,11.5-3.5S25.9,2.8,28,5s3.5,6.5,3.5,11.5
					S30.2,25.9,28,28S21.5,31.5,16.5,31.5z"/>
			</g>
			<g opacity="0.1">
				<path d="M16.5,31c-4.9,0-9.1-1.3-11.2-3.3S2,21.4,2,16.5S3.3,7.4,5.3,5.3S11.6,2,16.5,2s9.1,1.3,11.2,3.3S31,11.6,31,16.5
					s-1.3,9.1-3.3,11.2S21.4,31,16.5,31z"/>
			</g>
			<g id="_32-2">
				
					<linearGradient id="SVGID_1_" gradientUnits="userSpaceOnUse" x1="16" y1="-12.0325" x2="16" y2="15.9725" gradientTransform="matrix(1 0 0 -1 0 17.9698)">
					<stop  offset="0" style="stop-color:#CFD8DC"/>
					<stop  offset="1" style="stop-color:#EBECF2"/>
				</linearGradient>
				<path fill="url(#SVGID_1_)" d="M26.8,26.8C22.6,31,9.4,31,5.1,26.8S0.9,9.4,5.2,5.2s17.4-4.2,21.7,0S31.1,22.6,26.8,26.8z"/>
			</g>
		</g>
	</g>
</g>
<g id="&#x56FE;&#x5C42;_139">
	<g id="_32-3">
		<polyline opacity="0.2" enable-background="new    " points="9.6,6.5 22.4,6.5 24.5,9.4 24.5,25.5 7.5,25.5 7.5,9.4 9.6,6.5 		"/>
		
			<linearGradient id="SVGID_2_" gradientUnits="userSpaceOnUse" x1="15.5" y1="4137.77" x2="15.5" y2="4126.02" gradientTransform="matrix(1 0 0 1 0 -4109.9702)">
			<stop  offset="0" style="stop-color:#90A4AE"/>
			<stop  offset="1" style="stop-color:#E0E0E0"/>
		</linearGradient>
		<rect x="7" y="9" fill="url(#SVGID_2_)" width="17" height="16"/>
		<rect x="7" y="24.5" fill="#455A64" width="17" height="0.5"/>
		
			<linearGradient id="SVGID_3_" gradientUnits="userSpaceOnUse" x1="15.5" y1="4112.4102" x2="15.5" y2="4119.0298" gradientTransform="matrix(1 0 0 1 0 -4109.9702)">
			<stop  offset="0" style="stop-color:#90A4AE"/>
			<stop  offset="1" style="stop-color:#E0E0E0"/>
		</linearGradient>
		<polygon fill="url(#SVGID_3_)" points="9.1,6 7,9 24,9 21.9,6 		"/>
		<rect x="8" y="9" fill="#0288D1" width="15" height="5"/>
		
			<linearGradient id="SVGID_4_" gradientUnits="userSpaceOnUse" x1="15.5" y1="4122.9702" x2="15.5" y2="4119.9702" gradientTransform="matrix(1 0 0 1 0 -4109.9702)">
			<stop  offset="0" style="stop-color:#03A9F4"/>
			<stop  offset="1" style="stop-color:#4FC3F7"/>
		</linearGradient>
		<rect x="9" y="10" fill="url(#SVGID_4_)" width="13" height="3"/>
		<rect x="8" y="15" fill="#0288D1" width="15" height="8"/>
		
			<linearGradient id="SVGID_5_" gradientUnits="userSpaceOnUse" x1="15.5" y1="4131.9702" x2="15.5" y2="4125.9702" gradientTransform="matrix(1 0 0 1 0 -4109.9702)">
			<stop  offset="0" style="stop-color:#03A9F4"/>
			<stop  offset="1" style="stop-color:#4FC3F7"/>
		</linearGradient>
		<rect x="9" y="16" fill="url(#SVGID_5_)" width="13" height="6"/>
		<polygon fill="#CFD8DC" stroke="#455A64" stroke-width="0.5" stroke-miterlimit="10" points="14,9.5 14.6,11.5 17.4,11.5 18,9.5 
					"/>
		<polygon fill="#CFD8DC" stroke="#455A64" stroke-width="0.5" stroke-miterlimit="10" points="14,14.5 14.6,16.5 17.4,16.5 
			18,14.5 		"/>
		<rect x="8" y="14" fill="#90A4AE" width="15" height="1"/>
		<rect x="7" y="9" fill="#90A4AE" width="17" height="1"/>
	</g>
</g>
</svg>
