<?xml version="1.0" encoding="utf-8"?>
<!-- Generator: Adobe Illustrator 21.0.0, SVG Export Plug-In . SVG Version: 6.00 Build 0)  -->
<svg version="1.1" id="图层_1" xmlns="http://www.w3.org/2000/svg" xmlns:xlink="http://www.w3.org/1999/xlink" x="0px" y="0px"
	 viewBox="0 0 24 24" style="enable-background:new 0 0 24 24;" xml:space="preserve">
<style type="text/css">
	.st0{fill:#0D47A1;}
	.st1{fill:url(#SVGID_1_);}
	.st2{fill:#0D47A1;fill-opacity:0.39;}
	.st3{fill:#FFFFFF;fill-opacity:0.45;}
	.st4{fill:#64B5F6;}
	.st5{fill:#FFFFFF;fill-opacity:0.8;}
</style>
<title>application-vnd.oasis.opendocument.text-web</title>
<path class="st0" d="M20,2v14l-6,6H4V2H20 M21,1H3v22h11l7-7V1z"/>
<linearGradient id="SVGID_1_" gradientUnits="userSpaceOnUse" x1="12" y1="1534" x2="12" y2="1554" gradientTransform="matrix(1 0 0 1 0 -1532)">
	<stop  offset="0" style="stop-color:#64B5F6"/>
	<stop  offset="0.22" style="stop-color:#5FB1F4"/>
	<stop  offset="0.46" style="stop-color:#52A6ED"/>
	<stop  offset="0.71" style="stop-color:#3B93E2"/>
	<stop  offset="0.98" style="stop-color:#1C79D3"/>
	<stop  offset="1" style="stop-color:#1976D2"/>
</linearGradient>
<polygon class="st1" points="4,22 4,2 20,2 20,16 14,22 "/>
<polygon class="st2" points="20,16 20,15 13,15 13,22 14,22 "/>
<path class="st3" d="M14,16h6l-6,6V16z"/>
<path class="st4" d="M17,9c0,2.8-2.2,5-5,5s-5-2.2-5-5s2.2-5,5-5S17,6.2,17,9z"/>
<path class="st5" d="M8.7,5.2c0.1,0,0.1,0.1,0.1,0.1C8.9,5.5,9,5.5,9,5.5h0.2l0.2-0.1L9.3,5.5c0,0-1.2,0.6-1,0.9s0.2,0.4,0.2,0.5
	s0.1,0,0.1,0l0.1-0.2l0.1-0.1l0.1-0.2v0L9,6.1L9.2,6l0.2,0.1c0,0,0.1,0,0.1,0.1s0,0.2,0,0.2s0,0.1,0.1,0.1s0.1,0,0.1-0.1l0.1,0.1
	l0.1,0.2L10,6.9V7v0.2l0,0l0.2,0.2v0.1H9.9c0,0,0-0.1-0.1-0.1H9.6H9.4v0.1L9.3,7.6L9,7.7c-0.1,0-0.1,0-0.2,0.1c0,0,0.1,0.1,0.1,0.1
	L8.7,8H8.6L8.4,8.1v0.1l0,0.1v0.1L8.3,8.5L8.1,8.6v0.1v0.2V9v0.2c0,0-0.1,0-0.1-0.1v0L7.9,8.9c0,0,0.1,0,0-0.1L7.8,8.7H7.7
	c-0.1,0,0.1,0-0.1,0H7.4L7.3,8.9V9c0,0,0,0.6,0.1,0.7h0.1l0.1-0.2h0.1v0.1v0.1v0.1l0.1,0.1l0.1,0.2c0.1,0.1,0,0.2,0.1,0.2l0.1,0.1
	h0.1h0.1h0.1v0.1v0.1l0.1,0.1h0.2c0,0,0,0,0.1,0.1s0,0,0.1,0h0.2h0.1l0.1,0.1c0.1,0,0.1,0,0.1,0.1s0,0.1-0.1,0.1c0,0.1-0.1,0,0,0.1
	s0,0,0.1,0.1s0,0,0.1,0s0.1,0,0.2,0c0.1,0,0.1,0.1,0.1,0.1l0.1,0.1v0.2c0,0-0.1,0,0.1,0h0c0.1,0,0,0,0.1,0h0.1l0.2,0.1
	c0.1,0,0.1,0,0.2,0c0.1,0,0.1,0.1,0.2,0.1s0.1,0,0.2,0.1l0.1,0.1v0.2L11,12.4l-0.1,0.1v0.2l-0.1,0.2V13c0,0,0.1,0.1-0.1,0.1h-0.2
	l-0.1,0.1c0,0,0,0,0,0.1l-0.1,0.1v0.2v0.1l-0.1,0.1c0,0,0,0,0.1,0.1s0.3,0.1,0.3,0.1l0.1,0.1h-0.2h-0.1L10.2,14L10,13.6
	c-0.3-0.2-0.6-0.5-0.8-0.9c-0.1-0.1-0.2-0.3-0.4-0.3c-0.3-0.2-0.5-0.5-0.7-0.7v-0.1l0,0l0,0v-0.1l0,0V11l0,0v-0.1l0,0l0.1-0.1v-0.1
	l0,0h0.1v-0.1l-0.1-0.1l0,0v0.1l0,0l0,0l0,0l0,0l0,0l0,0v-0.1l0,0v-0.1l0,0l-0.1-0.1v-0.1l0,0l0,0L7.5,10L7.4,9.9c0,0,0,0,0-0.1l0,0
	H7.3l0,0L7.1,9.6V9.5V9.4V9.3V9.1L7,8.4C7.2,7.2,7.8,6.1,8.7,5.2z"/>
<path class="st5" d="M14.4,4.6l0.2,0.1h0.1l0.1,0.1v0.1V5v0.1c0,0,0.1,0.1,0.1,0.2v0.1c0,0-0.1,0.1-0.1,0c0,0,0-0.1-0.1-0.1
	l-0.1-0.1h0.1V5.1h-0.1L14.5,5h-0.1h-0.2H14h-0.1h-0.1l-0.1,0.1v0.1v0.1v0.1l0,0v0.1h-0.1l-0.1,0.1c0,0-0.1,0-0.1,0.1v0.1v0.1
	c0,0,0,0.1,0.1,0.1s0,0,0,0h0.1h0.1l0,0c0,0,0,0,0.1,0c0,0,0,0,0.1,0.1c0,0,0,0.1,0.1,0.1v0l0,0h0.1l0,0l0,0l0,0c0,0,0,0,0-0.1l0,0
	V6l0,0V5.9l0,0H14l0,0l0,0l0,0l0,0l0,0c0-0.1,0-0.1,0-0.1V5.7l0,0c0,0,0,0,0-0.1l0,0l0,0h0.1l0,0l0,0c0,0,0,0,0,0.1l0,0v0.2V6l0,0
	l0,0h0.1l0,0l0,0l0,0h0.1l0,0h0.1l0,0h-0.1h-0.1v0.1h0.1l0,0l0,0l0,0c0,0,0,0-0.1,0l0,0c0,0,0,0,0,0.1v0.1v0.1l0,0l-0.1,0.1l0,0H14
	l0,0h-0.1H14l0,0V6.4c0,0,0,0,0-0.1V6.2l0,0c0,0-0.1,0-0.1,0.1s0,0,0,0L14,6.4v0.1l-0.1,0.1h-0.1l0,0l0,0l-0.1,0.1l0,0v0.1
	c0,0,0,0-0.1,0c0,0,0,0-0.1,0.1h-0.1h-0.1l0,0h-0.1V7l0,0h0.1h0.1l0,0l0.1,0.1l0.1,0.1V7h-0.1h-0.7l0,0l0,0v0.1v0.1v0.1v0.1l0,0l0,0
	H13v0.1l0,0l0,0h0.1h0.1l0,0l0,0h0.1h0.1l0,0l0,0h0.1V7.3l0,0c0,0,0,0,0-0.1l0,0l0,0l0,0l0,0l0,0h0.1l0,0c0,0,0,0,0-0.1s0-0.1,0-0.1
	l0,0h0.1c0,0,0,0,0.1,0l0,0h0.1H14l0,0v0.1l0,0l0,0c0,0,0.1,0,0.1,0.1h0.1l0,0h0.1l0,0l0,0l0,0l0,0v0.3l0,0h0.1l0,0l0,0h-0.1l0,0
	l0,0l0,0l0,0h-0.1l0,0h0.3h-0.1c0,0,0,0,0-0.1l0,0c0,0,0,0,0-0.1l0,0h0.1v0.1l0,0h0.1l0,0l0,0l0,0h0.1c0,0,0,0,0.1,0h0.1l0,0l0,0
	c0,0,0,0,0,0.1v0.1H15c0,0,0,0.1,0.1,0.1s0.1,0,0.1,0s0,0,0,0.1l0,0l0,0c0,0,0,0,0-0.1s-0.1,0-0.1,0V7.5V7.4l0,0l0,0l0,0v0.1v0.1
	c0,0,0,0,0,0.1H15v0.1h0.1l0,0h0.2l0,0l0.1,0.1V8l-0.1,0.1h-0.1h-0.1h-0.5c0,0,0,0-0.1,0.1c0,0,0,0,0,0.1l0,0c0,0,0,0-0.1,0h-0.1
	l-0.1-0.1h-0.1h-0.3V7.9l0,0V7.8l0,0h-0.1h-0.1h-0.1h-0.1h-0.1H13h-0.1H13h-0.1h-0.1h-0.2l0,0L13,8.1l0,0v0.1l-0.1,0.1l0,0v0.1l0,0
	h-0.1l0,0l0,0l-0.1,0.1h-0.1l-0.1,0.1l0,0c0,0,0,0.1-0.1,0.1L12.3,9v0.1v0.1l0,0v0.1v0.1v0.1v0.1l0,0l0,0c0,0,0,0,0,0.1v0.1l0,0l0,0
	v0.1l0,0h0.1l0,0V10l0,0l0.1,0.1c0,0,0,0,0,0.1l0.1,0.1c0,0,0.1,0,0.1,0.1h0.1c0,0,0,0,0.1,0l0.2,0.1H13h0.1h0.1h0.1h0.1h0.1h0.1H14
	l0,0l0,0v0.1h0.1h0.2l0,0v0.1l0,0v0.1c0,0,0,0-0.1,0.1S14.1,11,14.1,11l0.1,0.1l0.1,0.1v0.1l0,0v0.1v0.1c0,0,0,0,0,0.1V11v0.1v0.1
	l0,0l-0.1,0.1v0.1v0.1v0.1c0,0,0,0,0,0.1v0.1v0.1V12v0.1v0.1v0.1v0.1v0.1v0.1l0.1,0.1h0.1h0.1c0,0,0,0,0.1,0l0.1-0.1l0.1-0.1
	l0.1-0.1L15,12l0,0l0.2-0.1l0.1-0.1l0.1-0.2c0-0.1,0.1-0.1,0.1-0.2l0.2-0.1c0-0.1,0.1-0.1,0.1-0.2l0.1-0.2l0.1-0.2l0.1-0.4l0.1-0.2
	l0.1-0.1l0.1-0.3V9.4V9.2h-0.1l-0.1,0.1h-0.1H16l0.1-0.1V9.1L16,9l-0.1-0.1v0.2L16.2,9l-0.1-0.3L16,8.5V8.4h0.1c0,0,0,0.1,0.1,0.1
	s0.1,0.1,0.1,0.1v0.1l0.1,0.1V9c0,0,0,0.1,0.1,0.1v0.2v0.2h0.1l0,0l0.1-0.1V9.3V9.2c0.1,0,0.3-0.1,0.4-0.2V8.9V8.8V8.7V8.6L17,8.5
	V8.4C16.8,6.8,15.8,5.4,14.4,4.6z"/>
</svg>
