<?xml version="1.0" encoding="utf-8"?>
<!-- Generator: Adobe Illustrator 21.0.0, SVG Export Plug-In . SVG Version: 6.00 Build 0)  -->
<svg version="1.1" id="图层_1" xmlns="http://www.w3.org/2000/svg" xmlns:xlink="http://www.w3.org/1999/xlink" x="0px" y="0px"
	 viewBox="0 0 24 24" style="enable-background:new 0 0 24 24;" xml:space="preserve">
<style type="text/css">
	.st0{fill:#0D47A1;}
	.st1{fill:url(#SVGID_1_);}
	.st2{opacity:0.8;fill:#FFFFFF;enable-background:new    ;}
</style>
<title>application-vector-template</title>
<path class="st0" d="M20,2v14l-6,6H4V2H20 M21,1H3v22h18V1z"/>
<linearGradient id="SVGID_1_" gradientUnits="userSpaceOnUse" x1="12" y1="-718" x2="12" y2="-738" gradientTransform="matrix(1 0 0 -1 0 -716)">
	<stop  offset="0" style="stop-color:#64B5F6"/>
	<stop  offset="0.29" style="stop-color:#5B9CE6"/>
	<stop  offset="0.9" style="stop-color:#435CBC"/>
	<stop  offset="1" style="stop-color:#3F51B5"/>
</linearGradient>
<polygon class="st1" points="4,22 4,2 20,2 20,16 20,22 "/>
<path class="st2" d="M15,5.1c-0.3,0-0.6,0.2-0.8,0.5h-3.1c-0.5,0-0.9,0.1-1.4,0.2C8.9,6.1,8.3,7,8.3,7.9s0.5,1.8,1.4,2.2
	c0.3,0.1,0.6,0.2,0.9,0.2v0.2l-1.3,1.2h0c-0.3,0-0.5,0.2-0.5,0.5s0.2,0.5,0.5,0.5s0.5-0.2,0.5-0.5V12l1.3-1.1h1.5v-0.5h0.5
	c0.3,0,0.6,0.1,0.9,0.2c0.6,0.2,1,0.8,0.9,1.5c0.1,0.6-0.3,1.2-0.9,1.5c-0.3,0.1-0.7,0.2-1,0.2H9.7c-0.2-0.3-0.5-0.4-0.8-0.5
	c-0.5,0-0.9,0.3-0.9,0.8C8,14.7,8.4,15,8.8,15h0.1c0.3,0,0.6-0.2,0.8-0.5h3.1c0.5,0.1,0.9,0,1.4-0.2c0.8-0.4,1.4-1.2,1.4-2.2
	c0-0.9-0.5-1.8-1.4-2.1c-0.4-0.2-0.8-0.3-1.3-0.3h-0.5V9.5l1.3-1.1h0.1c0.3,0,0.5-0.2,0.5-0.5s-0.2-0.5-0.5-0.5s-0.5,0.2-0.5,0.5V8
	L12,9.2h-1.5v0.3c-0.1,0-0.3-0.1-0.5-0.1C9.4,9.2,9,8.6,9.1,7.9C9,7.3,9.4,6.7,10,6.4c0.3-0.1,0.7-0.2,1-0.2h3.1
	c0.2,0.3,0.5,0.4,0.8,0.5c0.5,0,0.9-0.3,0.9-0.8C15.9,5.4,15.5,5.1,15,5.1z"/>
</svg>
