<?xml version="1.0" encoding="utf-8"?>
<!-- Generator: Adobe Illustrator 17.1.0, SVG Export Plug-In . SVG Version: 6.00 Build 0)  -->
<!DOCTYPE svg PUBLIC "-//W3C//DTD SVG 1.1//EN" "http://www.w3.org/Graphics/SVG/1.1/DTD/svg11.dtd">
<svg version="1.1"
	 id="svg2" inkscape:version="0.48.4 r9939" sodipodi:docname="computer.svg" xmlns:dc="http://purl.org/dc/elements/1.1/" xmlns:rdf="http://www.w3.org/1999/02/22-rdf-syntax-ns#" xmlns:sodipodi="http://sodipodi.sourceforge.net/DTD/sodipodi-0.dtd" xmlns:cc="http://creativecommons.org/ns#" xmlns:svg="http://www.w3.org/2000/svg" xmlns:inkscape="http://www.inkscape.org/namespaces/inkscape"
	 xmlns="http://www.w3.org/2000/svg" xmlns:xlink="http://www.w3.org/1999/xlink" x="0px" y="0px" width="24px" height="24px"
	 viewBox="1111 0 24 24" enable-background="new 1111 0 24 24" xml:space="preserve">
<polygon fill="#0D47A1" points="1114.6,23 1114.6,1 1131.4,1 1131.4,16.8 1125.1,23 "/>
<g>
	<g>
		<g>
			<g>
				
					<linearGradient id="SVGID_1_" gradientUnits="userSpaceOnUse" x1="1123.007" y1="489.5" x2="1123.007" y2="510.5" gradientTransform="matrix(1 0 0 -1 0 512)">
					<stop  offset="0" style="stop-color:#3F51B5"/>
					<stop  offset="1" style="stop-color:#64B5F6"/>
				</linearGradient>
				<polygon fill="url(#SVGID_1_)" points="1115.1,22.5 1115.1,1.5 1130.9,1.5 1130.9,16.6 1125,22.5 				"/>
			</g>
			<polygon fill="#2196F3" fill-opacity="0.7" points="1130.9,16.6 1130.9,16.3 1124.6,16.3 1124.6,22.5 1125,22.5 			"/>
			<path opacity="0.39" fill="#FFFFFF" enable-background="new    " d="M1125,16.6l5.9,0l-5.9,5.9L1125,16.6z"/>
		</g>
	</g>
	<g>
		<rect x="1115.1" y="1.5" opacity="0.8" fill="#FFFFFF" enable-background="new    " width="15.7" height="4"/>
	</g>
</g>
<g>
	<polygon opacity="0.8" fill="#FFFFFF" enable-background="new    " points="1119.5,7.6 1122.2,7.6 1122.2,6.9 1118.8,6.9 
		1118.8,10.2 1119.5,10.2 	"/>
	<polygon opacity="0.8" fill="#FFFFFF" enable-background="new    " points="1123.8,6.9 1123.8,7.6 1126.5,7.6 1126.5,10.2 
		1127.2,10.2 1127.2,6.9 	"/>
	<polygon opacity="0.8" fill="#FFFFFF" enable-background="new    " points="1127.2,11.9 1126.5,11.9 1126.5,14.6 1123.8,14.6 
		1123.8,15.2 1127.2,15.2 	"/>
	<polygon opacity="0.8" fill="#FFFFFF" enable-background="new    " points="1119.5,14.6 1119.5,11.9 1118.8,11.9 1118.8,15.2 
		1122.2,15.2 1122.2,14.6 	"/>
</g>
<g>
	<g>
		<path fill="#1976D2" d="M1120.9,3.5c0,0.3,0,0.5-0.1,0.7c-0.1,0.2-0.2,0.4-0.3,0.5c-0.1,0.1-0.3,0.2-0.5,0.3
			c-0.2,0.1-0.4,0.1-0.6,0.1c-0.2,0-0.4,0-0.6-0.1c-0.2-0.1-0.4-0.2-0.5-0.3c-0.1-0.1-0.3-0.3-0.3-0.5c-0.1-0.2-0.1-0.4-0.1-0.7
			c0-0.3,0-0.5,0.1-0.7c0.1-0.2,0.2-0.4,0.3-0.5c0.1-0.1,0.3-0.2,0.5-0.3s0.4-0.1,0.6-0.1c0.2,0,0.4,0,0.6,0.1s0.4,0.2,0.5,0.3
			c0.1,0.1,0.3,0.3,0.3,0.5C1120.8,3,1120.9,3.2,1120.9,3.5z M1118.5,3.5c0,0.2,0,0.3,0.1,0.4c0,0.1,0.1,0.2,0.2,0.3
			c0.1,0.1,0.2,0.2,0.3,0.2c0.1,0,0.2,0.1,0.4,0.1c0.1,0,0.2,0,0.4-0.1c0.1,0,0.2-0.1,0.3-0.2c0.1-0.1,0.1-0.2,0.2-0.3
			c0-0.1,0.1-0.3,0.1-0.4c0-0.2,0-0.3-0.1-0.4c0-0.1-0.1-0.2-0.2-0.3c-0.1-0.1-0.2-0.2-0.3-0.2c-0.1,0-0.2-0.1-0.4-0.1
			c-0.1,0-0.3,0-0.4,0.1s-0.2,0.1-0.3,0.2c-0.1,0.1-0.1,0.2-0.2,0.3C1118.5,3.2,1118.5,3.4,1118.5,3.5z"/>
		<path fill="#1976D2" d="M1124.2,3.5c0,0.3,0,0.5-0.1,0.7c-0.1,0.2-0.2,0.4-0.4,0.5s-0.3,0.2-0.6,0.3s-0.5,0.1-0.8,0.1
			c-0.1,0-0.3,0-0.4,0s-0.3,0-0.5-0.1V2c0.2,0,0.3-0.1,0.5-0.1c0.2,0,0.3,0,0.5,0c0.3,0,0.5,0,0.7,0.1c0.2,0.1,0.4,0.2,0.6,0.3
			c0.2,0.1,0.3,0.3,0.4,0.5C1124.2,3,1124.2,3.2,1124.2,3.5z M1122.2,4.5c0,0,0.1,0,0.1,0s0.1,0,0.2,0c0.4,0,0.6-0.1,0.8-0.3
			c0.2-0.2,0.3-0.4,0.3-0.7c0-0.3-0.1-0.6-0.2-0.7c-0.2-0.2-0.4-0.3-0.8-0.3c0,0-0.1,0-0.1,0c-0.1,0-0.1,0-0.1,0V4.5z"/>
		<path fill="#1976D2" d="M1125.6,1.9c0.1,0.1,0.1,0.2,0.2,0.4c0.1,0.1,0.1,0.3,0.2,0.5c0.1,0.2,0.2,0.3,0.2,0.5
			c0.1,0.2,0.1,0.3,0.2,0.5c0.1-0.2,0.1-0.3,0.2-0.5c0.1-0.2,0.2-0.4,0.2-0.5c0.1-0.2,0.2-0.3,0.2-0.5s0.1-0.3,0.2-0.4h0.6
			c0,0.2,0.1,0.4,0.1,0.7c0,0.3,0,0.5,0.1,0.8s0,0.6,0.1,0.8c0,0.3,0,0.5,0,0.8h-0.7c0-0.3,0-0.6,0-1c0-0.4,0-0.7-0.1-1.1
			c-0.1,0.1-0.1,0.3-0.2,0.4c-0.1,0.2-0.1,0.3-0.2,0.5c-0.1,0.2-0.1,0.3-0.2,0.4c-0.1,0.1-0.1,0.3-0.2,0.4h-0.5
			c0-0.1-0.1-0.2-0.2-0.4c-0.1-0.1-0.1-0.3-0.2-0.4c-0.1-0.2-0.1-0.3-0.2-0.5c-0.1-0.2-0.1-0.3-0.2-0.4c0,0.4-0.1,0.7-0.1,1.1
			c0,0.4,0,0.7,0,1h-0.7c0-0.2,0-0.5,0-0.8c0-0.3,0-0.6,0.1-0.8s0-0.5,0.1-0.8c0-0.3,0.1-0.5,0.1-0.7H1125.6z"/>
	</g>
</g>
</svg>
