<?xml version="1.0" encoding="utf-8"?>
<!-- Generator: Adobe Illustrator 16.0.0, SVG Export Plug-In . SVG Version: 6.00 Build 0)  -->
<!DOCTYPE svg PUBLIC "-//W3C//DTD SVG 1.1//EN" "http://www.w3.org/Graphics/SVG/1.1/DTD/svg11.dtd">
<svg version="1.1" id="图层_1" xmlns="http://www.w3.org/2000/svg" xmlns:xlink="http://www.w3.org/1999/xlink" x="0px" y="0px"
	 width="24px" height="24px" viewBox="0 0 24 24" enable-background="new 0 0 24 24" xml:space="preserve">
<polygon fill="#0D47A1" points="3.634,23 3.634,1 20.366,1 20.366,16.807 14.111,23 "/>
<g>
	<g>
		<g>
			<g>
				
					<linearGradient id="SVGID_1_" gradientUnits="userSpaceOnUse" x1="53.5996" y1="-162.3999" x2="53.5996" y2="-141.4004" gradientTransform="matrix(1 0 0 -1 -41.6001 -139.9004)">
					<stop  offset="0" style="stop-color:#3F51B5"/>
					<stop  offset="1" style="stop-color:#64B5F6"/>
				</linearGradient>
				<polygon fill="url(#SVGID_1_)" points="4.132,22.5 4.132,1.5 19.865,1.5 19.865,16.594 13.959,22.5 				"/>
			</g>
			<polygon fill="#2196F3" fill-opacity="0.7" points="19.865,16.594 19.865,16.34 13.635,16.34 13.635,22.5 13.959,22.5 			"/>
			<path opacity="0.39" fill="#FFFFFF" enable-background="new    " d="M13.951,16.594l5.917,0.008L13.959,22.5L13.951,16.594z"/>
		</g>
	</g>
	<g opacity="0.8">
		<rect x="6.162" y="7.907" opacity="0.8" fill="#FFFFFF" enable-background="new    " width="11.665" height="0.576"/>
		<rect x="6.162" y="6.103" opacity="0.8" fill="#FFFFFF" enable-background="new    " width="11.665" height="0.579"/>
		<rect x="11.728" y="9.602" opacity="0.8" fill="#FFFFFF" enable-background="new    " width="6.09" height="6.092"/>
		<g opacity="0.8">
			<rect x="6.162" y="9.707" fill="#FFFFFF" width="5.067" height="0.579"/>
			<rect x="6.162" y="11.511" fill="#FFFFFF" width="5.067" height="0.577"/>
			<rect x="6.162" y="13.32" fill="#FFFFFF" width="5.067" height="0.577"/>
			<rect x="6.162" y="15.123" fill="#FFFFFF" width="5.067" height="0.576"/>
		</g>
	</g>
</g>
</svg>
