<?xml version="1.0" encoding="utf-8"?>
<!-- Generator: Adobe Illustrator 16.0.0, SVG Export Plug-In . SVG Version: 6.00 Build 0)  -->
<!DOCTYPE svg PUBLIC "-//W3C//DTD SVG 1.1//EN" "http://www.w3.org/Graphics/SVG/1.1/DTD/svg11.dtd">
<svg version="1.1" id="图层_1" xmlns="http://www.w3.org/2000/svg" xmlns:xlink="http://www.w3.org/1999/xlink" x="0px" y="0px"
	 width="24px" height="24px" viewBox="0 0 24 24" enable-background="new 0 0 24 24" xml:space="preserve">
<polygon fill="#AE2124" points="3.635,23 3.635,1 20.365,1 20.365,16.806 14.113,23 "/>
<g>
	<g>
		<g>
			
				<linearGradient id="SVGID_1_" gradientUnits="userSpaceOnUse" x1="53.5996" y1="441.4004" x2="53.5996" y2="420.4004" gradientTransform="matrix(1 0 0 1 -41.5996 -418.9004)">
				<stop  offset="0" style="stop-color:#C7312F"/>
				<stop  offset="0.1635" style="stop-color:#D9412C"/>
				<stop  offset="0.3476" style="stop-color:#E74E29"/>
				<stop  offset="0.5725" style="stop-color:#EA552A"/>
				<stop  offset="0.9516" style="stop-color:#EA582B"/>
			</linearGradient>
			<polygon fill="url(#SVGID_1_)" points="4.134,22.5 4.134,1.5 19.866,1.5 19.866,16.594 13.96,22.5 			"/>
		</g>
		<polygon fill="#AE2124" fill-opacity="0.3922" points="19.866,16.594 19.866,16.34 13.637,16.34 13.637,22.5 13.96,22.5 		"/>
		<path fill="#FFFFFF" fill-opacity="0.3922" d="M13.951,16.594l5.915,0.009L13.96,22.5L13.951,16.594z"/>
	</g>
	<g opacity="0.8" enable-background="new    ">
		<g>
			<path fill="#FFFFFF" d="M13.978,6.628c0.026,0.009,0.062,0.009,0.088,0.017C14.039,6.637,14.004,6.628,13.978,6.628z"/>
			<path fill="#FFFFFF" d="M13.759,6.593c0.035,0,0.062,0.009,0.097,0.009C13.82,6.602,13.794,6.602,13.759,6.593z"/>
			<path fill="#FFFFFF" d="M14.188,6.662c0.026,0.009,0.053,0.009,0.079,0.018C14.24,6.671,14.214,6.662,14.188,6.662z"/>
			<path fill="#FFFFFF" d="M14.397,6.697c0.026,0.009,0.053,0.009,0.07,0.018C14.441,6.706,14.424,6.697,14.397,6.697z"/>
			<path fill="#FFFFFF" d="M13.531,6.566c0.035,0,0.07,0.009,0.105,0.009C13.602,6.575,13.566,6.566,13.531,6.566z"/>
			<path fill="#FFFFFF" d="M14.792,6.785c0.017,0.009,0.034,0.009,0.061,0.018C14.826,6.794,14.809,6.785,14.792,6.785z"/>
			<path fill="#FFFFFF" d="M14.599,6.741c0.018,0.009,0.044,0.009,0.062,0.018C14.643,6.75,14.616,6.741,14.599,6.741z"/>
			<path fill="#FFFFFF" d="M7.311,7.738L7.311,7.738L7.311,7.738z"/>
			<path fill="#FFFFFF" d="M12.324,6.487c0.052,0,0.113,0,0.166,0C12.438,6.487,12.376,6.487,12.324,6.487z"/>
			<path fill="#FFFFFF" d="M14.976,6.829c0.018,0.009,0.035,0.009,0.052,0.018C15.011,6.838,14.993,6.838,14.976,6.829z"/>
			<path fill="#FFFFFF" d="M13.304,6.54c0.035,0,0.07,0.009,0.105,0.009C13.383,6.549,13.348,6.549,13.304,6.54z"/>
			<path fill="#FFFFFF" d="M11.511,6.487c0.052,0,0.104,0,0.166,0C11.624,6.487,11.563,6.487,11.511,6.487z"/>
			<path fill="#FFFFFF" d="M12.831,6.505c0.044,0,0.088,0.009,0.132,0.009C12.919,6.514,12.875,6.505,12.831,6.505z"/>
			<path fill="#FFFFFF" d="M13.076,6.522c0.044,0,0.079,0.009,0.123,0.009C13.155,6.531,13.111,6.522,13.076,6.522z"/>
			<path fill="#FFFFFF" d="M16.061,7.24c0,0,0.009,0,0.009,0.009C16.069,7.24,16.061,7.24,16.061,7.24z"/>
			<path fill="#FFFFFF" d="M16.48,7.52L16.48,7.52L16.48,7.52z"/>
			<path fill="#FFFFFF" d="M16.183,7.301C16.183,7.301,16.183,7.31,16.183,7.301C16.183,7.31,16.183,7.301,16.183,7.301z"/>
			<path fill="#FFFFFF" d="M16.288,7.371C16.297,7.371,16.297,7.371,16.288,7.371C16.297,7.371,16.297,7.371,16.288,7.371z"/>
			<path fill="#FFFFFF" d="M15.159,6.881c0.018,0,0.026,0.009,0.044,0.009C15.186,6.89,15.168,6.881,15.159,6.881z"/>
			<path fill="#FFFFFF" d="M16.559,7.59L16.559,7.59L16.559,7.59z"/>
			<path fill="#FFFFFF" d="M12,6.479c-0.078,0-0.166,0-0.245,0C11.834,6.479,11.922,6.479,12,6.479z"/>
			<path fill="#FFFFFF" d="M16.393,7.441L16.393,7.441L16.393,7.441z"/>
			<path fill="#FFFFFF" d="M15.649,7.048c0.008,0,0.018,0.009,0.025,0.009C15.667,7.057,15.657,7.048,15.649,7.048z"/>
			<path fill="#FFFFFF" d="M12,6.479c0.079,0,0.167,0,0.245,0C12.167,6.479,12.079,6.479,12,6.479z"/>
			<path fill="#FFFFFF" d="M15.325,6.934c0.009,0,0.026,0.009,0.035,0.009C15.352,6.942,15.343,6.934,15.325,6.934z"/>
			<path fill="#FFFFFF" d="M15.491,6.986c0.009,0,0.018,0.009,0.026,0.009C15.509,6.995,15.5,6.995,15.491,6.986z"/>
			<path fill="#FFFFFF" d="M15.798,7.108c0.009,0,0.018,0.009,0.018,0.009C15.807,7.117,15.798,7.108,15.798,7.108z"/>
			<path fill="#FFFFFF" d="M15.929,7.17c0.009,0,0.009,0.009,0.018,0.009C15.946,7.179,15.938,7.17,15.929,7.17z"/>
			<path fill="#FFFFFF" d="M12.587,6.496c0.043,0,0.096,0,0.14,0.009C12.683,6.496,12.63,6.496,12.587,6.496z"/>
			<path fill="#FFFFFF" d="M7.932,7.24c0.009,0,0.009-0.009,0.018-0.009C7.94,7.24,7.932,7.24,7.932,7.24z"/>
			<path fill="#FFFFFF" d="M7.809,7.31c0,0,0.009,0,0.009-0.009C7.817,7.301,7.817,7.31,7.809,7.31z"/>
			<path fill="#FFFFFF" d="M7.704,7.38C7.704,7.371,7.713,7.371,7.704,7.38C7.713,7.371,7.704,7.371,7.704,7.38z"/>
			<path fill="#FFFFFF" d="M8.054,7.179c0.009,0,0.009-0.009,0.018-0.009C8.063,7.17,8.054,7.179,8.054,7.179z"/>
			<path fill="#FFFFFF" d="M8.325,7.057c0.009,0,0.018-0.009,0.026-0.009C8.343,7.048,8.334,7.057,8.325,7.057z"/>
			<path fill="#FFFFFF" d="M8.186,7.117c0.009,0,0.018-0.009,0.026-0.009C8.203,7.108,8.194,7.117,8.186,7.117z"/>
			<path fill="#FFFFFF" d="M11.274,6.496c0.043,0,0.096,0,0.14-0.009C11.37,6.496,11.317,6.496,11.274,6.496z"/>
			<path fill="#FFFFFF" d="M12,9.742c-2.66,0-4.813-0.726-4.813-1.627v1.47c0,0.901,2.152,1.628,4.813,1.628
				s4.813-0.727,4.813-1.628l0,0v-1.47C16.813,9.008,14.66,9.742,12,9.742z"/>
			<path fill="#FFFFFF" d="M7.188,8.063v0.053C7.188,8.098,7.188,8.08,7.188,8.063L7.188,8.063z"/>
			<path fill="#FFFFFF" d="M8.474,7.004c0.009,0,0.026-0.009,0.035-0.009C8.5,6.995,8.491,6.995,8.474,7.004z"/>
			<path fill="#FFFFFF" d="M7.521,7.52L7.521,7.52L7.521,7.52z"/>
			<path fill="#FFFFFF" d="M16.813,8.063c0,0.018,0,0.035,0,0.053V8.063L16.813,8.063z"/>
			<path fill="#FFFFFF" d="M7.371,7.669L7.371,7.669L7.371,7.669z"/>
			<path fill="#FFFFFF" d="M7.441,7.59L7.441,7.59L7.441,7.59z"/>
			<path fill="#FFFFFF" d="M7.607,7.45C7.607,7.441,7.607,7.441,7.607,7.45C7.607,7.441,7.607,7.441,7.607,7.45z"/>
			<path fill="#FFFFFF" d="M10.364,6.575c0.035,0,0.069-0.009,0.104-0.009C10.434,6.566,10.399,6.575,10.364,6.575z"/>
			<path fill="#FFFFFF" d="M10.146,6.61c0.035-0.009,0.061-0.009,0.096-0.009C10.206,6.602,10.181,6.602,10.146,6.61z"/>
			<path fill="#FFFFFF" d="M10.583,6.549c0.035,0,0.069-0.009,0.113-0.009C10.652,6.549,10.618,6.549,10.583,6.549z"/>
			<path fill="#FFFFFF" d="M8.632,6.942c0.009,0,0.025-0.009,0.034-0.009C8.657,6.934,8.649,6.942,8.632,6.942z"/>
			<path fill="#FFFFFF" d="M11.038,6.514c0.043,0,0.087-0.009,0.131-0.009C11.125,6.505,11.081,6.514,11.038,6.514z"/>
			<path fill="#FFFFFF" d="M9.936,6.637c0.026-0.009,0.061-0.009,0.087-0.018C9.996,6.628,9.962,6.637,9.936,6.637z"/>
			<path fill="#FFFFFF" d="M10.811,6.531c0.043,0,0.078-0.009,0.122-0.009C10.889,6.522,10.845,6.531,10.811,6.531z"/>
			<path fill="#FFFFFF" d="M8.973,6.847C8.99,6.838,9.008,6.838,9.025,6.829C9.008,6.838,8.99,6.838,8.973,6.847z"/>
			<path fill="#FFFFFF" d="M8.798,6.89c0.018-0.009,0.026-0.009,0.044-0.018C8.833,6.881,8.815,6.89,8.798,6.89z"/>
			<path fill="#FFFFFF" d="M9.147,6.794c0.018-0.009,0.044-0.009,0.062-0.018C9.191,6.785,9.174,6.794,9.147,6.794z"/>
			<path fill="#FFFFFF" d="M9.34,6.75c0.026-0.009,0.044-0.009,0.07-0.018C9.384,6.741,9.357,6.75,9.34,6.75z"/>
			<path fill="#FFFFFF" d="M9.532,6.715c0.026-0.009,0.053-0.009,0.079-0.018C9.576,6.697,9.559,6.706,9.532,6.715z"/>
			<path fill="#FFFFFF" d="M9.734,6.671C9.76,6.662,9.786,6.662,9.813,6.653C9.786,6.662,9.76,6.671,9.734,6.671z"/>
		</g>
		<g>
			<path fill="#FFFFFF" d="M13.978,8.334c0.026,0.009,0.062,0.009,0.088,0.018C14.039,8.343,14.004,8.343,13.978,8.334z"/>
			<path fill="#FFFFFF" d="M13.759,8.308c0.035,0,0.062,0.009,0.097,0.009C13.82,8.308,13.794,8.308,13.759,8.308z"/>
			<path fill="#FFFFFF" d="M14.188,8.369c0.026,0.009,0.053,0.009,0.079,0.018C14.24,8.378,14.214,8.378,14.188,8.369z"/>
			<path fill="#FFFFFF" d="M14.397,8.403c0.026,0.009,0.053,0.009,0.07,0.018C14.441,8.412,14.424,8.412,14.397,8.403z"/>
			<path fill="#FFFFFF" d="M13.531,8.272c0.035,0,0.07,0.009,0.105,0.009C13.602,8.281,13.566,8.281,13.531,8.272z"/>
			<path fill="#FFFFFF" d="M14.792,8.491C14.809,8.5,14.826,8.5,14.853,8.509C14.826,8.5,14.809,8.5,14.792,8.491z"/>
			<path fill="#FFFFFF" d="M14.599,8.447c0.018,0.009,0.044,0.009,0.062,0.018C14.643,8.456,14.616,8.456,14.599,8.447z"/>
			<path fill="#FFFFFF" d="M7.311,9.454L7.311,9.454L7.311,9.454z"/>
			<path fill="#FFFFFF" d="M12.324,8.193c0.052,0,0.113,0,0.166,0C12.438,8.193,12.376,8.193,12.324,8.193z"/>
			<path fill="#FFFFFF" d="M14.976,8.544c0.018,0.009,0.035,0.009,0.052,0.018C15.011,8.553,14.993,8.544,14.976,8.544z"/>
			<path fill="#FFFFFF" d="M13.304,8.255c0.035,0,0.07,0.009,0.105,0.009C13.383,8.255,13.348,8.255,13.304,8.255z"/>
			<path fill="#FFFFFF" d="M11.511,8.202c0.052,0,0.104,0,0.166,0C11.624,8.193,11.563,8.193,11.511,8.202z"/>
			<path fill="#FFFFFF" d="M12.831,8.211c0.044,0,0.088,0.009,0.132,0.009C12.919,8.22,12.875,8.22,12.831,8.211z"/>
			<path fill="#FFFFFF" d="M13.076,8.229c0.044,0,0.079,0.009,0.123,0.009C13.155,8.237,13.111,8.237,13.076,8.229z"/>
			<path fill="#FFFFFF" d="M16.061,8.946c0,0,0.009,0,0.009,0.009C16.069,8.946,16.061,8.946,16.061,8.946z"/>
			<path fill="#FFFFFF" d="M16.48,9.227L16.48,9.227L16.48,9.227z"/>
			<path fill="#FFFFFF" d="M16.183,9.017L16.183,9.017L16.183,9.017z"/>
			<path fill="#FFFFFF" d="M16.288,9.086C16.297,9.086,16.297,9.086,16.288,9.086C16.297,9.086,16.297,9.086,16.288,9.086z"/>
			<path fill="#FFFFFF" d="M15.159,8.588c0.018,0,0.026,0.009,0.044,0.009C15.186,8.597,15.168,8.597,15.159,8.588z"/>
			<path fill="#FFFFFF" d="M16.559,9.296L16.559,9.296L16.559,9.296z"/>
			<path fill="#FFFFFF" d="M12,8.193c-0.078,0-0.166,0-0.245,0C11.834,8.193,11.922,8.193,12,8.193z"/>
			<path fill="#FFFFFF" d="M16.393,9.156L16.393,9.156L16.393,9.156z"/>
			<path fill="#FFFFFF" d="M15.649,8.754c0.008,0,0.018,0.009,0.025,0.009C15.667,8.763,15.657,8.763,15.649,8.754z"/>
			<path fill="#FFFFFF" d="M12,8.193c0.079,0,0.167,0,0.245,0C12.167,8.193,12.079,8.193,12,8.193z"/>
			<path fill="#FFFFFF" d="M15.325,8.64c0.009,0,0.026,0.009,0.035,0.009C15.352,8.648,15.343,8.648,15.325,8.64z"/>
			<path fill="#FFFFFF" d="M15.491,8.701c0.009,0,0.018,0.009,0.026,0.009C15.509,8.71,15.5,8.701,15.491,8.701z"/>
			<path fill="#FFFFFF" d="M15.798,8.815c0.009,0,0.018,0.009,0.018,0.009C15.807,8.824,15.798,8.824,15.798,8.815z"/>
			<path fill="#FFFFFF" d="M15.929,8.885c0.009,0,0.009,0.009,0.018,0.009C15.946,8.885,15.938,8.885,15.929,8.885z"/>
			<path fill="#FFFFFF" d="M12.587,8.202c0.043,0,0.096,0,0.14,0.009C12.683,8.202,12.63,8.202,12.587,8.202z"/>
			<path fill="#FFFFFF" d="M7.932,8.955c0.009,0,0.009-0.009,0.018-0.009C7.94,8.946,7.932,8.946,7.932,8.955z"/>
			<path fill="#FFFFFF" d="M7.809,9.017c0,0,0.009,0,0.009-0.009C7.817,9.017,7.817,9.017,7.809,9.017z"/>
			<path fill="#FFFFFF" d="M7.704,9.086C7.704,9.086,7.713,9.086,7.704,9.086C7.713,9.086,7.704,9.086,7.704,9.086z"/>
			<path fill="#FFFFFF" d="M8.054,8.885c0.009,0,0.009-0.009,0.018-0.009C8.063,8.885,8.054,8.885,8.054,8.885z"/>
			<path fill="#FFFFFF" d="M8.325,8.771c0.009,0,0.018-0.009,0.026-0.009C8.343,8.763,8.334,8.763,8.325,8.771z"/>
			<path fill="#FFFFFF" d="M8.186,8.824c0.009,0,0.018-0.009,0.026-0.009C8.203,8.824,8.194,8.824,8.186,8.824z"/>
			<path fill="#FFFFFF" d="M11.274,8.211c0.043,0,0.096,0,0.14-0.009C11.37,8.202,11.317,8.202,11.274,8.211z"/>
			<path fill="#FFFFFF" d="M12,11.449c-2.66,0-4.813-0.727-4.813-1.628v1.47c0,0.901,2.152,1.628,4.813,1.628
				s4.813-0.727,4.813-1.628l0,0v-1.47C16.813,10.723,14.66,11.449,12,11.449z"/>
			<path fill="#FFFFFF" d="M7.188,9.769v0.053C7.188,9.804,7.188,9.786,7.188,9.769L7.188,9.769z"/>
			<path fill="#FFFFFF" d="M8.474,8.71c0.009,0,0.026-0.009,0.035-0.009C8.5,8.701,8.491,8.71,8.474,8.71z"/>
			<path fill="#FFFFFF" d="M7.521,9.227L7.521,9.227L7.521,9.227z"/>
			<path fill="#FFFFFF" d="M16.813,9.769c0,0.018,0,0.035,0,0.053V9.769L16.813,9.769z"/>
			<path fill="#FFFFFF" d="M7.371,9.375L7.371,9.375L7.371,9.375z"/>
			<path fill="#FFFFFF" d="M7.441,9.305C7.441,9.296,7.441,9.296,7.441,9.305C7.441,9.296,7.441,9.296,7.441,9.305z"/>
			<path fill="#FFFFFF" d="M7.607,9.156L7.607,9.156L7.607,9.156z"/>
			<path fill="#FFFFFF" d="M10.364,8.29c0.035,0,0.069-0.009,0.104-0.009C10.434,8.281,10.399,8.281,10.364,8.29z"/>
			<path fill="#FFFFFF" d="M10.146,8.316c0.035-0.009,0.061-0.009,0.096-0.009C10.206,8.308,10.181,8.308,10.146,8.316z"/>
			<path fill="#FFFFFF" d="M10.583,8.264c0.035,0,0.069-0.009,0.113-0.009C10.652,8.255,10.618,8.255,10.583,8.264z"/>
			<path fill="#FFFFFF" d="M8.632,8.657c0.009,0,0.025-0.009,0.034-0.009C8.657,8.648,8.649,8.648,8.632,8.657z"/>
			<path fill="#FFFFFF" d="M11.038,8.22c0.043,0,0.087-0.009,0.131-0.009C11.125,8.22,11.081,8.22,11.038,8.22z"/>
			<path fill="#FFFFFF" d="M9.936,8.352c0.026-0.009,0.061-0.009,0.087-0.018C9.996,8.343,9.962,8.343,9.936,8.352z"/>
			<path fill="#FFFFFF" d="M10.811,8.237c0.034,0,0.078-0.009,0.122-0.009C10.889,8.237,10.845,8.237,10.811,8.237z"/>
			<path fill="#FFFFFF" d="M8.973,8.553C8.99,8.544,9.008,8.544,9.025,8.535C9.008,8.544,8.99,8.553,8.973,8.553z"/>
			<path fill="#FFFFFF" d="M8.798,8.605c0.018-0.009,0.026-0.009,0.044-0.018C8.833,8.597,8.815,8.597,8.798,8.605z"/>
			<path fill="#FFFFFF" d="M9.147,8.509C9.165,8.5,9.191,8.5,9.209,8.491C9.191,8.5,9.174,8.5,9.147,8.509z"/>
			<path fill="#FFFFFF" d="M9.34,8.465c0.026-0.009,0.044-0.009,0.07-0.018C9.384,8.456,9.357,8.456,9.34,8.465z"/>
			<path fill="#FFFFFF" d="M9.532,8.421c0.026-0.009,0.053-0.009,0.079-0.018C9.576,8.412,9.559,8.412,9.532,8.421z"/>
			<path fill="#FFFFFF" d="M9.734,8.387C9.76,8.378,9.786,8.378,9.813,8.369C9.786,8.378,9.76,8.378,9.734,8.387z"/>
		</g>
		<g>
			<path fill="#FFFFFF" d="M13.978,10.04c0.026,0.009,0.062,0.009,0.088,0.018C14.039,10.049,14.004,10.049,13.978,10.04z"/>
			<path fill="#FFFFFF" d="M13.759,10.014c0.035,0,0.062,0.009,0.097,0.009C13.82,10.022,13.794,10.014,13.759,10.014z"/>
			<path fill="#FFFFFF" d="M14.188,10.075c0.026,0.009,0.053,0.009,0.079,0.018C14.24,10.084,14.214,10.084,14.188,10.075z"/>
			<path fill="#FFFFFF" d="M14.397,10.119c0.026,0.009,0.053,0.009,0.07,0.018C14.441,10.128,14.424,10.119,14.397,10.119z"/>
			<path fill="#FFFFFF" d="M13.531,9.987c0.035,0,0.07,0.009,0.105,0.009C13.602,9.996,13.566,9.987,13.531,9.987z"/>
			<path fill="#FFFFFF" d="M14.792,10.206c0.017,0.009,0.034,0.009,0.061,0.018C14.826,10.215,14.809,10.206,14.792,10.206z"/>
			<path fill="#FFFFFF" d="M14.599,10.153c0.018,0.009,0.044,0.009,0.062,0.018C14.643,10.171,14.616,10.162,14.599,10.153z"/>
			<path fill="#FFFFFF" d="M7.311,11.16L7.311,11.16L7.311,11.16z"/>
			<path fill="#FFFFFF" d="M12.324,9.9c0.052,0,0.113,0,0.166,0C12.438,9.909,12.376,9.909,12.324,9.9z"/>
			<path fill="#FFFFFF" d="M14.976,10.25c0.018,0.009,0.035,0.009,0.052,0.018C15.011,10.259,14.993,10.259,14.976,10.25z"/>
			<path fill="#FFFFFF" d="M13.304,9.961c0.035,0,0.07,0.009,0.105,0.009C13.383,9.97,13.348,9.961,13.304,9.961z"/>
			<path fill="#FFFFFF" d="M11.511,9.909c0.052,0,0.104,0,0.166,0C11.624,9.909,11.563,9.909,11.511,9.909z"/>
			<path fill="#FFFFFF" d="M12.831,9.926c0.044,0,0.088,0.009,0.132,0.009C12.919,9.926,12.875,9.926,12.831,9.926z"/>
			<path fill="#FFFFFF" d="M13.076,9.943c0.044,0,0.079,0.009,0.123,0.009C13.155,9.943,13.111,9.943,13.076,9.943z"/>
			<path fill="#FFFFFF" d="M16.061,10.652c0,0,0.009,0,0.009,0.009C16.069,10.661,16.061,10.661,16.061,10.652z"/>
			<path fill="#FFFFFF" d="M16.48,10.933L16.48,10.933L16.48,10.933z"/>
			<path fill="#FFFFFF" d="M16.183,10.723L16.183,10.723L16.183,10.723z"/>
			<path fill="#FFFFFF" d="M16.288,10.793C16.297,10.793,16.297,10.793,16.288,10.793C16.297,10.793,16.297,10.793,16.288,10.793z"
				/>
			<path fill="#FFFFFF" d="M15.159,10.303c0.018,0,0.026,0.009,0.044,0.009C15.186,10.312,15.168,10.303,15.159,10.303z"/>
			<path fill="#FFFFFF" d="M16.559,11.012L16.559,11.012L16.559,11.012z"/>
			<path fill="#FFFFFF" d="M12,9.9c-0.078,0-0.166,0-0.245,0C11.834,9.9,11.922,9.9,12,9.9z"/>
			<path fill="#FFFFFF" d="M16.393,10.862L16.393,10.862L16.393,10.862z"/>
			<path fill="#FFFFFF" d="M15.649,10.469c0.008,0,0.018,0.009,0.025,0.009C15.667,10.478,15.657,10.469,15.649,10.469z"/>
			<path fill="#FFFFFF" d="M12,9.9c0.079,0,0.167,0,0.245,0C12.167,9.9,12.079,9.9,12,9.9z"/>
			<path fill="#FFFFFF" d="M15.325,10.355c0.009,0,0.026,0.008,0.035,0.008C15.352,10.363,15.343,10.355,15.325,10.355z"/>
			<path fill="#FFFFFF" d="M15.491,10.407c0.009,0,0.018,0.009,0.026,0.009C15.509,10.416,15.5,10.416,15.491,10.407z"/>
			<path fill="#FFFFFF" d="M15.798,10.53c0.009,0,0.018,0.009,0.018,0.009C15.807,10.53,15.798,10.53,15.798,10.53z"/>
			<path fill="#FFFFFF" d="M15.929,10.591c0.009,0,0.009,0.009,0.018,0.009C15.946,10.6,15.938,10.591,15.929,10.591z"/>
			<path fill="#FFFFFF" d="M12.587,9.909c0.043,0,0.096,0,0.14,0.009C12.683,9.918,12.63,9.918,12.587,9.909z"/>
			<path fill="#FFFFFF" d="M7.932,10.661c0.009,0,0.009-0.009,0.018-0.009C7.94,10.661,7.932,10.661,7.932,10.661z"/>
			<path fill="#FFFFFF" d="M7.809,10.731c0,0,0.009,0,0.009-0.009C7.817,10.723,7.817,10.723,7.809,10.731z"/>
			<path fill="#FFFFFF" d="M7.704,10.793C7.704,10.793,7.713,10.793,7.704,10.793C7.713,10.793,7.704,10.793,7.704,10.793z"/>
			<path fill="#FFFFFF" d="M8.054,10.6c0.009,0,0.009-0.009,0.018-0.009C8.063,10.591,8.054,10.6,8.054,10.6z"/>
			<path fill="#FFFFFF" d="M8.325,10.478c0.009,0,0.018-0.009,0.026-0.009C8.343,10.469,8.334,10.478,8.325,10.478z"/>
			<path fill="#FFFFFF" d="M8.186,10.539c0.009,0,0.018-0.009,0.026-0.009C8.203,10.53,8.194,10.53,8.186,10.539z"/>
			<path fill="#FFFFFF" d="M11.274,9.918c0.043,0,0.096,0,0.14-0.009C11.37,9.918,11.317,9.918,11.274,9.918z"/>
			<path fill="#FFFFFF" d="M12,13.164c-2.66,0-4.813-0.727-4.813-1.628v1.47c0,0.901,2.152,1.628,4.813,1.628
				s4.813-0.727,4.813-1.628l0,0v-1.47C16.813,12.429,14.66,13.164,12,13.164z"/>
			<path fill="#FFFFFF" d="M7.188,11.483v0.053C7.188,11.519,7.188,11.501,7.188,11.483L7.188,11.483z"/>
			<path fill="#FFFFFF" d="M8.474,10.416c0.009,0,0.026-0.009,0.035-0.009C8.5,10.416,8.491,10.416,8.474,10.416z"/>
			<path fill="#FFFFFF" d="M7.521,10.941C7.521,10.933,7.521,10.933,7.521,10.941C7.521,10.933,7.521,10.933,7.521,10.941z"/>
			<path fill="#FFFFFF" d="M16.813,11.483c0,0.018,0,0.035,0,0.053V11.483L16.813,11.483z"/>
			<path fill="#FFFFFF" d="M7.371,11.09C7.371,11.081,7.371,11.081,7.371,11.09C7.371,11.081,7.371,11.081,7.371,11.09z"/>
			<path fill="#FFFFFF" d="M7.441,11.012L7.441,11.012L7.441,11.012z"/>
			<path fill="#FFFFFF" d="M7.607,10.862L7.607,10.862L7.607,10.862z"/>
			<path fill="#FFFFFF" d="M10.364,9.996c0.035,0,0.069-0.009,0.104-0.009C10.434,9.987,10.399,9.996,10.364,9.996z"/>
			<path fill="#FFFFFF" d="M10.146,10.022c0.035-0.009,0.061-0.009,0.096-0.009C10.206,10.014,10.181,10.022,10.146,10.022z"/>
			<path fill="#FFFFFF" d="M10.583,9.97c0.035,0,0.069-0.009,0.113-0.009C10.652,9.961,10.618,9.97,10.583,9.97z"/>
			<path fill="#FFFFFF" d="M8.632,10.363c0.009,0,0.025-0.008,0.034-0.008C8.657,10.355,8.649,10.363,8.632,10.363z"/>
			<path fill="#FFFFFF" d="M11.038,9.935c0.043,0,0.087-0.009,0.131-0.009C11.125,9.926,11.081,9.926,11.038,9.935z"/>
			<path fill="#FFFFFF" d="M9.936,10.058c0.026-0.009,0.061-0.009,0.087-0.018C9.996,10.049,9.962,10.049,9.936,10.058z"/>
			<path fill="#FFFFFF" d="M10.811,9.952c0.034,0,0.078-0.009,0.122-0.009C10.889,9.943,10.845,9.943,10.811,9.952z"/>
			<path fill="#FFFFFF" d="M8.973,10.268c0.018-0.009,0.035-0.009,0.053-0.018C9.008,10.25,8.99,10.259,8.973,10.268z"/>
			<path fill="#FFFFFF" d="M8.798,10.312c0.018-0.009,0.026-0.009,0.044-0.018C8.833,10.303,8.815,10.312,8.798,10.312z"/>
			<path fill="#FFFFFF" d="M9.147,10.215c0.018-0.009,0.044-0.009,0.062-0.018C9.191,10.206,9.174,10.215,9.147,10.215z"/>
			<path fill="#FFFFFF" d="M9.34,10.171c0.026-0.009,0.044-0.009,0.07-0.018C9.384,10.162,9.357,10.171,9.34,10.171z"/>
			<path fill="#FFFFFF" d="M9.532,10.128c0.026-0.009,0.053-0.009,0.079-0.018C9.576,10.119,9.559,10.128,9.532,10.128z"/>
			<path fill="#FFFFFF" d="M9.734,10.093c0.025-0.009,0.052-0.009,0.078-0.018C9.786,10.084,9.76,10.084,9.734,10.093z"/>
		</g>
		<ellipse fill="#FFFFFF" cx="12" cy="7.853" rx="4.813" ry="1.628"/>
	</g>
</g>
</svg>
