<?xml version="1.0" encoding="utf-8"?>
<!-- Generator: Adobe Illustrator 16.0.0, SVG Export Plug-In . SVG Version: 6.00 Build 0)  -->
<!DOCTYPE svg PUBLIC "-//W3C//DTD SVG 1.1//EN" "http://www.w3.org/Graphics/SVG/1.1/DTD/svg11.dtd">
<svg version="1.1" id="图层_1" xmlns="http://www.w3.org/2000/svg" xmlns:xlink="http://www.w3.org/1999/xlink" x="0px" y="0px"
	 width="24px" height="24px" viewBox="0 0 24 24" enable-background="new 0 0 24 24" xml:space="preserve">
<polygon fill="#3E2723" points="3.634,23 3.634,1 20.366,1 20.366,16.807 14.111,23 "/>
<g>
	<g>
		
			<linearGradient id="SVGID_1_" gradientUnits="userSpaceOnUse" x1="53.5996" y1="-141.4004" x2="53.5996" y2="-162.4009" gradientTransform="matrix(1 0 0 -1 -41.6001 -139.9004)">
			<stop  offset="0" style="stop-color:#785548"/>
			<stop  offset="1" style="stop-color:#9F9E9F"/>
		</linearGradient>
		<polygon fill="url(#SVGID_1_)" points="4.133,22.5 4.133,1.5 19.867,1.5 19.867,16.586 14.019,22.5 		"/>
		<polygon fill="#795548" fill-opacity="0.7" points="19.867,16.594 19.867,16.34 13.638,16.34 13.638,22.5 13.961,22.5 		"/>
		<path opacity="0.39" fill="#FFFFFF" enable-background="new    " d="M13.952,16.594l5.915,0.008L13.961,22.5L13.952,16.594z"/>
	</g>
	<path fill="#FFFFFF" d="M9.755,5.548H9.223v6.819H8.819V5.548H8.291v6.819H7.889V5.548h-0.53v6.819H6.955V5.548h-0.53v6.819H6.286
		v2.889h3.65v-2.889H9.755V5.548z M9.405,14.417h-2.59v-1.675h2.59V14.417z"/>
	<g>
		<rect x="4.13" y="1.5" opacity="0.8" fill="#FFFFFF" enable-background="new    " width="15.74" height="4.025"/>
		<g enable-background="new    ">
			<path fill="#5D4037" d="M7.726,4.475v0.606H5.52V1.944h0.743v2.531H7.726z"/>
			<path fill="#5D4037" d="M10.617,2.433c-0.103,0.1-0.224,0.229-0.362,0.388c-0.14,0.158-0.285,0.331-0.436,0.518
				c-0.147,0.187-0.295,0.38-0.442,0.579c-0.146,0.2-0.276,0.39-0.392,0.571h1.685v0.593H8.072V4.66
				C8.161,4.506,8.27,4.335,8.397,4.147c0.13-0.189,0.265-0.379,0.403-0.571C8.942,3.385,9.084,3.199,9.228,3.02
				c0.146-0.18,0.279-0.34,0.403-0.482H8.149V1.944h2.468V2.433z"/>
			<path fill="#5D4037" d="M12.07,1.944c0.058,0.1,0.123,0.223,0.198,0.369s0.153,0.305,0.233,0.475
				c0.082,0.171,0.161,0.345,0.24,0.523c0.081,0.178,0.156,0.345,0.226,0.502c0.07-0.157,0.146-0.325,0.225-0.502
				c0.081-0.178,0.16-0.352,0.242-0.523c0.08-0.17,0.158-0.329,0.233-0.475s0.141-0.27,0.198-0.369h0.676
				c0.032,0.208,0.063,0.441,0.089,0.699c0.027,0.258,0.051,0.527,0.072,0.806c0.02,0.279,0.038,0.559,0.058,0.839
				c0.017,0.281,0.031,0.545,0.044,0.792H14.08c-0.009-0.305-0.022-0.637-0.037-0.996c-0.017-0.359-0.04-0.721-0.072-1.086
				c-0.058,0.126-0.121,0.268-0.191,0.421c-0.068,0.154-0.14,0.308-0.208,0.461s-0.134,0.301-0.197,0.441
				c-0.064,0.14-0.117,0.26-0.164,0.359h-0.518c-0.046-0.099-0.101-0.219-0.163-0.359s-0.13-0.288-0.198-0.441
				c-0.069-0.154-0.138-0.308-0.208-0.461c-0.069-0.154-0.134-0.295-0.191-0.421c-0.031,0.365-0.056,0.728-0.072,1.086
				c-0.015,0.359-0.027,0.691-0.037,0.996h-0.725c0.013-0.248,0.029-0.512,0.046-0.792c0.018-0.28,0.036-0.561,0.057-0.839
				s0.044-0.548,0.071-0.806c0.027-0.258,0.058-0.491,0.089-0.699H12.07z"/>
			<path fill="#5D4037" d="M17.683,5.082c-0.037-0.109-0.075-0.221-0.119-0.336c-0.041-0.115-0.085-0.229-0.126-0.343h-1.291
				c-0.041,0.114-0.082,0.229-0.124,0.344c-0.042,0.115-0.081,0.227-0.116,0.335h-0.772c0.124-0.338,0.242-0.65,0.354-0.938
				c0.11-0.286,0.22-0.556,0.326-0.81c0.106-0.253,0.212-0.494,0.316-0.722c0.104-0.228,0.21-0.451,0.322-0.668h0.704
				c0.108,0.217,0.215,0.44,0.321,0.668c0.104,0.228,0.211,0.468,0.317,0.722c0.106,0.254,0.216,0.524,0.328,0.81
				c0.112,0.287,0.229,0.6,0.355,0.938H17.683z M16.789,2.655c-0.016,0.045-0.041,0.107-0.073,0.186
				c-0.03,0.079-0.068,0.169-0.108,0.271c-0.041,0.103-0.086,0.216-0.137,0.339c-0.051,0.124-0.103,0.253-0.154,0.389h0.944
				c-0.05-0.136-0.1-0.266-0.146-0.39c-0.048-0.124-0.094-0.237-0.136-0.34c-0.042-0.104-0.081-0.193-0.112-0.272
				C16.836,2.761,16.809,2.7,16.789,2.655z"/>
		</g>
	</g>
</g>
</svg>
