<?xml version="1.0" encoding="utf-8"?>
<!-- Generator: Adobe Illustrator 16.0.0, SVG Export Plug-In . SVG Version: 6.00 Build 0)  -->
<!DOCTYPE svg PUBLIC "-//W3C//DTD SVG 1.1//EN" "http://www.w3.org/Graphics/SVG/1.1/DTD/svg11.dtd">
<svg version="1.1" id="图层_1" xmlns="http://www.w3.org/2000/svg" xmlns:xlink="http://www.w3.org/1999/xlink" x="0px" y="0px"
	 width="24px" height="24px" viewBox="0 0 24 24" enable-background="new 0 0 24 24" xml:space="preserve">
<g>
	
		<linearGradient id="SVGID_1_" gradientUnits="userSpaceOnUse" x1="220.002" y1="-1716.9512" x2="220.002" y2="-1694.9512" gradientTransform="matrix(1 0 0 -1 -208.0005 -1693.9512)">
		<stop  offset="0" style="stop-color:#F57C00"/>
		<stop  offset="0.099" style="stop-color:#F78B0C"/>
		<stop  offset="0.3289" style="stop-color:#FAA823"/>
		<stop  offset="0.5576" style="stop-color:#FDBC33"/>
		<stop  offset="0.7827" style="stop-color:#FEC93D"/>
		<stop  offset="1" style="stop-color:#FFCD40"/>
	</linearGradient>
	<path fill="url(#SVGID_1_)" d="M14.063,23l6.188-6.188V1H3.75v22H14.063z"/>
	<polygon fill="#EE6F0B" fill-opacity="0.3922" points="13.719,16.469 13.719,23 14.063,23 20.25,16.813 20.25,16.469 	"/>
	<path fill="#FFFFFF" fill-opacity="0.3922" d="M14.063,16.813h6.184L14.063,23V16.813z"/>
	<g opacity="0.8">
		<path fill="#FFFFFF" d="M10.514,13.216c0,0-0.434,0.24,0.307,0.321c0.9,0.098,1.358,0.084,2.347-0.095
			c0,0,0.258,0.153,0.622,0.286C11.573,14.631,8.773,13.677,10.514,13.216"/>
		<path fill="#FFFFFF" d="M10.241,12.041c0,0-0.486,0.343,0.255,0.412c0.961,0.094,1.717,0.103,3.027-0.137
			c0,0,0.183,0.176,0.467,0.27C11.311,13.331,8.322,12.646,10.241,12.041"/>
		<path fill="#FFFFFF" d="M12.528,10.048c0.544,0.593-0.146,1.132-0.146,1.132s1.388-0.682,0.752-1.531
			c-0.595-0.793-1.053-1.186,1.419-2.546C14.553,7.104,10.675,8.023,12.528,10.048"/>
		<path fill="#FFFFFF" d="M15.457,14.086c0,0,0.322,0.253-0.353,0.444c-1.28,0.367-5.326,0.479-6.451,0.014
			C8.252,14.38,9.007,14.146,9.249,14.1c0.249-0.053,0.388-0.042,0.388-0.042c-0.449-0.301-2.906,0.588-1.245,0.844
			C12.913,15.597,16.633,14.59,15.457,14.086"/>
		<path fill="#FFFFFF" d="M10.721,10.824c0,0-2.061,0.461-0.729,0.629c0.56,0.073,1.679,0.056,2.725-0.028
			c0.849-0.066,1.706-0.21,1.706-0.21s-0.301,0.12-0.518,0.264c-2.091,0.521-6.129,0.275-4.968-0.257
			C9.923,10.772,10.721,10.824,10.721,10.824"/>
		<path fill="#FFFFFF" d="M14.413,12.778c2.125-1.045,1.143-2.052,0.458-1.916c-0.168,0.032-0.242,0.063-0.242,0.063
			s0.06-0.094,0.182-0.133c1.357-0.454,2.399,1.332-0.44,2.043C14.37,12.835,14.404,12.807,14.413,12.778"/>
		<path fill="#FFFFFF" d="M13.134,4.911c0,0,1.178,1.115-1.116,2.833c-1.84,1.376-0.421,2.161,0,3.059
			c-1.073-0.92-1.864-1.727-1.336-2.479C11.458,7.219,13.608,6.685,13.134,4.911"/>
		<path fill="#FFFFFF" d="M10.93,15.618c2.039,0.122,5.171-0.071,5.249-0.983c0,0-0.144,0.347-1.689,0.622
			c-1.741,0.308-3.888,0.272-5.16,0.074C9.329,15.331,9.591,15.537,10.93,15.618"/>
	</g>
	<g>
		<path fill="#EE6F0B" d="M19.75,1.5v15.105L13.855,22.5H9.25h-5v-21H19.75 M20.25,1H3.75v22h5.5h4.813l6.188-6.188L20.25,1L20.25,1
			z"/>
	</g>
</g>
</svg>
