<?xml version="1.0" encoding="utf-8"?>
<!-- Generator: Adobe Illustrator 16.0.0, SVG Export Plug-In . SVG Version: 6.00 Build 0)  -->
<!DOCTYPE svg PUBLIC "-//W3C//DTD SVG 1.1//EN" "http://www.w3.org/Graphics/SVG/1.1/DTD/svg11.dtd">
<svg version="1.1" id="图层_1" xmlns="http://www.w3.org/2000/svg" xmlns:xlink="http://www.w3.org/1999/xlink" x="0px" y="0px"
	 width="24px" height="24px" viewBox="0 0 24 24" enable-background="new 0 0 24 24" xml:space="preserve">
<polygon fill="#3E2723" points="3.634,23 3.634,1 20.366,1 20.366,16.807 14.111,23 "/>
<g>
	<g>
		
			<linearGradient id="SVGID_1_" gradientUnits="userSpaceOnUse" x1="53.5996" y1="-141.4004" x2="53.5996" y2="-162.4009" gradientTransform="matrix(1 0 0 -1 -41.6001 -139.9004)">
			<stop  offset="0" style="stop-color:#785548"/>
			<stop  offset="1" style="stop-color:#9F9E9F"/>
		</linearGradient>
		<polygon fill="url(#SVGID_1_)" points="4.133,22.5 4.133,1.5 19.867,1.5 19.867,16.586 14.019,22.5 		"/>
		<polygon fill="#795548" fill-opacity="0.7" points="19.867,16.594 19.867,16.34 13.638,16.34 13.638,22.5 13.961,22.5 		"/>
		<path opacity="0.39" fill="#FFFFFF" enable-background="new    " d="M13.952,16.594l5.915,0.008L13.961,22.5L13.952,16.594z"/>
	</g>
	<path fill="#FFFFFF" d="M9.755,5.548H9.223v6.819H8.819V5.548H8.291v6.819H7.889V5.548h-0.53v6.819H6.955V5.548h-0.53v6.819H6.286
		v2.889h3.65v-2.889H9.755V5.548z M9.405,14.417h-2.59v-1.675h2.59V14.417z"/>
	<g>
		<rect x="4.13" y="1.5" opacity="0.8" fill="#FFFFFF" enable-background="new    " width="15.74" height="4.025"/>
		<g enable-background="new    ">
			<path fill="#5D4037" d="M9.61,4.475v0.606H7.404V1.944h0.743v2.531H9.61z"/>
			<path fill="#5D4037" d="M12.078,1.944h0.742v3.137h-0.742V3.75H10.83v1.331h-0.744V1.944h0.744v1.2h1.248V1.944z"/>
			<path fill="#5D4037" d="M15.798,5.082c-0.035-0.109-0.075-0.221-0.117-0.336s-0.085-0.229-0.126-0.343h-1.29
				c-0.041,0.114-0.084,0.229-0.126,0.344c-0.041,0.115-0.079,0.227-0.116,0.335H13.25c0.124-0.338,0.243-0.65,0.354-0.938
				c0.111-0.286,0.221-0.556,0.327-0.81c0.106-0.253,0.213-0.494,0.315-0.722c0.104-0.228,0.212-0.451,0.323-0.668h0.704
				c0.109,0.217,0.216,0.44,0.321,0.668s0.212,0.468,0.318,0.722c0.106,0.254,0.216,0.524,0.328,0.81
				c0.112,0.287,0.229,0.6,0.354,0.938H15.798z M14.907,2.655c-0.019,0.045-0.041,0.107-0.074,0.186
				c-0.031,0.079-0.068,0.169-0.109,0.271c-0.041,0.103-0.086,0.216-0.137,0.339c-0.049,0.124-0.102,0.253-0.153,0.389h0.943
				c-0.049-0.136-0.099-0.266-0.146-0.39s-0.091-0.237-0.135-0.34c-0.043-0.104-0.079-0.193-0.112-0.272
				C14.952,2.761,14.926,2.7,14.907,2.655z"/>
		</g>
	</g>
</g>
</svg>
