<?xml version="1.0" encoding="utf-8"?>
<!-- Generator: Adobe Illustrator 16.0.0, SVG Export Plug-In . SVG Version: 6.00 Build 0)  -->
<!DOCTYPE svg PUBLIC "-//W3C//DTD SVG 1.1//EN" "http://www.w3.org/Graphics/SVG/1.1/DTD/svg11.dtd">
<svg version="1.1" id="图层_1" xmlns="http://www.w3.org/2000/svg" xmlns:xlink="http://www.w3.org/1999/xlink" x="0px" y="0px"
	 width="24px" height="24px" viewBox="0 0 24 24" enable-background="new 0 0 24 24" xml:space="preserve">
<polygon fill="#AE2124" points="3.635,23 3.635,1 20.365,1 20.365,16.807 14.113,23 "/>
<g>
	<g>
		<g>
			
				<linearGradient id="SVGID_1_" gradientUnits="userSpaceOnUse" x1="95.2002" y1="-581.3003" x2="95.2002" y2="-560.3008" gradientTransform="matrix(1 0 0 -1 -83.1997 -558.8008)">
				<stop  offset="0" style="stop-color:#C7312F"/>
				<stop  offset="0.1635" style="stop-color:#D9412C"/>
				<stop  offset="0.3476" style="stop-color:#E74E29"/>
				<stop  offset="0.5725" style="stop-color:#EA552A"/>
				<stop  offset="0.9516" style="stop-color:#EA582B"/>
			</linearGradient>
			<polygon fill="url(#SVGID_1_)" points="4.133,22.5 4.133,1.5 19.867,1.5 19.867,16.594 13.961,22.5 			"/>
		</g>
		<polygon fill="#AE2124" fill-opacity="0.3922" points="19.867,16.594 19.867,16.34 13.637,16.34 13.637,22.5 13.961,22.5 		"/>
		<path fill="#FFFFFF" fill-opacity="0.3922" d="M13.951,16.594l5.916,0.01L13.961,22.5L13.951,16.594z"/>
	</g>
	<g opacity="0.8" enable-background="new    ">
		<g>
			<path fill="#FFFFFF" d="M13.979,7.495c0.025,0.009,0.062,0.009,0.087,0.017C14.038,7.504,14.004,7.495,13.979,7.495z"/>
			<path fill="#FFFFFF" d="M13.758,7.46c0.036,0,0.062,0.009,0.098,0.009C13.819,7.469,13.794,7.469,13.758,7.46z"/>
			<path fill="#FFFFFF" d="M14.188,7.529c0.026,0.009,0.054,0.009,0.081,0.018C14.241,7.538,14.214,7.529,14.188,7.529z"/>
			<path fill="#FFFFFF" d="M14.396,7.563c0.026,0.01,0.054,0.01,0.07,0.019C14.441,7.573,14.424,7.563,14.396,7.563z"/>
			<path fill="#FFFFFF" d="M13.531,7.433c0.035,0,0.069,0.009,0.105,0.009C13.601,7.442,13.566,7.433,13.531,7.433z"/>
			<path fill="#FFFFFF" d="M14.792,7.652c0.017,0.009,0.034,0.009,0.062,0.018C14.826,7.661,14.809,7.652,14.792,7.652z"/>
			<path fill="#FFFFFF" d="M14.599,7.608c0.019,0.009,0.044,0.009,0.062,0.018C14.643,7.617,14.617,7.608,14.599,7.608z"/>
			<path fill="#FFFFFF" d="M7.311,8.604L7.311,8.604L7.311,8.604z"/>
			<path fill="#FFFFFF" d="M12.324,7.354c0.052,0,0.113,0,0.167,0C12.438,7.354,12.376,7.354,12.324,7.354z"/>
			<path fill="#FFFFFF" d="M14.977,7.696c0.018,0.009,0.035,0.009,0.051,0.018C15.012,7.705,14.993,7.705,14.977,7.696z"/>
			<path fill="#FFFFFF" d="M13.305,7.407c0.034,0,0.069,0.009,0.104,0.009C13.382,7.416,13.348,7.416,13.305,7.407z"/>
			<path fill="#FFFFFF" d="M11.512,7.354c0.051,0,0.104,0,0.166,0C11.624,7.354,11.563,7.354,11.512,7.354z"/>
			<path fill="#FFFFFF" d="M12.831,7.372c0.044,0,0.088,0.009,0.132,0.009C12.919,7.381,12.875,7.372,12.831,7.372z"/>
			<path fill="#FFFFFF" d="M13.076,7.389c0.044,0,0.078,0.009,0.123,0.009C13.154,7.397,13.111,7.389,13.076,7.389z"/>
			<path fill="#FFFFFF" d="M16.061,8.106c0,0,0.01,0,0.01,0.009C16.068,8.106,16.061,8.106,16.061,8.106z"/>
			<path fill="#FFFFFF" d="M16.48,8.387L16.48,8.387L16.48,8.387z"/>
			<path fill="#FFFFFF" d="M16.184,8.168C16.184,8.168,16.184,8.177,16.184,8.168C16.184,8.177,16.184,8.168,16.184,8.168z"/>
			<path fill="#FFFFFF" d="M16.287,8.238C16.297,8.238,16.297,8.238,16.287,8.238C16.297,8.238,16.297,8.238,16.287,8.238z"/>
			<path fill="#FFFFFF" d="M15.159,7.748c0.019,0,0.026,0.009,0.044,0.009C15.186,7.757,15.168,7.748,15.159,7.748z"/>
			<path fill="#FFFFFF" d="M16.559,8.457L16.559,8.457L16.559,8.457z"/>
			<path fill="#FFFFFF" d="M12,7.346c-0.078,0-0.166,0-0.245,0C11.834,7.346,11.922,7.346,12,7.346z"/>
			<path fill="#FFFFFF" d="M16.393,8.308L16.393,8.308L16.393,8.308z"/>
			<path fill="#FFFFFF" d="M15.649,7.915c0.008,0,0.018,0.009,0.024,0.009C15.667,7.924,15.657,7.915,15.649,7.915z"/>
			<path fill="#FFFFFF" d="M12,7.346c0.079,0,0.167,0,0.245,0C12.167,7.346,12.079,7.346,12,7.346z"/>
			<path fill="#FFFFFF" d="M15.325,7.801c0.01,0,0.025,0.009,0.034,0.009C15.351,7.809,15.343,7.801,15.325,7.801z"/>
			<path fill="#FFFFFF" d="M15.492,7.853c0.008,0,0.016,0.01,0.025,0.01C15.508,7.862,15.5,7.862,15.492,7.853z"/>
			<path fill="#FFFFFF" d="M15.798,7.975c0.009,0,0.018,0.009,0.018,0.009C15.807,7.984,15.798,7.975,15.798,7.975z"/>
			<path fill="#FFFFFF" d="M15.93,8.037c0.008,0,0.008,0.009,0.018,0.009C15.945,8.046,15.938,8.037,15.93,8.037z"/>
			<path fill="#FFFFFF" d="M12.587,7.363c0.043,0,0.097,0,0.139,0.008C12.684,7.363,12.63,7.363,12.587,7.363z"/>
			<path fill="#FFFFFF" d="M7.931,8.106c0.01,0,0.01-0.008,0.019-0.008C7.939,8.106,7.931,8.106,7.931,8.106z"/>
			<path fill="#FFFFFF" d="M7.808,8.177c0,0,0.01,0,0.01-0.009C7.816,8.168,7.816,8.177,7.808,8.177z"/>
			<path fill="#FFFFFF" d="M7.704,8.247C7.704,8.238,7.712,8.238,7.704,8.247C7.712,8.238,7.704,8.238,7.704,8.247z"/>
			<path fill="#FFFFFF" d="M8.054,8.046c0.008,0,0.008-0.009,0.018-0.009C8.063,8.037,8.054,8.046,8.054,8.046z"/>
			<path fill="#FFFFFF" d="M8.325,7.924c0.008,0,0.018-0.009,0.026-0.009C8.343,7.915,8.333,7.924,8.325,7.924z"/>
			<path fill="#FFFFFF" d="M8.186,7.984c0.01,0,0.018-0.009,0.026-0.009C8.203,7.975,8.194,7.984,8.186,7.984z"/>
			<path fill="#FFFFFF" d="M11.274,7.363c0.042,0,0.096,0,0.14-0.01C11.37,7.363,11.316,7.363,11.274,7.363z"/>
			<path fill="#FFFFFF" d="M12,10.609c-2.661,0-4.814-0.726-4.814-1.627v1.47c0,0.901,2.152,1.627,4.814,1.627
				c2.66,0,4.813-0.727,4.813-1.627l0,0v-1.47C16.813,9.875,14.66,10.609,12,10.609z"/>
			<path fill="#FFFFFF" d="M7.188,8.93v0.053C7.188,8.965,7.188,8.947,7.188,8.93L7.188,8.93z"/>
			<path fill="#FFFFFF" d="M8.474,7.871c0.008,0,0.026-0.008,0.034-0.008C8.5,7.862,8.49,7.862,8.474,7.871z"/>
			<path fill="#FFFFFF" d="M7.521,8.387L7.521,8.387L7.521,8.387z"/>
			<path fill="#FFFFFF" d="M16.813,8.93c0,0.018,0,0.035,0,0.053V8.93L16.813,8.93z"/>
			<path fill="#FFFFFF" d="M7.371,8.536L7.371,8.536L7.371,8.536z"/>
			<path fill="#FFFFFF" d="M7.44,8.457L7.44,8.457L7.44,8.457z"/>
			<path fill="#FFFFFF" d="M7.607,8.317C7.607,8.308,7.607,8.308,7.607,8.317C7.607,8.308,7.607,8.308,7.607,8.317z"/>
			<path fill="#FFFFFF" d="M10.363,7.442c0.036,0,0.07-0.009,0.104-0.009C10.433,7.433,10.399,7.442,10.363,7.442z"/>
			<path fill="#FFFFFF" d="M10.146,7.477c0.034-0.009,0.06-0.009,0.096-0.009C10.206,7.469,10.18,7.469,10.146,7.477z"/>
			<path fill="#FFFFFF" d="M10.582,7.416c0.036,0,0.07-0.009,0.114-0.009C10.652,7.416,10.618,7.416,10.582,7.416z"/>
			<path fill="#FFFFFF" d="M8.631,7.809c0.009,0,0.026-0.009,0.034-0.009C8.657,7.801,8.649,7.809,8.631,7.809z"/>
			<path fill="#FFFFFF" d="M11.038,7.381c0.043,0,0.087-0.009,0.131-0.009C11.125,7.372,11.081,7.381,11.038,7.381z"/>
			<path fill="#FFFFFF" d="M9.936,7.504c0.026-0.009,0.062-0.009,0.087-0.018C9.996,7.495,9.961,7.504,9.936,7.504z"/>
			<path fill="#FFFFFF" d="M10.811,7.397c0.044,0,0.078-0.009,0.122-0.009C10.889,7.389,10.845,7.397,10.811,7.397z"/>
			<path fill="#FFFFFF" d="M8.973,7.714c0.016-0.009,0.034-0.009,0.052-0.018C9.007,7.705,8.989,7.705,8.973,7.714z"/>
			<path fill="#FFFFFF" d="M8.798,7.757c0.018-0.009,0.026-0.009,0.044-0.018C8.832,7.748,8.814,7.757,8.798,7.757z"/>
			<path fill="#FFFFFF" d="M9.146,7.661C9.165,7.652,9.19,7.652,9.208,7.643C9.19,7.652,9.174,7.661,9.146,7.661z"/>
			<path fill="#FFFFFF" d="M9.339,7.617c0.026-0.009,0.044-0.009,0.07-0.018C9.383,7.608,9.357,7.617,9.339,7.617z"/>
			<path fill="#FFFFFF" d="M9.532,7.582C9.558,7.573,9.584,7.573,9.61,7.563C9.576,7.563,9.558,7.573,9.532,7.582z"/>
			<path fill="#FFFFFF" d="M9.733,7.538C9.759,7.529,9.785,7.529,9.813,7.52C9.785,7.529,9.759,7.538,9.733,7.538z"/>
		</g>
		<g>
			<path fill="#FFFFFF" d="M13.979,9.201c0.025,0.01,0.062,0.01,0.087,0.019C14.038,9.21,14.004,9.21,13.979,9.201z"/>
			<path fill="#FFFFFF" d="M13.758,9.175c0.036,0,0.062,0.009,0.098,0.009C13.819,9.175,13.794,9.175,13.758,9.175z"/>
			<path fill="#FFFFFF" d="M14.188,9.236c0.026,0.008,0.054,0.008,0.081,0.018C14.241,9.245,14.214,9.245,14.188,9.236z"/>
			<path fill="#FFFFFF" d="M14.396,9.27c0.026,0.009,0.054,0.009,0.07,0.018C14.441,9.279,14.424,9.279,14.396,9.27z"/>
			<path fill="#FFFFFF" d="M13.531,9.139c0.035,0,0.069,0.009,0.105,0.009C13.601,9.147,13.566,9.147,13.531,9.139z"/>
			<path fill="#FFFFFF" d="M14.792,9.358c0.017,0.009,0.034,0.009,0.062,0.018C14.826,9.367,14.809,9.367,14.792,9.358z"/>
			<path fill="#FFFFFF" d="M14.599,9.313c0.019,0.01,0.044,0.01,0.062,0.019C14.643,9.323,14.617,9.323,14.599,9.313z"/>
			<path fill="#FFFFFF" d="M7.311,10.321L7.311,10.321L7.311,10.321z"/>
			<path fill="#FFFFFF" d="M12.324,9.06c0.052,0,0.113,0,0.167,0C12.438,9.06,12.376,9.06,12.324,9.06z"/>
			<path fill="#FFFFFF" d="M14.977,9.411c0.018,0.009,0.035,0.009,0.051,0.019C15.012,9.42,14.993,9.411,14.977,9.411z"/>
			<path fill="#FFFFFF" d="M13.305,9.122c0.034,0,0.069,0.009,0.104,0.009C13.382,9.122,13.348,9.122,13.305,9.122z"/>
			<path fill="#FFFFFF" d="M11.512,9.069c0.051,0,0.104,0,0.166,0C11.624,9.06,11.563,9.06,11.512,9.069z"/>
			<path fill="#FFFFFF" d="M12.831,9.078c0.044,0,0.088,0.01,0.132,0.01C12.919,9.087,12.875,9.087,12.831,9.078z"/>
			<path fill="#FFFFFF" d="M13.076,9.096c0.044,0,0.078,0.008,0.123,0.008C13.154,9.104,13.111,9.104,13.076,9.096z"/>
			<path fill="#FFFFFF" d="M16.061,9.813c0,0,0.01,0,0.01,0.01C16.068,9.813,16.061,9.813,16.061,9.813z"/>
			<path fill="#FFFFFF" d="M16.48,10.094L16.48,10.094L16.48,10.094z"/>
			<path fill="#FFFFFF" d="M16.184,9.884L16.184,9.884L16.184,9.884z"/>
			<path fill="#FFFFFF" d="M16.287,9.953C16.297,9.953,16.297,9.953,16.287,9.953C16.297,9.953,16.297,9.953,16.287,9.953z"/>
			<path fill="#FFFFFF" d="M15.159,9.455c0.019,0,0.026,0.009,0.044,0.009C15.186,9.464,15.168,9.464,15.159,9.455z"/>
			<path fill="#FFFFFF" d="M16.559,10.163L16.559,10.163L16.559,10.163z"/>
			<path fill="#FFFFFF" d="M12,9.06c-0.078,0-0.166,0-0.245,0C11.834,9.06,11.922,9.06,12,9.06z"/>
			<path fill="#FFFFFF" d="M16.393,10.022L16.393,10.022L16.393,10.022z"/>
			<path fill="#FFFFFF" d="M15.649,9.621c0.008,0,0.018,0.009,0.024,0.009C15.667,9.63,15.657,9.63,15.649,9.621z"/>
			<path fill="#FFFFFF" d="M12,9.06c0.079,0,0.167,0,0.245,0C12.167,9.06,12.079,9.06,12,9.06z"/>
			<path fill="#FFFFFF" d="M15.325,9.507c0.01,0,0.025,0.009,0.034,0.009C15.351,9.515,15.343,9.515,15.325,9.507z"/>
			<path fill="#FFFFFF" d="M15.492,9.568c0.008,0,0.016,0.009,0.025,0.009C15.508,9.577,15.5,9.568,15.492,9.568z"/>
			<path fill="#FFFFFF" d="M15.798,9.682c0.009,0,0.018,0.009,0.018,0.009C15.807,9.691,15.798,9.691,15.798,9.682z"/>
			<path fill="#FFFFFF" d="M15.93,9.752c0.008,0,0.008,0.008,0.018,0.008C15.945,9.752,15.938,9.752,15.93,9.752z"/>
			<path fill="#FFFFFF" d="M12.587,9.069c0.043,0,0.097,0,0.139,0.009C12.684,9.069,12.63,9.069,12.587,9.069z"/>
			<path fill="#FFFFFF" d="M7.931,9.822c0.01,0,0.01-0.01,0.019-0.01C7.939,9.813,7.931,9.813,7.931,9.822z"/>
			<path fill="#FFFFFF" d="M7.808,9.884c0,0,0.01,0,0.01-0.009C7.816,9.884,7.816,9.884,7.808,9.884z"/>
			<path fill="#FFFFFF" d="M7.704,9.953C7.704,9.953,7.712,9.953,7.704,9.953C7.712,9.953,7.704,9.953,7.704,9.953z"/>
			<path fill="#FFFFFF" d="M8.054,9.752c0.008,0,0.008-0.01,0.018-0.01C8.063,9.752,8.054,9.752,8.054,9.752z"/>
			<path fill="#FFFFFF" d="M8.325,9.638c0.008,0,0.018-0.008,0.026-0.008C8.343,9.63,8.333,9.63,8.325,9.638z"/>
			<path fill="#FFFFFF" d="M8.186,9.691c0.01,0,0.018-0.009,0.026-0.009C8.203,9.691,8.194,9.691,8.186,9.691z"/>
			<path fill="#FFFFFF" d="M11.274,9.078c0.042,0,0.096,0,0.14-0.009C11.37,9.069,11.316,9.069,11.274,9.078z"/>
			<path fill="#FFFFFF" d="M12,12.316c-2.661,0-4.814-0.727-4.814-1.628v1.471c0,0.9,2.152,1.626,4.814,1.626
				c2.66,0,4.813-0.727,4.813-1.626l0,0v-1.471C16.813,11.59,14.66,12.316,12,12.316z"/>
			<path fill="#FFFFFF" d="M7.188,10.636v0.053C7.188,10.671,7.188,10.653,7.188,10.636L7.188,10.636z"/>
			<path fill="#FFFFFF" d="M8.474,9.577c0.008,0,0.026-0.009,0.034-0.009C8.5,9.568,8.49,9.577,8.474,9.577z"/>
			<path fill="#FFFFFF" d="M7.521,10.094L7.521,10.094L7.521,10.094z"/>
			<path fill="#FFFFFF" d="M16.813,10.636c0,0.018,0,0.035,0,0.053V10.636L16.813,10.636z"/>
			<path fill="#FFFFFF" d="M7.371,10.242L7.371,10.242L7.371,10.242z"/>
			<path fill="#FFFFFF" d="M7.44,10.172C7.44,10.163,7.44,10.163,7.44,10.172C7.44,10.163,7.44,10.163,7.44,10.172z"/>
			<path fill="#FFFFFF" d="M7.607,10.022L7.607,10.022L7.607,10.022z"/>
			<path fill="#FFFFFF" d="M10.363,9.157c0.036,0,0.07-0.009,0.104-0.009C10.433,9.147,10.399,9.147,10.363,9.157z"/>
			<path fill="#FFFFFF" d="M10.146,9.183c0.034-0.009,0.06-0.009,0.096-0.009C10.206,9.175,10.18,9.175,10.146,9.183z"/>
			<path fill="#FFFFFF" d="M10.582,9.131c0.036,0,0.07-0.009,0.114-0.009C10.652,9.122,10.618,9.122,10.582,9.131z"/>
			<path fill="#FFFFFF" d="M8.631,9.523c0.009,0,0.026-0.009,0.034-0.009C8.657,9.515,8.649,9.515,8.631,9.523z"/>
			<path fill="#FFFFFF" d="M11.038,9.087c0.043,0,0.087-0.01,0.131-0.01C11.125,9.087,11.081,9.087,11.038,9.087z"/>
			<path fill="#FFFFFF" d="M9.936,9.219C9.961,9.21,9.997,9.21,10.023,9.201C9.996,9.21,9.961,9.21,9.936,9.219z"/>
			<path fill="#FFFFFF" d="M10.811,9.104c0.034,0,0.078-0.009,0.122-0.009C10.889,9.104,10.845,9.104,10.811,9.104z"/>
			<path fill="#FFFFFF" d="M8.973,9.42c0.016-0.009,0.034-0.009,0.052-0.018C9.007,9.411,8.989,9.42,8.973,9.42z"/>
			<path fill="#FFFFFF" d="M8.798,9.472c0.018-0.009,0.026-0.009,0.044-0.019C8.832,9.464,8.814,9.464,8.798,9.472z"/>
			<path fill="#FFFFFF" d="M9.146,9.375C9.165,9.367,9.19,9.367,9.208,9.358C9.19,9.367,9.174,9.367,9.146,9.375z"/>
			<path fill="#FFFFFF" d="M9.339,9.332c0.026-0.009,0.044-0.009,0.07-0.019C9.383,9.323,9.357,9.323,9.339,9.332z"/>
			<path fill="#FFFFFF" d="M9.532,9.288C9.558,9.279,9.584,9.279,9.61,9.27C9.576,9.279,9.558,9.279,9.532,9.288z"/>
			<path fill="#FFFFFF" d="M9.733,9.254c0.026-0.009,0.052-0.009,0.079-0.018C9.785,9.245,9.759,9.245,9.733,9.254z"/>
		</g>
		<g>
			<path fill="#FFFFFF" d="M13.979,10.907c0.025,0.009,0.062,0.009,0.087,0.018C14.038,10.916,14.004,10.916,13.979,10.907z"/>
			<path fill="#FFFFFF" d="M13.758,10.881c0.036,0,0.062,0.009,0.098,0.009C13.819,10.889,13.794,10.881,13.758,10.881z"/>
			<path fill="#FFFFFF" d="M14.188,10.942c0.026,0.009,0.054,0.009,0.081,0.019C14.241,10.951,14.214,10.951,14.188,10.942z"/>
			<path fill="#FFFFFF" d="M14.396,10.986c0.026,0.008,0.054,0.008,0.07,0.018C14.441,10.995,14.424,10.986,14.396,10.986z"/>
			<path fill="#FFFFFF" d="M13.531,10.854c0.035,0,0.069,0.01,0.105,0.01C13.601,10.863,13.566,10.854,13.531,10.854z"/>
			<path fill="#FFFFFF" d="M14.792,11.073c0.017,0.009,0.034,0.009,0.062,0.018C14.826,11.082,14.809,11.073,14.792,11.073z"/>
			<path fill="#FFFFFF" d="M14.599,11.02c0.019,0.009,0.044,0.009,0.062,0.018C14.643,11.038,14.617,11.029,14.599,11.02z"/>
			<path fill="#FFFFFF" d="M7.311,12.027L7.311,12.027L7.311,12.027z"/>
			<path fill="#FFFFFF" d="M12.324,10.767c0.052,0,0.113,0,0.167,0C12.438,10.776,12.376,10.776,12.324,10.767z"/>
			<path fill="#FFFFFF" d="M14.977,11.117c0.018,0.009,0.035,0.009,0.051,0.018C15.012,11.125,14.993,11.125,14.977,11.117z"/>
			<path fill="#FFFFFF" d="M13.305,10.828c0.034,0,0.069,0.01,0.104,0.01C13.382,10.837,13.348,10.828,13.305,10.828z"/>
			<path fill="#FFFFFF" d="M11.512,10.776c0.051,0,0.104,0,0.166,0C11.624,10.776,11.563,10.776,11.512,10.776z"/>
			<path fill="#FFFFFF" d="M12.831,10.793c0.044,0,0.088,0.009,0.132,0.009C12.919,10.793,12.875,10.793,12.831,10.793z"/>
			<path fill="#FFFFFF" d="M13.076,10.81c0.044,0,0.078,0.009,0.123,0.009C13.154,10.81,13.111,10.81,13.076,10.81z"/>
			<path fill="#FFFFFF" d="M16.061,11.519c0,0,0.01,0,0.01,0.009C16.068,11.528,16.061,11.528,16.061,11.519z"/>
			<path fill="#FFFFFF" d="M16.48,11.8L16.48,11.8L16.48,11.8z"/>
			<path fill="#FFFFFF" d="M16.184,11.59L16.184,11.59L16.184,11.59z"/>
			<path fill="#FFFFFF" d="M16.287,11.66C16.297,11.66,16.297,11.66,16.287,11.66C16.297,11.66,16.297,11.66,16.287,11.66z"/>
			<path fill="#FFFFFF" d="M15.159,11.17c0.019,0,0.026,0.009,0.044,0.009C15.186,11.179,15.168,11.17,15.159,11.17z"/>
			<path fill="#FFFFFF" d="M16.559,11.879L16.559,11.879L16.559,11.879z"/>
			<path fill="#FFFFFF" d="M12,10.767c-0.078,0-0.166,0-0.245,0C11.834,10.767,11.922,10.767,12,10.767z"/>
			<path fill="#FFFFFF" d="M16.393,11.729L16.393,11.729L16.393,11.729z"/>
			<path fill="#FFFFFF" d="M15.649,11.336c0.008,0,0.018,0.009,0.024,0.009C15.667,11.345,15.657,11.336,15.649,11.336z"/>
			<path fill="#FFFFFF" d="M12,10.767c0.079,0,0.167,0,0.245,0C12.167,10.767,12.079,10.767,12,10.767z"/>
			<path fill="#FFFFFF" d="M15.325,11.222c0.01,0,0.025,0.007,0.034,0.007C15.351,11.229,15.343,11.222,15.325,11.222z"/>
			<path fill="#FFFFFF" d="M15.492,11.273c0.008,0,0.016,0.009,0.025,0.009C15.508,11.283,15.5,11.283,15.492,11.273z"/>
			<path fill="#FFFFFF" d="M15.798,11.396c0.009,0,0.018,0.009,0.018,0.009C15.807,11.396,15.798,11.396,15.798,11.396z"/>
			<path fill="#FFFFFF" d="M15.93,11.458c0.008,0,0.008,0.009,0.018,0.009C15.945,11.467,15.938,11.458,15.93,11.458z"/>
			<path fill="#FFFFFF" d="M12.587,10.776c0.043,0,0.097,0,0.139,0.009C12.684,10.785,12.63,10.785,12.587,10.776z"/>
			<path fill="#FFFFFF" d="M7.931,11.528c0.01,0,0.01-0.009,0.019-0.009C7.939,11.528,7.931,11.528,7.931,11.528z"/>
			<path fill="#FFFFFF" d="M7.808,11.598c0,0,0.01,0,0.01-0.009C7.816,11.59,7.816,11.59,7.808,11.598z"/>
			<path fill="#FFFFFF" d="M7.704,11.66C7.704,11.66,7.712,11.66,7.704,11.66C7.712,11.66,7.704,11.66,7.704,11.66z"/>
			<path fill="#FFFFFF" d="M8.054,11.467c0.008,0,0.008-0.009,0.018-0.009C8.063,11.458,8.054,11.467,8.054,11.467z"/>
			<path fill="#FFFFFF" d="M8.325,11.345c0.008,0,0.018-0.009,0.026-0.009C8.343,11.336,8.333,11.345,8.325,11.345z"/>
			<path fill="#FFFFFF" d="M8.186,11.406c0.01,0,0.018-0.009,0.026-0.009C8.203,11.396,8.194,11.396,8.186,11.406z"/>
			<path fill="#FFFFFF" d="M11.274,10.785c0.042,0,0.096,0,0.14-0.009C11.37,10.785,11.316,10.785,11.274,10.785z"/>
			<path fill="#FFFFFF" d="M12,14.031c-2.661,0-4.814-0.727-4.814-1.629v1.471c0,0.899,2.152,1.627,4.814,1.627
				c2.66,0,4.813-0.728,4.813-1.627l0,0v-1.471C16.813,13.296,14.66,14.031,12,14.031z"/>
			<path fill="#FFFFFF" d="M7.188,12.35v0.052C7.188,12.386,7.188,12.368,7.188,12.35L7.188,12.35z"/>
			<path fill="#FFFFFF" d="M8.474,11.283c0.008,0,0.026-0.009,0.034-0.009C8.5,11.283,8.49,11.283,8.474,11.283z"/>
			<path fill="#FFFFFF" d="M7.521,11.808C7.521,11.8,7.521,11.8,7.521,11.808C7.521,11.8,7.521,11.8,7.521,11.808z"/>
			<path fill="#FFFFFF" d="M16.813,12.35c0,0.018,0,0.036,0,0.052V12.35L16.813,12.35z"/>
			<path fill="#FFFFFF" d="M7.371,11.957C7.371,11.948,7.371,11.948,7.371,11.957C7.371,11.948,7.371,11.948,7.371,11.957z"/>
			<path fill="#FFFFFF" d="M7.44,11.879L7.44,11.879L7.44,11.879z"/>
			<path fill="#FFFFFF" d="M7.607,11.729L7.607,11.729L7.607,11.729z"/>
			<path fill="#FFFFFF" d="M10.363,10.863c0.036,0,0.07-0.01,0.104-0.01C10.433,10.854,10.399,10.863,10.363,10.863z"/>
			<path fill="#FFFFFF" d="M10.146,10.889c0.034-0.008,0.06-0.008,0.096-0.008C10.206,10.881,10.18,10.889,10.146,10.889z"/>
			<path fill="#FFFFFF" d="M10.582,10.837c0.036,0,0.07-0.01,0.114-0.01C10.652,10.828,10.618,10.837,10.582,10.837z"/>
			<path fill="#FFFFFF" d="M8.631,11.229c0.009,0,0.026-0.007,0.034-0.007C8.657,11.222,8.649,11.229,8.631,11.229z"/>
			<path fill="#FFFFFF" d="M11.038,10.802c0.043,0,0.087-0.009,0.131-0.009C11.125,10.793,11.081,10.793,11.038,10.802z"/>
			<path fill="#FFFFFF" d="M9.936,10.925c0.026-0.009,0.06-0.009,0.086-0.018C9.996,10.916,9.961,10.916,9.936,10.925z"/>
			<path fill="#FFFFFF" d="M10.811,10.819c0.034,0,0.078-0.009,0.122-0.009C10.889,10.81,10.845,10.81,10.811,10.819z"/>
			<path fill="#FFFFFF" d="M8.973,11.135c0.016-0.009,0.034-0.009,0.052-0.018C9.007,11.117,8.989,11.125,8.973,11.135z"/>
			<path fill="#FFFFFF" d="M8.798,11.179c0.018-0.009,0.026-0.009,0.044-0.019C8.832,11.17,8.814,11.179,8.798,11.179z"/>
			<path fill="#FFFFFF" d="M9.146,11.082c0.018-0.009,0.044-0.009,0.062-0.019C9.19,11.073,9.174,11.082,9.146,11.082z"/>
			<path fill="#FFFFFF" d="M9.339,11.038c0.026-0.009,0.044-0.009,0.07-0.018C9.383,11.029,9.357,11.038,9.339,11.038z"/>
			<path fill="#FFFFFF" d="M9.532,10.995c0.026-0.008,0.052-0.008,0.078-0.018C9.576,10.986,9.558,10.995,9.532,10.995z"/>
			<path fill="#FFFFFF" d="M9.733,10.96c0.026-0.01,0.052-0.01,0.079-0.019C9.785,10.951,9.759,10.951,9.733,10.96z"/>
		</g>
		<ellipse fill="#FFFFFF" cx="12" cy="8.72" rx="4.813" ry="1.628"/>
	</g>
	<g>
		<rect x="4.129" y="1.5" opacity="0.8" fill="#FFFFFF" enable-background="new    " width="15.742" height="4.025"/>
		<g enable-background="new    ">
			<path fill="#E64A19" d="M7.885,4.689C7.857,4.607,7.827,4.523,7.796,4.436C7.764,4.349,7.731,4.262,7.7,4.177H6.726
				C6.695,4.263,6.663,4.35,6.631,4.437C6.6,4.523,6.57,4.607,6.543,4.689H5.96c0.093-0.255,0.182-0.491,0.267-0.708
				c0.084-0.216,0.167-0.42,0.247-0.612c0.081-0.191,0.16-0.373,0.239-0.545c0.078-0.172,0.159-0.34,0.243-0.504h0.533
				C7.57,2.484,7.651,2.652,7.731,2.824C7.81,2.997,7.89,3.178,7.971,3.37c0.082,0.191,0.164,0.396,0.249,0.612
				c0.084,0.217,0.173,0.453,0.267,0.708H7.885z M7.211,2.857c-0.013,0.034-0.032,0.081-0.056,0.14S7.104,3.125,7.073,3.202
				C7.042,3.28,7.008,3.366,6.969,3.459C6.932,3.552,6.893,3.65,6.853,3.752h0.714C7.529,3.65,7.492,3.551,7.456,3.458
				C7.42,3.364,7.386,3.279,7.354,3.201C7.321,3.124,7.293,3.055,7.27,2.996C7.245,2.937,7.225,2.891,7.211,2.857z"/>
			<path fill="#E64A19" d="M9.854,4.737c-0.405,0-0.714-0.107-0.927-0.321C8.715,4.202,8.609,3.897,8.609,3.503
				c0-0.196,0.033-0.371,0.097-0.525c0.065-0.154,0.154-0.284,0.267-0.39S9.22,2.402,9.375,2.347
				c0.156-0.055,0.326-0.082,0.507-0.082c0.106,0,0.202,0.007,0.289,0.022c0.086,0.014,0.162,0.031,0.226,0.051
				c0.065,0.019,0.119,0.039,0.162,0.06c0.044,0.021,0.075,0.037,0.094,0.048l-0.162,0.431c-0.077-0.039-0.166-0.072-0.268-0.1
				c-0.102-0.027-0.218-0.041-0.347-0.041c-0.086,0-0.171,0.014-0.253,0.041C9.54,2.805,9.466,2.85,9.402,2.91
				S9.288,3.048,9.25,3.144C9.211,3.24,9.192,3.356,9.192,3.493c0,0.109,0.013,0.211,0.038,0.306
				c0.025,0.094,0.066,0.176,0.123,0.244c0.056,0.069,0.13,0.123,0.221,0.163c0.091,0.041,0.201,0.06,0.331,0.06
				c0.082,0,0.154-0.004,0.219-0.014s0.123-0.021,0.173-0.033c0.05-0.012,0.095-0.026,0.133-0.042
				c0.038-0.016,0.073-0.031,0.104-0.044l0.154,0.427c-0.079,0.046-0.19,0.087-0.335,0.123C10.211,4.719,10.044,4.737,9.854,4.737z"
				/>
			<path fill="#E64A19" d="M12.097,4.737c-0.405,0-0.714-0.107-0.927-0.321c-0.212-0.214-0.318-0.519-0.318-0.913
				c0-0.196,0.033-0.371,0.097-0.525c0.065-0.154,0.154-0.284,0.267-0.39s0.248-0.187,0.403-0.241s0.325-0.082,0.507-0.082
				c0.106,0,0.202,0.007,0.288,0.022c0.086,0.014,0.162,0.031,0.227,0.051c0.064,0.019,0.119,0.039,0.162,0.06
				c0.044,0.021,0.075,0.037,0.094,0.048l-0.162,0.431c-0.077-0.039-0.166-0.072-0.268-0.1s-0.218-0.041-0.347-0.041
				c-0.086,0-0.171,0.014-0.254,0.041c-0.083,0.027-0.156,0.072-0.22,0.132c-0.063,0.06-0.114,0.139-0.152,0.234
				c-0.039,0.096-0.058,0.212-0.058,0.349c0,0.109,0.013,0.211,0.039,0.306c0.025,0.094,0.065,0.176,0.122,0.244
				c0.056,0.069,0.13,0.123,0.222,0.163c0.091,0.041,0.201,0.06,0.331,0.06c0.082,0,0.155-0.004,0.22-0.014s0.122-0.021,0.173-0.033
				s0.095-0.026,0.134-0.042c0.037-0.016,0.072-0.031,0.104-0.044l0.154,0.427c-0.079,0.046-0.191,0.087-0.335,0.123
				C12.454,4.719,12.287,4.737,12.097,4.737z"/>
			<path fill="#E64A19" d="M15.479,3.503c0,0.205-0.036,0.384-0.102,0.537c-0.068,0.153-0.164,0.28-0.287,0.38
				c-0.123,0.101-0.273,0.176-0.451,0.226c-0.178,0.05-0.377,0.075-0.598,0.075c-0.101,0-0.219-0.004-0.353-0.011
				c-0.136-0.008-0.267-0.025-0.396-0.05V2.351c0.13-0.023,0.264-0.039,0.406-0.046c0.14-0.008,0.26-0.012,0.36-0.012
				c0.214,0,0.408,0.022,0.581,0.068c0.174,0.045,0.324,0.117,0.447,0.215c0.126,0.098,0.222,0.223,0.29,0.376
				C15.442,3.105,15.479,3.289,15.479,3.503z M13.854,4.255c0.026,0.002,0.058,0.004,0.092,0.005
				c0.034,0.001,0.075,0.002,0.125,0.002c0.28,0,0.489-0.067,0.623-0.202c0.137-0.134,0.205-0.32,0.205-0.557
				c0-0.248-0.065-0.437-0.197-0.564c-0.128-0.128-0.333-0.192-0.613-0.192c-0.038,0-0.078,0-0.119,0.002s-0.079,0.004-0.115,0.008
				V4.255z"/>
			<path fill="#E64A19" d="M16.777,4.72c-0.137,0-0.273-0.004-0.41-0.011c-0.135-0.008-0.276-0.027-0.422-0.057V2.354
				c0.115-0.021,0.241-0.036,0.378-0.046s0.263-0.016,0.38-0.016c0.158,0,0.307,0.011,0.438,0.033
				c0.134,0.021,0.249,0.059,0.345,0.111s0.172,0.122,0.224,0.207c0.055,0.085,0.082,0.19,0.082,0.316
				c0,0.188-0.096,0.338-0.287,0.448c0.159,0.057,0.266,0.135,0.323,0.232c0.058,0.099,0.087,0.208,0.087,0.332
				c0,0.249-0.096,0.436-0.287,0.561S17.151,4.72,16.777,4.72z M16.492,3.25h0.273c0.173,0,0.296-0.021,0.369-0.063
				c0.077-0.042,0.112-0.11,0.112-0.203c0-0.096-0.038-0.164-0.114-0.202c-0.077-0.039-0.189-0.058-0.34-0.058
				c-0.046,0-0.098,0-0.152,0.002c-0.058,0.001-0.107,0.004-0.148,0.008V3.25z M16.492,3.657v0.612
				c0.041,0.004,0.085,0.008,0.132,0.01c0.049,0.002,0.101,0.003,0.158,0.003c0.17,0,0.304-0.023,0.407-0.068
				c0.104-0.045,0.156-0.13,0.156-0.253c0-0.109-0.044-0.188-0.131-0.234c-0.085-0.047-0.211-0.07-0.369-0.07H16.492z"/>
		</g>
	</g>
</g>
</svg>
