<?xml version="1.0" encoding="utf-8"?>
<!-- Generator: Adobe Illustrator 21.0.0, SVG Export Plug-In . SVG Version: 6.00 Build 0)  -->
<svg version="1.1" id="图层_1" xmlns="http://www.w3.org/2000/svg" xmlns:xlink="http://www.w3.org/1999/xlink" x="0px" y="0px"
	 viewBox="0 0 24 24" style="enable-background:new 0 0 24 24;" xml:space="preserve">
<style type="text/css">
	.st0{fill:#455A64;}
	.st1{fill:url(#SVGID_1_);}
	.st2{fill:#455A64;fill-opacity:0.39;}
	.st3{fill:#FFFFFF;fill-opacity:0.39;}
	.st4{opacity:0.8;fill:#FFFFFF;enable-background:new    ;}
</style>
<title>application-x-desktop</title>
<path class="st0" d="M20,2v14l-6,6H4V2H20 M21,1H3v22h11l7-7V1z"/>
<linearGradient id="SVGID_1_" gradientUnits="userSpaceOnUse" x1="12" y1="1534" x2="12" y2="1554" gradientTransform="matrix(1 0 0 1 0 -1532)">
	<stop  offset="0" style="stop-color:#90A4AE"/>
	<stop  offset="0.14" style="stop-color:#849AA5"/>
	<stop  offset="0.42" style="stop-color:#708A97"/>
	<stop  offset="0.71" style="stop-color:#64808E"/>
	<stop  offset="1" style="stop-color:#607D8B"/>
</linearGradient>
<polygon class="st1" points="4,22 4,2 20,2 20,16 14,22 "/>
<polygon class="st2" points="20,16 20,15 13,15 13,22 14,22 "/>
<path class="st3" d="M14,16h6l-6,6V16z"/>
<path class="st4" d="M15.6,10.9L15.6,10.9l0.1-0.2l0,0c0.1-0.2,0.2-0.5,0.3-0.7h1V8h-1c-0.1-0.4-0.3-0.8-0.5-1.2l0.7-0.7l-1.4-1.4
	l-0.7,0.7C13.8,5.2,13.4,5.1,13,5l0,0V4h-2v1l0,0c-0.4,0.1-0.8,0.3-1.2,0.5L9.1,4.8L7.8,6.2l0.7,0.7C8.3,7.2,8.1,7.6,8,8H7v2h1
	c0.1,0.4,0.3,0.8,0.5,1.2l0,0l-0.7,0.7l1.4,1.4l0.7-0.7c0.3,0.2,0.7,0.3,1.1,0.4v1h2v-1l0,0c0.4-0.1,0.8-0.3,1.1-0.5l0.7,0.7
	l1.4-1.4l-0.7-0.7l0,0L15.6,10.9C15.6,11,15.6,11,15.6,10.9z M12,12.1c-1.7,0-3.2-1.4-3.2-3.2s1.4-3.2,3.2-3.2c0.3,0,0.7,0.1,1,0.2
	l0,0c1.3,0.4,2.2,1.6,2.2,3c0,0.1,0,0.2,0,0.3l0,0c0,0.3-0.1,0.5-0.2,0.8l0,0c0,0.1-0.1,0.3-0.2,0.4l0,0l-0.1,0.2l0,0l-0.1,0.2l0,0
	c0,0.1-0.1,0.1-0.1,0.2l0,0c-0.1,0.1-0.2,0.2-0.3,0.3l0,0c-0.1,0-0.1,0.1-0.2,0.1l0,0l-0.2,0.1l0,0l-0.2,0.1l0,0l-0.2,0.1l0,0L13,12
	C12.7,12.1,12.3,12.2,12,12.1z"/>
</svg>
