<?xml version="1.0" encoding="utf-8"?>
<!-- Generator: Adobe Illustrator 16.0.0, SVG Export Plug-In . SVG Version: 6.00 Build 0)  -->
<!DOCTYPE svg PUBLIC "-//W3C//DTD SVG 1.1//EN" "http://www.w3.org/Graphics/SVG/1.1/DTD/svg11.dtd">
<svg version="1.1" id="图层_1" xmlns="http://www.w3.org/2000/svg" xmlns:xlink="http://www.w3.org/1999/xlink" x="0px" y="0px"
	 width="24px" height="24px" viewBox="0 0 24 24" enable-background="new 0 0 24 24" xml:space="preserve">
<linearGradient id="SVGID_1_" gradientUnits="userSpaceOnUse" x1="178.4004" y1="1576.9609" x2="178.4004" y2="1554.9609" gradientTransform="matrix(1 0 0 1 -166.4004 -1553.9609)">
	<stop  offset="0" style="stop-color:#455A64"/>
	<stop  offset="0.0238" style="stop-color:#465C66"/>
	<stop  offset="0.3557" style="stop-color:#556E7A"/>
	<stop  offset="0.6835" style="stop-color:#5D7987"/>
	<stop  offset="1" style="stop-color:#607D8B"/>
</linearGradient>
<path fill="url(#SVGID_1_)" d="M14.063,23l6.188-6.188V1H3.75v22H14.063z"/>
<polygon fill="#263238" fill-opacity="0.3922" points="13.719,16.469 13.719,23 14.063,23 20.25,16.813 20.25,16.469 "/>
<path fill="#FFFFFF" fill-opacity="0.3922" d="M14.063,16.813h6.183L14.063,23V16.813z"/>
<g opacity="0.8">
	<path fill="#FFFFFF" d="M9.866,6.161c-1.58,0-3.57,1.495-3.552,3.81c0.017,2.241,0.762,3.455,1.332,4.828l1.691-0.702
		c-0.389-0.789-0.896-1.57-1.076-1.963c-0.502-1.094-0.673-1.587-0.63-2.421c0.039-0.806,0.308-1.298,0.802-1.775
		c0.492-0.475,1.178-0.715,1.991-0.603c1.175,0.161,1.794,0.819,2.093,1.419c0.167-0.024,0.339-0.044,0.53-0.043
		c0.147,0,0.297,0.011,0.442,0.043C13.175,7.507,11.62,6.161,9.866,6.161z M10.584,8.338C9.863,8.291,8.815,8.641,8.822,9.742
		c0.003,1.041,0.656,1.82,1.431,2.134c-0.017-0.262,0.002-0.552,0.043-0.845c-0.42-0.228-0.676-0.635-0.716-1.203
		c-0.048-0.631,0.579-1.269,1.575-0.945c0.161,0.051,0.167-0.227-0.013-0.373C11.023,8.417,10.822,8.354,10.584,8.338z
		 M13.048,9.169c-0.127,0-0.246,0.004-0.358,0.015c0.028,0.112,0.05,0.225,0.058,0.314c0.072-0.004,0.151-0.003,0.228,0
		c0.212,0.011,0.408,0.044,0.589,0.101c0.007-0.118,0.002-0.231,0-0.344C13.393,9.201,13.22,9.17,13.048,9.169z M12.704,9.942
		c-0.113,0.485-0.453,1.08-1.147,1.246c-0.016,0.101-0.032,0.195-0.027,0.258c0.008,0.133,0.036,0.318,0.113,0.516
		c1.188-0.218,1.698-1.051,1.863-1.905c-0.159-0.063-0.341-0.104-0.559-0.114C12.862,9.938,12.777,9.936,12.704,9.942z
		 M10.74,11.203c-0.024,0.222-0.041,0.442-0.027,0.645c0.002,0.049,0.005,0.094,0.013,0.144c0.089,0.013,0.171,0.042,0.258,0.043
		c0.075,0,0.146-0.011,0.215-0.015c-0.069-0.197-0.118-0.385-0.129-0.543c-0.004-0.069-0.005-0.149,0-0.23
		C10.955,11.241,10.843,11.223,10.74,11.203z"/>
	<path fill="#CFD8DC" d="M16.388,6.168c0.572,1.371,1.33,2.58,1.346,4.822c0.018,2.315-1.981,3.812-3.563,3.812
		c-1.914,0-3.598-1.604-3.686-2.933c-0.081-1.199,0.349-2.943,2.568-2.931c1.06,0.007,2.161,0.921,2.166,2.283
		c0.008,1.469-1.848,1.614-2.314,1.239c-0.181-0.146-0.176-0.434-0.017-0.382c0.999,0.322,1.615-0.313,1.569-0.945
		c-0.062-0.86-0.574-1.371-1.494-1.413c-1.326-0.063-1.697,1.217-1.664,1.738c0.042,0.632,0.597,1.932,2.323,2.168
		c0.814,0.113,1.491-0.129,1.983-0.604c0.493-0.477,0.772-0.968,0.813-1.773c0.042-0.833-0.141-1.321-0.644-2.416
		c-0.18-0.392-0.681-1.178-1.07-1.967l1.686-0.698"/>
</g>
<g>
	<path fill="#263238" d="M19.75,1.5v15.105L13.855,22.5H9.25h-5v-21H19.75 M20.25,1H3.75v22h5.5h4.813l6.188-6.188V1L20.25,1z"/>
</g>
</svg>
