<?xml version="1.0" encoding="utf-8"?>
<!-- Generator: Adobe Illustrator 21.0.0, SVG Export Plug-In . SVG Version: 6.00 Build 0)  -->
<svg version="1.1" id="图层_1" xmlns="http://www.w3.org/2000/svg" xmlns:xlink="http://www.w3.org/1999/xlink" x="0px" y="0px"
	 viewBox="0 0 24 24" style="enable-background:new 0 0 24 24;" xml:space="preserve">
<style type="text/css">
	.st0{fill:#1B5E20;}
	.st1{fill:url(#SVGID_1_);}
	.st2{opacity:0.8;fill:#FFFFFF;enable-background:new    ;}
</style>
<title>application-table-template</title>
<path class="st0" d="M20,2v14l-6,6H4V2H20 M21,1H3v22h18V1z"/>
<linearGradient id="SVGID_1_" gradientUnits="userSpaceOnUse" x1="12" y1="-718" x2="12" y2="-738" gradientTransform="matrix(1 0 0 -1 0 -716)">
	<stop  offset="0" style="stop-color:#8BC34A"/>
	<stop  offset="0.2" style="stop-color:#86C049"/>
	<stop  offset="0.43" style="stop-color:#79B747"/>
	<stop  offset="0.68" style="stop-color:#62A943"/>
	<stop  offset="0.92" style="stop-color:#43953E"/>
	<stop  offset="1" style="stop-color:#388E3C"/>
</linearGradient>
<polygon class="st1" points="4,22 4,2 20,2 20,16 20,22 "/>
<path class="st2" d="M7,5v9h10V5H7z M8,6h2v1H8V6z M8,8h2v1H8V8z M8,10h2v1H8V10z M8,13v-1h2v1H8z M16,13h-5v-1h5V13z M16,11h-5v-1
	h5V11z M16,9h-5V8h5V9z M16,7h-5V6h5V7z"/>
</svg>
