<?xml version="1.0" encoding="utf-8"?>
<!-- Generator: Adobe Illustrator 16.0.0, SVG Export Plug-In . SVG Version: 6.00 Build 0)  -->
<!DOCTYPE svg PUBLIC "-//W3C//DTD SVG 1.1//EN" "http://www.w3.org/Graphics/SVG/1.1/DTD/svg11.dtd">
<svg version="1.1" id="图层_1" xmlns="http://www.w3.org/2000/svg" xmlns:xlink="http://www.w3.org/1999/xlink" x="0px" y="0px"
	 width="24px" height="24px" viewBox="0 0 24 24" enable-background="new 0 0 24 24" xml:space="preserve">
<polygon fill="#3E2723" points="3.634,23 3.634,1 20.366,1 20.366,16.807 14.111,23 "/>
<g>
	<g>
		
			<linearGradient id="SVGID_1_" gradientUnits="userSpaceOnUse" x1="53.5996" y1="-141.4004" x2="53.5996" y2="-162.4009" gradientTransform="matrix(1 0 0 -1 -41.6001 -139.9004)">
			<stop  offset="0" style="stop-color:#785548"/>
			<stop  offset="1" style="stop-color:#9F9E9F"/>
		</linearGradient>
		<polygon fill="url(#SVGID_1_)" points="4.133,22.5 4.133,1.5 19.867,1.5 19.867,16.586 14.019,22.5 		"/>
		<polygon fill="#795548" fill-opacity="0.7" points="19.867,16.594 19.867,16.34 13.638,16.34 13.638,22.5 13.961,22.5 		"/>
		<path opacity="0.39" fill="#FFFFFF" enable-background="new    " d="M13.952,16.594l5.915,0.008L13.961,22.5L13.952,16.594z"/>
	</g>
	<path fill="#FFFFFF" d="M9.755,5.548H9.223v6.819H8.819V5.548H8.291v6.819H7.889V5.548h-0.53v6.819H6.955V5.548h-0.53v6.819H6.286
		v2.889h3.65v-2.889H9.755V5.548z M9.405,14.417h-2.59v-1.675h2.59V14.417z"/>
	<g>
		<rect x="4.13" y="1.5" opacity="0.8" fill="#FFFFFF" enable-background="new    " width="15.74" height="4.025"/>
		<g enable-background="new    ">
			<path fill="#5D4037" d="M9.813,5.082C9.776,4.973,9.736,4.86,9.694,4.746C9.651,4.631,9.609,4.516,9.568,4.402H8.277
				C8.236,4.517,8.194,4.631,8.153,4.747C8.11,4.861,8.072,4.973,8.035,5.082H7.265c0.123-0.338,0.242-0.65,0.353-0.938
				c0.112-0.286,0.222-0.556,0.328-0.81C8.052,3.081,8.157,2.84,8.26,2.612c0.104-0.228,0.212-0.451,0.322-0.668h0.706
				c0.107,0.217,0.215,0.44,0.319,0.668C9.713,2.84,9.819,3.081,9.927,3.334c0.106,0.254,0.216,0.524,0.328,0.81
				c0.111,0.287,0.229,0.6,0.354,0.938H9.813z M8.92,2.655C8.902,2.7,8.879,2.763,8.847,2.841S8.778,3.01,8.738,3.113
				C8.697,3.216,8.65,3.329,8.602,3.452C8.551,3.576,8.499,3.705,8.447,3.841h0.944c-0.051-0.136-0.1-0.266-0.147-0.39
				C9.197,3.327,9.152,3.214,9.11,3.111C9.066,3.008,9.029,2.918,8.998,2.839C8.965,2.761,8.939,2.7,8.92,2.655z"/>
			<path fill="#5D4037" d="M11.999,1.908c0.495,0,0.875,0.084,1.139,0.251s0.396,0.428,0.396,0.781c0,0.22-0.053,0.399-0.159,0.537
				c-0.106,0.137-0.26,0.245-0.459,0.323c0.065,0.079,0.135,0.168,0.208,0.27c0.073,0.101,0.146,0.206,0.219,0.317
				c0.07,0.11,0.139,0.224,0.206,0.344c0.067,0.119,0.129,0.236,0.186,0.351h-0.831c-0.062-0.103-0.121-0.207-0.185-0.313
				c-0.062-0.105-0.126-0.208-0.191-0.308c-0.065-0.1-0.128-0.194-0.193-0.283c-0.063-0.089-0.126-0.169-0.19-0.242h-0.368v1.145
				h-0.742V1.989c0.163-0.03,0.33-0.051,0.502-0.063C11.708,1.914,11.862,1.908,11.999,1.908z M12.043,2.51
				c-0.055,0-0.104,0.001-0.146,0.005c-0.043,0.003-0.084,0.005-0.123,0.009v0.851h0.211c0.279,0,0.479-0.033,0.6-0.1
				s0.183-0.18,0.183-0.34c0-0.154-0.063-0.263-0.185-0.328C12.461,2.542,12.28,2.51,12.043,2.51z"/>
			<path fill="#5D4037" d="M15.63,5.145c-0.536,0-0.946-0.142-1.228-0.426c-0.28-0.284-0.421-0.687-0.421-1.209
				c0-0.259,0.044-0.491,0.128-0.694c0.087-0.204,0.204-0.376,0.354-0.516c0.15-0.14,0.328-0.247,0.533-0.319
				c0.207-0.072,0.432-0.108,0.672-0.108c0.14,0,0.267,0.01,0.381,0.029c0.114,0.02,0.216,0.042,0.301,0.068
				c0.086,0.025,0.158,0.052,0.214,0.079c0.058,0.027,0.099,0.048,0.125,0.063l-0.215,0.571c-0.103-0.051-0.22-0.095-0.355-0.131
				s-0.288-0.055-0.459-0.055c-0.114,0-0.226,0.019-0.335,0.055c-0.111,0.036-0.208,0.094-0.293,0.174
				c-0.083,0.08-0.15,0.184-0.202,0.31c-0.05,0.126-0.075,0.281-0.075,0.461c0,0.145,0.017,0.28,0.051,0.406
				c0.032,0.125,0.087,0.233,0.161,0.324c0.073,0.09,0.172,0.162,0.292,0.215c0.121,0.053,0.269,0.079,0.439,0.079
				c0.107,0,0.203-0.006,0.291-0.019c0.085-0.011,0.161-0.026,0.227-0.042c0.068-0.017,0.126-0.036,0.178-0.057
				c0.051-0.021,0.096-0.041,0.137-0.059l0.205,0.565c-0.104,0.061-0.251,0.115-0.442,0.163C16.102,5.12,15.882,5.145,15.63,5.145z"
				/>
		</g>
	</g>
</g>
</svg>
