<?xml version="1.0" encoding="utf-8"?>
<!-- Generator: Adobe Illustrator 16.0.0, SVG Export Plug-In . SVG Version: 6.00 Build 0)  -->
<!DOCTYPE svg PUBLIC "-//W3C//DTD SVG 1.1//EN" "http://www.w3.org/Graphics/SVG/1.1/DTD/svg11.dtd">
<svg version="1.1" id="图层_1" xmlns="http://www.w3.org/2000/svg" xmlns:xlink="http://www.w3.org/1999/xlink" x="0px" y="0px"
	 width="24px" height="24px" viewBox="0 0 24 24" enable-background="new 0 0 24 24" xml:space="preserve">
<polygon fill="#01579B" points="3.634,23 3.634,1 20.366,1 20.366,16.807 14.111,23 "/>
<g>
	<g>
		<g>
			<g>
				
					<linearGradient id="SVGID_1_" gradientUnits="userSpaceOnUse" x1="95.1992" y1="-581.3003" x2="95.1992" y2="-560.3008" gradientTransform="matrix(1 0 0 -1 -83.2002 -558.8008)">
					<stop  offset="0" style="stop-color:#2196F3"/>
					<stop  offset="0.5828" style="stop-color:#3DBAE8"/>
					<stop  offset="1" style="stop-color:#4DD0E1"/>
				</linearGradient>
				<polygon fill="url(#SVGID_1_)" points="4.132,22.5 4.132,1.5 19.865,1.5 19.865,16.594 13.96,22.5 				"/>
			</g>
			<polygon fill="#01579B" fill-opacity="0.39" points="19.865,16.594 19.865,16.34 13.636,16.34 13.636,22.5 13.96,22.5 			"/>
			<path fill="#FFFFFF" fill-opacity="0.3922" d="M13.951,16.594l5.916,0.008L13.96,22.5L13.951,16.594z"/>
		</g>
		<g>
			<circle opacity="0.8" fill="#FFFFFF" enable-background="new    " cx="14.791" cy="9.944" r="1.112"/>
			<path opacity="0.8" fill="#FFFFFF" enable-background="new    " d="M6.531,7.625V14.8h10.938V7.625H6.531z M16.681,8.413v5.6l0,0
				l-2.538-1.802l-1.813,1.11l-2.326-2.808l-2.687,3.5v-5.6H16.681z"/>
		</g>
	</g>
	<g>
		<rect x="4.129" y="1.5" opacity="0.8" fill="#FFFFFF" enable-background="new    " width="15.742" height="4.025"/>
		<g enable-background="new    ">
			<path fill="#0288D1" d="M8.102,5.099c-0.181,0-0.36-0.006-0.54-0.017c-0.181-0.01-0.366-0.034-0.561-0.074V1.966
				c0.153-0.026,0.32-0.048,0.501-0.062c0.18-0.014,0.35-0.019,0.504-0.019c0.211,0,0.403,0.014,0.58,0.042
				c0.176,0.029,0.328,0.078,0.455,0.146c0.126,0.071,0.226,0.161,0.297,0.275C9.41,2.462,9.445,2.602,9.445,2.768
				c0,0.25-0.127,0.448-0.381,0.593c0.209,0.075,0.353,0.178,0.429,0.308c0.075,0.13,0.114,0.276,0.114,0.439
				c0,0.329-0.126,0.577-0.379,0.742C8.977,5.017,8.601,5.099,8.102,5.099z M7.726,3.151h0.362c0.229,0,0.393-0.027,0.491-0.082
				c0.099-0.057,0.147-0.146,0.147-0.271c0-0.126-0.052-0.216-0.153-0.267c-0.101-0.051-0.25-0.077-0.448-0.077
				c-0.063,0-0.131,0.001-0.204,0.001C7.848,2.46,7.783,2.462,7.726,2.468V3.151z M7.726,3.69v0.812
				c0.054,0.005,0.112,0.009,0.177,0.012c0.063,0.004,0.133,0.004,0.209,0.004c0.223,0,0.402-0.03,0.539-0.09
				c0.137-0.061,0.205-0.172,0.205-0.334c0-0.145-0.058-0.249-0.173-0.312C8.569,3.723,8.405,3.69,8.192,3.69H7.726z"/>
			<path fill="#0288D1" d="M11.079,1.921c0.058,0.1,0.125,0.223,0.198,0.369c0.075,0.146,0.153,0.305,0.234,0.476
				c0.082,0.169,0.162,0.344,0.242,0.522c0.079,0.178,0.154,0.345,0.224,0.503c0.07-0.159,0.146-0.326,0.225-0.503
				c0.08-0.178,0.16-0.353,0.242-0.522c0.08-0.171,0.158-0.33,0.233-0.476c0.076-0.146,0.142-0.269,0.199-0.369h0.675
				c0.033,0.208,0.063,0.442,0.091,0.7c0.027,0.257,0.049,0.526,0.071,0.805c0.019,0.279,0.038,0.559,0.057,0.839
				c0.017,0.28,0.033,0.546,0.044,0.792H13.09c-0.008-0.304-0.021-0.636-0.035-0.996c-0.017-0.358-0.041-0.722-0.074-1.085
				c-0.058,0.126-0.12,0.267-0.191,0.421c-0.068,0.153-0.139,0.307-0.207,0.461S12.446,4.161,12.384,4.3
				c-0.064,0.14-0.117,0.26-0.163,0.36h-0.52c-0.045-0.1-0.098-0.22-0.162-0.36c-0.063-0.139-0.13-0.287-0.198-0.441
				s-0.139-0.308-0.208-0.461c-0.069-0.154-0.134-0.295-0.191-0.421C10.91,3.34,10.887,3.704,10.87,4.062
				c-0.017,0.36-0.028,0.692-0.038,0.996h-0.725c0.014-0.246,0.028-0.512,0.045-0.792c0.018-0.28,0.037-0.561,0.058-0.839
				s0.045-0.548,0.072-0.805c0.026-0.258,0.057-0.492,0.088-0.7H11.079z"/>
			<path fill="#0288D1" d="M15.469,1.886c0.492,0,0.87,0.082,1.135,0.246c0.263,0.164,0.394,0.435,0.394,0.808
				c0,0.377-0.131,0.649-0.398,0.816c-0.269,0.168-0.648,0.251-1.144,0.251H15.22v1.05h-0.74V1.966
				c0.161-0.03,0.33-0.051,0.514-0.063C15.174,1.891,15.332,1.886,15.469,1.886z M15.516,2.487c-0.052,0-0.106,0.001-0.159,0.005
				c-0.052,0.002-0.098,0.005-0.137,0.008v0.905h0.235c0.257,0,0.451-0.033,0.58-0.1c0.131-0.067,0.196-0.19,0.196-0.371
				c0-0.087-0.016-0.16-0.052-0.217c-0.032-0.058-0.079-0.104-0.142-0.138c-0.061-0.036-0.137-0.059-0.228-0.072
				C15.724,2.494,15.625,2.487,15.516,2.487z"/>
		</g>
	</g>
</g>
</svg>
