<?xml version="1.0" encoding="utf-8"?>
<!-- Generator: Adobe Illustrator 16.0.0, SVG Export Plug-In . SVG Version: 6.00 Build 0)  -->
<!DOCTYPE svg PUBLIC "-//W3C//DTD SVG 1.1//EN" "http://www.w3.org/Graphics/SVG/1.1/DTD/svg11.dtd">
<svg version="1.1" id="图层_1" xmlns="http://www.w3.org/2000/svg" xmlns:xlink="http://www.w3.org/1999/xlink" x="0px" y="0px"
	 width="24px" height="24px" viewBox="0 0 24 24" enable-background="new 0 0 24 24" xml:space="preserve">
<polygon fill="#455A64" points="3.634,23 3.634,1 20.366,1 20.366,16.806 14.112,23 "/>
<g>
	<g>
		<g>
			
				<linearGradient id="SVGID_1_" gradientUnits="userSpaceOnUse" x1="53.6006" y1="420.3994" x2="53.6006" y2="441.4004" gradientTransform="matrix(1 0 0 1 -41.6001 -418.9004)">
				<stop  offset="0" style="stop-color:#90A4AE"/>
				<stop  offset="0.1378" style="stop-color:#849AA5"/>
				<stop  offset="0.4226" style="stop-color:#708A97"/>
				<stop  offset="0.7096" style="stop-color:#64808E"/>
				<stop  offset="1" style="stop-color:#607D8B"/>
			</linearGradient>
			<polygon fill="url(#SVGID_1_)" points="4.133,22.5 4.133,1.5 19.867,1.5 19.867,16.594 13.961,22.5 			"/>
		</g>
		<polygon fill="#455A64" fill-opacity="0.39" points="19.867,16.594 19.867,16.34 13.637,16.34 13.637,22.5 13.961,22.5 		"/>
		<path fill="#FFFFFF" fill-opacity="0.39" d="M13.951,16.594l5.916,0.008L13.961,22.5L13.951,16.594z"/>
	</g>
	<g opacity="0.8">
		<g>
			<polygon fill="#FFFFFF" points="10.145,11.15 7.782,9.586 9.899,8.945 			"/>
		</g>
		<polygon fill="#FFFFFF" points="11.799,13.725 12.735,13.725 12.735,12.937 11.807,12.937 11.335,13.33 		"/>
		<g>
			<polygon fill="#FFFFFF" points="13.251,10.206 15.588,8.588 15.387,10.793 			"/>
			<g>
				<polygon fill="#FFFFFF" points="15.438,10.198 14.905,9.419 14.249,9.874 14.766,10.617 15.387,10.793 				"/>
				<polygon fill="#FFFFFF" points="17.25,12.823 15.641,10.494 15.588,11.09 14.967,10.914 16.357,12.937 12.972,12.937 
					12.962,13.725 16.638,13.725 16.638,13.725 16.638,13.725 				"/>
			</g>
			<g>
				<polygon fill="#FFFFFF" points="9.297,9.131 8.771,9.883 9.437,10.32 9.97,9.559 9.899,8.945 				"/>
				<polygon fill="#FFFFFF" points="12.612,6.102 11.379,6.102 9.506,8.824 10.101,8.648 10.172,9.262 12,6.61 14.118,9.682 
					14.774,9.235 				"/>
				<polygon fill="#FFFFFF" points="7.643,12.937 9.305,10.513 8.641,10.075 6.75,12.823 6.75,12.823 6.75,12.823 7.17,13.426 
					7.37,13.725 11.44,13.725 10.976,13.33 11.44,12.937 				"/>
			</g>
		</g>
		<g>
			<polygon fill="#FFFFFF" points="13.032,11.912 13.032,14.748 11.335,13.33 			"/>
		</g>
		<polygon fill="#FFFFFF" points="8.641,10.075 8.999,9.559 9.856,9.751 9.243,10.608 		"/>
		<polygon fill="#FFFFFF" points="13.794,9.218 14.345,10.014 15.019,9.576 14.46,8.78 		"/>
		<rect x="12.524" y="12.937" fill="#FFFFFF" width="0.579" height="0.788"/>
	</g>
</g>
</svg>
