<?xml version="1.0" encoding="utf-8"?>
<!-- Generator: Adobe Illustrator 21.0.0, SVG Export Plug-In . SVG Version: 6.00 Build 0)  -->
<svg version="1.1" id="图层_1" xmlns="http://www.w3.org/2000/svg" xmlns:xlink="http://www.w3.org/1999/xlink" x="0px" y="0px"
	 viewBox="0 0 24 24" style="enable-background:new 0 0 24 24;" xml:space="preserve">
<style type="text/css">
	.st0{fill:#455A64;}
	.st1{fill:url(#SVGID_1_);}
	.st2{fill:#455A64;fill-opacity:0.39;}
	.st3{fill:#FFFFFF;fill-opacity:0.39;}
	.st4{opacity:0.8;}
	.st5{fill:#FFFFFF;}
	.st6{fill:#CFD8DC;}
</style>
<title>application-x-mono-develop</title>
<path class="st0" d="M20,2v14l-6,6H4V2H20 M21,1H3v22h11l7-7V1z"/>
<linearGradient id="SVGID_1_" gradientUnits="userSpaceOnUse" x1="12" y1="1534" x2="12" y2="1554" gradientTransform="matrix(1 0 0 1 0 -1532)">
	<stop  offset="0" style="stop-color:#90A4AE"/>
	<stop  offset="0.14" style="stop-color:#849AA5"/>
	<stop  offset="0.42" style="stop-color:#708A97"/>
	<stop  offset="0.71" style="stop-color:#64808E"/>
	<stop  offset="1" style="stop-color:#607D8B"/>
</linearGradient>
<polygon class="st1" points="4,22 4,2 20,2 20,16 14,22 "/>
<polygon class="st2" points="20,16 20,15 13,15 13,22 14,22 "/>
<path class="st3" d="M14,16h6l-6,6V16z"/>
<g class="st4">
	<path class="st5" d="M9.7,5C7.6,5.1,6,6.9,6,9c0.1,1.8,0.6,3.5,1.4,5l1.8-0.7c-0.4-0.8-0.9-1.6-1.1-2c-0.5-0.8-0.7-1.7-0.7-2.6
		c0-0.7,0.3-1.4,0.8-1.8c0.6-0.5,1.3-0.8,2.1-0.6c0.9,0.1,1.8,0.6,2.2,1.5c0.2,0,0.4,0,0.6,0c0.2,0,0.3,0,0.5,0
		C12.9,6.1,11.4,5,9.7,5z M10.5,7.3C9.6,7.1,8.8,7.7,8.7,8.6c0,0.1,0,0.1,0,0.2c0,1,0.6,1.9,1.5,2.3c0-0.3,0-0.6,0-0.9
		C9.7,9.9,9.4,9.4,9.4,8.9C9.3,8.2,10,7.5,11,7.9c0.2,0.1,0.2-0.2,0-0.4C10.9,7.4,10.7,7.3,10.5,7.3L10.5,7.3z M13.1,8.1h-0.4
		c0,0.1,0,0.2,0.1,0.3H13c0.2,0,0.4,0,0.6,0.1c0-0.1,0-0.2,0-0.4C13.4,8.2,13.3,8.1,13.1,8.1L13.1,8.1z M12.7,9
		c-0.1,0.6-0.6,1.1-1.2,1.3c0,0.1,0,0.2,0,0.3c0,0.2,0.1,0.4,0.1,0.5c1-0.1,1.9-1,2-2C13.4,9,13.2,8.9,13,8.9L12.7,9z M10.6,10.3
		c0,0.2,0,0.4,0,0.7v0.1c0.1,0,0.2,0,0.3,0h0.2C11,10.9,11,10.7,11,10.5c0-0.1,0-0.2,0-0.2H10.6z"/>
	<path class="st6" d="M16.6,5c0.9,1.5,1.3,3.2,1.4,5c0,2.1-1.6,3.9-3.7,4c-2,0-3.8-1.7-3.9-3.1s0.4-3.1,2.7-3.1
		c1.3,0,2.3,1.1,2.3,2.4c0,1.5-1.9,1.7-2.4,1.3c-0.2-0.1-0.2-0.4,0-0.4c1,0.3,1.7-0.3,1.6-1c0-0.8-0.7-1.5-1.5-1.5H13
		c-0.9,0-1.7,0.7-1.8,1.6c0,0.1,0,0.1,0,0.2c0.2,1.2,1.2,2.2,2.4,2.3c0.8,0.1,1.5-0.1,2.1-0.6c0.5-0.5,0.8-1.1,0.9-1.9
		c0-0.9-0.2-1.8-0.7-2.5c-0.2-0.4-0.7-1.2-1.1-2L16.6,5"/>
</g>
</svg>
