<?xml version="1.0" encoding="utf-8"?>
<!-- Generator: Adobe Illustrator 16.0.0, SVG Export Plug-In . SVG Version: 6.00 Build 0)  -->
<!DOCTYPE svg PUBLIC "-//W3C//DTD SVG 1.1//EN" "http://www.w3.org/Graphics/SVG/1.1/DTD/svg11.dtd">
<svg version="1.1" id="图层_1" xmlns="http://www.w3.org/2000/svg" xmlns:xlink="http://www.w3.org/1999/xlink" x="0px" y="0px"
	 width="24px" height="24px" viewBox="0 0 24 24" enable-background="new 0 0 24 24" xml:space="preserve">
<polygon fill="#01579B" points="3.634,23 3.634,1 20.366,1 20.366,16.807 14.111,23 "/>
<g>
	<g>
		<g>
			<g>
				
					<linearGradient id="SVGID_1_" gradientUnits="userSpaceOnUse" x1="95.1992" y1="-581.3003" x2="95.1992" y2="-560.3008" gradientTransform="matrix(1 0 0 -1 -83.2002 -558.8008)">
					<stop  offset="0" style="stop-color:#2196F3"/>
					<stop  offset="0.5828" style="stop-color:#3DBAE8"/>
					<stop  offset="1" style="stop-color:#4DD0E1"/>
				</linearGradient>
				<polygon fill="url(#SVGID_1_)" points="4.132,22.5 4.132,1.5 19.865,1.5 19.865,16.594 13.96,22.5 				"/>
			</g>
			<polygon fill="#01579B" fill-opacity="0.39" points="19.865,16.594 19.865,16.34 13.636,16.34 13.636,22.5 13.96,22.5 			"/>
			<path fill="#FFFFFF" fill-opacity="0.3922" d="M13.951,16.594l5.916,0.008L13.96,22.5L13.951,16.594z"/>
		</g>
		<g>
			<circle opacity="0.8" fill="#FFFFFF" enable-background="new    " cx="14.79" cy="9.944" r="1.112"/>
			<path opacity="0.8" fill="#FFFFFF" enable-background="new    " d="M6.531,7.625V14.8h10.938V7.625H6.531z M16.68,8.413v5.6l0,0
				l-2.537-1.802l-1.813,1.11l-2.326-2.808l-2.687,3.5v-5.6H16.68z"/>
		</g>
	</g>
	<g>
		<rect x="4.129" y="1.5" opacity="0.8" fill="#FFFFFF" enable-background="new    " width="15.742" height="4.025"/>
		<g enable-background="new    ">
			<path fill="#0288D1" d="M9.903,1.921v0.603H8.907v2.535H8.164V2.523H7.168V1.921H9.903z"/>
			<path fill="#0288D1" d="M10.38,1.921h0.743v3.137H10.38V1.921z"/>
			<path fill="#0288D1" d="M11.886,5.058V1.921h2.211v0.594h-1.468v0.656h1.306v0.592h-1.306v1.295H11.886z"/>
			<path fill="#0288D1" d="M14.621,5.058V1.921h2.209v0.594h-1.466v0.656h1.305v0.592h-1.305v1.295H14.621z"/>
		</g>
	</g>
</g>
</svg>
