<?xml version="1.0" encoding="utf-8"?>
<!-- Generator: Adobe Illustrator 16.0.0, SVG Export Plug-In . SVG Version: 6.00 Build 0)  -->
<!DOCTYPE svg PUBLIC "-//W3C//DTD SVG 1.1//EN" "http://www.w3.org/Graphics/SVG/1.1/DTD/svg11.dtd">
<svg version="1.1" id="图层_1" xmlns="http://www.w3.org/2000/svg" xmlns:xlink="http://www.w3.org/1999/xlink" x="0px" y="0px"
	 width="24px" height="24px" viewBox="0 0 24 24" enable-background="new 0 0 24 24" xml:space="preserve">
<polygon fill="#1B5E20" points="3.634,23 3.634,1 20.366,1 20.366,16.807 14.111,23 "/>
<g>
	<g>
		<g>
			<g>
				<g>
					
						<linearGradient id="SVGID_1_" gradientUnits="userSpaceOnUse" x1="95.1992" y1="-581.3003" x2="95.1992" y2="-560.3008" gradientTransform="matrix(1 0 0 -1 -83.2002 -558.8008)">
						<stop  offset="0" style="stop-color:#388E3C"/>
						<stop  offset="0.0757" style="stop-color:#43953E"/>
						<stop  offset="0.3246" style="stop-color:#62A943"/>
						<stop  offset="0.5665" style="stop-color:#79B747"/>
						<stop  offset="0.796" style="stop-color:#86C049"/>
						<stop  offset="1" style="stop-color:#8BC34A"/>
					</linearGradient>
					<polygon fill="url(#SVGID_1_)" points="4.132,22.5 4.132,1.5 19.865,1.5 19.865,16.594 13.959,22.5 					"/>
				</g>
				<polygon fill="#1B5E20" fill-opacity="0.39" points="19.865,16.594 19.865,16.34 13.636,16.34 13.636,22.5 13.959,22.5 				"/>
				<path fill="#FFFFFF" fill-opacity="0.3922" d="M13.951,16.594l5.916,0.008L13.959,22.5L13.951,16.594z"/>
			</g>
			<path opacity="0.8" fill="#FFFFFF" enable-background="new    " d="M12.389,6.138V6.12H11.61v0.018H6.592v9.782h10.814V6.138
				H12.389z M7.37,9.042h2.415v1.563H7.37V9.042z M7.37,11.383h2.415v1.562H7.37V11.383z M10.588,11.383h6.04v1.562h-6.04V11.383z
				 M10.588,10.605V9.042h6.04v1.563H10.588z M16.628,6.923v1.343h-6.04V6.923H16.628z M9.785,6.923v1.343H7.37V6.923H9.785z
				 M7.37,13.73h2.415v1.404H7.37V13.73z M10.588,15.135V13.73h6.04v1.404H10.588z"/>
		</g>
	</g>
	<g>
		<g>
			<rect x="4.129" y="1.5" opacity="0.8" fill="#FFFFFF" enable-background="new    " width="15.742" height="4.025"/>
		</g>
		<g enable-background="new    ">
			<path fill="#38883B" d="M10.478,3.487c0,0.269-0.042,0.505-0.127,0.709c-0.083,0.204-0.199,0.375-0.345,0.511
				S9.687,4.948,9.484,5.017C9.281,5.087,9.065,5.122,8.833,5.122c-0.226,0-0.438-0.034-0.639-0.105
				C7.995,4.948,7.82,4.844,7.671,4.708C7.522,4.571,7.404,4.4,7.318,4.196c-0.086-0.204-0.129-0.44-0.129-0.709
				s0.046-0.504,0.135-0.708c0.089-0.204,0.207-0.375,0.359-0.514c0.15-0.139,0.325-0.243,0.523-0.312
				c0.198-0.07,0.407-0.104,0.626-0.104c0.226,0,0.439,0.035,0.639,0.104c0.201,0.069,0.375,0.173,0.525,0.312
				c0.148,0.139,0.267,0.31,0.353,0.514C10.435,2.983,10.478,3.219,10.478,3.487z M7.957,3.487c0,0.154,0.021,0.293,0.06,0.416
				c0.04,0.125,0.096,0.23,0.171,0.319c0.075,0.09,0.166,0.158,0.273,0.206c0.108,0.049,0.232,0.074,0.372,0.074
				c0.137,0,0.26-0.025,0.369-0.074c0.111-0.048,0.202-0.116,0.277-0.206C9.554,4.134,9.611,4.028,9.65,3.903
				C9.69,3.78,9.711,3.641,9.711,3.487S9.69,3.194,9.65,3.069C9.611,2.944,9.554,2.836,9.479,2.748
				C9.404,2.659,9.313,2.59,9.202,2.541C9.093,2.493,8.97,2.469,8.833,2.469c-0.14,0-0.264,0.025-0.372,0.075
				c-0.107,0.05-0.198,0.119-0.273,0.208c-0.075,0.09-0.131,0.196-0.171,0.321C7.978,3.199,7.957,3.337,7.957,3.487z"/>
			<path fill="#38883B" d="M13.989,3.487c0,0.272-0.046,0.508-0.134,0.711c-0.09,0.203-0.216,0.37-0.38,0.502
				C13.314,4.833,13.114,4.933,12.88,5c-0.236,0.065-0.5,0.099-0.793,0.099c-0.133,0-0.288-0.006-0.466-0.017
				c-0.178-0.01-0.353-0.031-0.523-0.065V1.962c0.171-0.03,0.35-0.05,0.535-0.062c0.187-0.01,0.345-0.016,0.479-0.016
				c0.283,0,0.539,0.03,0.771,0.091c0.23,0.061,0.427,0.155,0.594,0.285c0.164,0.13,0.29,0.296,0.38,0.498
				C13.943,2.961,13.989,3.204,13.989,3.487z M11.84,4.483c0.035,0.002,0.075,0.005,0.121,0.007
				c0.047,0.001,0.102,0.001,0.164,0.001c0.372,0,0.647-0.087,0.828-0.266c0.178-0.179,0.269-0.425,0.269-0.738
				c0-0.329-0.085-0.578-0.258-0.747c-0.172-0.169-0.442-0.253-0.813-0.253c-0.051,0-0.104,0-0.157,0.002
				c-0.055,0.002-0.105,0.005-0.153,0.012V4.483z"/>
			<path fill="#38883B" d="M15.51,4.519c0.104,0,0.191-0.008,0.26-0.024s0.123-0.038,0.164-0.068
				c0.041-0.027,0.068-0.062,0.085-0.101c0.017-0.039,0.024-0.083,0.024-0.131c0-0.103-0.052-0.188-0.153-0.256
				c-0.101-0.067-0.276-0.141-0.524-0.219c-0.107-0.036-0.217-0.078-0.323-0.125c-0.109-0.046-0.205-0.106-0.29-0.176
				c-0.087-0.071-0.155-0.157-0.21-0.258S14.46,2.935,14.46,2.791c0-0.145,0.03-0.275,0.087-0.392
				c0.058-0.116,0.137-0.215,0.241-0.297c0.106-0.081,0.232-0.144,0.383-0.188c0.147-0.043,0.317-0.065,0.506-0.065
				c0.222,0,0.413,0.022,0.574,0.068c0.164,0.045,0.295,0.095,0.401,0.149l-0.216,0.557c-0.09-0.046-0.194-0.085-0.306-0.12
				c-0.112-0.035-0.249-0.052-0.408-0.052c-0.178,0-0.306,0.023-0.383,0.071c-0.079,0.046-0.117,0.118-0.117,0.214
				c0,0.058,0.014,0.106,0.044,0.145c0.027,0.039,0.068,0.075,0.12,0.106s0.112,0.061,0.181,0.085
				c0.068,0.026,0.145,0.053,0.227,0.08c0.173,0.061,0.32,0.12,0.448,0.179c0.126,0.059,0.232,0.127,0.317,0.206
				s0.147,0.171,0.188,0.276c0.041,0.106,0.061,0.233,0.061,0.385c0,0.293-0.106,0.52-0.322,0.682
				c-0.217,0.161-0.542,0.242-0.977,0.242c-0.147,0-0.279-0.009-0.396-0.026s-0.222-0.036-0.312-0.06
				c-0.091-0.025-0.17-0.049-0.235-0.077c-0.063-0.027-0.117-0.053-0.164-0.077l0.211-0.562c0.098,0.051,0.219,0.097,0.363,0.138
				S15.299,4.519,15.51,4.519z"/>
		</g>
	</g>
</g>
</svg>
