<?xml version="1.0" encoding="utf-8"?>
<!-- Generator: Adobe Illustrator 21.0.0, SVG Export Plug-In . SVG Version: 6.00 Build 0)  -->
<svg version="1.1" id="图层_1" xmlns="http://www.w3.org/2000/svg" xmlns:xlink="http://www.w3.org/1999/xlink" x="0px" y="0px"
	 viewBox="0 0 24 24" style="enable-background:new 0 0 24 24;" xml:space="preserve">
<style type="text/css">
	.st0{fill:#5F7B89;}
	.st1{fill:url(#SVGID_1_);}
	.st2{fill:#455963;fill-opacity:0.7;}
	.st3{fill:#8DA1AC;}
	.st4{fill:#607D8B;}
</style>
<title>application-script-blank</title>
<path class="st0" d="M20,2v14l-6,6H4V2H20 M21,1H3v22h11l7-7V1z"/>
<linearGradient id="SVGID_1_" gradientUnits="userSpaceOnUse" x1="12" y1="-718" x2="12" y2="-738" gradientTransform="matrix(1 0 0 -1 0 -716)">
	<stop  offset="0" style="stop-color:#F6F5F5"/>
	<stop  offset="0.34" style="stop-color:#F1F2F3"/>
	<stop  offset="0.64" style="stop-color:#E7EAEB"/>
	<stop  offset="0.93" style="stop-color:#D5DBDF"/>
	<stop  offset="1" style="stop-color:#CFD7DB"/>
</linearGradient>
<polygon class="st1" points="4,22 4,2 20,2 20,16 14,22 "/>
<polygon class="st2" points="20,16 20,15 13,15 13,22 14,22 "/>
<path class="st3" d="M14,16h6l-6,6V16z"/>
<g>
	<path class="st4" d="M7,9.2c0.1,0,0.3,0,0.4-0.1C7.5,9,7.6,9,7.7,8.9s0.1-0.2,0.2-0.3C8,8.5,8,8.4,8,8.3V6.6c0-0.2,0-0.5,0.1-0.7
		s0.2-0.4,0.3-0.5C8.6,5.3,8.8,5.2,9,5.1C9.3,5,9.7,5,10,5l0,0v0.7c-0.3,0-0.6,0-0.9,0.2C8.9,6.1,8.8,6.3,8.9,6.6V8
		c0,0.3,0,0.7-0.2,1C8.6,9.2,8.4,9.4,8.2,9.5C8.4,9.6,8.6,9.8,8.7,10c0.1,0.3,0.2,0.6,0.2,0.9v1.4c0,0.3,0.1,0.5,0.3,0.7
		c0.3,0.1,0.6,0.2,0.9,0.2V14l0,0c-0.3,0-0.7,0-1-0.1c-0.2-0.1-0.4-0.2-0.6-0.3c-0.2-0.1-0.3-0.3-0.3-0.5C8,12.9,7.9,12.6,8,12.4
		v-1.7c0-0.1,0-0.2-0.1-0.3c0-0.1-0.1-0.2-0.2-0.3C7.6,10,7.5,10,7.4,9.9C7.3,9.9,7.1,9.8,7,9.8V9.2z"/>
	<path class="st4" d="M17,9.8c-0.1,0-0.3,0-0.4,0.1c-0.1,0-0.2,0.1-0.3,0.2c-0.1,0.1-0.1,0.2-0.2,0.3c0,0.1-0.1,0.2-0.1,0.3v1.7
		c0,0.2,0,0.5-0.1,0.7s-0.2,0.4-0.3,0.5c-0.2,0.2-0.4,0.3-0.6,0.3C14.7,14,14.3,14,14,14l0,0v-0.7c0.3,0,0.6,0,0.9-0.2
		c0.2-0.2,0.3-0.5,0.3-0.7V11c0-0.3,0-0.7,0.2-1c0.1-0.2,0.3-0.4,0.5-0.5c-0.2-0.1-0.4-0.3-0.5-0.5c-0.1-0.3-0.2-0.7-0.2-1V6.6
		c0-0.3-0.1-0.5-0.3-0.7c-0.3-0.1-0.6-0.2-0.9-0.2V5l0,0c0.3,0,0.7,0,1,0.1c0.2,0.1,0.4,0.2,0.6,0.3c0.2,0.1,0.3,0.3,0.3,0.5
		C16,6.1,16,6.4,16,6.6v1.7c0,0.1,0,0.2,0.1,0.3c0,0.1,0.1,0.2,0.2,0.3C16.4,9,16.5,9,16.6,9.1s0.3,0.1,0.4,0.1V9.8z"/>
</g>
</svg>
