<?xml version="1.0" encoding="utf-8"?>
<!-- Generator: Adobe Illustrator 16.0.0, SVG Export Plug-In . SVG Version: 6.00 Build 0)  -->
<!DOCTYPE svg PUBLIC "-//W3C//DTD SVG 1.1//EN" "http://www.w3.org/Graphics/SVG/1.1/DTD/svg11.dtd">
<svg version="1.1" id="图层_1" xmlns="http://www.w3.org/2000/svg" xmlns:xlink="http://www.w3.org/1999/xlink" x="0px" y="0px"
	 width="24px" height="24px" viewBox="0 0 24 24" enable-background="new 0 0 24 24" xml:space="preserve">
<polygon fill="#3E2723" points="3.634,23 3.634,1 20.366,1 20.366,16.807 14.111,23 "/>
<g>
	<g>
		
			<linearGradient id="SVGID_1_" gradientUnits="userSpaceOnUse" x1="53.5996" y1="-141.4004" x2="53.5996" y2="-162.4009" gradientTransform="matrix(1 0 0 -1 -41.6001 -139.9004)">
			<stop  offset="0" style="stop-color:#785548"/>
			<stop  offset="1" style="stop-color:#9F9E9F"/>
		</linearGradient>
		<polygon fill="url(#SVGID_1_)" points="4.133,22.5 4.133,1.5 19.867,1.5 19.867,16.586 14.019,22.5 		"/>
		<polygon fill="#795548" fill-opacity="0.7" points="19.867,16.594 19.867,16.34 13.638,16.34 13.638,22.5 13.961,22.5 		"/>
		<path opacity="0.39" fill="#FFFFFF" enable-background="new    " d="M13.952,16.594l5.915,0.008L13.961,22.5L13.952,16.594z"/>
	</g>
	<path fill="#FFFFFF" d="M9.755,5.548H9.223v6.819H8.819V5.548H8.291v6.819H7.889V5.548h-0.53v6.819H6.955V5.548h-0.53v6.819H6.286
		v2.889h3.65v-2.889H9.755V5.548z M9.405,14.417h-2.59v-1.675h2.59V14.417z"/>
	<g>
		<rect x="4.13" y="1.5" opacity="0.8" fill="#FFFFFF" enable-background="new    " width="15.74" height="4.025"/>
		<g enable-background="new    ">
			<path fill="#5D4037" d="M9.558,2.433c-0.102,0.1-0.224,0.229-0.362,0.388C9.056,2.979,8.91,3.151,8.762,3.339
				c-0.149,0.187-0.297,0.38-0.443,0.579c-0.146,0.2-0.277,0.39-0.391,0.571H9.61v0.593H7.013V4.66
				C7.102,4.506,7.211,4.335,7.34,4.147c0.128-0.189,0.263-0.379,0.401-0.571C7.883,3.385,8.024,3.199,8.168,3.02
				c0.146-0.18,0.279-0.34,0.403-0.482H7.09V1.944h2.468V2.433z"/>
			<path fill="#5D4037" d="M13.221,3.51c0,0.269-0.041,0.505-0.125,0.709c-0.085,0.204-0.2,0.374-0.345,0.511
				c-0.147,0.138-0.32,0.241-0.522,0.31s-0.418,0.104-0.65,0.104c-0.226,0-0.438-0.035-0.639-0.104s-0.375-0.172-0.523-0.31
				c-0.15-0.137-0.269-0.308-0.353-0.511c-0.087-0.204-0.13-0.44-0.13-0.709c0-0.269,0.045-0.504,0.135-0.708
				c0.088-0.204,0.208-0.375,0.358-0.514c0.151-0.139,0.325-0.243,0.525-0.312c0.198-0.07,0.407-0.104,0.626-0.104
				c0.226,0,0.438,0.035,0.639,0.104c0.2,0.069,0.374,0.173,0.523,0.312c0.15,0.14,0.268,0.311,0.353,0.514
				C13.179,3.006,13.221,3.242,13.221,3.51z M10.701,3.51c0,0.154,0.021,0.293,0.06,0.417c0.041,0.125,0.097,0.23,0.172,0.319
				c0.074,0.089,0.165,0.158,0.273,0.207c0.108,0.048,0.232,0.072,0.372,0.072c0.137,0,0.26-0.024,0.369-0.072
				c0.109-0.049,0.202-0.117,0.276-0.207c0.075-0.089,0.131-0.195,0.172-0.319c0.038-0.123,0.061-0.263,0.061-0.417
				s-0.022-0.293-0.061-0.418c-0.041-0.125-0.097-0.232-0.172-0.321c-0.074-0.089-0.167-0.158-0.276-0.207
				c-0.109-0.048-0.232-0.073-0.369-0.073c-0.14,0-0.264,0.025-0.372,0.075c-0.108,0.05-0.199,0.119-0.273,0.208
				c-0.075,0.089-0.131,0.196-0.172,0.321C10.722,3.222,10.701,3.36,10.701,3.51z"/>
			<path fill="#5D4037" d="M16.986,3.51c0,0.269-0.044,0.505-0.127,0.709c-0.084,0.204-0.2,0.374-0.346,0.511
				c-0.146,0.138-0.32,0.241-0.522,0.31c-0.201,0.069-0.419,0.104-0.649,0.104c-0.226,0-0.439-0.035-0.639-0.104
				s-0.375-0.172-0.525-0.31c-0.147-0.137-0.265-0.308-0.351-0.511c-0.087-0.204-0.13-0.44-0.13-0.709
				c0-0.269,0.046-0.504,0.134-0.708c0.09-0.204,0.209-0.375,0.36-0.514c0.15-0.139,0.326-0.243,0.524-0.312
				c0.198-0.07,0.405-0.104,0.626-0.104c0.226,0,0.438,0.035,0.639,0.104c0.199,0.069,0.374,0.173,0.524,0.312
				c0.147,0.14,0.266,0.311,0.353,0.514C16.942,3.006,16.986,3.242,16.986,3.51z M14.465,3.51c0,0.154,0.02,0.293,0.061,0.417
				c0.038,0.125,0.096,0.23,0.171,0.319c0.075,0.089,0.165,0.158,0.273,0.207c0.108,0.048,0.232,0.072,0.372,0.072
				c0.137,0,0.26-0.024,0.369-0.072c0.11-0.049,0.201-0.117,0.277-0.207c0.074-0.089,0.131-0.195,0.17-0.319
				c0.041-0.123,0.06-0.263,0.06-0.417s-0.019-0.293-0.06-0.418c-0.039-0.125-0.096-0.232-0.17-0.321
				c-0.076-0.089-0.167-0.158-0.277-0.207c-0.109-0.048-0.232-0.073-0.369-0.073c-0.14,0-0.264,0.025-0.372,0.075
				c-0.108,0.05-0.198,0.119-0.273,0.208c-0.075,0.089-0.133,0.196-0.171,0.321C14.484,3.222,14.465,3.36,14.465,3.51z"/>
		</g>
	</g>
</g>
</svg>
