<?xml version="1.0" encoding="utf-8"?>
<!-- Generator: Adobe Illustrator 21.0.0, SVG Export Plug-In . SVG Version: 6.00 Build 0)  -->
<svg version="1.1" id="图层_1" xmlns="http://www.w3.org/2000/svg" xmlns:xlink="http://www.w3.org/1999/xlink" x="0px" y="0px"
	 viewBox="0 0 24 24" style="enable-background:new 0 0 24 24;" xml:space="preserve">
<style type="text/css">
	.st0{fill:#EE6F0B;}
	.st1{fill:url(#SVGID_1_);}
	.st2{opacity:0.8;fill:#FFFFFF;enable-background:new    ;}
	.st3{fill:#EE6F0B;fill-opacity:0.39;}
	.st4{fill:#FFFFFF;fill-opacity:0.39;}
</style>
<title>application-certificate</title>
<path class="st0" d="M20,2v14l-6,6H4V2H20 M21,1H3v22h11l7-7V1z"/>
<linearGradient id="SVGID_1_" gradientUnits="userSpaceOnUse" x1="12" y1="1534" x2="12" y2="1554" gradientTransform="matrix(1 0 0 1 0 -1532)">
	<stop  offset="0" style="stop-color:#FFCD40"/>
	<stop  offset="0.22" style="stop-color:#FEC93D"/>
	<stop  offset="0.44" style="stop-color:#FDBC33"/>
	<stop  offset="0.67" style="stop-color:#FAA823"/>
	<stop  offset="0.9" style="stop-color:#F78B0C"/>
	<stop  offset="1" style="stop-color:#F57C00"/>
</linearGradient>
<polygon class="st1" points="4,22 4,2 20,2 20,16 14,22 "/>
<path class="st2" d="M12,4c-0.4,0-0.8,0.2-0.9,0.6c-0.3-0.2-0.7-0.3-1.1-0.1c-0.4,0.2-0.6,0.6-0.5,1c-0.5,0-1,0.4-1.1,0.9
	c0,0.3,0,0.5,0.2,0.7C8.1,7.4,7.8,7.9,8,8.5C8.1,8.7,8.3,8.9,8.6,9c-0.2,0.3-0.3,0.8-0.1,1.1c0.2,0.4,0.6,0.6,1,0.5
	c-0.1,0.4,0.1,0.8,0.5,1c0.2,0.1,0.3,0.1,0.5,0.1V16l1.5-1.5l1.5,1.5v-4.3c0.2,0,0.3,0,0.5-0.1c0.4-0.2,0.6-0.6,0.5-1
	c0.4,0.1,0.8-0.1,1-0.5c0.2-0.3,0.1-0.8-0.1-1.1C16,8.8,16.2,8.2,16,7.7c-0.1-0.2-0.3-0.4-0.5-0.5c0.3-0.4,0.3-1.1-0.2-1.4
	c-0.2-0.2-0.5-0.2-0.7-0.2c0.1-0.4-0.1-0.8-0.5-1c-0.3-0.2-0.8-0.2-1.1,0.1C12.8,4.2,12.4,4,12,4z M12,5.5c1.4,0,2.5,1.1,2.6,2.5
	s-1.1,2.5-2.5,2.6S9.5,9.5,9.5,8.1c0,0,0,0,0-0.1C9.5,6.6,10.6,5.5,12,5.5z M12,6.4c-0.9,0-1.6,0.7-1.6,1.6s0.7,1.6,1.6,1.6
	c0.9,0,1.6-0.7,1.6-1.6l0,0C13.6,7.1,12.9,6.4,12,6.4L12,6.4z"/>
<polygon class="st3" points="20,16 20,15 13,15 13,22 14,22 "/>
<path class="st4" d="M14,16h6l-6,6V16z"/>
</svg>
