<?xml version="1.0" encoding="utf-8"?>
<!-- Generator: Adobe Illustrator 16.0.0, SVG Export Plug-In . SVG Version: 6.00 Build 0)  -->
<!DOCTYPE svg PUBLIC "-//W3C//DTD SVG 1.1//EN" "http://www.w3.org/Graphics/SVG/1.1/DTD/svg11.dtd">
<svg version="1.1" id="图层_1" xmlns="http://www.w3.org/2000/svg" xmlns:xlink="http://www.w3.org/1999/xlink" x="0px" y="0px"
	 width="24px" height="24px" viewBox="0 0 24 24" enable-background="new 0 0 24 24" xml:space="preserve">
<polygon fill="#01579B" points="3.634,23 3.634,1 20.366,1 20.366,16.807 14.111,23 "/>
<g>
	<g>
		<g>
			<g>
				
					<linearGradient id="SVGID_1_" gradientUnits="userSpaceOnUse" x1="95.1992" y1="-581.3003" x2="95.1992" y2="-560.3008" gradientTransform="matrix(1 0 0 -1 -83.2002 -558.8008)">
					<stop  offset="0" style="stop-color:#2196F3"/>
					<stop  offset="0.5828" style="stop-color:#3DBAE8"/>
					<stop  offset="1" style="stop-color:#4DD0E1"/>
				</linearGradient>
				<polygon fill="url(#SVGID_1_)" points="4.132,22.5 4.132,1.5 19.865,1.5 19.865,16.594 13.96,22.5 				"/>
			</g>
			<polygon fill="#01579B" fill-opacity="0.39" points="19.865,16.594 19.865,16.34 13.636,16.34 13.636,22.5 13.96,22.5 			"/>
			<path fill="#FFFFFF" fill-opacity="0.3922" d="M13.951,16.594l5.916,0.008L13.96,22.5L13.951,16.594z"/>
		</g>
		<g>
			<circle opacity="0.8" fill="#FFFFFF" enable-background="new    " cx="14.791" cy="9.944" r="1.112"/>
			<path opacity="0.8" fill="#FFFFFF" enable-background="new    " d="M6.531,7.625V14.8h10.938V7.625H6.531z M16.681,8.413v5.6l0,0
				l-2.538-1.802l-1.813,1.11l-2.326-2.808l-2.687,3.5v-5.6H16.681z"/>
		</g>
	</g>
	<g>
		<rect x="4.129" y="1.5" opacity="0.8" fill="#FFFFFF" enable-background="new    " width="15.742" height="4.025"/>
		<g enable-background="new    ">
			<path fill="#0288D1" d="M9.851,4.003c0,0.154-0.018,0.299-0.055,0.435c-0.036,0.135-0.1,0.254-0.19,0.355
				c-0.09,0.101-0.213,0.182-0.366,0.239c-0.154,0.06-0.349,0.089-0.584,0.089c-0.216,0-0.401-0.026-0.558-0.075
				S7.813,4.94,7.712,4.873L7.96,4.325c0.091,0.052,0.189,0.097,0.295,0.137C8.36,4.5,8.474,4.519,8.598,4.519
				c0.181,0,0.311-0.041,0.392-0.125c0.079-0.085,0.119-0.227,0.119-0.427V1.921h0.742V4.003z"/>
			<path fill="#0288D1" d="M11.557,1.886c0.492,0,0.869,0.082,1.134,0.246c0.263,0.164,0.395,0.435,0.395,0.808
				c0,0.377-0.132,0.649-0.399,0.816c-0.267,0.168-0.647,0.251-1.144,0.251H11.31v1.05h-0.744V1.966
				c0.163-0.03,0.334-0.051,0.514-0.063C11.262,1.891,11.42,1.886,11.557,1.886z M11.604,2.487c-0.055,0-0.108,0.001-0.16,0.005
				c-0.052,0.002-0.097,0.005-0.135,0.008v0.905h0.232c0.258,0,0.451-0.033,0.582-0.1c0.13-0.067,0.195-0.19,0.195-0.371
				c0-0.087-0.018-0.16-0.051-0.217c-0.032-0.058-0.08-0.104-0.144-0.138c-0.062-0.036-0.137-0.059-0.226-0.072
				S11.713,2.487,11.604,2.487z"/>
			<path fill="#0288D1" d="M15.245,2.465c-0.348,0-0.597,0.09-0.752,0.273c-0.153,0.183-0.23,0.432-0.23,0.749
				c0,0.153,0.02,0.292,0.058,0.418s0.096,0.232,0.17,0.323c0.076,0.091,0.172,0.161,0.287,0.21
				c0.114,0.051,0.249,0.075,0.399,0.075c0.084,0,0.152-0.001,0.213-0.004c0.058-0.003,0.109-0.008,0.156-0.02V3.4h0.74v1.553
				c-0.087,0.033-0.229,0.068-0.426,0.106c-0.2,0.039-0.44,0.058-0.73,0.058c-0.249,0-0.473-0.037-0.676-0.109
				c-0.199-0.073-0.371-0.178-0.517-0.317c-0.142-0.138-0.251-0.309-0.331-0.511c-0.076-0.202-0.117-0.432-0.117-0.692
				c0-0.262,0.044-0.495,0.131-0.697c0.085-0.202,0.203-0.375,0.351-0.514c0.15-0.139,0.325-0.246,0.527-0.32
				c0.202-0.071,0.416-0.108,0.646-0.108c0.156,0,0.295,0.01,0.421,0.029C15.69,1.898,15.8,1.921,15.89,1.946
				c0.091,0.026,0.164,0.052,0.225,0.079c0.058,0.027,0.102,0.049,0.126,0.063l-0.216,0.566c-0.102-0.05-0.217-0.096-0.351-0.132
				C15.543,2.483,15.4,2.465,15.245,2.465z"/>
		</g>
	</g>
</g>
</svg>
