<?xml version="1.0" encoding="utf-8"?>
<!-- Generator: Adobe Illustrator 16.0.0, SVG Export Plug-In . SVG Version: 6.00 Build 0)  -->
<!DOCTYPE svg PUBLIC "-//W3C//DTD SVG 1.1//EN" "http://www.w3.org/Graphics/SVG/1.1/DTD/svg11.dtd">
<svg version="1.1" id="图层_1" xmlns="http://www.w3.org/2000/svg" xmlns:xlink="http://www.w3.org/1999/xlink" x="0px" y="0px"
	 width="24px" height="24px" viewBox="0 0 24 24" enable-background="new 0 0 24 24" xml:space="preserve">
<polygon fill="#3E2723" points="3.634,23 3.634,1 20.366,1 20.366,16.807 14.111,23 "/>
<g>
	<g>
		
			<linearGradient id="SVGID_1_" gradientUnits="userSpaceOnUse" x1="53.5996" y1="-141.4004" x2="53.5996" y2="-162.4009" gradientTransform="matrix(1 0 0 -1 -41.6001 -139.9004)">
			<stop  offset="0" style="stop-color:#785548"/>
			<stop  offset="1" style="stop-color:#9F9E9F"/>
		</linearGradient>
		<polygon fill="url(#SVGID_1_)" points="4.133,22.5 4.133,1.5 19.867,1.5 19.867,16.586 14.019,22.5 		"/>
		<polygon fill="#795548" fill-opacity="0.7" points="19.867,16.594 19.867,16.34 13.638,16.34 13.638,22.5 13.961,22.5 		"/>
		<path opacity="0.39" fill="#FFFFFF" enable-background="new    " d="M13.952,16.594l5.915,0.008L13.961,22.5L13.952,16.594z"/>
	</g>
	<path fill="#FFFFFF" d="M9.755,5.548H9.223v6.819H8.819V5.548H8.291v6.819H7.889V5.548h-0.53v6.819H6.955V5.548h-0.53v6.819H6.286
		v2.889h3.65v-2.889H9.755V5.548z M9.405,14.417h-2.59v-1.675h2.59V14.417z"/>
	<g>
		<rect x="4.13" y="1.5" opacity="0.8" fill="#FFFFFF" enable-background="new    " width="15.74" height="4.025"/>
		<g enable-background="new    ">
			<path fill="#5D4037" d="M8.946,5.145C8.409,5.145,8,5.003,7.719,4.718C7.438,4.436,7.297,4.033,7.297,3.51
				c0-0.259,0.043-0.491,0.129-0.694S7.63,2.44,7.778,2.3C7.928,2.16,8.105,2.053,8.312,1.98c0.207-0.072,0.431-0.108,0.673-0.108
				c0.14,0,0.267,0.01,0.38,0.029c0.115,0.02,0.215,0.042,0.301,0.068C9.751,1.995,9.822,2.021,9.88,2.049
				c0.058,0.027,0.099,0.048,0.123,0.063L9.79,2.683C9.688,2.631,9.569,2.587,9.435,2.551c-0.136-0.036-0.289-0.055-0.46-0.055
				c-0.114,0-0.227,0.019-0.336,0.055S8.432,2.646,8.348,2.725c-0.084,0.08-0.152,0.184-0.203,0.31
				c-0.05,0.126-0.075,0.281-0.075,0.461c0,0.145,0.017,0.28,0.05,0.406c0.034,0.125,0.087,0.233,0.162,0.324
				c0.074,0.09,0.173,0.162,0.293,0.215S8.841,4.52,9.013,4.52c0.108,0,0.204-0.007,0.29-0.018C9.389,4.49,9.466,4.475,9.531,4.458
				c0.067-0.016,0.126-0.036,0.177-0.056C9.76,4.382,9.805,4.361,9.846,4.344l0.205,0.566C9.947,4.97,9.799,5.024,9.607,5.072
				C9.418,5.12,9.196,5.145,8.946,5.145z"/>
			<path fill="#5D4037" d="M12.877,5.082C12.838,4.973,12.8,4.86,12.758,4.746c-0.043-0.115-0.085-0.229-0.126-0.343h-1.29
				c-0.041,0.114-0.084,0.229-0.125,0.343c-0.042,0.115-0.08,0.227-0.117,0.336h-0.771c0.123-0.339,0.242-0.651,0.353-0.938
				c0.112-0.286,0.222-0.556,0.328-0.81c0.107-0.253,0.212-0.494,0.314-0.722c0.104-0.228,0.212-0.451,0.323-0.668h0.705
				c0.108,0.217,0.215,0.44,0.32,0.668c0.104,0.228,0.21,0.468,0.318,0.722c0.106,0.254,0.216,0.524,0.326,0.81
				c0.112,0.287,0.23,0.599,0.355,0.938H12.877z M11.984,2.655C11.966,2.7,11.943,2.763,11.91,2.841
				c-0.031,0.079-0.068,0.169-0.108,0.271c-0.041,0.103-0.087,0.216-0.137,0.339c-0.05,0.124-0.103,0.253-0.154,0.389h0.945
				c-0.051-0.136-0.101-0.266-0.148-0.39c-0.046-0.124-0.091-0.237-0.134-0.34c-0.044-0.104-0.08-0.193-0.112-0.272
				C12.029,2.761,12.003,2.7,11.984,2.655z"/>
			<path fill="#5D4037" d="M15.196,5.123c-0.182,0-0.362-0.005-0.54-0.017c-0.18-0.011-0.366-0.035-0.561-0.075V1.989
				c0.153-0.026,0.32-0.047,0.501-0.061s0.35-0.021,0.504-0.021c0.21,0,0.403,0.014,0.579,0.043
				c0.178,0.029,0.328,0.078,0.456,0.147c0.126,0.07,0.226,0.161,0.297,0.274c0.072,0.114,0.108,0.253,0.108,0.418
				c0,0.251-0.129,0.449-0.382,0.593c0.209,0.075,0.352,0.178,0.428,0.308c0.077,0.13,0.115,0.276,0.115,0.439
				c0,0.33-0.126,0.577-0.379,0.743C16.07,5.038,15.695,5.123,15.196,5.123z M14.82,3.175h0.361c0.229,0,0.394-0.027,0.492-0.083
				c0.099-0.056,0.147-0.146,0.147-0.27c0-0.127-0.052-0.216-0.153-0.267c-0.101-0.051-0.251-0.077-0.448-0.077
				c-0.063,0-0.131,0-0.205,0.002c-0.072,0.001-0.137,0.005-0.194,0.011V3.175z M14.82,3.714v0.81
				c0.054,0.005,0.112,0.011,0.176,0.014c0.063,0.002,0.134,0.005,0.21,0.005c0.222,0,0.402-0.03,0.539-0.09
				c0.137-0.062,0.205-0.173,0.205-0.335c0-0.145-0.058-0.249-0.173-0.311c-0.114-0.062-0.278-0.093-0.49-0.093H14.82z"/>
		</g>
	</g>
</g>
</svg>
