<?xml version="1.0" encoding="utf-8"?>
<!-- Generator: Adobe Illustrator 16.0.0, SVG Export Plug-In . SVG Version: 6.00 Build 0)  -->
<!DOCTYPE svg PUBLIC "-//W3C//DTD SVG 1.1//EN" "http://www.w3.org/Graphics/SVG/1.1/DTD/svg11.dtd">
<svg version="1.1" id="图层_1" xmlns="http://www.w3.org/2000/svg" xmlns:xlink="http://www.w3.org/1999/xlink" x="0px" y="0px"
	 width="24px" height="24px" viewBox="0 0 24 24" enable-background="new 0 0 24 24" xml:space="preserve">
<polygon fill="#3E2723" points="3.634,23 3.634,1 20.366,1 20.366,16.807 14.111,23 "/>
<g>
	<g>
		
			<linearGradient id="SVGID_1_" gradientUnits="userSpaceOnUse" x1="53.5996" y1="-141.4004" x2="53.5996" y2="-162.4009" gradientTransform="matrix(1 0 0 -1 -41.6001 -139.9004)">
			<stop  offset="0" style="stop-color:#785548"/>
			<stop  offset="1" style="stop-color:#9F9E9F"/>
		</linearGradient>
		<polygon fill="url(#SVGID_1_)" points="4.133,22.5 4.133,1.5 19.867,1.5 19.867,16.586 14.019,22.5 		"/>
		<polygon fill="#795548" fill-opacity="0.7" points="19.867,16.594 19.867,16.34 13.638,16.34 13.638,22.5 13.961,22.5 		"/>
		<path opacity="0.39" fill="#FFFFFF" enable-background="new    " d="M13.952,16.594l5.915,0.008L13.961,22.5L13.952,16.594z"/>
	</g>
	<path fill="#FFFFFF" d="M9.755,5.548H9.223v6.819H8.819V5.548H8.291v6.819H7.889V5.548h-0.53v6.819H6.955V5.548h-0.53v6.819H6.286
		v2.889h3.65v-2.889H9.755V5.548z M9.405,14.417h-2.59v-1.675h2.59V14.417z"/>
	<g>
		<rect x="4.13" y="1.5" opacity="0.8" fill="#FFFFFF" enable-background="new    " width="15.74" height="4.025"/>
		<g enable-background="new    ">
			<path fill="#5D4037" d="M8.033,5.123c-0.181,0-0.361-0.006-0.54-0.017c-0.181-0.01-0.367-0.035-0.561-0.075V1.989
				c0.152-0.026,0.319-0.047,0.5-0.061s0.35-0.021,0.505-0.021c0.21,0,0.403,0.014,0.579,0.043C8.693,1.98,8.845,2.029,8.972,2.098
				c0.126,0.07,0.226,0.161,0.297,0.274c0.072,0.114,0.108,0.253,0.108,0.418c0,0.251-0.127,0.449-0.382,0.593
				c0.209,0.075,0.353,0.178,0.43,0.308C9.5,3.821,9.538,3.968,9.538,4.13c0,0.33-0.126,0.577-0.379,0.743
				C8.908,5.039,8.532,5.123,8.033,5.123z M7.657,3.175H8.02c0.228,0,0.392-0.027,0.49-0.083c0.099-0.056,0.147-0.146,0.147-0.27
				c0-0.127-0.052-0.216-0.152-0.267C8.403,2.504,8.254,2.479,8.056,2.479c-0.063,0-0.131,0-0.203,0.002
				C7.778,2.482,7.714,2.486,7.657,2.492V3.175z M7.657,3.714v0.811C7.71,4.53,7.769,4.535,7.833,4.538
				c0.063,0.003,0.133,0.004,0.209,0.004c0.224,0,0.402-0.03,0.539-0.09C8.718,4.392,8.786,4.28,8.786,4.118
				c0-0.145-0.058-0.249-0.172-0.311C8.5,3.746,8.336,3.714,8.123,3.714H7.657z"/>
			<path fill="#5D4037" d="M12.464,2.433c-0.102,0.1-0.222,0.229-0.361,0.388c-0.141,0.158-0.284,0.331-0.435,0.518
				c-0.148,0.187-0.297,0.38-0.442,0.579c-0.146,0.2-0.276,0.39-0.392,0.571h1.683v0.593H9.921V4.66
				c0.088-0.154,0.197-0.325,0.325-0.513c0.129-0.189,0.263-0.379,0.402-0.571c0.141-0.191,0.283-0.377,0.427-0.557
				c0.145-0.18,0.278-0.34,0.403-0.482H9.996V1.944h2.468V2.433z"/>
			<path fill="#5D4037" d="M13.041,1.944h0.743v3.137h-0.743V1.944z"/>
			<path fill="#5D4037" d="M15.537,1.908c0.492,0,0.869,0.083,1.135,0.247c0.263,0.165,0.396,0.434,0.396,0.808
				c0,0.377-0.133,0.649-0.401,0.817c-0.267,0.167-0.647,0.251-1.143,0.251H15.29v1.05h-0.743V1.989
				c0.162-0.03,0.333-0.051,0.515-0.063C15.242,1.914,15.4,1.908,15.537,1.908z M15.585,2.51c-0.054,0-0.108,0.001-0.16,0.005
				c-0.052,0.003-0.097,0.005-0.135,0.009v0.905h0.233c0.257,0,0.451-0.033,0.581-0.1c0.13-0.066,0.195-0.19,0.195-0.371
				c0-0.087-0.017-0.159-0.051-0.217c-0.032-0.057-0.08-0.104-0.144-0.138c-0.06-0.035-0.137-0.059-0.226-0.073
				S15.693,2.51,15.585,2.51z"/>
		</g>
	</g>
</g>
</svg>
