<?xml version="1.0" encoding="utf-8"?>
<!-- Generator: Adobe Illustrator 21.0.0, SVG Export Plug-In . SVG Version: 6.00 Build 0)  -->
<svg version="1.1" id="图层_1" xmlns="http://www.w3.org/2000/svg" xmlns:xlink="http://www.w3.org/1999/xlink" x="0px" y="0px"
	 viewBox="0 0 24 24" style="enable-background:new 0 0 24 24;" xml:space="preserve">
<style type="text/css">
	.st0{fill:#311B92;}
	.st1{fill:url(#SVGID_1_);}
	.st2{fill:#673AB7;fill-opacity:0.39;}
	.st3{fill:#FFFFFF;fill-opacity:0.39;}
	.st4{opacity:0.8;fill:#FFFFFF;enable-background:new    ;}
</style>
<title>application-video</title>
<path class="st0" d="M20,2v14l-6,6H4V2H20 M21,1H3v22h11l7-7V1z"/>
<linearGradient id="SVGID_1_" gradientUnits="userSpaceOnUse" x1="12" y1="1534" x2="12" y2="1554" gradientTransform="matrix(1 0 0 1 0 -1532)">
	<stop  offset="0" style="stop-color:#BA68C8"/>
	<stop  offset="0.19" style="stop-color:#B666C7"/>
	<stop  offset="0.39" style="stop-color:#A95FC3"/>
	<stop  offset="0.59" style="stop-color:#9553BD"/>
	<stop  offset="0.79" style="stop-color:#7843B4"/>
	<stop  offset="0.99" style="stop-color:#532EA8"/>
	<stop  offset="1" style="stop-color:#512DA8"/>
</linearGradient>
<polygon class="st1" points="4,22 4,2 20,2 20,16 14,22 "/>
<polygon class="st2" points="20,16 20,15 13,15 13,22 14,22 "/>
<path class="st3" d="M14,16h6l-6,6V16z"/>
<path class="st4" d="M17,10c0-2.8-2.2-5-5-5s-5,2.2-5,5s2.2,5,5,5S17,12.8,17,10z M8.3,10c0-2.1,1.7-3.8,3.8-3.8s3.8,1.7,3.8,3.8
	s-1.7,3.8-3.8,3.8C9.9,13.8,8.3,12.1,8.3,10C8.2,10,8.2,10,8.3,10z M14.1,10l-3.6-2.1v4.3L14.1,10z"/>
</svg>
