<?xml version="1.0" encoding="utf-8"?>
<!-- Generator: Adobe Illustrator 21.0.0, SVG Export Plug-In . SVG Version: 6.00 Build 0)  -->
<svg version="1.1" id="图层_1" xmlns="http://www.w3.org/2000/svg" xmlns:xlink="http://www.w3.org/1999/xlink" x="0px" y="0px"
	 viewBox="0 0 24 24" style="enable-background:new 0 0 24 24;" xml:space="preserve">
<style type="text/css">
	.st0{fill:#AE2124;}
	.st1{fill:url(#SVGID_1_);}
	.st2{fill:#AE2124;fill-opacity:0.39;}
	.st3{opacity:0.39;fill:#FFFFFF;enable-background:new    ;}
	.st4{opacity:0.8;}
	.st5{fill:#FFFFFF;}
</style>
<title>application-vnd.ms-access</title>
<path class="st0" d="M20,2v14l-6,6H4V2H20 M21,1H3v22h11l7-7V1z"/>
<linearGradient id="SVGID_1_" gradientUnits="userSpaceOnUse" x1="12" y1="1534" x2="12" y2="1554" gradientTransform="matrix(1 0 0 1 0 -1532)">
	<stop  offset="0.05" style="stop-color:#EA582B"/>
	<stop  offset="0.43" style="stop-color:#EA552A"/>
	<stop  offset="0.65" style="stop-color:#E74E29"/>
	<stop  offset="0.84" style="stop-color:#D9412C"/>
	<stop  offset="1" style="stop-color:#C7312F"/>
</linearGradient>
<polygon class="st1" points="4,22 4,2 20,2 20,16 14,22 "/>
<polygon class="st2" points="20,16 20,15 13,15 13,22 14,22 "/>
<path class="st3" d="M14,16h6l-6,6V16z"/>
<g class="st4">
	<path class="st5" d="M14.1,6.1L14.1,6.1z"/>
	<path class="st5" d="M13.8,6.1L13.8,6.1z"/>
	<path class="st5" d="M14.3,6.2L14.3,6.2L14.3,6.2z"/>
	<path class="st5" d="M14.5,6.2L14.5,6.2L14.5,6.2z"/>
	<path class="st5" d="M13.6,6.1L13.6,6.1z"/>
	<path class="st5" d="M14.9,6.3L14.9,6.3L14.9,6.3z"/>
	<path class="st5" d="M14.7,6.2L14.7,6.2L14.7,6.2z"/>
	<path class="st5" d="M15.1,6.3L15.1,6.3L15.1,6.3z"/>
	<path class="st5" d="M13.4,6.1L13.4,6.1z"/>
	<path class="st5" d="M12.9,6L12.9,6z"/>
	<path class="st5" d="M13.1,6L13.1,6z"/>
	<path class="st5" d="M16.2,6.7L16.2,6.7z"/>
	<path class="st5" d="M15.3,6.3L15.3,6.3z"/>
	<path class="st5" d="M15.8,6.5L15.8,6.5z"/>
	<path class="st5" d="M15.4,6.4L15.4,6.4z"/>
	<path class="st5" d="M15.6,6.4L15.6,6.4z"/>
	<path class="st5" d="M15.9,6.5L15.9,6.5z"/>
	<path class="st5" d="M16.1,6.6L16.1,6.6z"/>
	<path class="st5" d="M12.6,6L12.6,6z"/>
	<path class="st5" d="M7.8,6.7L7.8,6.7z"/>
	<path class="st5" d="M7.7,6.7L7.7,6.7z"/>
	<path class="st5" d="M7.5,6.8L7.5,6.8L7.5,6.8z"/>
	<path class="st5" d="M7.9,6.6L7.9,6.6z"/>
	<path class="st5" d="M8.2,6.5L8.2,6.5z"/>
	<path class="st5" d="M8,6.6L8,6.6z"/>
	<path class="st5" d="M11.3,6L11.3,6z"/>
	<path class="st5" d="M12,8.8c-2.8,0-5-0.6-5-1.4v1.3c0,0.8,2.2,1.4,5,1.4s5-0.6,5-1.4l0,0V7.4C17,8.2,14.8,8.8,12,8.8z"/>
	<path class="st5" d="M8.3,6.4L8.3,6.4z"/>
	<path class="st5" d="M10.3,6.1L10.3,6.1z"/>
	<path class="st5" d="M10.1,6.1L10.1,6.1z"/>
	<path class="st5" d="M10.5,6.1L10.5,6.1z"/>
	<path class="st5" d="M8.5,6.4L8.5,6.4z"/>
	<path class="st5" d="M11,6L11,6z"/>
	<path class="st5" d="M9.9,6.1L9.9,6.1L9.9,6.1z"/>
	<path class="st5" d="M10.8,6L10.8,6z"/>
	<path class="st5" d="M8.9,6.3L8.9,6.3L8.9,6.3z"/>
	<path class="st5" d="M8.7,6.3L8.7,6.3z"/>
	<path class="st5" d="M9,6.3L9,6.3L9,6.3z"/>
	<path class="st5" d="M9.2,6.2L9.2,6.2L9.2,6.2z"/>
	<path class="st5" d="M9.4,6.2L9.4,6.2L9.4,6.2z"/>
	<path class="st5" d="M9.6,6.2L9.6,6.2L9.6,6.2z"/>
	<path class="st5" d="M14.1,8.1L14.1,8.1L14.1,8.1z"/>
	<path class="st5" d="M13.8,8.1L13.8,8.1z"/>
	<path class="st5" d="M14.3,8.1L14.3,8.1L14.3,8.1z"/>
	<path class="st5" d="M14.5,8.2L14.5,8.2L14.5,8.2z"/>
	<path class="st5" d="M13.6,8.1L13.6,8.1z"/>
	<path class="st5" d="M14.9,8.3L14.9,8.3L14.9,8.3z"/>
	<path class="st5" d="M14.7,8.2L14.7,8.2L14.7,8.2z"/>
	<path class="st5" d="M15.1,8.3L15.1,8.3L15.1,8.3z"/>
	<path class="st5" d="M13.4,8.1L13.4,8.1z"/>
	<path class="st5" d="M11.5,8L11.5,8z"/>
	<path class="st5" d="M12.9,8L12.9,8z"/>
	<path class="st5" d="M13.1,8L13.1,8z"/>
	<path class="st5" d="M16.2,8.6L16.2,8.6z"/>
	<path class="st5" d="M15.3,8.3L15.3,8.3z"/>
	<path class="st5" d="M15.8,8.5L15.8,8.5z"/>
	<path class="st5" d="M15.4,8.4L15.4,8.4z"/>
	<path class="st5" d="M15.6,8.4L15.6,8.4z"/>
	<path class="st5" d="M15.9,8.5L15.9,8.5z"/>
	<path class="st5" d="M16.1,8.6L16.1,8.6z"/>
	<path class="st5" d="M12.6,8L12.6,8z"/>
	<path class="st5" d="M7.8,8.6L7.8,8.6z"/>
	<path class="st5" d="M7.7,8.7L7.7,8.7z"/>
	<path class="st5" d="M7.9,8.6L7.9,8.6z"/>
	<path class="st5" d="M8.2,8.5L8.2,8.5z"/>
	<path class="st5" d="M8,8.5L8,8.5z"/>
	<path class="st5" d="M11.3,8L11.3,8z"/>
	<path class="st5" d="M12,10.8c-2.8,0-5-0.6-5-1.4v1.3c0,0.8,2.2,1.4,5,1.4s5-0.6,5-1.4l0,0V9.4C17,10.2,14.8,10.8,12,10.8z"/>
	<path class="st5" d="M8.3,8.4L8.3,8.4z"/>
	<path class="st5" d="M10.3,8.1L10.3,8.1z"/>
	<path class="st5" d="M10.1,8.1L10.1,8.1z"/>
	<path class="st5" d="M10.5,8.1L10.5,8.1z"/>
	<path class="st5" d="M8.5,8.4L8.5,8.4z"/>
	<path class="st5" d="M11,8L11,8z"/>
	<path class="st5" d="M9.9,8.1L9.9,8.1L9.9,8.1z"/>
	<path class="st5" d="M10.8,8L10.8,8z"/>
	<path class="st5" d="M8.9,8.3L8.9,8.3L8.9,8.3z"/>
	<path class="st5" d="M8.7,8.4L8.7,8.4z"/>
	<path class="st5" d="M9,8.3L9,8.3z"/>
	<path class="st5" d="M9.2,8.2L9.2,8.2L9.2,8.2z"/>
	<path class="st5" d="M9.4,8.2L9.4,8.2L9.4,8.2z"/>
	<path class="st5" d="M9.6,8.2L9.6,8.2L9.6,8.2z"/>
	<path class="st5" d="M14.1,10.1L14.1,10.1L14.1,10.1z"/>
	<path class="st5" d="M13.8,10.1L13.8,10.1z"/>
	<path class="st5" d="M14.3,10.1L14.3,10.1L14.3,10.1z"/>
	<path class="st5" d="M14.5,10.2L14.5,10.2L14.5,10.2z"/>
	<path class="st5" d="M13.6,10.1L13.6,10.1z"/>
	<path class="st5" d="M14.9,10.3L14.9,10.3L14.9,10.3z"/>
	<path class="st5" d="M14.7,10.2L14.7,10.2L14.7,10.2z"/>
	<path class="st5" d="M12.3,10L12.3,10z"/>
	<path class="st5" d="M15.1,10.3L15.1,10.3L15.1,10.3z"/>
	<path class="st5" d="M13.4,10.1L13.4,10.1z"/>
	<path class="st5" d="M12.9,10L12.9,10z"/>
	<path class="st5" d="M13.1,10L13.1,10z"/>
	<path class="st5" d="M16.2,10.6L16.2,10.6z"/>
	<path class="st5" d="M15.3,10.3L15.3,10.3z"/>
	<path class="st5" d="M15.8,10.5L15.8,10.5z"/>
	<path class="st5" d="M15.4,10.4L15.4,10.4z"/>
	<path class="st5" d="M15.6,10.4L15.6,10.4z"/>
	<path class="st5" d="M15.9,10.5L15.9,10.5z"/>
	<path class="st5" d="M16.1,10.6L16.1,10.6z"/>
	<path class="st5" d="M12.6,10L12.6,10z"/>
	<path class="st5" d="M7.8,10.6L7.8,10.6z"/>
	<path class="st5" d="M7.7,10.7L7.7,10.7z"/>
	<path class="st5" d="M7.9,10.6L7.9,10.6z"/>
	<path class="st5" d="M8.2,10.5L8.2,10.5z"/>
	<path class="st5" d="M8,10.5L8,10.5z"/>
	<path class="st5" d="M11.3,10L11.3,10z"/>
	<path class="st5" d="M12,12.8c-2.8,0-5-0.6-5-1.4v1.2c0,0.8,2.2,1.4,5,1.4s5-0.6,5-1.4l0,0v-1.2C17,12.1,14.8,12.8,12,12.8z"/>
	<path class="st5" d="M8.3,10.4L8.3,10.4z"/>
	<path class="st5" d="M10.3,10.1L10.3,10.1z"/>
	<path class="st5" d="M10.1,10.1L10.1,10.1z"/>
	<path class="st5" d="M10.5,10.1L10.5,10.1z"/>
	<path class="st5" d="M8.5,10.4L8.5,10.4z"/>
	<path class="st5" d="M11,10L11,10z"/>
	<path class="st5" d="M9.9,10.1L9.9,10.1L9.9,10.1z"/>
	<path class="st5" d="M10.8,10L10.8,10z"/>
	<path class="st5" d="M8.9,10.3L8.9,10.3L8.9,10.3z"/>
	<path class="st5" d="M8.7,10.4L8.7,10.4z"/>
	<path class="st5" d="M9,10.3L9,10.3L9,10.3z"/>
	<path class="st5" d="M9.2,10.2L9.2,10.2L9.2,10.2z"/>
	<path class="st5" d="M9.4,10.2L9.4,10.2L9.4,10.2z"/>
	<path class="st5" d="M9.6,10.2L9.6,10.2L9.6,10.2z"/>
	<ellipse class="st5" cx="12" cy="6.3" rx="5" ry="1.7"/>
</g>
</svg>
