<?xml version="1.0" encoding="utf-8"?>
<!-- Generator: Adobe Illustrator 21.0.0, SVG Export Plug-In . SVG Version: 6.00 Build 0)  -->
<svg version="1.1" id="图层_1" xmlns="http://www.w3.org/2000/svg" xmlns:xlink="http://www.w3.org/1999/xlink" x="0px" y="0px"
	 viewBox="0 0 24 24" style="enable-background:new 0 0 24 24;" xml:space="preserve">
<style type="text/css">
	.st0{fill:#BF360C;}
	.st1{fill:url(#SVGID_1_);}
	.st2{fill:#BF360C;fill-opacity:0.39;}
	.st3{fill:#FFFFFF;fill-opacity:0.39;}
	.st4{opacity:0.8;fill:#FFFFFF;enable-background:new    ;}
</style>
<title>application-rss</title>
<path class="st0" d="M20,2v14l-6,6H4V2H20 M21,1H3v22h11l7-7V1z"/>
<linearGradient id="SVGID_1_" gradientUnits="userSpaceOnUse" x1="12" y1="1534" x2="12" y2="1554" gradientTransform="matrix(1 0 0 1 0 -1532)">
	<stop  offset="0" style="stop-color:#FF9800"/>
	<stop  offset="0.25" style="stop-color:#FF7C0F"/>
	<stop  offset="0.5" style="stop-color:#FF6819"/>
	<stop  offset="0.76" style="stop-color:#FF5B20"/>
	<stop  offset="1" style="stop-color:#FF5722"/>
</linearGradient>
<polygon class="st1" points="4,22 4,2 20,2 20,16 14,22 "/>
<polygon class="st2" points="20,16 20,15 13,15 13,22 14,22 "/>
<path class="st3" d="M14,16h6l-6,6V16z"/>
<path class="st4" d="M7.1,12.9c0-0.3,0.1-0.6,0.3-0.8c0.2-0.2,0.5-0.3,0.8-0.3c0.6,0,1.1,0.5,1.1,1.1l0,0c0,0.3-0.1,0.6-0.3,0.8
	C8.7,13.9,8.4,14,8.2,14c-0.3,0-0.6-0.1-0.8-0.3C7.2,13.5,7,13.2,7.1,12.9 M7,8v1.8c2.3,0,4.2,1.9,4.2,4.2l0,0H13
	C13,10.7,10.3,8,7,8z M7,4v2c4.4,0,8,3.6,8,8h2C17,8.5,12.5,4,7,4z"/>
</svg>
