<?xml version="1.0" encoding="utf-8"?>
<!-- Generator: Adobe Illustrator 16.0.0, SVG Export Plug-In . SVG Version: 6.00 Build 0)  -->
<!DOCTYPE svg PUBLIC "-//W3C//DTD SVG 1.1//EN" "http://www.w3.org/Graphics/SVG/1.1/DTD/svg11.dtd">
<svg version="1.1" id="图层_1" xmlns="http://www.w3.org/2000/svg" xmlns:xlink="http://www.w3.org/1999/xlink" x="0px" y="0px"
	 width="24px" height="24px" viewBox="0 0 24 24" enable-background="new 0 0 24 24" xml:space="preserve">
<polygon fill="#3E2723" points="3.634,23 3.634,1 20.366,1 20.366,16.807 14.111,23 "/>
<g>
	<g>
		
			<linearGradient id="SVGID_1_" gradientUnits="userSpaceOnUse" x1="53.5996" y1="-141.4004" x2="53.5996" y2="-162.4009" gradientTransform="matrix(1 0 0 -1 -41.6001 -139.9004)">
			<stop  offset="0" style="stop-color:#785548"/>
			<stop  offset="1" style="stop-color:#9F9E9F"/>
		</linearGradient>
		<polygon fill="url(#SVGID_1_)" points="4.133,22.5 4.133,1.5 19.867,1.5 19.867,16.586 14.019,22.5 		"/>
		<polygon fill="#795548" fill-opacity="0.7" points="19.867,16.594 19.867,16.34 13.638,16.34 13.638,22.5 13.961,22.5 		"/>
		<path opacity="0.39" fill="#FFFFFF" enable-background="new    " d="M13.952,16.594l5.915,0.008L13.961,22.5L13.952,16.594z"/>
	</g>
	<path fill="#FFFFFF" d="M9.755,5.548H9.223v6.819H8.819V5.548H8.291v6.819H7.889V5.548h-0.53v6.819H6.955V5.548h-0.53v6.819H6.286
		v2.889h3.65v-2.889H9.755V5.548z M9.405,14.417h-2.59v-1.675h2.59V14.417z"/>
	<g>
		<rect x="4.13" y="1.5" opacity="0.8" fill="#FFFFFF" enable-background="new    " width="15.74" height="4.025"/>
		<g enable-background="new    ">
			<path fill="#5D4037" d="M10.256,1.944v0.602H9.26v2.535H8.517V2.546H7.521V1.944H10.256z"/>
			<path fill="#5D4037" d="M12.556,5.082c-0.036-0.109-0.074-0.221-0.118-0.336c-0.041-0.115-0.084-0.229-0.125-0.343h-1.291
				c-0.041,0.114-0.082,0.229-0.126,0.344c-0.041,0.115-0.079,0.227-0.114,0.335h-0.772c0.124-0.338,0.241-0.65,0.354-0.938
				c0.111-0.286,0.219-0.556,0.325-0.81c0.107-0.253,0.214-0.494,0.317-0.722c0.104-0.228,0.211-0.451,0.323-0.668h0.702
				c0.109,0.217,0.216,0.44,0.323,0.668c0.104,0.228,0.21,0.468,0.316,0.722c0.106,0.254,0.216,0.524,0.328,0.81
				c0.112,0.287,0.229,0.6,0.355,0.938H12.556z M11.664,2.655C11.647,2.7,11.623,2.763,11.59,2.841
				C11.561,2.92,11.521,3.01,11.48,3.113c-0.041,0.103-0.084,0.216-0.137,0.339c-0.049,0.124-0.101,0.253-0.152,0.389h0.943
				c-0.05-0.136-0.099-0.266-0.146-0.39c-0.049-0.124-0.093-0.237-0.137-0.34c-0.041-0.104-0.079-0.193-0.112-0.272
				C11.711,2.761,11.684,2.7,11.664,2.655z"/>
			<path fill="#5D4037" d="M14.743,1.908c0.494,0,0.875,0.084,1.14,0.251c0.263,0.167,0.394,0.428,0.394,0.781
				c0,0.22-0.052,0.399-0.158,0.537c-0.106,0.137-0.26,0.245-0.459,0.323c0.065,0.079,0.137,0.168,0.207,0.27
				c0.074,0.101,0.148,0.206,0.219,0.317c0.071,0.11,0.14,0.224,0.208,0.344c0.065,0.119,0.129,0.236,0.187,0.351h-0.832
				c-0.063-0.103-0.123-0.207-0.186-0.313c-0.061-0.105-0.126-0.208-0.191-0.308c-0.065-0.1-0.129-0.194-0.194-0.283
				c-0.063-0.089-0.126-0.169-0.188-0.242h-0.369v1.145h-0.741V1.989c0.161-0.03,0.328-0.051,0.501-0.063
				C14.453,1.914,14.606,1.908,14.743,1.908z M14.786,2.51c-0.055,0-0.104,0.001-0.145,0.005c-0.044,0.003-0.085,0.005-0.123,0.009
				v0.851h0.211c0.278,0,0.479-0.033,0.602-0.1c0.12-0.066,0.18-0.18,0.18-0.34c0-0.154-0.063-0.263-0.183-0.328
				C15.205,2.542,15.024,2.51,14.786,2.51z"/>
		</g>
	</g>
</g>
</svg>
