<?xml version="1.0" encoding="utf-8"?>
<!-- Generator: Adobe Illustrator 16.0.0, SVG Export Plug-In . SVG Version: 6.00 Build 0)  -->
<!DOCTYPE svg PUBLIC "-//W3C//DTD SVG 1.1//EN" "http://www.w3.org/Graphics/SVG/1.1/DTD/svg11.dtd">
<svg version="1.1" id="图层_1" xmlns="http://www.w3.org/2000/svg" xmlns:xlink="http://www.w3.org/1999/xlink" x="0px" y="0px"
	 width="24px" height="24px" viewBox="0 0 24 24" enable-background="new 0 0 24 24" xml:space="preserve">
<rect x="3.634" y="1" fill="#1B5E20" width="16.732" height="22"/>
<g>
	
		<linearGradient id="SVGID_1_" gradientUnits="userSpaceOnUse" x1="53.6006" y1="-162.3999" x2="53.6006" y2="-141.4004" gradientTransform="matrix(1 0 0 -1 -41.6001 -139.9004)">
		<stop  offset="0" style="stop-color:#388E3C"/>
		<stop  offset="0.0757" style="stop-color:#43953E"/>
		<stop  offset="0.3246" style="stop-color:#62A943"/>
		<stop  offset="0.5665" style="stop-color:#79B747"/>
		<stop  offset="0.796" style="stop-color:#86C049"/>
		<stop  offset="1" style="stop-color:#8BC34A"/>
	</linearGradient>
	<rect x="4.133" y="1.5" fill="url(#SVGID_1_)" width="15.734" height="21"/>
	<path opacity="0.8" fill="#FFFFFF" enable-background="new    " d="M12.401,5.368V5.35h-0.804v0.018H6.399V15.5h11.2V5.368H12.401z
		 M7.205,8.377h2.502v1.619H7.205V8.377z M7.205,10.801h2.502v1.619H7.205V10.801z M10.538,10.801h6.257v1.619h-6.257V10.801z
		 M10.538,9.996V8.377h6.257v1.619H10.538z M16.795,6.181v1.392h-6.257V6.181H16.795z M9.707,6.181v1.392H7.205V6.181H9.707z
		 M7.205,13.233h2.502v1.453H7.205V13.233z M10.538,14.687v-1.453h6.257v1.453H10.538z"/>
</g>
</svg>
