<?xml version="1.0" encoding="utf-8"?>
<!-- Generator: Adobe Illustrator 21.0.0, SVG Export Plug-In . SVG Version: 6.00 Build 0)  -->
<svg version="1.1" id="图层_1" xmlns="http://www.w3.org/2000/svg" xmlns:xlink="http://www.w3.org/1999/xlink" x="0px" y="0px"
	 viewBox="0 0 24 24" style="enable-background:new 0 0 24 24;" xml:space="preserve">
<style type="text/css">
	.st0{fill:#455A64;}
	.st1{fill:url(#SVGID_1_);}
	.st2{fill:#455A64;fill-opacity:0.39;}
	.st3{opacity:0.39;fill:#FFFFFF;enable-background:new    ;}
	.st4{opacity:0.8;}
	.st5{fill:#FFFFFF;}
</style>
<title>application-trash</title>
<path class="st0" d="M20,2v14l-6,6H4V2H20 M21,1H3v22h11l7-7V1z"/>
<linearGradient id="SVGID_1_" gradientUnits="userSpaceOnUse" x1="12" y1="1534" x2="12" y2="1554" gradientTransform="matrix(1 0 0 1 0 -1532)">
	<stop  offset="0" style="stop-color:#90A4AE"/>
	<stop  offset="0.14" style="stop-color:#849AA5"/>
	<stop  offset="0.42" style="stop-color:#708A97"/>
	<stop  offset="0.71" style="stop-color:#64808E"/>
	<stop  offset="1" style="stop-color:#607D8B"/>
</linearGradient>
<polygon class="st1" points="4,22 4,2 20,2 20,16 14,22 "/>
<polygon class="st2" points="20,16 20,15 13,15 13,22 14,22 "/>
<path class="st3" d="M14,16h6l-6,6V16z"/>
<g class="st4">
	<polygon class="st5" points="9.9,9.8 7.2,8 9.6,7.3 	"/>
	<polygon class="st5" points="11.8,12.8 12.8,12.8 12.8,11.9 11.8,11.9 11.2,12.4 	"/>
	<polygon class="st5" points="13.4,8.8 16.1,6.9 15.9,9.4 	"/>
	<polygon class="st5" points="15.9,8.7 15.3,7.8 14.6,8.4 15.2,9.2 15.9,9.4 	"/>
	<polygon class="st5" points="18,11.8 16.2,9.1 16.1,9.8 15.4,9.6 17,11.9 13.1,11.9 13.1,12.8 17.3,12.8 17.3,12.8 17.3,12.8 	"/>
	<polygon class="st5" points="8.9,7.5 8.3,8.4 9.1,8.9 9.7,8 9.6,7.3 	"/>
	<polygon class="st5" points="12.7,4 11.3,4 9.1,7.2 9.8,6.9 9.9,7.7 12,4.6 14.4,8.1 15.2,7.6 	"/>
	<polygon class="st5" points="7,11.9 8.9,9.1 8.2,8.6 6,11.8 6,11.8 6,11.8 6.5,12.5 6.7,12.8 11.4,12.8 10.8,12.4 11.4,11.9 	"/>
	<polygon class="st5" points="13.2,10.7 13.2,14 11.2,12.4 	"/>
	<polygon class="st5" points="8.2,8.6 8.6,8 9.6,8.2 8.9,9.2 	"/>
	<polygon class="st5" points="14.1,7.6 14.7,8.5 15.4,8 14.8,7.1 	"/>
	<rect x="12.6" y="11.9" class="st5" width="0.7" height="0.9"/>
</g>
</svg>
