<?xml version="1.0" encoding="utf-8"?>
<!-- Generator: Adobe Illustrator 21.0.0, SVG Export Plug-In . SVG Version: 6.00 Build 0)  -->
<svg version="1.1" id="图层_1" xmlns="http://www.w3.org/2000/svg" xmlns:xlink="http://www.w3.org/1999/xlink" x="0px" y="0px"
	 viewBox="0 0 24 24" style="enable-background:new 0 0 24 24;" xml:space="preserve">
<style type="text/css">
	.st0{fill:#0D47A1;}
	.st1{fill:url(#SVGID_1_);}
	.st2{fill:#0D47A1;fill-opacity:0.39;}
	.st3{fill:#FFFFFF;fill-opacity:0.39;}
	.st4{opacity:0.8;fill:#FFFFFF;enable-background:new    ;}
</style>
<title>application-users</title>
<path class="st0" d="M20,2v14l-6,6H4V2H20 M21,1H3v22h11l7-7V1z"/>
<linearGradient id="SVGID_1_" gradientUnits="userSpaceOnUse" x1="12" y1="1534" x2="12" y2="1554" gradientTransform="matrix(1 0 0 1 0 -1532)">
	<stop  offset="0" style="stop-color:#64B5F6"/>
	<stop  offset="0.23" style="stop-color:#60B1F4"/>
	<stop  offset="0.46" style="stop-color:#53A7EE"/>
	<stop  offset="0.7" style="stop-color:#3F96E4"/>
	<stop  offset="0.94" style="stop-color:#227DD6"/>
	<stop  offset="1" style="stop-color:#1976D2"/>
</linearGradient>
<polygon class="st1" points="4,22 4,2 20,2 20,16 14,22 "/>
<polygon class="st2" points="20,16 20,15 13,15 13,22 14,22 "/>
<path class="st3" d="M14,16h6l-6,6V16z"/>
<path class="st4" d="M13.2,6.4h1.4C15.3,6.4,16,7,16,7.7c0,0,0,0,0,0.1v2c-0.1,0.5-0.3,1-0.7,1.4v0.7l1.4,1V14h-6.2v-1l2.1-1.1v-0.7
	c-0.3-0.4-0.6-0.9-0.7-1.4v-2C11.8,7.1,12.4,6.5,13.2,6.4L13.2,6.4z M9.7,7.5h0.8v2.2c0.1,0.6,0.4,1.1,0.7,1.6l-1.4,1.1v0.9H7v-0.4
	l2.1-1v-0.6c0,0-1-1.1-1-1.7V9.1C8,8.3,8.7,7.5,9.7,7.5C9.6,7.5,9.6,7.5,9.7,7.5z"/>
</svg>
