<?xml version="1.0" encoding="utf-8"?>
<!-- Generator: Adobe Illustrator 16.0.0, SVG Export Plug-In . SVG Version: 6.00 Build 0)  -->
<!DOCTYPE svg PUBLIC "-//W3C//DTD SVG 1.1//EN" "http://www.w3.org/Graphics/SVG/1.1/DTD/svg11.dtd">
<svg version="1.1" id="图层_1" xmlns="http://www.w3.org/2000/svg" xmlns:xlink="http://www.w3.org/1999/xlink" x="0px" y="0px"
	 width="24px" height="24px" viewBox="0 0 24 24" enable-background="new 0 0 24 24" xml:space="preserve">
<polygon fill="#455A64" points="3.634,23 3.634,1 20.366,1 20.366,16.806 14.112,23 "/>
<g>
	<g>
		<g>
			
				<linearGradient id="SVGID_1_" gradientUnits="userSpaceOnUse" x1="53.5996" y1="-141.4004" x2="53.5996" y2="-162.4009" gradientTransform="matrix(1 0 0 -1 -41.6001 -139.9004)">
				<stop  offset="0" style="stop-color:#90A4AE"/>
				<stop  offset="0.1378" style="stop-color:#849AA5"/>
				<stop  offset="0.4226" style="stop-color:#708A97"/>
				<stop  offset="0.7096" style="stop-color:#64808E"/>
				<stop  offset="1" style="stop-color:#607D8B"/>
			</linearGradient>
			<polygon fill="url(#SVGID_1_)" points="4.133,22.5 4.133,1.5 19.867,1.5 19.867,16.594 13.961,22.5 			"/>
		</g>
		<polygon fill="#455A64" fill-opacity="0.39" points="19.867,16.594 19.867,16.34 13.637,16.34 13.637,22.5 13.961,22.5 		"/>
		<path fill="#FFFFFF" fill-opacity="0.39" d="M13.951,16.594l5.916,0.008L13.961,22.5L13.951,16.594z"/>
	</g>
	<path opacity="0.8" fill="#FFFFFF" enable-background="new    " d="M15.674,12.376c0.01-0.026,0.027-0.044,0.037-0.069
		c0.018-0.044,0.043-0.088,0.061-0.132c0,0,0-0.008,0.008-0.008c0.113-0.237,0.193-0.491,0.264-0.744h0.988V9.437h-0.988
		c-0.105-0.412-0.264-0.805-0.482-1.155l0.701-0.7l-1.408-1.408l-0.701,0.7c-0.359-0.219-0.752-0.386-1.182-0.491h0.01V5.394h-1.987
		v0.989h0.008c-0.418,0.105-0.822,0.272-1.182,0.491l-0.7-0.7L7.739,7.581l0.7,0.7c-0.21,0.35-0.376,0.744-0.481,1.155H6.968v1.986
		h0.989c0.104,0.41,0.262,0.804,0.481,1.163l0,0l-0.7,0.701l1.409,1.407l0.7-0.699c0.358,0.219,0.752,0.385,1.164,0.48v0.989h1.987
		v-0.989l0,0l0,0c0.42-0.104,0.805-0.262,1.162-0.48l0.701,0.699l1.408-1.407l-0.701-0.701l0,0c0.027-0.043,0.045-0.078,0.072-0.123
		C15.648,12.438,15.666,12.412,15.674,12.376z M12,13.601c-1.758,0-3.177-1.426-3.177-3.176S10.25,7.249,12,7.249
		c0.35,0,0.684,0.052,0.998,0.157l0,0c1.268,0.42,2.178,1.61,2.178,3.019c0,0.088,0,0.175-0.008,0.255v0.008
		c-0.018,0.254-0.07,0.499-0.15,0.735c0,0.009-0.008,0.009-0.008,0.017c-0.053,0.148-0.113,0.298-0.184,0.43
		c0,0.008-0.01,0.018-0.01,0.025c-0.035,0.07-0.068,0.131-0.113,0.201c0,0.01-0.01,0.01-0.01,0.018
		c-0.043,0.062-0.076,0.123-0.121,0.185l-0.01,0.009c-0.043,0.061-0.088,0.123-0.139,0.175c-0.008,0.008-0.018,0.018-0.025,0.026
		c-0.098,0.113-0.201,0.219-0.316,0.315c-0.008,0.008-0.018,0.017-0.025,0.026c-0.053,0.043-0.115,0.096-0.176,0.131
		c-0.008,0.008-0.018,0.008-0.025,0.018c-0.053,0.044-0.113,0.078-0.168,0.113c-0.008,0.008-0.016,0.008-0.025,0.018
		c-0.063,0.035-0.121,0.07-0.184,0.104c-0.018,0.009-0.025,0.018-0.043,0.027c-0.063,0.034-0.131,0.06-0.193,0.087
		c-0.008,0-0.018,0.009-0.025,0.009c-0.063,0.026-0.123,0.044-0.186,0.069C12.709,13.539,12.357,13.601,12,13.601z"/>
</g>
</svg>
