<?xml version="1.0" encoding="utf-8"?>
<!-- Generator: Adobe Illustrator 17.1.0, SVG Export Plug-In . SVG Version: 6.00 Build 0)  -->
<!DOCTYPE svg PUBLIC "-//W3C//DTD SVG 1.1//EN" "http://www.w3.org/Graphics/SVG/1.1/DTD/svg11.dtd" [
	<!ENTITY ns_extend "http://ns.adobe.com/Extensibility/1.0/">
	<!ENTITY ns_ai "http://ns.adobe.com/AdobeIllustrator/10.0/">
	<!ENTITY ns_graphs "http://ns.adobe.com/Graphs/1.0/">
	<!ENTITY ns_vars "http://ns.adobe.com/Variables/1.0/">
	<!ENTITY ns_imrep "http://ns.adobe.com/ImageReplacement/1.0/">
	<!ENTITY ns_sfw "http://ns.adobe.com/SaveForWeb/1.0/">
	<!ENTITY ns_custom "http://ns.adobe.com/GenericCustomNamespace/1.0/">
	<!ENTITY ns_adobe_xpath "http://ns.adobe.com/XPath/1.0/">
]>
<svg version="1.1"
	 id="svg2" xmlns:x="&ns_extend;" xmlns:i="&ns_ai;" xmlns:graph="&ns_graphs;" inkscape:version="0.48.4 r9939" sodipodi:docname="computer.svg" xmlns:dc="http://purl.org/dc/elements/1.1/" xmlns:sodipodi="http://sodipodi.sourceforge.net/DTD/sodipodi-0.dtd" xmlns:rdf="http://www.w3.org/1999/02/22-rdf-syntax-ns#" xmlns:svg="http://www.w3.org/2000/svg" xmlns:cc="http://creativecommons.org/ns#" xmlns:inkscape="http://www.inkscape.org/namespaces/inkscape"
	 xmlns="http://www.w3.org/2000/svg" xmlns:xlink="http://www.w3.org/1999/xlink" x="0px" y="0px" width="24px" height="24px"
	 viewBox="0 0 24 24" style="enable-background:new 0 0 24 24;" xml:space="preserve">
<metadata  id="metadata26">
	<rdf:RDF>
		<cc:Work  rdf:about="">
			<dc:format>image/svg+xml</dc:format>
			<dc:type  rdf:resource="http://purl.org/dc/dcmitype/StillImage"></dc:type>
		</cc:Work>
	</rdf:RDF>
	<sfw  xmlns="&ns_sfw;">
		<slices></slices>
		<sliceSourceBounds  height="22" width="16.8" x="411.6" y="584.6" bottomLeftOrigin="true"></sliceSourceBounds>
	</sfw>
</metadata>
<polygon style="fill:#0D47A1;" points="3.6,23 3.6,1 20.4,1 20.4,16.8 14.1,23 "/>
<g>
	<g>
		<g>
			<g>
				
					<linearGradient id="SVGID_1_" gradientUnits="userSpaceOnUse" x1="12" y1="701.05" x2="12" y2="680.05" gradientTransform="matrix(1 0 0 1 0 -678.55)">
					<stop  offset="0" style="stop-color:#3F51B5"/>
					<stop  offset="1" style="stop-color:#64B5F6"/>
				</linearGradient>
				<polygon style="fill:url(#SVGID_1_);" points="4.1,22.5 4.1,1.5 19.9,1.5 19.9,16.6 14,22.5 				"/>
			</g>
			<polygon style="fill:#2196F3;fill-opacity:0.7;" points="19.9,16.6 19.9,16.3 13.6,16.3 13.6,22.5 14,22.5 			"/>
			<path style="opacity:0.39;fill:#FFFFFF;enable-background:new    ;" d="M14,16.6h5.9L14,22.5V16.6z"/>
		</g>
	</g>
</g>
<path style="opacity:0.8;fill:#FFFFFF;enable-background:new    ;" d="M14.7,6.4c-0.3,0-0.5,0.2-0.7,0.4h-2.7c0,0-0.7,0-1.2,0.2
	C9.5,7.3,8.9,7.9,8.9,8.9s0.6,1.7,1.2,1.9c0.3,0.1,0.5,0.2,0.8,0.2v0.2l-1.1,1H9.7c-0.2,0-0.4,0.2-0.4,0.4S9.5,13,9.7,13
	c0.2,0,0.4-0.2,0.4-0.4v-0.1l1.1-1h1.3v-0.4h0.4c0,0,0.4,0,0.8,0.2s0.8,0.5,0.8,1.3s-0.4,1.1-0.8,1.3s-0.9,0.2-0.9,0.2h-2.7
	c-0.1-0.2-0.4-0.4-0.7-0.4c-0.4,0-0.8,0.3-0.8,0.7s0.3,0.7,0.8,0.7c0.3,0,0.5-0.2,0.7-0.4h2.7c0,0,0.7,0.1,1.2-0.2
	c0.6-0.3,1.2-0.9,1.2-1.9s-0.6-1.7-1.2-1.9c-0.6-0.3-1.1-0.3-1.1-0.3h-0.4v-0.1l1.1-1h0.1c0.2,0,0.4-0.2,0.4-0.4s-0.2-0.4-0.4-0.4
	s-0.4,0.2-0.4,0.4V9l-1.1,1h-1.3v0.3c-0.1,0-0.3-0.1-0.4-0.1C10.1,10,9.7,9.7,9.7,8.9s0.4-1.1,0.8-1.3c0.4-0.2,0.9-0.2,0.9-0.2h2.7
	c0.1,0.2,0.4,0.4,0.7,0.4c0.4,0,0.8-0.3,0.8-0.7C15.5,6.7,15.2,6.4,14.7,6.4z"/>
</svg>
