<?xml version="1.0" encoding="utf-8"?>
<!-- Generator: Adobe Illustrator 16.0.0, SVG Export Plug-In . SVG Version: 6.00 Build 0)  -->
<!DOCTYPE svg PUBLIC "-//W3C//DTD SVG 1.1//EN" "http://www.w3.org/Graphics/SVG/1.1/DTD/svg11.dtd">
<svg version="1.1" id="图层_1" xmlns="http://www.w3.org/2000/svg" xmlns:xlink="http://www.w3.org/1999/xlink" x="0px" y="0px"
	 width="24px" height="24px" viewBox="0 0 24 24" enable-background="new 0 0 24 24" xml:space="preserve">
<polygon fill="#E65100" points="3.634,23 3.634,1 20.366,1 20.366,16.806 14.112,23 "/>
<g>
	<g>
		<g>
			
				<linearGradient id="SVGID_1_" gradientUnits="userSpaceOnUse" x1="53.6006" y1="-162.3999" x2="53.6006" y2="-141.4004" gradientTransform="matrix(1 0 0 -1 -41.6001 -139.9004)">
				<stop  offset="0" style="stop-color:#EE6F0B"/>
				<stop  offset="1" style="stop-color:#FFB74D"/>
			</linearGradient>
			<polygon fill="url(#SVGID_1_)" points="4.133,22.5 4.133,1.5 19.867,1.5 19.867,16.594 13.961,22.5 			"/>
		</g>
		<polygon fill="#E65100" fill-opacity="0.3922" points="19.867,16.594 19.867,16.34 13.637,16.34 13.637,22.5 13.961,22.5 		"/>
		<path fill="#FFFFFF" fill-opacity="0.3922" d="M13.951,16.594l5.916,0.008L13.961,22.5L13.951,16.594z"/>
	</g>
	<g opacity="0.8">
		<rect x="6.181" y="7.144" fill="#FFFFFF" width="1.681" height="8.418"/>
		<rect x="8.981" y="11.344" fill="#FFFFFF" width="1.68" height="4.208"/>
		<rect x="11.773" y="13.059" fill="#FFFFFF" width="1.68" height="2.521"/>
		<g>
			<path fill="#FFFFFF" d="M14.057,5.656l0.018,3.351l3.351-0.018c0.01,1.855-1.487,3.361-3.343,3.369
				c-1.854,0.009-3.359-1.488-3.368-3.342C10.705,7.17,12.201,5.665,14.057,5.656z"/>
			<path fill="#FFFFFF" d="M14.45,5.271c1.855-0.008,3.36,1.488,3.368,3.343l-3.351,0.018L14.45,5.271z"/>
		</g>
	</g>
</g>
</svg>
