<?xml version="1.0" encoding="utf-8"?>
<!-- Generator: Adobe Illustrator 16.0.0, SVG Export Plug-In . SVG Version: 6.00 Build 0)  -->
<!DOCTYPE svg PUBLIC "-//W3C//DTD SVG 1.1//EN" "http://www.w3.org/Graphics/SVG/1.1/DTD/svg11.dtd">
<svg version="1.1" id="图层_1" xmlns="http://www.w3.org/2000/svg" xmlns:xlink="http://www.w3.org/1999/xlink" x="0px" y="0px"
	 width="24px" height="24px" viewBox="0 0 24 24" enable-background="new 0 0 24 24" xml:space="preserve">
<polygon fill="#01579B" points="3.634,23 3.634,1 20.366,1 20.366,16.807 14.111,23 "/>
<g>
	<g>
		<g>
			<g>
				
					<linearGradient id="SVGID_1_" gradientUnits="userSpaceOnUse" x1="95.1992" y1="-581.3003" x2="95.1992" y2="-560.3008" gradientTransform="matrix(1 0 0 -1 -83.2002 -558.8008)">
					<stop  offset="0" style="stop-color:#2196F3"/>
					<stop  offset="0.5828" style="stop-color:#3DBAE8"/>
					<stop  offset="1" style="stop-color:#4DD0E1"/>
				</linearGradient>
				<polygon fill="url(#SVGID_1_)" points="4.132,22.5 4.132,1.5 19.865,1.5 19.865,16.594 13.96,22.5 				"/>
			</g>
			<polygon fill="#01579B" fill-opacity="0.39" points="19.865,16.594 19.865,16.34 13.636,16.34 13.636,22.5 13.96,22.5 			"/>
			<path fill="#FFFFFF" fill-opacity="0.3922" d="M13.951,16.594l5.916,0.008L13.96,22.5L13.951,16.594z"/>
		</g>
		<g>
			<circle opacity="0.8" fill="#FFFFFF" enable-background="new    " cx="14.791" cy="9.944" r="1.112"/>
			<path opacity="0.8" fill="#FFFFFF" enable-background="new    " d="M6.531,7.625V14.8h10.938V7.625H6.531z M16.681,8.413v5.6l0,0
				l-2.538-1.802l-1.813,1.11l-2.326-2.808l-2.687,3.5v-5.6H16.681z"/>
		</g>
	</g>
	<g>
		<rect x="4.129" y="1.5" opacity="0.8" fill="#FFFFFF" enable-background="new    " width="15.742" height="4.025"/>
		<g enable-background="new    ">
			<path fill="#0288D1" d="M8.19,1.921h0.742v3.137H8.19V1.921z"/>
			<path fill="#0288D1" d="M11.201,5.122c-0.537,0-0.946-0.142-1.228-0.426C9.691,4.412,9.553,4.009,9.553,3.487
				c0-0.259,0.042-0.491,0.128-0.695c0.085-0.204,0.202-0.376,0.353-0.516c0.149-0.14,0.327-0.247,0.533-0.319
				c0.207-0.073,0.431-0.109,0.673-0.109c0.14,0,0.266,0.01,0.38,0.029c0.115,0.02,0.215,0.042,0.301,0.068
				c0.085,0.025,0.157,0.052,0.214,0.08c0.058,0.026,0.099,0.048,0.124,0.063l-0.215,0.571c-0.101-0.051-0.219-0.095-0.355-0.131
				c-0.134-0.037-0.287-0.055-0.459-0.055c-0.113,0-0.226,0.018-0.335,0.055c-0.11,0.036-0.206,0.094-0.291,0.173
				c-0.085,0.08-0.152,0.184-0.202,0.311c-0.051,0.126-0.077,0.281-0.077,0.461c0,0.145,0.017,0.28,0.051,0.405
				s0.088,0.233,0.163,0.324c0.073,0.09,0.172,0.162,0.292,0.214s0.267,0.08,0.438,0.08c0.109,0,0.205-0.006,0.291-0.019
				c0.087-0.012,0.163-0.026,0.229-0.042c0.067-0.017,0.126-0.036,0.177-0.057c0.051-0.021,0.097-0.041,0.138-0.059l0.205,0.565
				C12.202,4.947,12.055,5,11.863,5.049C11.672,5.097,11.451,5.122,11.201,5.122z"/>
			<path fill="#0288D1" d="M15.808,3.487c0,0.269-0.041,0.505-0.125,0.709c-0.085,0.204-0.2,0.374-0.345,0.511
				c-0.147,0.137-0.32,0.241-0.522,0.31c-0.202,0.07-0.418,0.104-0.65,0.104c-0.228,0-0.438-0.035-0.641-0.104
				c-0.199-0.069-0.374-0.172-0.521-0.31C12.853,4.57,12.734,4.4,12.65,4.196c-0.088-0.204-0.13-0.44-0.13-0.709
				s0.045-0.504,0.134-0.708c0.089-0.204,0.209-0.375,0.359-0.514s0.325-0.243,0.524-0.312c0.197-0.07,0.408-0.104,0.627-0.104
				c0.224,0,0.438,0.035,0.637,0.104c0.202,0.069,0.375,0.173,0.525,0.312s0.268,0.31,0.353,0.514
				C15.765,2.983,15.808,3.219,15.808,3.487z M13.287,3.487c0,0.154,0.021,0.293,0.06,0.416c0.041,0.125,0.096,0.23,0.173,0.319
				c0.073,0.09,0.164,0.158,0.273,0.207c0.106,0.048,0.232,0.072,0.372,0.072c0.137,0,0.26-0.024,0.369-0.072
				c0.109-0.048,0.202-0.117,0.275-0.207c0.074-0.089,0.132-0.195,0.173-0.319c0.038-0.123,0.06-0.262,0.06-0.416
				s-0.021-0.293-0.06-0.418c-0.041-0.125-0.099-0.232-0.173-0.321c-0.073-0.089-0.166-0.158-0.275-0.207
				c-0.109-0.048-0.232-0.072-0.369-0.072c-0.14,0-0.266,0.025-0.372,0.075c-0.109,0.05-0.2,0.119-0.273,0.208
				c-0.077,0.09-0.132,0.196-0.173,0.321C13.309,3.199,13.287,3.337,13.287,3.487z"/>
		</g>
	</g>
</g>
</svg>
