<?xml version="1.0" encoding="utf-8"?>
<!-- Generator: Adobe Illustrator 21.0.0, SVG Export Plug-In . SVG Version: 6.00 Build 0)  -->
<svg version="1.1" id="图层_1" xmlns="http://www.w3.org/2000/svg" xmlns:xlink="http://www.w3.org/1999/xlink" x="0px" y="0px"
	 viewBox="0 0 24 24" style="enable-background:new 0 0 24 24;" xml:space="preserve">
<style type="text/css">
	.st0{fill:#292676;}
	.st1{fill:url(#SVGID_1_);}
	.st2{fill:#563E8D;fill-opacity:0.39;}
	.st3{fill:#FFFFFF;fill-opacity:0.39;}
	.st4{opacity:0.8;}
	.st5{fill:#FFFFFF;}
	.st6{opacity:0.8;fill:#FFFFFF;enable-background:new    ;}
</style>
<title>application-audio-playlist</title>
<path class="st0" d="M20,2v14l-6,6H4V2H20 M21,1H3v22h11l7-7V1z"/>
<linearGradient id="SVGID_1_" gradientUnits="userSpaceOnUse" x1="12" y1="-718" x2="12" y2="-738" gradientTransform="matrix(1 0 0 -1 0 -716)">
	<stop  offset="0" style="stop-color:#9D639F"/>
	<stop  offset="0.18" style="stop-color:#99619E"/>
	<stop  offset="0.38" style="stop-color:#8F5B9B"/>
	<stop  offset="0.59" style="stop-color:#7C4F95"/>
	<stop  offset="0.8" style="stop-color:#654290"/>
	<stop  offset="0.99" style="stop-color:#483489"/>
	<stop  offset="1" style="stop-color:#463488"/>
</linearGradient>
<polygon class="st1" points="4,22 4,2 20,2 20,16 14,22 "/>
<polygon class="st2" points="20,16 20,15 13,15 13,22 14,22 "/>
<path class="st3" d="M14,16h6l-6,6V16z"/>
<g class="st4">
	<rect x="11" y="6" class="st5" width="7" height="1"/>
	<rect x="11" y="8" class="st5" width="7" height="1"/>
	<rect x="11" y="10" class="st5" width="7" height="1"/>
	<rect x="11" y="12" class="st5" width="7" height="1"/>
	<rect x="11" y="14" class="st5" width="7" height="1"/>
</g>
<path class="st6" d="M9.6,8.8L8.4,8.5V6.9L10,7.3V6.1L7.6,5.5v1.2l0,0V13c-0.1,0-0.3-0.1-0.4,0c-0.6-0.1-1.1,0.4-1.2,1
	c0.1,0.6,0.6,1.1,1.2,1c0.6,0.1,1.1-0.4,1.2-1l0,0V9.4l1.2,0.3C9.6,9.7,9.6,8.8,9.6,8.8z"/>
</svg>
