<?xml version="1.0" encoding="utf-8"?>
<!-- Generator: Adobe Illustrator 21.0.0, SVG Export Plug-In . SVG Version: 6.00 Build 0)  -->
<svg version="1.1" id="图层_1" xmlns="http://www.w3.org/2000/svg" xmlns:xlink="http://www.w3.org/1999/xlink" x="0px" y="0px"
	 viewBox="0 0 24 24" style="enable-background:new 0 0 24 24;" xml:space="preserve">
<style type="text/css">
	.st0{fill:#455A64;}
	.st1{fill:url(#SVGID_1_);}
	.st2{opacity:0.8;fill:#FFFFFF;enable-background:new    ;}
</style>
<title>application-executable</title>
<rect x="1" y="1" class="st0" width="22" height="22"/>
<linearGradient id="SVGID_1_" gradientUnits="userSpaceOnUse" x1="53.6" y1="1699.9" x2="53.6" y2="1719.9" gradientTransform="matrix(1 0 0 1 -41.6 -1697.9)">
	<stop  offset="0" style="stop-color:#90A4AE"/>
	<stop  offset="0.14" style="stop-color:#849AA5"/>
	<stop  offset="0.42" style="stop-color:#708A97"/>
	<stop  offset="0.71" style="stop-color:#64808E"/>
	<stop  offset="1" style="stop-color:#607D8B"/>
</linearGradient>
<rect x="2" y="2" class="st1" width="20" height="20"/>
<path class="st2" d="M17.8,15.1l0.1-0.1c0-0.1,0.1-0.1,0.1-0.2l0,0c0.2-0.4,0.3-0.8,0.4-1.2H20v-3.2h-1.6c-0.2-0.6-0.4-1.3-0.8-1.8
	l1.1-1.1l-2.2-2.2l-1.1,1.1c-0.6-0.4-1.2-0.6-1.9-0.8l0,0V4h-3.2v1.6l0,0C9.8,5.7,9.1,6,8.5,6.3l-1.1-1L5.2,7.5l1.1,1.1
	C6,9.2,5.7,9.8,5.6,10.4H4v3.2h1.6c0.2,0.7,0.4,1.3,0.8,1.9l0,0l-1.1,1.1l2.2,2.2l1.1-1.1c0.6,0.3,1.2,0.6,1.9,0.8V20h3.2v-1.6l0,0
	c0.7-0.2,1.3-0.4,1.9-0.8l1.1,1.1l2.2-2.2l-1.1-1.1l0,0l0.1-0.2C17.8,15.2,17.8,15.2,17.8,15.1z M12,17c-2.8-0.1-4.9-2.4-4.8-5.2
	S9.6,6.9,12.4,7c0.4,0,0.8,0.1,1.2,0.2l0,0c2,0.7,3.4,2.6,3.4,4.8c0,0.1,0,0.3,0,0.4l0,0c0,0.4-0.1,0.8-0.2,1.2l0,0
	c-0.1,0.2-0.2,0.5-0.3,0.7l0,0l-0.2,0.3l0,0l-0.2,0.3l0,0C16,15,16,15.1,15.9,15.2l0,0c-0.2,0.2-0.3,0.3-0.5,0.5l0,0l-0.3,0.2l0,0
	l-0.3,0.2l0,0c-0.1,0.1-0.2,0.1-0.3,0.2h-0.1l-0.3,0.1l0,0l-0.3,0.1C13.3,16.8,12.6,17,12,17z"/>
</svg>
