<?xml version="1.0" encoding="utf-8"?>
<!-- Generator: Adobe Illustrator 16.0.0, SVG Export Plug-In . SVG Version: 6.00 Build 0)  -->
<!DOCTYPE svg PUBLIC "-//W3C//DTD SVG 1.1//EN" "http://www.w3.org/Graphics/SVG/1.1/DTD/svg11.dtd">
<svg version="1.1" id="图层_1" xmlns="http://www.w3.org/2000/svg" xmlns:xlink="http://www.w3.org/1999/xlink" x="0px" y="0px"
	 width="24px" height="24px" viewBox="0 0 24 24" enable-background="new 0 0 24 24" xml:space="preserve">
<polygon fill="#01579B" points="3.634,23 3.634,1 20.366,1 20.366,16.807 14.111,23 "/>
<g>
	<g>
		<g>
			<g>
				
					<linearGradient id="SVGID_1_" gradientUnits="userSpaceOnUse" x1="95.1992" y1="-581.3003" x2="95.1992" y2="-560.3008" gradientTransform="matrix(1 0 0 -1 -83.2002 -558.8008)">
					<stop  offset="0" style="stop-color:#2196F3"/>
					<stop  offset="0.5828" style="stop-color:#3DBAE8"/>
					<stop  offset="1" style="stop-color:#4DD0E1"/>
				</linearGradient>
				<polygon fill="url(#SVGID_1_)" points="4.132,22.5 4.132,1.5 19.865,1.5 19.865,16.594 13.96,22.5 				"/>
			</g>
			<polygon fill="#01579B" fill-opacity="0.39" points="19.865,16.594 19.865,16.34 13.636,16.34 13.636,22.5 13.96,22.5 			"/>
			<path fill="#FFFFFF" fill-opacity="0.3922" d="M13.951,16.594l5.916,0.008L13.96,22.5L13.951,16.594z"/>
		</g>
		<g>
			<circle opacity="0.8" fill="#FFFFFF" enable-background="new    " cx="14.791" cy="9.944" r="1.112"/>
			<path opacity="0.8" fill="#FFFFFF" enable-background="new    " d="M6.531,7.625V14.8h10.938V7.625H6.531z M16.681,8.413v5.6l0,0
				l-2.538-1.802l-1.813,1.11l-2.326-2.808l-2.687,3.5v-5.6H16.681z"/>
		</g>
	</g>
	<g>
		<rect x="4.129" y="1.5" opacity="0.8" fill="#FFFFFF" enable-background="new    " width="15.742" height="4.025"/>
		<g enable-background="new    ">
			<path fill="#0288D1" d="M10.151,2.464c-0.346,0-0.597,0.091-0.751,0.273c-0.154,0.184-0.23,0.433-0.23,0.75
				c0,0.154,0.019,0.294,0.057,0.419c0.039,0.125,0.096,0.233,0.171,0.323C9.475,4.32,9.57,4.39,9.684,4.44
				c0.115,0.05,0.249,0.075,0.4,0.075c0.084,0,0.153-0.001,0.214-0.004c0.057-0.003,0.109-0.009,0.154-0.019V3.401h0.742v1.553
				c-0.088,0.033-0.231,0.068-0.428,0.106c-0.198,0.038-0.44,0.057-0.73,0.057c-0.247,0-0.472-0.036-0.674-0.108
				C9.161,4.936,8.989,4.831,8.846,4.692C8.703,4.553,8.593,4.382,8.515,4.18C8.437,3.978,8.397,3.747,8.397,3.487
				c0-0.263,0.043-0.495,0.13-0.697c0.084-0.202,0.202-0.374,0.351-0.514c0.15-0.14,0.326-0.247,0.528-0.319
				c0.201-0.073,0.415-0.109,0.646-0.109c0.155,0,0.295,0.01,0.421,0.029c0.126,0.02,0.233,0.042,0.325,0.068
				c0.09,0.025,0.164,0.052,0.223,0.08c0.059,0.026,0.102,0.048,0.127,0.063l-0.216,0.566c-0.101-0.051-0.217-0.096-0.35-0.133
				C10.45,2.483,10.307,2.464,10.151,2.464z"/>
			<path fill="#0288D1" d="M11.886,1.921h0.744v3.137h-0.744V1.921z"/>
			<path fill="#0288D1" d="M13.391,5.058V1.921h2.212v0.594h-1.468v0.656h1.307v0.592h-1.307v1.295H13.391z"/>
		</g>
	</g>
</g>
</svg>
