<?xml version="1.0" encoding="utf-8"?>
<!-- Generator: Adobe Illustrator 16.0.0, SVG Export Plug-In . SVG Version: 6.00 Build 0)  -->
<!DOCTYPE svg PUBLIC "-//W3C//DTD SVG 1.1//EN" "http://www.w3.org/Graphics/SVG/1.1/DTD/svg11.dtd">
<svg version="1.1" id="图层_1" xmlns="http://www.w3.org/2000/svg" xmlns:xlink="http://www.w3.org/1999/xlink" x="0px" y="0px"
	 width="24px" height="24px" viewBox="0 0 24 24" enable-background="new 0 0 24 24" xml:space="preserve">
<polygon fill="#01579B" points="3.634,23 3.634,1 20.366,1 20.366,16.807 14.111,23 "/>
<g>
	<g>
		<g>
			<g>
				
					<linearGradient id="SVGID_1_" gradientUnits="userSpaceOnUse" x1="95.1992" y1="-581.3003" x2="95.1992" y2="-560.3008" gradientTransform="matrix(1 0 0 -1 -83.2002 -558.8008)">
					<stop  offset="0" style="stop-color:#2196F3"/>
					<stop  offset="0.5828" style="stop-color:#3DBAE8"/>
					<stop  offset="1" style="stop-color:#4DD0E1"/>
				</linearGradient>
				<polygon fill="url(#SVGID_1_)" points="4.132,22.5 4.132,1.5 19.865,1.5 19.865,16.594 13.96,22.5 				"/>
			</g>
			<polygon fill="#01579B" fill-opacity="0.39" points="19.865,16.594 19.865,16.34 13.636,16.34 13.636,22.5 13.96,22.5 			"/>
			<path fill="#FFFFFF" fill-opacity="0.3922" d="M13.951,16.594l5.916,0.008L13.96,22.5L13.951,16.594z"/>
		</g>
		<g>
			<circle opacity="0.8" fill="#FFFFFF" enable-background="new    " cx="14.79" cy="9.944" r="1.112"/>
			<path opacity="0.8" fill="#FFFFFF" enable-background="new    " d="M6.531,7.625V14.8h10.938V7.625H6.531z M16.68,8.413v5.6l0,0
				l-2.537-1.802l-1.813,1.11l-2.326-2.808l-2.687,3.5v-5.6H16.68z"/>
		</g>
	</g>
	<g>
		<rect x="4.129" y="1.5" opacity="0.8" fill="#FFFFFF" enable-background="new    " width="15.742" height="4.025"/>
		<g enable-background="new    ">
			<path fill="#0288D1" d="M8.695,1.885c0.493,0,0.87,0.083,1.134,0.247c0.264,0.165,0.396,0.434,0.396,0.808
				c0,0.377-0.133,0.649-0.4,0.817C9.558,3.924,9.177,4.008,8.681,4.008H8.447v1.05H7.705V1.966c0.161-0.03,0.332-0.051,0.514-0.063
				C8.399,1.891,8.559,1.885,8.695,1.885z M8.743,2.487c-0.054,0-0.107,0.001-0.159,0.004C8.531,2.495,8.486,2.498,8.447,2.501
				v0.905h0.233c0.258,0,0.451-0.033,0.582-0.1c0.13-0.066,0.195-0.19,0.195-0.371c0-0.088-0.017-0.16-0.051-0.217
				C9.375,2.661,9.327,2.614,9.265,2.58C9.203,2.545,9.127,2.521,9.038,2.508S8.851,2.487,8.743,2.487z"/>
			<path fill="#0288D1" d="M11.674,4.52c0.104,0,0.191-0.008,0.26-0.025c0.068-0.017,0.123-0.04,0.164-0.068
				c0.041-0.028,0.068-0.062,0.085-0.102c0.017-0.039,0.024-0.083,0.024-0.131c0-0.103-0.052-0.188-0.152-0.256
				c-0.102-0.067-0.276-0.141-0.524-0.219c-0.107-0.036-0.216-0.078-0.323-0.125c-0.108-0.046-0.205-0.106-0.291-0.176
				c-0.086-0.071-0.155-0.157-0.21-0.258c-0.054-0.101-0.08-0.224-0.08-0.369c0-0.145,0.027-0.275,0.085-0.392
				s0.139-0.215,0.243-0.297c0.104-0.081,0.232-0.144,0.381-0.188c0.149-0.043,0.317-0.065,0.506-0.065
				c0.222,0,0.413,0.022,0.576,0.068c0.162,0.045,0.296,0.095,0.399,0.149l-0.214,0.557c-0.092-0.046-0.195-0.085-0.308-0.12
				c-0.112-0.035-0.249-0.052-0.407-0.052c-0.178,0-0.307,0.023-0.383,0.071c-0.078,0.046-0.118,0.118-0.118,0.214
				c0,0.058,0.016,0.106,0.044,0.145c0.027,0.039,0.068,0.075,0.12,0.106c0.054,0.032,0.114,0.061,0.183,0.085
				c0.068,0.026,0.144,0.053,0.226,0.08c0.172,0.061,0.321,0.12,0.448,0.179c0.127,0.059,0.232,0.127,0.316,0.206
				c0.085,0.079,0.147,0.171,0.188,0.276c0.041,0.106,0.063,0.233,0.063,0.385c0,0.292-0.109,0.52-0.325,0.681
				c-0.216,0.162-0.541,0.243-0.977,0.243c-0.147,0-0.278-0.009-0.396-0.025C11.16,5.08,11.057,5.06,10.966,5.036
				s-0.168-0.05-0.233-0.077c-0.065-0.027-0.12-0.053-0.164-0.077l0.21-0.562c0.099,0.051,0.219,0.097,0.364,0.138
				C11.287,4.499,11.464,4.52,11.674,4.52z"/>
			<path fill="#0288D1" d="M16.437,3.487c0,0.272-0.044,0.508-0.134,0.711c-0.088,0.202-0.214,0.37-0.378,0.502
				C15.761,4.833,15.562,4.933,15.326,5c-0.235,0.066-0.497,0.1-0.79,0.1c-0.134,0-0.289-0.005-0.467-0.017
				c-0.178-0.01-0.354-0.032-0.522-0.065V1.962c0.169-0.03,0.35-0.05,0.536-0.062c0.186-0.01,0.344-0.016,0.478-0.016
				c0.282,0,0.539,0.03,0.769,0.091s0.43,0.155,0.594,0.285s0.292,0.296,0.38,0.498C16.393,2.961,16.437,3.204,16.437,3.487z
				 M14.288,4.483c0.035,0.003,0.076,0.005,0.123,0.007c0.046,0.001,0.101,0.002,0.163,0.002c0.372,0,0.648-0.089,0.826-0.267
				c0.181-0.179,0.271-0.425,0.271-0.738c0-0.329-0.088-0.578-0.257-0.747c-0.173-0.169-0.443-0.253-0.815-0.253
				c-0.052,0-0.104,0-0.158,0.002c-0.055,0.002-0.104,0.005-0.152,0.012V4.483z"/>
		</g>
	</g>
</g>
</svg>
