<?xml version="1.0" encoding="utf-8"?>
<!-- Generator: Adobe Illustrator 21.0.0, SVG Export Plug-In . SVG Version: 6.00 Build 0)  -->
<svg version="1.1" id="图层_1" xmlns="http://www.w3.org/2000/svg" xmlns:xlink="http://www.w3.org/1999/xlink" x="0px" y="0px"
	 viewBox="0 0 24 24" style="enable-background:new 0 0 24 24;" xml:space="preserve">
<style type="text/css">
	.st0{fill:#292676;}
	.st1{fill:url(#SVGID_1_);}
	.st2{fill:#563E8D;fill-opacity:0.39;}
	.st3{fill:#FFFFFF;fill-opacity:0.39;}
	.st4{opacity:0.8;fill:#FFFFFF;enable-background:new    ;}
</style>
<title>application-audio</title>
<path class="st0" d="M20,2v14l-6,6H4V2H20 M21,1H3v22h11l7-7V1z"/>
<linearGradient id="SVGID_1_" gradientUnits="userSpaceOnUse" x1="12" y1="-718" x2="12" y2="-738" gradientTransform="matrix(1 0 0 -1 0 -716)">
	<stop  offset="0" style="stop-color:#9D639F"/>
	<stop  offset="0.18" style="stop-color:#99619E"/>
	<stop  offset="0.38" style="stop-color:#8F5B9B"/>
	<stop  offset="0.59" style="stop-color:#7C4F95"/>
	<stop  offset="0.8" style="stop-color:#654290"/>
	<stop  offset="0.99" style="stop-color:#483489"/>
	<stop  offset="1" style="stop-color:#463488"/>
</linearGradient>
<polygon class="st1" points="4,22 4,2 20,2 20,16 14,22 "/>
<polygon class="st2" points="20,16 20,15 13,15 13,22 14,22 "/>
<path class="st3" d="M14,16h6l-6,6V16z"/>
<path class="st4" d="M8.9,5.5L8.9,5.5v3l0,0v1l0,0v4.4c-0.2,0-0.3-0.1-0.5-0.1c-0.7-0.1-1.3,0.4-1.4,1.1C7.1,15.6,7.7,16,8.4,16
	c0.7,0.1,1.3-0.4,1.4-1.1l0,0V9.3l5.3-1.1v4.2c-0.2,0-0.3-0.1-0.5-0.1c-0.7-0.1-1.3,0.4-1.4,1.1c0.1,0.7,0.7,1.1,1.4,1.1
	c0.7,0.1,1.3-0.4,1.4-1.1l0,0V4L8.9,5.5z M15.1,7.2L9.8,8.4V6.7l5.3-1.1V7.2z"/>
</svg>
