<?xml version="1.0" encoding="utf-8"?>
<!-- Generator: Adobe Illustrator 16.0.0, SVG Export Plug-In . SVG Version: 6.00 Build 0)  -->
<!DOCTYPE svg PUBLIC "-//W3C//DTD SVG 1.1//EN" "http://www.w3.org/Graphics/SVG/1.1/DTD/svg11.dtd">
<svg version="1.1" id="图层_1" xmlns="http://www.w3.org/2000/svg" xmlns:xlink="http://www.w3.org/1999/xlink" x="0px" y="0px"
	 width="24px" height="24px" viewBox="0 0 24 24" enable-background="new 0 0 24 24" xml:space="preserve">
<g>
	<g>
		<linearGradient id="SVGID_1_" gradientUnits="userSpaceOnUse" x1="11.9995" y1="1.25" x2="11.9995" y2="22.7505">
			<stop  offset="0" style="stop-color:#785548"/>
			<stop  offset="1" style="stop-color:#9F9E9F"/>
		</linearGradient>
		<polygon fill="url(#SVGID_1_)" points="3.884,22.75 3.884,1.25 20.115,1.25 20.115,16.697 14.063,22.75 		"/>
		<path fill="#40220F" d="M19.865,1.5v15.094L13.96,22.5H4.134v-21H19.865 M20.365,1h-0.5H4.134h-0.5v0.5v21V23h0.5h9.826h0.207
			l0.146-0.146l5.905-5.906l0.146-0.146v-0.207V1.5V1L20.365,1z"/>
	</g>
</g>
<polygon fill="#5D4037" fill-opacity="0.3922" points="19.865,16.594 19.865,16.339 13.637,16.339 13.637,22.5 13.96,22.5 "/>
<path fill="#FFFFFF" fill-opacity="0.3922" d="M13.951,16.594l5.914,0.01L13.96,22.5L13.951,16.594z"/>
<g opacity="0.8">
	<path fill="#FFFFFF" d="M9.623,11.042V1.5H9.069v9.542H8.648V1.5H8.094v9.542h-0.42V1.5H7.12v9.542H6.7V1.5H6.146v9.542H6v3.019
		h3.813v-3.019H9.623z M9.259,13.182H6.553v-1.749h2.706V13.182L9.259,13.182z"/>
	<rect x="7.069" y="11.627" fill="#FFFFFF" width="1.676" height="1.06"/>
</g>
</svg>
