<?xml version="1.0" encoding="utf-8"?>
<!-- Generator: Adobe Illustrator 16.0.0, SVG Export Plug-In . SVG Version: 6.00 Build 0)  -->
<!DOCTYPE svg PUBLIC "-//W3C//DTD SVG 1.1//EN" "http://www.w3.org/Graphics/SVG/1.1/DTD/svg11.dtd">
<svg version="1.1" id="图层_1" xmlns="http://www.w3.org/2000/svg" xmlns:xlink="http://www.w3.org/1999/xlink" x="0px" y="0px"
	 width="24px" height="24px" viewBox="0 0 24 24" enable-background="new 0 0 24 24" xml:space="preserve">
<polygon fill="#607D8B" points="3.634,23 3.634,1 20.366,1 20.366,16.806 14.112,23 "/>
<g>
	<g>
		<g>
			
				<linearGradient id="SVGID_1_" gradientUnits="userSpaceOnUse" x1="53.5996" y1="-395.4004" x2="53.5996" y2="-416.4009" gradientTransform="matrix(1 0 0 -1 -41.6001 -393.9004)">
				<stop  offset="0" style="stop-color:#F5F5F5"/>
				<stop  offset="0.341" style="stop-color:#F1F2F3"/>
				<stop  offset="0.6434" style="stop-color:#E7EAEC"/>
				<stop  offset="0.9302" style="stop-color:#D5DCE0"/>
				<stop  offset="1" style="stop-color:#CFD8DC"/>
			</linearGradient>
			<polygon fill="url(#SVGID_1_)" points="4.133,22.5 4.133,1.5 19.867,1.5 19.867,16.594 13.961,22.5 			"/>
		</g>
		<polygon fill="#455A64" fill-opacity="0.7" points="19.867,16.594 19.867,16.34 13.637,16.34 13.637,22.5 13.961,22.5 		"/>
		<path fill="#90A4AE" d="M13.951,16.594l5.916,0.008L13.961,22.5L13.951,16.594z"/>
	</g>
	<g opacity="0.8" enable-background="new    ">
		<rect x="6.217" y="4.511" fill="#607D8B" width="11.638" height="1.241"/>
		<rect x="6.217" y="7.861" fill="#607D8B" width="11.638" height="0.577"/>
		<rect x="6.217" y="9.673" fill="#607D8B" width="11.638" height="0.577"/>
		<rect x="6.217" y="11.492" fill="#607D8B" width="11.638" height="0.578"/>
		<rect x="6.217" y="13.305" fill="#607D8B" width="11.638" height="0.576"/>
		<rect x="6.217" y="15.124" fill="#607D8B" width="7.192" height="0.577"/>
	</g>
</g>
</svg>
