<?xml version="1.0" encoding="utf-8"?>
<!-- Generator: Adobe Illustrator 16.0.0, SVG Export Plug-In . SVG Version: 6.00 Build 0)  -->
<!DOCTYPE svg PUBLIC "-//W3C//DTD SVG 1.1//EN" "http://www.w3.org/Graphics/SVG/1.1/DTD/svg11.dtd">
<svg version="1.1" id="图层_1" xmlns="http://www.w3.org/2000/svg" xmlns:xlink="http://www.w3.org/1999/xlink" x="0px" y="0px"
	 width="24px" height="24px" viewBox="0 0 24 24" enable-background="new 0 0 24 24" xml:space="preserve">
<polygon fill="#3E2723" points="3.634,23 3.634,1 20.366,1 20.366,16.807 14.111,23 "/>
<g>
	<g>
		
			<linearGradient id="SVGID_1_" gradientUnits="userSpaceOnUse" x1="53.5996" y1="-141.4004" x2="53.5996" y2="-162.4009" gradientTransform="matrix(1 0 0 -1 -41.6001 -139.9004)">
			<stop  offset="0" style="stop-color:#785548"/>
			<stop  offset="1" style="stop-color:#9F9E9F"/>
		</linearGradient>
		<polygon fill="url(#SVGID_1_)" points="4.133,22.5 4.133,1.5 19.867,1.5 19.867,16.586 14.019,22.5 		"/>
		<polygon fill="#795548" fill-opacity="0.7" points="19.867,16.594 19.867,16.34 13.638,16.34 13.638,22.5 13.961,22.5 		"/>
		<path opacity="0.39" fill="#FFFFFF" enable-background="new    " d="M13.952,16.594l5.915,0.008L13.961,22.5L13.952,16.594z"/>
	</g>
	<path fill="#FFFFFF" d="M9.755,5.548H9.223v6.819H8.819V5.548H8.291v6.819H7.889V5.548h-0.53v6.819H6.955V5.548h-0.53v6.819H6.286
		v2.889h3.65v-2.889H9.755V5.548z M9.405,14.417h-2.59v-1.675h2.59V14.417z"/>
	<g>
		<rect x="4.13" y="1.5" opacity="0.8" fill="#FFFFFF" enable-background="new    " width="15.74" height="4.025"/>
		<g enable-background="new    ">
			<path fill="#5D4037" d="M8.543,2.488c-0.346,0-0.597,0.091-0.751,0.273c-0.154,0.183-0.23,0.433-0.23,0.749
				c0,0.154,0.019,0.294,0.057,0.419c0.039,0.125,0.096,0.233,0.171,0.323c0.077,0.091,0.173,0.161,0.286,0.21
				c0.115,0.05,0.249,0.075,0.4,0.075c0.084,0,0.153-0.001,0.212-0.004C8.746,4.53,8.799,4.525,8.844,4.515V3.424h0.742v1.553
				C9.497,5.01,9.354,5.046,9.158,5.083C8.96,5.121,8.718,5.14,8.428,5.14c-0.247,0-0.472-0.036-0.674-0.109
				C7.553,4.959,7.381,4.854,7.237,4.715c-0.143-0.139-0.253-0.31-0.331-0.512C6.828,4.001,6.789,3.77,6.789,3.51
				c0-0.262,0.043-0.495,0.13-0.696C7.003,2.611,7.121,2.44,7.27,2.3C7.42,2.16,7.596,2.053,7.798,1.98
				c0.201-0.072,0.415-0.108,0.646-0.108c0.155,0,0.295,0.01,0.421,0.029C8.99,1.921,9.098,1.944,9.188,1.97
				c0.09,0.025,0.165,0.052,0.224,0.079c0.059,0.027,0.102,0.048,0.126,0.063L9.323,2.678c-0.101-0.051-0.217-0.096-0.35-0.133
				C8.842,2.506,8.698,2.488,8.543,2.488z"/>
			<path fill="#5D4037" d="M12.607,2.433c-0.103,0.1-0.223,0.229-0.362,0.388c-0.14,0.158-0.284,0.331-0.435,0.518
				c-0.147,0.187-0.296,0.38-0.443,0.579c-0.145,0.2-0.276,0.39-0.391,0.571h1.684v0.593h-2.597V4.66
				c0.089-0.154,0.196-0.325,0.325-0.513c0.13-0.189,0.264-0.379,0.403-0.571c0.141-0.191,0.283-0.377,0.427-0.557
				c0.145-0.18,0.278-0.34,0.403-0.482H10.14V1.944h2.468V2.433z"/>
			<path fill="#5D4037" d="M13.183,1.944h0.744v3.137h-0.744V1.944z"/>
			<path fill="#5D4037" d="M15.68,1.908c0.493,0,0.87,0.083,1.135,0.247c0.264,0.165,0.396,0.434,0.396,0.808
				c0,0.377-0.135,0.649-0.402,0.817c-0.266,0.167-0.648,0.251-1.143,0.251h-0.232v1.05h-0.744V1.989
				c0.161-0.03,0.334-0.051,0.514-0.063C15.384,1.914,15.543,1.908,15.68,1.908z M15.729,2.51c-0.055,0-0.108,0.001-0.16,0.005
				c-0.053,0.003-0.097,0.005-0.135,0.009v0.905h0.232c0.257,0,0.451-0.033,0.582-0.1c0.129-0.066,0.194-0.19,0.194-0.371
				c0-0.087-0.017-0.159-0.05-0.217c-0.032-0.057-0.082-0.104-0.144-0.138c-0.062-0.035-0.138-0.059-0.226-0.073
				C15.934,2.517,15.835,2.51,15.729,2.51z"/>
		</g>
	</g>
</g>
</svg>
