<?xml version="1.0" encoding="utf-8"?>
<!-- Generator: Adobe Illustrator 16.0.0, SVG Export Plug-In . SVG Version: 6.00 Build 0)  -->
<!DOCTYPE svg PUBLIC "-//W3C//DTD SVG 1.1//EN" "http://www.w3.org/Graphics/SVG/1.1/DTD/svg11.dtd">
<svg version="1.1" id="图层_1" xmlns="http://www.w3.org/2000/svg" xmlns:xlink="http://www.w3.org/1999/xlink" x="0px" y="0px"
	 width="24px" height="24px" viewBox="0 0 24 24" enable-background="new 0 0 24 24" xml:space="preserve">
<polygon fill="#0D47A1" points="3.634,23 3.634,1 20.366,1 20.366,16.807 14.111,23 "/>
<g>
	<g>
		<g>
			<g>
				
					<linearGradient id="SVGID_1_" gradientUnits="userSpaceOnUse" x1="95.2002" y1="847.3008" x2="95.2002" y2="826.3008" gradientTransform="matrix(1 0 0 1 -83.2002 -824.8008)">
					<stop  offset="0" style="stop-color:#1976D2"/>
					<stop  offset="0.0226" style="stop-color:#1C79D3"/>
					<stop  offset="0.2859" style="stop-color:#3B93E2"/>
					<stop  offset="0.5416" style="stop-color:#52A6ED"/>
					<stop  offset="0.7843" style="stop-color:#5FB1F4"/>
					<stop  offset="1" style="stop-color:#64B5F6"/>
				</linearGradient>
				<polygon fill="url(#SVGID_1_)" points="4.133,22.5 4.133,1.5 19.867,1.5 19.867,16.594 13.961,22.5 				"/>
			</g>
			<polygon fill="#0D47A1" fill-opacity="0.39" points="19.867,16.594 19.867,16.34 13.637,16.34 13.637,22.5 13.961,22.5 			"/>
			<path fill="#FFFFFF" fill-opacity="0.45" d="M13.952,16.594l5.916,0.008L13.961,22.5L13.952,16.594z"/>
		</g>
		<g>
			<path fill="#64B5F6" d="M16.888,11.311c0,2.699-2.19,4.889-4.888,4.889s-4.888-2.19-4.888-4.889c0-2.697,2.19-4.887,4.888-4.887
				S16.888,8.614,16.888,11.311z"/>
			<path fill="#FFFFFF" fill-opacity="0.8" d="M8.793,7.629c0,0,0.101,0.054,0.14,0.14c0.031,0.085,0.14,0.085,0.14,0.085H9.23
				l0.229-0.07L9.402,7.909c0,0-1.196,0.555-0.954,0.884C8.691,9.122,8.604,9.207,8.604,9.31c0,0.101,0.071,0.015,0.071,0.015
				l0.07-0.187l0.102-0.14L8.95,8.84l0.032-0.086l0.14-0.241l0.172-0.101L9.45,8.512c0,0,0.07,0.03,0.054,0.085
				C9.489,8.652,9.473,8.753,9.473,8.753s0.032,0.072,0.086,0.072C9.614,8.825,9.7,8.77,9.7,8.77l0.071,0.125l0.055,0.228l0.14,0.14
				l0.072,0.157L9.966,9.56l0.072,0.055l0.156,0.172l0.03,0.085L9.966,9.857c0,0-0.031-0.072-0.085-0.072
				c-0.055,0-0.274-0.016-0.274-0.016L9.48,9.802L9.412,9.887c0,0-0.087,0.141-0.143,0.141c-0.053,0-0.186-0.03-0.186-0.03
				s-0.103-0.033-0.158,0.068c-0.055,0.104,0.085,0.157,0.085,0.157L8.77,10.295l-0.071,0.032c0,0-0.172,0.071-0.172,0.125
				s0,0.055,0,0.055l-0.053,0.14v0.086l-0.126,0.103L8.221,10.92l-0.053,0.103v0.172c0,0-0.017,0.086-0.017,0.141s0,0.188,0,0.188
				s-0.055,0.056-0.086-0.055c-0.032-0.103-0.032-0.103-0.032-0.103L7.979,11.24c0,0,0.055-0.014-0.016-0.07
				c-0.07-0.053-0.141-0.069-0.141-0.069s-0.03-0.03-0.102-0.03c-0.07,0,0.086,0.014-0.07,0c-0.156-0.017-0.156-0.017-0.156-0.017
				l-0.126,0.102v0.084c0,0-0.029,0.611,0.141,0.697h0.072l0.101-0.156l0.087,0.03v0.071l-0.017,0.126v0.071l0.085,0.086
				l0.055,0.157c0.071,0.123,0.032,0.156,0.085,0.186c0.055,0.03,0.103,0.126,0.103,0.126l0.07,0.029c0,0,0.055,0.017,0.101,0.031
				c0.056,0.018,0.056,0.018,0.056,0.018l0.017,0.077l0.017,0.063l0.07,0.084c0,0-0.054,0,0.071,0s0.125,0,0.125,0
				s0,0.033,0.086,0.072c0.085,0.029,0.017,0.018,0.085,0.029c0.071,0.018,0.188,0.031,0.188,0.031
				c0.125-0.015,0.125-0.015,0.125-0.015l0.086,0.126c0,0,0.054,0,0.07,0.053c0.017,0.057-0.084,0,0.017,0.057
				c0.102,0.055,0,0.016,0.102,0.055s-0.033,0.031,0.1,0.031c0.132,0,0.156,0,0.212,0.015c0.055,0.015,0.086,0.143,0.086,0.143
				c0.101,0.124,0.101,0.124,0.101,0.124l0.017,0.156c0,0-0.055,0.031,0.07,0.031c0.126,0,0.032,0,0.126,0
				c0.093,0-0.016-0.031,0.085,0c0.101,0.03,0.101,0.03,0.101,0.03s0.157,0.127,0.212,0.127c0.055,0,0.157-0.018,0.211,0
				c0.055,0.015,0.084,0.1,0.187,0.124c0.103,0.017,0.141,0,0.211,0.055c0.072,0.055,0.072,0.055,0.072,0.055l0.016,0.187
				l-0.056,0.103l-0.14,0.055l-0.017,0.174l-0.072,0.173v0.084c0,0,0.087,0.072-0.07,0.087c-0.155,0.014-0.155,0.014-0.155,0.014
				l-0.071,0.071c0,0,0,0.018-0.031,0.071c-0.03,0.054-0.071,0.143-0.071,0.143l0.017,0.155v0.102l-0.055,0.085
				c0,0-0.048,0.024,0.085,0.11c0.14,0.085,0.25,0.085,0.283,0.138c0.03,0.058,0.118,0.104,0.118,0.104l-0.188-0.04l-0.119-0.039
				l-0.195-0.054l-0.375-0.195c0,0-0.563-0.462-0.736-0.836c0,0-0.147-0.22-0.398-0.313c0,0-0.619-0.564-0.673-0.706l-0.024-0.094
				v-0.047l-0.024-0.024v-0.054L8.19,13.65l0.008-0.174l0.008-0.116l0.008-0.063l-0.008-0.046c0,0-0.032-0.03-0.032-0.038
				c0-0.007-0.023-0.08-0.023-0.08l-0.007-0.021l0.094-0.079l-0.025-0.071l0.016-0.039l0.056-0.039c0,0,0.031-0.046,0.031-0.055
				c0-0.015-0.055-0.055-0.055-0.055l-0.022,0.009l-0.025,0.071h-0.03c0,0-0.031-0.017-0.031-0.025c0-0.008-0.03-0.038-0.03-0.038
				l-0.04-0.017c0,0-0.031-0.008-0.039-0.023c-0.009-0.015-0.048-0.037-0.048-0.047c0-0.008-0.03-0.055-0.03-0.055l-0.04-0.014
				c0,0-0.048-0.071-0.048-0.088c0-0.006-0.024-0.045-0.024-0.045s-0.055-0.063-0.055-0.071c0-0.007-0.024-0.063-0.024-0.063H7.737
				l-0.086-0.033l-0.055-0.068l-0.063-0.071c0,0-0.032-0.056-0.032-0.069c0-0.017-0.023-0.033-0.023-0.033H7.439H7.417l-0.055-0.046
				l-0.14-0.194l-0.025-0.088l-0.022-0.093l-0.017-0.157v-0.103l-0.062-0.726C7.119,10.693,7.331,8.894,8.793,7.629z"/>
			<path fill="#FFFFFF" fill-opacity="0.8" d="M14.316,7.017l0.157,0.126l0.077,0.039l0.054,0.062l0.01,0.063
				c0,0,0.015,0.063,0.008,0.079c-0.008,0.017-0.018,0.101-0.018,0.101s0.071,0.126,0.071,0.142c0,0.015,0.008,0.085-0.007,0.102
				c-0.017,0.007-0.103,0.062-0.111,0.038C14.551,7.745,14.496,7.69,14.48,7.69c-0.017-0.009-0.063-0.055-0.063-0.055l0.126-0.017
				L14.526,7.54c0,0-0.085-0.03-0.109-0.03c-0.023-0.007-0.11-0.053-0.11-0.053l-0.093-0.024c0,0-0.156-0.039-0.173-0.048
				c-0.015-0.007-0.079-0.03-0.079-0.03h-0.131c0,0-0.064,0.03-0.08,0.046c-0.007,0.016-0.086,0.102-0.086,0.102
				s-0.007,0.102-0.007,0.117c0,0.016-0.023,0.056-0.023,0.102c0,0.047-0.009,0.11-0.009,0.126c0,0.017,0,0.039,0,0.039L13.61,7.955
				l-0.055,0.033l-0.069,0.056c0,0-0.062,0.046-0.062,0.062c0,0.017,0,0.079,0.022,0.125c0.022,0.047,0.016,0.092,0.046,0.116
				c0.031,0.024,0.046,0.055,0.071,0.064c0.024,0.007,0.007,0.014,0.046,0.014c0.031,0,0.063,0.01,0.078-0.007
				c0.017-0.007,0.056-0.007,0.072-0.031c0.016-0.024-0.017-0.008,0.016-0.024c0.029-0.007,0.029-0.03,0.056-0.007
				c0.03,0.023,0.055,0.055,0.062,0.069c0.008,0.017,0.031,0.056,0.056,0.08c0.03,0.016,0.055,0.079,0.055,0.079l0.047,0.048
				c0,0,0.007,0.007,0.038,0.007s0.078-0.007,0.078-0.007L14.185,8.6c0,0,0.029,0.008,0.038-0.007
				c0.009-0.017,0.009-0.039,0.009-0.039s-0.018-0.048-0.03-0.062c-0.01-0.017-0.026-0.056-0.026-0.056l0.01-0.055l0.029-0.032
				l0.009-0.039V8.262l-0.034-0.017l-0.055-0.031c0,0-0.029,0.007-0.029-0.032c-0.009-0.031-0.009-0.031-0.009-0.031l-0.069-0.016
				l-0.048-0.024l0.055-0.039c0.031-0.053,0.039-0.07,0.039-0.085c0-0.015-0.008-0.063-0.008-0.063s-0.031-0.008-0.031-0.048
				c-0.007-0.039-0.007-0.063-0.007-0.063l0.007-0.03c0,0,0.008-0.025,0.031-0.025c0.017,0,0.047,0.025,0.063,0.025
				s0.046,0.007,0.046,0.007s0.016,0.006,0.016,0.031c0,0.015-0.007,0.054-0.007,0.054l0.03-0.046v0.055l-0.008,0.063v0.062
				l0.031,0.063l0.03,0.048c0,0,0.038,0.038,0.056,0.055c0.018,0.006,0.057,0.038,0.057,0.038l0.046,0.024l0.03,0.007l0.031-0.031
				c0,0,0.057,0.007,0.057-0.009c0.008-0.017,0.008-0.017,0.008-0.017s0.063-0.007,0.079-0.007c0.016,0,0.047,0,0.047,0
				s0.023,0.046,0.008,0.046c-0.017,0-0.024,0.016-0.064,0.031c-0.039,0.008-0.055,0-0.062,0.016
				c-0.008,0.017-0.031,0.056-0.031,0.056l0.031,0.008h0.022l0.032,0.031c0,0,0.007,0.007,0,0.03
				c-0.009,0.023,0.029,0.017-0.009,0.023c-0.046,0.009-0.068-0.007-0.068-0.007s-0.009-0.04-0.033-0.023
				c-0.017,0.017-0.024,0.055-0.024,0.055v0.054l0.032,0.079c0,0,0.014,0.017,0,0.025c-0.015,0.007-0.069,0.069-0.069,0.069
				s-0.01,0.022-0.033,0.022c-0.014,0-0.036,0-0.079,0.008C14.3,8.715,14.3,8.715,14.269,8.724
				c-0.032,0.007-0.055,0.014-0.103,0.022c-0.047,0.007-0.133,0.007-0.162,0.007c-0.032,0-0.039,0-0.057-0.007
				c-0.016-0.009-0.009,0-0.03-0.031c-0.023-0.032-0.048-0.055-0.048-0.079c0-0.017,0-0.023-0.01-0.056
				c-0.007-0.03-0.007-0.053-0.028-0.053c-0.033,0-0.033,0-0.033,0s-0.061,0.047-0.054,0.063s-0.007,0,0.047,0.038
				c0.054,0.039,0.071,0.094,0.071,0.094l-0.01,0.055l-0.102,0.056l-0.069,0.022l-0.008,0.047c0,0,0,0.016-0.016,0.039
				c-0.017,0.023-0.056,0.055-0.056,0.055s-0.031,0.008-0.038,0.032c-0.009,0.016-0.032,0.077-0.032,0.077s-0.031-0.007-0.063,0.017
				c-0.03,0.024,0.009,0.024-0.063,0.055c-0.069,0.03-0.069,0.03-0.069,0.03l-0.079-0.006l-0.047,0.015c0,0-0.061,0.007-0.069,0.024
				c-0.009,0.016-0.04,0.062-0.04,0.062s-0.015,0.032,0,0.032c0.017,0.007,0.04,0,0.078,0.007c0.031,0.009,0.04,0.009,0.064,0.024
				c0.023,0.009,0.047,0.032,0.047,0.032l0.084,0.077l0.05,0.102l-0.01,0.079l-0.093,0.031c0,0-0.055,0-0.078,0
				c-0.018,0-0.011,0-0.103,0c-0.093,0-0.109,0-0.126,0c-0.016,0-0.078-0.009-0.078-0.009l-0.055,0.009l-0.039,0.032L12.82,9.724
				c0,0,0.033,0.07,0.033,0.094c0,0.024,0,0.054,0,0.054l-0.01,0.049L12.82,9.975l-0.031,0.053l0.01,0.032
				c0,0-0.01,0.023,0.008,0.023c0.016,0,0.061-0.007,0.061,0.01c0,0.015-0.037,0.078-0.037,0.078l0.079,0.016
				c0,0-0.009-0.008,0.037,0.008c0.046,0.005,0.077,0.022,0.077,0.022l0.054,0.038l0.019,0.032l0.016-0.032
				c0,0,0.085-0.008,0.1-0.016c0.018-0.007,0.057-0.007,0.057-0.007h0.069c0,0,0.017,0.007,0.032-0.01
				c0.006-0.014,0.006-0.014,0.006-0.014s0.08-0.03,0.095-0.046c0.017-0.008,0.023-0.056,0.023-0.056s0.024-0.015,0.024-0.03
				c0-0.015-0.017-0.055-0.017-0.055V9.989l0.023-0.03c0,0,0.008-0.01,0.031-0.032c0.024-0.024,0.024-0.024,0.024-0.024
				s-0.009-0.006,0.022-0.022c0.032-0.009,0.056-0.032,0.071-0.032c0.015,0-0.016,0.017,0.015,0c0.031-0.016,0.04-0.03,0.04-0.055
				c0-0.016,0.009-0.102,0.009-0.102l0.029-0.047l0.078,0.008l0.041,0.009c0,0,0.046,0.007,0.053-0.009
				c0.009-0.016,0.031-0.03,0.031-0.03l0.063-0.032c0,0-0.007-0.007,0.024-0.007c0.03,0,0.078,0,0.103,0c0.015,0,0.054,0,0.054,0
				s0.031,0.015,0.046,0.03c0.009,0.016,0.031,0.055,0.031,0.055L14.316,9.7h0.022c0.032,0.024,0.046,0.041,0.102,0.055
				c0.055,0.017,0.095,0.031,0.095,0.031s0.015,0.032,0.028,0.047c0.017,0.016,0.031,0.031,0.055,0.048
				c0.017,0.007,0.031,0.022,0.04,0.039c0.009,0.017,0.032,0.047,0.032,0.047l0.029,0.033l0.018-0.033V9.911l-0.007-0.03
				c0,0-0.031-0.023,0.007-0.023c0.031,0,0.056,0,0.056,0L14.762,9.81l-0.04-0.016l-0.053-0.04l-0.024-0.023l-0.025-0.007
				l-0.022-0.016l-0.032-0.023c0,0-0.053-0.009-0.053-0.031c-0.01-0.016-0.01-0.016-0.01-0.016l-0.055-0.008
				c0,0-0.054-0.031-0.054-0.046c0-0.017-0.009-0.064-0.009-0.064l-0.046-0.006c0,0,0.007-0.031,0.007-0.055
				c0-0.017,0.017-0.039,0.017-0.039l0.102-0.007l0.021,0.054l0.038,0.023l0.057,0.024l0.023,0.031l0.025,0.024
				c0,0,0.009,0.007,0.038,0.017c0.03,0.007,0.054,0.014,0.054,0.014s0.033,0.032,0.056,0.032c0.023,0.008,0.032,0.016,0.057,0.024
				c-0.018,0.014-0.018,0.014-0.018,0.014s0.008,0.017,0.031,0.032s0.046,0.046,0.046,0.063c0,0.016,0.017,0.069,0.032,0.079
				c0.015,0.007,0.022,0.007,0.055,0.038c0.028,0.03,0.028,0.063,0.053,0.079c0.031,0.008,0.055,0,0.055,0.03
				c0.01,0.031,0.01,0.055,0.01,0.055s0.024,0.008,0.038,0.008c0.016,0,0.047-0.03,0.047-0.03s0.032-0.048,0.01-0.057
				c-0.016-0.007-0.055-0.007-0.055-0.023c0-0.015,0-0.101,0-0.101l0.022-0.056l0.032-0.045l0.046,0.014l0.047-0.029l0.048,0.055
				l-0.016,0.062c0,0,0.007,0.039,0.029,0.07C15.363,9.942,15.4,9.982,15.4,9.982l0.079,0.071l0.11,0.03l0.025-0.007l0.162-0.031
				c0,0,0.024,0,0.038,0c0.017,0,0.095,0.134,0.095,0.134s0,0.055,0,0.085s0,0.109,0,0.109s-0.055,0.055-0.078,0.055
				c-0.024,0-0.086,0.03-0.086,0.03l-0.131,0.033l-0.087-0.008l-0.155-0.008c0,0-0.157-0.008-0.174-0.008s-0.071,0-0.086,0
				c-0.016,0-0.038,0.017-0.054,0.063c-0.018,0.046-0.048,0.062-0.048,0.062s0,0.023-0.03,0.023c-0.032,0-0.032,0.009-0.056-0.007
				c-0.023-0.017-0.133-0.04-0.133-0.04l-0.103-0.068l-0.056-0.047l-0.055-0.008h-0.156l-0.103-0.008l0.018-0.164l0.016,0.046
				l-0.033-0.109l-0.046-0.03l-0.109-0.024l-0.07,0.008l-0.092,0.023l-0.096,0.032l-0.056,0.016l-0.264,0.045l-0.096,0.04
				c0,0-0.04,0.023-0.054,0.03c-0.015,0.008-0.079,0.008-0.079,0.008s-0.046-0.008-0.069-0.015s-0.08-0.007-0.104-0.007
				c-0.022,0-0.07-0.008-0.086,0c-0.015,0.007-0.031,0.007-0.046,0.03c-0.017,0.025-0.071,0.087-0.071,0.087
				s-0.029,0.03-0.047,0.047c-0.006,0.014-0.046,0.062-0.046,0.062l-0.063,0.103l-0.039,0.046l0.01,0.055v0.04
				c0,0-0.025,0.023-0.039,0.031c-0.018,0.007-0.049,0.025-0.049,0.025s-0.023,0.005-0.047,0.029
				c-0.021,0.016-0.021,0.026-0.039,0.04c-0.017,0.016-0.071,0.055-0.071,0.055s-0.03,0.023-0.054,0.046
				c-0.014,0.024-0.047,0.055-0.055,0.071c-0.007,0.016-0.031,0.03-0.048,0.038c-0.013,0.008-0.046,0.071-0.053,0.087
				c-0.007,0.014-0.055,0.085-0.055,0.085l-0.032,0.134l-0.007,0.062c0,0,0.007,0.023,0.024,0.04c0.016,0.014,0.031,0.08,0.031,0.08
				v0.055c0,0-0.016,0.046-0.024,0.063c-0.006,0.014,0.008,0.093,0.008,0.093v0.046c0,0,0,0.017-0.024,0.039
				c-0.025,0.024-0.031,0.055-0.031,0.055l0.031,0.071l0.024,0.046v0.033l0.03,0.052c0,0,0.017,0.018,0.031,0.033
				c0.018,0.008,0.025,0.008,0.058,0.033c0.031,0.014,0.031,0.014,0.031,0.014s0.048,0.055,0.048,0.08
				c0,0.016,0.03,0.048,0.03,0.048l0.055,0.055c0,0,0.009,0.03,0.038,0.053c0.031,0.024,0.063,0.039,0.079,0.055
				c0.017,0.008,0.062,0.047,0.102,0.055c0.031,0.008,0.048,0.017,0.064,0.017c0.014,0-0.025-0.048,0.084,0.008
				c0.111,0.055,0.181,0.078,0.181,0.078l0.079,0.031c0,0,0.127,0.009,0.14-0.008c0.015-0.009,0.038-0.009,0.054-0.009
				c0.015,0,0.056,0,0.088,0c0.029,0,0.139-0.016,0.139-0.016l0.125-0.047c0,0,0.039-0.023,0.056-0.03
				c0.017-0.008,0.062-0.038,0.079-0.046c0.017-0.01,0.093-0.01,0.093-0.01s0-0.023,0.032,0c0.031,0.023,0.031,0.031,0.039,0.048
				c0.01,0.017,0.01,0.055,0.031,0.055c0.023,0.008,0.078,0.024,0.078,0.024s0.079-0.008,0.102,0
				c0.025,0.007,0.079,0.007,0.079,0.007l0.024,0.031l0.007,0.071v0.063c0,0-0.007,0.025,0,0.047
				c0.009,0.021,0.033,0.063,0.033,0.063s-0.033,0.047-0.05,0.054c-0.018,0.007-0.055,0.055-0.055,0.055l0.109,0.101l0.063,0.063
				l0.048,0.056c0,0,0.008,0.023,0.008,0.039c0,0.015-0.008,0.055,0,0.078c0.007,0.018,0.007,0.079,0.007,0.079
				s0.009,0.046,0.009,0.063s-0.016,0.093-0.016,0.093l-0.008,0.055l-0.034,0.095l-0.037,0.046l-0.056,0.055l-0.039,0.063
				l-0.007,0.085l-0.032,0.053c0,0,0.01,0.05,0.01,0.072c0,0.023,0.046,0.109,0.046,0.109l-0.008,0.071c0,0-0.03,0.103-0.03,0.126
				c0,0.024-0.024,0.055-0.024,0.079c0,0.016-0.009,0.085-0.009,0.085l0.009,0.086l0.028,0.085L14.3,14.902
				c0,0-0.017,0.062-0.017,0.102c0,0.03,0.056,0.069,0.071,0.069c0.017,0,0.086-0.008,0.119-0.03
				c0.028-0.016,0.106-0.038,0.124-0.048c0.017-0.008,0.031,0.01,0.078-0.029c0.046-0.032,0.117-0.085,0.117-0.085
				s0.057-0.04,0.079-0.055c0.014-0.018,0.092-0.105,0.092-0.105s0.055-0.054,0.093-0.078c0.04-0.024,0-0.007,0.04-0.028
				c0.038-0.023,0.163-0.127,0.163-0.127l0.127-0.125c0,0,0.109-0.141,0.126-0.164c0.016-0.025,0.116-0.157,0.132-0.167
				c0.016-0.007,0.156-0.1,0.188-0.124c0.03-0.024,0.071-0.188,0.085-0.212c0.015-0.015,0.103-0.211,0.103-0.211l0.079-0.227
				l0.132-0.338l0.132-0.234c0,0,0.054-0.104,0.078-0.133c0.017-0.03,0.143-0.274,0.143-0.274l0.048-0.202l0.015-0.172h-0.078
				l-0.087,0.079l-0.079-0.024l-0.077,0.01l0.088-0.111l-0.024-0.085l-0.07-0.055l-0.094-0.139v-0.143l-0.102-0.164l-0.063-0.257
				c0,0-0.118-0.127-0.102-0.156c0.007-0.033,0.038-0.127,0.038-0.127l0.063,0.032c0,0,0.046,0.125,0.069,0.131
				c0.026,0.008,0.055,0.071,0.064,0.084c0.008,0.018,0.015,0.073,0.03,0.087c0.008,0.015,0.062,0.118,0.062,0.118
				s0.039,0.101,0.048,0.126c0.008,0.016,0.046,0.079,0.056,0.125c0.008,0.048,0.03,0.195,0.03,0.212c0,0.016,0.038,0.18,0.038,0.18
				s0.055-0.016,0.062-0.03c0.01-0.017,0.01-0.025,0.026-0.04c0.008-0.015,0.101-0.086,0.101-0.086l0.04-0.126
				c0,0,0.024-0.055,0.028-0.078c0.01-0.023,0.057-0.111,0.057-0.125c0-0.017-0.007-0.079,0-0.104
				c0.008-0.014,0.031-0.109,0.031-0.125c0-0.016,0.007-0.079,0.007-0.079l-0.007-0.141l0.062-0.078l0.031-0.086
				C16.881,10.703,16.654,8.246,14.316,7.017z"/>
		</g>
	</g>
	<g>
		<rect x="4.129" y="1.5" opacity="0.8" fill="#FFFFFF" enable-background="new    " width="15.742" height="4.025"/>
		<g enable-background="new    ">
			<path fill="#1976D2" d="M10.559,3.487c0,0.269-0.042,0.505-0.126,0.709c-0.084,0.204-0.2,0.375-0.346,0.511
				c-0.146,0.137-0.32,0.241-0.522,0.309C9.364,5.087,9.146,5.122,8.916,5.122c-0.226,0-0.439-0.034-0.638-0.105
				C8.076,4.948,7.902,4.844,7.752,4.708C7.603,4.571,7.485,4.4,7.401,4.196c-0.086-0.204-0.13-0.44-0.13-0.709
				s0.045-0.504,0.134-0.708c0.089-0.204,0.209-0.375,0.36-0.514C7.916,2.126,8.09,2.022,8.29,1.953
				c0.198-0.07,0.406-0.104,0.626-0.104c0.226,0,0.438,0.035,0.639,0.104c0.2,0.069,0.375,0.173,0.523,0.312s0.267,0.31,0.353,0.514
				C10.517,2.983,10.559,3.219,10.559,3.487z M8.039,3.487c0,0.154,0.02,0.293,0.059,0.416c0.04,0.125,0.097,0.23,0.172,0.319
				c0.074,0.09,0.165,0.158,0.273,0.206c0.108,0.049,0.232,0.074,0.372,0.074c0.137,0,0.26-0.025,0.369-0.074
				c0.109-0.048,0.201-0.116,0.276-0.206c0.075-0.089,0.131-0.195,0.171-0.319c0.04-0.123,0.06-0.262,0.06-0.416
				s-0.021-0.293-0.06-0.418S9.636,2.836,9.561,2.748S9.394,2.59,9.285,2.541C9.175,2.493,9.052,2.469,8.916,2.469
				c-0.139,0-0.264,0.025-0.372,0.075c-0.108,0.05-0.2,0.119-0.273,0.208c-0.075,0.09-0.133,0.196-0.172,0.321
				C8.059,3.199,8.039,3.337,8.039,3.487z"/>
			<path fill="#1976D2" d="M13.519,1.921v0.603h-0.996v2.534h-0.744V2.523h-0.995V1.921H13.519z"/>
			<path fill="#1976D2" d="M15.985,1.921h0.744v3.137h-0.744V3.727h-1.247v1.331h-0.743V1.921h0.743v1.2h1.247V1.921z"/>
		</g>
	</g>
</g>
</svg>
