<?xml version="1.0" encoding="utf-8"?>
<!-- Generator: Adobe Illustrator 16.0.0, SVG Export Plug-In . SVG Version: 6.00 Build 0)  -->
<!DOCTYPE svg PUBLIC "-//W3C//DTD SVG 1.1//EN" "http://www.w3.org/Graphics/SVG/1.1/DTD/svg11.dtd">
<svg version="1.1" id="图层_1" xmlns="http://www.w3.org/2000/svg" xmlns:xlink="http://www.w3.org/1999/xlink" x="0px" y="0px"
	 width="24px" height="24px" viewBox="0 0 24 24" enable-background="new 0 0 24 24" xml:space="preserve">
<polygon fill="#3E2723" points="3.634,23 3.634,1 20.366,1 20.366,16.807 14.111,23 "/>
<g>
	<g>
		
			<linearGradient id="SVGID_1_" gradientUnits="userSpaceOnUse" x1="53.5996" y1="-141.4004" x2="53.5996" y2="-162.4009" gradientTransform="matrix(1 0 0 -1 -41.6001 -139.9004)">
			<stop  offset="0" style="stop-color:#785548"/>
			<stop  offset="1" style="stop-color:#9F9E9F"/>
		</linearGradient>
		<polygon fill="url(#SVGID_1_)" points="4.133,22.5 4.133,1.5 19.867,1.5 19.867,16.586 14.019,22.5 		"/>
		<polygon fill="#795548" fill-opacity="0.7" points="19.867,16.594 19.867,16.34 13.638,16.34 13.638,22.5 13.961,22.5 		"/>
		<path opacity="0.39" fill="#FFFFFF" enable-background="new    " d="M13.952,16.594l5.915,0.008L13.961,22.5L13.952,16.594z"/>
	</g>
	<path fill="#FFFFFF" d="M9.755,5.548H9.223v6.819H8.819V5.548H8.291v6.819H7.889V5.548h-0.53v6.819H6.955V5.548h-0.53v6.819H6.286
		v2.89h3.65v-2.89H9.755V5.548z M9.405,14.417h-2.59v-1.675h2.59V14.417z"/>
	<g>
		<rect x="4.13" y="1.5" opacity="0.8" fill="#FFFFFF" enable-background="new    " width="15.74" height="4.025"/>
		<g enable-background="new    ">
			<path fill="#5D4037" d="M10.109,5.082c-0.035-0.109-0.075-0.221-0.117-0.336C9.949,4.631,9.907,4.516,9.866,4.402H8.575
				C8.534,4.517,8.492,4.631,8.451,4.747C8.409,4.861,8.37,4.973,8.334,5.082H7.563c0.123-0.338,0.242-0.65,0.353-0.938
				c0.112-0.286,0.222-0.556,0.328-0.81C8.35,3.081,8.455,2.84,8.558,2.612C8.662,2.385,8.77,2.162,8.881,1.944h0.705
				c0.108,0.217,0.215,0.44,0.32,0.668c0.104,0.228,0.212,0.468,0.318,0.722c0.106,0.254,0.216,0.524,0.328,0.81
				c0.112,0.287,0.229,0.6,0.354,0.938H10.109z M9.218,2.655C9.2,2.7,9.177,2.763,9.145,2.841C9.113,2.92,9.076,3.01,9.036,3.113
				C8.995,3.216,8.949,3.329,8.899,3.452C8.849,3.576,8.797,3.705,8.745,3.841h0.944c-0.05-0.136-0.1-0.266-0.147-0.39
				C9.496,3.327,9.45,3.214,9.408,3.111C9.364,3.008,9.327,2.918,9.296,2.839C9.264,2.761,9.237,2.7,9.218,2.655z"/>
			<path fill="#5D4037" d="M12.297,1.908c0.495,0,0.875,0.084,1.139,0.251s0.396,0.428,0.396,0.781c0,0.22-0.052,0.399-0.159,0.537
				c-0.106,0.137-0.26,0.245-0.459,0.323c0.065,0.079,0.136,0.168,0.208,0.27c0.073,0.101,0.146,0.206,0.219,0.317
				c0.071,0.11,0.14,0.224,0.206,0.344c0.067,0.119,0.129,0.236,0.187,0.351H13.2c-0.062-0.103-0.121-0.207-0.185-0.313
				c-0.062-0.105-0.125-0.208-0.191-0.308c-0.065-0.1-0.128-0.194-0.193-0.283c-0.063-0.089-0.126-0.169-0.19-0.242h-0.368v1.145
				H11.33V1.989c0.163-0.03,0.33-0.051,0.502-0.063C12.006,1.914,12.16,1.908,12.297,1.908z M12.341,2.51
				c-0.055,0-0.104,0.001-0.146,0.005c-0.043,0.003-0.084,0.005-0.123,0.009v0.851h0.211c0.279,0,0.479-0.033,0.601-0.1
				c0.12-0.066,0.182-0.18,0.182-0.34c0-0.154-0.063-0.263-0.185-0.328C12.759,2.542,12.578,2.51,12.341,2.51z"/>
			<path fill="#5D4037" d="M16.437,4.026c0,0.154-0.018,0.299-0.055,0.435c-0.035,0.135-0.099,0.254-0.189,0.355
				s-0.212,0.181-0.367,0.24c-0.154,0.059-0.349,0.088-0.583,0.088c-0.217,0-0.402-0.025-0.559-0.075
				c-0.155-0.049-0.284-0.107-0.385-0.174l0.247-0.548c0.092,0.051,0.19,0.097,0.295,0.136c0.105,0.039,0.221,0.059,0.344,0.059
				c0.181,0,0.312-0.042,0.391-0.126s0.119-0.226,0.119-0.426V1.944h0.742V4.026z"/>
		</g>
	</g>
</g>
</svg>
