<?xml version="1.0" encoding="utf-8"?>
<!-- Generator: Adobe Illustrator 16.0.0, SVG Export Plug-In . SVG Version: 6.00 Build 0)  -->
<!DOCTYPE svg PUBLIC "-//W3C//DTD SVG 1.1//EN" "http://www.w3.org/Graphics/SVG/1.1/DTD/svg11.dtd">
<svg version="1.1" id="图层_1" xmlns="http://www.w3.org/2000/svg" xmlns:xlink="http://www.w3.org/1999/xlink" x="0px" y="0px"
	 width="24px" height="24px" viewBox="0 0 24 24" enable-background="new 0 0 24 24" xml:space="preserve">
<g>
	
		<linearGradient id="SVGID_1_" gradientUnits="userSpaceOnUse" x1="220.002" y1="-1716.9512" x2="220.002" y2="-1694.9512" gradientTransform="matrix(1 0 0 -1 -208.0005 -1693.9512)">
		<stop  offset="0" style="stop-color:#512DA8"/>
		<stop  offset="0.008" style="stop-color:#D32F2F"/>
		<stop  offset="0.3041" style="stop-color:#E33932"/>
		<stop  offset="0.6579" style="stop-color:#F04035"/>
		<stop  offset="1" style="stop-color:#F44336"/>
	</linearGradient>
	<path fill="url(#SVGID_1_)" d="M14.063,23l6.188-6.188V1H3.75v22H14.063z"/>
	<polygon fill="#B71C1C" fill-opacity="0.3922" points="13.719,16.469 13.719,23 14.063,23 20.25,16.813 20.25,16.469 	"/>
	<path fill="#FFFFFF" fill-opacity="0.3922" d="M14.063,16.813h6.184L14.063,23V16.813z"/>
	<path opacity="0.8" fill="#FFFFFF" d="M9.25,14.523v-5.07l-0.983,0.819L7.416,8.591l2.013-1.63h1.196
		c0.781,0.489,2.084,0.414,2.75,0h1.146l2.063,1.555l-0.849,1.679L14.75,9.327v5.197H9.25z"/>
	<g>
		<path fill="#B71C1C" d="M19.75,1.5v15.105L13.855,22.5H9.25h-5v-21H19.75 M20.25,1H3.75v22h5.5h4.813l6.188-6.188L20.25,1L20.25,1
			z"/>
	</g>
</g>
</svg>
