<?xml version="1.0" encoding="utf-8"?>
<!-- Generator: Adobe Illustrator 16.0.0, SVG Export Plug-In . SVG Version: 6.00 Build 0)  -->
<!DOCTYPE svg PUBLIC "-//W3C//DTD SVG 1.1//EN" "http://www.w3.org/Graphics/SVG/1.1/DTD/svg11.dtd">
<svg version="1.1" id="图层_1" xmlns="http://www.w3.org/2000/svg" xmlns:xlink="http://www.w3.org/1999/xlink" x="0px" y="0px"
	 width="24px" height="24px" viewBox="0 0 24 24" enable-background="new 0 0 24 24" xml:space="preserve">
<g>
	
		<linearGradient id="SVGID_1_" gradientUnits="userSpaceOnUse" x1="178.4004" y1="1576.9609" x2="178.4004" y2="1554.9609" gradientTransform="matrix(1 0 0 1 -166.4004 -1553.9609)">
		<stop  offset="0" style="stop-color:#512DA8"/>
		<stop  offset="0.008" style="stop-color:#D32F2F"/>
		<stop  offset="0.3041" style="stop-color:#E33932"/>
		<stop  offset="0.6579" style="stop-color:#F04035"/>
		<stop  offset="1" style="stop-color:#F44336"/>
	</linearGradient>
	<path fill="url(#SVGID_1_)" d="M14.063,23l6.188-6.188V1H3.75v22H14.063z"/>
	<polygon fill="#B71C1C" fill-opacity="0.3922" points="13.719,16.469 13.719,23 14.063,23 20.25,16.813 20.25,16.469 	"/>
	<path fill="#FFFFFF" fill-opacity="0.3922" d="M14.063,16.813h6.183L14.063,23V16.813z"/>
	<g opacity="0.8">
		<path fill="#FFFFFF" d="M8.952,10.184c0.354,0.016,0.744,0.242,1.034,0.435c0.849,0.564,1.528,1.501,1.394,2.575
			c0.126-0.204,0.135-0.502,0.135-0.739c0-0.754-0.406-1.53-0.919-2.057c-0.169-0.178-0.349-0.378-0.572-0.486l2.527-2.992
			l0.606-0.717c0.046-0.057,0.201-0.183,0.167-0.266c-0.03-0.075-0.175-0.124-0.245-0.156c-0.077-0.035-0.217-0.11-0.306-0.078
			c-0.086,0.032-0.161,0.159-0.22,0.228l-0.465,0.543L9.903,9.04L9.255,9.797C9.153,9.918,9.019,10.039,8.952,10.184z"/>
		<path fill="#FFFFFF" d="M7.521,11.059c0.868-0.924,1.635-1.955,2.468-2.914l1.05-1.243c0.242-0.276,0.529-0.559,0.723-0.873
			c-0.126-0.037-0.414-0.062-0.535,0c-0.129,0.064-0.236,0.242-0.331,0.35l-0.599,0.679c-0.086,0.105-0.19,0.266-0.312,0.331
			c-0.177,0.088-0.497,0.054-0.69,0.059L8.589,7.504C8.063,7.542,7.461,7.542,7.201,8.108C6.992,8.56,7.024,9.207,7.002,9.698
			c-0.043,1.031-0.078,2.078,0.019,3.107c0.04,0.442-0.008,1.004,0.218,1.398c0.22,0.387,0.645,0.471,1.044,0.508
			c0.776,0.072,1.706,0.051,2.331-0.494c0.744-0.647,0.639-1.802-0.038-2.438C9.838,11.081,8.482,10.729,7.521,11.059z"/>
		<path fill="#FFFFFF" d="M10.136,14.806c0.143,0.063,0.381,0.041,0.537,0.041l0.975,0.019c1.236,0,2.455-0.078,3.687-0.135
			c0.586-0.026,1.246-0.048,1.488-0.7c0.156-0.414,0.126-0.943,0.156-1.378c0.069-1.01,0.096-2.044,0.002-3.051
			c-0.045-0.47,0.011-1.059-0.193-1.493c-0.314-0.677-1.268-0.626-1.893-0.642c-0.156-0.005-0.443-0.097-0.586-0.027
			c-0.107,0.051-0.172,0.33-0.223,0.435l-0.554,1.222c-0.655,1.447-1.267,2.929-1.976,4.351
			C11.28,13.997,10.784,14.693,10.136,14.806z"/>
	</g>
	<g>
		<path fill="#B71C1C" d="M19.75,1.5v15.105L13.855,22.5H9.25h-5v-21H19.75 M20.25,1H3.75v22h5.5h4.813l6.188-6.188V1L20.25,1z"/>
	</g>
</g>
</svg>
