<?xml version="1.0" encoding="utf-8"?>
<!-- Generator: Adobe Illustrator 16.0.0, SVG Export Plug-In . SVG Version: 6.00 Build 0)  -->
<!DOCTYPE svg PUBLIC "-//W3C//DTD SVG 1.1//EN" "http://www.w3.org/Graphics/SVG/1.1/DTD/svg11.dtd">
<svg version="1.1" id="图层_1" xmlns="http://www.w3.org/2000/svg" xmlns:xlink="http://www.w3.org/1999/xlink" x="0px" y="0px"
	 width="24px" height="24px" viewBox="0 0 24 24" enable-background="new 0 0 24 24" xml:space="preserve">
<rect x="3.634" y="1" fill="#0D47A1" width="16.732" height="22"/>
<g>
	<linearGradient id="SVGID_1_" gradientUnits="userSpaceOnUse" x1="12.0005" y1="1.5" x2="12.0005" y2="22.5005">
		<stop  offset="0" style="stop-color:#64B5F6"/>
		<stop  offset="1" style="stop-color:#3F51B5"/>
	</linearGradient>
	<rect x="4.134" y="1.5" fill="url(#SVGID_1_)" width="15.733" height="21"/>
	<g opacity="0.8">
		<rect x="6.164" y="9.806" opacity="0.8" fill="#FFFFFF" enable-background="new    " width="11.664" height="0.576"/>
		<rect x="6.164" y="8.002" opacity="0.8" fill="#FFFFFF" enable-background="new    " width="11.664" height="0.578"/>
		<rect x="11.73" y="11.502" opacity="0.8" fill="#FFFFFF" enable-background="new    " width="6.09" height="6.093"/>
		<g opacity="0.8">
			<rect x="6.164" y="11.607" fill="#FFFFFF" width="5.067" height="0.578"/>
			<rect x="6.164" y="13.411" fill="#FFFFFF" width="5.067" height="0.577"/>
			<rect x="6.164" y="15.221" fill="#FFFFFF" width="5.067" height="0.577"/>
			<rect x="6.164" y="17.023" fill="#FFFFFF" width="5.067" height="0.576"/>
		</g>
	</g>
	<g>
		<rect x="4.131" y="1.5" opacity="0.8" fill="#FFFFFF" enable-background="new    " width="15.738" height="4.025"/>
		<g enable-background="new    ">
			<path fill="#236FB7" d="M10.64,3.51c0,0.27-0.041,0.506-0.126,0.709s-0.2,0.374-0.345,0.511c-0.147,0.138-0.32,0.241-0.522,0.311
				c-0.202,0.068-0.418,0.104-0.65,0.104c-0.225,0-0.438-0.036-0.637-0.104C8.157,4.971,7.984,4.869,7.834,4.73
				c-0.15-0.138-0.268-0.308-0.353-0.511S7.354,3.779,7.354,3.51c0-0.268,0.043-0.503,0.134-0.708
				c0.087-0.204,0.208-0.375,0.358-0.514C7.998,2.149,8.171,2.045,8.37,1.977c0.199-0.07,0.407-0.104,0.626-0.104
				c0.227,0,0.438,0.035,0.64,0.104c0.199,0.069,0.375,0.173,0.522,0.312c0.15,0.14,0.268,0.311,0.353,0.514
				C10.599,3.007,10.64,3.242,10.64,3.51z M8.121,3.51c0,0.154,0.02,0.294,0.058,0.417C8.22,4.051,8.277,4.158,8.352,4.245
				c0.073,0.09,0.166,0.159,0.272,0.208C8.733,4.5,8.856,4.524,8.996,4.524c0.137,0,0.26-0.025,0.369-0.071
				c0.109-0.049,0.202-0.118,0.276-0.208c0.076-0.087,0.131-0.194,0.172-0.318C9.852,3.804,9.874,3.664,9.874,3.51
				c0-0.153-0.022-0.292-0.061-0.418C9.772,2.967,9.718,2.86,9.642,2.771C9.567,2.682,9.475,2.613,9.365,2.564
				C9.256,2.517,9.133,2.492,8.996,2.492c-0.14,0-0.263,0.025-0.372,0.075c-0.106,0.05-0.199,0.119-0.272,0.208
				C8.277,2.864,8.22,2.971,8.179,3.097C8.141,3.223,8.121,3.359,8.121,3.51z"/>
			<path fill="#236FB7" d="M13.598,1.944v0.602h-0.996v2.536h-0.743V2.546h-0.995V1.944H13.598z"/>
			<path fill="#236FB7" d="M16.646,1.944v0.602H15.65v2.536h-0.744V2.546h-0.994V1.944H16.646z"/>
		</g>
	</g>
</g>
</svg>
