<?xml version="1.0" encoding="utf-8"?>
<!-- Generator: Adobe Illustrator 16.0.0, SVG Export Plug-In . SVG Version: 6.00 Build 0)  -->
<!DOCTYPE svg PUBLIC "-//W3C//DTD SVG 1.1//EN" "http://www.w3.org/Graphics/SVG/1.1/DTD/svg11.dtd">
<svg version="1.1" id="图层_1" xmlns="http://www.w3.org/2000/svg" xmlns:xlink="http://www.w3.org/1999/xlink" x="0px" y="0px"
	 width="24px" height="24px" viewBox="0 0 24 24" enable-background="new 0 0 24 24" xml:space="preserve">
<polygon fill="#AE2124" points="3.635,23 3.635,1 20.365,1 20.365,16.807 14.113,23 "/>
<g>
	<g>
		<g>
			
				<linearGradient id="SVGID_1_" gradientUnits="userSpaceOnUse" x1="95.2002" y1="-581.3003" x2="95.2002" y2="-560.3008" gradientTransform="matrix(1 0 0 -1 -83.1997 -558.8008)">
				<stop  offset="0" style="stop-color:#C7312F"/>
				<stop  offset="0.1635" style="stop-color:#D9412C"/>
				<stop  offset="0.3476" style="stop-color:#E74E29"/>
				<stop  offset="0.5725" style="stop-color:#EA552A"/>
				<stop  offset="0.9516" style="stop-color:#EA582B"/>
			</linearGradient>
			<polygon fill="url(#SVGID_1_)" points="4.133,22.5 4.133,1.5 19.867,1.5 19.867,16.594 13.961,22.5 			"/>
		</g>
		<polygon fill="#AE2124" fill-opacity="0.3922" points="19.867,16.594 19.867,16.34 13.637,16.34 13.637,22.5 13.961,22.5 		"/>
		<path fill="#FFFFFF" fill-opacity="0.3922" d="M13.951,16.594l5.916,0.01L13.961,22.5L13.951,16.594z"/>
	</g>
	<g opacity="0.8" enable-background="new    ">
		<g>
			<path fill="#FFFFFF" d="M13.979,7.495c0.025,0.009,0.062,0.009,0.087,0.017C14.038,7.504,14.004,7.495,13.979,7.495z"/>
			<path fill="#FFFFFF" d="M13.758,7.46c0.036,0,0.062,0.009,0.098,0.009C13.819,7.469,13.794,7.469,13.758,7.46z"/>
			<path fill="#FFFFFF" d="M14.188,7.529c0.026,0.009,0.054,0.009,0.081,0.018C14.241,7.538,14.214,7.529,14.188,7.529z"/>
			<path fill="#FFFFFF" d="M14.396,7.563c0.026,0.01,0.054,0.01,0.07,0.019C14.441,7.573,14.424,7.563,14.396,7.563z"/>
			<path fill="#FFFFFF" d="M13.531,7.433c0.035,0,0.069,0.009,0.105,0.009C13.601,7.442,13.566,7.433,13.531,7.433z"/>
			<path fill="#FFFFFF" d="M14.792,7.652c0.017,0.009,0.034,0.009,0.062,0.018C14.826,7.661,14.809,7.652,14.792,7.652z"/>
			<path fill="#FFFFFF" d="M14.599,7.608c0.019,0.009,0.044,0.009,0.062,0.018C14.643,7.617,14.617,7.608,14.599,7.608z"/>
			<path fill="#FFFFFF" d="M7.311,8.604L7.311,8.604L7.311,8.604z"/>
			<path fill="#FFFFFF" d="M12.324,7.354c0.052,0,0.113,0,0.167,0C12.438,7.354,12.376,7.354,12.324,7.354z"/>
			<path fill="#FFFFFF" d="M14.977,7.696c0.018,0.009,0.035,0.009,0.051,0.018C15.012,7.705,14.993,7.705,14.977,7.696z"/>
			<path fill="#FFFFFF" d="M13.305,7.407c0.034,0,0.069,0.009,0.104,0.009C13.382,7.416,13.348,7.416,13.305,7.407z"/>
			<path fill="#FFFFFF" d="M11.512,7.354c0.051,0,0.104,0,0.166,0C11.624,7.354,11.563,7.354,11.512,7.354z"/>
			<path fill="#FFFFFF" d="M12.831,7.372c0.044,0,0.088,0.009,0.132,0.009C12.919,7.381,12.875,7.372,12.831,7.372z"/>
			<path fill="#FFFFFF" d="M13.076,7.389c0.044,0,0.078,0.009,0.123,0.009C13.154,7.397,13.111,7.389,13.076,7.389z"/>
			<path fill="#FFFFFF" d="M16.061,8.106c0,0,0.01,0,0.01,0.009C16.068,8.106,16.061,8.106,16.061,8.106z"/>
			<path fill="#FFFFFF" d="M16.48,8.387L16.48,8.387L16.48,8.387z"/>
			<path fill="#FFFFFF" d="M16.184,8.168C16.184,8.168,16.184,8.177,16.184,8.168C16.184,8.177,16.184,8.168,16.184,8.168z"/>
			<path fill="#FFFFFF" d="M16.287,8.238C16.297,8.238,16.297,8.238,16.287,8.238C16.297,8.238,16.297,8.238,16.287,8.238z"/>
			<path fill="#FFFFFF" d="M15.159,7.748c0.019,0,0.026,0.009,0.044,0.009C15.186,7.757,15.168,7.748,15.159,7.748z"/>
			<path fill="#FFFFFF" d="M16.559,8.457L16.559,8.457L16.559,8.457z"/>
			<path fill="#FFFFFF" d="M12,7.346c-0.078,0-0.165,0-0.245,0C11.835,7.346,11.922,7.346,12,7.346z"/>
			<path fill="#FFFFFF" d="M16.393,8.308L16.393,8.308L16.393,8.308z"/>
			<path fill="#FFFFFF" d="M15.649,7.915c0.008,0,0.018,0.009,0.024,0.009C15.667,7.924,15.657,7.915,15.649,7.915z"/>
			<path fill="#FFFFFF" d="M12,7.346c0.079,0,0.167,0,0.245,0C12.167,7.346,12.079,7.346,12,7.346z"/>
			<path fill="#FFFFFF" d="M15.325,7.801c0.01,0,0.025,0.009,0.034,0.009C15.351,7.809,15.343,7.801,15.325,7.801z"/>
			<path fill="#FFFFFF" d="M15.492,7.853c0.008,0,0.016,0.01,0.025,0.01C15.508,7.862,15.5,7.862,15.492,7.853z"/>
			<path fill="#FFFFFF" d="M15.798,7.975c0.009,0,0.018,0.009,0.018,0.009C15.807,7.984,15.798,7.975,15.798,7.975z"/>
			<path fill="#FFFFFF" d="M15.93,8.037c0.008,0,0.008,0.009,0.018,0.009C15.945,8.046,15.938,8.037,15.93,8.037z"/>
			<path fill="#FFFFFF" d="M12.587,7.363c0.043,0,0.097,0,0.139,0.008C12.684,7.363,12.63,7.363,12.587,7.363z"/>
			<path fill="#FFFFFF" d="M7.932,8.106c0.009,0,0.009-0.008,0.019-0.008C7.939,8.106,7.932,8.106,7.932,8.106z"/>
			<path fill="#FFFFFF" d="M7.809,8.177c0,0,0.009,0,0.009-0.009C7.816,8.168,7.816,8.177,7.809,8.177z"/>
			<path fill="#FFFFFF" d="M7.704,8.247C7.704,8.238,7.713,8.238,7.704,8.247C7.713,8.238,7.704,8.238,7.704,8.247z"/>
			<path fill="#FFFFFF" d="M8.055,8.046c0.008,0,0.008-0.009,0.018-0.009C8.063,8.037,8.055,8.046,8.055,8.046z"/>
			<path fill="#FFFFFF" d="M8.325,7.924c0.008,0,0.018-0.009,0.025-0.009C8.343,7.915,8.333,7.924,8.325,7.924z"/>
			<path fill="#FFFFFF" d="M8.186,7.984c0.01,0,0.018-0.009,0.026-0.009C8.203,7.975,8.193,7.984,8.186,7.984z"/>
			<path fill="#FFFFFF" d="M11.274,7.363c0.042,0,0.096,0,0.139-0.01C11.37,7.363,11.316,7.363,11.274,7.363z"/>
			<path fill="#FFFFFF" d="M12,10.608c-2.66,0-4.813-0.726-4.813-1.627v1.471c0,0.9,2.151,1.627,4.813,1.627
				c2.66,0,4.813-0.727,4.813-1.627l0,0V8.981C16.813,9.875,14.66,10.608,12,10.608z"/>
			<path fill="#FFFFFF" d="M7.188,8.93v0.053C7.188,8.965,7.188,8.947,7.188,8.93L7.188,8.93z"/>
			<path fill="#FFFFFF" d="M8.474,7.871c0.009,0,0.026-0.008,0.034-0.008C8.5,7.862,8.49,7.862,8.474,7.871z"/>
			<path fill="#FFFFFF" d="M7.521,8.387L7.521,8.387L7.521,8.387z"/>
			<path fill="#FFFFFF" d="M16.813,8.93c0,0.018,0,0.035,0,0.053V8.93L16.813,8.93z"/>
			<path fill="#FFFFFF" d="M7.371,8.536L7.371,8.536L7.371,8.536z"/>
			<path fill="#FFFFFF" d="M7.44,8.457L7.44,8.457L7.44,8.457z"/>
			<path fill="#FFFFFF" d="M7.607,8.317C7.607,8.308,7.607,8.308,7.607,8.317C7.607,8.308,7.607,8.308,7.607,8.317z"/>
			<path fill="#FFFFFF" d="M10.363,7.442c0.036,0,0.07-0.009,0.104-0.009C10.434,7.433,10.399,7.442,10.363,7.442z"/>
			<path fill="#FFFFFF" d="M10.146,7.477c0.034-0.009,0.06-0.009,0.096-0.009C10.206,7.469,10.181,7.469,10.146,7.477z"/>
			<path fill="#FFFFFF" d="M10.582,7.416c0.036,0,0.07-0.009,0.113-0.009C10.652,7.416,10.618,7.416,10.582,7.416z"/>
			<path fill="#FFFFFF" d="M8.631,7.809c0.01,0,0.026-0.009,0.034-0.009C8.657,7.801,8.649,7.809,8.631,7.809z"/>
			<path fill="#FFFFFF" d="M11.037,7.381c0.044,0,0.088-0.009,0.132-0.009C11.125,7.372,11.081,7.381,11.037,7.381z"/>
			<path fill="#FFFFFF" d="M9.936,7.504c0.026-0.009,0.062-0.009,0.088-0.018C9.996,7.495,9.962,7.504,9.936,7.504z"/>
			<path fill="#FFFFFF" d="M10.811,7.397c0.044,0,0.078-0.009,0.122-0.009C10.889,7.389,10.845,7.397,10.811,7.397z"/>
			<path fill="#FFFFFF" d="M8.973,7.714c0.017-0.009,0.034-0.009,0.053-0.018C9.007,7.705,8.989,7.705,8.973,7.714z"/>
			<path fill="#FFFFFF" d="M8.798,7.757c0.018-0.009,0.026-0.009,0.044-0.018C8.832,7.748,8.814,7.757,8.798,7.757z"/>
			<path fill="#FFFFFF" d="M9.146,7.661C9.164,7.652,9.19,7.652,9.208,7.643C9.19,7.652,9.174,7.661,9.146,7.661z"/>
			<path fill="#FFFFFF" d="M9.34,7.617c0.025-0.009,0.043-0.009,0.069-0.018C9.383,7.608,9.357,7.617,9.34,7.617z"/>
			<path fill="#FFFFFF" d="M9.532,7.582C9.559,7.573,9.584,7.573,9.61,7.563C9.576,7.563,9.559,7.573,9.532,7.582z"/>
			<path fill="#FFFFFF" d="M9.733,7.538C9.759,7.529,9.785,7.529,9.813,7.52C9.785,7.529,9.759,7.538,9.733,7.538z"/>
		</g>
		<g>
			<path fill="#FFFFFF" d="M13.979,9.201c0.025,0.01,0.062,0.01,0.087,0.019C14.038,9.21,14.004,9.21,13.979,9.201z"/>
			<path fill="#FFFFFF" d="M13.758,9.175c0.036,0,0.062,0.009,0.098,0.009C13.819,9.175,13.794,9.175,13.758,9.175z"/>
			<path fill="#FFFFFF" d="M14.188,9.236c0.026,0.008,0.054,0.008,0.081,0.018C14.241,9.245,14.214,9.245,14.188,9.236z"/>
			<path fill="#FFFFFF" d="M14.396,9.27c0.026,0.009,0.054,0.009,0.07,0.018C14.441,9.279,14.424,9.279,14.396,9.27z"/>
			<path fill="#FFFFFF" d="M13.531,9.139c0.035,0,0.069,0.009,0.105,0.009C13.601,9.147,13.566,9.147,13.531,9.139z"/>
			<path fill="#FFFFFF" d="M14.792,9.358c0.017,0.009,0.034,0.009,0.062,0.018C14.826,9.367,14.809,9.367,14.792,9.358z"/>
			<path fill="#FFFFFF" d="M14.599,9.313c0.019,0.01,0.044,0.01,0.062,0.019C14.643,9.323,14.617,9.323,14.599,9.313z"/>
			<path fill="#FFFFFF" d="M7.311,10.321L7.311,10.321L7.311,10.321z"/>
			<path fill="#FFFFFF" d="M12.324,9.06c0.052,0,0.113,0,0.167,0C12.438,9.06,12.376,9.06,12.324,9.06z"/>
			<path fill="#FFFFFF" d="M14.977,9.411c0.018,0.009,0.035,0.009,0.051,0.019C15.012,9.42,14.993,9.411,14.977,9.411z"/>
			<path fill="#FFFFFF" d="M13.305,9.122c0.034,0,0.069,0.009,0.104,0.009C13.382,9.122,13.348,9.122,13.305,9.122z"/>
			<path fill="#FFFFFF" d="M11.512,9.069c0.051,0,0.104,0,0.166,0C11.624,9.06,11.563,9.06,11.512,9.069z"/>
			<path fill="#FFFFFF" d="M12.831,9.078c0.044,0,0.088,0.01,0.132,0.01C12.919,9.087,12.875,9.087,12.831,9.078z"/>
			<path fill="#FFFFFF" d="M13.076,9.096c0.044,0,0.078,0.008,0.123,0.008C13.154,9.104,13.111,9.104,13.076,9.096z"/>
			<path fill="#FFFFFF" d="M16.061,9.813c0,0,0.01,0,0.01,0.01C16.068,9.813,16.061,9.813,16.061,9.813z"/>
			<path fill="#FFFFFF" d="M16.48,10.094L16.48,10.094L16.48,10.094z"/>
			<path fill="#FFFFFF" d="M16.184,9.884L16.184,9.884L16.184,9.884z"/>
			<path fill="#FFFFFF" d="M16.287,9.952C16.297,9.952,16.297,9.952,16.287,9.952C16.297,9.952,16.297,9.952,16.287,9.952z"/>
			<path fill="#FFFFFF" d="M15.159,9.455c0.019,0,0.026,0.009,0.044,0.009C15.186,9.464,15.168,9.464,15.159,9.455z"/>
			<path fill="#FFFFFF" d="M16.559,10.163L16.559,10.163L16.559,10.163z"/>
			<path fill="#FFFFFF" d="M12,9.06c-0.078,0-0.165,0-0.245,0C11.835,9.06,11.922,9.06,12,9.06z"/>
			<path fill="#FFFFFF" d="M16.393,10.023L16.393,10.023L16.393,10.023z"/>
			<path fill="#FFFFFF" d="M15.649,9.621c0.008,0,0.018,0.009,0.024,0.009C15.667,9.63,15.657,9.63,15.649,9.621z"/>
			<path fill="#FFFFFF" d="M12,9.06c0.079,0,0.167,0,0.245,0C12.167,9.06,12.079,9.06,12,9.06z"/>
			<path fill="#FFFFFF" d="M15.325,9.507c0.01,0,0.025,0.009,0.034,0.009C15.351,9.515,15.343,9.515,15.325,9.507z"/>
			<path fill="#FFFFFF" d="M15.492,9.568c0.008,0,0.016,0.009,0.025,0.009C15.508,9.577,15.5,9.568,15.492,9.568z"/>
			<path fill="#FFFFFF" d="M15.798,9.682c0.009,0,0.018,0.009,0.018,0.009C15.807,9.691,15.798,9.691,15.798,9.682z"/>
			<path fill="#FFFFFF" d="M15.93,9.752c0.008,0,0.008,0.008,0.018,0.008C15.945,9.752,15.938,9.752,15.93,9.752z"/>
			<path fill="#FFFFFF" d="M12.587,9.069c0.043,0,0.097,0,0.139,0.009C12.684,9.069,12.63,9.069,12.587,9.069z"/>
			<path fill="#FFFFFF" d="M7.932,9.822c0.009,0,0.009-0.01,0.019-0.01C7.939,9.813,7.932,9.813,7.932,9.822z"/>
			<path fill="#FFFFFF" d="M7.809,9.884c0,0,0.009,0,0.009-0.009C7.816,9.884,7.816,9.884,7.809,9.884z"/>
			<path fill="#FFFFFF" d="M7.704,9.952C7.704,9.952,7.713,9.952,7.704,9.952C7.713,9.952,7.704,9.952,7.704,9.952z"/>
			<path fill="#FFFFFF" d="M8.055,9.752c0.008,0,0.008-0.01,0.018-0.01C8.063,9.752,8.055,9.752,8.055,9.752z"/>
			<path fill="#FFFFFF" d="M8.325,9.638c0.008,0,0.018-0.008,0.025-0.008C8.343,9.63,8.333,9.63,8.325,9.638z"/>
			<path fill="#FFFFFF" d="M8.186,9.691c0.01,0,0.018-0.009,0.026-0.009C8.203,9.691,8.193,9.691,8.186,9.691z"/>
			<path fill="#FFFFFF" d="M11.274,9.078c0.042,0,0.096,0,0.139-0.009C11.37,9.069,11.316,9.069,11.274,9.078z"/>
			<path fill="#FFFFFF" d="M12,12.316c-2.66,0-4.813-0.726-4.813-1.628v1.471c0,0.9,2.151,1.626,4.813,1.626
				c2.66,0,4.813-0.727,4.813-1.626l0,0v-1.471C16.813,11.59,14.66,12.316,12,12.316z"/>
			<path fill="#FFFFFF" d="M7.188,10.636v0.053C7.188,10.671,7.188,10.652,7.188,10.636L7.188,10.636z"/>
			<path fill="#FFFFFF" d="M8.474,9.577c0.009,0,0.026-0.009,0.034-0.009C8.5,9.568,8.49,9.577,8.474,9.577z"/>
			<path fill="#FFFFFF" d="M7.521,10.094L7.521,10.094L7.521,10.094z"/>
			<path fill="#FFFFFF" d="M16.813,10.636c0,0.019,0,0.035,0,0.053V10.636L16.813,10.636z"/>
			<path fill="#FFFFFF" d="M7.371,10.242L7.371,10.242L7.371,10.242z"/>
			<path fill="#FFFFFF" d="M7.44,10.172C7.44,10.163,7.44,10.163,7.44,10.172C7.44,10.163,7.44,10.163,7.44,10.172z"/>
			<path fill="#FFFFFF" d="M7.607,10.023L7.607,10.023L7.607,10.023z"/>
			<path fill="#FFFFFF" d="M10.363,9.157c0.036,0,0.07-0.009,0.104-0.009C10.434,9.147,10.399,9.147,10.363,9.157z"/>
			<path fill="#FFFFFF" d="M10.146,9.183c0.034-0.009,0.06-0.009,0.096-0.009C10.206,9.175,10.181,9.175,10.146,9.183z"/>
			<path fill="#FFFFFF" d="M10.582,9.131c0.036,0,0.07-0.009,0.113-0.009C10.652,9.122,10.618,9.122,10.582,9.131z"/>
			<path fill="#FFFFFF" d="M8.631,9.523c0.01,0,0.026-0.009,0.034-0.009C8.657,9.515,8.649,9.515,8.631,9.523z"/>
			<path fill="#FFFFFF" d="M11.037,9.087c0.044,0,0.088-0.01,0.132-0.01C11.125,9.087,11.081,9.087,11.037,9.087z"/>
			<path fill="#FFFFFF" d="M9.936,9.219C9.962,9.21,9.997,9.21,10.023,9.201C9.996,9.21,9.962,9.21,9.936,9.219z"/>
			<path fill="#FFFFFF" d="M10.811,9.104c0.034,0,0.078-0.009,0.122-0.009C10.889,9.104,10.845,9.104,10.811,9.104z"/>
			<path fill="#FFFFFF" d="M8.973,9.42c0.017-0.009,0.034-0.009,0.053-0.018C9.007,9.411,8.989,9.42,8.973,9.42z"/>
			<path fill="#FFFFFF" d="M8.798,9.472c0.018-0.009,0.026-0.009,0.044-0.019C8.832,9.464,8.814,9.464,8.798,9.472z"/>
			<path fill="#FFFFFF" d="M9.146,9.375C9.164,9.367,9.19,9.367,9.208,9.358C9.19,9.367,9.174,9.367,9.146,9.375z"/>
			<path fill="#FFFFFF" d="M9.34,9.332c0.025-0.009,0.043-0.009,0.069-0.019C9.383,9.323,9.357,9.323,9.34,9.332z"/>
			<path fill="#FFFFFF" d="M9.532,9.288C9.559,9.279,9.584,9.279,9.61,9.27C9.576,9.279,9.559,9.279,9.532,9.288z"/>
			<path fill="#FFFFFF" d="M9.733,9.254c0.025-0.009,0.052-0.009,0.079-0.018C9.785,9.245,9.759,9.245,9.733,9.254z"/>
		</g>
		<g>
			<path fill="#FFFFFF" d="M13.979,10.906c0.025,0.01,0.062,0.01,0.087,0.019C14.038,10.916,14.004,10.916,13.979,10.906z"/>
			<path fill="#FFFFFF" d="M13.758,10.882c0.036,0,0.062,0.008,0.098,0.008C13.819,10.889,13.794,10.882,13.758,10.882z"/>
			<path fill="#FFFFFF" d="M14.188,10.942c0.026,0.008,0.054,0.008,0.081,0.019C14.241,10.95,14.214,10.95,14.188,10.942z"/>
			<path fill="#FFFFFF" d="M14.396,10.985c0.026,0.008,0.054,0.008,0.07,0.02C14.441,10.994,14.424,10.985,14.396,10.985z"/>
			<path fill="#FFFFFF" d="M13.531,10.854c0.035,0,0.069,0.008,0.105,0.008C13.601,10.862,13.566,10.854,13.531,10.854z"/>
			<path fill="#FFFFFF" d="M14.792,11.073c0.017,0.008,0.034,0.008,0.062,0.018C14.826,11.081,14.809,11.073,14.792,11.073z"/>
			<path fill="#FFFFFF" d="M14.599,11.02c0.019,0.01,0.044,0.01,0.062,0.018C14.643,11.038,14.617,11.029,14.599,11.02z"/>
			<path fill="#FFFFFF" d="M7.311,12.027L7.311,12.027L7.311,12.027z"/>
			<path fill="#FFFFFF" d="M12.324,10.767c0.052,0,0.113,0,0.167,0C12.438,10.775,12.376,10.775,12.324,10.767z"/>
			<path fill="#FFFFFF" d="M14.977,11.117c0.018,0.008,0.035,0.008,0.051,0.018C15.012,11.125,14.993,11.125,14.977,11.117z"/>
			<path fill="#FFFFFF" d="M13.305,10.827c0.034,0,0.069,0.011,0.104,0.011C13.382,10.838,13.348,10.827,13.305,10.827z"/>
			<path fill="#FFFFFF" d="M11.512,10.775c0.051,0,0.104,0,0.166,0C11.624,10.775,11.563,10.775,11.512,10.775z"/>
			<path fill="#FFFFFF" d="M12.831,10.793c0.044,0,0.088,0.009,0.132,0.009C12.919,10.793,12.875,10.793,12.831,10.793z"/>
			<path fill="#FFFFFF" d="M13.076,10.811c0.044,0,0.078,0.008,0.123,0.008C13.154,10.811,13.111,10.811,13.076,10.811z"/>
			<path fill="#FFFFFF" d="M16.061,11.519c0,0,0.01,0,0.01,0.008C16.068,11.527,16.061,11.527,16.061,11.519z"/>
			<path fill="#FFFFFF" d="M16.48,11.8L16.48,11.8L16.48,11.8z"/>
			<path fill="#FFFFFF" d="M16.184,11.59L16.184,11.59L16.184,11.59z"/>
			<path fill="#FFFFFF" d="M16.287,11.66C16.297,11.66,16.297,11.66,16.287,11.66C16.297,11.66,16.297,11.66,16.287,11.66z"/>
			<path fill="#FFFFFF" d="M15.159,11.17c0.019,0,0.026,0.01,0.044,0.01C15.186,11.18,15.168,11.17,15.159,11.17z"/>
			<path fill="#FFFFFF" d="M16.559,11.88L16.559,11.88L16.559,11.88z"/>
			<path fill="#FFFFFF" d="M12,10.767c-0.078,0-0.165,0-0.245,0C11.835,10.767,11.922,10.767,12,10.767z"/>
			<path fill="#FFFFFF" d="M16.393,11.729L16.393,11.729L16.393,11.729z"/>
			<path fill="#FFFFFF" d="M15.649,11.335c0.008,0,0.018,0.01,0.024,0.01C15.667,11.345,15.657,11.335,15.649,11.335z"/>
			<path fill="#FFFFFF" d="M12,10.767c0.079,0,0.167,0,0.245,0C12.167,10.767,12.079,10.767,12,10.767z"/>
			<path fill="#FFFFFF" d="M15.325,11.222c0.01,0,0.025,0.007,0.034,0.007C15.351,11.229,15.343,11.222,15.325,11.222z"/>
			<path fill="#FFFFFF" d="M15.492,11.272c0.008,0,0.016,0.011,0.025,0.011C15.508,11.284,15.5,11.284,15.492,11.272z"/>
			<path fill="#FFFFFF" d="M15.798,11.396c0.009,0,0.018,0.011,0.018,0.011C15.807,11.396,15.798,11.396,15.798,11.396z"/>
			<path fill="#FFFFFF" d="M15.93,11.458c0.008,0,0.008,0.008,0.018,0.008C15.945,11.467,15.938,11.458,15.93,11.458z"/>
			<path fill="#FFFFFF" d="M12.587,10.775c0.043,0,0.097,0,0.139,0.01C12.684,10.785,12.63,10.785,12.587,10.775z"/>
			<path fill="#FFFFFF" d="M7.932,11.527c0.009,0,0.009-0.008,0.019-0.008C7.939,11.527,7.932,11.527,7.932,11.527z"/>
			<path fill="#FFFFFF" d="M7.809,11.598c0,0,0.009,0,0.009-0.008C7.816,11.59,7.816,11.59,7.809,11.598z"/>
			<path fill="#FFFFFF" d="M7.704,11.66C7.704,11.66,7.713,11.66,7.704,11.66C7.713,11.66,7.704,11.66,7.704,11.66z"/>
			<path fill="#FFFFFF" d="M8.055,11.467c0.008,0,0.008-0.008,0.018-0.008C8.063,11.458,8.055,11.467,8.055,11.467z"/>
			<path fill="#FFFFFF" d="M8.325,11.345c0.008,0,0.018-0.01,0.025-0.01C8.343,11.335,8.333,11.345,8.325,11.345z"/>
			<path fill="#FFFFFF" d="M8.186,11.407c0.01,0,0.018-0.011,0.026-0.011C8.203,11.396,8.193,11.396,8.186,11.407z"/>
			<path fill="#FFFFFF" d="M11.274,10.785c0.042,0,0.096,0,0.139-0.01C11.37,10.785,11.316,10.785,11.274,10.785z"/>
			<path fill="#FFFFFF" d="M12,14.031c-2.66,0-4.813-0.727-4.813-1.629v1.471c0,0.899,2.151,1.627,4.813,1.627
				c2.66,0,4.813-0.728,4.813-1.627l0,0v-1.471C16.813,13.296,14.66,14.031,12,14.031z"/>
			<path fill="#FFFFFF" d="M7.188,12.35v0.052C7.188,12.386,7.188,12.368,7.188,12.35L7.188,12.35z"/>
			<path fill="#FFFFFF" d="M8.474,11.284c0.009,0,0.026-0.011,0.034-0.011C8.5,11.284,8.49,11.284,8.474,11.284z"/>
			<path fill="#FFFFFF" d="M7.521,11.809C7.521,11.8,7.521,11.8,7.521,11.809C7.521,11.8,7.521,11.8,7.521,11.809z"/>
			<path fill="#FFFFFF" d="M16.813,12.35c0,0.018,0,0.036,0,0.052V12.35L16.813,12.35z"/>
			<path fill="#FFFFFF" d="M7.371,11.956C7.371,11.948,7.371,11.948,7.371,11.956C7.371,11.948,7.371,11.948,7.371,11.956z"/>
			<path fill="#FFFFFF" d="M7.44,11.88L7.44,11.88L7.44,11.88z"/>
			<path fill="#FFFFFF" d="M7.607,11.729L7.607,11.729L7.607,11.729z"/>
			<path fill="#FFFFFF" d="M10.363,10.862c0.036,0,0.07-0.008,0.104-0.008C10.434,10.854,10.399,10.862,10.363,10.862z"/>
			<path fill="#FFFFFF" d="M10.146,10.889c0.034-0.008,0.06-0.008,0.096-0.008C10.206,10.882,10.181,10.889,10.146,10.889z"/>
			<path fill="#FFFFFF" d="M10.582,10.838c0.036,0,0.07-0.011,0.113-0.011C10.652,10.827,10.618,10.838,10.582,10.838z"/>
			<path fill="#FFFFFF" d="M8.631,11.229c0.01,0,0.026-0.007,0.034-0.007C8.657,11.222,8.649,11.229,8.631,11.229z"/>
			<path fill="#FFFFFF" d="M11.037,10.802c0.044,0,0.088-0.009,0.132-0.009C11.125,10.793,11.081,10.793,11.037,10.802z"/>
			<path fill="#FFFFFF" d="M9.936,10.925c0.026-0.009,0.061-0.009,0.086-0.019C9.996,10.916,9.962,10.916,9.936,10.925z"/>
			<path fill="#FFFFFF" d="M10.811,10.819c0.034,0,0.078-0.008,0.122-0.008C10.889,10.811,10.845,10.811,10.811,10.819z"/>
			<path fill="#FFFFFF" d="M8.973,11.135c0.017-0.01,0.034-0.01,0.053-0.018C9.007,11.117,8.989,11.125,8.973,11.135z"/>
			<path fill="#FFFFFF" d="M8.798,11.18c0.018-0.01,0.026-0.01,0.044-0.019C8.832,11.17,8.814,11.18,8.798,11.18z"/>
			<path fill="#FFFFFF" d="M9.146,11.081c0.018-0.008,0.044-0.008,0.062-0.018C9.19,11.073,9.174,11.081,9.146,11.081z"/>
			<path fill="#FFFFFF" d="M9.34,11.038c0.025-0.008,0.043-0.008,0.069-0.018C9.383,11.029,9.357,11.038,9.34,11.038z"/>
			<path fill="#FFFFFF" d="M9.532,10.994c0.026-0.008,0.052-0.008,0.078-0.016C9.576,10.985,9.559,10.994,9.532,10.994z"/>
			<path fill="#FFFFFF" d="M9.733,10.961c0.025-0.011,0.052-0.011,0.079-0.019C9.785,10.95,9.759,10.95,9.733,10.961z"/>
		</g>
		<ellipse fill="#FFFFFF" cx="12" cy="8.72" rx="4.813" ry="1.628"/>
	</g>
	<g>
		<rect x="4.129" y="1.5" opacity="0.8" fill="#FFFFFF" enable-background="new    " width="15.742" height="4.025"/>
		<g enable-background="new    ">
			<path fill="#E64A19" d="M10.276,3.487c0,0.269-0.043,0.505-0.128,0.709C10.065,4.4,9.949,4.57,9.805,4.708
				c-0.146,0.137-0.32,0.241-0.522,0.31C9.08,5.087,8.863,5.122,8.631,5.122c-0.226,0-0.438-0.035-0.638-0.104
				c-0.2-0.069-0.375-0.172-0.524-0.31C7.32,4.57,7.202,4.4,7.116,4.196C7.03,3.992,6.988,3.756,6.988,3.487
				s0.045-0.504,0.134-0.708C7.211,2.575,7.33,2.404,7.481,2.265c0.15-0.139,0.325-0.243,0.523-0.312
				c0.198-0.07,0.407-0.104,0.626-0.104c0.226,0,0.439,0.035,0.639,0.104c0.201,0.069,0.375,0.173,0.525,0.312
				c0.148,0.139,0.267,0.31,0.353,0.514C10.232,2.983,10.276,3.219,10.276,3.487z M7.755,3.487c0,0.154,0.021,0.293,0.061,0.416
				c0.039,0.125,0.096,0.23,0.171,0.319c0.075,0.09,0.165,0.158,0.273,0.207c0.107,0.048,0.232,0.072,0.371,0.072
				c0.137,0,0.26-0.024,0.369-0.072c0.111-0.048,0.203-0.117,0.278-0.207c0.073-0.089,0.131-0.195,0.171-0.319
				c0.039-0.123,0.06-0.262,0.06-0.416s-0.021-0.293-0.06-0.418c-0.04-0.125-0.098-0.232-0.171-0.321
				C9.203,2.659,9.111,2.59,9,2.541C8.891,2.493,8.768,2.469,8.631,2.469c-0.139,0-0.264,0.025-0.371,0.075
				c-0.108,0.05-0.198,0.119-0.273,0.208c-0.075,0.09-0.132,0.196-0.171,0.321C7.775,3.199,7.755,3.337,7.755,3.487z"/>
			<path fill="#E64A19" d="M13.787,3.487c0,0.272-0.045,0.508-0.134,0.711c-0.089,0.202-0.217,0.37-0.379,0.502
				C13.111,4.833,12.912,4.933,12.677,5c-0.235,0.066-0.499,0.1-0.792,0.1c-0.132,0-0.288-0.005-0.466-0.017
				c-0.178-0.01-0.353-0.032-0.523-0.065V1.962c0.171-0.03,0.35-0.05,0.536-0.062c0.186-0.01,0.344-0.016,0.477-0.016
				c0.284,0,0.54,0.03,0.771,0.091c0.229,0.061,0.427,0.155,0.593,0.285c0.164,0.13,0.292,0.296,0.381,0.498
				C13.742,2.961,13.787,3.204,13.787,3.487z M11.638,4.483c0.035,0.003,0.075,0.005,0.122,0.007c0.045,0.001,0.1,0.002,0.164,0.002
				c0.371,0,0.646-0.089,0.827-0.267c0.179-0.179,0.268-0.425,0.268-0.738c0-0.329-0.085-0.578-0.257-0.747
				c-0.171-0.169-0.443-0.253-0.815-0.253c-0.049,0-0.103,0-0.155,0.002c-0.055,0.002-0.105,0.005-0.153,0.012V4.483z"/>
			<path fill="#E64A19" d="M15.507,5.099c-0.181,0-0.361-0.005-0.541-0.017c-0.18-0.01-0.367-0.035-0.56-0.074V1.966
				c0.151-0.027,0.318-0.047,0.499-0.061c0.182-0.014,0.35-0.021,0.506-0.021c0.211,0,0.402,0.015,0.58,0.043
				c0.175,0.029,0.328,0.078,0.453,0.147c0.128,0.07,0.228,0.161,0.299,0.274c0.07,0.113,0.106,0.253,0.106,0.418
				c0,0.25-0.126,0.448-0.38,0.593c0.209,0.075,0.353,0.178,0.429,0.308c0.075,0.13,0.113,0.276,0.113,0.439
				c0,0.329-0.127,0.577-0.378,0.742C16.382,5.016,16.005,5.099,15.507,5.099z M15.13,3.152h0.363c0.227,0,0.391-0.027,0.489-0.083
				s0.147-0.146,0.147-0.27c0-0.127-0.05-0.216-0.151-0.267c-0.103-0.051-0.25-0.077-0.448-0.077c-0.064,0-0.132,0.001-0.204,0.002
				c-0.073,0.001-0.14,0.006-0.196,0.011V3.152z M15.13,3.691v0.811c0.055,0.006,0.113,0.01,0.178,0.013
				c0.063,0.003,0.132,0.005,0.209,0.005c0.223,0,0.4-0.03,0.537-0.09c0.137-0.061,0.205-0.172,0.205-0.335
				c0-0.145-0.058-0.248-0.171-0.311c-0.113-0.062-0.277-0.093-0.491-0.093H15.13z"/>
		</g>
	</g>
</g>
</svg>
