<?xml version="1.0" encoding="utf-8"?>
<!-- Generator: Adobe Illustrator 16.0.0, SVG Export Plug-In . SVG Version: 6.00 Build 0)  -->
<!DOCTYPE svg PUBLIC "-//W3C//DTD SVG 1.1//EN" "http://www.w3.org/Graphics/SVG/1.1/DTD/svg11.dtd">
<svg version="1.1" id="图层_1" xmlns="http://www.w3.org/2000/svg" xmlns:xlink="http://www.w3.org/1999/xlink" x="0px" y="0px"
	 width="24px" height="24px" viewBox="0 0 24 24" enable-background="new 0 0 24 24" xml:space="preserve">
<polygon fill="#455A64" points="3.634,23 3.634,1 20.366,1 20.366,16.806 14.112,23 "/>
<g>
	<g>
		<g>
			
				<linearGradient id="SVGID_1_" gradientUnits="userSpaceOnUse" x1="53.5996" y1="-141.4004" x2="53.5996" y2="-162.4009" gradientTransform="matrix(1 0 0 -1 -41.6001 -139.9004)">
				<stop  offset="0" style="stop-color:#90A4AE"/>
				<stop  offset="0.1378" style="stop-color:#849AA5"/>
				<stop  offset="0.4226" style="stop-color:#708A97"/>
				<stop  offset="0.7096" style="stop-color:#64808E"/>
				<stop  offset="1" style="stop-color:#607D8B"/>
			</linearGradient>
			<polygon fill="url(#SVGID_1_)" points="4.133,22.5 4.133,1.5 19.867,1.5 19.867,16.594 13.961,22.5 			"/>
		</g>
		<polygon fill="#455A64" fill-opacity="0.39" points="19.867,16.594 19.867,16.34 13.637,16.34 13.637,22.5 13.961,22.5 		"/>
		<path fill="#FFFFFF" fill-opacity="0.39" d="M13.951,16.594l5.916,0.008L13.961,22.5L13.951,16.594z"/>
	</g>
	<path opacity="0.8" fill="#FFFFFF" enable-background="new    " d="M15.963,10.242c0.35,0,0.666,0.14,0.893,0.367V8.64h-3.053
		c0.227-0.227,0.367-0.551,0.367-0.901c0-0.7-0.57-1.269-1.27-1.269s-1.268,0.569-1.268,1.269c0,0.35,0.141,0.666,0.367,0.901H8.955
		v1.978C8.727,10.39,8.412,10.25,8.062,10.25c-0.7,0-1.269,0.568-1.269,1.269s0.569,1.269,1.269,1.269
		c0.35,0,0.665-0.139,0.893-0.367v1.979h3.053c-0.227-0.229-0.367-0.553-0.367-0.902c0-0.7,0.57-1.27,1.27-1.27
		s1.27,0.569,1.27,1.27c0,0.35-0.143,0.665-0.369,0.902h3.055V12.42c-0.229,0.229-0.543,0.367-0.893,0.367
		c-0.699,0-1.27-0.568-1.27-1.269C14.693,10.811,15.264,10.242,15.963,10.242z"/>
</g>
</svg>
