<?xml version="1.0" encoding="utf-8"?>
<!-- Generator: Adobe Illustrator 21.0.0, SVG Export Plug-In . SVG Version: 6.00 Build 0)  -->
<svg version="1.1" id="图层_1" xmlns="http://www.w3.org/2000/svg" xmlns:xlink="http://www.w3.org/1999/xlink" x="0px" y="0px"
	 viewBox="0 0 24 24" style="enable-background:new 0 0 24 24;" xml:space="preserve">
<style type="text/css">
	.st0{fill:#E65100;}
	.st1{fill:url(#SVGID_1_);}
	.st2{fill:#E65100;fill-opacity:0.39;}
	.st3{opacity:0.39;fill:#FFFFFF;enable-background:new    ;}
	.st4{opacity:0.8;}
	.st5{fill:#FFFFFF;}
</style>
<title>gnome-mime-application-magicpoint</title>
<path class="st0" d="M20,2v14l-6,6H4V2H20 M21,1H3v22h11l7-7V1z"/>
<linearGradient id="SVGID_1_" gradientUnits="userSpaceOnUse" x1="12" y1="1534" x2="12" y2="1554" gradientTransform="matrix(1 0 0 1 0 -1532)">
	<stop  offset="0" style="stop-color:#FFB74D"/>
	<stop  offset="1" style="stop-color:#EE6F0B"/>
</linearGradient>
<polygon class="st1" points="4,22 4,2 20,2 20,16 14,22 "/>
<polygon class="st2" points="20,16 20,15 13,15 13,22 14,22 "/>
<path class="st3" d="M14,16h6l-6,6V16z"/>
<g class="st4">
	<rect x="6" y="6" class="st5" width="2" height="9"/>
	<rect x="9" y="11" class="st5" width="2" height="4"/>
	<rect x="12" y="13" class="st5" width="2" height="2"/>
	<path class="st5" d="M14.3,5.4v3.3h3.3c0,1.8-1.5,3.3-3.3,3.3S11,10.5,11,8.7S12.4,5.4,14.3,5.4L14.3,5.4L14.3,5.4z"/>
	<path class="st5" d="M14.7,5C16.5,5,18,6.5,18,8.3l0,0h-3.3V5z"/>
</g>
</svg>
