<?xml version="1.0" encoding="utf-8"?>
<!-- Generator: Adobe Illustrator 21.0.0, SVG Export Plug-In . SVG Version: 6.00 Build 0)  -->
<svg version="1.1" id="图层_1" xmlns="http://www.w3.org/2000/svg" xmlns:xlink="http://www.w3.org/1999/xlink" x="0px" y="0px"
	 viewBox="0 0 24 24" style="enable-background:new 0 0 24 24;" xml:space="preserve">
<style type="text/css">
	.st0{fill:#455A64;}
	.st1{fill:url(#SVGID_1_);}
	.st2{fill:#455A64;fill-opacity:0.39;}
	.st3{fill:#FFFFFF;fill-opacity:0.39;}
	.st4{opacity:0.8;}
	.st5{fill:#FFFFFF;}
</style>
<title>gnome-mime-text-x-makefile</title>
<path class="st0" d="M20,2v14l-6,6H4V2H20 M21,1H3v22h11l7-7V1z"/>
<linearGradient id="SVGID_1_" gradientUnits="userSpaceOnUse" x1="12" y1="1534" x2="12" y2="1554" gradientTransform="matrix(1 0 0 1 0 -1532)">
	<stop  offset="0" style="stop-color:#90A4AE"/>
	<stop  offset="0.14" style="stop-color:#849AA5"/>
	<stop  offset="0.42" style="stop-color:#708A97"/>
	<stop  offset="0.71" style="stop-color:#64808E"/>
	<stop  offset="1" style="stop-color:#607D8B"/>
</linearGradient>
<polygon class="st1" points="4,22 4,2 20,2 20,16 14,22 "/>
<polygon class="st2" points="20,16 20,15 13,15 13,22 14,22 "/>
<path class="st3" d="M14,16h6l-6,6V16z"/>
<g class="st4">
	<path class="st5" d="M13,9.1L13,9.1V9l0,0c0.1-0.2,0.1-0.3,0.2-0.5h0.7V7.1h-0.7c-0.1-0.3-0.2-0.6-0.3-0.8l0.5-0.5l-1-1l-0.5,0.5
		c-0.2-0.1-0.5-0.2-0.7-0.3l0,0V4.3H9.8V5l0,0C9.5,5.1,9.2,5.2,9,5.3L8.5,4.9l-1,1L8,6.3C7.9,6.6,7.7,6.8,7.7,7.1H7v1.4h0.7
		C7.8,8.8,7.9,9,8,9.3l0,0L7.5,9.8l1,1L9,10.3c0.2,0.2,0.5,0.3,0.8,0.3v0.7h1.4v-0.7l0,0c0.3-0.1,0.6-0.2,0.8-0.3l0.5,0.5l1-1
		L13,9.3l0,0V9.1C13,9.2,13,9.1,13,9.1z M10.5,10c-1.2,0-2.2-1-2.2-2.2s1-2.2,2.2-2.2l0,0c0.2,0,0.5,0,0.7,0.1l0,0
		C12,6,12.6,6.9,12.6,7.8c0,0.1,0,0.1,0,0.2l0,0c0,0.2,0,0.3-0.1,0.5l0,0c0,0.1-0.1,0.2-0.1,0.3l0,0c0,0.1-0.1,0.1-0.1,0.2l0,0
		l-0.1,0.1l0,0l-0.1,0.1l0,0C12,9.3,12,9.4,11.9,9.5l0,0l-0.1,0.1l0,0l-0.1,0.1l0,0l-0.1,0.1l0,0l-0.1,0.1l0,0h-0.1
		C11,9.9,10.7,10,10.5,10z"/>
	<path class="st5" d="M16.7,9.9L16.7,9.9L16.7,9.9c0-0.2,0-0.3,0-0.4l0.4-0.1l-0.3-0.7l-0.4,0.1c-0.1-0.1-0.2-0.2-0.3-0.3l0.1-0.4
		l-0.7-0.3l-0.1,0.4c-0.2,0-0.3,0-0.5,0l0,0l-0.1-0.3l-0.7,0.3l0.1,0.4l0,0c-0.1,0.1-0.3,0.2-0.4,0.4l-0.4-0.1l-0.3,0.7l0.4,0.1
		c0,0.2,0,0.3,0,0.5l-0.4,0.1l0.3,0.7l0.4-0.1c0.1,0.1,0.2,0.2,0.3,0.3l0,0L14,11.4l0.7,0.3l0.1-0.4c0.2,0,0.3,0,0.5,0l0.1,0.4
		l0.7-0.3L16,11l0,0c0.1-0.1,0.2-0.2,0.3-0.3l0.4,0.1l0.3-0.7L16.7,9.9L16.7,9.9C16.7,10,16.7,10,16.7,9.9L16.7,9.9z M15.6,10.9
		c-0.6,0.2-1.3-0.1-1.5-0.7c-0.2-0.6,0.1-1.2,0.6-1.5c0.1,0,0.2-0.1,0.4-0.1l0,0c0.5,0,1,0.3,1.2,0.7v0.1l0,0c0,0.1,0.1,0.2,0.1,0.3
		l0,0c0,0.1,0,0.1,0,0.2l0,0V10l0,0v0.1l0,0v0.1l0,0c0,0.1,0,0.1-0.1,0.2l0,0v0.1l0,0v0.1l0,0v0.1l0,0l-0.1,0.1l0,0h-0.1
		C16,10.7,15.8,10.8,15.6,10.9L15.6,10.9z"/>
	<path class="st5" d="M13.7,12.4L13.7,12.4L13.7,12.4c0-0.2,0-0.3,0-0.3L14,12l-0.3-0.6l-0.3,0.1c-0.1-0.1-0.2-0.2-0.3-0.3l0.1-0.3
		l-0.6-0.3L12.5,11c-0.1,0-0.3,0-0.4,0l0,0L12,10.6l-0.6,0.3l0.1,0.3l0,0c-0.1,0.1-0.2,0.2-0.3,0.3l-0.3-0.1L10.7,12l0.3,0.1
		c0,0.1,0,0.3,0,0.4l-0.3,0.1l0.3,0.6l0.3-0.1c0.1,0.1,0.2,0.2,0.3,0.3l0,0l-0.1,0.3L12,14l0.1-0.3c0.1,0,0.3,0,0.4,0l0.1,0.3
		l0.6-0.3l-0.1-0.3l0,0c0.1-0.1,0.2-0.2,0.3-0.3l0.3,0.1l0.3-0.6L13.7,12.4L13.7,12.4L13.7,12.4C13.7,12.5,13.7,12.5,13.7,12.4z
		 M12.7,13.3c-0.6,0.2-1.2,0-1.4-0.6s0-1.2,0.6-1.4l0,0c0.1,0,0.2-0.1,0.3-0.1l0,0c0.5,0,0.9,0.2,1.1,0.6v0.1l0,0c0,0.1,0,0.2,0,0.2
		l0,0v0.1l0,0c0,0,0,0,0,0.1l0,0c0,0,0,0,0,0.1l0,0v0.1l0,0c0,0,0,0.1-0.1,0.1l0,0v0.1l0,0v0.1l0,0v0.1l0,0V13l0,0l0,0
		C13.1,13.1,12.9,13.2,12.7,13.3L12.7,13.3z"/>
</g>
</svg>
