<?xml version="1.0" encoding="utf-8"?>
<!-- Generator: Adobe Illustrator 16.0.0, SVG Export Plug-In . SVG Version: 6.00 Build 0)  -->
<!DOCTYPE svg PUBLIC "-//W3C//DTD SVG 1.1//EN" "http://www.w3.org/Graphics/SVG/1.1/DTD/svg11.dtd">
<svg version="1.1" id="图层_1" xmlns="http://www.w3.org/2000/svg" xmlns:xlink="http://www.w3.org/1999/xlink" x="0px" y="0px"
	 width="24px" height="24px" viewBox="0 0 24 24" enable-background="new 0 0 24 24" xml:space="preserve">
<polygon fill="#455A64" points="3.634,23 3.634,1 20.366,1 20.366,16.807 14.111,23 "/>
<g>
	<g>
		<g>
			
				<linearGradient id="SVGID_1_" gradientUnits="userSpaceOnUse" x1="95.1973" y1="826.2998" x2="95.1973" y2="847.3008" gradientTransform="matrix(1 0 0 1 -83.2002 -824.8008)">
				<stop  offset="0" style="stop-color:#90A4AE"/>
				<stop  offset="0.1378" style="stop-color:#849AA5"/>
				<stop  offset="0.4226" style="stop-color:#708A97"/>
				<stop  offset="0.7096" style="stop-color:#64808E"/>
				<stop  offset="1" style="stop-color:#607D8B"/>
			</linearGradient>
			<polygon fill="url(#SVGID_1_)" points="4.13,22.5 4.13,1.5 19.862,1.5 19.862,16.595 13.957,22.5 			"/>
		</g>
		<polygon fill="#455A64" fill-opacity="0.39" points="19.862,16.595 19.862,16.339 13.633,16.339 13.633,22.5 13.957,22.5 		"/>
		<path fill="#FFFFFF" fill-opacity="0.39" d="M13.949,16.595l5.915,0.007L13.957,22.5L13.949,16.595z"/>
	</g>
	<path opacity="0.8" fill="#FFFFFF" enable-background="new    " d="M15.96,11.064c0.35,0,0.666,0.14,0.893,0.366V9.463H13.8
		c0.228-0.228,0.366-0.554,0.366-0.903c0-0.7-0.567-1.268-1.268-1.268c-0.701,0-1.269,0.568-1.269,1.268
		c0,0.35,0.139,0.667,0.367,0.903H8.951v1.977c-0.227-0.229-0.542-0.369-0.892-0.369c-0.7,0-1.268,0.569-1.268,1.27
		c0,0.7,0.568,1.269,1.268,1.269c0.35,0,0.665-0.139,0.894-0.369v1.979h3.053c-0.228-0.228-0.368-0.552-0.368-0.901
		c0-0.7,0.567-1.269,1.269-1.269c0.699,0,1.268,0.568,1.268,1.269c0,0.35-0.141,0.666-0.368,0.902h3.054v-1.977
		c-0.227,0.228-0.543,0.366-0.893,0.366c-0.699,0-1.267-0.568-1.267-1.269C14.691,11.632,15.26,11.064,15.96,11.064z"/>
	<g>
		<rect x="4.13" y="1.5" opacity="0.8" fill="#FFFFFF" width="15.74" height="4.025"/>
		<g>
			<path fill="#455A64" d="M10.744,3.51c0,0.269-0.042,0.504-0.126,0.708c-0.084,0.205-0.2,0.375-0.346,0.512
				S9.952,4.971,9.751,5.04c-0.202,0.069-0.419,0.104-0.65,0.104c-0.226,0-0.438-0.035-0.639-0.104
				c-0.2-0.069-0.375-0.173-0.524-0.311C7.789,4.592,7.671,4.422,7.585,4.218C7.5,4.014,7.457,3.779,7.457,3.51
				c0-0.269,0.044-0.505,0.133-0.709s0.209-0.375,0.36-0.514s0.326-0.243,0.524-0.313c0.198-0.069,0.407-0.104,0.626-0.104
				c0.225,0,0.438,0.035,0.638,0.104s0.375,0.174,0.524,0.313c0.15,0.139,0.267,0.31,0.353,0.514
				C10.702,3.005,10.744,3.241,10.744,3.51z M8.224,3.51c0,0.154,0.02,0.292,0.059,0.416s0.097,0.23,0.171,0.319
				c0.075,0.089,0.166,0.158,0.274,0.206C8.836,4.5,8.96,4.524,9.101,4.524c0.136,0,0.259-0.024,0.369-0.073
				c0.109-0.047,0.202-0.116,0.276-0.206C9.82,4.156,9.878,4.05,9.917,3.926c0.04-0.124,0.06-0.262,0.06-0.416
				c0-0.154-0.02-0.294-0.06-0.419C9.878,2.966,9.82,2.859,9.746,2.77C9.671,2.681,9.579,2.612,9.47,2.564
				C9.36,2.516,9.237,2.491,9.101,2.491c-0.14,0-0.264,0.025-0.372,0.075c-0.108,0.05-0.2,0.12-0.274,0.208S8.323,2.971,8.283,3.096
				C8.244,3.221,8.224,3.359,8.224,3.51z"/>
			<path fill="#455A64" d="M12.985,5.081c-0.093-0.175-0.194-0.352-0.306-0.531c-0.11-0.18-0.237-0.331-0.381-0.455
				c-0.044,0.046-0.101,0.111-0.169,0.194s-0.136,0.171-0.204,0.265c-0.068,0.093-0.132,0.189-0.191,0.29
				c-0.06,0.101-0.104,0.179-0.133,0.236h-0.848c0.139-0.245,0.303-0.498,0.492-0.759c0.189-0.26,0.4-0.538,0.633-0.831
				l-1.077-1.546h0.9l0.629,0.908l0.643-0.908h0.848L12.75,3.458c0.28,0.335,0.512,0.642,0.693,0.92
				c0.183,0.278,0.325,0.513,0.431,0.703H12.985z"/>
			<path fill="#455A64" d="M16.78,1.944v0.602h-0.996v2.535h-0.743V2.545h-0.995V1.944H16.78z"/>
		</g>
	</g>
</g>
</svg>
