<?xml version="1.0" encoding="utf-8"?>
<!-- Generator: Adobe Illustrator 21.0.0, SVG Export Plug-In . SVG Version: 6.00 Build 0)  -->
<svg version="1.1" id="图层_1" xmlns="http://www.w3.org/2000/svg" xmlns:xlink="http://www.w3.org/1999/xlink" x="0px" y="0px"
	 viewBox="0 0 24 24" style="enable-background:new 0 0 24 24;" xml:space="preserve">
<style type="text/css">
	.st0{fill:#455A64;}
	.st1{fill:url(#SVGID_1_);}
	.st2{fill:#455A64;fill-opacity:0.39;}
	.st3{opacity:0.39;fill:#FFFFFF;enable-background:new    ;}
	.st4{opacity:0.8;fill:#FFFFFF;enable-background:new    ;}
</style>
<title>libreoffice-extension</title>
<path class="st0" d="M20,2v14l-6,6H4V2H20 M21,1H3v22h11l7-7V1z"/>
<linearGradient id="SVGID_1_" gradientUnits="userSpaceOnUse" x1="12" y1="1534" x2="12" y2="1554" gradientTransform="matrix(1 0 0 1 0 -1532)">
	<stop  offset="0" style="stop-color:#90A4AE"/>
	<stop  offset="0.14" style="stop-color:#849AA5"/>
	<stop  offset="0.42" style="stop-color:#708A97"/>
	<stop  offset="0.71" style="stop-color:#64808E"/>
	<stop  offset="1" style="stop-color:#607D8B"/>
</linearGradient>
<polygon class="st1" points="4,22 4,2 20,2 20,16 14,22 "/>
<polygon class="st2" points="20,16 20,15 13,15 13,22 14,22 "/>
<path class="st3" d="M14,16h6l-6,6V16z"/>
<path class="st4" d="M16.1,8.8c0.3,0,0.7,0.1,0.9,0.4v-2h-3c0.2-0.2,0.4-0.6,0.4-0.9c0-0.7-0.6-1.3-1.3-1.3s-1.3,0.6-1.3,1.3l0,0
	c0,0.3,0.1,0.7,0.4,0.9h-3v2C9,8.9,8.6,8.8,8.3,8.8C7.6,8.8,7,9.4,7,10.1c0,0.7,0.6,1.3,1.3,1.3c0.3,0,0.6-0.1,0.8-0.4v2h3
	c-0.2-0.2-0.4-0.6-0.4-0.9c0-0.7,0.6-1.3,1.3-1.3s1.3,0.6,1.3,1.3l0,0c0,0.3-0.1,0.7-0.3,0.9h3v-2c-0.2,0.2-0.6,0.4-0.9,0.4
	c-0.7,0-1.3-0.6-1.3-1.3l0,0C14.8,9.4,15.4,8.8,16.1,8.8L16.1,8.8z"/>
</svg>
