<?xml version="1.0" encoding="utf-8"?>
<!-- Generator: Adobe Illustrator 21.0.0, SVG Export Plug-In . SVG Version: 6.00 Build 0)  -->
<svg version="1.1" id="图层_1" xmlns="http://www.w3.org/2000/svg" xmlns:xlink="http://www.w3.org/1999/xlink" x="0px" y="0px"
	 viewBox="0 0 24 24" style="enable-background:new 0 0 24 24;" xml:space="preserve">
<style type="text/css">
	.st0{fill:#5F7B89;}
	.st1{fill:url(#SVGID_1_);}
	.st2{fill:#455963;fill-opacity:0.7;}
	.st3{fill:#8DA1AC;}
	.st4{fill:#607D8B;}
</style>
<title>text-tex</title>
<path class="st0" d="M20,2v14l-6,6H4V2H20 M21,1H3v22h11l7-7V1z"/>
<linearGradient id="SVGID_1_" gradientUnits="userSpaceOnUse" x1="12" y1="-718" x2="12" y2="-738" gradientTransform="matrix(1 0 0 -1 0 -716)">
	<stop  offset="0" style="stop-color:#F6F5F5"/>
	<stop  offset="0.34" style="stop-color:#F1F2F3"/>
	<stop  offset="0.64" style="stop-color:#E7EAEB"/>
	<stop  offset="0.93" style="stop-color:#D5DBDF"/>
	<stop  offset="1" style="stop-color:#CFD7DB"/>
</linearGradient>
<polygon class="st1" points="4,22 4,2 20,2 20,16 14,22 "/>
<polygon class="st2" points="20,16 20,15 13,15 13,22 14,22 "/>
<path class="st3" d="M14,16h6l-6,6V16z"/>
<g>
	<path class="st4" d="M9.9,7L9.7,7.9H8.3L7.4,12h-1l0.9-4.1H6L6.2,7H9.9z"/>
	<path class="st4" d="M9.4,12l1.1-5h3l-0.2,0.9h-2l-0.2,1h1.7l-0.2,0.9h-1.7L10.6,11h2.1l-0.2,1H9.4z"/>
	<path class="st4" d="M16.1,12l-0.2-0.6L15.8,11l-0.1-0.4l-0.2-0.4L14.2,12H13l2.1-2.7l-1-2.3h1.1l0.5,1.5C16,8.3,16.2,8,16.4,7.8
		L16.9,7H18l-0.4,0.6l-0.4,0.6l-0.5,0.6l-0.5,0.6l0.3,0.6c0.1,0.2,0.2,0.4,0.2,0.6c0.1,0.2,0.1,0.4,0.2,0.6l0.2,0.7L16.1,12z"/>
</g>
</svg>
