<?xml version="1.0" encoding="utf-8"?>
<!-- Generator: Adobe Illustrator 16.0.0, SVG Export Plug-In . SVG Version: 6.00 Build 0)  -->
<!DOCTYPE svg PUBLIC "-//W3C//DTD SVG 1.1//EN" "http://www.w3.org/Graphics/SVG/1.1/DTD/svg11.dtd">
<svg version="1.1" id="图层_1" xmlns="http://www.w3.org/2000/svg" xmlns:xlink="http://www.w3.org/1999/xlink" x="0px" y="0px"
	 width="24px" height="24px" viewBox="0 0 24 24" enable-background="new 0 0 24 24" xml:space="preserve">
<polygon fill="#0D47A1" points="3.634,23 3.634,1 20.366,1 20.366,16.806 14.112,23 "/>
<g>
	<g>
		<g>
			
				<linearGradient id="SVGID_1_" gradientUnits="userSpaceOnUse" x1="53.6006" y1="-162.3999" x2="53.6006" y2="-141.4004" gradientTransform="matrix(1 0 0 -1 -41.6001 -139.9004)">
				<stop  offset="0" style="stop-color:#1976D2"/>
				<stop  offset="0.0226" style="stop-color:#1C79D3"/>
				<stop  offset="0.2859" style="stop-color:#3B93E2"/>
				<stop  offset="0.5416" style="stop-color:#52A6ED"/>
				<stop  offset="0.7843" style="stop-color:#5FB1F4"/>
				<stop  offset="1" style="stop-color:#64B5F6"/>
			</linearGradient>
			<polygon fill="url(#SVGID_1_)" points="4.133,22.5 4.133,1.5 19.867,1.5 19.867,16.594 13.961,22.5 			"/>
		</g>
		<polygon fill="#0D47A1" fill-opacity="0.39" points="19.867,16.594 19.867,16.34 13.637,16.34 13.637,22.5 13.961,22.5 		"/>
		<path fill="#FFFFFF" fill-opacity="0.45" d="M13.951,16.594l5.916,0.008L13.961,22.5L13.951,16.594z"/>
	</g>
	<path fill="#64B5F6" d="M17.469,10.425c0,3.019-2.45,5.469-5.469,5.469s-5.469-2.45-5.469-5.469S8.981,4.956,12,4.956
		S17.469,7.406,17.469,10.425z"/>
	<path fill="#FFFFFF" fill-opacity="0.8" d="M8.412,6.304c0,0,0.113,0.06,0.157,0.157c0.036,0.096,0.157,0.096,0.157,0.096h0.175
		l0.255-0.078L9.095,6.619c0,0-1.339,0.621-1.068,0.989c0.272,0.368,0.176,0.463,0.176,0.578c0,0.113,0.079,0.017,0.079,0.017
		L8.36,7.993l0.113-0.157l0.113-0.175l0.036-0.097L8.78,7.293l0.192-0.114l0.175,0.114c0,0,0.078,0.034,0.061,0.096
		C9.191,7.45,9.174,7.563,9.174,7.563S9.208,7.643,9.27,7.643s0.157-0.062,0.157-0.062l0.079,0.14l0.062,0.254l0.157,0.157
		l0.08,0.175l-0.08,0.157l0.08,0.062l0.175,0.193l0.034,0.096L9.725,8.798c0,0-0.035-0.079-0.096-0.079
		c-0.062,0-0.306-0.018-0.306-0.018L9.182,8.736L9.104,8.832c0,0-0.098,0.157-0.159,0.157c-0.06,0-0.209-0.034-0.209-0.034
		S8.623,8.92,8.562,9.033C8.5,9.148,8.657,9.208,8.657,9.208l-0.271,0.08l-0.08,0.036c0,0-0.192,0.078-0.192,0.139s0,0.062,0,0.062
		L8.054,9.681v0.096L7.913,9.892l-0.14,0.096l-0.062,0.114v0.193c0,0-0.018,0.096-0.018,0.157s0,0.211,0,0.211
		S7.633,10.723,7.599,10.6c-0.035-0.113-0.035-0.113-0.035-0.113l-0.062-0.141c0,0,0.062-0.017-0.017-0.078
		c-0.079-0.062-0.158-0.079-0.158-0.079s-0.034-0.034-0.114-0.034c-0.077,0,0.098,0.017-0.077,0
		C6.96,10.137,6.96,10.137,6.96,10.137L6.819,10.25v0.096c0,0-0.034,0.684,0.157,0.779h0.079L7.17,10.95l0.097,0.035v0.078
		l-0.018,0.141v0.078l0.096,0.097l0.062,0.176c0.079,0.139,0.035,0.175,0.096,0.209c0.062,0.035,0.114,0.141,0.114,0.141
		l0.078,0.034c0,0,0.062,0.018,0.113,0.036c0.062,0.018,0.062,0.018,0.062,0.018l0.019,0.087l0.018,0.069l0.078,0.096
		c0,0-0.061,0,0.079,0s0.14,0,0.14,0s0,0.036,0.097,0.08c0.096,0.034,0.018,0.018,0.096,0.034c0.079,0.018,0.211,0.035,0.211,0.035
		c0.139-0.018,0.139-0.018,0.139-0.018l0.098,0.141c0,0,0.06,0,0.078,0.061c0.018,0.062-0.096,0,0.018,0.062s0,0.018,0.113,0.062
		s-0.034,0.035,0.113,0.035c0.149,0,0.175,0,0.236,0.017c0.062,0.018,0.098,0.158,0.098,0.158c0.113,0.14,0.113,0.14,0.113,0.14
		l0.018,0.175c0,0-0.062,0.036,0.078,0.036c0.141,0,0.036,0,0.141,0s-0.018-0.036,0.096,0c0.114,0.034,0.114,0.034,0.114,0.034
		s0.175,0.141,0.236,0.141s0.175-0.018,0.236,0c0.062,0.017,0.096,0.113,0.209,0.14c0.115,0.018,0.159,0,0.236,0.062
		c0.08,0.062,0.08,0.062,0.08,0.062l0.018,0.209l-0.062,0.113l-0.157,0.062l-0.018,0.193l-0.08,0.192v0.096
		c0,0,0.098,0.079-0.077,0.097c-0.176,0.017-0.176,0.017-0.176,0.017l-0.079,0.079c0,0,0,0.019-0.035,0.08
		c-0.034,0.06-0.078,0.157-0.078,0.157l0.018,0.175v0.113l-0.062,0.096c0,0-0.053,0.027,0.096,0.123
		c0.157,0.096,0.28,0.096,0.316,0.157c0.034,0.062,0.131,0.113,0.131,0.113L10.6,15.727l-0.131-0.043l-0.219-0.061l-0.42-0.219
		c0,0-0.63-0.517-0.823-0.937c0,0-0.165-0.245-0.445-0.35c0,0-0.692-0.631-0.754-0.788l-0.025-0.105v-0.052l-0.026-0.027v-0.06
		l-0.018-0.044l0.01-0.192l0.008-0.132l0.009-0.069l-0.009-0.054c0,0-0.035-0.034-0.035-0.044c0-0.008-0.026-0.088-0.026-0.088
		l-0.008-0.025l0.105-0.088l-0.027-0.079l0.018-0.044l0.062-0.043c0,0,0.035-0.053,0.035-0.061c0-0.018-0.062-0.062-0.062-0.062
		L7.792,12.07l-0.027,0.078H7.73c0,0-0.036-0.018-0.036-0.025c0-0.01-0.034-0.044-0.034-0.044l-0.044-0.018
		c0,0-0.035-0.01-0.043-0.026c-0.01-0.018-0.054-0.043-0.054-0.053c0-0.008-0.034-0.062-0.034-0.062l-0.044-0.017
		c0,0-0.053-0.079-0.053-0.098c0-0.008-0.026-0.051-0.026-0.051s-0.062-0.07-0.062-0.08c0-0.008-0.026-0.069-0.026-0.069H7.231
		L7.136,11.57l-0.062-0.078l-0.07-0.078c0,0-0.035-0.063-0.035-0.078c0-0.018-0.026-0.036-0.026-0.036H6.898H6.873l-0.062-0.052
		l-0.157-0.219l-0.027-0.098l-0.026-0.104l-0.018-0.175v-0.113L6.514,9.725C6.539,9.733,6.775,7.721,8.412,6.304z"/>
	<path fill="#FFFFFF" fill-opacity="0.8" d="M14.591,5.621l0.175,0.141l0.088,0.043l0.06,0.07l0.01,0.07c0,0,0.018,0.07,0.009,0.087
		s-0.019,0.113-0.019,0.113s0.08,0.141,0.08,0.159c0,0.017,0.008,0.096-0.009,0.114c-0.018,0.008-0.114,0.069-0.123,0.043
		c-0.008-0.026-0.069-0.087-0.087-0.087c-0.019-0.01-0.07-0.062-0.07-0.062l0.14-0.018l-0.018-0.088c0,0-0.096-0.034-0.122-0.034
		c-0.025-0.009-0.123-0.062-0.123-0.062l-0.105-0.026c0,0-0.175-0.043-0.191-0.053c-0.018-0.008-0.087-0.034-0.087-0.034h-0.149
		c0,0-0.071,0.034-0.087,0.052c-0.01,0.018-0.098,0.114-0.098,0.114s-0.008,0.113-0.008,0.131c0,0.018-0.026,0.062-0.026,0.113
		c0,0.053-0.01,0.123-0.01,0.141c0,0.018,0,0.044,0,0.044l-0.018,0.078l-0.06,0.035l-0.08,0.062c0,0-0.069,0.052-0.069,0.07
		c0,0.018,0,0.087,0.026,0.14c0.025,0.053,0.018,0.105,0.052,0.131c0.035,0.027,0.053,0.062,0.079,0.071
		c0.026,0.008,0.008,0.017,0.052,0.017c0.036,0,0.071,0.009,0.088-0.008c0.018-0.008,0.062-0.008,0.079-0.036
		c0.018-0.026-0.018-0.008,0.018-0.026c0.034-0.008,0.034-0.034,0.062-0.008c0.034,0.026,0.062,0.062,0.07,0.078
		c0.008,0.018,0.035,0.062,0.062,0.087c0.034,0.018,0.062,0.087,0.062,0.087l0.052,0.053c0,0,0.008,0.008,0.044,0.008
		c0.035,0,0.087-0.008,0.087-0.008l0.018-0.035c0,0,0.034,0.009,0.044-0.008c0.009-0.018,0.009-0.044,0.009-0.044
		s-0.019-0.053-0.034-0.07c-0.01-0.018-0.027-0.062-0.027-0.062l0.009-0.062l0.034-0.035l0.01-0.044V7.013L14.45,6.995L14.389,6.96
		c0,0-0.034,0.008-0.034-0.036c-0.01-0.035-0.01-0.035-0.01-0.035l-0.078-0.017l-0.053-0.027l0.062-0.044
		c0.035-0.06,0.043-0.078,0.043-0.096c0-0.018-0.008-0.069-0.008-0.069s-0.035-0.01-0.035-0.054
		c-0.009-0.043-0.009-0.069-0.009-0.069l0.009-0.034c0,0,0.009-0.027,0.035-0.027c0.018,0,0.052,0.027,0.069,0.027
		c0.019,0,0.053,0.008,0.053,0.008s0.018,0.008,0.018,0.036c0,0.017-0.009,0.06-0.009,0.06l0.034-0.052v0.062l-0.008,0.07v0.07
		l0.035,0.069l0.034,0.054c0,0,0.044,0.043,0.062,0.062C14.617,6.925,14.66,6.96,14.66,6.96l0.053,0.026l0.035,0.008l0.034-0.034
		c0,0,0.062,0.008,0.062-0.009c0.01-0.018,0.01-0.018,0.01-0.018s0.069-0.008,0.087-0.008c0.017,0,0.053,0,0.053,0
		s0.025,0.052,0.008,0.052c-0.017,0-0.026,0.018-0.069,0.036c-0.044,0.008-0.062,0-0.07,0.018c-0.008,0.018-0.035,0.062-0.035,0.062
		L14.861,7.1h0.026l0.035,0.036c0,0,0.009,0.008,0,0.034c-0.01,0.026,0.034,0.018-0.01,0.026c-0.052,0.009-0.077-0.008-0.077-0.008
		s-0.01-0.044-0.036-0.026c-0.018,0.018-0.025,0.062-0.025,0.062v0.06l0.035,0.087c0,0,0.017,0.018,0,0.027
		c-0.018,0.008-0.079,0.078-0.079,0.078s-0.009,0.026-0.036,0.026c-0.016,0-0.043,0-0.087,0.01c-0.034,0.008-0.034,0.008-0.07,0.018
		c-0.034,0.008-0.062,0.017-0.113,0.026c-0.052,0.008-0.148,0.008-0.183,0.008c-0.036,0-0.044,0-0.062-0.008
		c-0.019-0.009-0.01,0-0.036-0.036c-0.025-0.034-0.052-0.062-0.052-0.087c0-0.018,0-0.026-0.01-0.062
		c-0.008-0.034-0.008-0.06-0.034-0.06c-0.035,0-0.035,0-0.035,0s-0.07,0.052-0.062,0.07c0.01,0.018-0.009,0,0.053,0.043
		c0.061,0.044,0.078,0.105,0.078,0.105l-0.008,0.06l-0.113,0.062l-0.08,0.026L13.873,7.73c0,0,0,0.018-0.018,0.043
		s-0.062,0.062-0.062,0.062S13.758,7.844,13.75,7.87c-0.008,0.018-0.035,0.087-0.035,0.087s-0.034-0.008-0.07,0.018
		c-0.034,0.026,0.01,0.026-0.069,0.062c-0.079,0.034-0.079,0.034-0.079,0.034l-0.088-0.008L13.356,8.08c0,0-0.07,0.008-0.079,0.026
		c-0.009,0.018-0.044,0.069-0.044,0.069s-0.017,0.036,0,0.036c0.018,0.008,0.044,0,0.087,0.008c0.036,0.01,0.044,0.01,0.071,0.026
		c0.026,0.01,0.052,0.036,0.052,0.036l0.096,0.087l0.054,0.114l-0.01,0.087l-0.104,0.036c0,0-0.062,0-0.088,0
		c-0.018,0-0.01,0-0.114,0s-0.122,0-0.14,0s-0.088-0.01-0.088-0.01l-0.062,0.01L12.944,8.64l-0.025,0.009
		c0,0,0.035,0.078,0.035,0.105c0,0.026,0,0.06,0,0.06l-0.01,0.053l-0.025,0.062l-0.036,0.06l0.01,0.036c0,0-0.01,0.026,0.009,0.026
		c0.018,0,0.069-0.008,0.069,0.01c0,0.017-0.044,0.087-0.044,0.087l0.088,0.017c0,0-0.009-0.008,0.044,0.009
		C13.111,9.182,13.146,9.2,13.146,9.2l0.062,0.043l0.018,0.036l0.019-0.036c0,0,0.096-0.008,0.113-0.018
		c0.018-0.008,0.062-0.008,0.062-0.008h0.078c0,0,0.018,0.008,0.035-0.01c0.008-0.016,0.008-0.016,0.008-0.016
		s0.088-0.036,0.105-0.053c0.018-0.008,0.026-0.062,0.026-0.062s0.027-0.017,0.027-0.034c0-0.018-0.018-0.062-0.018-0.062V8.946
		l0.025-0.034c0,0,0.009-0.01,0.036-0.036c0.025-0.026,0.025-0.026,0.025-0.026s-0.01-0.008,0.026-0.026
		c0.035-0.01,0.062-0.036,0.079-0.036c0.017,0-0.018,0.018,0.017,0c0.035-0.018,0.044-0.034,0.044-0.062
		c0-0.017,0.009-0.114,0.009-0.114l0.034-0.052l0.088,0.008l0.045,0.009c0,0,0.052,0.008,0.061-0.009
		c0.01-0.018,0.035-0.034,0.035-0.034l0.07-0.036c0,0-0.009-0.008,0.025-0.008c0.036,0,0.088,0,0.115,0c0.017,0,0.06,0,0.06,0
		s0.036,0.017,0.054,0.034c0.008,0.018,0.034,0.062,0.034,0.062l0.027,0.036h0.026c0.034,0.026,0.052,0.044,0.113,0.06
		c0.062,0.018,0.105,0.036,0.105,0.036s0.018,0.036,0.034,0.052c0.018,0.018,0.035,0.036,0.062,0.054
		c0.018,0.008,0.035,0.026,0.043,0.043c0.01,0.018,0.036,0.052,0.036,0.052l0.034,0.035l0.018-0.035V8.858l-0.008-0.034
		c0,0-0.036-0.026,0.008-0.026c0.035,0,0.062,0,0.062,0l-0.035-0.053l-0.044-0.018l-0.061-0.044l-0.027-0.026l-0.025-0.008
		l-0.026-0.018L14.87,8.605c0,0-0.061-0.01-0.061-0.036C14.8,8.552,14.8,8.552,14.8,8.552l-0.062-0.008c0,0-0.06-0.036-0.06-0.052
		c0-0.018-0.01-0.071-0.01-0.071l-0.052-0.008c0,0,0.008-0.036,0.008-0.062c0-0.018,0.018-0.044,0.018-0.044l0.113-0.008
		l0.026,0.062l0.044,0.026l0.062,0.026l0.025,0.036l0.027,0.026c0,0,0.009,0.008,0.044,0.018c0.034,0.008,0.061,0.017,0.061,0.017
		s0.035,0.036,0.062,0.036c0.025,0.008,0.035,0.018,0.062,0.026C15.15,8.587,15.15,8.587,15.15,8.587s0.009,0.018,0.035,0.036
		c0.026,0.017,0.052,0.052,0.052,0.07c0,0.018,0.018,0.078,0.036,0.087c0.018,0.008,0.025,0.008,0.062,0.044
		c0.034,0.034,0.034,0.069,0.06,0.087c0.036,0.008,0.062,0,0.062,0.034c0.01,0.036,0.01,0.062,0.01,0.062s0.026,0.009,0.044,0.009
		c0.017,0,0.052-0.035,0.052-0.035s0.035-0.052,0.008-0.062c-0.016-0.008-0.06-0.008-0.06-0.026c0-0.018,0-0.113,0-0.113
		l0.025-0.062l0.034-0.052l0.054,0.016l0.052-0.034l0.054,0.062l-0.018,0.07c0,0,0.008,0.044,0.034,0.078
		c0.018,0.035,0.062,0.079,0.062,0.079l0.087,0.079l0.123,0.034l0.026-0.008l0.183-0.036c0,0,0.027,0,0.044,0
		c0.018,0,0.105,0.149,0.105,0.149s0,0.062,0,0.096c0,0.036,0,0.123,0,0.123s-0.062,0.062-0.088,0.062
		c-0.025,0-0.096,0.034-0.096,0.034l-0.148,0.036l-0.096-0.008l-0.175-0.01c0,0-0.176-0.008-0.193-0.008s-0.079,0-0.097,0
		c-0.017,0-0.044,0.018-0.061,0.069c-0.018,0.052-0.053,0.07-0.053,0.07s0,0.026-0.034,0.026c-0.036,0-0.036,0.01-0.062-0.008
		c-0.026-0.018-0.149-0.044-0.149-0.044l-0.113-0.079l-0.062-0.052l-0.062-0.008h-0.175l-0.114-0.009l0.019-0.183l0.018,0.052
		l-0.036-0.122l-0.052-0.036L14.424,9.13l-0.079,0.008l-0.104,0.026L14.136,9.2l-0.062,0.018L13.776,9.27l-0.105,0.044
		c0,0-0.044,0.026-0.061,0.036c-0.018,0.008-0.087,0.008-0.087,0.008s-0.054-0.008-0.08-0.018c-0.025-0.008-0.087-0.008-0.113-0.008
		c-0.025,0-0.079-0.008-0.097,0c-0.017,0.008-0.034,0.008-0.052,0.036c-0.019,0.026-0.08,0.096-0.08,0.096s-0.034,0.036-0.052,0.052
		c-0.008,0.018-0.052,0.071-0.052,0.071l-0.071,0.114l-0.044,0.052l0.01,0.062v0.044c0,0-0.025,0.026-0.044,0.035
		c-0.018,0.008-0.053,0.026-0.053,0.026s-0.026,0.008-0.052,0.034C12.718,9.97,12.718,9.979,12.7,9.996
		c-0.018,0.018-0.079,0.062-0.079,0.062s-0.034,0.026-0.061,0.053c-0.018,0.026-0.054,0.061-0.062,0.078
		c-0.01,0.018-0.035,0.036-0.054,0.044c-0.016,0.009-0.052,0.079-0.06,0.097c-0.01,0.017-0.062,0.096-0.062,0.096l-0.036,0.149
		l-0.008,0.069c0,0,0.008,0.026,0.026,0.044c0.018,0.018,0.035,0.088,0.035,0.088v0.061c0,0-0.018,0.053-0.027,0.07
		c-0.008,0.018,0.01,0.105,0.01,0.105v0.052c0,0,0,0.018-0.026,0.044c-0.027,0.025-0.035,0.062-0.035,0.062l0.035,0.079l0.026,0.052
		v0.036l0.034,0.06c0,0,0.018,0.019,0.035,0.036c0.018,0.008,0.026,0.008,0.062,0.035c0.034,0.017,0.034,0.017,0.034,0.017
		s0.054,0.062,0.054,0.087c0,0.018,0.034,0.054,0.034,0.054l0.062,0.062c0,0,0.01,0.034,0.044,0.061
		c0.035,0.027,0.069,0.043,0.087,0.061c0.018,0.01,0.07,0.054,0.113,0.063c0.036,0.008,0.054,0.018,0.071,0.018
		c0.017,0-0.027-0.054,0.096,0.008s0.201,0.088,0.201,0.088l0.088,0.035c0,0,0.141,0.008,0.157-0.01C13.514,12,13.539,12,13.558,12
		c0.018,0,0.062,0,0.097,0c0.034,0,0.157-0.018,0.157-0.018l0.14-0.053c0,0,0.044-0.025,0.062-0.035
		c0.018-0.008,0.069-0.043,0.087-0.052c0.019-0.01,0.105-0.01,0.105-0.01s0-0.026,0.036,0c0.034,0.027,0.034,0.036,0.043,0.054
		s0.009,0.062,0.034,0.062c0.026,0.008,0.088,0.026,0.088,0.026s0.088-0.01,0.113,0c0.027,0.008,0.088,0.008,0.088,0.008
		l0.027,0.035l0.008,0.078v0.071c0,0-0.008,0.026,0,0.052c0.009,0.025,0.036,0.07,0.036,0.07s-0.036,0.053-0.054,0.061
		c-0.018,0.009-0.062,0.063-0.062,0.063l0.123,0.113l0.069,0.069l0.054,0.062c0,0,0.008,0.025,0.008,0.044
		c0,0.018-0.008,0.062,0,0.087c0.009,0.018,0.009,0.088,0.009,0.088s0.01,0.052,0.01,0.07c0,0.018-0.019,0.104-0.019,0.104
		l-0.008,0.062l-0.035,0.105l-0.044,0.052l-0.062,0.062l-0.044,0.07l-0.008,0.096l-0.036,0.062c0,0,0.01,0.053,0.01,0.079
		c0,0.025,0.052,0.121,0.052,0.121l-0.008,0.08c0,0-0.036,0.113-0.036,0.139c0,0.027-0.025,0.062-0.025,0.088
		c0,0.018-0.01,0.097-0.01,0.097l0.01,0.096l0.034,0.098l-0.034,0.087c0,0-0.018,0.07-0.018,0.114c0,0.034,0.062,0.077,0.079,0.077
		c0.017,0,0.096-0.008,0.131-0.034c0.034-0.018,0.122-0.043,0.14-0.053c0.018-0.009,0.035,0.01,0.088-0.034
		c0.052-0.036,0.131-0.098,0.131-0.098s0.062-0.043,0.088-0.06c0.018-0.018,0.104-0.115,0.104-0.115s0.062-0.06,0.105-0.087
		c0.044-0.026,0-0.009,0.044-0.034c0.044-0.026,0.184-0.142,0.184-0.142l0.139-0.139c0,0,0.123-0.157,0.142-0.184
		c0.018-0.027,0.131-0.175,0.148-0.185c0.017-0.009,0.175-0.113,0.209-0.14c0.036-0.025,0.08-0.211,0.098-0.236
		c0.017-0.018,0.113-0.236,0.113-0.236l0.088-0.253l0.148-0.378l0.147-0.262c0,0,0.062-0.113,0.088-0.148
		c0.018-0.035,0.158-0.306,0.158-0.306l0.053-0.229l0.018-0.192H17.11l-0.097,0.087l-0.088-0.026l-0.087,0.01l0.097-0.123
		l-0.026-0.096l-0.079-0.061l-0.105-0.158v-0.158l-0.113-0.183l-0.069-0.289c0,0-0.132-0.141-0.113-0.175
		c0.008-0.036,0.043-0.141,0.043-0.141l0.07,0.036c0,0,0.052,0.14,0.078,0.149c0.027,0.008,0.062,0.078,0.07,0.096
		c0.009,0.018,0.017,0.08,0.034,0.097c0.01,0.017,0.07,0.131,0.07,0.131s0.044,0.113,0.053,0.139
		c0.009,0.018,0.053,0.088,0.062,0.14c0.009,0.053,0.034,0.219,0.034,0.236s0.044,0.201,0.044,0.201s0.062-0.017,0.07-0.034
		s0.009-0.026,0.027-0.044c0.008-0.018,0.113-0.097,0.113-0.097l0.044-0.14c0,0,0.025-0.062,0.034-0.088
		c0.009-0.025,0.062-0.123,0.062-0.139c0-0.018-0.009-0.087,0-0.115c0.009-0.017,0.035-0.122,0.035-0.14
		c0-0.018,0.008-0.087,0.008-0.087l-0.008-0.157l0.069-0.087l0.036-0.097C17.461,9.743,17.206,6.995,14.591,5.621z"/>
</g>
</svg>
