<?xml version="1.0" encoding="utf-8"?>
<!-- Generator: Adobe Illustrator 16.0.0, SVG Export Plug-In . SVG Version: 6.00 Build 0)  -->
<!DOCTYPE svg PUBLIC "-//W3C//DTD SVG 1.1//EN" "http://www.w3.org/Graphics/SVG/1.1/DTD/svg11.dtd">
<svg version="1.1" id="图层_1" xmlns="http://www.w3.org/2000/svg" xmlns:xlink="http://www.w3.org/1999/xlink" x="0px" y="0px"
	 width="24px" height="24px" viewBox="0 0 24 24" enable-background="new 0 0 24 24" xml:space="preserve">
<g>
	
		<linearGradient id="SVGID_1_" gradientUnits="userSpaceOnUse" x1="220.002" y1="-1716.9512" x2="220.002" y2="-1694.9512" gradientTransform="matrix(1 0 0 -1 -208.0005 -1693.9512)">
		<stop  offset="0" style="stop-color:#512DA8"/>
		<stop  offset="0.008" style="stop-color:#D32F2F"/>
		<stop  offset="0.3041" style="stop-color:#E33932"/>
		<stop  offset="0.6579" style="stop-color:#F04035"/>
		<stop  offset="1" style="stop-color:#F44336"/>
	</linearGradient>
	<path fill="url(#SVGID_1_)" d="M14.063,23l6.188-6.188V1H3.75v22H14.063z"/>
	<polygon fill="#B71C1C" fill-opacity="0.3922" points="13.719,16.469 13.719,23 14.063,23 20.25,16.813 20.25,16.469 	"/>
	<path fill="#FFFFFF" fill-opacity="0.3922" d="M14.063,16.813h6.184L14.063,23V16.813z"/>
	<g opacity="0.8">
		<path fill="#FFFFFF" d="M12.599,7.109V9.56H8.567c-0.17,0-0.308-0.138-0.308-0.308V7.417c0-0.17,0.138-0.308,0.308-0.308H12.599
			 M12.979,6.729H8.567c-0.38,0-0.688,0.308-0.688,0.688v1.834c0,0.379,0.308,0.688,0.688,0.688h4.412V6.729L12.979,6.729z"/>
		<g>
			<path fill="#FFFFFF" d="M14.905,9.439l0.716-1.104v0.916c0,0.104-0.084,0.188-0.188,0.188H14.905z M13.479,9.439V8.614
				l0.534,0.825H13.479z M13.479,7.246V7.229h1.955c0.027,0,0.054,0.006,0.077,0.017H13.479z"/>
			<path fill="#FFFFFF" d="M15.434,6.729h-2.455v3.209h2.455c0.38,0,0.688-0.308,0.688-0.688V7.417
				C16.121,7.038,15.813,6.729,15.434,6.729L15.434,6.729z M14.459,9.208l-0.946-1.462h1.895L14.459,9.208L14.459,9.208z"/>
		</g>
		<path fill="#FFFFFF" d="M14.284,11.693c0.802,0,1.453,0.652,1.453,1.453c0,0.802-0.651,1.454-1.453,1.454
			s-1.454-0.652-1.454-1.454C12.83,12.346,13.482,11.693,14.284,11.693 M14.284,11.314c-1.012,0-1.833,0.821-1.833,1.833
			c0,1.013,0.821,1.833,1.833,1.833s1.833-0.82,1.833-1.833C16.117,12.135,15.296,11.314,14.284,11.314L14.284,11.314z"/>
		<g>
			<path fill="#FFFFFF" d="M10.857,11.314H8.567c-0.38,0-0.688,0.308-0.688,0.688v2.29c0,0.38,0.308,0.688,0.688,0.688h2.291
				c0.38,0,0.688-0.308,0.688-0.688v-2.29C11.545,11.622,11.237,11.314,10.857,11.314z M9.603,14.327l-1.142-0.939l0.361-0.439
				l0.66,0.543L10.492,12l0.471,0.319L9.603,14.327z"/>
		</g>
		<g>
			<circle fill="#FFFFFF" cx="14.284" cy="13.146" r="0.875"/>
		</g>
	</g>
	<g>
		<path fill="#B71C1C" d="M19.75,1.5v15.105L13.855,22.5H9.25h-5v-21H19.75 M20.25,1H3.75v22h5.5h4.813l6.188-6.188L20.25,1L20.25,1
			z"/>
	</g>
</g>
</svg>
