<?xml version="1.0" encoding="utf-8"?>
<!-- Generator: Adobe Illustrator 21.0.0, SVG Export Plug-In . SVG Version: 6.00 Build 0)  -->
<svg version="1.1" id="图层_1" xmlns="http://www.w3.org/2000/svg" xmlns:xlink="http://www.w3.org/1999/xlink" x="0px" y="0px"
	 viewBox="0 0 24 24" style="enable-background:new 0 0 24 24;" xml:space="preserve">
<style type="text/css">
	.st0{fill:#5F7B89;}
	.st1{fill:url(#SVGID_1_);}
	.st2{fill:#455963;fill-opacity:0.7;}
	.st3{fill:#8DA1AC;}
	.st4{fill:#607D8B;}
</style>
<title>text-x-copying</title>
<path class="st0" d="M20,2v14l-6,6H4V2H20 M21,1H3v22h11l7-7V1z"/>
<linearGradient id="SVGID_1_" gradientUnits="userSpaceOnUse" x1="12" y1="-718" x2="12" y2="-738" gradientTransform="matrix(1 0 0 -1 0 -716)">
	<stop  offset="0" style="stop-color:#F6F5F5"/>
	<stop  offset="0.34" style="stop-color:#F1F2F3"/>
	<stop  offset="0.64" style="stop-color:#E7EAEB"/>
	<stop  offset="0.93" style="stop-color:#D5DBDF"/>
	<stop  offset="1" style="stop-color:#CFD7DB"/>
</linearGradient>
<polygon class="st1" points="4,22 4,2 20,2 20,16 14,22 "/>
<polygon class="st2" points="20,16 20,15 13,15 13,22 14,22 "/>
<path class="st3" d="M14,16h6l-6,6V16z"/>
<g>
	<path class="st4" d="M16,9.5c0,0.6-0.1,1.3-0.4,1.9c-0.5,1.1-1.3,1.9-2.4,2.3c-1.1,0.4-2.3,0.4-3.4,0s-2-1.2-2.4-2.3
		C7.1,10.8,7,10.2,7,9.5c0-0.6,0.1-1.3,0.4-1.9c0.5-1.1,1.3-1.9,2.4-2.3c1.1-0.4,2.3-0.4,3.4,0s2,1.2,2.4,2.3
		C15.9,8.2,16,8.9,16,9.5z M15,9.5c0-0.5-0.1-1-0.2-1.5c-0.2-0.4-0.4-0.8-0.8-1.1c-0.3-0.3-0.7-0.6-1.1-0.7C12,5.8,11,5.8,10,6.2
		C9.6,6.3,9.3,6.5,9,6.9C8.7,7.2,8.4,7.6,8.2,8C8.1,8.5,8,9,8,9.5s0.1,1,0.2,1.5c0.2,0.4,0.4,0.8,0.8,1.2c0.3,0.3,0.7,0.6,1.1,0.7
		c0.9,0.4,1.9,0.4,2.9,0c0.4-0.2,0.7-0.4,1-0.7s0.6-0.7,0.8-1.2C14.9,10.5,15,10,15,9.5z M11.6,12.1c-0.3,0-0.7-0.1-1-0.2
		c-0.3-0.1-0.6-0.3-0.8-0.5s-0.4-0.5-0.5-0.8c-0.1-0.4-0.2-0.7-0.2-1.1c0-0.4,0.1-0.7,0.2-1.1c0.1-0.3,0.3-0.6,0.6-0.8
		c0.2-0.2,0.5-0.4,0.8-0.5C11,7,11.3,7,11.7,7c0.3,0,0.7,0,1.1,0.1l0.4,0.1l0.2,0.1L13,8.1C12.9,8,12.7,8,12.5,7.9
		c-0.3-0.1-0.5-0.1-0.8-0.1c-0.4,0-0.8,0.1-1.1,0.4c-0.3,0.3-0.5,0.8-0.4,1.3c0,0.5,0.1,0.9,0.4,1.3c0.3,0.3,0.7,0.5,1.2,0.5
		c0.3,0,0.6,0,0.9-0.1c0.2-0.1,0.4-0.1,0.5-0.2l0.3,0.7l-0.2,0.1c-0.1,0.1-0.3,0.1-0.4,0.1L12.3,12C12.1,12.1,11.9,12.1,11.6,12.1
		L11.6,12.1z"/>
</g>
</svg>
