<?xml version="1.0" encoding="utf-8"?>
<!-- Generator: Adobe Illustrator 21.0.0, SVG Export Plug-In . SVG Version: 6.00 Build 0)  -->
<svg version="1.1" id="图层_1" xmlns="http://www.w3.org/2000/svg" xmlns:xlink="http://www.w3.org/1999/xlink" x="0px" y="0px"
	 viewBox="0 0 24 24" style="enable-background:new 0 0 24 24;" xml:space="preserve">
<style type="text/css">
	.st0{fill:#5F7B89;}
	.st1{fill:url(#SVGID_1_);}
	.st2{fill:#455963;fill-opacity:0.7;}
	.st3{fill:#8DA1AC;}
	.st4{fill:#607D8B;}
</style>
<title>text-x-vcard</title>
<path class="st0" d="M20,2v14l-6,6H4V2H20 M21,1H3v22h11l7-7V1z"/>
<linearGradient id="SVGID_1_" gradientUnits="userSpaceOnUse" x1="12" y1="-718" x2="12" y2="-738" gradientTransform="matrix(1 0 0 -1 0 -716)">
	<stop  offset="0" style="stop-color:#F6F5F5"/>
	<stop  offset="0.34" style="stop-color:#F1F2F3"/>
	<stop  offset="0.64" style="stop-color:#E7EAEB"/>
	<stop  offset="0.93" style="stop-color:#D5DBDF"/>
	<stop  offset="1" style="stop-color:#CFD7DB"/>
</linearGradient>
<polygon class="st1" points="4,22 4,2 20,2 20,16 14,22 "/>
<polygon class="st2" points="20,16 20,15 13,15 13,22 14,22 "/>
<path class="st3" d="M14,16h6l-6,6V16z"/>
<g>
	<path class="st4" d="M13.9,12c-0.2,0-0.4,0-0.6-0.1c-0.1-0.1-0.3-0.1-0.4-0.3c-0.2,0.1-0.4,0.2-0.6,0.2c-0.2,0.1-0.5,0.1-0.7,0.1
		c-0.3,0-0.7,0-1-0.2c-0.6-0.2-1-0.6-1.3-1.2c-0.1-0.3-0.2-0.7-0.2-1s0.1-0.6,0.2-0.9C9.4,8.3,9.6,8,9.8,7.8s0.5-0.4,0.8-0.5
		s0.7-0.2,1.1-0.2c0.3,0,0.7,0,1,0.1c0.2,0,0.5,0.1,0.7,0.2v3.2c0,0.2,0,0.3,0.1,0.5c0.1,0.1,0.2,0.1,0.3,0.1c0.2,0,0.4-0.1,0.5-0.2
		c0.2-0.1,0.3-0.3,0.4-0.5c0.1-0.2,0.2-0.4,0.2-0.7C15,9.6,15,9.3,15.1,9c0-0.4-0.1-0.8-0.2-1.2c-0.2-0.4-0.4-0.7-0.7-1
		C13.8,6.4,13.4,6.2,13,6c-0.5-0.2-0.9-0.3-1.4-0.3s-1,0.1-1.4,0.3c-1,0.3-1.7,1-2,1.9C8,8.4,7.9,9,7.9,9.5c0,0.6,0.1,1.1,0.3,1.6
		c0.2,0.4,0.4,0.8,0.8,1.2c0.3,0.3,0.8,0.6,1.2,0.7c0.5,0.2,1,0.2,1.5,0.2c0.4,0,0.7,0,1.1-0.1c0.2,0,0.4-0.1,0.5-0.1l0.1,0.8
		c-0.2,0.1-0.4,0.1-0.7,0.1S12,14,11.7,14c-0.6,0-1.2-0.1-1.8-0.3s-1.1-0.4-1.5-0.8c-0.4-0.4-0.8-0.9-1-1.4C7.2,10.9,7,10.2,7,9.5
		s0.1-1.4,0.4-2c0.2-0.5,0.6-1,1-1.4s0.9-0.7,1.5-0.8C10.4,5.1,11,5,11.6,5s1.2,0.1,1.7,0.3c0.5,0.2,1,0.4,1.4,0.8
		c0.4,0.3,0.8,0.8,1,1.3S16,8.4,16,9c0,0.4-0.1,0.8-0.2,1.3c-0.1,0.3-0.3,0.6-0.5,0.9c-0.2,0.2-0.4,0.4-0.7,0.6
		C14.4,11.9,14.2,12,13.9,12z M11.7,11.1c0.2,0,0.3,0,0.5,0c0.1,0,0.3-0.1,0.4-0.1c0-0.1,0-0.2,0-0.3s0-0.2,0-0.3V7.9h-0.3h-0.4
		c-0.4,0-0.9,0.1-1.2,0.5c-0.3,0.3-0.4,0.7-0.4,1.2c0,0.4,0.1,0.8,0.4,1.2C11,11,11.3,11.1,11.7,11.1L11.7,11.1z"/>
</g>
</svg>
