<?xml version="1.0" encoding="utf-8"?>
<!-- Generator: Adobe Illustrator 16.0.0, SVG Export Plug-In . SVG Version: 6.00 Build 0)  -->
<!DOCTYPE svg PUBLIC "-//W3C//DTD SVG 1.1//EN" "http://www.w3.org/Graphics/SVG/1.1/DTD/svg11.dtd">
<svg version="1.1" id="图层_1" xmlns="http://www.w3.org/2000/svg" xmlns:xlink="http://www.w3.org/1999/xlink" x="0px" y="0px"
	 width="24px" height="24px" viewBox="0 0 24 24" enable-background="new 0 0 24 24" xml:space="preserve">
<linearGradient id="SVGID_1_" gradientUnits="userSpaceOnUse" x1="220.001" y1="-1716.9512" x2="220.001" y2="-1694.9512" gradientTransform="matrix(1 0 0 -1 -208.0005 -1693.9512)">
	<stop  offset="0" style="stop-color:#3F51B5"/>
	<stop  offset="0.258" style="stop-color:#4355B7"/>
	<stop  offset="0.5253" style="stop-color:#5060BB"/>
	<stop  offset="0.7959" style="stop-color:#6473C3"/>
	<stop  offset="1" style="stop-color:#7986CB"/>
</linearGradient>
<path fill="url(#SVGID_1_)" d="M14.063,23l6.188-6.188V1H3.75v22H14.063z"/>
<polygon fill="#311B92" fill-opacity="0.3922" points="13.719,16.469 13.719,23 14.063,23 20.25,16.813 20.25,16.469 "/>
<path fill="#FFFFFF" fill-opacity="0.3922" d="M14.063,16.813h6.183L14.063,23V16.813z"/>
<g>
	<g>
		<path fill="#311B92" d="M19.75,1.5v15.105L13.855,22.5H9.25h-5v-21H19.75 M20.25,1H3.75v22h5.5h4.813l6.188-6.188V1L20.25,1z"/>
	</g>
</g>
<g opacity="0.8">
	<path fill="#FFFFFF" d="M12.1,5.101c-0.374,0.003-0.733,0.032-1.048,0.086c-0.921,0.161-1.117,0.209-1.117,0.83v1.375h2.293v0.459
		H9.016c-0.63,0-1.044,0.387-1.216,1.104c-0.202,0.822-0.209,1.332,0,2.192c0.153,0.636,0.586,1.289,1.216,1.289h0.459v-1.375
		c0-0.712,0.639-1.375,1.375-1.375h2.293c0.607,0,0.919-0.314,0.919-0.918V6.476c0-0.585-0.241-1.192-0.833-1.289
		C12.856,5.125,12.47,5.099,12.1,5.101z M11.31,6.017c0.256,0,0.459,0.207,0.459,0.459s-0.203,0.459-0.459,0.459
		c-0.252,0-0.459-0.207-0.459-0.459S11.058,6.017,11.31,6.017z"/>
	<path fill="#FFFFFF" d="M11.9,14.727c0.374-0.003,0.733-0.032,1.048-0.086c0.921-0.161,1.117-0.21,1.117-0.83v-1.375h-2.294v-0.459
		h3.212c0.631,0,1.045-0.387,1.217-1.104c0.201-0.822,0.209-1.332,0-2.191c-0.153-0.637-0.586-1.289-1.217-1.289h-0.459v1.375
		c0,0.712-0.639,1.375-1.375,1.375h-2.293c-0.607,0-0.919,0.314-0.919,0.919v2.291c0,0.585,0.241,1.192,0.833,1.289
		C11.144,14.702,11.53,14.729,11.9,14.727z M12.69,13.811c-0.256,0-0.459-0.206-0.459-0.459s0.203-0.459,0.459-0.459
		c0.252,0,0.459,0.206,0.459,0.459S12.942,13.811,12.69,13.811z"/>
</g>
</svg>
