<?xml version="1.0" encoding="utf-8"?>
<!-- Generator: Adobe Illustrator 21.0.0, SVG Export Plug-In . SVG Version: 6.00 Build 0)  -->
<svg version="1.1" id="图层_1" xmlns="http://www.w3.org/2000/svg" xmlns:xlink="http://www.w3.org/1999/xlink" x="0px" y="0px"
	 viewBox="0 0 24 24" style="enable-background:new 0 0 24 24;" xml:space="preserve">
<style type="text/css">
	.st0{fill:#212121;}
	.st1{fill:url(#SVGID_1_);}
	.st2{fill:#9E9E9E;fill-opacity:0.39;}
	.st3{fill:#FFFFFF;fill-opacity:0.39;}
	.st4{opacity:0.8;}
	.st5{fill:#FFFFFF;}
</style>
<title>text-x-csharp</title>
<path class="st0" d="M20,2v14l-6,6H4V2H20 M21,1H3v22h11l7-7V1z"/>
<linearGradient id="SVGID_1_" gradientUnits="userSpaceOnUse" x1="12" y1="-718" x2="12" y2="-738" gradientTransform="matrix(1 0 0 -1 0 -716)">
	<stop  offset="0" style="stop-color:#90A4AE"/>
	<stop  offset="1" style="stop-color:#616161"/>
</linearGradient>
<polygon class="st1" points="4,22 4,2 20,2 20,16 14,22 "/>
<polygon class="st2" points="20,16 20,15 13,15 13,22 14,22 "/>
<path class="st3" d="M14,16h6l-6,6V16z"/>
<g class="st4">
	<rect x="8" y="5" class="st5" width="4" height="1"/>
	<rect x="8" y="13" class="st5" width="4" height="1"/>
	<polygon class="st5" points="6,7 6,8 5,8 5,11 6,11 6,12 7,12 7,7 	"/>
	<rect x="7" y="6" class="st5" width="1" height="1"/>
	<rect x="7" y="12" class="st5" width="1" height="1"/>
	<rect x="13" y="10" class="st5" width="6" height="1"/>
	<rect x="14" y="10" class="st5" width="1" height="3"/>
	<rect x="14" y="7" class="st5" width="1" height="3"/>
	<rect x="14" y="5" class="st5" width="1" height="3"/>
	<rect x="13" y="7" class="st5" width="6" height="1"/>
	<rect x="17" y="10" class="st5" width="1" height="3"/>
	<rect x="17" y="7" class="st5" width="1" height="3"/>
	<rect x="17" y="5" class="st5" width="1" height="3"/>
</g>
</svg>
