<?xml version="1.0" encoding="utf-8"?>
<!-- Generator: Adobe Illustrator 16.0.0, SVG Export Plug-In . SVG Version: 6.00 Build 0)  -->
<!DOCTYPE svg PUBLIC "-//W3C//DTD SVG 1.1//EN" "http://www.w3.org/Graphics/SVG/1.1/DTD/svg11.dtd">
<svg version="1.1" id="图层_1" xmlns="http://www.w3.org/2000/svg" xmlns:xlink="http://www.w3.org/1999/xlink" x="0px" y="0px"
	 width="24px" height="24px" viewBox="0 0 24 24" enable-background="new 0 0 24 24" xml:space="preserve">
<polygon fill="#5F7B89" points="3.714,23 3.714,1 20.286,1 20.286,16.807 14.092,23 "/>
<g>
	<g>
		<g>
			<g>
				<g>
					<g>
						<g>
							<g>
								
									<linearGradient id="SVGID_1_" gradientUnits="userSpaceOnUse" x1="136.7988" y1="1245.2002" x2="136.7988" y2="1266.2012" gradientTransform="matrix(1 0 0 1 -124.7998 -1243.7012)">
									<stop  offset="0" style="stop-color:#F6F5F5"/>
									<stop  offset="0.341" style="stop-color:#F1F2F3"/>
									<stop  offset="0.6434" style="stop-color:#E7EAEB"/>
									<stop  offset="0.9302" style="stop-color:#D5DBDF"/>
									<stop  offset="1" style="stop-color:#CFD7DB"/>
								</linearGradient>
								<polygon fill="url(#SVGID_1_)" points="4.132,22.5 4.132,1.5 19.865,1.5 19.865,16.594 13.96,22.5 								"/>
							</g>
							<polygon fill="#455963" fill-opacity="0.7" points="19.865,16.594 19.865,16.34 13.636,16.34 13.636,22.5 13.96,22.5 							
								"/>
							<path fill="#8DA1AC" d="M13.951,16.594l5.916,0.01L13.96,22.5L13.951,16.594z"/>
						</g>
					</g>
				</g>
			</g>
		</g>
	</g>
	<g>
		<path fill="#607D8B" d="M16.326,9.881c0,0.717-0.117,1.36-0.352,1.929c-0.238,0.569-0.553,1.049-0.949,1.441
			s-0.856,0.692-1.381,0.898c-0.523,0.207-1.07,0.311-1.644,0.311c-0.574,0-1.122-0.104-1.645-0.311
			c-0.523-0.206-0.983-0.506-1.379-0.898s-0.712-0.873-0.949-1.441c-0.237-0.569-0.354-1.212-0.354-1.929s0.118-1.36,0.354-1.93
			C8.264,7.383,8.58,6.902,8.977,6.51c0.396-0.393,0.856-0.692,1.379-0.898c0.522-0.207,1.07-0.31,1.645-0.31
			c0.574,0,1.121,0.103,1.644,0.31c0.524,0.207,0.984,0.506,1.381,0.898c0.396,0.392,0.711,0.873,0.949,1.441
			C16.209,8.521,16.326,9.165,16.326,9.881z M15.402,9.881c0-0.557-0.082-1.065-0.252-1.524c-0.17-0.46-0.402-0.854-0.703-1.183
			c-0.297-0.329-0.656-0.582-1.074-0.759S12.499,6.149,12,6.149c-0.498,0-0.956,0.089-1.373,0.266
			c-0.418,0.177-0.776,0.43-1.076,0.759c-0.3,0.33-0.533,0.723-0.702,1.183C8.681,8.816,8.598,9.324,8.598,9.881
			c0,0.557,0.083,1.064,0.253,1.524c0.168,0.46,0.402,0.854,0.702,1.185c0.299,0.328,0.657,0.58,1.076,0.758
			c0.417,0.177,0.875,0.266,1.373,0.266c0.498,0,0.955-0.089,1.373-0.266c0.418-0.178,0.777-0.43,1.074-0.758
			c0.301-0.33,0.533-0.725,0.703-1.185C15.32,10.946,15.402,10.438,15.402,9.881z"/>
		<g>
			<path fill="#607D8B" d="M12.553,12.571h-1.106V8.734h1.106V12.571z"/>
		</g>
		<circle fill="#607D8B" cx="12.001" cy="7.702" r="0.646"/>
	</g>
</g>
</svg>
