<?xml version="1.0" encoding="utf-8"?>
<!-- Generator: Adobe Illustrator 16.0.0, SVG Export Plug-In . SVG Version: 6.00 Build 0)  -->
<!DOCTYPE svg PUBLIC "-//W3C//DTD SVG 1.1//EN" "http://www.w3.org/Graphics/SVG/1.1/DTD/svg11.dtd">
<svg version="1.1" id="图层_1" xmlns="http://www.w3.org/2000/svg" xmlns:xlink="http://www.w3.org/1999/xlink" x="0px" y="0px"
	 width="24px" height="24px" viewBox="0 0 24 24" enable-background="new 0 0 24 24" xml:space="preserve">
<rect x="3.634" y="1" fill="#0D47A1" width="16.732" height="22"/>
<g>
	<linearGradient id="SVGID_1_" gradientUnits="userSpaceOnUse" x1="12.0005" y1="1.5" x2="12.0005" y2="22.5005">
		<stop  offset="0" style="stop-color:#64B5F6"/>
		<stop  offset="1" style="stop-color:#3F51B5"/>
	</linearGradient>
	<rect x="4.134" y="1.5" fill="url(#SVGID_1_)" width="15.733" height="21"/>
	<g opacity="0.8">
		<rect x="6.164" y="9.806" opacity="0.8" fill="#FFFFFF" enable-background="new    " width="11.664" height="0.576"/>
		<rect x="6.164" y="8.002" opacity="0.8" fill="#FFFFFF" enable-background="new    " width="11.664" height="0.578"/>
		<rect x="11.73" y="11.502" opacity="0.8" fill="#FFFFFF" enable-background="new    " width="6.09" height="6.092"/>
		<g opacity="0.8">
			<rect x="6.164" y="11.606" fill="#FFFFFF" width="5.066" height="0.58"/>
			<rect x="6.164" y="13.411" fill="#FFFFFF" width="5.066" height="0.577"/>
			<rect x="6.164" y="15.221" fill="#FFFFFF" width="5.066" height="0.577"/>
			<rect x="6.164" y="17.023" fill="#FFFFFF" width="5.066" height="0.576"/>
		</g>
	</g>
	<g>
		<rect x="4.13" y="1.5" opacity="0.8" fill="#FFFFFF" enable-background="new    " width="15.74" height="4.025"/>
		<g enable-background="new    ">
			<path fill="#236FB7" d="M9.313,2.279c0.039,0.123,0.081,0.263,0.128,0.418C9.486,2.854,9.535,3.015,9.589,3.18
				c0.052,0.166,0.104,0.333,0.158,0.498c0.055,0.166,0.106,0.32,0.156,0.462c0.042-0.155,0.085-0.321,0.128-0.502
				c0.043-0.182,0.082-0.369,0.121-0.562c0.038-0.192,0.076-0.385,0.113-0.578c0.037-0.191,0.071-0.375,0.103-0.554h0.772
				c-0.112,0.525-0.241,1.058-0.386,1.598c-0.146,0.54-0.302,1.053-0.472,1.54H9.603c-0.111-0.29-0.219-0.593-0.323-0.913
				C9.175,3.852,9.072,3.532,8.971,3.212c-0.103,0.32-0.205,0.64-0.307,0.957c-0.101,0.32-0.207,0.623-0.319,0.913H7.666
				c-0.169-0.487-0.326-1-0.472-1.54C7.05,3.002,6.921,2.469,6.81,1.944h0.805C7.647,2.124,7.682,2.307,7.72,2.498
				c0.038,0.193,0.078,0.386,0.12,0.578c0.041,0.193,0.084,0.38,0.127,0.562C8.01,3.819,8.054,3.985,8.099,4.14
				c0.058-0.149,0.112-0.305,0.167-0.472C8.32,3.503,8.372,3.337,8.424,3.171c0.049-0.166,0.097-0.326,0.14-0.479
				c0.044-0.155,0.082-0.293,0.117-0.413H9.313z"/>
			<path fill="#236FB7" d="M12.602,1.907c0.494,0,0.871,0.083,1.135,0.248C14,2.32,14.133,2.588,14.133,2.963
				c0,0.377-0.134,0.649-0.401,0.817c-0.266,0.167-0.648,0.252-1.144,0.252h-0.232v1.05h-0.743V1.989
				c0.161-0.03,0.333-0.052,0.514-0.063C12.307,1.914,12.465,1.907,12.602,1.907z M12.651,2.51c-0.055,0-0.108,0.001-0.16,0.004
				c-0.054,0.002-0.097,0.005-0.136,0.009v0.905h0.232c0.258,0,0.451-0.033,0.583-0.1c0.128-0.065,0.194-0.19,0.194-0.372
				c0-0.087-0.017-0.159-0.05-0.216c-0.032-0.057-0.082-0.104-0.144-0.138s-0.138-0.059-0.226-0.073
				C12.856,2.517,12.758,2.51,12.651,2.51z"/>
			<path fill="#236FB7" d="M17.19,1.944v0.603h-0.996v2.535h-0.743V2.547h-0.995V1.944H17.19z"/>
		</g>
	</g>
</g>
</svg>
