<?xml version="1.0" encoding="utf-8"?>
<!-- Generator: Adobe Illustrator 16.0.0, SVG Export Plug-In . SVG Version: 6.00 Build 0)  -->
<!DOCTYPE svg PUBLIC "-//W3C//DTD SVG 1.1//EN" "http://www.w3.org/Graphics/SVG/1.1/DTD/svg11.dtd">
<svg version="1.1" id="图层_1" xmlns="http://www.w3.org/2000/svg" xmlns:xlink="http://www.w3.org/1999/xlink" x="0px" y="0px"
	 width="24px" height="24px" viewBox="0 0 24 24" enable-background="new 0 0 24 24" xml:space="preserve">
<polygon fill="#E65100" points="3.634,23 3.634,1 20.366,1 20.366,16.806 14.112,23 "/>
<g>
	<g>
		<g>
			
				<linearGradient id="SVGID_1_" gradientUnits="userSpaceOnUse" x1="53.6006" y1="-162.3999" x2="53.6006" y2="-141.4004" gradientTransform="matrix(1 0 0 -1 -41.6001 -139.9004)">
				<stop  offset="0" style="stop-color:#EE6F0B"/>
				<stop  offset="1" style="stop-color:#FFB74D"/>
			</linearGradient>
			<polygon fill="url(#SVGID_1_)" points="4.133,22.5 4.133,1.5 19.867,1.5 19.867,16.594 13.961,22.5 			"/>
		</g>
		<polygon fill="#E65100" fill-opacity="0.3922" points="19.867,16.594 19.867,16.34 13.637,16.34 13.637,22.5 13.961,22.5 		"/>
		<path fill="#FFFFFF" fill-opacity="0.3922" d="M13.951,16.594l5.916,0.008L13.961,22.5L13.951,16.594z"/>
	</g>
	<g opacity="0.8">
		<rect x="6.181" y="9.584" fill="#FFFFFF" width="1.68" height="8.418"/>
		<rect x="8.981" y="13.784" fill="#FFFFFF" width="1.68" height="4.208"/>
		<rect x="11.773" y="15.498" fill="#FFFFFF" width="1.68" height="2.521"/>
		<g>
			<path fill="#FFFFFF" d="M14.057,8.097l0.018,3.351l3.351-0.018c0.01,1.855-1.487,3.361-3.343,3.369
				c-1.854,0.01-3.359-1.488-3.368-3.342C10.705,9.61,12.201,8.105,14.057,8.097z"/>
			<path fill="#FFFFFF" d="M14.45,7.711c1.855-0.008,3.36,1.488,3.368,3.343l-3.351,0.018L14.45,7.711z"/>
		</g>
	</g>
	<g>
		<rect x="4.129" y="1.5" opacity="0.8" fill="#FFFFFF" enable-background="new    " width="15.742" height="4.025"/>
		<g enable-background="new    ">
			<path fill="#E64A19" d="M8.667,1.886c0.493,0,0.871,0.082,1.135,0.246s0.395,0.435,0.395,0.808c0,0.377-0.132,0.649-0.4,0.816
				C9.529,3.924,9.148,4.007,8.653,4.007H8.419v1.05H7.677V1.966c0.161-0.03,0.332-0.051,0.515-0.063
				C8.371,1.891,8.53,1.886,8.667,1.886z M8.715,2.487c-0.054,0-0.106,0.001-0.159,0.005C8.503,2.495,8.458,2.498,8.419,2.501v0.905
				h0.234c0.257,0,0.451-0.033,0.581-0.1S9.43,3.116,9.43,2.936c0-0.087-0.017-0.16-0.051-0.217C9.347,2.661,9.299,2.614,9.237,2.58
				C9.176,2.544,9.099,2.521,9.01,2.508S8.822,2.487,8.715,2.487z"/>
			<path fill="#E64A19" d="M11.734,1.886c0.494,0,0.871,0.082,1.135,0.246c0.265,0.164,0.396,0.435,0.396,0.808
				c0,0.377-0.134,0.649-0.401,0.816c-0.266,0.168-0.648,0.251-1.144,0.251h-0.232v1.05h-0.743V1.966
				c0.161-0.03,0.333-0.051,0.514-0.063S11.598,1.886,11.734,1.886z M11.784,2.487c-0.055,0-0.108,0.001-0.16,0.005
				c-0.054,0.002-0.097,0.005-0.136,0.008v0.905h0.232c0.258,0,0.451-0.033,0.583-0.1c0.128-0.067,0.194-0.19,0.194-0.371
				c0-0.087-0.017-0.16-0.05-0.217c-0.032-0.058-0.082-0.104-0.144-0.138c-0.062-0.036-0.138-0.059-0.226-0.072
				C11.989,2.494,11.891,2.487,11.784,2.487z"/>
			<path fill="#E64A19" d="M16.323,1.921v0.602h-0.995v2.535h-0.744V2.522h-0.995V1.921H16.323z"/>
		</g>
	</g>
</g>
</svg>
