<?xml version="1.0" encoding="utf-8"?>
<!-- Generator: Adobe Illustrator 16.0.0, SVG Export Plug-In . SVG Version: 6.00 Build 0)  -->
<!DOCTYPE svg PUBLIC "-//W3C//DTD SVG 1.1//EN" "http://www.w3.org/Graphics/SVG/1.1/DTD/svg11.dtd">
<svg version="1.1" id="图层_1" xmlns="http://www.w3.org/2000/svg" xmlns:xlink="http://www.w3.org/1999/xlink" x="0px" y="0px"
	 width="24px" height="24px" viewBox="0 0 24 24" enable-background="new 0 0 24 24" xml:space="preserve">
<polygon fill="#0D47A1" points="3.634,23 3.634,1 20.366,1 20.366,16.807 14.111,23 "/>
<g>
	<g>
		<g>
			<g>
				<linearGradient id="SVGID_1_" gradientUnits="userSpaceOnUse" x1="12.0073" y1="22.5" x2="12.0073" y2="1.5005">
					<stop  offset="0" style="stop-color:#3F51B5"/>
					<stop  offset="1" style="stop-color:#64B5F6"/>
				</linearGradient>
				<polygon fill="url(#SVGID_1_)" points="4.14,22.5 4.14,1.5 19.874,1.5 19.874,16.594 13.968,22.5 				"/>
			</g>
			<polygon fill="#2196F3" fill-opacity="0.7" points="19.874,16.594 19.874,16.34 13.644,16.34 13.644,22.5 13.968,22.5 			"/>
			<path opacity="0.39" fill="#FFFFFF" d="M13.959,16.594l5.916,0.008L13.968,22.5L13.959,16.594z"/>
		</g>
		<g opacity="0.8">
			<linearGradient id="SVGID_2_" gradientUnits="userSpaceOnUse" x1="6.4727" y1="8.6641" x2="17.5332" y2="8.6641">
				<stop  offset="0" style="stop-color:#F6F5F5"/>
				<stop  offset="0.341" style="stop-color:#F1F2F3"/>
				<stop  offset="0.6434" style="stop-color:#E7EAEB"/>
				<stop  offset="0.9302" style="stop-color:#D5DBDF"/>
				<stop  offset="1" style="stop-color:#CFD7DB"/>
			</linearGradient>
			<rect x="6.473" y="8.39" opacity="0.8" fill="url(#SVGID_2_)" enable-background="new    " width="11.061" height="0.547"/>
			<linearGradient id="SVGID_3_" gradientUnits="userSpaceOnUse" x1="6.4727" y1="6.9541" x2="17.5332" y2="6.9541">
				<stop  offset="0" style="stop-color:#F6F5F5"/>
				<stop  offset="0.341" style="stop-color:#F1F2F3"/>
				<stop  offset="0.6434" style="stop-color:#E7EAEB"/>
				<stop  offset="0.9302" style="stop-color:#D5DBDF"/>
				<stop  offset="1" style="stop-color:#CFD7DB"/>
			</linearGradient>
			<rect x="6.473" y="6.68" opacity="0.8" fill="url(#SVGID_3_)" enable-background="new    " width="11.061" height="0.548"/>
			<linearGradient id="SVGID_4_" gradientUnits="userSpaceOnUse" x1="11.75" y1="12.8857" x2="17.5244" y2="12.8857">
				<stop  offset="0" style="stop-color:#F6F5F5"/>
				<stop  offset="0.341" style="stop-color:#F1F2F3"/>
				<stop  offset="0.6434" style="stop-color:#E7EAEB"/>
				<stop  offset="0.9302" style="stop-color:#D5DBDF"/>
				<stop  offset="1" style="stop-color:#CFD7DB"/>
			</linearGradient>
			<rect x="11.75" y="9.999" opacity="0.8" fill="url(#SVGID_4_)" enable-background="new    " width="5.774" height="5.774"/>
			<g opacity="0.8">
				<linearGradient id="SVGID_5_" gradientUnits="userSpaceOnUse" x1="6.4727" y1="10.3721" x2="11.2769" y2="10.3721">
					<stop  offset="0" style="stop-color:#F6F5F5"/>
					<stop  offset="0.341" style="stop-color:#F1F2F3"/>
					<stop  offset="0.6434" style="stop-color:#E7EAEB"/>
					<stop  offset="0.9302" style="stop-color:#D5DBDF"/>
					<stop  offset="1" style="stop-color:#CFD7DB"/>
				</linearGradient>
				<rect x="6.473" y="10.098" fill="url(#SVGID_5_)" width="4.804" height="0.548"/>
				<linearGradient id="SVGID_6_" gradientUnits="userSpaceOnUse" x1="6.4727" y1="12.082" x2="11.2769" y2="12.082">
					<stop  offset="0" style="stop-color:#F6F5F5"/>
					<stop  offset="0.341" style="stop-color:#F1F2F3"/>
					<stop  offset="0.6434" style="stop-color:#E7EAEB"/>
					<stop  offset="0.9302" style="stop-color:#D5DBDF"/>
					<stop  offset="1" style="stop-color:#CFD7DB"/>
				</linearGradient>
				<rect x="6.473" y="11.809" fill="url(#SVGID_6_)" width="4.804" height="0.547"/>
				<linearGradient id="SVGID_7_" gradientUnits="userSpaceOnUse" x1="6.4727" y1="13.7979" x2="11.2769" y2="13.7979">
					<stop  offset="0" style="stop-color:#F6F5F5"/>
					<stop  offset="0.341" style="stop-color:#F1F2F3"/>
					<stop  offset="0.6434" style="stop-color:#E7EAEB"/>
					<stop  offset="0.9302" style="stop-color:#D5DBDF"/>
					<stop  offset="1" style="stop-color:#CFD7DB"/>
				</linearGradient>
				<rect x="6.473" y="13.524" fill="url(#SVGID_7_)" width="4.804" height="0.547"/>
				<linearGradient id="SVGID_8_" gradientUnits="userSpaceOnUse" x1="6.4727" y1="15.5068" x2="11.2769" y2="15.5068">
					<stop  offset="0" style="stop-color:#F6F5F5"/>
					<stop  offset="0.341" style="stop-color:#F1F2F3"/>
					<stop  offset="0.6434" style="stop-color:#E7EAEB"/>
					<stop  offset="0.9302" style="stop-color:#D5DBDF"/>
					<stop  offset="1" style="stop-color:#CFD7DB"/>
				</linearGradient>
				<rect x="6.473" y="15.233" fill="url(#SVGID_8_)" width="4.804" height="0.547"/>
			</g>
		</g>
	</g>
	<g>
		<rect x="4.125" y="1.5" opacity="0.8" fill="#FFFFFF" width="15.742" height="4.025"/>
		<g>
			<path fill="#1976D2" d="M10.087,3.51c0,0.272-0.044,0.509-0.133,0.711c-0.089,0.203-0.215,0.37-0.379,0.502
				C9.412,4.856,9.212,4.956,8.977,5.022c-0.235,0.066-0.498,0.1-0.791,0.1c-0.133,0-0.289-0.006-0.467-0.017
				c-0.178-0.01-0.353-0.032-0.523-0.065V1.985c0.171-0.03,0.35-0.051,0.536-0.062c0.186-0.01,0.345-0.016,0.479-0.016
				c0.283,0,0.54,0.03,0.77,0.091c0.23,0.06,0.428,0.155,0.593,0.285S9.865,2.58,9.954,2.782C10.043,2.984,10.087,3.227,10.087,3.51
				z M7.939,4.506C7.974,4.51,8.014,4.512,8.061,4.513c0.046,0.001,0.101,0.002,0.164,0.002c0.372,0,0.647-0.089,0.826-0.267
				C9.231,4.07,9.32,3.824,9.32,3.51c0-0.329-0.085-0.578-0.257-0.746C8.892,2.595,8.62,2.51,8.249,2.51
				c-0.051,0-0.104,0.001-0.157,0.002C8.037,2.515,7.987,2.518,7.939,2.524V4.506z"/>
			<path fill="#1976D2" d="M13.853,3.51c0,0.269-0.044,0.505-0.129,0.709c-0.082,0.204-0.196,0.374-0.344,0.511
				c-0.146,0.138-0.32,0.241-0.522,0.31c-0.201,0.069-0.419,0.104-0.649,0.104c-0.226,0-0.439-0.035-0.639-0.104
				c-0.2-0.069-0.375-0.172-0.524-0.31c-0.149-0.137-0.267-0.308-0.352-0.511c-0.086-0.204-0.129-0.44-0.129-0.709
				c0-0.269,0.045-0.504,0.134-0.708s0.208-0.375,0.359-0.514c0.15-0.138,0.326-0.243,0.525-0.312
				c0.198-0.07,0.405-0.104,0.626-0.104c0.226,0,0.438,0.035,0.639,0.104c0.199,0.069,0.374,0.173,0.524,0.312
				c0.147,0.14,0.266,0.311,0.353,0.514C13.809,3.006,13.853,3.242,13.853,3.51z M11.332,3.51c0,0.154,0.019,0.293,0.06,0.417
				c0.038,0.124,0.096,0.23,0.171,0.319c0.075,0.089,0.165,0.158,0.273,0.207c0.108,0.048,0.232,0.072,0.372,0.072
				c0.137,0,0.26-0.024,0.369-0.072c0.11-0.049,0.201-0.117,0.276-0.207c0.075-0.089,0.132-0.195,0.171-0.319
				c0.041-0.124,0.06-0.263,0.06-0.417s-0.019-0.293-0.06-0.418c-0.039-0.125-0.096-0.232-0.171-0.321s-0.166-0.158-0.276-0.207
				c-0.109-0.048-0.232-0.073-0.369-0.073c-0.14,0-0.264,0.025-0.372,0.075c-0.108,0.05-0.198,0.119-0.273,0.208
				c-0.075,0.089-0.133,0.196-0.171,0.321C11.351,3.222,11.332,3.36,11.332,3.51z"/>
			<path fill="#1976D2" d="M15.976,5.145c-0.537,0-0.946-0.142-1.227-0.426c-0.281-0.284-0.422-0.687-0.422-1.209
				c0-0.259,0.044-0.491,0.128-0.694c0.087-0.204,0.204-0.376,0.354-0.516c0.148-0.14,0.326-0.247,0.534-0.319
				c0.206-0.072,0.43-0.108,0.671-0.108c0.14,0,0.267,0.01,0.382,0.029c0.113,0.02,0.215,0.042,0.3,0.068
				c0.086,0.025,0.157,0.052,0.214,0.079c0.058,0.027,0.099,0.048,0.125,0.063l-0.215,0.571c-0.103-0.051-0.22-0.095-0.355-0.131
				s-0.288-0.055-0.459-0.055c-0.115,0-0.228,0.019-0.337,0.055s-0.206,0.094-0.29,0.174c-0.084,0.08-0.151,0.184-0.202,0.31
				C15.124,3.162,15.1,3.316,15.1,3.497c0,0.145,0.017,0.28,0.049,0.406c0.034,0.125,0.088,0.233,0.163,0.324
				c0.073,0.09,0.172,0.162,0.292,0.215c0.121,0.053,0.267,0.079,0.439,0.079c0.107,0,0.205-0.006,0.29-0.019
				c0.086-0.011,0.162-0.026,0.229-0.042c0.065-0.017,0.124-0.036,0.176-0.057c0.051-0.021,0.096-0.041,0.139-0.059l0.205,0.565
				c-0.105,0.061-0.253,0.115-0.444,0.163C16.447,5.12,16.228,5.145,15.976,5.145z"/>
		</g>
	</g>
</g>
</svg>
