<?xml version="1.0" encoding="utf-8"?>
<!-- Generator: Adobe Illustrator 21.0.0, SVG Export Plug-In . SVG Version: 6.00 Build 0)  -->
<svg version="1.1" id="图层_1" xmlns="http://www.w3.org/2000/svg" xmlns:xlink="http://www.w3.org/1999/xlink" x="0px" y="0px"
	 viewBox="0 0 24 24" style="enable-background:new 0 0 24 24;" xml:space="preserve">
<style type="text/css">
	.st0{fill:#B71C1C;}
	.st1{fill:url(#SVGID_1_);}
	.st2{fill:#B71C1C;fill-opacity:0.39;}
	.st3{opacity:0.39;fill:#FFFFFF;enable-background:new    ;}
	.st4{opacity:0.8;fill:#FFFFFF;enable-background:new    ;}
</style>
<title>x-office-calendar</title>
<path class="st0" d="M20,2v14l-6,6H4V2H20 M21,1H3v22h11l7-7V1z"/>
<linearGradient id="SVGID_1_" gradientUnits="userSpaceOnUse" x1="12" y1="1534" x2="12" y2="1554" gradientTransform="matrix(1 0 0 1 0 -1532)">
	<stop  offset="0" style="stop-color:#F44336"/>
	<stop  offset="0.34" style="stop-color:#F04035"/>
	<stop  offset="0.7" style="stop-color:#E33932"/>
	<stop  offset="0.96" style="stop-color:#D83230"/>
	<stop  offset="1" style="stop-color:#D32F2F"/>
</linearGradient>
<polygon class="st1" points="4,22 4,2 20,2 20,16 14,22 "/>
<polygon class="st2" points="20,16 20,15 13,15 13,22 14,22 "/>
<path class="st3" d="M14,16h6l-6,6V16z"/>
<path class="st4" d="M15.8,4v0.5c0.2,0.2,0.3,0.4,0.3,0.7c0,0.6-0.5,1-1,1c-0.6,0-1-0.5-1-1c0-0.3,0.1-0.5,0.4-0.7V4H9.6v0.5
	C9.9,4.7,10,4.9,10,5.2c0,0.6-0.5,1-1,1c-0.6,0-1-0.5-1-1c0-0.3,0.1-0.5,0.4-0.7V4H6v10h12V4H15.8z M17,13H7V7h10V13z M10,8H8v1.6h2
	V8z M10,10.6H8V12h2V10.6z M13,8h-2v1.6h2V8z M13,10.6h-2V12h2V10.6z M16,8h-2v1.6h2V8z M16,10.6h-2V12h2V10.6z"/>
</svg>
