<?xml version="1.0" encoding="utf-8"?>
<!-- Generator: Adobe Illustrator 16.0.0, SVG Export Plug-In . SVG Version: 6.00 Build 0)  -->
<!DOCTYPE svg PUBLIC "-//W3C//DTD SVG 1.1//EN" "http://www.w3.org/Graphics/SVG/1.1/DTD/svg11.dtd">
<svg version="1.1" id="图层_1" xmlns="http://www.w3.org/2000/svg" xmlns:xlink="http://www.w3.org/1999/xlink" x="0px" y="0px"
	 width="24px" height="24px" viewBox="0 0 24 24" enable-background="new 0 0 24 24" xml:space="preserve">
<g>
	
		<linearGradient id="SVGID_1_" gradientUnits="userSpaceOnUse" x1="220.002" y1="-1716.9512" x2="220.002" y2="-1694.9512" gradientTransform="matrix(1 0 0 -1 -208.0005 -1693.9512)">
		<stop  offset="0" style="stop-color:#512DA8"/>
		<stop  offset="0.008" style="stop-color:#D32F2F"/>
		<stop  offset="0.3041" style="stop-color:#E33932"/>
		<stop  offset="0.6579" style="stop-color:#F04035"/>
		<stop  offset="1" style="stop-color:#F44336"/>
	</linearGradient>
	<path fill="url(#SVGID_1_)" d="M14.063,23l6.188-6.188V1H3.75v22H14.063z"/>
	<polygon fill="#B71C1C" fill-opacity="0.3922" points="13.719,16.469 13.719,23 14.063,23 20.25,16.813 20.25,16.469 	"/>
	<path fill="#FFFFFF" fill-opacity="0.3922" d="M14.063,16.813h6.184L14.063,23V16.813z"/>
	<path opacity="0.8" fill-rule="evenodd" clip-rule="evenodd" fill="#FFFFFF" d="M11.745,10.15h-1.242v1.243h1.242V10.15z
		 M13.498,11.948h-1.245v1.243h1.245V11.948z M15.247,10.15h-1.242v1.243h1.242V10.15z M11.745,11.948h-1.242v1.243h1.242V11.948z
		 M13.498,10.15h-1.245v1.243h1.245V10.15z M15.247,11.948h-1.242v1.243h1.242V11.948z M14.997,6.598v0.426
		c0.168,0.148,0.274,0.364,0.274,0.605c0,0.447-0.362,0.809-0.81,0.809c-0.446,0-0.809-0.362-0.809-0.809
		c0-0.241,0.105-0.457,0.273-0.605V6.598h-3.78v0.426c0.167,0.148,0.273,0.364,0.273,0.605c0,0.447-0.362,0.809-0.809,0.809
		c-0.447,0-0.809-0.362-0.809-0.809c0-0.241,0.106-0.457,0.274-0.605V6.598H7.272v8.609h9.455V6.598H14.997z M15.863,14.345H8.136
		V8.965h7.727V14.345z M9.995,10.15H8.752v1.243h1.243V10.15z M9.995,11.948H8.752v1.243h1.243V11.948z"/>
	<g>
		<path fill="#B71C1C" d="M19.75,1.5v15.105L13.855,22.5H9.25h-5v-21H19.75 M20.25,1H3.75v22h5.5h4.813l6.188-6.188L20.25,1L20.25,1
			z"/>
	</g>
</g>
</svg>
