<?xml version="1.0" encoding="utf-8"?>
<!-- Generator: Adobe Illustrator 16.0.0, SVG Export Plug-In . SVG Version: 6.00 Build 0)  -->
<!DOCTYPE svg PUBLIC "-//W3C//DTD SVG 1.1//EN" "http://www.w3.org/Graphics/SVG/1.1/DTD/svg11.dtd">
<svg version="1.1" id="图层_1" xmlns="http://www.w3.org/2000/svg" xmlns:xlink="http://www.w3.org/1999/xlink" x="0px" y="0px"
	 width="24px" height="24px" viewBox="0 0 24 24" enable-background="new 0 0 24 24" xml:space="preserve">
<g>
	
		<linearGradient id="SVGID_1_" gradientUnits="userSpaceOnUse" x1="178.4004" y1="1576.9609" x2="178.4004" y2="1554.9609" gradientTransform="matrix(1 0 0 1 -166.4004 -1553.9609)">
		<stop  offset="0" style="stop-color:#512DA8"/>
		<stop  offset="0.008" style="stop-color:#512DA8"/>
		<stop  offset="0.0504" style="stop-color:#5733AB"/>
		<stop  offset="0.2927" style="stop-color:#7250BA"/>
		<stop  offset="0.5337" style="stop-color:#8564C4"/>
		<stop  offset="0.771" style="stop-color:#9171CB"/>
		<stop  offset="1" style="stop-color:#9575CD"/>
	</linearGradient>
	<path fill="url(#SVGID_1_)" d="M14.063,23l6.188-6.188V1H3.75v22H14.063z"/>
	<polygon fill="#512DA8" fill-opacity="0.3922" points="13.719,16.469 13.719,23 14.063,23 20.25,16.813 20.25,16.469 	"/>
	<path fill="#FFFFFF" fill-opacity="0.3922" d="M14.063,16.813h6.183L14.063,23V16.813z"/>
	<path opacity="0.8" fill="#FFFFFF" d="M11.541,6.5h0.919c1.375,0,1.603,1.614,1.603,1.614v1.604c0,0.541-1.146,1.642-1.146,1.642
		v0.54l1.834,1.063v1.081l-2.978,0.02H9.25v-1.08l1.834-1.081v-0.54c0,0-1.149-1.096-1.147-1.637V8.122
		C9.938,8.122,10.166,6.5,11.541,6.5z"/>
	<g>
		<path fill="#311B92" d="M19.75,1.5v15.105L13.855,22.5H9.25h-5v-21H19.75 M20.25,1H3.75v22h5.5h4.813l6.188-6.188V1L20.25,1z"/>
	</g>
</g>
</svg>
