<?xml version="1.0" encoding="iso-8859-1"?>
<!-- Generator: Adobe Illustrator 21.0.0, SVG Export Plug-In . SVG Version: 6.00 Build 0)  -->
<svg version="1.0" id="&#x56FE;&#x5C42;_1" xmlns="http://www.w3.org/2000/svg" xmlns:xlink="http://www.w3.org/1999/xlink" x="0px"
	 y="0px" width="16px" height="16px" viewBox="0 0 16 16" enable-background="new 0 0 16 16" xml:space="preserve">
<title>16</title>
<g id="&#x5E95;&#x677F;_&#x590D;&#x5236;">
	<g id="&#x6DF1;&#x7070;&#x8272;">
		<g id="_16">
			
				<linearGradient id="SVGID_1_" gradientUnits="userSpaceOnUse" x1="8" y1="4279.4727" x2="8" y2="4264.4712" gradientTransform="matrix(1 0 0 1 0 -4263.9702)">
				<stop  offset="0" style="stop-color:#CFD8DC"/>
				<stop  offset="1" style="stop-color:#EBECF2"/>
			</linearGradient>
			<path fill="url(#SVGID_1_)" d="M13.8,13.8c-2.3,2.3-9.3,2.3-11.6,0s-2.3-9.3,0-11.6s9.3-2.3,11.6,0S16.1,11.5,13.8,13.8z"/>
		</g>
	</g>
</g>
<g id="&#x56FE;&#x5C42;_139">
	<g id="_16-2">
		
			<linearGradient id="SVGID_2_" gradientUnits="userSpaceOnUse" x1="8" y1="79.46" x2="8" y2="85.78" gradientTransform="matrix(1 0 0 -1 0 93.9698)">
			<stop  offset="0" style="stop-color:#90A4AE"/>
			<stop  offset="1" style="stop-color:#E0E0E0"/>
		</linearGradient>
		<rect x="4" y="4.4" fill="url(#SVGID_2_)" width="8" height="8.6"/>
		
			<linearGradient id="SVGID_3_" gradientUnits="userSpaceOnUse" x1="8" y1="92.63" x2="8" y2="89.54" gradientTransform="matrix(1 0 0 -1 0 93.9698)">
			<stop  offset="0" style="stop-color:#90A4AE"/>
			<stop  offset="1" style="stop-color:#E0E0E0"/>
		</linearGradient>
		<polygon fill="url(#SVGID_3_)" points="5,3 4,4.4 12,4.4 11,3 		"/>
		<rect x="5" y="4.4" fill="#0288D1" width="6" height="4"/>
		<rect x="5" y="9" fill="#0288D1" width="6" height="3"/>
		<rect x="6" y="10" fill="#4FC3F7" width="4" height="1"/>
		<rect x="6" y="6" fill="#4FC3F7" width="4" height="1"/>
		<rect x="5" y="8" fill="#90A4AE" width="6" height="1"/>
		<rect x="4" y="4.4" fill="#90A4AE" width="8" height="0.6"/>
	</g>
</g>
</svg>
