<?xml version="1.0" encoding="utf-8"?>
<!-- Generator: Adobe Illustrator 24.0.0, SVG Export Plug-In . SVG Version: 6.00 Build 0)  -->
<svg version="1.1" id="图层_34" xmlns="http://www.w3.org/2000/svg" xmlns:xlink="http://www.w3.org/1999/xlink" x="0px" y="0px"
	 viewBox="0 0 96 96" style="enable-background:new 0 0 96 96;" xml:space="preserve">
<title>96</title>
<g id="_96">
	<path style="fill:#FFFFFF;stroke:#939292;stroke-miterlimit:10;" d="M49,82.5H15.5c-5,0-9-4-9-9v-50c0-5,4-9,9-9H49"/>
	<path style="fill:#3584E4;stroke:#5D738D;stroke-miterlimit:10;" d="M48,14.5h32.5c5,0,9,4,9,9l0,0v50c0,5-4,9-9,9H48"/>
	<polyline style="fill:none;stroke:#77767B;stroke-width:3;stroke-linecap:round;stroke-linejoin:round;" points="16.2,62 
		27.5,36.4 38.8,62 	"/>
	
		<line style="fill:none;stroke:#77767B;stroke-width:3;stroke-linecap:round;stroke-linejoin:round;" x1="20.3" y1="54.5" x2="35.2" y2="54.5"/>
	<path style="fill:none;stroke:#FFFFFF;stroke-width:3;stroke-linecap:round;stroke-linejoin:round;" d="M61.5,40v6.4
		c0,6.4,19.2,17,19.2,17"/>
	<path style="fill:none;stroke:#FFFFFF;stroke-width:3;stroke-linecap:round;stroke-linejoin:round;" d="M73.5,40v6.4
		c0,6.4-19.2,17-19.2,17"/>
	
		<line style="fill:none;stroke:#FFFFFF;stroke-width:3;stroke-linecap:round;stroke-linejoin:round;" x1="55.5" y1="39.5" x2="79.7" y2="39.5"/>
	
		<line style="fill:none;stroke:#FFFFFF;stroke-width:3;stroke-linecap:round;stroke-linejoin:round;" x1="67.5" y1="34.5" x2="67.5" y2="38.8"/>
</g>
</svg>
