<svg id="图层_1" data-name="图层 1" xmlns="http://www.w3.org/2000/svg" xmlns:xlink="http://www.w3.org/1999/xlink" viewBox="0 0 128 128"><defs><style>.cls-1{fill:url(#未命名的渐变_18);}.cls-2{fill:url(#未命名的渐变_25);}.cls-3{fill:url(#未命名的渐变_21);}.cls-4{fill:#2a2f35;}.cls-5{fill:#1c1c1c;}.cls-6{fill:url(#未命名的渐变_25-2);}.cls-7{fill:url(#未命名的渐变_21-2);}</style><linearGradient id="未命名的渐变_18" x1="64" y1="5" x2="64" y2="123" gradientUnits="userSpaceOnUse"><stop offset="0" stop-color="#94a7b0"/><stop offset="1" stop-color="#5d7987"/></linearGradient><linearGradient id="未命名的渐变_25" x1="64" y1="116" x2="64" y2="48" gradientUnits="userSpaceOnUse"><stop offset="0" stop-color="#2b383f"/><stop offset="1" stop-color="#5f7b89"/></linearGradient><linearGradient id="未命名的渐变_21" x1="64" y1="107" x2="64" y2="57" gradientUnits="userSpaceOnUse"><stop offset="0" stop-color="#94a7b0"/><stop offset="1" stop-color="#d7d9db"/></linearGradient><linearGradient id="未命名的渐变_25-2" x1="64" y1="43" x2="64" y2="11" xlink:href="#未命名的渐变_25"/><linearGradient id="未命名的渐变_21-2" y1="39" y2="15" xlink:href="#未命名的渐变_21"/></defs><title>audiocard128</title><g id="_128" data-name="128"><rect class="cls-1" x="19" y="5" width="90" height="118" rx="12"/><circle class="cls-2" cx="64" cy="82" r="34"/><circle class="cls-3" cx="64" cy="82" r="25"/><path class="cls-4" d="M64,59A23,23,0,1,1,41,82,23,23,0,0,1,64,59m0-4A27,27,0,1,0,91,82,27,27,0,0,0,64,55Z"/><circle class="cls-5" cx="64" cy="82" r="8"/><circle class="cls-6" cx="64" cy="27" r="16"/><circle class="cls-7" cx="64" cy="27" r="12"/><path class="cls-4" d="M64,16A11,11,0,1,1,53,27,11,11,0,0,1,64,16m0-2A13,13,0,1,0,77,27,13,13,0,0,0,64,14Z"/><circle class="cls-5" cx="64" cy="27.32" r="3.81"/></g></svg>