<?xml version="1.0" encoding="utf-8"?>
<!-- Generator: Adobe Illustrator 24.0.0, SVG Export Plug-In . SVG Version: 6.00 Build 0)  -->
<svg version="1.1" id="图层_1" xmlns="http://www.w3.org/2000/svg" xmlns:xlink="http://www.w3.org/1999/xlink" x="0px" y="0px"
	 viewBox="0 0 128 128" enable-background="new 0 0 128 128" xml:space="preserve">
<title>audiocard128</title>
<g id="_128">
	
		<linearGradient id="SVGID_1_" gradientUnits="userSpaceOnUse" x1="64" y1="123" x2="64" y2="5" gradientTransform="matrix(1 0 0 -1 0 128)">
		<stop  offset="0" style="stop-color:#94A7B0"/>
		<stop  offset="1" style="stop-color:#5D7987"/>
	</linearGradient>
	<path fill="url(#SVGID_1_)" d="M31,5h66c6.6,0,12,5.4,12,12v94c0,6.6-5.4,12-12,12H31c-6.6,0-12-5.4-12-12V17C19,10.4,24.4,5,31,5z
		"/>
	
		<linearGradient id="SVGID_2_" gradientUnits="userSpaceOnUse" x1="64" y1="12" x2="64" y2="80" gradientTransform="matrix(1 0 0 -1 0 128)">
		<stop  offset="0" style="stop-color:#2B383F"/>
		<stop  offset="1" style="stop-color:#5F7B89"/>
	</linearGradient>
	<circle fill="url(#SVGID_2_)" cx="64" cy="82" r="34"/>
	
		<linearGradient id="SVGID_3_" gradientUnits="userSpaceOnUse" x1="64" y1="21" x2="64" y2="71" gradientTransform="matrix(1 0 0 -1 0 128)">
		<stop  offset="0" style="stop-color:#94A7B0"/>
		<stop  offset="1" style="stop-color:#D7D9DB"/>
	</linearGradient>
	<circle fill="url(#SVGID_3_)" cx="64" cy="82" r="25"/>
	<path fill="#2A2F35" d="M64,59c12.7,0,23,10.3,23,23s-10.3,23-23,23S41,94.7,41,82S51.3,59,64,59 M64,55c-14.9,0-27,12.1-27,27
		s12.1,27,27,27s27-12.1,27-27S78.9,55,64,55z"/>
	<circle fill="#1C1C1C" cx="64" cy="82" r="8"/>
	
		<linearGradient id="SVGID_4_" gradientUnits="userSpaceOnUse" x1="64" y1="85" x2="64" y2="117" gradientTransform="matrix(1 0 0 -1 0 128)">
		<stop  offset="0" style="stop-color:#2B383F"/>
		<stop  offset="1" style="stop-color:#5F7B89"/>
	</linearGradient>
	<circle fill="url(#SVGID_4_)" cx="64" cy="27" r="16"/>
	
		<linearGradient id="SVGID_5_" gradientUnits="userSpaceOnUse" x1="64" y1="89" x2="64" y2="113" gradientTransform="matrix(1 0 0 -1 0 128)">
		<stop  offset="0" style="stop-color:#94A7B0"/>
		<stop  offset="1" style="stop-color:#D7D9DB"/>
	</linearGradient>
	<circle fill="url(#SVGID_5_)" cx="64" cy="27" r="12"/>
	<path fill="#2A2F35" d="M64,16c6.1,0,11,4.9,11,11s-4.9,11-11,11s-11-4.9-11-11S57.9,16,64,16 M64,14c-7.2,0-13,5.8-13,13
		s5.8,13,13,13s13-5.8,13-13S71.2,14,64,14z"/>
	<circle fill="#1C1C1C" cx="64" cy="27.3" r="3.8"/>
</g>
</svg>
