<svg id="打印机" xmlns="http://www.w3.org/2000/svg" viewBox="0 0 128 128"><defs><style>.cls-1{fill:#64798a;}.cls-2{fill:#3a556a;}.cls-3{fill:#ececde;}.cls-4{fill:#3fc59b;}.cls-5{fill:#cecdbc;}.cls-6{fill:#8f9396;}</style></defs><title>128</title><g id="_128" data-name="128"><path class="cls-1" d="M20,31h88a12,12,0,0,1,12,12V65H8V43A12,12,0,0,1,20,31Z"/><path class="cls-2" d="M8,64H120V86a12,12,0,0,1-12,12H20A12,12,0,0,1,8,86Z"/><rect class="cls-2" x="25" y="43" width="78" height="12"/><rect class="cls-2" x="25" y="98" width="78" height="22"/><rect class="cls-3" x="31" y="81" width="66" height="33"/><circle class="cls-4" cx="108.5" cy="72.5" r="4.5"/><polygon class="cls-3" points="85 20 85 8 31 8 31 48 97 48 97 20 85 20"/><polygon class="cls-5" points="97 20 85 8 85 20 97 20"/><rect class="cls-6" x="44" y="13" width="40" height="4"/><rect class="cls-6" x="44" y="25" width="40" height="4"/><rect class="cls-6" x="44" y="37" width="40" height="4"/></g></svg>