<?xml version="1.0" encoding="utf-8"?>
<!-- Generator: Adobe Illustrator 21.0.0, SVG Export Plug-In . SVG Version: 6.00 Build 0)  -->
<svg version="1.1" id="图层_1" xmlns="http://www.w3.org/2000/svg" xmlns:xlink="http://www.w3.org/1999/xlink" x="0px" y="0px"
	 viewBox="0 0 16 16" style="enable-background:new 0 0 16 16;" xml:space="preserve">
<style type="text/css">
	.st0{display:none;opacity:0.75;}
	.st1{display:inline;fill:#1F2022;}
	.st2{display:inline;}
	.st3{fill:#1F2022;}
	.st4{opacity:0.75;}
	.st5{fill:none;stroke:#1F2022;stroke-linecap:round;stroke-miterlimit:10;}
</style>
<g class="st0">
	<path class="st1" d="M16,10.3c0-0.2,0-0.3-0.1-0.4l-3.1-8.2C12.6,1.3,12.2,1,11.8,1H4.3c-0.5,0-0.9,0.3-1,0.7L0.1,9.9
		C0,10,0,10.2,0,10.3v2.2C0,13.9,1.1,15,2.5,15h11c1.4,0,2.5-1.1,2.5-2.5V10.3z M15,12.5c0,0.8-0.7,1.5-1.5,1.5h-11
		C1.7,14,1,13.3,1,12.5V11h14V12.5z M3.9,2.2C4,2.1,4.1,2,4.3,2h7.4c0.2,0,0.3,0.1,0.4,0.2L15,10H1L3.9,2.2z"/>
	<circle class="st1" cx="9.5" cy="12.5" r="0.5"/>
	<circle class="st1" cx="11.5" cy="12.5" r="0.5"/>
	<circle class="st1" cx="13.5" cy="12.5" r="0.5"/>
	<g class="st2">
		<path class="st3" d="M8,4c1.7,0,3,0.8,3,1.5S9.7,7,8,7S5,6.2,5,5.5S6.3,4,8,4 M8,3C5.8,3,4,4.1,4,5.5S5.8,8,8,8s4-1.1,4-2.5
			S10.2,3,8,3L8,3z"/>
	</g>
</g>
<g class="st4">
	<path class="st3" d="M16,10.3c0-0.2,0-0.3-0.1-0.4l-3.1-8.2C12.6,1.3,12.2,1,11.8,1H4.3c-0.5,0-0.9,0.3-1,0.7L0.1,9.9
		C0,10,0,10.2,0,10.3v2.2C0,13.9,1.1,15,2.5,15h11c1.4,0,2.5-1.1,2.5-2.5V10.3z M15,12.5c0,0.8-0.7,1.5-1.5,1.5h-11
		C1.7,14,1,13.3,1,12.5V11h14V12.5z M3.9,2.2C4,2.1,4.1,2,4.3,2h7.4c0.2,0,0.3,0.1,0.4,0.2L15,10H1L3.9,2.2z"/>
	<circle class="st3" cx="9.5" cy="12.5" r="0.5"/>
	<circle class="st3" cx="11.5" cy="12.5" r="0.5"/>
	<circle class="st3" cx="13.5" cy="12.5" r="0.5"/>
	<g>
		<path class="st3" d="M8,4c1.9,0,3,0.8,3,1S9.9,6,8,6S5,5.2,5,5S6.1,4,8,4 M8,3C5.8,3,4,3.9,4,5s1.8,2,4,2s4-0.9,4-2S10.2,3,8,3
			L8,3z"/>
	</g>
</g>
<g class="st4">
	<line class="st5" x1="5.5" y1="8.5" x2="10.5" y2="8.5"/>
</g>
</svg>
