<svg id="附加驱动" xmlns="http://www.w3.org/2000/svg" xmlns:xlink="http://www.w3.org/1999/xlink" viewBox="0 0 128 128"><defs><style>.cls-1{fill:url(#未命名的渐变_26);}.cls-2{fill:#5f6d77;}.cls-3{fill:#1a1a1a;}.cls-4{fill:lime;}.cls-5{fill:#333;}.cls-6{fill:#00a000;}.cls-7{fill:none;stroke:#00a000;stroke-miterlimit:10;stroke-width:4px;}</style><linearGradient id="未命名的渐变_26" x1="-8358.44" y1="-8160.48" x2="-8319.14" y2="-8160.48" gradientTransform="translate(23823.84 23314.78) scale(2.85)" gradientUnits="userSpaceOnUse"><stop offset="0" stop-color="#ccc"/><stop offset="0.15" stop-color="#e8e8e8"/><stop offset="0.31" stop-color="#ddd"/><stop offset="0.72" stop-color="#ccc"/><stop offset="1" stop-color="#ddd"/></linearGradient></defs><title>128</title><g id="_128" data-name="128"><g id="_128-2" data-name="128"><path class="cls-1" d="M109.46,23.59c-.48-7.76-5.9-14.06-12.92-15.35A15.57,15.57,0,0,0,93.88,8H34.38a15.55,15.55,0,0,0-2.65.24c-7,1.29-12.4,7.55-12.92,15.26L8,104.18C8,111.81,13.79,118,20.92,118h86.16c7.13,0,12.92-6.19,12.92-13.82Z"/><rect class="cls-2" x="8" y="90" width="112" height="30" rx="15"/><rect class="cls-3" x="11" y="93" width="106" height="24" rx="12"/><circle class="cls-4" cx="102.5" cy="105.5" r="4.5"/><rect class="cls-5" x="21" y="103" width="70" height="7" rx="3.5"/><rect x="21" y="103" width="70" height="5" rx="2.5"/></g><rect class="cls-6" x="60" y="34" width="4" height="40"/><circle class="cls-6" cx="62" cy="79" r="6"/><polygon class="cls-6" points="61.67 25 54.33 34.33 69 34.33 61.67 25"/><path class="cls-7" d="M50,52v4.92A10.11,10.11,0,0,0,60.08,67h0"/><path class="cls-7" d="M74,42v6.92A10.11,10.11,0,0,1,63.92,59h0"/><circle class="cls-6" cx="50" cy="49" r="5"/><rect class="cls-6" x="69" y="36" width="10" height="10"/></g></svg>