<svg id="图层_1" data-name="图层 1" xmlns="http://www.w3.org/2000/svg" xmlns:xlink="http://www.w3.org/1999/xlink" viewBox="0 0 96 96"><defs><style>.cls-1{fill:url(#未命名的渐变_77);}.cls-2{fill:url(#未命名的渐变_37);}.cls-3{fill:url(#未命名的渐变_62);}.cls-4{fill:url(#未命名的渐变_145);}.cls-5{fill:url(#未命名的渐变_37-2);}.cls-6{fill:url(#未命名的渐变_147);}.cls-7{fill:#fff;}.cls-8{fill:url(#未命名的渐变_161);}</style><linearGradient id="未命名的渐变_77" x1="-117" y1="29.5" x2="-117" y2="-3.87" gradientTransform="translate(104.8 -61.28) rotate(-45)" gradientUnits="userSpaceOnUse"><stop offset="0" stop-color="#383534"/><stop offset="1" stop-color="#847872"/></linearGradient><linearGradient id="未命名的渐变_37" x1="-117.21" y1="29.5" x2="-117.21" y2="-3.87" gradientTransform="translate(104.8 -61.28) rotate(-45)" gradientUnits="userSpaceOnUse"><stop offset="0" stop-color="#595756"/><stop offset="1" stop-color="#847872"/></linearGradient><linearGradient id="未命名的渐变_62" x1="-117.21" y1="14.49" x2="-117.21" y2="-18.88" gradientTransform="translate(104.8 -61.28) rotate(-45)" gradientUnits="userSpaceOnUse"><stop offset="0" stop-color="#6b6866"/><stop offset="1" stop-color="#847872"/></linearGradient><linearGradient id="未命名的渐变_145" x1="-117.42" y1="29.85" x2="-117.42" y2="-5.24" gradientTransform="translate(104.8 -61.28) rotate(-45)" gradientUnits="userSpaceOnUse"><stop offset="0" stop-color="#282421"/><stop offset="1" stop-color="#847872"/></linearGradient><linearGradient id="未命名的渐变_37-2" x1="-117.64" y1="29.84" x2="-117.64" y2="-5.24" xlink:href="#未命名的渐变_37"/><linearGradient id="未命名的渐变_147" x1="-117.64" y1="14.06" x2="-117.64" y2="-21.02" gradientTransform="translate(104.8 -61.28) rotate(-45)" gradientUnits="userSpaceOnUse"><stop offset="0" stop-color="#685f5b"/><stop offset="1" stop-color="#847872"/></linearGradient><linearGradient id="未命名的渐变_161" x1="40.54" y1="74.09" x2="86.2" y2="28.42" gradientUnits="userSpaceOnUse"><stop offset="0" stop-color="#ff9e5c"/><stop offset="1" stop-color="#ed853e"/></linearGradient></defs><title>U disk starter96</title><g id="_96" data-name="96"><path class="cls-1" d="M27.46,36.55,20.61,43.4l-13-13h0L31.21,54,54.66,30.6,31.05,7l-.3.31A23.29,23.29,0,0,1,27.46,36.55Z"/><path class="cls-2" d="M20.61,43.4l6.85-6.85A23.29,23.29,0,0,0,30.75,7.32L7.62,30.43Z"/><path class="cls-3" d="M20.61,43.4l6.85-6.85A23.29,23.29,0,0,0,30.75,7.32L7.62,30.43Z"/><path class="cls-4" d="M26.72,36.69l-7.06,7.05L6,30.1l0,0L30.81,54.91,54.94,30.79,30.14,6l-.32.31A24.11,24.11,0,0,1,26.72,36.69Z"/><path class="cls-5" d="M19.66,43.74l7.06-7.05a24.11,24.11,0,0,0,3.1-30.38L6,30.1Z"/><path class="cls-6" d="M19.66,43.74l7.06-7.05a24.11,24.11,0,0,0,3.1-30.38L6,30.1Z"/><rect class="cls-7" x="15.67" y="27.89" width="9.49" height="3.78" transform="translate(-15.08 23.15) rotate(-44.98)"/><rect class="cls-7" x="25.06" y="18.49" width="9.49" height="3.78" transform="translate(-5.68 27.03) rotate(-44.98)"/><path class="cls-8" d="M82.86,49.35,52.37,18.88a5.81,5.81,0,0,0-8.2-.07L18.77,44.19a5.8,5.8,0,0,0,.07,8.2l3.6,3.6L49.33,82.86a23.92,23.92,0,0,0,33.81.29,23.25,23.25,0,0,0,5-7.44A24.1,24.1,0,0,0,82.86,49.35Z"/></g></svg>