<svg id="图层_1" data-name="图层 1" xmlns="http://www.w3.org/2000/svg" xmlns:xlink="http://www.w3.org/1999/xlink" viewBox="0 0 128 128"><defs><style>.cls-1{fill:url(#未命名的渐变_221);}.cls-2{fill:#5f6d77;}.cls-3{fill:#1a1a1a;}.cls-4{fill:lime;}.cls-5{fill:#333;}.cls-6{fill:url(#未命名的渐变_9);}.cls-7{fill:gray;}.cls-8{fill:#b3b3b3;}.cls-9{fill:#fff;stroke:#ccc;stroke-miterlimit:10;}</style><linearGradient id="未命名的渐变_221" x1="-9612.39" y1="-8947.89" x2="-9573.08" y2="-8947.89" gradientTransform="translate(27396.72 25559.85) scale(2.85)" gradientUnits="userSpaceOnUse"><stop offset="0" stop-color="#ccc"/><stop offset="0.15" stop-color="#e8e8e8"/><stop offset="0.31" stop-color="#ccc"/><stop offset="0.72" stop-color="#afafaf"/><stop offset="1" stop-color="#ccc"/></linearGradient><linearGradient id="未命名的渐变_9" x1="55" y1="41" x2="119" y2="41" gradientUnits="userSpaceOnUse"><stop offset="0" stop-color="#e1f7f9"/><stop offset="1" stop-color="#eee4fa"/></linearGradient></defs><title>drive-cdrom128</title><g id="_128" data-name="128"><g id="_128-2" data-name="128"><path class="cls-1" d="M109.46,27.59A15.63,15.63,0,0,0,93.88,13H34.39A15.63,15.63,0,0,0,18.81,27.51L8,103.06A12.93,12.93,0,0,0,20.92,116h86.16A12.93,12.93,0,0,0,120,103.06Z"/><rect class="cls-2" x="8" y="90" width="112" height="30" rx="15"/><rect class="cls-3" x="11" y="93" width="106" height="24" rx="12"/><circle class="cls-4" cx="102.5" cy="105.5" r="4.5"/><rect class="cls-5" x="21" y="103" width="70" height="7" rx="3.5"/><rect x="21" y="103" width="70" height="5" rx="2.5"/></g><circle class="cls-6" cx="87" cy="41" r="32"/><path class="cls-7" d="M87,10A31,31,0,1,1,56,41,31,31,0,0,1,87,10m0-2a33,33,0,1,0,33,33A33,33,0,0,0,87,8Z"/><circle class="cls-8" cx="87" cy="41" r="8.5"/><circle class="cls-9" cx="87" cy="41" r="3.5"/></g></svg>