<?xml version="1.0" encoding="utf-8"?>
<!-- Generator: Adobe Illustrator 21.0.0, SVG Export Plug-In . SVG Version: 6.00 Build 0)  -->
<svg version="1.1" id="图层_1" opacity="0.8" xmlns="http://www.w3.org/2000/svg" xmlns:xlink="http://www.w3.org/1999/xlink"
	 x="0px" y="0px" viewBox="0 0 18 18" style="enable-background:new 0 0 18 18;" xml:space="preserve">
<style type="text/css">
	.st0{fill:#1F2022;}
	.st1{fill:none;stroke:#1F2022;stroke-miterlimit:10;}
	.st2{fill:none;stroke:#1F2022;stroke-linecap:round;stroke-miterlimit:10;}
</style>
<g>
	<path class="st0" d="M12,5c0.6,0,1,0.4,1,1v10c0,0.6-0.4,1-1,1H5c-0.6,0-1-0.4-1-1V6c0-0.6,0.4-1,1-1H12 M12,4H5C3.9,4,3,4.9,3,6
		v10c0,1.1,0.9,2,2,2h7c1.1,0,2-0.9,2-2V6C14,4.9,13.1,4,12,4L12,4z"/>
</g>
<g>
	<path class="st0" d="M11,2v2H6V2H11 M12,1H5v4h7V1L12,1z"/>
</g>
<g>
	<line class="st1" x1="8.5" y1="1.8" x2="8.5" y2="4.5"/>
</g>
<line class="st2" x1="8.5" y1="7.5" x2="8.5" y2="14.5"/>
<path class="st2" d="M8,12.5L8,12.5c-0.8,0-1.5-0.7-1.5-1.5V9.5"/>
<path class="st2" d="M9,11.5L9,11.5c0.8,0,1.5-0.7,1.5-1.5V8.5"/>
</svg>
