<svg id="图层_1" data-name="图层 1" xmlns="http://www.w3.org/2000/svg" xmlns:xlink="http://www.w3.org/1999/xlink" viewBox="0 0 96 96"><defs><style>.cls-1{fill:url(#未命名的渐变_15);}.cls-2,.cls-3{fill:#fff;}.cls-3{opacity:0.62;}.cls-4{opacity:0.5;}.cls-5{fill:url(#未命名的渐变_6);}.cls-6{fill:#bbdefb;}.cls-7{opacity:0.3;}.cls-8{fill:url(#未命名的渐变_54);}.cls-9{fill:url(#未命名的渐变_54-2);}.cls-10{fill:url(#未命名的渐变_54-3);}</style><linearGradient id="未命名的渐变_15" x1="78.74" y1="78.74" x2="17.26" y2="17.26" gradientUnits="userSpaceOnUse"><stop offset="0.01" stop-color="#9cbdff"/><stop offset="0.36" stop-color="#fcb1dc"/><stop offset="0.73" stop-color="#dfcee8"/><stop offset="1" stop-color="#88ffd4"/></linearGradient><linearGradient id="未命名的渐变_6" x1="37" y1="48" x2="59" y2="48" gradientUnits="userSpaceOnUse"><stop offset="0" stop-color="#ef6adc"/><stop offset="1" stop-color="#2868e8"/></linearGradient><linearGradient id="未命名的渐变_54" x1="23" y1="86" x2="23" y2="64" gradientUnits="userSpaceOnUse"><stop offset="0" stop-color="#752eff"/><stop offset="1" stop-color="#305eef"/></linearGradient><linearGradient id="未命名的渐变_54-2" x1="50" x2="50" xlink:href="#未命名的渐变_54"/><linearGradient id="未命名的渐变_54-3" x1="72" x2="72" xlink:href="#未命名的渐变_54"/></defs><title>media-dvd96</title><g id="_96" data-name="96"><circle class="cls-1" cx="48" cy="48" r="43.5"/><path class="cls-2" d="M48,5A43,43,0,1,1,5,48,43,43,0,0,1,48,5m0-1A44,44,0,1,0,92,48,44,44,0,0,0,48,4Z"/><polygon class="cls-2" points="47.95 48.05 48 48.01 48.01 48.01 48.01 48 48.05 47.95 48 47.99 47.99 47.99 47.99 48 47.95 48.05"/><path class="cls-3" d="M57.4,33.83A17,17,0,1,0,62.17,57.4,17,17,0,0,0,57.4,33.83Z"/><g class="cls-4"><path class="cls-5" d="M48,59a11,11,0,1,1,9.19-4.92A10.9,10.9,0,0,1,48,59Z"/><path class="cls-2" d="M48,38a10,10,0,1,1-8.36,4.47A10,10,0,0,1,48,38m0-2a12,12,0,1,0,6.61,2A12,12,0,0,0,48,36Z"/></g><circle class="cls-2" cx="48" cy="48" r="6"/><polygon class="cls-6" points="48.04 47.96 48 47.99 48 47.99 47.99 48 47.96 48.04 48 48.01 48 48 48.01 48 48.04 47.96"/><g class="cls-7"><path class="cls-2" d="M48,47.94h0L7.75,65.73a43,43,0,0,0,5.47,9.21L48,48Z"/><path class="cls-2" d="M48,48h0L88.25,30.19A43.55,43.55,0,0,0,82.77,21L48.08,47.9Z"/><path class="cls-2" d="M67.67,8.64,48,47.94h0l0,0,28.5-33.36a44.33,44.33,0,0,0-4.26-3.21A43.4,43.4,0,0,0,67.67,8.64Z"/><path class="cls-2" d="M48,48,48,48,19.41,81.44a45.14,45.14,0,0,0,8.93,5.92L48,48Z"/></g><path class="cls-8" d="M36,70.46a7.65,7.65,0,0,0-.62-3,5,5,0,0,0-1.75-2.1,6.57,6.57,0,0,0-2.7-1.06A22.18,22.18,0,0,0,27.3,64c-1.23,0-2.55,0-4,.07s-2.54.07-3.41.07-1.95,0-3.17,0L16.27,66c-.27,1-.2.61-.86,2.83h6.46c1.05-.07,1.95-.1,2.71-.1a6.45,6.45,0,0,1,2.93.52A2.62,2.62,0,0,1,28.83,71a6.44,6.44,0,0,1-.17,3.21,12.43,12.43,0,0,1-1.25,3,8.51,8.51,0,0,1-2.05,2.44A6.18,6.18,0,0,1,22.82,81a14.09,14.09,0,0,1-2.94.29c-.64,0-1.23,0-1.79-.08l2.45-8H14.18c-.84,2.79-1.57,5.14-2.16,7-.47,1.47-1.15,3.42-2,5.86,1.35,0,2.33,0,2.93,0l6.35,0a35.86,35.86,0,0,0,3.92-.19,15.19,15.19,0,0,0,2.53-.47,11.73,11.73,0,0,0,2-.8,13.16,13.16,0,0,0,2.51-1.66,14.35,14.35,0,0,0,2.19-2.32,18.32,18.32,0,0,0,1.86-3,19.76,19.76,0,0,0,1.29-3.49A13,13,0,0,0,36,70.46Z"/><path class="cls-9" d="M59.56,64l-3.65,0c-.45.69-.76,1.18-1,1.47l-.52.77L45.72,78.56l-1.2,1.86c0-1.28,0-2.32,0-3.12l-.32-7.62C44.07,68,44,66.82,44,66.18S44,65,44,64l-3.21,0L37,64l.75,8.7L38.62,84l.07,2,4,0,3.76,0c1-1.47,2-2.75,2.76-3.82l8.3-11Q60.61,67.07,63,64Z"/><path class="cls-10" d="M85,70.46a7.65,7.65,0,0,0-.62-3,5,5,0,0,0-1.75-2.1,6.57,6.57,0,0,0-2.7-1.06A22.18,22.18,0,0,0,76.3,64c-1.23,0-2.55,0-4,.07s-2.54.07-3.41.07-2,0-3.17,0L65.27,66c-.27,1-.2.61-.86,2.83h6.46c1-.07,1.95-.1,2.71-.1a6.45,6.45,0,0,1,2.93.52A2.62,2.62,0,0,1,77.83,71a6.44,6.44,0,0,1-.17,3.21,12.43,12.43,0,0,1-1.25,3,8.51,8.51,0,0,1-2,2.44A6.18,6.18,0,0,1,71.82,81a14.09,14.09,0,0,1-2.94.29c-.64,0-1.23,0-1.79-.08l2.45-8H63.18c-.84,2.79-1.57,5.14-2.16,7-.47,1.47-1.15,3.42-2,5.86,1.35,0,2.33,0,2.93,0l6.35,0a35.86,35.86,0,0,0,3.92-.19,15.19,15.19,0,0,0,2.53-.47,11.73,11.73,0,0,0,2-.8,13.16,13.16,0,0,0,2.51-1.66,14.35,14.35,0,0,0,2.19-2.32,18.32,18.32,0,0,0,1.86-3,19.76,19.76,0,0,0,1.29-3.49A13,13,0,0,0,85,70.46Z"/></g></svg>