<?xml version="1.0" encoding="utf-8"?>
<!-- Generator: Adobe Illustrator 21.0.0, SVG Export Plug-In . SVG Version: 6.00 Build 0)  -->
<svg version="1.1" id="图层_1" opacity="0.8" xmlns="http://www.w3.org/2000/svg" xmlns:xlink="http://www.w3.org/1999/xlink"
	 x="0px" y="0px" viewBox="0 0 18 18" style="enable-background:new 0 0 18 18;" xml:space="preserve">
<style type="text/css">
	.st0{fill:#1F2022;}
	.st1{fill:none;stroke:#1F2022;stroke-miterlimit:10;}
	.st2{fill-rule:evenodd;clip-rule:evenodd;fill:#1F2022;}
</style>
<g>
	<path class="st0" d="M15,2c0.6,0,1,0.4,1,1v11c0,0.6-0.4,1-1,1H3c-0.6,0-1-0.4-1-1V3c0-0.6,0.4-1,1-1H15 M15,1H3C1.9,1,1,1.9,1,3
		v11c0,1.1,0.9,2,2,2h12c1.1,0,2-0.9,2-2V3C17,1.9,16.1,1,15,1L15,1z"/>
</g>
<g>
	<line class="st1" x1="1.9" y1="10.5" x2="16.3" y2="10.5"/>
</g>
<g>
	<line class="st1" x1="1.9" y1="5.5" x2="16.3" y2="5.5"/>
</g>
<line class="st1" x1="3.5" y1="13" x2="3.5" y2="15.5"/>
<line class="st1" x1="3.5" y1="8" x2="3.5" y2="10.5"/>
<line class="st1" x1="3.5" y1="3" x2="3.5" y2="5.5"/>
<path class="st2" d="M7,2v13h4V2H7z M10,10H8V7h2V10z"/>
</svg>
