<?xml version="1.0" encoding="utf-8"?>
<!-- Generator: Adobe Illustrator 21.0.0, SVG Export Plug-In . SVG Version: 6.00 Build 0)  -->
<svg version="1.1" id="图层_1" opacity="0.8" xmlns="http://www.w3.org/2000/svg" xmlns:xlink="http://www.w3.org/1999/xlink"
	 x="0px" y="0px" viewBox="0 0 16 16" style="enable-background:new 0 0 16 16;" xml:space="preserve">
<style type="text/css">
	.st0{fill:#1F2022;}
</style>
<g>
	<path class="st0" d="M4,4v2h1V4H4z M6,4v2h1V4H6z M8,4v2h1V4H8z"/>
</g>
<g>
	<path class="st0" d="M10,2c0.6,0,1,0.4,1,1l0,2.8c0,0.4,0.2,0.8,0.5,1.1L12,7.4V13c0,0.6-0.4,1-1,1H4c-0.6,0-1-0.4-1-1V3
		c0-0.6,0.4-1,1-1H10 M10,1H4C2.9,1,2,1.9,2,3v10c0,1.1,0.9,2,2,2h7c1.1,0,2-0.9,2-2V7.4c0-0.3-0.1-0.5-0.3-0.7l-0.6-0.6
		C12.1,6.1,12,5.9,12,5.8L12,3C12,1.9,11.1,1,10,1L10,1z"/>
</g>
</svg>
