<?xml version="1.0" encoding="utf-8"?>
<!-- Generator: Adobe Illustrator 24.0.0, SVG Export Plug-In . SVG Version: 6.00 Build 0)  -->
<svg version="1.1" id="图层_2" opacity="0.8" xmlns="http://www.w3.org/2000/svg" xmlns:xlink="http://www.w3.org/1999/xlink"
	 x="0px" y="0px" viewBox="0 0 16 16" style="enable-background:new 0 0 16 16;" xml:space="preserve">
<style type="text/css">
	.st0{fill:#1F2022;}
	.st1{fill:none;stroke:#1F2022;stroke-miterlimit:10;}
	.st2{fill:none;stroke:#1F2022;stroke-linecap:round;stroke-miterlimit:10;}
	.st3{fill:none;stroke:#1F2022;stroke-width:2;stroke-miterlimit:10;}
</style>
<g>
	<path class="st0" d="M14,6c0.6,0,1,0.4,1,1v5c0,0.6-0.4,1-1,1H2c-0.6,0-1-0.4-1-1V7c0-0.6,0.4-1,1-1H14 M14,5H2C0.9,5,0,5.9,0,7v5
		c0,1.1,0.9,2,2,2h12c1.1,0,2-0.9,2-2V7C16,5.9,15.1,5,14,5L14,5z"/>
</g>
<path class="st1" d="M3.5,6V2.5c0-0.6,0.4-1,1-1h7c0.6,0,1,0.4,1,1V6"/>
<line class="st2" x1="2.5" y1="15.5" x2="13.5" y2="15.5"/>
<line class="st2" x1="3.5" y1="11.5" x2="12.5" y2="11.5"/>
<line class="st3" x1="8" y1="13.5" x2="8" y2="15"/>
<circle class="st0" cx="13.5" cy="7.5" r="0.5"/>
</svg>
