<svg id="图层_1" data-name="图层 1" xmlns="http://www.w3.org/2000/svg" xmlns:xlink="http://www.w3.org/1999/xlink" viewBox="0 0 96 96"><defs><style>.cls-1{fill:url(#未命名的渐变_251);}.cls-2{fill:#ccc;}.cls-3{fill:url(#未命名的渐变_16);}.cls-4{fill:#1ee2a6;}.cls-5{fill:#ffd357;}.cls-6{fill:#ccfeff;}.cls-7{fill:#fff;}.cls-8{fill:url(#未命名的渐变_255);}.cls-9{fill:#206366;}</style><linearGradient id="未命名的渐变_251" x1="48" y1="56" x2="48" y2="88" gradientUnits="userSpaceOnUse"><stop offset="0" stop-color="#255f6d"/><stop offset="1" stop-color="#448d99"/></linearGradient><linearGradient id="未命名的渐变_16" x1="21.92" y1="8.83" x2="21.92" y2="8.82" gradientUnits="userSpaceOnUse"><stop offset="0" stop-color="#e6e6e6"/><stop offset="1" stop-color="#ccc"/></linearGradient><linearGradient id="未命名的渐变_255" x1="48" y1="8" x2="48" y2="54" gradientUnits="userSpaceOnUse"><stop offset="0" stop-color="#1db8bc"/><stop offset="1" stop-color="#62d7dd"/></linearGradient></defs><title>scanner96</title><g id="_96" data-name="96"><path class="cls-1" d="M90,80.37a8.25,8.25,0,0,0-.27-2.06L86.32,56H9.5L6.27,78.31A8.25,8.25,0,0,0,6,80.37H6v.08H6A7.5,7.5,0,0,0,13.37,88H82.63A7.5,7.5,0,0,0,90,80.46h0v-.08Z"/><path class="cls-2" d="M48.24,15a3,3,0,0,0-.1-.45l.13,1A4.36,4.36,0,0,0,48.24,15Z"/><path class="cls-2" d="M16.11,11.16a3.25,3.25,0,0,0-.06.45Z"/><path class="cls-2" d="M70.93,12a3.26,3.26,0,0,0-.09-.45l.12,1A3,3,0,0,0,70.93,12Z"/><path class="cls-3" d="M21.91,8.82h0Z"/><circle class="cls-4" cx="80.5" cy="81.5" r="2.5"/><circle class="cls-5" cx="72.5" cy="81.5" r="2.5"/><polygon class="cls-6" points="86.18 76 77.81 12 77.31 12 12.23 76 86.18 76"/><polygon class="cls-7" points="18.19 12 9.82 76 12.23 76 77.31 12 76.72 12 18.19 12"/><path class="cls-8" d="M81.19,10.71A4.72,4.72,0,0,0,77.36,8H18.85a4.61,4.61,0,0,0-4.06,2.89,5.06,5.06,0,0,0-.36,1.18h0L6,54H90S82.17,13.66,81.19,10.71Z"/><rect class="cls-9" x="6" y="54" width="84" height="2" rx="0.95"/></g></svg>