<svg id="icon-feedback-s" xmlns="http://www.w3.org/2000/svg" width="16" height="16" viewBox="0 0 16 16">
  <defs>
    <style>
      .cls-1 {
        fill: #515151;
        opacity: 0;
      }

      .cls-2 {
        fill: rgba(255,255,255,0);
      }

      .cls-3 {
        fill: #262626;
      }
    </style>
  </defs>
  <g id="icon_勿扰模式-开备份" data-name="icon/勿扰模式-开备份">
    <rect id="矩形_57" data-name="矩形 57" class="cls-1" width="16" height="16"/>
    <g id="icon-勿扰模式">
      <rect id="矩形" class="cls-2" width="16" height="16" rx="1"/>
      <path id="形状结合" class="cls-3" d="M8,0A8,8,0,1,1,0,8,8,8,0,0,1,8,0Zm3.077,5H4.923a2.186,2.186,0,0,0-1.156.2,1.371,1.371,0,0,0-.567.567A2.186,2.186,0,0,0,3,6.923V9.077a2.186,2.186,0,0,0,.2,1.156,1.371,1.371,0,0,0,.567.567,2.186,2.186,0,0,0,1.156.2H6.636l.89.925a.5.5,0,0,0,.707.014l.014-.014h0L9.136,11h1.941a2.186,2.186,0,0,0,1.156-.2,1.371,1.371,0,0,0,.567-.567A2.186,2.186,0,0,0,13,9.077V6.923a2.186,2.186,0,0,0-.2-1.156,1.371,1.371,0,0,0-.567-.567A2.186,2.186,0,0,0,11.077,5Z"/>
    </g>
  </g>
</svg>
