<?xml version="1.0" encoding="iso-8859-1"?>
<!-- Generator: Adobe Illustrator 21.0.0, SVG Export Plug-In . SVG Version: 6.00 Build 0)  -->
<svg version="1.1" id="&#x5176;&#x4ED6;" xmlns="http://www.w3.org/2000/svg" xmlns:xlink="http://www.w3.org/1999/xlink" x="0px"
	 y="0px" viewBox="0 0 512 512" style="enable-background:new 0 0 512 512;" xml:space="preserve">
<title>画板 17</title>
<g id="&#x8F6F;&#x9A71;">
	<path style="opacity:0.2;enable-background:new    ;" d="M32.42,504c-12.827,0.006-23.237-10.373-23.27-23.2V31.42
		C9.172,18.623,19.553,8.26,32.35,8.26h33.57l1.64,3.38c0.651,1.273,1.672,2.319,2.93,3l0.5,0.25l0.1,0.05
		c0.2,0.09,0.43,0.17,0.66,0.25h0.08c0.493,0.162,1.003,0.269,1.52,0.32l0.58,0.05h0.31l53.44,0.06V8l263.54,0.33v7.34
		c0.597-0.189,1.168-0.451,1.7-0.78l0.38-0.25l0.08-0.06l0.32-0.25l0.1-0.08l0.26-0.23l0.33-0.32c0.181-0.198,0.348-0.408,0.5-0.63
		l0.51-0.73l0.16-0.29l1.66-3.34l62.51,0.05l43.12,41.85v430.81c0,12.66-10.22,22.58-23.27,22.58L32.42,504L32.42,504z"/>
	<path style="opacity:0.08;enable-background:new    ;" d="M36.42,512c-15.034,0-27.231-12.167-27.27-27.2V35.42
		C9.178,20.416,21.346,8.265,36.35,8.26h36.08l2.73,5.63c0.286,0.544,0.728,0.99,1.27,1.28l0.23,0.12h0.07l0.3,0.11
		c0.224,0.078,0.455,0.132,0.69,0.16h0.53l49.44,0.06V8l271.54,0.34v0.37l66.12,0.05l45.5,44.16v432.5c0,14.91-12,26.58-27.27,26.58
		L36.42,512L36.42,512z"/>
	<path style="opacity:0.1;enable-background:new    ;" d="M36.42,508c-12.827,0.006-23.237-10.373-23.27-23.2V35.42
		c0.022-12.797,10.403-23.16,23.2-23.16h33.57l1.64,3.38c0.651,1.273,1.672,2.319,2.93,3L75,19h0.1c0.2,0.09,0.43,0.17,0.66,0.25
		h0.08c0.493,0.165,1.003,0.276,1.52,0.33l0.58,0.05h0.31l53.44,0.06V12l263.54,0.33v7.34c0.597-0.188,1.168-0.45,1.7-0.78
		l0.38-0.25l0.08-0.06l0.32-0.25l0.1-0.08l0.26-0.23l0.33-0.32c0.181-0.195,0.348-0.402,0.5-0.62l0.51-0.73l0.16-0.29l1.66-3.34
		l62.51,0.05l43.12,41.85v430.8c0,12.66-10.22,22.58-23.27,22.58L36.42,508L36.42,508z"/>
	<path d="M32.42,500c-10.618,0.006-19.237-8.583-19.27-19.2V31.42c0.022-10.588,8.612-19.16,19.2-19.16h31.06L64,13.41
		c1.008,2.024,2.609,3.691,4.59,4.78c0.24,0.13,0.49,0.26,0.76,0.39l0.11,0.05c0.32,0.14,0.68,0.28,1,0.41h0.14
		c0.776,0.254,1.577,0.422,2.39,0.5l0.65,0.06h0.62l57.44,0.07V12l255.54,0.32V20h1.61c2.167,0.009,4.295-0.579,6.15-1.7h0.08
		l0.52-0.35l0.09-0.07l0.51-0.39l0.15-0.12l0.41-0.36l0.49-0.48c0.334-0.353,0.642-0.731,0.92-1.13l0.59-0.85
		c0.13-0.22,0.26-0.45,0.37-0.67l0.55-1.11h2.14h56.26l40.78,39.53v429.12c0,10.42-8.47,18.58-19.27,18.58L32.42,500L32.42,500z"/>
	
		<linearGradient id="SVGID_1_" gradientUnits="userSpaceOnUse" x1="256" y1="-97.7401" x2="256" y2="798.8699" gradientTransform="matrix(1 0 0 1 0 112)">
		<stop  offset="0" style="stop-color:#211D1E"/>
		<stop  offset="0.55" style="stop-color:#58595B"/>
		<stop  offset="1" style="stop-color:#ABB6BE"/>
	</linearGradient>
	<path style="fill:url(#SVGID_1_);" d="M496.85,481.42c0,9.43-7.79,16.58-17.27,16.58H32.42c-9.514,0.017-17.242-7.676-17.27-17.19
		V31.42c0.028-9.505,7.755-17.188,17.26-17.16c0.003,0,0.007,0,0.01,0l0,0h29.73c2.296,4.566,6.989,7.429,12.1,7.38L388.84,22
		c5.101,0.053,9.791-2.787,12.11-7.33h56.35l39.55,38.39L496.85,481.42z"/>
	
		<linearGradient id="SVGID_2_" gradientUnits="userSpaceOnUse" x1="260.795" y1="102.31" x2="260.795" y2="416.12" gradientTransform="matrix(1 0 0 1 0 112)">
		<stop  offset="0" style="stop-color:#FFFFFF"/>
		<stop  offset="1" style="stop-color:#CFD8DC"/>
	</linearGradient>
	<path style="fill:url(#SVGID_2_);" d="M87.54,221H434c9.691,0.022,17.558,7.84,17.64,17.53V498H69.95V238.56
		c-0.006-9.693,7.847-17.554,17.54-17.56C87.507,221,87.523,221,87.54,221z"/>
	<path style="fill:#221E1F;" d="M80,188.08c-6.999-0.005-12.685-5.651-12.74-12.65V19.78c1.697,0.986,3.587,1.596,5.54,1.79v153.52
		c0.028,7.013,5.727,12.681,12.74,12.67L80,188.08z"/>
	<path style="fill:#040000;" d="M84.24,219.22h347.59c4.042,0.166,7.913,1.676,11,4.29c-1.747-0.719-3.596-1.158-5.48-1.3H89.74
		c-9.709,0-17.595,7.841-17.65,17.55V498h-5.52V236.77C66.614,227.049,74.519,219.198,84.24,219.22z"/>
	<path style="fill:#BAC6D1;" d="M441.53,222.56c8.287,1.585,14.288,8.823,14.31,17.26v206.54h-0.14v19h0.14V498h-6.32V237.24
		C449.511,231.31,446.505,225.787,441.53,222.56z"/>
	<path style="fill:#616161;" d="M399.85,16.48l-0.66,159.74c-0.06,7-5.749,12.645-12.75,12.65l-300.22-0.39
		c-4.763,0.002-9.127-2.657-11.31-6.89c1,0.43,8.1,3.72,11.08,3.72l294.77,0.35c6.858,0,12.431-5.533,12.48-12.39l0.67-152.16
		C396.298,20.176,398.362,18.567,399.85,16.48L399.85,16.48z M387.15,22l-190-0.22l0,0L387.15,22z"/>
	<path style="fill:#221E1F;" d="M134.14,14.32h251.5v146c-0.05,9.818-8.032,17.747-17.85,17.73L152,177.8
		c-9.831-0.022-17.805-7.969-17.86-17.8V14.32z M296.59,31.77c-6.586-0.006-11.933,5.324-11.95,11.91V159
		c0,6.608,5.342,11.972,11.95,12l48.8,0.06c6.604,0,11.967-5.336,12-11.94V43.76c0-6.627-5.373-12-12-12L296.59,31.77z"/>
	
		<linearGradient id="SVGID_3_" gradientUnits="userSpaceOnUse" x1="-93.5891" y1="19.219" x2="422.1609" y2="-34.991" gradientTransform="matrix(1 0 0 1 0 112)">
		<stop  offset="0" style="stop-color:#BFD7B1"/>
		<stop  offset="0.36" style="stop-color:#CFD1D2"/>
		<stop  offset="1" style="stop-color:#FFFFFF"/>
	</linearGradient>
	<path style="fill:url(#SVGID_3_);" d="M133.7,14l251.54,0.32v143.92c-0.077,9.831-8.069,17.76-17.9,17.76l-215.79-0.28
		c-9.83-0.022-17.801-7.97-17.85-17.8V14z M296.2,29.65c-6.596,0-11.956,5.324-12,11.92V156.9c0.033,6.637,5.423,12,12.06,12h48.73
		c6.592,0.006,11.955-5.308,12.01-11.9V41.67c0-6.627-5.373-12-12-12L296.2,29.65z"/>
	<path style="fill:#FFFFFF;" d="M133.7,14.32h251.54v2.09L135.51,16.1V160c0.003,3.842,1.268,7.577,3.6,10.63
		c-3.465-3.319-5.42-7.912-5.41-12.71V14.32z M354.82,34.91c1.406,1.975,2.167,4.336,2.18,6.76V157
		c-0.06,6.584-5.415,11.89-12,11.89h-48.73c-2.98,0-5.853-1.109-8.06-3.11c2.223,3.226,5.873,5.172,9.79,5.22l48.74,0.06
		c6.604,0,11.967-5.336,12-11.94V43.76C358.734,40.39,357.311,37.179,354.82,34.91z"/>
	<rect x="138.42" y="296.54" style="fill:#90A4AE;" width="242.73" height="12.01"/>
	<rect x="138.42" y="398.16" style="fill:#90A4AE;" width="242.73" height="12.01"/>
</g>
</svg>
