<?xml version="1.0" encoding="iso-8859-1"?>
<!-- Generator: Adobe Illustrator 21.0.0, SVG Export Plug-In . SVG Version: 6.00 Build 0)  -->
<svg version="1.1" id="&#x5176;&#x4ED6;" xmlns="http://www.w3.org/2000/svg" xmlns:xlink="http://www.w3.org/1999/xlink" x="0px"
	 y="0px" viewBox="0 0 512 512" style="enable-background:new 0 0 512 512;" xml:space="preserve">
<title>画板 17</title>
<g id="&#x8033;&#x9EA6;">
	<g id="_512">
		<path style="opacity:0.08;enable-background:new    ;" d="M260,512C120.791,511.921,8.004,399.005,8.084,259.796
			C8.142,158.6,68.715,67.249,161.91,27.81c128.371-53.853,276.092,6.556,329.944,134.927
			c53.662,127.916-6.118,275.152-133.764,329.453C327.059,505.326,293.697,512.064,260,512z"/>
		<path style="opacity:0.1;enable-background:new    ;" d="M260,508C123,507.925,12.001,396.804,12.076,259.804
			C12.131,160.208,71.747,70.301,163.47,31.49c126.537-52.509,271.683,7.502,324.193,134.04
			c52.036,125.397-6.4,269.328-131.123,322.96C326.001,501.423,293.165,508.059,260,508z"/>
		<path style="opacity:0.2;enable-background:new    ;" d="M256,504C119,503.925,8.001,392.804,8.076,255.804
			C8.131,156.208,67.747,66.301,159.47,27.49c126.537-52.509,271.683,7.502,324.193,134.04
			c52.036,125.397-6.4,269.328-131.123,322.96C322.001,497.423,289.165,504.059,256,504z"/>
		
			<linearGradient id="SVGID_1_" gradientUnits="userSpaceOnUse" x1="333.6543" y1="17.4581" x2="175.3942" y2="503.5581" gradientTransform="matrix(1 0 0 -1 0 512)">
			<stop  offset="0" style="stop-color:#4DD0E1"/>
			<stop  offset="0.94" style="stop-color:#1976D2"/>
		</linearGradient>
		<path style="fill:url(#SVGID_1_);" d="M256,499C121.795,499.003,12.997,390.211,12.994,256.006
			C12.992,191.555,38.595,129.743,84.17,84.17c94.899-94.899,248.761-94.899,343.66,0s94.899,248.761,0,343.66l0,0
			C382.357,473.55,320.483,499.178,256,499z"/>
		<path style="fill:#455A64;" d="M256,14c133.65,0,242,108.35,242,242S389.65,498,256,498S14,389.65,14,256S122.35,14,256,14
			 M256,12C121.209,12.067,11.995,121.391,12.062,256.182C12.111,354.171,70.76,442.629,161,480.82
			c124.165,52.467,267.353-5.655,319.82-129.82S475.165,83.647,351,31.18C320.947,18.459,288.635,11.935,256,12z"/>
		<path style="opacity:0.2;enable-background:new    ;" d="M397.11,284.74c-0.003-32.362-22.06-60.557-53.47-68.35
			c-0.69-8.63-2.7-24.69-10.2-41.34C322.62,151,299,126,256,126s-66.62,25-77.44,49.06c-7.49,16.65-9.51,32.71-10.2,41.34
			c-37.776,9.432-60.753,47.703-51.321,85.479c7.84,31.398,36.049,53.426,68.411,53.421V223c0,0,0.08-20.47,9.09-40.51
			s25-38.86,61.46-38.86s52.44,18.82,61.46,38.86s9.09,40.51,9.09,40.51v132.3c6.517-0.002,13.002-0.908,19.27-2.69
			c-0.93,4.92-2.67,8.4-4.78,10.72c-3.1,3.35-7.09,4.94-12.66,4.94h-32.62c-3.16-4.345-8.188-6.94-13.56-7H248
			c-9.588,0-17.36,7.772-17.36,17.36l0,0l0,0c-0.006,9.588,7.762,17.364,17.35,17.37c0.003,0,0.007,0,0.01,0h34.18
			c6.74-0.026,12.849-3.969,15.65-10.1h30.54c9.799,0.137,19.203-3.855,25.91-11c6.63-7.32,9.81-17.8,9.92-30.32v-0.18
			C384.691,331.488,397.118,308.96,397.11,284.74z"/>
		
			<linearGradient id="SVGID_2_" gradientUnits="userSpaceOnUse" x1="256.0161" y1="396" x2="256.0161" y2="126" gradientTransform="matrix(1 0 0 -1 0 512)">
			<stop  offset="0.38" style="stop-color:#FFFFFF"/>
			<stop  offset="1" style="stop-color:#CCCCCC"/>
		</linearGradient>
		<path style="fill:url(#SVGID_2_);" d="M397.11,274.74c-0.003-32.362-22.06-60.557-53.47-68.35c-0.69-8.63-2.7-24.69-10.2-41.34
			C322.62,141,299,116,256,116s-66.62,25-77.44,49.06c-7.49,16.65-9.51,32.71-10.2,41.34c-37.776,9.432-60.753,47.703-51.321,85.479
			c7.84,31.398,36.049,53.426,68.411,53.421V213c0,0,0.08-20.47,9.09-40.51s25-38.86,61.46-38.86s52.44,18.82,61.46,38.86
			s9.09,40.51,9.09,40.51v132.3c6.517-0.002,13.002-0.908,19.27-2.69c-0.93,4.92-2.67,8.4-4.78,10.72
			c-3.1,3.35-7.09,4.94-12.66,4.94h-32.62c-3.16-4.345-8.188-6.94-13.56-7H248c-9.588,0-17.36,7.772-17.36,17.36l0,0l0,0
			c-0.006,9.588,7.762,17.364,17.35,17.37c0.003,0,0.007,0,0.01,0h34.18c6.74-0.026,12.849-3.969,15.65-10.1h30.54
			c9.799,0.137,19.203-3.855,25.91-11c6.63-7.32,9.81-17.8,9.92-30.32v-0.18C384.691,321.488,397.118,298.96,397.11,274.74z"/>
		<ellipse style="opacity:0.24;fill:#FFFFFF;enable-background:new    ;" cx="254.58" cy="170.64" rx="182.81" ry="137.46"/>
	</g>
</g>
</svg>
