<svg id="其他" xmlns="http://www.w3.org/2000/svg" xmlns:xlink="http://www.w3.org/1999/xlink" viewBox="0 0 512 512"><defs><style>.cls-1{opacity:0.2;}.cls-2{opacity:0.1;}.cls-3{fill:#455a64;}.cls-4{fill:url(#linear-gradient);}.cls-16,.cls-17,.cls-5,.cls-6{fill-rule:evenodd;}.cls-5{fill:url(#linear-gradient-2);}.cls-6{fill:url(#linear-gradient-3);}.cls-7{fill:url(#linear-gradient-4);}.cls-8{fill:url(#linear-gradient-5);}.cls-9{fill:url(#linear-gradient-6);}.cls-10{fill:#fff;opacity:0.24;}.cls-10,.cls-15,.cls-16,.cls-17{isolation:isolate;}.cls-11{fill:url(#linear-gradient-7);}.cls-12{fill:url(#linear-gradient-8);}.cls-13{fill:url(#linear-gradient-9);}.cls-14{fill:url(#linear-gradient-10);}.cls-16{fill:#33691e;}.cls-17{fill:#dcedc8;}</style><linearGradient id="linear-gradient" x1="117.16" y1="489.1" x2="396.18" y2="489.1" gradientUnits="userSpaceOnUse"><stop offset="0" stop-color="#adc1c9"/><stop offset="1" stop-color="#6c91a3"/></linearGradient><linearGradient id="linear-gradient-2" x1="194.67" y1="29.58" x2="317.91" y2="29.58" gradientUnits="userSpaceOnUse"><stop offset="0" stop-color="#cde0e8"/><stop offset="1" stop-color="#90a4ae"/></linearGradient><linearGradient id="linear-gradient-3" x1="194.67" y1="33.57" x2="317.91" y2="33.57" xlink:href="#linear-gradient"/><linearGradient id="linear-gradient-4" x1="117.16" y1="56.7" x2="396.18" y2="56.7" xlink:href="#linear-gradient"/><linearGradient id="linear-gradient-5" x1="122.71" y1="45.34" x2="389.37" y2="45.34" xlink:href="#linear-gradient-2"/><linearGradient id="linear-gradient-6" x1="256" y1="475.68" x2="256" y2="72.93" gradientUnits="userSpaceOnUse"><stop offset="0.24" stop-color="#689f38"/><stop offset="0.94" stop-color="#8bc34a"/></linearGradient><linearGradient id="linear-gradient-7" x1="117.16" y1="477.55" x2="394.84" y2="477.55" gradientUnits="userSpaceOnUse"><stop offset="0" stop-color="#dce775"/><stop offset="1" stop-color="#aed581"/></linearGradient><linearGradient id="linear-gradient-8" x1="117.16" y1="480.53" x2="394.84" y2="480.53" xlink:href="#linear-gradient-2"/><linearGradient id="linear-gradient-9" x1="117.16" y1="71.1" x2="394.84" y2="71.1" gradientUnits="userSpaceOnUse"><stop offset="0" stop-color="#90a4ae"/><stop offset="1" stop-color="#607d8b"/></linearGradient><linearGradient id="linear-gradient-10" x1="117.16" y1="73.66" x2="394.84" y2="73.66" xlink:href="#linear-gradient-7"/></defs><title>画板 17</title><g id="电池"><path class="cls-1" d="M111.17,504V37.79l77.51-.11V20.62C188.68,13.54,195.8,8,204.9,8H307.11c9.08,0,16.2,5.54,16.2,12.62V37.78h77.52V504Z"/><path class="cls-2" d="M111.17,512V37.79l77.51-.11V24.62C188.68,15.3,197.56,8,208.9,8H311.11c11.33,0,20.2,7.3,20.2,16.62V37.78h77.52V512Z"/><path class="cls-2" d="M115.17,508V41.79l77.51-.11V24.62c0-7.08,7.12-12.62,16.21-12.62H311.11c9.08,0,16.2,5.54,16.2,12.62V41.78h77.52V508Z"/><path class="cls-3" d="M394.84,41.78H319.31V20.62c0-4.83-5.36-8.62-12.2-8.62H204.9c-6.85,0-12.21,3.79-12.21,8.62V41.67l-75.53.11h-2V500H396.83V41.78Z"/><rect class="cls-4" x="117.16" y="480.19" width="277.69" height="17.82"/><path class="cls-5" d="M307.11,14H204.9c-5.62,0-10.23,3-10.23,6.63V45.18H317.32V20.62C317.32,17,312.72,14,307.11,14Z"/><path class="cls-6" d="M307.11,18H204.9c-5.62,0-10.23,3-10.23,6.64V49.16H317.32V24.61C317.32,21,312.72,18,307.11,18Z"/><rect class="cls-7" x="117.16" y="43.76" width="277.69" height="25.88"/><rect class="cls-8" x="117.16" y="43.76" width="277.69" height="3.15"/><rect class="cls-9" x="117.16" y="71.49" width="277.69" height="407.42"/><rect class="cls-10" x="170.37" y="43.65" width="72.55" height="454.36"/><rect class="cls-10" x="213.59" y="13.98" width="46.88" height="29.67"/><rect class="cls-11" x="117.16" y="476.01" width="277.69" height="3.07"/><rect class="cls-12" x="117.16" y="479.08" width="277.69" height="2.9"/><rect class="cls-13" x="117.16" y="69.65" width="277.69" height="2.89"/><rect class="cls-14" x="117.16" y="72.21" width="277.69" height="2.89"/><g class="cls-15"><polygon class="cls-16" points="259.06 83.9 282.2 107.05 235.91 107.05 259.06 83.9"/><polygon class="cls-16" points="253.94 125.46 264.16 125.46 264.16 149.51 288.22 149.51 288.22 159.73 264.16 159.73 264.16 183.78 253.94 183.78 253.94 159.73 229.89 159.73 229.89 149.51 253.94 149.51 253.94 125.46"/></g><polygon class="cls-17" points="256.06 80.91 279.21 104.06 232.92 104.06 256.06 80.91"/><polygon class="cls-17" points="250.95 122.47 261.17 122.47 261.17 146.52 285.23 146.52 285.23 156.74 261.17 156.74 261.17 180.79 250.95 180.79 250.95 156.74 226.9 156.74 226.9 146.52 250.95 146.52 250.95 122.47"/></g></svg>