<?xml version="1.0" encoding="iso-8859-1"?>
<!-- Generator: Adobe Illustrator 21.0.0, SVG Export Plug-In . SVG Version: 6.00 Build 0)  -->
<svg version="1.1" id="&#x5176;&#x4ED6;" xmlns="http://www.w3.org/2000/svg" xmlns:xlink="http://www.w3.org/1999/xlink" x="0px"
	 y="0px" viewBox="0 0 512 512" style="enable-background:new 0 0 512 512;" xml:space="preserve">
<title>画板 17</title>
<g id="&#x7535;&#x8111;">
	<path style="opacity:0.1;enable-background:new    ;" d="M124,471.24c-9.93,0-18-7.4-18-16.5v-15.07l75.69-34.42h12.81v-3.5H13
		v-351h496v351H327.5v3.5h12.86L419,439.63v15.11c0,9.1-8.08,16.5-18,16.5H124z"/>
	<path style="opacity:0.1;enable-background:new    ;" d="M124,469.24c-8.82,0-16-6.5-16-14.5V441l74.12-33.71h14.38v-7.5H15v-347
		h492v347H325.5v7.5h14.44L417,440.94v13.8c0,8-7.18,14.5-16,14.5H124z"/>
	<path style="opacity:0.2;enable-background:new    ;" d="M120,465.24c-8.82,0-16-6.5-16-14.5V437l74.12-33.71h14.38v-7.5H11v-347
		h492v347H321.5v7.5h14.44L413,436.94v13.81c0,8-7.18,14.5-16,14.5L120,465.24z"/>
	<path style="opacity:0.08;enable-background:new    ;" d="M462.5,344.25v-248h-403v248H462.5z"/>
	<path style="opacity:0.1;enable-background:new    ;" d="M466.5,348.25v-256h-411v256H466.5z"/>
	<path style="fill:#263238;" d="M13,50.76v343h181.5v33.5h125v-33.5H501v-343L13,50.76z M466.5,84.26v264h-419v-264L466.5,84.26z"/>
	<path style="fill:#263238;" d="M120,463.24c-7.72,0-14-5.61-14-12.5v-12.5h305v12.5c0,6.89-6.28,12.5-14,12.5H120z"/>
	<polygon style="fill:#263238;" points="107.2,442.25 106,438.25 178.56,405.25 335.52,405.25 411,438.25 409.81,442.25 	"/>
	
		<linearGradient id="SVGID_1_" gradientUnits="userSpaceOnUse" x1="258.5" y1="35.77" x2="258.5" y2="93.95" gradientTransform="matrix(1 0 0 -1 0 512)">
		<stop  offset="0" style="stop-color:#90A4AE"/>
		<stop  offset="1" style="stop-color:#455A64"/>
	</linearGradient>
	<polygon style="fill:url(#SVGID_1_);" points="108,440.25 179,407.25 335.1,407.25 409,440.25 	"/>
	
		<linearGradient id="rect3008_1_" gradientUnits="userSpaceOnUse" x1="256.97" y1="429.74" x2="256.97" y2="161.75" gradientTransform="matrix(1 0 0 -1 0 512)">
		<stop  offset="0" style="stop-color:#B3E5FC"/>
		<stop  offset="1" style="stop-color:#0288D1"/>
	</linearGradient>
	<rect id="rect3008" x="45.44" y="82.26" style="fill:url(#rect3008_1_);" width="423.06" height="267.99"/>
	<g id="rect3008-2">
		
			<linearGradient id="SVGID_2_" gradientUnits="userSpaceOnUse" x1="256.97" y1="425.74" x2="256.97" y2="165.75" gradientTransform="matrix(1 0 0 -1 0 512)">
			<stop  offset="0" style="stop-color:#B3E5FC"/>
			<stop  offset="1" style="stop-color:#0288D1"/>
		</linearGradient>
		<rect x="49.44" y="86.26" style="fill:url(#SVGID_2_);" width="415.06" height="259.99"/>
		<path style="fill:#01579B;" d="M460.5,90.26v252H53.44v-252L460.5,90.26 M468.5,82.26H45.44v268H468.5V82.26z"/>
	</g>
	
		<linearGradient id="SVGID_3_" gradientUnits="userSpaceOnUse" x1="53.38" y1="417.74" x2="460.51" y2="417.74" gradientTransform="matrix(1 0 0 -1 0 512)">
		<stop  offset="0" style="stop-color:#FFFFFF"/>
		<stop  offset="1" style="stop-color:#4FC3F7"/>
	</linearGradient>
	<rect x="53.38" y="90.26" style="opacity:0.8;fill:url(#SVGID_3_);enable-background:new    ;" width="407.13" height="8"/>
	
		<linearGradient id="SVGID_4_" gradientUnits="userSpaceOnUse" x1="-666.35" y1="904.86" x2="-422.63" y2="904.86" gradientTransform="matrix(6.123234e-17 -1 -1 -6.123234e-17 962.24 -324.37)">
		<stop  offset="0" style="stop-color:#0288D1"/>
		<stop  offset="1" style="stop-color:#FFFFFF"/>
	</linearGradient>
	<rect x="53.38" y="98.26" style="opacity:0.8;fill:url(#SVGID_4_);enable-background:new    ;" width="8" height="243.72"/>
	<g id="&#x6700;&#x8FD1;&#x6587;&#x4EF6;">
		<rect x="194.5" y="387.25" style="fill:#212121;" width="125" height="40"/>
		<rect x="196.5" y="389.25" style="fill:#293A3F;" width="121" height="36"/>
		
			<linearGradient id="SVGID_5_" gradientUnits="userSpaceOnUse" x1="257" y1="459.24" x2="257" y2="120.24" gradientTransform="matrix(1 0 0 -1 0 512)">
			<stop  offset="0" style="stop-color:#607D8B"/>
			<stop  offset="1" style="stop-color:#455A64"/>
		</linearGradient>
		<path style="fill:url(#SVGID_5_);" d="M15,52.76v339h484v-339L15,52.76z M468.5,350.25h-423v-268h423V350.25z"/>
		<path style="fill:#90A4AE;" d="M397,440.25H108v10.5c0,5.77,5.4,10.5,12,10.5h277c6.6,0,12-4.72,12-10.5v-10.5H397z"/>
	</g>
	<rect x="196.5" y="391.25" style="opacity:0.19;enable-background:new    ;" width="121" height="8"/>
	<path id="rect3008-0" style="opacity:0.23;fill:#EEE8D5;enable-background:new    ;" d="M311.19,82.26l-109.49,268h266.8v-268
		L311.19,82.26z"/>
	<circle style="fill:#1D272B;" cx="256" cy="370.92" r="12.5"/>
	<circle style="fill:#03A9F4;" cx="256" cy="371.75" r="9.5"/>
</g>
</svg>
