<svg xmlns="http://www.w3.org/2000/svg" xmlns:xlink="http://www.w3.org/1999/xlink" viewBox="0 0 512 512"><defs><style>.cls-1,.cls-2,.cls-3,.cls-4{fill:#212121;}.cls-1,.cls-2,.cls-3{stroke:#000;}.cls-1,.cls-2,.cls-3,.cls-6{stroke-miterlimit:10;}.cls-1{opacity:0.08;}.cls-2{opacity:0.1;}.cls-3{opacity:0.2;}.cls-5{fill:url(#linear-gradient);}.cls-6{stroke:#01579b;stroke-width:8px;fill:url(#linear-gradient-2);}.cls-7{fill:url(#linear-gradient-3);}.cls-8{fill:#eee8d5;opacity:0.23;isolation:isolate;}.cls-9{fill:#1d272b;}.cls-10{fill:#455a64;}</style><linearGradient id="linear-gradient" x1="256" y1="15.1" x2="256" y2="501.6" gradientUnits="userSpaceOnUse"><stop offset="0" stop-color="#455a64"/><stop offset="1" stop-color="#263238"/></linearGradient><linearGradient id="linear-gradient-2" x1="83.15" y1="230.07" x2="428.85" y2="230.07" gradientUnits="userSpaceOnUse"><stop offset="0" stop-color="#b3e5fc"/><stop offset="1" stop-color="#0288d1"/></linearGradient><linearGradient id="linear-gradient-3" x1="293.1" y1="65.33" x2="218.99" y2="394.34" xlink:href="#linear-gradient-2"/></defs><title>画板 17</title><g id="开始菜单应用图标"><g id="平板"><g id="_512" data-name="512"><rect class="cls-1" x="43.57" y="9" width="432.86" height="502" rx="43.58" ry="43.58"/><path class="cls-2" d="M87.15,13H432.85a39.57,39.57,0,0,1,39.57,39.57V467.43A39.57,39.57,0,0,1,432.85,507H87.15a39.58,39.58,0,0,1-39.58-39.58V52.58A39.58,39.58,0,0,1,87.15,13Z"/><path class="cls-3" d="M83.15,503a39.62,39.62,0,0,1-39.58-39.58V48.57A39.62,39.62,0,0,1,83.15,9h345.7a39.62,39.62,0,0,1,39.58,39.57V463.42A39.62,39.62,0,0,1,428.85,503Z"/><path class="cls-4" d="M83.15,13h345.7a35.58,35.58,0,0,1,35.58,35.58V463.42A35.58,35.58,0,0,1,428.85,499H83.15a35.58,35.58,0,0,1-35.58-35.58V48.57A35.57,35.57,0,0,1,83.15,13Z"/><rect class="cls-5" x="48.57" y="14" width="414.86" height="484" rx="34.58" ry="34.58"/><path class="cls-4" d="M428.85,13H83.15A35.62,35.62,0,0,0,47.57,48.57V463.42A35.62,35.62,0,0,0,83.15,499h345.7a35.62,35.62,0,0,0,35.58-35.58V48.57A35.62,35.62,0,0,0,428.85,13Zm33.58,450.42A33.61,33.61,0,0,1,428.85,497H83.15a33.61,33.61,0,0,1-33.58-33.58V48.57A33.61,33.61,0,0,1,83.15,15h345.7a33.61,33.61,0,0,1,33.58,33.57Z"/><rect class="cls-6" x="83.15" y="48.57" width="345.7" height="363"/><rect class="cls-7" x="94.98" y="61.32" width="322.03" height="337.48"/><polygon class="cls-8" points="417.33 399.48 193.38 399.48 285.07 62.01 417.33 62.01 417.33 399.48"/><path class="cls-9" d="M284.09,454.79A28.09,28.09,0,1,1,256,426.7,28.1,28.1,0,0,1,284.09,454.79Z"/><path class="cls-10" d="M276.82,456.63A22.66,22.66,0,1,1,254.16,434,22.66,22.66,0,0,1,276.82,456.63Z"/></g></g></g></svg>