<svg id="其他" xmlns="http://www.w3.org/2000/svg" xmlns:xlink="http://www.w3.org/1999/xlink" viewBox="0 0 512 512"><defs><style>.cls-1,.cls-2,.cls-3{fill:#212121;}.cls-1{opacity:0.08;}.cls-2{opacity:0.1;}.cls-3{opacity:0.2;}.cls-4{fill:#616161;}.cls-5{fill:#263238;}.cls-12,.cls-6{fill:#e0e0e0;}.cls-7{fill:#9e9e9e;opacity:0.25;}.cls-12,.cls-7,.cls-8{isolation:isolate;}.cls-8{fill:#fff;opacity:0.45;}.cls-9{fill:url(#linear-gradient);}.cls-10{fill:url(#linear-gradient-2);}.cls-11{fill:#949494;}.cls-12{opacity:0.86;}.cls-13{fill:#a5a5a5;}</style><linearGradient id="linear-gradient" x1="-3112.65" y1="2951.04" x2="-3112.65" y2="2928.9" gradientTransform="translate(3332.43 -2561.31)" gradientUnits="userSpaceOnUse"><stop offset="0" stop-color="#455a64"/><stop offset="0.21" stop-color="#36474f"/><stop offset="1"/></linearGradient><linearGradient id="linear-gradient-2" x1="-2881.33" y1="2951.04" x2="-2881.33" y2="2928.9" gradientTransform="translate(3332.43 -2561.31)" gradientUnits="userSpaceOnUse"><stop offset="0" stop-color="#38a3e7"/><stop offset="1" stop-color="#1976d2"/></linearGradient></defs><title>画板 17</title><g id="光驱"><path class="cls-1" d="M223.27,512c-62.19,0-120.33-31-156-83.05H8.1V349.4l5-30.43L64.24,8H442.12L506,318.56l5.85,30.7v79.69H379.27C343.61,481,285.45,512,223.27,512Z"/><path class="cls-2" d="M223.27,508c-61.69,0-119-31-153.85-83.05H12.1V349.72L17,319.61,67.64,12H438.86l63.28,307.37,5.77,30.28v75.31H377.15C342.31,477,285,508,223.27,508Z"/><path class="cls-3" d="M219.27,504c-61.69,0-119-31-153.85-83.05H8.1V345.72L13,315.61,63.64,8H434.86l63.28,307.37,5.77,30.28v75.31H373.15C338.31,473,281,504,219.27,504Z"/><path class="cls-4" d="M219.27,500c-61.11,0-117.74-31-151.7-83.05H12.1V346L17,316.25,67,12H431.6l62.62,304.17L499.9,346v70.93H371C337,469,280.38,500,219.27,500Z"/><g id="g4"><g id="g6"><path id="path10" class="cls-5" d="M14.1,346.21v68.74H497.9V346.21Z"/><polygon class="cls-6" points="492.25 316.58 429.97 14 68.73 14 18.94 316.58 492.25 316.58"/><polygon class="cls-7" points="492.25 316.58 429.97 14 302.97 14 229.59 316.58 492.25 316.58"/><polygon class="cls-6" points="18.94 316.58 14.1 346.21 497.9 346.21 492.25 316.58 18.94 316.58"/><polygon class="cls-8" points="98.56 316.58 114.09 14 85.66 14 36.27 316.58 98.56 316.58"/></g><g id="g12"><path id="path14" class="cls-9" d="M394.86,389.83H44.71V367.65H394.86v22.17Z"/><path id="path16" class="cls-10" d="M435,389.83h32.25V367.65H435Z"/></g></g><path class="cls-6" d="M219.27,493.77c78.82,0,145.74-53,168.12-126H360C338.61,425.63,283.58,467,219.27,467a149.52,149.52,0,0,1-44.75-6.85l-2,5.44-49-11.29L135,440.55a154.13,154.13,0,0,1-22.37-18.95L96.51,432.08l-25.2-26.61L91.67,395a154.7,154.7,0,0,1-13.3-27.21H51.16C73.53,440.55,140.46,493.77,219.27,493.77Z"/><path class="cls-11" d="M391.63,367.78h-4.23c-22.58,72.77-89.3,126-168.12,126s-145.74-53-168.12-126H46.92C69.5,443.17,138.24,498,219.27,498S369.25,443,391.63,367.78Z"/><path class="cls-11" d="M144.49,367.78H78.57A170.08,170.08,0,0,0,91.87,395Z"/><path class="cls-11" d="M175.53,380.68,112.64,421.6A154.13,154.13,0,0,0,135,440.55l46.77-56C179.56,383.1,177.55,381.89,175.53,380.68Z"/><path class="cls-11" d="M219.27,394a76.68,76.68,0,0,1-20.56-2.82L174.52,459.9a149.4,149.4,0,0,0,44.75,6.85c64.31,0,119.34-41.33,140.7-99.18h-82A79,79,0,0,1,219.27,394Z"/><path class="cls-6" d="M123.52,454.26l49,11.29,2-5.44A149.88,149.88,0,0,1,135,440.75Z"/><path class="cls-12" d="M123.52,454.26l49,11.29,2-5.44A149.88,149.88,0,0,1,135,440.75Z"/><path class="cls-11" d="M181.78,384.31l-46.77,56a149.9,149.9,0,0,0,39.51,19.35L198.71,391A61.68,61.68,0,0,1,181.78,384.31Z"/><path class="cls-12" d="M181.78,384.31l-46.77,56a149.9,149.9,0,0,0,39.51,19.35L198.71,391A61.68,61.68,0,0,1,181.78,384.31Z"/><path class="cls-6" d="M71.31,405.47l25.2,26.61,16.13-10.49A147.45,147.45,0,0,1,91.87,395Z"/><path class="cls-12" d="M71.31,405.47l25.2,26.61,16.13-10.49A147.45,147.45,0,0,1,91.87,395Z"/><path class="cls-11" d="M112.44,421.6l62.89-40.92a82.73,82.73,0,0,1-14.92-12.9H144.29L91.67,395A165.67,165.67,0,0,0,112.44,421.6Z"/><path class="cls-12" d="M112.44,421.6l62.89-40.92a82.73,82.73,0,0,1-14.92-12.9H144.29L91.67,395A165.67,165.67,0,0,0,112.44,421.6Z"/><path class="cls-13" d="M175.53,380.68a65.86,65.86,0,0,0,6.25,3.83A78.3,78.3,0,0,0,277.94,368h-12.3a70.67,70.67,0,0,1-92.73,0h-12.3A83.92,83.92,0,0,0,175.53,380.68Z"/><path class="cls-6" d="M219.27,385.11a70.12,70.12,0,0,0,46.36-17.34H172.91A71.16,71.16,0,0,0,219.27,385.11Z"/></g></svg>