<svg id="其他" xmlns="http://www.w3.org/2000/svg" xmlns:xlink="http://www.w3.org/1999/xlink" viewBox="0 0 512 512"><defs><style>.cls-1{opacity:0.2;}.cls-2{opacity:0.08;}.cls-3{opacity:0.1;}.cls-4{fill:#1b5e20;}.cls-5{fill:url(#linear-gradient);}.cls-10,.cls-6{fill:#fff;}.cls-6{opacity:0.24;}.cls-10,.cls-11,.cls-6,.cls-7,.cls-8{isolation:isolate;}.cls-7{fill:#33691e;}.cls-8{fill:#dcedc8;}.cls-9{fill:#657b83;}.cls-10{opacity:0.31;}.cls-11{fill:#073642;opacity:0.65;}</style><linearGradient id="linear-gradient" x1="148.1" y1="385.82" x2="359.85" y2="22.6" gradientUnits="userSpaceOnUse"><stop offset="0.24" stop-color="#689f38"/><stop offset="0.94" stop-color="#8bc34a"/></linearGradient></defs><title>画板 17</title><g id="U盘"><g id="_512" data-name="512"><polygon class="cls-1" points="162.13 504 162.13 393.47 125.75 393.47 125.75 8 386.25 8 386.25 393.47 349.87 393.47 349.87 504 162.13 504"/><polygon class="cls-2" points="162.13 512 162.13 401.47 125.75 401.47 125.75 8 394.25 8 394.25 401.47 357.87 401.47 357.87 512 162.13 512"/><polygon class="cls-3" points="166.13 508 166.13 397.47 129.75 397.47 129.75 12 390.25 12 390.25 397.47 353.87 397.47 353.87 508 166.13 508"/><polygon class="cls-4" points="376.64 12 135.36 12 129.75 12 129.75 17.61 129.75 383.86 129.75 389.47 135.36 389.47 166.13 389.47 166.13 494.39 166.13 500 171.75 500 340.26 500 345.87 500 345.87 494.39 345.87 389.47 376.64 389.47 382.25 389.47 382.25 383.86 382.25 17.61 382.25 12 376.64 12"/><rect class="cls-5" x="131.75" y="14" width="248.5" height="373.47"/><rect class="cls-6" x="157.81" y="14" width="72.81" height="373.47"/><path id="path1334" class="cls-7" d="M190.3,184.16c0,7.7,5.42,14.3,13.11,17.26v19.23c0,6.87,4.07,13.34,9,18,.05,0,.06.14.11.19v.09l.22.28s.19.25.22.28.09,0,.11,0,0,.08,0,.09.22.1.33.19l.11.09,36.71,29.36a11.28,11.28,0,0,1,3.06,6.85v16.79c-11,3.13-18.9,11.94-18.9,22.23,0,12.92,12.44,23.35,27.75,23.35s27.75-10.43,27.75-23.35c0-10.29-7.94-19.09-18.9-22.23v-16.6s0-.14,0-.19,0,0,0-.19v-29a10.76,10.76,0,0,1,3.06-6.66c.22-.18,9.12-7.35,18.25-14.63,4.62-3.69,9.31-7.36,12.78-10.13,1.74-1.39,3.13-2.56,4.15-3.38l1.2-.94a3.48,3.48,0,0,1,.33-.19,1.37,1.37,0,0,0,.11-.19c.1-.08.26-.13.33-.19s0-.07,0-.09.08,0,.11,0,.22-.37.22-.37l.22-.19v-.09l.11-.09s0-.08,0-.09a1.65,1.65,0,0,1,.11-.19c4.82-4.65,8.85-11,8.85-17.82V174h12.35V136.61H290.64V174h12.43v17.91a10.7,10.7,0,0,1-3.06,6.66l-29.07,23.26V118.23h19.17L261.71,74.34,233.3,118.23h19.95V250.85l-29.07-23.17a11.25,11.25,0,0,1-3.06-6.85c0-8.09,0-14.38,0-19.32,7.87-2.9,13.44-9.54,13.44-17.35,0-10.47-10-19-22.18-19S190.3,173.69,190.3,184.16Z"/><path id="path1334-2" data-name="path1334" class="cls-8" d="M184.59,180.31c0,7.7,5.42,14.3,13.11,17.26v19.23c0,6.87,4.07,13.35,9,18,.05,0,.06.14.11.19v.09l.22.28s.19.25.22.28.09,0,.11,0,0,.08,0,.09.22.1.33.19l.11.09,36.71,29.36a11.28,11.28,0,0,1,3.06,6.85V289c-11,3.13-18.9,11.94-18.9,22.23,0,12.92,12.44,23.35,27.75,23.35s27.75-10.43,27.75-23.35c0-10.29-7.94-19.09-18.9-22.23v-16.6s0-.14,0-.19,0,0,0-.19v-29a10.76,10.76,0,0,1,3.06-6.66c.22-.18,9.12-7.35,18.25-14.63,4.62-3.69,9.31-7.36,12.79-10.13,1.74-1.39,3.13-2.56,4.15-3.38l1.2-.94a3.7,3.7,0,0,1,.33-.19,1.38,1.38,0,0,0,.11-.19c.1-.08.26-.13.33-.19s0-.07,0-.09.08,0,.11,0,.22-.37.22-.38l.22-.19V206l.11-.09s0-.08,0-.09a1.56,1.56,0,0,1,.11-.19c4.82-4.65,8.85-11,8.85-17.82V170.18h12.35V132.76H284.93v37.42h12.43v17.91a10.7,10.7,0,0,1-3.06,6.66L265.23,218V114.37H284.4L256,70.48l-28.41,43.89h19.95V247l-29.07-23.17a11.25,11.25,0,0,1-3.06-6.85c0-8.09,0-14.38,0-19.32,7.87-2.9,13.44-9.54,13.44-17.35,0-10.47-10-19-22.18-19S184.59,169.84,184.59,180.31Z"/><rect class="cls-9" x="168.13" y="389.47" width="175.76" height="108.36"/><rect id="rect3765" class="cls-10" x="191.64" y="389.47" width="64.37" height="108.36"/><rect id="rect3767" class="cls-11" x="277.47" y="433.07" width="42.91" height="42.33"/><rect id="rect3769" class="cls-11" x="191.64" y="433.07" width="42.91" height="42.33"/></g></g></svg>