<?xml version="1.0" encoding="iso-8859-1"?>
<!-- Generator: Adobe Illustrator 21.0.0, SVG Export Plug-In . SVG Version: 6.00 Build 0)  -->
<svg version="1.1" id="&#x5176;&#x4ED6;" xmlns="http://www.w3.org/2000/svg" xmlns:xlink="http://www.w3.org/1999/xlink" x="0px"
	 y="0px" viewBox="0 0 512 512" style="enable-background:new 0 0 512 512;" xml:space="preserve">
<title>画板 17</title>
<g id="U&#x76D8;">
	<g id="_512">
		<polygon style="opacity:0.2;enable-background:new    ;" points="162.13,504 162.13,393.47 125.75,393.47 125.75,8 386.25,8 
			386.25,393.47 349.87,393.47 349.87,504 		"/>
		<polygon style="opacity:0.08;enable-background:new    ;" points="162.13,512 162.13,401.47 125.75,401.47 125.75,8 394.25,8 
			394.25,401.47 357.87,401.47 357.87,512 		"/>
		<polygon style="opacity:0.1;enable-background:new    ;" points="166.13,508 166.13,397.47 129.75,397.47 129.75,12 390.25,12 
			390.25,397.47 353.87,397.47 353.87,508 		"/>
		<polygon style="fill:#1B5E20;" points="376.64,12 135.36,12 129.75,12 129.75,17.61 129.75,383.86 129.75,389.47 135.36,389.47 
			166.13,389.47 166.13,494.39 166.13,500 171.75,500 340.26,500 345.87,500 345.87,494.39 345.87,389.47 376.64,389.47 
			382.25,389.47 382.25,383.86 382.25,17.61 382.25,12 		"/>
		
			<linearGradient id="SVGID_1_" gradientUnits="userSpaceOnUse" x1="148.0994" y1="126.1804" x2="359.8493" y2="489.4004" gradientTransform="matrix(1 0 0 -1 0 512)">
			<stop  offset="0.24" style="stop-color:#689F38"/>
			<stop  offset="0.94" style="stop-color:#8BC34A"/>
		</linearGradient>
		<rect x="131.75" y="14" style="fill:url(#SVGID_1_);" width="248.5" height="373.47"/>
		<rect x="157.81" y="14" style="opacity:0.24;fill:#FFFFFF;enable-background:new    ;" width="72.81" height="373.47"/>
		<path id="path1334" style="fill:#33691E;" d="M190.3,184.16c0,7.7,5.42,14.3,13.11,17.26v19.23c0,6.87,4.07,13.34,9,18
			c0.05,0,0.06,0.14,0.11,0.19v0.09l0.22,0.28c0,0,0.19,0.25,0.22,0.28s0.09,0,0.11,0s0,0.08,0,0.09s0.22,0.1,0.33,0.19l0.11,0.09
			l36.71,29.36c1.772,1.867,2.851,4.284,3.06,6.85v16.79c-11,3.13-18.9,11.94-18.9,22.23c0,12.92,12.44,23.35,27.75,23.35
			s27.75-10.43,27.75-23.35c0-10.29-7.94-19.09-18.9-22.23v-16.6c0,0,0-0.14,0-0.19s0,0,0-0.19v-29
			c0.209-2.51,1.292-4.867,3.06-6.66c0.22-0.18,9.12-7.35,18.25-14.63c4.62-3.69,9.31-7.36,12.78-10.13
			c1.74-1.39,3.13-2.56,4.15-3.38l1.2-0.94c0.106-0.069,0.217-0.133,0.33-0.19c0.042-0.06,0.078-0.124,0.11-0.19
			c0.1-0.08,0.26-0.13,0.33-0.19s0-0.07,0-0.09s0.08,0,0.11,0s0.22-0.37,0.22-0.37l0.22-0.19v-0.09l0.11-0.09c0,0,0-0.08,0-0.09
			c0.032-0.066,0.069-0.129,0.11-0.19c4.82-4.65,8.85-11,8.85-17.82V174h12.35v-37.39h-42.52V174h12.43v17.91
			c-0.204,2.511-1.288,4.869-3.06,6.66l-29.07,23.26v-103.6h19.17l-28.4-43.89l-28.41,43.89h19.95v132.62l-29.07-23.17
			c-1.774-1.866-2.854-4.284-3.06-6.85c0-8.09,0-14.38,0-19.32c7.87-2.9,13.44-9.54,13.44-17.35c0-10.47-10-19-22.18-19
			S190.3,173.69,190.3,184.16z"/>
		<path id="path1334-2" style="fill:#DCEDC8;" d="M184.59,180.31c0,7.7,5.42,14.3,13.11,17.26v19.23c0,6.87,4.07,13.35,9,18
			c0.05,0,0.06,0.14,0.11,0.19v0.09l0.22,0.28c0,0,0.19,0.25,0.22,0.28s0.09,0,0.11,0s0,0.08,0,0.09s0.22,0.1,0.33,0.19l0.11,0.09
			l36.71,29.36c1.772,1.867,2.851,4.284,3.06,6.85V289c-11,3.13-18.9,11.94-18.9,22.23c0,12.92,12.44,23.35,27.75,23.35
			s27.75-10.43,27.75-23.35c0-10.29-7.94-19.09-18.9-22.23v-16.6c0,0,0-0.14,0-0.19s0,0,0-0.19v-29
			c0.209-2.51,1.292-4.867,3.06-6.66c0.22-0.18,9.12-7.35,18.25-14.63c4.62-3.69,9.31-7.36,12.79-10.13
			c1.74-1.39,3.13-2.56,4.15-3.38l1.2-0.94c0.107-0.069,0.217-0.132,0.33-0.19c0.042-0.06,0.078-0.124,0.11-0.19
			c0.1-0.08,0.26-0.13,0.33-0.19s0-0.07,0-0.09s0.08,0,0.11,0s0.22-0.37,0.22-0.38l0.22-0.19V206l0.11-0.09c0,0,0-0.08,0-0.09
			c0.032-0.066,0.069-0.129,0.11-0.19c4.82-4.65,8.85-11,8.85-17.82v-17.63h12.35v-37.42h-42.53v37.42h12.43v17.91
			c-0.204,2.511-1.288,4.869-3.06,6.66L265.23,218V114.37h19.17L256,70.48l-28.41,43.89h19.95V247l-29.07-23.17
			c-1.774-1.866-2.854-4.284-3.06-6.85c0-8.09,0-14.38,0-19.32c7.87-2.9,13.44-9.54,13.44-17.35c0-10.47-10-19-22.18-19
			S184.59,169.84,184.59,180.31z"/>
		<rect x="168.13" y="389.47" style="fill:#657B83;" width="175.76" height="108.36"/>
		
			<rect id="rect3765" x="191.64" y="389.47" style="opacity:0.31;fill:#FFFFFF;enable-background:new    ;" width="64.37" height="108.36"/>
		
			<rect id="rect3767" x="277.47" y="433.07" style="opacity:0.65;fill:#073642;enable-background:new    ;" width="42.91" height="42.33"/>
		
			<rect id="rect3769" x="191.64" y="433.07" style="opacity:0.65;fill:#073642;enable-background:new    ;" width="42.91" height="42.33"/>
	</g>
</g>
</svg>
