<?xml version="1.0" encoding="iso-8859-1"?>
<!-- Generator: Adobe Illustrator 21.0.0, SVG Export Plug-In . SVG Version: 6.00 Build 0)  -->
<svg version="1.1" id="&#x5176;&#x4ED6;" xmlns="http://www.w3.org/2000/svg" xmlns:xlink="http://www.w3.org/1999/xlink" x="0px"
	 y="0px" viewBox="0 0 512 512" style="enable-background:new 0 0 512 512;" xml:space="preserve">
<title>画板 17</title>
<g id="&#x5149;&#x76D8;-&#x97F3;&#x4E50;">
	<path style="opacity:0.2;enable-background:new    ;" d="M256,504C119.033,503.997,8.002,392.962,8.005,255.995
		C8.006,190.224,34.134,127.148,80.64,80.64c97.365-96.333,254.387-95.496,350.72,1.869c95.608,96.632,95.608,252.22,0,348.851
		C384.954,478.021,321.809,504.178,256,504z M256,229.66c-14.547,0-26.34,11.793-26.34,26.34s11.793,26.34,26.34,26.34
		s26.34-11.793,26.34-26.34l0,0C282.323,241.46,270.54,229.677,256,229.66z"/>
	<path style="opacity:0.08;enable-background:new    ;" d="M260,512C120.824,511.999,8.001,399.174,8.002,259.998
		c0-66.833,26.55-130.93,73.808-178.188c98.098-98.726,257.654-99.234,356.38-1.137s99.234,257.654,1.137,356.38
		c-0.378,0.38-0.757,0.759-1.137,1.137C391.035,485.604,326.871,512.182,260,512z M260,237.66c-12.338,0-22.34,10.002-22.34,22.34
		s10.002,22.34,22.34,22.34s22.34-10.002,22.34-22.34l0,0C282.329,247.667,272.333,237.671,260,237.66z"/>
	<path style="opacity:0.1;enable-background:new    ;" d="M260,508C123.033,507.997,12.002,396.962,12.005,259.995
		C12.006,194.224,38.134,131.148,84.64,84.64c97.365-96.333,254.387-95.496,350.72,1.869c95.608,96.632,95.608,252.22,0,348.851
		C388.954,482.021,325.809,508.178,260,508z M260,233.66c-14.547,0-26.34,11.793-26.34,26.34s11.793,26.34,26.34,26.34
		s26.34-11.793,26.34-26.34l0,0C286.323,245.46,274.54,233.677,260,233.66z"/>
	<path style="fill:#01579B;" d="M256,500C121.243,499.996,12.004,390.749,12.008,255.992C12.01,191.284,37.716,129.227,83.47,83.47
		c95.939-94.632,250.428-93.573,345.06,2.366c93.716,95.01,93.716,247.684,0,342.694C382.873,474.439,320.747,500.175,256,500z
		 M256,225.66c-16.756,0-30.34,13.584-30.34,30.34s13.584,30.34,30.34,30.34s30.34-13.584,30.34-30.34l0,0
		C286.323,239.251,272.749,225.677,256,225.66z"/>
	<path style="fill:#0288D1;" d="M256,14C122.35,14,14,122.35,14,256s108.35,242,242,242s242-108.35,242-242S389.65,14,256,14z
		 M256,490.94C126.45,490.94,21.06,385.55,21.06,256S126.45,21.06,256,21.06S490.94,126.45,490.94,256S385.55,490.94,256,490.94z"/>
	
		<radialGradient id="SVGID_1_" cx="256" cy="256" r="201.67" gradientTransform="matrix(1 0 0 -1 0 512)" gradientUnits="userSpaceOnUse">
		<stop  offset="0" style="stop-color:#4DD0E1"/>
		<stop  offset="0.39" style="stop-color:#40BEE7"/>
		<stop  offset="0.61" style="stop-color:#3FBDE7"/>
		<stop  offset="0.66" style="stop-color:#44C4E8"/>
		<stop  offset="0.75" style="stop-color:#2CBEE8"/>
		<stop  offset="1" style="stop-color:#2196F3"/>
	</radialGradient>
	<path style="fill:url(#SVGID_1_);" d="M256,54.33C144.8,54.33,54.33,144.8,54.33,256S144.8,457.67,256,457.67
		S457.67,367.2,457.67,256S367.2,54.33,256,54.33z M256,326.58c-38.98,0-70.58-31.6-70.58-70.58s31.6-70.58,70.58-70.58
		s70.58,31.6,70.58,70.58C326.536,294.962,294.962,326.536,256,326.58L256,326.58z"/>
	<g style="opacity:0.7;">
		<path style="fill:#FFFFFF;" d="M326.41,260.65l123.77,8.17l7.08-0.25c1.731-28.717-2.67-57.474-12.91-84.36l-122.44,46.67
			C325.523,240.367,327.058,250.519,326.41,260.65z"/>
		<path style="fill:#FFFFFF;" d="M185.59,251.35l-123.77-8.17l-7.08,0.25c-1.731,28.717,2.67,57.474,12.91,84.36l122.44-46.67
			C186.477,271.633,184.942,261.481,185.59,251.35z"/>
	</g>
	<g style="opacity:0.7;">
		<path style="fill:#FFFFFF;" d="M317,220.48L424.15,158l5.73-4.16c-14.629-24.762-34.359-46.129-57.88-62.68l-75.41,107.16
			C304.902,204.16,311.862,211.717,317,220.48z"/>
		<path style="fill:#FFFFFF;" d="M195,291.52L87.85,354l-5.73,4.17c14.63,24.758,34.36,46.121,57.88,62.67l75.41-107.16
			C207.098,307.84,200.138,300.283,195,291.52z"/>
	</g>
	<path style="fill:#F5F5F5;" d="M256,21.06C126.45,21.06,21.06,126.45,21.06,256S126.45,490.94,256,490.94S490.94,385.55,490.94,256
		S385.55,21.06,256,21.06z M256,457.67C144.8,457.67,54.33,367.2,54.33,256S144.8,54.33,256,54.33S457.67,144.8,457.67,256
		S367.2,457.67,256,457.67L256,457.67z"/>
	<path style="fill:#0288D1;" d="M256,185.42c-38.98,0-70.58,31.6-70.58,70.58s31.6,70.58,70.58,70.58s70.58-31.6,70.58-70.58l0,0
		C326.536,217.038,294.962,185.464,256,185.42z M256,319.28c-34.949,0-63.28-28.331-63.28-63.28s28.331-63.28,63.28-63.28
		s63.28,28.331,63.28,63.28C319.241,290.933,290.933,319.241,256,319.28z"/>
	<path style="fill:#F5F5F5;" d="M256,192.72c-34.949,0-63.28,28.331-63.28,63.28s28.331,63.28,63.28,63.28s63.28-28.331,63.28-63.28
		C319.241,221.067,290.933,192.759,256,192.72z M256,288.34c-17.861,0-32.34-14.479-32.34-32.34c0-17.861,14.479-32.34,32.34-32.34
		c17.861,0,32.34,14.479,32.34,32.34c0,0,0,0,0,0C288.323,273.854,273.854,288.323,256,288.34z"/>
	
		<radialGradient id="SVGID_2_" cx="346.13" cy="338.33" r="144.76" gradientTransform="matrix(1 0 0 -1 0 512)" gradientUnits="userSpaceOnUse">
		<stop  offset="0" style="stop-color:#607D8B"/>
		<stop  offset="0.35" style="stop-color:#607D8B"/>
		<stop  offset="0.6" style="stop-color:#607D8B"/>
		<stop  offset="1" style="stop-color:#455A64"/>
	</radialGradient>
	<path style="fill:url(#SVGID_2_);stroke:#263238;stroke-width:2;stroke-miterlimit:10;" d="M284.24,58.19L284.24,58.19v224.48
		c-4.385-1.093-8.89-1.634-13.41-1.61c-21.72,0-39.43,12.87-39.43,28.7s17.7,28.7,39.43,28.7s39.43-12.88,39.43-28.7l0,0V159
		l148.58-30.58v113.22c-4.384-1.104-8.889-1.655-13.41-1.64c-21.72,0-39.42,12.87-39.42,28.7s17.7,28.7,39.42,28.7
		s39.43-12.87,39.43-28.7l0,0V16.89L284.24,58.19z M458.57,103.25L310,133.82V88l148.58-30.61L458.57,103.25z"/>
	<g>
		<defs>
			<path id="SVGID_3_" d="M284.24,58.19L284.24,58.19v224.48c-4.385-1.093-8.89-1.634-13.41-1.61c-21.72,0-39.43,12.87-39.43,28.7
				s17.7,28.7,39.43,28.7s39.43-12.88,39.43-28.7l0,0V159l148.58-30.58v113.22c-4.384-1.104-8.889-1.655-13.41-1.64
				c-21.72,0-39.42,12.87-39.42,28.7s17.7,28.7,39.42,28.7s39.43-12.87,39.43-28.7l0,0V16.89L284.24,58.19z M458.57,103.25
				L310,133.82V88l148.58-30.61L458.57,103.25z"/>
		</defs>
		<clipPath id="SVGID_4_">
			<use xlink:href="#SVGID_3_"  style="overflow:visible;"/>
		</clipPath>
		<g style="clip-path:url(#SVGID_4_);">
			
				<radialGradient id="SVGID_5_" cx="213.3015" cy="215.3519" r="33.98" gradientTransform="matrix(1.3 0 0 -1.08 -13.06 532.56)" gradientUnits="userSpaceOnUse">
				<stop  offset="0.37" style="stop-color:#5F7B8A"/>
				<stop  offset="1" style="stop-color:#455A64;stop-opacity:0"/>
			</radialGradient>
			<ellipse style="fill:url(#SVGID_5_);" cx="268.41" cy="299.72" rx="36.57" ry="29.73"/>
			
				<radialGradient id="SVGID_6_" cx="342.2516" cy="246.7419" r="33.98" gradientTransform="matrix(1.3 0 0 -1.08 -13.06 526.64)" gradientUnits="userSpaceOnUse">
				<stop  offset="0.37" style="stop-color:#5F7B8A"/>
				<stop  offset="1" style="stop-color:#455A64;stop-opacity:0"/>
			</radialGradient>
			<ellipse style="fill:url(#SVGID_6_);" cx="436.41" cy="260" rx="36.57" ry="29.73"/>
		</g>
	</g>
</g>
</svg>
