<svg id="其他" xmlns="http://www.w3.org/2000/svg" xmlns:xlink="http://www.w3.org/1999/xlink" viewBox="0 0 512 512"><defs><style>.cls-1{fill:none;}.cls-2{opacity:0.2;}.cls-3{opacity:0.08;}.cls-4{opacity:0.1;}.cls-5{fill:#01579b;}.cls-6{fill:#0288d1;}.cls-7{fill:url(#radial-gradient);}.cls-8{opacity:0.7;}.cls-10,.cls-8{isolation:isolate;}.cls-9{fill:#fff;}.cls-10{fill:#f5f5f5;}.cls-11{stroke:#263238;stroke-miterlimit:10;stroke-width:2px;fill:url(#radial-gradient-2);}.cls-12{clip-path:url(#clip-path);}.cls-13{fill:url(#radial-gradient-3);}.cls-14{fill:url(#radial-gradient-4);}</style><radialGradient id="radial-gradient" cx="256" cy="256" r="201.67" gradientUnits="userSpaceOnUse"><stop offset="0" stop-color="#4dd0e1"/><stop offset="0.39" stop-color="#40bee7"/><stop offset="0.61" stop-color="#3fbde7"/><stop offset="0.66" stop-color="#44c4e8"/><stop offset="0.75" stop-color="#2cbee8"/><stop offset="1" stop-color="#2196f3"/></radialGradient><radialGradient id="radial-gradient-2" cx="346.13" cy="173.67" r="144.76" gradientUnits="userSpaceOnUse"><stop offset="0" stop-color="#607d8b"/><stop offset="0.35" stop-color="#607d8b"/><stop offset="0.6" stop-color="#607d8b"/><stop offset="1" stop-color="#455a64"/></radialGradient><clipPath id="clip-path"><path class="cls-1" d="M284.24,58.19h0V282.67a54.26,54.26,0,0,0-13.41-1.61c-21.72,0-39.43,12.87-39.43,28.7s17.7,28.7,39.43,28.7,39.43-12.88,39.43-28.7h0V159l148.58-30.58V241.64A54.19,54.19,0,0,0,445.43,240c-21.72,0-39.42,12.87-39.42,28.7s17.7,28.7,39.42,28.7,39.43-12.87,39.43-28.7h0V16.89Zm174.33,45.06L310,133.82V88L458.58,57.39Z"/></clipPath><radialGradient id="radial-gradient-3" cx="257.84" cy="292.5" r="33.98" gradientTransform="translate(-70.96 -15.92) scale(1.3 1.08)" gradientUnits="userSpaceOnUse"><stop offset="0.37" stop-color="#5f7b8a"/><stop offset="1" stop-color="#455a64" stop-opacity="0"/></radialGradient><radialGradient id="radial-gradient-4" cx="386.79" cy="261.11" r="33.98" gradientTransform="translate(-70.96 -21.84) scale(1.3 1.08)" xlink:href="#radial-gradient-3"/></defs><title>画板 17</title><g id="光盘-音乐"><path class="cls-2" d="M256,504A248,248,0,0,1,80.64,80.64,248,248,0,0,1,431.36,431.36,246.38,246.38,0,0,1,256,504Zm0-274.34A26.34,26.34,0,1,0,282.34,256,26.37,26.37,0,0,0,256,229.66Z"/><path class="cls-3" d="M260,512A252,252,0,0,1,81.81,81.81,252,252,0,1,1,438.19,438.19,250.35,250.35,0,0,1,260,512Zm0-274.34A22.34,22.34,0,1,0,282.34,260,22.36,22.36,0,0,0,260,237.66Z"/><path class="cls-4" d="M260,508A248,248,0,0,1,84.64,84.64,248,248,0,0,1,435.36,435.36,246.38,246.38,0,0,1,260,508Zm0-274.34A26.34,26.34,0,1,0,286.34,260,26.37,26.37,0,0,0,260,233.66Z"/><path class="cls-5" d="M256,500A244,244,0,0,1,83.47,83.47,244,244,0,0,1,428.53,428.53,242.4,242.4,0,0,1,256,500Zm0-274.34A30.34,30.34,0,1,0,286.34,256,30.37,30.37,0,0,0,256,225.66Z"/><path class="cls-6" d="M256,14C122.35,14,14,122.35,14,256S122.35,498,256,498,498,389.65,498,256,389.65,14,256,14Zm0,476.94C126.45,490.94,21.06,385.55,21.06,256S126.45,21.06,256,21.06,490.94,126.45,490.94,256,385.55,490.94,256,490.94Z"/><path class="cls-7" d="M256,54.33C144.8,54.33,54.33,144.8,54.33,256S144.8,457.67,256,457.67,457.67,367.2,457.67,256,367.2,54.33,256,54.33Zm0,272.25A70.58,70.58,0,1,1,326.58,256,70.66,70.66,0,0,1,256,326.58Z"/><g class="cls-8"><path class="cls-9" d="M326.41,260.65l123.77,8.17,7.08-.25a202.75,202.75,0,0,0-12.91-84.36L321.91,230.88A70.93,70.93,0,0,1,326.41,260.65Z"/><path class="cls-9" d="M185.59,251.35,61.82,243.18l-7.08.25a202.75,202.75,0,0,0,12.91,84.36l122.44-46.67A70.93,70.93,0,0,1,185.59,251.35Z"/></g><g class="cls-8"><path class="cls-9" d="M317,220.48,424.15,158l5.73-4.16A202.74,202.74,0,0,0,372,91.16L296.59,198.32A70.93,70.93,0,0,1,317,220.48Z"/><path class="cls-9" d="M195,291.52,87.85,354l-5.73,4.17A202.75,202.75,0,0,0,140,420.84l75.41-107.16A70.92,70.92,0,0,1,195,291.52Z"/></g><path class="cls-10" d="M256,21.06C126.45,21.06,21.06,126.45,21.06,256S126.45,490.94,256,490.94,490.94,385.55,490.94,256,385.55,21.06,256,21.06Zm0,436.61C144.8,457.67,54.33,367.2,54.33,256S144.8,54.33,256,54.33,457.67,144.8,457.67,256,367.2,457.67,256,457.67Z"/><path class="cls-6" d="M256,185.42A70.58,70.58,0,1,0,326.58,256,70.66,70.66,0,0,0,256,185.42Zm0,133.86A63.28,63.28,0,1,1,319.28,256,63.35,63.35,0,0,1,256,319.28Z"/><path class="cls-10" d="M256,192.72A63.28,63.28,0,1,0,319.28,256,63.35,63.35,0,0,0,256,192.72Zm0,95.62A32.34,32.34,0,1,1,288.34,256,32.37,32.37,0,0,1,256,288.34Z"/><path class="cls-11" d="M284.24,58.19h0V282.67a54.26,54.26,0,0,0-13.41-1.61c-21.72,0-39.43,12.87-39.43,28.7s17.7,28.7,39.43,28.7,39.43-12.88,39.43-28.7h0V159l148.58-30.58V241.64A54.19,54.19,0,0,0,445.43,240c-21.72,0-39.42,12.87-39.42,28.7s17.7,28.7,39.42,28.7,39.43-12.87,39.43-28.7h0V16.89Zm174.33,45.06L310,133.82V88L458.58,57.39Z"/><g class="cls-12"><ellipse class="cls-13" cx="268.41" cy="299.72" rx="36.57" ry="29.73"/><ellipse class="cls-14" cx="436.41" cy="260" rx="36.57" ry="29.73"/></g></g></svg>