<svg xmlns="http://www.w3.org/2000/svg" xmlns:xlink="http://www.w3.org/1999/xlink" viewBox="0 0 512 512"><defs><style>.cls-1,.cls-10,.cls-13{fill:none;}.cls-10,.cls-2,.cls-3,.cls-4,.cls-5{fill-rule:evenodd;}.cls-2{opacity:0.2;}.cls-3{opacity:0.08;}.cls-4{opacity:0.1;}.cls-5{fill:url(#linear-gradient);}.cls-6{clip-path:url(#clip-path);}.cls-7{fill:#455a64;}.cls-11,.cls-8{fill:#263238;}.cls-9{fill:url(#linear-gradient-2);}.cls-10,.cls-11{stroke:#263238;}.cls-10,.cls-11,.cls-13{stroke-miterlimit:10;}.cls-10{stroke-width:2px;}.cls-12{fill:url(#新建渐变色板_2);}.cls-13{stroke:#cfd8dc;stroke-width:3px;}</style><linearGradient id="linear-gradient" x1="256" y1="498" x2="256" y2="14" gradientUnits="userSpaceOnUse"><stop offset="0" stop-color="#263238"/><stop offset="0.55" stop-color="#374850"/><stop offset="1" stop-color="#607d8b"/></linearGradient><clipPath id="clip-path"><path class="cls-1" d="M336.15,47.77C312.06,26.6,284.83,14,256,14s-56.06,12.6-80.15,33.77c-50.71,44.55-87.5,127.07-96,210.18H432.17C423.65,174.84,386.86,92.31,336.15,47.77Z"/></clipPath><linearGradient id="linear-gradient-2" x1="256" y1="147.38" x2="256" y2="-29.7" gradientUnits="userSpaceOnUse"><stop offset="0" stop-color="#607d8b"/><stop offset="1" stop-color="#263238"/></linearGradient><linearGradient id="新建渐变色板_2" x1="256" y1="122.34" x2="256" y2="65.41" gradientUnits="userSpaceOnUse"><stop offset="0" stop-color="#d32f2f"/><stop offset="1" stop-color="#e57373"/></linearGradient></defs><title>画板 17</title><g id="开始菜单应用图标"><g id="鼠标"><g id="_512" data-name="512"><path class="cls-2" d="M256,502c-50.88,0-96.63-18.86-128.82-53.1-34.83-37-53.24-90.58-53.24-154.82,0-66.72,19.22-136.79,52.73-192.23,17-28.05,36.35-50.29,57.64-66.1C207.33,18.67,231.45,10,256,10s48.67,8.67,71.69,25.76c21.29,15.81,40.68,38,57.64,66.1,33.51,55.45,52.73,125.51,52.73,192.23,0,64.24-18.41,117.77-53.24,154.82C352.63,483.14,306.88,502,256,502Z"/><path class="cls-3" d="M260,510c-52,0-98.78-19.3-131.74-54.36-35.54-37.8-54.33-92.28-54.33-157.56,0-67.43,19.43-138.25,53.31-194.3,17.22-28.5,37-51.12,58.68-67.24C209.65,18.93,234.57,10,260,10s50.35,8.93,74.08,26.55c21.71,16.12,41.45,38.74,58.68,67.24,33.88,56.05,53.31,126.87,53.31,194.3,0,65.27-18.79,119.76-54.33,157.56C358.78,490.7,312,510,260,510Z"/><path class="cls-4" d="M260,506c-50.88,0-96.63-18.86-128.82-53.1-34.83-37-53.24-90.58-53.24-154.82,0-66.72,19.22-136.79,52.73-192.23,17-28.05,36.35-50.29,57.64-66.1C211.33,22.67,235.45,14,260,14s48.67,8.67,71.69,25.76c21.29,15.81,40.68,38,57.64,66.1,33.51,55.45,52.73,125.51,52.73,192.23,0,64.24-18.41,117.77-53.24,154.82C356.63,487.14,310.88,506,260,506Z"/><path class="cls-5" d="M434.06,294.09C434.06,427.74,354.34,498,256,498S77.94,427.74,77.94,294.09,157.66,14,256,14,434.06,160.44,434.06,294.09Z"/><g class="cls-6"><path class="cls-7" d="M256,440.33c-118.27,0-214.49-56.38-214.49-125.69S137.73,188.93,256,188.93s214.49,56.4,214.49,125.72S374.28,440.33,256,440.33Zm0-239.94c-112,0-203,51.25-203,114.26S144,428.87,256,428.87s203-51.25,203-114.23S368,200.39,256,200.39Z"/><path class="cls-8" d="M256,428.86c-118.27,0-214.49-56.38-214.49-125.69S137.73,177.46,256,177.46s214.49,56.4,214.49,125.72S374.28,428.86,256,428.86Zm0-239.94c-112,0-203,51.26-203,114.25S144,417.4,256,417.4s203-51.25,203-114.23S368,188.92,256,188.92Z"/><path class="cls-9" d="M256-29.7c-15.52,0-28.09,11.68-28.09,26.09v124.9c0,14.41,12.58,26.09,28.09,26.09s28.1-11.68,28.1-26.09V-3.61C284.1-18,271.51-29.7,256-29.7Z"/><rect class="cls-8" x="251.62" y="-0.14" width="8.76" height="171.06"/><rect class="cls-8" x="249.43" y="155.41" width="13.14" height="30.96"/></g><path class="cls-10" d="M434.06,294.09C434.06,427.74,354.34,498,256,498S77.94,427.74,77.94,294.09,157.66,14,256,14,434.06,160.44,434.06,294.09Z"/><path class="cls-11" d="M272.43,112.48c0,7.86-7.36,14.23-16.43,14.23h0c-9.08,0-16.43-6.37-16.43-14.23V75.26C239.57,67.4,246.92,61,256,61h0c9.07,0,16.43,6.37,16.43,14.23Z"/><path class="cls-12" d="M266.95,109.2c0,6.81-4.9,13.14-10.95,13.14h0c-6,0-10.95-6.32-10.95-13.14V78.55c0-6.81,4.9-13.14,10.95-13.14h0c6,0,10.95,6.32,10.95,13.14Z"/><polyline class="cls-13" points="213.95 81.12 198.75 96.33 213.71 111.29"/><polyline class="cls-13" points="298.06 81.12 313.26 96.33 298.3 111.29"/></g></g></g></svg>