<svg xmlns="http://www.w3.org/2000/svg" xmlns:xlink="http://www.w3.org/1999/xlink" viewBox="0 0 512 512"><defs><style>.cls-1{opacity:0.08;}.cls-2{opacity:0.1;}.cls-3{opacity:0.2;}.cls-4{fill:url(#未命名的渐变_4);}.cls-5{fill:url(#未命名的渐变_50);}.cls-6{fill:url(#未命名的渐变_146);}</style><linearGradient id="未命名的渐变_4" x1="256" y1="14.12" x2="256" y2="497.88" gradientUnits="userSpaceOnUse"><stop offset="0" stop-color="#b6fa5f"/><stop offset="1" stop-color="#3fa644"/></linearGradient><linearGradient id="未命名的渐变_50" x1="256" y1="12.12" x2="256" y2="499.88" gradientUnits="userSpaceOnUse"><stop offset="0" stop-color="#0288d1"/><stop offset="1" stop-color="#01579b"/></linearGradient><linearGradient id="未命名的渐变_146" x1="293.44" y1="552.94" x2="231.88" y2="79.55" gradientUnits="userSpaceOnUse"><stop offset="0" stop-color="#01579b"/><stop offset="0.79" stop-color="#03a9f4"/><stop offset="0.99" stop-color="#5bc7f8"/></linearGradient></defs><title>画板 17</title><g id="控制面板"><g id="网络连接"><g id="_512" data-name="512"><path class="cls-1" d="M260,511.88a251.94,251.94,0,0,1-98.05-484A251.94,251.94,0,0,1,358,492.08,250.31,250.31,0,0,1,260,511.88Z"/><path class="cls-2" d="M260,507.88A247.94,247.94,0,0,1,163.51,31.6a247.94,247.94,0,0,1,193,456.79A246.33,246.33,0,0,1,260,507.88Z"/><path class="cls-3" d="M256,503.88A247.94,247.94,0,0,1,159.51,27.6a247.94,247.94,0,0,1,193,456.79A246.33,246.33,0,0,1,256,503.88Z"/><path d="M256,12.12a243.94,243.94,0,0,0-94.93,468.59A243.94,243.94,0,0,0,350.93,31.29,242.37,242.37,0,0,0,256,12.12Z"/><path class="cls-4" d="M497.89,256c0,133.58-108.3,241.88-241.89,241.88S14.11,389.59,14.11,256,122.4,14.12,256,14.12,497.89,122.41,497.89,256Z"/><path class="cls-5" d="M256,14.12c133.59,0,241.89,108.29,241.89,241.88S389.59,497.88,256,497.88,14.11,389.59,14.11,256,122.4,14.12,256,14.12m0-2a243.94,243.94,0,0,0-94.93,468.59A243.94,243.94,0,0,0,350.93,31.29,242.37,242.37,0,0,0,256,12.12Z"/><path class="cls-6" d="M435.55,185.92l4.22,3h3.92v-7.57l12.37-1.18,11.76,8.75h19.31l1.35-1.25q-2.88-9.77-6.54-19.18l-12.62.21L463,161.77l-1.23-11.15-6.47,3.54-3.48,13.64-9.35-10-.38-9.42-9-7.75-3.34-3.31H419.25l3.31,9.32,12.61,7,2.19,2.33-2.73,1.37.12,7.39-6.14,2.55-5.24-1.13-3.28-4.65,8.53.44,2.29-3.1L412,146.16l-1.44-5.41-7.67,6.92-7.79-1.59-11.84,15.39-2.33,6-7.58.69-11.21.08-6.7-3.13-2-13.33,2.41-6.34,11.4-2.5,12.44,2.5,1.52-6.88L376,137.36l1.8-10.73,12.52-2L399,112.3l9-1.51,8.17,1.2h3l-1.66-11.62-9.91,4-3.49-8.67-5.75-.81L397.35,89l4.71-5.12,11.15-4.38,2.88-5.12A241.27,241.27,0,0,0,114.15,60.23l12.2-.1,5.44,3L142,65.34l.8,4,16.3.59-2.22-5.21-14.48-.43,3.41-3.19-1.19-3.83H131.58l14.28-10.66h13.68L166,55.51l10.67.59,6.43-6.23,4.83,2.41L179,60.92s-12.26.21-11.66.21,1,8.45,1,8.45l14.87-.42,1.61-4,10.25-.6,1.22-6-6-1,2-5.43,4.62-1.4,16.09.79-8.87,8.05,1.43,6.23,9.25,1.41-.6-11.26,8.85-4.63,15.69-1.82,22.72,10.07v8.64L268.74,70l-3.62,6.85H254.86l-3,7.84-23.44-5.54,18.43-9.8-7-6-15.89,2-1.39,1.44-.06,0-.25.34-4.57,4.75-7.55.64.6,3.76,2.65,1.09-.11,1.25-6.15.87L206.59,83l-5.88.31-1.06-7.08-10.55,3.21L167.52,92.1l2.42,8.9,6,3.93L188,106.59V120.3l5.58-.91,5.14-10.69,12.81-4.07V88.17l7.14-5.38L236,86.87l-1.22,10.87h4.63L252,91.5l.6,14.28,9.24,5.61-.39,8.48-8.84,3,.6,2.79,10.65,4.86-.2,5.84-3.08.25c0-.09,0-.16,0-.16l-13.44-4.15-.57-4.31h0l3.93-2.7v-3.93l-4.23-1.06-1,3.62-7.41,1.14-.74-.24v.36l-2.56.38-2.1-4.21L230,120.3h-5.28l-2.4,2v4.37l4.52,1.52,4.46.62-1,.43-4.06,4.51-1.79-2.25-3.93-1L209.75,140.5l1.4,1.15-15.82,8.76L180.44,165.9l-1,6.89-14.92,9.8L157.11,190l.82,14.87-10.26-4.78.08-8.68H119.2l-14.78,7.47L98,210.76l-2.55,9.39,4.15,9.09,11.65,1.42,18.52-12.39,1.62,6.16-5.65,10.67,14.09,2.39,1.41,21.77,19.31,3.27,12.27-14.18,14.89,3,5.23,7.27,14.27-.83.4-4.23,7.85,3.82,8.84,13.88,15.28.2,5.63,9.87L246,293.4l16.9,6.43,21.31.22,6.24,10.22,9.45,3-1.81,8.46-10.36,13.16-3,29.12-9.35,7.4L261.49,371l-4.63,8,3.43,15.1L245.2,413.47l-4.82,8.84L226,429.22l-9.46,1.44-.39,4,6.64,1.91-.8,4.32-6,5.73,3.61,4.53,7.16.21-.4,5.54-1.9,5.41-.61,4.43,10.59,8.92-1.41,4.63-14.4-.27-14.33-12.53-11.16-19.62,1.56-18.93-8.44-11.27,3.42-19.09-5-1.42V355.74s-14.08-10.67-14.88-10.67-7.45-1.79-7.45-1.79l-1.41-7.85-18.3-22.94,1.81-8.25.6-13.47,12.67-8.84-1.81-15.1-18.5-1.39L122.93,249l-10.26-2.81L106,244.93l.8-6-8.45-1.21v3.41l-21.12-5.21-8.5-13,3.47-6.3L58.87,197.07l-2.29-14.29H51.15l1.8,13.88,9.25,14.28-1,5.65-7.85-1.21L43.7,198.92V179.79l-10-4.85V161.16a240.65,240.65,0,0,0-19.33,94.72c0,133.45,108.56,242,242,242A241.64,241.64,0,0,0,444,408.44h-8V392.33L426.8,379.9V360.55l-7.06-7-.6-8.06,9-17.09-17-30,2-20.33-15.28-1.58-5.63-5.64H381.95l-5.23,4.82H358.63l-.61,1.61H348L324.84,251l.2-20.53,3.82-1.41,1.42-7.85h-5.44L322.62,213l26.75-19.3V180l13.1-7.26,5.3.52h10.77l8.43-4.53,27.15-2.12v13.89Zm-67.88-86.3,2.21-3.41,8-1.6,2,9.66,4.24,6.84,2.81,3.2,5.12,2-4.81,5.73-9.35.9h-7l.79-8.35,5.85-1.21-.5-3.93-5.45-3.42-3.81-2.62ZM354.6,114.73l4.84-7.75,6.5-1.51,4.65,2-.42,5.22-10,7H354.6ZM223.13,144.49l-5,.43.27-3.52,2.26-2.79,3,2.36Zm17.66-6.19-3.44.31-.7,3.31L234,143.58l-4.25.35c-.14-1-.24-1.77-.24-1.77h-1.65V138.6h6.93l1.44-3.7,2.76-.06,3.15.66Z"/></g></g></g></svg>