<svg id="其他" xmlns="http://www.w3.org/2000/svg" xmlns:xlink="http://www.w3.org/1999/xlink" viewBox="0 0 64 64"><defs><style>.cls-1{opacity:0.08;}.cls-2{opacity:0.1;}.cls-3{opacity:0.2;}.cls-4{fill:url(#未命名的渐变_51);}.cls-5{fill:#455a64;}.cls-6{fill:url(#linear-gradient);}.cls-7{fill:#fff;opacity:0.24;}</style><linearGradient id="未命名的渐变_51" x1="41.34" y1="60.7" x2="22.3" y2="2.21" gradientUnits="userSpaceOnUse"><stop offset="0" stop-color="#4dd0e1"/><stop offset="0.94" stop-color="#1976d2"/></linearGradient><linearGradient id="linear-gradient" x1="32" y1="15.22" x2="32" y2="47.58" gradientUnits="userSpaceOnUse"><stop offset="0.38" stop-color="#fff"/><stop offset="1" stop-color="#ccc"/></linearGradient></defs><title>画板 21</title><g id="耳麦"><g id="_64" data-name="64"><g class="cls-1"><path d="M33,64A31,31,0,1,1,64,33,31,31,0,0,1,33,64Z"/></g><g class="cls-2"><path d="M33,63A30,30,0,1,1,63,33,30,30,0,0,1,33,63Z"/></g><g class="cls-3"><path d="M32,62A30,30,0,1,1,62,32,30,30,0,0,1,32,62Z"/></g><path class="cls-4" d="M32,61.25A29.25,29.25,0,1,1,61.25,32,29.28,29.28,0,0,1,32,61.25Z"/><path class="cls-5" d="M32,3A29,29,0,1,1,3,32,29,29,0,0,1,32,3m0-.5A29.5,29.5,0,1,0,61.5,32,29.53,29.53,0,0,0,32,2.5Z"/><path class="cls-3" d="M48.91,35.44a8.44,8.44,0,0,0-6.41-8.19,15.14,15.14,0,0,0-1.22-5A9.69,9.69,0,0,0,32,16.42a9.69,9.69,0,0,0-9.28,5.88,15.14,15.14,0,0,0-1.22,5,8.45,8.45,0,0,0,2,16.65V28a13.39,13.39,0,0,1,1.09-4.85c1.08-2.4,3-4.66,7.37-4.66s6.28,2.26,7.37,4.66A13.39,13.39,0,0,1,40.45,28V43.9a8.45,8.45,0,0,0,2.31-.32,2.59,2.59,0,0,1-.57,1.29,1.92,1.92,0,0,1-1.52.59H36.76a2,2,0,0,0-1.63-.84H31A2.08,2.08,0,0,0,29,46.7h0A2.08,2.08,0,0,0,31,48.78h4.1A2.07,2.07,0,0,0,37,47.57h3.66a4.18,4.18,0,0,0,3.1-1.32A5.35,5.35,0,0,0,45,42.61v0A8.45,8.45,0,0,0,48.91,35.44Z"/><path class="cls-6" d="M48.91,34.25a8.44,8.44,0,0,0-6.41-8.19,15.14,15.14,0,0,0-1.22-5A9.69,9.69,0,0,0,32,15.22a9.69,9.69,0,0,0-9.28,5.88,15.14,15.14,0,0,0-1.22,5,8.45,8.45,0,0,0,2,16.65V26.85A13.39,13.39,0,0,1,24.63,22c1.08-2.4,3-4.66,7.37-4.66s6.28,2.26,7.37,4.66a13.39,13.39,0,0,1,1.09,4.85V42.7a8.45,8.45,0,0,0,2.31-.32,2.59,2.59,0,0,1-.57,1.29,1.92,1.92,0,0,1-1.52.59H36.76a2,2,0,0,0-1.63-.84H31A2.08,2.08,0,0,0,29,45.5h0A2.08,2.08,0,0,0,31,47.58h4.1A2.07,2.07,0,0,0,37,46.37h3.66A4.18,4.18,0,0,0,43.78,45,5.35,5.35,0,0,0,45,41.42v0A8.45,8.45,0,0,0,48.91,34.25Z"/><ellipse class="cls-7" cx="31.83" cy="21.77" rx="21.91" ry="16.47"/></g></g></svg>