<svg id="其他" xmlns="http://www.w3.org/2000/svg" xmlns:xlink="http://www.w3.org/1999/xlink" viewBox="0 0 64 64"><defs><style>.cls-1{opacity:0.1;}.cls-2{opacity:0.2;}.cls-3{opacity:0.08;}.cls-4{fill:#263238;}.cls-5{fill:#455a64;}.cls-6{fill:url(#linear-gradient);}.cls-7{fill:#90a4ae;}.cls-8,.cls-9{fill:url(#linear-gradient-2);}.cls-9{stroke:#01579b;stroke-miterlimit:10;stroke-width:2px;}.cls-10,.cls-11{opacity:0.8;}.cls-10{fill:url(#linear-gradient-4);}.cls-11{fill:url(#linear-gradient-5);}.cls-12{fill:#293a3f;}.cls-13{fill:url(#linear-gradient-6);}.cls-14{fill:#eee8d5;opacity:0.23;isolation:isolate;}.cls-15{fill:#1d272b;}.cls-16{fill:#03a9f4;}</style><linearGradient id="linear-gradient" x1="32.17" y1="57.91" x2="32.17" y2="51" gradientUnits="userSpaceOnUse"><stop offset="0" stop-color="#90a4ae"/><stop offset="1" stop-color="#455a64"/></linearGradient><linearGradient id="linear-gradient-2" x1="32" y1="11.18" x2="32" y2="42.99" gradientUnits="userSpaceOnUse"><stop offset="0" stop-color="#b3e5fc"/><stop offset="1" stop-color="#0288d1"/></linearGradient><linearGradient id="linear-gradient-4" x1="8.09" y1="12.63" x2="55.88" y2="12.63" gradientUnits="userSpaceOnUse"><stop offset="0" stop-color="#fff"/><stop offset="1" stop-color="#4fc3f7"/></linearGradient><linearGradient id="linear-gradient-5" x1="-630.61" y1="-580.03" x2="-601.68" y2="-580.03" gradientTransform="translate(588.57 -588.6) rotate(-90)" gradientUnits="userSpaceOnUse"><stop offset="0" stop-color="#0288d1"/><stop offset="1" stop-color="#fff"/></linearGradient><linearGradient id="linear-gradient-6" x1="32" y1="7.85" x2="32" y2="47.67" gradientUnits="userSpaceOnUse"><stop offset="0" stop-color="#607d8b"/><stop offset="1" stop-color="#455a64"/></linearGradient></defs><title>画板 21</title><g id="电脑"><path class="cls-1" d="M16.71,59.63a3.84,3.84,0,0,1-3.93-3.75V53l4.06-1.89H2V6.37H64V51.15H49.39L53.56,53v2.87a3.84,3.84,0,0,1-3.93,3.75Z"/><path class="cls-1" d="M16.71,58.63a2.84,2.84,0,0,1-2.93-2.75v-2.2l7.59-3.53H3V7.37H63V50.15H44.7l7.86,3.51v2.22a2.84,2.84,0,0,1-2.93,2.75Z"/><path class="cls-2" d="M15.71,57.63a2.84,2.84,0,0,1-2.93-2.75v-2.2l7.59-3.53H2V6.37H62V49.15H43.7l7.86,3.51v2.22a2.84,2.84,0,0,1-2.93,2.75Z"/><path class="cls-3" d="M55.47,41.6V14.49H10.53V41.6Z"/><path class="cls-1" d="M56.47,42.57v-29H9.53v29Z"/><path class="cls-4" d="M15.71,56.63a1.85,1.85,0,0,1-1.93-1.75V53.32l8.83-4.1H41.38l9.18,4.1v1.57a1.85,1.85,0,0,1-1.93,1.75Z"/><path class="cls-5" d="M41.27,49.71H22.72l-8.44,3.92v1.25a1.35,1.35,0,0,0,1.43,1.25H48.63a1.35,1.35,0,0,0,1.43-1.25V53.63Z"/><polygon class="cls-6" points="14.28 53.63 22.72 49.71 41.27 49.71 50.06 53.63 14.28 53.63"/><path class="cls-7" d="M48.63,53.63H14.28v1.25a1.35,1.35,0,0,0,1.43,1.25H48.63a1.35,1.35,0,0,0,1.43-1.25V53.63Z"/><path class="cls-4" d="M3,7.37V48.15H24.4v3.79H39.6V48.15H61V7.37ZM56.47,11.6v31H7.53v-31Z"/><rect id="rect3008" class="cls-8" x="7.08" y="11.18" width="49.82" height="31.82"/><rect id="rect3008-2" data-name="rect3008" class="cls-9" x="7.08" y="11.18" width="49.82" height="31.82"/><rect class="cls-10" x="8.09" y="12.18" width="47.78" height="0.9"/><rect class="cls-11" x="8.09" y="13.08" width="0.9" height="28.93"/><rect class="cls-12" x="24.88" y="47.39" width="14.25" height="4.06"/><path class="cls-13" d="M3.5,7.85V47.67h57V7.85ZM56.91,43H7.09V11.18H56.91Z"/><path id="rect3008-0" class="cls-14" d="M38.38,11.17,25.49,43H56.91V11.17Z"/><circle class="cls-15" cx="31.98" cy="45.31" r="2.05"/><circle class="cls-16" cx="31.98" cy="45.45" r="1.56"/></g></svg>