<?xml version="1.0" encoding="iso-8859-1"?>
<!-- Generator: Adobe Illustrator 21.0.0, SVG Export Plug-In . SVG Version: 6.00 Build 0)  -->
<svg version="1.1" id="&#x5176;&#x4ED6;" xmlns="http://www.w3.org/2000/svg" xmlns:xlink="http://www.w3.org/1999/xlink" x="0px"
	 y="0px" viewBox="0 0 64 64" style="enable-background:new 0 0 64 64;" xml:space="preserve">
<title>画板 21</title>
<g id="&#x7535;&#x8111;">
	<path style="opacity:0.1;enable-background:new    ;" d="M16.71,59.63c-2.12,0.05-3.88-1.628-3.93-3.748c0-0.001,0-0.001,0-0.002
		V53l4.06-1.89H2V6.37h62v44.78H49.39L53.56,53v2.87c-0.049,2.12-1.808,3.799-3.928,3.75c-0.001,0-0.001,0-0.002,0L16.71,59.63z"/>
	<path style="opacity:0.1;enable-background:new    ;" d="M16.71,58.63c-1.568,0.05-2.879-1.179-2.93-2.747c0-0.001,0-0.002,0-0.003
		v-2.2l7.59-3.53H3V7.37h60v42.78H44.7l7.86,3.51v2.22c-0.049,1.568-1.359,2.799-2.927,2.75c-0.001,0-0.002,0-0.003,0H16.71z"/>
	<path style="opacity:0.2;enable-background:new    ;" d="M15.71,57.63c-1.568,0.05-2.879-1.179-2.93-2.747c0-0.001,0-0.002,0-0.003
		v-2.2l7.59-3.53H2V6.37h60v42.78H43.7l7.86,3.51v2.22c-0.049,1.568-1.359,2.799-2.927,2.75c-0.001,0-0.002,0-0.003,0H15.71z"/>
	<path style="opacity:0.08;enable-background:new    ;" d="M55.47,41.6V14.49H10.53V41.6H55.47z"/>
	<path style="opacity:0.1;enable-background:new    ;" d="M56.47,42.57v-29H9.53v29H56.47z"/>
	<path style="fill:#263238;" d="M15.71,56.63c-1.015,0.045-1.876-0.736-1.93-1.75v-1.56l8.83-4.1h18.77l9.18,4.1v1.57
		c-0.054,1.014-0.915,1.795-1.93,1.75L15.71,56.63z"/>
	<path style="fill:#455A64;" d="M41.27,49.71H22.72l-8.44,3.92v1.25c0.053,0.738,0.691,1.296,1.43,1.25h32.92
		c0.739,0.046,1.377-0.512,1.43-1.25v-1.25L41.27,49.71z"/>
	
		<linearGradient id="SVGID_1_" gradientUnits="userSpaceOnUse" x1="32.17" y1="8.09" x2="32.17" y2="15" gradientTransform="matrix(1 0 0 -1 0 66)">
		<stop  offset="0" style="stop-color:#90A4AE"/>
		<stop  offset="1" style="stop-color:#455A64"/>
	</linearGradient>
	<polygon style="fill:url(#SVGID_1_);" points="14.28,53.63 22.72,49.71 41.27,49.71 50.06,53.63 	"/>
	<path style="fill:#90A4AE;" d="M48.63,53.63H14.28v1.25c0.053,0.738,0.691,1.296,1.43,1.25h32.92
		c0.739,0.046,1.377-0.512,1.43-1.25v-1.25H48.63z"/>
	<path style="fill:#263238;" d="M3,7.37v40.78h21.4v3.79h15.2v-3.79H61V7.37H3z M56.47,11.6v31H7.53v-31L56.47,11.6z"/>
	
		<linearGradient id="rect3008_1_" gradientUnits="userSpaceOnUse" x1="31.99" y1="54.82" x2="31.99" y2="23" gradientTransform="matrix(1 0 0 -1 0 66)">
		<stop  offset="0" style="stop-color:#B3E5FC"/>
		<stop  offset="1" style="stop-color:#0288D1"/>
	</linearGradient>
	<rect id="rect3008" x="7.08" y="11.18" style="fill:url(#rect3008_1_);" width="49.82" height="31.82"/>
	
		<linearGradient id="rect3008-2_1_" gradientUnits="userSpaceOnUse" x1="31.99" y1="54.82" x2="31.99" y2="23" gradientTransform="matrix(1 0 0 -1 0 66)">
		<stop  offset="0" style="stop-color:#B3E5FC"/>
		<stop  offset="1" style="stop-color:#0288D1"/>
	</linearGradient>
	
		<rect id="rect3008-2" x="7.08" y="11.18" style="fill:url(#rect3008-2_1_);stroke:#01579B;stroke-width:2;stroke-miterlimit:10;" width="49.82" height="31.82"/>
	
		<linearGradient id="SVGID_2_" gradientUnits="userSpaceOnUse" x1="8.09" y1="53.37" x2="55.87" y2="53.37" gradientTransform="matrix(1 0 0 -1 0 66)">
		<stop  offset="0" style="stop-color:#FFFFFF"/>
		<stop  offset="1" style="stop-color:#4FC3F7"/>
	</linearGradient>
	<rect x="8.09" y="12.18" style="opacity:0.8;fill:url(#SVGID_2_);enable-background:new    ;" width="47.78" height="0.9"/>
	
		<linearGradient id="SVGID_3_" gradientUnits="userSpaceOnUse" x1="-1214.61" y1="396.03" x2="-1185.6799" y2="396.03" gradientTransform="matrix(6.123234e-17 -1 -1 -6.123234e-17 404.57 -1172.6)">
		<stop  offset="0" style="stop-color:#0288D1"/>
		<stop  offset="1" style="stop-color:#FFFFFF"/>
	</linearGradient>
	<rect x="8.09" y="13.08" style="opacity:0.8;fill:url(#SVGID_3_);enable-background:new    ;" width="0.9" height="28.93"/>
	<rect x="24.88" y="47.39" style="fill:#293A3F;" width="14.25" height="4.06"/>
	
		<linearGradient id="SVGID_4_" gradientUnits="userSpaceOnUse" x1="32" y1="58.15" x2="32" y2="18.33" gradientTransform="matrix(1 0 0 -1 0 66)">
		<stop  offset="0" style="stop-color:#607D8B"/>
		<stop  offset="1" style="stop-color:#455A64"/>
	</linearGradient>
	<path style="fill:url(#SVGID_4_);" d="M3.5,7.85v39.82h57V7.85H3.5z M56.91,43H7.09V11.18h49.82V43z"/>
	<path id="rect3008-0" style="opacity:0.23;fill:#EEE8D5;enable-background:new    ;" d="M38.38,11.17L25.49,43h31.42V11.17H38.38z"
		/>
	<circle style="fill:#1D272B;" cx="31.98" cy="45.31" r="2.05"/>
	<circle style="fill:#03A9F4;" cx="31.98" cy="45.45" r="1.56"/>
</g>
</svg>
