<?xml version="1.0" encoding="iso-8859-1"?>
<!-- Generator: Adobe Illustrator 21.0.0, SVG Export Plug-In . SVG Version: 6.00 Build 0)  -->
<svg version="1.1" id="&#x56FE;&#x5C42;_1" xmlns="http://www.w3.org/2000/svg" xmlns:xlink="http://www.w3.org/1999/xlink" x="0px"
	 y="0px" viewBox="0 0 64 64" style="enable-background:new 0 0 64 64;" xml:space="preserve">
<title>画板 21</title>
<g id="&#x63A7;&#x5236;&#x9762;&#x677F;">
	<g id="&#x663E;&#x793A;">
		<g id="_128">
			<g>
				<defs>
					<rect id="SVGID_1_" x="-135.83" y="16.99" width="99.65" height="75.13"/>
				</defs>
				<clipPath id="SVGID_2_">
					<use xlink:href="#SVGID_1_"  style="overflow:visible;"/>
				</clipPath>
				<g style="clip-path:url(#SVGID_2_);">
					<g style="opacity:0.4;">
						
							<linearGradient id="SVGID_3_" gradientUnits="userSpaceOnUse" x1="-67.03" y1="4.59" x2="-7.44" y2="64.18" gradientTransform="matrix(1 0 0 -1 0 66)">
							<stop  offset="0" style="stop-color:#00698C"/>
							<stop  offset="1" style="stop-color:#00698C;stop-opacity:0"/>
						</linearGradient>
						<path style="opacity:0.7;fill:url(#SVGID_3_);enable-background:new    ;" d="M-58.58,46.61c-2.872,0-5.2-2.328-5.2-5.2
							c0-0.003,0-0.007,0-0.01v-74.5h-3.88c-2.877,0-5.21,2.333-5.21,5.21v80c0.006,2.873,2.336,5.2,5.21,5.2h99.87
							c2.874,0,5.204-2.327,5.21-5.2v-5.5H-58.58z"/>
						
							<linearGradient id="SVGID_4_" gradientUnits="userSpaceOnUse" x1="-91.7416" y1="-20.1084" x2="-32.1416" y2="39.4816" gradientTransform="matrix(1 0 0 -1 0 66)">
							<stop  offset="0" style="stop-color:#00698C"/>
							<stop  offset="1" style="stop-color:#00698C;stop-opacity:0"/>
						</linearGradient>
						<path style="opacity:0.8;fill:url(#SVGID_4_);enable-background:new    ;" d="M-83.28,71.31
							c-2.872,0.006-5.204-2.318-5.21-5.19c0-0.003,0-0.007,0-0.01v-74.5h-3.88c-2.872,0-5.2,2.328-5.2,5.2v80
							c0.006,2.868,2.332,5.19,5.2,5.19H7.51c2.872,0,5.2-2.328,5.2-5.2c0-0.003,0-0.007,0-0.01v-5.48H-83.28z"/>
					</g>
				</g>
			</g>
		</g>
		<g id="_64">
			<g style="opacity:0.08;">
				<path d="M16.6,61.4c-1.865,0.045-3.416-1.425-3.47-3.29v-2.56l5-2.32H2V4.6h62v48.63H48.09l5.13,2.3v2.58
					c-0.054,1.865-1.605,3.335-3.47,3.29H16.6z"/>
			</g>
			<g style="opacity:0.1;">
				<path d="M16.6,60.38c-1.302,0.045-2.396-0.969-2.45-2.27V56.2l8.55-4H3V5.62h60v46.6H43.34l8.87,4v1.92
					c-0.054,1.301-1.148,2.315-2.45,2.27L16.6,60.38z"/>
			</g>
			<g style="opacity:0.2;">
				<path d="M15.58,59.37c-1.302,0.045-2.396-0.969-2.45-2.27v-1.92l8.55-4H2V4.6h60v46.6H42.32l8.87,4v1.92
					c-0.054,1.301-1.148,2.315-2.45,2.27L15.58,59.37z"/>
			</g>
			<path style="fill:#455A64;" d="M15.58,58.6c-0.882,0.046-1.636-0.628-1.69-1.51v-1.42l8.69-4.05h1.9v-1.19H2.77V5.37H61.2v45.06
				H39.48v1.19h1.91l9,4v1.42c-0.054,0.882-0.808,1.556-1.69,1.51L15.58,58.6z"/>
			<path style="fill:#263238;" d="M61,5.62v44.56H39.23v1.69h2.11l8.85,4v1.26c-0.053,0.744-0.696,1.306-1.44,1.26H15.58
				c-0.744,0.046-1.387-0.516-1.44-1.26v-1.3l8.5-4h2.09v-1.65H3V5.62H61 M61.5,5.12H2.52v45.56h21.72v0.69h-1.7h-0.1l-8.5,4
				l-0.29,0.13v1.58c0.054,1.02,0.92,1.805,1.94,1.76h33.15c1.02,0.045,1.886-0.74,1.94-1.76v-1.57l-0.3-0.13l-8.85-4h-0.1h-1.7
				v-0.69h21.72V5.12H61.5z"/>
			
				<linearGradient id="SVGID_5_" gradientUnits="userSpaceOnUse" x1="32.165" y1="5.85" x2="32.165" y2="12.83" gradientTransform="matrix(1 0 0 -1 0 66)">
				<stop  offset="0" style="stop-color:#455A64"/>
				<stop  offset="1" style="stop-color:#263238"/>
			</linearGradient>
			<polygon style="fill:url(#SVGID_5_);" points="14.15,55.83 22.65,51.87 41.33,51.87 50.18,55.83 			"/>
			<g id="rect3008-3">
				
					<linearGradient id="SVGID_6_" gradientUnits="userSpaceOnUse" x1="31.98" y1="57.91" x2="31.98" y2="19.73" gradientTransform="matrix(1 0 0 -1 0 66)">
					<stop  offset="0" style="stop-color:#B3E5FC"/>
					<stop  offset="1" style="stop-color:#0288D1"/>
				</linearGradient>
				<rect x="6.66" y="8.09" style="fill:url(#SVGID_6_);" width="50.64" height="38.18"/>
			</g>
			<g>
				<defs>
					<rect id="SVGID_7_" x="6.66" y="8.09" width="50.64" height="38.18"/>
				</defs>
				<clipPath id="SVGID_8_">
					<use xlink:href="#SVGID_7_"  style="overflow:visible;"/>
				</clipPath>
				<g style="clip-path:url(#SVGID_8_);">
					<g style="opacity:0.4;">
						
							<linearGradient id="SVGID_9_" gradientUnits="userSpaceOnUse" x1="41.6226" y1="35.3374" x2="71.9026" y2="65.6174" gradientTransform="matrix(1 0 0 -1 0 66)">
							<stop  offset="0" style="stop-color:#00698C"/>
							<stop  offset="1" style="stop-color:#00698C;stop-opacity:0"/>
						</linearGradient>
						<path style="opacity:0.7;fill:url(#SVGID_9_);enable-background:new    ;" d="M45.92,23.14c-1.458,0-2.64-1.182-2.64-2.64
							c0-0.003,0-0.007,0-0.01v-37.85h-2c-1.464,0-2.65,1.186-2.65,2.65v0V26c0.027,1.452,1.218,2.611,2.67,2.6h50.76
							c1.44-0.005,2.613-1.16,2.64-2.6v-2.86H45.92z"/>
						
							<linearGradient id="SVGID_10_" gradientUnits="userSpaceOnUse" x1="29.0683" y1="22.7817" x2="59.3583" y2="53.0617" gradientTransform="matrix(1 0 0 -1 0 66)">
							<stop  offset="0" style="stop-color:#00698C"/>
							<stop  offset="1" style="stop-color:#00698C;stop-opacity:0"/>
						</linearGradient>
						<path style="opacity:0.8;fill:url(#SVGID_10_);enable-background:new    ;" d="M33.36,35.7c-1.46,0-2.644-1.18-2.65-2.64
							V-4.81h-2c-1.45,0.016-2.616,1.2-2.61,2.65v40.67c0,1.46,1.18,2.644,2.64,2.65H79.5c1.458,0,2.64-1.182,2.64-2.64
							c0-0.003,0-0.007,0-0.01V35.7H33.36z"/>
					</g>
				</g>
			</g>
			<g id="layer4">
				
					<linearGradient id="path4238_1_" gradientUnits="userSpaceOnUse" x1="-330.3652" y1="-759.4564" x2="-330.3652" y2="-787.3864" gradientTransform="matrix(0.71 0.71 -0.71 0.71 -273.81 809.84)">
					<stop  offset="0" style="stop-color:#000000"/>
					<stop  offset="1" style="stop-color:#000000;stop-opacity:0"/>
				</linearGradient>
				<path id="path4238" style="opacity:0.12;fill:url(#path4238_1_);enable-background:new    ;" d="M32.86,24.39l-4.32-4.32
					c-0.14-0.149-0.374-0.157-0.523-0.017c-0.077,0.072-0.119,0.172-0.117,0.277v18.3c0,0.204,0.166,0.37,0.37,0.37l0,0l18.33,0
					c0.204,0,0.37-0.166,0.37-0.37c0-0.098-0.039-0.192-0.11-0.26l-4.32-4.32l13.63-23.53L32.86,24.39z"/>
				
					<linearGradient id="path3288-2_1_" gradientUnits="userSpaceOnUse" x1="-1121.7928" y1="-942.6485" x2="-1103.5929" y2="-942.6485" gradientTransform="matrix(1.2162 -1.2162 -1.1384 -1.1384 326.5822 -2405.9482)">
					<stop  offset="0" style="stop-color:#D7E866"/>
					<stop  offset="0.69" style="stop-color:#A4C33A"/>
					<stop  offset="1" style="stop-color:#7A9525;stop-opacity:0"/>
				</linearGradient>
				<path id="path3288-2" style="fill:url(#path3288-2_1_);" d="M46.89,38.37H28.54v-18.3l4.58,4.58L56.2,10.49l-13.89,23.3
					L46.89,38.37z"/>
				
					<radialGradient id="path3288-2-2_1_" cx="-1117.7429" cy="-934.9709" r="13.47" gradientTransform="matrix(1.2162 -1.2162 -1.1384 -1.1384 326.5822 -2405.9482)" gradientUnits="userSpaceOnUse">
					<stop  offset="0" style="stop-color:#B0FF04"/>
					<stop  offset="0.56" style="stop-color:#5AC306"/>
					<stop  offset="0.74" style="stop-color:#13A400"/>
				</radialGradient>
				<path id="path3288-2-2" style="opacity:0.2;fill:url(#path3288-2-2_1_);enable-background:new    ;" d="M46.89,38.37H28.54
					v-18.3l4.58,4.58L56.2,10.49l-13.89,23.3L46.89,38.37z"/>
				
					<linearGradient id="path4200_1_" gradientUnits="userSpaceOnUse" x1="28.6916" y1="27.7384" x2="56.0216" y2="55.0784" gradientTransform="matrix(1 0 0 -1 0 66)">
					<stop  offset="0" style="stop-color:#FFFFFF"/>
					<stop  offset="1" style="stop-color:#FFFFFF;stop-opacity:0"/>
				</linearGradient>
				<path id="path4200" style="opacity:0.6;fill:url(#path4200_1_);enable-background:new    ;" d="M55.93,10.8L32.86,25.48
					l0.31,0.31l22.45-14.67L41.13,33.76l0.31,0.31L55.93,10.8z M29,21v16.9h17l-4.55-4.4l-0.31,0.31l3.7,3.69H29.4V22.12l3.69,3.69
					l0.31-0.31L29,21z"/>
			</g>
			<rect x="24.74" y="49.71" style="fill:#1D272B;" width="14.48" height="4.32"/>
			
				<linearGradient id="SVGID_11_" gradientUnits="userSpaceOnUse" x1="32" y1="60.38" x2="32" y2="15.82" gradientTransform="matrix(1 0 0 -1 0 66)">
				<stop  offset="0" style="stop-color:#455A64"/>
				<stop  offset="1" style="stop-color:#263238"/>
			</linearGradient>
			<path style="fill:url(#SVGID_11_);" d="M3,5.62v44.56h58V5.62H3z M57.3,45.16H6.67v-36H57.3V45.16z"/>
			<path style="fill:#455A64;" d="M48.74,55.83H14.15v1.26c0.053,0.744,0.696,1.306,1.44,1.26h33.15
				c0.744,0.046,1.387-0.516,1.44-1.26v-1.26H48.74z"/>
		</g>
	</g>
</g>
</svg>
