<svg xmlns="http://www.w3.org/2000/svg" xmlns:xlink="http://www.w3.org/1999/xlink" viewBox="0 0 64 64"><defs><style>.cls-1{fill:none;}.cls-2{clip-path:url(#clip-path);}.cls-3{opacity:0.4;}.cls-14,.cls-4{opacity:0.7;}.cls-4{fill:url(#linear-gradient);}.cls-15,.cls-5{opacity:0.8;}.cls-5{fill:url(#linear-gradient-2);}.cls-6{opacity:0.08;}.cls-7{opacity:0.1;}.cls-18,.cls-8{opacity:0.2;}.cls-9{fill:#455a64;}.cls-10{fill:#263238;}.cls-11{fill:url(#linear-gradient-3);}.cls-12{fill:url(#linear-gradient-4);}.cls-13{clip-path:url(#clip-path-2);}.cls-14{fill:url(#linear-gradient-5);}.cls-15{fill:url(#linear-gradient-6);}.cls-16{opacity:0.12;isolation:isolate;fill:url(#linear-gradient-7);}.cls-17{fill:url(#linear-gradient-8);}.cls-18{fill:url(#radial-gradient);}.cls-19{opacity:0.6;fill:url(#linear-gradient-9);}.cls-20{fill:#1d272b;}.cls-21{fill:url(#linear-gradient-10);}</style><clipPath id="clip-path"><rect id="rect3008" class="cls-1" x="-135.83" y="16.99" width="99.65" height="75.13"/></clipPath><linearGradient id="linear-gradient" x1="-67.02" y1="61.42" x2="-7.43" y2="1.83" gradientUnits="userSpaceOnUse"><stop offset="0" stop-color="#00698c"/><stop offset="1" stop-color="#00698c" stop-opacity="0"/></linearGradient><linearGradient id="linear-gradient-2" x1="-91.73" y1="86.12" x2="-32.13" y2="26.53" xlink:href="#linear-gradient"/><linearGradient id="linear-gradient-3" x1="32.16" y1="60.15" x2="32.16" y2="53.17" gradientUnits="userSpaceOnUse"><stop offset="0" stop-color="#455a64"/><stop offset="1" stop-color="#263238"/></linearGradient><linearGradient id="linear-gradient-4" x1="31.98" y1="8.09" x2="31.98" y2="46.27" gradientUnits="userSpaceOnUse"><stop offset="0" stop-color="#b3e5fc"/><stop offset="1" stop-color="#0288d1"/></linearGradient><clipPath id="clip-path-2"><rect id="rect3008-2" data-name="rect3008" class="cls-1" x="6.66" y="8.09" width="50.64" height="38.18"/></clipPath><linearGradient id="linear-gradient-5" x1="41.63" y1="30.67" x2="71.91" y2="0.39" xlink:href="#linear-gradient"/><linearGradient id="linear-gradient-6" x1="29.07" y1="43.22" x2="59.36" y2="12.94" xlink:href="#linear-gradient"/><linearGradient id="linear-gradient-7" x1="-325.95" y1="816.4" x2="-325.95" y2="844.33" gradientTransform="matrix(0.71, 0.71, 0.71, -0.71, -318.31, 846.2)" gradientUnits="userSpaceOnUse"><stop offset="0"/><stop offset="1" stop-opacity="0"/></linearGradient><linearGradient id="linear-gradient-8" x1="-807.57" y1="916.7" x2="-789.37" y2="916.7" gradientTransform="translate(-28.84 -1997.04) rotate(-45) scale(1.72 1.61)" gradientUnits="userSpaceOnUse"><stop offset="0" stop-color="#d7e866"/><stop offset="0.69" stop-color="#a4c33a"/><stop offset="1" stop-color="#7a9525" stop-opacity="0"/></linearGradient><radialGradient id="radial-gradient" cx="-803.52" cy="911.48" r="13.47" gradientTransform="translate(-28.84 -1997.04) rotate(-45) scale(1.72 1.61)" gradientUnits="userSpaceOnUse"><stop offset="0" stop-color="#b0ff04"/><stop offset="0.56" stop-color="#5ac306"/><stop offset="0.74" stop-color="#13a400"/></radialGradient><linearGradient id="linear-gradient-9" x1="28.68" y1="38.25" x2="56.01" y2="10.91" gradientUnits="userSpaceOnUse"><stop offset="0" stop-color="#fff"/><stop offset="1" stop-color="#fff" stop-opacity="0"/></linearGradient><linearGradient id="linear-gradient-10" x1="31.98" y1="5.62" x2="31.98" y2="50.18" xlink:href="#linear-gradient-3"/></defs><title>画板 21</title><g id="控制面板"><g id="显示"><g id="_128" data-name="128"><g class="cls-2"><g class="cls-3"><path class="cls-4" d="M-58.58,46.61a5.2,5.2,0,0,1-5.2-5.21v-74.5h-3.88a5.21,5.21,0,0,0-5.21,5.21v80a5.21,5.21,0,0,0,5.21,5.2H32.21a5.21,5.21,0,0,0,5.21-5.2V46.61Z"/><path class="cls-5" d="M-83.28,71.31a5.2,5.2,0,0,1-5.21-5.2V-8.39h-3.88a5.2,5.2,0,0,0-5.2,5.2v80A5.2,5.2,0,0,0-92.37,82H7.51a5.2,5.2,0,0,0,5.2-5.21V71.31Z"/></g></g></g><g id="_64" data-name="64"><g class="cls-6"><path d="M16.6,61.4a3.39,3.39,0,0,1-3.47-3.29V55.55l5-2.32H2V4.6H64V53.23H48.09l5.13,2.3v2.58a3.39,3.39,0,0,1-3.47,3.29Z"/></g><g class="cls-7"><path d="M16.6,60.38a2.37,2.37,0,0,1-2.45-2.27V56.2l8.55-4H3V5.62H63v46.6H43.34l8.87,4v1.92a2.37,2.37,0,0,1-2.45,2.27Z"/></g><g class="cls-8"><path d="M15.58,59.37a2.37,2.37,0,0,1-2.45-2.27V55.18l8.55-4H2V4.6H62V51.2H42.32l8.87,4v1.92a2.37,2.37,0,0,1-2.45,2.27Z"/></g><path class="cls-9" d="M15.58,58.6a1.61,1.61,0,0,1-1.69-1.51V55.67l8.69-4.05h1.9V50.43H2.77V5.37H61.2V50.43H39.48v1.19h1.91l9,4v1.42a1.61,1.61,0,0,1-1.69,1.51Z"/><path class="cls-10" d="M61,5.62V50.18H39.23v1.69h2.11l8.85,4v1.26a1.36,1.36,0,0,1-1.44,1.26H15.58a1.36,1.36,0,0,1-1.44-1.26V55.83l8.5-4h2.09V50.18H3V5.62H61m.5-.5H2.52V50.68H24.24v.69h-1.7l-.1,0-8.5,4-.29.13v1.58a1.86,1.86,0,0,0,1.94,1.76H48.74a1.86,1.86,0,0,0,1.94-1.76V55.51l-.3-.13-8.85-4-.1,0H39.73v-.69H61.45V5.12Z"/><polygon class="cls-11" points="14.15 55.83 22.65 51.87 41.33 51.87 50.18 55.83 14.15 55.83"/><g id="rect3008-3" data-name="rect3008"><rect class="cls-12" x="6.66" y="8.09" width="50.64" height="38.18"/></g><g class="cls-13"><g class="cls-3"><path class="cls-14" d="M45.92,23.14a2.64,2.64,0,0,1-2.64-2.65V-17.36h-2a2.65,2.65,0,0,0-2.65,2.65V26A2.65,2.65,0,0,0,41.3,28.6H92.06A2.65,2.65,0,0,0,94.7,26V23.14Z"/><path class="cls-15" d="M33.36,35.7a2.65,2.65,0,0,1-2.65-2.64V-4.81h-2A2.64,2.64,0,0,0,26.1-2.16V38.51a2.65,2.65,0,0,0,2.64,2.65H79.5a2.64,2.64,0,0,0,2.64-2.65V35.7Z"/></g></g><g id="layer4"><path id="path4238" class="cls-16" d="M32.86,24.39l-4.32-4.32a.37.37,0,0,0-.64.26l0,18.3a.37.37,0,0,0,.37.37h0L46.6,39a.37.37,0,0,0,.37-.37.36.36,0,0,0-.11-.26l-4.32-4.32L56.17,10.52Z"/><path id="path3288-2" class="cls-17" d="M46.89,38.37l-18.35,0,0-18.3,4.58,4.58L56.2,10.49,42.31,33.79Z"/><path id="path3288-2-2" data-name="path3288-2" class="cls-18" d="M46.89,38.37l-18.35,0,0-18.3,4.58,4.58L56.2,10.49,42.31,33.79Z"/><path id="path4200" class="cls-19" d="M55.93,10.8,32.86,25.48l.31.31L55.62,11.12,41.13,33.76l.31.31ZM29,21l0,16.9,17,0L41.45,33.5l-.31.31,3.7,3.69-15.44,0,0-15.38,3.69,3.69.31-.31Z"/></g><rect class="cls-20" x="24.74" y="49.71" width="14.48" height="4.32"/><path class="cls-21" d="M3,5.62V50.18H61V5.62ZM57.3,45.16H6.67v-36H57.3Z"/><path class="cls-9" d="M48.74,55.83H14.15v1.26a1.36,1.36,0,0,0,1.44,1.26H48.74a1.36,1.36,0,0,0,1.44-1.26V55.83Z"/></g></g></g></svg>