<svg xmlns="http://www.w3.org/2000/svg" xmlns:xlink="http://www.w3.org/1999/xlink" viewBox="0 0 64 64"><defs><style>.cls-1,.cls-2,.cls-3,.cls-4{fill:#231815;}.cls-1{opacity:0.08;}.cls-2{opacity:0.1;}.cls-3{opacity:0.2;}.cls-5{fill:#263238;}.cls-6{fill:#e0e0e0;}.cls-7{fill:#9e9e9e;opacity:0.25;}.cls-7,.cls-9{isolation:isolate;}.cls-8{fill:#455a64;}.cls-9{fill:#fff;opacity:0.45;}.cls-10{fill:url(#linear-gradient);}.cls-11{fill:url(#linear-gradient-2);}.cls-12{fill:#606060;}</style><linearGradient id="linear-gradient" x1="-2164.6" y1="-3462.76" x2="-2164.6" y2="-3460.16" gradientTransform="matrix(1, 0, 0, -1, 2185.95, -3408.31)" gradientUnits="userSpaceOnUse"><stop offset="0" stop-color="#455a64"/><stop offset="0.21" stop-color="#36474f"/><stop offset="1"/></linearGradient><linearGradient id="linear-gradient-2" x1="-2135.48" y1="-3462.76" x2="-2135.48" y2="-3460.16" gradientTransform="matrix(1, 0, 0, -1, 2185.95, -3408.31)" gradientUnits="userSpaceOnUse"><stop offset="0" stop-color="#38a3e7"/><stop offset="1" stop-color="#1976d2"/></linearGradient></defs><title>画板 21</title><g id="开始菜单应用图标"><g id="硬盘"><g id="_64" data-name="64"><polygon class="cls-1" points="2 60.8 2 49.55 2.02 49.38 2.58 45.56 8.75 5.35 55.5 5.2 63.26 45.46 63.98 49.38 64 49.58 64 60.8 2 60.8"/><polygon class="cls-2" points="3 59.81 3 49.61 3.01 49.49 3.57 45.71 9.61 6.34 54.67 6.2 62.28 45.65 62.99 49.51 63 49.64 63 59.81 3 59.81"/><polygon class="cls-3" points="2 58.8 2 48.61 2.01 48.49 2.57 44.71 8.61 5.34 53.67 5.2 61.28 44.65 61.99 48.51 62 48.64 62 58.8 2 58.8"/><path class="cls-4" d="M61,48.6l-.7-3.75L52.93,6.61l-.08-.41h-.41L9.89,6.34H9.47l-.06.42L3.56,44.86,3,48.61v9.19H61V48.6Z"/><g id="g4"><g id="g6"><path id="path10" class="cls-5" d="M3.5,48.69v8.62h57V48.69Z"/><polygon class="cls-6" points="59.8 44.93 52.44 6.7 9.9 6.84 4.05 44.93 59.8 44.93"/><polygon class="cls-7" points="59.8 44.93 52.44 6.7 37.56 6.7 28.8 44.93 59.8 44.93"/><polygon class="cls-8" points="4.05 44.93 3.5 48.69 60.5 48.69 59.8 44.93 4.05 44.93"/><polygon class="cls-9" points="13.37 44.93 15.29 6.83 11.9 6.83 6.14 44.93 13.37 44.93"/></g><g id="g12"><path id="path14" class="cls-10" d="M34.62,54.44H8.07V51.8H34.62Z"/><path id="path16" class="cls-11" d="M48.38,54.44h4.17V51.8H48.38Z"/></g></g><path class="cls-12" d="M52.44,6.7,59.8,44.93l.7,3.75v8.62H3.5V48.69l.56-3.75L9.9,6.84,52.44,6.7m.41-.5h-.41L9.89,6.34H9.47l-.06.42L3.56,44.86,3,48.61v9.19H61V48.6l-.7-3.75L52.93,6.61l-.08-.41Z"/></g></g></g></svg>