<?xml version="1.0" encoding="iso-8859-1"?>
<!-- Generator: Adobe Illustrator 21.0.0, SVG Export Plug-In . SVG Version: 6.00 Build 0)  -->
<svg version="1.1" id="&#x5176;&#x4ED6;" xmlns="http://www.w3.org/2000/svg" xmlns:xlink="http://www.w3.org/1999/xlink" x="0px"
	 y="0px" viewBox="0 0 64 64" style="enable-background:new 0 0 64 64;" xml:space="preserve">
<title>画板 21</title>
<g id="U&#x76D8;">
	<g id="_64">
		<polygon style="opacity:0.2;enable-background:new    ;" points="20.32,62 20.32,48.86 16,48.86 16,2 48,2 48,48.86 43.68,48.86 
			43.68,62 		"/>
		<polygon style="opacity:0.08;enable-background:new    ;" points="20.32,64 20.32,50.86 16,50.86 16,2 50,2 50,50.86 45.68,50.86 
			45.68,64 		"/>
		<polygon style="opacity:0.1;enable-background:new    ;" points="21.32,63 21.32,49.86 17,49.86 17,3 49,3 49,49.86 44.68,49.86 
			44.68,63 		"/>
		<polygon style="fill:#1B5E20;" points="46.33,3 17.67,3 17,3 17,3.67 17,47.2 17,47.86 17.67,47.86 21.32,47.86 21.32,60.33 
			21.32,61 21.99,61 42.01,61 42.68,61 42.68,60.33 42.68,47.86 46.33,47.86 47,47.86 47,47.2 47,3.67 47,3 		"/>
		
			<linearGradient id="SVGID_1_" gradientUnits="userSpaceOnUse" x1="19.3107" y1="18.8096" x2="44.2107" y2="61.5096" gradientTransform="matrix(1 0 0 -1 0 66)">
			<stop  offset="0.24" style="stop-color:#689F38"/>
			<stop  offset="0.94" style="stop-color:#8BC34A"/>
		</linearGradient>
		<rect x="17.5" y="3.41" style="fill:url(#SVGID_1_);" width="29" height="44.04"/>
		<rect x="20.54" y="3.41" style="opacity:0.24;fill:#FFFFFF;enable-background:new    ;" width="8.5" height="44.04"/>
		<path id="path1334" style="fill:#33691E;" d="M24.33,23.48c0.054,0.916,0.66,1.708,1.53,2v2.27c0.043,0.81,0.402,1.571,1,2.12l0,0
			l0,0l0,0l0,0l0,0l0,0l0,0l4.28,3.46c0.209,0.221,0.336,0.507,0.36,0.81v2c-1.238,0.283-2.139,1.352-2.21,2.62
			c0.132,1.652,1.578,2.883,3.23,2.751c0.003,0,0.007-0.001,0.01-0.001c1.634,0.272,3.18-0.832,3.452-2.466
			c0.007-0.041,0.013-0.082,0.018-0.124c-0.071-1.268-0.972-2.337-2.21-2.62v-2l0,0v-3.42c0.024-0.297,0.152-0.577,0.36-0.79
			l2.13-1.73l1.49-1.19l0.49-0.4l0.14-0.11l0,0l0,0l0,0l0,0l0,0l0,0l0,0l0,0c0.595-0.542,0.954-1.296,1-2.1v-2.28H41v-4.41h-5v4.41
			h1.45v2.12c-0.023,0.297-0.151,0.577-0.36,0.79l-3.39,2.74V15.7H36l-3.31-5.18l-3.34,5.18h2.33v15.64l-3.39-2.73
			c-0.208-0.221-0.335-0.507-0.36-0.81v-2.28c0.886-0.279,1.51-1.073,1.57-2c-0.106-1.329-1.26-2.326-2.59-2.24
			C25.596,21.193,24.452,22.169,24.33,23.48z"/>
		<path id="path1334-2" style="fill:#DCEDC8;" d="M23.67,23c0.054,0.916,0.66,1.708,1.53,2v2.27c0.042,0.811,0.401,1.572,1,2.12l0,0
			l0,0l0,0l0,0l0,0l0,0l0,0l4.29,3.46c0.208,0.221,0.335,0.507,0.36,0.81v2c-1.238,0.283-2.139,1.352-2.21,2.62
			c0.027,1.657,1.391,2.978,3.048,2.951c0.104-0.002,0.209-0.009,0.312-0.021c1.651,0.138,3.101-1.089,3.239-2.74
			c0-0.003,0.001-0.007,0.001-0.01c-0.071-1.268-0.972-2.337-2.21-2.62v-2l0,0l0,0v-3.42c0.024-0.297,0.152-0.577,0.36-0.79
			l2.13-1.73l1.49-1.19l0.48-0.4l0.14-0.11l0,0l0,0l0,0l0,0l0,0l0,0l0,0l0,0c0.595-0.542,0.954-1.296,1-2.1v-2.27h1.44v-4.41h-5
			v4.41h1.45v2.11c-0.023,0.297-0.151,0.577-0.36,0.79l-3.39,2.74V15.25h2.24L32,10.07l-3.32,5.18H31v15.64l-3.39-2.73
			c-0.209-0.221-0.336-0.507-0.36-0.81v-2.28c0.886-0.279,1.51-1.073,1.57-2c-0.101-1.333-1.256-2.336-2.59-2.25
			C24.931,20.744,23.802,21.705,23.67,23z"/>
		<rect x="21.75" y="47.86" style="fill:#657B83;" width="20.5" height="12.77"/>
		
			<rect id="rect3765" x="24.49" y="47.86" style="opacity:0.31;fill:#FFFFFF;enable-background:new    ;" width="7.51" height="12.77"/>
		<rect id="rect3767" x="34.5" y="53" style="opacity:0.65;fill:#073642;enable-background:new    ;" width="5" height="4.99"/>
		<rect id="rect3769" x="24.49" y="53" style="opacity:0.65;fill:#073642;enable-background:new    ;" width="5.01" height="4.99"/>
	</g>
</g>
</svg>
