<svg id="其他" xmlns="http://www.w3.org/2000/svg" xmlns:xlink="http://www.w3.org/1999/xlink" viewBox="0 0 64 64"><defs><style>.cls-1{opacity:0.2;}.cls-2{opacity:0.08;}.cls-3{opacity:0.1;}.cls-10,.cls-11,.cls-4,.cls-5,.cls-6,.cls-7,.cls-8,.cls-9{fill-rule:evenodd;}.cls-4{fill:url(#新建渐变色板_1);}.cls-5{fill:url(#linear-gradient);}.cls-6{fill:#221e1f;}.cls-7{fill:#040000;}.cls-8{fill:#bac6d1;}.cls-9{fill:#616161;}.cls-10{fill:url(#linear-gradient-2);}.cls-11{fill:#fff;}.cls-12{fill:#90a4ae;}</style><linearGradient id="新建渐变色板_1" x1="32" y1="3.53" x2="32" y2="109.12" gradientUnits="userSpaceOnUse"><stop offset="0" stop-color="#211d1e"/><stop offset="0.55" stop-color="#58595b"/><stop offset="1" stop-color="#abb6be"/></linearGradient><linearGradient id="linear-gradient" x1="32.57" y1="27.09" x2="32.57" y2="64.04" gradientUnits="userSpaceOnUse"><stop offset="0" stop-color="#fff"/><stop offset="1" stop-color="#cfd8dc"/></linearGradient><linearGradient id="linear-gradient-2" x1="-9.17" y1="17.3" x2="51.57" y2="10.92" gradientUnits="userSpaceOnUse"><stop offset="0" stop-color="#bfd7b1"/><stop offset="0.36" stop-color="#cfd1d2"/><stop offset="1" stop-color="#fff"/></linearGradient></defs><title>画板 21</title><g id="软驱"><path class="cls-1" d="M5.67,62a3.53,3.53,0,0,1-3.53-3.52V5.55A3.53,3.53,0,0,1,5.66,2h4.45l.41.85.12,0H16.1v-.8L17.52,2,48.77,2v0h7.55l5.55,5.39V58.54A3.46,3.46,0,0,1,58.33,62Z"/><path class="cls-2" d="M6.67,64a4.53,4.53,0,0,1-4.53-4.52V6.55A4.53,4.53,0,0,1,6.66,2h5.08l.42.87H16.1V2.18L18.45,2,50.77,2v0h7l6.14,6V59.54A4.45,4.45,0,0,1,59.33,64Z"/><path class="cls-3" d="M6.67,63a3.53,3.53,0,0,1-3.53-3.52V6.55A3.53,3.53,0,0,1,6.66,3h4.45l.41.85.12,0H17.1v-.8L18.52,3,49.77,3v0h7.55l5.55,5.39V59.54A3.46,3.46,0,0,1,59.33,63Z"/><path d="M5.67,61a2.53,2.53,0,0,1-2.53-2.52V5.55A2.53,2.53,0,0,1,5.66,3H9.49l.14.28a1.05,1.05,0,0,0,.64.53,1.78,1.78,0,0,0,.33.05h6.5V3l.5,0L47.77,3v.9a1.17,1.17,0,0,0,.39-.13l.12-.07.11-.09.11-.12a1.27,1.27,0,0,0,.13-.18l.14-.28h7.15l5,4.82V58.54A2.47,2.47,0,0,1,58.33,61Z"/><path class="cls-4" d="M60.36,58.54a2,2,0,0,1-2,2H5.67a2,2,0,0,1-2-2V5.55a2,2,0,0,1,2-2h3.5a1.58,1.58,0,0,0,1.42.87l37,0a1.58,1.58,0,0,0,1.42-.86h6.64l4.66,4.52Z"/><path class="cls-5" d="M12.16,27.88H53A2.08,2.08,0,0,1,55,29.94V60.5h-45V29.94A2.07,2.07,0,0,1,12.16,27.88Z"/><path class="cls-6" d="M11.27,24a1.5,1.5,0,0,1-1.5-1.49V4.18a1.61,1.61,0,0,0,.65.21V22.47A1.5,1.5,0,0,0,11.93,24Z"/><path class="cls-7" d="M11.77,27.67H52.71a2.14,2.14,0,0,1,1.3.5,2.11,2.11,0,0,0-.65-.15H12.42a2.08,2.08,0,0,0-2.08,2.07V60.5H9.69V29.73A2.08,2.08,0,0,1,11.77,27.67Z"/><path class="cls-8" d="M53.85,28.06a2.07,2.07,0,0,1,1.69,2V54.42h0v2.24h0V60.5h-.74V29.79A2.06,2.06,0,0,0,53.85,28.06Z"/><path class="cls-9" d="M48.94,3.79,48.86,22.6a1.5,1.5,0,0,1-1.5,1.49L12,24a1.5,1.5,0,0,1-1.33-.81,5.15,5.15,0,0,0,1.31.44l34.71,0a1.47,1.47,0,0,0,1.47-1.46l.08-17.92a1.55,1.55,0,0,0,.7-.55Zm-1.5.65-22.37,0h0Z"/><path class="cls-6" d="M17.65,3.54H47.27V20.73a2.1,2.1,0,0,1-2.1,2.09l-25.41,0a2.11,2.11,0,0,1-2.1-2.1V3.54ZM36.78,5.59A1.41,1.41,0,0,0,35.37,7V20.57A1.41,1.41,0,0,0,36.78,22h5.75a1.41,1.41,0,0,0,1.41-1.41V7a1.42,1.42,0,0,0-1.41-1.41Z"/><path class="cls-10" d="M17.6,3.5l29.62,0V20.49a2.11,2.11,0,0,1-2.11,2.09l-25.41,0a2.11,2.11,0,0,1-2.1-2.1V3.5ZM36.73,5.34a1.42,1.42,0,0,0-1.42,1.4V20.33a1.42,1.42,0,0,0,1.42,1.41h5.74a1.41,1.41,0,0,0,1.41-1.4V6.76a1.42,1.42,0,0,0-1.41-1.41Z"/><path class="cls-11" d="M17.6,3.54H47.22v.25l-29.41,0V20.69a2.06,2.06,0,0,0,.42,1.25,2.07,2.07,0,0,1-.64-1.5V3.54ZM43.64,6a1.4,1.4,0,0,1,.25.8V20.34a1.41,1.41,0,0,1-1.41,1.4H36.74a1.41,1.41,0,0,1-1-.37,1.42,1.42,0,0,0,1.16.61h5.74a1.42,1.42,0,0,0,1.42-1.41V7A1.42,1.42,0,0,0,43.64,6Z"/><rect class="cls-12" x="18.15" y="36.77" width="28.58" height="1.41"/><rect class="cls-12" x="18.15" y="48.74" width="28.58" height="1.41"/></g></svg>