<svg id="其他" xmlns="http://www.w3.org/2000/svg" xmlns:xlink="http://www.w3.org/1999/xlink" viewBox="0 0 64 64"><defs><style>.cls-1{fill:none;}.cls-2{opacity:0.2;}.cls-3{opacity:0.08;}.cls-4{opacity:0.1;}.cls-5{fill:#01579b;}.cls-6{fill:#0288d1;}.cls-7{fill:url(#radial-gradient);}.cls-8{opacity:0.7;}.cls-10,.cls-8{isolation:isolate;}.cls-9{fill:#fff;}.cls-10{fill:#f5f5f5;}.cls-11{stroke:#263238;stroke-miterlimit:10;stroke-width:0.5px;fill:url(#radial-gradient-2);}.cls-12{clip-path:url(#clip-path);}.cls-13{fill:url(#radial-gradient-3);}.cls-14{fill:url(#radial-gradient-4);}</style><radialGradient id="radial-gradient" cx="34.13" cy="32.55" r="23" gradientTransform="translate(-1.49 1.23) scale(0.98)" gradientUnits="userSpaceOnUse"><stop offset="0" stop-color="#4dd0e1"/><stop offset="0.39" stop-color="#40bee7"/><stop offset="0.61" stop-color="#3fbde7"/><stop offset="0.66" stop-color="#44c4e8"/><stop offset="0.75" stop-color="#2cbee8"/><stop offset="1" stop-color="#2196f3"/></radialGradient><radialGradient id="radial-gradient-2" cx="46.58" cy="20.32" r="16.61" gradientUnits="userSpaceOnUse"><stop offset="0" stop-color="#607d8b"/><stop offset="0.35" stop-color="#607d8b"/><stop offset="0.6" stop-color="#607d8b"/><stop offset="1" stop-color="#455a64"/></radialGradient><clipPath id="clip-path"><path class="cls-1" d="M39.48,7.07h0V32.82a6.2,6.2,0,0,0-1.54-.18c-2.49,0-4.52,1.48-4.52,3.29s2,3.29,4.52,3.29,4.52-1.48,4.52-3.29h0V18.64l17-3.51v13A6.21,6.21,0,0,0,58,27.93c-2.49,0-4.52,1.48-4.52,3.29s2,3.29,4.52,3.29S62.5,33,62.5,31.22h0V2.33Zm20,5.17-17,3.51V10.48L59.48,7Z"/></clipPath><radialGradient id="radial-gradient-3" cx="-142.37" cy="83.61" r="3.9" gradientTransform="translate(222.75 -55.32) scale(1.3 1.08)" gradientUnits="userSpaceOnUse"><stop offset="0.37" stop-color="#5f7b8a"/><stop offset="1" stop-color="#455a64" stop-opacity="0"/></radialGradient><radialGradient id="radial-gradient-4" cx="-127.58" cy="80.01" r="3.9" gradientTransform="translate(222.75 -56) scale(1.3 1.08)" xlink:href="#radial-gradient-3"/></defs><title>画板 21</title><g id="光盘-音乐"><path class="cls-2" d="M32,61.77A28.55,28.55,0,1,1,60.6,33.22,28.58,28.58,0,0,1,32,61.77ZM32,31a2.2,2.2,0,1,0,2.2,2.2A2.2,2.2,0,0,0,32,31Z"/><path class="cls-3" d="M33,63.67a29.5,29.5,0,1,1,29.5-29.5A29.53,29.53,0,0,1,33,63.67Zm0-30.75a1.24,1.24,0,1,0,1.25,1.25A1.25,1.25,0,0,0,33,32.93Z"/><path class="cls-4" d="M33,62.72A28.55,28.55,0,1,1,61.55,34.17,28.58,28.58,0,0,1,33,62.72ZM33,32a2.2,2.2,0,1,0,2.2,2.2A2.2,2.2,0,0,0,33,32Z"/><path class="cls-5" d="M32,60.82a27.6,27.6,0,1,1,27.6-27.6A27.63,27.63,0,0,1,32,60.82Zm0-30.75a3.15,3.15,0,1,0,3.15,3.15A3.15,3.15,0,0,0,32,30.07Z"/><path class="cls-6" d="M32,6.1A27.12,27.12,0,1,0,59.17,33.22,27.12,27.12,0,0,0,32,6.1Zm0,53.45A26.33,26.33,0,1,1,58.38,33.22,26.36,26.36,0,0,1,32,59.55Z"/><path class="cls-7" d="M32,10.62a22.6,22.6,0,1,0,22.6,22.6A22.63,22.63,0,0,0,32,10.62Zm0,30.51A7.91,7.91,0,1,1,40,33.22,7.92,7.92,0,0,1,32,41.13Z"/><g class="cls-8"><path class="cls-9" d="M39.94,33.74l13.87.92.79,0a22.72,22.72,0,0,0-1.45-9.45L39.43,30.4A8,8,0,0,1,39.94,33.74Z"/><path class="cls-9" d="M24.16,32.7l-13.87-.92-.79,0a22.72,22.72,0,0,0,1.45,9.45L24.66,36A8,8,0,0,1,24.16,32.7Z"/></g><g class="cls-8"><path class="cls-9" d="M38.88,29.24l12-7,.64-.47a22.73,22.73,0,0,0-6.49-7l-8.45,12A8,8,0,0,1,38.88,29.24Z"/><path class="cls-9" d="M25.22,37.2l-12,7-.64.47a22.72,22.72,0,0,0,6.49,7l8.45-12A8,8,0,0,1,25.22,37.2Z"/></g><path class="cls-10" d="M32,6.89A26.33,26.33,0,1,0,58.38,33.22,26.36,26.36,0,0,0,32,6.89Zm0,48.93a22.6,22.6,0,1,1,22.6-22.6A22.63,22.63,0,0,1,32,55.82Z"/><path class="cls-6" d="M32,25.31A7.91,7.91,0,1,0,40,33.22,7.92,7.92,0,0,0,32,25.31Zm0,15a7.09,7.09,0,1,1,7.09-7.09A7.1,7.1,0,0,1,32,40.31Z"/><path class="cls-10" d="M32,26.13a7.09,7.09,0,1,0,7.09,7.09A7.1,7.1,0,0,0,32,26.13Zm0,10.72a3.62,3.62,0,1,1,3.62-3.62A3.63,3.63,0,0,1,32,36.84Z"/><path class="cls-11" d="M39.48,7.07h0V32.82a6.2,6.2,0,0,0-1.54-.18c-2.49,0-4.52,1.48-4.52,3.29s2,3.29,4.52,3.29,4.52-1.48,4.52-3.29h0V18.64l17-3.51v13A6.21,6.21,0,0,0,58,27.93c-2.49,0-4.52,1.48-4.52,3.29s2,3.29,4.52,3.29S62.5,33,62.5,31.22h0V2.33Zm20,5.17-17,3.51V10.48L59.48,7Z"/><g class="cls-12"><ellipse class="cls-13" cx="37.67" cy="34.78" rx="4.2" ry="3.41"/><ellipse class="cls-14" cx="56.94" cy="30.22" rx="4.2" ry="3.41"/></g></g></svg>