<?xml version="1.0" encoding="utf-8"?>
<!-- Generator: Adobe Illustrator 21.0.0, SVG Export Plug-In . SVG Version: 6.00 Build 0)  -->
<svg version="1.1" id="图层_170" xmlns="http://www.w3.org/2000/svg" xmlns:xlink="http://www.w3.org/1999/xlink" x="0px" y="0px"
	 viewBox="0 0 64 64" style="enable-background:new 0 0 64 64;" xml:space="preserve">
<style type="text/css">
	.st0{fill:#808080;}
</style>
<title>64</title>
<g id="_64">
	<g id="_16">
		<path class="st0" d="M32,5.3c0.3,0.3,0.8,0.6,1.2,0.9c2.7,2.3,5.6,4.2,8.7,5.8c4.1,2,8.5,3.3,13,4c0.3,5.6,0.3,11.2-0.1,16.7
			C53.3,45.5,38.1,59,31.9,59c-2.5,0-7.8-2.8-13-8.2c-5.5-5.7-9-12.3-9.6-18.1c-0.4-5.6-0.4-11.3-0.1-16.9c4.4-0.9,8.7-2.2,12.9-3.8
			c3.2-1.5,6.1-3.5,8.7-5.8C31.2,5.9,31.6,5.6,32,5.3 M32,3c-1,0-5.2,4.9-10.7,7.3c-4.4,1.9-14,4-14,4S6.6,26.2,7.3,33
			c1.5,14,17.5,28,24.6,28s23.3-14,24.7-28.1c0.4-6.3,0.4-12.6,0-18.9c0,0.1,0,0.1,0,0.2c-4.8-0.6-9.5-1.9-13.9-4
			C36.9,7.4,32.9,3,32,3L32,3z"/>
	</g>
</g>
</svg>
