<?xml version="1.0" encoding="iso-8859-1"?>
<!-- Generator: Adobe Illustrator 17.1.0, SVG Export Plug-In . SVG Version: 6.00 Build 0)  -->
<!DOCTYPE svg PUBLIC "-//W3C//DTD SVG 1.1//EN" "http://www.w3.org/Graphics/SVG/1.1/DTD/svg11.dtd">
<svg version="1.1"
	 id="svg2" inkscape:export-filename="/media/Data/Main/Visuals/Icons/Numix/Desktop/repos/numix-wiki/Gjorgi/Numix-folders/48/New/folder-144.png" xmlns:svg="http://www.w3.org/2000/svg" xmlns:sodipodi="http://sodipodi.sourceforge.net/DTD/sodipodi-0.dtd" xmlns:inkscape="http://www.inkscape.org/namespaces/inkscape" xmlns:dc="http://purl.org/dc/elements/1.1/" xmlns:cc="http://creativecommons.org/ns#" xmlns:rdf="http://www.w3.org/1999/02/22-rdf-syntax-ns#" inkscape:version="0.48.4 r9939" sodipodi:docname="user-home.svg" inkscape:export-xdpi="270" inkscape:export-ydpi="270"
	 xmlns="http://www.w3.org/2000/svg" xmlns:xlink="http://www.w3.org/1999/xlink" x="0px" y="0px" width="64px" height="64px"
	 viewBox="0 0 64 64" style="enable-background:new 0 0 64 64;" xml:space="preserve">
<polygon style="opacity:0.08;enable-background:new    ;" points="2,60.2 2,17.2 5.8,17.2 5.8,5.8 21.667,5.8 25.442,9.6 60.2,9.6 
	60.2,17.2 64,17.2 64,60.2 "/>
<polygon style="opacity:0.1;enable-background:new    ;" points="3,59.2 3,18.2 6.8,18.2 6.8,6.8 21.25,6.8 25.027,10.6 59.2,10.6 
	59.2,18.2 63,18.2 63,59.2 "/>
<polygon style="opacity:0.2;enable-background:new    ;" points="2,58.2 2,17.2 5.8,17.2 5.8,5.8 20.25,5.8 24.027,9.6 58.2,9.6 
	58.2,17.2 62,17.2 62,58.2 "/>
<polygon style="fill:#F57F17;" points="3,57.2 3,18.2 6.8,18.2 6.8,6.8 19.834,6.8 23.611,10.6 57.2,10.6 57.2,18.2 61,18.2 
	61,57.2 "/>
<sodipodi:namedview  id="base" inkscape:window-maximized="1" borderopacity="1.0" pagecolor="#ffffff" showguides="true" inkscape:cy="21.321632" inkscape:cx="35.66124" showgrid="true" bordercolor="#666666" inkscape:zoom="5.6530318" inkscape:document-units="px" inkscape:window-width="1920" inkscape:window-x="0" inkscape:window-y="28" inkscape:guide-bbox="true" inkscape:current-layer="layer1" inkscape:window-height="1023" inkscape:pageopacity="0.0" inkscape:pageshadow="2">
	<inkscape:grid  type="xygrid" enabled="true" visible="true" id="grid2985" snapvisiblegridlinesonly="true" empspacing="5">
		</inkscape:grid>
</sodipodi:namedview>
<g>
	
		<linearGradient id="SVGID_1_" gradientUnits="userSpaceOnUse" x1="32" y1="-81.5523" x2="32" y2="-67.3" gradientTransform="matrix(1 0 0 -1 0 -60)">
		<stop  offset="0" style="stop-color:#F57C00"/>
		<stop  offset="0.1638" style="stop-color:#F58F09"/>
		<stop  offset="0.3598" style="stop-color:#F59D11"/>
		<stop  offset="0.5982" style="stop-color:#F5A515"/>
		<stop  offset="0.9946" style="stop-color:#F5A816"/>
	</linearGradient>
	<path style="fill:url(#SVGID_1_);" d="M56.7,11.1H23.403l-3.776-3.8H7.3v3.8v3.8v4.75c0,1.045,0.903,1.9,1.9,1.9h45.6
		c0.998,0,1.9,0.095,1.9-0.95C56.7,18.723,56.7,11.1,56.7,11.1z"/>
	
		<linearGradient id="rect2990_1_" gradientUnits="userSpaceOnUse" x1="32" y1="-78.7" x2="32" y2="-116.7" gradientTransform="matrix(1 0 0 -1 0 -60)">
		<stop  offset="0" style="stop-color:#FADD60"/>
		<stop  offset="0.9946" style="stop-color:#F5A816"/>
	</linearGradient>
	<polyline id="rect2990_2_" style="fill:url(#rect2990_1_);" points="60.5,18.7 60.5,56.7 3.5,56.7 3.5,18.7 	"/>
	<path id="rect3004_1_" inkscape:connector-curvature="0" style="opacity:0.25;fill:#FDEFBA;enable-background:new    ;" d="
		M3.5,18.7v7.292c0-2.518,1.686-4.56,3.8-4.56h49.4c2.114,0,3.8,2.042,3.8,4.56V18.7H3.5z"/>
	<path id="path3801_1_" inkscape:connector-curvature="0" style="opacity:0.1;fill:#E65100;enable-background:new    ;" d="M7.3,7.3
		c0,0,0,0.95,0,2.85v1.9c0-1.9,0.855-2.85,1.734-2.85h9.856c0.665,0,1.544,0.024,3.087,0.926c0.427,0.261,0.903,0.57,1.425,0.974
		l-3.776-3.8C19.626,7.3,7.3,7.3,7.3,7.3z"/>
	<polygon style="opacity:0.1;fill:#E65100;enable-background:new    ;" points="23.403,11.1 56.7,11.1 56.7,13.95 26.253,13.95 	"/>
	<rect x="7.3" y="17.014" style="opacity:0.05;fill:#E65100;enable-background:new    ;" width="49.4" height="1.686"/>
</g>
<g>
	<g>
		<g>
			<g>
				<path style="opacity:0.39;fill:#F57F17;enable-background:new    ;" d="M28.628,45.038c-1.924-1.425-3.159-3.705-3.159-6.294
					c0-2.636,1.306-4.94,3.278-6.365l-2.161-3.658c-2.399,1.615-4.204,4.061-4.94,6.935c0.95,0.665,1.567,1.758,1.567,2.993
					c0,1.259-0.642,2.352-1.591,3.016c0.736,2.921,2.541,5.415,4.963,7.054L28.628,45.038z"/>
			</g>
			<g>
				<path style="opacity:0.39;fill:#F57F17;enable-background:new    ;" d="M30.1,31.62c0.974-0.427,2.043-0.665,3.183-0.665
					c4.037,0,7.339,3.04,7.766,6.958l4.251-0.048c-0.214-2.969-1.52-5.652-3.515-7.624c-0.499,0.238-1.045,0.38-1.615,0.38
					c-1.947,0-3.539-1.52-3.634-3.443c-1.021-0.285-2.114-0.451-3.23-0.451c-1.924,0-3.729,0.451-5.344,1.259L30.1,31.62z"/>
			</g>
			<g>
				<path style="opacity:0.39;fill:#F57F17;enable-background:new    ;" d="M40.194,46.701c0.618,0,1.211,0.166,1.734,0.427
					c1.972-2.019,3.207-4.727,3.373-7.719l-4.251,0.048c-0.356,3.99-3.705,7.101-7.79,7.101c-1.188,0-2.303-0.261-3.302-0.736
					l-2.066,3.705c1.615,0.808,3.444,1.259,5.368,1.259c1.14,0,2.232-0.167,3.278-0.451C36.56,48.34,38.175,46.701,40.194,46.701z"
					/>
			</g>
		</g>
		<g>
			<circle style="opacity:0.39;fill:#F57F17;enable-background:new    ;" cx="40.194" cy="50.359" r="2.731"/>
		</g>
		<g>
			<circle style="opacity:0.39;fill:#F57F17;enable-background:new    ;" cx="40.146" cy="26.941" r="2.732"/>
		</g>
		<g>
			<circle style="opacity:0.39;fill:#F57F17;enable-background:new    ;" cx="19.531" cy="38.674" r="2.731"/>
		</g>
	</g>
</g>
</svg>
