<?xml version="1.0" encoding="iso-8859-1"?>
<!-- Generator: Adobe Illustrator 17.1.0, SVG Export Plug-In . SVG Version: 6.00 Build 0)  -->
<!DOCTYPE svg PUBLIC "-//W3C//DTD SVG 1.1//EN" "http://www.w3.org/Graphics/SVG/1.1/DTD/svg11.dtd">
<svg version="1.1"
	 id="svg2" inkscape:export-filename="/media/Data/Main/Visuals/Icons/Numix/Desktop/repos/numix-wiki/Gjorgi/Numix-folders/48/New/folder-144.png" xmlns:svg="http://www.w3.org/2000/svg" xmlns:sodipodi="http://sodipodi.sourceforge.net/DTD/sodipodi-0.dtd" xmlns:inkscape="http://www.inkscape.org/namespaces/inkscape" xmlns:dc="http://purl.org/dc/elements/1.1/" xmlns:cc="http://creativecommons.org/ns#" xmlns:rdf="http://www.w3.org/1999/02/22-rdf-syntax-ns#" inkscape:version="0.48.4 r9939" sodipodi:docname="user-home.svg" inkscape:export-xdpi="270" inkscape:export-ydpi="270"
	 xmlns="http://www.w3.org/2000/svg" xmlns:xlink="http://www.w3.org/1999/xlink" x="0px" y="0px" width="64px" height="64px"
	 viewBox="0 0 64 64" style="enable-background:new 0 0 64 64;" xml:space="preserve">
<polygon style="opacity:0.08;enable-background:new    ;" points="2,60.2 2,17.2 5.8,17.2 5.8,5.8 21.667,5.8 25.442,9.6 60.2,9.6 
	60.2,17.2 64,17.2 64,60.2 "/>
<polygon style="opacity:0.1;enable-background:new    ;" points="3,59.2 3,18.2 6.8,18.2 6.8,6.8 21.25,6.8 25.027,10.6 59.2,10.6 
	59.2,18.2 63,18.2 63,59.2 "/>
<polygon style="opacity:0.2;enable-background:new    ;" points="2,58.2 2,17.2 5.8,17.2 5.8,5.8 20.25,5.8 24.027,9.6 58.2,9.6 
	58.2,17.2 62,17.2 62,58.2 "/>
<polygon style="fill:#F57F17;" points="3,57.2 3,18.2 6.8,18.2 6.8,6.8 19.834,6.8 23.611,10.6 57.2,10.6 57.2,18.2 61,18.2 
	61,57.2 "/>
<sodipodi:namedview  id="base" inkscape:window-maximized="1" borderopacity="1.0" pagecolor="#ffffff" showguides="true" inkscape:cy="21.321632" inkscape:cx="35.66124" showgrid="true" bordercolor="#666666" inkscape:zoom="5.6530318" inkscape:document-units="px" inkscape:window-width="1920" inkscape:window-x="0" inkscape:window-y="28" inkscape:guide-bbox="true" inkscape:current-layer="layer1" inkscape:window-height="1023" inkscape:pageopacity="0.0" inkscape:pageshadow="2">
	<inkscape:grid  type="xygrid" enabled="true" visible="true" id="grid2985" snapvisiblegridlinesonly="true" empspacing="5">
		</inkscape:grid>
</sodipodi:namedview>
<g>
	
		<linearGradient id="SVGID_1_" gradientUnits="userSpaceOnUse" x1="32" y1="-81.5523" x2="32" y2="-67.3" gradientTransform="matrix(1 0 0 -1 0 -60)">
		<stop  offset="0" style="stop-color:#F57C00"/>
		<stop  offset="0.1638" style="stop-color:#F58F09"/>
		<stop  offset="0.3598" style="stop-color:#F59D11"/>
		<stop  offset="0.5982" style="stop-color:#F5A515"/>
		<stop  offset="0.9946" style="stop-color:#F5A816"/>
	</linearGradient>
	<path style="fill:url(#SVGID_1_);" d="M56.7,11.1H23.403l-3.776-3.8H7.3v3.8v3.8v4.75c0,1.045,0.903,1.9,1.9,1.9h45.6
		c0.998,0,1.9,0.095,1.9-0.95C56.7,18.723,56.7,11.1,56.7,11.1z"/>
	
		<linearGradient id="rect2990_1_" gradientUnits="userSpaceOnUse" x1="32" y1="-78.7" x2="32" y2="-116.7" gradientTransform="matrix(1 0 0 -1 0 -60)">
		<stop  offset="0" style="stop-color:#FADD60"/>
		<stop  offset="0.9946" style="stop-color:#F5A816"/>
	</linearGradient>
	<polyline id="rect2990_2_" style="fill:url(#rect2990_1_);" points="60.5,18.7 60.5,56.7 3.5,56.7 3.5,18.7 	"/>
	<path id="rect3004_1_" inkscape:connector-curvature="0" style="opacity:0.25;fill:#FDEFBA;enable-background:new    ;" d="
		M3.5,18.7v7.292c0-2.518,1.686-4.56,3.8-4.56h49.4c2.114,0,3.8,2.042,3.8,4.56V18.7H3.5z"/>
	<path id="path3801_1_" inkscape:connector-curvature="0" style="opacity:0.1;fill:#E65100;enable-background:new    ;" d="M7.3,7.3
		c0,0,0,0.95,0,2.85v1.9c0-1.9,0.855-2.85,1.734-2.85h9.856c0.665,0,1.544,0.024,3.087,0.926c0.427,0.261,0.903,0.57,1.425,0.974
		l-3.776-3.8C19.626,7.3,7.3,7.3,7.3,7.3z"/>
	<polygon style="opacity:0.1;fill:#E65100;enable-background:new    ;" points="23.403,11.1 56.7,11.1 56.7,13.95 26.253,13.95 	"/>
	<rect x="7.3" y="17.014" style="opacity:0.05;fill:#E65100;enable-background:new    ;" width="49.4" height="1.686"/>
</g>
<path id="_x3C_&#x590D;&#x5408;&#x8DEF;&#x5F84;_x3E_" inkscape:connector-curvature="0" style="fill:#F57F17;fill-opacity:0.39;" d="
	M28.532,25.137c-1.52,0.023-3.325,0.403-5.558,1.33l-2.969,10.142c2.375-0.974,4.275-1.425,5.843-1.401
	c2.399,0.023,4.061,0.997,5.628,2.042l2.945-10.117C32.807,26.038,31.073,25.113,28.532,25.137z M35.99,28.2l-2.945,10.165
	c2.589,1.733,5.723,3.159,11.447,0.617l2.945-10.117C41.452,31.335,38.579,29.934,35.99,28.2z M25.088,37.154
	c-1.52,0.048-3.325,0.427-5.558,1.354h-0.048l-2.921,10.07c5.985-2.47,8.811-1.021,11.424,0.713l2.993-10.213
	C29.364,37.985,27.63,37.083,25.088,37.154z M32.546,40.075l-2.945,10.07c2.589,1.733,5.439,3.135,11.447,0.688L43.898,41
	C37.795,43.068,35.135,41.809,32.546,40.075z"/>
</svg>
