<?xml version="1.0" encoding="utf-8"?>
<!-- Generator: Adobe Illustrator 21.0.0, SVG Export Plug-In . SVG Version: 6.00 Build 0)  -->
<svg version="1.1" id="图层_39" xmlns="http://www.w3.org/2000/svg" xmlns:xlink="http://www.w3.org/1999/xlink" x="0px" y="0px"
	 viewBox="0 0 64 64" style="enable-background:new 0 0 64 64;" xml:space="preserve">
<style type="text/css">
	.st0{opacity:0.39;fill:#F57F17;enable-background:new    ;}
	.st1{opacity:0.1;enable-background:new    ;}
	.st2{opacity:0.08;enable-background:new    ;}
	.st3{opacity:0.2;enable-background:new    ;}
	.st4{fill:#F57F17;}
	.st5{fill:url(#SVGID_1_);}
	.st6{fill:url(#rect2990_1_);}
	.st7{opacity:0.25;fill:#FDEFBA;enable-background:new    ;}
	.st8{opacity:0.1;fill:#E65100;enable-background:new    ;}
	.st9{opacity:0.05;fill:#E65100;enable-background:new    ;}
</style>
<symbol  id="新建符号" viewBox="-120 -121.6 240 243.2">
	<path class="st0" d="M-20.4,53.8C-49.6,32-55.7-9.3-33.9-38.6c4.1-5.5,9-10.3,14.5-14.2l-18.2-30.8c-20.5,13.7-35.3,34.5-41.6,58.4
		C-70.9-19.5-66-10.1-66,0s-5,19.6-13.4,25.4c6.2,24.3,21.1,45.4,41.8,59.4L-20.4,53.8z"/>
	<path class="st0" d="M-8-59.2c33.4-14.7,72.3,0.4,87,33.8c2.7,6.1,4.4,12.6,5.2,19.2L120-6.6c-1.8-24.3-12.3-47.1-29.6-64.2
		c-4.2,2.1-8.9,3.2-13.6,3.2c-16.3,0-29.8-12.7-30.6-29c-8.9-2.5-18-3.8-27.2-3.8c-15.6,0-31,3.6-45,10.6L-8-59.2z"/>
	<path class="st0" d="M77,67.8c5.1,0.1,10.1,1.3,14.6,3.6c17-17.5,27.1-40.6,28.4-65L84.2,6.8c-3.1,33.9-31.5,59.9-65.6,59.8
		c-9.6,0-19.1-2.1-27.8-6.2l-17.4,31.2c14,7,29.5,10.6,45.2,10.6c9.3,0,18.6-1.3,27.6-3.8C46.4,81.5,60.1,67.9,77,67.8z"/>
	<path class="st0" d="M77,75.6c12.7,0,23,10.3,23,23s-10.3,23-23,23s-23-10.3-23-23S64.3,75.6,77,75.6L77,75.6z"/>
	<path class="st0" d="M76.6-121.6c12.7,0,23,10.3,23,23s-10.3,23-23,23s-23-10.3-23-23S63.9-121.6,76.6-121.6z"/>
	<path class="st0" d="M-97-22.8c12.7,0,23,10.3,23,23s-10.3,23-23,23s-23-10.3-23-23S-109.7-22.8-97-22.8z"/>
</symbol>
<title>064folder-ubuntu</title>
<g id="_64">
	<polygon class="st1" points="3,59 3,18 6.5,18 6.5,6.5 21.5,6.5 25.5,10.5 59.5,10.5 59.5,18 63,18 63,59 	"/>
	<polygon class="st2" points="2,60 2,17 5.5,17 5.5,6 22.5,6 26,9.5 60.5,9.5 60.5,17 64,17 64,60 	"/>
	<polygon class="st3" points="2,58 2,17 5.5,17 5.5,6 21,6 24.5,9.5 58.5,9.5 58.5,17 62,17 62,58 	"/>
	<polygon class="st4" points="3,57 3,18 6.5,18 6.5,7 20.5,7 24,10.5 57.5,10.5 57.5,18 61,18 61,57 	"/>
	
		<linearGradient id="SVGID_1_" gradientUnits="userSpaceOnUse" x1="-1013.5" y1="-608.18" x2="-1013.5" y2="-601.25" gradientTransform="matrix(2 0 0 -2 2059 -1195)">
		<stop  offset="0" style="stop-color:#F57C00"/>
		<stop  offset="0.16" style="stop-color:#F58F09"/>
		<stop  offset="0.36" style="stop-color:#F59D11"/>
		<stop  offset="0.6" style="stop-color:#F5A515"/>
		<stop  offset="0.99" style="stop-color:#F5A816"/>
	</linearGradient>
	<path class="st5" d="M57,11H23.5L20,7.5H7v12c0,1.1,0.9,1.9,1.9,1.9l0,0h46.2c1,0,1.9,0.1,1.9-0.9V11z"/>
	
		<linearGradient id="rect2990_1_" gradientUnits="userSpaceOnUse" x1="-1013.5" y1="-606.75" x2="-1013.5" y2="-625.75" gradientTransform="matrix(2 0 0 -2 2059 -1195)">
		<stop  offset="0" style="stop-color:#FADD60"/>
		<stop  offset="0.99" style="stop-color:#F5A816"/>
	</linearGradient>
	<polyline id="rect2990" class="st6" points="60.5,18.5 60.5,56.5 3.5,56.5 3.5,18.5 	"/>
	<path id="rect3004" class="st7" d="M3.5,18.5v8c0-2.7,1.7-5,3.8-5h49.4c2.1,0,3.8,2.3,3.8,5v-8H3.5z"/>
	<path id="path3801" class="st8" d="M7,7.7V11c0-1.7,1.1-1.7,2.1-1.7h10.3c0.9-0.1,1.9,0.2,2.6,0.7c0.5,0.3,0.9,0.7,1.5,1L20,7.5H7
		V7.7z"/>
	<polygon class="st8" points="23.5,11 57,11 57,14 26.5,14 	"/>
	<rect x="7" y="16.5" class="st9" width="50" height="2"/>
</g>
<use xlink:href="#新建符号"  width="240" height="243.2" x="-120" y="-121.6" transform="matrix(0.12 0 0 0.12 32.4 39.592)" style="overflow:visible;"/>
</svg>
