<?xml version="1.0" encoding="iso-8859-1"?>
<!-- Generator: Adobe Illustrator 17.1.0, SVG Export Plug-In . SVG Version: 6.00 Build 0)  -->
<!DOCTYPE svg PUBLIC "-//W3C//DTD SVG 1.1//EN" "http://www.w3.org/Graphics/SVG/1.1/DTD/svg11.dtd">
<svg version="1.1"
	 id="svg2" inkscape:export-filename="/media/Data/Main/Visuals/Icons/Numix/Desktop/repos/numix-wiki/Gjorgi/Numix-folders/48/New/folder-144.png" xmlns:svg="http://www.w3.org/2000/svg" xmlns:sodipodi="http://sodipodi.sourceforge.net/DTD/sodipodi-0.dtd" xmlns:inkscape="http://www.inkscape.org/namespaces/inkscape" xmlns:dc="http://purl.org/dc/elements/1.1/" xmlns:cc="http://creativecommons.org/ns#" xmlns:rdf="http://www.w3.org/1999/02/22-rdf-syntax-ns#" inkscape:version="0.48.4 r9939" sodipodi:docname="user-home.svg" inkscape:export-xdpi="270" inkscape:export-ydpi="270"
	 xmlns="http://www.w3.org/2000/svg" xmlns:xlink="http://www.w3.org/1999/xlink" x="0px" y="0px" width="64px" height="64px"
	 viewBox="0 0 64 64" style="enable-background:new 0 0 64 64;" xml:space="preserve">
<sodipodi:namedview  id="base" inkscape:window-maximized="1" borderopacity="1.0" pagecolor="#ffffff" showguides="true" inkscape:cy="21.321632" inkscape:cx="35.66124" showgrid="true" bordercolor="#666666" inkscape:zoom="5.6530318" inkscape:document-units="px" inkscape:window-width="1920" inkscape:window-x="0" inkscape:window-y="28" inkscape:guide-bbox="true" inkscape:current-layer="layer1" inkscape:window-height="1023" inkscape:pageopacity="0.0" inkscape:pageshadow="2">
	<inkscape:grid  type="xygrid" enabled="true" visible="true" id="grid2985" snapvisiblegridlinesonly="true" empspacing="5">
		</inkscape:grid>
</sodipodi:namedview>
<polygon style="opacity:0.08;enable-background:new    ;" points="2,39.706 2,13.109 4.162,13.109 4.162,6.622 14.715,6.622 
	16.854,8.783 37.222,8.783 37.222,13.109 39.385,13.109 39.385,39.706 "/>
<polygon style="opacity:0.1;enable-background:new    ;" points="3,38.706 3,14.109 5.162,14.109 5.162,7.622 14.297,7.622 
	16.436,9.783 36.222,9.783 36.222,14.109 38.385,14.109 38.385,38.706 "/>
<polygon style="opacity:0.08;enable-background:new    ;" points="26.615,59.378 26.615,32.781 28.778,32.781 28.778,26.294 
	39.331,26.294 41.469,28.456 61.838,28.456 61.838,32.781 64,32.781 64,59.378 "/>
<polygon style="opacity:0.1;enable-background:new    ;" points="27.615,58.378 27.615,33.781 29.778,33.781 29.778,27.294 
	38.913,27.294 41.051,29.456 60.838,29.456 60.838,33.781 63,33.781 63,58.378 "/>
<polygon style="opacity:0.2;enable-background:new    ;" points="2,37.706 2,13.109 4.162,13.109 4.162,6.622 13.297,6.622 
	15.436,8.783 35.222,8.783 35.222,13.109 37.385,13.109 37.385,37.706 "/>
<polygon style="opacity:0.2;enable-background:new    ;" points="26.615,57.378 26.615,32.781 28.778,32.781 28.778,26.294 
	37.913,26.294 40.051,28.456 59.838,28.456 59.838,32.781 62,32.781 62,57.378 "/>
<polygon style="fill:#F57F17;" points="3,36.706 3,14.109 5.162,14.109 5.162,7.622 12.88,7.622 15.019,9.783 34.222,9.783 
	34.222,14.109 36.385,14.109 36.385,36.706 "/>
<linearGradient id="SVGID_1_" gradientUnits="userSpaceOnUse" x1="19.692" y1="-91.795" x2="19.692" y2="-119.879" gradientTransform="matrix(1 0 0 1 0 128)">
	<stop  offset="0" style="stop-color:#F59D11"/>
	<stop  offset="1" style="stop-color:#FF9800"/>
</linearGradient>
<path style="fill:url(#SVGID_1_);" d="M33.722,14.607c0-1.663,0-4.324,0-4.324H14.809L12.67,8.121H5.662v2.162v2.162v2.162H3.5
	v21.598h32.384V14.607H33.722L33.722,14.607z"/>
<polygon style="fill:#F57F17;" points="27.615,56.378 27.615,33.781 29.778,33.781 29.778,27.294 37.495,27.294 39.634,29.456 
	58.838,29.456 58.838,33.781 61,33.781 61,56.378 "/>
<linearGradient id="SVGID_2_" gradientUnits="userSpaceOnUse" x1="44.319" y1="158.0891" x2="44.319" y2="166.191" gradientTransform="matrix(1 0 0 -1 0 194)">
	<stop  offset="0" style="stop-color:#F57C00"/>
	<stop  offset="0.1638" style="stop-color:#F58F09"/>
	<stop  offset="0.3598" style="stop-color:#F59D11"/>
	<stop  offset="0.5982" style="stop-color:#F5A515"/>
	<stop  offset="0.9946" style="stop-color:#F5A816"/>
</linearGradient>
<path style="fill:url(#SVGID_2_);" d="M58.361,29.981H39.425l-2.139-2.162h-7.009v2.162v2.162v2.708
	c0,0.594,0.522,1.069,1.069,1.069h25.922c0.57,0,1.069,0.048,1.069-0.547C58.361,34.305,58.361,29.981,58.361,29.981z"/>
<linearGradient id="rect2990_1_" gradientUnits="userSpaceOnUse" x1="44.3075" y1="159.719" x2="44.3075" y2="138.122" gradientTransform="matrix(1 0 0 -1 0 194)">
	<stop  offset="0" style="stop-color:#FADD60"/>
	<stop  offset="0.9946" style="stop-color:#F5A816"/>
</linearGradient>
<polyline id="rect2990_2_" style="fill:url(#rect2990_1_);" points="60.5,34.281 60.5,55.878 28.115,55.878 28.115,34.281 "/>
<path id="rect3004_1_" inkscape:connector-curvature="0" style="opacity:0.25;fill:#FDEFBA;enable-background:new    ;" d="
	M28.115,34.281v4.134c0-1.425,0.951-2.59,2.162-2.59h28.06c1.212,0,2.162,1.164,2.162,2.59v-4.134H28.115z"/>
<path id="path3801_1_" inkscape:connector-curvature="0" style="opacity:0.1;fill:#E65100;enable-background:new    ;" d="
	M30.278,27.818c0,0,0,0.547,0,1.616v1.069c0-1.069,0.475-1.616,0.974-1.616h5.608c0.38,0,0.879,0.024,1.758,0.523
	c0.237,0.143,0.522,0.332,0.808,0.546l-2.139-2.162h-7.009V27.818L30.278,27.818z"/>
<polygon style="opacity:0.1;fill:#E65100;enable-background:new    ;" points="39.425,29.981 58.361,29.981 58.361,31.596 
	41.041,31.596 "/>
<rect x="30.278" y="33.331" style="opacity:0.05;fill:#E65100;enable-background:new    ;" width="28.084" height="0.951"/>
</svg>
