<?xml version="1.0" encoding="iso-8859-1"?>
<!-- Generator: Adobe Illustrator 17.1.0, SVG Export Plug-In . SVG Version: 6.00 Build 0)  -->
<!DOCTYPE svg PUBLIC "-//W3C//DTD SVG 1.1//EN" "http://www.w3.org/Graphics/SVG/1.1/DTD/svg11.dtd">
<svg version="1.1"
	 id="svg2" inkscape:export-filename="/media/Data/Main/Visuals/Icons/Numix/Desktop/repos/numix-wiki/Gjorgi/Numix-folders/48/New/folder-144.png" xmlns:svg="http://www.w3.org/2000/svg" xmlns:sodipodi="http://sodipodi.sourceforge.net/DTD/sodipodi-0.dtd" xmlns:inkscape="http://www.inkscape.org/namespaces/inkscape" xmlns:dc="http://purl.org/dc/elements/1.1/" xmlns:cc="http://creativecommons.org/ns#" xmlns:rdf="http://www.w3.org/1999/02/22-rdf-syntax-ns#" inkscape:version="0.48.4 r9939" sodipodi:docname="folder.svg" inkscape:export-xdpi="270" inkscape:export-ydpi="270"
	 xmlns="http://www.w3.org/2000/svg" xmlns:xlink="http://www.w3.org/1999/xlink" x="0px" y="0px" width="64px" height="64px"
	 viewBox="0 0 64 64" style="enable-background:new 0 0 64 64;" xml:space="preserve">
<polygon style="opacity:0.1;enable-background:new    ;" points="3,59.2 3,18.2 6.8,18.2 6.8,6.8 21.3,6.8 25,10.6 59.2,10.6 
	59.2,18.2 63,18.2 63,59.2 "/>
<polygon style="opacity:0.08;enable-background:new    ;" points="2,60.2 2,17.2 5.8,17.2 5.8,5.8 21.6,5.8 25.5,9.6 60.2,9.6 
	60.2,17.2 64,17.2 64,60.2 "/>
<polygon style="opacity:0.2;enable-background:new    ;" points="2,58.2 2,17.2 5.8,17.2 5.8,5.8 20.3,5.8 24,9.6 58.2,9.6 
	58.2,17.2 62,17.2 62,58.2 "/>
<polygon style="fill:#F57F17;" points="3,57.2 3,18.2 6.8,18.2 6.8,6.8 19.9,6.8 23.6,10.6 57.2,10.6 57.2,18.2 61,18.2 61,57.2 "/>
<g>
	
		<linearGradient id="SVGID_1_" gradientUnits="userSpaceOnUse" x1="0.5" y1="-132.7237" x2="0.5" y2="-139.85" gradientTransform="matrix(2 0 0 2 31 287)">
		<stop  offset="0" style="stop-color:#F57C00"/>
		<stop  offset="0.1638" style="stop-color:#F58F09"/>
		<stop  offset="0.3598" style="stop-color:#F59D11"/>
		<stop  offset="0.5982" style="stop-color:#F5A515"/>
		<stop  offset="0.9946" style="stop-color:#F5A816"/>
	</linearGradient>
	<path style="fill:url(#SVGID_1_);" d="M56.7,11.1H23.4l-3.8-3.8H7.3v3.8v3.8v4.8c0,1.1,0.9,1.9,1.9,1.9h45.6c1,0,1.9,0.1,1.9-0.9
		C56.7,18.7,56.7,11.1,56.7,11.1z"/>
	
		<linearGradient id="rect2990_1_" gradientUnits="userSpaceOnUse" x1="0.5" y1="-134.15" x2="0.5" y2="-115.15" gradientTransform="matrix(2 0 0 2 31 287)">
		<stop  offset="0" style="stop-color:#FADD60"/>
		<stop  offset="0.9946" style="stop-color:#F5A816"/>
	</linearGradient>
	<polyline id="rect2990_2_" style="fill:url(#rect2990_1_);" points="60.5,18.7 60.5,56.7 3.5,56.7 3.5,18.7 	"/>
	<path id="rect3004" inkscape:connector-curvature="0" style="opacity:0.25;fill:#FDEFBA;enable-background:new    ;" d="M3.5,18.7
		V26c0-2.5,1.7-4.6,3.8-4.6h49.4c2.1,0,3.8,2.1,3.8,4.6v-7.3H3.5z"/>
	<path id="path3801" inkscape:connector-curvature="0" style="opacity:0.1;fill:#E65100;enable-background:new    ;" d="M7.3,7.3
		c0,0,0,0.9,0,2.8V12c0-1.9,0.9-2.9,1.8-2.9H19c0.6,0,1.5,0,3.1,0.9c0.5,0.3,0.9,0.6,1.5,0.9l-3.8-3.8H7.3V7.3z"/>
	<polygon style="opacity:0.1;fill:#E65100;enable-background:new    ;" points="23.4,11.1 56.7,11.1 56.7,13.9 26.3,13.9 	"/>
	<rect x="7.3" y="17" style="opacity:0.05;fill:#E65100;enable-background:new    ;" width="49.5" height="1.7"/>
</g>
</svg>
