<?xml version="1.0" encoding="iso-8859-1"?>
<!-- Generator: Adobe Illustrator 17.1.0, SVG Export Plug-In . SVG Version: 6.00 Build 0)  -->
<!DOCTYPE svg PUBLIC "-//W3C//DTD SVG 1.1//EN" "http://www.w3.org/Graphics/SVG/1.1/DTD/svg11.dtd">
<svg version="1.1"
	 id="svg2" inkscape:export-filename="/media/Data/Main/Visuals/Icons/Numix/Desktop/repos/numix-wiki/Gjorgi/Numix-folders/48/New/folder-144.png" xmlns:svg="http://www.w3.org/2000/svg" xmlns:sodipodi="http://sodipodi.sourceforge.net/DTD/sodipodi-0.dtd" xmlns:inkscape="http://www.inkscape.org/namespaces/inkscape" xmlns:dc="http://purl.org/dc/elements/1.1/" xmlns:cc="http://creativecommons.org/ns#" xmlns:rdf="http://www.w3.org/1999/02/22-rdf-syntax-ns#" inkscape:version="0.48.4 r9939" sodipodi:docname="user-home.svg" inkscape:export-xdpi="270" inkscape:export-ydpi="270"
	 xmlns="http://www.w3.org/2000/svg" xmlns:xlink="http://www.w3.org/1999/xlink" x="0px" y="0px" width="64px" height="64px"
	 viewBox="0 0 64 64" style="enable-background:new 0 0 64 64;" xml:space="preserve">
<sodipodi:namedview  id="base" inkscape:window-maximized="1" borderopacity="1.0" pagecolor="#ffffff" showguides="true" inkscape:cy="21.321632" inkscape:cx="35.66124" showgrid="true" bordercolor="#666666" inkscape:zoom="5.6530318" inkscape:document-units="px" inkscape:window-width="1920" inkscape:window-x="0" inkscape:window-y="28" inkscape:guide-bbox="true" inkscape:current-layer="layer1" inkscape:window-height="1023" inkscape:pageopacity="0.0" inkscape:pageshadow="2">
	<inkscape:grid  type="xygrid" enabled="true" visible="true" id="grid2985" snapvisiblegridlinesonly="true" empspacing="5">
		</inkscape:grid>
</sodipodi:namedview>
<polygon style="opacity:0.08;enable-background:new    ;" points="26.002,59.303 26.002,32.27 28.2,32.27 28.2,25.676 
	38.926,25.676 41.1,27.874 61.803,27.874 61.803,32.27 64,32.27 64,59.303 "/>
<polygon style="opacity:0.1;enable-background:new    ;" points="27.019,58.286 27.019,33.286 29.216,33.286 29.216,26.693 
	38.502,26.693 40.675,28.89 60.786,28.89 60.786,33.286 62.984,33.286 62.984,58.286 "/>
<polygon style="fill:#FF9800;" points="2,36.259 2,13.291 4.197,13.291 4.197,6.697 12.042,6.697 14.216,8.894 33.734,8.894 
	33.734,13.291 35.932,13.291 35.932,36.259 "/>
<path style="fill:#FFB74D;" d="M33.226,13.798c0-1.69,0-4.395,0-4.395H14.003L11.83,7.205H4.706v2.197V11.6v2.197H2.508v21.952
	h32.915V13.798H33.226L33.226,13.798z"/>
<polygon style="opacity:0.2;enable-background:new    ;" points="26.002,57.27 26.002,32.27 28.2,32.27 28.2,25.676 37.485,25.676 
	39.659,27.874 59.77,27.874 59.77,32.27 61.967,32.27 61.967,57.27 "/>
<polygon style="fill:#F57F17;" points="27.019,56.254 27.019,33.286 29.216,33.286 29.216,26.693 37.061,26.693 39.235,28.89 
	58.753,28.89 58.753,33.286 60.951,33.286 60.951,56.254 "/>
<linearGradient id="SVGID_1_" gradientUnits="userSpaceOnUse" x1="43.9969" y1="158.5496" x2="43.9969" y2="166.7848" gradientTransform="matrix(1 0 0 -1 0 194)">
	<stop  offset="0" style="stop-color:#F57C00"/>
	<stop  offset="0.1638" style="stop-color:#F58F09"/>
	<stop  offset="0.3598" style="stop-color:#F59D11"/>
	<stop  offset="0.5982" style="stop-color:#F5A515"/>
	<stop  offset="0.9946" style="stop-color:#F5A816"/>
</linearGradient>
<path style="fill:url(#SVGID_1_);" d="M58.269,29.423H39.022l-2.174-2.197h-7.124v2.197v2.197v2.753
	c0,0.604,0.531,1.087,1.087,1.087h26.347c0.579,0,1.087,0.048,1.087-0.555C58.269,33.818,58.269,29.423,58.269,29.423z"/>
<linearGradient id="rect2990_1_" gradientUnits="userSpaceOnUse" x1="43.9849" y1="160.2057" x2="43.9849" y2="138.2546" gradientTransform="matrix(1 0 0 -1 0 194)">
	<stop  offset="0" style="stop-color:#FADD60"/>
	<stop  offset="0.9946" style="stop-color:#F5A816"/>
</linearGradient>
<polyline id="rect2990_2_" style="fill:url(#rect2990_1_);" points="60.443,33.794 60.443,55.745 27.527,55.745 27.527,33.794 "/>
<path id="rect3004_1_" inkscape:connector-curvature="0" style="opacity:0.25;fill:#FDEFBA;enable-background:new    ;" d="
	M27.527,33.794v4.202c0-1.449,0.966-2.632,2.197-2.632h28.521c1.232,0,2.197,1.183,2.197,2.632v-4.202H27.527z"/>
<path id="path3801_1_" inkscape:connector-curvature="0" style="opacity:0.1;fill:#E65100;enable-background:new    ;" d="
	M29.725,27.225c0,0,0,0.555,0,1.642v1.087c0-1.087,0.483-1.642,0.99-1.642h5.699c0.386,0,0.893,0.024,1.787,0.531
	c0.241,0.145,0.531,0.338,0.821,0.555l-2.174-2.197h-7.124V27.225L29.725,27.225z"/>
<polygon style="opacity:0.1;fill:#E65100;enable-background:new    ;" points="39.022,29.423 58.269,29.423 58.269,31.065 
	40.664,31.065 "/>
<rect x="29.725" y="32.828" style="opacity:0.05;fill:#E65100;enable-background:new    ;" width="28.544" height="0.966"/>
</svg>
