<?xml version="1.0" encoding="iso-8859-1"?>
<!-- Generator: Adobe Illustrator 17.1.0, SVG Export Plug-In . SVG Version: 6.00 Build 0)  -->
<!DOCTYPE svg PUBLIC "-//W3C//DTD SVG 1.1//EN" "http://www.w3.org/Graphics/SVG/1.1/DTD/svg11.dtd">
<svg version="1.1"
	 id="svg2" inkscape:export-filename="/media/Data/Main/Visuals/Icons/Numix/Desktop/repos/numix-wiki/Gjorgi/Numix-folders/48/New/folder-144.png" xmlns:svg="http://www.w3.org/2000/svg" xmlns:sodipodi="http://sodipodi.sourceforge.net/DTD/sodipodi-0.dtd" xmlns:inkscape="http://www.inkscape.org/namespaces/inkscape" xmlns:dc="http://purl.org/dc/elements/1.1/" xmlns:cc="http://creativecommons.org/ns#" xmlns:rdf="http://www.w3.org/1999/02/22-rdf-syntax-ns#" inkscape:version="0.48.4 r9939" sodipodi:docname="user-home.svg" inkscape:export-xdpi="270" inkscape:export-ydpi="270"
	 xmlns="http://www.w3.org/2000/svg" xmlns:xlink="http://www.w3.org/1999/xlink" x="0px" y="0px" width="64px" height="64px"
	 viewBox="0 0 64 64" style="enable-background:new 0 0 64 64;" xml:space="preserve">
<polygon style="opacity:0.08;enable-background:new    ;" points="2,60.2 2,17.2 5.8,17.2 5.8,5.8 21.667,5.8 25.442,9.6 60.2,9.6 
	60.2,17.2 64,17.2 64,60.2 "/>
<polygon style="opacity:0.1;enable-background:new    ;" points="3,59.2 3,18.2 6.8,18.2 6.8,6.8 21.25,6.8 25.027,10.6 59.2,10.6 
	59.2,18.2 63,18.2 63,59.2 "/>
<polygon style="opacity:0.2;enable-background:new    ;" points="2,58.2 2,17.2 5.8,17.2 5.8,5.8 20.25,5.8 24.027,9.6 58.2,9.6 
	58.2,17.2 62,17.2 62,58.2 "/>
<polygon style="fill:#F57F17;" points="3,57.2 3,18.2 6.8,18.2 6.8,6.8 19.834,6.8 23.611,10.6 57.2,10.6 57.2,18.2 61,18.2 
	61,57.2 "/>
<sodipodi:namedview  id="base" inkscape:window-maximized="1" borderopacity="1.0" pagecolor="#ffffff" showguides="true" inkscape:cy="21.321632" inkscape:cx="35.66124" showgrid="true" bordercolor="#666666" inkscape:zoom="5.6530318" inkscape:document-units="px" inkscape:window-width="1920" inkscape:window-x="0" inkscape:window-y="28" inkscape:guide-bbox="true" inkscape:current-layer="layer1" inkscape:window-height="1023" inkscape:pageopacity="0.0" inkscape:pageshadow="2">
	<inkscape:grid  type="xygrid" enabled="true" visible="true" id="grid2985" snapvisiblegridlinesonly="true" empspacing="5">
		</inkscape:grid>
</sodipodi:namedview>
<g>
	
		<linearGradient id="SVGID_1_" gradientUnits="userSpaceOnUse" x1="32" y1="-81.5523" x2="32" y2="-67.3" gradientTransform="matrix(1 0 0 -1 0 -60)">
		<stop  offset="0" style="stop-color:#F57C00"/>
		<stop  offset="0.1638" style="stop-color:#F58F09"/>
		<stop  offset="0.3598" style="stop-color:#F59D11"/>
		<stop  offset="0.5982" style="stop-color:#F5A515"/>
		<stop  offset="0.9946" style="stop-color:#F5A816"/>
	</linearGradient>
	<path style="fill:url(#SVGID_1_);" d="M56.7,11.1H23.403l-3.776-3.8H7.3v3.8v3.8v4.75c0,1.045,0.903,1.9,1.9,1.9h45.6
		c0.998,0,1.9,0.095,1.9-0.95C56.7,18.723,56.7,11.1,56.7,11.1z"/>
	
		<linearGradient id="rect2990_1_" gradientUnits="userSpaceOnUse" x1="32" y1="-78.7" x2="32" y2="-116.7" gradientTransform="matrix(1 0 0 -1 0 -60)">
		<stop  offset="0" style="stop-color:#FADD60"/>
		<stop  offset="0.9946" style="stop-color:#F5A816"/>
	</linearGradient>
	<polyline id="rect2990_2_" style="fill:url(#rect2990_1_);" points="60.5,18.7 60.5,56.7 3.5,56.7 3.5,18.7 	"/>
	<path id="rect3004_1_" inkscape:connector-curvature="0" style="opacity:0.25;fill:#FDEFBA;enable-background:new    ;" d="
		M3.5,18.7v7.292c0-2.518,1.686-4.56,3.8-4.56h49.4c2.114,0,3.8,2.042,3.8,4.56V18.7H3.5z"/>
	<path id="path3801_1_" inkscape:connector-curvature="0" style="opacity:0.1;fill:#E65100;enable-background:new    ;" d="M7.3,7.3
		c0,0,0,0.95,0,2.85v1.9c0-1.9,0.855-2.85,1.734-2.85h9.856c0.665,0,1.544,0.024,3.087,0.926c0.427,0.261,0.903,0.57,1.425,0.974
		l-3.776-3.8C19.626,7.3,7.3,7.3,7.3,7.3z"/>
	<polygon style="opacity:0.1;fill:#E65100;enable-background:new    ;" points="23.403,11.1 56.7,11.1 56.7,13.95 26.253,13.95 	"/>
	<rect x="7.3" y="17.014" style="opacity:0.05;fill:#E65100;enable-background:new    ;" width="49.4" height="1.686"/>
</g>
<g>
	
		<linearGradient id="SVGID_2_" gradientUnits="userSpaceOnUse" x1="32" y1="-103.576" x2="32" y2="-75.123" gradientTransform="matrix(1 0 0 1 0 128)">
		<stop  offset="0" style="stop-color:#FADD60"/>
		<stop  offset="0.8656" style="stop-color:#F5A816"/>
	</linearGradient>
	<path style="opacity:0.78;fill:url(#SVGID_2_);enable-background:new    ;" d="M46.226,38.65c0,7.838-6.365,14.227-14.226,14.227
		S17.774,46.488,17.774,38.65c0-7.837,6.389-14.226,14.226-14.226S46.226,30.813,46.226,38.65z"/>
	<path style="fill:#F57F17;fill-opacity:0.39;" d="M22.666,27.939c0,0,0.285,0.167,0.404,0.404c0.095,0.262,0.403,0.262,0.403,0.262
		h0.451l0.665-0.214l-0.167,0.356c0,0-3.491,1.615-2.778,2.565c0.712,0.95,0.451,1.211,0.451,1.496s0.213,0.048,0.213,0.048
		l0.213-0.546l0.285-0.404l0.285-0.451l0.095-0.261l0.403-0.713l0.499-0.285l0.451,0.285c0,0,0.213,0.095,0.166,0.262
		c-0.048,0.166-0.095,0.451-0.095,0.451s0.095,0.214,0.261,0.214s0.403-0.166,0.403-0.166l0.213,0.356l0.167,0.665l0.403,0.403
		l0.213,0.451l-0.213,0.404l0.213,0.167l0.451,0.498l0.095,0.261l-0.76-0.048c0,0-0.095-0.214-0.261-0.214s-0.808-0.048-0.808-0.048
		l-0.357,0.095l-0.213,0.261c0,0-0.261,0.404-0.404,0.404c-0.142,0-0.546-0.095-0.546-0.095s-0.285-0.095-0.451,0.214
		c-0.167,0.285,0.261,0.451,0.261,0.451l-0.712,0.213l-0.213,0.095c0,0-0.499,0.214-0.499,0.356c0,0.166,0,0.166,0,0.166
		l-0.166,0.404v0.261l-0.357,0.285l-0.356,0.261l-0.167,0.285v0.499c0,0-0.048,0.261-0.048,0.404c0,0.142,0,0.546,0,0.546
		s-0.167,0.166-0.261-0.166c-0.095-0.285-0.095-0.285-0.095-0.285l-0.166-0.356c0,0,0.166-0.048-0.048-0.214
		c-0.213-0.167-0.403-0.214-0.403-0.214s-0.095-0.095-0.285-0.095s0.261,0.048-0.214,0c-0.451-0.048-0.451-0.048-0.451-0.048
		l-0.357,0.285v0.262c0,0-0.095,1.781,0.403,2.019h0.214l0.285-0.451l0.261,0.095v0.214l-0.048,0.356v0.214l0.261,0.261l0.166,0.451
		c0.214,0.357,0.095,0.452,0.261,0.547s0.285,0.356,0.285,0.356l0.213,0.095c0,0,0.167,0.048,0.285,0.095
		c0.167,0.048,0.167,0.048,0.167,0.048l0.048,0.237l0.048,0.19l0.213,0.261c0,0-0.166,0,0.214,0s0.356,0,0.356,0
		s0,0.095,0.261,0.214c0.261,0.095,0.048,0.048,0.261,0.095c0.214,0.048,0.546,0.095,0.546,0.095
		c0.357-0.048,0.357-0.048,0.357-0.048l0.261,0.356c0,0,0.166,0,0.213,0.166s-0.261,0,0.048,0.166c0.285,0.166,0,0.048,0.285,0.166
		c0.285,0.119-0.095,0.095,0.285,0.095s0.451,0,0.618,0.048s0.261,0.404,0.261,0.404c0.285,0.357,0.285,0.357,0.285,0.357
		l0.048,0.451c0,0-0.167,0.095,0.213,0.095s0.095,0,0.357,0s-0.048-0.095,0.261,0c0.285,0.095,0.285,0.095,0.285,0.095
		s0.451,0.356,0.618,0.356c0.166,0,0.451-0.048,0.618,0s0.261,0.285,0.546,0.357c0.285,0.048,0.403,0,0.618,0.166
		c0.213,0.166,0.213,0.166,0.213,0.166l0.048,0.546L29.45,48.03l-0.403,0.166l-0.048,0.499l-0.213,0.498v0.261
		c0,0,0.261,0.214-0.213,0.261c-0.451,0.048-0.451,0.048-0.451,0.048l-0.213,0.214c0,0,0,0.048-0.095,0.214S27.6,50.595,27.6,50.595
		l0.048,0.451v0.285l-0.166,0.261c0,0-0.142,0.072,0.261,0.309c0.403,0.262,0.736,0.262,0.808,0.404
		c0.095,0.167,0.333,0.285,0.333,0.285l-0.546-0.118l-0.333-0.119l-0.57-0.166l-1.093-0.57c0,0-1.639-1.354-2.138-2.423
		c0,0-0.427-0.641-1.163-0.902c0,0-1.805-1.639-1.948-2.042l-0.072-0.261v-0.143l-0.072-0.072v-0.166l-0.048-0.118l0.024-0.499
		l0.024-0.333l0.024-0.19l-0.024-0.143c0,0-0.095-0.095-0.095-0.119c0-0.023-0.072-0.237-0.072-0.237l-0.024-0.072l0.261-0.238
		l-0.072-0.214L21,43.324l0.166-0.119c0,0,0.095-0.143,0.095-0.166c0-0.048-0.167-0.166-0.167-0.166l-0.072,0.023L20.95,43.11
		h-0.095c0,0-0.095-0.048-0.095-0.072s-0.095-0.118-0.095-0.118l-0.119-0.048c0,0-0.095-0.024-0.118-0.072s-0.142-0.118-0.142-0.143
		c0-0.023-0.095-0.166-0.095-0.166l-0.119-0.048c0,0-0.142-0.214-0.142-0.261c0-0.024-0.072-0.143-0.072-0.143
		s-0.167-0.19-0.167-0.214c0-0.023-0.071-0.19-0.071-0.19h-0.119L19.24,41.54l-0.166-0.214l-0.19-0.214c0,0-0.095-0.166-0.095-0.214
		s-0.072-0.095-0.072-0.095H18.6h-0.072l-0.166-0.143l-0.404-0.57l-0.072-0.262l-0.072-0.261l-0.048-0.451v-0.285l-0.19-2.113
		C17.798,36.845,18.415,31.62,22.666,27.939z"/>
	<path style="fill:#F57F17;fill-opacity:0.39;" d="M38.722,26.158l0.451,0.356l0.237,0.119l0.167,0.19l0.024,0.19
		c0,0,0.048,0.19,0.024,0.238s-0.048,0.285-0.048,0.285s0.214,0.356,0.214,0.403c0,0.048,0.024,0.261-0.024,0.285
		s-0.285,0.19-0.309,0.119s-0.19-0.238-0.237-0.238c-0.048-0.024-0.19-0.167-0.19-0.167l0.356-0.048l-0.048-0.237
		c0,0-0.261-0.095-0.308-0.095c-0.071-0.024-0.309-0.167-0.309-0.167l-0.261-0.072c0,0-0.451-0.119-0.499-0.143
		s-0.237-0.095-0.237-0.095h-0.38c0,0-0.19,0.095-0.237,0.143c-0.024,0.048-0.261,0.285-0.261,0.285s-0.024,0.285-0.024,0.333
		s-0.071,0.167-0.071,0.285c0,0.142-0.024,0.309-0.024,0.356s0,0.119,0,0.119l-0.048,0.214l-0.167,0.095l-0.214,0.166
		c0,0-0.19,0.143-0.19,0.19s0,0.238,0.071,0.356c0.071,0.143,0.048,0.262,0.143,0.333c0.095,0.072,0.143,0.167,0.214,0.19
		c0.071,0.024,0.024,0.048,0.143,0.048c0.095,0,0.19,0.024,0.237-0.024c0.048-0.024,0.166-0.024,0.214-0.095
		s-0.048-0.024,0.048-0.072c0.095-0.024,0.095-0.095,0.167-0.024c0.095,0.072,0.166,0.167,0.19,0.214s0.095,0.167,0.167,0.238
		c0.095,0.048,0.167,0.238,0.167,0.238l0.143,0.142c0,0,0.024,0.024,0.118,0.024c0.095,0,0.237-0.024,0.237-0.024l0.048-0.095
		c0,0,0.095,0.024,0.119-0.024s0.024-0.119,0.024-0.119s-0.048-0.143-0.095-0.19c-0.024-0.048-0.071-0.167-0.071-0.167l0.024-0.166
		l0.095-0.095l0.024-0.118v-0.143l-0.095-0.048l-0.166-0.095c0,0-0.095,0.024-0.095-0.095c-0.024-0.095-0.024-0.095-0.024-0.095
		l-0.214-0.048l-0.143-0.072l0.166-0.119c0.095-0.167,0.119-0.214,0.119-0.262s-0.024-0.19-0.024-0.19s-0.095-0.024-0.095-0.143
		c-0.024-0.119-0.024-0.19-0.024-0.19l0.024-0.095c0,0,0.024-0.071,0.095-0.071c0.048,0,0.143,0.071,0.19,0.071
		s0.143,0.024,0.143,0.024s0.048,0.024,0.048,0.095c0,0.048-0.024,0.167-0.024,0.167l0.095-0.143v0.167l-0.024,0.19v0.19l0.095,0.19
		l0.095,0.143c0,0,0.119,0.118,0.167,0.166c0.048,0.024,0.166,0.119,0.166,0.119l0.143,0.072l0.095,0.024l0.095-0.095
		c0,0,0.166,0.024,0.166-0.024c0.024-0.048,0.024-0.048,0.024-0.048s0.19-0.024,0.237-0.024s0.143,0,0.143,0
		s0.071,0.143,0.024,0.143s-0.071,0.048-0.19,0.095c-0.119,0.024-0.166,0-0.19,0.048s-0.095,0.166-0.095,0.166l0.095,0.024h0.071
		l0.095,0.095c0,0,0.024,0.024,0,0.095s0.095,0.048-0.024,0.071c-0.143,0.024-0.214-0.024-0.214-0.024s-0.024-0.119-0.095-0.072
		c-0.048,0.048-0.071,0.166-0.071,0.166v0.166l0.095,0.238c0,0,0.048,0.048,0,0.072s-0.214,0.214-0.214,0.214
		s-0.024,0.072-0.095,0.072c-0.048,0-0.118,0-0.237,0.024c-0.095,0.024-0.095,0.024-0.19,0.048
		c-0.095,0.024-0.167,0.048-0.285,0.071c-0.119,0.024-0.38,0.024-0.475,0.024s-0.118,0-0.166-0.024s-0.024,0-0.095-0.095
		c-0.071-0.095-0.143-0.167-0.143-0.238c0-0.048,0-0.072-0.024-0.167s-0.024-0.166-0.095-0.166c-0.095,0-0.095,0-0.095,0
		s-0.19,0.143-0.167,0.19s-0.024,0,0.143,0.119s0.214,0.261,0.214,0.261l-0.024,0.166l-0.285,0.167l-0.214,0.072l-0.024,0.143
		c0,0,0,0.048-0.048,0.118c-0.048,0.072-0.167,0.167-0.167,0.167s-0.095,0.024-0.119,0.095c-0.024,0.048-0.095,0.238-0.095,0.238
		s-0.095-0.024-0.19,0.048c-0.095,0.071,0.024,0.071-0.19,0.166s-0.214,0.095-0.214,0.095l-0.237-0.024l-0.143,0.048
		c0,0-0.19,0.024-0.214,0.072s-0.118,0.19-0.118,0.19s-0.048,0.095,0,0.095c0.048,0.024,0.118,0,0.237,0.024
		c0.095,0.024,0.119,0.024,0.19,0.071c0.071,0.024,0.143,0.095,0.143,0.095l0.262,0.237l0.143,0.285l-0.024,0.238l-0.262,0.095
		c0,0-0.167,0-0.237,0c-0.048,0-0.024,0-0.285,0c-0.262,0-0.309,0-0.356,0s-0.237-0.023-0.237-0.023l-0.167,0.023l-0.119,0.095
		l-0.071,0.024c0,0,0.095,0.214,0.095,0.261s0,0.166,0,0.166l-0.024,0.143l-0.071,0.166l-0.095,0.166l0.024,0.095
		c0,0-0.024,0.071,0.024,0.071c0.048,0,0.19-0.023,0.19,0.024s-0.119,0.238-0.119,0.238l0.237,0.048c0,0-0.024-0.024,0.119,0.023
		c0.143,0.024,0.237,0.072,0.237,0.072l0.167,0.118l0.048,0.095l0.048-0.095c0,0,0.262-0.023,0.285-0.048
		c0.048-0.023,0.167-0.023,0.167-0.023h0.214c0,0,0.048,0.023,0.095-0.024c0.024-0.048,0.024-0.048,0.024-0.048
		s0.237-0.095,0.262-0.143c0.048-0.023,0.071-0.166,0.071-0.166s0.071-0.048,0.071-0.095s-0.048-0.166-0.048-0.166v-0.095
		l0.071-0.095c0,0,0.024-0.023,0.095-0.095c0.071-0.071,0.071-0.071,0.071-0.071s-0.024-0.024,0.071-0.072
		c0.095-0.023,0.166-0.095,0.214-0.095s-0.048,0.048,0.048,0s0.119-0.095,0.119-0.166c0-0.048,0.024-0.285,0.024-0.285l0.095-0.143
		l0.237,0.024l0.119,0.024c0,0,0.143,0.023,0.166-0.024c0.024-0.048,0.095-0.095,0.095-0.095l0.19-0.095
		c0,0-0.024-0.023,0.071-0.023s0.237,0,0.285,0s0.167,0,0.167,0s0.095,0.048,0.143,0.095c0.024,0.048,0.095,0.166,0.095,0.166
		l0.071,0.095h0.071c0.095,0.071,0.143,0.118,0.285,0.166c0.166,0.048,0.262,0.095,0.262,0.095s0.048,0.095,0.095,0.143
		s0.095,0.095,0.167,0.143c0.048,0.023,0.095,0.071,0.119,0.118s0.095,0.143,0.095,0.143l0.095,0.095l0.048-0.095v-0.166
		l-0.024-0.095c0,0-0.095-0.071,0.024-0.071c0.095,0,0.166,0,0.166,0l-0.095-0.143l-0.119-0.048l-0.167-0.119l-0.071-0.071
		l-0.071-0.024l-0.071-0.048l-0.095-0.071c0,0-0.167-0.024-0.167-0.095c-0.024-0.048-0.024-0.048-0.024-0.048l-0.167-0.023
		c0,0-0.166-0.095-0.166-0.143s-0.024-0.19-0.024-0.19l-0.143-0.024c0,0,0.024-0.095,0.024-0.166c0-0.048,0.048-0.119,0.048-0.119
		l0.285-0.023l0.071,0.166l0.119,0.072l0.166,0.071l0.071,0.095l0.071,0.071c0,0,0.024,0.024,0.119,0.048s0.167,0.048,0.167,0.048
		s0.095,0.095,0.166,0.095c0.071,0.024,0.095,0.048,0.167,0.071c-0.048,0.048-0.048,0.048-0.048,0.048s0.024,0.048,0.095,0.095
		s0.143,0.143,0.143,0.19s0.048,0.214,0.095,0.238s0.071,0.024,0.167,0.118c0.095,0.095,0.095,0.19,0.167,0.238
		c0.095,0.024,0.166,0,0.166,0.095c0.024,0.095,0.024,0.166,0.024,0.166s0.071,0.024,0.118,0.024s0.143-0.095,0.143-0.095
		s0.095-0.143,0.024-0.166c-0.048-0.024-0.166-0.024-0.166-0.071s0-0.285,0-0.285l0.071-0.167l0.095-0.143l0.143,0.048l0.143-0.095
		l0.143,0.167l-0.048,0.19c0,0,0.024,0.118,0.095,0.214c0.048,0.095,0.167,0.214,0.167,0.214l0.237,0.214l0.309,0.095l0.071-0.023
		l0.475-0.095c0,0,0.071,0,0.119,0s0.262,0.38,0.262,0.38s0,0.167,0,0.262s0,0.309,0,0.309s-0.167,0.166-0.237,0.166
		s-0.262,0.095-0.262,0.095l-0.38,0.095l-0.262-0.023l-0.451-0.024c0,0-0.451-0.024-0.499-0.024s-0.214,0-0.262,0
		s-0.119,0.048-0.167,0.19s-0.143,0.19-0.143,0.19s0,0.072-0.095,0.072s-0.095,0.023-0.167-0.024s-0.38-0.118-0.38-0.118
		l-0.285-0.214l-0.167-0.143l-0.166-0.023h-0.451l-0.285-0.024l0.048-0.475l0.048,0.143l-0.095-0.309L38.8,35.497l-0.308-0.071
		l-0.214,0.024l-0.261,0.071l-0.262,0.095l-0.167,0.048l-0.784,0.143l-0.261,0.118c0,0-0.119,0.072-0.167,0.095
		c-0.048,0.024-0.237,0.024-0.237,0.024s-0.143-0.024-0.214-0.048s-0.237-0.024-0.285-0.024c-0.071,0-0.214-0.023-0.262,0
		c-0.048,0.024-0.095,0.024-0.143,0.095s-0.214,0.261-0.214,0.261s-0.095,0.095-0.143,0.143c-0.024,0.048-0.143,0.19-0.143,0.19
		l-0.19,0.285l-0.119,0.143l0.024,0.166v0.119c0,0-0.071,0.071-0.119,0.095s-0.143,0.071-0.143,0.071s-0.071,0.024-0.143,0.095
		c-0.071,0.048-0.071,0.071-0.118,0.118c-0.048,0.048-0.214,0.166-0.214,0.166s-0.095,0.072-0.167,0.143
		c-0.048,0.072-0.143,0.167-0.166,0.214s-0.095,0.095-0.143,0.118c-0.048,0.024-0.143,0.214-0.167,0.261s-0.166,0.262-0.166,0.262
		l-0.095,0.38l-0.024,0.19c0,0,0.024,0.072,0.071,0.119s0.095,0.238,0.095,0.238v0.166c0,0-0.048,0.143-0.071,0.19
		c-0.024,0.048,0.024,0.261,0.024,0.261v0.143c0,0,0,0.048-0.071,0.119s-0.095,0.166-0.095,0.166l0.095,0.214l0.071,0.143v0.095
		l0.095,0.166c0,0,0.048,0.048,0.095,0.095c0.048,0.024,0.071,0.024,0.167,0.095c0.095,0.048,0.095,0.048,0.095,0.048
		s0.143,0.166,0.143,0.238c0,0.048,0.095,0.143,0.095,0.143l0.166,0.166c0,0,0.024,0.095,0.119,0.166
		c0.095,0.072,0.19,0.119,0.237,0.167c0.048,0.023,0.19,0.143,0.285,0.166s0.143,0.048,0.19,0.048s-0.071-0.143,0.262,0.023
		c0.308,0.167,0.522,0.238,0.522,0.238l0.237,0.095c0,0,0.356,0.024,0.404-0.024c0.048-0.023,0.118-0.023,0.166-0.023
		s0.167,0,0.262,0s0.403-0.048,0.403-0.048l0.356-0.143c0,0,0.118-0.072,0.166-0.095s0.19-0.118,0.237-0.143
		c0.048-0.023,0.262-0.023,0.262-0.023s0-0.072,0.095,0c0.095,0.071,0.095,0.095,0.119,0.143s0.024,0.166,0.095,0.166
		c0.071,0.023,0.237,0.071,0.237,0.071s0.237-0.023,0.285,0C38.77,43.1,38.936,43.1,38.936,43.1l0.071,0.095l0.024,0.214v0.19
		c0,0-0.024,0.071,0,0.143c0.024,0.071,0.095,0.19,0.095,0.19s-0.095,0.143-0.143,0.166c-0.048,0.024-0.166,0.166-0.166,0.166
		l0.308,0.285l0.19,0.19l0.143,0.166c0,0,0.024,0.071,0.024,0.119s-0.024,0.166,0,0.238c0.024,0.048,0.024,0.238,0.024,0.238
		s0.024,0.143,0.024,0.19s-0.048,0.261-0.048,0.261l-0.024,0.166l-0.095,0.261l-0.119,0.143l-0.167,0.167l-0.119,0.19l-0.024,0.262
		l-0.095,0.166c0,0,0.024,0.143,0.024,0.214s0.143,0.309,0.143,0.309l-0.024,0.214c0,0-0.095,0.285-0.095,0.356
		c0,0.072-0.071,0.166-0.071,0.238c0,0.048-0.024,0.261-0.024,0.261l0.024,0.261l0.095,0.261l-0.095,0.238
		c0,0-0.048,0.19-0.048,0.285s0.167,0.214,0.214,0.214s0.261-0.024,0.333-0.095c0.095-0.048,0.308-0.119,0.356-0.143
		s0.095,0.023,0.237-0.095c0.143-0.095,0.333-0.261,0.333-0.261s0.167-0.119,0.237-0.167c0.048-0.048,0.261-0.285,0.261-0.285
		s0.167-0.167,0.262-0.238c0.119-0.071,0-0.024,0.119-0.095s0.475-0.356,0.475-0.356l0.356-0.356c0,0,0.308-0.404,0.356-0.475
		s0.333-0.451,0.38-0.475c0.048-0.023,0.451-0.285,0.546-0.356s0.214-0.546,0.262-0.617c0.048-0.048,0.285-0.618,0.285-0.618
		l0.237-0.665l0.38-0.974l0.38-0.689c0,0,0.166-0.285,0.237-0.38c0.048-0.095,0.403-0.808,0.403-0.808l0.143-0.594l0.048-0.499
		h-0.237l-0.262,0.238l-0.237-0.072l-0.237,0.024l0.261-0.309l-0.071-0.261l-0.214-0.166l-0.262-0.403v-0.404l-0.285-0.475
		l-0.19-0.76c0,0-0.333-0.356-0.285-0.451c0.024-0.095,0.118-0.356,0.118-0.356l0.19,0.095c0,0,0.143,0.356,0.214,0.38
		s0.166,0.214,0.19,0.261s0.048,0.214,0.095,0.261c0.024,0.048,0.19,0.333,0.19,0.333s0.119,0.285,0.143,0.357
		c0.024,0.048,0.143,0.237,0.166,0.356c0.024,0.143,0.095,0.57,0.095,0.618s0.119,0.522,0.119,0.522s0.167-0.048,0.19-0.095
		s0.024-0.071,0.071-0.118c0.024-0.048,0.285-0.261,0.285-0.261l0.119-0.356c0,0,0.071-0.166,0.095-0.238
		c0.023-0.071,0.166-0.309,0.166-0.356s-0.024-0.237,0-0.285s0.095-0.309,0.095-0.356s0.024-0.238,0.024-0.238l-0.024-0.404
		l0.19-0.237l0.095-0.261C46.202,36.868,45.537,29.744,38.722,26.158z"/>
</g>
</svg>
