<?xml version="1.0" encoding="utf-8"?>
<!-- Generator: Adobe Illustrator 21.0.0, SVG Export Plug-In . SVG Version: 6.00 Build 0)  -->
<svg version="1.1" id="图层_39" xmlns="http://www.w3.org/2000/svg" xmlns:xlink="http://www.w3.org/1999/xlink" x="0px" y="0px"
	 viewBox="0 0 64 64" style="enable-background:new 0 0 64 64;" xml:space="preserve">
<style type="text/css">
	.st0{opacity:0.1;enable-background:new    ;}
	.st1{opacity:0.08;enable-background:new    ;}
	.st2{opacity:0.2;enable-background:new    ;}
	.st3{fill:#F57F17;}
	.st4{fill:url(#SVGID_1_);}
	.st5{fill:url(#rect2990_1_);}
	.st6{opacity:0.25;fill:#FDEFBA;enable-background:new    ;}
	.st7{opacity:0.1;fill:#E65100;enable-background:new    ;}
	.st8{opacity:0.05;fill:#E65100;enable-background:new    ;}
	.st9{opacity:0.39;fill:#F57F17;enable-background:new    ;}
</style>
<title>network64</title>
<g id="_64">
	<polygon class="st0" points="3,59 3,18 6.5,18 6.5,6.5 21.5,6.5 25.5,10.5 59.5,10.5 59.5,18 63,18 63,59 	"/>
	<polygon class="st1" points="2,60 2,17 5.5,17 5.5,6 22.5,6 26,9.5 60.5,9.5 60.5,17 64,17 64,60 	"/>
	<polygon class="st2" points="2,58 2,17 5.5,17 5.5,6 21,6 24.5,9.5 58.5,9.5 58.5,17 62,17 62,58 	"/>
	<polygon class="st3" points="3,57 3,18 6.5,18 6.5,7 20.5,7 24,10.5 57.5,10.5 57.5,18 61,18 61,57 	"/>
	
		<linearGradient id="SVGID_1_" gradientUnits="userSpaceOnUse" x1="-840" y1="481.54" x2="-840" y2="488.47" gradientTransform="matrix(2 0 0 -2 1712 984.44)">
		<stop  offset="0" style="stop-color:#F57C00"/>
		<stop  offset="0.16" style="stop-color:#F58F09"/>
		<stop  offset="0.36" style="stop-color:#F59D11"/>
		<stop  offset="0.6" style="stop-color:#F5A515"/>
		<stop  offset="0.99" style="stop-color:#F5A816"/>
	</linearGradient>
	<path class="st4" d="M57,11H23.5L20,7.5H7v12c0,1.1,0.9,1.9,1.9,1.9l0,0h46.2c1,0,1.9,0.1,1.9-0.9V11z"/>
	
		<linearGradient id="rect2990_1_" gradientUnits="userSpaceOnUse" x1="-840" y1="482.97" x2="-840" y2="463.97" gradientTransform="matrix(2 0 0 -2 1712 984.44)">
		<stop  offset="0" style="stop-color:#FADD60"/>
		<stop  offset="0.99" style="stop-color:#F5A816"/>
	</linearGradient>
	<polyline id="rect2990" class="st5" points="60.5,18.5 60.5,56.5 3.5,56.5 3.5,18.5 	"/>
	<path id="rect3004" class="st6" d="M3.5,18.5v8c0-2.7,1.7-5,3.8-5h49.4c2.1,0,3.8,2.3,3.8,5v-8H3.5z"/>
	<path id="path3801" class="st7" d="M7,7.7V11c0-1.7,1.1-1.7,2.1-1.7h10.3c0.9-0.1,1.9,0.2,2.6,0.7c0.5,0.3,0.9,0.7,1.5,1L20,7.5H7
		V7.7z"/>
	<polygon class="st7" points="23.5,11 57,11 57,14 26.5,14 	"/>
	<rect x="7" y="16.5" class="st8" width="50" height="2"/>
</g>
<g id="网络">
	<path class="st9" d="M23.2,27.3c0.2,0.1,0.3,0.2,0.4,0.4c0.1,0.2,0.4,0.2,0.4,0.2h0.4l0.6-0.2L24.9,28c0,0-3.3,1.5-2.6,2.4
		s0.4,1.1,0.4,1.4c0,0.3,0.2,0,0.2,0l0.2-0.5l0.3-0.4l0.3-0.4l0.1-0.2l0.4-0.7l0.5-0.3l0.4,0.3c0,0,0.2,0.1,0.1,0.2
		s-0.1,0.4-0.1,0.4s0.1,0.2,0.2,0.2s0.3-0.1,0.4-0.1l0.2,0.4l0.1,0.6l0.4,0.4l0.2,0.4l-0.2,0.4l0.2,0.2l0.4,0.5l0.1,0.2h-0.7
		c0,0-0.1-0.2-0.2-0.2h-0.8L25,33.3l-0.2,0.2c0,0-0.2,0.4-0.4,0.4c-0.2,0-0.3,0-0.5-0.1c-0.2,0-0.4,0-0.4,0.2
		c-0.1,0.3,0.2,0.4,0.2,0.4L23,34.6l-0.2,0.1c0,0-0.5,0.2-0.5,0.3v0.2l-0.1,0.4v0.2l-0.4,0.3l-0.4,0.2l-0.1,0.3v0.5
		c0,0.1,0,0.3,0,0.4V38c0,0-0.1,0.2-0.2-0.2L21,37.5l0-0.2c0,0,0.1,0,0-0.2c-0.1-0.1-0.2-0.2-0.4-0.2c-0.1-0.1-0.2-0.1-0.3-0.1
		c-0.2,0,0.2,0-0.2,0h-0.4l-0.4,0.3v0.2c0,0-0.1,1.7,0.4,1.9h0.2l0.3-0.4l0.2,0.1v0.2v0.3v0.2l0.2,0.2l0.1,0.4
		c0.2,0.3,0.1,0.4,0.2,0.5s0.2,0.2,0.3,0.3l0.2,0.1l0.3,0.1H22v0.2v0.2l0.2,0.2h0.5c0,0,0,0.1,0.2,0.2s0,0,0.2,0.1s0.5,0.1,0.5,0.1
		H24l0.2,0.3c0.1,0,0.2,0.1,0.2,0.2c0,0.2-0.2,0,0,0.2s0,0,0.3,0.2s-0.1,0.1,0.3,0.1c0.2,0,0.4,0,0.6,0c0.1,0,0.2,0.4,0.2,0.4
		l0.3,0.3v0.4c0,0-0.1,0.1,0.2,0.1h0.4c0.3,0,0-0.1,0.2,0l0.3,0.1c0,0,0.4,0.3,0.6,0.3s0.4,0,0.6,0c0.1,0,0.2,0.3,0.5,0.3
		s0.4,0,0.6,0.2l0.2,0.2V46l-0.1,0.3l-0.4,0.2V47L29,47.5v0.2c0,0,0.2,0.2-0.2,0.2h-0.4l-0.2,0.2c0,0.1,0,0.1-0.1,0.2
		c-0.1,0.2-0.2,0.4-0.2,0.4v0.4v0.3l-0.1,0.2c0,0-0.1,0.1,0.2,0.3s0.7,0.2,0.8,0.4c0.1,0.1,0.2,0.2,0.3,0.3l-0.5-0.1l-0.3-0.1
		l-0.5-0.2l-1-0.5c-0.8-0.7-1.5-1.4-2-2.3c-0.3-0.4-0.7-0.7-1.1-0.9c-0.7-0.6-1.3-1.2-1.9-2l-0.1-0.3v-0.1L21.6,44v0v-0.1v-0.5v-0.3
		v-0.2v-0.1l-0.1-0.1l-0.1-0.2v-0.1l0.3-0.2L21.5,42v-0.1l0.1-0.1c0,0,0.1-0.1,0.1-0.2l-0.1-0.2h-0.1l-0.1,0.2h-0.1
		c0,0-0.1,0-0.1-0.1s-0.1-0.1-0.1-0.1H21c0,0-0.1,0-0.1-0.1s-0.1-0.1-0.1-0.1c0-0.1,0-0.1-0.1-0.2h-0.1c-0.1-0.1-0.1-0.2-0.1-0.2
		s0-0.1-0.1-0.1c-0.1-0.1-0.1-0.1-0.1-0.2c0-0.1,0-0.1-0.1-0.2h-0.1l-0.1,0l-0.1-0.2l-0.2-0.2c0-0.1-0.1-0.1-0.1-0.2l-0.1-0.1h-0.2
		l-0.1-0.1L18.9,39l-0.1-0.2l-0.1-0.3v-0.4v-0.3l-0.2-2C19.1,32.5,20.8,29.6,23.2,27.3z"/>
	<path class="st9" d="M38.4,25.6l0.4,0.4l0.2,0.1l0.2,0.2v0.2c0,0.1,0,0.1,0,0.2s0,0.2,0,0.3c0.1,0.1,0.1,0.3,0.2,0.4
		c0,0,0,0.2,0,0.3s-0.3,0.2-0.3,0.1s-0.2-0.2-0.2-0.2c-0.1,0-0.1-0.1-0.2-0.1H39v-0.2c-0.1,0-0.2-0.1-0.3-0.1s-0.3-0.1-0.3-0.1
		L38.1,27c0,0-0.4-0.1-0.5-0.1l-0.2-0.1H37c-0.1,0-0.1,0.1-0.2,0.1c-0.1,0.1-0.2,0.2-0.2,0.3v0.3c0,0.1,0,0.2-0.1,0.3
		c0,0.1,0,0.3,0,0.4l0,0v0.2l-0.2,0.1l-0.2,0.1c0,0-0.2,0.1-0.2,0.2C36,28.7,36,28.9,36,29c0.1,0.1,0,0.3,0.1,0.3s0.1,0.1,0.2,0.2
		s0,0,0.1,0s0.2,0,0.2,0s0.2,0,0.2-0.1s0,0,0-0.1s0.1-0.1,0.2,0c0.1,0.1,0.1,0.1,0.2,0.2c0,0.1,0.1,0.2,0.2,0.2
		c0.1,0,0.1,0.2,0.1,0.2l0.1,0.1c0,0,0,0,0.1,0h0.2l0.1,0h0.1v-0.1c0-0.1-0.1-0.1-0.1-0.2v-0.1v-0.1l0.1-0.1v-0.1v-0.1v-0.1L37.9,29
		c0,0-0.1,0-0.1-0.1v-0.1h-0.2l-0.1-0.1l0.2-0.1c0.1-0.1,0.1-0.2,0.1-0.2v-0.2c-0.1,0-0.1-0.1-0.1-0.1c0-0.1,0-0.1,0-0.2v-0.1
		c0,0,0-0.1,0.1-0.1c0,0,0.1,0.1,0.2,0.1l0,0v0.1V28l0.1-0.1V28v0.2v0.2l0.1,0.2l0.1,0.1l0.2,0.1c0.1,0,0.1,0.1,0.2,0.1l0.1,0.1h0.1
		l0.1-0.1h0l0,0h0.2h0.1c0,0,0.1,0.1,0,0.1s-0.1,0-0.2,0.1s-0.2,0-0.2,0l-0.1,0.1H39h0.1l0.1,0.1c0,0,0,0,0,0.1s0.1,0,0,0.1
		c-0.1,0-0.1,0-0.2,0c0,0,0-0.1-0.1-0.1l-0.1,0.1v0.1l0.1,0.2c0,0,0,0,0,0.1c-0.1,0.1-0.1,0.1-0.2,0.2l-0.1,0.1c-0.1,0-0.1,0-0.2,0
		h-0.2l-0.3,0.1c-0.1,0-0.3,0-0.5,0c0,0-0.1,0-0.2,0c0,0,0,0-0.1-0.1S37,30.1,37,30v-0.1c0-0.1,0-0.1-0.1-0.1H37
		c0,0-0.2,0.1-0.2,0.2s0,0,0.1,0.1s0.2,0.2,0.2,0.3v0.1l-0.3,0.1l-0.2,0.1v0.1v0.1c0,0.1-0.1,0.1-0.2,0.1c0,0-0.1,0-0.1,0.1
		l-0.1,0.2c-0.1,0-0.1,0-0.2,0c-0.1,0.1,0,0.1-0.2,0.1l-0.2,0.1h-0.2h-0.1c0,0-0.2,0-0.2,0.1L35,31.8v0.1c0,0,0.1,0,0.2,0
		c0.1,0,0.1,0,0.2,0.1l0.1,0.1l0.2,0.2l0.1,0.3v0.2l-0.3,0.1H35h-0.2h-0.2L34.5,33h-0.1c0,0.1,0.1,0.2,0.1,0.3v0.2v0.1l-0.1,0.2
		L34.3,34v0.1v0.1h0.2c0,0.1-0.1,0.2-0.1,0.2h0.2c0,0,0,0,0.1,0s0.1,0,0.2,0.1l0.2,0.1v0.1v-0.1c0.1,0,0.2,0,0.3,0c0,0,0.1,0,0.2,0
		h0.2h0.1l0,0c0.1,0,0.2-0.1,0.3-0.1l0.1-0.2c0,0,0.1,0,0.1-0.1c0,0,0-0.1,0-0.2v-0.1l0.1-0.1l0.1-0.1l0.1-0.1c0,0,0,0,0.1-0.1
		s0.2-0.1,0.2-0.1l0,0c0,0,0.1-0.1,0.1-0.2s0-0.3,0-0.3l0.1-0.1h0.2h0.1c0,0,0.1,0,0.2,0l0.1-0.1l0.2-0.1c0,0,0,0,0.1,0h0.4
		c0,0,0.1,0,0.1,0.1l0.1,0.2l0.1,0.1h0.1c0.1,0.1,0.2,0.1,0.3,0.2l0.3,0.1c0,0,0,0.1,0.1,0.1c0,0,0.1,0.1,0.2,0.1l0.1,0.1l0.1,0.1
		l0.1,0.1v-0.1v-0.2v-0.1c0,0-0.1-0.1,0-0.1h0.2l-0.1-0.1h-0.1l-0.2-0.1L39.3,33h-0.1h-0.1H39c0,0-0.2,0-0.2-0.1l0,0h-0.2l-0.2-0.1
		v-0.2h-0.1c0,0,0-0.1,0-0.2v-0.1h0.3l0.1,0.2l0.1,0.1l0.2,0.1l0.1,0.1l0.1,0.1h0.1h0.2c0,0,0.1,0.1,0.2,0.1l0.2,0.1l0,0l0.1,0.1
		c0.1,0,0.1,0.1,0.1,0.2c0,0.1,0,0.2,0.1,0.2s0.1,0.1,0.2,0.1c0.1,0.1,0.1,0.2,0.2,0.2s0.2,0,0.2,0.1c0,0,0,0.1,0,0.2h0.1l0.1-0.1
		c0,0,0.1-0.1,0-0.2s-0.2,0-0.2-0.1v-0.3l0.1-0.2l0.1-0.1h0.1L41,33l0.1,0.2v0.2c0,0.1,0,0.1,0.1,0.2c0,0.1,0.1,0.1,0.2,0.2l0.2,0.2
		l0.3,0.1H42l0.5-0.1h0.1l0.3,0.4v0.5l-0.2,0.2c-0.1,0-0.2,0-0.2,0.1L42,35.1h-0.2h-0.4h-0.5h-0.2c0,0-0.1,0-0.2,0.2
		c0,0.1-0.1,0.1-0.1,0.2c0,0,0,0.1-0.1,0.1s-0.1,0-0.2,0c-0.1,0-0.2-0.1-0.4-0.1l-0.3-0.2l-0.2-0.1H39h-0.4h-0.3v-0.5v0.1l-0.1-0.3
		l-0.1-0.1L38,34.3h-0.2l-0.3,0.1l-0.3,0.1H37l-0.7,0.1L36,34.7v0.1c-0.1,0-0.1,0-0.2,0h-0.2c-0.1,0-0.2,0-0.3,0s-0.2,0-0.2,0
		s-0.1,0-0.1,0.1s-0.2,0.2-0.2,0.2l-0.1,0.1l-0.1,0.2l-0.2,0.3l-0.1,0.1V36v0.1l-0.1,0.1l-0.2,0c0,0-0.1,0-0.1,0.1
		c-0.1,0-0.1,0.1-0.1,0.1c-0.1,0.1-0.1,0.1-0.2,0.2l-0.2,0.1c0,0.1-0.1,0.2-0.2,0.2c0,0.1-0.1,0.1-0.1,0.1c-0.1,0.1-0.1,0.2-0.2,0.2
		l-0.2,0.2l-0.1,0.4V38c0,0,0,0.1,0.1,0.1c0,0.1,0.1,0.1,0.1,0.2v0.2c0,0,0,0.1-0.1,0.2c0,0.1,0,0.2,0,0.3l0,0c0,0,0,0-0.1,0.1
		c0,0-0.1,0.1-0.1,0.2l0.1,0.2l0.1,0.1v0.1l0.1,0.2L33,40c0.1,0,0.1,0.1,0.2,0.1h0.1l0.1,0.2l0.1,0.1l0.2,0.2c0,0.1,0.1,0.1,0.1,0.2
		c0.1,0.1,0.2,0.1,0.2,0.2c0,0,0.1,0,0.2,0c0.1,0,0.1,0,0.2,0c0,0-0.1-0.1,0.2,0c0.2,0.1,0.3,0.2,0.5,0.2l0.2,0.1c0,0,0.3,0,0.4,0
		c0,0,0.1,0,0.2,0h0.2h0.4l0.3-0.1l0.2-0.1l0.2-0.1c0.1,0,0.2,0,0.3,0c0,0,0-0.1,0.1,0s0.1,0.1,0.1,0.1s0,0.2,0.1,0.2l0.2,0.1
		c0.1,0,0.2,0,0.3,0s0.1,0,0.2,0l0.1,0.1v0.2v0.2V42c0,0.1,0,0.1,0.1,0.2c0,0-0.1,0.1-0.1,0.2c-0.1,0-0.1,0.1-0.2,0.2l0.3,0.3
		l0.2,0.2l0.1,0.2v0.1c0,0.1,0,0.1,0,0.2c0,0.1,0,0.1,0,0.2c0,0,0,0.1,0,0.2s0,0,0,0v0.2l-0.1,0.3l-0.1,0.1l-0.2,0.2L38.5,45v0.2
		l-0.1,0.2c0,0.1,0,0.1,0,0.2c0,0.1,0.1,0.2,0.1,0.3v0.2c0,0.1-0.1,0.2-0.1,0.3s-0.1,0.2-0.1,0.2v0.2V47l0.1,0.2l-0.1,0.2
		c0,0.1,0,0.2,0,0.3s0.2,0.2,0.2,0.2c0.1,0,0.2,0,0.3-0.1l0.3-0.1c0,0,0.1,0,0.2-0.1l0.3-0.2l0.2-0.2l0.3-0.3
		c0.1-0.1,0.2-0.2,0.3-0.2c0.1-0.1,0,0,0.1-0.1s0.5-0.3,0.5-0.3l0.3-0.3l0.3-0.5c0.1-0.2,0.2-0.3,0.4-0.5c0,0,0.4-0.3,0.5-0.3
		c0.1-0.2,0.2-0.4,0.2-0.6l0.3-0.6l0.2-0.6l0.4-0.9l0.4-0.7c0.1-0.1,0.1-0.2,0.2-0.4l0.4-0.8l0.1-0.6V39h-0.3l-0.2,0.2L44,39.1h-0.2
		l0.2-0.3l-0.1-0.2l-0.2-0.2L43.4,38v-0.4l-0.3-0.5l-0.2-0.7c0,0-0.3-0.3-0.3-0.4s0.1-0.3,0.1-0.3l0.2,0.1c0,0,0.1,0.3,0.2,0.4
		s0.2,0.2,0.2,0.2c0,0.1,0,0.2,0.1,0.2l0.2,0.3l0.1,0.3c0.1,0.1,0.1,0.2,0.2,0.3c0,0.1,0.1,0.5,0.1,0.6s0.1,0.5,0.1,0.5
		s0.2,0,0.2-0.1c0,0,0-0.1,0.1-0.1c0.1-0.1,0.2-0.2,0.3-0.2l0.1-0.3c0-0.1,0.1-0.1,0.1-0.2c0.1-0.1,0.1-0.2,0.2-0.3
		c0-0.1,0-0.2,0-0.3s0.1-0.2,0.1-0.3v-0.2v-0.4l0.2-0.2l0.1-0.2C44.9,31.5,42.2,27.7,38.4,25.6z"/>
</g>
</svg>
