<?xml version="1.0" encoding="utf-8"?>
<!-- Generator: Adobe Illustrator 18.0.0, SVG Export Plug-In . SVG Version: 6.00 Build 0)  -->
<!DOCTYPE svg PUBLIC "-//W3C//DTD SVG 1.1//EN" "http://www.w3.org/Graphics/SVG/1.1/DTD/svg11.dtd">
<svg version="1.1" id="图层_1" xmlns="http://www.w3.org/2000/svg" xmlns:xlink="http://www.w3.org/1999/xlink" x="0px" y="0px"
	 viewBox="0 0 64 64" enable-background="new 0 0 64 64" xml:space="preserve">
<g opacity="8.000000e-002">
	<polygon fill="#040000" points="23.2,35.5 20.1,27 12.2,33.2 17.4,33.9 	"/>
	<polygon fill="#040000" points="35.7,54.9 35.7,54.8 35.6,54.9 	"/>
	<polygon fill="#040000" points="34.1,39.2 34.3,39.3 34.3,39.1 	"/>
	<polygon fill="#040000" points="34.3,39.3 42.1,42.6 44.2,37.1 34.1,39.2 	"/>
	<polygon fill="#040000" points="21.8,41.9 34.1,39.2 23.2,35.5 	"/>
	<polygon fill="#040000" points="12.2,33.2 13.7,43.8 17.4,33.9 	"/>
	<polygon fill="#040000" points="17.4,33.9 13.7,43.8 23.2,35.5 	"/>
	<polygon fill="#040000" points="13.7,43.8 21.8,41.9 23.2,35.5 	"/>
	<polygon fill="#040000" points="21.9,17.2 21.9,17.2 21.9,17.2 	"/>
	<polygon fill="#040000" points="20.1,27 26.5,27.2 26.7,22.8 	"/>
	<polygon fill="#040000" points="33.9,32.8 26.5,27.2 23.2,35.5 	"/>
	<polygon fill="#040000" points="22,17.1 21.9,17.2 21.9,17.2 	"/>
	<polygon fill="#040000" points="23.2,35.5 26.5,27.2 20.1,27 	"/>
	<polygon fill="#040000" points="35.6,58.1 35.6,54.9 35.6,54.9 32.8,53.2 	"/>
	<polygon fill="#040000" points="27.7,58 35.6,58.1 32.8,53.2 	"/>
	<polygon fill="#040000" points="32.8,53.2 35.6,54.9 35.7,54.8 37.8,47.1 	"/>
	<polygon fill="#040000" points="45.3,57.4 51.1,51.9 43.9,52.7 	"/>
	<polygon fill="#040000" points="37.6,62 45.7,62 45.3,57.4 40.2,58.6 45.5,61.7 40.2,58.6 45.3,57.4 43.9,52.7 	"/>
	<polygon fill="#040000" points="35.7,54.8 41.6,50 37.8,47.1 	"/>
	<polygon fill="#040000" points="51.1,51.9 48.2,45.7 43.9,52.7 	"/>
	<polygon fill="#040000" points="6.6,59.9 14.2,59.9 9.4,56.4 	"/>
	<polygon fill="#040000" points="32.9,3.5 25.3,11.3 29.1,9.8 	"/>
	<polygon fill="#040000" points="26.2,6.2 18.6,14 23.5,11 	"/>
	<polygon fill="#040000" points="41.7,50 43.9,52.7 48.2,45.7 37.8,47.1 	"/>
	<polygon fill="#040000" points="29.1,9.8 25.3,11.3 29.7,13.2 	"/>
	<polygon fill="#040000" points="24.3,11.2 26.2,6.2 23.5,11 	"/>
	<polygon fill="#040000" points="29.7,13.2 32.9,3.5 29.1,9.8 	"/>
	<polygon fill="#040000" points="12.1,53.2 9.4,56.4 15.2,52.8 10.4,49.3 	"/>
	<polygon fill="#040000" points="12.3,25.6 12.2,33.2 20.1,27 	"/>
	<polygon fill="#040000" points="14.2,59.9 15.2,52.8 9.4,56.4 	"/>
	<polygon fill="#040000" points="48.2,45.7 47.8,38.3 42.1,42.6 	"/>
	<polygon fill="#040000" points="37.8,47.1 48.2,45.7 42.1,42.6 	"/>
	<polygon fill="#040000" points="42.1,42.6 47.8,38.3 44.2,37.1 	"/>
	<polygon fill="#040000" points="47.8,38.3 53.8,34.8 51.6,33.1 	"/>
	<polygon fill="#040000" points="33.5,44.3 37.8,47.1 42.1,42.6 	"/>
	<polygon fill="#040000" points="47.4,35.4 44.2,37.1 47.8,38.3 51.6,33.1 	"/>
	<polygon fill="#040000" points="29.3,46.5 33.5,44.3 21.8,41.9 	"/>
	<polygon fill="#040000" points="34.1,39.2 33.5,44.3 42.1,42.6 	"/>
	<polygon fill="#040000" points="34.1,39.2 21.8,41.9 33.5,44.3 	"/>
	<polygon fill="#040000" points="58.7,29.9 63,24.4 55.9,26.6 58.6,30 	"/>
	<polygon fill="#040000" points="57.1,35.4 61.7,33.8 58.6,30 	"/>
	<polygon fill="#040000" points="58.6,30 53.8,34.8 57.1,35.4 	"/>
	<polygon fill="#040000" points="51.6,33.1 53.8,34.8 55.9,26.6 	"/>
	<polygon fill="#040000" points="58.6,30 58.6,30 61.7,33.8 63,24.4 	"/>
	<polygon fill="#040000" points="55.9,26.6 53.8,34.8 58.6,30 	"/>
	<polygon fill="#040000" points="23.5,48.9 29.3,46.5 21.8,41.9 	"/>
	<polygon fill="#040000" points="20.1,27 12.4,17.7 12.3,25.6 	"/>
	<polygon fill="#040000" points="18.7,13.8 12.4,17.7 19.3,19.4 	"/>
	<polygon fill="#040000" points="19.3,19.4 12.4,17.7 20.1,27 	"/>
	<polygon fill="#040000" points="12.3,25.6 12.4,17.7 9.4,24.1 12.3,25.6 	"/>
	<polygon fill="#040000" points="20.1,27 21.9,17.2 21.9,17.2 18.7,13.8 19.3,19.4 	"/>
	<polygon fill="#040000" points="21.9,17.2 23.5,11 18.7,13.8 21.9,17.2 	"/>
	<polygon fill="#040000" points="9.4,24.1 5.2,31.4 12.3,25.6 	"/>
	<polygon fill="#040000" points="12.3,25.6 12.3,25.6 5.2,31.4 12.2,33.2 	"/>
	<polygon fill="#040000" points="15.2,52.8 18.4,48 13.7,43.8 	"/>
	<polygon fill="#040000" points="18.4,48 23.5,48.9 21.8,41.9 	"/>
	<polygon fill="#040000" points="10.4,49.3 15.2,52.8 13.7,43.8 	"/>
	<polygon fill="#040000" points="13.7,43.8 18.4,48 21.8,41.9 	"/>
	<polygon fill="#040000" points="5.2,31.4 9.2,41.5 12.2,33.2 	"/>
	<polygon fill="#040000" points="9.2,41.5 10.4,49.3 13.7,43.8 	"/>
	<polygon fill="#040000" points="12.2,33.2 9.2,41.5 13.7,43.8 	"/>
	<polygon fill="#040000" points="44.2,37.1 33.9,32.8 34.1,39.2 	"/>
	<polygon fill="#040000" points="34.1,39.2 34.1,39.2 33.9,32.8 23.2,35.5 	"/>
	<polygon fill="#040000" points="21.9,17.2 20.1,27 26.7,22.8 	"/>
	<polygon fill="#040000" points="21.9,17.2 26.7,22.8 31.5,20.4 21.9,17.2 	"/>
	<polygon fill="#040000" points="26.5,27.2 31.5,20.4 26.7,22.8 	"/>
	<polygon fill="#040000" points="21.9,17.2 31.5,20.4 29.7,13.2 	"/>
	<polygon fill="#040000" points="29.7,13.2 25.3,11.3 23.5,11 21.9,17.2 	"/>
</g>
<g opacity="0.1">
	<polygon fill="#040000" points="22.2,35 19.1,26.5 11.2,32.7 16.4,33.4 	"/>
	<polygon fill="#040000" points="34.7,54.4 34.7,54.3 34.6,54.4 	"/>
	<polygon fill="#040000" points="33.1,38.7 33.3,38.8 33.3,38.6 	"/>
	<polygon fill="#040000" points="33.3,38.8 41.1,42.1 43.3,36.6 33.1,38.7 	"/>
	<polygon fill="#040000" points="20.8,41.4 33.1,38.7 22.2,35 	"/>
	<polygon fill="#040000" points="11.2,32.7 12.7,43.3 16.4,33.4 	"/>
	<polygon fill="#040000" points="16.4,33.4 12.7,43.3 22.2,35 	"/>
	<polygon fill="#040000" points="12.7,43.3 20.8,41.4 22.2,35 	"/>
	<polygon fill="#040000" points="20.9,16.7 20.9,16.7 20.9,16.7 	"/>
	<polygon fill="#040000" points="19.1,26.5 25.6,26.7 25.7,22.3 	"/>
	<polygon fill="#040000" points="32.9,32.3 25.6,26.7 22.2,35 	"/>
	<polygon fill="#040000" points="21,16.6 20.9,16.7 20.9,16.7 	"/>
	<polygon fill="#040000" points="22.2,35 25.6,26.7 19.1,26.5 	"/>
	<polygon fill="#040000" points="34.6,57.6 34.6,54.4 34.6,54.4 31.8,52.7 	"/>
	<polygon fill="#040000" points="26.7,57.5 34.6,57.6 31.8,52.7 	"/>
	<polygon fill="#040000" points="31.8,52.7 34.6,54.4 34.7,54.3 36.8,46.6 	"/>
	<polygon fill="#040000" points="44.3,56.9 50.1,51.4 42.9,52.2 	"/>
	<polygon fill="#040000" points="36.6,61.5 44.7,61.5 44.3,56.9 39.2,58.1 44.5,61.2 39.2,58.1 44.3,56.9 42.9,52.2 	"/>
	<polygon fill="#040000" points="34.7,54.3 40.6,49.5 36.8,46.6 	"/>
	<polygon fill="#040000" points="50.1,51.4 47.2,45.2 42.9,52.2 	"/>
	<polygon fill="#040000" points="5.6,59.4 13.3,59.4 8.4,56 	"/>
	<polygon fill="#040000" points="31.9,3 24.3,10.8 28.1,9.3 	"/>
	<polygon fill="#040000" points="25.3,5.7 17.6,13.5 22.5,10.5 	"/>
	<polygon fill="#040000" points="40.7,49.5 42.9,52.2 47.2,45.2 36.8,46.6 	"/>
	<polygon fill="#040000" points="28.1,9.3 24.3,10.8 28.7,12.7 	"/>
	<polygon fill="#040000" points="23.3,10.7 25.3,5.7 22.5,10.5 	"/>
	<polygon fill="#040000" points="28.7,12.7 31.9,3 28.1,9.3 	"/>
	<polygon fill="#040000" points="11.1,52.7 8.4,56 14.2,52.3 9.4,48.8 	"/>
	<polygon fill="#040000" points="11.3,25.1 11.2,32.7 19.1,26.5 	"/>
	<polygon fill="#040000" points="13.3,59.4 14.2,52.3 8.4,56 	"/>
	<polygon fill="#040000" points="47.2,45.2 46.8,37.8 41.1,42.1 	"/>
	<polygon fill="#040000" points="36.8,46.6 47.2,45.2 41.1,42.1 	"/>
	<polygon fill="#040000" points="41.1,42.1 46.8,37.8 43.3,36.6 	"/>
	<polygon fill="#040000" points="46.8,37.8 52.8,34.3 50.6,32.6 	"/>
	<polygon fill="#040000" points="32.5,43.8 36.8,46.6 41.1,42.1 	"/>
	<polygon fill="#040000" points="46.4,34.9 43.3,36.6 46.8,37.8 50.6,32.6 	"/>
	<polygon fill="#040000" points="28.3,46 32.5,43.8 20.8,41.4 	"/>
	<polygon fill="#040000" points="33.1,38.7 32.5,43.8 41.1,42.1 	"/>
	<polygon fill="#040000" points="33.1,38.7 20.8,41.4 32.5,43.8 	"/>
	<polygon fill="#040000" points="57.7,29.4 62,23.9 54.9,26.1 57.6,29.5 	"/>
	<polygon fill="#040000" points="56.1,34.9 60.7,33.3 57.6,29.5 	"/>
	<polygon fill="#040000" points="57.6,29.5 52.8,34.3 56.1,34.9 	"/>
	<polygon fill="#040000" points="50.6,32.6 52.8,34.3 54.9,26.1 	"/>
	<polygon fill="#040000" points="57.6,29.5 57.6,29.5 60.7,33.3 62,23.9 	"/>
	<polygon fill="#040000" points="54.9,26.1 52.8,34.3 57.6,29.5 	"/>
	<polygon fill="#040000" points="22.5,48.4 28.3,46 20.8,41.4 	"/>
	<polygon fill="#040000" points="19.1,26.5 11.4,17.2 11.3,25.1 	"/>
	<polygon fill="#040000" points="17.7,13.3 11.4,17.2 18.3,18.9 	"/>
	<polygon fill="#040000" points="18.3,18.9 11.4,17.2 19.1,26.5 	"/>
	<polygon fill="#040000" points="11.3,25.1 11.4,17.2 8.4,23.6 11.3,25.1 	"/>
	<polygon fill="#040000" points="19.1,26.5 20.9,16.7 20.9,16.7 17.7,13.3 18.3,18.9 	"/>
	<polygon fill="#040000" points="20.9,16.7 22.5,10.5 17.7,13.3 20.9,16.7 	"/>
	<polygon fill="#040000" points="8.4,23.6 4.2,30.9 11.3,25.1 	"/>
	<polygon fill="#040000" points="11.3,25.1 11.3,25.1 4.2,30.9 11.2,32.7 	"/>
	<polygon fill="#040000" points="14.2,52.3 17.4,47.5 12.7,43.3 	"/>
	<polygon fill="#040000" points="17.4,47.5 22.5,48.4 20.8,41.4 	"/>
	<polygon fill="#040000" points="9.4,48.8 14.2,52.3 12.7,43.3 	"/>
	<polygon fill="#040000" points="12.7,43.3 17.4,47.5 20.8,41.4 	"/>
	<polygon fill="#040000" points="4.2,30.9 8.2,41 11.2,32.7 	"/>
	<polygon fill="#040000" points="8.2,41 9.4,48.8 12.7,43.3 	"/>
	<polygon fill="#040000" points="11.2,32.7 8.2,41 12.7,43.3 	"/>
	<polygon fill="#040000" points="43.3,36.6 32.9,32.3 33.1,38.7 	"/>
	<polygon fill="#040000" points="33.1,38.7 33.1,38.7 32.9,32.3 22.2,35 	"/>
	<polygon fill="#040000" points="20.9,16.7 19.1,26.5 25.7,22.3 	"/>
	<polygon fill="#040000" points="20.9,16.7 25.7,22.3 30.5,19.9 20.9,16.7 	"/>
	<polygon fill="#040000" points="25.6,26.7 30.5,19.9 25.7,22.3 	"/>
	<polygon fill="#040000" points="20.9,16.7 30.5,19.9 28.7,12.7 	"/>
	<polygon fill="#040000" points="28.7,12.7 24.3,10.8 22.5,10.5 20.9,16.7 	"/>
</g>
<g opacity="0.2">
	<polygon fill="#040000" points="21.2,34.5 18.1,26 10.2,32.2 15.4,32.9 	"/>
	<polygon fill="#040000" points="33.7,53.9 33.7,53.8 33.6,53.9 	"/>
	<polygon fill="#040000" points="32.1,38.2 32.3,38.3 32.3,38.1 	"/>
	<polygon fill="#040000" points="32.3,38.3 40.1,41.6 42.3,36.1 32.1,38.2 	"/>
	<polygon fill="#040000" points="19.9,40.9 32.1,38.2 21.2,34.5 	"/>
	<polygon fill="#040000" points="10.2,32.2 11.7,42.8 15.4,32.9 	"/>
	<polygon fill="#040000" points="15.4,32.9 11.7,42.8 21.2,34.5 	"/>
	<polygon fill="#040000" points="11.7,42.8 19.9,40.9 21.2,34.5 	"/>
	<polygon fill="#040000" points="19.9,16.2 20,16.2 20,16.2 	"/>
	<polygon fill="#040000" points="18.1,26 24.6,26.2 24.7,21.8 	"/>
	<polygon fill="#040000" points="32,31.8 24.6,26.2 21.2,34.5 	"/>
	<polygon fill="#040000" points="20,16.1 19.9,16.2 20,16.2 	"/>
	<polygon fill="#040000" points="21.2,34.5 24.6,26.2 18.1,26 	"/>
	<polygon fill="#040000" points="33.6,57.1 33.6,53.9 33.6,53.9 30.8,52.2 	"/>
	<polygon fill="#040000" points="25.7,57 33.6,57.1 30.8,52.2 	"/>
	<polygon fill="#040000" points="30.8,52.2 33.6,53.9 33.7,53.8 35.8,46.1 	"/>
	<polygon fill="#040000" points="43.3,56.4 49.2,50.9 41.9,51.7 	"/>
	<polygon fill="#040000" points="35.6,61 43.7,61 43.3,56.4 38.2,57.6 43.5,60.7 38.2,57.6 43.3,56.4 41.9,51.7 	"/>
	<polygon fill="#040000" points="33.7,53.8 39.6,49 35.8,46.1 	"/>
	<polygon fill="#040000" points="49.2,50.9 46.2,44.7 41.9,51.7 	"/>
	<polygon fill="#040000" points="4.6,58.9 12.3,58.9 7.5,55.5 	"/>
	<polygon fill="#040000" points="30.9,2.5 23.3,10.3 27.1,8.8 	"/>
	<polygon fill="#040000" points="24.3,5.2 16.6,13 21.5,10 	"/>
	<polygon fill="#040000" points="39.7,49 41.9,51.7 46.2,44.7 35.8,46.1 	"/>
	<polygon fill="#040000" points="27.1,8.8 23.3,10.3 27.7,12.2 	"/>
	<polygon fill="#040000" points="22.3,10.2 24.3,5.2 21.5,10 	"/>
	<polygon fill="#040000" points="27.7,12.2 30.9,2.5 27.1,8.8 	"/>
	<polygon fill="#040000" points="10.1,52.2 7.5,55.5 13.3,51.8 8.4,48.3 	"/>
	<polygon fill="#040000" points="10.3,24.6 10.2,32.2 18.1,26 	"/>
	<polygon fill="#040000" points="12.3,58.9 13.3,51.8 7.5,55.5 	"/>
	<polygon fill="#040000" points="46.2,44.7 45.8,37.3 40.1,41.6 	"/>
	<polygon fill="#040000" points="35.8,46.1 46.2,44.7 40.1,41.6 	"/>
	<polygon fill="#040000" points="40.1,41.6 45.8,37.3 42.3,36.1 	"/>
	<polygon fill="#040000" points="45.8,37.3 51.8,33.8 49.6,32.1 	"/>
	<polygon fill="#040000" points="31.6,43.3 35.8,46.1 40.1,41.6 	"/>
	<polygon fill="#040000" points="45.4,34.4 42.3,36.1 45.8,37.3 49.6,32.1 	"/>
	<polygon fill="#040000" points="27.3,45.5 31.6,43.3 19.9,40.9 	"/>
	<polygon fill="#040000" points="32.1,38.2 31.6,43.3 40.1,41.6 	"/>
	<polygon fill="#040000" points="32.1,38.2 19.9,40.9 31.6,43.3 	"/>
	<polygon fill="#040000" points="56.7,28.9 61,23.4 53.9,25.7 56.6,29 	"/>
	<polygon fill="#040000" points="55.2,34.4 59.7,32.8 56.6,29 	"/>
	<polygon fill="#040000" points="56.6,29 51.8,33.8 55.2,34.4 	"/>
	<polygon fill="#040000" points="49.6,32.1 51.8,33.8 53.9,25.7 	"/>
	<polygon fill="#040000" points="56.6,29 56.6,29 59.7,32.8 61,23.4 	"/>
	<polygon fill="#040000" points="53.9,25.7 51.8,33.8 56.6,29 	"/>
	<polygon fill="#040000" points="21.5,47.9 27.3,45.5 19.9,40.9 	"/>
	<polygon fill="#040000" points="18.1,26 10.4,16.7 10.3,24.6 	"/>
	<polygon fill="#040000" points="16.7,12.8 10.4,16.7 17.3,18.4 	"/>
	<polygon fill="#040000" points="17.3,18.4 10.4,16.7 18.1,26 	"/>
	<polygon fill="#040000" points="10.3,24.6 10.4,16.7 7.5,23.1 10.3,24.6 	"/>
	<polygon fill="#040000" points="18.1,26 20,16.2 19.9,16.2 16.7,12.8 17.3,18.4 	"/>
	<polygon fill="#040000" points="20,16.2 21.5,10 16.7,12.8 19.9,16.2 	"/>
	<polygon fill="#040000" points="7.5,23.1 3.2,30.4 10.3,24.6 	"/>
	<polygon fill="#040000" points="10.3,24.6 10.3,24.6 3.2,30.4 10.2,32.2 	"/>
	<polygon fill="#040000" points="13.3,51.8 16.4,47 11.7,42.8 	"/>
	<polygon fill="#040000" points="16.4,47 21.5,47.9 19.9,40.9 	"/>
	<polygon fill="#040000" points="8.4,48.3 13.3,51.8 11.7,42.8 	"/>
	<polygon fill="#040000" points="11.7,42.8 16.4,47 19.9,40.9 	"/>
	<polygon fill="#040000" points="3.2,30.4 7.2,40.5 10.2,32.2 	"/>
	<polygon fill="#040000" points="7.2,40.5 8.4,48.3 11.7,42.8 	"/>
	<polygon fill="#040000" points="10.2,32.2 7.2,40.5 11.7,42.8 	"/>
	<polygon fill="#040000" points="42.3,36.1 32,31.8 32.1,38.2 	"/>
	<polygon fill="#040000" points="32.1,38.2 32.1,38.2 32,31.8 21.2,34.5 	"/>
	<polygon fill="#040000" points="20,16.2 18.1,26 24.7,21.8 	"/>
	<polygon fill="#040000" points="20,16.2 24.7,21.8 29.5,19.4 20,16.2 	"/>
	<polygon fill="#040000" points="24.6,26.2 29.5,19.4 24.7,21.8 	"/>
	<polygon fill="#040000" points="20,16.2 29.5,19.4 27.7,12.2 	"/>
	<polygon fill="#040000" points="27.7,12.2 23.3,10.3 21.5,10 20,16.2 	"/>
</g>
<g>
	<polygon fill="#AFD9E9" points="19.8,34 16.6,25.5 8.3,31.7 13.7,32.4 	"/>
	<polygon fill="none" points="32.7,53.4 32.7,53.3 32.7,53.4 	"/>
	<polygon fill="none" stroke="#231815" stroke-width="0.8829" points="31.1,37.7 31.4,37.8 31.4,37.7 	"/>
	<polygon fill="#1E95D4" points="31.4,37.8 39.4,41.1 41.7,35.6 31.1,37.7 	"/>
	<polygon fill="#AFD9E9" points="18.4,40.4 31.1,37.7 19.8,34 	"/>
	<polygon fill="#1E95D4" points="8.3,31.7 9.9,42.3 13.7,32.4 	"/>
	<polygon fill="#1888CA" points="13.7,32.4 9.9,42.3 19.8,34 	"/>
	<polygon fill="#1E95D4" points="9.9,42.3 18.4,40.4 19.8,34 	"/>
	<polygon fill="none" stroke="#231815" stroke-width="0.8829" points="18.4,15.7 18.5,15.7 18.5,15.7 	"/>
	<polygon fill="#0A5DA4" points="16.6,25.5 23.3,25.8 23.4,21.3 	"/>
	<polygon fill="#1888CA" points="31,31.3 23.3,25.8 19.8,34 	"/>
	<polygon fill="none" stroke="#231815" stroke-width="0.8829" points="18.5,15.6 18.4,15.7 18.5,15.7 	"/>
	<polygon fill="#1E95D4" points="19.8,34 23.3,25.8 16.6,25.5 	"/>
	<polygon fill="#0A5DA4" points="32.6,56.6 32.7,53.4 32.7,53.4 29.8,51.7 	"/>
	<polygon fill="#00417A" points="24.4,56.5 32.6,56.6 29.8,51.7 	"/>
	<polygon fill="#00417A" points="29.8,51.7 32.7,53.4 32.7,53.3 34.9,45.6 	"/>
	<polygon fill="#0A5DA4" points="42.8,55.9 48.9,50.4 41.3,51.2 	"/>
	<polygon fill="#00417A" points="34.7,60.5 43.2,60.5 42.8,55.9 37.5,57.1 43,60.2 37.5,57.1 42.8,55.9 41.3,51.2 	"/>
	<polygon fill="#0A5DA4" points="32.7,53.3 38.9,48.5 34.9,45.6 	"/>
	<polygon fill="#00417A" points="48.9,50.4 45.8,44.2 41.3,51.2 	"/>
	<polygon fill="#00417A" points="2.4,58.4 10.5,58.4 5.4,55 	"/>
	<polygon fill="#1888CA" points="29.9,2 22,9.8 26,8.3 	"/>
	<polygon fill="#1888CA" points="22.9,4.7 15,12.5 20.1,9.5 	"/>
	<polygon fill="#1888CA" points="39,48.5 41.3,51.2 45.8,44.2 34.9,45.6 	"/>
	<polygon fill="#1E95D4" points="26,8.3 22,9.8 26.5,11.7 	"/>
	<polygon fill="#AFD9E9" points="20.8,9.7 22.9,4.7 20,9.5 	"/>
	<polygon fill="#AFD9E9" points="26.5,11.7 29.9,2 26,8.3 	"/>
	<polygon fill="#1888CA" points="8.2,51.7 5.4,55 11.5,51.3 6.5,47.8 	"/>
	<polygon fill="#1E95D4" points="8.4,24.1 8.3,31.7 16.6,25.5 	"/>
	<polygon fill="#0A5DA4" points="10.5,58.4 11.5,51.3 5.4,55 	"/>
	<polygon fill="#0A5DA4" points="45.8,44.2 45.4,36.8 39.4,41.1 	"/>
	<polygon fill="#1E95D4" points="34.9,45.6 45.8,44.2 39.4,41.1 	"/>
	<polygon fill="#1888CA" points="39.4,41.1 45.4,36.8 41.7,35.6 	"/>
	<polygon fill="#1888CA" points="45.4,36.8 51.6,33.3 49.4,31.6 	"/>
	<polygon fill="#0A5DA4" points="30.6,42.8 34.9,45.6 39.4,41.1 	"/>
	<polygon fill="#1E95D4" points="44.9,33.9 41.7,35.6 45.4,36.8 49.4,31.6 	"/>
	<polygon fill="#00417A" points="26.1,45 30.6,42.8 18.4,40.4 	"/>
	<polygon fill="#1888CA" points="31.1,37.7 30.6,42.8 39.4,41.1 	"/>
	<polygon fill="#0A5DA4" points="31.1,37.7 18.4,40.4 30.6,42.8 	"/>
	<polygon fill="#AFD9E9" points="56.7,28.4 61.2,22.9 53.8,25.2 56.6,28.5 	"/>
	<polygon fill="#1888CA" points="55.1,33.9 59.8,32.3 56.6,28.5 	"/>
	<polygon fill="#0A5DA4" points="56.6,28.5 51.6,33.3 55.1,33.9 	"/>
	<polygon fill="#1E95D4" points="49.4,31.6 51.6,33.3 53.8,25.2 	"/>
	<polygon fill="#1E95D4" points="56.6,28.5 56.6,28.5 59.8,32.3 61.2,22.9 	"/>
	<polygon fill="#1888CA" points="53.8,25.2 51.6,33.3 56.6,28.5 	"/>
	<polygon fill="#1888CA" points="20,47.4 26.1,45 18.4,40.4 	"/>
	<polygon fill="#1888CA" points="16.6,25.5 8.6,16.2 8.4,24.1 	"/>
	<polygon fill="#1888CA" points="15,12.3 8.6,16.2 15.7,17.9 	"/>
	<polygon fill="#1E95D4" points="15.7,17.9 8.6,16.2 16.6,25.5 	"/>
	<polygon fill="#1E95D4" points="8.4,24.1 8.6,16.2 5.5,22.6 8.4,24.1 	"/>
	<polygon fill="#0A5DA4" points="16.6,25.5 18.5,15.7 18.4,15.7 15,12.3 15.7,17.9 	"/>
	<polygon fill="#1E95D4" points="18.5,15.7 20.1,9.5 15,12.3 18.4,15.7 	"/>
	<polygon fill="#0A5DA4" points="5.5,22.6 1,29.9 8.4,24.1 	"/>
	<polygon fill="#1888CA" points="8.4,24.1 8.4,24.1 1,29.9 8.3,31.7 	"/>
	<polygon fill="#00417A" points="11.5,51.3 14.7,46.5 9.9,42.3 	"/>
	<polygon fill="#1E95D4" points="14.7,46.5 20,47.4 18.4,40.4 	"/>
	<polygon fill="#0A5DA4" points="6.5,47.8 11.5,51.3 9.9,42.3 	"/>
	<polygon fill="#0A5DA4" points="9.9,42.3 14.7,46.5 18.4,40.4 	"/>
	<polygon fill="#0A5DA4" points="1,29.9 5.2,40 8.3,31.7 	"/>
	<polygon fill="#1E95D4" points="5.2,40 6.5,47.8 9.9,42.3 	"/>
	<polygon fill="#1888CA" points="8.3,31.7 5.2,40 9.9,42.3 	"/>
	<polygon fill="#AFD9E9" points="41.7,35.6 31,31.3 31.1,37.7 	"/>
	<polygon fill="#1E95D4" points="31.1,37.7 31.1,37.7 31,31.3 19.8,34 	"/>
	<polygon fill="#1888CA" points="18.5,15.7 16.6,25.5 23.4,21.3 	"/>
	<polygon fill="#1E95D4" points="18.5,15.7 23.4,21.3 28.4,18.9 18.5,15.7 	"/>
	<polygon fill="#AFD9E9" points="23.3,25.8 28.4,18.9 23.4,21.3 	"/>
	<polygon fill="#AFD9E9" points="18.5,15.7 28.4,18.9 26.5,11.7 	"/>
	<polygon fill="#1888CA" points="26.5,11.7 22,9.8 20.1,9.5 18.5,15.7 	"/>
</g>
</svg>
