<?xml version="1.0" encoding="utf-8"?>
<!-- Generator: Adobe Illustrator 21.0.0, SVG Export Plug-In . SVG Version: 6.00 Build 0)  -->
<svg version="1.1" id="图层_39" xmlns="http://www.w3.org/2000/svg" xmlns:xlink="http://www.w3.org/1999/xlink" x="0px" y="0px"
	 viewBox="0 0 64 64" style="enable-background:new 0 0 64 64;" xml:space="preserve">
<style type="text/css">
	.st0{fill:url(#SVGID_1_);}
	.st1{opacity:0.2;enable-background:new    ;}
	.st2{opacity:0.08;enable-background:new    ;}
	.st3{opacity:0.1;enable-background:new    ;}
	.st4{fill:#F57F17;}
	.st5{fill:url(#SVGID_2_);}
</style>
<title>user-bookmarks64</title>
<radialGradient id="SVGID_1_" cx="31.9875" cy="758.77" r="27.8959" gradientTransform="matrix(1 0 0 1 0 -726.72)" gradientUnits="userSpaceOnUse">
	<stop  offset="0" style="stop-color:#FFFF00"/>
	<stop  offset="0.06" style="stop-color:#FFFC09"/>
	<stop  offset="0.34" style="stop-color:#FDEF2E"/>
	<stop  offset="0.6" style="stop-color:#FBE54A"/>
	<stop  offset="0.83" style="stop-color:#FADF5A"/>
	<stop  offset="1" style="stop-color:#FADD60"/>
</radialGradient>
<path class="st0" d="M60.4,25.8c0.1-0.1,0.1-0.2,0-0.3l-0.1-0.1L41,22.6c-0.1,0-0.1-0.1-0.2-0.1L32.2,4.9c-0.1-0.1-0.2-0.2-0.3-0.1
	l-0.1,0.1l-8.6,17.6c0,0.1-0.1,0.1-0.2,0.1L3.7,25.4c-0.1,0-0.2,0.1-0.2,0.3c0,0.1,0,0.1,0.1,0.1l14,13.7c0.1,0.1,0.1,0.1,0.1,0.2
	L14.3,59c0,0.1,0.1,0.3,0.2,0.3h0.1l17.3-9.1c0.1,0,0.2,0,0.2,0l17.3,9.1c0.1,0.1,0.3,0,0.3-0.1v-0.1l-3.3-19.3c0-0.1,0-0.2,0.1-0.2
	L60.4,25.8z"/>
<path class="st1" d="M49.5,60.7c-0.3,0-0.6-0.1-0.8-0.2L32,51.7l-16.7,8.8c-0.9,0.4-1.9,0.1-2.3-0.7c-0.2-0.3-0.2-0.7-0.2-1.1
	L16,40.1L2.5,26.9c-0.7-0.7-0.7-1.8-0.1-2.5c0.3-0.3,0.7-0.5,1.1-0.5l18.6-2.7l8.3-17c0.4-0.9,1.5-1.2,2.3-0.8
	c0.3,0.2,0.6,0.4,0.8,0.8l8.3,17l18.6,2.7c1,0.1,1.6,1,1.5,1.9c0,0.4-0.2,0.8-0.5,1.1L48,40.1l3.2,18.7c0.1,1-0.5,1.8-1.5,2
	C49.6,60.7,49.6,60.7,49.5,60.7L49.5,60.7z"/>
<path class="st2" d="M50.5,62.7c-0.4,0-0.9-0.1-1.3-0.3L33,53.9l-16.2,8.5c-1.3,0.7-3,0.2-3.7-1.1c-0.3-0.5-0.4-1.2-0.3-1.8
	l3.1-18.1L2.8,28.6c-1.1-1.1-1.1-2.8,0-3.9c0.4-0.4,1-0.7,1.6-0.8l18.1-2.6l8.1-16.5c0.7-1.4,2.3-1.9,3.7-1.3c0.5,0.3,1,0.7,1.3,1.3
	l8.1,16.5l18.1,2.6c1.5,0.2,2.5,1.6,2.3,3.1c-0.1,0.6-0.4,1.1-0.8,1.6L50.1,41.4l3.1,18.1c0.3,1.5-0.7,2.9-2.2,3.2
	C50.8,62.7,50.6,62.7,50.5,62.7L50.5,62.7z"/>
<path class="st3" d="M50.5,61.7c-0.3,0-0.6-0.1-0.8-0.2L33,52.7l-16.7,8.8c-0.9,0.4-1.9,0.1-2.3-0.7c-0.2-0.3-0.2-0.7-0.2-1.1
	L17,41.1L3.5,27.9c-0.7-0.7-0.7-1.8-0.1-2.5c0.3-0.3,0.7-0.5,1.1-0.5l18.6-2.7l8.3-17c0.4-0.9,1.5-1.2,2.3-0.8
	c0.3,0.2,0.6,0.4,0.8,0.8l8.3,17l18.6,2.7c1,0.1,1.6,1,1.5,1.9c0,0.4-0.2,0.8-0.5,1.1L49,41.1l3.2,18.7c0.1,1-0.5,1.8-1.5,2
	C50.6,61.7,50.6,61.7,50.5,61.7L50.5,61.7z"/>
<path class="st4" d="M49.5,59.7c-0.1,0-0.2,0-0.3-0.1l-17.1-9l-17.1,9c-0.4,0.2-0.8,0-1-0.3c-0.1-0.1-0.1-0.3-0.1-0.5l3.3-19.2
	l-14-13.5c-0.3-0.3-0.3-0.8,0-1c0.1-0.1,0.3-0.2,0.4-0.2l19.1-2.8l8.6-17.4c0.2-0.4,0.6-0.5,1-0.3c0.1,0.1,0.3,0.2,0.3,0.3l8.6,17.4
	l19.1,2.8c0.4,0.1,0.7,0.4,0.6,0.8c0,0.2-0.1,0.3-0.2,0.4L46.9,39.7l3.3,19.2c0.1,0.4-0.2,0.8-0.6,0.9
	C49.6,59.7,49.5,59.7,49.5,59.7z"/>
<radialGradient id="SVGID_2_" cx="31.9875" cy="758.77" r="27.8959" gradientTransform="matrix(1 0 0 1 0 -726.72)" gradientUnits="userSpaceOnUse">
	<stop  offset="0" style="stop-color:#FFFF00"/>
	<stop  offset="0.06" style="stop-color:#FFFC09"/>
	<stop  offset="0.34" style="stop-color:#FDEF2E"/>
	<stop  offset="0.6" style="stop-color:#FBE54A"/>
	<stop  offset="0.83" style="stop-color:#FADF5A"/>
	<stop  offset="1" style="stop-color:#FADD60"/>
</radialGradient>
<path class="st5" d="M60.4,25.8c0.1-0.1,0.1-0.2,0-0.3l-0.1-0.1L41,22.6c-0.1,0-0.1-0.1-0.2-0.1L32.2,4.9c-0.1-0.1-0.2-0.2-0.3-0.1
	l-0.1,0.1l-8.6,17.6c0,0.1-0.1,0.1-0.2,0.1L3.7,25.4c-0.1,0-0.2,0.1-0.2,0.3c0,0.1,0,0.1,0.1,0.1l14,13.7c0.1,0.1,0.1,0.1,0.1,0.2
	L14.3,59c0,0.1,0.1,0.3,0.2,0.3h0.1l17.3-9.1c0.1,0,0.2,0,0.2,0l17.3,9.1c0.1,0.1,0.3,0,0.3-0.1v-0.1l-3.3-19.3c0-0.1,0-0.2,0.1-0.2
	L60.4,25.8z"/>
</svg>
