<?xml version="1.0" encoding="utf-8"?>
<!-- Generator: Adobe Illustrator 24.0.0, SVG Export Plug-In . SVG Version: 6.00 Build 0)  -->
<svg version="1.1" id="appointment-new" xmlns="http://www.w3.org/2000/svg" xmlns:xlink="http://www.w3.org/1999/xlink" x="0px"
	 y="0px" viewBox="0 0 16 16" style="enable-background:new 0 0 16 16;" xml:space="preserve">
<style type="text/css">
	.st0{opacity:0.75;}
	.st1{fill:#1F2022;enable-background:new    ;}
</style>
<g class="st0">
	<polygon class="st1" points="13,11 12,11 12,13 10,13 10,14 12,14 12,16 13,16 13,14 15,14 15,13 13,13 	"/>
	<rect x="4" y="7" class="st1" width="1" height="1"/>
	<rect x="7" y="7" class="st1" width="1" height="1"/>
	<rect x="4" y="10" class="st1" width="1" height="1"/>
	<rect x="7" y="10" class="st1" width="1" height="1"/>
	<rect x="10" y="10" class="st1" width="1" height="1"/>
	<rect x="10" y="7" class="st1" width="1" height="1"/>
	<path class="st1" d="M13,2h-1V1h-1v1H5V1H4v1H3C1.9,2,1,2.9,1,4v8c0,1.1,0.9,2,2,2h6v-1H3c-0.6,0-1-0.4-1-1V6h12v5h1V4
		C15,2.9,14.1,2,13,2z M14,5H2V4c0-0.6,0.4-1,1-1h1v1h1V3h6v1h1V3h1c0.6,0,1,0.4,1,1V5z"/>
</g>
</svg>
