<?xml version="1.0" encoding="iso-8859-1"?>
<!-- Generator: Adobe Illustrator 24.0.0, SVG Export Plug-In . SVG Version: 6.00 Build 0)  -->
<svg version="1.1" id="&#x56FE;&#x5C42;_16" xmlns="http://www.w3.org/2000/svg" xmlns:xlink="http://www.w3.org/1999/xlink"
	 x="0px" y="0px" viewBox="0 0 16 16" style="enable-background:new 0 0 16 16;" xml:space="preserve">
<title>16</title>
<g id="_16">
	<path style="fill:#808080;" d="M2.5,6L2.5,6C1.672,6,1,6.672,1,7.5l0,0C1,8.328,1.672,9,2.5,9l0,0C3.328,9,4,8.328,4,7.5l0,0
		C4,6.672,3.328,6,2.5,6z"/>
	<path style="fill:#808080;" d="M7.5,6L7.5,6C6.672,6,6,6.672,6,7.5l0,0C6,8.328,6.672,9,7.5,9l0,0C8.328,9,9,8.328,9,7.5l0,0
		C9,6.672,8.328,6,7.5,6z"/>
	<path style="fill:#808080;" d="M12.5,6L12.5,6C11.672,6,11,6.672,11,7.5l0,0C11,8.328,11.672,9,12.5,9l0,0
		C13.328,9,14,8.328,14,7.5l0,0C14,6.672,13.328,6,12.5,6z"/>
</g>
</svg>
