<?xml version="1.0" encoding="utf-8"?>
<!-- Generator: Adobe Illustrator 24.0.0, SVG Export Plug-In . SVG Version: 6.00 Build 0)  -->
<svg version="1.1" id="图层_2_1_" xmlns="http://www.w3.org/2000/svg" xmlns:xlink="http://www.w3.org/1999/xlink" x="0px"
	 y="0px" viewBox="0 0 16 16" style="enable-background:new 0 0 16 16;" xml:space="preserve">
<style type="text/css">
	.st0{opacity:0.75;fill:#1F2022;}
</style>
<path class="st0" d="M14.4,6H13V4.5C13,3.6,12.4,3,11.5,3l-1.4,0C10,3,9.6,2.8,9.4,2.6C8.9,2.3,8.5,2,8,2H1.5C0.6,2,0,2.6,0,3.5V15
	h0h1h12.7l2.2-6.8C16,8,16,7.7,16,7.6C16,6.7,15.3,6,14.4,6z M1,3.5C1,3.2,1.2,3,1.5,3H8c0.2,0,0.6,0.3,0.9,0.5
	C9.3,3.7,9.7,4,10.1,4h1.4C11.8,4,12,4.2,12,4.5V6H4C3.4,6,2.8,6.5,2.6,7L1,12V3.5z M12.9,14H1.4l2.2-6.7C3.6,7.2,3.8,7,4,7h10.4
	C14.7,7,15,7.3,15,7.6c0,0,0,0.1,0,0.1L12.9,14z"/>
</svg>
