<?xml version="1.0" encoding="utf-8"?>
<!-- Generator: Adobe Illustrator 24.0.0, SVG Export Plug-In . SVG Version: 6.00 Build 0)  -->
<svg version="1.1" id="图层_2_1_" xmlns="http://www.w3.org/2000/svg" xmlns:xlink="http://www.w3.org/1999/xlink" x="0px"
	 y="0px" viewBox="0 0 16 16" style="enable-background:new 0 0 16 16;" xml:space="preserve">
<style type="text/css">
	.st0{opacity:0.75;fill:#1F2022;enable-background:new    ;}
</style>
<path class="st0" d="M14.5,13H6c-2.2,0-4-1.8-4-4s1.8-4,4-4h4.8L8.2,6.6C8,6.7,7.9,7,8.1,7.3c0.1,0.2,0.3,0.2,0.4,0.2
	c0.1,0,0.2,0,0.3-0.1l4-2.5C12.9,4.8,13,4.7,13,4.5s-0.1-0.3-0.2-0.4l-4-2.5C8.5,1.4,8.2,1.5,8.1,1.7S8,2.3,8.2,2.4L10.8,4H6
	C3.2,4,1,6.2,1,9s2.2,5,5,5h8.5c0.3,0,0.5-0.2,0.5-0.5S14.8,13,14.5,13z"/>
</svg>
