<?xml version="1.0" encoding="utf-8"?>
<!-- Generator: Adobe Illustrator 24.0.0, SVG Export Plug-In . SVG Version: 6.00 Build 0)  -->
<svg version="1.1" id="粘贴" xmlns="http://www.w3.org/2000/svg" xmlns:xlink="http://www.w3.org/1999/xlink" x="0px" y="0px"
	 viewBox="0 0 16 16" style="enable-background:new 0 0 16 16;" xml:space="preserve">
<style type="text/css">
	.st0{opacity:0.75;}
	.st1{fill:#1F2022;}
</style>
<title>edit-paste-symbolic</title>
<g class="st0">
	<path class="st1" d="M11,2c0-1.1-0.9-2-2-2H7C5.9,0,5,0.9,5,2H1v12c0,1.1,0.9,2,2,2h10c1.1,0,2-0.9,2-2V2H11z M7,1h2
		c0.6,0,1,0.4,1,1H6C6,1.4,6.4,1,7,1z M12,3v7c0,0.6-0.4,1-1,1H5c-0.6,0-1-0.4-1-1V3H12z M14,14c0,0.6-0.4,1-1,1H3c-0.6,0-1-0.4-1-1
		V3h1v7c0,1.1,0.9,2,2,2h6c1.1,0,2-0.9,2-2V3h1V14z"/>
	<rect x="5" y="5" class="st1" width="6" height="1"/>
	<rect x="5" y="8" class="st1" width="6" height="1"/>
</g>
</svg>
