<?xml version="1.0" encoding="utf-8"?>
<!-- Generator: Adobe Illustrator 24.0.0, SVG Export Plug-In . SVG Version: 6.00 Build 0)  -->
<svg version="1.1" id="文字编辑" xmlns="http://www.w3.org/2000/svg" xmlns:xlink="http://www.w3.org/1999/xlink" x="0px"
	 y="0px" viewBox="0 0 16 16" style="enable-background:new 0 0 16 16;" xml:space="preserve">
<style type="text/css">
	.st0{opacity:0.75;}
	.st1{fill:#1F2022;}
	.st2{opacity:0.75;fill:#1F2022;enable-background:new    ;}
</style>
<title>edit-select-all-symbolic</title>
<g id="_16" class="st0">
	<polygon class="st1" points="15,9 15,8 14,8 12,8 12,8 12,9 13,9 13,14 12,14 12,15 12,15 14,15 15,15 15,14 14,14 14,9 	"/>
</g>
<path class="st2" d="M14.5,3h-13C1.2,3,1,2.8,1,2.5S1.2,2,1.5,2h13C14.8,2,15,2.2,15,2.5S14.8,3,14.5,3z"/>
<path class="st2" d="M14.5,7h-13C1.2,7,1,6.8,1,6.5S1.2,6,1.5,6h13C14.8,6,15,6.2,15,6.5S14.8,7,14.5,7z"/>
<path class="st2" d="M9.5,11h-8C1.2,11,1,10.8,1,10.5S1.2,10,1.5,10h8c0.3,0,0.5,0.2,0.5,0.5S9.8,11,9.5,11z"/>
<path class="st2" d="M9.5,15h-8C1.2,15,1,14.8,1,14.5S1.2,14,1.5,14h8c0.3,0,0.5,0.2,0.5,0.5S9.8,15,9.5,15z"/>
</svg>
