<?xml version="1.0" encoding="utf-8"?>
<!-- Generator: Adobe Illustrator 24.0.0, SVG Export Plug-In . SVG Version: 6.00 Build 0)  -->
<svg version="1.1" id="文档" xmlns="http://www.w3.org/2000/svg" xmlns:xlink="http://www.w3.org/1999/xlink" x="0px" y="0px"
	 viewBox="0 0 16 16" style="enable-background:new 0 0 16 16;" xml:space="preserve">
<style type="text/css">
	.st0{opacity:0.75;}
	.st1{fill:#1F2022;enable-background:new    ;}
</style>
<title>edit-copy-symbolic</title>
<g class="st0">
	<rect x="6" y="5" class="st1" width="7" height="1"/>
	<rect x="6" y="7" class="st1" width="7" height="1"/>
	<rect x="6" y="9" class="st1" width="3" height="1"/>
	<path class="st1" d="M13,2h-1c0-1.1-0.9-2-2-2H3C1.9,0,1,0.9,1,2v10c0,1.1,0.9,2,2,2h1c0,1.1,0.9,2,2,2h4.7l1-1l2.3-2.3l1-1V4
		C15,2.9,14.1,2,13,2z M4,4v9H3c-0.6,0-1-0.4-1-1V2c0-0.6,0.4-1,1-1h7c0.6,0,1,0.4,1,1H6C4.9,2,4,2.9,4,4z M11,14.3V12h2.3L11,14.3z
		 M14,11h-4v4H6c-0.6,0-1-0.4-1-1V4c0-0.6,0.4-1,1-1h7c0.6,0,1,0.4,1,1V11z"/>
</g>
</svg>
