<?xml version="1.0" encoding="utf-8"?>
<!-- Generator: Adobe Illustrator 24.0.0, SVG Export Plug-In . SVG Version: 6.00 Build 0)  -->
<svg version="1.1" id="定位" xmlns="http://www.w3.org/2000/svg" xmlns:xlink="http://www.w3.org/1999/xlink" x="0px" y="0px"
	 viewBox="0 0 16 16" style="enable-background:new 0 0 16 16;" xml:space="preserve">
<style type="text/css">
	.st0{opacity:0.75;}
	.st1{fill:#1F2022;}
</style>
<g class="st0">
	<circle class="st1" cx="7.5" cy="8.5" r="1.5"/>
	<path class="st1" d="M15,8h-1c-0.2-3.2-2.8-5.7-6-6V1H7v1C3.8,2.3,1.3,4.8,1,8H0v1h1c0.2,3.2,2.8,5.7,6,6v1h1v-1
		c3.2-0.2,5.7-2.8,6-6h1V8z M8,14v-1H7v1c-2.6-0.2-4.7-2.4-5-5h1V8H2c0.2-2.6,2.4-4.7,5-5v1h1V3c2.6,0.2,4.7,2.4,5,5h-1v1h1
		C12.7,11.6,10.6,13.7,8,14z"/>
</g>
</svg>
