<?xml version="1.0" encoding="utf-8"?>
<!-- Generator: Adobe Illustrator 25.0.0, SVG Export Plug-In . SVG Version: 6.00 Build 0)  -->
<svg version="1.1" id="f" xmlns="http://www.w3.org/2000/svg" xmlns:xlink="http://www.w3.org/1999/xlink" x="0px" y="0px"
	 viewBox="0 0 16 16" style="enable-background:new 0 0 16 16;" xml:space="preserve">
<style type="text/css">
	.st0{opacity:0.75;}
	.st1{fill:#1F2022;}
</style>
<g id="_16" class="st0">
	<g id="path10873">
		<path class="st1" d="M8.9,3L8.9,3c0.6,0,1,0.5,1.1,1.1V13H2V3H8.9 M8.9,2H1v12h10V4.1C11,2.9,10.1,2,8.9,2z"/>
	</g>
	<path id="path10910" class="st1" d="M11,2c0.7,0.4,1.1,1.2,1,2v10h1V4C13,2.7,11,2,11,2z"/>
	<path id="path10912" class="st1" d="M13,2c0.7,0.4,1.1,1.2,1,2v10h1V4C15,2.7,13,2,13,2z"/>
	<path class="st1" d="M5.5,8L4.3,6.8C4.1,6.6,4,6.4,4,6.1V5h1.1c0.3,0,0.5,0.1,0.7,0.3L8.5,8l-2.7,2.7C5.6,10.9,5.3,11,5.1,11H4V9.9
		c0-0.3,0.1-0.5,0.3-0.7L5.5,8z"/>
</g>
</svg>
