<?xml version="1.0" encoding="utf-8"?>
<!-- Generator: Adobe Illustrator 24.0.0, SVG Export Plug-In . SVG Version: 6.00 Build 0)  -->
<svg version="1.1" id="f" xmlns="http://www.w3.org/2000/svg" xmlns:xlink="http://www.w3.org/1999/xlink" x="0px" y="0px"
	 viewBox="0 0 16 16" style="enable-background:new 0 0 16 16;" xml:space="preserve">
<style type="text/css">
	.st0{opacity:0.75;}
	.st1{fill:#1F2022;}
</style>
<g id="_16" class="st0">
	<path class="st1" d="M9,15.1H1V9.3C1,8,2,7,3.3,7H5v1H3.3C2.6,8,2,8.6,2,9.3v4.8h6V11h1V15.1z"/>
	<path class="st1" d="M13,2c0.6,0,1,0.4,1,1v5H8V3c0-0.6,0.4-1,1-1H13 M13,1H9C7.9,1,7,1.9,7,3v6h8V3C15,1.9,14.1,1,13,1z"/>
</g>
</svg>
