<?xml version="1.0" encoding="utf-8"?>
<!-- Generator: Adobe Illustrator 24.0.0, SVG Export Plug-In . SVG Version: 6.00 Build 0)  -->
<svg version="1.1" id="f" xmlns="http://www.w3.org/2000/svg" xmlns:xlink="http://www.w3.org/1999/xlink" x="0px" y="0px"
	 viewBox="0 0 16 16" style="enable-background:new 0 0 16 16;" xml:space="preserve">
<style type="text/css">
	.st0{opacity:0.75;fill:#1F2022;}
	.st1{fill:#2196F3;}
</style>
<g id="_16">
	<path class="st0" d="M14,14.3L8.5,2.8c-0.2-0.3-0.7-0.3-0.9,0L2,14.3c-0.1,0.2,0,0.5,0.2,0.7c0.3,0.1,0.5,0,0.7-0.2L4.7,11h6.5
		l1.8,3.7c0.1,0.2,0.3,0.3,0.5,0.3c0.1,0,0.1,0,0.2,0C14,14.8,14.1,14.5,14,14.3z M5.2,10L8,4.2l2.8,5.8H5.2z"/>
	<path id="down" class="st1" d="M11.7,3.7l-1.2-1.8c-0.2-0.3-0.1-0.6,0.2-0.8C10.7,1,10.9,1,11,1h2.5C13.8,1,14,1.3,14,1.6
		c0,0.1,0,0.2-0.1,0.3l-1.3,1.8C12.4,4,12.1,4,11.8,3.9C11.8,3.9,11.8,3.8,11.7,3.7z"/>
</g>
</svg>
