<?xml version="1.0" encoding="utf-8"?>
<!-- Generator: Adobe Illustrator 24.0.0, SVG Export Plug-In . SVG Version: 6.00 Build 0)  -->
<svg version="1.1" id="图层_1" xmlns="http://www.w3.org/2000/svg" xmlns:xlink="http://www.w3.org/1999/xlink" x="0px" y="0px"
	 viewBox="0 0 16 16" style="enable-background:new 0 0 16 16;" xml:space="preserve">
<style type="text/css">
	.st0{display:none;}
	.st1{display:inline;opacity:0.75;fill:#1F2022;enable-background:new    ;}
	.st2{opacity:0.75;}
	.st3{fill:#1F2022;}
</style>
<g id="文字编辑" class="st0">
	<title>format-text-direction-ltr-symbolic</title>
	<polygon class="st1" points="2,2 2,3 6,3 6,11 7,11 7,3 11,3 11,2 	"/>
	<polygon class="st1" points="2,12.5 2,13.5 11,13.5 11,15 15,13 11,11 11,12.5 	"/>
</g>
<g class="st2">
	<path class="st3" d="M2.5,3H6v7.5C6,10.8,6.2,11,6.5,11S7,10.8,7,10.5V3h3.5C10.8,3,11,2.8,11,2.5S10.8,2,10.5,2h-8
		C2.2,2,2,2.2,2,2.5S2.2,3,2.5,3z"/>
	<path class="st3" d="M13.8,12.1l-2.9-2.6c-0.2-0.2-0.5-0.2-0.7,0c-0.2,0.2-0.2,0.5,0,0.7l1.9,1.7H2.5C2.2,12,2,12.2,2,12.5
		S2.2,13,2.5,13h9.7l-1.9,1.6c-0.2,0.2-0.2,0.5-0.1,0.7c0.1,0.1,0.2,0.2,0.4,0.2c0.1,0,0.2,0,0.3-0.1l2.9-2.5
		c0.1-0.1,0.2-0.2,0.2-0.4S13.9,12.2,13.8,12.1z"/>
</g>
</svg>
