<?xml version="1.0" encoding="utf-8"?>
<!-- Generator: Adobe Illustrator 24.0.0, SVG Export Plug-In . SVG Version: 6.00 Build 0)  -->
<svg version="1.1" id="图层_2_1_" xmlns="http://www.w3.org/2000/svg" xmlns:xlink="http://www.w3.org/1999/xlink" x="0px"
	 y="0px" viewBox="0 0 16 16" style="enable-background:new 0 0 16 16;" xml:space="preserve">
<style type="text/css">
	.st0{opacity:0.75;fill:#1F2022;enable-background:new    ;}
</style>
<path class="st0" d="M13,14.5c-0.1,0-0.2,0-0.3-0.1l-6.5-6C6.1,8.3,6,8.1,6,8s0.1-0.3,0.2-0.4l6.5-6c0.2-0.2,0.5-0.2,0.7,0
	c0.2,0.2,0.2,0.5,0,0.7L7.2,8l6.1,5.6c0.2,0.2,0.2,0.5,0,0.7C13.3,14.4,13.1,14.5,13,14.5z"/>
<path class="st0" d="M3.5,14C3.2,14,3,13.8,3,13.5v-11C3,2.2,3.2,2,3.5,2S4,2.2,4,2.5v11C4,13.8,3.8,14,3.5,14z"/>
</svg>
