<?xml version="1.0" encoding="utf-8"?>
<!-- Generator: Adobe Illustrator 24.0.0, SVG Export Plug-In . SVG Version: 6.00 Build 0)  -->
<svg version="1.1" id="图层_2_1_" xmlns="http://www.w3.org/2000/svg" xmlns:xlink="http://www.w3.org/1999/xlink" x="0px"
	 y="0px" viewBox="0 0 16 16" style="enable-background:new 0 0 16 16;" xml:space="preserve">
<style type="text/css">
	.st0{opacity:0.75;fill:#1F2022;enable-background:new    ;}
</style>
<path class="st0" d="M9,1C6.2,1,4,3.2,4,6v4.8L2.4,8.2C2.3,8,2,7.9,1.7,8.1C1.5,8.2,1.4,8.5,1.6,8.8l2.5,4C4.2,12.9,4.3,13,4.5,13
	s0.3-0.1,0.4-0.2l2.5-4c0.1-0.2,0.1-0.5-0.2-0.7C7,7.9,6.7,8,6.6,8.2L5,10.8V6c0-2.2,1.8-4,4-4s4,1.8,4,4v8.5c0,0.3,0.2,0.5,0.5,0.5
	s0.5-0.2,0.5-0.5V6C14,3.2,11.8,1,9,1z"/>
</svg>
