<?xml version="1.0" encoding="utf-8"?>
<!-- Generator: Adobe Illustrator 24.0.0, SVG Export Plug-In . SVG Version: 6.00 Build 0)  -->
<svg version="1.1" id="图层_2_1_" xmlns="http://www.w3.org/2000/svg" xmlns:xlink="http://www.w3.org/1999/xlink" x="0px"
	 y="0px" viewBox="0 0 16 16" style="enable-background:new 0 0 16 16;" xml:space="preserve">
<style type="text/css">
	.st0{opacity:0.75;fill:#1F2022;enable-background:new    ;}
</style>
<path class="st0" d="M3,14.5c-0.1,0-0.3-0.1-0.4-0.2c-0.2-0.2-0.2-0.5,0-0.7L8.8,8L2.7,2.4c-0.2-0.2-0.2-0.5,0-0.7
	c0.2-0.2,0.5-0.2,0.7,0l6.5,6C9.9,7.7,10,7.9,10,8S9.9,8.3,9.8,8.4l-6.5,6C3.2,14.5,3.1,14.5,3,14.5z"/>
<path class="st0" d="M12.5,14c-0.3,0-0.5-0.2-0.5-0.5v-11C12,2.2,12.2,2,12.5,2S13,2.2,13,2.5v11C13,13.8,12.8,14,12.5,14z"/>
</svg>
