<?xml version="1.0" encoding="utf-8"?>
<!-- Generator: Adobe Illustrator 25.0.0, SVG Export Plug-In . SVG Version: 6.00 Build 0)  -->
<svg version="1.1" id="图层_1" xmlns="http://www.w3.org/2000/svg" xmlns:xlink="http://www.w3.org/1999/xlink" x="0px" y="0px"
	 viewBox="0 0 16 16" style="enable-background:new 0 0 16 16;" xml:space="preserve">
<style type="text/css">
	.st0{opacity:0.75;}
	.st1{fill:#1F2022;}
</style>
<g id="h" class="st0">
	<g id="_16">
		<g id="path67">
			<path class="st1" d="M8,2.7c0.2,0.5,0.4,1,0.6,1.4c0.2,0.9,0.5,1.6,1,2.3c0.7,0.5,1.4,0.8,2.2,1.1c0.4,0.1,1,0.4,1.4,0.6
				c-0.5,0.2-1,0.4-1.4,0.6C11,8.8,10.3,9.1,9.6,9.6c-0.5,0.7-0.8,1.4-1.1,2.2c-0.1,0.4-0.4,1-0.6,1.4c-0.2-0.5-0.4-1-0.6-1.4
				C7.2,11,6.9,10.3,6.4,9.6C5.7,9.1,5,8.8,4.2,8.6C3.8,8.4,3.2,8.2,2.7,8c0.5-0.2,1-0.4,1.4-0.6c0.9-0.2,1.6-0.5,2.3-1
				c0.5-0.7,0.8-1.4,1-2.2C7.6,3.8,7.8,3.2,8,2.7 M8,1C7.3,1,6.2,5.2,5.7,5.7S1,7.3,1,8s4.2,1.8,4.7,2.3S7.3,15,8,15
				s1.8-4.1,2.3-4.7S15,8.7,15,8s-4.1-1.8-4.7-2.3S8.7,1,8,1z"/>
		</g>
	</g>
</g>
</svg>
