<?xml version="1.0" encoding="iso-8859-1"?>
<!-- Generator: Adobe Illustrator 24.0.0, SVG Export Plug-In . SVG Version: 6.00 Build 0)  -->
<svg version="1.1" id="i" xmlns="http://www.w3.org/2000/svg" xmlns:xlink="http://www.w3.org/1999/xlink" x="0px" y="0px"
	 viewBox="0 0 16 16" style="enable-background:new 0 0 16 16;" xml:space="preserve">
<title>16</title>
<g id="_16">
	<path style="fill:#808080;" d="M8.05,2C11.33,2,14,4.2,14,6.9s-2.71,4.9-6,4.9c-0.494-0.016-0.986-0.076-1.47-0.18L6.1,11.54
		l-0.35,0.25L4,13v-2.55l-0.34-0.3C2.682,9.342,2.082,8.166,2,6.9C2,4.15,4.66,2,8.05,2 M8.05,1C4.11,1,1,3.6,1,6.9
		c0.081,1.554,0.806,3.003,2,4V15l3.29-2.4c0.563,0.119,1.135,0.186,1.71,0.2c3.84,0,7.05-2.6,7.05-5.9S11.89,1,8.05,1z"/>
	<line style="fill:none;stroke:#808080;stroke-linecap:round;stroke-miterlimit:10;" x1="4.5" y1="8.5" x2="7.5" y2="8.5"/>
	<line style="fill:none;stroke:#808080;stroke-linecap:round;stroke-miterlimit:10;" x1="4.5" y1="5.5" x2="11.5" y2="5.5"/>
</g>
</svg>
