<?xml version="1.0" encoding="utf-8"?>
<!-- Generator: Adobe Illustrator 24.0.0, SVG Export Plug-In . SVG Version: 6.00 Build 0)  -->
<svg version="1.1" id="h" xmlns="http://www.w3.org/2000/svg" xmlns:xlink="http://www.w3.org/1999/xlink" x="0px" y="0px"
	 viewBox="0 0 16 16" style="enable-background:new 0 0 16 16;" xml:space="preserve">
<style type="text/css">
	.st0{opacity:0.75;}
	.st1{fill:#1F2022;}
</style>
<g class="st0">
	<polygon class="st1" points="7,3 7,1 5,1 3,1 1,1 1,3 3,3 5,3 5,5 7,5 	"/>
	<rect x="3" y="5" class="st1" width="2" height="2"/>
	<rect x="1" y="7" class="st1" width="2" height="2"/>
	<rect x="3" y="9" class="st1" width="2" height="2"/>
	<rect x="5" y="7" class="st1" width="2" height="2"/>
	<polygon class="st1" points="9,7 11,7 11,5 9,5 7,5 7,7 	"/>
	<rect x="9" y="1" class="st1" width="2" height="2"/>
	<rect x="11" y="3" class="st1" width="2" height="2"/>
	<rect x="11" y="9" class="st1" width="2" height="2"/>
	<rect x="7" y="11" class="st1" width="2" height="2"/>
	<rect x="9" y="13" class="st1" width="2" height="2"/>
	<rect x="3" y="13" class="st1" width="2" height="2"/>
	<polygon class="st1" points="13,11 13,13 13,15 15,15 15,13 15,11 	"/>
</g>
</svg>
