<?xml version="1.0" encoding="utf-8"?>
<!-- Generator: Adobe Illustrator 24.0.0, SVG Export Plug-In . SVG Version: 6.00 Build 0)  -->
<svg version="1.1" id="h" xmlns="http://www.w3.org/2000/svg" xmlns:xlink="http://www.w3.org/1999/xlink" x="0px" y="0px"
	 viewBox="0 0 16 16" style="enable-background:new 0 0 16 16;" xml:space="preserve">
<style type="text/css">
	.st0{opacity:0.75;fill:#1F2022;}
	.st1{opacity:0.2;fill:#1F2022;enable-background:new    ;}
</style>
<g id="_16">
	<path class="st0" d="M14.5,14H2.1c0.2-1.2,0.7-2.3,1.3-3.3C4.2,9.5,5.6,8.5,8.1,8c0.3-0.1,0.5-0.1,0.8-0.2c0.4-0.1,0.8-0.2,1.2-0.4
		c1.4-0.5,2.4-1.3,3-2.1c0.5-0.9,0.8-1.8,0.9-2.8c0-0.3,0-0.6,0-0.9c0-0.3-0.2-0.5-0.5-0.5S13,1.3,13,1.6c0,0.2,0,0.3,0,0.5
		C13,3,12.8,4,12.3,4.8c-0.6,1-1.9,1.8-4.4,2.3c-2.1,0.3-4,1.4-5.3,3.1c-0.2,0.4-0.4,0.7-0.6,1.1V1.5C2,1.2,1.8,1,1.5,1S1,1.2,1,1.5
		v13v0.1v0.1v0.1l0.1,0.1L1.2,15h0.1h0.1h0.1h0.1h12.9c0.3,0,0.5-0.2,0.5-0.5S14.8,14,14.5,14z"/>
	<path class="st1" d="M14,2.5V14H2.1c0.2-1.2,0.7-2.3,1.3-3.3C4.2,9.5,5.5,8.5,8.1,8c0.3-0.1,0.5-0.1,0.8-0.2
		c0.4-0.1,0.8-0.2,1.2-0.4c1.4-0.5,2.4-1.3,3-2.1C13.6,4.5,13.9,3.5,14,2.5z"/>
</g>
</svg>
