<?xml version="1.0" encoding="utf-8"?>
<!-- Generator: Adobe Illustrator 24.0.0, SVG Export Plug-In . SVG Version: 6.00 Build 0)  -->
<svg version="1.1" id="图层_2_1_" xmlns="http://www.w3.org/2000/svg" xmlns:xlink="http://www.w3.org/1999/xlink" x="0px"
	 y="0px" viewBox="0 0 16 16" style="enable-background:new 0 0 16 16;" xml:space="preserve">
<style type="text/css">
	.st0{opacity:0.75;fill:#1F2022;}
</style>
<path class="st0" d="M14.9,11.8C14.9,11.8,14.9,11.7,14.9,11.8c0.1-0.1,0.1-0.2,0.1-0.3s0-0.2-0.1-0.2c0,0,0,0,0-0.1
	c0,0-0.1-0.1-0.1-0.1c0,0,0,0,0,0l-4-2.5c-0.2-0.1-0.5-0.1-0.7,0.2C9.9,9,10,9.3,10.2,9.4l2.5,1.6h-0.1H8c-1.1,0-2-0.9-2-2
	s0.9-2,2-2h1.5C9.8,7,10,6.8,10,6.5S9.8,6,9.5,6H8C6.3,6,5,7.3,5,9c0,0.8,0.3,1.4,0.7,2C3.7,10.8,2,9.1,2,7c0-2.2,1.8-4,4-4h2.5
	C8.8,3,9,2.8,9,2.5S8.8,2,8.5,2H6C3.2,2,1,4.2,1,7c0,2.8,2.2,5,5,5h2h4.7h0.1l-2.5,1.6c-0.2,0.1-0.3,0.5-0.2,0.7
	c0.1,0.2,0.3,0.2,0.4,0.2c0.1,0,0.2,0,0.3-0.1l4-2.5c0,0,0,0,0,0C14.8,11.9,14.9,11.8,14.9,11.8z"/>
</svg>
