<?xml version="1.0" encoding="iso-8859-1"?>
<!-- Generator: Adobe Illustrator 24.0.0, SVG Export Plug-In . SVG Version: 6.00 Build 0)  -->
<svg version="1.1" id="i" xmlns="http://www.w3.org/2000/svg" xmlns:xlink="http://www.w3.org/1999/xlink" x="0px" y="0px"
	 viewBox="0 0 16 16" style="enable-background:new 0 0 16 16;" xml:space="preserve">
<title>16</title>
<g id="_16">
	<line style="fill:none;stroke:#808080;stroke-miterlimit:10;" x1="8.37" y1="9.14" x2="3.8" y2="13.22"/>
	<line style="fill:none;stroke:#808080;stroke-miterlimit:10;" x1="15.22" y1="13.2" x2="10.5" y2="9.27"/>
	<path style="fill:none;stroke:#808080;stroke-miterlimit:10;" d="M15.22,5.8L10.1,9.56c-0.356,0.267-0.844,0.267-1.2,0l-5-3.84"/>
	<path style="fill:none;stroke:#808080;stroke-miterlimit:10;" d="M14.5,5.5h-10c-0.552,0-1,0.448-1,1v6c0,0.552,0.448,1,1,1h10
		c0.552,0,1-0.448,1-1v-6C15.5,5.948,15.052,5.5,14.5,5.5z"/>
	<path style="fill:none;stroke:#808080;stroke-linecap:round;stroke-miterlimit:10;" d="M12.5,3.5h-8c-1.657,0-3,1.343-3,3v6"/>
</g>
</svg>
