<?xml version="1.0" encoding="iso-8859-1"?>
<!-- Generator: Adobe Illustrator 24.0.0, SVG Export Plug-In . SVG Version: 6.00 Build 0)  -->
<svg version="1.1" id="&#x56FE;&#x5C42;_1" xmlns="http://www.w3.org/2000/svg" xmlns:xlink="http://www.w3.org/1999/xlink" x="0px"
	 y="0px" viewBox="0 0 16 16" style="enable-background:new 0 0 16 16;" xml:space="preserve">
<title>16</title>
<g id="m">
	<g id="_16">
		<path style="fill:none;stroke:#808080;stroke-linecap:round;stroke-miterlimit:10;" d="M6.26,11.5
			C3.738,11.531,1.639,9.569,1.5,7.05l0,0C1.587,4.492,3.701,2.471,6.26,2.5h3.48c2.557-0.023,4.668,1.994,4.76,4.55l0,0
			c-0.103,2.535-2.223,4.518-4.76,4.45h-1"/>
		<polyline style="fill:none;stroke:#808080;stroke-linecap:round;stroke-linejoin:round;" points="10.5,9.8 8.5,11.5 10.5,13.2 		
			"/>
		<circle style="fill:#2196F3;" cx="8" cy="7" r="2"/>
		<path style="fill:#FFFFFF;" d="M8.3,5.5v3.1H7.7V6.2C7.6,6.3,7.5,6.3,7.4,6.4S7.1,6.5,7,6.5V6c0.324-0.072,0.63-0.208,0.9-0.4
			L8.3,5.5z"/>
	</g>
</g>
</svg>
