<?xml version="1.0" encoding="iso-8859-1"?>
<!-- Generator: Adobe Illustrator 24.0.0, SVG Export Plug-In . SVG Version: 6.00 Build 0)  -->
<svg version="1.1" id="O" xmlns="http://www.w3.org/2000/svg" xmlns:xlink="http://www.w3.org/1999/xlink" x="0px" y="0px"
	 viewBox="0 0 16 16" style="enable-background:new 0 0 16 16;" xml:space="preserve">
<title>16</title>
<g id="_16">
	<g id="_16-2">
		<path style="fill:none;stroke:#888888;stroke-linecap:round;stroke-miterlimit:10;" d="M7.5,14.6l-6-2V4.29l6.9-2.8l6,1.9V8"/>
		<line style="fill:none;stroke:#888888;stroke-linecap:round;stroke-miterlimit:10;" x1="7.5" y1="14.5" x2="7.5" y2="6.5"/>
		<polyline style="fill:none;stroke:#888888;stroke-miterlimit:10;" points="1.5,4.49 7.5,6.49 14.5,3.49 		"/>
		<path style="fill:#2196F3;" d="M12,8L12,8c0.552,0,1,0.448,1,1v4h-2V9C11,8.448,11.448,8,12,8z"/>
		<path style="fill:#2196F3;" d="M10.21,12h3.58c0.276-0.002,0.501,0.221,0.503,0.497c0.001,0.132-0.051,0.259-0.143,0.353l-1.8,1.8
			c-0.194,0.191-0.506,0.191-0.7,0l-1.8-1.8c-0.193-0.197-0.19-0.514,0.007-0.707C9.951,12.051,10.078,11.999,10.21,12z"/>
	</g>
</g>
</svg>
