<?xml version="1.0" encoding="iso-8859-1"?>
<!-- Generator: Adobe Illustrator 24.0.0, SVG Export Plug-In . SVG Version: 6.00 Build 0)  -->
<svg version="1.1" id="p" xmlns="http://www.w3.org/2000/svg" xmlns:xlink="http://www.w3.org/1999/xlink" x="0px" y="0px"
	 viewBox="0 0 16 16" style="enable-background:new 0 0 16 16;" xml:space="preserve">
<title>16</title>
<g id="_16">
	<polyline style="fill:none;stroke:#888888;stroke-linecap:round;stroke-linejoin:round;" points="11.5,1.5 1.5,1.5 1.5,14.5 
		11.5,14.5 	"/>
	<path style="fill:#61A232;" d="M8,6h6c0.552,0,1,0.448,1,1v2c0,0.552-0.448,1-1,1H8V6z"/>
	<path style="fill:#61A232;" d="M8.15,3.85l-3.8,3.8c-0.191,0.194-0.191,0.506,0,0.7l3.8,3.8c0.197,0.193,0.514,0.19,0.707-0.007
		C8.949,12.049,9.001,11.922,9,11.79V4.21c0.002-0.276-0.221-0.501-0.497-0.503C8.371,3.706,8.244,3.758,8.15,3.85z"/>
</g>
</svg>
