<?xml version="1.0" encoding="iso-8859-1"?>
<!-- Generator: Adobe Illustrator 24.0.0, SVG Export Plug-In . SVG Version: 6.00 Build 0)  -->
<svg version="1.1" id="&#x56FE;&#x5C42;_1" xmlns="http://www.w3.org/2000/svg" xmlns:xlink="http://www.w3.org/1999/xlink" x="0px"
	 y="0px" viewBox="0 0 16 16" style="enable-background:new 0 0 16 16;" xml:space="preserve">
<title>16</title>
<g id="s">
	<g id="_16">
		<rect x="7" y="7" style="fill:#808080;" width="2" height="5"/>
		<rect x="7" y="4" style="fill:#808080;" width="2" height="2"/>
		<path style="fill:#808080;" d="M8,2c3.28-0.033,5.967,2.599,6,5.879C14,7.92,14,7.96,14,8c0.033,3.28-2.599,5.967-5.879,6
			C8.08,14,8.04,14,8,14c-3.28,0.033-5.967-2.599-6-5.879C2,8.08,2,8.04,2,8C1.967,4.72,4.599,2.033,7.879,2C7.92,2,7.96,2,8,2 M8,1
			C4.134,1,1,4.134,1,8s3.134,7,7,7s7-3.134,7-7S11.866,1,8,1z"/>
	</g>
</g>
</svg>
