<?xml version="1.0" encoding="iso-8859-1"?>
<!-- Generator: Adobe Illustrator 24.0.0, SVG Export Plug-In . SVG Version: 6.00 Build 0)  -->
<svg version="1.1" id="&#x56FE;&#x5C42;_1" xmlns="http://www.w3.org/2000/svg" xmlns:xlink="http://www.w3.org/1999/xlink" x="0px"
	 y="0px" viewBox="0 0 16 16" style="enable-background:new 0 0 16 16;" xml:space="preserve">
<title>16</title>
<g id="s">
	<g id="_16">
		<path style="fill:#808080;" d="M13,3c0.552,0,1,0.448,1,1v8c0,0.552-0.448,1-1,1H3c-0.552,0-1-0.448-1-1V4c0-0.552,0.448-1,1-1H13
			 M13,2H3C1.895,2,1,2.895,1,4v8c0,1.105,0.895,2,2,2h10c1.105,0,2-0.895,2-2V4C15,2.895,14.105,2,13,2z"/>
		<rect x="1" y="6" style="fill:#808080;" width="14" height="1"/>
		<rect x="1" y="9" style="fill:#808080;" width="14" height="1"/>
		<rect x="5" y="3" style="fill:#808080;" width="1" height="10"/>
		<rect x="10" y="3" style="fill:#808080;" width="1" height="10"/>
	</g>
</g>
</svg>
