<?xml version="1.0" encoding="iso-8859-1"?>
<!-- Generator: Adobe Illustrator 24.0.0, SVG Export Plug-In . SVG Version: 6.00 Build 0)  -->
<svg version="1.1" id="s" xmlns="http://www.w3.org/2000/svg" xmlns:xlink="http://www.w3.org/1999/xlink" x="0px" y="0px"
	 viewBox="0 0 16 16" style="enable-background:new 0 0 16 16;" xml:space="preserve">
<title>16</title>
<g id="_16">
	<path style="fill:#808080;" d="M8,2c1.381,0,2.5,1.119,2.5,2.5S9.381,7,8,7S5.5,5.881,5.5,4.5S6.619,2,8,2 M8,1
		C6.067,1,4.5,2.567,4.5,4.5S6.067,8,8,8s3.5-1.567,3.5-3.5S9.933,1,8,1z"/>
	<path style="fill:none;stroke:#808080;stroke-miterlimit:10;" d="M11,9.5H5c-1.37-0.011-2.489,1.09-2.5,2.46
		c0,0.013,0,0.027,0,0.04v1c0.021,0.82,0.68,1.479,1.5,1.5h8c0.82-0.021,1.479-0.68,1.5-1.5v-1c0.011-1.37-1.09-2.489-2.46-2.5
		C11.027,9.5,11.013,9.5,11,9.5z"/>
</g>
</svg>
