<?xml version="1.0" encoding="iso-8859-1"?>
<!-- Generator: Adobe Illustrator 24.0.0, SVG Export Plug-In . SVG Version: 6.00 Build 0)  -->
<svg version="1.1" id="s" xmlns="http://www.w3.org/2000/svg" xmlns:xlink="http://www.w3.org/1999/xlink" x="0px" y="0px"
	 viewBox="0 0 16 16" style="enable-background:new 0 0 16 16;" xml:space="preserve">
<title>16</title>
<g id="_16">
	<path style="fill:none;stroke:#808080;stroke-linecap:round;stroke-miterlimit:10;" d="M13.5,11.5l-0.29,0.29l-2.42,2.42
		c-0.186,0.185-0.438,0.289-0.7,0.29H4.5c-1.105,0-2-0.895-2-2v-9c0-1.105,0.895-2,2-2h7c1.105,0,2,0.895,2,2v1"/>
	<line style="fill:none;stroke:#808080;stroke-linecap:round;stroke-miterlimit:10;" x1="7.5" y1="10.5" x2="5.5" y2="10.5"/>
	<line style="fill:none;stroke:#808080;stroke-linecap:round;stroke-miterlimit:10;" x1="8.5" y1="7.5" x2="5.5" y2="7.5"/>
	<line style="fill:none;stroke:#808080;stroke-linecap:round;stroke-miterlimit:10;" x1="10.5" y1="4.5" x2="5.5" y2="4.5"/>
	<polyline style="fill:none;stroke:#808080;stroke-miterlimit:10;" points="13.5,11.5 10.5,11.5 10.5,14.5 	"/>
	<path style="fill:#61A232;" d="M14,7h-3.5C10.224,7,10,7.224,10,7.5v1C10,8.776,10.224,9,10.5,9H14V7z"/>
	<path style="fill:#61A232;" d="M13.85,5.85l1.8,1.8c0.191,0.194,0.191,0.506,0,0.7l-1.8,1.8c-0.197,0.193-0.514,0.19-0.707-0.007
		C13.051,10.049,12.999,9.922,13,9.79V6.21c-0.002-0.276,0.221-0.501,0.497-0.503C13.629,5.706,13.756,5.758,13.85,5.85z"/>
</g>
</svg>
