<?xml version="1.0" encoding="utf-8"?>
<!-- Generator: Adobe Illustrator 24.0.0, SVG Export Plug-In . SVG Version: 6.00 Build 0)  -->
<svg version="1.1" id="图层_1" xmlns="http://www.w3.org/2000/svg" xmlns:xlink="http://www.w3.org/1999/xlink" x="0px" y="0px"
	 viewBox="0 0 16 16" style="enable-background:new 0 0 16 16;" xml:space="preserve">
<style type="text/css">
	.st0{opacity:0.75;fill:#1F2022;enable-background:new    ;}
</style>
<path class="st0" d="M8,15c-0.4,0-0.8-0.1-1.1-0.4L1.4,9.1c-1.9-1.9-1.9-4.8,0-6.7C3.3,0.6,6.1,0.5,8,2.2l0,0l0,0
	c2-1.7,4.7-1.6,6.6,0.2C15.5,3.3,16,4.5,16,5.8c0,1.3-0.6,2.5-1.5,3.3l-5.5,5.5C8.8,14.8,8.4,15,8,15z M4.8,2C3.8,2,2.9,2.3,2.1,3.1
	c-1.5,1.5-1.5,3.8,0,5.3l5.5,5.5c0.2,0.2,0.5,0.2,0.7,0l5.5-5.5C14.6,7.7,15,6.8,15,5.8c0-1-0.4-1.9-1.1-2.6
	C12.5,1.7,10.3,1.6,8.7,3L8.1,3.6L7.4,3C6.6,2.3,5.7,2,4.8,2z"/>
</svg>
