<?xml version="1.0" encoding="utf-8"?>
<!-- Generator: Adobe Illustrator 24.0.0, SVG Export Plug-In . SVG Version: 6.00 Build 0)  -->
<svg version="1.1" id="图层_2_1_" xmlns="http://www.w3.org/2000/svg" xmlns:xlink="http://www.w3.org/1999/xlink" x="0px"
	 y="0px" viewBox="0 0 16 16" style="enable-background:new 0 0 16 16;" xml:space="preserve">
<style type="text/css">
	.st0{opacity:0.75;enable-background:new    ;}
	.st1{fill:#1F2022;}
	.st2{fill:#E9572A;}
</style>
<g class="st0">
	<circle class="st1" cx="8" cy="8" r="1"/>
</g>
<g class="st0">
	<circle class="st1" cx="12.5" cy="4.5" r="0.5"/>
</g>
<g class="st0">
	<path class="st1" d="M8,13H4c-1.1,0-2-0.9-2-2V5c0-1.1,0.9-2,2-2h8c1.1,0,2,0.9,2,2v3h1V5c0-1.6-1.4-3-3-3H6V1H4v1C2.3,2,1,3.3,1,5
		v6c0,1.7,1.3,3,3,3h4V13z"/>
</g>
<g class="st0">
	<path class="st1" d="M8,11c-1.7,0-3-1.3-3-3s1.3-3,3-3s3,1.3,3,3h1c0-2.2-1.8-4-4-4S4,5.8,4,8s1.8,4,4,4V11z"/>
</g>
<path class="st2" d="M12,8c-2.2,0-4,1.8-4,4s1.8,4,4,4s4-1.8,4-4S14.2,8,12,8z M13.8,9.6c0,0-0.1,0-0.1,0.1L12,11.3l-1.6-1.6
	c0,0-0.1-0.1-0.1-0.1C10.7,9.2,11.3,9,12,9S13.3,9.2,13.8,9.6z M9,12c0-0.7,0.2-1.3,0.6-1.8c0,0,0,0.1,0.1,0.1l1.6,1.6l-1.6,1.6
	c0,0-0.1,0.1-0.1,0.1C9.2,13.3,9,12.7,9,12z M10.2,14.4c0,0,0.1,0,0.1-0.1l1.6-1.6l1.6,1.6c0,0,0.1,0.1,0.1,0.1
	C13.3,14.8,12.7,15,12,15S10.7,14.8,10.2,14.4z M14.4,13.8c0,0,0-0.1-0.1-0.1L12.7,12l1.6-1.6c0,0,0.1-0.1,0.1-0.1
	c0.4,0.5,0.6,1.1,0.6,1.8S14.8,13.3,14.4,13.8z"/>
</svg>
