<?xml version="1.0" encoding="utf-8"?>
<!-- Generator: Adobe Illustrator 24.0.0, SVG Export Plug-In . SVG Version: 6.00 Build 0)  -->
<svg version="1.1" id="图层_1" xmlns="http://www.w3.org/2000/svg" xmlns:xlink="http://www.w3.org/1999/xlink" x="0px" y="0px"
	 viewBox="0 0 16 16" style="enable-background:new 0 0 16 16;" xml:space="preserve">
<style type="text/css">
	.st0{opacity:0.75;}
	.st1{fill:#1F2022;}
</style>
<title>画板 6</title>
<g class="st0">
	<path class="st1" d="M5.5,14h-1C3.1,14,2,12.9,2,11.5v-7C2,3.1,3.1,2,4.5,2h7C12.9,2,14,3.1,14,4.5v2C14,6.8,13.8,7,13.5,7
		S13,6.8,13,6.5v-2C13,3.7,12.3,3,11.5,3h-7C3.7,3,3,3.7,3,4.5v7C3,12.3,3.7,13,4.5,13h1C5.8,13,6,13.2,6,13.5S5.8,14,5.5,14z"/>
	<path class="st1" d="M12.5,14h-4C7.6,14,7,13.4,7,12.5v-3C7,8.6,7.6,8,8.5,8h4C13.4,8,14,8.6,14,9.5v3C14,13.4,13.4,14,12.5,14z
		 M8.5,9C8.2,9,8,9.2,8,9.5v3C8,12.8,8.2,13,8.5,13h4c0.3,0,0.5-0.2,0.5-0.5v-3C13,9.2,12.8,9,12.5,9H8.5z"/>
</g>
</svg>
