<?xml version="1.0" encoding="utf-8"?>
<!-- Generator: Adobe Illustrator 24.0.0, SVG Export Plug-In . SVG Version: 6.00 Build 0)  -->
<svg version="1.1" id="v" xmlns="http://www.w3.org/2000/svg" xmlns:xlink="http://www.w3.org/1999/xlink" x="0px" y="0px"
	 viewBox="0 0 16 16" style="enable-background:new 0 0 16 16;" xml:space="preserve">
<style type="text/css">
	.st0{opacity:0.75;}
	.st1{fill:#1F2022;}
</style>
<g id="_16" class="st0">
	<path class="st1" d="M14.5,15h-3c-0.3,0-0.5-0.2-0.5-0.5s0.2-0.5,0.5-0.5h3c0.3,0,0.5,0.2,0.5,0.5S14.8,15,14.5,15z"/>
	<circle class="st1" cx="9.5" cy="14.5" r="0.5"/>
	<path class="st1" d="M6.5,15h-3C3.2,15,3,14.8,3,14.5S3.2,14,3.5,14h3C6.8,14,7,14.2,7,14.5S6.8,15,6.5,15z"/>
	<circle class="st1" cx="1.5" cy="14.5" r="0.5"/>
	<path class="st1" d="M14.5,11h-3c-0.3,0-0.5-0.2-0.5-0.5s0.2-0.5,0.5-0.5h3c0.3,0,0.5,0.2,0.5,0.5S14.8,11,14.5,11z"/>
	<circle class="st1" cx="9.5" cy="10.5" r="0.5"/>
	<path class="st1" d="M6.5,11h-3C3.2,11,3,10.8,3,10.5S3.2,10,3.5,10h3C6.8,10,7,10.2,7,10.5S6.8,11,6.5,11z"/>
	<circle class="st1" cx="1.5" cy="10.5" r="0.5"/>
	<path class="st1" d="M14.5,7h-3C11.2,7,11,6.8,11,6.5S11.2,6,11.5,6h3C14.8,6,15,6.2,15,6.5S14.8,7,14.5,7z"/>
	<circle class="st1" cx="9.5" cy="6.5" r="0.5"/>
	<path class="st1" d="M6.5,7h-3C3.2,7,3,6.8,3,6.5S3.2,6,3.5,6h3C6.8,6,7,6.2,7,6.5S6.8,7,6.5,7z"/>
	<circle class="st1" cx="1.5" cy="6.5" r="0.5"/>
	<path class="st1" d="M14.5,3h-3C11.2,3,11,2.8,11,2.5S11.2,2,11.5,2h3C14.8,2,15,2.2,15,2.5S14.8,3,14.5,3z"/>
	<circle class="st1" cx="9.5" cy="2.5" r="0.5"/>
	<path class="st1" d="M6.5,3h-3C3.2,3,3,2.8,3,2.5S3.2,2,3.5,2h3C6.8,2,7,2.2,7,2.5S6.8,3,6.5,3z"/>
	<circle class="st1" cx="1.5" cy="2.5" r="0.5"/>
</g>
</svg>
