<svg id="图层_1" data-name="图层 1" xmlns="http://www.w3.org/2000/svg" viewBox="0 0 16 16"><defs><style>.cls-1{fill:#1f2022;opacity:0.75;}</style></defs><title>view-app-grid-symbolic</title><path class="cls-1" d="M3.8,3C3.3,3,3,3,3,3.6v.8c0,.6.3.6.8.6h.4C4.7,5,5,5,5,4.4V3.6C5,3,4.7,3,4.2,3Zm4,0C7.3,3,7,3,7,3.6v.8c0,.6.3.6.8.6h.4C8.7,5,9,5,9,4.4V3.6C9,3,8.7,3,8.2,3Zm4,0c-.5,0-.8,0-.8.6v.8c0,.6.3.6.8.6h.4c.5,0,.8,0,.8-.6V3.6c0-.6-.3-.6-.8-.6Zm-8,4C3.3,7,3,7,3,7.6v.8c0,.6.3.6.8.6h.4C4.7,9,5,9,5,8.4V7.6C5,7,4.7,7,4.2,7Zm4,0C7.3,7,7,7,7,7.6v.8c0,.6.3.6.8.6h.4C8.7,9,9,9,9,8.4V7.6C9,7,8.7,7,8.2,7Zm4,0c-.5,0-.8,0-.8.6v.8c0,.6.3.6.8.6h.4c.5,0,.8,0,.8-.6V7.6c0-.6-.3-.6-.8-.6Zm-8,4c-.5,0-.8,0-.8.6v.8c0,.6.3.6.8.6h.4c.5,0,.8,0,.8-.6v-.8c0-.6-.3-.6-.8-.6Zm4,0c-.5,0-.8,0-.8.6v.8c0,.6.3.6.8.6h.4c.5,0,.8,0,.8-.6v-.8c0-.6-.3-.6-.8-.6Zm4,0c-.5,0-.8,0-.8.6v.8c0,.6.3.6.8.6h.4c.5,0,.8,0,.8-.6v-.8c0-.6-.3-.6-.8-.6Z"/></svg>