<?xml version="1.0" encoding="utf-8"?>
<!-- Generator: Adobe Illustrator 24.0.0, SVG Export Plug-In . SVG Version: 6.00 Build 0)  -->
<svg version="1.1" id="gtk-media-stop" xmlns="http://www.w3.org/2000/svg" xmlns:xlink="http://www.w3.org/1999/xlink" x="0px"
	 y="0px" viewBox="0 0 16 16" style="enable-background:new 0 0 16 16;" xml:space="preserve">
<style type="text/css">
	.st0{opacity:0.75;}
	.st1{fill:#1F2022;}
</style>
<g class="st0">
	<g>
		<path class="st1" d="M12,3c0.6,0,1,0.4,1,1v8c0,0.6-0.4,1-1,1H4c-0.6,0-1-0.4-1-1V4c0-0.6,0.4-1,1-1H12 M12,2H4C2.9,2,2,2.9,2,4v8
			c0,1.1,0.9,2,2,2h8c1.1,0,2-0.9,2-2V4C14,2.9,13.1,2,12,2L12,2z"/>
	</g>
</g>
</svg>
