<?xml version="1.0" encoding="utf-8"?>
<!-- Generator: Adobe Illustrator 21.0.0, SVG Export Plug-In . SVG Version: 6.00 Build 0)  -->
<svg version="1.1" id="gtk-zoom-fit" xmlns="http://www.w3.org/2000/svg" xmlns:xlink="http://www.w3.org/1999/xlink" x="0px"
	 y="0px" viewBox="0 0 16 16" style="enable-background:new 0 0 16 16;" xml:space="preserve">
<style type="text/css">
	.st0{opacity:0.75;}
	.st1{fill:#1F2022;}
</style>
<title>zoom-fit-best-symbolic</title>
<g class="st0">
	<path class="st1" d="M3,6V4.5C3,3.7,3.7,3,4.5,3H6V2H4.5C3.1,2,2,3.1,2,4.5V6H3z"/>
	<path class="st1" d="M3,11.5V10H2v1.5C2,12.9,3.1,14,4.5,14H6v-1H4.5C3.7,13,3,12.3,3,11.5z"/>
	<path class="st1" d="M13,4.5V6h1V4.5C14,3.1,12.9,2,11.5,2H10v1h1.5C12.3,3,13,3.7,13,4.5z"/>
	<path class="st1" d="M13,10v1.5c0,0.8-0.7,1.5-1.5,1.5H10v1h1.5c1.4,0,2.5-1.1,2.5-2.5V10H13z"/>
</g>
</svg>
