<?xml version="1.0" encoding="utf-8"?>
<!-- Generator: Adobe Illustrator 21.0.0, SVG Export Plug-In . SVG Version: 6.00 Build 0)  -->
<svg version="1.1" id="信息" xmlns="http://www.w3.org/2000/svg" xmlns:xlink="http://www.w3.org/1999/xlink" x="0px" y="0px"
	 viewBox="0 0 256 256" style="enable-background:new 0 0 256 256;" xml:space="preserve">
<style type="text/css">
	.st0{fill:#808080;}
	.st1{fill:#268BD2;}
</style>
<title>256</title>
<g id="_256">
	<path class="st0" d="M41,250v-68.7c-21.6-19.4-33.4-44.8-33.4-71.6C7.6,52.5,61.7,6,128.1,6s120.5,46.5,120.5,103.7
		s-54.1,103.7-120.5,103.7c-10.3,0-20.7-1.2-30.7-3.5L41,250z M128.1,13C65.5,13,14.6,56.4,14.6,109.7c0,25.3,11.4,49.2,32.2,67.4
		l1.2,1v58.3l47.9-34.1l1.6,0.4c10,2.4,20.3,3.7,30.7,3.7c62.6,0,113.5-43.4,113.5-96.7S190.7,13,128.1,13z"/>
	<path class="st1" d="M106.5,93.6H92.5c0-6.6,0.6-11.8,1.9-15.7c2-5.8,5.7-10.8,10.7-14.4c3.2-2.5,6.8-4.3,10.7-5.4
		c4-1.3,8.2-1.9,12.5-1.9c9.5,0,17.4,2.7,23.7,8c6.8,5.8,10.2,13.5,10.2,23.4c0.1,4.7-1,9.2-3.4,13.3c-1.8,3.1-5.7,7.5-11.7,13.1
		c-4.6,4.4-7.5,7.5-8.8,9.3c-3.4,4.6-5.1,11.3-5.1,20h-14.1c0-8.5,1.1-15.1,3.4-19.7c1.7-3.4,5.7-8.3,11.8-14.7
		c4.7-4.9,7.5-8,8.6-9.3c2.8-3.7,4.3-8.3,4.2-13c0.1-4.2-1.3-8.2-3.8-11.5c-3.5-4.5-8.7-6.7-15.5-6.7c-8.7,0-14.8,3.4-18.2,10.1
		C107.6,82.4,106.5,87.4,106.5,93.6z M134.4,156.2v16.3h-15.2v-16.3L134.4,156.2z"/>
</g>
</svg>
