<?xml version="1.0" encoding="utf-8"?>
<!-- Generator: Adobe Illustrator 21.0.0, SVG Export Plug-In . SVG Version: 6.00 Build 0)  -->
<svg version="1.1" id="图层_170" xmlns="http://www.w3.org/2000/svg" xmlns:xlink="http://www.w3.org/1999/xlink" x="0px" y="0px"
	 viewBox="0 0 256 256" style="enable-background:new 0 0 256 256;" xml:space="preserve">
<style type="text/css">
	.st0{fill:#808080;}
</style>
<title>256</title>
<g id="_256">
	<g id="_16">
		<path class="st0" d="M127.8,15.1c1.6,1.2,3.6,2.8,5.4,4.2c8.4,6.7,21.2,16.8,37.2,24.4c17.7,8.2,36.4,13.8,55.7,16.6
			c0.7,14.4,1.8,48.7-0.5,70.7c-2.6,24.4-17.7,52.3-41.5,76.4c-23.4,23.7-45.6,34.5-56.3,34.5s-32.8-10.8-56.1-34.5
			c-23.7-24.1-38.8-51.9-41.3-76.4c-2.3-21.8-1-57.3-0.3-71.4c12.3-2.7,40.3-9.4,55.3-15.9c15.4-6.6,28.5-17.4,37.2-24.5
			C124.2,17.9,126.3,16.3,127.8,15.1 M127.8,6c-4.2,0-22.4,20.5-45.6,30.5c-18.6,8-59.8,16.7-59.8,16.7s-3,50.2,0,78.7
			C28.5,191,97.2,250,127.8,250s99.6-59,105.8-118.1c3.1-29.5,0.4-79.5,0-79.5c0,0.3,0,0.5,0,0.8c-20.7-2.4-40.8-8-59.7-16.7
			C148.9,24.7,131.9,6,127.8,6z"/>
	</g>
</g>
</svg>
