<?xml version="1.0" encoding="iso-8859-1"?>
<!-- Generator: Adobe Illustrator 21.0.0, SVG Export Plug-In . SVG Version: 6.00 Build 0)  -->
<svg version="1.1" id="&#x5176;&#x4ED6;" xmlns="http://www.w3.org/2000/svg" xmlns:xlink="http://www.w3.org/1999/xlink" x="0px"
	 y="0px" viewBox="0 0 16 16" style="enable-background:new 0 0 16 16;" xml:space="preserve">
<title>画板 26</title>
<g id="_360">
	<g id="_22">
		<g id="g4">
			<g id="g6">
				<path id="path10" style="fill:#263238;" d="M0.5,12.39v2.27h15v-2.27H0.5z"/>
				<polygon style="fill:#64C4F9;" points="15.32,11.4 13.38,1.34 2.18,1.38 0.65,11.4 				"/>
				<polygon style="fill:#47B5F8;" points="15.32,11.4 13.38,1.34 9.46,1.34 7.16,11.4 				"/>
				<polygon style="fill:#455A64;" points="0.65,11.4 0.5,12.39 15.5,12.39 15.32,11.4 				"/>
				<polygon style="fill:#87D2FB;" points="3.1,11.4 3.6,1.38 2.71,1.38 1.2,11.4 				"/>
			</g>
			<g id="g12">
				
					<linearGradient id="path14_1_" gradientUnits="userSpaceOnUse" x1="-2180.76" y1="3822.22" x2="-2180.76" y2="3821.54" gradientTransform="matrix(1 0 0 1 2185.95 -3808.3101)">
					<stop  offset="0" style="stop-color:#455A64"/>
					<stop  offset="0.21" style="stop-color:#36474F"/>
					<stop  offset="1" style="stop-color:#000000"/>
				</linearGradient>
				<path id="path14" style="fill:url(#path14_1_);" d="M8.69,13.9h-7v-0.7h7V13.9z"/>
				
					<linearGradient id="path16_1_" gradientUnits="userSpaceOnUse" x1="-2173.0898" y1="3822.22" x2="-2173.0898" y2="3821.54" gradientTransform="matrix(1 0 0 1 2185.95 -3808.3101)">
					<stop  offset="0" style="stop-color:#38A3E7"/>
					<stop  offset="1" style="stop-color:#1976D2"/>
				</linearGradient>
				<path id="path16" style="fill:url(#path16_1_);" d="M12.31,13.9h1.1v-0.7h-1.1V13.9z"/>
			</g>
			<path style="fill:#01579B;" d="M13.38,1.34l1.94,10.06l0.18,1v2.27h-15v-2.28l0.15-1l1.54-10h0.54h6.74h3.92 M13.8,0.89H9.06
				L2.72,0.88h-1L1.66,1.3l-1.54,10l-0.15,1v2.84H16V12.3l-0.18-1L13.87,1.25l-0.08-0.41L13.8,0.89z"/>
		</g>
		
			<linearGradient id="SVGID_1_" gradientUnits="userSpaceOnUse" x1="-365.5508" y1="-507.6291" x2="-365.4608" y2="-502.4991" gradientTransform="matrix(1 0 0 -1 371.76 -499.47)">
			<stop  offset="0" style="stop-color:#01579B"/>
			<stop  offset="1" style="stop-color:#1976D2"/>
		</linearGradient>
		<path style="fill:url(#SVGID_1_);" d="M4.2,4.6c0.494-1.254,1.911-1.869,3.165-1.375C7.994,3.473,8.492,3.971,8.74,4.6
			c0.972,0.208,1.591,1.165,1.383,2.137C9.984,7.387,9.498,7.907,8.86,8.09C8.704,8.137,8.543,8.161,8.38,8.16H4.11
			C3.182,8.221,2.381,7.518,2.32,6.59C2.259,5.662,2.962,4.861,3.89,4.8C4.16,4.8,4.1,4.85,4.2,4.6z"/>
		
			<linearGradient id="SVGID_2_" gradientUnits="userSpaceOnUse" x1="-362.141" y1="-509.2791" x2="-362.051" y2="-504.1491" gradientTransform="matrix(1 0 0 -1 371.76 -499.47)">
			<stop  offset="0" style="stop-color:#C7EAFF"/>
			<stop  offset="1" style="stop-color:#FFFFFF"/>
		</linearGradient>
		<path style="fill:url(#SVGID_2_);" d="M7.61,6.24c0.494-1.254,1.911-1.869,3.165-1.375c0.629,0.248,1.127,0.746,1.375,1.375
			c0.972,0.208,1.591,1.165,1.383,2.137c-0.139,0.649-0.625,1.169-1.263,1.353c-0.156,0.047-0.317,0.071-0.48,0.07H7.52
			C6.592,9.861,5.791,9.158,5.73,8.23S6.372,6.501,7.3,6.44C7.57,6.44,7.51,6.49,7.61,6.24z"/>
	</g>
</g>
</svg>
