<?xml version="1.0" encoding="iso-8859-1"?>
<!-- Generator: Adobe Illustrator 21.0.0, SVG Export Plug-In . SVG Version: 6.00 Build 0)  -->
<svg version="1.1" id="&#x5176;&#x4ED6;" xmlns="http://www.w3.org/2000/svg" xmlns:xlink="http://www.w3.org/1999/xlink" x="0px"
	 y="0px" viewBox="0 0 64 64" style="enable-background:new 0 0 64 64;" xml:space="preserve">
<title>画板 21</title>
<g id="&#x8F6F;&#x9A71;">
	<path style="opacity:0.2;enable-background:new    ;" d="M5.67,62c-1.946,0-3.524-1.574-3.53-3.52V5.55C2.129,3.6,3.7,2.011,5.65,2
		c0.003,0,0.007,0,0.01,0h4.45l0.41,0.85h0.12h5.46v-0.8L17.52,2h31.25l0,0h7.55l5.55,5.39v51.15
		c0.001,1.911-1.548,3.46-3.459,3.461c-0.027,0-0.054,0-0.081-0.001H5.67z"/>
	<path style="opacity:0.08;enable-background:new    ;" d="M6.67,64c-2.498,0-4.524-2.022-4.53-4.52V6.55
		C2.129,4.048,4.148,2.011,6.65,2c0.003,0,0.007,0,0.01,0h5.08l0.42,0.87h3.94V2.18L18.45,2h32.32l0,0h7l6.14,6v51.54
		c0.007,2.458-1.98,4.455-4.438,4.462c-0.047,0-0.095-0.001-0.142-0.002H6.67z"/>
	<path style="opacity:0.1;enable-background:new    ;" d="M6.67,63c-1.946,0-3.524-1.574-3.53-3.52V6.55C3.129,4.6,4.7,3.011,6.65,3
		c0.003,0,0.007,0,0.01,0h4.45l0.41,0.85h0.12h5.46v-0.8L18.52,3h31.25l0,0h7.55l5.55,5.39v51.15
		c0.001,1.911-1.548,3.46-3.459,3.461c-0.027,0-0.054,0-0.081-0.001H6.67z"/>
	<path d="M5.67,61c-1.393,0-2.524-1.127-2.53-2.52V5.55C3.129,4.153,4.253,3.011,5.65,3c0.003,0,0.007,0,0.01,0h3.83l0.14,0.28
		c0.131,0.257,0.363,0.449,0.64,0.53c0.108,0.027,0.219,0.044,0.33,0.05h6.5V3h0.5h30.17v0.9c0.137-0.02,0.269-0.064,0.39-0.13
		l0.12-0.07l0.11-0.09l0.11-0.12c0.049-0.056,0.092-0.116,0.13-0.18l0.14-0.28h7.15l5,4.82v50.69
		c-0.004,1.364-1.113,2.467-2.477,2.463c-0.038,0-0.075-0.001-0.113-0.003H5.67z"/>
	
		<linearGradient id="SVGID_1_" gradientUnits="userSpaceOnUse" x1="32.015" y1="62.45" x2="32.015" y2="-43.14" gradientTransform="matrix(1 0 0 -1 0 66)">
		<stop  offset="0" style="stop-color:#211D1E"/>
		<stop  offset="0.55" style="stop-color:#58595B"/>
		<stop  offset="1" style="stop-color:#ABB6BE"/>
	</linearGradient>
	<path style="fill:url(#SVGID_1_);" d="M60.36,58.54c0,1.105-0.895,2-2,2H5.67c-1.105,0-2-0.895-2-2V5.55c0-1.105,0.895-2,2-2h3.5
		c0.27,0.536,0.82,0.873,1.42,0.87h37c0.598,0.005,1.148-0.328,1.42-0.86h6.64l4.66,4.52L60.36,58.54z"/>
	
		<linearGradient id="SVGID_2_" gradientUnits="userSpaceOnUse" x1="32.5" y1="38.91" x2="32.5" y2="1.96" gradientTransform="matrix(1 0 0 -1 0 66)">
		<stop  offset="0" style="stop-color:#FFFFFF"/>
		<stop  offset="1" style="stop-color:#CFD8DC"/>
	</linearGradient>
	<path style="fill:url(#SVGID_2_);" d="M12.16,27.88H53c1.11,0.043,1.99,0.95,2,2.06V60.5H10V29.94
		c0.004-1.143,0.935-2.066,2.078-2.062C12.105,27.878,12.133,27.879,12.16,27.88z"/>
	<path style="fill:#221E1F;" d="M11.27,24c-0.825,0-1.495-0.665-1.5-1.49V4.18c0.199,0.116,0.421,0.187,0.65,0.21v18.08
		c-0.017,0.828,0.641,1.513,1.47,1.53c0.013,0,0.027,0,0.04,0H11.27z"/>
	<path style="fill:#040000;" d="M11.77,27.67h40.94c0.477,0.017,0.935,0.193,1.3,0.5c-0.207-0.084-0.427-0.135-0.65-0.15H12.42
		c-1.145,0-2.074,0.925-2.08,2.07V60.5H9.69V29.73C9.701,28.589,10.629,27.67,11.77,27.67z"/>
	<path style="fill:#BAC6D1;" d="M53.85,28.06c0.967,0.18,1.673,1.016,1.69,2v24.36l0,0v2.24l0,0v3.84H54.8V29.79
		C54.798,29.089,54.44,28.438,53.85,28.06z"/>
	<path style="fill:#616161;" d="M48.94,3.79L48.86,22.6c-0.005,0.825-0.675,1.49-1.5,1.49L12,24c-0.56-0.001-1.073-0.313-1.33-0.81
		c0.415,0.205,0.856,0.353,1.31,0.44h34.71c0.808,0,1.465-0.652,1.47-1.46l0.08-17.92c0.282-0.111,0.525-0.302,0.7-0.55L48.94,3.79z
		 M47.44,4.44H25.07l0,0H47.44z"/>
	<path style="fill:#221E1F;" d="M17.65,3.54h29.62v17.19c-0.006,1.156-0.944,2.09-2.1,2.09H19.76c-1.158-0.005-2.095-0.942-2.1-2.1
		V3.54H17.65z M36.78,5.59c-0.779,0-1.41,0.631-1.41,1.41v13.57c-0.011,0.779,0.611,1.419,1.39,1.43c0.007,0,0.013,0,0.02,0h5.75
		c0.779,0,1.41-0.631,1.41-1.41V7c-0.005-0.776-0.634-1.405-1.41-1.41H36.78z"/>
	
		<linearGradient id="SVGID_3_" gradientUnits="userSpaceOnUse" x1="-9.1697" y1="48.6975" x2="51.5703" y2="55.0775" gradientTransform="matrix(1 0 0 -1 0 66)">
		<stop  offset="0" style="stop-color:#BFD7B1"/>
		<stop  offset="0.36" style="stop-color:#CFD1D2"/>
		<stop  offset="1" style="stop-color:#FFFFFF"/>
	</linearGradient>
	<path style="fill:url(#SVGID_3_);" d="M17.6,3.5h29.62v16.99c-0.011,1.158-0.952,2.09-2.11,2.09H19.7
		c-1.158-0.005-2.095-0.942-2.1-2.1V3.5z M36.73,5.34c-0.777,0-1.409,0.624-1.42,1.4v13.59c0.005,0.78,0.64,1.41,1.42,1.41h5.74
		c0.775,0,1.405-0.625,1.41-1.4V6.76c-0.005-0.776-0.634-1.405-1.41-1.41L36.73,5.34z"/>
	<path style="fill:#FFFFFF;" d="M17.6,3.54h29.62v0.25H17.81v16.9c-0.001,0.451,0.147,0.891,0.42,1.25
		c-0.41-0.391-0.641-0.933-0.64-1.5V3.54H17.6z M43.64,6c0.163,0.235,0.25,0.514,0.25,0.8v13.54c-0.005,0.775-0.635,1.4-1.41,1.4
		h-5.74c-0.369,0.012-0.728-0.121-1-0.37c0.264,0.38,0.697,0.608,1.16,0.61h5.74c0.78,0,1.415-0.63,1.42-1.41V7
		C44.058,6.624,43.907,6.265,43.64,6z"/>
	<rect x="18.15" y="36.77" style="fill:#90A4AE;" width="28.58" height="1.41"/>
	<rect x="18.15" y="48.74" style="fill:#90A4AE;" width="28.58" height="1.41"/>
</g>
</svg>
