<?xml version="1.0" encoding="iso-8859-1"?>
<!-- Generator: Adobe Illustrator 21.0.0, SVG Export Plug-In . SVG Version: 6.00 Build 0)  -->
<svg version="1.1" id="&#x5176;&#x4ED6;" xmlns="http://www.w3.org/2000/svg" xmlns:xlink="http://www.w3.org/1999/xlink" x="0px"
	 y="0px" viewBox="0 0 64 64" style="enable-background:new 0 0 64 64;" xml:space="preserve">
<title>画板 21</title>
<g id="&#x8033;&#x9EA6;">
	<g id="_64">
		<g style="opacity:0.08;">
			<path d="M33,64C15.879,64,2,50.121,2,33S15.879,2,33,2s31,13.879,31,31S50.121,64,33,64z"/>
		</g>
		<g style="opacity:0.1;">
			<path d="M33,63C16.431,63,3,49.569,3,33S16.431,3,33,3s30,13.431,30,30S49.569,63,33,63z"/>
		</g>
		<g style="opacity:0.2;">
			<path d="M32,62C15.431,62,2,48.569,2,32S15.431,2,32,2s30,13.431,30,30S48.569,62,32,62z"/>
		</g>
		
			<linearGradient id="SVGID_1_" gradientUnits="userSpaceOnUse" x1="41.3423" y1="5.3008" x2="22.3023" y2="63.7908" gradientTransform="matrix(1 0 0 -1 0 66)">
			<stop  offset="0" style="stop-color:#4DD0E1"/>
			<stop  offset="0.94" style="stop-color:#1976D2"/>
		</linearGradient>
		<path style="fill:url(#SVGID_1_);" d="M32,61.25C15.846,61.25,2.75,48.154,2.75,32S15.846,2.75,32,2.75S61.25,15.846,61.25,32
			C61.233,48.147,48.147,61.233,32,61.25z"/>
		<path style="fill:#455A64;" d="M32,3c16.016,0,29,12.984,29,29S48.016,61,32,61S3,48.016,3,32S15.984,3,32,3 M32,2.5
			C15.708,2.5,2.5,15.708,2.5,32S15.708,61.5,32,61.5S61.5,48.292,61.5,32C61.483,15.714,48.286,2.517,32,2.5z"/>
		<path style="opacity:0.2;enable-background:new    ;" d="M48.91,35.44c-0.001-3.879-2.645-7.257-6.41-8.19
			c-0.118-1.724-0.531-3.415-1.22-5c-1.592-3.674-5.279-5.991-9.28-5.83c-4.013-0.152-7.704,2.186-9.28,5.88
			c-0.689,1.585-1.102,3.276-1.22,5c-4.529,1.127-7.287,5.711-6.16,10.24c0.933,3.752,4.294,6.392,8.16,6.41V28
			c0.057-1.671,0.427-3.316,1.09-4.85c1.08-2.4,3-4.66,7.37-4.66s6.28,2.26,7.37,4.66c0.673,1.532,1.053,3.178,1.12,4.85v15.9
			c0.781,0.001,1.558-0.107,2.31-0.32c-0.067,0.474-0.264,0.921-0.57,1.29c-0.394,0.413-0.951,0.629-1.52,0.59h-3.91
			c-0.375-0.527-0.983-0.84-1.63-0.84H31c-1.117,0.043-2.001,0.962-2,2.08l0,0c-0.001,1.118,0.883,2.037,2,2.08h4.1
			c0.817,0.007,1.561-0.467,1.9-1.21h3.66c1.173,0.014,2.298-0.465,3.1-1.32c0.85-1.018,1.292-2.315,1.24-3.64l0,0
			C47.448,41.05,48.925,38.343,48.91,35.44z"/>
		
			<linearGradient id="SVGID_2_" gradientUnits="userSpaceOnUse" x1="31.999" y1="50.7877" x2="31.999" y2="18.4199" gradientTransform="matrix(1 0 0 -1 0 66)">
			<stop  offset="0.38" style="stop-color:#FFFFFF"/>
			<stop  offset="1" style="stop-color:#CCCCCC"/>
		</linearGradient>
		<path style="fill:url(#SVGID_2_);" d="M48.91,34.25c-0.001-3.879-2.645-7.257-6.41-8.19c-0.118-1.724-0.531-3.415-1.22-5
			c-1.589-3.678-5.277-5.999-9.28-5.84c-4.013-0.152-7.704,2.186-9.28,5.88c-0.689,1.585-1.102,3.276-1.22,5
			c-4.529,1.127-7.287,5.711-6.16,10.24c0.933,3.752,4.294,6.392,8.16,6.41v-15.9c0.07-1.673,0.453-3.318,1.13-4.85
			c1.08-2.4,3-4.66,7.37-4.66s6.28,2.26,7.37,4.66c0.663,1.534,1.033,3.179,1.09,4.85V42.7c0.781,0.001,1.558-0.107,2.31-0.32
			c-0.067,0.474-0.264,0.921-0.57,1.29c-0.394,0.413-0.951,0.629-1.52,0.59h-3.92c-0.375-0.527-0.983-0.84-1.63-0.84H31
			c-1.117,0.043-2.001,0.962-2,2.08l0,0c-0.001,1.118,0.883,2.037,2,2.08h4.1c0.817,0.007,1.561-0.467,1.9-1.21h3.66
			c1.187,0.007,2.322-0.491,3.12-1.37c0.829-1.005,1.263-2.278,1.22-3.58l0,0C47.448,39.86,48.925,37.153,48.91,34.25z"/>
		<ellipse style="opacity:0.24;fill:#FFFFFF;enable-background:new    ;" cx="31.83" cy="21.77" rx="21.91" ry="16.47"/>
	</g>
</g>
</svg>
