<?xml version="1.0" encoding="iso-8859-1"?>
<!-- Generator: Adobe Illustrator 21.0.0, SVG Export Plug-In . SVG Version: 6.00 Build 0)  -->
<svg version="1.1" id="&#x56FE;&#x5C42;_1" xmlns="http://www.w3.org/2000/svg" xmlns:xlink="http://www.w3.org/1999/xlink" x="0px"
	 y="0px" viewBox="0 0 64 64" style="enable-background:new 0 0 64 64;" xml:space="preserve">
<title>画板 21</title>
<g id="&#x5F00;&#x59CB;&#x83DC;&#x5355;&#x5E94;&#x7528;&#x56FE;&#x6807;">
	<g id="&#x786C;&#x76D8;">
		<g id="_64">
			<polygon style="opacity:0.08;fill:#231815;enable-background:new    ;" points="2,60.8 2,49.55 2.02,49.38 2.58,45.56 8.75,5.35 
				55.5,5.2 63.26,45.46 63.98,49.38 64,49.58 64,60.8 			"/>
			<polygon style="opacity:0.1;fill:#231815;enable-background:new    ;" points="3,59.81 3,49.61 3.01,49.49 3.57,45.71 9.61,6.34 
				54.67,6.2 62.28,45.65 62.99,49.51 63,49.64 63,59.81 			"/>
			<polygon style="opacity:0.2;fill:#231815;enable-background:new    ;" points="2,58.8 2,48.61 2.01,48.49 2.57,44.71 8.61,5.34 
				53.67,5.2 61.28,44.65 61.99,48.51 62,48.64 62,58.8 			"/>
			<path style="fill:#231815;" d="M61,48.6l-0.7-3.75L52.93,6.61L52.85,6.2h-0.41L9.89,6.34H9.47L9.41,6.76l-5.85,38.1L3,48.61v9.19
				h58V48.6z"/>
			<g id="g4">
				<g id="g6">
					<path id="path10" style="fill:#263238;" d="M3.5,48.69v8.62h57v-8.62H3.5z"/>
					<polygon style="fill:#E0E0E0;" points="59.8,44.93 52.44,6.7 9.9,6.84 4.05,44.93 					"/>
					<polygon style="opacity:0.25;fill:#9E9E9E;enable-background:new    ;" points="59.8,44.93 52.44,6.7 37.56,6.7 28.8,44.93 
											"/>
					<polygon style="fill:#455A64;" points="4.05,44.93 3.5,48.69 60.5,48.69 59.8,44.93 					"/>
					<polygon style="opacity:0.45;fill:#FFFFFF;enable-background:new    ;" points="13.37,44.93 15.29,6.83 11.9,6.83 6.14,44.93 
											"/>
				</g>
				<g id="g12">
					
						<linearGradient id="path14_1_" gradientUnits="userSpaceOnUse" x1="-2164.605" y1="3562.76" x2="-2164.605" y2="3560.1599" gradientTransform="matrix(1 0 0 1 2185.95 -3508.3101)">
						<stop  offset="0" style="stop-color:#455A64"/>
						<stop  offset="0.21" style="stop-color:#36474F"/>
						<stop  offset="1" style="stop-color:#000000"/>
					</linearGradient>
					<path id="path14" style="fill:url(#path14_1_);" d="M34.62,54.44H8.07V51.8h26.55V54.44z"/>
					
						<linearGradient id="path16_1_" gradientUnits="userSpaceOnUse" x1="-2135.4849" y1="3562.76" x2="-2135.4849" y2="3560.1599" gradientTransform="matrix(1 0 0 1 2185.95 -3508.3101)">
						<stop  offset="0" style="stop-color:#38A3E7"/>
						<stop  offset="1" style="stop-color:#1976D2"/>
					</linearGradient>
					<path id="path16" style="fill:url(#path16_1_);" d="M48.38,54.44h4.17V51.8h-4.17V54.44z"/>
				</g>
			</g>
			<path style="fill:#606060;" d="M52.44,6.7l7.36,38.23l0.7,3.75v8.62h-57v-8.61l0.56-3.75L9.9,6.84L52.44,6.7 M52.85,6.2h-0.41
				L9.89,6.34H9.47L9.41,6.76l-5.85,38.1L3,48.61v9.19h58v-9.2l-0.7-3.75L52.93,6.61C52.93,6.61,52.85,6.2,52.85,6.2z"/>
		</g>
	</g>
</g>
</svg>
