<?xml version="1.0" encoding="utf-8"?>
<!-- Generator: Adobe Illustrator 21.0.0, SVG Export Plug-In . SVG Version: 6.00 Build 0)  -->
<svg version="1.1" id="其他" xmlns="http://www.w3.org/2000/svg" xmlns:xlink="http://www.w3.org/1999/xlink" x="0px" y="0px"
	 viewBox="0 0 96 96" style="enable-background:new 0 0 96 96;" xml:space="preserve">
<style type="text/css">
	.st0{display:none;opacity:0.2;enable-background:new    ;}
	.st1{display:none;opacity:8.000000e-02;enable-background:new    ;}
	.st2{display:none;opacity:0.1;enable-background:new    ;}
	.st3{fill:#01579B;}
	.st4{fill:#0288D1;}
	.st5{fill:url(#SVGID_1_);}
	.st6{opacity:0.7;}
	.st7{fill:#FFFFFF;}
	.st8{fill:#F5F5F5;}
</style>
<g id="光盘">
	<path class="st0" d="M48.5,93C23.9,93,4,73.1,4,48.5S23.9,4,48.5,4S93,23.9,93,48.5C93,73.1,73.1,93,48.5,93z M48.5,45.1
		c-1.9,0-3.4,1.5-3.4,3.4c0,1.9,1.5,3.4,3.4,3.4c1.9,0,3.4-1.5,3.4-3.4C51.9,46.6,50.4,45.1,48.5,45.1L48.5,45.1z"/>
	<path class="st1" d="M50,96C24.6,96,4,75.4,4,50S24.6,4,50,4s46,20.6,46,46C96,75.4,75.4,96,50,96z M50,48.1
		c-1.1,0-1.9,0.9-1.9,1.9c0,1.1,0.9,1.9,1.9,1.9s1.9-0.9,1.9-1.9S51.1,48.1,50,48.1L50,48.1z"/>
	<path class="st2" d="M50,94.5C25.4,94.5,5.5,74.6,5.5,50S25.4,5.5,50,5.5S94.5,25.4,94.5,50C94.5,74.6,74.6,94.5,50,94.5z M50,46.6
		c-1.9,0-3.4,1.5-3.4,3.4c0,1.9,1.5,3.4,3.4,3.4c1.9,0,3.4-1.5,3.4-3.4C53.4,48.1,51.9,46.6,50,46.6L50,46.6z"/>
	<path class="st3" d="M48,91C24.3,91,5,71.7,5,48S24.3,5,48,5s43,19.3,43,43C91,71.7,71.7,91,48,91z M48,43.1
		c-2.7,0-4.9,2.2-4.9,4.9s2.2,4.9,4.9,4.9s4.9-2.2,4.9-4.9C52.9,45.3,50.7,43.1,48,43.1L48,43.1z"/>
	<path class="st4" d="M48,6C24.8,6,6,24.8,6,48s18.8,42,42,42s42-18.8,42-42S71.2,6,48,6z M48,88.8C25.5,88.8,7.2,70.5,7.2,48
		S25.5,7.2,48,7.2S88.8,25.5,88.8,48l0,0C88.8,70.5,70.5,88.8,48,88.8z"/>
	
		<radialGradient id="SVGID_1_" cx="55.4665" cy="4214.3979" r="35.6116" gradientTransform="matrix(0.98 0 0 0.98 -6.49 -4082.241)" gradientUnits="userSpaceOnUse">
		<stop  offset="0" style="stop-color:#4DD0E1"/>
		<stop  offset="0.39" style="stop-color:#40BEE7"/>
		<stop  offset="0.61" style="stop-color:#3FBDE7"/>
		<stop  offset="0.66" style="stop-color:#44C4E8"/>
		<stop  offset="0.75" style="stop-color:#2CBEE8"/>
		<stop  offset="1" style="stop-color:#2196F3"/>
	</radialGradient>
	<path class="st5" d="M48,13c-19.3,0-35,15.7-35,35s15.7,35,35,35s35-15.7,35-35C83,28.7,67.3,13,48,13z M48,60.3
		c-6.8,0-12.3-5.5-12.3-12.3S41.2,35.7,48,35.7S60.3,41.2,60.3,48l0,0C60.2,54.8,54.8,60.2,48,60.3z"/>
	<g class="st6">
		<path class="st7" d="M60.2,48.8l21.5,1.4h1.2c0.3-5-0.4-10-2.2-14.7l-21.3,8.2C60.1,45.3,60.3,47.1,60.2,48.8z"/>
		<path class="st7" d="M35.8,47.2l-21.5-1.4h-1.2c-0.3,5,0.4,10,2.2,14.7l21.3-8.2C35.9,50.7,35.7,48.9,35.8,47.2z"/>
	</g>
	<g class="st6">
		<path class="st7" d="M58.7,41.8l18.8-10.9l1-0.7c-2.6-4.3-6-8.1-10.2-10.9L55.1,37.9C56.6,38.9,57.8,40.3,58.7,41.8z"/>
		<path class="st7" d="M37.3,54.2L18.5,65.1l-1,0.7c2.6,4.3,6,8.1,10.1,11l13.2-18.7C39.4,57.1,38.2,55.7,37.3,54.2z"/>
	</g>
	<path class="st8" d="M48,7C25.4,7,7,25.4,7,48s18.4,41,41,41s41-18.4,41-41l0,0C89,25.4,70.6,7,48,7z M48,83.2
		c-19.4,0-35.2-15.8-35.2-35.2S28.6,12.8,48,12.8S83.2,28.6,83.2,48C83.2,67.4,67.4,83.2,48,83.2z"/>
	<path class="st4" d="M48,36c-6.6,0-12,5.4-12,12s5.4,12,12,12s12-5.4,12-12c0,0,0,0,0,0C60,41.4,54.6,36,48,36z M48,58.7
		c-5.9,0-10.8-4.8-10.8-10.8S42.1,37.2,48,37.2S58.8,42,58.8,48c0,0,0,0,0,0C58.8,53.9,53.9,58.7,48,58.7z"/>
	<path class="st8" d="M48,37c-6.1,0-11,4.9-11,11s4.9,11,11,11s11-4.9,11-11C59,41.9,54.1,37,48,37z M48,53.6
		c-3.1,0-5.6-2.5-5.6-5.6s2.5-5.6,5.6-5.6c3.1,0,5.6,2.5,5.6,5.6c0,0,0,0,0,0C53.6,51.1,51.1,53.6,48,53.6L48,53.6z"/>
</g>
</svg>
