<?xml version="1.0" encoding="iso-8859-1"?>
<!-- Generator: Adobe Illustrator 21.0.0, SVG Export Plug-In . SVG Version: 6.00 Build 0)  -->
<svg version="1.1" id="&#x5176;&#x4ED6;" xmlns="http://www.w3.org/2000/svg" xmlns:xlink="http://www.w3.org/1999/xlink" x="0px"
	 y="0px" viewBox="0 0 16 16" style="enable-background:new 0 0 16 16;" xml:space="preserve">
<title>画板 26</title>
<g id="&#x78C1;&#x5E26;">
	<g id="_16">
		
			<linearGradient id="SVGID_1_" gradientUnits="userSpaceOnUse" x1="8" y1="3.61" x2="8" y2="23.21" gradientTransform="matrix(1 0 0 -1 0 18)">
			<stop  offset="0" style="stop-color:#211D1E"/>
			<stop  offset="0.55" style="stop-color:#58595B"/>
			<stop  offset="1" style="stop-color:#ABB6BE"/>
		</linearGradient>
		<rect x="0.25" y="2.84" style="fill:url(#SVGID_1_);" width="15.5" height="10.32"/>
		<path style="fill:#212121;" d="M15.5,3.09v9.82h-15V3.09H15.5 M16,2.59H0v10.82h16V2.59z"/>
		<rect x="1.21" y="4.39" style="fill:#212121;" width="13.57" height="7.23"/>
		<rect x="1.62" y="4.8" style="fill:#2D2D2D;" width="12.75" height="6.41"/>
		<g>
			<defs>
				<rect id="SVGID_2_" x="1.62" y="4.8" width="12.75" height="6.41"/>
			</defs>
			<clipPath id="SVGID_3_">
				<use xlink:href="#SVGID_2_"  style="overflow:visible;"/>
			</clipPath>
			<g style="clip-path:url(#SVGID_3_);">
				<circle cx="4.43" cy="8" r="3.61"/>
				<polygon points="13.97,7.08 13,7.29 13.98,11.7 14.94,11.48 				"/>
			</g>
		</g>
		<circle style="fill:#CFD8DC;" cx="4.43" cy="8" r="1.74"/>
		<circle style="fill:#212121;" cx="4.43" cy="8" r="0.55"/>
		<rect x="3.96" y="6.57" style="fill:#212121;" width="0.94" height="0.61"/>
		
			<rect x="3.153" y="8.091" transform="matrix(0.866 -0.5 0.5 0.866 -3.8173 2.8757)" style="fill:#212121;" width="0.61" height="0.94"/>
		
			<rect x="4.927" y="8.258" transform="matrix(0.5 -0.866 0.866 0.5 -4.7168 8.9557)" style="fill:#212121;" width="0.94" height="0.61"/>
		<circle cx="11.32" cy="8" r="2.89"/>
		<circle style="fill:#CFD8DC;" cx="11.32" cy="8" r="1.74"/>
		<circle style="fill:#212121;" cx="11.32" cy="8" r="0.55"/>
		<rect x="10.85" y="6.57" style="fill:#212121;" width="0.94" height="0.61"/>
		
			<rect x="10.043" y="8.093" transform="matrix(0.866 -0.5 0.5 0.866 -2.8951 6.321)" style="fill:#212121;" width="0.61" height="0.94"/>
		
			<rect x="11.817" y="8.256" transform="matrix(0.5 -0.866 0.866 0.5 -1.2703 14.9218)" style="fill:#212121;" width="0.94" height="0.61"/>
		
			<linearGradient id="SVGID_4_" gradientUnits="userSpaceOnUse" x1="7.995" y1="6.19" x2="7.995" y2="13.66" gradientTransform="matrix(1 0 0 -1 0 18)">
			<stop  offset="0" style="stop-color:#FFFFFF"/>
			<stop  offset="0.16" style="stop-color:#4A4B4D"/>
			<stop  offset="0.5" style="stop-color:#46484A"/>
			<stop  offset="0.54" style="stop-color:#525557"/>
			<stop  offset="0.61" style="stop-color:#727779"/>
			<stop  offset="0.71" style="stop-color:#A6ADB0"/>
			<stop  offset="0.78" style="stop-color:#CFD8DC"/>
			<stop  offset="1" style="stop-color:#FFFFFF"/>
		</linearGradient>
		<rect x="1.62" y="4.8" style="opacity:0.3;fill:url(#SVGID_4_);enable-background:new    ;" width="12.75" height="6.41"/>
	</g>
</g>
</svg>
