<?xml version="1.0" encoding="iso-8859-1"?>
<!-- Generator: Adobe Illustrator 21.0.0, SVG Export Plug-In . SVG Version: 6.00 Build 0)  -->
<svg version="1.1" id="&#x5176;&#x4ED6;" xmlns="http://www.w3.org/2000/svg" xmlns:xlink="http://www.w3.org/1999/xlink" x="0px"
	 y="0px" viewBox="0 0 64 64" style="enable-background:new 0 0 64 64;" xml:space="preserve">
<title>画板 21</title>
<g id="&#x5149;&#x76D8;-&#x97F3;&#x4E50;">
	<path style="opacity:0.2;enable-background:new    ;" d="M32,61.77C16.232,61.742,3.472,48.938,3.5,33.17S16.332,4.642,32.1,4.67
		c15.748,0.028,28.5,12.802,28.5,28.55C60.583,49,47.78,61.781,32,61.77z M32,31c-1.215,0-2.2,0.985-2.2,2.2s0.985,2.2,2.2,2.2
		c1.215,0,2.2-0.985,2.2-2.2S33.215,31,32,31L32,31z"/>
	<path style="opacity:0.08;enable-background:new    ;" d="M33,63.67c-16.292,0-29.5-13.208-29.5-29.5S16.708,4.67,33,4.67
		s29.5,13.208,29.5,29.5C62.483,50.456,49.286,63.653,33,63.67z M33,32.92c-0.685,0.006-1.235,0.565-1.23,1.25
		c0.006,0.685,0.565,1.235,1.25,1.23c0.677-0.005,1.224-0.553,1.23-1.23c-0.005-0.686-0.564-1.24-1.25-1.24V32.92z"/>
	<path style="opacity:0.1;enable-background:new    ;" d="M33,62.72c-15.768,0-28.55-12.782-28.55-28.55S17.232,5.62,33,5.62
		s28.55,12.782,28.55,28.55C61.533,49.931,48.761,62.703,33,62.72z M33,32c-1.215,0-2.2,0.985-2.2,2.2s0.985,2.2,2.2,2.2
		c1.215,0,2.2-0.985,2.2-2.2S34.215,32,33,32L33,32z"/>
	<path style="fill:#01579B;" d="M32,60.82c-15.243,0-27.6-12.357-27.6-27.6S16.757,5.62,32,5.62s27.6,12.357,27.6,27.6l0,0
		C59.583,48.456,47.236,60.803,32,60.82z M32,30.07c-1.74,0-3.15,1.41-3.15,3.15c0,1.74,1.41,3.15,3.15,3.15
		c1.74,0,3.15-1.41,3.15-3.15S33.74,30.07,32,30.07C32,30.07,32,30.07,32,30.07z"/>
	<path style="fill:#0288D1;" d="M32,6.1C17.022,6.128,4.902,18.292,4.93,33.27C4.958,48.248,17.122,60.368,32.1,60.34
		c14.958-0.028,27.07-12.161,27.07-27.12c0-14.978-12.142-27.12-27.12-27.12C32.033,6.1,32.017,6.1,32,6.1z M32,59.55
		C17.458,59.522,5.692,47.712,5.72,33.17S17.558,6.862,32.1,6.89c14.522,0.028,26.28,11.808,26.28,26.33
		C58.363,47.774,46.554,59.561,32,59.55z"/>
	
		<radialGradient id="SVGID_1_" cx="42.6837" cy="30.0418" r="22.9782" gradientTransform="matrix(0.98 0 0 -0.98 -9.83 62.57)" gradientUnits="userSpaceOnUse">
		<stop  offset="0" style="stop-color:#4DD0E1"/>
		<stop  offset="0.39" style="stop-color:#40BEE7"/>
		<stop  offset="0.61" style="stop-color:#3FBDE7"/>
		<stop  offset="0.66" style="stop-color:#44C4E8"/>
		<stop  offset="0.75" style="stop-color:#2CBEE8"/>
		<stop  offset="1" style="stop-color:#2196F3"/>
	</radialGradient>
	<path style="fill:url(#SVGID_1_);" d="M32,10.62c-12.482,0-22.6,10.118-22.6,22.6s10.118,22.6,22.6,22.6s22.6-10.118,22.6-22.6l0,0
		C54.583,20.745,44.475,10.637,32,10.62z M32,41.13c-4.368-0.05-7.869-3.631-7.819-7.999c0.05-4.368,3.631-7.869,7.999-7.819
		C36.513,25.36,40,28.887,40,33.22c-0.005,4.374-3.556,7.916-7.93,7.91C32.047,41.13,32.023,41.13,32,41.13z"/>
	<g style="opacity:0.7;">
		<path style="fill:#FFFFFF;" d="M39.94,33.74l13.87,0.92h0.79c0.192-3.217-0.302-6.438-1.45-9.45L39.43,30.4
			C39.836,31.464,40.01,32.603,39.94,33.74z"/>
		<path style="fill:#FFFFFF;" d="M24.16,32.7l-13.87-0.92H9.5c-0.192,3.217,0.302,6.438,1.45,9.45L24.66,36
			C24.263,34.947,24.093,33.823,24.16,32.7z"/>
	</g>
	<g style="opacity:0.7;">
		<path style="fill:#FFFFFF;" d="M38.88,29.24l12-7l0.64-0.47c-1.643-2.766-3.856-5.152-6.49-7l-8.45,12
			C37.514,27.42,38.298,28.262,38.88,29.24z"/>
		<path style="fill:#FFFFFF;" d="M25.22,37.2l-12,7l-0.64,0.47c1.643,2.767,3.855,5.153,6.49,7l8.45-12
			C26.586,39.02,25.802,38.178,25.22,37.2z"/>
	</g>
	<path style="fill:#F5F5F5;" d="M32,6.89C17.458,6.918,5.692,18.728,5.72,33.27S17.558,59.578,32.1,59.55
		c14.522-0.028,26.28-11.808,26.28-26.33C58.363,18.666,46.554,6.879,32,6.89z M32,55.82c-12.482,0-22.6-10.118-22.6-22.6
		s10.118-22.6,22.6-22.6s22.6,10.118,22.6,22.6v0C54.583,45.695,44.475,55.803,32,55.82z"/>
	<path style="fill:#0288D1;" d="M32,25.31c-4.368,0.05-7.869,3.631-7.819,7.999c0.05,4.368,3.631,7.869,7.999,7.819
		C36.513,41.08,40,37.553,40,33.22c-0.005-4.374-3.555-7.916-7.93-7.91C32.047,25.31,32.023,25.31,32,25.31z M32,40.31
		c-3.916,0-7.09-3.174-7.09-7.09s3.174-7.09,7.09-7.09s7.09,3.174,7.09,7.09C39.084,37.133,35.913,40.304,32,40.31z"/>
	<path style="fill:#F5F5F5;" d="M32,26.13c-3.916,0-7.09,3.174-7.09,7.09s3.174,7.09,7.09,7.09s7.09-3.174,7.09-7.09
		C39.084,29.307,35.913,26.136,32,26.13z M32,36.85c-1.999,0-3.62-1.621-3.62-3.62s1.621-3.62,3.62-3.62s3.62,1.621,3.62,3.62l0,0
		c-0.011,1.993-1.627,3.605-3.62,3.61V36.85z"/>
	
		<radialGradient id="SVGID_2_" cx="46.58" cy="45.68" r="16.61" gradientTransform="matrix(1 0 0 -1 0 66)" gradientUnits="userSpaceOnUse">
		<stop  offset="0" style="stop-color:#607D8B"/>
		<stop  offset="0.35" style="stop-color:#607D8B"/>
		<stop  offset="0.6" style="stop-color:#607D8B"/>
		<stop  offset="1" style="stop-color:#455A64"/>
	</radialGradient>
	<path style="fill:url(#SVGID_2_);stroke:#263238;stroke-width:0.5;stroke-miterlimit:10;" d="M39.48,7.07L39.48,7.07v25.75
		c-0.504-0.124-1.021-0.185-1.54-0.18c-2.49,0-4.52,1.48-4.52,3.29s2,3.29,4.52,3.29s4.52-1.48,4.52-3.29l0,0V18.64l17-3.51v13
		c-0.477-0.124-0.967-0.192-1.46-0.2c-2.49,0-4.52,1.48-4.52,3.29s2,3.29,4.52,3.29s4.5-1.51,4.5-3.29l0,0V2.33L39.48,7.07z
		 M59.48,12.24l-17,3.51v-5.27l17-3.48V12.24z"/>
	<g>
		<defs>
			<path id="SVGID_3_" d="M39.48,7.07L39.48,7.07v25.75c-0.504-0.124-1.021-0.185-1.54-0.18c-2.49,0-4.52,1.48-4.52,3.29
				s2,3.29,4.52,3.29s4.52-1.48,4.52-3.29l0,0V18.64l17-3.51v13c-0.477-0.124-0.967-0.192-1.46-0.2c-2.49,0-4.52,1.48-4.52,3.29
				s2,3.29,4.52,3.29s4.5-1.51,4.5-3.29l0,0V2.33L39.48,7.07z M59.48,12.24l-17,3.51v-5.27l17-3.48V12.24z"/>
		</defs>
		<clipPath id="SVGID_4_">
			<use xlink:href="#SVGID_3_"  style="overflow:visible;"/>
		</clipPath>
		<g style="clip-path:url(#SVGID_4_);">
			
				<radialGradient id="SVGID_5_" cx="-238.6" cy="-5.2396" r="3.8996" gradientTransform="matrix(1.3 0 0 -1.08 347.85 29.32)" gradientUnits="userSpaceOnUse">
				<stop  offset="0.37" style="stop-color:#5F7B8A"/>
				<stop  offset="1" style="stop-color:#455A64;stop-opacity:0"/>
			</radialGradient>
			<ellipse style="fill:url(#SVGID_5_);" cx="37.67" cy="34.78" rx="4.2" ry="3.41"/>
			
				<radialGradient id="SVGID_6_" cx="-223.8108" cy="-1.6396" r="3.9" gradientTransform="matrix(1.3 0 0 -1.08 347.85 28.64)" gradientUnits="userSpaceOnUse">
				<stop  offset="0.37" style="stop-color:#5F7B8A"/>
				<stop  offset="1" style="stop-color:#455A64;stop-opacity:0"/>
			</radialGradient>
			<ellipse style="fill:url(#SVGID_6_);" cx="56.94" cy="30.22" rx="4.2" ry="3.41"/>
		</g>
	</g>
</g>
</svg>
