<?xml version="1.0" encoding="iso-8859-1"?>
<!-- Generator: Adobe Illustrator 21.0.0, SVG Export Plug-In . SVG Version: 6.00 Build 0)  -->
<svg version="1.1" id="&#x56FE;&#x5C42;_1" xmlns="http://www.w3.org/2000/svg" xmlns:xlink="http://www.w3.org/1999/xlink" x="0px"
	 y="0px" viewBox="0 0 512 512" style="enable-background:new 0 0 512 512;" xml:space="preserve">
<title>画板 17</title>
<g id="&#x5F00;&#x59CB;&#x83DC;&#x5355;&#x5E94;&#x7528;&#x56FE;&#x6807;">
	<g id="&#x9F20;&#x6807;">
		<g id="_512">
			<path style="opacity:0.2;enable-background:new    ;" d="M256,502c-50.88,0-96.63-18.86-128.82-53.1
				c-34.83-37-53.24-90.58-53.24-154.82c0-66.72,19.22-136.79,52.73-192.23c17-28.05,36.35-50.29,57.64-66.1
				C207.33,18.67,231.45,10,256,10s48.67,8.67,71.69,25.76c21.29,15.81,40.68,38,57.64,66.1c33.51,55.45,52.73,125.51,52.73,192.23
				c0,64.24-18.41,117.77-53.24,154.82C352.63,483.14,306.88,502,256,502z"/>
			<path style="opacity:0.08;enable-background:new    ;" d="M260,510c-52,0-98.78-19.3-131.74-54.36
				c-35.54-37.8-54.33-92.28-54.33-157.56c0-67.43,19.43-138.25,53.31-194.3c17.22-28.5,37-51.12,58.68-67.24
				C209.65,18.93,234.57,10,260,10s50.35,8.93,74.08,26.55c21.71,16.12,41.45,38.74,58.68,67.24
				c33.88,56.05,53.31,126.87,53.31,194.3c0,65.27-18.79,119.76-54.33,157.56C358.78,490.7,312,510,260,510z"/>
			<path style="opacity:0.1;enable-background:new    ;" d="M260,506c-50.88,0-96.63-18.86-128.82-53.1
				c-34.83-37-53.24-90.58-53.24-154.82c0-66.72,19.22-136.79,52.73-192.23c17-28.05,36.35-50.29,57.64-66.1
				C211.33,22.67,235.45,14,260,14s48.67,8.67,71.69,25.76c21.29,15.81,40.68,38,57.64,66.1c33.51,55.45,52.73,125.51,52.73,192.23
				c0,64.24-18.41,117.77-53.24,154.82C356.63,487.14,310.88,506,260,506z"/>
			
				<linearGradient id="SVGID_1_" gradientUnits="userSpaceOnUse" x1="256" y1="14" x2="256" y2="498" gradientTransform="matrix(1 0 0 -1 0 512)">
				<stop  offset="0" style="stop-color:#263238"/>
				<stop  offset="0.55" style="stop-color:#374850"/>
				<stop  offset="1" style="stop-color:#607D8B"/>
			</linearGradient>
			<path style="fill:url(#SVGID_1_);" d="M434.06,294.09C434.06,427.74,354.34,498,256,498S77.94,427.74,77.94,294.09
				S157.66,14,256,14S434.06,160.44,434.06,294.09z"/>
			<g>
				<defs>
					<path id="SVGID_2_" d="M336.15,47.77C312.06,26.6,284.83,14,256,14s-56.06,12.6-80.15,33.77
						c-50.71,44.55-87.5,127.07-96,210.18h352.32C423.65,174.84,386.86,92.31,336.15,47.77z"/>
				</defs>
				<clipPath id="SVGID_3_">
					<use xlink:href="#SVGID_2_"  style="overflow:visible;"/>
				</clipPath>
				<g style="clip-path:url(#SVGID_3_);">
					<path style="fill:#455A64;" d="M256,440.33c-118.27,0-214.49-56.38-214.49-125.69S137.73,188.93,256,188.93
						s214.49,56.4,214.49,125.72S374.28,440.33,256,440.33z M256,200.39c-112,0-203,51.25-203,114.26s91,114.22,203,114.22
						s203-51.25,203-114.23S368,200.39,256,200.39L256,200.39z"/>
					<path style="fill:#263238;" d="M256,428.86c-118.27,0-214.49-56.38-214.49-125.69S137.73,177.46,256,177.46
						s214.49,56.4,214.49,125.72S374.28,428.86,256,428.86z M256,188.92c-112,0-203,51.26-203,114.25S144,417.4,256,417.4
						s203-51.25,203-114.23S368,188.92,256,188.92L256,188.92z"/>
					
						<linearGradient id="SVGID_4_" gradientUnits="userSpaceOnUse" x1="256.005" y1="364.62" x2="256.005" y2="541.7" gradientTransform="matrix(1 0 0 -1 0 512)">
						<stop  offset="0" style="stop-color:#607D8B"/>
						<stop  offset="1" style="stop-color:#263238"/>
					</linearGradient>
					<path style="fill:url(#SVGID_4_);" d="M256-29.7c-15.52,0-28.09,11.68-28.09,26.09v124.9c0,14.41,12.58,26.09,28.09,26.09
						s28.1-11.68,28.1-26.09V-3.61C284.1-18,271.51-29.7,256-29.7z"/>
					<rect x="251.62" y="-0.14" style="fill:#263238;" width="8.76" height="171.06"/>
					<rect x="249.43" y="155.41" style="fill:#263238;" width="13.14" height="30.96"/>
				</g>
			</g>
			<path style="fill:none;stroke:#263238;stroke-width:2;stroke-miterlimit:10;" d="M434.06,294.09
				C434.06,427.74,354.34,498,256,498S77.94,427.74,77.94,294.09S157.66,14,256,14S434.06,160.44,434.06,294.09z"/>
			<path style="fill:#263238;stroke:#263238;stroke-miterlimit:10;" d="M272.43,112.48c0,7.86-7.36,14.23-16.43,14.23l0,0
				c-9.08,0-16.43-6.37-16.43-14.23V75.26C239.57,67.4,246.92,61,256,61l0,0c9.07,0,16.43,6.37,16.43,14.23V112.48z"/>
			
				<linearGradient id="SVGID_5_" gradientUnits="userSpaceOnUse" x1="256" y1="389.66" x2="256" y2="446.59" gradientTransform="matrix(1 0 0 -1 0 512)">
				<stop  offset="0" style="stop-color:#D32F2F"/>
				<stop  offset="1" style="stop-color:#E57373"/>
			</linearGradient>
			<path style="fill:url(#SVGID_5_);" d="M266.95,109.2c0,6.81-4.9,13.14-10.95,13.14l0,0c-6,0-10.95-6.32-10.95-13.14V78.55
				c0-6.81,4.9-13.14,10.95-13.14l0,0c6,0,10.95,6.32,10.95,13.14V109.2z"/>
			<polyline style="fill:none;stroke:#CFD8DC;stroke-width:3;stroke-miterlimit:10;" points="213.95,81.12 198.75,96.33 
				213.71,111.29 			"/>
			<polyline style="fill:none;stroke:#CFD8DC;stroke-width:3;stroke-miterlimit:10;" points="298.06,81.12 313.26,96.33 
				298.3,111.29 			"/>
		</g>
	</g>
</g>
</svg>
