<?xml version="1.0" encoding="iso-8859-1"?>
<!-- Generator: Adobe Illustrator 21.0.0, SVG Export Plug-In . SVG Version: 6.00 Build 0)  -->
<svg version="1.1" id="&#x56FE;&#x5C42;_1" xmlns="http://www.w3.org/2000/svg" xmlns:xlink="http://www.w3.org/1999/xlink" x="0px"
	 y="0px" viewBox="0 0 512 512" style="enable-background:new 0 0 512 512;" xml:space="preserve">
<title>画板 17</title>
<g id="&#x63A7;&#x5236;&#x9762;&#x677F;">
	<g id="&#x7F51;&#x7EDC;&#x8FDE;&#x63A5;">
		<g id="_512">
			<path style="opacity:0.08;enable-background:new    ;" d="M260,511.88C120.857,511.857,8.079,399.041,8.101,259.899
				C8.118,158.675,68.714,67.291,161.95,27.88c128.185-54.138,275.987,5.89,330.125,134.075S486.185,437.942,358,492.08
				C326.997,505.203,293.666,511.938,260,511.88z"/>
			<path style="opacity:0.1;enable-background:new    ;" d="M260,507.88C123.067,507.809,12.117,396.745,12.188,259.812
				C12.24,160.261,71.828,70.394,163.51,31.6c126.139-53.295,271.6,5.756,324.895,131.895s-5.756,271.6-131.895,324.895l0,0
				C325.979,501.315,293.154,507.944,260,507.88z"/>
			<path style="opacity:0.2;enable-background:new    ;" d="M256,503.88C119.067,503.809,8.117,392.745,8.188,255.812
				C8.24,156.261,67.828,66.394,159.51,27.6c126.139-53.295,271.6,5.756,324.895,131.895s-5.756,271.6-131.895,324.895l0,0
				C321.979,497.315,289.154,503.944,256,503.88z"/>
			<path d="M256,12.12C121.276,12.2,12.125,121.48,12.204,256.204c0.058,97.933,58.677,186.337,148.866,224.506
				c124.247,52.09,267.196-6.404,319.287-130.65c51.89-123.769-5.943-266.207-129.427-318.77
				C320.899,18.579,288.611,12.059,256,12.12z"/>
			
				<linearGradient id="SVGID_1_" gradientUnits="userSpaceOnUse" x1="256" y1="497.88" x2="256" y2="14.12" gradientTransform="matrix(1 0 0 -1 0 512)">
				<stop  offset="0" style="stop-color:#B6FA5F"/>
				<stop  offset="1" style="stop-color:#3FA644"/>
			</linearGradient>
			<path style="fill:url(#SVGID_1_);" d="M497.89,256c0,133.58-108.3,241.88-241.89,241.88S14.11,389.59,14.11,256
				S122.4,14.12,256,14.12S497.89,122.41,497.89,256z"/>
			
				<linearGradient id="SVGID_2_" gradientUnits="userSpaceOnUse" x1="255.7971" y1="499.8804" x2="255.7971" y2="12.255" gradientTransform="matrix(1 0 0 -1 0 512)">
				<stop  offset="0" style="stop-color:#0288D1"/>
				<stop  offset="1" style="stop-color:#01579B"/>
			</linearGradient>
			<path style="fill:url(#SVGID_2_);" d="M256,14.12c133.59,0,241.89,108.29,241.89,241.88S389.59,497.88,256,497.88
				S14.11,389.59,14.11,256S122.4,14.12,256,14.12 M256,12.12C121.276,12.2,12.125,121.48,12.204,256.204
				c0.058,97.933,58.677,186.337,148.866,224.506c124.247,52.09,267.196-6.404,319.287-130.65
				c51.89-123.769-5.943-266.207-129.427-318.77C320.899,18.579,288.611,12.059,256,12.12z"/>
			
				<linearGradient id="SVGID_3_" gradientUnits="userSpaceOnUse" x1="293.4617" y1="-40.9372" x2="231.9017" y2="432.4528" gradientTransform="matrix(1 0 0 -1 0 512)">
				<stop  offset="0" style="stop-color:#01579B"/>
				<stop  offset="0.79" style="stop-color:#03A9F4"/>
				<stop  offset="0.99" style="stop-color:#5BC7F8"/>
			</linearGradient>
			<path style="fill:url(#SVGID_3_);" d="M435.55,185.92l4.22,3h3.92v-7.57l12.37-1.18l11.76,8.75h19.31l1.35-1.25
				c-1.92-6.513-4.1-12.907-6.54-19.18l-12.62,0.21l-6.32-6.93l-1.23-11.15l-6.47,3.54l-3.48,13.64l-9.35-10l-0.38-9.42l-9-7.75
				l-3.34-3.31h-10.5l3.31,9.32l12.61,7l2.19,2.33l-2.73,1.37l0.12,7.39l-6.14,2.55l-5.24-1.13l-3.28-4.65l8.53,0.44l2.29-3.1
				L412,146.16l-1.44-5.41l-7.67,6.92l-7.79-1.59l-11.84,15.39l-2.33,6l-7.58,0.69l-11.21,0.08l-6.7-3.13l-2-13.33l2.41-6.34
				l11.4-2.5l12.44,2.5l1.52-6.88l-5.21-1.2l1.8-10.73l12.52-2L399,112.3l9-1.51l8.17,1.2h3l-1.66-11.62l-9.91,4l-3.49-8.67
				l-5.75-0.81L397.35,89l4.71-5.12l11.15-4.38l2.88-5.12C331.236-0.612,205.645-6.497,114.15,60.23l12.2-0.1l5.44,3L142,65.34
				l0.8,4l16.3,0.59l-2.22-5.21l-14.48-0.43l3.41-3.19l-1.19-3.83h-13.04l14.28-10.66h13.68l6.46,8.9l10.67,0.59l6.43-6.23
				l4.83,2.41L179,60.92c0,0-12.26,0.21-11.66,0.21s1,8.45,1,8.45l14.87-0.42l1.61-4l10.25-0.6l1.22-6l-6-1l2-5.43l4.62-1.4
				L213,51.52l-8.87,8.05l1.43,6.23l9.25,1.41l-0.6-11.26l8.85-4.63l15.69-1.82l22.72,10.07v8.64l7.27,1.79l-3.62,6.85h-10.26
				l-3,7.84l-23.44-5.54l18.43-9.8l-7-6l-15.89,2l-1.39,1.44h-0.06l-0.25,0.34l-4.57,4.75l-7.55,0.64l0.6,3.76l2.65,1.09l-0.11,1.25
				l-6.15,0.87L206.59,83l-5.88,0.31l-1.06-7.08l-10.55,3.21L167.52,92.1l2.42,8.9l6,3.93l12.06,1.66v13.71l5.58-0.91l5.14-10.69
				l12.81-4.07V88.17l7.14-5.38L236,86.87l-1.22,10.87h4.63L252,91.5l0.6,14.28l9.24,5.61l-0.39,8.48l-8.84,3l0.6,2.79l10.65,4.86
				l-0.2,5.84l-3.08,0.25c0-0.09,0-0.16,0-0.16l-13.44-4.15l-0.57-4.31l0,0l3.93-2.7v-3.93l-4.23-1.06l-1,3.62l-7.41,1.14
				l-0.74-0.24v0.36l-2.56,0.38l-2.1-4.21L230,120.3h-5.28l-2.4,2v4.37l4.52,1.52l4.46,0.62l-1,0.43l-4.06,4.51l-1.79-2.25l-3.93-1
				l-10.77,10l1.4,1.15l-15.82,8.76l-14.89,15.49l-1,6.89l-14.92,9.8l-7.41,7.41l0.82,14.87l-10.26-4.78l0.08-8.68H119.2
				l-14.78,7.47L98,210.76l-2.55,9.39l4.15,9.09l11.65,1.42l18.52-12.39l1.62,6.16l-5.65,10.67l14.09,2.39l1.41,21.77l19.31,3.27
				l12.27-14.18l14.89,3l5.23,7.27l14.27-0.83l0.4-4.23l7.85,3.82l8.84,13.88l15.28,0.2l5.63,9.87L246,293.4l16.9,6.43l21.31,0.22
				l6.24,10.22l9.45,3l-1.81,8.46l-10.36,13.16l-3,29.12l-9.35,7.4L261.49,371l-4.63,8l3.43,15.1l-15.09,19.37l-4.82,8.84
				L226,429.22l-9.46,1.44l-0.39,4l6.64,1.91l-0.8,4.32l-6,5.73l3.61,4.53l7.16,0.21l-0.4,5.54l-1.9,5.41l-0.61,4.43l10.59,8.92
				l-1.41,4.63l-14.4-0.27l-14.33-12.53l-11.16-19.62l1.56-18.93l-8.44-11.27l3.42-19.09l-5-1.42v-41.42
				c0,0-14.08-10.67-14.88-10.67s-7.45-1.79-7.45-1.79l-1.41-7.85l-18.3-22.94l1.81-8.25l0.6-13.47l12.67-8.84l-1.81-15.1
				l-18.5-1.39L122.93,249l-10.26-2.81l-6.67-1.26l0.8-6l-8.45-1.21v3.41l-21.12-5.21l-8.5-13l3.47-6.3l-13.33-19.55l-2.29-14.29
				h-5.43l1.8,13.88l9.25,14.28l-1,5.65l-7.85-1.21l-9.65-16.46v-19.13l-10-4.85v-13.78c-12.784,29.941-19.36,62.164-19.33,94.72
				c0,133.45,108.56,242,242,242c72.826-0.016,141.76-32.876,187.63-89.44h-8v-16.11l-9.2-12.43v-19.35l-7.06-7l-0.6-8.06l9-17.09
				l-17-30l2-20.33l-15.28-1.58l-5.63-5.64h-10.28l-5.23,4.82h-18.09l-0.61,1.61H348L324.84,251l0.2-20.53l3.82-1.41l1.42-7.85
				h-5.44l-2.22-8.21l26.75-19.3V180l13.1-7.26l5.3,0.52h10.77l8.43-4.53l27.15-2.12v13.89L435.55,185.92z M367.67,99.62l2.21-3.41
				l8-1.6l2,9.66l4.24,6.84l2.81,3.2l5.12,2l-4.81,5.73l-9.35,0.9h-7l0.79-8.35l5.85-1.21l-0.5-3.93l-5.45-3.42l-3.81-2.62
				L367.67,99.62z M354.6,114.73l4.84-7.75l6.5-1.51l4.65,2l-0.42,5.22l-10,7h-5.57V114.73z M223.13,144.49l-5,0.43l0.27-3.52
				l2.26-2.79l3,2.36L223.13,144.49z M240.79,138.3l-3.44,0.31l-0.7,3.31l-2.65,1.66l-4.25,0.35c-0.14-1-0.24-1.77-0.24-1.77h-1.65
				v-3.56h6.93l1.44-3.7l2.76-0.06l3.15,0.66L240.79,138.3z"/>
		</g>
	</g>
</g>
</svg>
