<?xml version="1.0" encoding="iso-8859-1"?>
<!-- Generator: Adobe Illustrator 21.0.0, SVG Export Plug-In . SVG Version: 6.00 Build 0)  -->
<svg version="1.1" id="&#x56FE;&#x5C42;_1" xmlns="http://www.w3.org/2000/svg" xmlns:xlink="http://www.w3.org/1999/xlink" x="0px"
	 y="0px" viewBox="0 0 16 16" style="enable-background:new 0 0 16 16;" xml:space="preserve">
<title>画板 26</title>
<g id="&#x5F00;&#x59CB;&#x83DC;&#x5355;&#x5E94;&#x7528;&#x56FE;&#x6807;">
	<g id="&#x624B;&#x673A;">
		<g id="_24">
			<g style="opacity:0.7;">
				
					<image style="overflow:visible;enable-background:new    ;" width="79" height="79" xlink:href="5C00B727.png"  transform="matrix(1 0 0 1 -66 -29)">
				</image>
			</g>
		</g>
		<g id="_16">
			
				<linearGradient id="SVGID_1_" gradientUnits="userSpaceOnUse" x1="7.995" y1="17.47" x2="7.995" y2="2.39" gradientTransform="matrix(1 0 0 -1 0 18)">
				<stop  offset="0" style="stop-color:#455A64"/>
				<stop  offset="1" style="stop-color:#263238"/>
			</linearGradient>
			<path style="fill:url(#SVGID_1_);" d="M4.92,0.5h6.15c0.591,0,1.07,0.479,1.07,1.07v12.86c0,0.591-0.479,1.07-1.07,1.07H4.92
				c-0.591,0-1.07-0.479-1.07-1.07V1.57C3.85,0.979,4.329,0.5,4.92,0.5z"/>
			<path style="fill:none;stroke:#263238;stroke-width:0.5;stroke-miterlimit:10;" d="M4.92,0.5h6.15c0.591,0,1.07,0.479,1.07,1.07
				v12.86c0,0.591-0.479,1.07-1.07,1.07H4.92c-0.591,0-1.07-0.479-1.07-1.07V1.57C3.85,0.979,4.329,0.5,4.92,0.5z"/>
			
				<linearGradient id="SVGID_2_" gradientUnits="userSpaceOnUse" x1="7.99" y1="14.09" x2="7.99" y2="6.22" gradientTransform="matrix(1 0 0 -1 0 18)">
				<stop  offset="0" style="stop-color:#B3E5FC"/>
				<stop  offset="0.84" style="stop-color:#0288D1"/>
				<stop  offset="0.99" style="stop-color:#027BBF"/>
			</linearGradient>
			<rect x="4.83" y="3.19" style="fill:url(#SVGID_2_);" width="6.32" height="9.33"/>
			<g>
				<defs>
					<rect id="SVGID_3_" x="4.83" y="3.19" width="6.32" height="9.33"/>
				</defs>
				<clipPath id="SVGID_4_">
					<use xlink:href="#SVGID_3_"  style="overflow:visible;"/>
				</clipPath>
				<g style="clip-path:url(#SVGID_4_);">
					<path style="opacity:0.35;fill:#01579B;enable-background:new    ;" d="M5.35,13.83L5.35,13.83c-0.392,0-0.71-0.318-0.71-0.71
						l0,0V10c0-0.392,0.318-0.71,0.71-0.71l0,0l0,0c0.392,0,0.71,0.318,0.71,0.71l0,0v3.15C6.044,13.53,5.731,13.83,5.35,13.83z"/>
					<path style="opacity:0.35;fill:#01579B;enable-background:new    ;" d="M7.67,14.66L7.67,14.66C7.312,14.641,7.025,14.358,7,14
						v-3.2c0-0.392,0.318-0.71,0.71-0.71l0,0l0,0c0.392,0,0.71,0.318,0.71,0.71l0,0V14C8.393,14.388,8.059,14.683,7.67,14.66z"/>
					<path style="opacity:0.35;fill:#01579B;enable-background:new    ;" d="M9.51,15.81L9.51,15.81c-0.392,0-0.71-0.318-0.71-0.71
						l0,0V12c0-0.392,0.318-0.71,0.71-0.71l0,0l0,0c0.392,0,0.71,0.318,0.71,0.71l0,0v3.1C10.22,15.492,9.902,15.81,9.51,15.81
						L9.51,15.81z"/>
					<path style="opacity:0.29;fill:#B3E5FC;enable-background:new    ;" d="M7,16.12L7,16.12c-0.392,0-0.71-0.318-0.71-0.71l0,0
						v-3.15c0-0.392,0.318-0.71,0.71-0.71l0,0l0,0c0.392,0,0.71,0.318,0.71,0.71l0,0v3.15C7.71,15.802,7.392,16.12,7,16.12
						C7,16.12,7,16.12,7,16.12z"/>
					<path style="opacity:0.29;fill:#B3E5FC;enable-background:new    ;" d="M10.6,13.43L10.6,13.43c-0.392,0-0.71-0.318-0.71-0.71
						l0,0V9.57c0-0.392,0.318-0.71,0.71-0.71l0,0l0,0c0.392,0,0.71,0.318,0.71,0.71l0,0v3.15C11.31,13.112,10.992,13.43,10.6,13.43
						L10.6,13.43z"/>
				</g>
			</g>
			<g style="opacity:0.7;">
				
					<image style="overflow:visible;enable-background:new    ;" width="76" height="77" xlink:href="5C00B725.png"  transform="matrix(1 0 0 1 -30 -31)">
				</image>
			</g>
			
				<linearGradient id="SVGID_5_" gradientUnits="userSpaceOnUse" x1="6.5121" y1="12.9251" x2="9.2921" y2="8.4751" gradientTransform="matrix(1 0 0 -1 0 18)">
				<stop  offset="0" style="stop-color:#FFFFFF"/>
				<stop  offset="1" style="stop-color:#B3E5FC"/>
			</linearGradient>
			<path style="fill:url(#SVGID_5_);" d="M5.81,6.63c0.474,1.552,1.753,2.723,3.34,3.06c0.655,0.1,1.267-0.351,1.367-1.006
				c0.007-0.048,0.012-0.096,0.013-0.144C10.159,8.314,9.763,8.133,9.35,8L8.73,8.62c0,0-0.33,0-1.07-0.72S6.94,6.8,6.94,6.8
				l0.54-0.54c-0.09-0.54-0.4-1.4-1-1.2C5.893,5.34,5.606,6.013,5.81,6.63z"/>
			<polygon style="opacity:0.23;fill:#EEE8D5;enable-background:new    ;" points="11.17,12.53 6.43,12.53 9.52,3.21 11.17,3.21 			
				"/>
			<path style="fill:#607D8B;" d="M10.91,1.83c0,0.171-0.139,0.31-0.31,0.31l0,0H5.49c-0.171,0-0.31-0.139-0.31-0.31l0,0
				c0-0.171,0.139-0.31,0.31-0.31h5.11C10.771,1.52,10.91,1.659,10.91,1.83C10.91,1.83,10.91,1.83,10.91,1.83z"/>
			
				<linearGradient id="SVGID_6_" gradientUnits="userSpaceOnUse" x1="8" y1="4.91" x2="8" y2="2.6" gradientTransform="matrix(1 0 0 -1 0 18)">
				<stop  offset="0.33" style="stop-color:#8E9498"/>
				<stop  offset="1" style="stop-color:#FFFFFF"/>
			</linearGradient>
			<circle style="fill:url(#SVGID_6_);" cx="8" cy="14.12" r="0.92"/>
		</g>
	</g>
</g>
</svg>
