<?xml version="1.0" encoding="iso-8859-1"?>
<!-- Generator: Adobe Illustrator 21.0.0, SVG Export Plug-In . SVG Version: 6.00 Build 0)  -->
<svg version="1.1" id="&#x56FE;&#x5C42;_1" xmlns="http://www.w3.org/2000/svg" xmlns:xlink="http://www.w3.org/1999/xlink" x="0px"
	 y="0px" viewBox="0 0 64 64" style="enable-background:new 0 0 64 64;" xml:space="preserve">
<title>画板 21</title>
<g id="&#x5F00;&#x59CB;&#x83DC;&#x5355;&#x5E94;&#x7528;&#x56FE;&#x6807;">
	<g id="&#x6253;&#x5370;&#x673A;">
		<g id="_64">
			<polygon style="opacity:0.08;fill:#040000;enable-background:new    ;" points="10.96,63.5 10.96,51.59 3.44,51.59 3.44,14.19 
				13.46,14.19 13.46,2.5 44.91,2.5 52.54,9.88 52.54,14.19 62.56,14.19 62.56,51.59 55.04,51.59 55.04,63.5 			"/>
			<polygon style="opacity:0.1;fill:#040000;enable-background:new    ;" points="11.96,62.5 11.96,50.59 4.44,50.59 4.44,15.19 
				14.46,15.19 14.46,3.5 44.5,3.5 51.54,10.3 51.54,15.19 61.56,15.19 61.56,50.59 54.04,50.59 54.04,62.5 			"/>
			<polygon style="opacity:0.2;fill:#040000;enable-background:new    ;" points="10.96,61.5 10.96,49.59 3.44,49.59 3.44,14.19 
				13.46,14.19 13.46,2.5 43.5,2.5 50.54,9.3 50.54,14.19 60.56,14.19 60.56,49.59 53.04,49.59 53.04,61.5 			"/>
			<polygon style="fill:#040000;" points="49.54,15.19 49.54,9.73 43.1,3.5 14.46,3.5 14.46,15.19 4.44,15.19 4.44,31.89 
				4.44,48.59 11.96,48.59 11.96,60.5 52.04,60.5 52.04,48.59 59.56,48.59 59.56,31.89 59.56,15.19 			"/>
			
				<linearGradient id="SVGID_1_" gradientUnits="userSpaceOnUse" x1="32" y1="34.11" x2="32" y2="50.81" gradientTransform="matrix(1 0 0 -1 0 66)">
				<stop  offset="0" style="stop-color:#455A64"/>
				<stop  offset="1" style="stop-color:#607D8B"/>
			</linearGradient>
			<rect x="4.44" y="15.19" style="fill:url(#SVGID_1_);" width="55.12" height="16.7"/>
			
				<linearGradient id="SVGID_2_" gradientUnits="userSpaceOnUse" x1="32" y1="17.41" x2="32" y2="34.11" gradientTransform="matrix(1 0 0 -1 0 66)">
				<stop  offset="0" style="stop-color:#1A1A1A"/>
				<stop  offset="1" style="stop-color:#263238"/>
			</linearGradient>
			<rect x="4.44" y="31.89" style="fill:url(#SVGID_2_);" width="55.12" height="16.7"/>
			<rect x="11.96" y="21.04" style="fill:#1C2938;" width="40.08" height="5.01"/>
			<rect x="11.96" y="38.79" style="fill:#1C2938;" width="40.08" height="21.71"/>
			<rect x="11.96" y="38.79" style="fill:#090C0F;" width="40.08" height="2.17"/>
			<rect x="14.46" y="40.96" style="fill:#ECECDE;" width="35.07" height="16.7"/>
			<circle style="fill:#090C0F;" cx="55.17" cy="36.07" r="2.62"/>
			
				<linearGradient id="SVGID_3_" gradientUnits="userSpaceOnUse" x1="55.1232" y1="28.2302" x2="55.2432" y2="32.5902" gradientTransform="matrix(1 0 0 -1 0 66)">
				<stop  offset="0.24" style="stop-color:#689F38"/>
				<stop  offset="0.94" style="stop-color:#8BC34A"/>
			</linearGradient>
			<circle style="fill:url(#SVGID_3_);" cx="55.17" cy="36.07" r="1.88"/>
			<polygon style="fill:none;stroke:#000000;stroke-width:0.5;stroke-miterlimit:10;" points="4.44,15.19 4.44,31.89 4.44,48.59 
				11.96,48.59 11.96,60.5 52.04,60.5 52.04,48.59 59.56,48.59 59.56,31.89 59.56,15.19 			"/>
			<polygon style="fill:#ECECDE;" points="43.1,9.38 43.1,3.5 14.46,3.5 14.46,23.54 49.54,23.54 49.54,9.73 49.19,9.38 			"/>
			<polygon style="fill:#BDBDB2;" points="49.54,16.35 43.1,9.68 43.31,5.67 49.54,9.73 			"/>
			<polygon style="fill:#FFFFFF;" points="49.54,9.68 43.1,3.5 43.1,9.68 			"/>
			<rect x="18.64" y="8.51" style="fill:#8F9396;" width="21.71" height="1.67"/>
			<rect x="18.64" y="13.52" style="fill:#8F9396;" width="21.71" height="1.67"/>
			<rect x="18.64" y="18.53" style="fill:#8F9396;" width="21.71" height="1.67"/>
			<polygon style="fill:none;stroke:#8F9396;stroke-width:0.5;stroke-miterlimit:10;" points="43.1,3.5 14.46,3.5 14.46,23.54 
				49.54,23.54 49.54,16.35 49.54,9.73 			"/>
		</g>
	</g>
</g>
</svg>
