<?xml version="1.0" encoding="utf-8"?>
<!-- Generator: Adobe Illustrator 21.0.0, SVG Export Plug-In . SVG Version: 6.00 Build 0)  -->
<svg version="1.1" id="发送接收" xmlns="http://www.w3.org/2000/svg" xmlns:xlink="http://www.w3.org/1999/xlink" x="0px"
	 y="0px" viewBox="0 0 32 32" style="enable-background:new 0 0 32 32;" xml:space="preserve">
<style type="text/css">
	.st0{fill:#FFFFFF;}
</style>
<title>32</title>
<g id="_32">
	<polygon class="st0" points="18,11 14.2,11 21,3.5 27.8,11 24,11 24,12 30,12 21,2 12,12 18,12 	"/>
	<polygon class="st0" points="8,21 4.2,21 11,28.5 17.8,21 14,21 14,20 20,20 11,30 2,20 8,20 	"/>
	<polygon class="st0" points="14,20 14,16 8,16 8,20 7,20 7,15 15,15 15,20 	"/>
	<polygon class="st0" points="24,12 24,16 18,16 18,12 17,12 17,17 25,17 25,12 	"/>
</g>
</svg>
