<?xml version="1.0" encoding="utf-8"?>
<!-- Generator: Adobe Illustrator 25.0.0, SVG Export Plug-In . SVG Version: 6.00 Build 0)  -->
<svg version="1.1"
	 id="svg7384" xmlns:cc="http://creativecommons.org/ns#" xmlns:dc="http://purl.org/dc/elements/1.1/" xmlns:inkscape="http://www.inkscape.org/namespaces/inkscape" xmlns:rdf="http://www.w3.org/1999/02/22-rdf-syntax-ns#" xmlns:sodipodi="http://sodipodi.sourceforge.net/DTD/sodipodi-0.dtd" xmlns:svg="http://www.w3.org/2000/svg"
	 xmlns="http://www.w3.org/2000/svg" xmlns:xlink="http://www.w3.org/1999/xlink" x="0px" y="0px" viewBox="0 0 16 16"
	 style="enable-background:new 0 0 16 16;" xml:space="preserve">
<style type="text/css">
	.st0{display:none;}
	.st1{display:inline;opacity:0.75;fill:#1F2022;enable-background:new    ;}
	.st2{display:inline;opacity:0.5;fill:#1F2022;enable-background:new    ;}
	.st3{opacity:0.75;}
	.st4{fill:#1F2022;}
	.st5{display:none;fill:none;stroke:#1F2022;stroke-linecap:round;stroke-miterlimit:10;}
	.st6{opacity:0.75;fill:#1F2022;}
</style>
<sodipodi:namedview  bordercolor="#666666" borderopacity="1" gridtolerance="10" guidetolerance="10" id="namedview88" inkscape:bbox-nodes="false" inkscape:bbox-paths="true" inkscape:current-layer="layer10" inkscape:cx="19.541358" inkscape:cy="7.91925" inkscape:guide-bbox="true" inkscape:object-nodes="false" inkscape:object-paths="false" inkscape:pageopacity="1" inkscape:pageshadow="2" inkscape:snap-bbox="true" inkscape:snap-bbox-midpoints="false" inkscape:snap-global="true" inkscape:snap-grids="true" inkscape:snap-nodes="true" inkscape:snap-others="false" inkscape:snap-to-guides="true" inkscape:window-height="1375" inkscape:window-maximized="1" inkscape:window-width="2560" inkscape:window-x="0" inkscape:window-y="27" inkscape:zoom="22.627417" objecttolerance="10" pagecolor="#3a3b39" showborder="false" showgrid="true" showguides="true">
	
		<inkscape:grid  dotted="false" empspacing="2" enabled="true" id="grid4866" originx="200px" originy="230px" snapvisiblegridlinesonly="true" spacingx="1px" spacingy="1px" type="xygrid" visible="true">
		</inkscape:grid>
</sodipodi:namedview>
<g id="layer9" transform="translate(-41.0002,-447)" inkscape:groupmode="layer" inkscape:label="status">
</g>
<g id="layer10" transform="translate(-41.0002,-447)" inkscape:groupmode="layer" inkscape:label="devices" class="st0">
	<path id="path5600" inkscape:connector-curvature="0" sodipodi:nodetypes="ccccccccccccccccccccccccccccccc" class="st1" d="
		M49.8,452c-0.2,0-0.3,0.1-0.5,0.3l-3,3c-0.2,0.2-0.3,0.6-0.3,0.9v0.8h0.8H47h1.5l-1.2,1.3c-0.2,0.2-0.3,0.5-0.3,0.8v0.1v0.8h0.8H48
		c0.3,0,0.5-0.1,0.7-0.3l3-3c0.2-0.2,0.3-0.5,0.3-0.7v-0.1V455h-0.8H51h-1.6l1.3-1.3c0.2-0.2,0.3-0.5,0.3-0.8v-0.1V452h-0.8h-0.1
		c0,0,0,0-0.1,0C49.9,452,49.9,452,49.8,452L49.8,452z"/>
	<path id="path5602" inkscape:connector-curvature="0" class="st2" d="M46.5,447c-0.5,0-0.8,0.2-1,0.5s-0.4,0.6-0.4,1v0.5h-1h-1v1
		v12v1h1h10h1v-1v-12v-1h-1h-1v-0.4l0,0l0,0c0-0.4-0.2-0.7-0.4-1s-0.6-0.5-1.2-0.5l0,0h-0.1L46.5,447L46.5,447z M47,449h4v1v1h1h1
		v10h-8v-10h1h1v-1V449z"/>
</g>
<g id="layer11" transform="translate(-41.0002,-447)" inkscape:groupmode="layer" inkscape:label="apps">
</g>
<g id="layer13" transform="translate(-41.0002,-447)" inkscape:groupmode="layer" inkscape:label="places">
</g>
<g id="layer14" transform="translate(-41.0002,-447)" inkscape:groupmode="layer" inkscape:label="mimetypes">
</g>
<g id="layer15" transform="translate(-41.0002,-447)" inkscape:groupmode="layer" inkscape:label="emblems">
</g>
<g id="g71291" transform="translate(-41.0002,-447)" inkscape:groupmode="layer" inkscape:label="emotes">
</g>
<g id="g4953" transform="translate(-41.0002,-447)" inkscape:groupmode="layer" inkscape:label="categories">
</g>
<g id="layer12" transform="translate(-41.0002,-447)" inkscape:groupmode="layer" inkscape:label="actions">
</g>
<g class="st3">
	<path class="st4" d="M13,2h-2v1h2v12H3V3h2V2H3C2.4,2,2,2.4,2,3v12c0,0.6,0.4,1,1,1h10c0.6,0,1-0.4,1-1V3C14,2.4,13.6,2,13,2z"/>
	<path class="st4" d="M11,0H5C4.4,0,4,0.4,4,1v2h1V2V1h6v1v1h1V1C12,0.4,11.6,0,11,0z"/>
	<polyline class="st5" points="10,5 6,9 11,9 7,13 	"/>
</g>
<polygon class="st6" points="10,4 5,8 7,9 5,13 11,8 8,8 "/>
</svg>
