<?xml version="1.0" encoding="utf-8"?>
<!-- Generator: Adobe Illustrator 21.0.0, SVG Export Plug-In . SVG Version: 6.00 Build 0)  -->
<svg version="1.1" id="图层_2" opacity="0.8" xmlns="http://www.w3.org/2000/svg" xmlns:xlink="http://www.w3.org/1999/xlink"
	 x="0px" y="0px" viewBox="0 0 16 16" style="enable-background:new 0 0 16 16;" xml:space="preserve">
<style type="text/css">
	.st0{fill:none;stroke:#1F2022;stroke-linecap:round;stroke-miterlimit:10;}
	.st1{fill:#1F2022;}
</style>
<path class="st0" d="M3.7,12.9C2.4,11.7,1.5,9.9,1.5,8c0-3.6,2.9-6.5,6.5-6.5s6.5,2.9,6.5,6.5c0,2.1-1,4-2.5,5.2"/>
<path class="st1" d="M4.4,15.7L4.4,15.7c-0.3,0.1-0.5,0-0.7-0.2l-2.3-5l0.5-0.2c1.3-0.6,2.7,0,3.3,1.2l0.4,0.9
	C6.2,13.6,5.7,15.1,4.4,15.7z"/>
<path class="st1" d="M11.6,15.7L11.6,15.7c0.3,0.1,0.5,0,0.7-0.2l2.3-5l-0.5-0.2c-1.3-0.6-2.7,0-3.3,1.2l-0.4,0.9
	C9.8,13.6,10.3,15.1,11.6,15.7z"/>
</svg>
