<?xml version="1.0" encoding="utf-8"?>
<!-- Generator: Adobe Illustrator 21.0.0, SVG Export Plug-In . SVG Version: 6.00 Build 0)  -->
<svg version="1.1" id="图层_2" xmlns="http://www.w3.org/2000/svg" xmlns:xlink="http://www.w3.org/1999/xlink" x="0px" y="0px"
	 viewBox="0 0 16 16" style="enable-background:new 0 0 16 16;" xml:space="preserve">
<style type="text/css">
	.st0{opacity:0.75;}
	.st1{fill:#1F2022;}
	.st2{fill:none;stroke:#1F2022;stroke-linecap:round;stroke-miterlimit:10;}
</style>
<g id="_16_1_" class="st0">
	<path class="st1" d="M8,12c-2.2,0-4-1.8-4-4V4c0-2.2,1.8-4,4-4s4,1.8,4,4v4C12,10.2,10.2,12,8,12z M8,1C6.3,1,5,2.3,5,4v4
		c0,1.7,1.3,3,3,3s3-1.3,3-3V4C11,2.3,9.7,1,8,1z"/>
	<rect x="7" y="13" class="st1" width="2" height="2"/>
	<path class="st2" d="M13.6,6.5V8c0,3-2.5,5.5-5.5,5.5l0,0C5,13.5,2.5,11,2.5,8V6.5"/>
	<line class="st2" x1="5.5" y1="15.5" x2="10.5" y2="15.5"/>
	<line class="st2" x1="7.5" y1="7.5" x2="8.5" y2="7.5"/>
	<line class="st2" x1="7.5" y1="5.5" x2="8.5" y2="5.5"/>
</g>
</svg>
