<svg id="图层_2" data-name="图层 2" xmlns="http://www.w3.org/2000/svg" viewBox="0 0 16 16"><defs><style>.cls-1,.cls-3{opacity:0.75;}.cls-2,.cls-3{fill:#1f2022;}</style></defs><title>camera-switch-symbolic</title><g class="cls-1"><path class="cls-2" d="M12,3a2,2,0,0,1,2,2v6a2,2,0,0,1-2,2H4a2,2,0,0,1-2-2V5A2,2,0,0,1,4,3h8m0-1H4A3,3,0,0,0,1,5v6a3,3,0,0,0,3,3h8a3.08,3.08,0,0,0,3-3V5a3.08,3.08,0,0,0-3-3Z"/></g><g class="cls-1"><path class="cls-2" d="M8,5a3,3,0,0,1,3,3,3,3,0,0,1-3,3A3,3,0,0,1,5,8,3,3,0,0,1,8,5M8,4a4,4,0,1,0,4,4A4,4,0,0,0,8,4Z"/></g><g class="cls-1"><circle class="cls-2" cx="8" cy="8" r="1"/></g><circle class="cls-3" cx="12.5" cy="4.5" r="0.5"/><rect class="cls-3" x="4" y="1" width="2" height="1"/></svg>