<?xml version="1.0" encoding="utf-8"?>
<!-- Generator: Adobe Illustrator 21.0.0, SVG Export Plug-In . SVG Version: 6.00 Build 0)  -->
<svg version="1.1" id="图层_1" xmlns="http://www.w3.org/2000/svg" xmlns:xlink="http://www.w3.org/1999/xlink" x="0px" y="0px"
	 viewBox="0 0 16 16" style="enable-background:new 0 0 16 16;" xml:space="preserve">
<style type="text/css">
	.st0{opacity:0.75;}
	.st1{fill:#1F2022;}
	.st2{fill:none;stroke:#1F2022;stroke-linecap:round;stroke-miterlimit:10;}
</style>
<g class="st0">
	<path class="st1" d="M16,10.3c0-0.2,0-0.3-0.1-0.4l-3.1-8.2C12.6,1.3,12.2,1,11.8,1H4.3c-0.5,0-0.9,0.3-1,0.7L0.1,9.9
		C0,10,0,10.2,0,10.3v2.2C0,13.9,1.1,15,2.5,15h11c1.4,0,2.5-1.1,2.5-2.5V10.3z M15,12.5c0,0.8-0.7,1.5-1.5,1.5h-11
		C1.7,14,1,13.3,1,12.5V11h14V12.5z M3.9,2.2C4,2.1,4.1,2,4.3,2h7.4c0.2,0,0.3,0.1,0.4,0.2L15,10H1L3.9,2.2z"/>
	<circle class="st1" cx="9.5" cy="12.5" r="0.5"/>
	<circle class="st1" cx="11.5" cy="12.5" r="0.5"/>
	<circle class="st1" cx="13.5" cy="12.5" r="0.5"/>
</g>
<g class="st0">
	<path class="st2" d="M7,7.5L7,7.5C6.2,7.5,5.5,6.8,5.5,6V5"/>
	<path class="st2" d="M8,6.5L8,6.5c0.8,0,1.5-0.7,1.5-1.5V4"/>
	<line class="st2" x1="7.5" y1="3.5" x2="7.5" y2="8.5"/>
	<circle class="st1" cx="5.5" cy="5" r="1"/>
	<circle class="st1" cx="9.5" cy="4" r="1"/>
</g>
</svg>
