<?xml version="1.0" encoding="utf-8"?>
<!-- Generator: Adobe Illustrator 25.0.0, SVG Export Plug-In . SVG Version: 6.00 Build 0)  -->
<svg version="1.1"
	 id="svg7384" xmlns:cc="http://creativecommons.org/ns#" xmlns:dc="http://purl.org/dc/elements/1.1/" xmlns:inkscape="http://www.inkscape.org/namespaces/inkscape" xmlns:rdf="http://www.w3.org/1999/02/22-rdf-syntax-ns#" xmlns:sodipodi="http://sodipodi.sourceforge.net/DTD/sodipodi-0.dtd" xmlns:svg="http://www.w3.org/2000/svg"
	 xmlns="http://www.w3.org/2000/svg" xmlns:xlink="http://www.w3.org/1999/xlink" x="0px" y="0px" viewBox="0 0 16 16"
	 style="enable-background:new 0 0 16 16;" xml:space="preserve">
<style type="text/css">
	.st0{display:none;fill:#1F2022;}
	.st1{opacity:0.75;}
	.st2{fill:#1F2022;}
</style>
<sodipodi:namedview  bordercolor="#666666" borderopacity="1" gridtolerance="10" guidetolerance="10" id="namedview88" inkscape:bbox-paths="false" inkscape:current-layer="layer10" inkscape:cx="-7.49829" inkscape:cy="8.96987" inkscape:guide-bbox="true" inkscape:object-nodes="false" inkscape:object-paths="false" inkscape:pageopacity="1" inkscape:pageshadow="2" inkscape:snap-bbox="true" inkscape:snap-bbox-midpoints="false" inkscape:snap-global="true" inkscape:snap-grids="true" inkscape:snap-nodes="false" inkscape:snap-others="false" inkscape:snap-to-guides="true" inkscape:window-height="1381" inkscape:window-maximized="1" inkscape:window-width="2560" inkscape:window-x="1600" inkscape:window-y="27" inkscape:zoom="1" objecttolerance="10" pagecolor="#555753" showborder="false" showgrid="false" showguides="true">
	
		<inkscape:grid  empspacing="2" enabled="true" id="grid4866" snapvisiblegridlinesonly="true" spacingx="1px" spacingy="1px" type="xygrid" visible="true">
		</inkscape:grid>
</sodipodi:namedview>
<g id="layer9" transform="translate(-81.0002,-467)" inkscape:groupmode="layer" inkscape:label="status">
</g>
<path id="rect8346" inkscape:connector-curvature="0" sodipodi:nodetypes="cscccscccssc" class="st0" d="M8,1C4.7,1,2,4,2,6.7
	c0,2.4,0.8,4.7,1,5.3c1.6,0,0,0,1.5,0c-1.2-2.3-1-5.2-1-5.2c0-2.4,2-4.3,4.5-4.3s4.5,1.8,4.5,4.3c0,1.7-0.2,2.7-1,5.2H13
	c0.2-0.6,1-3.2,1-5.3C14,3.9,11.3,1,8,1L8,1z"/>
<g id="layer11" transform="translate(-81.0002,-467)" inkscape:groupmode="layer" inkscape:label="apps">
</g>
<g id="layer13" transform="translate(-81.0002,-467)" inkscape:groupmode="layer" inkscape:label="places">
</g>
<g id="layer14" transform="translate(-81.0002,-467)" inkscape:groupmode="layer" inkscape:label="mimetypes">
</g>
<g id="layer15" transform="translate(-81.0002,-467)" inkscape:groupmode="layer" inkscape:label="emblems">
</g>
<g id="g71291" transform="translate(-81.0002,-467)" inkscape:groupmode="layer" inkscape:label="emotes">
</g>
<g id="g4953" transform="translate(-81.0002,-467)" inkscape:groupmode="layer" inkscape:label="categories">
</g>
<g id="layer12" transform="translate(-81.0002,-467)" inkscape:groupmode="layer" inkscape:label="actions">
</g>
<g class="st1">
	<path class="st2" d="M6.9,13.9c-0.2,0.5-0.5,0.9-1,1C5.7,15,5.5,15,5.4,15c-0.7,0-1.4-0.6-1.7-1.4l-0.6-2.2c0-0.1,0-0.2,0-0.3
		c0,0,0,0,0,0c-0.1-0.6,0-1.1,0.4-1.5c0.2-0.3,0.5-0.5,0.8-0.6C5,8.8,6,9.4,6.3,10.4l0.6,2.2c0,0.1,0,0.2,0.1,0.3
		C7,13.2,7,13.6,6.9,13.9z"/>
	<path class="st2" d="M13,11.1C13,11.1,13,11.1,13,11.1c0,0.1,0,0.2,0,0.3l-0.6,2.2c-0.2,0.8-1,1.4-1.7,1.4c-0.2,0-0.3,0-0.4-0.1
		c-0.5-0.2-0.9-0.5-1-1C9,13.6,9,13.2,9,12.9c0-0.1,0-0.2,0.1-0.3l0.6-2.2c0.3-1,1.3-1.6,2.1-1.3c0.3,0.1,0.6,0.3,0.8,0.6
		C12.9,10,13.1,10.6,13,11.1z"/>
	<path class="st2" d="M8,1C4.7,1,2,3.9,2,7.5c0,1.3,0.4,2.6,1,3.6c0,0,0,0,0,0c0.9,1.4,2.3,2.4,3.8,2.7C7,13.6,7,13.2,7,12.9
		c-1.6-0.4-3-1.6-3.6-3.3C3.1,9,3,8.3,3,7.5C3,4.5,5.2,2,8,2s5,2.5,5,5.5c0,0.8-0.1,1.5-0.4,2.1c-0.6,1.6-2,2.9-3.6,3.3
		c-0.1,0.3,0,0.7,0.1,1c1.6-0.3,3-1.3,3.8-2.7c0,0,0,0,0,0c0.7-1,1-2.3,1-3.6C14,3.9,11.3,1,8,1z"/>
</g>
</svg>
