<?xml version="1.0" encoding="utf-8"?>
<!-- Generator: Adobe Illustrator 21.0.0, SVG Export Plug-In . SVG Version: 6.00 Build 0)  -->
<svg version="1.1" id="图层_1" opacity="0.8" xmlns="http://www.w3.org/2000/svg" xmlns:xlink="http://www.w3.org/1999/xlink"
	 x="0px" y="0px" viewBox="0 0 16 16" style="enable-background:new 0 0 16 16;" xml:space="preserve">
<style type="text/css">
	.st0{fill:none;stroke:#1F2022;stroke-linecap:round;stroke-miterlimit:10;}
</style>
<path class="st0" d="M13.5,4.5L14.4,9c0.2,1.2,0.1,2.5-0.5,3.6c-1,1.7-3,2.9-5.3,2.9h0c-2.3,0-4.3-1.2-5.3-2.9
	C2.5,11.5,2.4,10.2,2.6,9l0.9-4.5"/>
<path class="st0" d="M3.5,4.5c0.5-2.5,2.2-4,5-4h0c2.7,0,4.5,1.5,5,4"/>
<line class="st0" x1="8.5" y1="6.5" x2="8.5" y2="8.5"/>
<line class="st0" x1="8.5" y1="0.5" x2="8.5" y2="2.5"/>
<path class="st0" d="M8.5,6.5L8.5,6.5c-0.6,0-1-0.4-1-1v-2c0-0.5,0.4-1,1-1h0c0.5,0,1,0.4,1,1v2C9.5,6.1,9.1,6.5,8.5,6.5z"/>
<path class="st0" d="M13.9,6.5c-1.5,1.2-3.4,2-5.4,2c-2,0-3.9-0.7-5.4-1.9"/>
</svg>
