<?xml version="1.0" encoding="utf-8"?>
<!-- Generator: Adobe Illustrator 24.1.2, SVG Export Plug-In . SVG Version: 6.00 Build 0)  -->
<svg version="1.1" id="图层_1" xmlns="http://www.w3.org/2000/svg" xmlns:xlink="http://www.w3.org/1999/xlink" x="0px" y="0px"
	 viewBox="0 0 32 32" style="enable-background:new 0 0 32 32;" xml:space="preserve">
<style type="text/css">
	.st0{opacity:0.8475;}
	.st1{fill:none;stroke:#FFFFFF;}
</style>
<desc>Created with Sketch.</desc>
<g id="控件" class="st0">
	<g id="icon通知_x2F_n" transform="translate(1.000000, 1.000000)">
		<path id="通知" class="st1" d="M18.8,24.5c-0.2,1.7-1.7,3-3.4,3l0,0h-0.2c-1.7,0-3.2-1.3-3.4-3l0,0H18.8z M15.1,2.5
			c1.5,0,2.7,1.2,2.7,2.7l0,0v0.1c3,0.6,5.3,3.3,5.3,6.5l0,0v5.6c1.5,1.2,2.6,3,2.6,5l0,0H4.5c0.1-2,1.1-3.9,2.6-5l0,0v-5.6
			c0-3.2,2.3-5.9,5.3-6.5l0,0V5.2C12.5,3.7,13.7,2.5,15.1,2.5z"/>
	</g>
</g>
</svg>
