<?xml version="1.0" encoding="utf-8"?>
<!-- Generator: Adobe Illustrator 21.0.0, SVG Export Plug-In . SVG Version: 6.00 Build 0)  -->
<svg version="1.1" id="图层_1" opacity="0.8" xmlns="http://www.w3.org/2000/svg" xmlns:xlink="http://www.w3.org/1999/xlink"
	 x="0px" y="0px" viewBox="0 0 16 16" style="enable-background:new 0 0 16 16;" xml:space="preserve">
<style type="text/css">
	.st0{fill:#1F2022;}
	.st1{fill:none;stroke:#1F2022;stroke-linecap:round;stroke-miterlimit:10;}
</style>
<g>
	<path class="st0" d="M14,4c0.6,0,1,0.4,1,1v7c0,0.6-0.4,1-1,1H2c-0.6,0-1-0.4-1-1V5c0-0.6,0.4-1,1-1H14 M14,3H2C0.9,3,0,3.9,0,5v7
		c0,1.1,0.9,2,2,2h12c1.1,0,2-0.9,2-2V5C16,3.9,15.1,3,14,3L14,3z"/>
</g>
<g>
	<path class="st0" d="M4.5,7C5.3,7,6,7.7,6,8.5S5.3,10,4.5,10S3,9.3,3,8.5S3.7,7,4.5,7 M4.5,6C3.1,6,2,7.1,2,8.5S3.1,11,4.5,11
		S7,9.9,7,8.5S5.9,6,4.5,6L4.5,6z"/>
</g>
<g>
	<path class="st0" d="M11.5,7C12.3,7,13,7.7,13,8.5S12.3,10,11.5,10S10,9.3,10,8.5S10.7,7,11.5,7 M11.5,6C10.1,6,9,7.1,9,8.5
		s1.1,2.5,2.5,2.5S14,9.9,14,8.5S12.9,6,11.5,6L11.5,6z"/>
</g>
<g>
	<line class="st1" x1="4.5" y1="10.5" x2="11.5" y2="10.5"/>
</g>
</svg>
