<?xml version="1.0" encoding="utf-8"?>
<!-- Generator: Adobe Illustrator 24.0.0, SVG Export Plug-In . SVG Version: 6.00 Build 0)  -->
<svg version="1.1" id="图层_1" xmlns="http://www.w3.org/2000/svg" xmlns:xlink="http://www.w3.org/1999/xlink" x="0px" y="0px"
	 viewBox="0 0 96 96" enable-background="new 0 0 96 96" xml:space="preserve">
<title>media-dvd96</title>
<g id="_96">
	
		<linearGradient id="SVGID_1_" gradientUnits="userSpaceOnUse" x1="78.7591" y1="17.2409" x2="17.2409" y2="78.7591" gradientTransform="matrix(1 0 0 -1 0 96)">
		<stop  offset="1.000000e-02" style="stop-color:#9CBDFF"/>
		<stop  offset="0.36" style="stop-color:#FCB1DC"/>
		<stop  offset="0.73" style="stop-color:#DFCEE8"/>
		<stop  offset="1" style="stop-color:#88FFD4"/>
	</linearGradient>
	<circle fill="url(#SVGID_1_)" cx="48" cy="48" r="43.5"/>
	<path fill="#FFFFFF" d="M48,5c23.7,0,43,19.3,43,43S71.7,91,48,91S5,71.7,5,48S24.3,5,48,5 M48,4C23.7,4,4,23.7,4,48s19.7,44,44,44
		s44-19.7,44-44S72.3,4,48,4z"/>
	<polygon fill="#FFFFFF" points="48,48 48,48 48,48 48,48 48,48 48,48 48,48 48,48 	"/>
	<path opacity="0.62" fill="#FFFFFF" enable-background="new    " d="M57.4,33.8c-7.8-5.2-18.4-3.1-23.6,4.8S30.8,57,38.6,62.2
		c7.8,5.2,18.4,3.1,23.6-4.8C67.4,49.6,65.2,39,57.4,33.8C57.4,33.8,57.4,33.8,57.4,33.8z"/>
	<g opacity="0.5">
		
			<linearGradient id="SVGID_2_" gradientUnits="userSpaceOnUse" x1="37" y1="47.9999" x2="59" y2="47.9999" gradientTransform="matrix(1 0 0 -1 0 96)">
			<stop  offset="0" style="stop-color:#EF6ADC"/>
			<stop  offset="1" style="stop-color:#2868E8"/>
		</linearGradient>
		<path fill="url(#SVGID_2_)" d="M48,59c-6.1,0-11-4.9-11-11c0-6.1,4.9-11,11-11c6.1,0,11,4.9,11,11c0,2.2-0.6,4.3-1.8,6.1
			C55.2,57.2,51.7,59,48,59z"/>
		<path fill="#FFFFFF" d="M48,38c5.5,0,10,4.5,10,10s-4.5,10-10,10s-10-4.5-10-10c0-2,0.6-3.9,1.7-5.5C41.5,39.7,44.6,38,48,38
			 M48,36c-6.6,0-12,5.3-12,12c0,6.6,5.3,12,12,12s12-5.3,12-12c0-4-2-7.8-5.4-10C52.7,36.7,50.4,36,48,36z"/>
	</g>
	<circle fill="#FFFFFF" cx="48" cy="48" r="6"/>
	<polygon fill="#BBDEFB" points="48,48 48,48 48,48 48,48 48,48 48,48 48,48 48,48 	"/>
	<g opacity="0.3">
		<path fill="#FFFFFF" d="M48,47.9L48,47.9L7.8,65.7c1.4,3.3,3.3,6.4,5.5,9.2L48,47.9L48,47.9z"/>
		<path fill="#FFFFFF" d="M48,48L48,48l40.3-17.8c-1.4-3.3-3.3-6.4-5.5-9.2L48,48L48,48z"/>
		<path fill="#FFFFFF" d="M67.7,8.6L48,47.9l0,0l0,0l28.5-33.4c-1.4-1.2-2.8-2.2-4.3-3.2C70.8,10.4,69.2,9.5,67.7,8.6z"/>
		<path fill="#FFFFFF" d="M48,48L48,48L19.4,81.4c2.7,2.3,5.7,4.3,8.9,5.9L48,48z"/>
	</g>
	
		<linearGradient id="SVGID_3_" gradientUnits="userSpaceOnUse" x1="23.0139" y1="10" x2="23.0139" y2="32" gradientTransform="matrix(1 0 0 -1 0 96)">
		<stop  offset="0" style="stop-color:#752EFF"/>
		<stop  offset="1" style="stop-color:#305EEF"/>
	</linearGradient>
	<path fill="url(#SVGID_3_)" d="M36,70.5c0-1-0.2-2.1-0.6-3c-0.4-0.8-1-1.6-1.8-2.1c-0.8-0.6-1.7-0.9-2.7-1.1
		c-1.2-0.2-2.4-0.3-3.6-0.3c-1.2,0-2.5,0-4,0.1s-2.5,0.1-3.4,0.1s-2,0-3.2,0L16.3,66c-0.3,1-0.2,0.6-0.9,2.8h6.5
		c1-0.1,2-0.1,2.7-0.1c1-0.1,2,0.1,2.9,0.5c0.7,0.4,1.2,1,1.3,1.8c0.2,1.1,0.2,2.2-0.2,3.2c-0.3,1.1-0.7,2.1-1.3,3
		c-0.5,0.9-1.2,1.8-2,2.4c-0.7,0.6-1.6,1.1-2.5,1.3c-1,0.2-2,0.3-2.9,0.3c-0.6,0-1.2,0-1.8-0.1l2.5-8h-6.4c-0.8,2.8-1.6,5.1-2.2,7
		c-0.5,1.5-1.1,3.4-2,5.9c1.4,0,2.3,0,2.9,0h6.4c1.3,0,2.6-0.1,3.9-0.2c0.9-0.1,1.7-0.2,2.5-0.5c0.7-0.2,1.4-0.5,2-0.8
		c0.9-0.5,1.7-1,2.5-1.7c0.8-0.7,1.5-1.5,2.2-2.3c0.7-0.9,1.3-1.9,1.9-3c0.5-1.1,1-2.3,1.3-3.5C35.9,72.9,36,71.7,36,70.5z"/>
	
		<linearGradient id="SVGID_4_" gradientUnits="userSpaceOnUse" x1="50" y1="10" x2="50" y2="32" gradientTransform="matrix(1 0 0 -1 0 96)">
		<stop  offset="0" style="stop-color:#752EFF"/>
		<stop  offset="1" style="stop-color:#305EEF"/>
	</linearGradient>
	<path fill="url(#SVGID_4_)" d="M59.6,64h-3.7c-0.5,0.7-0.8,1.2-1,1.5l-0.5,0.8l-8.7,12.3l-1.2,1.9c0-1.3,0-2.3,0-3.1l-0.3-7.6
		C44.1,68,44,66.8,44,66.2s0-1.2,0-2.2h-3.2H37l0.8,8.7L38.6,84l0.1,2h4h3.8c1-1.5,2-2.8,2.8-3.8l8.3-11c2.1-2.7,3.9-5.1,5.5-7.2
		H59.6z"/>
	
		<linearGradient id="SVGID_5_" gradientUnits="userSpaceOnUse" x1="72.0139" y1="10" x2="72.0139" y2="32" gradientTransform="matrix(1 0 0 -1 0 96)">
		<stop  offset="0" style="stop-color:#752EFF"/>
		<stop  offset="1" style="stop-color:#305EEF"/>
	</linearGradient>
	<path fill="url(#SVGID_5_)" d="M85,70.5c0-1-0.2-2.1-0.6-3c-0.4-0.8-1-1.6-1.8-2.1c-0.8-0.6-1.7-0.9-2.7-1.1
		c-1.2-0.2-2.4-0.3-3.6-0.3c-1.2,0-2.6,0-4,0.1s-2.5,0.1-3.4,0.1s-2,0-3.2,0L65.3,66c-0.3,1-0.2,0.6-0.9,2.8h6.5
		c1-0.1,1.9-0.1,2.7-0.1c1-0.1,2,0.1,2.9,0.5c0.7,0.4,1.2,1,1.3,1.8c0.2,1.1,0.2,2.2-0.2,3.2c-0.3,1.1-0.7,2.1-1.3,3
		c-0.5,0.9-1.2,1.8-2,2.4c-0.7,0.7-1.6,1.1-2.6,1.3c-1,0.2-2,0.3-2.9,0.3c-0.6,0-1.2,0-1.8-0.1l2.4-8h-6.4c-0.8,2.8-1.6,5.1-2.2,7
		c-0.5,1.5-1.2,3.4-2,5.9c1.3,0,2.3,0,2.9,0h6.4c1.3,0,2.6-0.1,3.9-0.2c0.9-0.1,1.7-0.2,2.5-0.5c0.7-0.2,1.4-0.5,2-0.8
		c0.9-0.5,1.7-1,2.5-1.7c0.8-0.7,1.5-1.5,2.2-2.3c0.7-0.9,1.3-1.9,1.9-3c0.5-1.1,1-2.3,1.3-3.5C84.9,72.9,85,71.7,85,70.5z"/>
</g>
</svg>
