<?xml version="1.0" encoding="utf-8"?>
<!-- Generator: Adobe Illustrator 24.0.0, SVG Export Plug-In . SVG Version: 6.00 Build 0)  -->
<svg version="1.1" id="图层_1" xmlns="http://www.w3.org/2000/svg" xmlns:xlink="http://www.w3.org/1999/xlink" x="0px" y="0px"
	 viewBox="0 0 96 96" style="enable-background:new 0 0 96 96;" xml:space="preserve">
<g id="_96">
	
		<linearGradient id="SVGID_1_" gradientUnits="userSpaceOnUse" x1="78.7591" y1="6.7591" x2="17.2409" y2="-54.7591" gradientTransform="matrix(1 0 0 1 0 72)">
		<stop  offset="1.000000e-02" style="stop-color:#9CBDFF"/>
		<stop  offset="0.36" style="stop-color:#FCB1DC"/>
		<stop  offset="0.73" style="stop-color:#DFCEE8"/>
		<stop  offset="1" style="stop-color:#88FFD4"/>
	</linearGradient>
	<circle style="fill:url(#SVGID_1_);" cx="48" cy="48" r="43.5"/>
	<path style="fill:#FFFFFF;" d="M48,5c23.7,0,43,19.3,43,43S71.7,91,48,91S5,71.7,5,48S24.3,5,48,5 M48,4C23.7,4,4,23.7,4,48
		s19.7,44,44,44s44-19.7,44-44S72.3,4,48,4z"/>
	<polygon style="fill:#FFFFFF;" points="48,48 48,48 48,48 48,48 48,48 48,48 48,48 	"/>
	<path style="opacity:0.62;fill:#FFFFFF;enable-background:new    ;" d="M57.4,33.8c-7.8-5.2-18.4-3.1-23.6,4.8s-3,18.4,4.8,23.6
		s18.4,3.1,23.6-4.8C67.4,49.6,65.2,39,57.4,33.8L57.4,33.8z"/>
	<g style="opacity:0.5;">
		
			<linearGradient id="SVGID_2_" gradientUnits="userSpaceOnUse" x1="37.0142" y1="-23.95" x2="59.0142" y2="-23.95" gradientTransform="matrix(1 0 0 1 0 72)">
			<stop  offset="0" style="stop-color:#EF6ADC"/>
			<stop  offset="1" style="stop-color:#2868E8"/>
		</linearGradient>
		<path style="fill:url(#SVGID_2_);" d="M48,59c-2.2,0-4.3-0.6-6.1-1.8C36.8,53.8,35.5,47,38.8,42c2-3.1,5.5-4.9,9.2-4.9
			c2.2,0,4.3,0.6,6.1,1.8c5.1,3.4,6.4,10.2,3.1,15.2C55.1,57.1,51.7,59,48,59z"/>
		<path style="fill:#FFFFFF;" d="M48,38c5.5,0,10,4.5,10,10s-4.5,10-10,10s-10-4.5-10-10c0-2,0.6-3.9,1.7-5.5
			C41.5,39.7,44.6,38,48,38 M48,36c-6.6,0-12,5.3-12,12c0,6.6,5.3,12,12,12s12-5.3,12-12c0-4-2-7.8-5.4-10C52.7,36.7,50.4,36,48,36z
			"/>
	</g>
	<circle style="fill:#FFFFFF;" cx="48" cy="48" r="6"/>
	<polygon style="fill:#BBDEFB;" points="48,48 48,48 48,48 48,48 48,48 48,48 48,48 	"/>
	<g style="opacity:0.3;">
		<path style="fill:#FFFFFF;" d="M48,47.9L48,47.9L7.8,65.7c1.4,3.3,3.3,6.4,5.5,9.2L48,47.9L48,47.9z"/>
		<path style="fill:#FFFFFF;" d="M48,48L48,48l40.3-17.8c-1.4-3.3-3.3-6.4-5.5-9.2L48,48L48,48z"/>
		<path style="fill:#FFFFFF;" d="M67.7,8.6L48,47.9l0,0l0,0l28.5-33.4c-1.4-1.2-2.8-2.2-4.3-3.2C70.8,10.4,69.2,9.5,67.7,8.6z"/>
		<path style="fill:#FFFFFF;" d="M48,48L48,48L19.4,81.4c2.7,2.3,5.7,4.3,8.9,5.9L48,48z"/>
	</g>
	
		<linearGradient id="SVGID_3_" gradientUnits="userSpaceOnUse" x1="97.9326" y1="-142.5169" x2="79.7781" y2="-79.051" gradientTransform="matrix(0.9615 -0.275 0.275 0.9615 15.9316 187.936)">
		<stop  offset="0" style="stop-color:#752EFF"/>
		<stop  offset="1" style="stop-color:#305EEF"/>
	</linearGradient>
	<path style="fill:url(#SVGID_3_);" d="M84.7,31c-2.4-1.4-5.3-1.8-8-1.1l0,0c-4.6,1.3-9.5-0.5-12.1-4.5l0,0l0,0
		c-0.3-1-1.3-1.5-2.2-1.2c-1,0.3-1.5,1.3-1.2,2.2L73,67.9c-3.5-1.5-7.4-1.6-11-0.3c-7,2.5-11.2,9.4-9.2,15.3s9.3,8.7,16.4,6.2
		c6.7-2.4,10.7-8.6,9.5-14.2c0-0.1,0-0.2-0.1-0.3l-7.8-27.2l0,0l-0.1-0.3c-1.6-5.8,1.7-11.8,7.5-13.4c4.1-1.2,8.6,0.2,11.3,3.5
		C88.9,34.6,87.1,32.4,84.7,31z"/>
</g>
</svg>
