<?xml version="1.0" encoding="utf-8"?>
<!-- Generator: Adobe Illustrator 25.0.0, SVG Export Plug-In . SVG Version: 6.00 Build 0)  -->
<svg version="1.1"
	 id="svg7384" xmlns:cc="http://creativecommons.org/ns#" xmlns:dc="http://purl.org/dc/elements/1.1/" xmlns:inkscape="http://www.inkscape.org/namespaces/inkscape" xmlns:rdf="http://www.w3.org/1999/02/22-rdf-syntax-ns#" xmlns:sodipodi="http://sodipodi.sourceforge.net/DTD/sodipodi-0.dtd" xmlns:svg="http://www.w3.org/2000/svg"
	 xmlns="http://www.w3.org/2000/svg" xmlns:xlink="http://www.w3.org/1999/xlink" x="0px" y="0px" viewBox="0 0 16 16"
	 style="enable-background:new 0 0 16 16;" xml:space="preserve">
<style type="text/css">
	.st0{opacity:0.75;}
	.st1{fill:#1F2022;}
</style>
<sodipodi:namedview  bordercolor="#666666" borderopacity="1" gridtolerance="10" guidetolerance="10" id="namedview88" inkscape:bbox-nodes="false" inkscape:bbox-paths="true" inkscape:current-layer="layer10" inkscape:cx="3.25682" inkscape:cy="-6.25019" inkscape:guide-bbox="true" inkscape:object-nodes="false" inkscape:object-paths="false" inkscape:pageopacity="1" inkscape:pageshadow="2" inkscape:snap-bbox="true" inkscape:snap-bbox-midpoints="false" inkscape:snap-global="true" inkscape:snap-grids="true" inkscape:snap-nodes="true" inkscape:snap-others="false" inkscape:snap-to-guides="true" inkscape:window-height="1375" inkscape:window-maximized="1" inkscape:window-width="2560" inkscape:window-x="0" inkscape:window-y="27" inkscape:zoom="8" objecttolerance="10" pagecolor="#3a3b39" showborder="false" showgrid="false" showguides="true">
	
		<inkscape:grid  dotted="false" empspacing="2" enabled="true" id="grid4866" originx="159.9998px" originy="350px" snapvisiblegridlinesonly="true" spacingx="1px" spacingy="1px" type="xygrid" visible="true">
		</inkscape:grid>
</sodipodi:namedview>
<g id="layer9" transform="translate(-81.0004,-567)" inkscape:groupmode="layer" inkscape:label="status">
</g>
<g id="layer10" transform="translate(-81.0004,-567)" inkscape:groupmode="layer" inkscape:label="devices" class="st0">
	<path id="path26945" inkscape:connector-curvature="0" class="st1" d="M91.8,570c-0.5,0-0.9,0.5-1.2,0.8c-0.3,0.4-0.6,0.8-0.7,1.4
		c0,0.2,0.2,0.2,0.3,0.3c0.3,0.3,0.6,0.7,0.4,1.2c-0.3,0.6-0.8,0.9-1.2,1.4c-0.3,0.3-0.8,0.8-1.3,0.6c-0.4-0.1-0.6-0.5-0.9-0.7
		c-0.4,0-0.8,0.3-1.1,0.5c-0.4,0.3-0.9,0.7-1.1,1.3c-0.1,0.4,0.4,0.7,0.6,0.9c0.7,0.5,1.7,0.6,2.5,0.3c1.3-0.5,2.3-1.4,3.3-2.4
		c0.8-0.9,1.5-2,1.6-3.1c0.1-0.9-0.4-1.7-1-2.3L91.8,570L91.8,570L91.8,570z"/>
</g>
<g id="layer11" transform="translate(-81.0004,-567)" inkscape:groupmode="layer" inkscape:label="apps">
</g>
<g id="layer13" transform="translate(-81.0004,-567)" inkscape:groupmode="layer" inkscape:label="places">
</g>
<g id="layer14" transform="translate(-81.0004,-567)" inkscape:groupmode="layer" inkscape:label="mimetypes">
</g>
<g id="layer15" transform="translate(-81.0004,-567)" inkscape:groupmode="layer" inkscape:label="emblems">
</g>
<g id="g71291" transform="translate(-81.0004,-567)" inkscape:groupmode="layer" inkscape:label="emotes">
</g>
<g id="g4953" transform="translate(-81.0004,-567)" inkscape:groupmode="layer" inkscape:label="categories">
</g>
<g id="layer12" transform="translate(-81.0004,-567)" inkscape:groupmode="layer" inkscape:label="actions">
</g>
<g class="st0">
	<path class="st1" d="M12.6,11l1.4,1.4V14H2v-1.6l0.3-0.3C3.4,12.7,4.7,13,6,13c2,0,3.8-0.7,5.3-2H12.6 M13,10h-2.1
		c-1.3,1.2-3,2-4.9,2c-1.4,0-2.7-0.4-3.8-1.2L1,12v3h14v-3L13,10L13,10z"/>
</g>
<g class="st0">
	<path class="st1" d="M10.5,12c-0.3,0-0.5,0.2-0.5,0.5s0.2,0.5,0.5,0.5s0.5-0.2,0.5-0.5S10.8,12,10.5,12L10.5,12z"/>
</g>
<g class="st0">
	<path class="st1" d="M12.5,12c-0.3,0-0.5,0.2-0.5,0.5s0.2,0.5,0.5,0.5s0.5-0.2,0.5-0.5S12.8,12,12.5,12L12.5,12z"/>
</g>
</svg>
