<?xml version="1.0" encoding="utf-8"?>
<!-- Generator: Adobe Illustrator 21.0.0, SVG Export Plug-In . SVG Version: 6.00 Build 0)  -->
<svg version="1.1" id="图层_1" opacity="0.8" xmlns="http://www.w3.org/2000/svg" xmlns:xlink="http://www.w3.org/1999/xlink"
	 x="0px" y="0px" viewBox="0 0 16 16" style="enable-background:new 0 0 16 16;" xml:space="preserve">
<style type="text/css">
	.st0{fill:#1F2022;}
</style>
<g>
	<path class="st0" d="M11,1c0.6,0,1,0.4,1,1v12c0,0.6-0.4,1-1,1H4c-0.6,0-1-0.4-1-1V2c0-0.6,0.4-1,1-1H11 M11,0H4C2.9,0,2,0.9,2,2
		v12c0,1.1,0.9,2,2,2h7c1.1,0,2-0.9,2-2V2C13,0.9,12.1,0,11,0L11,0z"/>
</g>
<g>
	<path class="st0" d="M10.5,6h-6C4.2,6,4,5.8,4,5.5v-3C4,2.2,4.2,2,4.5,2h6C10.8,2,11,2.2,11,2.5v3C11,5.8,10.8,6,10.5,6z"/>
</g>
<g>
	<path class="st0" d="M7.5,8C8.9,8,10,9.1,10,10.5S8.9,13,7.5,13S5,11.9,5,10.5S6.1,8,7.5,8 M7.5,7C5.6,7,4,8.6,4,10.5
		S5.6,14,7.5,14s3.5-1.6,3.5-3.5S9.4,7,7.5,7L7.5,7z"/>
</g>
<polygon class="st0" points="7,9.1 7,11.9 9,10.5 "/>
</svg>
