<?xml version="1.0" encoding="utf-8"?>
<!-- Generator: Adobe Illustrator 25.0.0, SVG Export Plug-In . SVG Version: 6.00 Build 0)  -->
<svg version="1.1"
	 id="svg7384" xmlns:cc="http://creativecommons.org/ns#" xmlns:dc="http://purl.org/dc/elements/1.1/" xmlns:inkscape="http://www.inkscape.org/namespaces/inkscape" xmlns:rdf="http://www.w3.org/1999/02/22-rdf-syntax-ns#" xmlns:sodipodi="http://sodipodi.sourceforge.net/DTD/sodipodi-0.dtd" xmlns:svg="http://www.w3.org/2000/svg"
	 xmlns="http://www.w3.org/2000/svg" xmlns:xlink="http://www.w3.org/1999/xlink" x="0px" y="0px" viewBox="0 0 16 16"
	 style="enable-background:new 0 0 16 16;" xml:space="preserve">
<style type="text/css">
	.st0{display:none;opacity:0.75;}
	.st1{display:inline;fill:#1F2022;}
	.st2{opacity:0.75;}
	.st3{fill:#1F2022;}
</style>
<sodipodi:namedview  bordercolor="#666666" borderopacity="1" gridtolerance="10" guidetolerance="10" id="namedview88" inkscape:bbox-nodes="false" inkscape:bbox-paths="true" inkscape:current-layer="layer10" inkscape:cx="11.559236" inkscape:cy="0.90569" inkscape:guide-bbox="true" inkscape:object-nodes="false" inkscape:object-paths="false" inkscape:pageopacity="1" inkscape:pageshadow="2" inkscape:snap-bbox="true" inkscape:snap-bbox-midpoints="false" inkscape:snap-global="true" inkscape:snap-grids="true" inkscape:snap-nodes="true" inkscape:snap-others="false" inkscape:snap-to-guides="true" inkscape:window-height="1375" inkscape:window-maximized="1" inkscape:window-width="2560" inkscape:window-x="0" inkscape:window-y="27" inkscape:zoom="11.313708" objecttolerance="10" pagecolor="#3a3b39" showborder="false" showgrid="false" showguides="true">
	
		<inkscape:grid  dotted="false" empspacing="2" enabled="true" id="grid4866" originx="0px" originy="330px" snapvisiblegridlinesonly="true" spacingx="1px" spacingy="1px" type="xygrid" visible="true">
		</inkscape:grid>
</sodipodi:namedview>
<g id="layer9" transform="translate(-241.0002,-547)" inkscape:groupmode="layer" inkscape:label="status">
</g>
<g id="layer10" transform="translate(-241.0002,-547)" inkscape:groupmode="layer" inkscape:label="devices" class="st0">
	<path id="path27207" inkscape:connector-curvature="0" sodipodi:nodetypes="ssssssssscccccccccc" class="st1" d="M244.6,550
		c-1.5,0-2.6,1-2.6,2.5v7.9c0,1.5,1.2,2.6,2.6,2.6h8.8c1.5,0,2.6-1.2,2.6-2.6v-7.9c0-1.5-1.2-2.5-2.6-2.5H244.6z M245.5,551h7
		c2,0.5,2,6.9,0,8h-7C243.2,557.4,243.9,551.9,245.5,551z M253,562h-1v-1h1V562z"/>
	<path id="path27232" sodipodi:cx="5" sodipodi:cy="331" sodipodi:rx="1" sodipodi:ry="1" sodipodi:type="arc" class="st1" d="
		M247,548c0,0.6-0.4,1-1,1s-1-0.4-1-1s0.4-1,1-1S247,547.4,247,548z"/>
	<path id="path27234" sodipodi:cx="5" sodipodi:cy="331" sodipodi:rx="1" sodipodi:ry="1" sodipodi:type="arc" class="st1" d="
		M253,548c0,0.6-0.4,1-1,1s-1-0.4-1-1s0.4-1,1-1S253,547.4,253,548z"/>
	<path id="path27236" inkscape:connector-curvature="0" class="st1" d="M246.3,547.7l-0.7,0.7l2.5,2.5l0.1,0.2h0.2h1.1h0.2l0.1-0.1
		l2.4-2.5l-0.7-0.7l-2.3,2.3h-0.7L246.3,547.7L246.3,547.7z"/>
</g>
<g id="layer11" transform="translate(-241.0002,-547)" inkscape:groupmode="layer" inkscape:label="apps">
</g>
<g id="layer13" transform="translate(-241.0002,-547)" inkscape:groupmode="layer" inkscape:label="places">
</g>
<g id="layer14" transform="translate(-241.0002,-547)" inkscape:groupmode="layer" inkscape:label="mimetypes">
</g>
<g id="layer15" transform="translate(-241.0002,-547)" inkscape:groupmode="layer" inkscape:label="emblems">
</g>
<g id="g71291" transform="translate(-241.0002,-547)" inkscape:groupmode="layer" inkscape:label="emotes">
</g>
<g id="g4953" transform="translate(-241.0002,-547)" inkscape:groupmode="layer" inkscape:label="categories">
</g>
<g id="layer12" transform="translate(-241.0002,-547)" inkscape:groupmode="layer" inkscape:label="actions">
</g>
<g class="st2">
	<circle class="st3" cx="5" cy="1" r="1"/>
	<circle class="st3" cx="11" cy="1" r="1"/>
	<g>
		<polygon class="st3" points="11.3,1.3 9.7,3 8.7,4 7.3,4 6.3,3 4.7,1.3 5.3,0.7 7.7,3 8,3.3 8.3,3 10.7,0.7 		"/>
	</g>
	<path class="st3" d="M12,3H4C2.3,3,1,4.3,1,6v7c0,1.7,1.3,3,3,3h8c1.7,0,3-1.3,3-3V6C15,4.3,13.7,3,12,3z M14,13c0,1.1-0.9,2-2,2H4
		c-1.1,0-2-0.9-2-2V6c0-1.1,0.9-2,2-2h8c1.1,0,2,0.9,2,2V13z"/>
	<g>
		<path class="st3" d="M11,6c0.6,0,1,0.4,1,1v3c0,0.6-0.4,1-1,1H5c-0.6,0-1-0.4-1-1V7c0-0.6,0.4-1,1-1H11 M11,5H5C3.9,5,3,5.9,3,7v3
			c0,1.1,0.9,2,2,2h6c1.1,0,2-0.9,2-2V7C13,5.9,12.1,5,11,5L11,5z"/>
	</g>
	<rect x="10" y="13" class="st3" width="2" height="1"/>
</g>
</svg>
