<svg id="icon_飞行模式-s" data-name="icon/飞行模式-s" xmlns="http://www.w3.org/2000/svg" width="16" height="16" viewBox="0 0 16 16">
  <defs>
    <style>
      .cls-1 {
        fill: #fff;
        stroke: #707070;
        opacity: 0;
      }

      .cls-2 {
        fill: #262626;
      }

      .cls-3 {
        stroke: none;
      }

      .cls-4 {
        fill: none;
      }
    </style>
  </defs>
  <g id="矩形_59" data-name="矩形 59" class="cls-1">
    <rect class="cls-3" width="16" height="16"/>
    <rect class="cls-4" x="0.5" y="0.5" width="15" height="15"/>
  </g>
  <path id="路径_80" data-name="路径 80" class="cls-2" d="M16.4,4.184c-.753-1.125-3.2,0-5.832,1.594l-2.916-1.5h.094c.094-.094.188-.281.094-.375-.094-.187-.282-.281-.376-.187L6.991,4,4.169,2.5c-.282-.094-.658-.094-.753.187-.188.281-.094.562.188.844L7.367,7.933c-1.6,1.125-2.916,2.25-3.575,2.812h0L1.253,10a.64.64,0,0,0-.753.375,10.265,10.265,0,0,1,1.505,1.875,10.176,10.176,0,0,1,.847,2.25.64.64,0,0,0,.753-.375l.376-1.594c.094,0,.094-.094.188-.094,0-.094,13.64-6,12.229-8.249ZM12.07,12.433l.188-2.812c-1.035.75-2.07,1.406-3.01,2.062L10.753,16q.141.562.564.562A.606.606,0,0,0,11.882,16l.188-2.812L12.353,13a.232.232,0,0,0,.094-.375c-.094-.187-.188-.281-.376-.187Z" transform="translate(-0.5 -1.438)"/>
</svg>
