<?xml version="1.0" encoding="utf-8"?>
<!-- Generator: Adobe Illustrator 24.2.1, SVG Export Plug-In . SVG Version: 6.00 Build 0)  -->
<svg version="1.1" id="icon_夜间模式" xmlns="http://www.w3.org/2000/svg" xmlns:xlink="http://www.w3.org/1999/xlink" x="0px"
	 y="0px" viewBox="0 0 24 24" style="enable-background:new 0 0 24 24;" xml:space="preserve">
<style type="text/css">
	.st0{opacity:0;}
	.st1{fill:#D8D8D8;}
	.st2{fill:none;stroke:#979797;stroke-miterlimit:10;}
	.st3{fill:#FFFFFF;}
</style>
<g id="icon_夜间模式-2">
	<g id="矩形" class="st0">
		<path class="st1" d="M0.5,0h23C23.8,0,24,0.2,24,0.5v23c0,0.3-0.2,0.5-0.5,0.5h-23C0.2,24,0,23.8,0,23.5v-23C0,0.2,0.2,0,0.5,0z"
			/>
		<rect x="0.5" y="0.5" class="st2" width="23" height="23"/>
	</g>
	<path id="形状结合" class="st3" d="M4.7,20.4c-2-1.7-3.3-4-3.7-6.6c3.8,3.3,9.5,2.8,12.8-1c2.9-3.4,2.9-8.4,0-11.8
		c6,1,10.1,6.7,9.1,12.8c-1,6-6.7,10.1-12.8,9.1C8.1,22.5,6.3,21.6,4.7,20.4z M4.2,13.2L4,12.5c-0.1-0.4-0.4-0.6-0.7-0.7l-0.7-0.2
		c-0.1,0-0.2-0.1-0.1-0.2c0-0.1,0.1-0.1,0.1-0.1L3.3,11C3.6,11,3.9,10.7,4,10.3l0.2-0.7c0-0.1,0.1-0.2,0.2-0.1
		c0.1,0,0.1,0.1,0.1,0.1l0.2,0.7C4.8,10.7,5.1,11,5.5,11l0.7,0.2c0.1,0,0.2,0.1,0.1,0.2c0,0.1-0.1,0.1-0.1,0.1l-0.7,0.2
		c-0.4,0.1-0.6,0.4-0.7,0.7l-0.2,0.7c0,0.1-0.1,0.2-0.2,0.1C4.3,13.3,4.2,13.3,4.2,13.2L4.2,13.2z M8.7,10.1L8,7.4
		C8,7.1,7.7,6.8,7.3,6.7L4.7,6C4.6,6,4.5,5.9,4.5,5.8c0-0.1,0.1-0.1,0.1-0.1L7.3,5C7.7,4.9,8,4.6,8,4.2l0.7-2.7
		c0-0.1,0.1-0.2,0.2-0.1c0.1,0,0.1,0.1,0.1,0.1l0.7,2.7c0.1,0.4,0.4,0.6,0.7,0.7l2.7,0.7c0.1,0,0.2,0.1,0.1,0.2
		C13.3,6,13.3,6,13.2,6l-2.7,0.7c-0.4,0.1-0.6,0.4-0.7,0.7l-0.7,2.7c0,0.1-0.1,0.2-0.2,0.1C8.8,10.2,8.8,10.2,8.7,10.1z"/>
</g>
</svg>
