<svg id="图层_1" data-name="图层 1" xmlns="http://www.w3.org/2000/svg" viewBox="0 0 16 16"><defs><style>.cls-1{opacity:0.75;}.cls-2{fill:#1f2022;}</style></defs><title>b-磁盘</title><g class="cls-1"><path class="cls-2" d="M16,10.32a1.11,1.11,0,0,0-.08-.44L12.8,1.71A1.16,1.16,0,0,0,11.75,1H4.28a1.13,1.13,0,0,0-1.05.72L.08,9.88a1.32,1.32,0,0,0-.08.44V12.5A2.5,2.5,0,0,0,2.5,15h11A2.5,2.5,0,0,0,16,12.5ZM15,12.5A1.5,1.5,0,0,1,13.5,14H2.5A1.5,1.5,0,0,1,1,12.5V11H15ZM3.92,2.23A.39.39,0,0,1,4.29,2h7.42a.37.37,0,0,1,.35.23L15,10H1Z"/><circle class="cls-2" cx="9.5" cy="12.5" r="0.5"/><circle class="cls-2" cx="11.5" cy="12.49" r="0.5"/><circle class="cls-2" cx="13.5" cy="12.49" r="0.5"/><path class="cls-2" d="M8,3C5.82,3,4,4.08,4,5.5S5.82,8,8,8s4-1.08,4-2.5S10.18,3,8,3ZM8,7C6.34,7,5,6.28,5,5.5,5,5,6,4,8,4s3,1,3,1.5C11,6.28,9.71,7,8,7Z"/></g></svg>