<?xml version="1.0" encoding="utf-8"?>
<!-- Generator: Adobe Illustrator 21.0.0, SVG Export Plug-In . SVG Version: 6.00 Build 0)  -->
<svg version="1.1" id="图层_39" xmlns="http://www.w3.org/2000/svg" xmlns:xlink="http://www.w3.org/1999/xlink" x="0px" y="0px"
	 viewBox="0 0 128 128" style="enable-background:new 0 0 128 128;" xml:space="preserve">
<style type="text/css">
	.st0{fill:url(#SVGID_1_);}
	.st1{opacity:0.2;enable-background:new    ;}
	.st2{opacity:0.08;enable-background:new    ;}
	.st3{opacity:0.1;enable-background:new    ;}
	.st4{fill:#F57F17;}
	.st5{fill:url(#SVGID_2_);}
</style>
<title>favorite128</title>
<radialGradient id="SVGID_1_" cx="64.025" cy="-400.07" r="55.6788" gradientTransform="matrix(1 0 0 -1 0 -336.21)" gradientUnits="userSpaceOnUse">
	<stop  offset="0" style="stop-color:#FFFF00"/>
	<stop  offset="0.06" style="stop-color:#FFFC09"/>
	<stop  offset="0.34" style="stop-color:#FDEF2E"/>
	<stop  offset="0.6" style="stop-color:#FBE54A"/>
	<stop  offset="0.83" style="stop-color:#FADF5A"/>
	<stop  offset="1" style="stop-color:#FADD60"/>
</radialGradient>
<path class="st0" d="M120.9,51.6c0.2-0.2,0.2-0.5,0-0.7c-0.1-0.1-0.2-0.1-0.3-0.1L82,45.1c-0.2,0-0.3-0.1-0.4-0.3l-17.2-35
	c-0.1-0.2-0.4-0.3-0.6-0.2c-0.1,0-0.2,0.1-0.2,0.2L46.3,44.9c-0.1,0.1-0.2,0.2-0.4,0.3L7.4,50.8C7.1,50.8,7,51,7,51.3
	c0,0.1,0.1,0.2,0.1,0.3L35,78.9c0.1,0.1,0.2,0.3,0.1,0.4l-6.6,38.6c0,0.3,0.1,0.5,0.4,0.5c0.1,0,0.2,0,0.3,0l34.5-18.2
	c0.1-0.1,0.3-0.1,0.4,0l34.5,18.2c0.2,0.1,0.5,0,0.6-0.2c0-0.1,0.1-0.2,0-0.3l-6.6-38.6c0-0.2,0-0.3,0.1-0.4L120.9,51.6z"/>
<path class="st1" d="M98.9,121.5c-0.6,0-1.1-0.1-1.6-0.4L64,103.5l-33.3,17.6c-1.7,0.9-3.8,0.2-4.7-1.5c-0.3-0.7-0.4-1.4-0.3-2.1
	L32,80.1L5,53.7c-1.4-1.3-1.4-3.6,0-4.9c0.5-0.6,1.3-0.9,2-1l37.3-5.4l16.6-34c0.8-1.7,2.9-2.4,4.6-1.6c0.7,0.3,1.3,0.9,1.6,1.6
	l16.7,33.9l37.2,5.4c1.9,0.2,3.3,2,3,3.9c-0.1,0.8-0.5,1.5-1,2L96,80.1l6.4,37.3c0.3,1.9-1,3.7-2.9,4
	C99.3,121.5,99.1,121.5,98.9,121.5L98.9,121.5z"/>
<path class="st2" d="M100.9,125.5c-0.9,0-1.8-0.2-2.6-0.6L66,107.8l-32.4,17.1c-2.7,1.4-6,0.4-7.4-2.2c-0.6-1.1-0.8-2.3-0.6-3.5
	l6.2-36.3L5.7,57.2c-2.2-2.1-2.2-5.6-0.1-7.7c0.8-0.8,1.9-1.4,3.1-1.6l36.2-5.3l16.2-33c1.3-2.7,4.6-3.8,7.3-2.5
	c1.1,0.5,2,1.4,2.5,2.5l16.2,33l36.2,5.3c3,0.5,5,3.3,4.6,6.3c-0.2,1.2-0.7,2.3-1.6,3.1L100.1,83l6.2,36.3c0.5,3-1.5,5.8-4.5,6.3
	C101.5,125.5,101.2,125.5,100.9,125.5z"/>
<path class="st3" d="M100.9,123.5c-0.6,0-1.1-0.1-1.6-0.4L66,105.5l-33.3,17.6c-1.7,0.9-3.8,0.2-4.7-1.5c-0.3-0.7-0.4-1.4-0.3-2.1
	L34,82.1L7,55.7c-1.4-1.4-1.4-3.6,0-4.9c0.5-0.5,1.3-0.9,2-1l37.3-5.4l16.6-33.9c0.8-1.7,2.9-2.4,4.6-1.6c0.7,0.3,1.3,0.9,1.6,1.6
	l16.7,33.9l37.2,5.4c1.9,0.2,3.3,2,3,3.9c-0.1,0.8-0.5,1.5-1,2L98,82.1l6.4,37.3c0.3,1.9-1,3.7-2.9,4
	C101.3,123.5,101.1,123.5,100.9,123.5L100.9,123.5z"/>
<path class="st4" d="M98.9,119.5c-0.2,0-0.5-0.1-0.7-0.2L64,101.2l-34.2,18.1c-0.7,0.4-1.6,0.1-2-0.6c-0.1-0.3-0.2-0.6-0.1-0.9
	l6.5-38.3L6.4,52.3c-0.6-0.6-0.6-1.5,0-2.1C6.7,50,7,49.8,7.3,49.8l38.3-5.6L62.7,9.3c0.2-0.5,0.8-0.8,1.3-0.8l0,0
	c0.6,0,1.1,0.3,1.3,0.8l17.1,34.9l38.3,5.6c0.8,0.1,1.4,0.9,1.2,1.7c0,0.3-0.2,0.6-0.4,0.8L93.8,79.4l6.5,38.3
	c0.1,0.8-0.4,1.6-1.2,1.7C99.1,119.5,99,119.5,98.9,119.5L98.9,119.5z"/>
<radialGradient id="SVGID_2_" cx="64.025" cy="-400" r="55.7471" gradientTransform="matrix(1 0 0 -1 0 -336)" gradientUnits="userSpaceOnUse">
	<stop  offset="0" style="stop-color:#FFFF00"/>
	<stop  offset="0.06" style="stop-color:#FFFC09"/>
	<stop  offset="0.34" style="stop-color:#FDEF2E"/>
	<stop  offset="0.6" style="stop-color:#FBE54A"/>
	<stop  offset="0.83" style="stop-color:#FADF5A"/>
	<stop  offset="1" style="stop-color:#FADD60"/>
</radialGradient>
<path class="st5" d="M120.9,51.6c0.2-0.2,0.2-0.5,0-0.7c-0.1-0.1-0.2-0.1-0.3-0.1L82,45.1c-0.2,0-0.3-0.1-0.4-0.3l-17.2-35
	c-0.1-0.2-0.4-0.3-0.6-0.2c-0.1,0-0.2,0.1-0.2,0.2L46.3,44.9c-0.1,0.1-0.2,0.2-0.4,0.3L7.4,50.8C7.1,50.8,7,51,7,51.3
	c0,0.1,0.1,0.2,0.1,0.3L35,78.9c0.1,0.1,0.2,0.3,0.1,0.4l-6.6,38.6c0,0.3,0.1,0.5,0.4,0.5c0.1,0,0.2,0,0.3,0l34.5-18.2
	c0.1-0.1,0.3-0.1,0.4,0l34.5,18.2c0.2,0.1,0.5,0,0.6-0.2c0-0.1,0.1-0.2,0-0.3l-6.6-38.6c0-0.2,0-0.3,0.1-0.4L120.9,51.6z"/>
</svg>
