<?xml version="1.0" encoding="utf-8"?>
<!-- Generator: Adobe Illustrator 17.1.0, SVG Export Plug-In . SVG Version: 6.00 Build 0)  -->
<!DOCTYPE svg PUBLIC "-//W3C//DTD SVG 1.1//EN" "http://www.w3.org/Graphics/SVG/1.1/DTD/svg11.dtd">
<svg version="1.1"
	 id="svg2" inkscape:export-xdpi="270" inkscape:version="0.48.4 r9939" sodipodi:docname="folder.svg" inkscape:export-ydpi="270" xmlns:cc="http://creativecommons.org/ns#" xmlns:sodipodi="http://sodipodi.sourceforge.net/DTD/sodipodi-0.dtd" xmlns:rdf="http://www.w3.org/1999/02/22-rdf-syntax-ns#" xmlns:svg="http://www.w3.org/2000/svg" xmlns:dc="http://purl.org/dc/elements/1.1/" xmlns:inkscape="http://www.inkscape.org/namespaces/inkscape" inkscape:export-filename="/media/Data/Main/Visuals/Icons/Numix/Desktop/repos/numix-wiki/Gjorgi/Numix-folders/48/New/folder-144.png"
	 xmlns="http://www.w3.org/2000/svg" xmlns:xlink="http://www.w3.org/1999/xlink" x="0px" y="0px" viewBox="0 0 128 128"
	 enable-background="new 0 0 128 128" xml:space="preserve">
<polygon opacity="0.1" enable-background="new    " points="6,118.4 6,36.4 13.6,36.4 13.6,13.6 42.5,13.6 50,21.2 118.4,21.2 
	118.4,36.4 126,36.4 126,118.4 "/>
<polygon opacity="8.000000e-002" enable-background="new    " points="4,120.4 4,34.4 11.6,34.4 11.6,11.6 43.3,11.6 50.9,19.2 
	120.4,19.2 120.4,34.4 128,34.4 128,120.4 "/>
<polygon opacity="0.2" enable-background="new    " points="4,116.4 4,34.4 11.6,34.4 11.6,11.6 40.5,11.6 48,19.2 116.4,19.2 
	116.4,34.4 124,34.4 124,116.4 "/>
<polygon fill="#F57F17" points="6,114.4 6,36.4 13.6,36.4 13.6,13.6 39.7,13.6 47.2,21.2 114.4,21.2 114.4,36.4 122,36.4 122,114.4 
	"/>
<g>
	
		<linearGradient id="SVGID_1_" gradientUnits="userSpaceOnUse" x1="31.975" y1="-106.4474" x2="31.975" y2="-120.7" gradientTransform="matrix(2 0 0 2 0 256)">
		<stop  offset="0" style="stop-color:#F57C00"/>
		<stop  offset="0.1638" style="stop-color:#F58F09"/>
		<stop  offset="0.3598" style="stop-color:#F59D11"/>
		<stop  offset="0.5982" style="stop-color:#F5A515"/>
		<stop  offset="0.9946" style="stop-color:#F5A816"/>
	</linearGradient>
	<path fill="url(#SVGID_1_)" d="M113.4,22.2H46.8l-7.6-7.6H14.5v7.6v7.6v9.5c0,2.1,1.8,3.8,3.8,3.8h91.2c2,0,3.8,0.2,3.8-1.9
		C113.4,37.4,113.4,22.2,113.4,22.2z"/>
	
		<linearGradient id="rect2990_1_" gradientUnits="userSpaceOnUse" x1="32" y1="-109.3" x2="32" y2="-71.3" gradientTransform="matrix(2 0 0 2 0 256)">
		<stop  offset="0" style="stop-color:#FADD60"/>
		<stop  offset="0.9946" style="stop-color:#F5A816"/>
	</linearGradient>
	<polyline id="rect2990_2_" fill="url(#rect2990_1_)" points="121,37.4 121,113.4 7,113.4 7,37.4 	"/>
	<path id="rect3004" inkscape:connector-curvature="0" opacity="0.25" fill="#FDEFBA" enable-background="new    " d="M7,37.4V52
		c0-5,3.4-9.1,7.6-9.1h98.8c4.2,0,7.6,4.1,7.6,9.1V37.4H7z"/>
	<path id="path3801" inkscape:connector-curvature="0" opacity="0.1" fill="#E65100" enable-background="new    " d="M14.6,14.6
		c0,0,0,1.9,0,5.7v3.8c0-3.8,1.7-5.7,3.5-5.7h19.7c1.3,0,3.1,0,6.2,1.9c0.9,0.5,1.8,1.1,2.9,1.9l-7.6-7.6L14.6,14.6L14.6,14.6z"/>
	<polygon opacity="0.1" fill="#E65100" enable-background="new    " points="46.8,22.2 113.4,22.2 113.4,27.9 52.5,27.9 	"/>
	<rect x="14.6" y="34" opacity="5.000000e-002" fill="#E65100" enable-background="new    " width="98.9" height="3.4"/>
</g>
</svg>
