<?xml version="1.0" encoding="iso-8859-1"?>
<!-- Generator: Adobe Illustrator 17.1.0, SVG Export Plug-In . SVG Version: 6.00 Build 0)  -->
<!DOCTYPE svg PUBLIC "-//W3C//DTD SVG 1.1//EN" "http://www.w3.org/Graphics/SVG/1.1/DTD/svg11.dtd">
<svg version="1.1"
	 id="svg2" inkscape:export-filename="/media/Data/Main/Visuals/Icons/Numix/Desktop/repos/numix-wiki/Gjorgi/Numix-folders/48/New/folder-144.png" xmlns:svg="http://www.w3.org/2000/svg" xmlns:sodipodi="http://sodipodi.sourceforge.net/DTD/sodipodi-0.dtd" xmlns:inkscape="http://www.inkscape.org/namespaces/inkscape" xmlns:dc="http://purl.org/dc/elements/1.1/" xmlns:cc="http://creativecommons.org/ns#" xmlns:rdf="http://www.w3.org/1999/02/22-rdf-syntax-ns#" inkscape:version="0.48.4 r9939" sodipodi:docname="user-home.svg" inkscape:export-xdpi="270" inkscape:export-ydpi="270"
	 xmlns="http://www.w3.org/2000/svg" xmlns:xlink="http://www.w3.org/1999/xlink" x="0px" y="0px" width="128px" height="128px"
	 viewBox="0 0 128 128" style="enable-background:new 0 0 128 128;" xml:space="preserve">
<sodipodi:namedview  id="base" inkscape:window-maximized="1" borderopacity="1.0" pagecolor="#ffffff" showguides="true" inkscape:cy="21.321632" inkscape:cx="35.66124" showgrid="true" bordercolor="#666666" inkscape:zoom="5.6530318" inkscape:document-units="px" inkscape:window-width="1920" inkscape:window-x="0" inkscape:window-y="28" inkscape:guide-bbox="true" inkscape:current-layer="layer1" inkscape:window-height="1023" inkscape:pageopacity="0.0" inkscape:pageshadow="2">
	<inkscape:grid  type="xygrid" enabled="true" visible="true" id="grid2985" snapvisiblegridlinesonly="true" empspacing="5">
		</inkscape:grid>
</sodipodi:namedview>
<polygon style="opacity:0.08;enable-background:new    ;" points="4,79.412 4,26.217 8.324,26.217 8.324,13.243 29.43,13.243 
	33.707,17.566 74.445,17.566 74.445,26.217 78.77,26.217 78.77,79.412 "/>
<polygon style="opacity:0.1;enable-background:new    ;" points="6,77.412 6,28.217 10.324,28.217 10.324,15.243 28.595,15.243 
	32.872,19.566 72.445,19.566 72.445,28.217 76.77,28.217 76.77,77.412 "/>
<polygon style="opacity:0.08;enable-background:new    ;" points="53.23,118.757 53.23,65.563 57.555,65.563 57.555,52.589 
	78.661,52.589 82.938,56.913 123.676,56.913 123.676,65.563 128,65.563 128,118.757 "/>
<polygon style="opacity:0.1;enable-background:new    ;" points="55.23,116.757 55.23,67.563 59.555,67.563 59.555,54.589 
	77.826,54.589 82.103,58.913 121.676,58.913 121.676,67.563 126,67.563 126,116.757 "/>
<polygon style="opacity:0.2;enable-background:new    ;" points="4,75.412 4,26.217 8.324,26.217 8.324,13.243 26.595,13.243 
	30.872,17.566 70.445,17.566 70.445,26.217 74.77,26.217 74.77,75.412 "/>
<polygon style="opacity:0.2;enable-background:new    ;" points="53.23,114.757 53.23,65.563 57.555,65.563 57.555,52.589 
	75.826,52.589 80.103,56.913 119.676,56.913 119.676,65.563 124,65.563 124,114.757 "/>
<polygon style="fill:#F57F17;" points="6,73.412 6,28.217 10.324,28.217 10.324,15.243 25.76,15.243 30.037,19.566 68.445,19.566 
	68.445,28.217 72.77,28.217 72.77,73.412 "/>
<linearGradient id="SVGID_1_" gradientUnits="userSpaceOnUse" x1="39.3845" y1="-55.5895" x2="39.3845" y2="-111.7575" gradientTransform="matrix(1 0 0 1 0 128)">
	<stop  offset="0" style="stop-color:#F59D11"/>
	<stop  offset="1" style="stop-color:#FF9800"/>
</linearGradient>
<path style="fill:url(#SVGID_1_);" d="M67.445,29.215c0-3.326,0-8.649,0-8.649H29.619l-4.277-4.324H11.324v4.324v4.324v4.324H7
	v43.196h64.769V29.215L67.445,29.215L67.445,29.215z"/>
<polygon style="fill:#F57F17;" points="55.231,112.757 55.231,67.563 59.555,67.563 59.555,54.589 74.991,54.589 79.268,58.913 
	117.676,58.913 117.676,67.563 122,67.563 122,112.757 "/>
<linearGradient id="SVGID_2_" gradientUnits="userSpaceOnUse" x1="88.639" y1="184.1782" x2="88.639" y2="200.383" gradientTransform="matrix(1 0 0 -1 0 256)">
	<stop  offset="0" style="stop-color:#F57C00"/>
	<stop  offset="0.1638" style="stop-color:#F58F09"/>
	<stop  offset="0.3598" style="stop-color:#F59D11"/>
	<stop  offset="0.5982" style="stop-color:#F5A515"/>
	<stop  offset="0.9946" style="stop-color:#F5A816"/>
</linearGradient>
<path style="fill:url(#SVGID_2_);" d="M116.723,59.962H78.85l-4.277-4.324H60.555v4.324v4.324v5.417
	c0,1.188,1.045,2.138,2.138,2.138h51.844c1.14,0,2.138,0.095,2.138-1.093C116.723,68.61,116.723,59.962,116.723,59.962z"/>
<linearGradient id="rect2990_1_" gradientUnits="userSpaceOnUse" x1="88.6155" y1="187.4375" x2="88.6155" y2="144.2425" gradientTransform="matrix(1 0 0 -1 0 256)">
	<stop  offset="0" style="stop-color:#FADD60"/>
	<stop  offset="0.9946" style="stop-color:#F5A816"/>
</linearGradient>
<polyline id="rect2990_2_" style="fill:url(#rect2990_1_);" points="121,68.563 121,111.757 56.231,111.757 56.231,68.563 "/>
<path id="rect3004_1_" inkscape:connector-curvature="0" style="opacity:0.25;fill:#FDEFBA;enable-background:new    ;" d="
	M56.231,68.563v8.268c0-2.851,1.901-5.18,4.324-5.18h56.121c2.424,0,4.324,2.328,4.324,5.18v-8.268H56.231z"/>
<path id="path3801_1_" inkscape:connector-curvature="0" style="opacity:0.1;fill:#E65100;enable-background:new    ;" d="
	M60.555,55.637c0,0,0,1.093,0,3.231v2.138c0-2.138,0.95-3.231,1.948-3.231h11.215c0.76,0,1.758,0.048,3.516,1.045
	c0.475,0.285,1.045,0.665,1.616,1.093l-4.277-4.324H60.555L60.555,55.637L60.555,55.637z"/>
<polygon style="opacity:0.1;fill:#E65100;enable-background:new    ;" points="78.85,59.962 116.723,59.962 116.723,63.193 
	82.081,63.193 "/>
<rect x="60.555" y="66.662" style="opacity:0.05;fill:#E65100;enable-background:new    ;" width="56.168" height="1.901"/>
</svg>
