<?xml version="1.0" encoding="utf-8"?>
<!-- Generator: Adobe Illustrator 21.0.0, SVG Export Plug-In . SVG Version: 6.00 Build 0)  -->
<svg version="1.1" id="图层_39" xmlns="http://www.w3.org/2000/svg" xmlns:xlink="http://www.w3.org/1999/xlink" x="0px" y="0px"
	 viewBox="0 0 128 128" style="enable-background:new 0 0 128 128;" xml:space="preserve">
<style type="text/css">
	.st0{opacity:0.1;enable-background:new    ;}
	.st1{opacity:0.08;enable-background:new    ;}
	.st2{opacity:0.2;enable-background:new    ;}
	.st3{fill:#F57F17;}
	.st4{fill:url(#SVGID_1_);}
	.st5{fill:url(#rect2990_1_);}
	.st6{opacity:0.25;fill:#FDEFBA;enable-background:new    ;}
	.st7{opacity:0.1;fill:#E65100;enable-background:new    ;}
	.st8{opacity:0.05;fill:#E65100;enable-background:new    ;}
	.st9{opacity:0.39;}
</style>
<title>0128folder-system</title>
<g id="_128">
	<polygon class="st0" points="6,119 6,36 13,36 13,13 41.5,13 49.5,21 118,21 118,36 126,36 126,119 	"/>
	<polygon class="st1" points="4,121 4,34 11,34 11,11 41.5,11 49.5,19 120,19 120,34 128,34 128,121 	"/>
	<polygon class="st2" points="4,117 4,34 11,34 11,11 39.5,11 47.5,19 116,19 116,34 124,34 124,117 	"/>
	<polygon class="st3" points="6,115 6,36 13,36 13,13 39,13 47,21 114,21 114,36 122,36 122,115 	"/>
	
		<linearGradient id="SVGID_1_" gradientUnits="userSpaceOnUse" x1="-497.75" y1="915.95" x2="-497.75" y2="930.5" gradientTransform="matrix(2 0 0 -2 1059 1875)">
		<stop  offset="0" style="stop-color:#F57C00"/>
		<stop  offset="0.16" style="stop-color:#F58F09"/>
		<stop  offset="0.36" style="stop-color:#F59D11"/>
		<stop  offset="0.6" style="stop-color:#F5A515"/>
		<stop  offset="0.99" style="stop-color:#F5A816"/>
	</linearGradient>
	<path class="st4" d="M113,22H46.5l-8-8H14v25c0,2.1,2.3,4.1,4.3,4.1h91.2c2,0,3.5,0,3.5-2.1V22z"/>
	
		<linearGradient id="rect2990_1_" gradientUnits="userSpaceOnUse" x1="-497.5" y1="919" x2="-497.5" y2="880.5" gradientTransform="matrix(2 0 0 -2 1059 1875)">
		<stop  offset="0" style="stop-color:#FADD60"/>
		<stop  offset="0.99" style="stop-color:#F5A816"/>
	</linearGradient>
	<rect id="rect2990" x="7" y="37" class="st5" width="114" height="77"/>
	<path id="rect3004" class="st6" d="M7,37v15c0-5.1,3.8-9,8-9h98c4.2,0,8,3.9,8,9V37H7z"/>
	<path id="path3801" class="st7" d="M14,14v10c0-3.8,1.2-6,3-6h20c2.3-0.2,4.5,0.4,6.4,1.7c0.9,0.5,2,1.5,3.1,2.3l-8-8H14z"/>
	<polygon class="st7" points="46.5,22 113,22 113,28 52.5,28 	"/>
	<rect x="14" y="33" class="st8" width="99" height="4"/>
</g>
<g id="_256">
	<g class="st9">
		<path class="st3" d="M64.2,89.6c-7,0-12.6-5.7-12.6-12.7s5.7-12.6,12.7-12.6S76.9,70,76.9,77C76.8,83.9,71.2,89.6,64.2,89.6z
			 M64.2,67.3c-5.3,0-9.6,4.4-9.6,9.7c0,5.3,4.4,9.6,9.7,9.6c5.3,0,9.6-4.3,9.6-9.6C73.8,71.6,69.5,67.2,64.2,67.3z"/>
	</g>
	<g class="st9">
		<path class="st3" d="M70.9,105l-7.2-6.3l-5.9,6.3l-8.4-3v-9.4l-9.1-0.3l-4.3-8l6.4-7.2L36,71l4.1-10.4l9.1,1.5L49,53.5l8.1-4.5
			l6.5,6.8l6.8-6.6l9.7,3.7v8.9l9.4,0.5l2.6,9.3l-6.6,6.1l6.6,5.7l-3.8,9.5h-9l0.1,8.6L70.9,105z M52.3,99.9l4.6,1.6l6.5-6.9l8,6.9
			l4.8-2V90h10l2.2-5.6l-7.6-6.5l7.7-7.2L87,65.2l-10-0.6v-9.7l-5.9-2.3L63.5,60l-7-7.3L52,55.2l0.3,10.5L42.1,64l-2.5,6.3l7,6.7
			l-6.9,7.8l2.5,4.6l10.2,0.3L52.3,99.9z"/>
	</g>
</g>
</svg>
