<?xml version="1.0" encoding="utf-8"?>
<!-- Generator: Adobe Illustrator 21.0.0, SVG Export Plug-In . SVG Version: 6.00 Build 0)  -->
<svg version="1.1" id="图层_39" xmlns="http://www.w3.org/2000/svg" xmlns:xlink="http://www.w3.org/1999/xlink" x="0px" y="0px"
	 viewBox="0 0 128 128" style="enable-background:new 0 0 128 128;" xml:space="preserve">
<style type="text/css">
	.st0{opacity:0.1;enable-background:new    ;}
	.st1{opacity:0.08;enable-background:new    ;}
	.st2{opacity:0.2;enable-background:new    ;}
	.st3{fill:#F57F17;}
	.st4{fill:url(#SVGID_1_);}
	.st5{fill:url(#rect2990_1_);}
	.st6{opacity:0.25;fill:#FDEFBA;enable-background:new    ;}
	.st7{opacity:0.1;fill:#E65100;enable-background:new    ;}
	.st8{opacity:0.05;fill:#E65100;enable-background:new    ;}
	.st9{fill:#F57F17;fill-opacity:0.39;}
</style>
<title>0128folder-templates</title>
<g id="_128">
	<polygon class="st0" points="6,119 6,36 13,36 13,13 41.5,13 49.5,21 118,21 118,36 126,36 126,119 	"/>
	<polygon class="st1" points="4,121 4,34 11,34 11,11 41.5,11 49.5,19 120,19 120,34 128,34 128,121 	"/>
	<polygon class="st2" points="4,117 4,34 11,34 11,11 39.5,11 47.5,19 116,19 116,34 124,34 124,117 	"/>
	<polygon class="st3" points="6,115 6,36 13,36 13,13 39,13 47,21 114,21 114,36 122,36 122,115 	"/>
	
		<linearGradient id="SVGID_1_" gradientUnits="userSpaceOnUse" x1="-875.25" y1="-602.55" x2="-875.25" y2="-588" gradientTransform="matrix(2 0 0 -2 1814 -1162)">
		<stop  offset="0" style="stop-color:#F57C00"/>
		<stop  offset="0.16" style="stop-color:#F58F09"/>
		<stop  offset="0.36" style="stop-color:#F59D11"/>
		<stop  offset="0.6" style="stop-color:#F5A515"/>
		<stop  offset="0.99" style="stop-color:#F5A816"/>
	</linearGradient>
	<path class="st4" d="M113,22H46.5l-8-8H14v25c0,2.1,2.3,4.1,4.3,4.1h91.2c2,0,3.5,0,3.5-2.1V22z"/>
	
		<linearGradient id="rect2990_1_" gradientUnits="userSpaceOnUse" x1="-875" y1="-599.5" x2="-875" y2="-638" gradientTransform="matrix(2 0 0 -2 1814 -1162)">
		<stop  offset="0" style="stop-color:#FADD60"/>
		<stop  offset="0.99" style="stop-color:#F5A816"/>
	</linearGradient>
	<rect id="rect2990" x="7" y="37" class="st5" width="114" height="77"/>
	<path id="rect3004" class="st6" d="M7,37v15c0-5.1,3.8-9,8-9h98c4.2,0,8,3.9,8,9V37H7z"/>
	<path id="path3801" class="st7" d="M14,14v10c0-3.8,1.2-6,3-6h20c2.3-0.2,4.5,0.4,6.4,1.7c0.9,0.5,2,1.5,3.1,2.3l-8-8H14z"/>
	<polygon class="st7" points="46.5,22 113,22 113,28 52.5,28 	"/>
	<rect x="14" y="33" class="st8" width="99" height="4"/>
</g>
<g id="gnome-fs-loading-icon">
	<rect x="88" y="65" class="st9" width="4" height="10"/>
	<rect x="88" y="79" class="st9" width="4" height="10"/>
	<rect x="36" y="65" class="st9" width="4" height="10"/>
	<rect x="36" y="79" class="st9" width="4" height="10"/>
	<rect x="52" y="49" class="st9" width="10" height="4"/>
	<rect x="66" y="49" class="st9" width="10" height="4"/>
	<rect x="52" y="101" class="st9" width="10" height="4"/>
	<rect x="66" y="101" class="st9" width="10" height="4"/>
	<polygon class="st9" points="36,61 41.6,61 41.6,54.6 48,54.6 48,49 36,49 	"/>
	<polygon class="st9" points="80,49 80,54.6 86.4,54.6 86.4,61 92,61 92,49 	"/>
	<polygon class="st9" points="86.4,99.4 80,99.4 80,105 92,105 92,93 86.4,93 	"/>
	<polygon class="st9" points="41.6,93 36,93 36,105 48,105 48,99.4 41.6,99.4 	"/>
</g>
</svg>
