<?xml version="1.0" encoding="utf-8"?>
<!-- Generator: Adobe Illustrator 17.1.0, SVG Export Plug-In . SVG Version: 6.00 Build 0)  -->
<!DOCTYPE svg PUBLIC "-//W3C//DTD SVG 1.1//EN" "http://www.w3.org/Graphics/SVG/1.1/DTD/svg11.dtd">
<svg version="1.1"
	 id="svg2" xmlns:inkscape="http://www.inkscape.org/namespaces/inkscape" xmlns:dc="http://purl.org/dc/elements/1.1/" xmlns:rdf="http://www.w3.org/1999/02/22-rdf-syntax-ns#" xmlns:svg="http://www.w3.org/2000/svg" xmlns:sodipodi="http://sodipodi.sourceforge.net/DTD/sodipodi-0.dtd" xmlns:cc="http://creativecommons.org/ns#" inkscape:export-filename="/media/Data/Main/Visuals/Icons/Numix/Desktop/repos/numix-wiki/Gjorgi/Numix-folders/48/New/folder-144.png" sodipodi:docname="folder.svg" inkscape:version="0.48.4 r9939" inkscape:export-xdpi="270" inkscape:export-ydpi="270"
	 xmlns="http://www.w3.org/2000/svg" xmlns:xlink="http://www.w3.org/1999/xlink" x="0px" y="0px" viewBox="0 0 128 128"
	 enable-background="new 0 0 128 128" xml:space="preserve">
<polygon opacity="8.000000e-002" enable-background="new    " points="4,120.8 4,47.7 11.1,47.7 11.1,11.2 42.9,11.2 50.4,18.8 
	120.9,18.8 120.9,47.7 128,47.7 128,120.8 "/>
<polygon opacity="9.999999e-002" enable-background="new    " points="6,118.8 6,49.7 13.1,49.7 13.1,13.2 42,13.2 49.6,20.8 
	118.9,20.8 118.9,49.7 126,49.7 126,118.8 "/>
<polygon opacity="0.2" enable-background="new    " points="4,116.8 4,47.7 11.1,47.7 11.1,11.2 40,11.2 47.6,18.8 116.9,18.8 
	116.9,47.7 124,47.7 124,116.8 "/>
<polygon fill="#F57F17" points="6,114.8 6,49.7 13.1,49.7 13.1,13.2 39.2,13.2 46.7,20.8 114.9,20.8 114.9,49.7 122,49.7 122,114.8 
	"/>
<g>
	
		<linearGradient id="SVGID_1_" gradientUnits="userSpaceOnUse" x1="128" y1="122.2" x2="128" y2="28.4" gradientTransform="matrix(0.5 0 0 0.5 0 0)">
		<stop  offset="0" style="stop-color:#F57C00"/>
		<stop  offset="0.1638" style="stop-color:#F58F09"/>
		<stop  offset="0.3598" style="stop-color:#F59D11"/>
		<stop  offset="0.5982" style="stop-color:#F5A515"/>
		<stop  offset="0.9946" style="stop-color:#F5A816"/>
	</linearGradient>
	<path fill="url(#SVGID_1_)" d="M113.9,21.8H46.3l-7.6-7.6H14.1v46.9h99.8V21.8z"/>
	<path id="path3801" inkscape:connector-curvature="0" opacity="0.1" fill="#E65100" enable-background="new    " d="M14.1,14.2
		c0,0,0,1.9,0,5.7v3.8c0-3.8,1.7-5.7,3.5-5.7h19.7c1.3,0,3.1,0,6.2,1.9c0.9,0.5,1.8,1.1,2.8,1.9l-7.6-7.6
		C38.8,14.2,14.1,14.2,14.1,14.2z"/>
	<polygon opacity="0.1" fill="#E65100" enable-background="new    " points="46.9,21.8 46.3,21.8 52,27.4 52.6,27.4 113.9,27.4 
		113.9,21.8 	"/>
	<g>
		<polygon fill="#F5F5F5" points="97.4,25.8 24.1,25.8 24.1,53.1 24.1,58.4 24.1,60.3 25.9,60.3 102.1,60.3 103.9,60.3 103.9,58.4 
			103.9,53.1 103.9,32.3 		"/>
		<path id="path3757" sodipodi:nodetypes="cccc" inkscape:connector-curvature="0" fill="#FFFFFF" d="M97.4,25.8v6.5h6.5L97.4,25.8z
			"/>
		<path id="path3759" sodipodi:nodetypes="cccc" inkscape:connector-curvature="0" opacity="0.2" enable-background="new    " d="
			M103.9,38.8v-6.5h-6.5L103.9,38.8z"/>
		<rect x="34" y="43.8" fill="#9E9E9E" width="60" height="3.3"/>
		<rect x="34" y="37.2" fill="#9E9E9E" width="60" height="3.3"/>
		<rect x="34" y="30.5" fill="#9E9E9E" width="52.4" height="3.3"/>
		<polygon opacity="0.1" enable-background="new    " points="113.9,42.2 103.9,32.3 103.9,52.8 113.9,52.8 		"/>
	</g>
	
		<linearGradient id="rect2990_1_" gradientUnits="userSpaceOnUse" x1="128" y1="101.4" x2="128" y2="227.6" gradientTransform="matrix(0.5 0 0 0.5 0 0)">
		<stop  offset="0" style="stop-color:#FADD60"/>
		<stop  offset="0.9946" style="stop-color:#F5A816"/>
	</linearGradient>
	<polyline id="rect2990_2_" fill="url(#rect2990_1_)" points="121,50.7 121,113.8 7,113.8 7,50.7 	"/>
	<path id="rect3004" inkscape:connector-curvature="0" opacity="0.25" fill="#FDEFBA" enable-background="new    " d="M7,50.7v14.6
		c0-5,3.4-9.1,7.6-9.1h98.8c4.2,0,7.6,4.1,7.6,9.1V50.7H7z"/>
	<rect x="14.1" y="47.3" opacity="5.000000e-002" enable-background="new    " width="89.8" height="3.4"/>
</g>
</svg>
