<?xml version="1.0" encoding="iso-8859-1"?>
<!-- Generator: Adobe Illustrator 17.1.0, SVG Export Plug-In . SVG Version: 6.00 Build 0)  -->
<!DOCTYPE svg PUBLIC "-//W3C//DTD SVG 1.1//EN" "http://www.w3.org/Graphics/SVG/1.1/DTD/svg11.dtd">
<svg version="1.1"
	 id="svg2" inkscape:export-filename="/media/Data/Main/Visuals/Icons/Numix/Desktop/repos/numix-wiki/Gjorgi/Numix-folders/48/New/folder-144.png" xmlns:svg="http://www.w3.org/2000/svg" xmlns:sodipodi="http://sodipodi.sourceforge.net/DTD/sodipodi-0.dtd" xmlns:inkscape="http://www.inkscape.org/namespaces/inkscape" xmlns:dc="http://purl.org/dc/elements/1.1/" xmlns:cc="http://creativecommons.org/ns#" xmlns:rdf="http://www.w3.org/1999/02/22-rdf-syntax-ns#" inkscape:version="0.48.4 r9939" sodipodi:docname="user-home.svg" inkscape:export-xdpi="270" inkscape:export-ydpi="270"
	 xmlns="http://www.w3.org/2000/svg" xmlns:xlink="http://www.w3.org/1999/xlink" x="0px" y="0px" width="128px" height="128px"
	 viewBox="0 0 128 128" style="enable-background:new 0 0 128 128;" xml:space="preserve">
<polygon style="opacity:0.08;enable-background:new    ;" points="4,120.4 4,34.4 11.6,34.4 11.6,11.6 43.333,11.6 50.885,19.2 
	120.4,19.2 120.4,34.4 128,34.4 128,120.4 "/>
<polygon style="opacity:0.1;enable-background:new    ;" points="6,118.4 6,36.4 13.6,36.4 13.6,13.6 42.5,13.6 50.053,21.2 
	118.4,21.2 118.4,36.4 126,36.4 126,118.4 "/>
<polygon style="opacity:0.2;enable-background:new    ;" points="4,116.4 4,34.4 11.6,34.4 11.6,11.6 40.5,11.6 48.053,19.2 
	116.4,19.2 116.4,34.4 124,34.4 124,116.4 "/>
<polygon style="fill:#F57F17;" points="6,114.4 6,36.4 13.6,36.4 13.6,13.6 39.668,13.6 47.221,21.2 114.4,21.2 114.4,36.4 
	122,36.4 122,114.4 "/>
<sodipodi:namedview  id="base" inkscape:window-maximized="1" borderopacity="1.0" pagecolor="#ffffff" showguides="true" inkscape:cy="21.321632" inkscape:cx="35.66124" showgrid="true" bordercolor="#666666" inkscape:zoom="5.6530318" inkscape:document-units="px" inkscape:window-width="1920" inkscape:window-x="0" inkscape:window-y="28" inkscape:guide-bbox="true" inkscape:current-layer="layer1" inkscape:window-height="1023" inkscape:pageopacity="0.0" inkscape:pageshadow="2">
	<inkscape:grid  type="xygrid" enabled="true" visible="true" id="grid2985" snapvisiblegridlinesonly="true" empspacing="5">
		</inkscape:grid>
</sodipodi:namedview>
<g>
	
		<linearGradient id="SVGID_1_" gradientUnits="userSpaceOnUse" x1="64" y1="-41.1045" x2="64" y2="-12.6" gradientTransform="matrix(1 0 0 -1 0 2)">
		<stop  offset="0" style="stop-color:#F57C00"/>
		<stop  offset="0.1638" style="stop-color:#F58F09"/>
		<stop  offset="0.3598" style="stop-color:#F59D11"/>
		<stop  offset="0.5982" style="stop-color:#F5A515"/>
		<stop  offset="0.9946" style="stop-color:#F5A816"/>
	</linearGradient>
	<path style="fill:url(#SVGID_1_);" d="M113.4,22.2H46.805l-7.552-7.6H14.6v7.6v7.6v9.5c0,2.09,1.805,3.8,3.8,3.8h91.2
		c1.995,0,3.8,0.19,3.8-1.9C113.4,37.447,113.4,22.2,113.4,22.2z"/>
	
		<linearGradient id="rect2990_1_" gradientUnits="userSpaceOnUse" x1="64" y1="-35.4" x2="64" y2="-111.4" gradientTransform="matrix(1 0 0 -1 0 2)">
		<stop  offset="0" style="stop-color:#FADD60"/>
		<stop  offset="0.9946" style="stop-color:#F5A816"/>
	</linearGradient>
	<polyline id="rect2990_2_" style="fill:url(#rect2990_1_);" points="121,37.4 121,113.4 7,113.4 7,37.4 	"/>
	<path id="rect3004_1_" inkscape:connector-curvature="0" style="opacity:0.25;fill:#FDEFBA;enable-background:new    ;" d="M7,37.4
		v14.583c0-5.035,3.372-9.12,7.6-9.12h98.8c4.228,0,7.6,4.085,7.6,9.12V37.4H7z"/>
	<path id="path3801_1_" inkscape:connector-curvature="0" style="opacity:0.1;fill:#E65100;enable-background:new    ;" d="
		M14.6,14.6c0,0,0,1.9,0,5.7v3.8c0-3.8,1.71-5.7,3.467-5.7H37.78c1.33,0,3.088,0.048,6.175,1.853c0.855,0.522,1.805,1.14,2.85,1.947
		l-7.552-7.6H14.6z"/>
	<polygon style="opacity:0.1;fill:#E65100;enable-background:new    ;" points="46.805,22.2 113.4,22.2 113.4,27.9 52.505,27.9 	"/>
	<rect x="14.6" y="34.027" style="opacity:0.05;fill:#E65100;enable-background:new    ;" width="98.8" height="3.372"/>
</g>
<g>
	
		<linearGradient id="SVGID_2_" gradientUnits="userSpaceOnUse" x1="64" y1="-79.152" x2="64" y2="-22.247" gradientTransform="matrix(1 0 0 1 0 128)">
		<stop  offset="0" style="stop-color:#FADD60"/>
		<stop  offset="0.8656" style="stop-color:#F5A816"/>
	</linearGradient>
	<path style="opacity:0.78;fill:url(#SVGID_2_);enable-background:new    ;" d="M92.452,77.3c0,15.675-12.73,28.453-28.452,28.453
		S35.548,92.975,35.548,77.3S48.325,48.848,64,48.848S92.452,61.625,92.452,77.3z"/>
	<path style="fill:#F57F17;fill-opacity:0.39;" d="M45.332,55.878c0,0,0.57,0.333,0.808,0.807c0.19,0.523,0.807,0.523,0.807,0.523
		h0.903l1.33-0.428l-0.333,0.712c0,0-6.982,3.23-5.557,5.13s0.903,2.423,0.903,2.992c0,0.57,0.427,0.095,0.427,0.095l0.427-1.092
		l0.57-0.807l0.57-0.902l0.19-0.523l0.807-1.425l0.997-0.57l0.903,0.57c0,0,0.427,0.19,0.332,0.523
		c-0.095,0.332-0.19,0.902-0.19,0.902s0.19,0.428,0.523,0.428c0.332,0,0.807-0.333,0.807-0.333l0.427,0.713l0.333,1.33l0.807,0.807
		l0.427,0.902l-0.427,0.807l0.427,0.333l0.903,0.997l0.19,0.522l-1.52-0.095c0,0-0.19-0.427-0.523-0.427
		c-0.332,0-1.615-0.095-1.615-0.095l-0.713,0.19l-0.427,0.522c0,0-0.522,0.808-0.808,0.808c-0.285,0-1.092-0.19-1.092-0.19
		s-0.57-0.19-0.902,0.427c-0.333,0.57,0.522,0.902,0.522,0.902L45.14,71.36l-0.427,0.19c0,0-0.998,0.427-0.998,0.712
		c0,0.332,0,0.332,0,0.332l-0.332,0.808v0.522l-0.713,0.57l-0.712,0.522l-0.333,0.57v0.997c0,0-0.095,0.522-0.095,0.807
		s0,1.092,0,1.092s-0.333,0.332-0.522-0.332c-0.19-0.57-0.19-0.57-0.19-0.57l-0.332-0.712c0,0,0.332-0.095-0.095-0.427
		c-0.427-0.333-0.807-0.428-0.807-0.428s-0.19-0.19-0.57-0.19s0.522,0.095-0.428,0c-0.902-0.095-0.902-0.095-0.902-0.095
		l-0.713,0.57v0.523c0,0-0.19,3.563,0.807,4.038h0.428l0.57-0.902l0.522,0.19v0.428l-0.095,0.712v0.427l0.522,0.522l0.332,0.902
		c0.428,0.713,0.19,0.903,0.522,1.093c0.332,0.19,0.57,0.712,0.57,0.712l0.427,0.19c0,0,0.333,0.095,0.57,0.19
		c0.333,0.095,0.333,0.095,0.333,0.095l0.095,0.475l0.095,0.38l0.427,0.522c0,0-0.332,0,0.428,0s0.712,0,0.712,0s0,0.19,0.522,0.428
		c0.522,0.19,0.095,0.095,0.522,0.19c0.428,0.095,1.093,0.19,1.093,0.19c0.713-0.095,0.713-0.095,0.713-0.095l0.522,0.713
		c0,0,0.332,0,0.427,0.332s-0.522,0,0.095,0.332c0.57,0.332,0,0.095,0.57,0.332c0.57,0.238-0.19,0.19,0.57,0.19s0.903,0,1.235,0.095
		s0.522,0.807,0.522,0.807c0.57,0.713,0.57,0.713,0.57,0.713l0.095,0.902c0,0-0.333,0.19,0.427,0.19s0.19,0,0.713,0
		s-0.095-0.19,0.522,0c0.57,0.19,0.57,0.19,0.57,0.19s0.902,0.712,1.235,0.712c0.332,0,0.902-0.095,1.235,0s0.522,0.57,1.093,0.713
		c0.57,0.095,0.807,0,1.235,0.332c0.427,0.332,0.427,0.332,0.427,0.332l0.095,1.092l-0.333,0.57l-0.807,0.332l-0.095,0.998
		l-0.427,0.997v0.522c0,0,0.522,0.427-0.427,0.522c-0.903,0.095-0.903,0.095-0.903,0.095l-0.427,0.428c0,0,0,0.095-0.19,0.427
		s-0.428,0.807-0.428,0.807l0.095,0.902v0.57l-0.332,0.522c0,0-0.285,0.143,0.522,0.617c0.807,0.523,1.472,0.523,1.615,0.807
		c0.19,0.333,0.665,0.57,0.665,0.57l-1.092-0.237l-0.665-0.238l-1.14-0.332l-2.185-1.14c0,0-3.277-2.708-4.275-4.845
		c0,0-0.855-1.283-2.327-1.805c0,0-3.61-3.277-3.895-4.085l-0.143-0.522v-0.285l-0.143-0.143v-0.332l-0.095-0.237l0.048-0.998
		l0.047-0.665l0.048-0.38l-0.048-0.285c0,0-0.19-0.19-0.19-0.238c0-0.047-0.143-0.475-0.143-0.475l-0.048-0.143l0.522-0.475
		l-0.143-0.427L42,86.647l0.332-0.238c0,0,0.19-0.285,0.19-0.332c0-0.095-0.333-0.332-0.333-0.332l-0.143,0.047l-0.143,0.428h-0.19
		c0,0-0.19-0.095-0.19-0.143s-0.19-0.237-0.19-0.237l-0.238-0.095c0,0-0.19-0.048-0.237-0.143s-0.285-0.237-0.285-0.285
		c0-0.047-0.19-0.332-0.19-0.332l-0.238-0.095c0,0-0.285-0.427-0.285-0.522c0-0.048-0.143-0.285-0.143-0.285
		s-0.333-0.38-0.333-0.428c0-0.047-0.142-0.38-0.142-0.38h-0.238l-0.522-0.19l-0.332-0.427l-0.38-0.428c0,0-0.19-0.332-0.19-0.427
		s-0.143-0.19-0.143-0.19H37.2h-0.143l-0.332-0.285l-0.808-1.14l-0.143-0.523l-0.143-0.522l-0.095-0.902v-0.57l-0.38-4.227
		C35.595,73.69,36.83,63.24,45.332,55.878z"/>
	<path style="fill:#F57F17;fill-opacity:0.39;" d="M77.443,52.315l0.902,0.712l0.475,0.238l0.333,0.38l0.048,0.38
		c0,0,0.095,0.38,0.048,0.475s-0.095,0.57-0.095,0.57s0.427,0.712,0.427,0.807s0.048,0.522-0.048,0.57s-0.57,0.38-0.618,0.238
		s-0.38-0.475-0.475-0.475c-0.095-0.048-0.38-0.333-0.38-0.333l0.712-0.095l-0.095-0.475c0,0-0.522-0.19-0.617-0.19
		c-0.143-0.048-0.618-0.333-0.618-0.333l-0.522-0.143c0,0-0.903-0.238-0.998-0.285s-0.475-0.19-0.475-0.19h-0.76
		c0,0-0.38,0.19-0.475,0.285c-0.048,0.095-0.522,0.57-0.522,0.57s-0.048,0.57-0.048,0.665s-0.143,0.333-0.143,0.57
		c0,0.285-0.048,0.618-0.048,0.713s0,0.238,0,0.238l-0.095,0.427l-0.333,0.19l-0.427,0.333c0,0-0.38,0.285-0.38,0.38
		s0,0.475,0.143,0.712c0.143,0.285,0.095,0.523,0.285,0.665c0.19,0.143,0.285,0.333,0.427,0.38c0.143,0.048,0.048,0.095,0.285,0.095
		c0.19,0,0.38,0.048,0.475-0.048c0.095-0.048,0.332-0.048,0.427-0.19s-0.095-0.048,0.095-0.143c0.19-0.048,0.19-0.19,0.333-0.048
		c0.19,0.143,0.332,0.333,0.38,0.428s0.19,0.333,0.333,0.475c0.19,0.095,0.333,0.475,0.333,0.475l0.285,0.285
		c0,0,0.048,0.048,0.237,0.048c0.19,0,0.475-0.048,0.475-0.048l0.095-0.19c0,0,0.19,0.048,0.238-0.048
		c0.048-0.095,0.048-0.238,0.048-0.238s-0.095-0.285-0.19-0.38c-0.048-0.095-0.143-0.333-0.143-0.333l0.048-0.333l0.19-0.19
		l0.048-0.237v-0.285l-0.19-0.095l-0.332-0.19c0,0-0.19,0.048-0.19-0.19c-0.048-0.19-0.048-0.19-0.048-0.19l-0.427-0.095
		l-0.285-0.143l0.332-0.238c0.19-0.333,0.238-0.428,0.238-0.523s-0.048-0.38-0.048-0.38s-0.19-0.048-0.19-0.285
		c-0.048-0.238-0.048-0.38-0.048-0.38l0.048-0.19c0,0,0.048-0.143,0.19-0.143c0.095,0,0.285,0.143,0.38,0.143
		s0.285,0.048,0.285,0.048s0.095,0.048,0.095,0.19c0,0.095-0.048,0.333-0.048,0.333l0.19-0.285v0.333l-0.048,0.38v0.38l0.19,0.38
		l0.19,0.285c0,0,0.238,0.237,0.333,0.332c0.095,0.048,0.332,0.238,0.332,0.238l0.285,0.143l0.19,0.048l0.19-0.19
		c0,0,0.332,0.048,0.332-0.048c0.048-0.095,0.048-0.095,0.048-0.095s0.38-0.048,0.475-0.048s0.285,0,0.285,0
		s0.143,0.285,0.048,0.285s-0.143,0.095-0.38,0.19c-0.238,0.048-0.332,0-0.38,0.095s-0.19,0.332-0.19,0.332l0.19,0.048h0.143
		l0.19,0.19c0,0,0.048,0.048,0,0.19s0.19,0.095-0.048,0.143c-0.285,0.048-0.428-0.048-0.428-0.048s-0.048-0.238-0.19-0.143
		c-0.095,0.095-0.143,0.333-0.143,0.333v0.332l0.19,0.475c0,0,0.095,0.095,0,0.143s-0.428,0.428-0.428,0.428
		s-0.048,0.143-0.19,0.143c-0.095,0-0.237,0-0.475,0.048c-0.19,0.048-0.19,0.048-0.38,0.095c-0.19,0.048-0.333,0.095-0.57,0.143
		c-0.238,0.048-0.76,0.048-0.95,0.048s-0.237,0-0.332-0.048s-0.048,0-0.19-0.19c-0.143-0.19-0.285-0.333-0.285-0.475
		c0-0.095,0-0.143-0.048-0.333s-0.048-0.332-0.19-0.332c-0.19,0-0.19,0-0.19,0s-0.38,0.285-0.333,0.38s-0.048,0,0.285,0.238
		s0.428,0.523,0.428,0.523l-0.048,0.332l-0.57,0.333l-0.427,0.143l-0.048,0.285c0,0,0,0.095-0.095,0.237
		c-0.095,0.143-0.333,0.333-0.333,0.333s-0.19,0.048-0.238,0.19c-0.048,0.095-0.19,0.475-0.19,0.475s-0.19-0.048-0.38,0.095
		c-0.19,0.142,0.048,0.142-0.38,0.332s-0.428,0.19-0.428,0.19l-0.475-0.048l-0.285,0.095c0,0-0.38,0.048-0.428,0.143
		s-0.237,0.38-0.237,0.38s-0.095,0.19,0,0.19c0.095,0.048,0.237,0,0.475,0.048c0.19,0.048,0.238,0.048,0.38,0.142
		c0.143,0.048,0.285,0.19,0.285,0.19l0.523,0.475l0.285,0.57l-0.048,0.475l-0.523,0.19c0,0-0.333,0-0.475,0c-0.095,0-0.048,0-0.57,0
		c-0.523,0-0.618,0-0.713,0s-0.475-0.047-0.475-0.047l-0.333,0.047l-0.238,0.19l-0.143,0.048c0,0,0.19,0.427,0.19,0.522
		s0,0.332,0,0.332l-0.048,0.285l-0.143,0.333l-0.19,0.332l0.048,0.19c0,0-0.048,0.142,0.048,0.142c0.095,0,0.38-0.047,0.38,0.048
		s-0.238,0.475-0.238,0.475l0.475,0.095c0,0-0.048-0.048,0.238,0.047c0.285,0.048,0.475,0.143,0.475,0.143l0.333,0.237l0.095,0.19
		l0.095-0.19c0,0,0.523-0.047,0.57-0.095c0.095-0.047,0.333-0.047,0.333-0.047h0.427c0,0,0.095,0.047,0.19-0.048
		c0.048-0.095,0.048-0.095,0.048-0.095s0.475-0.19,0.523-0.285c0.095-0.047,0.143-0.332,0.143-0.332s0.143-0.095,0.143-0.19
		s-0.095-0.332-0.095-0.332v-0.19l0.143-0.19c0,0,0.048-0.047,0.19-0.19c0.143-0.142,0.143-0.142,0.143-0.142
		s-0.048-0.048,0.143-0.143c0.19-0.047,0.332-0.19,0.427-0.19s-0.095,0.095,0.095,0s0.238-0.19,0.238-0.332
		c0-0.095,0.048-0.57,0.048-0.57l0.19-0.285l0.475,0.048l0.238,0.048c0,0,0.285,0.047,0.332-0.048c0.048-0.095,0.19-0.19,0.19-0.19
		l0.38-0.19c0,0-0.048-0.047,0.143-0.047s0.475,0,0.57,0s0.333,0,0.333,0s0.19,0.095,0.285,0.19c0.048,0.095,0.19,0.332,0.19,0.332
		l0.143,0.19h0.143c0.19,0.142,0.285,0.237,0.57,0.332c0.332,0.095,0.523,0.19,0.523,0.19s0.095,0.19,0.19,0.285
		s0.19,0.19,0.333,0.285c0.095,0.047,0.19,0.142,0.238,0.237s0.19,0.285,0.19,0.285l0.19,0.19l0.095-0.19V69.32l-0.048-0.19
		c0,0-0.19-0.142,0.048-0.142c0.19,0,0.332,0,0.332,0l-0.19-0.285l-0.238-0.095l-0.333-0.238l-0.143-0.142l-0.143-0.048
		l-0.143-0.095l-0.19-0.142c0,0-0.333-0.048-0.333-0.19c-0.048-0.095-0.048-0.095-0.048-0.095l-0.333-0.047
		c0,0-0.332-0.19-0.332-0.285s-0.048-0.38-0.048-0.38l-0.285-0.048c0,0,0.048-0.19,0.048-0.332c0-0.095,0.095-0.238,0.095-0.238
		l0.57-0.047l0.143,0.332l0.238,0.143l0.332,0.142l0.143,0.19l0.143,0.142c0,0,0.048,0.048,0.238,0.095
		c0.19,0.048,0.333,0.095,0.333,0.095s0.19,0.19,0.332,0.19c0.143,0.048,0.19,0.095,0.333,0.143
		c-0.095,0.095-0.095,0.095-0.095,0.095s0.048,0.095,0.19,0.19s0.285,0.285,0.285,0.38s0.095,0.427,0.19,0.475
		s0.143,0.048,0.333,0.237c0.19,0.19,0.19,0.38,0.333,0.475c0.19,0.048,0.332,0,0.332,0.19c0.048,0.19,0.048,0.332,0.048,0.332
		s0.142,0.048,0.237,0.048s0.285-0.19,0.285-0.19s0.19-0.285,0.048-0.332c-0.095-0.048-0.332-0.048-0.332-0.143s0-0.57,0-0.57
		l0.143-0.333l0.19-0.285l0.285,0.095l0.285-0.19l0.285,0.333l-0.095,0.38c0,0,0.048,0.237,0.19,0.427
		c0.095,0.19,0.333,0.427,0.333,0.427l0.475,0.427l0.618,0.19l0.143-0.047l0.95-0.19c0,0,0.143,0,0.238,0s0.523,0.76,0.523,0.76
		s0,0.333,0,0.523s0,0.617,0,0.617s-0.333,0.332-0.475,0.332s-0.523,0.19-0.523,0.19l-0.76,0.19l-0.523-0.047l-0.902-0.048
		c0,0-0.902-0.048-0.997-0.048s-0.428,0-0.523,0s-0.238,0.095-0.333,0.38s-0.285,0.38-0.285,0.38s0,0.143-0.19,0.143
		s-0.19,0.047-0.333-0.048s-0.76-0.237-0.76-0.237l-0.57-0.428l-0.333-0.285l-0.332-0.047h-0.902l-0.57-0.048l0.095-0.95
		l0.095,0.285l-0.19-0.618l-0.285-0.19l-0.617-0.143l-0.428,0.048l-0.522,0.142l-0.523,0.19l-0.333,0.095l-1.568,0.285l-0.522,0.237
		c0,0-0.238,0.143-0.333,0.19c-0.095,0.048-0.475,0.048-0.475,0.048s-0.285-0.048-0.427-0.095c-0.143-0.048-0.475-0.048-0.57-0.048
		c-0.143,0-0.428-0.047-0.523,0c-0.095,0.048-0.19,0.048-0.285,0.19s-0.428,0.522-0.428,0.522s-0.19,0.19-0.285,0.285
		c-0.048,0.095-0.285,0.38-0.285,0.38l-0.38,0.57l-0.238,0.285l0.048,0.332v0.238c0,0-0.143,0.142-0.238,0.19
		s-0.285,0.143-0.285,0.143s-0.143,0.048-0.285,0.19c-0.143,0.095-0.143,0.142-0.237,0.237c-0.095,0.095-0.428,0.332-0.428,0.332
		s-0.19,0.143-0.333,0.285c-0.095,0.143-0.285,0.333-0.332,0.428s-0.19,0.19-0.285,0.237c-0.095,0.048-0.285,0.427-0.333,0.522
		s-0.332,0.523-0.332,0.523l-0.19,0.76l-0.048,0.38c0,0,0.048,0.143,0.143,0.238s0.19,0.475,0.19,0.475v0.332
		c0,0-0.095,0.285-0.142,0.38c-0.048,0.095,0.048,0.522,0.048,0.522v0.285c0,0,0,0.095-0.143,0.238
		c-0.143,0.142-0.19,0.332-0.19,0.332l0.19,0.427l0.143,0.285v0.19l0.19,0.332c0,0,0.095,0.095,0.19,0.19
		c0.095,0.048,0.143,0.048,0.333,0.19c0.19,0.095,0.19,0.095,0.19,0.095s0.285,0.332,0.285,0.475c0,0.095,0.19,0.285,0.19,0.285
		l0.332,0.332c0,0,0.048,0.19,0.238,0.332c0.19,0.143,0.38,0.238,0.475,0.333c0.095,0.047,0.38,0.285,0.57,0.332
		s0.285,0.095,0.38,0.095s-0.143-0.285,0.523,0.047c0.617,0.333,1.045,0.475,1.045,0.475l0.475,0.19c0,0,0.713,0.048,0.808-0.048
		c0.095-0.047,0.237-0.047,0.332-0.047s0.333,0,0.523,0s0.807-0.095,0.807-0.095l0.713-0.285c0,0,0.237-0.143,0.332-0.19
		s0.38-0.237,0.475-0.285c0.095-0.047,0.523-0.047,0.523-0.047s0-0.143,0.19,0c0.19,0.142,0.19,0.19,0.238,0.285
		s0.048,0.332,0.19,0.332c0.143,0.047,0.475,0.142,0.475,0.142s0.475-0.047,0.57,0c0.143,0.048,0.475,0.048,0.475,0.048l0.143,0.19
		l0.048,0.427v0.38c0,0-0.048,0.142,0,0.285c0.048,0.142,0.19,0.38,0.19,0.38s-0.19,0.285-0.285,0.332
		c-0.095,0.048-0.332,0.332-0.332,0.332l0.617,0.57l0.38,0.38l0.285,0.332c0,0,0.048,0.143,0.048,0.238s-0.048,0.332,0,0.475
		c0.048,0.095,0.048,0.475,0.048,0.475s0.048,0.285,0.048,0.38s-0.095,0.523-0.095,0.523l-0.048,0.332l-0.19,0.522l-0.238,0.285
		l-0.333,0.333l-0.238,0.38l-0.048,0.523l-0.19,0.332c0,0,0.048,0.285,0.048,0.427c0,0.143,0.285,0.618,0.285,0.618l-0.048,0.427
		c0,0-0.19,0.57-0.19,0.712c0,0.143-0.143,0.332-0.143,0.475c0,0.095-0.048,0.522-0.048,0.522l0.048,0.523l0.19,0.522l-0.19,0.475
		c0,0-0.095,0.38-0.095,0.57s0.333,0.428,0.428,0.428s0.522-0.048,0.665-0.19c0.19-0.095,0.617-0.238,0.712-0.285
		c0.095-0.048,0.19,0.047,0.475-0.19c0.285-0.19,0.665-0.522,0.665-0.522s0.333-0.238,0.475-0.333
		c0.095-0.095,0.522-0.57,0.522-0.57s0.333-0.333,0.523-0.475c0.238-0.143,0-0.048,0.238-0.19s0.95-0.712,0.95-0.712l0.713-0.712
		c0,0,0.617-0.807,0.712-0.95c0.095-0.142,0.665-0.902,0.76-0.95c0.095-0.047,0.902-0.57,1.092-0.712s0.427-1.092,0.523-1.235
		c0.095-0.095,0.57-1.235,0.57-1.235l0.475-1.33l0.76-1.948l0.76-1.378c0,0,0.332-0.57,0.475-0.76
		c0.095-0.19,0.807-1.615,0.807-1.615l0.285-1.188l0.095-0.997h-0.475l-0.523,0.475l-0.475-0.143l-0.475,0.048l0.522-0.618
		l-0.143-0.522l-0.427-0.332l-0.523-0.807v-0.807l-0.57-0.95l-0.38-1.52c0,0-0.665-0.713-0.57-0.902
		c0.048-0.19,0.237-0.713,0.237-0.713l0.38,0.19c0,0,0.285,0.712,0.428,0.76s0.332,0.427,0.38,0.522s0.095,0.428,0.19,0.523
		c0.048,0.095,0.38,0.665,0.38,0.665s0.238,0.57,0.285,0.713c0.048,0.095,0.285,0.475,0.332,0.712c0.048,0.285,0.19,1.14,0.19,1.235
		s0.238,1.045,0.238,1.045s0.333-0.095,0.38-0.19s0.048-0.142,0.143-0.237c0.048-0.095,0.57-0.523,0.57-0.523l0.238-0.712
		c0,0,0.143-0.332,0.19-0.475c0.047-0.142,0.332-0.617,0.332-0.712s-0.048-0.475,0-0.57s0.19-0.617,0.19-0.712
		s0.048-0.475,0.048-0.475l-0.048-0.807l0.38-0.475l0.19-0.522C92.405,73.737,91.075,59.488,77.443,52.315z"/>
</g>
</svg>
