<?xml version="1.0" encoding="iso-8859-1"?>
<!-- Generator: Adobe Illustrator 17.1.0, SVG Export Plug-In . SVG Version: 6.00 Build 0)  -->
<!DOCTYPE svg PUBLIC "-//W3C//DTD SVG 1.1//EN" "http://www.w3.org/Graphics/SVG/1.1/DTD/svg11.dtd">
<svg version="1.1"
	 id="svg2" inkscape:export-filename="/media/Data/Main/Visuals/Icons/Numix/Desktop/repos/numix-wiki/Gjorgi/Numix-folders/48/New/folder-144.png" xmlns:svg="http://www.w3.org/2000/svg" xmlns:sodipodi="http://sodipodi.sourceforge.net/DTD/sodipodi-0.dtd" xmlns:inkscape="http://www.inkscape.org/namespaces/inkscape" xmlns:dc="http://purl.org/dc/elements/1.1/" xmlns:cc="http://creativecommons.org/ns#" xmlns:rdf="http://www.w3.org/1999/02/22-rdf-syntax-ns#" inkscape:version="0.48.4 r9939" sodipodi:docname="user-home.svg" inkscape:export-xdpi="270" inkscape:export-ydpi="270"
	 xmlns="http://www.w3.org/2000/svg" xmlns:xlink="http://www.w3.org/1999/xlink" x="0px" y="0px" width="128px" height="128px"
	 viewBox="0 0 128 128" style="enable-background:new 0 0 128 128;" xml:space="preserve">
<sodipodi:namedview  id="base" inkscape:window-maximized="1" borderopacity="1.0" pagecolor="#ffffff" showguides="true" inkscape:cy="21.321632" inkscape:cx="35.66124" showgrid="true" bordercolor="#666666" inkscape:zoom="5.6530318" inkscape:document-units="px" inkscape:window-width="1920" inkscape:window-x="0" inkscape:window-y="28" inkscape:guide-bbox="true" inkscape:current-layer="layer1" inkscape:window-height="1023" inkscape:pageopacity="0.0" inkscape:pageshadow="2">
	<inkscape:grid  type="xygrid" enabled="true" visible="true" id="grid2985" snapvisiblegridlinesonly="true" empspacing="5">
		</inkscape:grid>
</sodipodi:namedview>
<rect x="4" y="8.75" style="opacity:0.08;enable-background:new    ;" width="124" height="114.5"/>
<rect x="6" y="10.75" style="opacity:0.1;enable-background:new    ;" width="120" height="110.5"/>
<rect x="4" y="8.75" style="opacity:0.2;enable-background:new    ;" width="120" height="110.5"/>
<rect x="6" y="10.75" style="fill:#90A4AE;" width="116" height="106.5"/>
<linearGradient id="SVGID_1_" gradientUnits="userSpaceOnUse" x1="64" y1="-116.25" x2="64" y2="-11.75" gradientTransform="matrix(1 0 0 1 0 128)">
	<stop  offset="0" style="stop-color:#FFFFFF"/>
	<stop  offset="0.529" style="stop-color:#ECECEC"/>
	<stop  offset="1" style="stop-color:#E0E0E0"/>
</linearGradient>
<rect x="7" y="11.75" style="fill:url(#SVGID_1_);" width="114" height="104.5"/>
<g>
	<polygon style="fill:#CFD8DC;" points="13.65,107.272 13.65,81.955 60.295,81.955 60.295,76.682 13.65,76.682 13.65,51.318 
		60.295,51.318 60.295,46.045 13.65,46.045 13.65,20.727 114.35,20.727 114.35,46.045 67.705,46.045 67.705,51.318 114.35,51.318 
		114.35,76.682 67.705,76.682 67.705,81.955 114.35,81.955 114.35,107.272 	"/>
	<rect id="rect3804" x="61.198" y="72.027" style="fill:#FF6E40;" width="5.653" height="13.205"/>
	<rect id="rect3802" x="61.198" y="41.39" style="fill:#FF6E40;" width="5.653" height="13.205"/>
	
		<linearGradient id="rect3000_1_" gradientUnits="userSpaceOnUse" x1="63.9995" y1="-45.142" x2="63.9995" y2="-21.582" gradientTransform="matrix(1 0 0 1 0 128)">
		<stop  offset="0" style="stop-color:#4FC3F7"/>
		<stop  offset="0.1101" style="stop-color:#3EBDF6"/>
		<stop  offset="0.3181" style="stop-color:#24B4F5"/>
		<stop  offset="0.5326" style="stop-color:#12AEF5"/>
		<stop  offset="0.7555" style="stop-color:#07AAF4"/>
		<stop  offset="1" style="stop-color:#03A9F4"/>
	</linearGradient>
	<rect id="rect3000" x="14.552" y="82.858" style="fill:url(#rect3000_1_);" width="98.895" height="23.56"/>
	
		<linearGradient id="rect2998_1_" gradientUnits="userSpaceOnUse" x1="63.9995" y1="-52.22" x2="63.9995" y2="-75.78" gradientTransform="matrix(1 0 0 1 0 128)">
		<stop  offset="0" style="stop-color:#E64A19"/>
		<stop  offset="0.2192" style="stop-color:#F04F1D"/>
		<stop  offset="0.5912" style="stop-color:#FB5521"/>
		<stop  offset="1" style="stop-color:#FF5722"/>
	</linearGradient>
	<rect id="rect2998" x="14.552" y="52.22" style="fill:url(#rect2998_1_);" width="98.895" height="23.56"/>
	
		<linearGradient id="rect2992_1_" gradientUnits="userSpaceOnUse" x1="63.9995" y1="-106.37" x2="63.9995" y2="-82.81" gradientTransform="matrix(1 0 0 1 0 128)">
		<stop  offset="0" style="stop-color:#4FC3F7"/>
		<stop  offset="0.1101" style="stop-color:#3EBDF6"/>
		<stop  offset="0.3181" style="stop-color:#24B4F5"/>
		<stop  offset="0.5326" style="stop-color:#12AEF5"/>
		<stop  offset="0.7555" style="stop-color:#07AAF4"/>
		<stop  offset="1" style="stop-color:#03A9F4"/>
	</linearGradient>
	<rect id="rect2992" x="14.552" y="21.63" style="fill:url(#rect2992_1_);" width="98.895" height="23.56"/>
	<rect id="rect3806" x="21.63" y="28.66" style="fill:#BBDEFB;" width="49.447" height="9.405"/>
	
		<path id="path3808" sodipodi:cx="-7" sodipodi:ry="2" sodipodi:cy="17" sodipodi:type="arc" sodipodi:rx="2" style="fill:#BBDEFB;" d="
		M89.887,33.41c0,2.613-2.09,4.702-4.702,4.702s-4.702-2.09-4.702-4.702s2.09-4.702,4.702-4.702
		C87.798,28.66,89.887,30.798,89.887,33.41z"/>
	
		<path id="path3810" sodipodi:cx="-7" sodipodi:ry="2" sodipodi:cy="17" sodipodi:type="arc" sodipodi:rx="2" style="fill:#BBDEFB;" d="
		M106.37,33.41c0,2.613-2.09,4.702-4.702,4.702s-4.702-2.09-4.702-4.702s2.09-4.702,4.702-4.702
		C104.28,28.66,106.37,30.798,106.37,33.41z"/>
	<rect id="rect3812" x="21.63" y="89.888" style="fill:#BBDEFB;" width="49.447" height="9.405"/>
	
		<path id="path3814" sodipodi:cx="-7" sodipodi:ry="2" sodipodi:cy="17" sodipodi:type="arc" sodipodi:rx="2" style="fill:#BBDEFB;" d="
		M89.887,94.59c0,2.612-2.09,4.702-4.702,4.702s-4.702-2.09-4.702-4.702s2.09-4.702,4.702-4.702
		C87.798,89.888,89.887,92.025,89.887,94.59z"/>
	
		<path id="path3816" sodipodi:cx="-7" sodipodi:ry="2" sodipodi:cy="17" sodipodi:type="arc" sodipodi:rx="2" style="fill:#BBDEFB;" d="
		M106.37,94.59c0,2.612-2.09,4.702-4.702,4.702s-4.702-2.09-4.702-4.702s2.09-4.702,4.702-4.702S106.37,92.025,106.37,94.59z"/>
	<rect id="rect3818" x="21.63" y="59.298" style="fill:#FF8A65;" width="49.447" height="9.405"/>
	
		<path id="path3820" sodipodi:cx="-7" sodipodi:ry="2" sodipodi:cy="17" sodipodi:type="arc" sodipodi:rx="2" style="fill:#FF8A65;" d="
		M89.887,64c0,2.612-2.09,4.702-4.702,4.702s-4.702-2.09-4.702-4.702c0-2.613,2.09-4.702,4.702-4.702
		C87.798,59.298,89.887,61.387,89.887,64z"/>
	
		<path id="path3822" sodipodi:cx="-7" sodipodi:ry="2" sodipodi:cy="17" sodipodi:type="arc" sodipodi:rx="2" style="fill:#FF8A65;" d="
		M106.37,64c0,2.612-2.09,4.702-4.702,4.702s-4.702-2.09-4.702-4.702c0-2.613,2.09-4.702,4.702-4.702S106.37,61.387,106.37,64z"/>
	<rect x="21.63" y="29.563" style="fill:#F5F5F5;" width="49.447" height="8.503"/>
	<path style="fill:#F5F5F5;" d="M85.185,29.563c-2.47,0-4.465,1.852-4.702,4.275c0.237,2.375,2.232,4.275,4.702,4.275
		s4.465-1.853,4.702-4.275C89.65,31.462,87.655,29.563,85.185,29.563z"/>
	<path style="fill:#F5F5F5;" d="M101.667,29.563c-2.47,0-4.465,1.852-4.702,4.275c0.237,2.375,2.232,4.275,4.702,4.275
		s4.465-1.853,4.702-4.275C106.132,31.462,104.137,29.563,101.667,29.563z"/>
	<rect x="21.63" y="60.2" style="fill:#F5F5F5;" width="49.447" height="8.502"/>
	<path style="fill:#F5F5F5;" d="M85.185,60.2c-2.47,0-4.465,1.853-4.702,4.275c0.237,2.375,2.232,4.275,4.702,4.275
		s4.465-1.853,4.702-4.275C89.65,62.053,87.655,60.2,85.185,60.2z"/>
	<path style="fill:#F5F5F5;" d="M101.667,60.2c-2.47,0-4.465,1.853-4.702,4.275c0.237,2.375,2.232,4.275,4.702,4.275
		s4.465-1.853,4.702-4.275C106.132,62.053,104.137,60.2,101.667,60.2z"/>
	<rect x="21.63" y="90.79" style="fill:#F5F5F5;" width="49.447" height="8.502"/>
	<path style="fill:#F5F5F5;" d="M85.185,90.79c-2.47,0-4.465,1.852-4.702,4.275c0.237,2.375,2.232,4.275,4.702,4.275
		s4.465-1.853,4.702-4.275C89.65,92.69,87.655,90.79,85.185,90.79z"/>
	<path style="fill:#F5F5F5;" d="M101.667,90.79c-2.47,0-4.465,1.852-4.702,4.275c0.237,2.375,2.232,4.275,4.702,4.275
		s4.465-1.853,4.702-4.275C106.132,92.69,104.137,90.79,101.667,90.79z"/>
</g>
</svg>
