<?xml version="1.0" encoding="utf-8"?>
<!-- Generator: Adobe Illustrator 21.0.0, SVG Export Plug-In . SVG Version: 6.00 Build 0)  -->
<svg version="1.1" id="图层_39" xmlns="http://www.w3.org/2000/svg" xmlns:xlink="http://www.w3.org/1999/xlink" x="0px" y="0px"
	 viewBox="0 0 128 128" style="enable-background:new 0 0 128 128;" xml:space="preserve">
<style type="text/css">
	.st0{opacity:0.1;enable-background:new    ;}
	.st1{opacity:0.08;enable-background:new    ;}
	.st2{opacity:0.2;enable-background:new    ;}
	.st3{fill:#F57F17;}
	.st4{fill:url(#SVGID_1_);}
	.st5{fill:url(#rect2990_1_);}
	.st6{opacity:0.25;fill:#FDEFBA;enable-background:new    ;}
	.st7{opacity:0.1;fill:#E65100;enable-background:new    ;}
	.st8{opacity:0.05;fill:#E65100;enable-background:new    ;}
	.st9{fill:#F57F17;fill-opacity:0.39;}
</style>
<title>network128</title>
<g id="_128">
	<polygon class="st0" points="6,119 6,36 13,36 13,13 41.5,13 49.5,21 118,21 118,36 126,36 126,119 	"/>
	<polygon class="st1" points="4,121 4,34 11,34 11,11 41.5,11 49.5,19 120,19 120,34 128,34 128,121 	"/>
	<polygon class="st2" points="4,117 4,34 11,34 11,11 39.5,11 47.5,19 116,19 116,34 124,34 124,117 	"/>
	<polygon class="st3" points="6,115 6,36 13,36 13,13 39,13 47,21 114,21 114,36 122,36 122,115 	"/>
	
		<linearGradient id="SVGID_1_" gradientUnits="userSpaceOnUse" x1="-879.75" y1="189.05" x2="-879.75" y2="174.5" gradientTransform="matrix(2 0 0 2 1823 -335)">
		<stop  offset="0" style="stop-color:#F57C00"/>
		<stop  offset="0.16" style="stop-color:#F58F09"/>
		<stop  offset="0.36" style="stop-color:#F59D11"/>
		<stop  offset="0.6" style="stop-color:#F5A515"/>
		<stop  offset="0.99" style="stop-color:#F5A816"/>
	</linearGradient>
	<path class="st4" d="M113,22H46.5l-8-8H14v25c0,2.1,2.3,4.1,4.3,4.1h91.2c2,0,3.5,0,3.5-2.1V22z"/>
	
		<linearGradient id="rect2990_1_" gradientUnits="userSpaceOnUse" x1="-879.5" y1="186" x2="-879.5" y2="224.5" gradientTransform="matrix(2 0 0 2 1823 -335)">
		<stop  offset="0" style="stop-color:#FADD60"/>
		<stop  offset="0.99" style="stop-color:#F5A816"/>
	</linearGradient>
	<rect id="rect2990" x="7" y="37" class="st5" width="114" height="77"/>
	<path id="rect3004" class="st6" d="M7,37v15c0-5.1,3.8-9,8-9h98c4.2,0,8,3.9,8,9V37H7z"/>
	<path id="path3801" class="st7" d="M14,14v10c0-3.8,1.2-6,3-6h20c2.3-0.2,4.5,0.4,6.4,1.7c0.9,0.5,2,1.5,3.1,2.3l-8-8H14z"/>
	<polygon class="st7" points="46.5,22 113,22 113,28 52.5,28 	"/>
	<rect x="14" y="33" class="st8" width="99" height="4"/>
</g>
<g id="网络">
	<path class="st9" d="M44.4,54.4c0.4,0.2,0.7,0.5,0.9,0.9c0.2,0.3,0.5,0.5,0.9,0.5h1l1.4-0.4l-0.3,0.8c0,0-7.3,3.4-5.8,5.4
		s1,2.5,1,3.2s0.4,0.1,0.4,0.1l0.4-1.2l0.6-0.9l0.6-1l0.2-0.5l0.9-1.5l1-0.6l1,0.6c0,0,0.4,0.2,0.3,0.5s-0.2,1-0.2,1
		s0.2,0.4,0.5,0.4c0.3-0.1,0.6-0.2,0.9-0.3l0.4,0.8l0.3,1.4l0.9,0.9l0.4,1l-0.4,0.9l0.4,0.3l1,1.1l0.2,0.5l-1.6-0.1
		c0,0-0.2-0.4-0.5-0.4s-1.7-0.1-1.7-0.1l-0.8,0.2l-0.4,0.5c0,0-0.5,0.9-0.9,0.9s-0.8-0.1-1.1-0.2c-0.4-0.1-0.8,0.1-1,0.4
		c-0.3,0.6,0.5,1,0.5,1l-1.5,0.4L43.9,71c0,0-1,0.4-1,0.8v0.3L42.5,73v0.5l-0.8,0.6L41,74.7l-0.3,0.6v1.1c-0.1,0.3-0.1,0.6-0.1,0.9
		v1.1c0,0-0.3,0.3-0.5-0.3l-0.2-0.6l-0.3-0.8c0,0,0.3-0.1-0.1-0.4c-0.3-0.2-0.6-0.3-0.9-0.4c-0.2-0.1-0.4-0.2-0.6-0.2
		c-0.4,0,0.5,0.1-0.4,0l-1-0.1L35.7,76v0.5c0,0-0.2,3.8,0.9,4.3H37l0.6-1l0.5,0.2v0.4L38,81.2v0.4l0.5,0.5l0.3,1
		c0.4,0.8,0.2,1,0.5,1.2s0.5,0.5,0.6,0.8l0.4,0.2c0,0,0.3,0.1,0.6,0.2l0.3,0.1l0.1,0.5l0.1,0.4L42,87h1.2c0,0,0,0.2,0.5,0.4
		s0.1,0.1,0.5,0.2s1.2,0.2,1.2,0.2l0.8-0.1l0.5,0.8c0.2,0,0.4,0.1,0.4,0.3c0.1,0.3-0.5,0,0.1,0.3s0,0.1,0.6,0.3s-0.2,0.2,0.6,0.2
		c0.4,0,0.9,0,1.3,0.1c0.3,0.1,0.5,0.9,0.5,0.9l0.6,0.8l0.1,1c0,0-0.3,0.2,0.4,0.2h0.8c0.6,0-0.1-0.2,0.5,0l0.6,0.2
		c0,0,1,0.8,1.3,0.8c0.4,0,0.9,0,1.3,0c0.3,0.1,0.5,0.6,1.1,0.8s0.9,0,1.3,0.3l0.4,0.3l0.2,1.1l-0.3,0.6L57.6,97l-0.1,1.1l-0.4,1.1
		v0.5c0,0,0.5,0.4-0.4,0.5l-1,0.1l-0.4,0.4c0,0.2-0.1,0.3-0.2,0.4c-0.2,0.3-0.4,0.9-0.4,0.9l0.1,1v0.6l-0.3,0.5c0,0-0.3,0.2,0.5,0.7
		s1.5,0.5,1.7,0.9c0.2,0.3,0.4,0.5,0.7,0.6l-1.2-0.2l-0.7-0.2l-1.2-0.3l-2.3-1.2c0,0-3.5-2.8-4.5-5.1c-0.6-0.9-1.5-1.5-2.4-1.9
		c0,0-3.8-3.4-4.1-4.3l-0.1-0.6v-0.3L40.8,92v-0.4l-0.1-0.2v-1.1v-0.7v-0.4v-0.3l-0.2-0.2l-0.2-0.5v-0.1l0.6-0.5l-0.2-0.4l0.1-0.2
		l0.3-0.2c0.1-0.1,0.1-0.2,0.2-0.3c0-0.1-0.3-0.3-0.3-0.3V86l-0.2,0.4h-0.2l-0.2-0.1L40.3,86H40l-0.2-0.1c0,0-0.3-0.2-0.3-0.3
		c-0.1-0.1-0.1-0.2-0.2-0.3L39,85.1c-0.1-0.2-0.2-0.3-0.3-0.5c0-0.1-0.1-0.2-0.1-0.3c-0.1-0.1-0.2-0.3-0.3-0.4
		c0-0.1-0.1-0.3-0.2-0.4h-0.2l-0.5-0.2L37,82.9l-0.4-0.4c-0.1-0.1-0.1-0.3-0.2-0.4c0-0.1-0.1-0.2-0.1-0.2H36l-0.3-0.3l-0.9-1.2
		l-0.2-0.5l-0.2-0.6l-0.1-1v-0.6L34,73.2C34.1,73.2,35.4,62.2,44.4,54.4z"/>
	<path class="st9" d="M78.2,50.6l1,0.8l0.5,0.2L80,52l0.1,0.4c0,0.2,0,0.3,0,0.5S80,53.3,80,53.5c0.2,0.3,0.3,0.6,0.4,0.9
		c0,0.1,0,0.5,0,0.6s-0.6,0.4-0.7,0.2s-0.4-0.5-0.5-0.5c-0.1-0.1-0.3-0.2-0.4-0.3l0.8-0.1l-0.1-0.5c-0.2-0.1-0.4-0.1-0.7-0.2
		c-0.2,0-0.7-0.3-0.7-0.3l-0.6-0.1c0,0-1-0.2-1.1-0.3s-0.5-0.2-0.5-0.2h-0.8c-0.2,0.1-0.3,0.2-0.5,0.3c0,0.1-0.5,0.6-0.5,0.6
		s0,0.6,0,0.7c0,0.2-0.1,0.5-0.1,0.7c0,0.3-0.1,0.7-0.1,0.8V56l-0.1,0.4l-0.3,0.2L73.1,57c0,0-0.4,0.3-0.4,0.4c0,0.3,0,0.5,0.1,0.8
		s0.1,0.6,0.3,0.7s0.3,0.3,0.4,0.4s0,0.1,0.3,0.1s0.4,0,0.5,0s0.3,0,0.4-0.2s-0.1,0,0.1-0.1s0.2-0.2,0.3,0c0.2,0.1,0.3,0.3,0.4,0.4
		c0.1,0.2,0.2,0.3,0.3,0.5c0.2,0.1,0.3,0.5,0.3,0.5l0.3,0.3c0,0,0,0,0.2,0s0.3,0,0.5,0l0.1-0.2h0.2c0-0.1,0-0.2,0-0.2
		c0-0.1-0.1-0.3-0.2-0.4L77,59.7l0.1-0.3l0.2-0.2l0.1-0.2v-0.3l-0.2-0.1L77.1,58c0,0-0.2,0-0.2-0.2l-0.1-0.2l-0.4-0.1l-0.3-0.2
		l0.3-0.2c0.2-0.3,0.2-0.4,0.2-0.5s0-0.4,0-0.4c-0.1,0-0.2-0.2-0.2-0.3s0-0.3,0-0.4v-0.2c0-0.1,0.1-0.1,0.2-0.2
		c0.1,0,0.3,0.2,0.4,0.2s0.2,0,0.3,0c0.1,0,0.1,0.1,0.1,0.2c0,0.1,0,0.2,0,0.3l0.2-0.3V56v0.4v0.4l0.2,0.4l0.2,0.3l0.3,0.3
		c0.1,0.1,0.2,0.2,0.3,0.2l0.3,0.1h0.2l0.2-0.2h0.3v-0.1h0.5h0.3c0,0,0.1,0.3,0,0.3s-0.2,0.1-0.4,0.2s-0.3,0-0.4,0.1l-0.2,0.3h0.2
		h0.2L80,59c0,0,0,0,0,0.2s0.2,0.1-0.1,0.1c-0.1,0.1-0.3,0.1-0.4,0c0,0,0-0.2-0.2-0.1c-0.1,0.1-0.1,0.2-0.2,0.3v0.3l0.2,0.5
		c0,0,0.1,0.1,0,0.2c-0.2,0.1-0.3,0.3-0.4,0.4c0,0.1-0.1,0.1-0.2,0.1c-0.2,0-0.3,0-0.5,0l-0.4,0.1c-0.2,0-0.3,0.1-0.6,0.1
		c-0.3,0-0.7,0-1,0c-0.1,0-0.2,0-0.3,0c-0.1,0,0,0-0.2-0.2s-0.3-0.3-0.3-0.5c0-0.1,0-0.2-0.1-0.3c0-0.2,0-0.3-0.2-0.3H75
		c0,0-0.4,0.3-0.3,0.4s0,0,0.3,0.2c0.2,0.1,0.3,0.3,0.4,0.6v0.3l-0.6,0.3L74.3,62v0.3c0,0.1,0,0.2-0.1,0.2c-0.1,0.1-0.2,0.2-0.3,0.3
		c0,0-0.2,0-0.2,0.2s-0.2,0.5-0.2,0.5c-0.1,0-0.3,0-0.4,0.1c-0.2,0.1,0.1,0.1-0.4,0.3l-0.4,0.2h-0.5l-0.3,0.1c0,0-0.4,0-0.4,0.2
		c-0.1,0.1-0.1,0.3-0.2,0.4c0,0-0.1,0.2,0,0.2s0.2,0,0.5,0c0.1,0,0.3,0.1,0.4,0.1s0.2,0.1,0.3,0.2l0.5,0.5l0.3,0.6l-0.1,0.5
		l-0.6,0.2h-1.9c-0.1,0-0.5-0.1-0.5-0.1l-0.3,0.1l-0.2,0.2l-0.1,0.1c0.1,0.2,0.1,0.4,0.2,0.6v0.3l-0.1,0.3l-0.1,0.3L69,69.2l0.1,0.2
		c0,0-0.1,0.1,0,0.1s0.4,0,0.4,0.1c-0.1,0.2-0.1,0.3-0.2,0.5l0.5,0.1c0,0,0,0,0.2,0.1c0.2,0,0.3,0.1,0.5,0.1l0.3,0.2l0.1,0.2
		l0.1-0.2c0.2,0,0.4,0,0.6-0.1c0.1,0,0.2,0,0.3,0h0.4c0.1,0,0.2,0,0.2-0.1v-0.1c0.2-0.1,0.4-0.2,0.6-0.3c0.1,0,0.2-0.3,0.2-0.3
		s0.2-0.1,0.2-0.2s-0.1-0.2-0.1-0.3V69l0.1-0.2l0.2-0.2l0.1-0.1c0,0-0.1,0,0.2-0.1s0.3-0.2,0.4-0.2s-0.1,0.1,0.1,0s0.2-0.2,0.2-0.3
		s0.1-0.6,0.1-0.6L75,67h0.5l0.2,0.1c0,0,0.3,0,0.3-0.1s0.1-0.1,0.2-0.2l0.4-0.2c0,0,0,0,0.1,0h1c0.1,0,0.2,0.1,0.3,0.2
		c0,0.1,0.2,0.3,0.2,0.3l0.1,0.2h0.2c0.2,0.2,0.4,0.3,0.6,0.3c0.3,0.1,0.6,0.2,0.6,0.2c0,0.1,0.1,0.2,0.2,0.3
		c0.1,0.1,0.2,0.2,0.3,0.3c0.1,0,0.2,0.1,0.2,0.2c0.1,0.1,0.1,0.2,0.2,0.3l0.2,0.2l0.1-0.2v-0.3v-0.2c0,0-0.2-0.2,0-0.2h0.3L81,67.9
		l-0.2-0.1l-0.3-0.2l-0.2-0.1H80l-0.1-0.1l-0.2-0.1c0,0-0.3-0.1-0.3-0.2V67H79c0,0-0.3-0.2-0.3-0.3s0-0.4,0-0.4h-0.3
		c0-0.1,0-0.2,0-0.3c0-0.1,0-0.2,0.1-0.2h0.6l0.1,0.3l0.2,0.1l0.3,0.1l0.1,0.2l0.2,0.1c0.1,0,0.2,0.1,0.2,0.1l0.3,0.1
		c0,0,0.2,0.2,0.3,0.2s0.2,0.1,0.3,0.1L81,67.2c0,0.1,0.1,0.2,0.2,0.2c0.1,0.1,0.2,0.2,0.3,0.4c0,0.2,0.1,0.3,0.2,0.5
		c0.1,0,0.2,0.1,0.3,0.2c0.2,0.2,0.2,0.4,0.3,0.5s0.3,0,0.3,0.2c0,0.1,0,0.2,0,0.3c0.1,0,0.2,0,0.3,0.1c0.1,0,0.3-0.2,0.3-0.2
		s0.2-0.3,0-0.3s-0.3,0-0.3-0.1v-1l0.1-0.3l0.2-0.3l0.3,0.1l0.3-0.2l0.3,0.3l0.1,0.4c0,0.2,0.1,0.3,0.2,0.4c0.1,0.2,0.2,0.3,0.3,0.4
		l0.5,0.4l0.7,0.2H86l1-0.2h0.2c0.1,0,0.6,0.8,0.6,0.8v1.2c0,0-0.3,0.3-0.5,0.3s-0.4,0.1-0.5,0.2L86.1,72h-0.5l-1-0.1h-1.1H83
		c-0.1,0-0.2,0.1-0.3,0.4c0,0.2-0.1,0.3-0.3,0.4c0,0,0,0.1-0.2,0.1s-0.2,0.1-0.3,0c-0.3-0.1-0.5-0.2-0.8-0.2L80.5,72l-0.3-0.3h-0.3
		h-1l-0.6-0.1l0.1-1l0.1,0.3l-0.2-0.7L78,70l-0.7-0.1h-0.4L76.3,70l-0.6,0.2l-0.3,0.1l-1.6,0.3l-0.6,0.2L72.9,71c-0.2,0-0.3,0-0.5,0
		c-0.1,0-0.3-0.1-0.4-0.1c-0.2,0-0.4,0-0.6,0s-0.4,0-0.5,0s-0.2,0-0.3,0.2s-0.4,0.5-0.4,0.5l-0.3,0.3c-0.1,0.1-0.2,0.3-0.3,0.4
		l-0.4,0.6L69,73.2l0.1,0.3v0.2c-0.1,0.1-0.2,0.1-0.2,0.2L68.6,74c-0.1,0-0.2,0.1-0.3,0.2c-0.1,0.1-0.1,0.2-0.2,0.2
		s-0.4,0.3-0.4,0.3c-0.1,0.1-0.2,0.2-0.3,0.3c-0.1,0.2-0.3,0.3-0.3,0.4c-0.1,0.1-0.2,0.2-0.3,0.2c-0.1,0.2-0.2,0.3-0.3,0.5L65.8,77
		l-0.2,0.8v0.4c0,0.1,0.1,0.2,0.1,0.2c0.1,0.1,0.2,0.3,0.2,0.5v0.3c0,0.1-0.1,0.3-0.2,0.4c0,0.2,0,0.4,0.1,0.6v0.3
		c0,0,0,0.1-0.2,0.2c-0.1,0.1-0.2,0.2-0.2,0.3l0.2,0.4l0.2,0.3V82l0.2,0.3l0.2,0.2c0.1,0,0.2,0.1,0.3,0.2l0.2,0.1
		c0,0,0.3,0.3,0.3,0.5s0.2,0.3,0.2,0.3l0.3,0.3c0,0.1,0.1,0.2,0.2,0.3c0.2,0.2,0.4,0.2,0.5,0.3c0.2,0.1,0.4,0.3,0.6,0.3
		c0.1,0,0.3,0.1,0.4,0.1s-0.2-0.3,0.5,0c0.4,0.2,0.7,0.3,1.1,0.5l0.5,0.2c0,0,0.8,0,0.9-0.1c0.1,0,0.2,0,0.3,0H73
		c0.2,0,0.9-0.1,0.9-0.1l0.8-0.3l0.3-0.2c0.1,0,0.4-0.2,0.5-0.3c0.2,0,0.4-0.1,0.6-0.1c0,0,0-0.1,0.2,0c0.1,0.1,0.2,0.2,0.2,0.3
		c0.1,0.1,0.1,0.3,0.2,0.3l0.5,0.1c0.2,0,0.4,0,0.6,0s0.3,0,0.5,0l0.1,0.2l0.1,0.4v0.4c0,0.1,0,0.2,0,0.3c0.1,0.1,0.1,0.3,0.2,0.4
		c-0.1,0.1-0.2,0.2-0.3,0.3c-0.1,0.1-0.2,0.2-0.3,0.3l0.7,0.6l0.4,0.4l0.3,0.3c0,0.1,0,0.2,0.1,0.2c0,0.2,0,0.3,0,0.5s0,0.3,0,0.5
		c0,0,0,0.3,0,0.4S79.5,91,79.5,91l-0.1,0.3l-0.2,0.6L79,92.6l-0.3,0.3l-0.2,0.4v0.5l-0.2,0.3c0,0.1,0,0.3,0,0.4
		c0.1,0.2,0.2,0.5,0.3,0.7l-0.1,0.4c-0.1,0.2-0.1,0.5-0.2,0.8c0,0.2-0.1,0.3-0.1,0.5s-0.1,0.5-0.1,0.5l0.1,0.5l0.2,0.5L78.1,99
		C78,99.2,78,99.4,78,99.6s0.3,0.4,0.4,0.4c0.3,0,0.5-0.1,0.7-0.2s0.7-0.3,0.8-0.3s0.2,0,0.5-0.2s0.7-0.5,0.7-0.5l0.5-0.3
		c0.1-0.1,0.6-0.6,0.6-0.6c0.2-0.2,0.4-0.3,0.6-0.5c0.2-0.1,0,0,0.2-0.2s1-0.8,1-0.8l0.8-0.8l0.8-1c0.2-0.4,0.5-0.7,0.8-1
		c0.1,0,1-0.6,1.1-0.8s0.4-1.2,0.5-1.3s0.6-1.3,0.6-1.3l0.5-1.3l0.8-2.1l0.8-1.4c0,0,0.3-0.6,0.5-0.8l0.9-1.7l0.3-1.3l0.1-1.1H92
		L91.5,81H91h-0.5l0.5-0.7l-0.1-0.5l-0.4-0.3l-0.6-0.9v-0.9l-0.6-1l-0.4-1.6c0,0-0.7-0.8-0.6-1s0.2-0.8,0.2-0.8l0.4,0.2
		c0,0,0.3,0.8,0.4,0.8s0.3,0.4,0.4,0.5s0.1,0.4,0.2,0.5l0.4,0.7c0,0,0.2,0.6,0.3,0.8c0.1,0.2,0.3,0.5,0.3,0.8s0.2,1.2,0.2,1.3
		s0.2,1.1,0.2,1.1s0.3-0.1,0.4-0.2c0-0.1,0.1-0.2,0.2-0.2c0.2-0.2,0.4-0.4,0.6-0.5l0.2-0.8c0,0,0.1-0.3,0.2-0.5s0.3-0.7,0.3-0.8
		c0-0.2,0-0.4,0-0.6c0.1-0.3,0.2-0.5,0.2-0.8c0-0.1,0-0.5,0-0.5v-0.9l0.4-0.4l0.2-0.5C93.9,73.3,92.5,58.2,78.2,50.6z"/>
</g>
</svg>
