<?xml version="1.0" encoding="utf-8"?>
<!-- Generator: Adobe Illustrator 21.0.0, SVG Export Plug-In . SVG Version: 6.00 Build 0)  -->
<svg version="1.1" id="svg2" xmlns="http://www.w3.org/2000/svg" xmlns:xlink="http://www.w3.org/1999/xlink" x="0px" y="0px"
	 viewBox="0 0 128 128" style="enable-background:new 0 0 128 128;" xml:space="preserve">
<style type="text/css">
	.st0{opacity:0.08;enable-background:new    ;}
	.st1{opacity:0.1;enable-background:new    ;}
	.st2{opacity:0.2;enable-background:new    ;}
	.st3{fill:#B2DEF0;}
	.st4{fill:none;}
	.st5{fill:none;stroke:#231815;stroke-width:0.88;}
	.st6{fill:#009FE8;}
	.st7{fill:#0091DA;}
	.st8{fill:#0062B0;}
	.st9{fill:#004380;}
</style>
<title>128</title>
<g id="_128">
	<path class="st0" d="M73,127c-2.2,0-4-1.8-4-4c0-0.8,0.2-1.6,0.7-2.3l1.3-1.9c-0.6,0.4-1.3,0.6-2,0.6l-15.7-0.3
		c-2.2,0-4-1.9-3.9-4.1c0-1.1,0.5-2.1,1.3-2.9l9.8-9.1l6.4-8.5l-2.2-1.4l-6.4,3.3L58,96.6l-11.5,4.6c-0.7,0.3-1.5,0.4-2.2,0.2
		l-7.5-1.4l-4.2,6.5l-1.9,12.9c-0.3,2-2,3.4-4,3.4h-15c-2.2,0-4-1.8-4-4c0-0.9,0.3-1.8,0.9-2.6l5.7-6.8l3.7-4.3l-2.3-5.4
		c-0.1-0.3-0.2-0.6-0.3-0.9L13,84.1L5.3,64.8c-0.5-1.1-0.4-2.4,0.3-3.5l8.3-14.1l5.9-12.3c0.3-0.7,0.8-1.3,1.5-1.7l12.4-7.8l0.5-0.3
		l13.6-13.8c1.5-1.6,4.1-1.6,5.7-0.1c0.5,0.4,0.8,1,1,1.6L61,6.1c1.3-1.4,3.4-1.6,5-0.6s2.3,2.9,1.7,4.7l-6,17.7l3.3,13
		c0.3,1.2,0.1,2.4-0.7,3.3l-7.5,10.2l11,8.1L85.9,70l4.5-2.4l7.4-3.9l8-11.8c0.5-0.8,1.3-1.3,2.2-1.6l13.8-4.3
		c1.3-0.4,2.7-0.1,3.8,0.8c1,0.9,1.6,2.2,1.4,3.6l-2.5,18.2c-0.2,1.5-1.2,2.7-2.6,3.2l-9,3.2c-0.7,0.2-1.4,0.3-2.1,0.2l-5.1-1
		L97.2,79l0.6,11.4l5.5,11.2c0.8,1.6,0.4,3.5-0.9,4.7l-10.1,9.3l0.5,7.1c0.2,2.2-1.5,4.1-3.7,4.3c-0.1,0-0.2,0-0.3,0H73z M73,115.5
		c0,0.2,0,0.4-0.1,0.6l7.5-10.9l0,0l-7.5,5.9v4.4H73z"/>
	<path class="st1" d="M73,125c-1.1,0-2-0.9-2-2c0-0.4,0.1-0.8,0.3-1.1L82.9,105l-2.2-2.7l-9.7,7.8l-0.1,5.3c0,1.1-0.9,2-2,2
		l-15.6-0.3c-1.1,0-2-0.9-2-2c0-0.6,0.3-1.1,0.7-1.5l10-9.2l7.8-10.3l-4.9-3.3l-7.4,3.8l-0.2,0.1l-11.5,4.6
		c-0.3,0.1-0.7,0.2-1.1,0.1L36,97.8l-5.1,8l-2,13.3c-0.1,1-1,1.7-2,1.7H11.7c-1.1,0-2-0.9-2-2c0-0.5,0.2-0.9,0.5-1.3l5.7-6.8
		l4.5-5.3L17.5,99c-0.1-0.1-0.1-0.3-0.1-0.5l-2.4-15L7.1,64.1c-0.2-0.6-0.2-1.2,0.1-1.8l8.3-14.2l5.9-12.4c0.2-0.3,0.4-0.6,0.7-0.8
		l12.3-7.8l0.8-0.4l13.8-14c0.7-0.8,2-0.9,2.8-0.2c0.7,0.6,0.9,1.6,0.5,2.4l-1.9,4.6l11.8-12c0.8-0.8,2-0.8,2.8,0
		c0.5,0.5,0.7,1.3,0.5,2l-6.2,18.3l3.4,13.6c0.1,0.6,0,1.2-0.3,1.7l-8.6,11.8l12.8,9.4L86,72.2l5.3-2.9l7.8-4.2l8.3-12.2
		c0.3-0.4,0.6-0.7,1.1-0.8l13.8-4.3c1-0.4,2.2,0.2,2.5,1.3c0.1,0.3,0.1,0.6,0.1,0.9l-2.5,18.2c-0.1,0.7-0.6,1.4-1.3,1.6l-9,3.2
		c-0.3,0.1-0.7,0.2-1.1,0.1l-5.9-1.2L95,77.7l0.7,13l5.7,11.6c0.4,0.8,0.2,1.8-0.4,2.3l-10.8,10l0.6,8.1c0.1,1.1-0.7,2.1-1.8,2.1
		c-0.1,0-0.1,0-0.2,0L73,125z"/>
	<path class="st2" d="M71,123c-1.1,0-2-0.9-2-2c0-0.4,0.1-0.8,0.3-1.1L80.9,103l-2.2-2.7l-9.7,7.8l-0.1,5.3c0,1.1-0.9,2-2,2
		l-15.6-0.3c-1.1,0-2-0.9-2-2c0-0.6,0.3-1.1,0.7-1.5l10-9.2l7.8-10.3l-4.9-3.3l-7.4,3.8l-0.2,0.1l-11.5,4.6
		c-0.3,0.1-0.7,0.2-1.1,0.1L34,95.8l-5.1,8l-2,13.3c-0.1,1-1,1.7-2,1.7H9.7c-1.1,0-2-0.9-2-2c0-0.5,0.2-0.9,0.5-1.3l5.7-6.8l4.5-5.3
		L15.6,97c-0.1-0.1-0.1-0.3-0.1-0.5l-2.4-15l-8-19.4c-0.2-0.6-0.2-1.2,0.1-1.8l8.3-14.2l5.9-12.4c0.2-0.3,0.4-0.6,0.7-0.8l12.3-7.8
		l0.8-0.4l13.8-14c0.7-0.8,2-0.9,2.8-0.2c0.7,0.6,0.9,1.6,0.5,2.4l-1.9,4.6l11.8-12c0.8-0.8,2-0.8,2.8,0c0.5,0.5,0.7,1.3,0.5,2
		l-6.2,18.3l3.4,13.6c0.1,0.6,0,1.2-0.3,1.7l-8.6,11.8l12.8,9.4L84,70.2l5.3-2.9l7.8-4.2l8.3-12.2c0.3-0.4,0.6-0.7,1.1-0.8l13.8-4.3
		c1-0.4,2.2,0.2,2.5,1.3c0.1,0.3,0.1,0.6,0.1,0.9l-2.5,18.2c-0.1,0.7-0.6,1.4-1.3,1.6l-9,3.2c-0.3,0.1-0.7,0.2-1.1,0.1l-5.9-1.2
		L93,75.7l0.7,13l5.7,11.6c0.4,0.8,0.2,1.8-0.4,2.3l-10.8,10l0.6,8.1c0.1,1.1-0.7,2.1-1.8,2.1c-0.1,0-0.1,0-0.2,0L71,123z"/>
	<g id="_128-2">
		<polygon class="st3" points="42.5,69.3 36.4,52.8 20.8,64.9 31,66.3 		"/>
		<polygon class="st4" points="67.1,107.1 67.1,107 67,107 		"/>
		<polygon class="st5" points="63.9,76.5 64.5,76.8 64.5,76.4 		"/>
		<polygon class="st6" points="64.5,76.8 79.7,83.2 84.1,72.4 63.9,76.5 		"/>
		<polygon class="st3" points="39.9,81.9 63.9,76.5 42.5,69.3 		"/>
		<polygon class="st6" points="20.8,64.9 23.8,85.5 31,66.3 		"/>
		<polygon class="st7" points="31,66.3 23.8,85.5 42.5,69.3 		"/>
		<polygon class="st6" points="23.8,85.5 39.9,81.9 42.5,69.3 		"/>
		<polygon class="st5" points="40,33.7 40.1,33.8 40.1,33.7 		"/>
		<polygon class="st8" points="36.4,52.8 49.1,53.4 49.4,44.6 		"/>
		<polygon class="st7" points="63.7,64.1 49.1,53.4 42.5,69.3 		"/>
		<polygon class="st5" points="40.1,33.6 40,33.7 40.1,33.7 		"/>
		<polygon class="st6" points="42.5,69.3 49.1,53.4 36.4,52.8 		"/>
		<polygon class="st8" points="66.9,113.4 67,107 67,107 61.4,103.8 		"/>
		<polygon class="st9" points="51.3,113.1 66.9,113.4 61.4,103.8 		"/>
		<polygon class="st9" points="61.4,103.8 67,107 67.1,107 71.2,92 		"/>
		<polygon class="st8" points="86.1,112 97.6,101.3 83.3,102.9 		"/>
		<polygon class="st9" points="70.9,121 86.8,121 86.1,112 76,114.3 86.4,120.3 76,114.3 86.1,112 83.3,102.9 		"/>
		<polygon class="st8" points="67.1,107 78.9,97.5 71.2,92 		"/>
		<polygon class="st9" points="97.6,101.3 91.8,89.4 83.3,102.9 		"/>
		<polygon class="st9" points="9.7,116.9 24.9,116.9 15.4,110.2 		"/>
		<polygon class="st7" points="61.7,7 46.7,22.3 54.2,19.4 		"/>
		<polygon class="st7" points="48.5,12.1 33.5,27.4 43.1,21.6 		"/>
		<polygon class="st7" points="79,97.5 83.3,102.9 91.8,89.4 71.2,92 		"/>
		<polygon class="st6" points="54.2,19.4 46.7,22.3 55.3,25.8 		"/>
		<polygon class="st3" points="44.6,21.9 48.5,12.2 43,21.6 		"/>
		<polygon class="st3" points="55.3,25.8 61.7,7 54.2,19.4 		"/>
		<polygon class="st7" points="20.6,103.9 15.4,110.2 26.9,103.1 17.4,96.2 		"/>
		<polygon class="st6" points="21,50.1 20.8,64.9 36.4,52.8 		"/>
		<polygon class="st8" points="24.9,116.9 26.9,103.1 15.4,110.2 		"/>
		<polygon class="st8" points="91.8,89.4 91,74.7 79.7,83.2 		"/>
		<polygon class="st6" points="71.2,92 91.8,89.4 79.7,83.2 		"/>
		<polygon class="st7" points="79.7,83.2 91,74.7 84.1,72.4 		"/>
		<polygon class="st7" points="91,74.7 102.8,67.9 98.5,64.7 		"/>
		<polygon class="st8" points="62.9,86.5 71.2,92 79.7,83.2 		"/>
		<polygon class="st6" points="90.2,69 84.1,72.4 91,74.7 98.5,64.7 		"/>
		<polygon class="st9" points="54.5,90.9 62.9,86.5 39.9,81.9 		"/>
		<polygon class="st7" points="63.9,76.5 62.9,86.5 79.7,83.2 		"/>
		<polygon class="st8" points="63.9,76.5 39.9,81.9 62.9,86.5 		"/>
		<polygon class="st3" points="112.4,58.5 120.9,47.8 107.1,52 112.3,58.7 		"/>
		<polygon class="st7" points="109.5,69.2 118.4,66 112.3,58.7 		"/>
		<polygon class="st8" points="112.3,58.7 102.7,67.9 109.4,69.2 		"/>
		<polygon class="st6" points="98.5,64.7 102.8,68 107.1,52 		"/>
		<polygon class="st6" points="112.3,58.7 112.3,58.7 118.4,66 121,47.8 		"/>
		<polygon class="st7" points="107.1,52 102.7,67.9 112.3,58.7 		"/>
		<polygon class="st7" points="43,95.4 54.5,90.9 39.9,81.9 		"/>
		<polygon class="st7" points="36.4,52.8 21.3,34.7 21,50.1 		"/>
		<polygon class="st7" points="33.5,27 21.3,34.7 34.8,38 		"/>
		<polygon class="st6" points="34.8,38 21.3,34.7 36.4,52.8 		"/>
		<polygon class="st6" points="21,50.1 21.3,34.7 15.4,47.1 20.9,50.1 		"/>
		<polygon class="st8" points="36.4,52.8 40.1,33.8 40,33.7 33.5,27 34.8,38 		"/>
		<polygon class="st6" points="40.1,33.8 43.1,21.6 33.5,27 40,33.7 		"/>
		<polygon class="st8" points="15.4,47.1 7,61.3 20.9,50.1 		"/>
		<polygon class="st7" points="21,50.1 20.9,50.1 7,61.3 20.8,64.9 		"/>
		<polygon class="st9" points="26.9,103.1 33,93.6 23.8,85.5 		"/>
		<polygon class="st6" points="33,93.6 43,95.4 39.9,81.9 		"/>
		<polygon class="st8" points="17.4,96.2 26.9,103.1 23.8,85.5 		"/>
		<polygon class="st8" points="23.8,85.5 33,93.6 39.9,81.9 		"/>
		<polygon class="st8" points="7,61.3 14.9,81 20.8,64.9 		"/>
		<polygon class="st6" points="14.9,81 17.4,96.2 23.8,85.5 		"/>
		<polygon class="st7" points="20.8,64.9 14.9,81 23.8,85.5 		"/>
		<polygon class="st3" points="84.1,72.4 63.7,64.1 63.9,76.5 		"/>
		<polygon class="st6" points="63.9,76.5 63.9,76.5 63.7,64.1 42.5,69.3 		"/>
		<polygon class="st7" points="40.1,33.8 36.4,52.8 49.4,44.6 		"/>
		<polygon class="st6" points="40.1,33.8 49.4,44.6 58.9,40 40.1,33.7 		"/>
		<polygon class="st3" points="49.1,53.4 58.9,40 49.4,44.6 		"/>
		<polygon class="st3" points="40.1,33.8 58.9,40 55.3,25.8 		"/>
		<polygon class="st7" points="55.3,25.8 46.7,22.3 43.1,21.6 40.1,33.8 		"/>
	</g>
</g>
</svg>
