<?xml version="1.0" encoding="utf-8"?>
<!-- Generator: Adobe Illustrator 18.0.0, SVG Export Plug-In . SVG Version: 6.00 Build 0)  -->
<!DOCTYPE svg PUBLIC "-//W3C//DTD SVG 1.1//EN" "http://www.w3.org/Graphics/SVG/1.1/DTD/svg11.dtd">
<svg version="1.1" id="图层_1" xmlns="http://www.w3.org/2000/svg" xmlns:xlink="http://www.w3.org/1999/xlink" x="0px" y="0px"
	 viewBox="0 0 128 128" enable-background="new 0 0 128 128" xml:space="preserve">
<g opacity="8.000000e-002">
	<polygon fill="#040000" points="46.3,70.9 40.2,54 24.3,66.4 34.7,67.8 	"/>
	<polygon fill="#040000" points="71.3,109.7 71.3,109.6 71.2,109.7 	"/>
	<polygon fill="#040000" points="68.2,78.4 68.7,78.6 68.7,78.3 	"/>
	<polygon fill="#040000" points="68.7,78.6 84.1,85.1 88.5,74.1 68.2,78.4 	"/>
	<polygon fill="#040000" points="43.7,83.8 68.2,78.4 46.3,70.9 	"/>
	<polygon fill="#040000" points="24.3,66.4 27.4,87.5 34.7,67.8 	"/>
	<polygon fill="#040000" points="34.7,67.8 27.4,87.5 46.3,70.9 	"/>
	<polygon fill="#040000" points="27.4,87.5 43.7,83.8 46.3,70.9 	"/>
	<polygon fill="#040000" points="43.8,34.3 43.9,34.4 43.9,34.3 	"/>
	<polygon fill="#040000" points="40.2,54 53.1,54.5 53.4,45.6 	"/>
	<polygon fill="#040000" points="67.9,65.6 53.1,54.5 46.3,70.9 	"/>
	<polygon fill="#040000" points="44,34.2 43.8,34.3 43.9,34.3 	"/>
	<polygon fill="#040000" points="46.3,70.9 53.1,54.5 40.2,54 	"/>
	<polygon fill="#040000" points="71.1,116.2 71.2,109.7 71.2,109.7 65.6,106.3 	"/>
	<polygon fill="#040000" points="55.4,116 71.1,116.2 65.6,106.3 	"/>
	<polygon fill="#040000" points="65.6,106.3 71.2,109.7 71.3,109.6 75.5,94.2 	"/>
	<polygon fill="#040000" points="90.6,114.8 102.3,103.8 87.8,105.5 	"/>
	<polygon fill="#040000" points="75.2,124 91.4,124 90.6,114.8 80.4,117.3 91,123.3 80.4,117.3 90.6,114.8 87.8,105.5 	"/>
	<polygon fill="#040000" points="71.3,109.6 83.2,99.9 75.5,94.2 	"/>
	<polygon fill="#040000" points="102.3,103.8 96.3,91.5 87.8,105.5 	"/>
	<polygon fill="#040000" points="13.1,119.8 28.5,119.8 18.9,112.9 	"/>
	<polygon fill="#040000" points="65.8,7 50.6,22.6 58.2,19.7 	"/>
	<polygon fill="#040000" points="52.5,12.3 37.2,28 46.9,22 	"/>
	<polygon fill="#040000" points="83.4,99.9 87.8,105.5 96.3,91.5 75.5,94.2 	"/>
	<polygon fill="#040000" points="58.2,19.7 50.6,22.6 59.4,26.3 	"/>
	<polygon fill="#040000" points="48.5,22.3 52.5,12.4 46.9,22 	"/>
	<polygon fill="#040000" points="59.4,26.3 65.8,7 58.2,19.7 	"/>
	<polygon fill="#040000" points="24.1,106.4 18.9,112.9 30.5,105.7 20.9,98.5 	"/>
	<polygon fill="#040000" points="24.6,51.2 24.3,66.4 40.2,54 	"/>
	<polygon fill="#040000" points="28.5,119.8 30.5,105.7 18.9,112.9 	"/>
	<polygon fill="#040000" points="96.3,91.5 95.6,76.6 84.1,85.1 	"/>
	<polygon fill="#040000" points="75.5,94.2 96.3,91.5 84.1,85.1 	"/>
	<polygon fill="#040000" points="84.1,85.1 95.6,76.6 88.5,74.1 	"/>
	<polygon fill="#040000" points="95.6,76.6 107.6,69.6 103.2,66.2 	"/>
	<polygon fill="#040000" points="67.1,88.6 75.5,94.2 84.1,85.1 	"/>
	<polygon fill="#040000" points="94.7,70.7 88.5,74.1 95.6,76.6 103.2,66.2 	"/>
	<polygon fill="#040000" points="58.5,93.1 67.1,88.6 43.7,83.8 	"/>
	<polygon fill="#040000" points="68.2,78.4 67.1,88.6 84.1,85.1 	"/>
	<polygon fill="#040000" points="68.2,78.4 43.7,83.8 67.1,88.6 	"/>
	<polygon fill="#040000" points="117.4,59.8 126,48.8 111.8,53.3 117.3,60 	"/>
	<polygon fill="#040000" points="114.3,70.8 123.3,67.6 117.3,60 	"/>
	<polygon fill="#040000" points="117.3,60 107.5,69.6 114.3,70.8 	"/>
	<polygon fill="#040000" points="103.2,66.2 107.6,69.6 111.8,53.3 	"/>
	<polygon fill="#040000" points="117.3,60 117.3,60 123.3,67.6 126,48.8 	"/>
	<polygon fill="#040000" points="111.8,53.3 107.5,69.6 117.3,60 	"/>
	<polygon fill="#040000" points="46.9,97.7 58.5,93.1 43.7,83.8 	"/>
	<polygon fill="#040000" points="40.2,54 24.8,35.3 24.6,51.2 	"/>
	<polygon fill="#040000" points="37.3,27.5 24.8,35.3 38.5,38.7 	"/>
	<polygon fill="#040000" points="38.5,38.7 24.8,35.3 40.2,54 	"/>
	<polygon fill="#040000" points="24.6,51.2 24.8,35.3 18.9,48.1 24.5,51.2 	"/>
	<polygon fill="#040000" points="40.2,54 43.9,34.4 43.8,34.3 37.3,27.5 38.5,38.7 	"/>
	<polygon fill="#040000" points="43.9,34.4 46.9,22 37.3,27.5 43.8,34.3 	"/>
	<polygon fill="#040000" points="18.9,48.1 10.3,62.8 24.5,51.2 	"/>
	<polygon fill="#040000" points="24.6,51.2 24.5,51.2 10.3,62.8 24.3,66.4 	"/>
	<polygon fill="#040000" points="30.5,105.7 36.7,95.9 27.4,87.5 	"/>
	<polygon fill="#040000" points="36.7,95.9 46.9,97.7 43.7,83.8 	"/>
	<polygon fill="#040000" points="20.9,98.5 30.5,105.7 27.4,87.5 	"/>
	<polygon fill="#040000" points="27.4,87.5 36.7,95.9 43.7,83.8 	"/>
	<polygon fill="#040000" points="10.3,62.8 18.4,82.9 24.3,66.4 	"/>
	<polygon fill="#040000" points="18.4,82.9 20.9,98.5 27.4,87.5 	"/>
	<polygon fill="#040000" points="24.3,66.4 18.4,82.9 27.4,87.5 	"/>
	<polygon fill="#040000" points="88.5,74.1 67.9,65.6 68.2,78.4 	"/>
	<polygon fill="#040000" points="68.2,78.4 68.2,78.4 67.9,65.6 46.3,70.9 	"/>
	<polygon fill="#040000" points="43.9,34.4 40.2,54 53.4,45.6 	"/>
	<polygon fill="#040000" points="43.9,34.4 53.4,45.6 63,40.8 43.9,34.3 	"/>
	<polygon fill="#040000" points="53.1,54.5 63,40.8 53.4,45.6 	"/>
	<polygon fill="#040000" points="43.9,34.4 63,40.8 59.4,26.3 	"/>
	<polygon fill="#040000" points="59.4,26.3 50.6,22.6 46.9,22 43.9,34.4 	"/>
</g>
<g opacity="0.1">
	<polygon fill="#040000" points="44.4,70 38.2,53 22.3,65.4 32.8,66.8 	"/>
	<polygon fill="#040000" points="69.4,108.7 69.4,108.6 69.3,108.7 	"/>
	<polygon fill="#040000" points="66.2,77.4 66.7,77.6 66.7,77.3 	"/>
	<polygon fill="#040000" points="66.7,77.6 82.1,84.1 86.5,73.1 66.2,77.4 	"/>
	<polygon fill="#040000" points="41.7,82.8 66.2,77.4 44.4,70 	"/>
	<polygon fill="#040000" points="22.3,65.4 25.4,86.5 32.8,66.8 	"/>
	<polygon fill="#040000" points="32.8,66.8 25.4,86.5 44.4,70 	"/>
	<polygon fill="#040000" points="25.4,86.5 41.7,82.8 44.4,70 	"/>
	<polygon fill="#040000" points="41.8,33.4 41.9,33.5 41.9,33.4 	"/>
	<polygon fill="#040000" points="38.2,53 51.1,53.5 51.4,44.6 	"/>
	<polygon fill="#040000" points="65.9,64.6 51.1,53.5 44.4,70 	"/>
	<polygon fill="#040000" points="42,33.3 41.8,33.4 41.9,33.4 	"/>
	<polygon fill="#040000" points="44.4,70 51.1,53.5 38.2,53 	"/>
	<polygon fill="#040000" points="69.2,115.2 69.3,108.7 69.3,108.7 63.6,105.4 	"/>
	<polygon fill="#040000" points="53.4,115 69.2,115.2 63.6,105.4 	"/>
	<polygon fill="#040000" points="63.6,105.4 69.3,108.7 69.4,108.6 73.5,93.3 	"/>
	<polygon fill="#040000" points="88.6,113.8 100.3,102.8 85.8,104.5 	"/>
	<polygon fill="#040000" points="73.2,123 89.4,123 88.6,113.8 78.4,116.3 89,122.3 78.4,116.3 88.6,113.8 85.8,104.5 	"/>
	<polygon fill="#040000" points="69.4,108.6 81.3,98.9 73.5,93.3 	"/>
	<polygon fill="#040000" points="100.3,102.8 94.3,90.5 85.8,104.5 	"/>
	<polygon fill="#040000" points="11.1,118.8 26.5,118.8 16.9,111.9 	"/>
	<polygon fill="#040000" points="63.8,6 48.6,21.7 56.3,18.7 	"/>
	<polygon fill="#040000" points="50.5,11.3 35.2,27 45,21 	"/>
	<polygon fill="#040000" points="81.5,98.9 85.8,104.5 94.3,90.5 73.5,93.3 	"/>
	<polygon fill="#040000" points="56.3,18.7 48.6,21.7 57.5,25.3 	"/>
	<polygon fill="#040000" points="46.5,21.4 50.5,11.4 45,21.1 	"/>
	<polygon fill="#040000" points="57.5,25.3 63.8,6 56.3,18.7 	"/>
	<polygon fill="#040000" points="22.1,105.5 16.9,111.9 28.5,104.7 18.9,97.5 	"/>
	<polygon fill="#040000" points="22.6,50.2 22.3,65.4 38.2,53 	"/>
	<polygon fill="#040000" points="26.5,118.8 28.5,104.7 16.9,111.9 	"/>
	<polygon fill="#040000" points="94.3,90.5 93.7,75.6 82.1,84.1 	"/>
	<polygon fill="#040000" points="73.5,93.3 94.3,90.5 82.1,84.1 	"/>
	<polygon fill="#040000" points="82.1,84.1 93.7,75.6 86.5,73.1 	"/>
	<polygon fill="#040000" points="93.7,75.6 105.7,68.6 101.2,65.2 	"/>
	<polygon fill="#040000" points="65.1,87.6 73.5,93.3 82.1,84.1 	"/>
	<polygon fill="#040000" points="92.8,69.8 86.5,73.1 93.7,75.6 101.2,65.2 	"/>
	<polygon fill="#040000" points="56.6,92.1 65.1,87.6 41.7,82.8 	"/>
	<polygon fill="#040000" points="66.2,77.4 65.1,87.6 82.1,84.1 	"/>
	<polygon fill="#040000" points="66.2,77.4 41.7,82.8 65.1,87.6 	"/>
	<polygon fill="#040000" points="115.4,58.8 124,47.8 109.8,52.3 115.3,59 	"/>
	<polygon fill="#040000" points="112.3,69.9 121.3,66.6 115.3,59 	"/>
	<polygon fill="#040000" points="115.3,59 105.6,68.6 112.3,69.9 	"/>
	<polygon fill="#040000" points="101.2,65.2 105.7,68.6 109.8,52.3 	"/>
	<polygon fill="#040000" points="115.3,59 115.3,59 121.3,66.6 124,47.8 	"/>
	<polygon fill="#040000" points="109.8,52.3 105.6,68.6 115.3,59 	"/>
	<polygon fill="#040000" points="45,96.7 56.6,92.1 41.7,82.8 	"/>
	<polygon fill="#040000" points="38.2,53 22.8,34.3 22.6,50.2 	"/>
	<polygon fill="#040000" points="35.3,26.5 22.8,34.3 36.5,37.7 	"/>
	<polygon fill="#040000" points="36.5,37.7 22.8,34.3 38.2,53 	"/>
	<polygon fill="#040000" points="22.6,50.2 22.8,34.3 16.9,47.1 22.5,50.2 	"/>
	<polygon fill="#040000" points="38.2,53 41.9,33.5 41.8,33.4 35.3,26.5 36.5,37.7 	"/>
	<polygon fill="#040000" points="41.9,33.5 45,21 35.3,26.5 41.8,33.4 	"/>
	<polygon fill="#040000" points="16.9,47.1 8.4,61.8 22.5,50.2 	"/>
	<polygon fill="#040000" points="22.6,50.2 22.5,50.2 8.4,61.8 22.3,65.4 	"/>
	<polygon fill="#040000" points="28.5,104.7 34.7,94.9 25.4,86.5 	"/>
	<polygon fill="#040000" points="34.7,94.9 45,96.7 41.7,82.8 	"/>
	<polygon fill="#040000" points="18.9,97.5 28.5,104.7 25.4,86.5 	"/>
	<polygon fill="#040000" points="25.4,86.5 34.7,94.9 41.7,82.8 	"/>
	<polygon fill="#040000" points="8.4,61.8 16.4,82 22.3,65.4 	"/>
	<polygon fill="#040000" points="16.4,82 18.9,97.5 25.4,86.5 	"/>
	<polygon fill="#040000" points="22.3,65.4 16.4,82 25.4,86.5 	"/>
	<polygon fill="#040000" points="86.5,73.1 65.9,64.6 66.2,77.4 	"/>
	<polygon fill="#040000" points="66.2,77.4 66.2,77.4 65.9,64.6 44.4,70 	"/>
	<polygon fill="#040000" points="41.9,33.5 38.2,53 51.4,44.6 	"/>
	<polygon fill="#040000" points="41.9,33.5 51.4,44.6 61,39.8 41.9,33.4 	"/>
	<polygon fill="#040000" points="51.1,53.5 61,39.8 51.4,44.6 	"/>
	<polygon fill="#040000" points="41.9,33.5 61,39.8 57.5,25.3 	"/>
	<polygon fill="#040000" points="57.5,25.3 48.6,21.7 45,21 41.9,33.5 	"/>
</g>
<g opacity="0.2">
	<polygon fill="#040000" points="42.4,69 36.2,52 20.4,64.4 30.8,65.8 	"/>
	<polygon fill="#040000" points="67.4,107.7 67.4,107.6 67.3,107.7 	"/>
	<polygon fill="#040000" points="64.2,76.4 64.7,76.6 64.7,76.3 	"/>
	<polygon fill="#040000" points="64.7,76.6 80.2,83.1 84.5,72.1 64.2,76.4 	"/>
	<polygon fill="#040000" points="39.7,81.9 64.2,76.4 42.4,69 	"/>
	<polygon fill="#040000" points="20.4,64.4 23.4,85.5 30.8,65.8 	"/>
	<polygon fill="#040000" points="30.8,65.8 23.4,85.5 42.4,69 	"/>
	<polygon fill="#040000" points="23.4,85.5 39.7,81.9 42.4,69 	"/>
	<polygon fill="#040000" points="39.8,32.4 39.9,32.5 39.9,32.4 	"/>
	<polygon fill="#040000" points="36.2,52 49.1,52.5 49.4,43.6 	"/>
	<polygon fill="#040000" points="63.9,63.6 49.1,52.5 42.4,69 	"/>
	<polygon fill="#040000" points="40,32.3 39.8,32.4 39.9,32.4 	"/>
	<polygon fill="#040000" points="42.4,69 49.1,52.5 36.2,52 	"/>
	<polygon fill="#040000" points="67.2,114.2 67.3,107.7 67.3,107.7 61.6,104.4 	"/>
	<polygon fill="#040000" points="51.4,114 67.2,114.2 61.6,104.4 	"/>
	<polygon fill="#040000" points="61.6,104.4 67.3,107.7 67.4,107.6 71.5,92.3 	"/>
	<polygon fill="#040000" points="86.6,112.8 98.3,101.8 83.8,103.5 	"/>
	<polygon fill="#040000" points="71.2,122 87.4,122 86.6,112.8 76.4,115.3 87,121.3 76.4,115.3 86.6,112.8 83.8,103.5 	"/>
	<polygon fill="#040000" points="67.4,107.6 79.3,97.9 71.5,92.3 	"/>
	<polygon fill="#040000" points="98.3,101.8 92.4,89.5 83.8,103.5 	"/>
	<polygon fill="#040000" points="9.2,117.9 24.5,117.9 14.9,110.9 	"/>
	<polygon fill="#040000" points="61.8,5 46.6,20.7 54.3,17.7 	"/>
	<polygon fill="#040000" points="48.5,10.3 33.3,26 43,20 	"/>
	<polygon fill="#040000" points="79.5,97.9 83.8,103.5 92.4,89.5 71.5,92.3 	"/>
	<polygon fill="#040000" points="54.3,17.7 46.6,20.7 55.5,24.3 	"/>
	<polygon fill="#040000" points="44.6,20.4 48.5,10.4 43,20.1 	"/>
	<polygon fill="#040000" points="55.5,24.3 61.8,5 54.3,17.7 	"/>
	<polygon fill="#040000" points="20.2,104.5 14.9,110.9 26.5,103.7 16.9,96.5 	"/>
	<polygon fill="#040000" points="20.7,49.2 20.4,64.4 36.2,52 	"/>
	<polygon fill="#040000" points="24.5,117.9 26.5,103.7 14.9,110.9 	"/>
	<polygon fill="#040000" points="92.4,89.5 91.7,74.6 80.2,83.1 	"/>
	<polygon fill="#040000" points="71.5,92.3 92.4,89.5 80.2,83.1 	"/>
	<polygon fill="#040000" points="80.2,83.1 91.7,74.6 84.5,72.1 	"/>
	<polygon fill="#040000" points="91.7,74.6 103.7,67.6 99.2,64.2 	"/>
	<polygon fill="#040000" points="63.1,86.6 71.5,92.3 80.2,83.1 	"/>
	<polygon fill="#040000" points="90.8,68.8 84.5,72.1 91.7,74.6 99.2,64.2 	"/>
	<polygon fill="#040000" points="54.6,91.1 63.1,86.6 39.7,81.9 	"/>
	<polygon fill="#040000" points="64.2,76.4 63.1,86.6 80.2,83.1 	"/>
	<polygon fill="#040000" points="64.2,76.4 39.7,81.9 63.1,86.6 	"/>
	<polygon fill="#040000" points="113.4,57.9 122,46.8 107.8,51.3 113.3,58 	"/>
	<polygon fill="#040000" points="110.3,68.9 119.3,65.6 113.3,58 	"/>
	<polygon fill="#040000" points="113.3,58 103.6,67.6 110.3,68.9 	"/>
	<polygon fill="#040000" points="99.2,64.2 103.7,67.6 107.8,51.3 	"/>
	<polygon fill="#040000" points="113.3,58 113.3,58 119.3,65.6 122,46.8 	"/>
	<polygon fill="#040000" points="107.8,51.3 103.6,67.6 113.3,58 	"/>
	<polygon fill="#040000" points="43,95.7 54.6,91.1 39.7,81.9 	"/>
	<polygon fill="#040000" points="36.2,52 20.9,33.4 20.7,49.2 	"/>
	<polygon fill="#040000" points="33.4,25.5 20.9,33.4 34.5,36.7 	"/>
	<polygon fill="#040000" points="34.5,36.7 20.9,33.4 36.2,52 	"/>
	<polygon fill="#040000" points="20.7,49.2 20.9,33.4 14.9,46.1 20.6,49.2 	"/>
	<polygon fill="#040000" points="36.2,52 39.9,32.5 39.8,32.4 33.4,25.5 34.5,36.7 	"/>
	<polygon fill="#040000" points="39.9,32.5 43,20 33.4,25.5 39.8,32.4 	"/>
	<polygon fill="#040000" points="14.9,46.1 6.4,60.8 20.6,49.2 	"/>
	<polygon fill="#040000" points="20.7,49.2 20.6,49.2 6.4,60.8 20.4,64.4 	"/>
	<polygon fill="#040000" points="26.5,103.7 32.8,94 23.4,85.5 	"/>
	<polygon fill="#040000" points="32.8,94 43,95.7 39.7,81.9 	"/>
	<polygon fill="#040000" points="16.9,96.5 26.5,103.7 23.4,85.5 	"/>
	<polygon fill="#040000" points="23.4,85.5 32.8,94 39.7,81.9 	"/>
	<polygon fill="#040000" points="6.4,60.8 14.4,81 20.4,64.4 	"/>
	<polygon fill="#040000" points="14.4,81 16.9,96.5 23.4,85.5 	"/>
	<polygon fill="#040000" points="20.4,64.4 14.4,81 23.4,85.5 	"/>
	<polygon fill="#040000" points="84.5,72.1 63.9,63.6 64.2,76.4 	"/>
	<polygon fill="#040000" points="64.2,76.4 64.2,76.4 63.9,63.6 42.4,69 	"/>
	<polygon fill="#040000" points="39.9,32.5 36.2,52 49.4,43.6 	"/>
	<polygon fill="#040000" points="39.9,32.5 49.4,43.6 59,38.8 39.9,32.4 	"/>
	<polygon fill="#040000" points="49.1,52.5 59,38.8 49.4,43.6 	"/>
	<polygon fill="#040000" points="39.9,32.5 59,38.8 55.5,24.3 	"/>
	<polygon fill="#040000" points="55.5,24.3 46.6,20.7 43,20 39.9,32.5 	"/>
</g>
<g>
	<polygon fill="#AFD9E9" points="39.5,68 33.2,51 16.6,63.4 27.4,64.8 	"/>
	<polygon fill="none" points="65.5,106.7 65.5,106.6 65.4,106.7 	"/>
	<polygon fill="none" stroke="#231815" stroke-width="0.8829" points="62.2,75.4 62.7,75.6 62.7,75.3 	"/>
	<polygon fill="#1E95D4" points="62.7,75.6 78.8,82.1 83.4,71.1 62.2,75.4 	"/>
	<polygon fill="#AFD9E9" points="36.7,80.9 62.2,75.4 39.5,68 	"/>
	<polygon fill="#1E95D4" points="16.6,63.4 19.8,84.5 27.4,64.8 	"/>
	<polygon fill="#1888CA" points="27.4,64.8 19.8,84.5 39.5,68 	"/>
	<polygon fill="#1E95D4" points="19.8,84.5 36.7,80.9 39.5,68 	"/>
	<polygon fill="none" stroke="#231815" stroke-width="0.8829" points="36.8,31.4 36.9,31.5 37,31.4 	"/>
	<polygon fill="#0A5DA4" points="33.2,51 46.5,51.5 46.8,42.6 	"/>
	<polygon fill="#1888CA" points="61.9,62.6 46.5,51.5 39.5,68 	"/>
	<polygon fill="none" stroke="#231815" stroke-width="0.8829" points="37,31.3 36.8,31.4 37,31.4 	"/>
	<polygon fill="#1E95D4" points="39.5,68 46.5,51.5 33.2,51 	"/>
	<polygon fill="#0A5DA4" points="65.3,113.2 65.4,106.7 65.4,106.7 59.5,103.4 	"/>
	<polygon fill="#00417A" points="48.8,113 65.3,113.2 59.5,103.4 	"/>
	<polygon fill="#00417A" points="59.5,103.4 65.4,106.7 65.5,106.6 69.9,91.3 	"/>
	<polygon fill="#0A5DA4" points="85.5,111.8 97.7,100.8 82.6,102.5 	"/>
	<polygon fill="#00417A" points="69.5,121 86.3,121 85.5,111.8 74.9,114.3 85.9,120.3 74.9,114.3 85.5,111.8 82.6,102.5 	"/>
	<polygon fill="#0A5DA4" points="65.5,106.6 77.9,96.9 69.9,91.3 	"/>
	<polygon fill="#00417A" points="97.7,100.8 91.6,88.5 82.6,102.5 	"/>
	<polygon fill="#00417A" points="4.9,116.9 21,116.9 10.8,109.9 	"/>
	<polygon fill="#1888CA" points="59.8,4 44,19.7 51.9,16.7 	"/>
	<polygon fill="#1888CA" points="45.9,9.4 30.1,25 40.2,19 	"/>
	<polygon fill="#1888CA" points="78.1,96.9 82.6,102.5 91.6,88.5 69.9,91.3 	"/>
	<polygon fill="#1E95D4" points="51.9,16.7 44,19.7 53.1,23.3 	"/>
	<polygon fill="#AFD9E9" points="41.7,19.4 45.9,9.5 40.1,19.1 	"/>
	<polygon fill="#AFD9E9" points="53.1,23.3 59.7,4 51.9,16.7 	"/>
	<polygon fill="#1888CA" points="16.4,103.5 10.8,109.9 23,102.7 13,95.5 	"/>
	<polygon fill="#1E95D4" points="16.9,48.2 16.6,63.4 33.2,51 	"/>
	<polygon fill="#0A5DA4" points="21,116.9 23,102.7 10.8,109.9 	"/>
	<polygon fill="#0A5DA4" points="91.6,88.5 90.8,73.6 78.8,82.1 	"/>
	<polygon fill="#1E95D4" points="69.9,91.3 91.6,88.5 78.8,82.1 	"/>
	<polygon fill="#1888CA" points="78.8,82.1 90.8,73.6 83.4,71.1 	"/>
	<polygon fill="#1888CA" points="90.8,73.6 103.3,66.6 98.7,63.2 	"/>
	<polygon fill="#0A5DA4" points="61.1,85.6 69.9,91.3 78.8,82.1 	"/>
	<polygon fill="#1E95D4" points="89.9,67.8 83.4,71.1 90.8,73.6 98.7,63.2 	"/>
	<polygon fill="#00417A" points="52.2,90.1 61.1,85.6 36.7,80.9 	"/>
	<polygon fill="#1888CA" points="62.2,75.4 61.1,85.6 78.8,82.1 	"/>
	<polygon fill="#0A5DA4" points="62.2,75.4 36.7,80.9 61.1,85.6 	"/>
	<polygon fill="#AFD9E9" points="113.4,56.9 122.3,45.9 107.6,50.3 113.3,57.1 	"/>
	<polygon fill="#1888CA" points="110.2,67.9 119.6,64.6 113.3,57.1 	"/>
	<polygon fill="#0A5DA4" points="113.3,57.1 103.2,66.6 110.2,67.9 	"/>
	<polygon fill="#1E95D4" points="98.7,63.2 103.3,66.6 107.6,50.3 	"/>
	<polygon fill="#1E95D4" points="113.3,57.1 113.3,57.1 119.6,64.6 122.4,45.9 	"/>
	<polygon fill="#1888CA" points="107.6,50.3 103.2,66.6 113.3,57.1 	"/>
	<polygon fill="#1888CA" points="40.1,94.7 52.2,90.1 36.7,80.9 	"/>
	<polygon fill="#1888CA" points="33.2,51 17.2,32.4 16.9,48.2 	"/>
	<polygon fill="#1888CA" points="30.1,24.5 17.2,32.4 31.4,35.7 	"/>
	<polygon fill="#1E95D4" points="31.4,35.7 17.2,32.4 33.2,51 	"/>
	<polygon fill="#1E95D4" points="16.9,48.2 17.2,32.4 10.9,45.2 16.8,48.2 	"/>
	<polygon fill="#0A5DA4" points="33.2,51 36.9,31.5 36.8,31.4 30.1,24.5 31.4,35.7 	"/>
	<polygon fill="#1E95D4" points="36.9,31.5 40.2,19 30.1,24.5 36.8,31.4 	"/>
	<polygon fill="#0A5DA4" points="10.9,45.2 2,59.8 16.8,48.2 	"/>
	<polygon fill="#1888CA" points="16.9,48.2 16.8,48.2 2,59.8 16.6,63.4 	"/>
	<polygon fill="#00417A" points="23,102.7 29.5,93 19.8,84.5 	"/>
	<polygon fill="#1E95D4" points="29.5,93 40.1,94.7 36.7,80.9 	"/>
	<polygon fill="#0A5DA4" points="13,95.5 23,102.7 19.8,84.5 	"/>
	<polygon fill="#0A5DA4" points="19.8,84.5 29.5,93 36.7,80.9 	"/>
	<polygon fill="#0A5DA4" points="2,59.8 10.3,80 16.6,63.4 	"/>
	<polygon fill="#1E95D4" points="10.3,80 13,95.5 19.8,84.5 	"/>
	<polygon fill="#1888CA" points="16.6,63.4 10.3,80 19.8,84.5 	"/>
	<polygon fill="#AFD9E9" points="83.4,71.1 61.9,62.6 62.2,75.4 	"/>
	<polygon fill="#1E95D4" points="62.2,75.4 62.2,75.4 61.9,62.6 39.5,68 	"/>
	<polygon fill="#1888CA" points="36.9,31.5 33.2,51 46.8,42.6 	"/>
	<polygon fill="#1E95D4" points="36.9,31.5 46.8,42.6 56.9,37.8 37,31.4 	"/>
	<polygon fill="#AFD9E9" points="46.5,51.5 56.9,37.8 46.8,42.6 	"/>
	<polygon fill="#AFD9E9" points="36.9,31.5 56.9,37.8 53.1,23.3 	"/>
	<polygon fill="#1888CA" points="53.1,23.3 44,19.7 40.2,19 36.9,31.5 	"/>
</g>
</svg>
