<?xml version="1.0" encoding="utf-8"?>
<!-- Generator: Adobe Illustrator 21.0.0, SVG Export Plug-In . SVG Version: 6.00 Build 0)  -->
<svg version="1.1" id="svg2" xmlns="http://www.w3.org/2000/svg" xmlns:xlink="http://www.w3.org/1999/xlink" x="0px" y="0px"
	 viewBox="0 0 128 128" style="enable-background:new 0 0 128 128;" xml:space="preserve">
<style type="text/css">
	.st0{fill:#FFFFFF;}
</style>
<title>画板 1</title>
<polygon class="st0" points="67.1,107.1 67.1,107 67,107 "/>
<polygon class="st0" points="51.3,113.1 66.9,113.4 67,107 67.1,107 78.9,97.5 71.2,92 61.4,103.8 "/>
<polygon class="st0" points="120.9,47.8 107.1,52 98.5,64.7 90.2,69 84.1,72.4 63.7,64.1 49.1,53.4 58.9,40 55.3,25.8 61.7,7 
	46.7,22.3 44.6,21.9 48.5,12.2 46.5,15.6 48.5,12.1 34.4,26.5 33.5,27 21.3,34.7 15.4,47.1 7,61.3 14.9,81 17.4,96.2 20.6,103.9 
	15.4,110.2 9.7,116.9 24.9,116.9 26.9,103.1 33,93.6 43,95.4 54.5,90.9 62.9,86.5 71.2,92 79,97.5 83.3,102.9 70.9,121 86.8,121 
	86.1,112 97.6,101.3 91.8,89.4 91,74.7 102.7,67.9 102.8,68 102.8,67.9 109.4,69.2 112.3,58.7 112.4,58.5 "/>
<polygon class="st0" points="112.3,58.7 109.5,69.2 118.4,66 121,47.8 "/>
</svg>
