<?xml version="1.0" encoding="iso-8859-1"?>
<!-- Generator: Adobe Illustrator 17.1.0, SVG Export Plug-In . SVG Version: 6.00 Build 0)  -->
<!DOCTYPE svg PUBLIC "-//W3C//DTD SVG 1.1//EN" "http://www.w3.org/Graphics/SVG/1.1/DTD/svg11.dtd">
<svg version="1.1" id="&#x56FE;&#x5C42;_1" xmlns="http://www.w3.org/2000/svg" xmlns:xlink="http://www.w3.org/1999/xlink" x="0px"
	 y="0px" width="128px" height="128px" viewBox="0 0 128 128" style="enable-background:new 0 0 128 128;" xml:space="preserve">
<path style="opacity:0.08;enable-background:new    ;" d="M21.004,128l-1.193-1.889c-0.497-0.795-11.833-19.49-11.833-44.151
	c0-24.263,9.646-46.438,10.043-47.432l0.597-1.293l-10.043-1.69l3.58-21.976l30.428,4.972L44.273,4l51.012,8.253l-1.69,10.541
	l30.428,4.872l-3.58,22.075l-7.259-1.193c2.486,8.651,5.071,20.683,5.071,33.411c0,24.561-11.336,43.355-11.833,44.151L105.229,128
	L21.004,128L21.004,128z"/>
<path style="opacity:0.1;enable-background:new    ;" d="M22.197,126.011l-0.597-0.994c-0.497-0.795-11.535-18.993-11.535-43.057
	c0-23.865,9.447-45.742,9.844-46.637l0.497-1.193h4.077l0.497-1.989l-14.12-2.287l2.884-18.098l30.428,4.972l1.69-10.541
	l47.034,7.657l-1.69,10.541l30.428,4.872l-2.884,18.098l-8.353-1.392c2.585,8.154,5.966,21.578,5.966,35.897
	c0,24.064-11.038,42.361-11.535,43.057l-0.597,0.994H22.197V126.011z M78.678,22.396l0.099-0.398l-21.976-3.58l-0.099,0.398
	L78.678,22.396z"/>
<path style="opacity:0.2;enable-background:new    ;" d="M20.209,124.022l-0.597-0.994c-0.497-0.795-11.535-18.993-11.535-43.057
	c0-23.865,9.447-45.742,9.844-46.637l0.497-1.193h4.077l0.497-1.989l-14.12-2.287l2.884-18.098l30.428,4.972l1.69-10.541
	l47.034,7.657l-1.69,10.541l30.428,4.872l-2.884,18.098l-8.353-1.392c2.585,8.154,5.966,21.578,5.966,35.897
	c0,24.064-11.038,42.361-11.535,43.057l-0.597,0.994H20.209V124.022z M76.69,20.407l0.099-0.398l-21.976-3.58l-0.099,0.398
	L76.69,20.407z"/>
<path style="fill:#606061;" d="M21.302,122.034c0,0-11.237-18.297-11.237-42.063c0-23.666,9.745-45.841,9.745-45.841h3.48
	l0.895-0.497l1.293-5.071L11.16,26.274l2.287-14.12l30.428,4.972l1.69-10.541l43.156,6.961l-1.69,10.541l30.428,4.872l-2.287,14.22
	l-9.646-1.591c2.784,8.154,6.861,22.672,6.861,38.383c0,23.766-11.237,42.063-11.237,42.063L21.302,122.034L21.302,122.034z
	 M78.38,22.694l0.696-4.375l-25.953-4.176l-0.696,4.375L78.38,22.694z"/>
<g>
	<polygon style="fill:#9E9E9E;" points="79.076,36.218 43.179,19.115 28.462,26.97 29.456,36.318 33.931,41.091 56.504,38.704 	"/>
	<polygon style="fill:#E0E0E0;" points="48.051,28.86 45.267,30.351 43.577,35.721 39.798,32.937 38.804,29.456 39.102,27.567 
		43.477,28.263 	"/>
	<polygon style="fill:#E0E0E0;" points="57.2,30.65 56.901,30.55 56.702,32.439 57.299,35.224 57.299,35.224 57.498,35.323 
		61.476,31.246 	"/>
	<polygon style="fill:#E0E0E0;" points="66.05,35.323 65.851,35.423 66.447,34.627 67.939,33.334 67.939,33.334 68.038,33.235 
		68.834,34.826 	"/>
	<polygon style="fill:#E0E0E0;" points="46.659,35.124 46.162,35.124 48.151,32.539 52.924,29.059 52.924,29.059 53.421,29.059 
		55.609,35.622 	"/>
	<polygon style="fill:#E0E0E0;" points="22.098,36.019 25.081,34.329 26.274,29.456 31.147,31.246 33.036,34.13 33.036,35.721 
		27.567,35.92 	"/>
	<polygon style="fill:#9E9E9E;" points="27.567,35.92 27.865,35.82 27.766,33.235 26.573,29.456 26.573,29.456 26.274,29.456 
		25.081,34.329 22.098,36.019 	"/>
	<polygon style="fill:#E0E0E0;" points="39.201,30.749 37.909,31.743 36.715,31.545 35.82,32.837 35.522,34.627 35.224,36.019 
		35.92,35.224 37.61,33.633 39.4,32.439 	"/>
	<path style="fill:#E0E0E0;" d="M29.357,26.274l0.994,2.088c0,0,0,0.696,0.994,0.895c0.994,0.199,6.464,0.398,6.464,0.398
		l1.193-2.287L29.357,26.274z"/>
</g>
<linearGradient id="SVGID_1_" gradientUnits="userSpaceOnUse" x1="11.0602" y1="-49.9182" x2="111.2943" y2="-49.9182" gradientTransform="matrix(1 0 0 1 0 128)">
	<stop  offset="0.0484" style="stop-color:#CED7DB"/>
	<stop  offset="0.1017" style="stop-color:#C4CDD2"/>
	<stop  offset="0.2688" style="stop-color:#A7B5BC"/>
	<stop  offset="0.4093" style="stop-color:#94A6B0"/>
	<stop  offset="0.5054" style="stop-color:#8DA1AB"/>
	<stop  offset="1" style="stop-color:#CED7DB"/>
</linearGradient>
<path style="fill:url(#SVGID_1_);" d="M101.947,35.124h-40.77h-40.77c0,0-9.347,21.081-9.347,44.847S21.8,121.039,21.8,121.039
	h39.378h39.378c0,0,10.739-17.302,10.739-41.068S101.947,35.124,101.947,35.124z"/>
<path style="opacity:0.3;fill:#5E7B88;enable-background:new    ;" d="M18.816,39.4h84.921c-0.895-2.486-1.591-3.978-1.69-4.276
	h-81.54C20.308,35.423,19.711,36.914,18.816,39.4z"/>
<path style="opacity:0.45;fill:#5E7B88;enable-background:new    ;" d="M64.359,35.124l40.571,7.856
	c-0.696-1.889-1.193-3.48-1.69-4.674l-30.925-3.281L64.359,35.124z"/>
<polygon style="opacity:0.33;fill:#263137;enable-background:new    ;" points="28.661,28.362 63.962,35.124 72.115,35.124 
	28.661,28.164 "/>
<g>
	
		<rect x="12.644" y="21.458" transform="matrix(0.9871 0.1599 -0.1599 0.9871 5.2445 -9.9267)" style="fill:#5E7B88;" width="103.313" height="12.33"/>
	
		<linearGradient id="SVGID_2_" gradientUnits="userSpaceOnUse" x1="3.1172" y1="-79.4672" x2="106.5396" y2="-79.4672" gradientTransform="matrix(0.9871 0.1599 -0.1599 0.9871 -2.5184 96.8939)">
		<stop  offset="0.0484" style="stop-color:#5E7B88"/>
		<stop  offset="0.2473" style="stop-color:#5E7B88"/>
		<stop  offset="0.5054" style="stop-color:#445962"/>
		<stop  offset="0.7419" style="stop-color:#5E7B88"/>
		<stop  offset="1" style="stop-color:#5E7B88"/>
	</linearGradient>
	<polygon style="opacity:0.65;fill:url(#SVGID_2_);enable-background:new    ;" points="114.377,41.091 12.353,24.584 
		14.242,13.347 116.266,29.854 	"/>
	<polygon style="fill:#5E7B88;" points="46.361,7.679 44.67,18.22 51.333,19.314 52.427,12.154 80.369,16.629 79.176,23.788 
		85.838,24.882 87.528,14.342 	"/>
	
		<linearGradient id="SVGID_3_" gradientUnits="userSpaceOnUse" x1="33.9855" y1="-90.544" x2="75.7069" y2="-90.544" gradientTransform="matrix(0.9871 0.1599 -0.1599 0.9871 -2.5184 96.8939)">
		<stop  offset="0.0484" style="stop-color:#445962"/>
		<stop  offset="0.1347" style="stop-color:#4D646E"/>
		<stop  offset="0.2908" style="stop-color:#5A7581"/>
		<stop  offset="0.3978" style="stop-color:#5E7B88"/>
		<stop  offset="0.6129" style="stop-color:#5E7B88"/>
		<stop  offset="1" style="stop-color:#445962"/>
	</linearGradient>
	<polygon style="fill:url(#SVGID_3_);" points="46.361,7.679 44.67,18.22 51.333,19.314 52.427,12.154 80.369,16.629 79.176,23.788 
		85.838,24.882 87.528,14.342 	"/>
	
		<rect x="52.19" y="14.245" transform="matrix(0.9871 0.1599 -0.1599 0.9871 3.2106 -10.4136)" style="fill:#445962;" width="28.24" height="0.994"/>
	
		<rect x="11.732" y="32.844" transform="matrix(0.9871 0.1599 -0.1599 0.9871 6.1392 -9.7078)" style="fill:#445962;" width="103.313" height="0.895"/>
</g>
<g>
	<g>
		<path style="fill:#5E7B88;" d="M34.826,114.476h-7.955c0,0-7.06-16.606-7.06-36.295s7.06-31.522,7.06-31.522h7.955
			c0,0-7.06,8.651-7.06,31.522S34.826,114.476,34.826,114.476z"/>
		<path style="fill:#CED7DB;" d="M26.573,113.581c0.199,0.497,0.298,0.795,0.298,0.795h7.955c0,0-0.099-0.298-0.398-0.795H26.573z"
			/>
		<path style="fill:#536B75;" d="M33.832,48.151c0.597-1.094,0.994-1.591,0.994-1.591h-7.955c0,0-0.298,0.597-0.895,1.591H33.832z"
			/>
	</g>
	<g>
		<path style="fill:#5E7B88;" d="M54.714,114.476h-7.955c0,0-5.171-16.606-5.171-36.295s5.171-31.522,5.171-31.522h7.955
			c0,0-5.171,8.651-5.171,31.522S54.714,114.476,54.714,114.476z"/>
		<path style="fill:#CED7DB;" d="M46.46,113.581c0.099,0.497,0.199,0.795,0.199,0.795h7.955c0,0-0.099-0.298-0.298-0.795H46.46z"/>
		<path style="fill:#536B75;" d="M53.918,48.151c0.497-1.094,0.796-1.591,0.796-1.591h-7.955c0,0-0.199,0.597-0.597,1.591H53.918z"
			/>
	</g>
	<g>
		<path style="fill:#5E7B88;" d="M87.528,114.476h7.955c0,0,7.06-16.606,7.06-36.295s-7.06-31.522-7.06-31.522h-7.955
			c0,0,7.06,8.651,7.06,31.522S87.528,114.476,87.528,114.476z"/>
		<path style="fill:#CED7DB;" d="M95.782,113.581c-0.199,0.497-0.298,0.795-0.298,0.795h-7.955c0,0,0.099-0.298,0.398-0.795H95.782z
			"/>
		<path style="fill:#536B75;" d="M88.622,48.151c-0.597-1.094-0.994-1.591-0.994-1.591h7.955c0,0,0.298,0.597,0.895,1.591H88.622z"
			/>
	</g>
	<g>
		<path style="fill:#5E7B88;" d="M67.74,114.476h7.955c0,0,5.171-16.606,5.171-36.295s-5.171-31.522-5.171-31.522H67.74
			c0,0,5.171,8.651,5.171,31.522S67.74,114.476,67.74,114.476z"/>
		<path style="fill:#CED7DB;" d="M75.894,113.581c-0.099,0.497-0.199,0.795-0.199,0.795H67.74c0,0,0.099-0.298,0.298-0.795H75.894z"
			/>
		<path style="fill:#536B75;" d="M68.436,48.151c-0.497-1.094-0.796-1.591-0.796-1.591h7.955c0,0,0.199,0.597,0.597,1.591H68.436z"
			/>
	</g>
</g>
</svg>
