<?xml version="1.0" encoding="iso-8859-1"?>
<!-- Generator: Adobe Illustrator 21.0.0, SVG Export Plug-In . SVG Version: 6.00 Build 0)  -->
<svg version="1.1" id="&#x5176;&#x4ED6;" xmlns="http://www.w3.org/2000/svg" xmlns:xlink="http://www.w3.org/1999/xlink" x="0px"
	 y="0px" viewBox="0 0 128 128" style="enable-background:new 0 0 128 128;" xml:space="preserve">
<title>画板 19</title>
<g id="&#x5783;&#x573E;&#x6876;-&#x7A7A;">
	<g id="_128">
		<path style="opacity:0.2;enable-background:new    ;" d="M17.65,126V35.2h-6.6l-0.1-3V16.7h31.1V6h48v10.8h31v18.4h-6.7V126H17.65
			z M77.35,16.8v-0.5h-22.5v0.5H77.35z"/>
		<path style="fill:#606061;" d="M19.65,124V33.2h-6.6V18.8h31V8h44v10.8h31v14.5h-6.7V124H19.65z M79.35,18.8v-4.5h-26.5v4.5H79.35
			z"/>
		
			<linearGradient id="SVGID_1_" gradientUnits="userSpaceOnUse" x1="-2181.75" y1="2652.5901" x2="-2090.95" y2="2652.5901" gradientTransform="matrix(1 0 0 1 2202.3999 -2574.99)">
			<stop  offset="0.05" style="stop-color:#CED7DB"/>
			<stop  offset="0.1" style="stop-color:#C4CDD2"/>
			<stop  offset="0.27" style="stop-color:#A7B5BC"/>
			<stop  offset="0.41" style="stop-color:#94A6B0"/>
			<stop  offset="0.51" style="stop-color:#8DA1AB"/>
			<stop  offset="1" style="stop-color:#CED7DB"/>
		</linearGradient>
		<rect x="20.65" y="32.2" style="fill:url(#SVGID_1_);" width="90.8" height="90.8"/>
		<rect x="20.65" y="32.2" style="opacity:0.3;fill:#5E7B88;enable-background:new    ;" width="90.8" height="4.3"/>
		<rect x="94.25" y="49.6" style="fill:#5E7B88;" width="8" height="66.8"/>
		<rect x="74.25" y="49.6" style="fill:#5E7B88;" width="8" height="66.8"/>
		<rect x="49.85" y="49.6" style="fill:#5E7B88;" width="8" height="66.8"/>
		<rect x="29.85" y="49.6" style="fill:#5E7B88;" width="8" height="66.8"/>
		<rect x="94.25" y="47.9" style="fill:#536B75;" width="8" height="1.6"/>
		<rect x="74.25" y="47.9" style="fill:#536B75;" width="8" height="1.6"/>
		<rect x="49.85" y="47.9" style="fill:#536B75;" width="8" height="1.6"/>
		<rect x="29.85" y="47.9" style="fill:#536B75;" width="8" height="1.6"/>
		<rect x="94.25" y="115.5" style="fill:#CED7DB;" width="8" height="0.8"/>
		<rect x="74.25" y="115.5" style="fill:#CED7DB;" width="8" height="0.8"/>
		<rect x="49.85" y="115.5" style="fill:#CED7DB;" width="8" height="0.8"/>
		<rect x="29.85" y="115.5" style="fill:#CED7DB;" width="8" height="0.8"/>
		<rect x="13.95" y="19.8" style="fill:#5E7B88;" width="104.2" height="12.4"/>
		
			<linearGradient id="SVGID_2_" gradientUnits="userSpaceOnUse" x1="-2188.45" y1="2600.54" x2="-2084.25" y2="2600.54" gradientTransform="matrix(1 0 0 1 2202.3999 -2574.99)">
			<stop  offset="0.05" style="stop-color:#5E7B88"/>
			<stop  offset="0.25" style="stop-color:#5E7B88"/>
			<stop  offset="0.51" style="stop-color:#445962"/>
			<stop  offset="0.74" style="stop-color:#5E7B88"/>
			<stop  offset="1" style="stop-color:#5E7B88"/>
		</linearGradient>
		<rect x="13.95" y="19.8" style="opacity:0.65;fill:url(#SVGID_2_);enable-background:new    ;" width="104.2" height="11.5"/>
		<polygon style="fill:#5E7B88;" points="45.05,9 45.05,19.8 51.85,19.8 51.85,12.5 80.35,12.5 80.35,19.8 87.05,19.8 87.05,9 		"/>
		
			<linearGradient id="SVGID_3_" gradientUnits="userSpaceOnUse" x1="-2157.3499" y1="2589.3899" x2="-2115.3499" y2="2589.3899" gradientTransform="matrix(1 0 0 1 2202.3999 -2574.99)">
			<stop  offset="0.05" style="stop-color:#445962"/>
			<stop  offset="0.13" style="stop-color:#4D646E"/>
			<stop  offset="0.29" style="stop-color:#5A7581"/>
			<stop  offset="0.4" style="stop-color:#5E7B88"/>
			<stop  offset="0.61" style="stop-color:#5E7B88"/>
			<stop  offset="1" style="stop-color:#445962"/>
		</linearGradient>
		<polygon style="fill:url(#SVGID_3_);" points="45.05,9 45.05,19.8 51.85,19.8 51.85,12.5 80.35,12.5 80.35,19.8 87.05,19.8 
			87.05,9 		"/>
		<rect x="51.85" y="12.3" style="fill:#445962;" width="28.5" height="1"/>
		<rect x="13.95" y="31.3" style="fill:#445962;" width="104.2" height="0.9"/>
	</g>
</g>
</svg>
