<?xml version="1.0" encoding="utf-8"?>
<!-- Generator: Adobe Illustrator 21.0.0, SVG Export Plug-In . SVG Version: 6.00 Build 0)  -->
<svg version="1.1" id="svg" xmlns="http://www.w3.org/2000/svg" xmlns:xlink="http://www.w3.org/1999/xlink" x="0px" y="0px"
	 viewBox="0 0 128 128" style="enable-background:new 0 0 128 128;" xml:space="preserve">
<style type="text/css">
	.st0{opacity:0.2;fill:#040000;enable-background:new    ;}
	.st1{opacity:0.08;fill:#040000;enable-background:new    ;}
	.st2{opacity:0.1;fill:#040000;enable-background:new    ;}
	.st3{fill:#5C4037;}
	.st4{fill:url(#SVGID_1_);}
	.st5{opacity:0.3;fill:#DA706F;enable-background:new    ;}
	.st6{fill:#AE1F24;}
	.st7{fill:#720914;}
	.st8{fill:#F8CACE;}
	.st9{opacity:0.65;fill:url(#SVGID_2_);enable-background:new    ;}
	.st10{fill:url(#SVGID_3_);}
</style>
<polygon class="st0" points="15.5,124 15.5,33 9,33 9,14 40,14 40,4 88,4 88,14 119,14 119,33 112.5,33 112.5,124 "/>
<polygon class="st1" points="15.5,128 15.5,37 9,37 9,14 40,14 40,4 92,4 92,14 123,14 123,37 116.5,37 116.5,128 "/>
<polygon class="st2" points="17.5,126 17.5,35 11,35 11,16 42,16 42,6 90,6 90,16 121,16 121,35 114.5,35 114.5,126 "/>
<path class="st3" d="M17.5,122V31H11V16h31V6h44v10h31v15h-6.5v91H17.5z M77.5,16v-4h-27v4H77.5z"/>
<linearGradient id="SVGID_1_" gradientUnits="userSpaceOnUse" x1="18.5" y1="-1818.78" x2="109.5" y2="-1818.78" gradientTransform="matrix(1 0 0 -1 0 -1743.28)">
	<stop  offset="0" style="stop-color:#F8CACE"/>
	<stop  offset="0.48" style="stop-color:#DA706F"/>
	<stop  offset="0.49" style="stop-color:#DA706F"/>
	<stop  offset="0.52" style="stop-color:#DA706F"/>
	<stop  offset="1" style="stop-color:#F8CACE"/>
</linearGradient>
<rect x="18.5" y="30" class="st4" width="91" height="91"/>
<rect x="18.5" y="30" class="st5" width="91" height="4"/>
<rect x="91.3" y="46.6" class="st6" width="8.1" height="66.3"/>
<rect x="91.3" y="45.2" class="st7" width="8.1" height="1.4"/>
<rect x="91.3" y="112" class="st8" width="8.1" height="0.9"/>
<rect x="70.1" y="46.6" class="st6" width="8.1" height="66.3"/>
<rect x="70.1" y="45.2" class="st7" width="8.1" height="1.5"/>
<rect x="70.1" y="111.9" class="st8" width="8.1" height="1"/>
<rect x="49.8" y="46.6" class="st6" width="8.1" height="66.3"/>
<rect x="49.8" y="45.2" class="st7" width="8.1" height="1.5"/>
<rect x="49.8" y="111.9" class="st8" width="8.1" height="1"/>
<rect x="28.6" y="46.6" class="st6" width="8.1" height="66.3"/>
<rect x="28.6" y="45.2" class="st7" width="8.1" height="1.5"/>
<rect x="28.6" y="111.9" class="st8" width="8.1" height="1"/>
<rect x="12" y="17" class="st6" width="104" height="13"/>
<linearGradient id="SVGID_2_" gradientUnits="userSpaceOnUse" x1="12" y1="-1766.23" x2="116" y2="-1766.23" gradientTransform="matrix(1 0 0 -1 0 -1743.28)">
	<stop  offset="0.05" style="stop-color:#DA706F"/>
	<stop  offset="0.25" style="stop-color:#DA706F"/>
	<stop  offset="0.51" style="stop-color:#AE1F24"/>
	<stop  offset="0.74" style="stop-color:#DA706F"/>
	<stop  offset="1" style="stop-color:#DA706F"/>
</linearGradient>
<rect x="12" y="17" class="st9" width="104" height="11.9"/>
<linearGradient id="SVGID_3_" gradientUnits="userSpaceOnUse" x1="43" y1="-1755.28" x2="85" y2="-1755.28" gradientTransform="matrix(1 0 0 -1 0 -1743.28)">
	<stop  offset="0.05" style="stop-color:#AE1F24"/>
	<stop  offset="0.25" style="stop-color:#DA706F"/>
	<stop  offset="0.51" style="stop-color:#DA706F"/>
	<stop  offset="0.74" style="stop-color:#DA706F"/>
	<stop  offset="1" style="stop-color:#AE1F24"/>
</linearGradient>
<polygon class="st10" points="43,7 43,17 49.5,17 49.5,10.2 78.5,10.2 78.5,17 85,17 85,7 "/>
<rect x="49.5" y="10" class="st7" width="29" height="1"/>
<rect x="12" y="28" class="st7" width="104" height="2"/>
</svg>
