<?xml version="1.0" encoding="iso-8859-1"?>
<!-- Generator: Adobe Illustrator 17.1.0, SVG Export Plug-In . SVG Version: 6.00 Build 0)  -->
<!DOCTYPE svg PUBLIC "-//W3C//DTD SVG 1.1//EN" "http://www.w3.org/Graphics/SVG/1.1/DTD/svg11.dtd">
<svg version="1.1" id="&#x56FE;&#x5C42;_1" xmlns="http://www.w3.org/2000/svg" xmlns:xlink="http://www.w3.org/1999/xlink" x="0px"
	 y="0px" width="128px" height="128px" viewBox="0 0 128 128" style="enable-background:new 0 0 128 128;" xml:space="preserve">
<g>
	<polygon style="opacity:0.1;enable-background:new    ;" points="20.1,5 110.9,5 110.9,126 65.5,89.9 20.1,126 	"/>
	<polygon style="opacity:0.08;enable-background:new    ;" points="20.1,4 112.9,4 112.9,128 66.5,91.1 20.1,128 	"/>
	<polygon style="opacity:0.2;enable-background:new    ;" points="19.1,4 109.9,4 109.9,125 64.5,88.9 19.1,125 	"/>
</g>
<polygon style="fill:#B71C1C;" points="21.2,6.5 108.5,6.5 108.5,122.5 64.8,87.8 21.2,122.5 "/>
<linearGradient id="SVGID_1_" gradientUnits="userSpaceOnUse" x1="64.85" y1="-120.5" x2="64.85" y2="-7.5" gradientTransform="matrix(1 0 0 1 0 128)">
	<stop  offset="0" style="stop-color:#FF5722"/>
	<stop  offset="0.2225" style="stop-color:#FF5B27"/>
	<stop  offset="0.4924" style="stop-color:#FF6636"/>
	<stop  offset="0.7856" style="stop-color:#FF794E"/>
	<stop  offset="1" style="stop-color:#FF8A65"/>
</linearGradient>
<path style="fill:url(#SVGID_1_);" d="M22.2,7.5h85.3v113L64.8,86.6l-42.6,33.9C22.2,120.5,22.2,7.5,22.2,7.5z"/>
<linearGradient id="SVGID_2_" gradientUnits="userSpaceOnUse" x1="64.85" y1="-99.6561" x2="64.85" y2="-120.2288" gradientTransform="matrix(1 0 0 1 0 128)">
	<stop  offset="0.2527" style="stop-color:#FF8A65"/>
	<stop  offset="0.8441" style="stop-color:#FF5722"/>
</linearGradient>
<polygon style="fill:url(#SVGID_2_);fill-opacity:0.77;" points="107.5,7.8 22.2,7.8 22.2,28.3 107.5,28.3 "/>
<path style="fill:#D32F2F;fill-opacity:0.48;" d="M93.3,7.6v101.6l14.2,11.3V7.6H93.3z M22.2,7.5v113l14.2-11.4V7.5H22.2z"/>
</svg>
