<?xml version="1.0" encoding="utf-8"?>
<!-- Generator: Adobe Illustrator 21.0.0, SVG Export Plug-In . SVG Version: 6.00 Build 0)  -->
<svg version="1.1" id="信息" xmlns="http://www.w3.org/2000/svg" xmlns:xlink="http://www.w3.org/1999/xlink" x="0px" y="0px"
	 viewBox="0 0 64 64" style="enable-background:new 0 0 64 64;" xml:space="preserve">
<style type="text/css">
	.st0{fill:#808080;}
	.st1{fill:#E40000;}
</style>
<title>64</title>
<g id="_64">
	<path class="st0" d="M11,61V44.6c-4.9-4.3-7.7-10.4-7.8-16.9c0-13.5,12.7-24.5,28.2-24.5s28.2,11,28.2,24.5S47,52.2,31.4,52.2
		c-2.4,0-4.8-0.3-7.1-0.8L11,61z M31.4,5.1C17,5.1,5.2,15.2,5.2,27.7c0.1,6.1,2.8,11.8,7.4,15.7l0.4,0.3v13.5l10.9-7.9l0.4,0.1
		c2.3,0.6,4.7,0.9,7.1,0.9c14.5,0,26.3-10.1,26.3-22.6S45.9,5.1,31.4,5.1z"/>
	<rect x="12.7" y="26.5" transform="matrix(0.7071 -0.7071 0.7071 0.7071 -10.2992 30.1241)" class="st1" width="37" height="2"/>
	<rect x="30.2" y="9" transform="matrix(0.7071 -0.7071 0.7071 0.7071 -10.3049 30.1284)" class="st1" width="2" height="37"/>
</g>
</svg>
