<?xml version="1.0" encoding="utf-8"?>
<!-- Generator: Adobe Illustrator 21.0.0, SVG Export Plug-In . SVG Version: 6.00 Build 0)  -->
<svg version="1.1" id="信息" xmlns="http://www.w3.org/2000/svg" xmlns:xlink="http://www.w3.org/1999/xlink" x="0px" y="0px"
	 viewBox="0 0 64 64" style="enable-background:new 0 0 64 64;" xml:space="preserve">
<style type="text/css">
	.st0{fill:#808080;}
	.st1{fill:#268BD2;}
</style>
<title>64</title>
<g id="_64">
	<path class="st0" d="M11,61V44.6c-4.9-4.3-7.7-10.4-7.8-16.9c0-13.5,12.7-24.5,28.2-24.5s28.2,11,28.2,24.5S47,52.2,31.4,52.2
		c-2.4,0-4.8-0.3-7.1-0.8L11,61z M31.4,5.1C17,5.1,5.2,15.2,5.2,27.7c0.1,6.1,2.8,11.8,7.4,15.7l0.4,0.3v13.5l10.9-7.9l0.4,0.1
		c2.3,0.6,4.7,0.9,7.1,0.9c14.5,0,26.3-10.1,26.3-22.6S45.9,5.1,31.4,5.1z"/>
	<path class="st1" d="M26.3,21.8h-3.5c0-1.3,0.1-2.6,0.5-3.9c0.5-1.4,1.4-2.7,2.7-3.6c0.8-0.6,1.7-1.1,2.7-1.4
		c1-0.3,2.1-0.5,3.1-0.5c2.2-0.1,4.3,0.6,5.9,2c1.7,1.4,2.7,3.6,2.6,5.8c0,1.2-0.3,2.3-0.8,3.3c-0.8,1.2-1.8,2.3-2.9,3.3
		c-0.8,0.7-1.5,1.5-2.2,2.3c-0.9,1.5-1.4,3.2-1.3,5h-3.5c-0.1-1.7,0.2-3.4,0.8-4.9c0.8-1.4,1.8-2.6,3-3.7c1.2-1.2,1.9-2,2.2-2.3
		c0.7-0.9,1-2.1,1-3.2c0-1-0.3-2.1-1-2.9c-0.9-1.2-2.4-1.8-3.9-1.7c-1.9-0.2-3.7,0.9-4.5,2.5C26.5,19.2,26.2,20.5,26.3,21.8z
		 M33.3,37.4v4.1h-3.8v-4.1L33.3,37.4z"/>
</g>
</svg>
