<?xml version="1.0" encoding="utf-8"?>
<!-- Generator: Adobe Illustrator 21.0.0, SVG Export Plug-In . SVG Version: 6.00 Build 0)  -->
<svg version="1.1" id="图层_39" xmlns="http://www.w3.org/2000/svg" xmlns:xlink="http://www.w3.org/1999/xlink" x="0px" y="0px"
	 viewBox="0 0 24 24" style="enable-background:new 0 0 24 24;" xml:space="preserve">
<style type="text/css">
	.st0{display:none;fill:url(#SVGID_1_);}
	.st1{fill:url(#SVGID_2_);}
	.st2{fill:#9E885A;}
	.st3{fill:url(#SVGID_3_);}
	.st4{fill:url(#SVGID_4_);}
	.st5{fill:url(#SVGID_5_);}
</style>
<g>
	
		<linearGradient id="SVGID_1_" gradientUnits="userSpaceOnUse" x1="9.3" y1="775" x2="9.3" y2="785.3125" gradientTransform="matrix(1 0 0 1 0 -774)">
		<stop  offset="0" style="stop-color:#FFE5D2"/>
		<stop  offset="1" style="stop-color:#F1BB8B"/>
	</linearGradient>
	<circle class="st0" cx="9.3" cy="6.2" r="5.2"/>
	<g>
		
			<linearGradient id="SVGID_2_" gradientUnits="userSpaceOnUse" x1="9.3" y1="775.6875" x2="9.3" y2="784.625" gradientTransform="matrix(1 0 0 1 0 -774)">
			<stop  offset="0" style="stop-color:#FFE5D2"/>
			<stop  offset="1" style="stop-color:#F1BB8B"/>
		</linearGradient>
		<circle class="st1" cx="9.3" cy="6.2" r="4.5"/>
		<path class="st2" d="M9.3,2.4c2.1,0,3.9,1.7,3.9,3.8s-1.8,3.7-3.9,3.7S5.5,8.3,5.5,6.2S7.2,2.4,9.3,2.4 M9.3,1
			C6.4,1,4.2,3.3,4.2,6.2s2.2,5.1,5.1,5.1s5.2-2.3,5.2-5.2S12.1,1,9.3,1L9.3,1z"/>
	</g>
	
		<linearGradient id="SVGID_3_" gradientUnits="userSpaceOnUse" x1="9.3" y1="791.5" x2="9.3" y2="785.3125" gradientTransform="matrix(1 0 0 1 0 -774)">
		<stop  offset="0" style="stop-color:#7F3312"/>
		<stop  offset="1" style="stop-color:#AA4E35"/>
	</linearGradient>
	<path class="st3" d="M1,17.5c0-3.4,3.7-6.2,8.3-6.2s8.3,2.8,8.3,6.2"/>
</g>
<g>
	<g>
		
			<linearGradient id="SVGID_4_" gradientUnits="userSpaceOnUse" x1="14.8" y1="781.1875" x2="14.8" y2="790.125" gradientTransform="matrix(1 0 0 1 0 -774)">
			<stop  offset="0" style="stop-color:#FFE5D2"/>
			<stop  offset="1" style="stop-color:#F1BB8B"/>
		</linearGradient>
		<circle class="st4" cx="14.8" cy="11.7" r="4.5"/>
		<path class="st2" d="M14.8,7.9c2.1,0,3.9,1.6,3.9,3.9s-1.6,3.9-3.9,3.9s-3.8-1.9-3.8-4S12.7,7.9,14.8,7.9 M14.8,6.5
			c-2.9,0-5.1,2.3-5.1,5.2S12,17,14.9,17s5.2-2.3,5.2-5.2S17.6,6.5,14.8,6.5L14.8,6.5z"/>
	</g>
	
		<linearGradient id="SVGID_5_" gradientUnits="userSpaceOnUse" x1="14.75" y1="797" x2="14.75" y2="790.8125" gradientTransform="matrix(1 0 0 1 0 -774)">
		<stop  offset="0" style="stop-color:#3373B7"/>
		<stop  offset="1" style="stop-color:#42A4FC"/>
	</linearGradient>
	<path class="st5" d="M6.5,23c0-3.4,3.7-6.2,8.3-6.2S23,19.6,23,23"/>
</g>
</svg>
