<?xml version="1.0" encoding="utf-8"?>
<!-- Generator: Adobe Illustrator 21.0.0, SVG Export Plug-In . SVG Version: 6.00 Build 0)  -->
<svg version="1.1" id="图层_39" xmlns="http://www.w3.org/2000/svg" xmlns:xlink="http://www.w3.org/1999/xlink" x="0px" y="0px"
	 viewBox="0 0 24 24" style="enable-background:new 0 0 24 24;" xml:space="preserve">
<style type="text/css">
	.st0{fill:url(#SVGID_1_);}
	.st1{fill:none;stroke:#A1A1A1;stroke-miterlimit:10;}
	.st2{fill:none;}
	.st3{fill:#D5D5D5;}
</style>
<g>
	
		<linearGradient id="SVGID_1_" gradientUnits="userSpaceOnUse" x1="12" y1="775" x2="12" y2="797" gradientTransform="matrix(1 0 0 1 0 -774)">
		<stop  offset="0" style="stop-color:#EFEFEF"/>
		<stop  offset="1" style="stop-color:#D6D6BF"/>
	</linearGradient>
	<polygon class="st0" points="4,1 15,1 15,6 20,6 20,23 4,23 	"/>
	<polyline class="st1" points="4.5,7 4.5,1.5 16,1.5 19.5,6 19.5,7 	"/>
	<line class="st2" x1="19.1" y1="13.4" x2="19.1" y2="10.6"/>
	<polygon class="st1" points="15.5,6.5 15.5,5.1 15.5,1 15.5,1 	"/>
	<line class="st1" x1="15" y1="6.5" x2="19.1" y2="6.5"/>
</g>
<polyline class="st3" points="16,2 16,6 19,6 "/>
<line class="st1" x1="4.5" y1="9" x2="4.5" y2="11"/>
<line class="st1" x1="4.5" y1="13" x2="4.5" y2="15"/>
<line class="st1" x1="4.5" y1="17" x2="4.5" y2="19"/>
<polyline class="st1" points="19.5,21 19.5,22.5 17,22.5 "/>
<polyline class="st1" points="4.5,21 4.5,22.5 7,22.5 "/>
<line class="st1" x1="19.5" y1="9" x2="19.5" y2="11"/>
<line class="st1" x1="19.5" y1="13" x2="19.5" y2="15"/>
<line class="st1" x1="19.5" y1="17" x2="19.5" y2="19"/>
<line class="st1" x1="11" y1="22.5" x2="9" y2="22.5"/>
<line class="st1" x1="15" y1="22.5" x2="13" y2="22.5"/>
</svg>
