<?xml version="1.0" encoding="utf-8"?>
<!-- Generator: Adobe Illustrator 21.0.0, SVG Export Plug-In . SVG Version: 6.00 Build 0)  -->
<svg version="1.1" id="图层_39" xmlns="http://www.w3.org/2000/svg" xmlns:xlink="http://www.w3.org/1999/xlink" x="0px" y="0px"
	 viewBox="0 0 24 24" style="enable-background:new 0 0 24 24;" xml:space="preserve">
<style type="text/css">
	.st0{fill:url(#SVGID_1_);}
	.st1{fill:#AAAAAA;}
	.st2{fill:none;stroke:#AAAAAA;stroke-miterlimit:10;}
	.st3{fill:none;stroke:#D02200;stroke-miterlimit:10;}
</style>
<g>
	
		<linearGradient id="SVGID_1_" gradientUnits="userSpaceOnUse" x1="12" y1="796.5" x2="12" y2="775.5" gradientTransform="matrix(1 0 0 1 0 -774)">
		<stop  offset="0" style="stop-color:#CCCCCC"/>
		<stop  offset="1" style="stop-color:#FFFFFF"/>
	</linearGradient>
	<path class="st0" d="M12,22.5C6.2,22.5,1.5,17.8,1.5,12S6.2,1.5,12,1.5S22.5,6.2,22.5,12S17.8,22.5,12,22.5z"/>
	<path class="st1" d="M12,2c5.5,0,10,4.5,10,10s-4.5,10-10,10S2,17.5,2,12S6.5,2,12,2 M12,1C5.9,1,1,5.9,1,12s4.9,11,11,11
		s11-4.9,11-11S18.1,1,12,1L12,1z"/>
</g>
<line class="st2" x1="11.5" y1="19" x2="11.5" y2="21"/>
<line class="st2" x1="11.5" y1="3" x2="11.5" y2="5"/>
<line class="st2" x1="5" y1="12.5" x2="3" y2="12.5"/>
<line class="st2" x1="21" y1="12.5" x2="19" y2="12.5"/>
<line class="st3" x1="16" y1="12.5" x2="11" y2="12.5"/>
<line class="st3" x1="11.5" y1="8" x2="11.5" y2="13"/>
</svg>
