<?xml version="1.0" encoding="utf-8"?>
<!-- Generator: Adobe Illustrator 21.1.0, SVG Export Plug-In . SVG Version: 6.00 Build 0)  -->
<svg version="1.1" id="文件夹" xmlns="http://www.w3.org/2000/svg" xmlns:xlink="http://www.w3.org/1999/xlink" x="0px" y="0px"
	 viewBox="0 0 24 24" style="enable-background:new 0 0 24 24;" xml:space="preserve">
<style type="text/css">
	.st0{fill:none;stroke:#808080;stroke-miterlimit:10;}
</style>
<title>24</title>
<g id="_24">
	<polyline class="st0" points="23,22.5 4.5,22.5 4.5,7.5 11,7.5 14,10.5 22.5,10.5 22.5,23 	"/>
	<polyline class="st0" points="1.5,3 1.5,1.5 3,1.5 	"/>
	<polyline class="st0" points="10,3.5 11,4.5 12,4.5 	"/>
	<polyline class="st0" points="5,1.5 8,1.5 8.8,2.3 	"/>
	<line class="st0" x1="14" y1="4.5" x2="16" y2="4.5"/>
	<line class="st0" x1="19.5" y1="7" x2="19.5" y2="9"/>
	<line class="st0" x1="1.5" y1="5" x2="1.5" y2="7"/>
	<polyline class="st0" points="3,16.5 1.5,16.5 1.5,15 	"/>
	<line class="st0" x1="1.5" y1="9" x2="1.5" y2="11"/>
	<polyline class="st0" points="19.5,6 19.5,4.5 18,4.5 	"/>
</g>
</svg>
