<?xml version="1.0" encoding="utf-8"?>
<!-- Generator: Adobe Illustrator 21.0.0, SVG Export Plug-In . SVG Version: 6.00 Build 0)  -->
<svg version="1.1" id="图层_39" xmlns="http://www.w3.org/2000/svg" xmlns:xlink="http://www.w3.org/1999/xlink" x="0px" y="0px"
	 viewBox="0 0 24 24" style="enable-background:new 0 0 24 24;" xml:space="preserve">
<style type="text/css">
	.st0{fill:#AAAAAA;}
	.st1{fill:none;stroke:#AAAAAA;stroke-miterlimit:10;}
	.st2{fill:url(#SVGID_1_);}
	.st3{fill:#35434C;}
	.st4{fill:url(#SVGID_2_);}
</style>
<g>
	<path class="st0" d="M4.1,2v20H2V2H4.1 M5.1,1H1v22h4.1V2V1L5.1,1z"/>
</g>
<g>
	<path class="st0" d="M22,2v20h-2.1V2H22 M23,1h-4.1v22H23V2V1L23,1z"/>
</g>
<line class="st1" x1="1" y1="19.5" x2="22" y2="19.5"/>
<line class="st1" x1="1" y1="16.5" x2="22" y2="16.5"/>
<line class="st1" x1="1" y1="13.5" x2="22" y2="13.5"/>
<line class="st1" x1="1" y1="10.5" x2="22" y2="10.5"/>
<line class="st1" x1="1" y1="7.5" x2="22" y2="7.5"/>
<line class="st1" x1="1" y1="4.5" x2="22" y2="4.5"/>
<g>
	
		<linearGradient id="SVGID_1_" gradientUnits="userSpaceOnUse" x1="4.5" y1="786" x2="19.5" y2="786" gradientTransform="matrix(1 0 0 1 0 -774)">
		<stop  offset="0" style="stop-color:#B989E9"/>
		<stop  offset="1" style="stop-color:#5373C8"/>
	</linearGradient>
	<rect x="4.5" y="1.5" class="st2" width="15" height="21"/>
	<path class="st3" d="M19,2v20H5V2H19 M20,1H4v22h16V1L20,1z"/>
</g>
<linearGradient id="SVGID_2_" gradientUnits="userSpaceOnUse" x1="9" y1="786.5" x2="16" y2="786.5" gradientTransform="matrix(1 0 0 1 0 -774)">
	<stop  offset="0" style="stop-color:#FFFFFF"/>
	<stop  offset="1" style="stop-color:#DBDBDB"/>
</linearGradient>
<polygon class="st4" points="9,7 9,18 16,12.5 "/>
</svg>
