<?xml version="1.0" encoding="utf-8"?>
<!-- Generator: Adobe Illustrator 21.0.0, SVG Export Plug-In . SVG Version: 6.00 Build 0)  -->
<svg version="1.1" id="图层_39" xmlns="http://www.w3.org/2000/svg" xmlns:xlink="http://www.w3.org/1999/xlink" x="0px" y="0px"
	 viewBox="0 0 24 24" style="enable-background:new 0 0 24 24;" xml:space="preserve">
<style type="text/css">
	.st0{fill:#2368A6;}
	.st1{fill:#7CAFD6;}
	.st2{fill:#D0E9FE;}
	.st3{fill:url(#SVGID_1_);}
	.st4{fill:#4A7BA0;}
	.st5{fill:none;stroke:#68778A;stroke-width:2;stroke-miterlimit:10;}
	.st6{fill:none;stroke:#68778A;stroke-miterlimit:10;}
</style>
<circle class="st0" cx="14" cy="10" r="9"/>
<path class="st1" d="M16.1,5.1h2.8l1.4,2.8v1.4c0,0-1.4,2.8-1.4,1.4s-2.8-1.4-2.8-1.4V7.9V5.1z"/>
<path class="st2" d="M14.8,2.4L9.3,5.1L7.9,7.9l-1.4,2.8l2.8,4.1l4.1-5.5l1.4-2.8c0,0,2.8-1.4,2.8-2.8S14.8,2.4,14.8,2.4z"/>
<g>
	<g>
		
			<linearGradient id="SVGID_1_" gradientUnits="userSpaceOnUse" x1="9" y1="793.5" x2="9" y2="783.5" gradientTransform="matrix(1 0 0 1 0 -774)">
			<stop  offset="0" style="stop-color:#399FEA"/>
			<stop  offset="1" style="stop-color:#80C9FF"/>
		</linearGradient>
		<rect x="1.5" y="9.5" class="st3" width="15" height="10"/>
		<path class="st4" d="M16,10v9H2v-9H16 M17,9H1v11h16V9L17,9z"/>
	</g>
	<line class="st5" x1="9" y1="20" x2="9" y2="22.8"/>
	<line class="st6" x1="4" y1="22.5" x2="14" y2="22.5"/>
</g>
<polygon class="st2" points="20.3,7.9 20.3,12 17.5,14.8 17.5,16.1 20.3,14.8 21.6,10.6 "/>
</svg>
