<?xml version="1.0" encoding="utf-8"?>
<!-- Generator: Adobe Illustrator 18.0.0, SVG Export Plug-In . SVG Version: 6.00 Build 0)  -->
<!DOCTYPE svg PUBLIC "-//W3C//DTD SVG 1.1//EN" "http://www.w3.org/Graphics/SVG/1.1/DTD/svg11.dtd">
<svg version="1.1" id="图层_1" xmlns="http://www.w3.org/2000/svg" xmlns:xlink="http://www.w3.org/1999/xlink" x="0px" y="0px"
	 viewBox="0 0 24 24" enable-background="new 0 0 24 24" xml:space="preserve">
<g>
	<polygon fill="#AFD9E9" points="7.9,13 6.7,9.8 3.5,12.2 5.6,12.4 	"/>
	<polygon fill="none" points="12.7,20.3 12.7,20.3 12.7,20.3 	"/>
	<polygon fill="none" stroke="#231815" stroke-width="0.8829" points="12.1,14.4 12.2,14.5 12.2,14.4 	"/>
	<polygon fill="#1E95D4" points="12.2,14.5 15.2,15.7 16.1,13.6 12.1,14.4 	"/>
	<polygon fill="#AFD9E9" points="7.3,15.4 12.1,14.4 7.9,13 	"/>
	<polygon fill="#1E95D4" points="3.5,12.2 4.1,16.1 5.6,12.4 	"/>
	<polygon fill="#1888CA" points="5.6,12.4 4.1,16.1 7.9,13 	"/>
	<polygon fill="#1E95D4" points="4.1,16.1 7.3,15.4 7.9,13 	"/>
	<polygon fill="none" stroke="#231815" stroke-width="0.8829" points="7.3,6.1 7.4,6.2 7.4,6.1 	"/>
	<polygon fill="#0A5DA4" points="6.7,9.8 9.2,9.9 9.2,8.3 	"/>
	<polygon fill="#1888CA" points="12.1,12 9.2,9.9 7.9,13 	"/>
	<polygon fill="none" stroke="#231815" stroke-width="0.8829" points="7.4,6.1 7.3,6.1 7.4,6.1 	"/>
	<polygon fill="#1E95D4" points="7.9,13 9.2,9.9 6.7,9.8 	"/>
	<polygon fill="#0A5DA4" points="12.7,21.5 12.7,20.3 12.7,20.3 11.6,19.7 	"/>
	<polygon fill="#00417A" points="9.6,21.5 12.7,21.5 11.6,19.7 	"/>
	<polygon fill="#00417A" points="11.6,19.7 12.7,20.3 12.7,20.3 13.6,17.4 	"/>
	<polygon fill="#0A5DA4" points="16.5,21.3 18.8,19.2 16,19.5 	"/>
	<polygon fill="#00417A" points="13.5,23 16.7,23 16.5,21.3 14.5,21.7 16.6,22.9 14.5,21.7 16.5,21.3 16,19.5 	"/>
	<polygon fill="#0A5DA4" points="12.7,20.3 15.1,18.5 13.6,17.4 	"/>
	<polygon fill="#00417A" points="18.8,19.2 17.6,16.9 16,19.5 	"/>
	<polygon fill="#00417A" points="1.3,22.2 4.4,22.2 2.5,20.9 	"/>
	<polygon fill="#1888CA" points="11.7,1 8.7,3.9 10.2,3.4 	"/>
	<polygon fill="#1888CA" points="9,2 6.1,5 8,3.8 	"/>
	<polygon fill="#1888CA" points="15.1,18.5 16,19.5 17.6,16.9 13.6,17.4 	"/>
	<polygon fill="#1E95D4" points="10.2,3.4 8.7,3.9 10.4,4.6 	"/>
	<polygon fill="#AFD9E9" points="8.3,3.9 9,2 8,3.8 	"/>
	<polygon fill="#AFD9E9" points="10.4,4.6 11.7,1 10.2,3.4 	"/>
	<polygon fill="#1888CA" points="3.5,19.7 2.5,20.9 4.8,19.6 2.9,18.2 	"/>
	<polygon fill="#1E95D4" points="3.6,9.3 3.5,12.2 6.7,9.8 	"/>
	<polygon fill="#0A5DA4" points="4.4,22.2 4.8,19.6 2.5,20.9 	"/>
	<polygon fill="#0A5DA4" points="17.6,16.9 17.5,14.1 15.2,15.7 	"/>
	<polygon fill="#1E95D4" points="13.6,17.4 17.6,16.9 15.2,15.7 	"/>
	<polygon fill="#1888CA" points="15.2,15.7 17.5,14.1 16.1,13.6 	"/>
	<polygon fill="#1888CA" points="17.5,14.1 19.8,12.8 19,12.1 	"/>
	<polygon fill="#0A5DA4" points="11.9,16.3 13.6,17.4 15.2,15.7 	"/>
	<polygon fill="#1E95D4" points="17.3,13 16.1,13.6 17.5,14.1 19,12.1 	"/>
	<polygon fill="#00417A" points="10.2,17.2 11.9,16.3 7.3,15.4 	"/>
	<polygon fill="#1888CA" points="12.1,14.4 11.9,16.3 15.2,15.7 	"/>
	<polygon fill="#0A5DA4" points="12.1,14.4 7.3,15.4 11.9,16.3 	"/>
	<polygon fill="#AFD9E9" points="21.7,10.9 23.4,8.9 20.7,9.7 21.7,11 	"/>
	<polygon fill="#1888CA" points="21.1,13 22.9,12.4 21.7,11 	"/>
	<polygon fill="#0A5DA4" points="21.7,11 19.8,12.8 21.1,13 	"/>
	<polygon fill="#1E95D4" points="19,12.1 19.8,12.8 20.7,9.7 	"/>
	<polygon fill="#1E95D4" points="21.7,11 21.7,11 22.9,12.4 23.4,8.9 	"/>
	<polygon fill="#1888CA" points="20.7,9.7 19.8,12.8 21.7,11 	"/>
	<polygon fill="#1888CA" points="8,18.1 10.2,17.2 7.3,15.4 	"/>
	<polygon fill="#1888CA" points="6.7,9.8 3.7,6.3 3.6,9.3 	"/>
	<polygon fill="#1888CA" points="6.1,4.9 3.7,6.3 6.3,7 	"/>
	<polygon fill="#1E95D4" points="6.3,7 3.7,6.3 6.7,9.8 	"/>
	<polygon fill="#1E95D4" points="3.6,9.3 3.7,6.3 2.5,8.7 3.6,9.3 	"/>
	<polygon fill="#0A5DA4" points="6.7,9.8 7.4,6.2 7.3,6.1 6.1,4.9 6.3,7 	"/>
	<polygon fill="#1E95D4" points="7.4,6.2 8,3.8 6.1,4.9 7.3,6.1 	"/>
	<polygon fill="#0A5DA4" points="2.5,8.7 0.8,11.5 3.6,9.3 	"/>
	<polygon fill="#1888CA" points="3.6,9.3 3.6,9.3 0.8,11.5 3.5,12.2 	"/>
	<polygon fill="#00417A" points="4.8,19.6 6,17.7 4.1,16.1 	"/>
	<polygon fill="#1E95D4" points="6,17.7 8,18.1 7.3,15.4 	"/>
	<polygon fill="#0A5DA4" points="2.9,18.2 4.8,19.6 4.1,16.1 	"/>
	<polygon fill="#0A5DA4" points="4.1,16.1 6,17.7 7.3,15.4 	"/>
	<polygon fill="#0A5DA4" points="0.8,11.5 2.4,15.3 3.5,12.2 	"/>
	<polygon fill="#1E95D4" points="2.4,15.3 2.9,18.2 4.1,16.1 	"/>
	<polygon fill="#1888CA" points="3.5,12.2 2.4,15.3 4.1,16.1 	"/>
	<polygon fill="#AFD9E9" points="16.1,13.6 12.1,12 12.1,14.4 	"/>
	<polygon fill="#1E95D4" points="12.1,14.4 12.1,14.4 12.1,12 7.9,13 	"/>
	<polygon fill="#1888CA" points="7.4,6.2 6.7,9.8 9.2,8.3 	"/>
	<polygon fill="#1E95D4" points="7.4,6.2 9.2,8.3 11.1,7.4 7.4,6.1 	"/>
	<polygon fill="#AFD9E9" points="9.2,9.9 11.1,7.4 9.2,8.3 	"/>
	<polygon fill="#AFD9E9" points="7.4,6.2 11.1,7.4 10.4,4.6 	"/>
	<polygon fill="#1888CA" points="10.4,4.6 8.7,3.9 8,3.8 7.4,6.2 	"/>
</g>
</svg>
