<svg xmlns="http://www.w3.org/2000/svg" xmlns:xlink="http://www.w3.org/1999/xlink" viewBox="0 0 24 24"><defs><style>.cls-1{opacity:0.08;}.cls-2{opacity:0.1;}.cls-3{fill:url(#linear-gradient);}.cls-4{fill:#212121;}.cls-5{fill:url(#linear-gradient-2);}.cls-6{fill:url(#未命名的渐变_39);}.cls-7{fill:#01579b;}.cls-8,.cls-9{opacity:0.4;}.cls-8{fill:url(#linear-gradient-3);}.cls-9{fill:url(#linear-gradient-4);}.cls-10{fill:url(#未命名的渐变_15);}.cls-11{fill:#eee8d5;opacity:0.23;}.cls-11,.cls-14{isolation:isolate;}.cls-12{fill:#1d272b;}.cls-13{fill:#03a9f4;}.cls-14{opacity:0.2;}.cls-15{fill:#005e61;stroke:#005e61;stroke-width:0.5px;}.cls-15,.cls-20{stroke-miterlimit:10;}.cls-16{fill:url(#未命名的渐变_6);}.cls-17{fill:url(#未命名的渐变_5);}.cls-18{fill:url(#未命名的渐变_4);}.cls-19{fill:#666;}.cls-20{fill:none;stroke:red;}</style><linearGradient id="linear-gradient" x1="12" y1="4.08" x2="12" y2="19.92" gradientUnits="userSpaceOnUse"><stop offset="0" stop-color="#455a64"/><stop offset="1" stop-color="#263238"/></linearGradient><linearGradient id="linear-gradient-2" x1="12" y1="5.66" x2="12" y2="17.79" gradientUnits="userSpaceOnUse"><stop offset="0" stop-color="#b3e5fc"/><stop offset="1" stop-color="#0288d1"/></linearGradient><linearGradient id="未命名的渐变_39" x1="12" y1="17.42" x2="12" y2="6.04" gradientUnits="userSpaceOnUse"><stop offset="0" stop-color="#026ab5"/><stop offset="1" stop-color="#4fc3f7"/></linearGradient><linearGradient id="linear-gradient-3" x1="3.62" y1="6.59" x2="20.38" y2="6.59" gradientUnits="userSpaceOnUse"><stop offset="0" stop-color="#fff"/><stop offset="1" stop-color="#4fc3f7"/></linearGradient><linearGradient id="linear-gradient-4" x1="-1377.42" y1="477.56" x2="-1367.14" y2="477.56" gradientTransform="translate(-473.76 -1360.37) rotate(-90)" gradientUnits="userSpaceOnUse"><stop offset="0" stop-color="#0288d1"/><stop offset="1" stop-color="#fff"/></linearGradient><radialGradient id="未命名的渐变_15" cx="27.6" cy="3.24" r="9.86" gradientTransform="translate(-14.63 10.2) scale(0.96 0.89)" xlink:href="#linear-gradient-2"/><linearGradient id="未命名的渐变_6" x1="-2194.36" y1="-1861.59" x2="-2194.36" y2="-1856.43" gradientTransform="translate(2202.4 1872.01)" gradientUnits="userSpaceOnUse"><stop offset="0" stop-color="#4cb56d"/><stop offset="0.24" stop-color="#4bb56f"/><stop offset="0.41" stop-color="#48b476"/><stop offset="0.55" stop-color="#44b181"/><stop offset="0.68" stop-color="#3ead90"/><stop offset="0.79" stop-color="#36a99f"/></linearGradient><linearGradient id="未命名的渐变_5" x1="-2193.07" y1="-1861.59" x2="-2193.07" y2="-1856.43" gradientTransform="translate(2202.4 1872.01)" gradientUnits="userSpaceOnUse"><stop offset="0" stop-color="#3b8ecb"/><stop offset="0.15" stop-color="#3a92c7"/><stop offset="0.42" stop-color="#389bbc"/><stop offset="0.78" stop-color="#36a7a4"/><stop offset="0.84" stop-color="#36a99f"/></linearGradient><linearGradient id="未命名的渐变_4" x1="-2194.36" y1="-1860.66" x2="-2194.36" y2="-1857.37" gradientTransform="translate(2202.4 1872.01)" gradientUnits="userSpaceOnUse"><stop offset="0" stop-color="#f7f8f8"/><stop offset="0.29" stop-color="#efefef"/><stop offset="0.61" stop-color="#e8e8e8"/><stop offset="1" stop-color="#e6e6e5"/></linearGradient></defs><title>画板 24</title><g id="显示桌面"><g id="_24" data-name="24"><path class="cls-1" d="M20.85,17.52V6.3H3.51V17.52Z"/><path class="cls-2" d="M21,17.7V6.12H3.33V17.7Z"/><rect class="cls-3" x="1.25" y="4.08" width="21.5" height="15.84"/><path class="cls-4" d="M22.5,4.33V19.67H1.5V4.33h21m.5-.5H1V20.17H23V3.83Z"/><rect id="rect3008" class="cls-5" x="2.88" y="5.66" width="18.24" height="12.13"/><g id="rect3008-2" data-name="rect3008"><rect class="cls-6" x="3.25" y="6.04" width="17.49" height="11.38"/><path class="cls-7" d="M20.37,6.41V17H3.63V6.41H20.37m.75-.75H2.88V17.79H21.12V5.66Z"/></g><rect class="cls-8" x="3.62" y="6.41" width="16.76" height="0.36"/><rect class="cls-9" x="3.62" y="6.77" width="0.36" height="10.27"/><rect class="cls-10" x="3.62" y="15.56" width="16.75" height="1.49"/><path id="rect3008-0" class="cls-11" d="M14.45,5.66l-5,12.13H21.12V5.66Z"/><circle class="cls-12" cx="11.95" cy="18.73" r="0.57"/><circle class="cls-13" cx="11.95" cy="18.77" r="0.43"/><circle class="cls-14" cx="8.04" cy="13" r="3.15"/><path class="cls-15" d="M8,15.63A2.63,2.63,0,1,1,10.67,13,2.63,2.63,0,0,1,8,15.63Z"/><circle class="cls-16" cx="8.04" cy="13" r="2.58"/><path class="cls-17" d="M10.62,13A2.59,2.59,0,0,0,8,10.42v5.16A2.59,2.59,0,0,0,10.62,13Z"/><circle class="cls-18" cx="8.04" cy="13" r="1.65"/><path class="cls-19" d="M9,13l-.92-.85a.07.07,0,0,0-.07,0L7.09,13a.05.05,0,0,0,0,.09h.28a.05.05,0,0,1,.05.05v.69a.05.05,0,0,0,.05.05H8.58a.05.05,0,0,0,.05-.05v-.69a.05.05,0,0,1,.05-.05H9A.05.05,0,0,0,9,13Z"/></g></g><g id="规范"><rect class="cls-20" x="-54.67" y="-32.3" width="90.61" height="84.25"/></g></svg>