<?xml version="1.0" encoding="utf-8"?>
<!-- Generator: Adobe Illustrator 21.0.0, SVG Export Plug-In . SVG Version: 6.00 Build 0)  -->
<svg version="1.1" id="svg" xmlns="http://www.w3.org/2000/svg" xmlns:xlink="http://www.w3.org/1999/xlink" x="0px" y="0px"
	 viewBox="0 0 24 24" style="enable-background:new 0 0 24 24;" xml:space="preserve">
<style type="text/css">
	.st0{fill:#5C4037;}
	.st1{fill:url(#SVGID_1_);}
	.st2{fill:#AE1F24;}
	.st3{opacity:0.3;fill:#DA706F;enable-background:new    ;}
	.st4{opacity:0.65;fill:url(#SVGID_2_);enable-background:new    ;}
	.st5{fill:url(#SVGID_3_);}
	.st6{fill:#720914;}
</style>
<polygon class="st0" points="3,23 3,6 1.5,6 1.5,3 7,3 7,1 17,1 17,3 22.5,3 22.5,6 21,6 21,23 "/>
<linearGradient id="SVGID_1_" gradientUnits="userSpaceOnUse" x1="3.5" y1="-1861.28" x2="20.5" y2="-1861.28" gradientTransform="matrix(1 0 0 -1 0 -1847.28)">
	<stop  offset="0" style="stop-color:#F8CACE"/>
	<stop  offset="0.48" style="stop-color:#DA706F"/>
	<stop  offset="0.49" style="stop-color:#DA706F"/>
	<stop  offset="0.52" style="stop-color:#DA706F"/>
	<stop  offset="1" style="stop-color:#F8CACE"/>
</linearGradient>
<rect x="3.5" y="5.5" class="st1" width="17" height="17"/>
<rect x="16" y="8.5" class="st2" width="2" height="12"/>
<rect x="6" y="8.5" class="st2" width="2" height="12"/>
<rect x="11" y="8.5" class="st2" width="2" height="12"/>
<rect x="3.5" y="5.5" class="st3" width="17" height="1"/>
<rect x="2" y="3.5" class="st2" width="20" height="1.5"/>
<linearGradient id="SVGID_2_" gradientUnits="userSpaceOnUse" x1="2" y1="-1851.78" x2="22" y2="-1851.78" gradientTransform="matrix(1 0 0 -1 0 -1847.28)">
	<stop  offset="0.05" style="stop-color:#DA706F"/>
	<stop  offset="0.25" style="stop-color:#DA706F"/>
	<stop  offset="0.51" style="stop-color:#AE1F24"/>
	<stop  offset="0.74" style="stop-color:#DA706F"/>
	<stop  offset="1" style="stop-color:#DA706F"/>
</linearGradient>
<rect x="2" y="3.5" class="st4" width="20" height="2"/>
<linearGradient id="SVGID_3_" gradientUnits="userSpaceOnUse" x1="7.5" y1="-1849.78" x2="16.5" y2="-1849.78" gradientTransform="matrix(1 0 0 -1 0 -1847.28)">
	<stop  offset="0.05" style="stop-color:#AE1F24"/>
	<stop  offset="0.25" style="stop-color:#DA706F"/>
	<stop  offset="0.51" style="stop-color:#DA706F"/>
	<stop  offset="0.74" style="stop-color:#DA706F"/>
	<stop  offset="1" style="stop-color:#AE1F24"/>
</linearGradient>
<polygon class="st5" points="7.5,1.5 7.5,3.5 8.9,3.5 8.9,2.5 15.1,2.5 15.1,3.5 16.5,3.5 16.5,1.5 "/>
<rect x="2" y="5" class="st6" width="20" height="0.5"/>
</svg>
