<?xml version="1.0" encoding="iso-8859-1"?>
<!-- Generator: Adobe Illustrator 21.0.0, SVG Export Plug-In . SVG Version: 6.00 Build 0)  -->
<svg version="1.0" id="&#x56FE;&#x5C42;_1" xmlns="http://www.w3.org/2000/svg" xmlns:xlink="http://www.w3.org/1999/xlink" x="0px"
	 y="0px" width="48px" height="48px" viewBox="0 0 48 48" enable-background="new 0 0 48 48" xml:space="preserve">
<title>48</title>
<g id="&#x5E95;&#x677F;_&#x590D;&#x5236;">
	<g id="&#x6DF1;&#x7070;&#x8272;">
		<g id="_48">
			<g opacity="0.2">
				<path d="M24,45.5c-7.3,0-13.5-1.8-16.6-4.9c-6.7-6.7-6.7-26.5,0-33.1c3.1-3.1,9.3-4.9,16.6-4.9s13.5,1.8,16.6,4.9
					c6.7,6.7,6.7,26.5,0,33.1C37.5,43.7,31.3,45.5,24,45.5z"/>
			</g>
			<g opacity="8.000000e-02">
				<path d="M25,47.5c-7.5,0-14-2-17.3-5.2c-7.1-7.1-7.1-27.4,0-34.5C11,4.5,17.5,2.5,25,2.5s14,2,17.3,5.2c7.1,7.1,7.1,27.4,0,34.5
					C39,45.5,32.5,47.5,25,47.5z"/>
			</g>
			<g opacity="0.1">
				<path d="M25,46.5c-7.3,0-13.5-1.8-16.6-4.9c-6.7-6.7-6.7-26.5,0-33.1c3.1-3.1,9.3-4.9,16.6-4.9s13.5,1.8,16.6,4.9
					c6.7,6.7,6.7,26.5,0,33.1C38.5,44.7,32.3,46.5,25,46.5z"/>
			</g>
			<g id="_48-2">
				
					<linearGradient id="SVGID_1_" gradientUnits="userSpaceOnUse" x1="24" y1="5.495" x2="24" y2="46.4826" gradientTransform="matrix(1 0 0 -1 0 49.9698)">
					<stop  offset="0" style="stop-color:#DAE1E4"/>
					<stop  offset="1" style="stop-color:#F3F4FA"/>
				</linearGradient>
				<path fill="url(#SVGID_1_)" d="M39.9,39.9c-6.2,6.1-25.5,6.1-31.7,0S2,14.3,8.1,8.1s25.5-6.1,31.7,0S46,33.7,39.9,39.9z"/>
			</g>
			<g>
				
					<linearGradient id="SVGID_2_" gradientUnits="userSpaceOnUse" x1="24" y1="7.47" x2="24" y2="44.47" gradientTransform="matrix(1 0 0 -1 0 49.9698)">
					<stop  offset="0" style="stop-color:#CFD8DC"/>
					<stop  offset="1" style="stop-color:#EBECF2"/>
				</linearGradient>
				<path fill="url(#SVGID_2_)" d="M24,42.5c-6.3,0-12-1.6-14.4-4.1C4.2,33,4.2,15,9.6,9.6C12,7.1,17.7,5.5,24,5.5s12,1.6,14.4,4.1
					c5.4,5.4,5.4,23.5,0,28.9C36,40.9,30.3,42.5,24,42.5z"/>
			</g>
		</g>
	</g>
</g>
<g id="&#x56FE;&#x5C42;_139">
	<g id="_48-3">
		<polyline opacity="0.2" enable-background="new    " points="16,12 34,12 37,16 37,38 13,38 13,16 16,12 		"/>
		
			<linearGradient id="SVGID_3_" gradientUnits="userSpaceOnUse" x1="24" y1="4136.8301" x2="24" y2="4120.6699" gradientTransform="matrix(1 0 0 1 0 -4095.9702)">
			<stop  offset="0" style="stop-color:#90A4AE"/>
			<stop  offset="1" style="stop-color:#E0E0E0"/>
		</linearGradient>
		<rect x="12" y="15" fill="url(#SVGID_3_)" width="24" height="22"/>
		<rect x="12" y="36" fill="#455A64" width="24" height="1"/>
		
			<linearGradient id="SVGID_4_" gradientUnits="userSpaceOnUse" x1="24" y1="4102.2202" x2="24" y2="4111.0498" gradientTransform="matrix(1 0 0 1 0 -4095.9702)">
			<stop  offset="0" style="stop-color:#90A4AE"/>
			<stop  offset="1" style="stop-color:#E0E0E0"/>
		</linearGradient>
		<polygon fill="url(#SVGID_4_)" points="15,11 12,15 36,15 33,11 		"/>
		<rect x="14" y="16" fill="#0288D1" width="20" height="7"/>
		
			<linearGradient id="SVGID_5_" gradientUnits="userSpaceOnUse" x1="24" y1="4117.9702" x2="24" y2="4112.9702" gradientTransform="matrix(1 0 0 1 0 -4095.9702)">
			<stop  offset="0" style="stop-color:#03A9F4"/>
			<stop  offset="1" style="stop-color:#4FC3F7"/>
		</linearGradient>
		<rect x="15" y="17" fill="url(#SVGID_5_)" width="18" height="5"/>
		<rect x="14" y="24" fill="#0288D1" width="20" height="10"/>
		
			<linearGradient id="SVGID_6_" gradientUnits="userSpaceOnUse" x1="24" y1="4128.9702" x2="24" y2="4120.9702" gradientTransform="matrix(1 0 0 1 0 -4095.9702)">
			<stop  offset="0" style="stop-color:#03A9F4"/>
			<stop  offset="1" style="stop-color:#4FC3F7"/>
		</linearGradient>
		<rect x="15" y="25" fill="url(#SVGID_6_)" width="18" height="8"/>
		<polygon fill="#CFD8DC" stroke="#455A64" stroke-miterlimit="10" points="21.5,15.5 22.4,18 26.6,18 27.5,15.5 		"/>
		<polygon fill="#CFD8DC" stroke="#455A64" stroke-miterlimit="10" points="21.5,23.5 22.4,26 26.6,26 27.5,23.5 		"/>
		<rect x="14" y="23" fill="#90A4AE" width="20" height="1"/>
		<rect x="12" y="15" fill="#90A4AE" width="24" height="1"/>
	</g>
</g>
</svg>
