<?xml version="1.0" encoding="utf-8"?>
<!-- Generator: Adobe Illustrator 21.0.0, SVG Export Plug-In . SVG Version: 6.00 Build 0)  -->
<svg version="1.1" id="图层_15" xmlns="http://www.w3.org/2000/svg" xmlns:xlink="http://www.w3.org/1999/xlink" x="0px" y="0px"
	 viewBox="0 0 32 32" style="enable-background:new 0 0 32 32;" xml:space="preserve">
<style type="text/css">
	.st0{fill:#FFFFFF;}
</style>
<title>32</title>
<g id="_32">
	<polygon class="st0" points="25,20 25,26.3 16.5,28.9 16.5,17.3 15.5,17.3 15.5,28.9 7,26.3 7,20 6,20 6,27 15.5,30 16.5,30 26,27 
		26,20 	"/>
	<path class="st0" d="M16,8.4L18.9,2l10,4.5L26,12.9L16,8.4z M19.4,3.3l-2,4.6l8.2,3.7l2-4.6L19.4,3.3z"/>
	<path class="st0" d="M6,12.9L3.1,6.5l10-4.5L16,8.4L6,12.9z M4.4,7l2,4.6l8.2-3.7l-2-4.6L4.4,7z"/>
	<path class="st0" d="M26,12.8l2.9,6.4l-10,4.5L16,17.3L26,12.8z M27.5,18.7l-2-4.6l-8.2,3.7l2,4.6L27.5,18.7z"/>
	<path class="st0" d="M16,17.3l-2.9,6.4l-10-4.5L6,12.8L16,17.3z M12.6,22.4l2-4.6l-8.2-3.7l-2,4.6L12.6,22.4z"/>
</g>
</svg>
