<?xml version="1.0" encoding="utf-8"?>
<!-- Generator: Adobe Illustrator 21.0.0, SVG Export Plug-In . SVG Version: 6.00 Build 0)  -->
<svg version="1.1" id="图层_170" xmlns="http://www.w3.org/2000/svg" xmlns:xlink="http://www.w3.org/1999/xlink" x="0px" y="0px"
	 viewBox="0 0 16 16" style="enable-background:new 0 0 16 16;" xml:space="preserve">
<style type="text/css">
	.st0{fill:#808080;}
</style>
<title>16</title>
<g id="_16">
	<path class="st0" d="M8,1.2L8,1.2c0.8,0.7,1.6,1.2,2.6,1.7C11.7,3.4,12.8,3.8,14,4c0.1,1.4,0.1,2.8-0.1,4.2C13.6,11.6,9.4,15,8,15
		s-5.6-3.4-5.9-6.9C2,6.7,1.9,5.3,2,3.9c1.1-0.3,2.3-0.6,3.3-1C6.3,2.5,7.2,1.9,8,1.2L8,1.2 M8,0C7.7,0,6.5,1.4,5,2
		C3.7,2.5,2.4,2.8,1.1,3.1C1,4.8,1,6.5,1.1,8.3C1.5,12.1,6,16,8,16s6.5-3.9,6.9-7.7c0.1-1.7,0.1-3.5,0-5.2l0,0
		C13.6,2.9,12.2,2.6,11,2C10,1.4,9,0.7,8,0z"/>
</g>
</svg>
