<svg id="其他" xmlns="http://www.w3.org/2000/svg" xmlns:xlink="http://www.w3.org/1999/xlink" viewBox="0 0 256 256"><defs><style>.cls-1{opacity:0.2;}.cls-2{opacity:0.1;}.cls-3{fill:#455a64;}.cls-4{fill:url(#linear-gradient);}.cls-17,.cls-18,.cls-5,.cls-6{fill-rule:evenodd;}.cls-5{fill:url(#linear-gradient-2);}.cls-6{fill:url(#linear-gradient-3);}.cls-7{fill:url(#linear-gradient-4);}.cls-8{fill:url(#linear-gradient-5);}.cls-9{fill:url(#linear-gradient-6);}.cls-10{fill:#fff;opacity:0.24;}.cls-10,.cls-16,.cls-17,.cls-18{isolation:isolate;}.cls-11{fill:url(#linear-gradient-7);}.cls-12{fill:url(#GradientFill_77);}.cls-13{fill:url(#linear-gradient-8);}.cls-14{fill:url(#linear-gradient-9);}.cls-15{fill:url(#linear-gradient-10);}.cls-17{fill:#33691e;}.cls-18{fill:#dcedc8;}</style><linearGradient id="linear-gradient" x1="59.14" y1="243.61" x2="197.52" y2="243.61" gradientUnits="userSpaceOnUse"><stop offset="0" stop-color="#adc1c9"/><stop offset="1" stop-color="#6c91a3"/></linearGradient><linearGradient id="linear-gradient-2" x1="97.58" y1="15.7" x2="158.71" y2="15.7" gradientUnits="userSpaceOnUse"><stop offset="0" stop-color="#cde0e8"/><stop offset="1" stop-color="#90a4ae"/></linearGradient><linearGradient id="linear-gradient-3" x1="97.58" y1="17.68" x2="158.71" y2="17.68" xlink:href="#linear-gradient"/><linearGradient id="linear-gradient-4" x1="59.14" y1="29.16" x2="197.52" y2="29.16" xlink:href="#linear-gradient"/><linearGradient id="linear-gradient-5" x1="61.89" y1="23.52" x2="194.15" y2="23.52" xlink:href="#linear-gradient-2"/><linearGradient id="linear-gradient-6" x1="128" y1="236.95" x2="128" y2="37.21" gradientUnits="userSpaceOnUse"><stop offset="0.24" stop-color="#689f38"/><stop offset="0.94" stop-color="#8bc34a"/></linearGradient><linearGradient id="linear-gradient-7" x1="59.14" y1="237.84" x2="196.86" y2="237.84" gradientUnits="userSpaceOnUse"><stop offset="0" stop-color="#dce775"/><stop offset="1" stop-color="#aed581"/></linearGradient><linearGradient id="GradientFill_77" x1="59.14" y1="239.36" x2="196.86" y2="239.36" gradientUnits="userSpaceOnUse"><stop offset="0" stop-color="#f6f7f7"/><stop offset="0.12" stop-color="#dedede"/><stop offset="0.24" stop-color="#f5f4f4"/><stop offset="0.56" stop-color="#f5f4f4"/><stop offset="0.61" stop-color="#e1e3df"/><stop offset="0.88" stop-color="#9f9e9b"/><stop offset="0.92" stop-color="#ced1cd"/><stop offset="1" stop-color="#f6f7f7"/></linearGradient><linearGradient id="linear-gradient-8" x1="59.14" y1="239.36" x2="196.86" y2="239.36" xlink:href="#linear-gradient-2"/><linearGradient id="linear-gradient-9" x1="59.14" y1="36.3" x2="196.86" y2="36.3" gradientUnits="userSpaceOnUse"><stop offset="0" stop-color="#90a4ae"/><stop offset="1" stop-color="#607d8b"/></linearGradient><linearGradient id="linear-gradient-10" x1="59.14" y1="37.57" x2="196.86" y2="37.57" xlink:href="#linear-gradient-7"/></defs><title>画板 18</title><g id="电池"><path class="cls-1" d="M55.17,252V18.77l38.44-.05V11.26c0-4.07,4-7.26,9-7.26h50.69c5.07,0,9,3.19,9,7.26v7.51h38.45V252Z"/><path class="cls-2" d="M55.17,256V18.78l38.44-.05V13.26c0-5.19,4.85-9.26,11-9.26h50.69c6.19,0,11,4.07,11,9.26v5.51h38.45V256Z"/><path class="cls-2" d="M57.17,254V20.77l38.44-.05V13.26c0-4.07,4-7.26,9-7.26h50.69c5.07,0,9,3.19,9,7.26v7.51h38.45V254Z"/><path class="cls-3" d="M196.86,20.77H160.38V11.26c0-2.95-3.09-5.26-7-5.26H102.65c-3.95,0-7,2.31-7,5.26v9.46l-36.48.05h-2V250H198.83V20.77Z"/><rect class="cls-4" x="59.14" y="239.19" width="137.72" height="8.84"/><path class="cls-5" d="M153.35,8H102.65c-2.79,0-5.07,1.48-5.07,3.29V23.44h60.83V11.26C158.41,9.45,156.13,8,153.35,8Z"/><path class="cls-6" d="M153.35,9.95H102.65c-2.79,0-5.07,1.48-5.07,3.29V25.42h60.83V13.24C158.41,11.43,156.13,9.95,153.35,9.95Z"/><rect class="cls-7" x="59.14" y="22.74" width="137.72" height="12.84"/><rect class="cls-8" x="59.14" y="22.74" width="137.72" height="1.56"/><rect class="cls-9" x="59.14" y="36.49" width="137.72" height="202.07"/><rect class="cls-10" x="85.53" y="22.68" width="35.98" height="225.35"/><rect class="cls-10" x="106.96" y="7.97" width="23.25" height="14.71"/><rect class="cls-11" x="59.14" y="237.12" width="137.72" height="1.44"/><rect class="cls-12" x="59.14" y="238.64" width="137.72" height="1.44"/><rect class="cls-13" x="59.14" y="238.64" width="137.72" height="1.44"/><rect class="cls-14" x="59.14" y="35.58" width="137.72" height="1.43"/><rect class="cls-15" x="59.14" y="36.85" width="137.72" height="1.43"/><g class="cls-16"><polygon class="cls-17" points="129.52 42.65 141 54.13 118.03 54.13 129.52 42.65"/><polygon class="cls-17" points="126.98 63.26 132.05 63.26 132.05 75.19 143.98 75.19 143.98 80.25 132.05 80.25 132.05 92.18 126.98 92.18 126.98 80.25 115.05 80.25 115.05 75.19 126.98 75.19 126.98 63.26"/></g><polygon class="cls-18" points="128.03 41.16 139.51 52.64 116.55 52.64 128.03 41.16"/><polygon class="cls-18" points="125.5 61.77 130.56 61.77 130.56 73.7 142.5 73.7 142.5 78.77 130.56 78.77 130.56 90.7 125.5 90.7 125.5 78.77 113.57 78.77 113.57 73.7 125.5 73.7 125.5 61.77"/></g></svg>