<svg id="其他" xmlns="http://www.w3.org/2000/svg" xmlns:xlink="http://www.w3.org/1999/xlink" viewBox="0 0 256 256"><defs><style>.cls-1{opacity:0.2;}.cls-2{opacity:0.1;}.cls-3{opacity:0.08;}.cls-4{fill:#263238;}.cls-5{fill:#455a64;}.cls-6{fill:url(#linear-gradient);}.cls-7{fill:#90a4ae;}.cls-8,.cls-9{fill:url(#linear-gradient-2);}.cls-9{stroke:#01579b;stroke-miterlimit:10;stroke-width:8px;}.cls-10,.cls-11{opacity:0.8;}.cls-10{fill:url(#linear-gradient-4);}.cls-11{fill:url(#linear-gradient-5);}.cls-12{fill:#293a3f;}.cls-13{fill:url(#linear-gradient-6);}.cls-14{fill:#eee8d5;opacity:0.23;isolation:isolate;}.cls-15{fill:#1d272b;}.cls-16{fill:#03a9f4;}</style><linearGradient id="linear-gradient" x1="128.75" y1="237.05" x2="128.75" y2="207.97" gradientUnits="userSpaceOnUse"><stop offset="0" stop-color="#90a4ae"/><stop offset="1" stop-color="#455a64"/></linearGradient><linearGradient id="linear-gradient-2" x1="127.98" y1="40.33" x2="127.98" y2="174.25" gradientUnits="userSpaceOnUse"><stop offset="0" stop-color="#b3e5fc"/><stop offset="1" stop-color="#0288d1"/></linearGradient><linearGradient id="linear-gradient-4" x1="27" y1="46.06" x2="228.9" y2="46.06" gradientUnits="userSpaceOnUse"><stop offset="0" stop-color="#fff"/><stop offset="1" stop-color="#4fc3f7"/></linearGradient><linearGradient id="linear-gradient-5" x1="-611.18" y1="-647.52" x2="-488.65" y2="-647.52" gradientTransform="translate(676.59 -440.69) rotate(-90)" gradientUnits="userSpaceOnUse"><stop offset="0" stop-color="#0288d1"/><stop offset="1" stop-color="#fff"/></linearGradient><linearGradient id="linear-gradient-6" x1="128" y1="26.32" x2="128" y2="193.96" gradientUnits="userSpaceOnUse"><stop offset="0" stop-color="#607d8b"/><stop offset="1" stop-color="#455a64"/></linearGradient></defs><title>画板 18</title><g id="电脑"><path class="cls-1" d="M59.5,233.56c-5.51,0-10-4.15-10-9.25v-7.8l38.62-17.95H94v-.67H4V22.44H252V197.89H162v.67h5.93L208,216.47v7.84c0,5.1-4.49,9.25-10,9.25Z"/><path class="cls-2" d="M61.5,237.56c-6.62,0-12-5-12-11.25v-9.08l33-15.34H4V22.44H256V201.89H177.78L212,217.17v9.14c0,6.2-5.38,11.25-12,11.25Z"/><path class="cls-2" d="M61.5,235.56c-5.51,0-10-4.15-10-9.25v-7.8l38.62-17.95H96v-.67H6V24.44H254V199.89H164v.67h5.93L210,218.47v7.84c0,5.1-4.49,9.25-10,9.25Z"/><path class="cls-3" d="M228.94,170.49V48H31.06V170.49Z"/><path class="cls-2" d="M230.94,172.41V46.05H29.06V172.41Z"/><path class="cls-4" d="M59.5,231.56c-4.41,0-8-3.25-8-7.25v-6.52l37.06-17.22h78.92L206,217.77v6.55c0,4-3.59,7.25-8,7.25Z"/><path class="cls-5" d="M167,202.56H89l-35.5,16.5v5.25c0,2.89,2.7,5.25,6,5.25H198c3.3,0,6-2.36,6-5.25v-5.25Z"/><polygon class="cls-6" points="53.5 219.06 89 202.56 167.05 202.56 204 219.06 53.5 219.06"/><path class="cls-7" d="M198,219.06H53.5v5.25c0,2.89,2.7,5.25,6,5.25H198c3.3,0,6-2.36,6-5.25v-5.25Z"/><path class="cls-4" d="M6,24.44V195.89H96v15.91h64V195.89h90V24.44ZM230.94,42.22V172.41H25.06V42.22Z"/><g id="最近文件"><rect id="rect3008" class="cls-8" x="23.09" y="40.33" width="209.78" height="133.92"/><rect id="rect3008-2" data-name="rect3008" class="cls-9" x="23.09" y="40.33" width="209.78" height="133.92"/><rect class="cls-10" x="27" y="44.16" width="201.9" height="3.8"/><rect class="cls-11" x="27.08" y="47.97" width="3.97" height="122.53"/><rect class="cls-12" x="98" y="192.77" width="60" height="17.1"/><path class="cls-13" d="M8,26.32V194H248V26.32ZM232.88,174.25H23.12V40.33H232.88Z"/></g><path id="rect3008-0" class="cls-14" d="M154.87,40.32,100.58,174.08h132.3V40.32Z"/><circle class="cls-15" cx="128.62" cy="184.02" r="7.5"/><circle class="cls-16" cx="128.62" cy="184.52" r="5.7"/></g></svg>