<?xml version="1.0" encoding="iso-8859-1"?>
<!-- Generator: Adobe Illustrator 21.0.0, SVG Export Plug-In . SVG Version: 6.00 Build 0)  -->
<svg version="1.1" id="&#x56FE;&#x5C42;_1" xmlns="http://www.w3.org/2000/svg" xmlns:xlink="http://www.w3.org/1999/xlink" x="0px"
	 y="0px" viewBox="0 0 256 256" style="enable-background:new 0 0 256 256;" xml:space="preserve">
<title>画板 18</title>
<g id="&#x5F00;&#x59CB;&#x83DC;&#x5355;&#x5E94;&#x7528;&#x56FE;&#x6807;">
	<g id="&#x5E73;&#x677F;">
		<g id="_256">
			<path style="opacity:0.08;enable-background:new    ;" d="M44.29,5h171.42c12.228,0,22.14,9.912,22.14,22.14l0,0v205.71
				c0,12.229-9.911,22.144-22.14,22.15H44.29c-12.228,0-22.14-9.912-22.14-22.14l0,0V27.15C22.15,14.921,32.061,5.006,44.29,5z"/>
			<path style="opacity:0.1;enable-background:new    ;" d="M44.28,7h171.43c11.123,0,20.14,9.017,20.14,20.14v205.72
				c0,11.123-9.017,20.14-20.14,20.14H44.28c-11.123,0-20.14-9.017-20.14-20.14V27.14C24.14,16.017,33.157,7,44.28,7z"/>
			<path style="opacity:0.2;enable-background:new    ;" d="M42.29,5h171.42c11.123,0,20.14,9.017,20.14,20.14l0,0v205.71
				c0,11.125-9.015,20.144-20.14,20.15H42.29c-11.123,0-20.14-9.017-20.14-20.14l0,0V25.15C22.15,14.025,31.165,5.006,42.29,5z"/>
			<path style="fill:#212121;" d="M42.29,7h171.42c10.018,0,18.14,8.122,18.14,18.14l0,0v205.72c0,10.018-8.122,18.14-18.14,18.14
				l0,0H42.29c-10.024,0-18.15-8.126-18.15-18.15V25.14C24.14,15.122,32.262,7,42.28,7C42.283,7,42.287,7,42.29,7z"/>
			
				<linearGradient id="SVGID_1_" gradientUnits="userSpaceOnUse" x1="128" y1="10" x2="128" y2="250" gradientTransform="matrix(1 0 0 -1 0 258)">
				<stop  offset="0" style="stop-color:#263238"/>
				<stop  offset="1" style="stop-color:#455A64"/>
			</linearGradient>
			<path style="fill:url(#SVGID_1_);" d="M42.29,8h171.42c9.472,0,17.15,7.678,17.15,17.15v205.71c0,9.466-7.674,17.14-17.14,17.14
				c-0.003,0-0.007,0-0.01,0H42.29c-9.472,0-17.15-7.678-17.15-17.15V25.14C25.14,15.674,32.814,8,42.28,8
				C42.283,8,42.287,8,42.29,8z"/>
			<path style="fill:#212121;" d="M213.71,7H42.29c-10.016,0.011-18.133,8.125-18.15,18.14v205.72
				c0.017,10.015,8.134,18.129,18.15,18.14h171.42c10.016-0.011,18.133-8.125,18.15-18.14V25.14
				C231.843,15.125,223.726,7.011,213.71,7z M229.86,230.86c-0.011,8.913-7.237,16.134-16.15,16.14H42.29
				c-8.913-0.006-16.139-7.227-16.15-16.14V25.14C26.151,16.227,33.377,9.006,42.29,9h171.42c8.913,0.006,16.139,7.227,16.15,16.14
				V230.86z"/>
			
				<linearGradient id="SVGID_2_" gradientUnits="userSpaceOnUse" x1="42.29" y1="142.86" x2="213.71" y2="142.86" gradientTransform="matrix(1 0 0 -1 0 258)">
				<stop  offset="0" style="stop-color:#B3E5FC"/>
				<stop  offset="1" style="stop-color:#0288D1"/>
			</linearGradient>
			
				<rect x="42.29" y="25.14" style="fill:url(#SVGID_2_);stroke:#01579B;stroke-width:4;stroke-miterlimit:10;" width="171.42" height="180"/>
			
				<linearGradient id="SVGID_3_" gradientUnits="userSpaceOnUse" x1="146.4008" y1="224.5698" x2="109.6509" y2="61.3798" gradientTransform="matrix(1 0 0 -1 0 258)">
				<stop  offset="0" style="stop-color:#B3E5FC"/>
				<stop  offset="1" style="stop-color:#0288D1"/>
			</linearGradient>
			<rect x="48.61" y="31.34" style="fill:url(#SVGID_3_);" width="158.78" height="167.6"/>
			<polygon style="opacity:0.23;fill:#EEE8D5;enable-background:new    ;" points="207.55,199.28 97.12,199.28 142.33,31.68 
				207.55,31.68 			"/>
			<circle style="fill:#1D272B;" cx="128" cy="226.57" r="13.93"/>
			<circle style="fill:#455A64;" cx="127.09" cy="227.48" r="11.23"/>
		</g>
	</g>
</g>
</svg>
