<svg xmlns="http://www.w3.org/2000/svg" xmlns:xlink="http://www.w3.org/1999/xlink" viewBox="0 0 256 256"><defs><style>.cls-1{opacity:0.08;}.cls-2{opacity:0.1;}.cls-3{opacity:0.2;}.cls-4{fill:#212121;}.cls-5{fill:url(#linear-gradient);}.cls-6{stroke:#01579b;stroke-miterlimit:10;stroke-width:4px;fill:url(#linear-gradient-2);}.cls-7{fill:url(#linear-gradient-3);}.cls-8{fill:#eee8d5;opacity:0.23;isolation:isolate;}.cls-9{fill:#1d272b;}.cls-10{fill:#455a64;}</style><linearGradient id="linear-gradient" x1="128" y1="248" x2="128" y2="8" gradientUnits="userSpaceOnUse"><stop offset="0" stop-color="#263238"/><stop offset="1" stop-color="#455a64"/></linearGradient><linearGradient id="linear-gradient-2" x1="42.29" y1="115.14" x2="213.71" y2="115.14" gradientUnits="userSpaceOnUse"><stop offset="0" stop-color="#b3e5fc"/><stop offset="1" stop-color="#0288d1"/></linearGradient><linearGradient id="linear-gradient-3" x1="146.4" y1="33.43" x2="109.65" y2="196.62" xlink:href="#linear-gradient-2"/></defs><title>画板 18</title><g id="开始菜单应用图标"><g id="平板"><g id="_256" data-name="256"><path class="cls-1" d="M44.29,5H215.71a22.14,22.14,0,0,1,22.14,22.14V232.85A22.15,22.15,0,0,1,215.71,255H44.29a22.14,22.14,0,0,1-22.14-22.14V27.15A22.15,22.15,0,0,1,44.29,5Z"/><rect class="cls-2" x="24.14" y="7" width="211.71" height="246" rx="20.14" ry="20.14"/><path class="cls-3" d="M42.29,5H213.71a20.14,20.14,0,0,1,20.14,20.14V230.85A20.15,20.15,0,0,1,213.71,251H42.29a20.14,20.14,0,0,1-20.14-20.14V25.15A20.15,20.15,0,0,1,42.29,5Z"/><path class="cls-4" d="M42.29,7H213.71a18.14,18.14,0,0,1,18.14,18.14V230.86A18.14,18.14,0,0,1,213.71,249H42.29a18.15,18.15,0,0,1-18.15-18.15V25.14A18.14,18.14,0,0,1,42.29,7Z"/><path class="cls-5" d="M42.29,8H213.71a17.15,17.15,0,0,1,17.15,17.15V230.86A17.14,17.14,0,0,1,213.71,248H42.29a17.15,17.15,0,0,1-17.15-17.15V25.14A17.14,17.14,0,0,1,42.29,8Z"/><path class="cls-4" d="M213.71,7H42.29A18.17,18.17,0,0,0,24.14,25.14V230.86A18.17,18.17,0,0,0,42.29,249H213.71a18.17,18.17,0,0,0,18.15-18.14V25.14A18.17,18.17,0,0,0,213.71,7Zm16.15,223.86A16.16,16.16,0,0,1,213.71,247H42.29a16.16,16.16,0,0,1-16.15-16.14V25.14A16.16,16.16,0,0,1,42.29,9H213.71a16.16,16.16,0,0,1,16.15,16.14Z"/><rect class="cls-6" x="42.29" y="25.14" width="171.42" height="180"/><rect class="cls-7" x="48.61" y="31.34" width="158.78" height="167.6"/><polygon class="cls-8" points="207.55 199.28 97.12 199.28 142.33 31.68 207.55 31.68 207.55 199.28"/><circle class="cls-9" cx="128" cy="226.57" r="13.93"/><circle class="cls-10" cx="127.09" cy="227.48" r="11.23"/></g></g></g></svg>