<svg xmlns="http://www.w3.org/2000/svg" xmlns:xlink="http://www.w3.org/1999/xlink" viewBox="0 0 256 256"><defs><style>.cls-1{fill:none;}.cls-2{clip-path:url(#clip-path);}.cls-3{opacity:0.4;}.cls-14,.cls-4{opacity:0.7;}.cls-4{fill:url(#linear-gradient);}.cls-15,.cls-5{opacity:0.8;}.cls-5{fill:url(#linear-gradient-2);}.cls-6{opacity:0.08;}.cls-7{opacity:0.1;}.cls-18,.cls-8{opacity:0.2;}.cls-9{fill:#455a64;}.cls-10{fill:#263238;}.cls-11{fill:url(#linear-gradient-3);}.cls-12{fill:url(#linear-gradient-4);}.cls-13{clip-path:url(#clip-path-2);}.cls-14{fill:url(#linear-gradient-5);}.cls-15{fill:url(#linear-gradient-6);}.cls-16{opacity:0.12;isolation:isolate;fill:url(#linear-gradient-7);}.cls-17{fill:url(#linear-gradient-8);}.cls-18{fill:url(#radial-gradient);}.cls-19{opacity:0.6;fill:url(#linear-gradient-9);}.cls-20{fill:#1d272b;}.cls-21{fill:url(#linear-gradient-10);}</style><clipPath id="clip-path"><rect id="rect3008" class="cls-1" x="-496" y="55.98" width="423.93" height="319.61"/></clipPath><linearGradient id="linear-gradient" x1="-203.27" y1="245.03" x2="50.27" y2="-8.52" gradientUnits="userSpaceOnUse"><stop offset="0" stop-color="#00698c"/><stop offset="1" stop-color="#00698c" stop-opacity="0"/></linearGradient><linearGradient id="linear-gradient-2" x1="-308.36" y1="350.1" x2="-54.83" y2="96.57" xlink:href="#linear-gradient"/><linearGradient id="linear-gradient-3" x1="128.74" y1="244.68" x2="128.74" y2="215.75" gradientUnits="userSpaceOnUse"><stop offset="0" stop-color="#455a64"/><stop offset="1" stop-color="#263238"/></linearGradient><linearGradient id="linear-gradient-4" x1="127.98" y1="29.02" x2="127.98" y2="187.18" gradientUnits="userSpaceOnUse"><stop offset="0" stop-color="#b3e5fc"/><stop offset="1" stop-color="#0288d1"/></linearGradient><clipPath id="clip-path-2"><rect id="rect3008-2" data-name="rect3008" class="cls-1" x="23.09" y="29.02" width="209.78" height="158.16"/></clipPath><linearGradient id="linear-gradient-5" x1="167.95" y1="122.57" x2="293.41" y2="-2.89" xlink:href="#linear-gradient"/><linearGradient id="linear-gradient-6" x1="115.95" y1="174.56" x2="241.4" y2="49.11" xlink:href="#linear-gradient"/><linearGradient id="linear-gradient-7" x1="-57.64" y1="490.2" x2="-57.64" y2="605.9" gradientTransform="matrix(0.71, 0.71, 0.71, -0.71, -192.36, 542.15)" gradientUnits="userSpaceOnUse"><stop offset="0"/><stop offset="1" stop-opacity="0"/></linearGradient><linearGradient id="linear-gradient-8" x1="-555.78" y1="816.54" x2="-480.36" y2="816.54" gradientTransform="translate(-123.23 -1472.66) rotate(-45) scale(1.72 1.61)" gradientUnits="userSpaceOnUse"><stop offset="0" stop-color="#d7e866"/><stop offset="0.69" stop-color="#a4c33a"/><stop offset="1" stop-color="#7a9525" stop-opacity="0"/></linearGradient><radialGradient id="radial-gradient" cx="-538.96" cy="794.93" r="55.81" gradientTransform="translate(-123.23 -1472.66) rotate(-45) scale(1.72 1.61)" gradientUnits="userSpaceOnUse"><stop offset="0" stop-color="#b0ff04"/><stop offset="0.56" stop-color="#5ac306"/><stop offset="0.74" stop-color="#13a400"/></radialGradient><linearGradient id="linear-gradient-9" x1="114.31" y1="153.95" x2="227.55" y2="40.71" gradientUnits="userSpaceOnUse"><stop offset="0" stop-color="#fff"/><stop offset="1" stop-color="#fff" stop-opacity="0"/></linearGradient><linearGradient id="linear-gradient-10" x1="128" y1="18.77" x2="128" y2="203.39" xlink:href="#linear-gradient-3"/></defs><title>画板 18</title><g id="控制面板"><g id="显示"><g id="_512" data-name="512"><g class="cls-2"><g class="cls-3"><path class="cls-4" d="M-167.35,182a22.14,22.14,0,0,1-22.14-22.15V-157.07H-206a22.15,22.15,0,0,0-22.15,22.14V205.53A22.15,22.15,0,0,0-206,227.67H218.9a22.16,22.16,0,0,0,22.15-22.14V182Z"/><path class="cls-5" d="M-272.44,287.08a22.14,22.14,0,0,1-22.15-22.14V-52h-16.49a22.14,22.14,0,0,0-22.14,22.14V310.6a22.14,22.14,0,0,0,22.14,22.15h424.9a22.14,22.14,0,0,0,22.13-22.15V287.08Z"/></g></g></g><g id="_256" data-name="256"><path class="cls-6" d="M62.06,245.23c-6.59,0-11.95-5-11.95-11.22v-9l29.13-13.58H4V14.77H256V211.39H181.2l30.17,13.51V234c0,6.18-5.36,11.22-11.95,11.22Z"/><path class="cls-7" d="M62.06,243.23c-5.49,0-9.95-4.13-9.95-9.22v-7.77l36.15-16.85H6V16.77H254V209.39H171.84l37.53,16.81V234c0,5.08-4.46,9.22-9.95,9.22Z"/><path class="cls-8" d="M60.06,241.23c-5.49,0-9.95-4.13-9.95-9.22v-7.77l36.15-16.85H4V14.77H252V207.39H169.84l37.53,16.81V232c0,5.08-4.46,9.22-9.95,9.22Z"/><path class="cls-9" d="M60.06,238.23c-3.83,0-6.95-2.79-6.95-6.22v-5.86l36-16.77H97v-5H7V17.77H249V204.39H159v5h7.94l37.43,16.76V232c0,3.43-3.12,6.22-6.95,6.22Z"/><path class="cls-10" d="M248,18.77V203.39H158v7h8.73l36.65,16.41V232c0,2.87-2.69,5.22-5.95,5.22H60.06c-3.27,0-5.95-2.35-5.95-5.22v-5.22l35.21-16.41H98v-7H8V18.77H248m2-2H6V205.39H96v3H88.88l-.4.19L53.27,225l-1.16.54V232c0,4,3.56,7.22,7.95,7.22H197.42c4.38,0,7.95-3.24,7.95-7.22v-6.52l-1.18-.53-36.65-16.41-.39-.17H160v-3h90V16.77Z"/><polygon class="cls-11" points="54.12 226.79 89.33 210.38 166.73 210.38 203.37 226.79 54.12 226.79"/><g id="rect3008-3" data-name="rect3008"><rect class="cls-12" x="23.09" y="29.02" width="209.78" height="158.16"/></g><g class="cls-13"><g class="cls-3"><path class="cls-14" d="M185.72,91.38a11,11,0,0,1-11-11V-76.41h-8.16a11,11,0,0,0-11,11V103a11,11,0,0,0,11,11H376.86a11,11,0,0,0,11-11V91.38Z"/><path class="cls-15" d="M133.72,143.38a11,11,0,0,1-11-11V-24.41H114.6a11,11,0,0,0-11,11V155a11,11,0,0,0,11,11H324.86a11,11,0,0,0,10.95-11V143.38Z"/></g></g><g id="layer4"><path id="path4238" class="cls-16" d="M131.62,96.54l-17.91-17.9a1.54,1.54,0,0,0-2.63,1.08l-.11,75.8a1.53,1.53,0,0,0,1.52,1.55h0l76,.11a1.52,1.52,0,0,0,1.52-1.55,1.48,1.48,0,0,0-.45-1.07l-17.9-17.91,56.45-97.56Z"/><path id="path3288-2" class="cls-17" d="M189.74,154.45l-76-.1.09-75.82,19,19L228.3,39l-57.54,96.49Z"/><path id="path3288-2-2" data-name="path3288-2" class="cls-18" d="M189.74,154.45l-76-.1.09-75.82,19,19L228.3,39l-57.54,96.49Z"/><path id="path4200" class="cls-19" d="M227.21,40.26l-95.58,60.81,1.3,1.29,93-60.79-60,93.77,1.3,1.3ZM115.53,82.6l-.11,70,70.24.11-18.45-18.45-1.3,1.3,15.31,15.3-63.95-.11.12-63.71,15.3,15.3,1.3-1.29Z"/></g><rect class="cls-20" x="98" y="201.43" width="60" height="17.9"/><path class="cls-21" d="M8,18.77V203.39H248V18.77ZM232.87,182.6H23.13V33.55H232.87Z"/><path class="cls-9" d="M197.42,226.79H54.12V232c0,2.87,2.67,5.22,5.95,5.22H197.42c3.26,0,5.95-2.35,5.95-5.22v-5.22Z"/></g></g></g></svg>