<?xml version="1.0" encoding="iso-8859-1"?>
<!-- Generator: Adobe Illustrator 21.0.0, SVG Export Plug-In . SVG Version: 6.00 Build 0)  -->
<svg version="1.1" id="&#x56FE;&#x5C42;_1" xmlns="http://www.w3.org/2000/svg" xmlns:xlink="http://www.w3.org/1999/xlink" x="0px"
	 y="0px" viewBox="0 0 256 256" style="enable-background:new 0 0 256 256;" xml:space="preserve">
<title>画板 18</title>
<g id="&#x63A7;&#x5236;&#x9762;&#x677F;">
	<g id="&#x663E;&#x793A;">
		<g id="_512">
			<g>
				<defs>
					<rect id="SVGID_1_" x="-496" y="55.98" width="423.93" height="319.61"/>
				</defs>
				<clipPath id="SVGID_2_">
					<use xlink:href="#SVGID_1_"  style="overflow:visible;"/>
				</clipPath>
				<g style="clip-path:url(#SVGID_2_);">
					<g style="opacity:0.4;">
						
							<linearGradient id="SVGID_3_" gradientUnits="userSpaceOnUse" x1="-203.2723" y1="12.9723" x2="50.2677" y2="266.5223" gradientTransform="matrix(1 0 0 -1 0 258)">
							<stop  offset="0" style="stop-color:#00698C"/>
							<stop  offset="1" style="stop-color:#00698C;stop-opacity:0"/>
						</linearGradient>
						<path style="opacity:0.7;fill:url(#SVGID_3_);enable-background:new    ;" d="M-167.35,182c-12.228,0-22.14-9.912-22.14-22.14
							c0-0.003,0-0.007,0-0.01v-316.92H-206c-12.229,0-22.144,9.911-22.15,22.14v340.46c0.006,12.229,9.921,22.14,22.15,22.14h424.9
							c12.227-0.006,22.139-9.913,22.15-22.14V182H-167.35z"/>
						
							<linearGradient id="SVGID_4_" gradientUnits="userSpaceOnUse" x1="-308.36" y1="-92.1" x2="-54.83" y2="161.43" gradientTransform="matrix(1 0 0 -1 0 258)">
							<stop  offset="0" style="stop-color:#00698C"/>
							<stop  offset="1" style="stop-color:#00698C;stop-opacity:0"/>
						</linearGradient>
						<path style="opacity:0.8;fill:url(#SVGID_4_);enable-background:new    ;" d="M-272.44,287.08
							c-12.228,0.006-22.144-9.902-22.15-22.13c0-0.003,0-0.007,0-0.01V-52h-16.49c-12.228,0-22.14,9.912-22.14,22.14V310.6
							c-0.006,12.228,9.902,22.144,22.13,22.15c0.003,0,0.007,0,0.01,0h424.9c12.228-0.006,22.136-9.922,22.13-22.15l0,0v-23.52
							H-272.44z"/>
					</g>
				</g>
			</g>
		</g>
		<g id="_256">
			<path style="opacity:0.08;enable-background:new    ;" d="M62.06,245.23c-6.59,0-11.95-5-11.95-11.22v-9l29.13-13.58H4V14.77h252
				v196.62h-74.8l30.17,13.51v9.1c0,6.18-5.36,11.22-11.95,11.22L62.06,245.23z"/>
			<path style="opacity:0.1;enable-background:new    ;" d="M62.06,243.23c-5.49,0-9.95-4.13-9.95-9.22v-7.77l36.15-16.85H6V16.77
				h248v192.62h-82.16l37.53,16.81v7.8c0,5.08-4.46,9.22-9.95,9.22L62.06,243.23z"/>
			<path style="opacity:0.2;enable-background:new    ;" d="M60.06,241.23c-5.49,0-9.95-4.13-9.95-9.22v-7.77l36.15-16.85H4V14.77
				h248v192.62h-82.16l37.53,16.81v7.8c0,5.08-4.46,9.22-9.95,9.22L60.06,241.23z"/>
			<path style="fill:#455A64;" d="M60.06,238.23c-3.83,0-6.95-2.79-6.95-6.22v-5.86l36-16.77H97v-5H7V17.77h242v186.62h-90v5h7.94
				l37.43,16.76V232c0,3.43-3.12,6.22-6.95,6.22L60.06,238.23z"/>
			<path style="fill:#263238;" d="M248,18.77v184.62h-90v7h8.73l36.65,16.41v5.2c0,2.87-2.69,5.22-5.95,5.22H60.06
				c-3.27,0-5.95-2.35-5.95-5.22v-5.22l35.21-16.41H98v-7H8V18.77H248 M250,16.77H6v188.62h90v3h-7.12l-0.4,0.19L53.27,225
				l-1.16,0.54V232c0,4,3.56,7.22,7.95,7.22h137.36c4.38,0,7.95-3.24,7.95-7.22v-6.52l-1.18-0.53l-36.65-16.41l-0.39-0.17H160v-3h90
				V16.77z"/>
			
				<linearGradient id="SVGID_5_" gradientUnits="userSpaceOnUse" x1="128.745" y1="13.32" x2="128.745" y2="42.25" gradientTransform="matrix(1 0 0 -1 0 258)">
				<stop  offset="0" style="stop-color:#455A64"/>
				<stop  offset="1" style="stop-color:#263238"/>
			</linearGradient>
			<polygon style="fill:url(#SVGID_5_);" points="54.12,226.79 89.33,210.38 166.73,210.38 203.37,226.79 			"/>
			<g id="rect3008-3">
				
					<linearGradient id="SVGID_6_" gradientUnits="userSpaceOnUse" x1="127.98" y1="228.98" x2="127.98" y2="70.82" gradientTransform="matrix(1 0 0 -1 0 258)">
					<stop  offset="0" style="stop-color:#B3E5FC"/>
					<stop  offset="1" style="stop-color:#0288D1"/>
				</linearGradient>
				<rect x="23.09" y="29.02" style="fill:url(#SVGID_6_);" width="209.78" height="158.16"/>
			</g>
			<g>
				<defs>
					<rect id="SVGID_7_" x="23.09" y="29.02" width="209.78" height="158.16"/>
				</defs>
				<clipPath id="SVGID_8_">
					<use xlink:href="#SVGID_7_"  style="overflow:visible;"/>
				</clipPath>
				<g style="clip-path:url(#SVGID_8_);">
					<g style="opacity:0.4;">
						
							<linearGradient id="SVGID_9_" gradientUnits="userSpaceOnUse" x1="167.9425" y1="135.4375" x2="293.4025" y2="260.8975" gradientTransform="matrix(1 0 0 -1 0 258)">
							<stop  offset="0" style="stop-color:#00698C"/>
							<stop  offset="1" style="stop-color:#00698C;stop-opacity:0"/>
						</linearGradient>
						<path style="opacity:0.7;fill:url(#SVGID_9_);enable-background:new    ;" d="M185.72,91.38c-6.075,0-11-4.925-11-11V-76.41
							h-8.16c-6.075,0-11,4.925-11,11V103c0,6.075,4.925,11,11,11h210.3c6.075,0,11-4.925,11-11V91.38H185.72z"/>
						
							<linearGradient id="SVGID_10_" gradientUnits="userSpaceOnUse" x1="115.945" y1="83.445" x2="241.395" y2="208.895" gradientTransform="matrix(1 0 0 -1 0 258)">
							<stop  offset="0" style="stop-color:#00698C"/>
							<stop  offset="1" style="stop-color:#00698C;stop-opacity:0"/>
						</linearGradient>
						<path style="opacity:0.8;fill:url(#SVGID_10_);enable-background:new    ;" d="M133.72,143.38c-6.075,0-11-4.925-11-11V-24.41
							h-8.12c-6.075,0-11,4.925-11,11V155c0,6.075,4.925,11,11,11h210.26c6.056-0.028,10.95-4.944,10.95-11v-11.62H133.72z"/>
					</g>
				</g>
			</g>
			<g id="layer4">
				
					<linearGradient id="path4238_1_" gradientUnits="userSpaceOnUse" x1="-102.3768" y1="-337.2563" x2="-102.3768" y2="-452.9564" gradientTransform="matrix(0.71 0.71 -0.71 0.71 -51.86 465.47)">
					<stop  offset="0" style="stop-color:#000000"/>
					<stop  offset="1" style="stop-color:#000000;stop-opacity:0"/>
				</linearGradient>
				<path id="path4238" style="opacity:0.12;fill:url(#path4238_1_);enable-background:new    ;" d="M131.62,96.54l-17.91-17.9
					c-0.601-0.602-1.576-0.603-2.178-0.002c-0.288,0.287-0.45,0.676-0.452,1.082l-0.11,75.8c-0.011,0.845,0.665,1.539,1.51,1.55
					c0.003,0,0.007,0,0.01,0l0,0l76,0.11c0.839,0,1.52-0.68,1.52-1.52c0-0.01,0-0.02,0-0.03c0.002-0.403-0.161-0.789-0.45-1.07
					l-17.9-17.91l56.45-97.56L131.62,96.54z"/>
				
					<linearGradient id="path3288-2_1_" gradientUnits="userSpaceOnUse" x1="-774.0029" y1="-661.9004" x2="-698.5828" y2="-661.9004" gradientTransform="matrix(1.2162 -1.2162 -1.1384 -1.1384 320.7252 -1559.5205)">
					<stop  offset="0" style="stop-color:#D7E866"/>
					<stop  offset="0.69" style="stop-color:#A4C33A"/>
					<stop  offset="1" style="stop-color:#7A9525;stop-opacity:0"/>
				</linearGradient>
				<path id="path3288-2" style="fill:url(#path3288-2_1_);" d="M189.74,154.45l-76-0.1l0.09-75.82l19,19L228.3,39l-57.54,96.49
					L189.74,154.45z"/>
				
					<radialGradient id="path3288-2-2_1_" cx="-757.1829" cy="-638.0951" r="55.81" gradientTransform="matrix(1.2162 -1.2162 -1.1384 -1.1384 320.7252 -1559.5205)" gradientUnits="userSpaceOnUse">
					<stop  offset="0" style="stop-color:#B0FF04"/>
					<stop  offset="0.56" style="stop-color:#5AC306"/>
					<stop  offset="0.74" style="stop-color:#13A400"/>
				</radialGradient>
				<path id="path3288-2-2" style="opacity:0.2;fill:url(#path3288-2-2_1_);enable-background:new    ;" d="M189.74,154.45l-76-0.1
					l0.09-75.82l19,19L228.3,39l-57.54,96.49L189.74,154.45z"/>
				
					<linearGradient id="path4200_1_" gradientUnits="userSpaceOnUse" x1="114.305" y1="104.055" x2="227.545" y2="217.295" gradientTransform="matrix(1 0 0 -1 0 258)">
					<stop  offset="0" style="stop-color:#FFFFFF"/>
					<stop  offset="1" style="stop-color:#FFFFFF;stop-opacity:0"/>
				</linearGradient>
				<path id="path4200" style="opacity:0.6;fill:url(#path4200_1_);enable-background:new    ;" d="M227.21,40.26l-95.58,60.81
					l1.3,1.29l93-60.79l-60,93.77l1.3,1.3L227.21,40.26z M115.53,82.6l-0.11,70l70.24,0.11l-18.45-18.45l-1.3,1.3l15.31,15.3
					l-63.95-0.11l0.12-63.71l15.3,15.3l1.3-1.29L115.53,82.6z"/>
			</g>
			<rect x="98" y="201.43" style="fill:#1D272B;" width="60" height="17.9"/>
			
				<linearGradient id="SVGID_11_" gradientUnits="userSpaceOnUse" x1="128" y1="239.23" x2="128" y2="54.61" gradientTransform="matrix(1 0 0 -1 0 258)">
				<stop  offset="0" style="stop-color:#455A64"/>
				<stop  offset="1" style="stop-color:#263238"/>
			</linearGradient>
			<path style="fill:url(#SVGID_11_);" d="M8,18.77v184.62h240V18.77H8z M232.87,182.6H23.13V33.55h209.74V182.6z"/>
			<path style="fill:#455A64;" d="M197.42,226.79H54.12V232c0,2.87,2.67,5.22,5.95,5.22h137.35c3.26,0,5.95-2.35,5.95-5.22v-5.22
				L197.42,226.79z"/>
		</g>
	</g>
</g>
</svg>
