<svg id="其他" xmlns="http://www.w3.org/2000/svg" xmlns:xlink="http://www.w3.org/1999/xlink" viewBox="0 0 256 256"><defs><style>.cls-1{opacity:0.2;}.cls-1,.cls-12,.cls-2,.cls-3,.cls-7,.cls-8{isolation:isolate;}.cls-2{opacity:0.08;}.cls-3{opacity:0.1;}.cls-4{fill:#616161;}.cls-5{fill:#263238;}.cls-12,.cls-6{fill:#e0e0e0;}.cls-7{fill:#9e9e9e;opacity:0.25;}.cls-8{fill:#fff;opacity:0.45;}.cls-9{fill:url(#linear-gradient);}.cls-10{fill:url(#linear-gradient-2);}.cls-11{fill:#949494;}.cls-12{opacity:0.86;}.cls-13{fill:#a5a5a5;}</style><linearGradient id="linear-gradient" x1="-3222.38" y1="2755.7" x2="-3222.38" y2="2744.72" gradientTransform="translate(3332.43 -2561.31)" gradientUnits="userSpaceOnUse"><stop offset="0" stop-color="#455a64"/><stop offset="0.21" stop-color="#36474f"/><stop offset="1"/></linearGradient><linearGradient id="linear-gradient-2" x1="-3107.63" y1="2755.7" x2="-3107.63" y2="2744.72" gradientTransform="translate(3332.43 -2561.31)" gradientUnits="userSpaceOnUse"><stop offset="0" stop-color="#38a3e7"/><stop offset="1" stop-color="#1976d2"/></linearGradient></defs><title>画板 18</title><g id="光驱"><path class="cls-1" d="M109.8,252a93,93,0,0,1-76.9-41.2H4V172.4l2.5-15L31.6,4.1H41.7L43.5,4H61.8v.1L149.7,4h67.8l31.6,153.2,2.9,15.1v38.5H186.7A93,93,0,0,1,109.8,252Z"/><path class="cls-2" d="M111.8,256a94.9,94.9,0,0,1-77.9-41.2H4V174.2L6.5,159,31.9,4h34v.1H221.2l31.9,154.8,2.9,15.3v40.7H189.7A95.2,95.2,0,0,1,111.8,256Z"/><path class="cls-3" d="M111.8,254a93,93,0,0,1-76.9-41.2H6V174.4l2.5-15L33.6,6.1H43.7L45.5,6H63.8v.1L151.7,6h67.8l31.6,153.2,2.9,15.1v38.5H188.7A93,93,0,0,1,111.8,254Z"/><path class="cls-4" d="M109.8,250c-30.5,0-58.7-15.4-75.8-41.2H6V172.6l2.4-14.9L33.3,6.1h8.5L43.5,6H59.7v.1l90-.1h66.2l31.2,151.6,2.8,14.9v36.3H185.5A90.63,90.63,0,0,1,109.8,250Z"/><g id="g4"><g id="g6"><path id="path10" class="cls-5" d="M8,172.8v34.1H248V172.8Z"/><polygon class="cls-6" points="245.22 158.1 214.32 8 35.12 8 10.42 158.1 245.22 158.1"/><polygon class="cls-7" points="245.22 158.1 214.32 8 151.32 8 114.92 158.1 245.22 158.1"/><polygon class="cls-6" points="10.42 158.1 8.02 172.8 248.02 172.8 245.22 158.1 10.42 158.1"/><polygon class="cls-8" points="49.92 158.1 57.62 8 43.52 8 19.02 158.1 49.92 158.1"/></g><g id="g12"><path id="path14" class="cls-9" d="M196.9,194.44H23.2v-11H196.9v11Z"/><path id="path16" class="cls-10" d="M216.8,194.44h16v-11h-16Z"/></g></g><path class="cls-6" d="M109.8,246c39.1,0,72.3-26.3,83.4-62.5H179.6c-10.6,28.7-37.9,49.2-69.8,49.2a74.17,74.17,0,0,1-22.2-3.4l-1,2.7-24.3-5.6,5.7-6.8a76.56,76.56,0,0,1-11.1-9.4l-8,5.2L36.4,202.2,46.5,197a76.77,76.77,0,0,1-6.6-13.5H26.4C37.5,219.6,70.7,246,109.8,246Z"/><path class="cls-11" d="M195.3,183.5h-2.1C182,219.6,148.9,246,109.8,246s-72.3-26.3-83.4-62.5H24.3c11.2,37.4,45.3,64.6,85.5,64.6S184.2,220.8,195.3,183.5Z"/><path class="cls-11" d="M72.7,183.5H40A84.41,84.41,0,0,0,46.6,197Z"/><path class="cls-11" d="M88.1,189.9,56.9,210.2A76.56,76.56,0,0,0,68,219.6l23.2-27.8C90.1,191.1,89.1,190.5,88.1,189.9Z"/><path class="cls-11" d="M109.8,196.5a38,38,0,0,1-10.2-1.4l-12,34.1a74.1,74.1,0,0,0,22.2,3.4c31.9,0,59.2-20.5,69.8-49.2H138.9A39.16,39.16,0,0,1,109.8,196.5Z"/><path class="cls-6" d="M62.3,226.4,86.6,232l1-2.7A74.37,74.37,0,0,1,68,219.7Z"/><path class="cls-12" d="M62.3,226.4,86.6,232l1-2.7A74.37,74.37,0,0,1,68,219.7Z"/><path class="cls-11" d="M91.2,191.7,68,219.5a74.37,74.37,0,0,0,19.6,9.6l12-34.1A30.61,30.61,0,0,1,91.2,191.7Z"/><path class="cls-12" d="M91.2,191.7,68,219.5a74.37,74.37,0,0,0,19.6,9.6l12-34.1A30.61,30.61,0,0,1,91.2,191.7Z"/><path class="cls-6" d="M36.4,202.2l12.5,13.2,8-5.2A73.18,73.18,0,0,1,46.6,197Z"/><path class="cls-12" d="M36.4,202.2l12.5,13.2,8-5.2A73.18,73.18,0,0,1,46.6,197Z"/><path class="cls-11" d="M56.8,210.2,88,189.9a41,41,0,0,1-7.4-6.4h-8L46.5,197A82.23,82.23,0,0,0,56.8,210.2Z"/><path class="cls-12" d="M56.8,210.2,88,189.9a41,41,0,0,1-7.4-6.4h-8L46.5,197A82.23,82.23,0,0,0,56.8,210.2Z"/><path class="cls-13" d="M88.1,189.9a32.49,32.49,0,0,0,3.1,1.9,38.84,38.84,0,0,0,47.7-8.2h-6.1a35.06,35.06,0,0,1-46,0H80.7A41.62,41.62,0,0,0,88.1,189.9Z"/><path class="cls-6" d="M109.8,192.1a34.78,34.78,0,0,0,23-8.6h-46A35.3,35.3,0,0,0,109.8,192.1Z"/></g></svg>