<?xml version="1.0" encoding="iso-8859-1"?>
<!-- Generator: Adobe Illustrator 21.0.0, SVG Export Plug-In . SVG Version: 6.00 Build 0)  -->
<svg version="1.1" id="&#x5176;&#x4ED6;" xmlns="http://www.w3.org/2000/svg" xmlns:xlink="http://www.w3.org/1999/xlink" x="0px"
	 y="0px" viewBox="0 0 256 256" style="enable-background:new 0 0 256 256;" xml:space="preserve">
<title>画板 18</title>
<g id="U&#x76D8;">
	<g id="_256">
		<polygon style="opacity:0.08;enable-background:new    ;" points="81.08,256 81.08,200.74 62.9,200.74 62.9,4 197.1,4 
			197.1,200.74 178.92,200.74 178.92,256 		"/>
		<polygon style="opacity:0.1;enable-background:new    ;" points="83.08,254 83.08,198.74 64.9,198.74 64.9,6 195.1,6 
			195.1,198.74 176.92,198.74 176.92,254 		"/>
		<polygon style="opacity:0.2;enable-background:new    ;" points="81.08,252 81.08,196.74 62.9,196.74 62.9,4 193.1,4 
			193.1,196.74 174.92,196.74 174.92,252 		"/>
		<polygon style="fill:#1B5E20;" points="188.3,6 67.7,6 64.9,6 64.9,8.8 64.9,191.93 64.9,194.74 67.7,194.74 83.08,194.74 
			83.08,247.19 83.08,250 85.89,250 170.11,250 172.92,250 172.92,247.19 172.92,194.74 188.3,194.74 191.1,194.74 191.1,191.93 
			191.1,8.8 191.1,6 		"/>
		
			<linearGradient id="SVGID_1_" gradientUnits="userSpaceOnUse" x1="74.628" y1="66.0812" x2="179.368" y2="245.7412" gradientTransform="matrix(1 0 0 -1 0 258)">
			<stop  offset="0.24" style="stop-color:#689F38"/>
			<stop  offset="0.94" style="stop-color:#8BC34A"/>
		</linearGradient>
		<rect x="67" y="7.74" style="fill:url(#SVGID_1_);" width="122" height="185.26"/>
		<rect x="79.8" y="7.74" style="opacity:0.24;fill:#FFFFFF;enable-background:new    ;" width="35.75" height="185.26"/>
		<path id="path1334" style="fill:#33691E;" d="M95.75,92.15c0,3.82,2.66,7.09,6.44,8.56v9.54c0,3.41,2,6.62,4.4,8.93
			c0,0,0,0.07,0.05,0.09l0,0l0.11,0.14l0.11,0.14c0,0,0,0,0.05,0s0,0,0,0s0.11,0.05,0.16,0.09h0.05l18,14.56
			c0.871,0.93,1.4,2.129,1.5,3.4v8.33c-5.38,1.55-9.28,5.92-9.28,11c0,6.41,6.11,11.58,13.63,11.58c7.52,0,13.63-5.18,13.63-11.58
			c0-5.1-3.9-9.47-9.28-11v-8.23c0,0,0-0.07,0-0.09s0,0,0-0.09v-14.25c0.102-1.241,0.632-2.408,1.5-3.3c0.11-0.09,4.48-3.64,9-7.26
			c2.27-1.83,4.57-3.65,6.28-5c0.85-0.69,1.54-1.27,2-1.68l0.59-0.46c0.052-0.033,0.105-0.063,0.16-0.09
			c0.019-0.029,0.036-0.059,0.05-0.09c0,0,0.13-0.06,0.16-0.09s0,0,0,0s0,0,0.05,0s0.11-0.19,0.11-0.19l0.11-0.09l0,0h0.05l0,0
			l0.05-0.09c2.37-2.31,4.34-5.47,4.34-8.84v-8.97h6.06V68.56H145v18.56h6.1V96c-0.099,1.241-0.63,2.409-1.5,3.3l-14.27,11.54v-51.4
			h9.41L130.8,37.67l-13.95,21.77h9.79v65.78l-14.27-11.49c-0.871-0.93-1.4-2.129-1.5-3.4c0-4,0-7.13,0-9.58
			c3.87-1.44,6.6-4.73,6.6-8.61c0-5.19-4.9-9.44-10.89-9.44S95.75,87,95.75,92.15z"/>
		<path id="path1334-2" style="fill:#DCEDC8;" d="M92.94,90.23c0,3.82,2.66,7.09,6.44,8.56v9.54c0,3.41,2,6.62,4.4,8.93
			c0,0,0,0.07,0.05,0.09l0,0l0.11,0.14l0.11,0.14c0,0,0,0,0.05,0s0,0,0,0s0.11,0,0.16,0.09h0.05l18,14.56
			c0.87,0.931,1.399,2.13,1.5,3.4v8.33c-5.38,1.55-9.28,5.92-9.28,11c0,6.41,6.11,11.58,13.63,11.58c7.52,0,13.63-5.18,13.63-11.58
			c0-5.1-3.9-9.47-9.28-11v-8.23c0,0,0-0.07,0-0.09s0,0,0-0.09v-14.24c0.102-1.241,0.632-2.408,1.5-3.3c0.11-0.09,4.48-3.64,9-7.26
			c2.27-1.83,4.57-3.65,6.28-5c0.85-0.69,1.54-1.27,2-1.67l0.59-0.47c0.052-0.033,0.105-0.063,0.16-0.09
			c0.019-0.029,0.036-0.059,0.05-0.09c0,0,0.13-0.06,0.16-0.09s0,0,0,0s0,0,0.05,0s0.11-0.19,0.11-0.19l0.11-0.09l0,0h0.05l0,0
			l0.05-0.09C155,100.49,157,97.33,157,94v-8.79h6.06V66.65H142.2v18.56h6.1v8.89c-0.099,1.241-0.63,2.409-1.5,3.3l-14.27,11.54
			V57.53h9.41L128,35.76l-14,21.77h9.79v65.78l-14.27-11.49c-0.872-0.93-1.401-2.129-1.5-3.4c0-4,0-7.13,0-9.58
			c3.87-1.44,6.6-4.73,6.6-8.61c0-5.19-4.9-9.44-10.89-9.44S92.94,85,92.94,90.23z"/>
		<rect x="84.88" y="194.74" style="fill:#657B83;" width="86.24" height="53.71"/>
		
			<rect id="rect3765" x="96.42" y="194.74" style="opacity:0.31;fill:#FFFFFF;enable-background:new    ;" width="31.58" height="53.71"/>
		
			<rect id="rect3767" x="138.53" y="216.35" style="opacity:0.65;fill:#073642;enable-background:new    ;" width="21.06" height="20.98"/>
		
			<rect id="rect3769" x="96.42" y="216.35" style="opacity:0.65;fill:#073642;enable-background:new    ;" width="21.06" height="20.98"/>
	</g>
</g>
</svg>
