<?xml version="1.0" encoding="iso-8859-1"?>
<!-- Generator: Adobe Illustrator 21.0.0, SVG Export Plug-In . SVG Version: 6.00 Build 0)  -->
<svg version="1.1" id="&#x5176;&#x4ED6;" xmlns="http://www.w3.org/2000/svg" xmlns:xlink="http://www.w3.org/1999/xlink" x="0px"
	 y="0px" viewBox="0 0 256 256" style="enable-background:new 0 0 256 256;" xml:space="preserve">
<title>画板 18</title>
<g id="sm">
	<path style="opacity:0.2;enable-background:new    ;" d="M32.25,252c-7.188,0-13.022-5.812-13.05-13V17c0-7.18,5.82-13,13-13h181.5
		l23.1,22.71V239.3c-0.02,7.036-5.74,12.724-12.776,12.704c-0.091,0-0.183-0.001-0.274-0.004H32.25z"/>
	<path style="opacity:0.08;enable-background:new    ;" d="M34.25,256c-8.292,0-15.022-6.708-15.05-15V19c0-8.284,6.716-15,15-15
		h182.32l24.28,23.87V241.3c-0.009,8.13-6.607,14.713-14.736,14.704c-0.105,0-0.209-0.001-0.314-0.004H34.25z"/>
	<path style="opacity:0.1;enable-background:new    ;" d="M34.25,254c-7.188,0-13.022-5.812-13.05-13V19c0-7.18,5.82-13,13-13h181.5
		l23.1,22.71V241.3c-0.02,7.036-5.74,12.724-12.776,12.704c-0.091,0-0.183-0.001-0.274-0.004H34.25z"/>
	<path d="M32.25,250c-6.075,0.028-11.022-4.875-11.05-10.95c0-0.017,0-0.033,0-0.05V17c0-6.075,4.925-11,11-11h180.68l21.92,21.55
		V239.3c-0.031,5.943-4.873,10.735-10.816,10.704c-0.078,0-0.156-0.002-0.234-0.004H32.25z"/>
	
		<linearGradient id="SVGID_1_" gradientUnits="userSpaceOnUse" x1="128" y1="250.0002" x2="128" y2="-194.8398" gradientTransform="matrix(1 0 0 -1 0 258)">
		<stop  offset="0" style="stop-color:#211D1E"/>
		<stop  offset="0.55" style="stop-color:#58595B"/>
		<stop  offset="1" style="stop-color:#ABB6BE"/>
	</linearGradient>
	<path style="fill:url(#SVGID_1_);" d="M232.8,28.39L212.06,8H32.25c-4.97-0.033-9.027,3.969-9.06,8.94c0,0.02,0,0.04,0,0.06v222
		c0,4.971,4.029,9,9,9c0.02,0,0.04,0,0.06,0h191.5c4.864,0.138,8.919-3.692,9.057-8.556c0.001-0.048,0.002-0.096,0.003-0.144
		L232.8,28.39z"/>
	<path style="fill:#616161;" d="M208.85,15.87l16.09,15.82V239.3c0,0.68-0.88,0.83-1.19,0.83H32.25
		c-0.639,0.011-1.168-0.492-1.19-1.13V17c0.005-0.63,0.52-1.135,1.15-1.13c0,0,0,0,0,0H208.85 M209.49,14.3H32.21
		c-1.494,0-2.709,1.206-2.72,2.7v222c0.016,1.511,1.249,2.726,2.76,2.72h191.5c1.409,0.113,2.643-0.938,2.756-2.347
		c0.001-0.018,0.003-0.035,0.004-0.053V31l-17-16.73L209.49,14.3z"/>
	<path style="fill:#F9CE1D;stroke:#212121;stroke-width:6.63;" d="M56.42,32.44h142.51c6.175,0,11.18,5.005,11.18,11.18v77.83
		c0,6.175-5.005,11.18-11.18,11.18H56.42c-6.175,0-11.18-5.005-11.18-11.18V43.62C45.24,37.445,50.245,32.44,56.42,32.44z"/>
	
		<linearGradient id="SVGID_2_" gradientUnits="userSpaceOnUse" x1="127.67" y1="12" x2="127.67" y2="68.36" gradientTransform="matrix(1 0 0 -1 0 258)">
		<stop  offset="0" style="stop-color:#616161"/>
		<stop  offset="0.19" style="stop-color:#FFFFFF"/>
	</linearGradient>
	<path style="fill:url(#SVGID_2_);" d="M47.22,246v-47.16c0.006-5.079,4.121-9.194,9.2-9.2h142.51c5.075,0.011,9.185,4.125,9.19,9.2
		V246H47.22z"/>
	<path style="fill:#212121;" d="M198.93,191.62c3.98,0.006,7.204,3.23,7.21,7.21V244H49.2v-45.2c0.006-3.98,3.23-7.204,7.21-7.21
		h142.52 M198.93,187.59H56.41c-6.175,0-11.18,5.005-11.18,11.18V248h164.88v-49.16c0-6.175-5.005-11.18-11.18-11.18V187.59z"/>
	
		<linearGradient id="SVGID_3_" gradientUnits="userSpaceOnUse" x1="49.2" y1="58.02" x2="206.14" y2="58.02" gradientTransform="matrix(1 0 0 -1 0 258)">
		<stop  offset="0" style="stop-color:#F57C00"/>
		<stop  offset="1" style="stop-color:#FF5722"/>
	</linearGradient>
	<path style="fill:url(#SVGID_3_);" d="M49.2,208.33v-9.49c0.006-3.98,3.23-7.204,7.21-7.21h142.52c3.98,0.006,7.204,3.23,7.21,7.21
		v9.49H49.2z"/>
	
		<linearGradient id="SVGID_4_" gradientUnits="userSpaceOnUse" x1="-2708.103" y1="-2271.9485" x2="-2724.1731" y2="-2303.0186" gradientTransform="matrix(2.67 0 0 2.67 7378.6797 6188.02)">
		<stop  offset="0" style="stop-color:#F9CE1D"/>
		<stop  offset="0.5" style="stop-color:#F5A816"/>
		<stop  offset="1" style="stop-color:#F9CE1D"/>
	</linearGradient>
	<path style="fill:url(#SVGID_4_);stroke:#C39F00;stroke-width:2.21;" d="M56.42,32.44h142.51c6.175,0,11.18,5.005,11.18,11.18
		v77.83c0,6.175-5.005,11.18-11.18,11.18H56.42c-6.175,0-11.18-5.005-11.18-11.18V43.62C45.24,37.445,50.245,32.44,56.42,32.44z"/>
	<path style="fill:none;stroke:#FFFFFF;stroke-width:2.21;stroke-opacity:0.45;" d="M58.16,38.34h139.7
		c3.7-0.011,6.709,2.979,6.72,6.68c0,0.023,0,0.047,0,0.07L204.17,120c-0.022,3.736-3.054,6.755-6.79,6.76H57.66
		c-3.711-0.005-6.716-3.019-6.71-6.73c0-0.01,0-0.02,0-0.03l0.41-74.89C51.377,41.366,54.416,38.34,58.16,38.34z"/>
	<path style="fill:#FFFFFF;fill-opacity:0.45;" d="M60,35.39v35.36c42.42-16.86,88.7,23.44,135.5,11.78V35.82h5.89v93.86h-5.89
		V94.32C144.45,105.76,103.84,64.59,60,82.53v47.14h-5.93V35.38H60V35.39z"/>
	<path style="fill:#FFFFFF;fill-opacity:0.45;" d="M65.85,35.39v27.9l5.9-1.41V35.39H65.85z"/>
	<path style="fill:#FFFFFF;fill-opacity:0.45;" d="M77.64,61.89v-26.5h5.9v26L77.64,61.89z"/>
	<path style="fill:#FFFFFF;fill-opacity:0.45;" d="M89.43,61.36v-26h5.89v26.89L89.43,61.36z"/>
	<path style="fill:#FFFFFF;fill-opacity:0.45;" d="M101.21,63.55V35.39h5.9v29.47L101.21,63.55z"/>
	<path style="fill:#FFFFFF;fill-opacity:0.45;" d="M113,65.79v-30.4h5.9v31.44L113,65.79z"/>
	<path style="fill:#FFFFFF;fill-opacity:0.45;" d="M124.79,68.91V35.39h5.89V69.7L124.79,68.91z"/>
	<path style="fill:#FFFFFF;fill-opacity:0.45;" d="M136.57,72V35.38h5.9v37.7L136.57,72z"/>
	<path style="fill:#FFFFFF;fill-opacity:0.45;" d="M148.35,74.39v-39h5.9v40L148.35,74.39z"/>
	<path style="fill:#FFFFFF;fill-opacity:0.45;" d="M160.15,77.25V35.38H166v42.39L160.15,77.25z"/>
	<path style="fill:#FFFFFF;fill-opacity:0.45;" d="M171.93,78.29v-42.9h5.9v42.9H171.93z"/>
	<path style="fill:#FFFFFF;fill-opacity:0.45;" d="M183.71,78.29v-42.9h5.9v42.12L183.71,78.29z"/>
	<path style="fill:#FFFFFF;fill-opacity:0.45;" d="M65.85,129.41V85.62l5.9-0.67v44.47L65.85,129.41z"/>
	<path style="fill:#FFFFFF;fill-opacity:0.45;" d="M77.64,84.68v44.73h5.9v-45.5L77.64,84.68z"/>
	<path style="fill:#FFFFFF;fill-opacity:0.45;" d="M89.43,83.9v45.51h5.89V84.57L89.43,83.9z"/>
	<path style="fill:#FFFFFF;fill-opacity:0.45;" d="M101.21,86.4v43h5.9V87.71L101.21,86.4z"/>
	<path style="fill:#FFFFFF;fill-opacity:0.45;" d="M113,89.11v40.3h5.9V90.68L113,89.11z"/>
	<path style="fill:#FFFFFF;fill-opacity:0.45;" d="M124.79,92.76v36.65h5.89V94.84L124.79,92.76z"/>
	<path style="fill:#FFFFFF;fill-opacity:0.45;" d="M136.57,95.88v33.53h5.9v-32L136.57,95.88z"/>
	<path style="fill:#FFFFFF;fill-opacity:0.45;" d="M148.35,98.49v30.92h5.9V99.53L148.35,98.49z"/>
	<path style="fill:#FFFFFF;fill-opacity:0.45;" d="M160.15,100.57v28.84H166v-28.57l-5.89-0.26L160.15,100.57z"/>
	<path style="fill:#FFFFFF;fill-opacity:0.45;" d="M171.93,101.87v27.54h5.9v-28.32L171.93,101.87z"/>
	<path style="fill:#FFFFFF;fill-opacity:0.45;" d="M183.71,101.61v27.8h5.9v-28.83L183.71,101.61z"/>
	
		<radialGradient id="SVGID_5_" cx="197.92" cy="80.41" r="30.31" gradientTransform="matrix(1 0 0 -1 0 258)" gradientUnits="userSpaceOnUse">
		<stop  offset="0" style="stop-color:#9E9E9E"/>
		<stop  offset="1" style="stop-color:#212121"/>
	</radialGradient>
	<circle style="fill:url(#SVGID_5_);" cx="198.41" cy="161.22" r="15.87"/>
	<path style="fill:#0F0F0F;" d="M198.41,172.13c-6.025,0-10.91-4.885-10.91-10.91c0-6.025,4.885-10.91,10.91-10.91
		c6.025,0,10.91,4.885,10.91,10.91C209.314,167.243,204.433,172.124,198.41,172.13z"/>
	<rect x="60.56" y="197.92" style="fill:#FF8A65;" width="52.43" height="10.41"/>
	<rect x="126.88" y="197.92" style="fill:#FF8A65;" width="25.29" height="10.41"/>
</g>
</svg>
