<svg id="其他" xmlns="http://www.w3.org/2000/svg" xmlns:xlink="http://www.w3.org/1999/xlink" viewBox="0 0 256 256"><defs><style>.cls-1{fill:none;}.cls-2{opacity:0.08;}.cls-3{opacity:0.1;}.cls-4{opacity:0.2;}.cls-5{fill:#01579b;}.cls-6{fill:#0288d1;}.cls-7{fill:url(#radial-gradient);}.cls-8{opacity:0.7;}.cls-10,.cls-8{isolation:isolate;}.cls-9{fill:#fff;}.cls-10{fill:#f5f5f5;}.cls-11{stroke:#263238;stroke-miterlimit:10;stroke-width:2px;fill:url(#radial-gradient-2);}.cls-12{clip-path:url(#clip-path);}.cls-13{fill:url(#radial-gradient-3);}.cls-14{fill:url(#radial-gradient-4);}</style><radialGradient id="radial-gradient" cx="128" cy="128" r="100" gradientUnits="userSpaceOnUse"><stop offset="0" stop-color="#4dd0e1"/><stop offset="0.39" stop-color="#40bee7"/><stop offset="0.61" stop-color="#3fbde7"/><stop offset="0.66" stop-color="#44c4e8"/><stop offset="0.75" stop-color="#2cbee8"/><stop offset="1" stop-color="#2196f3"/></radialGradient><radialGradient id="radial-gradient-2" cx="179.16" cy="84.01" r="71.83" gradientUnits="userSpaceOnUse"><stop offset="0" stop-color="#607d8b"/><stop offset="0.35" stop-color="#607d8b"/><stop offset="0.6" stop-color="#607d8b"/><stop offset="1" stop-color="#455a64"/></radialGradient><clipPath id="clip-path"><path class="cls-1" d="M148.45,26.71h0V138.1a26.94,26.94,0,0,0-6.65-.8c-10.78,0-19.56,6.39-19.56,14.24s8.79,14.24,19.56,14.24,19.57-6.39,19.57-14.24h0V76.75l73.73-15.17v56.16a26.89,26.89,0,0,0-6.65-.8c-10.78,0-19.56,6.39-19.56,14.24s8.78,14.24,19.56,14.24S248,139,248,131.18h0V6.21ZM235,49.07,161.23,64.24V41.48L235,26.31Z"/></clipPath><radialGradient id="radial-gradient-3" cx="35.56" cy="171.74" r="16.86" gradientTransform="translate(92.55 -38.7) scale(1.3 1.08)" gradientUnits="userSpaceOnUse"><stop offset="0.37" stop-color="#5f7b8a"/><stop offset="1" stop-color="#455a64" stop-opacity="0"/></radialGradient><radialGradient id="radial-gradient-4" cx="99.55" cy="156.16" r="16.86" gradientTransform="translate(92.55 -41.64) scale(1.3 1.08)" xlink:href="#radial-gradient-3"/></defs><title>画板 18</title><g id="光盘-音乐"><path class="cls-2" d="M130,256A126,126,0,1,1,256,130,126.14,126.14,0,0,1,130,256Zm0-136a10,10,0,1,0,10,10A10,10,0,0,0,130,120Z"/><path class="cls-3" d="M130,254A124,124,0,1,1,254,130,124.14,124.14,0,0,1,130,254Zm0-136a12,12,0,1,0,12,12A12,12,0,0,0,130,118Z"/><path class="cls-4" d="M128,252A124,124,0,1,1,252,128,124.14,124.14,0,0,1,128,252Zm0-136a12,12,0,1,0,12,12A12,12,0,0,0,128,116Z"/><path class="cls-5" d="M128,250A122,122,0,1,1,250,128,122.14,122.14,0,0,1,128,250Zm0-136a14,14,0,1,0,14,14A14.05,14.05,0,0,0,128,114Z"/><path class="cls-6" d="M128,8A120,120,0,1,0,248,128,120,120,0,0,0,128,8Zm0,236.5A116.5,116.5,0,1,1,244.5,128,116.63,116.63,0,0,1,128,244.5Z"/><path class="cls-7" d="M128,28A100,100,0,1,0,228,128,100.11,100.11,0,0,0,128,28Zm0,135a35,35,0,1,1,35-35A35,35,0,0,1,128,163Z"/><g class="cls-8"><path class="cls-9" d="M162.91,130.3l61.38,4.05,3.51-.12a100.54,100.54,0,0,0-6.4-41.83l-60.72,23.14A35.17,35.17,0,0,1,162.91,130.3Z"/><path class="cls-9" d="M93.09,125.69l-61.37-4.05-3.51.12a100.54,100.54,0,0,0,6.4,41.83l60.71-23.14A35.18,35.18,0,0,1,93.09,125.69Z"/></g><g class="cls-8"><path class="cls-9" d="M158.23,110.39l53.15-31,2.84-2.07a100.52,100.52,0,0,0-28.7-31.1L148.13,99.4A35.16,35.16,0,0,1,158.23,110.39Z"/><path class="cls-9" d="M97.77,145.61l-53.15,31-2.84,2.07a100.54,100.54,0,0,0,28.7,31.1l37.4-53.14A35.16,35.16,0,0,1,97.77,145.61Z"/></g><path class="cls-10" d="M128,11.5A116.5,116.5,0,1,0,244.5,128,116.63,116.63,0,0,0,128,11.5ZM128,228A100,100,0,1,1,228,128,100.11,100.11,0,0,1,128,228Z"/><path class="cls-6" d="M128,93a35,35,0,1,0,35,35A35,35,0,0,0,128,93Zm0,66.38A31.38,31.38,0,1,1,159.38,128,31.41,31.41,0,0,1,128,159.38Z"/><path class="cls-10" d="M128,96.62A31.38,31.38,0,1,0,159.38,128,31.41,31.41,0,0,0,128,96.62ZM128,144a16,16,0,1,1,16-16A16.05,16.05,0,0,1,128,144Z"/><path class="cls-11" d="M148.45,26.71h0V138.1a26.94,26.94,0,0,0-6.65-.8c-10.78,0-19.56,6.39-19.56,14.24s8.79,14.24,19.56,14.24,19.57-6.39,19.57-14.24h0V76.75l73.73-15.17v56.16a26.89,26.89,0,0,0-6.65-.8c-10.78,0-19.56,6.39-19.56,14.24s8.78,14.24,19.56,14.24S248,139,248,131.18h0V6.21ZM235,49.07,161.23,64.24V41.48L235,26.31Z"/><g class="cls-12"><ellipse class="cls-13" cx="140.59" cy="146.56" rx="18.15" ry="14.75"/><ellipse class="cls-14" cx="223.96" cy="126.85" rx="18.15" ry="14.75"/></g></g></svg>