<svg id="其他" xmlns="http://www.w3.org/2000/svg" xmlns:xlink="http://www.w3.org/1999/xlink" viewBox="0 0 256 256"><defs><style>.cls-1,.cls-15,.cls-2,.cls-3,.cls-4,.cls-5{fill-rule:evenodd;}.cls-1{opacity:0.2;}.cls-2{opacity:0.08;}.cls-3{opacity:0.1;}.cls-5{fill:url(#新建渐变色板_1);}.cls-6{fill:#616161;}.cls-7{fill:#f9ce1d;stroke:#212121;stroke-width:6.63px;}.cls-8{fill:url(#linear-gradient);}.cls-9{fill:#212121;}.cls-10{fill:url(#linear-gradient-2);}.cls-11{stroke:#c39f00;fill:url(#linear-gradient-3);}.cls-11,.cls-12{stroke-width:2.21px;}.cls-12{fill:none;stroke:#fff;stroke-opacity:0.45;}.cls-13{fill:#fff;fill-opacity:0.45;}.cls-14{fill:url(#radial-gradient);}.cls-15{fill:#0f0f0f;}.cls-16{fill:#ff8a65;}</style><linearGradient id="新建渐变色板_1" x1="128" y1="8" x2="128" y2="452.84" gradientUnits="userSpaceOnUse"><stop offset="0" stop-color="#211d1e"/><stop offset="0.55" stop-color="#58595b"/><stop offset="1" stop-color="#abb6be"/></linearGradient><linearGradient id="linear-gradient" x1="127.67" y1="246.02" x2="127.67" y2="189.64" gradientUnits="userSpaceOnUse"><stop offset="0" stop-color="#616161"/><stop offset="0.19" stop-color="#fff"/></linearGradient><linearGradient id="linear-gradient-2" x1="49.2" y1="199.98" x2="206.14" y2="199.98" gradientUnits="userSpaceOnUse"><stop offset="0" stop-color="#f57c00"/><stop offset="1" stop-color="#ff5722"/></linearGradient><linearGradient id="linear-gradient-3" x1="-2508.45" y1="2626.96" x2="-2524.52" y2="2658.03" gradientTransform="matrix(2.67, 0, 0, -2.67, 6842.61, 7137.45)" gradientUnits="userSpaceOnUse"><stop offset="0" stop-color="#f9ce1d"/><stop offset="0.5" stop-color="#f5a816"/><stop offset="1" stop-color="#f9ce1d"/></linearGradient><radialGradient id="radial-gradient" cx="197.92" cy="177.59" r="30.31" gradientUnits="userSpaceOnUse"><stop offset="0" stop-color="#9e9e9e"/><stop offset="1" stop-color="#212121"/></radialGradient></defs><title>画板 18</title><g id="sm"><path class="cls-1" d="M32.25,252A13.05,13.05,0,0,1,19.2,239V17a13,13,0,0,1,13-13H213.7l23.1,22.71V239.3A12.74,12.74,0,0,1,223.75,252Z"/><path class="cls-2" d="M34.25,256A15.05,15.05,0,0,1,19.2,241V19a15,15,0,0,1,15-15H216.52L240.8,27.87V241.3A14.72,14.72,0,0,1,225.75,256Z"/><path class="cls-3" d="M34.25,254A13.05,13.05,0,0,1,21.2,241V19a13,13,0,0,1,13-13H215.7l23.1,22.71V241.3A12.74,12.74,0,0,1,225.75,254Z"/><path class="cls-4" d="M32.25,250A11,11,0,0,1,21.2,239V17a11,11,0,0,1,11-11H212.88L234.8,27.55V239.3A10.76,10.76,0,0,1,223.75,250Z"/><path class="cls-5" d="M232.8,28.39,212.06,8H32.25a9,9,0,0,0-9.06,9V239a9,9,0,0,0,9.06,9H223.75a8.81,8.81,0,0,0,9.06-8.7Z"/><path class="cls-6" d="M208.85,15.87l16.09,15.82V239.3c0,.68-.88.83-1.19.83H32.25A1.17,1.17,0,0,1,31.06,239V17a1.14,1.14,0,0,1,1.15-1.13H208.85m.64-1.57H32.21A2.72,2.72,0,0,0,29.49,17V239a2.75,2.75,0,0,0,2.76,2.72H223.75a2.56,2.56,0,0,0,2.76-2.4V31l-17-16.73Z"/><path class="cls-7" d="M56.42,32.44H198.93a11.18,11.18,0,0,1,11.18,11.18v77.83a11.18,11.18,0,0,1-11.18,11.18H56.42a11.18,11.18,0,0,1-11.18-11.18V43.62A11.18,11.18,0,0,1,56.42,32.44Z"/><path class="cls-8" d="M47.22,246V198.84a9.21,9.21,0,0,1,9.2-9.2H198.93a9.21,9.21,0,0,1,9.19,9.2V246Z"/><path class="cls-9" d="M198.93,191.62a7.22,7.22,0,0,1,7.21,7.21V244H49.2v-45.2a7.22,7.22,0,0,1,7.21-7.21H198.93m0-4H56.41a11.18,11.18,0,0,0-11.18,11.18V248H210.11V198.84a11.18,11.18,0,0,0-11.18-11.18Z"/><path class="cls-10" d="M49.2,208.33v-9.49a7.22,7.22,0,0,1,7.21-7.21H198.93a7.22,7.22,0,0,1,7.21,7.21v9.49Z"/><path class="cls-11" d="M56.42,32.44H198.93a11.18,11.18,0,0,1,11.18,11.18v77.83a11.18,11.18,0,0,1-11.18,11.18H56.42a11.18,11.18,0,0,1-11.18-11.18V43.62A11.18,11.18,0,0,1,56.42,32.44Z"/><path class="cls-12" d="M58.16,38.34H197.86a6.7,6.7,0,0,1,6.72,6.75L204.17,120a6.8,6.8,0,0,1-6.79,6.76H57.66A6.72,6.72,0,0,1,50.95,120l.41-74.89A6.8,6.8,0,0,1,58.16,38.34Z"/><path class="cls-13" d="M60,35.39V70.75C102.42,53.89,148.7,94.19,195.5,82.53V35.82h5.89v93.86H195.5V94.32C144.45,105.76,103.84,64.59,60,82.53v47.14H54.07V35.38H60Z"/><path class="cls-13" d="M65.85,35.39v27.9l5.9-1.41V35.39Z"/><path class="cls-13" d="M77.64,61.89V35.39h5.9v26Z"/><path class="cls-13" d="M89.43,61.36v-26h5.89V62.25Z"/><path class="cls-13" d="M101.21,63.55V35.39h5.9V64.86Z"/><path class="cls-13" d="M113,65.79V35.39h5.9V66.83Z"/><path class="cls-13" d="M124.79,68.91V35.39h5.89V69.7Z"/><path class="cls-13" d="M136.57,72V35.38h5.9v37.7Z"/><path class="cls-13" d="M148.35,74.39v-39h5.9v40Z"/><path class="cls-13" d="M160.15,77.25V35.38H166V77.77Z"/><path class="cls-13" d="M171.93,78.29V35.39h5.9V78.29Z"/><path class="cls-13" d="M183.71,78.29V35.39h5.9V77.51Z"/><path class="cls-13" d="M65.85,129.41V85.62l5.9-.67v44.47Z"/><path class="cls-13" d="M77.64,84.68v44.73h5.9V83.91Z"/><path class="cls-13" d="M89.43,83.9v45.51h5.89V84.57Z"/><path class="cls-13" d="M101.21,86.4v43h5.9V87.71Z"/><path class="cls-13" d="M113,89.11v40.3h5.9V90.68Z"/><path class="cls-13" d="M124.79,92.76v36.65h5.89V94.84Z"/><path class="cls-13" d="M136.57,95.88v33.53h5.9v-32Z"/><path class="cls-13" d="M148.35,98.49v30.92h5.9V99.53Z"/><path class="cls-13" d="M160.15,100.57v28.84H166V100.84l-5.89-.26Z"/><path class="cls-13" d="M171.93,101.87v27.54h5.9V101.09Z"/><path class="cls-13" d="M183.71,101.61v27.8h5.9V100.58Z"/><circle class="cls-14" cx="198.41" cy="161.22" r="15.87"/><path class="cls-15" d="M198.41,172.13a10.91,10.91,0,1,1,10.91-10.91A10.92,10.92,0,0,1,198.41,172.13Z"/><rect class="cls-16" x="60.56" y="197.92" width="52.43" height="10.41"/><rect class="cls-16" x="126.88" y="197.92" width="25.29" height="10.41"/></g></svg>