<?xml version="1.0" encoding="utf-8"?>
<!-- Generator: Adobe Illustrator 21.0.0, SVG Export Plug-In . SVG Version: 6.00 Build 0)  -->
<svg version="1.1"
	 id="svg2" inkscape:version="0.48.4 r9939" sodipodi:docname="computer.svg" xmlns:cc="http://creativecommons.org/ns#" xmlns:dc="http://purl.org/dc/elements/1.1/" xmlns:inkscape="http://www.inkscape.org/namespaces/inkscape" xmlns:rdf="http://www.w3.org/1999/02/22-rdf-syntax-ns#" xmlns:sodipodi="http://sodipodi.sourceforge.net/DTD/sodipodi-0.dtd" xmlns:svg="http://www.w3.org/2000/svg"
	 xmlns="http://www.w3.org/2000/svg" xmlns:xlink="http://www.w3.org/1999/xlink" x="0px" y="0px" viewBox="0 0 256 256"
	 style="enable-background:new 0 0 256 256;" xml:space="preserve">
<style type="text/css">
	.st0{opacity:0.08;enable-background:new    ;}
	.st1{opacity:0.1;enable-background:new    ;}
	.st2{opacity:0.2;enable-background:new    ;}
	.st3{fill:#01579B;}
	.st4{fill:#0288D1;}
	.st5{fill:url(#SVGID_1_);}
	.st6{opacity:0.7;enable-background:new    ;}
	.st7{fill:#FFFFFF;}
	.st8{fill:#F5F5F5;}
</style>
<g>
	<path class="st0" d="M130,256C60.5,256,4,199.5,4,130S60.5,4,130,4s126,56.5,126,126S199.5,256,130,256z M130,120
		c-5.5,0-10,4.5-10,10s4.5,10,10,10s10-4.5,10-10S135.5,120,130,120z"/>
	<path class="st1" d="M130,254C61.6,254,6,198.4,6,130S61.6,6,130,6s124,55.6,124,124S198.4,254,130,254z M130,118
		c-6.6,0-12,5.4-12,12c0,6.6,5.4,12,12,12c6.6,0,12-5.4,12-12S136.6,118,130,118z"/>
	<path class="st2" d="M128,252C59.6,252,4,196.4,4,128S59.6,4,128,4s124,55.6,124,124S196.4,252,128,252z M128,116
		c-6.6,0-12,5.4-12,12c0,6.6,5.4,12,12,12c6.6,0,12-5.4,12-12S134.6,116,128,116z"/>
	<path class="st3" d="M128,250C60.7,250,6,195.3,6,128S60.7,6,128,6s122,54.7,122,122S195.3,250,128,250z M128,114
		c-7.7,0-14,6.3-14,14s6.3,14,14,14s14-6.3,14-14S135.7,114,128,114z"/>
	<path class="st4" d="M128,8C61.7,8,8,61.7,8,128s53.7,120,120,120s120-53.7,120-120S194.3,8,128,8z M128,244.5
		c-64.2,0-116.5-52.3-116.5-116.5S63.8,11.5,128,11.5S244.5,63.8,244.5,128S192.2,244.5,128,244.5z"/>
	
		<radialGradient id="SVGID_1_" cx="128" cy="-462" r="100" gradientTransform="matrix(1 0 0 -1 0 -334)" gradientUnits="userSpaceOnUse">
		<stop  offset="0" style="stop-color:#4DD0E1"/>
		<stop  offset="0.3925" style="stop-color:#40BEE7"/>
		<stop  offset="0.6129" style="stop-color:#3FBDE7"/>
		<stop  offset="0.6613" style="stop-color:#44C4E8"/>
		<stop  offset="0.7527" style="stop-color:#2CBEE8"/>
		<stop  offset="1" style="stop-color:#2196F3"/>
	</radialGradient>
	<path class="st5" d="M128,28C72.9,28,28,72.9,28,128s44.9,100,100,100s100-44.9,100-100S183.1,28,128,28z M128,163
		c-19.3,0-35-15.7-35-35s15.7-35,35-35s35,15.7,35,35S147.3,163,128,163z"/>
	<g class="st6">
		<path class="st7" d="M162.9,130.3l61.4,4.1l3.5-0.1c0.9-14.3-1.4-28.6-6.4-41.8l-60.7,23.1C162.5,120.2,163.2,125.3,162.9,130.3z"
			/>
		<path class="st7" d="M93.1,125.7l-61.4-4.1l-3.5,0.1c-0.9,14.3,1.4,28.6,6.4,41.8l60.7-23.1C93.5,135.8,92.8,130.7,93.1,125.7z"/>
	</g>
	<g class="st6">
		<path class="st7" d="M158.2,110.4l53.1-31l2.8-2.1c-7.3-12.4-17.1-22.9-28.7-31.1L148,99.3C152.2,102.3,155.7,106,158.2,110.4z"/>
		<path class="st7" d="M97.8,145.6l-53.1,31l-2.8,2.1c7.3,12.4,17.1,22.9,28.7,31.1l37.4-53.1C103.8,153.7,100.3,150,97.8,145.6z"/>
	</g>
	<path class="st8" d="M128,11.5C63.8,11.5,11.5,63.8,11.5,128S63.8,244.5,128,244.5S244.5,192.2,244.5,128S192.2,11.5,128,11.5z
		 M128,228c-55.1,0-100-44.9-100-100S72.9,28,128,28s100,44.9,100,100S183.1,228,128,228z"/>
	<path class="st4" d="M128,93c-19.3,0-35,15.7-35,35s15.7,35,35,35s35-15.7,35-35S147.3,93,128,93z M128,159.4
		c-17.3,0-31.4-14.1-31.4-31.4s14.1-31.4,31.4-31.4s31.4,14.1,31.4,31.4S145.3,159.4,128,159.4z"/>
	<path class="st8" d="M128,96.5c-17.4,0-31.5,14.1-31.5,31.5s14.1,31.5,31.5,31.5s31.5-14.1,31.5-31.5S145.4,96.5,128,96.5z
		 M128,144.1c-8.8,0-16.1-7.2-16.1-16.1s7.2-16.1,16.1-16.1s16.1,7.2,16.1,16.1S136.8,144.1,128,144.1z"/>
</g>
</svg>
