<svg id="其他" xmlns="http://www.w3.org/2000/svg" xmlns:xlink="http://www.w3.org/1999/xlink" viewBox="0 0 256 256"><defs><style>.cls-1{opacity:0.08;}.cls-2{opacity:0.1;}.cls-3{opacity:0.2;}.cls-4{fill:#325468;}.cls-5{fill:#4e7693;}.cls-6{fill:url(#未命名的渐变_116);}.cls-7{opacity:0.7;}.cls-7,.cls-9{isolation:isolate;}.cls-8{fill:#fff;}.cls-9{fill:#f5f5f5;}.cls-10{fill:#263238;fill-rule:evenodd;}</style><radialGradient id="未命名的渐变_116" cx="128" cy="128" r="100" gradientUnits="userSpaceOnUse"><stop offset="0" stop-color="#789db8"/><stop offset="0.39" stop-color="#789db8"/><stop offset="0.61" stop-color="#789db8"/><stop offset="0.66" stop-color="#7ba0ba"/><stop offset="0.75" stop-color="#6e96b3"/><stop offset="1" stop-color="#6e96b3"/></radialGradient></defs><title>画板 18</title><g id="光盘"><path class="cls-1" d="M130,256A126,126,0,1,1,256,130,126.14,126.14,0,0,1,130,256Zm0-136a10,10,0,1,0,10,10A10,10,0,0,0,130,120Z"/><path class="cls-2" d="M130,254A124,124,0,1,1,254,130,124.14,124.14,0,0,1,130,254Zm0-136a12,12,0,1,0,12,12A12,12,0,0,0,130,118Z"/><path class="cls-3" d="M128,252A124,124,0,1,1,252,128,124.14,124.14,0,0,1,128,252Zm0-136a12,12,0,1,0,12,12A12,12,0,0,0,128,116Z"/><path class="cls-4" d="M128,250A122,122,0,1,1,250,128,122.14,122.14,0,0,1,128,250Zm0-136a14,14,0,1,0,14,14A14.05,14.05,0,0,0,128,114Z"/><path class="cls-5" d="M128,8A120,120,0,1,0,248,128,120,120,0,0,0,128,8Zm0,236.5A116.5,116.5,0,1,1,244.5,128,116.63,116.63,0,0,1,128,244.5Z"/><path class="cls-6" d="M128,28A100,100,0,1,0,228,128,100.11,100.11,0,0,0,128,28Zm0,135a35,35,0,1,1,35-35A35,35,0,0,1,128,163Z"/><g class="cls-7"><path class="cls-8" d="M162.91,130.3l61.38,4.05,3.51-.12a100.54,100.54,0,0,0-6.4-41.83l-60.72,23.14A35.17,35.17,0,0,1,162.91,130.3Z"/><path class="cls-8" d="M93.09,125.69l-61.37-4.05-3.51.12a100.54,100.54,0,0,0,6.4,41.83l60.71-23.14A35.18,35.18,0,0,1,93.09,125.69Z"/></g><g class="cls-7"><path class="cls-8" d="M158.23,110.39l53.15-31,2.84-2.07a100.52,100.52,0,0,0-28.7-31.1L148.13,99.4A35.16,35.16,0,0,1,158.23,110.39Z"/><path class="cls-8" d="M97.77,145.61l-53.15,31-2.84,2.07a100.54,100.54,0,0,0,28.7,31.1l37.4-53.14A35.16,35.16,0,0,1,97.77,145.61Z"/></g><path class="cls-9" d="M128,11.5A116.5,116.5,0,1,0,244.5,128,116.63,116.63,0,0,0,128,11.5ZM128,228A100,100,0,1,1,228,128,100.11,100.11,0,0,1,128,228Z"/><path class="cls-5" d="M128,93a35,35,0,1,0,35,35A35,35,0,0,0,128,93Zm0,66.38A31.38,31.38,0,1,1,159.38,128,31.41,31.41,0,0,1,128,159.38Z"/><path class="cls-9" d="M128,96.62A31.38,31.38,0,1,0,159.38,128,31.41,31.41,0,0,0,128,96.62ZM128,144a16,16,0,1,1,16-16A16.05,16.05,0,0,1,128,144Z"/><path class="cls-10" d="M197,171.59H153.54S142,185.22,139.9,187.79c-11.47,13.81-13.5,17.51-13.84,18.47,0-1-.37-4.7-5.26-18.66-1.3-3.72-5.5-16-5.5-16H100.44v0l-36.08,0H37.15l-2.75,11.59H59.75c13.2,0,21.26,5.31,19,14.74-2.44,10.26-14,14.74-26.23,14.74H47.93l6-25.19H33.37l-8.74,36.79H53.76c21.9,0,42.72-11.56,46.38-26.33.67-2.71.58-9.49-1.08-13.53a3.49,3.49,0,0,0-.24-.6c-.06-.13-.12-.73.23-.86.19-.07.55.3.59.41l.31.79,18.53,52.32,47.18-53.25,20,0h4.82c13.2,0,21.33,5.31,19.1,14.74-2.44,10.26-14,14.74-26.3,14.74h-4.61l6-25.19H164.1l-8.74,36.79h29.13c21.89,0,42.86-11.52,46.38-26.33S219,171.59,197,171.59Z"/></g></svg>