<svg id="其他" xmlns="http://www.w3.org/2000/svg" xmlns:xlink="http://www.w3.org/1999/xlink" viewBox="0 0 256 256"><defs><style>.cls-1{opacity:0.08;}.cls-2{opacity:0.1;}.cls-3{opacity:0.2;}.cls-4{fill:#221e1f;}.cls-5{fill:url(#linear-gradient);}.cls-6{fill:url(#linear-gradient-2);}.cls-7{font-size:13.04px;fill:#bbbdbf;font-family:Arial-Black, Arial;}.cls-8,.cls-9{font-size:8.85px;}.cls-8{letter-spacing:0em;}.cls-10{font-size:15.8px;fill:#a6a8ab;font-family:BankGothicBT-Medium, BankGothic Md BT;}.cls-11{fill:#fff;}</style><linearGradient id="linear-gradient" x1="128.36" y1="65.83" x2="128.36" y2="193.27" gradientUnits="userSpaceOnUse"><stop offset="0" stop-color="#6c6e70"/><stop offset="0" stop-color="#67696b"/><stop offset="0" stop-color="#535455"/><stop offset="0" stop-color="#434444"/><stop offset="0" stop-color="#383839"/><stop offset="0" stop-color="#323232"/><stop offset="0" stop-color="#303030"/><stop offset="1" stop-color="#303030"/></linearGradient><linearGradient id="linear-gradient-2" x1="146.28" y1="159.52" x2="146.28" y2="76.41" gradientUnits="userSpaceOnUse"><stop offset="0.01" stop-color="#6c6e70"/><stop offset="0.01" stop-color="#595b5c"/><stop offset="0.01" stop-color="#444546"/><stop offset="0.01" stop-color="#343535"/><stop offset="0.02" stop-color="#29292a"/><stop offset="0.02" stop-color="#232323"/><stop offset="0.03" stop-color="#212121"/><stop offset="1" stop-color="#212121"/></linearGradient></defs><title>画板 18</title><g id="内存卡"><path class="cls-1" d="M51.09,207.77,4,182.54V62.31A10.09,10.09,0,0,1,14.08,52.23H245.92A10.09,10.09,0,0,1,256,62.31V86.66l-.88,1.44A22.87,22.87,0,0,0,252,97.18c-.07.46-.11.66-.15.87l0,.2c0,.19,0,.41-.07.65l.07.61v.39A25.61,25.61,0,0,0,252,103a23.49,23.49,0,0,0,2.87,9l.1.18c.17.34.29.59.39.84l.11.24.52,1.29v83.1a10.09,10.09,0,0,1-10.08,10.08Z"/><path class="cls-2" d="M51.59,205.77,6,181.34v-119a8.09,8.09,0,0,1,8.08-8.08H245.92A8.09,8.09,0,0,1,254,62.31V86.1l-.58,1a24.89,24.89,0,0,0-3.35,9.88c-.05.34-.09.52-.13.7l0,.15,0,.18c0,.29-.07.62-.1,1l.08.68v.26a27.59,27.59,0,0,0,.16,3.36v.08a25.37,25.37,0,0,0,3.12,9.74l.08.14c.13.26.23.47.31.69l.09.18.38.93v82.71a8.09,8.09,0,0,1-8.08,8.08Z"/><path class="cls-3" d="M49.59,203.77,4,179.34v-119a8.09,8.09,0,0,1,8.08-8.08H243.92A8.09,8.09,0,0,1,252,60.31V84.1l-.58,1a24.89,24.89,0,0,0-3.35,9.88c-.05.34-.09.52-.13.7l0,.15,0,.18c0,.29-.07.62-.1,1l.08.68v.26a27.59,27.59,0,0,0,.16,3.36v.08a25.37,25.37,0,0,0,3.12,9.74l.08.14c.13.26.23.47.31.69l.09.18.38.93v82.71a8.09,8.09,0,0,1-8.08,8.08Z"/><path d="M50.09,201.77,6,178.14V60.31a6.09,6.09,0,0,1,6.08-6.08H243.92A6.09,6.09,0,0,1,250,60.31V83.54l-.29.48a26.9,26.9,0,0,0-3.63,10.68c0,.23-.07.37-.1.52s0,.2-.06.3l0,.17c-.05.38-.1.82-.13,1.27l.09.75v.12a29.6,29.6,0,0,0,.18,3.61v.11A27.26,27.26,0,0,0,249.41,112l.05.1c.08.16.15.32.22.48s0,.12.08.18l0,.09.19.48v82.32a6.09,6.09,0,0,1-6.08,6.08Z"/><path class="cls-4" d="M246.23,114.81v0a29.45,29.45,0,0,1-1.1-4l-.09-.43c-.18-1-.27-1.94-.37-2.92h0a30.87,30.87,0,0,1-1-6c0-.06,0-.12,0-.18-.05-.93-.06-1.86,0-2.79v-.32c0-.95.12-1.88.25-2.82,0,0,0-.07,0-.1,0-.27.11-.53.15-.8A28.78,28.78,0,0,1,248,83V75.51a4.08,4.08,0,0,0-4.08-4.08H12.08A4.08,4.08,0,0,0,8,75.51V176.94l42.59,22.82H243.92a4.08,4.08,0,0,0,4.08-4.08V118.76h0A27.12,27.12,0,0,1,246.23,114.81Z"/><path class="cls-4" d="M247.68,113h0a29,29,0,0,1-3.62-11.19l0-.19h0a31.34,31.34,0,0,1-.19-3.85c0-.44-.12-.89-.15-1.34,0-.06,0-.12,0-.18-.05-.93-.06-1.86,0-2.79v-.32c0-.95.12-1.88.25-2.82,0,0,0-.07,0-.1A28.61,28.61,0,0,1,248,78.9V60.31a4.08,4.08,0,0,0-4.08-4.08H12.08A4.08,4.08,0,0,0,8,60.31V165.68l42.59,23.81H243.92c2.25,0,4.08-.84,4.08-3.09V113.76h0C247.88,113.53,247.8,113.28,247.68,113Z"/><path class="cls-5" d="M244.84,113.58a26.54,26.54,0,0,1-1.7-3.51h0l-.12-.31v0a30.48,30.48,0,0,1-2-11.85c0-.31-.08-.61-.1-.92,0-.06,0-.12,0-.18-.05-.93-.06-1.86,0-2.79v-.32c0-.95.12-1.88.24-2.82,0,0,0-.07,0-.1a28.91,28.91,0,0,1,4-11.35V69a4,4,0,0,0-4-4.08H15.6a4,4,0,0,0-4,4.08V170.4l39,22.82H241.11a4,4,0,0,0,4-4.08V114.26h0C245,114,244.94,113.8,244.84,113.58Z"/><rect class="cls-6" x="61.77" y="76.44" width="169.02" height="83.69" rx="4.92" ry="4.92"/><text class="cls-7" transform="translate(26.31 167.16) scale(0.95 1)">32<tspan class="cls-8" x="17.4" y="0">GB</tspan></text><text class="cls-7" transform="translate(131.85 94.38) scale(0.95 1)">TOTAL 32<tspan class="cls-9" x="70.29" y="0">GB</tspan></text><text class="cls-10" transform="translate(80.76 150.48) scale(0.98 1)">MEMORY</text><text class="cls-10" transform="translate(165.89 150.24) scale(0.98 1)">STICK</text><polygon class="cls-11" points="16.6 162.21 19.54 159.74 22.48 157.29 22.48 162.21 22.48 167.11 19.54 164.66 16.6 162.21"/><path class="cls-11" d="M35.23,77.74A16.64,16.64,0,1,0,51.88,94.38,16.65,16.65,0,0,0,35.23,77.74Zm5.66,4.6a2.23,2.23,0,1,1-2.23,2.23A2.23,2.23,0,0,1,40.9,82.34Zm-17,14.27a2.23,2.23,0,1,1,2.23-2.23A2.23,2.23,0,0,1,23.9,96.61Zm1.7.37a3.1,3.1,0,0,0-.1-5.2,12.64,12.64,0,0,1,4.37-5.47l1.64,2.74a6.3,6.3,0,0,0-2.76,5.21,6.88,6.88,0,0,0,2.74,5.47l-1.61,2.69A12.06,12.06,0,0,1,25.6,97ZM34,90.27,35.24,89h0l-.53,1.58L35,91.76l-.81,1.13,1.21.91,1.69.69.51-.28.69-.37L39,92.78l1.16-.36L40,94h0l-.74.27-.55-.11-1,.58.06,1.23.49,1-1,.9.06.76H36l1-1.52-.36-.46h0l-1,.8h0v.54l-1.29,0,.84-.79.82-1-.69-.46-.7.37-1,.38-.84-.15-.51.8-.16,1.16H30.91l.47-.57.44-.53-.27-.65-.21-1.28-.66-1.65.7-1.2.49-1,1-.64.08,0,1.17-1.2h0l-.32.81Zm6.91,16.18a2.23,2.23,0,1,1,2.23-2.23A2.23,2.23,0,0,1,40.9,106.45ZM42,101.29a2.54,2.54,0,0,0-1.36-.21,2.84,2.84,0,0,0-2.69,2.61,9.61,9.61,0,0,1-7-.65l1.54-2.73c1.18.3,3.84,1,6.13-.4,2.12-1.33,2.66-3.56,3-5l3.27.07A9.51,9.51,0,0,1,42,101.29Zm-.24-7.54a6.62,6.62,0,0,0-9.28-5.3L31,85.7c1.87-1.22,5.27-1.15,6.83-.63a3.43,3.43,0,0,0,1.59,2.21,3.28,3.28,0,0,0,2.62.21,9.32,9.32,0,0,1,2.89,6.27Z"/></g></svg>