<svg id="其他" xmlns="http://www.w3.org/2000/svg" xmlns:xlink="http://www.w3.org/1999/xlink" viewBox="0 0 256 256"><defs><style>.cls-1{opacity:0.2;}.cls-2{opacity:0.08;}.cls-3{opacity:0.1;}.cls-10,.cls-11,.cls-4,.cls-5,.cls-6,.cls-7,.cls-8,.cls-9{fill-rule:evenodd;}.cls-4{fill:url(#新建渐变色板_1);}.cls-5{fill:url(#linear-gradient);}.cls-6{fill:#221e1f;}.cls-7{fill:#040000;}.cls-8{fill:#bac6d1;}.cls-9{fill:#616161;}.cls-10{fill:url(#linear-gradient-2);}.cls-11{fill:#fff;}.cls-12{fill:#90a4ae;}</style><linearGradient id="新建渐变色板_1" x1="128" y1="8.14" x2="128" y2="452.71" gradientUnits="userSpaceOnUse"><stop offset="0" stop-color="#211d1e"/><stop offset="0.55" stop-color="#58595b"/><stop offset="1" stop-color="#abb6be"/></linearGradient><linearGradient id="linear-gradient" x1="130.39" y1="107.33" x2="130.39" y2="262.93" gradientUnits="userSpaceOnUse"><stop offset="0" stop-color="#fff"/><stop offset="1" stop-color="#cfd8dc"/></linearGradient><linearGradient id="linear-gradient-2" x1="-45.34" y1="66.13" x2="210.39" y2="39.25" gradientUnits="userSpaceOnUse"><stop offset="0" stop-color="#bfd7b1"/><stop offset="0.36" stop-color="#cfd1d2"/><stop offset="1" stop-color="#fff"/></linearGradient></defs><title>画板 18</title><g id="软驱"><path class="cls-1" d="M17.14,252A12.56,12.56,0,0,1,4.58,239.47V16.65A12.53,12.53,0,0,1,17.1,4.14H34.39L35.48,6.4a2.49,2.49,0,0,0,1.18,1.13l0,0,.32.12.13,0,.21,0,.15,0a3.36,3.36,0,0,0,.37,0l25.48,0V4l132.92.16V6.6l1.11-2.24,32,0,22,21.34v214A12.26,12.26,0,0,1,238.86,252Z"/><path class="cls-2" d="M19.14,256A14.56,14.56,0,0,1,4.58,241.47V18.65A14.53,14.53,0,0,1,19.1,4.14H37.64l1.64,3.38a.49.49,0,0,0,.19.18l.14.06.22,0,23.52,0V4l136.92.17v.18l32,0,23.18,22.49V241.77A14.24,14.24,0,0,1,240.86,256Z"/><path class="cls-3" d="M19.14,254A12.56,12.56,0,0,1,6.58,241.47V18.65A12.53,12.53,0,0,1,19.1,6.14H36.39L37.48,8.4a2.49,2.49,0,0,0,1.18,1.13l0,0,.32.12.13,0,.21,0,.15,0a3.36,3.36,0,0,0,.37,0l25.48,0V6l132.92.16V8.6l1.11-2.24,32,0,22,21.34v214A12.26,12.26,0,0,1,240.86,254Z"/><path d="M17.14,250A10.56,10.56,0,0,1,6.58,239.47V16.65A10.53,10.53,0,0,1,17.1,6.14h16l.55,1.13a4.49,4.49,0,0,0,2.21,2.11l.12,0,.43.16.22.06.35.08.28,0a5.07,5.07,0,0,0,.58,0l27.48,0V6l128.92.16V10a4.84,4.84,0,0,0,1.54-.39l.09,0a4.7,4.7,0,0,0,.45-.24l.12-.08c.19-.13.3-.2.4-.28L197,8.8l.29-.27a3.74,3.74,0,0,0,.35-.43l.25-.37.15-.27.55-1.11,30,0,20.8,20.19v213.2A10.29,10.29,0,0,1,238.86,250Z"/><path class="cls-4" d="M247.42,239.77a8.33,8.33,0,0,1-8.56,8.22H17.14a8.55,8.55,0,0,1-8.56-8.52V16.65a8.53,8.53,0,0,1,8.56-8.5H31.88a6.64,6.64,0,0,0,6,3.66l156,.18a6.67,6.67,0,0,0,6-3.63l27.94,0,19.61,19Z"/><path class="cls-5" d="M44.47,110.66H216.28a8.77,8.77,0,0,1,8.75,8.69V248H35.75V119.35A8.7,8.7,0,0,1,44.47,110.66Z"/><path class="cls-6" d="M40.73,94.32A6.32,6.32,0,0,1,34.42,88V10.88a6.8,6.8,0,0,0,2.75.89V87.88a6.31,6.31,0,0,0,6.32,6.28Z"/><path class="cls-7" d="M42.83,109.77H215.18a9,9,0,0,1,5.46,2.13,8.88,8.88,0,0,0-2.72-.65H45.56a8.75,8.75,0,0,0-8.75,8.7V248H34.07V118.47A8.74,8.74,0,0,1,42.83,109.77Z"/><path class="cls-8" d="M220,111.42a8.74,8.74,0,0,1,7.1,8.56V222.39H227v9.42h.07V248H224V118.7A8.69,8.69,0,0,0,220,111.42Z"/><path class="cls-9" d="M199.32,9.24,199,88.44a6.33,6.33,0,0,1-6.32,6.27L43.82,94.52a6.31,6.31,0,0,1-5.61-3.42c.5.21,4,1.84,5.5,1.84l146.16.18A6.19,6.19,0,0,0,196,87l.33-75.44a6.54,6.54,0,0,0,2.94-2.3ZM193,12l-94.2-.11h0Z"/><path class="cls-6" d="M67.58,8.17h124.7V80.56a8.83,8.83,0,0,1-8.85,8.79l-107-.13a8.88,8.88,0,0,1-8.85-8.83V8.17Zm80.55,8.65a5.92,5.92,0,0,0-5.92,5.91V79.9a5.94,5.94,0,0,0,5.92,5.93l24.2,0a5.94,5.94,0,0,0,5.94-5.92V22.77a6,6,0,0,0-5.94-5.94Z"/><path class="cls-10" d="M67.36,8l124.72.16V79.53a8.88,8.88,0,0,1-8.87,8.8l-107-.14a8.87,8.87,0,0,1-8.85-8.83V8Zm80.57,7.76a6,6,0,0,0-6,5.91V78.86a6,6,0,0,0,6,5.93H172.1a5.93,5.93,0,0,0,6-5.89V21.73a6,6,0,0,0-6-6Z"/><path class="cls-11" d="M67.36,8.17H192.08v1L68.26,9V80.39A8.7,8.7,0,0,0,70,85.66a8.71,8.71,0,0,1-2.68-6.3V8.17ZM177,18.38a5.84,5.84,0,0,1,1.06,3.35V78.91a5.93,5.93,0,0,1-6,5.89H147.94a6,6,0,0,1-4-1.54,6,6,0,0,0,4.89,2.58l24.17,0a6,6,0,0,0,6-5.92V22.77A6,6,0,0,0,177,18.38Z"/><rect class="cls-12" x="69.7" y="148.1" width="120.35" height="5.96"/><rect class="cls-12" x="69.7" y="198.49" width="120.35" height="5.96"/></g></svg>