<svg xmlns="http://www.w3.org/2000/svg" xmlns:xlink="http://www.w3.org/1999/xlink" viewBox="0 0 256 256"><defs><style>.cls-1{opacity:0.08;}.cls-2{opacity:0.1;}.cls-3{opacity:0.2;}.cls-4{fill:#040000;}.cls-5{fill:url(#linear-gradient);}.cls-6{fill:url(#linear-gradient-2);}.cls-7{fill:#1c2938;}.cls-8{fill:#090c0f;}.cls-9{fill:#ececde;}.cls-10{fill:url(#linear-gradient-3);}.cls-11,.cls-15{fill:none;stroke-miterlimit:10;stroke-width:2px;}.cls-11{stroke:#000;}.cls-12{fill:#bdbdb2;}.cls-13{fill:#fff;}.cls-14{fill:#8f9396;}.cls-15{stroke:#8f9396;}</style><linearGradient id="linear-gradient" x1="128" y1="127.55" x2="128" y2="57.23" gradientUnits="userSpaceOnUse"><stop offset="0" stop-color="#455a64"/><stop offset="1" stop-color="#607d8b"/></linearGradient><linearGradient id="linear-gradient-2" x1="128" y1="197.87" x2="128" y2="127.55" gradientUnits="userSpaceOnUse"><stop offset="0" stop-color="#1a1a1a"/><stop offset="1" stop-color="#263238"/></linearGradient><linearGradient id="linear-gradient-3" x1="225.38" y1="152.29" x2="225.88" y2="133.94" gradientUnits="userSpaceOnUse"><stop offset="0.24" stop-color="#689f38"/><stop offset="0.94" stop-color="#8bc34a"/></linearGradient></defs><title>画板 18</title><g id="开始菜单应用图标"><g id="打印机"><g id="_256" data-name="256"><polygon class="cls-1" points="41.61 254 41.61 203.87 9.97 203.87 9.97 55.23 52.16 55.23 52.16 6 178.34 6 207.84 34.52 207.84 55.23 250.03 55.23 250.03 203.87 218.38 203.87 218.38 254 41.61 254"/><polygon class="cls-2" points="43.61 252 43.61 201.87 11.97 201.87 11.97 57.23 54.16 57.23 54.16 8 177.54 8 205.84 35.37 205.84 57.23 248.03 57.23 248.03 201.87 216.38 201.87 216.38 252 43.61 252"/><polygon class="cls-3" points="41.61 250 41.61 199.87 9.97 199.87 9.97 55.23 52.16 55.23 52.16 6 175.54 6 203.84 33.37 203.84 55.23 246.03 55.23 246.03 199.87 214.38 199.87 214.38 250 41.61 250"/><polygon class="cls-4" points="201.84 57.23 201.84 34.21 174.73 8 54.16 8 54.16 57.23 11.97 57.23 11.97 127.55 11.97 197.87 43.61 197.87 43.61 248 212.38 248 212.38 197.87 244.03 197.87 244.03 127.55 244.03 57.23 201.84 57.23"/><rect class="cls-5" x="11.97" y="57.23" width="232.06" height="70.32"/><rect class="cls-6" x="11.97" y="127.55" width="232.06" height="70.32"/><rect class="cls-7" x="43.61" y="81.84" width="168.77" height="21.1"/><rect class="cls-7" x="43.61" y="156.58" width="168.77" height="91.42"/><rect class="cls-8" x="43.61" y="156.58" width="168.77" height="9.15"/><rect class="cls-9" x="54.16" y="165.73" width="147.68" height="70.32"/><path class="cls-8" d="M225.57,156.18a11.05,11.05,0,1,1,11.05-11.05A11.06,11.06,0,0,1,225.57,156.18Z"/><circle class="cls-10" cx="225.57" cy="145.13" r="7.91"/><polygon class="cls-11" points="11.97 57.23 11.97 127.55 11.97 197.87 43.61 197.87 43.61 248 212.38 248 212.38 197.87 244.03 197.87 244.03 127.55 244.03 57.23 11.97 57.23"/><polygon class="cls-9" points="174.73 32.78 174.73 8 54.16 8 54.16 92.39 201.84 92.39 201.84 34.21 200.35 32.78 174.73 32.78"/><polygon class="cls-12" points="201.84 62.11 174.73 34.02 175.62 17.15 201.84 34.21 201.84 62.11"/><polygon class="cls-13" points="201.84 34.02 174.73 8 174.73 34.02 201.84 34.02"/><rect class="cls-14" x="71.74" y="29.1" width="91.42" height="7.03"/><rect class="cls-14" x="71.74" y="50.19" width="91.42" height="7.03"/><rect class="cls-14" x="71.74" y="71.29" width="91.42" height="7.03"/><polygon class="cls-15" points="174.73 8 54.16 8 54.16 92.39 201.84 92.39 201.84 62.11 201.84 34.21 174.73 8"/></g></g></g></svg>