<?xml version="1.0" encoding="utf-8"?>
<!-- Generator: Adobe Illustrator 21.0.0, SVG Export Plug-In . SVG Version: 6.00 Build 0)  -->
<svg version="1.1" id="图层_1" xmlns="http://www.w3.org/2000/svg" xmlns:xlink="http://www.w3.org/1999/xlink" x="0px" y="0px"
	 viewBox="0 0 64 64" style="enable-background:new 0 0 64 64;" xml:space="preserve">
<style type="text/css">
	.st0{opacity:0.1;enable-background:new    ;}
	.st1{opacity:0.2;enable-background:new    ;}
	.st2{fill:#3E2723;}
	.st3{fill:url(#SVGID_1_);}
	.st4{fill:#795548;fill-opacity:0.7;}
	.st5{opacity:0.39;fill:#FFFFFF;enable-background:new    ;}
	.st6{fill:#FFFFFF;}
	.st7{opacity:0.8;fill:#FFFFFF;enable-background:new    ;}
	.st8{enable-background:new    ;}
	.st9{fill:#5D4037;}
</style>
<polygon class="st0" points="9.2,64 9.2,2 56.8,2 56.8,46.5 39.3,64 "/>
<polygon class="st0" points="10.2,63 10.2,3 55.8,3 55.8,46.1 38.9,63 "/>
<polygon class="st1" points="9.2,62 9.2,2 54.8,2 54.8,45.1 37.9,62 "/>
<polygon class="st2" points="10.1,61 10.1,3 53.9,3 53.9,44.7 37.5,61 "/>
<g>
	<g>
		
			<linearGradient id="SVGID_1_" gradientUnits="userSpaceOnUse" x1="73.6001" y1="-805.4004" x2="73.6001" y2="-862.4004" gradientTransform="matrix(1 0 0 -1 -41.6001 -801.9004)">
			<stop  offset="0" style="stop-color:#785548"/>
			<stop  offset="1" style="stop-color:#9F9E9F"/>
		</linearGradient>
		<polygon class="st3" points="10.6,60.5 10.6,3.5 53.4,3.5 53.4,44.4 37.5,60.5 		"/>
		<polygon class="st4" points="53.4,44.5 53.4,43.8 36.4,43.8 36.4,60.5 37.3,60.5 		"/>
		<path class="st5" d="M37.3,44.5h16.1l-16,16L37.3,44.5z"/>
	</g>
	<path class="st6" d="M25.9,14.5h-1.4V33h-1.1V14.5H22V33h-1.1V14.5h-1.4V33h-1.1V14.5H17V33h-0.4v7.8h9.9V33H26
		C25.9,33,25.9,14.5,25.9,14.5z M25,38.6h-7V34h7V38.6z"/>
	<g>
		<rect x="10.6" y="3.5" class="st7" width="42.7" height="10.9"/>
		<g class="st8">
			<path class="st9" d="M17.9,11.8c0.3,0,0.5,0,0.7-0.1c0.2,0,0.3-0.1,0.4-0.2c0.1-0.1,0.2-0.2,0.2-0.3s0.1-0.2,0.1-0.4
				c0-0.3-0.1-0.5-0.4-0.7s-0.8-0.4-1.4-0.6c-0.3-0.1-0.6-0.2-0.9-0.3S16,8.9,15.8,8.7S15.4,8.3,15.2,8C15.1,7.7,15,7.4,15,7
				s0.1-0.7,0.2-1.1s0.4-0.6,0.7-0.8c0.3-0.2,0.6-0.4,1-0.5s0.9-0.2,1.4-0.2c0.6,0,1.1,0.1,1.6,0.2C20.3,4.8,20.7,5,21,5.1l-0.6,1.5
				c-0.2-0.1-0.5-0.2-0.8-0.3c-0.3-0.1-0.7-0.1-1.1-0.1c-0.5,0-0.8,0.1-1,0.2S17.2,6.7,17.2,7c0,0.2,0,0.3,0.1,0.4s0.2,0.2,0.3,0.3
				c0.1,0.1,0.3,0.2,0.5,0.2C18.3,8,18.5,8,18.7,8.1c0.5,0.2,0.9,0.3,1.2,0.5c0.3,0.2,0.6,0.3,0.9,0.6c0.2,0.2,0.4,0.5,0.5,0.8
				s0.2,0.6,0.2,1c0,0.8-0.3,1.4-0.9,1.8c-0.6,0.4-1.5,0.7-2.6,0.7c-0.4,0-0.8,0-1.1-0.1c-0.3,0-0.6-0.1-0.8-0.2S15.5,13,15.3,13
				c-0.2-0.1-0.3-0.1-0.4-0.2l0.6-1.5c0.3,0.1,0.6,0.3,1,0.4C16.8,11.7,17.3,11.8,17.9,11.8z"/>
			<path class="st9" d="M28.4,4.7h2v8.5h-2V9.6H25v3.6h-2V4.7h2V8h3.4V4.7z"/>
			<path class="st9" d="M38.5,13.2c-0.1-0.3-0.2-0.6-0.3-0.9c-0.1-0.3-0.2-0.6-0.3-0.9h-3.5c-0.1,0.3-0.2,0.6-0.3,0.9
				c-0.1,0.3-0.2,0.6-0.3,0.9h-2.1c0.3-0.9,0.7-1.8,1-2.5c0.3-0.8,0.6-1.5,0.9-2.2c0.3-0.7,0.6-1.3,0.9-2c0.3-0.6,0.6-1.2,0.9-1.8
				H37c0.3,0.6,0.6,1.2,0.9,1.8c0.3,0.6,0.6,1.3,0.9,2c0.3,0.7,0.6,1.4,0.9,2.2c0.3,0.8,0.6,1.6,1,2.5H38.5z M36.1,6.6
				c0,0.1-0.1,0.3-0.2,0.5c-0.1,0.2-0.2,0.5-0.3,0.7c-0.1,0.3-0.2,0.6-0.4,0.9c-0.1,0.3-0.3,0.7-0.4,1.1h2.6
				c-0.1-0.4-0.3-0.7-0.4-1.1c-0.1-0.3-0.2-0.6-0.4-0.9c-0.1-0.3-0.2-0.5-0.3-0.7C36.2,6.9,36.1,6.8,36.1,6.6z"/>
			<path class="st9" d="M44.4,4.6c1.3,0,2.4,0.2,3.1,0.7c0.7,0.5,1.1,1.2,1.1,2.1c0,0.6-0.1,1.1-0.4,1.5c-0.3,0.4-0.7,0.7-1.2,0.9
				c0.2,0.2,0.4,0.5,0.6,0.7c0.2,0.3,0.4,0.6,0.6,0.9c0.2,0.3,0.4,0.6,0.6,0.9s0.3,0.6,0.5,1H47c-0.2-0.3-0.3-0.6-0.5-0.9
				c-0.2-0.3-0.3-0.6-0.5-0.8s-0.3-0.5-0.5-0.8c-0.2-0.2-0.3-0.5-0.5-0.7h-1v3.1h-2V4.8c0.4-0.1,0.9-0.1,1.4-0.2
				C43.6,4.6,44,4.6,44.4,4.6z M44.5,6.2c-0.1,0-0.3,0-0.4,0c-0.1,0-0.2,0-0.3,0v2.3h0.6c0.8,0,1.3-0.1,1.6-0.3s0.5-0.5,0.5-0.9
				S46.3,6.6,46,6.4S45.2,6.2,44.5,6.2z"/>
		</g>
	</g>
</g>
</svg>
