<?xml version="1.0" encoding="utf-8"?>
<!-- Generator: Adobe Illustrator 16.0.0, SVG Export Plug-In . SVG Version: 6.00 Build 0)  -->
<!DOCTYPE svg PUBLIC "-//W3C//DTD SVG 1.1//EN" "http://www.w3.org/Graphics/SVG/1.1/DTD/svg11.dtd">
<svg version="1.1" id="图层_1" xmlns="http://www.w3.org/2000/svg" xmlns:xlink="http://www.w3.org/1999/xlink" x="0px" y="0px"
	 width="64px" height="64px" viewBox="0 0 64 64" enable-background="new 0 0 64 64" xml:space="preserve">
<polygon opacity="0.1" enable-background="new    " points="9.155,64 9.155,2 56.846,2 56.846,46.498 39.343,64 "/>
<polygon opacity="0.1" enable-background="new    " points="10.155,63 10.155,3 55.846,3 55.846,46.084 38.93,63 "/>
<polygon opacity="0.2" enable-background="new    " points="9.155,62 9.155,2 54.846,2 54.846,45.084 37.93,62 "/>
<polygon fill="#01579B" points="10.148,61 10.148,3 53.852,3 53.852,44.67 37.518,61 "/>
<g>
	<g>
		<g>
			<g>
				
					<linearGradient id="SVGID_1_" gradientUnits="userSpaceOnUse" x1="115.1973" y1="-579.3003" x2="115.1973" y2="-522.3008" gradientTransform="matrix(1 0 0 -1 -83.2002 -518.8008)">
					<stop  offset="0" style="stop-color:#2196F3"/>
					<stop  offset="0.5828" style="stop-color:#3DBAE8"/>
					<stop  offset="1" style="stop-color:#4DD0E1"/>
				</linearGradient>
				<polygon fill="url(#SVGID_1_)" points="10.644,60.5 10.644,3.5 53.35,3.5 53.35,44.469 37.318,60.5 				"/>
			</g>
			<polygon fill="#01579B" fill-opacity="0.39" points="53.35,44.469 53.35,43.778 36.438,43.778 36.438,60.5 37.318,60.5 			"/>
			<path fill="#FFFFFF" fill-opacity="0.3922" d="M37.295,44.469l16.059,0.022L37.318,60.5L37.295,44.469z"/>
		</g>
		<g>
			<circle opacity="0.8" fill="#FFFFFF" enable-background="new    " cx="39.574" cy="26.42" r="3.018"/>
			<path opacity="0.8" fill="#FFFFFF" enable-background="new    " d="M17.153,20.127V39.6h29.691V20.127H17.153z M44.703,22.263
				v15.2l0,0l-6.889-4.892l-4.92,3.014l-6.312-7.623l-7.292,9.5v-15.2H44.703z"/>
		</g>
	</g>
	<g>
		<rect x="10.636" y="3.5" opacity="0.8" fill="#FFFFFF" enable-background="new    " width="42.727" height="10.925"/>
		<g enable-background="new    ">
			<path fill="#0288D1" d="M21.42,13.267c-0.49,0-0.979-0.015-1.47-0.044c-0.489-0.026-0.994-0.093-1.521-0.2V4.766
				c0.416-0.071,0.868-0.13,1.358-0.167s0.95-0.052,1.373-0.052c0.571,0,1.091,0.037,1.573,0.115
				c0.476,0.078,0.891,0.211,1.232,0.397c0.341,0.193,0.616,0.438,0.809,0.746c0.193,0.308,0.29,0.687,0.29,1.135
				c0,0.679-0.342,1.217-1.032,1.611c0.564,0.204,0.958,0.482,1.165,0.835c0.201,0.353,0.305,0.75,0.305,1.191
				c0,0.895-0.342,1.566-1.024,2.015C23.795,13.044,22.771,13.267,21.42,13.267z M20.396,7.983h0.987
				c0.616,0,1.062-0.074,1.328-0.223c0.268-0.156,0.401-0.397,0.401-0.735c0-0.341-0.142-0.586-0.416-0.724
				s-0.675-0.208-1.217-0.208c-0.171,0-0.356,0.004-0.55,0.004c-0.2,0.007-0.378,0.015-0.534,0.03V7.983z M20.396,9.445v2.205
				c0.148,0.015,0.305,0.026,0.482,0.033c0.171,0.011,0.356,0.011,0.564,0.011c0.608,0,1.091-0.082,1.462-0.245
				c0.371-0.163,0.557-0.467,0.557-0.905c0-0.394-0.156-0.675-0.468-0.846c-0.304-0.163-0.749-0.252-1.328-0.252H20.396z"/>
			<path fill="#0288D1" d="M29.502,4.643c0.156,0.271,0.334,0.605,0.535,1.002c0.207,0.397,0.415,0.828,0.638,1.292
				c0.223,0.46,0.438,0.935,0.653,1.417s0.423,0.935,0.608,1.366c0.193-0.431,0.394-0.883,0.608-1.366
				c0.223-0.482,0.439-0.958,0.662-1.417c0.215-0.464,0.43-0.895,0.631-1.292c0.207-0.397,0.385-0.731,0.541-1.002h1.834
				c0.088,0.564,0.17,1.199,0.244,1.9c0.074,0.698,0.133,1.429,0.193,2.186c0.051,0.757,0.104,1.518,0.156,2.279
				c0.043,0.761,0.088,1.48,0.117,2.148h-1.967c-0.021-0.824-0.059-1.726-0.096-2.702c-0.045-0.972-0.111-1.959-0.201-2.946
				c-0.154,0.341-0.326,0.724-0.52,1.143c-0.186,0.416-0.377,0.831-0.563,1.25s-0.365,0.82-0.535,1.199
				c-0.178,0.378-0.318,0.705-0.445,0.976h-1.41c-0.119-0.271-0.268-0.598-0.438-0.976s-0.356-0.779-0.542-1.199
				s-0.371-0.835-0.563-1.25c-0.186-0.419-0.364-0.802-0.52-1.143c-0.082,0.987-0.148,1.974-0.193,2.946
				c-0.044,0.976-0.074,1.878-0.104,2.702h-1.967c0.037-0.668,0.081-1.388,0.126-2.148s0.097-1.521,0.156-2.279
				c0.052-0.757,0.118-1.488,0.192-2.186c0.074-0.701,0.156-1.336,0.237-1.9H29.502z"/>
			<path fill="#0288D1" d="M41.414,4.546c1.336,0,2.361,0.223,3.08,0.668c0.713,0.445,1.07,1.18,1.07,2.193
				c0,1.024-0.357,1.763-1.084,2.215c-0.729,0.457-1.76,0.683-3.104,0.683H40.74v2.85h-2.012v-8.39
				c0.438-0.082,0.898-0.138,1.395-0.171C40.613,4.562,41.043,4.546,41.414,4.546z M41.541,6.179c-0.141,0-0.289,0.004-0.43,0.015
				c-0.143,0.007-0.268,0.015-0.371,0.022v2.457h0.637c0.699,0,1.225-0.089,1.574-0.271c0.355-0.182,0.535-0.516,0.535-1.006
				c0-0.237-0.045-0.434-0.143-0.59c-0.088-0.156-0.215-0.282-0.385-0.375c-0.164-0.097-0.371-0.16-0.617-0.197
				C42.105,6.198,41.838,6.179,41.541,6.179z"/>
		</g>
	</g>
</g>
</svg>
