<?xml version="1.0" encoding="utf-8"?>
<!-- Generator: Adobe Illustrator 21.0.0, SVG Export Plug-In . SVG Version: 6.00 Build 0)  -->
<svg version="1.1" id="图层_1" xmlns="http://www.w3.org/2000/svg" xmlns:xlink="http://www.w3.org/1999/xlink" x="0px" y="0px"
	 viewBox="0 0 64 64" style="enable-background:new 0 0 64 64;" xml:space="preserve">
<style type="text/css">
	.st0{opacity:0.2;enable-background:new    ;}
	.st1{opacity:0.08;enable-background:new    ;}
	.st2{opacity:0.1;enable-background:new    ;}
	.st3{fill:#0D47A1;}
	.st4{fill:url(#SVGID_1_);}
	.st5{fill:#64B5F6;}
	.st6{fill:#FFFFFF;fill-opacity:0.8;}
	.st7{opacity:0.8;fill:#FFFFFF;enable-background:new    ;}
	.st8{enable-background:new    ;}
	.st9{fill:#1976D2;}
</style>
<rect x="9.1" y="2" class="st0" width="45.7" height="60"/>
<rect x="9.1" y="2" class="st1" width="47.7" height="62"/>
<rect x="10.1" y="3" class="st2" width="45.7" height="60"/>
<rect x="10.1" y="3" class="st3" width="43.7" height="58"/>
<g>
	
		<linearGradient id="SVGID_1_" gradientUnits="userSpaceOnUse" x1="115.1502" y1="1611.3008" x2="115.1502" y2="1554.3008" gradientTransform="matrix(1 0 0 1 -83.2002 -1550.8008)">
		<stop  offset="0" style="stop-color:#1976D2"/>
		<stop  offset="0.0226" style="stop-color:#1C79D3"/>
		<stop  offset="0.2859" style="stop-color:#3B93E2"/>
		<stop  offset="0.5416" style="stop-color:#52A6ED"/>
		<stop  offset="0.7843" style="stop-color:#5FB1F4"/>
		<stop  offset="1" style="stop-color:#64B5F6"/>
	</linearGradient>
	<rect x="10.6" y="3.5" class="st4" width="42.7" height="57"/>
	<g>
		<path class="st5" d="M45.3,33.9c0,7.3-6,13.3-13.3,13.3s-13.3-6-13.3-13.3s6-13.3,13.3-13.3C39.3,20.6,45.3,26.6,45.3,33.9z"/>
		<path class="st6" d="M23.3,23.9c0,0,0.3,0.1,0.4,0.4c0.1,0.2,0.4,0.2,0.4,0.2h0.4l0.6-0.2L25,24.6c0,0-3.3,1.5-2.6,2.4
			c0.7,0.9,0.4,1.1,0.4,1.4s0.2,0,0.2,0l0.2-0.5l0.3-0.4l0.3-0.4l0.1-0.2l0.4-0.7l0.5-0.3l0.4,0.3c0,0,0.2,0.1,0.1,0.2
			c0,0.1-0.1,0.4-0.1,0.4s0.1,0.2,0.2,0.2c0.2,0,0.4-0.2,0.4-0.2l0.2,0.3l0.1,0.6l0.4,0.4l0.2,0.4l-0.2,0.4l0.2,0.1l0.4,0.5l0.1,0.2
			h-0.7c0,0-0.1-0.2-0.2-0.2s-0.7,0-0.7,0l-0.3,0.1L25,30c0,0-0.2,0.4-0.4,0.4c-0.1,0-0.5-0.1-0.5-0.1s-0.3-0.1-0.4,0.2
			s0.2,0.4,0.2,0.4l-0.7,0.2L23,31.2c0,0-0.5,0.2-0.5,0.3c0,0.1,0,0.1,0,0.1L22.4,32v0.2l-0.3,0.3l-0.3,0.2L21.7,33v0.5
			c0,0,0,0.2,0,0.4s0,0.5,0,0.5s-0.1,0.1-0.2-0.2C21.2,34,21.2,34,21.2,34l-0.1-0.3c0,0,0.1,0,0-0.2c-0.2-0.1-0.4-0.2-0.4-0.2
			s-0.1-0.1-0.3-0.1c-0.2,0,0.2,0-0.2,0c-0.4,0-0.4,0-0.4,0l-0.3,0.3v0.2c0,0-0.1,1.7,0.4,1.9H20l0.3-0.4l0.2,0.1v0.2v0.3V36
			l0.2,0.2l0.1,0.4c0.2,0.3,0.1,0.4,0.2,0.5c0.2,0.1,0.3,0.3,0.3,0.3l0.2,0.1c0,0,0.2,0,0.3,0.1c0.1,0,0.1,0,0.1,0v0.2V38l0.2,0.2
			c0,0-0.1,0,0.2,0c0.3,0,0.3,0,0.3,0s0,0.1,0.2,0.2c0.2,0.1,0,0,0.2,0.1c0.2,0,0.5,0.1,0.5,0.1c0.3,0,0.3,0,0.3,0l0.2,0.3
			c0,0,0.1,0,0.2,0.1c0,0.1-0.2,0,0,0.1c0.3,0.2,0,0,0.3,0.2s-0.1,0.1,0.3,0.1s0.4,0,0.6,0s0.2,0.4,0.2,0.4c0.3,0.3,0.3,0.3,0.3,0.3
			v0.4c0,0-0.1,0.1,0.2,0.1c0.3,0,0.1,0,0.3,0c0.3,0,0-0.1,0.2,0c0.3,0.1,0.3,0.1,0.3,0.1s0.4,0.3,0.6,0.3s0.4,0,0.6,0
			c0.1,0,0.2,0.3,0.5,0.3s0.4,0,0.6,0.2c0.2,0.1,0.2,0.1,0.2,0.1v0.5l-0.2,0.3l-0.4,0.1V43l0.2,0.7V44c0,0,0.2,0.2-0.2,0.2
			s-0.4,0-0.4,0l-0.2,0.2c0,0,0,0-0.1,0.2C28,44.8,27.9,45,27.9,45v0.4v0.3l-0.1,0.2c0,0-0.1,0.1,0.2,0.3c0.4,0.2,0.7,0.2,0.8,0.4
			c0.1,0.2,0.3,0.3,0.3,0.3l-0.5-0.1l-0.3-0.1l-0.5-0.1l-1-0.5c0,0-1.5-1.3-2-2.3c0,0-0.4-0.6-1.1-0.8c0,0-1.7-1.5-1.8-1.9l-0.1-0.3
			v-0.1l-0.1-0.1v-0.1v-0.1v-0.5v-0.3v-0.2v-0.1l-0.1-0.1L21.5,39v-0.1l0.3-0.2l-0.1-0.2v-0.1l0.1-0.1l0.1-0.1l-0.1-0.1h-0.1
			l-0.1,0.2h-0.1c0,0-0.1,0-0.1-0.1s-0.1-0.1-0.1-0.1h-0.1c0,0-0.1,0-0.1-0.1L21,37.9l-0.1-0.1h-0.1l-0.1-0.2l-0.1-0.1l-0.1-0.2
			l-0.1-0.2h-0.1L20.1,37L20,36.5l-0.2-0.2c0,0-0.1-0.1-0.1-0.2L19.6,36h-0.1h-0.1l-0.2-0.1L19,35.4l-0.1-0.2l-0.1-0.3v-0.4v-0.3
			l-0.2-2C18.7,32.2,19.3,27.3,23.3,23.9z"/>
		<path class="st6" d="M38.3,22.2l0.4,0.3l0.2,0.1l0.1,0.2V23v0.2v0.3c0,0,0.2,0.3,0.2,0.4c0,0,0,0.2,0,0.3c0,0-0.3,0.2-0.3,0.1
			s-0.2-0.2-0.2-0.2L38.5,24h0.3v-0.2c0,0-0.2-0.1-0.3-0.1s-0.3-0.1-0.3-0.1L38,23.3c0,0-0.4-0.1-0.5-0.1l-0.2-0.1H37l-0.2,0.1
			l-0.2,0.3v0.3c0,0-0.1,0.2-0.1,0.3c0,0.1,0,0.3,0,0.3v0.1v0.2l-0.1,0.1L36,25c0,0-0.2,0.1-0.2,0.2c0,0,0,0.2,0.1,0.3
			s0,0.2,0.1,0.3s0.1,0.1,0.2,0.2c0.1,0,0,0,0.1,0s0.2,0,0.2,0s0.2,0,0.2-0.1s0,0,0-0.1c0.1,0,0.1-0.1,0.1,0
			c0.1,0.1,0.1,0.2,0.2,0.2c0,0,0.1,0.1,0.2,0.2c0.1,0,0.1,0.2,0.1,0.2l0.1,0.1c0,0,0,0,0.1,0s0.2,0,0.2,0v-0.1h0.1v-0.1
			c0,0,0-0.1-0.1-0.2L37.6,26v-0.2l0.1-0.1v-0.1v-0.1h-0.1l-0.1-0.1c0,0-0.1,0-0.1-0.1s0-0.1,0-0.1h-0.2l-0.1-0.1l0.2-0.1
			c0.1-0.1,0.1-0.2,0.1-0.2v-0.2c0,0-0.1,0-0.1-0.1s0-0.2,0-0.2v-0.1c0,0,0-0.1,0.1-0.1c0,0,0.1,0.1,0.2,0.1h0.1c0,0,0,0,0,0.1v0.1
			l0.1-0.1v0.1v0.2v0.2l0.1,0.2l0.1,0.1c0,0,0.1,0.1,0.2,0.2l0.2,0.1l0.1,0.1h0.1l0.1-0.1h0.2l0,0h0.2h0.1c0,0,0.1,0.1,0,0.1
			c0,0-0.1,0-0.2,0.1c-0.1,0-0.2,0-0.2,0l-0.1,0.1h0.1H39l0.1,0.1c0,0,0,0,0,0.1s0.1,0,0,0.1c-0.1,0-0.2,0-0.2,0s0-0.1-0.1-0.1
			L38.7,26v0.1l0.1,0.2c0,0,0,0,0,0.1l-0.2,0.2c0,0,0,0.1-0.1,0.1c0,0-0.1,0-0.2,0c-0.1,0-0.1,0-0.2,0c-0.1,0-0.1,0-0.3,0.1
			c-0.1,0-0.4,0-0.4,0c-0.1,0-0.1,0-0.1,0s0,0-0.1-0.1s-0.1-0.1-0.1-0.2v-0.1c0-0.1,0-0.1-0.1-0.1s-0.1,0-0.1,0s-0.2,0.1-0.1,0.2
			c0,0,0,0,0.1,0.1s0.2,0.3,0.2,0.3V27l-0.3,0.1l-0.2,0.1v0.1c0,0,0,0,0,0.1s-0.2,0.1-0.2,0.1s-0.1,0-0.1,0.1l-0.1,0.2
			c0,0-0.1,0-0.2,0c-0.1,0.1,0,0.1-0.2,0.1C35.6,28,35.6,28,35.6,28h-0.2h-0.1c0,0-0.2,0-0.2,0.1L35,28.3v0.1c0,0,0.1,0,0.2,0
			c0.1,0,0.1,0,0.2,0.1c0.1,0,0.1,0.1,0.1,0.1l0.2,0.2l0.1,0.3v0.2l-0.3,0.1c0,0-0.1,0-0.2,0c0,0,0,0-0.3,0s-0.3,0-0.3,0h-0.2h-0.2
			l-0.1,0.1h-0.1c0,0,0.1,0.2,0.1,0.3c0,0.1,0,0.1,0,0.1V30l-0.1,0.1L34,30.2v0.1v0.1h0.2l-0.1,0.2h0.2c0,0,0,0,0.1,0
			s0.2,0.1,0.2,0.1l0.1,0.1v0.1v-0.1c0,0,0.2,0,0.3,0h0.2h0.2c0,0,0,0,0.1,0l0,0c0,0,0.2-0.1,0.3-0.1l0.1-0.1c0,0,0.1,0,0.1-0.1
			s0-0.1,0-0.1v-0.1l0.1-0.1c0,0,0,0,0.1-0.1s0.1-0.1,0.1-0.1s0,0,0.1-0.1c0.1,0,0.2-0.1,0.2-0.1l0,0c0.1,0,0.1-0.1,0.1-0.1v-0.3
			l0.1-0.1H37h0.1c0,0,0.1,0,0.2,0l0.1-0.1l0.2-0.1c0,0,0,0,0.1,0s0.2,0,0.3,0h0.2c0,0,0.1,0,0.1,0.1l0.1,0.2l0.1,0.1h0.1
			c0.1,0.1,0.1,0.1,0.3,0.1c0.1,0,0.3,0.1,0.3,0.1s0,0.1,0.1,0.1l0.1,0.1l0.1,0.1l0.1,0.1l0.1,0.1v-0.1V30v-0.1c0,0-0.1-0.1,0-0.1
			s0.2,0,0.2,0l-0.1-0.1h-0.1l-0.1-0.1l-0.1-0.1h-0.1h-0.1l-0.3,0c0,0-0.1,0-0.1-0.1l0,0h-0.2l-0.1-0.1v-0.2h-0.1V29v-0.1h0.3
			l0.1,0.1l0.1,0.1V29l0.1,0.1l0.1,0.1c0,0,0,0,0.1,0s0.1,0,0.1,0l0.1,0.1c0.1,0,0.1,0,0.2,0.1l0,0c0,0,0,0,0.1,0.1
			c0.1,0,0.1,0.1,0.1,0.2c0,0,0,0.2,0.1,0.2c0,0,0.1,0,0.1,0.1c0.1,0.1,0.1,0.2,0.2,0.2c0.1,0,0.1,0,0.1,0.1s0,0.2,0,0.2h0.1
			l0.1-0.1c0,0,0.1-0.1,0-0.2c0,0-0.1,0-0.1-0.1s0-0.3,0-0.3l0.1-0.2l0.1-0.1h0.1l0.1-0.1l0.1,0.1v0.2c0,0,0,0.1,0.1,0.2
			c0,0.1,0.1,0.2,0.1,0.2l0.2,0.2l0.3,0.1h0.1l0.4-0.1h0.1l0.3,0.4v0.2c0,0.1,0,0.3,0,0.3s-0.1,0.1-0.2,0.1c-0.1,0-0.2,0.1-0.2,0.1
			l-0.4,0.1h-0.2h-0.4c0,0-0.4,0-0.5,0h-0.2c0,0-0.1,0-0.2,0.2c0,0.1-0.1,0.2-0.1,0.2s0,0.1-0.1,0.1C40,32,40,32,40,32
			c-0.1,0-0.4-0.1-0.4-0.1l-0.3-0.2l-0.2-0.1H39h-0.4h-0.3v-0.4v0.1L38.2,31l-0.1-0.1l-0.3-0.1h-0.2l-0.3,0.1L37,31h0l-0.7,0.1
			L36,31.2l-0.1,0.1h-0.2c0,0-0.1,0-0.2,0c-0.1,0-0.2,0-0.3,0s-0.2,0-0.2,0s-0.1,0-0.1,0.1s-0.2,0.2-0.2,0.2l-0.1,0.1l-0.1,0.2
			l-0.2,0.3l-0.1,0.1v0.2v0.1l-0.1,0.1L34,32.8c0,0-0.1,0-0.1,0.1c-0.1,0-0.1,0.1-0.1,0.1l-0.2,0.1l-0.1,0.1c0,0.1-0.1,0.1-0.1,0.2
			l-0.1,0.1l-0.1,0.2l-0.1,0.2L33,34.3v0.2c0,0,0,0.1,0.1,0.1l0.1,0.2V35c0,0,0,0.1-0.1,0.2v0.3v0.1c0,0,0,0-0.1,0.1
			s-0.1,0.2-0.1,0.2l0.1,0.2l0.1,0.1v0.1l0.1,0.1c0,0,0,0,0.1,0.1c0.1,0,0.1,0,0.2,0.1c0.1,0,0.1,0,0.1,0s0.1,0.1,0.1,0.2l0.1,0.1
			l0.1,0.1c0,0,0,0.1,0.1,0.1c0.1,0.1,0.2,0.1,0.2,0.1s0.2,0.1,0.3,0.1s0.1,0,0.2,0c0,0-0.1-0.1,0.2,0c0.3,0.2,0.5,0.2,0.5,0.2
			l0.2,0.1c0,0,0.3,0,0.4,0h0.1h0.2c0.1,0,0.4,0,0.4,0l0.3-0.1c0,0,0.1-0.1,0.2-0.1l0.2-0.1h0.3c0,0,0-0.1,0.1,0s0.1,0.1,0.1,0.1
			s0,0.1,0.1,0.1s0.2,0.1,0.2,0.1s0.2,0,0.3,0s0.2,0,0.2,0l0.1,0.1v0.2v0.2v0.1c0,0.1,0.1,0.2,0.1,0.2l-0.1,0.1l-0.1,0.2L39,39
			l0.2,0.2l0.1,0.2v0.1c0,0,0,0.1,0,0.2v0.2c0,0,0,0.1,0,0.2v0.3v0.2l-0.1,0.3L39.1,41l-0.6,0l-0.1,0.2v0.2l-0.1,0.1
			c0,0,0,0.1,0,0.2c0,0.1,0.1,0.3,0.1,0.3v0.2l-0.1,0.3c0,0.1-0.1,0.1-0.1,0.2v0.2v0.2l0.1,0.2l-0.1,0.2c0,0,0,0.2,0,0.3
			s0.2,0.2,0.2,0.2s0.2,0,0.3-0.1c0.1,0,0.3-0.1,0.3-0.1s0.1,0,0.2-0.1c0.1-0.1,0.3-0.2,0.3-0.2s0.1-0.1,0.2-0.1l0.3-0.3
			c0,0,0.1-0.1,0.3-0.2c0.1-0.1,0,0,0.1-0.1s0.4-0.3,0.4-0.3l0.3-0.3l0.3-0.4c0-0.1,0.3-0.4,0.4-0.5c0,0,0.4-0.3,0.5-0.3
			c0.1-0.1,0.2-0.5,0.2-0.6l0.3-0.6l0.2-0.6l0.4-0.9l0.4-0.6c0,0,0.1-0.3,0.2-0.4c0-0.1,0.4-0.7,0.4-0.7l0.1-0.5v-0.5h-0.2l-0.2,0.2
			L44,35.7h-0.2l0.2-0.3l-0.1-0.2L43.7,35l-0.3-0.4v-0.4l-0.3-0.4L43,33.1c0,0-0.3-0.3-0.3-0.4c0-0.1,0.1-0.3,0.1-0.3l0.2,0.1
			c0,0,0.1,0.3,0.2,0.4c0.1,0,0.2,0.2,0.2,0.2s0,0.2,0.1,0.2l0.2,0.3l0.1,0.3c0,0,0.1,0.2,0.1,0.3s0.1,0.5,0.1,0.6l0.1,0.5
			c0,0,0.1,0,0.2-0.1c0,0,0-0.1,0.1-0.1l0.3-0.2l0.1-0.3c0,0,0.1-0.1,0.1-0.2c0-0.1,0.2-0.3,0.2-0.3s0-0.2,0-0.3l0.1-0.3v-0.2v-0.4
			l0.2-0.2l0.1-0.2C45.3,32.2,44.7,25.6,38.3,22.2z"/>
	</g>
	<g>
		<rect x="10.6" y="3.5" class="st7" width="42.7" height="10.9"/>
		<g class="st8">
			<path class="st9" d="M28.1,8.9c0,0.7-0.1,1.4-0.3,1.9c-0.2,0.6-0.5,1-0.9,1.4S26,12.9,25.5,13c-0.5,0.2-1.1,0.3-1.8,0.3
				c-0.6,0-1.2-0.1-1.7-0.3s-1-0.5-1.4-0.8c-0.4-0.4-0.7-0.8-1-1.4c-0.2-0.6-0.4-1.2-0.4-1.9s0.1-1.4,0.4-1.9c0.2-0.6,0.6-1,1-1.4
				s0.9-0.7,1.4-0.8c0.5-0.2,1.1-0.3,1.7-0.3s1.2,0.1,1.7,0.3c0.5,0.2,1,0.5,1.4,0.8c0.4,0.4,0.7,0.8,1,1.4
				C28,7.5,28.1,8.2,28.1,8.9z M21.2,8.9c0,0.4,0.1,0.8,0.2,1.1s0.3,0.6,0.5,0.9c0.2,0.2,0.4,0.4,0.7,0.6c0.3,0.1,0.6,0.2,1,0.2
				s0.7-0.1,1-0.2c0.3-0.1,0.5-0.3,0.8-0.6c0.2-0.2,0.4-0.5,0.5-0.9C26,9.7,26,9.3,26,8.9c0-0.4-0.1-0.8-0.2-1.1
				c-0.1-0.3-0.3-0.6-0.5-0.9s-0.5-0.4-0.8-0.6c-0.3-0.1-0.6-0.2-1-0.2s-0.7,0.1-1,0.2S22,6.6,21.8,6.9c-0.2,0.2-0.4,0.5-0.5,0.9
				C21.3,8.1,21.2,8.5,21.2,8.9z"/>
			<path class="st9" d="M36.1,4.6v1.6h-2.7v6.9h-2V6.3h-2.7V4.6H36.1z"/>
			<path class="st9" d="M42.8,4.6h2v8.5h-2V9.5h-3.4v3.6h-2V4.6h2v3.3h3.4V4.6z"/>
		</g>
	</g>
</g>
</svg>
