<?xml version="1.0" encoding="utf-8"?>
<!-- Generator: Adobe Illustrator 21.0.0, SVG Export Plug-In . SVG Version: 6.00 Build 0)  -->
<svg version="1.1" id="图层_1" xmlns="http://www.w3.org/2000/svg" xmlns:xlink="http://www.w3.org/1999/xlink" x="0px" y="0px"
	 viewBox="0 0 64 64" style="enable-background:new 0 0 64 64;" xml:space="preserve">
<style type="text/css">
	.st0{opacity:0.08;enable-background:new    ;}
	.st1{opacity:0.1;enable-background:new    ;}
	.st2{opacity:0.2;enable-background:new    ;}
	.st3{fill:url(#SVGID_1_);}
	.st4{fill:#B71C1C;fill-opacity:0.3922;}
	.st5{fill:#FFFFFF;fill-opacity:0.3922;}
	.st6{opacity:0.8;}
	.st7{fill:#FFFFFF;}
	.st8{fill:#B71C1C;}
</style>
<g id="surface1_1_">
	<polygon class="st0" points="9.3,64 9.3,2 56.8,2 56.8,46.5 39.3,64 	"/>
	<polygon class="st1" points="10.3,63 10.3,3 55.8,3 55.8,46.1 38.9,63 	"/>
	<polygon class="st2" points="9.3,62 9.3,2 54.8,2 54.8,45.1 37.9,62 	"/>
	<g>
		
			<linearGradient id="SVGID_1_" gradientUnits="userSpaceOnUse" x1="198.4004" y1="2340.9609" x2="198.4004" y2="2282.9609" gradientTransform="matrix(1 0 0 1 -166.4004 -2279.9609)">
			<stop  offset="0" style="stop-color:#512DA8"/>
			<stop  offset="8.000000e-03" style="stop-color:#D32F2F"/>
			<stop  offset="0.3041" style="stop-color:#E33932"/>
			<stop  offset="0.6579" style="stop-color:#F04035"/>
			<stop  offset="1" style="stop-color:#F44336"/>
		</linearGradient>
		<path class="st3" d="M37.4,61l16.3-16.3V3H10.3v58H37.4z"/>
		<polygon class="st4" points="36.5,43.8 36.5,61 37.4,61 53.8,44.7 53.8,43.8 		"/>
		<path class="st5" d="M37.4,44.7h16.3L37.4,61V44.7z"/>
		<g class="st6">
			<path class="st7" d="M24,27.2c0.9,0,2,0.6,2.7,1.1c2.2,1.5,4,4,3.7,6.8c0.3-0.5,0.4-1.3,0.4-1.9c0-2-1.1-4-2.4-5.4
				c-0.4-0.5-0.9-1-1.5-1.3l6.7-7.9l1.6-1.9c0.1-0.1,0.5-0.5,0.4-0.7c-0.1-0.2-0.5-0.3-0.6-0.4c-0.2-0.1-0.6-0.3-0.8-0.2
				s-0.4,0.4-0.6,0.6l-1.2,1.4l-5.8,6.8l-1.7,2C24.5,26.5,24.1,26.8,24,27.2z"/>
			<path class="st7" d="M20.2,29.5c2.3-2.4,4.3-5.2,6.5-7.7l2.8-3.3c0.6-0.7,1.4-1.5,1.9-2.3c-0.3-0.1-1.1-0.2-1.4,0
				s-0.6,0.6-0.9,0.9L27.5,19c-0.2,0.3-0.5,0.7-0.8,0.9c-0.5,0.2-1.3,0.1-1.8,0.2H23c-1.4,0.1-3,0.1-3.7,1.6
				c-0.6,1.2-0.5,2.9-0.5,4.2c-0.1,2.7-0.2,5.5,0,8.2c0.1,1.2,0,2.6,0.6,3.7c0.6,1,1.7,1.2,2.8,1.3c2,0.2,4.5,0.1,6.1-1.3
				c2-1.7,1.7-4.8-0.1-6.4C26.3,29.6,22.7,28.6,20.2,29.5z"/>
			<path class="st7" d="M27.1,39.4c0.4,0.2,1,0.1,1.4,0.1h2.6c3.3,0,6.5-0.2,9.7-0.4c1.5-0.1,3.3-0.1,3.9-1.8
				c0.4-1.1,0.3-2.5,0.4-3.6c0.2-2.7,0.3-5.4,0-8c-0.1-1.2,0-2.8-0.5-3.9c-0.8-1.8-3.3-1.6-5-1.7c-0.4,0-1.2-0.3-1.5-0.1
				c-0.3,0.1-0.5,0.9-0.6,1.1L36,24.3c-1.7,3.8-3.3,7.7-5.2,11.5C30.1,37.3,28.8,39.1,27.1,39.4z"/>
		</g>
		<g>
			<path class="st8" d="M53.3,3.5v41l-16,16H24.8h-14v-57H53.3 M53.8,3H10.3v58h14.5h12.7l16.3-16.3V3L53.8,3z"/>
		</g>
	</g>
</g>
</svg>
