<?xml version="1.0" encoding="utf-8"?>
<!-- Generator: Adobe Illustrator 21.0.0, SVG Export Plug-In . SVG Version: 6.00 Build 0)  -->
<svg version="1.1" id="图层_1" xmlns="http://www.w3.org/2000/svg" xmlns:xlink="http://www.w3.org/1999/xlink" x="0px" y="0px"
	 viewBox="0 0 64 64" style="enable-background:new 0 0 64 64;" xml:space="preserve">
<style type="text/css">
	.st0{opacity:0.08;enable-background:new    ;}
	.st1{opacity:0.1;enable-background:new    ;}
	.st2{opacity:0.2;enable-background:new    ;}
	.st3{fill:url(#SVGID_1_);}
	.st4{fill:#263238;fill-opacity:0.3922;}
	.st5{fill:#FFFFFF;fill-opacity:0.3922;}
	.st6{opacity:0.8;}
	.st7{fill:#FFFFFF;}
	.st8{fill:#CFD8DC;}
	.st9{fill:#263238;}
</style>
<g id="surface1_1_">
	<polygon class="st0" points="9.3,64 9.3,2 56.8,2 56.8,46.5 39.3,64 	"/>
	<polygon class="st1" points="10.3,63 10.3,3 55.8,3 55.8,46.1 38.9,63 	"/>
	<polygon class="st2" points="9.3,62 9.3,2 54.8,2 54.8,45.1 37.9,62 	"/>
	
		<linearGradient id="SVGID_1_" gradientUnits="userSpaceOnUse" x1="198.4004" y1="2340.9609" x2="198.4004" y2="2282.9609" gradientTransform="matrix(1 0 0 1 -166.4004 -2279.9609)">
		<stop  offset="0" style="stop-color:#455A64"/>
		<stop  offset="0.0238" style="stop-color:#465C66"/>
		<stop  offset="0.3557" style="stop-color:#556E7A"/>
		<stop  offset="0.6835" style="stop-color:#5D7987"/>
		<stop  offset="1" style="stop-color:#607D8B"/>
	</linearGradient>
	<path class="st3" d="M37.4,61l16.3-16.3V3H10.3v58H37.4z"/>
	<polygon class="st4" points="36.5,43.8 36.5,61 37.4,61 53.8,44.7 53.8,43.8 	"/>
	<path class="st5" d="M37.4,44.7h16.3L37.4,61V44.7z"/>
	<g class="st6">
		<path class="st7" d="M26.4,16.6c-4.2,0-9.4,3.9-9.4,10c0,5.9,2,9.1,3.5,12.7l4.5-1.9c-1-2.1-2.4-4.1-2.8-5.2
			c-1.3-2.9-1.8-4.2-1.7-6.4c0.1-2.1,0.8-3.4,2.1-4.7c1.3-1.3,3.1-1.9,5.3-1.6c3.1,0.4,4.7,2.2,5.5,3.7c0.4-0.1,0.9-0.1,1.4-0.1
			c0.4,0,0.8,0,1.2,0.1C35.1,20.2,31,16.6,26.4,16.6z M28.3,22.3c-1.9-0.1-4.7,0.8-4.6,3.7c0,2.7,1.7,4.8,3.8,5.6
			c0-0.7,0-1.5,0.1-2.2c-1.1-0.6-1.8-1.7-1.9-3.2c-0.1-1.7,1.5-3.3,4.2-2.5c0.4,0.1,0.4-0.6,0-1C29.4,22.6,28.9,22.4,28.3,22.3z
			 M34.8,24.5c-0.3,0-0.6,0-0.9,0c0.1,0.3,0.1,0.6,0.2,0.8c0.2,0,0.4,0,0.6,0c0.6,0,1.1,0.1,1.6,0.3c0-0.3,0-0.6,0-0.9
			C35.7,24.6,35.2,24.5,34.8,24.5z M33.9,26.6c-0.3,1.3-1.2,2.8-3,3.3c0,0.3-0.1,0.5-0.1,0.7c0,0.4,0.1,0.8,0.3,1.4
			c3.1-0.6,4.5-2.8,4.9-5c-0.4-0.2-0.9-0.3-1.5-0.3C34.3,26.6,34,26.6,33.9,26.6z M28.7,29.9c-0.1,0.6-0.1,1.2-0.1,1.7
			c0,0.1,0,0.2,0,0.4c0.2,0,0.4,0.1,0.7,0.1c0.2,0,0.4,0,0.6,0c-0.2-0.5-0.3-1-0.3-1.4c0-0.2,0-0.4,0-0.6C29.2,30,28.9,30,28.7,29.9
			z"/>
		<path class="st8" d="M43.6,16.6c1.5,3.6,3.5,6.8,3.5,12.7c0,6.1-5.2,10-9.4,10c-5,0-9.5-4.2-9.7-7.7c-0.2-3.2,0.9-7.8,6.8-7.7
			c2.8,0,5.7,2.4,5.7,6c0,3.9-4.9,4.3-6.1,3.3c-0.5-0.4-0.5-1.1,0-1c2.6,0.8,4.3-0.8,4.1-2.5c-0.2-2.3-1.5-3.6-3.9-3.7
			c-3.5-0.2-4.5,3.2-4.4,4.6c0.1,1.7,1.6,5.1,6.1,5.7c2.1,0.3,3.9-0.3,5.2-1.6s2-2.6,2.1-4.7c0.1-2.2-0.4-3.5-1.7-6.4
			c-0.5-1-1.8-3.1-2.8-5.2L43.6,16.6"/>
	</g>
	<g>
		<path class="st9" d="M53.3,3.5v41l-16,16H24.8h-14v-57H53.3 M53.8,3H10.3v58h14.5h12.7l16.3-16.3V3L53.8,3z"/>
	</g>
</g>
</svg>
