<?xml version="1.0" encoding="utf-8"?>
<!-- Generator: Adobe Illustrator 16.0.0, SVG Export Plug-In . SVG Version: 6.00 Build 0)  -->
<!DOCTYPE svg PUBLIC "-//W3C//DTD SVG 1.1//EN" "http://www.w3.org/Graphics/SVG/1.1/DTD/svg11.dtd">
<svg version="1.1" id="图层_1" xmlns="http://www.w3.org/2000/svg" xmlns:xlink="http://www.w3.org/1999/xlink" x="0px" y="0px"
	 width="64px" height="64px" viewBox="0 0 64 64" enable-background="new 0 0 64 64" xml:space="preserve">
<polygon opacity="0.1" enable-background="new    " points="9.155,64 9.155,2 56.846,2 56.846,46.498 39.343,64 "/>
<polygon opacity="0.1" enable-background="new    " points="10.155,63 10.155,3 55.846,3 55.846,46.084 38.93,63 "/>
<polygon opacity="0.2" enable-background="new    " points="9.155,62 9.155,2 54.846,2 54.846,45.084 37.93,62 "/>
<polygon fill="#01579B" points="10.148,61 10.148,3 53.852,3 53.852,44.67 37.518,61 "/>
<g>
	<g>
		<g>
			<g>
				
					<linearGradient id="SVGID_1_" gradientUnits="userSpaceOnUse" x1="115.1973" y1="-579.3003" x2="115.1973" y2="-522.3008" gradientTransform="matrix(1 0 0 -1 -83.2002 -518.8008)">
					<stop  offset="0" style="stop-color:#2196F3"/>
					<stop  offset="0.5828" style="stop-color:#3DBAE8"/>
					<stop  offset="1" style="stop-color:#4DD0E1"/>
				</linearGradient>
				<polygon fill="url(#SVGID_1_)" points="10.644,60.5 10.644,3.5 53.35,3.5 53.35,44.469 37.318,60.5 				"/>
			</g>
			<polygon fill="#01579B" fill-opacity="0.39" points="53.35,44.469 53.35,43.778 36.438,43.778 36.438,60.5 37.318,60.5 			"/>
			<path fill="#FFFFFF" fill-opacity="0.3922" d="M37.295,44.469l16.059,0.022L37.318,60.5L37.295,44.469z"/>
		</g>
		<g>
			<circle opacity="0.8" fill="#FFFFFF" enable-background="new    " cx="39.574" cy="26.42" r="3.018"/>
			<path opacity="0.8" fill="#FFFFFF" enable-background="new    " d="M17.153,20.127V39.6h29.691V20.127H17.153z M44.703,22.263
				v15.2l0,0l-6.889-4.892l-4.92,3.014l-6.312-7.623l-7.292,9.5v-15.2H44.703z"/>
		</g>
	</g>
	<g>
		<rect x="10.636" y="3.5" opacity="0.8" fill="#FFFFFF" enable-background="new    " width="42.727" height="10.925"/>
		<g enable-background="new    ">
			<path fill="#0288D1" d="M26.163,10.295c0,0.419-0.044,0.813-0.148,1.18c-0.096,0.368-0.267,0.69-0.512,0.965
				c-0.245,0.275-0.579,0.494-0.994,0.649c-0.424,0.164-0.95,0.241-1.589,0.241c-0.586,0-1.091-0.07-1.514-0.204
				c-0.423-0.133-0.771-0.289-1.046-0.471l0.675-1.488c0.245,0.141,0.512,0.263,0.802,0.371c0.282,0.104,0.594,0.156,0.928,0.156
				c0.489,0,0.846-0.111,1.061-0.341c0.216-0.23,0.327-0.616,0.327-1.158V4.643h2.011V10.295z"/>
			<path fill="#0288D1" d="M30.794,4.546c1.336,0,2.36,0.223,3.081,0.668c0.711,0.445,1.068,1.18,1.068,2.193
				c0,1.024-0.357,1.763-1.084,2.215c-0.721,0.457-1.759,0.683-3.102,0.683h-0.631v2.85h-2.019v-8.39
				c0.438-0.082,0.905-0.138,1.395-0.171C29.993,4.562,30.423,4.546,30.794,4.546z M30.928,6.179c-0.148,0-0.297,0.004-0.438,0.015
				c-0.141,0.007-0.26,0.015-0.363,0.022v2.457h0.631c0.697,0,1.225-0.089,1.581-0.271c0.349-0.182,0.527-0.516,0.527-1.006
				c0-0.237-0.045-0.434-0.135-0.59c-0.088-0.156-0.223-0.282-0.392-0.375c-0.164-0.097-0.371-0.16-0.609-0.197
				C31.485,6.198,31.217,6.179,30.928,6.179z"/>
			<path fill="#0288D1" d="M40.807,6.12c-0.943,0-1.619,0.245-2.041,0.742c-0.416,0.497-0.623,1.172-0.623,2.033
				c0,0.416,0.051,0.794,0.154,1.136c0.105,0.341,0.26,0.631,0.461,0.876c0.207,0.249,0.467,0.438,0.779,0.571
				c0.313,0.137,0.676,0.204,1.084,0.204c0.23,0,0.416-0.004,0.578-0.011c0.156-0.007,0.297-0.022,0.424-0.052V8.658h2.012v4.216
				c-0.238,0.089-0.625,0.186-1.158,0.289c-0.543,0.104-1.195,0.156-1.982,0.156c-0.676,0-1.283-0.101-1.832-0.297
				c-0.543-0.197-1.01-0.482-1.404-0.861c-0.385-0.375-0.682-0.838-0.896-1.388c-0.209-0.549-0.32-1.173-0.32-1.878
				c0-0.712,0.119-1.343,0.357-1.893c0.229-0.549,0.549-1.017,0.949-1.395c0.408-0.378,0.883-0.668,1.432-0.869
				c0.551-0.193,1.129-0.293,1.752-0.293c0.424,0,0.803,0.026,1.143,0.078c0.342,0.056,0.639,0.119,0.885,0.186
				c0.244,0.07,0.445,0.141,0.607,0.215c0.156,0.074,0.275,0.134,0.342,0.171l-0.586,1.536c-0.275-0.137-0.586-0.26-0.951-0.36
				C41.615,6.168,41.229,6.12,40.807,6.12z"/>
		</g>
	</g>
</g>
</svg>
