<?xml version="1.0" encoding="utf-8"?>
<!-- Generator: Adobe Illustrator 16.0.0, SVG Export Plug-In . SVG Version: 6.00 Build 0)  -->
<!DOCTYPE svg PUBLIC "-//W3C//DTD SVG 1.1//EN" "http://www.w3.org/Graphics/SVG/1.1/DTD/svg11.dtd">
<svg version="1.1" id="图层_1" xmlns="http://www.w3.org/2000/svg" xmlns:xlink="http://www.w3.org/1999/xlink" x="0px" y="0px"
	 width="64px" height="64px" viewBox="0 0 64 64" enable-background="new 0 0 64 64" xml:space="preserve">
<polygon opacity="0.1" enable-background="new    " points="9.155,64 9.155,2 56.846,2 56.846,46.498 39.343,64 "/>
<polygon opacity="0.1" enable-background="new    " points="10.155,63 10.155,3 55.846,3 55.846,46.084 38.93,63 "/>
<polygon opacity="0.2" enable-background="new    " points="9.155,62 9.155,2 54.846,2 54.846,45.084 37.93,62 "/>
<polygon fill="#01579B" points="10.148,61 10.148,3 53.852,3 53.852,44.67 37.518,61 "/>
<g>
	<g>
		<g>
			<g>
				
					<linearGradient id="SVGID_1_" gradientUnits="userSpaceOnUse" x1="115.1973" y1="-579.3003" x2="115.1973" y2="-522.3008" gradientTransform="matrix(1 0 0 -1 -83.2002 -518.8008)">
					<stop  offset="0" style="stop-color:#2196F3"/>
					<stop  offset="0.5828" style="stop-color:#3DBAE8"/>
					<stop  offset="1" style="stop-color:#4DD0E1"/>
				</linearGradient>
				<polygon fill="url(#SVGID_1_)" points="10.644,60.5 10.644,3.5 53.35,3.5 53.35,44.469 37.318,60.5 				"/>
			</g>
			<polygon fill="#01579B" fill-opacity="0.39" points="53.35,44.469 53.35,43.778 36.438,43.778 36.438,60.5 37.318,60.5 			"/>
			<path fill="#FFFFFF" fill-opacity="0.3922" d="M37.295,44.469l16.059,0.022L37.318,60.5L37.295,44.469z"/>
		</g>
		<g>
			<circle opacity="0.8" fill="#FFFFFF" enable-background="new    " cx="39.574" cy="26.42" r="3.018"/>
			<path opacity="0.8" fill="#FFFFFF" enable-background="new    " d="M17.153,20.127V39.6h29.691V20.127H17.153z M44.703,22.263
				v15.2l0,0l-6.889-4.892l-4.92,3.014l-6.312-7.623l-7.292,9.5v-15.2H44.703z"/>
		</g>
	</g>
	<g>
		<rect x="10.636" y="3.5" opacity="0.8" fill="#FFFFFF" enable-background="new    " width="42.727" height="10.925"/>
		<g enable-background="new    ">
			<path fill="#0288D1" d="M26.307,4.643v1.635h-2.705v6.88h-2.015v-6.88h-2.706V4.643H26.307z"/>
			<path fill="#0288D1" d="M27.603,4.643h2.015v8.515h-2.015V4.643z"/>
			<path fill="#0288D1" d="M31.692,13.158V4.643h5.998v1.61h-3.986v1.781h3.549v1.609h-3.549v3.514H31.692z"/>
			<path fill="#0288D1" d="M39.113,13.158V4.643h5.998v1.61h-3.979v1.781h3.541v1.609h-3.541v3.514H39.113z"/>
		</g>
	</g>
</g>
</svg>
