<?xml version="1.0" encoding="utf-8"?>
<!-- Generator: Adobe Illustrator 21.0.0, SVG Export Plug-In . SVG Version: 6.00 Build 0)  -->
<svg version="1.1" id="图层_1" xmlns="http://www.w3.org/2000/svg" xmlns:xlink="http://www.w3.org/1999/xlink" x="0px" y="0px"
	 viewBox="0 0 64 64" style="enable-background:new 0 0 64 64;" xml:space="preserve">
<style type="text/css">
	.st0{opacity:0.2;enable-background:new    ;}
	.st1{opacity:0.08;enable-background:new    ;}
	.st2{opacity:0.1;enable-background:new    ;}
	.st3{fill:#1B5E20;}
	.st4{fill:url(#SVGID_1_);}
	.st5{opacity:0.8;fill:#FFFFFF;enable-background:new    ;}
	.st6{fill:#388E3C;}
</style>
<rect x="9.1" y="2" class="st0" width="45.7" height="60"/>
<rect x="9.1" y="2" class="st1" width="47.7" height="62"/>
<rect x="10.1" y="3" class="st2" width="45.7" height="60"/>
<rect x="10.1" y="3" class="st3" width="43.7" height="58"/>
<g>
	
		<linearGradient id="SVGID_1_" gradientUnits="userSpaceOnUse" x1="115.1502" y1="1611.3008" x2="115.1502" y2="1554.3008" gradientTransform="matrix(1 0 0 1 -83.2002 -1550.8008)">
		<stop  offset="0" style="stop-color:#388E3C"/>
		<stop  offset="0.0757" style="stop-color:#43953E"/>
		<stop  offset="0.3246" style="stop-color:#62A943"/>
		<stop  offset="0.5665" style="stop-color:#79B747"/>
		<stop  offset="0.796" style="stop-color:#86C049"/>
		<stop  offset="1" style="stop-color:#8BC34A"/>
	</linearGradient>
	<rect x="10.6" y="3.5" class="st4" width="42.7" height="57"/>
	<path class="st5" d="M33.1,21.6L33.1,21.6h-2.2l0,0H16.8v27.5h30.4V21.6H33.1z M19,29.8h6.8v4.4H19V29.8z M19,36.4h6.8v4.4H19V36.4
		z M28,36.4h17v4.4H28V36.4z M28,34.2v-4.4h17v4.4H28L28,34.2z M45,23.8v3.8H28v-3.8H45z M25.8,23.8v3.8H19v-3.8H25.8z M19,43h6.8
		v3.9H19V43z M28,46.9V43h17v3.9H28z"/>
	<g>
		<rect x="10.6" y="3.5" class="st5" width="42.7" height="10.9"/>
	</g>
	<g>
		<path class="st6" d="M28.9,8.9c0,0.7-0.1,1.4-0.3,1.9c-0.2,0.6-0.5,1-0.9,1.4s-0.9,0.7-1.4,0.8c-0.5,0.2-1.1,0.3-1.8,0.3
			c-0.6,0-1.2-0.1-1.7-0.3s-1-0.5-1.4-0.8c-0.4-0.4-0.7-0.8-1-1.4C20.1,10.3,20,9.6,20,8.9c0-0.7,0.1-1.4,0.4-1.9
			c0.2-0.6,0.6-1,1-1.4s0.9-0.7,1.4-0.8c0.5-0.2,1.1-0.3,1.7-0.3s1.2,0.1,1.7,0.3c0.5,0.2,1,0.5,1.4,0.8C28,6,28.3,6.4,28.5,7
			C28.8,7.5,28.9,8.2,28.9,8.9z M22,8.9c0,0.4,0.1,0.8,0.2,1.1s0.3,0.6,0.5,0.9c0.2,0.2,0.4,0.4,0.7,0.6c0.3,0.1,0.6,0.2,1,0.2
			s0.7-0.1,1-0.2c0.3-0.1,0.5-0.3,0.7-0.6c0.2-0.2,0.4-0.5,0.5-0.9c0.1-0.3,0.2-0.7,0.2-1.1c0-0.4-0.1-0.8-0.2-1.1
			c-0.1-0.3-0.3-0.6-0.5-0.9c-0.2-0.2-0.5-0.4-0.7-0.6c-0.3-0.1-0.6-0.2-1-0.2s-0.7,0.1-1,0.2s-0.5,0.3-0.7,0.6
			c-0.2,0.2-0.4,0.5-0.5,0.9C22.1,8.1,22,8.5,22,8.9z"/>
		<path class="st6" d="M36.9,4.6v1.6h-2.7v6.9h-2V6.3h-2.7V4.6H36.9z"/>
		<path class="st6" d="M40.6,11.7c0.3,0,0.5,0,0.7-0.1s0.3-0.1,0.4-0.2c0.1-0.1,0.2-0.2,0.2-0.3s0.1-0.2,0.1-0.4
			c0-0.3-0.1-0.5-0.4-0.7c-0.3-0.2-0.7-0.4-1.4-0.6c-0.3-0.1-0.6-0.2-0.9-0.3C39,9,38.7,8.8,38.5,8.6C38.4,8.5,38.2,8.3,38,8
			c-0.1-0.3-0.2-0.6-0.2-1s0.1-0.8,0.2-1.1c0.2-0.3,0.4-0.6,0.7-0.8c0.3-0.2,0.6-0.4,1-0.5s0.9-0.2,1.4-0.2c0.6,0,1.1,0.1,1.6,0.2
			c0.4,0.1,0.8,0.3,1.1,0.4l-0.6,1.5c-0.3-0.1-0.5-0.2-0.8-0.3c-0.3-0.1-0.7-0.1-1.1-0.1c-0.5,0-0.8,0.1-1,0.2S40,6.6,40,6.9
			c0,0.2,0,0.3,0.1,0.4s0.2,0.2,0.3,0.3c0.1,0.1,0.3,0.2,0.5,0.2c0.1,0,0.3,0.1,0.5,0.2c0.5,0.2,0.9,0.3,1.2,0.5
			C43,8.6,43.3,8.8,43.5,9s0.4,0.5,0.5,0.8s0.2,0.6,0.2,1c0,0.8-0.3,1.4-0.9,1.8c-0.6,0.4-1.5,0.7-2.6,0.7c-0.4,0-0.8,0-1.1-0.1
			S39,13.1,38.8,13c-0.2-0.1-0.5-0.1-0.6-0.2c-0.2-0.1-0.3-0.1-0.4-0.2l0.6-1.5c0.3,0.1,0.6,0.3,1,0.4
			C39.6,11.6,40.1,11.7,40.6,11.7z"/>
	</g>
</g>
</svg>
