<?xml version="1.0" encoding="utf-8"?>
<!-- Generator: Adobe Illustrator 21.0.0, SVG Export Plug-In . SVG Version: 6.00 Build 0)  -->
<svg version="1.1"
	 id="svg2" inkscape:version="0.48.4 r9939" sodipodi:docname="computer.svg" xmlns:cc="http://creativecommons.org/ns#" xmlns:dc="http://purl.org/dc/elements/1.1/" xmlns:inkscape="http://www.inkscape.org/namespaces/inkscape" xmlns:rdf="http://www.w3.org/1999/02/22-rdf-syntax-ns#" xmlns:sodipodi="http://sodipodi.sourceforge.net/DTD/sodipodi-0.dtd" xmlns:svg="http://www.w3.org/2000/svg"
	 xmlns="http://www.w3.org/2000/svg" xmlns:xlink="http://www.w3.org/1999/xlink" x="0px" y="0px" viewBox="0 0 64 64"
	 style="enable-background:new 0 0 64 64;" xml:space="preserve">
<style type="text/css">
	.st0{opacity:0.1;enable-background:new    ;}
	.st1{opacity:0.2;enable-background:new    ;}
	.st2{fill:#0D47A1;}
	.st3{fill:url(#SVGID_1_);}
	.st4{opacity:0.8;fill:#FFFFFF;enable-background:new    ;}
</style>
<polygon class="st0" points="9.2,64 9.2,2 56.8,2 56.8,46.5 56.8,64 "/>
<polygon class="st0" points="10.2,63 10.2,3 55.8,3 55.8,46.1 55.8,63 "/>
<polygon class="st1" points="9.2,62 9.2,2 54.8,2 54.8,45.1 54.8,62 "/>
<polygon class="st2" points="10.1,61 10.1,3 53.9,3 53.9,44.7 53.9,61 "/>
<g>
	<g>
		<g>
			<g>
				
					<linearGradient id="SVGID_1_" gradientUnits="userSpaceOnUse" x1="32.05" y1="1465.05" x2="32.05" y2="1408.05" gradientTransform="matrix(1 0 0 1 0 -1404.55)">
					<stop  offset="0" style="stop-color:#3F51B5"/>
					<stop  offset="1" style="stop-color:#64B5F6"/>
				</linearGradient>
				<polygon class="st3" points="10.7,60.5 10.7,3.5 53.4,3.5 53.4,44.5 53.4,60.5 				"/>
			</g>
		</g>
	</g>
</g>
<path class="st4" d="M39.4,16.8c-0.8,0-1.5,0.5-1.8,1.1h-7.4c0,0-1.8-0.1-3.4,0.6s-3.2,2.4-3.2,5.3c0,2.8,1.7,4.5,3.2,5.3
	c0.7,0.3,1.5,0.5,2,0.6V30l-2.9,2.7c-0.1,0-0.2-0.1-0.3-0.1c-0.6,0-1.1,0.4-1.1,1s0.5,1,1.1,1s1-0.4,1-1c0-0.1,0-0.2-0.1-0.2
	l2.9-2.7h3.5v-1h1c0,0,1.1,0,2.2,0.5c1.1,0.5,2,1.3,2,3.5s-1,2.9-2,3.5c-1.1,0.5-2.4,0.6-2.4,0.6h-7.4c-0.4-0.6-1.1-1.1-1.8-1.1
	c-1.2,0-2.1,0.9-2.1,2s0.9,2,2.1,2c0.8,0,1.5-0.5,1.8-1.1h7.4c0,0,1.8,0.1,3.4-0.6c1.6-0.7,3.2-2.4,3.2-5.3s-1.7-4.5-3.2-5.3
	c-1.6-0.7-3.1-0.7-3.1-0.7h-1v-0.3l2.9-2.7c0.1,0,0.2,0.1,0.3,0.1c0.6,0,1.1-0.4,1.1-1s-0.5-1-1.1-1s-1.1,0.4-1.1,1
	c0,0.1,0,0.2,0.1,0.3l-2.9,2.7h-3.5v0.8c-0.3-0.1-0.7-0.2-1.1-0.4c-1.1-0.5-2-1.3-2-3.5s1-2.9,2-3.5c1.1-0.5,2.4-0.6,2.4-0.6h7.4
	c0.4,0.6,1.1,1.1,1.8,1.1c1.2,0,2.1-0.9,2.1-2C41.5,17.7,40.5,16.8,39.4,16.8z"/>
</svg>
