<?xml version="1.0" encoding="utf-8"?>
<!-- Generator: Adobe Illustrator 21.0.0, SVG Export Plug-In . SVG Version: 6.00 Build 0)  -->
<svg version="1.1" id="图层_1" xmlns="http://www.w3.org/2000/svg" xmlns:xlink="http://www.w3.org/1999/xlink" x="0px" y="0px"
	 viewBox="0 0 64 64" style="enable-background:new 0 0 64 64;" xml:space="preserve">
<style type="text/css">
	.st0{opacity:0.1;enable-background:new    ;}
	.st1{opacity:0.2;enable-background:new    ;}
	.st2{fill:#E65100;}
	.st3{fill:url(#SVGID_1_);}
	.st4{fill:#E65100;fill-opacity:0.3922;}
	.st5{fill:#FFFFFF;fill-opacity:0.3922;}
	.st6{opacity:0.8;}
	.st7{fill:#FFFFFF;}
	.st8{opacity:0.8;fill:#FFFFFF;enable-background:new    ;}
	.st9{enable-background:new    ;}
	.st10{fill:#E64A19;}
</style>
<polygon class="st0" points="9.2,64 9.2,2 56.8,2 56.8,46.5 39.3,64 "/>
<polygon class="st0" points="10.2,63 10.2,3 55.8,3 55.8,46.1 38.9,63 "/>
<polygon class="st1" points="9.2,62 9.2,2 54.8,2 54.8,45.1 37.9,62 "/>
<polygon class="st2" points="10.1,61 10.1,3 53.9,3 53.9,44.7 37.5,61 "/>
<g>
	<g>
		<g>
			
				<linearGradient id="SVGID_1_" gradientUnits="userSpaceOnUse" x1="73.6001" y1="-862.4004" x2="73.6001" y2="-805.4004" gradientTransform="matrix(1 0 0 -1 -41.6001 -801.9004)">
				<stop  offset="0" style="stop-color:#EE6F0B"/>
				<stop  offset="1" style="stop-color:#FFB74D"/>
			</linearGradient>
			<polygon class="st3" points="10.6,60.5 10.6,3.5 53.4,3.5 53.4,44.5 37.3,60.5 			"/>
		</g>
		<polygon class="st4" points="53.4,44.5 53.4,43.8 36.4,43.8 36.4,60.5 37.3,60.5 		"/>
		<path class="st5" d="M37.3,44.5h16.1l-16,16L37.3,44.5z"/>
	</g>
	<g class="st6">
		<rect x="16.2" y="25.4" class="st7" width="4.6" height="22.8"/>
		<rect x="23.8" y="36.8" class="st7" width="4.6" height="11.4"/>
		<rect x="31.4" y="41.5" class="st7" width="4.6" height="6.8"/>
		<g>
			<path class="st7" d="M37.6,21.4v9.1h9.1c0,5-4,9.1-9.1,9.1c-5,0-9.1-4-9.1-9.1C28.5,25.5,32.5,21.4,37.6,21.4z"/>
			<path class="st7" d="M38.7,20.4c5,0,9.1,4,9.1,9.1h-9.1L38.7,20.4z"/>
		</g>
	</g>
	<g>
		<rect x="10.6" y="3.5" class="st8" width="42.7" height="10.9"/>
		<g class="st9">
			<path class="st10" d="M20.7,4.6c0.2,0.3,0.3,0.6,0.5,1s0.4,0.8,0.6,1.3s0.4,0.9,0.7,1.4c0.2,0.5,0.4,0.9,0.6,1.4
				c0.2-0.4,0.4-0.9,0.6-1.4s0.4-1,0.7-1.4C24.6,6.4,24.8,6,25,5.6c0.2-0.4,0.4-0.7,0.5-1h1.8c0.1,0.6,0.2,1.2,0.2,1.9
				c0.1,0.7,0.1,1.4,0.2,2.2C27.9,9.5,28,10.2,28,11s0.1,1.5,0.1,2.1h-2c0-0.8-0.1-1.7-0.1-2.7s-0.1-2-0.2-2.9
				c-0.2,0.3-0.3,0.7-0.5,1.1s-0.4,0.8-0.6,1.3s-0.4,0.8-0.5,1.2c-0.2,0.4-0.3,0.7-0.4,1h-1.4c-0.1-0.3-0.3-0.6-0.4-1
				c-0.2-0.4-0.4-0.8-0.5-1.2c-0.2-0.4-0.4-0.8-0.6-1.3c-0.2-0.4-0.4-0.8-0.5-1.1c-0.1,1-0.2,2-0.2,2.9c0,1-0.1,1.9-0.1,2.7h-2
				c0-0.7,0.1-1.4,0.1-2.1c0-0.8,0.1-1.5,0.2-2.3s0.1-1.5,0.2-2.2s0.2-1.3,0.2-1.9H20.7z"/>
			<path class="st10" d="M34.3,6.1c-0.9,0-1.6,0.2-2,0.7c-0.4,0.5-0.6,1.2-0.6,2c0,0.4,0,0.8,0.2,1.1c0.1,0.3,0.3,0.6,0.5,0.9
				c0.2,0.2,0.5,0.4,0.8,0.6c0.3,0.1,0.7,0.2,1.1,0.2c0.2,0,0.4,0,0.6,0c0.2,0,0.3,0,0.4-0.1v-3h2v4.2c-0.2,0.1-0.6,0.2-1.2,0.3
				c-0.5,0.1-1.2,0.2-2,0.2c-0.7,0-1.3-0.1-1.8-0.3s-1-0.5-1.4-0.9s-0.7-0.8-0.9-1.4c-0.2-0.5-0.3-1.2-0.3-1.9s0.1-1.3,0.4-1.9
				c0.2-0.5,0.6-1,1-1.4s0.9-0.7,1.4-0.9c0.5-0.2,1.1-0.3,1.8-0.3c0.4,0,0.8,0,1.1,0.1s0.6,0.1,0.9,0.2c0.2,0.1,0.4,0.1,0.6,0.2
				C36.9,5,37,5.1,37,5.1l-0.6,1.5c-0.3-0.1-0.6-0.3-1-0.4C35.2,6.2,34.8,6.1,34.3,6.1z"/>
			<path class="st10" d="M41.7,4.5c1.3,0,2.4,0.2,3.1,0.7c0.7,0.4,1.1,1.2,1.1,2.2s-0.4,1.8-1.1,2.2c-0.7,0.5-1.8,0.7-3.1,0.7h-0.6
				v2.8h-2V4.8c0.4-0.1,0.9-0.1,1.4-0.2S41.4,4.5,41.7,4.5z M41.9,6.2c-0.1,0-0.3,0-0.4,0c-0.1,0-0.3,0-0.4,0v2.5h0.6
				c0.7,0,1.2-0.1,1.6-0.3c0.3-0.2,0.5-0.5,0.5-1c0-0.2,0-0.4-0.1-0.6s-0.2-0.3-0.4-0.4s-0.4-0.2-0.6-0.2
				C42.4,6.2,42.2,6.2,41.9,6.2z"/>
		</g>
	</g>
</g>
</svg>
