<?xml version="1.0" encoding="utf-8"?>
<!-- Generator: Adobe Illustrator 21.0.0, SVG Export Plug-In . SVG Version: 6.00 Build 0)  -->
<svg version="1.1" id="图层_1" xmlns="http://www.w3.org/2000/svg" xmlns:xlink="http://www.w3.org/1999/xlink" x="0px" y="0px"
	 viewBox="0 0 64 64" style="enable-background:new 0 0 64 64;" xml:space="preserve">
<style type="text/css">
	.st0{opacity:0.08;enable-background:new    ;}
	.st1{opacity:0.1;enable-background:new    ;}
	.st2{opacity:0.2;enable-background:new    ;}
	.st3{fill:url(#SVGID_1_);}
	.st4{fill:#B71C1C;fill-opacity:0.3922;}
	.st5{fill:#FFFFFF;fill-opacity:0.3922;}
	.st6{opacity:0.8;}
	.st7{fill:#FFFFFF;}
	.st8{fill:#B71C1C;}
</style>
<g id="surface1_1_">
	<polygon class="st0" points="9.3,64 9.3,2 56.8,2 56.8,46.5 39.3,64 	"/>
	<polygon class="st1" points="10.3,63 10.3,3 55.8,3 55.8,46.1 38.9,63 	"/>
	<polygon class="st2" points="9.3,62 9.3,2 54.8,2 54.8,45.1 37.9,62 	"/>
	<g>
		
			<linearGradient id="SVGID_1_" gradientUnits="userSpaceOnUse" x1="240.0005" y1="-2416.9512" x2="240.0005" y2="-2358.9512" gradientTransform="matrix(1 0 0 -1 -208.0005 -2355.9512)">
			<stop  offset="0" style="stop-color:#512DA8"/>
			<stop  offset="8.000000e-03" style="stop-color:#D32F2F"/>
			<stop  offset="0.3041" style="stop-color:#E33932"/>
			<stop  offset="0.6579" style="stop-color:#F04035"/>
			<stop  offset="1" style="stop-color:#F44336"/>
		</linearGradient>
		<path class="st3" d="M37.4,61l16.3-16.3V3H10.3v58H37.4z"/>
		<polygon class="st4" points="36.5,43.8 36.5,61 37.4,61 53.8,44.7 53.8,43.8 		"/>
		<path class="st5" d="M37.4,44.7h16.3L37.4,61V44.7z"/>
		<g class="st6">
			<path class="st7" d="M33.6,19.1v6.5H22.9c-0.4,0-0.8-0.4-0.8-0.8V20c0-0.4,0.4-0.8,0.8-0.8L33.6,19.1 M34.6,18.1H22.9
				c-1,0-1.8,0.8-1.8,1.8v4.8c0,1,0.8,1.8,1.8,1.8h11.6v-8.4H34.6z"/>
			<g>
				<path class="st7" d="M35.1,26.1v-5.8l3.4,5.3l3.4-5.3h-6.8v-1.7h6c0.7,0,1.3,0.6,1.3,1.3v4.8c0,0.7-0.6,1.3-1.3,1.3L35.1,26.1
					L35.1,26.1z"/>
				<path class="st7" d="M41.1,19.1c0.4,0,0.7,0.3,0.8,0.7H41h-5h-0.4v-0.7H41.1 M41.9,21.3v3.5c0,0.4-0.4,0.8-0.8,0.8h-2l0.2-0.4
					L41.9,21.3L41.9,21.3 M35.6,22l2.1,3.2l0.2,0.4h-2.3V22 M41.1,18.1h-6.5v8.5h6.5c1,0,1.8-0.8,1.8-1.8V20
					C42.9,18.9,42.1,18.1,41.1,18.1L41.1,18.1z M38.5,24.6L36,20.8h5L38.5,24.6L38.5,24.6z"/>
			</g>
			<path class="st7" d="M38,31.2c2.1,0,3.8,1.7,3.8,3.8s-1.7,3.8-3.8,3.8s-3.8-1.7-3.8-3.8S35.9,31.2,38,31.2 M38,30.2
				c-2.7,0-4.8,2.2-4.8,4.8s2.2,4.8,4.8,4.8s4.8-2.2,4.8-4.8S40.7,30.2,38,30.2L38,30.2z"/>
			<g>
				<path class="st7" d="M29,30.2h-6c-1,0-1.8,0.8-1.8,1.8v6c0,1,0.8,1.8,1.8,1.8h6c1,0,1.8-0.8,1.8-1.8v-6C30.8,31,30,30.2,29,30.2
					z M25.7,38.1l-3-2.5l1-1.2l1.7,1.4L28,32l1.2,0.8L25.7,38.1z"/>
			</g>
			<g>
				<circle class="st7" cx="38" cy="35" r="2.3"/>
			</g>
		</g>
		<g>
			<path class="st8" d="M53.3,3.5v41l-16,16H24.8h-14v-57H53.3 M53.8,3H10.3v58h14.5h12.7l16.3-16.3V3L53.8,3z"/>
		</g>
	</g>
</g>
</svg>
