<?xml version="1.0" encoding="utf-8"?>
<!-- Generator: Adobe Illustrator 21.0.0, SVG Export Plug-In . SVG Version: 6.00 Build 0)  -->
<svg version="1.1" id="图层_1" xmlns="http://www.w3.org/2000/svg" xmlns:xlink="http://www.w3.org/1999/xlink" x="0px" y="0px"
	 viewBox="0 0 64 64" style="enable-background:new 0 0 64 64;" xml:space="preserve">
<style type="text/css">
	.st0{opacity:0.1;enable-background:new    ;}
	.st1{opacity:0.2;enable-background:new    ;}
	.st2{fill:#5F7B89;}
	.st3{fill:url(#SVGID_1_);}
	.st4{fill:#455963;fill-opacity:0.7;}
	.st5{fill:#8DA1AC;}
	.st6{fill:#607D8B;}
</style>
<polygon class="st0" points="9.2,64 9.2,2 56.8,2 56.8,46.5 39.3,64 "/>
<polygon class="st0" points="10.2,63 10.2,3 55.8,3 55.8,46.1 38.9,63 "/>
<polygon class="st1" points="9.2,62 9.2,2 54.8,2 54.8,45.1 37.9,62 "/>
<polygon class="st2" points="10.2,61 10.2,3 53.8,3 53.8,44.7 37.5,61 "/>
<g>
	<g>
		<g>
			<g>
				<g>
					<g>
						<g>
							<g>
								
									<linearGradient id="SVGID_1_" gradientUnits="userSpaceOnUse" x1="156.7998" y1="1973.2012" x2="156.7998" y2="2030.2012" gradientTransform="matrix(1 0 0 1 -124.7998 -1969.7012)">
									<stop  offset="0" style="stop-color:#F6F5F5"/>
									<stop  offset="0.341" style="stop-color:#F1F2F3"/>
									<stop  offset="0.6434" style="stop-color:#E7EAEB"/>
									<stop  offset="0.9302" style="stop-color:#D5DBDF"/>
									<stop  offset="1" style="stop-color:#CFD7DB"/>
								</linearGradient>
								<polygon class="st3" points="10.6,60.5 10.6,3.5 53.4,3.5 53.4,44.5 37.3,60.5 								"/>
							</g>
							<polygon class="st4" points="53.4,44.5 53.4,43.8 36.4,43.8 36.4,60.5 37.3,60.5 							"/>
							<path class="st5" d="M37.3,44.5h16.1l-16,16L37.3,44.5z"/>
						</g>
					</g>
				</g>
			</g>
		</g>
	</g>
	<g>
		<path class="st6" d="M43.7,26.2c0,1.9-0.3,3.7-1,5.2c-0.6,1.5-1.5,2.8-2.6,3.9s-2.3,1.9-3.7,2.4c-1.4,0.6-2.9,0.8-4.5,0.8
			c-1.6,0-3-0.3-4.5-0.8c-1.4-0.6-2.7-1.4-3.7-2.4s-1.9-2.4-2.6-3.9c-0.6-1.5-1-3.3-1-5.2s0.3-3.7,1-5.2c0.6-1.5,1.5-2.8,2.6-3.9
			s2.3-1.9,3.7-2.4c1.4-0.6,2.9-0.8,4.5-0.8c1.6,0,3,0.3,4.5,0.8c1.4,0.6,2.7,1.4,3.7,2.4s1.9,2.4,2.6,3.9
			C43.4,22.6,43.7,24.3,43.7,26.2z M41.2,26.2c0-1.5-0.2-2.9-0.7-4.1c-0.5-1.3-1.1-2.3-1.9-3.2c-0.8-0.9-1.8-1.6-2.9-2.1
			c-1.1-0.5-2.4-0.7-3.7-0.7c-1.4,0-2.6,0.2-3.7,0.7s-2.1,1.2-2.9,2.1s-1.4,2-1.9,3.2s-0.7,2.6-0.7,4.1s0.2,2.9,0.7,4.1
			c0.5,1.3,1.1,2.3,1.9,3.2c0.8,0.9,1.8,1.6,2.9,2.1s2.4,0.7,3.7,0.7c1.4,0,2.6-0.2,3.7-0.7c1.1-0.5,2.1-1.2,2.9-2.1
			c0.8-0.9,1.4-2,1.9-3.2C41,29.1,41.2,27.8,41.2,26.2z"/>
		<g>
			<path class="st6" d="M33.5,33.6h-3V23.1h3V33.6z"/>
		</g>
		<circle class="st6" cx="32" cy="20.3" r="1.8"/>
	</g>
</g>
</svg>
