<?xml version="1.0" encoding="utf-8"?>
<!-- Generator: Adobe Illustrator 21.0.0, SVG Export Plug-In . SVG Version: 6.00 Build 0)  -->
<svg version="1.1" id="图层_1" xmlns="http://www.w3.org/2000/svg" xmlns:xlink="http://www.w3.org/1999/xlink" x="0px" y="0px"
	 viewBox="0 0 64 64" style="enable-background:new 0 0 64 64;" xml:space="preserve">
<style type="text/css">
	.st0{opacity:0.1;enable-background:new    ;}
	.st1{opacity:0.2;enable-background:new    ;}
	.st2{fill:#212121;}
	.st3{fill:url(#SVGID_1_);}
	.st4{fill:#9E9E9E;fill-opacity:0.39;}
	.st5{fill:#FFFFFF;fill-opacity:0.3922;}
	.st6{opacity:0.8;}
	.st7{fill:#FFFFFF;}
</style>
<polygon class="st0" points="9.2,64 9.2,2 56.8,2 56.8,46.5 39.3,64 "/>
<polygon class="st0" points="10.2,63 10.2,3 55.8,3 55.8,46.1 38.9,63 "/>
<polygon class="st1" points="9.2,62 9.2,2 54.8,2 54.8,45.1 37.9,62 "/>
<polygon class="st2" points="10.1,61 10.1,3 53.9,3 53.9,44.7 37.5,61 "/>
<g>
	<g>
		<g>
			<g>
				
					<linearGradient id="SVGID_1_" gradientUnits="userSpaceOnUse" x1="32" y1="786.5" x2="32" y2="729.5" gradientTransform="matrix(1 0 0 1 0 -726)">
					<stop  offset="0" style="stop-color:#616161"/>
					<stop  offset="1" style="stop-color:#90A4AE"/>
				</linearGradient>
				<polygon class="st3" points="10.6,60.5 10.6,3.5 53.4,3.5 53.4,44.5 37.3,60.5 				"/>
			</g>
			<polygon class="st4" points="53.4,44.5 53.4,43.8 36.4,43.8 36.4,60.5 37.3,60.5 			"/>
			<path class="st5" d="M37.3,44.5h16.1l-16,16L37.3,44.5z"/>
		</g>
	</g>
	<g class="st6">
		<path class="st7" d="M34.4,40.6c-1.8,0-3.4-0.3-4.9-0.8s-2.7-1.3-3.8-2.4c-1-1-1.9-2.3-2.4-3.9c-0.6-1.5-0.9-3.3-0.9-5.3
			s0.3-3.7,1-5.3c0.6-1.5,1.5-2.8,2.6-3.9s2.4-1.8,3.8-2.4c1.5-0.5,3-0.8,4.7-0.8c1.1,0,2,0.1,2.8,0.2c0.8,0.1,1.6,0.3,2.2,0.5
			c0.6,0.2,1.1,0.4,1.5,0.5c0.4,0.2,0.7,0.3,0.8,0.4l-1,2.7c-0.2-0.1-0.5-0.3-1-0.4c-0.4-0.2-0.9-0.3-1.4-0.5s-1.1-0.3-1.7-0.4
			c-0.6-0.1-1.3-0.2-1.9-0.2c-1.3,0-2.6,0.2-3.6,0.6c-1.1,0.4-2,1.1-2.7,1.9c-0.8,0.8-1.3,1.8-1.7,3c-0.4,1.2-0.6,2.5-0.6,3.9
			s0.2,2.7,0.5,3.8c0.4,1.2,0.9,2.2,1.6,3s1.6,1.5,2.7,1.9c1.1,0.5,2.3,0.7,3.7,0.7c1.6,0,3-0.2,4.1-0.5s1.9-0.6,2.4-0.9l0.9,2.7
			c-0.2,0.1-0.5,0.3-0.9,0.4c-0.4,0.2-1,0.3-1.6,0.5c-0.7,0.2-1.4,0.3-2.3,0.4C36.4,40.5,35.4,40.6,34.4,40.6z"/>
	</g>
</g>
</svg>
