<?xml version="1.0" encoding="utf-8"?>
<!-- Generator: Adobe Illustrator 21.0.0, SVG Export Plug-In . SVG Version: 6.00 Build 0)  -->
<svg version="1.1" id="图层_1" xmlns="http://www.w3.org/2000/svg" xmlns:xlink="http://www.w3.org/1999/xlink" x="0px" y="0px"
	 viewBox="0 0 64 64" style="enable-background:new 0 0 64 64;" xml:space="preserve">
<style type="text/css">
	.st0{opacity:0.1;enable-background:new    ;}
	.st1{opacity:0.2;enable-background:new    ;}
	.st2{fill:#0D47A1;}
	.st3{fill:url(#SVGID_1_);}
	.st4{fill:#2196F3;fill-opacity:0.7;}
	.st5{opacity:0.39;fill:#FFFFFF;enable-background:new    ;}
	.st6{opacity:0.8;}
	.st7{opacity:0.8;fill:url(#SVGID_2_);enable-background:new    ;}
	.st8{opacity:0.8;fill:url(#SVGID_3_);enable-background:new    ;}
	.st9{opacity:0.8;fill:url(#SVGID_4_);enable-background:new    ;}
	.st10{fill:url(#SVGID_5_);}
	.st11{fill:url(#SVGID_6_);}
	.st12{fill:url(#SVGID_7_);}
	.st13{fill:url(#SVGID_8_);}
	.st14{opacity:0.8;fill:#FFFFFF;enable-background:new    ;}
	.st15{fill:#1976D2;}
</style>
<polygon class="st0" points="9.2,64 9.2,2 56.8,2 56.8,46.5 39.3,64 "/>
<polygon class="st0" points="10.2,63 10.2,3 55.8,3 55.8,46.1 38.9,63 "/>
<polygon class="st1" points="9.2,62 9.2,2 54.8,2 54.8,45.1 37.9,62 "/>
<polygon class="st2" points="10.1,61 10.1,3 53.9,3 53.9,44.7 37.5,61 "/>
<g>
	<g>
		<g>
			<g>
				
					<linearGradient id="SVGID_1_" gradientUnits="userSpaceOnUse" x1="32.05" y1="786.5" x2="32.05" y2="729.5" gradientTransform="matrix(1 0 0 1 0 -726)">
					<stop  offset="0" style="stop-color:#3F51B5"/>
					<stop  offset="1" style="stop-color:#64B5F6"/>
				</linearGradient>
				<polygon class="st3" points="10.7,60.5 10.7,3.5 53.4,3.5 53.4,44.5 37.3,60.5 				"/>
			</g>
			<polygon class="st4" points="53.4,44.5 53.4,43.8 36.5,43.8 36.5,60.5 37.3,60.5 			"/>
			<path class="st5" d="M37.3,44.5h16.1l-16,16L37.3,44.5z"/>
		</g>
		<g class="st6">
			
				<linearGradient id="SVGID_2_" gradientUnits="userSpaceOnUse" x1="17" y1="748.95" x2="47" y2="748.95" gradientTransform="matrix(1 0 0 1 0 -726)">
				<stop  offset="0" style="stop-color:#F6F5F5"/>
				<stop  offset="0.341" style="stop-color:#F1F2F3"/>
				<stop  offset="0.6434" style="stop-color:#E7EAEB"/>
				<stop  offset="0.9302" style="stop-color:#D5DBDF"/>
				<stop  offset="1" style="stop-color:#CFD7DB"/>
			</linearGradient>
			<rect x="17" y="22.2" class="st7" width="30" height="1.5"/>
			
				<linearGradient id="SVGID_3_" gradientUnits="userSpaceOnUse" x1="17" y1="744.35" x2="47" y2="744.35" gradientTransform="matrix(1 0 0 1 0 -726)">
				<stop  offset="0" style="stop-color:#F6F5F5"/>
				<stop  offset="0.341" style="stop-color:#F1F2F3"/>
				<stop  offset="0.6434" style="stop-color:#E7EAEB"/>
				<stop  offset="0.9302" style="stop-color:#D5DBDF"/>
				<stop  offset="1" style="stop-color:#CFD7DB"/>
			</linearGradient>
			<rect x="17" y="17.6" class="st8" width="30" height="1.5"/>
			
				<linearGradient id="SVGID_4_" gradientUnits="userSpaceOnUse" x1="31.321" y1="760.45" x2="46.995" y2="760.45" gradientTransform="matrix(1 0 0 1 0 -726)">
				<stop  offset="0" style="stop-color:#F6F5F5"/>
				<stop  offset="0.341" style="stop-color:#F1F2F3"/>
				<stop  offset="0.6434" style="stop-color:#E7EAEB"/>
				<stop  offset="0.9302" style="stop-color:#D5DBDF"/>
				<stop  offset="1" style="stop-color:#CFD7DB"/>
			</linearGradient>
			<rect x="31.3" y="26.6" class="st9" width="15.7" height="15.7"/>
			<g class="st6">
				
					<linearGradient id="SVGID_5_" gradientUnits="userSpaceOnUse" x1="17" y1="753.55" x2="30.04" y2="753.55" gradientTransform="matrix(1 0 0 1 0 -726)">
					<stop  offset="0" style="stop-color:#F6F5F5"/>
					<stop  offset="0.341" style="stop-color:#F1F2F3"/>
					<stop  offset="0.6434" style="stop-color:#E7EAEB"/>
					<stop  offset="0.9302" style="stop-color:#D5DBDF"/>
					<stop  offset="1" style="stop-color:#CFD7DB"/>
				</linearGradient>
				<rect x="17" y="26.8" class="st10" width="13" height="1.5"/>
				
					<linearGradient id="SVGID_6_" gradientUnits="userSpaceOnUse" x1="17" y1="758.25" x2="30.04" y2="758.25" gradientTransform="matrix(1 0 0 1 0 -726)">
					<stop  offset="0" style="stop-color:#F6F5F5"/>
					<stop  offset="0.341" style="stop-color:#F1F2F3"/>
					<stop  offset="0.6434" style="stop-color:#E7EAEB"/>
					<stop  offset="0.9302" style="stop-color:#D5DBDF"/>
					<stop  offset="1" style="stop-color:#CFD7DB"/>
				</linearGradient>
				<rect x="17" y="31.5" class="st11" width="13" height="1.5"/>
				
					<linearGradient id="SVGID_7_" gradientUnits="userSpaceOnUse" x1="17" y1="762.85" x2="30.04" y2="762.85" gradientTransform="matrix(1 0 0 1 0 -726)">
					<stop  offset="0" style="stop-color:#F6F5F5"/>
					<stop  offset="0.341" style="stop-color:#F1F2F3"/>
					<stop  offset="0.6434" style="stop-color:#E7EAEB"/>
					<stop  offset="0.9302" style="stop-color:#D5DBDF"/>
					<stop  offset="1" style="stop-color:#CFD7DB"/>
				</linearGradient>
				<rect x="17" y="36.1" class="st12" width="13" height="1.5"/>
				
					<linearGradient id="SVGID_8_" gradientUnits="userSpaceOnUse" x1="17" y1="767.55" x2="30.04" y2="767.55" gradientTransform="matrix(1 0 0 1 0 -726)">
					<stop  offset="0" style="stop-color:#F6F5F5"/>
					<stop  offset="0.341" style="stop-color:#F1F2F3"/>
					<stop  offset="0.6434" style="stop-color:#E7EAEB"/>
					<stop  offset="0.9302" style="stop-color:#D5DBDF"/>
					<stop  offset="1" style="stop-color:#CFD7DB"/>
				</linearGradient>
				<rect x="17" y="40.8" class="st13" width="13" height="1.5"/>
			</g>
		</g>
	</g>
	<g>
		<rect x="10.6" y="3.5" class="st14" width="42.7" height="10.9"/>
		<g>
			<path class="st15" d="M26.8,9c0,0.7-0.1,1.4-0.4,1.9c-0.2,0.6-0.6,1-1,1.4s-1,0.6-1.6,0.8s-1.4,0.3-2.1,0.3c-0.4,0-0.8,0-1.3,0
				s-1-0.1-1.4-0.2V4.8c0.5-0.1,1-0.1,1.5-0.2c0.5,0,0.9,0,1.3,0c0.8,0,1.5,0.1,2.1,0.2C24.4,5,25,5.3,25.4,5.6s0.8,0.8,1,1.4
				S26.8,8.2,26.8,9z M21,11.7c0.1,0,0.2,0,0.3,0c0.1,0,0.3,0,0.4,0c1,0,1.8-0.2,2.2-0.7c0.5-0.5,0.7-1.2,0.7-2c0-0.9-0.2-1.6-0.7-2
				c-0.5-0.5-1.2-0.7-2.2-0.7c-0.1,0-0.3,0-0.4,0s-0.3,0-0.4,0L21,11.7L21,11.7z"/>
			<path class="st15" d="M37,9c0,0.7-0.1,1.4-0.3,1.9c-0.2,0.6-0.5,1-0.9,1.4s-0.9,0.7-1.4,0.8c-0.5,0.2-1.1,0.3-1.8,0.3
				c-0.6,0-1.2-0.1-1.7-0.3s-1-0.5-1.4-0.8c-0.4-0.4-0.7-0.8-1-1.4c-0.2-0.6-0.4-1.2-0.4-1.9s0.1-1.4,0.4-1.9s0.6-1,1-1.4
				s0.9-0.7,1.4-0.8c0.5-0.2,1.1-0.3,1.7-0.3c0.6,0,1.2,0.1,1.7,0.3c0.5,0.2,1,0.5,1.4,0.8c0.4,0.4,0.7,0.8,1,1.4
				C36.9,7.6,37,8.2,37,9z M30.2,9c0,0.4,0.1,0.8,0.2,1.1s0.3,0.6,0.5,0.9c0.2,0.2,0.4,0.4,0.7,0.6c0.3,0.1,0.6,0.2,1,0.2
				s0.7-0.1,1-0.2c0.3-0.1,0.5-0.3,0.8-0.6c0.2-0.2,0.4-0.5,0.5-0.9C35,9.8,35.1,9.4,35.1,9S35,8.2,34.9,7.9
				c-0.1-0.3-0.3-0.6-0.5-0.9s-0.5-0.4-0.8-0.6c-0.3-0.1-0.6-0.2-1-0.2s-0.7,0.1-1,0.2C31.3,6.5,31,6.7,30.8,7
				c-0.2,0.2-0.4,0.5-0.5,0.9C30.2,8.2,30.2,8.5,30.2,9z"/>
			<path class="st15" d="M42.8,13.4c-1.5,0-2.6-0.4-3.3-1.2c-0.8-0.8-1.1-1.9-1.1-3.3c0-0.7,0.1-1.3,0.3-1.9s0.6-1,1-1.4
				C40,5.3,40.5,5,41.1,4.8s1.2-0.3,1.8-0.3c0.4,0,0.7,0,1,0.1s0.6,0.1,0.8,0.2c0.3,0,0.5,0.1,0.6,0.2c0.2,0.1,0.3,0.1,0.3,0.2
				L45,6.7c-0.3-0.1-0.6-0.3-1-0.4s-0.8-0.1-1.2-0.1c-0.3,0-0.6,0.1-0.9,0.1s-0.6,0.3-0.8,0.5s-0.4,0.5-0.5,0.8s-0.2,0.8-0.2,1.3
				c0,0.4,0,0.8,0.1,1.1s0.2,0.6,0.4,0.9c0.2,0.2,0.5,0.4,0.8,0.6c0.3,0.1,0.7,0.2,1.2,0.2c0.3,0,0.6,0,0.8-0.1
				c0.2,0,0.4-0.1,0.6-0.1c0.2,0,0.3-0.1,0.5-0.2c0.1-0.1,0.3-0.1,0.4-0.2l0.6,1.5c-0.3,0.2-0.7,0.3-1.2,0.4
				C44.1,13.3,43.5,13.4,42.8,13.4z"/>
		</g>
	</g>
</g>
</svg>
