<?xml version="1.0" encoding="utf-8"?>
<!-- Generator: Adobe Illustrator 21.0.0, SVG Export Plug-In . SVG Version: 6.00 Build 0)  -->
<svg version="1.1" id="图层_1" xmlns="http://www.w3.org/2000/svg" xmlns:xlink="http://www.w3.org/1999/xlink" x="0px" y="0px"
	 viewBox="0 0 64 64" style="enable-background:new 0 0 64 64;" xml:space="preserve">
<style type="text/css">
	.st0{opacity:0.2;enable-background:new    ;}
	.st1{opacity:0.08;enable-background:new    ;}
	.st2{opacity:0.1;enable-background:new    ;}
	.st3{fill:#0D47A1;}
	.st4{fill:url(#SVGID_1_);}
	.st5{opacity:0.8;}
	.st6{opacity:0.8;fill:#FFFFFF;enable-background:new    ;}
	.st7{fill:#FFFFFF;}
	.st8{enable-background:new    ;}
	.st9{fill:#236FB7;}
</style>
<rect x="9.1" y="2" class="st0" width="45.7" height="60"/>
<rect x="9.1" y="2" class="st1" width="47.7" height="62"/>
<rect x="10.1" y="3" class="st2" width="45.7" height="60"/>
<rect x="10.1" y="3" class="st3" width="43.7" height="58"/>
<g>
	
		<linearGradient id="SVGID_1_" gradientUnits="userSpaceOnUse" x1="31.9501" y1="729.4999" x2="31.9499" y2="786.5001" gradientTransform="matrix(1 0 0 1 0 -726)">
		<stop  offset="0" style="stop-color:#64B5F6"/>
		<stop  offset="1" style="stop-color:#3F51B5"/>
	</linearGradient>
	<rect x="10.6" y="3.5" class="st4" width="42.7" height="57"/>
	<g class="st5">
		<rect x="16.2" y="26" class="st6" width="31.7" height="1.6"/>
		<rect x="16.2" y="21.1" class="st6" width="31.7" height="1.6"/>
		<rect x="31.3" y="30.6" class="st6" width="16.5" height="16.5"/>
		<g class="st5">
			<rect x="16.2" y="30.9" class="st7" width="13.8" height="1.6"/>
			<rect x="16.2" y="35.8" class="st7" width="13.8" height="1.6"/>
			<rect x="16.2" y="40.7" class="st7" width="13.8" height="1.6"/>
			<rect x="16.2" y="45.6" class="st7" width="13.8" height="1.6"/>
		</g>
	</g>
	<g>
		<rect x="10.6" y="3.5" class="st6" width="42.7" height="10.9"/>
		<g class="st8">
			<path class="st9" d="M26.8,9c0,0.7-0.1,1.4-0.4,1.9s-0.6,1-1,1.4s-1,0.6-1.6,0.8s-1.4,0.3-2.1,0.3c-0.4,0-0.8,0-1.3,0
				s-1-0.1-1.4-0.2V4.8c0.5-0.1,1-0.1,1.5-0.2c0.5,0,0.9,0,1.3,0c0.8,0,1.5,0.1,2.1,0.2C24.4,5,25,5.3,25.4,5.6
				c0.4,0.3,0.8,0.8,1,1.4S26.8,8.2,26.8,9z M21,11.7c0.1,0,0.2,0,0.3,0c0.1,0,0.3,0,0.4,0c1,0,1.8-0.2,2.2-0.7
				c0.5-0.5,0.7-1.1,0.7-2s-0.2-1.6-0.7-2c-0.5-0.5-1.2-0.7-2.2-0.7c-0.1,0-0.3,0-0.4,0s-0.3,0-0.4,0C21,6.3,21,11.7,21,11.7z"/>
			<path class="st9" d="M37,9c0,0.7-0.1,1.4-0.3,1.9c-0.2,0.6-0.5,1-0.9,1.4s-0.9,0.7-1.4,0.8c-0.5,0.2-1.1,0.3-1.8,0.3
				c-0.6,0-1.2-0.1-1.7-0.3s-1-0.5-1.4-0.8c-0.4-0.4-0.7-0.8-1-1.4c-0.2-0.6-0.3-1.2-0.3-1.9s0.1-1.4,0.4-1.9c0.2-0.5,0.6-1,1-1.4
				S30.5,5,31,4.9c0.5-0.2,1.1-0.3,1.7-0.3s1.2,0.1,1.7,0.3c0.5,0.2,1,0.5,1.4,0.8c0.4,0.4,0.7,0.8,1,1.4C36.9,7.6,37,8.2,37,9z
				 M30.2,9c0,0.4,0.1,0.8,0.2,1.1s0.3,0.6,0.5,0.9c0.2,0.2,0.5,0.4,0.7,0.6c0.3,0.1,0.6,0.2,1,0.2s0.7-0.1,1-0.2
				c0.3-0.1,0.5-0.3,0.8-0.6c0.2-0.2,0.4-0.5,0.5-0.9C35,9.8,35.1,9.4,35.1,9c0-0.4-0.1-0.8-0.2-1.1c-0.1-0.3-0.3-0.6-0.5-0.9
				c-0.2-0.2-0.5-0.4-0.8-0.6c-0.3-0.1-0.6-0.2-1-0.2s-0.7,0.1-1,0.2C31.3,6.5,31,6.7,30.8,7c-0.2,0.2-0.4,0.5-0.5,0.9
				C30.2,8.2,30.2,8.5,30.2,9z"/>
			<path class="st9" d="M45,4.7v1.6h-2.7v6.9h-2V6.3h-2.7V4.7H45z"/>
		</g>
	</g>
</g>
</svg>
