<?xml version="1.0" encoding="utf-8"?>
<!-- Generator: Adobe Illustrator 24.0.0, SVG Export Plug-In . SVG Version: 6.00 Build 0)  -->
<svg version="1.1" id="图层_13" xmlns="http://www.w3.org/2000/svg" xmlns:xlink="http://www.w3.org/1999/xlink" x="0px" y="0px"
	 viewBox="0 0 96 96" enable-background="new 0 0 96 96" xml:space="preserve">
<title>96</title>
<g id="_96">
	<circle fill="#FFFFFF" cx="48" cy="48" r="43.5"/>
	<path fill="#DDDDDD" d="M48,5c23.7,0,43,19.3,43,43S71.7,91,48,91S5,71.7,5,48S24.3,5,48,5 M48,4C23.7,4,4,23.7,4,48s19.7,44,44,44
		s44-19.7,44-44S72.3,4,48,4z"/>
	<path fill="#999999" d="M59.4,29C65.8,29,71,34.2,71,40.6c0,0.1,0,0.2,0,0.2s0,0.2,0,0.3v0.5c0,0.1,0,0.2,0,0.3
		c-0.1,4.6-3.8,11.4-9.8,18.2C55,67.1,49.6,70.5,48,70.8c-1.5-0.3-7-3.8-13.2-11c-5.9-6.8-9.6-13.6-9.8-18c0-0.1,0-0.2,0-0.3v-0.5
		c0-0.1,0-0.2,0-0.3s0-0.2,0-0.2C25,34.2,30.2,29,36.6,29c3.2,0,6.3,1.3,8.5,3.7l2.9,3.2l2.9-3.2C53.1,30.3,56.2,29,59.4,29
		 M59.4,25c-4.3,0-8.5,1.8-11.4,5c-5.8-6.3-15.7-6.7-22-0.9c-3.2,3-5,7.1-5,11.5c0,0.3,0,0.5,0,0.8c0,0.1,0,0.2,0,0.3
		c0,12.6,20.8,33.2,27,33.2s27-20.1,27-33.2c0-0.1,0-0.2,0-0.3c0-0.3,0-0.5,0-0.8C75,32,68,25,59.4,25C59.4,25,59.4,25,59.4,25z"/>
</g>
</svg>
