<?xml version="1.0" encoding="utf-8"?>
<!-- Generator: Adobe Illustrator 24.0.0, SVG Export Plug-In . SVG Version: 6.00 Build 0)  -->
<svg version="1.1" id="图层_1" xmlns="http://www.w3.org/2000/svg" xmlns:xlink="http://www.w3.org/1999/xlink" x="0px" y="0px"
	 viewBox="0 0 16 16" style="enable-background:new 0 0 16 16;" xml:space="preserve">
<style type="text/css">
	.st0{fill:#808080;}
	.st1{fill:none;stroke:#808080;stroke-miterlimit:10;}
</style>
<g>
	<path class="st0" d="M8,1c3.9,0,7,3.1,7,7s-3.1,7-7,7s-7-3.1-7-7S4.1,1,8,1 M8,0C3.6,0,0,3.6,0,8s3.6,8,8,8s8-3.6,8-8S12.4,0,8,0
		L8,0z"/>
</g>
<g id="图层_88">
	<g>
		<path class="st0" d="M11,7v5H5V7H11 M11,6H5C4.4,6,4,6.4,4,7v5c0,0.6,0.4,1,1,1h6c0.6,0,1-0.4,1-1V7C12,6.4,11.6,6,11,6L11,6z"/>
	</g>
	<path class="st1" d="M5.5,6.4C5.4,4.9,6.5,3.6,8,3.5c1.5,0.1,2.6,1.4,2.5,2.9"/>
</g>
<path class="st0" d="M8,11L8,11c-0.6,0-1-0.4-1-1V9c0-0.6,0.4-1,1-1h0c0.6,0,1,0.4,1,1v1C9,10.6,8.6,11,8,11z"/>
</svg>
