<?xml version="1.0" encoding="utf-8"?>
<!-- Generator: Adobe Illustrator 24.0.0, SVG Export Plug-In . SVG Version: 6.00 Build 0)  -->
<svg version="1.1" xmlns="http://www.w3.org/2000/svg" xmlns:xlink="http://www.w3.org/1999/xlink" x="0px" y="0px"
	 viewBox="0 0 16 16" style="enable-background:new 0 0 16 16;" xml:space="preserve">
<style type="text/css">
	.st0{fill:#808080;}
</style>
<g id="图层_3">
	<g>
		<path class="st0" d="M5.7,5L5.7,5c0.6,0,1.2,0.3,1.5,0.7L8,7.1l0.8-1.3C9.1,5.3,9.7,5,10.3,5C11.2,5,12,5.6,12,6.4
			c0,0.4-0.1,0.8-0.3,1.1C11,8.9,9.7,10.3,8,11.7c-1.7-1.4-3-2.8-3.7-4.2C4.1,7.1,4,6.8,4,6.4C4,5.6,4.8,5,5.7,5 M5.7,4
			C5.7,4,5.7,4,5.7,4C4.2,4,3,5,3,6.4C3,7,3.2,7.4,3.4,7.9C4.2,9.7,5.9,11.2,8,13c2.1-1.8,3.8-3.3,4.6-5.1C12.8,7.4,13,7,13,6.4
			C13,5,11.8,4,10.3,4c0,0,0,0-0.1,0C9.3,4,8.5,4.5,8,5.2C7.5,4.5,6.6,4,5.7,4L5.7,4z"/>
	</g>
</g>
<g id="图层_2">
	<g>
		<path class="st0" d="M8,1c3.9,0,7,3.1,7,7s-3.1,7-7,7s-7-3.1-7-7S4.1,1,8,1 M8,0C3.6,0,0,3.6,0,8s3.6,8,8,8s8-3.6,8-8S12.4,0,8,0
			L8,0z"/>
	</g>
</g>
</svg>
