<?xml version="1.0" encoding="utf-8"?>
<!-- Generator: Adobe Illustrator 24.0.0, SVG Export Plug-In . SVG Version: 6.00 Build 0)  -->
<svg version="1.1" id="图层_3" xmlns="http://www.w3.org/2000/svg" xmlns:xlink="http://www.w3.org/1999/xlink" x="0px" y="0px"
	 viewBox="0 0 16 16" style="enable-background:new 0 0 16 16;" xml:space="preserve">
<style type="text/css">
	.st0{fill:#808080;}
	.st1{fill:none;stroke:#808080;stroke-linecap:round;stroke-miterlimit:10;}
</style>
<g>
	<path class="st0" d="M8,1c3.9,0,7,3.1,7,7s-3.1,7-7,7s-7-3.1-7-7S4.1,1,8,1 M8,0C3.6,0,0,3.6,0,8s3.6,8,8,8s8-3.6,8-8S12.4,0,8,0
		L8,0z"/>
</g>
<path class="st1" d="M6.5,10.5h-2c-1.1,0-2-0.9-2-2v0c0-1.1,0.9-2,2-2h2"/>
<path class="st1" d="M9.5,6.5h2c1.1,0,2,0.9,2,2v0c0,1.1-0.9,2-2,2h-2"/>
<line class="st1" x1="5.5" y1="8.5" x2="10.5" y2="8.5"/>
</svg>
