<?xml version="1.0" encoding="utf-8"?>
<!-- Generator: Adobe Illustrator 24.0.0, SVG Export Plug-In . SVG Version: 6.00 Build 0)  -->
<svg version="1.1" id="图层_1" xmlns="http://www.w3.org/2000/svg" xmlns:xlink="http://www.w3.org/1999/xlink" x="0px" y="0px"
	 viewBox="0 0 96 96" enable-background="new 0 0 96 96" xml:space="preserve">
<title>amule22</title>
<path fill="#FFFFFF" d="M15,6h66c5,0,9,4,9,9v66c0,5-4,9-9,9H15c-5,0-9-4-9-9V15C6,10,10,6,15,6z"/>
<linearGradient id="SVGID_1_" gradientUnits="userSpaceOnUse" x1="14.83" y1="50.45" x2="23.52" y2="50.45">
	<stop  offset="1.000000e-02" style="stop-color:#7E4115"/>
	<stop  offset="0.96" style="stop-color:#A86328"/>
</linearGradient>
<polygon fill="url(#SVGID_1_)" points="23.5,49 21.6,39.1 21.6,49 17.8,44.8 21.6,52.3 14.8,52.9 20.5,55.8 17.8,61.8 23.5,59 "/>
<linearGradient id="SVGID_2_" gradientUnits="userSpaceOnUse" x1="32.75" y1="59.1" x2="32.75" y2="16.45">
	<stop  offset="1.000000e-02" style="stop-color:#7E4115"/>
	<stop  offset="0.5" style="stop-color:#A86328"/>
</linearGradient>
<path fill="url(#SVGID_2_)" d="M28,28.6c-3.5,8.6-3.7,23.9-3.7,30.5c2.8-4,9.5-17.1,15.2-29.2l1.7-13.4C38,17.8,30.8,21.7,28,28.6z"
	/>
<path fill="#7C4028" d="M42,14.1c-0.5,0.2-11.8,4.1-15.8,13.8s-3.9,26.9-3.9,32.6c0,1.1,0.6,1.5,1,1.5c0.1,0,0.2,0,0.2,0
	c1,0,3.8-2.1,17.7-31.5l2.2-17L42,14.1z M24.3,59.1c0-6.6,0.3-21.9,3.7-30.5c2.8-7,10-10.8,13.1-12.2l-1.7,13.5
	C33.7,42,27,55.2,24.3,59.1L24.3,59.1z"/>
<linearGradient id="SVGID_3_" gradientUnits="userSpaceOnUse" x1="21.38" y1="66" x2="47" y2="66">
	<stop  offset="1.000000e-02" style="stop-color:#7E4115"/>
	<stop  offset="0.44" style="stop-color:#A86328"/>
</linearGradient>
<path fill="url(#SVGID_3_)" d="M21.9,79.1c2,0.9,14,1.4,25.1,1.4v-29H23.6C21.5,60.5,20.9,69.8,21.9,79.1z"/>
<linearGradient id="SVGID_4_" gradientUnits="userSpaceOnUse" x1="19.8929" y1="66.2" x2="48.8756" y2="66.2">
	<stop  offset="1.000000e-02" style="stop-color:#723621"/>
	<stop  offset="0.44" style="stop-color:#A86328"/>
</linearGradient>
<path fill="url(#SVGID_4_)" d="M22.6,50.1l-0.2,0.7c-2.4,9.4-3.1,19.2-2,28.8c0.1,0.9,0.3,2.7,27.5,2.7h0.9V50.1H22.6z M47,80.5
	c-11,0-22.7-0.6-24.7-1.4C21.3,70,21.9,60.9,24,52h23V80.5z"/>
<radialGradient id="SVGID_5_" cx="209.09" cy="118.33" r="38.54" fx="192.3045" fy="137.948" gradientTransform="matrix(0.79 0 0 0.79 -114.91 -44.21)" gradientUnits="userSpaceOnUse">
	<stop  offset="0" style="stop-color:#C69C6D"/>
	<stop  offset="0.63" style="stop-color:#A86328"/>
</radialGradient>
<path fill="url(#SVGID_5_)" d="M58.2,44.8c-1.8-3.7-3.2-6-5.6-5.2c-0.8,0.3-2,0.7-2.4-0.4c-0.8-2.3,18.2-10.6,19.1-10.9
	c4.9-1.6,7.5-3.7,7.5-4.6c0-0.3-0.4-0.7-1.7-1.2c-2.6-0.7-5.2-1.1-7.9-1c-6.9,0-15.9,1.7-22,6.5c-1.3,1.1-2.8,2.1-4.4,3.3
	c-9.2,6.7-20.7,15-16.4,31.8C28,77.7,39.6,77.6,47.8,76.3c-0.1-0.2-0.2-0.4-0.2-0.6c-0.3-1.3,1.1-2.5,2.7-3.5
	c5.8-3.9,8.9-9.2,8.9-12.3s1.9-8.1,2.6-10.1v-0.1C60.3,49,59.3,47,58.2,44.8z"/>
<path fill="#7C4028" d="M75.7,20.8c-6.2-2-22-1.8-31.7,5.9c-1.3,1-2.8,2.1-4.3,3.2C30,36.8,18,45.5,22.5,63.6
	c3.1,12.3,11.4,15.1,19,15.1c2.9,0,5.8-0.4,8.7-1c-0.6-0.2-1.1-0.4-1.6-0.7c-0.4-0.2-0.7-0.5-0.9-0.8c-8.1,1.4-19.7,1.4-23.4-13.1
	C20.1,46.3,31.6,38,40.8,31.4c1.6-1.1,3.1-2.2,4.4-3.3c6.1-4.8,15.1-6.5,22-6.5c2.7-0.1,5.3,0.3,7.9,1c1.3,0.4,1.7,0.9,1.7,1.2
	c0,0.9-2.6,3-7.5,4.6c-0.9,0.3-19.8,8.5-19.1,10.9c0.3,1.1,1.6,0.7,2.4,0.4c2.3-0.8,3.7,1.6,5.6,5.2c1.1,2.1,2.2,4.1,3.6,4.9
	c0.1-0.3,0.3-0.6,0.6-0.8s0.7-0.4,1.1-0.4c1.2,0,2.3,0,3.5,0.1c-1.3-0.3-2.5-0.5-3.8-0.5C62.1,48.2,61,46,60,44
	c-1.3-2.6-2.9-5.6-5.4-6.3c4-2.4,11.7-6.3,15.4-7.6c1.5-0.5,8.8-3.1,8.8-6.4C78.8,22.4,77.7,21.4,75.7,20.8z"/>
<linearGradient id="SVGID_6_" gradientUnits="userSpaceOnUse" x1="50.925" y1="79.425" x2="75.9094" y2="54.4406">
	<stop  offset="0.16" style="stop-color:#B3B3B3"/>
	<stop  offset="0.74" style="stop-color:#F2F2F2"/>
</linearGradient>
<path fill="url(#SVGID_6_)" d="M76.1,54.8c-0.7-1-1.6-1.8-2.7-2.4c-0.9-0.5-2-0.9-3-1.2c-1.2-0.3-2.5-0.5-3.7-0.6
	c-1.2-0.3-2.4-0.5-3.6-0.5c-0.1,0-0.2,0-0.3,0c-0.3,0-0.6-0.1-0.9-0.3v0.1c-0.8,2-2.6,6.9-2.6,10.1s-3.2,8.4-8.9,12.3
	c-1.5,1-2.9,2.2-2.7,3.5c0,0.2,0.1,0.4,0.2,0.6l1.1-0.2l1.4-0.3c0.5,0.2,1.3,0.3,2,0.5l2,0.4l0.3,0.1c1.2,0.3,2.5,0.5,3.9,0.9
	c5.1,1.3,7.3,1.7,10.9-0.2c1.8-1,3.5-2.1,5.1-3.4c0.4-0.3,0.8-0.6,1.2-1C81,68,79.7,60.2,76.1,54.8z"/>
<path fill="#FFFFFF" d="M52.4,51.3c0.8-1,2-1.7,3.4-1.9c-0.1-0.5-0.3-1-0.5-1.4c-1.5-3.7-4.7-4.9-8.5-4.3c-11.7,2.1-2.2,13.5,5,13.1
	C50.7,55.1,50.9,52.8,52.4,51.3z"/>
<path fill="#212020" d="M54.7,55.8c1.3-1,2-3.2,1-6.4c-1.3,0.2-2.5,0.9-3.4,1.9c-1.4,1.5-1.7,3.7-0.6,5.5
	C52.8,56.8,53.8,56.4,54.7,55.8z"/>
<linearGradient id="SVGID_7_" gradientUnits="userSpaceOnUse" x1="60.5463" y1="79.7437" x2="75.3563" y2="51.2837">
	<stop  offset="0" style="stop-color:#7C4028"/>
	<stop  offset="0.27" style="stop-color:#4D4D4D"/>
	<stop  offset="0.65" style="stop-color:#4D4D4D"/>
</linearGradient>
<path fill="url(#SVGID_7_)" d="M77.7,53.8c-2.4-3.6-7.2-4.7-10.8-5c-1.2-0.1-2.3-0.1-3.5-0.1c-0.4,0-0.8,0.2-1.1,0.4
	s-0.5,0.5-0.6,0.8c0.3,0.2,0.6,0.3,0.9,0.3c0.1,0,0.2,0,0.3,0c1.2,0,2.4,0.2,3.6,0.5c1.3,0.1,2.5,0.3,3.7,0.6c1,0.3,2.1,0.7,3,1.2
	c1.1,0.6,2,1.4,2.7,2.4c3.6,5.4,4.8,13.2-0.5,18.2c-0.4,0.4-0.8,0.7-1.2,1c-1.3,1-2.7,2-4.1,2.8c-2.6,0.3-4.6,0-5.9-1.1
	c-0.8-0.7-1.4-1.8-1.4-2.9h-1.9c0.1,1.6,0.8,3.2,2,4.3c0.8,0.7,1.8,1.2,2.9,1.4c-2.1,0.4-4.3-0.1-7.7-1c-1.4-0.3-2.7-0.6-3.9-0.9
	l-0.3-0.1l-2-0.4c-0.8-0.2-1.5-0.4-2-0.5l-1,0.3l-1.1,0.2c0.2,0.3,0.5,0.6,0.9,0.8c0.5,0.3,1,0.5,1.6,0.7c1,0.3,2.2,0.6,3.7,0.9
	c1.2,0.3,2.6,0.6,4,0.9c2.2,0.6,4.5,1,6.8,1.1c3.3,0,6-1.4,10.9-5C83.3,69.9,82.1,60.3,77.7,53.8z"/>
<ellipse transform="matrix(0.3633 -0.9317 0.9317 0.3633 -11.6701 97.2442)" fill="#383635" cx="65.3" cy="57.2" rx="2.4" ry="3.2"/>
</svg>
