<?xml version="1.0" encoding="utf-8"?>
<!-- Generator: Adobe Illustrator 24.0.0, SVG Export Plug-In . SVG Version: 6.00 Build 0)  -->
<svg version="1.1" id="档案管理" xmlns="http://www.w3.org/2000/svg" xmlns:xlink="http://www.w3.org/1999/xlink" x="0px"
	 y="0px" viewBox="0 0 128 128" enable-background="new 0 0 128 128" xml:space="preserve">
<title>128</title>
<g id="_128">
	
		<linearGradient id="SVGID_1_" gradientUnits="userSpaceOnUse" x1="82" y1="32" x2="118" y2="32" gradientTransform="matrix(1 0 0 1 0 32)">
		<stop  offset="0" style="stop-color:#689F38"/>
		<stop  offset="1" style="stop-color:#76B438"/>
	</linearGradient>
	<path fill="url(#SVGID_1_)" d="M91,8h18c5,0,9,4,9,9v94c0,5-4,9-9,9H91c-5,0-9-4-9-9V17C82,12,86,8,91,8z"/>
	<path opacity="0.6" fill="#F9F9F9" enable-background="new    " d="M92.5,88h15c0.8,0,1.5,0.7,1.5,1.5l0,0c0,0.8-0.7,1.5-1.5,1.5
		h-15c-0.8,0-1.5-0.7-1.5-1.5l0,0C91,88.7,91.7,88,92.5,88z"/>
	<path opacity="0.6" fill="#F9F9F9" enable-background="new    " d="M92.5,81h15c0.8,0,1.5,0.7,1.5,1.5l0,0c0,0.8-0.7,1.5-1.5,1.5
		h-15c-0.8,0-1.5-0.7-1.5-1.5l0,0C91,81.7,91.7,81,92.5,81z"/>
	<path opacity="0.6" fill="#F9F9F9" enable-background="new    " d="M92.5,74h15c0.8,0,1.5,0.7,1.5,1.5l0,0c0,0.8-0.7,1.5-1.5,1.5
		h-15c-0.8,0-1.5-0.7-1.5-1.5l0,0C91,74.7,91.7,74,92.5,74z"/>
	<path opacity="0.6" fill="#F9F9F9" enable-background="new    " d="M95,17h10c2.2,0,4,1.8,4,4v45c0,2.2-1.8,4-4,4H95
		c-2.2,0-4-1.8-4-4V21C91,18.8,92.8,17,95,17z"/>
	<circle opacity="0.3" enable-background="new    " cx="100" cy="105" r="9"/>
	
		<linearGradient id="SVGID_2_" gradientUnits="userSpaceOnUse" x1="46" y1="32" x2="82" y2="32" gradientTransform="matrix(1 0 0 1 0 32)">
		<stop  offset="0" style="stop-color:#D32F2F"/>
		<stop  offset="0.99" style="stop-color:#E2674B"/>
	</linearGradient>
	<path fill="url(#SVGID_2_)" d="M55,8h18c5,0,9,4,9,9v94c0,5-4,9-9,9H55c-5,0-9-4-9-9V17C46,12,50,8,55,8z"/>
	<path opacity="0.6" fill="#F9F9F9" enable-background="new    " d="M56.5,88h15c0.8,0,1.5,0.7,1.5,1.5l0,0c0,0.8-0.7,1.5-1.5,1.5
		h-15c-0.8,0-1.5-0.7-1.5-1.5l0,0C55,88.7,55.7,88,56.5,88z"/>
	<path opacity="0.6" fill="#F9F9F9" enable-background="new    " d="M56.5,81h15c0.8,0,1.5,0.7,1.5,1.5l0,0c0,0.8-0.7,1.5-1.5,1.5
		h-15c-0.8,0-1.5-0.7-1.5-1.5l0,0C55,81.7,55.7,81,56.5,81z"/>
	<path opacity="0.6" fill="#F9F9F9" enable-background="new    " d="M56.5,74h15c0.8,0,1.5,0.7,1.5,1.5l0,0c0,0.8-0.7,1.5-1.5,1.5
		h-15c-0.8,0-1.5-0.7-1.5-1.5l0,0C55,74.7,55.7,74,56.5,74z"/>
	<path opacity="0.6" fill="#F9F9F9" enable-background="new    " d="M59,17h10c2.2,0,4,1.8,4,4v45c0,2.2-1.8,4-4,4H59
		c-2.2,0-4-1.8-4-4V21C55,18.8,56.8,17,59,17z"/>
	<circle opacity="0.3" enable-background="new    " cx="64" cy="105" r="9"/>
	
		<linearGradient id="SVGID_3_" gradientUnits="userSpaceOnUse" x1="10" y1="32" x2="46" y2="32" gradientTransform="matrix(1 0 0 1 0 32)">
		<stop  offset="0" style="stop-color:#0288D1"/>
		<stop  offset="0.99" style="stop-color:#00A5D1"/>
	</linearGradient>
	<path fill="url(#SVGID_3_)" d="M19,8h18c5,0,9,4,9,9v94c0,5-4,9-9,9H19c-5,0-9-4-9-9V17C10,12,14,8,19,8z"/>
	<path opacity="0.6" fill="#F9F9F9" enable-background="new    " d="M20.5,88h15c0.8,0,1.5,0.7,1.5,1.5l0,0c0,0.8-0.7,1.5-1.5,1.5
		h-15c-0.8,0-1.5-0.7-1.5-1.5l0,0C19,88.7,19.7,88,20.5,88z"/>
	<path opacity="0.6" fill="#F9F9F9" enable-background="new    " d="M20.5,81h15c0.8,0,1.5,0.7,1.5,1.5l0,0c0,0.8-0.7,1.5-1.5,1.5
		h-15c-0.8,0-1.5-0.7-1.5-1.5l0,0C19,81.7,19.7,81,20.5,81z"/>
	<path opacity="0.6" fill="#F9F9F9" enable-background="new    " d="M20.5,74h15c0.8,0,1.5,0.7,1.5,1.5l0,0c0,0.8-0.7,1.5-1.5,1.5
		h-15c-0.8,0-1.5-0.7-1.5-1.5l0,0C19,74.7,19.7,74,20.5,74z"/>
	<path opacity="0.6" fill="#F9F9F9" enable-background="new    " d="M23,17h10c2.2,0,4,1.8,4,4v45c0,2.2-1.8,4-4,4H23
		c-2.2,0-4-1.8-4-4V21C19,18.8,20.8,17,23,17z"/>
	<circle opacity="0.3" enable-background="new    " cx="28" cy="105" r="9"/>
</g>
</svg>
