<?xml version="1.0" encoding="utf-8"?>
<!-- Generator: Adobe Illustrator 24.0.0, SVG Export Plug-In . SVG Version: 6.00 Build 0)  -->
<svg version="1.1" id="图层_1" xmlns="http://www.w3.org/2000/svg" xmlns:xlink="http://www.w3.org/1999/xlink" x="0px" y="0px"
	 viewBox="0 0 128 128" enable-background="new 0 0 128 128" xml:space="preserve">
<title>cherrytree128</title>
<path fill="#4CAF50" d="M39.3,36.1c0,0,2.3-12,12.7-18.9s26-3.9,26-3.9s-2.3,13.5-13,19.8S39.3,36.1,39.3,36.1z"/>
<path fill="#B7152C" d="M66.1,63.8c-2.1-4.3-5.7-7.5-10.2-9.2c-0.1,0.5-0.3,1-0.5,1.4c-1.8,3.4-6.7,4.3-11,2s-6.2-6.8-4.4-10.1
	c0,0,0.1-0.1,0.1-0.2c-3.5-1.9-7.5-2.9-11.5-2.9c-12,0.3-20.4,10.3-22.8,20.4c-3.5,14.9,5,39.3,23.3,41.8
	c21,6.2,34.4-12.5,37.9-22.1C69.7,78,69.4,70.4,66.1,63.8z"/>
<path fill="#8E0913" d="M44.5,58.1c4.3,2.3,9.2,1.3,11-2c0.2-0.5,0.4-0.9,0.5-1.4c-2.6-1-5.4-1.5-8.3-1.6c-2.4-2-5-3.8-7.7-5.3
	c0,0.1,0,0.1-0.1,0.2C38.2,51.3,40.2,55.8,44.5,58.1z"/>
<linearGradient id="SVGID_1_" gradientUnits="userSpaceOnUse" x1="17.9121" y1="45.4769" x2="32.0276" y2="21.0348" gradientTransform="matrix(1 0 0 1 0 32)">
	<stop  offset="0.32" style="stop-color:#B7152C"/>
	<stop  offset="1" style="stop-color:#EF3349"/>
</linearGradient>
<path fill="url(#SVGID_1_)" d="M31.2,52.8c10.8,10,5.5,17.3,2.1,21.9s-10.1,6.5-14.2,3.4s-6.8-16.6-3.4-21.2S26.3,48.2,31.2,52.8z"
	/>
<path fill="#CC2330" d="M118.7,67.1c-2.7-4.1-7-7-11.8-8c0,0.5-0.1,1.1-0.3,1.6c-1.3,3.7-6.3,5.4-11,3.7c-2.6-0.9-4.7-2.7-5.9-5.1
	c-0.6-1.2-0.7-2.5-0.5-3.8c0.1-0.3,0.1-0.6,0.2-0.9l0.1-0.2c-3.9-1.5-8.2-1.9-12.3-1.3c-12.3,2.1-19.4,14.7-20.8,25.5
	c-2.4,18.6,6.5,32.7,20.3,37.1c1.2,0.4,2.4,0.7,3.6,0.9c2.1,0.4,4.3,0.6,6.5,0.6c22.5,3.4,34.1-10.5,36-28.3
	C123.7,79.5,122.1,72.2,118.7,67.1z"/>
<path fill="#8E0913" d="M95.5,64.4c4.7,1.7,9.7,0.1,11-3.7c0.2-0.5,0.3-1,0.3-1.6c-2.9-0.6-5.8-0.8-8.7-0.4
	c-2.7-1.8-5.7-3.2-8.7-4.3l-0.1,0.2C88,58.3,90.8,62.7,95.5,64.4z"/>
<path fill="#296D29" d="M99,53.5c-2.4-20.3-13.8-33.7-18-35.1s1.8-7.1,0.6-7.4c-2.3-0.5-4.8-1.4-5.7-0.3s0.7,1.8,0.5,3.8
	c-0.4,1.3-1.3,2.4-2.4,3.1c-5.8,2.3-11,5.9-15.2,10.5c-5.2,6-17.8,27.4-11.9,28.1c0,0,0-7.5,11.8-23.7c7-9.6,15.8-14.2,20.3-12.7
	c5.5,1.7,16.7,15.5,18.3,39.2C97.6,63.3,100,62.3,99,53.5z"/>
<path fill="#81C784" d="M101.2,34.9c0,0-8.5,1.2-15.4-4.2s-8.4-16.4-8.4-16.4s9.5-1.5,16,4.2S101.2,34.9,101.2,34.9z"/>
<linearGradient id="SVGID_2_" gradientUnits="userSpaceOnUse" x1="70.9991" y1="60.0353" x2="88.0713" y2="30.4643" gradientTransform="matrix(1 0 0 1 0 32)">
	<stop  offset="0.32" style="stop-color:#CC2330"/>
	<stop  offset="1" style="stop-color:#EF3349"/>
</linearGradient>
<path fill="url(#SVGID_2_)" d="M95.8,79.7c0-9.5-7.1-17.9-15.3-21.4s-19.1,9.8-17.9,19.5C63.6,86.9,71.5,95,80,95
	S95.8,89.2,95.8,79.7z"/>
</svg>
