<?xml version="1.0" encoding="utf-8"?>
<!-- Generator: Adobe Illustrator 24.0.0, SVG Export Plug-In . SVG Version: 6.00 Build 0)  -->
<svg version="1.1" id="图层_1" xmlns="http://www.w3.org/2000/svg" xmlns:xlink="http://www.w3.org/1999/xlink" x="0px" y="0px"
	 viewBox="0 0 128 128" enable-background="new 0 0 128 128" xml:space="preserve">
<title>devede-112</title>
<circle fill="#E0E0E0" cx="64" cy="64" r="56"/>
<linearGradient id="SVGID_1_" gradientUnits="userSpaceOnUse" x1="41.4821" y1="-22.89" x2="118.4657" y2="54.0936" gradientTransform="matrix(1 0 0 1 0 32)">
	<stop  offset="0" style="stop-color:#D3AAFF;stop-opacity:0.5"/>
	<stop  offset="6.000000e-02" style="stop-color:#D2B3F9;stop-opacity:0.47"/>
	<stop  offset="0.15" style="stop-color:#D1CCE9;stop-opacity:0.38"/>
	<stop  offset="0.27" style="stop-color:#CEF4CE;stop-opacity:0.24"/>
	<stop  offset="0.3" style="stop-color:#CDFFC7;stop-opacity:0.2"/>
	<stop  offset="0.51" style="stop-color:#FFFFFF;stop-opacity:0.5"/>
	<stop  offset="0.7" style="stop-color:#D3FFB4;stop-opacity:0.5"/>
	<stop  offset="0.89" style="stop-color:#FFCCB7;stop-opacity:0.5"/>
</linearGradient>
<path fill="url(#SVGID_1_)" d="M118.8,64c0,0.3,0,0.6,0,0.9l0,0c-0.1,3.6-0.5,7.3-1.3,10.8l-0.2,0.8c-1.7,7.2-4.8,13.9-9.2,19.8
	L83.7,78.6l-19.4-14l-0.7-0.5l-0.3-0.2l-16-11.6L19.5,32.2l0.4-0.6C37.8,7.2,72.1,2,96.5,19.9c8.6,6.4,15.2,15.1,18.9,25.2
	c0,0.1,0.1,0.2,0.1,0.3C117.7,51.3,118.8,57.6,118.8,64z"/>
<linearGradient id="SVGID_2_" gradientUnits="userSpaceOnUse" x1="24.9174" y1="-3.0849" x2="82.8274" y2="97.2351" gradientTransform="matrix(1 0 0 1 0 32)">
	<stop  offset="0" style="stop-color:#AAC9FF;stop-opacity:0.2"/>
	<stop  offset="3.000000e-02" style="stop-color:#ABC6FF;stop-opacity:0.24"/>
	<stop  offset="9.000000e-02" style="stop-color:#AEBEFF;stop-opacity:0.34"/>
	<stop  offset="0.16" style="stop-color:#B3B2FF;stop-opacity:0.5"/>
	<stop  offset="0.23" style="stop-color:#B9A2FF;stop-opacity:0.7"/>
	<stop  offset="0.49" style="stop-color:#FFFFFF;stop-opacity:0.8"/>
	<stop  offset="0.7" style="stop-color:#FFD9D5;stop-opacity:0.7"/>
	<stop  offset="0.99" style="stop-color:#FFD9AA;stop-opacity:0.5"/>
</linearGradient>
<path fill="url(#SVGID_2_)" d="M108.2,96.4l-0.5,0.7l-0.2,0.2c-18.4,24-52.8,28.5-76.8,10.1c-8.3-6.4-14.7-15.1-18.2-25
	c0-0.1-0.1-0.2-0.1-0.2c-2.1-5.9-3.2-12-3.2-18.2c0-0.3,0-0.6,0-1c0-0.2,0-0.3,0-0.4c0.3-11,3.9-21.6,10.2-30.5l27.8,20.2l16,11.6
	l0.3,0.2l0.7,0.5l19.4,14L108.2,96.4z"/>
<path fill="#9E9E9E" d="M89.4,63c0,0.5,0,1,0,1.5c-0.1,1.6-0.3,3.2-0.7,4.8c-3.4,13.6-17.2,21.9-30.8,18.5
	C46.6,85,38.7,74.9,38.7,63.3c0-0.1,0-0.1,0-0.2c0-1.4,0.1-2.7,0.3-4.1c2.4-13.8,15.6-23,29.4-20.6C80.4,40.5,89.2,50.8,89.4,63z"/>
<circle fill="#FFFFFF" cx="64" cy="64" r="10"/>
<path opacity="0.59" fill="#FFFFFF" enable-background="new    " d="M42.9,49c-2,3-3.3,6.4-3.9,9.9l-28.5-6.4
	c1.6-7.3,4.6-14.3,9-20.4l0.4-0.6C25.6,36,33.7,42,42.9,49z"/>
<path opacity="0.59" fill="#FFFFFF" enable-background="new    " d="M117.5,75.8l-0.2,0.8c-1.7,7.2-4.8,13.9-9.2,19.8l-0.5,0.7
	c-7.2-5.3-15.4-11.4-24.1-17.8c2.4-2.9,4.2-6.3,5.1-10L117.5,75.8z"/>
<path opacity="0.59" fill="#FFFFFF" enable-background="new    " d="M40.4,72.4l-28,10.1c0-0.1-0.1-0.2-0.1-0.2
	c-2.1-5.9-3.1-12-3.1-18.2c0-0.3,0-0.6,0-1c0-0.2,0-0.3,0-0.4c6.6,0.2,17.1,0.4,29.4,0.7C38.6,66.3,39.2,69.5,40.4,72.4z"/>
<path opacity="0.59" fill="#FFFFFF" enable-background="new    " d="M118.8,64c0,0.3,0,0.6,0,0.9l-29.4-0.4c0-0.5,0-1,0-1.5
	c0-2.8-0.4-5.6-1.4-8.3l27.5-9.4C117.7,51.3,118.8,57.6,118.8,64z"/>
<path fill="#004D40" d="M9,93.5h4.3c2.1-0.1,4.3,0.1,6.4,0.7c1.3,0.4,2.4,1.1,3.4,2s1.7,2.1,2.2,3.3c0.5,1.5,0.8,3,0.8,4.6
	c0,1.7-0.4,3.4-1.1,4.9s-1.9,2.7-3.3,3.6c-1.9,1-4,1.4-6.2,1.3H9V93.5z M11.3,111.5h2.1c1.7,0,3.4-0.1,5.1-0.4c1-0.2,2-0.7,2.8-1.4
	c0.8-0.7,1.4-1.5,1.8-2.5c0.9-2.3,0.8-4.8-0.1-7c-0.5-1.1-1.2-2-2.1-2.7s-2-1.2-3.2-1.4c-1.7-0.3-3.5-0.4-5.2-0.3h-1.2L11.3,111.5z"
	/>
<path fill="#004D40" d="M44.1,106.6H30.9c0,1.5,0.6,2.9,1.7,4c1,1,2.3,1.5,3.7,1.5c2.4,0,4.6-1.4,5.5-3.6l1.9,1
	c-0.7,1.4-1.8,2.7-3.1,3.6c-1.3,0.8-2.7,1.2-4.2,1.2c-2.1,0.1-4.2-0.8-5.6-2.3c-3-3.2-3-8.1,0-11.3c1.4-1.5,3.4-2.4,5.5-2.4
	c2.1,0,4.1,0.8,5.5,2.2C43.4,102.1,44.2,104.3,44.1,106.6z M41.6,104.6c-0.2-1.2-0.9-2.3-1.9-3s-2.2-1.1-3.4-1.1
	c-2.6,0-4.3,1.4-5.1,4.1H41.6z"/>
<path fill="#004D40" d="M64.1,93.5l-8.8,20.8h-0.6L46,93.5h2.5l6.5,15.6l6.6-15.6H64.1z"/>
<path fill="#004D40" d="M81.5,106.6H68.3c0,1.5,0.6,2.9,1.7,4c1,1,2.3,1.5,3.7,1.5c2.4,0,4.6-1.4,5.5-3.6l1.9,1
	c-0.7,1.4-1.7,2.7-3,3.6c-1.3,0.8-2.7,1.2-4.2,1.2c-2.1,0.1-4.2-0.8-5.6-2.3c-3-3.2-3-8.1,0-11.3c1.4-1.5,3.4-2.4,5.5-2.4
	c2.1-0.1,4,0.8,5.5,2.2C80.7,102.1,81.5,104.3,81.5,106.6z M78.9,104.6c-0.2-1.2-0.9-2.3-1.9-3s-2.2-1.1-3.4-1.1
	c-2.6,0-4.3,1.4-5.1,4.1H78.9z"/>
<path fill="#004D40" d="M84.9,93.5h4.3c2.1-0.1,4.3,0.1,6.3,0.7c1.3,0.4,2.5,1.1,3.4,2c1,0.9,1.7,2.1,2.2,3.3c0.5,1.5,0.8,3,0.8,4.6
	c0,1.7-0.4,3.4-1.2,4.9c-0.7,1.5-1.9,2.7-3.3,3.6c-1.9,1-4,1.4-6.2,1.3h-6.5V93.5H84.9z M87.2,111.5h2.1c1.7,0.1,3.4-0.1,5.1-0.4
	c1-0.2,2-0.7,2.8-1.4c0.8-0.7,1.4-1.5,1.8-2.5c0.9-2.3,0.8-4.8-0.1-7c-0.5-1.1-1.2-2-2.1-2.7s-2-1.2-3.2-1.4
	c-1.7-0.3-3.5-0.4-5.2-0.3h-1.2L87.2,111.5L87.2,111.5z"/>
<path fill="#004D40" d="M120,106.6h-13.2c0,1.5,0.6,2.9,1.7,4c1,1,2.3,1.5,3.7,1.5c2.4,0,4.6-1.4,5.5-3.6l1.9,1
	c-0.7,1.4-1.8,2.7-3.1,3.6c-1.3,0.8-2.7,1.2-4.2,1.2c-2.1,0.1-4.2-0.8-5.6-2.3c-3-3.2-3-8.1,0-11.3c1.4-1.5,3.4-2.4,5.5-2.4
	s4.1,0.8,5.5,2.2C119.2,102.1,120.1,104.3,120,106.6z M117.5,104.6c-0.2-1.2-0.9-2.3-1.9-3s-2.2-1.1-3.4-1.1c-2.6,0-4.3,1.4-5.1,4.1
	H117.5z"/>
</svg>
