<?xml version="1.0" encoding="utf-8"?>
<!-- Generator: Adobe Illustrator 24.0.0, SVG Export Plug-In . SVG Version: 6.00 Build 0)  -->
<svg version="1.1" id="图层_1" xmlns="http://www.w3.org/2000/svg" xmlns:xlink="http://www.w3.org/1999/xlink" x="0px" y="0px"
	 viewBox="0 0 128 128" enable-background="new 0 0 128 128" xml:space="preserve">
<title>diffuse128</title>
<path fill="#9BA560" d="M40.8,89.4c-3.2-0.2-9.9-2.4-16.5-4.8c-2.6,0-5.5-0.1-7.9-0.3c-2.8-0.2-5.6-0.5-8.4-1V93
	c0.4-0.4,1.1-0.4,1.5,0c2.8,2.5,13.5-5.1,15.5,0.8c1.3,3.8,10.7-1.2,17.5-4.1C41.9,89.6,41.3,89.5,40.8,89.4z"/>
<path fill="#AED581" d="M98,118.5c-5.2-0.8-2.5-0.4-2.5-1.2s5-1.9,7.2-4s3-1.5,2.3-3.3c-0.5-1.5,4.1,1.2,7.4,1.8l-0.3-0.2
	c-13.2-9.4-14.3-14.5-27.2-14c-8.8,0.3-22.4-3.3-32.6-5.8c4,4.4,10.5,10.7,10.7,13.7c0.3,4.1,6.1,7.4,4.3,13.2
	c-0.1,0.4-0.2,0.8-0.2,1.3h40.6c0.5,0,1,0,1.4-0.1c-0.7,0-1.3,0-1.9-0.1C104.2,119.5,101.1,119.1,98,118.5z"/>
<path fill="#B2EBF2" d="M38,50.8h10c0,0,14-1.3,17.6,0s9.9,1,11.7,0c1.4-0.8,30.1,2.1,42.8,3.5v-34c0-6.7-5.5-12.2-12.2-12.2l0,0
	H20.2C13.5,8,8,13.5,8,20.2V52l8.6-5.6L38,50.8z"/>
<path fill="#5A6340" d="M13.6,62.2C14.1,64.5,23,60.7,24,64c1,3.3,23.4-2,23.4-2s18.1,12.5,30.3,10.9s-0.5-13.8,7.9-13
	s24.4,4.6,24.9,6.6c0.2,0.9,4.6,2.6,9.4,4.4V54.2c-12.6-1.3-41.3-4.2-42.7-3.5c-1.8,1-8.2,1.3-11.7,0s-17.6,0-17.6,0H38l-21.4-4.3
	L8,52v13.4C10.7,63.1,13.4,61.1,13.6,62.2z"/>
<path fill="#767D46" d="M120,71c-4.8-1.8-9.2-3.5-9.4-4.4c-0.5-2-16.5-5.9-24.9-6.6s4.3,11.5-7.9,13S47.5,62,47.5,62S25,67.3,24,64
	s-9.9,0.5-10.4-1.8c-0.3-1.1-2.9,0.9-5.6,3.2v12.8c5.8,2.4,26.3,10.9,32.9,11.3c7.6,0.5,31,8.7,44,8.2s14,4.6,27.2,14
	c1.7,1.4,3.7,2.3,5.9,2.9c1.3-2,2-4.3,2-6.7L120,71z"/>
<linearGradient id="SVGID_1_" gradientUnits="userSpaceOnUse" x1="48.3" y1="73.73" x2="48.3" y2="36.9011" gradientTransform="matrix(1 0 0 1 0 32)">
	<stop  offset="0" style="stop-color:#E09652"/>
	<stop  offset="1" style="stop-color:#C1723D"/>
</linearGradient>
<path fill="url(#SVGID_1_)" d="M46,74.4c0,0-0.6,7.3-0.6,8.7s0.6,4,0.6,6.9c-0.1,2.4-0.3,4.9-0.6,7.3l-0.6,5.7l1,2.8l1.6-1l-0.6-2.4
	l1.6-10.5c0,0-0.2-6.7,2.1-7.8c1.1-0.5,1.3-10.8,1.3-13.2s-2.6-2-3.6-1.4S46,74.4,46,74.4z"/>
<polygon fill="#8A5E3F" points="47.4,104.7 45.8,105.7 45.8,106.3 48.6,106.3 "/>
<linearGradient id="SVGID_2_" gradientUnits="userSpaceOnUse" x1="71.93" y1="50.15" x2="77.51" y2="50.15" gradientTransform="matrix(1 0 0 1 0 32)">
	<stop  offset="0" style="stop-color:#E09652"/>
	<stop  offset="1" style="stop-color:#C1723D"/>
</linearGradient>
<path fill="url(#SVGID_2_)" d="M74.3,69.8c0.4,1.4-0.6,7.1-1.4,9.3c-0.6,2.5-0.9,5-0.9,7.6c0.3,2.4,0.5,5.3,0.5,5.9
	c0,1.1,1.4,11.7,1.8,12.2h1.8c0,0-1.1-5.8-1.1-7s-0.5-4.7-0.5-4.7s0.2-5,0.5-7s0-4.1,0.4-7.4s2.3-5.6,2.2-9.2s-1.4-9-1.4-10
	c-0.5,1-1.5,2.8-1.8,3.3C73.8,63.7,73.8,68.3,74.3,69.8z"/>
<path fill="#E09652" d="M67.2,72c-0.5,1.3,0.6,4.9,1.2,7c1-0.5,1.9-1.2,2.7-2.1c0,0,0.4,4.7,0.5,6.3c0.1,0.6,0.2,1.9,0.4,3.4
	c0-2.6,0.3-5.1,0.9-7.6c0.8-2.2,1.8-7.9,1.4-9.3s-0.4-6.1,0-6.9c0.3-0.6,1.3-2.4,1.8-3.3l0,0c0-0.1,0-0.3,0.1-0.4l-13.8,9L67.2,72z"
	/>
<linearGradient id="SVGID_3_" gradientUnits="userSpaceOnUse" x1="60.675" y1="37.825" x2="96.805" y2="73.955" gradientTransform="matrix(1 0 0 1 0 32)">
	<stop  offset="0" style="stop-color:#E09652"/>
	<stop  offset="1" style="stop-color:#F7AE72"/>
</linearGradient>
<path fill="url(#SVGID_3_)" d="M76.1,59.5L76.1,59.5c0-0.1,0-0.3,0.1-0.4l-13.8,9l4.8,3.9c-0.5,1.3,0.6,4.9,1.2,7
	c0.1,0.5,0.2,1,0.3,1.4c0,1.2,0.6,8.1,0.8,9.7s0,8.3,0,8.9s-0.2,5.7-0.2,5.7h1.6c-0.2-0.6,1-14,1-15c0-0.4,0-1.6,0.1-3.1
	c0-2.6,0.3-5.1,0.9-7.6c0.8-2.2,1.8-7.9,1.4-9.3s-0.4-6.1,0-6.9C74.5,62.3,75.5,60.5,76.1,59.5z"/>
<path fill="#E09652" d="M54.8,103l-0.5-2.3L53.7,98l0,0C53.7,98.3,54.3,100.9,54.8,103z"/>
<path fill="#E09652" d="M53.6,105.5L53.6,105.5v-0.2C53.6,105.4,53.6,105.5,53.6,105.5z"/>
<path fill="#E09652" d="M82.5,25.3l-2-0.7c-2,2.7-4.9,6.6-4.9,7.9c0,7.1-8.3,24-9.9,27.1c-2.6,5.1-9.7,5.3-15.4,8.5
	c-2.3,1.4-4.4,3.2-6,5.4c-0.7,5.3-0.3,12-0.5,13.6h0.8c0,0,2-12.8,2-13.1c0-0.1,0.2,0.3,0.4,1v-0.2l7.3-4.8c0,0,1.4,4.9,2.1,8.2
	c0.7,0.9,1.6,1.6,2.6,2c2.5,0.9,6.4,0.4,9.2-1c-0.5-2.2-1.6-5.8-1.2-7l-4.8-3.8L76,59.3c1.5-5.4,2.4-11,2.5-16.6
	C78.9,34.7,80.4,26.4,82.5,25.3z"/>
<linearGradient id="SVGID_4_" gradientUnits="userSpaceOnUse" x1="36.46" y1="53.51" x2="55.97" y2="73.02" gradientTransform="matrix(1 0 0 1 0 32)">
	<stop  offset="0" style="stop-color:#E09652"/>
	<stop  offset="1" style="stop-color:#F7AE72"/>
</linearGradient>
<path fill="url(#SVGID_4_)" d="M55.5,105.5c0,0-0.3-1.2-0.7-2.6L55.5,105.5L55.5,105.5z"/>
<path fill="#E09652" d="M47.2,74.8V75c0.4,1.2,0.8,2.3,1.4,3.3c0.5,0.7,0.5,5.4,0.5,6.1s-0.9,3.4-0.3,4.5s4.5,14.3,4.8,16.3l0.1,0.2
	h1.7l-0.6-2.5c-0.5-2.1-1.2-4.7-1.1-4.9l0,0l-1.9-8.4c0.7-1.3,1.3-2.7,1.7-4.2c0.4-1.8,0.8-1.2,1.4-5.5c0.4-2.7,1.6-2,1.6-2V78
	c-0.7-3.2-2.1-8.1-2.1-8.1L47.2,74.8z"/>
<linearGradient id="SVGID_5_" gradientUnits="userSpaceOnUse" x1="46.5036" y1="42.5433" x2="62.1736" y2="69.6833" gradientTransform="matrix(1 0 0 1 0 32)">
	<stop  offset="0" style="stop-color:#E09652"/>
	<stop  offset="1" style="stop-color:#F7AE72"/>
</linearGradient>
<path fill="url(#SVGID_5_)" d="M56.9,80.7c0-0.9-0.1-1.7-0.3-2.6c-0.7-3.2-2.1-8.1-2.1-8.1l-7.3,4.8V75c0.4,1.2,0.8,2.3,1.4,3.3
	c0.5,0.7,0.5,5.4,0.5,6.1s-0.9,3.4-0.3,4.5s4.5,14.3,4.8,16.3l0.1,0.2h1.7l-0.6-2.5c-0.5-2.1-1.2-4.7-1.1-4.9l0,0
	c-0.1-1.6-0.4-3.1-0.9-4.6c-0.6-1.8,0.2-2.6,0.6-4.4S56.7,82.1,56.9,80.7z"/>
<polygon fill="#8A5E3F" points="55.3,104.5 53.6,105.5 53.6,106.1 56.5,106.1 "/>
<polygon fill="#8A5E3F" points="70.8,103.7 69.2,104.7 69.2,105.3 72,105.3 "/>
<polygon fill="#8A5E3F" points="75.9,103.7 74.3,104.7 74.3,105.3 77.1,105.3 "/>
<linearGradient id="SVGID_6_" gradientUnits="userSpaceOnUse" x1="48.9211" y1="44.1525" x2="79.1109" y2="-8.1371" gradientTransform="matrix(1 0 0 1 0 32)">
	<stop  offset="0.35" style="stop-color:#E09652"/>
	<stop  offset="1" style="stop-color:#C1723D"/>
</linearGradient>
<path fill="url(#SVGID_6_)" d="M50.4,68.1c5.7-3.2,12.7-3.4,15.4-8.5c1.6-3.1,10.7-16.8,9.9-27.1c-0.1-1.3,2.8-5.3,4.9-7.9L79,24
	c0,0-4.7,5-6.1,10.3s-2,10.6-3.6,13.5c-0.9,1.7-2.4,3.1-4.1,4c-0.1,1.3-0.3,2.6-0.7,3.8c-0.5,1.1-3.2,6.3-7.5,6.7
	c-5.9,0.6-8.5,2.6-10.7,5.7c-1,1.7-1.6,3.6-1.8,5.6C46,71.3,48.1,69.5,50.4,68.1z"/>
<path fill="#564535" d="M43.9,86.3h1l0.8,3.6l-0.4,4.9l-1-1.2L43.9,91c-0.4,0.6-0.6,1.3-0.8,2c-0.2,1-0.6-4.4-0.6-4.4L43.9,86.3z"/>
<path fill="#EAA165" d="M80.4,27.8c0.6-1.6,1.1-2.4,0.8-4.2c0-0.2-0.1-0.4-0.1-0.7c-0.2-0.1-0.5-0.2-0.7-0.3c-0.8-0.4-1.4-1-1.8-1.8
	c-0.5,0.5-0.8,1.3-0.9,2c0,2.8,1.6,3.7,2.5,5.2C80.3,28,80.4,27.9,80.4,27.8z"/>
<linearGradient id="SVGID_7_" gradientUnits="userSpaceOnUse" x1="27.0913" y1="31.0285" x2="31.7613" y2="31.0285" gradientTransform="matrix(0.9704 -0.2414 0.2414 0.9704 50.7484 -3.1925)">
	<stop  offset="0" style="stop-color:#E09652"/>
	<stop  offset="1" style="stop-color:#C1723D"/>
</linearGradient>
<path fill="url(#SVGID_7_)" d="M88.8,19.1c0-0.2,0-0.4,0-0.6c-0.7,0-1.4,0.2-1.9,0.6c-1.1,0.7-1.5,1.4-1.5,1.9
	C86.5,20.9,88.6,20.4,88.8,19.1z"/>
<linearGradient id="SVGID_8_" gradientUnits="userSpaceOnUse" x1="29.3456" y1="31.8708" x2="29.3456" y2="29.1534" gradientTransform="matrix(0.9704 -0.2414 0.2414 0.9704 50.7484 -3.1925)">
	<stop  offset="0.35" style="stop-color:#E09652"/>
	<stop  offset="1" style="stop-color:#C1723D"/>
</linearGradient>
<path fill="url(#SVGID_8_)" d="M86.9,19.1c0.6-0.4,1.3-0.6,1.9-0.6c-0.1-1.1-1.5-1.1-2.8-0.2c-2.4,1.5-1.3,2.8-1.3,2.8
	c0.2,0,0.4-0.1,0.6-0.1C85.4,20.5,85.8,19.9,86.9,19.1z"/>
<linearGradient id="SVGID_9_" gradientUnits="userSpaceOnUse" x1="29.7388" y1="31.9508" x2="29.7388" y2="29.8908" gradientTransform="matrix(0.9704 -0.2414 0.2414 0.9704 50.7484 -3.1925)">
	<stop  offset="0.28" style="stop-color:#E09652"/>
	<stop  offset="1" style="stop-color:#C1723D"/>
</linearGradient>
<path fill="url(#SVGID_9_)" d="M88.8,19.1c0-0.2,0-0.4,0-0.6c-0.7,0-1.4,0.2-1.9,0.6c-1.1,0.7-1.5,1.4-1.5,1.9
	C86.5,20.9,88.6,20.4,88.8,19.1z"/>
<linearGradient id="SVGID_10_" gradientUnits="userSpaceOnUse" x1="18.6672" y1="32.0208" x2="18.6672" y2="29.0508" gradientTransform="matrix(0.9704 -0.2414 0.2414 0.9704 50.7484 -3.1925)">
	<stop  offset="0" style="stop-color:#E09652"/>
	<stop  offset="1" style="stop-color:#C1723D"/>
</linearGradient>
<path fill="url(#SVGID_10_)" d="M78.7,22.9L78.7,22.9c-0.5-0.5-1.2-0.9-2-0.9c-1.2-0.2-2.2,0-2.5,0.7C75.2,24,78.7,22.9,78.7,22.9z"
	/>
<linearGradient id="SVGID_11_" gradientUnits="userSpaceOnUse" x1="18.6953" y1="32.0208" x2="18.6953" y2="29.0508" gradientTransform="matrix(0.9704 -0.2414 0.2414 0.9704 50.7484 -3.1925)">
	<stop  offset="0" style="stop-color:#E09652"/>
	<stop  offset="1" style="stop-color:#C1723D"/>
</linearGradient>
<path fill="url(#SVGID_11_)" d="M76.7,21.9c0.8,0.1,1.5,0.4,2,0.9c0-0.1,0.4-1.6-2.3-2.1c-1.7-0.3-3.2,0.4-2.2,1.8v0.1
	C74.4,22,75.5,21.7,76.7,21.9z"/>
<linearGradient id="SVGID_12_" gradientUnits="userSpaceOnUse" x1="18.6672" y1="33.2308" x2="18.6672" y2="30.2608" gradientTransform="matrix(0.9704 -0.2414 0.2414 0.9704 50.7484 -3.1925)">
	<stop  offset="0" style="stop-color:#E09652"/>
	<stop  offset="1" style="stop-color:#C1723D"/>
</linearGradient>
<path fill="url(#SVGID_12_)" d="M78.7,22.9L78.7,22.9c-0.5-0.5-1.2-0.9-2-0.9c-1.2-0.2-2.2,0-2.5,0.7C75.2,24,78.7,22.9,78.7,22.9z"
	/>
<linearGradient id="SVGID_13_" gradientUnits="userSpaceOnUse" x1="23.1013" y1="41.9136" x2="26.0013" y2="41.9136" gradientTransform="matrix(0.9704 -0.2414 0.2414 0.9704 50.7484 -3.1925)">
	<stop  offset="0" style="stop-color:#E09652"/>
	<stop  offset="1" style="stop-color:#C1723D"/>
</linearGradient>
<path fill="url(#SVGID_13_)" d="M83.7,31c-0.1-0.1-0.3-0.3-0.4-0.4c-0.1,0.5-0.1,0.9,0,1.4c0.1,0.2,0.1,0.4,0.2,0.6
	c0.4,0.2,1,0.3,1.4,0.2c0.5-0.1,1-0.5,1.3-0.9C85.3,31.9,84.4,31.6,83.7,31z"/>
<linearGradient id="SVGID_14_" gradientUnits="userSpaceOnUse" x1="23.7013" y1="40.3907" x2="27.4911" y2="40.3907" gradientTransform="matrix(0.9704 -0.2414 0.2414 0.9704 50.7484 -3.1925)">
	<stop  offset="0" style="stop-color:#E09652"/>
	<stop  offset="1" style="stop-color:#C1723D"/>
</linearGradient>
<path fill="url(#SVGID_14_)" d="M86.7,31c0.3-0.9,0.4-1.9,0.3-2.8c-1.4-0.3-2.9,0.4-3.5,1.8l0.3,0.3C84.5,31.2,85.6,31.4,86.7,31z"
	/>
<linearGradient id="SVGID_15_" gradientUnits="userSpaceOnUse" x1="24.3533" y1="36.473" x2="24.3533" y2="26.503" gradientTransform="matrix(0.9704 -0.2414 0.2414 0.9704 50.7484 -3.1925)">
	<stop  offset="0.28" style="stop-color:#E09652"/>
	<stop  offset="1" style="stop-color:#C1723D"/>
</linearGradient>
<path fill="url(#SVGID_15_)" d="M84,19c-0.2-1-0.6-2-1.1-2.9c0.5,2.3,1,5.3,0.6,5.5C82.9,22,82.3,20.5,82,21s-1,0.9-1.3-0.1
	s-0.8-1.7-2.4-2.3L78,18.4c0.2,0.8,0.4,1.6,0.7,2.4l-0.1,0.1c0.4,0.8,1,1.4,1.8,1.8c1.6,0.6,2.2,1.3,2.4,2.3s1,0.6,1.3,0.1
	s0.9,1,1.4,0.7s-0.3-4-0.8-6.4C84.5,19.2,84.3,19.1,84,19z"/>
<linearGradient id="SVGID_16_" gradientUnits="userSpaceOnUse" x1="23.7085" y1="32.0188" x2="23.7085" y2="24.7288" gradientTransform="matrix(0.9704 -0.2414 0.2414 0.9704 50.7484 -3.1925)">
	<stop  offset="0" style="stop-color:#E09652"/>
	<stop  offset="1" style="stop-color:#C1723D"/>
</linearGradient>
<path fill="url(#SVGID_16_)" d="M82.2,15.2c-0.1,0.1-0.3,0.2-0.5,0.3c-0.1,0-0.3,0-0.4,0c0,0.2,0.1,0.3,0.1,0.5
	c0,0.2,1.1,2.7-0.1,3.1c-1.7,0.6-2.5-2.7-2.5-2.7c-0.1-0.1-0.1-0.2-0.2-0.3c-0.1,0.1-0.3,0.2-0.5,0.3c-0.2,0-0.4,0-0.5,0
	c0.1,0.7,0.2,1.4,0.3,2.1l0.3,0.2c1.6,0.6,2.2,1.3,2.4,2.3s1,0.6,1.3,0.1s0.9,1,1.4,0.7c0.4-0.2-0.1-3.2-0.6-5.5
	C82.6,15.8,82.4,15.5,82.2,15.2z"/>
<path fill="#91470F" d="M78.6,16c-0.2-0.3-0.5-0.6-0.8-0.5c-0.1,0-0.2,0.3-0.2,0.7c0.2,0,0.4,0,0.5,0C78.3,16.3,78.5,16.2,78.6,16z"
	/>
<path fill="#91470F" d="M82.2,15.2c-0.1-0.1-0.3-0.3-0.4-0.4c-0.5-0.3-0.5,0.2-0.4,0.6c0.1,0,0.3,0,0.4,0
	C81.9,15.4,82,15.3,82.2,15.2z"/>
<path fill="#F9DEC7" d="M78.1,25.1c0-0.4,0.2-0.8,0.6-1c0.9-0.4,1.7,0.2,1.6,0.6s-0.8,0.8-1.1,0.7C78.8,25.3,78.4,25.2,78.1,25.1z"
	/>
<path fill="#2D2B25" d="M79.6,24.7c0-0.2,0.3-0.4,0.5-0.3l0,0c0.3,0.1,0.7,0.2,0.6,0.7c-0.1,0.6-0.6,1-1.2,1.1s-1.2-0.2-1.4-0.7
	c-0.2-0.4-0.3-1.4,0.4-0.7C78.9,25,79.3,25,79.6,24.7z"/>
<path fill="#E89F5A" d="M86.3,21.6c-0.3-0.9-0.9-1.7-1.6-2.3c0.5,2.4,1.2,6.2,0.8,6.4s-1.1-1.2-1.4-0.7s-1,0.9-1.3-0.1
	c-0.2-0.9-0.8-1.7-1.7-2c0.1,0.2,0.1,0.5,0.1,0.7c0.2,1.8-0.2,2.5-0.8,4.2c0,0.1-0.1,0.2-0.2,0.3c0.2,0.3,0.3,0.6,0.4,0.9
	c0.5,1.5,1.5,2.7,2.8,3.5c-0.1-0.2-0.2-0.4-0.2-0.6c-0.4-1.6,0.5-3.2,2.1-3.7c0.5-0.1,1-0.1,1.5,0c0-0.2-0.1-0.4-0.1-0.5
	C86.4,25.1,87.3,23.8,86.3,21.6z"/>
<path fill="#F9DEC7" d="M84.8,23.6c0-0.4,0.2-0.8,0.6-1c0.9-0.4,1.7,0.2,1.6,0.6s-0.8,0.8-1.1,0.7C85.5,23.8,85.2,23.7,84.8,23.6z"
	/>
<path fill="#2D2B25" d="M86.3,23.2c0-0.2,0.3-0.4,0.5-0.4l0,0c0.3,0.1,0.7,0.3,0.6,0.7c-0.1,0.6-0.6,1-1.2,1.1s-1.2-0.2-1.4-0.7
	c-0.2-0.4-0.3-1.4,0.4-0.7C85.6,23.5,86.1,23.5,86.3,23.2z"/>
<ellipse transform="matrix(0.994 -0.1097 0.1097 0.994 -2.6161 9.4632)" fill="#725842" cx="84.7" cy="28.5" rx="0.4" ry="0.3"/>
<ellipse transform="matrix(0.9939 -0.1104 0.1104 0.9939 -2.6018 9.6234)" fill="#725842" cx="85.6" cy="28.3" rx="0.4" ry="0.3"/>
<path fill="#91470F" d="M83.7,30.3L83.4,30c-1-1-0.8-0.3-0.2,0.5c0.1,0.2,0.3,0.3,0.4,0.4c0.7,0.6,1.6,0.9,2.6,0.8
	c0.2-0.2,0.3-0.5,0.4-0.8C85.6,31.4,84.5,31.2,83.7,30.3z"/>
<path fill="#388E3C" d="M8,78.1L8,78.1h0.1H8z"/>
<path fill="#9BA560" d="M31.9,84.5c0-8-3-10.8-6.6-9.8s-12.5-4.6-11.7-2.3s-0.1,1.5-2.9,4.1c-0.8,0.7-1.7,1.3-2.6,1.7
	c3,1.3,9.6,4,16.2,6.4C28.4,84.6,31.9,84.5,31.9,84.5z"/>
<path fill="#388E3C" d="M24.3,84.6c-6.6-2.5-13.2-5.2-16.2-6.4L8,78.3v5.1c2.8,0.5,5.6,0.8,8.4,1C18.8,84.6,21.7,84.6,24.3,84.6z"/>
<path fill="#9BA560" d="M24.3,84.6c-6.6-2.5-13.2-5.2-16.2-6.4L8,78.3v5.1c2.8,0.5,5.6,0.8,8.4,1C18.8,84.6,21.7,84.6,24.3,84.6z"/>
<path fill="#9BA560" d="M40.8,90.8c0-8-3-10.8-6.6-9.8s-12.5-4.6-11.7-2.3s-0.1,1.5-2.9,4.1s-8.8,3.8-8.8,4.8s-3.3,0.5,3,1.5
	c3.8,0.7,7.6,1.3,11.5,1.5C31.4,91.2,40.8,90.8,40.8,90.8z"/>
<path fill="#AED581" d="M118,114.5c-2-0.5-3.9-1.4-5.5-2.7c-3.3-0.7-7.9-3.3-7.4-1.8c0.6,1.9-0.1,1.3-2.3,3.3s-7.2,3.1-7.2,4
	s-2.7,0.4,2.5,1.2c3.1,0.6,6.2,1,9.4,1.3c0.6,0.1,1.2,0.1,1.9,0.1C112.8,119.5,116,117.5,118,114.5z"/>
<path fill="#ABB26B" d="M63,105.5c-0.2-3-6.8-9.3-10.7-13.7c-1.1-1.1-2-2.3-2.8-3.6c-0.5-1.2-3.4-0.1-7,1.5c-6.8,3-16.1,8-17.5,4.1
	C23,88,12.3,95.6,9.5,93c-0.4-0.4-1.1-0.4-1.5,0v14.8c0,6.7,5.4,12.2,12.2,12.2l0,0h46.9c0-0.4,0-0.9,0.2-1.3
	C69.1,112.9,63.2,109.6,63,105.5z"/>
<path fill="#9BA560" d="M118,114.5c-2-0.5-3.9-1.4-5.5-2.7c-3.3-0.7-7.9-3.3-7.4-1.8c0.6,1.9-0.1,1.3-2.3,3.3s-7.2,3.1-7.2,4
	s-2.7,0.4,2.5,1.2c3.1,0.6,6.2,1,9.4,1.3c0.6,0.1,1.2,0.1,1.9,0.1C112.8,119.5,116,117.5,118,114.5z"/>
</svg>
