<?xml version="1.0" encoding="utf-8"?>
<!-- Generator: Adobe Illustrator 24.0.0, SVG Export Plug-In . SVG Version: 6.00 Build 0)  -->
<svg version="1.1" id="eclipse" xmlns="http://www.w3.org/2000/svg" xmlns:xlink="http://www.w3.org/1999/xlink" x="0px" y="0px"
	 viewBox="0 0 128 128" enable-background="new 0 0 128 128" xml:space="preserve">
<title>128</title>
<g id="_128">
	<circle fill="#2C2256" cx="72" cy="64" r="51"/>
	<g>
		<g>
			<defs>
				<circle id="SVGID_1_" cx="72" cy="64" r="51"/>
			</defs>
			<clipPath id="SVGID_2_">
				<use xlink:href="#SVGID_1_"  overflow="visible"/>
			</clipPath>
			<g clip-path="url(#SVGID_2_)">
				<rect x="19" y="76" fill="#FFFFFF" width="106.1" height="8"/>
				<rect x="19" y="60" fill="#FFFFFF" width="106.1" height="8"/>
				<rect x="19" y="44" fill="#FFFFFF" width="106.1" height="8"/>
			</g>
		</g>
	</g>
	<path fill="#2C2256" d="M72,19c24.9,0,45,20.1,45,45s-20.1,45-45,45S27,88.9,27,64C27,39.2,47.2,19,72,19 M72,13
		c-28.2,0-51,22.8-51,51s22.8,51,51,51s51-22.8,51-51S100.2,13,72,13z"/>
	<path fill="#F08E23" d="M16,64C16,33.5,39.2,8.1,69.5,5.3C67.7,5.1,65.9,5,64,5C31.4,5,5,31.4,5,64s26.4,59,59,59
		c1.9,0,3.7-0.1,5.5-0.3C39.2,119.9,16,94.5,16,64z"/>
</g>
</svg>
