<?xml version="1.0" encoding="utf-8"?>
<!-- Generator: Adobe Illustrator 24.0.0, SVG Export Plug-In . SVG Version: 6.00 Build 0)  -->
<svg version="1.1" id="Emacs" xmlns="http://www.w3.org/2000/svg" xmlns:xlink="http://www.w3.org/1999/xlink" x="0px" y="0px"
	 viewBox="0 0 128 128" enable-background="new 0 0 128 128" xml:space="preserve">
<title>128</title>
<g id="_128">
	<circle fill="#41208B" cx="64" cy="64" r="59"/>
	<path fill="#F9F9F9" d="M40.9,102.6c3.5,0.9,7,1.6,10.6,2.1c6.3,0.8,12.6,1.3,18.9,1.4c4.5,0,9-0.2,13.5-0.7c5-0.7,7.9-1.6,9.4-3.5
		c0.5-1.2,0-2.6-1.2-3.2c-5-3.5-11.4-4.5-23.8-7.5c-13.8-3.5-17.9-6.9-20-9.3s0.3-7.5,11.5-10c5.7-1.4,26.8-1.6,26.8-1.6
		c-6-4.8-17.4-13.5-19.7-15.4s-5.6-4.1-5.9-6.4s3-3.2,4.7-3.3c6.9-0.3,13.8,0.3,20.5,1.7c1.3,0.4,2.7,0.6,4.1,0.6
		c5,0.2,8.9-2.4,8.7-8S93.4,29.2,87.1,29S67,29.9,67,29.9c16.7,3.5,19.4,4.4,20.3,6.4c0.5,1.2-0.9,2.4-5.4,2.2S66.6,37,66.6,37
		c-9.8-1.5-16.6-3-19.5,1c-1.9,2.6,0.3,5.7,1.1,7.5C52,52.3,58.7,57,63,60.3c1.6,1.3,6.5,4,6.5,4c-15.2-4.2-27.3-1.8-35,2.3
		c-8.9,5.3-7.2,14.2,6.7,22.5c7.7,5.3,16.6,8.4,25.9,9.1c7.9,1.3,9.1,1.8,8.9,2.5s-9.3,1.3-11.9,1.5C57.8,102.4,41,102.6,40.9,102.6
		z"/>
</g>
</svg>
