<?xml version="1.0" encoding="utf-8"?>
<!-- Generator: Adobe Illustrator 24.0.0, SVG Export Plug-In . SVG Version: 6.00 Build 0)  -->
<svg version="1.1" id="eufloria" xmlns="http://www.w3.org/2000/svg" xmlns:xlink="http://www.w3.org/1999/xlink" x="0px" y="0px"
	 viewBox="0 0 128 128" style="enable-background:new 0 0 128 128;" xml:space="preserve">
<linearGradient id="SVGID_1_" gradientUnits="userSpaceOnUse" x1="64" y1="-18" x2="64" y2="-126.12" gradientTransform="matrix(1 0 0 1 0 136)">
	<stop  offset="0" style="stop-color:#FFC187"/>
	<stop  offset="1" style="stop-color:#FFE2C9"/>
</linearGradient>
<path style="fill:url(#SVGID_1_);" d="M20,8h88c6.6,0,12,5.4,12,12v88c0,6.6-5.4,12-12,12H20c-6.6,0-12-5.4-12-12V20
	C8,13.4,13.4,8,20,8z"/>
<g>
	<polygon style="fill:#675749;" points="41,66.5 29.8,66.5 29.8,64.2 39,64.2 33.3,54.7 35.2,53.6 41.9,64.8 	"/>
	<polygon style="fill:#675749;" points="53.2,56.9 46.2,47 48,45.7 53.9,53.9 57.8,44.7 59.9,45.6 55.1,56.7 	"/>
	<polygon style="fill:#675749;" points="66.7,102.9 64.5,102.9 64.5,85.9 53.7,71.3 40.6,66.4 41.4,64.3 54.8,69.3 55.3,69.7 
		66.5,84.8 66.7,85.5 	"/>
	<rect x="52.7" y="56.4" style="fill:#675749;" width="2.2" height="14.6"/>
	<polygon style="fill:#675749;" points="66.5,86.1 64.7,84.9 74.6,70.6 75.1,62.9 70.3,55.9 72.1,54.6 77.2,61.9 77.4,62.6 76.8,71 
		76.6,71.6 	"/>
	
		<rect x="75" y="58.3" transform="matrix(0.7372 -0.6757 0.6757 0.7372 -19.2123 69.3518)" style="fill:#675749;" width="9.1" height="2.2"/>
	<polygon style="fill:#675749;" points="76.1,72 75.3,69.9 86.8,65.5 93.8,56.8 95.6,58.2 88.3,67.2 87.8,67.5 	"/>
	
		<rect x="87.4" y="65.1" transform="matrix(0.9985 -5.546639e-02 5.546639e-02 0.9985 -3.5297 5.23)" style="fill:#675749;" width="10.1" height="2.2"/>
	<path style="fill:#FF5E34;" d="M70,118.7c-0.5-0.6-5.6-4.6-5.6-7.7v-5.9h2.2v5.9c0,1.7,4.5,6.7,6.1,8.5L70,118.7z"/>
	
		<ellipse transform="matrix(0.9994 -3.385567e-02 3.385567e-02 0.9994 -1.2721 1.0713)" style="fill:#06BE8C;" cx="31" cy="38.1" rx="6.2" ry="2.4"/>
	
		<ellipse transform="matrix(0.9994 -3.385564e-02 3.385564e-02 0.9994 -1.0485 1.2741)" style="fill:#06BE8C;" cx="37.1" cy="31.6" rx="2.4" ry="6.2"/>
	
		<ellipse transform="matrix(0.6828 -0.7306 0.7306 0.6828 -14.4465 35.2664)" style="fill:#FF5E34;" cx="33.4" cy="34.3" rx="2.5" ry="6.4"/>
	
		<ellipse transform="matrix(0.1726 -0.985 0.985 0.1726 -29.144 75.6965)" style="fill:#06BE8C;" cx="30.5" cy="55.2" rx="1.9" ry="4.8"/>
	
		<ellipse transform="matrix(0.1726 -0.985 0.985 0.1726 -20.6225 78.0566)" style="fill:#06BE8C;" cx="36.2" cy="51.3" rx="4.8" ry="1.9"/>
	
		<ellipse transform="matrix(0.8186 -0.5744 0.5744 0.8186 -24.3643 28.4724)" style="fill:#FF5E34;" cx="32.9" cy="52.8" rx="1.9" ry="5"/>
	
		<ellipse transform="matrix(0.9097 -0.4152 0.4152 0.9097 -12.3062 27.1999)" style="fill:#06BE8C;" cx="56.4" cy="41.9" rx="1.9" ry="4.8"/>
	
		<ellipse transform="matrix(0.9097 -0.4152 0.4152 0.9097 -12.7235 30.0726)" style="fill:#06BE8C;" cx="62.8" cy="44.3" rx="4.8" ry="1.9"/>
	
		<ellipse transform="matrix(0.3497 -0.9369 0.9369 0.3497 -0.8928 83.7145)" style="fill:#FF5E34;" cx="59.9" cy="42.5" rx="5" ry="1.9"/>
	
		<ellipse transform="matrix(0.1695 -0.9855 0.9855 0.1695 0.9538 115.6131)" style="fill:#06BE8C;" cx="69.1" cy="57.2" rx="1.9" ry="4.8"/>
	
		<ellipse transform="matrix(0.1692 -0.9856 0.9856 0.1692 10.1135 117.8746)" style="fill:#06BE8C;" cx="75" cy="52.9" rx="4.8" ry="1.9"/>
	
		<ellipse transform="matrix(0.8167 -0.577 0.577 0.8167 -18.5304 51.2389)" style="fill:#FF5E34;" cx="71.4" cy="54.8" rx="1.9" ry="5"/>
	
		<ellipse transform="matrix(2.634774e-02 -0.9997 0.9997 2.634774e-02 23.3358 133.2973)" style="fill:#06BE8C;" cx="80.1" cy="54.7" rx="4.8" ry="1.9"/>
	
		<ellipse transform="matrix(2.634774e-02 -0.9997 0.9997 2.634774e-02 23.0356 142.9085)" style="fill:#06BE8C;" cx="84.9" cy="59.6" rx="1.9" ry="4.8"/>
	
		<ellipse transform="matrix(0.7255 -0.6882 0.6882 0.7255 -16.2739 72.6191)" style="fill:#FF5E34;" cx="82.9" cy="56.7" rx="5" ry="1.9"/>
	
		<ellipse transform="matrix(0.9982 -5.989316e-02 5.989316e-02 0.9982 -2.9689 5.748)" style="fill:#06BE8C;" cx="94.4" cy="52.4" rx="1.9" ry="4.8"/>
	
		<ellipse transform="matrix(0.9985 -5.563902e-02 5.563902e-02 0.9985 -3.0346 5.6084)" style="fill:#06BE8C;" cx="99.2" cy="57.3" rx="4.8" ry="1.9"/>
	
		<ellipse transform="matrix(0.6667 -0.7454 0.7454 0.6667 -8.2865 90.486)" style="fill:#FF5E34;" cx="97" cy="54.5" rx="5" ry="1.9"/>
	
		<ellipse transform="matrix(0.83 -0.5577 0.5577 0.83 -17.7996 66.8024)" style="fill:#06BE8C;" cx="100.7" cy="62.6" rx="4.8" ry="1.9"/>
	
		<ellipse transform="matrix(0.83 -0.5577 0.5577 0.83 -21.7635 67.1547)" style="fill:#06BE8C;" cx="99.3" cy="69.3" rx="1.9" ry="4.8"/>
	
		<ellipse transform="matrix(0.1925 -0.9813 0.9813 0.1925 16.4143 151.9662)" style="fill:#FF5E34;" cx="100.5" cy="66" rx="1.9" ry="5"/>
	
		<ellipse transform="matrix(0.707 -0.7072 0.7072 0.707 -40.4253 40.0435)" style="fill:#06BE8C;" cx="28.1" cy="68.8" rx="4.8" ry="1.9"/>
	
		<ellipse transform="matrix(0.707 -0.7072 0.7072 0.707 -35.55 38.0233)" style="fill:#06BE8C;" cx="28.1" cy="61.9" rx="1.9" ry="4.8"/>
	<ellipse style="fill:#FF5E34;" cx="27.5" cy="65.4" rx="5" ry="1.9"/>
	<path style="fill:#EF7F4F;" d="M30.8,120H101c-5.6-9.7-19.2-16.6-35.1-16.6C49.9,103.4,36.3,110.3,30.8,120z"/>
	<path style="fill:#675749;" d="M32.7,120c5.5-8.7,18.3-14.9,33.2-14.9c14.9,0,27.6,6.1,33.2,14.9h3.9c-5.6-10.7-20.1-18.3-37-18.3
		c-17,0-31.5,7.6-37,18.3H32.7z"/>
</g>
</svg>
