<svg id="FTP客户端" xmlns="http://www.w3.org/2000/svg" xmlns:xlink="http://www.w3.org/1999/xlink" viewBox="0 0 96 96"><defs><style>.cls-1{fill:url(#未命名的渐变_114);}.cls-2{fill:#fff;}</style><linearGradient id="未命名的渐变_114" x1="48" y1="6" x2="48" y2="90" gradientUnits="userSpaceOnUse"><stop offset="0" stop-color="#b20a0a"/><stop offset="1" stop-color="#a20f24"/></linearGradient></defs><title>96</title><g id="_96" data-name="96"><rect class="cls-1" x="6" y="6" width="84" height="84" rx="9"/><path class="cls-2" d="M28.5,18H66L63,28H38L36,39H78l-1.5,7.5L56,67a11.8,11.8,0,0,0,7,2c3,0,12-3,12-3L72,76.5S64.5,78,61.45,78C58.07,78,51.38,76.5,48,76.5A30.52,30.52,0,0,0,40.5,78L37,71,61,49H34.36L29,73H18Z"/></g></svg>