<?xml version="1.0" encoding="utf-8"?>
<!-- Generator: Adobe Illustrator 24.0.0, SVG Export Plug-In . SVG Version: 6.00 Build 0)  -->
<svg version="1.1" id="图层_1" xmlns="http://www.w3.org/2000/svg" xmlns:xlink="http://www.w3.org/1999/xlink" x="0px" y="0px"
	 viewBox="0 0 128 128" enable-background="new 0 0 128 128" xml:space="preserve">
<title>fontforge128</title>
<circle fill="#F2F2F2" cx="64" cy="64" r="56"/>
<path fill="#CCCCCC" d="M64,10.5c29.5,0,53.5,23.9,53.5,53.5s-24,53.5-53.5,53.5S10.5,93.5,10.5,64l0,0C10.6,34.5,34.5,10.6,64,10.5
	 M64,5.5C31.7,5.5,5.5,31.7,5.5,64s26.2,58.5,58.5,58.5s58.5-26.2,58.5-58.5C122.4,31.7,96.3,5.6,64,5.5z"/>
<path fill="#222C32" d="M101.5,27.7c-0.7-3.1-4.7-5.7-9.7-5c-7,1-8.9,4.8-9.7,5.8c0,0-2-2.9-8.3-3.6C65.5,24,58,28.5,53.9,36.7
	c-6.6,12.9-8.5,43.4-13,47.7c-6.5,6.2-8-7.4-12.8-3.2c-4.6,4,0.8,11.3,9.8,9.5c4.9-1,11.2-6,11.2-6c2.2,2.9,5.5,4.6,9.1,4.8
	c5.4,0.3,11.6-0.5,14.6-6c6.4-11.7,7.2-55.1,17-56.6c4-0.6,4.6,6.4,7.5,7.1C100.6,34.7,102.4,31.9,101.5,27.7z M68.4,75.1
	c-3.4,16.9-15.3,7.2-17.6,5c1.7-2.5,5.3-41.2,13.7-49.7c3.5-3.5,9.8-1.5,13.8,4.2C73.1,40.2,70,67.3,68.4,75.1z"/>
<path fill="#222C32" d="M89.1,48H40.6c-0.3,0-0.6-0.3-0.6-0.6l0,0c0-2.4,1.9-4.3,4.3-4.4l0,0h48.5c0.3,0,0.6,0.3,0.6,0.6l0,0l0,0
	C93.5,46,91.5,48,89.1,48L89.1,48z"/>
<circle fill="#FE5801" cx="70" cy="84.5" r="3.7"/>
<rect x="45.2" y="83.8" transform="matrix(0.7071 -0.7071 0.7071 0.7071 -39.305 74.2506)" fill="#FE5801" width="49.5" height="1.5"/>
<polygon fill="#FE5801" points="87.9,63.7 86.4,63.7 86.4,66.6 83.4,66.6 83.4,68.1 86.4,68.1 86.4,71.1 87.9,71.1 87.9,68.1 
	90.9,68.1 90.9,66.6 87.9,66.6 "/>
<polygon fill="#FE5801" points="53.6,98 52.1,98 52.1,100.9 49.1,100.9 49.1,102.4 52.1,102.4 52.1,105.4 53.6,105.4 53.6,102.4 
	56.5,102.4 56.5,100.9 53.6,100.9 "/>
</svg>
