<?xml version="1.0" encoding="utf-8"?>
<!-- Generator: Adobe Illustrator 24.0.0, SVG Export Plug-In . SVG Version: 6.00 Build 0)  -->
<svg version="1.1" id="对对碰" xmlns="http://www.w3.org/2000/svg" xmlns:xlink="http://www.w3.org/1999/xlink" x="0px" y="0px"
	 viewBox="0 0 128 128" enable-background="new 0 0 128 128" xml:space="preserve">
<title>128</title>
<g id="_128">
	
		<linearGradient id="SVGID_1_" gradientUnits="userSpaceOnUse" x1="64" y1="-10.99" x2="64" y2="71.55" gradientTransform="matrix(1 0 0 1 0 32)">
		<stop  offset="0" style="stop-color:#FAFAFA"/>
		<stop  offset="1" style="stop-color:#D1D1D1"/>
	</linearGradient>
	<path fill="url(#SVGID_1_)" d="M28,8h72c6.6,0,12,5.4,12,12v88c0,6.6-5.4,12-12,12H28c-6.6,0-12-5.4-12-12V20C16,13.4,21.4,8,28,8z
		"/>
	
		<linearGradient id="SVGID_2_" gradientUnits="userSpaceOnUse" x1="64" y1="-24" x2="64" y2="88" gradientTransform="matrix(1 0 0 1 0 32)">
		<stop  offset="0" style="stop-color:#D3D3D3"/>
		<stop  offset="1" style="stop-color:#B3B3B3"/>
	</linearGradient>
	<path fill="url(#SVGID_2_)" d="M100,12c4.4,0,8,3.6,8,8v88c0,4.4-3.6,8-8,8H28c-4.4,0-8-3.6-8-8V20c0-4.4,3.6-8,8-8H100 M100,8H28
		c-6.6,0-12,5.4-12,12v88c0,6.6,5.4,12,12,12h72c6.6,0,12-5.4,12-12V20C112,13.4,106.6,8,100,8z"/>
	<circle fill="#FFFFFF" cx="83" cy="84" r="17"/>
	<circle fill="#21983A" cx="83" cy="84" r="15"/>
	<circle fill="#F4F8F5" cx="83" cy="84" r="11"/>
	<circle fill="#21983A" cx="83" cy="84" r="7"/>
	<circle fill="#F4F8F5" cx="83" cy="84" r="3"/>
	<circle fill="#FFFFFF" cx="45" cy="84" r="17"/>
	<circle fill="#1A4A97" cx="45" cy="84" r="15"/>
	<circle fill="#F4F8F5" cx="45" cy="84" r="11"/>
	<circle fill="#1A4A97" cx="45" cy="84" r="7"/>
	<circle fill="#F4F8F5" cx="45" cy="84" r="3"/>
	<circle fill="#FFFFFF" cx="83" cy="44" r="17"/>
	<circle fill="#1A4A97" cx="83" cy="44" r="15"/>
	<circle fill="#F4F8F5" cx="83" cy="44" r="11"/>
	<circle fill="#1A4A97" cx="83" cy="44" r="7"/>
	<circle fill="#F4F8F5" cx="83" cy="44" r="3"/>
	<circle fill="#FFFFFF" cx="45" cy="44" r="17"/>
	<circle fill="#24963A" cx="45" cy="44" r="15"/>
	<circle fill="#F4F8F5" cx="45" cy="44" r="11"/>
	<circle fill="#21983A" cx="45" cy="44" r="7"/>
	<circle fill="#F4F8F5" cx="45" cy="44" r="3"/>
</g>
</svg>
