<?xml version="1.0" encoding="utf-8"?>
<!-- Generator: Adobe Illustrator 24.0.0, SVG Export Plug-In . SVG Version: 6.00 Build 0)  -->
<svg version="1.1" id="图层_1" xmlns="http://www.w3.org/2000/svg" xmlns:xlink="http://www.w3.org/1999/xlink" x="0px" y="0px"
	 viewBox="0 0 128 128" enable-background="new 0 0 128 128" xml:space="preserve">
<title>128</title>
<g id="福昕">
	<g id="_128">
		
			<linearGradient id="SVGID_1_" gradientUnits="userSpaceOnUse" x1="64" y1="-24" x2="64" y2="88" gradientTransform="matrix(1 0 0 1 0 32)">
			<stop  offset="0" style="stop-color:#F68A1E"/>
			<stop  offset="1" style="stop-color:#EA7206"/>
		</linearGradient>
		<path fill="url(#SVGID_1_)" d="M20,8h88c6.6,0,12,5.4,12,12v88c0,6.6-5.4,12-12,12H20c-6.6,0-12-5.4-12-12V20C8,13.4,13.4,8,20,8z
			"/>
		<path fill="#FFFFFF" d="M103.8,54.9c0,0.1,0.1,0.1,0.2,0l0.1-0.1C103.3,50.7,98.2,27,70.2,27c-12.4-0.1-24.3,4.8-33,13.6
			C29.1,49,24,60.7,24,75.5c0,9.7,5.6,18.7,13.9,23.7c7.4,4.5,17.2,5.4,23,5.4c8.8,0,35.2-7.4,35.2-33.3c0-9.1-6-15.6-6-13.5
			s-0.8,9.6-0.8,9.6s-4.9-7.6-6.6-8.4s3.5,19.9-19.4,16.8c-3.2-0.4,7,10.4,16.7,9c3-0.4-6.6,6.5-15.9,5.8S47,82.6,47,71.2
			S58.4,46,74.4,46c10,0,13.6,4.6,15.5,6.5c0.5,0.5,1.4-8.6-16.3-15.6c0,0,10.2-0.6,17.3,4C98.3,45.7,102,52.1,103.8,54.9z"/>
	</g>
</g>
<g id="扫雷">
	<g id="_128-2">
		<path fill="#F8F8F8" d="M20,10h88c5.5,0,10,4.5,10,10v88c0,5.5-4.5,10-10,10H20c-5.5,0-10-4.5-10-10V20C10,14.5,14.5,10,20,10z"/>
		<path fill="#E2E2E2" d="M108,12c4.4,0,8,3.6,8,8v88c0,4.4-3.6,8-8,8H20c-4.4,0-8-3.6-8-8V20c0-4.4,3.6-8,8-8H108 M108,8H20
			C13.4,8,8,13.4,8,20v88c0,6.6,5.4,12,12,12h88c6.6,0,12-5.4,12-12V20C120,13.4,114.6,8,108,8z"/>
		<path fill="#E2E2E2" d="M64,64h56l0,0v44c0,6.6-5.4,12-12,12H64l0,0V64L64,64z"/>
		<rect x="62" y="8" fill="#E2E2E2" width="4" height="112"/>
		<rect x="8" y="62" fill="#E2E2E2" width="112" height="4"/>
		<polygon fill="#049604" points="28,17 28,57 33,57 33,37 55,37 		"/>
		<path fill="#EE333A" d="M105.4,96l6.6-4l-6.6-4l0,0c-0.3-0.9-0.6-1.8-1.1-2.7l0,0L106,78l-7.3,1.7l0,0c-0.8-0.5-1.7-0.8-2.7-1.1
			l0,0L92,72l-4,6.6l0,0c-0.9,0.3-1.8,0.6-2.7,1.1l0,0L78,78l1.7,7.3l0,0c-0.5,0.8-0.8,1.7-1.1,2.7l0,0L72,92l6.6,4l0,0
			c0.3,0.9,0.6,1.8,1.1,2.7l0,0l-1.8,7.3l7.4-1.6l0,0c0.8,0.4,1.7,0.8,2.7,1.1l0,0l4,6.6l4-6.5l0,0c0.9-0.3,1.8-0.6,2.7-1.1l0,0
			l7.3,1.6l-1.7-7.3l0,0C104.8,97.8,105.1,96.9,105.4,96L105.4,96z"/>
		<polygon fill="#1B5EB5" points="40,105 40,74 28,74 28,79 35,79 35,105 28,105 28,110 47,110 47,105 		"/>
	</g>
</g>
</svg>
