<?xml version="1.0" encoding="utf-8"?>
<!-- Generator: Adobe Illustrator 24.0.0, SVG Export Plug-In . SVG Version: 6.00 Build 0)  -->
<svg version="1.1" id="图层_2" opacity="0.8" xmlns="http://www.w3.org/2000/svg" xmlns:xlink="http://www.w3.org/1999/xlink"
	 x="0px" y="0px" viewBox="0 0 16 16" style="enable-background:new 0 0 16 16;" xml:space="preserve">
<style type="text/css">
	.st0{fill:#1F2022;}
	.st1{fill:none;stroke:#1F2022;stroke-linecap:round;stroke-miterlimit:10;}
</style>
<g>
	<g>
		<path class="st0" d="M12,1c0.6,0,1,0.4,1,1v12c0,0.6-0.4,1-1,1H3c-0.6,0-1-0.4-1-1V2c0-0.6,0.4-1,1-1H12 M12,0H3C1.9,0,1,0.9,1,2
			v12c0,1.1,0.9,2,2,2h9c1.1,0,2-0.9,2-2V2C14,0.9,13.1,0,12,0L12,0z"/>
	</g>
</g>
<g>
	<line class="st1" x1="7.5" y1="2.5" x2="7.5" y2="12.5"/>
</g>
<line class="st1" x1="4.5" y1="3.5" x2="10.5" y2="3.5"/>
<path class="st0" d="M10,5H5C4.4,5,4,5.5,4,6v3c0,0.6,0.4,1,1,1h5c0.6,0,1-0.4,1-1V6C11,5.5,10.6,5,10,5z M9.5,9h-4
	C5.2,9,5,8.8,5,8.5S5.2,8,5.5,8h4C9.8,8,10,8.2,10,8.5S9.8,9,9.5,9z M9.5,7h-4C5.2,7,5,6.8,5,6.5S5.2,6,5.5,6h4C9.8,6,10,6.2,10,6.5
	S9.8,7,9.5,7z"/>
<line class="st1" x1="7.5" y1="9.5" x2="5" y2="12.5"/>
<line class="st1" x1="7.5" y1="9.5" x2="10" y2="12.5"/>
</svg>
