<?xml version="1.0" encoding="utf-8"?>
<!-- Generator: Adobe Illustrator 24.0.0, SVG Export Plug-In . SVG Version: 6.00 Build 0)  -->
<svg version="1.1" id="图层_1" xmlns="http://www.w3.org/2000/svg" xmlns:xlink="http://www.w3.org/1999/xlink" x="0px" y="0px"
	 viewBox="0 0 128 128" enable-background="new 0 0 128 128" xml:space="preserve">
<title>gnome-chess-112</title>
<path fill="#212121" d="M48.1,9.5c4,2.8,10.1,7.3,17.5,12.6c6.2,4.4,15.8,7.1,21.6,12c6.5,5.5,11.9,12.2,15.9,19.8
	c5.2,9.9,6.4,18.3,7.6,26.7c1.9,13.2,2.8,18.6,1.9,25.1H32.2C31.9,99.2,51,88.3,57.8,76.4c2-3.5,3.2-7.5,3.7-11.5
	c0-3.2,0.1-6.8-0.2-5.8c-2.2,6.9-11.8,8.1-17,13.6C33.8,83.6,36,83.7,31,85.5C24.5,87.8,16.7,82,15.6,77c-0.6-2.9-1.3-5.8,1.2-10.6
	c4.8-9.1,10.9-10.8,13.1-15.3c7.3-14.5,2.4-8.3,9.7-16.3c3.2-3.5,6-5,5.1-7.6c-1.9-5.1-8.2-10.5-7.8-11c0.5-0.7,16.3,7.7,16.3,7.7
	C54.8,22.6,51.8,16.1,48.1,9.5z"/>
<path fill="#FFFFFF" d="M70.4,29.7c8,5.9,14.9,13.2,20.4,21.6c9.7,15.2,14.5,33,13.9,51c0,0,2.4-14.6-0.4-29.1
	c-1.1-5.1-2.9-10.1-5.3-14.8c-2.1-4.4-4.7-8.7-7.6-12.6C83.1,35,70.4,29.7,70.4,29.7z"/>
<rect x="32.2" y="105.6" fill="#FFFFFF" width="80.8" height="4"/>
<rect x="32.2" y="109.6" fill="#212121" width="80.8" height="8.9"/>
<path fill="#FFFFFF" d="M46.6,49.3c0,0,0.4-4.2,2.1-6.6c2.4-3.4,7.5-5,7.5-5s-0.9,4.6-2.9,7.1C51.1,47.6,46.6,49.3,46.6,49.3z"/>
<ellipse transform="matrix(0.9322 -0.3619 0.3619 0.9322 -24.2689 13.0416)" fill="#FFFFFF" cx="22.7" cy="71.3" rx="3.4" ry="2"/>
</svg>
