<?xml version="1.0" encoding="utf-8"?>
<!-- Generator: Adobe Illustrator 24.0.0, SVG Export Plug-In . SVG Version: 6.00 Build 0)  -->
<svg version="1.1" id="图层_1" xmlns="http://www.w3.org/2000/svg" xmlns:xlink="http://www.w3.org/1999/xlink" x="0px" y="0px"
	 viewBox="0 0 128 128" enable-background="new 0 0 128 128" xml:space="preserve">
<title>gnucash128</title>
<path fill="#FFFFFF" d="M112.3,10.9H20.1c-2.1,0-3.8,1.7-3.8,3.8l0,0v76.7c0,2.1,1.7,3.8,3.8,3.8h92.2c2.1,0,3.8-1.7,3.8-3.8V14.8
	C116.2,12.6,114.5,10.9,112.3,10.9L112.3,10.9z"/>
<path fill="#999999" d="M112.3,8.4H20.1c-3.5,0-6.4,2.9-6.4,6.4v76.7c0,3.5,2.9,6.4,6.4,6.4h92.2c3.5,0,6.4-2.9,6.4-6.4V14.8
	C118.7,11.2,115.9,8.4,112.3,8.4z M116.2,91.5c0,2.1-1.7,3.8-3.8,3.8H20.1c-2.1,0-3.8-1.7-3.8-3.8V14.8c0-2.1,1.7-3.8,3.8-3.8l0,0
	h92.2c2.1,0,3.8,1.7,3.8,3.8L116.2,91.5z"/>
<rect x="25.2" y="71.7" fill="#B3B3B3" width="82" height="1.5"/>
<rect x="39.3" y="17.3" fill="#B3B3B3" width="1.5" height="70.9"/>
<rect x="53.3" y="17.3" fill="#B3B3B3" width="1.5" height="70.9"/>
<rect x="67.3" y="17.3" fill="#B3B3B3" width="1.5" height="70.9"/>
<rect x="81.3" y="17.3" fill="#B3B3B3" width="1.5" height="70.9"/>
<rect x="95.4" y="17.3" fill="#B3B3B3" width="1.5" height="70.9"/>
<rect x="25.2" y="27.7" fill="#B3B3B3" width="82" height="1.5"/>
<rect x="25.2" y="42.6" fill="#B3B3B3" width="82" height="1.5"/>
<rect x="25.2" y="57.5" fill="#B3B3B3" width="82" height="1.5"/>
<rect x="25.2" y="87.4" fill="#666666" width="82" height="1.5"/>
<rect x="25.2" y="18.1" fill="#666666" width="1.5" height="70.9"/>
<polygon fill="#0071BC" points="27.7,76.6 25.9,75.7 39.7,48.4 67.8,64.1 86.9,40 88.6,41.2 68.3,66.7 40.5,51.2 "/>
<polygon fill="#4CAF50" points="13.1,82.1 5.4,95.8 64.9,95.8 57.8,82.3 "/>
<path fill="#006837" d="M65.2,96H5l7.9-14.1H13l44.9,0.2L65.2,96z M5.7,95.6h58.8l-6.9-13.1l-44.5-0.2L5.7,95.6z"/>
<rect x="5.2" y="96" fill="#4CAF50" width="59.8" height="4.2"/>
<path fill="#006837" d="M65.2,100.4H5v-4.6h60.2V100.4z M5.4,99.9h59.4v-3.7H5.4V99.9z"/>
<rect x="5.2" y="100.2" fill="#4CAF50" width="59.8" height="4.2"/>
<path fill="#006837" d="M65.2,104.5H5v-4.6h60.2V104.5z M5.4,104.1h59.4v-3.7H5.4V104.1z"/>
<rect x="5.2" y="104.3" fill="#4CAF50" width="59.8" height="4.2"/>
<path fill="#006837" d="M65.2,108.7H5v-4.6h60.2V108.7z M5.4,108.2h59.4v-3.7H5.4V108.2z"/>
<rect x="5.2" y="108" fill="#4CAF50" width="59.8" height="4.2"/>
<path fill="#006837" d="M65.2,112.4H5v-4.6h60.2V112.4z M5.4,112h59.4v-3.7H5.4V112z"/>
<ellipse fill="#006837" cx="14.2" cy="89.1" rx="2.4" ry="1.6"/>
<ellipse fill="#006837" cx="35.7" cy="89.1" rx="14.1" ry="3.6"/>
<path fill="#006837" d="M35.7,92.9c-7.1,0-14.4-1.4-14.4-3.9s7.3-3.9,14.4-3.9s14.4,1.4,14.4,3.9S42.8,92.9,35.7,92.9z M35.7,85.7
	c-8.3,0-13.9,1.7-13.9,3.4s5.6,3.4,13.9,3.4s13.9-1.8,13.9-3.4S44,85.7,35.7,85.7z"/>
<ellipse fill="#006837" cx="16.5" cy="84.9" rx="2.4" ry="1.6"/>
<ellipse fill="#006837" cx="12.2" cy="93.2" rx="2.4" ry="1.6"/>
<ellipse fill="#006837" cx="53.3" cy="84.9" rx="2.4" ry="1.6"/>
<ellipse fill="#006837" cx="55.6" cy="89.1" rx="2.4" ry="1.6"/>
<ellipse fill="#006837" cx="58" cy="93.2" rx="2.4" ry="1.6"/>
<path fill="#CCCCCC" d="M33.3,82.5h3.2c0,0,3.6,12.9,3.9,13.5S40,112.2,40,112.2h-8.9v-16L33.3,82.5z"/>
<path fill="#999999" d="M40.4,112.6h-9.7V96.1l2.2-14h3.9l0.1,0.3c1.5,5.2,3.7,13,3.9,13.5c0.3,0.6-0.2,11.6-0.4,16.3V112.6z
	 M31.6,111.8h8C39.9,106,40.2,97,40,96.2c-0.3-0.8-3.2-11-3.8-13.2h-2.6l-2.1,13.2L31.6,111.8z M40.1,96.2L40.1,96.2z"/>
<polygon fill="#4CAF50" points="28.4,89.2 20.7,102.9 80.2,102.9 73.2,89.3 "/>
<path fill="#006837" d="M80.6,103.1H20.4L28.3,89h0.1l44.9,0.2L80.6,103.1z M21.1,102.7h58.8L73,89.6l-44.5-0.2L21.1,102.7z"/>
<rect x="20.6" y="103.1" fill="#4CAF50" width="59.8" height="4.2"/>
<path fill="#006837" d="M80.6,107.4H20.4v-4.6h60.2V107.4z M20.8,107h59.4v-3.7H20.8V107z"/>
<rect x="20.6" y="107.2" fill="#4CAF50" width="59.8" height="4.2"/>
<path fill="#006837" d="M80.6,111.6H20.4V107h60.2V111.6z M20.8,111.1h59.4v-3.7H20.8V111.1z"/>
<rect x="20.6" y="111.3" fill="#4CAF50" width="59.8" height="4.2"/>
<path fill="#006837" d="M80.6,115.7H20.4v-4.6h60.2V115.7z M20.8,115.3h59.4v-3.7H20.8V115.3z"/>
<rect x="20.6" y="115.1" fill="#4CAF50" width="59.8" height="4.2"/>
<path fill="#006837" d="M80.6,119.4H20.4v-4.6h60.2V119.4z M20.8,119h59.4v-3.7H20.8V119z"/>
<ellipse fill="#006837" cx="29.6" cy="96.1" rx="2.4" ry="1.6"/>
<ellipse fill="#006837" cx="51.1" cy="96.1" rx="14.1" ry="3.6"/>
<path fill="#006837" d="M51.1,100c-7.1,0-14.4-1.4-14.4-3.9s7.3-3.9,14.4-3.9s14.4,1.4,14.4,3.9S58.2,100,51.1,100z M51.1,92.8
	c-8.3,0-13.9,1.7-13.9,3.4s5.6,3.4,13.8,3.4s14-1.9,14-3.5S59.4,92.7,51.1,92.8L51.1,92.8z"/>
<ellipse fill="#006837" cx="31.9" cy="92" rx="2.4" ry="1.6"/>
<ellipse fill="#006837" cx="27.5" cy="100.3" rx="2.4" ry="1.6"/>
<ellipse fill="#006837" cx="68.6" cy="92" rx="2.4" ry="1.6"/>
<ellipse fill="#006837" cx="70.9" cy="96.1" rx="2.4" ry="1.6"/>
<ellipse fill="#006837" cx="73.4" cy="100.3" rx="2.4" ry="1.6"/>
<path fill="#CCCCCC" d="M48.7,89.6h3.2c0,0,3.6,12.9,3.9,13.5s-0.4,16.1-0.4,16.1h-8.9v-16L48.7,89.6z"/>
<path fill="#999999" d="M55.8,119.6h-9.7v-16.5l2.2-14h3.9l0.1,0.3c1.5,5.2,3.7,13,3.9,13.5c0.3,0.6-0.2,11.6-0.4,16.3V119.6z
	 M46.9,118.8h8c0.3-5.8,0.6-14.8,0.4-15.6c-0.3-0.8-3.2-11-3.8-13.2L49,90l-2.1,13.3V118.8z M55.4,103.3L55.4,103.3z"/>
<rect x="97.5" y="52.6" fill="#FFF176" width="24.8" height="46.7"/>
<path fill="#93932B" d="M122.6,99.6H97.3V52.4h25.4v47.2H122.6z M97.8,99.1h24.3V52.9H97.8V99.1z"/>
<ellipse fill="#FFF176" cx="109.9" cy="99.2" rx="12.8" ry="5.4"/>
<path fill="#93932B" d="M109.9,104.8c-7.3,0-13.1-2.5-13.1-5.7s5.7-5.7,13.1-5.7S123,96,123,99.2S117.3,104.8,109.9,104.8z
	 M109.9,94c-6.9,0-12.6,2.3-12.6,5.1s5.6,5.1,12.6,5.1s12.6-2.3,12.6-5.1S116.9,94,109.9,94L109.9,94z"/>
<ellipse fill="#FFF176" cx="109.9" cy="95" rx="12.8" ry="5.4"/>
<path fill="#93932B" d="M109.9,100.6c-7.3,0-13.1-2.5-13.1-5.7s5.7-5.7,13.1-5.7S123,91.8,123,95S117.3,100.6,109.9,100.6z
	 M109.9,89.8c-6.9,0-12.6,2.3-12.6,5.1s5.6,5.1,12.6,5.1s12.5-2.3,12.5-5.1S116.9,89.8,109.9,89.8z"/>
<ellipse fill="#FFF176" cx="109.9" cy="90.8" rx="12.8" ry="5.4"/>
<path fill="#93932B" d="M109.9,96.4c-7.3,0-13.1-2.5-13.1-5.7s5.7-5.7,13.1-5.7s13.1,2.5,13.1,5.7S117.3,96.4,109.9,96.4z
	 M109.9,85.6c-6.9,0-12.6,2.3-12.6,5.1s5.6,5.2,12.6,5.2s12.6-2.3,12.6-5.2S116.9,85.6,109.9,85.6z"/>
<ellipse fill="#FFF176" cx="109.9" cy="86.6" rx="12.8" ry="5.4"/>
<path fill="#93932B" d="M109.9,92.3c-7.3,0-13.1-2.5-13.1-5.7s5.7-5.6,13.1-5.6s13.1,2.4,13.1,5.6S117.3,92.3,109.9,92.3z
	 M109.9,81.5c-6.9,0-12.6,2.3-12.6,5.1s5.6,5.1,12.6,5.1s12.6-2.3,12.6-5.1S116.9,81.5,109.9,81.5z"/>
<ellipse fill="#FFF176" cx="109.9" cy="82.4" rx="12.8" ry="5.4"/>
<path fill="#93932B" d="M109.9,88.1c-7.3,0-13.1-2.5-13.1-5.7s5.7-5.7,13.1-5.7s13.1,2.5,13.1,5.7S117.3,88.1,109.9,88.1z
	 M109.9,77.3c-6.9,0-12.6,2.3-12.6,5.1s5.6,5.1,12.6,5.1s12.6-2.3,12.6-5.1S116.9,77.3,109.9,77.3z"/>
<ellipse fill="#FFF176" cx="109.9" cy="78.2" rx="12.8" ry="5.4"/>
<path fill="#93932B" d="M109.9,83.9c-7.3,0-13.1-2.5-13.1-5.7s5.7-5.7,13.1-5.7S123,75,123,78.2S117.3,83.9,109.9,83.9z M109.9,73.1
	c-6.9,0-12.6,2.3-12.6,5.1s5.6,5.1,12.6,5.1s12.6-2.3,12.6-5.1S116.9,73.1,109.9,73.1z"/>
<ellipse fill="#FFF176" cx="109.9" cy="74.1" rx="12.8" ry="5.4"/>
<path fill="#93932B" d="M109.9,79.7c-7.3,0-13.1-2.5-13.1-5.7s5.7-5.7,13.1-5.7S123,70.8,123,74S117.3,79.7,109.9,79.7z M109.9,68.9
	c-6.9,0-12.6,2.3-12.6,5.1s5.6,5.1,12.6,5.1s12.6-2.3,12.6-5.1S116.9,68.9,109.9,68.9z"/>
<ellipse fill="#FFF176" cx="109.9" cy="69.9" rx="12.8" ry="5.4"/>
<path fill="#93932B" d="M109.9,75.5c-7.3,0-13.1-2.5-13.1-5.7s5.7-5.7,13.1-5.7s13.1,2.5,13.1,5.7S117.3,75.5,109.9,75.5z
	 M109.9,64.7c-6.9,0-12.6,2.3-12.6,5.1S103,75,109.9,75s12.6-2.3,12.6-5.1S116.9,64.7,109.9,64.7z"/>
<ellipse fill="#FFF176" cx="109.9" cy="65.7" rx="12.8" ry="5.4"/>
<path fill="#93932B" d="M109.9,71.3c-7.3,0-13.1-2.5-13.1-5.7s5.7-5.7,13.1-5.7s13.1,2.5,13.1,5.7C123,68.8,117.3,71.3,109.9,71.3z
	 M109.9,60.6c-6.9,0-12.6,2.3-12.6,5.1c0,2.8,5.6,5.1,12.6,5.1s12.6-2.3,12.6-5.1S116.9,60.6,109.9,60.6z"/>
<ellipse fill="#FFF176" cx="109.9" cy="61.5" rx="12.8" ry="5.4"/>
<path fill="#93932B" d="M109.9,67.2c-7.3,0-13.1-2.5-13.1-5.7s5.7-5.7,13.1-5.7s13.1,2.5,13.1,5.7S117.3,67.2,109.9,67.2z
	 M109.9,56.4c-6.9,0-12.6,2.3-12.6,5.1c0,2.8,5.6,5.1,12.6,5.1s12.6-2.3,12.6-5.1S116.9,56.4,109.9,56.4z"/>
<ellipse fill="#FFF176" cx="109.9" cy="57.3" rx="12.8" ry="5.4"/>
<path fill="#93932B" d="M109.9,63c-7.3,0-13.1-2.5-13.1-5.7s5.7-5.7,13.1-5.7s13.1,2.5,13.1,5.6S117.3,63,109.9,63z M109.9,52.2
	c-6.9,0-12.6,2.3-12.6,5.1s5.6,5.2,12.6,5.2s12.6-2.3,12.6-5.2S116.9,52.2,109.9,52.2L109.9,52.2z"/>
<ellipse fill="#FFF176" cx="109.9" cy="53.2" rx="12.8" ry="5.4"/>
<path fill="#93932B" d="M109.9,58.8c-7.3,0-13.1-2.5-13.1-5.7s5.7-5.7,13.1-5.7S123,50,123,53.2S117.3,58.8,109.9,58.8z M109.9,48
	c-6.9,0-12.6,2.3-12.6,5.1s5.6,5.1,12.6,5.1s12.6-2.3,12.6-5.1S116.9,48,109.9,48L109.9,48z"/>
<rect x="81.6" y="77.9" fill="#FFF176" width="24.8" height="29.6"/>
<path fill="#93932B" d="M106.7,107.8H81.4V77.7h25.4v30.1H106.7z M81.9,107.3h24.3V78.2H81.9V107.3z"/>
<ellipse fill="#FFF176" cx="94.1" cy="107.3" rx="12.8" ry="5.4"/>
<path fill="#93932B" d="M94.1,113c-7.3,0-13.1-2.5-13.1-5.7s5.7-5.7,13.1-5.7s13.1,2.5,13.1,5.7S101.4,113,94.1,113z M94.1,102.2
	c-6.9,0-12.6,2.3-12.6,5.1s5.6,5.1,12.6,5.1s12.6-2.3,12.6-5.1S101,102.2,94.1,102.2L94.1,102.2z"/>
<ellipse fill="#FFF176" cx="94.1" cy="103.2" rx="12.8" ry="5.4"/>
<path fill="#93932B" d="M94.1,108.8c-7.3,0-13.1-2.5-13.1-5.7s5.7-5.7,13.1-5.7s13.1,2.5,13.1,5.7S101.4,108.8,94.1,108.8z M94.1,98
	c-6.9,0-12.6,2.3-12.6,5.1s5.6,5.1,12.6,5.1s12.6-2.3,12.6-5.1S101,98,94.1,98L94.1,98z"/>
<ellipse fill="#FFF176" cx="94.1" cy="99" rx="12.8" ry="5.4"/>
<path fill="#93932B" d="M94.1,104.6c-7.3,0-13.1-2.5-13.1-5.6s5.7-5.7,13.1-5.7s13.1,2.5,13.1,5.7S101.4,104.6,94.1,104.6z
	 M94.1,93.8c-6.9,0-12.6,2.3-12.6,5.1s5.6,5.1,12.6,5.1s12.6-2.3,12.6-5.1S101,93.8,94.1,93.8z"/>
<ellipse fill="#FFF176" cx="94.1" cy="94.8" rx="12.8" ry="5.4"/>
<path fill="#93932B" d="M94.1,100.4c-7.3,0-13.1-2.4-13.1-5.7S86.7,89,94.1,89s13.1,2.5,13.1,5.7S101.4,100.4,94.1,100.4z
	 M94.1,89.7c-6.9,0-12.6,2.3-12.6,5.1s5.6,5.1,12.6,5.1s12.6-2.3,12.6-5.1S101,89.7,94.1,89.7z"/>
<ellipse fill="#FFF176" cx="94.1" cy="90.6" rx="12.8" ry="5.4"/>
<path fill="#93932B" d="M94.1,96.3c-7.3,0-13.1-2.5-13.1-5.7S86.7,85,94.1,85s13.1,2.5,13.1,5.7S101.4,96.3,94.1,96.3z M94.1,85.5
	c-6.9,0-12.6,2.3-12.6,5.1s5.6,5.1,12.6,5.1s12.6-2.3,12.6-5.1S101,85.5,94.1,85.5z"/>
<ellipse fill="#FFF176" cx="94.1" cy="86.4" rx="12.8" ry="5.4"/>
<path fill="#93932B" d="M94.1,92.1c-7.3,0-13.1-2.5-13.1-5.7s5.7-5.7,13.1-5.7s13.1,2.5,13.1,5.7S101.4,92.1,94.1,92.1z M94.1,81.3
	c-6.9,0-12.6,2.3-12.6,5.1s5.6,5.1,12.6,5.1s12.6-2.3,12.6-5.1S101,81.3,94.1,81.3z"/>
<ellipse fill="#FFF176" cx="94.1" cy="82.3" rx="12.8" ry="5.4"/>
<path fill="#93932B" d="M94.1,87.9c-7.3,0-13.1-2.5-13.1-5.7s5.7-5.7,13.1-5.7s13.1,2.5,13.1,5.7S101.4,87.9,94.1,87.9z M94.1,77.1
	c-6.9,0-12.6,2.3-12.6,5.2s5.6,5.1,12.6,5.1s12.6-2.3,12.6-5.1S101,77.1,94.1,77.1z"/>
<ellipse fill="#FFF176" cx="94.1" cy="78.1" rx="12.8" ry="5.4"/>
<path fill="#93932B" d="M94.1,83.7C86.8,83.7,81,81.2,81,78s5.7-5.7,13.1-5.7s13.1,2.5,13.1,5.7S101.4,83.7,94.1,83.7z M94.1,72.9
	c-6.9,0-12.6,2.3-12.6,5.1s5.6,5.2,12.6,5.2s12.6-2.3,12.6-5.2S101,72.9,94.1,72.9z"/>
</svg>
