<svg id="图层_173" data-name="图层 173" xmlns="http://www.w3.org/2000/svg" xmlns:xlink="http://www.w3.org/1999/xlink" viewBox="0 0 96 96"><defs><style>.cls-1{fill:#fff;}.cls-2{fill:url(#未命名的渐变_80);}.cls-3{fill:url(#未命名的渐变_74);}.cls-4{fill:url(#未命名的渐变_100);}.cls-5{fill:url(#未命名的渐变_90);}</style><linearGradient id="未命名的渐变_80" x1="42.54" y1="60.33" x2="92" y2="60.33" gradientUnits="userSpaceOnUse"><stop offset="0" stop-color="#f8d000"/><stop offset="1" stop-color="#dab000"/></linearGradient><linearGradient id="未命名的渐变_74" x1="9.77" y1="29.71" x2="87.52" y2="29.71" gradientUnits="userSpaceOnUse"><stop offset="0" stop-color="#e91b30"/><stop offset="1" stop-color="#ff486c"/></linearGradient><linearGradient id="未命名的渐变_100" x1="48" y1="32" x2="48" y2="64" gradientUnits="userSpaceOnUse"><stop offset="0" stop-color="#4faaf9"/><stop offset="1" stop-color="#2d7ccb"/></linearGradient><linearGradient id="未命名的渐变_90" x1="4" y1="58.79" x2="62.93" y2="58.79" gradientUnits="userSpaceOnUse"><stop offset="0" stop-color="#5dae52"/><stop offset="1" stop-color="#418b37"/></linearGradient></defs><title>96</title><g id="google"><g id="_96" data-name="96"><circle class="cls-1" cx="48" cy="48" r="44"/><path class="cls-2" d="M87.53,28.67l-32.1.77a20,20,0,0,1,7.42,31.93L42.54,91.65A44.71,44.71,0,0,0,48,92,44,44,0,0,0,87.53,28.67Z"/><path class="cls-3" d="M28,48A20,20,0,0,1,55.43,29.44l32.09-.79A44,44,0,0,0,9.77,26.22L29.44,55.43A19.94,19.94,0,0,1,28,48Z"/><circle class="cls-4" cx="48" cy="48" r="16"/><path class="cls-5" d="M62.93,61.28a20,20,0,0,1-34-7.35L10.27,26.54,10,25.91A44,44,0,0,0,42.73,91.68l20.2-30.29Z"/></g></g></svg>