<?xml version="1.0" encoding="utf-8"?>
<!-- Generator: Adobe Illustrator 24.0.0, SVG Export Plug-In . SVG Version: 6.00 Build 0)  -->
<svg version="1.1" id="图层_1" xmlns="http://www.w3.org/2000/svg" xmlns:xlink="http://www.w3.org/1999/xlink" x="0px" y="0px"
	 viewBox="0 0 128 128" enable-background="new 0 0 128 128" xml:space="preserve">
<title>grhino-112</title>
<path fill="#388E3C" d="M20,8h88c6.6,0,12,5.4,12,12v88c0,6.6-5.4,12-12,12H20c-6.6,0-12-5.4-12-12V20C8,13.4,13.4,8,20,8z"/>
<rect x="8" y="63.4" width="112" height="1.3"/>
<rect x="63.4" y="8" width="1.3" height="111.8"/>
<path d="M112.9,15.1v97.7H15.1V15.1H112.9 M114.1,13.9H13.9v100.3h100.3C114.2,114.2,114.2,13.9,114.1,13.9z"/>
<path fill="#FF9800" d="M107.8,13.1c3.9,0,7.1,3.2,7.1,7.1v87.6c0,3.9-3.2,7.1-7.1,7.1H20.2c-3.9,0-7.1-3.2-7.1-7.1V20.2
	c0-3.9,3.2-7.1,7.1-7.1H107.8 M107.8,8H20.2C13.5,8,8,13.5,8,20.2v87.6c0,6.7,5.5,12.2,12.2,12.2h87.6c6.7,0,12.2-5.5,12.2-12.2
	V20.2C120,13.5,114.5,8,107.8,8z"/>
<circle fill="#263238" cx="88.9" cy="39.8" r="20.8"/>
<circle fill="#212121" cx="88.9" cy="39.8" r="16.3"/>
<path fill="#616161" d="M101.1,28.9c5.3,7.3,3.7,17.5-3.6,22.8c-6.8,5-16.3,3.9-21.9-2.4c5.3,7.3,15.5,8.9,22.8,3.6
	c7.3-5.3,8.9-15.5,3.6-22.8C101.8,29.7,101.5,29.3,101.1,28.9z"/>
<path d="M76.6,50.6c-5.3-7.3-3.7-17.5,3.6-22.8c6.8-5,16.3-3.9,21.9,2.4c-5.3-7.3-15.5-8.9-22.8-3.6c-7.3,5.3-8.9,15.5-3.6,22.8
	C76,49.8,76.3,50.2,76.6,50.6z"/>
<circle fill="#FFFFFF" cx="88.9" cy="88.5" r="20.8"/>
<circle fill="#CFD8DC" cx="88.9" cy="88.5" r="16.3"/>
<path fill="#9E9E9E" d="M101.1,77.7c5.3,7.3,3.6,17.5-3.7,22.8c-6.8,4.9-16.2,3.8-21.8-2.4c5.3,7.3,15.5,9,22.8,3.7s9-15.5,3.7-22.8
	C101.8,78.5,101.5,78.1,101.1,77.7z"/>
<path fill="#616161" d="M76.6,99.3C71.4,92,73,81.8,80.4,76.5c6.8-4.9,16.2-3.8,21.8,2.4c-5.3-7.3-15.5-9-22.8-3.7s-9,15.5-3.7,22.8
	C75.9,98.5,76.3,98.9,76.6,99.3z"/>
<circle fill="#263238" cx="38.6" cy="88.5" r="20.8"/>
<circle fill="#212121" cx="38.6" cy="88.5" r="16.3"/>
<path fill="#616161" d="M50.8,77.7c5.3,7.3,3.6,17.5-3.7,22.8c-6.8,4.9-16.2,3.8-21.8-2.4c5.3,7.3,15.5,9,22.8,3.7s9-15.5,3.7-22.8
	C51.5,78.5,51.2,78.1,50.8,77.7z"/>
<path d="M26.3,99.3C21,92,22.7,81.8,30,76.5c6.8-4.9,16.2-3.8,21.8,2.4c-5.3-7.3-15.5-9-22.8-3.7S20,90.7,25.3,98
	C25.6,98.5,26,98.9,26.3,99.3z"/>
<circle fill="#FFFFFF" cx="38.6" cy="39.8" r="20.8"/>
<circle fill="#CFD8DC" cx="38.6" cy="39.8" r="16.3"/>
<path fill="#9E9E9E" d="M50.8,28.9c5.3,7.3,3.7,17.5-3.6,22.8c-6.8,5-16.3,3.9-21.9-2.4c5.3,7.3,15.5,8.9,22.8,3.6
	s8.9-15.5,3.6-22.8C51.5,29.7,51.2,29.3,50.8,28.9z"/>
<path fill="#616161" d="M26.3,50.6C21,43.3,22.7,33.1,30,27.8c6.8-5,16.3-3.9,21.9,2.4c-5.3-7.3-15.5-8.9-22.8-3.6
	s-8.9,15.5-3.6,22.8C25.7,49.8,26,50.2,26.3,50.6z"/>
</svg>
