<?xml version="1.0" encoding="utf-8"?>
<!-- Generator: Adobe Illustrator 24.0.0, SVG Export Plug-In . SVG Version: 6.00 Build 0)  -->
<svg version="1.1" id="图层_1" xmlns="http://www.w3.org/2000/svg" xmlns:xlink="http://www.w3.org/1999/xlink" x="0px" y="0px"
	 viewBox="0 0 128 128" enable-background="new 0 0 128 128" xml:space="preserve">
<title>gthumb-112</title>
<polygon fill="#F5F5F5" points="97.3,64.1 25.8,80.6 14.1,29.5 85.6,13 "/>
<linearGradient id="SVGID_1_" gradientUnits="userSpaceOnUse" x1="70.7582" y1="-64.6109" x2="70.7582" y2="-111.6156" gradientTransform="matrix(0.9746 -0.2241 0.2241 0.9746 6.4934 148.5674)">
	<stop  offset="0" style="stop-color:#CCE0F4"/>
	<stop  offset="0" style="stop-color:#CADBEB"/>
	<stop  offset="0" style="stop-color:#C5CCD1"/>
	<stop  offset="0" style="stop-color:#BDB5A8"/>
	<stop  offset="0" style="stop-color:#B2956F"/>
	<stop  offset="0" style="stop-color:#AA7D45"/>
	<stop  offset="0.55" style="stop-color:#A69693"/>
	<stop  offset="0.89" style="stop-color:#4264A1"/>
</linearGradient>
<polygon fill="url(#SVGID_1_)" points="93.8,62.1 28.1,77.3 17.6,31.5 83.3,16.3 "/>
<rect x="29.4" y="30.9" fill="#F5F5F5" width="73.3" height="52.4"/>
<linearGradient id="SVGID_2_" gradientUnits="userSpaceOnUse" x1="66" y1="48.65" x2="66" y2="1.65" gradientTransform="matrix(1 0 0 1 0 32)">
	<stop  offset="0" style="stop-color:#CCE0F4"/>
	<stop  offset="0" style="stop-color:#CAD9EB"/>
	<stop  offset="0" style="stop-color:#C5C5D1"/>
	<stop  offset="0" style="stop-color:#BCA4A8"/>
	<stop  offset="0" style="stop-color:#B1786F"/>
	<stop  offset="0" style="stop-color:#AA5F4F"/>
	<stop  offset="0.48" style="stop-color:#B26945"/>
	<stop  offset="0.89" style="stop-color:#B98D50"/>
</linearGradient>
<rect x="32.3" y="33.7" fill="url(#SVGID_2_)" width="67.4" height="47"/>
<polygon fill="#F5F5F5" points="108.8,100.6 37.2,84.9 48.3,33.7 120,49.4 "/>
<linearGradient id="SVGID_3_" gradientUnits="userSpaceOnUse" x1="115.5441" y1="150.3182" x2="115.5441" y2="103.3357" gradientTransform="matrix(0.9769 0.2137 -0.2137 0.9769 -7.1721 -81.439)">
	<stop  offset="0" style="stop-color:#CCE0F4"/>
	<stop  offset="0" style="stop-color:#CDDDEB"/>
	<stop  offset="0" style="stop-color:#D0D5D1"/>
	<stop  offset="0" style="stop-color:#D5C8A7"/>
	<stop  offset="0" style="stop-color:#DCB66E"/>
	<stop  offset="0" style="stop-color:#E59F25"/>
	<stop  offset="0" style="stop-color:#E99300"/>
	<stop  offset="0.1" style="stop-color:#E29E1B"/>
	<stop  offset="0.48" style="stop-color:#C9C57F"/>
	<stop  offset="0.89" style="stop-color:#3F88DA"/>
</linearGradient>
<polygon fill="url(#SVGID_3_)" points="106.5,97.3 40.7,82.9 50.7,37 116.5,51.4 "/>
<path fill="#A4AD34" d="M66.4,60.7c0.9-1.6-0.2-2.3,0.8-5.1c0.5-1.7,1.5-3.2,2.8-4.2c1.2-1,2.8-1.5,4.4-1.5c3.1,0.2,5,2.9,5.3,3.2
	c1.5,2.2,1.2,4.2,2.5,4.5c0.6,0.2,0.9-0.3,2-0.7c2.1-0.5,4.4-0.3,6.4,0.5c1.5,0.6,2.7,1.5,3.7,2.7c1.4,1.3,2.2,3.1,2.3,5
	c0.1,1.2-0.2,2.4-0.9,3.4c-0.7,0.9-1.5,1.8-1.5,1.8c0.6,0.5,1.1,1,1.6,1.6c1.6,1.8,1.9,2.3,1.9,4.5c0.1,1.5-0.4,3-1.2,4.2
	c-0.2,0.5-2.8,5.2-4.2,4.8c-0.4-0.1-0.6-0.8-1.1-2.1C91,82.4,90.6,81.6,90,81c-0.7-0.7-0.9-1-2.8-1.4c-4.4-1.1-4.6-1.8-5.8-1.4
	c-0.8,0.3-1.2,0-3.1,2.4c-1.1,1.5-1.6,1.9-2.9,1.8c-2.2-0.2-4.4-3.6-5.3-5.9c-1.1-2.5-1-4.3-2-4.5c-0.8-0.2-1.3,0.9-2.7,2
	c-2.9,2.2-7.3,2.6-8.3,1.2c-1-1-1.3-2.5-0.9-3.8c0.5-2.2,1.9-5.2,3.4-6.4C62.5,62.7,65,63.4,66.4,60.7z"/>
<path fill="#ED722B" d="M76.3,58.5c0.4-0.3,1.3-2.5,3.6-4c1.1-0.9,2.5-1.2,3.9-1c2,0.6,3.3,3.1,3.5,5.2c0.2,1.7,0.2,3.6,0.2,3.6
	s1,0.5,2.7,1.4c1.5,0.7,2.8,1.7,3.9,2.9c1,1.1,1.8,1.9,1.6,2.7c-0.3,1-2,1.5-3.1,1.6c-1.7,0.1-3.2-0.6-5.3-0.6
	c-0.4-0.1-0.8,0.1-1.2,0.4c-0.2,0.3-0.3,0.8-0.3,1.2c0.1,1.3,0.3,2.6,0.3,3.8c0.1,1.4,0,2.8-0.2,4.1c-0.1,1.5-0.5,3-1.1,4.4
	c-0.3,0.6-0.4,0.9-0.6,0.9c-1.2,0.2-5-6.8-6.6-10.5c-0.2-0.5-0.8-0.8-1.3-0.6c0,0-0.1,0-0.1,0.1c-1.8,1.2-2.4,1.4-5.3,2.9
	c-2.2,1.2-3.4,2.3-4.2,1.9c-1-0.6-0.4-3.1-0.1-4.4c0.4-1.5,1-3,1.8-4.4c0.8-1.2,1.7-2.3,2.7-3.3c0.4-0.5-0.4-1.2-1.3-1.7
	c-1.6-0.6-3.1-1.5-4.4-2.6c-0.3-0.3-1.7-1.6-1.4-2.7c0.5-1.5,4.2-1.5,5.3-1.5C71.6,57.9,74,58.1,76.3,58.5z"/>
<ellipse transform="matrix(0.2166 -0.9763 0.9763 0.2166 -2.0905 129.3168)" fill="#ED6135" cx="79.5" cy="66" rx="4.7" ry="5.8"/>
<ellipse transform="matrix(0.2147 -0.9767 0.9767 0.2147 -4.0793 130.4862)" fill="#D46135" cx="79.1" cy="67.8" rx="2.9" ry="5.3"/>
<linearGradient id="SVGID_4_" gradientUnits="userSpaceOnUse" x1="115.8142" y1="127.0479" x2="115.8142" y2="116.5829" gradientTransform="matrix(0.9769 0.2137 -0.2137 0.9769 -7.1721 -81.439)">
	<stop  offset="0" style="stop-color:#CCE0F4"/>
	<stop  offset="0" style="stop-color:#CDDEEB;stop-opacity:0.98"/>
	<stop  offset="0" style="stop-color:#D1D8D4;stop-opacity:0.92"/>
	<stop  offset="0" style="stop-color:#D7CFAF;stop-opacity:0.83"/>
	<stop  offset="0" style="stop-color:#E0C27B;stop-opacity:0.7"/>
	<stop  offset="0" style="stop-color:#EBB239;stop-opacity:0.54"/>
	<stop  offset="0" style="stop-color:#EDAF2B;stop-opacity:0.5"/>
	<stop  offset="8.000000e-02" style="stop-color:#EDAF2B;stop-opacity:0.58"/>
	<stop  offset="0.55" style="stop-color:#EDAF2B"/>
	<stop  offset="0.89" style="stop-color:#EDAF2B"/>
</linearGradient>
<path fill="url(#SVGID_4_)" d="M78.5,67.3L78.5,67.3c-0.2-0.1-0.4-0.3-0.3-0.6l2.6-9.2c0.1-0.2,0.4-0.3,0.6-0.2s0.3,0.3,0.3,0.5
	L79.1,67C79,67.2,78.8,67.4,78.5,67.3C78.6,67.4,78.5,67.4,78.5,67.3z"/>
<linearGradient id="SVGID_5_" gradientUnits="userSpaceOnUse" x1="119.3219" y1="127.3979" x2="119.3219" y2="121.3678" gradientTransform="matrix(0.9769 0.2137 -0.2137 0.9769 -7.1721 -81.439)">
	<stop  offset="0" style="stop-color:#CCE0F4"/>
	<stop  offset="0" style="stop-color:#CDDEEB;stop-opacity:0.98"/>
	<stop  offset="0" style="stop-color:#D1D8D4;stop-opacity:0.92"/>
	<stop  offset="0" style="stop-color:#D7CFAF;stop-opacity:0.83"/>
	<stop  offset="0" style="stop-color:#E0C27B;stop-opacity:0.7"/>
	<stop  offset="0" style="stop-color:#EBB239;stop-opacity:0.54"/>
	<stop  offset="0" style="stop-color:#EDAF2B;stop-opacity:0.5"/>
	<stop  offset="8.000000e-02" style="stop-color:#EDAF2B;stop-opacity:0.58"/>
	<stop  offset="0.55" style="stop-color:#EDAF2B"/>
	<stop  offset="0.89" style="stop-color:#EDAF2B"/>
</linearGradient>
<path fill="url(#SVGID_5_)" d="M80.6,68.2c-0.1,0-0.2-0.1-0.2-0.1c-0.2-0.2-0.2-0.5,0-0.6l0,0l4.2-4.3c0.2-0.2,0.4-0.2,0.6,0
	s0.2,0.4,0,0.6l0,0L81,68C80.9,68.1,80.7,68.2,80.6,68.2z"/>
<linearGradient id="SVGID_6_" gradientUnits="userSpaceOnUse" x1="112.1936" y1="127.385" x2="112.1936" y2="122.315" gradientTransform="matrix(0.9769 0.2137 -0.2137 0.9769 -7.1721 -81.439)">
	<stop  offset="0" style="stop-color:#CCE0F4"/>
	<stop  offset="0" style="stop-color:#CDDEEB;stop-opacity:0.98"/>
	<stop  offset="0" style="stop-color:#D1D8D4;stop-opacity:0.92"/>
	<stop  offset="0" style="stop-color:#D7CFAF;stop-opacity:0.83"/>
	<stop  offset="0" style="stop-color:#E0C27B;stop-opacity:0.7"/>
	<stop  offset="0" style="stop-color:#EBB239;stop-opacity:0.54"/>
	<stop  offset="0" style="stop-color:#EDAF2B;stop-opacity:0.5"/>
	<stop  offset="8.000000e-02" style="stop-color:#EDAF2B;stop-opacity:0.58"/>
	<stop  offset="0.55" style="stop-color:#EDAF2B"/>
	<stop  offset="0.89" style="stop-color:#EDAF2B"/>
</linearGradient>
<path fill="url(#SVGID_6_)" d="M76.5,67.3c-0.1,0-0.3-0.1-0.3-0.3l-1.8-4.7c-0.1-0.2,0-0.5,0.3-0.6c0.2-0.1,0.5,0,0.6,0.3l0,0
	l1.8,4.7c0.1,0.2,0,0.5-0.3,0.6C76.7,67.3,76.6,67.3,76.5,67.3z"/>
<path fill="#4A148C" d="M14.1,114c-0.1-0.1-0.2-0.2-0.4-0.3l-4.6-4.9c-0.2-0.2-0.4-0.5-0.6-0.8c-1-1.8-0.6-4.1,1-5.4l29-23.7
	l2.1,2.2l2.3,2.3l2.5,2.6L20,113.6C18.6,115.3,15.9,115.5,14.1,114z"/>
<path fill="#8B6AD3" d="M40.7,81.1L8.6,108c-1-1.8-0.6-4.1,1-5.4l29-23.7L40.7,81.1z"/>
<path fill="#4B0067" d="M14.1,114L43,83.4l2.5,2.6l-25.4,27.6C18.6,115.3,15.9,115.5,14.1,114z"/>
<path fill="#BDAAE8" d="M83.7,42.5c-11.5-12-30.6-12.5-42.6-1S28.6,72.1,40,84.1c11.5,12,30.5,12.5,42.6,1.1
	C94.7,73.9,95.3,54.9,84,42.8C83.9,42.7,83.8,42.6,83.7,42.5z M61.2,89c-14.2-0.4-25.3-12.2-25-26.3c0.4-14.2,12.2-25.3,26.3-25
	s25.3,12.2,25,26.3c-0.2,6.8-3.1,13.3-8,18S68,89.2,61.2,89z"/>
<path fill="#4A148C" d="M82.1,44.1c10.5,11.2,10,28.8-1.1,39.3s-28.8,10.1-39.3-1.1S31.6,53.5,42.8,43c5.3-5.1,12.5-7.8,19.8-7.6
	C70,35.6,77,38.7,82.1,44.1 M83.7,42.6C72.2,30.5,53.1,30,41.1,41.5S28.6,72.1,40,84.1c11.5,12,30.5,12.5,42.6,1.1
	C94.7,73.9,95.3,54.9,84,42.8C83.9,42.7,83.8,42.6,83.7,42.6z"/>
<path opacity="0.38" fill="#945CFF" enable-background="new    " d="M79.5,82c-10.3,9.8-26.6,9.4-36.4-0.9S33.7,54.5,44,44.7
	s26.6-9.4,36.4,0.9c4.7,5,7.3,11.6,7.1,18.4C87.3,70.9,84.5,77.3,79.5,82z"/>
<path fill="#FFFFFF" d="M39.5,61.4c0,1,0.8,1.8,1.7,1.8h0.1c1,0,1.8-0.8,1.8-1.8l0,0c0-1.4,0.2-2.9,0.6-4.2c0.3-0.9-0.2-1.8-1-2.2
	l0,0c-0.9-0.4-2,0.1-2.3,1c0,0.1,0,0.1-0.1,0.2C39.8,57.9,39.5,59.7,39.5,61.4z"/>
<path fill="#FFFFFF" d="M64.6,41.5c-0.1-1-1-1.7-2-1.6h-0.5c-3.7,0.1-7.3,1.1-10.5,2.8h-0.1c-2.5,1.4-6.3,3.5-8.7,8L42.7,51
	c-0.5,0.9-0.1,2,0.8,2.4c0.1,0,0.1,0.1,0.2,0.1l0,0c0.8,0.3,1.8-0.1,2.2-0.9c0-0.1,0.1-0.2,0.1-0.3c2-3.5,5-5.1,7.3-6.5h0.1
	c2.8-1.4,5.9-2.2,9.1-2.3H63C63.9,43.5,64.7,42.6,64.6,41.5C64.6,41.6,64.6,41.6,64.6,41.5z"/>
</svg>
