<?xml version="1.0" encoding="utf-8"?>
<!-- Generator: Adobe Illustrator 24.0.0, SVG Export Plug-In . SVG Version: 6.00 Build 0)  -->
<svg version="1.1" id="图层_1" xmlns="http://www.w3.org/2000/svg" xmlns:xlink="http://www.w3.org/1999/xlink" x="0px" y="0px"
	 viewBox="0 0 128 128" enable-background="new 0 0 128 128" xml:space="preserve">
<title>gupnp-tools-112</title>
<path fill="#444B3D" d="M89.2,12.3c-1.1-0.5-2.2-0.8-3.4-0.8H49.4c-4.8,0-8.8,4.3-8.8,9.5l1.2,25.6c0.6,13.3,0.6,26.7,0,40
	l-1.2,25.7c0,2,0.6,4,1.8,5.7c-3.3-1.6-5.4-5-5.4-8.7l1.2-25.7c0.6-13.3,0.6-26.7,0-40L37,18c0-5.2,4-9.5,8.8-9.5h36.4
	C85,8.5,87.6,10,89.2,12.3z"/>
<path fill="#444B3D" d="M89.8,83.2l1.2,26.1c0.1,3.6-1.9,7-5.2,8.6c1.1-1.6,1.6-3.5,1.6-5.5l-1.2-26.1c-0.6-13-0.6-26.1,0-39.1
	l1.2-26.1c0.1-3.7-2-7.1-5.4-8.7c-1.1-0.5-2.2-0.8-3.4-0.8H48c0.4-0.1,0.9-0.1,1.3-0.1h36.5c1.2,0,2.3,0.3,3.4,0.8
	C90.4,14,91,16,91,18l-1.2,26.1C89.2,57.1,89.2,70.1,89.8,83.2z"/>
<path fill="#60655A" d="M86.3,86.3l1.2,26.1c0,2-0.6,3.9-1.6,5.5c-1.1,0.6-2.4,0.9-3.6,0.8l-9.6,0.5c-5.7,0.3-11.5,0.3-17.2,0
	l-9.7-0.5c-1.2,0-2.3-0.3-3.4-0.8c-1.2-1.7-1.8-3.7-1.8-5.7l1.2-25.7c0.6-13.3,0.6-26.7,0-40L40.6,21c-0.1-4.5,3-8.4,7.4-9.4h30.7
	c1.2,0,2.3,0.3,3.4,0.8c3.3,1.6,5.4,5,5.4,8.7l-1.2,26.1C85.7,60.2,85.7,73.3,86.3,86.3z"/>
<path fill="#666A60" d="M90.6,14.9c-0.8-2.5-2.5-4.5-4.9-5.7c-1.1-0.5-2.2-0.7-3.4-0.8H45.8c-3.9,0.1-7.2,2.7-8.3,6.4h53.1V14.9z"/>
<ellipse fill="#444B3D" cx="78.7" cy="25.3" rx="3.6" ry="3.6"/>
<path fill="#444B3D" d="M69.3,45.7h10.9c1.1,0,1.9-0.9,1.9-1.9l0,0v-1.5c0-1.1-0.8-1.9-1.9-1.9l0,0H69.3c-1.1,0-1.9,0.9-1.9,1.9v1.5
	C67.3,44.8,68.2,45.7,69.3,45.7L69.3,45.7z"/>
<path fill="#444B3D" d="M80.2,66.1h-3.5c-1.2,0-2.1,0.9-2.1,2.1l0,0v2.6c0,1.2,0.9,2.1,2.1,2.1l0,0h3.5c1.2,0,2.1-0.9,2.1-2.1l0,0
	v-2.6C82.2,67.1,81.3,66.1,80.2,66.1L80.2,66.1z"/>
<path fill="#444B3D" d="M67.4,64.5h-8.2c-1.2,0-2.1,0.9-2.1,2.1l0,0v5.7c0,1.2,0.9,2.1,2.1,2.1h8.2c1.2,0,2.1-0.9,2.1-2.1v-5.7
	C69.5,65.5,68.6,64.5,67.4,64.5z"/>
<path fill="#444B3D" d="M50,66.1h-3.5c-1.2,0-2.1,0.9-2.1,2.1l0,0v2.6c0,1.2,0.9,2.1,2.1,2.1l0,0H50c1.2,0,2.1-0.9,2.1-2.1v-2.6
	C52.1,67.1,51.2,66.1,50,66.1z"/>
<path fill="#444B3D" d="M71.8,47.2h-2.6c-1.1,0-1.9,0.9-1.9,1.9v1.5c0,1.1,0.8,1.9,1.9,1.9l0,0h2.6c1.1,0,1.9-0.9,1.9-1.9l0,0v-1.5
	C73.7,48.1,72.9,47.2,71.8,47.2z"/>
<path fill="#444B3D" d="M82.1,49.1c0-1.1-0.8-1.9-1.9-1.9l0,0h-2.5c-1.1,0-1.9,0.9-1.9,1.9v1.5c0,1.1,0.8,1.9,1.9,1.9l0,0h2.6
	c1.1,0,1.9-0.9,1.9-1.9l0,0L82.1,49.1z"/>
<path fill="#444B3D" d="M71.8,54h-2.6c-1.1,0-1.9,0.9-1.9,1.9l0,0v1.5c0,1.1,0.9,1.9,1.9,1.9h2.6c1.1,0,1.9-0.9,1.9-1.9V56
	C73.8,54.9,72.9,54.1,71.8,54C71.8,54.1,71.8,54,71.8,54z"/>
<path fill="#444B3D" d="M80.2,54h-2.6c-1.1,0-1.9,0.9-1.9,1.9l0,0v1.5c0,1.1,0.9,1.9,1.9,1.9h2.6c1.1,0,1.9-0.9,1.9-1.9l0,0V56
	C82.1,54.9,81.3,54.1,80.2,54C80.2,54.1,80.2,54,80.2,54z"/>
<ellipse fill="#444B3D" cx="48.3" cy="36.2" rx="2.5" ry="2.7"/>
<ellipse fill="#444B3D" cx="55.4" cy="36.2" rx="2.5" ry="2.7"/>
<path fill="#444B3D" d="M62.5,38.8c1.5,0.1,2.8-1,2.9-2.5s-1-2.8-2.5-2.9c-1.5-0.1-2.8,1-2.9,2.5c0,0.1,0,0.1,0,0.2
	C60,37.6,61.1,38.8,62.5,38.8z"/>
<ellipse fill="#444B3D" cx="48.3" cy="43" rx="2.5" ry="2.7"/>
<ellipse fill="#444B3D" cx="55.4" cy="43" rx="2.5" ry="2.7"/>
<path fill="#444B3D" d="M62.5,45.7c1.5,0.1,2.8-1,2.9-2.5s-1-2.8-2.5-2.9c-1.5-0.1-2.8,1-2.9,2.5c0,0.1,0,0.1,0,0.2
	C60,44.4,61.1,45.6,62.5,45.7L62.5,45.7z"/>
<ellipse fill="#444B3D" cx="48.3" cy="49.9" rx="2.5" ry="2.7"/>
<ellipse fill="#444B3D" cx="55.4" cy="49.9" rx="2.5" ry="2.7"/>
<path fill="#444B3D" d="M62.5,52.5c1.5,0.1,2.8-1,2.9-2.5s-1-2.8-2.5-2.9c-1.5-0.1-2.8,1-2.9,2.5c0,0.1,0,0.1,0,0.2
	C60,51.3,61.1,52.5,62.5,52.5z"/>
<ellipse fill="#444B3D" cx="55.4" cy="56.7" rx="2.5" ry="2.7"/>
<path fill="#444B3D" d="M62.5,59.4c1.5,0.1,2.8-1,2.9-2.5s-1-2.8-2.5-2.9c-1.5-0.1-2.8,1-2.9,2.5c0,0.1,0,0.1,0,0.2
	C60,58.1,61.1,59.3,62.5,59.4z"/>
<ellipse fill="#444B3D" cx="48.3" cy="56.7" rx="2.5" ry="2.7"/>
<path fill="#444B3D" d="M69.3,38.8h2.6c1.1,0,1.9-0.9,1.9-1.9l0,0v-1.5c0-1.1-0.8-1.9-1.9-1.9l0,0h-2.6c-1.1,0-1.9,0.9-1.9,1.9l0,0
	v1.5C67.3,38,68.2,38.8,69.3,38.8L69.3,38.8z"/>
<path fill="#444B3D" d="M77.6,33.5c-1.1,0-1.9,0.9-1.9,1.9l0,0v1.5c0,1.1,0.8,1.9,1.9,1.9l0,0h2.6c1.1,0,1.9-0.9,1.9-1.9l0,0v-1.5
	c0-1.1-0.8-1.9-1.9-1.9l0,0H77.6z"/>
<ellipse fill="#B71C1C" cx="78.4" cy="25.1" rx="3.6" ry="3.6"/>
<path fill="#FFFFFF" d="M79.6,24.1c0.5,0.7,0.3,1.7-0.4,2.2c-0.7,0.5-1.7,0.3-2.2-0.4c-0.4-0.5-0.4-1.3,0-1.8c0.1-0.1,0-0.2-0.1-0.3
	h-0.1l0,0c-0.1,0-0.1,0-0.2,0.1c-0.7,0.9-0.5,2.1,0.4,2.8c0.9,0.7,2.1,0.5,2.8-0.4c0.3-0.4,0.4-0.8,0.4-1.3c0-0.4-0.1-0.8-0.3-1.2
	c0,0-0.1-0.1-0.2-0.1l0,0c-0.1,0-0.2,0.1-0.2,0.2C79.6,24,79.6,24,79.6,24.1z"/>
<path fill="#FFFFFF" d="M78.4,25.3c-0.1,0-0.2-0.1-0.2-0.2v-1.7c0-0.1,0.1-0.2,0.2-0.2s0.2,0.1,0.2,0.2v1.7
	C78.6,25.2,78.5,25.3,78.4,25.3L78.4,25.3z"/>
<path fill="#9EA09C" d="M69,45.4h10.9c1.1,0,1.9-0.9,1.9-1.9l0,0V42c0-1.1-0.8-1.9-1.9-1.9l0,0H69c-1.1,0-1.9,0.8-1.9,1.9l0,0v1.5
	C67,44.6,67.9,45.4,69,45.4L69,45.4z"/>
<path fill="#9EA09C" d="M79.8,65.9h-3.5c-1.2,0-2.1,0.9-2.1,2.1l0,0v2.6c0,1.2,0.9,2.1,2.1,2.1l0,0h3.5c1.2,0,2.1-0.9,2.1-2.1V68
	C81.9,66.8,81,65.9,79.8,65.9C79.9,65.9,79.9,65.9,79.8,65.9z"/>
<path fill="#9EA09C" d="M67.1,64.3H59c-1.2,0-2.1,0.9-2.1,2.1l0,0v5.7c0,1.2,0.9,2.1,2.1,2.1l0,0h8.2c1.2,0,2.1-0.9,2.1-2.1l0,0
	v-5.7C69.2,65.2,68.3,64.3,67.1,64.3L67.1,64.3z"/>
<path fill="#9EA09C" d="M49.7,65.9h-3.5c-1.2,0-2.1,1-2.1,2.1l0,0v2.6c0,1.2,0.9,2.1,2.1,2.1h3.5c1.2,0,2.1-0.9,2.1-2.1l0,0V68
	C51.8,66.8,50.8,65.9,49.7,65.9L49.7,65.9z"/>
<path fill="#9EA09C" d="M71.5,46.9H69c-1.1,0-1.9,0.9-1.9,1.9l0,0v1.5c0,1.1,0.8,1.9,1.9,1.9l0,0h2.6c1.1,0,1.9-0.9,1.9-1.9l0,0
	v-1.5C73.5,47.8,72.6,46.9,71.5,46.9L71.5,46.9z"/>
<path fill="#9EA09C" d="M81.8,48.9c0-1.1-0.9-1.9-1.9-1.9l0,0h-2.5c-1.1,0-1.9,0.9-1.9,1.9l0,0v1.5c0,1.1,0.8,1.9,1.9,1.9l0,0h2.5
	c1.1,0,1.9-0.9,1.9-1.9l0,0V48.9z"/>
<path fill="#9EA09C" d="M71.5,53.8H69c-1.1,0-1.9,0.9-1.9,1.9v1.5c0,1.1,0.9,1.9,1.9,1.9h2.6c1.1,0,1.9-0.9,1.9-1.9v-1.5
	C73.5,54.7,72.6,53.8,71.5,53.8L71.5,53.8z"/>
<path fill="#9EA09C" d="M79.9,53.8h-2.5c-1.1,0-1.9,0.9-1.9,1.9v1.5c0,1.1,0.9,1.9,1.9,1.9h2.5c1.1,0,1.9-0.9,1.9-1.9v-1.5
	C81.8,54.7,80.9,53.8,79.9,53.8z"/>
<ellipse fill="#9EA09C" cx="48" cy="35.9" rx="2.5" ry="2.7"/>
<ellipse fill="#9EA09C" cx="55.1" cy="35.9" rx="2.5" ry="2.7"/>
<ellipse fill="#9EA09C" cx="62.2" cy="35.9" rx="2.5" ry="2.7"/>
<ellipse fill="#9EA09C" cx="48" cy="42.8" rx="2.5" ry="2.7"/>
<ellipse fill="#9EA09C" cx="55.1" cy="42.8" rx="2.5" ry="2.7"/>
<ellipse fill="#9EA09C" cx="62.2" cy="42.8" rx="2.5" ry="2.7"/>
<ellipse fill="#9EA09C" cx="48" cy="49.6" rx="2.5" ry="2.7"/>
<ellipse fill="#9EA09C" cx="55.1" cy="49.6" rx="2.5" ry="2.7"/>
<ellipse fill="#9EA09C" cx="62.2" cy="49.6" rx="2.5" ry="2.7"/>
<ellipse fill="#9EA09C" cx="55.1" cy="56.5" rx="2.5" ry="2.7"/>
<ellipse fill="#9EA09C" cx="62.2" cy="56.5" rx="2.5" ry="2.7"/>
<ellipse fill="#9EA09C" cx="48" cy="56.5" rx="2.5" ry="2.7"/>
<path fill="#9EA09C" d="M69,38.6h2.6c1.1,0,1.9-0.9,1.9-1.9l0,0v-1.5c0-1.1-0.8-1.9-1.9-1.9l0,0H69c-1.1,0-1.9,0.9-1.9,1.9l0,0v1.5
	C67.1,37.7,67.9,38.6,69,38.6L69,38.6z"/>
<path fill="#9EA09C" d="M77.3,38.6h2.5c1.1,0,1.9-0.9,1.9-1.9l0,0v-1.5c0-1.1-0.8-1.9-1.9-1.9l0,0h-2.5c-1.1,0-1.9,0.9-1.9,1.9l0,0
	v1.5C75.4,37.7,76.3,38.6,77.3,38.6L77.3,38.6z"/>
<path fill="#FFFFFF" d="M71.7,42.8h-2.3v-0.3h2.3V42.8z"/>
<path fill="#FFFFFF" d="M79.5,42.7h-0.9v1h-0.3v-1h-1v-0.4h1v-1h0.3v1h0.9V42.7z"/>
<rect x="76.8" y="67.9" fill="#FFFFFF" width="2.7" height="2.8"/>
<polygon fill="#FFFFFF" points="65.6,69.2 61.3,66.8 61.3,71.7 "/>
<rect x="46.6" y="67.9" fill="#FFFFFF" width="0.9" height="2.8"/>
<rect x="48.4" y="67.9" fill="#FFFFFF" width="0.9" height="2.8"/>
<polygon fill="#FFFFFF" points="80.3,49.6 78.8,48.8 78.8,50.5 "/>
<polygon fill="#FFFFFF" points="78.8,49.6 77.4,48.8 77.4,50.5 "/>
<polygon fill="#FFFFFF" points="68.7,49.6 70.1,48.8 70.1,50.5 "/>
<polygon fill="#FFFFFF" points="70.1,49.6 71.6,48.8 71.6,50.5 "/>
<polygon fill="#FFFFFF" points="68.7,56.5 70.1,55.6 70.1,57.3 "/>
<polygon fill="#FFFFFF" points="70.1,56.5 71.6,55.6 71.6,57.3 "/>
<rect x="68.5" y="55.6" fill="#FFFFFF" width="0.2" height="1.7"/>
<polygon fill="#FFFFFF" points="80.3,56.5 78.8,55.6 78.8,57.3 "/>
<polygon fill="#FFFFFF" points="78.8,56.5 77.4,55.6 77.4,57.3 "/>
<rect x="80.3" y="55.6" fill="#FFFFFF" width="0.2" height="1.7"/>
<path fill="#FFFFFF" d="M48.2,37h-0.3v-2.3h-0.4l0.2-0.3h0.5V37z"/>
<path fill="#FFFFFF" d="M56,37h-1.8l1-1.1c0.1-0.1,0.2-0.3,0.3-0.4c0.1-0.1,0.1-0.2,0.1-0.3s-0.1-0.3-0.2-0.3
	c-0.1-0.1-0.2-0.1-0.4-0.1c-0.1,0-0.3,0.1-0.4,0.2c-0.1,0.1-0.2,0.3-0.2,0.4h-0.3c0-0.2,0.1-0.5,0.3-0.7s0.4-0.2,0.6-0.2
	c0.2,0,0.4,0.1,0.6,0.2c0.1,0.1,0.2,0.3,0.2,0.5s0,0.3-0.1,0.4c-0.1,0.2-0.2,0.3-0.4,0.5l-0.6,0.6H56V37z"/>
<path fill="#FFFFFF" d="M62.7,35.5c0.1,0.1,0.2,0.2,0.3,0.3s0.1,0.3,0.1,0.4c0,0.2-0.1,0.4-0.3,0.6c-0.2,0.2-0.4,0.3-0.6,0.3
	c-0.2,0-0.4-0.1-0.6-0.2c-0.2-0.2-0.3-0.4-0.3-0.6h0.3c0,0.1,0.1,0.3,0.2,0.4c0.1,0.1,0.2,0.1,0.4,0.1c0.1,0,0.3-0.1,0.4-0.2
	c0.1-0.1,0.2-0.2,0.2-0.4c0-0.1-0.1-0.3-0.2-0.4c-0.2-0.1-0.4-0.2-0.5-0.1v-0.3c0.1,0,0.3,0,0.4-0.1c0.1-0.1,0.2-0.2,0.2-0.3
	s0-0.2-0.1-0.3s-0.2-0.1-0.3-0.1s-0.2,0-0.3,0.1s-0.1,0.2-0.2,0.3h-0.3c0-0.2,0.1-0.4,0.3-0.5c0.1-0.1,0.3-0.2,0.5-0.2
	s0.4,0.1,0.5,0.2c0.2,0.1,0.3,0.3,0.3,0.4C63,35.2,62.9,35.4,62.7,35.5z"/>
<path fill="#FFFFFF" d="M48.9,43.3h-0.3v0.6h-0.3v-0.6h-1.2l1.4-2h0.1V43h0.3V43.3z M48.3,43v-1l-0.7,0.9L48.3,43z"/>
<path fill="#FFFFFF" d="M55.9,41.6H55l-0.1,0.6c0.1,0,0.2,0,0.3,0c0.2,0,0.4,0.1,0.6,0.2C56,42.6,56,42.8,56,43
	c0,0.2-0.1,0.5-0.2,0.6c-0.2,0.2-0.4,0.3-0.6,0.3c-0.2,0-0.4-0.1-0.5-0.2c-0.1-0.1-0.2-0.3-0.3-0.5h0.3c0,0.1,0.1,0.2,0.2,0.3
	c0.1,0.1,0.2,0.1,0.3,0.1c0.2,0,0.3-0.1,0.4-0.2c0.1-0.1,0.2-0.3,0.2-0.4c0-0.1,0-0.3-0.1-0.4c-0.1-0.1-0.3-0.2-0.4-0.2
	c-0.2,0-0.4,0.1-0.6,0.1l0.2-1.3H56L55.9,41.6z"/>
<path fill="#FFFFFF" d="M62.1,42.3c0.1,0,0.1,0,0.2,0c0.2,0,0.4,0.1,0.5,0.2c0.1,0.2,0.2,0.4,0.2,0.6c0,0.2-0.1,0.4-0.2,0.5
	c-0.3,0.3-0.8,0.3-1.1,0c-0.1-0.1-0.2-0.4-0.2-0.6c0-0.1,0-0.2,0.1-0.3s0.1-0.3,0.2-0.4l0.8-1.2l0.3,0.2L62.1,42.3z M62.3,43.6
	c0.1,0,0.3-0.1,0.3-0.2c0.1-0.1,0.1-0.2,0.1-0.3s0-0.3-0.1-0.4c-0.1-0.1-0.2-0.1-0.3-0.1s-0.3,0-0.4,0.1c-0.1,0.1-0.1,0.2-0.1,0.4
	c0,0.1,0.1,0.3,0.2,0.3C62,43.5,62.1,43.6,62.3,43.6z"/>
<path fill="#FFFFFF" d="M48.9,48.1l-1.4,2.6l-0.2-0.1l1.1-2.2h-1.2v-0.3H48.9z"/>
<path fill="#FFFFFF" d="M55.5,49.3c0.3,0.1,0.4,0.4,0.5,0.7c0,0.2-0.1,0.4-0.2,0.6c-0.2,0.2-0.4,0.2-0.6,0.2c-0.2,0-0.5-0.1-0.6-0.2
	c-0.2-0.1-0.2-0.3-0.2-0.6s0.2-0.6,0.5-0.7c-0.2-0.1-0.3-0.3-0.3-0.5s0.1-0.4,0.2-0.5c0.1-0.1,0.3-0.2,0.5-0.2s0.4,0.1,0.5,0.2
	c0.1,0.1,0.2,0.3,0.2,0.5C55.9,49,55.7,49.2,55.5,49.3z M55.1,50.5c0.1,0,0.3,0,0.4-0.2c0.1-0.1,0.2-0.2,0.2-0.4
	c0-0.1-0.1-0.3-0.2-0.4c-0.1-0.1-0.3-0.2-0.4-0.2c-0.1,0-0.3,0.1-0.4,0.2c-0.1,0.1-0.2,0.2-0.2,0.4c0,0.1,0.1,0.3,0.2,0.3
	C54.8,50.4,55,50.5,55.1,50.5z M55.1,49.2c0.1,0,0.2-0.1,0.3-0.1c0.1-0.1,0.1-0.2,0.1-0.3s0-0.2-0.1-0.3c-0.2-0.1-0.5-0.1-0.6,0
	s-0.1,0.2-0.1,0.3s0.1,0.2,0.1,0.3C54.9,49.1,55,49.2,55.1,49.2L55.1,49.2z"/>
<path fill="#FFFFFF" d="M62.3,49.6c-0.1,0-0.1,0-0.2,0c-0.2,0-0.4-0.1-0.5-0.2c-0.1-0.2-0.2-0.4-0.2-0.6c0-0.2,0.1-0.4,0.2-0.6
	c0.1-0.1,0.4-0.2,0.6-0.2c0.4,0,0.8,0.3,0.8,0.8l0,0c0,0.1,0,0.2-0.1,0.4c-0.1,0.1-0.1,0.3-0.2,0.4L62,50.8l-0.2-0.2L62.3,49.6z
	 M62.2,49.4c0.1,0,0.3-0.1,0.4-0.2c0.2-0.2,0.2-0.5,0-0.7c-0.1-0.1-0.2-0.2-0.4-0.2c-0.1,0-0.3,0.1-0.3,0.2c-0.2,0.2-0.2,0.5,0,0.7
	C62,49.3,62.1,49.4,62.2,49.4z"/>
<path fill="#FFFFFF" d="M55.1,54.9c0.3,0,0.5,0.1,0.7,0.3c0.2,0.3,0.3,0.6,0.2,1c0,0.4-0.1,0.7-0.3,1c-0.1,0.2-0.4,0.3-0.6,0.3
	c-0.3,0-0.5-0.1-0.6-0.3c-0.3-0.6-0.3-1.4,0-2C54.6,55.1,54.8,54.9,55.1,54.9z M55.1,57.3c0.2,0,0.4-0.1,0.4-0.3
	c0.1-0.2,0.2-0.5,0.2-0.8s0-0.5-0.2-0.8c-0.1-0.2-0.2-0.3-0.4-0.3s-0.4,0.1-0.4,0.3c-0.1,0.2-0.2,0.5-0.2,0.8
	C54.5,57,54.7,57.3,55.1,57.3L55.1,57.3z"/>
<polygon fill="#FFFFFF" points="61.4,55.9 61.4,57 63,58 63,55 "/>
<rect x="47" y="55.2" fill="#FFFFFF" width="0.3" height="2.6"/>
<rect x="47.1" y="56.3" fill="#FFFDFD" width="1.8" height="0.3"/>
<path fill="#FFFFFF" d="M47.1,55L47.1,55L47,55.3h0.1c0.9,0,1.6,0.5,1.6,1.2s-0.7,1.2-1.6,1.2H47V58h0.1c0.8,0.2,1.6-0.3,1.8-1.1
	s-0.3-1.6-1.1-1.8C47.6,55,47.4,55,47.1,55L47.1,55z"/>
<path fill="#FFFFFF" d="M80.3,38h-3.6v-4.2h3.6V38z M77,37.8h3.1V34H77V37.8z"/>
<rect x="77.4" y="35.1" fill="#FFFFFF" width="2.3" height="0.3"/>
<rect x="76.9" y="36.4" fill="#FFFFFF" width="3.3" height="0.3"/>
<polygon fill="#FFFFFF" points="71.7,35.9 70.2,36.7 70.2,35.1 "/>
<rect x="69.7" y="35.1" fill="#FFFFFF" width="0.3" height="1.7"/>
<rect x="68.9" y="35.1" fill="#FFFFFF" width="0.6" height="1.7"/>
<path fill="#FFFFFF" d="M59.3,107.1c-0.1-0.1-0.2-0.3-0.4-0.3c-0.3-0.1-0.5-0.1-0.8-0.1c-0.2,0-0.5,0-0.7-0.1
	c-0.1,0-0.1-0.1-0.1-0.2c0-0.2,0.1-0.3,0.3-0.3c0.1,0,0.3,0.1,0.4,0.1c0.3,0,0.6-0.1,0.9-0.3c0.2-0.2,0.3-0.5,0.3-0.8
	c0-0.2,0-0.3-0.1-0.5l-0.1-0.1l-0.1-0.2c0-0.1,0.1-0.2,0.1-0.3c0,0,0.1,0,0.1-0.1c0.1-0.1,0.1-0.1,0.2-0.2c-0.1-0.1-0.1-0.2-0.3-0.3
	l0,0c-0.1,0-0.1,0-0.2,0l0,0c-0.1,0.2-0.2,0.3-0.2,0.5l0,0l-0.2-0.1c-0.1,0-0.2-0.1-0.3-0.1H58c-0.3,0-0.6,0.1-0.9,0.3
	c-0.2,0.2-0.3,0.5-0.3,0.9s0.1,0.7,0.4,0.9c-0.3,0.1-0.5,0.4-0.5,0.7c0,0.3,0.1,0.5,0.4,0.6c-0.3,0.1-0.5,0.4-0.5,0.7
	c0,0.3,0.1,0.5,0.3,0.7c0.3,0.2,0.6,0.3,1,0.3s0.8-0.1,1.1-0.3c0.3-0.2,0.4-0.5,0.4-0.8C59.5,107.5,59.5,107.3,59.3,107.1z
	 M58,104.2c0.3,0,0.5,0.2,0.5,0.7s-0.2,0.7-0.5,0.7s-0.5-0.2-0.5-0.7S57.7,104.2,58,104.2z M58,108.3c-0.2,0-0.4,0-0.6-0.1
	c-0.1-0.1-0.2-0.2-0.2-0.4c0-0.2,0.1-0.4,0.3-0.5H58c0.2,0,0.4,0,0.6,0.1c0.1,0.1,0.2,0.2,0.2,0.3C58.8,108.1,58.6,108.3,58,108.3
	L58,108.3z"/>
<path fill="#FFFFFF" d="M61.8,102.7v2.2c0,0.9-0.2,1.3-0.8,1.3s-0.8-0.4-0.8-1.3v-2.2h-0.8v2.5c0,0.8,0.7,1.5,1.5,1.5
	s1.5-0.7,1.5-1.5v-2.5H61.8z"/>
<path fill="#FFFFFF" d="M64.3,102.7h-1.1v3.9H64v-1.5h0.5c0.6,0,1.1-0.5,1.2-1.1c0,0,0,0,0-0.1C65.7,103.1,65.2,102.7,64.3,102.7z
	 M64.2,104.5H64v-1.1c0.1,0,0.1,0,0.2,0c0.5,0,0.7,0.2,0.7,0.6S64.7,104.6,64.2,104.5z"/>
<path fill="#FFFFFF" d="M68.3,104.5c0-0.2-0.2-0.4-0.3-0.5c-0.2-0.1-0.4-0.1-0.7-0.1c-0.3,0-0.6,0.1-0.9,0.2l0,0
	c-0.2,0.2-0.3,0.5-0.3,0.8v1.8h0.7V105c0-0.4,0.2-0.6,0.4-0.6s0.4,0.2,0.4,0.6v1.6h0.7v-1.8C68.4,104.8,68.4,104.6,68.3,104.5z"/>
<path fill="#FFFFFF" d="M70.1,102.7H69v3.9h0.7v-1.5h0.5c0.6,0,1.2-0.4,1.2-1V104C71.5,103.1,71,102.7,70.1,102.7z M70,104.5h-0.2
	v-1.1c0.1,0,0.2,0,0.2,0c0.5,0,0.7,0.2,0.7,0.6S70.5,104.6,70,104.5z"/>
</svg>
