<?xml version="1.0" encoding="utf-8"?>
<!-- Generator: Adobe Illustrator 24.0.0, SVG Export Plug-In . SVG Version: 6.00 Build 0)  -->
<svg version="1.1" id="黑白棋" xmlns="http://www.w3.org/2000/svg" xmlns:xlink="http://www.w3.org/1999/xlink" x="0px" y="0px"
	 viewBox="0 0 128 128" enable-background="new 0 0 128 128" xml:space="preserve">
<title>128</title>
<g id="_128">
	<path fill="#B78A58" d="M20,8h88c6.6,0,12,5.4,12,12v88c0,6.6-5.4,12-12,12H20c-6.6,0-12-5.4-12-12V20C8,13.4,13.4,8,20,8z"/>
	<rect x="8" y="61" fill="#A0774E" width="112" height="6"/>
	<rect x="61" y="8" fill="#A0774E" width="6" height="112"/>
	
		<linearGradient id="SVGID_1_" gradientUnits="userSpaceOnUse" x1="21.7621" y1="105.9321" x2="49.6722" y2="78.692" gradientTransform="matrix(1 0 0 -1 0 128)">
		<stop  offset="0" style="stop-color:#424242"/>
		<stop  offset="0.14" style="stop-color:#333333"/>
		<stop  offset="0.36" style="stop-color:#242424"/>
		<stop  offset="0.61" style="stop-color:#1B1B1B"/>
		<stop  offset="0.97" style="stop-color:#181818"/>
	</linearGradient>
	<circle fill="url(#SVGID_1_)" cx="34.5" cy="34.5" r="19.5"/>
	
		<linearGradient id="SVGID_2_" gradientUnits="userSpaceOnUse" x1="80.7621" y1="46.9321" x2="108.6722" y2="19.692" gradientTransform="matrix(1 0 0 -1 0 128)">
		<stop  offset="0" style="stop-color:#424242"/>
		<stop  offset="0.14" style="stop-color:#333333"/>
		<stop  offset="0.36" style="stop-color:#242424"/>
		<stop  offset="0.61" style="stop-color:#1B1B1B"/>
		<stop  offset="0.97" style="stop-color:#181818"/>
	</linearGradient>
	<circle fill="url(#SVGID_2_)" cx="93.5" cy="93.5" r="19.5"/>
	
		<linearGradient id="SVGID_3_" gradientUnits="userSpaceOnUse" x1="83.6095" y1="106.4396" x2="107.2946" y2="75.4529" gradientTransform="matrix(1 0 0 -1 0 128)">
		<stop  offset="0" style="stop-color:#E5E5E5"/>
		<stop  offset="0.42" style="stop-color:#BEBEBE"/>
		<stop  offset="0.76" style="stop-color:#A4A4A4"/>
		<stop  offset="0.97" style="stop-color:#9B9B9B"/>
	</linearGradient>
	<circle fill="url(#SVGID_3_)" cx="93.5" cy="34.5" r="19.5"/>
	
		<linearGradient id="SVGID_4_" gradientUnits="userSpaceOnUse" x1="24.6094" y1="47.4396" x2="48.2946" y2="16.4529" gradientTransform="matrix(1 0 0 -1 0 128)">
		<stop  offset="0" style="stop-color:#E5E5E5"/>
		<stop  offset="0.42" style="stop-color:#BEBEBE"/>
		<stop  offset="0.76" style="stop-color:#A4A4A4"/>
		<stop  offset="0.97" style="stop-color:#9B9B9B"/>
	</linearGradient>
	<circle fill="url(#SVGID_4_)" cx="34.5" cy="93.5" r="19.5"/>
</g>
</svg>
