<?xml version="1.0" encoding="utf-8"?>
<!-- Generator: Adobe Illustrator 24.0.0, SVG Export Plug-In . SVG Version: 6.00 Build 0)  -->
<svg version="1.1" id="图层_2" opacity="0.8" xmlns="http://www.w3.org/2000/svg" xmlns:xlink="http://www.w3.org/1999/xlink"
	 x="0px" y="0px" viewBox="0 0 16 16" style="enable-background:new 0 0 16 16;" xml:space="preserve">
<style type="text/css">
	.st0{fill:none;stroke:#1F2022;stroke-linecap:round;stroke-miterlimit:10;}
	.st1{fill:#1F2022;}
	.st2{fill-rule:evenodd;clip-rule:evenodd;fill:#1F2022;}
</style>
<path class="st0" d="M4.5,14.5h-2c-1.1,0-2-0.9-2-2v-8c0-1.1,0.9-2,2-2h11c1.1,0,2,0.9,2,2v8"/>
<path id="circle2567-9" class="st1" d="M9,5c-2.8,0-5,2.2-5,5s2.2,5,5,5s5-2.2,5-5S11.8,5,9,5z M9,6c2.2,0,4,1.8,4,4s-1.8,4-4,4
	s-4-1.8-4-4S6.8,6,9,6z"/>
<path id="path2570-36" class="st2" d="M12.4,12.6l-0.7,0.7l2.5,2.5l0.7-0.7L12.4,12.6z"/>
</svg>
