<?xml version="1.0" encoding="utf-8"?>
<!-- Generator: Adobe Illustrator 24.0.0, SVG Export Plug-In . SVG Version: 6.00 Build 0)  -->
<svg version="1.1" id="图层_1" xmlns="http://www.w3.org/2000/svg" xmlns:xlink="http://www.w3.org/1999/xlink" x="0px" y="0px"
	 viewBox="0 0 128 128" enable-background="new 0 0 128 128" xml:space="preserve">
<title>krusader128</title>
<path fill="#BEBED2" d="M20,8h88c6.6,0,12,5.4,12,12v88c0,6.6-5.4,12-12,12H20c-6.6,0-12-5.4-12-12V20C8,13.4,13.4,8,20,8z"/>
<rect x="11" y="26" fill="#9696FF" width="106" height="76"/>
<path fill="#494976" d="M114,29v70H14V29H114 M120,23H8v82h112V23z"/>
<rect x="26" y="14" fill="#494976" width="76" height="4"/>
<rect x="62" y="23" fill="#494976" width="4" height="80"/>
<rect x="22" y="38" fill="#494976" width="26" height="4"/>
<rect x="22" y="53" fill="#494976" width="26" height="4"/>
<rect x="22" y="68" fill="#494976" width="26" height="4"/>
<rect x="22" y="83" fill="#494976" width="26" height="4"/>
<rect x="80" y="38" fill="#494976" width="26" height="4"/>
<rect x="80" y="53" fill="#494976" width="26" height="4"/>
<rect x="80" y="68" fill="#494976" width="26" height="4"/>
<rect x="80" y="83" fill="#494976" width="26" height="4"/>
<rect x="26" y="110" fill="#494976" width="76" height="4"/>
<path fill="#494976" d="M67.6,75.1c-1-1.7-2.8-2.8-4.8-2.8c-1,0-1.9,0.3-2.8,0.8l-3.8,2.2l-0.1-38l32.9,19.1l-3.8,2.2
	c-1.3,0.7-2.2,2-2.6,3.4c-0.4,1.4-0.2,2.9,0.5,4.2l14.2,24.5l-15.5,8.9L67.6,75.1z"/>
<path fill="#FFFFFF" d="M58,40.7l26.9,15.6l-0.8,0.5c-3.6,2.1-4.9,6.7-2.8,10.4l13.1,22.7l-12,6.9L69.3,74.1c-1-1.7-2.7-3-4.6-3.5
	c-0.7-0.2-1.3-0.3-2-0.3c-1.3,0-2.6,0.3-3.8,1l-0.8,0.5L58,40.7 M54,33.8L54,33.8l0.1,44.9l0,0l6.8-3.9c0.5-0.3,1.2-0.5,1.8-0.5
	c0.3,0,0.6,0,0.9,0.1c0.9,0.2,1.7,0.8,2.2,1.7l15.1,26.2l19-10.9L84.8,65.2c-1-1.7-0.4-3.9,1.3-4.9l6.8-3.9l0,0l0,0L54,33.8z"/>
</svg>
