<?xml version="1.0" encoding="utf-8"?>
<!-- Generator: Adobe Illustrator 24.0.0, SVG Export Plug-In . SVG Version: 6.00 Build 0)  -->
<svg version="1.1" id="图层_1" xmlns="http://www.w3.org/2000/svg" xmlns:xlink="http://www.w3.org/1999/xlink" x="0px" y="0px"
	 viewBox="0 0 128 128" enable-background="new 0 0 128 128" xml:space="preserve">
<title>ktouch128</title>
<path fill="#C1BFA8" d="M20,8h88c6.6,0,12,5.4,12,12v88c0,6.6-5.4,12-12,12H20c-6.6,0-12-5.4-12-12V20C8,13.4,13.4,8,20,8z"/>
<path fill="#999999" d="M33,87h20c2.8,0,5,2.2,5,5v16c0,2.8-2.2,5-5,5H33c-2.8,0-5-2.2-5-5V92C28,89.2,30.2,87,33,87z"/>
<path fill="#E6E6E6" d="M33,83h20c2.8,0,5,2.2,5,5v16c0,2.8-2.2,5-5,5H33c-2.8,0-5-2.2-5-5V88C28,85.2,30.2,83,33,83z"/>
<path fill="#666666" d="M39.7,93.9h-1.5l-0.6-1.8h-3L34,93.9h-1.2l2.6-7.7h1.7L39.7,93.9z M37.2,90.9l-1.1-3.4L34.9,91L37.2,90.9z"
	/>
<path fill="#999999" d="M70,87h20c2.8,0,5,2.2,5,5v16c0,2.8-2.2,5-5,5H70c-2.8,0-5-2.2-5-5V92C65,89.2,67.2,87,70,87z"/>
<path fill="#E6E6E6" d="M70,83h20c2.8,0,5,2.2,5,5v16c0,2.8-2.2,5-5,5H70c-2.8,0-5-2.2-5-5V88C65,85.2,67.2,83,70,83z"/>
<path fill="#666666" d="M69.1,92.1l1.3-0.3c0.2,0.8,0.8,1.2,1.9,1.2c0.4,0,0.8-0.1,1.1-0.3c0.2-0.2,0.4-0.4,0.4-0.7
	c0-0.2-0.1-0.4-0.2-0.6c-0.2-0.2-0.5-0.4-0.8-0.4l-1.5-0.4c-0.4-0.1-0.8-0.2-1.1-0.4c-0.3-0.2-0.5-0.4-0.6-0.7
	c-0.1-0.3-0.2-0.7-0.2-1c0-0.6,0.3-1.3,0.8-1.7c0.6-0.4,1.3-0.7,2-0.6c0.6,0,1.2,0.1,1.8,0.4c0.5,0.3,0.9,0.7,1,1.2l-1.3,0.3
	c-0.2-0.6-0.8-1-1.4-0.9c-0.4,0-0.7,0.1-1,0.3c-0.2,0.2-0.3,0.4-0.3,0.7c0,0.4,0.4,0.8,1.1,0.9l1.3,0.3c0.6,0.1,1.2,0.4,1.6,0.9
	c0.3,0.4,0.4,0.8,0.4,1.3c0,0.7-0.3,1.4-0.9,1.8c-0.6,0.5-1.4,0.7-2.2,0.7c-0.7,0-1.4-0.1-2-0.5C69.7,93.2,69.3,92.7,69.1,92.1z"/>
<path fill="#999999" d="M20,53h20c2.8,0,5,2.2,5,5v16c0,2.8-2.2,5-5,5H20c-2.8,0-5-2.2-5-5V58C15,55.2,17.2,53,20,53z"/>
<path fill="#E6E6E6" d="M20,49h20c2.8,0,5,2.2,5,5v16c0,2.8-2.2,5-5,5H20c-2.8,0-5-2.2-5-5V54C15,51.2,17.2,49,20,49z"/>
<path fill="#666666" d="M26.7,61.9v1.2l-0.8,0c-1.1,0-1.7-0.5-1.7-1.5h-0.5c-0.9,0-1.8-0.4-2.4-1.1c-0.6-0.8-0.9-1.8-0.8-2.9
	c0-1,0.3-2,0.9-2.8c0.6-0.8,1.5-1.2,2.4-1.1c0.6,0,1.3,0.2,1.8,0.5c0.5,0.4,0.8,0.8,1.1,1.4c0.3,0.6,0.4,1.3,0.4,2
	c0.1,1.4-0.5,2.7-1.6,3.5c-0.2,0.1-0.3,0.2-0.3,0.3c0,0.1,0.1,0.3,0.2,0.3c0.1,0.1,0.3,0.1,0.5,0.1h0.6L26.7,61.9z M23.7,60.5
	c1.2,0,1.8-1,1.8-2.8c0.1-0.8-0.1-1.5-0.5-2.2c-0.3-0.4-0.8-0.7-1.3-0.7c-1.2,0-1.8,1-1.8,2.9S22.5,60.5,23.7,60.5L23.7,60.5z"/>
<path fill="#999999" d="M55,47.5h20c3.6,0,6.5,2.9,6.5,6.5v20c0,3.6-2.9,6.5-6.5,6.5H55c-3.6,0-6.5-2.9-6.5-6.5V54
	C48.5,50.4,51.4,47.5,55,47.5z"/>
<path fill="#F44336" d="M75,49c2.8,0,5,2.2,5,5v20c0,2.8-2.2,5-5,5H55c-2.8,0-5-2.2-5-5V54c0-2.8,2.2-5,5-5H75 M75,46H55
	c-4.4,0-8,3.6-8,8v20c0,4.4,3.6,8,8,8h20c4.4,0,8-3.6,8-8V54C83,49.6,79.4,46,75,46z"/>
<path fill="#E6E6E6" d="M55,49h20c2.8,0,5,2.2,5,5v16c0,2.8-2.2,5-5,5H55c-2.8,0-5-2.2-5-5V54C50,51.2,52.2,49,55,49z"/>
<path fill="#666666" d="M63.4,53.8l-2.1,7.7h-1.5l-1.5-5.7L57,61.5h-1.5l-2.1-7.7h1.5l1.5,5.6l1.4-5.6h1.4l1.5,5.6l1.5-5.6H63.4z"/>
<path fill="#999999" d="M90,53h20c2.8,0,5,2.2,5,5v16c0,2.8-2.2,5-5,5H90c-2.8,0-5-2.2-5-5V58C85,55.2,87.2,53,90,53z"/>
<path fill="#E6E6E6" d="M90,49h20c2.8,0,5,2.2,5,5v16c0,2.8-2.2,5-5,5H90c-2.8,0-5-2.2-5-5V54C85,51.2,87.2,49,90,49z"/>
<path fill="#666666" d="M95,61.5h-5v-7.7h5v1.1h-3.6V57h2.9v1.1h-2.9v2.2H95V61.5z"/>
<polygon fill="#4CAF50" points="83,38 83,18 48,18 48,38 43,38 65.6,56.2 88,38 "/>
<linearGradient id="SVGID_1_" gradientUnits="userSpaceOnUse" x1="65.6" y1="89.22" x2="65.6" y2="108.59" gradientTransform="matrix(1 0 0 -1 0 128)">
	<stop  offset="0" style="stop-color:#4CAF50"/>
	<stop  offset="1" style="stop-color:#F2F2F2"/>
</linearGradient>
<polygon opacity="0.6" fill="url(#SVGID_1_)" enable-background="new    " points="49.5,19.4 49.5,38.8 81.7,19.4 "/>
</svg>
