<?xml version="1.0" encoding="utf-8"?>
<!-- Generator: Adobe Illustrator 24.0.0, SVG Export Plug-In . SVG Version: 6.00 Build 0)  -->
<svg version="1.1" id="图层_1" xmlns="http://www.w3.org/2000/svg" xmlns:xlink="http://www.w3.org/1999/xlink" x="0px" y="0px"
	 viewBox="0 0 128 128" enable-background="new 0 0 128 128" xml:space="preserve">
<title>kwrite128</title>
<path fill="#3F51B5" d="M7.6,39.7l57.3-33c1.2-0.7,2.8-0.3,3.5,0.9l45,77.8c0.7,1.2,0.3,2.8-1,3.5c0,0,0,0,0,0l-57.3,33
	c-1.3,0.7-2.8,0.3-3.5-1c0,0,0,0,0,0l-45-77.8C5.9,42,6.4,40.4,7.6,39.7z"/>
<path fill="#E0E0E0" d="M10.7,41.1l52.1-30c1.2-0.7,2.8-0.3,3.5,0.9l42.2,73c0.7,1.2,0.3,2.8-0.9,3.5l-52.1,30
	c-1.3,0.7-2.8,0.3-3.5-1c0,0,0,0,0,0l-42.2-73C9.1,43.4,9.5,41.8,10.7,41.1z"/>
<path fill="none" d="M7.3,53.5c0,3.3,3.2,6.1,7.1,6.1c0.3,0,0.5,0,0.8,0L9.2,49.4C8,50.4,7.3,51.9,7.3,53.5z"/>
<path fill="none" d="M21.5,53.5c0-3.3-3.2-6.1-7.1-6.1c-1.4,0-2.7,0.3-3.9,1l6.2,10.8C19.4,58.6,21.3,56.3,21.5,53.5z"/>
<polygon fill="#B3B3B3" points="64.6,25.2 26.4,47.2 25.3,45.4 63.5,23.4 "/>
<polygon fill="#B3B3B3" points="72.9,39.5 34.7,61.5 33.7,59.7 71.9,37.7 "/>
<polygon fill="#B3B3B3" points="81.3,51.5 43,73.5 42,71.7 80.2,49.7 "/>
<polygon fill="#B3B3B3" points="89.6,66.1 51.4,88.1 50.3,86.3 88.6,64.2 "/>
<polygon fill="#B3B3B3" points="97.9,82.7 59.7,104.8 58.7,102.9 96.9,80.9 "/>
<polygon fill="#F5A816" points="74.1,63.3 61.3,48.1 110.1,7.4 122.8,22.6 "/>
<polygon fill="#FFF176" points="65.1,52.5 61.3,48 110,7.3 113.8,11.8 "/>
<polygon fill="#F9CE1D" points="70.2,58.7 65.2,52.6 113.9,11.9 119,18 "/>
<polygon fill="#FDEFBA" points="74.1,63.3 61.3,48.1 59.3,59.5 62.4,63.3 "/>
<polygon fill="#616161" points="62.4,63.3 59.3,59.5 58.6,63.3 "/>
<ellipse transform="matrix(0.7668 -0.6419 0.6419 0.7668 17.5576 78.2344)" fill="#FFF176" cx="116.5" cy="15" rx="2" ry="9.9"/>
<ellipse transform="matrix(0.7668 -0.6419 0.6419 0.7668 17.7876 78.3638)" fill="#616161" cx="116.8" cy="14.7" rx="0.9" ry="4.6"/>
<g opacity="0.4">
	<path fill="#303F9F" d="M7.3,39.3L44.8,6.1c1.3-0.7,2.8-0.3,3.6,1c0,0,0,0,0,0l45.1,77.8c0.7,1.2,0.3,2.8-1,3.5c0,0,0,0,0,0
		L55,121.9c-1.3,0.7-2.8,0.3-3.6-1c0,0,0,0,0,0l-45.1-78C5.6,41.6,6.1,40,7.3,39.3z"/>
</g>
<path fill="none" d="M23.8,53.5c-0.1,3.5-2.5,6.6-5.9,7.6l34.3,59.4c0.5,0.8,1.6,1.2,2.4,0.7l37.4-33.4h0.1c0.9-0.5,1.2-1.6,0.7-2.5
	L47.7,7.5c-0.5-0.8-1.6-1.2-2.4-0.7L7.8,39.9L7.7,40c-0.9,0.5-1.2,1.6-0.7,2.4l2.4,4.1c1.5-0.8,3.3-1.3,5-1.2
	C19.6,45.3,23.8,49,23.8,53.5z"/>
<path fill="#3F51B5" d="M94.2,84.5L49,6.7c-0.9-1.6-3-2.2-4.6-1.2h-0.1L6.8,38.6c-0.7,0.4-1.3,1.2-1.5,2c-0.2,0.9-0.1,1.8,0.3,2.6
	l2.4,4.2c0.4-0.3,0.9-0.6,1.3-0.9L7,42.4c-0.5-0.9-0.2-2,0.7-2.4h0.1L45.2,6.8c0.9-0.5,1.9-0.1,2.4,0.7l45.1,77.8
	c0.5,0.9,0.2,2-0.7,2.5h-0.1l-37.5,33.4c-0.9,0.5-1.9,0.1-2.4-0.7L17.9,61.2l-1.1-1.9l-6.2-10.8c-0.5,0.3-0.9,0.6-1.3,0.9l5.9,10.2
	l1.1,2l34.5,59.7c0.9,1.6,3,2.2,4.6,1.2h0.1L93,89.1C94.6,88.1,95.1,86.1,94.2,84.5z"/>
<path fill="#1A237E" d="M17.5,50c0.7,0,1.4-0.3,1.9-0.8c-1.3-1.1-3-1.8-4.8-1.8C14.8,48.9,16,50,17.5,50z"/>
<path fill="#1A237E" d="M17.5,44.3c-0.9,0-1.7,0.4-2.2,1.1c1.8,0.1,3.6,0.8,5.1,1.9v-0.1C20.4,45.6,19.1,44.3,17.5,44.3
	C17.5,44.3,17.5,44.3,17.5,44.3z"/>
<path fill="#DCE775" d="M9.2,49.4c0.4-0.4,0.8-0.7,1.3-0.9c1.2-0.7,2.5-1,3.9-1h0.3c1.7,0,3.4,0.7,4.8,1.8c0.6-0.5,0.9-1.2,1-2
	c-1.5-1.1-3.3-1.7-5.1-1.9c-0.3,0-0.6,0-0.9,0c-1.7,0-3.5,0.4-5,1.2c-0.5,0.3-0.9,0.5-1.3,0.9c-1.9,1.4-3,3.7-3.1,6
	c0,4.5,4.2,8.2,9.4,8.2c0.6,0,1.3-0.1,1.9-0.2l-1.1-2c-0.3,0-0.5,0-0.8,0c-3.9,0-7.1-2.7-7.1-6.1C7.3,51.9,8,50.4,9.2,49.4z"/>
<path fill="#1A237E" d="M26.1,64.9c0.7,0,1.4-0.3,1.9-0.7c-1.3-1.1-3-1.8-4.8-1.8C23.4,63.8,24.6,64.9,26.1,64.9z"/>
<path fill="#1A237E" d="M26.1,59.2c-0.9,0-1.7,0.4-2.2,1.1c1.8,0.1,3.6,0.8,5.1,1.9v-0.1C29,60.5,27.7,59.2,26.1,59.2
	C26.1,59.2,26.1,59.2,26.1,59.2z"/>
<path fill="#DCE775" d="M17.8,64.3c0.4-0.4,0.8-0.7,1.3-0.9c1.2-0.7,2.5-1,3.9-1h0.3c1.7,0.1,3.4,0.7,4.7,1.8c0.6-0.5,0.9-1.2,0.9-2
	c-1.5-1.1-3.3-1.7-5.1-1.9c-0.3,0-0.6,0-0.9,0c-1.7,0-3.5,0.4-5,1.2c-0.5,0.3-0.9,0.5-1.3,0.8c-1.9,1.4-3.1,3.7-3.1,6.1
	c0,4.5,4.2,8.2,9.4,8.2c0.6,0,1.3-0.1,1.9-0.2l-1.1-2c-0.3,0-0.5,0-0.8,0c-3.9,0-7.1-2.7-7.1-6.1C15.8,66.9,16.6,65.3,17.8,64.3z"/>
<path fill="#1A237E" d="M34.7,79.8c0.7,0,1.4-0.3,1.9-0.8c-1.3-1.1-3-1.8-4.8-1.8C32,78.7,33.3,79.8,34.7,79.8z"/>
<path fill="#1A237E" d="M34.7,74.1c-0.9,0-1.7,0.4-2.3,1.1c1.8,0.1,3.6,0.8,5.1,1.8l0,0C37.6,75.4,36.3,74.1,34.7,74.1
	C34.7,74.1,34.7,74.1,34.7,74.1z"/>
<path fill="#DCE775" d="M26.4,79.2c0.4-0.4,0.8-0.7,1.3-0.9c1.2-0.7,2.5-1,3.9-1h0.3c1.7,0,3.4,0.7,4.8,1.8c0.6-0.5,0.9-1.2,0.9-2
	c-1.5-1.1-3.3-1.7-5.1-1.8c-0.3,0-0.6,0-0.9,0c-1.7,0-3.4,0.4-4.9,1.2c-0.5,0.2-0.9,0.5-1.3,0.9c-1.9,1.4-3.1,3.7-3.1,6.1
	c0,4.5,4.2,8.2,9.4,8.2c0.6,0,1.3-0.1,1.9-0.2l-1.2-2c-0.2,0-0.5,0-0.8,0c-3.9,0-7.1-2.7-7.1-6.1C24.5,81.8,25.2,80.2,26.4,79.2z"/>
<path fill="#1A237E" d="M43.6,94.7c0.7,0,1.4-0.3,1.9-0.7c-1.3-1.1-3-1.8-4.8-1.8C40.9,93.6,42.1,94.7,43.6,94.7z"/>
<path fill="#1A237E" d="M43.6,89c-0.9,0-1.7,0.4-2.2,1.1c1.8,0.2,3.6,0.8,5.1,1.9v-0.1C46.5,90.4,45.2,89,43.6,89
	C43.6,89,43.6,89,43.6,89z"/>
<path fill="#DCE775" d="M35.3,94.1c0.4-0.3,0.8-0.7,1.3-0.9c1.2-0.7,2.5-1,3.9-1h0.3c1.8,0,3.4,0.7,4.8,1.8c0.6-0.5,0.9-1.2,0.9-2
	c-1.5-1.1-3.3-1.7-5.1-1.9c-0.3,0-0.6,0-0.9,0c-1.7,0-3.5,0.4-5,1.2c-0.5,0.2-0.9,0.5-1.3,0.9c-1.9,1.4-3.1,3.7-3.1,6.1
	c0,4.5,4.2,8.2,9.4,8.2c0.6,0,1.3-0.1,1.9-0.2l-1.2-2c-0.3,0-0.5,0-0.8,0c-3.9,0-7.1-2.7-7.1-6.1C33.3,96.7,34.1,95.1,35.3,94.1z"/>
<path fill="#1A237E" d="M51.9,109.6c0.7,0,1.4-0.3,1.9-0.7c-1.3-1.1-3-1.8-4.8-1.8C49.2,108.5,50.5,109.6,51.9,109.6z"/>
<path fill="#1A237E" d="M51.9,103.9c-0.9,0-1.7,0.4-2.2,1.1c1.8,0.1,3.6,0.8,5.1,1.8c0,0,0,0,0-0.1
	C54.8,105.2,53.5,103.9,51.9,103.9z"/>
<path fill="#DCE775" d="M43.7,109c0.4-0.4,0.8-0.7,1.3-0.9c1.2-0.7,2.5-1,3.9-1h0.3c1.7,0,3.4,0.7,4.8,1.8c0.6-0.5,0.9-1.3,0.9-2.1
	c-1.5-1.1-3.3-1.7-5.1-1.8c-0.3,0-0.6,0-0.9,0c-1.7,0-3.4,0.4-5,1.2c-0.5,0.2-0.9,0.5-1.3,0.9c-1.9,1.4-3.1,3.7-3.1,6.1
	c0,4.5,4.2,8.2,9.4,8.2c0.6,0,1.3-0.1,1.9-0.2l-1.2-2c-0.3,0-0.5,0-0.8,0c-3.9,0-7.1-2.7-7.1-6.1C41.7,111.6,42.4,110,43.7,109z"/>
</svg>
