<svg xmlns="http://www.w3.org/2000/svg" xmlns:xlink="http://www.w3.org/1999/xlink" viewBox="0 0 96 96"><defs><style>.cls-1{fill:none;}.cls-2{fill:url(#未命名的渐变_114);}.cls-3,.cls-5{fill:#fff;isolation:isolate;}.cls-3{opacity:0.65;}.cls-4{clip-path:url(#clip-path);}.cls-5{opacity:0.8;}</style><linearGradient id="未命名的渐变_114" x1="48" y1="29.9" x2="48" y2="118.1" gradientTransform="matrix(1, 0, 0, -1, 0, 122)" gradientUnits="userSpaceOnUse"><stop offset="0" stop-color="#b1771c"/><stop offset="1" stop-color="#e5c956"/></linearGradient><clipPath id="clip-path"><path id="SVGID" class="cls-1" d="M48,77l24.7-14a.62.62,0,0,0,.3-.55V35.65a.6.6,0,0,0-.59-.6.71.71,0,0,0-.31.08L49,48.16A2.07,2.07,0,0,0,48,50Z"/></clipPath></defs><title>96</title><g id="兼容环境"><g id="_96" data-name="96"><path class="cls-2" d="M8,30.51v35a9,9,0,0,0,4.55,7.82l31,17.62a9,9,0,0,0,8.88,0l31-17.62A9,9,0,0,0,88,65.49v-35a9,9,0,0,0-4.55-7.82l-31-17.62a9,9,0,0,0-8.88,0l-31,17.62A9,9,0,0,0,8,30.51Z"/><path class="cls-3" d="M23,36.69V60.83a3.56,3.56,0,0,0,1.8,3.11L46.24,76a3.61,3.61,0,0,0,3.52,0L71.2,63.91A3.56,3.56,0,0,0,73,60.8V36.69a3.53,3.53,0,0,0-1.8-3.11L49.76,21.49a3.56,3.56,0,0,0-3.52,0L24.8,33.61A3.54,3.54,0,0,0,23,36.69Z"/><g class="cls-4"><path class="cls-5" d="M23,36.69V60.83a3.56,3.56,0,0,0,1.8,3.11L46.24,76a3.61,3.61,0,0,0,3.52,0L71.2,63.91A3.56,3.56,0,0,0,73,60.8V36.69a3.53,3.53,0,0,0-1.8-3.11L49.76,21.49a3.56,3.56,0,0,0-3.52,0L24.8,33.61A3.54,3.54,0,0,0,23,36.69Z"/></g></g></g></svg>