<?xml version="1.0" encoding="UTF-8"?>
<svg width="24px" height="24px" viewBox="0 0 24 24" version="1.1" xmlns="http://www.w3.org/2000/svg" xmlns:xlink="http://www.w3.org/1999/xlink">
    <title>编组 14</title>
    <g id="页面-1" stroke="none" stroke-width="1" fill="none" fill-rule="evenodd">
        <g id="画板" transform="translate(-177.000000, -276.000000)">
            <g id="编组-14" transform="translate(177.000000, 276.000000)">
                <rect id="矩形" fill="#000000" opacity="0" x="0" y="0" width="24" height="24" rx="4"></rect>
                <g id="资源-2" transform="translate(1.000000, 1.000000)">
                    <polygon id="路径" fill="#B2DEF0" fill-rule="nonzero" points="6.75587302 12.0152381 5.61301587 8.82634921 2.63238095 11.1565079 4.57111111 11.4266667"></polygon>
                    <polygon id="路径" points="11.4924683 19.3506032 11.4994683 19.2986032 11.4484683 19.3276032"></polygon>
                    <polygon id="路径" stroke="#231815" stroke-width="0.88" points="10.8520635 13.4314 10.9482173 13.4920635 10.9520635 13.3920635"></polygon>
                    <polygon id="路径" fill="#009FE8" fill-rule="nonzero" points="10.9473016 13.4590476 13.8498413 14.6860317 14.6834921 12.6053968 10.8520635 13.4184127"></polygon>
                    <polygon id="路径" fill="#B2DEF0" fill-rule="nonzero" points="6.26095238 14.431746 10.8520635 13.4184127 6.75587302 12.0152381"></polygon>
                    <polygon id="路径" fill="#009FE8" fill-rule="nonzero" points="2.63238095 11.1565079 3.20349206 15.1304762 4.57111111 11.4266667"></polygon>
                    <polygon id="路径" fill="#0091DA" fill-rule="nonzero" points="4.57111111 11.4266667 3.20349206 15.1304762 6.75587302 12.0152381"></polygon>
                    <polygon id="路径" fill="#009FE8" fill-rule="nonzero" points="3.20349206 15.1304762 6.26095238 14.431746 6.75587302 12.0152381"></polygon>
                    <polygon id="路径" stroke="#231815" stroke-width="0.88" points="6.28196825 5.14743651 6.35596825 5.22843651 6.36596825 5.17643651"></polygon>
                    <polygon id="路径" fill="#0062B0" fill-rule="nonzero" points="5.61301587 8.82634921 8.03015873 8.93206349 8.08412698 7.24793651"></polygon>
                    <polygon id="路径" fill="#0091DA" fill-rule="nonzero" points="10.8114286 11.0168254 8.03015873 8.93206349 6.75587302 12.0152381"></polygon>
                    <polygon id="路径" stroke="#231815" stroke-width="0.88" points="6.37650794 5.13224603 6.27650794 5.18224603 6.36050794 5.21124603"></polygon>
                    <polygon id="路径" fill="#009FE8" fill-rule="nonzero" points="6.75587302 12.0152381 8.03015873 8.93206349 5.61301587 8.82634921"></polygon>
                    <polygon id="路径" fill="#0062B0" fill-rule="nonzero" points="11.4146032 20.5171429 11.4292063 19.2926984 11.431746 19.2914286 10.3742857 18.6590476"></polygon>
                    <polygon id="路径" fill="#004380" fill-rule="nonzero" points="8.44825397 20.4711111 11.4146032 20.5171429 10.3742857 18.6590476"></polygon>
                    <polygon id="路径" fill="#004380" fill-rule="nonzero" points="10.3742857 18.6590476 11.431746 19.2914286 11.4479365 19.2822222 12.2444444 16.3971429"></polygon>
                    <polygon id="路径" fill="#0062B0" fill-rule="nonzero" points="15.0673016 20.2415873 17.2673016 18.1879365 14.552381 18.5015873"></polygon>
                    <polygon id="路径" fill="#004380" fill-rule="nonzero" points="12.172381 21.9752381 15.2120635 21.9819048 15.0673016 20.2415873 13.1466667 20.7085714 15.1377778 21.8466667 13.1466667 20.7085714 15.0673016 20.2415873 14.552381 18.5015873"></polygon>
                    <polygon id="路径" fill="#0062B0" fill-rule="nonzero" points="11.4479365 19.2822222 13.6942857 17.4495238 12.2444444 16.3971429"></polygon>
                    <polygon id="路径" fill="#004380" fill-rule="nonzero" points="17.2673016 18.1879365 16.1504762 15.8793651 14.552381 18.5015873"></polygon>
                    <polygon id="路径" fill="#004380" fill-rule="nonzero" points="0.513333333 21.1911111 3.41396825 21.1911111 1.59142857 19.8949206"></polygon>
                    <polygon id="路径" fill="#0091DA" fill-rule="nonzero" points="10.4203175 0 7.56285714 2.94603175 9.00031746 2.37714286"></polygon>
                    <polygon id="路径" fill="#0091DA" fill-rule="nonzero" points="7.91079365 0.997460317 5.05333333 3.94349206 6.87968254 2.82126984"></polygon>
                    <polygon id="路径" fill="#0091DA" fill-rule="nonzero" points="13.7260317 17.4495238 14.552381 18.5015873 16.1504762 15.8793651 12.2444444 16.3971429"></polygon>
                    <polygon id="路径" fill="#009FE8" fill-rule="nonzero" points="9.00031746 2.37714286 7.56285714 2.94603175 9.21396825 3.63174603"></polygon>
                    <polygon id="路径" fill="#B2DEF0" fill-rule="nonzero" points="7.16063492 2.87968254 7.90603175 1.01619048 6.87174603 2.82825397"></polygon>
                    <polygon id="路径" fill="#B2DEF0" fill-rule="nonzero" points="9.21396825 3.63174603 10.4174603 0.00412698413 9.00031746 2.37714286"></polygon>
                    <polygon id="路径" fill="#0091DA" fill-rule="nonzero" points="2.59619048 18.6866667 1.59142857 19.8949206 3.78603175 18.5371429 1.98063492 17.1977778"></polygon>
                    <polygon id="路径" fill="#009FE8" fill-rule="nonzero" points="2.67809524 8.31460317 2.63238095 11.1565079 5.61301587 8.82634921"></polygon>
                    <polygon id="路径" fill="#0062B0" fill-rule="nonzero" points="3.41396825 21.1911111 3.78603175 18.5371429 1.59142857 19.8949206"></polygon>
                    <polygon id="路径" fill="#0062B0" fill-rule="nonzero" points="16.1504762 15.8793651 16.0161905 13.0701587 13.8498413 14.6860317"></polygon>
                    <polygon id="路径" fill="#009FE8" fill-rule="nonzero" points="12.2444444 16.3971429 16.1504762 15.8793651 13.8498413 14.6860317"></polygon>
                    <polygon id="路径" fill="#0091DA" fill-rule="nonzero" points="13.8498413 14.6860317 16.0161905 13.0701587 14.6834921 12.6053968"></polygon>
                    <polygon id="路径" fill="#0091DA" fill-rule="nonzero" points="16.0161905 13.0701587 18.2647619 11.7460317 17.4403175 11.1193651"></polygon>
                    <polygon id="路径" fill="#0062B0" fill-rule="nonzero" points="10.6577778 15.3346032 12.2444444 16.3971429 13.8498413 14.6860317"></polygon>
                    <polygon id="路径" fill="#009FE8" fill-rule="nonzero" points="15.8555556 11.9695238 14.6834921 12.6053968 16.0161905 13.0701587 17.4403175 11.1193651"></polygon>
                    <polygon id="路径" fill="#004380" fill-rule="nonzero" points="9.05619048 16.1787302 10.6577778 15.3346032 6.26095238 14.431746"></polygon>
                    <polygon id="路径" fill="#0091DA" fill-rule="nonzero" points="10.8520635 13.4184127 10.6577778 15.3346032 13.8498413 14.6860317"></polygon>
                    <polygon id="路径" fill="#0062B0" fill-rule="nonzero" points="10.8520635 13.4184127 6.26095238 14.431746 10.6577778 15.3346032 10.8520635 13.4184127"></polygon>
                    <polygon id="路径" fill="#B2DEF0" fill-rule="nonzero" points="20.0968254 9.93714286 21.7104762 7.86 19.0609524 8.69238095 20.0733333 9.95904762"></polygon>
                    <polygon id="路径" fill="#0091DA" fill-rule="nonzero" points="19.524127 11.9933333 21.2250794 11.3768254 20.0733333 9.95904762"></polygon>
                    <polygon id="路径" fill="#0062B0" fill-rule="nonzero" points="20.0733333 9.95904762 18.2453968 11.7495238 19.5184127 11.9968254 20.0733333 9.95904762"></polygon>
                    <polygon id="路径" fill="#009FE8" fill-rule="nonzero" points="17.4403175 11.1193651 18.2707937 11.7520635 19.0609524 8.69238095"></polygon>
                    <polygon id="路径" fill="#009FE8" fill-rule="nonzero" points="20.0733333 9.95904762 20.0733333 9.95904762 21.2250794 11.3803175 21.7168254 7.86"></polygon>
                    <polygon id="路径" fill="#0091DA" fill-rule="nonzero" points="19.0609524 8.69238095 18.2453968 11.7495238 20.0733333 9.95904762"></polygon>
                    <polygon id="路径" fill="#0091DA" fill-rule="nonzero" points="6.87238095 17.052381 9.05619048 16.1787302 6.26095238 14.431746"></polygon>
                    <polygon id="路径" fill="#0091DA" fill-rule="nonzero" points="5.61301587 8.82634921 2.72571429 5.32285714 2.67809524 8.31460317"></polygon>
                    <polygon id="路径" fill="#0091DA" fill-rule="nonzero" points="5.06412698 3.85047619 2.72571429 5.32285714 5.29428571 5.96666667"></polygon>
                    <polygon id="路径" fill="#009FE8" fill-rule="nonzero" points="5.29428571 5.96666667 2.72571429 5.32285714 5.61301587 8.82634921"></polygon>
                    <polygon id="路径" fill="#009FE8" fill-rule="nonzero" points="2.67809524 8.31460317 2.72571429 5.32285714 1.59936508 7.72412698 2.65904762 8.31142857"></polygon>
                    <polygon id="路径" fill="#0062B0" fill-rule="nonzero" points="5.61301587 8.82634921 6.3 5.16666667 6.27650794 5.14095238 5.06412698 3.85047619 5.29428571 5.96666667"></polygon>
                    <polygon id="路径" fill="#009FE8" fill-rule="nonzero" points="6.3 5.16666667 6.87968254 2.82126984 5.06412698 3.85047619 6.27650794 5.14095238"></polygon>
                    <polygon id="路径" fill="#0062B0" fill-rule="nonzero" points="1.59936508 7.72412698 0 10.4806349 2.65904762 8.31142857"></polygon>
                    <polygon id="路径" fill="#0091DA" fill-rule="nonzero" points="2.67809524 8.31460317 2.65904762 8.31142857 0 10.4806349 2.63238095 11.1565079"></polygon>
                    <polygon id="路径" fill="#004380" fill-rule="nonzero" points="3.78603175 18.5371429 4.95047619 16.7028571 3.20349206 15.1304762"></polygon>
                    <polygon id="路径" fill="#009FE8" fill-rule="nonzero" points="4.95047619 16.7028571 6.87238095 17.052381 6.26095238 14.431746"></polygon>
                    <polygon id="路径" fill="#0062B0" fill-rule="nonzero" points="1.98063492 17.1977778 3.78603175 18.5371429 3.20349206 15.1304762"></polygon>
                    <polygon id="路径" fill="#0062B0" fill-rule="nonzero" points="3.20349206 15.1304762 4.95047619 16.7028571 6.26095238 14.431746"></polygon>
                    <polygon id="路径" fill="#0062B0" fill-rule="nonzero" points="0 10.4806349 1.50634921 14.2644444 2.63238095 11.1565079"></polygon>
                    <polygon id="路径" fill="#009FE8" fill-rule="nonzero" points="1.50634921 14.2644444 1.98063492 17.1977778 3.20349206 15.1304762"></polygon>
                    <polygon id="路径" fill="#0091DA" fill-rule="nonzero" points="2.63238095 11.1565079 1.50634921 14.2644444 3.20349206 15.1304762"></polygon>
                    <polygon id="路径" fill="#B2DEF0" fill-rule="nonzero" points="14.6834921 12.6053968 10.8114286 11.0168254 10.8520635 13.4184127"></polygon>
                    <polygon id="路径" fill="#009FE8" fill-rule="nonzero" points="10.8520635 13.4184127 10.8520635 13.4184127 10.8114286 11.0168254 6.75587302 12.0152381"></polygon>
                    <polygon id="路径" fill="#0091DA" fill-rule="nonzero" points="6.3 5.16666667 5.61301587 8.82634921 8.08412698 7.24793651"></polygon>
                    <polygon id="路径" fill="#009FE8" fill-rule="nonzero" points="6.3 5.16666667 8.08412698 7.24793651 9.88507937 6.35015873 6.3031746 5.15015873"></polygon>
                    <polygon id="路径" fill="#B2DEF0" fill-rule="nonzero" points="8.03015873 8.93206349 9.88507937 6.35015873 8.08412698 7.24793651"></polygon>
                    <polygon id="路径" fill="#B2DEF0" fill-rule="nonzero" points="6.3 5.16666667 9.88507937 6.35015873 9.21396825 3.63174603 6.3 5.16666667"></polygon>
                    <polygon id="路径" fill="#0091DA" fill-rule="nonzero" points="9.21396825 3.63174603 7.56285714 2.94603175 6.87968254 2.82126984 6.3 5.1647619"></polygon>
                </g>
            </g>
        </g>
    </g>
</svg>