<svg xmlns="http://www.w3.org/2000/svg" xmlns:xlink="http://www.w3.org/1999/xlink" viewBox="0 0 96 96"><defs><style>.cls-1{fill:url(#未命名的渐变_24);}.cls-2{fill:#c4c0bf;}.cls-3{fill:#f2f2f2;}.cls-4{fill:url(#未命名的渐变_17);}</style><linearGradient id="未命名的渐变_24" x1="48" y1="32" x2="48" y2="116" gradientTransform="matrix(1, 0, 0, -1, 0, 122)" gradientUnits="userSpaceOnUse"><stop offset="0" stop-color="#7c736e"/><stop offset="1" stop-color="#ccc2ba"/></linearGradient><radialGradient id="未命名的渐变_17" cx="54.92" cy="105.15" r="12.5" gradientTransform="matrix(1, 0, 0, -1, 4.08, 140.15)" gradientUnits="userSpaceOnUse"><stop offset="0" stop-color="#dbdddd"/><stop offset="1" stop-color="#776d65"/></radialGradient></defs><title>96</title><g id="系统修复工具"><g id="_96" data-name="96"><g id="图层_1" data-name="图层 1"><rect class="cls-1" x="6" y="6" width="84" height="84" rx="9"/><rect class="cls-2" x="29.48" y="41.51" width="40.46" height="5.72" rx="2.35" transform="translate(-16.81 48.15) rotate(-45)"/><path class="cls-3" d="M75.74,60.94,72.9,56.19A26.12,26.12,0,0,0,73.28,41l3.06-4.6-3.27-6-5.52.09a26.22,26.22,0,0,0-12.95-7.9l-2.45-4.95-6.82-.17-2.69,4.82a26.33,26.33,0,0,0-13.32,7.26l-5.51-.35L20.26,35l2.84,4.75A26.18,26.18,0,0,0,22.72,55l-3.06,4.6,3.27,6,5.52-.09a26.22,26.22,0,0,0,13,7.9l2.45,5,6.82.17,2.69-4.82a26.33,26.33,0,0,0,13.32-7.26l5.51.35ZM36.88,59.12a15.73,15.73,0,1,1,22.25,0h0a15.71,15.71,0,0,1-22.22,0Z"/><circle class="cls-4" cx="59" cy="35" r="12.5"/></g></g></g></svg>