<svg id="图层_1" data-name="图层 1" xmlns="http://www.w3.org/2000/svg" xmlns:xlink="http://www.w3.org/1999/xlink" viewBox="0 0 48 48"><defs><linearGradient id="未命名的渐变_17" x1="24" y1="2" x2="24" y2="46" gradientUnits="userSpaceOnUse"><stop offset="0.03" stop-color="#c877fb"/><stop offset="1" stop-color="#f94974"/></linearGradient><linearGradient id="未命名的渐变_29" x1="35.82" y1="30.5" x2="12.18" y2="30.5" gradientUnits="userSpaceOnUse"><stop offset="0.03" stop-color="#fff"/><stop offset="1" stop-color="#e6e6e6"/></linearGradient></defs><circle cx="24" cy="24" r="22" fill="url(#未命名的渐变_17)"/><path d="M24,9a6,6,0,0,0-.75.05,5.73,5.73,0,0,0-3.15,1.46,4.93,4.93,0,0,0-1.6,3.6v7.78A5.33,5.33,0,0,0,24,27a6,6,0,0,0,.75-.05,5.73,5.73,0,0,0,3.15-1.46,4.93,4.93,0,0,0,1.6-3.6V14.11A5.33,5.33,0,0,0,24,9Z" fill="#f2f2f2"/><path d="M22.11,10.6a5.23,5.23,0,0,1,1.14-1.55,5.73,5.73,0,0,0-3.15,1.46,6.33,6.33,0,0,1,.76,0A5.7,5.7,0,0,1,22.11,10.6Z" fill="#e6e6e6"/><path d="M25.89,25.4A5.23,5.23,0,0,1,24.75,27a5.73,5.73,0,0,0,3.15-1.46,6.33,6.33,0,0,1-.76.05A5.7,5.7,0,0,1,25.89,25.4Z" fill="#e6e6e6"/><path d="M29.5,14.11A5.33,5.33,0,0,0,24,9a6,6,0,0,0-.75.05,5.23,5.23,0,0,0-1.14,1.55,5.22,5.22,0,0,1,4.25,5v7.78a4.74,4.74,0,0,1-.47,2,5.7,5.7,0,0,0,1.25.14,6.33,6.33,0,0,0,.76-.05,4.93,4.93,0,0,0,1.6-3.6Z" fill="#ccc"/><path d="M21.64,20.43V12.65a4.74,4.74,0,0,1,.47-2.05,5.7,5.7,0,0,0-1.25-.14,6.33,6.33,0,0,0-.76,0,4.93,4.93,0,0,0-1.6,3.6v7.78A5.33,5.33,0,0,0,24,27a6,6,0,0,0,.75-.05,5.23,5.23,0,0,0,1.14-1.55A5.22,5.22,0,0,1,21.64,20.43Z" fill="#fff"/><path d="M21.64,20.43a5.22,5.22,0,0,0,4.25,5,4.74,4.74,0,0,0,.47-2V15.57a5.22,5.22,0,0,0-4.25-5,4.74,4.74,0,0,0-.47,2.05Z" fill="#f2f2f2"/><path d="M24,29.82A9.82,9.82,0,0,1,14.66,23H12.39A12,12,0,0,0,23,32V37a1,1,0,0,0,2,0V32A12,12,0,0,0,35.61,23H33.34A9.82,9.82,0,0,1,24,29.82Z" fill="url(#未命名的渐变_29)"/></svg>