<?xml version="1.0" encoding="utf-8"?>
<!-- Generator: Adobe Illustrator 24.0.0, SVG Export Plug-In . SVG Version: 6.00 Build 0)  -->
<svg version="1.1" id="图层_1" xmlns="http://www.w3.org/2000/svg" xmlns:xlink="http://www.w3.org/1999/xlink" x="0px" y="0px"
	 viewBox="0 0 128 128" enable-background="new 0 0 128 128" xml:space="preserve">
<title>128</title>
<g id="_128">
	
		<linearGradient id="SVGID_1_" gradientUnits="userSpaceOnUse" x1="39" y1="5" x2="39" y2="123.0001" gradientTransform="matrix(1 0 0 -1 0 128)">
		<stop  offset="0" style="stop-color:#00B7FF"/>
		<stop  offset="1" style="stop-color:#0072FF"/>
	</linearGradient>
	<path fill="url(#SVGID_1_)" d="M59.5,6.9C52.4,14,37.7,24.1,20.6,24.1h-0.1C17,24,14,26.9,14,30.5c0,0,0,0,0,0l2.6,35
		C19.3,100.2,53.9,123,64,123V5C62.3,5,60.7,5.7,59.5,6.9z"/>
	
		<linearGradient id="SVGID_2_" gradientUnits="userSpaceOnUse" x1="64" y1="64" x2="114" y2="64" gradientTransform="matrix(1 0 0 -1 0 128)">
		<stop  offset="0" style="stop-color:#0086FF"/>
		<stop  offset="1" style="stop-color:#0072FF"/>
	</linearGradient>
	<path fill="url(#SVGID_2_)" d="M111.4,65.5l2.6-35c0-3.6-3-6.5-6.5-6.4c0,0,0,0,0,0h-0.1c-17,0-31.7-10-38.8-17.2
		C67.3,5.7,65.7,5,64,5v118C73.9,123,109.3,99.6,111.4,65.5z"/>
	
		<linearGradient id="SVGID_3_" gradientUnits="userSpaceOnUse" x1="45" y1="41.35" x2="45" y2="86.58" gradientTransform="matrix(1 0 0 1 0 2)">
		<stop  offset="0" style="stop-color:#FFBE06"/>
		<stop  offset="1" style="stop-color:#FFFF08"/>
	</linearGradient>
	<polygon fill="url(#SVGID_3_)" points="26,43.3 64,88.6 64,65.2 37.3,43.3 	"/>
	
		<linearGradient id="SVGID_4_" gradientUnits="userSpaceOnUse" x1="83" y1="86.58" x2="83" y2="41.35" gradientTransform="matrix(1 0 0 1 0 2)">
		<stop  offset="0" style="stop-color:#FFBE06"/>
		<stop  offset="1" style="stop-color:#FFFF08"/>
	</linearGradient>
	<polygon fill="url(#SVGID_4_)" points="102,43.3 90.7,43.3 64,65.2 64,88.6 	"/>
</g>
</svg>
