<?xml version="1.0" encoding="utf-8"?>
<!-- Generator: Adobe Illustrator 24.0.0, SVG Export Plug-In . SVG Version: 6.00 Build 0)  -->
<svg version="1.1" id="libreoffice" xmlns="http://www.w3.org/2000/svg" xmlns:xlink="http://www.w3.org/1999/xlink" x="0px"
	 y="0px" viewBox="0 0 128 128" enable-background="new 0 0 128 128" xml:space="preserve">
<title>128</title>
<g id="office">
	<g id="_128">
		<path fill="#00A500" d="M20,8h88c6.6,0,12,5.4,12,12v88c0,6.6-5.4,12-12,12H20c-6.6,0-12-5.4-12-12V20C8,13.4,13.4,8,20,8z"/>
		
			<linearGradient id="SVGID_1_" gradientUnits="userSpaceOnUse" x1="64" y1="0.31" x2="64" y2="75.64" gradientTransform="matrix(1 0 0 1 0 26)">
			<stop  offset="0" style="stop-color:#FFFFFF"/>
			<stop  offset="1" style="stop-color:#EEEEEE"/>
		</linearGradient>
		<path fill="url(#SVGID_1_)" d="M31,99.1V29c0-3.3,2.6-6,5.9-6c0,0,0,0,0.1,0h34.5L97,49.2v49.8c0,3.3-2.6,6-5.9,6c0,0,0,0-0.1,0
			H36.9C33.7,105.1,31,102.4,31,99.1C31,99.1,31,99.1,31,99.1z"/>
		<path fill="#FFFFFF" d="M91.1,23H76.4L97,43.7V29C97,25.7,94.4,23,91.1,23C91.1,23,91.1,23,91.1,23z"/>
	</g>
</g>
</svg>
