<?xml version="1.0" encoding="utf-8"?>
<!-- Generator: Adobe Illustrator 24.0.0, SVG Export Plug-In . SVG Version: 6.00 Build 0)  -->
<svg version="1.1" id="meld" xmlns="http://www.w3.org/2000/svg" xmlns:xlink="http://www.w3.org/1999/xlink" x="0px" y="0px"
	 viewBox="0 0 128 128" enable-background="new 0 0 128 128" xml:space="preserve">
<title>128</title>
<g id="_128">
	
		<linearGradient id="SVGID_1_" gradientUnits="userSpaceOnUse" x1="64" y1="13.81" x2="64" y2="113.67" gradientTransform="matrix(1 0 0 -1 0 128)">
		<stop  offset="0" style="stop-color:#3A6BA1"/>
		<stop  offset="0.92" style="stop-color:#78ABFF"/>
	</linearGradient>
	<path fill="url(#SVGID_1_)" d="M8,8h88c13.3,0,24,10.7,24,24v88l0,0H32c-13.3,0-24-10.7-24-24V8L8,8z"/>
	<g>
		<defs>
			<path id="SVGID_2_" d="M8,8h88c13.3,0,24,10.7,24,24v88l0,0H32c-13.3,0-24-10.7-24-24V8L8,8z"/>
		</defs>
		<clipPath id="SVGID_3_">
			<use xlink:href="#SVGID_2_"  overflow="visible"/>
		</clipPath>
		<g clip-path="url(#SVGID_3_)">
			<path fill="#FF9800" d="M73.9,122.1c10.3,0,41.2-0.1,48.1-0.1V39.9c-1.7-3.5-15.4-9-23.3-12.4c-13-5.6-26.2-6.6-39.1,0.5
				c-6.9,3.8-12.5,8.8-15.4,16.2c-3,8.8-0.4,18.6,6.7,24.7c4.7,3.8,13.1,1.6,13.1-4.8c-0.9,0-1.3,1.5-4.7,1.2c-2.3-0.2-4.3-1.8-5-4
				c-1-6.4,2-12.8,7.7-16c5.8-3.3,12.8-3.5,18.8-0.7c12.6,5.3,21.1,21.7,18.7,36.2C97.6,93.3,83.9,114.3,73.9,122.1z"/>
			<path fill="#FF9800" d="M76.9,58.5c-5.2-3.9-13.9-1-12.9,5.5c1-0.1,2.1-1.8,4.2-1.8c3-0.2,6.2,1.5,5.7,7.4
				c-0.8,9.4-9.6,16.3-19.7,15.1c-12.3-1.5-24.8-14.6-25.9-27.4c-1.1-12.3,3.3-24.1,10.5-34.1c5.3-7.4,16.6-15,19.3-17.3H6
				c0,15.5-0.2,63-0.2,82c5.1,3.3,18.4,12.8,30.2,14.7c18,2.9,34,0.2,44.8-13.6C87.8,80.1,85.9,65.4,76.9,58.5z"/>
		</g>
	</g>
</g>
</svg>
