<?xml version="1.0" encoding="utf-8"?>
<!-- Generator: Adobe Illustrator 24.0.0, SVG Export Plug-In . SVG Version: 6.00 Build 0)  -->
<svg version="1.1" id="图层_1" xmlns="http://www.w3.org/2000/svg" xmlns:xlink="http://www.w3.org/1999/xlink" x="0px" y="0px"
	 viewBox="0 0 128 128" enable-background="new 0 0 128 128" xml:space="preserve">
<title>midori-112</title>
<path fill="#68C553" d="M20,8h88c6.6,0,12,5.4,12,12v88c0,6.6-5.4,12-12,12H20c-6.6,0-12-5.4-12-12V20C8,13.4,13.4,8,20,8z"/>
<path fill="#388E3C" d="M99.6,25.3c0.1,0.4-5.8,0.8-13.8,4.2C80.2,32,73.1,38,72,39c-2.7,2.1-5,4.6-6.7,7.6c-0.6,1-2.9,6-1.2,7.8
	c2.4,2.5,12.2-2.2,17.3-5.1c7.7-4.4,10.6-7.7,14.8-12.5c1.4-1.6,2.1-3.6,3-3.5c2.1,0.3,2.2,9.3,2.2,14.2c0.3,7.9-0.3,15.7-1.8,23.5
	c-1.6,7.6-4.2,15-7.9,21.9c-3.2,5.9-5.8,9-9.6,10.1c-2.1,0.6-4.4,0.5-6.4-0.3c-6-2.1-7.8-9.4-8-10.6c-2.2-8.7,2.8-15.9,0.9-17
	c-1.1-0.6-3.5,1.3-4.5,3c-1.7,3.2-2.6,6.7-2.6,10.3c0.1,4.1,1,7.4,3.4,9.1c1.2,0.8,2.4,0.7,2.6,1.6c0.4,1.4-1.8,3.6-4,4.6
	c-3.6,1.8-8.4,0.9-11.7-1.5c-3.9-2.8-4.9-7.2-5.4-9.7c-2.7-12.6,5.1-23.4,2.9-24.7c-1.1-0.7-3.7,1.9-3.8,2c-1.7,2-3,4.3-3.7,6.8
	c-1.1,2.8-0.2,10,0.5,13.8c0.2,0.9-0.5,1.8-1.4,2c-0.2,0-0.4,0-0.7,0c-2-0.5-4.8-1.4-6.5-3.1c-8-8-4.6-22.8-4.1-24.7
	c3.5-14,14.8-21.8,20.7-26C59.5,32.3,68,30,74.5,28.3C87.8,24.7,99.5,24.7,99.6,25.3z"/>
<path fill="#FFFFFF" d="M97.6,23.8c0.1,0.4-5.8,0.8-13.8,4.2c-5.6,2.4-12.7,8.4-13.8,9.4c-2.7,2.1-5,4.6-6.7,7.5
	c-0.6,1-2.9,6-1.2,7.8c2.4,2.5,12.2-2.2,17.3-5.1c7.6-4.4,10.6-7.7,14.9-12.5c1.4-1.6,2.1-3.6,3-3.4c2.1,0.3,2.2,9.3,2.2,14.2
	c0.1,6.7,0.2,13.8-1.8,23.5c-1.6,7.6-4.2,15-7.9,21.9c-3.2,5.9-5.8,9-9.6,10.1c-2.1,0.6-4.4,0.5-6.5-0.3c-6-2.1-7.8-9.4-8-10.6
	c-2.2-8.7,2.8-15.9,0.9-17c-1.1-0.5-3.5,1.3-4.5,3c-1.7,3.2-2.6,6.7-2.6,10.3c0.1,4.1,1,7.4,3.4,9.1c1.2,0.8,2.4,0.7,2.6,1.6
	c0.4,1.4-1.8,3.6-4,4.6c-3.6,1.8-8.4,0.9-11.7-1.5c-3.9-2.8-4.9-7.2-5.4-9.7c-2.7-12.6,5.1-23.4,2.9-24.7c-1.1-0.7-3.7,1.8-3.8,2
	c-1.7,2-2.9,4.3-3.6,6.8c-1.2,2.8-0.2,10,0.5,13.8c0.2,0.9-0.5,1.8-1.4,2c-0.2,0-0.4,0-0.7,0c-2-0.5-4.8-1.4-6.5-3.1
	c-8-8-4.6-22.8-4.1-24.7c3.5-14,14.7-21.8,20.7-26c9.1-6.3,17.6-8.6,24.1-10.3C85.8,23.2,97.5,23.2,97.6,23.8z"/>
</svg>
