<?xml version="1.0" encoding="utf-8"?>
<!-- Generator: Adobe Illustrator 24.0.0, SVG Export Plug-In . SVG Version: 6.00 Build 0)  -->
<svg version="1.1" id="图层_1" xmlns="http://www.w3.org/2000/svg" xmlns:xlink="http://www.w3.org/1999/xlink" x="0px" y="0px"
	 viewBox="0 0 128 128" enable-background="new 0 0 128 128" xml:space="preserve">
<title>mysql-workbench128</title>
<path fill="#006C95" d="M20.2,8h87.6c6.7,0,12.2,5.5,12.2,12.2v87.6c0,6.7-5.5,12.2-12.2,12.2H20.2C13.5,120,8,114.5,8,107.8V20.2
	C8,13.5,13.5,8,20.2,8z"/>
<path fill="#FFFFFF" d="M97.3,105.3c0,0-13.9-12-12.5-14.4c1.3-2.2,5.5-1.2,8.8-1.2c0.7,0,1.3-0.5,1.4-1.2c0.3-1.8-2.6-8-15.5-14.3
	c-0.7-2.2-7.3-22.4-14-31.3c-4.9-6.5-10.1-14.5-21.9-15.5c-1-1.3-7.8-7.7-12.5-5.3c-0.8,0.4-1.5,1.1-1.7,2c-0.9,3,1.6,7,3.9,10.8
	c1.2,2.1,2.3,4,2.4,5c0.5,4.1,3,12.7,5.1,14.8c0,0-0.5,2.6-0.9,4.6c-1.5,6.9-3.1,18.8,5.8,24.9l0.7,0.5v-0.8
	c0.1-3.9,0.8-7.7,2.1-11.3c0.7,3.8,3.5,11.8,9.6,17.1l1.2-0.7c-7.2-6.3-9.7-20.3-9.7-20.4l-0.2-1.5c0,0-1.3,2.1-1.8,3.1
	c-1.9,3.1-2.7,8-2.9,10.5c-4.8-7-3.8-13.5-2.4-20c0.7-3.3,1.2-6.1,0.5-6.7c-1.7-1.7-4.2-10-4.7-14.1c-0.1-1.1-1.4-3.2-2.8-5.5
	c-2.1-3.6-2.2-4.1-2.8-6.4c-0.2-0.6-0.8-2.9,0.9-3.4c2.8-0.8,8.3,5.2,8.4,5.3h0.9c10.4,0.9,15.8,7.2,21.3,15.7
	c6.5,10.2,12.9,30.3,13,30.5l0.6,0.3l0.2,0.1c6.2,1.9,15,9.8,14.9,11c-4.2,0.5-7.2,0.2-9.1,1.5c-1.1,0.9-1.4,2.4-0.9,3.7
	c1.9,4.6,16.7,14.8,16.7,14.8L97.3,105.3z"/>
<ellipse transform="matrix(0.8324 -0.5541 0.5541 0.8324 -13.5469 31.8267)" fill="#FFFFFF" cx="45.9" cy="38.3" rx="1.4" ry="3.2"/>
</svg>
