<?xml version="1.0" encoding="utf-8"?>
<!-- Generator: Adobe Illustrator 24.0.0, SVG Export Plug-In . SVG Version: 6.00 Build 0)  -->
<svg version="1.1" id="备份" xmlns="http://www.w3.org/2000/svg" xmlns:xlink="http://www.w3.org/1999/xlink" x="0px" y="0px"
	 viewBox="0 0 128 128" enable-background="new 0 0 128 128" xml:space="preserve">
<title>128</title>
<g id="_128">
	<ellipse fill="#CBCBCB" cx="54" cy="107" rx="46" ry="12"/>
	<rect x="8" y="84" fill="#CBCBCB" width="92" height="24"/>
	<ellipse fill="#7C7C7C" cx="54" cy="84" rx="46" ry="12"/>
	<ellipse fill="#78A92C" cx="54" cy="82" rx="43" ry="10"/>
	<ellipse fill="#CBCBCB" cx="54" cy="76" rx="46" ry="12"/>
	<rect x="8" y="52" fill="#CBCBCB" width="92" height="24"/>
	<ellipse fill="#7C7C7C" cx="54" cy="52" rx="46" ry="12"/>
	<ellipse fill="#78A92C" cx="54" cy="50" rx="43" ry="10"/>
	<ellipse fill="#CBCBCB" cx="54" cy="44" rx="46" ry="12"/>
	<rect x="8" y="20" fill="#CBCBCB" width="92" height="24"/>
	<ellipse fill="#E3E3E3" cx="54" cy="20" rx="46" ry="12"/>
	<circle fill="#E6FFFF" cx="88" cy="88" r="29.5"/>
	<path fill="#2298CA" d="M88,61c14.9,0,27,12.1,27,27s-12.1,27-27,27s-27-12.1-27-27l0,0C61,73.1,73.1,61,88,61 M88,56
		c-17.7,0-32,14.3-32,32s14.3,32,32,32s32-14.3,32-32S105.7,56,88,56z"/>
	<polygon fill="#2398CA" points="87,72 68,88 87,104 87,96 107,96 107,80 87,80 	"/>
</g>
</svg>
