<?xml version="1.0" encoding="utf-8"?>
<!-- Generator: Adobe Illustrator 24.0.0, SVG Export Plug-In . SVG Version: 6.00 Build 0)  -->
<svg version="1.1" id="图层_2" opacity="0.8" xmlns="http://www.w3.org/2000/svg" xmlns:xlink="http://www.w3.org/1999/xlink"
	 x="0px" y="0px" viewBox="0 0 16 16" style="enable-background:new 0 0 16 16;" xml:space="preserve">
<style type="text/css">
	.st0{fill:none;stroke:#1F2022;stroke-linecap:round;stroke-miterlimit:10;}
	.st1{fill:#1F2022;}
	.st2{fill:none;stroke:#1F2022;stroke-miterlimit:10;}
</style>
<path class="st0" d="M13.5,7.5c1.1,0,2,0.9,2,2v3c0,1.1-0.9,2-2,2h-11c-1.1,0-2-0.9-2-2v-3c0-1.1,0.9-2,2-2"/>
<circle class="st1" cx="12" cy="12" r="1"/>
<circle class="st1" cx="8" cy="12" r="1"/>
<circle class="st1" cx="4" cy="12" r="1"/>
<g>
	<path class="st1" d="M11,5v4H5V5H11 M11,4H5C4.4,4,4,4.4,4,5v4c0,0.6,0.4,1,1,1h6c0.6,0,1-0.4,1-1V5C12,4.4,11.6,4,11,4L11,4z"/>
</g>
<path class="st2" d="M5.5,4.8V4c0-1.4,1.1-2.5,2.5-2.5h0c1.4,0,2.5,1.1,2.5,2.5v0.8"/>
</svg>
