<?xml version="1.0" encoding="utf-8"?>
<!-- Generator: Adobe Illustrator 24.0.0, SVG Export Plug-In . SVG Version: 6.00 Build 0)  -->
<svg version="1.1" id="图层_1" xmlns="http://www.w3.org/2000/svg" xmlns:xlink="http://www.w3.org/1999/xlink" x="0px" y="0px"
	 viewBox="0 0 96 96" enable-background="new 0 0 96 96" xml:space="preserve">
<title>pluma22</title>
<path fill="#FFFFFF" d="M15,6h66c5,0,9,4,9,9v66c0,5-4,9-9,9H15c-5,0-9-4-9-9V15C6,10,10,6,15,6z"/>
<path fill="#75716F" d="M70.4,82.4h-54c-0.8,0-1.6-0.6-1.6-1.5c0,0,0,0,0,0l1.6-64c0-0.8,0.7-1.5,1.6-1.5c0,0,0,0,0,0h50.8
	c0.8,0,1.6,0.6,1.6,1.5c0,0,0,0,0,0l1.6,64C72,81.7,71.3,82.4,70.4,82.4C70.4,82.4,70.4,82.4,70.4,82.4z"/>
<path fill="#F5F5F5" d="M68,21c0-0.8-0.8-1.5-1.6-1.4h-46c-0.8-0.1-1.5,0.6-1.6,1.4c0,0,0,0,0,0l-1.5,56h52.3L68,21z"/>
<path fill="#9E9A98" d="M17.3,77l0,1.8c0,0.8,0.8,1.5,1.6,1.4H68c0.8,0,1.5-0.6,1.6-1.4l0-1.8H17.3z"/>
<rect x="24" y="38.8" fill="#BAB6B5" width="7.7" height="1.6"/>
<rect x="23.3" y="47.8" fill="#BAB6B5" width="7.7" height="1.6"/>
<rect x="32.6" y="47.8" fill="#BAB6B5" width="7.7" height="1.6"/>
<rect x="41.9" y="47.8" fill="#BAB6B5" width="7.7" height="1.6"/>
<rect x="23.3" y="55.7" fill="#BAB6B5" width="7.7" height="1.6"/>
<rect x="32" y="55.7" fill="#BAB6B5" width="7.7" height="1.6"/>
<rect x="40.8" y="55.7" fill="#BAB6B5" width="7.7" height="1.6"/>
<rect x="23.3" y="63.2" fill="#BAB6B5" width="7.7" height="1.6"/>
<rect x="33.8" y="63.2" fill="#BAB6B5" width="7.7" height="1.6"/>
<rect x="43.5" y="63.2" fill="#BAB6B5" width="17.9" height="1.6"/>
<rect x="24.8" y="29.3" fill="#BAB6B5" width="9.7" height="1.6"/>
<rect x="36.1" y="29.3" fill="#BAB6B5" width="9.7" height="1.6"/>
<rect x="47.4" y="29.3" fill="#BAB6B5" width="9.7" height="1.6"/>
<rect x="53.5" y="34" fill="#BAB6B5" width="9.7" height="1.6"/>
<rect x="38.2" y="34" fill="#BAB6B5" width="12.4" height="1.6"/>
<rect x="24.2" y="34" fill="#BAB6B5" width="12.4" height="1.6"/>
<path fill="#9E9E9E" d="M23.8,13.8h2.2c0.2,0,0.3,0.2,0.3,0.3v7.3c0,0.2-0.2,0.3-0.3,0.3h-2.2c-0.2,0-0.3-0.2-0.3-0.3v-7.3
	C23.4,14,23.6,13.8,23.8,13.8z"/>
<path fill="#4D4D4D" d="M24.8,22.1c-1,0-1.8-0.8-1.8-1.8c0,0,0,0,0,0v-5.1c0.1-1,0.9-1.8,1.9-1.7c0.9,0.1,1.6,0.8,1.7,1.7v5.1
	C26.6,21.3,25.8,22.1,24.8,22.1z M24.8,14.1c-0.6,0-1,0.4-1,1v5.1c0,0.6,0.5,1,1,1s1-0.5,1-1v-5.1c0-0.6-0.4-1-1-1
	C24.9,14.2,24.9,14.2,24.8,14.1L24.8,14.1z"/>
<path fill="#4D4D4D" d="M22.6,20.8h4.5c0.1,0,0.1,0.1,0.1,0.1v1c0,0.1-0.1,0.1-0.1,0.1h-4.5c-0.1,0-0.1-0.1-0.1-0.1v-1
	C22.5,20.9,22.5,20.8,22.6,20.8z"/>
<path fill="#9E9E9E" d="M33.1,13.8h2.2c0.2,0,0.3,0.2,0.3,0.3v7.3c0,0.2-0.2,0.3-0.3,0.3h-2.2c-0.2,0-0.3-0.2-0.3-0.3v-7.3
	C32.7,14,32.9,13.8,33.1,13.8z"/>
<path fill="#4D4D4D" d="M34.2,22.1c-1,0-1.8-0.8-1.8-1.8c0,0,0,0,0,0v-5.1c0-1,0.8-1.8,1.8-1.8c1,0,1.8,0.8,1.8,1.8c0,0,0,0,0,0v5.1
	C36,21.3,35.2,22.1,34.2,22.1z M34.2,14.1c-0.6,0-1,0.4-1,1v5.1c0,0.6,0.5,1,1,1c0.6,0,1-0.5,1-1v-5.1c0-0.6-0.4-1-1-1
	C34.3,14.2,34.2,14.2,34.2,14.1L34.2,14.1z"/>
<path fill="#4D4D4D" d="M31.9,20.8h4.5c0.1,0,0.2,0.1,0.2,0.1v1c0,0.1-0.1,0.1-0.2,0.1h-4.5c-0.1,0-0.1-0.1-0.1-0.1v-1
	C31.8,20.9,31.9,20.8,31.9,20.8z"/>
<path fill="#9E9E9E" d="M42.4,13.8h2.2c0.2,0,0.3,0.2,0.3,0.3v7.3c0,0.2-0.2,0.3-0.3,0.3h-2.2c-0.2,0-0.3-0.2-0.3-0.3v-7.3
	C42.1,14,42.2,13.8,42.4,13.8z"/>
<path fill="#4D4D4D" d="M43.5,22.1c-1,0-1.8-0.8-1.8-1.8c0,0,0,0,0,0v-5.1c0-1,0.8-1.8,1.8-1.8c1,0,1.8,0.8,1.8,1.8v5.1
	C45.3,21.3,44.5,22.1,43.5,22.1z M43.5,14.1c-0.6,0-1,0.4-1,1v5.1c0,0.6,0.5,1,1,1s1-0.5,1-1v-5.1c0-0.6-0.4-1-1-1
	C43.6,14.2,43.5,14.2,43.5,14.1L43.5,14.1z"/>
<path fill="#4D4D4D" d="M41.3,20.8h4.5c0.1,0,0.2,0.1,0.2,0.1v1c0,0.1-0.1,0.1-0.2,0.1h-4.5c-0.1,0-0.2-0.1-0.2-0.1v-1
	C41.1,20.9,41.2,20.8,41.3,20.8z"/>
<path fill="#9E9E9E" d="M51.7,13.6h2.2c0.2,0,0.3,0.2,0.3,0.3v7.3c0,0.2-0.2,0.3-0.3,0.3h-2.2c-0.2,0-0.3-0.2-0.3-0.3V14
	C51.4,13.8,51.6,13.6,51.7,13.6z"/>
<path fill="#4D4D4D" d="M52.8,22c-1,0-1.8-0.8-1.8-1.8c0,0,0,0,0,0v-5.1c0-1,0.8-1.8,1.8-1.8c1,0,1.8,0.8,1.8,1.8c0,0,0,0,0,0v5.1
	C54.6,21.2,53.8,22,52.8,22z M52.8,14c-0.6,0-1,0.4-1,1c0,0,0,0,0,0.1v5.1c0,0.6,0.5,1,1,1s1-0.5,1-1v-5.1c0-0.6-0.4-1-0.9-1.1
	C52.9,14,52.9,14,52.8,14z"/>
<path fill="#4D4D4D" d="M50.6,20.6h4.5c0.1,0,0.2,0.1,0.2,0.1v1c0,0.1-0.1,0.1-0.2,0.1h-4.5c-0.1,0-0.2-0.1-0.2-0.1v-1
	C50.5,20.7,50.5,20.6,50.6,20.6z"/>
<path fill="#9E9E9E" d="M61.1,13.6h2.2c0.2,0,0.3,0.2,0.3,0.3v7.3c0,0.2-0.2,0.3-0.3,0.3h-2.2c-0.2,0-0.3-0.2-0.3-0.3V14
	C60.7,13.8,60.9,13.6,61.1,13.6z"/>
<path fill="#4D4D4D" d="M62.2,22c-1,0-1.8-0.8-1.8-1.8c0,0,0,0,0,0v-5.1c0-1,0.8-1.8,1.8-1.8c1,0,1.8,0.8,1.8,1.8c0,0,0,0,0,0v5.1
	C64,21.2,63.2,22,62.2,22z M62.2,14c-0.6,0-1,0.4-1,1c0,0,0,0,0,0.1v5.1c0,0.6,0.5,1,1,1c0.6,0,1-0.5,1-1v-5.1c0-0.6-0.4-1-0.9-1.1
	C62.3,14,62.2,14,62.2,14z"/>
<path fill="#4D4D4D" d="M59.9,20.6h4.5c0.1,0,0.2,0.1,0.2,0.1v1c0,0.1-0.1,0.1-0.2,0.1h-4.5c-0.1,0-0.2-0.1-0.2-0.1v-1
	C59.8,20.7,59.8,20.6,59.9,20.6z"/>
<path fill="#FADD60" d="M51.5,65.8c0,0,6.9-2.6,8.1-4.6l-8.2-4.8C50.3,58.5,51.5,65.8,51.5,65.8z"/>
<path fill="#FF9800" d="M51.5,56.2l-0.1,0.2l8.2,4.8l0.1-0.2l18.9-33l-8.3-4.8L51.5,56.2z"/>
<path fill="#D1650D" d="M80.5,25c1.3-2.3,0.6-5.2-1.7-6.6c-2.3-1.3-5.2-0.5-6.5,1.8c0,0,0,0,0,0L72,20.6l8.3,4.8L80.5,25z"/>
<polygon fill="#03A9F4" points="72,20.6 69.2,25.4 77.5,30.2 80.3,25.4 "/>
<path fill="#424141" d="M51.2,67l-0.5-0.3c-0.1,0-0.1-0.1-0.1-0.2l0.8-1.3c0.1-0.1,0.1-0.1,0.2-0.1l0.5,0.3c0.1,0,0.1,0.1,0.1,0.2
	l-0.8,1.3C51.4,67,51.3,67,51.2,67z"/>
</svg>
