<?xml version="1.0" encoding="utf-8"?>
<!-- Generator: Adobe Illustrator 24.0.0, SVG Export Plug-In . SVG Version: 6.00 Build 0)  -->
<svg version="1.1" id="辅助技术" xmlns="http://www.w3.org/2000/svg" xmlns:xlink="http://www.w3.org/1999/xlink" x="0px"
	 y="0px" viewBox="0 0 128 128" enable-background="new 0 0 128 128" xml:space="preserve">
<title>128</title>
<g id="_128">
	<path fill="#5E95E5" d="M20,8h88c6.6,0,12,5.4,12,12v88c0,6.6-5.4,12-12,12H20c-6.6,0-12-5.4-12-12V20C8,13.4,13.4,8,20,8z"/>
	<path fill="#FFFFFF" d="M94.1,43.2l-1.2,0.3L63,48.6l-29.8-5.4c-0.9-0.3-1.8-0.3-2.7,0c-0.9,0.5-1.4,1.4-1.4,2.5
		c0,1,0.6,1.9,1.4,2.3L53,55.8v18l-7.6,27.1c-0.8,1.1-0.6,2.7,0.5,3.6l0.1,0.1c1.2,0.8,2.8,0.6,3.7-0.6c0,0,0,0,0-0.1L63,74.7
		l13.1,29c0.8,1.2,2.3,1.5,3.5,0.7c0,0,0.1,0,0.1-0.1c1-0.8,1.4-2.1,0.9-3.3L73,74.1V56.3L95.9,48c1-0.7,1.4-2,1-3.1
		C96.4,43.8,95.3,43.1,94.1,43.2L94.1,43.2z"/>
	<path fill="#FFFFFF" d="M73,34.2c-0.1,5.5-4.7,9.9-10.2,9.8c-5.5-0.1-9.9-4.7-9.8-10.2c0.1-5.4,4.6-9.8,10-9.8
		C68.6,24.1,73.1,28.6,73,34.2z"/>
</g>
</svg>
