<?xml version="1.0" encoding="utf-8"?>
<!-- Generator: Adobe Illustrator 24.0.0, SVG Export Plug-In . SVG Version: 6.00 Build 0)  -->
<svg version="1.1" id="语言支持" xmlns="http://www.w3.org/2000/svg" xmlns:xlink="http://www.w3.org/1999/xlink" x="0px"
	 y="0px" viewBox="0 0 128 128" enable-background="new 0 0 128 128" xml:space="preserve">
<title>128</title>
<g id="_128">
	
		<linearGradient id="SVGID_1_" gradientUnits="userSpaceOnUse" x1="64" y1="8" x2="64" y2="120" gradientTransform="matrix(1 0 0 -1 0 128)">
		<stop  offset="0" style="stop-color:#5B86D6"/>
		<stop  offset="1" style="stop-color:#5B8DF1"/>
	</linearGradient>
	<path fill="url(#SVGID_1_)" d="M20,8h88c6.6,0,12,5.4,12,12v88c0,6.6-5.4,12-12,12H20c-6.6,0-12-5.4-12-12V20C8,13.4,13.4,8,20,8z"
		/>
	<g id="_128-3">
		<path fill="#FFFFFF" d="M64,54.5c1.9,0,3.5,1.6,3.5,3.5s-1.6,3.5-3.5,3.5c-1.9,0-3.5-1.6-3.5-3.5C60.5,56.1,62.1,54.5,64,54.5
			L64,54.5 M64,51.5L64,51.5c-3.6,0-6.5,2.9-6.5,6.5s2.9,6.5,6.5,6.5l0,0c3.6,0,6.5-2.9,6.5-6.5S67.6,51.5,64,51.5z"/>
		<path fill="#FFFFFF" d="M64,48.5c5.2,0,9.5,4.3,9.5,9.5s-4.3,9.5-9.5,9.5s-9.5-4.3-9.5-9.5C54.5,52.8,58.8,48.5,64,48.5L64,48.5
			 M64,45.5L64,45.5c-6.9,0-12.5,5.6-12.5,12.5S57.1,70.5,64,70.5l0,0c6.9,0,12.5-5.6,12.5-12.5S70.9,45.5,64,45.5z"/>
		<path fill="#FFFFFF" d="M64,42.5c8.6,0,15.5,7,15.5,15.5c0,8.6-7,15.5-15.5,15.5s-15.5-7-15.5-15.5C48.5,49.4,55.4,42.5,64,42.5
			L64,42.5 M64,39.5L64,39.5c-10.2,0-18.5,8.3-18.5,18.5S53.8,76.5,64,76.5l0,0c10.2,0,18.5-8.3,18.5-18.5S74.2,39.5,64,39.5z"/>
		<path fill="#FFFFFF" d="M64,35.5c12.4,0,22.5,10.1,22.5,22.5S76.4,80.6,64,80.5c-12.4,0-22.5-10.1-22.5-22.5
			C41.5,45.6,51.5,35.5,64,35.5L64,35.5 M64,32.5L64,32.5c-14.1,0-25.5,11.4-25.5,25.5S49.9,83.5,64,83.5l0,0
			c14.1,0,25.5-11.4,25.5-25.5S78.1,32.5,64,32.5z"/>
		<path fill="#FFFFFF" d="M64,28.5c16.3,0,29.5,13.3,29.5,29.6S80.3,87.6,64,87.6S34.4,74.3,34.4,58C34.4,41.7,47.7,28.5,64,28.5
			L64,28.5 M64,25.5L64,25.5c-17.9,0-32.5,14.6-32.5,32.5S46.1,90.5,64,90.5l0,0c17.9,0,32.5-14.6,32.5-32.5S81.9,25.5,64,25.5z"/>
		<line fill="none" stroke="#FFFFFF" stroke-width="3" stroke-miterlimit="10" x1="64.5" y1="64" x2="64.5" y2="90"/>
		<line fill="none" stroke="#FFFFFF" stroke-width="3" stroke-miterlimit="10" x1="64.5" y1="26" x2="64.5" y2="52"/>
		<line fill="none" stroke="#FFFFFF" stroke-width="3" stroke-miterlimit="10" x1="58.8" y1="57.5" x2="33" y2="57.5"/>
		<line fill="none" stroke="#FFFFFF" stroke-width="2" stroke-miterlimit="10" x1="95.1" y1="57.5" x2="69" y2="57.5"/>
		<line fill="none" stroke="#FFFFFF" stroke-width="3" stroke-miterlimit="10" x1="59.8" y1="62" x2="41" y2="81"/>
		<line fill="none" stroke="#FFFFFF" stroke-width="3" stroke-miterlimit="10" x1="86.8" y1="34.8" x2="68.1" y2="53.7"/>
		<line fill="none" stroke="#FFFFFF" stroke-width="3" stroke-miterlimit="10" x1="59.9" y1="53.6" x2="41.3" y2="34.8"/>
		<line fill="none" stroke="#FFFFFF" stroke-width="3" stroke-miterlimit="10" x1="87" y1="81" x2="68.2" y2="62"/>
		<g id="麦穗">
			<path fill="#FFFFFF" d="M38.7,27.4c-5.5,1.3-9.6,5.8-10.4,11.3C27.8,41.3,39.7,28,38.7,27.4z"/>
			<path fill="#FFFFFF" d="M27.5,45.2c3.1-2.6,7.3-6.5,7.3-10.3c-1.5,1.7-3.1,3.2-4.8,4.7c-1.7,1.4-3.3,3-4.6,4.8
				c0.9-1.9,1.5-3.9,1.9-5.9c0.4-2.2,1.1-4.3,2-6.4c0,0-5.4,2.9-5.6,7.9s0,9.3,0,9.3C24.8,47.8,26.1,46.4,27.5,45.2z"/>
			<path fill="#FFFFFF" d="M22.3,60.5c0.8-2.2,1.9-4.2,3.2-6.1c2.5-3.2,5.9-6.7,5.1-10.3c0,0-2.2,2.1-4.3,4.3c-1.8,1.8-3,4-3.6,6.5
				c-0.2,0.1,0.5-3.5-0.1-7.2c-0.2-3-0.2-6,0.1-9c0,0-3.6,3.4-3.3,10.9C19.6,54.6,22.3,60.5,22.3,60.5z"/>
			<path fill="#FFFFFF" d="M24.7,72.7c0-2.3,0.3-4.6,0.9-6.9c1.6-5.3,4.1-10.3,2.5-12.8c-1.4,2.3-2.7,4.6-3.9,7
				c-0.9,1.8-1.3,3.8-1.3,5.8c0,0-0.1,0-0.1,0l0,0c-0.4-1.8-1-3.6-1.9-5.3c-1.6-3-2.4-9.8-2.4-9.8c-1.8,4-1.9,8.7-0.2,12.8
				C20.1,68.1,24.7,72.7,24.7,72.7z"/>
			<path fill="#FFFFFF" d="M31.6,83.7c-0.8-2.2-1.3-4.4-1.6-6.7c-0.4-5.5,0.1-11.1-2.3-12.8c-0.5,2.6-0.9,5.2-1.1,7.8
				c-0.2,2,0.1,4,0.9,5.9c0,0,0,0.1-0.1,0.1l0,0c-1-1.6-2.3-3-3.7-4.2c-2.6-2.2-5.8-8.2-5.8-8.2c-0.2,4.4,1.4,8.8,4.4,12
				C25.7,81.1,31.6,83.7,31.6,83.7z"/>
			<path fill="#FFFFFF" d="M40.9,91.4c-1.5-1.8-2.7-3.8-3.6-6.1c-1.6-5.2-3.5-11.1-6.4-11.9c0.4,3,0.9,6,1.7,9
				c0.4,1.8,1.3,3.6,2.4,5c0,0,0,0.1,0,0.1l0,0c-1.4-1.2-3.1-2.3-4.8-3c-3.3-1.1-9.6-6.6-9.6-6.6s1.2,6.3,9.4,10.8
				C34.4,91.2,40.9,91.4,40.9,91.4z"/>
			<path fill="#FFFFFF" d="M53,93.6c0,0-4.1-0.6-6.3-2.9C45,89,39,82.6,37.3,83c0,0,1.6,4.4,3.7,6.6s3,3.1,3.7,3.2
				c-2.3-0.4-4.6-0.5-6.9-0.6c-3.7,0.1-7.3-1.1-10.3-3.3c0,0,2.5,7,11.8,7.2C44.4,96.3,53,93.6,53,93.6z"/>
			<path fill="#FFFFFF" d="M99.7,38.7c-0.8-5.6-4.9-10.2-10.4-11.4C88.3,27.9,100.2,41.2,99.7,38.7z"/>
			<path fill="#FFFFFF" d="M102.6,44.3c-1.3-1.8-2.8-3.4-4.6-4.8c-1.7-1.4-3.3-3-4.8-4.7c0,3.8,4.2,7.7,7.3,10.3
				c1.4,1.2,2.7,2.5,3.7,4c0,0,0.2-4.3,0-9.3s-5.5-7.8-5.5-7.8c0.9,2,1.6,4.2,2,6.3C101.1,40.4,101.7,42.4,102.6,44.3z"/>
			<path fill="#FFFFFF" d="M105.3,54.8c-0.5-2.5-1.8-4.7-3.6-6.5c-2.2-2.2-4.3-4.3-4.3-4.3c-0.8,3.7,2.6,7.1,5.1,10.3
				c1.3,1.9,2.4,3.9,3.2,6.1c0,0,2.7-5.9,2.9-10.9c0.3-7.5-3.3-10.9-3.3-10.9c0.3,3,0.4,6,0.1,9C104.9,51.3,105.5,54.9,105.3,54.8z"
				/>
			<path fill="#FFFFFF" d="M105.2,65.7C105.2,65.7,105.2,65.7,105.2,65.7L105.2,65.7c-0.1-2-0.5-3.9-1.4-5.7
				c-1.2-2.4-2.5-4.8-3.9-7.1c-1.6,2.5,0.9,7.5,2.5,12.8c0.6,2.2,0.9,4.6,0.9,6.9c0,0,4.6-4.6,6.4-9.2c1.7-4.1,1.6-8.7-0.2-12.8
				c0,0-0.8,6.8-2.4,9.8C106.3,62.1,105.6,63.9,105.2,65.7z"/>
			<path fill="#FFFFFF" d="M104.4,73.7c-1.4,1.2-2.7,2.7-3.7,4.2c0,0-0.1,0-0.1,0l0,0c0.7-1.9,1.1-3.9,0.9-5.9
				c-0.2-2.7-0.6-5.3-1.1-7.9c-2.4,1.8-1.9,7.3-2.3,12.8c-0.3,2.3-0.8,4.6-1.6,6.8c0,0,5.9-2.6,9.3-6.2c3.1-3.2,4.7-7.5,4.4-11.9
				C110.2,65.5,107,71.4,104.4,73.7z"/>
			<path fill="#FFFFFF" d="M93,87.5C93,87.5,92.9,87.5,93,87.5L93,87.5c0.6-0.7,1.5-2.1,2.4-5.1c0.7-3,1.3-6,1.7-9
				c-2.9,0.8-4.8,6.7-6.4,11.9c-0.8,2.2-2,4.3-3.6,6.1c0,0,6.5-0.2,10.9-2.6c8.2-4.5,9.4-10.8,9.4-10.8s-6.3,5.4-9.6,6.6
				C96.1,85.3,94.4,86.2,93,87.5z"/>
			<path fill="#FFFFFF" d="M90.1,92.2c-2.3,0-4.6,0.2-6.9,0.6c0.7-0.1,1.6-1.1,3.7-3.2s3.7-6.6,3.7-6.6c-1.6-0.3-7.7,6.1-9.4,7.7
				c-2.2,2.3-6.3,2.9-6.3,2.9s8.6,2.7,13.5,2.6c9.3-0.2,11.8-7.3,11.8-7.3C97.4,91,93.8,92.2,90.1,92.2z"/>
			<path fill="#FFFFFF" d="M92.8,96.2c-3.1,1.4-6.6,1.8-10,1.2c-4.1-0.7-8.2-4-10-4c-2,0-7.4,0.2-15,0c-5.3-0.1-4.4,2.1-11.5,3.9
				c-7.4,1.9-10.6-0.6-10.6-0.6c2.1,4,7.3,5,11.3,4.6c3.2-0.3,12.6-6.4,12.6-6.4h2c-2,0-9.7,7.3-9.7,7.3s1.3,1.8,1.6,1.7
				c1.5-0.4,9.4-8.3,9.4-8.3h1.5c1.8,0.1,9.1,7.8,9.9,7.9s2.1-1,2.1-1c-1.6-2.8-10.1-7.4-9.7-7.4s2.6-0.6,3.3-0.1
				c2.4,1.8,6.7,5.2,9.4,5.8c2,0.3,4,0.4,6,0.2C89,101.1,93.4,95.9,92.8,96.2z"/>
		</g>
		<g id="地图">
			<path fill="#FFFFFF" d="M36.5,57.2c-0.8,0.5-0.9-0.7-1.8-1.2s-1.4,0.7-1.4,0.7L33,60.8l-0.1,0.6c0,0,1.4-1.1,1.9-0.2s0.9,0.2,2,1
				s0.9,0.9,1.5,2.3c0.3,0.6,0.5,1.3,0.7,1.9c0,0.3,1.3-0.4,1.8,1.5c0.3,1.4,1.4,2.5,2.8,2.7c1.3,0.4,1.7,0.8,3.2,2.5
				s1.5,0.1,3.6,0.7s0.9-0.5,0.9-1s-0.6-1.2-1.3-2.3c-0.8-1-1.5-2-2-3.1c-0.7-1.5-0.6-10.3-0.8-11.1c-0.5-0.9-1.2-1.7-2-2.3
				c-0.8-0.8-1.3,0.5-1.9,1.3s-1.1,2.7-1.7,3.7s-2.9-1.8-3.6-2.1S37.3,56.8,36.5,57.2z"/>
			<path fill="#FFFFFF" d="M52.4,51.3c0.3,0.8,0.4,1.6,0.5,2.4c0,0.9,0,1.7,0,2.6c-0.1,0.8,1.1,1.2,1.1,1.2l1.7,2c0,0,0.9,0.3,1.2,0
				c0.3-0.3,0.5-0.6,0.8-1l-0.1-2l0.6-0.6h1.3c0.6-0.5,1.3-0.9,2-1.3c0.4-0.1,1-0.9,1.2-0.9s0-1.4,0-1.4c-1-0.3-2.1-0.6-3.1-1
				c-1-0.5-1.3-2.3-1.3-2.3h-2.6c-0.8,0-1.4-1.1-2.1-1.5c0,0-2.3,2-2.5,2.6S52.4,51.3,52.4,51.3z"/>
			<path fill="#FFFFFF" d="M64.6,71.1c1,0.1,2.7-1.1,4-0.9s2-0.8,3.3-2s0.9,0.2,1.6,0.8c0.6,0.5,1.2,1,1.9,1.3c-0.7-0.1-1.4,0-2,0.2
				c-0.9,0.7-1.8,1.3-2.7,1.8c-1.1,0.6-2.5,0.5-3.6-0.1c-1.4-0.8-1.8-0.1-3.1-0.2l-1.3-0.1c-0.6,0.6-1.3,1.1-2.1,1.4
				c-1.2,0.6-2.4,0.3-2.4,1.6s-0.5,2,0.7,2.6c1.2,0.5,2.6,0.9,3.9,1c0,0,3.2-1.5,4.8,0s1.7,0.7,2.2,1.9S68,81,70.6,82.5
				s2,1.8,3.5,1.4s2.4-0.2,3.6-1.3s1.2,0.2,2.1-2.4c0.5-1.1,0.9-2.3,1.2-3.5c0.6-1.9,1.9-2,0.7-2.8c-1-0.7-1.7-1.7-1.9-2.8l-0.3-0.9
				c0,0,1.5-0.3-1.1,0c-0.4,0-0.8,0.1-1.2,0.1c0.4-0.3,0.8-0.7,1-1.2c0.3-1,0.5-2,0.5-3.1c-0.1-1.4-0.2-0.8,0.3-2s1-1.3,2-1.9
				s0.7-1.2,0-1.8s-0.8-1.6-1-2.4c-0.1-0.5,0-1.1,0.4-1.5c0.5-1.3,0.7-2.7,0.5-4.2c-0.4-1.5-0.8-0.6-1.4,0.2s-0.5-0.2-1.2-1.7
				c-0.7-1-1.7-1.7-2.9-2v1c0,0.3-1,0.8-1,0.8s-1.1-1.6-2-3s-1.2,1.1-1.4,1.4s-0.5,1.4-0.8,2s-0.8,0-1.4,0c-0.6-0.1-1.2-0.3-1.8-0.5
				c-1-0.2-2-0.4-3-0.4c-0.1,1.1,0,2.2,0.4,3.2c0.6,1.4,0,0,0.8,0.3s0.8,0.6,1.7,1.3s0.5,0,0.5,1.3s-0.5,0.3-1.1,1.1
				s0.7,0.8,1.8,1.3s0.7,0.5,1,1.5s-0.5,1-1.2,1.4s-0.7-0.1-1.8,0.6s-0.6,1.9-0.8,2.6s0.4,1.3,0.8,1c0.7-0.4,1.5-0.6,2.3-0.7
				c0.6,0,0.7,1.6-0.8,2.5s-4.7,2.6-4.8,3.1S63.5,71,64.6,71.1z"/>
		</g>
	</g>
</g>
</svg>
