<?xml version="1.0" encoding="utf-8"?>
<!-- Generator: Adobe Illustrator 24.0.0, SVG Export Plug-In . SVG Version: 6.00 Build 0)  -->
<svg version="1.1" id="图层_2" opacity="0.8" xmlns="http://www.w3.org/2000/svg" xmlns:xlink="http://www.w3.org/1999/xlink"
	 x="0px" y="0px" viewBox="0 0 16 16" style="enable-background:new 0 0 16 16;" xml:space="preserve">
<style type="text/css">
	.st0{fill:none;stroke:#1F2022;stroke-linecap:round;stroke-miterlimit:10;}
	.st1{fill:#1F2022;}
</style>
<path class="st0" d="M3.5,10V5.4c0-2.1,1.8-3.9,4-3.9h0c2.2,0,4,1.7,4,3.9V10"/>
<line class="st0" x1="1.5" y1="11.5" x2="13.5" y2="11.5"/>
<path class="st0" d="M13.2,11.5L13.2,11.5c-1,0-1.7-0.8-1.7-1.7V8.1"/>
<path class="st0" d="M1.8,11.5L1.8,11.5c1,0,1.7-0.8,1.7-1.7V8.1"/>
<path class="st1" d="M7.5,15.5c1.4,0,2.5-1.1,2.5-2.5H5C5,14.4,6.1,15.5,7.5,15.5z"/>
<path class="st1" d="M6.1,1.5C6.1,0.7,6.7,0,7.6,0S9,0.7,9,1.5"/>
</svg>
