<svg id="图层_1" data-name="图层 1" xmlns="http://www.w3.org/2000/svg" viewBox="0 0 16 16"><defs><style>.cls-1{opacity:0.75;}.cls-2{fill:#1f2022;}</style></defs><title>b-命令行</title><g class="cls-1"><path class="cls-2" d="M13.5,2A1.5,1.5,0,0,1,15,3.5v9.08A1.43,1.43,0,0,1,13.58,14H2.42A1.43,1.43,0,0,1,1,12.58V3.42A1.43,1.43,0,0,1,2.42,2H13.5m0-1H2.42A2.42,2.42,0,0,0,0,3.42v9.16A2.42,2.42,0,0,0,2.42,15H13.58A2.42,2.42,0,0,0,16,12.58V3.5A2.5,2.5,0,0,0,13.5,1Z"/><path class="cls-2" d="M6.2,5.8,4,3.6a.49.49,0,0,0-.7.7L5.5,6.5,3.2,8.8a.48.48,0,0,0,0,.7c.1.1.2.1.4.1s.3,0,.4-.1L6.3,7.2a1.45,1.45,0,0,0,.2-.7A.91.91,0,0,0,6.2,5.8Z"/><path class="cls-2" d="M11,9H7a.5.5,0,0,0,0,1h4a.5.5,0,0,0,0-1Z"/></g></svg>