<?xml version="1.0" encoding="utf-8"?>
<!-- Generator: Adobe Illustrator 24.0.0, SVG Export Plug-In . SVG Version: 6.00 Build 0)  -->
<svg version="1.1" id="图层_1" xmlns="http://www.w3.org/2000/svg" xmlns:xlink="http://www.w3.org/1999/xlink" x="0px" y="0px"
	 viewBox="0 0 128 128" enable-background="new 0 0 128 128" xml:space="preserve">
<title>rosegarden128</title>
<path fill="#B2EBF2" d="M123,64c0-32.6-26.4-59-59-59C31.4,5,5,31.4,5,64c0,29.3,21.6,54.2,50.6,58.4c0.5-4.3,1.5-17-1.2-19.7
	c-3.3-3.3-13.9-5.1-17.6-16.3c-4.1-12.2-0.5-20.7,0-19.1s-1.5,11,3.1,19.1c2,3.6,5.2,5.5,7.3,5.2c4.2,5,14.1,16.1,19.4,15.7
	c1.7-0.1,3.4-0.4,5-0.8c0.2,2.6,0.2,12,0.2,16C101.1,118.6,123,93.6,123,64z"/>
<linearGradient id="SVGID_1_" gradientUnits="userSpaceOnUse" x1="38.81" y1="79.0486" x2="58.21" y2="79.0486" gradientTransform="matrix(1 0 0 -1 0 128)">
	<stop  offset="3.000000e-02" style="stop-color:#F94028"/>
	<stop  offset="1" style="stop-color:#FFF83A"/>
</linearGradient>
<path fill="url(#SVGID_1_)" d="M58.2,38.7c0,0,0.4-4.3-2-6.4c-3.3-2.8-11.7,0.3-13,1.3s-4.3,3.6-4.3,7.1c0,17.6,1,20.7,2.5,23.2
	s6.6,4.8,10.7-0.5S58.2,38.7,58.2,38.7z"/>
<linearGradient id="SVGID_2_" gradientUnits="userSpaceOnUse" x1="36.76" y1="75.4884" x2="56.17" y2="75.4884" gradientTransform="matrix(1 0 0 -1 0 128)">
	<stop  offset="3.000000e-02" style="stop-color:#F94028"/>
	<stop  offset="1" style="stop-color:#FFF83A"/>
</linearGradient>
<path fill="url(#SVGID_2_)" d="M56.1,42.3c0,0,0.4-4.3-2-6.4c-3.3-2.8-11.7,0.3-13,1.3s-4.6,3.6-4.3,7.1c1.2,17.6,1,20.7,2.5,23.2
	S46,72.4,50,67S56.1,42.3,56.1,42.3z"/>
<linearGradient id="SVGID_3_" gradientUnits="userSpaceOnUse" x1="49.7058" y1="77.2727" x2="72.9858" y2="77.2727" gradientTransform="matrix(1 0 0 -1 0 128)">
	<stop  offset="0.33" style="stop-color:#FCB747"/>
	<stop  offset="1" style="stop-color:#FC671D"/>
</linearGradient>
<path fill="url(#SVGID_3_)" d="M62,36.7c-6.2-1.8-10.2,0.2-12.2,1.9c0,0.1,0,0.3,0,0.4c0,5.2-1,19.1,4.3,24s13,2,16-3.8
	c2.5-4.7,2.8-11.9,2.8-14.5C70.3,40.8,66.4,38,62,36.7z"/>
<linearGradient id="SVGID_4_" gradientUnits="userSpaceOnUse" x1="73.1474" y1="83.7328" x2="52.5674" y2="95.6228" gradientTransform="matrix(1 0 0 -1 0 128)">
	<stop  offset="0" style="stop-color:#F94028"/>
	<stop  offset="1" style="stop-color:#FFAD29"/>
</linearGradient>
<path fill="url(#SVGID_4_)" d="M73,43.6c0,0,1.8-8.4-7.9-11.2c-6.5-1.9-14.9-0.1-15.3,6.2c2.1-1.7,6-3.6,12.2-1.9
	c4.5,1.3,8.3,4.1,11,7.9C73,43.9,73,43.6,73,43.6z"/>
<path fill="#EE6F0B" d="M83.9,57.3c-1.4-7.2-0.2-13.8-0.2-17.8c-0.2,6.9-8.5,16.5-8.5,16.5L75.1,41c-0.4,0.8-0.7,1.7-0.9,2.6
	c0,0-5.6,19.6-8.7,25.5S51.5,91.7,54.9,94.3s0,1.8,14.8,3.1C84,98.5,86.3,69.1,83.9,57.3z"/>
<linearGradient id="SVGID_5_" gradientUnits="userSpaceOnUse" x1="83.77" y1="82.1437" x2="75.14" y2="82.1437" gradientTransform="matrix(1 0 0 -1 0 128)">
	<stop  offset="0.33" style="stop-color:#F94028"/>
	<stop  offset="1" style="stop-color:#F5A816"/>
</linearGradient>
<path fill="url(#SVGID_5_)" d="M83.8,39.6c0-0.4,0-0.8,0-1.2c-0.1-0.6-0.2-1.2-0.5-1.8c-0.3-0.6-1-0.9-1.6-0.9
	c-3.4-0.2-5.4,3-6.5,5.3l0.1,15.1C75.3,56.1,83.5,46.5,83.8,39.6z"/>
<path fill="#3B4E00" d="M39,48.5c0,0-2.3,1.3-2.7,10.3c-0.2,3.3,1.9,9.6,5.1,5.8S40.7,49,39,48.5z"/>
<linearGradient id="SVGID_6_" gradientUnits="userSpaceOnUse" x1="54.7185" y1="30.3729" x2="54.7185" y2="74.83" gradientTransform="matrix(1 0 0 -1 0 128)">
	<stop  offset="0" style="stop-color:#FE8829"/>
	<stop  offset="0.82" style="stop-color:#F5A816"/>
</linearGradient>
<path fill="url(#SVGID_6_)" d="M66.1,56.1c0.2-1,0.6-2,1-2.9c-5.2,2.5-10.6,4.4-16.3,5.4c-12,2.5-13.4,5-14,7.7l0,0
	c-2,11.3-1.3,30.1,24.9,31.3c4.4,0.2,7.6-0.6,9.9-2.2C78,75,64.4,63.4,66.1,56.1z"/>
<path fill="#FDED99" d="M73.5,48.5l0.3-0.3l0.2-0.2l0.2-0.3c0.1-0.1,0.1-0.2,0.2-0.3c0.1-0.1,0.1-0.2,0.2-0.3l0.2-0.3l0.2-0.3
	c0.1-0.1,0.1-0.2,0.2-0.4l0.1-0.2c0.1-0.2,0.2-0.4,0.3-0.6s0.1-0.3,0.2-0.4l0.1-0.1l0.1-0.3l0.1-0.2c0-0.1,0-0.2,0.1-0.3
	c0-0.1,0-0.1,0-0.2l0.1-0.2c0-0.1,0-0.1,0-0.2c0-0.1,0-0.2,0-0.2c0-0.1,0-0.1,0-0.2c0-0.1,0-0.2,0-0.2c0-0.1,0-0.2,0.1-0.4
	c0-0.1,0-0.1,0-0.2v-0.2c0,0,0-0.1,0-0.2s0-0.2,0-0.2v-0.1c0-0.1,0-0.2,0-0.3v-0.1c0-0.1,0-0.2,0-0.3l0,0c0-0.5,0-0.9-0.1-1.3l0,0
	c-0.4-2.2-1.2-4.2-2.4-6c-0.2,0-0.5,0-0.7,0.1c-3.5,0.7,1.5,8.9-7.7,14.3c-8.7,5.1-25.5,4.6-28,15c-0.3,1-0.5,2.2-0.7,3.4l0,0
	c0.6-2.7,2-5.2,14-7.7c6.6-1.4,12.6-3.3,17.1-5.8l0,0l0.7-0.4h0.1L69,52l0.1-0.1l0.6-0.4l0.1-0.1l0.5-0.4l0.1-0.1l0.5-0.3l0.2-0.1
	l0.4-0.3l0.2-0.1l0.4-0.3l0.2-0.2c0.1-0.1,0.2-0.2,0.3-0.3L73,49l0.3-0.3L73.5,48.5z"/>
<linearGradient id="SVGID_7_" gradientUnits="userSpaceOnUse" x1="65.94" y1="63.5053" x2="78.44" y2="63.5053" gradientTransform="matrix(1 0 0 -1 0 128)">
	<stop  offset="0.13" style="stop-color:#EF4201"/>
	<stop  offset="1" style="stop-color:#F5A816"/>
</linearGradient>
<path fill="url(#SVGID_7_)" d="M76.8,60.4c1.3-5.6,2.5-16.5,0.9-22.6c-0.7-2.6-1.9-4.3-3.8-4.3c1.2,1.8,2,3.8,2.4,6
	c0.3,2,0,4-0.8,5.8c-1.3,3.1-4.3,5.7-8.4,7.8c-0.4,0.9-0.8,1.9-1,2.9c-1.7,7.4,11.9,19,5.5,39.4C81.8,88.8,74.9,68.5,76.8,60.4z"/>
<path fill="#EE6F0B" d="M83.2,36.6c0.3,0.6,0.4,1.2,0.5,1.8C83.7,37.8,83.5,37.1,83.2,36.6z"/>
<path fill="#EE6F0B" d="M83.7,38.4c0,0.4,0,0.8,0,1.2C83.8,39.2,83.8,38.8,83.7,38.4z"/>
<path fill="#FDEFBA" d="M71.6,106.4c-1.6,0.5-3.3,0.7-5,0.8c-5.3,0.4-15.2-10.7-19.4-15.7c-2.1,0.3-5.3-1.6-7.3-5.2
	c-4.6-8.2-2.6-17.7-3.1-19.1s-4.1,6.9,0,19.1c3.7,11.2,14.3,13,17.6,16.3c2.7,2.7,1.7,15.4,1.2,19.7c2.8,0.4,5.6,0.6,8.4,0.6
	c2.6,0,5.2-0.2,7.8-0.5C71.8,118.4,71.8,109,71.6,106.4z"/>
<linearGradient id="SVGID_8_" gradientUnits="userSpaceOnUse" x1="34.8328" y1="32.9488" x2="71.7534" y2="32.9488" gradientTransform="matrix(1 0 0 -1 0 128)">
	<stop  offset="3.000000e-02" style="stop-color:#2A772A"/>
	<stop  offset="1" style="stop-color:#6DCE4D"/>
</linearGradient>
<path fill="url(#SVGID_8_)" d="M71.6,106.4c-1.6,0.5-3.3,0.7-5,0.8c-5.3,0.4-15.2-10.7-19.4-15.7c-2.1,0.3-5.3-1.6-7.3-5.2
	c-4.6-8.2-2.6-17.7-3.1-19.1s-4.1,6.9,0,19.1c3.7,11.2,14.3,13,17.6,16.3c2.7,2.7,1.7,15.4,1.2,19.7c2.8,0.4,5.6,0.6,8.4,0.6
	c2.6,0,5.2-0.2,7.8-0.5C71.8,118.4,71.8,109,71.6,106.4z"/>
<linearGradient id="SVGID_9_" gradientUnits="userSpaceOnUse" x1="73.1767" y1="73.6493" x2="73.1767" y2="20.6999" gradientTransform="matrix(1 0 0 -1 0 128)">
	<stop  offset="4.000000e-02" style="stop-color:#955D1D"/>
	<stop  offset="0.37" style="stop-color:#2A772A"/>
	<stop  offset="1" style="stop-color:#6DCE4D"/>
</linearGradient>
<path fill="url(#SVGID_9_)" d="M73.5,99.4c5.1-3,10.2-10.4,12.7-15.5s8.7-27,11.5-27.3s1.3-3.3-1-1.8c-2,1.3-14.8,46.4-31.9,41.6
	S52.6,78.5,54.4,74.7s6.9-12.1,6.4-14.5c-0.5-2.3-0.6,0.2-2.5,3.8c-3.8,7.1-12,14.3-9.4,22.2c1.1,3.5,0.2,5.2-1.6,5.5
	c4.2,5,14.1,16.1,19.4,15.7c1.7-0.1,3.4-0.4,5-0.8c-0.1-1.3-0.1-2.3-0.1-2.5C71.4,103.2,72.2,100.2,73.5,99.4z"/>
</svg>
