<?xml version="1.0" encoding="utf-8"?>
<!-- Generator: Adobe Illustrator 24.0.0, SVG Export Plug-In . SVG Version: 6.00 Build 0)  -->
<svg version="1.1" id="图层_1" xmlns="http://www.w3.org/2000/svg" xmlns:xlink="http://www.w3.org/1999/xlink" x="0px" y="0px"
	 viewBox="0 0 128 128" enable-background="new 0 0 128 128" xml:space="preserve">
<title>sailcut128</title>
<path fill="#64B5F6" d="M20,8h88c6.6,0,12,5.4,12,12v88c0,6.6-5.4,12-12,12H20c-6.6,0-12-5.4-12-12V20C8,13.4,13.4,8,20,8z"/>
<path fill="#E8E0A3" d="M101.1,64.9c-1.7-2.3-3.5-4.6-5.5-6.9c-4,5.4-12.3,9.5-20.9,11.8c0,3.5,0,7-0.2,10.2
	C85.6,77.8,97.5,72.4,101.1,64.9z"/>
<path fill="#E8E0A3" d="M73.2,35.5c0.2,2.4,0.4,5,0.5,7.7c1.8-0.8,3.4-1.7,5.1-2.7C76.6,38.4,74.6,36.7,73.2,35.5z"/>
<path fill="#E8E0A3" d="M107.8,77.3c-0.7-2.5-1.8-5-3.3-7.2c-0.8,10.4-17,17.7-30.9,19.5c-0.3,2.9-1,5.7-2,8.4c-0.4,1-1,1.9-1.7,2.7
	C85.9,101,111.4,91.6,107.8,77.3z"/>
<path fill="#E8E0A3" d="M85.2,46.7c-3.3,2.7-7,4.9-10.9,6.5c0.1,2.3,0.2,4.6,0.3,6.9c6-1.8,11.8-4.6,15.8-8
	C88.6,50.1,86.8,48.3,85.2,46.7z"/>
<path fill="#E2C64D" d="M104.6,70.1c-1-1.7-2.2-3.4-3.5-5.2c-3.6,7.5-15.5,12.9-26.6,15c-0.2,3.5-0.4,6.8-0.8,9.7
	C87.5,87.8,103.8,80.5,104.6,70.1z"/>
<path fill="#E2C64D" d="M95.6,58c-1.7-2-3.5-4.1-5.3-6c-4,3.5-9.7,6.2-15.8,8c0.1,3.3,0.2,6.6,0.2,9.8C83.3,67.5,91.6,63.4,95.6,58z
	"/>
<path fill="#E2C64D" d="M78.8,40.5c-1.6,1-3.3,1.9-5.1,2.7c0.2,3.2,0.4,6.5,0.5,10c4-1.5,7.7-3.7,10.9-6.5
	C82.9,44.4,80.7,42.3,78.8,40.5z"/>
<path fill="#FCF7D6" d="M44.4,63.9c-1.3,2.4-2.5,4.7-3.8,7c9.4,0.4,24.3-0.1,34-4.2c0-2.3-0.1-4.7-0.2-7C66,63.2,53.7,64,44.4,63.9z
	"/>
<path fill="#FCF7D6" d="M35.2,80.9L31,88.7c10,0.8,33.4,0.9,43.4-6.8c0.1-2.2,0.2-4.4,0.2-6.8C64.6,81.1,45.4,81.5,35.2,80.9z"/>
<path fill="#FCF7D6" d="M25.6,98.6c-3,5.5-5.1,9.2-5.7,10.2s39.5,4.3,50.2-8c0.7-0.8,1.3-1.7,1.7-2.7c1-2.8,1.7-5.6,2-8.6
	c-0.2,0.2-0.3,0.4-0.5,0.6C64.2,100.4,34.4,99.6,25.6,98.6z"/>
<path fill="#FCF7D6" d="M49.8,53.8c7.6,0,16.9-0.7,24.3-2.9c-0.1-2.8-0.3-5.5-0.4-8.1c-6.3,1.5-12.7,2.3-19.2,2.4L49.8,53.8z"/>
<path fill="#FCF7D6" d="M71.7,19.3c-0.3-1.5-2.7-1.5-3.6,0.3c-0.5,1-3.7,7-8.2,15.5c4.4-0.2,8.8-0.7,13.1-1.4
	C72.4,25.6,71.8,20,71.7,19.3z"/>
<path fill="#F9DF6E" d="M31,88.7c-2,3.7-3.8,7-5.4,9.9c8.8,1,38.7,1.8,47.7-8.5c0.2-0.2,0.3-0.4,0.5-0.6c0.3-2.3,0.5-4.8,0.7-7.5
	C64.3,89.6,40.9,89.5,31,88.7z"/>
<path fill="#F9DF6E" d="M40.6,70.9l-5.4,10c10.2,0.6,29.4,0.3,39.4-5.7c0.1-2.7,0.1-5.6,0-8.5C64.9,70.8,50.1,71.3,40.6,70.9z"/>
<path fill="#F9DF6E" d="M44.4,63.9c9.2,0.1,21.6-0.7,30.1-4.2c-0.1-3-0.2-5.9-0.3-8.8c-7.4,2.2-16.7,2.9-24.3,2.9L44.4,63.9z"/>
<path fill="#F9DF6E" d="M73.1,33.6c-4.3,0.8-8.7,1.2-13.1,1.4l-5.4,10.2c6.5-0.1,12.9-0.9,19.2-2.4c-0.2-2.6-0.3-5.1-0.5-7.4
	C73.1,34.8,73.1,34.2,73.1,33.6z"/>
</svg>
