<?xml version="1.0" encoding="utf-8"?>
<!-- Generator: Adobe Illustrator 24.0.0, SVG Export Plug-In . SVG Version: 6.00 Build 0)  -->
<svg version="1.1" id="图层_2" opacity="0.8" xmlns="http://www.w3.org/2000/svg" xmlns:xlink="http://www.w3.org/1999/xlink"
	 x="0px" y="0px" viewBox="0 0 16 16" style="enable-background:new 0 0 16 16;" xml:space="preserve">
<style type="text/css">
	.st0{fill:#1F2022;}
	.st1{fill:none;stroke:#1F2022;stroke-miterlimit:10;}
	.st2{fill:url(#SVGID_1_);stroke:#1F2022;stroke-linecap:round;stroke-miterlimit:10;}
	.st3{fill:url(#SVGID_2_);stroke:#1F2022;stroke-linecap:round;stroke-miterlimit:10;}
</style>
<g>
	<path class="st0" d="M12,1c0.6,0,1,0.4,1,1v12c0,0.6-0.4,1-1,1H3c-0.6,0-1-0.4-1-1V2c0-0.6,0.4-1,1-1H12 M12,0H3C1.9,0,1,0.9,1,2
		v12c0,1.1,0.9,2,2,2h9c1.1,0,2-0.9,2-2V2C14,0.9,13.1,0,12,0L12,0z"/>
</g>
<path id="rect4009-1" class="st0" d="M5,2h1L4,7H3L5,2z"/>
<path id="rect4009-7-0" class="st0" d="M6,2H5l2,5h1L6,2z"/>
<polygon id="rect4042-32" class="st0" points="4.1,6 7.1,6 6.5,5 4.5,5 "/>
<line class="st1" x1="1.6" y1="8.5" x2="13.4" y2="8.5"/>
<linearGradient id="SVGID_1_" gradientUnits="userSpaceOnUse" x1="3.5" y1="12.5" x2="11.5" y2="12.5">
	<stop  offset="0" style="stop-color:#FFFFFF"/>
	<stop  offset="1" style="stop-color:#000000"/>
</linearGradient>
<line class="st2" x1="3.5" y1="12.5" x2="11.5" y2="12.5"/>
<linearGradient id="SVGID_2_" gradientUnits="userSpaceOnUse" x1="3.5" y1="10.5" x2="11.5" y2="10.5">
	<stop  offset="0" style="stop-color:#FFFFFF"/>
	<stop  offset="1" style="stop-color:#000000"/>
</linearGradient>
<line class="st3" x1="3.5" y1="10.5" x2="11.5" y2="10.5"/>
</svg>
