<?xml version="1.0" encoding="utf-8"?>
<!-- Generator: Adobe Illustrator 24.0.0, SVG Export Plug-In . SVG Version: 6.00 Build 0)  -->
<svg version="1.1" id="图层_1" xmlns="http://www.w3.org/2000/svg" xmlns:xlink="http://www.w3.org/1999/xlink" x="0px" y="0px"
	 viewBox="0 0 128 128" enable-background="new 0 0 128 128" xml:space="preserve">
<title>simon-112</title>
<path fill="#44D600" d="M119.7,23.2c-0.2-1-0.7-2-1.3-2.9c-0.7-0.9-1.7-1.6-2.8-2c-1.4-0.4-2.8-0.6-4.3-0.4
	c-1.8,0.1-3.5,0.4-5.2,0.8c-1.3,0.4-2.6,0.9-3.9,1.6l0,0c-2,1-3.9,2.4-5.6,3.9L72.8,46.8c-0.5,0.5-1,1-1.3,1.7
	c-0.3,0.8-0.5,1.6-0.4,2.4c0,0.6,0.1,1.3,0.3,1.9c0.3,0.7,0.8,1.3,1.4,1.8c0.5,0.5,1,0.9,1.6,1.2c0.8,0.4,1.6,0.6,2.5,0.6l0,0
	c1.3,0,2.7-0.3,3.8-1l31.6-18.7c0.9-0.5,1.7-1.1,2.5-1.8l0,0c1-1,1.9-2.1,2.7-3.2c1.3-2,2-3,2.3-4.7C120,25.7,120,24.5,119.7,23.2z"
	/>
<path opacity="0.34" fill="#FFFFFF" enable-background="new    " d="M116.9,22.3c-0.3-0.5-0.7-0.9-1.2-1.2c-1-0.6-1.9-0.5-3.4-0.5
	c-1.1,0-2.2,0.2-3.3,0.5c-1.2,0.3-2.4,0.8-3.5,1.4c-1.2,0.6-2.4,1.2-3.5,1.9c-1,0.6-1.8,1.2-2.4,1.6l0,0L74.4,49.4
	c-0.4,0.4-0.8,0.8-1.1,1.3l0,0c-0.3,0.4-0.5,0.8-0.5,1.3c0,0.5,0.2,1,0.5,1.4c0.9,0.7,2.2,0.6,3-0.2l35.1-21.6l0,0
	c0.7-0.4,1.3-0.8,1.9-1.3c1.4-1.2,2.4-2.7,3.1-4.4C117.4,23.6,117.1,22.7,116.9,22.3z"/>
<path fill="#36B100" d="M116.6,21.3c-0.3-0.5-0.7-0.9-1.2-1.2c-1-0.6-1.9-0.5-3.4-0.5c-1.1,0-2.2,0.2-3.3,0.5
	c-1.2,0.3-2.4,0.8-3.5,1.4c-1.2,0.6-2.4,1.2-3.5,1.9c-1,0.6-1.8,1.2-2.4,1.6l0,0L74.2,48.3c-0.4,0.4-0.8,0.8-1.1,1.3l0,0
	c-0.3,0.4-0.5,0.8-0.5,1.3c0,0.5,0.2,1,0.5,1.4c0.9,0.7,2.2,0.6,3-0.2l35.1-21.6l0,0c0.6-0.4,1.3-0.8,1.8-1.3
	c1.4-1.2,2.4-2.7,3.1-4.4C117.1,22.5,116.8,21.6,116.6,21.3z"/>
<path fill="#293277" d="M11.9,107.8c-1-0.4-1.8-1.1-2.5-1.9c-0.7-0.9-1.1-2-1.3-3.2c-0.1-1.4,0.1-2.9,0.6-4.2c0.5-1.7,1.1-3.3,2-4.8
	c0.7-1.2,1.5-2.3,2.4-3.4l0,0c1.5-1.8,3.2-3.3,5.1-4.5l27.4-18.1c0.6-0.4,1.2-0.7,1.9-0.8c0.8-0.1,1.7-0.1,2.4,0.2
	c0.6,0.1,1.2,0.4,1.8,0.7c0.6,0.5,1.1,1.1,1.5,1.7c0.4,0.5,0.6,1.1,0.8,1.8c0.2,0.8,0.2,1.7,0,2.5l0,0c-0.3,1.3-0.9,2.5-1.8,3.5
	l-25.4,26.4c-0.7,0.7-1.5,1.4-2.3,2l0,0c-1.2,0.8-2.5,1.4-3.8,1.9c-2.2,0.8-3.4,1.3-5.1,1.2C14.2,108.6,13,108.3,11.9,107.8z"/>
<path opacity="0.24" fill="#FFFFFF" enable-background="new    " d="M11.1,104.8c-0.4-0.4-0.7-0.9-0.9-1.4c-0.4-1.1,0-2,0.3-3.4
	c0.3-1.1,0.7-2.1,1.2-3c0.6-1.1,1.3-2.1,2.1-3c0.8-1.1,1.7-2.1,2.6-3c0.8-0.8,1.5-1.4,2.1-1.9l0,0l28.5-19.3c0.5-0.3,1-0.6,1.5-0.7
	l0,0c0.4-0.2,0.9-0.3,1.4-0.2c0.5,0.1,1,0.4,1.3,0.8c0.4,1,0.1,2.2-0.8,2.8l-29.1,29.1l0,0c-0.5,0.6-1.1,1.1-1.7,1.5
	c-1.5,1.1-3.2,1.7-5,2C12.3,105.6,11.4,105.1,11.1,104.8z"/>
<path fill="#1A237E" d="M10.6,104.3c-0.4-0.4-0.7-0.9-0.9-1.4c-0.4-1.1,0-2,0.3-3.4c0.3-1.1,0.7-2.1,1.3-3c0.6-1.1,1.3-2.1,2.1-3
	c0.8-1.1,1.7-2.1,2.6-3c0.8-0.8,1.5-1.4,2.1-1.9l0,0l28.5-19.3c0.5-0.3,1-0.6,1.5-0.7l0,0c0.4-0.2,0.9-0.3,1.3-0.2
	c0.5,0.1,1,0.4,1.3,0.8c0.4,1,0.1,2.2-0.8,2.8L20.9,101l0,0c-0.5,0.6-1.1,1.1-1.7,1.6c-1.5,1.1-3.2,1.7-5,2
	C11.7,105.1,10.9,104.5,10.6,104.3z"/>
<path fill="#D82323" d="M65.2,39.3c0-1.3-0.6-2.4-1.7-3.2c-0.2-0.1-0.4-0.2-0.6-0.3c-0.3-0.1-1.4-0.6-4.2,0.3
	c-1.7,0.5-3.3,1.3-4.8,2.2c-1.9,1.1-3.8,2.3-5.4,3.8c-1.5,1.3-2.8,2.7-4,4.2c-0.9,1-1.5,2.2-1.7,3.4l0,0c-0.1,1.2,0.4,2.4,1.5,3.2
	l9.8,7l0,0c0.6,0.2,1.2,0.4,1.8,0.5c1.6,0.1,3.2-0.3,4.7-1.1c1.5-0.6,2.7-1.6,3.7-2.8l0.3-0.4c0.9-1.3,1.3-2.9,1.2-4.5L65.2,39.3z"
	/>
<path opacity="0.33" fill="#FFFFFF" enable-background="new    " d="M63.7,38.8L63.7,38.8c-0.1-0.5-0.5-1-1-1.2
	c-0.5-0.3-1.1-0.3-1.7-0.2c-0.8,0.1-1.6,0.4-2.3,0.6c-1.1,0.4-2.1,0.9-3.1,1.4c-0.8,0.4-1.5,0.9-2.5,1.5c-1.3,0.9-2.5,1.9-3.6,3
	c-0.9,0.8-1.7,1.6-2.4,2.4c-0.6,0.7-1.2,1.5-1.7,2.3c-0.4,0.6-0.8,1.2-1,1.9l0,0c-0.2,0.8,0.1,1.7,0.9,2.1l7.4,4.3
	c0.9,0.6,2.1,0.6,3.1,0.2l0,0l1.4-0.7c0.4-0.2,0.8-0.4,1.2-0.7c0.6-0.4,1.6-1.2,3.1-2.3c0.8-0.6,1.5-1.4,2.1-2.3l0,0
	c0.4-0.5,0.5-1.2,0.5-1.9L63.7,38.8z"/>
<path fill="#B71C1C" d="M63.7,38.1L63.7,38.1c-0.1-0.6-0.5-1-1-1.3c-0.5-0.3-1.1-0.4-1.7-0.3c-0.8,0.2-1.6,0.4-2.3,0.6
	c-1.1,0.4-2.2,0.9-3.2,1.5c-0.8,0.5-1.5,0.9-2.6,1.6c-1.4,0.9-2.6,1.9-3.8,3.1c-0.9,0.8-1.7,1.6-2.5,2.5c-0.6,0.7-1.2,1.5-1.8,2.3
	c-0.5,0.6-0.8,1.3-1.1,2l0,0c-0.2,0.8,0.1,1.7,0.9,2.2l7.7,4.4c1,0.6,2.2,0.6,3.2,0.2l0,0l1.5-0.7c0.4-0.2,0.9-0.4,1.3-0.7
	c0.6-0.4,1.7-1.2,3.2-2.4c0.8-0.6,1.6-1.4,2.2-2.3l0,0c0.4-0.5,0.5-1.2,0.5-1.8L63.7,38.1z"/>
<path fill="#CFD8DC" d="M70.6,58l-2.8-3.7c0.1,0.2,0.2,0.3,0.3,0.5c0.2,0.9,0,1.8-0.5,2.6c-1.2,2-2.8,3.7-4.6,5
	c-1.8,1.4-3.9,2.5-6.2,3l0,0c-0.9,0.3-1.9,0.2-2.8-0.3l0.1,0.2l0.5,0.6l2,2.7c1.2,1.6,5.3,0.5,9.3-2.3S71.8,59.6,70.6,58z"/>
<path fill="#E7D8DF" d="M54.4,65.8c0.7,0.2,1.5,0.2,2.2,0l0,0c2.4-0.6,4.6-1.6,6.5-3.1c2-1.4,3.7-3.1,4.9-5.2
	c0.4-0.7,0.6-1.4,0.6-2.2l-0.8-1c0.1,0.2,0.2,0.3,0.3,0.5c0.2,0.9,0,1.8-0.5,2.6c-1.2,2-2.8,3.7-4.6,5c-1.8,1.4-3.9,2.5-6.2,3l0,0
	c-0.9,0.3-1.9,0.2-2.8-0.3l0.1,0.2L54.4,65.8z"/>
<path fill="#90A4AE" d="M67.6,57.4c-1.2,2-2.8,3.7-4.6,5c-1.8,1.4-3.9,2.4-6.2,3l0,0c-1.4,0.3-2.5,0.1-3.1-0.6
	c-1.2-1.6,1-5.2,4.9-8.1s8.1-3.9,9.3-2.3C68.3,55,68.2,56.1,67.6,57.4z"/>
<path fill="#FFFF39" d="M97,83.6c0-3.2-0.6-4.5-0.9-5c-0.1-0.1-0.1-0.3-0.2-0.4C95.2,77,94.2,76,93,75.3L73.3,63.7
	c-0.8-0.5-1.7-0.7-2.6-0.6l0,0c-1.2,0.1-2.4,0.4-3.5,0.9c-1.3,0.5-2.6,1.2-3.7,2.1c-0.9,0.6-1.8,1.4-2.6,2.2
	c-0.7,0.7-1.3,1.5-1.8,2.4l0,0c-0.7,1.2-1.1,2.6-1.1,4v26.2c0,0.9,0.2,1.8,0.5,2.7l0,0c2.1,4.7,7.7,6,8.4,6.2
	c2.2,0.4,4.5,0.4,6.7-0.2c3.1-0.6,6-1.7,8.7-3.3c4.1-2.1,7.6-5.2,10.1-9.1c1.8-2.6,3.1-4.3,3.9-7C96.9,88,97.1,85.8,97,83.6z"/>
<path opacity="0.43" fill="#FFFFFF" enable-background="new    " d="M69.8,64.3c0.9,0.4,3.3,1.5,4.6,2.2s3.1,1.6,6,3.2
	c4.4,2.5,7.2,4.3,8.9,5.5c3.4,2.3,4,3,4.5,4c0.9,1.9,1.2,4.1,0.8,6.2c-0.3,2.7-1.3,5.3-2.7,7.5c-1.8,2.9-4.1,5.4-6.8,7.4
	c-2,1.6-4.2,3-6.5,4.2c-2.3,1.3-4.8,2.3-7.5,2.8c-1.9,0.5-3.8,0.6-5.8,0.3c-1.2-0.3-3.8-0.8-5.2-2.9c-0.9-1.2-1-2.7-1.2-5.6
	c-0.1-1.9-0.1-3.8,0-5.7c0-1.6,0-3.6-0.1-7.5c-0.1-4.6-0.2-6.3,0-9.6c0.1-1.1,0.1-2,0.2-2.5c0-1.5,0.6-2.8,1.7-3.9
	c1.2-1.2,2.5-2.4,3.8-3.4C66.2,65.7,67.9,64.9,69.8,64.3z"/>
<path fill="#E3EB30" d="M69.2,63.3c0.9,0.4,3.3,1.5,4.6,2.2s3.2,1.6,6,3.2c4.4,2.5,7.2,4.4,8.9,5.5c3.4,2.3,4,3,4.5,4
	c0.9,1.9,1.2,4.1,0.8,6.2c-0.3,2.7-1.2,5.3-2.7,7.7c-1.8,2.9-4.1,5.4-6.8,7.4c-2,1.6-4.2,3-6.5,4.1c-2.3,1.3-4.8,2.3-7.5,2.9
	c-1.9,0.5-3.9,0.6-5.8,0.3c-1.2-0.3-3.7-0.8-5.2-2.9c-0.9-1.2-1-2.7-1.2-5.6c-0.1-1.9-0.1-3.8,0-5.7c0-1.6,0-3.6-0.1-7.5
	c-0.1-4.6-0.2-6.3,0-9.6c0.1-1.1,0.2-2,0.2-2.5c0-1.5,0.7-2.9,1.7-3.9c1.2-1.2,2.5-2.4,3.9-3.4C65.7,64.6,67.4,63.8,69.2,63.3z"/>
</svg>
