<?xml version="1.0" encoding="utf-8"?>
<!-- Generator: Adobe Illustrator 24.0.0, SVG Export Plug-In . SVG Version: 6.00 Build 0)  -->
<svg version="1.1" id="图层_1" xmlns="http://www.w3.org/2000/svg" xmlns:xlink="http://www.w3.org/1999/xlink" x="0px" y="0px"
	 viewBox="0 0 128 128" enable-background="new 0 0 128 128" xml:space="preserve">
<title>tomboy128</title>
<path fill="#FBC02D" d="M107.8,107.5H20.2c-6.7,0-12.2-5.5-12.2-12.2c0,0,0,0,0,0v12.5c0,6.7,5.5,12.2,12.2,12.2l0,0h87.6
	c6.7,0,12.2-5.5,12.2-12.2l0,0V95.3C120,102.1,114.5,107.5,107.8,107.5L107.8,107.5z"/>
<path fill="#FFF176" d="M108,8H20C13.4,8,8,13.4,8,20c0,0,0,0,0,0.1v75.9c0,6.6,5.3,12,11.9,12.1c0,0,0,0,0.1,0h88
	c6.6,0,12-5.4,12-12c0,0,0,0,0-0.1V20.1C120,13.4,114.7,8,108,8C108,8,108,8,108,8z"/>
<ellipse transform="matrix(0.983 -0.1836 0.1836 0.983 -15.6952 13.8837)" fill="#FBC02D" cx="67.1" cy="91.7" rx="24.3" ry="3.7"/>
<path fill="#CB9022" d="M81.7,23.8l0.4,0.1c-1.5-0.7-3.1-1.3-4.8-1.7l-30.6,53l13.2,7.6l0.4-0.7l-9.3-5.3L81.7,23.8z"/>
<path fill="#AF7517" d="M84.4,25.1c-0.8-0.5-1.6-0.9-2.3-1.2l-0.4-0.1L51,76.8l9.3,5.3l30.2-52.3C88.7,28,86.7,26.4,84.4,25.1z"/>
<path fill="#F44336" d="M91.9,27.5l3-5.3c1.4-2.4,0.6-5.6-1.8-7c0,0,0,0,0,0l-4.4-2.5c-2.4-1.4-5.5-0.6-7,1.8c0,0,0,0,0,0.1l-3,5.3
	c2.5,0.7,4.9,1.7,7.1,3C88,24,90.1,25.6,91.9,27.5z"/>
<path fill="#E6E6E6" d="M85.8,22.8c-2.2-1.3-4.6-2.3-7.1-3l-1.4,2.4c5,1.4,9.6,4,13.2,7.6l1.3-2.4C90.1,25.6,88,24,85.8,22.8z"/>
<path fill="#F44336" d="M59.9,82.8L59.9,82.8z"/>
<path fill="#F44336" d="M46.7,75.2L46.7,75.2z"/>
<path fill="#F2F2F2" d="M46.7,93.9l6-5l7.3-6.1l0,0c-1.3-2.4-3.2-4.3-5.6-5.6c-2.3-1.4-5-2.1-7.6-2l0,0l-1.6,9.4l-1.3,7.8
	c0.7,0.3,1.3,0.6,1.9,1C46,93.5,46.3,93.7,46.7,93.9z"/>
<path fill="#8C6239" d="M46.7,93.9c-0.3-0.2-0.6-0.4-1-0.6c-0.6-0.4-1.3-0.7-1.9-1L43,97L46.7,93.9z"/>
</svg>
