<?xml version="1.0" encoding="utf-8"?>
<!-- Generator: Adobe Illustrator 24.0.0, SVG Export Plug-In . SVG Version: 6.00 Build 0)  -->
<svg version="1.1"
	 id="svg7384" inkscape:version="0.92.4 (5da689c313, 2019-01-14)" sodipodi:docname="transmission-symbolic.svg" xmlns:cc="http://creativecommons.org/ns#" xmlns:dc="http://purl.org/dc/elements/1.1/" xmlns:inkscape="http://www.inkscape.org/namespaces/inkscape" xmlns:osb="http://www.openswatchbook.org/uri/2009/osb" xmlns:rdf="http://www.w3.org/1999/02/22-rdf-syntax-ns#" xmlns:sodipodi="http://sodipodi.sourceforge.net/DTD/sodipodi-0.dtd" xmlns:svg="http://www.w3.org/2000/svg"
	 xmlns="http://www.w3.org/2000/svg" xmlns:xlink="http://www.w3.org/1999/xlink" x="0px" y="0px" viewBox="0 0 16 16"
	 style="enable-background:new 0 0 16 16;" xml:space="preserve">
<style type="text/css">
	.st0{opacity:0.75;fill:#1F2022;}
</style>
<sodipodi:namedview  bordercolor="#666666" borderopacity="1" gridtolerance="10" guidetolerance="10" id="namedview9496" inkscape:current-layer="svg7384" inkscape:cx="2.0830127" inkscape:cy="8" inkscape:pageopacity="0" inkscape:pageshadow="2" inkscape:window-height="704" inkscape:window-maximized="1" inkscape:window-width="1296" inkscape:window-x="70" inkscape:window-y="27" inkscape:zoom="29.5" objecttolerance="10" pagecolor="#ffffff" showgrid="true">
	<inkscape:grid  id="grid10041" type="xygrid"></inkscape:grid>
</sodipodi:namedview>
<g id="layer9" transform="translate(-753.00024,147)">
</g>
<g id="layer2" transform="translate(-512.00004,-220)">
</g>
<g id="layer4" transform="translate(-512.00004,-220)">
</g>
<g id="g1812" transform="translate(-512.00004,-220)">
</g>
<g id="g6217" transform="translate(-512.00004,-220)">
</g>
<g id="layer3" transform="translate(-512.00004,-220)">
</g>
<g id="layer1" transform="translate(-512.00004,-220)">
</g>
<path id="rect8474" class="st0" d="M8.4,0.5c-0.2-0.3-0.6-0.3-0.8,0L4.2,5H3.5C2.7,5,2,5.7,2,6.5S2.7,8,3.5,8H6v2H3.5l4.1,5.5
	c0.2,0.3,0.6,0.3,0.8,0l4.1-5.5H10V8h2.5C13.3,8,14,7.3,14,6.5S13.3,5,12.5,5h-0.7L8.4,0.5z M3.5,6h2H6h1h2h1h0.5h2
	C12.8,6,13,6.2,13,6.5S12.8,7,12.5,7h-2H10H9H7H6H5.5h-2C3.2,7,3,6.8,3,6.5S3.2,6,3.5,6z"/>
</svg>
