<?xml version="1.0" encoding="utf-8"?>
<!-- Generator: Adobe Illustrator 24.0.0, SVG Export Plug-In . SVG Version: 6.00 Build 0)  -->
<svg version="1.1" id="图层_1" xmlns="http://www.w3.org/2000/svg" xmlns:xlink="http://www.w3.org/1999/xlink" x="0px" y="0px"
	 viewBox="0 0 128 128" enable-background="new 0 0 128 128" xml:space="preserve">
<title>tuxmath128</title>
<path fill="#998675" d="M20,8h88c6.6,0,12,5.4,12,12v88c0,6.6-5.4,12-12,12H20c-6.6,0-12-5.4-12-12V20C8,13.4,13.4,8,20,8z"/>
<path fill="none" d="M75.7,24.4c-0.5,0-0.9,0.2-1.2,0.6c-0.4,0.4-0.7,1-0.8,1.6c0,0.1-0.1,0.3-0.1,0.4c0,0.1,0,0.3,0,0.4
	c0,0.3,0.1,0.6,0.3,0.9c0.2,0.2,0.5,0.3,0.8,0.3c0.5,0,0.9-0.2,1.2-0.5c0.3-0.3,0.5-0.7,0.7-1.2c0-0.1,0.1-0.2,0.1-0.3l0.1-0.2
	c0-0.1,0-0.3,0.1-0.4c0-0.1,0-0.2,0-0.4c0-0.3-0.1-0.7-0.3-1C76.4,24.5,76,24.4,75.7,24.4z"/>
<path fill="#0D47A1" d="M29.7,24v3.1h-3.4v8.5h-3.9v-8.5H19V24H29.7z"/>
<path fill="#0D47A1" d="M35.2,24v7.3c0,0.5,0.2,1,0.5,1.3c0.3,0.3,0.7,0.5,1.2,0.5h0.2h0.1c0.4,0,0.8-0.2,1.1-0.5
	c0.3-0.3,0.5-0.8,0.5-1.3V24h3.9v7.3c0.1,1.3-0.5,2.6-1.5,3.5c-1.2,0.8-2.7,1.3-4.2,1.2c-1.5,0.1-2.9-0.3-4.1-1.2
	c-1-0.9-1.5-2.3-1.4-3.7V24H35.2z"/>
<path fill="#0D47A1" d="M48.5,24l1.6,2.9l2-2.9h4.4l-4.4,5.7l4,5.9h-4.4l-1.8-3.1l-1.9,3.1h-4.3l4-5.9L44.1,24H48.5z"/>
<path fill="#0D47A1" d="M63.9,31.1l2-7.1h4.7v11.6H67v-4.6l0.3-2.5l-2,7.1h-2.8l-2-7.2l0.3,2.6v4.6h-3.6V24h4.7L63.9,31.1z"/>
<path fill="#0D47A1" d="M79.6,24l4.2,11.6h-3.9l-0.4-1.5h-3.8l-0.4,1.5h-3.9L75.6,24H79.6z M78.7,31.7l-1.1-3.8l-1.1,3.8H78.7z"/>
<path fill="#0D47A1" d="M95.2,24v3.1h-3.4v8.5h-3.9v-8.5h-3.4V24H95.2z"/>
<path fill="#0D47A1" d="M100.7,24v3.9h3.4V24h3.9v11.6h-3.9v-4.4h-3.4v4.4h-3.9V24H100.7z"/>
<path d="M81,93.1c-4.6,4-10,3.8-8.2-0.4c1.6-3.8,9.4-3.2,9-12C81.6,75,79.9,69.5,77,64.6c-0.3-0.4-0.4-1-0.4-1.5
	c-1.2-1.8-1.8-3.8-2-5.9C74.3,51,75,46.2,73.8,42c-1.4-4.8-5.2-8.7-13-8.2c-8.6,0.6-11.2,6.4-12,10.6c-1,5.3,0.4,7.4,0.2,11.4
	c-0.2,4.8-14.2,10-15.8,27.6c-1.4,14.8,10,23.8,17,24.6s8.8-1.2,13.8-1.2c4.4,0,8.7,0.4,13,1.2c4.3,0.7,8.5-8.6,10-19.2
	C85.7,91.2,84.3,90.3,81,93.1z"/>
<path fill="#FFFFFF" d="M60.3,52c2,0.1,9.2,1.6,10,2.2s1,1.3,1.6,7c0.4,3.8,4.1,9.8,7,16.4c3.2,7.4,3.8,26.2-14.6,26
	c-18.7-0.2-20.2-9.1-20.4-16.7s9.6-18.5,11.2-26.1C56.5,53.8,57.1,51.8,60.3,52z"/>
<ellipse fill="#E6E6E6" cx="64.3" cy="63" rx="6.2" ry="4.9"/>
<linearGradient id="SVGID_1_" gradientUnits="userSpaceOnUse" x1="62.85" y1="80.8" x2="62.85" y2="93.38" gradientTransform="matrix(1 0 0 -1 0 128)">
	<stop  offset="0" style="stop-color:#000000"/>
	<stop  offset="1" style="stop-color:#999999"/>
</linearGradient>
<ellipse fill="url(#SVGID_1_)" cx="62.8" cy="40.9" rx="9.4" ry="6.3"/>
<path d="M76.7,63.1c-0.1,0.5,0,1.1,0.3,1.5c2.9,4.9,4.6,10.5,4.8,16.2c0.4,8.8-7.4,8.2-9,12C71,97,76.4,97.2,81,93.2
	c3.2-2.8,5.8,2.3,7.2-0.2c0.3-1.8,0.7-4.6,0.8-6.4C89.5,78.4,80.4,69.3,76.7,63.1z"/>
<ellipse fill="#F2F2F2" cx="60" cy="48.8" rx="3.9" ry="5.2"/>
<ellipse cx="60.3" cy="49.8" rx="2.1" ry="2.8"/>
<ellipse fill="#F2F2F2" cx="60.8" cy="48.4" rx="0.7" ry="1"/>
<ellipse fill="#F2F2F2" cx="68.5" cy="49.1" rx="3.1" ry="4.1"/>
<ellipse cx="68.3" cy="49.9" rx="1.7" ry="2.3"/>
<ellipse fill="#F2F2F2" cx="67.8" cy="48.8" rx="0.6" ry="0.8"/>
<path fill="#FFCA48" d="M62.3,61.3L62.3,61.3c-2.1-0.9-4.2-1.6-6.4-2.1c-1.6-0.2-2.3-3.4,0.1-5l0,0l7.5-3.7l0,0
	c1.1-0.8,2.6-0.7,3.7,0.1l4.7,3.4c1.3,0.9,1.6,2.6,0.7,3.9c-0.2,0.3-0.4,0.5-0.7,0.7l-0.2,0.1C69.6,60,68,61.2,68,61.2
	C66.9,62,63.5,62,62.3,61.3z"/>
<path fill="#D8B405" d="M65.4,59.6c-0.2,0-0.5,0-0.7,0c-2.3-0.3-4.4-1.1-6.4-2.2c-0.7-0.4-1.5-0.8-2.3-0.9V56c0.9,0.2,1.7,0.5,2.5,1
	c1.9,1.1,4,1.9,6.3,2.2c4.2,0.4,7.3-3.4,7.3-3.5l0.3,0.2C72.3,56.1,69.5,59.6,65.4,59.6z"/>
<linearGradient id="SVGID_2_" gradientUnits="userSpaceOnUse" x1="64.25" y1="57.17" x2="64.25" y2="38.05" gradientTransform="matrix(1 0 0 -1 0 128)">
	<stop  offset="0" style="stop-color:#CCCCCC"/>
	<stop  offset="1" style="stop-color:#FFFFFF"/>
</linearGradient>
<ellipse fill="url(#SVGID_2_)" cx="64.3" cy="80.4" rx="12" ry="9.6"/>
<path fill="#FFFFFF" d="M46.7,67.2c0,0-9,11-4.2,19.4l1.4-0.8c0,0-2.6-5.8-1-10.8C44,71.5,45.7,69.2,46.7,67.2z"/>
<linearGradient id="SVGID_3_" gradientUnits="userSpaceOnUse" x1="40.7131" y1="36.05" x2="40.7131" y2="66.22" gradientTransform="matrix(1 0 0 -1 0 128)">
	<stop  offset="0" style="stop-color:#000000"/>
	<stop  offset="1" style="stop-color:#999999"/>
</linearGradient>
<path fill="url(#SVGID_3_)" d="M46.1,61.8c0,0-7,7-9.4,14.8c-1.7,5.6-1.8,12,0,15.4l3.4-1c0,0-2.1-9.9-1-14.6
	C40.5,70.6,41.7,68.4,46.1,61.8z"/>
<path fill="#FFFFFF" d="M79,69.8c0,0,4,5.4,2.6,10.8c-0.8,3.3-4,6-4.4,6l2.2,1c0,0,3.6-3.6,3.6-8C83,76.4,81,71.6,79,69.8z"/>
<linearGradient id="SVGID_4_" gradientUnits="userSpaceOnUse" x1="82.677" y1="37.25" x2="82.677" y2="60.5799" gradientTransform="matrix(1 0 0 -1 0 128)">
	<stop  offset="0" style="stop-color:#000000"/>
	<stop  offset="1" style="stop-color:#999999"/>
</linearGradient>
<path fill="url(#SVGID_4_)" d="M78.2,67.6c0-1.3,5.4,5.4,7.4,10.6S88,89,84.4,90.8H83c0,0,2.6-6.4,1.8-10.4
	C83.3,72.6,78.2,68.6,78.2,67.6z"/>
<path fill="#FFC02E" d="M93,91.7c3,0.6,4.8,3.4,3,6.2c-2.1,3.3,1.2,7.1-1.2,9.6c-3.7,3.9-8.8-0.4-13.7,1.8
	c-6.4,2.8-12.1-2.2-11.1-6.4c1.3-5.6,4.2-5.8,9.6-13.8C86.9,78.4,90.2,91.2,93,91.7z"/>
<path fill="#FFC02E" d="M36.8,88.5c-3-0.1-5.4,2.2-4.3,5.4c1.3,3.7-2.7,6.7-1,9.6c2.7,4.6,8.7,1.6,12.9,4.8
	c5.6,4.2,12.3,0.6,12.3-3.7c0-5.8-2.8-6.6-6.2-15.6C45.8,76.8,39.7,88.6,36.8,88.5z"/>
<path fill="#FFFFFF" d="M38.2,85.3c1.6-1.1,3.3-2.1,5.1-2.9c1.4-0.5,3,0.2,3.6,1.7c0,0,0-0.1,0-0.1c-0.2-1.6-1.6-2.8-3.3-2.7
	c-0.2,0-0.5,0.1-0.7,0.2c-1.9,0.8-3.7,1.9-5.4,3.1c-1.4,1-1.1,3.8,0.1,4.7c0.2,0.1,0.4,0.3,0.6,0.4C37.1,88.7,36.9,86.2,38.2,85.3z"
	/>
<path d="M46.5,89.3c0.3-1.4,0.4-2.8,0.4-4.3c0-1.5-1.2-2.7-2.7-2.8c-0.1,0-0.2,0-0.3,0c-0.2,0-0.4,0.1-0.6,0.1
	c-1.8,0.8-3.5,1.8-5.1,2.9c-0.8,0.8-1.1,1.9-0.7,3c0.2,0.7,0.7,1.3,1.4,1.6c1.3,0.7,2.6,1.2,4,1.6C44.7,91.9,46,91.3,46.5,89.3z"/>
<linearGradient id="SVGID_5_" gradientUnits="userSpaceOnUse" x1="41.6568" y1="40.6861" x2="45.2855" y2="44.3049" gradientTransform="matrix(1 0 0 -1 0 128)">
	<stop  offset="0" style="stop-color:#000000"/>
	<stop  offset="1" style="stop-color:#999999"/>
</linearGradient>
<path opacity="0.6" fill="url(#SVGID_5_)" enable-background="new    " d="M45.3,86.6c0.1-0.7,0.2-1.4,0.2-2.1
	c0-0.8-0.6-1.4-1.4-1.4c-0.1,0-0.1,0-0.2,0c-0.1,0-0.2,0-0.3,0.1c-0.9,0.4-1.8,0.9-2.6,1.4c-0.4,0.4-0.6,1-0.4,1.5
	c0.1,0.4,0.4,0.7,0.7,0.8c0.6,0.3,1.3,0.6,2,0.8c0.7,0.3,1.5,0,1.8-0.7C45.2,86.9,45.2,86.7,45.3,86.6z"/>
</svg>
