<?xml version="1.0" encoding="utf-8"?>
<!-- Generator: Adobe Illustrator 24.2.1, SVG Export Plug-In . SVG Version: 6.00 Build 0)  -->
<svg version="1.1" id="icon-隐藏桌面" xmlns="http://www.w3.org/2000/svg" xmlns:xlink="http://www.w3.org/1999/xlink" x="0px"
	 y="0px" viewBox="0 0 32 32" style="enable-background:new 0 0 32 32;" xml:space="preserve">
<style type="text/css">
	.st0{fill:#FFFFFF;fill-opacity:0;}
	.st1{opacity:0.75;}
	.st2{fill:#1F2022;}
</style>
<path id="矩形" class="st0" d="M4,0h24c2.2,0,4,1.8,4,4v24c0,2.2-1.8,4-4,4H4c-2.2,0-4-1.8-4-4V4C0,1.8,1.8,0,4,0z"/>
<g id="组_35" class="st1">
	<path id="路径" class="st2" d="M16.7,17.2v-6h1.8c0.2,0,0.4-0.2,0.4-0.4c0-0.1,0-0.2-0.1-0.3l0,0l-2.2-2.2c-0.4-0.4-1-0.4-1.4,0
		l0,0L13,10.5l0,0c-0.2,0.2-0.2,0.4,0,0.6c0.1,0.1,0.2,0.1,0.3,0.1h1.9v6c0,0.3,0.2,0.5,0.5,0.5h0.5C16.5,17.7,16.7,17.5,16.7,17.2z
		"/>
	<rect id="矩形_60" x="8" y="19" class="st2" width="16" height="1"/>
	<path id="路径_79" class="st2" d="M22,10h-1v1h1c0.6,0,1,0.4,1,1v10c0,0.6-0.4,1-1,1H10c-0.6,0-1-0.4-1-1V12c0-0.6,0.4-1,1-1h1
		v-1h-1c-1.1,0-2,0.9-2,2v10c0,1.1,0.9,2,2,2h12c1.1,0,2-0.9,2-2V12C24,10.9,23.1,10,22,10z"/>
</g>
</svg>
