<?xml version="1.0" encoding="utf-8"?>
<!-- Generator: Adobe Illustrator 24.0.0, SVG Export Plug-In . SVG Version: 6.00 Build 0)  -->
<svg version="1.1" id="vivaldi" xmlns="http://www.w3.org/2000/svg" xmlns:xlink="http://www.w3.org/1999/xlink" x="0px" y="0px"
	 viewBox="0 0 96 96" style="enable-background:new 0 0 96 96;" xml:space="preserve">
<g id="_96">
	<path style="fill:#EF3939;" d="M15,6h66c5,0,9,4,9,9v66c0,5-4,9-9,9H15c-5,0-9-4-9-9V15C6,10,10,6,15,6z"/>
	<path style="fill:#E5E8E8;" d="M72.5,21c-4.1,0-7.5,3.3-7.5,7.5c0,1.2,0.3,2.3,0.8,3.4l0,0c0.9,1.7,1.4,3.7,1.4,5.7
		c0,6.6-5.4,12-12,12c-4.2,0-8.1-2.2-10.3-5.8l0,0l-0.3-0.5l0,0L34,24.7l0,0c-2.1-3.6-6.7-4.8-10.3-2.7s-4.8,6.7-2.7,10.3
		c0.1,0.2,0.2,0.4,0.4,0.6l0,0l21.6,37.6c0.2,0.5,0.5,1,0.9,1.5l0,0.1l0,0c2.5,3.3,7.2,4,10.5,1.5c0.6-0.4,1.1-1,1.5-1.5l0,0v-0.1
		c0.3-0.5,0.6-1,0.9-1.5l21.9-37.8c2.3-3.4,1.4-8.1-2-10.4C75.5,21.4,74,21,72.5,21z"/>
	<path style="fill:#FFFFFF;" d="M70.5,21c-4.1,0-7.5,3.3-7.5,7.5c0,1.2,0.3,2.3,0.8,3.4l0,0c0.9,1.7,1.4,3.7,1.4,5.7
		c0,6.6-5.4,12-12,12c-4.2,0-8.1-2.2-10.3-5.8l0,0l-0.3-0.5l0,0L32,24.7l0,0c-2.1-3.6-6.7-4.8-10.3-2.7s-4.8,6.7-2.7,10.3
		c0.1,0.2,0.2,0.4,0.4,0.6l0,0l21.6,37.6c0.2,0.5,0.5,1,0.9,1.5l0,0.1l0,0c2.5,3.3,7.2,4,10.5,1.5c0.6-0.4,1.1-1,1.5-1.5l0,0v-0.1
		c0.3-0.5,0.6-1,0.9-1.5l21.9-37.8c2.3-3.4,1.4-8.1-2-10.4C73.5,21.4,72,21,70.5,21z"/>
</g>
</svg>
