<?xml version="1.0" encoding="utf-8"?>
<!-- Generator: Adobe Illustrator 24.0.0, SVG Export Plug-In . SVG Version: 6.00 Build 0)  -->
<svg version="1.1" id="图层_1" xmlns="http://www.w3.org/2000/svg" xmlns:xlink="http://www.w3.org/1999/xlink" x="0px" y="0px"
	 viewBox="0 0 96 96" enable-background="new 0 0 96 96" xml:space="preserve">
<title>96</title>
<g id="WPS">
	<g id="P">
		<g id="_96">
			<g id="底色-浅橙">
				
					<linearGradient id="_48_1_" gradientUnits="userSpaceOnUse" x1="48" y1="-612" x2="48" y2="-696" gradientTransform="matrix(1 0 0 -1 0 -606)">
					<stop  offset="0" style="stop-color:#F9875F"/>
					<stop  offset="1" style="stop-color:#F2733D"/>
				</linearGradient>
				<path id="_48" fill="url(#_48_1_)" d="M82,69V15c0-5-4-9-9-9H23c-5,0-9,4-9,9v66c0,5,4,9,9,9h38.2L82,69z"/>
				
					<linearGradient id="SVGID_1_" gradientUnits="userSpaceOnUse" x1="63.9195" y1="-679.1906" x2="70.5395" y2="-684.7006" gradientTransform="matrix(1 0 0 -1 0 -606)">
					<stop  offset="0" style="stop-color:#FFFFFF;stop-opacity:0.4"/>
					<stop  offset="1" style="stop-color:#FFFFFF;stop-opacity:0.2"/>
				</linearGradient>
				<path fill="url(#SVGID_1_)" d="M68,69h14L61,90V76C61,72.1,64.1,69,68,69z"/>
			</g>
			<g opacity="0.4">
				<path fill="#FFFFFF" d="M43,51v8h-5v-8H43 M43,49h-5c-1.1,0-2,0.9-2,2v8c0,1.1,0.9,2,2,2h5c1.1,0,2-0.9,2-2v-8
					C45,49.9,44.1,49,43,49z"/>
				<path fill="#FFFFFF" d="M69,51v8H51v-8H69 M69,49H51c-1.1,0-2,0.9-2,2v8c0,1.1,0.9,2,2,2h18c1.1,0,2-0.9,2-2v-8
					C71,49.9,70.1,49,69,49z"/>
			</g>
			<g id="P-2">
				<path fill="none" stroke="#FFFFFF" stroke-width="4" stroke-linecap="round" stroke-miterlimit="10" d="M29,60V42.8
					c0-2.1,1.7-3.8,3.8-3.8H49"/>
				<path fill="none" stroke="#FFFFFF" stroke-width="4" stroke-linecap="round" stroke-miterlimit="10" d="M29,23h30
					c4.4,0,8,4,8,8.8V31c0.1,4.3-3.2,7.9-7.5,8c-0.2,0-0.3,0-0.5,0H39"/>
			</g>
		</g>
	</g>
</g>
</svg>
