<?xml version="1.0" encoding="utf-8"?>
<!-- Generator: Adobe Illustrator 24.0.0, SVG Export Plug-In . SVG Version: 6.00 Build 0)  -->
<svg version="1.1" id="图层_1" xmlns="http://www.w3.org/2000/svg" xmlns:xlink="http://www.w3.org/1999/xlink" x="0px" y="0px"
	 viewBox="0 0 96 96" enable-background="new 0 0 96 96" xml:space="preserve">
<title>96</title>
<g id="阅读器-2">
	<g id="_96">
		<g id="底色-浅橙">
			
				<linearGradient id="_48_1_" gradientUnits="userSpaceOnUse" x1="48" y1="-612" x2="48" y2="-696" gradientTransform="matrix(1 0 0 -1 0 -606)">
				<stop  offset="0" style="stop-color:#F34236"/>
				<stop  offset="1" style="stop-color:#E23932"/>
			</linearGradient>
			<path id="_48" fill="url(#_48_1_)" d="M82,69V15c0-5-4-9-9-9H23c-5,0-9,4-9,9v66c0,5,4,9,9,9h38.2L82,69z"/>
			
				<linearGradient id="SVGID_1_" gradientUnits="userSpaceOnUse" x1="63.9195" y1="-679.1906" x2="70.5395" y2="-684.7006" gradientTransform="matrix(1 0 0 -1 0 -606)">
				<stop  offset="0" style="stop-color:#FFFFFF;stop-opacity:0.4"/>
				<stop  offset="1" style="stop-color:#FFFFFF;stop-opacity:0.2"/>
			</linearGradient>
			<path fill="url(#SVGID_1_)" d="M68,69h14L61,90V76C61,72.1,64.1,69,68,69z"/>
		</g>
		<g id="application-pdf">
			<path fill="#FFFFFF" d="M47.1,24c0,0,1.4,12.8-8.4,29.6S26,68.1,25,67.6s-2.4-2.5,2-6.3s6-3.7,6-3.7c-2.1,1.2-4,2.9-5.5,4.7
				c-1.5,2.3-2.8,3.8-2.4,4.5s4.8-2.7,6.6-5.5c2.9-4.5,8.4-12.9,11-20.9S47.1,24,47.1,24z"/>
			<path fill="#FFFFFF" d="M71.2,53.5c0,0-0.2,0.6-2.8,0.4s-12.6-3.3-17.9-9.8s-5.8-15.2-6.2-19.8s1.7-3.3,2-2.7
				c0.4,0.5,0.6,1,0.7,1.6c-0.1-1-0.4-1.9-1-2.7c-0.8-0.8-1.5-0.8-2.3,0.6s-1.2,5.2-0.5,9s3.4,12.2,6.8,16.1S60,53.6,65,54.6
				S71.2,53.5,71.2,53.5L71.2,53.5z"/>
			<path fill="#FFFFFF" d="M38.6,55.2c6.2-1.9,12.5-3.3,18.9-4c9.2-0.9,12.3,0.1,13.2,0.7c0.5,0.3,0.7,0.8,0.8,1.4
				c0.6-0.5,0.7-1.4,0.4-2.1c-0.6-1.1-1.5-2-8.7-1.7c-4.9,0-9.7,0.6-14.5,1.7C45,51.8,41.6,53.1,38.6,55.2z"/>
		</g>
	</g>
</g>
</svg>
