<?xml version="1.0" encoding="utf-8"?>
<!-- Generator: Adobe Illustrator 24.0.0, SVG Export Plug-In . SVG Version: 6.00 Build 0)  -->
<svg version="1.1" id="图层_1" xmlns="http://www.w3.org/2000/svg" xmlns:xlink="http://www.w3.org/1999/xlink" x="0px" y="0px"
	 viewBox="0 0 128 128" enable-background="new 0 0 128 128" xml:space="preserve">
<title>128</title>
<g id="压缩文件">
	<g id="_128">
		<g id="底色-浅橙">
			
				<linearGradient id="_48_1_" gradientUnits="userSpaceOnUse" x1="64" y1="-582" x2="64" y2="-694" gradientTransform="matrix(1 0 0 -1 0 -574)">
				<stop  offset="0" style="stop-color:#FEDA3E"/>
				<stop  offset="1" style="stop-color:#E5B104"/>
			</linearGradient>
			<path id="_48" fill="url(#_48_1_)" d="M109,92V20c0-6.6-5.4-12-12-12H31c-6.6,0-12,5.4-12,12v88c0,6.6,5.4,12,12,12h50L109,92z"
				/>
			
				<linearGradient id="SVGID_1_" gradientUnits="userSpaceOnUse" x1="84.8071" y1="-671.5135" x2="93.7071" y2="-678.9235" gradientTransform="matrix(1 0 0 -1 0 -574)">
				<stop  offset="0" style="stop-color:#FFFFFF;stop-opacity:0.4"/>
				<stop  offset="1" style="stop-color:#FFFFFF;stop-opacity:0.2"/>
			</linearGradient>
			<path fill="url(#SVGID_1_)" d="M90,92h19l-28,28v-19C81,96,85,92,90,92L90,92z"/>
		</g>
		<path fill="#907C3B" d="M36,68v10c0,4.4,3.6,8,8,8l0,0c4.4,0,8-3.6,8-8V68H36z M47,82h-6v-6h6V82z"/>
		<rect x="36" y="8" fill="#EAEAEA" width="16" height="60"/>
		<rect x="42" y="12" fill="#907C3B" width="10" height="4"/>
		<rect x="42" y="20" fill="#907C3B" width="10" height="4"/>
		<rect x="42" y="28" fill="#907C3B" width="10" height="4"/>
		<rect x="42" y="36" fill="#907C3B" width="10" height="4"/>
		<rect x="42" y="44" fill="#907C3B" width="10" height="4"/>
		<rect x="42" y="52" fill="#907C3B" width="10" height="4"/>
		<rect x="42" y="60" fill="#907C3B" width="10" height="4"/>
		<rect x="36" y="32" fill="#907C3B" width="10" height="4"/>
		<rect x="36" y="24" fill="#907C3B" width="10" height="4"/>
		<rect x="36" y="16" fill="#907C3B" width="10" height="4"/>
		<rect x="36" y="8" fill="#907C3B" width="10" height="4"/>
		<rect x="36" y="40" fill="#907C3B" width="10" height="4"/>
		<rect x="36" y="56" fill="#907C3B" width="10" height="4"/>
		<rect x="36" y="48" fill="#907C3B" width="10" height="4"/>
	</g>
</g>
</svg>
