<?xml version="1.0" encoding="utf-8"?>
<!-- Generator: Adobe Illustrator 24.0.0, SVG Export Plug-In . SVG Version: 6.00 Build 0)  -->
<svg version="1.1" id="图层_1" xmlns="http://www.w3.org/2000/svg" xmlns:xlink="http://www.w3.org/1999/xlink" x="0px" y="0px"
	 viewBox="0 0 96 96" enable-background="new 0 0 96 96" xml:space="preserve">
<title>96</title>
<g id="psd">
	<g id="_96">
		<g id="_48">
			
				<linearGradient id="SVGID_1_" gradientUnits="userSpaceOnUse" x1="48" y1="64" x2="48" y2="-20" gradientTransform="matrix(1 0 0 1 0 26)">
				<stop  offset="0" style="stop-color:#061E26"/>
				<stop  offset="1" style="stop-color:#0C2B33"/>
			</linearGradient>
			<path fill="url(#SVGID_1_)" d="M82,69V15c0-5-4-9-9-9H23c-5,0-9,4-9,9v66c0,5,4,9,9,9h38L82,69z"/>
			
				<linearGradient id="SVGID_2_" gradientUnits="userSpaceOnUse" x1="14" y1="48" x2="82" y2="48" gradientTransform="matrix(1 0 0 -1 0 96)">
				<stop  offset="0" style="stop-color:#15B6FF"/>
				<stop  offset="1" style="stop-color:#26C9FF"/>
			</linearGradient>
			<path fill="url(#SVGID_2_)" d="M73,10c2.8,0,5,2.2,5,5v52.3L59.3,86H23c-2.8,0-5-2.2-5-5V15c0-2.8,2.2-5,5-5H73 M73,6H23
				c-5,0-9,4-9,9v66c0,5,4,9,9,9h38l21-21V15C82,10,78,6,73,6z"/>
		</g>
		
			<linearGradient id="SVGID_3_" gradientUnits="userSpaceOnUse" x1="63.6598" y1="46.9703" x2="70.4798" y2="52.6503" gradientTransform="matrix(1 0 0 1 0 26)">
			<stop  offset="0" style="stop-color:#1C9BD5;stop-opacity:0.5"/>
			<stop  offset="1" style="stop-color:#0771AD;stop-opacity:0.7"/>
		</linearGradient>
		<path fill="url(#SVGID_3_)" d="M67,69h15L61,90V75C61,71.7,63.7,69,67,69z"/>
		<path fill="none" stroke="#26C9FF" stroke-width="6" stroke-miterlimit="10" d="M28.5,27h10c4.3,0.2,7.6,3.7,7.5,8l0,0
			c0.1,4.3-3.2,7.8-7.5,8h-10"/>
		<rect x="26" y="24" fill="#26C9FF" width="6" height="36"/>
		<path fill="#26C9FF" d="M51,53.4l5.4-1c0.1,1.1,0.6,2.1,1.4,2.9c0.8,0.7,1.9,1.1,3,1c1.1,0.1,2.2-0.2,3.2-0.9
			c0.5-0.5,0.7-1.1,0.7-1.8c0-0.4-0.1-0.9-0.4-1.2c-0.5-0.4-1.1-0.7-1.8-0.9c-4.4-1.2-7.1-2.2-8.3-3.2c-1.6-1.4-2.5-3.4-2.4-5.6
			c0-2,0.7-3.9,2.1-5.4c1.4-1.5,3.6-2.2,6.5-2.2c2.8,0,4.9,0.6,6.2,1.7c1.5,1.3,2.4,3,2.8,4.9l-5.1,1.1c-0.2-0.9-0.6-1.7-1.3-2.2
			c-0.8-0.6-1.7-0.8-2.6-0.8c-1.1-0.1-2.1,0.2-3,0.7c-0.4,0.3-0.6,0.8-0.6,1.3c0,0.5,0.2,0.9,0.5,1.2c0.5,0.4,2.2,1,5,1.8
			c2.8,0.8,4.9,1.8,6,2.9c1.2,1.3,1.8,3.1,1.7,4.9c0,2.2-0.8,4.3-2.3,5.8c-1.6,1.6-3.9,2.4-6.9,2.4c-2.4,0.1-4.7-0.6-6.6-2
			C52.5,57.5,51.4,55.6,51,53.4z"/>
	</g>
</g>
</svg>
