<?xml version="1.0" encoding="utf-8"?>
<!-- Generator: Adobe Illustrator 24.0.0, SVG Export Plug-In . SVG Version: 6.00 Build 0)  -->
<svg version="1.1" id="图层_1" xmlns="http://www.w3.org/2000/svg" xmlns:xlink="http://www.w3.org/1999/xlink" x="0px" y="0px"
	 viewBox="0 0 96 96" enable-background="new 0 0 96 96" xml:space="preserve">
<title>96</title>
<g id="白色">
	<g id="_96">
		<g id="_48">
			
				<linearGradient id="SVGID_1_" gradientUnits="userSpaceOnUse" x1="48" y1="6.5" x2="48" y2="89.5" gradientTransform="matrix(1 0 0 -1 0 96)">
				<stop  offset="0" style="stop-color:#D6D9E6"/>
				<stop  offset="1" style="stop-color:#F5F5F5"/>
			</linearGradient>
			<path fill="url(#SVGID_1_)" d="M23,89.5c-4.7,0-8.5-3.8-8.5-8.5V15c0-4.7,3.8-8.5,8.5-8.5h50c4.7,0,8.5,3.8,8.5,8.5v53.8
				L60.8,89.5H23z"/>
			<path fill="#C4C6CC" d="M73,7c4.4,0,8,3.6,8,8v53.6L60.6,89H23c-4.4,0-8-3.6-8-8V15c0-4.4,3.6-8,8-8H73 M73,6H23c-5,0-9,4-9,9v66
				c0,5,4,9,9,9h38l21-21V15C82,10,78,6,73,6z"/>
		</g>
		
			<linearGradient id="SVGID_2_" gradientUnits="userSpaceOnUse" x1="63.6598" y1="46.9703" x2="70.4798" y2="52.6503" gradientTransform="matrix(1 0 0 1 0 26)">
			<stop  offset="0" style="stop-color:#000000;stop-opacity:0.1"/>
			<stop  offset="1" style="stop-color:#000000;stop-opacity:5.000000e-02"/>
		</linearGradient>
		<path fill="url(#SVGID_2_)" d="M67,69h15L61,90V75C61,71.7,63.7,69,67,69z"/>
		
			<radialGradient id="SVGID_3_" cx="-439.48" cy="-1169.9" r="24.71" fx="-456.4885" fy="-1169.9" gradientTransform="matrix(7.000000e-02 0.7 -0.79 8.000000e-02 -848.08 435.57)" gradientUnits="userSpaceOnUse">
			<stop  offset="1.000000e-02" style="stop-color:#49453A"/>
			<stop  offset="0.52" style="stop-color:#7C7667"/>
			<stop  offset="1" style="stop-color:#4C4940"/>
		</radialGradient>
		<path fill="url(#SVGID_3_)" d="M34.1,27.5c0,0,6.2,6.1,14.8,6.2c6.9,0.1,17.2-7.8,17.4-8.8c0,0,4.2,24.6-10.5,28.3
			C43.1,56.5,31,45,27.4,42c3.4-2.1,7.6-2.7,11.5-1.6C38.8,40.4,33.9,34.3,34.1,27.5z"/>
		
			<radialGradient id="SVGID_4_" cx="86.76" cy="-178.53" r="10.07" gradientTransform="matrix(0.6965 8.845611e-02 -8.845611e-02 0.6965 -46.0647 157.1312)" gradientUnits="userSpaceOnUse">
			<stop  offset="0" style="stop-color:#4D4D4D"/>
			<stop  offset="0.55" style="stop-color:#2F2F2F"/>
			<stop  offset="1" style="stop-color:#1A1A1A"/>
		</radialGradient>
		<path fill="url(#SVGID_4_)" d="M26.1,35.4c2.4-1.3,5.9,0.3,7.7,3.7c1.8,3.4,1.3,7.2-1.1,8.5c-2.4,1.3-5.9-0.3-7.7-3.7
			C23.2,40.5,23.7,36.7,26.1,35.4z"/>
		
			<ellipse transform="matrix(0.8795 -0.4759 0.4759 0.8795 -15.13 18.0566)" fill="#4D4D4D" cx="28.1" cy="38.9" rx="2.3" ry="3.1"/>
		<ellipse transform="matrix(0.1437 -0.9896 0.9896 0.1437 5.9037 81.3941)" fill="#F2F2F2" cx="50" cy="37.3" rx="5.5" ry="5.9"/>
		<ellipse transform="matrix(0.1437 -0.9896 0.9896 0.1437 4.9507 83.9798)" fill="#333333" cx="51" cy="39.1" rx="2.3" ry="2.4"/>
		<ellipse transform="matrix(0.1437 -0.9896 0.9896 0.1437 5.0557 83.6087)" cx="50.8" cy="38.9" rx="1" ry="1.1"/>
		
			<ellipse transform="matrix(0.8884 -0.4592 0.4592 0.8884 -11.2671 26.9298)" opacity="0.4" fill="#E6E6E6" enable-background="new    " cx="49.7" cy="36.6" rx="2.4" ry="2.8"/>
		<ellipse transform="matrix(0.1437 -0.9896 0.9896 0.1437 6.0793 81.2454)" fill="#FFFFFF" cx="50" cy="37.1" rx="1.1" ry="1.2"/>
		
			<ellipse transform="matrix(0.9999 -1.361315e-02 1.361315e-02 0.9999 -0.5192 0.533)" fill="#F2F2F2" cx="38.9" cy="38.4" rx="4.2" ry="4.2"/>
		<ellipse fill="#333333" cx="39.7" cy="39.5" rx="1.7" ry="1.7"/>
		<circle cx="39.7" cy="39.5" r="0.9"/>
		
			<ellipse transform="matrix(0.866 -0.5 0.5 0.866 -13.5115 24.3385)" opacity="0.4" fill="#E6E6E6" enable-background="new    " cx="38.7" cy="37.4" rx="1.7" ry="2.1"/>
		<circle fill="#FFFFFF" cx="39" cy="37.8" r="0.9"/>
		<ellipse transform="matrix(0.8889 -0.458 0.458 0.8889 -14.4023 16.9223)" fill="#E6E6E6" cx="27.7" cy="38.2" rx="2" ry="2.2"/>
		<path fill="#1A1A1A" d="M50,47.6c0,0,6.1,1,7.8-0.9c0,0-0.5-1-1.2-1c0,0,1-0.6,1.8,0.9c0.8,1.7,0.2,2.4,0.2,2.4
			c-0.1-0.5-0.2-0.9-0.4-1.4C57.3,48.5,53.5,49.1,50,47.6z"/>
		<path fill="#EA6A42" d="M58,47.4c0,0,5.6,3.7,6,4.5s-1.2,1.6-2,0.8c-0.7-0.6-4.7-4.5-4.9-4.8S57.4,47,58,47.4z"/>
		<path fill="#D9D9D9" d="M62.3,52.8c0.1,0.2,0.2,0.3,0.3,0.4c1.2,1.1,2.4,2.1,3.7,3.1c0.4,0.2,1.3-0.4,1.2-1.1
			c-0.9-1.4-2.2-2.6-3.7-3.4C63,51.7,62.4,52.1,62.3,52.8C62.3,52.8,62.3,52.8,62.3,52.8z"/>
		<path fill="#1A1A1A" d="M70,55.6c-0.9-0.7-2.1-0.8-3.1-0.3c-1.3,0.8-1.8,2.5-1.1,3.8c0.8,1.4,3.1,4.3,6.3,3.7
			C71.3,59.6,71.2,56.7,70,55.6z"/>
		
			<linearGradient id="SVGID_5_" gradientUnits="userSpaceOnUse" x1="66.3192" y1="33.4038" x2="68.2992" y2="33.4038" gradientTransform="matrix(1 0 0 1 0 26)">
			<stop  offset="9.000000e-02" style="stop-color:#1A1A1A"/>
			<stop  offset="0.49" style="stop-color:#2B2B2B"/>
			<stop  offset="1" style="stop-color:#1A1A1A"/>
		</linearGradient>
		<path fill="url(#SVGID_5_)" d="M66.3,57.9c0,1.2,0.6,2.3,1.7,2.9c0.6,0.3,0.2-0.7-0.7-1.4C66.8,59.1,66.4,58.5,66.3,57.9z"/>
	</g>
</g>
</svg>
