<?xml version="1.0" encoding="utf-8"?>
<!-- Generator: Adobe Illustrator 24.0.0, SVG Export Plug-In . SVG Version: 6.00 Build 0)  -->
<svg version="1.1" id="图层_1" xmlns="http://www.w3.org/2000/svg" xmlns:xlink="http://www.w3.org/1999/xlink" x="0px" y="0px"
	 viewBox="0 0 96 96" enable-background="new 0 0 96 96" xml:space="preserve">
<title>96</title>
<g id="libreoffice">
	<g id="libreoffice-document">
		<g id="_96">
			<g id="_48">
				
					<linearGradient id="SVGID_1_" gradientUnits="userSpaceOnUse" x1="48" y1="90" x2="48" y2="6" gradientTransform="matrix(1 0 0 -1 0 96)">
					<stop  offset="0" style="stop-color:#FFFFFF"/>
					<stop  offset="1" style="stop-color:#DCECF4"/>
				</linearGradient>
				<path fill="url(#SVGID_1_)" d="M82,69V15c0-5-4-9-9-9H23c-5,0-9,4-9,9v66c0,5,4,9,9,9h38.2L82,69z"/>
				
					<linearGradient id="SVGID_2_" gradientUnits="userSpaceOnUse" x1="48" y1="90" x2="48" y2="6" gradientTransform="matrix(1 0 0 -1 0 96)">
					<stop  offset="0" style="stop-color:#1D9DD6"/>
					<stop  offset="1" style="stop-color:#0771AD"/>
				</linearGradient>
				<path fill="url(#SVGID_2_)" d="M73,10c2.8,0,5,2.2,5,5v52.3L59.5,86H23c-2.8,0-5-2.2-5-5V15c0-2.8,2.2-5,5-5H73 M73,6H23
					c-5,0-9,4-9,9v66c0,5,4,9,9,9h38.2L82,69V15C82,10,78,6,73,6z"/>
			</g>
			
				<linearGradient id="SVGID_3_" gradientUnits="userSpaceOnUse" x1="63.6598" y1="-678.9703" x2="70.4798" y2="-684.6503" gradientTransform="matrix(1 0 0 -1 0 -606)">
				<stop  offset="0" style="stop-color:#1C9BD5;stop-opacity:0.5"/>
				<stop  offset="1" style="stop-color:#0771AD;stop-opacity:0.7"/>
			</linearGradient>
			<path fill="url(#SVGID_3_)" d="M67,69h15L61,90V75C61,71.7,63.7,69,67,69z"/>
			<rect x="26" y="22" fill="#0771AD" width="44" height="3"/>
			<rect x="26" y="30" fill="#0771AD" width="44" height="3"/>
			<rect x="26" y="38" fill="#0771AD" width="15" height="3"/>
			<rect x="26" y="70" fill="#0771AD" width="30" height="3"/>
			<rect x="26" y="46" fill="#0771AD" width="12" height="3"/>
			<rect x="26" y="62" fill="#0771AD" width="15" height="3"/>
			<rect x="26" y="54" fill="#0771AD" width="12" height="3"/>
			<path fill="#006837" d="M69,38.3L69,38.3L68.8,38L69,38.3z"/>
			<g id="_64">
				
					<linearGradient id="SVGID_4_" gradientUnits="userSpaceOnUse" x1="55.5" y1="-642" x2="55.5" y2="-671" gradientTransform="matrix(1 0 0 -1 0 -606)">
					<stop  offset="0" style="stop-color:#B6FA5F"/>
					<stop  offset="1" style="stop-color:#3FA644"/>
				</linearGradient>
				<circle fill="url(#SVGID_4_)" cx="55.5" cy="50.5" r="14.5"/>
				
					<linearGradient id="SVGID_5_" gradientUnits="userSpaceOnUse" x1="57.7905" y1="-674.2886" x2="54.1005" y2="-645.9186" gradientTransform="matrix(1 0 0 -1 0 -606)">
					<stop  offset="0" style="stop-color:#01669B"/>
					<stop  offset="0.99" style="stop-color:#5BC7F8"/>
				</linearGradient>
				<path fill="url(#SVGID_5_)" d="M66.3,46.3l0.3,0.2h0.2V46l0.7-0.1l0.7,0.5h1.2l0.1-0.1c-0.1-0.4-0.2-0.8-0.4-1.2h-0.8l-0.4-0.4
					l-0.1-0.7l-0.4,0.2l-0.2,0.8l-0.6-0.6V44l-0.5-0.5l-0.2-0.2h-0.7l0.2,0.6l0.8,0.4l0.1,0.1l-0.2,0.1V45l-0.4,0.2h-0.3l-0.2-0.3
					h0.5l0.1-0.2l-1.1-0.8l-0.1-0.3L64.3,44l-0.5-0.1l-0.7,0.9L63,45.2h-0.5h-0.6L61.5,45l-0.1-0.8l0.1-0.4l0.7-0.2l0.8,0.2l0.1-0.4
					l-0.3-0.1l0.1-0.6l0.8-0.1l0.5-0.7l0.5-0.1l0.5,0.1h0.2l-0.1-0.7l-0.6,0.2l-0.2-0.5H64v-0.4l0.3-0.3L65,40l0.2-0.3
					c-5.1-4.5-12.6-4.9-18.1-0.9h0.7l0.3,0.2l0.6,0.1v0.2h1L49.5,39h-0.9l0.2-0.2l-0.1-0.2H48l0.9-0.6h0.8l0.4,0.6h0.7l0.4-0.4
					l0.3,0.2l-0.5,0.5h-0.7c0,0.2,0.1,0.3,0.1,0.5h0.9l0.1-0.2h0.6l0.1-0.4l-0.4-0.1l0.1-0.3l0.3-0.1h1l-0.5,0.5l0.1,0.4l0.6,0.1
					v-0.7l0.5-0.3l0.9-0.1l1.4,0.6v0.5l0.4,0.1l-0.2,0.4h-0.6l-0.2,0.5l-1.4-0.3l1.1-0.6L54.5,39l-1,0.1l0,0.1l0,0l-0.3,0.3h-0.5
					v0.2l0.2,0.1v0.1h-0.4v0.2h-0.3l-0.1-0.4l-0.7,0.2l-1.3,0.8l0.2,0.5l0.4,0.2l0.7,0.1v0.8l0.3-0.1l0.3-0.6l0.8-0.2v-1l0.4-0.3
					l1,0.2L54.2,41h0.3l0.8-0.4v0.9l0.6,0.3v0.5l-0.6,0.2v0.2L56,43v0.3h-0.2L55,43.1v-0.3l0,0l0.2-0.2v-0.2L55,42.3l-0.1,0.2
					l-0.4,0.1h-0.2l-0.1-0.3L54,42.3h-0.3l-0.1,0.1v0.3l0.3,0.1h0.3H54L53.8,43l-0.2,0l-0.2-0.1l-0.6,0.6l0.1,0.1l-0.9,0.5L51,45
					l-0.1,0.4L50,46.1l-0.4,0.5v0.9L49,47.2v-0.5h-1.7l-0.9,0.5L46,47.8l-0.2,0.6l0.3,0.5l0.7,0.1l1.1-0.7l0.1,0.4l-0.3,0.6l0.8,0.2
					l0.1,1.3l1.2,0.2l0.7-0.9l0.9,0.2l0.3,0.4h0.9v-0.3l0.5,0.2l0.5,0.8h0.9l0.4,0.6v0.7l1,0.4h1.3l0.4,0.6l0.6,0.2L58,54.5
					l-0.6,0.8L57.2,57l-0.6,0.4h-0.8l-0.3,0.5l0.2,0.9L54.8,60l-0.3,0.5l-0.9,0.4L53.1,61v0.2l0.4,0.1l0,0.3L53.1,62l0.2,0.3h0.4
					v0.3l-0.1,0.3v0.3l0.6,0.5L54.2,64h-0.9l-0.9-0.8L51.7,62l0.1-1.1l-0.5-0.7l0.2-1.2l-0.3-0.1v-2.5c0,0-0.8-0.6-0.9-0.6l-0.4-0.1
					l-0.1-0.5l-1.1-1.4l0.1-0.5v-0.8l0.8-0.5l-0.1-0.9L48.4,51l-0.9-1l-0.6-0.2l-0.4-0.1v-0.4L46,49.4v0.2l-1.3-0.3l-0.5-0.8
					l0.2-0.4L43.7,47l-0.1-0.8h-0.3l0.1,0.8l0.6,0.8l-0.1,0.3l-0.5-0.1l-0.6-1v-1.2l-0.6-0.3v-0.8c-3.1,7.4,0.5,15.9,7.9,19
					c5.9,2.4,12.6,0.7,16.7-4.1h-0.5v-1l-0.6-0.7v-1.1l-0.4-0.4v-0.5l0.5-1l-1-1.8l0.1-1.2L64,51.7l-0.3-0.3h-0.6l-0.3,0.3h-1.1v0.1
					H61l-1.4-1.6V49l0.2-0.1l0.1-0.5h-0.3l-0.1-0.5l1.6-1.2V46l0.8-0.4h0.3h0.6l0.5-0.3l1.7-0.2V46L66.3,46.3z M62.2,41.1l0.1-0.2
					l0.5-0.1l0.1,0.6l0.3,0.4l0.2,0.2l0.3,0.1l-0.3,0.3l-0.6,0h-0.4V42l0.4,0v-0.2l-0.3-0.2l-0.2-0.2L62.2,41.1z M61.4,42l0.3-0.5
					l0.4-0.1l0.3,0.1v0.3l-0.6,0.4h-0.3L61.4,42z M53.5,43.8h-0.3v-0.2l0.1-0.2l0.2,0.1L53.5,43.8z M54.6,43.5h-0.2v0.2l-0.2,0.1H54
					v-0.1h-0.1v-0.2h0.4l0.1-0.2h0.2h0.2L54.6,43.5z"/>
			</g>
		</g>
	</g>
</g>
</svg>
