<?xml version="1.0" encoding="utf-8"?>
<!-- Generator: Adobe Illustrator 24.0.0, SVG Export Plug-In . SVG Version: 6.00 Build 0)  -->
<svg version="1.1" id="图层_1" xmlns="http://www.w3.org/2000/svg" xmlns:xlink="http://www.w3.org/1999/xlink" x="0px" y="0px"
	 viewBox="0 0 96 96" enable-background="new 0 0 96 96" xml:space="preserve">
<title>96</title>
<g id="白色">
	<g id="_96">
		<g id="_48">
			
				<linearGradient id="SVGID_1_" gradientUnits="userSpaceOnUse" x1="48" y1="6.5" x2="48" y2="89.5" gradientTransform="matrix(1 0 0 -1 0 96)">
				<stop  offset="0" style="stop-color:#D6D9E6"/>
				<stop  offset="1" style="stop-color:#F5F5F5"/>
			</linearGradient>
			<path fill="url(#SVGID_1_)" d="M23,89.5c-4.7,0-8.5-3.8-8.5-8.5V15c0-4.7,3.8-8.5,8.5-8.5h50c4.7,0,8.5,3.8,8.5,8.5v53.8
				L60.8,89.5H23z"/>
			<path fill="#C4C6CC" d="M73,7c4.4,0,8,3.6,8,8v53.6L60.6,89H23c-4.4,0-8-3.6-8-8V15c0-4.4,3.6-8,8-8H73 M73,6H23c-5,0-9,4-9,9v66
				c0,5,4,9,9,9h38l21-21V15C82,10,78,6,73,6z"/>
		</g>
		
			<linearGradient id="SVGID_2_" gradientUnits="userSpaceOnUse" x1="63.6598" y1="46.9703" x2="70.4798" y2="52.6503" gradientTransform="matrix(1 0 0 1 0 26)">
			<stop  offset="0" style="stop-color:#000000;stop-opacity:0.1"/>
			<stop  offset="1" style="stop-color:#000000;stop-opacity:5.000000e-02"/>
		</linearGradient>
		<path fill="url(#SVGID_2_)" d="M67,69h15L61,90V75C61,71.7,63.7,69,67,69z"/>
		<path fill="#666666" d="M49,27c9.9,0,18,8.1,18,18s-8.1,18-18,18s-18-8.1-18-18S39.1,27,49,27 M49,23c-12.2,0-22,9.8-22,22
			s9.8,22,22,22s22-9.8,22-22S61.2,23,49,23z"/>
		<path fill="#666666" d="M53.4,38c0.9,0,1.6,0.7,1.6,1.6v2.6c0,0.9-0.7,1.6-1.6,1.6h-9.5c-0.2,0-0.4-0.2-0.4-0.4v-5
			c0-0.2,0.2-0.4,0.4-0.4L53.4,38 M53.4,33h-9.5c-3,0-5.4,2.4-5.4,5.4v5c0,3,2.4,5.4,5.4,5.4h9.5c3.6,0,6.6-3,6.6-6.6v-2.6
			C60,36,57,33,53.4,33L53.4,33z"/>
		<rect x="38" y="33" fill="#666666" width="6" height="24"/>
		<polygon fill="#666666" points="60.1,57 53,57 46.7,46.4 53.7,46.4 		"/>
		<line fill="none" stroke="#666666" stroke-width="2" stroke-miterlimit="10" x1="49" y1="65" x2="49" y2="70"/>
		<line fill="none" stroke="#666666" stroke-width="2" stroke-miterlimit="10" x1="49" y1="20" x2="49" y2="25"/>
		<line fill="none" stroke="#666666" stroke-width="2" stroke-miterlimit="10" x1="56.9" y1="64" x2="58.6" y2="68.1"/>
		<line fill="none" stroke="#666666" stroke-width="2" stroke-miterlimit="10" x1="39.4" y1="21.9" x2="41.1" y2="26"/>
		<line fill="none" stroke="#666666" stroke-width="2" stroke-miterlimit="10" x1="35" y1="31" x2="31.3" y2="27.3"/>
		<line fill="none" stroke="#666666" stroke-width="2" stroke-miterlimit="10" x1="66.7" y1="62.7" x2="63" y2="59"/>
		<line fill="none" stroke="#666666" stroke-width="2" stroke-miterlimit="10" x1="63" y1="31" x2="66.7" y2="27.3"/>
		<line fill="none" stroke="#666666" stroke-width="2" stroke-miterlimit="10" x1="31.3" y1="62.7" x2="35" y2="59"/>
		<line fill="none" stroke="#666666" stroke-width="2" stroke-miterlimit="10" x1="56.9" y1="26" x2="58.6" y2="21.9"/>
		<line fill="none" stroke="#666666" stroke-width="2" stroke-miterlimit="10" x1="39.4" y1="68.1" x2="41.1" y2="64"/>
		<line fill="none" stroke="#666666" stroke-width="2" stroke-miterlimit="10" x1="68" y1="37.1" x2="72.1" y2="35.4"/>
		<line fill="none" stroke="#666666" stroke-width="2" stroke-miterlimit="10" x1="25.9" y1="54.6" x2="30" y2="52.9"/>
		<line fill="none" stroke="#666666" stroke-width="2" stroke-miterlimit="10" x1="69" y1="45" x2="74" y2="45"/>
		<line fill="none" stroke="#666666" stroke-width="2" stroke-miterlimit="10" x1="24" y1="45" x2="29" y2="45"/>
		<line fill="none" stroke="#666666" stroke-width="2" stroke-miterlimit="10" x1="68" y1="52.8" x2="72.1" y2="54.5"/>
		<line fill="none" stroke="#666666" stroke-width="2" stroke-miterlimit="10" x1="25.9" y1="35.5" x2="30" y2="37.2"/>
		<line fill="none" stroke="#666666" stroke-width="2" stroke-miterlimit="10" x1="52.8" y1="64.6" x2="53.8" y2="69.5"/>
		<line fill="none" stroke="#666666" stroke-width="2" stroke-miterlimit="10" x1="44.2" y1="20.5" x2="45.2" y2="25.4"/>
		<line fill="none" stroke="#666666" stroke-width="2" stroke-miterlimit="10" x1="60.4" y1="62.1" x2="62.8" y2="65.8"/>
		<line fill="none" stroke="#666666" stroke-width="2" stroke-miterlimit="10" x1="35.2" y1="24.2" x2="37.6" y2="27.9"/>
		<line fill="none" stroke="#666666" stroke-width="2" stroke-miterlimit="10" x1="32.6" y1="33.9" x2="28.3" y2="31"/>
		<line fill="none" stroke="#666666" stroke-width="2" stroke-miterlimit="10" x1="69.7" y1="59" x2="65.4" y2="56.1"/>
		<line fill="none" stroke="#666666" stroke-width="2" stroke-miterlimit="10" x1="60.1" y1="28.6" x2="63" y2="24.3"/>
		<line fill="none" stroke="#666666" stroke-width="2" stroke-miterlimit="10" x1="35" y1="65.7" x2="37.9" y2="61.4"/>
		<line fill="none" stroke="#666666" stroke-width="2" stroke-miterlimit="10" x1="53.1" y1="24.8" x2="54" y2="20.5"/>
		<line fill="none" stroke="#666666" stroke-width="2" stroke-miterlimit="10" x1="44" y1="69.5" x2="44.9" y2="65.2"/>
		<line fill="none" stroke="#666666" stroke-width="2" stroke-miterlimit="10" x1="66.1" y1="33.6" x2="69.8" y2="31.2"/>
		<line fill="none" stroke="#666666" stroke-width="2" stroke-miterlimit="10" x1="28.2" y1="58.8" x2="31.9" y2="56.4"/>
		<line fill="none" stroke="#666666" stroke-width="2" stroke-miterlimit="10" x1="68.6" y1="41.2" x2="73.5" y2="40.2"/>
		<line fill="none" stroke="#666666" stroke-width="2" stroke-miterlimit="10" x1="24.5" y1="49.8" x2="29.4" y2="48.8"/>
		<line fill="none" stroke="#666666" stroke-width="2" stroke-miterlimit="10" x1="69.1" y1="49.1" x2="73.5" y2="49.9"/>
		<line fill="none" stroke="#666666" stroke-width="2" stroke-miterlimit="10" x1="24.5" y1="40.1" x2="28.9" y2="40.9"/>
		<polygon fill="none" stroke="#666666" stroke-miterlimit="10" points="40.5,62.7 40.6,57.3 35.3,57.9 		"/>
		<polygon fill="none" stroke="#666666" stroke-miterlimit="10" points="57.4,62.7 57.3,57.3 62.6,57.9 		"/>
		<polygon fill="none" stroke="#666666" stroke-miterlimit="10" points="45.5,26 49,30 52.5,26 		"/>
		<polygon fill="none" stroke="#666666" stroke-miterlimit="10" points="30.6,42.1 35.4,39.8 32.5,35.4 		"/>
		<polygon fill="none" stroke="#666666" stroke-miterlimit="10" points="67.4,43.1 62.6,40.8 65.5,36.4 		"/>
	</g>
</g>
</svg>
