<?xml version="1.0" encoding="utf-8"?>
<!-- Generator: Adobe Illustrator 24.0.0, SVG Export Plug-In . SVG Version: 6.00 Build 0)  -->
<svg version="1.1" id="图层_1" xmlns="http://www.w3.org/2000/svg" xmlns:xlink="http://www.w3.org/1999/xlink" x="0px" y="0px"
	 viewBox="0 0 96 96" enable-background="new 0 0 96 96" xml:space="preserve">
<title>96</title>
<g id="白色">
	<g id="_96">
		<g id="_48">
			
				<linearGradient id="SVGID_1_" gradientUnits="userSpaceOnUse" x1="48" y1="6.5" x2="48" y2="89.5" gradientTransform="matrix(1 0 0 -1 0 96)">
				<stop  offset="0" style="stop-color:#D6D9E6"/>
				<stop  offset="1" style="stop-color:#F5F5F5"/>
			</linearGradient>
			<path fill="url(#SVGID_1_)" d="M23,89.5c-4.7,0-8.5-3.8-8.5-8.5V15c0-4.7,3.8-8.5,8.5-8.5h50c4.7,0,8.5,3.8,8.5,8.5v53.8
				L60.8,89.5H23z"/>
			<path fill="#C4C6CC" d="M73,7c4.4,0,8,3.6,8,8v53.6L60.6,89H23c-4.4,0-8-3.6-8-8V15c0-4.4,3.6-8,8-8H73 M73,6H23c-5,0-9,4-9,9v66
				c0,5,4,9,9,9h38l21-21V15C82,10,78,6,73,6z"/>
		</g>
		
			<linearGradient id="SVGID_2_" gradientUnits="userSpaceOnUse" x1="63.6598" y1="46.9703" x2="70.4798" y2="52.6503" gradientTransform="matrix(1 0 0 1 0 26)">
			<stop  offset="0" style="stop-color:#000000;stop-opacity:0.1"/>
			<stop  offset="1" style="stop-color:#000000;stop-opacity:5.000000e-02"/>
		</linearGradient>
		<path fill="url(#SVGID_2_)" d="M67,69h15L61,90V75C61,71.7,63.7,69,67,69z"/>
		<path fill="#263238" d="M28.7,51.5c3.2-0.2,3.4-0.7,3.4-3.2V32.5h-2c-4.2,0-4.6,0.7-5.6,4.1H24c0.2-1.9,0.3-3.8,0.4-5.6h0.5
			c0.1,0.3,0.4,0.5,0.7,0.7c0.3,0.1,0.7,0.1,1,0.1h13c0.6,0.1,1.3-0.2,1.6-0.8h0.5c0,1.8,0.1,3.7,0.3,5.5l-0.5,0.1
			c-0.8-3.7-2-4.1-4.8-4.1h-2.9v15.8c0,2.5,0.2,3,3.6,3.2V52h-8.7V51.5z"/>
		<path fill="#263238" d="M39,56.5c3-0.2,3.2-0.7,3.2-3.2V40.9c0-2.8-0.3-3.3-2.9-3.4V37h13.8c0,1.1,0.2,3,0.3,4.9L52.9,42
			c-0.7-3.3-1.3-4.2-5.1-4.2h-3c-0.9,0-0.9,0.1-0.9,0.9v7.5h3.7c2.5,0,3.1-0.3,3.6-2.5h0.5v5.9h-0.5C50.7,47.2,50,47,47.6,47h-3.7
			v6.2c0,3,1.3,3,3.9,3c1.9,0,3.8,0,4.8-1.2c0.8-0.9,1.4-2,1.8-3.2H55c-0.3,1.2-0.9,4-1.1,5.1H39V56.5z"/>
		<path fill="#263238" d="M52.6,31h6.9v0.5c-1.6,0.2-2.2,0.3-2.2,0.8c0.1,0.4,0.2,0.7,0.4,1c1.1,1.8,2.5,3.8,4.1,6
			c1.8-2.7,3.9-5.7,3.9-6.7c0-0.6-0.6-0.9-2.2-1V31h7.1v0.5c-2.4,0.3-2.9,0.9-4.3,2.7c-0.4,0.6-1.5,2-4.1,5.7
			c1.9,2.8,3.9,5.7,5.3,7.6c1.4,2,2.3,2.9,4.5,3.2V51h-7.2v-0.4c1.2-0.2,1.9-0.4,1.9-1c0-0.3-0.1-0.5-0.3-0.8
			c-0.9-1.4-3.2-4.8-5-7.3c-1.9,2.9-3.2,5.2-4.3,7.2c-0.2,0.3-0.3,0.6-0.3,0.9c0,0.6,0.6,0.8,2,1V51H52v-0.5
			c1.4-0.1,2.7-0.8,3.6-1.9c0.3-0.3,1.7-2.2,5.4-7.8c-1.8-2.7-3.5-5.3-4.2-6.2c-1.5-2.3-1.8-2.8-4.2-3.1V31z"/>
	</g>
</g>
</svg>
