<?xml version="1.0" encoding="utf-8"?>
<!-- Generator: Adobe Illustrator 24.0.0, SVG Export Plug-In . SVG Version: 6.00 Build 0)  -->
<svg version="1.1" id="图层_1" xmlns="http://www.w3.org/2000/svg" xmlns:xlink="http://www.w3.org/1999/xlink" x="0px" y="0px"
	 viewBox="0 0 96 96" enable-background="new 0 0 96 96" xml:space="preserve">
<title>96</title>
<g id="bittorrent">
	<g id="_96">
		
			<linearGradient id="_48_1_" gradientUnits="userSpaceOnUse" x1="48" y1="64" x2="48" y2="-20" gradientTransform="matrix(1 0 0 1 0 26)">
			<stop  offset="0" style="stop-color:#7665AC"/>
			<stop  offset="1" style="stop-color:#897CB8"/>
		</linearGradient>
		<path id="_48" fill="url(#_48_1_)" d="M82,69V15c0-5-4-9-9-9H23c-5,0-9,4-9,9v66c0,5,4,9,9,9h38L82,69z"/>
		
			<linearGradient id="SVGID_1_" gradientUnits="userSpaceOnUse" x1="63.6598" y1="46.9703" x2="70.4798" y2="52.6503" gradientTransform="matrix(1 0 0 1 0 26)">
			<stop  offset="0" style="stop-color:#FFFFFF;stop-opacity:0.4"/>
			<stop  offset="1" style="stop-color:#FFFFFF;stop-opacity:0.2"/>
		</linearGradient>
		<path fill="url(#SVGID_1_)" d="M67,69h15L61,90V75C61,71.7,63.7,69,67,69z"/>
		<path fill="none" stroke="#FFFFFF" stroke-width="2" stroke-linecap="round" stroke-linejoin="round" d="M32,53h-2
			c-1.1,0-2-0.9-2-2V35"/>
		<path fill="none" stroke="#FFFFFF" stroke-width="2" stroke-linecap="round" stroke-linejoin="round" d="M43,53h-5
			c-2.2,0-4-1.8-4-4v-4c0-2.2,1.8-4,4-4h2c2.2,0,4,1.8,4,4v2"/>
		
			<line fill="none" stroke="#FFFFFF" stroke-width="2" stroke-linecap="round" stroke-linejoin="round" x1="34" y1="47" x2="44" y2="47"/>
		<path fill="none" stroke="#FFFFFF" stroke-width="2" stroke-linecap="round" stroke-linejoin="round" d="M50,47h3c1.7,0,3,1.3,3,3
			l0,0c0,1.7-1.3,3-3,3h-5.5"/>
		<path fill="none" stroke="#FFFFFF" stroke-width="2" stroke-linecap="round" stroke-linejoin="round" d="M53,47h-3
			c-1.7,0-3-1.3-3-3l0,0c0-1.7,1.3-3,3-3h3c1.7,0,3,1.3,3,3"/>
		<path fill="none" stroke="#FFFFFF" stroke-width="2" stroke-linecap="round" stroke-linejoin="round" d="M62,47h3c1.7,0,3,1.3,3,3
			l0,0c0,1.7-1.3,3-3,3h-5.5"/>
		<path fill="none" stroke="#FFFFFF" stroke-width="2" stroke-linecap="round" stroke-linejoin="round" d="M65,47h-3
			c-1.7,0-3-1.3-3-3l0,0c0-1.7,1.3-3,3-3h3c1.7,0,3,1.3,3,3"/>
		<path fill="#FFFFFF" d="M25.5,59c-1.5,0-4.8-0.4-4.8-4.2c0-1.4,0.1-2.8,0.3-4.3c0.2-1.1,0.3-2.1,0.3-3.2c0-1.4-0.1-2.9-3.3-3.1
			v-0.6c3.2-0.2,3.3-1.8,3.3-3.1c0-1.1-0.1-2.1-0.3-3.2c-0.2-1.4-0.3-2.8-0.3-4.3c0-3.8,3.3-4.2,4.8-4.2v0.4c-2.7,0.4-3,1.8-3,3.3
			c0,1.2,0.1,2.3,0.3,3.5c0.1,1,0.4,2.8,0.4,3.7c0.2,1.9-1.2,3.7-3.1,4v0.1c1.9,0.3,3.2,2.1,3.1,4c-0.1,1.2-0.2,2.5-0.4,3.7
			c-0.2,1.2-0.3,2.3-0.3,3.5c0,1.5,0.3,2.9,3,3.3V59z"/>
		<path fill="#FFFFFF" d="M70.5,29c1.6,0,4.8,0.4,4.8,4.2c0,1.4-0.1,2.8-0.3,4.3c-0.2,1.5-0.3,2.4-0.3,3.2c0,1.4,0.1,2.9,3.3,3.1
			v0.6c-3.2,0.2-3.3,1.8-3.3,3.1c0,1.1,0.1,2.1,0.3,3.2c0.2,1.4,0.3,2.8,0.3,4.3c0,3.8-3.3,4.2-4.8,4.2v-0.4c2.7-0.4,3-1.8,3-3.3
			c0-1.2-0.1-2.3-0.3-3.5c-0.1-1-0.4-2.8-0.4-3.7c-0.2-1.9,1.2-3.7,3.1-4v0c-1.9-0.3-3.2-2.1-3.1-4c0.1-1.2,0.2-2.5,0.4-3.7
			c0.2-1.2,0.3-2.3,0.3-3.5c0-1.5-0.3-2.9-3-3.3L70.5,29z"/>
	</g>
</g>
</svg>
