<?xml version="1.0" encoding="utf-8"?>
<!-- Generator: Adobe Illustrator 21.0.0, SVG Export Plug-In . SVG Version: 6.00 Build 0)  -->
<svg version="1.1" id="call-end" xmlns="http://www.w3.org/2000/svg" xmlns:xlink="http://www.w3.org/1999/xlink" x="0px" y="0px"
	 viewBox="0 0 14 14" style="enable-background:new 0 0 14 14;" xml:space="preserve">
<style type="text/css">
	.st0{fill:#FF5722;}
</style>
<title>14</title>
<g id="_14">
	<path class="st0" d="M4.1,6h5.7c1.3,0.1,2.4,0.8,3.1,1.9V8h-2.4c-0.1-0.4-0.4-1-1.5-1h-4C4.6,7,3.5,7,3.4,8H1V7.8l0.1-0.2
		c0.1-0.2,0.2-0.4,0.4-0.6C2.2,6.4,3.1,6,4.1,6 M4.1,5C2.9,5,1.7,5.5,0.8,6.4C0.5,6.7,0.2,7.1,0,7.6v0.8C0,8.7,0.3,9,0.6,9
		c0,0,0,0,0,0h3C3.9,9,4,9,4.2,8.8c0.1-0.1,0.2-0.3,0.2-0.5V8.3C4.3,8,4.5,8,5.1,8h4c0.3,0,0.5,0,0.6,0.3v0.1C9.6,8.7,9.9,9,10.3,9
		c0,0,0,0,0,0h3c0.2,0,0.4,0,0.5-0.2C14,8.7,14,8.5,14,8.3V7.6C13.2,6.1,11.6,5.1,9.9,5H4.1z"/>
</g>
</svg>
