<?xml version="1.0" encoding="utf-8"?>
<!-- Generator: Adobe Illustrator 21.0.0, SVG Export Plug-In . SVG Version: 6.00 Build 0)  -->
<svg version="1.1" id="call-stop" xmlns="http://www.w3.org/2000/svg" xmlns:xlink="http://www.w3.org/1999/xlink" x="0px" y="0px"
	 viewBox="0 0 14 14" style="enable-background:new 0 0 14 14;" xml:space="preserve">
<style type="text/css">
	.st0{fill:#61A232;}
	.st1{fill:#FF5722;}
</style>
<title>14</title>
<g id="_14">
	<g id="_14-2">
		<path class="st0" d="M4.1,4h5.7c1.3,0.1,2.4,0.8,3.1,1.9V6h-2.4c-0.1-0.4-0.4-1-1.5-1h-4C4.6,5,3.5,5,3.4,6H1V5.8l0.1-0.2
			c0.1-0.2,0.2-0.4,0.4-0.6C2.2,4.4,3.1,4,4.1,4 M4.1,3C2.9,3,1.7,3.5,0.8,4.4C0.5,4.7,0.2,5.1,0,5.6v0.8C0,6.7,0.3,7,0.6,7
			c0,0,0,0,0,0h3C3.9,7,4,7,4.2,6.8c0.1-0.1,0.2-0.3,0.2-0.5v0C4.3,6,4.5,6,5.1,6h4c0.3,0,0.5,0,0.6,0.3v0.1C9.6,6.7,9.9,7,10.3,7
			c0,0,0,0,0,0h3c0.2,0,0.4,0,0.5-0.2C14,6.7,14,6.5,14,6.3V5.6C13.2,4.1,11.6,3.1,9.9,3H4.1z"/>
	</g>
	<rect x="6.3" y="9.3" transform="matrix(0.7071 -0.7071 0.7071 0.7071 -4.6736 8.2429)" class="st1" width="2.6" height="0.9"/>
	<rect x="5.9" y="8.4" transform="matrix(0.7071 -0.7071 0.7071 0.7071 -5.0291 7.3716)" class="st1" width="0.9" height="2.6"/>
</g>
</svg>
