<?xml version="1.0" encoding="utf-8"?>
<!-- Generator: Adobe Illustrator 23.0.3, SVG Export Plug-In . SVG Version: 6.00 Build 0)  -->
<svg version="1.1" id="call-start" xmlns="http://www.w3.org/2000/svg" xmlns:xlink="http://www.w3.org/1999/xlink" x="0px" y="0px"
	 viewBox="0 0 16 16" style="enable-background:new 0 0 16 16;" xml:space="preserve">
<style type="text/css">
	.st0{fill:#808080;}
</style>
<title>16</title>
<g id="_16">
	<path class="st0" d="M14,1l0.7,0.7l0.2,0.2c0.4,2-0.2,4.1-1.6,5.5l-5.8,5.9C6.4,14.4,4.9,15,3.3,15c-0.5,0-0.9,0-1.3-0.1l-0.1-0.2
		L1.2,14l0,0l3-3l0,0l0.3,0.3l0,0c0.9,1,2.5,1,3.5,0l3.2-3.4l0.1-0.1c1-0.9,1-2.5,0-3.5L11,4L14,1L14,1 M14,0
		c-0.3,0-0.6,0.2-0.7,0.5l-3,3c-0.4,0.4-0.4,1,0,1.4l0.3,0.3c0.6,0.6,0.6,1.5,0,2.1l-3.4,3.3c-0.6,0.6-1.5,0.6-2.1,0l-0.4-0.4
		C4.5,10,4.3,9.9,4,9.9S3.5,10,3.3,10.3l-3,3c-0.4,0.4-0.4,1,0,1.4L1,15.4l0.4,0.4C2,15.9,2.6,16,3.2,16c1.8,0,3.6-0.7,4.9-2L14,8.1
		c1.8-1.8,2.4-4.3,1.8-6.7L15.4,1l-0.7-0.7C14.5,0.1,14.3,0,14,0L14,0z"/>
</g>
</svg>
