<?xml version="1.0" encoding="utf-8"?>
<!-- Generator: Adobe Illustrator 21.0.0, SVG Export Plug-In . SVG Version: 6.00 Build 0)  -->
<svg version="1.1" id="_通讯录" xmlns="http://www.w3.org/2000/svg" xmlns:xlink="http://www.w3.org/1999/xlink" x="0px" y="0px"
	 viewBox="0 0 14 14" style="enable-background:new 0 0 14 14;" xml:space="preserve">
<style type="text/css">
	.st0{fill:none;stroke:#7F8080;stroke-miterlimit:10;}
	.st1{fill:#7F8080;}
	.st2{fill:none;stroke:#68A228;stroke-miterlimit:10;}
	.st3{fill:none;stroke:#61A232;stroke-miterlimit:10;}
</style>
<title>14</title>
<g id="_14">
	<polyline class="st0" points="8,13.5 3.5,13.5 3.5,0.5 13.5,0.5 13.5,8 	"/>
	<path class="st1" d="M3,2v1H2V2H3 M4,1H1v3h3V1z"/>
	<path class="st1" d="M3,6v1H2V6H3 M4,5H1v3h3V5z"/>
	<path class="st1" d="M3,10v1H2v-1H3 M4,9H1v3h3V9z"/>
	<line class="st2" x1="9" y1="11.5" x2="14" y2="11.5"/>
	<line class="st3" x1="11.5" y1="9" x2="11.5" y2="14"/>
	<path class="st0" d="M8,6.8C6.6,6.9,5.5,8.1,5.5,9.5h5.1C10.6,8.1,9.4,6.9,8,6.8z"/>
	<ellipse class="st0" cx="8" cy="5.7" rx="1.2" ry="1.2"/>
</g>
</svg>
