<?xml version="1.0" encoding="utf-8"?>
<!-- Generator: Adobe Illustrator 23.0.3, SVG Export Plug-In . SVG Version: 6.00 Build 0)  -->
<svg version="1.1"
	 id="svg7384" xmlns:cc="http://creativecommons.org/ns#" xmlns:dc="http://purl.org/dc/elements/1.1/" xmlns:osb="http://www.openswatchbook.org/uri/2009/osb" xmlns:rdf="http://www.w3.org/1999/02/22-rdf-syntax-ns#" xmlns:svg="http://www.w3.org/2000/svg"
	 xmlns="http://www.w3.org/2000/svg" xmlns:xlink="http://www.w3.org/1999/xlink" x="0px" y="0px" viewBox="0 0 16 16"
	 style="enable-background:new 0 0 16 16;" xml:space="preserve">
<style type="text/css">
	.st0{fill:#808080;}
</style>
<path class="st0" d="M12,9v1h3V9H12z M10,11v1h5v-1H10z M8,13v1h7v-1H8z"/>
<g id="图层_2">
	<polygon class="st0" points="3.2,10.7 5.3,12.7 2.1,14.2 	"/>
</g>
<g>
	<path class="st0" d="M12.2,2.4l1.3,1.3l-8.7,8.5c-0.1,0.1-0.4,0.2-1,0.5c-0.4,0.2-0.9,0.4-1.4,0.6C2.8,13,3,12.5,3.2,12
		c0.3-0.5,0.4-0.9,0.5-0.9L12.2,2.4 M12.2,1l-9.3,9.5l0,0c-0.1,0.1-0.3,0.4-0.6,1.1c-0.3,0.6-0.7,1.5-1,2.5L1,15l0.9-0.3
		c0.9-0.3,1.7-0.6,2.5-1c0.6-0.3,1-0.5,1.1-0.6l0,0L15,3.8L12.2,1L12.2,1z"/>
</g>
</svg>
