<?xml version="1.0" encoding="utf-8"?>
<!-- Generator: Adobe Illustrator 23.0.3, SVG Export Plug-In . SVG Version: 6.00 Build 0)  -->
<svg version="1.1" id="图层_1" xmlns="http://www.w3.org/2000/svg" xmlns:xlink="http://www.w3.org/1999/xlink" x="0px" y="0px"
	 viewBox="0 0 16 16" style="enable-background:new 0 0 16 16;" xml:space="preserve">
<style type="text/css">
	.st0{fill:#808080;}
	.st1{fill:none;stroke:#808080;stroke-miterlimit:10;}
</style>
<g>
	<g>
		<path class="st0" d="M13.2,2.4l1.3,1.3l-8.7,8.5c-0.1,0.1-0.4,0.2-1,0.5c-0.4,0.2-0.9,0.4-1.4,0.6C3.8,13,4,12.5,4.2,12
			c0.3-0.5,0.4-0.9,0.5-0.9L13.2,2.4 M13.2,1l-0.4,0.4l-9,9.1l0,0c-0.1,0.1-0.3,0.4-0.6,1.1c-0.3,0.6-0.7,1.5-1,2.5L2,15l0.9-0.3
			c0.9-0.3,1.7-0.6,2.5-1c0.6-0.3,1-0.5,1.1-0.6l0,0L16,3.8L13.2,1L13.2,1z"/>
	</g>
	<path class="st0" d="M2,6H0c0.3,0.8,2,3.3,2.5,4C2.9,9.3,4.6,6.8,5,6H3"/>
</g>
<path class="st1" d="M2,8c0-3.3,2.7-6,6-6c1.4,0,2.6,0.5,3.6,1.2"/>
</svg>
