<?xml version="1.0" encoding="utf-8"?>
<!-- Generator: Adobe Illustrator 21.0.0, SVG Export Plug-In . SVG Version: 6.00 Build 0)  -->
<svg version="1.1" id="文件夹" xmlns="http://www.w3.org/2000/svg" xmlns:xlink="http://www.w3.org/1999/xlink" x="0px" y="0px"
	 viewBox="0 0 14 14" style="enable-background:new 0 0 14 14;" xml:space="preserve">
<style type="text/css">
	.st0{fill:none;stroke:#808080;stroke-miterlimit:10;}
</style>
<title>14</title>
<g id="_14">
	<polyline class="st0" points="14,13.5 3.5,13.5 3.5,5.5 7,5.5 9,7.5 13.5,7.5 13.5,14 	"/>
	<polyline class="st0" points="0.5,2 0.5,0.5 2,0.5 	"/>
	<polyline class="st0" points="5.5,2 6,2.5 7,2.5 	"/>
	<polyline class="st0" points="3,0.5 4,0.5 4.5,1 	"/>
	<line class="st0" x1="8.5" y1="2" x2="8.5" y2="3"/>
	<line class="st0" x1="10.5" y1="2" x2="10.5" y2="3"/>
	<line class="st0" x1="10.5" y1="4" x2="10.5" y2="5"/>
	<line class="st0" x1="0.5" y1="3" x2="0.5" y2="4"/>
	<line class="st0" x1="0.5" y1="5" x2="0.5" y2="6"/>
	<polyline class="st0" points="2,8.5 0.5,8.5 0.5,7 	"/>
</g>
</svg>
