<?xml version="1.0" encoding="utf-8"?>
<!-- Generator: Adobe Illustrator 21.1.0, SVG Export Plug-In . SVG Version: 6.00 Build 0)  -->
<svg version="1.1" id="文字编辑" xmlns="http://www.w3.org/2000/svg" xmlns:xlink="http://www.w3.org/1999/xlink" x="0px"
	 y="0px" viewBox="0 0 16 16" style="enable-background:new 0 0 16 16;" xml:space="preserve">
<style type="text/css">
	.st0{fill:#808080;}
</style>
<title>16</title>
<g id="_16">
	<path class="st0" d="M4.1,11.2v-0.6c-0.2,0.2-0.5,0.4-0.7,0.5c-0.3,0.1-0.6,0.2-0.8,0.2c-1.3,0-2.4-1-2.5-2.3c0,0,0-0.1,0-0.1
		c0-0.3,0.1-0.6,0.2-0.9c0.1-0.3,0.3-0.6,0.5-0.8C1,6.9,1.3,6.7,1.6,6.6c0.3-0.1,0.7-0.2,1-0.2c0.3,0,0.6,0.1,0.9,0.2
		C3.7,6.7,4,6.9,4.2,7.1V6.5H5v4.7L4.1,11.2z M1,8.8C1,9.3,1.1,9.7,1.5,10c0.3,0.3,0.7,0.5,1.2,0.5c0.4,0,0.8-0.2,1.1-0.5
		C4,9.7,4.2,9.3,4.2,8.9C4.2,8.4,4,8,3.7,7.7C3.4,7.4,3,7.2,2.6,7.2c-0.4,0-0.8,0.2-1.1,0.5C1.1,8,1,8.4,1,8.8z"/>
	<path class="st0" d="M6.9,10.6v0.6H6V5h0.8v2.1c0.4-0.4,1-0.7,1.6-0.7c0.3,0,0.7,0.1,1,0.2c0.3,0.1,0.6,0.3,0.8,0.6
		c0.2,0.2,0.4,0.5,0.5,0.8c0.1,0.3,0.2,0.6,0.2,0.9c0,1.3-1,2.4-2.3,2.5c0,0-0.1,0-0.1,0c-0.3,0-0.6-0.1-0.8-0.2
		C7.3,11,7.1,10.8,6.9,10.6z M6.9,8.9C6.8,9.3,7,9.7,7.3,10c0.3,0.3,0.7,0.5,1.1,0.5c0.4,0,0.9-0.2,1.1-0.5C9.9,9.7,10,9.3,10,8.8
		C10,8.4,9.8,8,9.5,7.7C9.2,7.4,8.8,7.2,8.4,7.2C8,7.2,7.5,7.4,7.3,7.7C7,8,6.8,8.4,6.9,8.9L6.9,8.9z"/>
	<path class="st0" d="M16,9.6c-0.2,0.5-0.5,1-0.9,1.3c-0.4,0.3-0.9,0.5-1.4,0.4c-0.3,0-0.7-0.1-1-0.2c-0.3-0.1-0.6-0.3-0.8-0.5
		c-0.2-0.2-0.4-0.5-0.5-0.8c-0.4-0.9-0.2-1.9,0.5-2.6c0.2-0.3,0.5-0.5,0.8-0.6c0.3-0.1,0.7-0.2,1-0.2c0.5,0,1,0.1,1.4,0.4
		c0.4,0.3,0.7,0.8,0.9,1.3h-0.9c-0.1-0.3-0.3-0.5-0.6-0.6c-0.3-0.1-0.5-0.2-0.8-0.2c-0.4,0-0.8,0.2-1.1,0.5
		c-0.3,0.3-0.4,0.7-0.4,1.2c0,0.4,0.2,0.8,0.4,1.2c0.5,0.5,1.3,0.6,1.9,0.2c0.2-0.2,0.4-0.4,0.6-0.7L16,9.6z"/>
	<rect y="8" class="st0" width="16" height="1"/>
</g>
</svg>
