<?xml version="1.0" encoding="utf-8"?>
<!-- Generator: Adobe Illustrator 21.0.0, SVG Export Plug-In . SVG Version: 6.00 Build 0)  -->
<svg version="1.1" id="控制" xmlns="http://www.w3.org/2000/svg" xmlns:xlink="http://www.w3.org/1999/xlink" x="0px" y="0px"
	 viewBox="0 0 14 14" style="enable-background:new 0 0 14 14;" xml:space="preserve">
<style type="text/css">
	.st0{fill:#808080;}
</style>
<title>14</title>
<g id="_14">
	<path class="st0" d="M0,0v14h14V0H0z M13,13H1V1h12V13z"/>
	<path class="st0" d="M6.6,3.5c0-0.2,0-0.3,0.1-0.5H2v1h4.7C6.6,3.8,6.6,3.7,6.6,3.5z"/>
	<path class="st0" d="M9.1,3c0.1,0.3,0.1,0.7,0,1H12V3H9.1z"/>
	<path class="st0" d="M7.9,4.9c-0.8,0-1.4-0.6-1.4-1.4c0-0.8,0.6-1.4,1.4-1.4s1.4,0.6,1.4,1.4v0C9.3,4.3,8.7,4.9,7.9,4.9z M7.9,2.9
		c-0.3,0-0.6,0.3-0.6,0.6c0,0.3,0.3,0.6,0.6,0.6c0.3,0,0.6-0.3,0.6-0.6S8.2,2.9,7.9,2.9C7.9,2.9,7.9,2.9,7.9,2.9z"/>
	<path class="st0" d="M3.7,6.5c0-0.2,0-0.3,0.1-0.5H2v1h1.8C3.7,6.8,3.7,6.7,3.7,6.5z"/>
	<path class="st0" d="M6.1,6c0.1,0.3,0.1,0.7,0,1H12V6H6.1z"/>
	<path class="st0" d="M4.9,7.9c-0.8,0-1.4-0.6-1.4-1.4s0.6-1.4,1.4-1.4c0.8,0,1.4,0.6,1.4,1.4S5.7,7.9,4.9,7.9
		C4.9,7.9,4.9,7.9,4.9,7.9z M4.9,5.9c-0.3,0-0.6,0.3-0.6,0.6s0.3,0.6,0.6,0.6s0.6-0.3,0.6-0.6l0,0C5.5,6.2,5.2,5.9,4.9,5.9z"/>
	<path class="st0" d="M7.6,10.5c0-0.2,0-0.4,0.1-0.5H2v1h5.7C7.6,10.8,7.6,10.7,7.6,10.5z"/>
	<path class="st0" d="M10.1,10c0.1,0.2,0.1,0.3,0.1,0.5c0,0.2,0,0.3-0.1,0.5H12v-1H10.1z"/>
	<path class="st0" d="M8.8,11.9c-0.8,0-1.4-0.6-1.4-1.4c0-0.8,0.6-1.4,1.4-1.4c0.8,0,1.4,0.6,1.4,1.4c0,0,0,0,0,0
		C10.2,11.3,9.6,11.9,8.8,11.9z M8.8,9.9c-0.3,0-0.6,0.3-0.6,0.6s0.3,0.6,0.6,0.6c0.3,0,0.6-0.3,0.6-0.6C9.4,10.2,9.2,9.9,8.8,9.9
		L8.8,9.9z"/>
</g>
</svg>
