<?xml version="1.0" encoding="utf-8"?>
<!-- Generator: Adobe Illustrator 21.0.0, SVG Export Plug-In . SVG Version: 6.00 Build 0)  -->
<svg version="1.1" id="邮件" xmlns="http://www.w3.org/2000/svg" xmlns:xlink="http://www.w3.org/1999/xlink" x="0px" y="0px"
	 viewBox="0 0 14 14" style="enable-background:new 0 0 14 14;" xml:space="preserve">
<style type="text/css">
	.st0{fill:none;stroke:#808080;stroke-miterlimit:10;}
	.st1{fill:#EA572A;}
</style>
<title>14</title>
<g id="_14">
	<polyline class="st0" points="13.5,7 13.5,2.5 0.5,2.5 0.5,11.5 6,11.5 	"/>
	<line class="st0" x1="6.5" y1="7.5" x2="0.5" y2="11.5"/>
	<polyline class="st0" points="13.5,2.5 7,7.9 0.5,2.5 	"/>
	<rect x="10.1" y="8.1" transform="matrix(0.7071 -0.7071 0.7071 0.7071 -4.3509 10.503)" class="st1" width="0.8" height="4.9"/>
	<rect x="8.1" y="10.1" transform="matrix(0.7071 -0.7071 0.7071 0.7071 -4.3459 10.5009)" class="st1" width="4.9" height="0.8"/>
	<path class="st1" d="M10.5,14C8.6,14,7,12.4,7,10.5S8.6,7,10.5,7S14,8.6,14,10.5S12.4,14,10.5,14z M10.5,7.8C9,7.8,7.8,9,7.8,10.5
		s1.2,2.7,2.7,2.7s2.7-1.2,2.7-2.7l0,0C13.2,9,12,7.8,10.5,7.8z"/>
</g>
</svg>
