<?xml version="1.0" encoding="utf-8"?>
<!-- Generator: Adobe Illustrator 21.0.0, SVG Export Plug-In . SVG Version: 6.00 Build 0)  -->
<svg version="1.1" id="音频" xmlns="http://www.w3.org/2000/svg" xmlns:xlink="http://www.w3.org/1999/xlink" x="0px" y="0px"
	 viewBox="0 0 14 14" style="enable-background:new 0 0 14 14;" xml:space="preserve">
<style type="text/css">
	.st0{fill:none;stroke:#808080;stroke-miterlimit:10;}
</style>
<title>16</title>
<g id="向右">
	<g id="_16">
		<path class="st0" d="M6,6.5L6,6.5c0-2.2,1.8-4,4-4c0.1,0,0.2,0,0.2,0h3"/>
		<path class="st0" d="M13.2,10.5h-2.9c-0.8,0-1.6-0.2-2.3-0.6"/>
		<path class="st0" d="M6,6.5L6,6.5c0,2.2-1.8,4-4,4c-0.1,0-0.2,0-0.2,0H0"/>
		<path class="st0" d="M0,2.5h1.8c0.8,0,1.6,0.2,2.2,0.7"/>
		<line class="st0" x1="13.6" y1="10.9" x2="11.5" y2="8.7"/>
		<line class="st0" x1="11.5" y1="12.3" x2="13.6" y2="10.1"/>
		<line class="st0" x1="13.6" y1="2.8" x2="11.5" y2="0.7"/>
		<line class="st0" x1="11.5" y1="4.3" x2="13.6" y2="2.2"/>
	</g>
</g>
</svg>
