<?xml version="1.0" encoding="utf-8"?>
<!-- Generator: Adobe Illustrator 21.0.0, SVG Export Plug-In . SVG Version: 6.00 Build 0)  -->
<svg version="1.1" id="结" xmlns="http://www.w3.org/2000/svg" xmlns:xlink="http://www.w3.org/1999/xlink" x="0px" y="0px"
	 viewBox="0 0 14 14" style="enable-background:new 0 0 14 14;" xml:space="preserve">
<style type="text/css">
	.st0{fill:#61A232;}
	.st1{fill:#808080;}
</style>
<title>14</title>
<g id="_14">
	<polygon class="st0" points="7.7,5 6.3,5 11.3,10 12,9.3 	"/>
	<polygon class="st0" points="6.3,5 2,9.3 2.7,10 7.7,5 	"/>
	<path class="st1" d="M3,0v6h8V0H3z M10,5H4V1h6V5z"/>
	<path class="st1" d="M0,10v4h6v-4H0z M5,13H1v-2h4V13z"/>
	<path class="st1" d="M8,10v4h6v-4H8z M13,13H9v-2h4V13z"/>
	<polygon class="st0" points="1,8 1,11 4,11 	"/>
	<polygon class="st0" points="13,8 13,11 10,11 	"/>
</g>
</svg>
