<?xml version="1.0" encoding="utf-8"?>
<!-- Generator: Adobe Illustrator 21.0.0, SVG Export Plug-In . SVG Version: 6.00 Build 0)  -->
<svg version="1.1" id="用户" xmlns="http://www.w3.org/2000/svg" xmlns:xlink="http://www.w3.org/1999/xlink" x="0px" y="0px"
	 viewBox="0 0 14 14" style="enable-background:new 0 0 14 14;" xml:space="preserve">
<style type="text/css">
	.st0{fill:#808080;}
</style>
<title>14</title>
<g id="_14">
	<path class="st0" d="M7,0C4.8,0,3,1.8,3,4s1.8,4,4,4s4-1.8,4-4S9.2,0,7,0z M7,7C5.3,7,4,5.7,4,4s1.3-3,3-3s3,1.3,3,3S8.7,7,7,7z"/>
	<path class="st0" d="M1.1,14C1,13.7,1,13.4,1,13.1c0-2.9,2.7-5.3,6-5.3s6,2.3,6,5.3c0,0.3,0,0.6-0.1,0.9h1c0.1-0.3,0.1-0.6,0.1-0.9
		C14,9.7,10.9,7,7,7s-7,2.7-7,6.1c0,0.3,0,0.6,0.1,0.9H1.1z"/>
	<rect y="13" class="st0" width="14" height="1"/>
</g>
</svg>
