<?xml version="1.0" encoding="utf-8"?>
<!-- Generator: Adobe Illustrator 21.0.0, SVG Export Plug-In . SVG Version: 6.00 Build 0)  -->
<svg version="1.1" id="stock_todo" xmlns="http://www.w3.org/2000/svg" xmlns:xlink="http://www.w3.org/1999/xlink" x="0px" y="0px"
	 viewBox="0 0 14 14" style="enable-background:new 0 0 14 14;" xml:space="preserve">
<style type="text/css">
	.st0{fill:#808080;}
</style>
<title>16</title>
<path class="st0" d="M4,0v3h6V0H4z M9,2H5V1h4V2z"/>
<polygon class="st0" points="9,1 9,2 12,2 12,13 2,13 2,2 5,2 5,1 1,1 1,14 13,14 13,1 "/>
<rect x="6" y="4" class="st0" width="4" height="1"/>
<ellipse class="st0" cx="4.4" cy="4.8" rx="0.9" ry="0.9"/>
<rect x="6" y="7" class="st0" width="4" height="1"/>
<ellipse class="st0" cx="4.4" cy="7.4" rx="0.9" ry="0.9"/>
<rect x="6" y="10" class="st0" width="4" height="1"/>
<ellipse class="st0" cx="4.4" cy="10.4" rx="0.9" ry="0.9"/>
</svg>
