<?xml version="1.0" encoding="utf-8"?>
<!-- Generator: Adobe Illustrator 21.0.0, SVG Export Plug-In . SVG Version: 6.00 Build 0)  -->
<svg version="1.1" id="文字" xmlns="http://www.w3.org/2000/svg" xmlns:xlink="http://www.w3.org/1999/xlink" x="0px" y="0px"
	 viewBox="0 0 14 14" style="enable-background:new 0 0 14 14;" xml:space="preserve">
<style type="text/css">
	.st0{fill:#808080;}
	.st1{fill:#61A232;}
</style>
<title>14</title>
<g id="_14">
	<path class="st0" d="M0,7.1l1.9-5h0.7l2,5H3.9L3.3,5.6H1.2L0.7,7.1H0z M1.4,5h1.7L2.6,3.6c-0.2-0.4-0.3-0.8-0.3-1
		C2.2,2.9,2.1,3.3,2,3.5L1.4,5z"/>
	<path class="st0" d="M5.1,7.1v-5H7c0.3,0,0.6,0,0.9,0.2c0.2,0.1,0.4,0.3,0.5,0.5c0.1,0.2,0.2,0.4,0.2,0.7c0,0.2-0.1,0.4-0.2,0.6
		C8.4,4.1,8.2,4.3,8,4.4c0.3,0.1,0.5,0.2,0.7,0.4c0.2,0.2,0.2,0.5,0.2,0.8c0,0.2-0.1,0.4-0.1,0.7C8.7,6.4,8.6,6.6,8.4,6.7
		C8.2,6.9,8.1,6.9,7.8,7C7.6,7.1,7.3,7.1,7,7.1L5.1,7.1z M5.8,4.2h1.1c0.2,0,0.4,0,0.6-0.1c0.2,0,0.3-0.1,0.4-0.3C8,3.7,8,3.6,8,3.4
		C8,3.3,8,3.1,7.9,3C7.8,2.9,7.7,2.8,7.5,2.7C7.3,2.7,7,2.7,6.8,2.7h-1L5.8,4.2z M5.8,6.5H7c0.1,0,0.3,0,0.4,0
		c0.1,0,0.3-0.1,0.4-0.1C8,6.2,8.1,6.1,8.1,6c0.1-0.1,0.1-0.3,0.1-0.4c0-0.2,0-0.3-0.1-0.5C8,5,7.8,4.9,7.7,4.8
		c-0.2,0-0.5-0.1-0.7,0H5.8V6.5z"/>
	<path class="st0" d="M13.3,5.3L14,5.5c-0.1,0.5-0.4,0.9-0.7,1.2C12.9,7,12.4,7.2,12,7.1c-0.5,0-0.9-0.1-1.3-0.3
		C10.3,6.6,10,6.2,9.9,5.9C9.7,5.4,9.6,5,9.6,4.5c0-0.5,0.1-0.9,0.3-1.3c0.2-0.4,0.5-0.7,0.8-0.9C11.1,2.1,11.6,2,12,2
		c0.4,0,0.9,0.1,1.3,0.4C13.6,2.6,13.8,3,14,3.5l-0.6,0.2c-0.1-0.3-0.3-0.6-0.5-0.8c-0.2-0.2-0.5-0.3-0.8-0.3c-0.4,0-0.7,0.1-1,0.3
		c-0.3,0.2-0.4,0.4-0.5,0.7c-0.1,0.3-0.2,0.7-0.2,1c0,0.4,0.1,0.8,0.2,1.1C10.6,6,10.8,6.2,11,6.4c0.3,0.2,0.5,0.2,0.8,0.2
		c0.3,0,0.7-0.1,0.9-0.3C13.1,6,13.3,5.7,13.3,5.3z"/>
	<rect x="4.1" y="7.4" transform="matrix(0.7071 -0.7071 0.7071 0.7071 -5.6517 6.1192)" class="st1" width="1" height="5"/>
	<rect x="4.2" y="7.6" transform="matrix(0.7071 -0.7071 0.7071 0.7071 -3.044 8.8771)" class="st1" width="10" height="1"/>
</g>
</svg>
