<?xml version="1.0" encoding="utf-8"?>
<!-- Generator: Adobe Illustrator 25.0.0, SVG Export Plug-In . SVG Version: 6.00 Build 0)  -->
<svg version="1.1" id="图层_1" xmlns="http://www.w3.org/2000/svg" xmlns:xlink="http://www.w3.org/1999/xlink" x="0px" y="0px"
	 viewBox="0 0 16 16" style="enable-background:new 0 0 16 16;" xml:space="preserve">
<style type="text/css">
	.st0{opacity:0.75;}
	.st1{fill:none;stroke:#1F2022;stroke-miterlimit:10;}
	.st2{fill:none;stroke:#1F2022;stroke-linecap:round;stroke-miterlimit:10;}
	.st3{fill:#1F2022;}
</style>
<g id="图层_1_1_" class="st0">
	<path class="st1" d="M11,12.5H5c-0.3,0-0.5-0.2-0.5-0.5V4c0-0.3,0.2-0.5,0.5-0.5h3.3c0.1,0,0.3,0.1,0.4,0.1l2.7,2.7
		c0.1,0.1,0.1,0.2,0.1,0.4V12C11.5,12.3,11.3,12.5,11,12.5z"/>
	<path class="st1" d="M8.5,3.5V6c0,0.3,0.2,0.5,0.5,0.5h2.5"/>
	<line class="st2" x1="6.5" y1="10.5" x2="9.5" y2="10.5"/>
	<line class="st2" x1="6.5" y1="8.5" x2="9.5" y2="8.5"/>
</g>
<g id="图层_2_1_" class="st0">
	<g>
		<path class="st3" d="M8,1c3.9,0,7,3.1,7,7s-3.1,7-7,7s-7-3.1-7-7S4.1,1,8,1 M8,0C3.6,0,0,3.6,0,8s3.6,8,8,8s8-3.6,8-8S12.4,0,8,0
			L8,0z"/>
	</g>
</g>
</svg>
