<?xml version="1.0" encoding="utf-8"?>
<!-- Generator: Adobe Illustrator 17.1.0, SVG Export Plug-In . SVG Version: 6.00 Build 0)  -->
<!DOCTYPE svg PUBLIC "-//W3C//DTD SVG 1.1//EN" "http://www.w3.org/Graphics/SVG/1.1/DTD/svg11.dtd">
<svg version="1.1"
	 id="svg2" inkscape:export-filename="/media/Data/Main/Visuals/Icons/Numix/Desktop/repos/numix-wiki/Gjorgi/Numix-folders/48/New/folder-144.png" xmlns:svg="http://www.w3.org/2000/svg" xmlns:sodipodi="http://sodipodi.sourceforge.net/DTD/sodipodi-0.dtd" xmlns:inkscape="http://www.inkscape.org/namespaces/inkscape" xmlns:dc="http://purl.org/dc/elements/1.1/" xmlns:cc="http://creativecommons.org/ns#" xmlns:rdf="http://www.w3.org/1999/02/22-rdf-syntax-ns#" inkscape:export-ydpi="270" inkscape:export-xdpi="270" sodipodi:docname="user-home.svg" inkscape:version="0.48.4 r9939"
	 xmlns="http://www.w3.org/2000/svg" xmlns:xlink="http://www.w3.org/1999/xlink" x="0px" y="0px" width="48px" height="48px"
	 viewBox="0 0 48 48" enable-background="new 0 0 48 48" xml:space="preserve">
<polygon opacity="8.000000e-002" points="2,45.4 2,17.4 4.6,17.4 4.6,4.6 41.1,4.6 45.4,8.9 45.4,17.4 48,17.4 48,45.4 "/>
<polygon opacity="9.999999e-002" points="3,44.4 3,18.4 5.6,18.4 5.6,5.6 40.7,5.6 44.4,9.3 44.4,18.4 47,18.4 47,44.4 "/>
<polygon opacity="0.2" points="2,43.4 2,17.4 4.6,17.4 4.6,4.6 39.7,4.6 43.4,8.3 43.4,17.4 46,17.4 46,43.4 "/>
<polygon fill="#F57F17" points="3,42.4 3,18.4 5.6,18.4 5.6,5.6 39.2,5.6 42.4,8.8 42.4,18.4 45,18.4 45,42.4 "/>
<g>
	<polygon fill="#E0E0E0" points="39,6.1 6.1,6.1 6.1,18.3 6.1,21.6 41.9,21.6 41.9,18.3 41.9,9 	"/>
	<rect x="6.1" y="18" opacity="0.2" enable-background="new    " width="35.9" height="0.9"/>
	
		<linearGradient id="rect2990_1_" gradientUnits="userSpaceOnUse" x1="-49" y1="-2.7147" x2="-49" y2="-48.875" gradientTransform="matrix(0.5 0 0 -0.5 48.5 17.5)">
		<stop  offset="0" style="stop-color:#FADD60"/>
		<stop  offset="0.9946" style="stop-color:#F5A816"/>
	</linearGradient>
	<polyline id="rect2990_2_" fill="url(#rect2990_1_)" points="44.5,18.9 44.5,41.9 3.5,41.9 3.5,18.9 	"/>
	<path id="rect3004_2_" inkscape:connector-curvature="0" opacity="0.25" fill="#FDEFBA" enable-background="new    " d="M3.5,18.9
		v5.2c0-1.8,1.2-3.3,2.7-3.3h35.5c1.5,0,2.7,1.5,2.7,3.3v-5.2L3.5,18.9L3.5,18.9z"/>
	<rect x="10.3" y="15.6" fill="#9E9E9E" width="27.3" height="1.7"/>
	<rect x="10.3" y="12.2" fill="#9E9E9E" width="27.3" height="1.7"/>
	<rect x="10.3" y="8.8" fill="#9E9E9E" width="23.9" height="1.7"/>
	<polygon fill="#FFFFFF" points="41.9,9 39,9 39,6.1 	"/>
	<polygon opacity="0.2" enable-background="new    " points="39,9 41.9,9 41.9,11.9 	"/>
</g>
</svg>
