<?xml version="1.0" encoding="utf-8"?>
<!-- Generator: Adobe Illustrator 21.0.0, SVG Export Plug-In . SVG Version: 6.00 Build 0)  -->
<svg version="1.1" id="图层_39" xmlns="http://www.w3.org/2000/svg" xmlns:xlink="http://www.w3.org/1999/xlink" x="0px" y="0px"
	 viewBox="0 0 48 48" style="enable-background:new 0 0 48 48;" xml:space="preserve">
<style type="text/css">
	.st0{opacity:0.2;enable-background:new    ;}
	.st1{opacity:0.08;enable-background:new    ;}
	.st2{opacity:0.1;enable-background:new    ;}
	.st3{fill:#F57F17;}
	.st4{fill:url(#SVGID_1_);}
	.st5{fill:url(#rect2990_1_);}
	.st6{opacity:0.25;fill:#FDEFBA;enable-background:new    ;}
	.st7{opacity:0.1;fill:#E65100;enable-background:new    ;}
	.st8{opacity:0.05;fill:#E65100;enable-background:new    ;}
	.st9{fill:#F57F17;fill-opacity:0.39;}
</style>
<title>folder-pictures48</title>
<g id="_48">
	<polygon class="st0" points="2,43.5 2,13 5,13 5,4.5 16,4.5 18.5,7.5 43,7.5 43,13 46,13 46,43.5 	"/>
	<polygon class="st1" points="2,45.5 2,13 5,13 5,4.5 17.4,4.5 19.9,7.5 45,7.5 45,13 48,13 48,45.5 	"/>
	<polygon class="st2" points="3,44.5 3,14 6,14 6,5.5 17,5.5 19.5,8.5 44,8.5 44,14 47,14 47,44.5 	"/>
	<polygon class="st3" points="3,42.5 3,14 6,14 6,5.5 15.5,5.5 18,8.5 42,8.5 42,14 45,14 45,42.5 	"/>
	
		<linearGradient id="SVGID_1_" gradientUnits="userSpaceOnUse" x1="24" y1="1691.124" x2="24" y2="1680.6541" gradientTransform="matrix(1 0 0 1 0 -1674.72)">
		<stop  offset="0" style="stop-color:#F57C00"/>
		<stop  offset="0.16" style="stop-color:#F58F09"/>
		<stop  offset="0.36" style="stop-color:#F59D11"/>
		<stop  offset="0.6" style="stop-color:#F5A515"/>
		<stop  offset="0.99" style="stop-color:#F5A816"/>
	</linearGradient>
	<path class="st4" d="M41.5,9h-24L15,6H6.5v9c0,0.8,0.6,1.4,1.3,1.4c0,0,0,0,0.1,0h32.2c0.7,0,1.4,0.1,1.4-0.7
		C41.5,15.7,41.5,9,41.5,9z"/>
	
		<linearGradient id="rect2990_1_" gradientUnits="userSpaceOnUse" x1="24" y1="1689.25" x2="24" y2="1716.6899" gradientTransform="matrix(1 0 0 1 0 -1674.72)">
		<stop  offset="0" style="stop-color:#FADD60"/>
		<stop  offset="0.99" style="stop-color:#F5A816"/>
	</linearGradient>
	<rect id="rect2990" x="3.5" y="14.5" class="st5" width="41" height="27.5"/>
	<path id="rect3004" class="st6" d="M3.5,14.5v5c-0.1-1.6,1.1-3,2.7-3.2h35.6c1.6,0.2,2.8,1.6,2.7,3.2v-5H3.5z"/>
	<path id="path3801" class="st7" d="M6.5,6v3.5c0-1.4,0.4-2,1-2h7c0.8-0.1,1.6,0.2,2.2,0.6c0.3,0.2,0.6,0.4,1,0.7L15,6H6.5z"/>
	<polygon class="st7" points="17.8,8.8 41.8,8.8 41.8,10.9 19.9,10.9 	"/>
	<rect x="6.2" y="13" class="st8" width="35.3" height="1.5"/>
</g>
<g id="图片">
	<circle class="st9" cx="29" cy="25.5" r="2.5"/>
	<path class="st9" d="M13,21v14h22V21H13z M33.5,22.5v11l0,0L28.4,30l-3.7,2.2L20,26.6l-5.5,6.9v-11H33.5z"/>
</g>
</svg>
