<?xml version="1.0" encoding="utf-8"?>
<!-- Generator: Adobe Illustrator 21.0.0, SVG Export Plug-In . SVG Version: 6.00 Build 0)  -->
<svg version="1.1" id="图层_39" xmlns="http://www.w3.org/2000/svg" xmlns:xlink="http://www.w3.org/1999/xlink" x="0px" y="0px"
	 viewBox="0 0 48 48" style="enable-background:new 0 0 48 48;" xml:space="preserve">
<style type="text/css">
	.st0{opacity:0.39;fill:#F57F17;enable-background:new    ;}
	.st1{opacity:0.2;enable-background:new    ;}
	.st2{opacity:0.08;enable-background:new    ;}
	.st3{opacity:0.1;enable-background:new    ;}
	.st4{fill:#F57F17;}
	.st5{fill:url(#SVGID_1_);}
	.st6{fill:url(#rect2990_1_);}
	.st7{opacity:0.25;fill:#FDEFBA;enable-background:new    ;}
	.st8{opacity:0.1;fill:#E65100;enable-background:new    ;}
	.st9{opacity:0.05;fill:#E65100;enable-background:new    ;}
</style>
<symbol  id="新建符号" viewBox="-120 -121.6 240 243.2">
	<path class="st0" d="M-20.4,53.8C-49.6,32-55.7-9.3-33.9-38.6c4.1-5.5,9-10.3,14.5-14.2l-18.2-30.8c-20.5,13.7-35.3,34.5-41.6,58.4
		C-70.9-19.5-66-10.1-66,0s-5,19.6-13.4,25.4c6.2,24.3,21.1,45.4,41.8,59.4L-20.4,53.8z"/>
	<path class="st0" d="M-8-59.2c33.4-14.7,72.3,0.4,87,33.8c2.7,6.1,4.4,12.6,5.2,19.2L120-6.6c-1.8-24.3-12.3-47.1-29.6-64.2
		c-4.2,2.1-8.9,3.2-13.6,3.2c-16.3,0-29.8-12.7-30.6-29c-8.9-2.5-18-3.8-27.2-3.8c-15.6,0-31,3.6-45,10.6L-8-59.2z"/>
	<path class="st0" d="M77,67.8c5.1,0.1,10.1,1.3,14.6,3.6c17-17.5,27.1-40.6,28.4-65L84.2,6.8c-3.1,33.9-31.5,59.9-65.6,59.8
		c-9.6,0-19.1-2.1-27.8-6.2l-17.4,31.2c14,7,29.5,10.6,45.2,10.6c9.3,0,18.6-1.3,27.6-3.8C46.4,81.5,60.1,67.9,77,67.8z"/>
	<path class="st0" d="M77,75.6c12.7,0,23,10.3,23,23s-10.3,23-23,23s-23-10.3-23-23S64.3,75.6,77,75.6L77,75.6z"/>
	<path class="st0" d="M76.6-121.6c12.7,0,23,10.3,23,23s-10.3,23-23,23s-23-10.3-23-23S63.9-121.6,76.6-121.6z"/>
	<path class="st0" d="M-97-22.8c12.7,0,23,10.3,23,23s-10.3,23-23,23s-23-10.3-23-23S-109.7-22.8-97-22.8z"/>
</symbol>
<title>048folder-ubuntu</title>
<g id="_48">
	<polygon class="st1" points="2,43.5 2,13 5,13 5,4.5 16,4.5 18.5,7.5 43,7.5 43,13 46,13 46,43.5 	"/>
	<polygon class="st2" points="2,45.5 2,13 5,13 5,4.5 17.4,4.5 19.9,7.5 45,7.5 45,13 48,13 48,45.5 	"/>
	<polygon class="st3" points="3,44.5 3,14 6,14 6,5.5 17,5.5 19.5,8.5 44,8.5 44,14 47,14 47,44.5 	"/>
	<polygon class="st4" points="3,42.5 3,14 6,14 6,5.5 15.5,5.5 18,8.5 42,8.5 42,14 45,14 45,42.5 	"/>
	
		<linearGradient id="SVGID_1_" gradientUnits="userSpaceOnUse" x1="24" y1="1690.4041" x2="24" y2="1679.934" gradientTransform="matrix(1 0 0 1 0 -1674)">
		<stop  offset="0" style="stop-color:#F57C00"/>
		<stop  offset="0.16" style="stop-color:#F58F09"/>
		<stop  offset="0.36" style="stop-color:#F59D11"/>
		<stop  offset="0.6" style="stop-color:#F5A515"/>
		<stop  offset="0.99" style="stop-color:#F5A816"/>
	</linearGradient>
	<path class="st5" d="M41.5,9h-24L15,6H6.5v9c0,0.8,0.6,1.4,1.3,1.4c0,0,0,0,0.1,0h32.2c0.7,0,1.4,0.1,1.4-0.7
		C41.5,15.7,41.5,9,41.5,9z"/>
	
		<linearGradient id="rect2990_1_" gradientUnits="userSpaceOnUse" x1="24" y1="1688.53" x2="24" y2="1715.97" gradientTransform="matrix(1 0 0 1 0 -1674)">
		<stop  offset="0" style="stop-color:#FADD60"/>
		<stop  offset="0.99" style="stop-color:#F5A816"/>
	</linearGradient>
	<rect id="rect2990" x="3.5" y="14.5" class="st6" width="41" height="27.5"/>
	<path id="rect3004" class="st7" d="M3.5,14.5v5c-0.1-1.6,1.1-3,2.7-3.2h35.6c1.6,0.2,2.8,1.6,2.7,3.2v-5H3.5z"/>
	<path id="path3801" class="st8" d="M6.5,6v3.5c0-1.4,0.4-2,1-2h7c0.8-0.1,1.6,0.2,2.2,0.6c0.3,0.2,0.6,0.4,1,0.7L15,6H6.5z"/>
	<polygon class="st8" points="17.8,8.8 41.8,8.8 41.8,10.9 19.9,10.9 	"/>
	<rect x="6.2" y="13" class="st9" width="35.3" height="1.5"/>
</g>
<use xlink:href="#新建符号"  width="240" height="243.2" x="-120" y="-121.6" transform="matrix(0.08 0 0 0.08 23.6 28.728)" style="overflow:visible;"/>
</svg>
