<?xml version="1.0" encoding="utf-8"?>
<!-- Generator: Adobe Illustrator 17.1.0, SVG Export Plug-In . SVG Version: 6.00 Build 0)  -->
<!DOCTYPE svg PUBLIC "-//W3C//DTD SVG 1.1//EN" "http://www.w3.org/Graphics/SVG/1.1/DTD/svg11.dtd">
<svg version="1.1"
	 id="svg2" inkscape:export-filename="/media/Data/Main/Visuals/Icons/Numix/Desktop/repos/numix-wiki/Gjorgi/Numix-folders/48/New/folder-144.png" xmlns:svg="http://www.w3.org/2000/svg" xmlns:sodipodi="http://sodipodi.sourceforge.net/DTD/sodipodi-0.dtd" xmlns:inkscape="http://www.inkscape.org/namespaces/inkscape" xmlns:dc="http://purl.org/dc/elements/1.1/" xmlns:cc="http://creativecommons.org/ns#" xmlns:rdf="http://www.w3.org/1999/02/22-rdf-syntax-ns#" inkscape:export-ydpi="270" inkscape:export-xdpi="270" sodipodi:docname="user-home.svg" inkscape:version="0.48.4 r9939"
	 xmlns="http://www.w3.org/2000/svg" xmlns:xlink="http://www.w3.org/1999/xlink" x="0px" y="0px" width="48px" height="48px"
	 viewBox="0 0 48 48" enable-background="new 0 0 48 48" xml:space="preserve">
<sodipodi:namedview  id="base" inkscape:window-maximized="1" pagecolor="#ffffff" borderopacity="1.0" inkscape:zoom="5.6530318" bordercolor="#666666" showgrid="true" inkscape:cx="35.66124" inkscape:cy="21.321632" showguides="true" inkscape:pageshadow="2" inkscape:pageopacity="0.0" inkscape:window-height="1023" inkscape:current-layer="layer1" inkscape:guide-bbox="true" inkscape:window-y="28" inkscape:window-x="0" inkscape:window-width="1920" inkscape:document-units="px">
	<inkscape:grid  type="xygrid" enabled="true" visible="true" id="grid2985" snapvisiblegridlinesonly="true" empspacing="5">
		</inkscape:grid>
</sodipodi:namedview>
<polygon fill="#FF9800" points="1.5,25.9 1.5,9.5 3.1,9.5 3.1,4.8 8.7,4.8 10.2,6.4 24.1,6.4 24.1,9.5 25.7,9.5 25.7,25.9 "/>
<path fill="#FFB74D" d="M23.7,10c0-1.2,0-3.1,0-3.1H10.1L8.6,5.3h-5v1.6v1.6v1.6H2v15.4h23.3V10H23.7L23.7,10z"/>
<polygon opacity="8.000000e-002" enable-background="new    " points="18.3,43.2 18.3,22.8 19.9,22.8 19.9,18.1 28.3,18.1 
	29.9,19.7 44.9,19.7 44.9,22.8 46.5,22.8 46.5,43.2 "/>
<polygon opacity="9.999999e-002" enable-background="new    " points="19.3,42.2 19.3,23.8 20.9,23.8 20.9,19.1 27.9,19.1 
	29.4,20.7 43.9,20.7 43.9,23.8 45.5,23.8 45.5,42.2 "/>
<polygon opacity="0.2" enable-background="new    " points="18.3,41.2 18.3,22.8 19.9,22.8 19.9,18.1 26.9,18.1 28.4,19.7 
	42.9,19.7 42.9,22.8 44.5,22.8 44.5,41.2 "/>
<polygon fill="#F57F17" points="19.3,40.2 19.3,23.8 20.9,23.8 20.9,19.1 26.5,19.1 28,20.7 41.9,20.7 41.9,23.8 43.5,23.8 
	43.5,40.2 "/>
<linearGradient id="SVGID_1_" gradientUnits="userSpaceOnUse" x1="31.4" y1="88.6867" x2="31.4" y2="94.5144" gradientTransform="matrix(1 0 0 -1 0 114)">
	<stop  offset="0" style="stop-color:#F57C00"/>
	<stop  offset="0.1638" style="stop-color:#F58F09"/>
	<stop  offset="0.3598" style="stop-color:#F59D11"/>
	<stop  offset="0.5982" style="stop-color:#F5A515"/>
	<stop  offset="0.9946" style="stop-color:#F5A816"/>
</linearGradient>
<path fill="url(#SVGID_1_)" d="M41.5,21H27.8l-1.5-1.6h-5V21v1.6v1.9c0,0.4,0.4,0.8,0.8,0.8h18.6c0.4,0,0.8,0,0.8-0.4
	C41.5,24.2,41.5,21,41.5,21z"/>
<linearGradient id="rect2990_1_" gradientUnits="userSpaceOnUse" x1="31.35" y1="89.8589" x2="31.35" y2="74.3244" gradientTransform="matrix(1 0 0 -1 0 114)">
	<stop  offset="0" style="stop-color:#FADD60"/>
	<stop  offset="0.9946" style="stop-color:#F5A816"/>
</linearGradient>
<polyline id="rect2990_2_" fill="url(#rect2990_1_)" points="43,24.1 43,39.7 19.7,39.7 19.7,24.1 "/>
<path id="rect3004_1_" inkscape:connector-curvature="0" opacity="0.25" fill="#FDEFBA" enable-background="new    " d="M19.7,24.1
	v3c0-1,0.7-1.9,1.6-1.9h20.2c0.9,0,1.6,0.8,1.6,1.9v-3H19.7z"/>
<path id="path3801_1_" inkscape:connector-curvature="0" opacity="0.1" fill="#E65100" enable-background="new    " d="M21.3,19.5
	c0,0,0,0.4,0,1.2v0.8c0-0.8,0.3-1.2,0.7-1.2h4c0.3,0,0.6,0,1.3,0.4c0.2,0.1,0.4,0.2,0.6,0.4l-1.5-1.6L21.3,19.5L21.3,19.5L21.3,19.5
	z"/>
<polygon opacity="0.1" fill="#E65100" enable-background="new    " points="27.8,21 41.5,21 41.5,22.2 29,22.2 "/>
<rect x="21.3" y="23.5" opacity="5.000000e-002" fill="#E65100" enable-background="new    " width="20.2" height="0.7"/>
</svg>
