<?xml version="1.0" encoding="utf-8"?>
<!-- Generator: Adobe Illustrator 17.1.0, SVG Export Plug-In . SVG Version: 6.00 Build 0)  -->
<!DOCTYPE svg PUBLIC "-//W3C//DTD SVG 1.1//EN" "http://www.w3.org/Graphics/SVG/1.1/DTD/svg11.dtd">
<svg version="1.1"
	 id="svg2" inkscape:export-filename="/media/Data/Main/Visuals/Icons/Numix/Desktop/repos/numix-wiki/Gjorgi/Numix-folders/48/New/folder-144.png" xmlns:svg="http://www.w3.org/2000/svg" xmlns:sodipodi="http://sodipodi.sourceforge.net/DTD/sodipodi-0.dtd" xmlns:inkscape="http://www.inkscape.org/namespaces/inkscape" xmlns:dc="http://purl.org/dc/elements/1.1/" xmlns:cc="http://creativecommons.org/ns#" xmlns:rdf="http://www.w3.org/1999/02/22-rdf-syntax-ns#" inkscape:export-ydpi="270" inkscape:export-xdpi="270" sodipodi:docname="user-home.svg" inkscape:version="0.48.4 r9939"
	 xmlns="http://www.w3.org/2000/svg" xmlns:xlink="http://www.w3.org/1999/xlink" x="0px" y="0px" width="48px" height="48px"
	 viewBox="0 0 48 48" enable-background="new 0 0 48 48" xml:space="preserve">
<polygon opacity="8.000000e-002" points="2,45.3 2,12.9 4.7,12.9 4.7,4.7 17.1,4.7 19.9,7.5 45.3,7.5 45.3,12.9 48,12.9 48,45.3 "/>
<polygon opacity="9.999999e-002" points="3,44.3 3,13.9 5.7,13.9 5.7,5.7 16.7,5.7 19.4,8.5 44.3,8.5 44.3,13.9 47,13.9 47,44.3 "/>
<polygon opacity="0.2" points="2,43.3 2,12.9 4.7,12.9 4.7,4.7 15.7,4.7 18.4,7.5 43.3,7.5 43.3,12.9 46,12.9 46,43.3 "/>
<polygon fill="#F57F17" points="3,42.3 3,13.9 5.7,13.9 5.7,5.7 15.3,5.7 18,8.5 42.3,8.5 42.3,13.9 45,13.9 45,42.3 "/>
<g>
	
		<linearGradient id="SVGID_1_" gradientUnits="userSpaceOnUse" x1="24" y1="204.485" x2="24" y2="194.2333" gradientTransform="matrix(1 0 0 1 0 -188)">
		<stop  offset="0" style="stop-color:#F57C00"/>
		<stop  offset="0.1638" style="stop-color:#F58F09"/>
		<stop  offset="0.3598" style="stop-color:#F59D11"/>
		<stop  offset="0.5982" style="stop-color:#F5A515"/>
		<stop  offset="0.9946" style="stop-color:#F5A816"/>
	</linearGradient>
	<path fill="url(#SVGID_1_)" d="M41.8,9h-24l-2.7-2.7H6.2V9v2.7v3.4c0,0.8,0.6,1.4,1.4,1.4h32.8c0.7,0,1.4,0.1,1.4-0.7
		C41.8,14.4,41.8,9,41.8,9z"/>
	
		<linearGradient id="rect2990_1_" gradientUnits="userSpaceOnUse" x1="24" y1="202.4333" x2="24" y2="229.7667" gradientTransform="matrix(1 0 0 1 0 -188)">
		<stop  offset="0" style="stop-color:#FADD60"/>
		<stop  offset="0.9946" style="stop-color:#F5A816"/>
	</linearGradient>
	<polyline id="rect2990_2_" fill="url(#rect2990_1_)" points="44.5,14.4 44.5,41.8 3.5,41.8 3.5,14.4 	"/>
	<path id="rect3004_1_" inkscape:connector-curvature="0" opacity="0.25" fill="#FDEFBA" enable-background="new    " d="M3.5,14.4
		v5.2c0-1.8,1.2-3.3,2.7-3.3h35.5c1.5,0,2.7,1.5,2.7,3.3v-5.2H3.5z"/>
	<path id="path3801_1_" inkscape:connector-curvature="0" opacity="0.1" fill="#E65100" enable-background="new    " d="M6.2,6.2
		c0,0,0,0.7,0,2.1v1.4c0-1.4,0.6-2.1,1.2-2.1h7.1c0.5,0,1.1,0,2.2,0.7c0.3,0.2,0.6,0.4,1,0.7l-2.7-2.7C15.1,6.2,6.2,6.2,6.2,6.2z"/>
	<polygon opacity="0.1" fill="#E65100" enable-background="new    " points="17.8,9 41.8,9 41.8,11 19.9,11 	"/>
	<rect x="6.2" y="13.2" opacity="5.000000e-002" fill="#E65100" enable-background="new    " width="35.5" height="1.2"/>
</g>
<g enable-background="new    ">
	<path fill="#F57F17" fill-opacity="0.39" d="M31.8,32.9V18.9H16.2v19.7H26L31.8,32.9z M30.3,20.4v12.5H26v4.4h-8.3V20.4L30.3,20.4
		C30.3,20.4,30.3,20.4,30.3,20.4z"/>
	<rect x="18.8" y="32.9" fill="#F57F17" fill-opacity="0.39" width="6.1" height="1.2"/>
	<rect x="18.8" y="29.6" fill="#F57F17" fill-opacity="0.39" width="10.3" height="1.2"/>
	<rect x="18.8" y="26.2" fill="#F57F17" fill-opacity="0.39" width="10.3" height="1.2"/>
	<rect x="18.8" y="22.8" fill="#F57F17" fill-opacity="0.39" width="10.3" height="1.2"/>
</g>
</svg>
