<?xml version="1.0" encoding="utf-8"?>
<!-- Generator: Adobe Illustrator 21.1.0, SVG Export Plug-In . SVG Version: 6.00 Build 0)  -->
<svg version="1.1" id="文件夹" xmlns="http://www.w3.org/2000/svg" xmlns:xlink="http://www.w3.org/1999/xlink" x="0px" y="0px"
	 viewBox="0 0 48 48" style="enable-background:new 0 0 48 48;" xml:space="preserve">
<style type="text/css">
	.st0{fill:none;stroke:#808080;stroke-width:2;stroke-miterlimit:10;}
</style>
<title>48</title>
<g id="_48">
	<polyline class="st0" points="45,44 10,44 10,16 23,16 28,22 44,22 44,45 	"/>
	<polyline class="st0" points="20.3,8 22,10 25,10 	"/>
	<polyline class="st0" points="16,4 17,4 18.7,6 	"/>
	<polyline class="st0" points="4,8 4,4 8,4 	"/>
	<line class="st0" x1="28" y1="10" x2="31" y2="10"/>
	<line class="st0" x1="38" y1="16" x2="38" y2="19"/>
	<line class="st0" x1="4" y1="11" x2="4" y2="14"/>
	<polyline class="st0" points="7,32 4,32 4,28 	"/>
	<line class="st0" x1="4" y1="17" x2="4" y2="20"/>
	<polyline class="st0" points="38,14 38,10 34,10 	"/>
	<line class="st0" x1="4" y1="23" x2="4" y2="26"/>
	<line class="st0" x1="11" y1="4" x2="14" y2="4"/>
</g>
</svg>
