<?xml version="1.0" encoding="utf-8"?>
<!-- Generator: Adobe Illustrator 17.1.0, SVG Export Plug-In . SVG Version: 6.00 Build 0)  -->
<!DOCTYPE svg PUBLIC "-//W3C//DTD SVG 1.1//EN" "http://www.w3.org/Graphics/SVG/1.1/DTD/svg11.dtd">
<svg version="1.1"
	 id="svg2" inkscape:export-filename="/media/Data/Main/Visuals/Icons/Numix/Desktop/repos/numix-wiki/Gjorgi/Numix-folders/48/New/folder-144.png" xmlns:svg="http://www.w3.org/2000/svg" xmlns:sodipodi="http://sodipodi.sourceforge.net/DTD/sodipodi-0.dtd" xmlns:inkscape="http://www.inkscape.org/namespaces/inkscape" xmlns:dc="http://purl.org/dc/elements/1.1/" xmlns:cc="http://creativecommons.org/ns#" xmlns:rdf="http://www.w3.org/1999/02/22-rdf-syntax-ns#" inkscape:export-ydpi="270" inkscape:export-xdpi="270" sodipodi:docname="user-home.svg" inkscape:version="0.48.4 r9939"
	 xmlns="http://www.w3.org/2000/svg" xmlns:xlink="http://www.w3.org/1999/xlink" x="0px" y="0px" width="48px" height="48px"
	 viewBox="0 0 48 48" enable-background="new 0 0 48 48" xml:space="preserve">
<polygon opacity="8.000000e-002" points="2,45.3 2,12.9 4.7,12.9 4.7,4.7 17.1,4.7 19.9,7.5 45.3,7.5 45.3,12.9 48,12.9 48,45.3 "/>
<polygon opacity="9.999999e-002" points="3,44.3 3,13.9 5.7,13.9 5.7,5.7 16.7,5.7 19.4,8.5 44.3,8.5 44.3,13.9 47,13.9 47,44.3 "/>
<polygon opacity="0.2" points="2,43.3 2,12.9 4.7,12.9 4.7,4.7 15.7,4.7 18.4,7.5 43.3,7.5 43.3,12.9 46,12.9 46,43.3 "/>
<polygon fill="#F57F17" points="3,42.3 3,13.9 5.7,13.9 5.7,5.7 15.3,5.7 18,8.5 42.3,8.5 42.3,13.9 45,13.9 45,42.3 "/>
<g>
	
		<linearGradient id="SVGID_1_" gradientUnits="userSpaceOnUse" x1="24" y1="204.485" x2="24" y2="194.2333" gradientTransform="matrix(1 0 0 1 0 -188)">
		<stop  offset="0" style="stop-color:#F57C00"/>
		<stop  offset="0.1638" style="stop-color:#F58F09"/>
		<stop  offset="0.3598" style="stop-color:#F59D11"/>
		<stop  offset="0.5982" style="stop-color:#F5A515"/>
		<stop  offset="0.9946" style="stop-color:#F5A816"/>
	</linearGradient>
	<path fill="url(#SVGID_1_)" d="M41.8,9h-24l-2.7-2.7H6.2V9v2.7v3.4c0,0.8,0.6,1.4,1.4,1.4h32.8c0.7,0,1.4,0.1,1.4-0.7
		C41.8,14.4,41.8,9,41.8,9z"/>
	
		<linearGradient id="rect2990_1_" gradientUnits="userSpaceOnUse" x1="24" y1="202.4333" x2="24" y2="229.7667" gradientTransform="matrix(1 0 0 1 0 -188)">
		<stop  offset="0" style="stop-color:#FADD60"/>
		<stop  offset="0.9946" style="stop-color:#F5A816"/>
	</linearGradient>
	<polyline id="rect2990_2_" fill="url(#rect2990_1_)" points="44.5,14.4 44.5,41.8 3.5,41.8 3.5,14.4 	"/>
	<path id="rect3004_1_" inkscape:connector-curvature="0" opacity="0.25" fill="#FDEFBA" enable-background="new    " d="M3.5,14.4
		v5.2c0-1.8,1.2-3.3,2.7-3.3h35.5c1.5,0,2.7,1.5,2.7,3.3v-5.2H3.5z"/>
	<path id="path3801_1_" inkscape:connector-curvature="0" opacity="0.1" fill="#E65100" enable-background="new    " d="M6.2,6.2
		c0,0,0,0.7,0,2.1v1.4c0-1.4,0.6-2.1,1.2-2.1h7.1c0.5,0,1.1,0,2.2,0.7c0.3,0.2,0.6,0.4,1,0.7l-2.7-2.7C15.1,6.2,6.2,6.2,6.2,6.2z"/>
	<polygon opacity="0.1" fill="#E65100" enable-background="new    " points="17.8,9 41.8,9 41.8,11 19.9,11 	"/>
	<rect x="6.2" y="13.2" opacity="5.000000e-002" fill="#E65100" enable-background="new    " width="35.5" height="1.2"/>
</g>
<g>
	
		<linearGradient id="SVGID_2_" gradientUnits="userSpaceOnUse" x1="24" y1="175.4494" x2="24" y2="154.9832" gradientTransform="matrix(1 0 0 -1 0 194)">
		<stop  offset="0" style="stop-color:#FADD60"/>
		<stop  offset="0.8656" style="stop-color:#F5A816"/>
	</linearGradient>
	<path opacity="0.78" fill="url(#SVGID_2_)" enable-background="new    " d="M34.2,28.8C34.2,34.4,29.7,39,24,39
		s-10.2-4.6-10.2-10.2c0-5.6,4.6-10.2,10.2-10.2S34.2,23.1,34.2,28.8z"/>
	<path fill="#F57F17" fill-opacity="0.39" d="M17.3,21.1c0,0,0.2,0.1,0.3,0.3c0.1,0.2,0.3,0.2,0.3,0.2h0.3l0.5-0.2l-0.1,0.3
		c0,0-2.5,1.2-2,1.8c0.5,0.7,0.3,0.9,0.3,1.1s0.2,0,0.2,0l0.2-0.4l0.2-0.3l0.2-0.3l0.1-0.2l0.3-0.5l0.4-0.2l0.3,0.2
		c0,0,0.2,0.1,0.1,0.2c0,0.1-0.1,0.3-0.1,0.3s0.1,0.2,0.2,0.2s0.3-0.1,0.3-0.1l0.2,0.3l0.1,0.5l0.3,0.3l0.2,0.3l-0.2,0.3l0.2,0.1
		l0.3,0.4l0.1,0.2l-0.5,0c0,0-0.1-0.2-0.2-0.2s-0.6,0-0.6,0l-0.3,0.1l-0.2,0.2c0,0-0.2,0.3-0.3,0.3c-0.1,0-0.4-0.1-0.4-0.1
		s-0.2-0.1-0.3,0.2c-0.1,0.2,0.2,0.3,0.2,0.3l-0.5,0.2l-0.2,0.1c0,0-0.4,0.2-0.4,0.3c0,0.1,0,0.1,0,0.1l-0.1,0.3v0.2l-0.3,0.2
		L16.1,28l-0.1,0.2v0.4c0,0,0,0.2,0,0.3c0,0.1,0,0.4,0,0.4s-0.1,0.1-0.2-0.1c-0.1-0.2-0.1-0.2-0.1-0.2l-0.1-0.3c0,0,0.1,0,0-0.2
		c-0.2-0.1-0.3-0.2-0.3-0.2s-0.1-0.1-0.2-0.1c-0.1,0,0.2,0-0.2,0c-0.3,0-0.3,0-0.3,0l-0.3,0.2v0.2c0,0-0.1,1.3,0.3,1.5h0.2l0.2-0.3
		l0.2,0.1V30l0,0.3v0.2l0.2,0.2l0.1,0.3c0.2,0.3,0.1,0.3,0.2,0.4s0.2,0.3,0.2,0.3l0.2,0.1c0,0,0.1,0,0.2,0.1c0.1,0,0.1,0,0.1,0
		l0,0.2l0,0.1l0.2,0.2c0,0-0.1,0,0.2,0c0.3,0,0.3,0,0.3,0s0,0.1,0.2,0.2c0.2,0.1,0,0,0.2,0.1c0.2,0,0.4,0.1,0.4,0.1
		c0.3,0,0.3,0,0.3,0l0.2,0.3c0,0,0.1,0,0.2,0.1c0,0.1-0.2,0,0,0.1c0.2,0.1,0,0,0.2,0.1c0.2,0.1-0.1,0.1,0.2,0.1c0.3,0,0.3,0,0.4,0
		s0.2,0.3,0.2,0.3c0.2,0.3,0.2,0.3,0.2,0.3l0,0.3c0,0-0.1,0.1,0.2,0.1s0.1,0,0.3,0s0-0.1,0.2,0c0.2,0.1,0.2,0.1,0.2,0.1
		s0.3,0.3,0.4,0.3c0.1,0,0.3,0,0.4,0s0.2,0.2,0.4,0.3c0.2,0,0.3,0,0.4,0.1c0.2,0.1,0.2,0.1,0.2,0.1l0,0.4l-0.1,0.2l-0.3,0.1l0,0.4
		l-0.2,0.4v0.2c0,0,0.2,0.2-0.2,0.2c-0.3,0-0.3,0-0.3,0l-0.2,0.2c0,0,0,0-0.1,0.2s-0.2,0.3-0.2,0.3l0,0.3v0.2l-0.1,0.2
		c0,0-0.1,0.1,0.2,0.2c0.3,0.2,0.5,0.2,0.6,0.3c0.1,0.1,0.2,0.2,0.2,0.2l-0.4-0.1l-0.2-0.1l-0.4-0.1l-0.8-0.4c0,0-1.2-1-1.5-1.7
		c0,0-0.3-0.5-0.8-0.6c0,0-1.3-1.2-1.4-1.5l-0.1-0.2V34l-0.1-0.1v-0.1l0-0.1l0-0.4l0-0.2l0-0.1l0-0.1c0,0-0.1-0.1-0.1-0.1
		c0,0-0.1-0.2-0.1-0.2l0-0.1l0.2-0.2L16,32.2l0-0.1l0.1-0.1c0,0,0.1-0.1,0.1-0.1c0,0-0.1-0.1-0.1-0.1l-0.1,0L16.1,32H16
		c0,0-0.1,0-0.1-0.1c0,0-0.1-0.1-0.1-0.1l-0.1,0c0,0-0.1,0-0.1-0.1s-0.1-0.1-0.1-0.1c0,0-0.1-0.1-0.1-0.1l-0.1,0
		c0,0-0.1-0.2-0.1-0.2c0,0-0.1-0.1-0.1-0.1s-0.1-0.1-0.1-0.2c0,0-0.1-0.1-0.1-0.1H15l-0.2-0.1l-0.1-0.2l-0.1-0.2
		c0,0-0.1-0.1-0.1-0.2c0,0-0.1-0.1-0.1-0.1h-0.1h-0.1l-0.1-0.1l-0.3-0.4l-0.1-0.2l-0.1-0.2l0-0.3v-0.2l-0.1-1.5
		C13.8,27.5,14.2,23.7,17.3,21.1z"/>
	<path fill="#F57F17" fill-opacity="0.39" d="M28.8,19.8l0.3,0.3l0.2,0.1l0.1,0.1l0,0.1c0,0,0,0.1,0,0.2c0,0,0,0.2,0,0.2
		s0.2,0.3,0.2,0.3c0,0,0,0.2,0,0.2s-0.2,0.1-0.2,0.1s-0.1-0.2-0.2-0.2c0,0-0.1-0.1-0.1-0.1l0.3,0l0-0.2c0,0-0.2-0.1-0.2-0.1
		c-0.1,0-0.2-0.1-0.2-0.1l-0.2-0.1c0,0-0.3-0.1-0.4-0.1s-0.2-0.1-0.2-0.1h-0.3c0,0-0.1,0.1-0.2,0.1c0,0-0.2,0.2-0.2,0.2s0,0.2,0,0.2
		c0,0-0.1,0.1-0.1,0.2c0,0.1,0,0.2,0,0.3c0,0,0,0.1,0,0.1l0,0.2l-0.1,0.1l-0.2,0.1c0,0-0.1,0.1-0.1,0.1s0,0.2,0.1,0.3
		c0.1,0.1,0,0.2,0.1,0.2c0.1,0.1,0.1,0.1,0.2,0.1c0.1,0,0,0,0.1,0c0.1,0,0.1,0,0.2,0c0,0,0.1,0,0.2-0.1s0,0,0-0.1
		c0.1,0,0.1-0.1,0.1,0c0.1,0.1,0.1,0.1,0.1,0.2s0.1,0.1,0.1,0.2c0.1,0,0.1,0.2,0.1,0.2l0.1,0.1c0,0,0,0,0.1,0c0.1,0,0.2,0,0.2,0
		l0-0.1c0,0,0.1,0,0.1,0c0,0,0-0.1,0-0.1s0-0.1-0.1-0.1c0,0-0.1-0.1-0.1-0.1l0-0.1l0.1-0.1l0-0.1v-0.1l-0.1,0l-0.1-0.1
		c0,0-0.1,0-0.1-0.1c0-0.1,0-0.1,0-0.1l-0.2,0L28.2,22l0.1-0.1c0.1-0.1,0.1-0.2,0.1-0.2s0-0.1,0-0.1s-0.1,0-0.1-0.1
		c0-0.1,0-0.1,0-0.1l0-0.1c0,0,0-0.1,0.1-0.1c0,0,0.1,0.1,0.1,0.1c0,0,0.1,0,0.1,0s0,0,0,0.1c0,0,0,0.1,0,0.1l0.1-0.1v0.1l0,0.1v0.1
		l0.1,0.1l0.1,0.1c0,0,0.1,0.1,0.1,0.1c0,0,0.1,0.1,0.1,0.1l0.1,0.1l0.1,0l0.1-0.1c0,0,0.1,0,0.1,0c0,0,0,0,0,0s0.1,0,0.2,0
		s0.1,0,0.1,0s0.1,0.1,0,0.1s-0.1,0-0.1,0.1c-0.1,0-0.1,0-0.1,0s-0.1,0.1-0.1,0.1l0.1,0h0.1l0.1,0.1c0,0,0,0,0,0.1s0.1,0,0,0.1
		c-0.1,0-0.2,0-0.2,0s0-0.1-0.1-0.1c0,0-0.1,0.1-0.1,0.1v0.1l0.1,0.2c0,0,0,0,0,0.1s-0.2,0.2-0.2,0.2s0,0.1-0.1,0.1c0,0-0.1,0-0.2,0
		c-0.1,0-0.1,0-0.1,0c-0.1,0-0.1,0-0.2,0.1c-0.1,0-0.3,0-0.3,0c-0.1,0-0.1,0-0.1,0s0,0-0.1-0.1C28,23.3,28,23.2,28,23.2
		c0,0,0-0.1,0-0.1s0-0.1-0.1-0.1c-0.1,0-0.1,0-0.1,0s-0.1,0.1-0.1,0.1c0,0,0,0,0.1,0.1s0.2,0.2,0.2,0.2l0,0.1l-0.2,0.1l-0.2,0.1
		l0,0.1c0,0,0,0,0,0.1c0,0.1-0.1,0.1-0.1,0.1s-0.1,0-0.1,0.1c0,0-0.1,0.2-0.1,0.2s-0.1,0-0.1,0c-0.1,0.1,0,0.1-0.1,0.1
		c-0.2,0.1-0.2,0.1-0.2,0.1l-0.2,0l-0.1,0c0,0-0.1,0-0.2,0.1c0,0-0.1,0.1-0.1,0.1s0,0.1,0,0.1c0,0,0.1,0,0.2,0c0.1,0,0.1,0,0.1,0.1
		c0.1,0,0.1,0.1,0.1,0.1l0.2,0.2l0.1,0.2l0,0.2l-0.2,0.1c0,0-0.1,0-0.2,0c0,0,0,0-0.2,0c-0.2,0-0.2,0-0.3,0c0,0-0.2,0-0.2,0l-0.1,0
		l-0.1,0.1l-0.1,0c0,0,0.1,0.2,0.1,0.2s0,0.1,0,0.1l0,0.1L25.7,26l-0.1,0.1l0,0.1c0,0,0,0.1,0,0.1c0,0,0.1,0,0.1,0
		c0,0-0.1,0.2-0.1,0.2l0.2,0c0,0,0,0,0.1,0c0.1,0,0.2,0.1,0.2,0.1l0.1,0.1l0,0.1l0-0.1c0,0,0.2,0,0.2,0c0,0,0.1,0,0.1,0h0.2
		c0,0,0,0,0.1,0c0,0,0,0,0,0s0.2-0.1,0.2-0.1c0,0,0.1-0.1,0.1-0.1s0.1,0,0.1-0.1s0-0.1,0-0.1v-0.1l0.1-0.1c0,0,0,0,0.1-0.1
		c0.1-0.1,0.1-0.1,0.1-0.1s0,0,0.1-0.1c0.1,0,0.1-0.1,0.2-0.1s0,0,0,0s0.1-0.1,0.1-0.1c0,0,0-0.2,0-0.2l0.1-0.1l0.2,0l0.1,0
		c0,0,0.1,0,0.1,0c0,0,0.1-0.1,0.1-0.1l0.1-0.1c0,0,0,0,0.1,0c0.1,0,0.2,0,0.2,0c0,0,0.1,0,0.1,0s0.1,0,0.1,0.1c0,0,0.1,0.1,0.1,0.1
		l0.1,0.1H29c0.1,0.1,0.1,0.1,0.2,0.1c0.1,0,0.2,0.1,0.2,0.1s0,0.1,0.1,0.1c0,0,0.1,0.1,0.1,0.1c0,0,0.1,0.1,0.1,0.1
		c0,0,0.1,0.1,0.1,0.1l0.1,0.1l0-0.1v-0.1l0-0.1c0,0-0.1-0.1,0-0.1c0.1,0,0.1,0,0.1,0l-0.1-0.1l-0.1,0l-0.1-0.1l-0.1-0.1l-0.1,0
		l-0.1,0l-0.1-0.1c0,0-0.1,0-0.1-0.1c0,0,0,0,0,0l-0.1,0c0,0-0.1-0.1-0.1-0.1c0,0,0-0.1,0-0.1L29,25c0,0,0-0.1,0-0.1
		c0,0,0-0.1,0-0.1l0.2,0l0.1,0.1l0.1,0.1l0.1,0.1l0.1,0.1l0.1,0.1c0,0,0,0,0.1,0c0.1,0,0.1,0,0.1,0s0.1,0.1,0.1,0.1
		c0.1,0,0.1,0,0.1,0.1c0,0,0,0,0,0s0,0,0.1,0.1c0.1,0,0.1,0.1,0.1,0.1c0,0,0,0.2,0.1,0.2c0,0,0.1,0,0.1,0.1c0.1,0.1,0.1,0.1,0.1,0.2
		c0.1,0,0.1,0,0.1,0.1c0,0.1,0,0.1,0,0.1s0.1,0,0.1,0s0.1-0.1,0.1-0.1s0.1-0.1,0-0.1c0,0-0.1,0-0.1-0.1s0-0.2,0-0.2l0.1-0.1l0.1-0.1
		l0.1,0l0.1-0.1l0.1,0.1l0,0.1c0,0,0,0.1,0.1,0.2c0,0.1,0.1,0.2,0.1,0.2l0.2,0.2l0.2,0.1l0.1,0l0.3-0.1c0,0,0.1,0,0.1,0
		s0.2,0.3,0.2,0.3s0,0.1,0,0.2s0,0.2,0,0.2S32.2,27,32.2,27c-0.1,0-0.2,0.1-0.2,0.1l-0.3,0.1l-0.2,0l-0.3,0c0,0-0.3,0-0.4,0
		s-0.2,0-0.2,0s-0.1,0-0.1,0.1c0,0.1-0.1,0.1-0.1,0.1s0,0.1-0.1,0.1s-0.1,0-0.1,0c-0.1,0-0.3-0.1-0.3-0.1l-0.2-0.2l-0.1-0.1l-0.1,0
		h-0.3L29,27l0-0.3l0,0.1L29,26.6l-0.1-0.1l-0.2-0.1l-0.2,0l-0.2,0.1l-0.2,0.1l-0.1,0l-0.6,0.1l-0.2,0.1c0,0-0.1,0.1-0.1,0.1
		c0,0-0.2,0-0.2,0s-0.1,0-0.2,0c-0.1,0-0.2,0-0.2,0c-0.1,0-0.2,0-0.2,0c0,0-0.1,0-0.1,0.1c0,0.1-0.2,0.2-0.2,0.2s-0.1,0.1-0.1,0.1
		c0,0-0.1,0.1-0.1,0.1l-0.1,0.2l-0.1,0.1l0,0.1v0.1c0,0-0.1,0.1-0.1,0.1c0,0-0.1,0.1-0.1,0.1s-0.1,0-0.1,0.1c-0.1,0-0.1,0.1-0.1,0.1
		c0,0-0.2,0.1-0.2,0.1s-0.1,0.1-0.1,0.1c0,0.1-0.1,0.1-0.1,0.2c0,0-0.1,0.1-0.1,0.1c0,0-0.1,0.2-0.1,0.2S24.7,29,24.7,29l-0.1,0.3
		l0,0.1c0,0,0,0.1,0.1,0.1s0.1,0.2,0.1,0.2v0.1c0,0,0,0.1-0.1,0.1c0,0,0,0.2,0,0.2v0.1c0,0,0,0-0.1,0.1c-0.1,0.1-0.1,0.1-0.1,0.1
		l0.1,0.2l0.1,0.1v0.1l0.1,0.1c0,0,0,0,0.1,0.1c0,0,0.1,0,0.1,0.1c0.1,0,0.1,0,0.1,0s0.1,0.1,0.1,0.2c0,0,0.1,0.1,0.1,0.1l0.1,0.1
		c0,0,0,0.1,0.1,0.1c0.1,0.1,0.1,0.1,0.2,0.1c0,0,0.1,0.1,0.2,0.1s0.1,0,0.1,0s-0.1-0.1,0.2,0c0.2,0.1,0.4,0.2,0.4,0.2l0.2,0.1
		c0,0,0.3,0,0.3,0c0,0,0.1,0,0.1,0s0.1,0,0.2,0c0.1,0,0.3,0,0.3,0l0.3-0.1c0,0,0.1-0.1,0.1-0.1s0.1-0.1,0.2-0.1c0,0,0.2,0,0.2,0
		s0-0.1,0.1,0c0.1,0.1,0.1,0.1,0.1,0.1c0,0,0,0.1,0.1,0.1c0.1,0,0.2,0.1,0.2,0.1s0.2,0,0.2,0c0.1,0,0.2,0,0.2,0l0.1,0.1l0,0.2v0.1
		c0,0,0,0.1,0,0.1c0,0.1,0.1,0.1,0.1,0.1s-0.1,0.1-0.1,0.1c0,0-0.1,0.1-0.1,0.1l0.2,0.2l0.1,0.1l0.1,0.1c0,0,0,0.1,0,0.1
		c0,0,0,0.1,0,0.2c0,0,0,0.2,0,0.2s0,0.1,0,0.1c0,0,0,0.2,0,0.2l0,0.1l-0.1,0.2l-0.1,0.1l-0.1,0.1L29,34.7l0,0.2L28.9,35
		c0,0,0,0.1,0,0.2s0.1,0.2,0.1,0.2l0,0.2c0,0-0.1,0.2-0.1,0.3c0,0.1-0.1,0.1-0.1,0.2c0,0,0,0.2,0,0.2l0,0.2l0.1,0.2l-0.1,0.2
		c0,0,0,0.1,0,0.2c0,0.1,0.1,0.2,0.2,0.2s0.2,0,0.2-0.1c0.1,0,0.2-0.1,0.3-0.1c0,0,0.1,0,0.2-0.1c0.1-0.1,0.2-0.2,0.2-0.2
		s0.1-0.1,0.2-0.1c0,0,0.2-0.2,0.2-0.2s0.1-0.1,0.2-0.2c0.1-0.1,0,0,0.1-0.1c0.1-0.1,0.3-0.3,0.3-0.3l0.3-0.3c0,0,0.2-0.3,0.3-0.3
		c0-0.1,0.2-0.3,0.3-0.3c0,0,0.3-0.2,0.4-0.3c0.1-0.1,0.2-0.4,0.2-0.4c0,0,0.2-0.4,0.2-0.4l0.2-0.5l0.3-0.7l0.3-0.5
		c0,0,0.1-0.2,0.2-0.3c0-0.1,0.3-0.6,0.3-0.6l0.1-0.4l0-0.4h-0.2l-0.2,0.2l-0.2-0.1l-0.2,0l0.2-0.2l-0.1-0.2L33.1,30l-0.2-0.3v-0.3
		l-0.2-0.3l-0.1-0.5c0,0-0.2-0.3-0.2-0.3c0-0.1,0.1-0.3,0.1-0.3l0.1,0.1c0,0,0.1,0.3,0.2,0.3c0.1,0,0.1,0.2,0.1,0.2s0,0.2,0.1,0.2
		c0,0,0.1,0.2,0.1,0.2s0.1,0.2,0.1,0.3c0,0,0.1,0.2,0.1,0.3c0,0.1,0.1,0.4,0.1,0.4s0.1,0.4,0.1,0.4s0.1,0,0.1-0.1c0,0,0-0.1,0.1-0.1
		c0,0,0.2-0.2,0.2-0.2l0.1-0.3c0,0,0.1-0.1,0.1-0.2c0-0.1,0.1-0.2,0.1-0.3s0-0.2,0-0.2s0.1-0.2,0.1-0.3s0-0.2,0-0.2l0-0.3l0.1-0.2
		l0.1-0.2C34.2,27.5,33.7,22.4,28.8,19.8z"/>
</g>
</svg>
