<?xml version="1.0" encoding="utf-8"?>
<!-- Generator: Adobe Illustrator 21.0.0, SVG Export Plug-In . SVG Version: 6.00 Build 0)  -->
<svg version="1.1" id="图层_39" xmlns="http://www.w3.org/2000/svg" xmlns:xlink="http://www.w3.org/1999/xlink" x="0px" y="0px"
	 viewBox="0 0 48 48" style="enable-background:new 0 0 48 48;" xml:space="preserve">
<style type="text/css">
	.st0{opacity:0.08;enable-background:new    ;}
	.st1{opacity:0.1;enable-background:new    ;}
	.st2{opacity:0.2;enable-background:new    ;}
	.st3{fill:#90A4AE;}
	.st4{fill:url(#SVGID_1_);}
	.st5{fill:#FF6E40;}
	.st6{fill:url(#rect3000_1_);}
	.st7{fill:url(#rect2998_1_);}
	.st8{fill:url(#rect2992_1_);}
	.st9{fill:#BBDEFB;}
	.st10{fill:#FF8A65;}
	.st11{fill:#F5F5F5;}
</style>
<title>048network-server</title>
<rect x="2" y="3.5" class="st0" width="46" height="43"/>
<rect x="3" y="4.5" class="st1" width="44" height="41"/>
<rect x="2" y="3.5" class="st2" width="44" height="41"/>
<rect x="3" y="4.5" class="st3" width="42" height="39"/>
<linearGradient id="SVGID_1_" gradientUnits="userSpaceOnUse" x1="24" y1="-1916.28" x2="24" y2="-1954.28" gradientTransform="matrix(1 0 0 -1 0 -1911.28)">
	<stop  offset="0" style="stop-color:#FFFFFF"/>
	<stop  offset="0.53" style="stop-color:#ECECEC"/>
	<stop  offset="1" style="stop-color:#E0E0E0"/>
</linearGradient>
<rect x="3.5" y="5" class="st4" width="41" height="38"/>
<rect id="rect3804" x="22" y="27.5" class="st5" width="4" height="4.5"/>
<rect id="rect3802" x="22" y="16" class="st5" width="4" height="4.5"/>
<linearGradient id="rect3000_1_" gradientUnits="userSpaceOnUse" x1="24" y1="-1942.26" x2="24" y2="-1950.24" gradientTransform="matrix(1 0 0 -1 0 -1911.28)">
	<stop  offset="0" style="stop-color:#4FC3F7"/>
	<stop  offset="0.11" style="stop-color:#3EBDF6"/>
	<stop  offset="0.32" style="stop-color:#24B4F5"/>
	<stop  offset="0.53" style="stop-color:#12AEF5"/>
	<stop  offset="0.76" style="stop-color:#07AAF4"/>
	<stop  offset="1" style="stop-color:#03A9F4"/>
</linearGradient>
<rect id="rect3000" x="6.5" y="31" class="st6" width="35" height="8"/>
<linearGradient id="rect2998_1_" gradientUnits="userSpaceOnUse" x1="24" y1="-1939.22" x2="24" y2="-1931.25" gradientTransform="matrix(1 0 0 -1 0 -1911.28)">
	<stop  offset="0" style="stop-color:#E64A19"/>
	<stop  offset="0.22" style="stop-color:#F04F1D"/>
	<stop  offset="0.59" style="stop-color:#FB5521"/>
	<stop  offset="1" style="stop-color:#FF5722"/>
</linearGradient>
<rect id="rect2998" x="6.5" y="20" class="st7" width="35" height="8"/>
<linearGradient id="rect2992_1_" gradientUnits="userSpaceOnUse" x1="24" y1="-1920.24" x2="24" y2="-1928.22" gradientTransform="matrix(1 0 0 -1 0 -1911.28)">
	<stop  offset="0" style="stop-color:#4FC3F7"/>
	<stop  offset="0.11" style="stop-color:#3EBDF6"/>
	<stop  offset="0.32" style="stop-color:#24B4F5"/>
	<stop  offset="0.53" style="stop-color:#12AEF5"/>
	<stop  offset="0.76" style="stop-color:#07AAF4"/>
	<stop  offset="1" style="stop-color:#03A9F4"/>
</linearGradient>
<rect id="rect2992" x="6.5" y="9" class="st8" width="35" height="8"/>
<rect id="rect3806" x="9" y="11.5" class="st9" width="18" height="3"/>
<rect id="rect3806-2" x="9" y="33.5" class="st9" width="18" height="3"/>
<path id="path3808" class="st9" d="M33,13c0,0.8-0.7,1.5-1.5,1.5S30,13.8,30,13s0.7-1.5,1.5-1.5S33,12.2,33,13L33,13z"/>
<rect id="rect3818" x="9" y="22.5" class="st10" width="18" height="3"/>
<rect x="9" y="12" class="st11" width="18" height="2.5"/>
<rect x="9" y="23" class="st11" width="18" height="2.5"/>
<rect x="9" y="34" class="st11" width="18" height="2.5"/>
<path class="st11" d="M31.5,12c-0.7,0-1.4,0.5-1.5,1.3c0.1,0.7,0.7,1.3,1.5,1.3c0.7,0,1.4-0.5,1.5-1.3C32.9,12.5,32.2,12,31.5,12z"
	/>
<path id="path3808-2" class="st9" d="M39,13c0,0.8-0.7,1.5-1.5,1.5S36,13.8,36,13s0.7-1.5,1.5-1.5S39,12.2,39,13L39,13z"/>
<path class="st11" d="M37.5,12c-0.7,0-1.4,0.5-1.5,1.3c0.1,0.7,0.7,1.3,1.5,1.3c0.7,0,1.4-0.5,1.5-1.3C38.9,12.5,38.2,12,37.5,12z"
	/>
<path id="path3808-3" class="st10" d="M33,24c0,0.8-0.7,1.5-1.5,1.5S30,24.8,30,24s0.7-1.5,1.5-1.5S33,23.2,33,24L33,24z"/>
<path class="st11" d="M31.5,23c-0.7,0-1.4,0.5-1.5,1.3c0.1,0.7,0.7,1.3,1.5,1.3c0.7,0,1.4-0.5,1.5-1.3C32.9,23.5,32.2,23,31.5,23z"
	/>
<path id="path3808-4" class="st10" d="M39,24c0,0.8-0.7,1.5-1.5,1.5S36,24.8,36,24s0.7-1.5,1.5-1.5S39,23.2,39,24L39,24z"/>
<path class="st11" d="M37.5,23c-0.7,0-1.4,0.5-1.5,1.3c0.1,0.7,0.7,1.3,1.5,1.3c0.7,0,1.4-0.5,1.5-1.3C38.9,23.5,38.2,23,37.5,23z"
	/>
<path id="path3808-5" class="st9" d="M33,35c0,0.8-0.7,1.5-1.5,1.5S30,35.8,30,35s0.7-1.5,1.5-1.5S33,34.2,33,35L33,35z"/>
<path class="st11" d="M31.5,34c-0.7,0-1.4,0.5-1.5,1.3c0.1,0.7,0.7,1.3,1.5,1.3c0.7,0,1.4-0.5,1.5-1.3C32.9,34.5,32.2,34,31.5,34z"
	/>
<path id="path3808-6" class="st9" d="M39,35c0,0.8-0.7,1.5-1.5,1.5S36,35.8,36,35s0.7-1.5,1.5-1.5S39,34.2,39,35L39,35z"/>
<path class="st11" d="M37.5,34c-0.7,0-1.4,0.5-1.5,1.3c0.1,0.7,0.7,1.3,1.5,1.3c0.7,0,1.4-0.5,1.5-1.3C38.9,34.5,38.2,34,37.5,34z"
	/>
</svg>
