<?xml version="1.0" encoding="utf-8"?>
<!-- Generator: Adobe Illustrator 18.0.0, SVG Export Plug-In . SVG Version: 6.00 Build 0)  -->
<!DOCTYPE svg PUBLIC "-//W3C//DTD SVG 1.1//EN" "http://www.w3.org/Graphics/SVG/1.1/DTD/svg11.dtd">
<svg version="1.1" id="图层_1" xmlns="http://www.w3.org/2000/svg" xmlns:xlink="http://www.w3.org/1999/xlink" x="0px" y="0px"
	 viewBox="0 0 48 48" enable-background="new 0 0 48 48" xml:space="preserve">
<g opacity="8.000000e-002">
	<polygon fill="#040000" points="17.8,25.6 15.5,19.4 9.7,24 13.5,24.5 	"/>
	<polygon fill="#040000" points="27,39.8 27,39.8 26.9,39.8 	"/>
	<polygon fill="#040000" points="25.8,28.4 26,28.4 26,28.3 	"/>
	<polygon fill="#040000" points="26,28.4 31.7,30.8 33.3,26.8 25.8,28.4 	"/>
	<polygon fill="#040000" points="16.8,30.4 25.8,28.4 17.8,25.6 	"/>
	<polygon fill="#040000" points="9.7,24 10.9,31.7 13.5,24.5 	"/>
	<polygon fill="#040000" points="13.5,24.5 10.9,31.7 17.8,25.6 	"/>
	<polygon fill="#040000" points="10.9,31.7 16.8,30.4 17.8,25.6 	"/>
	<polygon fill="#040000" points="16.9,12.2 16.9,12.2 16.9,12.2 	"/>
	<polygon fill="#040000" points="15.5,19.4 20.3,19.6 20.4,16.3 	"/>
	<polygon fill="#040000" points="25.7,23.7 20.3,19.6 17.8,25.6 	"/>
	<polygon fill="#040000" points="16.9,12.2 16.9,12.2 16.9,12.2 	"/>
	<polygon fill="#040000" points="17.8,25.6 20.3,19.6 15.5,19.4 	"/>
	<polygon fill="#040000" points="26.9,42.2 26.9,39.8 26.9,39.8 24.9,38.6 	"/>
	<polygon fill="#040000" points="21.1,42.1 26.9,42.2 24.9,38.6 	"/>
	<polygon fill="#040000" points="24.9,38.6 26.9,39.8 27,39.8 28.5,34.2 	"/>
	<polygon fill="#040000" points="34,41.7 38.3,37.7 33,38.3 	"/>
	<polygon fill="#040000" points="28.4,45.1 34.3,45.1 34,41.7 30.3,42.6 34.2,44.8 30.3,42.6 34,41.7 33,38.3 	"/>
	<polygon fill="#040000" points="27,39.8 31.3,36.2 28.5,34.2 	"/>
	<polygon fill="#040000" points="38.3,37.7 36.1,33.2 33,38.3 	"/>
	<polygon fill="#040000" points="5.6,43.6 11.3,43.6 7.7,41 	"/>
	<polygon fill="#040000" points="24.9,2.2 19.4,7.9 22.2,6.8 	"/>
	<polygon fill="#040000" points="20.1,4.1 14.5,9.9 18,7.7 	"/>
	<polygon fill="#040000" points="31.4,36.2 33,38.3 36.1,33.2 28.5,34.2 	"/>
	<polygon fill="#040000" points="22.2,6.8 19.4,7.9 22.6,9.3 	"/>
	<polygon fill="#040000" points="18.6,7.8 20.1,4.2 18,7.7 	"/>
	<polygon fill="#040000" points="22.6,9.3 24.9,2.2 22.2,6.8 	"/>
	<polygon fill="#040000" points="9.7,38.6 7.7,41 12,38.4 8.5,35.7 	"/>
	<polygon fill="#040000" points="9.8,18.4 9.7,24 15.5,19.4 	"/>
	<polygon fill="#040000" points="11.3,43.6 12,38.4 7.7,41 	"/>
	<polygon fill="#040000" points="36.1,33.2 35.9,27.7 31.7,30.8 	"/>
	<polygon fill="#040000" points="28.5,34.2 36.1,33.2 31.7,30.8 	"/>
	<polygon fill="#040000" points="31.7,30.8 35.9,27.7 33.3,26.8 	"/>
	<polygon fill="#040000" points="35.9,27.7 40.3,25.1 38.6,23.9 	"/>
	<polygon fill="#040000" points="25.4,32.1 28.5,34.2 31.7,30.8 	"/>
	<polygon fill="#040000" points="35.5,25.6 33.3,26.8 35.9,27.7 38.6,23.9 	"/>
	<polygon fill="#040000" points="22.3,33.7 25.4,32.1 16.8,30.4 	"/>
	<polygon fill="#040000" points="25.8,28.4 25.4,32.1 31.7,30.8 	"/>
	<polygon fill="#040000" points="25.8,28.4 16.8,30.4 25.4,32.1 	"/>
	<polygon fill="#040000" points="43.8,21.6 47,17.5 41.8,19.2 43.8,21.6 	"/>
	<polygon fill="#040000" points="42.7,25.6 46,24.4 43.8,21.6 	"/>
	<polygon fill="#040000" points="43.8,21.6 40.2,25.1 42.7,25.6 	"/>
	<polygon fill="#040000" points="38.6,23.9 40.3,25.1 41.8,19.2 	"/>
	<polygon fill="#040000" points="43.8,21.6 43.8,21.6 46,24.4 47,17.5 	"/>
	<polygon fill="#040000" points="41.8,19.2 40.2,25.1 43.8,21.6 	"/>
	<polygon fill="#040000" points="18,35.4 22.3,33.7 16.8,30.4 	"/>
	<polygon fill="#040000" points="15.5,19.4 9.9,12.6 9.8,18.4 	"/>
	<polygon fill="#040000" points="14.5,9.7 9.9,12.6 14.9,13.8 	"/>
	<polygon fill="#040000" points="14.9,13.8 9.9,12.6 15.5,19.4 	"/>
	<polygon fill="#040000" points="9.8,18.4 9.9,12.6 7.7,17.3 9.8,18.4 	"/>
	<polygon fill="#040000" points="15.5,19.4 16.9,12.2 16.9,12.2 14.5,9.7 14.9,13.8 	"/>
	<polygon fill="#040000" points="16.9,12.2 18,7.7 14.5,9.7 16.9,12.2 	"/>
	<polygon fill="#040000" points="7.7,17.3 4.6,22.6 9.8,18.4 	"/>
	<polygon fill="#040000" points="9.8,18.4 9.8,18.4 4.6,22.6 9.7,24 	"/>
	<polygon fill="#040000" points="12,38.4 14.3,34.8 10.9,31.7 	"/>
	<polygon fill="#040000" points="14.3,34.8 18,35.4 16.8,30.4 	"/>
	<polygon fill="#040000" points="8.5,35.7 12,38.4 10.9,31.7 	"/>
	<polygon fill="#040000" points="10.9,31.7 14.3,34.8 16.8,30.4 	"/>
	<polygon fill="#040000" points="4.6,22.6 7.5,30 9.7,24 	"/>
	<polygon fill="#040000" points="7.5,30 8.5,35.7 10.9,31.7 	"/>
	<polygon fill="#040000" points="9.7,24 7.5,30 10.9,31.7 	"/>
	<polygon fill="#040000" points="33.3,26.8 25.7,23.7 25.8,28.4 	"/>
	<polygon fill="#040000" points="25.8,28.4 25.8,28.4 25.7,23.7 17.8,25.6 	"/>
	<polygon fill="#040000" points="16.9,12.2 15.5,19.4 20.4,16.3 	"/>
	<polygon fill="#040000" points="16.9,12.2 20.4,16.3 23.9,14.6 16.9,12.2 	"/>
	<polygon fill="#040000" points="20.3,19.6 23.9,14.6 20.4,16.3 	"/>
	<polygon fill="#040000" points="16.9,12.2 23.9,14.6 22.6,9.3 	"/>
	<polygon fill="#040000" points="22.6,9.3 19.4,7.9 18,7.7 16.9,12.2 	"/>
</g>
<g opacity="0.1">
	<polygon fill="#040000" points="17.1,25.3 14.8,19 9,23.6 12.8,24.1 	"/>
	<polygon fill="#040000" points="26.2,39.5 26.2,39.4 26.2,39.5 	"/>
	<polygon fill="#040000" points="25.1,28 25.3,28.1 25.3,28 	"/>
	<polygon fill="#040000" points="25.3,28.1 30.9,30.5 32.5,26.4 25.1,28 	"/>
	<polygon fill="#040000" points="16.1,30 25.1,28 17.1,25.3 	"/>
	<polygon fill="#040000" points="9,23.6 10.1,31.3 12.8,24.1 	"/>
	<polygon fill="#040000" points="12.8,24.1 10.1,31.3 17.1,25.3 	"/>
	<polygon fill="#040000" points="10.1,31.3 16.1,30 17.1,25.3 	"/>
	<polygon fill="#040000" points="16.1,11.8 16.2,11.9 16.2,11.8 	"/>
	<polygon fill="#040000" points="14.8,19 19.5,19.2 19.7,16 	"/>
	<polygon fill="#040000" points="25,23.3 19.5,19.2 17.1,25.3 	"/>
	<polygon fill="#040000" points="16.2,11.8 16.1,11.8 16.2,11.8 	"/>
	<polygon fill="#040000" points="17.1,25.3 19.5,19.2 14.8,19 	"/>
	<polygon fill="#040000" points="26.2,41.8 26.2,39.5 26.2,39.5 24.1,38.2 	"/>
	<polygon fill="#040000" points="20.4,41.8 26.2,41.8 24.1,38.2 	"/>
	<polygon fill="#040000" points="24.1,38.2 26.2,39.5 26.2,39.4 27.8,33.8 	"/>
	<polygon fill="#040000" points="33.3,41.3 37.6,37.3 32.3,37.9 	"/>
	<polygon fill="#040000" points="27.7,44.7 33.6,44.7 33.3,41.3 29.5,42.2 33.4,44.5 29.5,42.2 33.3,41.3 32.3,37.9 	"/>
	<polygon fill="#040000" points="26.2,39.4 30.6,35.9 27.8,33.8 	"/>
	<polygon fill="#040000" points="37.6,37.3 35.4,32.8 32.3,37.9 	"/>
	<polygon fill="#040000" points="4.9,43.2 10.5,43.2 7,40.6 	"/>
	<polygon fill="#040000" points="24.2,1.8 18.6,7.6 21.4,6.5 	"/>
	<polygon fill="#040000" points="19.3,3.8 13.7,9.5 17.3,7.3 	"/>
	<polygon fill="#040000" points="30.7,35.9 32.3,37.9 35.4,32.8 27.8,33.8 	"/>
	<polygon fill="#040000" points="21.4,6.5 18.6,7.6 21.9,8.9 	"/>
	<polygon fill="#040000" points="17.9,7.4 19.3,3.8 17.3,7.3 	"/>
	<polygon fill="#040000" points="21.9,8.9 24.2,1.8 21.4,6.5 	"/>
	<polygon fill="#040000" points="8.9,38.3 7,40.6 11.3,38 7.7,35.4 	"/>
	<polygon fill="#040000" points="9.1,18 9,23.6 14.8,19 	"/>
	<polygon fill="#040000" points="10.5,43.2 11.3,38 7,40.6 	"/>
	<polygon fill="#040000" points="35.4,32.8 35.1,27.3 30.9,30.5 	"/>
	<polygon fill="#040000" points="27.8,33.8 35.4,32.8 30.9,30.5 	"/>
	<polygon fill="#040000" points="30.9,30.5 35.1,27.3 32.5,26.4 	"/>
	<polygon fill="#040000" points="35.1,27.3 39.5,24.8 37.9,23.5 	"/>
	<polygon fill="#040000" points="24.7,31.7 27.8,33.8 30.9,30.5 	"/>
	<polygon fill="#040000" points="34.8,25.2 32.5,26.4 35.1,27.3 37.9,23.5 	"/>
	<polygon fill="#040000" points="21.5,33.4 24.7,31.7 16.1,30 	"/>
	<polygon fill="#040000" points="25.1,28 24.7,31.7 30.9,30.5 	"/>
	<polygon fill="#040000" points="25.1,28 16.1,30 24.7,31.7 	"/>
	<polygon fill="#040000" points="43.1,21.2 46.3,17.2 41.1,18.8 43.1,21.3 	"/>
	<polygon fill="#040000" points="42,25.2 45.3,24 43.1,21.3 	"/>
	<polygon fill="#040000" points="43.1,21.3 39.5,24.8 42,25.2 	"/>
	<polygon fill="#040000" points="37.9,23.5 39.5,24.8 41.1,18.8 	"/>
	<polygon fill="#040000" points="43.1,21.3 43.1,21.3 45.3,24 46.3,17.2 	"/>
	<polygon fill="#040000" points="41.1,18.8 39.5,24.8 43.1,21.3 	"/>
	<polygon fill="#040000" points="17.3,35.1 21.5,33.4 16.1,30 	"/>
	<polygon fill="#040000" points="14.8,19 9.2,12.2 9.1,18 	"/>
	<polygon fill="#040000" points="13.8,9.3 9.2,12.2 14.2,13.4 	"/>
	<polygon fill="#040000" points="14.2,13.4 9.2,12.2 14.8,19 	"/>
	<polygon fill="#040000" points="9.1,18 9.2,12.2 7,16.9 9.1,18 	"/>
	<polygon fill="#040000" points="14.8,19 16.2,11.9 16.1,11.8 13.8,9.3 14.2,13.4 	"/>
	<polygon fill="#040000" points="16.2,11.9 17.3,7.3 13.8,9.3 16.1,11.8 	"/>
	<polygon fill="#040000" points="7,16.9 3.9,22.3 9.1,18 	"/>
	<polygon fill="#040000" points="9.1,18 9.1,18 3.9,22.3 9,23.6 	"/>
	<polygon fill="#040000" points="11.3,38 13.5,34.4 10.1,31.3 	"/>
	<polygon fill="#040000" points="13.5,34.4 17.3,35.1 16.1,30 	"/>
	<polygon fill="#040000" points="7.7,35.4 11.3,38 10.1,31.3 	"/>
	<polygon fill="#040000" points="10.1,31.3 13.5,34.4 16.1,30 	"/>
	<polygon fill="#040000" points="3.9,22.3 6.8,29.7 9,23.6 	"/>
	<polygon fill="#040000" points="6.8,29.7 7.7,35.4 10.1,31.3 	"/>
	<polygon fill="#040000" points="9,23.6 6.8,29.7 10.1,31.3 	"/>
	<polygon fill="#040000" points="32.5,26.4 25,23.3 25.1,28 	"/>
	<polygon fill="#040000" points="25.1,28 25.1,28 25,23.3 17.1,25.3 	"/>
	<polygon fill="#040000" points="16.2,11.9 14.8,19 19.7,16 	"/>
	<polygon fill="#040000" points="16.2,11.9 19.7,16 23.2,14.2 16.2,11.8 	"/>
	<polygon fill="#040000" points="19.5,19.2 23.2,14.2 19.7,16 	"/>
	<polygon fill="#040000" points="16.2,11.9 23.2,14.2 21.9,8.9 	"/>
	<polygon fill="#040000" points="21.9,8.9 18.6,7.6 17.3,7.3 16.2,11.9 	"/>
</g>
<g opacity="0.2">
	<polygon fill="#040000" points="16.3,24.9 14.1,18.7 8.3,23.2 12.1,23.7 	"/>
	<polygon fill="#040000" points="25.5,39.1 25.5,39.1 25.5,39.1 	"/>
	<polygon fill="#040000" points="24.3,27.6 24.5,27.7 24.5,27.6 	"/>
	<polygon fill="#040000" points="24.5,27.7 30.2,30.1 31.8,26.1 24.3,27.6 	"/>
	<polygon fill="#040000" points="15.4,29.6 24.3,27.6 16.3,24.9 	"/>
	<polygon fill="#040000" points="8.3,23.2 9.4,31 12.1,23.7 	"/>
	<polygon fill="#040000" points="12.1,23.7 9.4,31 16.3,24.9 	"/>
	<polygon fill="#040000" points="9.4,31 15.4,29.6 16.3,24.9 	"/>
	<polygon fill="#040000" points="15.4,11.5 15.4,11.5 15.4,11.5 	"/>
	<polygon fill="#040000" points="14.1,18.7 18.8,18.9 18.9,15.6 	"/>
	<polygon fill="#040000" points="24.2,22.9 18.8,18.9 16.3,24.9 	"/>
	<polygon fill="#040000" points="15.5,11.4 15.4,11.5 15.4,11.5 	"/>
	<polygon fill="#040000" points="16.3,24.9 18.8,18.9 14.1,18.7 	"/>
	<polygon fill="#040000" points="25.4,41.5 25.5,39.1 25.5,39.1 23.4,37.9 	"/>
	<polygon fill="#040000" points="19.7,41.4 25.4,41.5 23.4,37.9 	"/>
	<polygon fill="#040000" points="23.4,37.9 25.5,39.1 25.5,39.1 27,33.4 	"/>
	<polygon fill="#040000" points="32.6,41 36.9,36.9 31.5,37.6 	"/>
	<polygon fill="#040000" points="26.9,44.4 32.9,44.4 32.6,41 28.8,41.9 32.7,44.1 28.8,41.9 32.6,41 31.5,37.6 	"/>
	<polygon fill="#040000" points="25.5,39.1 29.9,35.5 27,33.4 	"/>
	<polygon fill="#040000" points="36.9,36.9 34.7,32.4 31.5,37.6 	"/>
	<polygon fill="#040000" points="4.2,42.8 9.8,42.8 6.3,40.3 	"/>
	<polygon fill="#040000" points="23.5,1.4 17.9,7.2 20.7,6.1 	"/>
	<polygon fill="#040000" points="18.6,3.4 13,9.2 16.6,6.9 	"/>
	<polygon fill="#040000" points="29.9,35.5 31.5,37.6 34.7,32.4 27,33.4 	"/>
	<polygon fill="#040000" points="20.7,6.1 17.9,7.2 21.1,8.5 	"/>
	<polygon fill="#040000" points="17.1,7.1 18.6,3.4 16.6,7 	"/>
	<polygon fill="#040000" points="21.1,8.5 23.5,1.4 20.7,6.1 	"/>
	<polygon fill="#040000" points="8.2,37.9 6.3,40.3 10.5,37.6 7,35 	"/>
	<polygon fill="#040000" points="8.4,17.7 8.3,23.2 14.1,18.7 	"/>
	<polygon fill="#040000" points="9.8,42.8 10.5,37.6 6.3,40.3 	"/>
	<polygon fill="#040000" points="34.7,32.4 34.4,27 30.2,30.1 	"/>
	<polygon fill="#040000" points="27,33.4 34.7,32.4 30.2,30.1 	"/>
	<polygon fill="#040000" points="30.2,30.1 34.4,27 31.8,26.1 	"/>
	<polygon fill="#040000" points="34.4,27 38.8,24.4 37.2,23.2 	"/>
	<polygon fill="#040000" points="23.9,31.4 27,33.4 30.2,30.1 	"/>
	<polygon fill="#040000" points="34.1,24.8 31.8,26.1 34.4,27 37.2,23.2 	"/>
	<polygon fill="#040000" points="20.8,33 23.9,31.4 15.4,29.6 	"/>
	<polygon fill="#040000" points="24.3,27.6 23.9,31.4 30.2,30.1 	"/>
	<polygon fill="#040000" points="24.3,27.6 15.4,29.6 23.9,31.4 	"/>
	<polygon fill="#040000" points="42.4,20.8 45.5,16.8 40.3,18.4 42.3,20.9 	"/>
	<polygon fill="#040000" points="41.3,24.9 44.6,23.7 42.3,20.9 	"/>
	<polygon fill="#040000" points="42.3,20.9 38.8,24.4 41.3,24.9 	"/>
	<polygon fill="#040000" points="37.2,23.2 38.8,24.4 40.3,18.4 	"/>
	<polygon fill="#040000" points="42.3,20.9 42.3,20.9 44.6,23.7 45.5,16.8 	"/>
	<polygon fill="#040000" points="40.3,18.4 38.8,24.4 42.3,20.9 	"/>
	<polygon fill="#040000" points="16.6,34.7 20.8,33 15.4,29.6 	"/>
	<polygon fill="#040000" points="14.1,18.7 8.5,11.8 8.4,17.7 	"/>
	<polygon fill="#040000" points="13,9 8.5,11.8 13.5,13.1 	"/>
	<polygon fill="#040000" points="13.5,13.1 8.5,11.8 14.1,18.7 	"/>
	<polygon fill="#040000" points="8.4,17.7 8.5,11.8 6.3,16.5 8.3,17.7 	"/>
	<polygon fill="#040000" points="14.1,18.7 15.4,11.5 15.4,11.5 13,9 13.5,13.1 	"/>
	<polygon fill="#040000" points="15.4,11.5 16.6,6.9 13,9 15.4,11.5 	"/>
	<polygon fill="#040000" points="6.3,16.5 3.1,21.9 8.3,17.7 	"/>
	<polygon fill="#040000" points="8.4,17.7 8.3,17.7 3.1,21.9 8.3,23.2 	"/>
	<polygon fill="#040000" points="10.5,37.6 12.8,34.1 9.4,31 	"/>
	<polygon fill="#040000" points="12.8,34.1 16.6,34.7 15.4,29.6 	"/>
	<polygon fill="#040000" points="7,35 10.5,37.6 9.4,31 	"/>
	<polygon fill="#040000" points="9.4,31 12.8,34.1 15.4,29.6 	"/>
	<polygon fill="#040000" points="3.1,21.9 6.1,29.3 8.3,23.2 	"/>
	<polygon fill="#040000" points="6.1,29.3 7,35 9.4,31 	"/>
	<polygon fill="#040000" points="8.3,23.2 6.1,29.3 9.4,31 	"/>
	<polygon fill="#040000" points="31.8,26.1 24.2,22.9 24.3,27.6 	"/>
	<polygon fill="#040000" points="24.3,27.6 24.3,27.6 24.2,22.9 16.3,24.9 	"/>
	<polygon fill="#040000" points="15.4,11.5 14.1,18.7 18.9,15.6 	"/>
	<polygon fill="#040000" points="15.4,11.5 18.9,15.6 22.5,13.8 15.4,11.5 	"/>
	<polygon fill="#040000" points="18.8,18.9 22.5,13.8 18.9,15.6 	"/>
	<polygon fill="#040000" points="15.4,11.5 22.5,13.8 21.1,8.5 	"/>
	<polygon fill="#040000" points="21.1,8.5 17.9,7.2 16.6,6.9 15.4,11.5 	"/>
</g>
<g>
	<polygon fill="#AFD9E9" points="15.3,24.5 13,18.3 6.9,22.9 10.9,23.4 	"/>
	<polygon fill="none" points="24.8,38.8 24.8,38.7 24.8,38.8 	"/>
	<polygon fill="none" stroke="#231815" stroke-width="0.8829" points="23.6,27.3 23.8,27.3 23.8,27.2 	"/>
	<polygon fill="#1E95D4" points="23.8,27.3 29.7,29.7 31.4,25.7 23.6,27.3 	"/>
	<polygon fill="#AFD9E9" points="14.3,29.3 23.6,27.3 15.3,24.5 	"/>
	<polygon fill="#1E95D4" points="6.9,22.9 8.1,30.6 10.9,23.4 	"/>
	<polygon fill="#1888CA" points="10.9,23.4 8.1,30.6 15.3,24.5 	"/>
	<polygon fill="#1E95D4" points="8.1,30.6 14.3,29.3 15.3,24.5 	"/>
	<polygon fill="none" stroke="#231815" stroke-width="0.8829" points="14.3,11.1 14.3,11.2 14.4,11.1 	"/>
	<polygon fill="#0A5DA4" points="13,18.3 17.9,18.5 18,15.2 	"/>
	<polygon fill="#1888CA" points="23.5,22.6 17.9,18.5 15.3,24.5 	"/>
	<polygon fill="none" stroke="#231815" stroke-width="0.8829" points="14.4,11.1 14.3,11.1 14.4,11.1 	"/>
	<polygon fill="#1E95D4" points="15.3,24.5 17.9,18.5 13,18.3 	"/>
	<polygon fill="#0A5DA4" points="24.7,41.1 24.8,38.8 24.8,38.8 22.6,37.5 	"/>
	<polygon fill="#00417A" points="18.7,41 24.7,41.1 22.6,37.5 	"/>
	<polygon fill="#00417A" points="22.6,37.5 24.8,38.8 24.8,38.7 26.4,33.1 	"/>
	<polygon fill="#0A5DA4" points="32.2,40.6 36.6,36.6 31.1,37.2 	"/>
	<polygon fill="#00417A" points="26.3,44 32.5,44 32.2,40.6 28.3,41.5 32.3,43.7 28.3,41.5 32.2,40.6 31.1,37.2 	"/>
	<polygon fill="#0A5DA4" points="24.8,38.7 29.4,35.2 26.4,33.1 	"/>
	<polygon fill="#00417A" points="36.6,36.6 34.4,32.1 31.1,37.2 	"/>
	<polygon fill="#00417A" points="2.6,42.5 8.5,42.5 4.8,39.9 	"/>
	<polygon fill="#1888CA" points="22.7,1.1 16.9,6.8 19.8,5.7 	"/>
	<polygon fill="#1888CA" points="17.6,3 11.8,8.8 15.5,6.6 	"/>
	<polygon fill="#1888CA" points="29.4,35.2 31.1,37.2 34.4,32.1 26.4,33.1 	"/>
	<polygon fill="#1E95D4" points="19.8,5.7 16.9,6.8 20.3,8.2 	"/>
	<polygon fill="#AFD9E9" points="16.1,6.7 17.6,3.1 15.5,6.6 	"/>
	<polygon fill="#AFD9E9" points="20.3,8.2 22.7,1.1 19.8,5.7 	"/>
	<polygon fill="#1888CA" points="6.8,37.6 4.8,39.9 9.3,37.3 5.6,34.6 	"/>
	<polygon fill="#1E95D4" points="7,17.3 6.9,22.9 13,18.3 	"/>
	<polygon fill="#0A5DA4" points="8.5,42.5 9.3,37.3 4.8,39.9 	"/>
	<polygon fill="#0A5DA4" points="34.4,32.1 34.1,26.6 29.7,29.7 	"/>
	<polygon fill="#1E95D4" points="26.4,33.1 34.4,32.1 29.7,29.7 	"/>
	<polygon fill="#1888CA" points="29.7,29.7 34.1,26.6 31.4,25.7 	"/>
	<polygon fill="#1888CA" points="34.1,26.6 38.7,24 37,22.8 	"/>
	<polygon fill="#0A5DA4" points="23.2,31 26.4,33.1 29.7,29.7 	"/>
	<polygon fill="#1E95D4" points="33.8,24.5 31.4,25.7 34.1,26.6 37,22.8 	"/>
	<polygon fill="#00417A" points="19.9,32.6 23.2,31 14.3,29.3 	"/>
	<polygon fill="#1888CA" points="23.6,27.3 23.2,31 29.7,29.7 	"/>
	<polygon fill="#0A5DA4" points="23.6,27.3 14.3,29.3 23.2,31 	"/>
	<polygon fill="#AFD9E9" points="42.4,20.5 45.7,16.4 40.3,18.1 42.3,20.5 	"/>
	<polygon fill="#1888CA" points="41.2,24.5 44.7,23.3 42.3,20.5 	"/>
	<polygon fill="#0A5DA4" points="42.3,20.5 38.6,24 41.2,24.5 	"/>
	<polygon fill="#1E95D4" points="37,22.8 38.7,24 40.3,18.1 	"/>
	<polygon fill="#1E95D4" points="42.3,20.5 42.3,20.5 44.7,23.3 45.7,16.4 	"/>
	<polygon fill="#1888CA" points="40.3,18.1 38.6,24 42.3,20.5 	"/>
	<polygon fill="#1888CA" points="15.5,34.4 19.9,32.6 14.3,29.3 	"/>
	<polygon fill="#1888CA" points="13,18.3 7.1,11.5 7,17.3 	"/>
	<polygon fill="#1888CA" points="11.8,8.6 7.1,11.5 12.3,12.7 	"/>
	<polygon fill="#1E95D4" points="12.3,12.7 7.1,11.5 13,18.3 	"/>
	<polygon fill="#1E95D4" points="7,17.3 7.1,11.5 4.8,16.2 7,17.3 	"/>
	<polygon fill="#0A5DA4" points="13,18.3 14.3,11.2 14.3,11.1 11.8,8.6 12.3,12.7 	"/>
	<polygon fill="#1E95D4" points="14.3,11.2 15.5,6.6 11.8,8.6 14.3,11.1 	"/>
	<polygon fill="#0A5DA4" points="4.8,16.2 1.5,21.6 7,17.3 	"/>
	<polygon fill="#1888CA" points="7,17.3 7,17.3 1.5,21.6 6.9,22.9 	"/>
	<polygon fill="#00417A" points="9.3,37.3 11.6,33.7 8.1,30.6 	"/>
	<polygon fill="#1E95D4" points="11.6,33.7 15.5,34.4 14.3,29.3 	"/>
	<polygon fill="#0A5DA4" points="5.6,34.6 9.3,37.3 8.1,30.6 	"/>
	<polygon fill="#0A5DA4" points="8.1,30.6 11.6,33.7 14.3,29.3 	"/>
	<polygon fill="#0A5DA4" points="1.5,21.6 4.6,28.9 6.9,22.9 	"/>
	<polygon fill="#1E95D4" points="4.6,28.9 5.6,34.6 8.1,30.6 	"/>
	<polygon fill="#1888CA" points="6.9,22.9 4.6,28.9 8.1,30.6 	"/>
	<polygon fill="#AFD9E9" points="31.4,25.7 23.5,22.6 23.6,27.3 	"/>
	<polygon fill="#1E95D4" points="23.6,27.3 23.6,27.3 23.5,22.6 15.3,24.5 	"/>
	<polygon fill="#1888CA" points="14.3,11.2 13,18.3 18,15.2 	"/>
	<polygon fill="#1E95D4" points="14.3,11.2 18,15.2 21.7,13.5 14.4,11.1 	"/>
	<polygon fill="#AFD9E9" points="17.9,18.5 21.7,13.5 18,15.2 	"/>
	<polygon fill="#AFD9E9" points="14.3,11.2 21.7,13.5 20.3,8.2 	"/>
	<polygon fill="#1888CA" points="20.3,8.2 16.9,6.8 15.5,6.6 14.3,11.2 	"/>
</g>
</svg>
