<?xml version="1.0" encoding="utf-8"?>
<!-- Generator: Adobe Illustrator 21.0.0, SVG Export Plug-In . SVG Version: 6.00 Build 0)  -->
<svg version="1.1" id="svg2" xmlns="http://www.w3.org/2000/svg" xmlns:xlink="http://www.w3.org/1999/xlink" x="0px" y="0px"
	 viewBox="0 0 48 48" style="enable-background:new 0 0 48 48;" xml:space="preserve">
<style type="text/css">
	.st0{fill:none;}
	.st1{fill:#FFFFFF;}
</style>
<title>画板 1</title>
<polygon class="st0" points="24,28.7 29.8,31.1 24.1,28.7 "/>
<line class="st0" x1="32.3" y1="44.7" x2="32.3" y2="44.7"/>
<path class="st1" d="M39.9,19.6l-3.2,4.7l-3.1,1.6L31.4,27l-7.5-3l-5.4-3.9l3.6-5L20.8,10l2.4-7l-5.6,5.6l-0.8-0.1l1.5-3.6L13,10.3
	l-0.2,0.1l-4.5,2.8l-2.2,4.6L3,23l2.9,7.2l1,5.6L8,38.7L6.1,41L4,43.5h5.6l0.7-5.1l2.3-3.5l3.7,0.6l4.2-1.6l3.1-1.6l3.1,2l-3.6,4.3
	l-3.8,3.5l5.7,0.1l0.1-2.4l4.4-3.5l1.6,2L26.6,45h5.7v-0.3l-0.1-3l4.2-4l-2.2-4.4L34,28l4.3-2.6l2.5,0.5l3.2-1.1l1-6.8L39.9,19.6z"
	/>
</svg>
