<?xml version="1.0" encoding="utf-8"?>
<!-- Generator: Adobe Illustrator 21.0.0, SVG Export Plug-In . SVG Version: 6.00 Build 0)  -->
<svg version="1.1" id="svg2" xmlns="http://www.w3.org/2000/svg" xmlns:xlink="http://www.w3.org/1999/xlink" x="0px" y="0px"
	 viewBox="0 0 48 48" style="enable-background:new 0 0 48 48;" xml:space="preserve">
<style type="text/css">
	.st0{opacity:8.000000e-02;enable-background:new    ;}
	.st1{opacity:0.1;enable-background:new    ;}
	.st2{opacity:0.2;enable-background:new    ;}
	.st3{fill:#B2DEF0;}
	.st4{fill:none;stroke:#231815;stroke-width:0.88;}
	.st5{fill:#009FE8;}
	.st6{fill:#0091DA;}
	.st7{fill:#0062B0;}
	.st8{fill:#004380;}
</style>
<title>48</title>
<g id="_48">
	<path class="st0" d="M27.6,48c-1.1,0-2-0.9-2-2c0-0.3,0.1-0.5,0.2-0.8l-5.4-0.1c-1.1,0-2-0.9-2-2c0-0.5,0.2-1.1,0.6-1.4l3.7-3.5
		l2-2.5l-0.2-0.1l-2.1,1.1l-0.2,0.1L18,38.4c-0.2,0.1-0.5,0.1-0.7,0.1c-0.1,0-0.2,0-0.4,0l-2.4-0.4l-1.3,2l-0.7,4.7
		c-0.1,1-1,1.7-2,1.7H5c-1.1,0-2-0.9-2-2c0-0.5,0.2-0.9,0.5-1.3l2.1-2.5l1.1-1.4L6,37.6c-0.1-0.1-0.1-0.3-0.1-0.4L5,31.8l-2.8-7
		C1.9,24.2,2,23.5,2.3,23l3.1-5.3l2.1-4.4c0.2-0.3,0.4-0.6,0.7-0.8l4.4-2.9l0.3-0.1l4.9-5c0.7-0.7,1.7-0.8,2.5-0.3
		c0.2,0.1,0.3,0.2,0.4,0.4l2-2c0.8-0.8,2-0.8,2.8,0c0.5,0.5,0.7,1.3,0.5,2.1L23.9,11l1.2,4.6c0.2,0.6,0,1.2-0.3,1.7l-2.4,3.4
		l3.5,2.6l6.4,2.6l1.4-0.7l2.6-1.4l2.9-4.3c0.2-0.4,0.6-0.6,1-0.8l5.1-1.6c0.2,0,0.4-0.1,0.7,0c1.1,0,2,0.9,2,2c0,0.1,0,0.2,0,0.3
		L47,26c-0.1,0.7-0.6,1.4-1.3,1.6l-3.3,1.2c-0.3,0.1-0.7,0.1-1,0.1l-1.7-0.3L37,30.1l0.1,3.7l2,4c0.4,0.8,0.2,1.8-0.4,2.4l-3.5,3.3
		l0.1,2.4c0.1,1.1-0.8,2.1-1.9,2.1c0,0-0.1,0-0.1,0H27.6z"/>
	<path class="st1" d="M27.6,47c-0.6,0-1-0.4-1-1c0-0.2,0.1-0.4,0.2-0.6l4.1-6.1l-0.5-0.7l-3.3,2.7L27,43.3c0,0.6-0.4,1-1,1l-5.7-0.1
		c-0.6,0-1-0.5-1-1c0-0.3,0.1-0.5,0.3-0.7l3.7-3.5l2.8-3.4l-1.6-1.1l-2.6,1.3h-0.1l-4.1,1.6c-0.1,0-0.2,0.1-0.4,0.1h-0.2L14,37
		l-1.8,2.8l-0.7,4.8c-0.1,0.5-0.5,0.9-1,0.8H5c-0.6,0-1-0.4-1-1c0-0.2,0.1-0.5,0.2-0.7l2.1-2.5l1.5-1.8L7,37.2
		c0-0.1-0.1-0.1-0.1-0.2l-0.9-5.5l-2.9-7C3,24.1,3,23.8,3.1,23.5l3.1-5.3l2.2-4.5c0.1-0.2,0.2-0.3,0.4-0.4l4.4-2.9l0.3-0.2l5-5.1
		c0.4-0.4,1-0.4,1.4,0c0.3,0.3,0.4,0.7,0.2,1.1L20,6.8l3.5-3.5c0.4-0.4,1-0.4,1.4,0c0.2,0.3,0.3,0.6,0.2,1L22.8,11l1.3,4.9
		c0.1,0.3,0,0.6-0.2,0.8l-3,4.2l4.4,3.3l7,2.8l1.8-0.9l2.8-1.5l3-4.5c0.1-0.2,0.3-0.3,0.5-0.4l5.2-1.7c0.5-0.2,1.1,0.1,1.3,0.6
		c0.1,0.2,0.1,0.3,0,0.5l-1,6.8c-0.1,0.4-0.3,0.7-0.7,0.8l-3.3,1.1c-0.1,0-0.2,0.1-0.3,0.1h-0.2l-2-0.4L36,29.6l0.2,4.5l2.1,4.2
		c0.2,0.4,0.1,0.9-0.2,1.2l-3.9,3.6l0.2,2.9c0,0.6-0.4,1-0.9,1.1c0,0,0,0-0.1,0L27.6,47z"/>
	<path class="st2" d="M26.6,46c-0.6,0-1-0.4-1-1c0-0.2,0.1-0.4,0.2-0.6l4.1-6.1l-0.5-0.7l-3.3,2.7L26,42.3c0,0.6-0.4,1-1,1l-5.7-0.1
		c-0.6,0-1-0.5-1-1c0-0.3,0.1-0.5,0.3-0.7l3.7-3.5l2.8-3.4l-1.6-1.1l-2.6,1.3h-0.1l-4.1,1.6c-0.1,0-0.2,0.1-0.4,0.1h-0.2L13,36
		l-1.8,2.8l-0.7,4.8c-0.1,0.5-0.5,0.9-1,0.8H4c-0.6,0-1-0.4-1-1c0-0.2,0.1-0.5,0.2-0.7l2.1-2.5l1.5-1.8L6,36.2
		c0-0.1-0.1-0.1-0.1-0.2l-0.9-5.5l-2.9-7C2,23.1,2,22.8,2.1,22.5l3.1-5.3l2.2-4.5c0.1-0.2,0.2-0.3,0.4-0.4l4.4-2.9l0.3-0.2l5-5.1
		c0.4-0.4,1-0.4,1.4,0c0.3,0.3,0.4,0.7,0.2,1.1L19,5.8l3.5-3.5c0.4-0.4,1-0.4,1.4,0c0.2,0.3,0.3,0.6,0.2,1L21.8,10l1.3,4.9
		c0.1,0.3,0,0.6-0.2,0.8l-3,4.2l4.4,3.3l7,2.8l1.8-0.9l2.8-1.5l3-4.5c0.1-0.2,0.3-0.3,0.5-0.4l5.2-1.7c0.5-0.2,1.1,0.1,1.3,0.6
		c0.1,0.2,0.1,0.3,0,0.5l-1,6.8c-0.1,0.4-0.3,0.7-0.7,0.8l-3.3,1.1c-0.1,0-0.2,0.1-0.3,0.1h-0.2l-2-0.4L35,28.6l0.2,4.5l2.1,4.2
		c0.2,0.4,0.1,0.9-0.2,1.2l-3.9,3.6l0.2,2.9c0,0.6-0.4,1-0.9,1.1c0,0,0,0-0.1,0L26.6,46z"/>
	<g id="_48-2">
		<polygon class="st3" points="16,25.9 13.8,19.9 8.1,24.3 11.8,24.9 		"/>
		<polygon class="st4" points="24,28.7 24.1,28.7 24.1,28.6 		"/>
		<polygon class="st5" points="24.1,28.7 29.8,31.1 31.4,27 24,28.7 		"/>
		<polygon class="st3" points="15.1,30.6 24,28.7 16,25.9 		"/>
		<polygon class="st5" points="8.1,24.3 9.2,31.9 11.8,24.9 		"/>
		<polygon class="st6" points="11.8,24.9 9.2,31.9 16,25.9 		"/>
		<polygon class="st5" points="9.2,31.9 15.1,30.6 16,25.9 		"/>
		<polygon class="st7" points="13.8,19.9 18.5,20.1 18.6,16.8 		"/>
		<polygon class="st6" points="23.9,24 18.5,20.1 16,25.9 		"/>
		<polygon class="st5" points="16,25.9 18.5,20.1 13.8,19.9 		"/>
		<polygon class="st7" points="25,42.2 25.1,39.8 25.1,39.8 23.1,38.6 		"/>
		<polygon class="st8" points="19.3,42.1 25,42.2 23.1,38.6 		"/>
		<polygon class="st8" points="23.1,38.6 25.1,39.8 25.1,39.8 26.7,34.3 		"/>
		<polygon class="st7" points="32.2,41.7 36.4,37.7 31.1,38.3 		"/>
		<polygon class="st8" points="26.6,45 32.3,45 32.2,41.7 28.4,42.5 32.3,44.7 28.4,42.5 32.2,41.7 31.1,38.3 		"/>
		<polygon class="st7" points="25.1,39.8 29.5,36.3 26.7,34.3 		"/>
		<polygon class="st8" points="36.4,37.7 34.2,33.3 31.1,38.3 		"/>
		<polygon class="st8" points="4,43.5 9.6,43.5 6.1,41 		"/>
		<polygon class="st6" points="23.2,3 17.6,8.6 20.4,7.6 		"/>
		<polygon class="st6" points="18.3,4.9 12.8,10.5 16.3,8.4 		"/>
		<polygon class="st6" points="29.5,36.3 31.1,38.3 34.2,33.3 26.7,34.3 		"/>
		<polygon class="st5" points="20.4,7.6 17.6,8.6 20.8,10 		"/>
		<polygon class="st3" points="16.8,8.5 18.3,4.9 16.3,8.4 		"/>
		<polygon class="st3" points="20.8,10 23.2,3 20.4,7.6 		"/>
		<polygon class="st6" points="8,38.7 6.1,41 10.3,38.4 6.9,35.8 		"/>
		<polygon class="st5" points="8.2,18.8 8.1,24.3 13.8,19.9 		"/>
		<polygon class="st7" points="9.6,43.5 10.3,38.4 6.1,41 		"/>
		<polygon class="st7" points="34.2,33.3 34,28 29.8,31.1 		"/>
		<polygon class="st5" points="26.7,34.3 34.2,33.3 29.8,31.1 		"/>
		<polygon class="st6" points="29.8,31.1 34,28 31.4,27 		"/>
		<polygon class="st6" points="34,28 38.3,25.4 36.7,24.3 		"/>
		<polygon class="st7" points="23.6,32.3 26.7,34.3 29.8,31.1 		"/>
		<polygon class="st5" points="33.6,25.9 31.4,27 34,28 36.7,24.3 		"/>
		<polygon class="st8" points="20.5,33.9 23.6,32.3 15.1,30.6 		"/>
		<polygon class="st6" points="24,28.7 23.6,32.3 29.8,31.1 		"/>
		<polygon class="st7" points="24,28.7 15.1,30.6 23.6,32.3 		"/>
		<polygon class="st3" points="41.8,22 45,18 39.9,19.6 		"/>
		<polygon class="st6" points="40.8,25.9 44,24.8 41.8,22 		"/>
		<polygon class="st7" points="41.8,22 38.2,25.4 40.8,25.9 		"/>
		<polygon class="st5" points="36.7,24.3 38.3,25.4 39.9,19.6 		"/>
		<polygon class="st5" points="41.8,22 41.8,22 44,24.8 45,18 		"/>
		<polygon class="st6" points="39.9,19.6 38.2,25.4 41.8,22 		"/>
		<polygon class="st6" points="16.3,35.5 20.5,33.9 15.1,30.6 		"/>
		<polygon class="st6" points="13.8,19.9 8.3,13.2 8.2,18.8 		"/>
		<polygon class="st6" points="12.8,10.4 8.3,13.2 13.2,14.4 		"/>
		<polygon class="st5" points="13.2,14.4 8.3,13.2 13.8,19.9 		"/>
		<polygon class="st5" points="8.2,18.8 8.3,13.2 6.1,17.8 8.1,18.8 		"/>
		<polygon class="st7" points="13.8,19.9 15.2,12.8 15.2,12.8 12.8,10.4 13.2,14.4 		"/>
		<polygon class="st5" points="15.2,12.8 16.3,8.4 12.8,10.4 		"/>
		<polygon class="st7" points="6.1,17.8 3,23 8.1,18.8 		"/>
		<polygon class="st6" points="8.2,18.8 8.1,18.8 3,23 8.1,24.3 		"/>
		<polygon class="st8" points="10.3,38.4 12.6,34.9 9.2,31.9 		"/>
		<polygon class="st5" points="12.6,34.9 16.3,35.5 15.1,30.6 		"/>
		<polygon class="st7" points="6.9,35.8 10.3,38.4 9.2,31.9 		"/>
		<polygon class="st7" points="9.2,31.9 12.6,34.9 15.1,30.6 		"/>
		<polygon class="st7" points="3,23 5.9,30.2 8.1,24.3 		"/>
		<polygon class="st5" points="5.9,30.2 6.9,35.8 9.2,31.9 		"/>
		<polygon class="st6" points="8.1,24.3 5.9,30.2 9.2,31.9 		"/>
		<polygon class="st3" points="31.4,27 23.9,24 24,28.7 		"/>
		<polygon class="st5" points="24,28.7 24,28.7 23.9,24 16,25.9 		"/>
		<polygon class="st6" points="15.2,12.8 13.8,19.9 18.6,16.8 		"/>
		<polygon class="st5" points="15.2,12.8 18.6,16.8 22.1,15.1 		"/>
		<polygon class="st3" points="18.5,20.1 22.1,15.1 18.6,16.8 		"/>
		<polygon class="st3" points="15.2,12.8 22.1,15.1 20.8,10 		"/>
		<polygon class="st6" points="20.8,10 17.6,8.6 16.3,8.4 15.2,12.8 		"/>
	</g>
</g>
</svg>
