<?xml version="1.0" encoding="utf-8"?>
<!-- Generator: Adobe Illustrator 17.1.0, SVG Export Plug-In . SVG Version: 6.00 Build 0)  -->
<!DOCTYPE svg PUBLIC "-//W3C//DTD SVG 1.1//EN" "http://www.w3.org/Graphics/SVG/1.1/DTD/svg11.dtd">
<svg version="1.1"
	 id="svg2" inkscape:export-filename="/media/Data/Main/Visuals/Icons/Numix/Desktop/repos/numix-wiki/Gjorgi/Numix-folders/48/New/folder-144.png" xmlns:svg="http://www.w3.org/2000/svg" xmlns:sodipodi="http://sodipodi.sourceforge.net/DTD/sodipodi-0.dtd" xmlns:inkscape="http://www.inkscape.org/namespaces/inkscape" xmlns:dc="http://purl.org/dc/elements/1.1/" xmlns:cc="http://creativecommons.org/ns#" xmlns:rdf="http://www.w3.org/1999/02/22-rdf-syntax-ns#" inkscape:export-ydpi="270" inkscape:export-xdpi="270" sodipodi:docname="user-home.svg" inkscape:version="0.48.4 r9939"
	 xmlns="http://www.w3.org/2000/svg" xmlns:xlink="http://www.w3.org/1999/xlink" x="0px" y="0px" width="48px" height="48px"
	 viewBox="0 0 48 48" enable-background="new 0 0 48 48" xml:space="preserve">
<path opacity="8.000000e-002" d="M8.5,48l-0.6-1c-0.2-0.3-4.4-7.3-4.4-16.4c0-7.8,2.8-15.2,3.5-17.1L3.5,13l1.5-9.4l11,1.8l0.6-3.8
	l19.8,3.2l-0.6,3.8l11,1.8l-1.6,9.3l-2.1-0.3c1,3.9,1.6,7.6,1.6,11.2c0,9.1-4.2,16.1-4.4,16.4l-0.6,1H8.5z"/>
<path opacity="9.999999e-002" d="M9,47l-0.3-0.5c-0.2-0.3-4.3-7.1-4.3-15.9c0-8.7,3.5-16.8,3.6-17.1l0.3-0.6h0.9l-4.6-0.7l1.2-7.4
	l11,1.8l0.6-3.8l17.9,2.9l-0.6,3.8l11,1.8l-1.3,7.4l-2.7-0.4c1,3.3,2,7.7,2,12.5c0,8.8-4.1,15.6-4.3,15.9L39.2,47H9z"/>
<path opacity="0.2" d="M8,46l-0.3-0.5c-0.2-0.3-4.3-7.1-4.3-15.9c0-8.7,3.5-16.8,3.6-17.1l0.3-0.6h0.9l-4.6-0.7l1.2-7.4l11,1.8
	l0.6-3.8l17.9,2.9l-0.6,3.8l11,1.8l-1.3,7.4l-2.7-0.4c1,3.3,2,7.7,2,12.5c0,8.8-4.1,15.6-4.3,15.9L38.2,46H8z"/>
<path fill="#606061" d="M8.6,45c0,0-4.1-6.7-4.1-15.3C4.5,21.1,8,12.9,8,12.9h1.3l0.2-0.1l0.4-1.6l-5.2-0.8L5.7,5l11,1.8l0.6-3.8
	l15.9,2.6l-0.6,3.8l11,1.8l-0.9,5.4l-3.3-0.5c1,3,2.4,8.1,2.4,13.7c0,8.6-4.1,15.3-4.1,15.3H8.6z M29.2,8.8l0.2-1.3L20.3,6l-0.2,1.3
	L29.2,8.8z"/>
<g>
	<g>
		<polygon fill="#9E9E9E" points="29.6,13.8 16.6,7.7 11.3,10.5 11.6,13.9 13.3,15.6 21.4,14.7 		"/>
		<polygon fill="#E0E0E0" points="18.3,11.2 17.4,11.7 16.7,13.6 15.4,12.6 15,11.4 15.1,10.7 16.7,10.9 		"/>
		<polygon fill="#E0E0E0" points="21.7,11.8 21.6,11.8 21.5,12.5 21.7,13.5 21.7,13.5 21.8,13.5 23.2,12 		"/>
		<polygon fill="#E0E0E0" points="24.8,13.5 24.8,13.5 25,13.2 25.5,12.8 25.5,12.8 25.6,12.8 25.9,13.3 		"/>
		<polygon fill="#E0E0E0" points="17.8,13.4 17.7,13.4 18.4,12.5 20.1,11.2 20.1,11.2 20.3,11.2 21.1,13.6 		"/>
		<polygon fill="#E0E0E0" points="9,13.8 10,13.1 10.5,11.4 12.3,12 12.9,13 12.9,13.6 10.9,13.7 		"/>
		<polygon fill="#9E9E9E" points="10.9,13.7 11.1,13.7 11,12.7 10.6,11.4 10.6,11.4 10.5,11.4 10,13.1 9,13.8 		"/>
		<polygon fill="#E0E0E0" points="15.1,11.8 14.7,12.2 14.3,12.1 13.9,12.6 13.8,13.2 13.7,13.7 14,13.5 14.6,12.9 15.2,12.5 		"/>
		<path fill="#E0E0E0" d="M11.6,10.2L12,11c0,0,0,0.3,0.4,0.3c0.4,0.1,2.3,0.1,2.3,0.1l0.4-0.8L11.6,10.2z"/>
	</g>
	
		<linearGradient id="SVGID_1_" gradientUnits="userSpaceOnUse" x1="4.9775" y1="165.0288" x2="41.228" y2="165.0288" gradientTransform="matrix(1 0 0 -1 0 194)">
		<stop  offset="4.840000e-002" style="stop-color:#CED7DB"/>
		<stop  offset="0.1017" style="stop-color:#C4CDD2"/>
		<stop  offset="0.2688" style="stop-color:#A7B5BC"/>
		<stop  offset="0.4093" style="stop-color:#94A6B0"/>
		<stop  offset="0.5054" style="stop-color:#8DA1AB"/>
		<stop  offset="1" style="stop-color:#CED7DB"/>
	</linearGradient>
	<path fill="url(#SVGID_1_)" d="M37.8,13.4H23.1H8.4c0,0-3.4,7.6-3.4,16.2s3.9,14.8,3.9,14.8h14.2h14.2c0,0,3.9-6.3,3.9-14.8
		S37.8,13.4,37.8,13.4z"/>
	<path opacity="0.3" fill="#5E7B88" enable-background="new    " d="M7.8,15h30.7c-0.3-0.9-0.6-1.5-0.6-1.5H8.4
		C8.3,13.5,8.1,14.1,7.8,15z"/>
	<path opacity="0.45" fill="#5E7B88" enable-background="new    " d="M24.2,13.4l14.7,2.9c-0.2-0.7-0.4-1.2-0.6-1.7l-11.2-1.2
		L24.2,13.4z"/>
	<polygon opacity="0.33" fill="#263137" enable-background="new    " points="11.3,11 24.1,13.4 27.1,13.4 11.3,10.9 	"/>
	<g>
		
			<rect x="5.5" y="8.5" transform="matrix(-0.9871 -0.1599 0.1599 -0.9871 46.4029 25.1812)" fill="#5E7B88" width="37.4" height="4.5"/>
		
			<linearGradient id="SVGID_2_" gradientUnits="userSpaceOnUse" x1="3.0318" y1="166.219" x2="40.4216" y2="166.219" gradientTransform="matrix(0.9871 0.1599 0.1599 -0.9871 -23.7854 171.1565)">
			<stop  offset="4.840000e-002" style="stop-color:#5E7B88"/>
			<stop  offset="0.2473" style="stop-color:#5E7B88"/>
			<stop  offset="0.5054" style="stop-color:#445962"/>
			<stop  offset="0.7419" style="stop-color:#5E7B88"/>
			<stop  offset="1" style="stop-color:#5E7B88"/>
		</linearGradient>
		<polygon opacity="0.65" fill="url(#SVGID_2_)" enable-background="new    " points="42.4,15.6 5.5,9.6 6.1,5.5 43,11.5 		"/>
		<polygon fill="#5E7B88" points="17.7,3.5 17.1,7.3 19.5,7.7 19.9,5.1 30,6.7 29.6,9.3 32,9.7 32.6,5.9 		"/>
		
			<linearGradient id="SVGID_3_" gradientUnits="userSpaceOnUse" x1="14.1814" y1="170.2111" x2="29.2776" y2="170.2111" gradientTransform="matrix(0.9871 0.1599 0.1599 -0.9871 -23.7854 171.1565)">
			<stop  offset="4.840000e-002" style="stop-color:#445962"/>
			<stop  offset="0.1347" style="stop-color:#4D646E"/>
			<stop  offset="0.2908" style="stop-color:#5A7581"/>
			<stop  offset="0.3978" style="stop-color:#5E7B88"/>
			<stop  offset="0.6129" style="stop-color:#5E7B88"/>
			<stop  offset="1" style="stop-color:#445962"/>
		</linearGradient>
		<polygon fill="url(#SVGID_3_)" points="17.7,3.5 17.1,7.3 19.5,7.7 19.9,5.1 30,6.7 29.6,9.3 32,9.7 32.6,5.9 		"/>
		
			<rect x="19.9" y="5.9" transform="matrix(-0.9871 -0.1599 0.1599 -0.9871 48.6404 16.0306)" fill="#445962" width="10.2" height="0.4"/>
		
			<rect x="5.2" y="12.6" transform="matrix(-0.9871 -0.1599 0.1599 -0.9871 45.4294 29.1852)" fill="#445962" width="37.4" height="0.3"/>
	</g>
	<g>
		<g>
			<path fill="#5E7B88" d="M13.6,42.1h-2.9c0,0-2.6-6-2.6-13.1s2.6-11.4,2.6-11.4h2.9c0,0-2.6,3.1-2.6,11.4
				C11,37.3,13.6,42.1,13.6,42.1z"/>
			<path fill="#CED7DB" d="M10.6,41.8c0.1,0.2,0.1,0.3,0.1,0.3h2.9c0,0-0.1-0.1-0.1-0.3H10.6z"/>
			<path fill="#536B75" d="M13.2,18.1c0.2-0.4,0.4-0.6,0.4-0.6h-2.9c0,0-0.1,0.2-0.3,0.6H13.2z"/>
		</g>
		<g>
			<path fill="#5E7B88" d="M20.8,42.1h-2.9c0,0-1.9-6-1.9-13.1s1.9-11.4,1.9-11.4h2.9c0,0-1.9,3.1-1.9,11.4
				C18.9,37.3,20.8,42.1,20.8,42.1z"/>
			<path fill="#CED7DB" d="M17.8,41.8c0.1,0.2,0.1,0.3,0.1,0.3h2.9c0,0,0-0.1-0.1-0.3H17.8z"/>
			<path fill="#536B75" d="M20.5,18.1c0.2-0.4,0.3-0.6,0.3-0.6h-2.9c0,0-0.1,0.2-0.2,0.6H20.5z"/>
		</g>
		<g>
			<path fill="#5E7B88" d="M32.6,42.1h2.9c0,0,2.6-6,2.6-13.1s-2.6-11.4-2.6-11.4h-2.9c0,0,2.6,3.1,2.6,11.4
				C35.2,37.3,32.6,42.1,32.6,42.1z"/>
			<path fill="#CED7DB" d="M35.6,41.8c-0.1,0.2-0.1,0.3-0.1,0.3h-2.9c0,0,0.1-0.1,0.1-0.3H35.6z"/>
			<path fill="#536B75" d="M33,18.1c-0.2-0.4-0.4-0.6-0.4-0.6h2.9c0,0,0.1,0.2,0.3,0.6H33z"/>
		</g>
		<g>
			<path fill="#5E7B88" d="M25.5,42.1h2.9c0,0,1.9-6,1.9-13.1s-1.9-11.4-1.9-11.4h-2.9c0,0,1.9,3.1,1.9,11.4
				C27.3,37.3,25.5,42.1,25.5,42.1z"/>
			<path fill="#CED7DB" d="M28.4,41.8c-0.1,0.2-0.1,0.3-0.1,0.3h-2.9c0,0,0-0.1,0.1-0.3H28.4z"/>
			<path fill="#536B75" d="M25.7,18.1c-0.2-0.4-0.3-0.6-0.3-0.6h2.9c0,0,0.1,0.2,0.2,0.6H25.7z"/>
		</g>
	</g>
</g>
</svg>
