<?xml version="1.0" encoding="utf-8"?>
<!-- Generator: Adobe Illustrator 17.1.0, SVG Export Plug-In . SVG Version: 6.00 Build 0)  -->
<!DOCTYPE svg PUBLIC "-//W3C//DTD SVG 1.1//EN" "http://www.w3.org/Graphics/SVG/1.1/DTD/svg11.dtd">
<svg version="1.1"
	 id="svg2" inkscape:export-filename="/media/Data/Main/Visuals/Icons/Numix/Desktop/repos/numix-wiki/Gjorgi/Numix-folders/48/New/folder-144.png" xmlns:svg="http://www.w3.org/2000/svg" xmlns:sodipodi="http://sodipodi.sourceforge.net/DTD/sodipodi-0.dtd" xmlns:inkscape="http://www.inkscape.org/namespaces/inkscape" xmlns:dc="http://purl.org/dc/elements/1.1/" xmlns:cc="http://creativecommons.org/ns#" xmlns:rdf="http://www.w3.org/1999/02/22-rdf-syntax-ns#" inkscape:export-ydpi="270" inkscape:export-xdpi="270" sodipodi:docname="user-home.svg" inkscape:version="0.48.4 r9939"
	 xmlns="http://www.w3.org/2000/svg" xmlns:xlink="http://www.w3.org/1999/xlink" x="0px" y="0px" width="48px" height="48px"
	 viewBox="0 0 48 48" enable-background="new 0 0 48 48" xml:space="preserve">
<polygon opacity="8.000000e-002" points="6.2,48 6.2,15.4 3.8,15.4 3.8,5.9 14.9,5.9 14.9,2 35.1,2 35.1,5.9 46.2,5.9 46.2,15.4 
	43.8,15.4 43.8,48 "/>
<polygon opacity="9.999999e-002" points="7.2,47 7.2,14.4 4.8,14.4 4.8,6.9 15.9,6.9 15.9,3 34.1,3 34.1,6.9 45.2,6.9 45.2,14.4 
	42.8,14.4 42.8,47 "/>
<polygon opacity="0.2" points="6.2,46 6.2,13.4 3.8,13.4 3.8,5.9 14.9,5.9 14.9,2 33.1,2 33.1,5.9 44.2,5.9 44.2,13.4 41.8,13.4 
	41.8,46 "/>
<path fill="#606061" d="M7.2,45V12.4H4.8V6.9h11.2V3h16.1v3.9h11.2v5.5h-2.4V45H7.2z M28.6,6.9V5.5h-9.3v1.3H28.6z"/>
<g>
	<g>
		
			<linearGradient id="SVGID_1_" gradientUnits="userSpaceOnUse" x1="7.6683" y1="-39.8317" x2="40.3317" y2="-39.8317" gradientTransform="matrix(1 0 0 1 0 68)">
			<stop  offset="4.840000e-002" style="stop-color:#CED7DB"/>
			<stop  offset="0.1017" style="stop-color:#C4CDD2"/>
			<stop  offset="0.2688" style="stop-color:#A7B5BC"/>
			<stop  offset="0.4093" style="stop-color:#94A6B0"/>
			<stop  offset="0.5054" style="stop-color:#8DA1AB"/>
			<stop  offset="1" style="stop-color:#CED7DB"/>
		</linearGradient>
		<rect x="7.7" y="11.8" fill="url(#SVGID_1_)" width="32.7" height="32.7"/>
		<rect x="7.7" y="11.8" opacity="0.3" fill="#5E7B88" enable-background="new    " width="32.7" height="1.5"/>
		<g>
			<rect x="34.1" y="18.1" fill="#5E7B88" width="2.9" height="24"/>
			<rect x="26.9" y="18.1" fill="#5E7B88" width="2.9" height="24"/>
			<rect x="18.2" y="18.1" fill="#5E7B88" width="2.9" height="24"/>
			<rect x="11" y="18.1" fill="#5E7B88" width="2.9" height="24"/>
			<rect x="34.1" y="17.5" fill="#536B75" width="2.9" height="0.6"/>
			<rect x="26.9" y="17.5" fill="#536B75" width="2.9" height="0.6"/>
			<rect x="18.2" y="17.5" fill="#536B75" width="2.9" height="0.6"/>
			<rect x="11" y="17.5" fill="#536B75" width="2.9" height="0.6"/>
			<rect x="34.1" y="41.8" fill="#CED7DB" width="2.9" height="0.3"/>
			<rect x="26.9" y="41.8" fill="#CED7DB" width="2.9" height="0.3"/>
			<rect x="18.2" y="41.8" fill="#CED7DB" width="2.9" height="0.3"/>
			<rect x="11" y="41.8" fill="#CED7DB" width="2.9" height="0.3"/>
		</g>
	</g>
	<rect x="5.3" y="7.4" fill="#5E7B88" width="37.5" height="4.5"/>
	
		<linearGradient id="SVGID_2_" gradientUnits="userSpaceOnUse" x1="5.2594" y1="-58.555" x2="42.7233" y2="-58.555" gradientTransform="matrix(1 0 0 1 0 68)">
		<stop  offset="4.840000e-002" style="stop-color:#5E7B88"/>
		<stop  offset="0.2473" style="stop-color:#5E7B88"/>
		<stop  offset="0.5054" style="stop-color:#445962"/>
		<stop  offset="0.7419" style="stop-color:#5E7B88"/>
		<stop  offset="1" style="stop-color:#5E7B88"/>
	</linearGradient>
	<rect x="5.3" y="7.4" opacity="0.65" fill="url(#SVGID_2_)" enable-background="new    " width="37.5" height="4.1"/>
	<polygon fill="#5E7B88" points="16.4,3.5 16.4,7.4 18.9,7.4 18.9,4.7 29.1,4.7 29.1,7.4 31.6,7.4 31.6,3.5 	"/>
	
		<linearGradient id="SVGID_3_" gradientUnits="userSpaceOnUse" x1="16.4488" y1="-62.5611" x2="31.5677" y2="-62.5611" gradientTransform="matrix(1 0 0 1 0 68)">
		<stop  offset="4.840000e-002" style="stop-color:#445962"/>
		<stop  offset="0.1347" style="stop-color:#4D646E"/>
		<stop  offset="0.2908" style="stop-color:#5A7581"/>
		<stop  offset="0.3978" style="stop-color:#5E7B88"/>
		<stop  offset="0.6129" style="stop-color:#5E7B88"/>
		<stop  offset="1" style="stop-color:#445962"/>
	</linearGradient>
	<polygon fill="url(#SVGID_3_)" points="16.4,3.5 16.4,7.4 18.9,7.4 18.9,4.7 29.1,4.7 29.1,7.4 31.6,7.4 31.6,3.5 	"/>
	<rect x="18.9" y="4.7" fill="#445962" width="10.3" height="0.4"/>
	<rect x="5.3" y="11.5" fill="#445962" width="37.5" height="0.3"/>
</g>
</svg>
