<?xml version="1.0" encoding="utf-8"?>
<!-- Generator: Adobe Illustrator 21.0.0, SVG Export Plug-In . SVG Version: 6.00 Build 0)  -->
<svg version="1.1" id="图层_39" xmlns="http://www.w3.org/2000/svg" xmlns:xlink="http://www.w3.org/1999/xlink" x="0px" y="0px"
	 viewBox="0 0 48 48" style="enable-background:new 0 0 48 48;" xml:space="preserve">
<style type="text/css">
	.st0{fill:url(#SVGID_1_);}
	.st1{opacity:0.2;enable-background:new    ;}
	.st2{opacity:0.08;enable-background:new    ;}
	.st3{opacity:0.1;enable-background:new    ;}
	.st4{fill:#F57F17;}
	.st5{fill:url(#SVGID_2_);}
</style>
<title>user-bookmarks48</title>
<radialGradient id="SVGID_1_" cx="286.1066" cy="1017.5645" r="27.8804" gradientTransform="matrix(0.72 0 0 0.72 -181.98 -708.5384)" gradientUnits="userSpaceOnUse">
	<stop  offset="0" style="stop-color:#FFFF00"/>
	<stop  offset="0.06" style="stop-color:#FFFC09"/>
	<stop  offset="0.34" style="stop-color:#FDEF2E"/>
	<stop  offset="0.6" style="stop-color:#FBE54A"/>
	<stop  offset="0.83" style="stop-color:#FADF5A"/>
	<stop  offset="1" style="stop-color:#FADD60"/>
</radialGradient>
<path class="st0" d="M44.5,19.6c0.1-0.1,0.1-0.2,0-0.2h-0.1l-13.9-2c-0.1,0-0.1,0-0.1-0.1L24.1,4.6c0-0.1-0.1-0.1-0.2-0.1
	c0,0-0.1,0-0.1,0.1l-6.2,12.6l-0.1,0.1l-13.9,2c-0.1,0-0.2,0.1-0.1,0.2v0.1l10,9.8v0.1l-2.3,13.8c0,0.1,0,0.2,0.1,0.2h0.1L23.9,37
	c0,0,0.1,0,0.2,0l12.4,6.5c0.1,0,0.2,0,0.2-0.1v-0.1l-2.4-13.8v-0.1L44.5,19.6z"/>
<path class="st1" d="M36.2,45l-0.4-0.2L24,38.6L11.9,45h-0.4c-0.5,0-1-0.2-1.4-0.6c-0.3-0.4-0.5-0.9-0.4-1.3L12,29.9l-9.5-9.3
	c-0.7-0.6-0.7-1.7,0-2.4c0.3-0.3,0.6-0.4,1-0.5l13.2-1.9l5.9-11.9C23,3.1,24,2.7,24.8,3.1c0.3,0.2,0.6,0.4,0.8,0.8l5.9,11.9
	l13.2,1.9c0.9,0.1,1.5,1,1.4,1.9c-0.1,0.4-0.2,0.7-0.5,1L36,29.9L38.2,43c0.2,0.9-0.4,1.8-1.3,2c-0.1,0-0.2,0-0.3,0H36.2z"/>
<path class="st2" d="M37,47l-0.5-0.2l-11.5-6L13.2,47h-0.7c-0.8,0-1.6-0.4-2.1-1s-0.7-1.4-0.6-2.2L12,31.3l-9.2-8.9
	c-1.1-1-1.1-2.7-0.1-3.8c0.4-0.4,1-0.7,1.5-0.8L16.9,16l5.7-11.5c0.7-1.3,2.3-1.9,3.6-1.2c0.5,0.3,1,0.7,1.2,1.2L33.1,16l12.7,1.8
	c1.5,0.2,2.5,1.6,2.3,3c-0.1,0.6-0.4,1.1-0.8,1.5l-9.3,9l2.2,12.6c0.3,1.5-0.7,2.8-2.2,3.1c-0.1,0-0.3,0-0.4,0H37z"/>
<path class="st3" d="M37.2,46l-0.4-0.2L25,39.6L12.9,46h-0.4c-0.5,0-1-0.2-1.4-0.6c-0.3-0.4-0.5-0.9-0.4-1.3L13,30.9l-9.5-9.3
	c-0.7-0.6-0.7-1.7,0-2.4c0.3-0.3,0.6-0.4,1-0.5l13.2-1.9l5.9-11.9C24,4.1,25,3.7,25.8,4.1c0.3,0.2,0.6,0.4,0.8,0.8l5.9,11.9
	l13.2,1.9c0.9,0.1,1.5,1,1.4,1.9c-0.1,0.4-0.2,0.7-0.5,1L37,30.9L39.2,44c0.2,0.9-0.4,1.8-1.3,2c-0.1,0-0.2,0-0.3,0H37.2z"/>
<path class="st4" d="M36.4,44l-0.2-0.1L24,37.5L11.6,44h-0.2c-0.4,0-0.7-0.3-0.7-0.7v-0.1L13,29.6l-9.9-9.7c-0.3-0.3-0.3-0.7,0-0.9
	c0.1-0.1,0.2-0.2,0.4-0.2l13.7-2l6.1-12.4c0.3-0.4,0.7-0.5,1-0.3c0.1,0.1,0.2,0.2,0.3,0.3l6.1,12.4l13.7,2c0.4,0.1,0.6,0.4,0.6,0.8
	c0,0.1-0.1,0.3-0.2,0.4l-9.9,9.7l2.3,13.6c0.1,0.4-0.2,0.7-0.6,0.8h-0.1L36.4,44z"/>
<radialGradient id="SVGID_2_" cx="24.0168" cy="766.72" r="20.0361" gradientTransform="matrix(1 0 0 1 0 -742.72)" gradientUnits="userSpaceOnUse">
	<stop  offset="0" style="stop-color:#FFFF00"/>
	<stop  offset="0.06" style="stop-color:#FFFC09"/>
	<stop  offset="0.34" style="stop-color:#FDEF2E"/>
	<stop  offset="0.6" style="stop-color:#FBE54A"/>
	<stop  offset="0.83" style="stop-color:#FADF5A"/>
	<stop  offset="1" style="stop-color:#FADD60"/>
</radialGradient>
<path class="st5" d="M44.5,19.6c0.1-0.1,0.1-0.2,0-0.2h-0.1l-13.9-2c-0.1,0-0.1,0-0.1-0.1L24.1,4.6c0-0.1-0.1-0.1-0.2-0.1
	c0,0-0.1,0-0.1,0.1l-6.2,12.6l-0.1,0.1l-13.9,2c-0.1,0-0.2,0.1-0.1,0.2v0.1l10,9.8v0.1l-2.3,13.8c0,0.1,0,0.2,0.1,0.2h0.1L23.9,37
	c0,0,0.1,0,0.2,0l12.4,6.5c0.1,0,0.2,0,0.2-0.1v-0.1l-2.4-13.8v-0.1L44.5,19.6z"/>
</svg>
