<?xml version="1.0" encoding="utf-8"?>
<!-- Generator: Adobe Illustrator 21.0.0, SVG Export Plug-In . SVG Version: 6.00 Build 0)  -->
<svg version="1.1" id="svg" xmlns="http://www.w3.org/2000/svg" xmlns:xlink="http://www.w3.org/1999/xlink" x="0px" y="0px"
	 viewBox="0 0 48 48" style="enable-background:new 0 0 48 48;" xml:space="preserve">
<style type="text/css">
	.st0{opacity:0.2;fill:#040000;enable-background:new    ;}
	.st1{opacity:0.08;fill:#040000;enable-background:new    ;}
	.st2{opacity:0.1;fill:#040000;enable-background:new    ;}
	.st3{fill:#5C4037;}
	.st4{fill:url(#SVGID_1_);}
	.st5{opacity:0.3;fill:#DA706F;enable-background:new    ;}
	.st6{fill:#AE1F24;}
	.st7{opacity:0.65;fill:url(#SVGID_2_);enable-background:new    ;}
	.st8{fill:url(#SVGID_3_);}
	.st9{fill:#720914;}
</style>
<polygon class="st0" points="5.5,46 5.5,12 3,12 3,5 15,5 15,2 33,2 33,5 45,5 45,12 42.5,12 42.5,46 "/>
<polygon class="st1" points="5.5,48 5.5,14 3,14 3,5 15,5 15,2 35,2 35,5 47,5 47,14 44.5,14 44.5,48 "/>
<polygon class="st2" points="6.5,47 6.5,13 4,13 4,6 16,6 16,3 34,3 34,6 46,6 46,13 43.5,13 43.5,47 "/>
<path class="st3" d="M6.5,45V11H4V6h12V3h16v3h12v5h-2.5v34H6.5z M28.5,6V5.5h-9V6H28.5z"/>
<linearGradient id="SVGID_1_" gradientUnits="userSpaceOnUse" x1="7" y1="-1850.78" x2="41" y2="-1850.78" gradientTransform="matrix(1 0 0 -1 0 -1823.28)">
	<stop  offset="0" style="stop-color:#F8CACE"/>
	<stop  offset="0.48" style="stop-color:#DA706F"/>
	<stop  offset="0.49" style="stop-color:#DA706F"/>
	<stop  offset="0.52" style="stop-color:#DA706F"/>
	<stop  offset="1" style="stop-color:#F8CACE"/>
</linearGradient>
<rect x="7" y="10.5" class="st4" width="34" height="34"/>
<rect x="7" y="10.5" class="st5" width="34" height="2"/>
<polygon class="st6" points="34,15.5 34,16 34,40.2 34,40.5 37,40.5 37,40.2 37,16 37,15.5 "/>
<polygon class="st6" points="26.5,15.5 26.5,16 26.5,16.1 26.5,40.1 26.5,40.5 29.5,40.5 29.5,40.1 29.5,16.1 29.5,16 29.5,15.5 "/>
<polygon class="st6" points="18.5,15.5 18.5,16 18.5,16.1 18.5,40.1 18.5,40.5 21.5,40.5 21.5,40.1 21.5,16.1 21.5,16 21.5,15.5 "/>
<polygon class="st6" points="11,15.5 11,16 11,16.1 11,40.1 11,40.5 14,40.5 14,40.1 14,16.1 14,16 14,15.5 "/>
<rect x="4.5" y="6.5" class="st6" width="39" height="4"/>
<linearGradient id="SVGID_2_" gradientUnits="userSpaceOnUse" x1="4.5" y1="-1831.78" x2="43.5" y2="-1831.78" gradientTransform="matrix(1 0 0 -1 0 -1823.28)">
	<stop  offset="0.05" style="stop-color:#DA706F"/>
	<stop  offset="0.25" style="stop-color:#DA706F"/>
	<stop  offset="0.51" style="stop-color:#AE1F24"/>
	<stop  offset="0.74" style="stop-color:#DA706F"/>
	<stop  offset="1" style="stop-color:#DA706F"/>
</linearGradient>
<rect x="4.5" y="6.5" class="st7" width="39" height="4"/>
<linearGradient id="SVGID_3_" gradientUnits="userSpaceOnUse" x1="16.5" y1="-1828.28" x2="31.5" y2="-1828.28" gradientTransform="matrix(1 0 0 -1 0 -1823.28)">
	<stop  offset="0.05" style="stop-color:#AE1F24"/>
	<stop  offset="0.25" style="stop-color:#DA706F"/>
	<stop  offset="0.51" style="stop-color:#DA706F"/>
	<stop  offset="0.74" style="stop-color:#DA706F"/>
	<stop  offset="1" style="stop-color:#AE1F24"/>
</linearGradient>
<polygon class="st8" points="16.5,3.5 16.5,6.5 19,6.5 19,4.5 29,4.5 29,6.5 31.5,6.5 31.5,3.5 "/>
<rect x="19" y="4.5" class="st9" width="10" height="0.5"/>
<rect x="4.5" y="9.5" class="st9" width="39" height="1"/>
</svg>
