<?xml version="1.0" encoding="utf-8"?>
<!-- Generator: Adobe Illustrator 21.0.0, SVG Export Plug-In . SVG Version: 6.00 Build 0)  -->
<svg version="1.1" id="图层_39" xmlns="http://www.w3.org/2000/svg" xmlns:xlink="http://www.w3.org/1999/xlink" x="0px" y="0px"
	 viewBox="0 0 48 48" style="enable-background:new 0 0 48 48;" xml:space="preserve">
<style type="text/css">
	.st0{opacity:0.2;enable-background:new    ;}
	.st1{opacity:0.08;enable-background:new    ;}
	.st2{opacity:0.1;enable-background:new    ;}
	.st3{fill:url(#SVGID_1_);}
	.st4{fill:#212121;}
	.st5{fill:url(#rect3008_1_);}
	.st6{fill:url(#SVGID_2_);}
	.st7{fill:#01579B;}
	.st8{opacity:0.4;fill:url(#SVGID_3_);enable-background:new    ;}
	.st9{opacity:0.4;fill:url(#SVGID_4_);enable-background:new    ;}
	.st10{fill:url(#SVGID_5_);}
	.st11{opacity:0.23;fill:#EEE8D5;enable-background:new    ;}
	.st12{fill:#1D272B;}
	.st13{fill:#03A9F4;}
	.st14{fill:#EA7C1F;stroke:#F57F17;stroke-width:0.5;stroke-miterlimit:10;}
	.st15{fill:url(#SVGID_6_);}
	.st16{fill:url(#rect2990_1_);}
	.st17{opacity:0.25;fill:#FDEFBA;enable-background:new    ;}
	.st18{opacity:0.1;fill:#E65100;enable-background:new    ;}
	.st19{opacity:0.05;fill:#E65100;enable-background:new    ;}
	.st20{fill:#606061;stroke:#5F5F60;stroke-width:0.5;stroke-miterlimit:10;}
	.st21{fill:#CFD8DC;}
	.st22{opacity:0.3;fill:#5E7B88;enable-background:new    ;}
	.st23{fill:#5E7B88;}
	.st24{fill:url(#SVGID_7_);}
	.st25{opacity:0.5;fill:none;stroke:#2F3E44;stroke-miterlimit:10;enable-background:new    ;}
</style>
<title>048user-desktop</title>
<g id="_48">
	<rect x="2" y="7.5" class="st0" width="44" height="33"/>
	<rect x="2" y="7.5" class="st1" width="46" height="35"/>
	<rect x="3" y="8.5" class="st2" width="44" height="33"/>
	<polygon points="44.5,8.5 3.5,8.5 3,8.5 3,9 3,39 3,39.5 3.5,39.5 44.5,39.5 45,39.5 45,39 45,9 45,8.5 	"/>
	
		<linearGradient id="SVGID_1_" gradientUnits="userSpaceOnUse" x1="24.05" y1="2751.52" x2="24.05" y2="2781.97" gradientTransform="matrix(1 0 0 1 0 -2742.72)">
		<stop  offset="0" style="stop-color:#455A64"/>
		<stop  offset="1" style="stop-color:#263238"/>
	</linearGradient>
	<rect x="3.3" y="8.8" class="st3" width="41.5" height="30.5"/>
	<path class="st4" d="M44.5,9v30h-41V9H44.5 M45,8.5H3v31h42V8.5z"/>
	<path class="st1" d="M41.3,34.8V12.9H7.4v21.9H41.3z"/>
	<path class="st2" d="M41.6,35.1V12.5H7.1v22.6H41.6z"/>
	
		<linearGradient id="rect3008_1_" gradientUnits="userSpaceOnUse" x1="24" y1="2754.3501" x2="24" y2="2778.05" gradientTransform="matrix(1 0 0 1 0 -2742.72)">
		<stop  offset="0" style="stop-color:#B3E5FC"/>
		<stop  offset="1" style="stop-color:#0288D1"/>
	</linearGradient>
	<rect id="rect3008" x="6.2" y="11.6" class="st5" width="35.6" height="23.7"/>
	<g id="rect3008-2">
		
			<linearGradient id="SVGID_2_" gradientUnits="userSpaceOnUse" x1="23.95" y1="2777.28" x2="23.95" y2="2755.0801" gradientTransform="matrix(1 0 0 1 0 -2742.72)">
			<stop  offset="0" style="stop-color:#026AB5"/>
			<stop  offset="1" style="stop-color:#4FC3F7"/>
		</linearGradient>
		<rect x="6.9" y="12.4" class="st6" width="34.1" height="22.2"/>
		<path class="st7" d="M40.3,13.1v20.7H7.7V13.1H40.3 M41.8,11.6H6.2v23.7h35.6V11.6z"/>
	</g>
	
		<linearGradient id="SVGID_3_" gradientUnits="userSpaceOnUse" x1="7.64" y1="2756.1699" x2="40.34" y2="2756.1699" gradientTransform="matrix(1 0 0 1 0 -2742.72)">
		<stop  offset="0" style="stop-color:#FFFFFF"/>
		<stop  offset="1" style="stop-color:#4FC3F7"/>
	</linearGradient>
	<rect x="7.6" y="13.1" class="st8" width="32.7" height="0.7"/>
	
		<linearGradient id="SVGID_4_" gradientUnits="userSpaceOnUse" x1="-4922.23" y1="3928.4299" x2="-4902.1699" y2="3928.4299" gradientTransform="matrix(6.123234e-17 -1 1 6.123234e-17 -3920.48 -4888.3701)">
		<stop  offset="0" style="stop-color:#0288D1"/>
		<stop  offset="1" style="stop-color:#FFFFFF"/>
	</linearGradient>
	<rect x="7.6" y="13.8" class="st9" width="0.7" height="20.1"/>
	
		<radialGradient id="SVGID_5_" cx="127.4083" cy="2933.1409" r="19.24" gradientTransform="matrix(0.96 0 0 0.89 -98.82 -2586.1399)" gradientUnits="userSpaceOnUse">
		<stop  offset="0" style="stop-color:#B3E5FC"/>
		<stop  offset="1" style="stop-color:#0288D1"/>
	</radialGradient>
	<rect x="7.6" y="30.9" class="st10" width="32.7" height="2.9"/>
	<path id="rect3008-0" class="st11" d="M28.8,11.6l-9.7,23.7h22.7V11.6H28.8z"/>
	<circle class="st12" cx="23.9" cy="37.1" r="1.1"/>
	<circle class="st13" cx="23.9" cy="37.2" r="0.8"/>
	<polygon class="st0" points="31.1,21.1 31.1,16 31.4,16 31.4,15.1 33.8,15.1 34.1,15.4 37.5,15.4 37.5,16 37.8,16 37.8,21.1 	"/>
	<polygon class="st14" points="32,20.2 32,16.9 32.3,16.9 32.3,16 33.4,16 33.7,16.3 36.6,16.3 36.6,16.9 36.9,16.9 36.9,20.2 	"/>
	
		<linearGradient id="SVGID_6_" gradientUnits="userSpaceOnUse" x1="-4074.675" y1="-14.43" x2="-4074.675" y2="-15.03" gradientTransform="matrix(2 0 0 2 8183.8999 46.0699)">
		<stop  offset="0" style="stop-color:#F57C00"/>
		<stop  offset="0.16" style="stop-color:#F58F09"/>
		<stop  offset="0.36" style="stop-color:#F59D11"/>
		<stop  offset="0.6" style="stop-color:#F5A515"/>
		<stop  offset="0.99" style="stop-color:#F5A816"/>
	</linearGradient>
	<path class="st15" d="M36.5,16.3h-2.8L33.4,16h-1v1c0,0.1,0.1,0.2,0.2,0.2h3.9c0.1,0,0.2,0,0.2-0.1S36.5,16.3,36.5,16.3z"/>
	
		<linearGradient id="rect2990_1_" gradientUnits="userSpaceOnUse" x1="-4074.7249" y1="-14.55" x2="-4074.7249" y2="-12.93" gradientTransform="matrix(2 0 0 2 8183.8999 46.0699)">
		<stop  offset="0" style="stop-color:#FADD60"/>
		<stop  offset="0.99" style="stop-color:#F5A816"/>
	</linearGradient>
	<polyline id="rect2990" class="st16" points="36.9,17 36.9,20.2 32,20.2 32,17 	"/>
	<path id="rect3004" class="st17" d="M32,17v0.6c0-0.2,0.1-0.4,0.3-0.4h4.2c0.2,0,0.3,0.2,0.3,0.4V17H32z"/>
	<path id="path3801" class="st18" d="M32.3,16v0.4c0-0.2,0.1-0.3,0.2-0.3h0.8c0.1,0,0.2,0,0.3,0.1l0.1,0.1L33.4,16H32.3z"/>
	<polygon class="st18" points="33.7,16.3 36.5,16.3 36.5,16.6 34,16.6 	"/>
	<rect x="32.3" y="16.8" class="st19" width="4.2" height="0.1"/>
	<polygon class="st0" points="31.6,29.3 31.6,25.5 31.4,25.5 31.3,24.6 31.3,23.1 32.6,23.1 32.6,22.6 36.3,22.6 36.3,23.1 
		37.6,23.1 37.6,25.5 37.3,25.5 37.3,29.3 	"/>
	<path class="st20" d="M32.5,28.4v-3.9h-0.3V24h1.3v-0.5h1.9V24h1.3v0.6h-0.3v3.9L32.5,28.4z"/>
	<rect x="32.5" y="24.5" class="st21" width="3.9" height="3.9"/>
	<rect x="32.5" y="24.5" class="st22" width="3.9" height="0.2"/>
	<rect x="32.2" y="24" class="st23" width="4.4" height="0.5"/>
	<polygon class="st23" points="33.6,23.5 33.6,24 33.8,24 33.8,23.7 35,23.7 35,24 35.3,24 35.3,23.5 	"/>
	
		<linearGradient id="SVGID_7_" gradientUnits="userSpaceOnUse" x1="32.24" y1="2766.72" x2="36.66" y2="2766.72" gradientTransform="matrix(1 0 0 1 0 -2742.72)">
		<stop  offset="0.05" style="stop-color:#445962"/>
		<stop  offset="0.13" style="stop-color:#4D646E"/>
		<stop  offset="0.29" style="stop-color:#5A7581"/>
		<stop  offset="0.4" style="stop-color:#5E7B88"/>
		<stop  offset="0.61" style="stop-color:#5E7B88"/>
		<stop  offset="1" style="stop-color:#445962"/>
	</linearGradient>
	<polygon class="st24" points="35.3,24 35.3,23.5 33.6,23.5 33.6,24 32.2,24 32.2,24.5 36.7,24.5 36.7,24 	"/>
	<line class="st25" x1="33.7" y1="25.1" x2="33.7" y2="28"/>
	<line class="st25" x1="35.2" y1="25.1" x2="35.2" y2="28"/>
</g>
</svg>
