<?xml version="1.0" encoding="iso-8859-1"?>
<!-- Generator: Adobe Illustrator 21.0.0, SVG Export Plug-In . SVG Version: 6.00 Build 0)  -->
<svg version="1.1" id="&#x5176;&#x4ED6;" xmlns="http://www.w3.org/2000/svg" xmlns:xlink="http://www.w3.org/1999/xlink" x="0px"
	 y="0px" viewBox="0 0 48 48" style="enable-background:new 0 0 48 48;" xml:space="preserve">
<title>画板 22</title>
<g id="&#x5783;&#x573E;&#x6876;-&#x7A7A;">
	<g id="_48">
		<polygon style="opacity:0.2;enable-background:new    ;" points="7.2,47 7.2,14.4 4.8,14.4 4.8,6.9 15.9,6.9 15.9,3 34.1,3 
			34.1,6.9 45.2,6.9 45.2,14.4 42.8,14.4 42.8,47 		"/>
		<path style="fill:#606061;" d="M8.2,46V13.4H5.8V7.9H17V4h16.1v3.9h11.2v5.5h-2.4V46H8.2z M29.6,7.9V6.5h-9.3v1.3h9.3L29.6,7.9z"
			/>
		
			<linearGradient id="SVGID_1_" gradientUnits="userSpaceOnUse" x1="-2193.7" y1="1136.86" x2="-2161.04" y2="1136.86" gradientTransform="matrix(1 0 0 -1 2202.3999 1166.01)">
			<stop  offset="0.05" style="stop-color:#CED7DB"/>
			<stop  offset="0.1" style="stop-color:#C4CDD2"/>
			<stop  offset="0.27" style="stop-color:#A7B5BC"/>
			<stop  offset="0.41" style="stop-color:#94A6B0"/>
			<stop  offset="0.51" style="stop-color:#8DA1AB"/>
			<stop  offset="1" style="stop-color:#CED7DB"/>
		</linearGradient>
		<rect x="8.7" y="12.8" style="fill:url(#SVGID_1_);" width="32.7" height="32.7"/>
		<rect x="8.7" y="12.8" style="opacity:0.3;fill:#5E7B88;enable-background:new    ;" width="32.7" height="1.5"/>
		<rect x="35.1" y="19.1" style="fill:#5E7B88;" width="2.9" height="24"/>
		<rect x="27.9" y="19.1" style="fill:#5E7B88;" width="2.9" height="24"/>
		<rect x="19.2" y="19.1" style="fill:#5E7B88;" width="2.9" height="24"/>
		<rect x="12" y="19.1" style="fill:#5E7B88;" width="2.9" height="24"/>
		<rect x="35.1" y="18.5" style="fill:#536B75;" width="2.9" height="0.6"/>
		<rect x="27.9" y="18.5" style="fill:#536B75;" width="2.9" height="0.6"/>
		<rect x="19.2" y="18.5" style="fill:#536B75;" width="2.9" height="0.6"/>
		<rect x="12" y="18.5" style="fill:#536B75;" width="2.9" height="0.6"/>
		<rect x="35.1" y="42.8" style="fill:#CED7DB;" width="2.9" height="0.3"/>
		<rect x="27.9" y="42.8" style="fill:#CED7DB;" width="2.9" height="0.3"/>
		<rect x="19.2" y="42.8" style="fill:#CED7DB;" width="2.9" height="0.3"/>
		<rect x="12" y="42.8" style="fill:#CED7DB;" width="2.9" height="0.3"/>
		<rect x="6.3" y="8.4" style="fill:#5E7B88;" width="37.5" height="4.5"/>
		
			<linearGradient id="SVGID_2_" gradientUnits="userSpaceOnUse" x1="-2196.1399" y1="1155.5601" x2="-2158.6399" y2="1155.5601" gradientTransform="matrix(1 0 0 -1 2202.3999 1166.01)">
			<stop  offset="0.05" style="stop-color:#5E7B88"/>
			<stop  offset="0.25" style="stop-color:#5E7B88"/>
			<stop  offset="0.51" style="stop-color:#445962"/>
			<stop  offset="0.74" style="stop-color:#5E7B88"/>
			<stop  offset="1" style="stop-color:#5E7B88"/>
		</linearGradient>
		<rect x="6.3" y="8.4" style="opacity:0.65;fill:url(#SVGID_2_);enable-background:new    ;" width="37.5" height="4.1"/>
		<polygon style="fill:#5E7B88;" points="17.4,4.5 17.4,8.4 19.9,8.4 19.9,5.7 30.1,5.7 30.1,8.4 32.6,8.4 32.6,4.5 		"/>
		
			<linearGradient id="SVGID_3_" gradientUnits="userSpaceOnUse" x1="-2184.95" y1="1159.5601" x2="-2169.8301" y2="1159.5601" gradientTransform="matrix(1 0 0 -1 2202.3999 1166.01)">
			<stop  offset="0.05" style="stop-color:#445962"/>
			<stop  offset="0.13" style="stop-color:#4D646E"/>
			<stop  offset="0.29" style="stop-color:#5A7581"/>
			<stop  offset="0.4" style="stop-color:#5E7B88"/>
			<stop  offset="0.61" style="stop-color:#5E7B88"/>
			<stop  offset="1" style="stop-color:#445962"/>
		</linearGradient>
		<polygon style="fill:url(#SVGID_3_);" points="17.4,4.5 17.4,8.4 19.9,8.4 19.9,5.7 30.1,5.7 30.1,8.4 32.6,8.4 32.6,4.5 		"/>
		<rect x="19.9" y="5.7" style="fill:#445962;" width="10.3" height="0.4"/>
		<rect x="6.3" y="12.5" style="fill:#445962;" width="37.5" height="0.3"/>
	</g>
</g>
</svg>
