<?xml version="1.0" encoding="utf-8"?>
<!-- Generator: Adobe Illustrator 25.0.0, SVG Export Plug-In . SVG Version: 6.00 Build 0)  -->
<svg version="1.1" id="图层_1" xmlns="http://www.w3.org/2000/svg" xmlns:xlink="http://www.w3.org/1999/xlink" x="0px" y="0px"
	 viewBox="0 0 16 16" style="enable-background:new 0 0 16 16;" xml:space="preserve">
<style type="text/css">
	.st0{opacity:0.75;enable-background:new    ;}
	.st1{fill:#1F2022;}
</style>
<g class="st0">
	<path class="st1" d="M5.7,2C6.2,2,6.6,2.2,7,3.4C7.4,4.4,8.3,5,9.4,5c0.1,0,0.1,0,0.2,0h4.1C14.1,5,15,5.1,15,6v6.9
		c0,0.6-0.5,1.1-1,1.1H2c-0.3,0-0.6-0.1-0.8-0.4C1.1,13.4,1,13.2,1,12.8V3.1c0.1-0.5,0.5-1,1.1-1.1L5.7,2 M5.7,1H2
		C0.9,1.1,0.1,1.9,0,3v9.8C-0.1,14,0.8,14.9,2,15l0,0h12c1.1,0,2-1,2-2.1V6c0-1.3-1-2-2.4-2H9.5H9.4C8.7,4,8.2,3.6,8,3.1
		C7.5,2,7,1,5.7,1L5.7,1z"/>
</g>
</svg>
