<?xml version="1.0" encoding="utf-8"?>
<!-- Generator: Adobe Illustrator 24.0.0, SVG Export Plug-In . SVG Version: 6.00 Build 0)  -->
<svg version="1.1" id="ICONS" xmlns="http://www.w3.org/2000/svg" xmlns:xlink="http://www.w3.org/1999/xlink" x="0px" y="0px"
	 viewBox="0 0 128 128" enable-background="new 0 0 128 128" xml:space="preserve">
<title>128</title>
<g id="_128">
	<path fill="#27D8F6" d="M64,62.9H31.7c0,17.8,14.4,32.3,32.3,32.3l0,0V62.9z"/>
	<path fill="#76E2F8" d="M64,30.6c-17.8,0-32.3,14.4-32.3,32.3c0,0,0,0,0,0H64V30.6z"/>
	<path fill="#19A7D8" d="M64,62.9h32.3C96.3,45,81.8,30.6,64,30.6c0,0,0,0,0,0V62.9z"/>
	<path fill="#1C85BA" d="M64,62.9v32.3c17.8,0,32.3-14.4,32.3-32.3H64z"/>
	<path fill="#0ABEEF" d="M64,58.1l-16.3,4.8c0,17.8,7.3,32.3,16.3,32.3s16.3-14.4,16.3-32.3L64,58.1z"/>
	<path fill="#26BEFC" d="M64,30.6c-9,0-16.3,14.5-16.3,32.3h32.5C80.3,45,73,30.6,64,30.6z"/>
	<path fill="#19A7D8" d="M80.3,62.9L64,58.1v37.1C73,95.1,80.3,80.7,80.3,62.9z"/>
	<path fill="#27D8F6" d="M47.7,62.9H64V30.6C55,30.6,47.7,45,47.7,62.9z"/>
	<path fill="#0ABEEF" d="M80.3,62.9C80.3,45,73,30.6,64,30.6v32.3H80.3z"/>
	
		<linearGradient id="SVGID_1_" gradientUnits="userSpaceOnUse" x1="2.75" y1="65.2216" x2="126.03" y2="65.0316" gradientTransform="matrix(1 0 0 -1 0 128)">
		<stop  offset="0.13" style="stop-color:#1589D3"/>
		<stop  offset="0.36" style="stop-color:#1780CD"/>
		<stop  offset="0.73" style="stop-color:#1D67BD"/>
		<stop  offset="1" style="stop-color:#2251AF"/>
	</linearGradient>
	<path fill="url(#SVGID_1_)" d="M116.2,9.5c-3.5-3.5-11.7-0.8-24.4,7.7c-6.6,4.5-12.9,9.4-18.9,14.6c1.1,0.3,2.2,0.7,3.2,1.1
		c5.5-4.7,11.3-9.2,17.3-13.3c9.6-6.5,15.6-8.7,18.7-8.7c0.8-0.1,1.5,0.2,2.1,0.6c1.7,1.6,0.7,8.1-7.6,20.9c-4,6.1-8.3,12-12.9,17.6
		c-5.9,7.2-12.7,14.8-20,22.3S59,86.8,51.9,92.8c-5.5,4.8-11.3,9.2-17.3,13.3c-12.7,8.6-19.1,9.7-20.8,8.1s-0.7-8.1,7.6-20.9
		c4-6.1,8.3-12,12.9-17.6c-0.4-1-0.8-2.1-1.2-3.2C28.1,78.6,23.4,85,19,91.7c-8.3,12.9-10.7,21.2-7.2,24.6c1.1,1,2.6,1.6,4.2,1.5
		c4.4,0,11.2-3.1,20.3-9.2c6.6-4.5,12.9-9.4,18.8-14.6c6.8-5.8,13.8-12.4,20.7-19.5s13.4-14.2,19-21.1c5.1-6.1,9.8-12.5,14.2-19.2
		C117.3,21.2,119.8,12.9,116.2,9.5z"/>
	
		<linearGradient id="SVGID_2_" gradientUnits="userSpaceOnUse" x1="8.79" y1="65.1372" x2="134.13" y2="65.1372" gradientTransform="matrix(1 0 0 -1 0 128)">
		<stop  offset="0" style="stop-color:#13D4DF"/>
		<stop  offset="0.28" style="stop-color:#17D2E1"/>
		<stop  offset="0.57" style="stop-color:#23CEE7"/>
		<stop  offset="0.85" style="stop-color:#37C6F2"/>
		<stop  offset="1" style="stop-color:#45C1F9"/>
	</linearGradient>
	<path fill="url(#SVGID_2_)" d="M109.1,91.7c-4.4-6.7-9.1-13.1-14.2-19.2c-5.7-6.9-12.1-14-19-21.1s-14-13.7-20.7-19.5
		c-6-5.2-12.3-10.1-18.9-14.6C23.5,8.6,15.3,6,11.8,9.5S10.7,21.2,19,34.1c4.4,6.7,9.1,13.1,14.2,19.2c0.3-1.1,0.7-2.1,1.2-3.2
		c-4.6-5.6-8.9-11.5-12.9-17.6c-8.3-12.9-9.3-19.3-7.6-20.9c0.6-0.5,1.3-0.7,2.1-0.6c3.1,0,9.1,2.2,18.7,8.7
		c6,4.1,11.8,8.6,17.3,13.3c7.1,6,14.5,13,21.8,20.4s14.1,15,20,22.3c4.6,5.6,8.9,11.5,12.9,17.6c8.3,12.8,9.3,19.3,7.6,20.9
		s-8.1,0.5-20.8-8.1c-6-4.1-11.8-8.6-17.4-13.3c-1.1,0.4-2.1,0.8-3.2,1.1c6,5.2,12.3,10.1,18.9,14.6c9.1,6.1,15.9,9.2,20.3,9.2
		c1.5,0.1,3-0.4,4.2-1.5C119.8,112.8,117.3,104.5,109.1,91.7z"/>
	
		<linearGradient id="SVGID_3_" gradientUnits="userSpaceOnUse" x1="69.7" y1="13.62" x2="58.46" y2="13.62" gradientTransform="matrix(1 0 0 -1 0 128)">
		<stop  offset="0" style="stop-color:#3399FF"/>
		<stop  offset="0.17" style="stop-color:#2F94F6"/>
		<stop  offset="0.45" style="stop-color:#2485DD"/>
		<stop  offset="0.61" style="stop-color:#1D7BCC"/>
		<stop  offset="0.93" style="stop-color:#2F41A3"/>
		<stop  offset="1" style="stop-color:#333399"/>
	</linearGradient>
	<circle fill="url(#SVGID_3_)" cx="64.1" cy="114.4" r="5.6"/>
</g>
</svg>
