<?xml version="1.0" encoding="utf-8"?>
<!-- Generator: Adobe Illustrator 24.0.0, SVG Export Plug-In . SVG Version: 6.00 Build 0)  -->
<svg version="1.1"
	 id="svg2" xmlns:cc="http://creativecommons.org/ns#" xmlns:dc="http://purl.org/dc/elements/1.1/" xmlns:rdf="http://www.w3.org/1999/02/22-rdf-syntax-ns#"
	 xmlns="http://www.w3.org/2000/svg" xmlns:xlink="http://www.w3.org/1999/xlink" x="0px" y="0px" viewBox="0 0 16 16"
	 style="enable-background:new 0 0 16 16;" xml:space="preserve">
<style type="text/css">
	.st0{fill-rule:evenodd;clip-rule:evenodd;fill:#808080;}
	.st1{fill:#808080;}
</style>
<g id="layer1" transform="matrix(1.0319689,0,0,1.0563566,-0.69397664,-6.778957)">
	<path id="path5070" class="st0" d="M1.6,10.2L8.4,14l-6.8,3.8V10.2z"/>
	<path id="path5067" class="st1" d="M15.2,14c0-3.7-3.1-6.6-6.8-6.6c-2.1,0-4.1,1-5.3,2.6l0.9,0.5c1-1.3,2.7-2.1,4.5-2.1
		c3.1,0,5.8,2.6,5.8,5.7c0,3.1-2.7,5.7-5.8,5.7c-1.8,0-3.5-0.9-4.6-2.2L3,18c1.2,1.5,3.3,2.7,5.4,2.7C12.1,20.6,15.2,17.6,15.2,14
		L15.2,14z"/>
	<path id="path5648" class="st1" d="M12.3,14c0-2.2-1.6-3.8-3.9-3.8c-1.2,0-2,0.3-2.8,1.1l0.9,0.5c0.6-0.5,1.1-0.7,1.9-0.7
		c1.7,0,2.9,1.1,2.9,2.8s-1.2,2.8-2.9,2.8c-0.8,0-1.4-0.2-2-0.8l-0.9,0.5c0.7,0.8,1.7,1.2,2.9,1.2C10.7,17.8,12.3,16.2,12.3,14
		L12.3,14z"/>
</g>
</svg>
