<?xml version="1.0" encoding="utf-8"?>
<!-- Generator: Adobe Illustrator 24.0.0, SVG Export Plug-In . SVG Version: 6.00 Build 0)  -->
<svg version="1.1" id="图层_1" xmlns="http://www.w3.org/2000/svg" xmlns:xlink="http://www.w3.org/1999/xlink" x="0px" y="0px"
	 viewBox="0 0 16 16" style="enable-background:new 0 0 16 16;" xml:space="preserve">
<style type="text/css">
	.st0{fill:#808080;}
</style>
<title>b-垃圾桶</title>
<g>
	<path class="st0" d="M10,9.3l1,1.8H9.1c-0.2,0-0.4,0.2-0.4,0.4c0,0,0,0,0,0c0,0.2,0.2,0.4,0.4,0.4c0,0,0,0,0,0h2.2
		c0.4,0,0.7-0.3,0.7-0.7c0,0,0,0,0,0l0,0c0-0.1,0-0.2-0.1-0.4l-1.2-2c-0.1-0.2-0.3-0.3-0.5-0.2l0,0l0,0C10,8.9,9.9,9.1,10,9.3z"/>
	<path class="st0" d="M4.3,11.9L4.3,11.9C4.4,12,4.6,12,4.7,12h2.2c0.2,0,0.4-0.2,0.4-0.4l0,0c0-0.2-0.2-0.4-0.4-0.4l0,0l0,0H5
		l1-1.8c0.2-0.2,0.2-0.4,0-0.6C5.8,8.6,5.5,8.6,5.4,8.8c0,0,0,0,0,0l0,0l-1.3,2.1C3.9,11.2,4,11.7,4.3,11.9
		C4.3,11.9,4.3,11.9,4.3,11.9z"/>
	<path class="st0" d="M6.4,7.9C6.6,8.1,6.8,8,7,7.9c0,0,0,0,0-0.1l0,0L8,6l1.1,1.8C9.1,7.9,9.3,8,9.4,8c0.2,0,0.4-0.2,0.4-0.4l0,0
		l0,0c0-0.1,0-0.2-0.1-0.2l-1.2-2C8.4,5,8,4.9,7.7,5.1c0,0,0,0,0,0H7.6C7.5,5.2,7.4,5.2,7.4,5.3l-1.1,2C6.1,7.5,6.2,7.8,6.4,7.9z"/>
	<path class="st0" d="M14.5,2H12V1.5C12,0.7,11.3,0,10.5,0h-5C4.7,0,4,0.7,4,1.5V2H1.5C1.2,2,1,2.2,1,2.5S1.2,3,1.5,3H2v10.5
		C2,14.9,3.1,16,4.5,16h7c1.4,0,2.5-1.1,2.5-2.5V3h0.5C14.8,3,15,2.8,15,2.5S14.8,2,14.5,2z M5,1.5C5,1.2,5.2,1,5.5,1h5
		C10.8,1,11,1.2,11,1.5V2H5V1.5z M13,13.5c0,0.8-0.7,1.5-1.5,1.5h-7C3.7,15,3,14.3,3,13.5V3h10V13.5z"/>
</g>
</svg>
