<?xml version="1.0" encoding="utf-8"?>
<!-- Generator: Adobe Illustrator 21.0.0, SVG Export Plug-In . SVG Version: 6.00 Build 0)  -->
<svg version="1.1" id="信息" xmlns="http://www.w3.org/2000/svg" xmlns:xlink="http://www.w3.org/1999/xlink" x="0px" y="0px"
	 viewBox="0 0 24 24" style="enable-background:new 0 0 24 24;" xml:space="preserve">
<style type="text/css">
	.st0{fill:#808080;}
</style>
<title>24</title>
<g id="_24">
	<path class="st0" d="M4,23v-6.1c-1.8-1.5-2.8-3.8-2.8-6.1c0-4.9,4.6-8.9,10.3-8.9s10.3,4,10.3,8.9s-4.6,8.9-10.3,8.9
		c-0.8,0-1.7-0.1-2.5-0.3L4,23z M11.5,2.9c-5.1,0-9.3,3.5-9.3,7.9c0,2.1,1,4.1,2.6,5.5L5,16.4V21l3.8-2.7L9,18.4
		c0.8,0.2,1.7,0.3,2.5,0.3c5.1,0,9.3-3.5,9.3-7.9S16.6,2.9,11.5,2.9z"/>
	<rect x="10" y="6" class="st0" width="4" height="1"/>
	<path class="st0" d="M15,10V7h-1v3h-4V7H9v3H8v5h8v-5H15z M15,14H9v-3h6V14z"/>
</g>
</svg>
