<?xml version="1.0" encoding="utf-8"?>
<!-- Generator: Adobe Illustrator 21.0.0, SVG Export Plug-In . SVG Version: 6.00 Build 0)  -->
<svg version="1.1" id="用户" xmlns="http://www.w3.org/2000/svg" xmlns:xlink="http://www.w3.org/1999/xlink" x="0px" y="0px"
	 viewBox="0 0 16 16" style="enable-background:new 0 0 16 16;" xml:space="preserve">
<style type="text/css">
	.st0{fill:#808080;}
</style>
<title>16</title>
<path class="st0" d="M8,0C5.5,0,3.5,2,3.5,4.5S5.5,9,8,9s4.5-2,4.5-4.5S10.5,0,8,0z M8,8C6.1,8,4.5,6.4,4.5,4.5S6.1,1,8,1
	s3.5,1.6,3.5,3.5S9.9,8,8,8z"/>
<path class="st0" d="M1.1,16C1,15.7,1,15.3,1,15c0-3.9,3.1-6,7-6s7,2.1,7,6c0,0.3,0,0.7-0.1,1h1c0-0.3,0.1-0.7,0.1-1
	c0-4.4-3.6-7-8-7s-8,2.6-8,7c0,0.3,0,0.7,0.1,1H1.1z"/>
<rect y="15" class="st0" width="16" height="1"/>
</svg>
