<?xml version="1.0" encoding="utf-8"?>
<!-- Generator: Adobe Illustrator 21.0.0, SVG Export Plug-In . SVG Version: 6.00 Build 0)  -->
<svg version="1.1" id="图层_19" xmlns="http://www.w3.org/2000/svg" xmlns:xlink="http://www.w3.org/1999/xlink" x="0px" y="0px"
	 viewBox="0 0 16 16" style="enable-background:new 0 0 16 16;" xml:space="preserve">
<style type="text/css">
	.st0{fill:#FFFFFF;}
</style>
<title>16</title>
<g id="_16">
	<path class="st0" d="M5,1V0H1v1H0v15h6V1H5z M5,15H1V2h4V15z"/>
	<rect id="_20" x="2" y="10" class="st0" width="2" height="4"/>
	<rect id="_40" x="2" y="10" class="st0" width="2" height="4"/>
	<rect id="_60" x="2" y="7" class="st0" width="2" height="7"/>
	<rect id="_80" x="2" y="5" class="st0" width="2" height="9"/>
	<rect id="_100" x="2" y="3" class="st0" width="2" height="11"/>
	<circle class="st0" cx="11.9" cy="13.4" r="0.8"/>
	<path class="st0" d="M15,1H9C8.4,1,8,1.4,8,2v13c0,0.6,0.4,1,1,1h6c0.6,0,1-0.4,1-1V2C16,1.4,15.6,1,15,1z M15,14.5
		c0,0.3-0.2,0.5-0.5,0.5h-5C9.2,15,9,14.8,9,14.5V12h6V14.5z M9,11V2.5C9,2.2,9.2,2,9.5,2h5C14.8,2,15,2.2,15,2.5V11H9z"/>
</g>
</svg>
