<?xml version="1.0" encoding="utf-8"?>
<!-- Generator: Adobe Illustrator 21.0.0, SVG Export Plug-In . SVG Version: 6.00 Build 0)  -->
<svg version="1.1" id="图层_18" xmlns="http://www.w3.org/2000/svg" xmlns:xlink="http://www.w3.org/1999/xlink" x="0px" y="0px"
	 viewBox="0 0 16 16" style="enable-background:new 0 0 16 16;" xml:space="preserve">
<style type="text/css">
	.st0{fill:#FFFFFF;}
</style>
<title>16</title>
<g id="_16">
	<path class="st0" d="M4,7V6H2v1H0v9h6V7H4z M5,15H1V8h4V15z"/>
	<rect id="_20" x="2" y="13" class="st0" width="2" height="1"/>
	<rect x="10" y="2" class="st0" width="1" height="3"/>
	<path class="st0" d="M12,0.2V6H9V0.2C6.6,0.9,5,3,5,5.5V6h1V5.5C6,4,6.8,2.6,8,1.8V7h5V1.8c1.2,0.8,2,2.2,2,3.7v5
		c0,2.5-2,4.5-4.5,4.5c-1.4,0-2.7-0.6-3.5-1.7v1.4c2.3,1.9,5.8,1.6,7.7-0.7c0.8-1,1.3-2.2,1.3-3.5v-5C16,3,14.4,0.9,12,0.2z"/>
</g>
</svg>
