<?xml version="1.0" encoding="utf-8"?>
<!-- Generator: Adobe Illustrator 21.0.0, SVG Export Plug-In . SVG Version: 6.00 Build 0)  -->
<svg version="1.1" id="有线网络" xmlns="http://www.w3.org/2000/svg" xmlns:xlink="http://www.w3.org/1999/xlink" x="0px"
	 y="0px" viewBox="0 0 16 16" style="enable-background:new 0 0 16 16;" xml:space="preserve">
<style type="text/css">
	.st0{fill:#FFFFFF;}
	.st1{fill:#EA572A;}
</style>
<title>16</title>
<g id="_16">
	<polygon class="st0" points="1,5 10,5 10,4 1,4 0,4 0,5 0,12 0,13 1,13 7,13 7,15 4,15 4,16 7,16 8,16 8,16 8,15 8,15 8,13 8,13 
		8,12 1,12 	"/>
	<rect x="12" y="1" class="st0" width="1" height="2"/>
	<rect x="14" y="1" class="st0" width="1" height="2"/>
	<polygon class="st0" points="15,3 15,7 12,7 12,3 11,3 11,8 12,8 13,8 14,8 15,8 16,8 16,3 	"/>
	<rect x="13" y="4" class="st0" width="1" height="2"/>
	<rect x="11.6" y="9.2" transform="matrix(0.7071 -0.7071 0.7071 0.7071 -4.9367 12.0135)" class="st1" width="0.9" height="5.6"/>
	<rect x="9.2" y="11.6" transform="matrix(0.7071 -0.7071 0.7071 0.7071 -4.9925 12.0343)" class="st1" width="5.6" height="0.9"/>
	<path class="st1" d="M12,16c-2.2,0-4-1.8-4-4s1.8-4,4-4s4,1.8,4,4S14.2,16,12,16z M12,8.9c-1.7,0-3.1,1.4-3.1,3.1s1.4,3.1,3.1,3.1
		s3.1-1.4,3.1-3.1S13.7,8.9,12,8.9z"/>
</g>
</svg>
