<?xml version="1.0" encoding="utf-8"?>
<!-- Generator: Adobe Illustrator 21.0.0, SVG Export Plug-In . SVG Version: 6.00 Build 0)  -->
<svg version="1.1" id="键盘充电" xmlns="http://www.w3.org/2000/svg" xmlns:xlink="http://www.w3.org/1999/xlink" x="0px"
	 y="0px" viewBox="0 0 16 16" style="enable-background:new 0 0 16 16;" xml:space="preserve">
<style type="text/css">
	.st0{fill:#FFFFFF;}
</style>
<title>16</title>
<g id="_16">
	<path class="st0" d="M0,1v15h7V1H0z M6,15H1V2h5V15z"/>
	<rect x="2" class="st0" width="3" height="2"/>
	<rect id="_40" x="2" y="10" class="st0" width="3" height="4"/>
	<rect id="_60" x="2" y="7" class="st0" width="3" height="7"/>
	<path class="st0" d="M9,1v15h7V1H9z M15,15h-5V2h5V15z"/>
	<rect x="11" y="4" class="st0" width="1" height="1"/>
	<rect x="11" y="6" class="st0" width="1" height="1"/>
	
		<rect x="11" y="8" transform="matrix(5.251132e-02 -0.9986 0.9986 5.251132e-02 2.4036 19.5334)" class="st0" width="1" height="1"/>
	<rect x="11" y="10" class="st0" width="1" height="1"/>
	<rect x="11" y="12" class="st0" width="1" height="1"/>
	<rect x="13" y="4" class="st0" width="1" height="1"/>
	<rect x="13" y="6" class="st0" width="1" height="1"/>
	
		<rect x="13" y="8" transform="matrix(5.251132e-02 -0.9986 0.9986 5.251132e-02 4.3072 21.5449)" class="st0" width="1" height="1"/>
	<rect x="13" y="10" class="st0" width="1" height="1"/>
	<rect x="13" y="12" class="st0" width="1" height="1"/>
</g>
</svg>
