<?xml version="1.0" encoding="utf-8"?>
<!-- Generator: Adobe Illustrator 21.0.0, SVG Export Plug-In . SVG Version: 6.00 Build 0)  -->
<svg version="1.1" id="zim" xmlns="http://www.w3.org/2000/svg" xmlns:xlink="http://www.w3.org/1999/xlink" x="0px" y="0px"
	 viewBox="0 0 16 16" style="enable-background:new 0 0 16 16;" xml:space="preserve">
<style type="text/css">
	.st0{fill:#FFFFFF;}
</style>
<title>16</title>
<path id="_16" class="st0" d="M13,7V3H9c0-1.4-1.1-2.5-2.5-2.5S4,1.6,4,3H0v5.4c0.6-0.6,1.6-0.5,2.1,0.1s0.5,1.6-0.1,2.1
	s-1.4,0.5-2,0V16h5.4c-0.6-0.6-0.5-1.6,0.1-2.1c0.6-0.6,1.6-0.5,2.1,0.1s0.5,1.4,0,2H13v-4c1.4,0,2.5-1.1,2.5-2.5S14.4,7,13,7z
	 M13,11c-0.4,0-0.7-0.1-1-0.4V15H9c0-1.4-1.1-2.5-2.5-2.5S4,13.6,4,15H1v-3c1.4,0,2.5-1.1,2.5-2.5S2.4,7,1,7V4h4.4
	C4.8,3.4,4.9,2.4,5.5,1.9S7.1,1.4,7.6,2s0.5,1.4,0,2H12v4.4c0.6-0.6,1.6-0.5,2.1,0.1s0.5,1.6-0.1,2.1C13.7,10.9,13.4,11,13,11z"/>
</svg>
