<?xml version="1.0" encoding="utf-8"?>
<!-- Generator: Adobe Illustrator 24.0.0, SVG Export Plug-In . SVG Version: 6.00 Build 0)  -->
<svg version="1.1" id="MATE字典" xmlns="http://www.w3.org/2000/svg" xmlns:xlink="http://www.w3.org/1999/xlink" x="0px" y="0px"
	 viewBox="0 0 128 128" enable-background="new 0 0 128 128" xml:space="preserve">
<title>128</title>
<g id="_128">
	<path fill="#EE8915" d="M20,8h88c6.6,0,12,5.4,12,12v88c0,6.6-5.4,12-12,12H20c-6.6,0-12-5.4-12-12V20C8,13.4,13.4,8,20,8z"/>
	<path fill="#FFFFFF" d="M40,49h48v9.7l-20,9.4v4h36v8H68v16.2c0,3.8-3.2,6.6-15.2,7.8c0-3.2-1.3-6.2-3.5-8.5C57.7,96.3,60,96,60,92
		V80H24v-8h36v-8c3.3-1.4,14.5-6.8,15-7H40V49z M66.9,24c0.9,2.8,2.9,8.3,3.1,9h33v19h-8V41H33v11h-8V33h35c0,0-2-7-2.6-7.9L66.9,24
		z"/>
</g>
</svg>
