<?xml version="1.0" encoding="utf-8"?>
<!-- Generator: Adobe Illustrator 24.0.0, SVG Export Plug-In . SVG Version: 6.00 Build 0)  -->
<svg version="1.1" id="图层_2" opacity="0.8" xmlns="http://www.w3.org/2000/svg" xmlns:xlink="http://www.w3.org/1999/xlink"
	 x="0px" y="0px" viewBox="0 0 16 16" style="enable-background:new 0 0 16 16;" xml:space="preserve">
<style type="text/css">
	.st0{fill:#1F2022;}
	.st1{fill:none;stroke:#1F2022;stroke-miterlimit:10;}
</style>
<g>
	<path class="st0" d="M13,1c0.6,0,1,0.4,1,1v12c0,0.6-0.4,1-1,1H3c-0.6,0-1-0.4-1-1V2c0-0.6,0.4-1,1-1H13 M13,0H3C1.9,0,1,0.9,1,2
		v12c0,1.1,0.9,2,2,2h10c1.1,0,2-0.9,2-2V2C15,0.9,14.1,0,13,0L13,0z"/>
</g>
<g>
	<path class="st0" d="M7,3c1.1,0,2,0.9,2,2S8.1,7,7,7S5,6.1,5,5S5.9,3,7,3 M7,2C5.3,2,4,3.3,4,5s1.3,3,3,3s3-1.3,3-3S8.7,2,7,2L7,2z
		"/>
</g>
<path class="st1" d="M8.9,9.5H5.1c-0.9,0-1.6,0.7-1.6,1.5v0.6c0,0.5,0.4,0.9,1,0.9h5.1c0.5,0,1-0.4,1-0.9V11
	C10.5,10.2,9.8,9.5,8.9,9.5z"/>
<line class="st1" x1="12.5" y1="0.5" x2="12.5" y2="15.5"/>
</svg>
