<?xml version="1.0" encoding="utf-8"?>
<!-- Generator: Adobe Illustrator 24.0.0, SVG Export Plug-In . SVG Version: 6.00 Build 0)  -->
<svg version="1.1"
	 id="svg7384" xmlns:cc="http://creativecommons.org/ns#" xmlns:dc="http://purl.org/dc/elements/1.1/" xmlns:osb="http://www.openswatchbook.org/uri/2009/osb" xmlns:rdf="http://www.w3.org/1999/02/22-rdf-syntax-ns#" xmlns:svg="http://www.w3.org/2000/svg" opacity="0.8"
	 xmlns="http://www.w3.org/2000/svg" xmlns:xlink="http://www.w3.org/1999/xlink" x="0px" y="0px" viewBox="0 0 16.3 16"
	 style="enable-background:new 0 0 16.3 16;" xml:space="preserve">
<style type="text/css">
	.st0{fill:#1F2022;}
</style>
<g id="g1833" transform="translate(-531.86913,-220)">
	<path id="path926" class="st0" d="M546.9,231.2c-0.1,0-0.2,0-0.3,0c-0.6,0-1.1,0.2-1.6,0.5h0c0,0-0.1,0.1-0.1,0.1
		c0,0.1-0.1,0.2,0,0.2c0,0.1,0.1,0.1,0.2,0.1c0.1,0,0.1,0,0.1,0h0c0.4,0,0.7-0.1,1.1-0.1h0c0.2,0,0.4,0,0.6,0h0v0
		c0.1,0,0.1,0,0.2,0.1c0,0,0,0.1,0,0.2c0,0.1,0,0.1,0,0.2v0c-0.1,0.5-0.3,1-0.5,1.4c0,0,0,0.1,0,0.1c0,0.1,0,0.2,0.1,0.2
		c0.1,0.1,0.2,0.1,0.2,0c0.1,0,0.1,0,0.1-0.1h0c0,0,0.1,0,0.1-0.1c0.7-0.7,1-1.5,1-2.4c0-0.1,0-0.2-0.1-0.3
		c-0.1-0.1-0.1-0.1-0.3-0.2C547.5,231.2,547.2,231.2,546.9,231.2L546.9,231.2z M532.2,231.5C532.1,231.5,532.1,231.5,532.2,231.5
		c-0.2,0-0.2,0.1-0.3,0.1c0,0.1-0.1,0.1,0,0.2c0,0.1,0,0.1,0.1,0.1c0,0.1,0.1,0.1,0.1,0.1v0c0.4,0.3,0.8,0.6,1.2,0.9
		c2,1.4,4.3,2,6.8,2h0c0.8,0,1.7-0.1,2.6-0.3c1.3-0.3,2.6-0.8,3.7-1.5c0.1,0,0.2-0.1,0.2-0.2v0h0c0.1,0,0.1-0.1,0.1-0.2
		c0-0.1,0-0.2,0-0.3c0-0.1-0.1-0.2-0.2-0.2c-0.1,0-0.2,0-0.2,0l0,0h0c-0.1,0-0.2,0.1-0.3,0.1c-1.7,0.7-3.5,1.1-5.4,1.1
		c-1.3,0-2.6-0.1-3.9-0.4c-1.4-0.3-2.7-0.8-4-1.5v0C532.5,231.7,532.4,231.6,532.2,231.5L532.2,231.5
		C532.2,231.5,532.2,231.5,532.2,231.5L532.2,231.5z M545.2,231.9C545.2,231.9,545.2,231.9,545.2,231.9
		C545.2,231.9,545.2,231.9,545.2,231.9C545.2,231.9,545.2,231.9,545.2,231.9z M546.9,234.1C546.9,234.1,546.9,234.1,546.9,234.1
		C546.9,234.1,546.9,234.1,546.9,234.1C546.9,234.1,546.9,234.1,546.9,234.1L546.9,234.1z"/>
	<path id="path926_1_" class="st0" d="M540.2,221c-0.5,0-1,0.1-1.5,0.2c-1.3,0.4-2.3,1.2-2.5,2.6c0,0.1,0,0.3,0.1,0.4
		c0.1,0.1,0.2,0.2,0.3,0.2c0.3,0,0.6,0.1,0.8,0.1c0.1,0,0.2,0,0.2,0c0.2,0,0.4,0,0.5,0.1c0.1,0,0.3,0,0.4-0.1
		c0.1-0.1,0.2-0.2,0.2-0.3c0-0.1,0.1-0.2,0.1-0.2c0.1-0.1,0.1-0.2,0.2-0.3c0.1-0.1,0.2-0.2,0.4-0.2c0,0,0,0,0,0c0,0,0.1,0,0.1,0
		c0.2-0.1,0.5-0.1,0.8,0c0.1,0,0.1,0,0.2,0c0,0,0,0,0,0c0.2,0.1,0.4,0.2,0.5,0.5c0,0,0,0.1,0,0.1c0,0.1,0,0.1,0,0.2
		c0,0.2,0,0.5,0,0.8c0,0,0,0,0,0.1c-0.2,0-0.5,0.1-0.7,0.1c-0.7,0.1-1.4,0.2-2.1,0.4h0c-0.7,0.2-1.4,0.6-1.8,1.2
		c-0.1,0.1-0.1,0.2-0.2,0.3c0,0,0,0.1,0,0.1c-0.4,0.7-0.4,1.5-0.3,2.3c0.2,0.9,0.7,1.5,1.6,1.8c0.2,0.1,0.4,0.1,0.5,0.1
		c0.7,0.1,1.4,0.1,2.1-0.2c0.5-0.2,0.9-0.5,1.3-0.8c0.1,0,0.1-0.1,0.2-0.1c0,0,0,0,0,0c0.2,0.3,0.5,0.6,0.8,0.9
		c0.1,0.1,0.3,0.2,0.4,0.2c0.1,0,0.3-0.1,0.4-0.2c0.4-0.3,0.8-0.7,1.2-1h0c0.1-0.1,0.2-0.2,0.2-0.3c0-0.1,0-0.3-0.1-0.4
		c0-0.1-0.1-0.1-0.1-0.2v0c0,0,0,0,0-0.1c-0.2-0.2-0.3-0.4-0.4-0.6c0,0,0,0,0,0c0,0,0,0,0-0.1c-0.1-0.3-0.1-0.6-0.1-1
		c0-0.5,0-1,0-1.4v0v-0.1c0-0.6,0-1.1,0-1.7c0-0.5-0.1-1-0.3-1.4c-0.4-0.8-1.1-1.2-1.9-1.5C541.2,221.1,540.7,221,540.2,221
		L540.2,221z M541.1,226.5c0,0.2,0,0.4,0,0.7c0,0,0,0.1,0,0.1c0,0.5-0.1,1-0.4,1.4c0,0,0,0.1-0.1,0.1c-0.1,0.1-0.1,0.1-0.2,0.2
		c0,0,0,0-0.1,0.1c-0.1,0-0.1,0.1-0.2,0.1c0,0-0.1,0.1-0.1,0.1c-0.2,0.1-0.3,0.1-0.4,0.1c-0.1,0-0.2-0.1-0.3-0.1
		c-0.1,0-0.1-0.1-0.2-0.1c0,0-0.1-0.1-0.1-0.1c0,0-0.1-0.1-0.1-0.1c-0.1-0.1-0.1-0.2-0.1-0.3c0-0.1,0-0.1,0-0.2c0-0.1,0-0.2,0-0.3
		c0-0.2,0.1-0.4,0.2-0.6c0-0.1,0.1-0.2,0.2-0.2c0,0,0,0,0.1-0.1c0.1-0.1,0.1-0.1,0.2-0.2c0,0,0,0,0,0c0.3-0.2,0.6-0.3,0.9-0.3
		C540.5,226.5,540.8,226.5,541.1,226.5L541.1,226.5z"/>
</g>
</svg>
