<?xml version="1.0" encoding="utf-8"?>
<!-- Generator: Adobe Illustrator 24.0.0, SVG Export Plug-In . SVG Version: 6.00 Build 0)  -->
<svg version="1.1" id="图层_1" xmlns="http://www.w3.org/2000/svg" xmlns:xlink="http://www.w3.org/1999/xlink" x="0px" y="0px"
	 viewBox="0 0 128 128" enable-background="new 0 0 128 128" xml:space="preserve">
<title>armagetronad-112</title>
<linearGradient id="SVGID_1_" gradientUnits="userSpaceOnUse" x1="90.4821" y1="41.6711" x2="112.5721" y2="3.3911" gradientTransform="matrix(1 0 0 1 0 32)">
	<stop  offset="0" style="stop-color:#1E1206"/>
	<stop  offset="0.11" style="stop-color:#271808"/>
	<stop  offset="0.28" style="stop-color:#41280E"/>
	<stop  offset="0.41" style="stop-color:#573613"/>
	<stop  offset="0.83" style="stop-color:#FFB800"/>
	<stop  offset="0.86" style="stop-color:#FBB500"/>
	<stop  offset="0.89" style="stop-color:#F0AD02"/>
	<stop  offset="0.91" style="stop-color:#DE9E04"/>
	<stop  offset="0.93" style="stop-color:#C48A07"/>
	<stop  offset="0.96" style="stop-color:#A2700A"/>
	<stop  offset="0.98" style="stop-color:#7A510F"/>
	<stop  offset="0.99" style="stop-color:#573613"/>
</linearGradient>
<path fill="url(#SVGID_1_)" d="M120.5,54.2L120.5,54.2c0,0.2,0,0.5,0,0.7s0,0.6,0,0.9v0.5v0.3v0.3l0,0l-0.1,0.5l-0.1,0.5
	c0,0.1,0,0.2,0,0.2c0,0.1,0,0.3-0.1,0.4s0,0.3-0.1,0.5v0.1l-0.1,0.5c0,0.2-0.1,0.3-0.1,0.5s-0.1,0.3-0.1,0.5s-0.1,0.3-0.1,0.5
	s-0.1,0.4-0.2,0.6l-0.1,0.4c-0.1,0.2-0.1,0.4-0.2,0.7c-0.5,1.5-1.1,3-1.8,4.5l0,0c-1.1,2-2.5,3.9-4.2,5.5c-1,1-2.1,1.8-3.3,2.5
	c-2.5,1.5-5.4,2.3-8.3,2.3c-10.5,0-19-10.3-19-23c-0.1-1.8,0.1-3.7,0.4-5.5c2-10.1,9.5-17.5,18.4-17.5S117.9,38.9,120,49l0,0
	C120.3,50.7,120.5,52.5,120.5,54.2z"/>
<path fill="#212121" d="M120.5,54.2L120.5,54.2c0,0.2,0,0.5,0,0.7s0,0.6,0,0.9v0.5v0.3v0.3l0,0l-0.1,0.5l-0.1,0.5c0,0.1,0,0.2,0,0.2
	l-0.1,0.4c0,0.2,0,0.3-0.1,0.5v0.1l-0.1,0.5c0,0.2-0.1,0.3-0.1,0.5s-0.1,0.3-0.1,0.5s-0.1,0.3-0.1,0.5s-0.1,0.4-0.2,0.6l-0.1,0.4
	c-0.1,0.2-0.1,0.4-0.2,0.7c-0.5,1.5-1.1,3-1.8,4.5l0,0c-1.1,2-2.5,3.9-4.2,5.5c-1,1-2.1,1.8-3.3,2.5c-1.9,0.9-4.1,1-6,0.1
	c-2.8-1.3-4.7-4.3-5.5-8.3c-0.2-0.9-0.3-1.7-0.4-2.6c-0.3-3.7,0.1-7.4,1.2-10.9c3-9.5,9.8-15.1,15.3-12.6c2.7,1.2,4.6,4.2,5.4,8l0,0
	C120.5,50.6,120.6,52.4,120.5,54.2z"/>
<linearGradient id="SVGID_2_" gradientUnits="userSpaceOnUse" x1="105.52" y1="26.2399" x2="120.5" y2="26.2399" gradientTransform="matrix(1 0 0 1 0 32)">
	<stop  offset="0.4" style="stop-color:#1D1700"/>
	<stop  offset="1" style="stop-color:#1D1700"/>
</linearGradient>
<path fill="url(#SVGID_2_)" d="M120,49L120,49c-0.9-3.8-2.8-6.8-5.4-8c-1.2-0.6-2.5-0.7-3.8-0.5c0.6,0.1,1.2,0.3,1.7,0.5
	c2.7,1.2,4.6,4.2,5.4,8l0,0c0.4,1.7,0.6,3.4,0.5,5.2l0,0c0,0.2,0,0.5,0,0.7s0,0.6,0,0.9s0,0.3,0,0.5c0,0.1,0,0.2,0,0.3v0.3l0,0
	l-0.1,0.5l-0.1,0.5c0,0.1,0,0.2,0,0.2l-0.1,0.4c0,0.2-0.1,0.3-0.1,0.5v0.1l-0.1,0.5c0,0.2-0.1,0.3-0.1,0.5s-0.1,0.3-0.1,0.5
	s-0.1,0.3-0.1,0.5s-0.1,0.4-0.2,0.6l-0.1,0.4c-0.1,0.2-0.1,0.4-0.2,0.7c-0.5,1.5-1.1,3-1.8,4.5l0,0c-1.2,2.1-2.7,3.9-4.4,5.5
	c-1,1-2.1,1.8-3.3,2.5c-0.7,0.3-1.4,0.5-2.2,0.7c1.5,0.2,3,0,4.3-0.7c1.2-0.7,2.3-1.6,3.3-2.5c1.7-1.6,3.1-3.4,4.2-5.5l0,0
	c0.7-1.4,1.3-2.9,1.8-4.5c0.1-0.2,0.1-0.4,0.2-0.7l0.1-0.4c0.1-0.2,0.1-0.4,0.2-0.6s0.1-0.3,0.1-0.5s0.1-0.3,0.1-0.5
	s0.1-0.3,0.1-0.5l0.1-0.5V59c0-0.2,0.1-0.3,0.1-0.5l0.1-0.4c0-0.1,0-0.2,0-0.2l0.1-0.5l0.1-0.5l0,0v-0.3v-0.3v-0.5
	c0-0.3,0-0.6,0-0.9s0-0.5,0-0.7l0,0C120.4,52.5,120.3,50.7,120,49z"/>
<linearGradient id="SVGID_3_" gradientUnits="userSpaceOnUse" x1="100.3013" y1="40.1468" x2="124.1414" y2="26.3783" gradientTransform="matrix(1 0 0 1 0 32)">
	<stop  offset="9.000000e-02" style="stop-color:#573613"/>
	<stop  offset="0.13" style="stop-color:#633F12"/>
	<stop  offset="0.21" style="stop-color:#84590E"/>
	<stop  offset="0.31" style="stop-color:#B88108"/>
	<stop  offset="0.44" style="stop-color:#FFB800"/>
	<stop  offset="0.59" style="stop-color:#AA760A"/>
	<stop  offset="0.74" style="stop-color:#573613"/>
</linearGradient>
<path fill="url(#SVGID_3_)" d="M120.4,51.9L120.4,51.9v0.3v0.3l0,0c0,0.2,0,0.3-0.1,0.5s0,0.3-0.1,0.5v0.2c0,0.1,0,0.3-0.1,0.4
	l-0.1,0.5v0.1l-0.1,0.5l-0.1,0.5c0,0.2-0.1,0.3-0.1,0.5s-0.1,0.3-0.1,0.5s-0.1,0.4-0.2,0.6s-0.1,0.3-0.1,0.4s-0.1,0.4-0.2,0.7
	c-0.5,1.6-1.2,3.1-2,4.5l0,0c-1.2,2-2.8,3.9-4.6,5.5c-1.1,1-2.3,1.8-3.7,2.5c-2.1,0.9-4.4,1-6.5,0.1c-1.6-0.7-2.9-1.8-3.8-3.2
	c0.9,3.6,2.8,6.4,5.3,7.6c1.9,0.8,4.1,0.8,6-0.1c1.2-0.7,2.3-1.6,3.3-2.5c1.7-1.6,3.1-3.4,4.2-5.5l0,0c0.7-1.4,1.3-2.9,1.8-4.5
	c0.1-0.2,0.1-0.4,0.2-0.7l0.1-0.4c0.1-0.2,0.1-0.4,0.2-0.6s0.1-0.3,0.1-0.5s0.1-0.3,0.1-0.5s0.1-0.3,0.1-0.5l0.1-0.5V59
	c0-0.2,0.1-0.3,0.1-0.5l0.1-0.4c0-0.1,0-0.2,0-0.2l0.1-0.5l0.1-0.5l0,0v-0.3v-0.3v-0.5c0-0.3,0-0.6,0-0.9s0-0.5,0-0.7l0,0
	C120.5,53.4,120.5,52.6,120.4,51.9z"/>
<ellipse transform="matrix(0.1538 -0.9881 0.9881 0.1538 37.0128 152.8338)" fill="#343636" cx="107.7" cy="54.8" rx="5.4" ry="4.1"/>
<ellipse fill="#79797B" cx="110.3" cy="55.7" rx="1.2" ry="1.2"/>
<polygon fill="#343636" points="112.2,69.8 30,100.1 15.6,55.2 98.7,28.2 "/>
<linearGradient id="SVGID_4_" gradientUnits="userSpaceOnUse" x1="23.4906" y1="70.1431" x2="55.7426" y2="14.2777" gradientTransform="matrix(1 0 0 1 0 32)">
	<stop  offset="0" style="stop-color:#1E1206"/>
	<stop  offset="0.11" style="stop-color:#271808"/>
	<stop  offset="0.28" style="stop-color:#41280E"/>
	<stop  offset="0.41" style="stop-color:#573613"/>
	<stop  offset="0.83" style="stop-color:#FFB800"/>
	<stop  offset="0.86" style="stop-color:#FBB500"/>
	<stop  offset="0.89" style="stop-color:#F0AD02"/>
	<stop  offset="0.91" style="stop-color:#DE9E04"/>
	<stop  offset="0.93" style="stop-color:#C48A07"/>
	<stop  offset="0.96" style="stop-color:#A2700A"/>
	<stop  offset="0.98" style="stop-color:#7A510F"/>
	<stop  offset="0.99" style="stop-color:#573613"/>
</linearGradient>
<path fill="url(#SVGID_4_)" d="M71.8,73.8L71.8,73.8c0,0.4,0,0.7,0,1.1s0,0.9-0.1,1.3c0,0.2,0,0.4-0.1,0.7s0,0.3,0,0.4s0,0.3,0,0.5
	l0,0c0,0.2-0.1,0.5-0.1,0.7s-0.1,0.5-0.1,0.7l-0.1,0.3c0,0.2-0.1,0.4-0.1,0.6s-0.1,0.5-0.1,0.7v0.1c0,0.2-0.1,0.4-0.2,0.7
	s-0.1,0.5-0.2,0.7s-0.1,0.4-0.2,0.6s-0.1,0.4-0.2,0.7L70,84.5c-0.1,0.2-0.1,0.4-0.2,0.6s-0.2,0.6-0.3,0.9c-0.8,2.2-1.9,4.3-3.1,6.3
	l0,0c-3.2,4.8-7.6,8.6-12.7,11.2c-16,7.9-35.3,1.3-43.2-14.7S9.3,53.3,25.3,45.5s35.3-1.3,43.2,14.7c1,2.1,1.8,4.2,2.4,6.5l0,0
	C71.5,69,71.8,71.4,71.8,73.8z"/>
<path fill="#212121" d="M71.8,73.8L71.8,73.8c0,0.4,0,0.7,0,1.1s0,0.9-0.1,1.3c0,0.2,0,0.4-0.1,0.7s0,0.3,0,0.4s0,0.3,0,0.5l0,0
	c0,0.2-0.1,0.5-0.1,0.7s-0.1,0.5-0.1,0.7l-0.1,0.3c0,0.2-0.1,0.4-0.1,0.6s-0.1,0.5-0.1,0.7v0.1c0,0.2-0.1,0.4-0.2,0.7
	s-0.1,0.5-0.2,0.7s-0.1,0.4-0.2,0.6s-0.1,0.4-0.2,0.7L70,84.5c-0.1,0.2-0.1,0.4-0.2,0.6s-0.2,0.6-0.3,0.9c-0.8,2.2-1.9,4.3-3.1,6.3
	l0,0c-3.2,4.8-7.6,8.6-12.7,11.2c-3.3,1.3-6.9,1.4-10.2,0.2c-4.7-1.8-7.9-6.1-9.3-11.6c-0.3-1.2-0.5-2.4-0.7-3.7
	C33,83.2,33.6,78,35.4,73.2c5-13.3,16.6-21.2,26-17.6c4.6,1.7,7.8,5.9,9.2,11.2l0,0C71.5,69,71.8,71.4,71.8,73.8z"/>
<linearGradient id="SVGID_5_" gradientUnits="userSpaceOnUse" x1="46.42" y1="47.49" x2="71.8" y2="47.49" gradientTransform="matrix(1 0 0 1 0 32)">
	<stop  offset="0.4" style="stop-color:#1D1700"/>
	<stop  offset="1" style="stop-color:#1D1700"/>
</linearGradient>
<path fill="url(#SVGID_5_)" d="M70.9,66.6L70.9,66.6c-1.5-5.3-4.7-9.5-9.2-11.2c-2.1-0.8-4.3-1-6.5-0.7c1,0.1,2,0.4,2.9,0.7
	c4.6,1.7,7.8,5.9,9.2,11.2l0,0c0.6,2.4,0.9,4.8,0.9,7.3c0,0,0,0,0,0.1c0,0.3,0,0.6,0,1s0,0.9-0.1,1.3L68,76.9c0,0.1,0,0.3,0,0.4v0.4
	l0,0c0,0.2-0.1,0.5-0.1,0.7s-0.1,0.5-0.1,0.7l-0.1,0.3c0,0.2-0.1,0.4-0.1,0.6s-0.1,0.5-0.1,0.7v0.1l-0.2,0.7l-0.2,0.7
	c0,0.2-0.1,0.4-0.2,0.6s-0.1,0.4-0.2,0.7s-0.2,0.6-0.3,0.9s-0.1,0.4-0.2,0.6L66,85.9c-0.8,2.2-1.9,4.3-3.1,6.3l0,0
	c-3.2,4.8-7.6,8.6-12.7,11.2c-1.2,0.4-2.4,0.7-3.7,0.9c2.5,0.3,5,0,7.3-0.9c5.1-2.5,9.5-6.4,12.7-11.2l0,0c1.2-2,2.3-4.1,3.1-6.3
	c0.1-0.3,0.2-0.6,0.3-0.9s0.1-0.4,0.2-0.6l0.3-0.9c0.1-0.2,0.1-0.4,0.2-0.7s0.1-0.4,0.2-0.6s0.1-0.5,0.2-0.7s0-0.5,0-0.7v-0.1
	c0-0.2,0.1-0.4,0.1-0.7s0.1-0.4,0.1-0.6l0.1-0.3c0-0.2,0.1-0.5,0.1-0.7s0.1-0.5,0.1-0.7l0,0c0-0.2,0-0.3,0-0.5s0-0.3,0-0.4
	s0-0.4,0.1-0.7c0-0.4,0.1-0.9,0.1-1.3s0-0.6,0-1v-0.1C71.7,71.4,71.5,69,70.9,66.6z"/>
<linearGradient id="SVGID_6_" gradientUnits="userSpaceOnUse" x1="38.4856" y1="68.9049" x2="76.4428" y2="46.9866" gradientTransform="matrix(1 0 0 1 0 32)">
	<stop  offset="9.000000e-02" style="stop-color:#573613"/>
	<stop  offset="0.13" style="stop-color:#633F12"/>
	<stop  offset="0.21" style="stop-color:#84590E"/>
	<stop  offset="0.31" style="stop-color:#B88108"/>
	<stop  offset="0.44" style="stop-color:#FFB800"/>
	<stop  offset="0.59" style="stop-color:#AA760A"/>
	<stop  offset="0.74" style="stop-color:#573613"/>
</linearGradient>
<path fill="url(#SVGID_6_)" d="M71.6,70.6L71.6,70.6c0,0.1,0,0.3,0,0.4c0,0.2,0,0.3-0.1,0.5l0,0c0,0.2-0.1,0.5-0.1,0.7l-0.1,0.7
	c0,0.1,0,0.2-0.1,0.3c0,0.2-0.1,0.4-0.1,0.6L71,74.4v0.1c0,0.2-0.1,0.4-0.2,0.7l-0.2,0.7c-0.1,0.2-0.1,0.4-0.2,0.6s-0.1,0.4-0.2,0.7
	S70.1,77.8,70,78l-0.2,0.6l-0.4,0.9c-0.9,2.2-2.1,4.3-3.4,6.3l0,0c-2.1,2.9-4.8,5.5-7.7,7.6c-2,1.4-4.1,2.6-6.3,3.6
	c-3.6,1.3-7.5,1.4-11.1,0.2c-2.5-0.9-4.8-2.4-6.5-4.5c1.5,5.1,4.7,9,9.1,10.7c3.3,1.2,6.9,1.1,10.2-0.2c5.2-2.5,9.6-6.4,12.8-11.2
	l0,0c1.2-2,2.3-4.1,3.1-6.3c0.1-0.3,0.2-0.6,0.3-0.9s0.1-0.4,0.2-0.6l0.3-0.9c0.1-0.2,0.1-0.4,0.2-0.7s0.1-0.4,0.2-0.6
	s0.1-0.5,0.2-0.7s0-0.3,0-0.5v-0.1c0-0.2,0.1-0.4,0.1-0.7s0.1-0.4,0.1-0.6l0.1-0.3c0-0.2,0.1-0.5,0.1-0.7s0.1-0.5,0.1-0.7l0,0
	c0-0.2,0-0.3,0-0.5s0-0.3,0-0.4s0-0.4,0.1-0.7c0-0.4,0.1-0.9,0.1-1.3s0-0.6,0-1v-0.1C71.7,72.7,71.7,71.7,71.6,70.6z"/>
<ellipse transform="matrix(0.4101 -0.912 0.912 0.4101 -38.5808 89.8551)" fill="#343636" cx="50.2" cy="74.8" rx="7.7" ry="6.9"/>
<ellipse fill="#79797B" cx="54.5" cy="75.9" rx="1.9" ry="1.7"/>
<path fill="#9C662B" d="M19.7,51.8c0.5,0.9,4.4-0.3,4.8-0.4c2.2-0.7,4.1-1.8,5.9-3.2c1.3-1.1,5.6-3.6,14.2-8.7
	c4.7-2.9,9.7-5.4,14.8-7.5c7-2.9,10.6-3.4,12.1-3.5c3.3-0.4,6.7-0.3,10,0.2c5,0.7,10,2,14.7,3.9c2.2,1,7.4,2.6,7.6,2.3
	c0.3-0.5-7.9-5.3-11.5-7.5c-8.8-5.3-18.8-3.1-28.7-1c-14.9,3.2-24.8,9.7-31.3,14.2C26.8,44.3,18.9,50.4,19.7,51.8z"/>
<linearGradient id="SVGID_7_" gradientUnits="userSpaceOnUse" x1="13.8168" y1="5.1839" x2="103.7" y2="5.1839" gradientTransform="matrix(1 0 0 1 0 32)">
	<stop  offset="0.29" style="stop-color:#FFBB00"/>
	<stop  offset="0.56" style="stop-color:#AA770A"/>
	<stop  offset="0.84" style="stop-color:#573613"/>
	<stop  offset="1" style="stop-color:#573613"/>
</linearGradient>
<path fill="url(#SVGID_7_)" d="M103.7,34.9c-4.7-2.8-9.8-4.9-15.1-6.2c-3.9-0.9-7.8-1.4-11.8-1.3C65.6,27.6,57.1,32.1,43,39.5
	c-1.1,0.6-2.2,1.2-3.2,1.7c-6,3.3-11.8,6.9-17.4,10.8c-6.5,1.5-8.2,0.9-8.5,0.2C12.5,49.3,29.2,38.8,32.1,37l0,0
	c6-3.8,12.4-7.7,21.8-11c5.5-1.9,11.5-4,19.7-4.4c4.1-0.3,8.3-0.2,12.4,0.4c4.9,0.8,9.9,2.6,13.7,6.7
	C101.4,30.6,102.7,32.6,103.7,34.9z"/>
<path fill="#212121" d="M88.6,28.7c-3.9-0.9-7.8-1.4-11.8-1.3C65.6,27.6,57.1,32.1,43,39.5c-1.1,0.6-2.2,1.2-3.2,1.7L32.1,37
	c6-3.8,12.4-7.7,21.8-11c5.5-1.9,11.5-4,19.7-4.4c4.1-0.3,8.3-0.2,12.4,0.4L88.6,28.7z"/>
<path fill="#79797B" d="M117.5,37c-0.2-1.2-0.9-2.3-1.9-2.9c-1-0.5-1.5,0-2.2-0.5c-1-0.8-0.1-2.4-0.9-4c-0.9-2-3.5-2.8-5.3-2.7
	c-1,0.1-2,0.4-2.8,1l10.1,15.8C115.9,42,117.9,39.4,117.5,37z"/>
<path fill="#343636" d="M116.8,59.3c-0.7-0.6-1.2-1.4-1.4-2.3c-0.2-1.9,2.3-2.4,2.3-4.4c0-1.7-1.7-3.4-2.5-4.2
	c-1.1-1.1-1.8-1.3-2-2.2s0.5-1.5,1.2-2.5l0.1-0.1l-10.1-15.8c-0.3,0.2-0.6,0.4-0.8,0.6c-5.2,4.7-11.1,34.3-1.2,41.8
	c1.4,0.9,3.2,1.2,4.8,0.8l11.1-11C117.7,59.9,117.2,59.7,116.8,59.3z"/>
<path fill="#4F5254" d="M107.2,71.1c2.6-0.4,5.1-1.3,7.5-2.4l5-1.9l0.1-6.5c-0.4-0.2-0.9-0.4-1.5-0.4L107.2,71.1z"/>
<linearGradient id="SVGID_8_" gradientUnits="userSpaceOnUse" x1="114.2297" y1="34.4197" x2="92.6397" y2="-2.9703" gradientTransform="matrix(1 0 0 1 0 32)">
	<stop  offset="0.37" style="stop-color:#573613"/>
	<stop  offset="0.64" style="stop-color:#583715"/>
	<stop  offset="0.74" style="stop-color:#5B3C1C"/>
	<stop  offset="0.81" style="stop-color:#604527"/>
	<stop  offset="0.86" style="stop-color:#675038"/>
	<stop  offset="0.91" style="stop-color:#70604E"/>
	<stop  offset="0.95" style="stop-color:#7C7369"/>
	<stop  offset="0.99" style="stop-color:#898988"/>
	<stop  offset="0.99" style="stop-color:#8A8B8B"/>
</linearGradient>
<path fill="url(#SVGID_8_)" d="M107.6,48.3c-1.3,2-0.1,3.3,0.5,8.8c0.8,7.4,0.1,12.9-0.3,12.9L106,58l-3.4,0.1
	c-0.4-0.1-0.8-0.1-1.2,0l-7.6,0.3c-0.3-9.1,0-9.6,0-9.6c0.8-0.3,0.9,0,2.5,0c0.1,0,0.1-0.2,0-0.3c-0.2-4.1-0.3-8.8-0.5-13.6
	c0-0.7,0.8-3-2.4-3.4c-1.1-0.1-2.9-0.4-4.4-0.6c5-0.9,10.2,0.2,15.2,2c2.5,0.9,9.5,2.3,8.8,4.8C111.5,41.5,109.7,45,107.6,48.3z"/>
<path fill="#9C662B" d="M27.7,52.3c0.5,0.9,4.8,0.1,5.2,0c3-1,5.8-2.2,8.6-3.6c6.5-2.8,11-5.5,18.1-8.5c6-2.5,6.8-3.6,13.4-5.9
	c7.2-2.5,10.5-2.7,12-2.8c2.8-0.3,5.7-0.2,8.5,0.3c4.6,0.8,9.2,2.1,13.5,3.9c2,1.1,4.2,1.9,6.4,2.3c-2.2-2.7-4.8-5-7.8-6.6
	c-8.7-4.4-19.9-4.3-29.8-2.7c-15,2.5-25,8.8-32,12.6C34.5,46.3,27,50.8,27.7,52.3z"/>
<path fill="#9C662B" d="M23.2,52.2c0.5,0.9,10.8-4.7,11.1-4.8c2.2-0.6,4.2-1.6,6-2.9c1.4-1,5.8-3.3,14.6-7.9
	c4.9-2.6,9.9-4.9,15.1-6.7c7.2-2.5,10.8-2.8,12.2-2.9c3.3-0.2,6.7,0,10,0.7c5,0.9,9.9,2.5,14.5,4.7c2.1,1.1,6.6,6.1,6.6,5.8
	s-4.5-8.6-9-10.9c-8.7-4.4-19.9-4.3-29.8-2.7c-15,2.5-25,8.8-32,12.6C33.4,42,22.5,50.7,23.2,52.2z"/>
<linearGradient id="SVGID_9_" gradientUnits="userSpaceOnUse" x1="30.3054" y1="33.3283" x2="104.6802" y2="-9.6099" gradientTransform="matrix(1 0 0 1 0 32)">
	<stop  offset="0.47" style="stop-color:#FFBB00"/>
	<stop  offset="0.69" style="stop-color:#AA770A"/>
	<stop  offset="0.9" style="stop-color:#573613"/>
	<stop  offset="1" style="stop-color:#573613"/>
</linearGradient>
<path fill="url(#SVGID_9_)" d="M109.5,31.7c1.6,1.8,3,3.9,3.9,6.2c-11.6-7.2-21.5-8.1-26.7-8.2C75.5,29.8,66.9,34,52.6,41
	c-7.2,3.5-14.2,7.6-20.9,12c-6.5,1.3-8.2,0.8-8.5,0c-1.3-2.9,15.7-13,18.6-14.8c6-3.6,12.5-7.4,22.1-10.5c5.6-1.7,11.6-3.6,19.8-3.8
	C90.1,23.8,102.2,23.6,109.5,31.7z"/>
<path opacity="0.51" fill="#79797B" enable-background="new    " d="M90.5,70.5c0.2,1.7,4.4,1.5,6.2,1.9c1.3,0.3,1.9-2.5,1.2-3.8
	c-0.8-1.5-2.9-1.4-3.3-1.4C92.5,67.3,90.3,69.1,90.5,70.5z"/>
<path opacity="0.51" fill="#79797B" enable-background="new    " d="M71.8,73.9L71.8,73.9c0-2.5-0.3-4.9-0.9-7.3l0,0
	c-0.3-1.4-0.8-2.8-1.3-4.2c1.6,0.3,3,3.4,3.4,5.8c0.2,1.5,0.2,4.5-1.1,5.9L71.8,73.9L71.8,73.9z"/>
<path fill="none" d="M93.9,48.9C93.9,49,93.9,49,93.9,48.9h2.6C94.8,48.9,94.6,48.7,93.9,48.9z"/>
<linearGradient id="SVGID_10_" gradientUnits="userSpaceOnUse" x1="83.7424" y1="24.2128" x2="69.9824" y2="0.3628" gradientTransform="matrix(1 0 0 1 0 32)">
	<stop  offset="0.54" style="stop-color:#212121"/>
	<stop  offset="0.74" style="stop-color:#232323"/>
	<stop  offset="0.81" style="stop-color:#2A2A2A"/>
	<stop  offset="0.87" style="stop-color:#353535"/>
	<stop  offset="0.91" style="stop-color:#464646"/>
	<stop  offset="0.94" style="stop-color:#5C5C5C"/>
	<stop  offset="0.98" style="stop-color:#767777"/>
	<stop  offset="0.99" style="stop-color:#8A8B8B"/>
</linearGradient>
<path fill="url(#SVGID_10_)" d="M93.9,48.9c0.8-0.3,0.9,0,2.5,0c0.1,0,0.1-0.2,0-0.3c-0.2-4.1-0.3-8.8-0.5-13.6c0-0.7,0.8-3-2.4-3.4
	c-1.1-0.1-2.9-0.4-4.4-0.6c-0.8-0.1-1.6-0.2-2.4-0.3c-9.6,0-17.3,3.1-28.3,8.4c-2.7,1.2-5.1,2.8-7.2,4.8c-0.1,0.1,0,0,0,0.1
	c3.6,1.5,7,3.5,9.9,6.1L93.9,48.9C93.9,49,93.9,48.9,93.9,48.9z"/>
<linearGradient id="SVGID_11_" gradientUnits="userSpaceOnUse" x1="96.5246" y1="44.6657" x2="76.1889" y2="9.4332" gradientTransform="matrix(1 0 0 1 0 32)">
	<stop  offset="0" style="stop-color:#1E1206"/>
	<stop  offset="0.99" style="stop-color:#1E1206"/>
</linearGradient>
<path fill="url(#SVGID_11_)" d="M106,58l-3.4,0.1h-1.2l-7.6,0.3c-0.2-7.5-0.1-9.1,0-9.5L61,50.2c1.9,1.7,3.6,3.6,5,5.6
	c6.9,2.8,14.1,5.5,20.1,7.9c7.3,2.9,18.6-1,18.6-1l1.3,7.7l1.9-0.3l0,0L106,58z"/>
</svg>
