<?xml version="1.0" encoding="utf-8"?>
<!-- Generator: Adobe Illustrator 24.0.0, SVG Export Plug-In . SVG Version: 6.00 Build 0)  -->
<svg version="1.1" id="图层_1" xmlns="http://www.w3.org/2000/svg" xmlns:xlink="http://www.w3.org/1999/xlink" x="0px" y="0px"
	 viewBox="0 0 128 128" enable-background="new 0 0 128 128" xml:space="preserve">
<title>blender128</title>
<path fill="#F7872B" d="M80.3,64.7c13.5-5.1,27-6.7,38.6-5.2c-1.7-3.4-3.8-6.6-6.3-9.4c-1-1.2-2.2-2.3-3.3-3.3L74.7,12.4
	c-3.3-3.2-8.5-3.2-11.8,0c-3.2,3.2-3.2,8.4,0,11.6l0,0l12.5,12.4H20c-4.6,0-8.3,3.7-8.3,8.3S15.4,53,20,53h21.7L7.4,87
	c-3.2,3.2-3.2,8.4,0,11.6l0,0c3.3,3.2,8.5,3.2,11.8,0l15.3-15.2c0.8,5.4,2.8,10.6,5.7,15.2C46.2,85.1,60.8,72.1,80.3,64.7z"/>
<path fill="#FFFFFF" d="M62.3,73.9c1-7.1,7.7-12.7,15.8-12.7c2.5,0,5,0.6,7.3,1.6c5.2-1.6,10.6-2.8,16-3.4
	C95.6,52.7,87.1,48.9,78.2,49C62,49,48.8,61,48.8,75.8c0,2.8,0.5,5.6,1.4,8.3C53.9,80.3,57.9,76.9,62.3,73.9z"/>
<path fill="#F57900" d="M120,62c-0.3-0.8-0.7-1.6-1.1-2.4c-5.8-0.7-11.7-0.7-17.5,0c3.9,4.5,6.1,10.3,6.1,16.3
	c0,14.8-13.2,26.8-29.4,26.8c-13.1,0-24.1-7.8-27.9-18.5c-4.2,4.3-7.6,9.2-10.1,14.6c7.5,12,20.7,19.3,34.9,19.3h7
	c22.6,0.1,40.9-18.2,41-40.8l0,0C123,72,122,66.8,120,62z"/>
<path fill="#E6E6E6" d="M78.2,102.6c16.2,0,29.4-12,29.4-26.8c0-6-2.2-11.8-6.1-16.3c-5.4,0.6-10.8,1.8-16,3.4
	c5.2,2.2,8.5,7.3,8.7,12.9c0,8-7.1,14.5-15.9,14.5s-15.9-6.5-15.9-14.5c0-0.6,0-1.3,0.1-1.9c-4.4,2.9-8.5,6.3-12.1,10.2
	C54,94.8,65.1,102.6,78.2,102.6z"/>
<path fill="#1D56A8" d="M62.3,73.9c5.6-3.8,11.7-6.9,18-9.3c1.7-0.7,3.4-1.3,5.2-1.8c-2.3-1.1-4.8-1.6-7.3-1.6
	C70,61.3,63.3,66.8,62.3,73.9z"/>
<path fill="#174996" d="M62.3,73.9c-0.1,0.6-0.1,1.2-0.1,1.9c0,8,7.1,14.5,15.9,14.5S94,83.8,94,75.8c-0.1-5.6-3.5-10.7-8.6-12.9
	c-1.7,0.5-3.5,1.1-5.2,1.8C74,67.1,68,70.2,62.3,73.9z"/>
</svg>
