<?xml version="1.0" encoding="utf-8"?>
<!-- Generator: Adobe Illustrator 24.0.0, SVG Export Plug-In . SVG Version: 6.00 Build 0)  -->
<svg version="1.1" id="图层_1" xmlns="http://www.w3.org/2000/svg" xmlns:xlink="http://www.w3.org/1999/xlink" x="0px" y="0px"
	 viewBox="0 0 128 128" enable-background="new 0 0 128 128" xml:space="preserve">
<title>krusader128_1</title>
<linearGradient id="SVGID_1_" gradientUnits="userSpaceOnUse" x1="8.8" y1="7.7455" x2="31.9" y2="7.7455" gradientTransform="matrix(1 0 0 1 0 32)">
	<stop  offset="0" style="stop-color:#3C81C6"/>
	<stop  offset="0.96" style="stop-color:#316AA3"/>
</linearGradient>
<path fill="url(#SVGID_1_)" d="M31.9,33.1c-1.1-1-2.4-1.7-3.8-2.1c-7.4-2.2-15.9,4.7-19,15.3c-0.1,0.4-0.2,0.8-0.3,1.2
	c1.7-1.9,3.6-2.8,5.3-2.4c1.5,0.4,2.6,1.8,3.3,3.8C20.8,42.5,25.8,37,31.9,33.1z"/>
<path fill="#CFD8DC" d="M14.1,45.1c-1.7-0.4-3.6,0.5-5.3,2.4c-1.9,7.7-0.4,15.1,3.5,19.2c0.5-6.2,2.2-12.3,5.1-17.8
	C16.8,46.9,15.6,45.5,14.1,45.1z"/>
<path fill="#1A1A1A" d="M15.2,52.2c-0.2,0.7-0.9,1.2-1.6,1.3c-0.3,0-0.5-0.1-0.7-0.2c-0.2,0.5-0.3,1-0.3,1.6c0,1.6,0.9,2.9,2,2.9
	s2-1.3,2-2.9C16.5,53.8,16,52.8,15.2,52.2z"/>
<path fill="#6192C7" d="M15.2,52.2C14.9,52,14.7,52,14.4,52c-0.8,0.1-1.4,0.6-1.6,1.3c0.2,0.1,0.5,0.2,0.7,0.2
	C14.3,53.4,14.9,52.9,15.2,52.2z"/>
<path fill="#6FA3D8" d="M116.8,30.9c0.7-10,5.9-17.6,1.3-16.6c-0.6,0.1-1.1,0.4-1.7,0.7c1.9,1.1-2.1,7.9-2.7,16.5
	c-0.3,4.8,4.6,13.3-1.3,29.9c-3.8,10.8-13.5,18.3-12.2,27.9c1.2,8.9,9.1,13.5,10.3,15.2c1.9,0.3,3.2,0.3,3.2-0.2
	c0-1.4-9.2-6-10.5-15.6s8.3-17.1,12.2-27.9C121.4,44.2,116.5,35.7,116.8,30.9z"/>
<path fill="#8DB7E1" d="M100.3,89.3c-1.3-9.6,8.3-17.1,12.2-27.9c5.9-16.6,1-25.1,1.3-29.9c0.6-8.6,4.6-15.5,2.7-16.5
	c-2.8,1.6-6.5,5.7-11.2,11.6c-9.2,11.6-10.9,41.5-10.9,41.5s-1.6-1.3-5.9,14.9c-3.4,12.9,14.6,20.2,22.1,21.5
	C109.4,102.8,101.5,98.2,100.3,89.3z"/>
<linearGradient id="SVGID_2_" gradientUnits="userSpaceOnUse" x1="12.1" y1="38.8" x2="99.8406" y2="38.8" gradientTransform="matrix(1 0 0 1 0 32)">
	<stop  offset="0" style="stop-color:#3073BF"/>
	<stop  offset="0.96" style="stop-color:#23487C"/>
</linearGradient>
<path fill="url(#SVGID_2_)" d="M50,27.9c-6.4,0-12.7,1.8-18.1,5.2c-10.8,6.7-18.4,19.1-19.6,33.6c-0.1,1.4-0.2,2.7-0.2,4.1
	c0,23.7,16.9,42.9,37.8,42.9S98.7,100,99.8,76.3C101.1,50.2,70.9,27.9,50,27.9z"/>
<path fill="#6DA1D6" d="M15.3,94.1c-0.5-2.9-0.2-9.7,12.6-3.6c14.2,6.7,31,1.4,35.5-0.3s2.3,16.2-25,16.2
	C23.4,106.4,16.2,98.9,15.3,94.1z"/>
<path fill="#5185A8" d="M20.4,94c1.6-0.5,6.1,4.5,19.6,4.8c11.5,0.2,17.7-3.4,17.6-2.1c0,1-11.7,4.3-21.8,3.5
	C24.3,99.3,18.5,94.6,20.4,94z"/>
<linearGradient id="SVGID_3_" gradientUnits="userSpaceOnUse" x1="45.3024" y1="35.7469" x2="78.2924" y2="16.6968" gradientTransform="matrix(1 0 0 1 0 32)">
	<stop  offset="0" style="stop-color:#3C81C6"/>
	<stop  offset="0.96" style="stop-color:#316AA3"/>
</linearGradient>
<path fill="url(#SVGID_3_)" d="M78.8,53.5C86.3,65.1,83,82.7,67,86.1c-10.7,2.2-22-12.8-22.7-27.9c-0.8-17.2,4.3-29,15.4-28.6
	C73.7,30,71,41.5,78.8,53.5z"/>
<path fill="#F2F2F2" d="M44.7,49.5c-3.3,9.5,3.2,31.2,18.1,28.9c11.8-1.8,21.5-14.2,16.6-22.8C72.8,44.1,46.5,44.4,44.7,49.5z"/>
<path d="M73.8,53.4c-1.1,1.8-3.4,2.3-5.2,1.2c-0.4,0.7-0.7,1.4-0.7,2.2c0,2.2,1.8,3.9,4,3.9s3.9-1.8,3.9-4
	C75.8,55.4,75,54.1,73.8,53.4z"/>
<path fill="#6192C7" d="M73.8,53.4c-0.6-0.4-1.3-0.5-2-0.5c-1.3,0-2.5,0.7-3.3,1.8C70.3,55.7,72.7,55.2,73.8,53.4L73.8,53.4z"/>
</svg>
