<?xml version="1.0" encoding="utf-8"?>
<!-- Generator: Adobe Illustrator 24.0.0, SVG Export Plug-In . SVG Version: 6.00 Build 0)  -->
<svg version="1.1" id="图层_2" opacity="0.8" xmlns="http://www.w3.org/2000/svg" xmlns:xlink="http://www.w3.org/1999/xlink"
	 x="0px" y="0px" viewBox="0 0 16 16" style="enable-background:new 0 0 16 16;" xml:space="preserve">
<style type="text/css">
	.st0{fill:#1F2022;}
</style>
<g>
	<path class="st0" d="M13,2c0.6,0,1,0.4,1,1v10c0,0.6-0.4,1-1,1H3c-0.6,0-1-0.4-1-1V3c0-0.6,0.4-1,1-1H13 M13,1H3C1.9,1,1,1.9,1,3
		v10c0,1.1,0.9,2,2,2h10c1.1,0,2-0.9,2-2V3C15,1.9,14.1,1,13,1L13,1z"/>
</g>
<g id="path3179">
	<path class="st0" d="M4.5,5C4.2,5,4,5.2,4,5.5S4.2,6,4.5,6H5h0.5V5H5H4.5z M5.5,5v1C5.8,6,6,6.2,6,6.5v1C6,7.8,5.8,8,5.5,8v1H6
		c0.6,0,1-0.4,1-1V6c0-0.5-0.3-0.9-0.8-1C6.1,5,6.1,5,6,5L5.5,5z M5,8C4.4,8,4.1,8.5,4,9v0.5v1V11c0,0.6,0.4,1,1,1h0.5v-1
		C5.2,11,5,10.8,5,10.5v-1C5,9.2,5.2,9,5.5,9V8H5z M5.5,11v1H6h0.5C6.8,12,7,11.8,7,11.5S6.8,11,6.5,11H5.5z"/>
</g>
<g id="path3177">
	<path class="st0" d="M9,5C8.4,5,8,5.4,8,6v2c0,0.2,0.5,0.4,0.6,0.5C8.5,8.6,8,8.8,8,9v2c0,0.6,0.4,1,1,1h2c0.6,0,1-0.4,1-1V9
		c0-0.2-0.5-0.4-0.6-0.5C11.5,8.4,12,8.2,12,8V6c0-0.6-0.4-1-1-1H9z M9.5,6h1C10.8,6,11,6.2,11,6.5v1C11,7.8,10.8,8,10.5,8h-1
		C9.2,8,9,7.8,9,7.5v-1C9,6.2,9.2,6,9.5,6z M9.5,9h1C10.8,9,11,9.2,11,9.5v1c0,0.3-0.2,0.5-0.5,0.5h-1C9.2,11,9,10.8,9,10.5v-1
		C9,9.2,9.2,9,9.5,9z"/>
</g>
<g>
	<path class="st0" d="M2.1,11H1.9C1.4,11,1,10.6,1,10.1V5.9C1,5.4,1.4,5,1.9,5h0.2C2.6,5,3,5.4,3,5.9v4.2C3,10.6,2.6,11,2.1,11z"/>
</g>
<g>
	<path class="st0" d="M14.1,11h-0.2c-0.5,0-0.9-0.4-0.9-0.9V5.9C13,5.4,13.4,5,13.9,5h0.2C14.6,5,15,5.4,15,5.9v4.2
		C15,10.6,14.6,11,14.1,11z"/>
</g>
</svg>
