<?xml version="1.0" encoding="utf-8"?>
<!-- Generator: Adobe Illustrator 24.0.0, SVG Export Plug-In . SVG Version: 6.00 Build 0)  -->
<svg version="1.1" id="浏览器" xmlns="http://www.w3.org/2000/svg" xmlns:xlink="http://www.w3.org/1999/xlink" x="0px" y="0px"
	 viewBox="0 0 128 128" enable-background="new 0 0 128 128" xml:space="preserve">
<title>128</title>
<g id="_128">
	<path fill="#BDD8ED" d="M64,5C31.4,5,5,31.4,5,64s26.4,59,59,59s59-26.4,59-59S96.6,5,64,5z M64,92.2c-15.6,0-28.2-12.6-28.2-28.2
		S48.4,35.8,64,35.8S92.2,48.4,92.2,64S79.6,92.2,64,92.2L64,92.2z"/>
	<path fill="#8BB7DE" d="M70.4,91.4C55.3,95,40.2,85.7,36.6,70.6c-0.5-2.2-0.8-4.4-0.8-6.6c0-1.6,0.1-3.1,0.4-4.7L16.1,29.6
		C-2.9,56.1,3.2,93,29.6,112c7.2,5.1,15.4,8.6,24.1,10.1L70.4,91.4z"/>
	
		<linearGradient id="SVGID_1_" gradientUnits="userSpaceOnUse" x1="15.6" y1="0.5855" x2="119" y2="0.5855" gradientTransform="matrix(1 0 0 1 0 32)">
		<stop  offset="0" style="stop-color:#44709B"/>
		<stop  offset="1" style="stop-color:#5A85B2"/>
	</linearGradient>
	<path fill="url(#SVGID_1_)" d="M35.8,60.2l0.3-0.1c2.1-15.4,16.3-26.1,31.7-24c5.3,0.7,10.3,3,14.4,6.4H119
		C107.2,12.2,73-2.8,42.6,9c-10.9,4.3-20.3,11.7-27,21.3L35.8,60.2z"/>
	<circle fill="#FFFFFF" cx="64" cy="64" r="30"/>
	
		<linearGradient id="SVGID_2_" gradientUnits="userSpaceOnUse" x1="64" y1="51.4" x2="64" y2="11.68" gradientTransform="matrix(1 0 0 1 0 32)">
		<stop  offset="0" style="stop-color:#4680C0"/>
		<stop  offset="1" style="stop-color:#8EB3DE"/>
	</linearGradient>
	<circle fill="url(#SVGID_2_)" cx="64" cy="64" r="23"/>
</g>
</svg>
