<?xml version="1.0" encoding="utf-8"?>
<!-- Generator: Adobe Illustrator 24.0.0, SVG Export Plug-In . SVG Version: 6.00 Build 0)  -->
<svg version="1.1" id="图层_1" xmlns="http://www.w3.org/2000/svg" xmlns:xlink="http://www.w3.org/1999/xlink" x="0px" y="0px"
	 viewBox="0 0 128 128" enable-background="new 0 0 128 128" xml:space="preserve">
<title>clementine128</title>
<path fill="#FDA864" d="M73.4,111.5c-35,0-63.4-28.1-63.4-62.7c0-12.3,3.6-24.4,10.5-34.6C10.5,25.5,5,40.1,5,55.3
	C5,89.9,33.4,118,68.4,118c21.2,0,41-10.5,52.8-28.1C109.1,103.7,91.7,111.5,73.4,111.5z"/>
<path fill="#FED9BD" d="M122.6,87.1l-0.3,0.3C110.1,101.2,92.5,109,74,108.7c-34.3-0.6-61.8-28.6-61.6-62.5
	c0.1-12,3.7-23.7,10.4-33.7c0.3-0.5,0.7-1,1-1.5c0.2-0.2,0.3-0.4,0.5-0.6c-1.2,0.4-2.2,1.2-2.9,2.2c-0.4,0.5-0.7,1-1,1.5
	c-6.6,10.1-10.3,22-10.4,34.1c-0.3,34.3,27.7,62.7,62.3,63.2c18.7,0.3,36.5-7.5,48.9-21.5l0.3-0.3c0.7-0.8,1.2-1.8,1.4-2.8
	C122.8,86.9,122.7,87,122.6,87.1z"/>
<path fill="#FED9BD" d="M66.6,66.3c9.1,6.3,19.8,6.6,23.9,0.8l0.1-0.2c-11.8-6.4-22.8-14-32.8-22.8l-0.2,0.3
	C53.4,50.2,57.4,60.1,66.6,66.3z"/>
<radialGradient id="SVGID_1_" cx="67.76" cy="27.2168" r="52.61" gradientTransform="matrix(1 0 0 0.99 0 32.41)" gradientUnits="userSpaceOnUse">
	<stop  offset="0.1" style="stop-color:#FEC39B"/>
	<stop  offset="1" style="stop-color:#FA9550"/>
</radialGradient>
<path fill="url(#SVGID_1_)" d="M55.5,96.2l7.9-13.6c1-1.8,1.9-3.7,2.6-5.6l3.2-9.2c-0.9-0.5-1.7-1-2.6-1.6c-1.2-0.8-2.3-1.7-3.3-2.6
	l-7.6,6.6c-1.6,1.4-3.3,2.6-5.1,3.7l-13.7,7.8c-1.9,1-3.9,1.7-6,2l-5.4,0.7c6.1,7.9,14.1,14.2,23.2,18.4l2.9-2.2
	C53.1,99.5,54.5,98,55.5,96.2z"/>
<radialGradient id="SVGID_2_" cx="67.76" cy="27.2168" r="52.61" gradientTransform="matrix(1 0 0 0.99 0 32.41)" gradientUnits="userSpaceOnUse">
	<stop  offset="0.1" style="stop-color:#FEC39B"/>
	<stop  offset="1" style="stop-color:#FA9550"/>
</radialGradient>
<path fill="url(#SVGID_2_)" d="M79.1,100V84.4c0-2-0.2-4.1-0.6-6.1L77,70.9c-2.5-0.5-5-1.4-7.3-2.6l-3.1,9.1c-0.7,2-1.6,3.9-2.6,5.7
	l-7.9,13.6c-1.1,1.8-2.5,3.3-4.2,4.7l-2.6,2c7.8,3.5,16.2,5.4,24.8,5.5c0.9,0,1.7,0,2.6,0l1.2-2.8C78.6,104,79,102,79.1,100z"/>
<radialGradient id="SVGID_3_" cx="67.76" cy="27.2168" r="52.61" gradientTransform="matrix(1 0 0 0.99 0 32.41)" gradientUnits="userSpaceOnUse">
	<stop  offset="0.1" style="stop-color:#FEC39B"/>
	<stop  offset="1" style="stop-color:#FA9550"/>
</radialGradient>
<path fill="url(#SVGID_3_)" d="M36.6,81.2l13.7-7.8c1.8-1.1,3.4-2.2,5-3.6l7.5-6.5c-1.9-1.8-3.5-3.8-4.7-6l-8,1.6
	c-2.1,0.4-4.2,0.6-6.3,0.6H27.9l0,0c-2.1-0.1-4.2-0.5-6.1-1.2l-8.7-3.7c1.4,10.6,5.5,20.7,12,29.2l5.8-0.7
	C32.9,82.8,34.8,82.2,36.6,81.2z"/>
<radialGradient id="SVGID_4_" cx="67.76" cy="27.2168" r="52.61" gradientTransform="matrix(1 0 0 0.99 0 32.41)" gradientUnits="userSpaceOnUse">
	<stop  offset="0.1" style="stop-color:#FEC39B"/>
	<stop  offset="1" style="stop-color:#FA9550"/>
</radialGradient>
<path fill="url(#SVGID_4_)" d="M27.9,58.9h15.8c2.1,0,4.1-0.2,6.2-0.6l7.9-1.6c-1.4-2.6-2.1-5.5-1.8-8.5l-5.3-1.8
	c-2-0.7-3.9-1.6-5.7-2.6L31.3,36c-1.8-1.1-3.4-2.5-4.7-4.1l-8.4-11c-3.6,7.9-5.6,16.5-5.6,25.2c0,2.6,0.1,5.2,0.5,7.8l9,3.8
	C23.9,58.5,25.9,58.9,27.9,58.9z"/>
<radialGradient id="SVGID_5_" cx="67.76" cy="27.2168" r="52.61" gradientTransform="matrix(1 0 0 0.99 0 32.41)" gradientUnits="userSpaceOnUse">
	<stop  offset="0.1" style="stop-color:#FEC39B"/>
	<stop  offset="1" style="stop-color:#FA9550"/>
</radialGradient>
<path fill="url(#SVGID_5_)" d="M31.6,35.6l13.7,7.8c1.8,1,3.7,1.8,5.6,2.5l5.2,1.8c0.2-1.2,0.7-2.3,1.4-3.2l0.2-0.3
	C46.8,34.5,38.1,24,32.2,13.4c-1.5-2.7-4.8-4-7.8-2.9c-0.2,0.2-0.3,0.4-0.5,0.6c-0.4,0.5-0.7,1-1,1.5c-1.7,2.5-3.2,5.1-4.5,7.9
	L27,31.8C28.4,33.2,29.9,34.5,31.6,35.6z"/>
<radialGradient id="SVGID_6_" cx="67.76" cy="27.2168" r="52.61" gradientTransform="matrix(1 0 0 0.99 0 32.41)" gradientUnits="userSpaceOnUse">
	<stop  offset="0.1" style="stop-color:#FEC39B"/>
	<stop  offset="1" style="stop-color:#FA9550"/>
</radialGradient>
<path fill="url(#SVGID_6_)" d="M101.7,92l-7.9-13.5c-1.1-1.8-2.3-3.4-3.6-5L87,70c-3,1.3-6.3,1.6-9.4,1l1.4,7.1
	c0.4,2.1,0.6,4.1,0.6,6.2V100c-0.1,2.1-0.5,4.1-1.2,6.1l-1.1,2.6c9.3-0.3,18.5-2.7,26.8-7l-0.5-4C103.3,95.7,102.6,93.8,101.7,92z"
	/>
<radialGradient id="SVGID_7_" cx="67.76" cy="27.2168" r="52.61" gradientTransform="matrix(1 0 0 0.99 0 32.41)" gradientUnits="userSpaceOnUse">
	<stop  offset="0.1" style="stop-color:#FEC39B"/>
	<stop  offset="1" style="stop-color:#FA9550"/>
</radialGradient>
<path fill="url(#SVGID_7_)" d="M118.9,79.7l-0.4-0.2c-9.6-3.5-18.9-7.7-27.9-12.6l-0.1,0.2c-0.8,1.1-1.7,1.9-2.9,2.6l3.1,3.5
	c1.4,1.6,2.6,3.3,3.7,5.1l7.9,13.5c1,1.8,1.7,3.8,2,5.9l0.5,3.7c6.7-3.5,12.6-8.3,17.6-13.9l0.3-0.3c0.1-0.1,0.2-0.2,0.2-0.3
	C123.5,83.8,121.8,80.8,118.9,79.7z"/>
<linearGradient id="SVGID_8_" gradientUnits="userSpaceOnUse" x1="33.0481" y1="6.658" x2="40.0881" y2="-0.392" gradientTransform="matrix(1 0 0 1 0 32)">
	<stop  offset="0" style="stop-color:#FEC39B"/>
	<stop  offset="1" style="stop-color:#FED9BD"/>
</linearGradient>
<path fill="url(#SVGID_8_)" d="M31.3,36.1L45,43.9c1.8,1,3.8,1.9,5.8,2.6l5.3,1.8c0-0.2,0.1-0.4,0.1-0.6L51,45.9
	c-1.9-0.7-3.8-1.5-5.6-2.5l-13.7-7.8c-1.7-1-3.2-2.4-4.5-3.9l-8.6-11.3L18.2,21l8.4,11C27.9,33.6,29.5,35,31.3,36.1z"/>
<linearGradient id="SVGID_9_" gradientUnits="userSpaceOnUse" x1="24.7803" y1="34.3748" x2="46.1298" y2="13.0152" gradientTransform="matrix(1 0 0 1 0 32)">
	<stop  offset="0" style="stop-color:#FEC39B"/>
	<stop  offset="1" style="stop-color:#FED9BD"/>
</linearGradient>
<path fill="url(#SVGID_9_)" d="M27.9,59.5L27.9,59.5h15.8c2.1,0,4.2-0.3,6.3-0.7l8.1-1.6l-0.3-0.6l-7.9,1.6c-2,0.4-4.1,0.6-6.2,0.6
	H27.9c-2,0-4-0.4-5.9-1.1L13,54l0.1,0.7l8.7,3.7C23.7,59.1,25.8,59.5,27.9,59.5z"/>
<linearGradient id="SVGID_10_" gradientUnits="userSpaceOnUse" x1="29.525" y1="56.425" x2="58.775" y2="27.175" gradientTransform="matrix(1 0 0 1 0 32)">
	<stop  offset="0" style="stop-color:#FEC39B"/>
	<stop  offset="1" style="stop-color:#FED9BD"/>
</linearGradient>
<path fill="url(#SVGID_10_)" d="M36.9,81.8L50.6,74c1.8-1.1,3.5-2.3,5.1-3.7l7.6-6.6l-0.5-0.4l-7.5,6.5c-1.6,1.3-3.2,2.5-5,3.6
	l-13.7,7.8c-1.8,0.9-3.7,1.6-5.7,1.9l-5.8,0.7c0.1,0.2,0.3,0.4,0.4,0.6l5.5-0.7C33.1,83.4,35.1,82.8,36.9,81.8z"/>
<linearGradient id="SVGID_11_" gradientUnits="userSpaceOnUse" x1="45.4987" y1="67.6888" x2="73.3438" y2="39.8438" gradientTransform="matrix(1 0 0 1 0 32)">
	<stop  offset="0" style="stop-color:#FEC39B"/>
	<stop  offset="1" style="stop-color:#FED9BD"/>
</linearGradient>
<path fill="url(#SVGID_11_)" d="M56.1,96.6L64,83c1-1.8,1.9-3.7,2.6-5.7l3.1-9.1l-0.6-0.3L66,77.1c-0.7,1.9-1.5,3.8-2.5,5.6
	l-7.9,13.6c-1.1,1.7-2.4,3.2-4,4.5l-2.9,2.2l0.7,0.3l2.6-2C53.6,99.9,55,98.3,56.1,96.6z"/>
<linearGradient id="SVGID_12_" gradientUnits="userSpaceOnUse" x1="67.4251" y1="67.4299" x2="86.7249" y2="48.1201" gradientTransform="matrix(1 0 0 1 0 32)">
	<stop  offset="0" style="stop-color:#FEC39B"/>
	<stop  offset="1" style="stop-color:#FED9BD"/>
</linearGradient>
<path fill="url(#SVGID_12_)" d="M79.7,100V84.4c-0.1-2.1-0.3-4.2-0.7-6.3L77.6,71l-0.7-0.1l1.5,7.4c0.4,2,0.6,4,0.6,6.1V100
	c-0.1,2-0.5,4-1.2,5.8l-1.2,2.8h0.7l1.1-2.6C79.2,104.1,79.6,102.1,79.7,100z"/>
<linearGradient id="SVGID_13_" gradientUnits="userSpaceOnUse" x1="91.965" y1="57.485" x2="99.675" y2="49.775" gradientTransform="matrix(1 0 0 1 0 32)">
	<stop  offset="0" style="stop-color:#FEC39B"/>
	<stop  offset="1" style="stop-color:#FED9BD"/>
</linearGradient>
<path fill="url(#SVGID_13_)" d="M102.3,91.7l-7.9-13.5c-1.1-1.8-2.3-3.5-3.7-5.1l-3.1-3.5c-0.2,0.1-0.4,0.2-0.6,0.3l3.2,3.6
	c1.3,1.6,2.5,3.2,3.6,5l7.9,13.4c1,1.8,1.6,3.7,1.9,5.7l0.5,4l0.6-0.3l-0.5-3.7C103.9,95.6,103.3,93.6,102.3,91.7z"/>
</svg>
