<?xml version="1.0" encoding="utf-8"?>
<!-- Generator: Adobe Illustrator 24.0.0, SVG Export Plug-In . SVG Version: 6.00 Build 0)  -->
<svg version="1.1" id="电源管理" xmlns="http://www.w3.org/2000/svg" xmlns:xlink="http://www.w3.org/1999/xlink" x="0px"
	 y="0px" viewBox="0 0 128 128" enable-background="new 0 0 128 128" xml:space="preserve">
<title>128</title>
<g id="_128">
	<path fill="#377C01" d="M47,8h34c2.8,0,5,2.2,5,5v6l0,0H42l0,0v-6C42,10.2,44.2,8,47,8z"/>
	<path fill="#45A402" d="M38,19h52c5,0,9,4,9,9v83c0,5-4,9-9,9H38c-5,0-9-4-9-9V28C29,23,33,19,38,19z"/>
	<polygon fill="#FDDB00" points="75,29 42,74 65,74 53,106 86,61 64,61 	"/>
</g>
</svg>
