<?xml version="1.0" encoding="utf-8"?>
<!-- Generator: Adobe Illustrator 24.0.0, SVG Export Plug-In . SVG Version: 6.00 Build 0)  -->
<svg version="1.1" id="图层_1" xmlns="http://www.w3.org/2000/svg" xmlns:xlink="http://www.w3.org/1999/xlink" x="0px" y="0px"
	 viewBox="0 0 128 128" enable-background="new 0 0 128 128" xml:space="preserve">
<title>deluge-112</title>
<path fill="#B3E5FC" d="M106,78.9c0,11.2-4.9,21.9-13.3,29.3c-0.1,0.1-0.3,0.2-0.4,0.4l-0.1,0.1l-0.4,0.3c-1.1,0.9-2.3,1.8-3.5,2.6
	c-7.2,4.9-15.6,7.4-24.3,7.4c-23.2,0-42-18-42-40.1c0-2.3,0.2-4.6,0.6-6.9l0.1-0.8c0.7-3.4,1.9-6.6,3.6-9.6c0.3-0.5,0.5-0.9,0.7-1.4
	c1.9-3.8,4.1-7.5,6.7-10.9l8.6-11.4l0.4-0.5l2.1-2.8L64,9l31.6,42.2c3,4,5.4,8.4,7.3,13c0.5,1.1,0.9,2.3,1.3,3.4
	c0.4,1.2,0.7,2.4,1,3.6l0.2,0.8C105.8,74.3,106,76.6,106,78.9z"/>
<path fill="#93B6DB" d="M103.4,78c0,10.5-4.6,20.5-12.5,27.4c-0.1,0.1-0.3,0.2-0.4,0.3l-0.1,0.1c-0.1,0.1-0.2,0.2-0.4,0.3
	c-0.6,0.5-1.1,0.9-1.7,1.4s-1,0.7-1.5,1.1c-6.7,4.5-14.7,7-22.8,6.9c-21.2,0-38.5-16-39.3-36.1c0-0.5,0-1,0-1.5
	c0-2.2,0.2-4.3,0.6-6.5c0-0.3,0.1-0.5,0.1-0.8c0.7-3.2,1.8-6.2,3.4-9c0.2-0.4,0.5-0.9,0.7-1.3c1.8-3.6,3.9-7,6.3-10.3l6.6-8.9l0,0
	l1.4-1.8l0.4-0.5l2-2.7L64,12.4L93.7,52c2.8,3.7,5.1,7.8,6.8,12.2c0.5,1,0.9,2.1,1.3,3.2s0.6,2.2,0.9,3.3c0.1,0.3,0.1,0.5,0.2,0.8
	C103.2,73.7,103.4,75.8,103.4,78z"/>
<path fill="#F5F5F5" d="M89.6,106.1C62.9,100.7,46,85.8,45.9,71.6c-0.1-9.7,7.8-21.4,16.8-23c12.8-2.2,26.1,15.7,26.4,16.1
	c-0.5-0.4-16-13.6-25.9-11.9C56.1,54,50,63.2,50.1,70.7C50.2,81.7,68.7,101.7,89.6,106.1z"/>
<path fill="#B3E5FC" d="M90.1,106.2c-7.3,6.1-16.5,9.5-26.1,9.4c-21.8,0-39.4-16.8-39.4-37.6c0-2.2,0.2-4.3,0.6-6.5
	c0-0.3,0.1-0.5,0.1-0.8c0.7-3.2,1.8-6.2,3.4-9c0.2-0.4,0.5-0.9,0.7-1.3c1.8-3.6,3.9-7,6.3-10.2l7.3-9.7c5.8-5.2,18.6-7.3,25.6-4.3
	c16.5,7.1,20.5,28.6,20.5,28.6l0,0c-0.3-0.5-13.6-18.3-26.4-16.1c-9,1.5-16.8,13.3-16.8,23c0.1,14.1,17,29.1,43.7,34.4L90.1,106.2z"
	/>
<path fill="#01579B" d="M90.1,106.2c-0.6,0.4-1.2,0.9-1.7,1.4c-0.5,0.4-1,0.7-1.5,1.1c-6.7,4.5-14.7,7-22.8,6.9
	c-21.2,0-38.5-16-39.3-36.1c0-0.5,0-1,0-1.5c0-2.2,0.2-4.3,0.6-6.5c0-0.3,0.1-0.5,0.1-0.8c0.7-3.2,1.8-6.2,3.4-9
	c0.2-0.4,0.5-0.9,0.7-1.3c1.8-3.6,3.9-7,6.3-10.3l6.6-8.9l0,0c1.8-1.3,4.9-3.6,8.8-3.6c4.9,0,9.5,2.6,11.8,7
	c-0.5,0.3-5.9-3.5-14.4,0.8c-9.2,4.7-13,13-12.7,23.9c0.4,16.7,11.8,28.7,25.4,34C71.2,107.3,82.9,106.1,90.1,106.2z"/>
</svg>
