<?xml version="1.0" encoding="utf-8"?>
<!-- Generator: Adobe Illustrator 24.0.0, SVG Export Plug-In . SVG Version: 6.00 Build 0)  -->
<svg version="1.1" id="ImageMagick" xmlns="http://www.w3.org/2000/svg" xmlns:xlink="http://www.w3.org/1999/xlink" x="0px"
	 y="0px" viewBox="0 0 128 128" enable-background="new 0 0 128 128" xml:space="preserve">
<title>128</title>
<g id="_128">
	<path fill="#025AA4" d="M20,8h88c6.6,0,12,5.4,12,12v88c0,6.6-5.4,12-12,12H20c-6.6,0-12-5.4-12-12V20C8,13.4,13.4,8,20,8z"/>
	<path fill="#F8E84E" d="M73.6,24.3c-8,1.1-16.6,5.1-23.7,17C34,68.5,35.1,78,32.6,81s-9.5,4.7-8.5,8.1s2,3,2,3s10.2,15.1,39.3,11.2
		s33.3-10.3,33-13.4s-6.4-5.5-6.4-5.5S87.3,67.8,88.5,61s5.6-16.8,10.2-18.9s6.6,7.2,8.8,4.9S103.7,26.8,97,26.6
		C93,26.6,83.8,22.9,73.6,24.3z M73.6,47.1l2.2,6.8l6.8,2l-5.7,4.2l0.2,7l-5.7-4.2l-6.8,2.5l2.2-6.8l-4.2-5.5h7.1L73.6,47.1z
		 M50.7,67.1l0.3,4.9l4.3,2.7l-4.6,1.7l-1.2,5l-3.2-3.8L41.4,78l2.6-4.1l-1.8-4.7l4.8,1.3L50.7,67.1z M69.8,68.1l4.6,6.3l7.7-0.3
		l-4.5,6.4l2.6,7.3l-7.6-2.3l-6.1,4.9v-7.9l-6.4-4.3l7.3-2.5L69.8,68.1z"/>
</g>
</svg>
