<?xml version="1.0" encoding="utf-8"?>
<!-- Generator: Adobe Illustrator 24.0.0, SVG Export Plug-In . SVG Version: 6.00 Build 0)  -->
<svg version="1.1" id="图层_2" opacity="0.8" xmlns="http://www.w3.org/2000/svg" xmlns:xlink="http://www.w3.org/1999/xlink"
	 x="0px" y="0px" viewBox="0 0 16 16" style="enable-background:new 0 0 16 16;" xml:space="preserve">
<style type="text/css">
	.st0{fill:#1F2022;enable-background:new    ;}
	.st1{enable-background:new    ;}
	.st2{fill:#1F2022;}
	.st3{fill-rule:evenodd;clip-rule:evenodd;fill:#1F2022;}
</style>
<polygon class="st0" points="13,4.7 13,5 9,5 9,1 9.3,1 10,1.7 10,4 12.3,4 "/>
<g id="circle2567-3" class="st1">
	<path class="st2" d="M10.5,7c1.9,0,3.5,1.6,3.5,3.5S12.4,14,10.5,14S7,12.4,7,10.5S8.6,7,10.5,7 M10.5,6C8,6,6,8,6,10.5
		S8,15,10.5,15s4.5-2,4.5-4.5S13,6,10.5,6L10.5,6z"/>
</g>
<g id="path2570-3" class="st1">
	<rect x="13.7" y="12.5" transform="matrix(0.7071 -0.7071 0.7071 0.7071 -5.9026 14.2502)" class="st3" width="1" height="3.5"/>
</g>
<path class="st0" d="M3,15c-0.6,0-1-0.4-1-1V2c0-0.6,0.4-1,1-1h6.3L13,4.7V6h1V4.8c0-0.3-0.1-0.6-0.3-0.8L13,3.3L10.7,1l-0.6-0.6
	C9.9,0.1,9.5,0,9.2,0H3C1.9,0,1,0.9,1,2v12c0,1.1,0.9,2,2,2h5v-1H3z"/>
</svg>
