<?xml version="1.0" encoding="utf-8"?>
<!-- Generator: Adobe Illustrator 24.0.0, SVG Export Plug-In . SVG Version: 6.00 Build 0)  -->
<svg version="1.1" id="图层_1" xmlns="http://www.w3.org/2000/svg" xmlns:xlink="http://www.w3.org/1999/xlink" x="0px" y="0px"
	 viewBox="0 0 128 128" enable-background="new 0 0 128 128" xml:space="preserve">
<title>evolution128</title>
<path fill="#F2F2F2" d="M10.3,45.8l91.1-24.4c1.2-0.3,2.5,0.4,2.8,1.6l15.1,56.4c0.3,1.2-0.4,2.5-1.6,2.8l-91.1,24.4
	c-1.2,0.3-2.5-0.4-2.8-1.6L8.7,48.6C8.3,47.4,9.1,46.1,10.3,45.8z"/>
<path fill="none" d="M117.7,82.2c1.2-0.3,2-1.6,1.6-2.8l0,0l-0.8-2.9l-3.8,6.5L117.7,82.2z"/>
<path fill="#EF3F3F" d="M100.7,21.5l2.2-3.8c-0.8-0.1-1.6-0.1-2.4,0.1L95,19.4l-2.5,4.4L100.7,21.5z"/>
<polygon fill="#EF3F3F" points="27.2,41.2 29.8,36.8 22,38.9 19.5,43.3 "/>
<path fill="#EF3F3F" d="M106.9,33.1l2.5-4.4l-1.8-6.6c-0.1-0.5-0.3-0.9-0.6-1.4l-2.4,4.2L106.9,33.1z"/>
<polygon fill="#EF3F3F" points="85.4,25.6 88,21.2 81,23.1 78.5,27.5 "/>
<polygon fill="#EF3F3F" points="41.2,37.5 43.8,33.1 36.8,35 34.2,39.3 "/>
<polygon fill="#EF3F3F" points="71.5,29.4 74,25 66.3,27 63.7,31.5 "/>
<polygon fill="#EF3F3F" points="116.7,69.5 119.2,65.1 116.2,53.9 113.7,58.3 "/>
<polygon fill="#EF3F3F" points="56.7,33.3 59.3,28.9 50.8,31.2 48.2,35.6 "/>
<polygon fill="#EF3F3F" points="111.8,51.3 114.3,46.9 111.3,35.7 108.8,40.1 "/>
<path fill="#EF3F3F" d="M8.7,48.6c-0.3-1.2,0.4-2.5,1.6-2.8l0,0l2.2-0.6l2.5-4.4l-5.6,1.5c-3.1,0.8-5,4.1-4.2,7.2l1.5,5.7l2.5-4.4
	L8.7,48.6z"/>
<polygon fill="#EF3F3F" points="47.9,100.9 45.3,105.3 53.6,103.1 56.1,98.7 "/>
<polygon fill="#EF3F3F" points="63.1,96.9 60.6,101.3 68.8,99.1 71.3,94.7 "/>
<polygon fill="#EF3F3F" points="11.1,57.8 8.6,62.2 10.7,69.9 13.2,65.5 "/>
<polygon fill="#EF3F3F" points="96.6,87.9 94,92.3 105.2,89.3 107.8,84.9 "/>
<path fill="#EF3F3F" d="M119.3,79.4c0.3,1.2-0.4,2.5-1.6,2.8l0,0l-2.9,0.8l-2.5,4.4l6.4-1.7c3.1-0.8,5-4.1,4.2-7.2l-1.7-6.4
	l-2.5,4.4L119.3,79.4z"/>
<polygon fill="#EF3F3F" points="78.3,92.8 75.8,97.2 87,94.2 89.6,89.8 "/>
<polygon fill="#EF3F3F" points="33.9,104.7 31.3,109.1 38.3,107.2 40.9,102.8 "/>
<polygon fill="#EF3F3F" points="18.8,86.5 16.3,90.9 18.6,99.4 21.1,95 "/>
<polygon fill="#EF3F3F" points="15.1,72.5 12.5,76.9 14.4,83.9 17,79.5 "/>
<path fill="#EF3F3F" d="M26.6,106.7c-1.2,0.3-2.5-0.4-2.8-1.6l0,0l-0.8-3l-2.5,4.4c0.7,1.9,2.3,3.4,4.3,3.8l2.1-3.6L26.6,106.7z"/>
<polygon fill="#03A9F4" points="9.3,50.8 6.7,55.2 8.6,62.2 11.1,57.8 "/>
<polygon fill="#03A9F4" points="19.5,43.3 22,38.9 15,40.8 12.5,45.2 "/>
<polygon fill="#03A9F4" points="13.2,65.5 10.7,69.9 12.5,76.9 15.1,72.5 "/>
<polygon fill="#03A9F4" points="34.2,39.3 36.8,35 29.8,36.8 27.2,41.2 "/>
<polygon fill="#03A9F4" points="17,79.5 14.4,83.9 16.3,90.9 18.8,86.5 "/>
<polygon fill="#03A9F4" points="48.2,35.6 50.8,31.2 43.8,33.1 41.2,37.5 "/>
<path fill="#03A9F4" d="M21.1,95l-2.5,4.4l1.8,6.6c0,0.1,0.1,0.3,0.1,0.4L23,102L21.1,95z"/>
<polygon fill="#03A9F4" points="63.7,31.5 66.3,27 59.3,28.9 56.7,33.3 "/>
<polygon fill="#03A9F4" points="78.5,27.5 81,23.1 74,25 71.5,29.4 "/>
<path fill="#03A9F4" d="M26.9,106.6l-2.1,3.6c0.9,0.2,1.8,0.2,2.7-0.1l3.8-1l2.5-4.4L26.9,106.6z"/>
<polygon fill="#03A9F4" points="40.9,102.8 38.3,107.2 45.3,105.3 47.9,100.9 "/>
<polygon fill="#03A9F4" points="92.5,23.7 95,19.4 88,21.2 85.4,25.6 "/>
<path fill="#03A9F4" d="M101.4,21.4c1.2-0.3,2.5,0.4,2.8,1.6l0,0l0.5,1.9l2.4-4.2c-0.9-1.6-2.4-2.6-4.2-2.9l-2.2,3.8L101.4,21.4z"/>
<polygon fill="#03A9F4" points="56.1,98.7 53.6,103.1 60.6,101.3 63.1,96.9 "/>
<polygon fill="#03A9F4" points="71.3,94.7 68.8,99.1 75.8,97.2 78.3,92.8 "/>
<polygon fill="#03A9F4" points="108.8,40.1 111.3,35.7 109.4,28.7 106.9,33.1 "/>
<polygon fill="#03A9F4" points="113.7,58.3 116.2,53.9 114.3,46.9 111.8,51.3 "/>
<polygon fill="#03A9F4" points="89.6,89.8 87,94.2 94,92.3 96.6,87.9 "/>
<polygon fill="#03A9F4" points="116.7,69.5 118.6,76.5 121.1,72.1 119.2,65.1 "/>
<polygon fill="#03A9F4" points="107.8,84.9 105.2,89.3 112.2,87.4 114.8,83 "/>
<path fill="#C7B299" d="M27.9,52.8l22.9-6.1c5.3-1.4,10.8,1.7,12.2,7.1l5.3,19.7c1.4,5.3-1.7,10.8-7.1,12.2l-22.9,6.1
	C33,93.2,27.5,90,26.1,84.7L20.8,65C19.4,59.7,22.5,54.2,27.9,52.8z"/>
<rect x="67.9" y="43.1" transform="matrix(0.9659 -0.2588 0.2588 0.9659 -8.4627 23.4089)" fill="#CCCCCC" width="33.6" height="1.5"/>
<rect x="70.3" y="52.2" transform="matrix(0.9659 -0.2588 0.2588 0.9659 -10.7368 24.3443)" fill="#CCCCCC" width="33.6" height="1.5"/>
<rect x="72.7" y="61.2" transform="matrix(0.9659 -0.2588 0.2588 0.9659 -12.986 25.27)" fill="#CCCCCC" width="33.6" height="1.5"/>
<rect x="75.1" y="70.3" transform="matrix(0.9659 -0.2588 0.2588 0.9659 -15.2716 26.2099)" fill="#CCCCCC" width="33.6" height="1.6"/>
<path fill="#9B8979" d="M46.6,73.7c-0.4,0.7-0.9,1.4-1.4,2c-1.1,1.2-2.8,1.6-4.3,1.1c-0.9-0.3-1.7-0.8-2.3-1.6
	c-0.7-0.8-1.2-1.8-1.5-2.8c-0.4-1.4-0.4-2.9-0.1-4.3c0.3-1.4,0.9-2.6,1.8-3.7c0.7-0.9,1.6-1.5,2.7-1.8c0.7-0.2,1.5-0.2,2.3,0
	s1.6,0.7,2.2,1.3l-0.1-2.1l2.3-0.6l0.5,9c0,0.7,0.1,1.4,0.2,2.1c0.1,0.2,0.2,0.4,0.4,0.5s0.5,0.1,0.7,0.1c0.6-0.3,1.2-0.7,1.6-1.3
	c0.8-1,1.3-2.1,1.5-3.3c0.3-1.2,0.2-2.5-0.1-3.8c-0.8-3-3.2-5.2-6.2-5.8c-1.7-0.4-3.4-0.3-5.1,0.2c-1.9,0.5-3.7,1.5-5.1,2.8
	c-1.4,1.4-2.3,3.1-2.7,5c-0.4,2-0.4,4,0.2,6c0.5,1.9,1.4,3.6,2.8,5c1.3,1.3,3,2.1,4.8,2.3c2,0.3,4.1,0.1,6-0.4
	c1.9-0.4,3.7-1.3,5.3-2.6c1.2-1,2.1-2.2,2.7-3.6l2.3-0.6c-0.5,1.1-1,2.2-1.7,3.2c-0.8,1.3-1.9,2.3-3.2,3.2c-1.5,1-3.2,1.8-5,2.2
	c-1.8,0.5-3.6,0.7-5.4,0.7c-1.6,0-3.2-0.4-4.7-1.1c-1.3-0.6-2.5-1.5-3.4-2.7c-1.2-1.4-2-3.1-2.5-4.9c-0.6-2-0.7-4.2-0.3-6.3
	c0.3-2.4,1.4-4.7,3-6.5c1.7-1.8,4-3.1,6.4-3.7c2-0.6,4-0.6,6-0.2c1.9,0.4,3.6,1.4,5,2.8c1.2,1.2,2.1,2.8,2.5,4.4
	c0.7,2.4,0.4,5-0.8,7.2c-0.8,1.9-2.4,3.3-4.4,3.9c-0.5,0.1-1,0.2-1.5,0.1c-0.4-0.1-0.7-0.3-1-0.6C46.9,74.4,46.7,74.1,46.6,73.7z
	 M39.5,71.9c0.2,1,0.7,1.9,1.5,2.5c0.6,0.5,1.4,0.6,2.2,0.5c0.5-0.2,1-0.4,1.4-0.8c0.5-0.5,0.9-1,1.2-1.7c0.3-0.8,0.6-1.6,0.6-2.4
	c0.1-0.9,0-1.8-0.2-2.7c-0.2-1-0.8-1.9-1.6-2.4c-0.7-0.5-1.5-0.6-2.3-0.4c-0.5,0.1-1,0.4-1.4,0.8c-0.4,0.5-0.8,1.1-1,1.7
	c-0.3,0.8-0.5,1.7-0.5,2.5C39.2,70.2,39.3,71.1,39.5,71.9z"/>
</svg>
