<?xml version="1.0" encoding="utf-8"?>
<!-- Generator: Adobe Illustrator 24.0.0, SVG Export Plug-In . SVG Version: 6.00 Build 0)  -->
<svg version="1.1" id="图层_2" opacity="0.8" xmlns="http://www.w3.org/2000/svg" xmlns:xlink="http://www.w3.org/1999/xlink"
	 x="0px" y="0px" viewBox="0 0 16 16" style="enable-background:new 0 0 16 16;" xml:space="preserve">
<style type="text/css">
	.st0{fill:#1F2022;}
</style>
<g>
	<path class="st0" d="M12,1c0.6,0,1,0.4,1,1v12c0,0.6-0.4,1-1,1H3c-0.6,0-1-0.4-1-1V2c0-0.6,0.4-1,1-1H12 M12,0H3C1.9,0,1,0.9,1,2
		v12c0,1.1,0.9,2,2,2h9c1.1,0,2-0.9,2-2V2C14,0.9,13.1,0,12,0L12,0z"/>
</g>
<rect x="6" y="4" class="st0" width="3" height="1"/>
<rect x="6" y="2" class="st0" width="3" height="1"/>
<path class="st0" d="M8,6H7C6.4,6,6,6.4,6,7v4c0,0.6,0.4,1,1,1h1c0.6,0,1-0.4,1-1V7C9,6.4,8.6,6,8,6z M8,11H7v-1h1V11z"/>
</svg>
