<?xml version="1.0" encoding="utf-8"?>
<!-- Generator: Adobe Illustrator 24.0.0, SVG Export Plug-In . SVG Version: 6.00 Build 0)  -->
<svg version="1.1" id="文档查看器" xmlns="http://www.w3.org/2000/svg" xmlns:xlink="http://www.w3.org/1999/xlink" x="0px"
	 y="0px" viewBox="0 0 128 128" enable-background="new 0 0 128 128" xml:space="preserve">
<title>128</title>
<g id="_128">
	
		<linearGradient id="SVGID_1_" gradientUnits="userSpaceOnUse" x1="64" y1="-16" x2="64" y2="26.35" gradientTransform="matrix(1 0 0 1 0 32)">
		<stop  offset="0" style="stop-color:#F6AF1F"/>
		<stop  offset="1" style="stop-color:#E29B1E"/>
	</linearGradient>
	<path fill="url(#SVGID_1_)" d="M113,58l-98,0.3V25c0-5,4-9,9-9h20l5,5h55c5,0,9,4,9,9V58z"/>
	
		<linearGradient id="SVGID_2_" gradientUnits="userSpaceOnUse" x1="64" y1="7" x2="64" y2="80" gradientTransform="matrix(1 0 0 1 0 32)">
		<stop  offset="0" style="stop-color:#F7D33C"/>
		<stop  offset="1" style="stop-color:#EAB51F"/>
	</linearGradient>
	<path fill="url(#SVGID_2_)" d="M17,39h94c5,0,9,4,9,9v52c0,6.6-5.4,12-12,12H20c-6.6,0-12-5.4-12-12V48C8,43,12,39,17,39z"/>
	<g id="放大镜">
		
			<linearGradient id="SVGID_3_" gradientUnits="userSpaceOnUse" x1="90.843" y1="54.5707" x2="65.273" y2="18.9907" gradientTransform="matrix(1 0 0 1 0 32)">
			<stop  offset="0" style="stop-color:#3E8BFD"/>
			<stop  offset="1" style="stop-color:#75A8FF"/>
		</linearGradient>
		<path fill="url(#SVGID_3_)" d="M78,100.2c-17.4,0-31.5-14.1-31.5-31.5S60.6,37.2,78,37.2s31.5,14.1,31.5,31.5
			c0,5.5-1.5,10.9-4.2,15.7C99.7,94.2,89.3,100.2,78,100.2z"/>
		<path fill="#E5E5E5" d="M78,34.7v5c16,0,29,13,29,29s-13,29-29,29s-29-13-29-29c0-5.1,1.3-10.1,3.9-14.5
			c5.2-9,14.7-14.5,25.1-14.5V34.7 M78,34.7c-18.8,0-34,15.2-34,34s15.2,34,34,34s34-15.2,34-34c0-12.1-6.5-23.4-17-29.4
			C89.8,36.3,84,34.7,78,34.7z"/>
		<rect x="54.8" y="97.9" transform="matrix(0.5 -0.866 0.866 0.5 -56.9715 102.6212)" fill="#E5E5E5" width="11.1" height="5.6"/>
		<path fill="#E65C38" d="M59.1,100l2.7,1.6c1.9,1.1,2.6,3.6,1.5,5.5l-5.8,10c-1.1,1.9-3.6,2.6-5.5,1.5l-2.7-1.6
			c-1.9-1.1-2.6-3.6-1.5-5.5l5.8-10C54.7,99.5,57.2,98.9,59.1,100z"/>
	</g>
</g>
</svg>
