<?xml version="1.0" encoding="utf-8"?>
<!-- Generator: Adobe Illustrator 24.0.0, SVG Export Plug-In . SVG Version: 6.00 Build 0)  -->
<svg version="1.1" id="图层_1" xmlns="http://www.w3.org/2000/svg" xmlns:xlink="http://www.w3.org/1999/xlink" x="0px" y="0px"
	 viewBox="0 0 128 128" enable-background="new 0 0 128 128" xml:space="preserve">
<title>freeplane128</title>
<path fill="#57BF5E" d="M108,8H20C13.4,8,8,13.4,8,20v20.5c16.2-19.2,39.8-28.2,61.2-21.1c29.9,10,44.3,47.8,32,84.5
	c-1.9,5.6-4.3,11-7.3,16.1H108c6.6,0,12-5.4,12-12V20C120,13.4,114.6,8,108,8z"/>
<path d="M32,75.2c-5.2-17.6-4.8-36.4,1.2-53.8C23.4,25.7,14.8,32.2,8,40.5V108c0,6.6,5.4,12,12,12h41.5
	C47.3,108.5,36.9,92.8,32,75.2z"/>
<path fill="#FFFE7F" d="M101.4,103.9c12.2-36.7-2.1-74.6-32-84.5c-11.9-4-24.4-3-36,2c-6,17.4-6.5,36.2-1.3,53.8
	c5,17.7,15.3,33.3,29.6,44.8h32.4C97.1,114.9,99.6,109.5,101.4,103.9z"/>
<ellipse transform="matrix(0.1033 -0.9946 0.9946 0.1033 -6.6006 111.9746)" cx="58.8" cy="59.6" rx="15.5" ry="13.6"/>
<ellipse transform="matrix(0.1033 -0.9946 0.9946 0.1033 -5.6503 118.3765)" fill="#FFFFFF" cx="62.8" cy="62.3" rx="2.1" ry="2"/>
<ellipse transform="matrix(0.1033 -0.9946 0.9946 0.1033 21.1965 156.5521)" cx="97.4" cy="66.5" rx="10.4" ry="9.1"/>
<ellipse fill="#FFFFFF" cx="99.5" cy="68.6" rx="1.4" ry="1.4"/>
<path d="M114.8,67.7l-0.1,0.4c-1.9,6.6-5.2,12.8-9.8,18c-7.8,9-17.8,13.3-29.7,12.6c-14.5-0.8-23.7-7.3-28.9-12.6
	c-3.3-3.3-5.9-7.1-7.8-11.3v-0.5l-2.2,0.8l0.1,0.4c2,4.5,4.8,8.6,8.3,12.1c5.5,5.6,15.2,12.4,30.4,13.3c0.8,0,1.7,0.1,2.5,0.1
	c5.7,0,11.2-1.2,16.3-3.6c4.8-2.4,9.1-5.7,12.6-9.8c4.7-5.5,8.2-11.9,10.2-18.9l0.1-0.4L114.8,67.7z"/>
<path d="M63.3,18c-3.5-1.7-6.7-2-9.3-0.7c-2.6,1.4-4.4,3.8-4.9,6.7c-0.7,3.3,1.1,8.7,4.5,11c2.1,1.4,4.8,1.4,6.8-0.1
	c2.6-1.7,2.7-3.6,2.5-4.5c-0.4-2-2.5-3.5-4.3-3.8c-1.6-0.5-3.3,0.1-4.3,1.4s-0.7,3.1,0.5,4.1c1.7,1.4,4.1,1.2,5.6-0.3l-1-1.1
	c-0.9,1-2.5,1.1-3.5,0.3c-0.6-0.5-0.7-1.4-0.2-2.1l0,0c0.7-0.8,1.7-1.1,2.7-0.9c1.5,0.2,2.7,1.2,3.2,2.6c0.2,1.3-0.9,2.3-1.8,3
	c-1.5,1.2-3.6,1.2-5.1,0.1c-2.8-1.9-4.5-6.8-3.9-9.5c0.5-2.4,2-4.4,4.1-5.6c2.2-1.1,4.8-0.8,8,0.7c10.3,5,7,21.4,7,21.6l1.5,0.3
	c0.6-3.1,0.7-6.3,0.4-9.4C70.9,25.1,68,20.3,63.3,18z"/>
<path d="M97.2,29.5C95.9,27.8,93.8,27,91,27l0,0c-9,0-12.1,11.8-12.2,12.3l1.5,0.4c0-0.1,3-11.2,10.8-11.2l0,0c2.3,0,4,0.7,5,1.9
	c0.9,1.3,1.2,3,0.8,4.6c-0.8,2.3-2.8,4-5.2,4.6c-1.2,0.2-2.4-0.4-2.9-1.5c-0.4-0.6-0.7-1.5-0.3-2.2c0.7-0.6,1.6-0.9,2.5-0.6
	c0.3,0.1,1.2,0.4,1.3,1.2c0.1,0.4-0.1,0.9-0.5,1h-0.1c-0.8,0.2-1.6-0.3-1.8-1.1L88.5,37c0.5,1.5,2.1,2.4,3.7,2
	c1.2-0.3,2-1.5,1.7-2.7c-0.2-1.2-1.2-2.2-2.4-2.4c-1.5-0.5-3.1,0-4.1,1.2c-0.4,0.6-1,1.9,0.2,3.8c0.7,1.4,2.2,2.3,3.8,2.3
	c0.2,0,0.4,0,0.7,0c3-0.6,5.4-2.8,6.4-5.7C98.8,33.3,98.4,31.2,97.2,29.5z"/>
</svg>
