<?xml version="1.0" encoding="utf-8"?>
<!-- Generator: Adobe Illustrator 24.0.0, SVG Export Plug-In . SVG Version: 6.00 Build 0)  -->
<svg version="1.1" id="图层_1" xmlns="http://www.w3.org/2000/svg" xmlns:xlink="http://www.w3.org/1999/xlink" x="0px" y="0px"
	 viewBox="0 0 128 128" enable-background="new 0 0 128 128" xml:space="preserve">
<title>frozen-bubble128</title>
<circle fill="#8F3DC4" cx="64" cy="62.5" r="57.5"/>
<polygon fill="#C69C6D" points="93.1,32.5 46.4,26 43.8,46.9 63.7,49.4 61,70.3 67.7,71.2 70.4,50.3 90.4,53.3 "/>
<path fill="#FFFFFF" d="M49.3,43.2c0-0.1,0.1-0.2,0.1-0.3c0.1-0.1,0.2-0.2,0.3-0.3l0.4-0.3l0.4-0.3l0.9-0.7c0.3-0.2,0.6-0.5,0.9-0.8
	l0.3-0.3l0.2-0.2l0.1-0.1v-0.1c-0.2-0.3-0.3-0.5-0.4-0.8c-0.1-0.3-0.2-0.6-0.3-0.9c-0.1-0.3-0.1-0.6-0.2-0.9c0-0.3-0.1-0.6-0.1-0.9
	s-0.1-0.5-0.1-0.8c0-0.2-0.1-0.5-0.2-0.7c-0.1-0.2-0.1-0.3-0.2-0.5c0-0.2,0-0.4,0-0.5s0-0.2,0.1-0.3c0-0.1,0.1-0.2,0.1-0.3
	c0.1-0.1,0.1-0.2,0.2-0.2c0.1-0.1,0.2-0.1,0.3-0.1s0.2,0.1,0.3,0.2c0.1,0.1,0.2,0.2,0.3,0.4c0.1,0.1,0.1,0.3,0.2,0.5
	c0,0.2,0.1,0.3,0.1,0.4s0,0.4,0.1,0.7s0,0.6,0.1,0.9s0,0.6,0.1,0.8s0,0.5,0.1,0.6s0.1,0.4,0.1,0.6c0,0.2,0.1,0.3,0.1,0.5
	c0,0.1,0.1,0.2,0.2,0.3c0,0.1,0.1,0.1,0.2,0.1c0,0,0.1,0,0.2-0.2l1.3-1.4l1.3-1.5c0.2-0.2,0.3-0.3,0.4-0.5l0.3-0.4
	c0.1-0.1,0.2-0.3,0.3-0.4s0.2-0.3,0.3-0.4l0.3-0.7c0-0.1,0.1-0.1,0.1-0.2c0.1-0.1,0.1-0.1,0.2-0.2c0.1-0.1,0.1-0.1,0.2-0.1
	c0.1,0,0.2,0,0.2,0c0.1,0,0.2,0,0.3,0.1s0.1,0.1,0.2,0.2c0,0.1,0.1,0.2,0.1,0.3s0,0.2,0,0.3s-0.1,0.3-0.1,0.4
	c-0.1,0.2-0.1,0.3-0.2,0.4c-0.1,0.2-0.2,0.3-0.3,0.4l-0.3,0.4l-2.2,2.4c-0.8,0.8-1.5,1.6-2.3,2.3c-0.7,0.7-1.3,1.3-2,1.8
	s-1.2,1-1.7,1.5c-0.1,0.1-0.2,0.2-0.4,0.2c-0.1,0.1-0.3,0.1-0.4,0.1c-0.1,0-0.2-0.1-0.3-0.2c0-0.1,0-0.1,0-0.2
	C49.3,43.3,49.3,43.3,49.3,43.2z"/>
<path fill="#FFFFFF" d="M58,42.8c0-0.2,0.1-0.3,0.1-0.5c0.2-0.6,0.5-1.1,0.7-1.7s0.5-1.1,0.8-1.6s0.4-1,0.6-1.4s0.3-0.7,0.4-0.9
	s0.2-0.5,0.3-0.7s0.2-0.4,0.3-0.6l0.2-0.3c0.1-0.1,0.2-0.2,0.3-0.3s0.2-0.2,0.3-0.2c0.1-0.1,0.2-0.1,0.3-0.1s0.3,0.1,0.4,0.1
	c0.1,0,0.1,0.1,0.2,0.2v0.3H63h0.3h0.3h0.2c0.3,0,0.6-0.1,0.8-0.1s0.5,0,0.7,0H66h0.6c0.2,0,0.3,0.1,0.5,0.1c0.1,0,0.2,0.1,0.3,0.1
	c0.1,0.1,0.2,0.2,0.2,0.3s0,0.1-0.1,0.2c0,0.1-0.1,0.1-0.2,0.2c-0.1,0-0.2,0.1-0.3,0.1c-0.1,0-0.3,0-0.4,0h-0.3L66,36h-0.5h-0.3l0,0
	H65h-0.4l-0.5,0.1l-0.5,0.1l-0.5,0.1l-0.3,0.1c-0.2,0-0.5,0.2-0.7,0.3s-0.3,0.3-0.4,0.5c0,0-0.1,0.1-0.1,0.2l-0.2,0.3
	c0,0.1-0.1,0.2-0.2,0.4L61,38.5c-0.1,0.1-0.1,0.2-0.2,0.3L60.7,39v0.1v0.1l0,0h0.4h0.7l0.9-0.2l0.9-0.2l0.8-0.1c0.2,0,0.3,0,0.5,0
	c0.1,0,0.2,0,0.3,0.1c0,0,0.1,0.1,0.1,0.2c0,0.2-0.1,0.3-0.2,0.4c-0.1,0.1-0.3,0.2-0.4,0.3l-0.3,0.1l-0.5,0.1L63.4,40l-0.3,0.1
	L62,40.4l-0.7,0.2l-0.4,0.1h-0.3h-0.3h-0.4c0,0.1-0.1,0.2-0.2,0.4s-0.2,0.4-0.2,0.5s-0.1,0.4-0.2,0.5c0,0.1-0.1,0.2-0.1,0.3
	s0,0.1,0,0.2c0,0,0,0.1,0.1,0.1h0.1h0.1c0.3,0,0.5,0,0.8,0s0.6-0.1,0.9-0.1c0.3-0.1,0.5-0.1,0.8-0.2l0.6-0.2
	c0.2-0.1,0.4-0.1,0.6-0.2c0.2,0,0.4,0,0.6,0H64c0.1,0,0.1,0,0.2,0.1l0.1,0.1c0,0,0,0.1,0,0.2c0,0.1-0.1,0.3-0.2,0.3
	c-0.1,0.1-0.3,0.2-0.5,0.3s-0.4,0.2-0.6,0.3l-0.7,0.2l-0.7,0.2L61,43.8c-0.4,0.1-0.8,0.1-1.2,0.2c-0.3,0-0.7,0-1,0s-0.5-0.1-0.7-0.3
	C58.1,43.2,58,43,58,42.8z"/>
<path fill="#FFFFFF" d="M71.6,45.2c-0.1,0-0.2,0-0.2-0.1c-0.1,0-0.1-0.1-0.2-0.2c0-0.1-0.1-0.1-0.1-0.2c0-0.1,0-0.1,0-0.2
	c0-0.1,0-0.2,0.1-0.3c0-0.1,0.1-0.2,0.2-0.4s0.2-0.3,0.2-0.4l0.2-0.4c0.1-0.1,0.2-0.3,0.2-0.4l0.1-0.3c0-0.1,0.1-0.2,0.1-0.3
	l0.1-0.3c0.1-0.1,0.1-0.3,0.2-0.4c0-0.1,0.1-0.3,0.2-0.4h-0.9h-0.4H71h-0.5L69.7,41c-0.3,0-0.5,0-0.8,0c-0.1,0-0.2,0-0.2-0.1
	c-0.1-0.1-0.1-0.1-0.2-0.1c-0.1,0.1-0.2,0.3-0.3,0.4c-0.1,0.1-0.2,0.3-0.3,0.5c-0.1,0.2-0.2,0.3-0.2,0.5c-0.1,0.2-0.1,0.3-0.2,0.4
	c0,0.1-0.1,0.2-0.1,0.3s-0.1,0.3-0.1,0.4s-0.1,0.3-0.1,0.4S67,44,67,44c0,0.1-0.1,0.1-0.1,0.2c0,0.1-0.1,0.1-0.2,0.2
	c-0.1,0-0.1,0.1-0.2,0.1c-0.2,0.1-0.4,0-0.5-0.1s-0.1-0.2-0.2-0.3c0-0.1,0-0.2,0-0.4c0-0.1,0-0.2,0-0.3c0-0.3,0.1-0.5,0.2-0.8
	s0.2-0.6,0.4-0.8c0.2-0.3,0.3-0.5,0.5-0.8s0.4-0.5,0.6-0.8s0.4-0.5,0.7-0.8s0.5-0.7,0.8-1s0.6-0.7,1-1c0.3-0.3,0.7-0.6,1.1-0.8
	c0.3-0.2,0.7-0.4,1.1-0.5c0.3-0.1,0.7-0.2,1.1-0.1c0.3,0,0.6,0.1,0.9,0.3c0.2,0.2,0.4,0.4,0.5,0.6c0.1,0.3,0.2,0.5,0.2,0.8
	s0,0.7,0,1s-0.1,0.6-0.2,0.9c-0.1,0.3-0.2,0.6-0.3,0.9s-0.2,0.6-0.3,0.8L73.8,42l-0.3,0.8c0,0-0.1,0.1-0.1,0.2l0,0
	c0,0.1-0.1,0.2-0.2,0.3L73,43.7L72.8,44c0,0.1-0.1,0.2-0.1,0.2l0,0c0,0.1-0.1,0.2-0.1,0.3s-0.1,0.2-0.2,0.3s-0.2,0.1-0.3,0.2
	C72,45.2,71.8,45.2,71.6,45.2z M73,37.1c-0.2,0-0.4,0-0.6,0c-0.2,0.1-0.4,0.1-0.6,0.2c-0.2,0.1-0.4,0.2-0.6,0.4s-0.4,0.3-0.6,0.5
	s-0.3,0.3-0.5,0.5l-0.4,0.5l-0.1,0.1l-0.1,0.1l-0.1,0.2l-0.1,0.1l0.7,0.1c0.3,0,0.6,0.1,0.8,0.1h0.9h0.9h0.6c0-0.1,0.1-0.1,0.1-0.2
	c0-0.1,0-0.2,0.1-0.3s0-0.2,0.1-0.4l0.1-0.4c0-0.1,0-0.2,0-0.4c0-0.1,0-0.3,0-0.4c0-0.1-0.1-0.2-0.2-0.3
	C73.3,37.2,73.1,37.2,73,37.1z"/>
<path fill="#FFFFFF" d="M74.8,45.3c0-0.1,0-0.1,0-0.2l0.1-0.2c0-0.1,0.1-0.2,0.1-0.2l0.1-0.2l3.8-8.3l0.1-0.1h0.1h0.2
	c0.1,0,0.2,0,0.2,0.1c0.1,0,0.1,0.1,0.1,0.2c0,0.1,0.1,0.1,0.1,0.2c0,0.1,0,0.2,0,0.2c0,0.1,0,0.1,0,0.2c0,0.1,0,0.1-0.1,0.2
	l-0.1,0.2l-0.1,0.1l-2,4.4H78l2.2-0.2l2.2-0.2c0.1,0,0.2-0.1,0.2-0.2c0.1-0.1,0.2-0.2,0.3-0.4c0.1-0.2,0.2-0.4,0.3-0.7
	s0.2-0.5,0.4-0.8l0.2-0.4c0.1-0.2,0.2-0.4,0.2-0.6c0.1-0.2,0.2-0.4,0.3-0.6c0.1-0.2,0.2-0.3,0.3-0.4c0.1-0.1,0.3-0.2,0.4-0.1
	c0.2,0,0.4,0.1,0.5,0.3s0.1,0.4,0.1,0.5c0,0.2-0.1,0.4-0.2,0.7l-0.5,1.1c-0.1,0.2-0.2,0.3-0.3,0.5l-0.2,0.5
	c-0.1,0.2-0.1,0.3-0.2,0.4c0,0.1-0.1,0.2-0.1,0.3s0,0.2,0,0.2c0,0.1,0,0.2,0,0.2c0,0.2-0.1,0.3-0.2,0.5c-0.1,0.1-0.3,0.2-0.5,0.3
	L83.3,43c0,0.1,0,0.1-0.1,0.2l-0.1,0.3c-0.1,0.2-0.2,0.5-0.3,0.7s-0.1,0.5-0.2,0.7s-0.1,0.5-0.2,0.7s-0.2,0.5-0.2,0.7
	c0,0.1-0.1,0.2-0.2,0.2c-0.1,0.1-0.1,0.1-0.2,0.2c-0.1,0-0.1,0.1-0.2,0.1s-0.2,0-0.2,0c-0.1,0-0.2,0-0.2-0.1
	c-0.1-0.1-0.1-0.1-0.1-0.2c0-0.1,0-0.1,0-0.2V46l0.1-0.3c0-0.1,0.1-0.3,0.1-0.4s0.1-0.3,0.2-0.5l0.2-0.5c0.1-0.4,0.3-0.9,0.5-1.4
	l0,0c-0.1,0-0.2,0-0.4,0h-0.5h-0.4L80.2,43l-0.7,0.1l-0.7,0.1L77,43.5c-0.1,0.2-0.2,0.3-0.3,0.5c-0.1,0.2-0.2,0.4-0.3,0.6
	s-0.2,0.4-0.2,0.6S76,45.5,76,45.6s-0.1,0.1-0.1,0.2l-0.2,0.1c-0.1,0-0.1,0.1-0.2,0.1s-0.1,0-0.2,0s-0.2,0-0.3,0
	c-0.1,0-0.1-0.1-0.1-0.2c0-0.1,0-0.2,0-0.2C74.9,45.5,74.8,45.4,74.8,45.3z"/>
<path fill="#FFFFFF" d="M86.6,46c0,0.3-0.2,0.6-0.4,0.7c-0.2,0.2-0.5,0.3-0.8,0.2c-0.4-0.1-0.8-0.5-0.7-0.9l0,0
	c0-0.3,0.2-0.6,0.5-0.7c0.2-0.2,0.5-0.3,0.8-0.2c0.2,0,0.4,0.1,0.5,0.3S86.6,45.8,86.6,46z M89.8,38.2c-0.1,0.3-0.2,0.6-0.4,0.8
	c-0.2,0.3-0.5,0.9-1,1.9s-0.9,1.6-1,1.9c-0.1,0.3-0.3,0.6-0.4,0.9c-0.1,0.3-0.4,0.4-0.6,0.3c-0.3,0-0.6-0.2-0.6-0.6
	c0-0.1,0-0.1,0-0.2c0.2-0.9,0.6-1.7,1.1-2.5s1-1.7,1.6-2.4c0.3-0.4,0.7-0.6,0.9-0.6S89.8,38,89.8,38.2L89.8,38.2z"/>
<path fill="#8C6239" d="M49.1,42.6c0-0.1,0.1-0.2,0.1-0.3c0.1-0.1,0.2-0.2,0.3-0.3s0.2-0.2,0.4-0.3l0.4-0.3l0.9-0.7
	c0.3-0.2,0.6-0.5,0.9-0.8c0.1-0.1,0.2-0.2,0.3-0.3s0.1-0.1,0.2-0.2l0.1-0.1v-0.1c-0.2-0.3-0.3-0.5-0.4-0.8c-0.1-0.3-0.2-0.6-0.3-0.9
	c-0.1-0.3-0.1-0.6-0.2-0.9c0-0.3-0.1-0.6-0.1-0.9s-0.1-0.5-0.1-0.8c0-0.2-0.1-0.5-0.2-0.7c-0.1-0.2-0.1-0.3-0.2-0.5
	c0-0.2,0-0.4,0-0.5s0-0.2,0.1-0.3c0-0.1,0.1-0.2,0.2-0.3c0.1-0.1,0.1-0.2,0.2-0.2c0.2-0.1,0.5-0.1,0.6,0.1c0.1,0.1,0.2,0.2,0.3,0.4
	c0.1,0.1,0.1,0.3,0.2,0.5c0,0.1,0.1,0.3,0.1,0.4c0,0.2,0,0.4,0.1,0.7s0,0.6,0.1,0.9s0,0.6,0.1,0.8c0,0.2,0,0.4,0.1,0.6
	c0,0.2,0.1,0.4,0.1,0.6c0,0.2,0.1,0.3,0.1,0.5c0,0.1,0.1,0.2,0.2,0.3c0,0.1,0.1,0.1,0.2,0.1c0,0,0.1,0,0.2-0.2
	c0.4-0.4,0.8-0.9,1.3-1.4l1.3-1.5l0.4-0.5c0.1-0.2,0.2-0.3,0.3-0.4l0.3-0.4c0.1-0.1,0.2-0.3,0.3-0.4l0.3-0.7c0-0.1,0.1-0.1,0.1-0.2
	c0.1-0.1,0.1-0.1,0.2-0.2c0.1,0,0.1-0.1,0.2-0.1c0.1,0,0.2,0,0.3,0s0.2,0.1,0.3,0.1c0.1,0.1,0.1,0.1,0.2,0.2c0,0.1,0.1,0.2,0.1,0.3
	s0,0.2,0,0.3s-0.1,0.3-0.1,0.4c-0.1,0.2-0.2,0.3-0.2,0.4c-0.1,0.2-0.2,0.3-0.3,0.4l-0.3,0.4c-0.7,0.8-1.5,1.6-2.2,2.4
	s-1.5,1.6-2.3,2.3s-1.3,1.3-2,1.8s-1.2,1-1.8,1.5c-0.1,0.1-0.2,0.2-0.4,0.2c-0.1,0.1-0.3,0.1-0.4,0.1c-0.1,0-0.1,0-0.2-0.1l-0.1-0.1
	c0-0.1,0-0.1,0-0.2C49.1,42.8,49.1,42.7,49.1,42.6z"/>
<path fill="#8C6239" d="M57.8,42.3c0-0.2,0.1-0.3,0.1-0.5c0.2-0.6,0.5-1.1,0.8-1.7s0.5-1.1,0.8-1.6s0.4-1,0.6-1.4s0.3-0.7,0.4-0.9
	s0.2-0.5,0.3-0.7s0.2-0.4,0.3-0.6c0.1-0.1,0.1-0.2,0.2-0.3c0.1-0.1,0.1-0.2,0.2-0.3c0.1-0.1,0.2-0.2,0.3-0.2C61.9,34,62,34,62.1,34
	s0.3,0.1,0.4,0.1c0.1,0,0.1,0.1,0.2,0.2v0.3H63h0.3h0.3h0.2c0.3,0,0.6-0.1,0.8-0.1s0.5,0,0.7,0h0.6h0.6c0.2,0,0.3,0.1,0.5,0.1
	c0.1,0,0.2,0.1,0.3,0.1c0.1,0,0.1,0.1,0.1,0.1c0,0.1,0,0.1,0,0.2c0,0.1,0,0.1-0.1,0.2c0,0.1-0.1,0.1-0.2,0.2c-0.1,0-0.2,0.1-0.3,0.1
	c-0.1,0-0.3,0-0.4,0h-0.3h-0.5h-0.5H65h-0.2h-0.4L64,35.6l-0.5,0.1l-0.5,0l-0.3,0.1c-0.3,0-0.5,0.2-0.7,0.3s-0.3,0.3-0.4,0.5
	c0,0.1-0.1,0.1-0.1,0.2l-0.2,0.3l-0.2,0.4L61,37.9l-0.2,0.3c0,0.1-0.1,0.2-0.1,0.2v0.1c0,0,0,0,0,0.1 M60.7,38.6h0.4l0.8-0.1
	l0.9-0.2l0.9-0.2l0.8-0.1c0.2,0,0.3,0,0.5,0c0.1,0,0.2,0,0.3,0.1c0,0.1,0,0.1,0,0.2c0,0.2-0.1,0.3-0.2,0.4c-0.1,0.1-0.3,0.2-0.4,0.3
	c-0.1,0-0.2,0.1-0.3,0.1l-0.5,0.1l-0.5,0.1l-0.4,0l-1,0.2l-0.7,0.2l-0.4,0.1h-0.3h-0.3L60,40c-0.1,0.1-0.1,0.3-0.2,0.4
	c-0.1,0.2-0.2,0.4-0.2,0.5l-0.2,0.5c0,0.1-0.1,0.2-0.1,0.3s0,0.1,0,0.2c0,0,0,0.1,0.1,0.1h0.1h0.1c0.3,0,0.5,0,0.8,0
	s0.6-0.1,0.9-0.1c0.3,0,0.5-0.1,0.8-0.2l0.6-0.2l0.6-0.2c0.2,0,0.4,0,0.6,0h0.2l0.2,0.1l0.1,0.1c0,0.1,0,0.1,0,0.2
	c0,0.1-0.1,0.3-0.2,0.3c-0.1,0.1-0.3,0.2-0.5,0.3s-0.4,0.2-0.6,0.3l-0.7,0.2L61.7,43l-0.8,0c-0.4,0.1-0.8,0.1-1.2,0.2
	c-0.3,0-0.7,0-1,0s-0.5-0.1-0.7-0.3s-0.2-0.4-0.2-0.7L60.7,38.6z"/>
<path fill="#8C6239" d="M71.4,44.6c-0.1,0-0.2,0-0.2-0.1c-0.1,0-0.1-0.1-0.2-0.2c0-0.1-0.1-0.1-0.1-0.2c0-0.1,0-0.1,0-0.2
	c0-0.1,0-0.2,0.1-0.3s0.1-0.2,0.2-0.4l0.2-0.4c0.1-0.1,0.2-0.3,0.3-0.4s0.2-0.3,0.2-0.4c0-0.1,0.1-0.2,0.1-0.3s0.1-0.2,0.1-0.3
	l0.1-0.3c0.1-0.1,0.1-0.3,0.2-0.4l0.2-0.4h-0.9h-0.4h-0.5h-0.5l-0.8,0.1c-0.3,0-0.5,0-0.8,0c-0.1,0-0.2,0-0.2-0.1
	c-0.1-0.1-0.1-0.1-0.2-0.1c-0.1,0.1-0.2,0.3-0.3,0.4s-0.2,0.3-0.3,0.5c-0.1,0.2-0.2,0.3-0.2,0.5c-0.1,0.2-0.1,0.3-0.2,0.4
	c0,0.1-0.1,0.2-0.1,0.3l-0.1,0.4L67,43.1l-0.1,0.3c0,0.1-0.1,0.1-0.1,0.2c0,0.1-0.1,0.1-0.2,0.2c-0.1,0-0.1,0.1-0.2,0.1
	s-0.1,0-0.2,0s-0.2-0.1-0.3-0.1c-0.1-0.1-0.1-0.2-0.2-0.3c0-0.1,0-0.2,0-0.4c0-0.1,0-0.2,0-0.3c0-0.3,0.1-0.5,0.2-0.8
	s0.2-0.6,0.4-0.8c0.2-0.3,0.3-0.6,0.5-0.8c0.2-0.3,0.4-0.5,0.6-0.8s0.4-0.5,0.7-0.8s0.5-0.7,0.8-1c0.3-0.4,0.6-0.7,1-1
	c0.3-0.3,0.7-0.6,1.1-0.8c0.3-0.2,0.7-0.3,1.1-0.4c0.3-0.1,0.7-0.1,1-0.1s0.6,0.1,0.9,0.3c0.2,0.2,0.4,0.4,0.5,0.6
	c0.1,0.3,0.2,0.5,0.2,0.8s0,0.6,0,1c0,0.3-0.1,0.6-0.2,0.9c-0.1,0.3-0.2,0.6-0.3,0.9s-0.2,0.6-0.3,0.8s-0.2,0.5-0.3,0.7l-0.3,0.8
	l-0.1,0.2c0,0.1-0.1,0.2-0.1,0.3S73,43,72.9,43.1l-0.2,0.3l-0.2,0.3l-0.1,0.2l0,0l-0.2,0.3c0,0.1-0.1,0.2-0.2,0.3s-0.2,0.1-0.3,0.2
	C71.7,44.6,71.6,44.6,71.4,44.6z M72.8,36.5c-0.2,0-0.4,0-0.6,0c-0.4,0.1-0.8,0.3-1.2,0.6c-0.2,0.2-0.4,0.3-0.6,0.5l-0.5,0.5
	l-0.4,0.5l-0.1,0.1l-0.1,0.1L69.2,39l-0.1,0.1l0.7,0.1c0.2,0,0.5,0,0.8,0.1c0.3,0,0.6,0,0.9,0h0.9H73c0-0.1,0.1-0.1,0.1-0.2
	c0-0.1,0.1-0.2,0.1-0.3s0.1-0.2,0.1-0.4c0-0.1,0-0.3,0.1-0.4s0-0.2,0-0.4c0-0.1,0-0.3,0-0.4c0-0.1-0.1-0.2-0.2-0.3
	C73.1,36.6,73,36.6,72.8,36.5z"/>
<path fill="#8C6239" d="M74.6,44.8c0-0.1,0-0.1,0.1-0.2c0-0.1,0.1-0.2,0.1-0.2c0-0.1,0.1-0.2,0.1-0.2c0-0.1,0.1-0.1,0.1-0.2l3.8-8.3
	c0,0,0-0.1,0.1-0.1H79h0.3c0.1,0,0.2,0,0.2,0.1c0.1,0,0.1,0.1,0.1,0.2c0,0.1,0.1,0.1,0.1,0.2c0,0.1,0,0.2,0,0.2c0,0.1,0,0.1-0.1,0.2
	l-0.1,0.2c0,0.1-0.1,0.1-0.1,0.2V37l-2,4.4H78l2.2-0.2l2.2-0.2c0.1,0,0.2-0.1,0.2-0.2c0.1-0.1,0.2-0.3,0.2-0.5l0.3-0.7
	c0.1-0.2,0.2-0.5,0.4-0.8l0.2-0.4l0.2-0.6c0.1-0.2,0.1-0.4,0.2-0.6c0.1-0.2,0.2-0.3,0.3-0.4c0.1-0.1,0.3-0.2,0.4-0.1
	c0.2,0,0.4,0.1,0.5,0.3s0.1,0.4,0.1,0.5c-0.1,0.2-0.1,0.4-0.2,0.7l-0.5,1.1l-0.3,0.5l-0.2,0.5c-0.1,0.2-0.1,0.3-0.2,0.4
	c0,0.1-0.1,0.2-0.1,0.3s0,0.2,0,0.2v0.2c0,0.2-0.1,0.3-0.2,0.5c-0.1,0.1-0.3,0.2-0.5,0.3c0,0.1,0,0.1,0,0.2l-0.1,0.2L83,42.9
	c-0.1,0.2-0.2,0.5-0.3,0.7c-0.1,0.2-0.1,0.5-0.2,0.7s-0.1,0.5-0.2,0.7s-0.1,0.5-0.2,0.7c0,0.1-0.1,0.2-0.1,0.2
	c-0.1,0.1-0.1,0.1-0.2,0.2c-0.1,0-0.2,0.1-0.2,0.1c-0.1,0-0.1,0-0.2,0s-0.2,0-0.3-0.1C81,46,81,46,81,45.9c0-0.1,0-0.1,0-0.2
	c0-0.1,0-0.1,0-0.2c0-0.1,0-0.2,0-0.3s0.1-0.3,0.1-0.4s0.1-0.3,0.2-0.5l0.2-0.5c0.1-0.4,0.3-0.9,0.5-1.4l0,0c-0.1,0-0.2,0-0.4,0
	c-0.2,0-0.3,0-0.5,0h-0.4H80l-0.7,0.1l-0.7,0.1l-1.8,0.3c-0.1,0.2-0.2,0.3-0.3,0.5s-0.2,0.4-0.3,0.6s-0.2,0.4-0.3,0.6
	s-0.1,0.4-0.2,0.5c0,0.1-0.1,0.1-0.1,0.2l-0.2,0.1c-0.1,0-0.1,0.1-0.2,0.1s-0.1,0-0.2,0s-0.2,0-0.2-0.1c-0.1-0.1-0.1-0.1-0.1-0.2
	c0-0.1,0-0.2,0-0.2C74.7,44.8,74.7,44.8,74.6,44.8z"/>
<path fill="#8C6239" d="M86.4,45.4c0,0.3-0.2,0.6-0.4,0.7c-0.2,0.2-0.5,0.3-0.8,0.2c-0.2,0-0.4-0.1-0.6-0.3
	c-0.1-0.2-0.2-0.4-0.2-0.6c0-0.3,0.2-0.6,0.5-0.7c0.2-0.2,0.5-0.3,0.8-0.2c0.2,0,0.4,0.1,0.5,0.3C86.4,45,86.4,45.2,86.4,45.4z
	 M89.6,37.6c-0.1,0.3-0.2,0.6-0.4,0.8c-0.2,0.3-0.5,0.9-1.1,1.9s-0.9,1.6-1,1.9c-0.1,0.3-0.3,0.6-0.3,0.9c-0.1,0.3-0.4,0.4-0.6,0.3
	c-0.3,0-0.6-0.2-0.6-0.6c0-0.1,0-0.1,0-0.2c0.3-0.9,0.6-1.7,1.1-2.5s1-1.7,1.6-2.4c0.3-0.4,0.7-0.6,0.9-0.6S89.6,37.4,89.6,37.6z"/>
<radialGradient id="SVGID_1_" cx="108.3414" cy="67.0389" r="7.3134" gradientTransform="matrix(1 0 0 1 0 32)" gradientUnits="userSpaceOnUse">
	<stop  offset="0" style="stop-color:#C0EFAF"/>
	<stop  offset="0.99" style="stop-color:#8CBF71"/>
</radialGradient>
<path fill="url(#SVGID_1_)" d="M114.6,106.2c-0.2,0.4-0.6,0.6-1.1,0.7c-2.7,0.4-8-3.8-10.5-5.8c-0.5-0.4-0.9-0.8-1.4-1.1
	c0.1-0.8,3.8-5,7.5-8.7C110.3,92.9,116.9,102.8,114.6,106.2z"/>
<path fill="#618451" d="M101.1,100c0,0.1,0.1,0.2,0.2,0.3c0.5,0.3,1,0.7,1.4,1.1c2.7,2.1,7.5,6,10.5,6c0.2,0,0.3,0,0.5,0
	c0.6-0.1,1.1-0.4,1.4-0.9c2.7-4-5.3-15.3-5.7-15.8l-0.2-0.3l-0.2,0.2C107.1,92.5,100.9,98.8,101.1,100z M101.6,99.9
	c0.1-0.8,3.8-5,7.5-8.7c1.2,1.7,7.8,11.6,5.5,15c-0.2,0.4-0.6,0.6-1.1,0.7c-2.7,0.4-8-3.8-10.5-5.8
	C102.5,100.6,102.1,100.3,101.6,99.9L101.6,99.9z"/>
<radialGradient id="SVGID_2_" cx="-248.3468" cy="77.09" r="14.4664" gradientTransform="matrix(-1 0 0 1 -154.27 32)" gradientUnits="userSpaceOnUse">
	<stop  offset="0" style="stop-color:#C0EFAF"/>
	<stop  offset="0.99" style="stop-color:#8CBF71"/>
</radialGradient>
<path fill="url(#SVGID_2_)" d="M79.1,104.5c3.4-3.6,8-5.7,12.9-6c0.6,0,1.2,0.1,1.8,0.2c8.2,1.6,15,9.5,17.1,14.2
	c0.7,1.7,0.9,3,0.5,3.6c-1.7,2.7-8.4,3.7-17.2,2.6c-7.8-0.9-16.3-3.5-17.3-6.6C75.8,109.2,77.5,106.3,79.1,104.5z"/>
<path fill="#618451" d="M76.7,112.7c1.1,3.2,9.6,5.8,17.5,6.8c2.1,0.3,4.3,0.4,6.4,0.4c5,0,9.5-0.8,11-3.2c0.5-0.7,0.3-2.1-0.4-3.9
	c-2.1-5-8.9-12.7-17.3-14.4c-4.5-0.9-11.4,1.8-15,5.9C77.2,106.2,75.5,109.2,76.7,112.7z M76.9,112.7c-1.2-3.4,0.5-6.3,2.1-8.1
	c3.4-3.6,8-5.7,12.9-6c0.6,0,1.2,0.1,1.8,0.2c8.2,1.6,15,9.5,17.1,14.2c0.7,1.7,0.9,3,0.5,3.6c-1.7,2.7-8.4,3.7-17.2,2.6
	C86.4,118.3,78,115.8,76.9,112.7z"/>
<linearGradient id="SVGID_3_" gradientUnits="userSpaceOnUse" x1="-239.4063" y1="17.71" x2="-239.4063" y2="84.2803" gradientTransform="matrix(-1 0 0 1 -154.27 32)">
	<stop  offset="0" style="stop-color:#A5D6AC"/>
	<stop  offset="0.98" style="stop-color:#80AA72"/>
</linearGradient>
<path fill="url(#SVGID_3_)" d="M60.8,76.1c-7.2,16.2-4.3,32.6,12.8,38.6c14.3,5,29.9-1.3,36.3-17.9s5-37.7-19.3-47
	C89.8,51.8,69.1,57.3,60.8,76.1z"/>
<radialGradient id="SVGID_4_" cx="-243.077" cy="59.91" r="19.86" gradientTransform="matrix(-0.98 0 0 1 -144.99 33.01)" gradientUnits="userSpaceOnUse">
	<stop  offset="0" style="stop-color:#C0EFAF"/>
	<stop  offset="0.99" style="stop-color:#8CBF71"/>
</radialGradient>
<path fill="url(#SVGID_4_)" d="M76.5,88.1c3.2-7.5,10.3-12.3,17.4-12.3c1.8,0,3.5,0.3,5.2,0.9c4.5,1.7,8.1,5.1,10,9.5
	c1.7,4,1.8,8.6,0.1,12.6c-5,11.8-18.4,11.1-22.6,10c-4.1-1-7.6-3.8-9.4-7.7C75.2,97,75,92.4,76.5,88.1z"/>
<path fill="#618451" d="M77,101.2c1.9,3.9,5.4,6.8,9.5,7.8c1.7,0.4,3.5,0.6,5.3,0.6c2.2,0,4.3-0.3,6.4-0.9c5.1-1.4,9.3-5,11.3-9.9
	c1.7-4.1,1.7-8.7-0.1-12.8c-1.9-4.5-5.6-8-10.2-9.6c-4.4-1.5-9.3-1.1-13.4,1.2c-4.3,2.3-7.7,5.9-9.6,10.4
	C74.8,92.3,75,97.1,77,101.2z M86.6,108.8c-4.1-1-7.6-3.8-9.4-7.7c-1.9-4.1-2.2-8.7-0.7-13c3.2-7.5,10.3-12.3,17.4-12.3
	c1.8,0,3.5,0.3,5.2,0.9c4.5,1.7,8.1,5.1,10,9.5c1.7,4,1.8,8.6,0.1,12.6C104.2,110.6,90.8,110,86.6,108.8L86.6,108.8z"/>
<path fill="#F7C25D" d="M86.3,73.7c2.2-2,5-3.1,8-3.1c5.5,0,10,3.7,10.1,3.7l0,0l0,0c6.8,1.2,8.6,1.8,8.4,7.6
	c-0.2,7.6-1.7,13.2-4.2,15.3c-0.8,0.7-1.8,1-2.8,0.9c-8.7-1-18.5-10.4-20.7-17.5C84.2,77.5,84.6,75.2,86.3,73.7z"/>
<path fill="#618451" d="M84.9,80.6c2.2,7.2,12.1,16.7,21,17.8h0.5c0.9,0,1.9-0.4,2.6-1c2.5-2.2,4-7.8,4.2-15.5
	c0.2-6-1.8-6.6-8.6-7.8c-0.6-0.5-10.1-7.9-18.4-0.6C84.4,75,83.9,77.5,84.9,80.6z M105.9,98c-8.8-1-18.6-10.4-20.8-17.5
	c-0.9-3-0.5-5.3,1.2-6.8c2.2-2,5-3.1,8-3.1c5.5,0,10,3.7,10.1,3.7l0,0l0,0c6.8,1.2,8.6,1.8,8.4,7.6c-0.2,7.6-1.7,13.2-4.2,15.3
	C107.9,97.8,106.9,98.1,105.9,98z"/>
<path fill="#F2F2F2" d="M103.5,75.9c-0.1,3.7,2.4,6.1,5.3,6.1s5.3-2.8,5.3-6.3s-2.4-6.3-5.3-6.3S103.6,72.5,103.5,75.9z"/>
<path fill="#4D4D4D" d="M108.8,82.3c-1.5,0-2.9-0.6-3.9-1.6c-1.2-1.3-1.8-3-1.7-4.7l0,0c0.1-3.8,2.6-6.9,5.6-6.9s5.6,3,5.6,6.6
	S111.9,82.3,108.8,82.3z M108.8,69.6c-2.7,0-4.9,2.8-5,6.3l0,0c-0.1,1.6,0.4,3.1,1.5,4.3c0.9,1,2.2,1.5,3.5,1.5c2.8,0,5-2.7,5-6
	S111.6,69.6,108.8,69.6z"/>
<ellipse transform="matrix(0.7075 -0.7067 0.7067 0.7075 -21.9074 97.8689)" cx="107.3" cy="75.4" rx="1.7" ry="1.6"/>
<ellipse transform="matrix(0.7075 -0.7067 0.7067 0.7075 -21.7115 97.6339)" fill="#FFFFFF" cx="107.1" cy="75" rx="1.1" ry="1"/>
<ellipse fill="#FFFFFF" cx="107.3" cy="76.2" rx="0.1" ry="0.1"/>
<radialGradient id="SVGID_5_" cx="-218.1437" cy="77.9602" r="20.0817" fx="-226.0654" fy="77.9602" gradientTransform="matrix(-1 0 0 1 -154.27 32)" gradientUnits="userSpaceOnUse">
	<stop  offset="2.000000e-02" style="stop-color:#F7DAF3"/>
	<stop  offset="0.91" style="stop-color:#D6A1CE"/>
</radialGradient>
<path fill="url(#SVGID_5_)" d="M45.1,113.8c-0.2-0.6,0.2-1.5,1.1-2.6c3.5-4.6,14.4-11.5,22.7-11.5c6.9,0,13.5,8.3,13.7,17.5
	c0,1.6-2.7,2.3-5.1,2.7C67.3,121.3,46.2,117.9,45.1,113.8z"/>
<path fill="#7A426D" d="M44.9,113.8c1,3.9,16.5,6.6,27.2,6.6c1.9,0,3.7-0.1,5.6-0.3c3.6-0.5,5.3-1.5,5.3-2.9
	c-0.3-9.3-6.9-17.7-14-17.7c-8.4,0-19.3,7-22.9,11.6C45.1,112.2,44.7,113.2,44.9,113.8z M46.2,111.2c3.5-4.6,14.4-11.5,22.7-11.5
	c6.9,0,13.5,8.3,13.7,17.5c0,1.6-2.7,2.3-5.1,2.7c-10.3,1.4-31.4-2-32.4-6.1C45,113.2,45.4,112.3,46.2,111.2z"/>
<linearGradient id="SVGID_6_" gradientUnits="userSpaceOnUse" x1="48.6081" y1="-5.4451" x2="76.4472" y2="-5.4451" gradientTransform="matrix(0.9866 0.163 -0.163 0.9866 1.3104 78.1076)">
	<stop  offset="0" style="stop-color:#A5D6AC"/>
	<stop  offset="0.98" style="stop-color:#80AA72"/>
</linearGradient>
<path fill="url(#SVGID_6_)" d="M60.3,93.1c-4.6,1.4-8.7,1.5-10.2,0.3c-2-1.7-1.8-5.6,0.5-10.1c3.9-7.7,12.5-14.3,21.2-11.9l0.1-0.3
	l6.9,6.5l0,0l-0.3-0.1C76.1,85.7,67.5,91,60.3,93.1z"/>
<path fill="#618451" d="M50.2,83c2-3.9,5-7.3,8.7-9.8c3.8-2.7,8.6-3.6,13.1-2.5L71.9,71l-0.1,0.3c-8.7-2.3-17.3,4.3-21.2,11.9
	c-2.3,4.5-2.5,8.5-0.5,10.1c1.5,1.3,5.6,1.2,10.2-0.3c7.2-2.1,15.8-7.5,18.3-15.7l0.3,0.1l0.3,0.1C76.5,86,67.8,91.4,60.5,93.7
	c-3.9,1.2-7.4,1.5-9.5,0.8c-0.4-0.1-0.9-0.3-1.2-0.6C47.6,92,47.7,87.7,50.2,83z"/>
<ellipse fill="#F2F2F2" cx="94.3" cy="71.7" rx="11.5" ry="12.2"/>
<path fill="#4D4D4D" d="M94.3,84.1c-6.5,0-11.8-5.6-11.8-12.4s5.3-12.4,11.8-12.4s11.8,5.6,11.8,12.4S100.8,84.1,94.3,84.1z
	 M94.3,59.8c-6.2,0-11.2,5.3-11.2,11.9s5,11.9,11.2,11.9s11.2-5.3,11.2-11.9S100.5,59.8,94.3,59.8z"/>
<ellipse cx="89.8" cy="71.2" rx="3.6" ry="3.6"/>
<ellipse transform="matrix(4.850222e-02 -0.9988 0.9988 4.850222e-02 16.0326 156.8753)" fill="#FFFFFF" cx="90.4" cy="70" rx="2.2" ry="2.1"/>
<circle fill="#FFFFFF" cx="88.4" cy="71.5" r="0.4"/>
<path fill="#872A7F" d="M52.9,105.2c-4-4.5-11.6-7.5-16.6-6.5c-9.3,1.9-16.7,10.4-19.1,15.9c-0.8,2-1,3.5-0.5,4.4
	c1.8,2.9,7.6,3.6,12.2,3.6c2.4,0,4.7-0.2,7.1-0.4c8.7-1,18.2-4,19.4-7.5C56.7,110.6,54.8,107.3,52.9,105.2z M17.2,118.7
	c-0.4-0.7-0.3-2.1,0.5-3.9c2.3-5.2,9.8-13.8,18.7-15.6c0.7-0.1,1.3-0.2,2-0.2c5.4,0.3,10.4,2.6,14.1,6.5c1.8,2,3.6,5.1,2.3,8.8
	c-1.1,3.4-10.4,6.2-18.9,7.2C26.3,122.7,19,121.6,17.2,118.7z"/>
<radialGradient id="SVGID_7_" cx="36.108" cy="78.5308" r="15.8965" fx="36.1037" fy="78.5308" gradientTransform="matrix(1 0 0 1 0 32)" gradientUnits="userSpaceOnUse">
	<stop  offset="2.000000e-02" style="stop-color:#F7DAF3"/>
	<stop  offset="0.91" style="stop-color:#D6A1CE"/>
</radialGradient>
<path fill="url(#SVGID_7_)" d="M52.6,105.5c-3.7-3.9-8.8-6.3-14.2-6.6c-0.7,0-1.3,0.1-2,0.2c-9,1.8-16.5,10.4-18.8,15.7
	c-0.8,1.8-1,3.3-0.5,4c1.8,2.9,9.2,4.1,18.9,2.9c8.6-1,17.9-3.8,19-7.3C56.2,110.7,54.4,107.5,52.6,105.5z"/>
<linearGradient id="SVGID_8_" gradientUnits="userSpaceOnUse" x1="15.1403" y1="49.7703" x2="83.1033" y2="49.7703" gradientTransform="matrix(1 0 0 1 0 32)">
	<stop  offset="0" style="stop-color:#ED85E3"/>
	<stop  offset="0.98" style="stop-color:#C44EA8"/>
</linearGradient>
<path fill="url(#SVGID_8_)" d="M82.1,83.1c-2.1-6.5-6.8-12.8-13-15.4C58.7,52.2,40.8,47.2,40,45.1C13.2,55.4,11.7,78.6,18.7,96.9
	s24.2,25.2,40,19.7c11.4-4,17.1-12.2,18-22.1c1.4,0.4,2.9,0.3,4.2-0.3C83.3,92.8,83.8,88.4,82.1,83.1z"/>
<path fill="#DD80CC" d="M13.5,107.3c0.3,0.4,0.7,0.7,1.2,0.7c2.9,0.5,8.8-4.2,11.6-6.4c0.9-0.7,1.3-1.1,1.6-1.2
	c-0.1-0.9-4.2-5.5-8.3-9.6C18.3,92.7,11,103.6,13.5,107.3z"/>
<path fill="#872A7F" d="M19.7,90.2L19.5,90l-0.2,0.3c-0.4,0.5-9.2,13-6.3,17.4c0.4,0.5,0.9,0.9,1.6,1c0.2,0,0.3,0,0.5,0
	c3.2,0,8.6-4.2,11.5-6.6c0.5-0.4,1-0.8,1.5-1.2c0.1-0.1,0.2-0.2,0.3-0.3C28.6,99.2,21.8,92.3,19.7,90.2z M26.3,101.6
	c-2.8,2.2-8.7,6.9-11.6,6.4c-0.5-0.1-0.9-0.3-1.2-0.7c-2.5-3.7,4.8-14.6,6.1-16.5c4.1,4.1,8.2,8.7,8.3,9.6
	C27.6,100.6,27.1,100.9,26.3,101.6z"/>
<radialGradient id="SVGID_9_" cx="47.4875" cy="59.67" r="21.8894" gradientTransform="matrix(0.98 0 0 1 -9.28 33.01)" gradientUnits="userSpaceOnUse">
	<stop  offset="0" style="stop-color:#F9B7EF"/>
	<stop  offset="0.99" style="stop-color:#F962E4"/>
</radialGradient>
<path fill="url(#SVGID_9_)" d="M55.4,87.4C51.9,79.1,44,73.9,36.2,73.9c-1.9,0-3.9,0.3-5.7,1c-4.9,1.8-8.9,5.6-11,10.4
	c-1.9,4.4-2,9.5-0.1,13.9c5.5,13,20.2,12.3,24.9,11c4.5-1.1,8.3-4.2,10.3-8.4C56.8,97.3,57.1,92.1,55.4,87.4z"/>
<path fill="#A32B97" d="M55.7,87.3c-2.1-4.9-5.8-8.9-10.5-11.4c-4.5-2.5-9.8-2.9-14.7-1.3c-5,1.8-9.1,5.7-11.2,10.6
	c-2,4.5-2,9.6-0.1,14.1c2.2,5.4,6.8,9.4,12.4,10.9c2.3,0.7,4.6,1,7,1c2,0,3.9-0.2,5.8-0.7c4.6-1.1,8.5-4.3,10.5-8.6
	C57.1,97.3,57.4,92.1,55.7,87.3z M19.5,99.2c-1.9-4.4-1.9-9.5,0.1-13.9c2.1-4.8,6.1-8.6,11-10.4c1.8-0.7,3.8-1,5.7-1
	c7.8,0,15.7,5.3,19.2,13.5c1.7,4.7,1.4,9.8-0.8,14.3c-2,4.2-5.8,7.3-10.3,8.4C39.7,111.5,25,112.2,19.5,99.2z"/>
<path fill="#F7C25D" d="M44.6,71.5c-2.4-2.2-5.6-3.4-8.8-3.4c-6.1,0-11,4-11.1,4.1l0,0l0,0c-7.5,1.3-9.4,1.9-9.3,8.3
	c0.2,8.4,1.9,14.5,4.6,16.8c0.8,0.8,2,1.1,3.1,1C32.8,97.2,43.5,86.8,46,79C47,75.8,46.5,73.2,44.6,71.5z"/>
<path fill="#872A7F" d="M44.8,71.3c-9.2-8-19.6,0.1-20.3,0.6c-7.5,1.3-9.6,2-9.4,8.6c0.2,8.4,1.9,14.7,4.7,17
	c0.8,0.7,1.8,1.1,2.8,1.1c0.2,0,0.3,0,0.5,0c9.8-1.2,20.7-11.6,23.2-19.5C47.3,75.7,46.8,73,44.8,71.3z M19.9,97.3
	c-2.7-2.3-4.4-8.4-4.6-16.8c-0.2-6.4,1.8-7,9.3-8.3l0,0l0,0c0.1-0.1,5-4.1,11.1-4.1c3.3,0,6.4,1.2,8.8,3.4c2,1.7,2.5,4.3,1.5,7.5
	c-2.5,7.8-13.2,18.2-23,19.3C21.9,98.5,20.8,98.1,19.9,97.3L19.9,97.3z"/>
<path fill="#F2F2F2" d="M25.8,74c0.1,4.1-2.6,6.7-5.9,6.7s-5.8-3.1-5.8-7s2.6-7,5.8-7S25.6,70.2,25.8,74z"/>
<path fill="#4D4D4D" d="M19.9,81c-3.4,0-6.1-3.3-6.1-7.3s2.7-7.3,6.1-7.3s6,3.4,6.1,7.6l0,0c0.1,1.9-0.5,3.8-1.8,5.2
	C23.1,80.4,21.5,81,19.9,81z M19.9,67.1c-3.1,0-5.6,3-5.6,6.7s2.5,6.7,5.6,6.7c1.5,0,2.9-0.6,3.9-1.6c1.2-1.3,1.8-3,1.7-4.8l0,0
	C25.4,70.2,22.9,67,19.9,67.1L19.9,67.1z"/>
<ellipse transform="matrix(0.8388 -0.5445 0.5445 0.8388 -36.5244 23.4815)" cx="21.4" cy="73.4" rx="1.8" ry="1.9"/>
<ellipse fill="#FFFFFF" cx="21.8" cy="72.9" rx="1.1" ry="1.1"/>
<ellipse fill="#FFFFFF" cx="21.5" cy="74.2" rx="0.2" ry="0.2"/>
<radialGradient id="SVGID_10_" cx="69.3235" cy="79.4795" r="22.1059" fx="60.5979" fy="79.4795" gradientTransform="matrix(1 0 0 1 0 32)" gradientUnits="userSpaceOnUse">
	<stop  offset="2.000000e-02" style="stop-color:#F7DAF3"/>
	<stop  offset="0.91" style="stop-color:#D6A1CE"/>
</radialGradient>
<path fill="url(#SVGID_10_)" d="M89.9,115.7c0.2-0.7-0.2-1.6-1.2-2.8c-3.9-5-15.9-12.6-25-12.6c-7.6,0-14.8,9.2-15.1,19.2
	c0,1.8,3,2.6,5.6,3C65.6,123.9,88.8,120.2,89.9,115.7z"/>
<path fill="#A32B97" d="M89,112.7c-3.9-5.1-16-12.7-25.2-12.7c-7.8,0-15.1,9.3-15.4,19.5c0,1.6,1.9,2.7,5.8,3.2
	c2,0.3,4.1,0.4,6.1,0.4c11.8,0,28.8-3,29.9-7.3C90.4,115,90,114,89,112.7z M90,115.7c-1.2,4.5-24.4,8.3-35.7,6.7
	c-2.6-0.4-5.6-1.2-5.6-3c0.3-10.1,7.5-19.2,15.1-19.2c9.1,0,21.1,7.6,25,12.6C89.7,114,90.1,115,90,115.7L90,115.7z"/>
<path fill="#A32B97" d="M82.7,82.9c-1.5-4.6-4.2-8.8-7.7-12.2c-3.7-3.6-8.7-5.4-13.9-5V66v0.3C71,65.4,79.1,74,82,83.1
	c1.7,5.3,1.2,9.7-1.2,11.1c-1.8,1.1-6.3,0.2-11-2.1c-7.3-3.7-15.7-10.9-17-20.4h-0.3h-0.3c1.3,9.8,9.9,17.2,17.4,20.9
	c4,2,7.8,2.9,10.1,2.6c0.5-0.1,1-0.2,1.4-0.5C83.9,93.2,84.5,88.5,82.7,82.9z"/>
<ellipse fill="#F2F2F2" cx="35.8" cy="69.3" rx="12.6" ry="13.4"/>
<path fill="#4D4D4D" d="M35.8,83c-7.1,0-12.9-6.1-12.9-13.7s5.8-13.7,12.9-13.7s12.9,6.1,12.9,13.7S42.9,83,35.8,83z M35.8,56.2
	c-6.8,0-12.3,5.9-12.3,13.1S29,82.5,35.8,82.5s12.3-5.9,12.3-13.1S42.6,56.3,35.8,56.2L35.8,56.2z"/>
<ellipse transform="matrix(0.9958 -9.184674e-02 9.184674e-02 0.9958 -6.1286 4.0372)" cx="40.8" cy="68.6" rx="3.9" ry="4.1"/>
<ellipse transform="matrix(0.9958 -9.184674e-02 9.184674e-02 0.9958 -6.0205 3.9773)" fill="#FFFFFF" cx="40.2" cy="67.4" rx="2.3" ry="2.4"/>
<ellipse fill="#FFFFFF" cx="42.3" cy="69.2" rx="0.4" ry="0.4"/>
</svg>
