<?xml version="1.0" encoding="utf-8"?>
<!-- Generator: Adobe Illustrator 24.0.0, SVG Export Plug-In . SVG Version: 6.00 Build 0)  -->
<svg version="1.1" id="图层_1" xmlns="http://www.w3.org/2000/svg" xmlns:xlink="http://www.w3.org/1999/xlink" x="0px" y="0px"
	 viewBox="0 0 128 128" enable-background="new 0 0 128 128" xml:space="preserve">
<title>geary128</title>
<linearGradient id="SVGID_1_" gradientUnits="userSpaceOnUse" x1="8" y1="66.1" x2="120" y2="66.1" gradientTransform="matrix(1 0 0 1 0 32)">
	<stop  offset="0" style="stop-color:#F7931E"/>
	<stop  offset="0.51" style="stop-color:#FBB03B"/>
	<stop  offset="1" style="stop-color:#F7931E"/>
</linearGradient>
<path fill="url(#SVGID_1_)" d="M8,76.2v31.6c0,6.7,5.5,12.2,12.2,12.2l0,0h87.6c6.7,0,12.2-5.5,12.2-12.2l0,0V76.2
	C120,83,8,83,8,76.2z"/>
<path fill="#FEE8A3" d="M20,8h88c6.6,0,12,5.4,12,12v56c0,6.6-5.4,12-12,12H20c-6.6,0-12-5.4-12-12V20C8,13.4,13.4,8,20,8z"/>
<path fill="#F5A816" d="M112,79H16V22c0-3.3,2.7-6,6-6h84c3.3,0,6,2.7,6,6V79z"/>
<rect x="20" y="20" fill="#EEEEEE" width="88" height="59"/>
<rect x="40" y="79" fill="#E0E0E0" width="48" height="3"/>
<rect x="40" y="82" fill="#9E9E9E" width="48" height="3"/>
<rect x="40" y="85" fill="#E0E0E0" width="48" height="3"/>
<rect x="40" y="88" fill="#9E9E9E" width="48" height="3"/>
<rect x="40" y="91" fill="#E0E0E0" width="48" height="3"/>
<rect x="40" y="94" fill="#9E9E9E" width="48" height="3"/>
<polygon fill="#B3B3B3" points="76.1,51.1 97.8,68.2 98.3,68.2 77.8,49.5 "/>
<polygon fill="#B3B3B3" points="29.6,68.2 30.2,68.2 51.9,51.1 50.2,49.5 "/>
<polyline fill="#B3B3B3" points="29.6,30.8 50.2,49.5 51.9,51.1 64,62.1 76.1,51.1 77.8,49.5 98.3,30.8 98.3,30.8 98.4,30.7 
	98.4,30.7 64.1,59 29.8,30.8 "/>
<path fill="#FEE8A3" d="M83.2,94.6H44.8c-2,0-3.8-1.2-4.5-3.1H40v7.6c0,2.7,2.1,4.8,4.8,4.8l0,0h38.4c2.7,0,4.8-2.1,4.8-4.8l0,0
	v-7.6h-0.3C87,93.4,85.2,94.6,83.2,94.6z"/>
</svg>
