<?xml version="1.0" encoding="utf-8"?>
<!-- Generator: Adobe Illustrator 24.0.0, SVG Export Plug-In . SVG Version: 6.00 Build 0)  -->
<svg version="1.1" id="图层_1" xmlns="http://www.w3.org/2000/svg" xmlns:xlink="http://www.w3.org/1999/xlink" x="0px" y="0px"
	 viewBox="0 0 128 128" enable-background="new 0 0 128 128" xml:space="preserve">
<title>geogebra128</title>
<path fill="#666666" d="M116.6,33.7C102.1,8.8,67.3,1.6,39,17.8c-13.6,7.8-23.7,19.7-28.4,33.6C5.7,65.6,7,80.1,14.1,92.3
	s19.2,20.5,34,23.5c3.8,0.8,7.7,1.1,11.6,1.1c11.2-0.1,22.3-3.1,32-8.7c14.6-8.4,25.4-21.9,29.5-37.1
	C124.7,58.1,123.1,44.8,116.6,33.7z M109.9,68.1c-3.3,12.3-12,23.2-24,30c-10.7,6.3-23.3,8.5-35.4,6.2c-11.4-2.3-20.8-8.6-26.2-17.9
	S18,66.1,21.7,55.1c3.8-11.2,12.1-20.9,23.2-27.3c8-4.6,17-7.1,26.2-7.1c15.3,0,28.5,7,35.4,18.8C111.4,48.2,112.6,58.5,109.9,68.1z
	"/>
<ellipse transform="matrix(0.9123 -0.4096 0.4096 0.9123 -3.2791 22.1265)" fill="#8D8DED" cx="50" cy="18.7" rx="10.6" ry="9.5"/>
<ellipse transform="matrix(0.9123 -0.4096 0.4096 0.9123 -5.5399 48.9446)" fill="#8D8DED" cx="111.5" cy="37.4" rx="10.6" ry="9.5"/>
<ellipse transform="matrix(0.7402 -0.6724 0.6724 0.7402 -31.8903 94.0963)" fill="#8D8DED" cx="105.8" cy="88.3" rx="10.6" ry="9.5"/>
<ellipse transform="matrix(0.9958 -9.167441e-02 9.167441e-02 0.9958 -9.8426 4.7239)" fill="#8D8DED" cx="46.5" cy="109.5" rx="10.6" ry="9.5"/>
<ellipse transform="matrix(0.6396 -0.7687 0.7687 0.6396 -41.0223 33.268)" fill="#8D8DED" cx="15" cy="60.4" rx="10.6" ry="9.5"/>
</svg>
