<?xml version="1.0" encoding="utf-8"?>
<!-- Generator: Adobe Illustrator 24.0.0, SVG Export Plug-In . SVG Version: 6.00 Build 0)  -->
<svg version="1.1" id="图层_1" xmlns="http://www.w3.org/2000/svg" xmlns:xlink="http://www.w3.org/1999/xlink" x="0px" y="0px"
	 viewBox="0 0 128 128" enable-background="new 0 0 128 128" xml:space="preserve">
<title>ghextris-112</title>
<path fill="#90A4AE" d="M20,8h88c6.6,0,12,5.4,12,12v88c0,6.6-5.4,12-12,12H20c-6.6,0-12-5.4-12-12V20C8,13.4,13.4,8,20,8z"/>
<polygon fill="#FFAB40" points="51,53.2 38.2,53.2 31.9,64.2 38.2,75.2 51,75.2 57.3,64.2 "/>
<polygon fill="#FFAB40" points="51,75.2 38.2,75.2 31.9,86.2 38.2,97.3 51,97.3 57.3,86.2 "/>
<polygon fill="#FFAB40" points="31.9,86.2 19.1,86.2 12.8,97.3 19.1,108.3 31.9,108.3 38.2,97.3 "/>
<polygon fill="#FFAB40" points="70,86.2 57.3,86.2 50.9,97.3 57.3,108.3 70,108.3 76.4,97.3 "/>
<path d="M51.3,75.8H37.8l-6.7-11.7l6.7-11.7h13.5L58,64.1L51.3,75.8z M38.6,74.6h12l6-10.4l-6-10.4h-12l-6,10.4L38.6,74.6z"/>
<path d="M51.3,97.9H37.8l-6.7-11.7l6.7-11.7h13.5L58,86.2L51.3,97.9z M38.6,96.6h12l6-10.4l-6-10.4h-12l-6,10.4L38.6,96.6z"/>
<path d="M32.3,108.9H18.8l-6.7-11.7l6.7-11.7h13.5L39,97.3L32.3,108.9z M19.5,107.6h12l6-10.4l-6-10.4h-12l-6,10.4L19.5,107.6z"/>
<path d="M70.4,108.9H56.9l-6.7-11.7l6.7-11.7h13.5l6.7,11.7L70.4,108.9z M57.7,107.6h12l6-10.4l-6-10.4h-12l-6,10.4L57.7,107.6z"/>
<polygon fill="#616161" points="89.8,30.7 77.1,30.7 70.8,41.8 77.1,52.8 89.8,52.8 96.2,41.8 "/>
<polygon fill="#616161" points="70.8,19.7 58.1,19.7 51.8,30.7 58.1,41.8 70.8,41.8 77.2,30.7 "/>
<polygon fill="#616161" points="89.8,52.8 77.1,52.8 70.8,63.8 77.1,74.8 89.8,74.8 96.2,63.8 "/>
<polygon fill="#616161" points="108.8,41.8 96.1,41.8 89.8,52.8 96.1,63.8 108.8,63.8 115.2,52.8 "/>
<path d="M90.2,53.4H76.8L70,41.8l6.7-11.6h13.5l6.7,11.6L90.2,53.4z M77.5,52.2h12l6-10.4l-6-10.4h-12l-6,10.4L77.5,52.2z"/>
<path d="M71.2,42.4H57.7L51,30.7L57.7,19h13.5l6.7,11.7L71.2,42.4z M58.5,41.1h12l6-10.4l-6-10.4h-12l-6,10.4L58.5,41.1z"/>
<path d="M90.2,75.5H76.8L70,63.8l6.7-11.7h13.5l6.7,11.7L90.2,75.5z M77.5,74.2h12l6-10.4l-6-10.4h-12l-6,10.4L77.5,74.2z"/>
<path d="M109.2,64.4H95.8L89,52.8l6.7-11.7h13.5l6.8,11.7L109.2,64.4z M96.5,63.2h12l6-10.4l-6-10.4h-12l-6,10.4L96.5,63.2z"/>
</svg>
