<?xml version="1.0" encoding="utf-8"?>
<!-- Generator: Adobe Illustrator 24.0.0, SVG Export Plug-In . SVG Version: 6.00 Build 0)  -->
<svg version="1.1"
	 id="svg7384" xmlns:cc="http://creativecommons.org/ns#" xmlns:dc="http://purl.org/dc/elements/1.1/" xmlns:osb="http://www.openswatchbook.org/uri/2009/osb" xmlns:rdf="http://www.w3.org/1999/02/22-rdf-syntax-ns#" xmlns:svg="http://www.w3.org/2000/svg" opacity="0.8"
	 xmlns="http://www.w3.org/2000/svg" xmlns:xlink="http://www.w3.org/1999/xlink" x="0px" y="0px" viewBox="0 0 16 16"
	 style="enable-background:new 0 0 16 16;" xml:space="preserve">
<style type="text/css">
	.st0{fill:#1F2022;}
</style>
<g id="path4849-1">
	<path class="st0" d="M11.3,2C12.7,2,14,3.2,14,4.7c0,0.8-0.2,1.4-0.4,2c-1,2.5-3.1,4.7-5.6,7c-2.5-2.3-4.5-4.5-5.6-6.9
		C2.2,6.1,2,5.4,2,4.7C2,3.2,3.3,2,4.8,2c1,0,1.9,0.5,2.4,1.4C7.3,3.7,7.6,3.9,8,3.9c0.4,0,0.7-0.2,0.9-0.5C9.4,2.5,10.3,2,11.3,2
		 M11.3,1C9.9,1,8.6,1.8,8,2.9C7.4,1.8,6.1,1,4.8,1C2.7,1,1,2.6,1,4.7C1,5.6,1.2,6.3,1.5,7C2.7,9.8,5,12.2,8,15c3-2.8,5.3-5.2,6.5-8
		C14.8,6.3,15,5.6,15,4.7C15,2.6,13.3,1,11.3,1L11.3,1z"/>
</g>
</svg>
