<?xml version="1.0" encoding="utf-8"?>
<!-- Generator: Adobe Illustrator 24.0.0, SVG Export Plug-In . SVG Version: 6.00 Build 0)  -->
<svg version="1.1" id="图层_1" xmlns="http://www.w3.org/2000/svg" xmlns:xlink="http://www.w3.org/1999/xlink" x="0px" y="0px"
	 viewBox="0 0 128 128" enable-background="new 0 0 128 128" xml:space="preserve">
<title>gtkam-112</title>
<path fill="#263238" d="M23.6,57.7c-1.7,1-12.5,7.2-12.6,16.7s11.2,19.3,21.4,22.2c19.3,5.5,31.8-11.6,51.5-5.7
	c7.4,2.2,14.9,11.8,16.2,10.6c0.3-0.2,0.4-0.7,0.2-1c-0.1-0.1-0.1-0.2-0.2-0.2c-3.6-2.6-8.3-8.9-16.2-11.2
	c-20.9-6-32.5,11.3-51.5,5.5c-11.3-3.5-20.9-13.7-19.7-20.4s7-11.3,11.6-15.4C24.7,58.4,23.8,57.9,23.6,57.7"/>
<path fill="#E0E0E0" d="M24.5,57.1c-1.7,1-12.5,7.2-12.6,16.7S23.1,93.2,33.2,96c19.3,5.5,31.8-11.6,51.5-5.6
	c7.4,2.2,14.9,11.8,16.3,10.6c0.3-0.2,0.4-0.7,0.2-1c-0.1-0.1-0.1-0.2-0.2-0.2c-3.6-2.6-8.3-8.9-16.2-11.2
	c-20.9-6-32.5,11.3-51.5,5.5C22,90.7,12.4,80.4,13.6,73.7s7-11.3,11.6-15.4C25.6,57.8,24.7,57.3,24.5,57.1L24.5,57.1z"/>
<path fill="#263238" d="M69.7,13C56.8,13,44,15.4,32,20.2c-3.3,1.3-5.5,4.6-5.5,8.1v51.5c0,3.3,2.6,5.9,5.8,5.9h74.5
	c3.3,0,5.9-2.7,5.8-5.9V28.3c0-3.6-2.1-6.8-5.4-8.1C95.3,15.4,82.6,13,69.7,13z"/>
<path fill="#9E9E9E" d="M66.7,11c-12.9,0-25.7,2.4-37.6,7.2c-3.3,1.4-5.5,4.6-5.4,8.1v51.6c0,3.3,2.6,5.9,5.8,6l0,0H104
	c3.3,0,5.9-2.7,5.9-6l0,0V26.4c0-3.6-2.1-6.8-5.4-8.1C92.4,13.4,79.6,11,66.7,11z"/>
<rect x="23.6" y="30.8" fill="#263238" width="24.3" height="45.5"/>
<rect x="23.6" y="30.8" fill="#616161" width="15.4" height="45.5"/>
<rect x="23.6" y="30.8" fill="#E0E0E0" width="9.3" height="45.5"/>
<rect x="23.6" y="30.8" fill="#F5F5F5" width="5.6" height="45.5"/>
<rect x="23.6" y="30.8" fill="#E0E0E0" width="2.7" height="45.5"/>
<rect x="51.3" y="10.5" fill="#CFD8DC" width="30.9" height="11.2"/>
<rect x="52.3" y="11.3" fill="#263238" width="28.8" height="9.6"/>
<rect x="53.5" y="12.2" fill="#F5F5F5" width="26.5" height="7.7"/>
<rect x="53.5" y="12.2" fill="#FFFFFF" width="26.5" height="2.8"/>
<rect x="26.5" y="29.1" fill="#F5F5F5" width="18.7" height="1.7"/>
<rect x="30" y="29.1" fill="#E0E0E0" width="15.1" height="1.7"/>
<rect x="33.6" y="29.1" fill="#616161" width="11.6" height="1.7"/>
<rect x="39.7" y="29.1" fill="#263238" width="5.5" height="1.7"/>
<ellipse fill="#F5F5F5" cx="96.5" cy="53.6" rx="15.9" ry="15.9"/>
<ellipse fill="#263238" cx="96.5" cy="53.6" rx="13.5" ry="13.5"/>
<path fill="#616161" d="M108.7,53.6c0,6.7-5.5,12.2-12.2,12.2s-12.2-5.5-12.2-12.2s5.5-12.2,12.2-12.2c5.4,0,10.1,3.5,11.7,8.7
	C108.5,51.2,108.7,52.4,108.7,53.6z"/>
<rect x="70.5" y="33" fill="#CFD8DC" width="14.1" height="7.7"/>
<rect x="69.6" y="32.1" fill="#263238" width="14.3" height="7.9"/>
<polygon fill="#263238" points="104.5,25.7 101.2,25.7 101.2,22.1 91.8,22.1 91.8,25.7 86.8,25.7 86.8,27.8 91.8,27.8 91.8,31.5 
	101.2,31.5 101.2,27.8 104.5,27.8 "/>
<path fill="#E0E0E0" d="M88.4,22v9.6h16.1V22H88.4z M103.6,30.7H89.3v-7.9h14.3C103.6,22.8,103.6,30.7,103.6,30.7z"/>
<rect x="56.7" y="61.1" fill="#E0E0E0" width="21.6" height="9"/>
<rect x="56.7" y="72.8" fill="#E0E0E0" width="21.6" height="5.2"/>
<path opacity="0.49" fill="#FFFFFF" enable-background="new    " d="M101.9,42.6c-1.2-0.3-2.4-0.5-3.6-0.5
	c-7.1,0-12.8,5.7-12.8,12.8c0,2.4,0.7,4.8,2,6.8c-4.5-5-4.2-12.7,0.8-17.2C92,41.2,97.4,40.4,101.9,42.6z"/>
<path opacity="0.49" fill="#FFFFFF" enable-background="new    " d="M108.7,53.6c0,6.7-5.4,12.2-12.2,12.2c-2.4,0-4.8-0.7-6.8-2
	c1.7,0.9,3.6,1.3,5.5,1.4c7.1,0.2,13-5.5,13.1-12.5c0-0.8,0-1.7-0.2-2.5C108.5,51.2,108.7,52.4,108.7,53.6z"/>
<ellipse transform="matrix(0.7067 -0.7075 0.7075 0.7067 -8.9068 81.7375)" opacity="0.88" fill="#FFFFFF" enable-background="new    " cx="94.1" cy="51.6" rx="5.2" ry="3.1"/>
<circle opacity="0.88" fill="#FFFFFF" enable-background="new    " cx="100.5" cy="57.9" r="1.9"/>
<rect x="66" y="21.7" fill="#FFFFFF" width="1.8" height="2.4"/>
<rect x="73.2" y="21.7" fill="#FFFFFF" width="1.8" height="2.4"/>
<rect x="64" y="24.1" fill="#FFFFFF" width="12.9" height="1.3"/>
<rect x="26.3" y="76.3" fill="#263238" width="18.8" height="1.2"/>
<path fill="#263238" d="M114.6,106.9l-9.1,9.1c0,0-0.1,0-0.2,0l-6.5-6.4c-2.2-2.2-2.2-5.7,0-7.9l1.4-1.4c2.2-2.2,5.7-2.2,7.9,0
	l6.5,6.4C114.7,106.7,114.7,106.8,114.6,106.9C114.7,106.9,114.6,106.9,114.6,106.9z"/>
<rect x="106.8" y="110.9" transform="matrix(0.7057 -0.7085 0.7085 0.7057 -47.1355 112.183)" fill="#263238" width="9.3" height="3.9"/>
<path fill="#9E9E9E" d="M115.5,106.1l-9.1,9.2c0,0-0.1,0.1-0.1,0l0,0l-6.5-6.4c-2.2-2.2-2.2-5.7,0-7.9l1.4-1.4
	c2.2-2.2,5.7-2.2,7.9,0l6.5,6.4C115.6,106,115.6,106.1,115.5,106.1L115.5,106.1z"/>
<rect x="107.7" y="110.1" transform="matrix(0.7057 -0.7085 0.7085 0.7057 -46.3099 112.5729)" fill="#F5F5F5" width="9.3" height="3.9"/>
</svg>
