<?xml version="1.0" encoding="utf-8"?>
<!-- Generator: Adobe Illustrator 24.0.0, SVG Export Plug-In . SVG Version: 6.00 Build 0)  -->
<svg version="1.1" id="图层_1" xmlns="http://www.w3.org/2000/svg" xmlns:xlink="http://www.w3.org/1999/xlink" x="0px" y="0px"
	 viewBox="0 0 128 128" enable-background="new 0 0 128 128" xml:space="preserve">
<title>gufw128</title>
<path fill="#FFFFFF" d="M18.8,5C16.2,17.7,15,30.7,15,43.7c0,57.7,43,79.3,50.2,79.3c6.5,0,47.8-22,47.8-79.3
	c0-24.8-3.8-38.7-3.8-38.7S18.8,5,18.8,5z"/>
<path fill="#1A237E" d="M37.3,103.6C48.9,116.5,61.6,122,65.2,122c6.4,0,47-21.6,47-78c0-4.7-0.1-9-0.4-12.8c0-0.6-0.5-1-1-1
	c-0.3,0-0.5,0.1-0.7,0.3L37.3,103.6z"/>
<path fill="#1A237E" d="M21,6c-0.9,0-1.6,0.6-1.8,1.5c-2.3,12-3.4,24.3-3.4,36.5c0,8.7,1,17.3,3.2,25.7c0.3,1,1.3,1.5,2.2,1.3
	c0.3-0.1,0.6-0.2,0.8-0.4L84.7,7.8c0.4-0.4,0.5-1,0.1-1.4C84.6,6.1,84.3,6,84,6H21z"/>
<path fill="#CCCCCC" d="M104.4,11c1.8,10.8,2.7,21.7,2.6,32.7c0,27.9-10.4,46-19.1,56.3c-9.9,11.6-20.2,16.5-22.7,17
	c-2.6-0.4-13.4-5-24-16.8C32,90,21,71.9,21,43.7c0-11,0.9-21.9,2.7-32.7H104.4 M109.2,5H18.8C16.2,17.7,15,30.7,15,43.7
	c0,57.7,43,79.3,50.2,79.3c6.5,0,47.8-22,47.8-79.3C113,18.9,109.2,5,109.2,5z"/>
</svg>
