<?xml version="1.0" encoding="utf-8"?>
<!-- Generator: Adobe Illustrator 24.0.0, SVG Export Plug-In . SVG Version: 6.00 Build 0)  -->
<svg version="1.1" id="图层_1" xmlns="http://www.w3.org/2000/svg" xmlns:xlink="http://www.w3.org/1999/xlink" x="0px" y="0px"
	 viewBox="0 0 96 96" style="enable-background:new 0 0 96 96;" xml:space="preserve">
<style type="text/css">
	.st0{fill:url(#SVGID_1_);}
	.st1{fill:#FFF800;}
	.st2{opacity:0.2;fill:url(#SVGID_2_);enable-background:new    ;}
	.st3{opacity:0.7;fill:url(#SVGID_3_);enable-background:new    ;}
	.st4{opacity:0.3;fill:#FB6F08;enable-background:new    ;}
	.st5{opacity:0.8;fill:#FB6F08;enable-background:new    ;}
	.st6{opacity:0.6;fill:#FE9905;enable-background:new    ;}
	.st7{fill:url(#SVGID_4_);}
</style>
<linearGradient id="SVGID_1_" gradientUnits="userSpaceOnUse" x1="48" y1="10" x2="48" y2="-74" gradientTransform="matrix(1 0 0 1 0 80)">
	<stop  offset="0" style="stop-color:#4391F7"/>
	<stop  offset="1" style="stop-color:#6A9FF0"/>
</linearGradient>
<path class="st0" d="M15,6h66c5,0,9,4,9,9v66c0,5-4,9-9,9H15c-5,0-9-4-9-9V15C6,10,10,6,15,6z"/>
<circle class="st1" cx="48" cy="48" r="32"/>
<radialGradient id="SVGID_2_" cx="48" cy="48" r="44.7388" fx="28.2922" fy="70.2119" gradientTransform="matrix(1 0 0 -1 0 96)" gradientUnits="userSpaceOnUse">
	<stop  offset="4.774595e-03" style="stop-color:#FFD900"/>
	<stop  offset="0.2814" style="stop-color:#FFC400"/>
	<stop  offset="0.6453" style="stop-color:#FF9100"/>
</radialGradient>
<circle class="st2" cx="48" cy="48" r="32"/>
<radialGradient id="SVGID_3_" cx="48" cy="48" r="41.9426" fx="29.5239" fy="68.8237" gradientTransform="matrix(1 0 0 -1 0 96)" gradientUnits="userSpaceOnUse">
	<stop  offset="4.774595e-03" style="stop-color:#FFD900"/>
	<stop  offset="0.2814" style="stop-color:#FFC400"/>
	<stop  offset="0.6453" style="stop-color:#FF9100"/>
</radialGradient>
<circle class="st3" cx="48" cy="48" r="30"/>
<path class="st4" d="M76.9,62.8c0-0.3,0-0.6,0-0.9c0-6.9-5.6-12.5-12.5-12.5c-4.3,0-8.3,2.2-10.6,5.9c-1.2-0.7-2.5-1-3.8-1
	c-4,0-7.4,3-7.9,7c-3.7,0.8-6.2,4.1-6.2,7.8l0,0c0,4.4,3.6,8,8,8h12.3c3.2,0,13.4-7.4,14.6-11.9l9.2,3.9
	C79.9,66.6,78.8,64.3,76.9,62.8z"/>
<path class="st5" d="M77.9,61.8c0-0.3,0-0.6,0-0.9c0-6.9-5.6-12.5-12.5-12.5c-4.3,0-8.3,2.2-10.6,5.9c-1.2-0.7-2.5-1-3.8-1
	c-4,0-7.4,3-7.9,7c-3.7,0.8-6.2,4.1-6.2,7.8l0,0c0,4.4,3.6,8,8,8h12.3c3.2,0,13.4-7.4,14.6-11.9l9.2,3.9
	C80.9,65.6,79.8,63.3,77.9,61.8z"/>
<path class="st6" d="M77.9,58.8c0-0.3,0-0.6,0-0.9c0-6.9-5.6-12.5-12.5-12.5c-4.3,0-8.3,2.2-10.6,5.9c-1.2-0.7-2.5-1-3.8-1
	c-4,0-7.4,3-7.9,7c-3.7,0.8-6.2,4.1-6.2,7.8l0,0c0,4.4,3.6,8,8,8H73c4.4,0,8-3.6,8-8l0,0C80.9,62.6,79.8,60.3,77.9,58.8z"/>
<linearGradient id="SVGID_4_" gradientUnits="userSpaceOnUse" x1="38.7009" y1="39.8837" x2="81.6764" y2="29.8553" gradientTransform="matrix(1 0 0 -1 0 96)">
	<stop  offset="0.3305" style="stop-color:#FFFFFF"/>
	<stop  offset="1" style="stop-color:#FEE2C3"/>
</linearGradient>
<path class="st7" d="M78.9,59.8c0-0.3,0-0.6,0-0.9c0-6.9-5.6-12.5-12.5-12.5c-4.3,0-8.3,2.2-10.6,5.9c-1.2-0.7-2.5-1-3.8-1
	c-4,0-7.4,3-7.9,7c-3.7,0.8-6.2,4.1-6.2,7.8l0,0c0,4.4,3.6,8,8,8H74c4.4,0,8-3.6,8-8l0,0C81.9,63.6,80.8,61.3,78.9,59.8z"/>
</svg>
