<?xml version="1.0" encoding="utf-8"?>
<!-- Generator: Adobe Illustrator 24.0.0, SVG Export Plug-In . SVG Version: 6.00 Build 0)  -->
<svg version="1.1" id="图层_1" xmlns="http://www.w3.org/2000/svg" xmlns:xlink="http://www.w3.org/1999/xlink" x="0px" y="0px"
	 viewBox="0 0 128 128" enable-background="new 0 0 128 128" xml:space="preserve">
<title>ipython3-qtconsole-112</title>
<path fill="#294249" d="M20,8h88c6.6,0,12,5.4,12,12v88c0,6.6-5.4,12-12,12H20c-6.6,0-12-5.4-12-12V20C8,13.4,13.4,8,20,8z"/>
<path fill="#467BAD" d="M79.3,54.8V71c0,3.5-2.8,6.3-6.3,6.3H54.3c-3.5,0-6.3,2.8-6.3,6.3c0,0,0,0,0,0v9.3c-0.4,0.1-0.8,0.1-1.2,0.2
	h-0.6c-6.7,0-12.2-6.4-12.2-14.4c0-0.3,0-0.5,0-0.8c0.1-2.9,1-5.7,2.6-8.1c1.7-2.5,4.4-4.2,7.4-4.7h0.1c0.5-0.1,1.1-0.1,1.6-0.1
	h19.7v-2.5h-15v-8.3c0-0.4,0.1-0.8,0.4-1.1l0,0c0.3-0.6,0.7-1.1,1.2-1.5c2.9-1.9,6.2-3.1,9.7-3.4c2.1-0.2,4.1-0.2,6.2,0l0,0
	c4.3,0.5,7.9,1.9,10.2,3.8c0.3,0.3,0.6,0.7,0.7,1l0,0C79.1,53.6,79.3,54.2,79.3,54.8z"/>
<circle fill="#FFFFFF" cx="56.6" cy="55.8" r="2.9"/>
<path fill="#FADD4B" d="M48.7,101.5V85.3c0-3.5,2.8-6.3,6.3-6.3c0,0,0,0,0,0h18.7c3.5,0,6.3-2.9,6.3-6.3c0,0,0,0,0-0.1v-9.3
	c0.4-0.1,0.8-0.1,1.2-0.1h0.6c6.7,0,12.2,6.4,12.2,14.3c0,0.3,0,0.6,0,0.8c-0.1,2.9-1,5.7-2.6,8.1C89.7,89,87,90.7,84,91.1h-0.1
	c-0.5,0.1-1.1,0.1-1.6,0.1H62.6v2.5h15v8.3c0,0.4-0.1,0.8-0.4,1.1l0,0c-0.3,0.6-0.7,1.1-1.2,1.5c-2.9,1.9-6.2,3.1-9.7,3.4
	c-2.1,0.2-4.2,0.2-6.2,0l0,0c-4.3-0.5-7.9-1.9-10.2-3.8c-0.3-0.3-0.5-0.6-0.7-1l0,0C48.8,102.7,48.7,102.1,48.7,101.5z"/>
<circle fill="#FFFFFF" cx="71.4" cy="100.4" r="2.9"/>
<circle fill="#FAD940" cx="64" cy="32.5" r="12.7"/>
</svg>
