<?xml version="1.0" encoding="utf-8"?>
<!-- Generator: Adobe Illustrator 24.0.0, SVG Export Plug-In . SVG Version: 6.00 Build 0)  -->
<svg version="1.1" id="图层_1" xmlns="http://www.w3.org/2000/svg" xmlns:xlink="http://www.w3.org/1999/xlink" x="0px" y="0px"
	 viewBox="0 0 128 128" enable-background="new 0 0 128 128" xml:space="preserve">
<title>jester-112</title>
<path fill="#DCEDC8" d="M61.3,73.2c0,2.1,0.1,3.3,0.2,4.9h-2.2h-0.8c-3,0-5.8,0.1-8.5,0.2c0.5-1.7,0.8-3.4,1.1-5.1
	c0.4-3,0.5-6,0.3-9c0-0.3,0-0.5,0-0.8s0-0.3,0-0.4c0-0.6-0.1-1.3-0.1-1.8l-0.1-0.6c0-0.1,0-0.2,0-0.3s0-0.4-0.1-0.6
	c0-0.1,0-0.2,0-0.3c0-0.2,0-0.3-0.1-0.5c0,0,0,0,0-0.1c0-0.1,0-0.3-0.1-0.4s0-0.2-0.1-0.4s-0.1-0.3-0.1-0.5s-0.1-0.3-0.1-0.4v-0.1
	l-0.1-0.3c0-0.1-0.1-0.3-0.1-0.4s-0.1-0.3-0.1-0.4c0-0.1-0.1-0.2-0.1-0.3c0-0.1,0-0.1-0.1-0.2c-0.1-0.4-0.3-0.8-0.5-1.2
	c-1.5-3.3-3.8-6.1-6.7-8.2l-0.3-0.2l0,0l-0.3-0.2l-0.7-0.5l-0.3-0.2c-0.3-0.2-0.6-0.4-1-0.6L39.9,44c-0.3-0.2-0.7-0.3-1-0.5
	l-0.4-0.2c-0.9-0.4-1.9-0.7-2.8-0.9c-2.8-0.6-5.6-0.4-8.3,0.5c-3,1-5.6,2.9-7.6,5.4c-1.9,2.4-3.3,5.2-4.1,8.1
	c-1.4,4.4-2.2,9-2.4,13.6c-0.3-0.8-0.5-1.6-0.6-2.5c-1.9-7.8,0.2-16.1,5.4-22.2c2.5-3.4,5.7-6.1,9.4-7.9c7-3.2,13.7-1.5,16.4-0.8
	c2.6,0.7,5.2,1.7,7.6,3c4,2.1,7.2,5.5,9.2,9.5c0.8,1.7,1.4,3.6,1.7,5.5c0.2,1.3,0.3,2.6,0.4,3.9c0.3,5.8-1.5,6.8-1.5,14.5V73.2z"/>
<path fill="#7C4DFF" d="M51,73.2c-0.2,1.7-0.6,3.4-1,5.1c-11,0.7-19,2.4-19,4.6l0,0c0-1,0.3-2,0.8-2.9c1-2.1,1.8-4.6,2.6-6.8
	c1.9-5.4,2.4-5.8,3-8.5c0.6-2.9,0.5-5.9-0.3-8.7c-0.2-0.7-0.6-1.5-1-2.1c-0.7-1-1.5-2-2.5-2.8c-1.2-1-2.7-1.7-4.3-1.9
	c-2.2-0.3-4.4,0.2-6.3,1.4c-3.4,1.9-4.8,5-6.4,8.4c-1,2.3-1.8,4.6-2.4,7.1c-0.4,1.5-0.6,2.9-0.8,4.4L13.3,70c0.2-4.6,1-9.2,2.4-13.6
	c0.8-3,2.2-5.7,4.1-8.1c2-2.5,4.6-4.3,7.6-5.4c2.7-0.9,5.5-1.1,8.3-0.5c1.5,0.3,2.9,0.8,4.2,1.5c1,0.6,1.9,1.2,2.8,1.9
	c2.9,2.1,5.2,5,6.7,8.2c1,2.3,1.6,4.7,1.7,7.1c0.1,0.9,0.1,1.9,0.2,3C51.6,67.3,51.5,70.3,51,73.2z"/>
<path fill="#E64A19" d="M104.5,69.9c-0.7-1.4-1.3-2.9-2-4.4c-1.9-4.4-1.4-5.8-3.1-8.7c-0.3-0.5-0.6-1.1-1-1.7
	c-0.9-1.5-2.2-2.7-3.8-3.4c-1.9-0.8-4-0.9-6-0.2c-4.1,1.3-5.9,5.1-6.4,6.1c-1.4,3.1-2.1,6.5-1.8,9.9c0,3,0.7,5.9,2,8.5
	c1.2,2.9,2.6,3.8,3.3,6.1c0,0.1,0.1,0.2,0.1,0.4c-1.3-1.6-7.1-3-15.1-3.7c0-0.4,0-0.9-0.1-1.3c0-0.2,0-0.3,0-0.4s0-0.6,0-0.8
	c0,0,0-0.1,0-0.1v-0.4c0-0.5,0-1,0-1.5v-1.3c0-0.5,0-1,0-1.5c0-5,0-7.5,1-10.8c0.9-3.1,2.3-6,4.1-8.6c1.6-2.5,2.8-4.3,5.2-5.8
	c1.7-1.2,3.7-2,5.8-2.3c3.2-0.3,6.5,0.6,9.1,2.5c2.6,1.8,4.2,4.3,5.7,8.1l0.2,0.5c0.1,0.2,0.1,0.3,0.2,0.5s0.1,0.3,0.2,0.5l0.2,0.6
	c0,0.2,0.1,0.3,0.1,0.4s0.1,0.3,0.1,0.4s0.1,0.3,0.1,0.4s0.1,0.3,0.1,0.4l0.1,0.4c0.1,0.3,0.2,0.6,0.2,0.9s0.1,0.3,0.1,0.5
	c0.1,0.5,0.2,0.9,0.3,1.4c0,0.2,0.1,0.3,0.1,0.5c0.1,0.5,0.2,1,0.3,1.5c0,0.2,0,0.3,0.1,0.5l0.2,1c0,0.1,0,0.3,0.1,0.4
	s0.1,0.5,0.1,0.7l0.1,0.8l0,0c0,0.3,0.1,0.5,0.1,0.8s0,0.3,0,0.4v0.4c0,0.1,0,0.1,0,0.2s0,0.4,0,0.6s0,0.2,0,0.3L104.5,69.9z"/>
<path fill="#FFF9C4" d="M104.6,70.1c0-0.1-0.1-0.2-0.1-0.2c0-0.3,0-0.5,0-0.8s0-0.4,0-0.6s0-0.1,0-0.2c0-0.3,0-0.5-0.1-0.8
	s0-0.5-0.1-0.8l0,0l-0.1-0.8c0-0.2-0.1-0.5-0.1-0.7s0-0.3-0.1-0.4l-0.2-1c0-0.2,0-0.3-0.1-0.5c-0.1-0.5-0.2-1-0.3-1.5
	c0-0.2-0.1-0.3-0.1-0.5c-0.1-0.6-0.3-1.2-0.4-1.8c-0.1-0.3-0.2-0.6-0.2-0.9l-0.1-0.4c-0.1-0.3-0.2-0.6-0.3-0.9s-0.1-0.3-0.1-0.4
	s-0.1-0.3-0.1-0.4c-0.1-0.4-0.3-0.8-0.4-1.2c-0.1-0.2-0.1-0.3-0.2-0.5l-0.2-0.5c-1.5-3.8-3.1-6.3-5.7-8.1c-2.6-1.9-5.9-2.8-9.1-2.5
	c-2.1,0.3-4.2,1-5.9,2.3c-2.3,1.6-3.6,3.4-5.2,5.8c-1.8,2.6-3.2,5.5-4.1,8.6c-0.9,3.3-1,5.8-1,10.8c0,0.5,0,1,0,1.5V74
	c0,0.5,0,1,0,1.5v0.4c0,0,0,0.1,0,0.1c0,0.3,0,0.6,0,0.8s0,0.3,0,0.4c0,0.4,0,0.9,0.1,1.3c-2.8-0.2-5.8-0.4-9.1-0.5
	c0-1.6-0.2-2.8-0.2-4.9v-0.4c0-7.6,1.8-8.7,1.5-14.5c-0.1-1.3-0.2-2.6-0.4-3.9c0.3-0.7,0.5-1.4,0.8-2.1c0.6-1.8,1.4-3.5,2.3-5.1
	c0.9-1.6,2.1-3.1,3.4-4.5c2.2-2.3,4.9-4.1,7.9-5.3c7.6-3.4,16.6-1.3,21.8,5.1c0.6,0.7,1.2,1.5,1.7,2.3l0,0c1.5,2.6,2.6,5.5,3.3,8.5
	c1.4,5.4,1.7,11.1,0.9,16.6L104.6,70.1z"/>
<path fill="#FADD60" d="M85.4,88.6L85.4,88.6c-0.1-0.9-2.6-1.8-6.6-2.4c-2-0.3-4.5-0.6-7.2-0.8l0,0c-3.1-0.2-6.7-0.4-10.4-0.4h-2.5
	c-3.9,0-7.7,0.1-11,0.3c-3.6,0.2-6.7,0.6-9.3,1c-4,0.7-6.5,1.5-6.5,2.5c0,0.1,0,0.1,0,0.2c0,0,0-0.1,0-0.1c0-0.9-0.1-1.8-0.2-2.7
	c-0.3-1-0.5-2.1-0.7-3.2v-0.1c0-2.2,8-4,19-4.6c2.7-0.2,5.5-0.2,8.5-0.2h0.8h2.2c3.2,0.1,6.3,0.2,9.1,0.5c8,0.7,13.8,2,15.1,3.7l0,0
	c0.2,0.2,0.3,0.5,0.3,0.8c0,0.1,0,0.2-0.1,0.3C86.2,85.1,86,86.9,85.4,88.6z"/>
<path fill="#F5A816" d="M85.4,88.7c0,0.2-0.1,0.4-0.2,0.5c-1,1.1-5.5,2.1-11.8,2.7l0,0c-3.5,0.3-7.5,0.5-11.8,0.6h-2.9
	c-14.2,0-25.9-1.6-26.7-3.6l0,0l0,0c0-0.1,0-0.1,0-0.2c0-1,2.4-1.8,6.5-2.5c2.5-0.4,5.7-0.8,9.3-1c3.4-0.2,7.1-0.3,11-0.3h2.5
	c3.8,0,7.3,0.2,10.4,0.4l0,0c2.7,0.2,5.2,0.5,7.2,0.8C82.8,86.9,85.3,87.7,85.4,88.7L85.4,88.7C85.4,88.7,85.4,88.7,85.4,88.7z"/>
<path fill="#388E3C" d="M115.3,70.1c-0.1,1.4-0.3,2.9-0.7,4.3c-0.4-2-1-3.9-1.8-5.8c-0.9-2.5-2.3-4.8-4-6.8
	c-1.3-1.5-2.7-2.8-4.3-3.9c-0.2-1.5-0.5-3-0.9-4.4c-0.6-3-1.7-5.9-3.2-8.5c2,0.7,3.8,1.7,5.5,3c6.1,4.7,7.8,11.5,8.6,14.4
	C115.1,64.9,115.4,67.5,115.3,70.1z"/>
<path fill="#388E3C" d="M98.4,55c-0.9-0.2-1.8-0.4-2.7-0.5c-1.7-0.1-6.5-0.5-10.1,2.9C84,59,82.9,61,82.4,63.1
	c-1.1,4-0.2,7.5,1.1,12.2c0.6,2.3,1.3,4.5,2.3,6.7h-0.1c-0.7-2.2-2.2-3.1-3.3-6.1c-1.3-2.7-2-5.6-2-8.5c-0.2-3.4,0.4-6.8,1.8-9.9
	c0.4-1,2.3-4.8,6.4-6.1c2-0.6,4.1-0.5,6,0.2C96.1,52.4,97.4,53.5,98.4,55z"/>
<path fill="#33691E" d="M37,56l-1,0.7c-1.9,1.5-3.6,3.3-5,5.3c-1.2,1.5-2.2,3.1-3.2,4.8c0.3-2.3,0.7-4.6,1.5-6.8
	c1-3.1,2.4-6.1,4.3-8.9c0.9,0.8,1.8,1.7,2.4,2.7C36.4,54.5,36.8,55.2,37,56z"/>
<path fill="#33691E" d="M65.5,47.3c-0.9,1.6-1.7,3.3-2.3,5.1c-0.3,0.7-0.5,1.4-0.8,2.1c-0.3-1.9-0.9-3.7-1.7-5.5
	c-2-4-5.2-7.4-9.2-9.5c0.3,0,0.7,0,1,0.1c1.5,0.2,3.1,0.6,4.5,1.2c2.7,1.1,5.2,2.7,7.2,4.9C64.7,46.3,65.1,46.8,65.5,47.3z"/>
<ellipse fill="#FBC02D" cx="13.3" cy="68.1" rx="5.8" ry="5.9"/>
<ellipse fill="#FBC02D" cx="29.4" cy="64.1" rx="5.8" ry="5.9"/>
<ellipse fill="#FBC02D" cx="103.1" cy="68.8" rx="5.8" ry="5.9"/>
<ellipse fill="#FBC02D" cx="114.7" cy="72.7" rx="5.8" ry="5.9"/>
</svg>
