<?xml version="1.0" encoding="utf-8"?>
<!-- Generator: Adobe Illustrator 24.0.0, SVG Export Plug-In . SVG Version: 6.00 Build 0)  -->
<svg version="1.1" id="图层_2" opacity="0.8" xmlns="http://www.w3.org/2000/svg" xmlns:xlink="http://www.w3.org/1999/xlink"
	 x="0px" y="0px" viewBox="0 0 16 16" style="enable-background:new 0 0 16 16;" xml:space="preserve">
<style type="text/css">
	.st0{fill:none;stroke:#000000;stroke-width:2;stroke-linecap:round;stroke-miterlimit:10;}
</style>
<g>
	<path d="M12,3c0.6,0,1,0.4,1,1v8c0,0.6-0.4,1-1,1H4c-0.6,0-1-0.4-1-1V4c0-0.6,0.4-1,1-1H12 M12,2H4C2.9,2,2,2.9,2,4v8
		c0,1.1,0.9,2,2,2h8c1.1,0,2-0.9,2-2V4C14,2.9,13.1,2,12,2L12,2z"/>
</g>
<g>
	<path d="M11,5v6H5V5H11 M11,4H5C4.4,4,4,4.4,4,5v6c0,0.6,0.4,1,1,1h6c0.6,0,1-0.4,1-1V5C12,4.4,11.6,4,11,4L11,4z"/>
</g>
<g>
	<g>
		<line class="st0" x1="5" y1="1" x2="5" y2="2"/>
	</g>
	<g>
		<line class="st0" x1="8" y1="1" x2="8" y2="2"/>
	</g>
	<g>
		<line class="st0" x1="11" y1="1" x2="11" y2="2"/>
	</g>
	<g>
		<line class="st0" x1="5" y1="14" x2="5" y2="15"/>
	</g>
	<g>
		<line class="st0" x1="8" y1="14" x2="8" y2="15"/>
	</g>
	<g>
		<line class="st0" x1="11" y1="14" x2="11" y2="15"/>
	</g>
</g>
<g>
	<g>
		<line class="st0" x1="1" y1="11" x2="2" y2="11"/>
	</g>
	<g>
		<line class="st0" x1="1" y1="8" x2="2" y2="8"/>
	</g>
	<g>
		<line class="st0" x1="1" y1="5" x2="2" y2="5"/>
	</g>
	<g>
		<line class="st0" x1="14" y1="11" x2="15" y2="11"/>
	</g>
	<g>
		<line class="st0" x1="14" y1="8" x2="15" y2="8"/>
	</g>
	<g>
		<line class="st0" x1="14" y1="5" x2="15" y2="5"/>
	</g>
</g>
</svg>
