<svg id="图层_2" data-name="图层 2" xmlns="http://www.w3.org/2000/svg" viewBox="0 0 16 16"><defs><style>.cls-1{opacity:0.75;}.cls-2{fill:#1f2022;}.cls-3{fill:none;stroke:#1f2022;stroke-linecap:round;stroke-miterlimit:10;stroke-width:2px;}</style></defs><g class="cls-1"><path class="cls-2" d="M12,3a.94.94,0,0,1,1,1v8a.94.94,0,0,1-1,1H4a.94.94,0,0,1-1-1V4A.94.94,0,0,1,4,3h8m0-1H4A2,2,0,0,0,2,4v8a2,2,0,0,0,2,2h8a2,2,0,0,0,2-2V4a2,2,0,0,0-2-2Z"/><path class="cls-2" d="M11,5v6H5V5h6m0-1H5A.94.94,0,0,0,4,5v6a.94.94,0,0,0,1,1h6a.94.94,0,0,0,1-1V5a.94.94,0,0,0-1-1Z"/><line class="cls-3" x1="5" y1="1" x2="5" y2="2"/><line class="cls-3" x1="8" y1="1" x2="8" y2="2"/><line class="cls-3" x1="11" y1="1" x2="11" y2="2"/><line class="cls-3" x1="5" y1="14" x2="5" y2="15"/><line class="cls-3" x1="8" y1="14" x2="8" y2="15"/><line class="cls-3" x1="11" y1="14" x2="11" y2="15"/><line class="cls-3" x1="1" y1="11" x2="2" y2="11"/><line class="cls-3" x1="1" y1="8" x2="2" y2="8"/><line class="cls-3" x1="1" y1="5" x2="2" y2="5"/><line class="cls-3" x1="14" y1="11" x2="15" y2="11"/><line class="cls-3" x1="14" y1="8" x2="15" y2="8"/><line class="cls-3" x1="14" y1="5" x2="15" y2="5"/></g></svg>