<?xml version="1.0" encoding="utf-8"?>
<!-- Generator: Adobe Illustrator 24.0.0, SVG Export Plug-In . SVG Version: 6.00 Build 0)  -->
<svg version="1.1" id="图层_1" xmlns="http://www.w3.org/2000/svg" xmlns:xlink="http://www.w3.org/1999/xlink" x="0px" y="0px"
	 viewBox="0 0 128 128" enable-background="new 0 0 128 128" xml:space="preserve">
<title>kbruch128</title>
<rect x="5" y="17.4" fill="#E6B76F" width="118" height="93.2"/>
<rect x="13.3" y="24.5" fill="#454D52" width="101.4" height="79.2"/>
<path fill="#736357" d="M11.2,22.5v83.3h105.6V22.5H11.2z M114.7,103.7H13.3V24.5h101.4V103.7z"/>
<path fill="#FFFFFF" d="M74.6,99.3H86c1.1,0,2.1,0.9,2.1,2.1l0,0c0,1.1-0.9,2.1-2.1,2.1H74.6c-1.1,0-2.1-0.9-2.1-2.1l0,0
	C72.5,100.2,73.5,99.3,74.6,99.3z"/>
<path fill="#0071BC" d="M93.5,99.3h11.4c1.1,0,2.1,0.9,2.1,2.1l0,0c0,1.1-0.9,2.1-2.1,2.1H93.5c-1.1,0-2.1-0.9-2.1-2.1l0,0
	C91.4,100.2,92.4,99.3,93.5,99.3z"/>
<path fill="#FFFFFF" d="M97.6,73.9c-0.4,0-0.7-0.1-1.1-0.2c-0.3-0.1-0.7-0.2-1.1-0.2c-0.5,0-1.3,0-2.4,0.1s-1.8,0.1-2.4,0.1
	c-0.6,0-1.2,0.1-1.8,0.2c-0.6,0.1-1.2,0.1-1.8,0.2c-0.2,0-0.3,0-0.5-0.1c-0.2,0-0.3-0.1-0.5-0.1c-0.6,0-1.2-0.4-1.4-1
	c-0.1-0.6-0.2-1.2-0.2-1.8c-0.1-2.1,0.6-4.2,2-5.8c1.5-1.4,3.1-2.6,4.8-3.7c1.1-0.7,2-1.5,2.9-2.4c0.9-0.9,1.3-2.2,1.3-3.5
	c-0.1-0.8-0.6-1.4-1.3-1.8c-0.7-0.4-1.4-0.7-2.2-0.7c-1,0-1.9,0.3-2.7,0.8l-2.2,1.7c-0.3,0.3-0.7,0.5-1.1,0.5
	c-1.1,0-1.6-0.4-1.6-1.3c0-0.5,0.2-0.9,0.6-1.3c0.9-0.9,2-1.8,3.1-2.5c1.2-0.7,2.5-1,3.8-1.1c1.6,0,3.1,0.5,4.4,1.4
	c1.4,0.8,2.2,2.3,2.2,3.9c0,1-0.1,2-0.4,2.9c-0.3,0.9-0.8,1.7-1.4,2.5c-1.1,1.2-2.5,2.3-3.9,3.1c-1.4,0.8-2.6,1.7-3.8,2.8
	c-1.1,1.1-1.7,2.7-1.7,4.3l3.2-0.3c2.2-0.1,3.7-0.2,4.7-0.2c0.8,0,1.5,0.1,2.2,0.4c0.9,0.4,1.4,0.8,1.4,1.5c0,0.4-0.1,0.8-0.4,1.1
	C98.4,73.7,98,73.9,97.6,73.9z"/>
<path fill="#FFFFFF" d="M40.3,57.2c-2.2,0.2-4.4-0.9-5.6-2.8c-1.1-1.8-1.6-4-1.5-6.1c0-4.8,2.1-9.3,5.8-12.4l1.4-1.4
	c0.7-0.6,1.2-1,1.5-1c0.4,0,0.7,0.1,1,0.4c0.3,0.3,0.4,0.6,0.5,1c0,0.3-0.5,1-1.5,2l-3,2.9c-0.9,1-1.6,2.3-2,3.6
	c0.7-0.3,1.4-0.6,2.2-0.9c0.5-0.2,1-0.3,1.5-0.3c1.9-0.1,3.8,0.5,5.2,1.8c1.3,1.4,1.9,3.2,1.8,5.1c0.1,2.1-0.6,4.1-2,5.7
	C44.3,56.4,42.3,57.2,40.3,57.2z M40.3,45.3c-0.8,0-1.5,0.1-2.2,0.4c-0.3,0.1-0.9,0.5-1.9,1.1c-0.1,0.5-0.1,1-0.1,1.5
	c-0.1,1.5,0.2,2.9,0.9,4.2c0.6,1.3,2,2.1,3.4,2.1c1.3,0.1,2.6-0.5,3.4-1.6c0.8-1.1,1.2-2.5,1.1-3.8c0.1-1.1-0.3-2.2-1.2-3
	C42.7,45.5,41.5,45.2,40.3,45.3z"/>
<path fill="#FFFFFF" d="M40.4,90.5c-1.4,0-2.7-0.3-3.9-0.9c-1.2-0.6-2.2-1.7-2.6-3c-0.1-0.2-0.1-0.3-0.1-0.5c0-0.4,0.1-0.8,0.5-1
	c0.3-0.3,0.6-0.4,1-0.4c0.4,0,0.8,0.2,1,0.5l0.7,1c0.4,0.5,0.8,0.9,1.4,1.1c0.7,0.2,1.4,0.4,2.1,0.3c1,0,2-0.3,2.8-1
	c0.8-0.6,1.3-1.6,1.3-2.6c0-1.4-0.6-2.7-1.6-3.5c-1.1-0.8-2.4-1.2-3.8-1.3c-1.1-0.1-1.6-0.6-1.6-1.3c0-0.6,0.4-1,1.3-1.3l3.5-0.8
	c0.6-0.2,1.1-0.5,1.5-1c0.3-0.4,0.5-1,0.5-1.5c0-0.8-0.3-1.6-1-2.1c-0.9-0.6-1.9-0.9-3-0.8c-0.7,0-1.3,0.2-1.9,0.5l-1.6,1
	c-0.2,0.2-0.5,0.3-0.8,0.3c-0.4,0-0.8-0.2-1-0.4c-0.3-0.3-0.4-0.6-0.4-1c0-0.8,0.7-1.5,2.2-2.2c1-0.5,2.1-0.9,3.2-0.9
	c1.8-0.1,3.5,0.4,5,1.4c1.3,1,2.1,2.6,2,4.2c0,2.3-0.9,3.8-2.8,4.5l-0.6,0.2c1.2,0.4,2.2,1.1,2.9,2.1c0.7,1,1,2.3,1,3.5
	c0,1.8-0.7,3.6-2,4.8C44.1,89.8,42.3,90.5,40.4,90.5z"/>
<path fill="#FFFFFF" d="M26.3,62.5c-1.6,0.2-2.2,2.3-1,2.7c1.4,0.5,29.8-1,30.8-1.2c0.8-0.2,0.8-3.5-0.6-3.2S28.9,62.3,26.3,62.5z"
	/>
<path fill="#FFFFFF" d="M76.7,58.1c0.8-0.2,1.1-2.3,0.5-2.7s-15,1-15.5,1.2s-0.4,3.5,0.3,3.2S75.4,58.3,76.7,58.1z"/>
<path fill="#FFFFFF" d="M62.2,65.9c-0.8,0.2-1.1,2.3-0.5,2.7s15-1,15.5-1.2s0.4-3.5-0.3-3.2S63.5,65.7,62.2,65.9z"/>
</svg>
