<?xml version="1.0" encoding="utf-8"?>
<!-- Generator: Adobe Illustrator 24.0.0, SVG Export Plug-In . SVG Version: 6.00 Build 0)  -->
<svg version="1.1" id="图层_1" xmlns="http://www.w3.org/2000/svg" xmlns:xlink="http://www.w3.org/1999/xlink" x="0px" y="0px"
	 viewBox="0 0 128 128" enable-background="new 0 0 128 128" xml:space="preserve">
<title>kiki-the-nano-bot-112</title>
<path fill="#2F2F98" d="M117.6,55.4c-0.9-7.3-3.5-14.2-7.6-20.3l0,0c-0.8-1.2-1.7-2.3-2.6-3.4c-6.2-7.3-14.4-11.5-22.9-10.7
	c-15.6,1.5-26,19.4-23.2,39.9s17.5,35.9,33.1,34.4c9.1-0.9,16.5-7.4,20.4-16.8c0.9-2.2,1.6-4.4,2.1-6.7
	C118.1,66.4,118.3,60.9,117.6,55.4z M89,75.7c-3.1,0.3-6.5-6.1-7.6-14.4S82,46.2,85,45.9s6.5,6.1,7.6,14.4S92.1,75.4,89,75.7z"/>
<linearGradient id="SVGID_1_" gradientUnits="userSpaceOnUse" x1="80.2148" y1="34.17" x2="80.2148" y2="92.26" gradientTransform="matrix(1 0 0 -1 0 128)">
	<stop  offset="0" style="stop-color:#8E4600"/>
	<stop  offset="0.58" style="stop-color:#E49C1D"/>
	<stop  offset="1" style="stop-color:#8E4600"/>
</linearGradient>
<path fill="url(#SVGID_1_)" d="M97.9,61c-0.3,0.9-0.7,1.9-1.2,2.9c-2,4.9-4.8,9.5-8.2,13.6c-5.1,6-6.2,7.3-10,9.8
	c-3,2.1-6.2,3.8-9.6,5.1c-1.3,0.6-2.6,1-4,1.4c0.8-1.5,1.4-3.1,2-4.7c1-2.7,1.7-5.5,2.3-8.3c1.2-6.7,1.5-13.5,0.7-20.2
	C69,51.9,66.3,43.4,62,35.7c2.2,0.2,4.4,0.5,5.7,0.7c3.5,0.5,6.8,1.5,10,3c3.4,1.5,6.6,3.3,9.6,5.4c2.7,1.8,5.3,3.8,7.8,6
	C98,53.3,99.2,57.3,97.9,61z"/>
<path fill="#2F2F98" d="M69.9,60.6C69,51.9,66.3,43.4,62,35.7l-0.1-0.2l0,0c-0.8-1.5-1.8-2.9-2.8-4.3c-6.5-9-15.2-14.2-24.2-13.2
	C18.5,20,7.6,42,10.5,67.4s18.5,44.3,34.9,42.5c8.3-0.9,15.2-7,19.6-16c0.8-1.5,1.4-3.1,2-4.7c1-2.7,1.7-5.5,2.3-8.3
	C70.5,74.2,70.7,67.4,69.9,60.6z M39.7,85.7c-3.2,0.4-6.8-7.6-8-17.8s0.5-18.7,3.8-19.1s6.8,7.6,8,17.8S43,85.3,39.7,85.7z"/>
<linearGradient id="SVGID_2_" gradientUnits="userSpaceOnUse" x1="37.6281" y1="42.3176" x2="37.6281" y2="79.1924" gradientTransform="matrix(1 0 0 -1 0 128)">
	<stop  offset="0" style="stop-color:#171500"/>
	<stop  offset="0.1" style="stop-color:#392300"/>
	<stop  offset="0.24" style="stop-color:#673600"/>
	<stop  offset="0.36" style="stop-color:#834200"/>
	<stop  offset="0.42" style="stop-color:#8E4600"/>
	<stop  offset="0.68" style="stop-color:#5C3100"/>
	<stop  offset="1" style="stop-color:#171500"/>
</linearGradient>
<path fill="url(#SVGID_2_)" d="M39.7,85.7c-3.3,0.4-6.8-7.6-8-17.8s0.5-18.7,3.8-19.1s6.8,7.6,8,17.8S43,85.3,39.7,85.7z"/>
</svg>
