<?xml version="1.0" encoding="utf-8"?>
<!-- Generator: Adobe Illustrator 24.0.0, SVG Export Plug-In . SVG Version: 6.00 Build 0)  -->
<svg version="1.1" id="图层_1" xmlns="http://www.w3.org/2000/svg" xmlns:xlink="http://www.w3.org/1999/xlink" x="0px" y="0px"
	 viewBox="0 0 128 128" enable-background="new 0 0 128 128" xml:space="preserve">
<title>kmplayer128</title>
<path fill="#172226" d="M20,8h88c6.6,0,12,5.4,12,12v88c0,6.6-5.4,12-12,12H20c-6.6,0-12-5.4-12-12V20C8,13.4,13.4,8,20,8z"/>
<path fill="#506C77" d="M19,96H33c1.6,0,3,1.3,3,2.9v3.1c0,1.6-1.3,2.9-3,2.9H19c-1.6,0-3-1.3-3-2.9v-3.1C16,97.3,17.3,96,19,96z"/>
<path fill="#506C77" d="M19,77H33c1.6,0,3,1.3,3,2.9v3.1c0,1.6-1.3,2.9-3,2.9H19c-1.6,0-3-1.3-3-2.9v-3.1C16,78.3,17.3,77,19,77z"/>
<path fill="#506C77" d="M19,58H33c1.6,0,3,1.3,3,3v3.1c0,1.6-1.3,2.9-3,2.9H19c-1.6,0-3-1.3-3-2.9V61C16,59.3,17.3,58,19,58z"/>
<path fill="#506C77" d="M19,39H33c1.6,0,3,1.3,3,3V45c0,1.6-1.3,3-3,3H19c-1.6,0-3-1.3-3-3V42C16,40.3,17.3,39,19,39z"/>
<path fill="#506C77" d="M19,20H33c1.6,0,3,1.3,3,3V26c0,1.6-1.3,3-3,3H19c-1.6,0-3-1.3-3-3V23C16,21.3,17.3,20,19,20z"/>
<path fill="#506C77" d="M94.9,96h14.1c1.6,0,2.9,1.3,2.9,2.9v3.1c0,1.6-1.3,2.9-2.9,2.9H94.9c-1.6,0-2.9-1.3-2.9-2.9v-3.1
	C92,97.3,93.3,96,94.9,96z"/>
<path fill="#506C77" d="M94.9,77h14.1c1.6,0,2.9,1.3,2.9,2.9v3.1c0,1.6-1.3,2.9-2.9,2.9H94.9c-1.6,0-2.9-1.3-2.9-2.9v-3.1
	C92,78.3,93.3,77,94.9,77z"/>
<path fill="#506C77" d="M94.9,58h14.1c1.6,0,2.9,1.3,2.9,3v3.1c0,1.6-1.3,2.9-2.9,2.9H94.9c-1.6,0-2.9-1.3-2.9-2.9V61
	C92,59.3,93.3,58,94.9,58z"/>
<path fill="#506C77" d="M94.9,39h14.1c1.6,0,2.9,1.3,2.9,3V45c0,1.6-1.3,3-2.9,3H94.9c-1.6,0-2.9-1.3-2.9-3V42
	C92,40.3,93.3,39,94.9,39z"/>
<path fill="#506C77" d="M94.9,20h14.1c1.6,0,2.9,1.3,2.9,3V26c0,1.6-1.3,3-2.9,3H94.9c-1.6,0-2.9-1.3-2.9-3V23
	C92,21.3,93.3,20,94.9,20z"/>
<polygon fill="#FF3333" points="64,42.5 69.6,59 86.9,59 73.1,69.5 78.1,86 64,76.2 49.8,86 54.8,69.5 41,59 58.3,59 "/>
<linearGradient id="SVGID_1_" gradientUnits="userSpaceOnUse" x1="64" y1="120" x2="64" y2="8" gradientTransform="matrix(1 0 0 -1 0 128)">
	<stop  offset="0" style="stop-color:#F2F2F2"/>
	<stop  offset="1" style="stop-color:#1D3749"/>
</linearGradient>
<path opacity="0.2" fill="url(#SVGID_1_)" enable-background="new    " d="M20,8h88c6.6,0,12,5.4,12,12v88c0,6.6-5.4,12-12,12H20
	c-6.6,0-12-5.4-12-12V20C8,13.4,13.4,8,20,8z"/>
</svg>
