<?xml version="1.0" encoding="utf-8"?>
<!-- Generator: Adobe Illustrator 24.0.0, SVG Export Plug-In . SVG Version: 6.00 Build 0)  -->
<svg version="1.1" id="图层_1" xmlns="http://www.w3.org/2000/svg" xmlns:xlink="http://www.w3.org/1999/xlink" x="0px" y="0px"
	 viewBox="0 0 128 128" enable-background="new 0 0 128 128" xml:space="preserve">
<title>kvpnc-112</title>
<path fill="#9E9E9E" d="M107.3,54.1l8.6-8.8l-0.2-10.7l-2.2-0.8l-12.3,12.4c-2.7-3.1-5.7-6.1-8.8-8.9c-3.5-3.1-7.1-5.9-11-8.5
	l8.8-8.9L89.9,9.3l-2.2-0.8L72.6,23.7c-16.1-8.1-31.5-9-38.9-0.8l-7.4,8.2c-19.5,21.7-17.7,55.2,4,74.7c0,0,0.1,0.1,0.1,0.1l0,0
	c22,19.4,55.6,17.6,75.4-4.1l7.4-8.2C120.8,85.3,117.9,69.6,107.3,54.1z"/>
<path fill="#D32F2F" d="M31,22.7l-7.2,8C4.7,51.9,6.5,84.5,27.7,103.6c0,0,0.1,0.1,0.1,0.1l0,0c21.5,19,54.2,17.2,73.5-4l7.2-8
	L31,22.7z"/>
<ellipse transform="matrix(0.6626 -0.749 0.749 0.6626 -19.3298 71.5353)" fill="#E57373" cx="69.7" cy="57.2" rx="27.5" ry="51.9"/>
<polygon fill="#D85A1B" points="56.3,50.1 57.3,38.1 85.8,9.4 86,19.8 "/>
<polygon fill="#D85A1B" points="81.4,74.8 82.5,62.8 111,34.1 111.2,44.5 "/>
<polygon fill="#FFB74D" points="54.1,49.3 55.1,37.3 83.6,8.6 83.8,19.1 "/>
<polygon fill="#D85A1B" points="83.6,8.6 85.8,9.4 86,19.8 83.8,19.1 "/>
<polygon fill="#D85A1B" points="54.1,49.3 56.3,50.1 86,19.8 83.8,19.1 "/>
<polygon fill="#FFB74D" points="79.3,74.1 80.3,62 108.8,33.3 109,43.8 "/>
<polygon fill="#D85A1B" points="108.8,33.3 111,34.1 111.2,44.5 109,43.8 "/>
<polygon fill="#D85A1B" points="79.3,74.1 81.4,74.8 111.2,44.5 109,43.8 "/>
</svg>
