<?xml version="1.0" encoding="utf-8"?>
<!-- Generator: Adobe Illustrator 24.0.0, SVG Export Plug-In . SVG Version: 6.00 Build 0)  -->
<svg version="1.1" id="图层_3" xmlns="http://www.w3.org/2000/svg" xmlns:xlink="http://www.w3.org/1999/xlink" x="0px" y="0px"
	 viewBox="0 0 96 96" enable-background="new 0 0 96 96" xml:space="preserve">
<g id="_x39_6">
	<polygon fill="#04DDDD" points="57.9,88 67.9,83.8 70.6,74 61.7,65 48.4,70.8 48.4,82.1 	"/>
	<polygon fill="#00BABA" points="28.2,83.7 48.5,92 55.3,89.1 67.9,83.8 57.9,88 48.4,82.1 48.4,70.8 48.3,70.8 34.3,65.1 
		25.6,73.7 	"/>
	<polygon fill="#04FEB6" points="8,57.8 12.2,67.8 22,70.5 30.9,61.6 25.2,48.3 13.9,48.2 	"/>
	<polygon fill="#02D095" points="12.2,28.1 4,48.3 6.9,55.2 12.2,67.8 8,57.8 13.9,48.2 25.2,48.3 25.2,48.2 30.9,34.2 22.3,25.5 	
		"/>
	<polygon fill="#46B7FD" points="88,38.1 83.7,28.1 73.9,25.5 65,34.4 70.8,47.6 82.1,47.7 	"/>
	<polygon fill="#0096FF" points="83.8,67.8 92,47.5 89.1,40.7 83.7,28.1 88,38.1 82.1,47.7 70.8,47.6 70.8,47.7 65.2,61.8 
		73.8,70.5 	"/>
	<polygon fill="#1A8EFE" points="38.2,8 28.2,12.3 25.6,22.1 34.5,31 47.8,25.2 47.8,13.9 	"/>
	<polygon fill="#036CD2" points="67.9,12.1 47.6,4 40.8,6.9 28.2,12.3 38.2,8 47.8,13.9 47.8,25.2 47.9,25.2 61.9,30.8 70.6,22.2 	
		"/>
</g>
</svg>
