<?xml version="1.0" encoding="iso-8859-1"?>
<!-- Generator: Adobe Illustrator 24.0.0, SVG Export Plug-In . SVG Version: 6.00 Build 0)  -->
<svg version="1.1" id="&#x56FE;&#x5C42;_1" xmlns="http://www.w3.org/2000/svg" xmlns:xlink="http://www.w3.org/1999/xlink" x="0px"
	 y="0px" viewBox="0 0 96 96" style="enable-background:new 0 0 96 96;" xml:space="preserve">
<rect y="-0.006" style="fill:none;" width="96" height="96"/>
<path style="fill:#0C0D10;" d="M45.9,94.994c-22.5,0-40.74-18.24-40.74-40.74s18.24-40.74,40.74-40.74s40.74,18.24,40.74,40.74
	c0,0.003,0,0.007,0,0.01C86.634,76.761,68.396,94.994,45.9,94.994z"/>
<linearGradient id="SVGID_1_" gradientUnits="userSpaceOnUse" x1="17.7956" y1="71.7012" x2="74.0456" y2="15.4512" gradientTransform="matrix(1 0 0 -1 0 98)">
	<stop  offset="0" style="stop-color:#FFFFFF;stop-opacity:0.4"/>
	<stop  offset="0.48" style="stop-color:#FFFFFF;stop-opacity:0.2"/>
	<stop  offset="1" style="stop-color:#FFFFFF;stop-opacity:0.3"/>
</linearGradient>
<path style="opacity:0.9;fill:url(#SVGID_1_);" d="M45.83,94.214C23.805,94.214,5.951,76.358,5.951,54.333
	c0.001-22.025,17.856-39.879,39.881-39.879s39.879,17.856,39.879,39.881C85.711,72.59,73.316,88.514,55.62,92.994
	C52.42,93.809,49.131,94.218,45.83,94.214z M46,15.044c-3.274,0.001-6.536,0.408-9.71,1.21C15.309,21.592,2.627,42.928,7.964,63.909
	s26.673,33.663,47.654,28.326C76.6,86.897,89.282,65.561,83.944,44.58C79.529,27.222,63.91,15.065,46,15.044z"/>
<path style="fill:#333233;" d="M45.851,32.324c-12.117,0-21.94,9.823-21.94,21.94s9.823,21.94,21.94,21.94s21.94-9.823,21.94-21.94
	l0,0C67.791,42.147,57.968,32.324,45.851,32.324z M45.851,14.874c21.754,0.011,39.381,17.656,39.37,39.41
	s-17.656,39.381-39.41,39.37c-21.747-0.011-39.37-17.643-39.37-39.39c0-21.754,17.635-39.39,39.39-39.39
	C45.838,14.874,45.845,14.874,45.851,14.874z"/>
<linearGradient id="SVGID_2_" gradientUnits="userSpaceOnUse" x1="13.0846" y1="35.3581" x2="80.6347" y2="74.3582">
	<stop  offset="0" style="stop-color:#6C7BA3;stop-opacity:0.3"/>
	<stop  offset="0.3234" style="stop-color:#494E5E;stop-opacity:0.1175"/>
	<stop  offset="0.5316" style="stop-color:#313030;stop-opacity:0"/>
	<stop  offset="0.6922" style="stop-color:#444854;stop-opacity:0.1029"/>
	<stop  offset="1" style="stop-color:#6C7BA3;stop-opacity:0.3"/>
</linearGradient>
<path style="fill:url(#SVGID_2_);" d="M45.851,32.324c-12.117,0-21.94,9.823-21.94,21.94s9.823,21.94,21.94,21.94
	s21.94-9.823,21.94-21.94l0,0C67.791,42.147,57.968,32.324,45.851,32.324z M45.851,14.874c21.754,0.011,39.381,17.656,39.37,39.41
	s-17.656,39.381-39.41,39.37c-21.747-0.011-39.37-17.643-39.37-39.39c0-21.754,17.635-39.39,39.39-39.39
	C45.838,14.874,45.845,14.874,45.851,14.874z"/>
<g style="opacity:0.2;">
	<path d="M45.9,16.034v-0.04c-0.01,0-0.02,0-0.03,0C24.751,16.011,7.643,33.145,7.66,54.264c0,21.11,17.11,38.224,38.22,38.23
		c21.114,0.006,38.234-17.106,38.24-38.22C84.126,33.161,67.014,16.04,45.9,16.034z M45.92,92.134
		C25.005,92.14,8.046,75.189,8.04,54.274C8.034,33.359,24.985,16.4,45.9,16.394c0.003,0,0.007,0,0.01,0
		c20.915,0,37.87,16.955,37.87,37.87C83.78,75.176,66.831,92.129,45.92,92.134z"/>
	<path d="M45.9,17.374c-0.003,0-0.007,0-0.01,0C25.516,17.374,9,33.891,9,54.264c0,20.37,16.51,36.884,36.88,36.89
		c20.374,0.005,36.894-16.506,36.9-36.88C82.786,33.901,66.274,17.38,45.9,17.374z M45.9,90.794c-20.175,0-36.53-16.355-36.53-36.53
		s16.355-36.53,36.53-36.53c20.175,0,36.53,16.355,36.53,36.53S66.075,90.794,45.9,90.794z"/>
	<path d="M45.9,18.724c-19.634-0.006-35.555,15.906-35.56,35.54c0,19.62,15.9,35.529,35.52,35.54
		c19.628,0.011,35.549-15.892,35.56-35.52C81.431,34.656,65.528,18.735,45.9,18.724z M45.9,89.454
		c-19.435,0-35.19-15.755-35.19-35.19s15.755-35.19,35.19-35.19c19.433,0.005,35.184,15.757,35.19,35.19
		C81.09,73.699,65.335,89.454,45.9,89.454z"/>
	<path d="M45.9,20.064c-18.89,0-34.205,15.31-34.21,34.2c0,18.884,15.306,34.194,34.19,34.2c18.888,0.005,34.204-15.302,34.21-34.19
		C80.096,35.386,64.788,20.07,45.9,20.064z M45.92,88.104c-18.689,0.005-33.844-15.141-33.85-33.83
		C12.064,35.585,27.211,20.43,45.9,20.424c0.003,0,0.007,0,0.01,0c18.689,0,33.84,15.151,33.84,33.84
		C79.75,72.95,64.605,88.099,45.92,88.104z"/>
	<path d="M45.9,21.404c-0.013,0-0.027,0-0.04,0C27.712,21.404,13,36.116,13,54.264c0,18.132,14.688,32.838,32.82,32.86
		c18.148,0.022,32.878-14.672,32.9-32.82S64.048,21.427,45.9,21.404z M45.9,86.764c-17.949,0-32.5-14.551-32.5-32.5
		s14.551-32.5,32.5-32.5c17.949,0,32.5,14.551,32.5,32.5S63.849,86.764,45.9,86.764z"/>
	<path d="M45.9,22.744c-0.003,0-0.007,0-0.01,0c-17.408,0-31.52,14.112-31.52,31.52c0,17.404,14.106,31.514,31.51,31.52
		c17.408,0.005,31.524-14.102,31.53-31.51C77.416,36.866,63.308,22.75,45.9,22.744z M45.9,85.424
		c-17.209,0-31.16-13.951-31.16-31.16s13.951-31.16,31.16-31.16c17.209,0,31.16,13.951,31.16,31.16S63.109,85.424,45.9,85.424z"/>
	<path d="M45.9,24.094c-16.664,0-30.174,13.506-30.18,30.17c0,16.659,13.502,30.164,30.16,30.17
		c16.662,0.006,30.174-13.498,30.18-30.16C76.066,37.612,62.562,24.1,45.9,24.094z M45.92,84.074
		c-16.464,0.005-29.814-13.336-29.82-29.8c-0.005-16.464,13.336-29.815,29.8-29.82c0.003,0,0.007,0,0.01,0
		c16.464,0,29.81,13.346,29.81,29.81C75.72,70.724,62.38,84.069,45.92,84.074z"/>
	<path d="M45.9,25.434c-0.003,0-0.007,0-0.01,0c-15.922,0-28.83,12.908-28.83,28.83c0,15.918,12.902,28.824,28.82,28.83
		c15.922,0.005,28.834-12.898,28.84-28.82C74.726,38.352,61.822,25.44,45.9,25.434z M45.9,82.734
		c-15.724,0-28.47-12.746-28.47-28.47s12.746-28.47,28.47-28.47c15.724,0,28.47,12.746,28.47,28.47S61.624,82.734,45.9,82.734z"/>
	<path d="M45.9,26.774c-0.003,0-0.007,0-0.01,0c-15.182,0-27.49,12.308-27.49,27.49c0,15.178,12.302,27.484,27.48,27.49
		c15.182,0.006,27.494-12.298,27.5-27.48C73.385,39.092,61.082,26.78,45.9,26.774z M45.84,81.394
		c-14.984-0.017-27.117-12.177-27.1-27.16c0.017-14.983,12.177-27.117,27.16-27.1C60.87,27.156,72.995,39.295,73,54.264
		c0,0.01,0,0.02,0,0.03C72.983,69.278,60.823,81.411,45.84,81.394z"/>
	<path d="M45.9,28.124c-0.003,0-0.007,0-0.01,0c-14.437,0-26.14,11.703-26.14,26.14c0,14.433,11.697,26.134,26.13,26.14
		c14.437,0.005,26.144-11.693,26.15-26.13C72.036,39.838,60.337,28.13,45.9,28.124z M45.9,80.054
		c-14.243,0-25.79-11.547-25.79-25.79s11.547-25.79,25.79-25.79c14.243,0,25.79,11.547,25.79,25.79S60.143,80.054,45.9,80.054z"/>
	<path d="M45.9,29.464c-0.003,0-0.007,0-0.01,0c-13.697,0-24.8,11.103-24.8,24.8c0,13.693,11.097,24.794,24.79,24.8
		c13.697,0.006,24.805-11.093,24.81-24.79S59.597,29.47,45.9,29.464z M45.9,78.704c-13.498,0-24.44-10.942-24.44-24.44
		s10.942-24.44,24.44-24.44c13.498,0,24.44,10.942,24.44,24.44S59.398,78.704,45.9,78.704z"/>
	<path d="M45.9,30.804c-0.003,0-0.007,0-0.01,0c-12.957,0-23.46,10.503-23.46,23.46c0,12.953,10.497,23.454,23.45,23.46
		c12.957,0.005,23.464-10.493,23.47-23.45C69.356,41.318,58.857,30.81,45.9,30.804z M45.9,77.364c-12.758,0-23.1-10.342-23.1-23.1
		s10.342-23.1,23.1-23.1c12.755,0.005,23.094,10.344,23.1,23.1C69,67.022,58.658,77.364,45.9,77.364z"/>
</g>
<path style="fill:#FFFFFF;" d="M64.7,54.264c0.006,10.388-8.412,18.814-18.8,18.82c-10.388,0.006-18.814-8.412-18.82-18.8
	s8.412-18.814,18.8-18.82c0.007,0,0.013,0,0.02,0C56.283,35.464,64.7,43.881,64.7,54.264"/>
<linearGradient id="SVGID_3_" gradientUnits="userSpaceOnUse" x1="11.4426" y1="57.8769" x2="33.1137" y2="24.5063">
	<stop  offset="0" style="stop-color:#6C7BA3;stop-opacity:0"/>
	<stop  offset="0.5057" style="stop-color:#6C7BA3"/>
	<stop  offset="1" style="stop-color:#6C7BA3;stop-opacity:0"/>
</linearGradient>
<path style="display:none;opacity:0.1;fill:url(#SVGID_3_);enable-background:new    ;" d="M23.911,54.264
	c0-9.777,6.396-18.056,15.231-20.891L31.78,17.465c-14.814,5.66-25.339,19.997-25.339,36.8c0,2.958,0.337,5.836,0.955,8.608
	l17.374-2.534C24.215,58.409,23.911,56.372,23.911,54.264z"/>
<radialGradient id="SVGID_4_" cx="23.4996" cy="44.6283" r="27.446" gradientTransform="matrix(1 0 0 1.1315 0 -5.869)" gradientUnits="userSpaceOnUse">
	<stop  offset="0" style="stop-color:#6C7BA3;stop-opacity:0.8"/>
	<stop  offset="0.7303" style="stop-color:#6C7BA3;stop-opacity:0"/>
</radialGradient>
<path style="opacity:0.3;fill:url(#SVGID_4_);" d="M23.911,54.264c0-10.292,7.087-18.924,16.647-21.293l-2.088-17.4
	C20.236,19.02,6.441,35.027,6.441,54.264c0,7.064,1.869,13.688,5.125,19.421l13.803-11.556
	C24.431,59.687,23.911,57.037,23.911,54.264z"/>
<radialGradient id="SVGID_5_" cx="-119.1586" cy="65.1005" r="27.446" gradientTransform="matrix(-1 0 0 -1.0679 -50.9957 133.4656)" gradientUnits="userSpaceOnUse">
	<stop  offset="0" style="stop-color:#6C7BA3;stop-opacity:0.8"/>
	<stop  offset="0.7303" style="stop-color:#6C7BA3;stop-opacity:0"/>
</radialGradient>
<path style="opacity:0.26;fill:url(#SVGID_5_);" d="M67.751,54.306c0,10.292-7.087,18.924-16.647,21.293l2.088,17.4
	c18.235-3.449,32.029-19.455,32.029-38.693c0-7.064-1.869-13.688-5.125-19.421L66.293,46.441
	C67.232,48.883,67.751,51.533,67.751,54.306z"/>
<radialGradient id="SVGID_6_" cx="45.8313" cy="55.9695" r="14.3528" gradientUnits="userSpaceOnUse">
	<stop  offset="0" style="stop-color:#FF7761"/>
	<stop  offset="0.6965" style="stop-color:#FF7761"/>
	<stop  offset="0.9743" style="stop-color:#FF7761;stop-opacity:0"/>
</radialGradient>
<circle style="opacity:0.6;fill:url(#SVGID_6_);" cx="45.831" cy="55.97" r="14.353"/>
<linearGradient id="SVGID_7_" gradientUnits="userSpaceOnUse" x1="62.1464" y1="53.5119" x2="69.162" y2="3.5937">
	<stop  offset="0" style="stop-color:#F94141"/>
	<stop  offset="1" style="stop-color:#FFBDAB"/>
</linearGradient>
<path style="fill:url(#SVGID_7_);" d="M76,6.664c-3.916-3.596-9.024-5.615-14.34-5.67c-0.914-0.01-1.695,0.656-1.83,1.56l-6,42.78
	c-1.751-1.481-3.888-2.431-6.16-2.74c-6.651-0.929-12.796,3.709-13.726,10.36c-0.929,6.651,3.709,12.796,10.36,13.726
	c6.248,0.873,12.126-3.177,13.535-9.326c0.033-0.057,0.059-0.118,0.08-0.18l5-36.71c0,0,5.08-1.47,9.08,1.24
	c2.107,1.518,4.569,2.469,7.15,2.76c4.47,0.38,11-0.06,16-4.56c0,0-10.73-2.84-16.72-10.47C77.7,8.444,76.887,7.517,76,6.664z"/>
<linearGradient id="SVGID_8_" gradientUnits="userSpaceOnUse" x1="39.744" y1="43.8219" x2="52.056" y2="65.147">
	<stop  offset="0" style="stop-color:#FF7272"/>
	<stop  offset="0.9743" style="stop-color:#FC624F"/>
</linearGradient>
<circle style="fill:url(#SVGID_8_);" cx="45.9" cy="54.484" r="12.31"/>
<radialGradient id="SVGID_9_" cx="45.9" cy="54.4844" r="12.3852" fx="55.0422" fy="62.8398" gradientUnits="userSpaceOnUse">
	<stop  offset="0" style="stop-color:#FF7272;stop-opacity:0"/>
	<stop  offset="0.2239" style="stop-color:#FF7575;stop-opacity:0.0449"/>
	<stop  offset="0.3899" style="stop-color:#FF7E7D;stop-opacity:0.0781"/>
	<stop  offset="0.5373" style="stop-color:#FF8F8B;stop-opacity:0.1077"/>
	<stop  offset="0.6738" style="stop-color:#FFA59F;stop-opacity:0.1351"/>
	<stop  offset="0.8029" style="stop-color:#FFC2B8;stop-opacity:0.1609"/>
	<stop  offset="0.9247" style="stop-color:#FFE6D7;stop-opacity:0.1853"/>
	<stop  offset="0.9979" style="stop-color:#FFFFED;stop-opacity:0.2"/>
</radialGradient>
<circle style="opacity:0.8;fill:url(#SVGID_9_);" cx="45.9" cy="54.484" r="12.31"/>
<radialGradient id="SVGID_10_" cx="44.4303" cy="51.2736" r="9.5901" fx="44.0504" fy="51.0787" gradientUnits="userSpaceOnUse">
	<stop  offset="0" style="stop-color:#FFFFFF;stop-opacity:0.3"/>
	<stop  offset="1" style="stop-color:#FFFFFF;stop-opacity:0"/>
</radialGradient>
<circle style="fill:url(#SVGID_10_);" cx="44.43" cy="51.274" r="9.657"/>
<rect x="33.5" y="42.084" style="fill:none;" width="24.75" height="24.74"/>
<g>
	<linearGradient id="SVGID_11_" gradientUnits="userSpaceOnUse" x1="63.0095" y1="21.1782" x2="95.15" y2="21.1782">
		<stop  offset="0" style="stop-color:#FF7C74"/>
		<stop  offset="1" style="stop-color:#FC5151"/>
	</linearGradient>
	<path style="fill:url(#SVGID_11_);" d="M89.573,17.785c-5.655,3.688-10.421,4.364-14.298,2.029
		c-4.128-2.486-8.216-2.276-12.265,0.626c0.667-0.173,5.287-1.245,8.991,1.264c2.107,1.518,4.569,2.469,7.15,2.76
		c4.47,0.38,11-0.06,16-4.56C95.15,19.904,92.742,19.266,89.573,17.785z"/>
	<path style="fill:#29ABE2;" d="M78.43,9.434c3.153,4.017,7.619,6.705,11.143,8.351c0.005-0.003,0.01-0.006,0.015-0.009
		c-3.521-1.647-7.975-4.332-11.123-8.341c-0.73-0.991-1.543-1.917-2.43-2.77c-3.916-3.596-9.024-5.615-14.34-5.67
		c-0.005,0-0.009,0.001-0.014,0.001C66.989,1.055,72.089,3.073,76,6.664C76.887,7.517,77.7,8.444,78.43,9.434z"/>
	<path style="fill:#29ABE2;" d="M62.519,23.411l0.033,0.01l0.403-2.957c0,0,0.021-0.006,0.033-0.009
		c0.007-0.005,0.014-0.009,0.021-0.015c-0.053,0.014-0.089,0.024-0.089,0.024L62.519,23.411z"/>
</g>
<radialGradient id="SVGID_12_" cx="68.549" cy="6.0039" r="5.5942" gradientTransform="matrix(1.363 0.4948 -0.5587 1.5391 -21.9173 -33.6541)" gradientUnits="userSpaceOnUse">
	<stop  offset="0.0012" style="stop-color:#FFFFFF;stop-opacity:0.2"/>
	<stop  offset="1" style="stop-color:#FFFFFF;stop-opacity:0"/>
</radialGradient>
<path style="fill:url(#SVGID_12_);" d="M75.788,12.27c-1.726,4.755-6.539,7.371-10.75,5.842s-6.226-6.623-4.5-11.378
	s6.539-7.371,10.75-5.842C75.499,2.421,77.514,7.515,75.788,12.27z"/>
</svg>
