<?xml version="1.0" encoding="utf-8"?>
<!-- Generator: Adobe Illustrator 24.0.0, SVG Export Plug-In . SVG Version: 6.00 Build 0)  -->
<svg version="1.1" id="图层_1" xmlns="http://www.w3.org/2000/svg" xmlns:xlink="http://www.w3.org/1999/xlink" x="0px" y="0px"
	 viewBox="0 0 128 128" enable-background="new 0 0 128 128" xml:space="preserve">
<title>128</title>
<g id="图层_11">
	<g id="_128">
		<g id="图层_2_1_">
			<g id="App">
				
					<linearGradient id="SVGID_1_" gradientUnits="userSpaceOnUse" x1="64" y1="-528.77" x2="64" y2="-411.23" gradientTransform="matrix(1 0 0 -1 0 -406)">
					<stop  offset="0" style="stop-color:#C8C8C8"/>
					<stop  offset="1" style="stop-color:#FFFFFF"/>
				</linearGradient>
				<circle fill="url(#SVGID_1_)" cx="64" cy="64" r="58.8"/>
				<path fill="#BABABA" d="M64,5.5c32.5-0.1,58.9,26.2,59,58.7c0.1,32.5-26.2,58.9-58.7,59C31.8,123.3,5.4,97,5.3,64.5
					c0-15.4,6-30.2,16.7-41.2c0.2-0.2,0.4-0.4,0.6-0.6C33.6,11.6,48.5,5.4,64,5.5 M64,5C31.4,5,5,31.4,5,64s26.4,59,59,59
					s59-26.4,59-59S96.6,5,64,5z"/>
				
					<linearGradient id="SVGID_2_" gradientUnits="userSpaceOnUse" x1="64" y1="-527.11" x2="64" y2="-412.89" gradientTransform="matrix(1 0 0 -1 0 -406)">
					<stop  offset="0" style="stop-color:#E14900"/>
					<stop  offset="1" style="stop-color:#FFC73A"/>
				</linearGradient>
				<circle fill="url(#SVGID_2_)" cx="64" cy="64" r="57.1"/>
				
					<linearGradient id="SVGID_3_" gradientUnits="userSpaceOnUse" x1="47.6405" y1="-483.9806" x2="96.6005" y2="-442.2106" gradientTransform="matrix(1 0 0 -1 0 -406)">
					<stop  offset="0" style="stop-color:#FAFAE6"/>
					<stop  offset="0.6" style="stop-color:#FAFAED"/>
					<stop  offset="1" style="stop-color:#FAFAF5"/>
				</linearGradient>
				<path fill="url(#SVGID_3_)" d="M93,33.2c-0.3-0.2-0.7-0.3-1.1-0.1L29.1,58.4l-7.4,3.1l22.5,9.1l0,0l6,21c0.2,0.6,0.9,1,1.5,0.8
					c0.2-0.1,0.4-0.2,0.6-0.3l12.5-12.9l16.9,6.6c1.2,0.5,2.7-0.1,3.2-1.3c0,0,0,0,0,0c0.1-0.2,0.1-0.4,0.1-0.6l8.5-49.4
					C93.7,34,93.4,33.5,93,33.2z M56.6,76L56.6,76L56.6,76L56.6,76z"/>
				
					<linearGradient id="SVGID_4_" gradientUnits="userSpaceOnUse" x1="58.2806" y1="-484.46" x2="58.7406" y2="-498.69" gradientTransform="matrix(1 0 0 -1 0 -406)">
					<stop  offset="0" style="stop-color:#B8B88A"/>
					<stop  offset="0.42" style="stop-color:#C0C095"/>
					<stop  offset="1" style="stop-color:#C7C79F"/>
				</linearGradient>
				<path fill="url(#SVGID_4_)" d="M64.8,79.3L52.3,92.1c0.1-0.2,0.2-0.4,0.3-0.6L56.6,76v-0.1l5.4,2.3l2.4,1L64.8,79.3z"/>
				
					<linearGradient id="SVGID_5_" gradientUnits="userSpaceOnUse" x1="54.2737" y1="-481.9698" x2="54.7837" y2="-498.0099" gradientTransform="matrix(1 0 0 -1 0 -406)">
					<stop  offset="0" style="stop-color:#000000;stop-opacity:6.000000e-02"/>
					<stop  offset="1" style="stop-color:#000000;stop-opacity:8.000000e-02"/>
				</linearGradient>
				<path fill="url(#SVGID_5_)" d="M56.8,75.9h-0.1V76l-4.1,15.5c-0.1,0.2-0.2,0.4-0.3,0.6l0.5-0.5L56.8,75.9z"/>
				
					<linearGradient id="SVGID_6_" gradientUnits="userSpaceOnUse" x1="67.0697" y1="-460.2502" x2="76.5397" y2="-477.1602" gradientTransform="matrix(1 0 0 -1 0 -406)">
					<stop  offset="0" style="stop-color:#E6E6BF"/>
					<stop  offset="0.36" style="stop-color:#DCDCAF"/>
					<stop  offset="1" style="stop-color:#CCCC98"/>
				</linearGradient>
				<path fill="url(#SVGID_6_)" d="M93.1,33.3L56.7,75.9l0,0V76l-4.1,15.5c0,0.2-0.1,0.4-0.3,0.6c-0.5,0.5-1.3,0.5-1.8,0
					c-0.2-0.2-0.3-0.3-0.3-0.6l-6-20.9l0,0L93.1,33.3z"/>
				
					<linearGradient id="SVGID_7_" gradientUnits="userSpaceOnUse" x1="67.0697" y1="-460.2502" x2="76.5397" y2="-477.1602" gradientTransform="matrix(1 0 0 -1 0 -406)">
					<stop  offset="0" style="stop-color:#F0F0C7"/>
					<stop  offset="0.33" style="stop-color:#E8E8B9"/>
					<stop  offset="1" style="stop-color:#D9D9A2"/>
				</linearGradient>
				<path fill="url(#SVGID_7_)" d="M93.1,33.3L56.7,75.9l0,0V76l-4.1,15.5c0,0.2-0.1,0.4-0.3,0.6c-0.5,0.5-1.3,0.5-1.8,0
					c-0.2-0.2-0.3-0.3-0.3-0.6l-6-20.9l0,0L93.1,33.3z"/>
				<polygon opacity="5.000000e-02" enable-background="new    " points="92.2,34 44.2,70.6 44.2,70.6 44.2,70.6 44.2,70.6 
					44.2,70.7 91.8,34.5 				"/>
			</g>
		</g>
	</g>
</g>
</svg>
