<?xml version="1.0" encoding="utf-8"?>
<!-- Generator: Adobe Illustrator 24.1.2, SVG Export Plug-In . SVG Version: 6.00 Build 0)  -->
<svg version="1.1" id="图层_1" xmlns="http://www.w3.org/2000/svg" xmlns:xlink="http://www.w3.org/1999/xlink" x="0px" y="0px"
	 viewBox="0 0 96 96" enable-background="new 0 0 96 96" xml:space="preserve">
<g id="_x39_6-2">
	<g>
		<g>
			
				<radialGradient id="SVGID_1_" cx="9.5957" cy="68.7234" r="96.4391" gradientTransform="matrix(1 0 0 -1 0 96)" gradientUnits="userSpaceOnUse">
				<stop  offset="9.230221e-02" style="stop-color:#0BD3FB"/>
				<stop  offset="0.1586" style="stop-color:#0ECDFB"/>
				<stop  offset="0.2483" style="stop-color:#18BCFB"/>
				<stop  offset="0.3514" style="stop-color:#279FFC"/>
				<stop  offset="0.4645" style="stop-color:#3C78FD"/>
				<stop  offset="0.5857" style="stop-color:#5745FE"/>
				<stop  offset="0.7116" style="stop-color:#7808FF"/>
				<stop  offset="0.7849" style="stop-color:#7D07FE"/>
				<stop  offset="0.8756" style="stop-color:#8C04FA"/>
				<stop  offset="0.9521" style="stop-color:#9F00F5"/>
			</radialGradient>
			<path fill="url(#SVGID_1_)" d="M90,48.2C90.1,24.8,71.2,5.9,47.8,6C24.6,6.1,6.2,25.7,6,48.8c0,0.1,0,0.3,0,0.4V78
				c0,6.6,5.4,12,12,12h25.7c7.6,0,15.1-1.6,22-4.3C79.8,78.9,89.9,64.8,90,48.2z"/>
		</g>
		
			<linearGradient id="SVGID_2_" gradientUnits="userSpaceOnUse" x1="14.4026" y1="36.819" x2="63.8068" y2="5.299839e-02" gradientTransform="matrix(1 0 0 -1 0 96)">
			<stop  offset="5.325499e-03" style="stop-color:#4400FF"/>
			<stop  offset="0.9521" style="stop-color:#E300FF"/>
		</linearGradient>
		<path fill="url(#SVGID_2_)" d="M54,73.1C49.4,69.3,33,42,33,42l-9,3L8,84.6l0,0l0.1,0.1l0,0c2.2,3.2,5.8,5.2,9.9,5.2h25.7
			c7.6,0,15.1-1.6,22-4.3c3.6-1.7,6.9-3.9,9.8-6.4C67.5,79.8,61.4,79.3,54,73.1z"/>
	</g>
	<g>
		<g>
			<circle fill="#130F30" cx="48" cy="48" r="27"/>
			<g opacity="0.2">
				
					<linearGradient id="SVGID_3_" gradientUnits="userSpaceOnUse" x1="33" y1="48" x2="69" y2="48" gradientTransform="matrix(1 0 0 -1 0 96)">
					<stop  offset="1.910274e-02" style="stop-color:#A100FF"/>
					<stop  offset="0.9218" style="stop-color:#00A9FF"/>
				</linearGradient>
				<path fill="url(#SVGID_3_)" d="M42.6,69c-5.3,0-9.6-4.4-9.6-9.7V36.7c0-5.4,4.3-9.7,9.6-9.7c1.9,0,3.7,0.6,5.3,1.6l16.8,11.3
					c2.7,1.8,4.3,4.8,4.3,8.1s-1.6,6.3-4.3,8.1L47.9,67.4C46.3,68.4,44.5,69,42.6,69z"/>
			</g>
			<g opacity="0.3">
				
					<linearGradient id="SVGID_4_" gradientUnits="userSpaceOnUse" x1="36" y1="48" x2="66" y2="48" gradientTransform="matrix(1 0 0 -1 0 96)">
					<stop  offset="1.910274e-02" style="stop-color:#A100FF"/>
					<stop  offset="0.9218" style="stop-color:#00A9FF"/>
				</linearGradient>
				<path fill="url(#SVGID_4_)" d="M42.6,66C39,66,36,63,36,59.3V36.7c0-3.7,3-6.7,6.6-6.7c1.3,0,2.5,0.4,3.6,1.1L63,42.4
					c1.9,1.2,3,3.4,3,5.6c0,2.3-1.1,4.4-3,5.6L46.2,64.9C45.1,65.6,43.9,66,42.6,66z"/>
			</g>
			<g>
				<path fill="#FFFFFF" d="M44.5,33.6l16.8,11.3c2.2,1.5,2.2,4.8,0,6.3L44.5,62.4C42.1,64,39,62.2,39,59.3V36.7
					C39,33.8,42.1,32,44.5,33.6z"/>
			</g>
		</g>
	</g>
</g>
</svg>
