<?xml version="1.0" encoding="utf-8"?>
<!-- Generator: Adobe Illustrator 24.0.0, SVG Export Plug-In . SVG Version: 6.00 Build 0)  -->
<svg version="1.1" id="图层_1" xmlns="http://www.w3.org/2000/svg" xmlns:xlink="http://www.w3.org/1999/xlink" x="0px" y="0px"
	 viewBox="0 0 96 96" style="enable-background:new 0 0 96 96;" xml:space="preserve">
<style type="text/css">
	.st0{fill:url(#SVGID_1_);}
	.st1{opacity:0.5;fill:url(#SVGID_2_);enable-background:new    ;}
	.st2{fill:#536055;}
	.st3{fill:url(#SVGID_3_);}
	.st4{fill:#E8F2F4;}
	.st5{fill:none;stroke:#000000;stroke-width:2;stroke-linecap:round;stroke-miterlimit:10;}
	.st6{fill:none;stroke:#000000;stroke-width:3;stroke-linecap:round;stroke-miterlimit:10;}
	.st7{fill:none;stroke:#F43A0F;stroke-width:2;stroke-linecap:round;stroke-miterlimit:10;}
	.st8{fill:#F43A0F;}
	.st9{fill:url(#SVGID_4_);}
	.st10{opacity:0.5;fill:url(#SVGID_5_);enable-background:new    ;}
	.st11{fill:url(#SVGID_6_);}
</style>
<g id="_x39_6_25_">
	
		<linearGradient id="SVGID_1_" gradientUnits="userSpaceOnUse" x1="512" y1="6" x2="512" y2="94" gradientTransform="matrix(1 0 0 -1 0 98)">
		<stop  offset="7.000000e-02" style="stop-color:#44EB9E"/>
		<stop  offset="0.28" style="stop-color:#55F0CA"/>
		<stop  offset="0.75" style="stop-color:#39B496"/>
		<stop  offset="1" style="stop-color:#24996B"/>
	</linearGradient>
	<circle class="st0" cx="512" cy="48" r="44"/>
	
		<linearGradient id="SVGID_2_" gradientUnits="userSpaceOnUse" x1="512" y1="94" x2="512" y2="6" gradientTransform="matrix(1 0 0 -1 0 98)">
		<stop  offset="0" style="stop-color:#80E3B1"/>
		<stop  offset="0.32" style="stop-color:#26C47B"/>
		<stop  offset="0.63" style="stop-color:#39B44A"/>
		<stop  offset="1" style="stop-color:#249962"/>
	</linearGradient>
	<path class="st1" d="M556,48c0,24.3-19.7,44-44,44s-44-19.7-44-44s19.7-44,44-44S556,23.7,556,48z M512,6c-23.2,0-42,18.8-42,42
		s18.8,42,42,42c23.2,0,42-18.8,42-42S535.2,6,512,6z"/>
	<path class="st2" d="M548,48c0,19.9-16.1,36-36,36s-36-16.1-36-36s16.1-36,36-36S548,28.1,548,48z"/>
	
		<linearGradient id="SVGID_3_" gradientUnits="userSpaceOnUse" x1="512" y1="85" x2="512" y2="15" gradientTransform="matrix(1 0 0 -1 0 98)">
		<stop  offset="0" style="stop-color:#515D62"/>
		<stop  offset="0.85" style="stop-color:#A2C0C8"/>
		<stop  offset="1" style="stop-color:#B9C8CC"/>
	</linearGradient>
	<path class="st3" d="M547,48c0,19.3-15.7,35-35,35s-35-15.7-35-35s15.7-35,35-35S547,28.7,547,48z"/>
	<circle class="st4" cx="512" cy="48" r="33"/>
	<g>
		<line class="st5" x1="512" y1="48" x2="519.5" y2="21.5"/>
		<line class="st6" x1="512" y1="48" x2="496" y2="56"/>
		<line class="st7" x1="507" y1="45" x2="539" y2="64"/>
		<circle class="st8" cx="512" cy="48" r="4"/>
	</g>
	<circle class="st2" cx="512" cy="77" r="1.5"/>
	<circle class="st2" cx="512" cy="19" r="1.5"/>
	<circle class="st2" cx="483" cy="48" r="1.5"/>
	<circle class="st2" cx="541" cy="48" r="1.5"/>
</g>
<g id="_x39_6_1_">
	
		<linearGradient id="SVGID_4_" gradientUnits="userSpaceOnUse" x1="48" y1="7" x2="48" y2="95" gradientTransform="matrix(1 0 0 -1 0 98)">
		<stop  offset="7.000000e-02" style="stop-color:#44EB9E"/>
		<stop  offset="0.28" style="stop-color:#55F0CA"/>
		<stop  offset="0.75" style="stop-color:#39B496"/>
		<stop  offset="1" style="stop-color:#24996B"/>
	</linearGradient>
	<circle class="st9" cx="48" cy="47" r="44"/>
	
		<linearGradient id="SVGID_5_" gradientUnits="userSpaceOnUse" x1="48" y1="95" x2="48" y2="7" gradientTransform="matrix(1 0 0 -1 0 98)">
		<stop  offset="0" style="stop-color:#80E3B1"/>
		<stop  offset="0.32" style="stop-color:#26C47B"/>
		<stop  offset="0.63" style="stop-color:#39B44A"/>
		<stop  offset="1" style="stop-color:#249962"/>
	</linearGradient>
	<path class="st10" d="M92,47c0,24.3-19.7,44-44,44S4,71.3,4,47S23.7,3,48,3S92,22.7,92,47z M48,5C24.8,5,6,23.8,6,47s18.8,42,42,42
		s42-18.8,42-42S71.2,5,48,5z"/>
	<path class="st2" d="M84,47c0,19.9-16.1,36-36,36S12,66.9,12,47s16.1-36,36-36S84,27.1,84,47z"/>
	
		<linearGradient id="SVGID_6_" gradientUnits="userSpaceOnUse" x1="48" y1="86" x2="48" y2="16" gradientTransform="matrix(1 0 0 -1 0 98)">
		<stop  offset="0" style="stop-color:#515D62"/>
		<stop  offset="0.85" style="stop-color:#A2C0C8"/>
		<stop  offset="1" style="stop-color:#B9C8CC"/>
	</linearGradient>
	<path class="st11" d="M83,47c0,19.3-15.7,35-35,35S13,66.3,13,47s15.7-35,35-35S83,27.7,83,47z"/>
	<circle class="st4" cx="48" cy="47" r="33"/>
	<g>
		<line class="st5" x1="48" y1="47" x2="55.5" y2="20.5"/>
		<line class="st6" x1="48" y1="47" x2="32" y2="55"/>
		<line class="st7" x1="43" y1="44" x2="75" y2="63"/>
		<circle class="st8" cx="48" cy="47" r="4"/>
	</g>
	<circle class="st2" cx="48" cy="76" r="1.5"/>
	<circle class="st2" cx="48" cy="18" r="1.5"/>
	<circle class="st2" cx="19" cy="47" r="1.5"/>
	<circle class="st2" cx="77" cy="47" r="1.5"/>
</g>
</svg>
