<svg id="文字标注" xmlns="http://www.w3.org/2000/svg" xmlns:xlink="http://www.w3.org/1999/xlink" viewBox="0 0 96 96"><defs><style>.cls-1{fill:url(#未命名的渐变_26);}.cls-2{fill:url(#未命名的渐变_112);}.cls-3{fill:url(#未命名的渐变_26-2);}.cls-4,.cls-9{fill:#fff;}.cls-4{opacity:0.15;}.cls-5{fill:#f76363;}.cls-6{fill:#29ffcc;}.cls-7{fill:url(#未命名的渐变_58);}.cls-8{fill:url(#未命名的渐变_86);}.cls-12,.cls-9{opacity:0.3;}.cls-10{fill:url(#未命名的渐变_112-2);}.cls-11{fill:url(#未命名的渐变_58-2);}.cls-12{fill:#f2f2f2;}</style><linearGradient id="未命名的渐变_26" x1="48" y1="32" x2="48" y2="84" gradientUnits="userSpaceOnUse"><stop offset="0" stop-color="#b7e3ea"/><stop offset="1" stop-color="#7da1ad"/></linearGradient><linearGradient id="未命名的渐变_112" x1="48" y1="32" x2="48" y2="19" gradientUnits="userSpaceOnUse"><stop offset="0" stop-color="#455a64"/><stop offset="1" stop-color="#263238"/></linearGradient><linearGradient id="未命名的渐变_26-2" y1="32" y2="56" gradientTransform="translate(96 88) rotate(-180)" xlink:href="#未命名的渐变_26"/><linearGradient id="未命名的渐变_58" x1="48" y1="9" x2="48" y2="32" gradientUnits="userSpaceOnUse"><stop offset="0" stop-color="#ffb171"/><stop offset="1" stop-color="#f47b51"/></linearGradient><linearGradient id="未命名的渐变_86" x1="66.85" y1="12.15" x2="64.1" y2="14.9" gradientUnits="userSpaceOnUse"><stop offset="0" stop-color="#ffa969"/><stop offset="1" stop-color="#f46e45"/></linearGradient><linearGradient id="未命名的渐变_112-2" y1="84" y2="64" xlink:href="#未命名的渐变_112"/><linearGradient id="未命名的渐变_58-2" y1="87" y2="70" xlink:href="#未命名的渐变_58"/></defs><title>Manual printer96</title><rect class="cls-1" x="9" y="32" width="78" height="52" rx="7"/><path class="cls-2" d="M24.93,19H71.07A2.93,2.93,0,0,1,74,21.93V32a0,0,0,0,1,0,0H22a0,0,0,0,1,0,0V21.93A2.93,2.93,0,0,1,24.93,19Z"/><path class="cls-3" d="M21.75,32h52.5A3.75,3.75,0,0,1,78,35.75V56a0,0,0,0,1,0,0H18a0,0,0,0,1,0,0V35.75A3.75,3.75,0,0,1,21.75,32Z" transform="translate(96 88) rotate(180)"/><path class="cls-4" d="M16,32H80a7,7,0,0,1,7,7v0a0,0,0,0,1,0,0H9a0,0,0,0,1,0,0v0A7,7,0,0,1,16,32Z"/><circle class="cls-5" cx="82" cy="42" r="2"/><circle class="cls-6" cx="82" cy="49" r="2"/><path class="cls-7" d="M63.84,9H27.32A1.31,1.31,0,0,0,26,10.3V32H70V15Z"/><path class="cls-8" d="M63.7,14a1.36,1.36,0,0,0,1.35,1.35h5L63.7,9Z"/><rect class="cls-9" x="32" y="15" width="32" height="1"/><rect class="cls-9" x="32" y="19" width="32" height="1"/><rect class="cls-9" x="32" y="23" width="32" height="1"/><rect class="cls-9" x="32" y="27" width="32" height="1"/><path class="cls-10" d="M20,64H76a2,2,0,0,1,2,2V84a0,0,0,0,1,0,0H18a0,0,0,0,1,0,0V66A2,2,0,0,1,20,64Z"/><path class="cls-11" d="M76.89,85.92l-1.61-2.46L74.36,82,73.2,80.27l-.92-1.42-1.39-2.12L70,75.31l-1.15-1.77-.93-1.42-1.28-2a.34.34,0,0,0-.31-.17H29.71a.34.34,0,0,0-.31.17l-1.28,2-.93,1.42L26,75.31l-.93,1.42-1.39,2.12-.92,1.42L21.64,82l-.92,1.42-1.61,2.46A.71.71,0,0,0,19.74,87H76.26A.71.71,0,0,0,76.89,85.92Z"/><polygon class="cls-12" points="63.29 72 32.71 72 32 73 64 73 63.29 72"/><polygon class="cls-12" points="30 76 66 76 65.27 75 30.73 75 30 76"/><polygon class="cls-12" points="28 80 68 80 67.27 79 28.73 79 28 80"/><polygon class="cls-12" points="26.5 84 69.5 84 68.77 83 27.23 83 26.5 84"/></svg>