<?xml version="1.0" encoding="utf-8"?>
<!-- Generator: Adobe Illustrator 24.0.0, SVG Export Plug-In . SVG Version: 6.00 Build 0)  -->
<svg version="1.1" id="计算器" xmlns="http://www.w3.org/2000/svg" xmlns:xlink="http://www.w3.org/1999/xlink" x="0px" y="0px"
	 viewBox="0 0 128 128" enable-background="new 0 0 128 128" xml:space="preserve">
<title>128</title>
<g id="_128">
	<path fill="#607D8B" d="M20,8h88c6.6,0,12,5.4,12,12v88c0,6.6-5.4,12-12,12H20c-6.6,0-12-5.4-12-12V20C8,13.4,13.4,8,20,8z"/>
	<rect x="20" y="20" fill="#2F3E44" width="40" height="40"/>
	<rect x="68" y="20" fill="#2F3E44" width="40" height="40"/>
	<rect x="20" y="68" fill="#2F3E44" width="40" height="40"/>
	<rect x="68" y="68" fill="#F44336" width="40" height="40"/>
	<rect id="减" x="73" y="92" fill="#FFFFFF" width="30" height="6"/>
	<rect id="减-2" x="73" y="78" fill="#FFFFFF" width="30" height="6"/>
	<rect id="减-3" x="73" y="37" fill="#FFFFFF" width="30" height="6"/>
	<rect id="加" x="37" y="25" fill="#FFFFFF" width="6" height="30"/>
	<rect id="加-2" x="25" y="37" fill="#FFFFFF" width="30" height="6"/>
	
		<rect id="加-3" x="37" y="71" transform="matrix(0.7071 -0.7071 0.7071 0.7071 -50.5101 54.0575)" fill="#FFFFFF" width="6" height="34"/>
	
		<rect id="加-4" x="23" y="85" transform="matrix(0.7071 -0.7071 0.7071 0.7071 -50.5101 54.0575)" fill="#FFFFFF" width="34" height="6"/>
</g>
</svg>
