<?xml version="1.0" encoding="utf-8"?>
<!-- Generator: Adobe Illustrator 24.0.0, SVG Export Plug-In . SVG Version: 6.00 Build 0)  -->
<svg version="1.1" id="图层_1" xmlns="http://www.w3.org/2000/svg" xmlns:xlink="http://www.w3.org/1999/xlink" x="0px" y="0px"
	 viewBox="0 0 128 128" enable-background="new 0 0 128 128" xml:space="preserve">
<title>librecad128</title>
<rect x="109" y="8" fill="#8CC63F" width="11" height="11"/>
<rect x="8" y="8" fill="#8CC63F" width="11" height="11"/>
<rect x="109" y="109" fill="#8CC63F" width="11" height="11"/>
<rect x="8" y="109" fill="#8CC63F" width="11" height="11"/>
<path fill="#8CC63F" d="M64,19c24.9,0,45,20.1,45,45s-20.1,45-45,45S19,88.9,19,64C19,39.2,39.2,19,64,19 M64,8C33.1,8,8,33.1,8,64
	s25.1,56,56,56s56-25.1,56-56C120,33.1,94.9,8,64,8z"/>
<rect x="8" y="55" fill="#333333" width="23" height="17"/>
<rect x="28" y="58" fill="#333333" width="92" height="11"/>
</svg>
