<?xml version="1.0" encoding="utf-8"?>
<!-- Generator: Adobe Illustrator 24.0.0, SVG Export Plug-In . SVG Version: 6.00 Build 0)  -->
<svg version="1.1" id="libreoffice" xmlns="http://www.w3.org/2000/svg" xmlns:xlink="http://www.w3.org/1999/xlink" x="0px"
	 y="0px" viewBox="0 0 128 128" enable-background="new 0 0 128 128" xml:space="preserve">
<title>128</title>
<g id="_128">
	
		<linearGradient id="SVGID_1_" gradientUnits="userSpaceOnUse" x1="64" y1="116" x2="64" y2="12" gradientTransform="matrix(1 0 0 -1 0 128)">
		<stop  offset="0" style="stop-color:#FFFFFF"/>
		<stop  offset="1" style="stop-color:#FFF3D2"/>
	</linearGradient>
	<path fill="url(#SVGID_1_)" d="M20,116c-4.4,0-8-3.6-8-8V20c0-4.4,3.6-8,8-8h84c6.6,0,12,5.4,12,12v84c0,4.4-3.6,8-8,8H20z"/>
	<path fill="#E6B60E" d="M104,16c4.4,0,8,3.6,8,8v84c0,2.2-1.8,4-4,4H20c-2.2,0-4-1.8-4-4V20c0-2.2,1.8-4,4-4H104 M104,8H20
		C13.4,8,8,13.4,8,20v88c0,6.6,5.4,12,12,12h88c6.6,0,12-5.4,12-12V24C120,15.2,112.8,8,104,8z"/>
	<circle fill="#F9CFB5" cx="58" cy="52" r="22"/>
	<path fill="#C94D1C" d="M58,32c11,0,20,9,20,20s-9,20-20,20s-20-9-20-20S47,32,58,32 M58,28c-13.3,0-24,10.7-24,24s10.7,24,24,24
		s24-10.7,24-24C82,38.8,71.2,28,58,28z"/>
	<rect x="66" y="54" fill="#69D0F4" width="36" height="36"/>
	<path fill="#0071BC" d="M100,56v32H68V56H100 M104,52H64v40h40V52z"/>
	<polygon fill="#FDE9A9" points="31.8,90 56,55.5 80.2,90 	"/>
	<path fill="#D68525" d="M56,59l20.3,29H35.7L56,59 M56,52L28,92h56L56,52z"/>
	<rect x="51" y="47" fill="#17CC4A" width="11" height="11"/>
	<rect x="23" y="84" fill="#17CC4A" width="11" height="11"/>
	<rect x="80" y="84" fill="#17CC4A" width="11" height="11"/>
</g>
</svg>
