<?xml version="1.0" encoding="utf-8"?>
<!-- Generator: Adobe Illustrator 24.0.0, SVG Export Plug-In . SVG Version: 6.00 Build 0)  -->
<svg version="1.1" id="图层_2" opacity="0.8" xmlns="http://www.w3.org/2000/svg" xmlns:xlink="http://www.w3.org/1999/xlink"
	 x="0px" y="0px" viewBox="0 0 16 16" style="enable-background:new 0 0 16 16;" xml:space="preserve">
<style type="text/css">
	.st0{fill:none;stroke:#1F2022;stroke-linecap:round;stroke-miterlimit:10;}
	.st1{fill:#1F2022;}
	.st2{fill-rule:evenodd;clip-rule:evenodd;fill:#1F2022;}
</style>
<path class="st0" d="M5.5,15.5h-2c-1.1,0-2-0.9-2-2v-11c0-1.1,0.9-2,2-2h8c1.1,0,2,0.9,2,2v2"/>
<path id="circle2567-3-9" class="st1" d="M10,5c-2.8,0-5,2.2-5,5s2.2,5,5,5s5-2.2,5-5S12.8,5,10,5z M10,6c2.2,0,4,1.8,4,4
	s-1.8,4-4,4s-4-1.8-4-4S7.8,6,10,6z"/>
<path id="path2570-3-7" class="st2" d="M13.4,12.6l-0.7,0.7l2.5,2.5l0.7-0.7L13.4,12.6z"/>
<rect x="4" y="5" class="st1" width="1" height="1"/>
<rect x="4" y="2" class="st1" width="1" height="1"/>
<rect x="10" y="2" class="st1" width="1" height="1"/>
</svg>
