<?xml version="1.0" encoding="utf-8"?>
<!-- Generator: Adobe Illustrator 24.0.0, SVG Export Plug-In . SVG Version: 6.00 Build 0)  -->
<svg version="1.1" id="图层_1" xmlns="http://www.w3.org/2000/svg" xmlns:xlink="http://www.w3.org/1999/xlink" x="0px" y="0px"
	 viewBox="0 0 128 128" enable-background="new 0 0 128 128" xml:space="preserve">
<title>mate-utils128</title>
<path fill="#455A64" d="M20,8h88c6.6,0,12,5.4,12,12v88c0,6.6-5.4,12-12,12H20c-6.6,0-12-5.4-12-12V20C8,13.4,13.4,8,20,8z"/>
<path fill="#18FFFF" d="M70.8,67.9L70.8,67.9c-1.2,1.1-3.1,1.1-4.2-0.1c-0.1-0.1-0.2-0.2-0.2-0.3L59,56.4c-0.9-1.3-2.8-1.7-4.1-0.7
	c-0.3,0.2-0.5,0.5-0.7,0.7L34.1,87c-0.8,1.2-0.4,2.8,0.8,3.6c0.5,0.3,1,0.4,1.6,0.4h54.9c1.4,0.1,2.7-1,2.8-2.4
	c0.1-0.7-0.2-1.5-0.7-2L74.9,67.9C73.8,66.8,71.9,66.8,70.8,67.9z"/>
<circle fill="#FDEFBA" cx="82.5" cy="44.5" r="8.5"/>
<rect x="20" y="20" opacity="0.6" fill="#607D8B" enable-background="new    " width="88" height="88"/>
<path fill="#69F0AE" d="M102,18v2H68v-2h-8v2H26v-2h-8v8h2v34h-2v8h2v34h-2v8h8v-2h34v2h8v-2h34v2h8v-8h-2V68h2v-8h-2V26h2v-8H102z
	 M104,60h-2v8h2v34h-2v2l-34.2,0.3L68,102h-8v2H26v-2h-2V68h2v-8h-2V26h2v-2h34v2h8v-2h34v2h2V60z"/>
</svg>
