<?xml version="1.0" encoding="utf-8"?>
<!-- Generator: Adobe Illustrator 24.0.0, SVG Export Plug-In . SVG Version: 6.00 Build 0)  -->
<svg version="1.1" id="图层_1" xmlns="http://www.w3.org/2000/svg" xmlns:xlink="http://www.w3.org/1999/xlink" x="0px" y="0px"
	 viewBox="0 0 128 128" enable-background="new 0 0 128 128" xml:space="preserve">
<title>memaker-112</title>
<ellipse transform="matrix(0.8631 -0.505 0.505 0.8631 -41.2386 24.2557)" fill="#D3993C" cx="24.1" cy="88.2" rx="8" ry="10.3"/>
<ellipse transform="matrix(0.8631 -0.505 0.505 0.8631 -41.2386 24.2557)" fill="#ECC079" cx="24.1" cy="88.2" rx="6.1" ry="7.9"/>
<ellipse transform="matrix(0.8631 -0.505 0.505 0.8631 -40.9821 24.5019)" fill="#99640F" cx="24.7" cy="87.9" rx="4.2" ry="5.4"/>
<ellipse transform="matrix(0.505 -0.8631 0.8631 0.505 -24.7066 133.3125)" fill="#D3993C" cx="103.9" cy="88.2" rx="10.3" ry="8"/>
<ellipse transform="matrix(0.505 -0.8631 0.8631 0.505 -24.7066 133.3125)" fill="#ECC079" cx="103.9" cy="88.2" rx="7.9" ry="6.1"/>
<ellipse transform="matrix(0.505 -0.8631 0.8631 0.505 -24.7037 132.6226)" fill="#99640F" cx="103.3" cy="87.8" rx="5.4" ry="4.2"/>
<path fill="#D19637" d="M106.6,61.1c0,32.5-19.1,58.9-42.6,58.9S21.5,93.6,21.5,61.1c0-1.9,0.1-3.7,0.2-5.5l10.8-11.5L42,56.3
	l9.7-11L64,58.4l9.5-14.3L84.3,57L94,44.1l12.4,12C106.5,57.7,106.6,59.4,106.6,61.1z"/>
<path fill="#F6C87D" d="M105.2,59.6c0,32.6-18.4,58.9-41.2,58.9S22.8,92.1,22.8,59.6c0-1.8,0.1-3.7,0.2-5.5l9.4-10L42,56.3l9.7-11
	L64,58.4l9.5-14.3L84.3,57L94,44.1l11,10.7C105.1,56.3,105.2,58,105.2,59.6z"/>
<path fill="#E9B86C" d="M104.2,57.6c0,32.6-18,58.9-40.2,58.9S23.8,90.2,23.8,57.6c0-1.5,0-3,0.1-4.5l8.5-9.1L42,56.3l9.7-11
	L64,58.4l9.5-14.3L84.3,57L94,44.1l10.1,9.8C104.2,55.1,104.2,56.4,104.2,57.6z"/>
<path fill="#F6CC40" d="M64,8C38.7,8,18.2,25.7,18.2,47.5c0,3.4,0.5,6.8,1.5,10.1l1.9-2l1.4-1.5l0.9-0.9l8.5-9.1L42,56.3l9.7-11
	L64,58.4l9.5-14.3L84.3,57L94,44.1l10.1,9.8l0.9,0.9l1.4,1.3l1.8,1.8c1.1-3.4,1.6-6.9,1.6-10.4C109.8,25.7,89.3,8,64,8z M107,50.6
	l-0.4,3.9l-0.3-0.3l-2.5-2.5l-9.9-9.6l-0.2,0.3l-0.3,0.5l-7.9,10.4L84,55.2l0,0l-1.5-1.8l-9.3-11l-7.2,10.9l-0.9,1.3L64,56.4
	l-0.1,0.2l-1.7-1.8l-2.3-2.4L52,44l-0.3-0.3l-0.4-0.4L43,52.7l-1,1l-0.1,0.1l-0.5,0.6L40,52.6l-7.2-9.3l-0.3-0.5l-0.6-0.7l-8.5,9
	l-1.5,1.7l-1.4,1.4L20.1,50C20,48.9,20,48,20,47c0-5.1,1.2-10.2,3.5-14.8c2.3-4.6,5.5-8.7,9.4-12c8.6-7.2,19.5-11.1,30.7-11
	c11.2-0.1,22.1,3.8,30.7,11c3.9,3.3,7.1,7.4,9.4,12C106.5,37.9,107.7,44.2,107,50.6z"/>
<path fill="#F5E038" d="M107.2,47c0,1.2-0.1,2.4-0.2,3.6l-0.4,3.9l-2.8-2.7l-9.9-9.6l-8.4,11.1L84,55.2l-1.5-1.8l-9.2-10.9
	l-8.1,12.2l-1.3,2l-1.7-1.8L51.3,43.3L43,52.7l-1.5,1.7L40,52.6l-8.1-10.5l-8.4,9l-2.9,3.1L20.1,50C20,48.9,20,48,20,47
	c0-5.1,1.2-10.2,3.5-14.8c2.3-4.6,5.5-8.7,9.4-12c8.6-7.2,19.5-11.1,30.7-11c11.2-0.1,22.1,3.8,30.7,11c3.9,3.3,7.1,7.4,9.4,12
	C106,36.8,107.2,41.9,107.2,47z"/>
<path fill="#FDF182" d="M103.7,32.2c-2.3-4.6-5.5-8.7-9.4-12C85.7,12.9,74.8,9,63.6,9.2c-11.2-0.1-22.1,3.8-30.7,11
	c-3.9,3.3-7.1,7.4-9.4,12C21.2,36.8,20,41.9,20,47c0,1,0,2,0.1,3l0.4,4.2l2.9-3.1l8.4-9L40,52.6l1.4,1.8l1.6-1.7l8.3-9.4l10.8,11.6
	l1.7,1.8l1.3-2l8.1-12.2l9.2,10.9l1.6,1.8l1.4-1.9l8.4-11.1l9.9,9.6l2.8,2.7l0.4-3.9c0.1-1.2,0.2-2.4,0.2-3.6
	C107.2,41.8,106,36.8,103.7,32.2z M105.1,50.3L93.6,39.2l-9.7,12.9L73.1,39.2l-9.5,14.4L51.3,40.5l-9.7,11L32,39.2L22,49.8
	c-0.1-0.9-0.1-1.9-0.1-2.8c0-19.8,18.7-35.9,41.7-35.9s41.7,16.1,41.7,35.9C105.2,48.1,105.2,49.2,105.1,50.3z"/>
<path fill="#975F04" d="M54.3,72.4c2,0,3.8,1,4.9,2.7c0.2,0.2,0.4,0.4,0.7,0.4l0,0c0.5,0,0.8-0.4,0.8-0.8c0-0.2,0-0.3-0.1-0.5
	c-2.2-3.5-6.8-4.5-10.3-2.3c-0.9,0.6-1.7,1.4-2.3,2.3c-0.3,0.4-0.1,0.9,0.2,1.2c0.1,0.1,0.3,0.1,0.5,0.1l0,0c0.3,0,0.6-0.1,0.7-0.4
	C50.5,73.5,52.4,72.5,54.3,72.4z"/>
<path fill="#975F04" d="M71.9,72.4c-2,0-3.8,1-4.9,2.7c-0.2,0.2-0.4,0.4-0.7,0.4l0,0c-0.5,0-0.8-0.4-0.8-0.8c0-0.2,0-0.3,0.1-0.5
	c2.2-3.5,6.8-4.5,10.3-2.3c0.9,0.6,1.7,1.4,2.3,2.3c0.3,0.4,0.1,0.9-0.2,1.2c-0.1,0.1-0.3,0.1-0.5,0.1l0,0c-0.3,0-0.6-0.1-0.7-0.4
	C75.7,73.5,73.9,72.5,71.9,72.4z"/>
<ellipse fill="#FFFFFF" cx="54.2" cy="81.5" rx="6.8" ry="6.9"/>
<ellipse fill="#D3D8DC" cx="54.2" cy="81.5" rx="5.9" ry="6"/>
<ellipse fill="#597EAE" cx="54.2" cy="81.5" rx="3.8" ry="3.9"/>
<ellipse fill="#193559" cx="54.2" cy="81.5" rx="1.5" ry="1.5"/>
<ellipse fill="#FFFFFF" cx="72.1" cy="81.5" rx="6.8" ry="6.9"/>
<ellipse fill="#D3D8DC" cx="72.1" cy="81.5" rx="5.9" ry="6"/>
<ellipse fill="#597EAE" cx="72.1" cy="81.5" rx="3.8" ry="3.9"/>
<ellipse fill="#193559" cx="72.1" cy="81.5" rx="1.4" ry="1.5"/>
<path fill="#975F04" d="M55.9,111.3c2.3,1.7,5.1,2.7,7.9,2.8c2.3,0,4.7-0.5,6.8-1.6c4.2-2,7.7-5.2,10-9.1c-2.7,2.4-5.7,4.3-9,5.6
	C66.6,111,61.3,111.8,55.9,111.3z"/>
<path fill="#C9871E" d="M72.2,95.6c0,0.5-0.1,1-0.2,1.5c-1,2.8-4.5,4.9-8.9,4.9c-3.8,0-7.1-1.6-8.4-3.9c-0.5-0.8-0.7-1.6-0.7-2.5
	c0.1-1.7,0.9-3.4,2.4-4.4c0.4-0.3,0.9-0.2,1.2,0.2c0.3,0.4,0.2,0.9-0.2,1.2c-1,0.7-1.6,1.8-1.7,3c0,2.6,3.3,4.8,7.4,4.8
	s7.4-2.1,7.4-4.8c-0.1-1.2-0.7-2.3-1.7-3c-0.4-0.3-0.5-0.8-0.2-1.2c0.1-0.1,0.2-0.2,0.3-0.3c0.1,0,0.2-0.1,0.3-0.1
	c0.2,0,0.4,0.1,0.5,0.2C71.3,92.2,72.2,93.9,72.2,95.6z"/>
<linearGradient id="SVGID_1_" gradientUnits="userSpaceOnUse" x1="63.12" y1="36.12" x2="63.12" y2="27.63" gradientTransform="matrix(1 0 0 -1 0 128)">
	<stop  offset="0" style="stop-color:#FFFFFF;stop-opacity:0"/>
	<stop  offset="1" style="stop-color:#F6C87D"/>
</linearGradient>
<path fill="url(#SVGID_1_)" d="M68.8,92.6c-0.2-0.2-0.3-0.4-0.3-0.7H57.7c0,0.3-0.1,0.5-0.3,0.7c-1,0.7-1.6,1.8-1.7,3
	c0,2.6,3.3,4.8,7.4,4.8s7.4-2.1,7.4-4.8C70.5,94.4,69.8,93.3,68.8,92.6z"/>
</svg>
