<?xml version="1.0" encoding="utf-8"?>
<!-- Generator: Adobe Illustrator 24.0.0, SVG Export Plug-In . SVG Version: 6.00 Build 0)  -->
<svg version="1.1" id="图层_1" xmlns="http://www.w3.org/2000/svg" xmlns:xlink="http://www.w3.org/1999/xlink" x="0px" y="0px"
	 viewBox="0 0 128 128" enable-background="new 0 0 128 128" xml:space="preserve">
<title>meritous-112</title>
<path fill="#1A237E" d="M20,8h88c6.6,0,12,5.4,12,12v88c0,6.6-5.4,12-12,12H20c-6.6,0-12-5.4-12-12V20C8,13.4,13.4,8,20,8z"/>
<path fill="#FFFFFF" d="M59.5,90.6V68.8c0-0.8-0.2-1.1-0.7-1.1s-0.7,0.3-0.7,1v21.9c0,0.5-0.2,0.8-0.6,0.8H43.5
	c-0.4,0-0.6-0.2-0.6-0.7V68.8c0-0.8-0.2-1.1-0.7-1.1s-0.7,0.3-0.7,1v21.9c0,0.2,0,0.4-0.1,0.6c-0.1,0.1-0.3,0.2-0.6,0.2H25V65.9
	c-0.1-4.6,1.5-9.1,4.5-12.5c5.1-6.1,14.2-6.9,20.3-1.8c0.3,0.2,0.6,0.5,0.8,0.8c3.2-2.8,6.4-4.1,9.7-4.1c4.8,0,8.7,1.7,11.5,5
	c2.8,3.3,4.2,8.1,4.2,14.3v23.8H60.2c-0.3,0.1-0.7-0.2-0.7-0.5C59.5,90.7,59.5,90.7,59.5,90.6z M73.4,88.4V67.5
	c0-5.2-1.2-9.2-3.5-12.1c-2.3-2.8-5.9-4.4-9.5-4.3c-3.2,0-6.5,1.7-9.8,5.2c-3-3.5-6.3-5.2-10-5.2c-3.5,0-6.9,1.6-9.2,4.3
	c-2.5,2.9-3.9,6.6-3.8,10.4v22.4h12.5V68.8c0-2.7,0.7-4.1,2-4.1c0.6-0.1,1.2,0.2,1.6,0.8c0.4,1,0.6,2.1,0.5,3.2v19.7h12.5V68.8
	c0-2.7,0.7-4.1,2.1-4.1c1.3,0,2,1.3,2,4v19.6L73.4,88.4z"/>
<path fill="#FFFFFF" d="M103,92.5c-7.8,0-13.7-2-17.7-5.9c-4-4-6-9.8-6-17.5V35.5h17.9v14.7h5.6v20.3h-5.2c0.4,1.2,2.2,1.8,5.4,1.8
	V92.5z M100.3,89.5V75.2c-2.2,0-3.8-0.5-4.6-1.6c-0.8-1.1-1.2-3.1-1.2-6h5.6V53.2h-5.6V38.5H82v30.6c0,6.5,1.6,11.6,4.8,15.1
	S94.6,89.5,100.3,89.5L100.3,89.5z"/>
</svg>
