<?xml version="1.0" encoding="utf-8"?>
<!-- Generator: Adobe Illustrator 24.0.0, SVG Export Plug-In . SVG Version: 6.00 Build 0)  -->
<svg version="1.1" id="图层_1" xmlns="http://www.w3.org/2000/svg" xmlns:xlink="http://www.w3.org/1999/xlink" x="0px" y="0px"
	 viewBox="0 0 128 128" enable-background="new 0 0 128 128" xml:space="preserve">
<title>mnemosyne128</title>
<polygon opacity="0.6" fill="#333333" enable-background="new    " points="97.4,83.3 56.2,69.4 86.6,38.6 118,46 "/>
<ellipse opacity="0.3" enable-background="new    " cx="49.9" cy="113.9" rx="26.6" ry="9.1"/>
<path fill="#C1272D" d="M26.1,106.1L26.1,106.1c-0.3-0.1-0.4-0.4-0.4-0.7c0.1-0.3,0.2-0.7,0.3-1c1.7-6.5,3.6-13.2,4.4-14.5
	c1.1-1.8,6.2-0.9,8.3-0.4V78.9h1.1v12l-0.7-0.2c-3.3-0.8-7.2-1.2-7.7-0.3c-0.9,1.4-3.4,10.7-4.3,14.2c-0.1,0.5-0.2,0.8-0.3,1
	C26.7,106,26.5,106.2,26.1,106.1C26.1,106.1,26.1,106.1,26.1,106.1z"/>
<linearGradient id="SVGID_1_" gradientUnits="userSpaceOnUse" x1="43.661" y1="32.395" x2="51.191" y2="32.395" gradientTransform="matrix(1 0 0 -1 0 128)">
	<stop  offset="0" style="stop-color:#CC1717"/>
	<stop  offset="1" style="stop-color:#4D4D4D"/>
</linearGradient>
<path fill="url(#SVGID_1_)" d="M44.2,110.9c-0.2-2.5-1.1-15.3,0.1-17c0.7-1,1.5-1.9,2.4-2.8c1.3-1.4,3.4-3.7,3.4-4.3
	s-2.4-3.5-4.7-5.7l0.8-0.8c1.2,1.2,5,5.1,5,6.5c0,1-1.4,2.6-3.7,5.1c-0.8,0.8-1.6,1.7-2.3,2.7c-0.7,1-0.4,10.2,0.1,16.3L44.2,110.9z
	"/>
<linearGradient id="SVGID_2_" gradientUnits="userSpaceOnUse" x1="51.32" y1="29.365" x2="60.49" y2="29.365" gradientTransform="matrix(1 0 0 -1 0 128)">
	<stop  offset="0" style="stop-color:#CC1717"/>
	<stop  offset="1" style="stop-color:#4D4D4D"/>
</linearGradient>
<path fill="url(#SVGID_2_)" d="M59.5,115.7c-0.7-1.4-6.9-14.3-6.9-16.9c0-1.6,1.7-4,3.4-6.3c0.9-1.3,2.2-3.1,2.2-3.6
	c-0.1-0.8-3.6-3.9-6.8-6.3l0.7-0.9c1.7,1.3,7.1,5.4,7.3,7c0.1,0.8-0.8,2.2-2.4,4.4c-1.4,2-3.2,4.4-3.2,5.7c0,2,4.9,12.6,6.8,16.4
	L59.5,115.7z"/>
<path fill="#F5A816" d="M29.8,104.9c-4.2,0-8.2-2.3-10.3-5.9c-2.1-3.4-2-8.1,0.3-13.4c1.1-2.5,2.5-4.8,4.2-7l0.9,0.7
	c-0.1,0.1-9.1,11.6-4.4,19.2c2,3.4,5.7,5.4,9.6,5.4c2.8-0.1,5.4-1.2,6.3-2.8c1.4-2.2,1.8-5,1-7.5c-0.8-2.2-2.6-4-4.9-4.8
	c-2.8-1.2-5.4,0.5-6.8,2.6c-1.2,1.9-1.5,4.5,0.3,6.1c2.5,2.2,4.5,1.7,5.5,1.3c1.2-0.4,2-1.5,2.2-2.7c0.1-1-0.3-1.9-1-2.5
	c-1.2-0.8-3.4-0.2-4.2,0.1l-0.4-1c0.1-0.1,3.2-1.3,5.2,0c1.1,0.8,1.6,2.1,1.5,3.4c-0.2,1.7-1.3,3.1-2.8,3.7
	c-2.1,0.9-4.5,0.4-6.7-1.4c-2.3-2-1.9-5.2-0.5-7.5c1.5-2.5,4.8-4.5,8.1-3.1c2.6,0.9,4.6,3,5.5,5.5c0.8,2.8,0.4,5.9-1.1,8.4
	c-1.1,1.9-4,3.3-7.3,3.3L29.8,104.9z"/>
<path fill="#D6221E" d="M115.9,83.4c-0.7-3.5-6.8-6.2-14.8-8.2c-1,5.7-8.9,13.4-20.7,11.7c-10.2-1.4-19-10.3-24.5-17.3
	c-1.1,1-6.9,6.6-4.1,11.1C55.1,86,70.6,92.5,85,96.7c1.9-3.6,9.8-12.6,9.8-12.6c-5.5,7.3-7.2,11.2-7.8,13.2c1.1,0.3,2.3,0.6,3.4,0.9
	c1.9-3.6,9.8-12.6,9.8-12.6c-5.4,7.2-7.2,11.1-7.7,13.1c1.3,0.3,2.5,0.6,3.8,0.8c2.4-3.9,9.3-11.8,9.3-11.8
	c-4.7,6.3-6.7,10-7.5,12.2c2.3,0.4,4.6,0.7,6.9,0.9C113.2,101.3,118.2,94.7,115.9,83.4z"/>
<linearGradient id="SVGID_3_" gradientUnits="userSpaceOnUse" x1="59.2336" y1="55.8422" x2="31.47" y2="55.8422" gradientTransform="matrix(1 0 0 -1 0 128)">
	<stop  offset="0" style="stop-color:#BD0D0D"/>
	<stop  offset="1" style="stop-color:#F44336"/>
</linearGradient>
<path fill="url(#SVGID_3_)" d="M55,71.3c2.2,1.9,3.2,5.3,3.1,8.4c2-3.8,1.3-10.1-2-13c-3.9-3.5-16-1.7-16-1.7s-4.9,7.4-6.4,10
	s-2.2,4.3-2.2,4.3l1.2,0.3c1.6-2.7,6.3-9.9,6.3-9.9S51.1,67.8,55,71.3z"/>
<linearGradient id="SVGID_4_" gradientUnits="userSpaceOnUse" x1="58.1141" y1="51.9995" x2="32.64" y2="51.9995" gradientTransform="matrix(1 0 0 -1 0 128)">
	<stop  offset="0" style="stop-color:#CC1717"/>
	<stop  offset="1" style="stop-color:#F44336"/>
</linearGradient>
<path fill="url(#SVGID_4_)" d="M58.1,79.7c0.1-3.2-1-6.5-3.1-8.4c-3.9-3.5-16-1.7-16-1.7s-4.8,7.2-6.3,9.9c3.5,0.7,14,2.8,20.1,3.3
	C55,83,57.2,81.8,58.1,79.7z"/>
<linearGradient id="SVGID_5_" gradientUnits="userSpaceOnUse" x1="89.131" y1="64.839" x2="68.9045" y2="44.6125" gradientTransform="matrix(1 0 0 -1 0 128)">
	<stop  offset="0" style="stop-color:#D6221E"/>
	<stop  offset="1" style="stop-color:#CCCCCC"/>
</linearGradient>
<path fill="url(#SVGID_5_)" d="M80.4,86.9c11.8,1.7,19.7-6,20.7-11.7c-17.7-4.4-45-5.7-45-5.7l-0.2,0.2
	C61.4,76.6,70.2,85.4,80.4,86.9z"/>
<path fill="#4CAF50" d="M28.8,60.3c0,0-5.3-15.5-7.2-17.3c-1.5-1.5-2.6-1.5-0.6,0.9s7.8,18.3,7.8,18.3S29.5,62.1,28.8,60.3z"/>
<path fill="#4CAF50" d="M24.6,63.5c0,0-10.6-10.1-14.1-11.5c-0.9-0.4-0.6,0.6,0.2,0.9c1.2,0.6,13.3,11.1,13.7,11.5
	S26.1,65.2,24.6,63.5z"/>
<rect x="59" y="16.5" transform="matrix(0.9562 -0.2929 0.2929 0.9562 -7.3531 23.9165)" opacity="0.4" fill="#4D4D4D" enable-background="new    " width="34.3" height="40"/>
<rect x="59.5" y="33.4" transform="matrix(0.2588 -0.9659 0.9659 0.2588 7.1002 117.8694)" fill="#F6E4C7" width="41.7" height="41.7"/>
<ellipse transform="matrix(0.5548 -0.832 0.832 0.5548 -44.436 56.0631)" fill="#D6221E" cx="30.2" cy="69.6" rx="12.6" ry="9.1"/>
<ellipse transform="matrix(0.5548 -0.832 0.832 0.5548 -43.0504 56.1922)" fill="#2196F3" cx="31" cy="68.3" rx="7.9" ry="5.7"/>
<ellipse transform="matrix(0.6058 -0.7956 0.7956 0.6058 -39.0468 50.5728)" fill="#64B5F6" cx="31.5" cy="64.7" rx="3.4" ry="2.3"/>
<path fill="#E57373" d="M85,96.7l2,0.6c0.5-1.9,2.3-5.9,7.8-13.2C94.8,84.1,86.9,93.1,85,96.7z"/>
<path fill="#E57373" d="M90.4,98.2l2,0.5c0.6-2,2.4-5.9,7.7-13.1C100.2,85.6,92.3,94.6,90.4,98.2z"/>
<path fill="#E57373" d="M96.2,99.5c0.6,0.1,1.3,0.3,1.9,0.4c0.8-2.2,2.8-6,7.5-12.2C105.6,87.6,98.6,95.6,96.2,99.5z"/>
<rect x="37.1" y="12.2" transform="matrix(0.866 -0.5 0.5 0.866 -10.4908 33.9021)" fill="#D7E0EA" width="41.7" height="48.7"/>
<rect x="39.5" y="20.9" transform="matrix(0.866 -0.5 0.5 0.866 -16.9114 27.4826)" fill="#C1CFDB" width="6.7" height="48.7"/>
<circle fill="#FFFFFF" cx="48.5" cy="55" r="1.5"/>
<circle fill="#A2BACC" cx="48.5" cy="55" r="0.7"/>
<circle fill="#FFFFFF" cx="38.1" cy="37.2" r="1.5"/>
<circle fill="#A2BACC" cx="38.1" cy="37.2" r="0.7"/>
</svg>
