<?xml version="1.0" encoding="utf-8"?>
<!-- Generator: Adobe Illustrator 24.0.0, SVG Export Plug-In . SVG Version: 6.00 Build 0)  -->
<svg version="1.1" id="图层_1" xmlns="http://www.w3.org/2000/svg" xmlns:xlink="http://www.w3.org/1999/xlink" x="0px" y="0px"
	 viewBox="0 0 128 128" enable-background="new 0 0 128 128" xml:space="preserve">
<title>nautilus128</title>
<path fill="#FBC02D" d="M40,10H16c-3.3,0-6,2.7-6,6v74.2c0,6.8,5.5,12.3,12.3,12.3c0,0,0,0,0,0h83.3c6.8,0,12.3-5.5,12.3-12.3V25
	c0-3.3-2.7-6-6-6H49.8c-2.3,0-4.4-1.3-5.4-3.4l-2.1-4.2C41.9,10.5,41,10,40,10z"/>
<path fill="#F5A816" d="M111,114H17c-6.6,0-12-5.4-12-12V37c0-3.3,2.7-6,6-6h106c3.3,0,6,2.7,6,6v65C123,108.6,117.6,114,111,114z"
	/>
<circle fill="#FBC02D" cx="95" cy="90" r="26"/>
<path fill="#FFFFFF" d="M95,66c13.3,0,24,10.7,24,24s-10.7,24-24,24s-24-10.7-24-24S81.7,66,95,66 M95,62c-15.5,0-28,12.5-28,28
	s12.5,28,28,28s28-12.5,28-28S110.5,62,95,62L95,62z"/>
<polygon fill="#F57F17" points="95.5,75 82,91 85,91 85,103 106,103 106,91 109,91 "/>
</svg>
