<?xml version="1.0" encoding="utf-8"?>
<!-- Generator: Adobe Illustrator 24.0.0, SVG Export Plug-In . SVG Version: 6.00 Build 0)  -->
<svg version="1.1" id="图层_1" xmlns="http://www.w3.org/2000/svg" xmlns:xlink="http://www.w3.org/1999/xlink" x="0px" y="0px"
	 viewBox="0 0 128 128" enable-background="new 0 0 128 128" xml:space="preserve">
<title>neverball-112</title>
<path fill="#616161" d="M114.2,104.9c0,4.7-22.5,14.6-50.2,14.6s-50.2-10-50.2-14.6s22.5-8.5,50.2-8.5S114.2,100.2,114.2,104.9z"/>
<path fill="#E0E0E0" d="M64,8.5c-25.3,0-46.8,18.6-50.5,43.6c16.5-3.9,33.5-5.9,50.5-6V8.5z"/>
<path fill="#212121" d="M65.2,46.1c16.5,0,33,1.8,49.2,5.5c-3.9-24.8-25.3-43-50.4-43v37.6H65.2z"/>
<path fill="#212121" d="M64,110.5V46.1c-17,0.1-33.9,2.1-50.5,6c-4.1,27.9,15.2,53.8,43,57.9C59,110.3,61.5,110.5,64,110.5z"/>
<path fill="#E0E0E0" d="M64,46.1v64.4c28.2,0,51-22.8,51-51c0-2.7-0.2-5.3-0.6-8c-16.1-3.6-32.6-5.5-49.2-5.5L64,46.1z"/>
</svg>
