<?xml version="1.0" encoding="utf-8"?>
<!-- Generator: Adobe Illustrator 24.0.0, SVG Export Plug-In . SVG Version: 6.00 Build 0)  -->
<svg version="1.1" id="图层_2" opacity="0.8" xmlns="http://www.w3.org/2000/svg" xmlns:xlink="http://www.w3.org/1999/xlink"
	 x="0px" y="0px" viewBox="0 0 16 16" style="enable-background:new 0 0 16 16;" xml:space="preserve">
<style type="text/css">
	.st0{fill:#1F2022;}
	.st1{fill:none;stroke:#1F2022;stroke-linecap:round;stroke-miterlimit:10;}
</style>
<g>
	<path class="st0" d="M13,1c0.6,0,1,0.4,1,1v12c0,0.6-0.4,1-1,1H3c-0.6,0-1-0.4-1-1V2c0-0.6,0.4-1,1-1H13 M13,0H3C1.9,0,1,0.9,1,2
		v12c0,1.1,0.9,2,2,2h10c1.1,0,2-0.9,2-2V2C15,0.9,14.1,0,13,0L13,0z"/>
</g>
<rect x="2" y="1" class="st0" width="12" height="2"/>
<line class="st1" x1="5.5" y1="11.5" x2="9.5" y2="11.5"/>
<line class="st1" x1="5.5" y1="9.5" x2="12.5" y2="9.5"/>
<line class="st1" x1="5.5" y1="7.5" x2="12.5" y2="7.5"/>
<line class="st1" x1="5.5" y1="5.5" x2="12.5" y2="5.5"/>
<line class="st1" x1="3.5" y1="3" x2="3.5" y2="15"/>
</svg>
