<?xml version="1.0" encoding="utf-8"?>
<!-- Generator: Adobe Illustrator 24.0.0, SVG Export Plug-In . SVG Version: 6.00 Build 0)  -->
<svg version="1.1" id="OpenJDK" xmlns="http://www.w3.org/2000/svg" xmlns:xlink="http://www.w3.org/1999/xlink" x="0px" y="0px"
	 viewBox="0 0 128 128" enable-background="new 0 0 128 128" xml:space="preserve">
<title>128</title>
<g id="_128">
	<path fill="#A6A9AE" d="M20,8h88c6.6,0,12,5.4,12,12v88c0,6.6-5.4,12-12,12H20c-6.6,0-12-5.4-12-12V20C8,13.4,13.4,8,20,8z"/>
	<g id="_128-3">
		<path fill="none" stroke="#000000" stroke-width="3" stroke-miterlimit="10" d="M47.3,67.5c0,0-20.9-4.2-22.7,12.4"/>
		<path d="M26,92.5c2,0,2.1-2.3,4.8-4.2s7.3,0.5,6.9-3.6s-14.6-6.6-14.6-6.6C21.5,93.9,22.3,92.5,26,92.5z"/>
		<path fill="none" stroke="#000000" stroke-width="3" stroke-miterlimit="10" d="M82.8,66.9c0,0,11.6,17.6,13.4,20.6"/>
		<path d="M101.5,76.8v-4.3c0.1-1-0.7-1.9-1.7-2s-1.9,0.7-2,1.7l0,0c0,0.1,0,0.2,0,0.3v4.2c-2.1,1.1-3.6,4-3.6,7.6
			c0,4.4,2.4,8,5.4,8s5.4-3.6,5.4-8C105,80.8,103.5,77.9,101.5,76.8z"/>
		<path d="M82.2,61.3c-3.4-7.7-7.9-14.9-13.4-21.3c-7.2-8.4-18-15.3-21.8-17c0,0,9.5,15.3-1,46.3C53,63.8,72.5,59.8,82.2,61.3z"/>
		
			<linearGradient id="SVGID_1_" gradientUnits="userSpaceOnUse" x1="64.4701" y1="-617.0006" x2="64.4701" y2="-573.034" gradientTransform="matrix(1 0 0 -1 0 -512)">
			<stop  offset="0" style="stop-color:#CCCCCC"/>
			<stop  offset="1" style="stop-color:#FFFFFF"/>
		</linearGradient>
		<path fill="url(#SVGID_1_)" d="M84.5,67c-0.7-1.8-1.4-3.7-2.3-5.6c-9.7-1.6-29.2,2.5-36.2,8c-0.3,0.8-0.6,1.6-0.9,2.5
			c-11.9,32.7-0.1,31.4,2.9,30.8c3.5-0.8,21.4-17.5,29.1-5.1c6.8,11.1,9.9,6.9,10.4,5.9C89.2,100,90.8,83.8,84.5,67z"/>
		
			<radialGradient id="SVGID_2_" cx="101.6879" cy="-586.6179" r="14.97" gradientTransform="matrix(0.95 0 0 -0.95 -33.98 -498.92)" gradientUnits="userSpaceOnUse">
			<stop  offset="0" style="stop-color:#FFCFCF"/>
			<stop  offset="1" style="stop-color:#FF1518"/>
		</radialGradient>
		<path fill="url(#SVGID_2_)" d="M64,53.4c7.1-1.4,13.9,2.4,15,8.5s-3.6,12.1-10.8,13.5s-13.9-2.4-15-8.4S56.9,54.8,64,53.4z"/>
	</g>
</g>
</svg>
