<?xml version="1.0" encoding="utf-8"?>
<!-- Generator: Adobe Illustrator 24.0.0, SVG Export Plug-In . SVG Version: 6.00 Build 0)  -->
<svg version="1.1" id="opera" xmlns="http://www.w3.org/2000/svg" xmlns:xlink="http://www.w3.org/1999/xlink" x="0px" y="0px"
	 viewBox="0 0 96 96" style="enable-background:new 0 0 96 96;" xml:space="preserve">
<title>96</title>
<g id="_96">
	
		<linearGradient id="SVGID_1_" gradientUnits="userSpaceOnUse" x1="48" y1="92" x2="48" y2="4" gradientTransform="matrix(1 0 0 -1 0 96)">
		<stop  offset="0" style="stop-color:#990012"/>
		<stop  offset="1" style="stop-color:#FF1B2F"/>
	</linearGradient>
	<path style="fill:url(#SVGID_1_);" d="M48,4C23.7,4,4,23.7,4,48s19.7,44,44,44s44-19.7,44-44S72.3,4,48,4z M47.5,78.2
		C35.6,78.2,26,64.7,26,48s9.6-30.2,21.5-30.2S68.9,31.3,68.9,48S59.3,78.2,47.5,78.2z"/>
	
		<linearGradient id="SVGID_2_" gradientUnits="userSpaceOnUse" x1="35.1795" y1="4" x2="35.1795" y2="92.0107" gradientTransform="matrix(1 0 0 -1 0 96)">
		<stop  offset="0" style="stop-color:#990012"/>
		<stop  offset="1" style="stop-color:#FF1B2F"/>
	</linearGradient>
	<path style="fill:url(#SVGID_2_);" d="M66,88c-22.1,0-40-17.9-40-40S43.9,8,66,8h0.3C44.3-2.1,18.1,7.6,8,29.7S7.6,77.9,29.7,88
		c11.6,5.3,25,5.3,36.7,0H66z"/>
</g>
</svg>
