<?xml version="1.0" encoding="utf-8"?>
<!-- Generator: Adobe Illustrator 24.0.0, SVG Export Plug-In . SVG Version: 6.00 Build 0)  -->
<svg version="1.1" id="图层_1" xmlns="http://www.w3.org/2000/svg" xmlns:xlink="http://www.w3.org/1999/xlink" x="0px" y="0px"
	 viewBox="0 0 128 128" enable-background="new 0 0 128 128" xml:space="preserve">
<title>packeth-112</title>
<polygon fill="#689F38" points="59.8,53.8 116.3,32.2 116.5,98.9 60,120.5 "/>
<polyline points="101.9,51 74.4,61.3 74.4,68.1 84.5,64.3 84.4,97.9 91.8,95.2 91.8,61.5 101.9,57.7 101.9,51 "/>
<polygon fill="#2196F3" points="11.5,29.1 68,7.5 116.3,32.2 59.8,53.8 "/>
<path d="M71.5,24.5c0.3,0.2,0.7,0.4,1.3,0.6l0.4,0.2c3.8,2,4.1,3.5,0.9,4.8c-3.2,1.3-6.8,1.1-9.8-0.5c-0.4-0.2-0.8-0.5-1.3-0.7
	c-0.8-0.5-1.4-0.9-1.7-1l9.5-3.6C71.1,24.3,71.3,24.5,71.5,24.5 M79.8,23.6l-0.4-0.2l-9-4.6l-34,13l6.2,3.1l13-5l4.6,2.3
	c6.4,3.2,13.9,3.6,20.6,1.1C87.8,30.8,87.4,27.5,79.8,23.6"/>
<polygon fill="#FF5722" points="59.8,53.8 60,120.5 11.7,95.8 11.5,29.1 "/>
<path d="M46.9,60.4l-7.3-3.7l-9.7,12.4l-0.1-17.4l-6.3-3.2l0.1,40.3L30,92l-0.1-20.5l10.3,25.7l7.7,4L36.2,73L46.9,60.4"/>
</svg>
