<?xml version="1.0" encoding="utf-8"?>
<!-- Generator: Adobe Illustrator 24.0.0, SVG Export Plug-In . SVG Version: 6.00 Build 0)  -->
<svg version="1.1"
	 id="svg7384" xmlns:cc="http://creativecommons.org/ns#" xmlns:dc="http://purl.org/dc/elements/1.1/" xmlns:osb="http://www.openswatchbook.org/uri/2009/osb" xmlns:rdf="http://www.w3.org/1999/02/22-rdf-syntax-ns#" xmlns:svg="http://www.w3.org/2000/svg" opacity="0.8"
	 xmlns="http://www.w3.org/2000/svg" xmlns:xlink="http://www.w3.org/1999/xlink" x="0px" y="0px" viewBox="0 0 16 16"
	 style="enable-background:new 0 0 16 16;" xml:space="preserve">
<style type="text/css">
	.st0{fill:#1F2022;}
	.st1{fill:none;stroke:#1F2022;stroke-miterlimit:10;}
</style>
<path id="path2514" class="st0" d="M8,5v2c-0.4,0-0.7,0.1-1,0.2C6.6,7.4,6.4,7.6,6.2,7.9S6,8.6,6,9.1v1.9c0,0.4,0.1,0.8,0.2,1.1
	c0.2,0.3,0.4,0.6,0.8,0.7c0,0,0,0,0,0v-1.8V10V9.1c0-0.3,0-0.6,0.1-0.7s0.1-0.2,0.2-0.2C7.6,8,8.3,8,9.4,8h3.3c1,0,1.7,0,2,0.2
	c0.1,0.1,0.2,0.1,0.2,0.2C15,8.5,15,8.7,15,9.1V10v0.9v1.8c0,0,0,0,0,0c0.3-0.1,0.6-0.4,0.8-0.7c0.2-0.3,0.2-0.7,0.2-1.1V9.1
	c0-0.4-0.1-0.8-0.2-1.1c-0.2-0.3-0.4-0.6-0.8-0.7c-0.3-0.1-0.6-0.2-1-0.2V5H8z M9,6h4v1c-0.1,0-0.2,0-0.4,0h0H9.4h0C9.2,7,9.1,7,9,7
	L9,6z M13.5,9C13.2,9,13,9.2,13,9.5s0.2,0.5,0.5,0.5S14,9.8,14,9.5S13.8,9,13.5,9z M8,11v4h6v-4h-1v3H9v-3H8z"/>
<path class="st1" d="M5,9.5H2.5c-1.1,0-2-0.9-2-2v-4c0-1.1,0.9-2,2-2h7c1.1,0,2,0.9,2,2V4"/>
<line class="st1" x1="4" y1="11.5" x2="5" y2="11.5"/>
</svg>
