<svg id="mail-send" xmlns="http://www.w3.org/2000/svg" viewBox="0 0 16 16"><defs><style>.cls-1{fill:#1f2022;opacity:0.75;}</style></defs><title>send-to-symbolic</title><path class="cls-1" d="M12.5,11a2.51,2.51,0,0,0-1.9.87L5.89,9.25a2.61,2.61,0,0,0,0-1.5L10.6,5.13A2.5,2.5,0,1,0,10,3.5a2.67,2.67,0,0,0,.11.75L5.4,6.87a2.5,2.5,0,1,0,0,3.26l4.71,2.62a2.67,2.67,0,0,0-.11.75A2.5,2.5,0,1,0,12.5,11ZM11,3.5A1.5,1.5,0,1,1,12.5,5a1.45,1.45,0,0,1-1-.38A1.49,1.49,0,0,1,11,3.75,2,2,0,0,1,11,3.5ZM3.5,10a1.5,1.5,0,0,1,0-3,1.45,1.45,0,0,1,1,.38A1.49,1.49,0,0,1,5,8.25a1.57,1.57,0,0,1,0,.5,1.49,1.49,0,0,1-.49.87A1.45,1.45,0,0,1,3.5,10Zm9,5A1.5,1.5,0,0,1,11,13.5a2,2,0,0,1,0-.25,1.49,1.49,0,0,1,.49-.87,1.45,1.45,0,0,1,1-.38,1.5,1.5,0,0,1,0,3Z"/></svg>