<?xml version="1.0" encoding="utf-8"?>
<!-- Generator: Adobe Illustrator 24.0.0, SVG Export Plug-In . SVG Version: 6.00 Build 0)  -->
<svg version="1.1" id="PulseAudio音量控制" xmlns="http://www.w3.org/2000/svg" xmlns:xlink="http://www.w3.org/1999/xlink"
	 x="0px" y="0px" viewBox="0 0 128 128" enable-background="new 0 0 128 128" xml:space="preserve">
<title>128</title>
<g id="_128">
	
		<linearGradient id="SVGID_1_" gradientUnits="userSpaceOnUse" x1="63.2494" y1="11.64" x2="64.7195" y2="114.19" gradientTransform="matrix(1 0 0 -1 0 128)">
		<stop  offset="0" style="stop-color:#393A38"/>
		<stop  offset="1" style="stop-color:#646564"/>
	</linearGradient>
	<path fill="url(#SVGID_1_)" d="M20,8h88c6.6,0,12,5.4,12,12v88c0,6.6-5.4,12-12,12H20c-6.6,0-12-5.4-12-12V20C8,13.4,13.4,8,20,8z"
		/>
	<circle fill="#8BB0D8" cx="64" cy="64" r="14"/>
	<path fill="#8BB0D8" d="M30,64c0-18.3,7.9-34,19.3-41.5c-22.9,8.1-34.9,33.3-26.7,56.2C27,91.2,36.8,101,49.3,105.5
		C37.9,98,30,82.3,30,64z"/>
	<path fill="#8BB0D8" d="M108,64c0-18.6-11.7-35.2-29.3-41.5C90.1,30,98,45.7,98,64s-7.9,34-19.3,41.5C96.3,99.2,108,82.6,108,64z"
		/>
	<path fill="#8BB0D8" d="M42,64c0-10.8,4.2-20.2,10.4-25.5c-14.1,6.4-20.3,23-13.8,37.1c2.8,6.1,7.7,11,13.8,13.8
		C46.2,84.2,42,74.8,42,64z"/>
	<path fill="#8BB0D8" d="M92,64c0-11-6.4-20.9-16.4-25.5C81.8,43.8,86,53.2,86,64s-4.2,20.2-10.4,25.5C85.6,84.9,92,75,92,64z"/>
</g>
</svg>
