<?xml version="1.0" encoding="utf-8"?>
<!-- Generator: Adobe Illustrator 24.0.0, SVG Export Plug-In . SVG Version: 6.00 Build 0)  -->
<svg version="1.1" id="图层_1" xmlns="http://www.w3.org/2000/svg" xmlns:xlink="http://www.w3.org/1999/xlink" x="0px" y="0px"
	 viewBox="0 0 128 128" enable-background="new 0 0 128 128" xml:space="preserve">
<title>pysycache128</title>
<ellipse fill="#FFFFFF" cx="83.6" cy="44.6" rx="3.1" ry="9.5"/>
<path fill="#333333" d="M83.6,54.4c-2.1,0-3.3-5-3.3-9.8s1.3-9.8,3.3-9.8s3.3,5,3.3,9.8S85.7,54.4,83.6,54.4z M83.6,35.3
	c-1.4,0-2.8,3.7-2.8,9.3s1.5,9.3,2.8,9.3s2.8-3.7,2.8-9.3S85,35.3,83.6,35.3z"/>
<ellipse fill="#0071BC" cx="83.6" cy="44.6" rx="2.1" ry="6.4"/>
<ellipse fill="#FFFFFF" cx="58.8" cy="44.6" rx="3.1" ry="9.5"/>
<path fill="#333333" d="M58.8,54.4c-2.1,0-3.3-5-3.3-9.8s1.3-9.8,3.3-9.8s3.3,5,3.3,9.8S60.9,54.4,58.8,54.4z M58.8,35.3
	c-1.4,0-2.8,3.7-2.8,9.3s1.5,9.3,2.8,9.3s2.8-3.7,2.8-9.3S60.2,35.3,58.8,35.3z"/>
<ellipse fill="#0071BC" cx="58.8" cy="44.6" rx="2.1" ry="6.4"/>
<ellipse fill="#00FF00" cx="64" cy="74.9" rx="58.7" ry="8.2"/>
<path fill="#009245" d="M64,83.4c-29,0-59-3.2-59-8.5s30-8.5,59-8.5s59,3.2,59,8.5S93,83.4,64,83.4z M64,66.9c-35,0-58.5,4.1-58.5,8
	s23.5,8,58.5,8s58.5-4.1,58.5-8S99,66.9,64,66.9z"/>
<circle fill="#FFFF00" cx="71.2" cy="67.7" r="25.3"/>
<path fill="#009245" d="M71.2,93.2c-14.1,0-25.5-11.4-25.5-25.5s11.4-25.5,25.5-25.5s25.5,11.4,25.5,25.5
	C96.7,81.8,85.3,93.2,71.2,93.2z M71.2,42.7c-13.8,0-25,11.2-25,25s11.2,25,25,25s25-11.2,25-25S85,42.7,71.2,42.7z"/>
<path fill="#0071BC" d="M54.4,86.6l16.1-11.1l16.9,11.7c1.2-1,2.3-2.1,3.3-3.3l-20.2-9.9l-19.2,9.4C52.3,84.5,53.3,85.6,54.4,86.6z"
	/>
<path fill="#00796B" d="M54.4,86.6c9.4,8.3,23.4,8.5,33,0.5L70.5,75.4L54.4,86.6z"/>
<circle fill="#333333" cx="70.8" cy="72.9" r="4.4"/>
<path fill="#B71C1C" d="M71.1,85c1.8,0,3.5-0.3,5.2-0.9c0.2-0.1,0,1.5-5.2,1.5s-5.3-2-5.2-1.8C67.6,84.6,69.3,85,71.1,85z"/>
</svg>
