<?xml version="1.0" encoding="utf-8"?>
<!-- Generator: Adobe Illustrator 24.0.0, SVG Export Plug-In . SVG Version: 6.00 Build 0)  -->
<svg version="1.1" id="图层_1" xmlns="http://www.w3.org/2000/svg" xmlns:xlink="http://www.w3.org/1999/xlink" x="0px" y="0px"
	 viewBox="0 0 128 128" enable-background="new 0 0 128 128" xml:space="preserve">
<title>pytrainer-112</title>
<path d="M77.3,10C56.1,9.9,38.8,27,38.6,48.2c-0.1,21.2,17,38.5,38.2,38.7s38.5-17,38.7-38.2c0-0.1,0-0.2,0-0.2
	C115.5,27.3,98.5,10.1,77.3,10z M77.3,79.9C59.9,80,45.8,66,45.6,48.6S59.5,17.1,76.9,17c17.4-0.1,31.6,13.9,31.7,31.3
	c0,0.1,0,0.1,0,0.2C108.6,65.7,94.6,79.8,77.3,79.9z"/>
<path fill="#4D4D4D" d="M77.3,17c-17.4-0.1-31.6,13.9-31.7,31.3s13.9,31.6,31.3,31.7c17.4,0.1,31.6-13.9,31.7-31.3
	c0-0.1,0-0.1,0-0.2C108.6,31.2,94.6,17.1,77.3,17z M77.3,77c-15.8,0.1-28.6-12.6-28.7-28.4C48.5,32.9,61.2,20,76.9,19.9
	s28.6,12.6,28.7,28.4c0,0.1,0,0.1,0,0.2C105.7,64.2,93,77,77.3,77C77.3,77,77.3,77,77.3,77z"/>
<path fill="#959595" d="M105.7,48.4c-0.1,15.7-12.9,28.3-28.5,28.2S48.9,63.7,49,48c0.1-15.6,12.8-28.2,28.4-28.2
	C93,19.9,105.7,32.7,105.7,48.4C105.7,48.4,105.7,48.4,105.7,48.4z"/>
<path d="M103.3,46.3H85.2l15.7-9.1c1-0.6,1.3-1.9,0.8-2.9c-0.6-1-1.9-1.4-2.9-0.8c0,0,0,0,0,0l-15.7,9.1l9.1-15.8
	c0.6-1,0.2-2.3-0.8-2.9c-1-0.6-2.3-0.2-2.9,0.8c0,0,0,0,0,0l-9.1,15.8V22.3c0-1.2-0.9-2.1-2.1-2.1s-2.1,0.9-2.1,2.1v18.2l-9.1-15.8
	c-0.6-1-1.9-1.4-2.9-0.8c0,0,0,0,0,0c-1,0.6-1.4,1.9-0.8,2.9l9.1,15.8l-15.7-9.1c-1-0.6-2.3-0.2-2.9,0.8c0,0,0,0,0,0
	c-0.6,1-0.2,2.3,0.8,2.9l15.7,9.1H51.3c-1.2,0.1-2.1,1.1-2,2.3c0.1,1.1,0.9,1.9,2,2h18.1l-15.7,9.1c-1,0.6-1.3,1.9-0.8,2.9
	c0.6,1,1.9,1.4,2.9,0.8l15.7-9.1L62.5,70c-0.6,1-0.2,2.3,0.8,2.9c1,0.6,2.3,0.2,2.9-0.8l9.1-15.8v18.3c0,1.2,0.9,2.1,2.1,2.1
	s2.1-0.9,2.1-2.1V56.4l9.1,15.8c0.6,1,1.9,1.4,2.9,0.8c1-0.6,1.4-1.9,0.8-2.9l-9.1-15.8l15.7,9.1c1,0.6,2.3,0.2,2.9-0.8
	c0.6-1,0.2-2.3-0.8-2.9l-15.7-9.1h18.1c1.2-0.1,2.1-1.1,2-2.3C105.2,47.2,104.4,46.4,103.3,46.3z"/>
<linearGradient id="SVGID_1_" gradientUnits="userSpaceOnUse" x1="55.8147" y1="42.7558" x2="55.8147" y2="10" gradientTransform="matrix(1 0 0 -1 0 128)">
	<stop  offset="0" style="stop-color:#000000;stop-opacity:0.9"/>
	<stop  offset="0.92" style="stop-color:#D2D2D2;stop-opacity:0.16"/>
	<stop  offset="1" style="stop-color:#FFFFFF;stop-opacity:0"/>
</linearGradient>
<path fill="url(#SVGID_1_)" d="M50,92.7c19.4-5.7,37.6-1.5,40.8,9.2c1.5,5.1-0.8,10.9-5.6,16.1h7.7c5.2-6,7.4-12.5,5.8-18.4
	c-3.8-13.1-26.1-18.2-49.8-11.3c-19.7,5.8-34.2,18.1-36.3,29.6h7.7C21.1,108.2,33.3,97.6,50,92.7z"/>
<linearGradient id="SVGID_2_" gradientUnits="userSpaceOnUse" x1="55.7153" y1="37.8764" x2="55.7153" y2="10" gradientTransform="matrix(1 0 0 -1 0 128)">
	<stop  offset="0" style="stop-color:#4D4D4D;stop-opacity:0.9"/>
	<stop  offset="0.27" style="stop-color:#555555;stop-opacity:0.86"/>
	<stop  offset="0.5" style="stop-color:#707070;stop-opacity:0.72"/>
	<stop  offset="0.71" style="stop-color:#9C9C9C;stop-opacity:0.5"/>
	<stop  offset="0.91" style="stop-color:#DBDBDB;stop-opacity:0.18"/>
	<stop  offset="1" style="stop-color:#FFFFFF;stop-opacity:0"/>
</linearGradient>
<path fill="url(#SVGID_2_)" d="M90.8,101.9C87.7,91.1,69.4,87,50,92.7c-16.8,4.9-28.9,15.6-29.9,25.3h3.3c0.4-9,11.6-19,27.1-23.5
	c17.6-5.2,34.2-1.4,37,8.4c1.4,4.8-0.8,10.3-5.6,15.2h3.2C90,112.8,92.3,107,90.8,101.9z"/>
<linearGradient id="SVGID_3_" gradientUnits="userSpaceOnUse" x1="55.6898" y1="35.8399" x2="55.6898" y2="10" gradientTransform="matrix(1 0 0 -1 0 128)">
	<stop  offset="0" style="stop-color:#959595;stop-opacity:0.9"/>
	<stop  offset="0.2" style="stop-color:#989898;stop-opacity:0.88"/>
	<stop  offset="0.38" style="stop-color:#A0A0A0;stop-opacity:0.81"/>
	<stop  offset="0.53" style="stop-color:#ADADAD;stop-opacity:0.69"/>
	<stop  offset="0.68" style="stop-color:#C1C1C1;stop-opacity:0.53"/>
	<stop  offset="0.83" style="stop-color:#DADADA;stop-opacity:0.32"/>
	<stop  offset="0.97" style="stop-color:#F8F8F8;stop-opacity:6.000000e-02"/>
	<stop  offset="1" style="stop-color:#FFFFFF;stop-opacity:0"/>
</linearGradient>
<path fill="url(#SVGID_3_)" d="M46.5,113.4L27.2,113c-1.2,0-1.9-0.7-1.4-1.5c0.7-1,1.9-1.5,3.1-1.5l19.3,0.5l-13-6.8
	c-0.8-0.4-0.7-1.4,0.3-2c1-0.7,2.2-0.9,3.4-0.5l13,6.8l-3.3-11.4c-0.2-0.7,0.7-1.6,2-2s2.5-0.1,2.8,0.6l3.3,11.3L64,93.8
	c0.7-0.9,1.9-1.5,3.1-1.4c1.2,0,1.9,0.7,1.4,1.6l-7.3,12.8l16-10.8c1-0.7,2.2-0.9,3.4-0.5c0.8,0.4,0.7,1.4-0.3,2l-16,10.8l20.4-6
	c1.3-0.4,2.5-0.1,2.8,0.6s-0.7,1.6-2,2l-20.4,6l19.3,0.5c1.2,0,1.9,0.7,1.4,1.6c-0.7,0.9-1.9,1.5-3.1,1.4l-19.3-0.5l7.9,4.2h10.8
	c4.8-4.9,7-10.3,5.6-15.2c-2.8-9.8-19.4-13.5-37-8.4C35,99,23.9,109,23.4,118h7.5L46.5,113.4z"/>
<linearGradient id="SVGID_4_" gradientUnits="userSpaceOnUse" x1="56.471" y1="35.64" x2="56.471" y2="10" gradientTransform="matrix(1 0 0 -1 0 128)">
	<stop  offset="0" style="stop-color:#000000;stop-opacity:0.9"/>
	<stop  offset="0.92" style="stop-color:#D2D2D2;stop-opacity:0.16"/>
	<stop  offset="1" style="stop-color:#FFFFFF;stop-opacity:0"/>
</linearGradient>
<path fill="url(#SVGID_4_)" d="M82.5,114.4c1.2,0,2.4-0.5,3.1-1.4c0.5-0.8-0.2-1.5-1.4-1.6l-19.3-0.5l20.4-6c1.3-0.4,2.2-1.3,2-2
	s-1.4-1-2.8-0.6l-20.4,6l16-10.8c1-0.7,1.2-1.6,0.3-2c-1.1-0.4-2.4-0.2-3.4,0.5l-16,10.8L68.5,94c0.5-0.8-0.2-1.5-1.4-1.6
	c-1.2-0.1-2.3,0.4-3.1,1.4l-7.3,12.8l-3.3-11.3c-0.2-0.7-1.5-1-2.8-0.6s-2.2,1.3-2,2l3.3,11.4l-13-6.8c-1.1-0.4-2.4-0.2-3.4,0.5
	c-1,0.7-1.2,1.6-0.3,2l13,6.8L28.9,110c-1.2,0-2.4,0.5-3.1,1.4c-0.5,0.8,0.2,1.5,1.4,1.5l19.3,0.5L30.9,118h9.8l6.5-1.9l-2.8,1.9
	h5.4l0.5-0.3l-0.2,0.3h4.5l0.1-0.2l0.1,0.2h5.1l-0.5-1.6l3.1,1.6h8.5l-7.9-4.1L82.5,114.4z"/>
</svg>
