<?xml version="1.0" encoding="utf-8"?>
<!-- Generator: Adobe Illustrator 24.0.0, SVG Export Plug-In . SVG Version: 6.00 Build 0)  -->
<svg version="1.1" id="图层_1" xmlns="http://www.w3.org/2000/svg" xmlns:xlink="http://www.w3.org/1999/xlink" x="0px" y="0px"
	 viewBox="0 0 128 128" enable-background="new 0 0 128 128" xml:space="preserve">
<title>qbittorrent-112</title>
<circle fill="#BBDEFB" cx="64" cy="64" r="59"/>
<path fill="#255FB5" d="M64,5c22.1,0,39.9,17.9,39.9,39.9S86.1,84.9,64,84.9S24.1,67,24.1,44.9S41.9,5,64,5L64,5C31.4,5,5,31.4,5,64
	s26.4,59,59,59s59-26.4,59-59S96.6,5,64,5z"/>
<path fill="#8CB0DC" d="M64,5h1c30.5,0.6,54.7,25.7,54.1,56.1S93.5,115.8,63,115.3S8.3,89.6,8.9,59.1C9.4,29.5,33.3,5.5,63,5H64
	C31.4,5,5,31.4,5,64s26.4,59,59,59s59-26.4,59-59S96.6,5,64,5z"/>
<path fill="#FFFFFF" d="M58,95.9h-6.4V79.3c-1.1,1.8-2.7,3.3-4.5,4.3c-1.9,1-4,1.5-6.1,1.4c-4.2,0.1-8.1-1.7-10.9-4.8
	c-3-3.2-4.5-7.9-4.5-14.1s1.5-10.8,4.5-13.9c2.8-3,6.8-4.7,10.9-4.6c2.1-0.1,4.2,0.4,6.1,1.3c1.8,1,3.4,2.4,4.5,4.2v-4.8H58V95.9z
	 M51.6,66.1c0-4-0.9-7.2-2.7-9.5c-1.5-2.1-4-3.3-6.6-3.4c-2.8-0.2-5.5,1.1-7.2,3.4c-1.6,2.2-2.4,5.4-2.4,9.5s0.8,7.3,2.4,9.6
	c1.6,2.4,4.4,3.7,7.2,3.5c2.6,0,5.1-1.3,6.6-3.5C50.7,73.4,51.6,70.2,51.6,66.1z"/>
<path fill="#FFFFFF" d="M99.9,66.1c0,6.2-1.5,10.8-4.5,13.9c-2.8,3-6.8,4.7-10.9,4.6c-2.1,0.1-4.2-0.4-6.1-1.3
	c-1.8-1-3.4-2.4-4.5-4.2v4.8h-6.4V29.3H74V53c1.1-1.8,2.7-3.3,4.5-4.3c1.9-1,4-1.5,6.1-1.4c4.2-0.1,8.1,1.7,10.9,4.8
	C98.4,55.2,99.9,59.9,99.9,66.1z M92.9,66.1c0-4-0.8-7.3-2.4-9.6c-1.6-2.4-4.4-3.7-7.3-3.5c-2.6,0-5.1,1.3-6.6,3.5
	c-1.8,2.4-2.7,5.6-2.7,9.6c0,4.1,0.9,7.2,2.7,9.4c1.5,2.1,3.9,3.4,6.5,3.4c3.2,0,5.6-1.1,7.2-3.4S92.9,70.2,92.9,66.1L92.9,66.1z"/>
</svg>
