<?xml version="1.0" encoding="utf-8"?>
<!-- Generator: Adobe Illustrator 24.0.0, SVG Export Plug-In . SVG Version: 6.00 Build 0)  -->
<svg version="1.1" id="QT" xmlns="http://www.w3.org/2000/svg" xmlns:xlink="http://www.w3.org/1999/xlink" x="0px" y="0px"
	 viewBox="0 0 128 128" enable-background="new 0 0 128 128" xml:space="preserve">
<title>128</title>
<g id="_128">
	<path fill="#5AA82E" d="M40,8h80l0,0v80c0,17.7-14.3,32-32,32H8l0,0V40C8,22.3,22.3,8,40,8z"/>
	<path fill="#FFFFFF" d="M48,28c-6.4-0.2-12.5,2.5-16.7,7.3C26.4,41,24,48.6,24,58.2c-0.2,6.5,1.3,12.9,4.2,18.7
		C31.9,84.4,39.7,89,48,88.6c1.9,8.4,7.6,12.8,20,11v-6c-5.8,0.5-7.4-2.6-7.9-8.1v-0.4c1.8-1.1,3.4-2.5,4.7-4.2
		c4.5-5.5,7.1-13.2,7.1-22.7c0.1-6.5-1.4-13-4.5-18.7C63.8,32.2,56.2,27.7,48,28z M94.7,29.3h-9.4L84,44h-8v10.7h8v18.8
		c0,9.3,6.4,15.3,12.5,15.3c2.5-0.1,5-0.4,7.5-0.9v-9.1c-4,0-9.3,0-9.3-6.3V54.7h9.3L103.9,44h-9.2L94.7,29.3z M48,39.3
		c6.7,0,10.1,6.4,10.1,19.1c0,12.7-3.4,19.1-10.1,19.1s-10.3-6.4-10.3-19.2v-1.5C38,45.1,41.5,39.3,48,39.3z"/>
</g>
</svg>
