<?xml version="1.0" encoding="utf-8"?>
<!-- Generator: Adobe Illustrator 24.0.0, SVG Export Plug-In . SVG Version: 6.00 Build 0)  -->
<svg version="1.1" id="图层_1" xmlns="http://www.w3.org/2000/svg" xmlns:xlink="http://www.w3.org/1999/xlink" x="0px" y="0px"
	 viewBox="0 0 128 128" enable-background="new 0 0 128 128" xml:space="preserve">
<title>qxw-112</title>
<path fill="#1A237E" d="M82.4,73.7c3.4-6.8,12.4-9.2,20.1-5.3c1.2,0.6,2.3,1.3,3.3,2.2c2-5.1,3.6-10.3,5-15.6
	c2.6-10.2-3.4-17.5-10.8-17.4c-3.4-0.1-6.8-0.6-10.1-1.4c0.8-0.6,1.6-1.3,2.5-2.1c6.8-5.7,15.9-12.7-2.8-23
	C76.6,3.8,75,18.9,74.4,21.7c-0.4,1.9-0.9,4.3-1.2,6.6c-3.4-2.6-6.6-5.6-9.3-9c-4.3-5.9-13.7-6.4-20.4,1.8
	c-3.4,4.2-6.6,8.7-9.5,13.3c1.2,0.3,2.3,0.7,3.4,1.3c7.7,3.9,11.2,12.5,7.8,19.3s-12.4,9.2-20.1,5.3c-1.1-0.6-2.1-1.2-3.1-2
	c-2,5.1-3.6,10.3-5,15.5c-2.6,10.2,3.4,17.4,10.8,17.4c3.7,0.1,7.4,0.7,11,1.6c-1.8,1.7-3.5,3.7-4.9,5.2c-1.9,2.2-13,12.5,0.6,18.7
	c19.5,8.8,19.6-2.6,20.1-11.5c0.1-1.8,0.2-3.3,0.2-4.7c3.4,2.6,6.4,5.5,9.1,8.8c4.3,5.9,13.7,6.4,20.4-1.8c3.4-4.2,6.6-8.7,9.6-13.3
	c-1.3-0.3-2.6-0.8-3.8-1.4C82.5,89.1,79,80.5,82.4,73.7z"/>
<linearGradient id="SVGID_1_" gradientUnits="userSpaceOnUse" x1="33.54" y1="100.0522" x2="93.5324" y2="28.5574" gradientTransform="matrix(1 0 0 -1 0 128)">
	<stop  offset="1.000000e-02" style="stop-color:#33CED7"/>
	<stop  offset="0.49" style="stop-color:#2C8EBE"/>
	<stop  offset="0.66" style="stop-color:#4B8BC3"/>
	<stop  offset="0.88" style="stop-color:#6C87C9"/>
	<stop  offset="0.99" style="stop-color:#7986CB"/>
</linearGradient>
<path fill="url(#SVGID_1_)" d="M82.4,72.6c3.4-6.8,12.4-9.2,20.1-5.3c1.2,0.6,2.3,1.3,3.3,2.2c2-5.1,3.6-10.3,5-15.6
	c2.6-10.3-3.4-17.5-10.8-17.4c-3.4-0.1-6.8-0.6-10.1-1.4l2.6-2.1c6.8-5.7,15.9-12.7-2.8-23C76.6,2.7,75,17.8,74.4,20.6
	c-0.4,1.9-0.9,4.3-1.2,6.6c-3.4-2.6-6.6-5.6-9.3-9c-4.3-5.9-13.7-6.4-20.4,1.8c-3.4,4.2-6.6,8.7-9.5,13.3c1.2,0.3,2.3,0.7,3.4,1.3
	c7.7,3.9,11.2,12.5,7.8,19.3S32.9,63,25.2,59.2c-1.1-0.6-2.1-1.2-3.1-2c-2,5.1-3.6,10.3-5,15.5C14.5,83,20.5,90.2,27.9,90.2
	c3.7,0.1,7.4,0.7,11,1.6c-1.8,1.7-3.5,3.7-4.9,5.2c-1.9,2.2-13,12.5,0.6,18.7c19.5,8.8,19.6-2.6,20.1-11.5c0.1-1.8,0.2-3.3,0.2-4.7
	c3.4,2.6,6.4,5.5,9.1,8.8c4.3,5.9,13.7,6.4,20.4-1.8c3.4-4.3,6.6-8.7,9.6-13.3c-1.3-0.3-2.6-0.8-3.8-1.4C82.5,88,79,79.4,82.4,72.6z
	"/>
</svg>
