<svg id="文本内容搜索工具" xmlns="http://www.w3.org/2000/svg" xmlns:xlink="http://www.w3.org/1999/xlink" viewBox="0 0 96 96"><defs><style>.cls-1{fill:#f5f5f5;}.cls-2{fill:#ddd;}.cls-3{fill:#95a0a3;}.cls-4{fill:#606060;}.cls-5{fill:url(#未命名的渐变_49);}.cls-6{fill:#e65c38;}</style><linearGradient id="未命名的渐变_49" x1="74.27" y1="66.1" x2="54.79" y2="38.99" gradientUnits="userSpaceOnUse"><stop offset="0" stop-color="#3e8bfd"/><stop offset="1" stop-color="#75a8ff"/></linearGradient></defs><title>96</title><g id="_96" data-name="96"><rect class="cls-1" x="16.5" y="7.5" width="63" height="81" rx="7.5"/><path class="cls-2" d="M72,9a6,6,0,0,1,6,6V81a6,6,0,0,1-6,6H24a6,6,0,0,1-6-6V15a6,6,0,0,1,6-6H72m0-3H24a9,9,0,0,0-9,9V81a9,9,0,0,0,9,9H72a9,9,0,0,0,9-9V15a9,9,0,0,0-9-9Z"/><rect class="cls-3" x="23" y="77" width="38.89" height="3"/><rect class="cls-3" x="23" y="68" width="50" height="3"/><rect class="cls-3" x="23" y="59" width="50" height="3"/><rect class="cls-3" x="23" y="49" width="50" height="3"/><rect class="cls-3" x="23" y="40" width="50" height="3"/><rect class="cls-3" x="23" y="31" width="50" height="3"/><rect class="cls-3" x="23" y="18" width="50" height="6"/><g id="放大镜"><rect class="cls-4" x="46.95" y="73.84" width="8.4" height="4.2" transform="translate(-40.19 82.26) rotate(-60)"/><path class="cls-5" d="M64.48,76.5a24,24,0,1,1,20.8-12A24,24,0,0,1,64.48,76.5Z"/><path class="cls-2" d="M64.52,27v3A22.5,22.5,0,1,1,45,41.25,22.43,22.43,0,0,1,64.52,30V27m0,0a25.5,25.5,0,1,0,12.73,3.42A25.48,25.48,0,0,0,64.52,27Z"/><rect class="cls-6" x="43.27" y="75.29" width="8.4" height="14.7" rx="3" transform="translate(47.68 -12.66) rotate(30)"/></g></g></svg>