<?xml version="1.0" encoding="utf-8"?>
<!-- Generator: Adobe Illustrator 24.0.0, SVG Export Plug-In . SVG Version: 6.00 Build 0)  -->
<svg version="1.1" id="图层_1" xmlns="http://www.w3.org/2000/svg" xmlns:xlink="http://www.w3.org/1999/xlink" x="0px" y="0px"
	 viewBox="0 0 128 128" enable-background="new 0 0 128 128" xml:space="preserve">
<title>regexxer128</title>
<path fill="#7A7770" d="M38.5,47.3L8.6,55.4c-2.7,0.7-4.3,4-3.4,7.2l23.9,38.1c0.8,3.3,3.8,5.3,6.5,4.5L118,83
	c2.7-0.7,4.3-4,3.4-7.2L102.1,55c-0.9-3.2-3.8-5.3-6.5-4.5l-40.4,11c-2.7,0.7-5.6-1.3-6.5-4.5l-0.8-3.2
	C46.6,49.1,42.4,46.2,38.5,47.3z"/>
<path fill="#C6BAA5" d="M47.2,22.2l-29.9,8.1c-2.7,0.7-4.3,4-3.4,7.2l16.6,62.8c0.9,3.2,3.8,5.3,6.5,4.5l82.3-22.3
	c2.7-0.7,4.3-4,3.4-7.2l-12-45.4c-0.9-3.2-3.8-5.3-6.5-4.5L63.8,36.4c-2.7,0.7-5.6-1.3-6.5-4.5l-0.8-3.2
	C55.3,24,51.1,21.2,47.2,22.2z"/>
<path fill="#525444" d="M109.1,97.3L89.2,77.1C95.7,67,94.4,53.8,86,45.2c-9.7-9.8-25.5-10-35.4-0.3c-0.1,0.1-0.1,0.1-0.2,0.2
	c-9.8,10-9.9,26,0,36c8.4,8.5,21.6,9.9,31.5,3.3l19.9,20.2c1.8,1.8,4.7,1.8,6.5,0c0,0,0,0,0,0l0.8-0.8
	C110.9,102.1,110.9,99.1,109.1,97.3z M54.7,76.8c-7.4-7.6-7.4-19.7,0-27.3c7.4-7.5,19.4-7.5,26.9-0.1c0,0,0.1,0.1,0.1,0.1
	c7.4,7.6,7.4,19.7,0,27.3c-7.4,7.5-19.4,7.5-26.9,0.1C54.8,76.9,54.7,76.9,54.7,76.8z"/>
</svg>
