<?xml version="1.0" encoding="utf-8"?>
<!-- Generator: Adobe Illustrator 24.0.0, SVG Export Plug-In . SVG Version: 6.00 Build 0)  -->
<svg version="1.1" id="截图" xmlns="http://www.w3.org/2000/svg" xmlns:xlink="http://www.w3.org/1999/xlink" x="0px" y="0px"
	 viewBox="0 0 128 128" enable-background="new 0 0 128 128" xml:space="preserve">
<title>128</title>
<g id="_128">
	
		<linearGradient id="SVGID_1_" gradientUnits="userSpaceOnUse" x1="64" y1="15.99" x2="64" y2="113.88" gradientTransform="matrix(1 0 0 -1 0 128)">
		<stop  offset="1.000000e-02" style="stop-color:#DAE2E5"/>
		<stop  offset="1" style="stop-color:#E2E5ED"/>
	</linearGradient>
	<rect x="12" y="12" fill="url(#SVGID_1_)" width="104" height="104"/>
	<polygon fill="#007FFC" points="31,8 8,8 8,31 15,31 15,15 31,15 	"/>
	<polygon fill="#007FFC" points="31,120 8,120 8,97 15,97 15,113 31,113 	"/>
	<polygon fill="#007FFC" points="97,8 120,8 120,31 113,31 113,15 97,15 	"/>
	<polygon fill="#007FFC" points="97,120 120,120 120,97 113,97 113,113 97,113 	"/>
	<path opacity="0.2" fill="#007FFC" enable-background="new    " d="M35,36h58c1.7,0,3,1.3,3,3v50c0,1.7-1.3,3-3,3H35
		c-1.7,0-3-1.3-3-3V39C32,37.3,33.3,36,35,36z"/>
	<path fill="none" stroke="#666666" stroke-width="6" stroke-miterlimit="10" d="M97,24v57c0,6.6-5.4,12-12,12H20"/>
	<path fill="none" stroke="#666666" stroke-width="6" stroke-miterlimit="10" d="M31,104V47c0-6.6,5.4-12,12-12h65"/>
	<polygon fill="#258C03" points="40,80 52,60 58,70 62,64 68,72 76,58 88,80 	"/>
	<circle fill="#D14905" cx="58" cy="50" r="6"/>
</g>
</svg>
