<?xml version="1.0" encoding="utf-8"?>
<!-- Generator: Adobe Illustrator 24.0.0, SVG Export Plug-In . SVG Version: 6.00 Build 0)  -->
<svg version="1.1" id="图层_2" opacity="0.8" xmlns="http://www.w3.org/2000/svg" xmlns:xlink="http://www.w3.org/1999/xlink"
	 x="0px" y="0px" viewBox="0 0 16 16" style="enable-background:new 0 0 16 16;" xml:space="preserve">
<style type="text/css">
	.st0{opacity:0.6;fill:none;stroke:#1F2022;stroke-miterlimit:10;}
	.st1{fill:#1F2022;}
</style>
<path class="st0" d="M13,6.5h0.5c1.1,0,2,0.9,2,2v4c0,1.1-0.9,2-2,2h-7c-1.1,0-2-0.9-2-2V12"/>
<g>
	<path class="st1" d="M10,3c0.6,0,1,0.4,1,1v5c0,0.6-0.4,1-1,1H2c-0.6,0-1-0.4-1-1V4c0-0.6,0.4-1,1-1H10 M10,2H2C0.9,2,0,2.9,0,4v5
		c0,1.1,0.9,2,2,2h8c1.1,0,2-0.9,2-2V4C12,2.9,11.1,2,10,2L10,2z"/>
</g>
</svg>
