<?xml version="1.0" encoding="utf-8"?>
<!-- Generator: Adobe Illustrator 24.0.0, SVG Export Plug-In . SVG Version: 6.00 Build 0)  -->
<svg version="1.1"
	 id="svg7384" xmlns:cc="http://creativecommons.org/ns#" xmlns:dc="http://purl.org/dc/elements/1.1/" xmlns:osb="http://www.openswatchbook.org/uri/2009/osb" xmlns:rdf="http://www.w3.org/1999/02/22-rdf-syntax-ns#" xmlns:svg="http://www.w3.org/2000/svg" opacity="0.8"
	 xmlns="http://www.w3.org/2000/svg" xmlns:xlink="http://www.w3.org/1999/xlink" x="0px" y="0px" viewBox="0 0 16 16"
	 style="enable-background:new 0 0 16 16;" xml:space="preserve">
<style type="text/css">
	.st0{fill:#1F2022;}
</style>
<path id="path967-9" class="st0" d="M6.8,1c-0.5,1-1,2-1.4,3.1C4.9,5.1,4.5,6.2,4,7.3C3.8,7.8,3.6,8.4,3.4,9H2.5C1.7,9,1,9.7,1,10.5
	c0,0.7,0.5,1.3,1.2,1.5c-0.4,1-0.7,1.9-1.1,3h2.7l1.1-3H11c0.4,1,0.9,2.1,1.2,3h2.6c-0.4-1.1-0.8-2-1.1-3c0.7-0.1,1.3-0.7,1.3-1.5
	C15,9.7,14.3,9,13.5,9h-1c-0.2-0.6-0.4-1.1-0.6-1.6c-0.4-1.1-1.3-3.3-1.3-3.3S9.6,2,9.1,1H7.9H6.8z M8,3.5L10,9H5.9L8,3.5L8,3.5z
	 M2.5,10h3.9h3.1h4.1c0.2,0,0.4,0.2,0.4,0.4v0.1c0,0.2-0.2,0.4-0.4,0.4H9.5H6.4H2.5C2.2,11,2,10.8,2,10.5S2.2,10,2.5,10z"/>
</svg>
