<?xml version="1.0" encoding="utf-8"?>
<!-- Generator: Adobe Illustrator 24.0.0, SVG Export Plug-In . SVG Version: 6.00 Build 0)  -->
<svg version="1.1" id="软件和更新" xmlns="http://www.w3.org/2000/svg" xmlns:xlink="http://www.w3.org/1999/xlink" x="0px"
	 y="0px" viewBox="0 0 128 128" enable-background="new 0 0 128 128" xml:space="preserve">
<title>128</title>
<g id="_128">
	
		<radialGradient id="SVGID_1_" cx="64" cy="64" r="37.55" gradientTransform="matrix(1 0 0 -1 0 128)" gradientUnits="userSpaceOnUse">
		<stop  offset="0" style="stop-color:#000427"/>
		<stop  offset="1" style="stop-color:#121228"/>
	</radialGradient>
	
		<radialGradient id="SVGID_2_" cx="64" cy="64" r="38.05" gradientTransform="matrix(1 0 0 -1 0 128)" gradientUnits="userSpaceOnUse">
		<stop  offset="0" style="stop-color:#00FEFE"/>
		<stop  offset="1" style="stop-color:#00FEFE;stop-opacity:0.1"/>
	</radialGradient>
	<circle fill="url(#SVGID_1_)" stroke="url(#SVGID_2_)" stroke-miterlimit="10" cx="64" cy="64" r="37.6"/>
	
		<radialGradient id="SVGID_3_" cx="64.0008" cy="64.0096" r="58.9996" gradientTransform="matrix(1 0 0 -1 0 128.01)" gradientUnits="userSpaceOnUse">
		<stop  offset="0" style="stop-color:#000427"/>
		<stop  offset="1" style="stop-color:#121228"/>
	</radialGradient>
	<path fill="url(#SVGID_3_)" d="M120.3,75.8c-4.7-2-7.6-6.7-7.4-11.8c-0.2-5.1,2.7-9.8,7.4-11.8c2-0.7,3.1-2.7,2.6-4.8
		c-1.3-4.6-3.1-9.1-5.5-13.3c-1-1.8-3.3-2.5-5.2-1.6c-4.7,1.9-10.1,0.7-13.6-3.1c-3.8-3.4-5-8.9-3.1-13.6c0.9-1.9,0.2-4.2-1.6-5.2
		c-4.2-2.4-8.7-4.2-13.3-5.5c-2-0.6-4.1,0.6-4.8,2.6c-2,4.7-6.7,7.6-11.8,7.4c-5.1,0.2-9.8-2.7-11.8-7.4c-0.7-2-2.8-3.1-4.8-2.6
		c-4.6,1.3-9.1,3.1-13.3,5.5c-1.8,1-2.5,3.3-1.6,5.2c1.9,4.7,0.6,10.1-3.1,13.6c-3.4,3.8-8.9,5-13.6,3.1c-1.9-1-4.2-0.3-5.2,1.6
		c-2.4,4.2-4.2,8.7-5.5,13.3c-0.6,2,0.6,4.1,2.6,4.8c4.7,2,7.6,6.7,7.4,11.8c0.2,5.1-2.7,9.8-7.4,11.8c-2,0.7-3.1,2.7-2.6,4.8
		c1.3,4.6,3.1,9.1,5.5,13.3c1,1.8,3.3,2.5,5.2,1.6c4.7-1.9,10.1-0.7,13.6,3.1c3.8,3.4,5,8.8,3.1,13.6c-0.9,1.9-0.2,4.1,1.6,5.2
		c4.2,2.3,8.7,4.2,13.3,5.5c2,0.6,4.1-0.6,4.8-2.6c2-4.7,6.7-7.6,11.8-7.4c5.1-0.2,9.8,2.7,11.8,7.4c0.7,2,2.8,3.1,4.8,2.6
		c4.6-1.3,9.1-3.1,13.3-5.5c1.8-1.1,2.5-3.3,1.6-5.2c-2.4-6.8,1.2-14.3,8-16.7c2.8-1,5.9-1,8.7,0c1.9,0.9,4.2,0.2,5.2-1.6
		c2.4-4.2,4.2-8.7,5.5-13.3C123.4,78.6,122.3,76.5,120.3,75.8z M64,99.4c-19.6,0-35.4-15.9-35.4-35.4S44.5,28.6,64,28.6
		c19.5,0,35.4,15.9,35.4,35.4C99.4,83.6,83.6,99.4,64,99.4C64,99.4,64,99.4,64,99.4z"/>
	
		<radialGradient id="SVGID_4_" cx="63.9983" cy="63.9999" r="58.9987" gradientTransform="matrix(1 0 0 -1 0 128)" gradientUnits="userSpaceOnUse">
		<stop  offset="0" style="stop-color:#00FEFE"/>
		<stop  offset="1" style="stop-color:#00FEFE;stop-opacity:0.1"/>
	</radialGradient>
	<path fill="url(#SVGID_4_)" d="M48.5,6c1.3,0,2.4,0.8,2.8,2l0,0l0,0c2.1,4.9,6.9,8,12.2,8h1.1c5.3,0,10.1-3.1,12.2-8l0,0l0,0
		c0.4-1.2,1.5-2,2.8-2c0.3,0,0.5,0,0.8,0.1c4.6,1.3,9,3.1,13.1,5.4c1.4,0.8,1.9,2.5,1.2,3.9l0,0l0,0c-2,5.1-0.7,10.9,3.3,14.7
		c2.5,2.7,6.1,4.3,9.8,4.3c1.7,0,3.4-0.4,4.9-1l0,0l0,0c0.4-0.2,0.9-0.3,1.3-0.3c1.1,0,2,0.6,2.6,1.5c2.3,4.1,4.1,8.5,5.4,13.1
		c0.4,1.5-0.4,3.1-1.9,3.5l0,0l0,0c-5,2.2-8.2,7.2-8,12.7c-0.2,5.5,3,10.5,8,12.7l0,0l0,0c1.5,0.5,2.3,2.1,1.9,3.6
		c-1.2,4.6-3,9.1-5.3,13.3c-0.5,0.9-1.5,1.5-2.5,1.5c-0.5,0-0.9-0.1-1.3-0.3h-0.1h-0.1c-1.5-0.5-3.1-0.8-4.7-0.8
		c-7.8,0-14.1,6.3-14.1,14.1c0,1.6,0.3,3.2,0.8,4.7v0.1l0,0c0.7,1.4,0.2,3.1-1.2,3.9c-4.1,2.3-8.5,4.1-13.1,5.4
		c-0.3,0.1-0.5,0.1-0.8,0.1c-1.3,0-2.4-0.8-2.8-2l0,0l0,0c-2.1-4.9-6.9-8-12.2-8h-1.1c-5.3,0-10.1,3.1-12.2,8l0,0l0,0
		c-0.4,1.2-1.5,2-2.8,2c-0.3,0-0.5,0-0.8-0.1c-4.6-1.3-9-3.1-13.1-5.4c-1.4-0.8-1.9-2.5-1.2-3.9l0,0l0,0c2-5.1,0.7-10.9-3.4-14.7
		c-2.5-2.7-6.1-4.3-9.8-4.3c-1.7,0-3.4,0.4-4.9,1l0,0l0,0c-0.4,0.2-0.9,0.3-1.3,0.3c-1.1,0-2-0.6-2.6-1.5c-2.3-4.2-4.2-8.6-5.5-13.2
		c-0.4-1.5,0.4-3,1.9-3.6l0,0l0,0c5-2.2,8.2-7.2,8-12.7c0.2-5.5-3-10.5-8-12.7l0,0l0,0c-1.5-0.5-2.4-2.1-1.9-3.6
		c1.3-4.6,3.1-9,5.4-13.1c0.5-0.9,1.5-1.5,2.6-1.5c0.5,0,0.9,0.1,1.3,0.3l0,0l0,0c1.6,0.6,3.2,1,4.9,1c3.7,0,7.2-1.6,9.8-4.3
		c4-3.7,5.3-9.6,3.3-14.7l0,0l0,0c-0.8-1.4-0.2-3.2,1.2-3.9c4.1-2.3,8.5-4.1,13.1-5.4C47.9,6,48.2,6,48.5,6 M64,100.4
		c20.1,0,36.4-16.3,36.4-36.4S84.1,27.6,64,27.6S27.6,43.9,27.6,64c0,0,0,0,0,0C27.6,84.1,43.9,100.4,64,100.4 M79.6,5
		c-1.7,0-3.2,1.1-3.7,2.7c-1.9,4.5-6.4,7.4-11.3,7.4h-1.1c-4.9,0-9.3-2.9-11.3-7.4c-0.5-1.6-2-2.7-3.7-2.7c-0.3,0-0.7,0.1-1,0.1
		c-4.6,1.3-9.1,3.1-13.3,5.5c-1.8,1-2.5,3.3-1.6,5.2c1.9,4.7,0.6,10.1-3.1,13.6c-2.3,2.5-5.6,4-9,4c-1.6,0-3.1-0.3-4.5-0.9
		c-0.5-0.3-1.2-0.4-1.8-0.4c-1.4,0-2.7,0.8-3.4,2c-2.4,4.2-4.3,8.7-5.6,13.3c-0.6,2,0.6,4.1,2.6,4.8c4.7,2,7.6,6.7,7.4,11.8
		c0.2,5.1-2.7,9.8-7.4,11.8c-2,0.7-3.1,2.7-2.6,4.8c1.3,4.6,3.1,9.1,5.5,13.3c0.7,1.2,2,2,3.4,2c0.6,0,1.2-0.1,1.8-0.4
		c4.7-1.9,10.1-0.7,13.6,3.1c3.8,3.4,5,8.8,3.1,13.6c-0.9,1.9-0.2,4.1,1.6,5.2c4.2,2.3,8.7,4.2,13.3,5.5c0.3,0.1,0.7,0.1,1,0.1
		c1.7,0,3.2-1.1,3.7-2.7c1.9-4.5,6.4-7.4,11.3-7.4h1.1c4.9,0,9.3,2.9,11.3,7.4c0.5,1.6,2.1,2.7,3.8,2.7l0,0c0.3,0,0.7,0,1-0.1
		c4.6-1.3,9.1-3.1,13.3-5.5c1.8-1.1,2.5-3.3,1.6-5.2c-2.4-6.8,1.2-14.3,8.1-16.7c2.8-1,5.8-1,8.6,0c0.5,0.3,1.2,0.4,1.8,0.4
		c1.4,0,2.7-0.8,3.4-2c2.4-4.2,4.2-8.7,5.5-13.3c0.6-2-0.6-4.1-2.6-4.8c-4.7-2-7.6-6.7-7.3-11.8c-0.2-5.1,2.7-9.8,7.4-11.8
		c2-0.7,3.1-2.7,2.6-4.8c-1.3-4.6-3.1-9.1-5.5-13.3c-1-1.8-3.3-2.5-5.2-1.6c-4.7,1.9-10.1,0.7-13.6-3.1c-3.8-3.4-5-8.9-3.1-13.6
		c0.9-1.9,0.2-4.2-1.6-5.2c-4.2-2.4-8.7-4.2-13.3-5.5C80.3,5.1,79.9,5,79.6,5L79.6,5z M64,99.4c-19.6,0-35.4-15.9-35.4-35.4
		S44.5,28.6,64,28.6c19.5,0,35.4,15.9,35.4,35.4C99.4,83.6,83.6,99.4,64,99.4C64,99.4,64,99.4,64,99.4z"/>
	
		<radialGradient id="SVGID_5_" cx="64.0008" cy="64.0096" r="58.9996" gradientTransform="matrix(1 0 0 -1 0 128.01)" gradientUnits="userSpaceOnUse">
		<stop  offset="0" style="stop-color:#01F5F6"/>
		<stop  offset="1" style="stop-color:#02E0E3;stop-opacity:0.7"/>
	</radialGradient>
	<path fill="url(#SVGID_5_)" d="M120.3,75.8c-4.7-2-7.6-6.7-7.4-11.8c-0.2-5.1,2.7-9.8,7.4-11.8c2-0.7,3.1-2.7,2.6-4.8
		c-1.3-4.6-3.1-9.1-5.5-13.3c-1-1.8-3.3-2.5-5.2-1.6c-4.7,1.9-10.1,0.7-13.6-3.1c-3.8-3.4-5-8.9-3.1-13.6c0.9-1.9,0.2-4.2-1.6-5.2
		c-4.2-2.4-8.7-4.2-13.3-5.5c-2-0.6-4.1,0.6-4.8,2.6c-2,4.7-6.7,7.6-11.8,7.4c-5.1,0.2-9.8-2.7-11.8-7.4c-0.7-2-2.8-3.1-4.8-2.6
		c-4.6,1.3-9.1,3.1-13.3,5.5c-1.8,1-2.5,3.3-1.6,5.2c1.9,4.7,0.6,10.1-3.1,13.6c-3.4,3.8-8.9,5-13.6,3.1c-1.9-1-4.2-0.3-5.2,1.6
		c-2.4,4.2-4.2,8.7-5.5,13.3c-0.6,2,0.6,4.1,2.6,4.8c4.7,2,7.6,6.7,7.4,11.8c0.2,5.1-2.7,9.8-7.4,11.8c-2,0.7-3.1,2.7-2.6,4.8
		c1.3,4.6,3.1,9.1,5.5,13.3c1,1.8,3.3,2.5,5.2,1.6c4.7-1.9,10.1-0.7,13.6,3.1c3.8,3.4,5,8.8,3.1,13.6c-0.9,1.9-0.2,4.1,1.6,5.2
		c4.2,2.3,8.7,4.2,13.3,5.5c2,0.6,4.1-0.6,4.8-2.6c2-4.7,6.7-7.6,11.8-7.4c5.1-0.2,9.8,2.7,11.8,7.4c0.7,2,2.8,3.1,4.8,2.6
		c4.6-1.3,9.1-3.1,13.3-5.5c1.8-1.1,2.5-3.3,1.6-5.2c-2.4-6.8,1.2-14.3,8-16.7c2.8-1,5.9-1,8.7,0c1.9,0.9,4.2,0.2,5.2-1.6
		c2.4-4.2,4.2-8.7,5.5-13.3C123.4,78.6,122.3,76.5,120.3,75.8z M64,99.4c-19.6,0-35.4-15.9-35.4-35.4S44.5,28.6,64,28.6
		c19.5,0,35.4,15.9,35.4,35.4C99.4,83.6,83.6,99.4,64,99.4C64,99.4,64,99.4,64,99.4z"/>
	<g opacity="0.8">
		<path fill="none" stroke="#00FEFE" stroke-width="3" stroke-linecap="round" stroke-miterlimit="10" d="M48.2,49.1
			c8.2-9,22.2-9.6,31.2-1.4c6.5,6,8.9,15.3,5.9,23.7"/>
		<path fill="none" stroke="#00FEFE" stroke-width="3" stroke-miterlimit="10" d="M52,40.6l-4.1,6.1c-0.4,0.8-0.1,1.7,0.7,2.1
			c0.2,0.1,0.5,0.2,0.7,0.2h7.1"/>
		<path fill="none" stroke="#00FEFE" stroke-width="3" stroke-linecap="round" stroke-miterlimit="10" d="M79.8,79.8
			c-8.2,9-22.2,9.6-31.2,1.3C41.9,75,39.7,65.5,42.9,57"/>
		<path fill="none" stroke="#00FEFE" stroke-width="3" stroke-miterlimit="10" d="M76.8,87.4l3.3-6.1c0.4-0.8,0.1-1.7-0.7-2.1
			c-0.2-0.1-0.5-0.2-0.7-0.2h-6.3"/>
	</g>
</g>
</svg>
