<?xml version="1.0" encoding="utf-8"?>
<!-- Generator: Adobe Illustrator 24.0.0, SVG Export Plug-In . SVG Version: 6.00 Build 0)  -->
<svg version="1.1" id="图层_1" xmlns="http://www.w3.org/2000/svg" xmlns:xlink="http://www.w3.org/1999/xlink" x="0px" y="0px"
	 viewBox="0 0 128 128" enable-background="new 0 0 128 128" xml:space="preserve">
<g id="图层_1_1_">
	<g>
		
			<linearGradient id="SVGID_1_" gradientUnits="userSpaceOnUse" x1="-57.7837" y1="83.1037" x2="-57.7837" y2="9.191" gradientTransform="matrix(0.9816 -0.1911 -0.1911 -0.9816 102.357 103.5858)">
			<stop  offset="0" style="stop-color:#EDAD00"/>
			<stop  offset="0.1104" style="stop-color:#D79100"/>
			<stop  offset="0.2569" style="stop-color:#C07400"/>
			<stop  offset="0.4121" style="stop-color:#AD5C00"/>
			<stop  offset="0.5781" style="stop-color:#A04C00"/>
			<stop  offset="0.7621" style="stop-color:#984200"/>
			<stop  offset="1" style="stop-color:#963F00"/>
		</linearGradient>
		<path fill="url(#SVGID_1_)" d="M50.6,29l-38.5,7.5C9.6,37,8,39.3,8.5,41.8L21,105.4c0.5,2.4,2.9,4,5.3,3.6l39.7-7.7L52.1,30
			C52,29.3,51.3,28.8,50.6,29z"/>
		
			<linearGradient id="SVGID_2_" gradientUnits="userSpaceOnUse" x1="90.8381" y1="108.9914" x2="90.8381" y2="28.7" gradientTransform="matrix(1 0 0 -1 0 128)">
			<stop  offset="0" style="stop-color:#EDAD00"/>
			<stop  offset="0.1104" style="stop-color:#D79100"/>
			<stop  offset="0.2569" style="stop-color:#C07400"/>
			<stop  offset="0.4121" style="stop-color:#AD5C00"/>
			<stop  offset="0.5781" style="stop-color:#A04C00"/>
			<stop  offset="0.7621" style="stop-color:#984200"/>
			<stop  offset="1" style="stop-color:#963F00"/>
		</linearGradient>
		<path fill="url(#SVGID_2_)" d="M115.8,91.6l-39.7,7.7v-0.2l0,0l-1.2-6.2v-0.2L74.7,92l-0.2-0.9l0,0L73,83.3l-0.1-0.8l-1.5-7.8
			L71.2,74l-0.3-1.6l-1.2-6.2l-0.1-0.8L68,57.7l-0.1-0.8l-1.5-7.8l-0.1-0.8l-1.5-7.8L64.5,40v-0.2L63.2,33l-0.1-0.3L63,31.9
			l-0.2-1.3L62.2,28c-0.1-0.7,0.3-1.3,1-1.5l38.5-7.4c2.5-0.5,4.8,1.1,5.3,3.6l3.5,17.9l0.2,1.1l0.4,2.1l0.7,3.6l7.6,38.9
			C119.9,88.7,118.3,91.1,115.8,91.6z"/>
		
			<linearGradient id="SVGID_3_" gradientUnits="userSpaceOnUse" x1="57.4193" y1="97.05" x2="70.7624" y2="29.9999" gradientTransform="matrix(1 0 0 -1 0 128)">
			<stop  offset="0" style="stop-color:#EDCE00"/>
			<stop  offset="1.990813e-02" style="stop-color:#EAC800"/>
			<stop  offset="0.1534" style="stop-color:#D6A400"/>
			<stop  offset="0.2939" style="stop-color:#C58600"/>
			<stop  offset="0.4415" style="stop-color:#B86E00"/>
			<stop  offset="0.5992" style="stop-color:#AF5E00"/>
			<stop  offset="0.774" style="stop-color:#AA5400"/>
			<stop  offset="1" style="stop-color:#A85100"/>
		</linearGradient>
		<path fill="url(#SVGID_3_)" d="M29.8,106c-0.2,0-0.4-0.2-0.5-0.4c-0.1-0.3,0.1-0.5,0.4-0.6l3.9-0.8c0.3-0.1,0.5,0.1,0.6,0.4
			s-0.1,0.5-0.4,0.6L29.8,106C29.9,106,29.8,106,29.8,106z M26,105.6c-0.1,0-0.2,0-0.3-0.1c-0.6-0.5-1.1-1.3-1.2-2.1l-0.4-1.8
			c-0.1-0.3,0.1-0.5,0.4-0.6s0.5,0.1,0.6,0.4l0.4,1.8c0.1,0.6,0.4,1.1,0.9,1.5c0.2,0.2,0.2,0.5,0.1,0.7
			C26.3,105.5,26.1,105.6,26,105.6z M37.7,104.5c-0.2,0-0.4-0.2-0.5-0.4c-0.1-0.3,0.1-0.5,0.4-0.6l3.9-0.8c0.3-0.1,0.5,0.1,0.6,0.4
			s-0.1,0.5-0.4,0.6L37.7,104.5C37.8,104.5,37.7,104.5,37.7,104.5z M45.6,102.9c-0.2,0-0.4-0.2-0.5-0.4c-0.1-0.3,0.1-0.5,0.4-0.6
			l3.9-0.8c0.3-0.1,0.5,0.1,0.6,0.4s-0.1,0.5-0.4,0.6L45.6,102.9C45.7,102.9,45.6,102.9,45.6,102.9z M53.5,101.4
			c-0.2,0-0.4-0.2-0.5-0.4c-0.1-0.3,0.1-0.5,0.4-0.6l3.9-0.8c0.3-0.1,0.5,0.1,0.6,0.4s-0.1,0.5-0.4,0.6L53.5,101.4
			C53.6,101.3,53.5,101.4,53.5,101.4z M61.4,99.8c-0.2,0-0.4-0.2-0.5-0.4c-0.1-0.3,0.1-0.5,0.4-0.6l3.9-0.8c0.3-0.1,0.5,0.1,0.6,0.4
			s-0.1,0.5-0.4,0.6L61.4,99.8C61.5,99.8,61.4,99.8,61.4,99.8z M69.3,98.2c-0.2,0-0.4-0.2-0.5-0.4c-0.1-0.3,0.1-0.5,0.4-0.6l3.9-0.8
			c0.3-0.1,0.5,0.1,0.6,0.4s-0.1,0.5-0.4,0.6L69.3,98.2C69.4,98.2,69.3,98.2,69.3,98.2z M23.8,98c-0.2,0-0.4-0.2-0.5-0.4l-0.8-3.9
			c-0.1-0.3,0.1-0.5,0.4-0.6s0.5,0.1,0.6,0.4l0.8,3.9C24.3,97.7,24.1,98,23.8,98L23.8,98z M77.2,96.7c-0.2,0-0.4-0.2-0.5-0.4
			c-0.1-0.3,0.1-0.5,0.4-0.6l3.9-0.8c0.3-0.1,0.5,0.1,0.6,0.4s-0.1,0.5-0.4,0.6L77.2,96.7C77.3,96.7,77.2,96.7,77.2,96.7z
			 M85.1,95.1c-0.2,0-0.4-0.2-0.5-0.4c-0.1-0.3,0.1-0.5,0.4-0.6l3.9-0.8c0.3-0.1,0.5,0.1,0.6,0.4s-0.1,0.5-0.4,0.6L85.1,95.1
			C85.2,95.1,85.1,95.1,85.1,95.1z M93,93.5c-0.2,0-0.4-0.2-0.5-0.4c-0.1-0.3,0.1-0.5,0.4-0.6l3.9-0.8c0.3-0.1,0.5,0.1,0.6,0.4
			s-0.1,0.5-0.4,0.6L93,93.5C93.1,93.5,93,93.5,93,93.5z M100.9,92c-0.2,0-0.4-0.2-0.5-0.4c-0.1-0.3,0.1-0.5,0.4-0.6l3.9-0.8
			c0.3-0.1,0.5,0.1,0.6,0.4s-0.1,0.5-0.4,0.6L100.9,92C101,92,100.9,92,100.9,92z M108.8,90.4c-0.2,0-0.4-0.2-0.5-0.4
			c-0.1-0.3,0.1-0.5,0.4-0.6l3.9-0.8l0,0c0.3,0,0.5,0.1,0.6,0.4s-0.1,0.5-0.4,0.6l0,0L108.8,90.4C108.9,90.4,108.8,90.4,108.8,90.4z
			 M22.2,90.2c-0.2,0-0.4-0.2-0.5-0.4l-0.8-3.9c-0.1-0.3,0.1-0.5,0.4-0.6s0.5,0.1,0.6,0.4l0.8,3.9C22.7,89.8,22.6,90.1,22.2,90.2
			C22.3,90.2,22.2,90.2,22.2,90.2z M115.3,86.9L115.3,86.9c-0.3,0-0.5-0.3-0.5-0.6c0-0.1,0-0.2,0-0.3c0-0.2,0-0.4-0.1-0.5l-0.6-2.9
			c-0.1-0.3,0.1-0.5,0.4-0.6s0.5,0.1,0.6,0.4l0.6,2.9c0,0.2,0.1,0.5,0.1,0.7c0,0.1,0,0.3,0,0.4C115.8,86.7,115.6,86.9,115.3,86.9z
			 M20.6,82.3c-0.2,0-0.4-0.2-0.5-0.4L19.3,78c-0.1-0.3,0.1-0.5,0.4-0.6s0.5,0.1,0.6,0.4l0.8,3.9C21.2,82,21,82.3,20.6,82.3
			C20.7,82.3,20.6,82.3,20.6,82.3z M113.9,79c-0.2,0-0.4-0.2-0.5-0.4l-0.8-3.9c-0.1-0.3,0.1-0.5,0.4-0.6s0.5,0.1,0.6,0.4l0.8,3.9
			C114.4,78.7,114.3,79,113.9,79C114,79,113.9,79,113.9,79z M19,74.5c-0.2,0-0.4-0.2-0.5-0.4l-0.8-3.9c-0.1-0.3,0.1-0.5,0.4-0.6
			s0.5,0.1,0.6,0.4l0.8,3.9C19.6,74.1,19.4,74.4,19,74.5C19.1,74.5,19.1,74.5,19,74.5z M112.3,71.2c-0.2,0-0.4-0.2-0.5-0.4l-0.8-3.9
			c-0.1-0.3,0.1-0.5,0.4-0.6s0.5,0.1,0.6,0.4l0.8,3.9C112.9,70.8,112.7,71.1,112.3,71.2C112.4,71.2,112.4,71.2,112.3,71.2z
			 M17.5,66.6c-0.2,0-0.4-0.2-0.5-0.4l-0.8-3.9c-0.1-0.3,0.1-0.5,0.4-0.6s0.5,0.1,0.6,0.4L18,66C18,66.3,17.8,66.6,17.5,66.6
			L17.5,66.6z M110.7,63.3c-0.2,0-0.4-0.2-0.5-0.4l-0.8-3.9c-0.1-0.3,0.1-0.5,0.4-0.6s0.5,0.1,0.6,0.4l0.8,3.9
			C111.3,63,111.1,63.3,110.7,63.3C110.8,63.3,110.8,63.3,110.7,63.3z M15.9,58.8c-0.2,0-0.4-0.2-0.5-0.4l-0.8-3.9
			c-0.1-0.3,0.1-0.5,0.4-0.6c0.3-0.1,0.5,0.1,0.6,0.4l0.8,3.9C16.4,58.4,16.3,58.7,15.9,58.8C16,58.8,15.9,58.8,15.9,58.8z
			 M109.2,55.5c-0.2,0-0.4-0.2-0.5-0.4l-0.8-3.9c-0.1-0.3,0.1-0.5,0.4-0.6s0.5,0.1,0.6,0.4l0.8,3.9
			C109.7,55.1,109.5,55.4,109.2,55.5L109.2,55.5z M14.3,50.9c-0.2,0-0.4-0.2-0.5-0.4L13,46.6c-0.1-0.3,0.1-0.5,0.4-0.6
			c0.3-0.1,0.5,0.1,0.6,0.4l0.8,3.9C14.9,50.6,14.7,50.8,14.3,50.9C14.4,50.9,14.4,50.9,14.3,50.9z M107.6,47.6
			c-0.2,0-0.4-0.2-0.5-0.4l-0.8-3.9c-0.1-0.3,0.1-0.5,0.4-0.6s0.5,0.1,0.6,0.4l0.8,3.9C108.1,47.3,108,47.6,107.6,47.6
			C107.7,47.6,107.6,47.6,107.6,47.6z M12.9,43L12.9,43c-0.3,0-0.5-0.3-0.5-0.6c0.2-1.6,1.4-2.9,3-3.2c0.3-0.1,0.5,0.1,0.6,0.4
			c0.1,0.3-0.1,0.5-0.4,0.6c-1.2,0.2-2,1.2-2.2,2.3C13.4,42.9,13.2,43,12.9,43z M106,39.8c-0.2,0-0.4-0.2-0.5-0.4l-0.8-3.9
			c-0.1-0.3,0.1-0.5,0.4-0.6s0.5,0.1,0.6,0.4l0.8,3.9C106.6,39.4,106.4,39.7,106,39.8C106.1,39.8,106.1,39.8,106,39.8z M19.4,39.5
			c-0.2,0-0.4-0.2-0.5-0.4c-0.1-0.3,0.1-0.5,0.4-0.6l3.9-0.8c0.3-0.1,0.5,0.1,0.6,0.4c0.1,0.3-0.1,0.5-0.4,0.6L19.4,39.5
			C19.5,39.5,19.5,39.5,19.4,39.5z M27.3,38c-0.2,0-0.4-0.2-0.5-0.4c0-0.3,0.2-0.6,0.4-0.6l3.9-0.8c0.3-0.1,0.5,0.1,0.6,0.4
			c0.1,0.3-0.1,0.5-0.4,0.6L27.3,38C27.4,38,27.4,38,27.3,38z M35.2,36.4c-0.2,0-0.4-0.2-0.5-0.4c-0.1-0.3,0.1-0.5,0.4-0.6l3.9-0.8
			c0.3-0.1,0.5,0.1,0.6,0.4c0.1,0.3-0.1,0.5-0.4,0.6L35.2,36.4C35.3,36.4,35.3,36.4,35.2,36.4z M43.1,34.8c-0.2,0-0.4-0.2-0.5-0.4
			c-0.1-0.3,0.1-0.5,0.4-0.6l3.9-0.8c0.3-0.1,0.5,0.1,0.6,0.4c0.1,0.3-0.1,0.5-0.4,0.6L43.1,34.8C43.2,34.8,43.2,34.8,43.1,34.8z
			 M51,33.3c-0.2,0-0.4-0.2-0.5-0.4c-0.1-0.3,0.1-0.5,0.4-0.6l3.9-0.8c0.3-0.1,0.5,0.1,0.6,0.4c0.1,0.3-0.1,0.5-0.4,0.6L51,33.3
			C51.1,33.3,51.1,33.3,51,33.3z M104.5,31.9c-0.2,0-0.4-0.2-0.5-0.4l-0.8-3.9c-0.1-0.3,0.1-0.5,0.4-0.6s0.5,0.1,0.6,0.4l0.8,3.9
			C105,31.6,104.8,31.9,104.5,31.9L104.5,31.9z M58.9,31.7c-0.2,0-0.4-0.2-0.5-0.4c-0.1-0.3,0.1-0.5,0.4-0.6l3.9-0.8
			c0.3-0.1,0.5,0.1,0.6,0.4s-0.1,0.5-0.4,0.6L58.9,31.7C59,31.7,58.9,31.7,58.9,31.7z M66.8,30.1c-0.2,0-0.4-0.2-0.5-0.4
			c-0.1-0.3,0.1-0.5,0.4-0.6l3.9-0.8c0.3-0.1,0.5,0.1,0.6,0.4s-0.1,0.5-0.4,0.6L66.8,30.1C66.9,30.1,66.8,30.1,66.8,30.1z
			 M74.7,28.6c-0.2,0-0.4-0.2-0.5-0.4c-0.1-0.3,0.1-0.5,0.4-0.6l3.9-0.8c0.3-0.1,0.5,0.1,0.6,0.4s-0.1,0.5-0.4,0.6L74.7,28.6
			C74.8,28.6,74.7,28.6,74.7,28.6z M82.6,27c-0.2,0-0.4-0.2-0.5-0.4c-0.1-0.3,0.1-0.5,0.4-0.6l3.9-0.8c0.3-0.1,0.5,0.1,0.6,0.4
			s-0.1,0.5-0.4,0.6L82.6,27C82.7,27,82.6,27,82.6,27z M90.5,25.5c-0.2,0-0.4-0.2-0.5-0.4c-0.1-0.3,0.1-0.5,0.4-0.6l3.9-0.8
			c0.3-0.1,0.5,0.1,0.6,0.4s-0.1,0.5-0.4,0.6L90.5,25.5C90.6,25.5,90.5,25.5,90.5,25.5z M102.2,24.4c-0.1,0-0.2,0-0.3-0.1
			c-0.6-0.5-1.5-0.7-2.3-0.6l-1.1,0.2c-0.3,0.1-0.5-0.1-0.6-0.4s0.1-0.5,0.4-0.6l1.1-0.2c1.1-0.2,2.3,0.1,3.1,0.8
			c0.2,0.2,0.2,0.5,0.1,0.7C102.5,24.3,102.4,24.4,102.2,24.4z"/>
		<g>
			
				<linearGradient id="SVGID_4_" gradientUnits="userSpaceOnUse" x1="-30.0725" y1="81.9624" x2="-30.0725" y2="9.2241" gradientTransform="matrix(0.9816 -0.1911 -0.1911 -0.9816 102.357 103.5858)">
				<stop  offset="0" style="stop-color:#FF7100"/>
				<stop  offset="6.090879e-02" style="stop-color:#EB6803"/>
				<stop  offset="0.1888" style="stop-color:#C75709"/>
				<stop  offset="0.3234" style="stop-color:#A9490E"/>
				<stop  offset="0.4648" style="stop-color:#913E12"/>
				<stop  offset="0.6159" style="stop-color:#813615"/>
				<stop  offset="0.7834" style="stop-color:#773116"/>
				<stop  offset="1" style="stop-color:#743017"/>
			</linearGradient>
			<path fill="url(#SVGID_4_)" d="M76.1,99L62.2,27.9l-10.1,2L66,101c0,0.1,0,0.2,0.1,0.2l10-1.9C76.1,99.2,76.1,99.1,76.1,99z"/>
			
				<linearGradient id="SVGID_5_" gradientUnits="userSpaceOnUse" x1="-34.695" y1="82.0327" x2="-34.695" y2="9.2892" gradientTransform="matrix(0.9816 -0.1911 -0.1911 -0.9816 102.357 103.5858)">
				<stop  offset="0" style="stop-color:#FF7100"/>
				<stop  offset="8.373319e-02" style="stop-color:#E26504"/>
				<stop  offset="0.213" style="stop-color:#BD550A"/>
				<stop  offset="0.3482" style="stop-color:#9E470F"/>
				<stop  offset="0.489" style="stop-color:#863D12"/>
				<stop  offset="0.6377" style="stop-color:#753615"/>
				<stop  offset="0.7998" style="stop-color:#6B3117"/>
				<stop  offset="1" style="stop-color:#683017"/>
			</linearGradient>
			<path fill="url(#SVGID_5_)" d="M67,100.8L53.1,29.6l-1,0.2L66,101c0,0.1,0,0.2,0,0.2l1-0.2C67.1,101,67,100.9,67,100.8z"/>
			
				<linearGradient id="SVGID_6_" gradientUnits="userSpaceOnUse" x1="-25.4836" y1="81.9816" x2="-25.4836" y2="9.2139" gradientTransform="matrix(0.9816 -0.1911 -0.1911 -0.9816 102.357 103.5858)">
				<stop  offset="0" style="stop-color:#FF7100"/>
				<stop  offset="8.373319e-02" style="stop-color:#E26504"/>
				<stop  offset="0.213" style="stop-color:#BD550A"/>
				<stop  offset="0.3482" style="stop-color:#9E470F"/>
				<stop  offset="0.489" style="stop-color:#863D12"/>
				<stop  offset="0.6377" style="stop-color:#753615"/>
				<stop  offset="0.7998" style="stop-color:#6B3117"/>
				<stop  offset="1" style="stop-color:#683017"/>
			</linearGradient>
			<path fill="url(#SVGID_6_)" d="M76.1,99l-14-71.1l-1,0.2L75,99.2c0,0.1,0,0.2,0,0.2l1-0.2C76.1,99.2,76.1,99.1,76.1,99z"/>
			<path fill="#602513" d="M66.1,101.2c0.2,0.6,0.9,1,1.5,0.8l7.4-1.4c0.7-0.1,1.1-0.7,1.1-1.3L66.1,101.2z"/>
		</g>
		<g>
			<g>
				<g>
					<g>
						<path fill="#8C8985" d="M58.4,35.2c-0.5-0.5-6.2-0.6-11.7,0.5c-1.3,0.3-4.6,1-11.7,4c-5.1,2.2-5.5,2.7-8.2,3.6
							c-4.2,1.3-8.2,0.4-10.7,0.4c3.7,20,7.5,40,11.2,60c1.1,0.2,3.1,0.8,5.2,0.5c1.6-0.3,2.5-0.4,5.4-1.4c3.1-1,3-1,5.4-1.8
							c1.1-0.3,3-0.7,8.7-3c5.3-2.2,6.2-2.7,7-2.8c2.3-0.5,6.7-1.1,11.2,0.6L58.4,35.2z"/>
						<path fill="#A6A29E" d="M58.4,35.2c-0.5-0.5-6.2-1-11.5,0.1c-1.3,0.3-4.5,1-11.5,4c-5,2.2-5.4,2.7-8,3.6
							c-4.1,1.3-8,0.4-10.6,0.4c3.7,20,7.5,40,11.2,60c1.1,0.2,3.1,0.8,5.1,0.5c1.6-0.2,2.4-0.4,5.3-1.4c3.1-1,2.9-1,5.3-1.8
							c1-0.3,3-0.5,8.5-3c5.4-2.5,6.1-2.6,6.9-2.8c2.2-0.5,6.6-0.7,11.1,1L58.4,35.2z"/>
						
							<linearGradient id="SVGID_7_" gradientUnits="userSpaceOnUse" x1="-71.9893" y1="46.1934" x2="-30.0401" y2="46.1934" gradientTransform="matrix(0.9816 -0.1911 -0.1911 -0.9816 102.357 103.5858)">
							<stop  offset="0" style="stop-color:#E0E0E0"/>
							<stop  offset="0.4818" style="stop-color:#DEDEDE"/>
							<stop  offset="0.6553" style="stop-color:#D7D7D7"/>
							<stop  offset="0.779" style="stop-color:#CCCCCC"/>
							<stop  offset="0.879" style="stop-color:#BBBBBB"/>
							<stop  offset="0.9637" style="stop-color:#A5A5A5"/>
							<stop  offset="1" style="stop-color:#999999"/>
						</linearGradient>
						<path fill="url(#SVGID_7_)" d="M58.4,35.2c-0.5-0.5-6.3-2.1-11.5-1.1c-1.3,0.3-4.4,0.9-11.3,4c-4.9,2.2-5.3,2.7-7.8,3.5
							c-4,1.3-7.6,1.5-10.1,1.4c3.7,20,7.5,40,11.2,60c1.1,0.2,2.8,0.3,4.8,0c1.6-0.2,2.7-0.3,5.5-1.2c3-1,2.8-1,5.1-1.8
							c1-0.3,2.8-0.8,8.1-3.2c5.1-2.4,5.6-2.5,6.7-2.7c2.2-0.4,6.6-0.7,11,1L58.4,35.2z"/>
						
							<linearGradient id="SVGID_8_" gradientUnits="userSpaceOnUse" x1="-70.9148" y1="47.0697" x2="-30.0644" y2="47.0697" gradientTransform="matrix(0.9816 -0.1911 -0.1911 -0.9816 102.357 103.5858)">
							<stop  offset="0" style="stop-color:#FFFFFF"/>
							<stop  offset="0.448" style="stop-color:#FDFDFD"/>
							<stop  offset="0.6093" style="stop-color:#F6F6F6"/>
							<stop  offset="0.7243" style="stop-color:#EBEBEB"/>
							<stop  offset="0.8173" style="stop-color:#DADADA"/>
							<stop  offset="0.897" style="stop-color:#C4C4C4"/>
							<stop  offset="0.9662" style="stop-color:#A9A9A9"/>
							<stop  offset="1" style="stop-color:#999999"/>
						</linearGradient>
						<path fill="url(#SVGID_8_)" d="M58.3,35l11.6,59.2c-4.4-1.7-8.7-1.2-9.4-1.1c-1.7,0.2-4.1,1.4-7.2,2.7
							c-4.1,1.7-5.5,2.5-6.5,2.8c-2.3,0.8-3.7,1.2-6.7,2.2c-2.8,0.9-3.9,0.9-5.5,1.2c-2,0.3-3.7,0.2-4.8,0
							c-3.1-16.7-6.3-33.4-9.4-50.1c0-0.3-0.1-0.5-0.1-0.8c-0.6-3.1-1.1-6.1-1.7-9.2c2.5,0.1,6.1-0.1,10.1-1.4
							c2.6-0.8,3-1.4,7.8-3.5c6.8-3,10-3.7,11.3-4c5.2-1,7.4-0.3,8.7,0.5C57.2,34,57.8,34.5,58.3,35z"/>
					</g>
					<g>
						<path fill="#8C8985" d="M58.4,35.2c0.3-0.6,5.5-2.8,11-3.9c1.3-0.3,4.6-0.8,12.4-0.6c5.6,0.1,6.1,0.5,8.9,0.3
							c4.4-0.3,7.7-2.6,10.1-3.6c4.1,19.9,8.2,39.9,12.2,59.8c-1,0.6-2.6,1.9-4.6,2.4c-1.6,0.4-2.4,0.5-5.5,0.7
							c-3.3,0.2-3.1,0.2-5.7,0.4c-1.1,0.1-3,0.4-9.2,0.4c-5.7,0-6.7-0.2-7.6,0c-2.3,0.4-6.6,1.5-10.2,4.7L58.4,35.2z"/>
						<path fill="#A6A29E" d="M58.4,35.2c0.3-0.6,5.4-3.2,10.7-4.2c1.3-0.3,4.6-0.8,12.2-0.6c5.5,0.2,6,0.5,8.8,0.3
							c4.3-0.3,7.6-2.6,9.9-3.6c4.1,19.9,8.1,39.9,12.2,59.8c-1,0.6-2.5,1.9-4.6,2.4c-1.6,0.4-2.4,0.5-5.4,0.7
							c-3.2,0.2-3.1,0.2-5.6,0.4c-1.1,0.1-3,0.7-9,0.4c-5.9-0.3-6.6-0.2-7.4,0c-2.3,0.4-6.4,1.8-10,5.1L58.4,35.2z"/>
						
							<linearGradient id="SVGID_9_" gradientUnits="userSpaceOnUse" x1="-858.6545" y1="46.1693" x2="-816.6599" y2="46.1693" gradientTransform="matrix(-0.9816 0.1911 -0.1911 -0.9816 -728.8061 265.3953)">
							<stop  offset="0" style="stop-color:#E0E0E0"/>
							<stop  offset="0.4818" style="stop-color:#DEDEDE"/>
							<stop  offset="0.6553" style="stop-color:#D7D7D7"/>
							<stop  offset="0.779" style="stop-color:#CCCCCC"/>
							<stop  offset="0.879" style="stop-color:#BBBBBB"/>
							<stop  offset="0.9637" style="stop-color:#A5A5A5"/>
							<stop  offset="1" style="stop-color:#999999"/>
						</linearGradient>
						<path fill="url(#SVGID_9_)" d="M58.4,35.2c0.3-0.6,5-4.3,10.2-5.3c1.3-0.2,4.5-0.8,11.9-0.5c5.4,0.2,5.9,0.5,8.6,0.3
							c4.2-0.3,7.6-1.5,9.9-2.5c4.1,19.9,8.1,39.9,12.2,59.8c-1,0.6-2.5,1.3-4.4,1.8c-1.6,0.4-2.6,0.7-5.5,1c-3.1,0.2-3,0.1-5.4,0.3
							c-1.1,0.1-2.9,0.3-8.7,0c-5.7-0.3-6.1-0.2-7.2,0c-2.2,0.4-6.3,1.8-9.8,5.1L58.4,35.2z"/>
						
							<linearGradient id="SVGID_10_" gradientUnits="userSpaceOnUse" x1="-857.5095" y1="46.9298" x2="-816.6047" y2="46.9298" gradientTransform="matrix(-0.9816 0.1911 -0.1911 -0.9816 -728.8061 265.3953)">
							<stop  offset="0" style="stop-color:#FFFFFF"/>
							<stop  offset="0.448" style="stop-color:#FDFDFD"/>
							<stop  offset="0.6093" style="stop-color:#F6F6F6"/>
							<stop  offset="0.7243" style="stop-color:#EBEBEB"/>
							<stop  offset="0.8173" style="stop-color:#DADADA"/>
							<stop  offset="0.897" style="stop-color:#C4C4C4"/>
							<stop  offset="0.9662" style="stop-color:#A9A9A9"/>
							<stop  offset="1" style="stop-color:#999999"/>
						</linearGradient>
						<path fill="url(#SVGID_10_)" d="M58.3,35l11.6,59.2c3.5-3.2,7.6-4.4,8.3-4.5c1.6-0.4,4.4-0.2,7.7-0.2c4.5,0.1,6,0.2,7.1,0.2
							c2.5-0.2,3.9-0.2,7-0.4c3-0.2,4-0.6,5.6-1c2-0.5,3.5-1.2,4.4-1.8c-3.4-16.7-6.8-33.3-10.2-50c-0.1-0.3-0.1-0.5-0.2-0.8
							c-0.6-3-1.2-6.1-1.9-9.1c-2.3,1-5.7,2.2-9.9,2.5c-2.7,0.2-3.3-0.2-8.6-0.3c-7.5-0.3-10.6,0.3-11.9,0.5c-5.2,1-6.9,2.5-7.9,3.7
							C59,33.7,58.6,34.4,58.3,35z"/>
					</g>
				</g>
				<g>
					<g>
						<path opacity="0.5" fill="#9E9E9E" enable-background="new    " d="M60.1,44.1l0.1,0.8l0,0c-0.5-0.5-1.1-1-1.8-1.4
							C57.1,42.7,55,42,49.7,43c-1.3,0.3-4.5,0.9-11.3,4c-4.9,2.2-5.3,2.7-7.9,3.5c-4,1.3-7.6,1.5-10.1,1.4c0-0.3-0.1-0.5-0.1-0.8
							c2.5,0.1,6-0.1,10.1-1.4c2.6-0.8,3-1.4,7.9-3.5c6.8-3,10-3.7,11.3-4c5.3-1,7.4-0.3,8.7,0.5C59,43.2,59.6,43.7,60.1,44.1
							L60.1,44.1z"/>
						<path opacity="0.5" fill="#9E9E9E" enable-background="new    " d="M61.8,52.7l0.1,0.8l0,0c-0.5-0.5-1.1-1-1.8-1.4
							c-1.3-0.8-3.5-1.5-8.7-0.5c-1.3,0.3-4.5,0.9-11.3,4c-4.9,2.2-5.3,2.7-7.9,3.5c-4,1.3-7.6,1.5-10.1,1.4c0-0.3-0.1-0.5-0.1-0.8
							c2.5,0.1,6-0.1,10.1-1.4c2.6-0.8,3-1.4,7.9-3.5c6.8-3,10-3.7,11.3-4c5.3-1,7.4-0.3,8.7,0.5C60.7,51.7,61.3,52.2,61.8,52.7
							L61.8,52.7z"/>
						<path opacity="0.5" fill="#9E9E9E" enable-background="new    " d="M63.5,61.2l0.1,0.8l0,0c-0.5-0.5-1.1-1-1.8-1.4
							c-1.3-0.8-3.5-1.5-8.7-0.5c-1.3,0.3-4.5,0.9-11.3,4c-4.9,2.2-5.3,2.7-7.9,3.5c-4,1.3-7.6,1.5-10.1,1.4c0-0.3-0.1-0.5-0.1-0.8
							c2.5,0.1,6-0.1,10.1-1.4c2.6-0.8,3-1.4,7.9-3.5c6.8-3,10-3.7,11.3-4c5.3-1,7.4-0.3,8.7,0.5C62.4,60.3,63,60.7,63.5,61.2
							L63.5,61.2z"/>
						<path opacity="0.5" fill="#9E9E9E" enable-background="new    " d="M65.1,69.8l0.1,0.8l0,0c-0.5-0.5-1.1-1-1.8-1.4
							c-1.3-0.8-3.5-1.5-8.7-0.5c-1.3,0.3-4.5,0.9-11.3,4c-4.9,2.2-5.3,2.7-7.9,3.5c-4,1.3-7.6,1.5-10.1,1.4c0-0.3-0.1-0.5-0.1-0.8
							c2.5,0.1,6-0.1,10.1-1.4c2.6-0.8,3-1.4,7.9-3.5c6.8-3,10-3.7,11.3-4c5.3-1,7.4-0.3,8.7,0.5C64,68.8,64.6,69.3,65.1,69.8
							L65.1,69.8z"/>
						<path opacity="0.5" fill="#9E9E9E" enable-background="new    " d="M66.8,78.3l0.1,0.8l0,0c-0.5-0.5-1.1-1-1.8-1.4
							c-1.3-0.8-3.5-1.5-8.7-0.5c-1.3,0.3-4.5,0.9-11.3,4c-4.9,2.2-5.3,2.7-7.9,3.5c-4,1.3-7.6,1.5-10.1,1.4c0-0.3-0.1-0.5-0.1-0.8
							c2.5,0.1,6-0.1,10.1-1.4c2.6-0.8,3-1.4,7.9-3.5c6.8-3,10-3.7,11.3-4c5.3-1,7.4-0.3,8.7,0.5C65.7,77.3,66.3,77.8,66.8,78.3
							L66.8,78.3z"/>
						<path opacity="0.5" fill="#9E9E9E" enable-background="new    " d="M68.5,86.9l0.1,0.8l0,0c-0.5-0.5-1.1-1-1.8-1.4
							c-1.3-0.8-3.5-1.5-8.7-0.5c-1.3,0.3-4.5,0.9-11.3,4c-4.9,2.2-5.3,2.7-7.9,3.5c-4,1.3-7.6,1.5-10.1,1.4c0-0.3-0.1-0.5-0.1-0.8
							c2.5,0.1,6-0.1,10.1-1.4c2.6-0.8,3-1.4,7.9-3.5c6.8-3,10-3.7,11.3-4c5.3-1,7.4-0.3,8.7,0.5C67.4,85.9,68,86.4,68.5,86.9
							L68.5,86.9z"/>
					</g>
					<g>
						<path opacity="0.5" fill="#9E9E9E" enable-background="new    " d="M60.1,44.1l0.1,0.8l0,0c0.3-0.6,0.6-1.3,1.2-2
							c0.9-1.2,2.7-2.7,7.9-3.7c1.3-0.2,4.5-0.8,12-0.5c5.4,0.2,5.9,0.5,8.6,0.3c4.2-0.3,7.6-1.5,9.9-2.4c-0.1-0.3-0.1-0.5-0.2-0.8
							c-2.3,1-5.7,2.1-9.9,2.4c-2.7,0.2-3.3-0.2-8.6-0.3c-7.5-0.2-10.7,0.3-12,0.5c-5.3,1-7,2.5-7.9,3.7
							C60.8,42.8,60.4,43.5,60.1,44.1L60.1,44.1z"/>
						<path opacity="0.5" fill="#9E9E9E" enable-background="new    " d="M61.8,52.7l0.1,0.8l0,0c0.3-0.6,0.6-1.3,1.2-2
							c0.9-1.2,2.7-2.7,7.9-3.7c1.3-0.2,4.5-0.8,12-0.5c5.4,0.2,5.9,0.5,8.6,0.3c4.2-0.3,7.6-1.5,9.9-2.4c-0.1-0.3-0.1-0.5-0.2-0.8
							c-2.3,1-5.7,2.1-9.9,2.4c-2.7,0.2-3.3-0.2-8.6-0.3c-7.5-0.2-10.7,0.3-12,0.5c-5.3,1-7,2.5-7.9,3.7
							C62.4,51.4,62.1,52.1,61.8,52.7L61.8,52.7z"/>
						<path opacity="0.5" fill="#9E9E9E" enable-background="new    " d="M63.5,61.2l0.1,0.8l0,0c0.3-0.6,0.6-1.3,1.2-2
							c0.9-1.2,2.7-2.7,7.9-3.7c1.3-0.2,4.5-0.8,12-0.5c5.4,0.2,5.9,0.5,8.6,0.3c4.2-0.3,7.6-1.5,9.9-2.4c-0.1-0.3-0.1-0.5-0.2-0.8
							c-2.3,1-5.7,2.1-9.9,2.4c-2.7,0.2-3.3-0.2-8.6-0.3c-7.5-0.2-10.7,0.3-12,0.5c-5.3,1-7,2.5-7.9,3.7
							C64.1,59.9,63.7,60.6,63.5,61.2L63.5,61.2z"/>
						<path opacity="0.5" fill="#9E9E9E" enable-background="new    " d="M65.1,69.8l0.1,0.8l0,0c0.3-0.6,0.6-1.3,1.2-2
							c0.9-1.2,2.7-2.7,7.9-3.7c1.3-0.2,4.5-0.8,12-0.5c5.4,0.2,5.9,0.5,8.6,0.3c4.2-0.3,7.6-1.5,9.9-2.4c-0.1-0.3-0.1-0.5-0.2-0.8
							c-2.3,1-5.7,2.1-9.9,2.4c-2.7,0.2-3.3-0.2-8.6-0.3c-7.5-0.2-10.7,0.3-12,0.5c-5.3,1-7,2.5-7.9,3.7
							C65.8,68.5,65.4,69.1,65.1,69.8L65.1,69.8z"/>
						<path opacity="0.5" fill="#9E9E9E" enable-background="new    " d="M66.8,78.3l0.1,0.8l0,0c0.3-0.6,0.6-1.3,1.2-2
							c0.9-1.2,2.7-2.7,7.9-3.7c1.3-0.2,4.5-0.8,12-0.5c5.4,0.2,5.9,0.5,8.6,0.3c4.2-0.3,7.6-1.5,9.9-2.4c-0.1-0.3-0.1-0.5-0.2-0.8
							c-2.3,1-5.7,2.1-9.9,2.4c-2.7,0.2-3.3-0.2-8.6-0.3c-7.5-0.2-10.7,0.3-12,0.5c-5.3,1-7,2.5-7.9,3.7
							C67.4,77,67.1,77.7,66.8,78.3L66.8,78.3z"/>
						<path opacity="0.5" fill="#9E9E9E" enable-background="new    " d="M68.5,86.9l0.1,0.8l0,0c0.3-0.6,0.6-1.3,1.2-2
							c0.9-1.2,2.7-2.7,7.9-3.7c1.3-0.2,4.5-0.8,12-0.5c5.4,0.2,5.9,0.5,8.6,0.3c4.2-0.3,7.6-1.5,9.9-2.4c-0.1-0.3-0.1-0.5-0.2-0.8
							c-2.3,1-5.7,2.1-9.9,2.4c-2.7,0.2-3.3-0.2-8.6-0.3c-7.5-0.2-10.7,0.3-12,0.5c-5.3,1-7,2.5-7.9,3.7
							C69.1,85.6,68.7,86.2,68.5,86.9L68.5,86.9z"/>
					</g>
				</g>
			</g>
			<g>
				<path fill="#9E9E9E" d="M37.9,48.3L37,48.7l-6.7,2.7l-0.9,0.4L30,54l0,0l1.4,5.2c-0.5,0.1-1.1,0.5-1.5,1.1
					c-0.6,1-0.6,2.1,0.1,2.6s1.8,0,2.4-0.9c0.6-1,0.6-2,0.1-2.5L31,53.6l6.7-2.7L39,56c-0.5,0.1-1.1,0.5-1.5,1.1
					c-0.6,1-0.6,2.1,0.1,2.6c0.7,0.5,1.8,0,2.4-0.9c0.6-0.9,0.6-1.9,0.1-2.4L37.9,48.3z"/>
				<path fill="#9E9E9E" d="M46.1,74.4L45,74.8l0.7,2.7l0,0l1.6,6.2c-0.7,0.1-1.4,0.6-1.8,1.3c-0.8,1.2-0.7,2.6,0.1,3.1
					s2.1,0,2.9-1.1c0.7-1.1,0.7-2.3,0.1-2.9L46.7,77L46.1,74.4z"/>
				<path fill="#9E9E9E" d="M71.3,36.4l-1.1,0.4l0.7,2.7l0,0l1.6,6.2c-0.7,0.1-1.4,0.6-1.8,1.3c-0.8,1.2-0.7,2.6,0.1,3.1
					c0.8,0.5,2.1,0,2.9-1.1c0.7-1.1,0.7-2.3,0.1-2.9l-1.8-7L71.3,36.4z"/>
				<ellipse transform="matrix(0.9382 -0.346 0.346 0.9382 -26.5423 17.336)" fill="#9E9E9E" cx="35.3" cy="83" rx="2.8" ry="2.3"/>
				
					<ellipse transform="matrix(0.9382 -0.346 0.346 0.9382 -20.7322 30.2649)" fill="#9E9E9E" cx="74.4" cy="73.2" rx="2.8" ry="2.3"/>
				<path fill="#9E9E9E" d="M52.5,57.1l-0.3-1c1.4-0.2,2.8,0,4,0.5c-0.6-2-3.2-3-5.7-2.4l0.6,2.1l0,0l0.3,1.3l0,0l1.7,6.3
					c-0.7,0.1-1.4,0.6-1.9,1.3c-0.8,1.2-0.7,2.6,0.1,3.1s2.1,0,2.9-1.1c0.7-1.1,0.7-2.3,0.1-2.9L52.5,57.1z"/>
				<path fill="#9E9E9E" d="M86.8,57.3l-0.3-1c1.4-0.2,2.8,0,4,0.5c-0.6-2-3.2-3-5.7-2.4l0.6,2.1l0,0l0.3,1.3l0,0l1.7,6.3
					c-0.7,0.1-1.4,0.6-1.9,1.3c-0.8,1.2-0.7,2.6,0.1,3.1c0.8,0.5,2.1,0,2.9-1.1c0.7-1.1,0.7-2.3,0.1-2.9L86.8,57.3z"/>
			</g>
		</g>
		<g>
			
				<linearGradient id="SVGID_11_" gradientUnits="userSpaceOnUse" x1="102.6891" y1="57.4443" x2="91.4045" y2="62.0035" gradientTransform="matrix(1 0 0 -1 0 128)">
				<stop  offset="0" style="stop-color:#616161;stop-opacity:0.2"/>
				<stop  offset="1" style="stop-color:#616161"/>
			</linearGradient>
			<path fill="url(#SVGID_11_)" d="M111.8,47.4c-1.1,3.4-2.6,7.5-4.6,11l0,0c-0.2,0.3-0.4,0.6-0.5,0.8c-0.3,0.4-0.6,0.7-0.8,0.9
				c-0.3,0.3-0.6,0.4-0.9,0.7h-0.1l0,0c-0.1,0-0.3,0.1-0.4,0.1l0.3-0.7l0.8-1.8l0,0l0.7-1.6l0,0l0.5-1.2l0,0l1.2-2.8v-0.1l2.8-8
				l-0.9-0.3c-1,3.1-2.1,6.4-3.4,9.8c0,0.1,0,0.1-0.1,0.2c-0.2,0.4-0.3,0.9-0.5,1.3c-0.2,0.6-0.4,1.1-0.6,1.7c0,0,0,0,0,0.1l0,0
				c-0.2,0.6-0.5,1.3-0.7,1.9c-0.3,0.8-0.6,1.6-0.9,2.4c0,0.1-0.1,0.2-0.1,0.4c-0.1,0.2-0.2,0.4-0.2,0.6c-0.3,0.7-0.5,1.3-0.8,2l0,0
				c-0.2,0.5-0.4,1-0.6,1.5s-0.4,1-0.6,1.4l0,0c-0.6,1.5-1.2,2.9-1.9,4.4c-0.1,0.3-0.2,0.6-0.4,0.8c-1.3,2.9-2.5,5.6-3.7,8
				c-0.1,0.2-0.2,0.5-0.4,0.7c-1.5,3-2.9,5.7-4.2,8c-0.1,0.2-0.2,0.4-0.3,0.5c-0.1,0.2-0.3,0.4-0.4,0.7c0,0,0,0,0,0.1S90,91,90,91.1
				c-1.1,1.8-2.1,3.3-2.9,4.3l0,0c-1.1,1.4-2,2-2.6,1.8s-0.8-1.2-0.7-2.9l0,0c0-0.9,0.2-2,0.4-3.2c0-0.1,0.1-0.3,0.1-0.4
				c0-0.2,0.1-0.5,0.1-0.7c0-0.1,0.1-0.3,0.1-0.5c0.1-0.3,0.1-0.6,0.2-1c0.5-2.1,1.1-4.5,1.9-7.2c0.1-0.3,0.1-0.5,0.2-0.8
				c0.7-2.4,1.5-5,2.4-7.7c0.1-0.2,0.2-0.5,0.3-0.7c0.8-2.4,1.7-4.9,2.7-7.5c0-0.1,0.1-0.3,0.1-0.4l0.1-0.4c0.3-0.8,0.6-1.6,0.9-2.4
				c0.4-0.9,0.7-1.8,1.1-2.8s0.8-1.9,1.1-2.9c0.1-0.3,0.2-0.6,0.3-0.8l0,0c0.2-0.4,0.3-0.8,0.5-1.2c0.4-1,0.8-1.9,1.2-2.9
				c0.8-1.8,1.5-3.5,2.3-5.1c0.1-0.3,0.3-0.7,0.4-1c0.3-0.6,0.6-1.2,0.8-1.8l0,0c0.3-0.6,0.5-1.1,0.8-1.7c0.2-0.5,0.5-1,0.7-1.5
				c0-0.1,0.1-0.2,0.1-0.3l0,0l0,0c0.1-0.3,0.3-0.5,0.4-0.8c0-0.1,0.1-0.2,0.1-0.3c0.1-0.2,0.3-0.4,0.6-0.4c0.2,0,0.4,0,0.7,0
				c2.3,0,4.5,1,6,2.5l0.2,1.1c-0.1,0.2-0.1,0.4-0.2,0.7l0,0c-0.1,0.4-0.2,0.7-0.3,1.1l0.9,0.4l0,0l0,0L111.8,47.4z"/>
			<g>
				<g>
					
						<linearGradient id="SVGID_12_" gradientUnits="userSpaceOnUse" x1="108.9718" y1="86.7428" x2="101.347" y2="89.8234" gradientTransform="matrix(1 0 0 -1 0 128)">
						<stop  offset="0" style="stop-color:#CFD8DC"/>
						<stop  offset="0.1942" style="stop-color:#D2DADE"/>
						<stop  offset="0.3105" style="stop-color:#DAE1E4"/>
						<stop  offset="0.4061" style="stop-color:#E8ECEE"/>
						<stop  offset="0.4903" style="stop-color:#FCFDFD"/>
						<stop  offset="0.5" style="stop-color:#FFFFFF"/>
						<stop  offset="0.5749" style="stop-color:#F1F4F5"/>
						<stop  offset="0.7114" style="stop-color:#DEE4E7"/>
						<stop  offset="0.8516" style="stop-color:#D3DBDF"/>
						<stop  offset="1" style="stop-color:#CFD8DC"/>
					</linearGradient>
					<path fill="url(#SVGID_12_)" d="M108.9,41.2c-0.1,0.3-0.2,0.6-0.3,1c-1.7-1.8-4-2.9-6.7-2.9c-0.4,0-0.7,0-1.1,0.1
						c0.2-0.4,0.4-0.7,0.5-1.1c0.1-0.2,0.3-0.4,0.6-0.4c0.2,0,0.4,0,0.7,0c2.4,0,4.6,1,6.1,2.7C108.9,40.7,109,41,108.9,41.2z"/>
					
						<linearGradient id="SVGID_13_" gradientUnits="userSpaceOnUse" x1="84.6202" y1="31.5679" x2="81.4336" y2="32.8554" gradientTransform="matrix(1 0 0 -1 0 128)">
						<stop  offset="0" style="stop-color:#CFD8DC"/>
						<stop  offset="0.1432" style="stop-color:#D8DFE2"/>
						<stop  offset="0.3723" style="stop-color:#EFF2F3"/>
						<stop  offset="0.5" style="stop-color:#FFFFFF"/>
						<stop  offset="0.8149" style="stop-color:#DDE4E7"/>
						<stop  offset="1" style="stop-color:#CFD8DC"/>
					</linearGradient>
					<path fill="url(#SVGID_13_)" d="M85.1,95.2c-1.1,1.4-2,2-2.6,1.8s-0.8-1.2-0.7-2.9c0.7,0.7,1.6,1.2,2.7,1.2
						C84.7,95.2,84.9,95.2,85.1,95.2z"/>
					
						<linearGradient id="SVGID_14_" gradientUnits="userSpaceOnUse" x1="98.7574" y1="58.983" x2="89.7209" y2="62.634" gradientTransform="matrix(1 0 0 -1 0 128)">
						<stop  offset="0" style="stop-color:#212121"/>
						<stop  offset="0.1189" style="stop-color:#272727"/>
						<stop  offset="0.2836" style="stop-color:#393838"/>
						<stop  offset="0.4742" style="stop-color:#565555"/>
						<stop  offset="0.5" style="stop-color:#5B5959"/>
						<stop  offset="0.5203" style="stop-color:#575656"/>
						<stop  offset="0.7143" style="stop-color:#3A3939"/>
						<stop  offset="0.881" style="stop-color:#272727"/>
						<stop  offset="1" style="stop-color:#212121"/>
					</linearGradient>
					<path fill="url(#SVGID_14_)" d="M108.6,42.1c-0.1,0.4-0.2,0.7-0.3,1.1c-0.1,0.4-0.2,0.7-0.3,1.1c-1,3.1-2.1,6.4-3.4,9.8
						c-0.4,1-0.8,2.1-1.2,3.1c-0.6,1.6-1.2,3.1-1.8,4.7c-0.3,0.9-0.7,1.7-1,2.6c-0.4,1-0.8,1.9-1.2,2.9c-4,9.7-8,17.9-11.2,23.2
						c-1.1,1.9-2.2,3.4-3,4.5c-0.2,0-0.4,0-0.6,0c-1.1,0-2-0.4-2.7-1.2c0.1-1.5,0.4-3.4,0.9-5.7c1.3-6,4-14.6,7.6-24.3
						c0.3-0.9,0.7-1.8,1.1-2.8c0.4-0.9,0.7-1.8,1.1-2.8c0.7-1.7,1.3-3.3,2-4.9c0.4-1,0.8-1.9,1.2-2.9c1.8-4.1,3.5-8,5.2-11.4l0,0
						l0,0c0.3,0,0.7-0.1,1.1-0.1c0.2,0,0.3,0,0.5,0c0.7,0,1.3,0.1,1.9,0.3c1.5,0.4,2.9,1.2,4,2.2C108.4,41.9,108.5,42,108.6,42.1z"
						/>
					
						<linearGradient id="SVGID_15_" gradientUnits="userSpaceOnUse" x1="100.1641" y1="62.4601" x2="91.1784" y2="66.0905" gradientTransform="matrix(1 0 0 -1 0 128)">
						<stop  offset="0" style="stop-color:#CFD8DC"/>
						<stop  offset="0.1942" style="stop-color:#D2DADE"/>
						<stop  offset="0.3105" style="stop-color:#DAE1E4"/>
						<stop  offset="0.4061" style="stop-color:#E8ECEE"/>
						<stop  offset="0.4903" style="stop-color:#FCFDFD"/>
						<stop  offset="0.5" style="stop-color:#FFFFFF"/>
						<stop  offset="0.5749" style="stop-color:#F1F4F5"/>
						<stop  offset="0.7114" style="stop-color:#DEE4E7"/>
						<stop  offset="0.8516" style="stop-color:#D3DBDF"/>
						<stop  offset="1" style="stop-color:#CFD8DC"/>
					</linearGradient>
					<path fill="url(#SVGID_15_)" d="M100.5,64.6c-0.4,1-0.8,1.9-1.2,2.9c-1.7-2.2-4.3-3.6-7.3-3.6c-0.5,0-1,0-1.4,0.1
						c-0.1,0-0.2,0-0.2,0c0.3-0.9,0.7-1.8,1.1-2.8c0.1,0,0.3-0.1,0.4-0.1c0.5-0.1,0.9-0.1,1.4-0.1C96.2,61.1,98.9,62.5,100.5,64.6z"
						/>
				</g>
				<g>
					
						<linearGradient id="SVGID_16_" gradientUnits="userSpaceOnUse" x1="107.9187" y1="84" x2="109.2161" y2="84" gradientTransform="matrix(1 0 0 -1 0 128)">
						<stop  offset="0" style="stop-color:#FFFFFF"/>
						<stop  offset="0.5463" style="stop-color:#E2E8EA"/>
						<stop  offset="1" style="stop-color:#CFD8DC"/>
					</linearGradient>
					<path fill="url(#SVGID_16_)" d="M109.2,43.6l-0.4,1.1l-0.9-0.3c0.1-0.4,0.2-0.7,0.3-1.1L109.2,43.6z"/>
					<path fill="#FFFFFF" d="M110.4,44.1c-0.1,0.2-0.1,0.5-0.2,0.7c-1,3.5-2.6,8.5-5,12.8c0,0.1-0.1,0.1-0.1,0.2
						c-1.2,2-0.8,1.3-2.1,3c0,0,0,0-0.1,0.1h0.1c0.7-0.6,1.3-0.8,2.2-2.5c2.7-4.7,4.6-10.5,5.6-14.1L110.4,44.1z"/>
					
						<linearGradient id="SVGID_17_" gradientUnits="userSpaceOnUse" x1="107.897" y1="74.9932" x2="105.7774" y2="75.8495" gradientTransform="matrix(1 0 0 -1 0 128)">
						<stop  offset="1.295337e-02" style="stop-color:#CFD8DC"/>
						<stop  offset="0.5" style="stop-color:#FFFFFF"/>
						<stop  offset="0.7731" style="stop-color:#E2E8EA"/>
						<stop  offset="1" style="stop-color:#CFD8DC"/>
					</linearGradient>
					<path fill="url(#SVGID_17_)" d="M103,60.7c1.3-1.7,0.9-0.9,2.1-3c0-0.1,0.1-0.1,0.1-0.2c2.5-4.3,4-9.3,5-12.8
						c0.1-0.2,0.1-0.5,0.2-0.7l-1.2-0.5v0.1l-0.4,1.1l-2.8,8v0.1l-3.4,8.1C102.7,60.9,102.8,60.9,103,60.7
						C102.9,60.8,103,60.8,103,60.7z"/>
				</g>
			</g>
		</g>
	</g>
</g>
<g id="图层_2_1_" display="none">
</g>
</svg>
