<?xml version="1.0" encoding="utf-8"?>
<!-- Generator: Adobe Illustrator 24.0.0, SVG Export Plug-In . SVG Version: 6.00 Build 0)  -->
<svg version="1.1" id="二稿" xmlns="http://www.w3.org/2000/svg" xmlns:xlink="http://www.w3.org/1999/xlink" x="0px" y="0px"
	 viewBox="0 0 32 32" enable-background="new 0 0 32 32" xml:space="preserve">
<g id="蓝色">
	<radialGradient id="SVGID_1_" cx="16" cy="39" r="16" gradientTransform="matrix(1 0 0 -1 0 55)" gradientUnits="userSpaceOnUse">
		<stop  offset="0.6" style="stop-color:#173C8F"/>
		<stop  offset="0.73" style="stop-color:#3584ED"/>
		<stop  offset="0.92" style="stop-color:#2F65DB"/>
		<stop  offset="1" style="stop-color:#004FA5"/>
	</radialGradient>
	<circle fill="url(#SVGID_1_)" cx="16" cy="16" r="16"/>
	<g opacity="0.6">
		
			<radialGradient id="SVGID_2_" cx="49.2875" cy="359.5632" r="3.75" gradientTransform="matrix(-3.000000e-02 1 -5.12 -0.15 1858.4999 9.09)" gradientUnits="userSpaceOnUse">
			<stop  offset="0.58" style="stop-color:#52BCFF"/>
			<stop  offset="1" style="stop-color:#52BCFF;stop-opacity:0"/>
		</radialGradient>
		<circle fill="url(#SVGID_2_)" cx="16" cy="16" r="14"/>
	</g>
	<g opacity="0.4">
		
			<radialGradient id="SVGID_3_" cx="-752.1765" cy="529.2164" r="7.84" gradientTransform="matrix(-1.000000e-02 -1 4.92 -3.000000e-02 -2595.2903 -707.66)" gradientUnits="userSpaceOnUse">
			<stop  offset="0.58" style="stop-color:#1B45A1"/>
			<stop  offset="1" style="stop-color:#1B45A1;stop-opacity:0"/>
		</radialGradient>
		<circle fill="url(#SVGID_3_)" cx="16" cy="16" r="14"/>
	</g>
	<g opacity="0.8">
		
			<linearGradient id="SVGID_4_" gradientUnits="userSpaceOnUse" x1="16" y1="53.5" x2="16" y2="24.5" gradientTransform="matrix(1 0 0 -1 0 55)">
			<stop  offset="0" style="stop-color:#0AADFF"/>
			<stop  offset="1" style="stop-color:#52BCFF;stop-opacity:0.5"/>
		</linearGradient>
		<path fill="url(#SVGID_4_)" d="M16,2c7.7,0,14,6.3,14,14s-6.3,14-14,14S2,23.7,2,16S8.3,2,16,2 M16,1.5C8,1.5,1.5,8,1.5,16
			S8,30.5,16,30.5S30.5,24,30.5,16S24,1.5,16,1.5z"/>
	</g>
	
		<linearGradient id="SVGID_5_" gradientUnits="userSpaceOnUse" x1="16" y1="53.5" x2="16" y2="24.5" gradientTransform="matrix(1 0 0 -1 0 55)">
		<stop  offset="0" style="stop-color:#94F4FF"/>
		<stop  offset="0.3" style="stop-color:#52BCFF;stop-opacity:0"/>
	</linearGradient>
	<path fill="url(#SVGID_5_)" d="M16,2c7.7,0,14,6.3,14,14s-6.3,14-14,14S2,23.7,2,16S8.3,2,16,2 M16,1.5C8,1.5,1.5,8,1.5,16
		S8,30.5,16,30.5S30.5,24,30.5,16S24,1.5,16,1.5z"/>
	<g opacity="0.6">
		
			<linearGradient id="SVGID_6_" gradientUnits="userSpaceOnUse" x1="16" y1="24.6" x2="16" y2="53.4" gradientTransform="matrix(1 0 0 -1 0 55)">
			<stop  offset="0" style="stop-color:#94F4FF"/>
			<stop  offset="0.3" style="stop-color:#52BCFF;stop-opacity:0"/>
		</linearGradient>
		<path fill="url(#SVGID_6_)" d="M16,2.1c7.7,0,13.9,6.3,13.9,13.9S23.6,29.9,16,29.9S2.1,23.7,2.1,16S8.3,2.1,16,2.1 M16,1.6
			C8.1,1.6,1.6,8.1,1.6,16S8.1,30.4,16,30.4S30.4,23.9,30.4,16S23.9,1.6,16,1.6z"/>
	</g>
	<circle fill="#1F4CA7" cx="16" cy="16" r="10.7"/>
	
		<linearGradient id="SVGID_7_" gradientUnits="userSpaceOnUse" x1="16" y1="48.6" x2="16" y2="29.4" gradientTransform="matrix(1 0 0 -1 0 55)">
		<stop  offset="0" style="stop-color:#FFFFFF"/>
		<stop  offset="1" style="stop-color:#D1D2D3"/>
	</linearGradient>
	<circle fill="url(#SVGID_7_)" cx="16" cy="16" r="9.6"/>
	
		<linearGradient id="SVGID_8_" gradientUnits="userSpaceOnUse" x1="8.6932" y1="36.8417" x2="17.655" y2="40.1105" gradientTransform="matrix(1 0 0 -1 0 55)">
		<stop  offset="0.25" style="stop-color:#1A4399"/>
		<stop  offset="0.61" style="stop-color:#0680E8"/>
		<stop  offset="0.76" style="stop-color:#0584ED"/>
		<stop  offset="1" style="stop-color:#3584ED"/>
	</linearGradient>
	<path fill="url(#SVGID_8_)" d="M14.9,17.7c0,0.4-0.3,1-2.2,1c-1.6,0-2.1-0.2-2.1-0.9c0-4.2-0.1-3.9-0.1-3.9h-2c0,0,0,2.8,0,4.3
		c0.2,0.9,0.7,1.6,1.7,1.9c0.7,0.3,1.5,0.5,2.3,0.5c1.2,0,2.1-0.2,3.2-0.7c0.7-0.4,1.2-1.2,1.3-2V14h-2.1"/>
	
		<linearGradient id="SVGID_9_" gradientUnits="userSpaceOnUse" x1="10.3022" y1="34.52" x2="10.3022" y2="41.1501" gradientTransform="matrix(1 0 0 -1 0 55)">
		<stop  offset="0.17" style="stop-color:#0584ED"/>
		<stop  offset="1" style="stop-color:#173C8F"/>
	</linearGradient>
	<path fill="url(#SVGID_9_)" d="M8.5,13.9h2.1V18c0,1.6,1.6,2.5,1.5,2.5c-1.2,0-3.6-0.7-3.6-2.5V13.9L8.5,13.9"/>
	
		<linearGradient id="SVGID_10_" gradientUnits="userSpaceOnUse" x1="22.8661" y1="33.8945" x2="18.2752" y2="37.7451" gradientTransform="matrix(1 0 0 -1 0 55)">
		<stop  offset="0" style="stop-color:#0584ED"/>
		<stop  offset="0.58" style="stop-color:#0584ED"/>
		<stop  offset="0.97" style="stop-color:#173C8F"/>
	</linearGradient>
	<path fill="url(#SVGID_10_)" d="M18.3,17.5c0.2,0.2-0.1,0.9,0.5,1.4l1.8,1.6h2.7l-4.1-3.6l-0.4-0.5"/>
	
		<linearGradient id="SVGID_11_" gradientUnits="userSpaceOnUse" x1="17.5652" y1="37.2883" x2="23.6952" y2="40.8283" gradientTransform="matrix(1 0 0 -1 0 55)">
		<stop  offset="0" style="stop-color:#0584ED"/>
		<stop  offset="1" style="stop-color:#173C8F"/>
	</linearGradient>
	<path fill="url(#SVGID_11_)" d="M23.5,13.9h-2.9l-3,2.6c-0.3,0.3-0.4,0.9-0.1,1.2c0,0,0,0,0.1,0.1c0.4,0.4,0.9,0.7,1.3,1.2
		c-0.1-0.3-0.1-0.7-0.1-1c0.1-0.3,0.2-0.6,0.5-0.9C19.9,16.3,23.5,13.8,23.5,13.9"/>
</g>
</svg>
