<?xml version="1.0" encoding="utf-8"?>
<!-- Generator: Adobe Illustrator 24.0.0, SVG Export Plug-In . SVG Version: 6.00 Build 0)  -->
<svg version="1.1"
	 id="svg7384" xmlns:cc="http://creativecommons.org/ns#" xmlns:dc="http://purl.org/dc/elements/1.1/" xmlns:osb="http://www.openswatchbook.org/uri/2009/osb" xmlns:rdf="http://www.w3.org/1999/02/22-rdf-syntax-ns#" xmlns:svg="http://www.w3.org/2000/svg" opacity="0.8"
	 xmlns="http://www.w3.org/2000/svg" xmlns:xlink="http://www.w3.org/1999/xlink" x="0px" y="0px" viewBox="0 0 16 16"
	 style="enable-background:new 0 0 16 16;" xml:space="preserve">
<style type="text/css">
	.st0{fill:#1F2022;}
</style>
<path id="rect8948" class="st0" d="M5.5,1C5.2,1,5,1.2,5,1.5V5H1.5C1.2,5,1,5.2,1,5.5S1.2,6,1.5,6H5v4H1.5C1.2,10,1,10.2,1,10.5
	S1.2,11,1.5,11H5v3.5C5,14.8,5.2,15,5.5,15S6,14.8,6,14.5V11h4v3.5c0,0.3,0.2,0.5,0.5,0.5s0.5-0.2,0.5-0.5V11h3.5
	c0.3,0,0.5-0.2,0.5-0.5S14.8,10,14.5,10H11V6h3.5C14.8,6,15,5.8,15,5.5S14.8,5,14.5,5H11V1.5C11,1.2,10.8,1,10.5,1S10,1.2,10,1.5V5
	H6V1.5C6,1.2,5.8,1,5.5,1z M6,6h4v4H6V6z"/>
</svg>
