<?xml version="1.0" encoding="utf-8"?>
<!-- Generator: Adobe Illustrator 24.0.0, SVG Export Plug-In . SVG Version: 6.00 Build 0)  -->
<svg version="1.1" id="图层_1" xmlns="http://www.w3.org/2000/svg" xmlns:xlink="http://www.w3.org/1999/xlink" x="0px" y="0px"
	 viewBox="0 0 128 128" enable-background="new 0 0 128 128" xml:space="preserve">
<title>supertux128</title>
<rect x="22.3" y="22.3" transform="matrix(0.7071 -0.7071 0.7071 0.7071 -26.5094 63.9999)" fill="#69BBFF" width="83.4" height="83.4"/>
<path fill="#B8A024" d="M90.4,85.2c0.1-0.2,0.8-3.6,0.9-3.8c0.4-1.9,2.6-9.1,6.2-9.1c5.2,0-0.9,22.6-10,26.2
	c-5.4,2.1-10.3,2.5-13.6,2c-0.6-0.1-1.1-0.7-1-1.4c0.1-0.4,0.3-0.7,0.7-0.9c3.6-1.8,9.9-4.8,13-7.9C88.9,87.9,89.2,87.6,90.4,85.2z"
	/>
<path fill="#E5C438" d="M89.5,84.3c0.1-0.2,0.8-3.6,0.9-3.8c0.4-1.9,2.7-9.1,6.2-9.1c5.2,0-0.9,22.6-10,26.2
	c-5.4,2.1-10.3,2.5-13.6,1.9c-0.6-0.1-1.1-0.7-1-1.4c0.1-0.4,0.3-0.7,0.7-0.9c3.6-1.8,9.9-4.8,13-7.9C88,87,88.3,86.7,89.5,84.3z"/>
<path d="M57.1,82c-0.8-12.3,4.5-14.1,9-16.5s5.6-6.8,9.3-12.6c2.8-4.5,7.4-1.8,11.6,0.4c-1.2-2.4-2.3-4.2-2.6-4.8
	c-1-1.9-1.9-3.8-2.5-5.8c-3-9.8-7.3-16.2-14.5-19.1c-4.3,1.2-8.1,3.8-10.9,7.3c0.3,4.2,0.8,13.6,0.2,15.9
	C55.7,49.7,43.7,61.1,44,69.3c0.3,7.8,6,20.8,7.6,23.6c4.8,4.2,10.6,7,16.9,8.2c2.6-0.2,5.3-0.7,7.8-1.5C66.2,99.8,57.8,92,57.1,82z
	"/>
<linearGradient id="SVGID_1_" gradientUnits="userSpaceOnUse" x1="56.3746" y1="31.073" x2="18.3504" y2="31.073" gradientTransform="matrix(1 0 0 -1 0 128)">
	<stop  offset="1.000000e-02" style="stop-color:#1A1A1A"/>
	<stop  offset="1" style="stop-color:#000000"/>
</linearGradient>
<path fill="url(#SVGID_1_)" d="M35.7,92c0,0-15.9,0.3-17.3,6.2c-1.1,4.4,28.2,4.1,36.5,2.9S35.7,92,35.7,92z"/>
<linearGradient id="SVGID_2_" gradientUnits="userSpaceOnUse" x1="59.9627" y1="34.3603" x2="93.6012" y2="67.9988" gradientTransform="matrix(1 0 0 -1 0 128)">
	<stop  offset="1.000000e-02" style="stop-color:#FFFFFF"/>
	<stop  offset="1" style="stop-color:#CCCCCC"/>
</linearGradient>
<path fill="url(#SVGID_2_)" d="M93,70.5c-0.7-5.7-3.7-12.6-6.1-17.2c-4.4-2.2-9.2-4.9-12.1-0.4c-3.8,5.9-5.5,8.5-10.3,10.9
	c-4.7,2.4-11.2,6.2-10.3,18.5c0.7,9.9,10.7,17.4,21.5,17.4C91.6,96.4,94.5,82,93,70.5z"/>
<ellipse transform="matrix(0.5291 -0.8486 0.8486 0.5291 0.5186 73.8083)" fill="#FFFFFF" cx="66.8" cy="36.4" rx="8.4" ry="7.5"/>
<ellipse transform="matrix(0.5256 -0.8507 0.8507 0.5256 0.7957 78.1521)" cx="70.5" cy="38.4" rx="4.5" ry="3.2"/>
<path fill="#B8A024" d="M73.8,41.7c-0.2-1.2,0-2.5,0.4-3.7c-3.1,0.5-3.2,4.5-3,6c0.3,2.5,4.5,5.2,9.2,4.4c5.8-0.9,20.8-5,26.1-5.7
	c0.9-0.1,2.3-0.8,0.4-2c-6.5,1.2-18.7,4.5-23.9,5.3C78.3,46.8,74.2,44.2,73.8,41.7z"/>
<path fill="#E5C438" d="M79.8,35.2l-1.1-0.1c-0.3,0-0.3,0.2-0.4,0.6C78,36.5,77.7,38.1,75,38c-0.3,0-0.5,0-0.8,0
	c-0.4,1.2-0.5,2.4-0.4,3.7c0.4,2.5,4.5,5.2,9.2,4.4c5.2-0.8,17.4-4.1,23.9-5.3C104.7,39.5,97.7,37.5,79.8,35.2z"/>
<path d="M37.2,46.1c0.7-2.3,0.1-11.7-0.2-15.9c-2.7,3.6-4.4,7.9-5,12.4c-0.2,2.2-0.9,4.3-2,6.2c-4.2,7.2-7.5,12.4-7.5,21.2
	c-0.1,8.5,3.4,16.7,9.7,22.4c-1.7-2.8-7.4-15.8-7.6-23.6C24.3,60.5,36.3,49.1,37.2,46.1z"/>
<linearGradient id="SVGID_3_" gradientUnits="userSpaceOnUse" x1="24.5849" y1="66.4158" x2="68.5" y2="66.4158" gradientTransform="matrix(1 0 0 -1 0 128)">
	<stop  offset="1.000000e-02" style="stop-color:#333333"/>
	<stop  offset="0.6" style="stop-color:#000000"/>
</linearGradient>
<path fill="url(#SVGID_3_)" d="M44,69.3c-0.3-8.2,11.8-19.7,12.6-22.6c0.6-1.9,0.3-8.8,0-13.5c-0.1-1.7,0.6-3.4,1.8-4.6
	c2.5-2.4,5.6-4.1,8.9-5.1c-3.3-1.3-6.9-1.9-10.4-1.8c-8.7,0-15.5,2.9-19.9,8.5c0.3,4.2,0.8,13.6,0.2,15.9
	c-0.9,2.9-12.9,14.4-12.6,22.6c0.3,7.6,5.6,20.1,7.5,23.3c0.1,0.2,0.2,0.3,0.4,0.4c5.9,5.3,14.3,8.6,24.5,8.8
	c3.8,0.1,7.7,0,11.5-0.3c-6.2-1.1-11.9-3.9-16.7-8c-0.1-0.1-0.3-0.3-0.4-0.4C49.6,89.4,44.2,76.9,44,69.3z"/>
<linearGradient id="SVGID_4_" gradientUnits="userSpaceOnUse" x1="37.3988" y1="57.225" x2="80.408" y2="57.225" gradientTransform="matrix(1 0 0 -1 0 128)">
	<stop  offset="1.000000e-02" style="stop-color:#1A1A1A"/>
	<stop  offset="1" style="stop-color:#000000"/>
</linearGradient>
<path fill="url(#SVGID_4_)" d="M50.6,56.4c0,0-16.7,4.9-12.5,14.8s17.8,7.2,17.8,7.2s22,10.3,24.3,5.7S61.6,67.8,60.5,64.4
	S54,55.3,50.6,56.4z"/>
<path fill="#B8A024" d="M20.4,77.6c-3.8,5.9,14.9,25.6,23.6,26.8c6.5,0.9,16,0,15.6-2.3c-0.6-2.9-9.8-1.7-12.9-2.7
	C34.5,95.5,23.5,72.8,20.4,77.6z"/>
<path fill="#E5C438" d="M21.6,76.7c-3.8,5.9,15,25.6,23.5,26.8c6.5,0.9,16,0,15.6-2.3c-0.6-2.9-9.8-1.7-12.9-2.7
	C35.7,94.6,24.7,71.9,21.6,76.7z"/>
</svg>
