<?xml version="1.0" encoding="utf-8"?>
<!-- Generator: Adobe Illustrator 24.0.0, SVG Export Plug-In . SVG Version: 6.00 Build 0)  -->
<svg version="1.1" id="thunderbird" xmlns="http://www.w3.org/2000/svg" xmlns:xlink="http://www.w3.org/1999/xlink" x="0px"
	 y="0px" viewBox="0 0 128 128" enable-background="new 0 0 128 128" xml:space="preserve">
<title>128</title>
<g id="_128">
	<polygon fill="#EDEDED" points="20,34.5 13.7,53.5 13.7,66.1 15.8,83 20,91.4 41,95.6 57.7,99.8 84.9,110.4 101.7,91.4 99.6,49.3 
		84.9,38.7 	"/>
	<path fill="#3479EE" d="M117.8,52.3c-5.2-23.5-17.6-32.3-31.5-37.9c-14.5-5.9-35.5-2-35.5-2c0.5-1.3,3.3-3.9,2.5-3.6
		c-4.6,1.4-7.5,6-7.4,5c0.5-6.7,8.3-9.3,5.5-8.7c-6.8,1.3-13.7,11.7-13.7,11.7c-9.2,4.3-17,11.1-22.7,19.5
		c-5.2,8.1-7.4,17.8-6.2,27.4c0.7,6,2.1,11.9,4.1,17.6c2.5,7.1,6.4,13.7,11.6,19.1c5.4,5.9,12.1,9.2,11.3,8.1
		c-2.6-3.7-3.8-14.5-3-13.6c5,5.6,13.2,7.9,12.5,7.3c-2.3-1.6-3.9-4-4.4-6.7L81.1,109c-8.1,10.2-16.6,13.1-15.6,13.1
		c9.8,0.4,22.2-4.8,20.9-3.8c-4.2,3.5-7.8,4.9-5.8,4.7c17.8-2.5,27-17.6,30.5-23.6C119.1,85.1,121.5,68.3,117.8,52.3z M94.1,73.1
		c-0.7,12.4-4.8,24.4-12,34.5L40.8,94c-1.8-0.5-15.8-4-20.6-6.8c-3.3-2-6-25-5-24.1c2.4,2.1,8.1,6.8,6.4,4.5
		c-9.3-13.6,0.8-29.4,1.4-29.2s7.4,1.1,8.3,1.5c1,0.4,0.9,4.3,0.3,5.9c-2.2,6.4-0.5,10.9,0.3,10.5c1.4-3,4-5.2,7.1-6.2
		c6.1-2.5,9.7-7,11.1-6.7c2.8,0.5,32.9,5.4,33.3,6.2c2.8,5.7,3.9,12.2,3.3,18.5L47.1,80.1L27.6,59.9l18.8,22.6l39.9-13.4
		c-0.5,3.5-1.7,6.8-3.4,9.8C90.1,78.5,94.2,71.3,94.1,73.1L94.1,73.1z"/>
</g>
</svg>
