<?xml version="1.0" encoding="utf-8"?>
<!-- Generator: Adobe Illustrator 24.0.0, SVG Export Plug-In . SVG Version: 6.00 Build 0)  -->
<svg version="1.1" id="图层_1" xmlns="http://www.w3.org/2000/svg" xmlns:xlink="http://www.w3.org/1999/xlink" x="0px" y="0px"
	 viewBox="0 0 128 128" enable-background="new 0 0 128 128" xml:space="preserve">
<title>thunderbird128</title>
<path fill="#1C2860" d="M34.9,84.5c0,0,2.9,16.3,8,22.5c0,0-8.7-4.5-11.5-9.9c0,0-2.2,7.4,5.8,21.2c0,0-9.9-3.8-13.1-9.6
	c-2.8-5-7.7-17.3-7.7-19.6s6.7-1.3,6.7-1.3L34.9,84.5z"/>
<polygon fill="#999999" points="110.6,59.9 49.7,85.9 27,39.7 26,39.4 13.5,91.2 100.4,112.2 112.9,60.4 "/>
<polygon fill="#999999" points="107.2,59 30.3,40.5 50.5,82.5 "/>
<polygon fill="#E6E6E6" points="110.6,58.9 49.7,84.9 27,38.7 26,38.5 13.5,90.3 100.4,111.3 112.9,59.5 "/>
<polygon fill="#E6E6E6" points="107.2,58.1 30.3,39.5 50.5,81.5 "/>
<polygon fill="#B3B3B3" points="108.9,58.5 107.2,58.1 50.5,81.5 30.3,39.5 28.7,39.1 27,38.7 49.7,84.9 110.6,58.9 "/>
<path fill="#29ABE2" d="M101.4,83.3L101.4,83.3z"/>
<path fill="#394699" d="M109.3,98.1c0,0,3.6-6,2.3-8.6c2.2-6.2,3.2-12.8,3-19.4c0,0-1.4-18.9-16.9,25.1l-0.1,0.1
	c0,0.2-0.1,0.4-0.1,0.6C92.8,107.6,70,120,70,120c6.8-0.7,13.5-2.5,19.7-5.4c-2.5,3.1-5.3,5.9-8.4,8.4c17.3-3.9,26.9-15.7,34.4-30.1
	C113.9,95,111.7,96.8,109.3,98.1z"/>
<linearGradient id="SVGID_1_" gradientUnits="userSpaceOnUse" x1="92.5" y1="45.61" x2="121" y2="45.61" gradientTransform="matrix(1 0 0 -1 0 128)">
	<stop  offset="0" style="stop-color:#1BA0D5"/>
	<stop  offset="0.2" style="stop-color:#1C96D1"/>
	<stop  offset="0.55" style="stop-color:#1E7AC7"/>
	<stop  offset="0.82" style="stop-color:#2061BD"/>
</linearGradient>
<path fill="url(#SVGID_1_)" d="M120.9,66c-0.7,2.9-2.1,5.5-4,7.8c-0.3-3.1-1.3-6.1-3-8.8c0,0,0.8,7.9-4.3,13.8c0,0,0.7-7.2-2.5-8.3
	c0,0-2.7,7.9-5.7,12.8c0.1-0.2,1-2-1.5-5.3c-0.3-0.3-1.8-1-2.2-1.3c0.1,1.3-0.6,2-0.1,4.7c1,5.1-5.1,17.3-5.1,17.3
	c2.4-1,4.3-1,6.4-3.5c1.2-1.2,2-2.8,2.5-4.4c0.9,3.1,0.3,6.5-1.8,9.1c8.6-3.7,11.5-9.8,11.5-9.8c1.2,3.3-1.8,8.2-1.8,8.2
	c4.3-1.1,5-3,6.4-5.2c3.5-7.6,5.3-15.8,5.2-24.1C121,67.9,121,66.9,120.9,66z"/>
<linearGradient id="SVGID_2_" gradientUnits="userSpaceOnUse" x1="63.1966" y1="119.9566" x2="66.7166" y2="116.4266" gradientTransform="matrix(1 0 0 -1 0 128)">
	<stop  offset="0" style="stop-color:#1BA0D5"/>
	<stop  offset="0.16" style="stop-color:#1C96D1"/>
	<stop  offset="0.44" style="stop-color:#1E7AC7"/>
	<stop  offset="0.64" style="stop-color:#2061BD"/>
</linearGradient>
<path fill="url(#SVGID_2_)" d="M65,13.3c0-2.8,0.5-5.6,1.2-8.3l-4.5,5.8l0.6,2.6H65z"/>
<linearGradient id="SVGID_3_" gradientUnits="userSpaceOnUse" x1="68.6275" y1="118.3375" x2="71.9975" y2="114.9675" gradientTransform="matrix(1 0 0 -1 0 128)">
	<stop  offset="0" style="stop-color:#1BA0D5"/>
	<stop  offset="0.16" style="stop-color:#1C96D1"/>
	<stop  offset="0.44" style="stop-color:#1E7AC7"/>
	<stop  offset="0.64" style="stop-color:#2061BD"/>
</linearGradient>
<path fill="url(#SVGID_3_)" d="M71,14c-0.3-2.5-0.1-5,0.7-7.4l-4.5,5.8l0.6,2.6L71,14z"/>
<path fill="#29ABE2" d="M71.9,40.2c0.8,0.5,1.7,0.9,2.4,1.4C73.6,41.1,72.8,40.6,71.9,40.2L71.9,40.2z"/>
<linearGradient id="SVGID_4_" gradientUnits="userSpaceOnUse" x1="115.5805" y1="52.9505" x2="91.2605" y2="77.2605" gradientTransform="matrix(1 0 0 -1 0 128)">
	<stop  offset="0" style="stop-color:#1BA0D5"/>
	<stop  offset="0.2" style="stop-color:#1C96D1"/>
	<stop  offset="0.55" style="stop-color:#1E7AC7"/>
	<stop  offset="0.82" style="stop-color:#2061BD"/>
</linearGradient>
<path fill="url(#SVGID_4_)" d="M120.9,66c-0.5-10.5-3.9-20.7-9.8-29.3c-0.8-1.1-1.6-2.2-2.4-3.3c0.5,1.1,1,2.1,1.4,3.3
	c1.8,4.3,2.2,9,1,13.5c-0.2,0.6-0.4,1.2-0.6,1.8c-0.3-0.8-0.8-1.5-1.2-2.2c-1.1-1.7-2.6-3.3-4.2-4.5c0.5,1.2,0.9,2.5,1.2,3.8
	c0.7,3.2,0.4,6.4-0.9,9.4c0,0-1.6-6.5-4.8-6.5c0,0,0,4.1-0.5,8.3c-0.2,1.5-0.4,3.1-0.8,4.6c0,0,0.1-3.8-4.8-6.4c0,0,0.1,0.7,0.2,1.8
	c0.2,2.7,0.4,7.7-1.1,10.5c0.9,5.7,0.9,11.5-0.1,17.2c3.8-2.3,5.9-6.5,5.4-10.9c0,0,0.1,0.1,0.1,0.1c0.3,0.4,0.6,0.7,0.9,1
	c2.6,3.3,1.6,5.1,1.5,5.3c3-4.9,5.7-12.8,5.7-12.8c3.2,1.1,2.5,8.3,2.5,8.3c5.1-5.9,4.3-13.8,4.3-13.8c1.7,2.6,2.7,5.6,3,8.8
	C118.8,71.5,120.2,68.8,120.9,66z"/>
<linearGradient id="SVGID_5_" gradientUnits="userSpaceOnUse" x1="55.61" y1="65.43" x2="7" y2="65.43" gradientTransform="matrix(1 0 0 -1 0 128)">
	<stop  offset="0" style="stop-color:#1BA0D5"/>
	<stop  offset="0.19" style="stop-color:#1C96D1"/>
	<stop  offset="0.51" style="stop-color:#1E7AC7"/>
	<stop  offset="0.76" style="stop-color:#2061BD"/>
</linearGradient>
<path fill="url(#SVGID_5_)" d="M7,68.8c0,17,7.5,33.1,20.6,43.9c-6.4-9-9.8-19.7-9.7-30.7c0-2.2,0.1-4.4,0.4-6.6
	c2.5,2.8,5.7,4.9,9.2,6.2c-4.9-14.6,0.5-29.2,2.1-33c1.9-2.3,4.1-4.4,6.5-6.2c0.7-3.3,2.6-8,9.4-11.8c1.9-6.8,5.4-13.1,10.2-18.3
	C27.7,16.6,7,40.6,7,68.8z"/>
<path fill="#2163BE" d="M63.9,11.7h-0.6L63,12.4L63.9,11.7z"/>
<linearGradient id="SVGID_6_" gradientUnits="userSpaceOnUse" x1="46.045" y1="106.0995" x2="84.7478" y2="67.4067" gradientTransform="matrix(1 0 0 -1 0 128)">
	<stop  offset="0" style="stop-color:#1BA0D5"/>
	<stop  offset="0.11" style="stop-color:#1C96CE"/>
	<stop  offset="0.3" style="stop-color:#1E7ABC"/>
	<stop  offset="0.47" style="stop-color:#205BA7"/>
	<stop  offset="0.84" style="stop-color:#1C4A9B"/>
</linearGradient>
<path fill="url(#SVGID_6_)" d="M74.3,41.6c-0.8-0.5-1.5-1-2.3-1.4c-4-2.2-8.3-3.7-12.8-4.4l2.3-1.2c6.5-3.2,24.8-12,33.5-13.7
	c-2.5-1.6-5-3-7.7-4.2c-5.9-2.7-12.3-4.3-18.8-4.8l3.2-5.3c-2.6,1.2-5.1,2.8-7.4,4.5c-0.6,0.6-1.1,1.2-1.6,1.9l1-1.9L66.2,5
	c-4,1.7-7.6,4.2-10.6,7.4c-4.8,5.2-8.3,11.5-10.2,18.3c-6.7,3.8-8.7,8.5-9.4,11.8c-0.1,0.6-0.2,1.2-0.3,1.7c-0.3,2.9,1.8,7,1.6,9.7
	c0,0.4-0.1,0.8-0.3,1.2c-3.2,6.5,3.3,11,3.3,11c0.4-2.3,1.1-4.6,2.1-6.8c0.6-1,1.5-1.8,2.5-2.4c3.7-2.5,10.5-5,13.9-5
	c4.5,0,13.8,3.2,23.7,4.8c2.1,0.4,4.2,0.3,6.2-0.1C85.4,50.4,80.4,45.2,74.3,41.6z"/>
<linearGradient id="SVGID_7_" gradientUnits="userSpaceOnUse" x1="106.7593" y1="70.6931" x2="72.2093" y2="105.2331" gradientTransform="matrix(1 0 0 -1 0 128)">
	<stop  offset="0" style="stop-color:#1BA0D5"/>
	<stop  offset="0.16" style="stop-color:#1B96CE"/>
	<stop  offset="0.45" style="stop-color:#1C7ABC"/>
	<stop  offset="0.71" style="stop-color:#1C5BA7"/>
	<stop  offset="1" style="stop-color:#265BA8"/>
</linearGradient>
<path fill="url(#SVGID_7_)" d="M110.1,36.6c-0.4-1.1-0.9-2.2-1.4-3.3c-3.6-4.6-7.9-8.6-12.8-11.9L95,20.9
	c-8.7,1.6-27,10.5-33.5,13.7l-2.3,1.2C63.7,36.5,68,38,72,40.2c0.8,0.5,1.6,0.9,2.3,1.4c6.1,3.6,11.1,8.7,14.5,14.9
	c2.4,4.4,4,9.1,4.8,14c1.5-2.8,1.3-7.9,1.1-10.5c-0.1-1.1-0.2-1.8-0.2-1.8c4.9,2.6,4.8,6.4,4.8,6.4c0.4-1.5,0.6-3,0.8-4.6
	c0.5-4.2,0.5-8.3,0.5-8.3c3.2,0,4.8,6.5,4.8,6.5c1.2-3,1.5-6.3,0.9-9.4c-0.2-1.3-0.6-2.6-1.2-3.8c1.6,1.3,3.1,2.8,4.2,4.5
	c0.5,0.7,0.9,1.4,1.2,2.2c0.3-0.6,0.5-1.2,0.6-1.8C112.2,45.6,111.9,40.8,110.1,36.6z"/>
<linearGradient id="SVGID_8_" gradientUnits="userSpaceOnUse" x1="38.0478" y1="60.882" x2="62.3395" y2="85.1837" gradientTransform="matrix(0.9995 -3.071296e-02 -3.071296e-02 -0.9995 6.1474 117.0686)">
	<stop  offset="0" style="stop-color:#4081CB"/>
	<stop  offset="0.29" style="stop-color:#367FC6"/>
	<stop  offset="0.73" style="stop-color:#1E79BB"/>
</linearGradient>
<path fill="url(#SVGID_8_)" d="M42.6,55.3c3-1.2,5.8-2.7,8.5-4.4C54.3,48.6,62.7,31,64.3,29s-7.6,5.5-7.6,5.5L42.6,55.3z"/>
<linearGradient id="SVGID_9_" gradientUnits="userSpaceOnUse" x1="42.4395" y1="75.3644" x2="48.2195" y2="69.2144" gradientTransform="matrix(0.9995 -3.071296e-02 -3.071296e-02 -0.9995 6.1474 117.0686)">
	<stop  offset="0" style="stop-color:#1C8DC8"/>
	<stop  offset="0.38" style="stop-color:#1D81C0"/>
	<stop  offset="0.83" style="stop-color:#1F6DB3"/>
</linearGradient>
<path fill="url(#SVGID_9_)" d="M42.6,55.3c0,0-1.9-8.3,0-10.9c3.9-5.5,10.4-7.7,14.7-10.7c2.8-1.9-5.2,9.5-8.2,14.7
	C47.6,51.3,45.4,53.6,42.6,55.3z"/>
<linearGradient id="SVGID_10_" gradientUnits="userSpaceOnUse" x1="43.199" y1="67.9378" x2="47.849" y2="67.9378" gradientTransform="matrix(0.9995 -3.071296e-02 -3.071296e-02 -0.9995 6.1474 117.0686)">
	<stop  offset="0" style="stop-color:#1B1464"/>
	<stop  offset="0.68" style="stop-color:#1B1E5D"/>
	<stop  offset="1" style="stop-color:#1B2559"/>
</linearGradient>
<path fill="url(#SVGID_10_)" d="M51.4,49c0.8-1.3,0.3-3.1,0-3.8c-0.1-0.2-0.2-0.2-0.4-0.2c-0.7,0-2.6,0.3-3.4,1.5s-0.3,3.1-0.1,3.8
	c0.1,0.2,0.2,0.2,0.4,0.2C48.7,50.5,50.6,50.3,51.4,49z"/>
<linearGradient id="SVGID_11_" gradientUnits="userSpaceOnUse" x1="44.179" y1="67.6175" x2="47.509" y2="67.6175" gradientTransform="matrix(0.9995 -3.071296e-02 -3.071296e-02 -0.9995 6.1474 117.0686)">
	<stop  offset="0" style="stop-color:#F15A24"/>
	<stop  offset="0.27" style="stop-color:#F26423"/>
	<stop  offset="0.73" style="stop-color:#F58020"/>
	<stop  offset="1" style="stop-color:#F7931E"/>
</linearGradient>
<path fill="url(#SVGID_11_)" d="M51.2,49c0.4-0.8,0.5-1.7,0.2-2.6c-0.1-0.2-0.2-0.3-0.4-0.3c-0.9,0-1.8,0.3-2.4,1
	c-0.4,0.8-0.5,1.7-0.2,2.6c0,0.2,0.2,0.3,0.4,0.3C49.7,50,50.6,49.7,51.2,49z"/>
<circle fill="#1A1A1A" cx="49.5" cy="48.1" r="1"/>
<circle fill="#FFFFFF" cx="49.1" cy="47.8" r="0.3"/>
<linearGradient id="SVGID_12_" gradientUnits="userSpaceOnUse" x1="36.0093" y1="72.8174" x2="43.4593" y2="65.3774" gradientTransform="matrix(1 0 0 -1 0 128)">
	<stop  offset="0" style="stop-color:#A1D4D7"/>
	<stop  offset="0.24" style="stop-color:#97CFD8"/>
	<stop  offset="0.65" style="stop-color:#7BC0DB"/>
	<stop  offset="1" style="stop-color:#5FB1DE"/>
</linearGradient>
<path fill="url(#SVGID_12_)" d="M39.7,60.2c0.3-1.9,2.3-4.2,3-4.9l-0.1,0.1c-2.6,2.6-4.6-0.4-5.2-1.6c0,0.4-0.1,0.8-0.3,1.2
	c-2.9,5.8,2.1,10,3.1,10.8C39.5,64,39.4,62.1,39.7,60.2z"/>
<linearGradient id="SVGID_13_" gradientUnits="userSpaceOnUse" x1="39.52" y1="67.4111" x2="44.99" y2="67.4111" gradientTransform="matrix(1 0 0 -1 0 128)">
	<stop  offset="0" style="stop-color:#53ACE0"/>
	<stop  offset="0.89" style="stop-color:#5DB0DE"/>
	<stop  offset="1" style="stop-color:#5FB1DE"/>
</linearGradient>
<path fill="url(#SVGID_13_)" d="M42.5,59.2c0.6-1,1.5-1.8,2.5-2.4c-2.3,0.1-1.7-2.1-2.3-1.6c-0.7,0.7-2.7,3-3,4.9
	c-0.3,1.9-0.1,3.9,0.6,5.7l0.2,0.2C40.9,63.7,41.6,61.4,42.5,59.2z"/>
</svg>
