<?xml version="1.0" encoding="utf-8"?>
<!-- Generator: Adobe Illustrator 24.0.0, SVG Export Plug-In . SVG Version: 6.00 Build 0)  -->
<svg version="1.1" id="图层_3" opacity="0.8" xmlns="http://www.w3.org/2000/svg" xmlns:xlink="http://www.w3.org/1999/xlink"
	 x="0px" y="0px" viewBox="0 0 16 16" style="enable-background:new 0 0 16 16;" xml:space="preserve">
<style type="text/css">
	.st0{fill:#1F2022;}
</style>
<g>
	<path class="st0" d="M13,9H3c-1.1,0-2,0.9-2,2v2c0,1.1,0.9,2,2,2h10c1.1,0,2-0.9,2-2v-2C15,9.9,14.1,9,13,9z M2,13v-2
		c0-0.6,0.4-1,1-1h3c0.6,0,1,0.4,1,1v2c0,0.6-0.4,1-1,1H3C2.4,14,2,13.6,2,13z"/>
</g>
<g>
	<path class="st0" d="M1,3v2c0,1.1,0.9,2,2,2h10c1.1,0,2-0.9,2-2V3c0-1.1-0.9-2-2-2H3C1.9,1,1,1.9,1,3z M13,6h-3C9.4,6,9,5.6,9,5V3
		c0-0.6,0.4-1,1-1h3c0.6,0,1,0.4,1,1v2C14,5.6,13.6,6,13,6z"/>
</g>
</svg>
