<?xml version="1.0" encoding="utf-8"?>
<!-- Generator: Adobe Illustrator 24.0.0, SVG Export Plug-In . SVG Version: 6.00 Build 0)  -->
<svg version="1.1" id="图层_1" xmlns="http://www.w3.org/2000/svg" xmlns:xlink="http://www.w3.org/1999/xlink" x="0px" y="0px"
	 viewBox="0 0 128 128" enable-background="new 0 0 128 128" xml:space="preserve">
<title>viewnior128</title>
<path fill="#B3E5FC" d="M20.2,8h87.6c6.7,0,12.2,5.5,12.2,12.2v87.6c0,6.7-5.5,12.2-12.2,12.2H20.2C13.5,120,8,114.5,8,107.8V20.2
	C8,13.5,13.5,8,20.2,8z"/>
<ellipse fill="#8AB6C1" cx="63.8" cy="100.9" rx="14.9" ry="4.6"/>
<path fill="#F44336" d="M69.6,94.6c-3.6-2.6-4.5-7.7-1.9-11.3c1-1.5,2.5-2.5,4.3-3c-0.1-0.4-0.2-0.9-0.2-1.3c0-3.2,2.6-5.7,5.7-5.7
	h0.2c0.4-0.7,0.9-1.3,1.6-1.8L92,24H77.5L63.8,75.1L50.1,24H35.6l20.9,78h14.6c-1.1-1.7-1.7-3.6-1.7-5.6
	C69.4,95.8,69.5,95.2,69.6,94.6z"/>
</svg>
