<?xml version="1.0" encoding="utf-8"?>
<!-- Generator: Adobe Illustrator 24.0.0, SVG Export Plug-In . SVG Version: 6.00 Build 0)  -->
<svg version="1.1" id="图层_1" xmlns="http://www.w3.org/2000/svg" xmlns:xlink="http://www.w3.org/1999/xlink" x="0px" y="0px"
	 viewBox="0 0 128 128" enable-background="new 0 0 128 128" xml:space="preserve">
<title>vokoscreen128</title>
<path fill="#B3B3B3" d="M101.2,116h-1.3c-0.1,0-0.3,0.1-0.3,0.3l0,0c0,0.1-0.1,0.3-0.3,0.3c0,0,0,0,0,0L82,113.4
	c-0.8-0.2-1.5-0.9-1.4-1.8V94.4c0-4.6-3.7-8.4-8.3-8.4c0,0,0,0,0,0h-9.8c-3.6,0-6.6,2.9-6.8,6.5c0,0.2,0,0.5-0.1,0.7l-3.1,15.4
	c-0.1,0.4-0.1,0.8-0.1,1.2c0.2,1.7,1,3.3,2.3,4.5c0.3,0.2,0.5,0.4,0.8,0.6l2,0.9l4.4,2.1c0.1,0.1,0.3,0.1,0.4,0.1l38.8-0.3
	c0.2,0,0.4-0.1,0.4-0.4l0,0v-1C101.5,116.2,101.5,116,101.2,116C101.3,116,101.3,116,101.2,116z"/>
<linearGradient id="SVGID_1_" gradientUnits="userSpaceOnUse" x1="76.9434" y1="62.21" x2="76.9434" y2="10.98" gradientTransform="matrix(1 0 0 -1 0 128)">
	<stop  offset="0.51" style="stop-color:#4D4D4D"/>
	<stop  offset="0.86" style="stop-color:#B3B3B3"/>
	<stop  offset="1" style="stop-color:#666666"/>
</linearGradient>
<path fill="url(#SVGID_1_)" d="M101.2,115.9l-19.4-3.5c-0.7-0.1-1.2-0.8-1.2-1.5V93.2c0-4.5-3.6-8.1-8.1-8.1c0,0,0,0,0,0H62.4
	c-3.6,0-6.6,2.9-6.8,6.5c0,0.2,0,0.5-0.1,0.7l-3.1,15.5c-0.1,0.4-0.1,0.8-0.1,1.1c0.2,1.7,1,3.4,2.3,4.5l0,0
	c0.2,0.2,0.5,0.4,0.8,0.5l2,1l4.4,2.1c0.1,0.1,0.3,0.1,0.4,0.1l38.8-0.3c0.2,0,0.4-0.1,0.5-0.4C101.6,116.2,101.4,116,101.2,115.9
	L101.2,115.9z"/>
<radialGradient id="SVGID_2_" cx="64" cy="73.0716" r="50.2641" gradientTransform="matrix(1 0 0 -1.01 0 128.7)" gradientUnits="userSpaceOnUse">
	<stop  offset="0" style="stop-color:#03A9F4"/>
	<stop  offset="1" style="stop-color:#1976D2"/>
</radialGradient>
<path fill="url(#SVGID_2_)" d="M15.2,97.4c-1,0-1.8-0.9-1.8-1.8v-0.2L7,13.8c0-1,0.8-1.7,1.8-1.8l102.5,3.3l9.7,73.9
	c-0.1,0.9-0.9,1.7-1.8,1.7H119L15.2,97.4z"/>
<path fill="#CCCCCC" d="M9,14l14.4,0.5l52.9,1.7l33.2,1.1l0.7,4.9l1.4,10.7l7.4,56.1l0,0l-4.8,0.3l-52.3,3.3l-46.3,2.9v-0.2L9,14
	 M8.8,10C6.7,10,5,11.7,5,13.8l6.5,81.7l0,0c0,2.1,1.7,3.8,3.8,3.8L62,96.4l52.3-3.3l4.8-0.3l0,0c2.1,0,3.8-1.7,3.9-3.7l-7.4-56.8
	l-1.4-10.6l-0.9-6.6v-0.1c0-0.9-0.7-1.6-1.6-1.6l-35.2-1.2l-52.8-1.7L8.8,10L8.8,10z"/>
<path opacity="0.2" fill="#FFFFFF" enable-background="new    " d="M71.2,37.1c18.9,0,35.3-6.2,43-15.1l-0.9-6.7v-0.1
	c0-0.9-0.7-1.6-1.6-1.6c0,0,0,0,0,0l-35.3-1.1l-52.8-1.7C23.9,25.3,45.1,37.1,71.2,37.1z"/>
<path opacity="0.3" fill="#FFFFFF" enable-background="new    " d="M10,11.6c-2,0-3.7,1.6-3.7,3.7L12.6,94l0,0c0,2,1.6,3.7,3.7,3.7
	l45.1-2.8l13.9-81.2L10,11.6z"/>
<ellipse fill="#B3B3B3" cx="46.1" cy="42.8" rx="20.6" ry="21.1"/>
<ellipse fill="#252728" cx="47.7" cy="42.8" rx="20.9" ry="21.1"/>
<ellipse fill="#DAE9F2" cx="49.8" cy="43" rx="21" ry="20.9"/>
<ellipse fill="#333333" cx="49.8" cy="43" rx="3.9" ry="3.9"/>
<path fill="#333333" d="M43.6,37.7l-3.4-7.1c-0.5-1-1.7-1.4-2.7-1c-0.4,0.2-0.7,0.5-0.9,0.9l-4.5,7.7c-0.6,0.9-0.3,2.2,0.6,2.8
	c0.4,0.2,0.8,0.3,1.2,0.3l7.8-0.6c1.2-0.1,2-1.1,1.9-2.3C43.7,38.2,43.7,38,43.6,37.7z"/>
<path fill="#333333" d="M42.1,45.7l-7.8-0.6c-1.1-0.1-2.1,0.7-2.2,1.8c0,0.4,0.1,0.9,0.3,1.2l4.5,7.7c0.5,1,1.7,1.4,2.7,0.9
	c0.4-0.2,0.7-0.5,0.9-0.9l3.4-7.1c0.5-1.1,0-2.3-1-2.8C42.6,45.8,42.3,45.7,42.1,45.7z"/>
<path fill="#333333" d="M48.3,51l-4.5,6.4c-0.6,0.9-0.4,2.2,0.5,2.8c0.4,0.2,0.8,0.4,1.2,0.3h8.9c1.1,0.1,2-0.8,2.1-1.9
	c0-0.4-0.1-0.9-0.3-1.2L51.8,51c-0.7-1-2-1.2-3-0.5C48.6,50.6,48.4,50.8,48.3,51z"/>
<path fill="#333333" d="M56,48.3l3.4,7.1c0.5,1,1.7,1.4,2.7,1c0.4-0.2,0.7-0.5,0.9-0.9l4.5-7.7c0.6-0.9,0.3-2.2-0.6-2.8
	c-0.4-0.2-0.8-0.3-1.2-0.3l-7.8,0.6c-1.2,0.1-2,1.1-1.9,2.3C55.8,47.8,55.9,48,56,48.3z"/>
<path fill="#333333" d="M57.5,40.3l7.8,0.6c1.1,0.1,2.1-0.7,2.2-1.8c0-0.4-0.1-0.9-0.3-1.2l-4.5-7.7c-0.5-1-1.7-1.4-2.7-0.9
	c-0.4,0.2-0.7,0.5-0.9,0.9l-3.4,7.1c-0.5,1.1,0,2.3,1,2.8C57,40.2,57.2,40.3,57.5,40.3z"/>
<path fill="#333333" d="M51.3,35l4.5-6.4c0.6-0.9,0.4-2.2-0.6-2.8c-0.3-0.2-0.7-0.3-1.2-0.3h-9c-1.1-0.1-2,0.8-2.1,1.9
	c0,0.4,0.1,0.9,0.3,1.2l4.5,6.4c0.7,1,2,1.2,3,0.5C50.9,35.4,51.1,35.2,51.3,35z"/>
<path opacity="0.1" fill="#FFFFFF" enable-background="new    " d="M119.2,92.9c2.1,0,3.8-1.7,3.8-3.8l-7.4-56.8l-16,16.2
	c-8.2,8.3-8.2,21.6,0,29.8l14.8,14.9L119.2,92.9L119.2,92.9z"/>
<ellipse fill="#999999" cx="93.5" cy="71.3" rx="20.1" ry="20.2"/>
<path fill="#CCCCCC" d="M93.5,55.6c-8.7-0.1-15.8,6.9-15.8,15.6c-0.1,8.7,6.9,15.8,15.6,15.8c8.7,0.1,15.8-6.9,15.8-15.6
	c0,0,0-0.1,0-0.1C109.1,62.7,102.2,55.6,93.5,55.6z M93.5,86c-8.1,0.1-14.7-6.4-14.7-14.5c-0.1-8.1,6.4-14.7,14.5-14.7
	s14.7,6.4,14.7,14.5c0,0,0,0,0,0.1C108,79.4,101.6,86,93.5,86C93.5,86,93.5,86,93.5,86z"/>
<path fill="#333333" d="M93.5,53.4c-9.9-0.1-18.1,7.9-18.1,17.9c-0.1,9.9,7.9,18.1,17.9,18.1s18.1-7.9,18.1-17.9c0,0,0-0.1,0-0.1
	C111.4,61.5,103.4,53.4,93.5,53.4z M93.5,87.1c-8.7,0.1-15.8-6.9-15.8-15.6s6.9-15.8,15.6-15.8s15.8,6.9,15.8,15.6c0,0,0,0.1,0,0.1
	C109.2,80,102.2,87,93.5,87.1z"/>
<ellipse fill="#999999" cx="93.5" cy="71.3" rx="13" ry="13.1"/>
<path fill="#E6E6E6" d="M93.5,56.7c-8.1-0.1-14.7,6.4-14.7,14.5c-0.1,8.1,6.4,14.7,14.5,14.7c8.1,0.1,14.7-6.4,14.7-14.5
	c0,0,0-0.1,0-0.1C108,63.3,101.5,56.8,93.5,56.7z M93.5,84.4c-7.2,0.1-13.2-5.8-13.2-13c-0.1-7.2,5.8-13.2,13-13.2
	c7.2-0.1,13.2,5.8,13.2,13c0,0,0,0.1,0,0.1C106.5,78.5,100.7,84.4,93.5,84.4z"/>
<ellipse fill="#333333" cx="93.5" cy="71.3" rx="5.2" ry="5.2"/>
</svg>
