<?xml version="1.0" encoding="utf-8"?>
<!-- Generator: Adobe Illustrator 21.0.0, SVG Export Plug-In . SVG Version: 6.00 Build 0)  -->
<svg version="1.1" id="图层_2" opacity="0.8" xmlns="http://www.w3.org/2000/svg" xmlns:xlink="http://www.w3.org/1999/xlink"
	 x="0px" y="0px" viewBox="0 0 16 16" style="enable-background:new 0 0 16 16;" xml:space="preserve">
<style type="text/css">
	.st0{fill:none;stroke:#1F2022;stroke-linecap:round;stroke-miterlimit:10;}
</style>
<g>
	<path class="st0" d="M3.6,8.7C3.5,8.4,3.5,8.2,3.5,7.9C3.5,6,5,4.5,6.9,4.5c1.4,0,2.5,0.8,3.1,1.9"/>
	<line class="st0" x1="1.8" y1="3.4" x2="3.1" y2="4.7"/>
	<line class="st0" x1="11.9" y1="3.4" x2="10.6" y2="4.7"/>
	<line class="st0" x1="6.5" y1="0.9" x2="6.5" y2="2.5"/>
	<line class="st0" x1="2.1" y1="8.5" x2="0.5" y2="8.5"/>
</g>
<g id="云_3_">
	<path class="st0" d="M4.7,14.5c-1.7,0-3.2-1.3-3.2-3s1.4-3,3.2-3c0.7,0,1.2,0.1,1.7,0.4"/>
	<path class="st0" d="M13.4,9.2c1.2,0.3,2.1,1.4,2.1,2.6c0,1.5-1.3,2.7-2.8,2.7"/>
	<path class="st0" d="M6.4,8.9C7,7.6,8.3,6.5,9.8,6.5c1.8,0,3.2,1.1,3.6,2.7"/>
	<line class="st0" x1="4.7" y1="14.5" x2="12.5" y2="14.5"/>
</g>
</svg>
