<?xml version="1.0" encoding="utf-8"?>
<!-- Generator: Adobe Illustrator 24.0.0, SVG Export Plug-In . SVG Version: 6.00 Build 0)  -->
<svg version="1.1" id="微信" xmlns="http://www.w3.org/2000/svg" xmlns:xlink="http://www.w3.org/1999/xlink" x="0px" y="0px"
	 viewBox="0 0 128 128" enable-background="new 0 0 128 128" xml:space="preserve">
<title>128</title>
<g id="_128">
	<path fill="#66A925" d="M20,8h88c6.6,0,12,5.4,12,12v88c0,6.6-5.4,12-12,12H20c-6.6,0-12-5.4-12-12V20C8,13.4,13.4,8,20,8z"/>
	<path fill="#FFFFFF" d="M54.9,76c0,12.2,11.4,22.2,25.6,22.2c2.7,0,5.4-0.4,8-1.1l9.9,5c0.2,0.1,0.4,0,0.5-0.1c0-0.1,0-0.1,0-0.2
		l-1.3-9.2c5.3-3.9,8.4-10,8.5-16.5c0-12.2-11.4-22.2-25.6-22.2S54.9,63.8,54.9,76z M94.1,69.2c0,1.9-1.5,3.4-3.4,3.4
		s-3.4-1.5-3.4-3.4c0-1.9,1.5-3.4,3.4-3.4C92.6,65.8,94.1,67.3,94.1,69.2L94.1,69.2z M66.9,69.2c0-1.9,1.5-3.4,3.4-3.4
		s3.4,1.5,3.4,3.4c0,1.9-1.5,3.4-3.4,3.4C68.4,72.6,66.9,71.1,66.9,69.2L66.9,69.2z"/>
	<path fill="#FFFFFF" d="M52,75.7C52,62,64.4,51,79.9,51c0.7,0,1.3,0,1.9,0.1C80.1,38.1,67.4,28,52,28c-16.6,0-30,11.6-30,26
		c0,7.7,3.9,14.6,10,19.4l-1.6,10.8c0,0.2,0.1,0.4,0.3,0.5c0.1,0,0.2,0,0.2,0l11.6-5.9c3.1,0.9,6.2,1.3,9.4,1.3h0.4
		C52.1,78.6,52,77.1,52,75.7z M64,42c2.2,0,4,1.8,4,4s-1.8,4-4,4c-2.2,0-4-1.8-4-4S61.8,42,64,42z M40,50c-2.2,0-4-1.8-4-4
		s1.8-4,4-4s4,1.8,4,4S42.2,50,40,50z"/>
</g>
</svg>
