<?xml version="1.0" encoding="utf-8"?>
<!-- Generator: Adobe Illustrator 24.0.0, SVG Export Plug-In . SVG Version: 6.00 Build 0)  -->
<svg version="1.1" id="图层_1" xmlns="http://www.w3.org/2000/svg" xmlns:xlink="http://www.w3.org/1999/xlink" x="0px" y="0px"
	 viewBox="0 0 128 128" enable-background="new 0 0 128 128" xml:space="preserve">
<title>wordnet-gui-112</title>
<path fill="#89BA36" d="M20,8h88c6.6,0,12,5.4,12,12v88c0,6.6-5.4,12-12,12H20c-6.6,0-12-5.4-12-12V20C8,13.4,13.4,8,20,8z"/>
<path d="M26.7,50.1l-0.3,0.3v61.3h19.7l0.3-0.3V50.1H26.7z M45.4,110.7h-18V51.1h18V110.7z"/>
<path d="M61.3,33.6l-1,1L45.7,50.1l-0.3,0.3v61.3h0.7l0.3-0.3L62,94.9V33.6H61.3z M61,94.5L46.5,110V50.8L61,35.4V94.5z"/>
<path d="M42.3,33.6L26.7,50.1l-0.3,0.3v0.7h19.7l0.3-0.3l0,0L61,35.4l1-1.1v-0.7H42.3z M45.7,50.1H28.1l14.6-15.5h17.6L45.7,50.1z"
	/>
<path d="M100.1,81.2l-0.5-0.7L86.3,93.3c-3.1-1.2-5.1-4.1-5.2-7.4c0-1.4,0.4-2.7,1.1-3.9l0,0l4.8-9.9l12.9-26.3
	c1.1-1.6,1.7-3.5,1.7-5.4c0-5.3-4.3-9.6-9.6-9.6c-2.9,0-5.6,1.3-7.4,3.5L66.7,53.3l-0.2,0.2l0,0c-3.8,4.3-3.5,10.9,0.8,14.7
	c3.7,3.3,9.1,3.6,13.1,0.7L77.7,74L65,98.2c-0.3,0.4-0.5,0.9-0.7,1.3h-0.1v0.2c-0.4,1-0.6,2.1-0.6,3.2c0,5.2,4.6,9.4,10.3,9.4
	c3.4,0,6.5-1.5,8.6-4.2L97.9,93c0.5-0.4,1-0.8,1.4-1.3l0.2-0.2l0,0C102,88.7,102.3,84.4,100.1,81.2L100.1,81.2z M74.3,69.8
	c-5.2,0-9.4-4.2-9.4-9.4S69,51,74.2,51s9.4,4.2,9.4,9.4c0,0,0,0,0,0C83.7,65.6,79.5,69.8,74.3,69.8z M82.5,105.7
	c-1.5,3.5-4.9,5.7-8.7,5.6c-5.1,0-9.3-3.8-9.3-8.4c0-1,0.2-1.9,0.6-2.8l13.8-26.4l3.9-7.4l0,0c1.2-1.8,1.9-3.9,1.9-6
	C84.7,54.7,80,50,74.3,50c-1.3,0-2.5,0.2-3.7,0.7l14.8-15.6c3-3.7,8.4-4.2,12.1-1.2c3.4,2.8,4.1,7.8,1.6,11.5l-0.9,1.8L85.8,72.5
	l-4.3,8.8h-0.1v0.2c-0.8,1.3-1.3,2.9-1.3,4.4c0.1,3.6,2.2,6.7,5.5,8.2l-4.2,4l0.4,0.5c0.9,1.3,1.4,2.8,1.4,4.4
	C83.1,103.9,82.9,104.9,82.5,105.7z M98.5,90.9L98.5,90.9c-0.4,0.5-0.9,0.9-1.4,1.3l-1.7,1.6l-11.7,11.6c0-0.1,0-0.1,0-0.2l0,0
	c0.2-0.7,0.3-1.4,0.3-2.2c0-1.7-0.5-3.3-1.4-4.8l16.8-16.2c0.7,1.2,1.1,2.5,1.1,3.8C100.5,87.8,99.8,89.6,98.5,90.9z"/>
<path d="M74.3,52.8c-4.2,0-7.6,3.4-7.6,7.6S70,68,74.3,68c4.2,0,7.6-3.4,7.6-7.6c0,0,0,0,0,0C81.8,56.2,78.4,52.8,74.3,52.8z
	 M74.3,67c-3.6,0-6.6-3-6.6-6.6s3-6.6,6.6-6.6s6.6,3,6.6,6.6v0C80.8,64,77.9,67,74.3,67z"/>
<path d="M74.3,55.1c-2.9,0-5.3,2.4-5.3,5.3c0,2.9,2.4,5.3,5.3,5.3c2.9,0,5.3-2.4,5.3-5.3c0,0,0,0,0,0C79.6,57.5,77.2,55.1,74.3,55.1
	z M74.3,64.7c-2.4,0-4.3-1.9-4.3-4.3s1.9-4.3,4.3-4.3c2.4,0,4.3,1.9,4.3,4.3c0,0,0,0,0,0C78.5,62.8,76.6,64.7,74.3,64.7z"/>
<path d="M74.3,57.7c-1.5,0-2.8,1.2-2.8,2.7c0,1.5,1.2,2.8,2.7,2.8c1.5,0,2.8-1.2,2.8-2.7c0,0,0,0,0,0C77,58.9,75.8,57.7,74.3,57.7z
	 M74.3,62.2c-1,0-1.8-0.8-1.8-1.8s0.8-1.8,1.8-1.8s1.8,0.8,1.8,1.7C76,61.4,75.2,62.2,74.3,62.2z"/>
<polygon points="46,34.6 31.5,50.1 30,50.1 44.6,34.6 "/>
<polygon points="49.1,34.6 34.5,50.1 33.1,50.1 47.7,34.6 "/>
<polygon points="52.2,34.6 37.6,50.1 36.2,50.1 50.8,34.6 "/>
<polygon points="55.3,34.6 40.7,50.1 39.3,50.1 53.9,34.6 "/>
<polygon points="58.4,34.6 43.8,50.1 43.8,50.2 42.4,50.1 57,34.6 "/>
<linearGradient id="SVGID_1_" gradientUnits="userSpaceOnUse" x1="64" y1="53.08" x2="64" y2="112.36" gradientTransform="matrix(1 0 0 -1 0 128)">
	<stop  offset="0" style="stop-color:#FFFFFF;stop-opacity:0.3"/>
	<stop  offset="1.000000e-02" style="stop-color:#FFFFFF;stop-opacity:0.29"/>
	<stop  offset="0.15" style="stop-color:#FFFFFF;stop-opacity:0.18"/>
	<stop  offset="0.31" style="stop-color:#FFFFFF;stop-opacity:0.1"/>
	<stop  offset="0.48" style="stop-color:#FFFFFF;stop-opacity:4.000000e-02"/>
	<stop  offset="0.68" style="stop-color:#FFFFFF;stop-opacity:1.000000e-02"/>
	<stop  offset="1" style="stop-color:#FFFFFF;stop-opacity:0"/>
</linearGradient>
<path fill="url(#SVGID_1_)" d="M120,27.9v26.4c-7.8,8.1-19.3,14.5-32.9,17.9l-1.3,0.3c-2.2,0.5-4.5,1-6.8,1.3L77.7,74
	c-4.5,0.7-9.1,1-13.7,1h-2h-1c-4.9-0.1-9.7-0.7-14.5-1.5l-1-0.2c-6.2-1.2-12.2-3.1-18-5.6l-1-0.5C19.6,64.1,13.3,59.7,8,54.3V27.9
	c0-6.7,5.5-12.2,12.2-12.2h87.6C114.5,15.7,120,21.1,120,27.9z"/>
</svg>
