<?xml version="1.0" encoding="utf-8"?>
<!-- Generator: Adobe Illustrator 24.0.0, SVG Export Plug-In . SVG Version: 6.00 Build 0)  -->
<svg version="1.1" id="图层_1" xmlns="http://www.w3.org/2000/svg" xmlns:xlink="http://www.w3.org/1999/xlink" x="0px" y="0px"
	 viewBox="0 0 128 128" enable-background="new 0 0 128 128" xml:space="preserve">
<title>xdx-112</title>
<path fill="#2672BA" d="M120.5,64c0,19.5-10,37.5-26.5,47.9l0,0c-26.5,16.6-61.3,8.5-77.9-17.9C6,77.8,4.7,57.6,12.7,40.2
	c0.5-1.1,1-2.2,1.6-3.2C24.2,18.9,43.1,7.6,63.7,7.5H64c6.6,0,13.1,1.1,19.3,3.4l0,0C105.7,19,120.5,40.2,120.5,64z"/>
<path fill="#32A328" d="M29.5,108.7C8.6,92.6,1.6,64.2,12.7,40.2C12.2,46.8,11.7,52,11.3,56c-0.8,7.4-1.6,13,1.7,18.4
	c1.4,2.2,2.2,2.4,5.6,6.7c2.9,3.7,5.5,7.6,7.8,11.7C28.9,97.8,29.6,103.5,29.5,108.7z"/>
<path fill="#32A328" d="M93.3,53.3c-1.9,0-3.8,0.1-5.7,0.4c-5.4,0.5-6-0.5-10.1,0.2c-5.2,0.7-9.7,3.9-12.1,8.6
	c-1,1.7-1.7,3.5-2.1,5.4c-0.4,2-1,5.4,0.8,8.2c1.2,1.6,3,2.8,5,3.3c4.6,1.7,6.1-0.1,10.3,0.8c6.2,1.4,10,7,10.7,8.2
	c2.2,3.3,1.4,4.6,4,7.7c1.4,1.7,4.2,5.1,7.5,4.6c2.3-0.5,4.1-2.2,4.8-4.4c1.1-3.3-1.7-4.9-0.8-8.4s4.3-3.9,4.2-6.5
	c-0.1-1.6-1.9-3-5.7-5.9s-5.4-3.4-6.1-5.4c-0.5-1.5-0.4-3.7,0.8-4.6s2.9,0.4,6.3-0.2c1.4-0.2,3.3-0.6,4.2-2.1
	c0.8-1.9,0.3-4.1-1.3-5.4c-1.5-1.3-2.7-0.1-5.7-1.3c-2.6-1-2.6-2.2-5.2-2.9C96,53.3,94.6,53.2,93.3,53.3z"/>
<path fill="#B3E5FC" d="M94,111.9c-14.7,9.2-32.9,11.2-49.3,5.3c1.9-0.6,3.9-1.1,5.8-1.3c6-0.8,9.3,0.6,16.7-0.8
	c4-0.8,5.6-1.7,8.4-2.5C79.9,111.2,85.8,110.4,94,111.9z"/>
<path fill="#32A328" d="M52.3,23.8c0,0.2-0.1,0.4-0.3,0.5c-0.7,0.5-2.6,0.9-4.4,2.2c-4,2.8-2.8,6.5-5.6,7.8
	c-3.2,1.5-5.9-2.7-11.7-2.8c-4.3-0.1-7.1,2.1-9.5,3.3c-2,1.1-4.2,1.8-6.4,2.2C24.2,18.9,43.1,7.6,63.7,7.5c-7.4,1.6-14.8,4.2-16,7.9
	c-0.3,1-1.2,3.6,0,5.4C49.1,22.9,52.2,22.8,52.3,23.8z"/>
<path fill="#32A328" d="M117.1,44.5c-2.3,2.7-5.1,4.9-8.3,6.5c-2.5,1.2-6.8,3.3-10.5,1.7c-0.9-0.4-0.9-0.6-4.2-2.9s-4.9-3.5-5.9-3.8
	c-4.2-1.4-8.6,0.4-9.6,0.8c-3.1,1.3-4.7,3.1-5.4,2.5s0.9-2.9,0-5.4c-1-2.7-4-2.9-4.2-4.6c-0.2-1.2,1.1-3,7.1-5.9
	c-1.3-5.2-0.8-5.9-0.8-5.9c1.1-1.7,3.9,0,6.3-1.7c0.8-0.5,1.4-1.3,1.7-2.2c0.8-1.8,0.7-4,0.8-6.2c0.1-2.2-0.2-4.4-0.8-6.6
	C99,16.7,111.3,29,117.1,44.5L117.1,44.5z"/>
<path fill="#B3E5FC" d="M84.1,17.5c-0.1,2.2,0,4.4-0.8,6.2c-2.1-0.8-4.8-1.8-7.6-3c-2.3-0.9-3.5-1.5-5.3-1.4c-3,0.1-4.3,1.9-7.7,3.3
	c-2.6,0.9-5.3,1.5-8.1,1.7c-0.9,0.1-1.8,0.1-2.6-0.1c0.2-0.1,0.3-0.3,0.3-0.5c0-1-3.2-0.8-4.6-2.9c-1.2-1.9-0.3-4.5,0-5.4
	c1.3-3.7,8.6-6.2,16-7.9H64c6.6,0,13.1,1.1,19.3,3.4l0,0C83.9,13,84.1,15.3,84.1,17.5z"/>
<path fill="#32A328" d="M67.8,19.9c-1.5,0.7-2.8,1.7-5,2.7c-0.7,0.3-1.4,0.5-2.1,0.7c-0.5,0.7-1.1,1.2-1.7,1.7
	c-1.9,1.4-3,0.5-4.2,1.7c-2.8,2.7-0.3,10.8,1.7,10.9c1.1,0,0.9-2.6,4.2-7.1c0.5-0.7,2.3-3.2,5-6.3c1.9-2.1,2.8-3,2.5-3.8
	C68.1,20.2,67.9,20,67.8,19.9z"/>
<path fill="#B71C1C" d="M32.8,82.5l-7.4,11.8h-7.2l10.9-16.1l-10.3-15h8.2l6.4,10.6l6.7-10.6h7.1L37,78.1l10.9,16.1h-8.2L32.8,82.5z
	"/>
<path fill="#B71C1C" d="M51.3,94.2V63.1h10.6c10.3,0.1,15.5,5.3,15.6,15.6c-0.1,10.3-5.3,15.5-15.6,15.5H51.3z M57.9,68.3V89h3.5
	c6.2,0.2,9.2-3.2,9.1-10.3c0.1-7.1-2.9-10.5-9.1-10.4L57.9,68.3z"/>
<path fill="#B71C1C" d="M94.7,82.5l-7.4,11.8h-7.2L91,78.1l-10.3-15H89l6.4,10.6l6.7-10.6h7.1l-10.3,15l10.9,16.1h-8.2L94.7,82.5z"
	/>
</svg>
