<?xml version="1.0" encoding="utf-8"?>
<!-- Generator: Adobe Illustrator 21.0.0, SVG Export Plug-In . SVG Version: 6.00 Build 0)  -->
<svg version="1.1" id="图层_1" xmlns="http://www.w3.org/2000/svg" xmlns:xlink="http://www.w3.org/1999/xlink" x="0px" y="0px"
	 viewBox="0 0 16 16" style="enable-background:new 0 0 16 16;" xml:space="preserve">
<style type="text/css">
	.st0{fill:url(#SVGID_1_);}
	.st1{fill:#E65100;}
	.st2{fill:#E65100;fill-opacity:0.39;}
	.st3{fill:#FFFFFF;fill-opacity:0.39;}
	.st4{opacity:0.8;}
	.st5{fill:#FFFFFF;}
</style>
<title>application-vnd.oasis.opendocument.presentation</title>
<linearGradient id="SVGID_1_" gradientUnits="userSpaceOnUse" x1="8" y1="-3.5" x2="8" y2="11.5" gradientTransform="matrix(1 0 0 -1 0 12)">
	<stop  offset="0" style="stop-color:#EE6F0B"/>
	<stop  offset="1" style="stop-color:#FFB74D"/>
</linearGradient>
<polygon class="st0" points="9.4,15.5 13.5,11.3 13.5,0.5 2.5,0.5 2.5,15.5 "/>
<path class="st1" d="M13.5,0.5V11L9,15.5H2.5v-15H13.5 M14,0H2v16h7.5l0.1-0.1l4.2-4.2l0.1-0.1V0H14z"/>
<polygon class="st2" points="13.5,11 13.5,11 9,11 9,15.5 9,15.5 "/>
<path class="st3" d="M9,11h4.5L9,15.5V11z"/>
<g class="st4">
	<rect x="4" y="5" class="st5" width="1" height="7"/>
	<rect x="6" y="8" class="st5" width="1" height="4"/>
	<rect x="8" y="10" class="st5" width="1" height="2"/>
	<polygon class="st5" points="9.5,6 9.5,5 9.5,4 8,4 8,5 7,5 7,6 7,7 7.5,7 7.5,8 8,8 8,9 11.5,9 11.5,8 12,8 12,7 9.5,7 	"/>
	<polygon class="st5" points="11.5,5 11.5,4 11,4 10,4 10,6.5 11,6.5 12,6.5 12,5 	"/>
</g>
</svg>
