<?xml version="1.0" encoding="utf-8"?>
<!-- Generator: Adobe Illustrator 16.0.0, SVG Export Plug-In . SVG Version: 6.00 Build 0)  -->
<!DOCTYPE svg PUBLIC "-//W3C//DTD SVG 1.1//EN" "http://www.w3.org/Graphics/SVG/1.1/DTD/svg11.dtd">
<svg version="1.1" id="图层_1" xmlns="http://www.w3.org/2000/svg" xmlns:xlink="http://www.w3.org/1999/xlink" x="0px" y="0px"
	 width="16px" height="16px" viewBox="0 0 16 16" enable-background="new 0 0 16 16" xml:space="preserve">
<polygon fill="#3E2723" points="1.881,16 1.881,0 14.119,0 14.119,11.496 9.544,16 "/>
<g>
	<g>
		
			<linearGradient id="SVGID_1_" gradientUnits="userSpaceOnUse" x1="49.5996" y1="-148.4004" x2="49.5996" y2="-163.4009" gradientTransform="matrix(1 0 0 -1 -41.6001 -147.9004)">
			<stop  offset="0" style="stop-color:#785548"/>
			<stop  offset="1" style="stop-color:#9F9E9F"/>
		</linearGradient>
		<polygon fill="url(#SVGID_1_)" points="2.38,15.5 2.38,0.5 13.619,0.5 13.619,11.275 9.441,15.5 		"/>
		<polygon fill="#795548" fill-opacity="0.7" points="13.619,11.281 13.619,11.1 9.17,11.1 9.17,15.5 9.4,15.5 		"/>
		<path opacity="0.39" fill="#FFFFFF" enable-background="new    " d="M9.395,11.281l4.225,0.006L9.4,15.5L9.395,11.281z"/>
	</g>
	<path fill="#FFFFFF" d="M6.396,3.392h-0.38v4.871H5.728V3.392H5.35v4.871H5.063V3.392H4.684v4.871H4.396V3.392H4.018v4.871H3.918
		v2.063h2.607V8.263h-0.13V3.392z M6.146,9.727h-1.85V8.53h1.85V9.727z"/>
	<g>
		<rect x="2.378" y="0.5" opacity="0.8" fill="#FFFFFF" enable-background="new    " width="11.243" height="2.875"/>
		<g enable-background="new    ">
			<path fill="#5D4037" d="M6.482,0.817v0.43H5.771v1.811H5.24V1.248H4.528v-0.43H6.482z"/>
			<path fill="#5D4037" d="M8.244,0.817h0.531v2.241H8.244V2.107H7.354v0.951H6.822V0.817h0.531v0.857h0.891V0.817z"/>
			<path fill="#5D4037" d="M10.902,3.058c-0.026-0.078-0.055-0.158-0.084-0.24c-0.031-0.082-0.061-0.164-0.091-0.245H9.807
				c-0.03,0.082-0.061,0.164-0.09,0.246S9.659,2.981,9.633,3.058H9.082C9.17,2.817,9.255,2.594,9.334,2.389
				c0.08-0.205,0.158-0.397,0.234-0.579S9.72,1.457,9.793,1.294c0.074-0.163,0.151-0.322,0.23-0.477h0.504
				c0.078,0.155,0.154,0.314,0.229,0.477c0.076,0.163,0.151,0.334,0.229,0.516c0.076,0.181,0.154,0.374,0.233,0.579
				c0.08,0.205,0.164,0.428,0.253,0.669H10.902z M10.265,1.325c-0.013,0.032-0.029,0.077-0.052,0.133
				c-0.023,0.056-0.049,0.121-0.078,0.194c-0.029,0.074-0.063,0.154-0.098,0.243c-0.036,0.088-0.072,0.181-0.109,0.278h0.674
				c-0.036-0.097-0.071-0.19-0.105-0.279c-0.033-0.088-0.065-0.169-0.096-0.243c-0.031-0.074-0.057-0.138-0.08-0.194
				C10.297,1.401,10.279,1.357,10.265,1.325z"/>
		</g>
	</g>
</g>
</svg>
