<?xml version="1.0" encoding="utf-8"?>
<!-- Generator: Adobe Illustrator 16.0.0, SVG Export Plug-In . SVG Version: 6.00 Build 0)  -->
<!DOCTYPE svg PUBLIC "-//W3C//DTD SVG 1.1//EN" "http://www.w3.org/Graphics/SVG/1.1/DTD/svg11.dtd">
<svg version="1.1" id="图层_1" xmlns="http://www.w3.org/2000/svg" xmlns:xlink="http://www.w3.org/1999/xlink" x="0px" y="0px"
	 width="16px" height="16px" viewBox="0 0 16 16" enable-background="new 0 0 16 16" xml:space="preserve">
<polygon fill="#3E2723" points="1.881,16 1.881,0 14.119,0 14.119,11.496 9.544,16 "/>
<g>
	<g>
		
			<linearGradient id="SVGID_1_" gradientUnits="userSpaceOnUse" x1="49.5996" y1="-148.4004" x2="49.5996" y2="-163.4009" gradientTransform="matrix(1 0 0 -1 -41.6001 -147.9004)">
			<stop  offset="0" style="stop-color:#785548"/>
			<stop  offset="1" style="stop-color:#9F9E9F"/>
		</linearGradient>
		<polygon fill="url(#SVGID_1_)" points="2.38,15.5 2.38,0.5 13.619,0.5 13.619,11.275 9.441,15.5 		"/>
		<polygon fill="#795548" fill-opacity="0.7" points="13.619,11.281 13.619,11.1 9.17,11.1 9.17,15.5 9.4,15.5 		"/>
		<path opacity="0.39" fill="#FFFFFF" enable-background="new    " d="M9.395,11.281l4.225,0.006L9.4,15.5L9.395,11.281z"/>
	</g>
	<path fill="#FFFFFF" d="M6.396,3.392h-0.38v4.871H5.728V3.392H5.35v4.871H5.063V3.392H4.684v4.871H4.396V3.392H4.018v4.871H3.918
		v2.063h2.607V8.263h-0.13V3.392z M6.146,9.727h-1.85V8.53h1.85V9.727z"/>
	<g>
		<rect x="2.378" y="0.5" opacity="0.8" fill="#FFFFFF" enable-background="new    " width="11.243" height="2.875"/>
		<g enable-background="new    ">
			<path fill="#5D4037" d="M5.818,3.104c-0.384,0-0.676-0.102-0.877-0.305c-0.2-0.202-0.301-0.49-0.301-0.863
				c0-0.185,0.03-0.351,0.092-0.496s0.146-0.269,0.252-0.369s0.233-0.176,0.381-0.228s0.308-0.078,0.48-0.078
				c0.1,0,0.19,0.007,0.271,0.021c0.082,0.014,0.153,0.03,0.215,0.049c0.062,0.018,0.112,0.037,0.153,0.057
				c0.041,0.019,0.07,0.034,0.088,0.045L6.421,1.345C6.348,1.308,6.264,1.277,6.167,1.251S5.961,1.212,5.839,1.212
				c-0.082,0-0.162,0.013-0.24,0.039S5.451,1.318,5.391,1.375c-0.06,0.057-0.108,0.131-0.145,0.222s-0.054,0.201-0.054,0.33
				c0,0.104,0.012,0.2,0.035,0.29C5.252,2.305,5.29,2.382,5.344,2.447c0.053,0.064,0.123,0.115,0.209,0.153s0.19,0.057,0.313,0.057
				c0.077,0,0.146-0.005,0.207-0.013c0.062-0.009,0.116-0.02,0.163-0.031c0.048-0.012,0.09-0.025,0.126-0.04
				c0.037-0.015,0.069-0.029,0.099-0.042l0.146,0.404c-0.074,0.043-0.18,0.082-0.316,0.116C6.155,3.086,5.997,3.104,5.818,3.104z"/>
			<path fill="#5D4037" d="M8.626,3.059C8.599,2.98,8.571,2.9,8.541,2.818S8.48,2.654,8.451,2.573H7.529
				C7.5,2.654,7.47,2.736,7.44,2.818C7.41,2.9,7.383,2.98,7.356,3.059H6.806c0.088-0.242,0.173-0.465,0.252-0.67
				c0.08-0.205,0.158-0.397,0.234-0.579s0.151-0.353,0.225-0.516c0.074-0.163,0.151-0.322,0.23-0.477h0.504
				c0.077,0.155,0.153,0.314,0.229,0.477S8.63,1.629,8.707,1.81C8.783,1.991,8.861,2.184,8.94,2.389
				c0.08,0.205,0.164,0.428,0.254,0.67H8.626z M7.988,1.325C7.976,1.357,7.959,1.402,7.936,1.458
				C7.913,1.514,7.887,1.579,7.858,1.652C7.829,1.726,7.796,1.806,7.761,1.895C7.725,1.983,7.688,2.075,7.65,2.172h0.675
				C8.289,2.075,8.254,1.982,8.22,1.894C8.187,1.805,8.154,1.724,8.124,1.651c-0.031-0.074-0.058-0.138-0.08-0.194
				C8.021,1.401,8.002,1.357,7.988,1.325z"/>
			<path fill="#5D4037" d="M10.283,3.088c-0.13,0-0.259-0.004-0.386-0.012c-0.129-0.008-0.262-0.025-0.4-0.054V0.85
				c0.109-0.019,0.229-0.034,0.357-0.043s0.25-0.015,0.36-0.015c0.149,0,0.288,0.01,0.413,0.031
				c0.127,0.021,0.234,0.056,0.326,0.105c0.09,0.05,0.161,0.115,0.212,0.196c0.052,0.081,0.077,0.181,0.077,0.299
				c0,0.179-0.092,0.32-0.272,0.424c0.149,0.054,0.251,0.127,0.306,0.22s0.082,0.197,0.082,0.313c0,0.235-0.09,0.412-0.271,0.53
				S10.64,3.088,10.283,3.088z M10.015,1.697h0.258c0.164,0,0.281-0.02,0.352-0.06s0.105-0.104,0.105-0.192
				c0-0.091-0.037-0.154-0.109-0.191s-0.18-0.055-0.32-0.055c-0.045,0-0.094,0-0.146,0.001c-0.052,0.001-0.098,0.004-0.139,0.008
				V1.697z M10.015,2.082V2.66c0.038,0.004,0.08,0.008,0.125,0.01c0.046,0.002,0.096,0.004,0.15,0.004
				c0.158,0,0.287-0.021,0.385-0.064c0.098-0.044,0.146-0.124,0.146-0.24c0-0.104-0.041-0.177-0.123-0.222
				c-0.082-0.044-0.199-0.066-0.351-0.066H10.015z"/>
		</g>
	</g>
</g>
</svg>
