<?xml version="1.0" encoding="utf-8"?>
<!-- Generator: Adobe Illustrator 16.0.0, SVG Export Plug-In . SVG Version: 6.00 Build 0)  -->
<!DOCTYPE svg PUBLIC "-//W3C//DTD SVG 1.1//EN" "http://www.w3.org/Graphics/SVG/1.1/DTD/svg11.dtd">
<svg version="1.1" id="图层_1" xmlns="http://www.w3.org/2000/svg" xmlns:xlink="http://www.w3.org/1999/xlink" x="0px" y="0px"
	 width="16px" height="16px" viewBox="0 0 16 16" enable-background="new 0 0 16 16" xml:space="preserve">
<polygon fill="#01579B" points="1.881,16 1.881,0 14.119,0 14.119,11.495 9.545,16 "/>
<g>
	<g>
		<g>
			<g>
				
					<linearGradient id="SVGID_1_" gradientUnits="userSpaceOnUse" x1="91.2012" y1="-582.3003" x2="91.2012" y2="-567.3008" gradientTransform="matrix(1 0 0 -1 -83.2002 -566.8008)">
					<stop  offset="0" style="stop-color:#2196F3"/>
					<stop  offset="0.5828" style="stop-color:#3DBAE8"/>
					<stop  offset="1" style="stop-color:#4DD0E1"/>
				</linearGradient>
				<polygon fill="url(#SVGID_1_)" points="2.381,15.5 2.381,0.5 13.619,0.5 13.619,11.281 9.4,15.5 				"/>
			</g>
			<polygon fill="#01579B" fill-opacity="0.39" points="13.619,11.281 13.619,11.1 9.169,11.1 9.169,15.5 9.4,15.5 			"/>
			<path fill="#FFFFFF" fill-opacity="0.3922" d="M9.395,11.281l4.226,0.006L9.4,15.5L9.395,11.281z"/>
		</g>
		<g>
			<circle opacity="0.8" fill="#FFFFFF" enable-background="new    " cx="9.994" cy="6.531" r="0.794"/>
			<path opacity="0.8" fill="#FFFFFF" enable-background="new    " d="M4.094,4.875V10h7.813V4.875H4.094z M11.344,5.438v4l0,0
				L9.531,8.15L8.237,8.943L6.575,6.938l-1.919,2.5v-4H11.344z"/>
		</g>
	</g>
	<g>
		<rect x="2.378" y="0.5" opacity="0.8" fill="#FFFFFF" enable-background="new    " width="11.245" height="2.875"/>
		<g enable-background="new    ">
			<path fill="#0288D1" d="M5.28,0.801h0.53v2.241H5.28V0.801z"/>
			<path fill="#0288D1" d="M7.43,3.087c-0.384,0-0.676-0.102-0.877-0.304s-0.301-0.49-0.301-0.863c0-0.185,0.03-0.351,0.092-0.496
				c0.061-0.146,0.145-0.269,0.252-0.369c0.106-0.1,0.233-0.176,0.381-0.228s0.308-0.078,0.48-0.078c0.1,0,0.189,0.007,0.271,0.021
				C7.811,0.784,7.882,0.8,7.944,0.819c0.061,0.018,0.112,0.037,0.152,0.057C8.137,0.895,8.167,0.91,8.185,0.92L8.032,1.328
				C7.959,1.292,7.875,1.26,7.778,1.234C7.682,1.208,7.573,1.195,7.45,1.195c-0.081,0-0.161,0.013-0.239,0.039
				C7.131,1.26,7.063,1.302,7.002,1.358C6.942,1.416,6.894,1.49,6.858,1.58S6.803,1.781,6.803,1.91c0,0.104,0.012,0.2,0.036,0.29
				s0.063,0.167,0.116,0.231c0.053,0.064,0.123,0.116,0.209,0.153s0.19,0.057,0.313,0.057c0.078,0,0.146-0.004,0.208-0.013
				c0.062-0.008,0.116-0.019,0.163-0.03c0.048-0.012,0.09-0.025,0.126-0.041s0.069-0.029,0.099-0.042l0.146,0.404
				C8.145,2.962,8.04,3,7.903,3.035C7.766,3.069,7.609,3.087,7.43,3.087z"/>
			<path fill="#0288D1" d="M10.721,1.919c0,0.192-0.029,0.361-0.09,0.506s-0.143,0.267-0.246,0.365
				c-0.105,0.098-0.229,0.172-0.373,0.221c-0.145,0.05-0.299,0.075-0.465,0.075c-0.162,0-0.313-0.025-0.457-0.075
				C8.947,2.963,8.822,2.889,8.717,2.791c-0.107-0.098-0.191-0.22-0.251-0.365C8.403,2.28,8.373,2.111,8.373,1.919
				s0.032-0.36,0.096-0.506c0.063-0.146,0.149-0.268,0.256-0.367C8.832,0.947,8.957,0.873,9.1,0.824
				c0.141-0.05,0.291-0.075,0.447-0.075c0.16,0,0.313,0.025,0.455,0.075c0.145,0.049,0.268,0.124,0.375,0.223
				c0.107,0.1,0.191,0.222,0.252,0.367S10.721,1.728,10.721,1.919z M8.92,1.919c0,0.11,0.016,0.209,0.043,0.297
				c0.029,0.089,0.068,0.165,0.123,0.228c0.053,0.064,0.117,0.113,0.195,0.147c0.076,0.034,0.166,0.052,0.266,0.052
				c0.098,0,0.186-0.018,0.264-0.052c0.078-0.035,0.145-0.083,0.197-0.147c0.053-0.063,0.094-0.139,0.123-0.228
				c0.027-0.088,0.043-0.188,0.043-0.297s-0.016-0.209-0.043-0.299c-0.029-0.089-0.07-0.166-0.123-0.229S9.889,1.278,9.811,1.244
				C9.732,1.209,9.645,1.192,9.547,1.192c-0.1,0-0.189,0.018-0.266,0.054C9.203,1.281,9.139,1.331,9.086,1.394
				c-0.055,0.064-0.094,0.14-0.123,0.229C8.936,1.713,8.92,1.812,8.92,1.919z"/>
		</g>
	</g>
</g>
</svg>
