<?xml version="1.0" encoding="utf-8"?>
<!-- Generator: Adobe Illustrator 16.0.0, SVG Export Plug-In . SVG Version: 6.00 Build 0)  -->
<!DOCTYPE svg PUBLIC "-//W3C//DTD SVG 1.1//EN" "http://www.w3.org/Graphics/SVG/1.1/DTD/svg11.dtd">
<svg version="1.1" id="图层_1" xmlns="http://www.w3.org/2000/svg" xmlns:xlink="http://www.w3.org/1999/xlink" x="0px" y="0px"
	 width="16px" height="16px" viewBox="0 0 16 16" enable-background="new 0 0 16 16" xml:space="preserve">
<rect x="1.881" fill="#0D47A1" width="12.238" height="16"/>
<g>
	
		<linearGradient id="SVGID_1_" gradientUnits="userSpaceOnUse" x1="91.1992" y1="840.3008" x2="91.1992" y2="825.3008" gradientTransform="matrix(1 0 0 1 -83.2002 -824.8008)">
		<stop  offset="0" style="stop-color:#1976D2"/>
		<stop  offset="0.0226" style="stop-color:#1C79D3"/>
		<stop  offset="0.2859" style="stop-color:#3B93E2"/>
		<stop  offset="0.5416" style="stop-color:#52A6ED"/>
		<stop  offset="0.7843" style="stop-color:#5FB1F4"/>
		<stop  offset="1" style="stop-color:#64B5F6"/>
	</linearGradient>
	<rect x="2.381" y="0.5" fill="url(#SVGID_1_)" width="11.238" height="15"/>
	<g>
		<path fill="#64B5F6" d="M11.5,8.5c0,1.932-1.568,3.5-3.5,3.5c-1.932,0-3.5-1.568-3.5-3.5C4.5,6.568,6.068,5,8,5
			C9.932,5,11.5,6.568,11.5,8.5z"/>
		<path fill="#FFFFFF" fill-opacity="0.8" d="M5.704,5.863c0,0,0.072,0.039,0.1,0.1c0.022,0.061,0.101,0.061,0.101,0.061h0.112
			l0.164-0.05L6.14,6.063c0,0-0.856,0.397-0.684,0.633c0.174,0.236,0.112,0.297,0.112,0.37c0,0.073,0.051,0.011,0.051,0.011
			l0.05-0.134l0.073-0.101L5.816,6.73l0.022-0.062l0.101-0.173l0.124-0.073l0.112,0.073c0,0,0.05,0.021,0.039,0.061
			C6.202,6.596,6.19,6.668,6.19,6.668S6.213,6.72,6.252,6.72c0.04,0,0.101-0.04,0.101-0.04L6.404,6.77l0.04,0.163l0.1,0.1
			l0.051,0.112L6.543,7.246l0.051,0.039l0.112,0.124l0.021,0.061L6.543,7.458c0,0-0.022-0.051-0.061-0.051
			c-0.04,0-0.197-0.011-0.197-0.011l-0.09,0.023L6.146,7.48c0,0-0.062,0.101-0.101,0.101c-0.039,0-0.134-0.021-0.134-0.021
			s-0.073-0.023-0.113,0.05C5.759,7.683,5.86,7.721,5.86,7.721L5.687,7.772L5.636,7.794c0,0-0.124,0.05-0.124,0.09
			c0,0.039,0,0.039,0,0.039L5.475,8.024v0.061l-0.09,0.074l-0.09,0.061L5.256,8.293v0.123c0,0-0.012,0.062-0.012,0.101
			c0,0.04,0,0.135,0,0.135s-0.04,0.039-0.062-0.04C5.16,8.539,5.16,8.539,5.16,8.539l-0.04-0.09c0,0,0.04-0.011-0.011-0.05
			c-0.05-0.039-0.101-0.05-0.101-0.05S4.987,8.327,4.936,8.327c-0.05,0,0.062,0.01-0.05,0C4.774,8.315,4.774,8.315,4.774,8.315
			l-0.09,0.073v0.061c0,0-0.021,0.438,0.101,0.499h0.051l0.072-0.111L4.97,8.857v0.051L4.958,8.999v0.05l0.061,0.063l0.04,0.111
			C5.11,9.313,5.082,9.335,5.12,9.356c0.04,0.022,0.074,0.091,0.074,0.091l0.05,0.021c0,0,0.04,0.012,0.073,0.021
			c0.04,0.012,0.04,0.012,0.04,0.012l0.012,0.057L5.38,9.604l0.05,0.061c0,0-0.039,0,0.051,0c0.089,0,0.089,0,0.089,0
			s0,0.023,0.062,0.052c0.061,0.021,0.012,0.012,0.061,0.021C5.744,9.749,5.828,9.76,5.828,9.76
			c0.089-0.012,0.089-0.012,0.089-0.012l0.062,0.091c0,0,0.039,0,0.05,0.038c0.012,0.039-0.061,0,0.012,0.039
			c0.072,0.04,0,0.013,0.072,0.04C6.186,9.983,6.09,9.979,6.185,9.979c0.095,0,0.112,0,0.151,0.011
			c0.04,0.012,0.062,0.102,0.062,0.102c0.072,0.089,0.072,0.089,0.072,0.089l0.012,0.112c0,0-0.04,0.022,0.05,0.022
			c0.09,0,0.022,0,0.09,0c0.066,0-0.011-0.022,0.062,0c0.072,0.021,0.072,0.021,0.072,0.021s0.112,0.091,0.152,0.091
			c0.039,0,0.112-0.013,0.151,0c0.039,0.011,0.061,0.071,0.133,0.089c0.073,0.013,0.101,0,0.151,0.04
			c0.051,0.039,0.051,0.039,0.051,0.039l0.011,0.133l-0.04,0.073L7.267,10.84l-0.012,0.124l-0.051,0.124v0.061
			c0,0,0.063,0.052-0.05,0.063c-0.111,0.011-0.111,0.011-0.111,0.011l-0.051,0.05c0,0,0,0.013-0.022,0.051
			c-0.021,0.039-0.05,0.102-0.05,0.102l0.012,0.112v0.072l-0.039,0.061c0,0-0.034,0.018,0.061,0.079
			c0.1,0.062,0.179,0.062,0.203,0.1c0.021,0.04,0.084,0.073,0.084,0.073l-0.135-0.027l-0.084-0.028l-0.14-0.038l-0.269-0.141
			c0,0-0.403-0.33-0.527-0.599c0,0-0.105-0.157-0.285-0.224c0,0-0.443-0.404-0.482-0.505L5.3,10.292v-0.033l-0.017-0.018v-0.038
			l-0.011-0.028l0.006-0.124l0.005-0.084l0.005-0.045L5.284,9.889c0,0-0.022-0.021-0.022-0.027S5.244,9.805,5.244,9.805L5.239,9.788
			l0.067-0.057L5.288,9.681L5.3,9.653l0.039-0.028c0,0,0.023-0.033,0.023-0.039c0-0.011-0.04-0.039-0.04-0.039L5.306,9.553
			L5.288,9.604H5.267c0,0-0.023-0.012-0.023-0.018S5.223,9.559,5.223,9.559L5.194,9.547c0,0-0.022-0.006-0.028-0.017
			S5.132,9.502,5.132,9.496S5.111,9.457,5.111,9.457l-0.029-0.01c0,0-0.034-0.051-0.034-0.063c0-0.005-0.017-0.033-0.017-0.033
			s-0.04-0.045-0.04-0.051S4.975,9.256,4.975,9.256H4.948L4.886,9.232l-0.04-0.049L4.802,9.133c0,0-0.023-0.039-0.023-0.051
			S4.762,9.061,4.762,9.061H4.734H4.718l-0.04-0.034l-0.1-0.14L4.561,8.824L4.544,8.757L4.533,8.645V8.572L4.488,8.052
			C4.505,8.057,4.657,6.769,5.704,5.863z"/>
		<path fill="#FFFFFF" fill-opacity="0.8" d="M9.657,5.424l0.111,0.091l0.058,0.028l0.039,0.044l0.006,0.045
			c0,0,0.012,0.045,0.007,0.056C9.871,5.701,9.865,5.761,9.865,5.761s0.051,0.091,0.051,0.102S9.921,5.924,9.91,5.936
			C9.899,5.941,9.837,5.98,9.832,5.963C9.826,5.946,9.787,5.907,9.776,5.907C9.764,5.9,9.73,5.867,9.73,5.867l0.09-0.012L9.81,5.799
			c0,0-0.062-0.021-0.079-0.021C9.713,5.771,9.651,5.738,9.651,5.738L9.585,5.722c0,0-0.111-0.027-0.124-0.034
			C9.45,5.683,9.405,5.667,9.405,5.667H9.311c0,0-0.046,0.021-0.056,0.033C9.249,5.711,9.192,5.772,9.192,5.772
			S9.188,5.845,9.188,5.856s-0.017,0.04-0.017,0.072c0,0.034-0.007,0.08-0.007,0.091c0,0.012,0,0.028,0,0.028L9.153,6.097
			L9.114,6.12L9.063,6.16c0,0-0.044,0.033-0.044,0.044s0,0.057,0.017,0.09S9.047,6.36,9.069,6.377s0.033,0.04,0.051,0.046
			c0.018,0.005,0.005,0.01,0.033,0.01c0.022,0,0.045,0.007,0.056-0.005c0.013-0.005,0.04-0.005,0.052-0.022S9.249,6.4,9.272,6.389
			c0.021-0.005,0.021-0.021,0.039-0.005C9.333,6.4,9.35,6.423,9.356,6.433c0.005,0.012,0.021,0.04,0.04,0.057
			C9.416,6.5,9.433,6.544,9.433,6.544l0.035,0.034c0,0,0.006,0.005,0.027,0.005s0.057-0.005,0.057-0.005l0.012-0.022
			c0,0,0.021,0.006,0.027-0.005c0.006-0.012,0.006-0.028,0.006-0.028S9.585,6.489,9.574,6.479c-0.007-0.012-0.019-0.04-0.019-0.04
			l0.007-0.04l0.021-0.022l0.008-0.028V6.316L9.567,6.304L9.528,6.282c0,0-0.021,0.005-0.021-0.022C9.5,6.237,9.5,6.237,9.5,6.237
			L9.45,6.227L9.416,6.208l0.04-0.028C9.479,6.143,9.483,6.13,9.483,6.12c0-0.011-0.005-0.045-0.005-0.045S9.456,6.069,9.456,6.041
			C9.45,6.013,9.45,5.996,9.45,5.996l0.006-0.021c0,0,0.005-0.018,0.022-0.018c0.011,0,0.033,0.018,0.045,0.018
			c0.011,0,0.032,0.005,0.032,0.005s0.012,0.004,0.012,0.022c0,0.011-0.005,0.039-0.005,0.039l0.021-0.033v0.039L9.578,6.092v0.044
			l0.022,0.045l0.021,0.034c0,0,0.028,0.028,0.04,0.04c0.013,0.004,0.04,0.026,0.04,0.026l0.033,0.017l0.022,0.005l0.021-0.022
			c0,0,0.04,0.005,0.04-0.006c0.006-0.012,0.006-0.012,0.006-0.012S9.87,6.259,9.881,6.259c0.013,0,0.035,0,0.035,0
			s0.017,0.033,0.005,0.033S9.903,6.303,9.876,6.314c-0.028,0.005-0.04,0-0.045,0.011C9.825,6.337,9.81,6.366,9.81,6.366
			l0.021,0.006h0.017L9.87,6.394c0,0,0.006,0.005,0,0.021C9.864,6.433,9.892,6.427,9.864,6.433c-0.033,0.006-0.05-0.005-0.05-0.005
			S9.81,6.399,9.792,6.411C9.779,6.423,9.774,6.45,9.774,6.45v0.039l0.021,0.057c0,0,0.012,0.012,0,0.018
			c-0.01,0.004-0.049,0.049-0.049,0.049S9.741,6.629,9.725,6.629c-0.012,0-0.027,0-0.057,0.006C9.646,6.64,9.646,6.64,9.624,6.647
			C9.601,6.652,9.585,6.656,9.55,6.663C9.517,6.668,9.456,6.668,9.433,6.668c-0.021,0-0.027,0-0.038-0.005
			c-0.012-0.007-0.006,0-0.021-0.023C9.356,6.618,9.339,6.601,9.339,6.584c0-0.012,0-0.017-0.008-0.04
			C9.326,6.523,9.326,6.506,9.311,6.506c-0.022,0-0.022,0-0.022,0S9.244,6.54,9.249,6.551c0.006,0.011-0.005,0,0.033,0.027
			c0.039,0.028,0.051,0.067,0.051,0.067l-0.007,0.04L9.255,6.725L9.204,6.741L9.198,6.775c0,0,0,0.012-0.011,0.028
			c-0.012,0.016-0.04,0.039-0.04,0.039S9.125,6.847,9.12,6.864C9.114,6.876,9.097,6.92,9.097,6.92S9.075,6.915,9.053,6.932
			s0.006,0.017-0.045,0.04C8.957,6.993,8.957,6.993,8.957,6.993L8.901,6.988L8.868,6.999c0,0-0.045,0.005-0.051,0.017
			C8.812,7.027,8.789,7.061,8.789,7.061s-0.011,0.022,0,0.022c0.012,0.005,0.028,0,0.056,0.005c0.023,0.006,0.028,0.006,0.047,0.017
			c0.017,0.006,0.033,0.022,0.033,0.022l0.061,0.055L9.02,7.256L9.013,7.313L8.946,7.335c0,0-0.038,0-0.056,0
			c-0.013,0-0.007,0-0.073,0c-0.067,0-0.078,0-0.09,0S8.672,7.329,8.672,7.329l-0.04,0.006L8.604,7.357L8.588,7.363
			c0,0,0.022,0.05,0.022,0.067s0,0.039,0,0.039L8.604,7.503l-0.017,0.04L8.564,7.582l0.008,0.022c0,0-0.008,0.017,0.005,0.017
			c0.012,0,0.044-0.005,0.044,0.006c0,0.011-0.027,0.057-0.027,0.057L8.65,7.694c0,0-0.005-0.005,0.027,0.006
			c0.033,0.004,0.056,0.016,0.056,0.016l0.038,0.027l0.013,0.023l0.012-0.023c0,0,0.061-0.005,0.072-0.011
			c0.012-0.005,0.04-0.005,0.04-0.005h0.049c0,0,0.012,0.005,0.022-0.006c0.006-0.01,0.006-0.01,0.006-0.01s0.057-0.022,0.067-0.034
			c0.011-0.005,0.017-0.039,0.017-0.039s0.018-0.011,0.018-0.021c0-0.011-0.012-0.04-0.012-0.04V7.553l0.017-0.021
			c0,0,0.005-0.006,0.022-0.022c0.018-0.017,0.018-0.017,0.018-0.017S9.125,7.486,9.147,7.475c0.023-0.006,0.04-0.022,0.051-0.022
			s-0.011,0.012,0.011,0C9.231,7.44,9.237,7.431,9.237,7.413c0-0.011,0.007-0.073,0.007-0.073l0.021-0.033l0.057,0.005l0.027,0.006
			c0,0,0.034,0.005,0.04-0.006s0.022-0.021,0.022-0.021l0.045-0.023c0,0-0.006-0.005,0.018-0.005c0.021,0,0.056,0,0.071,0
			c0.013,0,0.04,0,0.04,0s0.022,0.01,0.033,0.021c0.006,0.012,0.022,0.04,0.022,0.04l0.017,0.023h0.019
			c0.021,0.016,0.032,0.028,0.071,0.038c0.039,0.012,0.067,0.022,0.067,0.022S9.825,7.43,9.836,7.44
			c0.012,0.012,0.022,0.023,0.039,0.034C9.887,7.48,9.897,7.492,9.903,7.502c0.005,0.011,0.023,0.034,0.023,0.034l0.021,0.023
			L9.96,7.536V7.497L9.954,7.476c0,0-0.021-0.017,0.006-0.017c0.022,0,0.04,0,0.04,0L9.978,7.424L9.949,7.413L9.91,7.385
			L9.894,7.368L9.876,7.363L9.859,7.351L9.836,7.335c0,0-0.039-0.006-0.039-0.022C9.792,7.301,9.792,7.301,9.792,7.301l-0.04-0.005
			c0,0-0.039-0.022-0.039-0.033c0-0.012-0.005-0.046-0.005-0.046L9.675,7.212c0,0,0.005-0.022,0.005-0.039
			c0-0.012,0.013-0.028,0.013-0.028L9.764,7.14l0.016,0.039l0.028,0.017l0.04,0.017l0.017,0.022L9.881,7.25
			c0,0,0.007,0.005,0.028,0.012c0.022,0.005,0.039,0.01,0.039,0.01s0.022,0.022,0.039,0.022c0.018,0.005,0.023,0.012,0.041,0.017
			c-0.013,0.012-0.013,0.012-0.013,0.012s0.006,0.012,0.022,0.022s0.033,0.033,0.033,0.045c0,0.011,0.012,0.05,0.022,0.056
			c0.012,0.005,0.017,0.005,0.038,0.028c0.022,0.021,0.022,0.044,0.04,0.056c0.022,0.006,0.039,0,0.039,0.021
			c0.006,0.023,0.006,0.04,0.006,0.04s0.018,0.006,0.028,0.006s0.033-0.022,0.033-0.022s0.022-0.034,0.006-0.041
			c-0.011-0.005-0.038-0.005-0.038-0.017c0-0.011,0-0.072,0-0.072l0.017-0.04l0.021-0.033l0.034,0.01l0.033-0.021l0.034,0.04
			l-0.011,0.044c0,0,0.005,0.027,0.021,0.05c0.013,0.022,0.039,0.051,0.039,0.051l0.058,0.051l0.078,0.021l0.018-0.005l0.117-0.023
			c0,0,0.018,0,0.027,0c0.012,0,0.067,0.095,0.067,0.095s0,0.04,0,0.061c0,0.022,0,0.079,0,0.079s-0.039,0.04-0.056,0.04
			c-0.018,0-0.062,0.021-0.062,0.021l-0.095,0.022l-0.062-0.005l-0.111-0.006c0,0-0.112-0.005-0.124-0.005s-0.051,0-0.062,0
			s-0.028,0.012-0.04,0.045c-0.011,0.033-0.033,0.044-0.033,0.044S10.156,8,10.134,8c-0.021,0-0.021,0.007-0.038-0.005
			C10.077,7.983,10,7.967,10,7.967l-0.073-0.05l-0.04-0.033L9.848,7.879H9.735L9.662,7.873l0.013-0.118l0.01,0.034L9.662,7.71
			L9.629,7.688L9.55,7.671L9.5,7.676L9.433,7.693L9.366,7.716l-0.04,0.012L9.138,7.76L9.069,7.789c0,0-0.028,0.017-0.039,0.022
			C9.02,7.816,8.975,7.816,8.975,7.816S8.94,7.811,8.924,7.806C8.908,7.8,8.868,7.8,8.851,7.8c-0.017,0-0.051-0.006-0.062,0
			C8.778,7.806,8.767,7.806,8.756,7.822C8.744,7.839,8.705,7.884,8.705,7.884S8.684,7.906,8.672,7.917
			c-0.006,0.01-0.033,0.044-0.033,0.044L8.593,8.035L8.564,8.069l0.008,0.04v0.028c0,0-0.018,0.017-0.028,0.022
			C8.531,8.164,8.509,8.176,8.509,8.176S8.492,8.181,8.476,8.197C8.46,8.208,8.46,8.215,8.448,8.225
			c-0.012,0.012-0.051,0.04-0.051,0.04S8.375,8.281,8.358,8.298c-0.01,0.017-0.034,0.039-0.04,0.051
			C8.313,8.36,8.296,8.371,8.285,8.376c-0.01,0.006-0.033,0.051-0.039,0.063C8.241,8.449,8.207,8.5,8.207,8.5L8.184,8.595
			L8.179,8.639c0,0,0.005,0.018,0.017,0.029c0.011,0.01,0.022,0.056,0.022,0.056v0.04c0,0-0.012,0.033-0.018,0.045
			c-0.004,0.01,0.006,0.066,0.006,0.066v0.033c0,0,0,0.012-0.017,0.027c-0.018,0.018-0.022,0.04-0.022,0.04l0.022,0.051l0.017,0.034
			v0.021l0.021,0.039c0,0,0.012,0.012,0.022,0.022c0.013,0.006,0.018,0.006,0.041,0.022c0.022,0.012,0.022,0.012,0.022,0.012
			s0.034,0.039,0.034,0.056c0,0.012,0.021,0.034,0.021,0.034l0.039,0.039c0,0,0.006,0.021,0.028,0.039
			c0.022,0.018,0.045,0.027,0.056,0.039c0.012,0.006,0.045,0.033,0.072,0.039C8.588,9.43,8.599,9.436,8.61,9.436
			c0.011,0-0.018-0.035,0.062,0.005C8.75,9.48,8.801,9.497,8.801,9.497L8.857,9.52c0,0,0.091,0.006,0.1-0.006
			c0.012-0.006,0.028-0.006,0.038-0.006c0.012,0,0.041,0,0.063,0c0.021,0,0.1-0.012,0.1-0.012l0.089-0.033
			c0,0,0.028-0.017,0.041-0.022c0.011-0.005,0.043-0.027,0.056-0.032C9.356,9.4,9.411,9.4,9.411,9.4s0-0.017,0.021,0
			c0.023,0.018,0.023,0.023,0.028,0.035c0.007,0.012,0.007,0.039,0.022,0.039C9.5,9.48,9.54,9.492,9.54,9.492s0.057-0.007,0.072,0
			c0.017,0.005,0.057,0.005,0.057,0.005L9.686,9.52l0.007,0.05v0.046c0,0-0.007,0.018,0,0.033c0.005,0.018,0.021,0.045,0.021,0.045
			S9.692,9.727,9.68,9.731c-0.012,0.006-0.039,0.04-0.039,0.04l0.078,0.072l0.045,0.045l0.033,0.04c0,0,0.007,0.017,0.007,0.027
			s-0.007,0.039,0,0.056c0.006,0.013,0.006,0.057,0.006,0.057s0.005,0.033,0.005,0.045c0,0.013-0.011,0.066-0.011,0.066l-0.007,0.04
			l-0.022,0.067L9.747,10.32l-0.039,0.039L9.68,10.404l-0.005,0.061l-0.023,0.039c0,0,0.006,0.035,0.006,0.052
			s0.035,0.077,0.035,0.077l-0.008,0.051c0,0-0.021,0.074-0.021,0.091c0,0.018-0.018,0.039-0.018,0.057
			c0,0.011-0.006,0.062-0.006,0.062l0.006,0.061l0.021,0.062L9.646,11.07c0,0-0.012,0.045-0.012,0.073c0,0.021,0.04,0.05,0.05,0.05
			c0.013,0,0.063-0.006,0.084-0.021c0.023-0.012,0.079-0.028,0.091-0.035c0.011-0.005,0.021,0.007,0.057-0.021
			C9.948,11.094,10,11.053,10,11.053s0.038-0.027,0.056-0.038c0.011-0.012,0.066-0.073,0.066-0.073s0.039-0.039,0.067-0.057
			c0.027-0.017,0-0.005,0.027-0.021c0.028-0.018,0.117-0.091,0.117-0.091l0.091-0.09c0,0,0.078-0.101,0.09-0.117
			c0.012-0.019,0.084-0.111,0.096-0.119c0.01-0.005,0.111-0.071,0.134-0.089c0.021-0.018,0.051-0.135,0.061-0.152
			c0.011-0.011,0.073-0.15,0.073-0.15l0.057-0.162l0.095-0.242l0.095-0.169c0,0,0.038-0.072,0.056-0.094
			c0.012-0.022,0.102-0.196,0.102-0.196l0.034-0.145l0.011-0.123h-0.056L11.208,8.98l-0.057-0.017l-0.055,0.007l0.062-0.079
			L11.141,8.83l-0.05-0.039L11.023,8.69V8.59l-0.072-0.118l-0.045-0.185c0,0-0.084-0.091-0.072-0.112
			c0.005-0.023,0.027-0.091,0.027-0.091l0.045,0.022c0,0,0.033,0.089,0.05,0.095c0.019,0.005,0.04,0.05,0.047,0.061
			c0.005,0.012,0.011,0.051,0.021,0.062c0.007,0.011,0.045,0.084,0.045,0.084s0.028,0.073,0.034,0.09
			c0.005,0.012,0.033,0.056,0.039,0.089c0.007,0.035,0.022,0.141,0.022,0.152s0.027,0.129,0.027,0.129s0.039-0.012,0.044-0.021
			c0.007-0.012,0.007-0.018,0.019-0.027c0.006-0.012,0.072-0.063,0.072-0.063l0.028-0.09c0,0,0.018-0.039,0.021-0.057
			c0.007-0.017,0.04-0.078,0.04-0.09c0-0.011-0.006-0.056,0-0.073c0.005-0.011,0.021-0.078,0.021-0.089
			c0-0.012,0.006-0.057,0.006-0.057l-0.006-0.1l0.045-0.056l0.022-0.062C11.494,8.063,11.332,6.304,9.657,5.424z"/>
	</g>
	<g>
		<rect x="2.378" y="0.5" opacity="0.8" fill="#FFFFFF" enable-background="new    " width="11.244" height="2.875"/>
		<g enable-background="new    ">
			<path fill="#1976D2" d="M6.971,1.919c0,0.192-0.03,0.361-0.09,0.506C6.82,2.571,6.738,2.693,6.634,2.791S6.405,2.963,6.261,3.012
				C6.117,3.063,5.962,3.087,5.797,3.087c-0.161,0-0.313-0.024-0.456-0.075C5.197,2.963,5.073,2.889,4.966,2.791
				c-0.106-0.098-0.19-0.22-0.251-0.365C4.653,2.28,4.622,2.111,4.622,1.919s0.032-0.36,0.096-0.506s0.149-0.268,0.257-0.367
				C5.083,0.947,5.207,0.873,5.35,0.824c0.142-0.05,0.29-0.075,0.447-0.075c0.161,0,0.313,0.025,0.456,0.075
				c0.143,0.049,0.268,0.124,0.374,0.223c0.106,0.1,0.19,0.222,0.252,0.367S6.971,1.728,6.971,1.919z M5.171,1.919
				c0,0.11,0.014,0.209,0.042,0.297c0.028,0.089,0.069,0.165,0.123,0.228c0.053,0.064,0.118,0.113,0.195,0.147
				c0.077,0.035,0.166,0.053,0.266,0.053c0.098,0,0.186-0.018,0.264-0.053c0.078-0.034,0.144-0.083,0.197-0.147
				C6.312,2.381,6.352,2.306,6.38,2.217c0.028-0.088,0.043-0.188,0.043-0.297S6.408,1.71,6.38,1.621S6.312,1.455,6.258,1.391
				S6.139,1.278,6.061,1.244C5.982,1.209,5.895,1.192,5.797,1.192c-0.1,0-0.188,0.018-0.266,0.054S5.389,1.331,5.336,1.394
				c-0.054,0.064-0.095,0.14-0.123,0.229C5.185,1.713,5.171,1.812,5.171,1.919z"/>
			<path fill="#1976D2" d="M9.085,0.801v0.43H8.373v1.81H7.842v-1.81H7.131v-0.43H9.085z"/>
			<path fill="#1976D2" d="M10.847,0.801h0.531v2.24h-0.531v-0.95H9.956v0.95H9.425v-2.24h0.531v0.857h0.891V0.801z"/>
		</g>
	</g>
</g>
</svg>
