<?xml version="1.0" encoding="utf-8"?>
<!-- Generator: Adobe Illustrator 16.0.0, SVG Export Plug-In . SVG Version: 6.00 Build 0)  -->
<!DOCTYPE svg PUBLIC "-//W3C//DTD SVG 1.1//EN" "http://www.w3.org/Graphics/SVG/1.1/DTD/svg11.dtd">
<svg version="1.1" id="图层_1" xmlns="http://www.w3.org/2000/svg" xmlns:xlink="http://www.w3.org/1999/xlink" x="0px" y="0px"
	 width="16px" height="16px" viewBox="0 0 16 16" enable-background="new 0 0 16 16" xml:space="preserve">
<polygon fill="#01579B" points="1.881,16 1.881,0 14.119,0 14.119,11.495 9.545,16 "/>
<g>
	<g>
		<g>
			<g>
				
					<linearGradient id="SVGID_1_" gradientUnits="userSpaceOnUse" x1="91.2012" y1="-582.3003" x2="91.2012" y2="-567.3008" gradientTransform="matrix(1 0 0 -1 -83.2002 -566.8008)">
					<stop  offset="0" style="stop-color:#2196F3"/>
					<stop  offset="0.5828" style="stop-color:#3DBAE8"/>
					<stop  offset="1" style="stop-color:#4DD0E1"/>
				</linearGradient>
				<polygon fill="url(#SVGID_1_)" points="2.381,15.5 2.381,0.5 13.619,0.5 13.619,11.281 9.4,15.5 				"/>
			</g>
			<polygon fill="#01579B" fill-opacity="0.39" points="13.619,11.281 13.619,11.1 9.169,11.1 9.169,15.5 9.4,15.5 			"/>
			<path fill="#FFFFFF" fill-opacity="0.3922" d="M9.395,11.281l4.226,0.006L9.4,15.5L9.395,11.281z"/>
		</g>
		<g>
			<circle opacity="0.8" fill="#FFFFFF" enable-background="new    " cx="9.994" cy="6.531" r="0.794"/>
			<path opacity="0.8" fill="#FFFFFF" enable-background="new    " d="M4.094,4.875V10h7.813V4.875H4.094z M11.344,5.438v4l0,0
				L9.531,8.15L8.237,8.943L6.575,6.938l-1.919,2.5v-4H11.344z"/>
		</g>
	</g>
</g>
<g>
	<rect x="2.378" y="0.5" opacity="0.8" fill="#FFFFFF" enable-background="new    " width="11.245" height="2.875"/>
	<g enable-background="new    ">
		<path fill="#0288D1" d="M5.64,0.775c0.352,0,0.622,0.059,0.81,0.176c0.188,0.118,0.283,0.31,0.283,0.577
			c0,0.27-0.095,0.464-0.286,0.583c-0.19,0.12-0.463,0.18-0.817,0.18H5.463v0.75H4.933V0.833C5.048,0.812,5.17,0.796,5.3,0.788
			C5.429,0.779,5.542,0.775,5.64,0.775z M5.674,1.205c-0.039,0-0.077,0.001-0.114,0.003C5.523,1.21,5.491,1.212,5.463,1.215v0.646
			H5.63c0.184,0,0.322-0.023,0.416-0.071c0.093-0.047,0.14-0.136,0.14-0.265c0-0.063-0.012-0.114-0.036-0.155
			C6.125,1.329,6.091,1.296,6.047,1.271C6.003,1.247,5.949,1.229,5.885,1.22S5.751,1.205,5.674,1.205z"/>
		<path fill="#0288D1" d="M7.768,2.657c0.074,0,0.137-0.006,0.186-0.018C8.002,2.627,8.042,2.611,8.071,2.59S8.12,2.546,8.131,2.518
			C8.143,2.49,8.149,2.458,8.149,2.424c0-0.073-0.037-0.134-0.109-0.183S7.842,2.141,7.666,2.084
			C7.588,2.059,7.511,2.029,7.434,1.996S7.288,1.92,7.227,1.87c-0.062-0.051-0.111-0.112-0.15-0.185s-0.058-0.16-0.058-0.263
			c0-0.104,0.02-0.197,0.061-0.28S7.179,0.988,7.253,0.93c0.075-0.058,0.166-0.103,0.272-0.134s0.227-0.047,0.361-0.047
			c0.158,0,0.295,0.016,0.411,0.049C8.415,0.83,8.51,0.866,8.584,0.904L8.431,1.302c-0.065-0.033-0.14-0.061-0.22-0.086
			S8.034,1.179,7.92,1.179c-0.127,0-0.219,0.017-0.273,0.05C7.591,1.263,7.563,1.314,7.563,1.383c0,0.041,0.011,0.076,0.031,0.104
			C7.614,1.514,7.643,1.54,7.68,1.563c0.038,0.022,0.081,0.043,0.13,0.061C7.859,1.642,7.913,1.661,7.971,1.68
			c0.123,0.043,0.229,0.086,0.32,0.128s0.166,0.091,0.226,0.147c0.061,0.056,0.105,0.122,0.135,0.197
			c0.029,0.076,0.045,0.167,0.045,0.275c0,0.209-0.078,0.371-0.232,0.486C8.311,3.029,8.079,3.087,7.768,3.087
			c-0.105,0-0.199-0.006-0.283-0.018S7.327,3.042,7.262,3.025C7.197,3.008,7.142,2.99,7.095,2.97
			C7.049,2.951,7.01,2.933,6.978,2.916l0.15-0.401c0.07,0.037,0.157,0.069,0.26,0.099C7.491,2.642,7.618,2.657,7.768,2.657z"/>
		<path fill="#0288D1" d="M11.17,1.919c0,0.194-0.031,0.363-0.096,0.508c-0.063,0.145-0.152,0.264-0.27,0.359S10.545,2.952,10.377,3
			s-0.355,0.071-0.564,0.071c-0.096,0-0.207-0.004-0.334-0.012C9.352,3.052,9.227,3.036,9.105,3.012V0.83
			c0.121-0.021,0.25-0.036,0.383-0.044C9.621,0.779,9.734,0.775,9.83,0.775c0.201,0,0.385,0.021,0.549,0.065
			c0.164,0.043,0.307,0.111,0.424,0.204s0.209,0.211,0.271,0.355C11.139,1.543,11.17,1.717,11.17,1.919z M9.635,2.631
			C9.66,2.633,9.689,2.635,9.723,2.636S9.795,2.637,9.84,2.637c0.266,0,0.463-0.063,0.59-0.19c0.129-0.127,0.193-0.303,0.193-0.527
			c0-0.235-0.063-0.413-0.184-0.533c-0.123-0.121-0.316-0.181-0.582-0.181c-0.037,0-0.074,0-0.113,0.001
			C9.705,1.208,9.67,1.21,9.635,1.215V2.631z"/>
	</g>
</g>
</svg>
