<?xml version="1.0" encoding="utf-8"?>
<!-- Generator: Adobe Illustrator 16.0.0, SVG Export Plug-In . SVG Version: 6.00 Build 0)  -->
<!DOCTYPE svg PUBLIC "-//W3C//DTD SVG 1.1//EN" "http://www.w3.org/Graphics/SVG/1.1/DTD/svg11.dtd">
<svg version="1.1" id="图层_1" xmlns="http://www.w3.org/2000/svg" xmlns:xlink="http://www.w3.org/1999/xlink" x="0px" y="0px"
	 width="16px" height="16px" viewBox="0 0 16 16" enable-background="new 0 0 16 16" xml:space="preserve">
<polygon fill="#3E2723" points="1.881,16 1.881,0 14.119,0 14.119,11.496 9.544,16 "/>
<g>
	<g>
		
			<linearGradient id="SVGID_1_" gradientUnits="userSpaceOnUse" x1="49.5996" y1="-148.4004" x2="49.5996" y2="-163.4009" gradientTransform="matrix(1 0 0 -1 -41.6001 -147.9004)">
			<stop  offset="0" style="stop-color:#785548"/>
			<stop  offset="1" style="stop-color:#9F9E9F"/>
		</linearGradient>
		<polygon fill="url(#SVGID_1_)" points="2.38,15.5 2.38,0.5 13.619,0.5 13.619,11.275 9.441,15.5 		"/>
		<polygon fill="#795548" fill-opacity="0.7" points="13.619,11.281 13.619,11.1 9.17,11.1 9.17,15.5 9.4,15.5 		"/>
		<path opacity="0.39" fill="#FFFFFF" enable-background="new    " d="M9.395,11.281l4.225,0.006L9.4,15.5L9.395,11.281z"/>
	</g>
	<path fill="#FFFFFF" d="M6.396,3.392h-0.38v4.871H5.728V3.392H5.35v4.871H5.063V3.392H4.684v4.871H4.396V3.392H4.018v4.871H3.918
		v2.063h2.607V8.263h-0.13V3.392z M6.146,9.727h-1.85V8.53h1.85V9.727z"/>
	<g>
		<rect x="2.378" y="0.5" opacity="0.8" fill="#FFFFFF" enable-background="new    " width="11.243" height="2.875"/>
		<g enable-background="new    ">
			<path fill="#5D4037" d="M5.53,1.206c-0.247,0-0.426,0.065-0.536,0.195C4.884,1.532,4.829,1.71,4.829,1.936
				c0,0.11,0.014,0.21,0.041,0.299s0.068,0.167,0.122,0.231c0.055,0.065,0.123,0.115,0.204,0.15C5.278,2.652,5.374,2.67,5.482,2.67
				c0.06,0,0.109-0.001,0.151-0.003c0.042-0.002,0.079-0.006,0.111-0.013V1.875h0.53v1.109C6.212,3.007,6.11,3.033,5.97,3.06
				C5.828,3.086,5.655,3.1,5.448,3.1c-0.177,0-0.337-0.026-0.481-0.078C4.823,2.971,4.7,2.896,4.598,2.796
				C4.496,2.697,4.417,2.575,4.361,2.431C4.306,2.287,4.277,2.122,4.277,1.936c0-0.188,0.031-0.354,0.093-0.498
				c0.061-0.145,0.145-0.267,0.251-0.367c0.107-0.1,0.232-0.176,0.377-0.228c0.144-0.052,0.297-0.078,0.461-0.078
				c0.111,0,0.211,0.007,0.301,0.021c0.09,0.014,0.167,0.03,0.231,0.049c0.064,0.018,0.118,0.037,0.16,0.057
				c0.042,0.019,0.072,0.034,0.09,0.045L6.088,1.341c-0.072-0.037-0.155-0.068-0.25-0.095C5.744,1.219,5.642,1.206,5.53,1.206z"/>
			<path fill="#5D4037" d="M8.434,1.167C8.36,1.238,8.274,1.33,8.175,1.443c-0.1,0.113-0.203,0.236-0.311,0.37
				C7.759,1.947,7.653,2.085,7.548,2.227C7.444,2.37,7.351,2.505,7.269,2.635h1.203v0.423H6.616V2.757
				c0.063-0.11,0.141-0.232,0.232-0.367C6.941,2.256,7.037,2.12,7.137,1.983c0.101-0.137,0.202-0.269,0.305-0.397
				c0.104-0.128,0.199-0.243,0.288-0.344H6.671V0.817h1.763V1.167z"/>
			<path fill="#5D4037" d="M8.845,0.817h0.531v2.241H8.845V0.817z"/>
			<path fill="#5D4037" d="M10.628,0.792c0.353,0,0.622,0.059,0.811,0.176c0.188,0.118,0.283,0.31,0.283,0.577
				c0,0.27-0.096,0.464-0.287,0.583c-0.189,0.12-0.463,0.18-0.816,0.18h-0.166v0.75H9.921V0.85c0.115-0.021,0.238-0.037,0.367-0.045
				C10.417,0.796,10.53,0.792,10.628,0.792z M10.663,1.222c-0.039,0-0.077,0.001-0.114,0.003c-0.038,0.002-0.069,0.004-0.097,0.006
				v0.646h0.166c0.184,0,0.322-0.023,0.416-0.071c0.092-0.047,0.139-0.136,0.139-0.265c0-0.063-0.012-0.114-0.035-0.155
				s-0.059-0.074-0.103-0.099c-0.044-0.025-0.099-0.042-0.161-0.052C10.81,1.227,10.739,1.222,10.663,1.222z"/>
		</g>
	</g>
</g>
</svg>
