<?xml version="1.0" encoding="utf-8"?>
<!-- Generator: Adobe Illustrator 16.0.0, SVG Export Plug-In . SVG Version: 6.00 Build 0)  -->
<!DOCTYPE svg PUBLIC "-//W3C//DTD SVG 1.1//EN" "http://www.w3.org/Graphics/SVG/1.1/DTD/svg11.dtd">
<svg version="1.1" id="图层_1" xmlns="http://www.w3.org/2000/svg" xmlns:xlink="http://www.w3.org/1999/xlink" x="0px" y="0px"
	 width="16px" height="16px" viewBox="0 0 16 16" enable-background="new 0 0 16 16" xml:space="preserve">
<polygon display="none" fill="#3D2723" points="-90.9,137 -90.9,-107 92.9,-107 92.9,68.3 24.2,137 "/>
<g>
	<g>
		<linearGradient id="SVGID_1_" gradientUnits="userSpaceOnUse" x1="7.9995" y1="0.25" x2="7.9995" y2="15.7505">
			<stop  offset="0" style="stop-color:#785548"/>
			<stop  offset="1" style="stop-color:#9F9E9F"/>
		</linearGradient>
		<polygon fill="url(#SVGID_1_)" points="2.131,15.75 2.131,0.25 13.868,0.25 13.868,11.385 9.504,15.75 		"/>
		<path fill="#40220F" d="M13.618,0.5v10.781L9.4,15.5H2.381v-15H13.618 M14.118,0h-0.5H2.381h-0.5v0.5v15V16h0.5H9.4h0.207
			l0.146-0.146l4.218-4.219l0.146-0.146v-0.207V0.5V0L14.118,0z"/>
	</g>
</g>
<polygon fill="#5D4037" fill-opacity="0.3922" points="13.618,11.281 13.618,11.1 9.169,11.1 9.169,15.5 9.4,15.5 "/>
<path fill="#FFFFFF" fill-opacity="0.3922" d="M9.394,11.281l4.225,0.007L9.4,15.5L9.394,11.281z"/>
<g opacity="0.8">
	<path fill="#FFFFFF" d="M6.302,7.315V0.5H5.906v6.815H5.605V0.5H5.21v6.815h-0.3V0.5H4.514v6.815h-0.3V0.5H3.818v6.815H3.714v2.156
		h2.724V7.315H6.302z M6.042,8.844H4.109V7.595h1.933V8.844L6.042,8.844z"/>
	<rect x="4.478" y="7.734" fill="#FFFFFF" width="1.197" height="0.757"/>
</g>
</svg>
