<?xml version="1.0" encoding="utf-8"?>
<!-- Generator: Adobe Illustrator 16.0.0, SVG Export Plug-In . SVG Version: 6.00 Build 0)  -->
<!DOCTYPE svg PUBLIC "-//W3C//DTD SVG 1.1//EN" "http://www.w3.org/Graphics/SVG/1.1/DTD/svg11.dtd">
<svg version="1.1" id="图层_1" xmlns="http://www.w3.org/2000/svg" xmlns:xlink="http://www.w3.org/1999/xlink" x="0px" y="0px"
	 width="16px" height="16px" viewBox="0 0 16 16" enable-background="new 0 0 16 16" xml:space="preserve">
<polygon fill="#0D47A1" points="1.881,16 1.881,0 14.119,0 14.119,11.496 9.544,16 "/>
<g>
	<g>
		<g>
			<g>
				<linearGradient id="SVGID_1_" gradientUnits="userSpaceOnUse" x1="8.0005" y1="15.5" x2="8.0005" y2="0.5005">
					<stop  offset="0" style="stop-color:#3F51B5"/>
					<stop  offset="1" style="stop-color:#64B5F6"/>
				</linearGradient>
				<polygon fill="url(#SVGID_1_)" points="2.381,15.5 2.381,0.5 13.619,0.5 13.619,11.281 9.4,15.5 				"/>
			</g>
			<polygon fill="#2196F3" fill-opacity="0.7" points="13.619,11.281 13.619,11.1 9.169,11.1 9.169,15.5 9.4,15.5 			"/>
			<path opacity="0.39" fill="#FFFFFF" d="M9.395,11.281l4.226,0.006L9.4,15.5L9.395,11.281z"/>
		</g>
		<g opacity="0.8">
			<linearGradient id="SVGID_2_" gradientUnits="userSpaceOnUse" x1="4.0469" y1="5.6167" x2="11.9473" y2="5.6167">
				<stop  offset="0" style="stop-color:#F6F5F5"/>
				<stop  offset="0.341" style="stop-color:#F1F2F3"/>
				<stop  offset="0.6434" style="stop-color:#E7EAEB"/>
				<stop  offset="0.9302" style="stop-color:#D5DBDF"/>
				<stop  offset="1" style="stop-color:#CFD7DB"/>
			</linearGradient>
			<rect x="4.047" y="5.421" opacity="0.8" fill="url(#SVGID_2_)" enable-background="new    " width="7.9" height="0.391"/>
			<linearGradient id="SVGID_3_" gradientUnits="userSpaceOnUse" x1="4.0469" y1="4.396" x2="11.9473" y2="4.396">
				<stop  offset="0" style="stop-color:#F6F5F5"/>
				<stop  offset="0.341" style="stop-color:#F1F2F3"/>
				<stop  offset="0.6434" style="stop-color:#E7EAEB"/>
				<stop  offset="0.9302" style="stop-color:#D5DBDF"/>
				<stop  offset="1" style="stop-color:#CFD7DB"/>
			</linearGradient>
			<rect x="4.047" y="4.2" opacity="0.8" fill="url(#SVGID_3_)" enable-background="new    " width="7.9" height="0.392"/>
			<linearGradient id="SVGID_4_" gradientUnits="userSpaceOnUse" x1="7.8159" y1="8.6328" x2="11.9414" y2="8.6328">
				<stop  offset="0" style="stop-color:#F6F5F5"/>
				<stop  offset="0.341" style="stop-color:#F1F2F3"/>
				<stop  offset="0.6434" style="stop-color:#E7EAEB"/>
				<stop  offset="0.9302" style="stop-color:#D5DBDF"/>
				<stop  offset="1" style="stop-color:#CFD7DB"/>
			</linearGradient>
			<rect x="7.816" y="6.571" opacity="0.8" fill="url(#SVGID_4_)" enable-background="new    " width="4.125" height="4.124"/>
			<g opacity="0.8">
				<linearGradient id="SVGID_5_" gradientUnits="userSpaceOnUse" x1="4.0469" y1="6.8374" x2="7.4785" y2="6.8374">
					<stop  offset="0" style="stop-color:#F6F5F5"/>
					<stop  offset="0.341" style="stop-color:#F1F2F3"/>
					<stop  offset="0.6434" style="stop-color:#E7EAEB"/>
					<stop  offset="0.9302" style="stop-color:#D5DBDF"/>
					<stop  offset="1" style="stop-color:#CFD7DB"/>
				</linearGradient>
				<rect x="4.047" y="6.642" fill="url(#SVGID_5_)" width="3.432" height="0.392"/>
				<linearGradient id="SVGID_6_" gradientUnits="userSpaceOnUse" x1="4.0469" y1="8.0586" x2="7.4785" y2="8.0586">
					<stop  offset="0" style="stop-color:#F6F5F5"/>
					<stop  offset="0.341" style="stop-color:#F1F2F3"/>
					<stop  offset="0.6434" style="stop-color:#E7EAEB"/>
					<stop  offset="0.9302" style="stop-color:#D5DBDF"/>
					<stop  offset="1" style="stop-color:#CFD7DB"/>
				</linearGradient>
				<rect x="4.047" y="7.864" fill="url(#SVGID_6_)" width="3.432" height="0.39"/>
				<linearGradient id="SVGID_7_" gradientUnits="userSpaceOnUse" x1="4.0469" y1="9.2842" x2="7.4785" y2="9.2842">
					<stop  offset="0" style="stop-color:#F6F5F5"/>
					<stop  offset="0.341" style="stop-color:#F1F2F3"/>
					<stop  offset="0.6434" style="stop-color:#E7EAEB"/>
					<stop  offset="0.9302" style="stop-color:#D5DBDF"/>
					<stop  offset="1" style="stop-color:#CFD7DB"/>
				</linearGradient>
				<rect x="4.047" y="9.089" fill="url(#SVGID_7_)" width="3.432" height="0.391"/>
				<linearGradient id="SVGID_8_" gradientUnits="userSpaceOnUse" x1="4.0469" y1="10.5049" x2="7.4785" y2="10.5049">
					<stop  offset="0" style="stop-color:#F6F5F5"/>
					<stop  offset="0.341" style="stop-color:#F1F2F3"/>
					<stop  offset="0.6434" style="stop-color:#E7EAEB"/>
					<stop  offset="0.9302" style="stop-color:#D5DBDF"/>
					<stop  offset="1" style="stop-color:#CFD7DB"/>
				</linearGradient>
				<rect x="4.047" y="10.31" fill="url(#SVGID_8_)" width="3.432" height="0.391"/>
			</g>
		</g>
	</g>
	<g>
		<rect x="2.37" y="0.5" opacity="0.8" fill="#FFFFFF" width="11.244" height="2.875"/>
		<g>
			<path fill="#1976D2" d="M7.095,1.936c0,0.192-0.03,0.361-0.09,0.506S6.862,2.709,6.758,2.807
				C6.654,2.905,6.529,2.979,6.385,3.028c-0.144,0.05-0.299,0.075-0.464,0.075c-0.161,0-0.313-0.025-0.456-0.075
				C5.322,2.979,5.197,2.905,5.09,2.807C4.984,2.709,4.9,2.587,4.839,2.442C4.777,2.296,4.747,2.127,4.747,1.936
				s0.032-0.36,0.096-0.506s0.149-0.268,0.257-0.367C5.207,0.964,5.332,0.889,5.474,0.84c0.142-0.05,0.291-0.075,0.447-0.075
				c0.161,0,0.313,0.025,0.456,0.075C6.52,0.889,6.645,0.964,6.751,1.063c0.106,0.1,0.19,0.222,0.251,0.367
				C7.064,1.575,7.095,1.744,7.095,1.936z M5.295,1.936c0,0.11,0.014,0.209,0.042,0.298S5.406,2.397,5.46,2.461
				c0.053,0.064,0.118,0.113,0.195,0.147C5.732,2.643,5.821,2.66,5.921,2.66c0.098,0,0.186-0.018,0.264-0.052
				c0.079-0.035,0.144-0.083,0.197-0.147c0.054-0.063,0.094-0.139,0.123-0.228s0.042-0.188,0.042-0.298S6.533,1.726,6.504,1.637
				S6.436,1.471,6.382,1.407C6.329,1.344,6.263,1.294,6.185,1.26C6.106,1.226,6.019,1.208,5.921,1.208
				c-0.1,0-0.188,0.018-0.266,0.054S5.513,1.347,5.46,1.41C5.406,1.474,5.366,1.55,5.337,1.64C5.309,1.729,5.295,1.828,5.295,1.936z
				"/>
			<path fill="#1976D2" d="M9.535,1.936c0,0.194-0.031,0.363-0.095,0.508C9.376,2.588,9.286,2.708,9.17,2.802
				C9.053,2.897,8.91,2.968,8.742,3.016S8.386,3.087,8.177,3.087c-0.095,0-0.207-0.004-0.333-0.012
				C7.717,3.068,7.592,3.052,7.47,3.028V0.846C7.592,0.825,7.72,0.81,7.853,0.802c0.133-0.007,0.247-0.011,0.342-0.011
				c0.202,0,0.386,0.021,0.55,0.065C8.908,0.899,9.05,0.967,9.168,1.06S9.376,1.271,9.44,1.415C9.504,1.56,9.535,1.733,9.535,1.936z
				 M8,2.647c0.025,0.002,0.054,0.004,0.087,0.005C8.12,2.653,8.159,2.653,8.205,2.653c0.266,0,0.462-0.063,0.59-0.19
				C8.924,2.335,8.987,2.16,8.987,1.936c0-0.235-0.062-0.413-0.184-0.533S8.487,1.221,8.222,1.221c-0.036,0-0.074,0-0.112,0.001
				C8.071,1.224,8.035,1.227,8,1.231V2.647z"/>
			<path fill="#1976D2" d="M11.58,0.817v0.43h-0.711v1.811h-0.531V1.247H9.627v-0.43H11.58z"/>
		</g>
	</g>
</g>
</svg>
