<?xml version="1.0" encoding="utf-8"?>
<!-- Generator: Adobe Illustrator 16.0.0, SVG Export Plug-In . SVG Version: 6.00 Build 0)  -->
<!DOCTYPE svg PUBLIC "-//W3C//DTD SVG 1.1//EN" "http://www.w3.org/Graphics/SVG/1.1/DTD/svg11.dtd">
<svg version="1.1" id="图层_1" xmlns="http://www.w3.org/2000/svg" xmlns:xlink="http://www.w3.org/1999/xlink" x="0px" y="0px"
	 width="16px" height="16px" viewBox="0 0 16 16" enable-background="new 0 0 16 16" xml:space="preserve">
<polygon fill="#AE2124" points="1.881,16 1.881,0 14.119,0 14.119,11.495 9.545,16 "/>
<g>
	<g>
		<g>
			
				<linearGradient id="SVGID_1_" gradientUnits="userSpaceOnUse" x1="91.2002" y1="-582.3003" x2="91.2002" y2="-567.3008" gradientTransform="matrix(1 0 0 -1 -83.1997 -566.8008)">
				<stop  offset="0" style="stop-color:#C7312F"/>
				<stop  offset="0.1635" style="stop-color:#D9412C"/>
				<stop  offset="0.3476" style="stop-color:#E74E29"/>
				<stop  offset="0.5725" style="stop-color:#EA552A"/>
				<stop  offset="0.9516" style="stop-color:#EA582B"/>
			</linearGradient>
			<polygon fill="url(#SVGID_1_)" points="2.381,15.5 2.381,0.5 13.619,0.5 13.619,11.281 9.4,15.5 			"/>
		</g>
		<polygon fill="#AE2124" fill-opacity="0.3922" points="13.619,11.281 13.619,11.1 9.169,11.1 9.169,15.5 9.4,15.5 		"/>
		<path fill="#FFFFFF" fill-opacity="0.3922" d="M9.394,11.281l4.226,0.007L9.4,15.5L9.394,11.281z"/>
	</g>
	<g opacity="0.8" enable-background="new    ">
		<g>
			<path fill="#FFFFFF" d="M9.413,4.782c0.019,0.007,0.044,0.007,0.063,0.012C9.456,4.789,9.432,4.782,9.413,4.782z"/>
			<path fill="#FFFFFF" d="M9.256,4.757c0.025,0,0.044,0.006,0.069,0.006C9.3,4.764,9.281,4.764,9.256,4.757z"/>
			<path fill="#FFFFFF" d="M9.563,4.806C9.581,4.813,9.601,4.813,9.62,4.819C9.601,4.813,9.581,4.806,9.563,4.806z"/>
			<path fill="#FFFFFF" d="M9.712,4.831C9.73,4.838,9.75,4.838,9.762,4.844C9.744,4.838,9.731,4.831,9.712,4.831z"/>
			<path fill="#FFFFFF" d="M9.094,4.738c0.025,0,0.05,0.006,0.075,0.006C9.144,4.744,9.119,4.738,9.094,4.738z"/>
			<path fill="#FFFFFF" d="M9.994,4.894C10.006,4.9,10.019,4.9,10.038,4.907C10.019,4.9,10.006,4.894,9.994,4.894z"/>
			<path fill="#FFFFFF" d="M9.856,4.863C9.869,4.869,9.888,4.869,9.9,4.875C9.888,4.869,9.869,4.863,9.856,4.863z"/>
			<path fill="#FFFFFF" d="M4.65,5.575L4.65,5.575L4.65,5.575z"/>
			<path fill="#FFFFFF" d="M8.231,4.681c0.037,0,0.081,0,0.119,0C8.313,4.681,8.269,4.681,8.231,4.681z"/>
			<path fill="#FFFFFF" d="M10.126,4.926c0.013,0.006,0.025,0.006,0.036,0.013C10.151,4.932,10.138,4.932,10.126,4.926z"/>
			<path fill="#FFFFFF" d="M8.932,4.719c0.024,0,0.05,0.006,0.075,0.006C8.987,4.726,8.963,4.726,8.932,4.719z"/>
			<path fill="#FFFFFF" d="M7.651,4.681c0.036,0,0.074,0,0.118,0C7.731,4.681,7.688,4.681,7.651,4.681z"/>
			<path fill="#FFFFFF" d="M8.594,4.694c0.031,0,0.063,0.007,0.094,0.007C8.656,4.701,8.625,4.694,8.594,4.694z"/>
			<path fill="#FFFFFF" d="M8.769,4.706c0.031,0,0.056,0.006,0.088,0.006C8.824,4.712,8.794,4.706,8.769,4.706z"/>
			<path fill="#FFFFFF" d="M10.9,5.219c0,0,0.007,0,0.007,0.007C10.906,5.219,10.9,5.219,10.9,5.219z"/>
			<path fill="#FFFFFF" d="M11.2,5.419L11.2,5.419L11.2,5.419z"/>
			<path fill="#FFFFFF" d="M10.988,5.263C10.988,5.263,10.988,5.269,10.988,5.263C10.988,5.269,10.988,5.263,10.988,5.263z"/>
			<path fill="#FFFFFF" d="M11.063,5.313C11.069,5.313,11.069,5.313,11.063,5.313C11.069,5.313,11.069,5.313,11.063,5.313z"/>
			<path fill="#FFFFFF" d="M10.257,4.962c0.013,0,0.019,0.007,0.031,0.007C10.275,4.969,10.263,4.962,10.257,4.962z"/>
			<path fill="#FFFFFF" d="M11.256,5.469L11.256,5.469L11.256,5.469z"/>
			<path fill="#FFFFFF" d="M8,4.676c-0.056,0-0.118,0-0.175,0C7.882,4.676,7.944,4.676,8,4.676z"/>
			<path fill="#FFFFFF" d="M11.138,5.363L11.138,5.363L11.138,5.363z"/>
			<path fill="#FFFFFF" d="M10.606,5.082c0.006,0,0.013,0.006,0.018,0.006C10.619,5.088,10.612,5.082,10.606,5.082z"/>
			<path fill="#FFFFFF" d="M8,4.676c0.057,0,0.119,0,0.175,0C8.119,4.676,8.057,4.676,8,4.676z"/>
			<path fill="#FFFFFF" d="M10.375,5c0.007,0,0.019,0.006,0.024,0.006C10.394,5.006,10.388,5,10.375,5z"/>
			<path fill="#FFFFFF" d="M10.494,5.038c0.006,0,0.012,0.007,0.019,0.007C10.506,5.044,10.5,5.044,10.494,5.038z"/>
			<path fill="#FFFFFF" d="M10.713,5.125c0.006,0,0.013,0.006,0.013,0.006C10.719,5.131,10.713,5.125,10.713,5.125z"/>
			<path fill="#FFFFFF" d="M10.807,5.169c0.006,0,0.006,0.007,0.013,0.007C10.818,5.176,10.813,5.169,10.807,5.169z"/>
			<path fill="#FFFFFF" d="M8.419,4.688c0.031,0,0.069,0,0.1,0.006C8.488,4.688,8.45,4.688,8.419,4.688z"/>
			<path fill="#FFFFFF" d="M5.094,5.219c0.007,0,0.007-0.006,0.014-0.006C5.1,5.219,5.094,5.219,5.094,5.219z"/>
			<path fill="#FFFFFF" d="M5.006,5.269c0,0,0.007,0,0.007-0.006C5.012,5.263,5.012,5.269,5.006,5.269z"/>
			<path fill="#FFFFFF" d="M4.932,5.319C4.932,5.313,4.938,5.313,4.932,5.319C4.938,5.313,4.932,5.313,4.932,5.319z"/>
			<path fill="#FFFFFF" d="M5.182,5.176c0.006,0,0.006-0.007,0.013-0.007C5.188,5.169,5.182,5.176,5.182,5.176z"/>
			<path fill="#FFFFFF" d="M5.375,5.088c0.006,0,0.013-0.006,0.019-0.006C5.388,5.082,5.381,5.088,5.375,5.088z"/>
			<path fill="#FFFFFF" d="M5.275,5.131c0.007,0,0.013-0.006,0.019-0.006C5.288,5.125,5.281,5.131,5.275,5.131z"/>
			<path fill="#FFFFFF" d="M7.481,4.688c0.03,0,0.068,0,0.1-0.007C7.55,4.688,7.512,4.688,7.481,4.688z"/>
			<path fill="#FFFFFF" d="M8,7.006c-1.9,0-3.438-0.519-3.438-1.163v1.05c0,0.644,1.537,1.163,3.438,1.163
				c1.9,0,3.438-0.519,3.438-1.163l0,0v-1.05C11.438,6.482,9.9,7.006,8,7.006z"/>
			<path fill="#FFFFFF" d="M4.563,5.807v0.038C4.563,5.832,4.563,5.819,4.563,5.807L4.563,5.807z"/>
			<path fill="#FFFFFF" d="M5.481,5.05c0.006,0,0.019-0.006,0.024-0.006C5.5,5.044,5.493,5.044,5.481,5.05z"/>
			<path fill="#FFFFFF" d="M4.801,5.419L4.801,5.419L4.801,5.419z"/>
			<path fill="#FFFFFF" d="M11.438,5.807c0,0.013,0,0.025,0,0.038V5.807L11.438,5.807z"/>
			<path fill="#FFFFFF" d="M4.693,5.525L4.693,5.525L4.693,5.525z"/>
			<path fill="#FFFFFF" d="M4.743,5.469L4.743,5.469L4.743,5.469z"/>
			<path fill="#FFFFFF" d="M4.862,5.369C4.862,5.363,4.862,5.363,4.862,5.369C4.862,5.363,4.862,5.363,4.862,5.369z"/>
			<path fill="#FFFFFF" d="M6.831,4.744c0.025,0,0.05-0.006,0.074-0.006C6.881,4.738,6.856,4.744,6.831,4.744z"/>
			<path fill="#FFFFFF" d="M6.676,4.769C6.7,4.763,6.719,4.763,6.744,4.763C6.719,4.764,6.7,4.764,6.676,4.769z"/>
			<path fill="#FFFFFF" d="M6.987,4.726c0.025,0,0.05-0.006,0.081-0.006C7.037,4.726,7.013,4.726,6.987,4.726z"/>
			<path fill="#FFFFFF" d="M5.594,5.006C5.601,5.006,5.612,5,5.618,5C5.612,5,5.606,5.006,5.594,5.006z"/>
			<path fill="#FFFFFF" d="M7.313,4.701c0.031,0,0.063-0.007,0.094-0.007C7.375,4.694,7.344,4.701,7.313,4.701z"/>
			<path fill="#FFFFFF" d="M6.525,4.789c0.019-0.007,0.044-0.007,0.063-0.013C6.568,4.782,6.544,4.789,6.525,4.789z"/>
			<path fill="#FFFFFF" d="M7.15,4.712c0.031,0,0.056-0.006,0.087-0.006C7.206,4.706,7.175,4.712,7.15,4.712z"/>
			<path fill="#FFFFFF" d="M5.838,4.938C5.85,4.932,5.862,4.932,5.875,4.926C5.862,4.932,5.85,4.932,5.838,4.938z"/>
			<path fill="#FFFFFF" d="M5.713,4.969c0.013-0.007,0.019-0.007,0.031-0.013C5.737,4.962,5.725,4.969,5.713,4.969z"/>
			<path fill="#FFFFFF" d="M5.962,4.9c0.013-0.006,0.031-0.006,0.044-0.013C5.993,4.894,5.981,4.9,5.962,4.9z"/>
			<path fill="#FFFFFF" d="M6.1,4.869c0.019-0.006,0.031-0.006,0.05-0.013C6.131,4.863,6.112,4.869,6.1,4.869z"/>
			<path fill="#FFFFFF" d="M6.237,4.844c0.019-0.006,0.037-0.006,0.056-0.013C6.269,4.831,6.256,4.838,6.237,4.844z"/>
			<path fill="#FFFFFF" d="M6.381,4.813C6.399,4.806,6.418,4.806,6.438,4.8C6.418,4.806,6.399,4.813,6.381,4.813z"/>
		</g>
		<g>
			<path fill="#FFFFFF" d="M9.413,6c0.019,0.007,0.044,0.007,0.063,0.013C9.456,6.007,9.432,6.007,9.413,6z"/>
			<path fill="#FFFFFF" d="M9.256,5.982c0.025,0,0.044,0.006,0.069,0.006C9.3,5.982,9.281,5.982,9.256,5.982z"/>
			<path fill="#FFFFFF" d="M9.563,6.026C9.581,6.032,9.601,6.032,9.62,6.039C9.601,6.032,9.581,6.032,9.563,6.026z"/>
			<path fill="#FFFFFF" d="M9.712,6.05C9.73,6.056,9.75,6.056,9.762,6.063C9.744,6.056,9.731,6.056,9.712,6.05z"/>
			<path fill="#FFFFFF" d="M9.094,5.956c0.025,0,0.05,0.006,0.075,0.006C9.144,5.962,9.119,5.962,9.094,5.956z"/>
			<path fill="#FFFFFF" d="M9.994,6.113c0.012,0.006,0.024,0.006,0.044,0.013C10.019,6.119,10.006,6.119,9.994,6.113z"/>
			<path fill="#FFFFFF" d="M9.856,6.081C9.869,6.088,9.888,6.088,9.9,6.094C9.888,6.088,9.869,6.088,9.856,6.081z"/>
			<path fill="#FFFFFF" d="M4.65,6.801L4.65,6.801L4.65,6.801z"/>
			<path fill="#FFFFFF" d="M8.231,5.9c0.037,0,0.081,0,0.119,0C8.313,5.9,8.269,5.9,8.231,5.9z"/>
			<path fill="#FFFFFF" d="M10.126,6.15c0.013,0.007,0.025,0.007,0.036,0.013C10.151,6.157,10.138,6.15,10.126,6.15z"/>
			<path fill="#FFFFFF" d="M8.932,5.944c0.024,0,0.05,0.007,0.075,0.007C8.987,5.944,8.963,5.944,8.932,5.944z"/>
			<path fill="#FFFFFF" d="M7.651,5.906c0.036,0,0.074,0,0.118,0C7.731,5.9,7.688,5.9,7.651,5.906z"/>
			<path fill="#FFFFFF" d="M8.594,5.913c0.031,0,0.063,0.007,0.094,0.007C8.656,5.919,8.625,5.919,8.594,5.913z"/>
			<path fill="#FFFFFF" d="M8.769,5.926c0.031,0,0.056,0.006,0.088,0.006C8.824,5.931,8.794,5.931,8.769,5.926z"/>
			<path fill="#FFFFFF" d="M10.9,6.438c0,0,0.007,0,0.007,0.007C10.906,6.438,10.9,6.438,10.9,6.438z"/>
			<path fill="#FFFFFF" d="M11.2,6.639L11.2,6.639L11.2,6.639z"/>
			<path fill="#FFFFFF" d="M10.988,6.488L10.988,6.488L10.988,6.488z"/>
			<path fill="#FFFFFF" d="M11.063,6.538C11.069,6.538,11.069,6.538,11.063,6.538C11.069,6.538,11.069,6.538,11.063,6.538z"/>
			<path fill="#FFFFFF" d="M10.257,6.182c0.013,0,0.019,0.006,0.031,0.006C10.275,6.188,10.263,6.188,10.257,6.182z"/>
			<path fill="#FFFFFF" d="M11.256,6.688L11.256,6.688L11.256,6.688z"/>
			<path fill="#FFFFFF" d="M8,5.9c-0.056,0-0.118,0-0.175,0C7.882,5.9,7.944,5.9,8,5.9z"/>
			<path fill="#FFFFFF" d="M11.138,6.587L11.138,6.587L11.138,6.587z"/>
			<path fill="#FFFFFF" d="M10.606,6.3c0.006,0,0.013,0.007,0.018,0.007C10.619,6.307,10.612,6.307,10.606,6.3z"/>
			<path fill="#FFFFFF" d="M8,5.9c0.057,0,0.119,0,0.175,0C8.119,5.9,8.057,5.9,8,5.9z"/>
			<path fill="#FFFFFF" d="M10.375,6.219c0.007,0,0.019,0.006,0.024,0.006C10.394,6.225,10.388,6.225,10.375,6.219z"/>
			<path fill="#FFFFFF" d="M10.494,6.263c0.006,0,0.012,0.006,0.019,0.006C10.506,6.269,10.5,6.263,10.494,6.263z"/>
			<path fill="#FFFFFF" d="M10.713,6.344c0.006,0,0.013,0.006,0.013,0.006C10.719,6.351,10.713,6.351,10.713,6.344z"/>
			<path fill="#FFFFFF" d="M10.807,6.395c0.006,0,0.006,0.006,0.013,0.006C10.818,6.395,10.813,6.395,10.807,6.395z"/>
			<path fill="#FFFFFF" d="M8.419,5.906c0.031,0,0.069,0,0.1,0.006C8.488,5.906,8.45,5.906,8.419,5.906z"/>
			<path fill="#FFFFFF" d="M5.094,6.444c0.007,0,0.007-0.007,0.014-0.007C5.1,6.438,5.094,6.438,5.094,6.444z"/>
			<path fill="#FFFFFF" d="M5.006,6.488c0,0,0.007,0,0.007-0.006C5.012,6.488,5.012,6.488,5.006,6.488z"/>
			<path fill="#FFFFFF" d="M4.932,6.538C4.932,6.538,4.938,6.538,4.932,6.538C4.938,6.538,4.932,6.538,4.932,6.538z"/>
			<path fill="#FFFFFF" d="M5.182,6.395c0.006,0,0.006-0.007,0.013-0.007C5.188,6.395,5.182,6.395,5.182,6.395z"/>
			<path fill="#FFFFFF" d="M5.375,6.313c0.006,0,0.013-0.006,0.019-0.006C5.388,6.307,5.381,6.307,5.375,6.313z"/>
			<path fill="#FFFFFF" d="M5.275,6.351c0.007,0,0.013-0.006,0.019-0.006C5.288,6.351,5.281,6.351,5.275,6.351z"/>
			<path fill="#FFFFFF" d="M7.481,5.913c0.03,0,0.068,0,0.1-0.006C7.55,5.906,7.512,5.906,7.481,5.913z"/>
			<path fill="#FFFFFF" d="M8,8.226c-1.9,0-3.438-0.519-3.438-1.163v1.051c0,0.643,1.537,1.162,3.438,1.162
				c1.9,0,3.438-0.52,3.438-1.162l0,0V7.063C11.438,7.707,9.9,8.226,8,8.226z"/>
			<path fill="#FFFFFF" d="M4.563,7.025v0.038C4.563,7.051,4.563,7.038,4.563,7.025L4.563,7.025z"/>
			<path fill="#FFFFFF" d="M5.481,6.269c0.006,0,0.019-0.006,0.024-0.006C5.5,6.263,5.493,6.269,5.481,6.269z"/>
			<path fill="#FFFFFF" d="M4.801,6.639L4.801,6.639L4.801,6.639z"/>
			<path fill="#FFFFFF" d="M11.438,7.025c0,0.013,0,0.025,0,0.038V7.025L11.438,7.025z"/>
			<path fill="#FFFFFF" d="M4.693,6.744L4.693,6.744L4.693,6.744z"/>
			<path fill="#FFFFFF" d="M4.743,6.694C4.743,6.688,4.743,6.688,4.743,6.694C4.743,6.688,4.743,6.688,4.743,6.694z"/>
			<path fill="#FFFFFF" d="M4.862,6.587L4.862,6.587L4.862,6.587z"/>
			<path fill="#FFFFFF" d="M6.831,5.969c0.025,0,0.05-0.007,0.074-0.007C6.881,5.962,6.856,5.962,6.831,5.969z"/>
			<path fill="#FFFFFF" d="M6.676,5.988C6.7,5.981,6.719,5.981,6.744,5.981C6.719,5.982,6.7,5.982,6.676,5.988z"/>
			<path fill="#FFFFFF" d="M6.987,5.951c0.025,0,0.05-0.007,0.081-0.007C7.037,5.944,7.013,5.944,6.987,5.951z"/>
			<path fill="#FFFFFF" d="M5.594,6.231c0.007,0,0.019-0.006,0.024-0.006C5.612,6.225,5.606,6.225,5.594,6.231z"/>
			<path fill="#FFFFFF" d="M7.313,5.919c0.031,0,0.063-0.007,0.094-0.007C7.375,5.919,7.344,5.919,7.313,5.919z"/>
			<path fill="#FFFFFF" d="M6.525,6.014C6.544,6.007,6.569,6.007,6.588,6C6.568,6.007,6.544,6.007,6.525,6.014z"/>
			<path fill="#FFFFFF" d="M7.15,5.931c0.024,0,0.056-0.006,0.087-0.006C7.206,5.931,7.175,5.931,7.15,5.931z"/>
			<path fill="#FFFFFF" d="M5.838,6.157C5.85,6.15,5.862,6.15,5.875,6.144C5.862,6.15,5.85,6.157,5.838,6.157z"/>
			<path fill="#FFFFFF" d="M5.713,6.194c0.013-0.006,0.019-0.006,0.031-0.013C5.737,6.188,5.725,6.188,5.713,6.194z"/>
			<path fill="#FFFFFF" d="M5.962,6.125c0.013-0.006,0.031-0.006,0.044-0.013C5.993,6.119,5.981,6.119,5.962,6.125z"/>
			<path fill="#FFFFFF" d="M6.1,6.094c0.019-0.006,0.031-0.006,0.05-0.013C6.131,6.088,6.112,6.088,6.1,6.094z"/>
			<path fill="#FFFFFF" d="M6.237,6.063C6.256,6.056,6.274,6.056,6.293,6.05C6.269,6.056,6.256,6.056,6.237,6.063z"/>
			<path fill="#FFFFFF" d="M6.381,6.039c0.019-0.007,0.037-0.007,0.057-0.013C6.418,6.032,6.399,6.032,6.381,6.039z"/>
		</g>
		<g>
			<path fill="#FFFFFF" d="M9.413,7.219c0.019,0.006,0.044,0.006,0.063,0.013C9.456,7.226,9.432,7.226,9.413,7.219z"/>
			<path fill="#FFFFFF" d="M9.256,7.201c0.025,0,0.044,0.006,0.069,0.006C9.3,7.206,9.281,7.201,9.256,7.201z"/>
			<path fill="#FFFFFF" d="M9.563,7.244C9.581,7.25,9.601,7.25,9.62,7.257C9.601,7.25,9.581,7.25,9.563,7.244z"/>
			<path fill="#FFFFFF" d="M9.712,7.276C9.73,7.282,9.75,7.282,9.762,7.289C9.744,7.282,9.731,7.276,9.712,7.276z"/>
			<path fill="#FFFFFF" d="M9.094,7.181c0.025,0,0.05,0.007,0.075,0.007C9.144,7.188,9.119,7.181,9.094,7.181z"/>
			<path fill="#FFFFFF" d="M9.994,7.338c0.012,0.006,0.024,0.006,0.044,0.013C10.019,7.344,10.006,7.338,9.994,7.338z"/>
			<path fill="#FFFFFF" d="M9.856,7.3C9.869,7.306,9.888,7.306,9.9,7.313C9.888,7.313,9.869,7.306,9.856,7.3z"/>
			<path fill="#FFFFFF" d="M4.65,8.02L4.65,8.02L4.65,8.02z"/>
			<path fill="#FFFFFF" d="M8.231,7.119c0.037,0,0.081,0,0.119,0C8.313,7.125,8.269,7.125,8.231,7.119z"/>
			<path fill="#FFFFFF" d="M10.126,7.369c0.013,0.006,0.025,0.006,0.036,0.013C10.151,7.375,10.138,7.375,10.126,7.369z"/>
			<path fill="#FFFFFF" d="M8.932,7.163c0.024,0,0.05,0.007,0.075,0.007C8.987,7.169,8.963,7.163,8.932,7.163z"/>
			<path fill="#FFFFFF" d="M7.651,7.125c0.036,0,0.074,0,0.118,0C7.731,7.125,7.688,7.125,7.651,7.125z"/>
			<path fill="#FFFFFF" d="M8.594,7.138c0.031,0,0.063,0.006,0.094,0.006C8.656,7.138,8.625,7.138,8.594,7.138z"/>
			<path fill="#FFFFFF" d="M8.769,7.15c0.031,0,0.056,0.006,0.088,0.006C8.824,7.15,8.794,7.15,8.769,7.15z"/>
			<path fill="#FFFFFF" d="M10.9,7.656c0,0,0.007,0,0.007,0.006C10.906,7.663,10.9,7.663,10.9,7.656z"/>
			<path fill="#FFFFFF" d="M11.2,7.857L11.2,7.857L11.2,7.857z"/>
			<path fill="#FFFFFF" d="M10.988,7.707L10.988,7.707L10.988,7.707z"/>
			<path fill="#FFFFFF" d="M11.063,7.757C11.069,7.757,11.069,7.757,11.063,7.757C11.069,7.757,11.069,7.757,11.063,7.757z"/>
			<path fill="#FFFFFF" d="M10.257,7.407c0.013,0,0.019,0.006,0.031,0.006C10.275,7.414,10.263,7.407,10.257,7.407z"/>
			<path fill="#FFFFFF" d="M11.256,7.914L11.256,7.914L11.256,7.914z"/>
			<path fill="#FFFFFF" d="M8,7.119c-0.056,0-0.118,0-0.175,0C7.882,7.119,7.944,7.119,8,7.119z"/>
			<path fill="#FFFFFF" d="M11.138,7.806L11.138,7.806L11.138,7.806z"/>
			<path fill="#FFFFFF" d="M10.606,7.526c0.006,0,0.013,0.006,0.018,0.006C10.619,7.532,10.612,7.526,10.606,7.526z"/>
			<path fill="#FFFFFF" d="M8,7.119c0.057,0,0.119,0,0.175,0C8.119,7.119,8.057,7.119,8,7.119z"/>
			<path fill="#FFFFFF" d="M10.375,7.444c0.007,0,0.019,0.005,0.024,0.005C10.394,7.45,10.388,7.444,10.375,7.444z"/>
			<path fill="#FFFFFF" d="M10.494,7.481c0.006,0,0.012,0.007,0.019,0.007C10.506,7.488,10.5,7.488,10.494,7.481z"/>
			<path fill="#FFFFFF" d="M10.713,7.569c0.006,0,0.013,0.007,0.013,0.007C10.719,7.569,10.713,7.569,10.713,7.569z"/>
			<path fill="#FFFFFF" d="M10.807,7.613c0.006,0,0.006,0.006,0.013,0.006C10.818,7.619,10.813,7.613,10.807,7.613z"/>
			<path fill="#FFFFFF" d="M8.419,7.125c0.031,0,0.069,0,0.1,0.006C8.488,7.132,8.45,7.132,8.419,7.125z"/>
			<path fill="#FFFFFF" d="M5.094,7.663c0.007,0,0.007-0.006,0.014-0.006C5.1,7.663,5.094,7.663,5.094,7.663z"/>
			<path fill="#FFFFFF" d="M5.006,7.713c0,0,0.007,0,0.007-0.006C5.012,7.707,5.012,7.707,5.006,7.713z"/>
			<path fill="#FFFFFF" d="M4.932,7.757C4.932,7.757,4.938,7.757,4.932,7.757C4.938,7.757,4.932,7.757,4.932,7.757z"/>
			<path fill="#FFFFFF" d="M5.182,7.619c0.006,0,0.006-0.006,0.013-0.006C5.188,7.613,5.182,7.619,5.182,7.619z"/>
			<path fill="#FFFFFF" d="M5.375,7.532c0.006,0,0.013-0.006,0.019-0.006C5.388,7.526,5.381,7.532,5.375,7.532z"/>
			<path fill="#FFFFFF" d="M5.275,7.576c0.007,0,0.013-0.007,0.019-0.007C5.288,7.569,5.281,7.569,5.275,7.576z"/>
			<path fill="#FFFFFF" d="M7.481,7.132c0.03,0,0.068,0,0.1-0.006C7.55,7.132,7.512,7.132,7.481,7.132z"/>
			<path fill="#FFFFFF" d="M8,9.451c-1.9,0-3.438-0.52-3.438-1.164v1.051C4.562,9.98,6.099,10.5,8,10.5
				c1.9,0,3.438-0.52,3.438-1.162l0,0V8.287C11.438,8.926,9.9,9.451,8,9.451z"/>
			<path fill="#FFFFFF" d="M4.563,8.25v0.037C4.563,8.275,4.563,8.263,4.563,8.25L4.563,8.25z"/>
			<path fill="#FFFFFF" d="M5.481,7.488c0.006,0,0.019-0.007,0.024-0.007C5.5,7.488,5.493,7.488,5.481,7.488z"/>
			<path fill="#FFFFFF" d="M4.801,7.863C4.801,7.857,4.801,7.857,4.801,7.863C4.801,7.857,4.801,7.857,4.801,7.863z"/>
			<path fill="#FFFFFF" d="M11.438,8.25c0,0.013,0,0.025,0,0.037V8.25L11.438,8.25z"/>
			<path fill="#FFFFFF" d="M4.693,7.969C4.693,7.963,4.693,7.963,4.693,7.969C4.693,7.963,4.693,7.963,4.693,7.969z"/>
			<path fill="#FFFFFF" d="M4.743,7.914L4.743,7.914L4.743,7.914z"/>
			<path fill="#FFFFFF" d="M4.862,7.806L4.862,7.806L4.862,7.806z"/>
			<path fill="#FFFFFF" d="M6.831,7.188c0.025,0,0.05-0.007,0.074-0.007C6.881,7.181,6.856,7.188,6.831,7.188z"/>
			<path fill="#FFFFFF" d="M6.676,7.206C6.7,7.2,6.719,7.2,6.744,7.2C6.719,7.201,6.7,7.206,6.676,7.206z"/>
			<path fill="#FFFFFF" d="M6.987,7.169c0.025,0,0.05-0.007,0.081-0.007C7.037,7.163,7.013,7.169,6.987,7.169z"/>
			<path fill="#FFFFFF" d="M5.594,7.45c0.007,0,0.019-0.005,0.024-0.005C5.612,7.444,5.606,7.45,5.594,7.45z"/>
			<path fill="#FFFFFF" d="M7.313,7.144c0.031,0,0.063-0.006,0.094-0.006C7.375,7.138,7.344,7.138,7.313,7.144z"/>
			<path fill="#FFFFFF" d="M6.525,7.232c0.019-0.006,0.043-0.006,0.062-0.013C6.568,7.226,6.544,7.226,6.525,7.232z"/>
			<path fill="#FFFFFF" d="M7.15,7.156c0.024,0,0.056-0.006,0.087-0.006C7.206,7.15,7.175,7.15,7.15,7.156z"/>
			<path fill="#FFFFFF" d="M5.838,7.382C5.85,7.375,5.862,7.375,5.875,7.369C5.862,7.369,5.85,7.375,5.838,7.382z"/>
			<path fill="#FFFFFF" d="M5.713,7.414C5.726,7.407,5.731,7.407,5.744,7.4C5.737,7.407,5.725,7.414,5.713,7.414z"/>
			<path fill="#FFFFFF" d="M5.962,7.344c0.013-0.006,0.031-0.006,0.044-0.013C5.993,7.338,5.981,7.344,5.962,7.344z"/>
			<path fill="#FFFFFF" d="M6.1,7.313C6.118,7.306,6.131,7.306,6.149,7.3C6.131,7.306,6.112,7.313,6.1,7.313z"/>
			<path fill="#FFFFFF" d="M6.237,7.282c0.019-0.006,0.037-0.006,0.056-0.013C6.269,7.276,6.256,7.282,6.237,7.282z"/>
			<path fill="#FFFFFF" d="M6.381,7.257C6.399,7.25,6.418,7.25,6.438,7.244C6.418,7.25,6.399,7.25,6.381,7.257z"/>
		</g>
		<ellipse fill="#FFFFFF" cx="8" cy="5.657" rx="3.438" ry="1.163"/>
	</g>
	<g>
		<rect x="2.378" y="0.5" opacity="0.8" fill="#FFFFFF" enable-background="new    " width="11.244" height="2.875"/>
		<g enable-background="new    ">
			<path fill="#E64A19" d="M5.061,2.778C5.041,2.72,5.02,2.659,4.997,2.597C4.974,2.535,4.951,2.473,4.929,2.412H4.233
				C4.21,2.474,4.188,2.536,4.165,2.598S4.122,2.72,4.102,2.778H3.686c0.067-0.182,0.13-0.351,0.19-0.506
				c0.061-0.154,0.119-0.3,0.177-0.437s0.114-0.267,0.17-0.39c0.056-0.123,0.114-0.243,0.174-0.36h0.38
				c0.059,0.117,0.116,0.237,0.173,0.36c0.057,0.123,0.114,0.253,0.171,0.39C5.18,1.972,5.239,2.118,5.299,2.272
				c0.06,0.155,0.124,0.324,0.191,0.506H5.061z M4.579,1.469c-0.009,0.024-0.022,0.058-0.04,0.1S4.503,1.661,4.481,1.716
				C4.458,1.771,4.434,1.833,4.407,1.899C4.38,1.966,4.352,2.036,4.324,2.109h0.51C4.806,2.036,4.78,1.965,4.754,1.898
				c-0.026-0.067-0.05-0.128-0.073-0.184C4.658,1.66,4.638,1.611,4.621,1.568C4.604,1.526,4.589,1.493,4.579,1.469z"/>
			<path fill="#E64A19" d="M6.467,2.813c-0.29,0-0.51-0.077-0.662-0.229C5.654,2.43,5.578,2.212,5.578,1.931
				c0-0.14,0.023-0.265,0.069-0.375c0.046-0.11,0.11-0.203,0.19-0.278s0.177-0.133,0.288-0.172s0.232-0.059,0.362-0.059
				c0.076,0,0.144,0.005,0.206,0.016c0.062,0.01,0.116,0.022,0.162,0.037C6.902,1.113,6.94,1.127,6.971,1.142
				c0.031,0.015,0.053,0.026,0.067,0.034L6.922,1.484C6.868,1.456,6.804,1.432,6.731,1.413S6.575,1.383,6.483,1.383
				c-0.062,0-0.122,0.01-0.181,0.029S6.19,1.464,6.145,1.507S6.063,1.606,6.036,1.674C6.008,1.743,5.994,1.826,5.994,1.923
				c0,0.078,0.009,0.151,0.027,0.219C6.04,2.209,6.068,2.268,6.109,2.316c0.04,0.049,0.093,0.088,0.158,0.116
				c0.065,0.029,0.144,0.043,0.236,0.043c0.058,0,0.11-0.003,0.157-0.01c0.046-0.007,0.087-0.015,0.124-0.023
				s0.068-0.019,0.095-0.03C6.906,2.4,6.931,2.39,6.954,2.38l0.11,0.305C7.007,2.718,6.928,2.748,6.825,2.773
				C6.722,2.799,6.603,2.813,6.467,2.813z"/>
			<path fill="#E64A19" d="M8.069,2.813c-0.29,0-0.51-0.077-0.662-0.229C7.256,2.43,7.18,2.212,7.18,1.931
				c0-0.14,0.023-0.265,0.069-0.375c0.046-0.11,0.11-0.203,0.19-0.278s0.177-0.133,0.288-0.172S7.96,1.046,8.09,1.046
				c0.076,0,0.144,0.005,0.206,0.016c0.062,0.01,0.116,0.022,0.162,0.037c0.046,0.014,0.085,0.028,0.116,0.042
				c0.031,0.015,0.054,0.026,0.067,0.034L8.524,1.484C8.47,1.456,8.406,1.432,8.333,1.413S8.177,1.383,8.085,1.383
				c-0.062,0-0.122,0.01-0.181,0.029S7.792,1.464,7.747,1.507S7.665,1.606,7.638,1.674C7.61,1.743,7.596,1.826,7.596,1.923
				c0,0.078,0.009,0.151,0.027,0.219C7.642,2.209,7.67,2.268,7.711,2.316c0.04,0.049,0.093,0.088,0.158,0.116
				c0.065,0.029,0.144,0.043,0.236,0.043c0.058,0,0.11-0.003,0.157-0.01C8.309,2.459,8.35,2.451,8.386,2.442s0.068-0.019,0.095-0.03
				C8.508,2.4,8.533,2.39,8.556,2.38l0.11,0.305C8.609,2.718,8.529,2.748,8.427,2.773S8.205,2.813,8.069,2.813z"/>
			<path fill="#E64A19" d="M10.484,1.931c0,0.146-0.025,0.274-0.072,0.383c-0.049,0.109-0.117,0.2-0.205,0.271
				s-0.195,0.125-0.322,0.161S9.615,2.8,9.458,2.8c-0.072,0-0.156-0.003-0.252-0.008c-0.097-0.006-0.19-0.018-0.283-0.036V1.107
				c0.093-0.016,0.188-0.027,0.29-0.033c0.1-0.006,0.186-0.009,0.258-0.009c0.152,0,0.291,0.016,0.415,0.049
				s0.231,0.084,0.319,0.154c0.09,0.07,0.158,0.16,0.207,0.269C10.459,1.646,10.484,1.778,10.484,1.931z M9.324,2.468
				C9.343,2.47,9.365,2.471,9.39,2.472c0.024,0.001,0.054,0.001,0.089,0.001c0.2,0,0.35-0.048,0.445-0.145
				C10.021,2.233,10.07,2.1,10.07,1.931c0-0.177-0.047-0.312-0.141-0.403C9.838,1.437,9.691,1.391,9.491,1.391
				c-0.027,0-0.056,0-0.085,0.001S9.35,1.395,9.324,1.398V2.468z"/>
			<path fill="#E64A19" d="M11.412,2.8c-0.098,0-0.195-0.003-0.293-0.008c-0.096-0.006-0.197-0.02-0.301-0.041V1.11
				c0.082-0.015,0.172-0.025,0.27-0.033s0.188-0.011,0.271-0.011c0.113,0,0.219,0.008,0.313,0.023
				c0.096,0.015,0.178,0.042,0.246,0.079c0.068,0.038,0.123,0.087,0.16,0.148c0.039,0.061,0.059,0.136,0.059,0.226
				c0,0.135-0.068,0.242-0.205,0.32c0.113,0.041,0.189,0.096,0.23,0.166c0.041,0.07,0.063,0.149,0.063,0.237
				c0,0.178-0.068,0.311-0.205,0.401C11.883,2.755,11.68,2.8,11.412,2.8z M11.209,1.75h0.195c0.123,0,0.211-0.015,0.264-0.045
				c0.055-0.03,0.08-0.079,0.08-0.145c0-0.068-0.027-0.117-0.082-0.145c-0.055-0.027-0.135-0.042-0.242-0.042
				c-0.033,0-0.07,0-0.109,0.001c-0.041,0.001-0.076,0.003-0.105,0.006V1.75z M11.209,2.041v0.438
				c0.029,0.003,0.061,0.005,0.094,0.007c0.035,0.001,0.072,0.002,0.113,0.002c0.121,0,0.217-0.017,0.291-0.049
				c0.074-0.033,0.111-0.093,0.111-0.181c0-0.078-0.031-0.134-0.094-0.167c-0.061-0.034-0.15-0.05-0.264-0.05H11.209z"/>
		</g>
	</g>
</g>
</svg>
