<?xml version="1.0" encoding="utf-8"?>
<!-- Generator: Adobe Illustrator 16.0.0, SVG Export Plug-In . SVG Version: 6.00 Build 0)  -->
<!DOCTYPE svg PUBLIC "-//W3C//DTD SVG 1.1//EN" "http://www.w3.org/Graphics/SVG/1.1/DTD/svg11.dtd">
<svg version="1.1" id="图层_1" xmlns="http://www.w3.org/2000/svg" xmlns:xlink="http://www.w3.org/1999/xlink" x="0px" y="0px"
	 width="16px" height="16px" viewBox="0 0 16 16" enable-background="new 0 0 16 16" xml:space="preserve">
<polygon fill="#455A64" points="1.881,16 1.881,0 14.119,0 14.119,11.495 9.545,16 "/>
<g>
	<g>
		<g>
			
				<linearGradient id="SVGID_1_" gradientUnits="userSpaceOnUse" x1="49.5996" y1="-148.4004" x2="49.5996" y2="-163.4009" gradientTransform="matrix(1 0 0 -1 -41.6001 -147.9004)">
				<stop  offset="0" style="stop-color:#90A4AE"/>
				<stop  offset="0.1378" style="stop-color:#849AA5"/>
				<stop  offset="0.4226" style="stop-color:#708A97"/>
				<stop  offset="0.7096" style="stop-color:#64808E"/>
				<stop  offset="1" style="stop-color:#607D8B"/>
			</linearGradient>
			<polygon fill="url(#SVGID_1_)" points="2.381,15.5 2.381,0.5 13.619,0.5 13.619,11.281 9.4,15.5 			"/>
		</g>
		<polygon fill="#455A64" fill-opacity="0.39" points="13.619,11.281 13.619,11.1 9.169,11.1 9.169,15.5 9.4,15.5 		"/>
		<path fill="#FFFFFF" fill-opacity="0.39" d="M9.394,11.281l4.226,0.006L9.4,15.5L9.394,11.281z"/>
	</g>
	<path opacity="0.8" fill="#FFFFFF" enable-background="new    " d="M10.625,8.269c0.007-0.019,0.019-0.031,0.025-0.05
		c0.013-0.031,0.031-0.063,0.044-0.094c0,0,0-0.006,0.006-0.006c0.081-0.169,0.138-0.351,0.188-0.531h0.706V6.169h-0.706
		c-0.075-0.294-0.188-0.575-0.344-0.825l0.5-0.5l-1.006-1.006l-0.5,0.5C9.281,4.182,9,4.063,8.694,3.987H8.7V3.281H7.281v0.706
		h0.006C6.988,4.063,6.7,4.182,6.444,4.338l-0.5-0.5L4.957,4.844l0.5,0.5c-0.15,0.25-0.269,0.531-0.344,0.825H4.406v1.419h0.707
		C5.188,7.881,5.3,8.162,5.457,8.419l0,0l-0.5,0.5l1.006,1.006l0.5-0.5C6.719,9.581,7,9.7,7.294,9.769v0.706h1.419V9.769l0,0l0,0
		c0.3-0.075,0.575-0.188,0.831-0.344l0.5,0.5l1.006-1.006l-0.5-0.5l0,0c0.02-0.031,0.031-0.057,0.051-0.088
		C10.606,8.313,10.619,8.294,10.625,8.269z M8,9.144c-1.256,0-2.269-1.019-2.269-2.269S6.75,4.606,8,4.606
		c0.25,0,0.488,0.037,0.713,0.112l0,0c0.906,0.3,1.556,1.15,1.556,2.156c0,0.063,0,0.125-0.006,0.182v0.006
		c-0.013,0.182-0.05,0.356-0.106,0.525c0,0.006-0.006,0.006-0.006,0.012c-0.038,0.106-0.081,0.213-0.132,0.307
		c0,0.006-0.006,0.013-0.006,0.019c-0.025,0.05-0.05,0.094-0.081,0.144c0,0.007-0.007,0.007-0.007,0.013
		C9.894,8.125,9.869,8.169,9.838,8.213L9.831,8.219C9.8,8.263,9.769,8.307,9.731,8.344C9.726,8.35,9.719,8.356,9.713,8.362
		C9.644,8.443,9.569,8.519,9.487,8.588C9.481,8.594,9.476,8.6,9.469,8.606C9.432,8.638,9.388,8.675,9.344,8.7
		C9.338,8.706,9.331,8.706,9.325,8.713C9.288,8.744,9.244,8.769,9.206,8.794C9.2,8.8,9.194,8.8,9.188,8.807
		c-0.044,0.024-0.087,0.05-0.131,0.074C9.044,8.888,9.038,8.894,9.025,8.9C8.981,8.925,8.932,8.943,8.888,8.963
		c-0.006,0-0.013,0.006-0.019,0.006C8.825,8.987,8.781,9,8.737,9.019C8.507,9.1,8.256,9.144,8,9.144z"/>
</g>
</svg>
