<?xml version="1.0" encoding="utf-8"?>
<!-- Generator: Adobe Illustrator 16.0.0, SVG Export Plug-In . SVG Version: 6.00 Build 0)  -->
<!DOCTYPE svg PUBLIC "-//W3C//DTD SVG 1.1//EN" "http://www.w3.org/Graphics/SVG/1.1/DTD/svg11.dtd">
<svg version="1.1" id="图层_1" xmlns="http://www.w3.org/2000/svg" xmlns:xlink="http://www.w3.org/1999/xlink" x="0px" y="0px"
	 width="16px" height="16px" viewBox="0 0 16 16" enable-background="new 0 0 16 16" xml:space="preserve">
<g>
	
		<linearGradient id="SVGID_1_" gradientUnits="userSpaceOnUse" x1="174.4004" y1="1569.9609" x2="174.4004" y2="1553.9609" gradientTransform="matrix(1 0 0 1 -166.4004 -1553.9609)">
		<stop  offset="0" style="stop-color:#512DA8"/>
		<stop  offset="0.008" style="stop-color:#D32F2F"/>
		<stop  offset="0.3041" style="stop-color:#E33932"/>
		<stop  offset="0.6579" style="stop-color:#F04035"/>
		<stop  offset="1" style="stop-color:#F44336"/>
	</linearGradient>
	<path fill="url(#SVGID_1_)" d="M9.5,16l4.5-4.5V0H2v16H9.5z"/>
	<polygon fill="#B71C1C" fill-opacity="0.3922" points="9.25,11.25 9.25,16 9.5,16 14,11.5 14,11.25 	"/>
	<path fill="#FFFFFF" fill-opacity="0.3922" d="M9.5,11.5h4.496L9.5,16V11.5z"/>
	<g opacity="0.8">
		<path fill="#FFFFFF" d="M7.568,3.421c0,0,0.23,2.123-1.396,4.928c-1.627,2.803-2.105,2.426-2.275,2.33
			c-0.172-0.098-0.393-0.414,0.33-1.045c0.721-0.631,1.002-0.619,1.002-0.619s-0.66,0.4-0.916,0.789
			c-0.258,0.389-0.465,0.631-0.404,0.74s0.799-0.447,1.104-0.92c0.486-0.752,1.404-2.15,1.832-3.484
			C7.271,4.804,7.568,3.421,7.568,3.421z"/>
		<path fill="#FFFFFF" d="M11.577,8.334c0,0-0.037,0.098-0.464,0.063C10.686,8.36,9.021,7.839,8.128,6.771
			C7.236,5.702,7.162,4.233,7.101,3.47C7.039,2.706,7.378,2.919,7.427,3.015c0.076,0.064,0.113,0.273,0.113,0.273
			S7.513,2.976,7.378,2.841C7.244,2.708,7.125,2.706,6.99,2.937S6.794,3.81,6.904,4.429c0.111,0.619,0.564,2.039,1.127,2.693
			c0.562,0.656,1.687,1.227,2.52,1.396c0.831,0.17,1.026-0.182,1.026-0.182V8.334z"/>
		<path fill="#FFFFFF" d="M6.158,8.614c0,0,1.615-0.521,3.145-0.666c1.529-0.146,2.056,0.012,2.188,0.121
			c0.136,0.109,0.136,0.23,0.136,0.23s0.172-0.17,0.059-0.342c-0.096-0.18-0.242-0.326-1.453-0.289
			C9.021,7.704,8.936,7.753,7.822,7.96C6.708,8.167,6.158,8.614,6.158,8.614z"/>
	</g>
	<g>
		<path fill="#B71C1C" d="M13.5,0.5v10.793L9.293,15.5H6H2.5v-15H13.5 M14,0H2v16h4h3.5l4.5-4.5V0L14,0z"/>
	</g>
</g>
</svg>
