<?xml version="1.0" encoding="utf-8"?>
<!-- Generator: Adobe Illustrator 21.0.0, SVG Export Plug-In . SVG Version: 6.00 Build 0)  -->
<svg version="1.1" id="图层_1" xmlns="http://www.w3.org/2000/svg" xmlns:xlink="http://www.w3.org/1999/xlink" x="0px" y="0px"
	 viewBox="0 0 16 16" style="enable-background:new 0 0 16 16;" xml:space="preserve">
<style type="text/css">
	.st0{fill:url(#SVGID_1_);}
	.st1{fill:#0D47A1;}
	.st2{fill:#0D47A1;fill-opacity:0.39;}
	.st3{fill:#FFFFFF;fill-opacity:0.39;}
	.st4{opacity:0.8;fill:#FFFFFF;enable-background:new    ;}
</style>
<title>application-vnd.oasis.opendocument.text-web</title>
<linearGradient id="SVGID_1_" gradientUnits="userSpaceOnUse" x1="8" y1="1563.5" x2="8" y2="1548.5" gradientTransform="matrix(1 0 0 1 0 -1548)">
	<stop  offset="0" style="stop-color:#1976D2"/>
	<stop  offset="0.02" style="stop-color:#1C79D3"/>
	<stop  offset="0.29" style="stop-color:#3B93E2"/>
	<stop  offset="0.54" style="stop-color:#52A6ED"/>
	<stop  offset="0.78" style="stop-color:#5FB1F4"/>
	<stop  offset="1" style="stop-color:#64B5F6"/>
</linearGradient>
<polygon class="st0" points="9.4,15.5 13.5,11.3 13.5,0.5 2.5,0.5 2.5,15.5 "/>
<path class="st1" d="M13.5,0.5V11L9,15.5H2.5v-15H13.5 M14,0H2v16h7.5l0.1-0.1l4.2-4.2l0.1-0.1V0H14z"/>
<polygon class="st2" points="13.5,11 13.5,11 9,11 9,15.5 9,15.5 "/>
<path class="st3" d="M9,11h4.5L9,15.5V11z"/>
<polygon class="st4" points="6,8 6,5 7,5 7,3 6,3 4,5 4,7 5,8 6,9 6,10 7,10 7,8 "/>
<path class="st4" d="M10,3H9v1H8v6h2l2-3V5.3L10,3z M10,7H8V6h2V7z"/>
</svg>
