<?xml version="1.0" encoding="utf-8"?>
<!-- Generator: Adobe Illustrator 16.0.0, SVG Export Plug-In . SVG Version: 6.00 Build 0)  -->
<!DOCTYPE svg PUBLIC "-//W3C//DTD SVG 1.1//EN" "http://www.w3.org/Graphics/SVG/1.1/DTD/svg11.dtd">
<svg version="1.1" id="图层_1" xmlns="http://www.w3.org/2000/svg" xmlns:xlink="http://www.w3.org/1999/xlink" x="0px" y="0px"
	 width="16px" height="16px" viewBox="0 0 16 16" enable-background="new 0 0 16 16" xml:space="preserve">
<polygon fill="#1B5E20" points="1.881,16 1.881,0 14.119,0 14.119,11.495 9.545,16 "/>
<g>
	<g>
		<g>
			<g>
				
					<linearGradient id="SVGID_1_" gradientUnits="userSpaceOnUse" x1="91.2012" y1="-582.3003" x2="91.2012" y2="-567.3008" gradientTransform="matrix(1 0 0 -1 -83.2002 -566.8008)">
					<stop  offset="0" style="stop-color:#388E3C"/>
					<stop  offset="0.0757" style="stop-color:#43953E"/>
					<stop  offset="0.3246" style="stop-color:#62A943"/>
					<stop  offset="0.5665" style="stop-color:#79B747"/>
					<stop  offset="0.796" style="stop-color:#86C049"/>
					<stop  offset="1" style="stop-color:#8BC34A"/>
				</linearGradient>
				<polygon fill="url(#SVGID_1_)" points="2.381,15.5 2.381,0.5 13.619,0.5 13.619,11.281 9.4,15.5 				"/>
			</g>
			<polygon fill="#1B5E20" fill-opacity="0.39" points="13.619,11.281 13.619,11.1 9.169,11.1 9.169,15.5 9.4,15.5 			"/>
			<path fill="#FFFFFF" fill-opacity="0.3922" d="M9.395,11.281l4.226,0.006L9.4,15.5L9.395,11.281z"/>
		</g>
		<path opacity="0.8" fill="#FFFFFF" enable-background="new    " d="M8.278,3.813V3.8H7.723v0.013H4.138V10.8h7.725V3.813H8.278z
			 M4.693,5.887h1.725v1.116H4.693V5.887z M4.693,7.56h1.725v1.115H4.693V7.56z M6.992,7.56h4.314v1.115H6.992V7.56z M6.992,7.003
			V5.887h4.314v1.116H6.992z M11.307,4.374v0.959H6.992V4.374H11.307z M6.418,4.374v0.959H4.693V4.374H6.418z M4.693,9.236h1.725
			v1.003H4.693V9.236z M6.992,10.239V9.236h4.314v1.003H6.992z"/>
	</g>
</g>
<g>
	<g>
		<rect x="2.378" y="0.5" opacity="0.8" fill="#FFFFFF" enable-background="new    " width="11.245" height="2.875"/>
	</g>
	<g enable-background="new    ">
		<path fill="#38883B" d="M6.914,1.919c0,0.192-0.03,0.361-0.091,0.506C6.763,2.571,6.68,2.693,6.577,2.791
			C6.472,2.889,6.348,2.963,6.204,3.012C6.059,3.063,5.905,3.087,5.739,3.087c-0.161,0-0.313-0.024-0.456-0.075
			C5.14,2.963,5.015,2.889,4.909,2.791s-0.19-0.22-0.252-0.365S4.565,2.111,4.565,1.919s0.032-0.36,0.096-0.506
			s0.148-0.268,0.257-0.367C5.025,0.947,5.15,0.873,5.292,0.824c0.142-0.05,0.291-0.075,0.447-0.075
			c0.161,0,0.313,0.025,0.456,0.075C6.338,0.873,6.462,0.947,6.57,1.046c0.106,0.1,0.19,0.222,0.252,0.367
			C6.882,1.559,6.914,1.728,6.914,1.919z M5.113,1.919c0,0.11,0.015,0.209,0.043,0.297c0.028,0.089,0.068,0.165,0.122,0.228
			c0.054,0.064,0.118,0.113,0.195,0.147C5.55,2.627,5.639,2.645,5.739,2.645c0.098,0,0.186-0.018,0.264-0.053
			c0.079-0.034,0.145-0.083,0.198-0.147c0.053-0.063,0.094-0.139,0.122-0.228c0.028-0.088,0.043-0.188,0.043-0.297
			S6.351,1.71,6.323,1.621S6.253,1.455,6.201,1.391C6.147,1.328,6.082,1.278,6.002,1.244C5.924,1.209,5.836,1.192,5.739,1.192
			c-0.1,0-0.188,0.018-0.266,0.054S5.332,1.331,5.278,1.394c-0.054,0.064-0.094,0.14-0.122,0.229
			C5.127,1.713,5.113,1.812,5.113,1.919z"/>
		<path fill="#38883B" d="M9.422,1.919c0,0.194-0.033,0.363-0.096,0.508C9.262,2.572,9.172,2.691,9.055,2.786
			C8.939,2.881,8.797,2.952,8.629,3C8.46,3.047,8.272,3.07,8.063,3.07c-0.095,0-0.206-0.004-0.333-0.012
			C7.603,3.052,7.478,3.036,7.356,3.012V0.83c0.122-0.021,0.25-0.036,0.383-0.044c0.133-0.007,0.246-0.011,0.342-0.011
			c0.202,0,0.385,0.021,0.55,0.065c0.164,0.043,0.305,0.111,0.424,0.204c0.117,0.093,0.207,0.211,0.271,0.355
			C9.389,1.543,9.422,1.717,9.422,1.919z M7.886,2.631C7.912,2.633,7.94,2.635,7.973,2.636S8.045,2.637,8.09,2.637
			c0.266,0,0.462-0.063,0.591-0.19c0.127-0.127,0.191-0.303,0.191-0.527c0-0.235-0.061-0.413-0.184-0.533S8.374,1.205,8.108,1.205
			c-0.036,0-0.074,0-0.112,0.001C7.957,1.208,7.92,1.21,7.886,1.215V2.631z"/>
		<path fill="#38883B" d="M10.508,2.656c0.074,0,0.137-0.006,0.186-0.018s0.088-0.027,0.117-0.049
			c0.029-0.02,0.049-0.044,0.061-0.072c0.012-0.028,0.018-0.059,0.018-0.094c0-0.073-0.037-0.134-0.109-0.183
			s-0.197-0.101-0.375-0.157c-0.076-0.026-0.154-0.056-0.23-0.089C10.096,1.962,10.027,1.92,9.967,1.87
			c-0.063-0.051-0.111-0.112-0.15-0.185s-0.059-0.16-0.059-0.263c0-0.104,0.021-0.197,0.063-0.28S9.918,0.988,9.992,0.93
			c0.076-0.058,0.166-0.103,0.273-0.134c0.105-0.031,0.227-0.047,0.361-0.047c0.158,0,0.295,0.016,0.41,0.049
			c0.117,0.032,0.211,0.068,0.287,0.106L11.17,1.302c-0.064-0.033-0.139-0.061-0.219-0.086s-0.178-0.037-0.291-0.037
			c-0.127,0-0.219,0.017-0.273,0.05c-0.057,0.033-0.084,0.084-0.084,0.153c0,0.041,0.01,0.076,0.031,0.104
			c0.02,0.028,0.049,0.053,0.086,0.076c0.037,0.022,0.08,0.043,0.129,0.061c0.049,0.019,0.104,0.038,0.162,0.057
			c0.123,0.043,0.229,0.086,0.32,0.128c0.09,0.042,0.166,0.091,0.227,0.147s0.105,0.122,0.135,0.197
			c0.029,0.076,0.043,0.167,0.043,0.275c0,0.209-0.076,0.372-0.23,0.487s-0.387,0.173-0.697,0.173c-0.105,0-0.199-0.007-0.283-0.019
			s-0.158-0.025-0.223-0.043S9.881,2.99,9.834,2.971C9.789,2.951,9.75,2.933,9.717,2.916l0.15-0.401
			c0.07,0.036,0.156,0.069,0.26,0.099S10.357,2.656,10.508,2.656z"/>
	</g>
</g>
</svg>
