<?xml version="1.0" encoding="utf-8"?>
<!-- Generator: Adobe Illustrator 16.0.0, SVG Export Plug-In . SVG Version: 6.00 Build 0)  -->
<!DOCTYPE svg PUBLIC "-//W3C//DTD SVG 1.1//EN" "http://www.w3.org/Graphics/SVG/1.1/DTD/svg11.dtd">
<svg version="1.1" id="图层_1" xmlns="http://www.w3.org/2000/svg" xmlns:xlink="http://www.w3.org/1999/xlink" x="0px" y="0px"
	 width="16px" height="16px" viewBox="0 0 16 16" enable-background="new 0 0 16 16" xml:space="preserve">
<polygon fill="#0D47A1" points="1.881,16 1.881,0 14.119,0 14.119,11.496 9.544,16 "/>
<g>
	<g>
		<g>
			<g>
				<linearGradient id="SVGID_1_" gradientUnits="userSpaceOnUse" x1="8.0005" y1="15.5" x2="8.0005" y2="0.5005">
					<stop  offset="0" style="stop-color:#3F51B5"/>
					<stop  offset="1" style="stop-color:#64B5F6"/>
				</linearGradient>
				<polygon fill="url(#SVGID_1_)" points="2.381,15.5 2.381,0.5 13.619,0.5 13.619,11.281 9.4,15.5 				"/>
			</g>
			<polygon fill="#2196F3" fill-opacity="0.7" points="13.619,11.281 13.619,11.1 9.169,11.1 9.169,15.5 9.4,15.5 			"/>
			<path opacity="0.39" fill="#FFFFFF" d="M9.395,11.281l4.226,0.006L9.4,15.5L9.395,11.281z"/>
		</g>
		<g opacity="0.8">
			<linearGradient id="SVGID_2_" gradientUnits="userSpaceOnUse" x1="4.0469" y1="5.6167" x2="11.9473" y2="5.6167">
				<stop  offset="0" style="stop-color:#F6F5F5"/>
				<stop  offset="0.341" style="stop-color:#F1F2F3"/>
				<stop  offset="0.6434" style="stop-color:#E7EAEB"/>
				<stop  offset="0.9302" style="stop-color:#D5DBDF"/>
				<stop  offset="1" style="stop-color:#CFD7DB"/>
			</linearGradient>
			<rect x="4.047" y="5.421" opacity="0.8" fill="url(#SVGID_2_)" enable-background="new    " width="7.9" height="0.391"/>
			<linearGradient id="SVGID_3_" gradientUnits="userSpaceOnUse" x1="4.0469" y1="4.396" x2="11.9473" y2="4.396">
				<stop  offset="0" style="stop-color:#F6F5F5"/>
				<stop  offset="0.341" style="stop-color:#F1F2F3"/>
				<stop  offset="0.6434" style="stop-color:#E7EAEB"/>
				<stop  offset="0.9302" style="stop-color:#D5DBDF"/>
				<stop  offset="1" style="stop-color:#CFD7DB"/>
			</linearGradient>
			<rect x="4.047" y="4.2" opacity="0.8" fill="url(#SVGID_3_)" enable-background="new    " width="7.9" height="0.392"/>
			<linearGradient id="SVGID_4_" gradientUnits="userSpaceOnUse" x1="7.8159" y1="8.6328" x2="11.9414" y2="8.6328">
				<stop  offset="0" style="stop-color:#F6F5F5"/>
				<stop  offset="0.341" style="stop-color:#F1F2F3"/>
				<stop  offset="0.6434" style="stop-color:#E7EAEB"/>
				<stop  offset="0.9302" style="stop-color:#D5DBDF"/>
				<stop  offset="1" style="stop-color:#CFD7DB"/>
			</linearGradient>
			<rect x="7.816" y="6.571" opacity="0.8" fill="url(#SVGID_4_)" enable-background="new    " width="4.125" height="4.124"/>
			<g opacity="0.8">
				<linearGradient id="SVGID_5_" gradientUnits="userSpaceOnUse" x1="4.0469" y1="6.8374" x2="7.4785" y2="6.8374">
					<stop  offset="0" style="stop-color:#F6F5F5"/>
					<stop  offset="0.341" style="stop-color:#F1F2F3"/>
					<stop  offset="0.6434" style="stop-color:#E7EAEB"/>
					<stop  offset="0.9302" style="stop-color:#D5DBDF"/>
					<stop  offset="1" style="stop-color:#CFD7DB"/>
				</linearGradient>
				<rect x="4.047" y="6.642" fill="url(#SVGID_5_)" width="3.432" height="0.392"/>
				<linearGradient id="SVGID_6_" gradientUnits="userSpaceOnUse" x1="4.0469" y1="8.0586" x2="7.4785" y2="8.0586">
					<stop  offset="0" style="stop-color:#F6F5F5"/>
					<stop  offset="0.341" style="stop-color:#F1F2F3"/>
					<stop  offset="0.6434" style="stop-color:#E7EAEB"/>
					<stop  offset="0.9302" style="stop-color:#D5DBDF"/>
					<stop  offset="1" style="stop-color:#CFD7DB"/>
				</linearGradient>
				<rect x="4.047" y="7.864" fill="url(#SVGID_6_)" width="3.432" height="0.39"/>
				<linearGradient id="SVGID_7_" gradientUnits="userSpaceOnUse" x1="4.0469" y1="9.2842" x2="7.4785" y2="9.2842">
					<stop  offset="0" style="stop-color:#F6F5F5"/>
					<stop  offset="0.341" style="stop-color:#F1F2F3"/>
					<stop  offset="0.6434" style="stop-color:#E7EAEB"/>
					<stop  offset="0.9302" style="stop-color:#D5DBDF"/>
					<stop  offset="1" style="stop-color:#CFD7DB"/>
				</linearGradient>
				<rect x="4.047" y="9.089" fill="url(#SVGID_7_)" width="3.432" height="0.391"/>
				<linearGradient id="SVGID_8_" gradientUnits="userSpaceOnUse" x1="4.0469" y1="10.5049" x2="7.4785" y2="10.5049">
					<stop  offset="0" style="stop-color:#F6F5F5"/>
					<stop  offset="0.341" style="stop-color:#F1F2F3"/>
					<stop  offset="0.6434" style="stop-color:#E7EAEB"/>
					<stop  offset="0.9302" style="stop-color:#D5DBDF"/>
					<stop  offset="1" style="stop-color:#CFD7DB"/>
				</linearGradient>
				<rect x="4.047" y="10.31" fill="url(#SVGID_8_)" width="3.432" height="0.391"/>
			</g>
		</g>
	</g>
	<g>
		<rect x="2.37" y="0.5" opacity="0.8" fill="#FFFFFF" width="11.244" height="2.875"/>
	</g>
	<g>
		<path fill="#1976D2" d="M5.73,0.788c0.354,0,0.625,0.06,0.813,0.18s0.283,0.306,0.283,0.558c0,0.157-0.038,0.285-0.114,0.383
			S6.526,2.083,6.384,2.14c0.047,0.056,0.097,0.12,0.149,0.192S6.637,2.48,6.688,2.559c0.051,0.079,0.101,0.16,0.148,0.246
			c0.047,0.085,0.092,0.168,0.132,0.25H6.375C6.332,2.981,6.288,2.907,6.244,2.832C6.2,2.756,6.154,2.683,6.107,2.612
			C6.061,2.541,6.015,2.473,5.969,2.41C5.923,2.346,5.878,2.289,5.833,2.237H5.57v0.818H5.04V0.846
			C5.155,0.825,5.275,0.81,5.398,0.801C5.522,0.792,5.633,0.788,5.73,0.788z M5.761,1.218c-0.039,0-0.073,0.001-0.104,0.003
			C5.626,1.224,5.598,1.226,5.57,1.228v0.608h0.15c0.199,0,0.342-0.024,0.429-0.071c0.086-0.047,0.129-0.128,0.129-0.243
			c0-0.11-0.044-0.188-0.131-0.234S5.931,1.218,5.761,1.218z"/>
		<path fill="#1976D2" d="M9.025,0.814v0.43H8.313v1.811H7.782V1.244H7.071v-0.43H9.025z"/>
		<path fill="#1976D2" d="M9.365,3.055V0.814h1.58v0.424H9.896v0.469h0.932V2.13H9.896v0.925H9.365z"/>
	</g>
</g>
</svg>
