<?xml version="1.0" encoding="utf-8"?>
<!-- Generator: Adobe Illustrator 16.0.0, SVG Export Plug-In . SVG Version: 6.00 Build 0)  -->
<!DOCTYPE svg PUBLIC "-//W3C//DTD SVG 1.1//EN" "http://www.w3.org/Graphics/SVG/1.1/DTD/svg11.dtd">
<svg version="1.1" id="图层_1" xmlns="http://www.w3.org/2000/svg" xmlns:xlink="http://www.w3.org/1999/xlink" x="0px" y="0px"
	 width="16px" height="16px" viewBox="0 0 16 16" enable-background="new 0 0 16 16" xml:space="preserve">
<g>
	
		<linearGradient id="SVGID_1_" gradientUnits="userSpaceOnUse" x1="216.001" y1="-1717.9512" x2="216.001" y2="-1701.9512" gradientTransform="matrix(1 0 0 -1 -208.0005 -1701.9512)">
		<stop  offset="0" style="stop-color:#512DA8"/>
		<stop  offset="0.008" style="stop-color:#D32F2F"/>
		<stop  offset="0.3041" style="stop-color:#E33932"/>
		<stop  offset="0.6579" style="stop-color:#F04035"/>
		<stop  offset="1" style="stop-color:#F44336"/>
	</linearGradient>
	<path fill="url(#SVGID_1_)" d="M9.5,16l4.5-4.5V0H2v16H9.5z"/>
	<polygon fill="#B71C1C" fill-opacity="0.3922" points="9.25,11.25 9.25,16 9.5,16 14,11.5 14,11.25 	"/>
	<path fill="#FFFFFF" fill-opacity="0.3922" d="M9.5,11.5h4.496L9.5,16V11.5z"/>
	<path opacity="0.8" fill="#FFFFFF" d="M6,9.835V6.147L5.285,6.743L4.666,5.521L6.13,4.335H7c0.568,0.355,1.516,0.301,2,0h0.834
		l1.5,1.131l-0.617,1.221L10,6.056v3.779H6z"/>
	<g>
		<path fill="#B71C1C" d="M13.5,0.5v10.793L9.293,15.5H6H2.5v-15H13.5 M14,0H2v16h4h3.5l4.5-4.5V0L14,0z"/>
	</g>
</g>
</svg>
