<?xml version="1.0" encoding="utf-8"?>
<!-- Generator: Adobe Illustrator 16.0.0, SVG Export Plug-In . SVG Version: 6.00 Build 0)  -->
<!DOCTYPE svg PUBLIC "-//W3C//DTD SVG 1.1//EN" "http://www.w3.org/Graphics/SVG/1.1/DTD/svg11.dtd">
<svg version="1.1" id="图层_1" xmlns="http://www.w3.org/2000/svg" xmlns:xlink="http://www.w3.org/1999/xlink" x="0px" y="0px"
	 width="16px" height="16px" viewBox="0 0 16 16" enable-background="new 0 0 16 16" xml:space="preserve">
<polygon fill="#01579B" points="1.881,16 1.881,0 14.119,0 14.119,11.495 9.545,16 "/>
<g>
	<g>
		<g>
			<g>
				
					<linearGradient id="SVGID_1_" gradientUnits="userSpaceOnUse" x1="91.2012" y1="-582.3003" x2="91.2012" y2="-567.3008" gradientTransform="matrix(1 0 0 -1 -83.2002 -566.8008)">
					<stop  offset="0" style="stop-color:#2196F3"/>
					<stop  offset="0.5828" style="stop-color:#3DBAE8"/>
					<stop  offset="1" style="stop-color:#4DD0E1"/>
				</linearGradient>
				<polygon fill="url(#SVGID_1_)" points="2.381,15.5 2.381,0.5 13.619,0.5 13.619,11.281 9.4,15.5 				"/>
			</g>
			<polygon fill="#01579B" fill-opacity="0.39" points="13.619,11.281 13.619,11.1 9.169,11.1 9.169,15.5 9.4,15.5 			"/>
			<path fill="#FFFFFF" fill-opacity="0.3922" d="M9.395,11.281l4.226,0.006L9.4,15.5L9.395,11.281z"/>
		</g>
		<g>
			<circle opacity="0.8" fill="#FFFFFF" enable-background="new    " cx="9.994" cy="6.531" r="0.794"/>
			<path opacity="0.8" fill="#FFFFFF" enable-background="new    " d="M4.094,4.875V10h7.813V4.875H4.094z M11.344,5.438v4l0,0
				L9.531,8.15L8.237,8.943L6.575,6.938l-1.919,2.5v-4H11.344z"/>
		</g>
	</g>
	<g>
		<rect x="2.378" y="0.5" opacity="0.8" fill="#FFFFFF" enable-background="new    " width="11.245" height="2.875"/>
		<g enable-background="new    ">
			<path fill="#0288D1" d="M6.576,0.801v0.43H5.865v1.811H5.334V1.231H4.623v-0.43H6.576z"/>
			<path fill="#0288D1" d="M7.988,1.189c-0.246,0-0.426,0.065-0.535,0.195c-0.11,0.131-0.165,0.309-0.165,0.535
				c0,0.11,0.013,0.21,0.04,0.299S7.396,2.385,7.451,2.45C7.505,2.515,7.574,2.564,7.655,2.6c0.082,0.036,0.177,0.053,0.286,0.053
				C8,2.653,8.05,2.652,8.092,2.65c0.042-0.002,0.079-0.006,0.11-0.013V1.858h0.532v1.109C8.67,2.991,8.568,3.016,8.427,3.043
				C8.287,3.07,8.113,3.083,7.907,3.083c-0.177,0-0.337-0.026-0.481-0.078S7.158,2.879,7.056,2.78
				C6.954,2.681,6.875,2.559,6.819,2.414C6.764,2.27,6.736,2.105,6.736,1.919c0-0.188,0.031-0.354,0.092-0.498
				C6.889,1.277,6.973,1.155,7.08,1.055c0.107-0.1,0.232-0.176,0.377-0.228C7.6,0.775,7.753,0.749,7.917,0.749
				c0.111,0,0.211,0.007,0.301,0.021C8.308,0.784,8.384,0.8,8.45,0.819c0.064,0.018,0.119,0.037,0.16,0.057
				C8.652,0.895,8.682,0.91,8.699,0.92L8.547,1.325C8.474,1.288,8.39,1.256,8.296,1.229C8.203,1.202,8.099,1.189,7.988,1.189z"/>
			<path fill="#0288D1" d="M10.811,3.042c-0.027-0.078-0.055-0.158-0.086-0.24c-0.029-0.082-0.061-0.164-0.09-0.245H9.713
				C9.684,2.638,9.654,2.72,9.625,2.802C9.594,2.884,9.566,2.964,9.541,3.042H8.99C9.078,2.8,9.162,2.577,9.242,2.372
				C9.322,2.167,9.4,1.975,9.477,1.793s0.15-0.353,0.225-0.516s0.15-0.322,0.23-0.477h0.504c0.076,0.155,0.152,0.314,0.229,0.477
				c0.074,0.163,0.15,0.334,0.227,0.516s0.154,0.374,0.234,0.579c0.08,0.205,0.164,0.428,0.254,0.669H10.811z M10.172,1.309
				c-0.012,0.032-0.029,0.077-0.053,0.133c-0.021,0.056-0.049,0.121-0.076,0.194C10.014,1.709,9.98,1.79,9.945,1.878
				C9.908,1.966,9.871,2.059,9.834,2.156h0.676c-0.037-0.097-0.072-0.19-0.105-0.279c-0.033-0.088-0.066-0.169-0.096-0.243
				c-0.031-0.074-0.059-0.138-0.08-0.194C10.205,1.384,10.186,1.34,10.172,1.309z"/>
		</g>
	</g>
</g>
</svg>
