<?xml version="1.0" encoding="utf-8"?>
<!-- Generator: Adobe Illustrator 21.0.0, SVG Export Plug-In . SVG Version: 6.00 Build 0)  -->
<svg version="1.1" id="图层_1" xmlns="http://www.w3.org/2000/svg" xmlns:xlink="http://www.w3.org/1999/xlink" x="0px" y="0px"
	 viewBox="0 0 16 16" style="enable-background:new 0 0 16 16;" xml:space="preserve">
<style type="text/css">
	.st0{fill:url(#SVGID_1_);}
	.st1{fill:#607D8B;}
	.st2{opacity:0.8;fill:#607D8B;enable-background:new    ;}
	.st3{opacity:0.8;fill:#A0B1B9;enable-background:new    ;}
</style>
<g>
	<g>
		
			<linearGradient id="SVGID_1_" gradientUnits="userSpaceOnUse" x1="8" y1="-777.5" x2="8" y2="-762.5" gradientTransform="matrix(1 0 0 -1 0 -762)">
			<stop  offset="0" style="stop-color:#CFD7DB"/>
			<stop  offset="0.0698" style="stop-color:#D5DBDF"/>
			<stop  offset="0.3566" style="stop-color:#E7EAEB"/>
			<stop  offset="0.659" style="stop-color:#F1F2F3"/>
			<stop  offset="1" style="stop-color:#F6F5F5"/>
		</linearGradient>
		<polygon class="st0" points="13.5,15.5 13.5,11 13.5,0.5 2.5,0.5 2.5,15.5 		"/>
		<path class="st1" d="M13.5,0.5v15h-11v-15H13.5 M14,0L14,0h-0.5h-11H2v0.5V16h7.3H14V0z"/>
	</g>
</g>
<g>
	<g>
		<rect x="4" y="3" class="st2" width="3" height="1"/>
		<rect x="7" y="3" class="st2" width="5" height="1"/>
	</g>
	<g>
		<rect x="4" y="5" class="st3" width="3" height="1"/>
		<rect x="4" y="7" class="st3" width="3" height="1"/>
		<rect x="4" y="9" class="st3" width="3" height="1"/>
		<rect x="4" y="11" class="st3" width="5" height="1"/>
		<rect x="7" y="5" class="st3" width="5" height="1"/>
	</g>
	<g>
		<rect x="7" y="7" class="st3" width="5" height="1"/>
	</g>
	<g>
		<rect x="7" y="9" class="st3" width="5" height="1"/>
	</g>
</g>
</svg>
