<?xml version="1.0" encoding="utf-8"?>
<!-- Generator: Adobe Illustrator 16.0.0, SVG Export Plug-In . SVG Version: 6.00 Build 0)  -->
<!DOCTYPE svg PUBLIC "-//W3C//DTD SVG 1.1//EN" "http://www.w3.org/Graphics/SVG/1.1/DTD/svg11.dtd">
<svg version="1.1" id="图层_1" xmlns="http://www.w3.org/2000/svg" xmlns:xlink="http://www.w3.org/1999/xlink" x="0px" y="0px"
	 width="16px" height="16px" viewBox="0 0 16 16" enable-background="new 0 0 16 16" xml:space="preserve">
<rect x="1.881" fill="#1B5E20" width="12.238" height="16"/>
<g>
	
		<linearGradient id="SVGID_1_" gradientUnits="userSpaceOnUse" x1="91.1992" y1="840.3008" x2="91.1992" y2="825.3008" gradientTransform="matrix(1 0 0 1 -83.2002 -824.8008)">
		<stop  offset="0" style="stop-color:#388E3C"/>
		<stop  offset="0.0757" style="stop-color:#43953E"/>
		<stop  offset="0.3246" style="stop-color:#62A943"/>
		<stop  offset="0.5665" style="stop-color:#79B747"/>
		<stop  offset="0.796" style="stop-color:#86C049"/>
		<stop  offset="1" style="stop-color:#8BC34A"/>
	</linearGradient>
	<rect x="2.381" y="0.5" fill="url(#SVGID_1_)" width="11.238" height="15"/>
	<path opacity="0.8" fill="#FFFFFF" enable-background="new    " d="M8.287,5.264V5.251H7.713v0.013H4v7.238h8V5.264H8.287z
		 M4.575,7.413h1.787v1.156H4.575V7.413z M4.575,9.146h1.787v1.156H4.575V9.146z M6.956,9.146h4.469v1.156H6.956V9.146z
		 M6.956,8.569V7.413h4.469v1.156H6.956z M11.425,5.845v0.994H6.956V5.845H11.425z M6.362,5.845v0.994H4.575V5.845H6.362z
		 M4.575,10.883h1.787v1.038H4.575V10.883z M6.956,11.921v-1.038h4.469v1.038H6.956z"/>
	<g>
		<rect x="2.378" y="0.5" opacity="0.8" fill="#FFFFFF" width="11.244" height="2.875"/>
	</g>
	<text transform="matrix(1.0526 0 0 1 4.6597 3.0415)" fill="#388E3C" font-family="'Ubuntu-Bold'" font-size="3.2332">OTS</text>
</g>
</svg>
