<?xml version="1.0" encoding="utf-8"?>
<!-- Generator: Adobe Illustrator 16.0.0, SVG Export Plug-In . SVG Version: 6.00 Build 0)  -->
<!DOCTYPE svg PUBLIC "-//W3C//DTD SVG 1.1//EN" "http://www.w3.org/Graphics/SVG/1.1/DTD/svg11.dtd">
<svg version="1.1" id="图层_1" xmlns="http://www.w3.org/2000/svg" xmlns:xlink="http://www.w3.org/1999/xlink" x="0px" y="0px"
	 width="16px" height="16px" viewBox="0 0 16 16" enable-background="new 0 0 16 16" xml:space="preserve">
<polygon fill="#3E2723" points="1.881,16 1.881,0 14.119,0 14.119,11.496 9.544,16 "/>
<g>
	<g>
		
			<linearGradient id="SVGID_1_" gradientUnits="userSpaceOnUse" x1="49.5996" y1="-148.4004" x2="49.5996" y2="-163.4009" gradientTransform="matrix(1 0 0 -1 -41.6001 -147.9004)">
			<stop  offset="0" style="stop-color:#785548"/>
			<stop  offset="1" style="stop-color:#9F9E9F"/>
		</linearGradient>
		<polygon fill="url(#SVGID_1_)" points="2.38,15.5 2.38,0.5 13.619,0.5 13.619,11.275 9.441,15.5 		"/>
		<polygon fill="#795548" fill-opacity="0.7" points="13.619,11.281 13.619,11.1 9.17,11.1 9.17,15.5 9.4,15.5 		"/>
		<path opacity="0.39" fill="#FFFFFF" enable-background="new    " d="M9.395,11.281l4.225,0.006L9.4,15.5L9.395,11.281z"/>
	</g>
	<path fill="#FFFFFF" d="M6.396,3.392h-0.38v4.871H5.728V3.392H5.35v4.871H5.063V3.392H4.684v4.871H4.396V3.392H4.018v4.871H3.918
		v2.063h2.607V8.263h-0.13V3.392z M6.146,9.727h-1.85V8.53h1.85V9.727z"/>
	<g>
		<rect x="2.378" y="0.5" opacity="0.8" fill="#FFFFFF" enable-background="new    " width="11.243" height="2.875"/>
		<g enable-background="new    ">
			<path fill="#5D4037" d="M4.285,2.674c0.074,0,0.137-0.006,0.186-0.018C4.52,2.644,4.559,2.627,4.588,2.607
				c0.029-0.021,0.05-0.045,0.062-0.073C4.66,2.506,4.666,2.475,4.666,2.44c0-0.073-0.036-0.134-0.109-0.183
				C4.484,2.209,4.359,2.157,4.183,2.101C4.105,2.075,4.028,2.045,3.951,2.012S3.805,1.937,3.744,1.886
				c-0.062-0.051-0.111-0.112-0.15-0.185c-0.038-0.072-0.058-0.16-0.058-0.263c0-0.104,0.021-0.197,0.062-0.28
				s0.099-0.154,0.173-0.212c0.075-0.058,0.166-0.103,0.272-0.134s0.228-0.047,0.361-0.047c0.158,0,0.296,0.016,0.411,0.049
				c0.116,0.032,0.211,0.068,0.286,0.106L4.948,1.319C4.883,1.286,4.81,1.258,4.729,1.233c-0.08-0.025-0.177-0.037-0.29-0.037
				c-0.128,0-0.219,0.017-0.274,0.05C4.108,1.279,4.081,1.331,4.081,1.399c0,0.041,0.01,0.076,0.03,0.104S4.16,1.556,4.198,1.579
				c0.037,0.022,0.08,0.043,0.129,0.061C4.376,1.659,4.43,1.678,4.489,1.697C4.611,1.74,4.718,1.783,4.809,1.825
				s0.167,0.091,0.227,0.147C5.096,2.028,5.141,2.094,5.17,2.169c0.029,0.076,0.044,0.167,0.044,0.274
				c0,0.209-0.077,0.371-0.231,0.486C4.828,3.046,4.596,3.104,4.285,3.104c-0.104,0-0.199-0.006-0.283-0.018
				S3.844,3.059,3.779,3.042s-0.12-0.036-0.167-0.056C3.566,2.968,3.527,2.949,3.495,2.932l0.15-0.4
				c0.07,0.037,0.156,0.069,0.26,0.099C4.009,2.658,4.135,2.674,4.285,2.674z"/>
			<path fill="#5D4037" d="M7.045,0.817h0.53v2.241h-0.53V2.107H6.153v0.951H5.622V0.817h0.531v0.857h0.892V0.817z"/>
			<path fill="#5D4037" d="M9.702,3.059C9.677,2.98,9.648,2.9,9.618,2.818s-0.061-0.164-0.09-0.245H8.606
				c-0.029,0.081-0.06,0.163-0.09,0.245C8.487,2.9,8.46,2.98,8.434,3.059H7.882c0.089-0.242,0.174-0.465,0.253-0.67
				C8.214,2.184,8.292,1.991,8.368,1.81s0.152-0.353,0.226-0.516c0.074-0.163,0.151-0.322,0.23-0.477h0.503
				c0.078,0.155,0.154,0.314,0.229,0.477S9.708,1.629,9.784,1.81s0.154,0.374,0.234,0.579c0.08,0.205,0.164,0.428,0.253,0.67H9.702z
				 M9.065,1.325C9.053,1.357,9.036,1.402,9.013,1.458C8.99,1.514,8.964,1.579,8.935,1.652C8.905,1.726,8.873,1.806,8.837,1.895
				C8.802,1.983,8.765,2.075,8.728,2.172h0.674c-0.035-0.097-0.07-0.19-0.104-0.279C9.263,1.805,9.231,1.724,9.2,1.651
				C9.17,1.577,9.144,1.513,9.12,1.457C9.098,1.401,9.079,1.357,9.065,1.325z"/>
			<path fill="#5D4037" d="M11.265,0.792c0.354,0,0.625,0.06,0.813,0.18s0.282,0.306,0.282,0.558c0,0.157-0.037,0.285-0.113,0.383
				s-0.186,0.175-0.328,0.231c0.047,0.056,0.097,0.12,0.148,0.192c0.053,0.072,0.104,0.147,0.156,0.227
				c0.051,0.078,0.1,0.16,0.147,0.245s0.092,0.169,0.133,0.251H11.91c-0.044-0.074-0.087-0.148-0.132-0.224
				c-0.044-0.075-0.09-0.148-0.137-0.22s-0.092-0.139-0.139-0.202c-0.045-0.063-0.09-0.121-0.136-0.173h-0.263v0.818h-0.53V0.85
				c0.116-0.021,0.235-0.037,0.358-0.045C11.057,0.796,11.167,0.792,11.265,0.792z M11.296,1.222c-0.039,0-0.074,0.001-0.104,0.003
				c-0.031,0.002-0.061,0.004-0.088,0.006v0.608h0.15c0.199,0,0.342-0.024,0.429-0.071c0.086-0.047,0.13-0.128,0.13-0.243
				c0-0.11-0.045-0.188-0.132-0.234S11.466,1.222,11.296,1.222z"/>
		</g>
	</g>
</g>
</svg>
