<?xml version="1.0" encoding="utf-8"?>
<!-- Generator: Adobe Illustrator 21.0.0, SVG Export Plug-In . SVG Version: 6.00 Build 0)  -->
<svg version="1.1" id="图层_1" xmlns="http://www.w3.org/2000/svg" xmlns:xlink="http://www.w3.org/1999/xlink" x="0px" y="0px"
	 viewBox="0 0 16 16" style="enable-background:new 0 0 16 16;" xml:space="preserve">
<style type="text/css">
	.st0{fill:url(#SVGID_1_);}
	.st1{fill:#EE6F0B;}
	.st2{fill:#EE6F0B;fill-opacity:0.39;}
	.st3{fill:#FFFFFF;fill-opacity:0.39;}
	.st4{opacity:0.8;fill:#FFFFFF;enable-background:new    ;}
</style>
<title>application-certificate</title>
<linearGradient id="SVGID_1_" gradientUnits="userSpaceOnUse" x1="8" y1="-3.5" x2="8" y2="11.5" gradientTransform="matrix(1 0 0 -1 0 12)">
	<stop  offset="0" style="stop-color:#F57C00"/>
	<stop  offset="0.1" style="stop-color:#F78B0C"/>
	<stop  offset="0.33" style="stop-color:#FAA823"/>
	<stop  offset="0.56" style="stop-color:#FDBC33"/>
	<stop  offset="0.78" style="stop-color:#FEC93D"/>
	<stop  offset="1" style="stop-color:#FFCD40"/>
</linearGradient>
<polygon class="st0" points="9.4,15.5 13.5,11.3 13.5,0.5 2.5,0.5 2.5,15.5 "/>
<path class="st1" d="M13.5,0.5V11L9,15.5H2.5v-15H13.5 M14,0H2v16h7.5l0.1-0.1l4.2-4.2l0.1-0.1V0H14z"/>
<polygon class="st2" points="13.5,11 13.5,11 9,11 9,15.5 9,15.5 "/>
<path class="st3" d="M9,11h4.5L9,15.5V11z"/>
<path class="st4" d="M8,2C7.7,2,7.4,2.2,7.3,2.5c-0.2-0.2-0.6-0.2-0.8,0C6.2,2.6,6.1,2.9,6.1,3.2c-0.3,0-0.6,0.1-0.7,0.4
	c-0.2,0.3-0.2,0.6,0,0.8C5,4.6,4.8,5,5,5.4c0.1,0.2,0.2,0.3,0.4,0.4C5.2,6,5.2,6.3,5.4,6.6C5.5,6.9,5.8,7,6.1,7
	c0,0.3,0.1,0.6,0.4,0.7C6.7,7.8,6.8,7.8,7,7.8V11l1-1l1,1V7.8c0.2,0,0.3,0,0.5-0.1C9.8,7.5,9.9,7.3,9.9,7c0.3,0,0.6-0.1,0.7-0.4
	c0.2-0.3,0.2-0.6,0-0.8c0.4-0.2,0.5-0.6,0.4-1c-0.1-0.2-0.2-0.3-0.4-0.4c0.2-0.3,0.2-0.6,0-0.8c-0.1-0.3-0.4-0.4-0.7-0.4
	c0-0.3-0.1-0.6-0.4-0.7c-0.2-0.2-0.6-0.2-0.8,0C8.5,2.1,8.3,2,8,2z M8,3.1C9,3.1,9.9,4,9.9,5S9.1,6.9,8,6.9C7,6.9,6.1,6.1,6.1,5
	c0,0,0,0,0-0.1C6.1,4,7,3.1,8,3.1z M8,4C7.4,4,7,4.4,7,5s0.4,1,1,1s1-0.4,1-1S8.6,4,8,4z"/>
</svg>
