<?xml version="1.0" encoding="utf-8"?>
<!-- Generator: Adobe Illustrator 21.0.0, SVG Export Plug-In . SVG Version: 6.00 Build 0)  -->
<svg version="1.1" id="图层_1" xmlns="http://www.w3.org/2000/svg" xmlns:xlink="http://www.w3.org/1999/xlink" x="0px" y="0px"
	 viewBox="0 0 16 16" style="enable-background:new 0 0 16 16;" xml:space="preserve">
<style type="text/css">
	.st0{fill:url(#SVGID_1_);}
	.st1{fill:#0D47A1;}
	.st2{fill:#2196F3;fill-opacity:0.7;}
	.st3{fill:#FFFFFF;fill-opacity:0.39;}
	.st4{opacity:0.8;fill:#FFFFFF;enable-background:new    ;}
</style>
<title>application-vector</title>
<linearGradient id="SVGID_1_" gradientUnits="userSpaceOnUse" x1="8" y1="-3.5" x2="8" y2="11.5" gradientTransform="matrix(1 0 0 -1 0 12)">
	<stop  offset="0" style="stop-color:#3F51B5"/>
	<stop  offset="1" style="stop-color:#64B5F6"/>
</linearGradient>
<polygon class="st0" points="9.4,15.5 13.5,11.3 13.5,0.5 2.5,0.5 2.5,15.5 "/>
<path class="st1" d="M13.5,0.5V11L9,15.5H2.5v-15H13.5 M14,0H2v16h7.5l0.1-0.1l4.2-4.2l0.1-0.1V0H14z"/>
<polygon class="st2" points="13.5,11 13.5,11 9,11 9,15.5 9,15.5 "/>
<path class="st3" d="M9,11h4.5L9,15.5V11z"/>
<path class="st4" d="M11.2,2c-0.3,0-0.6,0.2-0.8,0.5h-3c-0.5,0-1,0.1-1.4,0.2C5.2,3,4.7,3.8,4.7,4.7S5.2,6.4,6,6.8
	C6.3,6.9,6.5,7,6.8,7v0.1L5.6,8.2H5.5c-0.3,0-0.4,0.1-0.4,0.4S5.2,9,5.5,9s0.4-0.1,0.4-0.4V8.5L7,7.4h1.5V6.8h0.4
	c0.3,0,0.6,0.1,0.9,0.2c0.5,0.2,0.8,0.8,0.8,1.3c0,0.6-0.3,1.1-0.8,1.3c-0.3,0.2-0.7,0.2-1,0.2h-3C5.6,9.6,5.3,9.5,5,9.6
	c-0.4,0-0.8,0.3-0.9,0.7C4.2,10.7,4.6,11,5,11c0.3,0,0.6-0.2,0.8-0.5h3c0.5,0,1-0.1,1.4-0.2c0.8-0.3,1.3-1.1,1.3-2s-0.5-1.6-1.3-2
	C9.8,6.1,9.3,6,8.9,6H8.5l1.2-1.1h0.1c0.3,0,0.4-0.1,0.4-0.4c0-0.2-0.2-0.4-0.4-0.4c-0.3,0-0.4,0.1-0.4,0.4v0.1L8.2,5.7H6.8v0.4
	C6.7,6.1,6.5,6,6.3,6C5.8,5.7,5.4,5.2,5.5,4.6c0-0.6,0.3-1.1,0.8-1.3c0.3-0.2,0.7-0.2,1-0.2h3c0.2,0.3,0.5,0.4,0.8,0.4
	c0.5,0.1,0.9-0.3,1-0.7C12.1,2.2,11.7,2,11.2,2z"/>
</svg>
