<?xml version="1.0" encoding="utf-8"?>
<!-- Generator: Adobe Illustrator 16.0.0, SVG Export Plug-In . SVG Version: 6.00 Build 0)  -->
<!DOCTYPE svg PUBLIC "-//W3C//DTD SVG 1.1//EN" "http://www.w3.org/Graphics/SVG/1.1/DTD/svg11.dtd">
<svg version="1.1" id="图层_1" xmlns="http://www.w3.org/2000/svg" xmlns:xlink="http://www.w3.org/1999/xlink" x="0px" y="0px"
	 width="16px" height="16px" viewBox="0 0 16 16" enable-background="new 0 0 16 16" xml:space="preserve">
<polygon fill="#01579B" points="1.881,16 1.881,0 14.119,0 14.119,11.495 9.545,16 "/>
<g>
	<g>
		<g>
			
				<linearGradient id="SVGID_1_" gradientUnits="userSpaceOnUse" x1="91.2012" y1="-582.3003" x2="91.2012" y2="-567.3008" gradientTransform="matrix(1 0 0 -1 -83.2002 -566.8008)">
				<stop  offset="0" style="stop-color:#2196F3"/>
				<stop  offset="0.5828" style="stop-color:#3DBAE8"/>
				<stop  offset="1" style="stop-color:#4DD0E1"/>
			</linearGradient>
			<polygon fill="url(#SVGID_1_)" points="2.381,15.5 2.381,0.5 13.619,0.5 13.619,11.281 9.4,15.5 			"/>
		</g>
		<polygon fill="#01579B" fill-opacity="0.39" points="13.619,11.281 13.619,11.1 9.169,11.1 9.169,15.5 9.4,15.5 		"/>
		<path fill="#FFFFFF" fill-opacity="0.3922" d="M9.395,11.281l4.226,0.006L9.4,15.5L9.395,11.281z"/>
	</g>
	<g>
		<circle opacity="0.8" fill="#FFFFFF" enable-background="new    " cx="9.994" cy="6.531" r="0.794"/>
		<path opacity="0.8" fill="#FFFFFF" enable-background="new    " d="M4.094,4.875V10h7.813V4.875H4.094z M11.344,5.438v4l0,0
			L9.531,8.15L8.237,8.943L6.575,6.938l-1.919,2.5v-4H11.344z"/>
	</g>
</g>
<g>
	<rect x="2.378" y="0.5" opacity="0.8" fill="#FFFFFF" enable-background="new    " width="11.245" height="2.875"/>
	<g enable-background="new    ">
		<path fill="#0288D1" d="M5.216,3.07c-0.129,0-0.258-0.004-0.386-0.012c-0.129-0.007-0.262-0.024-0.4-0.053V0.833
			C4.54,0.814,4.659,0.799,4.788,0.789s0.25-0.014,0.36-0.014c0.15,0,0.288,0.01,0.414,0.03S5.796,0.861,5.887,0.91
			c0.09,0.051,0.161,0.115,0.212,0.196c0.052,0.081,0.077,0.181,0.077,0.299c0,0.179-0.091,0.32-0.272,0.424
			c0.149,0.054,0.252,0.127,0.307,0.22c0.054,0.093,0.081,0.197,0.081,0.313c0,0.235-0.09,0.412-0.271,0.53
			C5.841,3.012,5.573,3.07,5.216,3.07z M4.948,1.68h0.259c0.163,0,0.28-0.02,0.351-0.059c0.07-0.041,0.105-0.104,0.105-0.193
			c0-0.09-0.037-0.154-0.109-0.19s-0.179-0.055-0.32-0.055c-0.045,0-0.094,0.001-0.146,0.001c-0.053,0.002-0.099,0.004-0.14,0.008
			V1.68z M4.948,2.064v0.58c0.038,0.004,0.08,0.007,0.126,0.009c0.045,0.003,0.095,0.003,0.149,0.003
			c0.159,0,0.287-0.021,0.385-0.064s0.146-0.123,0.146-0.238c0-0.104-0.041-0.178-0.123-0.223C5.55,2.088,5.433,2.064,5.281,2.064
			H4.948z"/>
		<path fill="#0288D1" d="M7.343,0.801C7.384,0.872,7.432,0.96,7.485,1.064c0.054,0.104,0.109,0.218,0.167,0.34
			C7.71,1.525,7.768,1.65,7.825,1.777s0.11,0.246,0.16,0.359c0.05-0.113,0.104-0.232,0.16-0.359C8.203,1.65,8.259,1.525,8.318,1.404
			c0.058-0.122,0.113-0.235,0.167-0.34C8.539,0.96,8.586,0.872,8.627,0.801h0.482c0.023,0.148,0.045,0.315,0.064,0.5
			c0.02,0.184,0.035,0.376,0.051,0.575c0.014,0.199,0.027,0.399,0.041,0.6c0.012,0.2,0.023,0.39,0.031,0.565H8.779
			C8.773,2.824,8.764,2.587,8.754,2.33C8.742,2.074,8.725,1.814,8.701,1.555c-0.041,0.09-0.086,0.19-0.137,0.301
			C8.516,1.965,8.465,2.074,8.417,2.185S8.32,2.4,8.275,2.5C8.229,2.6,8.191,2.686,8.159,2.757H7.788
			C7.755,2.686,7.717,2.6,7.671,2.5C7.626,2.4,7.579,2.295,7.53,2.185s-0.099-0.22-0.148-0.329c-0.05-0.11-0.096-0.211-0.137-0.301
			c-0.022,0.26-0.039,0.52-0.051,0.775C7.182,2.587,7.173,2.824,7.167,3.041H6.649c0.01-0.176,0.021-0.365,0.032-0.565
			c0.013-0.2,0.026-0.4,0.041-0.6s0.032-0.392,0.052-0.575c0.019-0.185,0.04-0.352,0.063-0.5H7.343z"/>
		<path fill="#0288D1" d="M10.479,0.775c0.352,0,0.621,0.059,0.811,0.176c0.188,0.117,0.281,0.311,0.281,0.577
			c0,0.27-0.094,0.464-0.285,0.583c-0.191,0.12-0.463,0.18-0.816,0.18h-0.168v0.75H9.771V0.833c0.115-0.021,0.236-0.036,0.367-0.045
			C10.268,0.779,10.381,0.775,10.479,0.775z M10.512,1.205c-0.037,0-0.076,0.001-0.113,0.004c-0.037,0.002-0.07,0.004-0.098,0.006
			v0.646h0.168c0.184,0,0.322-0.023,0.414-0.071c0.094-0.048,0.141-0.136,0.141-0.265c0-0.063-0.012-0.114-0.037-0.155
			c-0.023-0.041-0.057-0.074-0.102-0.099c-0.043-0.025-0.098-0.042-0.162-0.052C10.66,1.21,10.59,1.205,10.512,1.205z"/>
	</g>
</g>
</svg>
