<?xml version="1.0" encoding="utf-8"?>
<!-- Generator: Adobe Illustrator 16.0.0, SVG Export Plug-In . SVG Version: 6.00 Build 0)  -->
<!DOCTYPE svg PUBLIC "-//W3C//DTD SVG 1.1//EN" "http://www.w3.org/Graphics/SVG/1.1/DTD/svg11.dtd">
<svg version="1.1" id="图层_1" xmlns="http://www.w3.org/2000/svg" xmlns:xlink="http://www.w3.org/1999/xlink" x="0px" y="0px"
	 width="16px" height="16px" viewBox="0 0 16 16" enable-background="new 0 0 16 16" xml:space="preserve">
<polygon fill="#0D47A1" points="1.881,16 1.881,0 14.119,0 14.119,11.495 9.545,16 "/>
<g>
	<g>
		<g>
			<g>
				
					<linearGradient id="SVGID_1_" gradientUnits="userSpaceOnUse" x1="91.1992" y1="840.3008" x2="91.1992" y2="825.3008" gradientTransform="matrix(1 0 0 1 -83.2002 -824.8008)">
					<stop  offset="0" style="stop-color:#1976D2"/>
					<stop  offset="0.0226" style="stop-color:#1C79D3"/>
					<stop  offset="0.2859" style="stop-color:#3B93E2"/>
					<stop  offset="0.5416" style="stop-color:#52A6ED"/>
					<stop  offset="0.7843" style="stop-color:#5FB1F4"/>
					<stop  offset="1" style="stop-color:#64B5F6"/>
				</linearGradient>
				<polygon fill="url(#SVGID_1_)" points="2.381,15.5 2.381,0.5 13.619,0.5 13.619,11.281 9.4,15.5 				"/>
			</g>
			<polygon fill="#0D47A1" fill-opacity="0.39" points="13.619,11.281 13.619,11.1 9.169,11.1 9.169,15.5 9.4,15.5 			"/>
			<path fill="#FFFFFF" fill-opacity="0.45" d="M9.395,11.281l4.226,0.006L9.4,15.5L9.395,11.281z"/>
		</g>
		<g>
			<path fill="#64B5F6" d="M11.491,7.508C11.491,9.436,9.927,11,8,11c-1.927,0-3.491-1.564-3.491-3.492
				c0-1.927,1.564-3.491,3.491-3.491C9.927,4.017,11.491,5.582,11.491,7.508z"/>
			<path fill="#FFFFFF" fill-opacity="0.8" d="M5.709,4.878c0,0,0.072,0.038,0.1,0.1c0.022,0.061,0.1,0.061,0.1,0.061h0.112
				l0.163-0.05l-0.04,0.089c0,0-0.854,0.396-0.682,0.631c0.173,0.235,0.112,0.296,0.112,0.369c0,0.072,0.051,0.011,0.051,0.011
				l0.05-0.133l0.073-0.1l0.073-0.113l0.022-0.062l0.1-0.172l0.123-0.072l0.112,0.072c0,0,0.05,0.021,0.039,0.061
				c-0.011,0.04-0.022,0.112-0.022,0.112s0.022,0.051,0.062,0.051c0.04,0,0.101-0.04,0.101-0.04l0.051,0.089l0.04,0.163l0.1,0.1
				l0.051,0.112l-0.051,0.1l0.051,0.04L6.71,6.419L6.731,6.48L6.547,6.47c0,0-0.022-0.051-0.061-0.051
				c-0.039,0-0.196-0.011-0.196-0.011L6.2,6.43L6.151,6.491c0,0-0.062,0.101-0.102,0.101c-0.038,0-0.133-0.021-0.133-0.021
				S5.844,6.547,5.804,6.62C5.765,6.693,5.865,6.731,5.865,6.731L5.692,6.782L5.642,6.805c0,0-0.123,0.05-0.123,0.089
				c0,0.04,0,0.04,0,0.04l-0.038,0.1v0.061l-0.09,0.073l-0.09,0.061L5.263,7.302v0.123c0,0-0.012,0.061-0.012,0.101
				c0,0.039,0,0.134,0,0.134s-0.04,0.04-0.062-0.039C5.167,7.547,5.167,7.547,5.167,7.547l-0.039-0.09c0,0,0.039-0.01-0.011-0.05
				c-0.05-0.038-0.101-0.05-0.101-0.05S4.995,7.336,4.943,7.336c-0.05,0,0.062,0.01-0.05,0C4.782,7.324,4.782,7.324,4.782,7.324
				l-0.09,0.072v0.061c0,0-0.021,0.437,0.101,0.498h0.051l0.072-0.112l0.062,0.022v0.05l-0.012,0.09v0.05l0.061,0.062l0.04,0.112
				c0.051,0.089,0.022,0.111,0.061,0.133C5.166,8.385,5.2,8.453,5.2,8.453l0.05,0.021c0,0,0.039,0.012,0.072,0.022
				c0.04,0.012,0.04,0.012,0.04,0.012l0.012,0.056l0.012,0.045l0.05,0.061c0,0-0.039,0,0.051,0s0.089,0,0.089,0s0,0.023,0.062,0.052
				C5.699,8.742,5.65,8.733,5.699,8.742C5.75,8.755,5.833,8.765,5.833,8.765c0.089-0.011,0.089-0.011,0.089-0.011l0.062,0.09
				c0,0,0.039,0,0.05,0.038c0.012,0.04-0.061,0,0.012,0.04c0.073,0.039,0,0.012,0.073,0.039C6.19,8.989,6.095,8.983,6.189,8.983
				s0.112,0,0.151,0.011C6.38,9.005,6.402,9.096,6.402,9.096c0.072,0.089,0.072,0.089,0.072,0.089l0.012,0.111
				c0,0-0.039,0.022,0.05,0.022c0.09,0,0.023,0,0.09,0c0.066,0-0.011-0.022,0.061,0C6.76,9.34,6.76,9.34,6.76,9.34
				s0.112,0.091,0.151,0.091c0.039,0,0.112-0.013,0.151,0c0.04,0.011,0.061,0.071,0.133,0.089c0.073,0.012,0.101,0,0.151,0.039
				c0.051,0.039,0.051,0.039,0.051,0.039L7.409,9.73l-0.04,0.073l-0.1,0.039L7.257,9.967l-0.051,0.124v0.06
				c0,0,0.062,0.052-0.05,0.063c-0.111,0.01-0.111,0.01-0.111,0.01l-0.051,0.051c0,0,0,0.013-0.022,0.051
				c-0.021,0.038-0.05,0.102-0.05,0.102l0.012,0.111v0.072l-0.04,0.061c0,0-0.034,0.018,0.061,0.079
				c0.1,0.061,0.179,0.061,0.202,0.099c0.021,0.041,0.084,0.074,0.084,0.074l-0.135-0.028l-0.084-0.028l-0.139-0.038l-0.268-0.14
				c0,0-0.402-0.33-0.526-0.597c0,0-0.105-0.157-0.284-0.224c0,0-0.442-0.403-0.481-0.504L5.306,9.296V9.263L5.289,9.245V9.207
				l-0.01-0.028l0.006-0.124l0.006-0.083l0.005-0.045L5.291,8.894c0,0-0.023-0.021-0.023-0.027c0-0.005-0.017-0.057-0.017-0.057
				L5.246,8.794l0.067-0.057L5.295,8.687l0.011-0.028l0.04-0.027c0,0,0.022-0.033,0.022-0.039c0-0.011-0.039-0.039-0.039-0.039
				L5.313,8.559L5.295,8.609H5.273c0,0-0.022-0.012-0.022-0.018S5.229,8.564,5.229,8.564L5.201,8.553c0,0-0.022-0.006-0.028-0.017
				C5.167,8.525,5.139,8.509,5.139,8.502c0-0.005-0.021-0.039-0.021-0.039l-0.028-0.01c0,0-0.034-0.051-0.034-0.062
				c0-0.005-0.017-0.033-0.017-0.033S4.999,8.313,4.999,8.308c0-0.005-0.017-0.045-0.017-0.045H4.955L4.894,8.239L4.854,8.19
				L4.81,8.14c0,0-0.023-0.04-0.023-0.05c0-0.012-0.017-0.022-0.017-0.022H4.742H4.726L4.687,8.034l-0.1-0.139L4.569,7.833
				L4.553,7.765L4.541,7.653V7.581L4.497,7.062C4.514,7.066,4.665,5.781,5.709,4.878z"/>
			<path fill="#FFFFFF" fill-opacity="0.8" d="M9.654,4.44l0.112,0.09l0.056,0.028L9.86,4.603l0.007,0.045
				c0,0,0.011,0.045,0.006,0.056C9.867,4.716,9.86,4.776,9.86,4.776s0.051,0.09,0.051,0.102c0,0.01,0.006,0.061-0.005,0.072
				C9.895,4.956,9.833,4.995,9.827,4.978C9.822,4.96,9.783,4.921,9.771,4.921C9.76,4.915,9.727,4.882,9.727,4.882l0.09-0.012
				L9.805,4.814c0,0-0.061-0.021-0.078-0.021C9.71,4.788,9.647,4.754,9.647,4.754L9.581,4.737c0,0-0.111-0.028-0.123-0.034
				C9.447,4.698,9.401,4.682,9.401,4.682H9.308c0,0-0.046,0.021-0.057,0.033C9.246,4.727,9.189,4.788,9.189,4.788
				S9.185,4.86,9.185,4.871c0,0.012-0.017,0.04-0.017,0.073c0,0.034-0.007,0.079-0.007,0.09s0,0.028,0,0.028L9.15,5.111L9.111,5.134
				l-0.05,0.04c0,0-0.044,0.033-0.044,0.044s0,0.056,0.017,0.089C9.05,5.341,9.045,5.374,9.066,5.391
				C9.089,5.408,9.1,5.43,9.117,5.437c0.018,0.005,0.005,0.01,0.033,0.01c0.022,0,0.045,0.007,0.056-0.005
				c0.012-0.005,0.04-0.005,0.052-0.022c0.011-0.017-0.012-0.006,0.011-0.017C9.29,5.397,9.29,5.381,9.309,5.397
				c0.021,0.017,0.039,0.04,0.044,0.05c0.006,0.012,0.022,0.04,0.04,0.057C9.414,5.515,9.432,5.56,9.432,5.56l0.033,0.034
				c0,0,0.005,0.005,0.027,0.005s0.056-0.005,0.056-0.005l0.013-0.022c0,0,0.021,0.006,0.027-0.005
				c0.006-0.012,0.006-0.028,0.006-0.028S9.581,5.504,9.572,5.494c-0.007-0.012-0.019-0.04-0.019-0.04l0.007-0.039l0.021-0.023
				l0.007-0.027V5.33L9.563,5.318L9.524,5.296c0,0-0.021,0.005-0.021-0.022C9.497,5.251,9.497,5.251,9.497,5.251L9.447,5.24
				L9.413,5.223l0.039-0.028C9.475,5.157,9.48,5.145,9.48,5.134S9.475,5.089,9.475,5.089S9.452,5.083,9.452,5.055
				C9.447,5.028,9.447,5.011,9.447,5.011l0.005-0.021c0,0,0.006-0.018,0.022-0.018c0.012,0,0.033,0.018,0.045,0.018
				c0.011,0,0.032,0.005,0.032,0.005s0.012,0.004,0.012,0.022c0,0.011-0.005,0.038-0.005,0.038L9.58,5.022v0.04L9.574,5.106v0.044
				l0.022,0.045L9.618,5.23c0,0,0.027,0.027,0.04,0.039c0.013,0.004,0.04,0.027,0.04,0.027l0.033,0.017l0.021,0.005l0.022-0.022
				c0,0,0.04,0.005,0.04-0.006c0.006-0.012,0.006-0.012,0.006-0.012s0.045-0.005,0.057-0.005c0.011,0,0.033,0,0.033,0
				s0.017,0.033,0.006,0.033c-0.012,0-0.018,0.012-0.046,0.022c-0.028,0.005-0.039,0-0.044,0.011
				c-0.006,0.012-0.022,0.04-0.022,0.04l0.022,0.006h0.016l0.023,0.022c0,0,0.005,0.005,0,0.021
				C9.859,5.446,9.887,5.441,9.859,5.446C9.827,5.453,9.811,5.441,9.811,5.441S9.805,5.413,9.787,5.425
				C9.775,5.437,9.77,5.464,9.77,5.464v0.039l0.023,0.056c0,0,0.01,0.012,0,0.018c-0.011,0.005-0.05,0.049-0.05,0.049
				S9.736,5.642,9.72,5.642c-0.01,0-0.026,0-0.057,0.006C9.643,5.653,9.643,5.653,9.62,5.66c-0.022,0.005-0.039,0.01-0.073,0.016
				C9.514,5.681,9.452,5.681,9.432,5.681c-0.023,0-0.028,0-0.041-0.005c-0.011-0.006-0.006,0-0.021-0.022
				C9.353,5.631,9.335,5.614,9.335,5.597c0-0.012,0-0.017-0.007-0.04C9.323,5.536,9.323,5.52,9.308,5.52c-0.023,0-0.023,0-0.023,0
				S9.241,5.553,9.246,5.564s-0.005,0,0.033,0.027C9.317,5.62,9.33,5.659,9.33,5.659L9.323,5.698l-0.072,0.04l-0.05,0.016
				L9.195,5.788c0,0,0,0.012-0.011,0.028c-0.012,0.016-0.04,0.039-0.04,0.039S9.122,5.86,9.117,5.877
				C9.111,5.889,9.095,5.932,9.095,5.932S9.072,5.927,9.05,5.944c-0.021,0.017,0.006,0.017-0.045,0.04
				c-0.05,0.021-0.05,0.021-0.05,0.021L8.898,6L8.865,6.011c0,0-0.044,0.005-0.05,0.017C8.81,6.04,8.787,6.073,8.787,6.073
				s-0.011,0.022,0,0.022c0.012,0.005,0.028,0,0.056,0.005c0.022,0.007,0.028,0.007,0.046,0.017C8.905,6.124,8.922,6.14,8.922,6.14
				l0.061,0.055l0.035,0.073L9.011,6.324L8.944,6.346c0,0-0.039,0-0.056,0c-0.013,0-0.008,0-0.073,0c-0.066,0-0.078,0-0.09,0
				S8.67,6.34,8.67,6.34L8.631,6.346L8.603,6.369L8.586,6.374c0,0,0.023,0.05,0.023,0.067c0,0.017,0,0.039,0,0.039L8.603,6.515
				L8.586,6.554L8.563,6.592L8.57,6.614c0,0-0.007,0.017,0.006,0.017c0.011,0,0.043-0.005,0.043,0.006
				c0,0.011-0.026,0.056-0.026,0.056l0.057,0.011c0,0-0.006-0.005,0.026,0.006c0.033,0.003,0.056,0.015,0.056,0.015L8.77,6.753
				l0.013,0.023l0.012-0.023c0,0,0.061-0.005,0.071-0.011c0.013-0.005,0.04-0.005,0.04-0.005h0.05c0,0,0.012,0.005,0.022-0.007
				c0.005-0.01,0.005-0.01,0.005-0.01S9.039,6.699,9.05,6.687c0.012-0.005,0.017-0.04,0.017-0.04s0.018-0.011,0.018-0.021
				S9.072,6.587,9.072,6.587V6.563l0.017-0.021c0,0,0.006-0.006,0.022-0.022c0.018-0.017,0.018-0.017,0.018-0.017
				S9.122,6.498,9.145,6.486c0.023-0.006,0.04-0.022,0.051-0.022s-0.011,0.012,0.011,0c0.022-0.012,0.028-0.021,0.028-0.039
				c0-0.011,0.007-0.073,0.007-0.073l0.021-0.033l0.056,0.005L9.347,6.33c0,0,0.033,0.005,0.038-0.006
				c0.006-0.011,0.022-0.021,0.022-0.021l0.045-0.023c0,0-0.005-0.005,0.018-0.005c0.021,0,0.056,0,0.073,0c0.011,0,0.038,0,0.038,0
				s0.022,0.011,0.033,0.021C9.62,6.307,9.637,6.334,9.637,6.334l0.018,0.022h0.017c0.022,0.017,0.032,0.029,0.072,0.039
				c0.039,0.012,0.067,0.022,0.067,0.022s0.011,0.022,0.021,0.033C9.843,6.463,9.854,6.474,9.87,6.486
				c0.012,0.005,0.022,0.017,0.028,0.028c0.007,0.011,0.023,0.034,0.023,0.034L9.942,6.57l0.013-0.022v-0.04L9.95,6.486
				c0,0-0.022-0.017,0.005-0.017c0.022,0,0.04,0,0.04,0L9.973,6.436L9.944,6.424L9.906,6.396L9.889,6.379L9.871,6.374L9.854,6.363
				L9.832,6.346c0,0-0.038-0.006-0.038-0.022C9.787,6.313,9.787,6.313,9.787,6.313L9.748,6.307c0,0-0.038-0.022-0.038-0.033
				c0-0.012-0.007-0.046-0.007-0.046L9.671,6.224c0,0,0.005-0.022,0.005-0.039c0-0.012,0.012-0.028,0.012-0.028L9.76,6.151
				L9.775,6.19l0.027,0.017l0.04,0.017l0.017,0.022l0.019,0.017c0,0,0.006,0.005,0.027,0.012c0.021,0.005,0.038,0.01,0.038,0.01
				s0.023,0.022,0.04,0.022c0.017,0.006,0.022,0.012,0.04,0.018c-0.013,0.01-0.013,0.01-0.013,0.01s0.006,0.012,0.022,0.022
				s0.033,0.033,0.033,0.045c0,0.011,0.012,0.05,0.022,0.056c0.011,0.005,0.017,0.005,0.039,0.027
				c0.021,0.021,0.021,0.045,0.038,0.057c0.022,0.005,0.039,0,0.039,0.021c0.007,0.022,0.007,0.039,0.007,0.039
				s0.018,0.006,0.027,0.006c0.011,0,0.033-0.022,0.033-0.022s0.023-0.034,0.007-0.041C10.269,6.542,10.24,6.542,10.24,6.53
				c0-0.011,0-0.072,0-0.072l0.017-0.04l0.022-0.033l0.033,0.01l0.033-0.021l0.034,0.039l-0.011,0.044c0,0,0.005,0.028,0.021,0.05
				c0.013,0.022,0.039,0.051,0.039,0.051l0.057,0.051l0.079,0.021l0.018-0.005l0.116-0.022c0,0,0.018,0,0.027,0
				c0.012,0,0.067,0.095,0.067,0.095s0,0.039,0,0.061c0,0.022,0,0.079,0,0.079s-0.039,0.039-0.056,0.039
				c-0.018,0-0.062,0.021-0.062,0.021l-0.094,0.023l-0.062-0.006L10.409,6.91c0,0-0.112-0.006-0.124-0.006s-0.051,0-0.062,0
				s-0.027,0.012-0.038,0.045c-0.013,0.033-0.034,0.044-0.034,0.044s0,0.017-0.021,0.017c-0.023,0-0.023,0.006-0.04-0.005
				S9.995,6.977,9.995,6.977l-0.073-0.05l-0.04-0.033L9.843,6.889H9.731L9.658,6.882l0.013-0.117l0.011,0.033L9.658,6.721
				L9.625,6.699L9.547,6.682l-0.05,0.005L9.432,6.704L9.363,6.726l-0.04,0.012L9.135,6.771L9.066,6.799c0,0-0.028,0.017-0.038,0.022
				C9.018,6.826,8.972,6.826,8.972,6.826s-0.033-0.005-0.05-0.011C8.905,6.811,8.865,6.811,8.849,6.811s-0.051-0.006-0.062,0
				C8.776,6.815,8.765,6.815,8.754,6.833C8.742,6.85,8.703,6.894,8.703,6.894S8.683,6.917,8.67,6.927
				C8.665,6.938,8.637,6.972,8.637,6.972L8.592,7.044L8.563,7.079L8.57,7.118v0.028c0,0-0.018,0.017-0.027,0.022
				C8.53,7.173,8.508,7.185,8.508,7.185S8.491,7.19,8.475,7.206C8.459,7.218,8.459,7.224,8.447,7.234
				C8.435,7.246,8.396,7.273,8.396,7.273S8.374,7.29,8.357,7.307c-0.01,0.017-0.034,0.039-0.039,0.05S8.295,7.379,8.284,7.385
				C8.274,7.391,8.25,7.436,8.246,7.448c-0.005,0.009-0.04,0.061-0.04,0.061L8.184,7.603L8.179,7.647c0,0,0.005,0.017,0.017,0.028
				c0.011,0.011,0.022,0.057,0.022,0.057v0.039c0,0-0.012,0.033-0.018,0.045C8.196,7.827,8.206,7.883,8.206,7.883v0.033
				c0,0,0,0.012-0.017,0.027c-0.018,0.017-0.022,0.04-0.022,0.04l0.022,0.051l0.017,0.033v0.022l0.021,0.038
				c0,0,0.012,0.012,0.022,0.023c0.013,0.006,0.018,0.006,0.041,0.023c0.022,0.011,0.022,0.011,0.022,0.011S8.347,8.223,8.347,8.24
				c0,0.012,0.021,0.034,0.021,0.034l0.039,0.039c0,0,0.006,0.021,0.027,0.039C8.457,8.37,8.48,8.38,8.491,8.391
				C8.503,8.397,8.535,8.424,8.563,8.43c0.022,0.006,0.034,0.012,0.046,0.012c0.01,0-0.018-0.034,0.061,0.005
				c0.079,0.04,0.129,0.056,0.129,0.056l0.057,0.022c0,0,0.091,0.006,0.1-0.006c0.011-0.006,0.027-0.006,0.038-0.006s0.04,0,0.063,0
				c0.021,0,0.1-0.012,0.1-0.012l0.089-0.033c0,0,0.028-0.017,0.04-0.022s0.044-0.027,0.057-0.033
				c0.012-0.007,0.066-0.007,0.066-0.007s0-0.017,0.022,0C9.452,8.424,9.452,8.43,9.458,8.441c0.007,0.012,0.007,0.04,0.022,0.04
				c0.017,0.005,0.056,0.017,0.056,0.017s0.057-0.006,0.072,0c0.019,0.005,0.057,0.005,0.057,0.005l0.018,0.022l0.005,0.051v0.045
				c0,0-0.005,0.018,0,0.033C9.693,8.67,9.711,8.699,9.711,8.699S9.688,8.732,9.676,8.737C9.663,8.742,9.637,8.776,9.637,8.776
				l0.078,0.072L9.76,8.894l0.034,0.04c0,0,0.006,0.017,0.006,0.027S9.794,9,9.8,9.017c0.005,0.013,0.005,0.057,0.005,0.057
				s0.006,0.033,0.006,0.045S9.8,9.185,9.8,9.185L9.794,9.224L9.77,9.291L9.743,9.324l-0.04,0.039L9.676,9.408L9.671,9.469
				L9.647,9.507c0,0,0.007,0.035,0.007,0.052s0.033,0.078,0.033,0.078L9.682,9.688c0,0-0.021,0.073-0.021,0.09
				c0,0.018-0.018,0.039-0.018,0.057c0,0.011-0.006,0.061-0.006,0.061l0.006,0.062l0.021,0.061l-0.021,0.057
				c0,0-0.012,0.044-0.012,0.072c0,0.021,0.04,0.05,0.051,0.05c0.012,0,0.062-0.006,0.085-0.021
				c0.021-0.012,0.076-0.027,0.089-0.034c0.012-0.006,0.022,0.007,0.056-0.021c0.033-0.022,0.084-0.061,0.084-0.061
				s0.04-0.028,0.057-0.039c0.01-0.013,0.065-0.075,0.065-0.075s0.039-0.038,0.066-0.056c0.028-0.018,0-0.005,0.028-0.021
				c0.027-0.017,0.116-0.091,0.116-0.091l0.091-0.089c0,0,0.078-0.101,0.09-0.117c0.012-0.019,0.083-0.112,0.095-0.119
				c0.011-0.005,0.111-0.071,0.134-0.089c0.021-0.018,0.051-0.135,0.061-0.151c0.011-0.011,0.073-0.15,0.073-0.15l0.057-0.162
				l0.094-0.241l0.095-0.168c0,0,0.038-0.073,0.056-0.094c0.012-0.022,0.102-0.196,0.102-0.196l0.034-0.144l0.011-0.123h-0.056
				L11.2,7.988l-0.057-0.017l-0.055,0.006l0.063-0.079l-0.018-0.061l-0.05-0.04l-0.067-0.1V7.598l-0.072-0.117l-0.045-0.185
				c0,0-0.084-0.09-0.072-0.111c0.005-0.023,0.027-0.09,0.027-0.09l0.045,0.022c0,0,0.033,0.089,0.05,0.095
				c0.019,0.005,0.039,0.05,0.046,0.061c0.006,0.012,0.011,0.051,0.021,0.062c0.006,0.011,0.044,0.084,0.044,0.084
				s0.028,0.072,0.034,0.089c0.006,0.012,0.033,0.057,0.04,0.089c0.006,0.034,0.021,0.14,0.021,0.151
				c0,0.011,0.027,0.128,0.027,0.128s0.039-0.011,0.044-0.021c0.007-0.012,0.007-0.017,0.019-0.028
				c0.006-0.011,0.072-0.062,0.072-0.062l0.028-0.089c0,0,0.018-0.039,0.021-0.056c0.007-0.017,0.04-0.079,0.04-0.089
				c0-0.012-0.005-0.057,0-0.074c0.006-0.01,0.022-0.078,0.022-0.089c0-0.012,0.005-0.057,0.005-0.057l-0.005-0.1l0.044-0.056
				l0.022-0.062C11.486,7.073,11.324,5.318,9.654,4.44z"/>
		</g>
	</g>
	<g>
		<rect x="2.378" y="0.5" opacity="0.8" fill="#FFFFFF" enable-background="new    " width="11.244" height="2.875"/>
		<g enable-background="new    ">
			<path fill="#1976D2" d="M6.971,1.919c0,0.192-0.03,0.361-0.09,0.506C6.82,2.571,6.738,2.693,6.634,2.791S6.405,2.963,6.261,3.012
				C6.117,3.063,5.962,3.087,5.797,3.087c-0.161,0-0.313-0.024-0.456-0.075C5.197,2.963,5.073,2.889,4.966,2.791
				c-0.106-0.098-0.19-0.22-0.251-0.365C4.653,2.28,4.622,2.111,4.622,1.919s0.032-0.36,0.096-0.506s0.149-0.268,0.257-0.367
				C5.083,0.947,5.207,0.873,5.35,0.824c0.142-0.05,0.29-0.075,0.447-0.075c0.161,0,0.313,0.025,0.456,0.075
				c0.143,0.049,0.268,0.124,0.374,0.223c0.106,0.1,0.19,0.222,0.252,0.367S6.971,1.728,6.971,1.919z M5.171,1.919
				c0,0.11,0.014,0.209,0.042,0.297c0.028,0.089,0.069,0.165,0.123,0.228c0.053,0.064,0.118,0.113,0.195,0.147
				c0.077,0.035,0.166,0.053,0.266,0.053c0.098,0,0.186-0.018,0.264-0.053c0.078-0.034,0.144-0.083,0.197-0.147
				C6.312,2.381,6.352,2.306,6.38,2.217c0.028-0.088,0.043-0.188,0.043-0.297S6.408,1.71,6.38,1.621S6.312,1.455,6.258,1.391
				S6.139,1.278,6.061,1.244C5.982,1.209,5.895,1.192,5.797,1.192c-0.1,0-0.188,0.018-0.266,0.054S5.389,1.331,5.336,1.394
				c-0.054,0.064-0.095,0.14-0.123,0.229C5.185,1.713,5.171,1.812,5.171,1.919z"/>
			<path fill="#1976D2" d="M9.085,0.801v0.43H8.373v1.81H7.842v-1.81H7.131v-0.43H9.085z"/>
			<path fill="#1976D2" d="M10.847,0.801h0.531v2.24h-0.531v-0.95H9.956v0.95H9.425v-2.24h0.531v0.857h0.891V0.801z"/>
		</g>
	</g>
</g>
</svg>
