<?xml version="1.0" encoding="utf-8"?>
<!-- Generator: Adobe Illustrator 21.0.0, SVG Export Plug-In . SVG Version: 6.00 Build 0)  -->
<svg version="1.1" id="图层_1" xmlns="http://www.w3.org/2000/svg" xmlns:xlink="http://www.w3.org/1999/xlink" x="0px" y="0px"
	 viewBox="0 0 16 16" style="enable-background:new 0 0 16 16;" xml:space="preserve">
<style type="text/css">
	.st0{fill:url(#SVGID_1_);}
	.st1{fill:#0D47A1;}
	.st2{fill:#0D47A1;fill-opacity:0.39;}
	.st3{fill:#FFFFFF;fill-opacity:0.39;}
	.st4{opacity:0.8;fill:#FFFFFF;enable-background:new    ;}
</style>
<title>application-users</title>
<linearGradient id="SVGID_1_" gradientUnits="userSpaceOnUse" x1="8" y1="-3.5" x2="8" y2="11.5" gradientTransform="matrix(1 0 0 -1 0 12)">
	<stop  offset="0" style="stop-color:#1976D2"/>
	<stop  offset="0.06" style="stop-color:#227DD6"/>
	<stop  offset="0.3" style="stop-color:#3F96E4"/>
	<stop  offset="0.54" style="stop-color:#53A7EE"/>
	<stop  offset="0.77" style="stop-color:#60B1F4"/>
	<stop  offset="1" style="stop-color:#64B5F6"/>
</linearGradient>
<polygon class="st0" points="9.4,15.5 13.5,11.3 13.5,0.5 2.5,0.5 2.5,15.5 "/>
<path class="st1" d="M13.5,0.5V11L9,15.5H2.5v-15H13.5 M14,0H2v16h7.5l0.1-0.1l4.2-4.2l0.1-0.1V0H14z"/>
<polygon class="st2" points="13.5,11 13.5,11 9,11 9,15.5 9,15.5 "/>
<path class="st3" d="M9,11h4.5L9,15.5V11z"/>
<path class="st4" d="M9.1,3h1.1c1.1,0,1.1,1.3,1.1,1.3v1.9c-0.1,0.5-0.3,0.9-0.6,1.3v0.6L12,9v1H6.9V9.1l1.7-1V7.4
	C8.3,7.1,8.1,6.6,8,6.2V4.3C8,4.3,8,3,9.1,3z M6.2,4h0.6v2C7,6.5,7.2,7,7.4,7.5l-1.1,1v0.9H4V9l1.7-0.9V7.5c0,0-0.8-1.1-0.8-1.5V5.5
	C4.8,4.8,5.4,4.1,6.1,4H6.2z"/>
</svg>
