<?xml version="1.0" encoding="utf-8"?>
<!-- Generator: Adobe Illustrator 21.0.0, SVG Export Plug-In . SVG Version: 6.00 Build 0)  -->
<svg version="1.1" id="图层_1" xmlns="http://www.w3.org/2000/svg" xmlns:xlink="http://www.w3.org/1999/xlink" x="0px" y="0px"
	 viewBox="0 0 16 16" style="enable-background:new 0 0 16 16;" xml:space="preserve">
<style type="text/css">
	.st0{fill:url(#SVGID_1_);}
	.st1{fill:#B71C1C;}
	.st2{fill:#B71C1C;fill-opacity:0.39;}
	.st3{fill:#FFFFFF;fill-opacity:0.39;}
	.st4{opacity:0.8;}
	.st5{fill:#FFFFFF;}
</style>
<title>application-vnd.ms-access</title>
<linearGradient id="SVGID_1_" gradientUnits="userSpaceOnUse" x1="8" y1="-3.5" x2="8" y2="11.5" gradientTransform="matrix(1 0 0 -1 0 12)">
	<stop  offset="0.02" style="stop-color:#D32F2F"/>
	<stop  offset="0.3" style="stop-color:#E33932"/>
	<stop  offset="0.66" style="stop-color:#F04035"/>
	<stop  offset="1" style="stop-color:#F44336"/>
</linearGradient>
<polygon class="st0" points="9.4,15.5 13.5,11.3 13.5,0.5 2.5,0.5 2.5,15.5 "/>
<path class="st1" d="M13.5,0.5V11L9,15.5H2.5v-15H13.5 M14,0H2v16h7.5l0.1-0.1l4.2-4.2l0.1-0.1V0H14z"/>
<polygon class="st2" points="13.5,11 13.5,11 9,11 9,15.5 9,15.5 "/>
<path class="st3" d="M9,11h4.5L9,15.5V11z"/>
<g class="st4">
	<rect x="5" y="7" class="st5" width="6" height="1"/>
	<rect x="5" y="9" class="st5" width="6" height="1"/>
	<rect x="4" y="6" class="st5" width="1" height="1"/>
	<rect x="11" y="6" class="st5" width="1" height="1"/>
	<rect x="4" y="8" class="st5" width="1" height="1"/>
	<rect x="11" y="8" class="st5" width="1" height="1"/>
	<polygon class="st5" points="12,5 12,4 11,4 11,3 10,3 6,3 5,3 5,4 4,4 4,5 5,5 5,6 6,6 10,6 11,6 11,5 	"/>
</g>
</svg>
