<?xml version="1.0" encoding="utf-8"?>
<!-- Generator: Adobe Illustrator 21.0.0, SVG Export Plug-In . SVG Version: 6.00 Build 0)  -->
<svg version="1.1" id="图层_1" xmlns="http://www.w3.org/2000/svg" xmlns:xlink="http://www.w3.org/1999/xlink" x="0px" y="0px"
	 viewBox="0 0 16 16" style="enable-background:new 0 0 16 16;" xml:space="preserve">
<style type="text/css">
	.st0{fill:url(#SVGID_1_);}
	.st1{fill:#455A64;}
	.st2{fill:#0D47A1;fill-opacity:0.39;}
	.st3{fill:#FFFFFF;fill-opacity:0.39;}
	.st4{fill:#FFFFFF;}
</style>
<title>application-x-cd-image</title>
<linearGradient id="SVGID_1_" gradientUnits="userSpaceOnUse" x1="8" y1="1563.5" x2="8" y2="1548.5" gradientTransform="matrix(1 0 0 1 0 -1548)">
	<stop  offset="0" style="stop-color:#607D8B"/>
	<stop  offset="0.29" style="stop-color:#64808E"/>
	<stop  offset="0.58" style="stop-color:#708A97"/>
	<stop  offset="0.86" style="stop-color:#849AA5"/>
	<stop  offset="1" style="stop-color:#90A4AE"/>
</linearGradient>
<polygon class="st0" points="9.4,15.5 13.5,11.3 13.5,0.5 2.5,0.5 2.5,15.5 "/>
<path class="st1" d="M13.5,0.5V11L9,15.5H2.5v-15H13.5 M14,0H2v16h7.5l0.1-0.1l4.2-4.2l0.1-0.1V0H14z"/>
<polygon class="st2" points="13.5,11 13.5,11 9,11 9,15.5 9,15.5 "/>
<path class="st3" d="M9,11h4.5L9,15.5V11z"/>
<path class="st4" d="M8,3c1.7,0,3,1.3,3,3S9.7,9,8,9S5,7.7,5,6S6.3,3,8,3 M8,2C5.8,2,4,3.8,4,6s1.8,4,4,4s4-1.8,4-4S10.2,2,8,2z"/>
<path class="st4" d="M8,5C7.4,5,7,5.4,7,6s0.4,1,1,1s1-0.4,1-1S8.6,5,8,5z"/>
</svg>
