<?xml version="1.0" encoding="utf-8"?>
<!-- Generator: Adobe Illustrator 16.0.0, SVG Export Plug-In . SVG Version: 6.00 Build 0)  -->
<!DOCTYPE svg PUBLIC "-//W3C//DTD SVG 1.1//EN" "http://www.w3.org/Graphics/SVG/1.1/DTD/svg11.dtd">
<svg version="1.1" id="图层_1" xmlns="http://www.w3.org/2000/svg" xmlns:xlink="http://www.w3.org/1999/xlink" x="0px" y="0px"
	 width="16px" height="16px" viewBox="0 0 16 16" enable-background="new 0 0 16 16" xml:space="preserve">
<polygon fill="#3E2723" points="1.881,16 1.881,0 14.119,0 14.119,11.496 9.544,16 "/>
<g>
	<g>
		
			<linearGradient id="SVGID_1_" gradientUnits="userSpaceOnUse" x1="49.5996" y1="-148.4004" x2="49.5996" y2="-163.4009" gradientTransform="matrix(1 0 0 -1 -41.6001 -147.9004)">
			<stop  offset="0" style="stop-color:#785548"/>
			<stop  offset="1" style="stop-color:#9F9E9F"/>
		</linearGradient>
		<polygon fill="url(#SVGID_1_)" points="2.38,15.5 2.38,0.5 13.619,0.5 13.619,11.275 9.441,15.5 		"/>
		<polygon fill="#795548" fill-opacity="0.7" points="13.619,11.281 13.619,11.1 9.17,11.1 9.17,15.5 9.4,15.5 		"/>
		<path opacity="0.39" fill="#FFFFFF" enable-background="new    " d="M9.395,11.281l4.225,0.006L9.4,15.5L9.395,11.281z"/>
	</g>
	<path fill="#FFFFFF" d="M6.396,3.392h-0.38v4.871H5.728V3.392H5.35v4.871H5.063V3.392H4.684v4.871H4.396V3.392H4.018v4.871H3.918
		v2.063h2.607V8.263h-0.13V3.392z M6.146,9.727h-1.85V8.53h1.85V9.727z"/>
	<g>
		<rect x="2.378" y="0.5" opacity="0.8" fill="#FFFFFF" enable-background="new    " width="11.243" height="2.875"/>
		<g enable-background="new    ">
			<path fill="#5D4037" d="M6.967,0.817v0.43H6.255v1.811H5.725V1.248H5.013v-0.43H6.967z"/>
			<path fill="#5D4037" d="M8.883,2.625v0.433H7.307V0.817h0.531v1.808H8.883z"/>
			<path fill="#5D4037" d="M10.949,1.167c-0.072,0.071-0.16,0.164-0.26,0.277c-0.1,0.113-0.203,0.236-0.309,0.37
				c-0.107,0.133-0.213,0.271-0.316,0.414C9.959,2.37,9.865,2.505,9.785,2.635h1.201v0.423H9.131V2.757
				c0.064-0.11,0.143-0.232,0.234-0.367S9.553,2.12,9.652,1.983c0.1-0.137,0.201-0.269,0.305-0.397s0.199-0.243,0.287-0.344H9.186
				V0.817h1.764V1.167z"/>
		</g>
	</g>
</g>
</svg>
