<?xml version="1.0" encoding="utf-8"?>
<!-- Generator: Adobe Illustrator 21.0.0, SVG Export Plug-In . SVG Version: 6.00 Build 0)  -->
<svg version="1.1" id="图层_1" xmlns="http://www.w3.org/2000/svg" xmlns:xlink="http://www.w3.org/1999/xlink" x="0px" y="0px"
	 viewBox="0 0 16 16" style="enable-background:new 0 0 16 16;" xml:space="preserve">
<style type="text/css">
	.st0{fill:url(#SVGID_1_);}
	.st1{fill:#B71C1C;}
	.st2{fill:#B71C1C;fill-opacity:0.39;}
	.st3{fill:#FFFFFF;fill-opacity:0.39;}
	.st4{opacity:0.8;}
	.st5{fill:#FFFFFF;}
</style>
<title>application-pdf</title>
<linearGradient id="SVGID_1_" gradientUnits="userSpaceOnUse" x1="8" y1="-3.5" x2="8" y2="11.5" gradientTransform="matrix(1 0 0 -1 0 12)">
	<stop  offset="0" style="stop-color:#512DA8"/>
	<stop  offset="0.01" style="stop-color:#D32F2F"/>
	<stop  offset="0.3" style="stop-color:#E33932"/>
	<stop  offset="0.66" style="stop-color:#F04035"/>
	<stop  offset="1" style="stop-color:#F44336"/>
</linearGradient>
<polygon class="st0" points="9.4,15.5 13.5,11.3 13.5,0.5 2.5,0.5 2.5,15.5 "/>
<path class="st1" d="M13.5,0.5V11L9,15.5H2.5v-15H13.5 M14,0H2v16h7.5l0.1-0.1l4.2-4.2l0.1-0.1V0H14z"/>
<polygon class="st2" points="13.5,11 13.5,11 9,11 9,15.5 9,15.5 "/>
<path class="st3" d="M9,11h4.5L9,15.5V11z"/>
<g class="st4">
	<path class="st5" d="M7.8,2.7c0,1.7-0.5,3.5-1.4,4.9C4.8,10.4,4.3,10,4.2,9.9s-0.4-0.4,0.3-1s1-0.6,1-0.6C5.2,8.5,4.8,8.8,4.6,9.1
		C4.3,9.5,4.1,9.7,4.2,9.8S5,9.4,5.3,8.9C6,7.8,6.7,6.6,7.1,5.4C7.6,4.1,7.8,2.7,7.8,2.7z"/>
	<path class="st5" d="M11.9,7.6c0,0,0,0.1-0.5,0.1c-1.1-0.2-2.2-0.8-3-1.6c-0.7-1-1-2.1-1-3.3C7.3,1.9,7.7,2.2,7.7,2.3
		c0.1,0.1,0.1,0.2,0.1,0.3c0-0.2-0.1-0.3-0.2-0.5C7.5,2,7.4,2,7.3,2.2c-0.2,0.5-0.2,1-0.1,1.5c0.2,1,0.6,1.9,1.1,2.7
		C9,7.1,9.9,7.6,10.8,7.8C11.7,7.9,11.8,7.6,11.9,7.6L11.9,7.6z"/>
	<path class="st5" d="M6.4,7.9c1-0.3,2.1-0.5,3.2-0.7c1.5-0.2,2.1,0,2.2,0.1c0.1,0.1,0.1,0.1,0.1,0.2C12,7.5,12,7.3,12,7.2
		c-0.1-0.2-0.2-0.3-1.4-0.3C9.7,6.9,8.9,7,8.1,7.2C7.5,7.3,6.9,7.5,6.4,7.9z"/>
</g>
</svg>
