<?xml version="1.0" encoding="utf-8"?>
<!-- Generator: Adobe Illustrator 16.0.0, SVG Export Plug-In . SVG Version: 6.00 Build 0)  -->
<!DOCTYPE svg PUBLIC "-//W3C//DTD SVG 1.1//EN" "http://www.w3.org/Graphics/SVG/1.1/DTD/svg11.dtd">
<svg version="1.1" id="图层_1" xmlns="http://www.w3.org/2000/svg" xmlns:xlink="http://www.w3.org/1999/xlink" x="0px" y="0px"
	 width="16px" height="16px" viewBox="0 0 16 16" enable-background="new 0 0 16 16" xml:space="preserve">
<polygon fill="#AE2124" points="1.881,16 1.881,0 14.119,0 14.119,11.495 9.545,16 "/>
<g>
	<g>
		<g>
			
				<linearGradient id="SVGID_1_" gradientUnits="userSpaceOnUse" x1="91.2002" y1="-582.3003" x2="91.2002" y2="-567.3008" gradientTransform="matrix(1 0 0 -1 -83.1997 -566.8008)">
				<stop  offset="0" style="stop-color:#C7312F"/>
				<stop  offset="0.1635" style="stop-color:#D9412C"/>
				<stop  offset="0.3476" style="stop-color:#E74E29"/>
				<stop  offset="0.5725" style="stop-color:#EA552A"/>
				<stop  offset="0.9516" style="stop-color:#EA582B"/>
			</linearGradient>
			<polygon fill="url(#SVGID_1_)" points="2.381,15.5 2.381,0.5 13.619,0.5 13.619,11.281 9.4,15.5 			"/>
		</g>
		<polygon fill="#AE2124" fill-opacity="0.3922" points="13.619,11.281 13.619,11.1 9.169,11.1 9.169,15.5 9.4,15.5 		"/>
		<path fill="#FFFFFF" fill-opacity="0.3922" d="M9.394,11.281l4.226,0.007L9.4,15.5L9.394,11.281z"/>
	</g>
	<g opacity="0.8" enable-background="new    ">
		<g>
			<path fill="#FFFFFF" d="M9.413,4.163c0.019,0.007,0.044,0.007,0.063,0.012C9.456,4.169,9.432,4.163,9.413,4.163z"/>
			<path fill="#FFFFFF" d="M9.256,4.138c0.025,0,0.044,0.006,0.069,0.006C9.3,4.145,9.281,4.145,9.256,4.138z"/>
			<path fill="#FFFFFF" d="M9.563,4.187C9.581,4.193,9.601,4.193,9.62,4.2C9.601,4.193,9.581,4.187,9.563,4.187z"/>
			<path fill="#FFFFFF" d="M9.712,4.212C9.73,4.219,9.75,4.219,9.762,4.225C9.744,4.219,9.731,4.212,9.712,4.212z"/>
			<path fill="#FFFFFF" d="M9.094,4.119c0.025,0,0.05,0.006,0.075,0.006C9.144,4.125,9.119,4.119,9.094,4.119z"/>
			<path fill="#FFFFFF" d="M9.994,4.275c0.012,0.006,0.024,0.006,0.044,0.013C10.019,4.281,10.006,4.275,9.994,4.275z"/>
			<path fill="#FFFFFF" d="M9.856,4.244C9.869,4.25,9.888,4.25,9.9,4.256C9.888,4.25,9.869,4.244,9.856,4.244z"/>
			<path fill="#FFFFFF" d="M4.65,4.956L4.65,4.956L4.65,4.956z"/>
			<path fill="#FFFFFF" d="M8.231,4.062c0.037,0,0.081,0,0.119,0C8.313,4.062,8.269,4.062,8.231,4.062z"/>
			<path fill="#FFFFFF" d="M10.126,4.307c0.013,0.006,0.025,0.006,0.036,0.013C10.151,4.313,10.138,4.313,10.126,4.307z"/>
			<path fill="#FFFFFF" d="M8.932,4.1c0.024,0,0.05,0.006,0.075,0.006C8.987,4.106,8.963,4.106,8.932,4.1z"/>
			<path fill="#FFFFFF" d="M7.651,4.062c0.036,0,0.074,0,0.118,0C7.731,4.062,7.688,4.062,7.651,4.062z"/>
			<path fill="#FFFFFF" d="M8.594,4.075c0.031,0,0.063,0.007,0.094,0.007C8.656,4.082,8.625,4.075,8.594,4.075z"/>
			<path fill="#FFFFFF" d="M8.769,4.087c0.031,0,0.056,0.006,0.088,0.006C8.824,4.093,8.794,4.087,8.769,4.087z"/>
			<path fill="#FFFFFF" d="M10.9,4.6c0,0,0.007,0,0.007,0.007C10.906,4.6,10.9,4.6,10.9,4.6z"/>
			<path fill="#FFFFFF" d="M11.2,4.8L11.2,4.8L11.2,4.8z"/>
			<path fill="#FFFFFF" d="M10.988,4.644C10.988,4.644,10.988,4.65,10.988,4.644C10.988,4.65,10.988,4.644,10.988,4.644z"/>
			<path fill="#FFFFFF" d="M11.063,4.694C11.069,4.694,11.069,4.694,11.063,4.694C11.069,4.694,11.069,4.694,11.063,4.694z"/>
			<path fill="#FFFFFF" d="M10.257,4.343c0.013,0,0.019,0.007,0.031,0.007C10.275,4.35,10.263,4.343,10.257,4.343z"/>
			<path fill="#FFFFFF" d="M11.256,4.85L11.256,4.85L11.256,4.85z"/>
			<path fill="#FFFFFF" d="M8,4.057c-0.056,0-0.118,0-0.175,0C7.882,4.057,7.944,4.057,8,4.057z"/>
			<path fill="#FFFFFF" d="M11.138,4.744L11.138,4.744L11.138,4.744z"/>
			<path fill="#FFFFFF" d="M10.606,4.463c0.006,0,0.013,0.006,0.018,0.006C10.619,4.469,10.612,4.463,10.606,4.463z"/>
			<path fill="#FFFFFF" d="M8,4.057c0.057,0,0.119,0,0.175,0C8.119,4.057,8.057,4.057,8,4.057z"/>
			<path fill="#FFFFFF" d="M10.375,4.381c0.007,0,0.019,0.006,0.024,0.006C10.394,4.387,10.388,4.381,10.375,4.381z"/>
			<path fill="#FFFFFF" d="M10.494,4.418c0.006,0,0.012,0.007,0.019,0.007C10.506,4.425,10.5,4.425,10.494,4.418z"/>
			<path fill="#FFFFFF" d="M10.713,4.506c0.006,0,0.013,0.006,0.013,0.006C10.719,4.512,10.713,4.506,10.713,4.506z"/>
			<path fill="#FFFFFF" d="M10.807,4.55c0.006,0,0.006,0.007,0.013,0.007C10.818,4.557,10.813,4.55,10.807,4.55z"/>
			<path fill="#FFFFFF" d="M8.419,4.069c0.031,0,0.069,0,0.1,0.006C8.488,4.069,8.45,4.069,8.419,4.069z"/>
			<path fill="#FFFFFF" d="M5.094,4.6c0.007,0,0.007-0.006,0.014-0.006C5.1,4.6,5.094,4.6,5.094,4.6z"/>
			<path fill="#FFFFFF" d="M5.006,4.65c0,0,0.007,0,0.007-0.006C5.012,4.644,5.012,4.65,5.006,4.65z"/>
			<path fill="#FFFFFF" d="M4.932,4.7C4.932,4.694,4.938,4.694,4.932,4.7C4.938,4.694,4.932,4.694,4.932,4.7z"/>
			<path fill="#FFFFFF" d="M5.182,4.557c0.006,0,0.006-0.007,0.013-0.007C5.188,4.55,5.182,4.557,5.182,4.557z"/>
			<path fill="#FFFFFF" d="M5.375,4.469c0.006,0,0.013-0.006,0.019-0.006C5.388,4.463,5.381,4.469,5.375,4.469z"/>
			<path fill="#FFFFFF" d="M5.275,4.512c0.007,0,0.013-0.006,0.019-0.006C5.288,4.506,5.281,4.512,5.275,4.512z"/>
			<path fill="#FFFFFF" d="M7.481,4.069c0.03,0,0.068,0,0.1-0.007C7.55,4.069,7.512,4.069,7.481,4.069z"/>
			<path fill="#FFFFFF" d="M8,6.387c-1.9,0-3.438-0.519-3.438-1.163v1.05c0,0.644,1.537,1.163,3.438,1.163
				c1.9,0,3.438-0.52,3.438-1.163l0,0v-1.05C11.438,5.863,9.9,6.387,8,6.387z"/>
			<path fill="#FFFFFF" d="M4.563,5.188v0.038C4.563,5.213,4.563,5.2,4.563,5.188L4.563,5.188z"/>
			<path fill="#FFFFFF" d="M5.481,4.431c0.006,0,0.019-0.006,0.024-0.006C5.5,4.425,5.493,4.425,5.481,4.431z"/>
			<path fill="#FFFFFF" d="M4.801,4.8L4.801,4.8L4.801,4.8z"/>
			<path fill="#FFFFFF" d="M11.438,5.188c0,0.013,0,0.025,0,0.038V5.188L11.438,5.188z"/>
			<path fill="#FFFFFF" d="M4.693,4.906L4.693,4.906L4.693,4.906z"/>
			<path fill="#FFFFFF" d="M4.743,4.85L4.743,4.85L4.743,4.85z"/>
			<path fill="#FFFFFF" d="M4.862,4.75C4.862,4.744,4.862,4.744,4.862,4.75C4.862,4.744,4.862,4.744,4.862,4.75z"/>
			<path fill="#FFFFFF" d="M6.831,4.125c0.025,0,0.05-0.006,0.074-0.006C6.881,4.119,6.856,4.125,6.831,4.125z"/>
			<path fill="#FFFFFF" d="M6.676,4.15C6.7,4.144,6.719,4.144,6.744,4.144C6.719,4.145,6.7,4.145,6.676,4.15z"/>
			<path fill="#FFFFFF" d="M6.987,4.106c0.025,0,0.05-0.006,0.081-0.006C7.037,4.106,7.013,4.106,6.987,4.106z"/>
			<path fill="#FFFFFF" d="M5.594,4.387c0.007,0,0.019-0.006,0.024-0.006C5.612,4.381,5.606,4.387,5.594,4.387z"/>
			<path fill="#FFFFFF" d="M7.313,4.082c0.031,0,0.063-0.007,0.094-0.007C7.375,4.075,7.344,4.082,7.313,4.082z"/>
			<path fill="#FFFFFF" d="M6.525,4.169c0.019-0.007,0.044-0.007,0.063-0.013C6.568,4.163,6.544,4.169,6.525,4.169z"/>
			<path fill="#FFFFFF" d="M7.15,4.093c0.031,0,0.056-0.006,0.087-0.006C7.206,4.087,7.175,4.093,7.15,4.093z"/>
			<path fill="#FFFFFF" d="M5.838,4.319C5.85,4.313,5.862,4.313,5.875,4.307C5.862,4.313,5.85,4.313,5.838,4.319z"/>
			<path fill="#FFFFFF" d="M5.713,4.35c0.013-0.007,0.019-0.007,0.031-0.013C5.737,4.343,5.725,4.35,5.713,4.35z"/>
			<path fill="#FFFFFF" d="M5.962,4.281c0.013-0.006,0.031-0.006,0.044-0.013C5.993,4.275,5.981,4.281,5.962,4.281z"/>
			<path fill="#FFFFFF" d="M6.1,4.25c0.019-0.006,0.031-0.006,0.05-0.013C6.131,4.244,6.112,4.25,6.1,4.25z"/>
			<path fill="#FFFFFF" d="M6.237,4.225c0.019-0.006,0.037-0.006,0.056-0.013C6.269,4.212,6.256,4.219,6.237,4.225z"/>
			<path fill="#FFFFFF" d="M6.381,4.193c0.019-0.006,0.037-0.006,0.057-0.013C6.418,4.187,6.399,4.193,6.381,4.193z"/>
		</g>
		<g>
			<path fill="#FFFFFF" d="M9.413,5.381c0.019,0.007,0.044,0.007,0.063,0.013C9.456,5.388,9.432,5.388,9.413,5.381z"/>
			<path fill="#FFFFFF" d="M9.256,5.363c0.025,0,0.044,0.006,0.069,0.006C9.3,5.363,9.281,5.363,9.256,5.363z"/>
			<path fill="#FFFFFF" d="M9.563,5.407C9.581,5.413,9.601,5.413,9.62,5.419C9.601,5.413,9.581,5.413,9.563,5.407z"/>
			<path fill="#FFFFFF" d="M9.712,5.431C9.73,5.437,9.75,5.437,9.762,5.443C9.744,5.437,9.731,5.437,9.712,5.431z"/>
			<path fill="#FFFFFF" d="M9.094,5.337c0.025,0,0.05,0.006,0.075,0.006C9.144,5.343,9.119,5.343,9.094,5.337z"/>
			<path fill="#FFFFFF" d="M9.994,5.494C10.006,5.5,10.019,5.5,10.038,5.506C10.019,5.5,10.006,5.5,9.994,5.494z"/>
			<path fill="#FFFFFF" d="M9.856,5.462C9.869,5.469,9.888,5.469,9.9,5.475C9.888,5.469,9.869,5.469,9.856,5.462z"/>
			<path fill="#FFFFFF" d="M4.65,6.182L4.65,6.182L4.65,6.182z"/>
			<path fill="#FFFFFF" d="M8.231,5.281c0.037,0,0.081,0,0.119,0C8.313,5.281,8.269,5.281,8.231,5.281z"/>
			<path fill="#FFFFFF" d="M10.126,5.531c0.013,0.007,0.025,0.007,0.036,0.013C10.151,5.538,10.138,5.531,10.126,5.531z"/>
			<path fill="#FFFFFF" d="M8.932,5.325c0.024,0,0.05,0.007,0.075,0.007C8.987,5.325,8.963,5.325,8.932,5.325z"/>
			<path fill="#FFFFFF" d="M7.651,5.287c0.036,0,0.074,0,0.118,0C7.731,5.281,7.688,5.281,7.651,5.287z"/>
			<path fill="#FFFFFF" d="M8.594,5.293c0.031,0,0.063,0.007,0.094,0.007C8.656,5.3,8.625,5.3,8.594,5.293z"/>
			<path fill="#FFFFFF" d="M8.769,5.307c0.031,0,0.056,0.006,0.088,0.006C8.824,5.312,8.794,5.312,8.769,5.307z"/>
			<path fill="#FFFFFF" d="M10.9,5.818c0,0,0.007,0,0.007,0.007C10.906,5.818,10.9,5.818,10.9,5.818z"/>
			<path fill="#FFFFFF" d="M11.2,6.02L11.2,6.02L11.2,6.02z"/>
			<path fill="#FFFFFF" d="M10.988,5.869L10.988,5.869L10.988,5.869z"/>
			<path fill="#FFFFFF" d="M11.063,5.918C11.069,5.918,11.069,5.918,11.063,5.918C11.069,5.918,11.069,5.918,11.063,5.918z"/>
			<path fill="#FFFFFF" d="M10.257,5.563c0.013,0,0.019,0.006,0.031,0.006C10.275,5.569,10.263,5.569,10.257,5.563z"/>
			<path fill="#FFFFFF" d="M11.256,6.068L11.256,6.068L11.256,6.068z"/>
			<path fill="#FFFFFF" d="M8,5.281c-0.056,0-0.118,0-0.175,0C7.882,5.281,7.944,5.281,8,5.281z"/>
			<path fill="#FFFFFF" d="M11.138,5.968L11.138,5.968L11.138,5.968z"/>
			<path fill="#FFFFFF" d="M10.606,5.681c0.006,0,0.013,0.007,0.018,0.007C10.619,5.688,10.612,5.688,10.606,5.681z"/>
			<path fill="#FFFFFF" d="M8,5.281c0.057,0,0.119,0,0.175,0C8.119,5.281,8.057,5.281,8,5.281z"/>
			<path fill="#FFFFFF" d="M10.375,5.6c0.007,0,0.019,0.006,0.024,0.006C10.394,5.605,10.388,5.605,10.375,5.6z"/>
			<path fill="#FFFFFF" d="M10.494,5.644c0.006,0,0.012,0.006,0.019,0.006C10.506,5.65,10.5,5.644,10.494,5.644z"/>
			<path fill="#FFFFFF" d="M10.713,5.725c0.006,0,0.013,0.006,0.013,0.006C10.719,5.731,10.713,5.731,10.713,5.725z"/>
			<path fill="#FFFFFF" d="M10.807,5.775c0.006,0,0.006,0.006,0.013,0.006C10.818,5.775,10.813,5.775,10.807,5.775z"/>
			<path fill="#FFFFFF" d="M8.419,5.287c0.031,0,0.069,0,0.1,0.006C8.488,5.287,8.45,5.287,8.419,5.287z"/>
			<path fill="#FFFFFF" d="M5.094,5.825c0.007,0,0.007-0.007,0.014-0.007C5.1,5.818,5.094,5.818,5.094,5.825z"/>
			<path fill="#FFFFFF" d="M5.006,5.869c0,0,0.007,0,0.007-0.006C5.012,5.869,5.012,5.869,5.006,5.869z"/>
			<path fill="#FFFFFF" d="M4.932,5.918C4.932,5.918,4.938,5.918,4.932,5.918C4.938,5.918,4.932,5.918,4.932,5.918z"/>
			<path fill="#FFFFFF" d="M5.182,5.775c0.006,0,0.006-0.007,0.013-0.007C5.188,5.775,5.182,5.775,5.182,5.775z"/>
			<path fill="#FFFFFF" d="M5.375,5.693c0.006,0,0.013-0.006,0.019-0.006C5.388,5.688,5.381,5.688,5.375,5.693z"/>
			<path fill="#FFFFFF" d="M5.275,5.731c0.007,0,0.013-0.006,0.019-0.006C5.288,5.731,5.281,5.731,5.275,5.731z"/>
			<path fill="#FFFFFF" d="M7.481,5.293c0.03,0,0.068,0,0.1-0.006C7.55,5.287,7.512,5.287,7.481,5.293z"/>
			<path fill="#FFFFFF" d="M8,7.606c-1.9,0-3.438-0.519-3.438-1.163v1.05c0,0.644,1.537,1.163,3.438,1.163
				c1.9,0,3.438-0.519,3.438-1.163l0,0v-1.05C11.438,7.088,9.9,7.606,8,7.606z"/>
			<path fill="#FFFFFF" d="M4.563,6.406v0.038C4.563,6.432,4.563,6.418,4.563,6.406L4.563,6.406z"/>
			<path fill="#FFFFFF" d="M5.481,5.65c0.006,0,0.019-0.006,0.024-0.006C5.5,5.644,5.493,5.65,5.481,5.65z"/>
			<path fill="#FFFFFF" d="M4.801,6.02L4.801,6.02L4.801,6.02z"/>
			<path fill="#FFFFFF" d="M11.438,6.406c0,0.013,0,0.025,0,0.038V6.406L11.438,6.406z"/>
			<path fill="#FFFFFF" d="M4.693,6.125L4.693,6.125L4.693,6.125z"/>
			<path fill="#FFFFFF" d="M4.743,6.075C4.743,6.068,4.743,6.068,4.743,6.075C4.743,6.068,4.743,6.068,4.743,6.075z"/>
			<path fill="#FFFFFF" d="M4.862,5.968L4.862,5.968L4.862,5.968z"/>
			<path fill="#FFFFFF" d="M6.831,5.35c0.025,0,0.05-0.007,0.074-0.007C6.881,5.343,6.856,5.343,6.831,5.35z"/>
			<path fill="#FFFFFF" d="M6.676,5.369C6.7,5.362,6.719,5.362,6.744,5.362C6.719,5.363,6.7,5.363,6.676,5.369z"/>
			<path fill="#FFFFFF" d="M6.987,5.332c0.025,0,0.05-0.007,0.081-0.007C7.037,5.325,7.013,5.325,6.987,5.332z"/>
			<path fill="#FFFFFF" d="M5.594,5.612c0.007,0,0.019-0.006,0.024-0.006C5.612,5.605,5.606,5.605,5.594,5.612z"/>
			<path fill="#FFFFFF" d="M7.313,5.3c0.031,0,0.063-0.007,0.094-0.007C7.375,5.3,7.344,5.3,7.313,5.3z"/>
			<path fill="#FFFFFF" d="M6.525,5.395c0.019-0.006,0.044-0.006,0.063-0.013C6.568,5.388,6.544,5.388,6.525,5.395z"/>
			<path fill="#FFFFFF" d="M7.15,5.312c0.024,0,0.056-0.006,0.087-0.006C7.206,5.312,7.175,5.312,7.15,5.312z"/>
			<path fill="#FFFFFF" d="M5.838,5.538C5.85,5.531,5.862,5.531,5.875,5.525C5.862,5.531,5.85,5.538,5.838,5.538z"/>
			<path fill="#FFFFFF" d="M5.713,5.575c0.013-0.006,0.019-0.006,0.031-0.013C5.737,5.569,5.725,5.569,5.713,5.575z"/>
			<path fill="#FFFFFF" d="M5.962,5.506C5.975,5.5,5.993,5.5,6.006,5.494C5.993,5.5,5.981,5.5,5.962,5.506z"/>
			<path fill="#FFFFFF" d="M6.1,5.475c0.019-0.006,0.031-0.006,0.05-0.013C6.131,5.469,6.112,5.469,6.1,5.475z"/>
			<path fill="#FFFFFF" d="M6.237,5.443c0.019-0.006,0.037-0.006,0.056-0.013C6.269,5.437,6.256,5.437,6.237,5.443z"/>
			<path fill="#FFFFFF" d="M6.381,5.419c0.019-0.007,0.037-0.007,0.057-0.013C6.418,5.413,6.399,5.413,6.381,5.419z"/>
		</g>
		<g>
			<path fill="#FFFFFF" d="M9.413,6.6c0.019,0.006,0.044,0.006,0.063,0.013C9.456,6.606,9.432,6.606,9.413,6.6z"/>
			<path fill="#FFFFFF" d="M9.256,6.582c0.025,0,0.044,0.006,0.069,0.006C9.3,6.587,9.281,6.582,9.256,6.582z"/>
			<path fill="#FFFFFF" d="M9.563,6.625C9.581,6.631,9.601,6.631,9.62,6.638C9.601,6.631,9.581,6.631,9.563,6.625z"/>
			<path fill="#FFFFFF" d="M9.712,6.657C9.73,6.663,9.75,6.663,9.762,6.669C9.744,6.663,9.731,6.657,9.712,6.657z"/>
			<path fill="#FFFFFF" d="M9.094,6.562c0.025,0,0.05,0.007,0.075,0.007C9.144,6.569,9.119,6.562,9.094,6.562z"/>
			<path fill="#FFFFFF" d="M9.994,6.719c0.012,0.006,0.024,0.006,0.044,0.013C10.019,6.725,10.006,6.719,9.994,6.719z"/>
			<path fill="#FFFFFF" d="M9.856,6.681C9.869,6.687,9.888,6.687,9.9,6.693C9.888,6.693,9.869,6.687,9.856,6.681z"/>
			<path fill="#FFFFFF" d="M4.65,7.4L4.65,7.4L4.65,7.4z"/>
			<path fill="#FFFFFF" d="M8.231,6.5c0.037,0,0.081,0,0.119,0C8.313,6.506,8.269,6.506,8.231,6.5z"/>
			<path fill="#FFFFFF" d="M10.126,6.75c0.013,0.006,0.025,0.006,0.036,0.013C10.151,6.756,10.138,6.756,10.126,6.75z"/>
			<path fill="#FFFFFF" d="M8.932,6.543c0.024,0,0.05,0.007,0.075,0.007C8.987,6.55,8.963,6.543,8.932,6.543z"/>
			<path fill="#FFFFFF" d="M7.651,6.506c0.036,0,0.074,0,0.118,0C7.731,6.506,7.688,6.506,7.651,6.506z"/>
			<path fill="#FFFFFF" d="M8.594,6.519c0.031,0,0.063,0.006,0.094,0.006C8.656,6.519,8.625,6.519,8.594,6.519z"/>
			<path fill="#FFFFFF" d="M8.769,6.531c0.031,0,0.056,0.006,0.088,0.006C8.824,6.531,8.794,6.531,8.769,6.531z"/>
			<path fill="#FFFFFF" d="M10.9,7.037c0,0,0.007,0,0.007,0.006C10.906,7.043,10.9,7.043,10.9,7.037z"/>
			<path fill="#FFFFFF" d="M11.2,7.238L11.2,7.238L11.2,7.238z"/>
			<path fill="#FFFFFF" d="M10.988,7.088L10.988,7.088L10.988,7.088z"/>
			<path fill="#FFFFFF" d="M11.063,7.138C11.069,7.138,11.069,7.138,11.063,7.138C11.069,7.138,11.069,7.138,11.063,7.138z"/>
			<path fill="#FFFFFF" d="M10.257,6.788c0.013,0,0.019,0.006,0.031,0.006C10.275,6.794,10.263,6.788,10.257,6.788z"/>
			<path fill="#FFFFFF" d="M11.256,7.294L11.256,7.294L11.256,7.294z"/>
			<path fill="#FFFFFF" d="M8,6.5c-0.056,0-0.118,0-0.175,0C7.882,6.5,7.944,6.5,8,6.5z"/>
			<path fill="#FFFFFF" d="M11.138,7.187L11.138,7.187L11.138,7.187z"/>
			<path fill="#FFFFFF" d="M10.606,6.907c0.006,0,0.013,0.006,0.018,0.006C10.619,6.913,10.612,6.907,10.606,6.907z"/>
			<path fill="#FFFFFF" d="M8,6.5c0.057,0,0.119,0,0.175,0C8.119,6.5,8.057,6.5,8,6.5z"/>
			<path fill="#FFFFFF" d="M10.375,6.825c0.007,0,0.019,0.005,0.024,0.005C10.394,6.831,10.388,6.825,10.375,6.825z"/>
			<path fill="#FFFFFF" d="M10.494,6.862c0.006,0,0.012,0.007,0.019,0.007C10.506,6.869,10.5,6.869,10.494,6.862z"/>
			<path fill="#FFFFFF" d="M10.713,6.95c0.006,0,0.013,0.007,0.013,0.007C10.719,6.95,10.713,6.95,10.713,6.95z"/>
			<path fill="#FFFFFF" d="M10.807,6.994C10.813,6.994,10.813,7,10.819,7C10.818,7,10.813,6.994,10.807,6.994z"/>
			<path fill="#FFFFFF" d="M8.419,6.506c0.031,0,0.069,0,0.1,0.006C8.488,6.513,8.45,6.513,8.419,6.506z"/>
			<path fill="#FFFFFF" d="M5.094,7.043c0.007,0,0.007-0.006,0.014-0.006C5.1,7.043,5.094,7.043,5.094,7.043z"/>
			<path fill="#FFFFFF" d="M5.006,7.094c0,0,0.007,0,0.007-0.006C5.012,7.088,5.012,7.088,5.006,7.094z"/>
			<path fill="#FFFFFF" d="M4.932,7.138C4.932,7.138,4.938,7.138,4.932,7.138C4.938,7.138,4.932,7.138,4.932,7.138z"/>
			<path fill="#FFFFFF" d="M5.182,7c0.006,0,0.006-0.006,0.013-0.006C5.188,6.994,5.182,7,5.182,7z"/>
			<path fill="#FFFFFF" d="M5.375,6.913c0.006,0,0.013-0.006,0.019-0.006C5.388,6.907,5.381,6.913,5.375,6.913z"/>
			<path fill="#FFFFFF" d="M5.275,6.957c0.007,0,0.013-0.007,0.019-0.007C5.288,6.95,5.281,6.95,5.275,6.957z"/>
			<path fill="#FFFFFF" d="M7.481,6.513c0.03,0,0.068,0,0.1-0.006C7.55,6.513,7.512,6.513,7.481,6.513z"/>
			<path fill="#FFFFFF" d="M8,8.832c-1.9,0-3.438-0.52-3.438-1.164v1.05c0,0.643,1.537,1.162,3.438,1.162
				c1.9,0,3.438-0.52,3.438-1.162l0,0v-1.05C11.438,8.307,9.9,8.832,8,8.832z"/>
			<path fill="#FFFFFF" d="M4.563,7.631v0.038C4.563,7.656,4.563,7.644,4.563,7.631L4.563,7.631z"/>
			<path fill="#FFFFFF" d="M5.481,6.869c0.006,0,0.019-0.007,0.024-0.007C5.5,6.869,5.493,6.869,5.481,6.869z"/>
			<path fill="#FFFFFF" d="M4.801,7.244C4.801,7.238,4.801,7.238,4.801,7.244C4.801,7.238,4.801,7.238,4.801,7.244z"/>
			<path fill="#FFFFFF" d="M11.438,7.631c0,0.013,0,0.025,0,0.038V7.631L11.438,7.631z"/>
			<path fill="#FFFFFF" d="M4.693,7.35C4.693,7.344,4.693,7.344,4.693,7.35C4.693,7.344,4.693,7.344,4.693,7.35z"/>
			<path fill="#FFFFFF" d="M4.743,7.294L4.743,7.294L4.743,7.294z"/>
			<path fill="#FFFFFF" d="M4.862,7.187L4.862,7.187L4.862,7.187z"/>
			<path fill="#FFFFFF" d="M6.831,6.569c0.025,0,0.05-0.007,0.074-0.007C6.881,6.562,6.856,6.569,6.831,6.569z"/>
			<path fill="#FFFFFF" d="M6.676,6.587C6.7,6.581,6.719,6.581,6.744,6.581C6.719,6.582,6.7,6.587,6.676,6.587z"/>
			<path fill="#FFFFFF" d="M6.987,6.55c0.025,0,0.05-0.007,0.081-0.007C7.037,6.543,7.013,6.55,6.987,6.55z"/>
			<path fill="#FFFFFF" d="M5.594,6.831c0.007,0,0.019-0.005,0.024-0.005C5.612,6.825,5.606,6.831,5.594,6.831z"/>
			<path fill="#FFFFFF" d="M7.313,6.525c0.031,0,0.063-0.006,0.094-0.006C7.375,6.519,7.344,6.519,7.313,6.525z"/>
			<path fill="#FFFFFF" d="M6.525,6.613C6.544,6.606,6.568,6.606,6.587,6.6C6.568,6.606,6.544,6.606,6.525,6.613z"/>
			<path fill="#FFFFFF" d="M7.15,6.537c0.024,0,0.056-0.006,0.087-0.006C7.206,6.531,7.175,6.531,7.15,6.537z"/>
			<path fill="#FFFFFF" d="M5.838,6.763C5.85,6.756,5.862,6.756,5.875,6.75C5.862,6.75,5.85,6.756,5.838,6.763z"/>
			<path fill="#FFFFFF" d="M5.713,6.794c0.013-0.006,0.019-0.006,0.031-0.013C5.737,6.788,5.725,6.794,5.713,6.794z"/>
			<path fill="#FFFFFF" d="M5.962,6.725c0.013-0.006,0.031-0.006,0.044-0.013C5.993,6.719,5.981,6.725,5.962,6.725z"/>
			<path fill="#FFFFFF" d="M6.1,6.693c0.019-0.006,0.031-0.006,0.05-0.013C6.131,6.687,6.112,6.693,6.1,6.693z"/>
			<path fill="#FFFFFF" d="M6.237,6.663C6.256,6.657,6.274,6.657,6.293,6.65C6.269,6.657,6.256,6.663,6.237,6.663z"/>
			<path fill="#FFFFFF" d="M6.381,6.638c0.019-0.007,0.037-0.007,0.057-0.013C6.418,6.631,6.399,6.631,6.381,6.638z"/>
		</g>
		<ellipse fill="#FFFFFF" cx="8" cy="5.038" rx="3.438" ry="1.163"/>
	</g>
</g>
</svg>
