<?xml version="1.0" encoding="utf-8"?>
<!-- Generator: Adobe Illustrator 16.0.0, SVG Export Plug-In . SVG Version: 6.00 Build 0)  -->
<!DOCTYPE svg PUBLIC "-//W3C//DTD SVG 1.1//EN" "http://www.w3.org/Graphics/SVG/1.1/DTD/svg11.dtd">
<svg version="1.1" id="图层_1" xmlns="http://www.w3.org/2000/svg" xmlns:xlink="http://www.w3.org/1999/xlink" x="0px" y="0px"
	 width="16px" height="16px" viewBox="0 0 16 16" enable-background="new 0 0 16 16" xml:space="preserve">
<linearGradient id="SVGID_1_" gradientUnits="userSpaceOnUse" x1="174.4004" y1="1569.9609" x2="174.4004" y2="1553.9609" gradientTransform="matrix(1 0 0 1 -166.4004 -1553.9609)">
	<stop  offset="0" style="stop-color:#455A64"/>
	<stop  offset="0.0238" style="stop-color:#465C66"/>
	<stop  offset="0.3557" style="stop-color:#556E7A"/>
	<stop  offset="0.6835" style="stop-color:#5D7987"/>
	<stop  offset="1" style="stop-color:#607D8B"/>
</linearGradient>
<path fill="url(#SVGID_1_)" d="M9.5,16l4.5-4.5V0H2v16H9.5z"/>
<polygon fill="#263238" fill-opacity="0.3922" points="9.25,11.25 9.25,16 9.5,16 14,11.5 14,11.25 "/>
<path fill="#FFFFFF" fill-opacity="0.3922" d="M9.5,11.5h4.496L9.5,16V11.5z"/>
<g opacity="0.8">
	<path fill="#FFFFFF" d="M6.448,3.753c-1.149,0-2.597,1.087-2.583,2.771c0.012,1.63,0.554,2.513,0.969,3.512l1.229-0.511
		C5.781,8.951,5.412,8.382,5.281,8.097C4.916,7.301,4.792,6.943,4.823,6.336C4.852,5.75,5.047,5.392,5.406,5.045
		C5.765,4.7,6.263,4.525,6.854,4.607c0.854,0.117,1.305,0.596,1.521,1.032c0.122-0.018,0.247-0.032,0.386-0.031
		c0.107,0,0.216,0.008,0.322,0.031C8.854,4.732,7.724,3.753,6.448,3.753z M6.97,5.336C6.446,5.302,5.684,5.557,5.688,6.358
		C5.691,7.115,6.166,7.682,6.729,7.91C6.718,7.719,6.73,7.508,6.761,7.295C6.455,7.129,6.27,6.833,6.24,6.42
		C6.205,5.961,6.661,5.498,7.386,5.733c0.117,0.037,0.121-0.165-0.01-0.271C7.29,5.394,7.144,5.348,6.97,5.336z M8.762,5.941
		c-0.092,0-0.179,0.003-0.261,0.011C8.522,6.033,8.538,6.115,8.543,6.18c0.053-0.003,0.11-0.002,0.166,0
		c0.154,0.008,0.297,0.032,0.428,0.073c0.005-0.086,0.002-0.168,0-0.25C9.013,5.964,8.887,5.942,8.762,5.941z M8.512,6.503
		C8.43,6.856,8.183,7.289,7.678,7.41C7.666,7.483,7.654,7.551,7.657,7.597C7.663,7.694,7.684,7.829,7.74,7.972
		c0.864-0.158,1.235-0.765,1.354-1.386C8.979,6.541,8.848,6.511,8.688,6.503C8.627,6.5,8.565,6.499,8.512,6.503z M7.084,7.42
		c-0.018,0.161-0.03,0.321-0.021,0.469c0.002,0.036,0.004,0.068,0.01,0.104c0.064,0.009,0.124,0.03,0.188,0.031
		c0.055,0,0.105-0.008,0.156-0.011c-0.051-0.144-0.086-0.28-0.094-0.396c-0.003-0.05-0.004-0.108,0-0.167
		C7.24,7.448,7.158,7.435,7.084,7.42z"/>
	<path fill="#CFD8DC" d="M11.191,3.758c0.416,0.997,0.967,1.876,0.979,3.507c0.013,1.684-1.441,2.773-2.592,2.773
		c-1.392,0-2.616-1.167-2.681-2.133C6.839,7.033,7.151,5.764,8.766,5.773c0.771,0.005,1.571,0.67,1.575,1.66
		c0.006,1.069-1.344,1.174-1.684,0.901C8.526,8.229,8.53,8.019,8.646,8.057C9.372,8.292,9.82,7.829,9.787,7.37
		C9.742,6.744,9.369,6.373,8.7,6.342C7.735,6.296,7.466,7.227,7.49,7.606c0.03,0.46,0.434,1.406,1.689,1.578
		c0.593,0.082,1.085-0.094,1.442-0.439c0.358-0.347,0.562-0.705,0.591-1.291c0.03-0.605-0.103-0.961-0.468-1.757
		C10.614,5.412,10.25,4.84,9.967,4.266L11.191,3.758"/>
</g>
<g>
	<path fill="#263238" d="M13.5,0.5v10.793L9.293,15.5H6H2.5v-15H13.5 M14,0H2v16h4h3.5l4.5-4.5V0L14,0z"/>
</g>
</svg>
