<?xml version="1.0" encoding="utf-8"?>
<!-- Generator: Adobe Illustrator 16.0.0, SVG Export Plug-In . SVG Version: 6.00 Build 0)  -->
<!DOCTYPE svg PUBLIC "-//W3C//DTD SVG 1.1//EN" "http://www.w3.org/Graphics/SVG/1.1/DTD/svg11.dtd">
<svg version="1.1" id="图层_1" xmlns="http://www.w3.org/2000/svg" xmlns:xlink="http://www.w3.org/1999/xlink" x="0px" y="0px"
	 width="16px" height="16px" viewBox="0 0 16 16" enable-background="new 0 0 16 16" xml:space="preserve">
<polygon fill="#3E2723" points="1.881,16 1.881,0 14.119,0 14.119,11.496 9.544,16 "/>
<g>
	<g>
		
			<linearGradient id="SVGID_1_" gradientUnits="userSpaceOnUse" x1="49.5996" y1="-148.4004" x2="49.5996" y2="-163.4009" gradientTransform="matrix(1 0 0 -1 -41.6001 -147.9004)">
			<stop  offset="0" style="stop-color:#785548"/>
			<stop  offset="1" style="stop-color:#9F9E9F"/>
		</linearGradient>
		<polygon fill="url(#SVGID_1_)" points="2.38,15.5 2.38,0.5 13.619,0.5 13.619,11.275 9.441,15.5 		"/>
		<polygon fill="#795548" fill-opacity="0.7" points="13.619,11.281 13.619,11.1 9.17,11.1 9.17,15.5 9.4,15.5 		"/>
		<path opacity="0.39" fill="#FFFFFF" enable-background="new    " d="M9.395,11.281l4.225,0.006L9.4,15.5L9.395,11.281z"/>
	</g>
	<path fill="#FFFFFF" d="M6.396,3.392h-0.38v4.871H5.728V3.392H5.35v4.871H5.063V3.392H4.684v4.871H4.396V3.392H4.018v4.871H3.918
		v2.063h2.607V8.263h-0.13V3.392z M6.146,9.727h-1.85V8.53h1.85V9.727z"/>
	<g>
		<rect x="2.378" y="0.5" opacity="0.8" fill="#FFFFFF" enable-background="new    " width="11.243" height="2.875"/>
		<g enable-background="new    ">
			<path fill="#5D4037" d="M6.438,3.058C6.411,2.98,6.383,2.9,6.353,2.818s-0.061-0.164-0.09-0.245H5.341
				c-0.029,0.082-0.06,0.164-0.089,0.246c-0.03,0.082-0.058,0.162-0.084,0.239H4.617C4.705,2.817,4.79,2.594,4.869,2.389
				c0.08-0.205,0.158-0.397,0.234-0.579s0.151-0.353,0.225-0.516c0.074-0.163,0.151-0.322,0.23-0.477h0.504
				C6.14,0.973,6.216,1.132,6.291,1.294S6.442,1.629,6.519,1.81s0.154,0.374,0.234,0.579c0.08,0.205,0.164,0.428,0.253,0.669H6.438z
				 M5.8,1.325C5.787,1.357,5.771,1.402,5.747,1.458C5.725,1.514,5.698,1.579,5.67,1.652C5.641,1.726,5.607,1.806,5.572,1.895
				c-0.036,0.088-0.073,0.181-0.11,0.278h0.675c-0.036-0.097-0.071-0.19-0.105-0.279C5.998,1.805,5.966,1.724,5.936,1.651
				c-0.031-0.074-0.058-0.138-0.08-0.194C5.832,1.401,5.813,1.357,5.8,1.325z"/>
			<path fill="#5D4037" d="M7.999,0.792c0.354,0,0.625,0.06,0.813,0.18s0.282,0.306,0.282,0.558c0,0.157-0.037,0.285-0.113,0.383
				S8.796,2.087,8.653,2.143C8.7,2.199,8.75,2.263,8.802,2.335c0.053,0.072,0.104,0.147,0.156,0.227
				c0.051,0.079,0.1,0.16,0.147,0.246c0.048,0.085,0.092,0.168,0.133,0.25H8.645C8.601,2.985,8.558,2.911,8.513,2.835
				c-0.044-0.075-0.09-0.148-0.137-0.22S8.284,2.477,8.237,2.413C8.192,2.35,8.147,2.292,8.102,2.24H7.839v0.818h-0.53V0.85
				c0.116-0.021,0.235-0.037,0.358-0.045C7.791,0.796,7.901,0.792,7.999,0.792z M8.03,1.222c-0.039,0-0.074,0.001-0.104,0.003
				C7.896,1.227,7.866,1.229,7.839,1.231v0.608h0.15c0.199,0,0.342-0.024,0.429-0.071c0.086-0.047,0.13-0.128,0.13-0.243
				c0-0.11-0.045-0.188-0.132-0.234S8.2,1.222,8.03,1.222z"/>
			<path fill="#5D4037" d="M10.593,3.104c-0.383,0-0.676-0.102-0.877-0.304c-0.2-0.203-0.301-0.49-0.301-0.863
				c0-0.185,0.031-0.351,0.092-0.496c0.062-0.146,0.146-0.269,0.252-0.369c0.107-0.1,0.234-0.176,0.381-0.228
				c0.148-0.052,0.309-0.078,0.48-0.078c0.1,0,0.19,0.007,0.271,0.021c0.082,0.014,0.154,0.03,0.215,0.049
				c0.062,0.018,0.113,0.037,0.153,0.057c0.041,0.019,0.07,0.034,0.089,0.045l-0.153,0.408c-0.073-0.037-0.157-0.068-0.254-0.094
				s-0.206-0.039-0.328-0.039c-0.081,0-0.161,0.013-0.239,0.039c-0.079,0.026-0.148,0.067-0.209,0.124
				c-0.06,0.057-0.107,0.131-0.145,0.222c-0.035,0.09-0.054,0.201-0.054,0.33c0,0.104,0.012,0.2,0.036,0.29
				c0.023,0.089,0.063,0.167,0.115,0.231c0.053,0.064,0.123,0.116,0.209,0.153s0.191,0.057,0.313,0.057
				c0.077,0,0.146-0.004,0.208-0.013c0.061-0.008,0.115-0.019,0.162-0.03c0.049-0.012,0.09-0.025,0.127-0.041
				c0.036-0.015,0.068-0.029,0.098-0.042l0.146,0.404c-0.074,0.043-0.18,0.082-0.316,0.117C10.93,3.086,10.772,3.104,10.593,3.104z"
				/>
		</g>
	</g>
</g>
</svg>
