<?xml version="1.0" encoding="utf-8"?>
<!-- Generator: Adobe Illustrator 16.0.0, SVG Export Plug-In . SVG Version: 6.00 Build 0)  -->
<!DOCTYPE svg PUBLIC "-//W3C//DTD SVG 1.1//EN" "http://www.w3.org/Graphics/SVG/1.1/DTD/svg11.dtd">
<svg version="1.1" id="图层_1" xmlns="http://www.w3.org/2000/svg" xmlns:xlink="http://www.w3.org/1999/xlink" x="0px" y="0px"
	 width="16px" height="16px" viewBox="0 0 16 16" enable-background="new 0 0 16 16" xml:space="preserve">
<polygon fill="#3E2723" points="1.881,16 1.881,0 14.119,0 14.119,11.496 9.544,16 "/>
<g>
	<g>
		
			<linearGradient id="SVGID_1_" gradientUnits="userSpaceOnUse" x1="49.5996" y1="-148.4004" x2="49.5996" y2="-163.4009" gradientTransform="matrix(1 0 0 -1 -41.6001 -147.9004)">
			<stop  offset="0" style="stop-color:#785548"/>
			<stop  offset="1" style="stop-color:#9F9E9F"/>
		</linearGradient>
		<polygon fill="url(#SVGID_1_)" points="2.38,15.5 2.38,0.5 13.619,0.5 13.619,11.275 9.441,15.5 		"/>
		<polygon fill="#795548" fill-opacity="0.7" points="13.619,11.281 13.619,11.1 9.17,11.1 9.17,15.5 9.4,15.5 		"/>
		<path opacity="0.39" fill="#FFFFFF" enable-background="new    " d="M9.395,11.281l4.225,0.006L9.4,15.5L9.395,11.281z"/>
	</g>
	<path fill="#FFFFFF" d="M6.396,3.392h-0.38v4.871H5.728V3.392H5.35v4.871H5.063V3.392H4.684v4.871H4.396V3.392H4.018v4.871H3.918
		v2.063h2.607V8.263h-0.13V3.392z M6.146,9.727h-1.85V8.53h1.85V9.727z"/>
</g>
<g>
	<rect x="2.378" y="0.5" opacity="0.8" fill="#FFFFFF" enable-background="new    " width="11.243" height="2.875"/>
	<g enable-background="new    ">
		<path fill="#5D4037" d="M5.267,3.104c-0.383,0-0.675-0.102-0.876-0.304s-0.302-0.49-0.302-0.863c0-0.185,0.031-0.351,0.093-0.496
			c0.061-0.146,0.145-0.269,0.251-0.369c0.107-0.1,0.234-0.176,0.382-0.228s0.308-0.078,0.479-0.078c0.1,0,0.19,0.007,0.272,0.021
			c0.082,0.014,0.153,0.03,0.215,0.049c0.061,0.018,0.112,0.037,0.152,0.057c0.041,0.019,0.07,0.034,0.089,0.045L5.869,1.345
			C5.797,1.308,5.712,1.277,5.615,1.251C5.52,1.225,5.41,1.212,5.287,1.212c-0.081,0-0.161,0.013-0.239,0.039
			C4.969,1.277,4.899,1.318,4.84,1.375C4.779,1.432,4.731,1.506,4.695,1.597s-0.055,0.201-0.055,0.33c0,0.104,0.012,0.2,0.036,0.29
			C4.7,2.305,4.739,2.382,4.792,2.447c0.054,0.064,0.123,0.116,0.209,0.153c0.087,0.038,0.191,0.057,0.313,0.057
			c0.077,0,0.146-0.004,0.208-0.013c0.061-0.008,0.115-0.019,0.163-0.03c0.048-0.012,0.09-0.025,0.126-0.041S5.881,2.544,5.91,2.531
			l0.146,0.404C5.981,2.979,5.876,3.017,5.74,3.052C5.604,3.086,5.446,3.104,5.267,3.104z"/>
		<path fill="#5D4037" d="M7.104,0.792c0.353,0,0.622,0.059,0.81,0.176c0.189,0.118,0.283,0.31,0.283,0.577
			c0,0.27-0.096,0.464-0.286,0.583s-0.463,0.18-0.817,0.18H6.928v0.75H6.396V0.85c0.116-0.021,0.238-0.037,0.367-0.045
			C6.894,0.796,7.007,0.792,7.104,0.792z M7.139,1.222c-0.039,0-0.076,0.001-0.113,0.003c-0.038,0.002-0.07,0.004-0.098,0.006v0.646
			h0.166c0.185,0,0.322-0.023,0.416-0.071c0.093-0.047,0.14-0.136,0.14-0.265c0-0.063-0.013-0.114-0.036-0.155
			S7.556,1.313,7.512,1.288C7.467,1.263,7.413,1.246,7.35,1.236S7.216,1.222,7.139,1.222z"/>
		<path fill="#5D4037" d="M8.589,0.817h0.53v2.241h-0.53V0.817z"/>
		<path fill="#5D4037" d="M11.91,1.936c0,0.192-0.03,0.361-0.09,0.506c-0.061,0.146-0.143,0.267-0.247,0.365
			S11.345,2.979,11.2,3.029c-0.144,0.05-0.299,0.075-0.464,0.075c-0.162,0-0.313-0.025-0.457-0.075
			c-0.143-0.049-0.268-0.123-0.374-0.221s-0.19-0.22-0.251-0.365C9.592,2.297,9.562,2.128,9.562,1.936s0.032-0.36,0.096-0.506
			s0.149-0.268,0.257-0.367c0.107-0.099,0.232-0.173,0.375-0.223c0.141-0.05,0.29-0.075,0.447-0.075c0.16,0,0.313,0.025,0.455,0.075
			c0.144,0.049,0.268,0.124,0.375,0.223c0.106,0.1,0.19,0.222,0.252,0.367C11.879,1.576,11.91,1.744,11.91,1.936z M10.109,1.936
			c0,0.11,0.015,0.209,0.043,0.297c0.028,0.089,0.068,0.165,0.123,0.228c0.053,0.064,0.117,0.113,0.195,0.147
			c0.076,0.034,0.166,0.052,0.266,0.052c0.098,0,0.186-0.018,0.264-0.052c0.078-0.035,0.144-0.083,0.197-0.147
			c0.053-0.063,0.094-0.139,0.122-0.228c0.028-0.088,0.043-0.188,0.043-0.297s-0.015-0.209-0.043-0.299s-0.069-0.166-0.122-0.229
			C11.144,1.344,11.078,1.295,11,1.26c-0.078-0.034-0.166-0.052-0.264-0.052c-0.1,0-0.189,0.018-0.266,0.054
			c-0.078,0.036-0.143,0.085-0.195,0.148c-0.055,0.064-0.095,0.14-0.123,0.229C10.124,1.73,10.109,1.829,10.109,1.936z"/>
	</g>
</g>
</svg>
