<?xml version="1.0" encoding="utf-8"?>
<!-- Generator: Adobe Illustrator 16.0.0, SVG Export Plug-In . SVG Version: 6.00 Build 0)  -->
<!DOCTYPE svg PUBLIC "-//W3C//DTD SVG 1.1//EN" "http://www.w3.org/Graphics/SVG/1.1/DTD/svg11.dtd">
<svg version="1.1" id="图层_1" xmlns="http://www.w3.org/2000/svg" xmlns:xlink="http://www.w3.org/1999/xlink" x="0px" y="0px"
	 width="16px" height="16px" viewBox="0 0 16 16" enable-background="new 0 0 16 16" xml:space="preserve">
<g>
	
		<linearGradient id="SVGID_1_" gradientUnits="userSpaceOnUse" x1="216.001" y1="-1717.9512" x2="216.001" y2="-1701.9512" gradientTransform="matrix(1 0 0 -1 -208.0005 -1701.9512)">
		<stop  offset="0" style="stop-color:#F57C00"/>
		<stop  offset="0.099" style="stop-color:#F78B0C"/>
		<stop  offset="0.3289" style="stop-color:#FAA823"/>
		<stop  offset="0.5576" style="stop-color:#FDBC33"/>
		<stop  offset="0.7827" style="stop-color:#FEC93D"/>
		<stop  offset="1" style="stop-color:#FFCD40"/>
	</linearGradient>
	<path fill="url(#SVGID_1_)" d="M9.5,16l4.5-4.5V0H2v16H9.5z"/>
	<polygon fill="#EE6F0B" fill-opacity="0.3922" points="9.25,11.25 9.25,16 9.5,16 14,11.5 14,11.25 	"/>
	<path fill="#FFFFFF" fill-opacity="0.3922" d="M9.5,11.5h4.496L9.5,16V11.5z"/>
	<g>
		<path fill="#EE6F0B" d="M13.5,0.5v10.793L9.293,15.5H6H2.5v-15H13.5 M14,0H2v16h4h3.5l4.5-4.5V0L14,0z"/>
	</g>
</g>
<g opacity="0.8">
	<path fill="#FFFFFF" d="M6.919,8.884c0,0-0.315,0.175,0.224,0.234C7.797,9.188,8.13,9.179,8.85,9.049c0,0,0.188,0.111,0.452,0.208
		C7.689,9.913,5.653,9.22,6.919,8.884"/>
	<path fill="#FFFFFF" d="M6.721,8.029c0,0-0.354,0.25,0.186,0.3C7.605,8.397,8.155,8.404,9.108,8.23c0,0,0.133,0.127,0.339,0.195
		C7.499,8.968,5.325,8.47,6.721,8.029"/>
	<path fill="#FFFFFF" d="M8.384,6.581C8.78,7.012,8.277,7.404,8.277,7.404s1.01-0.496,0.547-1.113
		C8.392,5.713,8.059,5.428,9.856,4.439C9.856,4.439,7.036,5.108,8.384,6.581"/>
	<path fill="#FFFFFF" d="M10.515,9.517c0,0,0.234,0.185-0.257,0.323c-0.931,0.268-3.873,0.349-4.691,0.011
		c-0.292-0.12,0.257-0.29,0.433-0.323C6.18,9.488,6.281,9.496,6.281,9.496C5.955,9.277,4.168,9.924,5.376,10.11
		C8.664,10.616,11.369,9.884,10.515,9.517"/>
	<path fill="#FFFFFF" d="M7.069,7.145c0,0-1.498,0.335-0.529,0.458c0.407,0.053,1.221,0.04,1.981-0.021
		c0.617-0.049,1.24-0.153,1.24-0.153S9.543,7.517,9.386,7.621c-1.521,0.378-4.458,0.2-3.613-0.187
		C6.489,7.107,7.069,7.145,7.069,7.145"/>
	<path fill="#FFFFFF" d="M9.755,8.566c1.546-0.761,0.831-1.493,0.333-1.394C9.966,7.196,9.912,7.218,9.912,7.218
		s0.043-0.068,0.132-0.097c0.987-0.33,1.745,0.968-0.32,1.486C9.724,8.607,9.749,8.587,9.755,8.566"/>
	<path fill="#FFFFFF" d="M8.824,2.844c0,0,0.856,0.812-0.812,2.061c-1.338,1.001-0.306,1.571,0,2.225
		C7.232,6.46,6.657,5.874,7.041,5.327C7.605,4.523,9.17,4.134,8.824,2.844"/>
	<path fill="#FFFFFF" d="M7.222,10.632c1.482,0.088,3.761-0.053,3.817-0.716c0,0-0.104,0.252-1.229,0.452
		c-1.267,0.224-2.828,0.198-3.753,0.055C6.058,10.423,6.248,10.572,7.222,10.632"/>
</g>
</svg>
