<?xml version="1.0" encoding="utf-8"?>
<!-- Generator: Adobe Illustrator 16.0.0, SVG Export Plug-In . SVG Version: 6.00 Build 0)  -->
<!DOCTYPE svg PUBLIC "-//W3C//DTD SVG 1.1//EN" "http://www.w3.org/Graphics/SVG/1.1/DTD/svg11.dtd">
<svg version="1.1" id="图层_1" xmlns="http://www.w3.org/2000/svg" xmlns:xlink="http://www.w3.org/1999/xlink" x="0px" y="0px"
	 width="16px" height="16px" viewBox="0 0 16 16" enable-background="new 0 0 16 16" xml:space="preserve">
<g>
	
		<linearGradient id="SVGID_1_" gradientUnits="userSpaceOnUse" x1="174.4004" y1="1569.9609" x2="174.4004" y2="1553.9609" gradientTransform="matrix(1 0 0 1 -166.4004 -1553.9609)">
		<stop  offset="0" style="stop-color:#F57C00"/>
		<stop  offset="0.099" style="stop-color:#F78B0C"/>
		<stop  offset="0.3289" style="stop-color:#FAA823"/>
		<stop  offset="0.5576" style="stop-color:#FDBC33"/>
		<stop  offset="0.7827" style="stop-color:#FEC93D"/>
		<stop  offset="1" style="stop-color:#FFCD40"/>
	</linearGradient>
	<path fill="url(#SVGID_1_)" d="M9.5,16l4.5-4.5V0H2v16H9.5z"/>
	<polygon fill="#EE6F0B" fill-opacity="0.3922" points="9.25,11.25 9.25,16 9.5,16 14,11.5 14,11.25 	"/>
	<path fill="#FFFFFF" fill-opacity="0.3922" d="M9.5,11.5h4.496L9.5,16V11.5z"/>
	<path opacity="0.8" fill="#FFFFFF" d="M8,3C7.729,3,7.5,3.156,7.396,3.375c-0.207-0.142-0.494-0.168-0.73-0.038
		C6.434,3.464,6.311,3.71,6.334,3.949C6.082,3.926,5.822,4.045,5.688,4.266C5.553,4.488,5.58,4.761,5.729,4.957
		C5.496,5.055,5.334,5.273,5.334,5.53c0,0.258,0.162,0.473,0.395,0.573C5.58,6.3,5.553,6.571,5.688,6.795
		C5.822,7.017,6.082,7.133,6.334,7.11c-0.023,0.24,0.1,0.485,0.332,0.613C6.771,7.781,6.887,7.804,7,7.804V10.5l1-0.949L9,10.5
		V7.804c0.113,0,0.229-0.022,0.334-0.08C9.566,7.596,9.689,7.351,9.666,7.11c0.252,0.022,0.512-0.094,0.646-0.315
		c0.135-0.224,0.107-0.495-0.041-0.692c0.232-0.1,0.395-0.315,0.395-0.573c0-0.257-0.162-0.475-0.395-0.574
		c0.148-0.195,0.176-0.469,0.041-0.69c-0.135-0.221-0.395-0.34-0.646-0.317c0.023-0.238-0.1-0.485-0.332-0.611
		c-0.236-0.13-0.523-0.104-0.73,0.038C8.5,3.156,8.271,3,8,3z M8,3.938c0.92,0,1.666,0.709,1.666,1.582
		C9.666,6.394,8.92,7.101,8,7.101S6.334,6.394,6.334,5.52C6.334,4.647,7.08,3.938,8,3.938z M8,4.762c-0.442,0-0.8,0.339-0.8,0.758
		c0,0.418,0.358,0.759,0.8,0.759S8.801,5.938,8.801,5.52C8.801,5.101,8.442,4.762,8,4.762z"/>
	<g>
		<path fill="#EE6F0B" d="M13.5,0.5v10.793L9.293,15.5H6H2.5v-15H13.5 M14,0H2v16h4h3.5l4.5-4.5V0L14,0z"/>
	</g>
</g>
</svg>
