<?xml version="1.0" encoding="utf-8"?>
<!-- Generator: Adobe Illustrator 16.0.0, SVG Export Plug-In . SVG Version: 6.00 Build 0)  -->
<!DOCTYPE svg PUBLIC "-//W3C//DTD SVG 1.1//EN" "http://www.w3.org/Graphics/SVG/1.1/DTD/svg11.dtd">
<svg version="1.1" id="图层_1" xmlns="http://www.w3.org/2000/svg" xmlns:xlink="http://www.w3.org/1999/xlink" x="0px" y="0px"
	 width="16px" height="16px" viewBox="0 0 16 16" enable-background="new 0 0 16 16" xml:space="preserve">
<polygon fill="#2D2183" points="1.974,16 1.974,0 14.026,0 14.026,11.495 9.521,16 "/>
<g>
	<g>
		
			<linearGradient id="SVGID_1_" gradientUnits="userSpaceOnUse" x1="294.6006" y1="-407.3999" x2="294.6006" y2="-392.4004" gradientTransform="matrix(1 0 0 -1 -286.5996 -391.9004)">
			<stop  offset="0" style="stop-color:#4A3591"/>
			<stop  offset="0.008" style="stop-color:#4C3591"/>
			<stop  offset="0.1976" style="stop-color:#6A4498"/>
			<stop  offset="0.4086" style="stop-color:#82529E"/>
			<stop  offset="0.6159" style="stop-color:#965EA3"/>
			<stop  offset="0.8158" style="stop-color:#A165A7"/>
			<stop  offset="1" style="stop-color:#A567A8"/>
		</linearGradient>
		<polygon fill="url(#SVGID_1_)" points="2.381,15.5 2.381,0.5 13.619,0.5 13.619,11.281 9.4,15.5 		"/>
	</g>
	<polygon fill="#5A4096" fill-opacity="0.3922" points="13.619,11.281 13.619,11.1 9.168,11.1 9.168,15.5 9.4,15.5 	"/>
	<path fill="#FFFFFF" fill-opacity="0.3922" d="M9.395,11.281l4.225,0.006L9.4,15.5L9.395,11.281z"/>
</g>
<g opacity="0.8">
	<g>
		<rect x="7.05" y="4.275" fill="#FFFFFF" width="5.106" height="0.6"/>
	</g>
	<g>
		<rect x="7.05" y="5.406" fill="#FFFFFF" width="5.106" height="0.6"/>
	</g>
	<g>
		<rect x="7.05" y="6.544" fill="#FFFFFF" width="5.106" height="0.6"/>
	</g>
	<g>
		<rect x="7.05" y="7.737" fill="#FFFFFF" width="5.106" height="0.6"/>
	</g>
	<g>
		<rect x="7.05" y="8.869" fill="#FFFFFF" width="5.106" height="0.6"/>
	</g>
</g>
<path opacity="0.8" fill="#FFFFFF" enable-background="new    " d="M5.975,6.106l-0.7-0.15V5.087l0.95,0.207V4.631L4.8,4.325v0.663
	l0,0v3.438C4.725,8.406,4.644,8.394,4.556,8.394c-0.394,0-0.712,0.244-0.712,0.544s0.319,0.544,0.712,0.544s0.712-0.244,0.712-0.538
	l0,0V6.438l0.7,0.15L5.975,6.106L5.975,6.106z"/>
</svg>
