<?xml version="1.0" encoding="utf-8"?>
<!-- Generator: Adobe Illustrator 16.0.0, SVG Export Plug-In . SVG Version: 6.00 Build 0)  -->
<!DOCTYPE svg PUBLIC "-//W3C//DTD SVG 1.1//EN" "http://www.w3.org/Graphics/SVG/1.1/DTD/svg11.dtd">
<svg version="1.1" id="图层_1" xmlns="http://www.w3.org/2000/svg" xmlns:xlink="http://www.w3.org/1999/xlink" x="0px" y="0px"
	 width="16px" height="16px" viewBox="0 0 16 16" enable-background="new 0 0 16 16" xml:space="preserve">
<polygon fill="#3E2723" points="1.881,16 1.881,0 14.119,0 14.119,11.496 9.544,16 "/>
<g>
	<g>
		
			<linearGradient id="SVGID_1_" gradientUnits="userSpaceOnUse" x1="49.5996" y1="-148.4004" x2="49.5996" y2="-163.4009" gradientTransform="matrix(1 0 0 -1 -41.6001 -147.9004)">
			<stop  offset="0" style="stop-color:#785548"/>
			<stop  offset="1" style="stop-color:#9F9E9F"/>
		</linearGradient>
		<polygon fill="url(#SVGID_1_)" points="2.38,15.5 2.38,0.5 13.619,0.5 13.619,11.275 9.441,15.5 		"/>
		<polygon fill="#795548" fill-opacity="0.7" points="13.619,11.281 13.619,11.1 9.17,11.1 9.17,15.5 9.4,15.5 		"/>
		<path opacity="0.39" fill="#FFFFFF" enable-background="new    " d="M9.395,11.281l4.225,0.006L9.4,15.5L9.395,11.281z"/>
	</g>
	<path fill="#FFFFFF" d="M6.396,3.392h-0.38v4.871H5.728V3.392H5.35v4.871H5.063V3.392H4.684v4.871H4.396V3.392H4.018v4.871H3.918
		v2.063h2.607V8.263h-0.13V3.392z M6.146,9.727h-1.85V8.53h1.85V9.727z"/>
	<g>
		<rect x="2.378" y="0.5" opacity="0.8" fill="#FFFFFF" enable-background="new    " width="11.243" height="2.875"/>
		<g enable-background="new    ">
			<path fill="#5D4037" d="M6.754,0.817v0.43H6.042v1.811H5.512V1.248H4.8v-0.43H6.754z"/>
			<path fill="#5D4037" d="M8.396,3.058C8.371,2.98,8.344,2.9,8.313,2.818c-0.029-0.082-0.061-0.164-0.09-0.245H7.301
				c-0.029,0.082-0.059,0.164-0.09,0.246C7.182,2.901,7.154,2.981,7.129,3.058H6.577C6.666,2.817,6.75,2.594,6.83,2.389
				C6.909,2.184,6.986,1.991,7.063,1.81s0.152-0.353,0.227-0.516s0.15-0.322,0.23-0.477h0.502C8.1,0.973,8.176,1.132,8.252,1.294
				c0.074,0.163,0.15,0.334,0.227,0.516s0.154,0.374,0.234,0.579c0.08,0.205,0.164,0.428,0.254,0.669H8.396z M7.76,1.325
				C7.748,1.357,7.73,1.402,7.707,1.458C7.686,1.514,7.658,1.579,7.629,1.652C7.6,1.726,7.568,1.806,7.531,1.895
				C7.496,1.983,7.459,2.075,7.422,2.172h0.674c-0.035-0.097-0.07-0.19-0.104-0.279C7.957,1.805,7.926,1.724,7.895,1.651
				c-0.029-0.074-0.057-0.138-0.08-0.194C7.793,1.401,7.773,1.357,7.76,1.325z"/>
			<path fill="#5D4037" d="M9.959,0.792c0.354,0,0.625,0.06,0.814,0.18c0.188,0.12,0.281,0.306,0.281,0.558
				c0,0.157-0.037,0.285-0.113,0.383s-0.186,0.175-0.328,0.231c0.047,0.056,0.098,0.12,0.148,0.192
				c0.053,0.072,0.105,0.147,0.156,0.227c0.051,0.079,0.1,0.16,0.148,0.246c0.047,0.085,0.092,0.168,0.133,0.25h-0.594
				c-0.045-0.073-0.088-0.147-0.133-0.223c-0.043-0.075-0.09-0.148-0.137-0.22s-0.092-0.139-0.139-0.202
				c-0.045-0.063-0.09-0.121-0.135-0.173H9.799v0.818H9.27V0.85c0.115-0.021,0.234-0.037,0.357-0.045
				C9.752,0.796,9.861,0.792,9.959,0.792z M9.99,1.222c-0.039,0-0.074,0.001-0.104,0.003C9.855,1.227,9.826,1.229,9.799,1.231v0.608
				h0.15c0.199,0,0.342-0.024,0.43-0.071c0.086-0.047,0.129-0.128,0.129-0.243c0-0.11-0.045-0.188-0.131-0.234
				C10.289,1.245,10.16,1.222,9.99,1.222z"/>
		</g>
	</g>
</g>
</svg>
