<?xml version="1.0" encoding="utf-8"?>
<!-- Generator: Adobe Illustrator 16.0.0, SVG Export Plug-In . SVG Version: 6.00 Build 0)  -->
<!DOCTYPE svg PUBLIC "-//W3C//DTD SVG 1.1//EN" "http://www.w3.org/Graphics/SVG/1.1/DTD/svg11.dtd">
<svg version="1.1" id="图层_1" xmlns="http://www.w3.org/2000/svg" xmlns:xlink="http://www.w3.org/1999/xlink" x="0px" y="0px"
	 width="16px" height="16px" viewBox="0 0 16 16" enable-background="new 0 0 16 16" xml:space="preserve">
<linearGradient id="SVGID_1_" gradientUnits="userSpaceOnUse" x1="174.4004" y1="1569.9609" x2="174.4004" y2="1553.9609" gradientTransform="matrix(1 0 0 1 -166.4004 -1553.9609)">
	<stop  offset="0" style="stop-color:#512DA8"/>
	<stop  offset="0.008" style="stop-color:#D32F2F"/>
	<stop  offset="0.0898" style="stop-color:#DA352D"/>
	<stop  offset="0.3994" style="stop-color:#EE4827"/>
	<stop  offset="0.705" style="stop-color:#FB5323"/>
	<stop  offset="1" style="stop-color:#FF5722"/>
</linearGradient>
<path fill="url(#SVGID_1_)" d="M9.5,16l4.5-4.5V0H2v16H9.5z"/>
<polygon fill="#B71C1C" fill-opacity="0.3922" points="9.25,11.25 9.25,16 9.5,16 14,11.5 14,11.25 "/>
<path fill="#FFFFFF" fill-opacity="0.3922" d="M9.5,11.5h4.496L9.5,16V11.5z"/>
<path opacity="0.8" fill="#FFFFFF" d="M4.848,8.876l0.175,1.339c0,0,2.305,0.728,3.462-2.574H10.5V6.166H9.244
	c0,0,0.586-1.537,1.884-1.668c0-0.032-0.141-1.274-0.141-1.274S8.849,2.929,7.548,6.1C6.426,9.203,4.848,8.876,4.848,8.876z"/>
<g>
	<path fill="#B71C1C" d="M13.5,0.5v10.793L9.293,15.5H6H2.5v-15H13.5 M14,0H2v16h4h3.5l4.5-4.5V0L14,0z"/>
</g>
</svg>
