<?xml version="1.0" encoding="utf-8"?>
<!-- Generator: Adobe Illustrator 16.0.0, SVG Export Plug-In . SVG Version: 6.00 Build 0)  -->
<!DOCTYPE svg PUBLIC "-//W3C//DTD SVG 1.1//EN" "http://www.w3.org/Graphics/SVG/1.1/DTD/svg11.dtd">
<svg version="1.1" id="图层_1" xmlns="http://www.w3.org/2000/svg" xmlns:xlink="http://www.w3.org/1999/xlink" x="0px" y="0px"
	 width="16px" height="16px" viewBox="0 0 16 16" enable-background="new 0 0 16 16" xml:space="preserve">
<g id="surface1">
	
		<linearGradient id="SVGID_1_" gradientUnits="userSpaceOnUse" x1="257.6006" y1="2418.9414" x2="257.6006" y2="2402.9414" gradientTransform="matrix(1 0 0 1 -249.6006 -2402.9414)">
		<stop  offset="0" style="stop-color:#512DA8"/>
		<stop  offset="0.008" style="stop-color:#532EA8"/>
		<stop  offset="0.2103" style="stop-color:#7843B4"/>
		<stop  offset="0.4127" style="stop-color:#9553BD"/>
		<stop  offset="0.6129" style="stop-color:#A95FC3"/>
		<stop  offset="0.8099" style="stop-color:#B666C7"/>
		<stop  offset="1" style="stop-color:#BA68C8"/>
	</linearGradient>
	<path fill="url(#SVGID_1_)" d="M9.5,16l4.5-4.5V0H2v16H9.5z"/>
	<polygon fill="#673AB7" fill-opacity="0.3922" points="9.25,11.25 9.25,16 9.5,16 14,11.5 14,11.25 	"/>
	<path fill="#FFFFFF" fill-opacity="0.3922" d="M9.5,11.5h4.496L9.5,16V11.5z"/>
	<path opacity="0.8" fill="#FFFFFF" enable-background="new    " d="M11.5,6.75c0-1.93-1.572-3.501-3.5-3.501
		c-1.927,0-3.5,1.571-3.5,3.501c0,1.927,1.573,3.499,3.5,3.499C9.928,10.25,11.5,8.68,11.5,6.75z M5.375,6.75
		c0-1.456,1.169-2.625,2.624-2.625s2.624,1.17,2.624,2.625c0,1.453-1.169,2.625-2.624,2.625S5.375,8.205,5.375,6.75z M9.5,6.75
		L7,5.25v3L9.5,6.75z"/>
	<g>
		<path fill="#311B92" d="M13.5,0.5v10.793L9.293,15.5H6H2.5v-15H13.5 M14,0H2v16h4h3.5l4.5-4.5V0L14,0z"/>
	</g>
</g>
</svg>
