<?xml version="1.0" encoding="utf-8"?>
<!-- Generator: Adobe Illustrator 16.0.0, SVG Export Plug-In . SVG Version: 6.00 Build 0)  -->
<!DOCTYPE svg PUBLIC "-//W3C//DTD SVG 1.1//EN" "http://www.w3.org/Graphics/SVG/1.1/DTD/svg11.dtd">
<svg version="1.1" id="图层_1" xmlns="http://www.w3.org/2000/svg" xmlns:xlink="http://www.w3.org/1999/xlink" x="0px" y="0px"
	 width="16px" height="16px" viewBox="0 0 16 16" enable-background="new 0 0 16 16" xml:space="preserve">
<g>
	
		<linearGradient id="SVGID_1_" gradientUnits="userSpaceOnUse" x1="257.6006" y1="2394.9414" x2="257.6006" y2="2378.9414" gradientTransform="matrix(1 0 0 1 -249.6006 -2378.9414)">
		<stop  offset="0" style="stop-color:#F57C00"/>
		<stop  offset="0.099" style="stop-color:#F78B0C"/>
		<stop  offset="0.3289" style="stop-color:#FAA823"/>
		<stop  offset="0.5576" style="stop-color:#FDBC33"/>
		<stop  offset="0.7827" style="stop-color:#FEC93D"/>
		<stop  offset="1" style="stop-color:#FFCD40"/>
	</linearGradient>
	<path fill="url(#SVGID_1_)" d="M9.5,16l4.5-4.5V0H2v16H9.5z"/>
	<polygon fill="#EE6F0B" fill-opacity="0.3922" points="9.25,11.25 9.25,16 9.5,16 14,11.5 14,11.25 	"/>
	<path fill="#FFFFFF" fill-opacity="0.3922" d="M9.5,11.5h4.496L9.5,16V11.5z"/>
	<path fill="#B71C1C" fill-opacity="0.1961" d="M2,0v4h12V0H2z"/>
	<g>
		<path fill="#FFE0B2" d="M6.356,2.556c0,0.136-0.02,0.266-0.06,0.387C6.26,3.062,6.196,3.168,6.104,3.26
			c-0.085,0.091-0.2,0.163-0.34,0.219C5.624,3.53,5.454,3.556,5.252,3.556c-0.211,0-0.385-0.023-0.526-0.073
			C4.585,3.434,4.467,3.375,4.369,3.304L4.605,2.86C4.69,2.908,4.782,2.955,4.882,3C4.986,3.047,5.09,3.068,5.199,3.068
			c0.16,0,0.289-0.036,0.385-0.113c0.1-0.079,0.15-0.223,0.15-0.432V1.147H4.696V0.684h1.661L6.356,2.556"/>
		<path fill="#FFE0B2" d="M8.471,3.496l-0.147-0.65H7.496L7.355,3.496H6.713C6.86,2.942,7.009,2.437,7.16,1.983
			c0.151-0.458,0.296-0.892,0.436-1.3h0.673c0.146,0.41,0.293,0.849,0.436,1.313c0.148,0.462,0.288,0.961,0.428,1.5H8.471
			 M7.917,1.229C7.883,1.334,7.852,1.437,7.821,1.532C7.796,1.626,7.769,1.72,7.741,1.815c-0.023,0.089-0.047,0.183-0.07,0.276
			c-0.02,0.094-0.039,0.191-0.06,0.291H8.22c-0.021-0.1-0.041-0.197-0.063-0.291C8.139,1.998,8.115,1.904,8.088,1.815
			c-0.023-0.096-0.05-0.19-0.079-0.283C7.981,1.437,7.951,1.334,7.917,1.229"/>
		<path fill="#FFE0B2" d="M10.251,0.651c0.177,0,0.339,0.017,0.48,0.054c0.145,0.036,0.27,0.094,0.372,0.168
			c0.105,0.076,0.184,0.173,0.236,0.291c0.058,0.115,0.085,0.251,0.085,0.408c0,0.164-0.036,0.313-0.11,0.447
			c-0.074,0.132-0.195,0.234-0.366,0.304c0.058,0.079,0.118,0.166,0.181,0.264c0.064,0.094,0.127,0.194,0.186,0.301
			c0.06,0.102,0.118,0.206,0.171,0.313c0.057,0.104,0.106,0.202,0.146,0.296h-0.648c-0.076-0.182-0.166-0.355-0.271-0.523
			c-0.1-0.168-0.208-0.341-0.325-0.513h-0.321v1.036H9.449V0.724C9.509,0.711,9.572,0.7,9.645,0.692
			c0.072-0.012,0.146-0.02,0.219-0.023c0.075-0.006,0.145-0.01,0.211-0.012C10.143,0.651,10.2,0.651,10.251,0.651 M10.798,1.568
			c0-0.148-0.052-0.257-0.151-0.328c-0.099-0.068-0.231-0.104-0.396-0.104c-0.023,0-0.051,0.002-0.085,0.004
			c-0.034,0-0.068,0.005-0.101,0.011v0.844H10.2c0.21,0,0.363-0.036,0.457-0.108C10.751,1.811,10.798,1.704,10.798,1.568"/>
	</g>
	<g opacity="0.8">
		<path fill="#FFFFFF" d="M7.17,9.391c0,0-0.242,0.133,0.172,0.178C7.844,9.623,8.1,9.616,8.652,9.516c0,0,0.145,0.087,0.348,0.162
			C7.762,10.18,6.197,9.648,7.17,9.391"/>
		<path fill="#FFFFFF" d="M7.018,8.732c0,0-0.271,0.191,0.143,0.232c0.537,0.053,0.959,0.057,1.691-0.078c0,0,0.102,0.098,0.26,0.15
			C7.615,9.453,5.945,9.07,7.018,8.732"/>
		<path fill="#FFFFFF" d="M8.295,7.619C8.6,7.951,8.213,8.252,8.213,8.252s0.775-0.379,0.42-0.854
			C8.301,6.955,8.045,6.734,9.426,5.975C9.426,5.975,7.26,6.488,8.295,7.619"/>
		<path fill="#FFFFFF" d="M9.932,9.877c0,0,0.18,0.139-0.197,0.246c-0.715,0.207-2.975,0.268-3.604,0.01
			c-0.225-0.094,0.197-0.223,0.332-0.25C6.602,9.854,6.68,9.859,6.68,9.859c-0.25-0.168-1.623,0.33-0.696,0.473
			C8.51,10.719,10.588,10.156,9.932,9.877"/>
		<path fill="#FFFFFF" d="M7.285,8.053c0,0-1.151,0.26-0.406,0.354C7.191,8.445,7.816,8.436,8.4,8.391
			c0.475-0.039,0.953-0.119,0.953-0.119S9.186,8.339,9.064,8.418C7.896,8.709,5.641,8.573,6.289,8.274
			C6.84,8.023,7.285,8.053,7.285,8.053"/>
		<path fill="#FFFFFF" d="M9.348,9.146c1.188-0.586,0.639-1.148,0.256-1.072C9.51,8.094,9.469,8.109,9.469,8.109
			S9.502,8.057,9.57,8.035c0.758-0.252,1.34,0.746-0.246,1.141C9.324,9.176,9.344,9.16,9.348,9.146"/>
		<path fill="#FFFFFF" d="M8.633,4.75c0,0,0.658,0.623-0.623,1.582c-1.027,0.77-0.234,1.209,0,1.709
			c-0.6-0.512-1.041-0.965-0.746-1.385C7.697,6.039,8.898,5.74,8.633,4.75"/>
		<path fill="#FFFFFF" d="M7.402,10.73c1.139,0.07,2.889-0.037,2.932-0.549c0,0-0.08,0.193-0.943,0.348
			c-0.973,0.174-2.172,0.152-2.883,0.043C6.508,10.57,6.654,10.686,7.402,10.73"/>
	</g>
	<g>
		<path fill="#EE6F0B" d="M13.5,0.5v10.793L9.293,15.5H6H2.5v-15H13.5 M14,0H2v16h4h3.5l4.5-4.5V0L14,0z"/>
	</g>
</g>
</svg>
