<?xml version="1.0" encoding="utf-8"?>
<!-- Generator: Adobe Illustrator 16.0.0, SVG Export Plug-In . SVG Version: 6.00 Build 0)  -->
<!DOCTYPE svg PUBLIC "-//W3C//DTD SVG 1.1//EN" "http://www.w3.org/Graphics/SVG/1.1/DTD/svg11.dtd">
<svg version="1.1" id="图层_1" xmlns="http://www.w3.org/2000/svg" xmlns:xlink="http://www.w3.org/1999/xlink" x="0px" y="0px"
	 width="16px" height="16px" viewBox="0 0 16 16" enable-background="new 0 0 16 16" xml:space="preserve">
<polygon fill="#3E2723" points="1.881,16 1.881,0 14.119,0 14.119,11.496 9.544,16 "/>
<g>
	<g>
		
			<linearGradient id="SVGID_1_" gradientUnits="userSpaceOnUse" x1="49.5996" y1="-148.4004" x2="49.5996" y2="-163.4009" gradientTransform="matrix(1 0 0 -1 -41.6001 -147.9004)">
			<stop  offset="0" style="stop-color:#785548"/>
			<stop  offset="1" style="stop-color:#9F9E9F"/>
		</linearGradient>
		<polygon fill="url(#SVGID_1_)" points="2.38,15.5 2.38,0.5 13.619,0.5 13.619,11.275 9.441,15.5 		"/>
		<polygon fill="#795548" fill-opacity="0.7" points="13.619,11.281 13.619,11.1 9.17,11.1 9.17,15.5 9.4,15.5 		"/>
		<path opacity="0.39" fill="#FFFFFF" enable-background="new    " d="M9.395,11.281l4.225,0.006L9.4,15.5L9.395,11.281z"/>
	</g>
	<path fill="#FFFFFF" d="M6.396,3.392h-0.38v4.871H5.728V3.392H5.35v4.871H5.063V3.392H4.684v4.871H4.396V3.392H4.018v4.871H3.918
		v2.063h2.607V8.263h-0.13V3.392z M6.146,9.727h-1.85V8.53h1.85V9.727z"/>
	<g>
		<rect x="2.378" y="0.5" opacity="0.8" fill="#FFFFFF" enable-background="new    " width="11.243" height="2.875"/>
		<g enable-background="new    ">
			<path fill="#5D4037" d="M5.166,3.087c-0.129,0-0.258-0.004-0.386-0.012c-0.129-0.007-0.262-0.025-0.4-0.053V0.85
				c0.109-0.019,0.229-0.034,0.357-0.043s0.25-0.015,0.36-0.015c0.15,0,0.288,0.01,0.414,0.031s0.234,0.056,0.325,0.105
				c0.09,0.05,0.161,0.115,0.212,0.196c0.052,0.081,0.077,0.181,0.077,0.299c0,0.179-0.091,0.32-0.272,0.424
				c0.149,0.054,0.252,0.127,0.307,0.22c0.054,0.093,0.081,0.197,0.081,0.313c0,0.235-0.09,0.412-0.271,0.53
				C5.791,3.028,5.522,3.087,5.166,3.087z M4.897,1.697h0.259c0.163,0,0.28-0.02,0.351-0.06s0.105-0.104,0.105-0.192
				c0-0.091-0.037-0.154-0.109-0.191s-0.179-0.055-0.32-0.055c-0.045,0-0.094,0-0.146,0.001c-0.053,0.001-0.099,0.004-0.14,0.008
				V1.697z M4.897,2.082v0.579c0.038,0.004,0.08,0.007,0.126,0.009c0.045,0.002,0.095,0.003,0.149,0.003
				c0.159,0,0.287-0.021,0.385-0.064C5.655,2.565,5.704,2.486,5.704,2.37c0-0.104-0.041-0.177-0.123-0.222
				C5.5,2.104,5.383,2.082,5.23,2.082H4.897z"/>
			<path fill="#5D4037" d="M8.331,1.167C8.259,1.238,8.173,1.33,8.073,1.443C7.973,1.556,7.87,1.68,7.763,1.813
				C7.656,1.947,7.551,2.085,7.446,2.227C7.342,2.37,7.249,2.505,7.167,2.635h1.202v0.423H6.515V2.757
				c0.063-0.11,0.141-0.232,0.232-0.367S6.935,2.12,7.034,1.983c0.101-0.137,0.202-0.269,0.305-0.397
				c0.104-0.128,0.199-0.243,0.288-0.344H6.568V0.817h1.763V1.167z"/>
			<path fill="#5D4037" d="M8.743,0.817h0.531v2.241H8.743V0.817z"/>
			<path fill="#5D4037" d="M10.526,0.792c0.352,0,0.621,0.059,0.811,0.176c0.188,0.118,0.282,0.31,0.282,0.577
				c0,0.27-0.095,0.464-0.286,0.583c-0.19,0.12-0.463,0.18-0.816,0.18H10.35v0.75h-0.53V0.85c0.115-0.021,0.237-0.037,0.367-0.045
				C10.315,0.796,10.429,0.792,10.526,0.792z M10.561,1.222c-0.038,0-0.077,0.001-0.114,0.003c-0.037,0.002-0.069,0.004-0.097,0.006
				v0.646h0.167c0.184,0,0.322-0.023,0.415-0.071c0.093-0.047,0.14-0.136,0.14-0.265c0-0.063-0.012-0.114-0.036-0.155
				c-0.023-0.041-0.058-0.074-0.103-0.099c-0.043-0.025-0.098-0.042-0.161-0.052S10.638,1.222,10.561,1.222z"/>
		</g>
	</g>
</g>
</svg>
