<?xml version="1.0" encoding="utf-8"?>
<!-- Generator: Adobe Illustrator 16.0.0, SVG Export Plug-In . SVG Version: 6.00 Build 0)  -->
<!DOCTYPE svg PUBLIC "-//W3C//DTD SVG 1.1//EN" "http://www.w3.org/Graphics/SVG/1.1/DTD/svg11.dtd">
<svg version="1.1" id="图层_1" xmlns="http://www.w3.org/2000/svg" xmlns:xlink="http://www.w3.org/1999/xlink" x="0px" y="0px"
	 width="16px" height="16px" viewBox="0 0 16 16" enable-background="new 0 0 16 16" xml:space="preserve">
<polygon fill="#3E2723" points="1.881,16 1.881,0 14.119,0 14.119,11.496 9.544,16 "/>
<g>
	<g>
		
			<linearGradient id="SVGID_1_" gradientUnits="userSpaceOnUse" x1="49.5996" y1="-148.4004" x2="49.5996" y2="-163.4009" gradientTransform="matrix(1 0 0 -1 -41.6001 -147.9004)">
			<stop  offset="0" style="stop-color:#785548"/>
			<stop  offset="1" style="stop-color:#9F9E9F"/>
		</linearGradient>
		<polygon fill="url(#SVGID_1_)" points="2.38,15.5 2.38,0.5 13.619,0.5 13.619,11.275 9.441,15.5 		"/>
		<polygon fill="#795548" fill-opacity="0.7" points="13.619,11.281 13.619,11.1 9.17,11.1 9.17,15.5 9.4,15.5 		"/>
		<path opacity="0.39" fill="#FFFFFF" enable-background="new    " d="M9.395,11.281l4.225,0.006L9.4,15.5L9.395,11.281z"/>
	</g>
	<path fill="#FFFFFF" d="M6.396,3.392h-0.38v4.871H5.728V3.392H5.35v4.871H5.063V3.392H4.684v4.871H4.396V3.392H4.018v4.871H3.918
		v2.063h2.607V8.263h-0.13V3.392z M6.146,9.727h-1.85V8.53h1.85V9.727z"/>
	<g>
		<rect x="2.378" y="0.5" opacity="0.8" fill="#FFFFFF" enable-background="new    " width="11.243" height="2.875"/>
		<g enable-background="new    ">
			<path fill="#5D4037" d="M6.578,3.059C6.553,2.98,6.524,2.9,6.494,2.818s-0.061-0.164-0.09-0.245H5.482
				c-0.03,0.081-0.06,0.163-0.09,0.245C5.363,2.9,5.335,2.98,5.31,3.059H4.758c0.089-0.242,0.173-0.465,0.253-0.67
				C5.09,2.184,5.168,1.991,5.244,1.811C5.32,1.629,5.396,1.457,5.47,1.294S5.621,0.973,5.7,0.817h0.503
				c0.078,0.155,0.154,0.314,0.229,0.477S6.584,1.629,6.66,1.811c0.076,0.181,0.154,0.373,0.234,0.578s0.164,0.428,0.253,0.67H6.578
				z M5.941,1.325C5.929,1.357,5.912,1.402,5.889,1.458C5.866,1.514,5.84,1.578,5.811,1.652C5.781,1.726,5.749,1.807,5.713,1.895
				C5.678,1.982,5.641,2.075,5.604,2.172h0.674c-0.035-0.097-0.07-0.189-0.104-0.278S6.107,1.725,6.076,1.65
				c-0.03-0.073-0.057-0.138-0.08-0.194C5.974,1.401,5.955,1.357,5.941,1.325z"/>
			<path fill="#5D4037" d="M8.44,3.104c-0.384,0-0.675-0.102-0.876-0.305c-0.201-0.202-0.302-0.49-0.302-0.863
				c0-0.185,0.03-0.35,0.093-0.496C7.416,1.294,7.5,1.171,7.606,1.071S7.84,0.895,7.988,0.843c0.146-0.052,0.307-0.078,0.479-0.078
				c0.1,0,0.19,0.007,0.272,0.021c0.082,0.014,0.152,0.03,0.215,0.049c0.061,0.018,0.111,0.037,0.152,0.057
				c0.041,0.019,0.07,0.034,0.088,0.045L9.043,1.345C8.971,1.308,8.886,1.277,8.789,1.251C8.693,1.225,8.584,1.212,8.461,1.212
				c-0.082,0-0.162,0.013-0.24,0.039S8.073,1.318,8.014,1.375C7.953,1.432,7.904,1.506,7.869,1.597
				c-0.037,0.091-0.055,0.2-0.055,0.329c0,0.104,0.012,0.201,0.035,0.29c0.024,0.089,0.063,0.167,0.116,0.231
				s0.123,0.115,0.209,0.153c0.087,0.038,0.19,0.057,0.313,0.057c0.077,0,0.146-0.005,0.207-0.013
				c0.062-0.009,0.116-0.02,0.164-0.031c0.047-0.012,0.09-0.025,0.125-0.04c0.037-0.015,0.07-0.029,0.1-0.042L9.23,2.936
				C9.155,2.979,9.05,3.018,8.914,3.052C8.777,3.086,8.619,3.104,8.44,3.104z"/>
			<path fill="#5D4037" d="M9.57,3.059V0.817h1.592v0.424h-1.061v0.439h0.942v0.414h-0.942v0.54h1.14v0.424H9.57z"/>
		</g>
	</g>
</g>
</svg>
