<?xml version="1.0" encoding="utf-8"?>
<!-- Generator: Adobe Illustrator 21.0.0, SVG Export Plug-In . SVG Version: 6.00 Build 0)  -->
<svg version="1.1" id="图层_1" xmlns="http://www.w3.org/2000/svg" xmlns:xlink="http://www.w3.org/1999/xlink" x="0px" y="0px"
	 viewBox="0 0 16 16" style="enable-background:new 0 0 16 16;" xml:space="preserve">
<style type="text/css">
	.st0{fill:url(#SVGID_1_);}
	.st1{fill:#607D8B;}
	.st2{fill:#455963;fill-opacity:0.7;}
	.st3{fill:#8DA1AC;}
</style>
<g>
	<g>
		
			<linearGradient id="SVGID_1_" gradientUnits="userSpaceOnUse" x1="8" y1="789.5" x2="8" y2="774.5" gradientTransform="matrix(1 0 0 1 0 -774)">
			<stop  offset="0" style="stop-color:#CFD7DB"/>
			<stop  offset="0.0698" style="stop-color:#D5DBDF"/>
			<stop  offset="0.3566" style="stop-color:#E7EAEB"/>
			<stop  offset="0.659" style="stop-color:#F1F2F3"/>
			<stop  offset="1" style="stop-color:#F6F5F5"/>
		</linearGradient>
		<polygon class="st0" points="9,15.5 13.5,11 13.5,0.5 2.5,0.5 2.5,15.5 		"/>
		<path class="st1" d="M13.5,0.5V11L9,15.5H2.5v-15H13.5 M14,0h-0.5h-11H2v0.5v15V16h0.5h6.8h0.2l0.1-0.1l4.2-4.2l0.1-0.1v-0.2V0.5
			V0H14z"/>
	</g>
</g>
<path class="st2" d="M9,11h4.5L9,15.5V11z"/>
<polygon class="st3" points="13.5,11 13.5,11 9,11 9,15.5 9,15.5 "/>
<rect x="5" y="4" class="st1" width="1" height="0.5"/>
<rect x="5" y="4.5" class="st1" width="1" height="0.5"/>
<rect x="4.5" y="5" class="st1" width="1" height="1"/>
<rect x="5" y="6.5" class="st1" width="1" height="0.5"/>
<rect x="5" y="5.5" class="st1" width="1" height="1"/>
<rect x="5" y="4.5" class="st1" width="1" height="3.5"/>
<rect x="10" y="4.5" class="st1" width="1" height="3.5"/>
<rect x="5" y="8.5" class="st1" width="1" height="0.5"/>
<rect x="5" y="8" class="st1" width="1" height="0.5"/>
<rect x="10" y="4" class="st1" width="1" height="0.5"/>
<rect x="10" y="4.5" class="st1" width="1" height="0.5"/>
<rect x="10.5" y="5" class="st1" width="1" height="1"/>
<rect x="10" y="8.5" class="st1" width="1" height="0.5"/>
<rect x="10" y="8" class="st1" width="1" height="0.5"/>
<rect x="5" y="2" class="st1" width="1" height="2"/>
<rect x="10" y="2" class="st1" width="1" height="2"/>
<rect x="6" y="2" class="st1" width="0.5" height="0.5"/>
<rect x="9.5" y="2" class="st1" width="0.5" height="0.5"/>
<rect x="6" y="8.5" class="st1" width="0.5" height="0.5"/>
<rect x="9.5" y="8.5" class="st1" width="0.5" height="0.5"/>
</svg>
