<?xml version="1.0" encoding="utf-8"?>
<!-- Generator: Adobe Illustrator 16.0.0, SVG Export Plug-In . SVG Version: 6.00 Build 0)  -->
<!DOCTYPE svg PUBLIC "-//W3C//DTD SVG 1.1//EN" "http://www.w3.org/Graphics/SVG/1.1/DTD/svg11.dtd">
<svg version="1.1" id="图层_1" xmlns="http://www.w3.org/2000/svg" xmlns:xlink="http://www.w3.org/1999/xlink" x="0px" y="0px"
	 width="16px" height="16px" viewBox="0 0 16 16" enable-background="new 0 0 16 16" xml:space="preserve">
<polygon fill="#3E2723" points="1.881,16 1.881,0 14.119,0 14.119,11.496 9.544,16 "/>
<g>
	<g>
		
			<linearGradient id="SVGID_1_" gradientUnits="userSpaceOnUse" x1="49.5996" y1="-148.4004" x2="49.5996" y2="-163.4009" gradientTransform="matrix(1 0 0 -1 -41.6001 -147.9004)">
			<stop  offset="0" style="stop-color:#785548"/>
			<stop  offset="1" style="stop-color:#9F9E9F"/>
		</linearGradient>
		<polygon fill="url(#SVGID_1_)" points="2.38,15.5 2.38,0.5 13.619,0.5 13.619,11.275 9.441,15.5 		"/>
		<polygon fill="#795548" fill-opacity="0.7" points="13.619,11.281 13.619,11.1 9.17,11.1 9.17,15.5 9.4,15.5 		"/>
		<path opacity="0.39" fill="#FFFFFF" enable-background="new    " d="M9.395,11.281l4.225,0.006L9.4,15.5L9.395,11.281z"/>
	</g>
	<path fill="#FFFFFF" d="M6.396,3.392h-0.38v4.871H5.728V3.392H5.35v4.871H5.063V3.392H4.684v4.871H4.396V3.392H4.018v4.871H3.918
		v2.063h2.607V8.263h-0.13V3.392z M6.146,9.727h-1.85V8.53h1.85V9.727z"/>
	<g>
		<rect x="2.378" y="0.5" opacity="0.8" fill="#FFFFFF" enable-background="new    " width="11.243" height="2.875"/>
		<g enable-background="new    ">
			<path fill="#5D4037" d="M5.325,2.625v0.433H3.749V0.817H4.28v1.808H5.325z"/>
			<path fill="#5D4037" d="M7.391,1.167C7.318,1.238,7.231,1.33,7.132,1.443c-0.101,0.113-0.203,0.236-0.31,0.37
				C6.715,1.947,6.609,2.085,6.506,2.227C6.4,2.37,6.308,2.505,6.226,2.635h1.202v0.423H5.573V2.757
				c0.063-0.11,0.141-0.232,0.232-0.367C5.898,2.256,5.994,2.12,6.094,1.983c0.1-0.137,0.201-0.269,0.305-0.397
				s0.199-0.243,0.287-0.344H5.627V0.817h1.764V1.167z"/>
			<path fill="#5D4037" d="M10.008,1.936c0,0.192-0.03,0.361-0.09,0.506C9.857,2.588,9.775,2.709,9.671,2.808
				S9.442,2.979,9.298,3.029c-0.144,0.05-0.299,0.075-0.464,0.075c-0.162,0-0.313-0.025-0.457-0.075
				C8.234,2.979,8.109,2.906,8.003,2.808s-0.19-0.22-0.251-0.365C7.689,2.297,7.659,2.128,7.659,1.936s0.032-0.36,0.096-0.506
				s0.149-0.268,0.257-0.367C8.119,0.964,8.244,0.89,8.387,0.84c0.141-0.05,0.29-0.075,0.447-0.075c0.16,0,0.313,0.025,0.455,0.075
				C9.433,0.89,9.557,0.964,9.664,1.063c0.106,0.1,0.19,0.222,0.252,0.367C9.977,1.576,10.008,1.744,10.008,1.936z M8.207,1.936
				c0,0.11,0.015,0.209,0.043,0.297c0.028,0.089,0.068,0.165,0.123,0.228C8.426,2.525,8.49,2.574,8.568,2.609
				c0.076,0.034,0.166,0.052,0.266,0.052c0.098,0,0.186-0.018,0.264-0.052c0.078-0.035,0.144-0.083,0.197-0.147
				c0.053-0.063,0.094-0.139,0.122-0.228C9.445,2.146,9.46,2.046,9.46,1.936S9.445,1.727,9.417,1.637S9.348,1.471,9.295,1.408
				C9.241,1.344,9.176,1.295,9.098,1.26C9.02,1.226,8.932,1.208,8.834,1.208c-0.1,0-0.189,0.018-0.266,0.054
				C8.49,1.298,8.426,1.347,8.373,1.411C8.318,1.475,8.278,1.551,8.25,1.64C8.222,1.73,8.207,1.829,8.207,1.936z"/>
			<path fill="#5D4037" d="M11.158,0.792c0.352,0,0.621,0.059,0.81,0.176c0.188,0.118,0.282,0.31,0.282,0.577
				c0,0.27-0.095,0.464-0.285,0.583c-0.191,0.12-0.463,0.18-0.817,0.18H10.98v0.75h-0.53V0.85c0.116-0.021,0.237-0.037,0.367-0.045
				C10.947,0.796,11.061,0.792,11.158,0.792z M11.191,1.222c-0.038,0-0.076,0.001-0.113,0.003c-0.037,0.002-0.07,0.004-0.098,0.006
				v0.646h0.167c0.185,0,0.322-0.023,0.415-0.071c0.094-0.047,0.141-0.136,0.141-0.265c0-0.063-0.013-0.114-0.037-0.155
				c-0.023-0.041-0.057-0.074-0.102-0.099c-0.044-0.025-0.098-0.042-0.162-0.052C11.34,1.227,11.27,1.222,11.191,1.222z"/>
		</g>
	</g>
</g>
</svg>
