<?xml version="1.0" encoding="utf-8"?>
<!-- Generator: Adobe Illustrator 16.0.0, SVG Export Plug-In . SVG Version: 6.00 Build 0)  -->
<!DOCTYPE svg PUBLIC "-//W3C//DTD SVG 1.1//EN" "http://www.w3.org/Graphics/SVG/1.1/DTD/svg11.dtd">
<svg version="1.1" id="图层_1" xmlns="http://www.w3.org/2000/svg" xmlns:xlink="http://www.w3.org/1999/xlink" x="0px" y="0px"
	 width="16px" height="16px" viewBox="0 0 16 16" enable-background="new 0 0 16 16" xml:space="preserve">
<polygon fill="#3E2723" points="1.881,16 1.881,0 14.119,0 14.119,11.496 9.544,16 "/>
<g>
	<g>
		
			<linearGradient id="SVGID_1_" gradientUnits="userSpaceOnUse" x1="49.5996" y1="-148.4004" x2="49.5996" y2="-163.4009" gradientTransform="matrix(1 0 0 -1 -41.6001 -147.9004)">
			<stop  offset="0" style="stop-color:#785548"/>
			<stop  offset="1" style="stop-color:#9F9E9F"/>
		</linearGradient>
		<polygon fill="url(#SVGID_1_)" points="2.38,15.5 2.38,0.5 13.619,0.5 13.619,11.275 9.441,15.5 		"/>
		<polygon fill="#795548" fill-opacity="0.7" points="13.619,11.281 13.619,11.1 9.17,11.1 9.17,15.5 9.4,15.5 		"/>
		<path opacity="0.39" fill="#FFFFFF" enable-background="new    " d="M9.395,11.281l4.225,0.006L9.4,15.5L9.395,11.281z"/>
	</g>
	<path fill="#FFFFFF" d="M6.396,3.392h-0.38v4.871H5.728V3.392H5.35v4.871H5.063V3.392H4.684v4.871H4.396V3.392H4.018v4.871H3.918
		v2.063h2.607V8.263h-0.13V3.392z M6.146,9.727h-1.85V8.53h1.85V9.727z"/>
	<g>
		<rect x="2.378" y="0.5" opacity="0.8" fill="#FFFFFF" enable-background="new    " width="11.243" height="2.875"/>
		<g enable-background="new    ">
			<path fill="#5D4037" d="M6.255,1.167C6.183,1.238,6.096,1.33,5.996,1.443c-0.1,0.113-0.203,0.236-0.31,0.37
				C5.58,1.947,5.475,2.085,5.37,2.227C5.266,2.37,5.172,2.505,5.091,2.635h1.202v0.423H4.438V2.757
				c0.063-0.11,0.142-0.232,0.233-0.367S4.858,2.12,4.958,1.983C5.059,1.846,5.16,1.714,5.263,1.585
				c0.104-0.128,0.199-0.243,0.288-0.344H4.492V0.817h1.763V1.167z"/>
			<path fill="#5D4037" d="M8.872,1.936c0,0.192-0.029,0.361-0.09,0.506S8.64,2.709,8.536,2.808
				C8.431,2.906,8.308,2.979,8.163,3.029c-0.145,0.05-0.299,0.075-0.465,0.075c-0.161,0-0.313-0.025-0.456-0.075
				C7.099,2.979,6.975,2.906,6.868,2.808c-0.107-0.098-0.191-0.22-0.252-0.365C6.555,2.297,6.523,2.128,6.523,1.936
				S6.556,1.576,6.62,1.43c0.063-0.146,0.148-0.268,0.256-0.367C6.984,0.964,7.108,0.89,7.251,0.84
				c0.142-0.05,0.291-0.075,0.447-0.075c0.161,0,0.313,0.025,0.456,0.075C8.298,0.89,8.422,0.964,8.528,1.063
				C8.636,1.163,8.72,1.285,8.78,1.43C8.842,1.576,8.872,1.744,8.872,1.936z M7.072,1.936c0,0.11,0.015,0.209,0.042,0.297
				c0.029,0.089,0.069,0.165,0.123,0.228C7.29,2.525,7.355,2.574,7.433,2.609C7.51,2.643,7.599,2.661,7.698,2.661
				c0.098,0,0.186-0.018,0.264-0.052C8.04,2.574,8.106,2.525,8.159,2.461c0.054-0.063,0.094-0.139,0.123-0.228
				C8.31,2.146,8.325,2.046,8.325,1.936S8.31,1.727,8.282,1.637C8.253,1.548,8.213,1.471,8.159,1.408
				C8.106,1.344,8.04,1.295,7.962,1.26C7.884,1.226,7.796,1.208,7.698,1.208c-0.1,0-0.188,0.018-0.266,0.054S7.29,1.347,7.237,1.411
				C7.184,1.475,7.144,1.551,7.114,1.64C7.087,1.73,7.072,1.829,7.072,1.936z"/>
			<path fill="#5D4037" d="M11.562,1.936c0,0.192-0.031,0.361-0.091,0.506s-0.143,0.267-0.247,0.365
				c-0.104,0.098-0.229,0.172-0.373,0.221c-0.144,0.05-0.299,0.075-0.464,0.075c-0.161,0-0.313-0.025-0.456-0.075
				C9.788,2.979,9.663,2.906,9.556,2.808C9.45,2.709,9.366,2.588,9.305,2.442S9.212,2.128,9.212,1.936s0.033-0.36,0.096-0.506
				c0.064-0.146,0.149-0.268,0.258-0.367C9.673,0.964,9.798,0.89,9.939,0.84c0.142-0.05,0.29-0.075,0.447-0.075
				c0.161,0,0.313,0.025,0.456,0.075c0.143,0.049,0.268,0.124,0.375,0.223c0.105,0.1,0.189,0.222,0.252,0.367
				C11.53,1.576,11.562,1.744,11.562,1.936z M9.761,1.936c0,0.11,0.014,0.209,0.043,0.297c0.027,0.089,0.068,0.165,0.122,0.228
				c0.054,0.064,0.118,0.113,0.195,0.147c0.077,0.034,0.166,0.052,0.266,0.052c0.098,0,0.186-0.018,0.264-0.052
				c0.079-0.035,0.144-0.083,0.198-0.147c0.053-0.063,0.094-0.139,0.121-0.228c0.029-0.088,0.043-0.188,0.043-0.297
				s-0.014-0.209-0.043-0.299c-0.027-0.089-0.068-0.166-0.121-0.229c-0.055-0.063-0.119-0.113-0.198-0.147
				c-0.078-0.034-0.166-0.052-0.264-0.052c-0.1,0-0.188,0.018-0.266,0.054S9.979,1.347,9.926,1.411
				C9.872,1.475,9.831,1.551,9.804,1.64C9.774,1.73,9.761,1.829,9.761,1.936z"/>
		</g>
	</g>
</g>
</svg>
