<?xml version="1.0" encoding="utf-8"?>
<!-- Generator: Adobe Illustrator 16.0.0, SVG Export Plug-In . SVG Version: 6.00 Build 0)  -->
<!DOCTYPE svg PUBLIC "-//W3C//DTD SVG 1.1//EN" "http://www.w3.org/Graphics/SVG/1.1/DTD/svg11.dtd">
<svg version="1.1" id="图层_1" xmlns="http://www.w3.org/2000/svg" xmlns:xlink="http://www.w3.org/1999/xlink" x="0px" y="0px"
	 width="16px" height="16px" viewBox="0 0 16 16" enable-background="new 0 0 16 16" xml:space="preserve">
<polygon fill="#3E2723" points="1.881,16 1.881,0 14.119,0 14.119,11.496 9.544,16 "/>
<g>
	<g>
		
			<linearGradient id="SVGID_1_" gradientUnits="userSpaceOnUse" x1="49.5996" y1="-148.4004" x2="49.5996" y2="-163.4009" gradientTransform="matrix(1 0 0 -1 -41.6001 -147.9004)">
			<stop  offset="0" style="stop-color:#785548"/>
			<stop  offset="1" style="stop-color:#9F9E9F"/>
		</linearGradient>
		<polygon fill="url(#SVGID_1_)" points="2.38,15.5 2.38,0.5 13.619,0.5 13.619,11.275 9.441,15.5 		"/>
		<polygon fill="#795548" fill-opacity="0.7" points="13.619,11.281 13.619,11.1 9.17,11.1 9.17,15.5 9.4,15.5 		"/>
		<path opacity="0.39" fill="#FFFFFF" enable-background="new    " d="M9.395,11.281l4.225,0.006L9.4,15.5L9.395,11.281z"/>
	</g>
	<path fill="#FFFFFF" d="M6.396,3.392h-0.38v4.871H5.728V3.392H5.35v4.871H5.063V3.392H4.684v4.871H4.396V3.392H4.018v4.871H3.918
		v2.063h2.607V8.263h-0.13V3.392z M6.146,9.727h-1.85V8.53h1.85V9.727z"/>
	<g>
		<rect x="2.378" y="0.5" opacity="0.8" fill="#FFFFFF" enable-background="new    " width="11.243" height="2.875"/>
		<g enable-background="new    ">
			<path fill="#5D4037" d="M6.8,0.822v0.43H6.088v1.811H5.558V1.252H4.846v-0.43H6.8z"/>
			<path fill="#5D4037" d="M8.213,1.21c-0.248,0-0.426,0.065-0.537,0.195C7.566,1.536,7.512,1.715,7.512,1.94
				c0,0.11,0.014,0.21,0.041,0.3c0.027,0.089,0.068,0.166,0.121,0.23c0.055,0.065,0.123,0.115,0.205,0.15
				c0.082,0.036,0.178,0.054,0.285,0.054c0.061,0,0.109-0.001,0.152-0.003c0.041-0.003,0.078-0.007,0.111-0.014V1.879h0.529v1.109
				C8.895,3.012,8.793,3.037,8.652,3.064c-0.143,0.026-0.314,0.04-0.521,0.04c-0.178,0-0.338-0.025-0.482-0.077
				C7.506,2.976,7.383,2.9,7.279,2.801C7.178,2.702,7.1,2.58,7.043,2.436C6.988,2.291,6.959,2.126,6.959,1.94
				c0-0.188,0.031-0.354,0.094-0.497c0.061-0.145,0.145-0.268,0.25-0.367C7.41,0.976,7.535,0.899,7.68,0.848
				s0.297-0.077,0.461-0.077c0.111,0,0.211,0.007,0.301,0.021c0.09,0.015,0.168,0.03,0.232,0.049s0.117,0.037,0.16,0.057
				c0.041,0.02,0.072,0.034,0.09,0.045L8.77,1.346C8.697,1.31,8.615,1.277,8.52,1.251C8.426,1.224,8.324,1.21,8.213,1.21z"/>
			<path fill="#5D4037" d="M11.115,1.171c-0.072,0.071-0.158,0.164-0.258,0.277c-0.102,0.112-0.203,0.236-0.311,0.37
				c-0.107,0.133-0.213,0.271-0.316,0.413C10.125,2.374,10.033,2.51,9.951,2.64h1.201v0.423H9.299V2.762
				C9.361,2.652,9.439,2.53,9.531,2.396s0.188-0.271,0.287-0.408c0.1-0.137,0.201-0.269,0.305-0.397
				c0.104-0.128,0.199-0.243,0.287-0.344H9.352V0.822h1.764V1.171z"/>
		</g>
	</g>
</g>
</svg>
