<?xml version="1.0" encoding="utf-8"?>
<!-- Generator: Adobe Illustrator 16.0.0, SVG Export Plug-In . SVG Version: 6.00 Build 0)  -->
<!DOCTYPE svg PUBLIC "-//W3C//DTD SVG 1.1//EN" "http://www.w3.org/Graphics/SVG/1.1/DTD/svg11.dtd">
<svg version="1.1" id="图层_1" xmlns="http://www.w3.org/2000/svg" xmlns:xlink="http://www.w3.org/1999/xlink" x="0px" y="0px"
	 width="16px" height="16px" viewBox="0 0 16 16" enable-background="new 0 0 16 16" xml:space="preserve">
<polygon fill="#311B92" points="1.881,16 1.881,0 14.119,0 14.119,11.495 9.545,16 "/>
<g>
	<g>
		<g>
			
				<linearGradient id="SVGID_1_" gradientUnits="userSpaceOnUse" x1="49.6006" y1="-163.3999" x2="49.6006" y2="-148.4004" gradientTransform="matrix(1 0 0 -1 -41.6001 -147.9004)">
				<stop  offset="0" style="stop-color:#512DA8"/>
				<stop  offset="0.008" style="stop-color:#532EA8"/>
				<stop  offset="0.1976" style="stop-color:#7541B2"/>
				<stop  offset="0.4086" style="stop-color:#9352BC"/>
				<stop  offset="0.6159" style="stop-color:#A95EC3"/>
				<stop  offset="0.8158" style="stop-color:#B666C7"/>
				<stop  offset="1" style="stop-color:#BA68C8"/>
			</linearGradient>
			<polygon fill="url(#SVGID_1_)" points="2.381,15.5 2.381,0.5 13.619,0.5 13.619,11.281 9.4,15.5 			"/>
		</g>
		<polygon fill="#673AB7" fill-opacity="0.3922" points="13.619,11.281 13.619,11.1 9.169,11.1 9.169,15.5 9.4,15.5 		"/>
		<path fill="#FFFFFF" fill-opacity="0.3922" d="M9.394,11.281l4.226,0.006L9.4,15.5L9.394,11.281z"/>
	</g>
	<g opacity="0.8">
		<g>
			<rect x="10.507" y="4.275" fill="#FFFFFF" width="1.649" height="0.6"/>
		</g>
		<g>
			<rect x="10.507" y="5.406" fill="#FFFFFF" width="1.649" height="0.6"/>
		</g>
		<g>
			<rect x="10.507" y="6.544" fill="#FFFFFF" width="1.649" height="0.6"/>
		</g>
		<g>
			<rect x="7.05" y="7.737" fill="#FFFFFF" width="5.106" height="0.601"/>
		</g>
		<g>
			<rect x="7.05" y="8.869" fill="#FFFFFF" width="5.106" height="0.6"/>
		</g>
		<path fill="#FFFFFF" d="M5.975,6.106l-0.7-0.15V5.088l0.95,0.206V4.631L4.8,4.325v0.662l0,0v3.438
			C4.725,8.406,4.644,8.394,4.557,8.394c-0.394,0-0.713,0.244-0.713,0.544s0.319,0.544,0.713,0.544c0.394,0,0.712-0.244,0.712-0.538
			l0,0V6.438l0.7,0.15L5.975,6.106L5.975,6.106z"/>
		<path fill="#FFFFFF" d="M9.713,6.463c0.006-0.007,0.006-0.013,0.013-0.02c0.006-0.012,0.012-0.024,0.019-0.037c0,0,0,0,0-0.006
			c0.031-0.075,0.063-0.15,0.081-0.226h0.3V5.563h-0.3C9.794,5.438,9.744,5.318,9.682,5.206l0.212-0.212L9.463,4.563L9.25,4.775
			c-0.112-0.069-0.231-0.119-0.362-0.15h0.006v-0.3H8.288v0.3h0.006c-0.131,0.031-0.25,0.081-0.362,0.15L7.719,4.563L7.288,4.994
			L7.5,5.206C7.438,5.313,7.388,5.432,7.356,5.563h-0.3v0.606h0.3C7.388,6.294,7.438,6.412,7.5,6.525l0,0L7.288,6.737l0.431,0.432
			l0.213-0.213c0.106,0.069,0.231,0.119,0.356,0.15v0.3h0.606v-0.3l0,0l0,0c0.125-0.031,0.25-0.081,0.356-0.15l0.213,0.213
			l0.431-0.432L9.682,6.525l0,0C9.688,6.513,9.694,6.5,9.7,6.487C9.706,6.481,9.713,6.469,9.713,6.463z M8.594,6.838
			c-0.537,0-0.969-0.438-0.969-0.969c0-0.538,0.438-0.969,0.969-0.969C8.7,4.9,8.8,4.919,8.9,4.95l0,0
			c0.388,0.125,0.669,0.493,0.669,0.925c0,0.025,0,0.05,0,0.081l0,0c-0.007,0.075-0.02,0.15-0.044,0.226v0.006
			C9.513,6.231,9.494,6.275,9.469,6.318c0,0,0,0.007-0.006,0.007C9.45,6.344,9.438,6.369,9.425,6.388c0,0,0,0,0,0.006
			C9.413,6.412,9.4,6.432,9.388,6.45c0,0,0,0,0,0.006C9.375,6.475,9.362,6.494,9.344,6.513L9.338,6.519
			C9.307,6.557,9.275,6.588,9.237,6.619L9.231,6.625c-0.019,0.013-0.037,0.031-0.05,0.044L9.175,6.675
			C9.156,6.688,9.144,6.7,9.125,6.713c0,0-0.006,0-0.006,0.006C9.101,6.731,9.081,6.744,9.063,6.75
			c-0.006,0-0.006,0.006-0.013,0.006c-0.019,0.013-0.037,0.02-0.063,0.025H8.981C8.963,6.787,8.944,6.794,8.925,6.8
			C8.807,6.818,8.7,6.838,8.594,6.838z"/>
	</g>
</g>
</svg>
