<?xml version="1.0" encoding="utf-8"?>
<!-- Generator: Adobe Illustrator 21.0.0, SVG Export Plug-In . SVG Version: 6.00 Build 0)  -->
<svg version="1.1" id="图层_1" xmlns="http://www.w3.org/2000/svg" xmlns:xlink="http://www.w3.org/1999/xlink" x="0px" y="0px"
	 viewBox="0 0 16 16" style="enable-background:new 0 0 16 16;" xml:space="preserve">
<style type="text/css">
	.st0{fill:url(#SVGID_1_);}
	.st1{fill:#455A64;}
	.st2{fill:#455A64;fill-opacity:0.39;}
	.st3{fill:#FFFFFF;fill-opacity:0.39;}
	.st4{opacity:0.8;fill:#FFFFFF;enable-background:new    ;}
</style>
<title>gnome-mime-text-x-makefile</title>
<linearGradient id="SVGID_1_" gradientUnits="userSpaceOnUse" x1="8" y1="1563.5" x2="8" y2="1548.5" gradientTransform="matrix(1 0 0 1 0 -1548)">
	<stop  offset="0" style="stop-color:#607D8B"/>
	<stop  offset="0.29" style="stop-color:#64808E"/>
	<stop  offset="0.58" style="stop-color:#708A97"/>
	<stop  offset="0.86" style="stop-color:#849AA5"/>
	<stop  offset="1" style="stop-color:#90A4AE"/>
</linearGradient>
<polygon class="st0" points="9.4,15.5 13.5,11.3 13.5,0.5 2.5,0.5 2.5,15.5 "/>
<path class="st1" d="M13.5,0.5V11L9,15.5H2.5v-15H13.5 M14,0H2v16h7.5l0.1-0.1l4.2-4.2l0.1-0.1V0H14z"/>
<polygon class="st2" points="13.5,11 13.5,11 9,11 9,15.5 9,15.5 "/>
<path class="st3" d="M9,11h4.5L9,15.5V11z"/>
<path class="st4" d="M10.9,7.6L10.9,7.6c0-0.1,0-0.1,0-0.2l0,0C11,7.2,11.1,7,11.1,6.8H12V5.2h-0.8c-0.1-0.3-0.2-0.6-0.4-0.9
	l0.6-0.6l-1.1-1.1L9.7,3.2C9.4,3,9.1,2.9,8.8,2.8l0,0V2H7.2v0.8l0,0C6.9,2.9,6.6,3,6.3,3.2L5.7,2.6L4.6,3.7l0.6,0.6
	C5,4.6,4.9,4.9,4.8,5.2H4v1.6h0.8C4.9,7.1,5,7.4,5.2,7.7l0,0L4.6,8.3l1.1,1.1l0.6-0.6C6.6,9,6.9,9.1,7.2,9.2V10h1.6V9.2l0,0
	C9.1,9.1,9.4,9,9.7,8.8l0.6,0.6l1.1-1.1l-0.6-0.6l0,0L10.9,7.6L10.9,7.6z M8,8.5C6.6,8.7,5.4,7.7,5.2,6.3C5,5,6,3.7,7.4,3.5
	c0.2,0,0.4,0,0.6,0c0.3,0,0.5,0,0.8,0.1l0,0c1,0.3,1.7,1.3,1.8,2.3c0,0.1,0,0.1,0,0.2l0,0c0,0.2-0.1,0.4-0.1,0.6l0,0
	c0,0.1-0.1,0.2-0.1,0.3l0,0c0,0.1-0.1,0.1-0.1,0.2l0,0L10,7.5l0,0L9.9,7.6l0,0C9.8,7.7,9.7,7.8,9.6,7.9l0,0L9.5,8l0,0L9.3,8.1l0,0
	L9.2,8.2l0,0L9,8.3l0,0L8.9,8.4C8.6,8.5,8.3,8.5,8,8.5z"/>
</svg>
