<?xml version="1.0" encoding="utf-8"?>
<!-- Generator: Adobe Illustrator 16.0.0, SVG Export Plug-In . SVG Version: 6.00 Build 0)  -->
<!DOCTYPE svg PUBLIC "-//W3C//DTD SVG 1.1//EN" "http://www.w3.org/Graphics/SVG/1.1/DTD/svg11.dtd">
<svg version="1.1" id="图层_1" xmlns="http://www.w3.org/2000/svg" xmlns:xlink="http://www.w3.org/1999/xlink" x="0px" y="0px"
	 width="16px" height="16px" viewBox="0 0 16 16" enable-background="new 0 0 16 16" xml:space="preserve">
<polygon fill="#212121" points="1.881,16 1.881,0 14.119,0 14.119,11.495 9.545,16 "/>
<g>
	<g>
		<g>
			<g>
				<linearGradient id="SVGID_1_" gradientUnits="userSpaceOnUse" x1="8.0005" y1="15.5" x2="8.0005" y2="0.5005">
					<stop  offset="0" style="stop-color:#616161"/>
					<stop  offset="1" style="stop-color:#90A4AE"/>
				</linearGradient>
				<polygon fill="url(#SVGID_1_)" points="2.381,15.5 2.381,0.5 13.619,0.5 13.619,11.281 9.4,15.5 				"/>
			</g>
			<polygon fill="#9E9E9E" fill-opacity="0.39" points="13.619,11.281 13.619,11.1 9.169,11.1 9.169,15.5 9.4,15.5 			"/>
			<path fill="#FFFFFF" fill-opacity="0.3922" d="M9.395,11.281l4.226,0.006L9.4,15.5L9.395,11.281z"/>
		</g>
	</g>
	<g>
		<g>
			<g opacity="0.8">
				<path fill="#FFFFFF" d="M5.653,9.42c-0.35,0-0.668-0.053-0.955-0.16s-0.534-0.262-0.74-0.467
					C3.753,8.59,3.594,8.338,3.481,8.037c-0.113-0.3-0.17-0.644-0.17-1.029c0-0.387,0.064-0.73,0.19-1.029
					c0.128-0.3,0.299-0.553,0.514-0.757c0.216-0.204,0.467-0.359,0.755-0.466c0.287-0.107,0.594-0.16,0.917-0.16
					c0.207,0,0.394,0.014,0.558,0.04c0.166,0.026,0.308,0.058,0.431,0.093C6.798,4.765,6.897,4.8,6.974,4.835
					c0.077,0.036,0.129,0.063,0.158,0.08L6.931,5.448C6.888,5.422,6.825,5.393,6.743,5.362C6.663,5.331,6.571,5.3,6.468,5.269
					S6.252,5.212,6.13,5.192c-0.122-0.021-0.245-0.03-0.369-0.03c-0.263,0-0.5,0.042-0.711,0.126
					C4.839,5.373,4.66,5.495,4.512,5.655S4.25,6.009,4.171,6.238c-0.079,0.229-0.119,0.485-0.119,0.77
					c0,0.275,0.035,0.526,0.104,0.752c0.069,0.228,0.173,0.422,0.313,0.583c0.139,0.163,0.313,0.288,0.52,0.378
					C5.197,8.809,5.44,8.854,5.718,8.854c0.321,0,0.586-0.029,0.797-0.094c0.21-0.061,0.369-0.117,0.473-0.166l0.182,0.533
					C7.136,9.148,7.075,9.176,6.987,9.209C6.902,9.244,6.795,9.275,6.666,9.307C6.535,9.338,6.385,9.363,6.213,9.389
					C6.04,9.41,5.854,9.42,5.653,9.42z"/>
			</g>
		</g>
		<g opacity="0.8">
			<path fill="#FFFFFF" d="M6.774,6.76h1.173V5.481h0.496V6.76h1.174v0.49H8.443v1.283H7.947V7.25H6.774V6.76z"/>
			<path fill="#FFFFFF" d="M9.846,6.76h1.174V5.481h0.496V6.76h1.174v0.49h-1.174v1.283H11.02V7.25H9.846V6.76z"/>
		</g>
	</g>
</g>
</svg>
