<?xml version="1.0" encoding="utf-8"?>
<!-- Generator: Adobe Illustrator 16.0.0, SVG Export Plug-In . SVG Version: 6.00 Build 0)  -->
<!DOCTYPE svg PUBLIC "-//W3C//DTD SVG 1.1//EN" "http://www.w3.org/Graphics/SVG/1.1/DTD/svg11.dtd">
<svg version="1.1" id="图层_1" xmlns="http://www.w3.org/2000/svg" xmlns:xlink="http://www.w3.org/1999/xlink" x="0px" y="0px"
	 width="16px" height="16px" viewBox="0 0 16 16" enable-background="new 0 0 16 16" xml:space="preserve">
<polygon fill="#0D47A1" points="1.881,16 1.881,0 14.119,0 14.119,11.495 9.545,16 "/>
<g>
	<g>
		<g>
			
				<linearGradient id="SVGID_1_" gradientUnits="userSpaceOnUse" x1="49.6006" y1="-163.3999" x2="49.6006" y2="-148.4004" gradientTransform="matrix(1 0 0 -1 -41.6001 -147.9004)">
				<stop  offset="0" style="stop-color:#1976D2"/>
				<stop  offset="0.0226" style="stop-color:#1C79D3"/>
				<stop  offset="0.2859" style="stop-color:#3B93E2"/>
				<stop  offset="0.5416" style="stop-color:#52A6ED"/>
				<stop  offset="0.7843" style="stop-color:#5FB1F4"/>
				<stop  offset="1" style="stop-color:#64B5F6"/>
			</linearGradient>
			<polygon fill="url(#SVGID_1_)" points="2.381,15.5 2.381,0.5 13.619,0.5 13.619,11.281 9.4,15.5 			"/>
		</g>
		<polygon fill="#0D47A1" fill-opacity="0.39" points="13.619,11.281 13.619,11.1 9.169,11.1 9.169,15.5 9.4,15.5 		"/>
		<path fill="#FFFFFF" fill-opacity="0.45" d="M9.394,11.281l4.226,0.006L9.4,15.5L9.394,11.281z"/>
	</g>
	<path fill="#64B5F6" d="M11.906,6.875c0,2.156-1.75,3.906-3.906,3.906s-3.906-1.75-3.906-3.906S5.844,2.969,8,2.969
		S11.906,4.719,11.906,6.875z"/>
	<path fill="#FFFFFF" fill-opacity="0.8" d="M5.438,3.932c0,0,0.081,0.043,0.112,0.112c0.025,0.068,0.112,0.068,0.112,0.068h0.125
		l0.182-0.056l-0.044,0.1c0,0-0.956,0.443-0.763,0.706c0.194,0.263,0.125,0.331,0.125,0.413c0,0.081,0.057,0.012,0.057,0.012
		L5.4,5.138l0.081-0.112L5.563,4.9l0.025-0.069L5.7,4.638l0.138-0.081l0.125,0.081c0,0,0.056,0.024,0.043,0.068
		C5.994,4.75,5.981,4.831,5.981,4.831S6.006,4.888,6.05,4.888s0.112-0.044,0.112-0.044l0.057,0.1l0.044,0.182l0.112,0.112
		l0.057,0.125L6.375,5.475l0.057,0.044l0.125,0.138l0.024,0.068L6.375,5.713c0,0-0.025-0.057-0.068-0.057
		c-0.044,0-0.219-0.013-0.219-0.013L5.987,5.669L5.932,5.737c0,0-0.069,0.112-0.113,0.112c-0.043,0-0.149-0.024-0.149-0.024
		S5.588,5.8,5.544,5.881C5.5,5.963,5.612,6.006,5.612,6.006L5.419,6.063L5.362,6.088c0,0-0.138,0.056-0.138,0.1s0,0.044,0,0.044
		L5.182,6.344v0.068L5.081,6.494l-0.1,0.068L4.938,6.644v0.138c0,0-0.013,0.068-0.013,0.112s0,0.15,0,0.15S4.881,7.088,4.856,7
		C4.831,6.919,4.831,6.919,4.831,6.919L4.787,6.818c0,0,0.044-0.012-0.012-0.056C4.719,6.719,4.662,6.706,4.662,6.706
		S4.638,6.682,4.581,6.682c-0.056,0,0.069,0.012-0.056,0C4.4,6.669,4.4,6.669,4.4,6.669L4.3,6.75v0.068c0,0-0.024,0.488,0.112,0.557
		h0.057L4.55,7.25l0.069,0.025v0.056L4.606,7.432v0.056l0.068,0.069l0.044,0.125c0.057,0.1,0.025,0.125,0.068,0.149
		c0.044,0.025,0.082,0.101,0.082,0.101l0.056,0.024c0,0,0.044,0.013,0.081,0.025C5.05,7.994,5.05,7.994,5.05,7.994l0.013,0.063
		l0.013,0.05l0.056,0.068c0,0-0.043,0,0.057,0s0.1,0,0.1,0s0,0.025,0.069,0.057c0.068,0.024,0.013,0.013,0.068,0.024
		c0.057,0.013,0.15,0.025,0.15,0.025c0.1-0.013,0.1-0.013,0.1-0.013l0.069,0.101c0,0,0.043,0,0.056,0.043
		c0.013,0.044-0.068,0,0.013,0.044s0,0.013,0.081,0.044S5.869,8.525,5.975,8.525c0.106,0,0.125,0,0.169,0.012
		C6.188,8.55,6.213,8.65,6.213,8.65c0.081,0.1,0.081,0.1,0.081,0.1l0.013,0.125c0,0-0.044,0.025,0.056,0.025
		c0.101,0,0.025,0,0.101,0c0.074,0-0.013-0.025,0.068,0c0.081,0.024,0.081,0.024,0.081,0.024s0.125,0.101,0.169,0.101
		s0.125-0.013,0.169,0c0.044,0.012,0.068,0.081,0.149,0.1c0.082,0.013,0.113,0,0.169,0.044c0.057,0.044,0.057,0.044,0.057,0.044
		l0.013,0.149L7.294,9.443L7.182,9.487L7.169,9.625L7.112,9.763v0.068c0,0,0.069,0.057-0.056,0.069
		C6.932,9.912,6.932,9.912,6.932,9.912L6.875,9.969c0,0,0,0.013-0.025,0.057c-0.024,0.043-0.056,0.112-0.056,0.112l0.013,0.125
		v0.081l-0.044,0.068c0,0-0.038,0.02,0.068,0.088c0.112,0.068,0.2,0.068,0.226,0.112c0.024,0.044,0.094,0.081,0.094,0.081L7,10.662
		l-0.094-0.031L6.75,10.588l-0.3-0.156c0,0-0.45-0.369-0.588-0.669c0,0-0.118-0.175-0.318-0.25c0,0-0.494-0.45-0.538-0.563
		L4.987,8.875V8.838l-0.019-0.02V8.775L4.956,8.744l0.007-0.138l0.006-0.094l0.006-0.05L4.969,8.425c0,0-0.025-0.024-0.025-0.031
		c0-0.006-0.019-0.063-0.019-0.063L4.919,8.313L4.994,8.25l-0.02-0.057l0.013-0.031l0.044-0.031c0,0,0.025-0.037,0.025-0.043
		c0-0.013-0.044-0.044-0.044-0.044L4.994,8.05l-0.02,0.057H4.95c0,0-0.025-0.013-0.025-0.019c0-0.007-0.024-0.031-0.024-0.031
		L4.869,8.044c0,0-0.025-0.007-0.031-0.019C4.831,8.013,4.8,7.994,4.8,7.987c0-0.006-0.024-0.044-0.024-0.044L4.744,7.932
		c0,0-0.038-0.057-0.038-0.069c0-0.006-0.019-0.037-0.019-0.037s-0.044-0.05-0.044-0.057c0-0.006-0.019-0.05-0.019-0.05H4.594
		L4.525,7.693L4.481,7.638l-0.05-0.057c0,0-0.025-0.044-0.025-0.056c0-0.013-0.019-0.025-0.019-0.025H4.356H4.338L4.294,7.463
		L4.182,7.307l-0.02-0.069L4.144,7.162L4.131,7.037V6.956l-0.05-0.581C4.1,6.381,4.269,4.943,5.438,3.932z"/>
	<path fill="#FFFFFF" fill-opacity="0.8" d="M9.851,3.443l0.125,0.101l0.063,0.031l0.043,0.05l0.007,0.05
		c0,0,0.013,0.05,0.006,0.063c-0.006,0.013-0.013,0.081-0.013,0.081s0.057,0.101,0.057,0.113c0,0.012,0.006,0.068-0.006,0.081
		c-0.013,0.006-0.082,0.05-0.088,0.031s-0.05-0.063-0.063-0.063c-0.013-0.007-0.05-0.044-0.05-0.044l0.1-0.013l-0.013-0.063
		c0,0-0.068-0.024-0.087-0.024C9.913,3.831,9.844,3.794,9.844,3.794L9.769,3.775c0,0-0.125-0.031-0.137-0.038
		C9.619,3.731,9.569,3.713,9.569,3.713H9.463c0,0-0.051,0.024-0.063,0.037C9.394,3.763,9.331,3.831,9.331,3.831
		S9.325,3.912,9.325,3.925S9.307,3.969,9.307,4.006c0,0.038-0.007,0.088-0.007,0.101s0,0.031,0,0.031L9.287,4.193L9.244,4.219
		L9.188,4.263c0,0-0.05,0.037-0.05,0.05s0,0.063,0.019,0.1C9.175,4.45,9.169,4.487,9.193,4.506C9.219,4.525,9.231,4.55,9.25,4.557
		c0.019,0.006,0.006,0.012,0.037,0.012c0.025,0,0.051,0.007,0.063-0.006c0.013-0.006,0.044-0.006,0.057-0.025
		c0.013-0.019-0.013-0.006,0.013-0.019c0.024-0.006,0.024-0.024,0.044-0.006c0.024,0.019,0.044,0.044,0.05,0.056
		c0.006,0.013,0.025,0.044,0.044,0.063c0.024,0.013,0.044,0.063,0.044,0.063l0.037,0.038c0,0,0.006,0.006,0.031,0.006
		s0.063-0.006,0.063-0.006l0.013-0.025c0,0,0.024,0.007,0.031-0.006c0.006-0.013,0.006-0.031,0.006-0.031s-0.013-0.038-0.024-0.05
		c-0.007-0.013-0.02-0.044-0.02-0.044l0.007-0.044l0.024-0.025l0.007-0.031V4.438L9.75,4.425L9.706,4.4c0,0-0.024,0.006-0.024-0.025
		C9.675,4.35,9.675,4.35,9.675,4.35L9.619,4.338l-0.038-0.02l0.044-0.031C9.65,4.244,9.656,4.231,9.656,4.219S9.65,4.169,9.65,4.169
		S9.625,4.162,9.625,4.131C9.619,4.1,9.619,4.081,9.619,4.081l0.006-0.024c0,0,0.007-0.02,0.025-0.02c0.013,0,0.037,0.02,0.05,0.02
		s0.037,0.006,0.037,0.006S9.75,4.068,9.75,4.088c0,0.012-0.006,0.043-0.006,0.043l0.024-0.037v0.044l-0.006,0.05v0.05l0.025,0.05
		l0.024,0.038c0,0,0.031,0.031,0.044,0.044C9.869,4.375,9.9,4.4,9.9,4.4l0.037,0.019l0.025,0.006L9.987,4.4
		c0,0,0.044,0.006,0.044-0.007c0.007-0.013,0.007-0.013,0.007-0.013s0.05-0.006,0.063-0.006c0.012,0,0.037,0,0.037,0
		s0.019,0.037,0.006,0.037c-0.012,0-0.019,0.013-0.05,0.025c-0.031,0.006-0.044,0-0.05,0.013s-0.025,0.044-0.025,0.044L10.044,4.5
		h0.019l0.025,0.025c0,0,0.006,0.006,0,0.024c-0.007,0.019,0.024,0.013-0.007,0.019c-0.037,0.007-0.056-0.006-0.056-0.006
		S10.019,4.531,10,4.544C9.987,4.557,9.981,4.588,9.981,4.588v0.043l0.025,0.063c0,0,0.012,0.013,0,0.02
		C9.994,4.719,9.95,4.769,9.95,4.769S9.944,4.787,9.925,4.787c-0.012,0-0.031,0-0.063,0.007C9.838,4.8,9.838,4.8,9.813,4.807
		C9.788,4.813,9.769,4.818,9.731,4.825C9.694,4.831,9.625,4.831,9.601,4.831c-0.025,0-0.031,0-0.044-0.006
		c-0.013-0.007-0.007,0-0.025-0.025C9.513,4.775,9.494,4.756,9.494,4.737c0-0.013,0-0.019-0.007-0.044
		C9.481,4.669,9.481,4.65,9.463,4.65c-0.025,0-0.025,0-0.025,0S9.388,4.688,9.394,4.7c0.007,0.013-0.006,0,0.038,0.031
		c0.043,0.031,0.056,0.075,0.056,0.075L9.481,4.85L9.4,4.894L9.344,4.912L9.338,4.95c0,0,0,0.013-0.013,0.031
		S9.281,5.025,9.281,5.025S9.256,5.031,9.25,5.05C9.244,5.063,9.225,5.112,9.225,5.112S9.2,5.106,9.175,5.125
		C9.15,5.144,9.182,5.144,9.125,5.169C9.068,5.193,9.068,5.193,9.068,5.193L9.006,5.188L8.969,5.2c0,0-0.05,0.006-0.057,0.019
		c-0.006,0.013-0.031,0.05-0.031,0.05s-0.012,0.025,0,0.025c0.013,0.006,0.031,0,0.063,0.006c0.025,0.007,0.031,0.007,0.051,0.019
		c0.019,0.007,0.037,0.025,0.037,0.025L9.1,5.406l0.038,0.081L9.131,5.55L9.057,5.575c0,0-0.044,0-0.063,0c-0.013,0-0.007,0-0.082,0
		c-0.074,0-0.087,0-0.1,0S8.75,5.568,8.75,5.568L8.706,5.575L8.675,5.6L8.656,5.606c0,0,0.025,0.056,0.025,0.075
		c0,0.019,0,0.043,0,0.043L8.675,5.763L8.656,5.807L8.631,5.85l0.007,0.025c0,0-0.007,0.019,0.006,0.019s0.05-0.006,0.05,0.007
		c0,0.012-0.031,0.063-0.031,0.063l0.063,0.012c0,0-0.006-0.006,0.031,0.007C8.794,5.987,8.818,6,8.818,6l0.044,0.031l0.013,0.025
		l0.013-0.025c0,0,0.068-0.006,0.081-0.013c0.013-0.006,0.044-0.006,0.044-0.006h0.056c0,0,0.013,0.006,0.025-0.007
		C9.1,5.994,9.1,5.994,9.1,5.994s0.063-0.025,0.075-0.038C9.188,5.95,9.193,5.912,9.193,5.912s0.02-0.012,0.02-0.024
		S9.2,5.844,9.2,5.844V5.818l0.019-0.024c0,0,0.006-0.007,0.025-0.025C9.263,5.75,9.263,5.75,9.263,5.75S9.256,5.744,9.281,5.731
		c0.025-0.007,0.044-0.025,0.057-0.025c0.012,0-0.013,0.013,0.012,0c0.025-0.013,0.031-0.024,0.031-0.044
		c0-0.012,0.007-0.081,0.007-0.081l0.024-0.037L9.475,5.55l0.032,0.007c0,0,0.037,0.006,0.043-0.007
		c0.007-0.013,0.025-0.024,0.025-0.024L9.625,5.5c0,0-0.006-0.006,0.019-0.006c0.025,0,0.063,0,0.082,0c0.012,0,0.043,0,0.043,0
		s0.025,0.012,0.038,0.024c0.006,0.013,0.024,0.044,0.024,0.044l0.02,0.025h0.019C9.894,5.606,9.906,5.619,9.95,5.631
		c0.044,0.013,0.075,0.025,0.075,0.025s0.013,0.025,0.024,0.037c0.013,0.013,0.025,0.025,0.044,0.038
		c0.013,0.006,0.025,0.019,0.031,0.031C10.132,5.775,10.15,5.8,10.15,5.8l0.024,0.025L10.188,5.8V5.756l-0.006-0.024
		c0,0-0.025-0.019,0.006-0.019c0.025,0,0.044,0,0.044,0l-0.025-0.038l-0.031-0.013l-0.043-0.031l-0.02-0.019l-0.019-0.006
		l-0.019-0.013L10.05,5.575c0,0-0.043-0.007-0.043-0.025C10,5.537,10,5.537,10,5.537L9.956,5.531c0,0-0.043-0.025-0.043-0.037
		c0-0.013-0.007-0.051-0.007-0.051L9.869,5.438c0,0,0.006-0.025,0.006-0.044c0-0.013,0.013-0.031,0.013-0.031l0.081-0.006L9.987,5.4
		l0.031,0.019l0.044,0.019l0.019,0.025l0.02,0.019c0,0,0.006,0.006,0.031,0.013c0.024,0.006,0.043,0.012,0.043,0.012
		s0.025,0.025,0.044,0.025c0.019,0.006,0.025,0.013,0.044,0.019C10.25,5.563,10.25,5.563,10.25,5.563s0.007,0.013,0.025,0.025
		c0.019,0.012,0.037,0.037,0.037,0.05s0.013,0.056,0.025,0.063c0.013,0.006,0.019,0.006,0.044,0.031
		c0.024,0.024,0.024,0.05,0.043,0.063c0.025,0.006,0.044,0,0.044,0.024c0.007,0.025,0.007,0.044,0.007,0.044
		s0.019,0.007,0.031,0.007c0.012,0,0.037-0.025,0.037-0.025S10.569,5.807,10.55,5.8c-0.012-0.006-0.043-0.006-0.043-0.019
		s0-0.081,0-0.081l0.019-0.044l0.024-0.037l0.038,0.012l0.037-0.024l0.038,0.044L10.65,5.7c0,0,0.006,0.031,0.024,0.056
		c0.013,0.025,0.044,0.057,0.044,0.057l0.063,0.057l0.088,0.024l0.019-0.006l0.131-0.025c0,0,0.02,0,0.031,0
		c0.013,0,0.075,0.106,0.075,0.106s0,0.044,0,0.068c0,0.025,0,0.088,0,0.088s-0.044,0.044-0.063,0.044s-0.068,0.024-0.068,0.024
		l-0.106,0.025l-0.068-0.006l-0.125-0.007c0,0-0.125-0.006-0.138-0.006s-0.057,0-0.069,0c-0.012,0-0.031,0.013-0.043,0.05
		c-0.013,0.037-0.038,0.05-0.038,0.05s0,0.019-0.024,0.019c-0.025,0-0.025,0.007-0.044-0.006s-0.106-0.031-0.106-0.031L10.15,6.225
		l-0.044-0.037l-0.044-0.006H9.938L9.856,6.175l0.013-0.131l0.013,0.037L9.856,5.994L9.819,5.969L9.731,5.95L9.675,5.956
		L9.601,5.975L9.525,6L9.481,6.013L9.269,6.05L9.193,6.081c0,0-0.031,0.019-0.043,0.025C9.138,6.112,9.088,6.112,9.088,6.112
		S9.05,6.106,9.031,6.1C9.013,6.094,8.969,6.094,8.95,6.094s-0.057-0.006-0.069,0C8.869,6.1,8.856,6.1,8.844,6.119
		C8.831,6.138,8.787,6.188,8.787,6.188S8.763,6.213,8.75,6.225C8.744,6.237,8.713,6.275,8.713,6.275L8.662,6.356L8.631,6.394
		l0.007,0.044v0.031c0,0-0.019,0.019-0.031,0.025C8.594,6.5,8.568,6.513,8.568,6.513S8.55,6.519,8.531,6.537
		C8.513,6.55,8.513,6.557,8.5,6.568C8.487,6.581,8.443,6.612,8.443,6.612S8.419,6.631,8.4,6.65C8.388,6.669,8.362,6.693,8.356,6.706
		C8.35,6.719,8.331,6.731,8.318,6.737C8.307,6.744,8.281,6.794,8.275,6.807C8.269,6.818,8.231,6.875,8.231,6.875L8.206,6.981
		L8.2,7.031c0,0,0.006,0.019,0.019,0.031s0.025,0.063,0.025,0.063v0.044c0,0-0.013,0.037-0.02,0.05
		C8.219,7.231,8.231,7.294,8.231,7.294v0.037c0,0,0,0.013-0.019,0.031c-0.02,0.019-0.025,0.044-0.025,0.044l0.025,0.057L8.231,7.5
		v0.025l0.024,0.043c0,0,0.013,0.013,0.025,0.025C8.294,7.6,8.3,7.6,8.325,7.619C8.35,7.631,8.35,7.631,8.35,7.631
		s0.038,0.044,0.038,0.063c0,0.013,0.024,0.038,0.024,0.038l0.044,0.044c0,0,0.007,0.024,0.031,0.043
		c0.025,0.02,0.05,0.031,0.063,0.044C8.563,7.869,8.6,7.9,8.631,7.906c0.025,0.006,0.038,0.013,0.051,0.013
		c0.012,0-0.02-0.038,0.068,0.006s0.144,0.063,0.144,0.063l0.063,0.025c0,0,0.101,0.006,0.112-0.007C9.081,8,9.1,8,9.112,8
		s0.044,0,0.069,0c0.024,0,0.112-0.013,0.112-0.013l0.1-0.037c0,0,0.031-0.019,0.044-0.025C9.45,7.919,9.487,7.894,9.5,7.888
		c0.013-0.007,0.075-0.007,0.075-0.007s0-0.019,0.025,0C9.625,7.9,9.625,7.906,9.632,7.919c0.006,0.013,0.006,0.044,0.024,0.044
		c0.019,0.006,0.063,0.019,0.063,0.019s0.063-0.007,0.081,0c0.02,0.006,0.063,0.006,0.063,0.006l0.02,0.025l0.006,0.056v0.051
		c0,0-0.006,0.019,0,0.037s0.025,0.05,0.025,0.05S9.888,8.244,9.875,8.25S9.831,8.294,9.831,8.294l0.088,0.081l0.05,0.05
		l0.038,0.044c0,0,0.006,0.019,0.006,0.031s-0.006,0.044,0,0.063c0.006,0.013,0.006,0.063,0.006,0.063s0.007,0.037,0.007,0.05
		S10.013,8.75,10.013,8.75l-0.006,0.044L9.981,8.869L9.95,8.906L9.906,8.95L9.875,9L9.869,9.068L9.844,9.112
		c0,0,0.007,0.038,0.007,0.057s0.037,0.087,0.037,0.087L9.882,9.313c0,0-0.025,0.081-0.025,0.1c0,0.02-0.019,0.044-0.019,0.063
		c0,0.013-0.007,0.069-0.007,0.069l0.007,0.068l0.024,0.069L9.838,9.744c0,0-0.013,0.05-0.013,0.081
		c0,0.024,0.044,0.056,0.057,0.056c0.012,0,0.068-0.006,0.094-0.024c0.024-0.013,0.087-0.031,0.1-0.038
		c0.013-0.006,0.025,0.007,0.063-0.024c0.037-0.025,0.094-0.069,0.094-0.069s0.044-0.031,0.063-0.043
		C10.307,9.669,10.369,9.6,10.369,9.6s0.044-0.043,0.075-0.063c0.031-0.019,0-0.006,0.031-0.024s0.131-0.101,0.131-0.101l0.1-0.1
		c0,0,0.088-0.112,0.101-0.131c0.013-0.02,0.094-0.125,0.106-0.132c0.012-0.006,0.125-0.081,0.149-0.1
		c0.025-0.019,0.057-0.15,0.069-0.169c0.012-0.013,0.081-0.169,0.081-0.169l0.063-0.181l0.106-0.27l0.105-0.188
		c0,0,0.044-0.081,0.063-0.105c0.013-0.025,0.113-0.219,0.113-0.219L11.7,7.487l0.013-0.138H11.65l-0.069,0.063l-0.063-0.019
		L11.456,7.4l0.069-0.088l-0.019-0.068L11.45,7.2l-0.075-0.112V6.975l-0.081-0.131l-0.05-0.206c0,0-0.094-0.101-0.081-0.125
		c0.006-0.025,0.031-0.101,0.031-0.101l0.05,0.025c0,0,0.037,0.1,0.056,0.106c0.02,0.006,0.044,0.056,0.051,0.068
		c0.006,0.013,0.012,0.057,0.024,0.069c0.007,0.012,0.05,0.094,0.05,0.094s0.031,0.081,0.038,0.1c0.006,0.013,0.037,0.063,0.044,0.1
		c0.006,0.038,0.024,0.156,0.024,0.169s0.031,0.144,0.031,0.144s0.044-0.012,0.05-0.024c0.007-0.013,0.007-0.019,0.02-0.031
		c0.006-0.013,0.081-0.069,0.081-0.069l0.031-0.1c0,0,0.019-0.044,0.024-0.063c0.007-0.019,0.044-0.088,0.044-0.1
		c0-0.013-0.006-0.063,0-0.082c0.007-0.012,0.025-0.087,0.025-0.1s0.006-0.063,0.006-0.063l-0.006-0.112l0.05-0.063l0.025-0.069
		C11.9,6.388,11.719,4.425,9.851,3.443z"/>
</g>
</svg>
