<?xml version="1.0" encoding="utf-8"?>
<!-- Generator: Adobe Illustrator 16.0.0, SVG Export Plug-In . SVG Version: 6.00 Build 0)  -->
<!DOCTYPE svg PUBLIC "-//W3C//DTD SVG 1.1//EN" "http://www.w3.org/Graphics/SVG/1.1/DTD/svg11.dtd">
<svg version="1.1" id="图层_1" xmlns="http://www.w3.org/2000/svg" xmlns:xlink="http://www.w3.org/1999/xlink" x="0px" y="0px"
	 width="16px" height="16px" viewBox="0 0 16 16" enable-background="new 0 0 16 16" xml:space="preserve">
<polygon fill="#607D8B" points="1.881,16 1.881,0 14.119,0 14.119,11.495 9.545,16 "/>
<g>
	<g>
		
			<linearGradient id="SVGID_1_" gradientUnits="userSpaceOnUse" x1="49.6006" y1="419.3994" x2="49.6006" y2="434.4004" gradientTransform="matrix(1 0 0 1 -41.6001 -418.9004)">
			<stop  offset="0" style="stop-color:#F5F5F5"/>
			<stop  offset="0.341" style="stop-color:#F1F2F3"/>
			<stop  offset="0.6434" style="stop-color:#E7EAEC"/>
			<stop  offset="0.9302" style="stop-color:#D5DCE0"/>
			<stop  offset="1" style="stop-color:#CFD8DC"/>
		</linearGradient>
		<polygon fill="url(#SVGID_1_)" points="2.381,15.5 2.381,0.5 13.619,0.5 13.619,11.281 9.4,15.5 		"/>
	</g>
	<g>
		<rect x="3.831" y="2.65" opacity="0.8" fill="#607D8B" enable-background="new    " width="1.55" height="0.887"/>
		<rect x="5.831" y="2.65" opacity="0.8" fill="#607D8B" enable-background="new    " width="6.332" height="0.887"/>
		<rect x="3.831" y="5.037" opacity="0.8" fill="#607D8B" enable-background="new    " width="1.55" height="0.413"/>
		<rect x="5.831" y="5.037" opacity="0.8" fill="#607D8B" enable-background="new    " width="6.332" height="0.413"/>
		<rect x="5.831" y="6.338" opacity="0.8" fill="#607D8B" enable-background="new    " width="6.332" height="0.412"/>
		<rect x="3.831" y="6.338" opacity="0.8" fill="#607D8B" enable-background="new    " width="1.55" height="0.412"/>
		<rect x="5.831" y="7.638" opacity="0.8" fill="#607D8B" enable-background="new    " width="6.332" height="0.412"/>
		<rect x="3.831" y="7.638" opacity="0.8" fill="#607D8B" enable-background="new    " width="1.55" height="0.412"/>
		<rect x="5.831" y="8.932" opacity="0.8" fill="#607D8B" enable-background="new    " width="6.332" height="0.412"/>
		<rect x="3.831" y="8.932" opacity="0.8" fill="#607D8B" enable-background="new    " width="1.55" height="0.412"/>
		<rect x="3.831" y="10.231" opacity="0.8" fill="#607D8B" enable-background="new    " width="1.55" height="0.412"/>
		<rect x="5.831" y="10.231" opacity="0.8" fill="#607D8B" enable-background="new    " width="3.15" height="0.412"/>
	</g>
	<polygon fill="#455A64" fill-opacity="0.7" points="13.619,11.281 13.619,11.1 9.169,11.1 9.169,15.5 9.4,15.5 	"/>
	<path fill="#90A4AE" d="M9.394,11.281l4.226,0.006L9.4,15.5L9.394,11.281z"/>
</g>
</svg>
