<?xml version="1.0" encoding="utf-8"?>
<!-- Generator: Adobe Illustrator 16.0.0, SVG Export Plug-In . SVG Version: 6.00 Build 0)  -->
<!DOCTYPE svg PUBLIC "-//W3C//DTD SVG 1.1//EN" "http://www.w3.org/Graphics/SVG/1.1/DTD/svg11.dtd">
<svg version="1.1" id="图层_1" xmlns="http://www.w3.org/2000/svg" xmlns:xlink="http://www.w3.org/1999/xlink" x="0px" y="0px"
	 width="16px" height="16px" viewBox="0 0 16 16" enable-background="new 0 0 16 16" xml:space="preserve">
<linearGradient id="SVGID_1_" gradientUnits="userSpaceOnUse" x1="216.001" y1="-1717.9512" x2="216.001" y2="-1701.9512" gradientTransform="matrix(1 0 0 -1 -208.0005 -1701.9512)">
	<stop  offset="0" style="stop-color:#3F51B5"/>
	<stop  offset="0.258" style="stop-color:#4355B7"/>
	<stop  offset="0.5253" style="stop-color:#5060BB"/>
	<stop  offset="0.7959" style="stop-color:#6473C3"/>
	<stop  offset="1" style="stop-color:#7986CB"/>
</linearGradient>
<path fill="url(#SVGID_1_)" d="M9.5,16l4.5-4.5V0H2v16H9.5z"/>
<polygon fill="#311B92" fill-opacity="0.3922" points="9.25,11.25 9.25,16 9.5,16 14,11.5 14,11.25 "/>
<path fill="#FFFFFF" fill-opacity="0.3922" d="M9.5,11.5h4.496L9.5,16V11.5z"/>
<g>
	<g>
		<path fill="#311B92" d="M13.5,0.5v10.793L9.293,15.5H6H2.5v-15H13.5 M14,0H2v16h4h3.5l4.5-4.5V0L14,0z"/>
	</g>
</g>
<g opacity="0.8">
	<path fill="#FFFFFF" d="M8.072,2.983C7.801,2.984,7.539,3.006,7.311,3.045c-0.67,0.117-0.813,0.152-0.813,0.603v1h1.668v0.334H5.83
		c-0.459,0-0.76,0.281-0.885,0.803c-0.146,0.597-0.152,0.969,0,1.594C5.057,7.842,5.371,8.317,5.83,8.317h0.334v-1
		c0-0.518,0.465-1,1-1h1.668c0.441,0,0.668-0.229,0.668-0.668V3.983c0-0.426-0.176-0.867-0.605-0.938
		C8.623,3,8.342,2.981,8.072,2.983z M7.498,3.648c0.186,0,0.334,0.151,0.334,0.334S7.684,4.317,7.498,4.317
		c-0.184,0-0.334-0.15-0.334-0.334S7.314,3.648,7.498,3.648z"/>
	<path fill="#FFFFFF" d="M7.928,9.982C8.199,9.981,8.461,9.959,8.689,9.92c0.67-0.117,0.813-0.152,0.813-0.603v-1H7.834V7.982h2.336
		c0.459,0,0.76-0.281,0.885-0.802c0.146-0.598,0.152-0.969,0-1.594c-0.111-0.462-0.426-0.938-0.885-0.938H9.836v1
		c0,0.518-0.465,1-1,1H7.168C6.727,6.648,6.5,6.877,6.5,7.317v1.666c0,0.426,0.176,0.867,0.605,0.938
		C7.377,9.966,7.658,9.984,7.928,9.982z M8.502,9.317c-0.186,0-0.334-0.15-0.334-0.335c0-0.184,0.148-0.334,0.334-0.334
		c0.184,0,0.334,0.15,0.334,0.334C8.836,9.167,8.686,9.317,8.502,9.317z"/>
</g>
</svg>
