<?xml version="1.0" encoding="utf-8"?>
<!-- Generator: Adobe Illustrator 16.0.0, SVG Export Plug-In . SVG Version: 6.00 Build 0)  -->
<!DOCTYPE svg PUBLIC "-//W3C//DTD SVG 1.1//EN" "http://www.w3.org/Graphics/SVG/1.1/DTD/svg11.dtd">
<svg version="1.1" id="图层_1" xmlns="http://www.w3.org/2000/svg" xmlns:xlink="http://www.w3.org/1999/xlink" x="0px" y="0px"
	 width="16px" height="16px" viewBox="0 0 16 16" enable-background="new 0 0 16 16" xml:space="preserve">
<rect x="1.881" fill="#E65100" width="12.238" height="16"/>
<g>
	
		<linearGradient id="SVGID_1_" gradientUnits="userSpaceOnUse" x1="91.1992" y1="840.3008" x2="91.1992" y2="825.3008" gradientTransform="matrix(1 0 0 1 -83.2002 -824.8008)">
		<stop  offset="0" style="stop-color:#EE6F0B"/>
		<stop  offset="1" style="stop-color:#FFB74D"/>
	</linearGradient>
	<rect x="2.381" y="0.5" fill="url(#SVGID_1_)" width="11.238" height="15"/>
	<g opacity="0.8">
		<rect x="3.844" y="6.274" fill="#FFFFFF" width="1.2" height="6.013"/>
		<rect x="5.844" y="9.274" fill="#FFFFFF" width="1.2" height="3.006"/>
		<rect x="7.838" y="10.499" fill="#FFFFFF" width="1.199" height="1.801"/>
		<g>
			<path fill="#FFFFFF" d="M9.469,5.212l0.014,2.394l2.394-0.013c0.007,1.325-1.063,2.4-2.388,2.406
				c-1.326,0.008-2.4-1.063-2.407-2.387C7.075,6.293,8.144,5.218,9.469,5.212z"/>
			<path fill="#FFFFFF" d="M9.75,4.936c1.325-0.006,2.4,1.063,2.406,2.388L9.764,7.337L9.75,4.936z"/>
		</g>
	</g>
	<g>
		<rect x="2.378" y="0.5" opacity="0.8" fill="#FFFFFF" enable-background="new    " width="11.244" height="2.875"/>
		<g enable-background="new    ">
			<path fill="#E64A19" d="M5.432,0.775c0.353,0,0.622,0.059,0.811,0.176c0.188,0.118,0.282,0.31,0.282,0.577
				c0,0.27-0.095,0.464-0.286,0.583c-0.19,0.12-0.463,0.18-0.816,0.18H5.255v0.75h-0.53V0.833C4.84,0.812,4.962,0.796,5.092,0.788
				C5.221,0.779,5.334,0.775,5.432,0.775z M5.466,1.205c-0.038,0-0.076,0.001-0.113,0.003C5.314,1.21,5.282,1.212,5.255,1.215v0.646
				h0.167c0.184,0,0.322-0.023,0.415-0.071c0.093-0.047,0.14-0.136,0.14-0.265c0-0.063-0.012-0.114-0.036-0.155
				C5.917,1.329,5.883,1.296,5.839,1.271C5.795,1.247,5.74,1.229,5.677,1.22S5.543,1.205,5.466,1.205z"/>
			<path fill="#E64A19" d="M9.162,1.919c0,0.192-0.03,0.361-0.09,0.506C9.012,2.571,8.93,2.693,8.825,2.791S8.597,2.963,8.452,3.012
				C8.309,3.063,8.153,3.087,7.988,3.087c-0.161,0-0.313-0.024-0.456-0.075C7.389,2.963,7.265,2.889,7.157,2.791
				c-0.106-0.098-0.19-0.22-0.251-0.365C6.845,2.28,6.813,2.111,6.813,1.919s0.032-0.36,0.096-0.506s0.149-0.268,0.257-0.367
				c0.108-0.099,0.232-0.173,0.375-0.223c0.142-0.05,0.29-0.075,0.447-0.075c0.16,0,0.313,0.025,0.455,0.075
				c0.144,0.049,0.268,0.124,0.375,0.223c0.106,0.1,0.19,0.222,0.252,0.367C9.131,1.559,9.162,1.728,9.162,1.919z M7.362,1.919
				c0,0.11,0.014,0.209,0.042,0.297c0.028,0.089,0.069,0.165,0.123,0.228C7.58,2.509,7.646,2.558,7.723,2.592
				C7.8,2.627,7.889,2.645,7.988,2.645c0.098,0,0.186-0.018,0.264-0.053C8.33,2.558,8.396,2.509,8.449,2.445
				c0.053-0.063,0.094-0.139,0.122-0.228C8.6,2.129,8.614,2.029,8.614,1.919S8.6,1.71,8.571,1.621S8.502,1.455,8.449,1.391
				C8.396,1.328,8.33,1.278,8.252,1.244C8.174,1.209,8.086,1.192,7.988,1.192c-0.1,0-0.188,0.018-0.266,0.054
				S7.58,1.331,7.527,1.394c-0.054,0.064-0.095,0.14-0.123,0.229C7.376,1.713,7.362,1.812,7.362,1.919z"/>
			<path fill="#E64A19" d="M11.275,0.801v0.43h-0.712v1.81h-0.53v-1.81H9.321v-0.43H11.275z"/>
		</g>
	</g>
</g>
</svg>
