<?xml version="1.0" encoding="utf-8"?>
<!-- Generator: Adobe Illustrator 16.0.0, SVG Export Plug-In . SVG Version: 6.00 Build 0)  -->
<!DOCTYPE svg PUBLIC "-//W3C//DTD SVG 1.1//EN" "http://www.w3.org/Graphics/SVG/1.1/DTD/svg11.dtd">
<svg version="1.1" id="图层_1" xmlns="http://www.w3.org/2000/svg" xmlns:xlink="http://www.w3.org/1999/xlink" x="0px" y="0px"
	 width="16px" height="16px" viewBox="0 0 16 16" enable-background="new 0 0 16 16" xml:space="preserve">
<polygon fill="#1B5E20" points="1.881,16 1.881,0 14.119,0 14.119,11.495 9.545,16 "/>
<g>
	<g>
		<g>
			<g>
				
					<linearGradient id="SVGID_1_" gradientUnits="userSpaceOnUse" x1="91.2012" y1="-582.3003" x2="91.2012" y2="-567.3008" gradientTransform="matrix(1 0 0 -1 -83.2002 -566.8008)">
					<stop  offset="0" style="stop-color:#388E3C"/>
					<stop  offset="0.0757" style="stop-color:#43953E"/>
					<stop  offset="0.3246" style="stop-color:#62A943"/>
					<stop  offset="0.5665" style="stop-color:#79B747"/>
					<stop  offset="0.796" style="stop-color:#86C049"/>
					<stop  offset="1" style="stop-color:#8BC34A"/>
				</linearGradient>
				<polygon fill="url(#SVGID_1_)" points="2.381,15.5 2.381,0.5 13.619,0.5 13.619,11.281 9.4,15.5 				"/>
			</g>
			<polygon fill="#1B5E20" fill-opacity="0.39" points="13.619,11.281 13.619,11.1 9.169,11.1 9.169,15.5 9.4,15.5 			"/>
			<path fill="#FFFFFF" fill-opacity="0.3922" d="M9.395,11.281l4.226,0.006L9.4,15.5L9.395,11.281z"/>
		</g>
		<path opacity="0.8" fill="#FFFFFF" enable-background="new    " d="M8.278,3.813V3.8H7.723v0.013H4.138V10.8h7.725V3.813H8.278z
			 M4.693,5.887h1.725v1.116H4.693V5.887z M4.693,7.56h1.725v1.115H4.693V7.56z M6.992,7.56h4.314v1.115H6.992V7.56z M6.992,7.003
			V5.887h4.314v1.116H6.992z M11.307,4.374v0.959H6.992V4.374H11.307z M6.418,4.374v0.959H4.693V4.374H6.418z M4.693,9.236h1.725
			v1.003H4.693V9.236z M6.992,10.239V9.236h4.314v1.003H6.992z"/>
	</g>
	<g>
		<rect x="2.378" y="0.5" opacity="0.8" fill="#FFFFFF" enable-background="new    " width="11.245" height="2.875"/>
		<g enable-background="new    ">
			<path fill="#388E3C" d="M6.503,3.042C6.437,2.917,6.364,2.791,6.285,2.662c-0.079-0.128-0.17-0.236-0.272-0.325
				c-0.032,0.034-0.072,0.08-0.121,0.139c-0.049,0.06-0.098,0.123-0.146,0.189C5.698,2.732,5.652,2.801,5.609,2.873
				S5.536,3.001,5.515,3.042H4.909C5.008,2.867,5.125,2.686,5.261,2.5c0.135-0.186,0.286-0.384,0.452-0.593l-0.77-1.105h0.644
				L6.036,1.45l0.459-0.649h0.605L6.335,1.882C6.536,2.121,6.701,2.34,6.831,2.539c0.13,0.199,0.232,0.367,0.307,0.502H6.503z"/>
			<path fill="#388E3C" d="M9.02,2.608v0.433H7.445V0.801h0.531v1.808H9.02z"/>
			<path fill="#388E3C" d="M10.061,2.657c0.076,0,0.137-0.006,0.186-0.018c0.049-0.012,0.088-0.028,0.117-0.049
				c0.031-0.021,0.051-0.044,0.063-0.073c0.012-0.028,0.018-0.059,0.018-0.094c0-0.073-0.037-0.134-0.109-0.183
				s-0.197-0.101-0.375-0.157c-0.076-0.026-0.154-0.056-0.23-0.089C9.65,1.962,9.582,1.92,9.52,1.87
				C9.459,1.819,9.408,1.757,9.371,1.685c-0.039-0.072-0.059-0.16-0.059-0.263c0-0.104,0.02-0.197,0.061-0.28s0.1-0.154,0.174-0.212
				C9.623,0.872,9.713,0.827,9.82,0.796c0.105-0.031,0.227-0.047,0.359-0.047c0.16,0,0.297,0.016,0.412,0.049
				c0.115,0.032,0.211,0.068,0.287,0.106l-0.154,0.398c-0.066-0.033-0.139-0.061-0.219-0.086c-0.082-0.025-0.178-0.037-0.291-0.037
				c-0.127,0-0.219,0.017-0.275,0.05C9.885,1.263,9.857,1.314,9.857,1.383c0,0.041,0.01,0.076,0.029,0.104
				C9.908,1.514,9.938,1.54,9.975,1.563c0.037,0.022,0.08,0.043,0.129,0.061c0.049,0.019,0.104,0.038,0.162,0.057
				c0.123,0.043,0.229,0.086,0.32,0.128c0.09,0.042,0.166,0.091,0.227,0.147c0.059,0.056,0.104,0.122,0.133,0.197
				c0.029,0.076,0.045,0.167,0.045,0.275c0,0.209-0.076,0.371-0.23,0.486c-0.154,0.116-0.389,0.173-0.699,0.173
				c-0.104,0-0.197-0.006-0.281-0.018S9.621,3.042,9.557,3.025C9.49,3.008,9.436,2.99,9.389,2.97
				C9.342,2.951,9.303,2.933,9.271,2.916l0.15-0.401c0.07,0.037,0.156,0.069,0.26,0.099C9.785,2.642,9.912,2.657,10.061,2.657z"/>
		</g>
	</g>
</g>
</svg>
