<?xml version="1.0" encoding="utf-8"?>
<!-- Generator: Adobe Illustrator 16.0.0, SVG Export Plug-In . SVG Version: 6.00 Build 0)  -->
<!DOCTYPE svg PUBLIC "-//W3C//DTD SVG 1.1//EN" "http://www.w3.org/Graphics/SVG/1.1/DTD/svg11.dtd">
<svg version="1.1" id="图层_1" xmlns="http://www.w3.org/2000/svg" xmlns:xlink="http://www.w3.org/1999/xlink" x="0px" y="0px"
	 width="16px" height="16px" viewBox="0 0 16 16" enable-background="new 0 0 16 16" xml:space="preserve">
<polygon fill="#E65100" points="1.881,16 1.881,0 14.119,0 14.119,11.495 9.545,16 "/>
<g>
	<g>
		<g>
			
				<linearGradient id="SVGID_1_" gradientUnits="userSpaceOnUse" x1="49.6006" y1="-163.3999" x2="49.6006" y2="-148.4004" gradientTransform="matrix(1 0 0 -1 -41.6001 -147.9004)">
				<stop  offset="0" style="stop-color:#EE6F0B"/>
				<stop  offset="1" style="stop-color:#FFB74D"/>
			</linearGradient>
			<polygon fill="url(#SVGID_1_)" points="2.381,15.5 2.381,0.5 13.619,0.5 13.619,11.281 9.4,15.5 			"/>
		</g>
		<polygon fill="#E65100" fill-opacity="0.3922" points="13.619,11.281 13.619,11.1 9.169,11.1 9.169,15.5 9.4,15.5 		"/>
		<path fill="#FFFFFF" fill-opacity="0.3922" d="M9.394,11.281l4.226,0.006L9.4,15.5L9.394,11.281z"/>
	</g>
	<g opacity="0.8">
		<rect x="3.844" y="6.274" fill="#FFFFFF" width="1.2" height="6.013"/>
		<rect x="5.844" y="9.274" fill="#FFFFFF" width="1.2" height="3.006"/>
		<rect x="7.838" y="10.499" fill="#FFFFFF" width="1.2" height="1.801"/>
		<g>
			<path fill="#FFFFFF" d="M9.469,5.212l0.013,2.394l2.394-0.013c0.007,1.325-1.063,2.4-2.388,2.406
				c-1.324,0.007-2.399-1.063-2.406-2.387C7.075,6.293,8.144,5.218,9.469,5.212z"/>
			<path fill="#FFFFFF" d="M9.75,4.937c1.325-0.006,2.4,1.063,2.406,2.388L9.763,7.337L9.75,4.937z"/>
		</g>
	</g>
	<g>
		<rect x="2.378" y="0.5" opacity="0.8" fill="#FFFFFF" enable-background="new    " width="11.244" height="2.875"/>
		<g enable-background="new    ">
			<path fill="#E64A19" d="M6.93,1.92c0,0.193-0.032,0.363-0.096,0.508S6.681,2.691,6.563,2.786C6.447,2.881,6.305,2.952,6.137,3
				C5.969,3.047,5.78,3.07,5.571,3.07c-0.095,0-0.206-0.004-0.333-0.012C5.111,3.052,4.986,3.036,4.864,3.012V0.83
				c0.122-0.021,0.25-0.036,0.383-0.044C5.38,0.779,5.493,0.775,5.589,0.775c0.202,0,0.385,0.021,0.55,0.064
				c0.164,0.043,0.306,0.111,0.424,0.203C6.68,1.137,6.771,1.255,6.834,1.398C6.897,1.543,6.93,1.717,6.93,1.92z M5.395,2.631
				C5.42,2.633,5.448,2.635,5.481,2.636s0.072,0.001,0.117,0.001c0.266,0,0.463-0.063,0.591-0.189
				C6.317,2.319,6.382,2.144,6.382,1.92c0-0.235-0.062-0.413-0.184-0.533C6.075,1.266,5.882,1.205,5.616,1.205
				c-0.036,0-0.074,0-0.112,0.002C5.465,1.208,5.429,1.211,5.395,1.215V2.631z"/>
			<path fill="#E64A19" d="M8.079,0.775c0.353,0,0.622,0.059,0.811,0.176s0.283,0.311,0.283,0.577c0,0.27-0.096,0.464-0.287,0.583
				c-0.189,0.12-0.463,0.18-0.816,0.18H7.903v0.75H7.372V0.833C7.487,0.812,7.61,0.797,7.739,0.788S7.981,0.775,8.079,0.775z
				 M8.114,1.205C8.075,1.205,8.037,1.206,8,1.209C7.962,1.211,7.931,1.213,7.903,1.215v0.646h0.166
				c0.184,0,0.322-0.023,0.416-0.071c0.092-0.048,0.139-0.136,0.139-0.265c0-0.063-0.012-0.114-0.035-0.155S8.53,1.296,8.486,1.271
				C8.442,1.246,8.388,1.229,8.325,1.22C8.261,1.21,8.19,1.205,8.114,1.205z"/>
			<path fill="#E64A19" d="M10.206,2.656c0.075,0,0.137-0.006,0.186-0.018s0.088-0.027,0.117-0.049
				c0.03-0.02,0.051-0.044,0.063-0.072c0.011-0.027,0.017-0.059,0.017-0.094c0-0.073-0.036-0.135-0.109-0.183
				c-0.072-0.048-0.197-0.101-0.374-0.157C10.027,2.059,9.95,2.029,9.873,1.996S9.727,1.92,9.665,1.869
				C9.604,1.818,9.554,1.758,9.516,1.686s-0.058-0.16-0.058-0.264s0.02-0.197,0.061-0.279c0.041-0.084,0.1-0.154,0.174-0.213
				c0.075-0.058,0.166-0.103,0.272-0.134s0.228-0.047,0.36-0.047c0.159,0,0.297,0.017,0.412,0.049s0.211,0.067,0.286,0.106
				L10.87,1.303c-0.066-0.033-0.139-0.062-0.22-0.086c-0.081-0.025-0.177-0.037-0.29-0.037c-0.128,0-0.219,0.016-0.275,0.05
				c-0.055,0.033-0.082,0.085-0.082,0.153c0,0.041,0.01,0.076,0.029,0.104c0.021,0.027,0.05,0.053,0.088,0.076
				c0.037,0.022,0.08,0.043,0.129,0.061c0.049,0.02,0.103,0.038,0.162,0.057c0.122,0.044,0.229,0.086,0.319,0.129
				c0.091,0.041,0.167,0.09,0.227,0.146s0.104,0.122,0.134,0.197c0.029,0.076,0.045,0.167,0.045,0.275
				c0,0.209-0.077,0.371-0.231,0.486s-0.388,0.173-0.698,0.173c-0.104,0-0.198-0.007-0.282-0.019S9.766,3.043,9.701,3.025
				C9.636,3.008,9.581,2.99,9.534,2.971S9.448,2.933,9.417,2.916l0.15-0.401c0.07,0.036,0.156,0.069,0.26,0.099
				S10.057,2.656,10.206,2.656z"/>
		</g>
	</g>
</g>
</svg>
