<?xml version="1.0" encoding="utf-8"?>
<!-- Generator: Adobe Illustrator 16.0.0, SVG Export Plug-In . SVG Version: 6.00 Build 0)  -->
<!DOCTYPE svg PUBLIC "-//W3C//DTD SVG 1.1//EN" "http://www.w3.org/Graphics/SVG/1.1/DTD/svg11.dtd">
<svg version="1.1" id="图层_1" xmlns="http://www.w3.org/2000/svg" xmlns:xlink="http://www.w3.org/1999/xlink" x="0px" y="0px"
	 width="16px" height="16px" viewBox="0 0 16 16" enable-background="new 0 0 16 16" xml:space="preserve">
<rect x="1.881" fill="#0D47A1" width="12.238" height="16"/>
<g>
	<linearGradient id="SVGID_1_" gradientUnits="userSpaceOnUse" x1="7.9995" y1="0.5" x2="7.9995" y2="15.5005">
		<stop  offset="0" style="stop-color:#64B5F6"/>
		<stop  offset="1" style="stop-color:#3F51B5"/>
	</linearGradient>
	<rect x="2.381" y="0.5" fill="url(#SVGID_1_)" width="11.238" height="15"/>
	<g opacity="0.8">
		<rect x="3.831" y="6.433" opacity="0.8" fill="#FFFFFF" enable-background="new    " width="8.332" height="0.412"/>
		<rect x="3.831" y="5.145" opacity="0.8" fill="#FFFFFF" enable-background="new    " width="8.332" height="0.413"/>
		<rect x="7.807" y="7.645" opacity="0.8" fill="#FFFFFF" enable-background="new    " width="4.35" height="4.352"/>
		<g opacity="0.8">
			<rect x="3.831" y="7.719" fill="#FFFFFF" width="3.619" height="0.413"/>
			<rect x="3.831" y="9.008" fill="#FFFFFF" width="3.619" height="0.412"/>
			<rect x="3.831" y="10.301" fill="#FFFFFF" width="3.619" height="0.412"/>
			<rect x="3.831" y="11.588" fill="#FFFFFF" width="3.619" height="0.412"/>
		</g>
	</g>
	<g>
		<rect x="2.378" y="0.5" opacity="0.8" fill="#FFFFFF" enable-background="new    " width="11.243" height="2.875"/>
		<g enable-background="new    ">
			<path fill="#236FB7" d="M6.632,1.936c0,0.195-0.032,0.363-0.096,0.508S6.382,2.708,6.266,2.803S6.007,2.969,5.839,3.016
				C5.671,3.063,5.482,3.088,5.273,3.088c-0.095,0-0.206-0.004-0.333-0.012S4.688,3.053,4.565,3.029V0.847
				c0.123-0.021,0.25-0.036,0.383-0.044S5.195,0.791,5.29,0.791c0.203,0,0.386,0.021,0.551,0.065
				c0.164,0.043,0.305,0.11,0.424,0.204c0.117,0.092,0.208,0.211,0.271,0.355S6.632,1.733,6.632,1.936z M5.097,2.647
				C5.122,2.65,5.15,2.651,5.184,2.652c0.032,0.001,0.071,0.002,0.117,0.002c0.266,0,0.462-0.064,0.591-0.191
				C6.02,2.336,6.083,2.16,6.083,1.936c0-0.234-0.061-0.412-0.184-0.533c-0.122-0.12-0.316-0.181-0.582-0.181
				c-0.035,0-0.073,0.001-0.111,0.001C5.167,1.225,5.131,1.227,5.097,1.231V2.647z"/>
			<path fill="#236FB7" d="M9.32,1.936c0,0.192-0.03,0.361-0.091,0.507C9.17,2.588,9.087,2.709,8.983,2.808
				C8.879,2.906,8.755,2.979,8.61,3.029C8.466,3.078,8.312,3.104,8.146,3.104c-0.16,0-0.313-0.025-0.455-0.074
				c-0.144-0.05-0.268-0.123-0.375-0.222c-0.106-0.099-0.19-0.22-0.252-0.365C7.003,2.297,6.972,2.128,6.972,1.936
				c0-0.191,0.032-0.359,0.096-0.506c0.063-0.145,0.148-0.268,0.257-0.367C7.433,0.964,7.557,0.89,7.698,0.84
				c0.143-0.049,0.291-0.074,0.447-0.074c0.162,0,0.313,0.025,0.457,0.074C8.745,0.89,8.87,0.964,8.977,1.063
				c0.106,0.1,0.19,0.223,0.252,0.367C9.29,1.576,9.32,1.744,9.32,1.936z M7.521,1.936c0,0.11,0.014,0.21,0.042,0.298
				c0.028,0.089,0.069,0.165,0.122,0.228C7.738,2.525,7.804,2.574,7.88,2.609C7.958,2.643,8.046,2.66,8.146,2.66
				c0.098,0,0.186-0.018,0.264-0.051c0.079-0.035,0.145-0.084,0.198-0.148c0.054-0.063,0.094-0.139,0.122-0.228
				c0.028-0.088,0.043-0.188,0.043-0.298c0-0.109-0.015-0.209-0.043-0.299C8.701,1.548,8.661,1.471,8.607,1.408
				C8.554,1.344,8.488,1.295,8.409,1.26C8.331,1.227,8.243,1.209,8.146,1.209c-0.1,0-0.188,0.018-0.266,0.053
				C7.804,1.298,7.738,1.348,7.685,1.41c-0.053,0.064-0.094,0.141-0.122,0.23S7.521,1.828,7.521,1.936z"/>
			<path fill="#236FB7" d="M11.434,0.817v0.431h-0.712v1.811h-0.53V1.248H9.479V0.817H11.434z"/>
		</g>
	</g>
</g>
</svg>
