<?xml version="1.0" encoding="utf-8"?>
<!-- Generator: Adobe Illustrator 16.0.0, SVG Export Plug-In . SVG Version: 6.00 Build 0)  -->
<!DOCTYPE svg PUBLIC "-//W3C//DTD SVG 1.1//EN" "http://www.w3.org/Graphics/SVG/1.1/DTD/svg11.dtd">
<svg version="1.1" id="图层_1" xmlns="http://www.w3.org/2000/svg" xmlns:xlink="http://www.w3.org/1999/xlink" x="0px" y="0px"
	 width="16px" height="16px" viewBox="0 0 16 16" enable-background="new 0 0 16 16" xml:space="preserve">
<polygon fill="#E65100" points="1.881,16 1.881,0 14.119,0 14.119,11.495 9.545,16 "/>
<g>
	<g>
		<g>
			
				<linearGradient id="SVGID_1_" gradientUnits="userSpaceOnUse" x1="49.6006" y1="-163.3999" x2="49.6006" y2="-148.4004" gradientTransform="matrix(1 0 0 -1 -41.6001 -147.9004)">
				<stop  offset="0" style="stop-color:#EE6F0B"/>
				<stop  offset="1" style="stop-color:#FFB74D"/>
			</linearGradient>
			<polygon fill="url(#SVGID_1_)" points="2.381,15.5 2.381,0.5 13.619,0.5 13.619,11.281 9.4,15.5 			"/>
		</g>
		<polygon fill="#E65100" fill-opacity="0.3922" points="13.619,11.281 13.619,11.1 9.169,11.1 9.169,15.5 9.4,15.5 		"/>
		<path fill="#FFFFFF" fill-opacity="0.3922" d="M9.394,11.281l4.226,0.006L9.4,15.5L9.394,11.281z"/>
	</g>
	<g opacity="0.8">
		<rect x="3.844" y="6.274" fill="#FFFFFF" width="1.2" height="6.013"/>
		<rect x="5.844" y="9.274" fill="#FFFFFF" width="1.2" height="3.006"/>
		<rect x="7.838" y="10.499" fill="#FFFFFF" width="1.2" height="1.801"/>
		<g>
			<path fill="#FFFFFF" d="M9.469,5.212l0.013,2.394l2.394-0.013c0.007,1.325-1.063,2.4-2.388,2.406
				c-1.324,0.007-2.399-1.063-2.406-2.387C7.075,6.293,8.144,5.218,9.469,5.212z"/>
			<path fill="#FFFFFF" d="M9.75,4.937c1.325-0.006,2.4,1.063,2.406,2.388L9.763,7.337L9.75,4.937z"/>
		</g>
	</g>
</g>
<g>
	<rect x="2.378" y="0.5" opacity="0.8" fill="#FFFFFF" enable-background="new    " width="11.244" height="2.875"/>
	<g enable-background="new    ">
		<path fill="#E64A19" d="M5.619,0.775c0.353,0,0.622,0.059,0.811,0.176s0.282,0.311,0.282,0.577c0,0.27-0.095,0.464-0.286,0.583
			c-0.19,0.12-0.463,0.18-0.816,0.18H5.442v0.75h-0.53V0.833c0.115-0.021,0.237-0.036,0.367-0.045
			C5.408,0.779,5.521,0.775,5.619,0.775z M5.653,1.205c-0.038,0-0.076,0.001-0.113,0.004C5.502,1.211,5.47,1.213,5.442,1.215v0.646
			h0.167c0.184,0,0.322-0.023,0.415-0.071s0.14-0.136,0.14-0.265c0-0.063-0.012-0.114-0.036-0.155
			C6.104,1.329,6.07,1.296,6.026,1.271C5.982,1.246,5.928,1.229,5.864,1.22S5.73,1.205,5.653,1.205z"/>
		<path fill="#E64A19" d="M7.811,0.775c0.353,0,0.622,0.059,0.811,0.176s0.283,0.311,0.283,0.577c0,0.27-0.096,0.464-0.287,0.583
			c-0.189,0.12-0.463,0.18-0.816,0.18H7.635v0.75H7.104V0.833c0.115-0.021,0.238-0.036,0.367-0.045S7.713,0.775,7.811,0.775z
			 M7.846,1.205c-0.039,0-0.077,0.001-0.114,0.004C7.693,1.211,7.662,1.213,7.635,1.215v0.646h0.166
			c0.184,0,0.322-0.023,0.416-0.071c0.092-0.048,0.139-0.136,0.139-0.265c0-0.063-0.012-0.114-0.035-0.155S8.262,1.296,8.218,1.271
			C8.174,1.246,8.119,1.229,8.057,1.22C7.992,1.21,7.922,1.205,7.846,1.205z"/>
		<path fill="#E64A19" d="M11.088,0.801v0.43h-0.711v1.811H9.846V1.23H9.135v-0.43H11.088z"/>
	</g>
</g>
</svg>
