<?xml version="1.0" encoding="utf-8"?>
<!-- Generator: Adobe Illustrator 16.0.0, SVG Export Plug-In . SVG Version: 6.00 Build 0)  -->
<!DOCTYPE svg PUBLIC "-//W3C//DTD SVG 1.1//EN" "http://www.w3.org/Graphics/SVG/1.1/DTD/svg11.dtd">
<svg version="1.1" id="图层_1" xmlns="http://www.w3.org/2000/svg" xmlns:xlink="http://www.w3.org/1999/xlink" x="0px" y="0px"
	 width="16px" height="16px" viewBox="0 0 16 16" enable-background="new 0 0 16 16" xml:space="preserve">
<g>
	
		<linearGradient id="SVGID_1_" gradientUnits="userSpaceOnUse" x1="174.4004" y1="1569.9609" x2="174.4004" y2="1553.9609" gradientTransform="matrix(1 0 0 1 -166.4004 -1553.9609)">
		<stop  offset="0" style="stop-color:#512DA8"/>
		<stop  offset="0.008" style="stop-color:#512DA8"/>
		<stop  offset="0.0504" style="stop-color:#5733AB"/>
		<stop  offset="0.2927" style="stop-color:#7250BA"/>
		<stop  offset="0.5337" style="stop-color:#8564C4"/>
		<stop  offset="0.771" style="stop-color:#9171CB"/>
		<stop  offset="1" style="stop-color:#9575CD"/>
	</linearGradient>
	<path fill="url(#SVGID_1_)" d="M9.5,16l4.5-4.5V0H2v16H9.5z"/>
	<polygon fill="#512DA8" fill-opacity="0.3922" points="9.25,11.25 9.25,16 9.5,16 14,11.5 14,11.25 	"/>
	<path fill="#FFFFFF" fill-opacity="0.3922" d="M9.5,11.5h4.496L9.5,16V11.5z"/>
	<path opacity="0.8" fill="#FFFFFF" d="M7.666,4h0.668c1,0,1.166,1.174,1.166,1.174V6.34c0,0.393-0.834,1.194-0.834,1.194v0.392
		L10,8.7v0.786L7.834,9.5H6V8.715l1.334-0.787V7.536c0,0-0.836-0.797-0.834-1.19V5.179C6.5,5.179,6.666,4,7.666,4z"/>
	<g>
		<path fill="#311B92" d="M13.5,0.5v10.793L9.293,15.5H6H2.5v-15H13.5 M14,0H2v16h4h3.5l4.5-4.5V0L14,0z"/>
	</g>
</g>
</svg>
